  0
SECTION
  2
HEADER
  9
$ACADVER
  1
AC1009
  9
$DWGCODEPAGE
  3
ansi_1252
  9
$INSBASE
 10
0.0
 20
0.0
 30
0.0
  9
$EXTMIN
 10
1.000000000000000E+20
 20
1.000000000000000E+20
 30
1.000000000000000E+20
  9
$EXTMAX
 10
-1.000000000000000E+20
 20
-1.000000000000000E+20
 30
-1.000000000000000E+20
  9
$LIMMIN
 10
0.0
 20
0.0
  9
$LIMMAX
 10
12.0
 20
9.0
  9
$ORTHOMODE
 70
     0
  9
$REGENMODE
 70
     1
  9
$FILLMODE
 70
     1
  9
$QTEXTMODE
 70
     0
  9
$MIRRTEXT
 70
     1
  9
$DRAGMODE
 70
     2
  9
$LTSCALE
 40
1.0
  9
$OSMODE
 70
    37
  9
$ATTMODE
 70
     1
  9
$TEXTSIZE
 40
0.2
  9
$TRACEWID
 40
0.05
  9
$TEXTSTYLE
  7
STANDARD
  9
$CLAYER
  8
0
  9
$CELTYPE
  6
BYLAYER
  9
$CECOLOR
 62
   256
  9
$DIMSCALE
 40
1.0
  9
$DIMASZ
 40
0.18
  9
$DIMEXO
 40
0.0625
  9
$DIMDLI
 40
0.38
  9
$DIMRND
 40
0.0
  9
$DIMDLE
 40
0.0
  9
$DIMEXE
 40
0.18
  9
$DIMTP
 40
0.0
  9
$DIMTM
 40
0.0
  9
$DIMTXT
 40
0.18
  9
$DIMCEN
 40
0.09
  9
$DIMTSZ
 40
0.0
  9
$DIMTOL
 70
     0
  9
$DIMLIM
 70
     0
  9
$DIMTIH
 70
     1
  9
$DIMTOH
 70
     1
  9
$DIMSE1
 70
     0
  9
$DIMSE2
 70
     0
  9
$DIMTAD
 70
     0
  9
$DIMZIN
 70
     0
  9
$DIMBLK
  1

  9
$DIMASO
 70
     1
  9
$DIMSHO
 70
     1
  9
$DIMPOST
  1

  9
$DIMAPOST
  1

  9
$DIMALT
 70
     0
  9
$DIMALTD
 70
     2
  9
$DIMALTF
 40
25.4
  9
$DIMLFAC
 40
1.0
  9
$DIMTOFL
 70
     0
  9
$DIMTVP
 40
0.0
  9
$DIMTIX
 70
     0
  9
$DIMSOXD
 70
     0
  9
$DIMSAH
 70
     0
  9
$DIMBLK1
  1

  9
$DIMBLK2
  1

  9
$DIMSTYLE
  2
STANDARD_ACAD
  9
$DIMCLRD
 70
     0
  9
$DIMCLRE
 70
     0
  9
$DIMCLRT
 70
     0
  9
$DIMTFAC
 40
1.0
  9
$DIMGAP
 40
0.09
  9
$LUNITS
 70
     2
  9
$LUPREC
 70
     3
  9
$SKETCHINC
 40
0.1
  9
$FILLETRAD
 40
0.5
  9
$AUNITS
 70
     0
  9
$AUPREC
 70
     0
  9
$MENU
  1
.
  9
$ELEVATION
 40
0.0
  9
$PELEVATION
 40
0.0
  9
$THICKNESS
 40
0.0
  9
$LIMCHECK
 70
     0
  9
$CHAMFERA
 40
0.0
  9
$CHAMFERB
 40
0.0
  9
$SKPOLY
 70
     0
  9
$TDCREATE
 40
2460275.710522338
  9
$TDUPDATE
 40
2460275.710522419
  9
$TDINDWG
 40
0.0000000116
  9
$TDUSRTIMER
 40
0.0000000116
  9
$USRTIMER
 70
     1
  9
$ANGBASE
 50
0.0
  9
$ANGDIR
 70
     0
  9
$PDMODE
 70
     0
  9
$PDSIZE
 40
0.0
  9
$PLINEWID
 40
0.0
  9
$COORDS
 70
     1
  9
$SPLFRAME
 70
     0
  9
$SPLINETYPE
 70
     6
  9
$SPLINESEGS
 70
     8
  9
$ATTDIA
 70
     0
  9
$ATTREQ
 70
     1
  9
$HANDLING
 70
     1
  9
$HANDSEED
  5
3C4
  9
$SURFTAB1
 70
     6
  9
$SURFTAB2
 70
     6
  9
$SURFTYPE
 70
     6
  9
$SURFU
 70
     6
  9
$SURFV
 70
     6
  9
$UCSNAME
  2

  9
$UCSORG
 10
0.0
 20
0.0
 30
0.0
  9
$UCSXDIR
 10
1.0
 20
0.0
 30
0.0
  9
$UCSYDIR
 10
0.0
 20
1.0
 30
0.0
  9
$PUCSNAME
  2

  9
$PUCSORG
 10
0.0
 20
0.0
 30
0.0
  9
$PUCSXDIR
 10
1.0
 20
0.0
 30
0.0
  9
$PUCSYDIR
 10
0.0
 20
1.0
 30
0.0
  9
$USERI1
 70
     0
  9
$USERI2
 70
     0
  9
$USERI3
 70
     0
  9
$USERI4
 70
     0
  9
$USERI5
 70
     0
  9
$USERR1
 40
0.0
  9
$USERR2
 40
0.0
  9
$USERR3
 40
0.0
  9
$USERR4
 40
0.0
  9
$USERR5
 40
0.0
  9
$WORLDVIEW
 70
     1
  9
$SHADEDGE
 70
     3
  9
$SHADEDIF
 70
    70
  9
$TILEMODE
 70
     1
  9
$MAXACTVP
 70
    64
  9
$PLIMCHECK
 70
     0
  9
$PEXTMIN
 10
1.000000000000000E+20
 20
1.000000000000000E+20
 30
1.000000000000000E+20
  9
$PEXTMAX
 10
-1.000000000000000E+20
 20
-1.000000000000000E+20
 30
-1.000000000000000E+20
  9
$PLIMMIN
 10
0.0
 20
0.0
  9
$PLIMMAX
 10
12.0
 20
9.0
  9
$UNITMODE
 70
     0
  9
$VISRETAIN
 70
     1
  9
$PLINEGEN
 70
     0
  9
$PSLTSCALE
 70
     1
  0
ENDSEC
  0
SECTION
  2
TABLES
  0
TABLE
  2
VPORT
 70
     1
  0
VPORT
  2
*ACTIVE
 70
     0
 10
0.0
 20
0.0
 11
1.0
 21
1.0
 12
10.42990654205607
 22
4.5
 13
0.0
 23
0.0
 14
0.5
 24
0.5
 15
0.5
 25
0.5
 16
0.0
 26
0.0
 36
1.0
 17
0.0
 27
0.0
 37
0.0
 40
9.0
 41
1.972972972850329
 42
50.0
 43
0.0
 44
0.0
 50
0.0
 51
0.0
 71
     0
 72
   100
 73
     1
 74
     3
 75
     0
 76
     0
 77
     0
 78
     0
  0
ENDTAB
  0
TABLE
  2
LTYPE
 70
     1
  0
LTYPE
  2
CONTINUOUS
 70
     0
  3
Solid line
 72
    65
 73
     0
 40
0.0
  0
ENDTAB
  0
TABLE
  2
LAYER
 70
     1
  0
LAYER
  2
0
 70
     0
 62
     1
  6
CONTINUOUS
  0
ENDTAB
  0
TABLE
  2
STYLE
 70
     1
  0
STYLE
  2
STANDARD
 70
     0
 40
0.0
 41
1.0
 50
0.0
 71
     0
 42
0.2
  3
txt
  4

  0
ENDTAB
  0
TABLE
  2
VIEW
 70
     0
  0
ENDTAB
  0
TABLE
  2
UCS
 70
     0
  0
ENDTAB
  0
TABLE
  2
APPID
 70
     2
  0
APPID
  2
ACAD
 70
     0
  0
APPID
  2
RHINO
 70
     0
  0
ENDTAB
  0
TABLE
  2
DIMSTYLE
 70
     1
  0
DIMSTYLE
  2
STANDARD_ACAD
 70
     0
  3

  4

  5

  6

  7

 40
1.0
 41
0.18
 42
0.0625
 43
0.38
 44
0.18
 45
0.0
 46
0.0
 47
0.0
 48
0.0
140
0.18
141
0.09
142
0.0
143
25.4
144
1.0
145
0.0
146
1.0
147
0.09
 71
     0
 72
     0
 73
     1
 74
     1
 75
     0
 76
     0
 77
     0
 78
     0
170
     0
171
     2
172
     0
173
     0
174
     0
175
     0
176
     0
177
     0
178
     0
  0
ENDTAB
  0
ENDSEC
  0
SECTION
  2
BLOCKS
  0
BLOCK
  8
0
  2
$MODEL_SPACE
 70
     0
 10
0.0
 20
0.0
 30
0.0
  3
$MODEL_SPACE
  1

  0
ENDBLK
  5
21
  8
0
  0
BLOCK
 67
     1
  8
0
  2
$PAPER_SPACE
 70
     0
 10
0.0
 20
0.0
 30
0.0
  3
$PAPER_SPACE
  1

  0
ENDBLK
  5
1D
 67
     1
  8
0
  0
ENDSEC
  0
SECTION
  2
ENTITIES
  0
POLYLINE
  5
6F
  8
0
 66
     1
 10
0.0
 20
0.0
 30
0.0
 70
     1
  0
VERTEX
  5
70
  8
0
 10
7470.481187019578
 20
4506.127921646131
 30
0.0
 42
0.1402391562019836
  0
VERTEX
  5
71
  8
0
 10
7495.806592616703
 20
4551.159503951475
 30
0.0
  0
VERTEX
  5
72
  8
0
 10
7512.466694575612
 20
4551.159503951474
 30
0.0
  0
VERTEX
  5
73
  8
0
 10
7512.466694575612
 20
4576.843827804791
 30
0.0
  0
VERTEX
  5
74
  8
0
 10
7525.851646708129
 20
4588.383979420953
 30
0.0
  0
VERTEX
  5
75
  8
0
 10
7539.236598840646
 20
4576.843827804791
 30
0.0
  0
VERTEX
  5
76
  8
0
 10
7539.236598840646
 20
4551.159503951474
 30
0.0
  0
VERTEX
  5
77
  8
0
 10
7555.896700799557
 20
4551.159503951474
 30
0.0
 42
0.1402391562021131
  0
VERTEX
  5
78
  8
0
 10
7581.222106396681
 20
4506.127921646149
 30
0.0
  0
SEQEND
  5
79
  8
0
  0
POLYLINE
  5
7A
  8
0
 66
     1
 10
0.0
 20
0.0
 30
0.0
 70
     1
  0
VERTEX
  5
7B
  8
0
 10
7888.03339117055
 20
4506.127921646131
 30
0.0
 42
0.1402391562019836
  0
VERTEX
  5
7C
  8
0
 10
7913.358796767675
 20
4551.159503951475
 30
0.0
  0
VERTEX
  5
7D
  8
0
 10
7930.018898726586
 20
4551.159503951474
 30
0.0
  0
VERTEX
  5
7E
  8
0
 10
7930.018898726586
 20
4576.843827804791
 30
0.0
  0
VERTEX
  5
7F
  8
0
 10
7943.403850859103
 20
4588.383979420953
 30
0.0
  0
VERTEX
  5
80
  8
0
 10
7956.78880299162
 20
4576.843827804791
 30
0.0
  0
VERTEX
  5
81
  8
0
 10
7956.78880299162
 20
4551.159503951474
 30
0.0
  0
VERTEX
  5
82
  8
0
 10
7973.448904950529
 20
4551.159503951474
 30
0.0
 42
0.1402391562021131
  0
VERTEX
  5
83
  8
0
 10
7998.774310547653
 20
4506.127921646149
 30
0.0
  0
SEQEND
  5
84
  8
0
  0
POLYLINE
  5
85
  8
0
 66
     1
 10
0.0
 20
0.0
 30
0.0
 70
     1
  0
VERTEX
  5
86
  8
0
 10
7609.665255069902
 20
4506.127921646131
 30
0.0
 42
0.1402391562019846
  0
VERTEX
  5
87
  8
0
 10
7634.990660667027
 20
4551.159503951475
 30
0.0
  0
VERTEX
  5
88
  8
0
 10
7651.650762625934
 20
4551.159503951474
 30
0.0
  0
VERTEX
  5
89
  8
0
 10
7651.650762625934
 20
4576.843827804791
 30
0.0
  0
VERTEX
  5
8A
  8
0
 10
7665.035714758454
 20
4588.383979420953
 30
0.0
  0
VERTEX
  5
8B
  8
0
 10
7678.420666890971
 20
4576.843827804791
 30
0.0
  0
VERTEX
  5
8C
  8
0
 10
7678.420666890971
 20
4551.159503951474
 30
0.0
  0
VERTEX
  5
8D
  8
0
 10
7695.08076884988
 20
4551.159503951474
 30
0.0
 42
0.1402391562020977
  0
VERTEX
  5
8E
  8
0
 10
7720.406174447005
 20
4506.127921646149
 30
0.0
  0
SEQEND
  5
8F
  8
0
  0
POLYLINE
  5
90
  8
0
 66
     1
 10
0.0
 20
0.0
 30
0.0
 70
     1
  0
VERTEX
  5
91
  8
0
 10
7748.849323120228
 20
4506.127921646131
 30
0.0
 42
0.1402391562019825
  0
VERTEX
  5
92
  8
0
 10
7774.174728717352
 20
4551.159503951475
 30
0.0
  0
VERTEX
  5
93
  8
0
 10
7790.834830676261
 20
4551.159503951474
 30
0.0
  0
VERTEX
  5
94
  8
0
 10
7790.834830676261
 20
4576.843827804791
 30
0.0
  0
VERTEX
  5
95
  8
0
 10
7804.219782808778
 20
4588.383979420953
 30
0.0
  0
VERTEX
  5
96
  8
0
 10
7817.604734941296
 20
4576.843827804791
 30
0.0
  0
VERTEX
  5
97
  8
0
 10
7817.604734941296
 20
4551.159503951474
 30
0.0
  0
VERTEX
  5
98
  8
0
 10
7834.264836900203
 20
4551.159503951474
 30
0.0
 42
0.140239156202084
  0
VERTEX
  5
99
  8
0
 10
7859.59024249733
 20
4506.127921646149
 30
0.0
  0
SEQEND
  5
9A
  8
0
  0
POLYLINE
  5
9B
  8
0
 66
     1
 10
0.0
 20
0.0
 30
0.0
 70
     1
  0
VERTEX
  5
9C
  8
0
 10
8019.627748783616
 20
4683.505381174577
 30
0.0
 42
0.0276824780040719
  0
VERTEX
  5
9D
  8
0
 10
8015.317771752098
 20
4687.081418946845
 30
0.0
  0
VERTEX
  5
9E
  8
0
 10
8012.995884884264
 20
4688.800247298979
 30
0.0
  0
VERTEX
  5
9F
  8
0
 10
8010.67399801643
 20
4687.081418946846
 30
0.0
 42
0.1135396646114999
  0
VERTEX
  5
A0
  8
0
 10
7995.924833705467
 20
4669.832660368993
 30
0.0
  0
VERTEX
  5
A1
  8
0
 10
7995.924833705468
 20
4645.288570468761
 30
0.0
  0
VERTEX
  5
A2
  8
0
 10
7978.231373788994
 20
4645.288570468761
 30
0.0
 42
-0.1102623849382391
  0
VERTEX
  5
A3
  8
0
 10
7958.834248003106
 20
4607.096270699269
 30
0.0
  0
VERTEX
  5
A4
  8
0
 10
7956.131021409311
 20
4603.818094321672
 30
0.0
  0
VERTEX
  5
A5
  8
0
 10
7976.788802991618
 20
4586.007501563972
 30
0.0
  0
VERTEX
  5
A6
  8
0
 10
7976.788802991618
 20
4571.159503951471
 30
0.0
  0
VERTEX
  5
A7
  8
0
 10
7989.247649468233
 20
4571.159503951471
 30
0.0
  0
VERTEX
  5
A8
  8
0
 10
7992.905477034697
 20
4555.790033374068
 30
0.0
 42
0.1402391562020138
  0
VERTEX
  5
A9
  8
0
 10
8012.837451186389
 20
4520.348613449823
 30
0.0
  0
VERTEX
  5
AA
  8
0
 10
8012.995884884264
 20
4520.19193504023
 30
0.0
  0
VERTEX
  5
AB
  8
0
 10
8013.15431858214
 20
4520.348613449825
 30
0.0
 42
0.0330592693561259
  0
VERTEX
  5
AC
  8
0
 10
8019.627748783615
 20
4527.657209283498
 30
0.0
  0
SEQEND
  5
AD
  8
0
  0
POLYLINE
  5
AE
  8
0
 66
     1
 10
0.0
 20
0.0
 30
0.0
 70
     1
  0
VERTEX
  5
AF
  8
0
 10
8019.627748783614
 20
5077.561866480903
 30
0.0
 42
0.0276824780040595
  0
VERTEX
  5
B0
  8
0
 10
8015.317771752098
 20
5081.137904253168
 30
0.0
  0
VERTEX
  5
B1
  8
0
 10
8012.995884884264
 20
5082.856732605303
 30
0.0
  0
VERTEX
  5
B2
  8
0
 10
8010.673998016431
 20
5081.137904253169
 30
0.0
 42
0.1135396646115089
  0
VERTEX
  5
B3
  8
0
 10
7995.924833705467
 20
5063.889145675316
 30
0.0
  0
VERTEX
  5
B4
  8
0
 10
7995.924833705468
 20
5039.345055775084
 30
0.0
  0
VERTEX
  5
B5
  8
0
 10
7978.231373788994
 20
5039.345055775084
 30
0.0
 42
-0.1102623849382463
  0
VERTEX
  5
B6
  8
0
 10
7958.834248003106
 20
5001.152756005592
 30
0.0
  0
VERTEX
  5
B7
  8
0
 10
7956.131021409311
 20
4997.874579627995
 30
0.0
  0
VERTEX
  5
B8
  8
0
 10
7976.788802991618
 20
4980.063986870296
 30
0.0
  0
VERTEX
  5
B9
  8
0
 10
7976.788802991618
 20
4965.215989257795
 30
0.0
  0
VERTEX
  5
BA
  8
0
 10
7989.247649468233
 20
4965.215989257795
 30
0.0
  0
VERTEX
  5
BB
  8
0
 10
7992.905477034697
 20
4949.846518680391
 30
0.0
 42
0.1402391562020184
  0
VERTEX
  5
BC
  8
0
 10
8012.837451186389
 20
4914.405098756147
 30
0.0
  0
VERTEX
  5
BD
  8
0
 10
8012.995884884264
 20
4914.248420346553
 30
0.0
  0
VERTEX
  5
BE
  8
0
 10
8013.15431858214
 20
4914.405098756148
 30
0.0
 42
0.0330592693559929
  0
VERTEX
  5
BF
  8
0
 10
8019.627748783614
 20
4921.713694589821
 30
0.0
  0
SEQEND
  5
C0
  8
0
  0
POLYLINE
  5
C1
  8
0
 66
     1
 10
0.0
 20
0.0
 30
0.0
 70
     1
  0
VERTEX
  5
C2
  8
0
 10
7583.036325659211
 20
5324.427456446039
 30
0.0
 42
0.0683831500866018
  0
VERTEX
  5
C3
  8
0
 10
7595.285247035415
 20
5308.46158406247
 30
0.0
  0
VERTEX
  5
C4
  8
0
 10
7595.44368073329
 20
5308.304905652875
 30
0.0
  0
VERTEX
  5
C5
  8
0
 10
7595.602114431168
 20
5308.461584062471
 30
0.0
 42
0.1003785259923567
  0
VERTEX
  5
C6
  8
0
 10
7611.969901758376
 20
5332.860772276535
 30
0.0
 42
0.0022336557176123
  0
SEQEND
  5
C7
  8
0
  0
POLYLINE
  5
C8
  8
0
 66
     1
 10
0.0
 20
0.0
 30
0.0
 70
     1
  0
VERTEX
  5
C9
  8
0
 10
7563.48474252781
 20
5318.569434040037
 30
0.0
 42
0.0806710881318226
  0
VERTEX
  5
CA
  8
0
 10
7581.222106396681
 20
5294.240892258796
 30
0.0
 42
0.132562700912178
  0
VERTEX
  5
CB
  8
0
 10
7558.372629554496
 20
5265.397520322655
 30
0.0
  0
VERTEX
  5
CC
  8
0
 10
7558.372629554496
 20
5256.373298428244
 30
0.0
  0
VERTEX
  5
CD
  8
0
 10
7543.621497611712
 20
5256.373298428244
 30
0.0
 42
-0.1598421083291713
  0
VERTEX
  5
CE
  8
0
 10
7525.851646708129
 20
5210.905103498723
 30
0.0
 42
-0.1598421083290236
  0
VERTEX
  5
CF
  8
0
 10
7508.081795804545
 20
5256.373298428244
 30
0.0
  0
VERTEX
  5
D0
  8
0
 10
7493.330663861762
 20
5256.373298428244
 30
0.0
  0
VERTEX
  5
D1
  8
0
 10
7493.330663861761
 20
5265.397520322654
 30
0.0
 42
0.1110390952176761
  0
VERTEX
  5
D2
  8
0
 10
7475.139115148336
 20
5290.476804210721
 30
0.0
 42
-0.0068711244026554
  0
SEQEND
  5
D3
  8
0
  0
POLYLINE
  5
D4
  8
0
 66
     1
 10
0.0
 20
0.0
 30
0.0
 70
     1
  0
VERTEX
  5
D5
  8
0
 10
7449.627748783615
 20
4921.713694589823
 30
0.0
 42
0.0330592693561327
  0
VERTEX
  5
D6
  8
0
 10
7456.101178985092
 20
4914.405098756147
 30
0.0
  0
VERTEX
  5
D7
  8
0
 10
7456.259612682968
 20
4914.248420346553
 30
0.0
  0
VERTEX
  5
D8
  8
0
 10
7456.418046380842
 20
4914.405098756148
 30
0.0
 42
0.1402391562019529
  0
VERTEX
  5
D9
  8
0
 10
7476.350020532533
 20
4949.846518680391
 30
0.0
  0
VERTEX
  5
DA
  8
0
 10
7480.007848098999
 20
4965.215989257795
 30
0.0
  0
VERTEX
  5
DB
  8
0
 10
7492.466694575612
 20
4965.215989257795
 30
0.0
  0
VERTEX
  5
DC
  8
0
 10
7492.466694575612
 20
4980.063986870296
 30
0.0
  0
VERTEX
  5
DD
  8
0
 10
7513.124476157919
 20
4997.874579627995
 30
0.0
  0
VERTEX
  5
DE
  8
0
 10
7510.421249564125
 20
5001.15275600559
 30
0.0
 42
-0.1102623849381454
  0
VERTEX
  5
DF
  8
0
 10
7491.024123778239
 20
5039.345055775085
 30
0.0
  0
VERTEX
  5
E0
  8
0
 10
7473.330663861762
 20
5039.345055775084
 30
0.0
  0
VERTEX
  5
E1
  8
0
 10
7473.330663861763
 20
5063.889145675315
 30
0.0
 42
0.1135396646117955
  0
VERTEX
  5
E2
  8
0
 10
7458.5814995508
 20
5081.137904253168
 30
0.0
  0
VERTEX
  5
E3
  8
0
 10
7456.259612682968
 20
5082.856732605303
 30
0.0
  0
VERTEX
  5
E4
  8
0
 10
7453.937725815133
 20
5081.137904253169
 30
0.0
 42
0.0276824780042032
  0
VERTEX
  5
E5
  8
0
 10
7449.627748783615
 20
5077.561866480901
 30
0.0
  0
SEQEND
  5
E6
  8
0
  0
POLYLINE
  5
E7
  8
0
 66
     1
 10
0.0
 20
0.0
 30
0.0
 70
     1
  0
VERTEX
  5
E8
  8
0
 10
8019.627748783613
 20
5274.590109134063
 30
0.0
 42
0.0276824780040527
  0
VERTEX
  5
E9
  8
0
 10
8015.317771752098
 20
5278.166146906328
 30
0.0
  0
VERTEX
  5
EA
  8
0
 10
8012.995884884264
 20
5279.884975258463
 30
0.0
  0
VERTEX
  5
EB
  8
0
 10
8010.67399801643
 20
5278.166146906329
 30
0.0
 42
0.1135396646115105
  0
VERTEX
  5
EC
  8
0
 10
7995.924833705467
 20
5260.917388328477
 30
0.0
  0
VERTEX
  5
ED
  8
0
 10
7995.924833705468
 20
5236.373298428247
 30
0.0
  0
VERTEX
  5
EE
  8
0
 10
7978.231373788994
 20
5236.373298428247
 30
0.0
 42
-0.1102623849382562
  0
VERTEX
  5
EF
  8
0
 10
7958.834248003106
 20
5198.180998658752
 30
0.0
  0
VERTEX
  5
F0
  8
0
 10
7956.131021409311
 20
5194.902822281158
 30
0.0
  0
VERTEX
  5
F1
  8
0
 10
7976.788802991618
 20
5177.092229523456
 30
0.0
  0
VERTEX
  5
F2
  8
0
 10
7976.788802991618
 20
5162.244231910958
 30
0.0
  0
VERTEX
  5
F3
  8
0
 10
7989.247649468233
 20
5162.244231910958
 30
0.0
  0
VERTEX
  5
F4
  8
0
 10
7992.905477034696
 20
5146.874761333552
 30
0.0
 42
0.14023915620201
  0
VERTEX
  5
F5
  8
0
 10
8012.837451186389
 20
5111.433341409309
 30
0.0
  0
VERTEX
  5
F6
  8
0
 10
8012.995884884264
 20
5111.276662999715
 30
0.0
  0
VERTEX
  5
F7
  8
0
 10
8013.15431858214
 20
5111.433341409311
 30
0.0
 42
0.0330592693560845
  0
VERTEX
  5
F8
  8
0
 10
8019.627748783616
 20
5118.741937242983
 30
0.0
  0
SEQEND
  5
F9
  8
0
  0
POLYLINE
  5
FA
  8
0
 66
     1
 10
0.0
 20
0.0
 30
0.0
 70
     1
  0
VERTEX
  5
FB
  8
0
 10
7449.627748783614
 20
4527.657209283501
 30
0.0
 42
0.0330592693561372
  0
VERTEX
  5
FC
  8
0
 10
7456.101178985092
 20
4520.348613449823
 30
0.0
  0
VERTEX
  5
FD
  8
0
 10
7456.259612682968
 20
4520.19193504023
 30
0.0
  0
VERTEX
  5
FE
  8
0
 10
7456.418046380842
 20
4520.348613449825
 30
0.0
 42
0.1402391562020419
  0
VERTEX
  5
FF
  8
0
 10
7476.350020532533
 20
4555.790033374068
 30
0.0
  0
VERTEX
  5
100
  8
0
 10
7480.007848098999
 20
4571.159503951471
 30
0.0
  0
VERTEX
  5
101
  8
0
 10
7492.466694575612
 20
4571.159503951471
 30
0.0
  0
VERTEX
  5
102
  8
0
 10
7492.466694575612
 20
4586.007501563972
 30
0.0
  0
VERTEX
  5
103
  8
0
 10
7513.124476157919
 20
4603.818094321672
 30
0.0
  0
VERTEX
  5
104
  8
0
 10
7510.421249564125
 20
4607.096270699268
 30
0.0
 42
-0.1102623849381501
  0
VERTEX
  5
105
  8
0
 10
7491.024123778239
 20
4645.288570468761
 30
0.0
  0
VERTEX
  5
106
  8
0
 10
7473.330663861762
 20
4645.288570468761
 30
0.0
  0
VERTEX
  5
107
  8
0
 10
7473.330663861762
 20
4669.832660368992
 30
0.0
 42
0.1135396646117984
  0
VERTEX
  5
108
  8
0
 10
7458.5814995508
 20
4687.081418946845
 30
0.0
  0
VERTEX
  5
109
  8
0
 10
7456.259612682968
 20
4688.800247298979
 30
0.0
  0
VERTEX
  5
10A
  8
0
 10
7453.937725815133
 20
4687.081418946846
 30
0.0
 42
0.0276824780042103
  0
VERTEX
  5
10B
  8
0
 10
7449.627748783615
 20
4683.505381174577
 30
0.0
  0
SEQEND
  5
10C
  8
0
  0
POLYLINE
  5
10D
  8
0
 66
     1
 10
0.0
 20
0.0
 30
0.0
 70
     1
  0
VERTEX
  5
10E
  8
0
 10
8019.627748783614
 20
4880.53362382774
 30
0.0
 42
0.0276824780040595
  0
VERTEX
  5
10F
  8
0
 10
8015.317771752098
 20
4884.109661600006
 30
0.0
  0
VERTEX
  5
110
  8
0
 10
8012.995884884264
 20
4885.82848995214
 30
0.0
  0
VERTEX
  5
111
  8
0
 10
8010.673998016431
 20
4884.109661600006
 30
0.0
 42
0.1135396646115089
  0
VERTEX
  5
112
  8
0
 10
7995.924833705467
 20
4866.860903022153
 30
0.0
  0
VERTEX
  5
113
  8
0
 10
7995.924833705468
 20
4842.316813121924
 30
0.0
  0
VERTEX
  5
114
  8
0
 10
7978.231373788994
 20
4842.316813121924
 30
0.0
 42
-0.1102623849382565
  0
VERTEX
  5
115
  8
0
 10
7958.834248003106
 20
4804.124513352429
 30
0.0
  0
VERTEX
  5
116
  8
0
 10
7956.131021409311
 20
4800.846336974834
 30
0.0
  0
VERTEX
  5
117
  8
0
 10
7976.788802991618
 20
4783.035744217133
 30
0.0
  0
VERTEX
  5
118
  8
0
 10
7976.788802991618
 20
4768.187746604634
 30
0.0
  0
VERTEX
  5
119
  8
0
 10
7989.247649468233
 20
4768.187746604634
 30
0.0
  0
VERTEX
  5
11A
  8
0
 10
7992.905477034697
 20
4752.818276027229
 30
0.0
 42
0.1402391562020123
  0
VERTEX
  5
11B
  8
0
 10
8012.837451186389
 20
4717.376856102986
 30
0.0
  0
VERTEX
  5
11C
  8
0
 10
8012.995884884264
 20
4717.220177693393
 30
0.0
  0
VERTEX
  5
11D
  8
0
 10
8013.15431858214
 20
4717.376856102987
 30
0.0
 42
0.033059269356054
  0
VERTEX
  5
11E
  8
0
 10
8019.627748783616
 20
4724.685451936661
 30
0.0
  0
SEQEND
  5
11F
  8
0
  0
POLYLINE
  5
120
  8
0
 66
     1
 10
0.0
 20
0.0
 30
0.0
 70
     1
  0
VERTEX
  5
121
  8
0
 10
7709.620341880967
 20
5359.272474564118
 30
0.0
  0
VERTEX
  5
122
  8
0
 10
7710.879513367586
 20
5359.272474564118
 30
0.0
  0
VERTEX
  5
123
  8
0
 10
7714.537340934049
 20
5343.903003986715
 30
0.0
 42
0.1402391562020194
  0
VERTEX
  5
124
  8
0
 10
7734.469315085741
 20
5308.46158406247
 30
0.0
  0
VERTEX
  5
125
  8
0
 10
7734.627748783613
 20
5308.304905652875
 30
0.0
  0
VERTEX
  5
126
  8
0
 10
7734.786182481491
 20
5308.461584062471
 30
0.0
 42
0.1402391562019515
  0
VERTEX
  5
127
  8
0
 10
7754.718156633182
 20
5343.903003986715
 30
0.0
  0
VERTEX
  5
128
  8
0
 10
7758.375984199646
 20
5359.272474564118
 30
0.0
  0
VERTEX
  5
129
  8
0
 10
7770.834830676261
 20
5359.272474564118
 30
0.0
  0
VERTEX
  5
12A
  8
0
 10
7770.834830676261
 20
5374.120472176618
 30
0.0
  0
VERTEX
  5
12B
  8
0
 10
7771.02637538727
 20
5374.28561695894
 30
0.0
 42
0.0046852568918546
  0
SEQEND
  5
12C
  8
0
  0
POLYLINE
  5
12D
  8
0
 66
     1
 10
0.0
 20
0.0
 30
0.0
 70
     1
  0
VERTEX
  5
12E
  8
0
 10
7823.617518100271
 20
5386.17988049094
 30
0.0
  0
VERTEX
  5
12F
  8
0
 10
7837.604734941294
 20
5374.120472176618
 30
0.0
  0
VERTEX
  5
130
  8
0
 10
7837.604734941294
 20
5359.272474564118
 30
0.0
  0
VERTEX
  5
131
  8
0
 10
7850.063581417909
 20
5359.272474564118
 30
0.0
  0
VERTEX
  5
132
  8
0
 10
7853.721408984373
 20
5343.903003986715
 30
0.0
 42
0.1402391562020345
  0
VERTEX
  5
133
  8
0
 10
7873.653383136064
 20
5308.46158406247
 30
0.0
  0
VERTEX
  5
134
  8
0
 10
7873.81181683394
 20
5308.304905652875
 30
0.0
  0
VERTEX
  5
135
  8
0
 10
7873.970250531817
 20
5308.461584062471
 30
0.0
 42
0.1402391562019515
  0
VERTEX
  5
136
  8
0
 10
7893.902224683508
 20
5343.903003986715
 30
0.0
  0
VERTEX
  5
137
  8
0
 10
7897.560052249971
 20
5359.272474564118
 30
0.0
  0
VERTEX
  5
138
  8
0
 10
7910.018898726586
 20
5359.272474564118
 30
0.0
  0
VERTEX
  5
139
  8
0
 10
7910.018898726586
 20
5374.120472176618
 30
0.0
  0
VERTEX
  5
13A
  8
0
 10
7930.676680308891
 20
5391.931064934318
 30
0.0
  0
VERTEX
  5
13B
  8
0
 10
7927.973453715099
 20
5395.209241311914
 30
0.0
 42
-0.033126377700082
  0
VERTEX
  5
13C
  8
0
 10
7920.378021522711
 20
5405.773637567267
 30
0.0
 42
0.0073173491522951
  0
SEQEND
  5
13D
  8
0
  0
POLYLINE
  5
13E
  8
0
 66
     1
 10
0.0
 20
0.0
 30
0.0
 70
     1
  0
VERTEX
  5
13F
  8
0
 10
7971.482896698187
 20
5414.939396641539
 30
0.0
 42
-0.059815800588121
  0
VERTEX
  5
140
  8
0
 10
7958.834248003106
 20
5395.209241311915
 30
0.0
  0
VERTEX
  5
141
  8
0
 10
7956.131021409311
 20
5391.931064934318
 30
0.0
  0
VERTEX
  5
142
  8
0
 10
7976.788802991618
 20
5374.120472176618
 30
0.0
  0
VERTEX
  5
143
  8
0
 10
7976.788802991618
 20
5359.272474564118
 30
0.0
  0
VERTEX
  5
144
  8
0
 10
7989.247649468233
 20
5359.272474564118
 30
0.0
  0
VERTEX
  5
145
  8
0
 10
7992.905477034697
 20
5343.903003986715
 30
0.0
 42
0.1402391562020138
  0
VERTEX
  5
146
  8
0
 10
8012.837451186389
 20
5308.46158406247
 30
0.0
  0
VERTEX
  5
147
  8
0
 10
8012.995884884264
 20
5308.304905652875
 30
0.0
  0
VERTEX
  5
148
  8
0
 10
8013.154318582139
 20
5308.461584062471
 30
0.0
 42
0.0330592693560088
  0
VERTEX
  5
149
  8
0
 10
8019.627748783612
 20
5315.770179896142
 30
0.0
  0
VERTEX
  5
14A
  8
0
 10
8019.627748783613
 20
5422.834365325297
 30
0.0
 42
0.003615959717304
  0
SEQEND
  5
14B
  8
0
  0
POLYLINE
  5
14C
  8
0
 66
     1
 10
0.0
 20
0.0
 30
0.0
 70
     1
  0
VERTEX
  5
14D
  8
0
 10
7678.420666890972
 20
5351.175008129473
 30
0.0
  0
VERTEX
  5
14E
  8
0
 10
7678.420666890971
 20
5339.27247456412
 30
0.0
  0
VERTEX
  5
14F
  8
0
 10
7695.080768849881
 20
5339.27247456412
 30
0.0
 42
0.1402391562020957
  0
VERTEX
  5
150
  8
0
 10
7720.406174447005
 20
5294.240892258796
 30
0.0
 42
0.132562700912178
  0
VERTEX
  5
151
  8
0
 10
7697.55669760482
 20
5265.397520322655
 30
0.0
  0
VERTEX
  5
152
  8
0
 10
7697.55669760482
 20
5256.373298428244
 30
0.0
  0
VERTEX
  5
153
  8
0
 10
7682.805565662037
 20
5256.373298428244
 30
0.0
 42
-0.1598421083291752
  0
VERTEX
  5
154
  8
0
 10
7665.035714758454
 20
5210.905103498723
 30
0.0
 42
-0.1598421083290578
  0
VERTEX
  5
155
  8
0
 10
7647.26586385487
 20
5256.373298428244
 30
0.0
  0
VERTEX
  5
156
  8
0
 10
7632.514731912085
 20
5256.373298428244
 30
0.0
  0
VERTEX
  5
157
  8
0
 10
7632.514731912085
 20
5265.397520322654
 30
0.0
 42
0.1325627009125398
  0
VERTEX
  5
158
  8
0
 10
7609.665255069902
 20
5294.240892258778
 30
0.0
 42
0.1402391562021487
  0
VERTEX
  5
159
  8
0
 10
7634.990660667027
 20
5339.272474564121
 30
0.0
  0
VERTEX
  5
15A
  8
0
 10
7651.650762625934
 20
5339.27247456412
 30
0.0
  0
VERTEX
  5
15B
  8
0
 10
7651.650762625934
 20
5343.972702287639
 30
0.0
 42
-0.0020546128429499
  0
SEQEND
  5
15C
  8
0
  0
POLYLINE
  5
15D
  8
0
 66
     1
 10
0.0
 20
0.0
 30
0.0
 70
     1
  0
VERTEX
  5
15E
  8
0
 10
7449.627748783613
 20
4724.685451936665
 30
0.0
 42
0.0330592693561415
  0
VERTEX
  5
15F
  8
0
 10
7456.101178985092
 20
4717.376856102986
 30
0.0
  0
VERTEX
  5
160
  8
0
 10
7456.259612682968
 20
4717.220177693393
 30
0.0
  0
VERTEX
  5
161
  8
0
 10
7456.418046380842
 20
4717.376856102987
 30
0.0
 42
0.1402391562019688
  0
VERTEX
  5
162
  8
0
 10
7476.350020532533
 20
4752.818276027228
 30
0.0
  0
VERTEX
  5
163
  8
0
 10
7480.007848098999
 20
4768.187746604634
 30
0.0
  0
VERTEX
  5
164
  8
0
 10
7492.466694575612
 20
4768.187746604634
 30
0.0
  0
VERTEX
  5
165
  8
0
 10
7492.466694575612
 20
4783.035744217133
 30
0.0
  0
VERTEX
  5
166
  8
0
 10
7513.124476157919
 20
4800.846336974832
 30
0.0
  0
VERTEX
  5
167
  8
0
 10
7510.421249564125
 20
4804.12451335243
 30
0.0
 42
-0.1102623849381456
  0
VERTEX
  5
168
  8
0
 10
7491.024123778239
 20
4842.316813121924
 30
0.0
  0
VERTEX
  5
169
  8
0
 10
7473.330663861762
 20
4842.316813121924
 30
0.0
  0
VERTEX
  5
16A
  8
0
 10
7473.330663861763
 20
4866.860903022155
 30
0.0
 42
0.1135396646117765
  0
VERTEX
  5
16B
  8
0
 10
7458.5814995508
 20
4884.109661600006
 30
0.0
  0
VERTEX
  5
16C
  8
0
 10
7456.259612682968
 20
4885.82848995214
 30
0.0
  0
VERTEX
  5
16D
  8
0
 10
7453.937725815133
 20
4884.109661600006
 30
0.0
 42
0.0276824780042397
  0
VERTEX
  5
16E
  8
0
 10
7449.627748783612
 20
4880.533623827736
 30
0.0
  0
SEQEND
  5
16F
  8
0
  0
POLYLINE
  5
170
  8
0
 66
     1
 10
0.0
 20
0.0
 30
0.0
 70
     1
  0
VERTEX
  5
171
  8
0
 10
7449.627748783617
 20
5118.741937242983
 30
0.0
 42
0.0330592693561197
  0
VERTEX
  5
172
  8
0
 10
7456.101178985092
 20
5111.433341409309
 30
0.0
  0
VERTEX
  5
173
  8
0
 10
7456.259612682968
 20
5111.276662999715
 30
0.0
  0
VERTEX
  5
174
  8
0
 10
7456.418046380842
 20
5111.433341409311
 30
0.0
 42
0.1402391562019709
  0
VERTEX
  5
175
  8
0
 10
7476.350020532533
 20
5146.874761333552
 30
0.0
  0
VERTEX
  5
176
  8
0
 10
7480.007848098999
 20
5162.244231910958
 30
0.0
  0
VERTEX
  5
177
  8
0
 10
7492.466694575612
 20
5162.244231910958
 30
0.0
  0
VERTEX
  5
178
  8
0
 10
7492.466694575612
 20
5177.092229523456
 30
0.0
  0
VERTEX
  5
179
  8
0
 10
7513.124476157919
 20
5194.902822281156
 30
0.0
  0
VERTEX
  5
17A
  8
0
 10
7510.421249564125
 20
5198.180998658753
 30
0.0
 42
-0.1102623849381521
  0
VERTEX
  5
17B
  8
0
 10
7491.024123778239
 20
5236.373298428247
 30
0.0
  0
VERTEX
  5
17C
  8
0
 10
7473.330663861762
 20
5236.373298428247
 30
0.0
  0
VERTEX
  5
17D
  8
0
 10
7473.330663861763
 20
5260.917388328478
 30
0.0
 42
0.1135396646117776
  0
VERTEX
  5
17E
  8
0
 10
7458.5814995508
 20
5278.166146906328
 30
0.0
  0
VERTEX
  5
17F
  8
0
 10
7456.259612682968
 20
5279.884975258463
 30
0.0
  0
VERTEX
  5
180
  8
0
 10
7453.937725815133
 20
5278.166146906329
 30
0.0
 42
0.0276824780041803
  0
VERTEX
  5
181
  8
0
 10
7449.627748783613
 20
5274.590109134059
 30
0.0
  0
SEQEND
  5
182
  8
0
  0
POLYLINE
  5
183
  8
0
 66
     1
 10
0.0
 20
0.0
 30
0.0
 70
     1
  0
VERTEX
  5
184
  8
0
 10
7429.627748783613
 20
5296.127921646112
 30
0.0
  0
VERTEX
  5
185
  8
0
 10
7429.627748783613
 20
4486.127921646112
 30
0.0
  0
VERTEX
  5
186
  8
0
 10
8039.627748783613
 20
4486.127921646112
 30
0.0
  0
VERTEX
  5
187
  8
0
 10
8039.627748783614
 20
5446.127921646112
 30
0.0
 42
0.0463820960915811
  0
SEQEND
  5
188
  8
0
  0
POLYLINE
  5
189
  8
0
 66
     1
 10
0.0
 20
0.0
 30
0.0
 70
     1
  0
VERTEX
  5
18A
  8
0
 10
7595.602114431166
 20
4520.348613449825
 30
0.0
 42
0.1402391562020419
  0
VERTEX
  5
18B
  8
0
 10
7615.534088582857
 20
4555.790033374068
 30
0.0
  0
VERTEX
  5
18C
  8
0
 10
7619.191916149322
 20
4571.159503951471
 30
0.0
  0
VERTEX
  5
18D
  8
0
 10
7631.650762625938
 20
4571.159503951471
 30
0.0
  0
VERTEX
  5
18E
  8
0
 10
7631.650762625938
 20
4586.007501563972
 30
0.0
  0
VERTEX
  5
18F
  8
0
 10
7652.308544208246
 20
4603.818094321672
 30
0.0
  0
VERTEX
  5
190
  8
0
 10
7649.60531761445
 20
4607.096270699268
 30
0.0
 42
-0.1102623849381687
  0
VERTEX
  5
191
  8
0
 10
7630.208191828562
 20
4645.288570468761
 30
0.0
  0
VERTEX
  5
192
  8
0
 10
7612.514731912089
 20
4645.288570468761
 30
0.0
  0
VERTEX
  5
193
  8
0
 10
7612.514731912088
 20
4669.832660368992
 30
0.0
 42
0.1135396646117583
  0
VERTEX
  5
194
  8
0
 10
7597.765567601125
 20
4687.081418946845
 30
0.0
  0
VERTEX
  5
195
  8
0
 10
7595.44368073329
 20
4688.800247298979
 30
0.0
  0
VERTEX
  5
196
  8
0
 10
7593.121793865455
 20
4687.081418946846
 30
0.0
 42
0.1135396646114715
  0
VERTEX
  5
197
  8
0
 10
7578.372629554495
 20
4669.832660368993
 30
0.0
  0
VERTEX
  5
198
  8
0
 10
7578.372629554496
 20
4645.288570468761
 30
0.0
  0
VERTEX
  5
199
  8
0
 10
7560.679169638019
 20
4645.288570468761
 30
0.0
 42
-0.1102623849382816
  0
VERTEX
  5
19A
  8
0
 10
7541.282043852134
 20
4607.096270699269
 30
0.0
  0
VERTEX
  5
19B
  8
0
 10
7538.578817258339
 20
4603.818094321672
 30
0.0
  0
VERTEX
  5
19C
  8
0
 10
7559.236598840646
 20
4586.007501563972
 30
0.0
  0
VERTEX
  5
19D
  8
0
 10
7559.236598840646
 20
4571.159503951471
 30
0.0
  0
VERTEX
  5
19E
  8
0
 10
7571.695445317259
 20
4571.159503951471
 30
0.0
  0
VERTEX
  5
19F
  8
0
 10
7575.353272883724
 20
4555.790033374068
 30
0.0
 42
0.1402391562020368
  0
VERTEX
  5
1A0
  8
0
 10
7595.285247035415
 20
4520.348613449823
 30
0.0
  0
VERTEX
  5
1A1
  8
0
 10
7595.44368073329
 20
4520.19193504023
 30
0.0
  0
SEQEND
  5
1A2
  8
0
  0
POLYLINE
  5
1A3
  8
0
 66
     1
 10
0.0
 20
0.0
 30
0.0
 70
     1
  0
VERTEX
  5
1A4
  8
0
 10
7734.786182481491
 20
4520.348613449825
 30
0.0
 42
0.1402391562020419
  0
VERTEX
  5
1A5
  8
0
 10
7754.718156633182
 20
4555.790033374068
 30
0.0
  0
VERTEX
  5
1A6
  8
0
 10
7758.375984199646
 20
4571.159503951471
 30
0.0
  0
VERTEX
  5
1A7
  8
0
 10
7770.834830676261
 20
4571.159503951471
 30
0.0
  0
VERTEX
  5
1A8
  8
0
 10
7770.834830676261
 20
4586.007501563972
 30
0.0
  0
VERTEX
  5
1A9
  8
0
 10
7791.492612258568
 20
4603.818094321672
 30
0.0
  0
VERTEX
  5
1AA
  8
0
 10
7788.789385664774
 20
4607.096270699268
 30
0.0
 42
-0.1102623849381501
  0
VERTEX
  5
1AB
  8
0
 10
7769.392259878889
 20
4645.288570468761
 30
0.0
  0
VERTEX
  5
1AC
  8
0
 10
7751.698799962412
 20
4645.288570468761
 30
0.0
  0
VERTEX
  5
1AD
  8
0
 10
7751.698799962412
 20
4669.832660368992
 30
0.0
 42
0.1135396646117984
  0
VERTEX
  5
1AE
  8
0
 10
7736.949635651449
 20
4687.081418946845
 30
0.0
  0
VERTEX
  5
1AF
  8
0
 10
7734.627748783617
 20
4688.800247298979
 30
0.0
  0
VERTEX
  5
1B0
  8
0
 10
7732.305861915783
 20
4687.081418946846
 30
0.0
 42
0.1135396646115047
  0
VERTEX
  5
1B1
  8
0
 10
7717.556697604819
 20
4669.832660368993
 30
0.0
  0
VERTEX
  5
1B2
  8
0
 10
7717.556697604819
 20
4645.288570468761
 30
0.0
  0
VERTEX
  5
1B3
  8
0
 10
7699.863237688342
 20
4645.288570468761
 30
0.0
 42
-0.110262384938255
  0
VERTEX
  5
1B4
  8
0
 10
7680.466111902457
 20
4607.096270699269
 30
0.0
  0
VERTEX
  5
1B5
  8
0
 10
7677.762885308662
 20
4603.818094321672
 30
0.0
  0
VERTEX
  5
1B6
  8
0
 10
7698.420666890969
 20
4586.007501563972
 30
0.0
  0
VERTEX
  5
1B7
  8
0
 10
7698.420666890969
 20
4571.159503951471
 30
0.0
  0
VERTEX
  5
1B8
  8
0
 10
7710.879513367586
 20
4571.159503951471
 30
0.0
  0
VERTEX
  5
1B9
  8
0
 10
7714.537340934049
 20
4555.790033374068
 30
0.0
 42
0.1402391562020194
  0
VERTEX
  5
1BA
  8
0
 10
7734.469315085741
 20
4520.348613449823
 30
0.0
  0
VERTEX
  5
1BB
  8
0
 10
7734.627748783613
 20
4520.19193504023
 30
0.0
  0
SEQEND
  5
1BC
  8
0
  0
POLYLINE
  5
1BD
  8
0
 66
     1
 10
0.0
 20
0.0
 30
0.0
 70
     1
  0
VERTEX
  5
1BE
  8
0
 10
7873.970250531817
 20
4520.348613449825
 30
0.0
 42
0.1402391562020419
  0
VERTEX
  5
1BF
  8
0
 10
7893.902224683508
 20
4555.790033374068
 30
0.0
  0
VERTEX
  5
1C0
  8
0
 10
7897.560052249971
 20
4571.159503951471
 30
0.0
  0
VERTEX
  5
1C1
  8
0
 10
7910.018898726586
 20
4571.159503951471
 30
0.0
  0
VERTEX
  5
1C2
  8
0
 10
7910.018898726586
 20
4586.007501563972
 30
0.0
  0
VERTEX
  5
1C3
  8
0
 10
7930.676680308891
 20
4603.818094321672
 30
0.0
  0
VERTEX
  5
1C4
  8
0
 10
7927.9734537151
 20
4607.096270699268
 30
0.0
 42
-0.1102623849381739
  0
VERTEX
  5
1C5
  8
0
 10
7908.576327929211
 20
4645.288570468761
 30
0.0
  0
VERTEX
  5
1C6
  8
0
 10
7890.882868012736
 20
4645.288570468761
 30
0.0
  0
VERTEX
  5
1C7
  8
0
 10
7890.882868012735
 20
4669.832660368991
 30
0.0
 42
0.1135396646118225
  0
VERTEX
  5
1C8
  8
0
 10
7876.133703701776
 20
4687.081418946845
 30
0.0
  0
VERTEX
  5
1C9
  8
0
 10
7873.81181683394
 20
4688.800247298979
 30
0.0
  0
VERTEX
  5
1CA
  8
0
 10
7871.489929966105
 20
4687.081418946846
 30
0.0
 42
0.1135396646114715
  0
VERTEX
  5
1CB
  8
0
 10
7856.740765655144
 20
4669.832660368993
 30
0.0
  0
VERTEX
  5
1CC
  8
0
 10
7856.740765655143
 20
4645.288570468761
 30
0.0
  0
VERTEX
  5
1CD
  8
0
 10
7839.047305738667
 20
4645.288570468761
 30
0.0
 42
-0.110262384938255
  0
VERTEX
  5
1CE
  8
0
 10
7819.650179952781
 20
4607.096270699269
 30
0.0
  0
VERTEX
  5
1CF
  8
0
 10
7816.946953358986
 20
4603.818094321672
 30
0.0
  0
VERTEX
  5
1D0
  8
0
 10
7837.604734941294
 20
4586.007501563972
 30
0.0
  0
VERTEX
  5
1D1
  8
0
 10
7837.604734941294
 20
4571.159503951471
 30
0.0
  0
VERTEX
  5
1D2
  8
0
 10
7850.063581417909
 20
4571.159503951471
 30
0.0
  0
VERTEX
  5
1D3
  8
0
 10
7853.721408984374
 20
4555.790033374068
 30
0.0
 42
0.1402391562020368
  0
VERTEX
  5
1D4
  8
0
 10
7873.653383136064
 20
4520.348613449823
 30
0.0
  0
VERTEX
  5
1D5
  8
0
 10
7873.81181683394
 20
4520.19193504023
 30
0.0
  0
SEQEND
  5
1D6
  8
0
  0
POLYLINE
  5
1D7
  8
0
 66
     1
 10
0.0
 20
0.0
 30
0.0
 70
     1
  0
VERTEX
  5
1D8
  8
0
 10
7595.602114431166
 20
4717.376856102986
 30
0.0
 42
0.140239156202038
  0
VERTEX
  5
1D9
  8
0
 10
7615.534088582857
 20
4752.818276027228
 30
0.0
  0
VERTEX
  5
1DA
  8
0
 10
7619.191916149322
 20
4768.187746604634
 30
0.0
  0
VERTEX
  5
1DB
  8
0
 10
7631.650762625938
 20
4768.187746604634
 30
0.0
  0
VERTEX
  5
1DC
  8
0
 10
7631.650762625938
 20
4783.035744217133
 30
0.0
  0
VERTEX
  5
1DD
  8
0
 10
7652.308544208246
 20
4800.846336974832
 30
0.0
  0
VERTEX
  5
1DE
  8
0
 10
7649.60531761445
 20
4804.12451335243
 30
0.0
 42
-0.1102623849381709
  0
VERTEX
  5
1DF
  8
0
 10
7630.208191828562
 20
4842.316813121924
 30
0.0
  0
VERTEX
  5
1E0
  8
0
 10
7612.514731912089
 20
4842.316813121924
 30
0.0
  0
VERTEX
  5
1E1
  8
0
 10
7612.514731912089
 20
4866.860903022155
 30
0.0
 42
0.113539664611737
  0
VERTEX
  5
1E2
  8
0
 10
7597.765567601125
 20
4884.109661600006
 30
0.0
  0
VERTEX
  5
1E3
  8
0
 10
7595.44368073329
 20
4885.82848995214
 30
0.0
  0
VERTEX
  5
1E4
  8
0
 10
7593.121793865456
 20
4884.109661600005
 30
0.0
 42
0.1135396646114744
  0
VERTEX
  5
1E5
  8
0
 10
7578.372629554495
 20
4866.860903022153
 30
0.0
  0
VERTEX
  5
1E6
  8
0
 10
7578.372629554496
 20
4842.316813121924
 30
0.0
  0
VERTEX
  5
1E7
  8
0
 10
7560.679169638018
 20
4842.316813121924
 30
0.0
 42
-0.1102623849382943
  0
VERTEX
  5
1E8
  8
0
 10
7541.282043852134
 20
4804.124513352429
 30
0.0
  0
VERTEX
  5
1E9
  8
0
 10
7538.578817258339
 20
4800.846336974834
 30
0.0
  0
VERTEX
  5
1EA
  8
0
 10
7559.236598840646
 20
4783.035744217133
 30
0.0
  0
VERTEX
  5
1EB
  8
0
 10
7559.236598840646
 20
4768.187746604634
 30
0.0
  0
VERTEX
  5
1EC
  8
0
 10
7571.695445317259
 20
4768.187746604634
 30
0.0
  0
VERTEX
  5
1ED
  8
0
 10
7575.353272883724
 20
4752.818276027229
 30
0.0
 42
0.1402391562020281
  0
VERTEX
  5
1EE
  8
0
 10
7595.285247035415
 20
4717.376856102986
 30
0.0
  0
VERTEX
  5
1EF
  8
0
 10
7595.44368073329
 20
4717.220177693393
 30
0.0
  0
SEQEND
  5
1F0
  8
0
  0
POLYLINE
  5
1F1
  8
0
 66
     1
 10
0.0
 20
0.0
 30
0.0
 70
     1
  0
VERTEX
  5
1F2
  8
0
 10
7734.786182481491
 20
4717.376856102986
 30
0.0
 42
0.140239156202038
  0
VERTEX
  5
1F3
  8
0
 10
7754.718156633182
 20
4752.818276027228
 30
0.0
  0
VERTEX
  5
1F4
  8
0
 10
7758.375984199646
 20
4768.187746604634
 30
0.0
  0
VERTEX
  5
1F5
  8
0
 10
7770.834830676261
 20
4768.187746604634
 30
0.0
  0
VERTEX
  5
1F6
  8
0
 10
7770.834830676261
 20
4783.035744217133
 30
0.0
  0
VERTEX
  5
1F7
  8
0
 10
7791.492612258568
 20
4800.846336974832
 30
0.0
  0
VERTEX
  5
1F8
  8
0
 10
7788.789385664774
 20
4804.12451335243
 30
0.0
 42
-0.1102623849381456
  0
VERTEX
  5
1F9
  8
0
 10
7769.392259878889
 20
4842.316813121924
 30
0.0
  0
VERTEX
  5
1FA
  8
0
 10
7751.698799962412
 20
4842.316813121924
 30
0.0
  0
VERTEX
  5
1FB
  8
0
 10
7751.698799962413
 20
4866.860903022155
 30
0.0
 42
0.1135396646117765
  0
VERTEX
  5
1FC
  8
0
 10
7736.949635651449
 20
4884.109661600006
 30
0.0
  0
VERTEX
  5
1FD
  8
0
 10
7734.627748783617
 20
4885.82848995214
 30
0.0
  0
VERTEX
  5
1FE
  8
0
 10
7732.305861915783
 20
4884.109661600007
 30
0.0
 42
0.1135396646115047
  0
VERTEX
  5
1FF
  8
0
 10
7717.556697604819
 20
4866.860903022153
 30
0.0
  0
VERTEX
  5
200
  8
0
 10
7717.556697604819
 20
4842.316813121924
 30
0.0
  0
VERTEX
  5
201
  8
0
 10
7699.863237688342
 20
4842.316813121924
 30
0.0
 42
-0.1102623849382761
  0
VERTEX
  5
202
  8
0
 10
7680.466111902457
 20
4804.124513352429
 30
0.0
  0
VERTEX
  5
203
  8
0
 10
7677.762885308662
 20
4800.846336974834
 30
0.0
  0
VERTEX
  5
204
  8
0
 10
7698.420666890969
 20
4783.035744217133
 30
0.0
  0
VERTEX
  5
205
  8
0
 10
7698.420666890969
 20
4768.187746604634
 30
0.0
  0
VERTEX
  5
206
  8
0
 10
7710.879513367586
 20
4768.187746604634
 30
0.0
  0
VERTEX
  5
207
  8
0
 10
7714.537340934049
 20
4752.818276027229
 30
0.0
 42
0.1402391562020074
  0
VERTEX
  5
208
  8
0
 10
7734.469315085741
 20
4717.376856102986
 30
0.0
  0
VERTEX
  5
209
  8
0
 10
7734.627748783613
 20
4717.220177693393
 30
0.0
  0
SEQEND
  5
20A
  8
0
  0
POLYLINE
  5
20B
  8
0
 66
     1
 10
0.0
 20
0.0
 30
0.0
 70
     1
  0
VERTEX
  5
20C
  8
0
 10
7873.970250531817
 20
4717.376856102986
 30
0.0
 42
0.140239156202038
  0
VERTEX
  5
20D
  8
0
 10
7893.902224683508
 20
4752.818276027228
 30
0.0
  0
VERTEX
  5
20E
  8
0
 10
7897.560052249971
 20
4768.187746604634
 30
0.0
  0
VERTEX
  5
20F
  8
0
 10
7910.018898726586
 20
4768.187746604634
 30
0.0
  0
VERTEX
  5
210
  8
0
 10
7910.018898726586
 20
4783.035744217133
 30
0.0
  0
VERTEX
  5
211
  8
0
 10
7930.676680308891
 20
4800.846336974832
 30
0.0
  0
VERTEX
  5
212
  8
0
 10
7927.973453715099
 20
4804.12451335243
 30
0.0
 42
-0.1102623849381709
  0
VERTEX
  5
213
  8
0
 10
7908.576327929211
 20
4842.316813121924
 30
0.0
  0
VERTEX
  5
214
  8
0
 10
7890.882868012736
 20
4842.316813121924
 30
0.0
  0
VERTEX
  5
215
  8
0
 10
7890.882868012736
 20
4866.860903022154
 30
0.0
 42
0.1135396646118041
  0
VERTEX
  5
216
  8
0
 10
7876.133703701776
 20
4884.109661600006
 30
0.0
  0
VERTEX
  5
217
  8
0
 10
7873.81181683394
 20
4885.82848995214
 30
0.0
  0
VERTEX
  5
218
  8
0
 10
7871.489929966106
 20
4884.109661600005
 30
0.0
 42
0.1135396646114744
  0
VERTEX
  5
219
  8
0
 10
7856.740765655144
 20
4866.860903022153
 30
0.0
  0
VERTEX
  5
21A
  8
0
 10
7856.740765655143
 20
4842.316813121924
 30
0.0
  0
VERTEX
  5
21B
  8
0
 10
7839.047305738668
 20
4842.316813121924
 30
0.0
 42
-0.1102623849382733
  0
VERTEX
  5
21C
  8
0
 10
7819.650179952781
 20
4804.124513352429
 30
0.0
  0
VERTEX
  5
21D
  8
0
 10
7816.946953358986
 20
4800.846336974834
 30
0.0
  0
VERTEX
  5
21E
  8
0
 10
7837.604734941294
 20
4783.035744217133
 30
0.0
  0
VERTEX
  5
21F
  8
0
 10
7837.604734941294
 20
4768.187746604634
 30
0.0
  0
VERTEX
  5
220
  8
0
 10
7850.063581417909
 20
4768.187746604634
 30
0.0
  0
VERTEX
  5
221
  8
0
 10
7853.721408984374
 20
4752.818276027229
 30
0.0
 42
0.1402391562020297
  0
VERTEX
  5
222
  8
0
 10
7873.653383136064
 20
4717.376856102986
 30
0.0
  0
VERTEX
  5
223
  8
0
 10
7873.81181683394
 20
4717.220177693393
 30
0.0
  0
SEQEND
  5
224
  8
0
  0
POLYLINE
  5
225
  8
0
 66
     1
 10
0.0
 20
0.0
 30
0.0
 70
     1
  0
VERTEX
  5
226
  8
0
 10
7595.602114431166
 20
4914.40509875615
 30
0.0
 42
0.140239156202038
  0
VERTEX
  5
227
  8
0
 10
7615.534088582857
 20
4949.846518680391
 30
0.0
  0
VERTEX
  5
228
  8
0
 10
7619.191916149322
 20
4965.215989257795
 30
0.0
  0
VERTEX
  5
229
  8
0
 10
7631.650762625938
 20
4965.215989257795
 30
0.0
  0
VERTEX
  5
22A
  8
0
 10
7631.650762625938
 20
4980.063986870296
 30
0.0
  0
VERTEX
  5
22B
  8
0
 10
7652.308544208246
 20
4997.874579627995
 30
0.0
  0
VERTEX
  5
22C
  8
0
 10
7649.60531761445
 20
5001.15275600559
 30
0.0
 42
-0.1102623849381647
  0
VERTEX
  5
22D
  8
0
 10
7630.208191828562
 20
5039.345055775085
 30
0.0
  0
VERTEX
  5
22E
  8
0
 10
7612.514731912089
 20
5039.345055775084
 30
0.0
  0
VERTEX
  5
22F
  8
0
 10
7612.514731912088
 20
5063.889145675315
 30
0.0
 42
0.1135396646117594
  0
VERTEX
  5
230
  8
0
 10
7597.765567601125
 20
5081.137904253168
 30
0.0
  0
VERTEX
  5
231
  8
0
 10
7595.44368073329
 20
5082.856732605303
 30
0.0
  0
VERTEX
  5
232
  8
0
 10
7593.121793865456
 20
5081.137904253168
 30
0.0
 42
0.1135396646114744
  0
VERTEX
  5
233
  8
0
 10
7578.372629554495
 20
5063.889145675316
 30
0.0
  0
VERTEX
  5
234
  8
0
 10
7578.372629554496
 20
5039.345055775084
 30
0.0
  0
VERTEX
  5
235
  8
0
 10
7560.679169638019
 20
5039.345055775084
 30
0.0
 42
-0.1102623849382842
  0
VERTEX
  5
236
  8
0
 10
7541.282043852134
 20
5001.152756005592
 30
0.0
  0
VERTEX
  5
237
  8
0
 10
7538.578817258339
 20
4997.874579627995
 30
0.0
  0
VERTEX
  5
238
  8
0
 10
7559.236598840646
 20
4980.063986870296
 30
0.0
  0
VERTEX
  5
239
  8
0
 10
7559.236598840646
 20
4965.215989257795
 30
0.0
  0
VERTEX
  5
23A
  8
0
 10
7571.695445317259
 20
4965.215989257795
 30
0.0
  0
VERTEX
  5
23B
  8
0
 10
7575.353272883724
 20
4949.846518680391
 30
0.0
 42
0.1402391562020419
  0
VERTEX
  5
23C
  8
0
 10
7595.285247035415
 20
4914.405098756147
 30
0.0
  0
VERTEX
  5
23D
  8
0
 10
7595.44368073329
 20
4914.248420346553
 30
0.0
  0
SEQEND
  5
23E
  8
0
  0
POLYLINE
  5
23F
  8
0
 66
     1
 10
0.0
 20
0.0
 30
0.0
 70
     1
  0
VERTEX
  5
240
  8
0
 10
7734.786182481491
 20
4914.40509875615
 30
0.0
 42
0.140239156202038
  0
VERTEX
  5
241
  8
0
 10
7754.718156633182
 20
4949.846518680391
 30
0.0
  0
VERTEX
  5
242
  8
0
 10
7758.375984199646
 20
4965.215989257795
 30
0.0
  0
VERTEX
  5
243
  8
0
 10
7770.834830676261
 20
4965.215989257795
 30
0.0
  0
VERTEX
  5
244
  8
0
 10
7770.834830676261
 20
4980.063986870296
 30
0.0
  0
VERTEX
  5
245
  8
0
 10
7791.492612258568
 20
4997.874579627995
 30
0.0
  0
VERTEX
  5
246
  8
0
 10
7788.789385664774
 20
5001.15275600559
 30
0.0
 42
-0.1102623849381437
  0
VERTEX
  5
247
  8
0
 10
7769.392259878889
 20
5039.345055775085
 30
0.0
  0
VERTEX
  5
248
  8
0
 10
7751.698799962412
 20
5039.345055775084
 30
0.0
  0
VERTEX
  5
249
  8
0
 10
7751.698799962413
 20
5063.889145675315
 30
0.0
 42
0.1135396646117955
  0
VERTEX
  5
24A
  8
0
 10
7736.949635651449
 20
5081.137904253168
 30
0.0
  0
VERTEX
  5
24B
  8
0
 10
7734.627748783617
 20
5082.856732605303
 30
0.0
  0
VERTEX
  5
24C
  8
0
 10
7732.305861915783
 20
5081.13790425317
 30
0.0
 42
0.1135396646115047
  0
VERTEX
  5
24D
  8
0
 10
7717.556697604819
 20
5063.889145675316
 30
0.0
  0
VERTEX
  5
24E
  8
0
 10
7717.556697604819
 20
5039.345055775084
 30
0.0
  0
VERTEX
  5
24F
  8
0
 10
7699.863237688342
 20
5039.345055775084
 30
0.0
 42
-0.1102623849382618
  0
VERTEX
  5
250
  8
0
 10
7680.466111902457
 20
5001.152756005592
 30
0.0
  0
VERTEX
  5
251
  8
0
 10
7677.762885308662
 20
4997.874579627995
 30
0.0
  0
VERTEX
  5
252
  8
0
 10
7698.420666890969
 20
4980.063986870296
 30
0.0
  0
VERTEX
  5
253
  8
0
 10
7698.420666890969
 20
4965.215989257795
 30
0.0
  0
VERTEX
  5
254
  8
0
 10
7710.879513367586
 20
4965.215989257795
 30
0.0
  0
VERTEX
  5
255
  8
0
 10
7714.537340934049
 20
4949.846518680391
 30
0.0
 42
0.1402391562020184
  0
VERTEX
  5
256
  8
0
 10
7734.469315085741
 20
4914.405098756147
 30
0.0
  0
VERTEX
  5
257
  8
0
 10
7734.627748783613
 20
4914.248420346553
 30
0.0
  0
SEQEND
  5
258
  8
0
  0
POLYLINE
  5
259
  8
0
 66
     1
 10
0.0
 20
0.0
 30
0.0
 70
     1
  0
VERTEX
  5
25A
  8
0
 10
7873.970250531817
 20
4914.40509875615
 30
0.0
 42
0.140239156202038
  0
VERTEX
  5
25B
  8
0
 10
7893.902224683508
 20
4949.846518680391
 30
0.0
  0
VERTEX
  5
25C
  8
0
 10
7897.560052249971
 20
4965.215989257795
 30
0.0
  0
VERTEX
  5
25D
  8
0
 10
7910.018898726586
 20
4965.215989257795
 30
0.0
  0
VERTEX
  5
25E
  8
0
 10
7910.018898726586
 20
4980.063986870296
 30
0.0
  0
VERTEX
  5
25F
  8
0
 10
7930.676680308891
 20
4997.874579627995
 30
0.0
  0
VERTEX
  5
260
  8
0
 10
7927.973453715099
 20
5001.15275600559
 30
0.0
 42
-0.1102623849381664
  0
VERTEX
  5
261
  8
0
 10
7908.576327929211
 20
5039.345055775085
 30
0.0
  0
VERTEX
  5
262
  8
0
 10
7890.882868012736
 20
5039.345055775084
 30
0.0
  0
VERTEX
  5
263
  8
0
 10
7890.882868012735
 20
5063.889145675314
 30
0.0
 42
0.1135396646118225
  0
VERTEX
  5
264
  8
0
 10
7876.133703701776
 20
5081.137904253168
 30
0.0
  0
VERTEX
  5
265
  8
0
 10
7873.81181683394
 20
5082.856732605303
 30
0.0
  0
VERTEX
  5
266
  8
0
 10
7871.489929966106
 20
5081.137904253168
 30
0.0
 42
0.1135396646114744
  0
VERTEX
  5
267
  8
0
 10
7856.740765655144
 20
5063.889145675316
 30
0.0
  0
VERTEX
  5
268
  8
0
 10
7856.740765655143
 20
5039.345055775084
 30
0.0
  0
VERTEX
  5
269
  8
0
 10
7839.047305738666
 20
5039.345055775084
 30
0.0
 42
-0.1102623849382589
  0
VERTEX
  5
26A
  8
0
 10
7819.650179952781
 20
5001.152756005592
 30
0.0
  0
VERTEX
  5
26B
  8
0
 10
7816.946953358986
 20
4997.874579627995
 30
0.0
  0
VERTEX
  5
26C
  8
0
 10
7837.604734941294
 20
4980.063986870296
 30
0.0
  0
VERTEX
  5
26D
  8
0
 10
7837.604734941294
 20
4965.215989257795
 30
0.0
  0
VERTEX
  5
26E
  8
0
 10
7850.063581417909
 20
4965.215989257795
 30
0.0
  0
VERTEX
  5
26F
  8
0
 10
7853.721408984374
 20
4949.846518680391
 30
0.0
 42
0.1402391562020419
  0
VERTEX
  5
270
  8
0
 10
7873.653383136064
 20
4914.405098756147
 30
0.0
  0
VERTEX
  5
271
  8
0
 10
7873.81181683394
 20
4914.248420346553
 30
0.0
  0
SEQEND
  5
272
  8
0
  0
POLYLINE
  5
273
  8
0
 66
     1
 10
0.0
 20
0.0
 30
0.0
 70
     1
  0
VERTEX
  5
274
  8
0
 10
7595.602114431166
 20
5111.433341409309
 30
0.0
 42
0.1402391562020419
  0
VERTEX
  5
275
  8
0
 10
7615.534088582857
 20
5146.874761333552
 30
0.0
  0
VERTEX
  5
276
  8
0
 10
7619.191916149322
 20
5162.244231910958
 30
0.0
  0
VERTEX
  5
277
  8
0
 10
7631.650762625938
 20
5162.244231910958
 30
0.0
  0
VERTEX
  5
278
  8
0
 10
7631.650762625938
 20
5177.092229523456
 30
0.0
  0
VERTEX
  5
279
  8
0
 10
7652.308544208246
 20
5194.902822281156
 30
0.0
  0
VERTEX
  5
27A
  8
0
 10
7649.60531761445
 20
5198.180998658753
 30
0.0
 42
-0.1102623849381687
  0
VERTEX
  5
27B
  8
0
 10
7630.208191828562
 20
5236.373298428247
 30
0.0
  0
VERTEX
  5
27C
  8
0
 10
7612.514731912089
 20
5236.373298428247
 30
0.0
  0
VERTEX
  5
27D
  8
0
 10
7612.514731912089
 20
5260.917388328478
 30
0.0
 42
0.113539664611737
  0
VERTEX
  5
27E
  8
0
 10
7597.765567601125
 20
5278.166146906328
 30
0.0
  0
VERTEX
  5
27F
  8
0
 10
7595.44368073329
 20
5279.884975258463
 30
0.0
  0
VERTEX
  5
280
  8
0
 10
7593.121793865456
 20
5278.16614690633
 30
0.0
 42
0.1135396646114766
  0
VERTEX
  5
281
  8
0
 10
7578.372629554495
 20
5260.917388328477
 30
0.0
  0
VERTEX
  5
282
  8
0
 10
7578.372629554496
 20
5236.373298428247
 30
0.0
  0
VERTEX
  5
283
  8
0
 10
7560.679169638018
 20
5236.373298428247
 30
0.0
 42
-0.1102623849382943
  0
VERTEX
  5
284
  8
0
 10
7541.282043852134
 20
5198.180998658752
 30
0.0
  0
VERTEX
  5
285
  8
0
 10
7538.578817258339
 20
5194.902822281158
 30
0.0
  0
VERTEX
  5
286
  8
0
 10
7559.236598840646
 20
5177.092229523456
 30
0.0
  0
VERTEX
  5
287
  8
0
 10
7559.236598840646
 20
5162.244231910958
 30
0.0
  0
VERTEX
  5
288
  8
0
 10
7571.695445317259
 20
5162.244231910958
 30
0.0
  0
VERTEX
  5
289
  8
0
 10
7575.353272883724
 20
5146.874761333552
 30
0.0
 42
0.1402391562020281
  0
VERTEX
  5
28A
  8
0
 10
7595.285247035415
 20
5111.433341409309
 30
0.0
  0
VERTEX
  5
28B
  8
0
 10
7595.44368073329
 20
5111.276662999715
 30
0.0
  0
SEQEND
  5
28C
  8
0
  0
POLYLINE
  5
28D
  8
0
 66
     1
 10
0.0
 20
0.0
 30
0.0
 70
     1
  0
VERTEX
  5
28E
  8
0
 10
7734.786182481491
 20
5111.433341409309
 30
0.0
 42
0.1402391562020419
  0
VERTEX
  5
28F
  8
0
 10
7754.718156633182
 20
5146.874761333552
 30
0.0
  0
VERTEX
  5
290
  8
0
 10
7758.375984199646
 20
5162.244231910958
 30
0.0
  0
VERTEX
  5
291
  8
0
 10
7770.834830676261
 20
5162.244231910958
 30
0.0
  0
VERTEX
  5
292
  8
0
 10
7770.834830676261
 20
5177.092229523456
 30
0.0
  0
VERTEX
  5
293
  8
0
 10
7791.492612258568
 20
5194.902822281156
 30
0.0
  0
VERTEX
  5
294
  8
0
 10
7788.789385664774
 20
5198.180998658753
 30
0.0
 42
-0.1102623849381521
  0
VERTEX
  5
295
  8
0
 10
7769.392259878889
 20
5236.373298428247
 30
0.0
  0
VERTEX
  5
296
  8
0
 10
7751.698799962412
 20
5236.373298428247
 30
0.0
  0
VERTEX
  5
297
  8
0
 10
7751.698799962413
 20
5260.917388328478
 30
0.0
 42
0.1135396646117776
  0
VERTEX
  5
298
  8
0
 10
7736.949635651449
 20
5278.166146906328
 30
0.0
  0
VERTEX
  5
299
  8
0
 10
7734.627748783617
 20
5279.884975258463
 30
0.0
  0
VERTEX
  5
29A
  8
0
 10
7732.305861915783
 20
5278.16614690633
 30
0.0
 42
0.1135396646115047
  0
VERTEX
  5
29B
  8
0
 10
7717.556697604819
 20
5260.917388328477
 30
0.0
  0
VERTEX
  5
29C
  8
0
 10
7717.556697604819
 20
5236.373298428247
 30
0.0
  0
VERTEX
  5
29D
  8
0
 10
7699.863237688342
 20
5236.373298428247
 30
0.0
 42
-0.1102623849382761
  0
VERTEX
  5
29E
  8
0
 10
7680.466111902457
 20
5198.180998658752
 30
0.0
  0
VERTEX
  5
29F
  8
0
 10
7677.762885308662
 20
5194.902822281158
 30
0.0
  0
VERTEX
  5
2A0
  8
0
 10
7698.420666890969
 20
5177.092229523456
 30
0.0
  0
VERTEX
  5
2A1
  8
0
 10
7698.420666890969
 20
5162.244231910958
 30
0.0
  0
VERTEX
  5
2A2
  8
0
 10
7710.879513367586
 20
5162.244231910958
 30
0.0
  0
VERTEX
  5
2A3
  8
0
 10
7714.537340934049
 20
5146.874761333552
 30
0.0
 42
0.14023915620201
  0
VERTEX
  5
2A4
  8
0
 10
7734.469315085741
 20
5111.433341409309
 30
0.0
  0
VERTEX
  5
2A5
  8
0
 10
7734.627748783613
 20
5111.276662999715
 30
0.0
  0
SEQEND
  5
2A6
  8
0
  0
POLYLINE
  5
2A7
  8
0
 66
     1
 10
0.0
 20
0.0
 30
0.0
 70
     1
  0
VERTEX
  5
2A8
  8
0
 10
7873.970250531817
 20
5111.433341409309
 30
0.0
 42
0.1402391562020419
  0
VERTEX
  5
2A9
  8
0
 10
7893.902224683508
 20
5146.874761333552
 30
0.0
  0
VERTEX
  5
2AA
  8
0
 10
7897.560052249971
 20
5162.244231910958
 30
0.0
  0
VERTEX
  5
2AB
  8
0
 10
7910.018898726586
 20
5162.244231910958
 30
0.0
  0
VERTEX
  5
2AC
  8
0
 10
7910.018898726586
 20
5177.092229523456
 30
0.0
  0
VERTEX
  5
2AD
  8
0
 10
7930.676680308891
 20
5194.902822281156
 30
0.0
  0
VERTEX
  5
2AE
  8
0
 10
7927.9734537151
 20
5198.180998658753
 30
0.0
 42
-0.1102623849381739
  0
VERTEX
  5
2AF
  8
0
 10
7908.576327929211
 20
5236.373298428247
 30
0.0
  0
VERTEX
  5
2B0
  8
0
 10
7890.882868012736
 20
5236.373298428247
 30
0.0
  0
VERTEX
  5
2B1
  8
0
 10
7890.882868012736
 20
5260.917388328478
 30
0.0
 42
0.1135396646118006
  0
VERTEX
  5
2B2
  8
0
 10
7876.133703701776
 20
5278.166146906328
 30
0.0
  0
VERTEX
  5
2B3
  8
0
 10
7873.81181683394
 20
5279.884975258463
 30
0.0
  0
VERTEX
  5
2B4
  8
0
 10
7871.489929966106
 20
5278.16614690633
 30
0.0
 42
0.1135396646114766
  0
VERTEX
  5
2B5
  8
0
 10
7856.740765655144
 20
5260.917388328477
 30
0.0
  0
VERTEX
  5
2B6
  8
0
 10
7856.740765655143
 20
5236.373298428247
 30
0.0
  0
VERTEX
  5
2B7
  8
0
 10
7839.047305738666
 20
5236.373298428247
 30
0.0
 42
-0.1102623849382752
  0
VERTEX
  5
2B8
  8
0
 10
7819.650179952781
 20
5198.180998658752
 30
0.0
  0
VERTEX
  5
2B9
  8
0
 10
7816.946953358986
 20
5194.902822281158
 30
0.0
  0
VERTEX
  5
2BA
  8
0
 10
7837.604734941294
 20
5177.092229523456
 30
0.0
  0
VERTEX
  5
2BB
  8
0
 10
7837.604734941294
 20
5162.244231910958
 30
0.0
  0
VERTEX
  5
2BC
  8
0
 10
7850.063581417909
 20
5162.244231910958
 30
0.0
  0
VERTEX
  5
2BD
  8
0
 10
7853.721408984374
 20
5146.874761333552
 30
0.0
 42
0.1402391562020297
  0
VERTEX
  5
2BE
  8
0
 10
7873.653383136064
 20
5111.433341409309
 30
0.0
  0
VERTEX
  5
2BF
  8
0
 10
7873.81181683394
 20
5111.276662999715
 30
0.0
  0
SEQEND
  5
2C0
  8
0
  0
POLYLINE
  5
2C1
  8
0
 66
     1
 10
0.0
 20
0.0
 30
0.0
 70
     1
  0
VERTEX
  5
2C2
  8
0
 10
7558.372629554496
 20
4674.31279236317
 30
0.0
  0
VERTEX
  5
2C3
  8
0
 10
7558.372629554496
 20
4665.288570468761
 30
0.0
  0
VERTEX
  5
2C4
  8
0
 10
7543.621497611712
 20
4665.288570468761
 30
0.0
 42
-0.1598421083291713
  0
VERTEX
  5
2C5
  8
0
 10
7525.851646708128
 20
4619.82037553924
 30
0.0
 42
-0.1598421083290214
  0
VERTEX
  5
2C6
  8
0
 10
7508.081795804545
 20
4665.28857046876
 30
0.0
  0
VERTEX
  5
2C7
  8
0
 10
7493.330663861762
 20
4665.288570468761
 30
0.0
  0
VERTEX
  5
2C8
  8
0
 10
7493.330663861761
 20
4674.31279236317
 30
0.0
 42
0.1325627009124978
  0
VERTEX
  5
2C9
  8
0
 10
7470.481187019577
 20
4703.156164299291
 30
0.0
 42
0.1402391562021495
  0
VERTEX
  5
2CA
  8
0
 10
7495.806592616703
 20
4748.187746604635
 30
0.0
  0
VERTEX
  5
2CB
  8
0
 10
7512.466694575612
 20
4748.187746604634
 30
0.0
  0
VERTEX
  5
2CC
  8
0
 10
7512.466694575612
 20
4773.872070457951
 30
0.0
  0
VERTEX
  5
2CD
  8
0
 10
7525.851646708129
 20
4785.412222074115
 30
0.0
  0
VERTEX
  5
2CE
  8
0
 10
7539.236598840646
 20
4773.872070457951
 30
0.0
  0
VERTEX
  5
2CF
  8
0
 10
7539.236598840646
 20
4748.187746604634
 30
0.0
  0
VERTEX
  5
2D0
  8
0
 10
7555.896700799557
 20
4748.187746604634
 30
0.0
 42
0.1402391562021026
  0
VERTEX
  5
2D1
  8
0
 10
7581.222106396681
 20
4703.156164299312
 30
0.0
 42
0.1325627009121667
  0
SEQEND
  5
2D2
  8
0
  0
POLYLINE
  5
2D3
  8
0
 66
     1
 10
0.0
 20
0.0
 30
0.0
 70
     1
  0
VERTEX
  5
2D4
  8
0
 10
7697.55669760482
 20
4674.31279236317
 30
0.0
  0
VERTEX
  5
2D5
  8
0
 10
7697.55669760482
 20
4665.288570468761
 30
0.0
  0
VERTEX
  5
2D6
  8
0
 10
7682.805565662038
 20
4665.288570468761
 30
0.0
 42
-0.1598421083291797
  0
VERTEX
  5
2D7
  8
0
 10
7665.035714758455
 20
4619.820375539239
 30
0.0
 42
-0.1598421083290403
  0
VERTEX
  5
2D8
  8
0
 10
7647.265863854868
 20
4665.28857046876
 30
0.0
  0
VERTEX
  5
2D9
  8
0
 10
7632.514731912085
 20
4665.288570468761
 30
0.0
  0
VERTEX
  5
2DA
  8
0
 10
7632.514731912085
 20
4674.31279236317
 30
0.0
 42
0.1325627009125236
  0
VERTEX
  5
2DB
  8
0
 10
7609.665255069903
 20
4703.156164299291
 30
0.0
 42
0.1402391562019836
  0
VERTEX
  5
2DC
  8
0
 10
7634.990660667027
 20
4748.187746604634
 30
0.0
  0
VERTEX
  5
2DD
  8
0
 10
7651.650762625934
 20
4748.187746604634
 30
0.0
  0
VERTEX
  5
2DE
  8
0
 10
7651.650762625934
 20
4773.872070457951
 30
0.0
  0
VERTEX
  5
2DF
  8
0
 10
7665.035714758454
 20
4785.412222074115
 30
0.0
  0
VERTEX
  5
2E0
  8
0
 10
7678.420666890971
 20
4773.872070457951
 30
0.0
  0
VERTEX
  5
2E1
  8
0
 10
7678.420666890971
 20
4748.187746604634
 30
0.0
  0
VERTEX
  5
2E2
  8
0
 10
7695.080768849879
 20
4748.187746604634
 30
0.0
 42
0.1402391562020881
  0
VERTEX
  5
2E3
  8
0
 10
7720.406174447005
 20
4703.156164299313
 30
0.0
 42
0.1325627009121643
  0
SEQEND
  5
2E4
  8
0
  0
POLYLINE
  5
2E5
  8
0
 66
     1
 10
0.0
 20
0.0
 30
0.0
 70
     1
  0
VERTEX
  5
2E6
  8
0
 10
7836.740765655145
 20
4674.31279236317
 30
0.0
  0
VERTEX
  5
2E7
  8
0
 10
7836.740765655145
 20
4665.288570468761
 30
0.0
  0
VERTEX
  5
2E8
  8
0
 10
7821.989633712362
 20
4665.288570468761
 30
0.0
 42
-0.1598421083291552
  0
VERTEX
  5
2E9
  8
0
 10
7804.219782808776
 20
4619.82037553924
 30
0.0
 42
-0.1598421083290073
  0
VERTEX
  5
2EA
  8
0
 10
7786.449931905194
 20
4665.28857046876
 30
0.0
  0
VERTEX
  5
2EB
  8
0
 10
7771.698799962412
 20
4665.288570468761
 30
0.0
  0
VERTEX
  5
2EC
  8
0
 10
7771.698799962411
 20
4674.31279236317
 30
0.0
 42
0.1325627009124978
  0
VERTEX
  5
2ED
  8
0
 10
7748.849323120226
 20
4703.156164299291
 30
0.0
 42
0.1402391562021506
  0
VERTEX
  5
2EE
  8
0
 10
7774.174728717352
 20
4748.187746604635
 30
0.0
  0
VERTEX
  5
2EF
  8
0
 10
7790.834830676261
 20
4748.187746604634
 30
0.0
  0
VERTEX
  5
2F0
  8
0
 10
7790.834830676261
 20
4773.872070457951
 30
0.0
  0
VERTEX
  5
2F1
  8
0
 10
7804.219782808778
 20
4785.412222074115
 30
0.0
  0
VERTEX
  5
2F2
  8
0
 10
7817.604734941296
 20
4773.872070457951
 30
0.0
  0
VERTEX
  5
2F3
  8
0
 10
7817.604734941296
 20
4748.187746604634
 30
0.0
  0
VERTEX
  5
2F4
  8
0
 10
7834.264836900203
 20
4748.187746604634
 30
0.0
 42
0.1402391562020729
  0
VERTEX
  5
2F5
  8
0
 10
7859.59024249733
 20
4703.156164299312
 30
0.0
 42
0.1325627009121884
  0
SEQEND
  5
2F6
  8
0
  0
POLYLINE
  5
2F7
  8
0
 66
     1
 10
0.0
 20
0.0
 30
0.0
 70
     1
  0
VERTEX
  5
2F8
  8
0
 10
7975.924833705468
 20
4674.31279236317
 30
0.0
  0
VERTEX
  5
2F9
  8
0
 10
7975.924833705468
 20
4665.288570468761
 30
0.0
  0
VERTEX
  5
2FA
  8
0
 10
7961.173701762687
 20
4665.288570468761
 30
0.0
 42
-0.1598421083291656
  0
VERTEX
  5
2FB
  8
0
 10
7943.403850859102
 20
4619.820375539239
 30
0.0
 42
-0.1598421083290184
  0
VERTEX
  5
2FC
  8
0
 10
7925.633999955518
 20
4665.28857046876
 30
0.0
  0
VERTEX
  5
2FD
  8
0
 10
7910.882868012736
 20
4665.288570468761
 30
0.0
  0
VERTEX
  5
2FE
  8
0
 10
7910.882868012735
 20
4674.31279236317
 30
0.0
 42
0.1325627009124978
  0
VERTEX
  5
2FF
  8
0
 10
7888.033391170551
 20
4703.156164299292
 30
0.0
 42
0.1402391562021323
  0
VERTEX
  5
300
  8
0
 10
7913.358796767675
 20
4748.187746604634
 30
0.0
  0
VERTEX
  5
301
  8
0
 10
7930.018898726586
 20
4748.187746604634
 30
0.0
  0
VERTEX
  5
302
  8
0
 10
7930.018898726586
 20
4773.872070457951
 30
0.0
  0
VERTEX
  5
303
  8
0
 10
7943.403850859103
 20
4785.412222074115
 30
0.0
  0
VERTEX
  5
304
  8
0
 10
7956.78880299162
 20
4773.872070457951
 30
0.0
  0
VERTEX
  5
305
  8
0
 10
7956.78880299162
 20
4748.187746604634
 30
0.0
  0
VERTEX
  5
306
  8
0
 10
7973.448904950529
 20
4748.187746604634
 30
0.0
 42
0.1402391562021026
  0
VERTEX
  5
307
  8
0
 10
7998.774310547653
 20
4703.156164299312
 30
0.0
 42
0.13256270091215
  0
SEQEND
  5
308
  8
0
  0
POLYLINE
  5
309
  8
0
 66
     1
 10
0.0
 20
0.0
 30
0.0
 70
     1
  0
VERTEX
  5
30A
  8
0
 10
7558.372629554496
 20
4871.34103501633
 30
0.0
  0
VERTEX
  5
30B
  8
0
 10
7558.372629554496
 20
4862.316813121922
 30
0.0
  0
VERTEX
  5
30C
  8
0
 10
7543.621497611713
 20
4862.316813121922
 30
0.0
 42
-0.1598421083291709
  0
VERTEX
  5
30D
  8
0
 10
7525.851646708129
 20
4816.848618192401
 30
0.0
 42
-0.1598421083290236
  0
VERTEX
  5
30E
  8
0
 10
7508.081795804545
 20
4862.316813121922
 30
0.0
  0
VERTEX
  5
30F
  8
0
 10
7493.330663861762
 20
4862.316813121922
 30
0.0
  0
VERTEX
  5
310
  8
0
 10
7493.330663861762
 20
4871.341035016329
 30
0.0
 42
0.1325627009125261
  0
VERTEX
  5
311
  8
0
 10
7470.481187019578
 20
4900.184406952454
 30
0.0
 42
0.1402391562021508
  0
VERTEX
  5
312
  8
0
 10
7495.806592616703
 20
4945.215989257797
 30
0.0
  0
VERTEX
  5
313
  8
0
 10
7512.466694575612
 20
4945.215989257797
 30
0.0
  0
VERTEX
  5
314
  8
0
 10
7512.466694575612
 20
4970.900313111114
 30
0.0
  0
VERTEX
  5
315
  8
0
 10
7525.851646708129
 20
4982.440464727277
 30
0.0
  0
VERTEX
  5
316
  8
0
 10
7539.236598840646
 20
4970.900313111114
 30
0.0
  0
VERTEX
  5
317
  8
0
 10
7539.236598840646
 20
4945.215989257797
 30
0.0
  0
VERTEX
  5
318
  8
0
 10
7555.896700799557
 20
4945.215989257797
 30
0.0
 42
0.140239156202112
  0
VERTEX
  5
319
  8
0
 10
7581.22210639668
 20
4900.184406952472
 30
0.0
 42
0.132562700912182
  0
SEQEND
  5
31A
  8
0
  0
POLYLINE
  5
31B
  8
0
 66
     1
 10
0.0
 20
0.0
 30
0.0
 70
     1
  0
VERTEX
  5
31C
  8
0
 10
7697.55669760482
 20
4871.34103501633
 30
0.0
  0
VERTEX
  5
31D
  8
0
 10
7697.55669760482
 20
4862.316813121922
 30
0.0
  0
VERTEX
  5
31E
  8
0
 10
7682.805565662037
 20
4862.316813121922
 30
0.0
 42
-0.1598421083291691
  0
VERTEX
  5
31F
  8
0
 10
7665.035714758454
 20
4816.848618192401
 30
0.0
 42
-0.1598421083290578
  0
VERTEX
  5
320
  8
0
 10
7647.26586385487
 20
4862.316813121922
 30
0.0
  0
VERTEX
  5
321
  8
0
 10
7632.514731912085
 20
4862.316813121922
 30
0.0
  0
VERTEX
  5
322
  8
0
 10
7632.514731912084
 20
4871.34103501633
 30
0.0
 42
0.1325627009125322
  0
VERTEX
  5
323
  8
0
 10
7609.665255069901
 20
4900.184406952455
 30
0.0
 42
0.1402391562021596
  0
VERTEX
  5
324
  8
0
 10
7634.990660667027
 20
4945.215989257797
 30
0.0
  0
VERTEX
  5
325
  8
0
 10
7651.650762625934
 20
4945.215989257797
 30
0.0
  0
VERTEX
  5
326
  8
0
 10
7651.650762625934
 20
4970.900313111114
 30
0.0
  0
VERTEX
  5
327
  8
0
 10
7665.035714758454
 20
4982.440464727277
 30
0.0
  0
VERTEX
  5
328
  8
0
 10
7678.420666890971
 20
4970.900313111114
 30
0.0
  0
VERTEX
  5
329
  8
0
 10
7678.420666890971
 20
4945.215989257797
 30
0.0
  0
VERTEX
  5
32A
  8
0
 10
7695.08076884988
 20
4945.215989257796
 30
0.0
 42
0.1402391562020921
  0
VERTEX
  5
32B
  8
0
 10
7720.406174447006
 20
4900.184406952472
 30
0.0
 42
0.1325627009121856
  0
SEQEND
  5
32C
  8
0
  0
POLYLINE
  5
32D
  8
0
 66
     1
 10
0.0
 20
0.0
 30
0.0
 70
     1
  0
VERTEX
  5
32E
  8
0
 10
7836.740765655145
 20
4871.34103501633
 30
0.0
  0
VERTEX
  5
32F
  8
0
 10
7836.740765655145
 20
4862.316813121922
 30
0.0
  0
VERTEX
  5
330
  8
0
 10
7821.989633712362
 20
4862.316813121922
 30
0.0
 42
-0.1598421083290546
  0
VERTEX
  5
331
  8
0
 10
7804.219782808778
 20
4816.848618192401
 30
0.0
 42
-0.1598421083290468
  0
VERTEX
  5
332
  8
0
 10
7786.449931905195
 20
4862.316813121922
 30
0.0
  0
VERTEX
  5
333
  8
0
 10
7771.698799962412
 20
4862.316813121922
 30
0.0
  0
VERTEX
  5
334
  8
0
 10
7771.698799962412
 20
4871.341035016329
 30
0.0
 42
0.1325627009125261
  0
VERTEX
  5
335
  8
0
 10
7748.849323120227
 20
4900.184406952454
 30
0.0
 42
0.1402391562021497
  0
VERTEX
  5
336
  8
0
 10
7774.174728717352
 20
4945.215989257797
 30
0.0
  0
VERTEX
  5
337
  8
0
 10
7790.834830676261
 20
4945.215989257797
 30
0.0
  0
VERTEX
  5
338
  8
0
 10
7790.834830676261
 20
4970.900313111114
 30
0.0
  0
VERTEX
  5
339
  8
0
 10
7804.219782808778
 20
4982.440464727277
 30
0.0
  0
VERTEX
  5
33A
  8
0
 10
7817.604734941296
 20
4970.900313111114
 30
0.0
  0
VERTEX
  5
33B
  8
0
 10
7817.604734941296
 20
4945.215989257797
 30
0.0
  0
VERTEX
  5
33C
  8
0
 10
7834.264836900204
 20
4945.215989257797
 30
0.0
 42
0.1402391562020789
  0
VERTEX
  5
33D
  8
0
 10
7859.59024249733
 20
4900.184406952471
 30
0.0
 42
0.1325627009122038
  0
SEQEND
  5
33E
  8
0
  0
POLYLINE
  5
33F
  8
0
 66
     1
 10
0.0
 20
0.0
 30
0.0
 70
     1
  0
VERTEX
  5
340
  8
0
 10
7975.924833705468
 20
4871.34103501633
 30
0.0
  0
VERTEX
  5
341
  8
0
 10
7975.924833705468
 20
4862.316813121922
 30
0.0
  0
VERTEX
  5
342
  8
0
 10
7961.173701762687
 20
4862.316813121922
 30
0.0
 42
-0.1598421083290436
  0
VERTEX
  5
343
  8
0
 10
7943.403850859103
 20
4816.848618192401
 30
0.0
 42
-0.1598421083290578
  0
VERTEX
  5
344
  8
0
 10
7925.633999955518
 20
4862.316813121922
 30
0.0
  0
VERTEX
  5
345
  8
0
 10
7910.882868012736
 20
4862.316813121922
 30
0.0
  0
VERTEX
  5
346
  8
0
 10
7910.882868012736
 20
4871.34103501633
 30
0.0
 42
0.1325627009125143
  0
VERTEX
  5
347
  8
0
 10
7888.03339117055
 20
4900.184406952455
 30
0.0
 42
0.1402391562021495
  0
VERTEX
  5
348
  8
0
 10
7913.358796767675
 20
4945.215989257797
 30
0.0
  0
VERTEX
  5
349
  8
0
 10
7930.018898726586
 20
4945.215989257797
 30
0.0
  0
VERTEX
  5
34A
  8
0
 10
7930.018898726586
 20
4970.900313111114
 30
0.0
  0
VERTEX
  5
34B
  8
0
 10
7943.403850859103
 20
4982.440464727277
 30
0.0
  0
VERTEX
  5
34C
  8
0
 10
7956.78880299162
 20
4970.900313111114
 30
0.0
  0
VERTEX
  5
34D
  8
0
 10
7956.78880299162
 20
4945.215989257797
 30
0.0
  0
VERTEX
  5
34E
  8
0
 10
7973.448904950529
 20
4945.215989257797
 30
0.0
 42
0.140239156202112
  0
VERTEX
  5
34F
  8
0
 10
7998.774310547653
 20
4900.184406952472
 30
0.0
 42
0.1325627009121676
  0
SEQEND
  5
350
  8
0
  0
POLYLINE
  5
351
  8
0
 66
     1
 10
0.0
 20
0.0
 30
0.0
 70
     1
  0
VERTEX
  5
352
  8
0
 10
7558.372629554496
 20
5068.369277669492
 30
0.0
  0
VERTEX
  5
353
  8
0
 10
7558.372629554496
 20
5059.345055775084
 30
0.0
  0
VERTEX
  5
354
  8
0
 10
7543.621497611713
 20
5059.345055775084
 30
0.0
 42
-0.1598421083291646
  0
VERTEX
  5
355
  8
0
 10
7525.851646708129
 20
5013.876860845564
 30
0.0
 42
-0.1598421083290251
  0
VERTEX
  5
356
  8
0
 10
7508.081795804545
 20
5059.345055775084
 30
0.0
  0
VERTEX
  5
357
  8
0
 10
7493.330663861762
 20
5059.345055775084
 30
0.0
  0
VERTEX
  5
358
  8
0
 10
7493.330663861761
 20
5068.369277669492
 30
0.0
 42
0.1325627009124978
  0
VERTEX
  5
359
  8
0
 10
7470.481187019577
 20
5097.212649605613
 30
0.0
 42
0.1402391562021495
  0
VERTEX
  5
35A
  8
0
 10
7495.806592616703
 20
5142.244231910958
 30
0.0
  0
VERTEX
  5
35B
  8
0
 10
7512.466694575612
 20
5142.244231910958
 30
0.0
  0
VERTEX
  5
35C
  8
0
 10
7512.466694575612
 20
5167.928555764274
 30
0.0
  0
VERTEX
  5
35D
  8
0
 10
7525.851646708129
 20
5179.468707380437
 30
0.0
  0
VERTEX
  5
35E
  8
0
 10
7539.236598840646
 20
5167.928555764274
 30
0.0
  0
VERTEX
  5
35F
  8
0
 10
7539.236598840646
 20
5142.244231910958
 30
0.0
  0
VERTEX
  5
360
  8
0
 10
7555.896700799558
 20
5142.244231910959
 30
0.0
 42
0.1402391562021059
  0
VERTEX
  5
361
  8
0
 10
7581.222106396681
 20
5097.212649605635
 30
0.0
 42
0.1325627009121607
  0
SEQEND
  5
362
  8
0
  0
POLYLINE
  5
363
  8
0
 66
     1
 10
0.0
 20
0.0
 30
0.0
 70
     1
  0
VERTEX
  5
364
  8
0
 10
7697.55669760482
 20
5068.369277669492
 30
0.0
  0
VERTEX
  5
365
  8
0
 10
7697.55669760482
 20
5059.345055775084
 30
0.0
  0
VERTEX
  5
366
  8
0
 10
7682.805565662036
 20
5059.345055775084
 30
0.0
 42
-0.1598421083291768
  0
VERTEX
  5
367
  8
0
 10
7665.035714758455
 20
5013.876860845563
 30
0.0
 42
-0.1598421083290403
  0
VERTEX
  5
368
  8
0
 10
7647.265863854868
 20
5059.345055775084
 30
0.0
  0
VERTEX
  5
369
  8
0
 10
7632.514731912085
 20
5059.345055775084
 30
0.0
  0
VERTEX
  5
36A
  8
0
 10
7632.514731912085
 20
5068.369277669492
 30
0.0
 42
0.1325627009125261
  0
VERTEX
  5
36B
  8
0
 10
7609.665255069902
 20
5097.212649605613
 30
0.0
 42
0.1402391562021359
  0
VERTEX
  5
36C
  8
0
 10
7634.990660667027
 20
5142.244231910959
 30
0.0
  0
VERTEX
  5
36D
  8
0
 10
7651.650762625934
 20
5142.244231910958
 30
0.0
  0
VERTEX
  5
36E
  8
0
 10
7651.650762625934
 20
5167.928555764274
 30
0.0
  0
VERTEX
  5
36F
  8
0
 10
7665.035714758454
 20
5179.468707380437
 30
0.0
  0
VERTEX
  5
370
  8
0
 10
7678.420666890971
 20
5167.928555764274
 30
0.0
  0
VERTEX
  5
371
  8
0
 10
7678.420666890971
 20
5142.244231910958
 30
0.0
  0
VERTEX
  5
372
  8
0
 10
7695.080768849881
 20
5142.244231910958
 30
0.0
 42
0.1402391562020853
  0
VERTEX
  5
373
  8
0
 10
7720.406174447005
 20
5097.212649605635
 30
0.0
 42
0.1325627009121607
  0
SEQEND
  5
374
  8
0
  0
POLYLINE
  5
375
  8
0
 66
     1
 10
0.0
 20
0.0
 30
0.0
 70
     1
  0
VERTEX
  5
376
  8
0
 10
7836.740765655145
 20
5068.369277669492
 30
0.0
  0
VERTEX
  5
377
  8
0
 10
7836.740765655145
 20
5059.345055775084
 30
0.0
  0
VERTEX
  5
378
  8
0
 10
7821.989633712362
 20
5059.345055775084
 30
0.0
 42
-0.1598421083290618
  0
VERTEX
  5
379
  8
0
 10
7804.219782808777
 20
5013.876860845564
 30
0.0
 42
-0.15984210832902
  0
VERTEX
  5
37A
  8
0
 10
7786.449931905194
 20
5059.345055775084
 30
0.0
  0
VERTEX
  5
37B
  8
0
 10
7771.698799962412
 20
5059.345055775084
 30
0.0
  0
VERTEX
  5
37C
  8
0
 10
7771.698799962411
 20
5068.369277669492
 30
0.0
 42
0.1325627009124978
  0
VERTEX
  5
37D
  8
0
 10
7748.849323120226
 20
5097.212649605613
 30
0.0
 42
0.1402391562021506
  0
VERTEX
  5
37E
  8
0
 10
7774.174728717352
 20
5142.244231910958
 30
0.0
  0
VERTEX
  5
37F
  8
0
 10
7790.834830676261
 20
5142.244231910958
 30
0.0
  0
VERTEX
  5
380
  8
0
 10
7790.834830676261
 20
5167.928555764274
 30
0.0
  0
VERTEX
  5
381
  8
0
 10
7804.219782808778
 20
5179.468707380437
 30
0.0
  0
VERTEX
  5
382
  8
0
 10
7817.604734941296
 20
5167.928555764274
 30
0.0
  0
VERTEX
  5
383
  8
0
 10
7817.604734941296
 20
5142.244231910958
 30
0.0
  0
VERTEX
  5
384
  8
0
 10
7834.264836900204
 20
5142.244231910959
 30
0.0
 42
0.1402391562020766
  0
VERTEX
  5
385
  8
0
 10
7859.590242497329
 20
5097.212649605636
 30
0.0
 42
0.1325627009121823
  0
SEQEND
  5
386
  8
0
  0
POLYLINE
  5
387
  8
0
 66
     1
 10
0.0
 20
0.0
 30
0.0
 70
     1
  0
VERTEX
  5
388
  8
0
 10
7975.924833705468
 20
5068.369277669492
 30
0.0
  0
VERTEX
  5
389
  8
0
 10
7975.924833705468
 20
5059.345055775084
 30
0.0
  0
VERTEX
  5
38A
  8
0
 10
7961.173701762687
 20
5059.345055775084
 30
0.0
 42
-0.1598421083291693
  0
VERTEX
  5
38B
  8
0
 10
7943.403850859102
 20
5013.876860845563
 30
0.0
 42
-0.1598421083290184
  0
VERTEX
  5
38C
  8
0
 10
7925.633999955518
 20
5059.345055775084
 30
0.0
  0
VERTEX
  5
38D
  8
0
 10
7910.882868012736
 20
5059.345055775084
 30
0.0
  0
VERTEX
  5
38E
  8
0
 10
7910.882868012735
 20
5068.369277669492
 30
0.0
 42
0.1325627009124978
  0
VERTEX
  5
38F
  8
0
 10
7888.033391170551
 20
5097.212649605613
 30
0.0
 42
0.1402391562021338
  0
VERTEX
  5
390
  8
0
 10
7913.358796767675
 20
5142.244231910959
 30
0.0
  0
VERTEX
  5
391
  8
0
 10
7930.018898726586
 20
5142.244231910958
 30
0.0
  0
VERTEX
  5
392
  8
0
 10
7930.018898726586
 20
5167.928555764274
 30
0.0
  0
VERTEX
  5
393
  8
0
 10
7943.403850859103
 20
5179.468707380437
 30
0.0
  0
VERTEX
  5
394
  8
0
 10
7956.78880299162
 20
5167.928555764274
 30
0.0
  0
VERTEX
  5
395
  8
0
 10
7956.78880299162
 20
5142.244231910958
 30
0.0
  0
VERTEX
  5
396
  8
0
 10
7973.44890495053
 20
5142.244231910959
 30
0.0
 42
0.1402391562021059
  0
VERTEX
  5
397
  8
0
 10
7998.774310547653
 20
5097.212649605635
 30
0.0
 42
0.1325627009121439
  0
SEQEND
  5
398
  8
0
  0
POLYLINE
  5
399
  8
0
 66
     1
 10
0.0
 20
0.0
 30
0.0
 70
     1
  0
VERTEX
  5
39A
  8
0
 10
7836.740765655145
 20
5265.397520322654
 30
0.0
  0
VERTEX
  5
39B
  8
0
 10
7836.740765655145
 20
5256.373298428244
 30
0.0
  0
VERTEX
  5
39C
  8
0
 10
7821.989633712362
 20
5256.373298428244
 30
0.0
 42
-0.1598421083290546
  0
VERTEX
  5
39D
  8
0
 10
7804.219782808778
 20
5210.905103498723
 30
0.0
 42
-0.1598421083290468
  0
VERTEX
  5
39E
  8
0
 10
7786.449931905195
 20
5256.373298428244
 30
0.0
  0
VERTEX
  5
39F
  8
0
 10
7771.698799962412
 20
5256.373298428244
 30
0.0
  0
VERTEX
  5
3A0
  8
0
 10
7771.698799962411
 20
5265.397520322653
 30
0.0
 42
0.1325627009125336
  0
VERTEX
  5
3A1
  8
0
 10
7748.849323120226
 20
5294.240892258778
 30
0.0
 42
0.1402391562021579
  0
VERTEX
  5
3A2
  8
0
 10
7774.174728717352
 20
5339.272474564121
 30
0.0
  0
VERTEX
  5
3A3
  8
0
 10
7790.834830676261
 20
5339.27247456412
 30
0.0
  0
VERTEX
  5
3A4
  8
0
 10
7790.834830676261
 20
5364.956798417436
 30
0.0
  0
VERTEX
  5
3A5
  8
0
 10
7804.219782808778
 20
5376.4969500336
 30
0.0
  0
VERTEX
  5
3A6
  8
0
 10
7817.604734941296
 20
5364.956798417436
 30
0.0
  0
VERTEX
  5
3A7
  8
0
 10
7817.604734941296
 20
5339.27247456412
 30
0.0
  0
VERTEX
  5
3A8
  8
0
 10
7834.264836900204
 20
5339.27247456412
 30
0.0
 42
0.1402391562020789
  0
VERTEX
  5
3A9
  8
0
 10
7859.59024249733
 20
5294.240892258796
 30
0.0
 42
0.132562700912195
  0
SEQEND
  5
3AA
  8
0
  0
POLYLINE
  5
3AB
  8
0
 66
     1
 10
0.0
 20
0.0
 30
0.0
 70
     1
  0
VERTEX
  5
3AC
  8
0
 10
7975.924833705468
 20
5265.397520322654
 30
0.0
  0
VERTEX
  5
3AD
  8
0
 10
7975.924833705468
 20
5256.373298428244
 30
0.0
  0
VERTEX
  5
3AE
  8
0
 10
7961.173701762687
 20
5256.373298428244
 30
0.0
 42
-0.1598421083290436
  0
VERTEX
  5
3AF
  8
0
 10
7943.403850859103
 20
5210.905103498723
 30
0.0
 42
-0.1598421083290578
  0
VERTEX
  5
3B0
  8
0
 10
7925.633999955518
 20
5256.373298428244
 30
0.0
  0
VERTEX
  5
3B1
  8
0
 10
7910.882868012736
 20
5256.373298428244
 30
0.0
  0
VERTEX
  5
3B2
  8
0
 10
7910.882868012735
 20
5265.397520322653
 30
0.0
 42
0.1325627009125336
  0
VERTEX
  5
3B3
  8
0
 10
7888.033391170551
 20
5294.240892258777
 30
0.0
 42
0.1402391562021413
  0
VERTEX
  5
3B4
  8
0
 10
7913.358796767675
 20
5339.272474564121
 30
0.0
  0
VERTEX
  5
3B5
  8
0
 10
7930.018898726586
 20
5339.27247456412
 30
0.0
  0
VERTEX
  5
3B6
  8
0
 10
7930.018898726586
 20
5364.956798417436
 30
0.0
  0
VERTEX
  5
3B7
  8
0
 10
7943.403850859103
 20
5376.4969500336
 30
0.0
  0
VERTEX
  5
3B8
  8
0
 10
7956.78880299162
 20
5364.956798417436
 30
0.0
  0
VERTEX
  5
3B9
  8
0
 10
7956.78880299162
 20
5339.27247456412
 30
0.0
  0
VERTEX
  5
3BA
  8
0
 10
7973.448904950529
 20
5339.27247456412
 30
0.0
 42
0.1402391562021152
  0
VERTEX
  5
3BB
  8
0
 10
7998.774310547653
 20
5294.240892258796
 30
0.0
 42
0.1325627009121601
  0
SEQEND
  5
3BC
  8
0
  0
ENDSEC
  0
EOF
