  0
SECTION
  2
HEADER
  9
$ACADVER
  1
AC1009
  9
$DWGCODEPAGE
  3
ansi_1252
  9
$INSBASE
 10
0.0
 20
0.0
 30
0.0
  9
$EXTMIN
 10
1.000000000000000E+20
 20
1.000000000000000E+20
 30
1.000000000000000E+20
  9
$EXTMAX
 10
-1.000000000000000E+20
 20
-1.000000000000000E+20
 30
-1.000000000000000E+20
  9
$LIMMIN
 10
0.0
 20
0.0
  9
$LIMMAX
 10
12.0
 20
9.0
  9
$ORTHOMODE
 70
     0
  9
$REGENMODE
 70
     1
  9
$FILLMODE
 70
     1
  9
$QTEXTMODE
 70
     0
  9
$MIRRTEXT
 70
     1
  9
$DRAGMODE
 70
     2
  9
$LTSCALE
 40
1.0
  9
$OSMODE
 70
    37
  9
$ATTMODE
 70
     1
  9
$TEXTSIZE
 40
0.2
  9
$TRACEWID
 40
0.05
  9
$TEXTSTYLE
  7
STANDARD
  9
$CLAYER
  8
LAYER_05
  9
$CELTYPE
  6
BYLAYER
  9
$CECOLOR
 62
   256
  9
$DIMSCALE
 40
1.0
  9
$DIMASZ
 40
0.18
  9
$DIMEXO
 40
0.0625
  9
$DIMDLI
 40
0.38
  9
$DIMRND
 40
0.0
  9
$DIMDLE
 40
0.0
  9
$DIMEXE
 40
0.18
  9
$DIMTP
 40
0.0
  9
$DIMTM
 40
0.0
  9
$DIMTXT
 40
0.18
  9
$DIMCEN
 40
0.09
  9
$DIMTSZ
 40
0.0
  9
$DIMTOL
 70
     0
  9
$DIMLIM
 70
     0
  9
$DIMTIH
 70
     1
  9
$DIMTOH
 70
     1
  9
$DIMSE1
 70
     0
  9
$DIMSE2
 70
     0
  9
$DIMTAD
 70
     0
  9
$DIMZIN
 70
     0
  9
$DIMBLK
  1

  9
$DIMASO
 70
     1
  9
$DIMSHO
 70
     1
  9
$DIMPOST
  1

  9
$DIMAPOST
  1

  9
$DIMALT
 70
     0
  9
$DIMALTD
 70
     2
  9
$DIMALTF
 40
25.4
  9
$DIMLFAC
 40
1.0
  9
$DIMTOFL
 70
     0
  9
$DIMTVP
 40
0.0
  9
$DIMTIX
 70
     0
  9
$DIMSOXD
 70
     0
  9
$DIMSAH
 70
     0
  9
$DIMBLK1
  1

  9
$DIMBLK2
  1

  9
$DIMSTYLE
  2
STANDARD_ACAD
  9
$DIMCLRD
 70
     0
  9
$DIMCLRE
 70
     0
  9
$DIMCLRT
 70
     0
  9
$DIMTFAC
 40
1.0
  9
$DIMGAP
 40
0.09
  9
$LUNITS
 70
     2
  9
$LUPREC
 70
     3
  9
$SKETCHINC
 40
0.1
  9
$FILLETRAD
 40
0.5
  9
$AUNITS
 70
     0
  9
$AUPREC
 70
     0
  9
$MENU
  1
.
  9
$ELEVATION
 40
0.0
  9
$PELEVATION
 40
0.0
  9
$THICKNESS
 40
0.0
  9
$LIMCHECK
 70
     0
  9
$CHAMFERA
 40
0.0
  9
$CHAMFERB
 40
0.0
  9
$SKPOLY
 70
     0
  9
$TDCREATE
 40
2459626.425229421
  9
$TDUPDATE
 40
2459626.425229456
  9
$TDINDWG
 40
0.0000000116
  9
$TDUSRTIMER
 40
0.0000000116
  9
$USRTIMER
 70
     1
  9
$ANGBASE
 50
0.0
  9
$ANGDIR
 70
     0
  9
$PDMODE
 70
     0
  9
$PDSIZE
 40
0.0
  9
$PLINEWID
 40
0.0
  9
$COORDS
 70
     1
  9
$SPLFRAME
 70
     0
  9
$SPLINETYPE
 70
     6
  9
$SPLINESEGS
 70
     8
  9
$ATTDIA
 70
     0
  9
$ATTREQ
 70
     1
  9
$HANDLING
 70
     1
  9
$HANDSEED
  5
2C5
  9
$SURFTAB1
 70
     6
  9
$SURFTAB2
 70
     6
  9
$SURFTYPE
 70
     6
  9
$SURFU
 70
     6
  9
$SURFV
 70
     6
  9
$UCSNAME
  2

  9
$UCSORG
 10
0.0
 20
0.0
 30
0.0
  9
$UCSXDIR
 10
1.0
 20
0.0
 30
0.0
  9
$UCSYDIR
 10
0.0
 20
1.0
 30
0.0
  9
$PUCSNAME
  2

  9
$PUCSORG
 10
0.0
 20
0.0
 30
0.0
  9
$PUCSXDIR
 10
1.0
 20
0.0
 30
0.0
  9
$PUCSYDIR
 10
0.0
 20
1.0
 30
0.0
  9
$USERI1
 70
     0
  9
$USERI2
 70
     0
  9
$USERI3
 70
     0
  9
$USERI4
 70
     0
  9
$USERI5
 70
     0
  9
$USERR1
 40
0.0
  9
$USERR2
 40
0.0
  9
$USERR3
 40
0.0
  9
$USERR4
 40
0.0
  9
$USERR5
 40
0.0
  9
$WORLDVIEW
 70
     1
  9
$SHADEDGE
 70
     3
  9
$SHADEDIF
 70
    70
  9
$TILEMODE
 70
     1
  9
$MAXACTVP
 70
    64
  9
$PLIMCHECK
 70
     0
  9
$PEXTMIN
 10
1.000000000000000E+20
 20
1.000000000000000E+20
 30
1.000000000000000E+20
  9
$PEXTMAX
 10
-1.000000000000000E+20
 20
-1.000000000000000E+20
 30
-1.000000000000000E+20
  9
$PLIMMIN
 10
0.0
 20
0.0
  9
$PLIMMAX
 10
12.0
 20
9.0
  9
$UNITMODE
 70
     0
  9
$VISRETAIN
 70
     1
  9
$PLINEGEN
 70
     0
  9
$PSLTSCALE
 70
     1
  0
ENDSEC
  0
SECTION
  2
TABLES
  0
TABLE
  2
VPORT
 70
     1
  0
VPORT
  2
*ACTIVE
 70
     0
 10
0.0
 20
0.0
 11
1.0
 21
1.0
 12
10.42990654205607
 22
4.5
 13
0.0
 23
0.0
 14
0.5
 24
0.5
 15
0.5
 25
0.5
 16
0.0
 26
0.0
 36
1.0
 17
0.0
 27
0.0
 37
0.0
 40
9.0
 41
1.972972972850329
 42
50.0
 43
0.0
 44
0.0
 50
0.0
 51
0.0
 71
     0
 72
   100
 73
     1
 74
     3
 75
     0
 76
     0
 77
     0
 78
     0
  0
ENDTAB
  0
TABLE
  2
LTYPE
 70
     1
  0
LTYPE
  2
CONTINUOUS
 70
     0
  3
Solid line
 72
    65
 73
     0
 40
0.0
  0
ENDTAB
  0
TABLE
  2
LAYER
 70
     2
  0
LAYER
  2
0
 70
     0
 62
     7
  6
CONTINUOUS
  0
LAYER
  2
LAYER_05
 70
     0
 62
     7
  6
CONTINUOUS
  0
ENDTAB
  0
TABLE
  2
STYLE
 70
     1
  0
STYLE
  2
STANDARD
 70
     0
 40
0.0
 41
1.0
 50
0.0
 71
     0
 42
0.2
  3
txt
  4

  0
ENDTAB
  0
TABLE
  2
VIEW
 70
     0
  0
ENDTAB
  0
TABLE
  2
UCS
 70
     0
  0
ENDTAB
  0
TABLE
  2
APPID
 70
     2
  0
APPID
  2
ACAD
 70
     0
  0
APPID
  2
RHINO
 70
     0
  0
ENDTAB
  0
TABLE
  2
DIMSTYLE
 70
     1
  0
DIMSTYLE
  2
STANDARD_ACAD
 70
     0
  3

  4

  5

  6

  7

 40
1.0
 41
0.18
 42
0.0625
 43
0.38
 44
0.18
 45
0.0
 46
0.0
 47
0.0
 48
0.0
140
0.18
141
0.09
142
0.0
143
25.4
144
1.0
145
0.0
146
1.0
147
0.09
 71
     0
 72
     0
 73
     1
 74
     1
 75
     0
 76
     0
 77
     0
 78
     0
170
     0
171
     2
172
     0
173
     0
174
     0
175
     0
176
     0
177
     0
178
     0
  0
ENDTAB
  0
ENDSEC
  0
SECTION
  2
BLOCKS
  0
BLOCK
  8
0
  2
$MODEL_SPACE
 70
     0
 10
0.0
 20
0.0
 30
0.0
  3
$MODEL_SPACE
  1

  0
ENDBLK
  5
21
  8
0
  0
BLOCK
 67
     1
  8
0
  2
$PAPER_SPACE
 70
     0
 10
0.0
 20
0.0
 30
0.0
  3
$PAPER_SPACE
  1

  0
ENDBLK
  5
1D
 67
     1
  8
0
  0
ENDSEC
  0
SECTION
  2
ENTITIES
  0
POLYLINE
  5
70
  8
LAYER_05
 66
     1
 10
0.0
 20
0.0
 30
0.0
 70
     1
  0
VERTEX
  5
71
  8
LAYER_05
 10
427.4887565019226
 20
-56.6914496631398
 30
0.0
  0
VERTEX
  5
72
  8
LAYER_05
 10
1485.584148947514
 20
-56.69144966313983
 30
0.0
  0
VERTEX
  5
73
  8
LAYER_05
 10
1485.584148947514
 20
1785.835080507003
 30
0.0
  0
VERTEX
  5
74
  8
LAYER_05
 10
427.4887565019227
 20
1785.835080507003
 30
0.0
  0
SEQEND
  5
75
  8
LAYER_05
  0
POLYLINE
  5
76
  8
LAYER_05
 66
     1
 10
0.0
 20
0.0
 30
0.0
 70
     1
  0
VERTEX
  5
77
  8
LAYER_05
 10
1322.852081438766
 20
139.2379990980313
 30
0.0
  0
VERTEX
  5
78
  8
LAYER_05
 10
1322.852081438766
 20
320.4865189928457
 30
0.0
  0
VERTEX
  5
79
  8
LAYER_05
 10
1379.059307716448
 20
320.4865189928457
 30
0.0
  0
VERTEX
  5
7A
  8
LAYER_05
 10
1379.059307716448
 20
158.5889621585406
 30
0.0
  0
VERTEX
  5
7B
  8
LAYER_05
 10
1456.536452724718
 20
158.5889621585409
 30
0.0
  0
VERTEX
  5
7C
  8
LAYER_05
 10
1456.536452724718
 20
139.2379990980315
 30
0.0
  0
SEQEND
  5
7D
  8
LAYER_05
  0
POLYLINE
  5
7E
  8
LAYER_05
 66
     1
 10
0.0
 20
0.0
 30
0.0
 70
     1
  0
VERTEX
  5
7F
  8
LAYER_05
 10
1321.043082061496
 20
1152.800609254866
 30
0.0
  0
VERTEX
  5
80
  8
LAYER_05
 10
1456.536452724718
 20
1152.800609254866
 30
0.0
  0
VERTEX
  5
81
  8
LAYER_05
 10
1456.536452724718
 20
1031.409734823245
 30
0.0
  0
VERTEX
  5
82
  8
LAYER_05
 10
1321.043082061496
 20
1031.409734823245
 30
0.0
  0
SEQEND
  5
83
  8
LAYER_05
  0
POLYLINE
  5
84
  8
LAYER_05
 66
     1
 10
0.0
 20
0.0
 30
0.0
 70
     1
  0
VERTEX
  5
85
  8
LAYER_05
 10
1029.998663387601
 20
-27.64375344034397
 30
0.0
  0
VERTEX
  5
86
  8
LAYER_05
 10
1067.661196646456
 20
-27.64375344034397
 30
0.0
  0
VERTEX
  5
87
  8
LAYER_05
 10
1067.661196646457
 20
26.09533301242401
 30
0.0
  0
VERTEX
  5
88
  8
LAYER_05
 10
1029.998663387601
 20
26.09533301242415
 30
0.0
  0
SEQEND
  5
89
  8
LAYER_05
  0
POLYLINE
  5
8A
  8
LAYER_05
 66
     1
 10
0.0
 20
0.0
 30
0.0
 70
     1
  0
VERTEX
  5
8B
  8
LAYER_05
 10
1000.950967164805
 20
-27.64375344034401
 30
0.0
  0
VERTEX
  5
8C
  8
LAYER_05
 10
1000.950967164805
 20
225.0512637260161
 30
0.0
  0
VERTEX
  5
8D
  8
LAYER_05
 10
898.4497428176746
 20
225.051263726016
 30
0.0
  0
VERTEX
  5
8E
  8
LAYER_05
 10
898.4497428176746
 20
-27.64375344034397
 30
0.0
  0
SEQEND
  5
8F
  8
LAYER_05
  0
POLYLINE
  5
90
  8
LAYER_05
 66
     1
 10
0.0
 20
0.0
 30
0.0
 70
     1
  0
VERTEX
  5
91
  8
LAYER_05
 10
1456.536452724718
 20
1181.848305477661
 30
0.0
  0
VERTEX
  5
92
  8
LAYER_05
 10
1321.043082061496
 20
1181.848305477662
 30
0.0
  0
VERTEX
  5
93
  8
LAYER_05
 10
1321.043082061496
 20
1363.18299576516
 30
0.0
  0
VERTEX
  5
94
  8
LAYER_05
 10
1395.212033243446
 20
1363.18299576516
 30
0.0
  0
VERTEX
  5
95
  8
LAYER_05
 10
1395.212033243446
 20
1195.696397325986
 30
0.0
  0
VERTEX
  5
96
  8
LAYER_05
 10
1456.536452724718
 20
1195.696397325986
 30
0.0
  0
SEQEND
  5
97
  8
LAYER_05
  0
POLYLINE
  5
98
  8
LAYER_05
 66
     1
 10
0.0
 20
0.0
 30
0.0
 70
     1
  0
VERTEX
  5
99
  8
LAYER_05
 10
1291.9953858387
 20
1144.713935792729
 30
0.0
  0
VERTEX
  5
9A
  8
LAYER_05
 10
1291.9953858387
 20
1263.565552216259
 30
0.0
  0
VERTEX
  5
9B
  8
LAYER_05
 10
1240.489921196551
 20
1263.565552216259
 30
0.0
  0
VERTEX
  5
9C
  8
LAYER_05
 10
1240.489921196551
 20
1183.984459504719
 30
0.0
  0
VERTEX
  5
9D
  8
LAYER_05
 10
1158.514292303943
 20
1183.984459504719
 30
0.0
  0
VERTEX
  5
9E
  8
LAYER_05
 10
1158.514292303943
 20
1144.713935792729
 30
0.0
  0
SEQEND
  5
9F
  8
LAYER_05
  0
POLYLINE
  5
A0
  8
LAYER_05
 66
     1
 10
0.0
 20
0.0
 30
0.0
 70
     1
  0
VERTEX
  5
A1
  8
LAYER_05
 10
1213.755491180586
 20
956.8540345169299
 30
0.0
  0
VERTEX
  5
A2
  8
LAYER_05
 10
1094.762344244245
 20
956.8540345169299
 30
0.0
  0
VERTEX
  5
A3
  8
LAYER_05
 10
1094.762344244242
 20
906.8140911543642
 30
0.0
  0
VERTEX
  5
A4
  8
LAYER_05
 10
1028.613206216526
 20
906.8140911543641
 30
0.0
  0
VERTEX
  5
A5
  8
LAYER_05
 10
1028.613206216526
 20
706.9408355714763
 30
0.0
  0
VERTEX
  5
A6
  8
LAYER_05
 10
1100.915827385583
 20
706.9408355714764
 30
0.0
  0
VERTEX
  5
A7
  8
LAYER_05
 10
1100.915827385583
 20
806.7616207823543
 30
0.0
  0
VERTEX
  5
A8
  8
LAYER_05
 10
1213.755491180586
 20
806.7616207823544
 30
0.0
  0
SEQEND
  5
A9
  8
LAYER_05
  0
POLYLINE
  5
AA
  8
LAYER_05
 66
     1
 10
0.0
 20
0.0
 30
0.0
 70
     1
  0
VERTEX
  5
AB
  8
LAYER_05
 10
1291.9953858387
 20
956.8540345169299
 30
0.0
  0
VERTEX
  5
AC
  8
LAYER_05
 10
1242.803187403381
 20
956.8540345169299
 30
0.0
  0
VERTEX
  5
AD
  8
LAYER_05
 10
1242.803187403381
 20
806.7616207823542
 30
0.0
  0
VERTEX
  5
AE
  8
LAYER_05
 10
1291.9953858387
 20
806.7616207823544
 30
0.0
  0
SEQEND
  5
AF
  8
LAYER_05
  0
POLYLINE
  5
B0
  8
LAYER_05
 66
     1
 10
0.0
 20
0.0
 30
0.0
 70
     1
  0
VERTEX
  5
B1
  8
LAYER_05
 10
1065.71464802145
 20
1060.453721187226
 30
0.0
  0
VERTEX
  5
B2
  8
LAYER_05
 10
1028.613206216526
 20
1060.453721187226
 30
0.0
  0
VERTEX
  5
B3
  8
LAYER_05
 10
1028.613206216526
 20
985.9017307397257
 30
0.0
  0
VERTEX
  5
B4
  8
LAYER_05
 10
1065.71464802145
 20
985.9017307397257
 30
0.0
  0
SEQEND
  5
B5
  8
LAYER_05
  0
POLYLINE
  5
B6
  8
LAYER_05
 66
     1
 10
0.0
 20
0.0
 30
0.0
 70
     1
  0
VERTEX
  5
B7
  8
LAYER_05
 10
1213.755491180586
 20
1060.453721187226
 30
0.0
  0
VERTEX
  5
B8
  8
LAYER_05
 10
1094.762344244245
 20
1060.453721187226
 30
0.0
  0
VERTEX
  5
B9
  8
LAYER_05
 10
1094.762344244245
 20
985.9017307397255
 30
0.0
  0
VERTEX
  5
BA
  8
LAYER_05
 10
1213.755491180586
 20
985.9017307397256
 30
0.0
  0
SEQEND
  5
BB
  8
LAYER_05
  0
POLYLINE
  5
BC
  8
LAYER_05
 66
     1
 10
0.0
 20
0.0
 30
0.0
 70
     1
  0
VERTEX
  5
BD
  8
LAYER_05
 10
903.820495416813
 20
596.7238526741943
 30
0.0
  0
VERTEX
  5
BE
  8
LAYER_05
 10
1000.950967164805
 20
596.7238526741943
 30
0.0
  0
VERTEX
  5
BF
  8
LAYER_05
 10
1000.950967164805
 20
401.0513059184559
 30
0.0
  0
VERTEX
  5
C0
  8
LAYER_05
 10
796.7301589382371
 20
401.0513059184558
 30
0.0
  0
VERTEX
  5
C1
  8
LAYER_05
 10
796.7301589382371
 20
484.6811843130374
 30
0.0
  0
VERTEX
  5
C2
  8
LAYER_05
 10
903.820495416813
 20
484.6811843130374
 30
0.0
  0
SEQEND
  5
C3
  8
LAYER_05
  0
POLYLINE
  5
C4
  8
LAYER_05
 66
     1
 10
0.0
 20
0.0
 30
0.0
 70
     1
  0
VERTEX
  5
C5
  8
LAYER_05
 10
1293.80438521597
 20
107.2980430076142
 30
0.0
  0
VERTEX
  5
C6
  8
LAYER_05
 10
1293.80438521597
 20
220.7437193176623
 30
0.0
  0
VERTEX
  5
C7
  8
LAYER_05
 10
1245.301334866499
 20
220.7437193176623
 30
0.0
  0
VERTEX
  5
C8
  8
LAYER_05
 10
1245.301334866499
 20
148.4516830437126
 30
0.0
  0
VERTEX
  5
C9
  8
LAYER_05
 10
1186.641815609983
 20
148.4516830437126
 30
0.0
  0
VERTEX
  5
CA
  8
LAYER_05
 10
1186.641815609983
 20
107.2980430076142
 30
0.0
  0
SEQEND
  5
CB
  8
LAYER_05
  0
POLYLINE
  5
CC
  8
LAYER_05
 66
     1
 10
0.0
 20
0.0
 30
0.0
 70
     1
  0
VERTEX
  5
CD
  8
LAYER_05
 10
1240.489921196551
 20
1392.230691987956
 30
0.0
  0
VERTEX
  5
CE
  8
LAYER_05
 10
1240.489921196551
 20
1545.77589422186
 30
0.0
  0
VERTEX
  5
CF
  8
LAYER_05
 10
1291.9953858387
 20
1545.77589422186
 30
0.0
  0
VERTEX
  5
D0
  8
LAYER_05
 10
1291.9953858387
 20
1392.230691987956
 30
0.0
  0
SEQEND
  5
D1
  8
LAYER_05
  0
POLYLINE
  5
D2
  8
LAYER_05
 66
     1
 10
0.0
 20
0.0
 30
0.0
 70
     1
  0
VERTEX
  5
D3
  8
LAYER_05
 10
1456.536452724718
 20
1224.744093548781
 30
0.0
  0
VERTEX
  5
D4
  8
LAYER_05
 10
1456.536452724718
 20
1363.182995765161
 30
0.0
  0
VERTEX
  5
D5
  8
LAYER_05
 10
1424.259729466242
 20
1363.18299576516
 30
0.0
  0
VERTEX
  5
D6
  8
LAYER_05
 10
1424.259729466242
 20
1224.744093548782
 30
0.0
  0
SEQEND
  5
D7
  8
LAYER_05
  0
POLYLINE
  5
D8
  8
LAYER_05
 66
     1
 10
0.0
 20
0.0
 30
0.0
 70
     1
  0
VERTEX
  5
D9
  8
LAYER_05
 10
657.2974345150269
 20
1598.238006027855
 30
0.0
  0
VERTEX
  5
DA
  8
LAYER_05
 10
657.2974345150269
 20
1547.106849788804
 30
0.0
  0
VERTEX
  5
DB
  8
LAYER_05
 10
774.5927188168807
 20
1547.106849788804
 30
0.0
  0
VERTEX
  5
DC
  8
LAYER_05
 10
774.5927188168807
 20
1598.238006027855
 30
0.0
  0
SEQEND
  5
DD
  8
LAYER_05
  0
POLYLINE
  5
DE
  8
LAYER_05
 66
     1
 10
0.0
 20
0.0
 30
0.0
 70
     1
  0
VERTEX
  5
DF
  8
LAYER_05
 10
1227.094155734319
 20
-27.64375344034409
 30
0.0
  0
VERTEX
  5
E0
  8
LAYER_05
 10
1227.094155734319
 20
26.09533301242395
 30
0.0
  0
VERTEX
  5
E1
  8
LAYER_05
 10
1096.708892869252
 20
26.09533301242395
 30
0.0
  0
VERTEX
  5
E2
  8
LAYER_05
 10
1096.708892869252
 20
-27.64375344034403
 30
0.0
  0
SEQEND
  5
E3
  8
LAYER_05
  0
POLYLINE
  5
E4
  8
LAYER_05
 66
     1
 10
0.0
 20
0.0
 30
0.0
 70
     1
  0
VERTEX
  5
E5
  8
LAYER_05
 10
1000.950967164805
 20
372.0036096956601
 30
0.0
  0
VERTEX
  5
E6
  8
LAYER_05
 10
1000.950967164805
 20
349.5342152156415
 30
0.0
  0
VERTEX
  5
E7
  8
LAYER_05
 10
869.4020465948789
 20
349.5342152156414
 30
0.0
  0
VERTEX
  5
E8
  8
LAYER_05
 10
869.4020465948788
 20
254.0989599488118
 30
0.0
  0
VERTEX
  5
E9
  8
LAYER_05
 10
796.7301589382371
 20
254.0989599488118
 30
0.0
  0
VERTEX
  5
EA
  8
LAYER_05
 10
796.7301589382371
 20
372.0036096956601
 30
0.0
  0
SEQEND
  5
EB
  8
LAYER_05
  0
POLYLINE
  5
EC
  8
LAYER_05
 66
     1
 10
0.0
 20
0.0
 30
0.0
 70
     1
  0
VERTEX
  5
ED
  8
LAYER_05
 10
796.7301589382371
 20
-27.64375344034393
 30
0.0
  0
VERTEX
  5
EE
  8
LAYER_05
 10
796.7301589382371
 20
225.0512637260161
 30
0.0
  0
VERTEX
  5
EF
  8
LAYER_05
 10
869.402046594879
 20
225.0512637260161
 30
0.0
  0
VERTEX
  5
F0
  8
LAYER_05
 10
869.4020465948788
 20
-27.64375344034394
 30
0.0
  0
SEQEND
  5
F1
  8
LAYER_05
  0
POLYLINE
  5
F2
  8
LAYER_05
 66
     1
 10
0.0
 20
0.0
 30
0.0
 70
     1
  0
VERTEX
  5
F3
  8
LAYER_05
 10
1029.998663387601
 20
148.4516830437126
 30
0.0
  0
VERTEX
  5
F4
  8
LAYER_05
 10
1157.594119387187
 20
148.4516830437126
 30
0.0
  0
VERTEX
  5
F5
  8
LAYER_05
 10
1157.594119387187
 20
78.25034678481848
 30
0.0
  0
VERTEX
  5
F6
  8
LAYER_05
 10
1293.80438521597
 20
78.25034678481848
 30
0.0
  0
VERTEX
  5
F7
  8
LAYER_05
 10
1293.80438521597
 20
55.14302923521971
 30
0.0
  0
VERTEX
  5
F8
  8
LAYER_05
 10
1029.998663387601
 20
55.1430292352198
 30
0.0
  0
SEQEND
  5
F9
  8
LAYER_05
  0
POLYLINE
  5
FA
  8
LAYER_05
 66
     1
 10
0.0
 20
0.0
 30
0.0
 70
     1
  0
VERTEX
  5
FB
  8
LAYER_05
 10
767.6824627154414
 20
-27.64375344034392
 30
0.0
  0
VERTEX
  5
FC
  8
LAYER_05
 10
767.6824627154415
 20
86.1391213250719
 30
0.0
  0
VERTEX
  5
FD
  8
LAYER_05
 10
725.3707536926319
 20
86.1391213250719
 30
0.0
  0
VERTEX
  5
FE
  8
LAYER_05
 10
725.3707536926321
 20
-27.64375344034397
 30
0.0
  0
SEQEND
  5
FF
  8
LAYER_05
  0
POLYLINE
  5
100
  8
LAYER_05
 66
     1
 10
0.0
 20
0.0
 30
0.0
 70
     1
  0
VERTEX
  5
101
  8
LAYER_05
 10
999.56550999373
 20
1420.92861250204
 30
0.0
  0
VERTEX
  5
102
  8
LAYER_05
 10
999.5655099937298
 20
1392.230691987956
 30
0.0
  0
VERTEX
  5
103
  8
LAYER_05
 10
873.4836957793268
 20
1392.230691987956
 30
0.0
  0
VERTEX
  5
104
  8
LAYER_05
 10
873.4836957793268
 20
1288.952609205064
 30
0.0
  0
VERTEX
  5
105
  8
LAYER_05
 10
803.6404150396763
 20
1288.952609205064
 30
0.0
  0
VERTEX
  5
106
  8
LAYER_05
 10
803.6404150396763
 20
1420.928612502039
 30
0.0
  0
SEQEND
  5
107
  8
LAYER_05
  0
POLYLINE
  5
108
  8
LAYER_05
 66
     1
 10
0.0
 20
0.0
 30
0.0
 70
     1
  0
VERTEX
  5
109
  8
LAYER_05
 10
774.5927188168807
 20
1288.952609205064
 30
0.0
  0
VERTEX
  5
10A
  8
LAYER_05
 10
774.5927188168807
 20
1420.928612502039
 30
0.0
  0
VERTEX
  5
10B
  8
LAYER_05
 10
727.3800195366775
 20
1420.928612502039
 30
0.0
  0
VERTEX
  5
10C
  8
LAYER_05
 10
727.3800195366775
 20
1288.952609205064
 30
0.0
  0
SEQEND
  5
10D
  8
LAYER_05
  0
POLYLINE
  5
10E
  8
LAYER_05
 66
     1
 10
0.0
 20
0.0
 30
0.0
 70
     1
  0
VERTEX
  5
10F
  8
LAYER_05
 10
632.7781841288046
 20
1518.059153566008
 30
0.0
  0
VERTEX
  5
110
  8
LAYER_05
 10
774.5927188168807
 20
1518.059153566008
 30
0.0
  0
VERTEX
  5
111
  8
LAYER_05
 10
774.5927188168807
 20
1449.976308724835
 30
0.0
  0
VERTEX
  5
112
  8
LAYER_05
 10
698.3323233138818
 20
1449.976308724835
 30
0.0
  0
VERTEX
  5
113
  8
LAYER_05
 10
698.3323233138818
 20
1259.904912982268
 30
0.0
  0
VERTEX
  5
114
  8
LAYER_05
 10
774.5927188168807
 20
1259.904912982268
 30
0.0
  0
VERTEX
  5
115
  8
LAYER_05
 10
774.5927188168807
 20
1155.453132370853
 30
0.0
  0
VERTEX
  5
116
  8
LAYER_05
 10
632.7781841288046
 20
1155.453132370852
 30
0.0
  0
SEQEND
  5
117
  8
LAYER_05
  0
POLYLINE
  5
118
  8
LAYER_05
 66
     1
 10
0.0
 20
0.0
 30
0.0
 70
     1
  0
VERTEX
  5
119
  8
LAYER_05
 10
902.5313920021226
 20
1288.952609205064
 30
0.0
  0
VERTEX
  5
11A
  8
LAYER_05
 10
999.5655099937298
 20
1288.952609205064
 30
0.0
  0
VERTEX
  5
11B
  8
LAYER_05
 10
999.5655099937301
 20
1363.18299576516
 30
0.0
  0
VERTEX
  5
11C
  8
LAYER_05
 10
902.5313920021226
 20
1363.18299576516
 30
0.0
  0
SEQEND
  5
11D
  8
LAYER_05
  0
POLYLINE
  5
11E
  8
LAYER_05
 66
     1
 10
0.0
 20
0.0
 30
0.0
 70
     1
  0
VERTEX
  5
11F
  8
LAYER_05
 10
803.6404150396762
 20
1259.904912982268
 30
0.0
  0
VERTEX
  5
120
  8
LAYER_05
 10
873.4836957793268
 20
1259.904912982268
 30
0.0
  0
VERTEX
  5
121
  8
LAYER_05
 10
873.4836957793268
 20
956.8540345169299
 30
0.0
  0
VERTEX
  5
122
  8
LAYER_05
 10
999.56550999373
 20
956.8540345169299
 30
0.0
  0
VERTEX
  5
123
  8
LAYER_05
 10
999.56550999373
 20
935.8617873771598
 30
0.0
  0
VERTEX
  5
124
  8
LAYER_05
 10
803.6404150396763
 20
935.8617873771598
 30
0.0
  0
SEQEND
  5
125
  8
LAYER_05
  0
POLYLINE
  5
126
  8
LAYER_05
 66
     1
 10
0.0
 20
0.0
 30
0.0
 70
     1
  0
VERTEX
  5
127
  8
LAYER_05
 10
1028.613206216526
 20
1392.230691987956
 30
0.0
  0
VERTEX
  5
128
  8
LAYER_05
 10
1064.048295171804
 20
1392.230691987956
 30
0.0
  0
VERTEX
  5
129
  8
LAYER_05
 10
1064.048295171804
 20
1420.928612502039
 30
0.0
  0
VERTEX
  5
12A
  8
LAYER_05
 10
1028.613206216526
 20
1420.928612502039
 30
0.0
  0
SEQEND
  5
12B
  8
LAYER_05
  0
POLYLINE
  5
12C
  8
LAYER_05
 66
     1
 10
0.0
 20
0.0
 30
0.0
 70
     1
  0
VERTEX
  5
12D
  8
LAYER_05
 10
1028.613206216526
 20
1363.18299576516
 30
0.0
  0
VERTEX
  5
12E
  8
LAYER_05
 10
1028.613206216526
 20
1288.952609205064
 30
0.0
  0
VERTEX
  5
12F
  8
LAYER_05
 10
1064.048295171804
 20
1288.952609205064
 30
0.0
  0
VERTEX
  5
130
  8
LAYER_05
 10
1064.048295171804
 20
1363.18299576516
 30
0.0
  0
SEQEND
  5
131
  8
LAYER_05
  0
POLYLINE
  5
132
  8
LAYER_05
 66
     1
 10
0.0
 20
0.0
 30
0.0
 70
     1
  0
VERTEX
  5
133
  8
LAYER_05
 10
905.1863420438453
 20
1756.787384284207
 30
0.0
  0
VERTEX
  5
134
  8
LAYER_05
 10
1117.721930186992
 20
1756.787384284207
 30
0.0
  0
VERTEX
  5
135
  8
LAYER_05
 10
1117.721930186992
 20
1668.348063939299
 30
0.0
  0
VERTEX
  5
136
  8
LAYER_05
 10
999.56550999373
 20
1668.348063939299
 30
0.0
  0
VERTEX
  5
137
  8
LAYER_05
 10
999.56550999373
 20
1449.976308724835
 30
0.0
  0
VERTEX
  5
138
  8
LAYER_05
 10
803.6404150396764
 20
1449.976308724835
 30
0.0
  0
VERTEX
  5
139
  8
LAYER_05
 10
803.6404150396763
 20
1518.059153566008
 30
0.0
  0
VERTEX
  5
13A
  8
LAYER_05
 10
905.1863420438456
 20
1518.059153566008
 30
0.0
  0
SEQEND
  5
13B
  8
LAYER_05
  0
POLYLINE
  5
13C
  8
LAYER_05
 66
     1
 10
0.0
 20
0.0
 30
0.0
 70
     1
  0
VERTEX
  5
13D
  8
LAYER_05
 10
1028.613206216526
 20
1259.904912982268
 30
0.0
  0
VERTEX
  5
13E
  8
LAYER_05
 10
1093.0959913946
 20
1259.904912982268
 30
0.0
  0
VERTEX
  5
13F
  8
LAYER_05
 10
1093.0959913946
 20
1363.18299576516
 30
0.0
  0
VERTEX
  5
140
  8
LAYER_05
 10
1211.442224973756
 20
1363.18299576516
 30
0.0
  0
VERTEX
  5
141
  8
LAYER_05
 10
1211.442224973756
 20
1292.613248439055
 30
0.0
  0
VERTEX
  5
142
  8
LAYER_05
 10
1129.466596081147
 20
1292.613248439055
 30
0.0
  0
VERTEX
  5
143
  8
LAYER_05
 10
1129.466596081147
 20
1213.032155727515
 30
0.0
  0
VERTEX
  5
144
  8
LAYER_05
 10
1028.613206216526
 20
1213.032155727515
 30
0.0
  0
SEQEND
  5
145
  8
LAYER_05
  0
POLYLINE
  5
146
  8
LAYER_05
 66
     1
 10
0.0
 20
0.0
 30
0.0
 70
     1
  0
VERTEX
  5
147
  8
LAYER_05
 10
1291.9953858387
 20
1363.18299576516
 30
0.0
  0
VERTEX
  5
148
  8
LAYER_05
 10
1291.9953858387
 20
1292.613248439055
 30
0.0
  0
VERTEX
  5
149
  8
LAYER_05
 10
1240.489921196551
 20
1292.613248439055
 30
0.0
  0
VERTEX
  5
14A
  8
LAYER_05
 10
1240.489921196551
 20
1363.18299576516
 30
0.0
  0
SEQEND
  5
14B
  8
LAYER_05
  0
POLYLINE
  5
14C
  8
LAYER_05
 66
     1
 10
0.0
 20
0.0
 30
0.0
 70
     1
  0
VERTEX
  5
14D
  8
LAYER_05
 10
1456.536452724718
 20
1392.230691987956
 30
0.0
  0
VERTEX
  5
14E
  8
LAYER_05
 10
1456.536452724718
 20
1486.538726037528
 30
0.0
  0
VERTEX
  5
14F
  8
LAYER_05
 10
1424.259729466242
 20
1486.538726037528
 30
0.0
  0
VERTEX
  5
150
  8
LAYER_05
 10
1424.259729466242
 20
1392.230691987956
 30
0.0
  0
SEQEND
  5
151
  8
LAYER_05
  0
POLYLINE
  5
152
  8
LAYER_05
 66
     1
 10
0.0
 20
0.0
 30
0.0
 70
     1
  0
VERTEX
  5
153
  8
LAYER_05
 10
1456.536452724718
 20
1622.233943030238
 30
0.0
  0
VERTEX
  5
154
  8
LAYER_05
 10
1456.536452724718
 20
1515.586422260323
 30
0.0
  0
VERTEX
  5
155
  8
LAYER_05
 10
1395.212033243446
 20
1515.586422260323
 30
0.0
  0
VERTEX
  5
156
  8
LAYER_05
 10
1395.212033243446
 20
1392.230691987956
 30
0.0
  0
VERTEX
  5
157
  8
LAYER_05
 10
1321.043082061496
 20
1392.230691987956
 30
0.0
  0
VERTEX
  5
158
  8
LAYER_05
 10
1321.043082061496
 20
1622.233943030238
 30
0.0
  0
SEQEND
  5
159
  8
LAYER_05
  0
POLYLINE
  5
15A
  8
LAYER_05
 66
     1
 10
0.0
 20
0.0
 30
0.0
 70
     1
  0
VERTEX
  5
15B
  8
LAYER_05
 10
1211.442224973756
 20
1263.565552216259
 30
0.0
  0
VERTEX
  5
15C
  8
LAYER_05
 10
1158.514292303943
 20
1263.565552216259
 30
0.0
  0
VERTEX
  5
15D
  8
LAYER_05
 10
1158.514292303943
 20
1213.032155727515
 30
0.0
  0
VERTEX
  5
15E
  8
LAYER_05
 10
1211.442224973756
 20
1213.032155727515
 30
0.0
  0
SEQEND
  5
15F
  8
LAYER_05
  0
POLYLINE
  5
160
  8
LAYER_05
 66
     1
 10
0.0
 20
0.0
 30
0.0
 70
     1
  0
VERTEX
  5
161
  8
LAYER_05
 10
1129.466596081147
 20
1183.984459504719
 30
0.0
  0
VERTEX
  5
162
  8
LAYER_05
 10
1129.466596081147
 20
1115.666239569934
 30
0.0
  0
VERTEX
  5
163
  8
LAYER_05
 10
1291.9953858387
 20
1115.666239569934
 30
0.0
  0
VERTEX
  5
164
  8
LAYER_05
 10
1291.9953858387
 20
1089.501417410022
 30
0.0
  0
VERTEX
  5
165
  8
LAYER_05
 10
1028.613206216526
 20
1089.501417410022
 30
0.0
  0
VERTEX
  5
166
  8
LAYER_05
 10
1028.613206216526
 20
1183.984459504719
 30
0.0
  0
SEQEND
  5
167
  8
LAYER_05
  0
POLYLINE
  5
168
  8
LAYER_05
 66
     1
 10
0.0
 20
0.0
 30
0.0
 70
     1
  0
VERTEX
  5
169
  8
LAYER_05
 10
1242.803187403381
 20
1060.453721187226
 30
0.0
  0
VERTEX
  5
16A
  8
LAYER_05
 10
1242.803187403381
 20
985.9017307397256
 30
0.0
  0
VERTEX
  5
16B
  8
LAYER_05
 10
1291.9953858387
 20
985.9017307397256
 30
0.0
  0
VERTEX
  5
16C
  8
LAYER_05
 10
1291.9953858387
 20
1060.453721187226
 30
0.0
  0
SEQEND
  5
16D
  8
LAYER_05
  0
POLYLINE
  5
16E
  8
LAYER_05
 66
     1
 10
0.0
 20
0.0
 30
0.0
 70
     1
  0
VERTEX
  5
16F
  8
LAYER_05
 10
1028.613206216526
 20
956.8540345169299
 30
0.0
  0
VERTEX
  5
170
  8
LAYER_05
 10
1065.714648021449
 20
956.8540345169299
 30
0.0
  0
VERTEX
  5
171
  8
LAYER_05
 10
1065.714648021449
 20
935.8617873771598
 30
0.0
  0
VERTEX
  5
172
  8
LAYER_05
 10
1028.613206216526
 20
935.8617873771598
 30
0.0
  0
SEQEND
  5
173
  8
LAYER_05
  0
POLYLINE
  5
174
  8
LAYER_05
 66
     1
 10
0.0
 20
0.0
 30
0.0
 70
     1
  0
VERTEX
  5
175
  8
LAYER_05
 10
1456.536452724718
 20
729.1213010222555
 30
0.0
  0
VERTEX
  5
176
  8
LAYER_05
 10
1456.536452724718
 20
620.7193111067443
 30
0.0
  0
VERTEX
  5
177
  8
LAYER_05
 10
1321.043082061496
 20
620.7193111067439
 30
0.0
  0
VERTEX
  5
178
  8
LAYER_05
 10
1321.043082061496
 20
729.121301022255
 30
0.0
  0
SEQEND
  5
179
  8
LAYER_05
  0
POLYLINE
  5
17A
  8
LAYER_05
 66
     1
 10
0.0
 20
0.0
 30
0.0
 70
     1
  0
VERTEX
  5
17B
  8
LAYER_05
 10
1213.755491180586
 20
777.7139245595586
 30
0.0
  0
VERTEX
  5
17C
  8
LAYER_05
 10
1129.963523608379
 20
777.7139245595586
 30
0.0
  0
VERTEX
  5
17D
  8
LAYER_05
 10
1129.963523608379
 20
706.9408355714764
 30
0.0
  0
VERTEX
  5
17E
  8
LAYER_05
 10
1213.755491180586
 20
706.9408355714764
 30
0.0
  0
SEQEND
  5
17F
  8
LAYER_05
  0
POLYLINE
  5
180
  8
LAYER_05
 66
     1
 10
0.0
 20
0.0
 30
0.0
 70
     1
  0
VERTEX
  5
181
  8
LAYER_05
 10
1100.915827385583
 20
625.77154889699
 30
0.0
  0
VERTEX
  5
182
  8
LAYER_05
 10
903.820495416813
 20
625.77154889699
 30
0.0
  0
VERTEX
  5
183
  8
LAYER_05
 10
903.820495416813
 20
677.8931393486807
 30
0.0
  0
VERTEX
  5
184
  8
LAYER_05
 10
1100.915827385583
 20
677.8931393486807
 30
0.0
  0
SEQEND
  5
185
  8
LAYER_05
  0
POLYLINE
  5
186
  8
LAYER_05
 66
     1
 10
0.0
 20
0.0
 30
0.0
 70
     1
  0
VERTEX
  5
187
  8
LAYER_05
 10
1094.074781038787
 20
349.5342152156416
 30
0.0
  0
VERTEX
  5
188
  8
LAYER_05
 10
1094.074781038787
 20
401.0513059184559
 30
0.0
  0
VERTEX
  5
189
  8
LAYER_05
 10
1029.998663387601
 20
401.0513059184559
 30
0.0
  0
VERTEX
  5
18A
  8
LAYER_05
 10
1029.998663387601
 20
596.7238526741943
 30
0.0
  0
VERTEX
  5
18B
  8
LAYER_05
 10
1100.915827385583
 20
596.7238526741943
 30
0.0
  0
VERTEX
  5
18C
  8
LAYER_05
 10
1100.915827385583
 20
506.9753465225043
 30
0.0
  0
VERTEX
  5
18D
  8
LAYER_05
 10
1216.253638643703
 20
506.9753465225043
 30
0.0
  0
VERTEX
  5
18E
  8
LAYER_05
 10
1216.253638643703
 20
349.5342152156414
 30
0.0
  0
SEQEND
  5
18F
  8
LAYER_05
  0
POLYLINE
  5
190
  8
LAYER_05
 66
     1
 10
0.0
 20
0.0
 30
0.0
 70
     1
  0
VERTEX
  5
191
  8
LAYER_05
 10
1456.536452724718
 20
479.7408168383239
 30
0.0
  0
VERTEX
  5
192
  8
LAYER_05
 10
1379.059307716448
 20
479.7408168383239
 30
0.0
  0
VERTEX
  5
193
  8
LAYER_05
 10
1379.059307716448
 20
349.5342152156414
 30
0.0
  0
VERTEX
  5
194
  8
LAYER_05
 10
1321.043082061496
 20
349.5342152156414
 30
0.0
  0
VERTEX
  5
195
  8
LAYER_05
 10
1321.043082061496
 20
591.6716148839482
 30
0.0
  0
VERTEX
  5
196
  8
LAYER_05
 10
1456.536452724718
 20
591.6716148839485
 30
0.0
  0
SEQEND
  5
197
  8
LAYER_05
  0
POLYLINE
  5
198
  8
LAYER_05
 66
     1
 10
0.0
 20
0.0
 30
0.0
 70
     1
  0
VERTEX
  5
199
  8
LAYER_05
 10
1129.963523608379
 20
625.77154889699
 30
0.0
  0
VERTEX
  5
19A
  8
LAYER_05
 10
1245.301334866499
 20
625.77154889699
 30
0.0
  0
VERTEX
  5
19B
  8
LAYER_05
 10
1245.301334866499
 20
536.0230427453
 30
0.0
  0
VERTEX
  5
19C
  8
LAYER_05
 10
1291.9953858387
 20
536.0230427453
 30
0.0
  0
VERTEX
  5
19D
  8
LAYER_05
 10
1291.9953858387
 20
777.7139245595586
 30
0.0
  0
VERTEX
  5
19E
  8
LAYER_05
 10
1242.803187403381
 20
777.7139245595586
 30
0.0
  0
VERTEX
  5
19F
  8
LAYER_05
 10
1242.803187403381
 20
677.8931393486807
 30
0.0
  0
VERTEX
  5
1A0
  8
LAYER_05
 10
1129.963523608379
 20
677.8931393486807
 30
0.0
  0
SEQEND
  5
1A1
  8
LAYER_05
  0
POLYLINE
  5
1A2
  8
LAYER_05
 66
     1
 10
0.0
 20
0.0
 30
0.0
 70
     1
  0
VERTEX
  5
1A3
  8
LAYER_05
 10
1129.963523608378
 20
536.0230427453
 30
0.0
  0
VERTEX
  5
1A4
  8
LAYER_05
 10
1216.253638643703
 20
536.0230427453
 30
0.0
  0
VERTEX
  5
1A5
  8
LAYER_05
 10
1216.253638643703
 20
596.7238526741943
 30
0.0
  0
VERTEX
  5
1A6
  8
LAYER_05
 10
1129.963523608379
 20
596.7238526741943
 30
0.0
  0
SEQEND
  5
1A7
  8
LAYER_05
  0
POLYLINE
  5
1A8
  8
LAYER_05
 66
     1
 10
0.0
 20
0.0
 30
0.0
 70
     1
  0
VERTEX
  5
1A9
  8
LAYER_05
 10
1291.9953858387
 20
349.5342152156414
 30
0.0
  0
VERTEX
  5
1AA
  8
LAYER_05
 10
1245.301334866499
 20
349.5342152156414
 30
0.0
  0
VERTEX
  5
1AB
  8
LAYER_05
 10
1245.301334866499
 20
506.9753465225043
 30
0.0
  0
VERTEX
  5
1AC
  8
LAYER_05
 10
1291.9953858387
 20
506.9753465225043
 30
0.0
  0
SEQEND
  5
1AD
  8
LAYER_05
  0
POLYLINE
  5
1AE
  8
LAYER_05
 66
     1
 10
0.0
 20
0.0
 30
0.0
 70
     1
  0
VERTEX
  5
1AF
  8
LAYER_05
 10
1029.998663387601
 20
372.00360969566
 30
0.0
  0
VERTEX
  5
1B0
  8
LAYER_05
 10
1029.998663387601
 20
349.5342152156414
 30
0.0
  0
VERTEX
  5
1B1
  8
LAYER_05
 10
1065.027084815991
 20
349.5342152156414
 30
0.0
  0
VERTEX
  5
1B2
  8
LAYER_05
 10
1065.027084815991
 20
372.0036096956601
 30
0.0
  0
SEQEND
  5
1B3
  8
LAYER_05
  0
POLYLINE
  5
1B4
  8
LAYER_05
 66
     1
 10
0.0
 20
0.0
 30
0.0
 70
     1
  0
VERTEX
  5
1B5
  8
LAYER_05
 10
1000.950967164805
 20
320.4865189928457
 30
0.0
  0
VERTEX
  5
1B6
  8
LAYER_05
 10
898.4497428176746
 20
320.4865189928457
 30
0.0
  0
VERTEX
  5
1B7
  8
LAYER_05
 10
898.4497428176746
 20
254.0989599488118
 30
0.0
  0
VERTEX
  5
1B8
  8
LAYER_05
 10
1000.950967164805
 20
254.0989599488118
 30
0.0
  0
SEQEND
  5
1B9
  8
LAYER_05
  0
POLYLINE
  5
1BA
  8
LAYER_05
 66
     1
 10
0.0
 20
0.0
 30
0.0
 70
     1
  0
VERTEX
  5
1BB
  8
LAYER_05
 10
1029.998663387601
 20
320.4865189928457
 30
0.0
  0
VERTEX
  5
1BC
  8
LAYER_05
 10
1029.998663387601
 20
254.0989599488118
 30
0.0
  0
VERTEX
  5
1BD
  8
LAYER_05
 10
1065.027084815991
 20
254.0989599488118
 30
0.0
  0
VERTEX
  5
1BE
  8
LAYER_05
 10
1065.027084815991
 20
320.4865189928457
 30
0.0
  0
SEQEND
  5
1BF
  8
LAYER_05
  0
POLYLINE
  5
1C0
  8
LAYER_05
 66
     1
 10
0.0
 20
0.0
 30
0.0
 70
     1
  0
VERTEX
  5
1C1
  8
LAYER_05
 10
1029.998663387601
 20
177.4993792665084
 30
0.0
  0
VERTEX
  5
1C2
  8
LAYER_05
 10
1029.998663387601
 20
225.051263726016
 30
0.0
  0
VERTEX
  5
1C3
  8
LAYER_05
 10
1094.074781038787
 20
225.0512637260161
 30
0.0
  0
VERTEX
  5
1C4
  8
LAYER_05
 10
1094.074781038787
 20
320.4865189928457
 30
0.0
  0
VERTEX
  5
1C5
  8
LAYER_05
 10
1216.253638643703
 20
320.4865189928457
 30
0.0
  0
VERTEX
  5
1C6
  8
LAYER_05
 10
1216.253638643703
 20
249.791415540458
 30
0.0
  0
VERTEX
  5
1C7
  8
LAYER_05
 10
1157.594119387187
 20
249.791415540458
 30
0.0
  0
VERTEX
  5
1C8
  8
LAYER_05
 10
1157.594119387187
 20
177.4993792665083
 30
0.0
  0
SEQEND
  5
1C9
  8
LAYER_05
  0
POLYLINE
  5
1CA
  8
LAYER_05
 66
     1
 10
0.0
 20
0.0
 30
0.0
 70
     1
  0
VERTEX
  5
1CB
  8
LAYER_05
 10
1186.641815609983
 20
177.4993792665083
 30
0.0
  0
VERTEX
  5
1CC
  8
LAYER_05
 10
1216.253638643703
 20
177.4993792665083
 30
0.0
  0
VERTEX
  5
1CD
  8
LAYER_05
 10
1216.253638643703
 20
220.7437193176623
 30
0.0
  0
VERTEX
  5
1CE
  8
LAYER_05
 10
1186.641815609983
 20
220.7437193176623
 30
0.0
  0
SEQEND
  5
1CF
  8
LAYER_05
  0
POLYLINE
  5
1D0
  8
LAYER_05
 66
     1
 10
0.0
 20
0.0
 30
0.0
 70
     1
  0
VERTEX
  5
1D1
  8
LAYER_05
 10
1245.301334866499
 20
320.4865189928457
 30
0.0
  0
VERTEX
  5
1D2
  8
LAYER_05
 10
1293.80438521597
 20
320.4865189928457
 30
0.0
  0
VERTEX
  5
1D3
  8
LAYER_05
 10
1293.80438521597
 20
249.791415540458
 30
0.0
  0
VERTEX
  5
1D4
  8
LAYER_05
 10
1245.301334866499
 20
249.791415540458
 30
0.0
  0
SEQEND
  5
1D5
  8
LAYER_05
  0
POLYLINE
  5
1D6
  8
LAYER_05
 66
     1
 10
0.0
 20
0.0
 30
0.0
 70
     1
  0
VERTEX
  5
1D7
  8
LAYER_05
 10
1322.852081438766
 20
-27.64375344034397
 30
0.0
  0
VERTEX
  5
1D8
  8
LAYER_05
 10
1456.536452724718
 20
-27.64375344034397
 30
0.0
  0
VERTEX
  5
1D9
  8
LAYER_05
 10
1456.536452724718
 20
110.1903028752357
 30
0.0
  0
VERTEX
  5
1DA
  8
LAYER_05
 10
1322.852081438766
 20
110.1903028752355
 30
0.0
  0
SEQEND
  5
1DB
  8
LAYER_05
  0
POLYLINE
  5
1DC
  8
LAYER_05
 66
     1
 10
0.0
 20
0.0
 30
0.0
 70
     1
  0
VERTEX
  5
1DD
  8
LAYER_05
 10
696.3230574698364
 20
-27.64375344034397
 30
0.0
  0
VERTEX
  5
1DE
  8
LAYER_05
 10
456.5364527247184
 20
-27.64375344034397
 30
0.0
  0
VERTEX
  5
1DF
  8
LAYER_05
 10
456.5364527247184
 20
7.285948900813313
 30
0.0
  0
VERTEX
  5
1E0
  8
LAYER_05
 10
627.0848922742546
 20
7.28594890081331
 30
0.0
  0
VERTEX
  5
1E1
  8
LAYER_05
 10
627.0848922742546
 20
86.13912132507187
 30
0.0
  0
VERTEX
  5
1E2
  8
LAYER_05
 10
696.3230574698362
 20
86.1391213250719
 30
0.0
  0
SEQEND
  5
1E3
  8
LAYER_05
  0
POLYLINE
  5
1E4
  8
LAYER_05
 66
     1
 10
0.0
 20
0.0
 30
0.0
 70
     1
  0
VERTEX
  5
1E5
  8
LAYER_05
 10
456.5364527247184
 20
1627.285702250651
 30
0.0
  0
VERTEX
  5
1E6
  8
LAYER_05
 10
456.5364527247184
 20
1756.787384284207
 30
0.0
  0
VERTEX
  5
1E7
  8
LAYER_05
 10
628.2497382922311
 20
1756.787384284207
 30
0.0
  0
VERTEX
  5
1E8
  8
LAYER_05
 10
628.2497382922313
 20
1627.285702250651
 30
0.0
  0
SEQEND
  5
1E9
  8
LAYER_05
  0
POLYLINE
  5
1EA
  8
LAYER_05
 66
     1
 10
0.0
 20
0.0
 30
0.0
 70
     1
  0
VERTEX
  5
1EB
  8
LAYER_05
 10
1321.043082061496
 20
1756.787384284207
 30
0.0
  0
VERTEX
  5
1EC
  8
LAYER_05
 10
1321.043082061496
 20
1651.281639253034
 30
0.0
  0
VERTEX
  5
1ED
  8
LAYER_05
 10
1456.536452724718
 20
1651.281639253033
 30
0.0
  0
VERTEX
  5
1EE
  8
LAYER_05
 10
1456.536452724718
 20
1756.787384284207
 30
0.0
  0
SEQEND
  5
1EF
  8
LAYER_05
  0
POLYLINE
  5
1F0
  8
LAYER_05
 66
     1
 10
0.0
 20
0.0
 30
0.0
 70
     1
  0
VERTEX
  5
1F1
  8
LAYER_05
 10
1293.80438521597
 20
-27.64375344034394
 30
0.0
  0
VERTEX
  5
1F2
  8
LAYER_05
 10
1293.80438521597
 20
26.09533301242401
 30
0.0
  0
VERTEX
  5
1F3
  8
LAYER_05
 10
1256.141851957114
 20
26.09533301242401
 30
0.0
  0
VERTEX
  5
1F4
  8
LAYER_05
 10
1256.141851957114
 20
-27.64375344034397
 30
0.0
  0
SEQEND
  5
1F5
  8
LAYER_05
  0
POLYLINE
  5
1F6
  8
LAYER_05
 66
     1
 10
0.0
 20
0.0
 30
0.0
 70
     1
  0
VERTEX
  5
1F7
  8
LAYER_05
 10
522.3192143349978
 20
287.2197406456569
 30
0.0
  0
VERTEX
  5
1F8
  8
LAYER_05
 10
522.3192143349978
 20
133.9344919434598
 30
0.0
  0
VERTEX
  5
1F9
  8
LAYER_05
 10
456.5364527247184
 20
133.9344919434598
 30
0.0
  0
VERTEX
  5
1FA
  8
LAYER_05
 10
456.5364527247184
 20
115.1868175478676
 30
0.0
  0
VERTEX
  5
1FB
  8
LAYER_05
 10
598.0371960514589
 20
115.1868175478676
 30
0.0
  0
VERTEX
  5
1FC
  8
LAYER_05
 10
598.0371960514589
 20
287.2197406456569
 30
0.0
  0
SEQEND
  5
1FD
  8
LAYER_05
  0
POLYLINE
  5
1FE
  8
LAYER_05
 66
     1
 10
0.0
 20
0.0
 30
0.0
 70
     1
  0
VERTEX
  5
1FF
  8
LAYER_05
 10
456.5364527247184
 20
36.33364512360902
 30
0.0
  0
VERTEX
  5
200
  8
LAYER_05
 10
598.0371960514589
 20
36.33364512360901
 30
0.0
  0
VERTEX
  5
201
  8
LAYER_05
 10
598.0371960514589
 20
86.13912132507193
 30
0.0
  0
VERTEX
  5
202
  8
LAYER_05
 10
456.5364527247184
 20
86.13912132507184
 30
0.0
  0
SEQEND
  5
203
  8
LAYER_05
  0
POLYLINE
  5
204
  8
LAYER_05
 66
     1
 10
0.0
 20
0.0
 30
0.0
 70
     1
  0
VERTEX
  5
205
  8
LAYER_05
 10
767.6824627154415
 20
225.0512637260161
 30
0.0
  0
VERTEX
  5
206
  8
LAYER_05
 10
767.6824627154415
 20
115.1868175478676
 30
0.0
  0
VERTEX
  5
207
  8
LAYER_05
 10
627.0848922742546
 20
115.1868175478676
 30
0.0
  0
VERTEX
  5
208
  8
LAYER_05
 10
627.0848922742546
 20
316.2674368684526
 30
0.0
  0
VERTEX
  5
209
  8
LAYER_05
 10
522.3192143349978
 20
316.2674368684526
 30
0.0
  0
VERTEX
  5
20A
  8
LAYER_05
 10
522.3192143349978
 20
372.0036096956601
 30
0.0
  0
VERTEX
  5
20B
  8
LAYER_05
 10
700.2684406016231
 20
372.0036096956601
 30
0.0
  0
VERTEX
  5
20C
  8
LAYER_05
 10
700.2684406016231
 20
225.0512637260161
 30
0.0
  0
SEQEND
  5
20D
  8
LAYER_05
  0
POLYLINE
  5
20E
  8
LAYER_05
 66
     1
 10
0.0
 20
0.0
 30
0.0
 70
     1
  0
VERTEX
  5
20F
  8
LAYER_05
 10
767.6824627154415
 20
254.0989599488119
 30
0.0
  0
VERTEX
  5
210
  8
LAYER_05
 10
767.6824627154415
 20
372.0036096956601
 30
0.0
  0
VERTEX
  5
211
  8
LAYER_05
 10
729.3161368244188
 20
372.0036096956601
 30
0.0
  0
VERTEX
  5
212
  8
LAYER_05
 10
729.3161368244188
 20
254.0989599488117
 30
0.0
  0
SEQEND
  5
213
  8
LAYER_05
  0
POLYLINE
  5
214
  8
LAYER_05
 66
     1
 10
0.0
 20
0.0
 30
0.0
 70
     1
  0
VERTEX
  5
215
  8
LAYER_05
 10
767.6824627154415
 20
513.7288805358332
 30
0.0
  0
VERTEX
  5
216
  8
LAYER_05
 10
767.6824627154415
 20
560.4878192804508
 30
0.0
  0
VERTEX
  5
217
  8
LAYER_05
 10
658.9576952443783
 20
560.4878192804508
 30
0.0
  0
VERTEX
  5
218
  8
LAYER_05
 10
658.9576952443784
 20
513.7288805358332
 30
0.0
  0
SEQEND
  5
219
  8
LAYER_05
  0
POLYLINE
  5
21A
  8
LAYER_05
 66
     1
 10
0.0
 20
0.0
 30
0.0
 70
     1
  0
VERTEX
  5
21B
  8
LAYER_05
 10
456.5364527247184
 20
560.4878192804507
 30
0.0
  0
VERTEX
  5
21C
  8
LAYER_05
 10
629.9099990215827
 20
560.4878192804508
 30
0.0
  0
VERTEX
  5
21D
  8
LAYER_05
 10
629.9099990215827
 20
484.6811843130374
 30
0.0
  0
VERTEX
  5
21E
  8
LAYER_05
 10
767.6824627154415
 20
484.6811843130374
 30
0.0
  0
VERTEX
  5
21F
  8
LAYER_05
 10
767.6824627154415
 20
401.0513059184559
 30
0.0
  0
VERTEX
  5
220
  8
LAYER_05
 10
522.3192143349978
 20
401.0513059184558
 30
0.0
  0
VERTEX
  5
221
  8
LAYER_05
 10
522.3192143349978
 20
454.7332460327818
 30
0.0
  0
VERTEX
  5
222
  8
LAYER_05
 10
456.5364527247184
 20
454.7332460327817
 30
0.0
  0
SEQEND
  5
223
  8
LAYER_05
  0
POLYLINE
  5
224
  8
LAYER_05
 66
     1
 10
0.0
 20
0.0
 30
0.0
 70
     1
  0
VERTEX
  5
225
  8
LAYER_05
 10
456.5364527247184
 20
719.4752614067972
 30
0.0
  0
VERTEX
  5
226
  8
LAYER_05
 10
629.9099990215827
 20
719.4752614067972
 30
0.0
  0
VERTEX
  5
227
  8
LAYER_05
 10
629.9099990215827
 20
589.5355155032464
 30
0.0
  0
VERTEX
  5
228
  8
LAYER_05
 10
456.5364527247184
 20
589.5355155032466
 30
0.0
  0
SEQEND
  5
229
  8
LAYER_05
  0
POLYLINE
  5
22A
  8
LAYER_05
 66
     1
 10
0.0
 20
0.0
 30
0.0
 70
     1
  0
VERTEX
  5
22B
  8
LAYER_05
 10
658.9576952443784
 20
748.522957629593
 30
0.0
  0
VERTEX
  5
22C
  8
LAYER_05
 10
774.5927188168806
 20
748.522957629593
 30
0.0
  0
VERTEX
  5
22D
  8
LAYER_05
 10
774.5927188168807
 20
796.6704781944551
 30
0.0
  0
VERTEX
  5
22E
  8
LAYER_05
 10
658.9576952443784
 20
796.6704781944551
 30
0.0
  0
SEQEND
  5
22F
  8
LAYER_05
  0
POLYLINE
  5
230
  8
LAYER_05
 66
     1
 10
0.0
 20
0.0
 30
0.0
 70
     1
  0
VERTEX
  5
231
  8
LAYER_05
 10
796.7301589382371
 20
513.7288805358331
 30
0.0
  0
VERTEX
  5
232
  8
LAYER_05
 10
874.7727991940172
 20
513.7288805358331
 30
0.0
  0
VERTEX
  5
233
  8
LAYER_05
 10
874.7727991940172
 20
796.6704781944551
 30
0.0
  0
VERTEX
  5
234
  8
LAYER_05
 10
803.6404150396763
 20
796.670478194455
 30
0.0
  0
VERTEX
  5
235
  8
LAYER_05
 10
803.6404150396763
 20
719.4752614067972
 30
0.0
  0
VERTEX
  5
236
  8
LAYER_05
 10
658.9576952443784
 20
719.4752614067972
 30
0.0
  0
VERTEX
  5
237
  8
LAYER_05
 10
658.9576952443786
 20
589.5355155032464
 30
0.0
  0
VERTEX
  5
238
  8
LAYER_05
 10
796.7301589382371
 20
589.5355155032464
 30
0.0
  0
SEQEND
  5
239
  8
LAYER_05
  0
POLYLINE
  5
23A
  8
LAYER_05
 66
     1
 10
0.0
 20
0.0
 30
0.0
 70
     1
  0
VERTEX
  5
23B
  8
LAYER_05
 10
999.56550999373
 20
906.8140911543642
 30
0.0
  0
VERTEX
  5
23C
  8
LAYER_05
 10
999.5655099937298
 20
706.9408355714763
 30
0.0
  0
VERTEX
  5
23D
  8
LAYER_05
 10
903.820495416813
 20
706.9408355714766
 30
0.0
  0
VERTEX
  5
23E
  8
LAYER_05
 10
903.820495416813
 20
825.7181744172508
 30
0.0
  0
VERTEX
  5
23F
  8
LAYER_05
 10
803.6404150396763
 20
825.7181744172508
 30
0.0
  0
VERTEX
  5
240
  8
LAYER_05
 10
803.6404150396763
 20
906.8140911543642
 30
0.0
  0
SEQEND
  5
241
  8
LAYER_05
  0
POLYLINE
  5
242
  8
LAYER_05
 66
     1
 10
0.0
 20
0.0
 30
0.0
 70
     1
  0
VERTEX
  5
243
  8
LAYER_05
 10
774.5927188168806
 20
916.9292307660019
 30
0.0
  0
VERTEX
  5
244
  8
LAYER_05
 10
774.5927188168807
 20
1126.405436148057
 30
0.0
  0
VERTEX
  5
245
  8
LAYER_05
 10
724.8807433928137
 20
1126.405436148057
 30
0.0
  0
VERTEX
  5
246
  8
LAYER_05
 10
724.8807433928137
 20
916.929230766002
 30
0.0
  0
SEQEND
  5
247
  8
LAYER_05
  0
POLYLINE
  5
248
  8
LAYER_05
 66
     1
 10
0.0
 20
0.0
 30
0.0
 70
     1
  0
VERTEX
  5
249
  8
LAYER_05
 10
456.5364527247184
 20
748.5229576295934
 30
0.0
  0
VERTEX
  5
24A
  8
LAYER_05
 10
456.5364527247184
 20
855.3033396293049
 30
0.0
  0
VERTEX
  5
24B
  8
LAYER_05
 10
525.8336432405627
 20
855.3033396293048
 30
0.0
  0
VERTEX
  5
24C
  8
LAYER_05
 10
525.8336432405627
 20
887.8815345432063
 30
0.0
  0
VERTEX
  5
24D
  8
LAYER_05
 10
774.5927188168807
 20
887.8815345432063
 30
0.0
  0
VERTEX
  5
24E
  8
LAYER_05
 10
774.5927188168807
 20
825.7181744172508
 30
0.0
  0
VERTEX
  5
24F
  8
LAYER_05
 10
629.9099990215827
 20
825.7181744172508
 30
0.0
  0
VERTEX
  5
250
  8
LAYER_05
 10
629.9099990215827
 20
748.5229576295931
 30
0.0
  0
SEQEND
  5
251
  8
LAYER_05
  0
POLYLINE
  5
252
  8
LAYER_05
 66
     1
 10
0.0
 20
0.0
 30
0.0
 70
     1
  0
VERTEX
  5
253
  8
LAYER_05
 10
632.7781841287983
 20
981.6067574923912
 30
0.0
  0
VERTEX
  5
254
  8
LAYER_05
 10
525.8336432405627
 20
981.6067574923911
 30
0.0
  0
VERTEX
  5
255
  8
LAYER_05
 10
525.8336432405627
 20
916.9292307660019
 30
0.0
  0
VERTEX
  5
256
  8
LAYER_05
 10
695.833047170018
 20
916.929230766002
 30
0.0
  0
VERTEX
  5
257
  8
LAYER_05
 10
695.833047170018
 20
1126.405436148057
 30
0.0
  0
VERTEX
  5
258
  8
LAYER_05
 10
632.7781841288046
 20
1126.405436148057
 30
0.0
  0
SEQEND
  5
259
  8
LAYER_05
  0
POLYLINE
  5
25A
  8
LAYER_05
 66
     1
 10
0.0
 20
0.0
 30
0.0
 70
     1
  0
VERTEX
  5
25B
  8
LAYER_05
 10
603.7304879060089
 20
1010.654453715178
 30
0.0
  0
VERTEX
  5
25C
  8
LAYER_05
 10
603.7304879060089
 20
1126.405436148057
 30
0.0
  0
VERTEX
  5
25D
  8
LAYER_05
 10
456.5364527247185
 20
1126.405436148057
 30
0.0
  0
VERTEX
  5
25E
  8
LAYER_05
 10
456.5364527247184
 20
1010.654453715187
 30
0.0
  0
SEQEND
  5
25F
  8
LAYER_05
  0
POLYLINE
  5
260
  8
LAYER_05
 66
     1
 10
0.0
 20
0.0
 30
0.0
 70
     1
  0
VERTEX
  5
261
  8
LAYER_05
 10
603.7304879060089
 20
1547.1068497888
 30
0.0
  0
VERTEX
  5
262
  8
LAYER_05
 10
603.7304879060089
 20
1366.677899553736
 30
0.0
  0
VERTEX
  5
263
  8
LAYER_05
 10
518.343088984646
 20
1366.677899553736
 30
0.0
  0
VERTEX
  5
264
  8
LAYER_05
 10
518.343088984646
 20
1501.146179781169
 30
0.0
  0
VERTEX
  5
265
  8
LAYER_05
 10
456.5364527247184
 20
1501.146179781169
 30
0.0
  0
VERTEX
  5
266
  8
LAYER_05
 10
456.5364527247184
 20
1598.238006027855
 30
0.0
  0
VERTEX
  5
267
  8
LAYER_05
 10
628.2497382922311
 20
1598.238006027855
 30
0.0
  0
VERTEX
  5
268
  8
LAYER_05
 10
628.2497382922312
 20
1547.106849788804
 30
0.0
  0
SEQEND
  5
269
  8
LAYER_05
  0
POLYLINE
  5
26A
  8
LAYER_05
 66
     1
 10
0.0
 20
0.0
 30
0.0
 70
     1
  0
VERTEX
  5
26B
  8
LAYER_05
 10
456.5364527247184
 20
1174.114226880712
 30
0.0
  0
VERTEX
  5
26C
  8
LAYER_05
 10
518.343088984646
 20
1174.114226880712
 30
0.0
  0
VERTEX
  5
26D
  8
LAYER_05
 10
518.343088984646
 20
1337.630203330941
 30
0.0
  0
VERTEX
  5
26E
  8
LAYER_05
 10
603.7304879060089
 20
1337.630203330941
 30
0.0
  0
VERTEX
  5
26F
  8
LAYER_05
 10
603.7304879060089
 20
1155.453132370853
 30
0.0
  0
VERTEX
  5
270
  8
LAYER_05
 10
456.5364527247184
 20
1155.453132370853
 30
0.0
  0
SEQEND
  5
271
  8
LAYER_05
  0
POLYLINE
  5
272
  8
LAYER_05
 66
     1
 10
0.0
 20
0.0
 30
0.0
 70
     1
  0
VERTEX
  5
273
  8
LAYER_05
 10
876.1386458210505
 20
1756.787384284207
 30
0.0
  0
VERTEX
  5
274
  8
LAYER_05
 10
657.2974345150269
 20
1756.787384284207
 30
0.0
  0
VERTEX
  5
275
  8
LAYER_05
 10
657.2974345150269
 20
1627.285702250651
 30
0.0
  0
VERTEX
  5
276
  8
LAYER_05
 10
803.6404150396763
 20
1627.285702250651
 30
0.0
  0
VERTEX
  5
277
  8
LAYER_05
 10
803.6404150396763
 20
1547.106849788804
 30
0.0
  0
VERTEX
  5
278
  8
LAYER_05
 10
876.1386458210499
 20
1547.106849788803
 30
0.0
  0
SEQEND
  5
279
  8
LAYER_05
  0
POLYLINE
  5
27A
  8
LAYER_05
 66
     1
 10
0.0
 20
0.0
 30
0.0
 70
     1
  0
VERTEX
  5
27B
  8
LAYER_05
 10
1117.721930186992
 20
1639.300367716503
 30
0.0
  0
VERTEX
  5
27C
  8
LAYER_05
 10
1117.721930186992
 20
1545.77589422186
 30
0.0
  0
VERTEX
  5
27D
  8
LAYER_05
 10
1211.442224973756
 20
1545.77589422186
 30
0.0
  0
VERTEX
  5
27E
  8
LAYER_05
 10
1211.442224973756
 20
1392.230691987956
 30
0.0
  0
VERTEX
  5
27F
  8
LAYER_05
 10
1093.0959913946
 20
1392.230691987956
 30
0.0
  0
VERTEX
  5
280
  8
LAYER_05
 10
1093.0959913946
 20
1449.976308724835
 30
0.0
  0
VERTEX
  5
281
  8
LAYER_05
 10
1028.613206216526
 20
1449.976308724835
 30
0.0
  0
VERTEX
  5
282
  8
LAYER_05
 10
1028.613206216526
 20
1639.300367716503
 30
0.0
  0
SEQEND
  5
283
  8
LAYER_05
  0
POLYLINE
  5
284
  8
LAYER_05
 66
     1
 10
0.0
 20
0.0
 30
0.0
 70
     1
  0
VERTEX
  5
285
  8
LAYER_05
 10
1146.769626409787
 20
1639.300367716504
 30
0.0
  0
VERTEX
  5
286
  8
LAYER_05
 10
1146.769626409787
 20
1574.823590444656
 30
0.0
  0
VERTEX
  5
287
  8
LAYER_05
 10
1211.442224973756
 20
1574.823590444656
 30
0.0
  0
VERTEX
  5
288
  8
LAYER_05
 10
1211.442224973756
 20
1639.300367716503
 30
0.0
  0
SEQEND
  5
289
  8
LAYER_05
  0
POLYLINE
  5
28A
  8
LAYER_05
 66
     1
 10
0.0
 20
0.0
 30
0.0
 70
     1
  0
VERTEX
  5
28B
  8
LAYER_05
 10
1146.769626409787
 20
1756.787384284207
 30
0.0
  0
VERTEX
  5
28C
  8
LAYER_05
 10
1146.769626409787
 20
1668.348063939299
 30
0.0
  0
VERTEX
  5
28D
  8
LAYER_05
 10
1240.489921196551
 20
1668.348063939299
 30
0.0
  0
VERTEX
  5
28E
  8
LAYER_05
 10
1240.489921196551
 20
1574.823590444656
 30
0.0
  0
VERTEX
  5
28F
  8
LAYER_05
 10
1291.9953858387
 20
1574.823590444656
 30
0.0
  0
VERTEX
  5
290
  8
LAYER_05
 10
1291.9953858387
 20
1756.787384284207
 30
0.0
  0
SEQEND
  5
291
  8
LAYER_05
  0
POLYLINE
  5
292
  8
LAYER_05
 66
     1
 10
0.0
 20
0.0
 30
0.0
 70
     1
  0
VERTEX
  5
293
  8
LAYER_05
 10
456.5364527247184
 20
1203.161923103508
 30
0.0
  0
VERTEX
  5
294
  8
LAYER_05
 10
489.2953927618503
 20
1203.161923103508
 30
0.0
  0
VERTEX
  5
295
  8
LAYER_05
 10
489.2953927618503
 20
1472.098483558374
 30
0.0
  0
VERTEX
  5
296
  8
LAYER_05
 10
456.5364527247184
 20
1472.098483558374
 30
0.0
  0
SEQEND
  5
297
  8
LAYER_05
  0
POLYLINE
  5
298
  8
LAYER_05
 66
     1
 10
0.0
 20
0.0
 30
0.0
 70
     1
  0
VERTEX
  5
299
  8
LAYER_05
 10
1456.536452724718
 20
901.3305185819272
 30
0.0
  0
VERTEX
  5
29A
  8
LAYER_05
 10
1456.536452724718
 20
1002.36203860045
 30
0.0
  0
VERTEX
  5
29B
  8
LAYER_05
 10
1427.7380633403
 20
1002.36203860045
 30
0.0
  0
VERTEX
  5
29C
  8
LAYER_05
 10
1427.7380633403
 20
901.330518581928
 30
0.0
  0
SEQEND
  5
29D
  8
LAYER_05
  0
POLYLINE
  5
29E
  8
LAYER_05
 66
     1
 10
0.0
 20
0.0
 30
0.0
 70
     1
  0
VERTEX
  5
29F
  8
LAYER_05
 10
456.5364527247183
 20
884.3510358521005
 30
0.0
  0
VERTEX
  5
2A0
  8
LAYER_05
 10
496.7859470177669
 20
884.3510358521005
 30
0.0
  0
VERTEX
  5
2A1
  8
LAYER_05
 10
496.785947017767
 20
981.6067574923912
 30
0.0
  0
VERTEX
  5
2A2
  8
LAYER_05
 10
456.5364527247184
 20
981.6067574923911
 30
0.0
  0
SEQEND
  5
2A3
  8
LAYER_05
  0
POLYLINE
  5
2A4
  8
LAYER_05
 66
     1
 10
0.0
 20
0.0
 30
0.0
 70
     1
  0
VERTEX
  5
2A5
  8
LAYER_05
 10
456.5364527247184
 20
425.6855498099859
 30
0.0
  0
VERTEX
  5
2A6
  8
LAYER_05
 10
456.5364527247184
 20
162.9821881662555
 30
0.0
  0
VERTEX
  5
2A7
  8
LAYER_05
 10
493.2715181122021
 20
162.9821881662555
 30
0.0
  0
VERTEX
  5
2A8
  8
LAYER_05
 10
493.2715181122021
 20
425.6855498099861
 30
0.0
  0
SEQEND
  5
2A9
  8
LAYER_05
  0
POLYLINE
  5
2AA
  8
LAYER_05
 66
     1
 10
0.0
 20
0.0
 30
0.0
 70
     1
  0
VERTEX
  5
2AB
  8
LAYER_05
 10
1456.536452724718
 20
450.6931206155282
 30
0.0
  0
VERTEX
  5
2AC
  8
LAYER_05
 10
1408.107003939243
 20
450.6931206155282
 30
0.0
  0
VERTEX
  5
2AD
  8
LAYER_05
 10
1408.107003939243
 20
187.6366583813363
 30
0.0
  0
VERTEX
  5
2AE
  8
LAYER_05
 10
1456.536452724718
 20
187.6366583813361
 30
0.0
  0
SEQEND
  5
2AF
  8
LAYER_05
  0
POLYLINE
  5
2B0
  8
LAYER_05
 66
     1
 10
0.0
 20
0.0
 30
0.0
 70
     1
  0
VERTEX
  5
2B1
  8
LAYER_05
 10
902.5313920021226
 20
1259.904912982268
 30
0.0
  0
VERTEX
  5
2B2
  8
LAYER_05
 10
999.5655099937298
 20
1259.904912982268
 30
0.0
  0
VERTEX
  5
2B3
  8
LAYER_05
 10
999.56550999373
 20
985.9017307397257
 30
0.0
  0
VERTEX
  5
2B4
  8
LAYER_05
 10
902.5313920021225
 20
985.9017307397255
 30
0.0
  0
SEQEND
  5
2B5
  8
LAYER_05
  0
POLYLINE
  5
2B6
  8
LAYER_05
 66
     1
 10
0.0
 20
0.0
 30
0.0
 70
     1
  0
VERTEX
  5
2B7
  8
LAYER_05
 10
1456.536452724718
 20
872.2828223591332
 30
0.0
  0
VERTEX
  5
2B8
  8
LAYER_05
 10
1456.536452724718
 20
758.1689972450504
 30
0.0
  0
VERTEX
  5
2B9
  8
LAYER_05
 10
1321.043082061496
 20
758.1689972450506
 30
0.0
  0
VERTEX
  5
2BA
  8
LAYER_05
 10
1321.043082061496
 20
1002.36203860045
 30
0.0
  0
VERTEX
  5
2BB
  8
LAYER_05
 10
1398.690367117505
 20
1002.36203860045
 30
0.0
  0
VERTEX
  5
2BC
  8
LAYER_05
 10
1398.690367117505
 20
872.2828223591323
 30
0.0
  0
SEQEND
  5
2BD
  8
LAYER_05
  0
ENDSEC
  0
EOF
