  0
SECTION
  2
HEADER
  9
$ACADVER
  1
AC1009
  9
$DWGCODEPAGE
  3
ansi_1252
  9
$INSBASE
 10
0.0
 20
0.0
 30
0.0
  9
$EXTMIN
 10
174.6335636013403
 20
329.2581263831923
 30
0.0
  9
$EXTMAX
 10
391.1986265883916
 20
616.9089365015323
 30
0.0
  9
$LIMMIN
 10
0.0
 20
0.0
  9
$LIMMAX
 10
12.0
 20
9.0
  9
$ORTHOMODE
 70
     0
  9
$REGENMODE
 70
     1
  9
$FILLMODE
 70
     1
  9
$QTEXTMODE
 70
     0
  9
$MIRRTEXT
 70
     1
  9
$DRAGMODE
 70
     2
  9
$LTSCALE
 40
1.0
  9
$OSMODE
 70
    37
  9
$ATTMODE
 70
     1
  9
$TEXTSIZE
 40
0.2
  9
$TRACEWID
 40
0.05
  9
$TEXTSTYLE
  7
STANDARD
  9
$CLAYER
  8
LAYER_01
  9
$CELTYPE
  6
BYLAYER
  9
$CECOLOR
 62
   256
  9
$DIMSCALE
 40
1.0
  9
$DIMASZ
 40
0.18
  9
$DIMEXO
 40
0.0625
  9
$DIMDLI
 40
0.38
  9
$DIMRND
 40
0.0
  9
$DIMDLE
 40
0.0
  9
$DIMEXE
 40
0.18
  9
$DIMTP
 40
0.0
  9
$DIMTM
 40
0.0
  9
$DIMTXT
 40
0.18
  9
$DIMCEN
 40
0.09
  9
$DIMTSZ
 40
0.0
  9
$DIMTOL
 70
     0
  9
$DIMLIM
 70
     0
  9
$DIMTIH
 70
     1
  9
$DIMTOH
 70
     1
  9
$DIMSE1
 70
     0
  9
$DIMSE2
 70
     0
  9
$DIMTAD
 70
     0
  9
$DIMZIN
 70
     0
  9
$DIMBLK
  1

  9
$DIMASO
 70
     1
  9
$DIMSHO
 70
     1
  9
$DIMPOST
  1

  9
$DIMAPOST
  1

  9
$DIMALT
 70
     0
  9
$DIMALTD
 70
     2
  9
$DIMALTF
 40
25.4
  9
$DIMLFAC
 40
1.0
  9
$DIMTOFL
 70
     0
  9
$DIMTVP
 40
0.0
  9
$DIMTIX
 70
     0
  9
$DIMSOXD
 70
     0
  9
$DIMSAH
 70
     0
  9
$DIMBLK1
  1

  9
$DIMBLK2
  1

  9
$DIMSTYLE
  2
STANDARD_ACAD
  9
$DIMCLRD
 70
     0
  9
$DIMCLRE
 70
     0
  9
$DIMCLRT
 70
     0
  9
$DIMTFAC
 40
1.0
  9
$DIMGAP
 40
0.09
  9
$LUNITS
 70
     2
  9
$LUPREC
 70
     3
  9
$SKETCHINC
 40
0.1
  9
$FILLETRAD
 40
0.0
  9
$AUNITS
 70
     0
  9
$AUPREC
 70
     0
  9
$MENU
  1
.
  9
$ELEVATION
 40
0.0
  9
$PELEVATION
 40
0.0
  9
$THICKNESS
 40
0.0
  9
$LIMCHECK
 70
     0
  9
$CHAMFERA
 40
0.0
  9
$CHAMFERB
 40
0.0
  9
$SKPOLY
 70
     0
  9
$TDCREATE
 40
2460668.992261563
  9
$TDUPDATE
 40
2460668.992261632
  9
$TDINDWG
 40
0.0000000116
  9
$TDUSRTIMER
 40
0.0000000116
  9
$USRTIMER
 70
     1
  9
$ANGBASE
 50
0.0
  9
$ANGDIR
 70
     0
  9
$PDMODE
 70
     0
  9
$PDSIZE
 40
0.0
  9
$PLINEWID
 40
0.0
  9
$COORDS
 70
     1
  9
$SPLFRAME
 70
     0
  9
$SPLINETYPE
 70
     6
  9
$SPLINESEGS
 70
     8
  9
$ATTDIA
 70
     0
  9
$ATTREQ
 70
     1
  9
$HANDLING
 70
     1
  9
$HANDSEED
  5
294
  9
$SURFTAB1
 70
     6
  9
$SURFTAB2
 70
     6
  9
$SURFTYPE
 70
     6
  9
$SURFU
 70
     6
  9
$SURFV
 70
     6
  9
$UCSNAME
  2

  9
$UCSORG
 10
0.0
 20
0.0
 30
0.0
  9
$UCSXDIR
 10
1.0
 20
0.0
 30
0.0
  9
$UCSYDIR
 10
0.0
 20
1.0
 30
0.0
  9
$PUCSNAME
  2

  9
$PUCSORG
 10
0.0
 20
0.0
 30
0.0
  9
$PUCSXDIR
 10
1.0
 20
0.0
 30
0.0
  9
$PUCSYDIR
 10
0.0
 20
1.0
 30
0.0
  9
$USERI1
 70
     0
  9
$USERI2
 70
     0
  9
$USERI3
 70
     0
  9
$USERI4
 70
     0
  9
$USERI5
 70
     0
  9
$USERR1
 40
0.0
  9
$USERR2
 40
0.0
  9
$USERR3
 40
0.0
  9
$USERR4
 40
0.0
  9
$USERR5
 40
0.0
  9
$WORLDVIEW
 70
     1
  9
$SHADEDGE
 70
     3
  9
$SHADEDIF
 70
    70
  9
$TILEMODE
 70
     1
  9
$MAXACTVP
 70
    64
  9
$PLIMCHECK
 70
     0
  9
$PEXTMIN
 10
1.000000000000000E+20
 20
1.000000000000000E+20
 30
1.000000000000000E+20
  9
$PEXTMAX
 10
-1.000000000000000E+20
 20
-1.000000000000000E+20
 30
-1.000000000000000E+20
  9
$PLIMMIN
 10
0.0
 20
0.0
  9
$PLIMMAX
 10
12.0
 20
9.0
  9
$UNITMODE
 70
     0
  9
$VISRETAIN
 70
     1
  9
$PLINEGEN
 70
     0
  9
$PSLTSCALE
 70
     1
  0
ENDSEC
  0
SECTION
  2
TABLES
  0
TABLE
  2
VPORT
 70
     1
  0
VPORT
  2
*ACTIVE
 70
     0
 10
0.0
 20
0.0
 11
1.0
 21
1.0
 12
10.42990654205607
 22
4.5
 13
0.0
 23
0.0
 14
0.5
 24
0.5
 15
0.5
 25
0.5
 16
0.0
 26
0.0
 36
1.0
 17
0.0
 27
0.0
 37
0.0
 40
9.0
 41
1.972972972850329
 42
50.0
 43
0.0
 44
0.0
 50
0.0
 51
0.0
 71
     0
 72
   100
 73
     1
 74
     3
 75
     0
 76
     0
 77
     0
 78
     0
  0
ENDTAB
  0
TABLE
  2
LTYPE
 70
     1
  0
LTYPE
  2
CONTINUOUS
 70
     0
  3
Solid line
 72
    65
 73
     0
 40
0.0
  0
ENDTAB
  0
TABLE
  2
LAYER
 70
     2
  0
LAYER
  2
0
 70
     0
 62
     7
  6
CONTINUOUS
  0
LAYER
  2
LAYER_01
 70
     0
 62
    12
  6
CONTINUOUS
  0
ENDTAB
  0
TABLE
  2
STYLE
 70
     1
  0
STYLE
  2
STANDARD
 70
     0
 40
0.0
 41
1.0
 50
0.0
 71
     0
 42
0.2
  3
txt
  4

  0
ENDTAB
  0
TABLE
  2
VIEW
 70
     0
  0
ENDTAB
  0
TABLE
  2
UCS
 70
     0
  0
ENDTAB
  0
TABLE
  2
APPID
 70
     2
  0
APPID
  2
ACAD
 70
     0
  0
APPID
  2
RHINO
 70
     0
  0
ENDTAB
  0
TABLE
  2
DIMSTYLE
 70
     1
  0
DIMSTYLE
  2
STANDARD_ACAD
 70
     0
  3

  4

  5

  6

  7

 40
1.0
 41
0.18
 42
0.0625
 43
0.38
 44
0.18
 45
0.0
 46
0.0
 47
0.0
 48
0.0
140
0.18
141
0.09
142
0.0
143
25.4
144
1.0
145
0.0
146
1.0
147
0.09
 71
     0
 72
     0
 73
     1
 74
     1
 75
     0
 76
     0
 77
     0
 78
     0
170
     0
171
     2
172
     0
173
     0
174
     0
175
     0
176
     0
177
     0
178
     0
  0
ENDTAB
  0
ENDSEC
  0
SECTION
  2
BLOCKS
  0
BLOCK
  8
0
  2
$MODEL_SPACE
 70
     0
 10
0.0
 20
0.0
 30
0.0
  3
$MODEL_SPACE
  1

  0
ENDBLK
  5
21
  8
0
  0
BLOCK
 67
     1
  8
0
  2
$PAPER_SPACE
 70
     0
 10
0.0
 20
0.0
 30
0.0
  3
$PAPER_SPACE
  1

  0
ENDBLK
  5
1D
 67
     1
  8
0
  0
ENDSEC
  0
SECTION
  2
ENTITIES
  0
LINE
  5
60
  8
LAYER_01
 10
174.6335636013403
 20
616.9089365015323
 30
0.0
 11
174.6335636013403
 21
329.2581263831923
 31
0.0
  0
LINE
  5
61
  8
LAYER_01
 10
174.6335636013403
 20
329.2581263831923
 30
0.0
 11
391.1986265883916
 21
329.2581263831923
 31
0.0
  0
LINE
  5
62
  8
LAYER_01
 10
391.1986265883916
 20
329.2581263831923
 30
0.0
 11
391.1986265883916
 21
616.9089365015323
 31
0.0
  0
LINE
  5
63
  8
LAYER_01
 10
391.1986265883916
 20
616.9089365015323
 30
0.0
 11
174.6335636013403
 21
616.9089365015323
 31
0.0
  0
LINE
  5
64
  8
LAYER_01
 10
199.6806521835946
 20
352.4497687040559
 30
0.0
 11
212.7277407658489
 21
352.4497687040559
 31
0.0
  0
LINE
  5
65
  8
LAYER_01
 10
212.7277407658489
 20
352.4497687040559
 30
0.0
 11
212.7277407658489
 21
378.8330533457831
 31
0.0
  0
LINE
  5
66
  8
LAYER_01
 10
212.7277407658489
 20
378.8330533457831
 30
0.0
 11
182.6335636013403
 21
378.8330533457831
 31
0.0
  0
LINE
  5
67
  8
LAYER_01
 10
182.6335636013403
 20
378.8330533457831
 30
0.0
 11
182.6335636013403
 21
367.6414110249195
 31
0.0
  0
LINE
  5
68
  8
LAYER_01
 10
182.6335636013403
 20
367.6414110249195
 30
0.0
 11
199.6806521835946
 21
367.6414110249195
 31
0.0
  0
LINE
  5
69
  8
LAYER_01
 10
199.6806521835946
 20
367.6414110249195
 30
0.0
 11
199.6806521835946
 21
352.4497687040559
 31
0.0
  0
LINE
  5
6A
  8
LAYER_01
 10
297.9631836771202
 20
352.4497687040559
 30
0.0
 11
284.916095094866
 21
352.4497687040559
 31
0.0
  0
LINE
  5
6B
  8
LAYER_01
 10
284.916095094866
 20
352.4497687040559
 30
0.0
 11
284.916095094866
 21
378.8330533457831
 31
0.0
  0
LINE
  5
6C
  8
LAYER_01
 10
284.916095094866
 20
378.8330533457831
 30
0.0
 11
315.0102722593745
 21
378.8330533457831
 31
0.0
  0
LINE
  5
6D
  8
LAYER_01
 10
315.0102722593745
 20
378.8330533457831
 30
0.0
 11
315.0102722593745
 21
367.6414110249195
 31
0.0
  0
LINE
  5
6E
  8
LAYER_01
 10
315.0102722593745
 20
367.6414110249195
 30
0.0
 11
297.9631836771202
 21
367.6414110249195
 31
0.0
  0
LINE
  5
6F
  8
LAYER_01
 10
297.9631836771202
 20
367.6414110249195
 30
0.0
 11
297.9631836771202
 21
352.4497687040559
 31
0.0
  0
LINE
  5
70
  8
LAYER_01
 10
336.0573608416288
 20
352.4497687040559
 30
0.0
 11
349.1044494238831
 21
352.4497687040559
 31
0.0
  0
LINE
  5
71
  8
LAYER_01
 10
349.1044494238831
 20
352.4497687040559
 30
0.0
 11
349.1044494238831
 21
378.8330533457831
 31
0.0
  0
LINE
  5
72
  8
LAYER_01
 10
349.1044494238831
 20
378.8330533457831
 30
0.0
 11
319.0102722593745
 21
378.8330533457831
 31
0.0
  0
LINE
  5
73
  8
LAYER_01
 10
319.0102722593745
 20
378.8330533457831
 30
0.0
 11
319.0102722593745
 21
367.6414110249195
 31
0.0
  0
LINE
  5
74
  8
LAYER_01
 10
319.0102722593745
 20
367.6414110249195
 30
0.0
 11
336.0573608416288
 21
367.6414110249195
 31
0.0
  0
LINE
  5
75
  8
LAYER_01
 10
336.0573608416288
 20
367.6414110249195
 30
0.0
 11
336.0573608416288
 21
352.4497687040559
 31
0.0
  0
LINE
  5
76
  8
LAYER_01
 10
199.6806521835946
 20
455.8918891214987
 30
0.0
 11
212.7277407658489
 21
455.8918891214987
 31
0.0
  0
LINE
  5
77
  8
LAYER_01
 10
212.7277407658489
 20
455.8918891214987
 30
0.0
 11
212.7277407658489
 21
429.5086044797715
 31
0.0
  0
LINE
  5
78
  8
LAYER_01
 10
212.7277407658489
 20
429.5086044797715
 30
0.0
 11
182.6335636013403
 21
429.5086044797715
 31
0.0
  0
LINE
  5
79
  8
LAYER_01
 10
182.6335636013403
 20
429.5086044797715
 30
0.0
 11
182.6335636013403
 21
440.7002468006351
 31
0.0
  0
LINE
  5
7A
  8
LAYER_01
 10
182.6335636013403
 20
440.7002468006351
 30
0.0
 11
199.6806521835946
 21
440.7002468006351
 31
0.0
  0
LINE
  5
7B
  8
LAYER_01
 10
199.6806521835946
 20
440.7002468006351
 30
0.0
 11
199.6806521835946
 21
455.8918891214987
 31
0.0
  0
LINE
  5
7C
  8
LAYER_01
 10
297.9631836771202
 20
455.8918891214987
 30
0.0
 11
284.916095094866
 21
455.8918891214987
 31
0.0
  0
LINE
  5
7D
  8
LAYER_01
 10
284.916095094866
 20
455.8918891214987
 30
0.0
 11
284.916095094866
 21
429.5086044797715
 31
0.0
  0
LINE
  5
7E
  8
LAYER_01
 10
284.916095094866
 20
429.5086044797715
 30
0.0
 11
315.0102722593745
 21
429.5086044797715
 31
0.0
  0
LINE
  5
7F
  8
LAYER_01
 10
315.0102722593745
 20
429.5086044797715
 30
0.0
 11
315.0102722593745
 21
440.7002468006351
 31
0.0
  0
LINE
  5
80
  8
LAYER_01
 10
315.0102722593745
 20
440.7002468006351
 30
0.0
 11
297.9631836771202
 21
440.7002468006351
 31
0.0
  0
LINE
  5
81
  8
LAYER_01
 10
297.9631836771202
 20
440.7002468006351
 30
0.0
 11
297.9631836771202
 21
455.8918891214987
 31
0.0
  0
LINE
  5
82
  8
LAYER_01
 10
336.0573608416288
 20
455.8918891214987
 30
0.0
 11
349.1044494238831
 21
455.8918891214987
 31
0.0
  0
LINE
  5
83
  8
LAYER_01
 10
349.1044494238831
 20
455.8918891214987
 30
0.0
 11
349.1044494238831
 21
429.5086044797715
 31
0.0
  0
LINE
  5
84
  8
LAYER_01
 10
349.1044494238831
 20
429.5086044797715
 30
0.0
 11
319.0102722593745
 21
429.5086044797715
 31
0.0
  0
LINE
  5
85
  8
LAYER_01
 10
319.0102722593745
 20
429.5086044797715
 30
0.0
 11
319.0102722593745
 21
440.7002468006351
 31
0.0
  0
LINE
  5
86
  8
LAYER_01
 10
319.0102722593745
 20
440.7002468006351
 30
0.0
 11
336.0573608416288
 21
440.7002468006351
 31
0.0
  0
LINE
  5
87
  8
LAYER_01
 10
336.0573608416288
 20
440.7002468006351
 30
0.0
 11
336.0573608416288
 21
455.8918891214987
 31
0.0
  0
LINE
  5
88
  8
LAYER_01
 10
199.6806521835946
 20
490.2751737632259
 30
0.0
 11
212.7277407658489
 21
490.2751737632259
 31
0.0
  0
LINE
  5
89
  8
LAYER_01
 10
212.7277407658489
 20
490.2751737632259
 30
0.0
 11
212.7277407658489
 21
516.6584584049531
 31
0.0
  0
LINE
  5
8A
  8
LAYER_01
 10
212.7277407658489
 20
516.6584584049531
 30
0.0
 11
182.6335636013403
 21
516.6584584049531
 31
0.0
  0
LINE
  5
8B
  8
LAYER_01
 10
182.6335636013403
 20
516.6584584049531
 30
0.0
 11
182.6335636013403
 21
505.4668160840895
 31
0.0
  0
LINE
  5
8C
  8
LAYER_01
 10
182.6335636013403
 20
505.4668160840895
 30
0.0
 11
199.6806521835946
 21
505.4668160840895
 31
0.0
  0
LINE
  5
8D
  8
LAYER_01
 10
199.6806521835946
 20
505.4668160840895
 30
0.0
 11
199.6806521835946
 21
490.2751737632259
 31
0.0
  0
LINE
  5
8E
  8
LAYER_01
 10
297.9631836771202
 20
490.2751737632259
 30
0.0
 11
284.916095094866
 21
490.2751737632259
 31
0.0
  0
LINE
  5
8F
  8
LAYER_01
 10
284.916095094866
 20
490.2751737632259
 30
0.0
 11
284.916095094866
 21
516.6584584049531
 31
0.0
  0
LINE
  5
90
  8
LAYER_01
 10
284.916095094866
 20
516.6584584049531
 30
0.0
 11
315.0102722593745
 21
516.6584584049531
 31
0.0
  0
LINE
  5
91
  8
LAYER_01
 10
315.0102722593745
 20
516.6584584049531
 30
0.0
 11
315.0102722593745
 21
505.4668160840895
 31
0.0
  0
LINE
  5
92
  8
LAYER_01
 10
315.0102722593745
 20
505.4668160840895
 30
0.0
 11
297.9631836771202
 21
505.4668160840895
 31
0.0
  0
LINE
  5
93
  8
LAYER_01
 10
297.9631836771202
 20
505.4668160840895
 30
0.0
 11
297.9631836771202
 21
490.2751737632259
 31
0.0
  0
LINE
  5
94
  8
LAYER_01
 10
336.0573608416288
 20
490.2751737632259
 30
0.0
 11
349.1044494238831
 21
490.2751737632259
 31
0.0
  0
LINE
  5
95
  8
LAYER_01
 10
349.1044494238831
 20
490.2751737632259
 30
0.0
 11
349.1044494238831
 21
516.6584584049531
 31
0.0
  0
LINE
  5
96
  8
LAYER_01
 10
349.1044494238831
 20
516.6584584049531
 30
0.0
 11
319.0102722593745
 21
516.6584584049531
 31
0.0
  0
LINE
  5
97
  8
LAYER_01
 10
319.0102722593745
 20
516.6584584049531
 30
0.0
 11
319.0102722593745
 21
505.4668160840895
 31
0.0
  0
LINE
  5
98
  8
LAYER_01
 10
319.0102722593745
 20
505.4668160840895
 30
0.0
 11
336.0573608416288
 21
505.4668160840895
 31
0.0
  0
LINE
  5
99
  8
LAYER_01
 10
336.0573608416288
 20
505.4668160840895
 30
0.0
 11
336.0573608416288
 21
490.2751737632259
 31
0.0
  0
LINE
  5
9A
  8
LAYER_01
 10
199.6806521835946
 20
593.7172941806687
 30
0.0
 11
212.7277407658489
 21
593.7172941806687
 31
0.0
  0
LINE
  5
9B
  8
LAYER_01
 10
212.7277407658489
 20
593.7172941806687
 30
0.0
 11
212.7277407658489
 21
567.3340095389415
 31
0.0
  0
LINE
  5
9C
  8
LAYER_01
 10
212.7277407658489
 20
567.3340095389415
 30
0.0
 11
182.6335636013403
 21
567.3340095389415
 31
0.0
  0
LINE
  5
9D
  8
LAYER_01
 10
182.6335636013403
 20
567.3340095389415
 30
0.0
 11
182.6335636013403
 21
578.5256518598051
 31
0.0
  0
LINE
  5
9E
  8
LAYER_01
 10
182.6335636013403
 20
578.5256518598051
 30
0.0
 11
199.6806521835946
 21
578.5256518598051
 31
0.0
  0
LINE
  5
9F
  8
LAYER_01
 10
199.6806521835946
 20
578.5256518598051
 30
0.0
 11
199.6806521835946
 21
593.7172941806687
 31
0.0
  0
LINE
  5
A0
  8
LAYER_01
 10
297.9631836771202
 20
593.7172941806687
 30
0.0
 11
284.916095094866
 21
593.7172941806687
 31
0.0
  0
LINE
  5
A1
  8
LAYER_01
 10
284.916095094866
 20
593.7172941806687
 30
0.0
 11
284.916095094866
 21
567.3340095389415
 31
0.0
  0
LINE
  5
A2
  8
LAYER_01
 10
284.916095094866
 20
567.3340095389415
 30
0.0
 11
315.0102722593745
 21
567.3340095389415
 31
0.0
  0
LINE
  5
A3
  8
LAYER_01
 10
315.0102722593745
 20
567.3340095389415
 30
0.0
 11
315.0102722593745
 21
578.5256518598051
 31
0.0
  0
LINE
  5
A4
  8
LAYER_01
 10
315.0102722593745
 20
578.5256518598051
 30
0.0
 11
297.9631836771202
 21
578.5256518598051
 31
0.0
  0
LINE
  5
A5
  8
LAYER_01
 10
297.9631836771202
 20
578.5256518598051
 30
0.0
 11
297.9631836771202
 21
593.7172941806687
 31
0.0
  0
LINE
  5
A6
  8
LAYER_01
 10
336.0573608416288
 20
593.7172941806687
 30
0.0
 11
349.1044494238831
 21
593.7172941806687
 31
0.0
  0
LINE
  5
A7
  8
LAYER_01
 10
349.1044494238831
 20
593.7172941806687
 30
0.0
 11
349.1044494238831
 21
567.3340095389415
 31
0.0
  0
LINE
  5
A8
  8
LAYER_01
 10
349.1044494238831
 20
567.3340095389415
 30
0.0
 11
319.0102722593745
 21
567.3340095389415
 31
0.0
  0
LINE
  5
A9
  8
LAYER_01
 10
319.0102722593745
 20
567.3340095389415
 30
0.0
 11
319.0102722593745
 21
578.5256518598051
 31
0.0
  0
LINE
  5
AA
  8
LAYER_01
 10
319.0102722593745
 20
578.5256518598051
 30
0.0
 11
336.0573608416288
 21
578.5256518598051
 31
0.0
  0
LINE
  5
AB
  8
LAYER_01
 10
336.0573608416288
 20
578.5256518598051
 30
0.0
 11
336.0573608416288
 21
593.7172941806687
 31
0.0
  0
LINE
  5
AC
  8
LAYER_01
 10
216.7277407658489
 20
582.5256518598051
 30
0.0
 11
216.7277407658488
 21
593.7172941806687
 31
0.0
  0
LINE
  5
AD
  8
LAYER_01
 10
216.7277407658488
 20
593.7172941806687
 30
0.0
 11
229.7748293481031
 21
593.7172941806687
 31
0.0
  0
LINE
  5
AE
  8
LAYER_01
 10
229.7748293481031
 20
593.7172941806687
 30
0.0
 11
229.7748293481031
 21
582.5256518598051
 31
0.0
  0
LINE
  5
AF
  8
LAYER_01
 10
229.7748293481031
 20
582.5256518598051
 30
0.0
 11
216.7277407658489
 21
582.5256518598051
 31
0.0
  0
LINE
  5
B0
  8
LAYER_01
 10
233.7748293481031
 20
582.5256518598051
 30
0.0
 11
246.8219179303574
 21
582.5256518598051
 31
0.0
  0
LINE
  5
B1
  8
LAYER_01
 10
246.8219179303574
 20
582.5256518598051
 30
0.0
 11
246.8219179303574
 21
608.9089365015323
 31
0.0
  0
LINE
  5
B2
  8
LAYER_01
 10
246.8219179303574
 20
608.9089365015323
 30
0.0
 11
216.7277407658489
 21
608.9089365015323
 31
0.0
  0
LINE
  5
B3
  8
LAYER_01
 10
216.7277407658489
 20
608.9089365015323
 30
0.0
 11
216.7277407658489
 21
597.7172941806687
 31
0.0
  0
LINE
  5
B4
  8
LAYER_01
 10
216.7277407658489
 20
597.7172941806687
 30
0.0
 11
233.7748293481031
 21
597.7172941806687
 31
0.0
  0
LINE
  5
B5
  8
LAYER_01
 10
233.7748293481031
 20
597.7172941806687
 30
0.0
 11
233.7748293481031
 21
582.5256518598051
 31
0.0
  0
LINE
  5
B6
  8
LAYER_01
 10
195.6806521835946
 20
597.7172941806687
 30
0.0
 11
195.6806521835946
 21
582.5256518598051
 31
0.0
  0
LINE
  5
B7
  8
LAYER_01
 10
195.6806521835946
 20
582.5256518598051
 30
0.0
 11
182.6335636013403
 21
582.5256518598051
 31
0.0
  0
LINE
  5
B8
  8
LAYER_01
 10
182.6335636013403
 20
582.5256518598051
 30
0.0
 11
182.6335636013403
 21
608.9089365015323
 31
0.0
  0
LINE
  5
B9
  8
LAYER_01
 10
182.6335636013403
 20
608.9089365015323
 30
0.0
 11
212.7277407658489
 21
608.9089365015323
 31
0.0
  0
LINE
  5
BA
  8
LAYER_01
 10
212.7277407658489
 20
608.9089365015323
 30
0.0
 11
212.7277407658488
 21
597.7172941806687
 31
0.0
  0
LINE
  5
BB
  8
LAYER_01
 10
212.7277407658488
 20
597.7172941806687
 30
0.0
 11
195.6806521835946
 21
597.7172941806687
 31
0.0
  0
LINE
  5
BC
  8
LAYER_01
 10
182.6335636013403
 20
563.3340095389415
 30
0.0
 11
195.6806521835946
 21
563.3340095389415
 31
0.0
  0
LINE
  5
BD
  8
LAYER_01
 10
195.6806521835946
 20
563.3340095389415
 30
0.0
 11
195.6806521835946
 21
551.5920551323791
 31
0.0
  0
LINE
  5
BE
  8
LAYER_01
 10
195.6806521835946
 20
551.5920551323791
 30
0.0
 11
182.6335636013403
 21
551.5920551323791
 31
0.0
  0
LINE
  5
BF
  8
LAYER_01
 10
182.6335636013403
 20
551.5920551323791
 30
0.0
 11
182.6335636013403
 21
563.3340095389415
 31
0.0
  0
LINE
  5
C0
  8
LAYER_01
 10
216.7277407658489
 20
563.3340095389415
 30
0.0
 11
216.7277407658489
 21
578.5256518598051
 31
0.0
  0
LINE
  5
C1
  8
LAYER_01
 10
216.7277407658489
 20
578.5256518598051
 30
0.0
 11
229.7748293481031
 21
578.5256518598051
 31
0.0
  0
LINE
  5
C2
  8
LAYER_01
 10
229.7748293481031
 20
578.5256518598051
 30
0.0
 11
229.7748293481031
 21
563.3340095389415
 31
0.0
  0
LINE
  5
C3
  8
LAYER_01
 10
229.7748293481031
 20
563.3340095389415
 30
0.0
 11
246.8219179303574
 21
563.3340095389415
 31
0.0
  0
LINE
  5
C4
  8
LAYER_01
 10
246.8219179303574
 20
563.3340095389415
 30
0.0
 11
246.8219179303574
 21
551.5920551323791
 31
0.0
  0
LINE
  5
C5
  8
LAYER_01
 10
246.8219179303574
 20
551.5920551323791
 30
0.0
 11
229.7748293481031
 21
551.5920551323791
 31
0.0
  0
LINE
  5
C6
  8
LAYER_01
 10
229.7748293481031
 20
551.5920551323791
 30
0.0
 11
229.7748293481031
 21
532.4004128115155
 31
0.0
  0
LINE
  5
C7
  8
LAYER_01
 10
229.7748293481031
 20
532.4004128115155
 30
0.0
 11
246.8219179303574
 21
532.4004128115155
 31
0.0
  0
LINE
  5
C8
  8
LAYER_01
 10
246.8219179303574
 20
532.4004128115155
 30
0.0
 11
246.8219179303574
 21
520.6584584049531
 31
0.0
  0
LINE
  5
C9
  8
LAYER_01
 10
246.8219179303574
 20
520.6584584049531
 30
0.0
 11
229.7748293481031
 21
520.6584584049531
 31
0.0
  0
LINE
  5
CA
  8
LAYER_01
 10
229.7748293481031
 20
520.6584584049531
 30
0.0
 11
229.7748293481031
 21
505.4668160840895
 31
0.0
  0
LINE
  5
CB
  8
LAYER_01
 10
229.7748293481031
 20
505.4668160840895
 30
0.0
 11
216.7277407658489
 21
505.4668160840895
 31
0.0
  0
LINE
  5
CC
  8
LAYER_01
 10
216.7277407658489
 20
505.4668160840895
 30
0.0
 11
216.7277407658489
 21
520.6584584049531
 31
0.0
  0
LINE
  5
CD
  8
LAYER_01
 10
216.7277407658489
 20
520.6584584049531
 30
0.0
 11
199.6806521835946
 21
520.6584584049531
 31
0.0
  0
LINE
  5
CE
  8
LAYER_01
 10
199.6806521835946
 20
520.6584584049531
 30
0.0
 11
199.6806521835946
 21
532.4004128115155
 31
0.0
  0
LINE
  5
CF
  8
LAYER_01
 10
199.6806521835946
 20
532.4004128115155
 30
0.0
 11
216.7277407658489
 21
532.4004128115155
 31
0.0
  0
LINE
  5
D0
  8
LAYER_01
 10
216.7277407658489
 20
532.4004128115155
 30
0.0
 11
216.7277407658489
 21
551.5920551323791
 31
0.0
  0
LINE
  5
D1
  8
LAYER_01
 10
216.7277407658489
 20
551.5920551323791
 30
0.0
 11
199.6806521835946
 21
551.5920551323791
 31
0.0
  0
LINE
  5
D2
  8
LAYER_01
 10
199.6806521835946
 20
551.5920551323791
 30
0.0
 11
199.6806521835946
 21
563.3340095389415
 31
0.0
  0
LINE
  5
D3
  8
LAYER_01
 10
199.6806521835946
 20
563.3340095389415
 30
0.0
 11
216.7277407658489
 21
563.3340095389415
 31
0.0
  0
LINE
  5
D4
  8
LAYER_01
 10
233.7748293481031
 20
578.5256518598051
 30
0.0
 11
246.8219179303574
 21
578.5256518598051
 31
0.0
  0
LINE
  5
D5
  8
LAYER_01
 10
246.8219179303574
 20
578.5256518598051
 30
0.0
 11
246.8219179303574
 21
567.3340095389415
 31
0.0
  0
LINE
  5
D6
  8
LAYER_01
 10
246.8219179303574
 20
567.3340095389415
 30
0.0
 11
233.7748293481031
 21
567.3340095389415
 31
0.0
  0
LINE
  5
D7
  8
LAYER_01
 10
233.7748293481031
 20
567.3340095389415
 30
0.0
 11
233.7748293481031
 21
578.5256518598051
 31
0.0
  0
LINE
  5
D8
  8
LAYER_01
 10
216.7277407658489
 20
501.4668160840895
 30
0.0
 11
216.7277407658488
 21
490.2751737632259
 31
0.0
  0
LINE
  5
D9
  8
LAYER_01
 10
216.7277407658488
 20
490.2751737632259
 30
0.0
 11
229.7748293481031
 21
490.2751737632259
 31
0.0
  0
LINE
  5
DA
  8
LAYER_01
 10
229.7748293481031
 20
490.2751737632259
 30
0.0
 11
229.7748293481031
 21
501.4668160840895
 31
0.0
  0
LINE
  5
DB
  8
LAYER_01
 10
229.7748293481031
 20
501.4668160840895
 30
0.0
 11
216.7277407658489
 21
501.4668160840895
 31
0.0
  0
LINE
  5
DC
  8
LAYER_01
 10
233.7748293481031
 20
501.4668160840895
 30
0.0
 11
246.8219179303574
 21
501.4668160840895
 31
0.0
  0
LINE
  5
DD
  8
LAYER_01
 10
246.8219179303574
 20
501.4668160840895
 30
0.0
 11
246.8219179303574
 21
475.0835314423623
 31
0.0
  0
LINE
  5
DE
  8
LAYER_01
 10
246.8219179303574
 20
475.0835314423623
 30
0.0
 11
216.7277407658489
 21
475.0835314423623
 31
0.0
  0
LINE
  5
DF
  8
LAYER_01
 10
216.7277407658489
 20
475.0835314423623
 30
0.0
 11
216.7277407658489
 21
486.2751737632259
 31
0.0
  0
LINE
  5
E0
  8
LAYER_01
 10
216.7277407658489
 20
486.2751737632259
 30
0.0
 11
233.7748293481031
 21
486.2751737632259
 31
0.0
  0
LINE
  5
E1
  8
LAYER_01
 10
233.7748293481031
 20
486.2751737632259
 30
0.0
 11
233.7748293481031
 21
501.4668160840895
 31
0.0
  0
LINE
  5
E2
  8
LAYER_01
 10
195.6806521835946
 20
486.2751737632259
 30
0.0
 11
195.6806521835946
 21
501.4668160840895
 31
0.0
  0
LINE
  5
E3
  8
LAYER_01
 10
195.6806521835946
 20
501.4668160840895
 30
0.0
 11
182.6335636013403
 21
501.4668160840895
 31
0.0
  0
LINE
  5
E4
  8
LAYER_01
 10
182.6335636013403
 20
501.4668160840895
 30
0.0
 11
182.6335636013403
 21
475.0835314423623
 31
0.0
  0
LINE
  5
E5
  8
LAYER_01
 10
182.6335636013403
 20
475.0835314423623
 30
0.0
 11
212.7277407658489
 21
475.0835314423623
 31
0.0
  0
LINE
  5
E6
  8
LAYER_01
 10
212.7277407658489
 20
475.0835314423623
 30
0.0
 11
212.7277407658488
 21
486.2751737632259
 31
0.0
  0
LINE
  5
E7
  8
LAYER_01
 10
212.7277407658488
 20
486.2751737632259
 30
0.0
 11
195.6806521835946
 21
486.2751737632259
 31
0.0
  0
LINE
  5
E8
  8
LAYER_01
 10
182.6335636013403
 20
520.6584584049531
 30
0.0
 11
195.6806521835946
 21
520.6584584049531
 31
0.0
  0
LINE
  5
E9
  8
LAYER_01
 10
195.6806521835946
 20
520.6584584049531
 30
0.0
 11
195.6806521835946
 21
532.4004128115155
 31
0.0
  0
LINE
  5
EA
  8
LAYER_01
 10
195.6806521835946
 20
532.4004128115155
 30
0.0
 11
182.6335636013403
 21
532.4004128115155
 31
0.0
  0
LINE
  5
EB
  8
LAYER_01
 10
182.6335636013403
 20
532.4004128115155
 30
0.0
 11
182.6335636013403
 21
520.6584584049531
 31
0.0
  0
LINE
  5
EC
  8
LAYER_01
 10
233.7748293481031
 20
505.4668160840895
 30
0.0
 11
246.8219179303574
 21
505.4668160840895
 31
0.0
  0
LINE
  5
ED
  8
LAYER_01
 10
246.8219179303574
 20
505.4668160840895
 30
0.0
 11
246.8219179303574
 21
516.6584584049531
 31
0.0
  0
LINE
  5
EE
  8
LAYER_01
 10
246.8219179303574
 20
516.6584584049531
 30
0.0
 11
233.7748293481031
 21
516.6584584049531
 31
0.0
  0
LINE
  5
EF
  8
LAYER_01
 10
233.7748293481031
 20
516.6584584049531
 30
0.0
 11
233.7748293481031
 21
505.4668160840895
 31
0.0
  0
LINE
  5
F0
  8
LAYER_01
 10
353.1044494238831
 20
582.5256518598051
 30
0.0
 11
353.104449423883
 21
593.7172941806687
 31
0.0
  0
LINE
  5
F1
  8
LAYER_01
 10
353.104449423883
 20
593.7172941806687
 30
0.0
 11
366.1515380061373
 21
593.7172941806687
 31
0.0
  0
LINE
  5
F2
  8
LAYER_01
 10
366.1515380061373
 20
593.7172941806687
 30
0.0
 11
366.1515380061373
 21
582.5256518598051
 31
0.0
  0
LINE
  5
F3
  8
LAYER_01
 10
366.1515380061373
 20
582.5256518598051
 30
0.0
 11
353.1044494238831
 21
582.5256518598051
 31
0.0
  0
LINE
  5
F4
  8
LAYER_01
 10
370.1515380061373
 20
582.5256518598051
 30
0.0
 11
383.1986265883916
 21
582.5256518598051
 31
0.0
  0
LINE
  5
F5
  8
LAYER_01
 10
383.1986265883916
 20
582.5256518598051
 30
0.0
 11
383.1986265883916
 21
608.9089365015323
 31
0.0
  0
LINE
  5
F6
  8
LAYER_01
 10
383.1986265883916
 20
608.9089365015323
 30
0.0
 11
353.1044494238831
 21
608.9089365015323
 31
0.0
  0
LINE
  5
F7
  8
LAYER_01
 10
353.1044494238831
 20
608.9089365015323
 30
0.0
 11
353.1044494238831
 21
597.7172941806687
 31
0.0
  0
LINE
  5
F8
  8
LAYER_01
 10
353.1044494238831
 20
597.7172941806687
 30
0.0
 11
370.1515380061373
 21
597.7172941806687
 31
0.0
  0
LINE
  5
F9
  8
LAYER_01
 10
370.1515380061373
 20
597.7172941806687
 30
0.0
 11
370.1515380061373
 21
582.5256518598051
 31
0.0
  0
LINE
  5
FA
  8
LAYER_01
 10
332.0573608416288
 20
597.7172941806687
 30
0.0
 11
332.0573608416288
 21
582.5256518598051
 31
0.0
  0
LINE
  5
FB
  8
LAYER_01
 10
332.0573608416288
 20
582.5256518598051
 30
0.0
 11
319.0102722593745
 21
582.5256518598051
 31
0.0
  0
LINE
  5
FC
  8
LAYER_01
 10
319.0102722593745
 20
582.5256518598051
 30
0.0
 11
319.0102722593745
 21
608.9089365015323
 31
0.0
  0
LINE
  5
FD
  8
LAYER_01
 10
319.0102722593745
 20
608.9089365015323
 30
0.0
 11
349.1044494238831
 21
608.9089365015323
 31
0.0
  0
LINE
  5
FE
  8
LAYER_01
 10
349.1044494238831
 20
608.9089365015323
 30
0.0
 11
349.104449423883
 21
597.7172941806687
 31
0.0
  0
LINE
  5
FF
  8
LAYER_01
 10
349.104449423883
 20
597.7172941806687
 30
0.0
 11
332.0573608416288
 21
597.7172941806687
 31
0.0
  0
LINE
  5
100
  8
LAYER_01
 10
319.0102722593745
 20
563.3340095389415
 30
0.0
 11
332.0573608416288
 21
563.3340095389415
 31
0.0
  0
LINE
  5
101
  8
LAYER_01
 10
332.0573608416288
 20
563.3340095389415
 30
0.0
 11
332.0573608416288
 21
551.5920551323791
 31
0.0
  0
LINE
  5
102
  8
LAYER_01
 10
332.0573608416288
 20
551.5920551323791
 30
0.0
 11
319.0102722593745
 21
551.5920551323791
 31
0.0
  0
LINE
  5
103
  8
LAYER_01
 10
319.0102722593745
 20
551.5920551323791
 30
0.0
 11
319.0102722593745
 21
563.3340095389415
 31
0.0
  0
LINE
  5
104
  8
LAYER_01
 10
383.1986265883916
 20
578.5256518598051
 30
0.0
 11
383.1986265883916
 21
567.3340095389415
 31
0.0
  0
LINE
  5
105
  8
LAYER_01
 10
383.1986265883916
 20
567.3340095389415
 30
0.0
 11
370.1515380061373
 21
567.3340095389415
 31
0.0
  0
LINE
  5
106
  8
LAYER_01
 10
370.1515380061373
 20
567.3340095389415
 30
0.0
 11
370.1515380061373
 21
578.5256518598051
 31
0.0
  0
LINE
  5
107
  8
LAYER_01
 10
370.1515380061373
 20
578.5256518598051
 30
0.0
 11
383.1986265883916
 21
578.5256518598051
 31
0.0
  0
LINE
  5
108
  8
LAYER_01
 10
353.1044494238831
 20
501.4668160840895
 30
0.0
 11
353.104449423883
 21
490.2751737632259
 31
0.0
  0
LINE
  5
109
  8
LAYER_01
 10
353.104449423883
 20
490.2751737632259
 30
0.0
 11
366.1515380061373
 21
490.2751737632259
 31
0.0
  0
LINE
  5
10A
  8
LAYER_01
 10
366.1515380061373
 20
490.2751737632259
 30
0.0
 11
366.1515380061373
 21
501.4668160840895
 31
0.0
  0
LINE
  5
10B
  8
LAYER_01
 10
366.1515380061373
 20
501.4668160840895
 30
0.0
 11
353.1044494238831
 21
501.4668160840895
 31
0.0
  0
LINE
  5
10C
  8
LAYER_01
 10
370.1515380061373
 20
501.4668160840895
 30
0.0
 11
383.1986265883916
 21
501.4668160840895
 31
0.0
  0
LINE
  5
10D
  8
LAYER_01
 10
383.1986265883916
 20
501.4668160840895
 30
0.0
 11
383.1986265883916
 21
475.0835314423623
 31
0.0
  0
LINE
  5
10E
  8
LAYER_01
 10
383.1986265883916
 20
475.0835314423623
 30
0.0
 11
353.1044494238831
 21
475.0835314423623
 31
0.0
  0
LINE
  5
10F
  8
LAYER_01
 10
353.1044494238831
 20
475.0835314423623
 30
0.0
 11
353.1044494238831
 21
486.2751737632259
 31
0.0
  0
LINE
  5
110
  8
LAYER_01
 10
353.1044494238831
 20
486.2751737632259
 30
0.0
 11
370.1515380061373
 21
486.2751737632259
 31
0.0
  0
LINE
  5
111
  8
LAYER_01
 10
370.1515380061373
 20
486.2751737632259
 30
0.0
 11
370.1515380061373
 21
501.4668160840895
 31
0.0
  0
LINE
  5
112
  8
LAYER_01
 10
332.0573608416288
 20
486.2751737632259
 30
0.0
 11
332.0573608416288
 21
501.4668160840895
 31
0.0
  0
LINE
  5
113
  8
LAYER_01
 10
332.0573608416288
 20
501.4668160840895
 30
0.0
 11
319.0102722593745
 21
501.4668160840895
 31
0.0
  0
LINE
  5
114
  8
LAYER_01
 10
319.0102722593745
 20
501.4668160840895
 30
0.0
 11
319.0102722593745
 21
475.0835314423623
 31
0.0
  0
LINE
  5
115
  8
LAYER_01
 10
319.0102722593745
 20
475.0835314423623
 30
0.0
 11
349.1044494238831
 21
475.0835314423623
 31
0.0
  0
LINE
  5
116
  8
LAYER_01
 10
349.1044494238831
 20
475.0835314423623
 30
0.0
 11
349.104449423883
 21
486.2751737632259
 31
0.0
  0
LINE
  5
117
  8
LAYER_01
 10
349.104449423883
 20
486.2751737632259
 30
0.0
 11
332.0573608416288
 21
486.2751737632259
 31
0.0
  0
LINE
  5
118
  8
LAYER_01
 10
319.0102722593745
 20
520.6584584049531
 30
0.0
 11
332.0573608416288
 21
520.6584584049531
 31
0.0
  0
LINE
  5
119
  8
LAYER_01
 10
332.0573608416288
 20
520.6584584049531
 30
0.0
 11
332.0573608416288
 21
532.4004128115155
 31
0.0
  0
LINE
  5
11A
  8
LAYER_01
 10
332.0573608416288
 20
532.4004128115155
 30
0.0
 11
319.0102722593745
 21
532.4004128115155
 31
0.0
  0
LINE
  5
11B
  8
LAYER_01
 10
319.0102722593745
 20
532.4004128115155
 30
0.0
 11
319.0102722593745
 21
520.6584584049531
 31
0.0
  0
LINE
  5
11C
  8
LAYER_01
 10
383.1986265883916
 20
505.4668160840895
 30
0.0
 11
383.1986265883916
 21
516.6584584049531
 31
0.0
  0
LINE
  5
11D
  8
LAYER_01
 10
383.1986265883916
 20
516.6584584049531
 30
0.0
 11
370.1515380061373
 21
516.6584584049531
 31
0.0
  0
LINE
  5
11E
  8
LAYER_01
 10
370.1515380061373
 20
516.6584584049531
 30
0.0
 11
370.1515380061373
 21
505.4668160840895
 31
0.0
  0
LINE
  5
11F
  8
LAYER_01
 10
370.1515380061373
 20
505.4668160840895
 30
0.0
 11
383.1986265883916
 21
505.4668160840895
 31
0.0
  0
LINE
  5
120
  8
LAYER_01
 10
280.916095094866
 20
582.5256518598051
 30
0.0
 11
280.916095094866
 21
593.7172941806687
 31
0.0
  0
LINE
  5
121
  8
LAYER_01
 10
280.916095094866
 20
593.7172941806687
 30
0.0
 11
267.8690065126117
 21
593.7172941806687
 31
0.0
  0
LINE
  5
122
  8
LAYER_01
 10
267.8690065126117
 20
593.7172941806687
 30
0.0
 11
267.8690065126117
 21
582.5256518598051
 31
0.0
  0
LINE
  5
123
  8
LAYER_01
 10
267.8690065126117
 20
582.5256518598051
 30
0.0
 11
280.916095094866
 21
582.5256518598051
 31
0.0
  0
LINE
  5
124
  8
LAYER_01
 10
263.8690065126117
 20
582.5256518598051
 30
0.0
 11
250.8219179303574
 21
582.5256518598051
 31
0.0
  0
LINE
  5
125
  8
LAYER_01
 10
250.8219179303574
 20
582.5256518598051
 30
0.0
 11
250.8219179303574
 21
608.9089365015323
 31
0.0
  0
LINE
  5
126
  8
LAYER_01
 10
250.8219179303574
 20
608.9089365015323
 30
0.0
 11
280.916095094866
 21
608.9089365015323
 31
0.0
  0
LINE
  5
127
  8
LAYER_01
 10
280.916095094866
 20
608.9089365015323
 30
0.0
 11
280.916095094866
 21
597.7172941806687
 31
0.0
  0
LINE
  5
128
  8
LAYER_01
 10
280.916095094866
 20
597.7172941806687
 30
0.0
 11
263.8690065126117
 21
597.7172941806687
 31
0.0
  0
LINE
  5
129
  8
LAYER_01
 10
263.8690065126117
 20
597.7172941806687
 30
0.0
 11
263.8690065126117
 21
582.5256518598051
 31
0.0
  0
LINE
  5
12A
  8
LAYER_01
 10
301.9631836771202
 20
597.7172941806687
 30
0.0
 11
301.9631836771202
 21
582.5256518598051
 31
0.0
  0
LINE
  5
12B
  8
LAYER_01
 10
301.9631836771202
 20
582.5256518598051
 30
0.0
 11
315.0102722593745
 21
582.5256518598051
 31
0.0
  0
LINE
  5
12C
  8
LAYER_01
 10
315.0102722593745
 20
582.5256518598051
 30
0.0
 11
315.0102722593745
 21
608.9089365015323
 31
0.0
  0
LINE
  5
12D
  8
LAYER_01
 10
315.0102722593745
 20
608.9089365015323
 30
0.0
 11
284.916095094866
 21
608.9089365015323
 31
0.0
  0
LINE
  5
12E
  8
LAYER_01
 10
284.916095094866
 20
608.9089365015323
 30
0.0
 11
284.916095094866
 21
597.7172941806687
 31
0.0
  0
LINE
  5
12F
  8
LAYER_01
 10
284.916095094866
 20
597.7172941806687
 30
0.0
 11
301.9631836771202
 21
597.7172941806687
 31
0.0
  0
LINE
  5
130
  8
LAYER_01
 10
315.0102722593745
 20
563.3340095389415
 30
0.0
 11
301.9631836771202
 21
563.3340095389415
 31
0.0
  0
LINE
  5
131
  8
LAYER_01
 10
301.9631836771202
 20
563.3340095389415
 30
0.0
 11
301.9631836771202
 21
551.5920551323791
 31
0.0
  0
LINE
  5
132
  8
LAYER_01
 10
301.9631836771202
 20
551.5920551323791
 30
0.0
 11
315.0102722593745
 21
551.5920551323791
 31
0.0
  0
LINE
  5
133
  8
LAYER_01
 10
315.0102722593745
 20
551.5920551323791
 30
0.0
 11
315.0102722593745
 21
563.3340095389415
 31
0.0
  0
LINE
  5
134
  8
LAYER_01
 10
280.916095094866
 20
563.3340095389415
 30
0.0
 11
280.916095094866
 21
578.5256518598051
 31
0.0
  0
LINE
  5
135
  8
LAYER_01
 10
280.916095094866
 20
578.5256518598051
 30
0.0
 11
267.8690065126117
 21
578.5256518598051
 31
0.0
  0
LINE
  5
136
  8
LAYER_01
 10
267.8690065126117
 20
578.5256518598051
 30
0.0
 11
267.8690065126117
 21
563.3340095389415
 31
0.0
  0
LINE
  5
137
  8
LAYER_01
 10
267.8690065126117
 20
563.3340095389415
 30
0.0
 11
250.8219179303574
 21
563.3340095389415
 31
0.0
  0
LINE
  5
138
  8
LAYER_01
 10
250.8219179303574
 20
563.3340095389415
 30
0.0
 11
250.8219179303574
 21
551.5920551323791
 31
0.0
  0
LINE
  5
139
  8
LAYER_01
 10
250.8219179303574
 20
551.5920551323791
 30
0.0
 11
267.8690065126117
 21
551.5920551323791
 31
0.0
  0
LINE
  5
13A
  8
LAYER_01
 10
267.8690065126117
 20
551.5920551323791
 30
0.0
 11
267.8690065126117
 21
532.4004128115155
 31
0.0
  0
LINE
  5
13B
  8
LAYER_01
 10
267.8690065126117
 20
532.4004128115155
 30
0.0
 11
250.8219179303574
 21
532.4004128115155
 31
0.0
  0
LINE
  5
13C
  8
LAYER_01
 10
250.8219179303574
 20
532.4004128115155
 30
0.0
 11
250.8219179303574
 21
520.6584584049531
 31
0.0
  0
LINE
  5
13D
  8
LAYER_01
 10
250.8219179303574
 20
520.6584584049531
 30
0.0
 11
267.8690065126117
 21
520.6584584049531
 31
0.0
  0
LINE
  5
13E
  8
LAYER_01
 10
267.8690065126117
 20
520.6584584049531
 30
0.0
 11
267.8690065126117
 21
505.4668160840895
 31
0.0
  0
LINE
  5
13F
  8
LAYER_01
 10
267.8690065126117
 20
505.4668160840895
 30
0.0
 11
280.916095094866
 21
505.4668160840895
 31
0.0
  0
LINE
  5
140
  8
LAYER_01
 10
280.916095094866
 20
505.4668160840895
 30
0.0
 11
280.916095094866
 21
520.6584584049531
 31
0.0
  0
LINE
  5
141
  8
LAYER_01
 10
280.916095094866
 20
520.6584584049531
 30
0.0
 11
297.9631836771202
 21
520.6584584049531
 31
0.0
  0
LINE
  5
142
  8
LAYER_01
 10
297.9631836771202
 20
520.6584584049531
 30
0.0
 11
297.9631836771202
 21
532.4004128115155
 31
0.0
  0
LINE
  5
143
  8
LAYER_01
 10
297.9631836771202
 20
532.4004128115155
 30
0.0
 11
280.916095094866
 21
532.4004128115155
 31
0.0
  0
LINE
  5
144
  8
LAYER_01
 10
280.916095094866
 20
532.4004128115155
 30
0.0
 11
280.916095094866
 21
551.5920551323791
 31
0.0
  0
LINE
  5
145
  8
LAYER_01
 10
280.916095094866
 20
551.5920551323791
 30
0.0
 11
297.9631836771202
 21
551.5920551323791
 31
0.0
  0
LINE
  5
146
  8
LAYER_01
 10
297.9631836771202
 20
551.5920551323791
 30
0.0
 11
297.9631836771202
 21
563.3340095389415
 31
0.0
  0
LINE
  5
147
  8
LAYER_01
 10
297.9631836771202
 20
563.3340095389415
 30
0.0
 11
280.916095094866
 21
563.3340095389415
 31
0.0
  0
LINE
  5
148
  8
LAYER_01
 10
250.8219179303574
 20
578.5256518598051
 30
0.0
 11
250.8219179303574
 21
567.3340095389415
 31
0.0
  0
LINE
  5
149
  8
LAYER_01
 10
250.8219179303574
 20
567.3340095389415
 30
0.0
 11
263.8690065126117
 21
567.3340095389415
 31
0.0
  0
LINE
  5
14A
  8
LAYER_01
 10
263.8690065126117
 20
567.3340095389415
 30
0.0
 11
263.8690065126117
 21
578.5256518598051
 31
0.0
  0
LINE
  5
14B
  8
LAYER_01
 10
263.8690065126117
 20
578.5256518598051
 30
0.0
 11
250.8219179303574
 21
578.5256518598051
 31
0.0
  0
LINE
  5
14C
  8
LAYER_01
 10
280.916095094866
 20
501.4668160840895
 30
0.0
 11
280.916095094866
 21
490.2751737632259
 31
0.0
  0
LINE
  5
14D
  8
LAYER_01
 10
280.916095094866
 20
490.2751737632259
 30
0.0
 11
267.8690065126117
 21
490.2751737632259
 31
0.0
  0
LINE
  5
14E
  8
LAYER_01
 10
267.8690065126117
 20
490.2751737632259
 30
0.0
 11
267.8690065126117
 21
501.4668160840895
 31
0.0
  0
LINE
  5
14F
  8
LAYER_01
 10
267.8690065126117
 20
501.4668160840895
 30
0.0
 11
280.916095094866
 21
501.4668160840895
 31
0.0
  0
LINE
  5
150
  8
LAYER_01
 10
263.8690065126117
 20
501.4668160840895
 30
0.0
 11
250.8219179303574
 21
501.4668160840895
 31
0.0
  0
LINE
  5
151
  8
LAYER_01
 10
250.8219179303574
 20
501.4668160840895
 30
0.0
 11
250.8219179303574
 21
475.0835314423623
 31
0.0
  0
LINE
  5
152
  8
LAYER_01
 10
250.8219179303574
 20
475.0835314423623
 30
0.0
 11
280.916095094866
 21
475.0835314423623
 31
0.0
  0
LINE
  5
153
  8
LAYER_01
 10
280.916095094866
 20
475.0835314423623
 30
0.0
 11
280.916095094866
 21
486.2751737632259
 31
0.0
  0
LINE
  5
154
  8
LAYER_01
 10
280.916095094866
 20
486.2751737632259
 30
0.0
 11
263.8690065126117
 21
486.2751737632259
 31
0.0
  0
LINE
  5
155
  8
LAYER_01
 10
263.8690065126117
 20
486.2751737632259
 30
0.0
 11
263.8690065126117
 21
501.4668160840895
 31
0.0
  0
LINE
  5
156
  8
LAYER_01
 10
301.9631836771202
 20
486.2751737632259
 30
0.0
 11
301.9631836771202
 21
501.4668160840895
 31
0.0
  0
LINE
  5
157
  8
LAYER_01
 10
301.9631836771202
 20
501.4668160840895
 30
0.0
 11
315.0102722593745
 21
501.4668160840895
 31
0.0
  0
LINE
  5
158
  8
LAYER_01
 10
315.0102722593745
 20
501.4668160840895
 30
0.0
 11
315.0102722593745
 21
475.0835314423623
 31
0.0
  0
LINE
  5
159
  8
LAYER_01
 10
315.0102722593745
 20
475.0835314423623
 30
0.0
 11
284.916095094866
 21
475.0835314423623
 31
0.0
  0
LINE
  5
15A
  8
LAYER_01
 10
284.916095094866
 20
475.0835314423623
 30
0.0
 11
284.916095094866
 21
486.2751737632259
 31
0.0
  0
LINE
  5
15B
  8
LAYER_01
 10
284.916095094866
 20
486.2751737632259
 30
0.0
 11
301.9631836771202
 21
486.2751737632259
 31
0.0
  0
LINE
  5
15C
  8
LAYER_01
 10
315.0102722593745
 20
520.6584584049531
 30
0.0
 11
301.9631836771202
 21
520.6584584049531
 31
0.0
  0
LINE
  5
15D
  8
LAYER_01
 10
301.9631836771202
 20
520.6584584049531
 30
0.0
 11
301.9631836771202
 21
532.4004128115155
 31
0.0
  0
LINE
  5
15E
  8
LAYER_01
 10
301.9631836771202
 20
532.4004128115155
 30
0.0
 11
315.0102722593745
 21
532.4004128115155
 31
0.0
  0
LINE
  5
15F
  8
LAYER_01
 10
315.0102722593745
 20
532.4004128115155
 30
0.0
 11
315.0102722593745
 21
520.6584584049531
 31
0.0
  0
LINE
  5
160
  8
LAYER_01
 10
250.8219179303574
 20
505.4668160840895
 30
0.0
 11
250.8219179303574
 21
516.6584584049531
 31
0.0
  0
LINE
  5
161
  8
LAYER_01
 10
250.8219179303574
 20
516.6584584049531
 30
0.0
 11
263.8690065126117
 21
516.6584584049531
 31
0.0
  0
LINE
  5
162
  8
LAYER_01
 10
263.8690065126117
 20
516.6584584049531
 30
0.0
 11
263.8690065126117
 21
505.4668160840895
 31
0.0
  0
LINE
  5
163
  8
LAYER_01
 10
263.8690065126117
 20
505.4668160840895
 30
0.0
 11
250.8219179303574
 21
505.4668160840895
 31
0.0
  0
LINE
  5
164
  8
LAYER_01
 10
216.7277407658489
 20
363.6414110249195
 30
0.0
 11
216.7277407658488
 21
352.4497687040559
 31
0.0
  0
LINE
  5
165
  8
LAYER_01
 10
216.7277407658488
 20
352.4497687040559
 30
0.0
 11
229.7748293481031
 21
352.4497687040559
 31
0.0
  0
LINE
  5
166
  8
LAYER_01
 10
229.7748293481031
 20
352.4497687040559
 30
0.0
 11
229.7748293481031
 21
363.6414110249195
 31
0.0
  0
LINE
  5
167
  8
LAYER_01
 10
229.7748293481031
 20
363.6414110249195
 30
0.0
 11
216.7277407658489
 21
363.6414110249195
 31
0.0
  0
LINE
  5
168
  8
LAYER_01
 10
233.7748293481031
 20
363.6414110249195
 30
0.0
 11
246.8219179303574
 21
363.6414110249195
 31
0.0
  0
LINE
  5
169
  8
LAYER_01
 10
246.8219179303574
 20
363.6414110249195
 30
0.0
 11
246.8219179303574
 21
337.2581263831923
 31
0.0
  0
LINE
  5
16A
  8
LAYER_01
 10
246.8219179303574
 20
337.2581263831923
 30
0.0
 11
216.7277407658489
 21
337.2581263831923
 31
0.0
  0
LINE
  5
16B
  8
LAYER_01
 10
216.7277407658489
 20
337.2581263831923
 30
0.0
 11
216.7277407658489
 21
348.4497687040559
 31
0.0
  0
LINE
  5
16C
  8
LAYER_01
 10
216.7277407658489
 20
348.4497687040559
 30
0.0
 11
233.7748293481031
 21
348.4497687040559
 31
0.0
  0
LINE
  5
16D
  8
LAYER_01
 10
233.7748293481031
 20
348.4497687040559
 30
0.0
 11
233.7748293481031
 21
363.6414110249195
 31
0.0
  0
LINE
  5
16E
  8
LAYER_01
 10
195.6806521835946
 20
348.4497687040559
 30
0.0
 11
195.6806521835946
 21
363.6414110249195
 31
0.0
  0
LINE
  5
16F
  8
LAYER_01
 10
195.6806521835946
 20
363.6414110249195
 30
0.0
 11
182.6335636013403
 21
363.6414110249195
 31
0.0
  0
LINE
  5
170
  8
LAYER_01
 10
182.6335636013403
 20
363.6414110249195
 30
0.0
 11
182.6335636013403
 21
337.2581263831923
 31
0.0
  0
LINE
  5
171
  8
LAYER_01
 10
182.6335636013403
 20
337.2581263831923
 30
0.0
 11
212.7277407658489
 21
337.2581263831923
 31
0.0
  0
LINE
  5
172
  8
LAYER_01
 10
212.7277407658489
 20
337.2581263831923
 30
0.0
 11
212.7277407658488
 21
348.4497687040559
 31
0.0
  0
LINE
  5
173
  8
LAYER_01
 10
212.7277407658488
 20
348.4497687040559
 30
0.0
 11
195.6806521835946
 21
348.4497687040559
 31
0.0
  0
LINE
  5
174
  8
LAYER_01
 10
182.6335636013403
 20
382.8330533457831
 30
0.0
 11
195.6806521835946
 21
382.8330533457831
 31
0.0
  0
LINE
  5
175
  8
LAYER_01
 10
195.6806521835946
 20
382.8330533457831
 30
0.0
 11
195.6806521835946
 21
394.5750077523456
 31
0.0
  0
LINE
  5
176
  8
LAYER_01
 10
195.6806521835946
 20
394.5750077523456
 30
0.0
 11
182.6335636013403
 21
394.5750077523456
 31
0.0
  0
LINE
  5
177
  8
LAYER_01
 10
182.6335636013403
 20
394.5750077523456
 30
0.0
 11
182.6335636013403
 21
382.8330533457831
 31
0.0
  0
LINE
  5
178
  8
LAYER_01
 10
233.7748293481031
 20
367.6414110249195
 30
0.0
 11
246.8219179303574
 21
367.6414110249195
 31
0.0
  0
LINE
  5
179
  8
LAYER_01
 10
246.8219179303574
 20
367.6414110249195
 30
0.0
 11
246.8219179303574
 21
378.8330533457831
 31
0.0
  0
LINE
  5
17A
  8
LAYER_01
 10
246.8219179303574
 20
378.8330533457831
 30
0.0
 11
233.7748293481031
 21
378.8330533457831
 31
0.0
  0
LINE
  5
17B
  8
LAYER_01
 10
233.7748293481031
 20
378.8330533457831
 30
0.0
 11
233.7748293481031
 21
367.6414110249195
 31
0.0
  0
LINE
  5
17C
  8
LAYER_01
 10
216.7277407658489
 20
444.7002468006351
 30
0.0
 11
216.7277407658488
 21
455.8918891214987
 31
0.0
  0
LINE
  5
17D
  8
LAYER_01
 10
216.7277407658488
 20
455.8918891214987
 30
0.0
 11
229.7748293481031
 21
455.8918891214987
 31
0.0
  0
LINE
  5
17E
  8
LAYER_01
 10
229.7748293481031
 20
455.8918891214987
 30
0.0
 11
229.7748293481031
 21
444.7002468006351
 31
0.0
  0
LINE
  5
17F
  8
LAYER_01
 10
229.7748293481031
 20
444.7002468006351
 30
0.0
 11
216.7277407658489
 21
444.7002468006351
 31
0.0
  0
LINE
  5
180
  8
LAYER_01
 10
233.7748293481031
 20
444.7002468006351
 30
0.0
 11
246.8219179303574
 21
444.7002468006351
 31
0.0
  0
LINE
  5
181
  8
LAYER_01
 10
246.8219179303574
 20
444.7002468006351
 30
0.0
 11
246.8219179303574
 21
471.0835314423623
 31
0.0
  0
LINE
  5
182
  8
LAYER_01
 10
246.8219179303574
 20
471.0835314423623
 30
0.0
 11
216.7277407658489
 21
471.0835314423623
 31
0.0
  0
LINE
  5
183
  8
LAYER_01
 10
216.7277407658489
 20
471.0835314423623
 30
0.0
 11
216.7277407658489
 21
459.8918891214987
 31
0.0
  0
LINE
  5
184
  8
LAYER_01
 10
216.7277407658489
 20
459.8918891214987
 30
0.0
 11
233.7748293481031
 21
459.8918891214987
 31
0.0
  0
LINE
  5
185
  8
LAYER_01
 10
233.7748293481031
 20
459.8918891214987
 30
0.0
 11
233.7748293481031
 21
444.7002468006351
 31
0.0
  0
LINE
  5
186
  8
LAYER_01
 10
212.7277407658488
 20
459.8918891214987
 30
0.0
 11
195.6806521835946
 21
459.8918891214987
 31
0.0
  0
LINE
  5
187
  8
LAYER_01
 10
195.6806521835946
 20
459.8918891214987
 30
0.0
 11
195.6806521835946
 21
444.7002468006351
 31
0.0
  0
LINE
  5
188
  8
LAYER_01
 10
195.6806521835946
 20
444.7002468006351
 30
0.0
 11
182.6335636013403
 21
444.7002468006351
 31
0.0
  0
LINE
  5
189
  8
LAYER_01
 10
182.6335636013403
 20
444.7002468006351
 30
0.0
 11
182.6335636013403
 21
471.0835314423623
 31
0.0
  0
LINE
  5
18A
  8
LAYER_01
 10
182.6335636013403
 20
471.0835314423623
 30
0.0
 11
212.7277407658489
 21
471.0835314423623
 31
0.0
  0
LINE
  5
18B
  8
LAYER_01
 10
212.7277407658489
 20
471.0835314423623
 30
0.0
 11
212.7277407658488
 21
459.8918891214987
 31
0.0
  0
LINE
  5
18C
  8
LAYER_01
 10
182.6335636013403
 20
425.5086044797715
 30
0.0
 11
195.6806521835946
 21
425.5086044797716
 31
0.0
  0
LINE
  5
18D
  8
LAYER_01
 10
195.6806521835946
 20
425.5086044797716
 30
0.0
 11
195.6806521835946
 21
413.7666500732091
 31
0.0
  0
LINE
  5
18E
  8
LAYER_01
 10
195.6806521835946
 20
413.7666500732091
 30
0.0
 11
182.6335636013403
 21
413.7666500732091
 31
0.0
  0
LINE
  5
18F
  8
LAYER_01
 10
182.6335636013403
 20
413.7666500732091
 30
0.0
 11
182.6335636013403
 21
425.5086044797715
 31
0.0
  0
LINE
  5
190
  8
LAYER_01
 10
233.7748293481031
 20
440.7002468006351
 30
0.0
 11
246.8219179303574
 21
440.7002468006351
 31
0.0
  0
LINE
  5
191
  8
LAYER_01
 10
246.8219179303574
 20
440.7002468006351
 30
0.0
 11
246.8219179303574
 21
429.5086044797715
 31
0.0
  0
LINE
  5
192
  8
LAYER_01
 10
246.8219179303574
 20
429.5086044797715
 30
0.0
 11
233.7748293481031
 21
429.5086044797715
 31
0.0
  0
LINE
  5
193
  8
LAYER_01
 10
233.7748293481031
 20
429.5086044797715
 30
0.0
 11
233.7748293481031
 21
440.7002468006351
 31
0.0
  0
LINE
  5
194
  8
LAYER_01
 10
353.1044494238831
 20
363.6414110249195
 30
0.0
 11
353.104449423883
 21
352.4497687040559
 31
0.0
  0
LINE
  5
195
  8
LAYER_01
 10
353.104449423883
 20
352.4497687040559
 30
0.0
 11
366.1515380061373
 21
352.4497687040559
 31
0.0
  0
LINE
  5
196
  8
LAYER_01
 10
366.1515380061373
 20
352.4497687040559
 30
0.0
 11
366.1515380061373
 21
363.6414110249195
 31
0.0
  0
LINE
  5
197
  8
LAYER_01
 10
366.1515380061373
 20
363.6414110249195
 30
0.0
 11
353.1044494238831
 21
363.6414110249195
 31
0.0
  0
LINE
  5
198
  8
LAYER_01
 10
370.1515380061373
 20
363.6414110249195
 30
0.0
 11
383.1986265883916
 21
363.6414110249195
 31
0.0
  0
LINE
  5
199
  8
LAYER_01
 10
383.1986265883916
 20
363.6414110249195
 30
0.0
 11
383.1986265883916
 21
337.2581263831923
 31
0.0
  0
LINE
  5
19A
  8
LAYER_01
 10
383.1986265883916
 20
337.2581263831923
 30
0.0
 11
353.1044494238831
 21
337.2581263831923
 31
0.0
  0
LINE
  5
19B
  8
LAYER_01
 10
353.1044494238831
 20
337.2581263831923
 30
0.0
 11
353.1044494238831
 21
348.4497687040559
 31
0.0
  0
LINE
  5
19C
  8
LAYER_01
 10
353.1044494238831
 20
348.4497687040559
 30
0.0
 11
370.1515380061373
 21
348.4497687040559
 31
0.0
  0
LINE
  5
19D
  8
LAYER_01
 10
370.1515380061373
 20
348.4497687040559
 30
0.0
 11
370.1515380061373
 21
363.6414110249195
 31
0.0
  0
LINE
  5
19E
  8
LAYER_01
 10
349.104449423883
 20
348.4497687040559
 30
0.0
 11
332.0573608416288
 21
348.4497687040559
 31
0.0
  0
LINE
  5
19F
  8
LAYER_01
 10
332.0573608416288
 20
348.4497687040559
 30
0.0
 11
332.0573608416288
 21
363.6414110249195
 31
0.0
  0
LINE
  5
1A0
  8
LAYER_01
 10
332.0573608416288
 20
363.6414110249195
 30
0.0
 11
319.0102722593745
 21
363.6414110249195
 31
0.0
  0
LINE
  5
1A1
  8
LAYER_01
 10
319.0102722593745
 20
363.6414110249195
 30
0.0
 11
319.0102722593745
 21
337.2581263831923
 31
0.0
  0
LINE
  5
1A2
  8
LAYER_01
 10
319.0102722593745
 20
337.2581263831923
 30
0.0
 11
349.1044494238831
 21
337.2581263831923
 31
0.0
  0
LINE
  5
1A3
  8
LAYER_01
 10
349.1044494238831
 20
337.2581263831923
 30
0.0
 11
349.104449423883
 21
348.4497687040559
 31
0.0
  0
LINE
  5
1A4
  8
LAYER_01
 10
319.0102722593745
 20
382.8330533457831
 30
0.0
 11
332.0573608416288
 21
382.8330533457831
 31
0.0
  0
LINE
  5
1A5
  8
LAYER_01
 10
332.0573608416288
 20
382.8330533457831
 30
0.0
 11
332.0573608416288
 21
394.5750077523456
 31
0.0
  0
LINE
  5
1A6
  8
LAYER_01
 10
332.0573608416288
 20
394.5750077523456
 30
0.0
 11
319.0102722593745
 21
394.5750077523456
 31
0.0
  0
LINE
  5
1A7
  8
LAYER_01
 10
319.0102722593745
 20
394.5750077523456
 30
0.0
 11
319.0102722593745
 21
382.8330533457831
 31
0.0
  0
LINE
  5
1A8
  8
LAYER_01
 10
383.1986265883916
 20
367.6414110249195
 30
0.0
 11
383.1986265883916
 21
378.8330533457831
 31
0.0
  0
LINE
  5
1A9
  8
LAYER_01
 10
383.1986265883916
 20
378.8330533457831
 30
0.0
 11
370.1515380061373
 21
378.8330533457831
 31
0.0
  0
LINE
  5
1AA
  8
LAYER_01
 10
370.1515380061373
 20
378.8330533457831
 30
0.0
 11
370.1515380061373
 21
367.6414110249195
 31
0.0
  0
LINE
  5
1AB
  8
LAYER_01
 10
370.1515380061373
 20
367.6414110249195
 30
0.0
 11
383.1986265883916
 21
367.6414110249195
 31
0.0
  0
LINE
  5
1AC
  8
LAYER_01
 10
353.1044494238831
 20
444.7002468006351
 30
0.0
 11
353.104449423883
 21
455.8918891214987
 31
0.0
  0
LINE
  5
1AD
  8
LAYER_01
 10
353.104449423883
 20
455.8918891214987
 30
0.0
 11
366.1515380061373
 21
455.8918891214987
 31
0.0
  0
LINE
  5
1AE
  8
LAYER_01
 10
366.1515380061373
 20
455.8918891214987
 30
0.0
 11
366.1515380061373
 21
444.7002468006351
 31
0.0
  0
LINE
  5
1AF
  8
LAYER_01
 10
366.1515380061373
 20
444.7002468006351
 30
0.0
 11
353.1044494238831
 21
444.7002468006351
 31
0.0
  0
LINE
  5
1B0
  8
LAYER_01
 10
370.1515380061373
 20
444.7002468006351
 30
0.0
 11
383.1986265883916
 21
444.7002468006351
 31
0.0
  0
LINE
  5
1B1
  8
LAYER_01
 10
383.1986265883916
 20
444.7002468006351
 30
0.0
 11
383.1986265883916
 21
471.0835314423623
 31
0.0
  0
LINE
  5
1B2
  8
LAYER_01
 10
383.1986265883916
 20
471.0835314423623
 30
0.0
 11
353.1044494238831
 21
471.0835314423623
 31
0.0
  0
LINE
  5
1B3
  8
LAYER_01
 10
353.1044494238831
 20
471.0835314423623
 30
0.0
 11
353.1044494238831
 21
459.8918891214987
 31
0.0
  0
LINE
  5
1B4
  8
LAYER_01
 10
353.1044494238831
 20
459.8918891214987
 30
0.0
 11
370.1515380061373
 21
459.8918891214987
 31
0.0
  0
LINE
  5
1B5
  8
LAYER_01
 10
370.1515380061373
 20
459.8918891214987
 30
0.0
 11
370.1515380061373
 21
444.7002468006351
 31
0.0
  0
LINE
  5
1B6
  8
LAYER_01
 10
332.0573608416288
 20
459.8918891214987
 30
0.0
 11
332.0573608416288
 21
444.7002468006351
 31
0.0
  0
LINE
  5
1B7
  8
LAYER_01
 10
332.0573608416288
 20
444.7002468006351
 30
0.0
 11
319.0102722593745
 21
444.7002468006351
 31
0.0
  0
LINE
  5
1B8
  8
LAYER_01
 10
319.0102722593745
 20
444.7002468006351
 30
0.0
 11
319.0102722593745
 21
471.0835314423623
 31
0.0
  0
LINE
  5
1B9
  8
LAYER_01
 10
319.0102722593745
 20
471.0835314423623
 30
0.0
 11
349.1044494238831
 21
471.0835314423623
 31
0.0
  0
LINE
  5
1BA
  8
LAYER_01
 10
349.1044494238831
 20
471.0835314423623
 30
0.0
 11
349.104449423883
 21
459.8918891214987
 31
0.0
  0
LINE
  5
1BB
  8
LAYER_01
 10
349.104449423883
 20
459.8918891214987
 30
0.0
 11
332.0573608416288
 21
459.8918891214987
 31
0.0
  0
LINE
  5
1BC
  8
LAYER_01
 10
319.0102722593745
 20
425.5086044797715
 30
0.0
 11
332.0573608416288
 21
425.5086044797716
 31
0.0
  0
LINE
  5
1BD
  8
LAYER_01
 10
332.0573608416288
 20
425.5086044797716
 30
0.0
 11
332.0573608416288
 21
413.7666500732091
 31
0.0
  0
LINE
  5
1BE
  8
LAYER_01
 10
332.0573608416288
 20
413.7666500732091
 30
0.0
 11
319.0102722593745
 21
413.7666500732091
 31
0.0
  0
LINE
  5
1BF
  8
LAYER_01
 10
319.0102722593745
 20
413.7666500732091
 30
0.0
 11
319.0102722593745
 21
425.5086044797715
 31
0.0
  0
LINE
  5
1C0
  8
LAYER_01
 10
370.1515380061373
 20
440.7002468006351
 30
0.0
 11
383.1986265883916
 21
440.7002468006351
 31
0.0
  0
LINE
  5
1C1
  8
LAYER_01
 10
383.1986265883916
 20
440.7002468006351
 30
0.0
 11
383.1986265883916
 21
429.5086044797715
 31
0.0
  0
LINE
  5
1C2
  8
LAYER_01
 10
383.1986265883916
 20
429.5086044797715
 30
0.0
 11
370.1515380061373
 21
429.5086044797715
 31
0.0
  0
LINE
  5
1C3
  8
LAYER_01
 10
370.1515380061373
 20
429.5086044797715
 30
0.0
 11
370.1515380061373
 21
440.7002468006351
 31
0.0
  0
LINE
  5
1C4
  8
LAYER_01
 10
280.916095094866
 20
363.6414110249195
 30
0.0
 11
280.916095094866
 21
352.4497687040559
 31
0.0
  0
LINE
  5
1C5
  8
LAYER_01
 10
280.916095094866
 20
352.4497687040559
 30
0.0
 11
267.8690065126117
 21
352.4497687040559
 31
0.0
  0
LINE
  5
1C6
  8
LAYER_01
 10
267.8690065126117
 20
352.4497687040559
 30
0.0
 11
267.8690065126117
 21
363.6414110249195
 31
0.0
  0
LINE
  5
1C7
  8
LAYER_01
 10
267.8690065126117
 20
363.6414110249195
 30
0.0
 11
280.916095094866
 21
363.6414110249195
 31
0.0
  0
LINE
  5
1C8
  8
LAYER_01
 10
263.8690065126117
 20
363.6414110249195
 30
0.0
 11
250.8219179303574
 21
363.6414110249195
 31
0.0
  0
LINE
  5
1C9
  8
LAYER_01
 10
250.8219179303574
 20
363.6414110249195
 30
0.0
 11
250.8219179303574
 21
337.2581263831923
 31
0.0
  0
LINE
  5
1CA
  8
LAYER_01
 10
250.8219179303574
 20
337.2581263831923
 30
0.0
 11
280.916095094866
 21
337.2581263831923
 31
0.0
  0
LINE
  5
1CB
  8
LAYER_01
 10
280.916095094866
 20
337.2581263831923
 30
0.0
 11
280.916095094866
 21
348.4497687040559
 31
0.0
  0
LINE
  5
1CC
  8
LAYER_01
 10
280.916095094866
 20
348.4497687040559
 30
0.0
 11
263.8690065126117
 21
348.4497687040559
 31
0.0
  0
LINE
  5
1CD
  8
LAYER_01
 10
263.8690065126117
 20
348.4497687040559
 30
0.0
 11
263.8690065126117
 21
363.6414110249195
 31
0.0
  0
LINE
  5
1CE
  8
LAYER_01
 10
301.9631836771202
 20
348.4497687040559
 30
0.0
 11
301.9631836771202
 21
363.6414110249195
 31
0.0
  0
LINE
  5
1CF
  8
LAYER_01
 10
301.9631836771202
 20
363.6414110249195
 30
0.0
 11
315.0102722593745
 21
363.6414110249195
 31
0.0
  0
LINE
  5
1D0
  8
LAYER_01
 10
315.0102722593745
 20
363.6414110249195
 30
0.0
 11
315.0102722593745
 21
337.2581263831923
 31
0.0
  0
LINE
  5
1D1
  8
LAYER_01
 10
315.0102722593745
 20
337.2581263831923
 30
0.0
 11
284.916095094866
 21
337.2581263831923
 31
0.0
  0
LINE
  5
1D2
  8
LAYER_01
 10
284.916095094866
 20
337.2581263831923
 30
0.0
 11
284.916095094866
 21
348.4497687040559
 31
0.0
  0
LINE
  5
1D3
  8
LAYER_01
 10
284.916095094866
 20
348.4497687040559
 30
0.0
 11
301.9631836771202
 21
348.4497687040559
 31
0.0
  0
LINE
  5
1D4
  8
LAYER_01
 10
315.0102722593745
 20
382.8330533457831
 30
0.0
 11
301.9631836771202
 21
382.8330533457831
 31
0.0
  0
LINE
  5
1D5
  8
LAYER_01
 10
301.9631836771202
 20
382.8330533457831
 30
0.0
 11
301.9631836771202
 21
394.5750077523456
 31
0.0
  0
LINE
  5
1D6
  8
LAYER_01
 10
301.9631836771202
 20
394.5750077523456
 30
0.0
 11
315.0102722593745
 21
394.5750077523456
 31
0.0
  0
LINE
  5
1D7
  8
LAYER_01
 10
315.0102722593745
 20
394.5750077523456
 30
0.0
 11
315.0102722593745
 21
382.8330533457831
 31
0.0
  0
LINE
  5
1D8
  8
LAYER_01
 10
250.8219179303574
 20
367.6414110249195
 30
0.0
 11
250.8219179303574
 21
378.8330533457831
 31
0.0
  0
LINE
  5
1D9
  8
LAYER_01
 10
250.8219179303574
 20
378.8330533457831
 30
0.0
 11
263.8690065126117
 21
378.8330533457831
 31
0.0
  0
LINE
  5
1DA
  8
LAYER_01
 10
263.8690065126117
 20
378.8330533457831
 30
0.0
 11
263.8690065126117
 21
367.6414110249195
 31
0.0
  0
LINE
  5
1DB
  8
LAYER_01
 10
263.8690065126117
 20
367.6414110249195
 30
0.0
 11
250.8219179303574
 21
367.6414110249195
 31
0.0
  0
LINE
  5
1DC
  8
LAYER_01
 10
280.916095094866
 20
444.7002468006351
 30
0.0
 11
280.916095094866
 21
455.8918891214987
 31
0.0
  0
LINE
  5
1DD
  8
LAYER_01
 10
280.916095094866
 20
455.8918891214987
 30
0.0
 11
267.8690065126117
 21
455.8918891214987
 31
0.0
  0
LINE
  5
1DE
  8
LAYER_01
 10
267.8690065126117
 20
455.8918891214987
 30
0.0
 11
267.8690065126117
 21
444.7002468006351
 31
0.0
  0
LINE
  5
1DF
  8
LAYER_01
 10
267.8690065126117
 20
444.7002468006351
 30
0.0
 11
280.916095094866
 21
444.7002468006351
 31
0.0
  0
LINE
  5
1E0
  8
LAYER_01
 10
263.8690065126117
 20
444.7002468006351
 30
0.0
 11
250.8219179303574
 21
444.7002468006351
 31
0.0
  0
LINE
  5
1E1
  8
LAYER_01
 10
250.8219179303574
 20
444.7002468006351
 30
0.0
 11
250.8219179303574
 21
471.0835314423623
 31
0.0
  0
LINE
  5
1E2
  8
LAYER_01
 10
250.8219179303574
 20
471.0835314423623
 30
0.0
 11
280.916095094866
 21
471.0835314423623
 31
0.0
  0
LINE
  5
1E3
  8
LAYER_01
 10
280.916095094866
 20
471.0835314423623
 30
0.0
 11
280.916095094866
 21
459.8918891214987
 31
0.0
  0
LINE
  5
1E4
  8
LAYER_01
 10
280.916095094866
 20
459.8918891214987
 30
0.0
 11
263.8690065126117
 21
459.8918891214987
 31
0.0
  0
LINE
  5
1E5
  8
LAYER_01
 10
263.8690065126117
 20
459.8918891214987
 30
0.0
 11
263.8690065126117
 21
444.7002468006351
 31
0.0
  0
LINE
  5
1E6
  8
LAYER_01
 10
301.9631836771202
 20
459.8918891214987
 30
0.0
 11
301.9631836771202
 21
444.7002468006351
 31
0.0
  0
LINE
  5
1E7
  8
LAYER_01
 10
301.9631836771202
 20
444.7002468006351
 30
0.0
 11
315.0102722593745
 21
444.7002468006351
 31
0.0
  0
LINE
  5
1E8
  8
LAYER_01
 10
315.0102722593745
 20
444.7002468006351
 30
0.0
 11
315.0102722593745
 21
471.0835314423623
 31
0.0
  0
LINE
  5
1E9
  8
LAYER_01
 10
315.0102722593745
 20
471.0835314423623
 30
0.0
 11
284.916095094866
 21
471.0835314423623
 31
0.0
  0
LINE
  5
1EA
  8
LAYER_01
 10
284.916095094866
 20
471.0835314423623
 30
0.0
 11
284.916095094866
 21
459.8918891214987
 31
0.0
  0
LINE
  5
1EB
  8
LAYER_01
 10
284.916095094866
 20
459.8918891214987
 30
0.0
 11
301.9631836771202
 21
459.8918891214987
 31
0.0
  0
LINE
  5
1EC
  8
LAYER_01
 10
315.0102722593745
 20
425.5086044797715
 30
0.0
 11
301.9631836771202
 21
425.5086044797716
 31
0.0
  0
LINE
  5
1ED
  8
LAYER_01
 10
301.9631836771202
 20
425.5086044797716
 30
0.0
 11
301.9631836771202
 21
413.7666500732091
 31
0.0
  0
LINE
  5
1EE
  8
LAYER_01
 10
301.9631836771202
 20
413.7666500732091
 30
0.0
 11
315.0102722593745
 21
413.7666500732091
 31
0.0
  0
LINE
  5
1EF
  8
LAYER_01
 10
315.0102722593745
 20
413.7666500732091
 30
0.0
 11
315.0102722593745
 21
425.5086044797715
 31
0.0
  0
LINE
  5
1F0
  8
LAYER_01
 10
250.8219179303574
 20
440.7002468006351
 30
0.0
 11
250.8219179303574
 21
429.5086044797715
 31
0.0
  0
LINE
  5
1F1
  8
LAYER_01
 10
250.8219179303574
 20
429.5086044797715
 30
0.0
 11
263.8690065126117
 21
429.5086044797715
 31
0.0
  0
LINE
  5
1F2
  8
LAYER_01
 10
263.8690065126117
 20
429.5086044797715
 30
0.0
 11
263.8690065126117
 21
440.7002468006351
 31
0.0
  0
LINE
  5
1F3
  8
LAYER_01
 10
263.8690065126117
 20
440.7002468006351
 30
0.0
 11
250.8219179303574
 21
440.7002468006351
 31
0.0
  0
LINE
  5
1F4
  8
LAYER_01
 10
353.1044494238831
 20
563.3340095389415
 30
0.0
 11
353.1044494238831
 21
578.5256518598051
 31
0.0
  0
LINE
  5
1F5
  8
LAYER_01
 10
353.1044494238831
 20
578.5256518598051
 30
0.0
 11
366.1515380061373
 21
578.5256518598051
 31
0.0
  0
LINE
  5
1F6
  8
LAYER_01
 10
366.1515380061373
 20
578.5256518598051
 30
0.0
 11
366.1515380061373
 21
563.3340095389415
 31
0.0
  0
LINE
  5
1F7
  8
LAYER_01
 10
366.1515380061373
 20
563.3340095389415
 30
0.0
 11
383.1986265883916
 21
563.3340095389415
 31
0.0
  0
LINE
  5
1F8
  8
LAYER_01
 10
383.1986265883916
 20
563.3340095389415
 30
0.0
 11
383.1986265883916
 21
551.5920551323791
 31
0.0
  0
LINE
  5
1F9
  8
LAYER_01
 10
383.1986265883916
 20
551.5920551323791
 30
0.0
 11
366.1515380061373
 21
551.5920551323791
 31
0.0
  0
LINE
  5
1FA
  8
LAYER_01
 10
366.1515380061373
 20
551.5920551323791
 30
0.0
 11
366.1515380061373
 21
532.4004128115155
 31
0.0
  0
LINE
  5
1FB
  8
LAYER_01
 10
366.1515380061373
 20
532.4004128115155
 30
0.0
 11
383.1986265883916
 21
532.4004128115155
 31
0.0
  0
LINE
  5
1FC
  8
LAYER_01
 10
383.1986265883916
 20
532.4004128115155
 30
0.0
 11
383.1986265883916
 21
520.6584584049531
 31
0.0
  0
LINE
  5
1FD
  8
LAYER_01
 10
383.1986265883916
 20
520.6584584049531
 30
0.0
 11
366.1515380061373
 21
520.6584584049531
 31
0.0
  0
LINE
  5
1FE
  8
LAYER_01
 10
366.1515380061373
 20
520.6584584049531
 30
0.0
 11
366.1515380061373
 21
505.4668160840895
 31
0.0
  0
LINE
  5
1FF
  8
LAYER_01
 10
366.1515380061373
 20
505.4668160840895
 30
0.0
 11
353.1044494238831
 21
505.4668160840895
 31
0.0
  0
LINE
  5
200
  8
LAYER_01
 10
353.1044494238831
 20
505.4668160840895
 30
0.0
 11
353.1044494238831
 21
520.6584584049531
 31
0.0
  0
LINE
  5
201
  8
LAYER_01
 10
353.1044494238831
 20
520.6584584049531
 30
0.0
 11
336.0573608416288
 21
520.6584584049531
 31
0.0
  0
LINE
  5
202
  8
LAYER_01
 10
336.0573608416288
 20
520.6584584049531
 30
0.0
 11
336.0573608416288
 21
532.4004128115155
 31
0.0
  0
LINE
  5
203
  8
LAYER_01
 10
336.0573608416288
 20
532.4004128115155
 30
0.0
 11
353.1044494238831
 21
532.4004128115155
 31
0.0
  0
LINE
  5
204
  8
LAYER_01
 10
353.1044494238831
 20
532.4004128115155
 30
0.0
 11
353.1044494238831
 21
551.5920551323791
 31
0.0
  0
LINE
  5
205
  8
LAYER_01
 10
353.1044494238831
 20
551.5920551323791
 30
0.0
 11
336.0573608416288
 21
551.5920551323791
 31
0.0
  0
LINE
  5
206
  8
LAYER_01
 10
336.0573608416288
 20
551.5920551323791
 30
0.0
 11
336.0573608416288
 21
563.3340095389415
 31
0.0
  0
LINE
  5
207
  8
LAYER_01
 10
336.0573608416288
 20
563.3340095389415
 30
0.0
 11
353.1044494238831
 21
563.3340095389415
 31
0.0
  0
LINE
  5
208
  8
LAYER_01
 10
199.6806521835946
 20
394.5750077523455
 30
0.0
 11
199.6806521835946
 21
382.8330533457831
 31
0.0
  0
LINE
  5
209
  8
LAYER_01
 10
199.6806521835946
 20
382.8330533457831
 30
0.0
 11
216.7277407658489
 21
382.8330533457831
 31
0.0
  0
LINE
  5
20A
  8
LAYER_01
 10
216.7277407658489
 20
382.8330533457831
 30
0.0
 11
216.7277407658489
 21
367.6414110249195
 31
0.0
  0
LINE
  5
20B
  8
LAYER_01
 10
216.7277407658489
 20
367.6414110249195
 30
0.0
 11
229.7748293481031
 21
367.6414110249195
 31
0.0
  0
LINE
  5
20C
  8
LAYER_01
 10
229.7748293481031
 20
367.6414110249195
 30
0.0
 11
229.7748293481031
 21
382.8330533457831
 31
0.0
  0
LINE
  5
20D
  8
LAYER_01
 10
229.7748293481031
 20
382.8330533457831
 30
0.0
 11
246.8219179303574
 21
382.8330533457831
 31
0.0
  0
LINE
  5
20E
  8
LAYER_01
 10
246.8219179303574
 20
382.8330533457831
 30
0.0
 11
246.8219179303574
 21
394.5750077523455
 31
0.0
  0
LINE
  5
20F
  8
LAYER_01
 10
246.8219179303574
 20
394.5750077523455
 30
0.0
 11
229.7748293481031
 21
394.5750077523455
 31
0.0
  0
LINE
  5
210
  8
LAYER_01
 10
229.7748293481031
 20
394.5750077523455
 30
0.0
 11
229.7748293481031
 21
413.7666500732091
 31
0.0
  0
LINE
  5
211
  8
LAYER_01
 10
229.7748293481031
 20
413.7666500732091
 30
0.0
 11
246.8219179303574
 21
413.7666500732091
 31
0.0
  0
LINE
  5
212
  8
LAYER_01
 10
246.8219179303574
 20
413.7666500732091
 30
0.0
 11
246.8219179303574
 21
425.5086044797715
 31
0.0
  0
LINE
  5
213
  8
LAYER_01
 10
246.8219179303574
 20
425.5086044797715
 30
0.0
 11
229.7748293481031
 21
425.5086044797715
 31
0.0
  0
LINE
  5
214
  8
LAYER_01
 10
229.7748293481031
 20
425.5086044797715
 30
0.0
 11
229.7748293481031
 21
440.7002468006351
 31
0.0
  0
LINE
  5
215
  8
LAYER_01
 10
229.7748293481031
 20
440.7002468006351
 30
0.0
 11
216.7277407658489
 21
440.7002468006351
 31
0.0
  0
LINE
  5
216
  8
LAYER_01
 10
216.7277407658489
 20
440.7002468006351
 30
0.0
 11
216.7277407658489
 21
425.5086044797715
 31
0.0
  0
LINE
  5
217
  8
LAYER_01
 10
216.7277407658489
 20
425.5086044797715
 30
0.0
 11
199.6806521835946
 21
425.5086044797715
 31
0.0
  0
LINE
  5
218
  8
LAYER_01
 10
199.6806521835946
 20
425.5086044797715
 30
0.0
 11
199.6806521835946
 21
413.7666500732091
 31
0.0
  0
LINE
  5
219
  8
LAYER_01
 10
199.6806521835946
 20
413.7666500732091
 30
0.0
 11
216.7277407658489
 21
413.7666500732091
 31
0.0
  0
LINE
  5
21A
  8
LAYER_01
 10
216.7277407658489
 20
413.7666500732091
 30
0.0
 11
216.7277407658489
 21
394.5750077523455
 31
0.0
  0
LINE
  5
21B
  8
LAYER_01
 10
216.7277407658489
 20
394.5750077523455
 30
0.0
 11
199.6806521835946
 21
394.5750077523455
 31
0.0
  0
LINE
  5
21C
  8
LAYER_01
 10
336.0573608416288
 20
394.5750077523455
 30
0.0
 11
336.0573608416288
 21
382.8330533457831
 31
0.0
  0
LINE
  5
21D
  8
LAYER_01
 10
336.0573608416288
 20
382.8330533457831
 30
0.0
 11
353.1044494238831
 21
382.8330533457831
 31
0.0
  0
LINE
  5
21E
  8
LAYER_01
 10
353.1044494238831
 20
382.8330533457831
 30
0.0
 11
353.1044494238831
 21
367.6414110249195
 31
0.0
  0
LINE
  5
21F
  8
LAYER_01
 10
353.1044494238831
 20
367.6414110249195
 30
0.0
 11
366.1515380061373
 21
367.6414110249195
 31
0.0
  0
LINE
  5
220
  8
LAYER_01
 10
366.1515380061373
 20
367.6414110249195
 30
0.0
 11
366.1515380061373
 21
382.8330533457831
 31
0.0
  0
LINE
  5
221
  8
LAYER_01
 10
366.1515380061373
 20
382.8330533457831
 30
0.0
 11
383.1986265883916
 21
382.8330533457831
 31
0.0
  0
LINE
  5
222
  8
LAYER_01
 10
383.1986265883916
 20
382.8330533457831
 30
0.0
 11
383.1986265883916
 21
394.5750077523455
 31
0.0
  0
LINE
  5
223
  8
LAYER_01
 10
383.1986265883916
 20
394.5750077523455
 30
0.0
 11
366.1515380061373
 21
394.5750077523455
 31
0.0
  0
LINE
  5
224
  8
LAYER_01
 10
366.1515380061373
 20
394.5750077523455
 30
0.0
 11
366.1515380061373
 21
413.7666500732091
 31
0.0
  0
LINE
  5
225
  8
LAYER_01
 10
366.1515380061373
 20
413.7666500732091
 30
0.0
 11
383.1986265883916
 21
413.7666500732091
 31
0.0
  0
LINE
  5
226
  8
LAYER_01
 10
383.1986265883916
 20
413.7666500732091
 30
0.0
 11
383.1986265883916
 21
425.5086044797715
 31
0.0
  0
LINE
  5
227
  8
LAYER_01
 10
383.1986265883916
 20
425.5086044797715
 30
0.0
 11
366.1515380061373
 21
425.5086044797715
 31
0.0
  0
LINE
  5
228
  8
LAYER_01
 10
366.1515380061373
 20
425.5086044797715
 30
0.0
 11
366.1515380061373
 21
440.7002468006351
 31
0.0
  0
LINE
  5
229
  8
LAYER_01
 10
366.1515380061373
 20
440.7002468006351
 30
0.0
 11
353.1044494238831
 21
440.7002468006351
 31
0.0
  0
LINE
  5
22A
  8
LAYER_01
 10
353.1044494238831
 20
440.7002468006351
 30
0.0
 11
353.1044494238831
 21
425.5086044797715
 31
0.0
  0
LINE
  5
22B
  8
LAYER_01
 10
353.1044494238831
 20
425.5086044797715
 30
0.0
 11
336.0573608416288
 21
425.5086044797715
 31
0.0
  0
LINE
  5
22C
  8
LAYER_01
 10
336.0573608416288
 20
425.5086044797715
 30
0.0
 11
336.0573608416288
 21
413.7666500732091
 31
0.0
  0
LINE
  5
22D
  8
LAYER_01
 10
336.0573608416288
 20
413.7666500732091
 30
0.0
 11
353.1044494238831
 21
413.7666500732091
 31
0.0
  0
LINE
  5
22E
  8
LAYER_01
 10
353.1044494238831
 20
413.7666500732091
 30
0.0
 11
353.1044494238831
 21
394.5750077523455
 31
0.0
  0
LINE
  5
22F
  8
LAYER_01
 10
353.1044494238831
 20
394.5750077523455
 30
0.0
 11
336.0573608416288
 21
394.5750077523455
 31
0.0
  0
LINE
  5
230
  8
LAYER_01
 10
297.9631836771202
 20
394.5750077523455
 30
0.0
 11
297.9631836771202
 21
382.8330533457831
 31
0.0
  0
LINE
  5
231
  8
LAYER_01
 10
297.9631836771202
 20
382.8330533457831
 30
0.0
 11
280.916095094866
 21
382.8330533457831
 31
0.0
  0
LINE
  5
232
  8
LAYER_01
 10
280.916095094866
 20
382.8330533457831
 30
0.0
 11
280.916095094866
 21
367.6414110249195
 31
0.0
  0
LINE
  5
233
  8
LAYER_01
 10
280.916095094866
 20
367.6414110249195
 30
0.0
 11
267.8690065126117
 21
367.6414110249195
 31
0.0
  0
LINE
  5
234
  8
LAYER_01
 10
267.8690065126117
 20
367.6414110249195
 30
0.0
 11
267.8690065126117
 21
382.8330533457831
 31
0.0
  0
LINE
  5
235
  8
LAYER_01
 10
267.8690065126117
 20
382.8330533457831
 30
0.0
 11
250.8219179303574
 21
382.8330533457831
 31
0.0
  0
LINE
  5
236
  8
LAYER_01
 10
250.8219179303574
 20
382.8330533457831
 30
0.0
 11
250.8219179303574
 21
394.5750077523455
 31
0.0
  0
LINE
  5
237
  8
LAYER_01
 10
250.8219179303574
 20
394.5750077523455
 30
0.0
 11
267.8690065126117
 21
394.5750077523455
 31
0.0
  0
LINE
  5
238
  8
LAYER_01
 10
267.8690065126117
 20
394.5750077523455
 30
0.0
 11
267.8690065126117
 21
413.7666500732091
 31
0.0
  0
LINE
  5
239
  8
LAYER_01
 10
267.8690065126117
 20
413.7666500732091
 30
0.0
 11
250.8219179303574
 21
413.7666500732091
 31
0.0
  0
LINE
  5
23A
  8
LAYER_01
 10
250.8219179303574
 20
413.7666500732091
 30
0.0
 11
250.8219179303574
 21
425.5086044797715
 31
0.0
  0
LINE
  5
23B
  8
LAYER_01
 10
250.8219179303574
 20
425.5086044797715
 30
0.0
 11
267.8690065126117
 21
425.5086044797715
 31
0.0
  0
LINE
  5
23C
  8
LAYER_01
 10
267.8690065126117
 20
425.5086044797715
 30
0.0
 11
267.8690065126117
 21
440.7002468006351
 31
0.0
  0
LINE
  5
23D
  8
LAYER_01
 10
267.8690065126117
 20
440.7002468006351
 30
0.0
 11
280.916095094866
 21
440.7002468006351
 31
0.0
  0
LINE
  5
23E
  8
LAYER_01
 10
280.916095094866
 20
440.7002468006351
 30
0.0
 11
280.916095094866
 21
425.5086044797715
 31
0.0
  0
LINE
  5
23F
  8
LAYER_01
 10
280.916095094866
 20
425.5086044797715
 30
0.0
 11
297.9631836771202
 21
425.5086044797715
 31
0.0
  0
LINE
  5
240
  8
LAYER_01
 10
297.9631836771202
 20
425.5086044797715
 30
0.0
 11
297.9631836771202
 21
413.7666500732091
 31
0.0
  0
LINE
  5
241
  8
LAYER_01
 10
297.9631836771202
 20
413.7666500732091
 30
0.0
 11
280.916095094866
 21
413.7666500732091
 31
0.0
  0
LINE
  5
242
  8
LAYER_01
 10
280.916095094866
 20
413.7666500732091
 30
0.0
 11
280.916095094866
 21
394.5750077523455
 31
0.0
  0
LINE
  5
243
  8
LAYER_01
 10
280.916095094866
 20
394.5750077523455
 30
0.0
 11
297.9631836771202
 21
394.5750077523455
 31
0.0
  0
LINE
  5
244
  8
LAYER_01
 10
199.6806521835946
 20
547.5920551323791
 30
0.0
 11
212.7277407658489
 21
547.5920551323791
 31
0.0
  0
LINE
  5
245
  8
LAYER_01
 10
212.7277407658489
 20
547.5920551323791
 30
0.0
 11
212.7277407658489
 21
536.4004128115155
 31
0.0
  0
LINE
  5
246
  8
LAYER_01
 10
212.7277407658489
 20
536.4004128115155
 30
0.0
 11
199.6806521835946
 21
536.4004128115155
 31
0.0
  0
LINE
  5
247
  8
LAYER_01
 10
199.6806521835946
 20
536.4004128115155
 30
0.0
 11
199.6806521835946
 21
547.5920551323791
 31
0.0
  0
LINE
  5
248
  8
LAYER_01
 10
182.6335636013403
 20
547.5920551323791
 30
0.0
 11
195.6806521835946
 21
547.5920551323791
 31
0.0
  0
LINE
  5
249
  8
LAYER_01
 10
195.6806521835946
 20
547.5920551323791
 30
0.0
 11
195.6806521835946
 21
536.4004128115155
 31
0.0
  0
LINE
  5
24A
  8
LAYER_01
 10
195.6806521835946
 20
536.4004128115155
 30
0.0
 11
182.6335636013403
 21
536.4004128115155
 31
0.0
  0
LINE
  5
24B
  8
LAYER_01
 10
182.6335636013403
 20
536.4004128115155
 30
0.0
 11
182.6335636013403
 21
547.5920551323791
 31
0.0
  0
LINE
  5
24C
  8
LAYER_01
 10
233.7748293481031
 20
547.5920551323791
 30
0.0
 11
246.8219179303574
 21
547.5920551323791
 31
0.0
  0
LINE
  5
24D
  8
LAYER_01
 10
246.8219179303574
 20
547.5920551323791
 30
0.0
 11
246.8219179303574
 21
536.4004128115155
 31
0.0
  0
LINE
  5
24E
  8
LAYER_01
 10
246.8219179303574
 20
536.4004128115155
 30
0.0
 11
233.7748293481031
 21
536.4004128115155
 31
0.0
  0
LINE
  5
24F
  8
LAYER_01
 10
233.7748293481031
 20
536.4004128115155
 30
0.0
 11
233.7748293481031
 21
547.5920551323791
 31
0.0
  0
LINE
  5
250
  8
LAYER_01
 10
336.0573608416288
 20
547.5920551323791
 30
0.0
 11
349.1044494238831
 21
547.5920551323791
 31
0.0
  0
LINE
  5
251
  8
LAYER_01
 10
349.1044494238831
 20
547.5920551323791
 30
0.0
 11
349.1044494238831
 21
536.4004128115155
 31
0.0
  0
LINE
  5
252
  8
LAYER_01
 10
349.1044494238831
 20
536.4004128115155
 30
0.0
 11
336.0573608416288
 21
536.4004128115155
 31
0.0
  0
LINE
  5
253
  8
LAYER_01
 10
336.0573608416288
 20
536.4004128115155
 30
0.0
 11
336.0573608416288
 21
547.5920551323791
 31
0.0
  0
LINE
  5
254
  8
LAYER_01
 10
319.0102722593745
 20
547.5920551323791
 30
0.0
 11
332.0573608416288
 21
547.5920551323791
 31
0.0
  0
LINE
  5
255
  8
LAYER_01
 10
332.0573608416288
 20
547.5920551323791
 30
0.0
 11
332.0573608416288
 21
536.4004128115155
 31
0.0
  0
LINE
  5
256
  8
LAYER_01
 10
332.0573608416288
 20
536.4004128115155
 30
0.0
 11
319.0102722593745
 21
536.4004128115155
 31
0.0
  0
LINE
  5
257
  8
LAYER_01
 10
319.0102722593745
 20
536.4004128115155
 30
0.0
 11
319.0102722593745
 21
547.5920551323791
 31
0.0
  0
LINE
  5
258
  8
LAYER_01
 10
370.1515380061373
 20
547.5920551323791
 30
0.0
 11
383.1986265883916
 21
547.5920551323791
 31
0.0
  0
LINE
  5
259
  8
LAYER_01
 10
383.1986265883916
 20
547.5920551323791
 30
0.0
 11
383.1986265883916
 21
536.4004128115155
 31
0.0
  0
LINE
  5
25A
  8
LAYER_01
 10
383.1986265883916
 20
536.4004128115155
 30
0.0
 11
370.1515380061373
 21
536.4004128115155
 31
0.0
  0
LINE
  5
25B
  8
LAYER_01
 10
370.1515380061373
 20
536.4004128115155
 30
0.0
 11
370.1515380061373
 21
547.5920551323791
 31
0.0
  0
LINE
  5
25C
  8
LAYER_01
 10
297.9631836771202
 20
547.5920551323791
 30
0.0
 11
284.916095094866
 21
547.5920551323791
 31
0.0
  0
LINE
  5
25D
  8
LAYER_01
 10
284.916095094866
 20
547.5920551323791
 30
0.0
 11
284.916095094866
 21
536.4004128115155
 31
0.0
  0
LINE
  5
25E
  8
LAYER_01
 10
284.916095094866
 20
536.4004128115155
 30
0.0
 11
297.9631836771202
 21
536.4004128115155
 31
0.0
  0
LINE
  5
25F
  8
LAYER_01
 10
297.9631836771202
 20
536.4004128115155
 30
0.0
 11
297.9631836771202
 21
547.5920551323791
 31
0.0
  0
LINE
  5
260
  8
LAYER_01
 10
315.0102722593745
 20
547.5920551323791
 30
0.0
 11
301.9631836771202
 21
547.5920551323791
 31
0.0
  0
LINE
  5
261
  8
LAYER_01
 10
301.9631836771202
 20
547.5920551323791
 30
0.0
 11
301.9631836771202
 21
536.4004128115155
 31
0.0
  0
LINE
  5
262
  8
LAYER_01
 10
301.9631836771202
 20
536.4004128115155
 30
0.0
 11
315.0102722593745
 21
536.4004128115155
 31
0.0
  0
LINE
  5
263
  8
LAYER_01
 10
315.0102722593745
 20
536.4004128115155
 30
0.0
 11
315.0102722593745
 21
547.5920551323791
 31
0.0
  0
LINE
  5
264
  8
LAYER_01
 10
263.8690065126117
 20
547.5920551323791
 30
0.0
 11
250.8219179303574
 21
547.5920551323791
 31
0.0
  0
LINE
  5
265
  8
LAYER_01
 10
250.8219179303574
 20
547.5920551323791
 30
0.0
 11
250.8219179303574
 21
536.4004128115155
 31
0.0
  0
LINE
  5
266
  8
LAYER_01
 10
250.8219179303574
 20
536.4004128115155
 30
0.0
 11
263.8690065126117
 21
536.4004128115155
 31
0.0
  0
LINE
  5
267
  8
LAYER_01
 10
263.8690065126117
 20
536.4004128115155
 30
0.0
 11
263.8690065126117
 21
547.5920551323791
 31
0.0
  0
LINE
  5
268
  8
LAYER_01
 10
199.6806521835946
 20
398.5750077523455
 30
0.0
 11
212.7277407658489
 21
398.5750077523455
 31
0.0
  0
LINE
  5
269
  8
LAYER_01
 10
212.7277407658489
 20
398.5750077523455
 30
0.0
 11
212.7277407658489
 21
409.7666500732091
 31
0.0
  0
LINE
  5
26A
  8
LAYER_01
 10
212.7277407658489
 20
409.7666500732091
 30
0.0
 11
199.6806521835946
 21
409.7666500732091
 31
0.0
  0
LINE
  5
26B
  8
LAYER_01
 10
199.6806521835946
 20
409.7666500732091
 30
0.0
 11
199.6806521835946
 21
398.5750077523455
 31
0.0
  0
LINE
  5
26C
  8
LAYER_01
 10
182.6335636013403
 20
398.5750077523455
 30
0.0
 11
195.6806521835946
 21
398.5750077523455
 31
0.0
  0
LINE
  5
26D
  8
LAYER_01
 10
195.6806521835946
 20
398.5750077523455
 30
0.0
 11
195.6806521835946
 21
409.7666500732091
 31
0.0
  0
LINE
  5
26E
  8
LAYER_01
 10
195.6806521835946
 20
409.7666500732091
 30
0.0
 11
182.6335636013403
 21
409.7666500732091
 31
0.0
  0
LINE
  5
26F
  8
LAYER_01
 10
182.6335636013403
 20
409.7666500732091
 30
0.0
 11
182.6335636013403
 21
398.5750077523455
 31
0.0
  0
LINE
  5
270
  8
LAYER_01
 10
233.7748293481031
 20
398.5750077523455
 30
0.0
 11
246.8219179303574
 21
398.5750077523455
 31
0.0
  0
LINE
  5
271
  8
LAYER_01
 10
246.8219179303574
 20
398.5750077523455
 30
0.0
 11
246.8219179303574
 21
409.7666500732091
 31
0.0
  0
LINE
  5
272
  8
LAYER_01
 10
246.8219179303574
 20
409.7666500732091
 30
0.0
 11
233.7748293481031
 21
409.7666500732091
 31
0.0
  0
LINE
  5
273
  8
LAYER_01
 10
233.7748293481031
 20
409.7666500732091
 30
0.0
 11
233.7748293481031
 21
398.5750077523455
 31
0.0
  0
LINE
  5
274
  8
LAYER_01
 10
336.0573608416288
 20
398.5750077523455
 30
0.0
 11
349.1044494238831
 21
398.5750077523455
 31
0.0
  0
LINE
  5
275
  8
LAYER_01
 10
349.1044494238831
 20
398.5750077523455
 30
0.0
 11
349.1044494238831
 21
409.7666500732091
 31
0.0
  0
LINE
  5
276
  8
LAYER_01
 10
349.1044494238831
 20
409.7666500732091
 30
0.0
 11
336.0573608416288
 21
409.7666500732091
 31
0.0
  0
LINE
  5
277
  8
LAYER_01
 10
336.0573608416288
 20
409.7666500732091
 30
0.0
 11
336.0573608416288
 21
398.5750077523455
 31
0.0
  0
LINE
  5
278
  8
LAYER_01
 10
319.0102722593745
 20
398.5750077523455
 30
0.0
 11
332.0573608416288
 21
398.5750077523455
 31
0.0
  0
LINE
  5
279
  8
LAYER_01
 10
332.0573608416288
 20
398.5750077523455
 30
0.0
 11
332.0573608416288
 21
409.7666500732091
 31
0.0
  0
LINE
  5
27A
  8
LAYER_01
 10
332.0573608416288
 20
409.7666500732091
 30
0.0
 11
319.0102722593745
 21
409.7666500732091
 31
0.0
  0
LINE
  5
27B
  8
LAYER_01
 10
319.0102722593745
 20
409.7666500732091
 30
0.0
 11
319.0102722593745
 21
398.5750077523455
 31
0.0
  0
LINE
  5
27C
  8
LAYER_01
 10
370.1515380061373
 20
398.5750077523455
 30
0.0
 11
383.1986265883916
 21
398.5750077523455
 31
0.0
  0
LINE
  5
27D
  8
LAYER_01
 10
383.1986265883916
 20
398.5750077523455
 30
0.0
 11
383.1986265883916
 21
409.7666500732091
 31
0.0
  0
LINE
  5
27E
  8
LAYER_01
 10
383.1986265883916
 20
409.7666500732091
 30
0.0
 11
370.1515380061373
 21
409.7666500732091
 31
0.0
  0
LINE
  5
27F
  8
LAYER_01
 10
370.1515380061373
 20
409.7666500732091
 30
0.0
 11
370.1515380061373
 21
398.5750077523455
 31
0.0
  0
LINE
  5
280
  8
LAYER_01
 10
297.9631836771202
 20
398.5750077523455
 30
0.0
 11
284.916095094866
 21
398.5750077523455
 31
0.0
  0
LINE
  5
281
  8
LAYER_01
 10
284.916095094866
 20
398.5750077523455
 30
0.0
 11
284.916095094866
 21
409.7666500732091
 31
0.0
  0
LINE
  5
282
  8
LAYER_01
 10
284.916095094866
 20
409.7666500732091
 30
0.0
 11
297.9631836771202
 21
409.7666500732091
 31
0.0
  0
LINE
  5
283
  8
LAYER_01
 10
297.9631836771202
 20
409.7666500732091
 30
0.0
 11
297.9631836771202
 21
398.5750077523455
 31
0.0
  0
LINE
  5
284
  8
LAYER_01
 10
315.0102722593745
 20
398.5750077523455
 30
0.0
 11
301.9631836771202
 21
398.5750077523455
 31
0.0
  0
LINE
  5
285
  8
LAYER_01
 10
301.9631836771202
 20
398.5750077523455
 30
0.0
 11
301.9631836771202
 21
409.7666500732091
 31
0.0
  0
LINE
  5
286
  8
LAYER_01
 10
301.9631836771202
 20
409.7666500732091
 30
0.0
 11
315.0102722593745
 21
409.7666500732091
 31
0.0
  0
LINE
  5
287
  8
LAYER_01
 10
315.0102722593745
 20
409.7666500732091
 30
0.0
 11
315.0102722593745
 21
398.5750077523455
 31
0.0
  0
LINE
  5
288
  8
LAYER_01
 10
263.8690065126117
 20
398.5750077523455
 30
0.0
 11
250.8219179303574
 21
398.5750077523455
 31
0.0
  0
LINE
  5
289
  8
LAYER_01
 10
250.8219179303574
 20
398.5750077523455
 30
0.0
 11
250.8219179303574
 21
409.7666500732091
 31
0.0
  0
LINE
  5
28A
  8
LAYER_01
 10
250.8219179303574
 20
409.7666500732091
 30
0.0
 11
263.8690065126117
 21
409.7666500732091
 31
0.0
  0
LINE
  5
28B
  8
LAYER_01
 10
263.8690065126117
 20
409.7666500732091
 30
0.0
 11
263.8690065126117
 21
398.5750077523455
 31
0.0
  0
ENDSEC
  0
EOF
