  0
SECTION
  2
HEADER
  9
$ACADVER
  1
AC1009
  9
$DWGCODEPAGE
  3
ansi_1252
  9
$INSBASE
 10
0.0
 20
0.0
 30
0.0
  9
$EXTMIN
 10
1.000000000000000E+20
 20
1.000000000000000E+20
 30
1.000000000000000E+20
  9
$EXTMAX
 10
-1.000000000000000E+20
 20
-1.000000000000000E+20
 30
-1.000000000000000E+20
  9
$LIMMIN
 10
0.0
 20
0.0
  9
$LIMMAX
 10
12.0
 20
9.0
  9
$ORTHOMODE
 70
     0
  9
$REGENMODE
 70
     1
  9
$FILLMODE
 70
     1
  9
$QTEXTMODE
 70
     0
  9
$MIRRTEXT
 70
     1
  9
$DRAGMODE
 70
     2
  9
$LTSCALE
 40
1.0
  9
$OSMODE
 70
    37
  9
$ATTMODE
 70
     1
  9
$TEXTSIZE
 40
0.2
  9
$TRACEWID
 40
0.05
  9
$TEXTSTYLE
  7
STANDARD
  9
$CLAYER
  8
LAYER_01
  9
$CELTYPE
  6
BYLAYER
  9
$CECOLOR
 62
   256
  9
$DIMSCALE
 40
1.0
  9
$DIMASZ
 40
0.18
  9
$DIMEXO
 40
0.0625
  9
$DIMDLI
 40
0.38
  9
$DIMRND
 40
0.0
  9
$DIMDLE
 40
0.0
  9
$DIMEXE
 40
0.18
  9
$DIMTP
 40
0.0
  9
$DIMTM
 40
0.0
  9
$DIMTXT
 40
0.18
  9
$DIMCEN
 40
0.09
  9
$DIMTSZ
 40
0.0
  9
$DIMTOL
 70
     0
  9
$DIMLIM
 70
     0
  9
$DIMTIH
 70
     1
  9
$DIMTOH
 70
     1
  9
$DIMSE1
 70
     0
  9
$DIMSE2
 70
     0
  9
$DIMTAD
 70
     0
  9
$DIMZIN
 70
     0
  9
$DIMBLK
  1

  9
$DIMASO
 70
     1
  9
$DIMSHO
 70
     1
  9
$DIMPOST
  1

  9
$DIMAPOST
  1

  9
$DIMALT
 70
     0
  9
$DIMALTD
 70
     2
  9
$DIMALTF
 40
25.4
  9
$DIMLFAC
 40
1.0
  9
$DIMTOFL
 70
     0
  9
$DIMTVP
 40
0.0
  9
$DIMTIX
 70
     0
  9
$DIMSOXD
 70
     0
  9
$DIMSAH
 70
     0
  9
$DIMBLK1
  1

  9
$DIMBLK2
  1

  9
$DIMSTYLE
  2
STANDARD_ACAD
  9
$DIMCLRD
 70
     0
  9
$DIMCLRE
 70
     0
  9
$DIMCLRT
 70
     0
  9
$DIMTFAC
 40
1.0
  9
$DIMGAP
 40
0.09
  9
$LUNITS
 70
     2
  9
$LUPREC
 70
     3
  9
$SKETCHINC
 40
0.1
  9
$FILLETRAD
 40
0.5
  9
$AUNITS
 70
     0
  9
$AUPREC
 70
     0
  9
$MENU
  1
.
  9
$ELEVATION
 40
0.0
  9
$PELEVATION
 40
0.0
  9
$THICKNESS
 40
0.0
  9
$LIMCHECK
 70
     0
  9
$CHAMFERA
 40
0.0
  9
$CHAMFERB
 40
0.0
  9
$SKPOLY
 70
     0
  9
$TDCREATE
 40
2459833.982860127
  9
$TDUPDATE
 40
2459833.982860185
  9
$TDINDWG
 40
0.0000000116
  9
$TDUSRTIMER
 40
0.0000000116
  9
$USRTIMER
 70
     1
  9
$ANGBASE
 50
0.0
  9
$ANGDIR
 70
     0
  9
$PDMODE
 70
     0
  9
$PDSIZE
 40
0.0
  9
$PLINEWID
 40
0.0
  9
$COORDS
 70
     1
  9
$SPLFRAME
 70
     0
  9
$SPLINETYPE
 70
     6
  9
$SPLINESEGS
 70
     8
  9
$ATTDIA
 70
     0
  9
$ATTREQ
 70
     1
  9
$HANDLING
 70
     1
  9
$HANDSEED
  5
2B3
  9
$SURFTAB1
 70
     6
  9
$SURFTAB2
 70
     6
  9
$SURFTYPE
 70
     6
  9
$SURFU
 70
     6
  9
$SURFV
 70
     6
  9
$UCSNAME
  2

  9
$UCSORG
 10
0.0
 20
0.0
 30
0.0
  9
$UCSXDIR
 10
1.0
 20
0.0
 30
0.0
  9
$UCSYDIR
 10
0.0
 20
1.0
 30
0.0
  9
$PUCSNAME
  2

  9
$PUCSORG
 10
0.0
 20
0.0
 30
0.0
  9
$PUCSXDIR
 10
1.0
 20
0.0
 30
0.0
  9
$PUCSYDIR
 10
0.0
 20
1.0
 30
0.0
  9
$USERI1
 70
     0
  9
$USERI2
 70
     0
  9
$USERI3
 70
     0
  9
$USERI4
 70
     0
  9
$USERI5
 70
     0
  9
$USERR1
 40
0.0
  9
$USERR2
 40
0.0
  9
$USERR3
 40
0.0
  9
$USERR4
 40
0.0
  9
$USERR5
 40
0.0
  9
$WORLDVIEW
 70
     1
  9
$SHADEDGE
 70
     3
  9
$SHADEDIF
 70
    70
  9
$TILEMODE
 70
     1
  9
$MAXACTVP
 70
    64
  9
$PLIMCHECK
 70
     0
  9
$PEXTMIN
 10
1.000000000000000E+20
 20
1.000000000000000E+20
 30
1.000000000000000E+20
  9
$PEXTMAX
 10
-1.000000000000000E+20
 20
-1.000000000000000E+20
 30
-1.000000000000000E+20
  9
$PLIMMIN
 10
0.0
 20
0.0
  9
$PLIMMAX
 10
12.0
 20
9.0
  9
$UNITMODE
 70
     0
  9
$VISRETAIN
 70
     1
  9
$PLINEGEN
 70
     0
  9
$PSLTSCALE
 70
     1
  0
ENDSEC
  0
SECTION
  2
TABLES
  0
TABLE
  2
VPORT
 70
     1
  0
VPORT
  2
*ACTIVE
 70
     0
 10
0.0
 20
0.0
 11
1.0
 21
1.0
 12
10.42990654205607
 22
4.5
 13
0.0
 23
0.0
 14
0.5
 24
0.5
 15
0.5
 25
0.5
 16
0.0
 26
0.0
 36
1.0
 17
0.0
 27
0.0
 37
0.0
 40
9.0
 41
1.972972972850329
 42
50.0
 43
0.0
 44
0.0
 50
0.0
 51
0.0
 71
     0
 72
   100
 73
     1
 74
     3
 75
     0
 76
     0
 77
     0
 78
     0
  0
ENDTAB
  0
TABLE
  2
LTYPE
 70
     1
  0
LTYPE
  2
CONTINUOUS
 70
     0
  3
Solid line
 72
    65
 73
     0
 40
0.0
  0
ENDTAB
  0
TABLE
  2
LAYER
 70
     2
  0
LAYER
  2
0
 70
     0
 62
     7
  6
CONTINUOUS
  0
LAYER
  2
LAYER_01
 70
     0
 62
     7
  6
CONTINUOUS
  0
ENDTAB
  0
TABLE
  2
STYLE
 70
     1
  0
STYLE
  2
STANDARD
 70
     0
 40
0.0
 41
1.0
 50
0.0
 71
     0
 42
0.2
  3
txt
  4

  0
ENDTAB
  0
TABLE
  2
VIEW
 70
     0
  0
ENDTAB
  0
TABLE
  2
UCS
 70
     0
  0
ENDTAB
  0
TABLE
  2
APPID
 70
     2
  0
APPID
  2
ACAD
 70
     0
  0
APPID
  2
RHINO
 70
     0
  0
ENDTAB
  0
TABLE
  2
DIMSTYLE
 70
     1
  0
DIMSTYLE
  2
STANDARD_ACAD
 70
     0
  3

  4

  5

  6

  7

 40
1.0
 41
0.18
 42
0.0625
 43
0.38
 44
0.18
 45
0.0
 46
0.0
 47
0.0
 48
0.0
140
0.18
141
0.09
142
0.0
143
25.4
144
1.0
145
0.0
146
1.0
147
0.09
 71
     0
 72
     0
 73
     1
 74
     1
 75
     0
 76
     0
 77
     0
 78
     0
170
     0
171
     2
172
     0
173
     0
174
     0
175
     0
176
     0
177
     0
178
     0
  0
ENDTAB
  0
ENDSEC
  0
SECTION
  2
BLOCKS
  0
BLOCK
  8
0
  2
$MODEL_SPACE
 70
     0
 10
0.0
 20
0.0
 30
0.0
  3
$MODEL_SPACE
  1

  0
ENDBLK
  5
21
  8
0
  0
BLOCK
 67
     1
  8
0
  2
$PAPER_SPACE
 70
     0
 10
0.0
 20
0.0
 30
0.0
  3
$PAPER_SPACE
  1

  0
ENDBLK
  5
1D
 67
     1
  8
0
  0
ENDSEC
  0
SECTION
  2
ENTITIES
  0
POLYLINE
  5
70
  8
LAYER_01
 66
     1
 10
0.0
 20
0.0
 30
0.0
 70
     1
  0
VERTEX
  5
71
  8
LAYER_01
 10
-2464.315436765869
 20
1051.39277577919
 30
0.0
 42
0.1291066802958344
  0
VERTEX
  5
72
  8
LAYER_01
 10
-2426.023915529089
 20
998.7523999596335
 30
0.0
 42
-0.3956549067175207
  0
VERTEX
  5
73
  8
LAYER_01
 10
-2272.578670728317
 20
1019.117678115949
 30
0.0
 42
-0.1536633764195374
  0
VERTEX
  5
74
  8
LAYER_01
 10
-2290.816852496338
 20
1108.4483692123
 30
0.0
 42
-0.0854294259275845
  0
VERTEX
  5
75
  8
LAYER_01
 10
-2316.235318675513
 20
1137.554902821812
 30
0.0
 42
-0.7104165458656934
  0
VERTEX
  5
76
  8
LAYER_01
 10
-2389.697342768239
 20
1095.384188757554
 30
0.0
 42
-0.9598486164894736
  0
SEQEND
  5
77
  8
LAYER_01
  0
POLYLINE
  5
78
  8
LAYER_01
 66
     1
 10
0.0
 20
0.0
 30
0.0
 70
     1
  0
VERTEX
  5
79
  8
LAYER_01
 10
-1265.182602442984
 20
786.286092536727
 30
0.0
 42
0.2064074948415421
  0
VERTEX
  5
7A
  8
LAYER_01
 10
-1259.535407960288
 20
697.0239658586688
 30
0.0
 42
0.1696054022179629
  0
SEQEND
  5
7B
  8
LAYER_01
  0
POLYLINE
  5
7C
  8
LAYER_01
 66
     1
 10
0.0
 20
0.0
 30
0.0
 70
     1
  0
VERTEX
  5
7D
  8
LAYER_01
 10
-2412.507328879094
 20
981.3102951970782
 30
0.0
 42
0.0364676515814764
  0
VERTEX
  5
7E
  8
LAYER_01
 10
-2419.589507031909
 20
969.9755453885479
 30
0.0
 42
0.2907693116203491
  0
VERTEX
  5
7F
  8
LAYER_01
 10
-2260.787999975559
 20
976.0079014199207
 30
0.0
 42
0.0364676515815035
  0
VERTEX
  5
80
  8
LAYER_01
 10
-2268.709668685215
 20
986.7727035762383
 30
0.0
 42
-0.2891305004653987
  0
SEQEND
  5
81
  8
LAYER_01
  0
POLYLINE
  5
82
  8
LAYER_01
 66
     1
 10
0.0
 20
0.0
 30
0.0
 70
     1
  0
VERTEX
  5
83
  8
LAYER_01
 10
-2399.720739742622
 20
1107.848131547066
 30
0.0
 42
0.629521721622934
  0
VERTEX
  5
84
  8
LAYER_01
 10
-2471.233298369491
 20
1076.277280580665
 30
0.0
 42
-0.5027304555120843
  0
VERTEX
  5
85
  8
LAYER_01
 10
-2329.301266365429
 20
1225.174548319873
 30
0.0
 42
0.1500587736404614
  0
VERTEX
  5
86
  8
LAYER_01
 10
-2326.19042187473
 20
1158.37976471207
 30
0.0
 42
0.9009974706827426
  0
SEQEND
  5
87
  8
LAYER_01
  0
POLYLINE
  5
88
  8
LAYER_01
 66
     1
 10
0.0
 20
0.0
 30
0.0
 70
     1
  0
VERTEX
  5
89
  8
LAYER_01
 10
-1335.492703051864
 20
969.5078464121486
 30
0.0
 42
-0.1498545855686569
  0
VERTEX
  5
8A
  8
LAYER_01
 10
-1295.001664146606
 20
953.8394405914272
 30
0.0
 42
0.1100989598187692
  0
VERTEX
  5
8B
  8
LAYER_01
 10
-1284.860073703895
 20
989.9385624169333
 30
0.0
 42
-0.0998537407562859
  0
SEQEND
  5
8C
  8
LAYER_01
  0
POLYLINE
  5
8D
  8
LAYER_01
 66
     1
 10
0.0
 20
0.0
 30
0.0
 70
     1
  0
VERTEX
  5
8E
  8
LAYER_01
 10
-2389.740839009082
 20
851.0873959863868
 30
0.0
 42
0.3034357085612093
  0
VERTEX
  5
8F
  8
LAYER_01
 10
-2287.773154716992
 20
850.6738084199759
 30
0.0
 42
0.2374493030214485
  0
SEQEND
  5
90
  8
LAYER_01
  0
POLYLINE
  5
91
  8
LAYER_01
 66
     1
 10
0.0
 20
0.0
 30
0.0
 70
     1
  0
VERTEX
  5
92
  8
LAYER_01
 10
-1469.226427285242
 20
980.8725819733841
 30
0.0
 42
-0.124437538872609
  0
VERTEX
  5
93
  8
LAYER_01
 10
-1493.995791704141
 20
932.4469472720716
 30
0.0
 42
-0.3067820936247442
  0
VERTEX
  5
94
  8
LAYER_01
 10
-1446.718400174583
 20
930.5380107625123
 30
0.0
 42
-0.1416316265741777
  0
SEQEND
  5
95
  8
LAYER_01
  0
POLYLINE
  5
96
  8
LAYER_01
 66
     1
 10
0.0
 20
0.0
 30
0.0
 70
     1
  0
VERTEX
  5
97
  8
LAYER_01
 10
-1364.435843779081
 20
1222.494648318267
 30
0.0
 42
-0.3186350767147951
  0
VERTEX
  5
98
  8
LAYER_01
 10
-1467.98756593027
 20
1148.639470418975
 30
0.0
 42
-0.3027026569357221
  0
SEQEND
  5
99
  8
LAYER_01
  0
POLYLINE
  5
9A
  8
LAYER_01
 66
     1
 10
0.0
 20
0.0
 30
0.0
 70
     1
  0
VERTEX
  5
9B
  8
LAYER_01
 10
-1304.034173154415
 20
1102.407598247584
 30
0.0
 42
0.0541322887657147
  0
VERTEX
  5
9C
  8
LAYER_01
 10
-1307.043497646002
 20
1070.649171335942
 30
0.0
 42
0.0837894239327486
  0
VERTEX
  5
9D
  8
LAYER_01
 10
-1335.525879399009
 20
1087.398047764344
 30
0.0
 42
0.1924085437370934
  0
SEQEND
  5
9E
  8
LAYER_01
  0
POLYLINE
  5
9F
  8
LAYER_01
 66
     1
 10
0.0
 20
0.0
 30
0.0
 70
     1
  0
VERTEX
  5
A0
  8
LAYER_01
 10
-2312.143989262396
 20
1221.865148903601
 30
0.0
 42
0.2676464291929455
  0
VERTEX
  5
A1
  8
LAYER_01
 10
-2287.303965790903
 20
1128.740802760419
 30
0.0
 42
-0.1152129029420282
  0
VERTEX
  5
A2
  8
LAYER_01
 10
-2256.109155519262
 20
1190.35052595679
 30
0.0
 42
0.1274566195428534
  0
SEQEND
  5
A3
  8
LAYER_01
  0
POLYLINE
  5
A4
  8
LAYER_01
 66
     1
 10
0.0
 20
0.0
 30
0.0
 70
     1
  0
VERTEX
  5
A5
  8
LAYER_01
 10
-1300.126741949592
 20
1064.254075518989
 30
0.0
 42
-0.0738747826546781
  0
VERTEX
  5
A6
  8
LAYER_01
 10
-1282.945877654734
 20
1040.671413664087
 30
0.0
 42
-0.2444847918884564
  0
VERTEX
  5
A7
  8
LAYER_01
 10
-1256.499036765897
 20
1155.524743792574
 30
0.0
 42
0.0310942995504006
  0
VERTEX
  5
A8
  8
LAYER_01
 10
-1263.212927740152
 20
1168.092560420476
 30
0.0
 42
0.2033641699895285
  0
SEQEND
  5
A9
  8
LAYER_01
  0
POLYLINE
  5
AA
  8
LAYER_01
 66
     1
 10
0.0
 20
0.0
 30
0.0
 70
     1
  0
VERTEX
  5
AB
  8
LAYER_01
 10
-1491.349137189119
 20
789.422521093628
 30
0.0
 42
-0.0311414404255541
  0
VERTEX
  5
AC
  8
LAYER_01
 10
-1483.628456840959
 20
801.5596960120696
 30
0.0
 42
-0.316089255057234
  0
VERTEX
  5
AD
  8
LAYER_01
 10
-1478.776636757622
 20
659.3673408004333
 30
0.0
 42
-0.0311414404255607
  0
VERTEX
  5
AE
  8
LAYER_01
 10
-1487.306674592387
 20
670.9500164229664
 30
0.0
 42
0.2911613166067764
  0
SEQEND
  5
AF
  8
LAYER_01
  0
POLYLINE
  5
B0
  8
LAYER_01
 66
     1
 10
0.0
 20
0.0
 30
0.0
 70
     1
  0
VERTEX
  5
B1
  8
LAYER_01
 10
-1499.810183173863
 20
653.7630914728511
 30
0.0
 42
0.0316439601801314
  0
VERTEX
  5
B2
  8
LAYER_01
 10
-1491.22726485366
 20
664.7747787356341
 30
0.0
 42
0.0286058348150419
  0
VERTEX
  5
B3
  8
LAYER_01
 10
-1482.714108965183
 20
653.6868625357222
 30
0.0
 42
-0.0273582816025849
  0
VERTEX
  5
B4
  8
LAYER_01
 10
-1491.316220696627
 20
643.2376768295038
 30
0.0
 42
-0.0249461301467777
  0
SEQEND
  5
B5
  8
LAYER_01
  0
POLYLINE
  5
B6
  8
LAYER_01
 66
     1
 10
0.0
 20
0.0
 30
0.0
 70
     1
  0
VERTEX
  5
B7
  8
LAYER_01
 10
-1494.834978833659
 20
782.5781659432678
 30
0.0
 42
-0.2720359839047743
  0
VERTEX
  5
B8
  8
LAYER_01
 10
-1491.250945195396
 20
677.5408448083278
 30
0.0
 42
-0.2404489550002915
  0
SEQEND
  5
B9
  8
LAYER_01
  0
POLYLINE
  5
BA
  8
LAYER_01
 66
     1
 10
0.0
 20
0.0
 30
0.0
 70
     1
  0
VERTEX
  5
BB
  8
LAYER_01
 10
-1497.238333008638
 20
816.7971005114883
 30
0.0
 42
0.0249461301467485
  0
VERTEX
  5
BC
  8
LAYER_01
 10
-1504.995088714327
 20
805.7171865722318
 30
0.0
 42
-0.0316439601801216
  0
VERTEX
  5
BD
  8
LAYER_01
 10
-1495.681535734131
 20
795.3161542124277
 30
0.0
 42
-0.0286058348150503
  0
VERTEX
  5
BE
  8
LAYER_01
 10
-1487.943973439684
 20
806.9585697082487
 30
0.0
 42
0.0273582816025659
  0
SEQEND
  5
BF
  8
LAYER_01
  0
POLYLINE
  5
C0
  8
LAYER_01
 66
     1
 10
0.0
 20
0.0
 30
0.0
 70
     1
  0
VERTEX
  5
C1
  8
LAYER_01
 10
-1271.80811114798
 20
667.3062037417699
 30
0.0
 42
-0.0277761933687388
  0
VERTEX
  5
C2
  8
LAYER_01
 10
-1280.079297392422
 20
680.3257916194174
 30
0.0
 42
-0.5216906405524764
  0
VERTEX
  5
C3
  8
LAYER_01
 10
-1478.127196404377
 20
648.6614491249616
 30
0.0
 42
-0.0257517007863494
  0
VERTEX
  5
C4
  8
LAYER_01
 10
-1486.734150251203
 20
638.3541713581162
 30
0.0
 42
0.4994681528139316
  0
SEQEND
  5
C5
  8
LAYER_01
  0
POLYLINE
  5
C6
  8
LAYER_01
 66
     1
 10
0.0
 20
0.0
 30
0.0
 70
     1
  0
VERTEX
  5
C7
  8
LAYER_01
 10
-1299.315325324847
 20
834.2912279274425
 30
0.0
 42
-0.0482544744569707
  0
VERTEX
  5
C8
  8
LAYER_01
 10
-1311.843524863948
 20
827.477249474063
 30
0.0
 42
-0.0748481389785049
  0
VERTEX
  5
C9
  8
LAYER_01
 10
-1287.667100605505
 20
800.2620632831101
 30
0.0
 42
-0.0277761933687276
  0
VERTEX
  5
CA
  8
LAYER_01
 10
-1281.102669925272
 20
814.2202307931541
 30
0.0
 42
0.0500824811006551
  0
SEQEND
  5
CB
  8
LAYER_01
  0
POLYLINE
  5
CC
  8
LAYER_01
 66
     1
 10
0.0
 20
0.0
 30
0.0
 70
     1
  0
VERTEX
  5
CD
  8
LAYER_01
 10
-1474.594638917542
 20
1122.068189020849
 30
0.0
 42
0.1784596524654476
  0
VERTEX
  5
CE
  8
LAYER_01
 10
-1456.573924356629
 20
1044.811719911521
 30
0.0
 42
-0.2907374800182601
  0
VERTEX
  5
CF
  8
LAYER_01
 10
-1361.90702085565
 20
1093.507870458425
 30
0.0
 42
-0.380672238987693
  0
VERTEX
  5
D0
  8
LAYER_01
 10
-1381.783493638462
 20
1152.7798000755
 30
0.0
 42
-0.1849819730748689
  0
SEQEND
  5
D1
  8
LAYER_01
  0
POLYLINE
  5
D2
  8
LAYER_01
 66
     1
 10
0.0
 20
0.0
 30
0.0
 70
     1
  0
VERTEX
  5
D3
  8
LAYER_01
 10
-1437.125196559614
 20
920.6696013975278
 30
0.0
 42
-0.3735257508012408
  0
VERTEX
  5
D4
  8
LAYER_01
 10
-1443.062537434231
 20
865.6747593651849
 30
0.0
 42
-0.0573043321564425
  0
VERTEX
  5
D5
  8
LAYER_01
 10
-1411.697611273725
 20
874.237249345882
 30
0.0
 42
-0.1064250087988358
  0
VERTEX
  5
D6
  8
LAYER_01
 10
-1414.223937569072
 20
905.3082087176717
 30
0.0
 42
-0.0697793734563405
  0
SEQEND
  5
D7
  8
LAYER_01
  0
POLYLINE
  5
D8
  8
LAYER_01
 66
     1
 10
0.0
 20
0.0
 30
0.0
 70
     1
  0
VERTEX
  5
D9
  8
LAYER_01
 10
-2437.31607414864
 20
982.1166020535189
 30
0.0
 42
-0.0297341536704027
  0
VERTEX
  5
DA
  8
LAYER_01
 10
-2430.09854723322
 20
993.4564933241143
 30
0.0
 42
-0.7555494300167914
  0
VERTEX
  5
DB
  8
LAYER_01
 10
-2327.426393091208
 20
1231.669364649895
 30
0.0
 42
-0.0301344075441224
  0
VERTEX
  5
DC
  8
LAYER_01
 10
-2322.453478643867
 20
1244.454267831893
 30
0.0
 42
0.768450239375799
  0
SEQEND
  5
DD
  8
LAYER_01
  0
POLYLINE
  5
DE
  8
LAYER_01
 66
     1
 10
0.0
 20
0.0
 30
0.0
 70
     1
  0
VERTEX
  5
DF
  8
LAYER_01
 10
-1224.897330209011
 20
963.0833071402943
 30
0.0
 42
0.0356239476072009
  0
VERTEX
  5
E0
  8
LAYER_01
 10
-1231.402597151986
 20
951.4090574701224
 30
0.0
 42
0.3185835309914775
  0
VERTEX
  5
E1
  8
LAYER_01
 10
-1068.712529622828
 20
964.5148745324348
 30
0.0
 42
0.0356239476072039
  0
VERTEX
  5
E2
  8
LAYER_01
 10
-1077.002667018335
 20
974.9972514253187
 30
0.0
 42
-0.3202018823996265
  0
SEQEND
  5
E3
  8
LAYER_01
  0
POLYLINE
  5
E4
  8
LAYER_01
 66
     1
 10
0.0
 20
0.0
 30
0.0
 70
     1
  0
VERTEX
  5
E5
  8
LAYER_01
 10
-1223.715724233951
 20
1088.983671184315
 30
0.0
 42
-0.1654743747951772
  0
VERTEX
  5
E6
  8
LAYER_01
 10
-1262.075583039058
 20
1008.733800505148
 30
0.0
 42
0.0816477762501329
  0
VERTEX
  5
E7
  8
LAYER_01
 10
-1236.198387144083
 20
979.1963393093089
 30
0.0
 42
-0.4501206765880935
  0
VERTEX
  5
E8
  8
LAYER_01
 10
-1068.426634671886
 20
992.7115214560622
 30
0.0
 42
0.1853262314794333
  0
VERTEX
  5
E9
  8
LAYER_01
 10
-1038.263992496893
 20
1074.048489183037
 30
0.0
 42
-0.8270128429597506
  0
VERTEX
  5
EA
  8
LAYER_01
 10
-1150.192035685337
 20
1083.619100609885
 30
0.0
 42
-0.617678896329437
  0
SEQEND
  5
EB
  8
LAYER_01
  0
POLYLINE
  5
EC
  8
LAYER_01
 66
     1
 10
0.0
 20
0.0
 30
0.0
 70
     1
  0
VERTEX
  5
ED
  8
LAYER_01
 10
-1394.052777905229
 20
898.0955739969233
 30
0.0
 42
0.106862910216117
  0
VERTEX
  5
EE
  8
LAYER_01
 10
-1390.311276734565
 20
875.8783307578257
 30
0.0
 42
-0.1494574236661978
  0
VERTEX
  5
EF
  8
LAYER_01
 10
-1310.702742125472
 20
851.6386701556253
 30
0.0
 42
0.4249862941923472
  0
VERTEX
  5
F0
  8
LAYER_01
 10
-1297.93019975261
 20
927.3284727740594
 30
0.0
 42
-0.2716719568269632
  0
SEQEND
  5
F1
  8
LAYER_01
  0
POLYLINE
  5
F2
  8
LAYER_01
 66
     1
 10
0.0
 20
0.0
 30
0.0
 70
     1
  0
VERTEX
  5
F3
  8
LAYER_01
 10
-2273.2829770211
 20
991.7401029184309
 30
0.0
 42
-0.2850598633658412
  0
VERTEX
  5
F4
  8
LAYER_01
 10
-2408.324047149294
 20
986.6103290959327
 30
0.0
 42
-0.4393020621445232
  0
SEQEND
  5
F5
  8
LAYER_01
  0
POLYLINE
  5
F6
  8
LAYER_01
 66
     1
 10
0.0
 20
0.0
 30
0.0
 70
     1
  0
VERTEX
  5
F7
  8
LAYER_01
 10
-1221.030413889878
 20
968.5543195000821
 30
0.0
 42
0.3178901620628274
  0
VERTEX
  5
F8
  8
LAYER_01
 10
-1081.695491785797
 20
979.778717075308
 30
0.0
 42
0.4462475341986709
  0
SEQEND
  5
F9
  8
LAYER_01
  0
POLYLINE
  5
FA
  8
LAYER_01
 66
     1
 10
0.0
 20
0.0
 30
0.0
 70
     1
  0
VERTEX
  5
FB
  8
LAYER_01
 10
-1285.190024580004
 20
944.5501369901134
 30
0.0
 42
0.0910953865438071
  0
VERTEX
  5
FC
  8
LAYER_01
 10
-1272.984214368142
 20
978.2875601938788
 30
0.0
 42
0.0549053211260348
  0
VERTEX
  5
FD
  8
LAYER_01
 10
-1249.716825451729
 20
955.8069247334066
 30
0.0
 42
0.2308277803403355
  0
VERTEX
  5
FE
  8
LAYER_01
 10
-1244.783179372515
 20
857.3791783162418
 30
0.0
 42
0.0893819433904481
  0
VERTEX
  5
FF
  8
LAYER_01
 10
-1277.487849068006
 20
820.51516154563
 30
0.0
 42
0.0426180707160108
  0
VERTEX
  5
100
  8
LAYER_01
 10
-1293.860051185628
 20
838.3573970567702
 30
0.0
 42
0.4244752095543631
  0
SEQEND
  5
101
  8
LAYER_01
  0
POLYLINE
  5
102
  8
LAYER_01
 66
     1
 10
0.0
 20
0.0
 30
0.0
 70
     1
  0
VERTEX
  5
103
  8
LAYER_01
 10
-1391.835636470069
 20
911.0430830292078
 30
0.0
 42
0.2770533691728571
  0
VERTEX
  5
104
  8
LAYER_01
 10
-1306.980444921515
 20
936.8493324341592
 30
0.0
 42
0.5349622823116523
  0
SEQEND
  5
105
  8
LAYER_01
  0
POLYLINE
  5
106
  8
LAYER_01
 66
     1
 10
0.0
 20
0.0
 30
0.0
 70
     1
  0
VERTEX
  5
107
  8
LAYER_01
 10
-1456.383768884758
 20
1005.58674664071
 30
0.0
 42
0.3123664971398779
  0
VERTEX
  5
108
  8
LAYER_01
 10
-1411.245401736215
 20
918.4872738087419
 30
0.0
 42
-0.2540127171942956
  0
VERTEX
  5
109
  8
LAYER_01
 10
-1359.993685115861
 20
967.1676574484135
 30
0.0
 42
-0.1950440852164161
  0
SEQEND
  5
10A
  8
LAYER_01
  0
POLYLINE
  5
10B
  8
LAYER_01
 66
     1
 10
0.0
 20
0.0
 30
0.0
 70
     1
  0
VERTEX
  5
10C
  8
LAYER_01
 10
-1133.15515447892
 20
611.6627791350944
 30
0.0
 42
2.556763565696734
  0
VERTEX
  5
10D
  8
LAYER_01
 10
-1036.219606532345
 20
813.511641063793
 30
0.0
 42
-0.5061214519834765
  0
SEQEND
  5
10E
  8
LAYER_01
  0
POLYLINE
  5
10F
  8
LAYER_01
 66
     1
 10
0.0
 20
0.0
 30
0.0
 70
     1
  0
VERTEX
  5
110
  8
LAYER_01
 10
-1261.711655792517
 20
794.8551644954712
 30
0.0
 42
-0.1933726161940134
  0
VERTEX
  5
111
  8
LAYER_01
 10
-1255.012208183729
 20
688.9606459055813
 30
0.0
 42
0.2576848694746877
  0
VERTEX
  5
112
  8
LAYER_01
 10
-1159.963007947982
 20
635.2635488370206
 30
0.0
 42
-0.2992351184637111
  0
VERTEX
  5
113
  8
LAYER_01
 10
-1071.399326270745
 20
819.6796761860741
 30
0.0
 42
0.0137450129750874
  0
VERTEX
  5
114
  8
LAYER_01
 10
-1075.458989404757
 20
824.3770685483082
 30
0.0
 42
-0.3985415148127271
  0
VERTEX
  5
115
  8
LAYER_01
 10
-1229.664330592261
 20
836.1930130098214
 30
0.0
 42
0.1173706253009612
  0
SEQEND
  5
116
  8
LAYER_01
  0
POLYLINE
  5
117
  8
LAYER_01
 66
     1
 10
0.0
 20
0.0
 30
0.0
 70
     1
  0
VERTEX
  5
118
  8
LAYER_01
 10
-1234.034406848888
 20
945.2063470769199
 30
0.0
 42
0.2158055210106144
  0
VERTEX
  5
119
  8
LAYER_01
 10
-1229.413244186771
 20
867.8890601800242
 30
0.0
 42
-0.3143752255141521
  0
VERTEX
  5
11A
  8
LAYER_01
 10
-1070.878094769776
 20
855.741345280635
 30
0.0
 42
0.2994752517895335
  0
VERTEX
  5
11B
  8
LAYER_01
 10
-1065.121757921721
 20
958.8134363723573
 30
0.0
 42
-0.3152022927067563
  0
SEQEND
  5
11C
  8
LAYER_01
  0
POLYLINE
  5
11D
  8
LAYER_01
 66
     1
 10
0.0
 20
0.0
 30
0.0
 70
     1
  0
VERTEX
  5
11E
  8
LAYER_01
 10
-1223.621676306112
 20
1120.654223753629
 30
0.0
 42
0.0855991836135801
  0
VERTEX
  5
11F
  8
LAYER_01
 10
-1236.715028803196
 20
1165.718421937587
 30
0.0
 42
-0.4756515073109271
  0
VERTEX
  5
120
  8
LAYER_01
 10
-1052.432672659583
 20
1129.512415151766
 30
0.0
 42
0.5262739979276841
  0
VERTEX
  5
121
  8
LAYER_01
 10
-1145.30443149949
 20
1113.33946683448
 30
0.0
 42
0.7342268598109304
  0
SEQEND
  5
122
  8
LAYER_01
  0
POLYLINE
  5
123
  8
LAYER_01
 66
     1
 10
0.0
 20
0.0
 30
0.0
 70
     1
  0
VERTEX
  5
124
  8
LAYER_01
 10
-1239.858164222643
 20
1171.781249314449
 30
0.0
 42
0.024392340363894
  0
VERTEX
  5
125
  8
LAYER_01
 10
-1246.915387067834
 20
1183.245757332254
 30
0.0
 42
-0.9230334253687106
  0
VERTEX
  5
126
  8
LAYER_01
 10
-1055.182703422009
 20
977.4687017891631
 30
0.0
 42
0.0300792762886111
  0
VERTEX
  5
127
  8
LAYER_01
 10
-1063.738663222901
 20
987.929664837497
 30
0.0
 42
0.9217375079978133
  0
SEQEND
  5
128
  8
LAYER_01
  0
POLYLINE
  5
129
  8
LAYER_01
 66
     1
 10
0.0
 20
0.0
 30
0.0
 70
     1
  0
VERTEX
  5
12A
  8
LAYER_01
 10
-1138.807171330091
 20
637.0508654544717
 30
0.0
 42
0.510908003945321
  0
VERTEX
  5
12B
  8
LAYER_01
 10
-1059.56796338401
 20
802.0506439966346
 30
0.0
 42
0.3027073477853668
  0
SEQEND
  5
12C
  8
LAYER_01
  0
POLYLINE
  5
12D
  8
LAYER_01
 66
     1
 10
0.0
 20
0.0
 30
0.0
 70
     1
  0
VERTEX
  5
12E
  8
LAYER_01
 10
-1508.512196997028
 20
799.7891631990817
 30
0.0
 42
-0.0345992392586093
  0
VERTEX
  5
12F
  8
LAYER_01
 10
-1499.182012861617
 20
788.9007213539251
 30
0.0
 42
0.257315007847823
  0
VERTEX
  5
130
  8
LAYER_01
 10
-1495.156899973724
 20
670.9366848291403
 30
0.0
 42
-0.0345992392586299
  0
VERTEX
  5
131
  8
LAYER_01
 10
-1503.723187138711
 20
659.4375880810044
 30
0.0
 42
-0.2790066946222994
  0
SEQEND
  5
132
  8
LAYER_01
  0
POLYLINE
  5
133
  8
LAYER_01
 66
     1
 10
0.0
 20
0.0
 30
0.0
 70
     1
  0
VERTEX
  5
134
  8
LAYER_01
 10
-1295.784379036327
 20
724.6889075134244
 30
0.0
 42
-11.21652469038045
  0
VERTEX
  5
135
  8
LAYER_01
 10
-1297.785974196846
 20
749.0747639890784
 30
0.0
 42
-0.0793760981435141
  0
VERTEX
  5
136
  8
LAYER_01
 10
-1290.598987894741
 20
792.3186960898306
 30
0.0
 42
0.0944187553606708
  0
VERTEX
  5
137
  8
LAYER_01
 10
-1319.176834267134
 20
824.8087233562321
 30
0.0
 42
-0.3048780140621571
  0
VERTEX
  5
138
  8
LAYER_01
 10
-1398.227569448421
 20
848.8785420076863
 30
0.0
 42
0.2058972479200857
  0
VERTEX
  5
139
  8
LAYER_01
 10
-1479.399444839522
 20
807.0232790179485
 30
0.0
 42
-0.3237542942863432
  0
VERTEX
  5
13A
  8
LAYER_01
 10
-1474.185042823683
 20
654.2047303254664
 30
0.0
 42
0.5391812971031789
  0
VERTEX
  5
13B
  8
LAYER_01
 10
-1283.988880600835
 20
687.8363311859565
 30
0.0
 42
-0.069966108088666
  0
SEQEND
  5
13C
  8
LAYER_01
  0
POLYLINE
  5
13D
  8
LAYER_01
 66
     1
 10
0.0
 20
0.0
 30
0.0
 70
     1
  0
VERTEX
  5
13E
  8
LAYER_01
 10
-1253.592406299071
 20
1148.564258963775
 30
0.0
 42
0.2578509537135938
  0
VERTEX
  5
13F
  8
LAYER_01
 10
-1273.741355269769
 20
1033.251149325588
 30
0.0
 42
0.2744278145014967
  0
SEQEND
  5
140
  8
LAYER_01
  0
POLYLINE
  5
141
  8
LAYER_01
 66
     1
 10
0.0
 20
0.0
 30
0.0
 70
     1
  0
VERTEX
  5
142
  8
LAYER_01
 10
-1358.873439934571
 20
1176.695790785788
 30
0.0
 42
0.0894851929766301
  0
VERTEX
  5
143
  8
LAYER_01
 10
-1337.161383452379
 20
1220.088360204859
 30
0.0
 42
-0.1898192022034565
  0
VERTEX
  5
144
  8
LAYER_01
 10
-1266.996912960793
 20
1173.83309746523
 30
0.0
 42
0.0737381372937882
  0
VERTEX
  5
145
  8
LAYER_01
 10
-1291.718362667519
 20
1138.227657098671
 30
0.0
 42
0.5251099889497337
  0
SEQEND
  5
146
  8
LAYER_01
  0
POLYLINE
  5
147
  8
LAYER_01
 66
     1
 10
0.0
 20
0.0
 30
0.0
 70
     1
  0
VERTEX
  5
148
  8
LAYER_01
 10
-1271.875330903983
 20
987.6421920591498
 30
0.0
 42
0.0304696666997385
  0
VERTEX
  5
149
  8
LAYER_01
 10
-1271.759201263103
 20
999.7303352026581
 30
0.0
 42
0.0115854923443617
  0
VERTEX
  5
14A
  8
LAYER_01
 10
-1266.967886953721
 20
1003.969082415567
 30
0.0
 42
0.0797398220552682
  0
VERTEX
  5
14B
  8
LAYER_01
 10
-1240.060450144739
 20
973.7257179180971
 30
0.0
 42
0.0300792762886229
  0
VERTEX
  5
14C
  8
LAYER_01
 10
-1246.831539493097
 20
962.0300544033746
 30
0.0
 42
-0.0637350276083569
  0
SEQEND
  5
14D
  8
LAYER_01
  0
POLYLINE
  5
14E
  8
LAYER_01
 66
     1
 10
0.0
 20
0.0
 30
0.0
 70
     1
  0
VERTEX
  5
14F
  8
LAYER_01
 10
-1288.266893374604
 20
1019.067141526706
 30
0.0
 42
0.6800326087869749
  0
VERTEX
  5
150
  8
LAYER_01
 10
-1447.917637150069
 20
1033.310044178379
 30
0.0
 42
0.4074595094604815
  0
SEQEND
  5
151
  8
LAYER_01
  0
POLYLINE
  5
152
  8
LAYER_01
 66
     1
 10
0.0
 20
0.0
 30
0.0
 70
     1
  0
VERTEX
  5
153
  8
LAYER_01
 10
-1343.77452761582
 20
1221.280581563111
 30
0.0
 42
0.02982313606998
  0
VERTEX
  5
154
  8
LAYER_01
 10
-1357.387195682716
 20
1222.501243802668
 30
0.0
 42
-0.3296249286348382
  0
VERTEX
  5
155
  8
LAYER_01
 10
-1470.28926116266
 20
1141.977212352524
 30
0.0
 42
0.0298231360700104
  0
VERTEX
  5
156
  8
LAYER_01
 10
-1473.568235559841
 20
1128.709089836314
 30
0.0
 42
0.3426832092199142
  0
SEQEND
  5
157
  8
LAYER_01
  0
POLYLINE
  5
158
  8
LAYER_01
 66
     1
 10
0.0
 20
0.0
 30
0.0
 70
     1
  0
VERTEX
  5
159
  8
LAYER_01
 10
-1214.140029633998
 20
846.691066636133
 30
0.0
 42
0.382352694462365
  0
VERTEX
  5
15A
  8
LAYER_01
 10
-1089.20262672421
 20
837.1177703898463
 30
0.0
 42
0.3027813329041994
  0
SEQEND
  5
15B
  8
LAYER_01
  0
POLYLINE
  5
15C
  8
LAYER_01
 66
     1
 10
0.0
 20
0.0
 30
0.0
 70
     1
  0
VERTEX
  5
15D
  8
LAYER_01
 10
-1387.070143993475
 20
869.1642300684905
 30
0.0
 42
-0.1372910636185448
  0
VERTEX
  5
15E
  8
LAYER_01
 10
-1317.13567284726
 20
847.8701834778501
 30
0.0
 42
-0.3968094058665484
  0
SEQEND
  5
15F
  8
LAYER_01
  0
POLYLINE
  5
160
  8
LAYER_01
 66
     1
 10
0.0
 20
0.0
 30
0.0
 70
     1
  0
VERTEX
  5
161
  8
LAYER_01
 10
-1402.829306204205
 20
855.1811190421124
 30
0.0
 42
-0.0482544744569621
  0
VERTEX
  5
162
  8
LAYER_01
 10
-1409.434135115204
 20
867.8208311081
 30
0.0
 42
0.1814720380930218
  0
VERTEX
  5
163
  8
LAYER_01
 10
-1492.999797518687
 20
821.9815785137879
 30
0.0
 42
-0.0257517007863291
  0
VERTEX
  5
164
  8
LAYER_01
 10
-1483.710280065114
 20
812.2849556499218
 30
0.0
 42
-0.194256395690657
  0
SEQEND
  5
165
  8
LAYER_01
  0
CIRCLE
  5
166
  8
LAYER_01
 10
-2100.742901964681
 20
766.248929917734
 30
0.0
 40
27.0153252600739
  0
CIRCLE
  5
167
  8
LAYER_01
 10
-1338.560222984801
 20
1134.305764393665
 30
0.0
 40
27.53505525098263
  0
CIRCLE
  5
168
  8
LAYER_01
 10
-1093.313642129696
 20
1089.527350388739
 30
0.0
 40
34.89247991922566
  0
CIRCLE
  5
169
  8
LAYER_01
 10
-1185.611013584449
 20
1104.705932498258
 30
0.0
 40
21.13346964153769
  0
CIRCLE
  5
16A
  8
LAYER_01
 10
-1364.622791704254
 20
731.3137130078015
 30
0.0
 40
50.45277791686595
  0
CIRCLE
  5
16B
  8
LAYER_01
 10
-1576.707707894724
 20
767.2311731057156
 30
0.0
 40
26.65293363667026
  0
CIRCLE
  5
16C
  8
LAYER_01
 10
-1471.766301775521
 20
896.5915927236814
 30
0.0
 40
26.7532078244544
  0
CIRCLE
  5
16D
  8
LAYER_01
 10
-1549.106452372527
 20
964.8743440016154
 30
0.0
 40
28.25405975929055
  0
CIRCLE
  5
16E
  8
LAYER_01
 10
-1608.371535348733
 20
1152.298659424279
 30
0.0
 40
29.34500611078787
  0
CIRCLE
  5
16F
  8
LAYER_01
 10
-1689.032885690567
 20
1242.195925388193
 30
0.0
 40
25.43304027868284
  0
CIRCLE
  5
170
  8
LAYER_01
 10
-1990.378988912298
 20
886.6325490889934
 30
0.0
 40
26.82566263612897
  0
CIRCLE
  5
171
  8
LAYER_01
 10
-2360.316773971329
 20
1129.274129517166
 30
0.0
 40
31.30198109689775
  0
CIRCLE
  5
172
  8
LAYER_01
 10
-2427.908019485787
 20
1074.917823713636
 30
0.0
 40
29.79956538549781
  0
CIRCLE
  5
173
  8
LAYER_01
 10
-1689.032885690567
 20
1242.195925388193
 30
0.0
 40
37.3293467203305
  0
ARC
  5
174
  8
LAYER_01
 10
-2139.794436715169
 20
1092.754686159937
 30
0.0
 40
122.9383445974373
 50
18.68871524501181
 51
25.04535656056586
  0
ARC
  5
175
  8
LAYER_01
 10
-2139.794436715169
 20
1092.754686159937
 30
0.0
 40
122.9383445974373
 50
348.930702802661
 51
15.55808136578202
  0
ARC
  5
176
  8
LAYER_01
 10
-2139.794436715169
 20
1092.754686159937
 30
0.0
 40
122.9383445974373
 50
28.30812054474529
 51
74.01350484334654
  0
ARC
  5
177
  8
LAYER_01
 10
-1869.994126490832
 20
1194.917239161507
 30
0.0
 40
116.613484042463
 50
206.018405506512
 51
238.0491107008821
  0
ARC
  5
178
  8
LAYER_01
 10
-1869.994126490832
 20
1194.917239161507
 30
0.0
 40
116.613484042463
 50
195.979423213596
 51
202.7122372420629
  0
ARC
  5
179
  8
LAYER_01
 10
-1869.994126490832
 20
1194.917239161507
 30
0.0
 40
116.613484042463
 50
123.3950421472397
 51
192.5070421303926
  0
ARC
  5
17A
  8
LAYER_01
 10
-2049.536987709826
 20
1267.635783513072
 30
0.0
 40
124.639566044216
 50
302.7546055918589
 51
13.14747868577402
  0
ARC
  5
17B
  8
LAYER_01
 10
-2049.536987709826
 20
1267.635783513072
 30
0.0
 40
124.639566044216
 50
240.251443092616
 51
279.7563980575396
  0
ARC
  5
17C
  8
LAYER_01
 10
-2049.536987709826
 20
1267.635783513072
 30
0.0
 40
117.9602853209571
 50
303.8443736115428
 51
12.05771066609016
  0
ARC
  5
17D
  8
LAYER_01
 10
-2049.536987709826
 20
1267.635783513072
 30
0.0
 40
117.9602853209571
 50
239.5435904080219
 51
278.7668074564687
  0
ARC
  5
17E
  8
LAYER_01
 10
1869.994126490844
 20
1194.917239161523
 30
0.0
 40
143.2047202927771
 50
351.7159637830046
 51
59.37725999050517
210
0.0
220
0.0
230
-1.0
  0
ARC
  5
17F
  8
LAYER_01
 10
1869.994126490844
 20
1194.917239161523
 30
0.0
 40
143.2047202927771
 50
300.6339164770471
 51
326.8047033830197
210
0.0
220
0.0
230
-1.0
  0
ARC
  5
180
  8
LAYER_01
 10
2049.536987709823
 20
1267.635783513074
 30
0.0
 40
144.6774082139958
 50
258.7697215417176
 51
298.9843735396577
210
0.0
220
0.0
230
-1.0
  0
ARC
  5
181
  8
LAYER_01
 10
2049.536987709823
 20
1267.635783513074
 30
0.0
 40
144.6774082139958
 50
165.2058154705113
 51
238.8921002518575
210
0.0
220
0.0
230
-1.0
  0
ARC
  5
182
  8
LAYER_01
 10
2049.536987709829
 20
1267.635783513071
 30
0.0
 40
137.9981274907318
 50
259.0560410013564
 51
299.0499314037868
210
0.0
220
0.0
230
-1.0
  0
ARC
  5
183
  8
LAYER_01
 10
2049.536987709829
 20
1267.635783513071
 30
0.0
 40
137.9981274907318
 50
165.5337922961044
 51
238.5641234262618
210
0.0
220
0.0
230
-1.0
  0
ARC
  5
184
  8
LAYER_01
 10
2139.794436715167
 20
1092.754686159935
 30
0.0
 40
151.8356405990676
 50
170.9975454756313
 51
191.6223343833838
210
0.0
220
0.0
230
-1.0
  0
ARC
  5
185
  8
LAYER_01
 10
2139.794436715167
 20
1092.754686159935
 30
0.0
 40
151.8356405990676
 50
99.5495884671643
 51
147.5231216903938
210
0.0
220
0.0
230
-1.0
  0
ARC
  5
186
  8
LAYER_01
 10
-1869.994126490832
 20
1194.917239161507
 30
0.0
 40
116.613484042463
 50
113.1898470355707
 51
119.9226610640366
  0
ARC
  5
187
  8
LAYER_01
 10
-1869.994126490832
 20
1194.917239161507
 30
0.0
 40
116.613484042463
 50
356.5581308890526
 51
109.883678771119
  0
ARC
  5
188
  8
LAYER_01
 10
-2049.536987709826
 20
1267.635783513072
 30
0.0
 40
124.639566044216
 50
25.56645141877416
 51
165.1007775797981
  0
ARC
  5
189
  8
LAYER_01
 10
-2049.536987709826
 20
1267.635783513072
 30
0.0
 40
117.9602853209571
 50
25.35566125841135
 51
165.8086302643923
  0
ARC
  5
18A
  8
LAYER_01
 10
1869.994126490844
 20
1194.917239161523
 30
0.0
 40
143.2047202927771
 50
62.0558175588062
 51
67.40254203949522
210
0.0
220
0.0
230
-1.0
  0
ARC
  5
18B
  8
LAYER_01
 10
1869.994126490844
 20
1194.917239161523
 30
0.0
 40
143.2047202927771
 50
70.08227430031043
 51
184.7588419330171
210
0.0
220
0.0
230
-1.0
  0
ARC
  5
18C
  8
LAYER_01
 10
2049.536987709823
 20
1267.635783513074
 30
0.0
 40
144.6774082139958
 50
15.66340578792853
 51
154.6601145454492
210
0.0
220
0.0
230
-1.0
  0
ARC
  5
18D
  8
LAYER_01
 10
2049.536987709829
 20
1267.635783513071
 30
0.0
 40
137.9981274907318
 50
15.59784792379968
 51
154.4621666355719
210
0.0
220
0.0
230
-1.0
  0
ARC
  5
18E
  8
LAYER_01
 10
2139.794436715167
 20
1092.754686159935
 30
0.0
 40
151.8356405990676
 50
199.3561903643877
 51
239.461682303319
210
0.0
220
0.0
230
-1.0
  0
ARC
  5
18F
  8
LAYER_01
 10
-2022.373012162999
 20
996.2729659569098
 30
0.0
 40
72.94956871952918
 50
87.46248263734974
 51
193.7196446949433
  0
ARC
  5
190
  8
LAYER_01
 10
-2022.373012162999
 20
996.2729659569098
 30
0.0
 40
72.94956871952918
 50
20.53871267647151
 51
64.59090026838459
  0
ARC
  5
191
  8
LAYER_01
 10
-2022.373012162999
 20
996.2729659569098
 30
0.0
 40
52.89412011835627
 50
92.70008024147519
 51
188.4820470908174
  0
ARC
  5
192
  8
LAYER_01
 10
-2022.373012162999
 20
996.2729659569098
 30
0.0
 40
52.89412011835627
 50
220.4156442322936
 51
60.76648310000022
  0
ARC
  5
193
  8
LAYER_01
 10
-2139.794436715169
 20
1092.754686159937
 30
0.0
 40
122.9383445974373
 50
301.9771721463853
 51
339.2049551859077
  0
ARC
  5
194
  8
LAYER_01
 10
-2139.794436715169
 20
1092.754686159937
 30
0.0
 40
122.9383445974373
 50
227.3302381129648
 51
292.2514245296319
  0
ARC
  5
195
  8
LAYER_01
 10
2139.794436715167
 20
1092.754686159935
 30
0.0
 40
151.8356405990676
 50
247.1955382843232
 51
256.9460375050478
210
0.0
220
0.0
230
-1.0
  0
ARC
  5
196
  8
LAYER_01
 10
-2022.373012162999
 20
996.2729659569098
 30
0.0
 40
72.94956871952918
 50
216.5912270639086
 51
278.6799909849224
  0
ARC
  5
197
  8
LAYER_01
 10
-1990.378988912298
 20
886.6325490889934
 30
0.0
 40
42.99522870343045
 50
242.8368676540391
 51
93.32142405983538
  0
ARC
  5
198
  8
LAYER_01
 10
-1990.378988912298
 20
886.6325490889934
 30
0.0
 40
42.99522870343045
 50
119.2139804749119
 51
212.2176141261994
  0
ARC
  5
199
  8
LAYER_01
 10
2118.843771961008
 20
746.3039513121038
 30
0.0
 40
149.2136749048423
 50
136.8360664944325
 51
153.9348928540622
210
0.0
220
0.0
230
-1.0
  0
ARC
  5
19A
  8
LAYER_01
 10
2118.843771961008
 20
746.3039513121038
 30
0.0
 40
149.2136749048423
 50
113.4281953527157
 51
128.10945172533
210
0.0
220
0.0
230
-1.0
  0
ARC
  5
19B
  8
LAYER_01
 10
-2022.373012162999
 20
996.2729659569098
 30
0.0
 40
72.94956871952918
 50
293.8554135498248
 51
344.757235629198
  0
ARC
  5
19C
  8
LAYER_01
 10
1773.394507841539
 20
1007.78792297445
 30
0.0
 40
181.2136708321453
 50
4.455860177074854
 51
20.65123284001532
210
0.0
220
0.0
230
-1.0
  0
ARC
  5
19D
  8
LAYER_01
 10
1773.394507841539
 20
1007.78792297445
 30
0.0
 40
181.2136708321453
 50
324.2794898819708
 51
350.2481915172557
210
0.0
220
0.0
230
-1.0
  0
ARC
  5
19E
  8
LAYER_01
 10
-1869.994126490832
 20
1194.917239161507
 30
0.0
 40
116.613484042463
 50
263.3801125905165
 51
331.227128999417
  0
ARC
  5
19F
  8
LAYER_01
 10
-1869.994126490832
 20
1194.917239161507
 30
0.0
 40
116.613484042463
 50
252.9158936869807
 51
258.0404042666588
  0
ARC
  5
1A0
  8
LAYER_01
 10
-1869.994126490832
 20
1194.917239161507
 30
0.0
 40
116.613484042463
 50
242.973337769812
 51
247.9139392690706
  0
ARC
  5
1A1
  8
LAYER_01
 10
1869.994126490844
 20
1194.917239161523
 30
0.0
 40
143.2047202927771
 50
292.5613458230363
 51
296.5832439349678
210
0.0
220
0.0
230
-1.0
  0
ARC
  5
1A2
  8
LAYER_01
 10
1869.994126490844
 20
1194.917239161523
 30
0.0
 40
143.2047202927771
 50
284.5351222499947
 51
288.5517142000217
210
0.0
220
0.0
230
-1.0
  0
ARC
  5
1A3
  8
LAYER_01
 10
1869.994126490844
 20
1194.917239161523
 30
0.0
 40
143.2047202927771
 50
242.3005864888034
 51
280.4875559766583
210
0.0
220
0.0
230
-1.0
  0
ARC
  5
1A4
  8
LAYER_01
 10
-1773.394507841542
 20
1007.787922974453
 30
0.0
 40
131.1190654077032
 50
159.3141924906197
 51
199.5211445277874
  0
ARC
  5
1A5
  8
LAYER_01
 10
-1773.394507841542
 20
1007.787922974453
 30
0.0
 40
131.1190654077032
 50
87.54513285139733
 51
147.0621087385364
  0
ARC
  5
1A6
  8
LAYER_01
 10
1773.394507841542
 20
1007.787922974453
 30
0.0
 40
141.1379864925916
 50
31.16856695709711
 51
94.22419145296931
210
0.0
220
0.0
230
-1.0
  0
ARC
  5
1A7
  8
LAYER_01
 10
1773.394507841542
 20
1007.787922974453
 30
0.0
 40
141.1379864925916
 50
337.6485900440438
 51
20.10197654721374
210
0.0
220
0.0
230
-1.0
  0
ARC
  5
1A8
  8
LAYER_01
 10
-1773.394507841544
 20
1007.787922974456
 30
0.0
 40
151.1569075774797
 50
160.1341645364223
 51
205.3521108706902
  0
ARC
  5
1A9
  8
LAYER_01
 10
-1773.394507841544
 20
1007.787922974456
 30
0.0
 40
151.1569075774797
 50
84.6435769592015
 51
149.9636646307323
  0
ARC
  5
1AA
  8
LAYER_01
 10
1773.39450784154
 20
1007.78792297445
 30
0.0
 40
161.1758286623682
 50
29.38004687482576
 51
96.01271153524023
210
0.0
220
0.0
230
-1.0
  0
ARC
  5
1AB
  8
LAYER_01
 10
1773.39450784154
 20
1007.78792297445
 30
0.0
 40
161.1758286623682
 50
331.4501981378794
 51
19.90877191900969
210
0.0
220
0.0
230
-1.0
  0
ARC
  5
1AC
  8
LAYER_01
 10
-1773.394507841542
 20
1007.787922974453
 30
0.0
 40
171.1947497472564
 50
159.8177501483975
 51
211.9850815281099
  0
ARC
  5
1AD
  8
LAYER_01
 10
-1773.394507841542
 20
1007.787922974453
 30
0.0
 40
171.1947497472564
 50
83.70437830221215
 51
150.9028632877218
  0
ARC
  5
1AE
  8
LAYER_01
 10
1773.394507841539
 20
1007.78792297445
 30
0.0
 40
181.2136708321453
 50
29.11878991801041
 51
96.27396849205527
210
0.0
220
0.0
230
-1.0
  0
ARC
  5
1AF
  8
LAYER_01
 10
-1869.994126490832
 20
1194.917239161507
 30
0.0
 40
116.613484042463
 50
346.6933023208633
 51
351.6339038201217
  0
ARC
  5
1B0
  8
LAYER_01
 10
1869.994126490844
 20
1194.917239161523
 30
0.0
 40
143.2047202927771
 50
188.8095144750971
 51
192.8314125870283
210
0.0
220
0.0
230
-1.0
  0
ARC
  5
1B1
  8
LAYER_01
 10
1869.994126490844
 20
1194.917239161523
 30
0.0
 40
143.2047202927771
 50
196.8410442100429
 51
200.8576361600698
210
0.0
220
0.0
230
-1.0
  0
ARC
  5
1B2
  8
LAYER_01
 10
-1869.994126490832
 20
1194.917239161507
 30
0.0
 40
116.613484042463
 50
336.5668373232746
 51
341.6913479029527
  0
ARC
  5
1B3
  8
LAYER_01
 10
-1773.394507841542
 20
1007.787922974453
 30
0.0
 40
131.1190654077032
 50
31.98542815021836
 51
75.2930490993155
  0
ARC
  5
1B4
  8
LAYER_01
 10
1869.994126490844
 20
1194.917239161523
 30
0.0
 40
143.2047202927771
 50
204.9052024334063
 51
225.1016281177202
210
0.0
220
0.0
230
-1.0
  0
ARC
  5
1B5
  8
LAYER_01
 10
-1773.394507841544
 20
1007.787922974456
 30
0.0
 40
151.1569075774797
 50
33.67078757674246
 51
74.47307705351326
  0
ARC
  5
1B6
  8
LAYER_01
 10
1773.394507841542
 20
1007.787922974453
 30
0.0
 40
141.1379864925916
 50
105.290781862851
 51
146.9150015736138
210
0.0
220
0.0
230
-1.0
  0
ARC
  5
1B7
  8
LAYER_01
 10
-1773.394507841542
 20
1007.787922974453
 30
0.0
 40
171.1947497472564
 50
33.71684949442727
 51
74.78949144153789
  0
ARC
  5
1B8
  8
LAYER_01
 10
1773.39450784154
 20
1007.78792297445
 30
0.0
 40
161.1758286623682
 50
105.4839864910548
 51
146.1436319257827
210
0.0
220
0.0
230
-1.0
  0
ARC
  5
1B9
  8
LAYER_01
 10
1773.394507841539
 20
1007.78792297445
 30
0.0
 40
181.2136708321453
 50
104.7415255700485
 51
133.5051582387302
210
0.0
220
0.0
230
-1.0
  0
ARC
  5
1BA
  8
LAYER_01
 10
-1577.393657621355
 20
1005.651850202064
 30
0.0
 40
87.47557511472155
 50
246.6742367294728
 51
288.979767151576
  0
ARC
  5
1BB
  8
LAYER_01
 10
1773.394507841541
 20
1007.787922974453
 30
0.0
 40
181.213670832144
 50
154.1803483382565
 51
207.0684534843339
210
0.0
220
0.0
230
-1.0
  0
ARC
  5
1BC
  8
LAYER_01
 10
-1577.393657621362
 20
1005.651850202053
 30
0.0
 40
87.4755751147184
 50
320.5180371204073
 51
112.0769614479332
  0
ARC
  5
1BD
  8
LAYER_01
 10
1549.106452372527
 20
964.874344001615
 30
0.0
 40
41.94264283907518
 50
269.7775418491426
 51
200.7246538788786
210
0.0
220
0.0
230
-1.0
  0
ARC
  5
1BE
  8
LAYER_01
 10
-1577.393657621323
 20
1005.651850202107
 30
0.0
 40
87.47557511477486
 50
233.5024377342449
 51
240.1081100929032
  0
ARC
  5
1BF
  8
LAYER_01
 10
1773.394507841547
 20
1007.787922974453
 30
0.0
 40
161.1758286623727
 50
154.5341712213986
 51
206.7146306011916
210
0.0
220
0.0
230
-1.0
  0
ARC
  5
1C0
  8
LAYER_01
 10
-1577.393657621332
 20
1005.651850202025
 30
0.0
 40
87.47557511475584
 50
118.6430880845074
 51
125.248760443167
  0
ARC
  5
1C1
  8
LAYER_01
 10
-1773.394507841547
 20
1007.787922974453
 30
0.0
 40
171.1947497472612
 50
332.9046468985605
 51
25.8465512788494
  0
LINE
  5
1C2
  8
LAYER_01
 10
-2128.737357392427
 20
801.5603360007011
 30
0.0
 11
-2128.222851194666
 21
801.9621953042778
 31
0.0
  0
ARC
  5
1C3
  8
LAYER_01
 10
-2100.742901965643
 20
766.2489299189591
 30
0.0
 40
45.06201209568733
 50
127.5768627589839
 51
128.4069551035944
  0
ARC
  5
1C4
  8
LAYER_01
 10
2100.742901965109
 20
766.2489299182697
 30
0.0
 40
45.06201209655973
 50
51.59304489641787
 51
52.42313724101233
210
0.0
220
0.0
230
-1.0
  0
ARC
  5
1C5
  8
LAYER_01
 10
2100.74290196468
 20
766.2489299177345
 30
0.0
 40
45.06201209724537
 50
229.1638113114701
 51
51.5930448964133
210
0.0
220
0.0
230
-1.0
  0
ARC
  5
1C6
  8
LAYER_01
 10
1933.564441386633
 20
669.522857090585
 30
0.0
 40
151.2865253232155
 50
344.9512034695418
 51
24.45649697685032
210
0.0
220
0.0
230
-1.0
  0
ARC
  5
1C7
  8
LAYER_01
 10
-2118.843771961005
 20
746.3039513121047
 30
0.0
 40
122.4965520117973
 50
218.1899610720147
 51
288.6541731140526
  0
ARC
  5
1C8
  8
LAYER_01
 10
2339.167893627468
 20
749.5763199796064
 30
0.0
 40
147.0705930895141
 50
149.207656961271
 51
212.4941914541415
210
0.0
220
0.0
230
-1.0
  0
ARC
  5
1C9
  8
LAYER_01
 10
-2118.84377196098
 20
746.3039513120824
 30
0.0
 40
122.4965520118359
 50
130.3530248418643
 51
140.1081905125695
  0
ARC
  5
1CA
  8
LAYER_01
 10
2133.42581903851
 20
876.0368974876291
 30
0.0
 40
74.25720421572723
 50
265.9821735532058
 51
330.6629243653359
210
0.0
220
0.0
230
-1.0
  0
ARC
  5
1CB
  8
LAYER_01
 10
2100.74290196468
 20
766.2489299177345
 30
0.0
 40
45.06201209724538
 50
94.42124706404257
 51
190.9417989885498
210
0.0
220
0.0
230
-1.0
  0
ARC
  5
1CC
  8
LAYER_01
 10
2133.425819038507
 20
876.0368974876241
 30
0.0
 40
74.25720421572053
 50
196.5107624766126
 51
240.8622107518355
210
0.0
220
0.0
230
-1.0
  0
ARC
  5
1CD
  8
LAYER_01
 10
-2118.843771961005
 20
746.3039513121074
 30
0.0
 40
122.4965520118023
 50
26.32688551712632
 51
62.47328831618518
  0
ARC
  5
1CE
  8
LAYER_01
 10
1933.564441386615
 20
669.5228570905759
 30
0.0
 40
151.2865253232349
 50
35.64911332316979
 51
60.06773789927841
210
0.0
220
0.0
230
-1.0
  0
ARC
  5
1CF
  8
LAYER_01
 10
1773.394507841545
 20
1007.787922974453
 30
0.0
 40
141.1379864925943
 50
156.9904180056059
 51
204.2583838169841
210
0.0
220
0.0
230
-1.0
  0
ARC
  5
1D0
  8
LAYER_01
 10
-1577.393657621324
 20
1005.651850202027
 30
0.0
 40
87.47557511475952
 50
132.0042451258985
 51
139.0731531572818
  0
ARC
  5
1D1
  8
LAYER_01
 10
-1773.394507841543
 20
1007.787922974453
 30
0.0
 40
151.1569075774806
 50
334.1750026220628
 51
24.57619555534678
  0
ARC
  5
1D2
  8
LAYER_01
 10
-1577.39365762134
 20
1005.651850202076
 30
0.0
 40
87.47557511473946
 50
219.6780450201283
 51
226.7469530515133
  0
ARC
  5
1D3
  8
LAYER_01
 10
1748.460930493955
 20
986.9238569321654
 30
0.0
 40
73.36550308632566
 50
53.9184604402656
 51
97.15379391653349
210
0.0
220
0.0
230
-1.0
  0
ARC
  5
1D4
  8
LAYER_01
 10
-1765.372431453422
 20
1052.486290966571
 30
0.0
 40
27.03323941691121
 50
15.51678881067121
 51
193.4109568325302
  0
ARC
  5
1D5
  8
LAYER_01
 10
-2344.936795556756
 20
1097.983721500362
 30
0.0
 40
128.1482586698778
 50
1.077069737243536
 51
32.89633015939832
  0
ARC
  5
1D6
  8
LAYER_01
 10
-2218.970593213146
 20
1196.843164244881
 30
0.0
 40
96.47477104202366
 50
243.8541418518937
 51
271.2825702174962
  0
ARC
  5
1D7
  8
LAYER_01
 10
-2139.794436715161
 20
1092.754686159933
 30
0.0
 40
122.9383445974432
 50
142.5065314324962
 51
171.8231158667162
  0
ARC
  5
1D8
  8
LAYER_01
 10
2049.536987709817
 20
1267.635783513074
 30
0.0
 40
124.6395660442261
 50
347.7893198173387
 51
6.551486965784385
210
0.0
220
0.0
230
-1.0
  0
ARC
  5
1D9
  8
LAYER_01
 10
2139.794436715134
 20
1092.754686159794
 30
0.0
 40
151.8356405992128
 50
72.95610323101121
 51
78.00234276553765
210
0.0
220
0.0
230
-1.0
  0
ARC
  5
1DA
  8
LAYER_01
 10
-2049.536987709839
 20
1267.635783513071
 30
0.0
 40
137.998127490722
 50
171.7059576596829
 51
192.4344074924537
  0
ARC
  5
1DB
  8
LAYER_01
 10
-2218.970593213126
 20
1196.843164244925
 30
0.0
 40
96.47477104198437
 50
61.7873687922778
 51
70.0742347941456
  0
ARC
  5
1DC
  8
LAYER_01
 10
1933.564441386622
 20
669.5228570905837
 30
0.0
 40
121.5236924087523
 50
347.6256201013334
 51
57.39332126748882
210
0.0
220
0.0
230
-1.0
  0
ARC
  5
1DD
  8
LAYER_01
 10
2118.843771961001
 20
746.3039513121074
 30
0.0
 40
122.4965520117988
 50
167.9422609082343
 51
237.0766804605885
210
0.0
220
0.0
230
-1.0
  0
ARC
  5
1DE
  8
LAYER_01
 10
-2118.843771961007
 20
746.3039513121129
 30
0.0
 40
142.5343941815724
 50
127.5768317352418
 51
137.9174942935486
  0
ARC
  5
1DF
  8
LAYER_01
 10
2133.425819038474
 20
876.0368974876368
 30
0.0
 40
74.25720421576337
 50
335.9604909493872
 51
346.9484996871843
210
0.0
220
0.0
230
-1.0
  0
ARC
  5
1E0
  8
LAYER_01
 10
2118.843771961005
 20
746.3039513121106
 30
0.0
 40
129.175832735058
 50
40.8491095106688
 51
50.3661657964056
210
0.0
220
0.0
230
-1.0
  0
ARC
  5
1E1
  8
LAYER_01
 10
2339.167893627463
 20
749.5763199796091
 30
0.0
 40
147.0705930895083
 50
141.1503972617939
 51
146.4795042896002
210
0.0
220
0.0
230
-1.0
  0
ARC
  5
1E2
  8
LAYER_01
 10
1577.39365762133
 20
1005.651850202033
 30
0.0
 40
110.9691932589491
 50
45.52359053805679
 51
50.75553795529019
210
0.0
220
0.0
230
-1.0
  0
ARC
  5
1E3
  8
LAYER_01
 10
1810.671050498755
 20
895.7340302322854
 30
0.0
 40
110.0242097385524
 50
25.47974554944264
 51
32.04736876803621
210
0.0
220
0.0
230
-1.0
  0
ARC
  5
1E4
  8
LAYER_01
 10
-2133.425819038511
 20
876.0368974876282
 30
0.0
 40
53.20608795639319
 50
16.32196423525075
 51
176.5043489227984
  0
ARC
  5
1E5
  8
LAYER_01
 10
2118.843771961003
 20
746.3039513120983
 30
0.0
 40
149.2136749048456
 50
63.02260116230046
 51
104.1510856796507
210
0.0
220
0.0
230
-1.0
  0
ARC
  5
1E6
  8
LAYER_01
 10
-1933.564441386618
 20
669.5228570905823
 30
0.0
 40
121.5236924087552
 50
205.3161261679415
 51
109.6649324632364
  0
ARC
  5
1E7
  8
LAYER_01
 10
2118.843771961004
 20
746.3039513121083
 30
0.0
 40
149.2136749048368
 50
165.3830408503291
 51
239.635900518493
210
0.0
220
0.0
230
-1.0
  0
ARC
  5
1E8
  8
LAYER_01
 10
2339.167893627456
 20
749.5763199796064
 30
0.0
 40
113.4112928972444
 50
159.0645802870928
 51
202.6372681283196
210
0.0
220
0.0
230
-1.0
  0
ARC
  5
1E9
  8
LAYER_01
 10
2118.843771961005
 20
746.3039513121088
 30
0.0
 40
122.4965520118002
 50
340.7533748075076
 51
20.94847360790446
210
0.0
220
0.0
230
-1.0
  0
ARC
  5
1EA
  8
LAYER_01
 10
-2344.936795556773
 20
1097.983721500358
 30
0.0
 40
148.1861008396718
 50
1.917648841288675
 51
34.93384247578835
  0
ARC
  5
1EB
  8
LAYER_01
 10
-2218.970593213142
 20
1196.843164244868
 30
0.0
 40
96.47477104200925
 50
275.2529060763766
 51
283.2651638711461
  0
ARC
  5
1EC
  8
LAYER_01
 10
2344.936795556764
 20
1097.983721500361
 30
0.0
 40
134.8275393931446
 50
146.1849791961581
 51
178.8143567341482
210
0.0
220
0.0
230
-1.0
  0
ARC
  5
1ED
  8
LAYER_01
 10
-2139.794436715076
 20
1092.754686159853
 30
0.0
 40
122.9383445975604
 50
132.8813321985254
 51
139.2418967458898
  0
ARC
  5
1EE
  8
LAYER_01
 10
2049.536987709838
 20
1267.635783513062
 30
0.0
 40
144.6774082139775
 50
305.9056392491104
 51
335.8274760575827
210
0.0
220
0.0
230
-1.0
  0
ARC
  5
1EF
  8
LAYER_01
 10
-2218.970593213139
 20
1196.843164244878
 30
0.0
 40
96.47477104201892
 50
287.3385866990382
 51
331.2564525989245
  0
ARC
  5
1F0
  8
LAYER_01
 10
2344.93679555676
 20
1097.983721500364
 30
0.0
 40
154.8653815629161
 50
144.7898529365565
 51
177.4950664665039
210
0.0
220
0.0
230
-1.0
  0
ARC
  5
1F1
  8
LAYER_01
 10
-2139.794436715168
 20
1092.754686159936
 30
0.0
 40
122.9383445974374
 50
109.8447210349189
 51
129.7494796377124
  0
ARC
  5
1F2
  8
LAYER_01
 10
-2118.843771960999
 20
746.3039513121133
 30
0.0
 40
142.5343941815721
 50
26.29991851405837
 51
65.24948142280772
  0
ARC
  5
1F3
  8
LAYER_01
 10
1933.564441386629
 20
669.5228570905946
 30
0.0
 40
151.2865253232123
 50
62.59954612791615
 51
67.66213656460835
210
0.0
220
0.0
230
-1.0
  0
ARC
  5
1F4
  8
LAYER_01
 10
2118.843771961012
 20
746.3039513121006
 30
0.0
 40
129.1758327350716
 50
116.8075210455469
 51
153.552085496223
210
0.0
220
0.0
230
-1.0
  0
ARC
  5
1F5
  8
LAYER_01
 10
2133.425819038501
 20
876.0368974876263
 30
0.0
 40
74.25720421571563
 50
180.2251871547655
 51
191.213195892569
210
0.0
220
0.0
230
-1.0
  0
ARC
  5
1F6
  8
LAYER_01
 10
-2339.167893627465
 20
749.5763199796055
 30
0.0
 40
113.4112928972536
 50
37.58259842003815
 51
51.44769621603587
  0
ARC
  5
1F7
  8
LAYER_01
 10
2118.843771961004
 20
746.3039513121079
 30
0.0
 40
149.2136749048368
 50
332.656968810798
 51
29.04487960461486
210
0.0
220
0.0
230
-1.0
  0
ARC
  5
1F8
  8
LAYER_01
 10
-2339.167893627465
 20
749.576319979605
 30
0.0
 40
113.4112928972523
 50
128.0875155085507
 51
320.7155531645502
  0
ARC
  5
1F9
  8
LAYER_01
 10
2338.447617303374
 20
927.1563895529965
 30
0.0
 40
113.1176233708416
 50
231.7948308696113
 51
308.6699574058014
210
0.0
220
0.0
230
-1.0
  0
ARC
  5
1FA
  8
LAYER_01
 10
1468.275014260628
 20
1258.564586464535
 30
0.0
 40
109.9254918759629
 50
281.9631897481723
 51
321.6376482194148
210
0.0
220
0.0
230
-1.0
  0
ARC
  5
1FB
  8
LAYER_01
 10
-1360.817971484092
 20
1105.226221852144
 30
0.0
 40
138.0610251056899
 50
89.41871140555175
 51
160.6255870418934
  0
ARC
  5
1FC
  8
LAYER_01
 10
1468.27501426063
 20
1258.564586464532
 30
0.0
 40
109.9254918759587
 50
40.72937128515617
 51
187.9925118043836
210
0.0
220
0.0
230
-1.0
  0
ARC
  5
1FD
  8
LAYER_01
 10
-1576.670262452398
 20
1260.803932594166
 30
0.0
 40
73.87789698011531
 50
287.4894290549863
 51
70.14355144044218
  0
ARC
  5
1FE
  8
LAYER_01
 10
-1635.252673671973
 20
823.4592106234412
 30
0.0
 40
27.21115571335209
 50
73.06185495523609
 51
164.3561114679923
  0
ARC
  5
1FF
  8
LAYER_01
 10
1582.428364549098
 20
727.009539078162
 30
0.0
 40
130.4498251270523
 50
52.71303950436637
 51
69.86899407240575
210
0.0
220
0.0
230
-1.0
  0
ARC
  5
200
  8
LAYER_01
 10
-2344.93679555676
 20
1097.983721500357
 30
0.0
 40
148.1861008396587
 50
322.1458752748874
 51
354.9771232044502
  0
ARC
  5
201
  8
LAYER_01
 10
-2139.794436715235
 20
1092.754686159874
 30
0.0
 40
122.9383445973461
 50
217.8378210047826
 51
224.1983855521577
  0
ARC
  5
202
  8
LAYER_01
 10
2344.936795556754
 20
1097.983721500354
 30
0.0
 40
134.8275393931341
 50
186.2874669632706
 51
216.735303053166
210
0.0
220
0.0
230
-1.0
  0
ARC
  5
203
  8
LAYER_01
 10
2218.970593213148
 20
1196.843164244896
 30
0.0
 40
113.9101609244901
 50
259.0431650621053
 51
265.9473731859925
210
0.0
220
0.0
230
-1.0
  0
ARC
  5
204
  8
LAYER_01
 10
2049.536987709822
 20
1267.635783513075
 30
0.0
 40
124.6395660442217
 50
308.0962923618007
 51
334.3535956568365
210
0.0
220
0.0
230
-1.0
  0
ARC
  5
205
  8
LAYER_01
 10
-2218.970593213176
 20
1196.843164244898
 30
0.0
 40
96.47477104206156
 50
335.2779858782716
 51
343.5648518801333
  0
ARC
  5
206
  8
LAYER_01
 10
-2049.536987709827
 20
1267.635783513072
 30
0.0
 40
137.9981274907335
 50
204.45884340206
 51
233.6462630127301
  0
ARC
  5
207
  8
LAYER_01
 10
-2139.794436715155
 20
1092.754686159886
 30
0.0
 40
122.9383445974891
 50
100.3574458401389
 51
106.7140871556909
  0
ARC
  5
208
  8
LAYER_01
 10
1635.252673671973
 20
823.4592106234421
 30
0.0
 40
27.21115571335108
 50
171.5564294488782
 51
311.0256041278951
210
0.0
220
0.0
230
-1.0
  0
ARC
  5
209
  8
LAYER_01
 10
1582.428364549105
 20
727.0095390781743
 30
0.0
 40
103.7327022340025
 50
47.04523961818091
 51
75.53679395859174
210
0.0
220
0.0
230
-1.0
  0
ARC
  5
20A
  8
LAYER_01
 10
1582.428364549112
 20
727.0095390781674
 30
0.0
 40
110.4119829572669
 50
83.52136385257685
 51
131.0081179067354
210
0.0
220
0.0
230
-1.0
  0
ARC
  5
20B
  8
LAYER_01
 10
1635.252673671974
 20
823.4592106234421
 30
0.0
 40
42.48747897207081
 50
142.5441503160513
 51
161.8185996114821
210
0.0
220
0.0
230
-1.0
  0
ARC
  5
20C
  8
LAYER_01
 10
-1582.428364549108
 20
727.0095390781802
 30
0.0
 40
123.7705444037726
 50
49.60497497183733
 51
98.87573707303861
  0
ARC
  5
20D
  8
LAYER_01
 10
1390.14740681093
 20
733.5704586930909
 30
0.0
 40
142.3079664141947
 50
32.6413120961786
 51
38.04524336058185
210
0.0
220
0.0
230
-1.0
  0
ARC
  5
20E
  8
LAYER_01
 10
-1577.393657621355
 20
1005.651850202058
 30
0.0
 40
87.47557511471572
 50
146.7469903291873
 51
212.0042078482219
  0
ARC
  5
20F
  8
LAYER_01
 10
-1773.394507841543
 20
1007.787922974453
 30
0.0
 40
131.1190654077037
 50
338.2926330117708
 51
20.45856516563904
  0
ARC
  5
210
  8
LAYER_01
 10
-1748.460930493955
 20
986.9238569321627
 30
0.0
 40
49.15328313114094
 50
186.0609077640364
 51
285.3351150761932
  0
ARC
  5
211
  8
LAYER_01
 10
-1810.671050498809
 20
895.7340302323149
 30
0.0
 40
87.02713494205295
 50
30.20779768870919
 51
81.18822515152033
  0
ARC
  5
212
  8
LAYER_01
 10
1748.46093049395
 20
986.9238569321591
 30
0.0
 40
73.36550308632144
 50
199.8154969674827
 51
234.0123881846128
210
0.0
220
0.0
230
-1.0
  0
ARC
  5
213
  8
LAYER_01
 10
1577.393657621342
 20
1005.651850202066
 30
0.0
 40
110.9691932589294
 50
321.0728694455838
 51
336.8657505596946
210
0.0
220
0.0
230
-1.0
  0
ARC
  5
214
  8
LAYER_01
 10
-1773.394507841533
 20
1007.787922974444
 30
0.0
 40
131.1190654076903
 50
303.6777746885447
 51
326.7657700271926
  0
ARC
  5
215
  8
LAYER_01
 10
1810.671050498805
 20
895.7340302323158
 30
0.0
 40
110.0242097384874
 50
163.1858178807579
 51
178.4684646815195
210
0.0
220
0.0
230
-1.0
  0
ARC
  5
216
  8
LAYER_01
 10
1773.39450784154
 20
1007.787922974451
 30
0.0
 40
141.1379864925879
 50
214.3338002489761
 51
239.1524907396231
210
0.0
220
0.0
230
-1.0
  0
ARC
  5
217
  8
LAYER_01
 10
1577.393657621402
 20
1005.651850202
 30
0.0
 40
110.9691932588396
 50
310.4932638672996
 51
315.7252112845379
210
0.0
220
0.0
230
-1.0
  0
ARC
  5
218
  8
LAYER_01
 10
-1773.394507841544
 20
1007.787922974455
 30
0.0
 40
151.156907577482
 50
297.8468083456447
 51
325.0804106006663
  0
ARC
  5
219
  8
LAYER_01
 10
1810.671050498758
 20
895.7340302323117
 30
0.0
 40
110.0242097384405
 50
184.7537120156286
 51
191.3213352342294
210
0.0
220
0.0
230
-1.0
  0
ARC
  5
21A
  8
LAYER_01
 10
1810.671050498808
 20
895.7340302323181
 30
0.0
 40
87.02713494205273
 50
231.8148615620174
 51
344.986219221649
210
0.0
220
0.0
230
-1.0
  0
ARC
  5
21B
  8
LAYER_01
 10
-1773.394507841539
 20
1007.787922974462
 30
0.0
 40
181.2136708321532
 50
227.9671177488644
 51
275.2318014674692
  0
ARC
  5
21C
  8
LAYER_01
 10
-2218.970593213149
 20
1196.843164244881
 30
0.0
 40
96.4747710420329
 50
29.61475500021507
 51
57.42517643523929
  0
ARC
  5
21D
  8
LAYER_01
 10
2139.794436715167
 20
1092.754686159944
 30
0.0
 40
151.8356405990591
 50
80.52388055609151
 51
91.77229649453145
210
0.0
220
0.0
230
-1.0
  0
ARC
  5
21E
  8
LAYER_01
 10
-2049.53698770983
 20
1267.635783513072
 30
0.0
 40
117.9602853209542
 50
174.8904331688494
 51
192.2941508954305
  0
ARC
  5
21F
  8
LAYER_01
 10
-2218.970593213148
 20
1196.843164244887
 30
0.0
 40
113.9101609244825
 50
334.0503640436078
 51
340.8215113819348
  0
ARC
  5
220
  8
LAYER_01
 10
-2218.970593213121
 20
1196.843164244945
 30
0.0
 40
113.9101609244145
 50
64.53070929047713
 51
71.30185662880788
  0
ARC
  5
221
  8
LAYER_01
 10
-2218.970593213144
 20
1196.843164244885
 30
0.0
 40
96.47477104202736
 50
74.09576807349181
 51
148.911716183929
  0
ARC
  5
222
  8
LAYER_01
 10
2049.536987709844
 20
1267.635783513071
 30
0.0
 40
144.6774082139758
 50
347.2934195652845
 51
8.742140078476124
210
0.0
220
0.0
230
-1.0
  0
ARC
  5
223
  8
LAYER_01
 10
2139.794436715157
 20
1092.754686159921
 30
0.0
 40
151.8356405990847
 50
50.09550111735833
 51
70.42274940308212
210
0.0
220
0.0
230
-1.0
  0
ARC
  5
224
  8
LAYER_01
 10
2344.93679555677
 20
1097.983721500356
 30
0.0
 40
154.8653815629293
 50
106.2546306505284
 51
134.0822267390249
210
0.0
220
0.0
230
-1.0
  0
ARC
  5
225
  8
LAYER_01
 10
-2344.936795556754
 20
1097.983721500381
 30
0.0
 40
148.1861008396412
 50
46.13232632683555
 51
74.33265404168449
  0
ARC
  5
226
  8
LAYER_01
 10
2139.794436715197
 20
1092.754686159972
 30
0.0
 40
151.83564059902
 50
42.52206665425924
 51
47.56576875186866
210
0.0
220
0.0
230
-1.0
  0
ARC
  5
227
  8
LAYER_01
 10
2344.936795556761
 20
1097.98372150037
 30
0.0
 40
134.8275393931359
 50
104.9353403828813
 51
133.7511138436901
210
0.0
220
0.0
230
-1.0
  0
ARC
  5
228
  8
LAYER_01
 10
-2218.97059321319
 20
1196.843164244907
 30
0.0
 40
96.47477104197677
 50
152.9851390118238
 51
160.9973968065959
  0
ARC
  5
229
  8
LAYER_01
 10
-1577.393657621381
 20
1005.651850202124
 30
0.0
 40
110.9691932588433
 50
109.3468170556978
 51
113.6679107556988
  0
ARC
  5
22A
  8
LAYER_01
 10
-1608.371535348731
 20
1152.298659424288
 30
0.0
 40
42.34098916723133
 50
244.4313563058773
 51
262.1477229319405
  0
ARC
  5
22B
  8
LAYER_01
 10
-1773.39450784163
 20
1007.787922974396
 30
0.0
 40
181.21367083225
 50
33.30332572847344
 51
35.9224707436615
  0
ARC
  5
22C
  8
LAYER_01
 10
-1748.460930493955
 20
986.9238569321636
 30
0.0
 40
49.15328313114021
 50
84.84268031781299
 51
124.0850653253877
  0
ARC
  5
22D
  8
LAYER_01
 10
-1765.372431453422
 20
1052.486290966571
 30
0.0
 40
27.03323941691101
 50
246.8331780041735
 51
322.0945676390272
  0
ARC
  5
22E
  8
LAYER_01
 10
-1810.67105049881
 20
895.7340302323181
 30
0.0
 40
87.02713494204981
 50
97.25763436312941
 51
149.4465500006345
  0
ARC
  5
22F
  8
LAYER_01
 10
1748.460930493954
 20
986.9238569321636
 30
0.0
 40
73.36550308632796
 50
252.4021959248107
 51
356.2017812349591
210
0.0
220
0.0
230
-1.0
  0
ARC
  5
230
  8
LAYER_01
 10
-1810.671050498802
 20
895.7340302323158
 30
0.0
 40
87.02713494204563
 50
353.7523692156994
 51
14.13838847710122
  0
ARC
  5
231
  8
LAYER_01
 10
-1773.394507841543
 20
1007.787922974453
 30
0.0
 40
131.1190654077031
 50
211.1444000706927
 51
292.0545191456412
  0
ARC
  5
232
  8
LAYER_01
 10
1773.394507841543
 20
1007.787922974452
 30
0.0
 40
161.1758286623666
 50
256.5910260627677
 51
320.2100547208986
210
0.0
220
0.0
230
-1.0
  0
ARC
  5
233
  8
LAYER_01
 10
-1810.67105049884
 20
895.7340302323413
 30
0.0
 40
87.02713494209195
 50
319.3330974921561
 51
329.0722288842176
  0
ARC
  5
234
  8
LAYER_01
 10
-1773.394507841544
 20
1007.787922974447
 30
0.0
 40
171.1947497472502
 50
223.5362692596215
 51
279.6626499567118
  0
ARC
  5
235
  8
LAYER_01
 10
-1810.671050498808
 20
895.7340302323158
 30
0.0
 40
87.0271349420519
 50
174.1266903321122
 51
183.8658217241777
  0
ARC
  5
236
  8
LAYER_01
 10
-2118.843771961004
 20
746.303951312112
 30
0.0
 40
142.5343941815751
 50
74.50640805211776
 51
118.3199051059314
  0
ARC
  5
237
  8
LAYER_01
 10
-2133.42581903851
 20
876.0368974876272
 30
0.0
 40
53.20608795639215
 50
353.1475158365832
 51
8.235979620978373
  0
ARC
  5
238
  8
LAYER_01
 10
2118.843771961006
 20
746.3039513121229
 30
0.0
 40
129.175832735047
 50
59.95249595861225
 51
107.2211908833389
210
0.0
220
0.0
230
-1.0
  0
ARC
  5
239
  8
LAYER_01
 10
-2133.425819038514
 20
876.0368974876263
 30
0.0
 40
53.20608795639009
 50
184.5903335370705
 51
199.6787973214659
  0
ARC
  5
23A
  8
LAYER_01
 10
2118.843771960996
 20
746.3039513121097
 30
0.0
 40
129.175832735067
 50
337.7885913175125
 51
23.91325709789906
210
0.0
220
0.0
230
-1.0
  0
ARC
  5
23B
  8
LAYER_01
 10
-2339.167893627431
 20
749.5763199795855
 30
0.0
 40
113.4112928972136
 50
324.4666728878527
 51
332.6499345737392
  0
ARC
  5
23C
  8
LAYER_01
 10
-2118.843771961005
 20
746.3039513121088
 30
0.0
 40
142.5343941815769
 50
152.2280779237329
 51
206.0700736608549
  0
ARC
  5
23D
  8
LAYER_01
 10
-2339.167893627423
 20
749.5763199796273
 30
0.0
 40
113.4112928972066
 50
25.64821701084972
 51
33.83147869673629
  0
ARC
  5
23E
  8
LAYER_01
 10
2139.794436715164
 20
1092.754686159939
 30
0.0
 40
151.8356405990717
 50
279.6874651482818
 51
309.3815420744596
210
0.0
220
0.0
230
-1.0
  0
ARC
  5
23F
  8
LAYER_01
 10
2133.425819038511
 20
876.0368974876272
 30
0.0
 40
74.2572042157255
 50
352.721886400688
 51
64.54272124782918
210
0.0
220
0.0
230
-1.0
  0
ARC
  5
240
  8
LAYER_01
 10
2118.843771961014
 20
746.303951312117
 30
0.0
 40
149.2136749048237
 50
42.43164861725165
 51
53.74549148923764
210
0.0
220
0.0
230
-1.0
  0
ARC
  5
241
  8
LAYER_01
 10
2339.167893627475
 20
749.5763199795946
 30
0.0
 40
147.070593089527
 50
129.6213938571078
 51
138.5251219974058
210
0.0
220
0.0
230
-1.0
  0
ARC
  5
242
  8
LAYER_01
 10
2338.447617303377
 20
927.1563895529938
 30
0.0
 40
113.1176233708413
 50
154.7576629783671
 51
214.6382263409573
210
0.0
220
0.0
230
-1.0
  0
ARC
  5
243
  8
LAYER_01
 10
2139.794436715161
 20
1092.754686159937
 30
0.0
 40
122.9383445974431
 50
325.4268136818199
 51
359.4957621699156
210
0.0
220
0.0
230
-1.0
  0
ARC
  5
244
  8
LAYER_01
 10
2344.936795556769
 20
1097.983721500359
 30
0.0
 40
128.1482586698905
 50
186.7415053518245
 51
215.8166124087195
210
0.0
220
0.0
230
-1.0
  0
ARC
  5
245
  8
LAYER_01
 10
-2218.970593213146
 20
1196.843164244877
 30
0.0
 40
113.9101609244713
 50
247.4096511565033
 51
270.6519018355736
  0
ARC
  5
246
  8
LAYER_01
 10
-2218.970593213115
 20
1196.843164244882
 30
0.0
 40
96.4747710419979
 50
347.9270442371717
 51
10.66360082154241
  0
ARC
  5
247
  8
LAYER_01
 10
-2049.536987709819
 20
1267.635783513078
 30
0.0
 40
117.9602853209667
 50
206.6359949442345
 51
230.4617875035632
  0
ARC
  5
248
  8
LAYER_01
 10
-2139.794436715167
 20
1092.754686159944
 30
0.0
 40
122.9383445974299
 50
82.69462680671406
 51
97.09468185595794
  0
ARC
  5
249
  8
LAYER_01
 10
2118.843771961005
 20
746.3039513121029
 30
0.0
 40
129.175832735055
 50
251.4668558725965
 51
320.8527389047445
210
0.0
220
0.0
230
-1.0
  0
ARC
  5
24A
  8
LAYER_01
 10
1933.564441386598
 20
669.5228570905887
 30
0.0
 40
151.2865253232493
 50
337.3568048042167
 51
342.4193952409076
210
0.0
220
0.0
230
-1.0
  0
ARC
  5
24B
  8
LAYER_01
 10
-2118.843771961003
 20
746.3039513121092
 30
0.0
 40
142.5343941815786
 50
220.3806572910394
 51
288.6811401171179
  0
ARC
  5
24C
  8
LAYER_01
 10
2339.167893627417
 20
749.5763199795678
 30
0.0
 40
147.0705930894509
 50
215.2223441258112
 51
220.5514511536197
210
0.0
220
0.0
230
-1.0
  0
ARC
  5
24D
  8
LAYER_01
 10
1582.428364549116
 20
727.0095390781943
 30
0.0
 40
110.4119829572387
 50
47.10762491641183
 51
75.47440866036092
210
0.0
220
0.0
230
-1.0
  0
ARC
  5
24E
  8
LAYER_01
 10
-1635.252673671974
 20
823.4592106234421
 30
0.0
 40
27.21115571335048
 50
184.1675718717031
 51
214.8728049483829
  0
ARC
  5
24F
  8
LAYER_01
 10
-1582.428364549108
 20
727.0095390781797
 30
0.0
 40
123.770544403773
 50
107.1725785632113
 51
130.2453878600156
  0
ARC
  5
250
  8
LAYER_01
 10
-1635.252673671974
 20
823.4592106234417
 30
0.0
 40
27.2111557133523
 50
22.5451614748447
 51
53.25039455152213
  0
ARC
  5
251
  8
LAYER_01
 10
1468.275014260625
 20
1258.564586464539
 30
0.0
 40
136.6426147690036
 50
282.3262432107859
 51
316.89788543729
210
0.0
220
0.0
230
-1.0
  0
ARC
  5
252
  8
LAYER_01
 10
1360.817971484097
 20
1105.22622185214
 30
0.0
 40
138.0610251056853
 50
350.3408818715527
 51
8.264639914179515
210
0.0
220
0.0
230
-1.0
  0
ARC
  5
253
  8
LAYER_01
 10
1577.393657621352
 20
1005.651850202065
 30
0.0
 40
110.9691932589072
 50
85.4910470238606
 51
136.4832628587275
210
0.0
220
0.0
230
-1.0
  0
ARC
  5
254
  8
LAYER_01
 10
1608.371535348733
 20
1152.298659424279
 30
0.0
 40
42.34098916722227
 50
162.264671078834
 51
238.2919529001066
210
0.0
220
0.0
230
-1.0
  0
ARC
  5
255
  8
LAYER_01
 10
1468.275014260628
 20
1258.564586464534
 30
0.0
 40
116.604772599221
 50
282.3090678157646
 51
323.069743681532
210
0.0
220
0.0
230
-1.0
  0
ARC
  5
256
  8
LAYER_01
 10
1360.817971484089
 20
1105.22622185214
 30
0.0
 40
138.0610251056931
 50
11.04001157542903
 51
16.58774132926346
210
0.0
220
0.0
230
-1.0
  0
ARC
  5
257
  8
LAYER_01
 10
-1468.275014260635
 20
1258.564586464525
 30
0.0
 40
129.9633340457287
 50
213.4508299409414
 51
257.5362269091775
  0
ARC
  5
258
  8
LAYER_01
 10
1576.670262452396
 20
1260.803932594166
 30
0.0
 40
73.87789698011495
 50
258.1386330104777
 51
270.0316827247174
210
0.0
220
0.0
230
-1.0
  0
ARC
  5
259
  8
LAYER_01
 10
-1468.27501426063
 20
1258.564586464533
 30
0.0
 40
129.9633340457358
 50
352.5080715382685
 51
144.1821505544863
  0
ARC
  5
25A
  8
LAYER_01
 10
1360.817971484093
 20
1105.226221852133
 30
0.0
 40
138.0610251057007
 50
93.36796022329295
 51
98.91568997712693
210
0.0
220
0.0
230
-1.0
  0
ARC
  5
25B
  8
LAYER_01
 10
1468.275014260629
 20
1258.564586464533
 30
0.0
 40
116.6047725992178
 50
39.29727582303835
 51
187.6466337367913
210
0.0
220
0.0
230
-1.0
  0
ARC
  5
25C
  8
LAYER_01
 10
1576.670262452396
 20
1260.803932594166
 30
0.0
 40
73.87789698011495
 50
92.33533677985395
 51
104.2283864940939
210
0.0
220
0.0
230
-1.0
  0
ARC
  5
25D
  8
LAYER_01
 10
1576.670262452394
 20
1260.803932594166
 30
0.0
 40
49.03937726469764
 50
102.4406002956635
 51
259.9264192089084
210
0.0
220
0.0
230
-1.0
  0
ARC
  5
25E
  8
LAYER_01
 10
1468.27501426063
 20
1258.564586464531
 30
0.0
 40
109.9254918759589
 50
335.2369940571768
 51
27.13002544739506
210
0.0
220
0.0
230
-1.0
  0
ARC
  5
25F
  8
LAYER_01
 10
1773.394507841547
 20
1007.787922974459
 30
0.0
 40
161.1758286623753
 50
215.1051698968066
 51
245.3508826457877
210
0.0
220
0.0
230
-1.0
  0
ARC
  5
260
  8
LAYER_01
 10
1577.393657621364
 20
1005.651850202045
 30
0.0
 40
110.9691932588983
 50
300.1329712746773
 51
305.3119325290315
210
0.0
220
0.0
230
-1.0
  0
ARC
  5
261
  8
LAYER_01
 10
-1773.394507841533
 20
1007.787922974441
 30
0.0
 40
171.1947497472416
 50
291.2138376882222
 51
325.034348682984
  0
ARC
  5
262
  8
LAYER_01
 10
1810.671050498793
 20
895.7340302323104
 30
0.0
 40
110.0242097384744
 50
198.2389343972684
 51
205.6001141770923
210
0.0
220
0.0
230
-1.0
  0
ARC
  5
263
  8
LAYER_01
 10
1577.393657621355
 20
1005.651850202058
 30
0.0
 40
110.9691932589132
 50
10.63883003984009
 51
40.17593237700746
210
0.0
220
0.0
230
-1.0
  0
ARC
  5
264
  8
LAYER_01
 10
1748.460930493954
 20
986.923856932165
 30
0.0
 40
73.36550308632525
 50
109.1448333456848
 51
147.6890836320525
210
0.0
220
0.0
230
-1.0
  0
ARC
  5
265
  8
LAYER_01
 10
1765.372431453423
 20
1052.48629096657
 30
0.0
 40
41.14308103821957
 50
85.06348909478729
 51
174.776914659749
210
0.0
220
0.0
230
-1.0
  0
ARC
  5
266
  8
LAYER_01
 10
1765.372431453424
 20
1052.486290966571
 30
0.0
 40
41.14308103821752
 50
336.2953396970491
 51
22.33872551173775
210
0.0
220
0.0
230
-1.0
  0
ARC
  5
267
  8
LAYER_01
 10
1748.460930493955
 20
986.9238569321632
 30
0.0
 40
73.3655030863271
 50
14.59158897515934
 51
41.927421011115
210
0.0
220
0.0
230
-1.0
  0
ARC
  5
268
  8
LAYER_01
 10
1810.671050498806
 20
895.7340302323117
 30
0.0
 40
110.0242097384951
 50
38.33261610214744
 51
85.4181592790104
210
0.0
220
0.0
230
-1.0
  0
ARC
  5
269
  8
LAYER_01
 10
2133.425819038511
 20
876.0368974876272
 30
0.0
 40
53.2060879563933
 50
194.1028753874442
 51
333.0708114545068
210
0.0
220
0.0
230
-1.0
  0
ARC
  5
26A
  8
LAYER_01
 10
2118.843771961004
 20
746.3039513121142
 30
0.0
 40
122.4965520117955
 50
59.58294663126517
 51
107.5907402106858
210
0.0
220
0.0
230
-1.0
  0
ARC
  5
26B
  8
LAYER_01
 10
-1748.460930493954
 20
986.9238569321632
 30
0.0
 40
49.15328313114166
 50
141.5801538313335
 51
158.9975533829048
  0
ARC
  5
26C
  8
LAYER_01
 10
1765.372431453422
 20
1052.48629096657
 30
0.0
 40
41.14308103821838
 50
209.405794467739
 51
301.6664598890601
210
0.0
220
0.0
230
-1.0
  0
ARC
  5
26D
  8
LAYER_01
 10
-1748.460930493954
 20
986.9238569321636
 30
0.0
 40
49.15328313114036
 50
312.3984694573244
 51
67.34759181186828
  0
ARC
  5
26E
  8
LAYER_01
 10
1810.671050498808
 20
895.7340302323163
 30
0.0
 40
110.0242097384903
 50
98.5314438993714
 51
150.0725332603986
210
0.0
220
0.0
230
-1.0
  0
ARC
  5
26F
  8
LAYER_01
 10
-2338.447617303373
 20
927.1563895529933
 30
0.0
 40
91.74686030152151
 50
325.5519014621098
 51
27.98721335792024
  0
ARC
  5
270
  8
LAYER_01
 10
2339.167893627464
 20
749.5763199796073
 30
0.0
 40
147.07059308951
 50
59.17740543928343
 51
121.2873828361291
210
0.0
220
0.0
230
-1.0
  0
ARC
  5
271
  8
LAYER_01
 10
-2338.447617303374
 20
927.1563895529933
 30
0.0
 40
91.74686030152331
 50
156.3636576710573
 51
213.9833102624769
  0
ARC
  5
272
  8
LAYER_01
 10
2344.936795556768
 20
1097.983721500362
 30
0.0
 40
154.8653815629269
 50
235.5943377396807
 51
300.0547912313419
210
0.0
220
0.0
230
-1.0
  0
ARC
  5
273
  8
LAYER_01
 10
-1582.42836454911
 20
727.0095390781779
 30
0.0
 40
123.7705444037726
 50
138.5422293501873
 51
314.303547439992
  0
ARC
  5
274
  8
LAYER_01
 10
1635.252673671974
 20
823.4592106234417
 30
0.0
 40
42.48747897207001
 50
320.7634339652911
 51
340.0378832607221
210
0.0
220
0.0
230
-1.0
  0
ARC
  5
275
  8
LAYER_01
 10
1582.428364549107
 20
727.009539078182
 30
0.0
 40
110.4119829572549
 50
225.083359681435
 51
39.06066972419764
210
0.0
220
0.0
230
-1.0
  0
ARC
  5
276
  8
LAYER_01
 10
1390.147406810873
 20
733.5704586931209
 30
0.0
 40
142.3079664142675
 50
318.0462342275923
 51
323.4501654919926
210
0.0
220
0.0
230
-1.0
  0
ARC
  5
277
  8
LAYER_01
 10
-1582.428364549107
 20
727.009539078182
 30
0.0
 40
103.7327022339953
 50
141.4027982208263
 51
315.5500182326832
  0
ARC
  5
278
  8
LAYER_01
 10
1635.252673671974
 20
823.4592106234398
 30
0.0
 40
42.48747897206876
 50
241.6427838423878
 51
311.6713270085522
210
0.0
220
0.0
230
-1.0
  0
ARC
  5
279
  8
LAYER_01
 10
1576.707707894724
 20
767.2311731057147
 30
0.0
 40
42.74064543085727
 50
61.53385848836887
 51
26.15319023130083
210
0.0
220
0.0
230
-1.0
  0
ARC
  5
27A
  8
LAYER_01
 10
1635.252673671977
 20
823.459210623443
 30
0.0
 40
42.4874789720743
 50
170.9107065682238
 51
206.0442648772771
210
0.0
220
0.0
230
-1.0
  0
ARC
  5
27B
  8
LAYER_01
 10
-1582.428364549109
 20
727.0095390781761
 30
0.0
 40
103.7327022339996
 50
48.35850417914468
 51
96.0151682024011
  0
ARC
  5
27C
  8
LAYER_01
 10
1390.147406810921
 20
733.5704586930837
 30
0.0
 40
142.3079664142062
 50
326.1814818491183
 51
29.90999573905415
210
0.0
220
0.0
230
-1.0
  0
ARC
  5
27D
  8
LAYER_01
 10
2118.843771961005
 20
746.3039513121097
 30
0.0
 40
129.1758327350616
 50
166.9315439337747
 51
238.0873974350482
210
0.0
220
0.0
230
-1.0
  0
ARC
  5
27E
  8
LAYER_01
 10
-1933.564441386606
 20
669.5228570905505
 30
0.0
 40
121.5236924087892
 50
112.8367051702122
 51
119.2878425615278
  0
ARC
  5
27F
  8
LAYER_01
 10
-2118.843771961003
 20
746.3039513121079
 30
0.0
 40
142.5343941815771
 50
300.6764648787171
 51
14.30459375246043
  0
ARC
  5
280
  8
LAYER_01
 10
-1933.564441386632
 20
669.5228570905809
 30
0.0
 40
121.5236924087425
 50
195.6932160696484
 51
202.1443534609669
  0
ARC
  5
281
  8
LAYER_01
 10
-1468.275014260621
 20
1258.564586464531
 30
0.0
 40
129.9633340457445
 50
157.4289129323423
 51
200.2040675630861
  0
ARC
  5
282
  8
LAYER_01
 10
-1576.670262452396
 20
1260.80393259417
 30
0.0
 40
49.0393772646951
 50
85.7829529064392
 51
103.6988243182107
  0
ARC
  5
283
  8
LAYER_01
 10
1468.27501426063
 20
1258.564586464531
 30
0.0
 40
116.604772599218
 50
336.3507331724793
 51
26.01628633209243
210
0.0
220
0.0
230
-1.0
  0
ARC
  5
284
  8
LAYER_01
 10
-1576.670262452397
 20
1260.803932594161
 30
0.0
 40
49.03937726469271
 50
253.9341561772177
 51
271.8500275889896
  0
ARC
  5
285
  8
LAYER_01
 10
-1576.670262452396
 20
1260.803932594166
 30
0.0
 40
49.03937726469808
 50
113.9227848427814
 51
243.7101956526468
  0
ARC
  5
286
  8
LAYER_01
 10
1468.27501426063
 20
1258.564586464531
 30
0.0
 40
136.6426147689947
 50
342.2190899800846
 51
20.14792952448719
210
0.0
220
0.0
230
-1.0
  0
ARC
  5
287
  8
LAYER_01
 10
1577.393657621368
 20
1005.651850202081
 30
0.0
 40
110.9691932588878
 50
55.93686929355798
 51
61.11583054791263
210
0.0
220
0.0
230
-1.0
  0
ARC
  5
288
  8
LAYER_01
 10
1810.671050498806
 20
895.7340302323149
 30
0.0
 40
110.0242097384926
 50
11.20096660657546
 51
18.56214638639806
210
0.0
220
0.0
230
-1.0
  0
ARC
  5
289
  8
LAYER_01
 10
1773.394507841544
 20
1007.787922974447
 30
0.0
 40
141.1379864925864
 50
250.4674600421746
 51
326.3336207414918
210
0.0
220
0.0
230
-1.0
  0
ARC
  5
28A
  8
LAYER_01
 10
-1810.671050498834
 20
895.734030232324
 30
0.0
 40
87.02713494207853
 50
337.8920460027751
 51
346.0623601746113
  0
ARC
  5
28B
  8
LAYER_01
 10
-1773.394507841541
 20
1007.787922974457
 30
0.0
 40
151.156907577483
 50
216.53235000558
 51
286.6665692107537
  0
ARC
  5
28C
  8
LAYER_01
 10
-1810.671050498775
 20
895.7340302323036
 30
0.0
 40
87.02713494208761
 50
157.1365590417223
 51
165.3068732135571
  0
ARC
  5
28D
  8
LAYER_01
 10
2338.44761730338
 20
927.1563895529924
 30
0.0
 40
113.1176233708341
 50
325.8265619344533
 51
25.62268263938544
210
0.0
220
0.0
230
-1.0
  0
ARC
  5
28E
  8
LAYER_01
 10
2339.16789362746
 20
749.5763199796105
 30
0.0
 40
147.0705930895107
 50
223.1767264180083
 51
50.84339441830257
210
0.0
220
0.0
230
-1.0
  0
ARC
  5
28F
  8
LAYER_01
 10
2118.843771961005
 20
746.3039513121038
 30
0.0
 40
149.2136749048327
 50
251.0840485147582
 51
319.2701997981619
210
0.0
220
0.0
230
-1.0
  0
ARC
  5
290
  8
LAYER_01
 10
1933.564441386623
 20
669.5228570905837
 30
0.0
 40
151.2865253232249
 50
126.921842301573
 51
334.8168886404385
210
0.0
220
0.0
230
-1.0
  0
ARC
  5
291
  8
LAYER_01
 10
1810.671050498807
 20
895.7340302323131
 30
0.0
 40
110.0242097384881
 50
213.5416938981635
 51
286.9149722094871
210
0.0
220
0.0
230
-1.0
  0
ARC
  5
292
  8
LAYER_01
 10
1773.39450784154
 20
1007.787922974452
 30
0.0
 40
181.2136708321425
 50
214.5521275510636
 51
252.5215909016974
210
0.0
220
0.0
230
-1.0
  0
ARC
  5
293
  8
LAYER_01
 10
1577.393657621354
 20
1005.651850202055
 30
0.0
 40
110.9691932589114
 50
230.5562032854359
 51
294.9167125782884
210
0.0
220
0.0
230
-1.0
  0
ARC
  5
294
  8
LAYER_01
 10
1471.766301775521
 20
896.5915927236819
 30
0.0
 40
42.187162410826
 50
259.6831990915966
 51
33.63014270456126
210
0.0
220
0.0
230
-1.0
  0
ARC
  5
295
  8
LAYER_01
 10
1390.147406810935
 20
733.5704586930991
 30
0.0
 40
142.3079664141858
 50
40.73508290574885
 51
58.6378486038245
210
0.0
220
0.0
230
-1.0
  0
ARC
  5
296
  8
LAYER_01
 10
1582.428364549111
 20
727.0095390781684
 30
0.0
 40
130.4498251270426
 50
79.17081609360245
 51
130.3435692983676
210
0.0
220
0.0
230
-1.0
  0
ARC
  5
297
  8
LAYER_01
 10
1635.252673671973
 20
823.4592106234426
 30
0.0
 40
42.48747897207028
 50
350.7894500700009
 51
131.7925835067714
210
0.0
220
0.0
230
-1.0
  0
ARC
  5
298
  8
LAYER_01
 10
1582.428364549107
 20
727.0095390781815
 30
0.0
 40
130.4498251270315
 50
225.7479082898029
 51
43.41121748317167
210
0.0
220
0.0
230
-1.0
  0
ARC
  5
299
  8
LAYER_01
 10
1390.147406810921
 20
733.5704586930837
 30
0.0
 40
142.3079664142059
 50
210.4190461158651
 51
315.3563946824223
210
0.0
220
0.0
230
-1.0
  0
ARC
  5
29A
  8
LAYER_01
 10
1158.851138051445
 20
748.2034846069477
 30
0.0
 40
138.9375680746961
 50
268.2350953784234
 51
321.3967570377337
210
0.0
220
0.0
230
-1.0
  0
ARC
  5
29B
  8
LAYER_01
 10
975.4041812790956
 20
660.1052357293273
 30
0.0
 40
186.2231723203417
 50
67.12611033074627
 51
344.1780900517222
210
0.0
220
0.0
230
-1.0
  0
ARC
  5
29C
  8
LAYER_01
 10
1158.851138051439
 20
748.2034846069554
 30
0.0
 40
138.9375680746902
 50
136.9696602170571
 51
143.0691050040455
210
0.0
220
0.0
230
-1.0
  0
ARC
  5
29D
  8
LAYER_01
 10
1146.326955113567
 20
911.6517734272492
 30
0.0
 40
112.4239417357856
 50
147.6626631662622
 51
217.6285512414126
210
0.0
220
0.0
230
-1.0
  0
ARC
  5
29E
  8
LAYER_01
 10
1159.29818233336
 20
1072.671099600523
 30
0.0
 40
147.7591499391477
 50
51.72477291964635
 51
223.0593681599675
210
0.0
220
0.0
230
-1.0
  0
ARC
  5
29F
  8
LAYER_01
 10
1360.817971484088
 20
1105.226221852141
 30
0.0
 40
138.0610251056919
 50
101.6910616383755
 51
142.8152234160226
210
0.0
220
0.0
230
-1.0
  0
ARC
  5
2A0
  8
LAYER_01
 10
1468.275014260631
 20
1258.564586464528
 30
0.0
 40
136.6426147689955
 50
33.75958310674964
 51
187.6294583417689
210
0.0
220
0.0
230
-1.0
  0
ARC
  5
2A1
  8
LAYER_01
 10
1576.670262452396
 20
1260.803932594166
 30
0.0
 40
73.8778969801151
 50
296.3891892429259
 51
85.95897082345326
210
0.0
220
0.0
230
-1.0
  0
ARC
  5
2A2
  8
LAYER_01
 10
1608.371535348733
 20
1152.29865942428
 30
0.0
 40
42.34098916722171
 50
342.0140438009425
 51
88.46399931306327
210
0.0
220
0.0
230
-1.0
  0
ARC
  5
2A3
  8
LAYER_01
 10
1810.671050498811
 20
895.7340302323149
 30
0.0
 40
110.0242097384879
 50
310.1127019885659
 51
3.259386885502507
210
0.0
220
0.0
230
-1.0
  0
ARC
  5
2A4
  8
LAYER_01
 10
1933.564441386623
 20
669.5228570905782
 30
0.0
 40
151.2865253232301
 50
70.2020527283846
 51
110.1058318964789
210
0.0
220
0.0
230
-1.0
  0
ARC
  5
2A5
  8
LAYER_01
 10
2133.425819038513
 20
876.0368974876254
 30
0.0
 40
74.25720421572771
 50
112.0907814055011
 51
174.4518004412627
210
0.0
220
0.0
230
-1.0
  0
ARC
  5
2A6
  8
LAYER_01
 10
2218.970593213145
 20
1196.843164244886
 30
0.0
 40
113.9101609244786
 50
118.9128843627879
 51
156.3784483531936
210
0.0
220
0.0
230
-1.0
  0
ARC
  5
2A7
  8
LAYER_01
 10
2218.970593213139
 20
1196.843164244884
 30
0.0
 40
113.9101609244729
 50
172.8919084830716
 51
195.7348949647983
210
0.0
220
0.0
230
-1.0
  0
ARC
  5
2A8
  8
LAYER_01
 10
2344.936795556768
 20
1097.983721500359
 30
0.0
 40
154.8653815629248
 50
184.2340553741474
 51
218.1304293127661
210
0.0
220
0.0
230
-1.0
  0
ARC
  5
2A9
  8
LAYER_01
 10
2218.970593213143
 20
1196.843164244882
 30
0.0
 40
113.9101609244757
 50
209.3107196324958
 51
255.5230199131268
210
0.0
220
0.0
230
-1.0
  0
ARC
  5
2AA
  8
LAYER_01
 10
2218.970593213146
 20
1196.843164244888
 30
0.0
 40
113.910160924476
 50
28.22667720390316
 51
105.3370596950903
210
0.0
220
0.0
230
-1.0
  0
ARC
  5
2AB
  8
LAYER_01
 10
2344.936795556761
 20
1097.983721500357
 30
0.0
 40
154.8653815629262
 50
308.0751431036682
 51
99.51564174288038
210
0.0
220
0.0
230
-1.0
  0
ENDSEC
  0
EOF
