  0
SECTION
  2
HEADER
  9
$ACADVER
  1
AC1009
  9
$DWGCODEPAGE
  3
ansi_1252
  9
$INSBASE
 10
0.0
 20
0.0
 30
0.0
  9
$EXTMIN
 10
1.000000000000000E+20
 20
1.000000000000000E+20
 30
1.000000000000000E+20
  9
$EXTMAX
 10
-1.000000000000000E+20
 20
-1.000000000000000E+20
 30
-1.000000000000000E+20
  9
$LIMMIN
 10
0.0
 20
0.0
  9
$LIMMAX
 10
12.0
 20
9.0
  9
$ORTHOMODE
 70
     0
  9
$REGENMODE
 70
     1
  9
$FILLMODE
 70
     1
  9
$QTEXTMODE
 70
     0
  9
$MIRRTEXT
 70
     1
  9
$DRAGMODE
 70
     2
  9
$LTSCALE
 40
1.0
  9
$OSMODE
 70
    37
  9
$ATTMODE
 70
     1
  9
$TEXTSIZE
 40
0.2
  9
$TRACEWID
 40
0.05
  9
$TEXTSTYLE
  7
STANDARD
  9
$CLAYER
  8
LAYER_05
  9
$CELTYPE
  6
BYLAYER
  9
$CECOLOR
 62
   256
  9
$DIMSCALE
 40
1.0
  9
$DIMASZ
 40
0.18
  9
$DIMEXO
 40
0.0625
  9
$DIMDLI
 40
0.38
  9
$DIMRND
 40
0.0
  9
$DIMDLE
 40
0.0
  9
$DIMEXE
 40
0.18
  9
$DIMTP
 40
0.0
  9
$DIMTM
 40
0.0
  9
$DIMTXT
 40
0.18
  9
$DIMCEN
 40
0.09
  9
$DIMTSZ
 40
0.0
  9
$DIMTOL
 70
     0
  9
$DIMLIM
 70
     0
  9
$DIMTIH
 70
     1
  9
$DIMTOH
 70
     1
  9
$DIMSE1
 70
     0
  9
$DIMSE2
 70
     0
  9
$DIMTAD
 70
     0
  9
$DIMZIN
 70
     0
  9
$DIMBLK
  1

  9
$DIMASO
 70
     1
  9
$DIMSHO
 70
     1
  9
$DIMPOST
  1

  9
$DIMAPOST
  1

  9
$DIMALT
 70
     0
  9
$DIMALTD
 70
     2
  9
$DIMALTF
 40
25.4
  9
$DIMLFAC
 40
1.0
  9
$DIMTOFL
 70
     0
  9
$DIMTVP
 40
0.0
  9
$DIMTIX
 70
     0
  9
$DIMSOXD
 70
     0
  9
$DIMSAH
 70
     0
  9
$DIMBLK1
  1

  9
$DIMBLK2
  1

  9
$DIMSTYLE
  2
STANDARD_ACAD
  9
$DIMCLRD
 70
     0
  9
$DIMCLRE
 70
     0
  9
$DIMCLRT
 70
     0
  9
$DIMTFAC
 40
1.0
  9
$DIMGAP
 40
0.09
  9
$LUNITS
 70
     2
  9
$LUPREC
 70
     3
  9
$SKETCHINC
 40
0.1
  9
$FILLETRAD
 40
0.5
  9
$AUNITS
 70
     0
  9
$AUPREC
 70
     0
  9
$MENU
  1
.
  9
$ELEVATION
 40
0.0
  9
$PELEVATION
 40
0.0
  9
$THICKNESS
 40
0.0
  9
$LIMCHECK
 70
     0
  9
$CHAMFERA
 40
0.0
  9
$CHAMFERB
 40
0.0
  9
$SKPOLY
 70
     0
  9
$TDCREATE
 40
2460254.618369653
  9
$TDUPDATE
 40
2460254.618369746
  9
$TDINDWG
 40
0.0000000116
  9
$TDUSRTIMER
 40
0.0000000116
  9
$USRTIMER
 70
     1
  9
$ANGBASE
 50
0.0
  9
$ANGDIR
 70
     0
  9
$PDMODE
 70
     0
  9
$PDSIZE
 40
0.0
  9
$PLINEWID
 40
0.0
  9
$COORDS
 70
     1
  9
$SPLFRAME
 70
     0
  9
$SPLINETYPE
 70
     6
  9
$SPLINESEGS
 70
     8
  9
$ATTDIA
 70
     0
  9
$ATTREQ
 70
     1
  9
$HANDLING
 70
     1
  9
$HANDSEED
  5
651
  9
$SURFTAB1
 70
     6
  9
$SURFTAB2
 70
     6
  9
$SURFTYPE
 70
     6
  9
$SURFU
 70
     6
  9
$SURFV
 70
     6
  9
$UCSNAME
  2

  9
$UCSORG
 10
0.0
 20
0.0
 30
0.0
  9
$UCSXDIR
 10
1.0
 20
0.0
 30
0.0
  9
$UCSYDIR
 10
0.0
 20
1.0
 30
0.0
  9
$PUCSNAME
  2

  9
$PUCSORG
 10
0.0
 20
0.0
 30
0.0
  9
$PUCSXDIR
 10
1.0
 20
0.0
 30
0.0
  9
$PUCSYDIR
 10
0.0
 20
1.0
 30
0.0
  9
$USERI1
 70
     0
  9
$USERI2
 70
     0
  9
$USERI3
 70
     0
  9
$USERI4
 70
     0
  9
$USERI5
 70
     0
  9
$USERR1
 40
0.0
  9
$USERR2
 40
0.0
  9
$USERR3
 40
0.0
  9
$USERR4
 40
0.0
  9
$USERR5
 40
0.0
  9
$WORLDVIEW
 70
     1
  9
$SHADEDGE
 70
     3
  9
$SHADEDIF
 70
    70
  9
$TILEMODE
 70
     1
  9
$MAXACTVP
 70
    64
  9
$PLIMCHECK
 70
     0
  9
$PEXTMIN
 10
1.000000000000000E+20
 20
1.000000000000000E+20
 30
1.000000000000000E+20
  9
$PEXTMAX
 10
-1.000000000000000E+20
 20
-1.000000000000000E+20
 30
-1.000000000000000E+20
  9
$PLIMMIN
 10
0.0
 20
0.0
  9
$PLIMMAX
 10
12.0
 20
9.0
  9
$UNITMODE
 70
     0
  9
$VISRETAIN
 70
     1
  9
$PLINEGEN
 70
     0
  9
$PSLTSCALE
 70
     1
  0
ENDSEC
  0
SECTION
  2
TABLES
  0
TABLE
  2
VPORT
 70
     1
  0
VPORT
  2
*ACTIVE
 70
     0
 10
0.0
 20
0.0
 11
1.0
 21
1.0
 12
10.42990654205607
 22
4.5
 13
0.0
 23
0.0
 14
0.5
 24
0.5
 15
0.5
 25
0.5
 16
0.0
 26
0.0
 36
1.0
 17
0.0
 27
0.0
 37
0.0
 40
9.0
 41
1.972972972850329
 42
50.0
 43
0.0
 44
0.0
 50
0.0
 51
0.0
 71
     0
 72
   100
 73
     1
 74
     3
 75
     0
 76
     0
 77
     0
 78
     0
  0
ENDTAB
  0
TABLE
  2
LTYPE
 70
     1
  0
LTYPE
  2
CONTINUOUS
 70
     0
  3
Solid line
 72
    65
 73
     0
 40
0.0
  0
ENDTAB
  0
TABLE
  2
LAYER
 70
     2
  0
LAYER
  2
0
 70
     0
 62
     7
  6
CONTINUOUS
  0
LAYER
  2
LAYER_05
 70
     0
 62
     1
  6
CONTINUOUS
  0
ENDTAB
  0
TABLE
  2
STYLE
 70
     1
  0
STYLE
  2
STANDARD
 70
     0
 40
0.0
 41
1.0
 50
0.0
 71
     0
 42
0.2
  3
txt
  4

  0
ENDTAB
  0
TABLE
  2
VIEW
 70
     0
  0
ENDTAB
  0
TABLE
  2
UCS
 70
     0
  0
ENDTAB
  0
TABLE
  2
APPID
 70
     2
  0
APPID
  2
ACAD
 70
     0
  0
APPID
  2
RHINO
 70
     0
  0
ENDTAB
  0
TABLE
  2
DIMSTYLE
 70
     1
  0
DIMSTYLE
  2
STANDARD_ACAD
 70
     0
  3

  4

  5

  6

  7

 40
1.0
 41
0.18
 42
0.0625
 43
0.38
 44
0.18
 45
0.0
 46
0.0
 47
0.0
 48
0.0
140
0.18
141
0.09
142
0.0
143
25.4
144
1.0
145
0.0
146
1.0
147
0.09
 71
     0
 72
     0
 73
     1
 74
     1
 75
     0
 76
     0
 77
     0
 78
     0
170
     0
171
     2
172
     0
173
     0
174
     0
175
     0
176
     0
177
     0
178
     0
  0
ENDTAB
  0
ENDSEC
  0
SECTION
  2
BLOCKS
  0
BLOCK
  8
0
  2
$MODEL_SPACE
 70
     0
 10
0.0
 20
0.0
 30
0.0
  3
$MODEL_SPACE
  1

  0
ENDBLK
  5
21
  8
0
  0
BLOCK
 67
     1
  8
0
  2
$PAPER_SPACE
 70
     0
 10
0.0
 20
0.0
 30
0.0
  3
$PAPER_SPACE
  1

  0
ENDBLK
  5
1D
 67
     1
  8
0
  0
ENDSEC
  0
SECTION
  2
ENTITIES
  0
POLYLINE
  5
70
  8
LAYER_05
 66
     1
 10
0.0
 20
0.0
 30
0.0
 70
     1
  0
VERTEX
  5
71
  8
LAYER_05
 10
976.7843639640803
 20
1425.080711650939
 30
0.0
  0
VERTEX
  5
72
  8
LAYER_05
 10
971.0865553096144
 20
1429.400522348307
 30
0.0
  0
VERTEX
  5
73
  8
LAYER_05
 10
971.0865553096145
 20
1407.145660693756
 30
0.0
  0
VERTEX
  5
74
  8
LAYER_05
 10
982.5151664328341
 20
1407.64083196346
 30
0.0
  0
VERTEX
  5
75
  8
LAYER_05
 10
973.4572482284352
 20
1414.840902325068
 30
0.0
  0
SEQEND
  5
76
  8
LAYER_05
  0
POLYLINE
  5
77
  8
LAYER_05
 66
     1
 10
0.0
 20
0.0
 30
0.0
 70
     1
  0
VERTEX
  5
78
  8
LAYER_05
 10
976.7843639640803
 20
1368.236352289885
 30
0.0
  0
VERTEX
  5
79
  8
LAYER_05
 10
971.0865553096144
 20
1363.916541592518
 30
0.0
  0
VERTEX
  5
7A
  8
LAYER_05
 10
971.0865553096145
 20
1386.171403247068
 30
0.0
  0
VERTEX
  5
7B
  8
LAYER_05
 10
982.5151664328341
 20
1385.676231977364
 30
0.0
  0
VERTEX
  5
7C
  8
LAYER_05
 10
973.4572482284352
 20
1378.476161615756
 30
0.0
  0
SEQEND
  5
7D
  8
LAYER_05
  0
POLYLINE
  5
7E
  8
LAYER_05
 66
     1
 10
0.0
 20
0.0
 30
0.0
 70
     1
  0
VERTEX
  5
7F
  8
LAYER_05
 10
1055.846056679435
 20
1368.236352289885
 30
0.0
  0
VERTEX
  5
80
  8
LAYER_05
 10
1061.543865333901
 20
1363.916541592518
 30
0.0
  0
VERTEX
  5
81
  8
LAYER_05
 10
1061.543865333901
 20
1386.171403247068
 30
0.0
  0
VERTEX
  5
82
  8
LAYER_05
 10
1050.115254210681
 20
1385.676231977364
 30
0.0
  0
VERTEX
  5
83
  8
LAYER_05
 10
1059.17317241508
 20
1378.476161615756
 30
0.0
  0
SEQEND
  5
84
  8
LAYER_05
  0
POLYLINE
  5
85
  8
LAYER_05
 66
     1
 10
0.0
 20
0.0
 30
0.0
 70
     1
  0
VERTEX
  5
86
  8
LAYER_05
 10
1073.241673988367
 20
1368.236352289885
 30
0.0
  0
VERTEX
  5
87
  8
LAYER_05
 10
1067.543865333901
 20
1363.916541592518
 30
0.0
  0
VERTEX
  5
88
  8
LAYER_05
 10
1067.543865333901
 20
1386.171403247068
 30
0.0
  0
VERTEX
  5
89
  8
LAYER_05
 10
1078.972476457121
 20
1385.676231977364
 30
0.0
  0
VERTEX
  5
8A
  8
LAYER_05
 10
1069.914558252722
 20
1378.476161615756
 30
0.0
  0
SEQEND
  5
8B
  8
LAYER_05
  0
POLYLINE
  5
8C
  8
LAYER_05
 66
     1
 10
0.0
 20
0.0
 30
0.0
 70
     1
  0
VERTEX
  5
8D
  8
LAYER_05
 10
1055.846056679435
 20
1425.080711650939
 30
0.0
  0
VERTEX
  5
8E
  8
LAYER_05
 10
1061.543865333901
 20
1429.400522348307
 30
0.0
  0
VERTEX
  5
8F
  8
LAYER_05
 10
1061.543865333901
 20
1407.145660693756
 30
0.0
  0
VERTEX
  5
90
  8
LAYER_05
 10
1050.115254210681
 20
1407.64083196346
 30
0.0
  0
VERTEX
  5
91
  8
LAYER_05
 10
1059.17317241508
 20
1414.840902325068
 30
0.0
  0
SEQEND
  5
92
  8
LAYER_05
  0
POLYLINE
  5
93
  8
LAYER_05
 66
     1
 10
0.0
 20
0.0
 30
0.0
 70
     1
  0
VERTEX
  5
94
  8
LAYER_05
 10
1073.241673988367
 20
1425.080711650939
 30
0.0
  0
VERTEX
  5
95
  8
LAYER_05
 10
1067.543865333901
 20
1429.400522348307
 30
0.0
  0
VERTEX
  5
96
  8
LAYER_05
 10
1067.543865333901
 20
1407.145660693756
 30
0.0
  0
VERTEX
  5
97
  8
LAYER_05
 10
1078.972476457121
 20
1407.64083196346
 30
0.0
  0
VERTEX
  5
98
  8
LAYER_05
 10
1069.914558252722
 20
1414.840902325068
 30
0.0
  0
SEQEND
  5
99
  8
LAYER_05
  0
POLYLINE
  5
9A
  8
LAYER_05
 66
     1
 10
0.0
 20
0.0
 30
0.0
 70
     1
  0
VERTEX
  5
9B
  8
LAYER_05
 10
1152.303366703721
 20
1425.080711650939
 30
0.0
  0
VERTEX
  5
9C
  8
LAYER_05
 10
1158.001175358187
 20
1429.400522348307
 30
0.0
  0
VERTEX
  5
9D
  8
LAYER_05
 10
1158.001175358187
 20
1407.145660693756
 30
0.0
  0
VERTEX
  5
9E
  8
LAYER_05
 10
1146.572564234968
 20
1407.64083196346
 30
0.0
  0
VERTEX
  5
9F
  8
LAYER_05
 10
1155.630482439366
 20
1414.840902325068
 30
0.0
  0
SEQEND
  5
A0
  8
LAYER_05
  0
POLYLINE
  5
A1
  8
LAYER_05
 66
     1
 10
0.0
 20
0.0
 30
0.0
 70
     1
  0
VERTEX
  5
A2
  8
LAYER_05
 10
1152.303366703721
 20
1368.236352289885
 30
0.0
  0
VERTEX
  5
A3
  8
LAYER_05
 10
1158.001175358187
 20
1363.916541592518
 30
0.0
  0
VERTEX
  5
A4
  8
LAYER_05
 10
1158.001175358187
 20
1386.171403247068
 30
0.0
  0
VERTEX
  5
A5
  8
LAYER_05
 10
1146.572564234968
 20
1385.676231977364
 30
0.0
  0
VERTEX
  5
A6
  8
LAYER_05
 10
1155.630482439366
 20
1378.476161615756
 30
0.0
  0
SEQEND
  5
A7
  8
LAYER_05
  0
POLYLINE
  5
A8
  8
LAYER_05
 66
     1
 10
0.0
 20
0.0
 30
0.0
 70
     1
  0
VERTEX
  5
A9
  8
LAYER_05
 10
1152.303366703721
 20
1492.970720276495
 30
0.0
  0
VERTEX
  5
AA
  8
LAYER_05
 10
1158.001175358187
 20
1488.650909579127
 30
0.0
  0
VERTEX
  5
AB
  8
LAYER_05
 10
1158.001175358187
 20
1510.905771233678
 30
0.0
  0
VERTEX
  5
AC
  8
LAYER_05
 10
1146.572564234968
 20
1510.410599963974
 30
0.0
  0
VERTEX
  5
AD
  8
LAYER_05
 10
1155.630482439366
 20
1503.210529602366
 30
0.0
  0
SEQEND
  5
AE
  8
LAYER_05
  0
POLYLINE
  5
AF
  8
LAYER_05
 66
     1
 10
0.0
 20
0.0
 30
0.0
 70
     1
  0
VERTEX
  5
B0
  8
LAYER_05
 10
1055.846056679435
 20
1492.970720276495
 30
0.0
  0
VERTEX
  5
B1
  8
LAYER_05
 10
1061.543865333901
 20
1488.650909579127
 30
0.0
  0
VERTEX
  5
B2
  8
LAYER_05
 10
1061.543865333901
 20
1510.905771233678
 30
0.0
  0
VERTEX
  5
B3
  8
LAYER_05
 10
1050.115254210681
 20
1510.410599963974
 30
0.0
  0
VERTEX
  5
B4
  8
LAYER_05
 10
1059.17317241508
 20
1503.210529602366
 30
0.0
  0
SEQEND
  5
B5
  8
LAYER_05
  0
POLYLINE
  5
B6
  8
LAYER_05
 66
     1
 10
0.0
 20
0.0
 30
0.0
 70
     1
  0
VERTEX
  5
B7
  8
LAYER_05
 10
1073.241673988367
 20
1492.970720276495
 30
0.0
  0
VERTEX
  5
B8
  8
LAYER_05
 10
1067.543865333901
 20
1488.650909579127
 30
0.0
  0
VERTEX
  5
B9
  8
LAYER_05
 10
1067.543865333901
 20
1510.905771233678
 30
0.0
  0
VERTEX
  5
BA
  8
LAYER_05
 10
1078.972476457121
 20
1510.410599963974
 30
0.0
  0
VERTEX
  5
BB
  8
LAYER_05
 10
1069.914558252722
 20
1503.210529602366
 30
0.0
  0
SEQEND
  5
BC
  8
LAYER_05
  0
POLYLINE
  5
BD
  8
LAYER_05
 66
     1
 10
0.0
 20
0.0
 30
0.0
 70
     1
  0
VERTEX
  5
BE
  8
LAYER_05
 10
976.7843639640803
 20
1492.970720276495
 30
0.0
  0
VERTEX
  5
BF
  8
LAYER_05
 10
971.0865553096144
 20
1488.650909579127
 30
0.0
  0
VERTEX
  5
C0
  8
LAYER_05
 10
971.0865553096145
 20
1510.905771233678
 30
0.0
  0
VERTEX
  5
C1
  8
LAYER_05
 10
982.5151664328341
 20
1510.410599963974
 30
0.0
  0
VERTEX
  5
C2
  8
LAYER_05
 10
973.4572482284352
 20
1503.210529602366
 30
0.0
  0
SEQEND
  5
C3
  8
LAYER_05
  0
POLYLINE
  5
C4
  8
LAYER_05
 66
     1
 10
0.0
 20
0.0
 30
0.0
 70
     1
  0
VERTEX
  5
C5
  8
LAYER_05
 10
976.7843639640803
 20
1549.815079637548
 30
0.0
  0
VERTEX
  5
C6
  8
LAYER_05
 10
971.0865553096144
 20
1554.134890334916
 30
0.0
  0
VERTEX
  5
C7
  8
LAYER_05
 10
971.0865553096145
 20
1531.880028680365
 30
0.0
  0
VERTEX
  5
C8
  8
LAYER_05
 10
982.5151664328341
 20
1532.37519995007
 30
0.0
  0
VERTEX
  5
C9
  8
LAYER_05
 10
973.4572482284352
 20
1539.575270311678
 30
0.0
  0
SEQEND
  5
CA
  8
LAYER_05
  0
POLYLINE
  5
CB
  8
LAYER_05
 66
     1
 10
0.0
 20
0.0
 30
0.0
 70
     1
  0
VERTEX
  5
CC
  8
LAYER_05
 10
1055.846056679435
 20
1549.815079637548
 30
0.0
  0
VERTEX
  5
CD
  8
LAYER_05
 10
1061.543865333901
 20
1554.134890334916
 30
0.0
  0
VERTEX
  5
CE
  8
LAYER_05
 10
1061.543865333901
 20
1531.880028680365
 30
0.0
  0
VERTEX
  5
CF
  8
LAYER_05
 10
1050.115254210681
 20
1532.37519995007
 30
0.0
  0
VERTEX
  5
D0
  8
LAYER_05
 10
1059.17317241508
 20
1539.575270311678
 30
0.0
  0
SEQEND
  5
D1
  8
LAYER_05
  0
POLYLINE
  5
D2
  8
LAYER_05
 66
     1
 10
0.0
 20
0.0
 30
0.0
 70
     1
  0
VERTEX
  5
D3
  8
LAYER_05
 10
1073.241673988367
 20
1549.815079637548
 30
0.0
  0
VERTEX
  5
D4
  8
LAYER_05
 10
1067.543865333901
 20
1554.134890334916
 30
0.0
  0
VERTEX
  5
D5
  8
LAYER_05
 10
1067.543865333901
 20
1531.880028680365
 30
0.0
  0
VERTEX
  5
D6
  8
LAYER_05
 10
1078.972476457121
 20
1532.37519995007
 30
0.0
  0
VERTEX
  5
D7
  8
LAYER_05
 10
1069.914558252722
 20
1539.575270311678
 30
0.0
  0
SEQEND
  5
D8
  8
LAYER_05
  0
POLYLINE
  5
D9
  8
LAYER_05
 66
     1
 10
0.0
 20
0.0
 30
0.0
 70
     1
  0
VERTEX
  5
DA
  8
LAYER_05
 10
1152.303366703721
 20
1549.815079637548
 30
0.0
  0
VERTEX
  5
DB
  8
LAYER_05
 10
1158.001175358187
 20
1554.134890334916
 30
0.0
  0
VERTEX
  5
DC
  8
LAYER_05
 10
1158.001175358187
 20
1531.880028680365
 30
0.0
  0
VERTEX
  5
DD
  8
LAYER_05
 10
1146.572564234968
 20
1532.37519995007
 30
0.0
  0
VERTEX
  5
DE
  8
LAYER_05
 10
1155.630482439366
 20
1539.575270311678
 30
0.0
  0
SEQEND
  5
DF
  8
LAYER_05
  0
POLYLINE
  5
E0
  8
LAYER_05
 66
     1
 10
0.0
 20
0.0
 30
0.0
 70
     1
  0
VERTEX
  5
E1
  8
LAYER_05
 10
968.0865553096144
 20
1334.291347977108
 30
0.0
  0
VERTEX
  5
E2
  8
LAYER_05
 10
1161.001175358187
 20
1334.291347977108
 30
0.0
  0
VERTEX
  5
E3
  8
LAYER_05
 10
1161.001175358187
 20
1583.760083950326
 30
0.0
  0
VERTEX
  5
E4
  8
LAYER_05
 10
968.0865553096144
 20
1583.760083950326
 30
0.0
  0
SEQEND
  5
E5
  8
LAYER_05
  0
POLYLINE
  5
E6
  8
LAYER_05
 66
     1
 10
0.0
 20
0.0
 30
0.0
 70
     1
  0
VERTEX
  5
E7
  8
LAYER_05
 10
1086.106094639265
 20
1462.025715963717
 30
0.0
  0
VERTEX
  5
E8
  8
LAYER_05
 10
1090.081837411408
 20
1465.495237698988
 30
0.0
  0
VERTEX
  5
E9
  8
LAYER_05
 10
1094.658119187397
 20
1462.025715963717
 30
0.0
  0
SEQEND
  5
EA
  8
LAYER_05
  0
POLYLINE
  5
EB
  8
LAYER_05
 66
     1
 10
0.0
 20
0.0
 30
0.0
 70
     1
  0
VERTEX
  5
EC
  8
LAYER_05
 10
1101.278992574664
 20
1462.025715963717
 30
0.0
  0
VERTEX
  5
ED
  8
LAYER_05
 10
1093.159809108819
 20
1468.181299226795
 30
0.0
  0
VERTEX
  5
EE
  8
LAYER_05
 10
1099.496333712323
 20
1473.711010553186
 30
0.0
  0
VERTEX
  5
EF
  8
LAYER_05
 10
1109.433237072795
 20
1466.491427665124
 30
0.0
  0
VERTEX
  5
F0
  8
LAYER_05
 10
1103.286712224942
 20
1462.025715963717
 30
0.0
  0
SEQEND
  5
F1
  8
LAYER_05
  0
POLYLINE
  5
F2
  8
LAYER_05
 66
     1
 10
0.0
 20
0.0
 30
0.0
 70
     1
  0
VERTEX
  5
F3
  8
LAYER_05
 10
1080.022544914674
 20
1462.025715963717
 30
0.0
  0
VERTEX
  5
F4
  8
LAYER_05
 10
1086.826463484302
 20
1467.963309192267
 30
0.0
  0
VERTEX
  5
F5
  8
LAYER_05
 10
1067.543865333901
 20
1482.58246873492
 30
0.0
  0
VERTEX
  5
F6
  8
LAYER_05
 10
1067.543865333901
 20
1462.025715963717
 30
0.0
  0
SEQEND
  5
F7
  8
LAYER_05
  0
POLYLINE
  5
F8
  8
LAYER_05
 66
     1
 10
0.0
 20
0.0
 30
0.0
 70
     1
  0
VERTEX
  5
F9
  8
LAYER_05
 10
1139.438946052823
 20
1462.025715963717
 30
0.0
  0
VERTEX
  5
FA
  8
LAYER_05
 10
1135.46320328068
 20
1465.495237698988
 30
0.0
  0
VERTEX
  5
FB
  8
LAYER_05
 10
1130.886921504691
 20
1462.025715963717
 30
0.0
  0
SEQEND
  5
FC
  8
LAYER_05
  0
POLYLINE
  5
FD
  8
LAYER_05
 66
     1
 10
0.0
 20
0.0
 30
0.0
 70
     1
  0
VERTEX
  5
FE
  8
LAYER_05
 10
1124.266048117424
 20
1462.025715963717
 30
0.0
  0
VERTEX
  5
FF
  8
LAYER_05
 10
1132.38523158327
 20
1468.181299226795
 30
0.0
  0
VERTEX
  5
100
  8
LAYER_05
 10
1126.048706979765
 20
1473.711010553186
 30
0.0
  0
VERTEX
  5
101
  8
LAYER_05
 10
1116.111803619294
 20
1466.491427665124
 30
0.0
  0
VERTEX
  5
102
  8
LAYER_05
 10
1122.258328467147
 20
1462.025715963717
 30
0.0
  0
SEQEND
  5
103
  8
LAYER_05
  0
POLYLINE
  5
104
  8
LAYER_05
 66
     1
 10
0.0
 20
0.0
 30
0.0
 70
     1
  0
VERTEX
  5
105
  8
LAYER_05
 10
1145.522495777414
 20
1462.025715963717
 30
0.0
  0
VERTEX
  5
106
  8
LAYER_05
 10
1138.718577207786
 20
1467.963309192267
 30
0.0
  0
VERTEX
  5
107
  8
LAYER_05
 10
1158.001175358187
 20
1482.58246873492
 30
0.0
  0
VERTEX
  5
108
  8
LAYER_05
 10
1158.001175358187
 20
1462.025715963717
 30
0.0
  0
SEQEND
  5
109
  8
LAYER_05
  0
POLYLINE
  5
10A
  8
LAYER_05
 66
     1
 10
0.0
 20
0.0
 30
0.0
 70
     1
  0
VERTEX
  5
10B
  8
LAYER_05
 10
1112.772520346044
 20
1468.917558976199
 30
0.0
  0
VERTEX
  5
10C
  8
LAYER_05
 10
1121.163406198202
 20
1475.013894395429
 30
0.0
  0
VERTEX
  5
10D
  8
LAYER_05
 10
1116.821143522418
 20
1475.013894395429
 30
0.0
  0
VERTEX
  5
10E
  8
LAYER_05
 10
1112.772520346044
 20
1485.853430630223
 30
0.0
  0
VERTEX
  5
10F
  8
LAYER_05
 10
1108.72389716967
 20
1475.013894395429
 30
0.0
  0
VERTEX
  5
110
  8
LAYER_05
 10
1104.381634493886
 20
1475.013894395429
 30
0.0
  0
SEQEND
  5
111
  8
LAYER_05
  0
POLYLINE
  5
112
  8
LAYER_05
 66
     1
 10
0.0
 20
0.0
 30
0.0
 70
     1
  0
VERTEX
  5
113
  8
LAYER_05
 10
1086.106094639265
 20
1580.760083950326
 30
0.0
  0
VERTEX
  5
114
  8
LAYER_05
 10
1090.081837411408
 20
1577.290562215056
 30
0.0
  0
VERTEX
  5
115
  8
LAYER_05
 10
1094.658119187397
 20
1580.760083950326
 30
0.0
  0
SEQEND
  5
116
  8
LAYER_05
  0
POLYLINE
  5
117
  8
LAYER_05
 66
     1
 10
0.0
 20
0.0
 30
0.0
 70
     1
  0
VERTEX
  5
118
  8
LAYER_05
 10
1101.278992574664
 20
1580.760083950326
 30
0.0
  0
VERTEX
  5
119
  8
LAYER_05
 10
1093.159809108819
 20
1574.604500687248
 30
0.0
  0
VERTEX
  5
11A
  8
LAYER_05
 10
1099.496333712323
 20
1569.074789360857
 30
0.0
  0
VERTEX
  5
11B
  8
LAYER_05
 10
1109.433237072795
 20
1576.294372248919
 30
0.0
  0
VERTEX
  5
11C
  8
LAYER_05
 10
1103.286712224942
 20
1580.760083950326
 30
0.0
  0
SEQEND
  5
11D
  8
LAYER_05
  0
POLYLINE
  5
11E
  8
LAYER_05
 66
     1
 10
0.0
 20
0.0
 30
0.0
 70
     1
  0
VERTEX
  5
11F
  8
LAYER_05
 10
1080.022544914674
 20
1580.760083950326
 30
0.0
  0
VERTEX
  5
120
  8
LAYER_05
 10
1086.826463484302
 20
1574.822490721776
 30
0.0
  0
VERTEX
  5
121
  8
LAYER_05
 10
1067.543865333901
 20
1560.203331179123
 30
0.0
  0
VERTEX
  5
122
  8
LAYER_05
 10
1067.543865333901
 20
1580.760083950326
 30
0.0
  0
SEQEND
  5
123
  8
LAYER_05
  0
POLYLINE
  5
124
  8
LAYER_05
 66
     1
 10
0.0
 20
0.0
 30
0.0
 70
     1
  0
VERTEX
  5
125
  8
LAYER_05
 10
1092.788560194805
 20
1521.392899957022
 30
0.0
  0
VERTEX
  5
126
  8
LAYER_05
 10
1083.660084806358
 20
1528.649055688159
 30
0.0
  0
VERTEX
  5
127
  8
LAYER_05
 10
1070.30397093962
 20
1528.070370860196
 30
0.0
  0
VERTEX
  5
128
  8
LAYER_05
 10
1068.134329122157
 20
1521.392899957022
 30
0.0
  0
VERTEX
  5
129
  8
LAYER_05
 10
1070.30397093962
 20
1514.715429053848
 30
0.0
  0
VERTEX
  5
12A
  8
LAYER_05
 10
1083.660084806358
 20
1514.136744225884
 30
0.0
  0
SEQEND
  5
12B
  8
LAYER_05
  0
POLYLINE
  5
12C
  8
LAYER_05
 66
     1
 10
0.0
 20
0.0
 30
0.0
 70
     1
  0
VERTEX
  5
12D
  8
LAYER_05
 10
1139.438946052823
 20
1580.760083950326
 30
0.0
  0
VERTEX
  5
12E
  8
LAYER_05
 10
1135.46320328068
 20
1577.290562215056
 30
0.0
  0
VERTEX
  5
12F
  8
LAYER_05
 10
1130.886921504691
 20
1580.760083950326
 30
0.0
  0
SEQEND
  5
130
  8
LAYER_05
  0
POLYLINE
  5
131
  8
LAYER_05
 66
     1
 10
0.0
 20
0.0
 30
0.0
 70
     1
  0
VERTEX
  5
132
  8
LAYER_05
 10
1124.266048117424
 20
1580.760083950326
 30
0.0
  0
VERTEX
  5
133
  8
LAYER_05
 10
1132.38523158327
 20
1574.604500687248
 30
0.0
  0
VERTEX
  5
134
  8
LAYER_05
 10
1126.048706979765
 20
1569.074789360857
 30
0.0
  0
VERTEX
  5
135
  8
LAYER_05
 10
1116.111803619294
 20
1576.294372248919
 30
0.0
  0
VERTEX
  5
136
  8
LAYER_05
 10
1122.258328467147
 20
1580.760083950326
 30
0.0
  0
SEQEND
  5
137
  8
LAYER_05
  0
POLYLINE
  5
138
  8
LAYER_05
 66
     1
 10
0.0
 20
0.0
 30
0.0
 70
     1
  0
VERTEX
  5
139
  8
LAYER_05
 10
1145.522495777414
 20
1580.760083950326
 30
0.0
  0
VERTEX
  5
13A
  8
LAYER_05
 10
1138.718577207786
 20
1574.822490721776
 30
0.0
  0
VERTEX
  5
13B
  8
LAYER_05
 10
1158.001175358187
 20
1560.203331179123
 30
0.0
  0
VERTEX
  5
13C
  8
LAYER_05
 10
1158.001175358187
 20
1580.760083950326
 30
0.0
  0
SEQEND
  5
13D
  8
LAYER_05
  0
POLYLINE
  5
13E
  8
LAYER_05
 66
     1
 10
0.0
 20
0.0
 30
0.0
 70
     1
  0
VERTEX
  5
13F
  8
LAYER_05
 10
1132.756480497283
 20
1521.392899957022
 30
0.0
  0
VERTEX
  5
140
  8
LAYER_05
 10
1141.88495588573
 20
1528.649055688159
 30
0.0
  0
VERTEX
  5
141
  8
LAYER_05
 10
1155.241069752468
 20
1528.070370860196
 30
0.0
  0
VERTEX
  5
142
  8
LAYER_05
 10
1157.410711569931
 20
1521.392899957022
 30
0.0
  0
VERTEX
  5
143
  8
LAYER_05
 10
1155.241069752468
 20
1514.715429053848
 30
0.0
  0
VERTEX
  5
144
  8
LAYER_05
 10
1141.88495588573
 20
1514.136744225884
 30
0.0
  0
SEQEND
  5
145
  8
LAYER_05
  0
POLYLINE
  5
146
  8
LAYER_05
 66
     1
 10
0.0
 20
0.0
 30
0.0
 70
     1
  0
VERTEX
  5
147
  8
LAYER_05
 10
1112.772520346044
 20
1573.868240937845
 30
0.0
  0
VERTEX
  5
148
  8
LAYER_05
 10
1121.163406198202
 20
1567.771905518614
 30
0.0
  0
VERTEX
  5
149
  8
LAYER_05
 10
1116.821143522418
 20
1567.771905518614
 30
0.0
  0
VERTEX
  5
14A
  8
LAYER_05
 10
1112.772520346044
 20
1556.93236928382
 30
0.0
  0
VERTEX
  5
14B
  8
LAYER_05
 10
1108.72389716967
 20
1567.771905518614
 30
0.0
  0
VERTEX
  5
14C
  8
LAYER_05
 10
1104.381634493886
 20
1567.771905518614
 30
0.0
  0
SEQEND
  5
14D
  8
LAYER_05
  0
POLYLINE
  5
14E
  8
LAYER_05
 66
     1
 10
0.0
 20
0.0
 30
0.0
 70
     1
  0
VERTEX
  5
14F
  8
LAYER_05
 10
1082.236219907443
 20
1486.251217270645
 30
0.0
  0
VERTEX
  5
150
  8
LAYER_05
 10
1091.882944401451
 20
1492.640865300574
 30
0.0
  0
VERTEX
  5
151
  8
LAYER_05
 10
1088.787029814456
 20
1481.491775280321
 30
0.0
  0
VERTEX
  5
152
  8
LAYER_05
 10
1096.17661328822
 20
1476.122928622385
 30
0.0
  0
VERTEX
  5
153
  8
LAYER_05
 10
1089.904435181712
 20
1470.649370720074
 30
0.0
  0
VERTEX
  5
154
  8
LAYER_05
 10
1070.162617195067
 20
1485.616689157024
 30
0.0
  0
VERTEX
  5
155
  8
LAYER_05
 10
1076.498269053299
 20
1490.420082589785
 30
0.0
  0
SEQEND
  5
156
  8
LAYER_05
  0
POLYLINE
  5
157
  8
LAYER_05
 66
     1
 10
0.0
 20
0.0
 30
0.0
 70
     1
  0
VERTEX
  5
158
  8
LAYER_05
 10
1110.842720389884
 20
1517.035456570533
 30
0.0
  0
VERTEX
  5
159
  8
LAYER_05
 10
1107.192727336663
 20
1512.011672122235
 30
0.0
  0
VERTEX
  5
15A
  8
LAYER_05
 10
1108.546607250269
 20
1508.386876792621
 30
0.0
  0
VERTEX
  5
15B
  8
LAYER_05
 10
1111.772520346044
 20
1510.523607168817
 30
0.0
  0
VERTEX
  5
15C
  8
LAYER_05
 10
1111.772520346044
 20
1516.73334625122
 30
0.0
 42
-0.0514218516032241
  0
SEQEND
  5
15D
  8
LAYER_05
  0
POLYLINE
  5
15E
  8
LAYER_05
 66
     1
 10
0.0
 20
0.0
 30
0.0
 70
     1
  0
VERTEX
  5
15F
  8
LAYER_05
 10
1109.224686401134
 20
1518.211027075117
 30
0.0
  0
VERTEX
  5
160
  8
LAYER_05
 10
1105.574693347914
 20
1513.187242626819
 30
0.0
  0
VERTEX
  5
161
  8
LAYER_05
 10
1101.708936227801
 20
1513.354735582953
 30
0.0
  0
VERTEX
  5
162
  8
LAYER_05
 10
1102.744225606677
 20
1517.083047252334
 30
0.0
  0
VERTEX
  5
163
  8
LAYER_05
 10
1108.650038425489
 20
1519.001962159431
 30
0.0
 42
0.051421851602978
  0
SEQEND
  5
164
  8
LAYER_05
  0
POLYLINE
  5
165
  8
LAYER_05
 66
     1
 10
0.0
 20
0.0
 30
0.0
 70
     1
  0
VERTEX
  5
166
  8
LAYER_05
 10
1084.955003919693
 20
1510.151392988801
 30
0.0
  0
VERTEX
  5
167
  8
LAYER_05
 10
1096.60515696878
 20
1509.646622897722
 30
0.0
  0
VERTEX
  5
168
  8
LAYER_05
 10
1093.485126573893
 20
1498.410686388158
 30
0.0
  0
VERTEX
  5
169
  8
LAYER_05
 10
1082.339661069293
 20
1491.028325489559
 30
0.0
  0
VERTEX
  5
16A
  8
LAYER_05
 10
1076.659465047761
 20
1495.155229466609
 30
0.0
  0
VERTEX
  5
16B
  8
LAYER_05
 10
1074.489823230297
 20
1501.832700369784
 30
0.0
  0
SEQEND
  5
16C
  8
LAYER_05
  0
POLYLINE
  5
16D
  8
LAYER_05
 66
     1
 10
0.0
 20
0.0
 30
0.0
 70
     1
  0
VERTEX
  5
16E
  8
LAYER_05
 10
1096.875268825285
 20
1495.947603866533
 30
0.0
  0
VERTEX
  5
16F
  8
LAYER_05
 10
1106.597137044399
 20
1502.387024433802
 30
0.0
  0
VERTEX
  5
170
  8
LAYER_05
 10
1110.677297207987
 20
1491.463052997028
 30
0.0
  0
VERTEX
  5
171
  8
LAYER_05
 10
1105.999669067842
 20
1478.939457317915
 30
0.0
  0
VERTEX
  5
172
  8
LAYER_05
 10
1098.978560659704
 20
1478.939457317915
 30
0.0
  0
VERTEX
  5
173
  8
LAYER_05
 10
1093.298364638172
 20
1483.066361294965
 30
0.0
  0
SEQEND
  5
174
  8
LAYER_05
  0
POLYLINE
  5
175
  8
LAYER_05
 66
     1
 10
0.0
 20
0.0
 30
0.0
 70
     1
  0
VERTEX
  5
176
  8
LAYER_05
 10
1104.005397229133
 20
1509.32599020436
 30
0.0
  0
VERTEX
  5
177
  8
LAYER_05
 10
1100.630821898528
 20
1509.472201562254
 30
0.0
  0
VERTEX
  5
178
  8
LAYER_05
 10
1098.477450997727
 20
1501.717424954117
 30
0.0
  0
VERTEX
  5
179
  8
LAYER_05
 10
1105.18725361977
 20
1506.161760140819
 30
0.0
  0
SEQEND
  5
17A
  8
LAYER_05
  0
POLYLINE
  5
17B
  8
LAYER_05
 66
     1
 10
0.0
 20
0.0
 30
0.0
 70
     1
  0
VERTEX
  5
17C
  8
LAYER_05
 10
1097.683271298053
 20
1513.529156918422
 30
0.0
  0
VERTEX
  5
17D
  8
LAYER_05
 10
1098.587017159326
 20
1516.783750570682
 30
0.0
  0
VERTEX
  5
17E
  8
LAYER_05
 10
1095.942869247957
 20
1518.885563656068
 30
0.0
  0
VERTEX
  5
17F
  8
LAYER_05
 10
1089.642612268931
 20
1513.877537250711
 30
0.0
  0
SEQEND
  5
180
  8
LAYER_05
  0
POLYLINE
  5
181
  8
LAYER_05
 66
     1
 10
0.0
 20
0.0
 30
0.0
 70
     1
  0
VERTEX
  5
182
  8
LAYER_05
 10
1143.308820784645
 20
1486.251217270645
 30
0.0
  0
VERTEX
  5
183
  8
LAYER_05
 10
1133.662096290637
 20
1492.640865300574
 30
0.0
  0
VERTEX
  5
184
  8
LAYER_05
 10
1136.758010877632
 20
1481.491775280321
 30
0.0
  0
VERTEX
  5
185
  8
LAYER_05
 10
1129.368427403868
 20
1476.122928622385
 30
0.0
  0
VERTEX
  5
186
  8
LAYER_05
 10
1135.640605510376
 20
1470.649370720074
 30
0.0
  0
VERTEX
  5
187
  8
LAYER_05
 10
1155.382423497022
 20
1485.616689157024
 30
0.0
  0
VERTEX
  5
188
  8
LAYER_05
 10
1149.046771638789
 20
1490.420082589785
 30
0.0
  0
SEQEND
  5
189
  8
LAYER_05
  0
POLYLINE
  5
18A
  8
LAYER_05
 66
     1
 10
0.0
 20
0.0
 30
0.0
 70
     1
  0
VERTEX
  5
18B
  8
LAYER_05
 10
1114.702320302204
 20
1517.035456570533
 30
0.0
  0
VERTEX
  5
18C
  8
LAYER_05
 10
1118.352313355425
 20
1512.011672122235
 30
0.0
  0
VERTEX
  5
18D
  8
LAYER_05
 10
1116.998433441819
 20
1508.386876792621
 30
0.0
  0
VERTEX
  5
18E
  8
LAYER_05
 10
1113.772520346044
 20
1510.523607168817
 30
0.0
  0
VERTEX
  5
18F
  8
LAYER_05
 10
1113.772520346044
 20
1516.73334625122
 30
0.0
 42
0.0514218516032241
  0
SEQEND
  5
190
  8
LAYER_05
  0
POLYLINE
  5
191
  8
LAYER_05
 66
     1
 10
0.0
 20
0.0
 30
0.0
 70
     1
  0
VERTEX
  5
192
  8
LAYER_05
 10
1116.320354290954
 20
1518.211027075117
 30
0.0
  0
VERTEX
  5
193
  8
LAYER_05
 10
1119.970347344175
 20
1513.187242626819
 30
0.0
  0
VERTEX
  5
194
  8
LAYER_05
 10
1123.836104464287
 20
1513.354735582953
 30
0.0
  0
VERTEX
  5
195
  8
LAYER_05
 10
1122.800815085411
 20
1517.083047252334
 30
0.0
  0
VERTEX
  5
196
  8
LAYER_05
 10
1116.895002266599
 20
1519.001962159431
 30
0.0
 42
-0.0514218516029862
  0
SEQEND
  5
197
  8
LAYER_05
  0
POLYLINE
  5
198
  8
LAYER_05
 66
     1
 10
0.0
 20
0.0
 30
0.0
 70
     1
  0
VERTEX
  5
199
  8
LAYER_05
 10
1140.590036772395
 20
1510.151392988801
 30
0.0
  0
VERTEX
  5
19A
  8
LAYER_05
 10
1128.939883723308
 20
1509.646622897722
 30
0.0
  0
VERTEX
  5
19B
  8
LAYER_05
 10
1132.059914118195
 20
1498.410686388158
 30
0.0
  0
VERTEX
  5
19C
  8
LAYER_05
 10
1143.205379622795
 20
1491.028325489559
 30
0.0
  0
VERTEX
  5
19D
  8
LAYER_05
 10
1148.885575644327
 20
1495.155229466609
 30
0.0
  0
VERTEX
  5
19E
  8
LAYER_05
 10
1151.055217461791
 20
1501.832700369784
 30
0.0
  0
SEQEND
  5
19F
  8
LAYER_05
  0
POLYLINE
  5
1A0
  8
LAYER_05
 66
     1
 10
0.0
 20
0.0
 30
0.0
 70
     1
  0
VERTEX
  5
1A1
  8
LAYER_05
 10
1128.669771866803
 20
1495.947603866533
 30
0.0
  0
VERTEX
  5
1A2
  8
LAYER_05
 10
1118.947903647689
 20
1502.387024433802
 30
0.0
  0
VERTEX
  5
1A3
  8
LAYER_05
 10
1114.867743484102
 20
1491.463052997028
 30
0.0
  0
VERTEX
  5
1A4
  8
LAYER_05
 10
1119.545371624246
 20
1478.939457317915
 30
0.0
  0
VERTEX
  5
1A5
  8
LAYER_05
 10
1126.566480032384
 20
1478.939457317915
 30
0.0
  0
VERTEX
  5
1A6
  8
LAYER_05
 10
1132.246676053916
 20
1483.066361294965
 30
0.0
  0
SEQEND
  5
1A7
  8
LAYER_05
  0
POLYLINE
  5
1A8
  8
LAYER_05
 66
     1
 10
0.0
 20
0.0
 30
0.0
 70
     1
  0
VERTEX
  5
1A9
  8
LAYER_05
 10
1121.539643462955
 20
1509.32599020436
 30
0.0
  0
VERTEX
  5
1AA
  8
LAYER_05
 10
1124.91421879356
 20
1509.472201562254
 30
0.0
  0
VERTEX
  5
1AB
  8
LAYER_05
 10
1127.067589694361
 20
1501.717424954117
 30
0.0
  0
VERTEX
  5
1AC
  8
LAYER_05
 10
1120.357787072319
 20
1506.161760140819
 30
0.0
  0
SEQEND
  5
1AD
  8
LAYER_05
  0
POLYLINE
  5
1AE
  8
LAYER_05
 66
     1
 10
0.0
 20
0.0
 30
0.0
 70
     1
  0
VERTEX
  5
1AF
  8
LAYER_05
 10
1127.861769394035
 20
1513.529156918422
 30
0.0
  0
VERTEX
  5
1B0
  8
LAYER_05
 10
1126.958023532762
 20
1516.783750570682
 30
0.0
  0
VERTEX
  5
1B1
  8
LAYER_05
 10
1129.602171444131
 20
1518.885563656068
 30
0.0
  0
VERTEX
  5
1B2
  8
LAYER_05
 10
1135.902428423158
 20
1513.877537250711
 30
0.0
  0
SEQEND
  5
1B3
  8
LAYER_05
  0
POLYLINE
  5
1B4
  8
LAYER_05
 66
     1
 10
0.0
 20
0.0
 30
0.0
 70
     1
  0
VERTEX
  5
1B5
  8
LAYER_05
 10
1112.772520346044
 20
1506.477379224376
 30
0.0
  0
VERTEX
  5
1B6
  8
LAYER_05
 10
1115.588550017189
 20
1504.612141085604
 30
0.0
  0
VERTEX
  5
1B7
  8
LAYER_05
 10
1112.772520346044
 20
1497.072675363834
 30
0.0
  0
VERTEX
  5
1B8
  8
LAYER_05
 10
1109.956490674899
 20
1504.612141085604
 30
0.0
  0
SEQEND
  5
1B9
  8
LAYER_05
  0
POLYLINE
  5
1BA
  8
LAYER_05
 66
     1
 10
0.0
 20
0.0
 30
0.0
 70
     1
  0
VERTEX
  5
1BB
  8
LAYER_05
 10
1082.236219907443
 20
1556.534582643398
 30
0.0
  0
VERTEX
  5
1BC
  8
LAYER_05
 10
1091.882944401451
 20
1550.144934613469
 30
0.0
  0
VERTEX
  5
1BD
  8
LAYER_05
 10
1088.787029814456
 20
1561.294024633723
 30
0.0
  0
VERTEX
  5
1BE
  8
LAYER_05
 10
1096.17661328822
 20
1566.662871291658
 30
0.0
  0
VERTEX
  5
1BF
  8
LAYER_05
 10
1089.904435181712
 20
1572.136429193969
 30
0.0
  0
VERTEX
  5
1C0
  8
LAYER_05
 10
1070.162617195067
 20
1557.16911075702
 30
0.0
  0
VERTEX
  5
1C1
  8
LAYER_05
 10
1076.498269053299
 20
1552.365717324259
 30
0.0
  0
SEQEND
  5
1C2
  8
LAYER_05
  0
POLYLINE
  5
1C3
  8
LAYER_05
 66
     1
 10
0.0
 20
0.0
 30
0.0
 70
     1
  0
VERTEX
  5
1C4
  8
LAYER_05
 10
1110.842720389884
 20
1525.750343343511
 30
0.0
  0
VERTEX
  5
1C5
  8
LAYER_05
 10
1107.192727336663
 20
1530.774127791808
 30
0.0
  0
VERTEX
  5
1C6
  8
LAYER_05
 10
1108.546607250269
 20
1534.398923121423
 30
0.0
  0
VERTEX
  5
1C7
  8
LAYER_05
 10
1111.772520346044
 20
1532.262192745226
 30
0.0
  0
VERTEX
  5
1C8
  8
LAYER_05
 10
1111.772520346044
 20
1526.052453662823
 30
0.0
 42
0.0514218516032241
  0
SEQEND
  5
1C9
  8
LAYER_05
  0
POLYLINE
  5
1CA
  8
LAYER_05
 66
     1
 10
0.0
 20
0.0
 30
0.0
 70
     1
  0
VERTEX
  5
1CB
  8
LAYER_05
 10
1109.224686401134
 20
1524.574772838926
 30
0.0
  0
VERTEX
  5
1CC
  8
LAYER_05
 10
1105.574693347914
 20
1529.598557287224
 30
0.0
  0
VERTEX
  5
1CD
  8
LAYER_05
 10
1101.708936227801
 20
1529.43106433109
 30
0.0
  0
VERTEX
  5
1CE
  8
LAYER_05
 10
1102.744225606677
 20
1525.702752661709
 30
0.0
  0
VERTEX
  5
1CF
  8
LAYER_05
 10
1108.650038425489
 20
1523.783837754612
 30
0.0
 42
-0.051421851602978
  0
SEQEND
  5
1D0
  8
LAYER_05
  0
POLYLINE
  5
1D1
  8
LAYER_05
 66
     1
 10
0.0
 20
0.0
 30
0.0
 70
     1
  0
VERTEX
  5
1D2
  8
LAYER_05
 10
1084.955003919693
 20
1532.634406925243
 30
0.0
  0
VERTEX
  5
1D3
  8
LAYER_05
 10
1096.60515696878
 20
1533.139177016321
 30
0.0
  0
VERTEX
  5
1D4
  8
LAYER_05
 10
1093.485126573893
 20
1544.375113525886
 30
0.0
  0
VERTEX
  5
1D5
  8
LAYER_05
 10
1082.339661069293
 20
1551.757474424484
 30
0.0
  0
VERTEX
  5
1D6
  8
LAYER_05
 10
1076.659465047761
 20
1547.630570447434
 30
0.0
  0
VERTEX
  5
1D7
  8
LAYER_05
 10
1074.489823230297
 20
1540.95309954426
 30
0.0
  0
SEQEND
  5
1D8
  8
LAYER_05
  0
POLYLINE
  5
1D9
  8
LAYER_05
 66
     1
 10
0.0
 20
0.0
 30
0.0
 70
     1
  0
VERTEX
  5
1DA
  8
LAYER_05
 10
1096.875268825285
 20
1546.83819604751
 30
0.0
  0
VERTEX
  5
1DB
  8
LAYER_05
 10
1106.597137044399
 20
1540.398775480241
 30
0.0
  0
VERTEX
  5
1DC
  8
LAYER_05
 10
1110.677297207987
 20
1551.322746917015
 30
0.0
  0
VERTEX
  5
1DD
  8
LAYER_05
 10
1105.999669067842
 20
1563.846342596129
 30
0.0
  0
VERTEX
  5
1DE
  8
LAYER_05
 10
1098.978560659704
 20
1563.846342596129
 30
0.0
  0
VERTEX
  5
1DF
  8
LAYER_05
 10
1093.298364638172
 20
1559.719438619079
 30
0.0
  0
SEQEND
  5
1E0
  8
LAYER_05
  0
POLYLINE
  5
1E1
  8
LAYER_05
 66
     1
 10
0.0
 20
0.0
 30
0.0
 70
     1
  0
VERTEX
  5
1E2
  8
LAYER_05
 10
1100.630821898528
 20
1533.31359835179
 30
0.0
  0
VERTEX
  5
1E3
  8
LAYER_05
 10
1104.005397229133
 20
1533.459809709684
 30
0.0
  0
VERTEX
  5
1E4
  8
LAYER_05
 10
1105.18725361977
 20
1536.624039773224
 30
0.0
  0
VERTEX
  5
1E5
  8
LAYER_05
 10
1098.477450997727
 20
1541.068374959927
 30
0.0
  0
SEQEND
  5
1E6
  8
LAYER_05
  0
POLYLINE
  5
1E7
  8
LAYER_05
 66
     1
 10
0.0
 20
0.0
 30
0.0
 70
     1
  0
VERTEX
  5
1E8
  8
LAYER_05
 10
1097.683271298053
 20
1529.256642995621
 30
0.0
  0
VERTEX
  5
1E9
  8
LAYER_05
 10
1098.587017159326
 20
1526.002049343361
 30
0.0
  0
VERTEX
  5
1EA
  8
LAYER_05
 10
1095.942869247957
 20
1523.900236257975
 30
0.0
  0
VERTEX
  5
1EB
  8
LAYER_05
 10
1089.642612268931
 20
1528.908262663333
 30
0.0
  0
SEQEND
  5
1EC
  8
LAYER_05
  0
POLYLINE
  5
1ED
  8
LAYER_05
 66
     1
 10
0.0
 20
0.0
 30
0.0
 70
     1
  0
VERTEX
  5
1EE
  8
LAYER_05
 10
1143.308820784645
 20
1556.534582643398
 30
0.0
  0
VERTEX
  5
1EF
  8
LAYER_05
 10
1133.662096290637
 20
1550.144934613469
 30
0.0
  0
VERTEX
  5
1F0
  8
LAYER_05
 10
1136.758010877632
 20
1561.294024633723
 30
0.0
  0
VERTEX
  5
1F1
  8
LAYER_05
 10
1129.368427403868
 20
1566.662871291658
 30
0.0
  0
VERTEX
  5
1F2
  8
LAYER_05
 10
1135.640605510376
 20
1572.136429193969
 30
0.0
  0
VERTEX
  5
1F3
  8
LAYER_05
 10
1155.382423497022
 20
1557.16911075702
 30
0.0
  0
VERTEX
  5
1F4
  8
LAYER_05
 10
1149.046771638789
 20
1552.365717324259
 30
0.0
  0
SEQEND
  5
1F5
  8
LAYER_05
  0
POLYLINE
  5
1F6
  8
LAYER_05
 66
     1
 10
0.0
 20
0.0
 30
0.0
 70
     1
  0
VERTEX
  5
1F7
  8
LAYER_05
 10
1114.702320302204
 20
1525.750343343511
 30
0.0
  0
VERTEX
  5
1F8
  8
LAYER_05
 10
1118.352313355425
 20
1530.774127791808
 30
0.0
  0
VERTEX
  5
1F9
  8
LAYER_05
 10
1116.998433441819
 20
1534.398923121423
 30
0.0
  0
VERTEX
  5
1FA
  8
LAYER_05
 10
1113.772520346044
 20
1532.262192745226
 30
0.0
  0
VERTEX
  5
1FB
  8
LAYER_05
 10
1113.772520346044
 20
1526.052453662823
 30
0.0
 42
-0.0514218516032241
  0
SEQEND
  5
1FC
  8
LAYER_05
  0
POLYLINE
  5
1FD
  8
LAYER_05
 66
     1
 10
0.0
 20
0.0
 30
0.0
 70
     1
  0
VERTEX
  5
1FE
  8
LAYER_05
 10
1116.320354290954
 20
1524.574772838926
 30
0.0
  0
VERTEX
  5
1FF
  8
LAYER_05
 10
1119.970347344175
 20
1529.598557287224
 30
0.0
  0
VERTEX
  5
200
  8
LAYER_05
 10
1123.836104464287
 20
1529.43106433109
 30
0.0
  0
VERTEX
  5
201
  8
LAYER_05
 10
1122.800815085411
 20
1525.702752661709
 30
0.0
  0
VERTEX
  5
202
  8
LAYER_05
 10
1116.895002266599
 20
1523.783837754612
 30
0.0
 42
0.0514218516029862
  0
SEQEND
  5
203
  8
LAYER_05
  0
POLYLINE
  5
204
  8
LAYER_05
 66
     1
 10
0.0
 20
0.0
 30
0.0
 70
     1
  0
VERTEX
  5
205
  8
LAYER_05
 10
1140.590036772395
 20
1532.634406925243
 30
0.0
  0
VERTEX
  5
206
  8
LAYER_05
 10
1128.939883723308
 20
1533.139177016321
 30
0.0
  0
VERTEX
  5
207
  8
LAYER_05
 10
1132.059914118195
 20
1544.375113525886
 30
0.0
  0
VERTEX
  5
208
  8
LAYER_05
 10
1143.205379622795
 20
1551.757474424484
 30
0.0
  0
VERTEX
  5
209
  8
LAYER_05
 10
1148.885575644327
 20
1547.630570447434
 30
0.0
  0
VERTEX
  5
20A
  8
LAYER_05
 10
1151.055217461791
 20
1540.95309954426
 30
0.0
  0
SEQEND
  5
20B
  8
LAYER_05
  0
POLYLINE
  5
20C
  8
LAYER_05
 66
     1
 10
0.0
 20
0.0
 30
0.0
 70
     1
  0
VERTEX
  5
20D
  8
LAYER_05
 10
1128.669771866803
 20
1546.83819604751
 30
0.0
  0
VERTEX
  5
20E
  8
LAYER_05
 10
1118.947903647689
 20
1540.398775480241
 30
0.0
  0
VERTEX
  5
20F
  8
LAYER_05
 10
1114.867743484102
 20
1551.322746917015
 30
0.0
  0
VERTEX
  5
210
  8
LAYER_05
 10
1119.545371624246
 20
1563.846342596129
 30
0.0
  0
VERTEX
  5
211
  8
LAYER_05
 10
1126.566480032384
 20
1563.846342596129
 30
0.0
  0
VERTEX
  5
212
  8
LAYER_05
 10
1132.246676053916
 20
1559.719438619079
 30
0.0
  0
SEQEND
  5
213
  8
LAYER_05
  0
POLYLINE
  5
214
  8
LAYER_05
 66
     1
 10
0.0
 20
0.0
 30
0.0
 70
     1
  0
VERTEX
  5
215
  8
LAYER_05
 10
1121.539643462955
 20
1533.459809709683
 30
0.0
  0
VERTEX
  5
216
  8
LAYER_05
 10
1124.91421879356
 20
1533.31359835179
 30
0.0
  0
VERTEX
  5
217
  8
LAYER_05
 10
1127.067589694361
 20
1541.068374959927
 30
0.0
  0
VERTEX
  5
218
  8
LAYER_05
 10
1120.357787072319
 20
1536.624039773224
 30
0.0
  0
SEQEND
  5
219
  8
LAYER_05
  0
POLYLINE
  5
21A
  8
LAYER_05
 66
     1
 10
0.0
 20
0.0
 30
0.0
 70
     1
  0
VERTEX
  5
21B
  8
LAYER_05
 10
1126.958023532761
 20
1526.002049343361
 30
0.0
  0
VERTEX
  5
21C
  8
LAYER_05
 10
1127.861769394035
 20
1529.256642995621
 30
0.0
  0
VERTEX
  5
21D
  8
LAYER_05
 10
1135.902428423158
 20
1528.908262663333
 30
0.0
  0
VERTEX
  5
21E
  8
LAYER_05
 10
1129.602171444131
 20
1523.900236257975
 30
0.0
  0
SEQEND
  5
21F
  8
LAYER_05
  0
POLYLINE
  5
220
  8
LAYER_05
 66
     1
 10
0.0
 20
0.0
 30
0.0
 70
     1
  0
VERTEX
  5
221
  8
LAYER_05
 10
1112.772520346044
 20
1536.308420689667
 30
0.0
  0
VERTEX
  5
222
  8
LAYER_05
 10
1115.588550017189
 20
1538.173658828439
 30
0.0
  0
VERTEX
  5
223
  8
LAYER_05
 10
1112.772520346044
 20
1545.71312455021
 30
0.0
  0
VERTEX
  5
224
  8
LAYER_05
 10
1109.956490674899
 20
1538.173658828439
 30
0.0
  0
SEQEND
  5
225
  8
LAYER_05
  0
POLYLINE
  5
226
  8
LAYER_05
 66
     1
 10
0.0
 20
0.0
 30
0.0
 70
     1
  0
VERTEX
  5
227
  8
LAYER_05
 10
1086.106094639265
 20
1337.291347977108
 30
0.0
  0
VERTEX
  5
228
  8
LAYER_05
 10
1090.081837411408
 20
1340.760869712378
 30
0.0
  0
VERTEX
  5
229
  8
LAYER_05
 10
1094.658119187397
 20
1337.291347977108
 30
0.0
  0
SEQEND
  5
22A
  8
LAYER_05
  0
POLYLINE
  5
22B
  8
LAYER_05
 66
     1
 10
0.0
 20
0.0
 30
0.0
 70
     1
  0
VERTEX
  5
22C
  8
LAYER_05
 10
1101.278992574664
 20
1337.291347977108
 30
0.0
  0
VERTEX
  5
22D
  8
LAYER_05
 10
1093.159809108819
 20
1343.446931240186
 30
0.0
  0
VERTEX
  5
22E
  8
LAYER_05
 10
1099.496333712323
 20
1348.976642566577
 30
0.0
  0
VERTEX
  5
22F
  8
LAYER_05
 10
1109.433237072795
 20
1341.757059678514
 30
0.0
  0
VERTEX
  5
230
  8
LAYER_05
 10
1103.286712224942
 20
1337.291347977108
 30
0.0
  0
SEQEND
  5
231
  8
LAYER_05
  0
POLYLINE
  5
232
  8
LAYER_05
 66
     1
 10
0.0
 20
0.0
 30
0.0
 70
     1
  0
VERTEX
  5
233
  8
LAYER_05
 10
1080.022544914674
 20
1337.291347977108
 30
0.0
  0
VERTEX
  5
234
  8
LAYER_05
 10
1086.826463484302
 20
1343.228941205658
 30
0.0
  0
VERTEX
  5
235
  8
LAYER_05
 10
1067.543865333901
 20
1357.848100748311
 30
0.0
  0
VERTEX
  5
236
  8
LAYER_05
 10
1067.543865333901
 20
1337.291347977108
 30
0.0
  0
SEQEND
  5
237
  8
LAYER_05
  0
POLYLINE
  5
238
  8
LAYER_05
 66
     1
 10
0.0
 20
0.0
 30
0.0
 70
     1
  0
VERTEX
  5
239
  8
LAYER_05
 10
1139.438946052823
 20
1337.291347977108
 30
0.0
  0
VERTEX
  5
23A
  8
LAYER_05
 10
1135.46320328068
 20
1340.760869712378
 30
0.0
  0
VERTEX
  5
23B
  8
LAYER_05
 10
1130.886921504691
 20
1337.291347977108
 30
0.0
  0
SEQEND
  5
23C
  8
LAYER_05
  0
POLYLINE
  5
23D
  8
LAYER_05
 66
     1
 10
0.0
 20
0.0
 30
0.0
 70
     1
  0
VERTEX
  5
23E
  8
LAYER_05
 10
1124.266048117424
 20
1337.291347977108
 30
0.0
  0
VERTEX
  5
23F
  8
LAYER_05
 10
1132.38523158327
 20
1343.446931240186
 30
0.0
  0
VERTEX
  5
240
  8
LAYER_05
 10
1126.048706979765
 20
1348.976642566577
 30
0.0
  0
VERTEX
  5
241
  8
LAYER_05
 10
1116.111803619294
 20
1341.757059678514
 30
0.0
  0
VERTEX
  5
242
  8
LAYER_05
 10
1122.258328467147
 20
1337.291347977108
 30
0.0
  0
SEQEND
  5
243
  8
LAYER_05
  0
POLYLINE
  5
244
  8
LAYER_05
 66
     1
 10
0.0
 20
0.0
 30
0.0
 70
     1
  0
VERTEX
  5
245
  8
LAYER_05
 10
1145.522495777414
 20
1337.291347977108
 30
0.0
  0
VERTEX
  5
246
  8
LAYER_05
 10
1138.718577207786
 20
1343.228941205658
 30
0.0
  0
VERTEX
  5
247
  8
LAYER_05
 10
1158.001175358187
 20
1357.848100748311
 30
0.0
  0
VERTEX
  5
248
  8
LAYER_05
 10
1158.001175358187
 20
1337.291347977108
 30
0.0
  0
SEQEND
  5
249
  8
LAYER_05
  0
POLYLINE
  5
24A
  8
LAYER_05
 66
     1
 10
0.0
 20
0.0
 30
0.0
 70
     1
  0
VERTEX
  5
24B
  8
LAYER_05
 10
1112.772520346044
 20
1344.183190989589
 30
0.0
  0
VERTEX
  5
24C
  8
LAYER_05
 10
1121.163406198202
 20
1350.279526408819
 30
0.0
  0
VERTEX
  5
24D
  8
LAYER_05
 10
1116.821143522418
 20
1350.279526408819
 30
0.0
  0
VERTEX
  5
24E
  8
LAYER_05
 10
1112.772520346044
 20
1361.119062643613
 30
0.0
  0
VERTEX
  5
24F
  8
LAYER_05
 10
1108.72389716967
 20
1350.279526408819
 30
0.0
  0
VERTEX
  5
250
  8
LAYER_05
 10
1104.381634493886
 20
1350.279526408819
 30
0.0
  0
SEQEND
  5
251
  8
LAYER_05
  0
POLYLINE
  5
252
  8
LAYER_05
 66
     1
 10
0.0
 20
0.0
 30
0.0
 70
     1
  0
VERTEX
  5
253
  8
LAYER_05
 10
1086.106094639265
 20
1456.025715963717
 30
0.0
  0
VERTEX
  5
254
  8
LAYER_05
 10
1090.081837411408
 20
1452.556194228446
 30
0.0
  0
VERTEX
  5
255
  8
LAYER_05
 10
1094.658119187397
 20
1456.025715963717
 30
0.0
  0
SEQEND
  5
256
  8
LAYER_05
  0
POLYLINE
  5
257
  8
LAYER_05
 66
     1
 10
0.0
 20
0.0
 30
0.0
 70
     1
  0
VERTEX
  5
258
  8
LAYER_05
 10
1101.278992574664
 20
1456.025715963717
 30
0.0
  0
VERTEX
  5
259
  8
LAYER_05
 10
1093.159809108819
 20
1449.870132700639
 30
0.0
  0
VERTEX
  5
25A
  8
LAYER_05
 10
1099.496333712323
 20
1444.340421374248
 30
0.0
  0
VERTEX
  5
25B
  8
LAYER_05
 10
1109.433237072795
 20
1451.56000426231
 30
0.0
  0
VERTEX
  5
25C
  8
LAYER_05
 10
1103.286712224942
 20
1456.025715963717
 30
0.0
  0
SEQEND
  5
25D
  8
LAYER_05
  0
POLYLINE
  5
25E
  8
LAYER_05
 66
     1
 10
0.0
 20
0.0
 30
0.0
 70
     1
  0
VERTEX
  5
25F
  8
LAYER_05
 10
1080.022544914674
 20
1456.025715963717
 30
0.0
  0
VERTEX
  5
260
  8
LAYER_05
 10
1086.826463484302
 20
1450.088122735167
 30
0.0
  0
VERTEX
  5
261
  8
LAYER_05
 10
1067.543865333901
 20
1435.468963192514
 30
0.0
  0
VERTEX
  5
262
  8
LAYER_05
 10
1067.543865333901
 20
1456.025715963717
 30
0.0
  0
SEQEND
  5
263
  8
LAYER_05
  0
POLYLINE
  5
264
  8
LAYER_05
 66
     1
 10
0.0
 20
0.0
 30
0.0
 70
     1
  0
VERTEX
  5
265
  8
LAYER_05
 10
1092.788560194805
 20
1396.658531970412
 30
0.0
  0
VERTEX
  5
266
  8
LAYER_05
 10
1083.660084806358
 20
1403.91468770155
 30
0.0
  0
VERTEX
  5
267
  8
LAYER_05
 10
1070.30397093962
 20
1403.336002873586
 30
0.0
  0
VERTEX
  5
268
  8
LAYER_05
 10
1068.134329122157
 20
1396.658531970412
 30
0.0
  0
VERTEX
  5
269
  8
LAYER_05
 10
1070.30397093962
 20
1389.981061067238
 30
0.0
  0
VERTEX
  5
26A
  8
LAYER_05
 10
1083.660084806358
 20
1389.402376239275
 30
0.0
  0
SEQEND
  5
26B
  8
LAYER_05
  0
POLYLINE
  5
26C
  8
LAYER_05
 66
     1
 10
0.0
 20
0.0
 30
0.0
 70
     1
  0
VERTEX
  5
26D
  8
LAYER_05
 10
1139.438946052823
 20
1456.025715963717
 30
0.0
  0
VERTEX
  5
26E
  8
LAYER_05
 10
1135.46320328068
 20
1452.556194228446
 30
0.0
  0
VERTEX
  5
26F
  8
LAYER_05
 10
1130.886921504691
 20
1456.025715963717
 30
0.0
  0
SEQEND
  5
270
  8
LAYER_05
  0
POLYLINE
  5
271
  8
LAYER_05
 66
     1
 10
0.0
 20
0.0
 30
0.0
 70
     1
  0
VERTEX
  5
272
  8
LAYER_05
 10
1124.266048117424
 20
1456.025715963717
 30
0.0
  0
VERTEX
  5
273
  8
LAYER_05
 10
1132.38523158327
 20
1449.870132700639
 30
0.0
  0
VERTEX
  5
274
  8
LAYER_05
 10
1126.048706979765
 20
1444.340421374248
 30
0.0
  0
VERTEX
  5
275
  8
LAYER_05
 10
1116.111803619294
 20
1451.56000426231
 30
0.0
  0
VERTEX
  5
276
  8
LAYER_05
 10
1122.258328467147
 20
1456.025715963717
 30
0.0
  0
SEQEND
  5
277
  8
LAYER_05
  0
POLYLINE
  5
278
  8
LAYER_05
 66
     1
 10
0.0
 20
0.0
 30
0.0
 70
     1
  0
VERTEX
  5
279
  8
LAYER_05
 10
1145.522495777414
 20
1456.025715963717
 30
0.0
  0
VERTEX
  5
27A
  8
LAYER_05
 10
1138.718577207786
 20
1450.088122735167
 30
0.0
  0
VERTEX
  5
27B
  8
LAYER_05
 10
1158.001175358187
 20
1435.468963192514
 30
0.0
  0
VERTEX
  5
27C
  8
LAYER_05
 10
1158.001175358187
 20
1456.025715963717
 30
0.0
  0
SEQEND
  5
27D
  8
LAYER_05
  0
POLYLINE
  5
27E
  8
LAYER_05
 66
     1
 10
0.0
 20
0.0
 30
0.0
 70
     1
  0
VERTEX
  5
27F
  8
LAYER_05
 10
1132.756480497283
 20
1396.658531970412
 30
0.0
  0
VERTEX
  5
280
  8
LAYER_05
 10
1141.88495588573
 20
1403.91468770155
 30
0.0
  0
VERTEX
  5
281
  8
LAYER_05
 10
1155.241069752468
 20
1403.336002873586
 30
0.0
  0
VERTEX
  5
282
  8
LAYER_05
 10
1157.410711569931
 20
1396.658531970412
 30
0.0
  0
VERTEX
  5
283
  8
LAYER_05
 10
1155.241069752468
 20
1389.981061067238
 30
0.0
  0
VERTEX
  5
284
  8
LAYER_05
 10
1141.88495588573
 20
1389.402376239275
 30
0.0
  0
SEQEND
  5
285
  8
LAYER_05
  0
POLYLINE
  5
286
  8
LAYER_05
 66
     1
 10
0.0
 20
0.0
 30
0.0
 70
     1
  0
VERTEX
  5
287
  8
LAYER_05
 10
1112.772520346044
 20
1449.133872951235
 30
0.0
  0
VERTEX
  5
288
  8
LAYER_05
 10
1121.163406198202
 20
1443.037537532005
 30
0.0
  0
VERTEX
  5
289
  8
LAYER_05
 10
1116.821143522418
 20
1443.037537532005
 30
0.0
  0
VERTEX
  5
28A
  8
LAYER_05
 10
1112.772520346044
 20
1432.198001297211
 30
0.0
  0
VERTEX
  5
28B
  8
LAYER_05
 10
1108.72389716967
 20
1443.037537532005
 30
0.0
  0
VERTEX
  5
28C
  8
LAYER_05
 10
1104.381634493886
 20
1443.037537532005
 30
0.0
  0
SEQEND
  5
28D
  8
LAYER_05
  0
POLYLINE
  5
28E
  8
LAYER_05
 66
     1
 10
0.0
 20
0.0
 30
0.0
 70
     1
  0
VERTEX
  5
28F
  8
LAYER_05
 10
1082.236219907443
 20
1361.516849284036
 30
0.0
  0
VERTEX
  5
290
  8
LAYER_05
 10
1091.882944401451
 20
1367.906497313965
 30
0.0
  0
VERTEX
  5
291
  8
LAYER_05
 10
1088.787029814456
 20
1356.757407293711
 30
0.0
  0
VERTEX
  5
292
  8
LAYER_05
 10
1096.17661328822
 20
1351.388560635776
 30
0.0
  0
VERTEX
  5
293
  8
LAYER_05
 10
1089.904435181712
 20
1345.915002733465
 30
0.0
  0
VERTEX
  5
294
  8
LAYER_05
 10
1070.162617195067
 20
1360.882321170414
 30
0.0
  0
VERTEX
  5
295
  8
LAYER_05
 10
1076.498269053299
 20
1365.685714603175
 30
0.0
  0
SEQEND
  5
296
  8
LAYER_05
  0
POLYLINE
  5
297
  8
LAYER_05
 66
     1
 10
0.0
 20
0.0
 30
0.0
 70
     1
  0
VERTEX
  5
298
  8
LAYER_05
 10
1110.842720389884
 20
1392.301088583923
 30
0.0
  0
VERTEX
  5
299
  8
LAYER_05
 10
1107.192727336663
 20
1387.277304135625
 30
0.0
  0
VERTEX
  5
29A
  8
LAYER_05
 10
1108.546607250269
 20
1383.652508806011
 30
0.0
  0
VERTEX
  5
29B
  8
LAYER_05
 10
1111.772520346044
 20
1385.789239182208
 30
0.0
  0
VERTEX
  5
29C
  8
LAYER_05
 10
1111.772520346044
 20
1391.998978264611
 30
0.0
 42
-0.0514218516032131
  0
SEQEND
  5
29D
  8
LAYER_05
  0
POLYLINE
  5
29E
  8
LAYER_05
 66
     1
 10
0.0
 20
0.0
 30
0.0
 70
     1
  0
VERTEX
  5
29F
  8
LAYER_05
 10
1109.224686401134
 20
1393.476659088508
 30
0.0
  0
VERTEX
  5
2A0
  8
LAYER_05
 10
1105.574693347914
 20
1388.45287464021
 30
0.0
  0
VERTEX
  5
2A1
  8
LAYER_05
 10
1101.708936227801
 20
1388.620367596344
 30
0.0
  0
VERTEX
  5
2A2
  8
LAYER_05
 10
1102.744225606677
 20
1392.348679265725
 30
0.0
  0
VERTEX
  5
2A3
  8
LAYER_05
 10
1108.650038425489
 20
1394.267594172821
 30
0.0
 42
0.0514218516029656
  0
SEQEND
  5
2A4
  8
LAYER_05
  0
POLYLINE
  5
2A5
  8
LAYER_05
 66
     1
 10
0.0
 20
0.0
 30
0.0
 70
     1
  0
VERTEX
  5
2A6
  8
LAYER_05
 10
1084.955003919693
 20
1385.417025002191
 30
0.0
  0
VERTEX
  5
2A7
  8
LAYER_05
 10
1096.60515696878
 20
1384.912254911113
 30
0.0
  0
VERTEX
  5
2A8
  8
LAYER_05
 10
1093.485126573893
 20
1373.676318401548
 30
0.0
  0
VERTEX
  5
2A9
  8
LAYER_05
 10
1082.339661069293
 20
1366.29395750295
 30
0.0
  0
VERTEX
  5
2AA
  8
LAYER_05
 10
1076.659465047761
 20
1370.42086148
 30
0.0
  0
VERTEX
  5
2AB
  8
LAYER_05
 10
1074.489823230297
 20
1377.098332383174
 30
0.0
  0
SEQEND
  5
2AC
  8
LAYER_05
  0
POLYLINE
  5
2AD
  8
LAYER_05
 66
     1
 10
0.0
 20
0.0
 30
0.0
 70
     1
  0
VERTEX
  5
2AE
  8
LAYER_05
 10
1096.875268825285
 20
1371.213235879924
 30
0.0
  0
VERTEX
  5
2AF
  8
LAYER_05
 10
1106.597137044399
 20
1377.652656447193
 30
0.0
  0
VERTEX
  5
2B0
  8
LAYER_05
 10
1110.677297207987
 20
1366.728685010419
 30
0.0
  0
VERTEX
  5
2B1
  8
LAYER_05
 10
1105.999669067842
 20
1354.205089331305
 30
0.0
  0
VERTEX
  5
2B2
  8
LAYER_05
 10
1098.978560659704
 20
1354.205089331305
 30
0.0
  0
VERTEX
  5
2B3
  8
LAYER_05
 10
1093.298364638172
 20
1358.331993308355
 30
0.0
  0
SEQEND
  5
2B4
  8
LAYER_05
  0
POLYLINE
  5
2B5
  8
LAYER_05
 66
     1
 10
0.0
 20
0.0
 30
0.0
 70
     1
  0
VERTEX
  5
2B6
  8
LAYER_05
 10
1100.630821898528
 20
1384.737833575644
 30
0.0
  0
VERTEX
  5
2B7
  8
LAYER_05
 10
1104.005397229133
 20
1384.59162221775
 30
0.0
  0
VERTEX
  5
2B8
  8
LAYER_05
 10
1105.18725361977
 20
1381.42739215421
 30
0.0
  0
VERTEX
  5
2B9
  8
LAYER_05
 10
1098.477450997727
 20
1376.983056967507
 30
0.0
  0
SEQEND
  5
2BA
  8
LAYER_05
  0
POLYLINE
  5
2BB
  8
LAYER_05
 66
     1
 10
0.0
 20
0.0
 30
0.0
 70
     1
  0
VERTEX
  5
2BC
  8
LAYER_05
 10
1097.683271298053
 20
1388.794788931812
 30
0.0
  0
VERTEX
  5
2BD
  8
LAYER_05
 10
1098.587017159326
 20
1392.049382584073
 30
0.0
  0
VERTEX
  5
2BE
  8
LAYER_05
 10
1095.942869247957
 20
1394.151195669459
 30
0.0
  0
VERTEX
  5
2BF
  8
LAYER_05
 10
1089.642612268931
 20
1389.143169264101
 30
0.0
  0
SEQEND
  5
2C0
  8
LAYER_05
  0
POLYLINE
  5
2C1
  8
LAYER_05
 66
     1
 10
0.0
 20
0.0
 30
0.0
 70
     1
  0
VERTEX
  5
2C2
  8
LAYER_05
 10
1143.308820784645
 20
1361.516849284036
 30
0.0
  0
VERTEX
  5
2C3
  8
LAYER_05
 10
1133.662096290637
 20
1367.906497313965
 30
0.0
  0
VERTEX
  5
2C4
  8
LAYER_05
 10
1136.758010877632
 20
1356.757407293711
 30
0.0
  0
VERTEX
  5
2C5
  8
LAYER_05
 10
1129.368427403868
 20
1351.388560635776
 30
0.0
  0
VERTEX
  5
2C6
  8
LAYER_05
 10
1135.640605510376
 20
1345.915002733465
 30
0.0
  0
VERTEX
  5
2C7
  8
LAYER_05
 10
1155.382423497022
 20
1360.882321170414
 30
0.0
  0
VERTEX
  5
2C8
  8
LAYER_05
 10
1149.046771638789
 20
1365.685714603175
 30
0.0
  0
SEQEND
  5
2C9
  8
LAYER_05
  0
POLYLINE
  5
2CA
  8
LAYER_05
 66
     1
 10
0.0
 20
0.0
 30
0.0
 70
     1
  0
VERTEX
  5
2CB
  8
LAYER_05
 10
1114.702320302204
 20
1392.301088583923
 30
0.0
  0
VERTEX
  5
2CC
  8
LAYER_05
 10
1118.352313355425
 20
1387.277304135625
 30
0.0
  0
VERTEX
  5
2CD
  8
LAYER_05
 10
1116.998433441819
 20
1383.652508806011
 30
0.0
  0
VERTEX
  5
2CE
  8
LAYER_05
 10
1113.772520346044
 20
1385.789239182208
 30
0.0
  0
VERTEX
  5
2CF
  8
LAYER_05
 10
1113.772520346044
 20
1391.998978264611
 30
0.0
 42
0.0514218516032131
  0
SEQEND
  5
2D0
  8
LAYER_05
  0
POLYLINE
  5
2D1
  8
LAYER_05
 66
     1
 10
0.0
 20
0.0
 30
0.0
 70
     1
  0
VERTEX
  5
2D2
  8
LAYER_05
 10
1116.320354290954
 20
1393.476659088508
 30
0.0
  0
VERTEX
  5
2D3
  8
LAYER_05
 10
1119.970347344175
 20
1388.45287464021
 30
0.0
  0
VERTEX
  5
2D4
  8
LAYER_05
 10
1123.836104464287
 20
1388.620367596344
 30
0.0
  0
VERTEX
  5
2D5
  8
LAYER_05
 10
1122.800815085411
 20
1392.348679265725
 30
0.0
  0
VERTEX
  5
2D6
  8
LAYER_05
 10
1116.895002266599
 20
1394.267594172821
 30
0.0
 42
-0.0514218516029889
  0
SEQEND
  5
2D7
  8
LAYER_05
  0
POLYLINE
  5
2D8
  8
LAYER_05
 66
     1
 10
0.0
 20
0.0
 30
0.0
 70
     1
  0
VERTEX
  5
2D9
  8
LAYER_05
 10
1140.590036772395
 20
1385.417025002191
 30
0.0
  0
VERTEX
  5
2DA
  8
LAYER_05
 10
1128.939883723308
 20
1384.912254911113
 30
0.0
  0
VERTEX
  5
2DB
  8
LAYER_05
 10
1132.059914118195
 20
1373.676318401548
 30
0.0
  0
VERTEX
  5
2DC
  8
LAYER_05
 10
1143.205379622795
 20
1366.29395750295
 30
0.0
  0
VERTEX
  5
2DD
  8
LAYER_05
 10
1148.885575644327
 20
1370.42086148
 30
0.0
  0
VERTEX
  5
2DE
  8
LAYER_05
 10
1151.055217461791
 20
1377.098332383174
 30
0.0
  0
SEQEND
  5
2DF
  8
LAYER_05
  0
POLYLINE
  5
2E0
  8
LAYER_05
 66
     1
 10
0.0
 20
0.0
 30
0.0
 70
     1
  0
VERTEX
  5
2E1
  8
LAYER_05
 10
1128.669771866803
 20
1371.213235879924
 30
0.0
  0
VERTEX
  5
2E2
  8
LAYER_05
 10
1118.947903647689
 20
1377.652656447193
 30
0.0
  0
VERTEX
  5
2E3
  8
LAYER_05
 10
1114.867743484102
 20
1366.728685010419
 30
0.0
  0
VERTEX
  5
2E4
  8
LAYER_05
 10
1119.545371624246
 20
1354.205089331305
 30
0.0
  0
VERTEX
  5
2E5
  8
LAYER_05
 10
1126.566480032384
 20
1354.205089331305
 30
0.0
  0
VERTEX
  5
2E6
  8
LAYER_05
 10
1132.246676053916
 20
1358.331993308355
 30
0.0
  0
SEQEND
  5
2E7
  8
LAYER_05
  0
POLYLINE
  5
2E8
  8
LAYER_05
 66
     1
 10
0.0
 20
0.0
 30
0.0
 70
     1
  0
VERTEX
  5
2E9
  8
LAYER_05
 10
1121.539643462955
 20
1384.59162221775
 30
0.0
  0
VERTEX
  5
2EA
  8
LAYER_05
 10
1124.91421879356
 20
1384.737833575644
 30
0.0
  0
VERTEX
  5
2EB
  8
LAYER_05
 10
1127.067589694361
 20
1376.983056967507
 30
0.0
  0
VERTEX
  5
2EC
  8
LAYER_05
 10
1120.357787072319
 20
1381.42739215421
 30
0.0
  0
SEQEND
  5
2ED
  8
LAYER_05
  0
POLYLINE
  5
2EE
  8
LAYER_05
 66
     1
 10
0.0
 20
0.0
 30
0.0
 70
     1
  0
VERTEX
  5
2EF
  8
LAYER_05
 10
1127.861769394035
 20
1388.794788931812
 30
0.0
  0
VERTEX
  5
2F0
  8
LAYER_05
 10
1126.958023532762
 20
1392.049382584073
 30
0.0
  0
VERTEX
  5
2F1
  8
LAYER_05
 10
1129.602171444131
 20
1394.151195669459
 30
0.0
  0
VERTEX
  5
2F2
  8
LAYER_05
 10
1135.902428423158
 20
1389.143169264101
 30
0.0
  0
SEQEND
  5
2F3
  8
LAYER_05
  0
POLYLINE
  5
2F4
  8
LAYER_05
 66
     1
 10
0.0
 20
0.0
 30
0.0
 70
     1
  0
VERTEX
  5
2F5
  8
LAYER_05
 10
1112.772520346044
 20
1381.743011237767
 30
0.0
  0
VERTEX
  5
2F6
  8
LAYER_05
 10
1115.588550017189
 20
1379.877773098995
 30
0.0
  0
VERTEX
  5
2F7
  8
LAYER_05
 10
1112.772520346044
 20
1372.338307377224
 30
0.0
  0
VERTEX
  5
2F8
  8
LAYER_05
 10
1109.956490674899
 20
1379.877773098995
 30
0.0
  0
SEQEND
  5
2F9
  8
LAYER_05
  0
POLYLINE
  5
2FA
  8
LAYER_05
 66
     1
 10
0.0
 20
0.0
 30
0.0
 70
     1
  0
VERTEX
  5
2FB
  8
LAYER_05
 10
1082.236219907443
 20
1431.800214656789
 30
0.0
  0
VERTEX
  5
2FC
  8
LAYER_05
 10
1091.882944401451
 20
1425.41056662686
 30
0.0
  0
VERTEX
  5
2FD
  8
LAYER_05
 10
1088.787029814456
 20
1436.559656647113
 30
0.0
  0
VERTEX
  5
2FE
  8
LAYER_05
 10
1096.17661328822
 20
1441.928503305049
 30
0.0
  0
VERTEX
  5
2FF
  8
LAYER_05
 10
1089.904435181712
 20
1447.40206120736
 30
0.0
  0
VERTEX
  5
300
  8
LAYER_05
 10
1070.162617195067
 20
1432.43474277041
 30
0.0
  0
VERTEX
  5
301
  8
LAYER_05
 10
1076.498269053299
 20
1427.631349337649
 30
0.0
  0
SEQEND
  5
302
  8
LAYER_05
  0
POLYLINE
  5
303
  8
LAYER_05
 66
     1
 10
0.0
 20
0.0
 30
0.0
 70
     1
  0
VERTEX
  5
304
  8
LAYER_05
 10
1110.842720389884
 20
1401.015975356901
 30
0.0
  0
VERTEX
  5
305
  8
LAYER_05
 10
1107.192727336663
 20
1406.039759805199
 30
0.0
  0
VERTEX
  5
306
  8
LAYER_05
 10
1108.546607250269
 20
1409.664555134813
 30
0.0
  0
VERTEX
  5
307
  8
LAYER_05
 10
1111.772520346044
 20
1407.527824758617
 30
0.0
  0
VERTEX
  5
308
  8
LAYER_05
 10
1111.772520346044
 20
1401.318085676214
 30
0.0
 42
0.0514218516032131
  0
SEQEND
  5
309
  8
LAYER_05
  0
POLYLINE
  5
30A
  8
LAYER_05
 66
     1
 10
0.0
 20
0.0
 30
0.0
 70
     1
  0
VERTEX
  5
30B
  8
LAYER_05
 10
1109.224686401134
 20
1399.840404852316
 30
0.0
  0
VERTEX
  5
30C
  8
LAYER_05
 10
1105.574693347914
 20
1404.864189300614
 30
0.0
  0
VERTEX
  5
30D
  8
LAYER_05
 10
1101.708936227801
 20
1404.696696344481
 30
0.0
  0
VERTEX
  5
30E
  8
LAYER_05
 10
1102.744225606677
 20
1400.9683846751
 30
0.0
  0
VERTEX
  5
30F
  8
LAYER_05
 10
1108.650038425489
 20
1399.049469768003
 30
0.0
 42
-0.0514218516029656
  0
SEQEND
  5
310
  8
LAYER_05
  0
POLYLINE
  5
311
  8
LAYER_05
 66
     1
 10
0.0
 20
0.0
 30
0.0
 70
     1
  0
VERTEX
  5
312
  8
LAYER_05
 10
1084.955003919693
 20
1407.900038938633
 30
0.0
  0
VERTEX
  5
313
  8
LAYER_05
 10
1096.60515696878
 20
1408.404809029711
 30
0.0
  0
VERTEX
  5
314
  8
LAYER_05
 10
1093.485126573893
 20
1419.640745539276
 30
0.0
  0
VERTEX
  5
315
  8
LAYER_05
 10
1082.339661069293
 20
1427.023106437875
 30
0.0
  0
VERTEX
  5
316
  8
LAYER_05
 10
1076.659465047761
 20
1422.896202460824
 30
0.0
  0
VERTEX
  5
317
  8
LAYER_05
 10
1074.489823230297
 20
1416.21873155765
 30
0.0
  0
SEQEND
  5
318
  8
LAYER_05
  0
POLYLINE
  5
319
  8
LAYER_05
 66
     1
 10
0.0
 20
0.0
 30
0.0
 70
     1
  0
VERTEX
  5
31A
  8
LAYER_05
 10
1096.875268825285
 20
1422.1038280609
 30
0.0
  0
VERTEX
  5
31B
  8
LAYER_05
 10
1106.597137044399
 20
1415.664407493631
 30
0.0
  0
VERTEX
  5
31C
  8
LAYER_05
 10
1110.677297207987
 20
1426.588378930406
 30
0.0
  0
VERTEX
  5
31D
  8
LAYER_05
 10
1105.999669067842
 20
1439.111974609519
 30
0.0
  0
VERTEX
  5
31E
  8
LAYER_05
 10
1098.978560659704
 20
1439.111974609519
 30
0.0
  0
VERTEX
  5
31F
  8
LAYER_05
 10
1093.298364638172
 20
1434.985070632469
 30
0.0
  0
SEQEND
  5
320
  8
LAYER_05
  0
POLYLINE
  5
321
  8
LAYER_05
 66
     1
 10
0.0
 20
0.0
 30
0.0
 70
     1
  0
VERTEX
  5
322
  8
LAYER_05
 10
1104.005397229133
 20
1408.725441723074
 30
0.0
  0
VERTEX
  5
323
  8
LAYER_05
 10
1100.630821898528
 20
1408.57923036518
 30
0.0
  0
VERTEX
  5
324
  8
LAYER_05
 10
1098.477450997727
 20
1416.334006973317
 30
0.0
  0
VERTEX
  5
325
  8
LAYER_05
 10
1105.18725361977
 20
1411.889671786615
 30
0.0
  0
SEQEND
  5
326
  8
LAYER_05
  0
POLYLINE
  5
327
  8
LAYER_05
 66
     1
 10
0.0
 20
0.0
 30
0.0
 70
     1
  0
VERTEX
  5
328
  8
LAYER_05
 10
1097.683271298053
 20
1404.522275009012
 30
0.0
  0
VERTEX
  5
329
  8
LAYER_05
 10
1098.587017159326
 20
1401.267681356752
 30
0.0
  0
VERTEX
  5
32A
  8
LAYER_05
 10
1095.942869247957
 20
1399.165868271366
 30
0.0
  0
VERTEX
  5
32B
  8
LAYER_05
 10
1089.642612268931
 20
1404.173894676723
 30
0.0
  0
SEQEND
  5
32C
  8
LAYER_05
  0
POLYLINE
  5
32D
  8
LAYER_05
 66
     1
 10
0.0
 20
0.0
 30
0.0
 70
     1
  0
VERTEX
  5
32E
  8
LAYER_05
 10
1143.308820784645
 20
1431.800214656789
 30
0.0
  0
VERTEX
  5
32F
  8
LAYER_05
 10
1133.662096290637
 20
1425.41056662686
 30
0.0
  0
VERTEX
  5
330
  8
LAYER_05
 10
1136.758010877632
 20
1436.559656647113
 30
0.0
  0
VERTEX
  5
331
  8
LAYER_05
 10
1129.368427403868
 20
1441.928503305049
 30
0.0
  0
VERTEX
  5
332
  8
LAYER_05
 10
1135.640605510376
 20
1447.40206120736
 30
0.0
  0
VERTEX
  5
333
  8
LAYER_05
 10
1155.382423497022
 20
1432.43474277041
 30
0.0
  0
VERTEX
  5
334
  8
LAYER_05
 10
1149.046771638789
 20
1427.631349337649
 30
0.0
  0
SEQEND
  5
335
  8
LAYER_05
  0
POLYLINE
  5
336
  8
LAYER_05
 66
     1
 10
0.0
 20
0.0
 30
0.0
 70
     1
  0
VERTEX
  5
337
  8
LAYER_05
 10
1114.702320302204
 20
1401.015975356901
 30
0.0
  0
VERTEX
  5
338
  8
LAYER_05
 10
1118.352313355425
 20
1406.039759805199
 30
0.0
  0
VERTEX
  5
339
  8
LAYER_05
 10
1116.998433441819
 20
1409.664555134813
 30
0.0
  0
VERTEX
  5
33A
  8
LAYER_05
 10
1113.772520346044
 20
1407.527824758617
 30
0.0
  0
VERTEX
  5
33B
  8
LAYER_05
 10
1113.772520346044
 20
1401.318085676214
 30
0.0
 42
-0.0514218516032131
  0
SEQEND
  5
33C
  8
LAYER_05
  0
POLYLINE
  5
33D
  8
LAYER_05
 66
     1
 10
0.0
 20
0.0
 30
0.0
 70
     1
  0
VERTEX
  5
33E
  8
LAYER_05
 10
1116.320354290954
 20
1399.840404852316
 30
0.0
  0
VERTEX
  5
33F
  8
LAYER_05
 10
1119.970347344175
 20
1404.864189300614
 30
0.0
  0
VERTEX
  5
340
  8
LAYER_05
 10
1123.836104464287
 20
1404.696696344481
 30
0.0
  0
VERTEX
  5
341
  8
LAYER_05
 10
1122.800815085411
 20
1400.9683846751
 30
0.0
  0
VERTEX
  5
342
  8
LAYER_05
 10
1116.895002266599
 20
1399.049469768003
 30
0.0
 42
0.0514218516029889
  0
SEQEND
  5
343
  8
LAYER_05
  0
POLYLINE
  5
344
  8
LAYER_05
 66
     1
 10
0.0
 20
0.0
 30
0.0
 70
     1
  0
VERTEX
  5
345
  8
LAYER_05
 10
1140.590036772395
 20
1407.900038938633
 30
0.0
  0
VERTEX
  5
346
  8
LAYER_05
 10
1128.939883723308
 20
1408.404809029711
 30
0.0
  0
VERTEX
  5
347
  8
LAYER_05
 10
1132.059914118195
 20
1419.640745539276
 30
0.0
  0
VERTEX
  5
348
  8
LAYER_05
 10
1143.205379622795
 20
1427.023106437875
 30
0.0
  0
VERTEX
  5
349
  8
LAYER_05
 10
1148.885575644327
 20
1422.896202460824
 30
0.0
  0
VERTEX
  5
34A
  8
LAYER_05
 10
1151.055217461791
 20
1416.21873155765
 30
0.0
  0
SEQEND
  5
34B
  8
LAYER_05
  0
POLYLINE
  5
34C
  8
LAYER_05
 66
     1
 10
0.0
 20
0.0
 30
0.0
 70
     1
  0
VERTEX
  5
34D
  8
LAYER_05
 10
1128.669771866803
 20
1422.1038280609
 30
0.0
  0
VERTEX
  5
34E
  8
LAYER_05
 10
1118.947903647689
 20
1415.664407493631
 30
0.0
  0
VERTEX
  5
34F
  8
LAYER_05
 10
1114.867743484102
 20
1426.588378930406
 30
0.0
  0
VERTEX
  5
350
  8
LAYER_05
 10
1119.545371624246
 20
1439.111974609519
 30
0.0
  0
VERTEX
  5
351
  8
LAYER_05
 10
1126.566480032384
 20
1439.111974609519
 30
0.0
  0
VERTEX
  5
352
  8
LAYER_05
 10
1132.246676053916
 20
1434.985070632469
 30
0.0
  0
SEQEND
  5
353
  8
LAYER_05
  0
POLYLINE
  5
354
  8
LAYER_05
 66
     1
 10
0.0
 20
0.0
 30
0.0
 70
     1
  0
VERTEX
  5
355
  8
LAYER_05
 10
1121.539643462955
 20
1408.725441723074
 30
0.0
  0
VERTEX
  5
356
  8
LAYER_05
 10
1124.91421879356
 20
1408.57923036518
 30
0.0
  0
VERTEX
  5
357
  8
LAYER_05
 10
1127.067589694361
 20
1416.334006973317
 30
0.0
  0
VERTEX
  5
358
  8
LAYER_05
 10
1120.357787072319
 20
1411.889671786615
 30
0.0
  0
SEQEND
  5
359
  8
LAYER_05
  0
POLYLINE
  5
35A
  8
LAYER_05
 66
     1
 10
0.0
 20
0.0
 30
0.0
 70
     1
  0
VERTEX
  5
35B
  8
LAYER_05
 10
1126.958023532761
 20
1401.267681356751
 30
0.0
  0
VERTEX
  5
35C
  8
LAYER_05
 10
1127.861769394035
 20
1404.522275009012
 30
0.0
  0
VERTEX
  5
35D
  8
LAYER_05
 10
1135.902428423158
 20
1404.173894676723
 30
0.0
  0
VERTEX
  5
35E
  8
LAYER_05
 10
1129.602171444131
 20
1399.165868271366
 30
0.0
  0
SEQEND
  5
35F
  8
LAYER_05
  0
POLYLINE
  5
360
  8
LAYER_05
 66
     1
 10
0.0
 20
0.0
 30
0.0
 70
     1
  0
VERTEX
  5
361
  8
LAYER_05
 10
1112.772520346044
 20
1411.574052703058
 30
0.0
  0
VERTEX
  5
362
  8
LAYER_05
 10
1115.588550017189
 20
1413.43929084183
 30
0.0
  0
VERTEX
  5
363
  8
LAYER_05
 10
1112.772520346044
 20
1420.9787565636
 30
0.0
  0
VERTEX
  5
364
  8
LAYER_05
 10
1109.956490674899
 20
1413.43929084183
 30
0.0
  0
SEQEND
  5
365
  8
LAYER_05
  0
POLYLINE
  5
366
  8
LAYER_05
 66
     1
 10
0.0
 20
0.0
 30
0.0
 70
     1
  0
VERTEX
  5
367
  8
LAYER_05
 10
989.6487846149782
 20
1462.025715963717
 30
0.0
  0
VERTEX
  5
368
  8
LAYER_05
 10
993.6245273871218
 20
1465.495237698988
 30
0.0
  0
VERTEX
  5
369
  8
LAYER_05
 10
998.2008091631108
 20
1462.025715963717
 30
0.0
  0
SEQEND
  5
36A
  8
LAYER_05
  0
POLYLINE
  5
36B
  8
LAYER_05
 66
     1
 10
0.0
 20
0.0
 30
0.0
 70
     1
  0
VERTEX
  5
36C
  8
LAYER_05
 10
1004.821682550378
 20
1462.025715963717
 30
0.0
  0
VERTEX
  5
36D
  8
LAYER_05
 10
996.7024990845321
 20
1468.181299226795
 30
0.0
  0
VERTEX
  5
36E
  8
LAYER_05
 10
1003.039023688037
 20
1473.711010553186
 30
0.0
  0
VERTEX
  5
36F
  8
LAYER_05
 10
1012.975927048508
 20
1466.491427665124
 30
0.0
  0
VERTEX
  5
370
  8
LAYER_05
 10
1006.829402200655
 20
1462.025715963717
 30
0.0
  0
SEQEND
  5
371
  8
LAYER_05
  0
POLYLINE
  5
372
  8
LAYER_05
 66
     1
 10
0.0
 20
0.0
 30
0.0
 70
     1
  0
VERTEX
  5
373
  8
LAYER_05
 10
983.5652348903877
 20
1462.025715963717
 30
0.0
  0
VERTEX
  5
374
  8
LAYER_05
 10
990.3691534600157
 20
1467.963309192267
 30
0.0
  0
VERTEX
  5
375
  8
LAYER_05
 10
971.0865553096144
 20
1482.58246873492
 30
0.0
  0
VERTEX
  5
376
  8
LAYER_05
 10
971.0865553096144
 20
1462.025715963717
 30
0.0
  0
SEQEND
  5
377
  8
LAYER_05
  0
POLYLINE
  5
378
  8
LAYER_05
 66
     1
 10
0.0
 20
0.0
 30
0.0
 70
     1
  0
VERTEX
  5
379
  8
LAYER_05
 10
1042.981636028537
 20
1462.025715963717
 30
0.0
  0
VERTEX
  5
37A
  8
LAYER_05
 10
1039.005893256393
 20
1465.495237698988
 30
0.0
  0
VERTEX
  5
37B
  8
LAYER_05
 10
1034.429611480404
 20
1462.025715963717
 30
0.0
  0
SEQEND
  5
37C
  8
LAYER_05
  0
POLYLINE
  5
37D
  8
LAYER_05
 66
     1
 10
0.0
 20
0.0
 30
0.0
 70
     1
  0
VERTEX
  5
37E
  8
LAYER_05
 10
1027.808738093137
 20
1462.025715963717
 30
0.0
  0
VERTEX
  5
37F
  8
LAYER_05
 10
1035.927921558983
 20
1468.181299226795
 30
0.0
  0
VERTEX
  5
380
  8
LAYER_05
 10
1029.591396955478
 20
1473.711010553186
 30
0.0
  0
VERTEX
  5
381
  8
LAYER_05
 10
1019.654493595007
 20
1466.491427665124
 30
0.0
  0
VERTEX
  5
382
  8
LAYER_05
 10
1025.80101844286
 20
1462.025715963717
 30
0.0
  0
SEQEND
  5
383
  8
LAYER_05
  0
POLYLINE
  5
384
  8
LAYER_05
 66
     1
 10
0.0
 20
0.0
 30
0.0
 70
     1
  0
VERTEX
  5
385
  8
LAYER_05
 10
1049.065185753127
 20
1462.025715963717
 30
0.0
  0
VERTEX
  5
386
  8
LAYER_05
 10
1042.2612671835
 20
1467.963309192267
 30
0.0
  0
VERTEX
  5
387
  8
LAYER_05
 10
1061.543865333901
 20
1482.58246873492
 30
0.0
  0
VERTEX
  5
388
  8
LAYER_05
 10
1061.543865333901
 20
1462.025715963717
 30
0.0
  0
SEQEND
  5
389
  8
LAYER_05
  0
POLYLINE
  5
38A
  8
LAYER_05
 66
     1
 10
0.0
 20
0.0
 30
0.0
 70
     1
  0
VERTEX
  5
38B
  8
LAYER_05
 10
1016.315210321758
 20
1468.917558976199
 30
0.0
  0
VERTEX
  5
38C
  8
LAYER_05
 10
1024.706096173915
 20
1475.013894395429
 30
0.0
  0
VERTEX
  5
38D
  8
LAYER_05
 10
1020.363833498131
 20
1475.013894395429
 30
0.0
  0
VERTEX
  5
38E
  8
LAYER_05
 10
1016.315210321757
 20
1485.853430630223
 30
0.0
  0
VERTEX
  5
38F
  8
LAYER_05
 10
1012.266587145384
 20
1475.013894395429
 30
0.0
  0
VERTEX
  5
390
  8
LAYER_05
 10
1007.9243244696
 20
1475.013894395429
 30
0.0
  0
SEQEND
  5
391
  8
LAYER_05
  0
POLYLINE
  5
392
  8
LAYER_05
 66
     1
 10
0.0
 20
0.0
 30
0.0
 70
     1
  0
VERTEX
  5
393
  8
LAYER_05
 10
989.6487846149782
 20
1580.760083950326
 30
0.0
  0
VERTEX
  5
394
  8
LAYER_05
 10
993.6245273871218
 20
1577.290562215056
 30
0.0
  0
VERTEX
  5
395
  8
LAYER_05
 10
998.2008091631111
 20
1580.760083950326
 30
0.0
  0
SEQEND
  5
396
  8
LAYER_05
  0
POLYLINE
  5
397
  8
LAYER_05
 66
     1
 10
0.0
 20
0.0
 30
0.0
 70
     1
  0
VERTEX
  5
398
  8
LAYER_05
 10
1004.821682550378
 20
1580.760083950326
 30
0.0
  0
VERTEX
  5
399
  8
LAYER_05
 10
996.7024990845321
 20
1574.604500687248
 30
0.0
  0
VERTEX
  5
39A
  8
LAYER_05
 10
1003.039023688037
 20
1569.074789360857
 30
0.0
  0
VERTEX
  5
39B
  8
LAYER_05
 10
1012.975927048508
 20
1576.294372248919
 30
0.0
  0
VERTEX
  5
39C
  8
LAYER_05
 10
1006.829402200655
 20
1580.760083950326
 30
0.0
  0
SEQEND
  5
39D
  8
LAYER_05
  0
POLYLINE
  5
39E
  8
LAYER_05
 66
     1
 10
0.0
 20
0.0
 30
0.0
 70
     1
  0
VERTEX
  5
39F
  8
LAYER_05
 10
983.5652348903877
 20
1580.760083950326
 30
0.0
  0
VERTEX
  5
3A0
  8
LAYER_05
 10
990.3691534600157
 20
1574.822490721776
 30
0.0
  0
VERTEX
  5
3A1
  8
LAYER_05
 10
971.0865553096144
 20
1560.203331179123
 30
0.0
  0
VERTEX
  5
3A2
  8
LAYER_05
 10
971.0865553096144
 20
1580.760083950326
 30
0.0
  0
SEQEND
  5
3A3
  8
LAYER_05
  0
POLYLINE
  5
3A4
  8
LAYER_05
 66
     1
 10
0.0
 20
0.0
 30
0.0
 70
     1
  0
VERTEX
  5
3A5
  8
LAYER_05
 10
996.3312501705184
 20
1521.392899957022
 30
0.0
  0
VERTEX
  5
3A6
  8
LAYER_05
 10
987.2027747820719
 20
1528.649055688159
 30
0.0
  0
VERTEX
  5
3A7
  8
LAYER_05
 10
973.8466609153338
 20
1528.070370860196
 30
0.0
  0
VERTEX
  5
3A8
  8
LAYER_05
 10
971.6770190978707
 20
1521.392899957022
 30
0.0
  0
VERTEX
  5
3A9
  8
LAYER_05
 10
973.8466609153338
 20
1514.715429053848
 30
0.0
  0
VERTEX
  5
3AA
  8
LAYER_05
 10
987.2027747820719
 20
1514.136744225884
 30
0.0
  0
SEQEND
  5
3AB
  8
LAYER_05
  0
POLYLINE
  5
3AC
  8
LAYER_05
 66
     1
 10
0.0
 20
0.0
 30
0.0
 70
     1
  0
VERTEX
  5
3AD
  8
LAYER_05
 10
1042.981636028537
 20
1580.760083950326
 30
0.0
  0
VERTEX
  5
3AE
  8
LAYER_05
 10
1039.005893256393
 20
1577.290562215056
 30
0.0
  0
VERTEX
  5
3AF
  8
LAYER_05
 10
1034.429611480404
 20
1580.760083950326
 30
0.0
  0
SEQEND
  5
3B0
  8
LAYER_05
  0
POLYLINE
  5
3B1
  8
LAYER_05
 66
     1
 10
0.0
 20
0.0
 30
0.0
 70
     1
  0
VERTEX
  5
3B2
  8
LAYER_05
 10
1027.808738093137
 20
1580.760083950326
 30
0.0
  0
VERTEX
  5
3B3
  8
LAYER_05
 10
1035.927921558983
 20
1574.604500687248
 30
0.0
  0
VERTEX
  5
3B4
  8
LAYER_05
 10
1029.591396955478
 20
1569.074789360857
 30
0.0
  0
VERTEX
  5
3B5
  8
LAYER_05
 10
1019.654493595007
 20
1576.294372248919
 30
0.0
  0
VERTEX
  5
3B6
  8
LAYER_05
 10
1025.80101844286
 20
1580.760083950326
 30
0.0
  0
SEQEND
  5
3B7
  8
LAYER_05
  0
POLYLINE
  5
3B8
  8
LAYER_05
 66
     1
 10
0.0
 20
0.0
 30
0.0
 70
     1
  0
VERTEX
  5
3B9
  8
LAYER_05
 10
1049.065185753127
 20
1580.760083950326
 30
0.0
  0
VERTEX
  5
3BA
  8
LAYER_05
 10
1042.2612671835
 20
1574.822490721776
 30
0.0
  0
VERTEX
  5
3BB
  8
LAYER_05
 10
1061.543865333901
 20
1560.203331179123
 30
0.0
  0
VERTEX
  5
3BC
  8
LAYER_05
 10
1061.543865333901
 20
1580.760083950326
 30
0.0
  0
SEQEND
  5
3BD
  8
LAYER_05
  0
POLYLINE
  5
3BE
  8
LAYER_05
 66
     1
 10
0.0
 20
0.0
 30
0.0
 70
     1
  0
VERTEX
  5
3BF
  8
LAYER_05
 10
1036.299170472997
 20
1521.392899957022
 30
0.0
  0
VERTEX
  5
3C0
  8
LAYER_05
 10
1045.427645861443
 20
1528.649055688159
 30
0.0
  0
VERTEX
  5
3C1
  8
LAYER_05
 10
1058.783759728181
 20
1528.070370860196
 30
0.0
  0
VERTEX
  5
3C2
  8
LAYER_05
 10
1060.953401545645
 20
1521.392899957022
 30
0.0
  0
VERTEX
  5
3C3
  8
LAYER_05
 10
1058.783759728181
 20
1514.715429053848
 30
0.0
  0
VERTEX
  5
3C4
  8
LAYER_05
 10
1045.427645861443
 20
1514.136744225884
 30
0.0
  0
SEQEND
  5
3C5
  8
LAYER_05
  0
POLYLINE
  5
3C6
  8
LAYER_05
 66
     1
 10
0.0
 20
0.0
 30
0.0
 70
     1
  0
VERTEX
  5
3C7
  8
LAYER_05
 10
1016.315210321758
 20
1573.868240937845
 30
0.0
  0
VERTEX
  5
3C8
  8
LAYER_05
 10
1024.706096173915
 20
1567.771905518614
 30
0.0
  0
VERTEX
  5
3C9
  8
LAYER_05
 10
1020.363833498131
 20
1567.771905518614
 30
0.0
  0
VERTEX
  5
3CA
  8
LAYER_05
 10
1016.315210321757
 20
1556.93236928382
 30
0.0
  0
VERTEX
  5
3CB
  8
LAYER_05
 10
1012.266587145384
 20
1567.771905518614
 30
0.0
  0
VERTEX
  5
3CC
  8
LAYER_05
 10
1007.9243244696
 20
1567.771905518614
 30
0.0
  0
SEQEND
  5
3CD
  8
LAYER_05
  0
POLYLINE
  5
3CE
  8
LAYER_05
 66
     1
 10
0.0
 20
0.0
 30
0.0
 70
     1
  0
VERTEX
  5
3CF
  8
LAYER_05
 10
985.7789098831563
 20
1486.251217270645
 30
0.0
  0
VERTEX
  5
3D0
  8
LAYER_05
 10
995.4256343771644
 20
1492.640865300574
 30
0.0
  0
VERTEX
  5
3D1
  8
LAYER_05
 10
992.3297197901693
 20
1481.491775280321
 30
0.0
  0
VERTEX
  5
3D2
  8
LAYER_05
 10
999.7193032639339
 20
1476.122928622385
 30
0.0
  0
VERTEX
  5
3D3
  8
LAYER_05
 10
993.4471251574255
 20
1470.649370720074
 30
0.0
  0
VERTEX
  5
3D4
  8
LAYER_05
 10
973.7053071707801
 20
1485.616689157024
 30
0.0
  0
VERTEX
  5
3D5
  8
LAYER_05
 10
980.0409590290128
 20
1490.420082589785
 30
0.0
  0
SEQEND
  5
3D6
  8
LAYER_05
  0
POLYLINE
  5
3D7
  8
LAYER_05
 66
     1
 10
0.0
 20
0.0
 30
0.0
 70
     1
  0
VERTEX
  5
3D8
  8
LAYER_05
 10
1014.385410365598
 20
1517.035456570533
 30
0.0
  0
VERTEX
  5
3D9
  8
LAYER_05
 10
1010.735417312377
 20
1512.011672122235
 30
0.0
  0
VERTEX
  5
3DA
  8
LAYER_05
 10
1012.089297225983
 20
1508.386876792621
 30
0.0
  0
VERTEX
  5
3DB
  8
LAYER_05
 10
1015.315210321758
 20
1510.523607168817
 30
0.0
  0
VERTEX
  5
3DC
  8
LAYER_05
 10
1015.315210321758
 20
1516.73334625122
 30
0.0
 42
-0.0514218516031171
  0
SEQEND
  5
3DD
  8
LAYER_05
  0
POLYLINE
  5
3DE
  8
LAYER_05
 66
     1
 10
0.0
 20
0.0
 30
0.0
 70
     1
  0
VERTEX
  5
3DF
  8
LAYER_05
 10
1012.767376376847
 20
1518.211027075117
 30
0.0
  0
VERTEX
  5
3E0
  8
LAYER_05
 10
1009.117383323627
 20
1513.187242626819
 30
0.0
  0
VERTEX
  5
3E1
  8
LAYER_05
 10
1005.251626203515
 20
1513.354735582953
 30
0.0
  0
VERTEX
  5
3E2
  8
LAYER_05
 10
1006.286915582391
 20
1517.083047252334
 30
0.0
  0
VERTEX
  5
3E3
  8
LAYER_05
 10
1012.192728401203
 20
1519.001962159431
 30
0.0
 42
0.0514218516030653
  0
SEQEND
  5
3E4
  8
LAYER_05
  0
POLYLINE
  5
3E5
  8
LAYER_05
 66
     1
 10
0.0
 20
0.0
 30
0.0
 70
     1
  0
VERTEX
  5
3E6
  8
LAYER_05
 10
988.4976938954064
 20
1510.151392988801
 30
0.0
  0
VERTEX
  5
3E7
  8
LAYER_05
 10
1000.147846944493
 20
1509.646622897722
 30
0.0
  0
VERTEX
  5
3E8
  8
LAYER_05
 10
997.0278165496068
 20
1498.410686388158
 30
0.0
  0
VERTEX
  5
3E9
  8
LAYER_05
 10
985.8823510450065
 20
1491.028325489559
 30
0.0
  0
VERTEX
  5
3EA
  8
LAYER_05
 10
980.2021550234745
 20
1495.155229466609
 30
0.0
  0
VERTEX
  5
3EB
  8
LAYER_05
 10
978.0325132060107
 20
1501.832700369784
 30
0.0
  0
SEQEND
  5
3EC
  8
LAYER_05
  0
POLYLINE
  5
3ED
  8
LAYER_05
 66
     1
 10
0.0
 20
0.0
 30
0.0
 70
     1
  0
VERTEX
  5
3EE
  8
LAYER_05
 10
1000.417958800999
 20
1495.947603866533
 30
0.0
  0
VERTEX
  5
3EF
  8
LAYER_05
 10
1010.139827020113
 20
1502.387024433802
 30
0.0
  0
VERTEX
  5
3F0
  8
LAYER_05
 10
1014.2199871837
 20
1491.463052997028
 30
0.0
  0
VERTEX
  5
3F1
  8
LAYER_05
 10
1009.542359043556
 20
1478.939457317915
 30
0.0
  0
VERTEX
  5
3F2
  8
LAYER_05
 10
1002.521250635418
 20
1478.939457317915
 30
0.0
  0
VERTEX
  5
3F3
  8
LAYER_05
 10
996.8410546138853
 20
1483.066361294965
 30
0.0
  0
SEQEND
  5
3F4
  8
LAYER_05
  0
POLYLINE
  5
3F5
  8
LAYER_05
 66
     1
 10
0.0
 20
0.0
 30
0.0
 70
     1
  0
VERTEX
  5
3F6
  8
LAYER_05
 10
1004.173511874242
 20
1509.472201562254
 30
0.0
  0
VERTEX
  5
3F7
  8
LAYER_05
 10
1007.548087204846
 20
1509.32599020436
 30
0.0
  0
VERTEX
  5
3F8
  8
LAYER_05
 10
1008.729943595483
 20
1506.161760140819
 30
0.0
  0
VERTEX
  5
3F9
  8
LAYER_05
 10
1002.020140973441
 20
1501.717424954117
 30
0.0
  0
SEQEND
  5
3FA
  8
LAYER_05
  0
POLYLINE
  5
3FB
  8
LAYER_05
 66
     1
 10
0.0
 20
0.0
 30
0.0
 70
     1
  0
VERTEX
  5
3FC
  8
LAYER_05
 10
1019.131239992902
 20
1504.612141085604
 30
0.0
  0
VERTEX
  5
3FD
  8
LAYER_05
 10
1016.315210321758
 20
1506.477379224376
 30
0.0
  0
VERTEX
  5
3FE
  8
LAYER_05
 10
1013.499180650613
 20
1504.612141085604
 30
0.0
  0
VERTEX
  5
3FF
  8
LAYER_05
 10
1016.315210321758
 20
1497.072675363834
 30
0.0
  0
SEQEND
  5
400
  8
LAYER_05
  0
POLYLINE
  5
401
  8
LAYER_05
 66
     1
 10
0.0
 20
0.0
 30
0.0
 70
     1
  0
VERTEX
  5
402
  8
LAYER_05
 10
1002.12970713504
 20
1516.783750570683
 30
0.0
  0
VERTEX
  5
403
  8
LAYER_05
 10
1001.225961273766
 20
1513.529156918422
 30
0.0
  0
VERTEX
  5
404
  8
LAYER_05
 10
993.1853022446442
 20
1513.877537250711
 30
0.0
  0
VERTEX
  5
405
  8
LAYER_05
 10
999.4855592236704
 20
1518.885563656068
 30
0.0
  0
SEQEND
  5
406
  8
LAYER_05
  0
POLYLINE
  5
407
  8
LAYER_05
 66
     1
 10
0.0
 20
0.0
 30
0.0
 70
     1
  0
VERTEX
  5
408
  8
LAYER_05
 10
1046.851510760359
 20
1486.251217270645
 30
0.0
  0
VERTEX
  5
409
  8
LAYER_05
 10
1037.204786266351
 20
1492.640865300574
 30
0.0
  0
VERTEX
  5
40A
  8
LAYER_05
 10
1040.300700853346
 20
1481.491775280321
 30
0.0
  0
VERTEX
  5
40B
  8
LAYER_05
 10
1032.911117379581
 20
1476.122928622385
 30
0.0
  0
VERTEX
  5
40C
  8
LAYER_05
 10
1039.18329548609
 20
1470.649370720074
 30
0.0
  0
VERTEX
  5
40D
  8
LAYER_05
 10
1058.925113472735
 20
1485.616689157024
 30
0.0
  0
VERTEX
  5
40E
  8
LAYER_05
 10
1052.589461614502
 20
1490.420082589785
 30
0.0
  0
SEQEND
  5
40F
  8
LAYER_05
  0
POLYLINE
  5
410
  8
LAYER_05
 66
     1
 10
0.0
 20
0.0
 30
0.0
 70
     1
  0
VERTEX
  5
411
  8
LAYER_05
 10
1018.245010277918
 20
1517.035456570533
 30
0.0
  0
VERTEX
  5
412
  8
LAYER_05
 10
1021.895003331138
 20
1512.011672122235
 30
0.0
  0
VERTEX
  5
413
  8
LAYER_05
 10
1020.541123417533
 20
1508.386876792621
 30
0.0
  0
VERTEX
  5
414
  8
LAYER_05
 10
1017.315210321757
 20
1510.523607168817
 30
0.0
  0
VERTEX
  5
415
  8
LAYER_05
 10
1017.315210321758
 20
1516.73334625122
 30
0.0
 42
0.0514218516031159
  0
SEQEND
  5
416
  8
LAYER_05
  0
POLYLINE
  5
417
  8
LAYER_05
 66
     1
 10
0.0
 20
0.0
 30
0.0
 70
     1
  0
VERTEX
  5
418
  8
LAYER_05
 10
1019.863044266668
 20
1518.211027075117
 30
0.0
  0
VERTEX
  5
419
  8
LAYER_05
 10
1023.513037319888
 20
1513.187242626819
 30
0.0
  0
VERTEX
  5
41A
  8
LAYER_05
 10
1027.378794440001
 20
1513.354735582953
 30
0.0
  0
VERTEX
  5
41B
  8
LAYER_05
 10
1026.343505061125
 20
1517.083047252334
 30
0.0
  0
VERTEX
  5
41C
  8
LAYER_05
 10
1020.437692242313
 20
1519.001962159431
 30
0.0
 42
-0.0514218516030798
  0
SEQEND
  5
41D
  8
LAYER_05
  0
POLYLINE
  5
41E
  8
LAYER_05
 66
     1
 10
0.0
 20
0.0
 30
0.0
 70
     1
  0
VERTEX
  5
41F
  8
LAYER_05
 10
1044.132726748109
 20
1510.151392988801
 30
0.0
  0
VERTEX
  5
420
  8
LAYER_05
 10
1032.482573699022
 20
1509.646622897722
 30
0.0
  0
VERTEX
  5
421
  8
LAYER_05
 10
1035.602604093908
 20
1498.410686388158
 30
0.0
  0
VERTEX
  5
422
  8
LAYER_05
 10
1046.748069598509
 20
1491.028325489559
 30
0.0
  0
VERTEX
  5
423
  8
LAYER_05
 10
1052.428265620041
 20
1495.155229466609
 30
0.0
  0
VERTEX
  5
424
  8
LAYER_05
 10
1054.597907437505
 20
1501.832700369784
 30
0.0
  0
SEQEND
  5
425
  8
LAYER_05
  0
POLYLINE
  5
426
  8
LAYER_05
 66
     1
 10
0.0
 20
0.0
 30
0.0
 70
     1
  0
VERTEX
  5
427
  8
LAYER_05
 10
1032.212461842517
 20
1495.947603866533
 30
0.0
  0
VERTEX
  5
428
  8
LAYER_05
 10
1022.490593623402
 20
1502.387024433802
 30
0.0
  0
VERTEX
  5
429
  8
LAYER_05
 10
1018.410433459815
 20
1491.463052997028
 30
0.0
  0
VERTEX
  5
42A
  8
LAYER_05
 10
1023.08806159996
 20
1478.939457317915
 30
0.0
  0
VERTEX
  5
42B
  8
LAYER_05
 10
1030.109170008097
 20
1478.939457317915
 30
0.0
  0
VERTEX
  5
42C
  8
LAYER_05
 10
1035.78936602963
 20
1483.066361294965
 30
0.0
  0
SEQEND
  5
42D
  8
LAYER_05
  0
POLYLINE
  5
42E
  8
LAYER_05
 66
     1
 10
0.0
 20
0.0
 30
0.0
 70
     1
  0
VERTEX
  5
42F
  8
LAYER_05
 10
1025.082333438669
 20
1509.32599020436
 30
0.0
  0
VERTEX
  5
430
  8
LAYER_05
 10
1028.456908769273
 20
1509.472201562254
 30
0.0
  0
VERTEX
  5
431
  8
LAYER_05
 10
1030.610279670074
 20
1501.717424954117
 30
0.0
  0
VERTEX
  5
432
  8
LAYER_05
 10
1023.900477048032
 20
1506.161760140819
 30
0.0
  0
SEQEND
  5
433
  8
LAYER_05
  0
POLYLINE
  5
434
  8
LAYER_05
 66
     1
 10
0.0
 20
0.0
 30
0.0
 70
     1
  0
VERTEX
  5
435
  8
LAYER_05
 10
1031.404459369749
 20
1513.529156918422
 30
0.0
  0
VERTEX
  5
436
  8
LAYER_05
 10
1030.500713508475
 20
1516.783750570682
 30
0.0
  0
VERTEX
  5
437
  8
LAYER_05
 10
1033.144861419845
 20
1518.885563656068
 30
0.0
  0
VERTEX
  5
438
  8
LAYER_05
 10
1039.445118398871
 20
1513.877537250711
 30
0.0
  0
SEQEND
  5
439
  8
LAYER_05
  0
POLYLINE
  5
43A
  8
LAYER_05
 66
     1
 10
0.0
 20
0.0
 30
0.0
 70
     1
  0
VERTEX
  5
43B
  8
LAYER_05
 10
985.7789098831563
 20
1556.534582643398
 30
0.0
  0
VERTEX
  5
43C
  8
LAYER_05
 10
995.4256343771644
 20
1550.144934613469
 30
0.0
  0
VERTEX
  5
43D
  8
LAYER_05
 10
992.3297197901693
 20
1561.294024633723
 30
0.0
  0
VERTEX
  5
43E
  8
LAYER_05
 10
999.7193032639339
 20
1566.662871291658
 30
0.0
  0
VERTEX
  5
43F
  8
LAYER_05
 10
993.4471251574255
 20
1572.136429193969
 30
0.0
  0
VERTEX
  5
440
  8
LAYER_05
 10
973.7053071707801
 20
1557.16911075702
 30
0.0
  0
VERTEX
  5
441
  8
LAYER_05
 10
980.0409590290128
 20
1552.365717324259
 30
0.0
  0
SEQEND
  5
442
  8
LAYER_05
  0
POLYLINE
  5
443
  8
LAYER_05
 66
     1
 10
0.0
 20
0.0
 30
0.0
 70
     1
  0
VERTEX
  5
444
  8
LAYER_05
 10
1014.385410365598
 20
1525.750343343511
 30
0.0
  0
VERTEX
  5
445
  8
LAYER_05
 10
1010.735417312377
 20
1530.774127791808
 30
0.0
  0
VERTEX
  5
446
  8
LAYER_05
 10
1012.089297225983
 20
1534.398923121423
 30
0.0
  0
VERTEX
  5
447
  8
LAYER_05
 10
1015.315210321758
 20
1532.262192745226
 30
0.0
  0
VERTEX
  5
448
  8
LAYER_05
 10
1015.315210321758
 20
1526.052453662824
 30
0.0
 42
0.0514218516031266
  0
SEQEND
  5
449
  8
LAYER_05
  0
POLYLINE
  5
44A
  8
LAYER_05
 66
     1
 10
0.0
 20
0.0
 30
0.0
 70
     1
  0
VERTEX
  5
44B
  8
LAYER_05
 10
1012.767376376847
 20
1524.574772838926
 30
0.0
  0
VERTEX
  5
44C
  8
LAYER_05
 10
1009.117383323627
 20
1529.598557287224
 30
0.0
  0
VERTEX
  5
44D
  8
LAYER_05
 10
1005.251626203515
 20
1529.43106433109
 30
0.0
  0
VERTEX
  5
44E
  8
LAYER_05
 10
1006.286915582391
 20
1525.702752661709
 30
0.0
  0
VERTEX
  5
44F
  8
LAYER_05
 10
1012.192728401203
 20
1523.783837754612
 30
0.0
 42
-0.0514218516030653
  0
SEQEND
  5
450
  8
LAYER_05
  0
POLYLINE
  5
451
  8
LAYER_05
 66
     1
 10
0.0
 20
0.0
 30
0.0
 70
     1
  0
VERTEX
  5
452
  8
LAYER_05
 10
988.4976938954064
 20
1532.634406925243
 30
0.0
  0
VERTEX
  5
453
  8
LAYER_05
 10
1000.147846944493
 20
1533.139177016321
 30
0.0
  0
VERTEX
  5
454
  8
LAYER_05
 10
997.0278165496068
 20
1544.375113525886
 30
0.0
  0
VERTEX
  5
455
  8
LAYER_05
 10
985.8823510450065
 20
1551.757474424484
 30
0.0
  0
VERTEX
  5
456
  8
LAYER_05
 10
980.2021550234745
 20
1547.630570447434
 30
0.0
  0
VERTEX
  5
457
  8
LAYER_05
 10
978.0325132060107
 20
1540.95309954426
 30
0.0
  0
SEQEND
  5
458
  8
LAYER_05
  0
POLYLINE
  5
459
  8
LAYER_05
 66
     1
 10
0.0
 20
0.0
 30
0.0
 70
     1
  0
VERTEX
  5
45A
  8
LAYER_05
 10
1000.417958800999
 20
1546.83819604751
 30
0.0
  0
VERTEX
  5
45B
  8
LAYER_05
 10
1010.139827020113
 20
1540.398775480241
 30
0.0
  0
VERTEX
  5
45C
  8
LAYER_05
 10
1014.2199871837
 20
1551.322746917015
 30
0.0
  0
VERTEX
  5
45D
  8
LAYER_05
 10
1009.542359043556
 20
1563.846342596129
 30
0.0
  0
VERTEX
  5
45E
  8
LAYER_05
 10
1002.521250635418
 20
1563.846342596129
 30
0.0
  0
VERTEX
  5
45F
  8
LAYER_05
 10
996.8410546138853
 20
1559.719438619079
 30
0.0
  0
SEQEND
  5
460
  8
LAYER_05
  0
POLYLINE
  5
461
  8
LAYER_05
 66
     1
 10
0.0
 20
0.0
 30
0.0
 70
     1
  0
VERTEX
  5
462
  8
LAYER_05
 10
1007.548087204847
 20
1533.459809709683
 30
0.0
  0
VERTEX
  5
463
  8
LAYER_05
 10
1004.173511874242
 20
1533.31359835179
 30
0.0
  0
VERTEX
  5
464
  8
LAYER_05
 10
1002.020140973441
 20
1541.068374959927
 30
0.0
  0
VERTEX
  5
465
  8
LAYER_05
 10
1008.729943595483
 20
1536.624039773224
 30
0.0
  0
SEQEND
  5
466
  8
LAYER_05
  0
POLYLINE
  5
467
  8
LAYER_05
 66
     1
 10
0.0
 20
0.0
 30
0.0
 70
     1
  0
VERTEX
  5
468
  8
LAYER_05
 10
1001.225961273766
 20
1529.256642995621
 30
0.0
  0
VERTEX
  5
469
  8
LAYER_05
 10
1002.12970713504
 20
1526.002049343361
 30
0.0
  0
VERTEX
  5
46A
  8
LAYER_05
 10
999.4855592236704
 20
1523.900236257975
 30
0.0
  0
VERTEX
  5
46B
  8
LAYER_05
 10
993.1853022446442
 20
1528.908262663333
 30
0.0
  0
SEQEND
  5
46C
  8
LAYER_05
  0
POLYLINE
  5
46D
  8
LAYER_05
 66
     1
 10
0.0
 20
0.0
 30
0.0
 70
     1
  0
VERTEX
  5
46E
  8
LAYER_05
 10
1046.851510760359
 20
1556.534582643398
 30
0.0
  0
VERTEX
  5
46F
  8
LAYER_05
 10
1037.204786266351
 20
1550.144934613469
 30
0.0
  0
VERTEX
  5
470
  8
LAYER_05
 10
1040.300700853346
 20
1561.294024633723
 30
0.0
  0
VERTEX
  5
471
  8
LAYER_05
 10
1032.911117379581
 20
1566.662871291658
 30
0.0
  0
VERTEX
  5
472
  8
LAYER_05
 10
1039.18329548609
 20
1572.136429193969
 30
0.0
  0
VERTEX
  5
473
  8
LAYER_05
 10
1058.925113472735
 20
1557.16911075702
 30
0.0
  0
VERTEX
  5
474
  8
LAYER_05
 10
1052.589461614502
 20
1552.365717324259
 30
0.0
  0
SEQEND
  5
475
  8
LAYER_05
  0
POLYLINE
  5
476
  8
LAYER_05
 66
     1
 10
0.0
 20
0.0
 30
0.0
 70
     1
  0
VERTEX
  5
477
  8
LAYER_05
 10
1018.245010277918
 20
1525.750343343511
 30
0.0
  0
VERTEX
  5
478
  8
LAYER_05
 10
1021.895003331138
 20
1530.774127791808
 30
0.0
  0
VERTEX
  5
479
  8
LAYER_05
 10
1020.541123417533
 20
1534.398923121423
 30
0.0
  0
VERTEX
  5
47A
  8
LAYER_05
 10
1017.315210321757
 20
1532.262192745226
 30
0.0
  0
VERTEX
  5
47B
  8
LAYER_05
 10
1017.315210321758
 20
1526.052453662824
 30
0.0
 42
-0.0514218516031253
  0
SEQEND
  5
47C
  8
LAYER_05
  0
POLYLINE
  5
47D
  8
LAYER_05
 66
     1
 10
0.0
 20
0.0
 30
0.0
 70
     1
  0
VERTEX
  5
47E
  8
LAYER_05
 10
1019.863044266668
 20
1524.574772838926
 30
0.0
  0
VERTEX
  5
47F
  8
LAYER_05
 10
1023.513037319888
 20
1529.598557287224
 30
0.0
  0
VERTEX
  5
480
  8
LAYER_05
 10
1027.378794440001
 20
1529.43106433109
 30
0.0
  0
VERTEX
  5
481
  8
LAYER_05
 10
1026.343505061125
 20
1525.702752661709
 30
0.0
  0
VERTEX
  5
482
  8
LAYER_05
 10
1020.437692242313
 20
1523.783837754612
 30
0.0
 42
0.0514218516030798
  0
SEQEND
  5
483
  8
LAYER_05
  0
POLYLINE
  5
484
  8
LAYER_05
 66
     1
 10
0.0
 20
0.0
 30
0.0
 70
     1
  0
VERTEX
  5
485
  8
LAYER_05
 10
1044.132726748109
 20
1532.634406925243
 30
0.0
  0
VERTEX
  5
486
  8
LAYER_05
 10
1032.482573699022
 20
1533.139177016321
 30
0.0
  0
VERTEX
  5
487
  8
LAYER_05
 10
1035.602604093908
 20
1544.375113525886
 30
0.0
  0
VERTEX
  5
488
  8
LAYER_05
 10
1046.748069598509
 20
1551.757474424484
 30
0.0
  0
VERTEX
  5
489
  8
LAYER_05
 10
1052.428265620041
 20
1547.630570447434
 30
0.0
  0
VERTEX
  5
48A
  8
LAYER_05
 10
1054.597907437505
 20
1540.95309954426
 30
0.0
  0
SEQEND
  5
48B
  8
LAYER_05
  0
POLYLINE
  5
48C
  8
LAYER_05
 66
     1
 10
0.0
 20
0.0
 30
0.0
 70
     1
  0
VERTEX
  5
48D
  8
LAYER_05
 10
1032.212461842517
 20
1546.83819604751
 30
0.0
  0
VERTEX
  5
48E
  8
LAYER_05
 10
1022.490593623402
 20
1540.398775480241
 30
0.0
  0
VERTEX
  5
48F
  8
LAYER_05
 10
1018.410433459815
 20
1551.322746917015
 30
0.0
  0
VERTEX
  5
490
  8
LAYER_05
 10
1023.08806159996
 20
1563.846342596129
 30
0.0
  0
VERTEX
  5
491
  8
LAYER_05
 10
1030.109170008097
 20
1563.846342596129
 30
0.0
  0
VERTEX
  5
492
  8
LAYER_05
 10
1035.78936602963
 20
1559.719438619079
 30
0.0
  0
SEQEND
  5
493
  8
LAYER_05
  0
POLYLINE
  5
494
  8
LAYER_05
 66
     1
 10
0.0
 20
0.0
 30
0.0
 70
     1
  0
VERTEX
  5
495
  8
LAYER_05
 10
1028.456908769273
 20
1533.31359835179
 30
0.0
  0
VERTEX
  5
496
  8
LAYER_05
 10
1025.082333438669
 20
1533.459809709684
 30
0.0
  0
VERTEX
  5
497
  8
LAYER_05
 10
1023.900477048032
 20
1536.624039773224
 30
0.0
  0
VERTEX
  5
498
  8
LAYER_05
 10
1030.610279670074
 20
1541.068374959927
 30
0.0
  0
SEQEND
  5
499
  8
LAYER_05
  0
POLYLINE
  5
49A
  8
LAYER_05
 66
     1
 10
0.0
 20
0.0
 30
0.0
 70
     1
  0
VERTEX
  5
49B
  8
LAYER_05
 10
1031.404459369749
 20
1529.256642995621
 30
0.0
  0
VERTEX
  5
49C
  8
LAYER_05
 10
1030.500713508475
 20
1526.002049343361
 30
0.0
  0
VERTEX
  5
49D
  8
LAYER_05
 10
1033.144861419845
 20
1523.900236257975
 30
0.0
  0
VERTEX
  5
49E
  8
LAYER_05
 10
1039.445118398871
 20
1528.908262663333
 30
0.0
  0
SEQEND
  5
49F
  8
LAYER_05
  0
POLYLINE
  5
4A0
  8
LAYER_05
 66
     1
 10
0.0
 20
0.0
 30
0.0
 70
     1
  0
VERTEX
  5
4A1
  8
LAYER_05
 10
1016.315210321758
 20
1536.308420689667
 30
0.0
  0
VERTEX
  5
4A2
  8
LAYER_05
 10
1019.131239992902
 20
1538.173658828439
 30
0.0
  0
VERTEX
  5
4A3
  8
LAYER_05
 10
1016.315210321758
 20
1545.71312455021
 30
0.0
  0
VERTEX
  5
4A4
  8
LAYER_05
 10
1013.499180650613
 20
1538.173658828439
 30
0.0
  0
SEQEND
  5
4A5
  8
LAYER_05
  0
POLYLINE
  5
4A6
  8
LAYER_05
 66
     1
 10
0.0
 20
0.0
 30
0.0
 70
     1
  0
VERTEX
  5
4A7
  8
LAYER_05
 10
989.6487846149782
 20
1337.291347977108
 30
0.0
  0
VERTEX
  5
4A8
  8
LAYER_05
 10
993.6245273871218
 20
1340.760869712378
 30
0.0
  0
VERTEX
  5
4A9
  8
LAYER_05
 10
998.2008091631108
 20
1337.291347977108
 30
0.0
  0
SEQEND
  5
4AA
  8
LAYER_05
  0
POLYLINE
  5
4AB
  8
LAYER_05
 66
     1
 10
0.0
 20
0.0
 30
0.0
 70
     1
  0
VERTEX
  5
4AC
  8
LAYER_05
 10
1004.821682550378
 20
1337.291347977108
 30
0.0
  0
VERTEX
  5
4AD
  8
LAYER_05
 10
996.7024990845321
 20
1343.446931240186
 30
0.0
  0
VERTEX
  5
4AE
  8
LAYER_05
 10
1003.039023688037
 20
1348.976642566577
 30
0.0
  0
VERTEX
  5
4AF
  8
LAYER_05
 10
1012.975927048508
 20
1341.757059678514
 30
0.0
  0
VERTEX
  5
4B0
  8
LAYER_05
 10
1006.829402200655
 20
1337.291347977108
 30
0.0
  0
SEQEND
  5
4B1
  8
LAYER_05
  0
POLYLINE
  5
4B2
  8
LAYER_05
 66
     1
 10
0.0
 20
0.0
 30
0.0
 70
     1
  0
VERTEX
  5
4B3
  8
LAYER_05
 10
983.5652348903877
 20
1337.291347977108
 30
0.0
  0
VERTEX
  5
4B4
  8
LAYER_05
 10
990.3691534600157
 20
1343.228941205658
 30
0.0
  0
VERTEX
  5
4B5
  8
LAYER_05
 10
971.0865553096144
 20
1357.848100748311
 30
0.0
  0
VERTEX
  5
4B6
  8
LAYER_05
 10
971.0865553096144
 20
1337.291347977108
 30
0.0
  0
SEQEND
  5
4B7
  8
LAYER_05
  0
POLYLINE
  5
4B8
  8
LAYER_05
 66
     1
 10
0.0
 20
0.0
 30
0.0
 70
     1
  0
VERTEX
  5
4B9
  8
LAYER_05
 10
1042.981636028537
 20
1337.291347977108
 30
0.0
  0
VERTEX
  5
4BA
  8
LAYER_05
 10
1039.005893256393
 20
1340.760869712378
 30
0.0
  0
VERTEX
  5
4BB
  8
LAYER_05
 10
1034.429611480404
 20
1337.291347977108
 30
0.0
  0
SEQEND
  5
4BC
  8
LAYER_05
  0
POLYLINE
  5
4BD
  8
LAYER_05
 66
     1
 10
0.0
 20
0.0
 30
0.0
 70
     1
  0
VERTEX
  5
4BE
  8
LAYER_05
 10
1027.808738093137
 20
1337.291347977108
 30
0.0
  0
VERTEX
  5
4BF
  8
LAYER_05
 10
1035.927921558983
 20
1343.446931240186
 30
0.0
  0
VERTEX
  5
4C0
  8
LAYER_05
 10
1029.591396955478
 20
1348.976642566577
 30
0.0
  0
VERTEX
  5
4C1
  8
LAYER_05
 10
1019.654493595007
 20
1341.757059678514
 30
0.0
  0
VERTEX
  5
4C2
  8
LAYER_05
 10
1025.80101844286
 20
1337.291347977108
 30
0.0
  0
SEQEND
  5
4C3
  8
LAYER_05
  0
POLYLINE
  5
4C4
  8
LAYER_05
 66
     1
 10
0.0
 20
0.0
 30
0.0
 70
     1
  0
VERTEX
  5
4C5
  8
LAYER_05
 10
1049.065185753127
 20
1337.291347977108
 30
0.0
  0
VERTEX
  5
4C6
  8
LAYER_05
 10
1042.2612671835
 20
1343.228941205658
 30
0.0
  0
VERTEX
  5
4C7
  8
LAYER_05
 10
1061.543865333901
 20
1357.848100748311
 30
0.0
  0
VERTEX
  5
4C8
  8
LAYER_05
 10
1061.543865333901
 20
1337.291347977108
 30
0.0
  0
SEQEND
  5
4C9
  8
LAYER_05
  0
POLYLINE
  5
4CA
  8
LAYER_05
 66
     1
 10
0.0
 20
0.0
 30
0.0
 70
     1
  0
VERTEX
  5
4CB
  8
LAYER_05
 10
1016.315210321758
 20
1344.183190989589
 30
0.0
  0
VERTEX
  5
4CC
  8
LAYER_05
 10
1024.706096173915
 20
1350.279526408819
 30
0.0
  0
VERTEX
  5
4CD
  8
LAYER_05
 10
1020.363833498131
 20
1350.279526408819
 30
0.0
  0
VERTEX
  5
4CE
  8
LAYER_05
 10
1016.315210321757
 20
1361.119062643613
 30
0.0
  0
VERTEX
  5
4CF
  8
LAYER_05
 10
1012.266587145384
 20
1350.279526408819
 30
0.0
  0
VERTEX
  5
4D0
  8
LAYER_05
 10
1007.9243244696
 20
1350.279526408819
 30
0.0
  0
SEQEND
  5
4D1
  8
LAYER_05
  0
POLYLINE
  5
4D2
  8
LAYER_05
 66
     1
 10
0.0
 20
0.0
 30
0.0
 70
     1
  0
VERTEX
  5
4D3
  8
LAYER_05
 10
989.6487846149782
 20
1456.025715963717
 30
0.0
  0
VERTEX
  5
4D4
  8
LAYER_05
 10
993.6245273871218
 20
1452.556194228446
 30
0.0
  0
VERTEX
  5
4D5
  8
LAYER_05
 10
998.2008091631111
 20
1456.025715963717
 30
0.0
  0
SEQEND
  5
4D6
  8
LAYER_05
  0
POLYLINE
  5
4D7
  8
LAYER_05
 66
     1
 10
0.0
 20
0.0
 30
0.0
 70
     1
  0
VERTEX
  5
4D8
  8
LAYER_05
 10
1004.821682550378
 20
1456.025715963717
 30
0.0
  0
VERTEX
  5
4D9
  8
LAYER_05
 10
996.7024990845321
 20
1449.870132700639
 30
0.0
  0
VERTEX
  5
4DA
  8
LAYER_05
 10
1003.039023688037
 20
1444.340421374248
 30
0.0
  0
VERTEX
  5
4DB
  8
LAYER_05
 10
1012.975927048508
 20
1451.56000426231
 30
0.0
  0
VERTEX
  5
4DC
  8
LAYER_05
 10
1006.829402200655
 20
1456.025715963717
 30
0.0
  0
SEQEND
  5
4DD
  8
LAYER_05
  0
POLYLINE
  5
4DE
  8
LAYER_05
 66
     1
 10
0.0
 20
0.0
 30
0.0
 70
     1
  0
VERTEX
  5
4DF
  8
LAYER_05
 10
983.5652348903877
 20
1456.025715963717
 30
0.0
  0
VERTEX
  5
4E0
  8
LAYER_05
 10
990.3691534600157
 20
1450.088122735167
 30
0.0
  0
VERTEX
  5
4E1
  8
LAYER_05
 10
971.0865553096144
 20
1435.468963192514
 30
0.0
  0
VERTEX
  5
4E2
  8
LAYER_05
 10
971.0865553096144
 20
1456.025715963717
 30
0.0
  0
SEQEND
  5
4E3
  8
LAYER_05
  0
POLYLINE
  5
4E4
  8
LAYER_05
 66
     1
 10
0.0
 20
0.0
 30
0.0
 70
     1
  0
VERTEX
  5
4E5
  8
LAYER_05
 10
996.3312501705184
 20
1396.658531970412
 30
0.0
  0
VERTEX
  5
4E6
  8
LAYER_05
 10
987.2027747820719
 20
1403.91468770155
 30
0.0
  0
VERTEX
  5
4E7
  8
LAYER_05
 10
973.8466609153338
 20
1403.336002873586
 30
0.0
  0
VERTEX
  5
4E8
  8
LAYER_05
 10
971.6770190978707
 20
1396.658531970412
 30
0.0
  0
VERTEX
  5
4E9
  8
LAYER_05
 10
973.8466609153338
 20
1389.981061067238
 30
0.0
  0
VERTEX
  5
4EA
  8
LAYER_05
 10
987.2027747820719
 20
1389.402376239275
 30
0.0
  0
SEQEND
  5
4EB
  8
LAYER_05
  0
POLYLINE
  5
4EC
  8
LAYER_05
 66
     1
 10
0.0
 20
0.0
 30
0.0
 70
     1
  0
VERTEX
  5
4ED
  8
LAYER_05
 10
1042.981636028537
 20
1456.025715963717
 30
0.0
  0
VERTEX
  5
4EE
  8
LAYER_05
 10
1039.005893256393
 20
1452.556194228446
 30
0.0
  0
VERTEX
  5
4EF
  8
LAYER_05
 10
1034.429611480404
 20
1456.025715963717
 30
0.0
  0
SEQEND
  5
4F0
  8
LAYER_05
  0
POLYLINE
  5
4F1
  8
LAYER_05
 66
     1
 10
0.0
 20
0.0
 30
0.0
 70
     1
  0
VERTEX
  5
4F2
  8
LAYER_05
 10
1027.808738093137
 20
1456.025715963717
 30
0.0
  0
VERTEX
  5
4F3
  8
LAYER_05
 10
1035.927921558983
 20
1449.870132700639
 30
0.0
  0
VERTEX
  5
4F4
  8
LAYER_05
 10
1029.591396955478
 20
1444.340421374248
 30
0.0
  0
VERTEX
  5
4F5
  8
LAYER_05
 10
1019.654493595007
 20
1451.56000426231
 30
0.0
  0
VERTEX
  5
4F6
  8
LAYER_05
 10
1025.80101844286
 20
1456.025715963717
 30
0.0
  0
SEQEND
  5
4F7
  8
LAYER_05
  0
POLYLINE
  5
4F8
  8
LAYER_05
 66
     1
 10
0.0
 20
0.0
 30
0.0
 70
     1
  0
VERTEX
  5
4F9
  8
LAYER_05
 10
1049.065185753127
 20
1456.025715963717
 30
0.0
  0
VERTEX
  5
4FA
  8
LAYER_05
 10
1042.2612671835
 20
1450.088122735167
 30
0.0
  0
VERTEX
  5
4FB
  8
LAYER_05
 10
1061.543865333901
 20
1435.468963192514
 30
0.0
  0
VERTEX
  5
4FC
  8
LAYER_05
 10
1061.543865333901
 20
1456.025715963717
 30
0.0
  0
SEQEND
  5
4FD
  8
LAYER_05
  0
POLYLINE
  5
4FE
  8
LAYER_05
 66
     1
 10
0.0
 20
0.0
 30
0.0
 70
     1
  0
VERTEX
  5
4FF
  8
LAYER_05
 10
1036.299170472997
 20
1396.658531970412
 30
0.0
  0
VERTEX
  5
500
  8
LAYER_05
 10
1045.427645861443
 20
1403.91468770155
 30
0.0
  0
VERTEX
  5
501
  8
LAYER_05
 10
1058.783759728181
 20
1403.336002873586
 30
0.0
  0
VERTEX
  5
502
  8
LAYER_05
 10
1060.953401545645
 20
1396.658531970412
 30
0.0
  0
VERTEX
  5
503
  8
LAYER_05
 10
1058.783759728181
 20
1389.981061067238
 30
0.0
  0
VERTEX
  5
504
  8
LAYER_05
 10
1045.427645861443
 20
1389.402376239275
 30
0.0
  0
SEQEND
  5
505
  8
LAYER_05
  0
POLYLINE
  5
506
  8
LAYER_05
 66
     1
 10
0.0
 20
0.0
 30
0.0
 70
     1
  0
VERTEX
  5
507
  8
LAYER_05
 10
1016.315210321758
 20
1449.133872951235
 30
0.0
  0
VERTEX
  5
508
  8
LAYER_05
 10
1024.706096173915
 20
1443.037537532005
 30
0.0
  0
VERTEX
  5
509
  8
LAYER_05
 10
1020.363833498131
 20
1443.037537532005
 30
0.0
  0
VERTEX
  5
50A
  8
LAYER_05
 10
1016.315210321757
 20
1432.198001297211
 30
0.0
  0
VERTEX
  5
50B
  8
LAYER_05
 10
1012.266587145384
 20
1443.037537532005
 30
0.0
  0
VERTEX
  5
50C
  8
LAYER_05
 10
1007.9243244696
 20
1443.037537532005
 30
0.0
  0
SEQEND
  5
50D
  8
LAYER_05
  0
POLYLINE
  5
50E
  8
LAYER_05
 66
     1
 10
0.0
 20
0.0
 30
0.0
 70
     1
  0
VERTEX
  5
50F
  8
LAYER_05
 10
985.7789098831563
 20
1361.516849284036
 30
0.0
  0
VERTEX
  5
510
  8
LAYER_05
 10
995.4256343771644
 20
1367.906497313965
 30
0.0
  0
VERTEX
  5
511
  8
LAYER_05
 10
992.3297197901693
 20
1356.757407293711
 30
0.0
  0
VERTEX
  5
512
  8
LAYER_05
 10
999.7193032639339
 20
1351.388560635776
 30
0.0
  0
VERTEX
  5
513
  8
LAYER_05
 10
993.4471251574255
 20
1345.915002733465
 30
0.0
  0
VERTEX
  5
514
  8
LAYER_05
 10
973.7053071707801
 20
1360.882321170414
 30
0.0
  0
VERTEX
  5
515
  8
LAYER_05
 10
980.0409590290128
 20
1365.685714603175
 30
0.0
  0
SEQEND
  5
516
  8
LAYER_05
  0
POLYLINE
  5
517
  8
LAYER_05
 66
     1
 10
0.0
 20
0.0
 30
0.0
 70
     1
  0
VERTEX
  5
518
  8
LAYER_05
 10
1014.385410365598
 20
1392.301088583923
 30
0.0
  0
VERTEX
  5
519
  8
LAYER_05
 10
1010.735417312377
 20
1387.277304135625
 30
0.0
  0
VERTEX
  5
51A
  8
LAYER_05
 10
1012.089297225983
 20
1383.652508806011
 30
0.0
  0
VERTEX
  5
51B
  8
LAYER_05
 10
1015.315210321758
 20
1385.789239182208
 30
0.0
  0
VERTEX
  5
51C
  8
LAYER_05
 10
1015.315210321758
 20
1391.998978264611
 30
0.0
 42
-0.0514218516031148
  0
SEQEND
  5
51D
  8
LAYER_05
  0
POLYLINE
  5
51E
  8
LAYER_05
 66
     1
 10
0.0
 20
0.0
 30
0.0
 70
     1
  0
VERTEX
  5
51F
  8
LAYER_05
 10
1012.767376376847
 20
1393.476659088508
 30
0.0
  0
VERTEX
  5
520
  8
LAYER_05
 10
1009.117383323627
 20
1388.45287464021
 30
0.0
  0
VERTEX
  5
521
  8
LAYER_05
 10
1005.251626203515
 20
1388.620367596344
 30
0.0
  0
VERTEX
  5
522
  8
LAYER_05
 10
1006.286915582391
 20
1392.348679265725
 30
0.0
  0
VERTEX
  5
523
  8
LAYER_05
 10
1012.192728401203
 20
1394.267594172821
 30
0.0
 42
0.0514218516030701
  0
SEQEND
  5
524
  8
LAYER_05
  0
POLYLINE
  5
525
  8
LAYER_05
 66
     1
 10
0.0
 20
0.0
 30
0.0
 70
     1
  0
VERTEX
  5
526
  8
LAYER_05
 10
988.4976938954064
 20
1385.417025002191
 30
0.0
  0
VERTEX
  5
527
  8
LAYER_05
 10
1000.147846944493
 20
1384.912254911113
 30
0.0
  0
VERTEX
  5
528
  8
LAYER_05
 10
997.0278165496068
 20
1373.676318401548
 30
0.0
  0
VERTEX
  5
529
  8
LAYER_05
 10
985.8823510450065
 20
1366.29395750295
 30
0.0
  0
VERTEX
  5
52A
  8
LAYER_05
 10
980.2021550234745
 20
1370.42086148
 30
0.0
  0
VERTEX
  5
52B
  8
LAYER_05
 10
978.0325132060107
 20
1377.098332383174
 30
0.0
  0
SEQEND
  5
52C
  8
LAYER_05
  0
POLYLINE
  5
52D
  8
LAYER_05
 66
     1
 10
0.0
 20
0.0
 30
0.0
 70
     1
  0
VERTEX
  5
52E
  8
LAYER_05
 10
1000.417958800999
 20
1371.213235879924
 30
0.0
  0
VERTEX
  5
52F
  8
LAYER_05
 10
1010.139827020113
 20
1377.652656447193
 30
0.0
  0
VERTEX
  5
530
  8
LAYER_05
 10
1014.2199871837
 20
1366.728685010419
 30
0.0
  0
VERTEX
  5
531
  8
LAYER_05
 10
1009.542359043556
 20
1354.205089331305
 30
0.0
  0
VERTEX
  5
532
  8
LAYER_05
 10
1002.521250635418
 20
1354.205089331305
 30
0.0
  0
VERTEX
  5
533
  8
LAYER_05
 10
996.8410546138853
 20
1358.331993308355
 30
0.0
  0
SEQEND
  5
534
  8
LAYER_05
  0
POLYLINE
  5
535
  8
LAYER_05
 66
     1
 10
0.0
 20
0.0
 30
0.0
 70
     1
  0
VERTEX
  5
536
  8
LAYER_05
 10
1007.548087204847
 20
1384.59162221775
 30
0.0
  0
VERTEX
  5
537
  8
LAYER_05
 10
1004.173511874242
 20
1384.737833575644
 30
0.0
  0
VERTEX
  5
538
  8
LAYER_05
 10
1002.020140973441
 20
1376.983056967507
 30
0.0
  0
VERTEX
  5
539
  8
LAYER_05
 10
1008.729943595483
 20
1381.42739215421
 30
0.0
  0
SEQEND
  5
53A
  8
LAYER_05
  0
POLYLINE
  5
53B
  8
LAYER_05
 66
     1
 10
0.0
 20
0.0
 30
0.0
 70
     1
  0
VERTEX
  5
53C
  8
LAYER_05
 10
1002.12970713504
 20
1392.049382584073
 30
0.0
  0
VERTEX
  5
53D
  8
LAYER_05
 10
1001.225961273766
 20
1388.794788931812
 30
0.0
  0
VERTEX
  5
53E
  8
LAYER_05
 10
993.1853022446442
 20
1389.143169264101
 30
0.0
  0
VERTEX
  5
53F
  8
LAYER_05
 10
999.4855592236704
 20
1394.151195669459
 30
0.0
  0
SEQEND
  5
540
  8
LAYER_05
  0
POLYLINE
  5
541
  8
LAYER_05
 66
     1
 10
0.0
 20
0.0
 30
0.0
 70
     1
  0
VERTEX
  5
542
  8
LAYER_05
 10
1046.851510760359
 20
1361.516849284036
 30
0.0
  0
VERTEX
  5
543
  8
LAYER_05
 10
1037.204786266351
 20
1367.906497313965
 30
0.0
  0
VERTEX
  5
544
  8
LAYER_05
 10
1040.300700853346
 20
1356.757407293711
 30
0.0
  0
VERTEX
  5
545
  8
LAYER_05
 10
1032.911117379581
 20
1351.388560635776
 30
0.0
  0
VERTEX
  5
546
  8
LAYER_05
 10
1039.18329548609
 20
1345.915002733465
 30
0.0
  0
VERTEX
  5
547
  8
LAYER_05
 10
1058.925113472735
 20
1360.882321170414
 30
0.0
  0
VERTEX
  5
548
  8
LAYER_05
 10
1052.589461614502
 20
1365.685714603175
 30
0.0
  0
SEQEND
  5
549
  8
LAYER_05
  0
POLYLINE
  5
54A
  8
LAYER_05
 66
     1
 10
0.0
 20
0.0
 30
0.0
 70
     1
  0
VERTEX
  5
54B
  8
LAYER_05
 10
1018.245010277918
 20
1392.301088583923
 30
0.0
  0
VERTEX
  5
54C
  8
LAYER_05
 10
1021.895003331138
 20
1387.277304135625
 30
0.0
  0
VERTEX
  5
54D
  8
LAYER_05
 10
1020.541123417533
 20
1383.652508806011
 30
0.0
  0
VERTEX
  5
54E
  8
LAYER_05
 10
1017.315210321757
 20
1385.789239182208
 30
0.0
  0
VERTEX
  5
54F
  8
LAYER_05
 10
1017.315210321758
 20
1391.99897826461
 30
0.0
 42
0.0514218516031111
  0
SEQEND
  5
550
  8
LAYER_05
  0
POLYLINE
  5
551
  8
LAYER_05
 66
     1
 10
0.0
 20
0.0
 30
0.0
 70
     1
  0
VERTEX
  5
552
  8
LAYER_05
 10
1019.863044266668
 20
1393.476659088508
 30
0.0
  0
VERTEX
  5
553
  8
LAYER_05
 10
1023.513037319888
 20
1388.45287464021
 30
0.0
  0
VERTEX
  5
554
  8
LAYER_05
 10
1027.378794440001
 20
1388.620367596344
 30
0.0
  0
VERTEX
  5
555
  8
LAYER_05
 10
1026.343505061125
 20
1392.348679265725
 30
0.0
  0
VERTEX
  5
556
  8
LAYER_05
 10
1020.437692242313
 20
1394.267594172821
 30
0.0
 42
-0.0514218516030771
  0
SEQEND
  5
557
  8
LAYER_05
  0
POLYLINE
  5
558
  8
LAYER_05
 66
     1
 10
0.0
 20
0.0
 30
0.0
 70
     1
  0
VERTEX
  5
559
  8
LAYER_05
 10
1044.132726748109
 20
1385.417025002191
 30
0.0
  0
VERTEX
  5
55A
  8
LAYER_05
 10
1032.482573699022
 20
1384.912254911113
 30
0.0
  0
VERTEX
  5
55B
  8
LAYER_05
 10
1035.602604093908
 20
1373.676318401548
 30
0.0
  0
VERTEX
  5
55C
  8
LAYER_05
 10
1046.748069598509
 20
1366.29395750295
 30
0.0
  0
VERTEX
  5
55D
  8
LAYER_05
 10
1052.428265620041
 20
1370.42086148
 30
0.0
  0
VERTEX
  5
55E
  8
LAYER_05
 10
1054.597907437505
 20
1377.098332383174
 30
0.0
  0
SEQEND
  5
55F
  8
LAYER_05
  0
POLYLINE
  5
560
  8
LAYER_05
 66
     1
 10
0.0
 20
0.0
 30
0.0
 70
     1
  0
VERTEX
  5
561
  8
LAYER_05
 10
1032.212461842517
 20
1371.213235879924
 30
0.0
  0
VERTEX
  5
562
  8
LAYER_05
 10
1022.490593623402
 20
1377.652656447193
 30
0.0
  0
VERTEX
  5
563
  8
LAYER_05
 10
1018.410433459815
 20
1366.728685010419
 30
0.0
  0
VERTEX
  5
564
  8
LAYER_05
 10
1023.08806159996
 20
1354.205089331305
 30
0.0
  0
VERTEX
  5
565
  8
LAYER_05
 10
1030.109170008097
 20
1354.205089331305
 30
0.0
  0
VERTEX
  5
566
  8
LAYER_05
 10
1035.78936602963
 20
1358.331993308355
 30
0.0
  0
SEQEND
  5
567
  8
LAYER_05
  0
POLYLINE
  5
568
  8
LAYER_05
 66
     1
 10
0.0
 20
0.0
 30
0.0
 70
     1
  0
VERTEX
  5
569
  8
LAYER_05
 10
1025.082333438669
 20
1384.59162221775
 30
0.0
  0
VERTEX
  5
56A
  8
LAYER_05
 10
1028.456908769273
 20
1384.737833575644
 30
0.0
  0
VERTEX
  5
56B
  8
LAYER_05
 10
1030.610279670074
 20
1376.983056967507
 30
0.0
  0
VERTEX
  5
56C
  8
LAYER_05
 10
1023.900477048032
 20
1381.42739215421
 30
0.0
  0
SEQEND
  5
56D
  8
LAYER_05
  0
POLYLINE
  5
56E
  8
LAYER_05
 66
     1
 10
0.0
 20
0.0
 30
0.0
 70
     1
  0
VERTEX
  5
56F
  8
LAYER_05
 10
1030.500713508475
 20
1392.049382584073
 30
0.0
  0
VERTEX
  5
570
  8
LAYER_05
 10
1031.404459369749
 20
1388.794788931812
 30
0.0
  0
VERTEX
  5
571
  8
LAYER_05
 10
1039.445118398871
 20
1389.143169264101
 30
0.0
  0
VERTEX
  5
572
  8
LAYER_05
 10
1033.144861419845
 20
1394.151195669459
 30
0.0
  0
SEQEND
  5
573
  8
LAYER_05
  0
POLYLINE
  5
574
  8
LAYER_05
 66
     1
 10
0.0
 20
0.0
 30
0.0
 70
     1
  0
VERTEX
  5
575
  8
LAYER_05
 10
1016.315210321758
 20
1381.743011237767
 30
0.0
  0
VERTEX
  5
576
  8
LAYER_05
 10
1019.131239992902
 20
1379.877773098995
 30
0.0
  0
VERTEX
  5
577
  8
LAYER_05
 10
1016.315210321758
 20
1372.338307377224
 30
0.0
  0
VERTEX
  5
578
  8
LAYER_05
 10
1013.499180650613
 20
1379.877773098995
 30
0.0
  0
SEQEND
  5
579
  8
LAYER_05
  0
POLYLINE
  5
57A
  8
LAYER_05
 66
     1
 10
0.0
 20
0.0
 30
0.0
 70
     1
  0
VERTEX
  5
57B
  8
LAYER_05
 10
985.7789098831563
 20
1431.800214656789
 30
0.0
  0
VERTEX
  5
57C
  8
LAYER_05
 10
995.4256343771644
 20
1425.41056662686
 30
0.0
  0
VERTEX
  5
57D
  8
LAYER_05
 10
992.3297197901693
 20
1436.559656647113
 30
0.0
  0
VERTEX
  5
57E
  8
LAYER_05
 10
999.7193032639339
 20
1441.928503305049
 30
0.0
  0
VERTEX
  5
57F
  8
LAYER_05
 10
993.4471251574255
 20
1447.40206120736
 30
0.0
  0
VERTEX
  5
580
  8
LAYER_05
 10
973.7053071707801
 20
1432.43474277041
 30
0.0
  0
VERTEX
  5
581
  8
LAYER_05
 10
980.0409590290128
 20
1427.631349337649
 30
0.0
  0
SEQEND
  5
582
  8
LAYER_05
  0
POLYLINE
  5
583
  8
LAYER_05
 66
     1
 10
0.0
 20
0.0
 30
0.0
 70
     1
  0
VERTEX
  5
584
  8
LAYER_05
 10
1014.385410365598
 20
1401.015975356901
 30
0.0
  0
VERTEX
  5
585
  8
LAYER_05
 10
1010.735417312377
 20
1406.039759805199
 30
0.0
  0
VERTEX
  5
586
  8
LAYER_05
 10
1012.089297225983
 20
1409.664555134813
 30
0.0
  0
VERTEX
  5
587
  8
LAYER_05
 10
1015.315210321758
 20
1407.527824758617
 30
0.0
  0
VERTEX
  5
588
  8
LAYER_05
 10
1015.315210321758
 20
1401.318085676214
 30
0.0
 42
0.0514218516031219
  0
SEQEND
  5
589
  8
LAYER_05
  0
POLYLINE
  5
58A
  8
LAYER_05
 66
     1
 10
0.0
 20
0.0
 30
0.0
 70
     1
  0
VERTEX
  5
58B
  8
LAYER_05
 10
1012.767376376847
 20
1399.840404852316
 30
0.0
  0
VERTEX
  5
58C
  8
LAYER_05
 10
1009.117383323627
 20
1404.864189300614
 30
0.0
  0
VERTEX
  5
58D
  8
LAYER_05
 10
1005.251626203515
 20
1404.696696344481
 30
0.0
  0
VERTEX
  5
58E
  8
LAYER_05
 10
1006.286915582391
 20
1400.9683846751
 30
0.0
  0
VERTEX
  5
58F
  8
LAYER_05
 10
1012.192728401203
 20
1399.049469768003
 30
0.0
 42
-0.0514218516030701
  0
SEQEND
  5
590
  8
LAYER_05
  0
POLYLINE
  5
591
  8
LAYER_05
 66
     1
 10
0.0
 20
0.0
 30
0.0
 70
     1
  0
VERTEX
  5
592
  8
LAYER_05
 10
988.4976938954064
 20
1407.900038938633
 30
0.0
  0
VERTEX
  5
593
  8
LAYER_05
 10
1000.147846944493
 20
1408.404809029711
 30
0.0
  0
VERTEX
  5
594
  8
LAYER_05
 10
997.0278165496068
 20
1419.640745539276
 30
0.0
  0
VERTEX
  5
595
  8
LAYER_05
 10
985.8823510450065
 20
1427.023106437875
 30
0.0
  0
VERTEX
  5
596
  8
LAYER_05
 10
980.2021550234745
 20
1422.896202460824
 30
0.0
  0
VERTEX
  5
597
  8
LAYER_05
 10
978.0325132060107
 20
1416.21873155765
 30
0.0
  0
SEQEND
  5
598
  8
LAYER_05
  0
POLYLINE
  5
599
  8
LAYER_05
 66
     1
 10
0.0
 20
0.0
 30
0.0
 70
     1
  0
VERTEX
  5
59A
  8
LAYER_05
 10
1000.417958800999
 20
1422.1038280609
 30
0.0
  0
VERTEX
  5
59B
  8
LAYER_05
 10
1010.139827020113
 20
1415.664407493631
 30
0.0
  0
VERTEX
  5
59C
  8
LAYER_05
 10
1014.2199871837
 20
1426.588378930406
 30
0.0
  0
VERTEX
  5
59D
  8
LAYER_05
 10
1009.542359043556
 20
1439.111974609519
 30
0.0
  0
VERTEX
  5
59E
  8
LAYER_05
 10
1002.521250635418
 20
1439.111974609519
 30
0.0
  0
VERTEX
  5
59F
  8
LAYER_05
 10
996.8410546138853
 20
1434.985070632469
 30
0.0
  0
SEQEND
  5
5A0
  8
LAYER_05
  0
POLYLINE
  5
5A1
  8
LAYER_05
 66
     1
 10
0.0
 20
0.0
 30
0.0
 70
     1
  0
VERTEX
  5
5A2
  8
LAYER_05
 10
1004.173511874242
 20
1408.57923036518
 30
0.0
  0
VERTEX
  5
5A3
  8
LAYER_05
 10
1007.548087204846
 20
1408.725441723074
 30
0.0
  0
VERTEX
  5
5A4
  8
LAYER_05
 10
1008.729943595483
 20
1411.889671786615
 30
0.0
  0
VERTEX
  5
5A5
  8
LAYER_05
 10
1002.020140973441
 20
1416.334006973317
 30
0.0
  0
SEQEND
  5
5A6
  8
LAYER_05
  0
POLYLINE
  5
5A7
  8
LAYER_05
 66
     1
 10
0.0
 20
0.0
 30
0.0
 70
     1
  0
VERTEX
  5
5A8
  8
LAYER_05
 10
1001.225961273766
 20
1404.522275009012
 30
0.0
  0
VERTEX
  5
5A9
  8
LAYER_05
 10
1002.12970713504
 20
1401.267681356752
 30
0.0
  0
VERTEX
  5
5AA
  8
LAYER_05
 10
999.4855592236704
 20
1399.165868271366
 30
0.0
  0
VERTEX
  5
5AB
  8
LAYER_05
 10
993.1853022446442
 20
1404.173894676723
 30
0.0
  0
SEQEND
  5
5AC
  8
LAYER_05
  0
POLYLINE
  5
5AD
  8
LAYER_05
 66
     1
 10
0.0
 20
0.0
 30
0.0
 70
     1
  0
VERTEX
  5
5AE
  8
LAYER_05
 10
1046.851510760359
 20
1431.800214656789
 30
0.0
  0
VERTEX
  5
5AF
  8
LAYER_05
 10
1037.204786266351
 20
1425.41056662686
 30
0.0
  0
VERTEX
  5
5B0
  8
LAYER_05
 10
1040.300700853346
 20
1436.559656647113
 30
0.0
  0
VERTEX
  5
5B1
  8
LAYER_05
 10
1032.911117379581
 20
1441.928503305049
 30
0.0
  0
VERTEX
  5
5B2
  8
LAYER_05
 10
1039.18329548609
 20
1447.40206120736
 30
0.0
  0
VERTEX
  5
5B3
  8
LAYER_05
 10
1058.925113472735
 20
1432.43474277041
 30
0.0
  0
VERTEX
  5
5B4
  8
LAYER_05
 10
1052.589461614502
 20
1427.631349337649
 30
0.0
  0
SEQEND
  5
5B5
  8
LAYER_05
  0
POLYLINE
  5
5B6
  8
LAYER_05
 66
     1
 10
0.0
 20
0.0
 30
0.0
 70
     1
  0
VERTEX
  5
5B7
  8
LAYER_05
 10
1018.245010277918
 20
1401.015975356901
 30
0.0
  0
VERTEX
  5
5B8
  8
LAYER_05
 10
1021.895003331138
 20
1406.039759805199
 30
0.0
  0
VERTEX
  5
5B9
  8
LAYER_05
 10
1020.541123417533
 20
1409.664555134813
 30
0.0
  0
VERTEX
  5
5BA
  8
LAYER_05
 10
1017.315210321757
 20
1407.527824758617
 30
0.0
  0
VERTEX
  5
5BB
  8
LAYER_05
 10
1017.315210321758
 20
1401.318085676214
 30
0.0
 42
-0.0514218516031206
  0
SEQEND
  5
5BC
  8
LAYER_05
  0
POLYLINE
  5
5BD
  8
LAYER_05
 66
     1
 10
0.0
 20
0.0
 30
0.0
 70
     1
  0
VERTEX
  5
5BE
  8
LAYER_05
 10
1019.863044266668
 20
1399.840404852316
 30
0.0
  0
VERTEX
  5
5BF
  8
LAYER_05
 10
1023.513037319888
 20
1404.864189300614
 30
0.0
  0
VERTEX
  5
5C0
  8
LAYER_05
 10
1027.378794440001
 20
1404.696696344481
 30
0.0
  0
VERTEX
  5
5C1
  8
LAYER_05
 10
1026.343505061125
 20
1400.9683846751
 30
0.0
  0
VERTEX
  5
5C2
  8
LAYER_05
 10
1020.437692242313
 20
1399.049469768003
 30
0.0
 42
0.0514218516030771
  0
SEQEND
  5
5C3
  8
LAYER_05
  0
POLYLINE
  5
5C4
  8
LAYER_05
 66
     1
 10
0.0
 20
0.0
 30
0.0
 70
     1
  0
VERTEX
  5
5C5
  8
LAYER_05
 10
1044.132726748109
 20
1407.900038938633
 30
0.0
  0
VERTEX
  5
5C6
  8
LAYER_05
 10
1032.482573699022
 20
1408.404809029711
 30
0.0
  0
VERTEX
  5
5C7
  8
LAYER_05
 10
1035.602604093908
 20
1419.640745539276
 30
0.0
  0
VERTEX
  5
5C8
  8
LAYER_05
 10
1046.748069598509
 20
1427.023106437875
 30
0.0
  0
VERTEX
  5
5C9
  8
LAYER_05
 10
1052.428265620041
 20
1422.896202460824
 30
0.0
  0
VERTEX
  5
5CA
  8
LAYER_05
 10
1054.597907437505
 20
1416.21873155765
 30
0.0
  0
SEQEND
  5
5CB
  8
LAYER_05
  0
POLYLINE
  5
5CC
  8
LAYER_05
 66
     1
 10
0.0
 20
0.0
 30
0.0
 70
     1
  0
VERTEX
  5
5CD
  8
LAYER_05
 10
1032.212461842517
 20
1422.1038280609
 30
0.0
  0
VERTEX
  5
5CE
  8
LAYER_05
 10
1022.490593623402
 20
1415.664407493631
 30
0.0
  0
VERTEX
  5
5CF
  8
LAYER_05
 10
1018.410433459815
 20
1426.588378930406
 30
0.0
  0
VERTEX
  5
5D0
  8
LAYER_05
 10
1023.08806159996
 20
1439.111974609519
 30
0.0
  0
VERTEX
  5
5D1
  8
LAYER_05
 10
1030.109170008097
 20
1439.111974609519
 30
0.0
  0
VERTEX
  5
5D2
  8
LAYER_05
 10
1035.78936602963
 20
1434.985070632469
 30
0.0
  0
SEQEND
  5
5D3
  8
LAYER_05
  0
POLYLINE
  5
5D4
  8
LAYER_05
 66
     1
 10
0.0
 20
0.0
 30
0.0
 70
     1
  0
VERTEX
  5
5D5
  8
LAYER_05
 10
1028.456908769273
 20
1408.57923036518
 30
0.0
  0
VERTEX
  5
5D6
  8
LAYER_05
 10
1025.082333438669
 20
1408.725441723074
 30
0.0
  0
VERTEX
  5
5D7
  8
LAYER_05
 10
1023.900477048032
 20
1411.889671786615
 30
0.0
  0
VERTEX
  5
5D8
  8
LAYER_05
 10
1030.610279670074
 20
1416.334006973317
 30
0.0
  0
SEQEND
  5
5D9
  8
LAYER_05
  0
POLYLINE
  5
5DA
  8
LAYER_05
 66
     1
 10
0.0
 20
0.0
 30
0.0
 70
     1
  0
VERTEX
  5
5DB
  8
LAYER_05
 10
1019.131239992902
 20
1413.43929084183
 30
0.0
  0
VERTEX
  5
5DC
  8
LAYER_05
 10
1016.315210321758
 20
1411.574052703058
 30
0.0
  0
VERTEX
  5
5DD
  8
LAYER_05
 10
1013.499180650613
 20
1413.43929084183
 30
0.0
  0
VERTEX
  5
5DE
  8
LAYER_05
 10
1016.315210321758
 20
1420.9787565636
 30
0.0
  0
SEQEND
  5
5DF
  8
LAYER_05
  0
POLYLINE
  5
5E0
  8
LAYER_05
 66
     1
 10
0.0
 20
0.0
 30
0.0
 70
     1
  0
VERTEX
  5
5E1
  8
LAYER_05
 10
1030.500713508475
 20
1401.267681356751
 30
0.0
  0
VERTEX
  5
5E2
  8
LAYER_05
 10
1031.404459369749
 20
1404.522275009012
 30
0.0
  0
VERTEX
  5
5E3
  8
LAYER_05
 10
1039.445118398871
 20
1404.173894676723
 30
0.0
  0
VERTEX
  5
5E4
  8
LAYER_05
 10
1033.144861419845
 20
1399.165868271366
 30
0.0
  0
SEQEND
  5
5E5
  8
LAYER_05
  0
POLYLINE
  5
5E6
  8
LAYER_05
 66
     1
 10
0.0
 20
0.0
 30
0.0
 70
     1
  0
VERTEX
  5
5E7
  8
LAYER_05
 10
1108.032004436742
 20
1520.904075191991
 30
0.0
  0
VERTEX
  5
5E8
  8
LAYER_05
 10
1102.126191617927
 20
1518.985160284924
 30
0.0
  0
VERTEX
  5
5E9
  8
LAYER_05
 10
1099.097178301109
 20
1521.392899957022
 30
0.0
  0
VERTEX
  5
5EA
  8
LAYER_05
 10
1102.126191617927
 20
1523.800639629119
 30
0.0
  0
VERTEX
  5
5EB
  8
LAYER_05
 10
1108.032004436742
 20
1521.881724722052
 30
0.0
 42
0.0514218516063444
  0
SEQEND
  5
5EC
  8
LAYER_05
  0
POLYLINE
  5
5ED
  8
LAYER_05
 66
     1
 10
0.0
 20
0.0
 30
0.0
 70
     1
  0
VERTEX
  5
5EE
  8
LAYER_05
 10
1117.513036255346
 20
1520.904075191991
 30
0.0
  0
VERTEX
  5
5EF
  8
LAYER_05
 10
1123.418849074161
 20
1518.985160284924
 30
0.0
  0
VERTEX
  5
5F0
  8
LAYER_05
 10
1126.447862390979
 20
1521.392899957022
 30
0.0
  0
VERTEX
  5
5F1
  8
LAYER_05
 10
1123.418849074161
 20
1523.800639629119
 30
0.0
  0
VERTEX
  5
5F2
  8
LAYER_05
 10
1117.513036255346
 20
1521.881724722052
 30
0.0
 42
-0.0514218516063542
  0
SEQEND
  5
5F3
  8
LAYER_05
  0
POLYLINE
  5
5F4
  8
LAYER_05
 66
     1
 10
0.0
 20
0.0
 30
0.0
 70
     1
  0
VERTEX
  5
5F5
  8
LAYER_05
 10
1108.032004436742
 20
1396.169707205382
 30
0.0
  0
VERTEX
  5
5F6
  8
LAYER_05
 10
1102.126191617927
 20
1394.250792298315
 30
0.0
  0
VERTEX
  5
5F7
  8
LAYER_05
 10
1099.097178301109
 20
1396.658531970412
 30
0.0
  0
VERTEX
  5
5F8
  8
LAYER_05
 10
1102.126191617927
 20
1399.066271642509
 30
0.0
  0
VERTEX
  5
5F9
  8
LAYER_05
 10
1108.032004436742
 20
1397.147356735443
 30
0.0
 42
0.0514218516065701
  0
SEQEND
  5
5FA
  8
LAYER_05
  0
POLYLINE
  5
5FB
  8
LAYER_05
 66
     1
 10
0.0
 20
0.0
 30
0.0
 70
     1
  0
VERTEX
  5
5FC
  8
LAYER_05
 10
1117.513036255346
 20
1396.169707205382
 30
0.0
  0
VERTEX
  5
5FD
  8
LAYER_05
 10
1123.418849074161
 20
1394.250792298315
 30
0.0
  0
VERTEX
  5
5FE
  8
LAYER_05
 10
1126.447862390979
 20
1396.658531970412
 30
0.0
  0
VERTEX
  5
5FF
  8
LAYER_05
 10
1123.418849074161
 20
1399.066271642509
 30
0.0
  0
VERTEX
  5
600
  8
LAYER_05
 10
1117.513036255346
 20
1397.147356735443
 30
0.0
 42
-0.0514218516065799
  0
SEQEND
  5
601
  8
LAYER_05
  0
POLYLINE
  5
602
  8
LAYER_05
 66
     1
 10
0.0
 20
0.0
 30
0.0
 70
     1
  0
VERTEX
  5
603
  8
LAYER_05
 10
1011.574694412455
 20
1520.904075191991
 30
0.0
  0
VERTEX
  5
604
  8
LAYER_05
 10
1005.668881593641
 20
1518.985160284924
 30
0.0
  0
VERTEX
  5
605
  8
LAYER_05
 10
1002.639868276822
 20
1521.392899957022
 30
0.0
  0
VERTEX
  5
606
  8
LAYER_05
 10
1005.668881593641
 20
1523.800639629119
 30
0.0
  0
VERTEX
  5
607
  8
LAYER_05
 10
1011.574694412455
 20
1521.881724722052
 30
0.0
 42
0.0514218516064683
  0
SEQEND
  5
608
  8
LAYER_05
  0
POLYLINE
  5
609
  8
LAYER_05
 66
     1
 10
0.0
 20
0.0
 30
0.0
 70
     1
  0
VERTEX
  5
60A
  8
LAYER_05
 10
1021.05572623106
 20
1520.904075191991
 30
0.0
  0
VERTEX
  5
60B
  8
LAYER_05
 10
1026.961539049875
 20
1518.985160284924
 30
0.0
  0
VERTEX
  5
60C
  8
LAYER_05
 10
1029.990552366693
 20
1521.392899957022
 30
0.0
  0
VERTEX
  5
60D
  8
LAYER_05
 10
1026.961539049875
 20
1523.800639629119
 30
0.0
  0
VERTEX
  5
60E
  8
LAYER_05
 10
1021.05572623106
 20
1521.881724722052
 30
0.0
 42
-0.0514218516064683
  0
SEQEND
  5
60F
  8
LAYER_05
  0
POLYLINE
  5
610
  8
LAYER_05
 66
     1
 10
0.0
 20
0.0
 30
0.0
 70
     1
  0
VERTEX
  5
611
  8
LAYER_05
 10
1011.574694412455
 20
1396.169707205382
 30
0.0
  0
VERTEX
  5
612
  8
LAYER_05
 10
1005.668881593641
 20
1394.250792298315
 30
0.0
  0
VERTEX
  5
613
  8
LAYER_05
 10
1002.639868276822
 20
1396.658531970412
 30
0.0
  0
VERTEX
  5
614
  8
LAYER_05
 10
1005.668881593641
 20
1399.066271642509
 30
0.0
  0
VERTEX
  5
615
  8
LAYER_05
 10
1011.574694412455
 20
1397.147356735443
 30
0.0
 42
0.0514218516064683
  0
SEQEND
  5
616
  8
LAYER_05
  0
POLYLINE
  5
617
  8
LAYER_05
 66
     1
 10
0.0
 20
0.0
 30
0.0
 70
     1
  0
VERTEX
  5
618
  8
LAYER_05
 10
1021.05572623106
 20
1396.169707205382
 30
0.0
  0
VERTEX
  5
619
  8
LAYER_05
 10
1026.961539049875
 20
1394.250792298315
 30
0.0
  0
VERTEX
  5
61A
  8
LAYER_05
 10
1029.990552366693
 20
1396.658531970412
 30
0.0
  0
VERTEX
  5
61B
  8
LAYER_05
 10
1026.961539049875
 20
1399.066271642509
 30
0.0
  0
VERTEX
  5
61C
  8
LAYER_05
 10
1021.05572623106
 20
1397.147356735443
 30
0.0
 42
-0.0514218516064683
  0
SEQEND
  5
61D
  8
LAYER_05
  0
POLYLINE
  5
61E
  8
LAYER_05
 66
     1
 10
0.0
 20
0.0
 30
0.0
 70
     1
  0
VERTEX
  5
61F
  8
LAYER_05
 10
1115.579761920646
 20
1580.760083950326
 30
0.0
  0
VERTEX
  5
620
  8
LAYER_05
 10
1112.772520346044
 20
1578.720503559993
 30
0.0
  0
VERTEX
  5
621
  8
LAYER_05
 10
1109.965278771442
 20
1580.760083950326
 30
0.0
  0
SEQEND
  5
622
  8
LAYER_05
  0
POLYLINE
  5
623
  8
LAYER_05
 66
     1
 10
0.0
 20
0.0
 30
0.0
 70
     1
  0
VERTEX
  5
624
  8
LAYER_05
 10
1112.772520346044
 20
1464.06529635405
 30
0.0
  0
VERTEX
  5
625
  8
LAYER_05
 10
1115.579761920646
 20
1462.025715963717
 30
0.0
  0
VERTEX
  5
626
  8
LAYER_05
 10
1109.965278771442
 20
1462.025715963717
 30
0.0
  0
SEQEND
  5
627
  8
LAYER_05
  0
CIRCLE
  5
628
  8
LAYER_05
 10
1112.772520346044
 20
1521.392899957022
 30
0.0
 40
2.76565218383098
  0
POLYLINE
  5
629
  8
LAYER_05
 66
     1
 10
0.0
 20
0.0
 30
0.0
 70
     1
  0
VERTEX
  5
62A
  8
LAYER_05
 10
1115.579761920646
 20
1456.025715963717
 30
0.0
  0
VERTEX
  5
62B
  8
LAYER_05
 10
1112.772520346044
 20
1453.986135573384
 30
0.0
  0
VERTEX
  5
62C
  8
LAYER_05
 10
1109.965278771442
 20
1456.025715963717
 30
0.0
  0
SEQEND
  5
62D
  8
LAYER_05
  0
POLYLINE
  5
62E
  8
LAYER_05
 66
     1
 10
0.0
 20
0.0
 30
0.0
 70
     1
  0
VERTEX
  5
62F
  8
LAYER_05
 10
1112.772520346044
 20
1339.330928367441
 30
0.0
  0
VERTEX
  5
630
  8
LAYER_05
 10
1115.579761920646
 20
1337.291347977108
 30
0.0
  0
VERTEX
  5
631
  8
LAYER_05
 10
1109.965278771442
 20
1337.291347977108
 30
0.0
  0
SEQEND
  5
632
  8
LAYER_05
  0
CIRCLE
  5
633
  8
LAYER_05
 10
1112.772520346044
 20
1396.658531970412
 30
0.0
 40
2.76565218383098
  0
POLYLINE
  5
634
  8
LAYER_05
 66
     1
 10
0.0
 20
0.0
 30
0.0
 70
     1
  0
VERTEX
  5
635
  8
LAYER_05
 10
1019.122451896359
 20
1580.760083950326
 30
0.0
  0
VERTEX
  5
636
  8
LAYER_05
 10
1016.315210321758
 20
1578.720503559993
 30
0.0
  0
VERTEX
  5
637
  8
LAYER_05
 10
1013.507968747156
 20
1580.760083950326
 30
0.0
  0
SEQEND
  5
638
  8
LAYER_05
  0
POLYLINE
  5
639
  8
LAYER_05
 66
     1
 10
0.0
 20
0.0
 30
0.0
 70
     1
  0
VERTEX
  5
63A
  8
LAYER_05
 10
1016.315210321758
 20
1464.06529635405
 30
0.0
  0
VERTEX
  5
63B
  8
LAYER_05
 10
1019.122451896359
 20
1462.025715963717
 30
0.0
  0
VERTEX
  5
63C
  8
LAYER_05
 10
1013.507968747156
 20
1462.025715963717
 30
0.0
  0
SEQEND
  5
63D
  8
LAYER_05
  0
CIRCLE
  5
63E
  8
LAYER_05
 10
1016.315210321758
 20
1521.392899957022
 30
0.0
 40
2.765652183830639
  0
POLYLINE
  5
63F
  8
LAYER_05
 66
     1
 10
0.0
 20
0.0
 30
0.0
 70
     1
  0
VERTEX
  5
640
  8
LAYER_05
 10
1019.122451896359
 20
1456.025715963717
 30
0.0
  0
VERTEX
  5
641
  8
LAYER_05
 10
1016.315210321758
 20
1453.986135573384
 30
0.0
  0
VERTEX
  5
642
  8
LAYER_05
 10
1013.507968747156
 20
1456.025715963717
 30
0.0
  0
SEQEND
  5
643
  8
LAYER_05
  0
POLYLINE
  5
644
  8
LAYER_05
 66
     1
 10
0.0
 20
0.0
 30
0.0
 70
     1
  0
VERTEX
  5
645
  8
LAYER_05
 10
1016.315210321758
 20
1339.330928367441
 30
0.0
  0
VERTEX
  5
646
  8
LAYER_05
 10
1019.122451896359
 20
1337.291347977108
 30
0.0
  0
VERTEX
  5
647
  8
LAYER_05
 10
1013.507968747156
 20
1337.291347977108
 30
0.0
  0
SEQEND
  5
648
  8
LAYER_05
  0
CIRCLE
  5
649
  8
LAYER_05
 10
1016.315210321758
 20
1396.658531970412
 30
0.0
 40
2.765652183830639
  0
ENDSEC
  0
EOF
