  0
SECTION
  2
HEADER
  9
$ACADVER
  1
AC1009
  9
$DWGCODEPAGE
  3
ansi_1252
  9
$INSBASE
 10
0.0
 20
0.0
 30
0.0
  9
$EXTMIN
 10
1.000000000000000E+20
 20
1.000000000000000E+20
 30
1.000000000000000E+20
  9
$EXTMAX
 10
-1.000000000000000E+20
 20
-1.000000000000000E+20
 30
-1.000000000000000E+20
  9
$LIMMIN
 10
0.0
 20
0.0
  9
$LIMMAX
 10
12.0
 20
9.0
  9
$ORTHOMODE
 70
     0
  9
$REGENMODE
 70
     1
  9
$FILLMODE
 70
     1
  9
$QTEXTMODE
 70
     0
  9
$MIRRTEXT
 70
     1
  9
$DRAGMODE
 70
     2
  9
$LTSCALE
 40
1.0
  9
$OSMODE
 70
    37
  9
$ATTMODE
 70
     1
  9
$TEXTSIZE
 40
0.2
  9
$TRACEWID
 40
0.05
  9
$TEXTSTYLE
  7
STANDARD
  9
$CLAYER
  8
LAYER_01
  9
$CELTYPE
  6
BYLAYER
  9
$CECOLOR
 62
   256
  9
$DIMSCALE
 40
1.0
  9
$DIMASZ
 40
0.18
  9
$DIMEXO
 40
0.0625
  9
$DIMDLI
 40
0.38
  9
$DIMRND
 40
0.0
  9
$DIMDLE
 40
0.0
  9
$DIMEXE
 40
0.18
  9
$DIMTP
 40
0.0
  9
$DIMTM
 40
0.0
  9
$DIMTXT
 40
0.18
  9
$DIMCEN
 40
0.09
  9
$DIMTSZ
 40
0.0
  9
$DIMTOL
 70
     0
  9
$DIMLIM
 70
     0
  9
$DIMTIH
 70
     1
  9
$DIMTOH
 70
     1
  9
$DIMSE1
 70
     0
  9
$DIMSE2
 70
     0
  9
$DIMTAD
 70
     0
  9
$DIMZIN
 70
     0
  9
$DIMBLK
  1

  9
$DIMASO
 70
     1
  9
$DIMSHO
 70
     1
  9
$DIMPOST
  1

  9
$DIMAPOST
  1

  9
$DIMALT
 70
     0
  9
$DIMALTD
 70
     2
  9
$DIMALTF
 40
25.4
  9
$DIMLFAC
 40
1.0
  9
$DIMTOFL
 70
     0
  9
$DIMTVP
 40
0.0
  9
$DIMTIX
 70
     0
  9
$DIMSOXD
 70
     0
  9
$DIMSAH
 70
     0
  9
$DIMBLK1
  1

  9
$DIMBLK2
  1

  9
$DIMSTYLE
  2
STANDARD_ACAD
  9
$DIMCLRD
 70
     0
  9
$DIMCLRE
 70
     0
  9
$DIMCLRT
 70
     0
  9
$DIMTFAC
 40
1.0
  9
$DIMGAP
 40
0.09
  9
$LUNITS
 70
     2
  9
$LUPREC
 70
     3
  9
$SKETCHINC
 40
0.1
  9
$FILLETRAD
 40
0.5
  9
$AUNITS
 70
     0
  9
$AUPREC
 70
     0
  9
$MENU
  1
.
  9
$ELEVATION
 40
0.0
  9
$PELEVATION
 40
0.0
  9
$THICKNESS
 40
0.0
  9
$LIMCHECK
 70
     0
  9
$CHAMFERA
 40
0.0
  9
$CHAMFERB
 40
0.0
  9
$SKPOLY
 70
     0
  9
$TDCREATE
 40
2459642.404948958
  9
$TDUPDATE
 40
2459642.404949063
  9
$TDINDWG
 40
0.0000000116
  9
$TDUSRTIMER
 40
0.0000000116
  9
$USRTIMER
 70
     1
  9
$ANGBASE
 50
0.0
  9
$ANGDIR
 70
     0
  9
$PDMODE
 70
     0
  9
$PDSIZE
 40
0.0
  9
$PLINEWID
 40
0.0
  9
$COORDS
 70
     1
  9
$SPLFRAME
 70
     0
  9
$SPLINETYPE
 70
     6
  9
$SPLINESEGS
 70
     8
  9
$ATTDIA
 70
     0
  9
$ATTREQ
 70
     1
  9
$HANDLING
 70
     1
  9
$HANDSEED
  5
6A5
  9
$SURFTAB1
 70
     6
  9
$SURFTAB2
 70
     6
  9
$SURFTYPE
 70
     6
  9
$SURFU
 70
     6
  9
$SURFV
 70
     6
  9
$UCSNAME
  2

  9
$UCSORG
 10
0.0
 20
0.0
 30
0.0
  9
$UCSXDIR
 10
1.0
 20
0.0
 30
0.0
  9
$UCSYDIR
 10
0.0
 20
1.0
 30
0.0
  9
$PUCSNAME
  2

  9
$PUCSORG
 10
0.0
 20
0.0
 30
0.0
  9
$PUCSXDIR
 10
1.0
 20
0.0
 30
0.0
  9
$PUCSYDIR
 10
0.0
 20
1.0
 30
0.0
  9
$USERI1
 70
     0
  9
$USERI2
 70
     0
  9
$USERI3
 70
     0
  9
$USERI4
 70
     0
  9
$USERI5
 70
     0
  9
$USERR1
 40
0.0
  9
$USERR2
 40
0.0
  9
$USERR3
 40
0.0
  9
$USERR4
 40
0.0
  9
$USERR5
 40
0.0
  9
$WORLDVIEW
 70
     1
  9
$SHADEDGE
 70
     3
  9
$SHADEDIF
 70
    70
  9
$TILEMODE
 70
     1
  9
$MAXACTVP
 70
    64
  9
$PLIMCHECK
 70
     0
  9
$PEXTMIN
 10
1.000000000000000E+20
 20
1.000000000000000E+20
 30
1.000000000000000E+20
  9
$PEXTMAX
 10
-1.000000000000000E+20
 20
-1.000000000000000E+20
 30
-1.000000000000000E+20
  9
$PLIMMIN
 10
0.0
 20
0.0
  9
$PLIMMAX
 10
12.0
 20
9.0
  9
$UNITMODE
 70
     0
  9
$VISRETAIN
 70
     1
  9
$PLINEGEN
 70
     0
  9
$PSLTSCALE
 70
     1
  0
ENDSEC
  0
SECTION
  2
TABLES
  0
TABLE
  2
VPORT
 70
     1
  0
VPORT
  2
*ACTIVE
 70
     0
 10
0.0
 20
0.0
 11
1.0
 21
1.0
 12
10.42990654205607
 22
4.5
 13
0.0
 23
0.0
 14
0.5
 24
0.5
 15
0.5
 25
0.5
 16
0.0
 26
0.0
 36
1.0
 17
0.0
 27
0.0
 37
0.0
 40
9.0
 41
1.972972972850329
 42
50.0
 43
0.0
 44
0.0
 50
0.0
 51
0.0
 71
     0
 72
   100
 73
     1
 74
     3
 75
     0
 76
     0
 77
     0
 78
     0
  0
ENDTAB
  0
TABLE
  2
LTYPE
 70
     1
  0
LTYPE
  2
CONTINUOUS
 70
     0
  3
Solid line
 72
    65
 73
     0
 40
0.0
  0
ENDTAB
  0
TABLE
  2
LAYER
 70
     2
  0
LAYER
  2
0
 70
     0
 62
     7
  6
CONTINUOUS
  0
LAYER
  2
LAYER_01
 70
     0
 62
     5
  6
CONTINUOUS
  0
ENDTAB
  0
TABLE
  2
STYLE
 70
     1
  0
STYLE
  2
STANDARD
 70
     0
 40
0.0
 41
1.0
 50
0.0
 71
     0
 42
0.2
  3
txt
  4

  0
ENDTAB
  0
TABLE
  2
VIEW
 70
     0
  0
ENDTAB
  0
TABLE
  2
UCS
 70
     0
  0
ENDTAB
  0
TABLE
  2
APPID
 70
     2
  0
APPID
  2
ACAD
 70
     0
  0
APPID
  2
RHINO
 70
     0
  0
ENDTAB
  0
TABLE
  2
DIMSTYLE
 70
     1
  0
DIMSTYLE
  2
STANDARD_ACAD
 70
     0
  3

  4

  5

  6

  7

 40
1.0
 41
0.18
 42
0.0625
 43
0.38
 44
0.18
 45
0.0
 46
0.0
 47
0.0
 48
0.0
140
0.18
141
0.09
142
0.0
143
25.4
144
1.0
145
0.0
146
1.0
147
0.09
 71
     0
 72
     0
 73
     1
 74
     1
 75
     0
 76
     0
 77
     0
 78
     0
170
     0
171
     2
172
     0
173
     0
174
     0
175
     0
176
     0
177
     0
178
     0
  0
ENDTAB
  0
ENDSEC
  0
SECTION
  2
BLOCKS
  0
BLOCK
  8
0
  2
$MODEL_SPACE
 70
     0
 10
0.0
 20
0.0
 30
0.0
  3
$MODEL_SPACE
  1

  0
ENDBLK
  5
21
  8
0
  0
BLOCK
 67
     1
  8
0
  2
$PAPER_SPACE
 70
     0
 10
0.0
 20
0.0
 30
0.0
  3
$PAPER_SPACE
  1

  0
ENDBLK
  5
1D
 67
     1
  8
0
  0
ENDSEC
  0
SECTION
  2
ENTITIES
  0
POLYLINE
  5
70
  8
LAYER_01
 66
     1
 10
0.0
 20
0.0
 30
0.0
 70
     1
  0
VERTEX
  5
71
  8
LAYER_01
 10
1302.042113895493
 20
824.4491572389088
 30
0.0
  0
VERTEX
  5
72
  8
LAYER_01
 10
2259.465407645499
 20
824.4491572389088
 30
0.0
  0
VERTEX
  5
73
  8
LAYER_01
 10
2259.465407645499
 20
1781.872450988912
 30
0.0
  0
VERTEX
  5
74
  8
LAYER_01
 10
1302.042113895493
 20
1781.872450988912
 30
0.0
  0
SEQEND
  5
75
  8
LAYER_01
  0
POLYLINE
  5
76
  8
LAYER_01
 66
     1
 10
0.0
 20
0.0
 30
0.0
 70
     1
  0
VERTEX
  5
77
  8
LAYER_01
 10
1322.042113895493
 20
844.4491572389088
 30
0.0
  0
VERTEX
  5
78
  8
LAYER_01
 10
2239.465407645499
 20
844.4491572389088
 30
0.0
  0
VERTEX
  5
79
  8
LAYER_01
 10
2239.465407645499
 20
1761.872450988912
 30
0.0
  0
VERTEX
  5
7A
  8
LAYER_01
 10
1322.042113895493
 20
1761.872450988912
 30
0.0
  0
SEQEND
  5
7B
  8
LAYER_01
  0
POLYLINE
  5
7C
  8
LAYER_01
 66
     1
 10
0.0
 20
0.0
 30
0.0
 70
     1
  0
VERTEX
  5
7D
  8
LAYER_01
 10
1780.753760770497
 20
1377.131310661411
 30
0.0
  0
VERTEX
  5
7E
  8
LAYER_01
 10
1813.058807558039
 20
1409.436357448953
 30
0.0
  0
VERTEX
  5
7F
  8
LAYER_01
 10
1813.058807558039
 20
1441.134751655771
 30
0.0
  0
VERTEX
  5
80
  8
LAYER_01
 10
1780.753760770496
 20
1454.515940168268
 30
0.0
  0
VERTEX
  5
81
  8
LAYER_01
 10
1748.448713982954
 20
1441.134751655771
 30
0.0
  0
VERTEX
  5
82
  8
LAYER_01
 10
1748.448713982954
 20
1409.436357448953
 30
0.0
  0
SEQEND
  5
83
  8
LAYER_01
  0
POLYLINE
  5
84
  8
LAYER_01
 66
     1
 10
0.0
 20
0.0
 30
0.0
  0
VERTEX
  5
85
  8
LAYER_01
 10
1826.439996070535
 20
1761.872450988912
 30
0.0
  0
VERTEX
  5
86
  8
LAYER_01
 10
1813.058807558039
 20
1748.491262476414
 30
0.0
  0
VERTEX
  5
87
  8
LAYER_01
 10
1813.058807558039
 20
1729.56740420137
 30
0.0
  0
VERTEX
  5
88
  8
LAYER_01
 10
1794.134949282994
 20
1729.56740420137
 30
0.0
  0
VERTEX
  5
89
  8
LAYER_01
 10
1780.753760770496
 20
1716.186215688872
 30
0.0
  0
VERTEX
  5
8A
  8
LAYER_01
 10
1767.372572257999
 20
1729.56740420137
 30
0.0
  0
VERTEX
  5
8B
  8
LAYER_01
 10
1748.448713982953
 20
1729.56740420137
 30
0.0
  0
VERTEX
  5
8C
  8
LAYER_01
 10
1748.448713982954
 20
1748.491262476414
 30
0.0
  0
VERTEX
  5
8D
  8
LAYER_01
 10
1735.067525470457
 20
1761.872450988912
 30
0.0
  0
SEQEND
  5
8E
  8
LAYER_01
  0
POLYLINE
  5
8F
  8
LAYER_01
 66
     1
 10
0.0
 20
0.0
 30
0.0
 70
     1
  0
VERTEX
  5
90
  8
LAYER_01
 10
1780.753760770496
 20
1610.517314934554
 30
0.0
  0
VERTEX
  5
91
  8
LAYER_01
 10
1748.448713982954
 20
1623.898503447051
 30
0.0
  0
VERTEX
  5
92
  8
LAYER_01
 10
1748.448713982954
 20
1655.596897653868
 30
0.0
  0
VERTEX
  5
93
  8
LAYER_01
 10
1780.753760770496
 20
1687.901944441411
 30
0.0
  0
VERTEX
  5
94
  8
LAYER_01
 10
1813.058807558039
 20
1655.596897653868
 30
0.0
  0
VERTEX
  5
95
  8
LAYER_01
 10
1813.058807558039
 20
1623.898503447051
 30
0.0
  0
SEQEND
  5
96
  8
LAYER_01
  0
POLYLINE
  5
97
  8
LAYER_01
 66
     1
 10
0.0
 20
0.0
 30
0.0
  0
VERTEX
  5
98
  8
LAYER_01
 10
1826.439996070535
 20
844.4491572389088
 30
0.0
  0
VERTEX
  5
99
  8
LAYER_01
 10
1813.058807558039
 20
857.8303457514062
 30
0.0
  0
VERTEX
  5
9A
  8
LAYER_01
 10
1813.058807558039
 20
876.7542040264509
 30
0.0
  0
VERTEX
  5
9B
  8
LAYER_01
 10
1794.134949282994
 20
876.7542040264509
 30
0.0
  0
VERTEX
  5
9C
  8
LAYER_01
 10
1780.753760770496
 20
890.135392538948
 30
0.0
  0
VERTEX
  5
9D
  8
LAYER_01
 10
1767.372572257999
 20
876.7542040264509
 30
0.0
  0
VERTEX
  5
9E
  8
LAYER_01
 10
1748.448713982953
 20
876.7542040264509
 30
0.0
  0
VERTEX
  5
9F
  8
LAYER_01
 10
1748.448713982954
 20
857.8303457514062
 30
0.0
  0
VERTEX
  5
A0
  8
LAYER_01
 10
1735.067525470457
 20
844.4491572389088
 30
0.0
  0
SEQEND
  5
A1
  8
LAYER_01
  0
POLYLINE
  5
A2
  8
LAYER_01
 66
     1
 10
0.0
 20
0.0
 30
0.0
 70
     1
  0
VERTEX
  5
A3
  8
LAYER_01
 10
1780.753760770497
 20
918.4196637864097
 30
0.0
  0
VERTEX
  5
A4
  8
LAYER_01
 10
1813.058807558039
 20
950.724710573952
 30
0.0
  0
VERTEX
  5
A5
  8
LAYER_01
 10
1813.058807558039
 20
982.4231047807691
 30
0.0
  0
VERTEX
  5
A6
  8
LAYER_01
 10
1780.753760770496
 20
995.8042932932663
 30
0.0
  0
VERTEX
  5
A7
  8
LAYER_01
 10
1748.448713982954
 20
982.4231047807691
 30
0.0
  0
VERTEX
  5
A8
  8
LAYER_01
 10
1748.448713982954
 20
950.724710573952
 30
0.0
  0
SEQEND
  5
A9
  8
LAYER_01
  0
POLYLINE
  5
AA
  8
LAYER_01
 66
     1
 10
0.0
 20
0.0
 30
0.0
 70
     1
  0
VERTEX
  5
AB
  8
LAYER_01
 10
1780.753760770497
 20
1229.190297566409
 30
0.0
  0
VERTEX
  5
AC
  8
LAYER_01
 10
1813.058807558039
 20
1196.885250778867
 30
0.0
  0
VERTEX
  5
AD
  8
LAYER_01
 10
1813.058807558039
 20
1165.18685657205
 30
0.0
  0
VERTEX
  5
AE
  8
LAYER_01
 10
1780.753760770496
 20
1151.805668059553
 30
0.0
  0
VERTEX
  5
AF
  8
LAYER_01
 10
1748.448713982954
 20
1165.18685657205
 30
0.0
  0
VERTEX
  5
B0
  8
LAYER_01
 10
1748.448713982954
 20
1196.885250778867
 30
0.0
  0
SEQEND
  5
B1
  8
LAYER_01
  0
POLYLINE
  5
B2
  8
LAYER_01
 66
     1
 10
0.0
 20
0.0
 30
0.0
 70
     1
  0
VERTEX
  5
B3
  8
LAYER_01
 10
2066.462427585294
 20
1303.16080411391
 30
0.0
  0
VERTEX
  5
B4
  8
LAYER_01
 10
2049.957061899228
 20
1263.31332642268
 30
0.0
  0
VERTEX
  5
B5
  8
LAYER_01
 10
2010.109584207998
 20
1246.807960736614
 30
0.0
  0
VERTEX
  5
B6
  8
LAYER_01
 10
1970.262106516768
 20
1263.31332642268
 30
0.0
  0
VERTEX
  5
B7
  8
LAYER_01
 10
1953.756740830701
 20
1303.16080411391
 30
0.0
  0
VERTEX
  5
B8
  8
LAYER_01
 10
1970.262106516768
 20
1343.00828180514
 30
0.0
  0
VERTEX
  5
B9
  8
LAYER_01
 10
2010.109584207998
 20
1359.513647491206
 30
0.0
  0
VERTEX
  5
BA
  8
LAYER_01
 10
2049.957061899228
 20
1343.00828180514
 30
0.0
  0
SEQEND
  5
BB
  8
LAYER_01
  0
POLYLINE
  5
BC
  8
LAYER_01
 66
     1
 10
0.0
 20
0.0
 30
0.0
 70
     1
  0
VERTEX
  5
BD
  8
LAYER_01
 10
1780.753760770496
 20
1588.869470928707
 30
0.0
  0
VERTEX
  5
BE
  8
LAYER_01
 10
1820.601238461724
 20
1572.364105242641
 30
0.0
  0
VERTEX
  5
BF
  8
LAYER_01
 10
1837.106604147792
 20
1532.516627551411
 30
0.0
  0
VERTEX
  5
C0
  8
LAYER_01
 10
1820.601238461724
 20
1492.66914986018
 30
0.0
  0
VERTEX
  5
C1
  8
LAYER_01
 10
1780.753760770496
 20
1476.163784174115
 30
0.0
  0
VERTEX
  5
C2
  8
LAYER_01
 10
1740.906283079268
 20
1492.66914986018
 30
0.0
  0
VERTEX
  5
C3
  8
LAYER_01
 10
1724.400917393201
 20
1532.516627551411
 30
0.0
  0
VERTEX
  5
C4
  8
LAYER_01
 10
1740.906283079268
 20
1572.364105242641
 30
0.0
  0
SEQEND
  5
C5
  8
LAYER_01
  0
POLYLINE
  5
C6
  8
LAYER_01
 66
     1
 10
0.0
 20
0.0
 30
0.0
 70
     1
  0
VERTEX
  5
C7
  8
LAYER_01
 10
1780.753760770497
 20
1348.847039413949
 30
0.0
  0
VERTEX
  5
C8
  8
LAYER_01
 10
1794.134949282994
 20
1335.465850901452
 30
0.0
  0
VERTEX
  5
C9
  8
LAYER_01
 10
1813.058807558039
 20
1335.465850901452
 30
0.0
  0
VERTEX
  5
CA
  8
LAYER_01
 10
1813.058807558039
 20
1316.541992626408
 30
0.0
  0
VERTEX
  5
CB
  8
LAYER_01
 10
1826.439996070535
 20
1303.16080411391
 30
0.0
  0
VERTEX
  5
CC
  8
LAYER_01
 10
1813.058807558039
 20
1289.779615601413
 30
0.0
  0
VERTEX
  5
CD
  8
LAYER_01
 10
1813.058807558039
 20
1270.855757326368
 30
0.0
  0
VERTEX
  5
CE
  8
LAYER_01
 10
1794.134949282994
 20
1270.855757326368
 30
0.0
  0
VERTEX
  5
CF
  8
LAYER_01
 10
1780.753760770496
 20
1257.474568813871
 30
0.0
  0
VERTEX
  5
D0
  8
LAYER_01
 10
1767.372572257999
 20
1270.855757326368
 30
0.0
  0
VERTEX
  5
D1
  8
LAYER_01
 10
1748.448713982953
 20
1270.855757326368
 30
0.0
  0
VERTEX
  5
D2
  8
LAYER_01
 10
1748.448713982954
 20
1289.779615601413
 30
0.0
  0
VERTEX
  5
D3
  8
LAYER_01
 10
1735.067525470457
 20
1303.16080411391
 30
0.0
  0
VERTEX
  5
D4
  8
LAYER_01
 10
1748.448713982954
 20
1316.541992626408
 30
0.0
  0
VERTEX
  5
D5
  8
LAYER_01
 10
1748.448713982953
 20
1335.465850901452
 30
0.0
  0
VERTEX
  5
D6
  8
LAYER_01
 10
1767.372572257999
 20
1335.465850901452
 30
0.0
  0
SEQEND
  5
D7
  8
LAYER_01
  0
POLYLINE
  5
D8
  8
LAYER_01
 66
     1
 10
0.0
 20
0.0
 30
0.0
 70
     1
  0
VERTEX
  5
D9
  8
LAYER_01
 10
1854.724267317997
 20
1303.16080411391
 30
0.0
  0
VERTEX
  5
DA
  8
LAYER_01
 10
1887.029314105539
 20
1270.855757326368
 30
0.0
  0
VERTEX
  5
DB
  8
LAYER_01
 10
1918.727708312356
 20
1270.855757326369
 30
0.0
  0
VERTEX
  5
DC
  8
LAYER_01
 10
1932.108896824854
 20
1303.16080411391
 30
0.0
  0
VERTEX
  5
DD
  8
LAYER_01
 10
1918.727708312356
 20
1335.465850901452
 30
0.0
  0
VERTEX
  5
DE
  8
LAYER_01
 10
1887.029314105539
 20
1335.465850901452
 30
0.0
  0
SEQEND
  5
DF
  8
LAYER_01
  0
POLYLINE
  5
E0
  8
LAYER_01
 66
     1
 10
0.0
 20
0.0
 30
0.0
  0
VERTEX
  5
E1
  8
LAYER_01
 10
2239.465407645499
 20
1257.474568813871
 30
0.0
  0
VERTEX
  5
E2
  8
LAYER_01
 10
2226.084219133002
 20
1270.855757326368
 30
0.0
  0
VERTEX
  5
E3
  8
LAYER_01
 10
2207.160360857957
 20
1270.855757326368
 30
0.0
  0
VERTEX
  5
E4
  8
LAYER_01
 10
2207.160360857957
 20
1289.779615601413
 30
0.0
  0
VERTEX
  5
E5
  8
LAYER_01
 10
2193.77917234546
 20
1303.16080411391
 30
0.0
  0
VERTEX
  5
E6
  8
LAYER_01
 10
2207.160360857957
 20
1316.541992626408
 30
0.0
  0
VERTEX
  5
E7
  8
LAYER_01
 10
2207.160360857957
 20
1335.465850901452
 30
0.0
  0
VERTEX
  5
E8
  8
LAYER_01
 10
2226.084219133002
 20
1335.465850901452
 30
0.0
  0
VERTEX
  5
E9
  8
LAYER_01
 10
2239.465407645499
 20
1348.847039413949
 30
0.0
  0
SEQEND
  5
EA
  8
LAYER_01
  0
POLYLINE
  5
EB
  8
LAYER_01
 66
     1
 10
0.0
 20
0.0
 30
0.0
 70
     1
  0
VERTEX
  5
EC
  8
LAYER_01
 10
2088.110271591142
 20
1303.16080411391
 30
0.0
  0
VERTEX
  5
ED
  8
LAYER_01
 10
2101.491460103639
 20
1335.465850901452
 30
0.0
  0
VERTEX
  5
EE
  8
LAYER_01
 10
2133.189854310457
 20
1335.465850901452
 30
0.0
  0
VERTEX
  5
EF
  8
LAYER_01
 10
2165.494901097999
 20
1303.16080411391
 30
0.0
  0
VERTEX
  5
F0
  8
LAYER_01
 10
2133.189854310457
 20
1270.855757326368
 30
0.0
  0
VERTEX
  5
F1
  8
LAYER_01
 10
2101.491460103639
 20
1270.855757326369
 30
0.0
  0
SEQEND
  5
F2
  8
LAYER_01
  0
POLYLINE
  5
F3
  8
LAYER_01
 66
     1
 10
0.0
 20
0.0
 30
0.0
 70
     1
  0
VERTEX
  5
F4
  8
LAYER_01
 10
1495.045093955698
 20
1303.16080411391
 30
0.0
  0
VERTEX
  5
F5
  8
LAYER_01
 10
1511.550459641765
 20
1343.00828180514
 30
0.0
  0
VERTEX
  5
F6
  8
LAYER_01
 10
1551.397937332995
 20
1359.513647491206
 30
0.0
  0
VERTEX
  5
F7
  8
LAYER_01
 10
1591.245415024225
 20
1343.00828180514
 30
0.0
  0
VERTEX
  5
F8
  8
LAYER_01
 10
1607.750780710291
 20
1303.16080411391
 30
0.0
  0
VERTEX
  5
F9
  8
LAYER_01
 10
1591.245415024225
 20
1263.31332642268
 30
0.0
  0
VERTEX
  5
FA
  8
LAYER_01
 10
1551.397937332995
 20
1246.807960736614
 30
0.0
  0
VERTEX
  5
FB
  8
LAYER_01
 10
1511.550459641765
 20
1263.31332642268
 30
0.0
  0
SEQEND
  5
FC
  8
LAYER_01
  0
POLYLINE
  5
FD
  8
LAYER_01
 66
     1
 10
0.0
 20
0.0
 30
0.0
  0
VERTEX
  5
FE
  8
LAYER_01
 10
1322.042113895493
 20
1257.474568813871
 30
0.0
  0
VERTEX
  5
FF
  8
LAYER_01
 10
1335.42330240799
 20
1270.855757326368
 30
0.0
  0
VERTEX
  5
100
  8
LAYER_01
 10
1354.347160683036
 20
1270.855757326368
 30
0.0
  0
VERTEX
  5
101
  8
LAYER_01
 10
1354.347160683035
 20
1289.779615601413
 30
0.0
  0
VERTEX
  5
102
  8
LAYER_01
 10
1367.728349195532
 20
1303.16080411391
 30
0.0
  0
VERTEX
  5
103
  8
LAYER_01
 10
1354.347160683035
 20
1316.541992626408
 30
0.0
  0
VERTEX
  5
104
  8
LAYER_01
 10
1354.347160683036
 20
1335.465850901452
 30
0.0
  0
VERTEX
  5
105
  8
LAYER_01
 10
1335.42330240799
 20
1335.465850901452
 30
0.0
  0
VERTEX
  5
106
  8
LAYER_01
 10
1322.042113895493
 20
1348.847039413949
 30
0.0
  0
SEQEND
  5
107
  8
LAYER_01
  0
POLYLINE
  5
108
  8
LAYER_01
 66
     1
 10
0.0
 20
0.0
 30
0.0
 70
     1
  0
VERTEX
  5
109
  8
LAYER_01
 10
1396.012620442994
 20
1303.16080411391
 30
0.0
  0
VERTEX
  5
10A
  8
LAYER_01
 10
1428.317667230536
 20
1270.855757326368
 30
0.0
  0
VERTEX
  5
10B
  8
LAYER_01
 10
1460.016061437353
 20
1270.855757326369
 30
0.0
  0
VERTEX
  5
10C
  8
LAYER_01
 10
1473.39724994985
 20
1303.16080411391
 30
0.0
  0
VERTEX
  5
10D
  8
LAYER_01
 10
1460.016061437353
 20
1335.465850901452
 30
0.0
  0
VERTEX
  5
10E
  8
LAYER_01
 10
1428.317667230536
 20
1335.465850901452
 30
0.0
  0
SEQEND
  5
10F
  8
LAYER_01
  0
POLYLINE
  5
110
  8
LAYER_01
 66
     1
 10
0.0
 20
0.0
 30
0.0
 70
     1
  0
VERTEX
  5
111
  8
LAYER_01
 10
1706.783254222995
 20
1303.16080411391
 30
0.0
  0
VERTEX
  5
112
  8
LAYER_01
 10
1674.478207435453
 20
1270.855757326368
 30
0.0
  0
VERTEX
  5
113
  8
LAYER_01
 10
1642.779813228636
 20
1270.855757326369
 30
0.0
  0
VERTEX
  5
114
  8
LAYER_01
 10
1629.398624716139
 20
1303.16080411391
 30
0.0
  0
VERTEX
  5
115
  8
LAYER_01
 10
1642.779813228636
 20
1335.465850901452
 30
0.0
  0
VERTEX
  5
116
  8
LAYER_01
 10
1674.478207435453
 20
1335.465850901452
 30
0.0
  0
SEQEND
  5
117
  8
LAYER_01
  0
POLYLINE
  5
118
  8
LAYER_01
 66
     1
 10
0.0
 20
0.0
 30
0.0
 70
     1
  0
VERTEX
  5
119
  8
LAYER_01
 10
1780.753760770496
 20
1130.157824053706
 30
0.0
  0
VERTEX
  5
11A
  8
LAYER_01
 10
1820.601238461724
 20
1113.65245836764
 30
0.0
  0
VERTEX
  5
11B
  8
LAYER_01
 10
1837.106604147792
 20
1073.80498067641
 30
0.0
  0
VERTEX
  5
11C
  8
LAYER_01
 10
1820.601238461724
 20
1033.957502985179
 30
0.0
  0
VERTEX
  5
11D
  8
LAYER_01
 10
1780.753760770496
 20
1017.452137299113
 30
0.0
  0
VERTEX
  5
11E
  8
LAYER_01
 10
1740.906283079268
 20
1033.957502985179
 30
0.0
  0
VERTEX
  5
11F
  8
LAYER_01
 10
1724.400917393201
 20
1073.80498067641
 30
0.0
  0
VERTEX
  5
120
  8
LAYER_01
 10
1740.906283079268
 20
1113.65245836764
 30
0.0
  0
SEQEND
  5
121
  8
LAYER_01
  0
POLYLINE
  5
122
  8
LAYER_01
 66
     1
 10
0.0
 20
0.0
 30
0.0
  0
VERTEX
  5
123
  8
LAYER_01
 10
2239.465407645499
 20
1588.869470928707
 30
0.0
  0
VERTEX
  5
124
  8
LAYER_01
 10
2199.617929954272
 20
1572.364105242641
 30
0.0
  0
VERTEX
  5
125
  8
LAYER_01
 10
2183.112564268204
 20
1532.516627551411
 30
0.0
  0
VERTEX
  5
126
  8
LAYER_01
 10
2199.617929954272
 20
1492.66914986018
 30
0.0
  0
VERTEX
  5
127
  8
LAYER_01
 10
2239.465407645499
 20
1476.163784174115
 30
0.0
  0
SEQEND
  5
128
  8
LAYER_01
  0
POLYLINE
  5
129
  8
LAYER_01
 66
     1
 10
0.0
 20
0.0
 30
0.0
  0
VERTEX
  5
12A
  8
LAYER_01
 10
1953.756740830701
 20
1761.872450988912
 30
0.0
  0
VERTEX
  5
12B
  8
LAYER_01
 10
1970.262106516768
 20
1722.024973297682
 30
0.0
  0
VERTEX
  5
12C
  8
LAYER_01
 10
2010.109584207998
 20
1705.519607611616
 30
0.0
  0
VERTEX
  5
12D
  8
LAYER_01
 10
2049.957061899228
 20
1722.024973297682
 30
0.0
  0
VERTEX
  5
12E
  8
LAYER_01
 10
2066.462427585294
 20
1761.872450988912
 30
0.0
  0
SEQEND
  5
12F
  8
LAYER_01
  0
POLYLINE
  5
130
  8
LAYER_01
 66
     1
 10
0.0
 20
0.0
 30
0.0
 70
     1
  0
VERTEX
  5
131
  8
LAYER_01
 10
2010.109584207998
 20
1458.54612100391
 30
0.0
  0
VERTEX
  5
132
  8
LAYER_01
 10
1977.804537420456
 20
1426.241074216368
 30
0.0
  0
VERTEX
  5
133
  8
LAYER_01
 10
1977.804537420456
 20
1394.542680009551
 30
0.0
  0
VERTEX
  5
134
  8
LAYER_01
 10
2010.109584207998
 20
1381.161491497054
 30
0.0
  0
VERTEX
  5
135
  8
LAYER_01
 10
2042.41463099554
 20
1394.542680009551
 30
0.0
  0
VERTEX
  5
136
  8
LAYER_01
 10
2042.41463099554
 20
1426.241074216368
 30
0.0
  0
SEQEND
  5
137
  8
LAYER_01
  0
POLYLINE
  5
138
  8
LAYER_01
 66
     1
 10
0.0
 20
0.0
 30
0.0
 70
     1
  0
VERTEX
  5
139
  8
LAYER_01
 10
1936.139077660497
 20
1532.516627551411
 30
0.0
  0
VERTEX
  5
13A
  8
LAYER_01
 10
1903.834030872955
 20
1564.821674338953
 30
0.0
  0
VERTEX
  5
13B
  8
LAYER_01
 10
1872.135636666138
 20
1564.821674338952
 30
0.0
  0
VERTEX
  5
13C
  8
LAYER_01
 10
1858.754448153641
 20
1532.516627551411
 30
0.0
  0
VERTEX
  5
13D
  8
LAYER_01
 10
1872.135636666138
 20
1500.21158076387
 30
0.0
  0
VERTEX
  5
13E
  8
LAYER_01
 10
1903.834030872955
 20
1500.211580763869
 30
0.0
  0
SEQEND
  5
13F
  8
LAYER_01
  0
POLYLINE
  5
140
  8
LAYER_01
 66
     1
 10
0.0
 20
0.0
 30
0.0
 70
     1
  0
VERTEX
  5
141
  8
LAYER_01
 10
2010.109584207998
 20
1486.830392251372
 30
0.0
  0
VERTEX
  5
142
  8
LAYER_01
 10
1996.7283956955
 20
1500.211580763869
 30
0.0
  0
VERTEX
  5
143
  8
LAYER_01
 10
1977.804537420456
 20
1500.211580763869
 30
0.0
  0
VERTEX
  5
144
  8
LAYER_01
 10
1977.804537420456
 20
1519.135439038914
 30
0.0
  0
VERTEX
  5
145
  8
LAYER_01
 10
1964.423348907959
 20
1532.516627551411
 30
0.0
  0
VERTEX
  5
146
  8
LAYER_01
 10
1977.804537420456
 20
1545.897816063908
 30
0.0
  0
VERTEX
  5
147
  8
LAYER_01
 10
1977.804537420456
 20
1564.821674338953
 30
0.0
  0
VERTEX
  5
148
  8
LAYER_01
 10
1996.7283956955
 20
1564.821674338953
 30
0.0
  0
VERTEX
  5
149
  8
LAYER_01
 10
2010.109584207998
 20
1578.20286285145
 30
0.0
  0
VERTEX
  5
14A
  8
LAYER_01
 10
2023.490772720495
 20
1564.821674338953
 30
0.0
  0
VERTEX
  5
14B
  8
LAYER_01
 10
2042.41463099554
 20
1564.821674338953
 30
0.0
  0
VERTEX
  5
14C
  8
LAYER_01
 10
2042.41463099554
 20
1545.897816063908
 30
0.0
  0
VERTEX
  5
14D
  8
LAYER_01
 10
2055.795819508036
 20
1532.516627551411
 30
0.0
  0
VERTEX
  5
14E
  8
LAYER_01
 10
2042.41463099554
 20
1519.135439038914
 30
0.0
  0
VERTEX
  5
14F
  8
LAYER_01
 10
2042.41463099554
 20
1500.211580763869
 30
0.0
  0
VERTEX
  5
150
  8
LAYER_01
 10
2023.490772720495
 20
1500.211580763869
 30
0.0
  0
SEQEND
  5
151
  8
LAYER_01
  0
POLYLINE
  5
152
  8
LAYER_01
 66
     1
 10
0.0
 20
0.0
 30
0.0
 70
     1
  0
VERTEX
  5
153
  8
LAYER_01
 10
2084.080090755499
 20
1532.516627551411
 30
0.0
  0
VERTEX
  5
154
  8
LAYER_01
 10
2116.38513754304
 20
1564.821674338953
 30
0.0
  0
VERTEX
  5
155
  8
LAYER_01
 10
2148.083531749858
 20
1564.821674338952
 30
0.0
  0
VERTEX
  5
156
  8
LAYER_01
 10
2161.464720262355
 20
1532.516627551411
 30
0.0
  0
VERTEX
  5
157
  8
LAYER_01
 10
2148.083531749858
 20
1500.21158076387
 30
0.0
  0
VERTEX
  5
158
  8
LAYER_01
 10
2116.38513754304
 20
1500.211580763869
 30
0.0
  0
SEQEND
  5
159
  8
LAYER_01
  0
POLYLINE
  5
15A
  8
LAYER_01
 66
     1
 10
0.0
 20
0.0
 30
0.0
 70
     1
  0
VERTEX
  5
15B
  8
LAYER_01
 10
2010.109584207998
 20
1606.487134098912
 30
0.0
  0
VERTEX
  5
15C
  8
LAYER_01
 10
1977.804537420456
 20
1638.792180886454
 30
0.0
  0
VERTEX
  5
15D
  8
LAYER_01
 10
1977.804537420456
 20
1670.490575093271
 30
0.0
  0
VERTEX
  5
15E
  8
LAYER_01
 10
2010.109584207998
 20
1683.871763605768
 30
0.0
  0
VERTEX
  5
15F
  8
LAYER_01
 10
2042.41463099554
 20
1670.490575093271
 30
0.0
  0
VERTEX
  5
160
  8
LAYER_01
 10
2042.41463099554
 20
1638.792180886454
 30
0.0
  0
SEQEND
  5
161
  8
LAYER_01
  0
POLYLINE
  5
162
  8
LAYER_01
 66
     1
 10
0.0
 20
0.0
 30
0.0
 70
     1
  0
VERTEX
  5
163
  8
LAYER_01
 10
1855.472957054404
 20
1423.566235697856
 30
0.0
  0
VERTEX
  5
164
  8
LAYER_01
 10
1887.778003841946
 20
1410.185047185359
 30
0.0
  0
VERTEX
  5
165
  8
LAYER_01
 10
1901.159192354443
 20
1377.880000397817
 30
0.0
  0
VERTEX
  5
166
  8
LAYER_01
 10
1878.745042858078
 20
1355.465850901453
 30
0.0
  0
VERTEX
  5
167
  8
LAYER_01
 10
1833.058807558039
 20
1355.465850901452
 30
0.0
  0
VERTEX
  5
168
  8
LAYER_01
 10
1833.058807558039
 20
1401.152086201491
 30
0.0
  0
SEQEND
  5
169
  8
LAYER_01
  0
POLYLINE
  5
16A
  8
LAYER_01
 66
     1
 10
0.0
 20
0.0
 30
0.0
 70
     1
  0
VERTEX
  5
16B
  8
LAYER_01
 10
1833.058807558038
 20
1324.82626387387
 30
0.0
  0
VERTEX
  5
16C
  8
LAYER_01
 10
1833.058807558039
 20
1335.465850901452
 30
0.0
  0
VERTEX
  5
16D
  8
LAYER_01
 10
1858.745042858077
 20
1335.465850901452
 30
0.0
  0
VERTEX
  5
16E
  8
LAYER_01
 10
1840.582131694266
 20
1317.302939737641
 30
0.0
  0
SEQEND
  5
16F
  8
LAYER_01
  0
POLYLINE
  5
170
  8
LAYER_01
 66
     1
 10
0.0
 20
0.0
 30
0.0
 70
     1
  0
VERTEX
  5
171
  8
LAYER_01
 10
1813.058807558039
 20
1381.152086201491
 30
0.0
  0
VERTEX
  5
172
  8
LAYER_01
 10
1813.058807558039
 20
1355.465850901452
 30
0.0
  0
VERTEX
  5
173
  8
LAYER_01
 10
1802.419220530455
 20
1355.465850901453
 30
0.0
  0
VERTEX
  5
174
  8
LAYER_01
 10
1794.895896394228
 20
1362.98917503768
 30
0.0
  0
SEQEND
  5
175
  8
LAYER_01
  0
POLYLINE
  5
176
  8
LAYER_01
 66
     1
 10
0.0
 20
0.0
 30
0.0
 70
     1
  0
VERTEX
  5
177
  8
LAYER_01
 10
1932.118302120417
 20
1500.21158076387
 30
0.0
  0
VERTEX
  5
178
  8
LAYER_01
 10
1950.281213284228
 20
1518.37449192768
 30
0.0
  0
VERTEX
  5
179
  8
LAYER_01
 10
1957.804537420456
 20
1510.851167791451
 30
0.0
  0
VERTEX
  5
17A
  8
LAYER_01
 10
1957.804537420456
 20
1500.211580763869
 30
0.0
  0
SEQEND
  5
17B
  8
LAYER_01
  0
POLYLINE
  5
17C
  8
LAYER_01
 66
     1
 10
0.0
 20
0.0
 30
0.0
 70
     1
  0
VERTEX
  5
17D
  8
LAYER_01
 10
1977.804537420456
 20
1454.52534546383
 30
0.0
  0
VERTEX
  5
17E
  8
LAYER_01
 10
1977.804537420456
 20
1480.211580763869
 30
0.0
  0
VERTEX
  5
17F
  8
LAYER_01
 10
1988.444124448039
 20
1480.211580763869
 30
0.0
  0
VERTEX
  5
180
  8
LAYER_01
 10
1995.967448584267
 20
1472.688256627641
 30
0.0
  0
SEQEND
  5
181
  8
LAYER_01
  0
POLYLINE
  5
182
  8
LAYER_01
 66
     1
 10
0.0
 20
0.0
 30
0.0
 70
     1
  0
VERTEX
  5
183
  8
LAYER_01
 10
1876.954081839022
 20
1436.316306482886
 30
0.0
  0
VERTEX
  5
184
  8
LAYER_01
 10
1850.780294349007
 20
1447.157844239922
 30
0.0
  0
VERTEX
  5
185
  8
LAYER_01
 10
1833.058807558039
 20
1429.436357448953
 30
0.0
  0
VERTEX
  5
186
  8
LAYER_01
 10
1833.058807558039
 20
1454.498324414156
 30
0.0
  0
VERTEX
  5
187
  8
LAYER_01
 10
1806.885020068025
 20
1465.339862171191
 30
0.0
  0
VERTEX
  5
188
  8
LAYER_01
 10
1835.90857575633
 20
1477.361812565578
 30
0.0
  0
VERTEX
  5
189
  8
LAYER_01
 10
1847.930526150717
 20
1506.385368253883
 30
0.0
  0
VERTEX
  5
18A
  8
LAYER_01
 10
1858.772063907752
 20
1480.211580763869
 30
0.0
  0
VERTEX
  5
18B
  8
LAYER_01
 10
1883.834030872955
 20
1480.211580763869
 30
0.0
  0
VERTEX
  5
18C
  8
LAYER_01
 10
1866.112544081987
 20
1462.490093972901
 30
0.0
  0
SEQEND
  5
18D
  8
LAYER_01
  0
POLYLINE
  5
18E
  8
LAYER_01
 66
     1
 10
0.0
 20
0.0
 30
0.0
 70
     1
  0
VERTEX
  5
18F
  8
LAYER_01
 10
1935.390387924091
 20
1412.111195967465
 30
0.0
  0
VERTEX
  5
190
  8
LAYER_01
 10
1903.085341136549
 20
1425.492384479963
 30
0.0
  0
VERTEX
  5
191
  8
LAYER_01
 10
1889.704152624052
 20
1457.797431267504
 30
0.0
  0
VERTEX
  5
192
  8
LAYER_01
 10
1912.118302120417
 20
1480.211580763869
 30
0.0
  0
VERTEX
  5
193
  8
LAYER_01
 10
1957.804537420456
 20
1480.211580763869
 30
0.0
  0
VERTEX
  5
194
  8
LAYER_01
 10
1957.804537420456
 20
1434.52534546383
 30
0.0
  0
SEQEND
  5
195
  8
LAYER_01
  0
POLYLINE
  5
196
  8
LAYER_01
 66
     1
 10
0.0
 20
0.0
 30
0.0
 70
     1
  0
VERTEX
  5
197
  8
LAYER_01
 10
1942.932818827777
 20
1329.292063411439
 30
0.0
  0
VERTEX
  5
198
  8
LAYER_01
 10
1932.091281070743
 20
1355.465850901452
 30
0.0
  0
VERTEX
  5
199
  8
LAYER_01
 10
1907.02931410554
 20
1355.465850901452
 30
0.0
  0
VERTEX
  5
19A
  8
LAYER_01
 10
1924.750800896508
 20
1373.18733769242
 30
0.0
  0
VERTEX
  5
19B
  8
LAYER_01
 10
1913.909263139473
 20
1399.361125182435
 30
0.0
  0
VERTEX
  5
19C
  8
LAYER_01
 10
1940.083050629487
 20
1388.5195874254
 30
0.0
  0
VERTEX
  5
19D
  8
LAYER_01
 10
1957.804537420456
 20
1406.241074216368
 30
0.0
  0
VERTEX
  5
19E
  8
LAYER_01
 10
1957.804537420456
 20
1381.179107251165
 30
0.0
  0
VERTEX
  5
19F
  8
LAYER_01
 10
1983.978324910471
 20
1370.337569494129
 30
0.0
  0
VERTEX
  5
1A0
  8
LAYER_01
 10
1954.954769222162
 20
1358.31561909974
 30
0.0
  0
SEQEND
  5
1A1
  8
LAYER_01
  0
POLYLINE
  5
1A2
  8
LAYER_01
 66
     1
 10
0.0
 20
0.0
 30
0.0
  0
VERTEX
  5
1A3
  8
LAYER_01
 10
2239.465407645499
 20
1377.131310661411
 30
0.0
  0
VERTEX
  5
1A4
  8
LAYER_01
 10
2207.160360857957
 20
1409.436357448953
 30
0.0
  0
VERTEX
  5
1A5
  8
LAYER_01
 10
2207.160360857957
 20
1441.134751655771
 30
0.0
  0
VERTEX
  5
1A6
  8
LAYER_01
 10
2239.465407645499
 20
1454.515940168268
 30
0.0
  0
SEQEND
  5
1A7
  8
LAYER_01
  0
POLYLINE
  5
1A8
  8
LAYER_01
 66
     1
 10
0.0
 20
0.0
 30
0.0
 70
     1
  0
VERTEX
  5
1A9
  8
LAYER_01
 10
2164.746211361592
 20
1423.566235697856
 30
0.0
  0
VERTEX
  5
1AA
  8
LAYER_01
 10
2132.44116457405
 20
1410.185047185359
 30
0.0
  0
VERTEX
  5
1AB
  8
LAYER_01
 10
2119.059976061553
 20
1377.880000397817
 30
0.0
  0
VERTEX
  5
1AC
  8
LAYER_01
 10
2141.474125557917
 20
1355.465850901453
 30
0.0
  0
VERTEX
  5
1AD
  8
LAYER_01
 10
2187.160360857957
 20
1355.465850901452
 30
0.0
  0
VERTEX
  5
1AE
  8
LAYER_01
 10
2187.160360857957
 20
1401.152086201491
 30
0.0
  0
SEQEND
  5
1AF
  8
LAYER_01
  0
POLYLINE
  5
1B0
  8
LAYER_01
 66
     1
 10
0.0
 20
0.0
 30
0.0
 70
     1
  0
VERTEX
  5
1B1
  8
LAYER_01
 10
2187.160360857957
 20
1324.82626387387
 30
0.0
  0
VERTEX
  5
1B2
  8
LAYER_01
 10
2187.160360857957
 20
1335.465850901452
 30
0.0
  0
VERTEX
  5
1B3
  8
LAYER_01
 10
2161.474125557919
 20
1335.465850901452
 30
0.0
  0
VERTEX
  5
1B4
  8
LAYER_01
 10
2179.63703672173
 20
1317.302939737641
 30
0.0
  0
SEQEND
  5
1B5
  8
LAYER_01
  0
POLYLINE
  5
1B6
  8
LAYER_01
 66
     1
 10
0.0
 20
0.0
 30
0.0
 70
     1
  0
VERTEX
  5
1B7
  8
LAYER_01
 10
2207.160360857957
 20
1381.152086201491
 30
0.0
  0
VERTEX
  5
1B8
  8
LAYER_01
 10
2207.160360857957
 20
1355.465850901452
 30
0.0
  0
VERTEX
  5
1B9
  8
LAYER_01
 10
2217.79994788554
 20
1355.465850901453
 30
0.0
  0
VERTEX
  5
1BA
  8
LAYER_01
 10
2225.323272021768
 20
1362.98917503768
 30
0.0
  0
SEQEND
  5
1BB
  8
LAYER_01
  0
POLYLINE
  5
1BC
  8
LAYER_01
 66
     1
 10
0.0
 20
0.0
 30
0.0
 70
     1
  0
VERTEX
  5
1BD
  8
LAYER_01
 10
2088.100866295579
 20
1500.21158076387
 30
0.0
  0
VERTEX
  5
1BE
  8
LAYER_01
 10
2069.937955131768
 20
1518.37449192768
 30
0.0
  0
VERTEX
  5
1BF
  8
LAYER_01
 10
2062.414630995539
 20
1510.851167791451
 30
0.0
  0
VERTEX
  5
1C0
  8
LAYER_01
 10
2062.41463099554
 20
1500.211580763869
 30
0.0
  0
SEQEND
  5
1C1
  8
LAYER_01
  0
POLYLINE
  5
1C2
  8
LAYER_01
 66
     1
 10
0.0
 20
0.0
 30
0.0
 70
     1
  0
VERTEX
  5
1C3
  8
LAYER_01
 10
2042.41463099554
 20
1454.52534546383
 30
0.0
  0
VERTEX
  5
1C4
  8
LAYER_01
 10
2042.41463099554
 20
1480.211580763869
 30
0.0
  0
VERTEX
  5
1C5
  8
LAYER_01
 10
2031.775043967957
 20
1480.211580763869
 30
0.0
  0
VERTEX
  5
1C6
  8
LAYER_01
 10
2024.251719831729
 20
1472.688256627641
 30
0.0
  0
SEQEND
  5
1C7
  8
LAYER_01
  0
POLYLINE
  5
1C8
  8
LAYER_01
 66
     1
 10
0.0
 20
0.0
 30
0.0
 70
     1
  0
VERTEX
  5
1C9
  8
LAYER_01
 10
2143.265086576974
 20
1436.316306482886
 30
0.0
  0
VERTEX
  5
1CA
  8
LAYER_01
 10
2169.438874066988
 20
1447.157844239922
 30
0.0
  0
VERTEX
  5
1CB
  8
LAYER_01
 10
2187.160360857957
 20
1429.436357448953
 30
0.0
  0
VERTEX
  5
1CC
  8
LAYER_01
 10
2187.160360857957
 20
1454.498324414156
 30
0.0
  0
VERTEX
  5
1CD
  8
LAYER_01
 10
2213.334148347971
 20
1465.339862171191
 30
0.0
  0
VERTEX
  5
1CE
  8
LAYER_01
 10
2184.310592659666
 20
1477.361812565578
 30
0.0
  0
VERTEX
  5
1CF
  8
LAYER_01
 10
2172.288642265279
 20
1506.385368253883
 30
0.0
  0
VERTEX
  5
1D0
  8
LAYER_01
 10
2161.447104508244
 20
1480.211580763869
 30
0.0
  0
VERTEX
  5
1D1
  8
LAYER_01
 10
2136.38513754304
 20
1480.211580763869
 30
0.0
  0
VERTEX
  5
1D2
  8
LAYER_01
 10
2154.106624334009
 20
1462.490093972901
 30
0.0
  0
SEQEND
  5
1D3
  8
LAYER_01
  0
POLYLINE
  5
1D4
  8
LAYER_01
 66
     1
 10
0.0
 20
0.0
 30
0.0
 70
     1
  0
VERTEX
  5
1D5
  8
LAYER_01
 10
2084.828780491905
 20
1412.111195967465
 30
0.0
  0
VERTEX
  5
1D6
  8
LAYER_01
 10
2117.133827279446
 20
1425.492384479963
 30
0.0
  0
VERTEX
  5
1D7
  8
LAYER_01
 10
2130.515015791944
 20
1457.797431267504
 30
0.0
  0
VERTEX
  5
1D8
  8
LAYER_01
 10
2108.100866295579
 20
1480.211580763869
 30
0.0
  0
VERTEX
  5
1D9
  8
LAYER_01
 10
2062.414630995539
 20
1480.211580763869
 30
0.0
  0
VERTEX
  5
1DA
  8
LAYER_01
 10
2062.414630995539
 20
1434.52534546383
 30
0.0
  0
SEQEND
  5
1DB
  8
LAYER_01
  0
POLYLINE
  5
1DC
  8
LAYER_01
 66
     1
 10
0.0
 20
0.0
 30
0.0
 70
     1
  0
VERTEX
  5
1DD
  8
LAYER_01
 10
2077.286349588218
 20
1329.292063411439
 30
0.0
  0
VERTEX
  5
1DE
  8
LAYER_01
 10
2088.127887345253
 20
1355.465850901452
 30
0.0
  0
VERTEX
  5
1DF
  8
LAYER_01
 10
2113.189854310456
 20
1355.465850901452
 30
0.0
  0
VERTEX
  5
1E0
  8
LAYER_01
 10
2095.468367519487
 20
1373.18733769242
 30
0.0
  0
VERTEX
  5
1E1
  8
LAYER_01
 10
2106.309905276523
 20
1399.361125182435
 30
0.0
  0
VERTEX
  5
1E2
  8
LAYER_01
 10
2080.136117786508
 20
1388.5195874254
 30
0.0
  0
VERTEX
  5
1E3
  8
LAYER_01
 10
2062.41463099554
 20
1406.241074216368
 30
0.0
  0
VERTEX
  5
1E4
  8
LAYER_01
 10
2062.41463099554
 20
1381.179107251165
 30
0.0
  0
VERTEX
  5
1E5
  8
LAYER_01
 10
2036.240843505524
 20
1370.337569494129
 30
0.0
  0
VERTEX
  5
1E6
  8
LAYER_01
 10
2065.264399193834
 20
1358.31561909974
 30
0.0
  0
SEQEND
  5
1E7
  8
LAYER_01
  0
POLYLINE
  5
1E8
  8
LAYER_01
 66
     1
 10
0.0
 20
0.0
 30
0.0
  0
VERTEX
  5
1E9
  8
LAYER_01
 10
1932.108896824854
 20
1761.872450988912
 30
0.0
  0
VERTEX
  5
1EA
  8
LAYER_01
 10
1918.727708312356
 20
1729.56740420137
 30
0.0
  0
VERTEX
  5
1EB
  8
LAYER_01
 10
1887.029314105539
 20
1729.56740420137
 30
0.0
  0
VERTEX
  5
1EC
  8
LAYER_01
 10
1854.724267317997
 20
1761.872450988912
 30
0.0
  0
SEQEND
  5
1ED
  8
LAYER_01
  0
POLYLINE
  5
1EE
  8
LAYER_01
 66
     1
 10
0.0
 20
0.0
 30
0.0
 70
     1
  0
VERTEX
  5
1EF
  8
LAYER_01
 10
1855.472957054404
 20
1641.467019404966
 30
0.0
  0
VERTEX
  5
1F0
  8
LAYER_01
 10
1887.778003841946
 20
1654.848207917463
 30
0.0
  0
VERTEX
  5
1F1
  8
LAYER_01
 10
1901.159192354443
 20
1687.153254705005
 30
0.0
  0
VERTEX
  5
1F2
  8
LAYER_01
 10
1878.745042858078
 20
1709.567404201369
 30
0.0
  0
VERTEX
  5
1F3
  8
LAYER_01
 10
1833.058807558039
 20
1709.56740420137
 30
0.0
  0
VERTEX
  5
1F4
  8
LAYER_01
 10
1833.058807558039
 20
1663.881168901331
 30
0.0
  0
SEQEND
  5
1F5
  8
LAYER_01
  0
POLYLINE
  5
1F6
  8
LAYER_01
 66
     1
 10
0.0
 20
0.0
 30
0.0
 70
     1
  0
VERTEX
  5
1F7
  8
LAYER_01
 10
1833.058807558038
 20
1740.206991228952
 30
0.0
  0
VERTEX
  5
1F8
  8
LAYER_01
 10
1833.058807558039
 20
1729.56740420137
 30
0.0
  0
VERTEX
  5
1F9
  8
LAYER_01
 10
1858.745042858077
 20
1729.56740420137
 30
0.0
  0
VERTEX
  5
1FA
  8
LAYER_01
 10
1840.582131694266
 20
1747.730315365181
 30
0.0
  0
SEQEND
  5
1FB
  8
LAYER_01
  0
POLYLINE
  5
1FC
  8
LAYER_01
 66
     1
 10
0.0
 20
0.0
 30
0.0
 70
     1
  0
VERTEX
  5
1FD
  8
LAYER_01
 10
1813.058807558039
 20
1683.881168901331
 30
0.0
  0
VERTEX
  5
1FE
  8
LAYER_01
 10
1813.058807558039
 20
1709.56740420137
 30
0.0
  0
VERTEX
  5
1FF
  8
LAYER_01
 10
1802.419220530455
 20
1709.567404201369
 30
0.0
  0
VERTEX
  5
200
  8
LAYER_01
 10
1794.895896394228
 20
1702.044080065142
 30
0.0
  0
SEQEND
  5
201
  8
LAYER_01
  0
POLYLINE
  5
202
  8
LAYER_01
 66
     1
 10
0.0
 20
0.0
 30
0.0
 70
     1
  0
VERTEX
  5
203
  8
LAYER_01
 10
1932.118302120417
 20
1564.821674338952
 30
0.0
  0
VERTEX
  5
204
  8
LAYER_01
 10
1950.281213284228
 20
1546.658763175142
 30
0.0
  0
VERTEX
  5
205
  8
LAYER_01
 10
1957.804537420456
 20
1554.18208731137
 30
0.0
  0
VERTEX
  5
206
  8
LAYER_01
 10
1957.804537420456
 20
1564.821674338953
 30
0.0
  0
SEQEND
  5
207
  8
LAYER_01
  0
POLYLINE
  5
208
  8
LAYER_01
 66
     1
 10
0.0
 20
0.0
 30
0.0
 70
     1
  0
VERTEX
  5
209
  8
LAYER_01
 10
1977.804537420456
 20
1610.507909638991
 30
0.0
  0
VERTEX
  5
20A
  8
LAYER_01
 10
1977.804537420456
 20
1584.821674338953
 30
0.0
  0
VERTEX
  5
20B
  8
LAYER_01
 10
1988.444124448039
 20
1584.821674338953
 30
0.0
  0
VERTEX
  5
20C
  8
LAYER_01
 10
1995.967448584267
 20
1592.344998475181
 30
0.0
  0
SEQEND
  5
20D
  8
LAYER_01
  0
POLYLINE
  5
20E
  8
LAYER_01
 66
     1
 10
0.0
 20
0.0
 30
0.0
 70
     1
  0
VERTEX
  5
20F
  8
LAYER_01
 10
1876.954081839022
 20
1628.716948619935
 30
0.0
  0
VERTEX
  5
210
  8
LAYER_01
 10
1850.780294349007
 20
1617.8754108629
 30
0.0
  0
VERTEX
  5
211
  8
LAYER_01
 10
1833.058807558039
 20
1635.596897653869
 30
0.0
  0
VERTEX
  5
212
  8
LAYER_01
 10
1833.058807558039
 20
1610.534930688666
 30
0.0
  0
VERTEX
  5
213
  8
LAYER_01
 10
1806.885020068025
 20
1599.693392931631
 30
0.0
  0
VERTEX
  5
214
  8
LAYER_01
 10
1835.90857575633
 20
1587.671442537244
 30
0.0
  0
VERTEX
  5
215
  8
LAYER_01
 10
1847.930526150717
 20
1558.647886848939
 30
0.0
  0
VERTEX
  5
216
  8
LAYER_01
 10
1858.772063907752
 20
1584.821674338953
 30
0.0
  0
VERTEX
  5
217
  8
LAYER_01
 10
1883.834030872955
 20
1584.821674338953
 30
0.0
  0
VERTEX
  5
218
  8
LAYER_01
 10
1866.112544081987
 20
1602.543161129921
 30
0.0
  0
SEQEND
  5
219
  8
LAYER_01
  0
POLYLINE
  5
21A
  8
LAYER_01
 66
     1
 10
0.0
 20
0.0
 30
0.0
 70
     1
  0
VERTEX
  5
21B
  8
LAYER_01
 10
1935.390387924091
 20
1652.922059135356
 30
0.0
  0
VERTEX
  5
21C
  8
LAYER_01
 10
1903.085341136549
 20
1639.540870622859
 30
0.0
  0
VERTEX
  5
21D
  8
LAYER_01
 10
1889.704152624052
 20
1607.235823835318
 30
0.0
  0
VERTEX
  5
21E
  8
LAYER_01
 10
1912.118302120417
 20
1584.821674338953
 30
0.0
  0
VERTEX
  5
21F
  8
LAYER_01
 10
1957.804537420456
 20
1584.821674338953
 30
0.0
  0
VERTEX
  5
220
  8
LAYER_01
 10
1957.804537420456
 20
1630.507909638991
 30
0.0
  0
SEQEND
  5
221
  8
LAYER_01
  0
POLYLINE
  5
222
  8
LAYER_01
 66
     1
 10
0.0
 20
0.0
 30
0.0
 70
     1
  0
VERTEX
  5
223
  8
LAYER_01
 10
1942.932818827777
 20
1735.741191691383
 30
0.0
  0
VERTEX
  5
224
  8
LAYER_01
 10
1932.091281070743
 20
1709.56740420137
 30
0.0
  0
VERTEX
  5
225
  8
LAYER_01
 10
1907.02931410554
 20
1709.56740420137
 30
0.0
  0
VERTEX
  5
226
  8
LAYER_01
 10
1924.750800896508
 20
1691.845917410401
 30
0.0
  0
VERTEX
  5
227
  8
LAYER_01
 10
1913.909263139473
 20
1665.672129920387
 30
0.0
  0
VERTEX
  5
228
  8
LAYER_01
 10
1940.083050629487
 20
1676.513667677422
 30
0.0
  0
VERTEX
  5
229
  8
LAYER_01
 10
1957.804537420456
 20
1658.792180886453
 30
0.0
  0
VERTEX
  5
22A
  8
LAYER_01
 10
1957.804537420456
 20
1683.854147851657
 30
0.0
  0
VERTEX
  5
22B
  8
LAYER_01
 10
1983.978324910471
 20
1694.695685608693
 30
0.0
  0
VERTEX
  5
22C
  8
LAYER_01
 10
1954.954769222162
 20
1706.717636003082
 30
0.0
  0
SEQEND
  5
22D
  8
LAYER_01
  0
POLYLINE
  5
22E
  8
LAYER_01
 66
     1
 10
0.0
 20
0.0
 30
0.0
  0
VERTEX
  5
22F
  8
LAYER_01
 10
2193.77917234546
 20
1761.872450988912
 30
0.0
  0
VERTEX
  5
230
  8
LAYER_01
 10
2207.160360857957
 20
1748.491262476414
 30
0.0
  0
VERTEX
  5
231
  8
LAYER_01
 10
2207.160360857957
 20
1729.56740420137
 30
0.0
  0
VERTEX
  5
232
  8
LAYER_01
 10
2226.084219133002
 20
1729.56740420137
 30
0.0
  0
VERTEX
  5
233
  8
LAYER_01
 10
2239.465407645499
 20
1716.186215688872
 30
0.0
  0
SEQEND
  5
234
  8
LAYER_01
  0
POLYLINE
  5
235
  8
LAYER_01
 66
     1
 10
0.0
 20
0.0
 30
0.0
  0
VERTEX
  5
236
  8
LAYER_01
 10
2088.110271591142
 20
1761.872450988912
 30
0.0
  0
VERTEX
  5
237
  8
LAYER_01
 10
2101.491460103639
 20
1729.56740420137
 30
0.0
  0
VERTEX
  5
238
  8
LAYER_01
 10
2133.189854310457
 20
1729.56740420137
 30
0.0
  0
VERTEX
  5
239
  8
LAYER_01
 10
2165.494901097999
 20
1761.872450988912
 30
0.0
  0
SEQEND
  5
23A
  8
LAYER_01
  0
POLYLINE
  5
23B
  8
LAYER_01
 66
     1
 10
0.0
 20
0.0
 30
0.0
  0
VERTEX
  5
23C
  8
LAYER_01
 10
2239.465407645499
 20
1687.901944441411
 30
0.0
  0
VERTEX
  5
23D
  8
LAYER_01
 10
2207.160360857957
 20
1655.596897653868
 30
0.0
  0
VERTEX
  5
23E
  8
LAYER_01
 10
2207.160360857957
 20
1623.898503447051
 30
0.0
  0
VERTEX
  5
23F
  8
LAYER_01
 10
2239.465407645499
 20
1610.517314934554
 30
0.0
  0
SEQEND
  5
240
  8
LAYER_01
  0
POLYLINE
  5
241
  8
LAYER_01
 66
     1
 10
0.0
 20
0.0
 30
0.0
 70
     1
  0
VERTEX
  5
242
  8
LAYER_01
 10
2164.746211361592
 20
1641.467019404966
 30
0.0
  0
VERTEX
  5
243
  8
LAYER_01
 10
2132.44116457405
 20
1654.848207917463
 30
0.0
  0
VERTEX
  5
244
  8
LAYER_01
 10
2119.059976061553
 20
1687.153254705005
 30
0.0
  0
VERTEX
  5
245
  8
LAYER_01
 10
2141.474125557917
 20
1709.567404201369
 30
0.0
  0
VERTEX
  5
246
  8
LAYER_01
 10
2187.160360857957
 20
1709.56740420137
 30
0.0
  0
VERTEX
  5
247
  8
LAYER_01
 10
2187.160360857957
 20
1663.881168901331
 30
0.0
  0
SEQEND
  5
248
  8
LAYER_01
  0
POLYLINE
  5
249
  8
LAYER_01
 66
     1
 10
0.0
 20
0.0
 30
0.0
 70
     1
  0
VERTEX
  5
24A
  8
LAYER_01
 10
2187.160360857957
 20
1740.206991228952
 30
0.0
  0
VERTEX
  5
24B
  8
LAYER_01
 10
2187.160360857957
 20
1729.56740420137
 30
0.0
  0
VERTEX
  5
24C
  8
LAYER_01
 10
2161.474125557919
 20
1729.56740420137
 30
0.0
  0
VERTEX
  5
24D
  8
LAYER_01
 10
2179.63703672173
 20
1747.730315365181
 30
0.0
  0
SEQEND
  5
24E
  8
LAYER_01
  0
POLYLINE
  5
24F
  8
LAYER_01
 66
     1
 10
0.0
 20
0.0
 30
0.0
 70
     1
  0
VERTEX
  5
250
  8
LAYER_01
 10
2207.160360857957
 20
1683.881168901331
 30
0.0
  0
VERTEX
  5
251
  8
LAYER_01
 10
2207.160360857957
 20
1709.56740420137
 30
0.0
  0
VERTEX
  5
252
  8
LAYER_01
 10
2217.79994788554
 20
1709.567404201369
 30
0.0
  0
VERTEX
  5
253
  8
LAYER_01
 10
2225.323272021768
 20
1702.044080065142
 30
0.0
  0
SEQEND
  5
254
  8
LAYER_01
  0
POLYLINE
  5
255
  8
LAYER_01
 66
     1
 10
0.0
 20
0.0
 30
0.0
 70
     1
  0
VERTEX
  5
256
  8
LAYER_01
 10
2088.100866295579
 20
1564.821674338952
 30
0.0
  0
VERTEX
  5
257
  8
LAYER_01
 10
2069.937955131768
 20
1546.658763175142
 30
0.0
  0
VERTEX
  5
258
  8
LAYER_01
 10
2062.414630995539
 20
1554.18208731137
 30
0.0
  0
VERTEX
  5
259
  8
LAYER_01
 10
2062.41463099554
 20
1564.821674338953
 30
0.0
  0
SEQEND
  5
25A
  8
LAYER_01
  0
POLYLINE
  5
25B
  8
LAYER_01
 66
     1
 10
0.0
 20
0.0
 30
0.0
 70
     1
  0
VERTEX
  5
25C
  8
LAYER_01
 10
2042.41463099554
 20
1610.507909638991
 30
0.0
  0
VERTEX
  5
25D
  8
LAYER_01
 10
2042.41463099554
 20
1584.821674338953
 30
0.0
  0
VERTEX
  5
25E
  8
LAYER_01
 10
2031.775043967957
 20
1584.821674338953
 30
0.0
  0
VERTEX
  5
25F
  8
LAYER_01
 10
2024.251719831729
 20
1592.344998475181
 30
0.0
  0
SEQEND
  5
260
  8
LAYER_01
  0
POLYLINE
  5
261
  8
LAYER_01
 66
     1
 10
0.0
 20
0.0
 30
0.0
 70
     1
  0
VERTEX
  5
262
  8
LAYER_01
 10
2143.265086576974
 20
1628.716948619935
 30
0.0
  0
VERTEX
  5
263
  8
LAYER_01
 10
2169.438874066988
 20
1617.8754108629
 30
0.0
  0
VERTEX
  5
264
  8
LAYER_01
 10
2187.160360857957
 20
1635.596897653869
 30
0.0
  0
VERTEX
  5
265
  8
LAYER_01
 10
2187.160360857957
 20
1610.534930688666
 30
0.0
  0
VERTEX
  5
266
  8
LAYER_01
 10
2213.334148347971
 20
1599.693392931631
 30
0.0
  0
VERTEX
  5
267
  8
LAYER_01
 10
2184.310592659666
 20
1587.671442537244
 30
0.0
  0
VERTEX
  5
268
  8
LAYER_01
 10
2172.288642265279
 20
1558.647886848939
 30
0.0
  0
VERTEX
  5
269
  8
LAYER_01
 10
2161.447104508244
 20
1584.821674338953
 30
0.0
  0
VERTEX
  5
26A
  8
LAYER_01
 10
2136.38513754304
 20
1584.821674338953
 30
0.0
  0
VERTEX
  5
26B
  8
LAYER_01
 10
2154.106624334009
 20
1602.543161129921
 30
0.0
  0
SEQEND
  5
26C
  8
LAYER_01
  0
POLYLINE
  5
26D
  8
LAYER_01
 66
     1
 10
0.0
 20
0.0
 30
0.0
 70
     1
  0
VERTEX
  5
26E
  8
LAYER_01
 10
2084.828780491905
 20
1652.922059135356
 30
0.0
  0
VERTEX
  5
26F
  8
LAYER_01
 10
2117.133827279446
 20
1639.540870622859
 30
0.0
  0
VERTEX
  5
270
  8
LAYER_01
 10
2130.515015791944
 20
1607.235823835318
 30
0.0
  0
VERTEX
  5
271
  8
LAYER_01
 10
2108.100866295579
 20
1584.821674338953
 30
0.0
  0
VERTEX
  5
272
  8
LAYER_01
 10
2062.414630995539
 20
1584.821674338953
 30
0.0
  0
VERTEX
  5
273
  8
LAYER_01
 10
2062.414630995539
 20
1630.507909638991
 30
0.0
  0
SEQEND
  5
274
  8
LAYER_01
  0
POLYLINE
  5
275
  8
LAYER_01
 66
     1
 10
0.0
 20
0.0
 30
0.0
 70
     1
  0
VERTEX
  5
276
  8
LAYER_01
 10
2077.286349588218
 20
1735.741191691383
 30
0.0
  0
VERTEX
  5
277
  8
LAYER_01
 10
2088.127887345253
 20
1709.56740420137
 30
0.0
  0
VERTEX
  5
278
  8
LAYER_01
 10
2113.189854310456
 20
1709.56740420137
 30
0.0
  0
VERTEX
  5
279
  8
LAYER_01
 10
2095.468367519487
 20
1691.845917410401
 30
0.0
  0
VERTEX
  5
27A
  8
LAYER_01
 10
2106.309905276523
 20
1665.672129920387
 30
0.0
  0
VERTEX
  5
27B
  8
LAYER_01
 10
2080.136117786508
 20
1676.513667677422
 30
0.0
  0
VERTEX
  5
27C
  8
LAYER_01
 10
2062.41463099554
 20
1658.792180886453
 30
0.0
  0
VERTEX
  5
27D
  8
LAYER_01
 10
2062.41463099554
 20
1683.854147851657
 30
0.0
  0
VERTEX
  5
27E
  8
LAYER_01
 10
2036.240843505524
 20
1694.695685608693
 30
0.0
  0
VERTEX
  5
27F
  8
LAYER_01
 10
2065.264399193834
 20
1706.717636003082
 30
0.0
  0
SEQEND
  5
280
  8
LAYER_01
  0
POLYLINE
  5
281
  8
LAYER_01
 66
     1
 10
0.0
 20
0.0
 30
0.0
  0
VERTEX
  5
282
  8
LAYER_01
 10
1322.042113895493
 20
1588.869470928707
 30
0.0
  0
VERTEX
  5
283
  8
LAYER_01
 10
1361.889591586721
 20
1572.364105242641
 30
0.0
  0
VERTEX
  5
284
  8
LAYER_01
 10
1378.394957272788
 20
1532.516627551411
 30
0.0
  0
VERTEX
  5
285
  8
LAYER_01
 10
1361.889591586721
 20
1492.66914986018
 30
0.0
  0
VERTEX
  5
286
  8
LAYER_01
 10
1322.042113895493
 20
1476.163784174115
 30
0.0
  0
SEQEND
  5
287
  8
LAYER_01
  0
POLYLINE
  5
288
  8
LAYER_01
 66
     1
 10
0.0
 20
0.0
 30
0.0
  0
VERTEX
  5
289
  8
LAYER_01
 10
1495.045093955698
 20
1761.872450988912
 30
0.0
  0
VERTEX
  5
28A
  8
LAYER_01
 10
1511.550459641765
 20
1722.024973297682
 30
0.0
  0
VERTEX
  5
28B
  8
LAYER_01
 10
1551.397937332995
 20
1705.519607611616
 30
0.0
  0
VERTEX
  5
28C
  8
LAYER_01
 10
1591.245415024225
 20
1722.024973297682
 30
0.0
  0
VERTEX
  5
28D
  8
LAYER_01
 10
1607.750780710291
 20
1761.872450988912
 30
0.0
  0
SEQEND
  5
28E
  8
LAYER_01
  0
POLYLINE
  5
28F
  8
LAYER_01
 66
     1
 10
0.0
 20
0.0
 30
0.0
 70
     1
  0
VERTEX
  5
290
  8
LAYER_01
 10
1551.397937332994
 20
1458.54612100391
 30
0.0
  0
VERTEX
  5
291
  8
LAYER_01
 10
1519.092890545453
 20
1426.241074216368
 30
0.0
  0
VERTEX
  5
292
  8
LAYER_01
 10
1519.092890545453
 20
1394.542680009551
 30
0.0
  0
VERTEX
  5
293
  8
LAYER_01
 10
1551.397937332995
 20
1381.161491497054
 30
0.0
  0
VERTEX
  5
294
  8
LAYER_01
 10
1583.702984120537
 20
1394.542680009551
 30
0.0
  0
VERTEX
  5
295
  8
LAYER_01
 10
1583.702984120537
 20
1426.241074216368
 30
0.0
  0
SEQEND
  5
296
  8
LAYER_01
  0
POLYLINE
  5
297
  8
LAYER_01
 66
     1
 10
0.0
 20
0.0
 30
0.0
 70
     1
  0
VERTEX
  5
298
  8
LAYER_01
 10
1477.427430785494
 20
1532.516627551411
 30
0.0
  0
VERTEX
  5
299
  8
LAYER_01
 10
1445.122383997952
 20
1564.821674338953
 30
0.0
  0
VERTEX
  5
29A
  8
LAYER_01
 10
1413.423989791135
 20
1564.821674338952
 30
0.0
  0
VERTEX
  5
29B
  8
LAYER_01
 10
1400.042801278638
 20
1532.516627551411
 30
0.0
  0
VERTEX
  5
29C
  8
LAYER_01
 10
1413.423989791135
 20
1500.21158076387
 30
0.0
  0
VERTEX
  5
29D
  8
LAYER_01
 10
1445.122383997952
 20
1500.211580763869
 30
0.0
  0
SEQEND
  5
29E
  8
LAYER_01
  0
POLYLINE
  5
29F
  8
LAYER_01
 66
     1
 10
0.0
 20
0.0
 30
0.0
 70
     1
  0
VERTEX
  5
2A0
  8
LAYER_01
 10
1551.397937332994
 20
1486.830392251372
 30
0.0
  0
VERTEX
  5
2A1
  8
LAYER_01
 10
1538.016748820497
 20
1500.211580763869
 30
0.0
  0
VERTEX
  5
2A2
  8
LAYER_01
 10
1519.092890545453
 20
1500.211580763869
 30
0.0
  0
VERTEX
  5
2A3
  8
LAYER_01
 10
1519.092890545453
 20
1519.135439038914
 30
0.0
  0
VERTEX
  5
2A4
  8
LAYER_01
 10
1505.711702032956
 20
1532.516627551411
 30
0.0
  0
VERTEX
  5
2A5
  8
LAYER_01
 10
1519.092890545453
 20
1545.897816063908
 30
0.0
  0
VERTEX
  5
2A6
  8
LAYER_01
 10
1519.092890545453
 20
1564.821674338953
 30
0.0
  0
VERTEX
  5
2A7
  8
LAYER_01
 10
1538.016748820497
 20
1564.821674338953
 30
0.0
  0
VERTEX
  5
2A8
  8
LAYER_01
 10
1551.397937332995
 20
1578.20286285145
 30
0.0
  0
VERTEX
  5
2A9
  8
LAYER_01
 10
1564.779125845492
 20
1564.821674338953
 30
0.0
  0
VERTEX
  5
2AA
  8
LAYER_01
 10
1583.702984120536
 20
1564.821674338953
 30
0.0
  0
VERTEX
  5
2AB
  8
LAYER_01
 10
1583.702984120536
 20
1545.897816063908
 30
0.0
  0
VERTEX
  5
2AC
  8
LAYER_01
 10
1597.084172633033
 20
1532.516627551411
 30
0.0
  0
VERTEX
  5
2AD
  8
LAYER_01
 10
1583.702984120536
 20
1519.135439038914
 30
0.0
  0
VERTEX
  5
2AE
  8
LAYER_01
 10
1583.702984120536
 20
1500.211580763869
 30
0.0
  0
VERTEX
  5
2AF
  8
LAYER_01
 10
1564.779125845492
 20
1500.211580763869
 30
0.0
  0
SEQEND
  5
2B0
  8
LAYER_01
  0
POLYLINE
  5
2B1
  8
LAYER_01
 66
     1
 10
0.0
 20
0.0
 30
0.0
 70
     1
  0
VERTEX
  5
2B2
  8
LAYER_01
 10
1625.368443880495
 20
1532.516627551411
 30
0.0
  0
VERTEX
  5
2B3
  8
LAYER_01
 10
1657.673490668037
 20
1564.821674338953
 30
0.0
  0
VERTEX
  5
2B4
  8
LAYER_01
 10
1689.371884874854
 20
1564.821674338952
 30
0.0
  0
VERTEX
  5
2B5
  8
LAYER_01
 10
1702.753073387351
 20
1532.516627551411
 30
0.0
  0
VERTEX
  5
2B6
  8
LAYER_01
 10
1689.371884874854
 20
1500.21158076387
 30
0.0
  0
VERTEX
  5
2B7
  8
LAYER_01
 10
1657.673490668037
 20
1500.211580763869
 30
0.0
  0
SEQEND
  5
2B8
  8
LAYER_01
  0
POLYLINE
  5
2B9
  8
LAYER_01
 66
     1
 10
0.0
 20
0.0
 30
0.0
 70
     1
  0
VERTEX
  5
2BA
  8
LAYER_01
 10
1551.397937332994
 20
1606.487134098912
 30
0.0
  0
VERTEX
  5
2BB
  8
LAYER_01
 10
1519.092890545453
 20
1638.792180886454
 30
0.0
  0
VERTEX
  5
2BC
  8
LAYER_01
 10
1519.092890545453
 20
1670.490575093271
 30
0.0
  0
VERTEX
  5
2BD
  8
LAYER_01
 10
1551.397937332995
 20
1683.871763605768
 30
0.0
  0
VERTEX
  5
2BE
  8
LAYER_01
 10
1583.702984120537
 20
1670.490575093271
 30
0.0
  0
VERTEX
  5
2BF
  8
LAYER_01
 10
1583.702984120537
 20
1638.792180886454
 30
0.0
  0
SEQEND
  5
2C0
  8
LAYER_01
  0
POLYLINE
  5
2C1
  8
LAYER_01
 66
     1
 10
0.0
 20
0.0
 30
0.0
  0
VERTEX
  5
2C2
  8
LAYER_01
 10
1322.042113895493
 20
1377.131310661411
 30
0.0
  0
VERTEX
  5
2C3
  8
LAYER_01
 10
1354.347160683035
 20
1409.436357448953
 30
0.0
  0
VERTEX
  5
2C4
  8
LAYER_01
 10
1354.347160683035
 20
1441.134751655771
 30
0.0
  0
VERTEX
  5
2C5
  8
LAYER_01
 10
1322.042113895493
 20
1454.515940168268
 30
0.0
  0
SEQEND
  5
2C6
  8
LAYER_01
  0
POLYLINE
  5
2C7
  8
LAYER_01
 66
     1
 10
0.0
 20
0.0
 30
0.0
 70
     1
  0
VERTEX
  5
2C8
  8
LAYER_01
 10
1396.7613101794
 20
1423.566235697856
 30
0.0
  0
VERTEX
  5
2C9
  8
LAYER_01
 10
1429.066356966942
 20
1410.185047185359
 30
0.0
  0
VERTEX
  5
2CA
  8
LAYER_01
 10
1442.44754547944
 20
1377.880000397817
 30
0.0
  0
VERTEX
  5
2CB
  8
LAYER_01
 10
1420.033395983075
 20
1355.465850901453
 30
0.0
  0
VERTEX
  5
2CC
  8
LAYER_01
 10
1374.347160683035
 20
1355.465850901452
 30
0.0
  0
VERTEX
  5
2CD
  8
LAYER_01
 10
1374.347160683035
 20
1401.152086201491
 30
0.0
  0
SEQEND
  5
2CE
  8
LAYER_01
  0
POLYLINE
  5
2CF
  8
LAYER_01
 66
     1
 10
0.0
 20
0.0
 30
0.0
 70
     1
  0
VERTEX
  5
2D0
  8
LAYER_01
 10
1374.347160683035
 20
1324.82626387387
 30
0.0
  0
VERTEX
  5
2D1
  8
LAYER_01
 10
1374.347160683036
 20
1335.465850901452
 30
0.0
  0
VERTEX
  5
2D2
  8
LAYER_01
 10
1400.033395983074
 20
1335.465850901452
 30
0.0
  0
VERTEX
  5
2D3
  8
LAYER_01
 10
1381.870484819263
 20
1317.302939737641
 30
0.0
  0
SEQEND
  5
2D4
  8
LAYER_01
  0
POLYLINE
  5
2D5
  8
LAYER_01
 66
     1
 10
0.0
 20
0.0
 30
0.0
 70
     1
  0
VERTEX
  5
2D6
  8
LAYER_01
 10
1354.347160683036
 20
1381.152086201491
 30
0.0
  0
VERTEX
  5
2D7
  8
LAYER_01
 10
1354.347160683036
 20
1355.465850901452
 30
0.0
  0
VERTEX
  5
2D8
  8
LAYER_01
 10
1343.707573655452
 20
1355.465850901453
 30
0.0
  0
VERTEX
  5
2D9
  8
LAYER_01
 10
1336.184249519225
 20
1362.98917503768
 30
0.0
  0
SEQEND
  5
2DA
  8
LAYER_01
  0
POLYLINE
  5
2DB
  8
LAYER_01
 66
     1
 10
0.0
 20
0.0
 30
0.0
 70
     1
  0
VERTEX
  5
2DC
  8
LAYER_01
 10
1473.406655245414
 20
1500.21158076387
 30
0.0
  0
VERTEX
  5
2DD
  8
LAYER_01
 10
1491.569566409225
 20
1518.37449192768
 30
0.0
  0
VERTEX
  5
2DE
  8
LAYER_01
 10
1499.092890545453
 20
1510.851167791451
 30
0.0
  0
VERTEX
  5
2DF
  8
LAYER_01
 10
1499.092890545453
 20
1500.211580763869
 30
0.0
  0
SEQEND
  5
2E0
  8
LAYER_01
  0
POLYLINE
  5
2E1
  8
LAYER_01
 66
     1
 10
0.0
 20
0.0
 30
0.0
 70
     1
  0
VERTEX
  5
2E2
  8
LAYER_01
 10
1519.092890545453
 20
1454.52534546383
 30
0.0
  0
VERTEX
  5
2E3
  8
LAYER_01
 10
1519.092890545453
 20
1480.211580763869
 30
0.0
  0
VERTEX
  5
2E4
  8
LAYER_01
 10
1529.732477573036
 20
1480.211580763869
 30
0.0
  0
VERTEX
  5
2E5
  8
LAYER_01
 10
1537.255801709263
 20
1472.688256627641
 30
0.0
  0
SEQEND
  5
2E6
  8
LAYER_01
  0
POLYLINE
  5
2E7
  8
LAYER_01
 66
     1
 10
0.0
 20
0.0
 30
0.0
 70
     1
  0
VERTEX
  5
2E8
  8
LAYER_01
 10
1418.242434964018
 20
1436.316306482886
 30
0.0
  0
VERTEX
  5
2E9
  8
LAYER_01
 10
1392.068647474004
 20
1447.157844239922
 30
0.0
  0
VERTEX
  5
2EA
  8
LAYER_01
 10
1374.347160683035
 20
1429.436357448953
 30
0.0
  0
VERTEX
  5
2EB
  8
LAYER_01
 10
1374.347160683035
 20
1454.498324414156
 30
0.0
  0
VERTEX
  5
2EC
  8
LAYER_01
 10
1348.173373193022
 20
1465.339862171191
 30
0.0
  0
VERTEX
  5
2ED
  8
LAYER_01
 10
1377.196928881327
 20
1477.361812565578
 30
0.0
  0
VERTEX
  5
2EE
  8
LAYER_01
 10
1389.218879275713
 20
1506.385368253883
 30
0.0
  0
VERTEX
  5
2EF
  8
LAYER_01
 10
1400.060417032749
 20
1480.211580763869
 30
0.0
  0
VERTEX
  5
2F0
  8
LAYER_01
 10
1425.122383997952
 20
1480.211580763869
 30
0.0
  0
VERTEX
  5
2F1
  8
LAYER_01
 10
1407.400897206983
 20
1462.490093972901
 30
0.0
  0
SEQEND
  5
2F2
  8
LAYER_01
  0
POLYLINE
  5
2F3
  8
LAYER_01
 66
     1
 10
0.0
 20
0.0
 30
0.0
 70
     1
  0
VERTEX
  5
2F4
  8
LAYER_01
 10
1476.678741049088
 20
1412.111195967465
 30
0.0
  0
VERTEX
  5
2F5
  8
LAYER_01
 10
1444.373694261546
 20
1425.492384479963
 30
0.0
  0
VERTEX
  5
2F6
  8
LAYER_01
 10
1430.992505749049
 20
1457.797431267504
 30
0.0
  0
VERTEX
  5
2F7
  8
LAYER_01
 10
1453.406655245414
 20
1480.211580763869
 30
0.0
  0
VERTEX
  5
2F8
  8
LAYER_01
 10
1499.092890545453
 20
1480.211580763869
 30
0.0
  0
VERTEX
  5
2F9
  8
LAYER_01
 10
1499.092890545453
 20
1434.52534546383
 30
0.0
  0
SEQEND
  5
2FA
  8
LAYER_01
  0
POLYLINE
  5
2FB
  8
LAYER_01
 66
     1
 10
0.0
 20
0.0
 30
0.0
 70
     1
  0
VERTEX
  5
2FC
  8
LAYER_01
 10
1484.221171952774
 20
1329.292063411439
 30
0.0
  0
VERTEX
  5
2FD
  8
LAYER_01
 10
1473.379634195739
 20
1355.465850901452
 30
0.0
  0
VERTEX
  5
2FE
  8
LAYER_01
 10
1448.317667230537
 20
1355.465850901452
 30
0.0
  0
VERTEX
  5
2FF
  8
LAYER_01
 10
1466.039154021505
 20
1373.18733769242
 30
0.0
  0
VERTEX
  5
300
  8
LAYER_01
 10
1455.19761626447
 20
1399.361125182435
 30
0.0
  0
VERTEX
  5
301
  8
LAYER_01
 10
1481.371403754484
 20
1388.5195874254
 30
0.0
  0
VERTEX
  5
302
  8
LAYER_01
 10
1499.092890545453
 20
1406.241074216368
 30
0.0
  0
VERTEX
  5
303
  8
LAYER_01
 10
1499.092890545453
 20
1381.179107251165
 30
0.0
  0
VERTEX
  5
304
  8
LAYER_01
 10
1525.266678035468
 20
1370.337569494129
 30
0.0
  0
VERTEX
  5
305
  8
LAYER_01
 10
1496.243122347159
 20
1358.31561909974
 30
0.0
  0
SEQEND
  5
306
  8
LAYER_01
  0
POLYLINE
  5
307
  8
LAYER_01
 66
     1
 10
0.0
 20
0.0
 30
0.0
 70
     1
  0
VERTEX
  5
308
  8
LAYER_01
 10
1706.034564486589
 20
1423.566235697856
 30
0.0
  0
VERTEX
  5
309
  8
LAYER_01
 10
1673.729517699047
 20
1410.185047185359
 30
0.0
  0
VERTEX
  5
30A
  8
LAYER_01
 10
1660.34832918655
 20
1377.880000397817
 30
0.0
  0
VERTEX
  5
30B
  8
LAYER_01
 10
1682.762478682914
 20
1355.465850901453
 30
0.0
  0
VERTEX
  5
30C
  8
LAYER_01
 10
1728.448713982954
 20
1355.465850901452
 30
0.0
  0
VERTEX
  5
30D
  8
LAYER_01
 10
1728.448713982954
 20
1401.152086201491
 30
0.0
  0
SEQEND
  5
30E
  8
LAYER_01
  0
POLYLINE
  5
30F
  8
LAYER_01
 66
     1
 10
0.0
 20
0.0
 30
0.0
 70
     1
  0
VERTEX
  5
310
  8
LAYER_01
 10
1728.448713982954
 20
1324.82626387387
 30
0.0
  0
VERTEX
  5
311
  8
LAYER_01
 10
1728.448713982954
 20
1335.465850901452
 30
0.0
  0
VERTEX
  5
312
  8
LAYER_01
 10
1702.762478682916
 20
1335.465850901452
 30
0.0
  0
VERTEX
  5
313
  8
LAYER_01
 10
1720.925389846726
 20
1317.302939737641
 30
0.0
  0
SEQEND
  5
314
  8
LAYER_01
  0
POLYLINE
  5
315
  8
LAYER_01
 66
     1
 10
0.0
 20
0.0
 30
0.0
 70
     1
  0
VERTEX
  5
316
  8
LAYER_01
 10
1748.448713982954
 20
1381.152086201491
 30
0.0
  0
VERTEX
  5
317
  8
LAYER_01
 10
1748.448713982954
 20
1355.465850901452
 30
0.0
  0
VERTEX
  5
318
  8
LAYER_01
 10
1759.088301010537
 20
1355.465850901453
 30
0.0
  0
VERTEX
  5
319
  8
LAYER_01
 10
1766.611625146765
 20
1362.98917503768
 30
0.0
  0
SEQEND
  5
31A
  8
LAYER_01
  0
POLYLINE
  5
31B
  8
LAYER_01
 66
     1
 10
0.0
 20
0.0
 30
0.0
 70
     1
  0
VERTEX
  5
31C
  8
LAYER_01
 10
1629.389219420576
 20
1500.21158076387
 30
0.0
  0
VERTEX
  5
31D
  8
LAYER_01
 10
1611.226308256764
 20
1518.37449192768
 30
0.0
  0
VERTEX
  5
31E
  8
LAYER_01
 10
1603.702984120536
 20
1510.851167791451
 30
0.0
  0
VERTEX
  5
31F
  8
LAYER_01
 10
1603.702984120537
 20
1500.211580763869
 30
0.0
  0
SEQEND
  5
320
  8
LAYER_01
  0
POLYLINE
  5
321
  8
LAYER_01
 66
     1
 10
0.0
 20
0.0
 30
0.0
 70
     1
  0
VERTEX
  5
322
  8
LAYER_01
 10
1583.702984120537
 20
1454.52534546383
 30
0.0
  0
VERTEX
  5
323
  8
LAYER_01
 10
1583.702984120537
 20
1480.211580763869
 30
0.0
  0
VERTEX
  5
324
  8
LAYER_01
 10
1573.063397092953
 20
1480.211580763869
 30
0.0
  0
VERTEX
  5
325
  8
LAYER_01
 10
1565.540072956726
 20
1472.688256627641
 30
0.0
  0
SEQEND
  5
326
  8
LAYER_01
  0
POLYLINE
  5
327
  8
LAYER_01
 66
     1
 10
0.0
 20
0.0
 30
0.0
 70
     1
  0
VERTEX
  5
328
  8
LAYER_01
 10
1684.553439701971
 20
1436.316306482886
 30
0.0
  0
VERTEX
  5
329
  8
LAYER_01
 10
1710.727227191985
 20
1447.157844239922
 30
0.0
  0
VERTEX
  5
32A
  8
LAYER_01
 10
1728.448713982954
 20
1429.436357448953
 30
0.0
  0
VERTEX
  5
32B
  8
LAYER_01
 10
1728.448713982954
 20
1454.498324414156
 30
0.0
  0
VERTEX
  5
32C
  8
LAYER_01
 10
1754.622501472968
 20
1465.339862171191
 30
0.0
  0
VERTEX
  5
32D
  8
LAYER_01
 10
1725.598945784663
 20
1477.361812565578
 30
0.0
  0
VERTEX
  5
32E
  8
LAYER_01
 10
1713.576995390276
 20
1506.385368253883
 30
0.0
  0
VERTEX
  5
32F
  8
LAYER_01
 10
1702.735457633241
 20
1480.211580763869
 30
0.0
  0
VERTEX
  5
330
  8
LAYER_01
 10
1677.673490668037
 20
1480.211580763869
 30
0.0
  0
VERTEX
  5
331
  8
LAYER_01
 10
1695.394977459006
 20
1462.490093972901
 30
0.0
  0
SEQEND
  5
332
  8
LAYER_01
  0
POLYLINE
  5
333
  8
LAYER_01
 66
     1
 10
0.0
 20
0.0
 30
0.0
 70
     1
  0
VERTEX
  5
334
  8
LAYER_01
 10
1626.117133616902
 20
1412.111195967465
 30
0.0
  0
VERTEX
  5
335
  8
LAYER_01
 10
1658.422180404443
 20
1425.492384479963
 30
0.0
  0
VERTEX
  5
336
  8
LAYER_01
 10
1671.803368916941
 20
1457.797431267504
 30
0.0
  0
VERTEX
  5
337
  8
LAYER_01
 10
1649.389219420576
 20
1480.211580763869
 30
0.0
  0
VERTEX
  5
338
  8
LAYER_01
 10
1603.702984120536
 20
1480.211580763869
 30
0.0
  0
VERTEX
  5
339
  8
LAYER_01
 10
1603.702984120536
 20
1434.52534546383
 30
0.0
  0
SEQEND
  5
33A
  8
LAYER_01
  0
POLYLINE
  5
33B
  8
LAYER_01
 66
     1
 10
0.0
 20
0.0
 30
0.0
 70
     1
  0
VERTEX
  5
33C
  8
LAYER_01
 10
1618.574702713215
 20
1329.292063411439
 30
0.0
  0
VERTEX
  5
33D
  8
LAYER_01
 10
1629.41624047025
 20
1355.465850901452
 30
0.0
  0
VERTEX
  5
33E
  8
LAYER_01
 10
1654.478207435453
 20
1355.465850901452
 30
0.0
  0
VERTEX
  5
33F
  8
LAYER_01
 10
1636.756720644484
 20
1373.18733769242
 30
0.0
  0
VERTEX
  5
340
  8
LAYER_01
 10
1647.59825840152
 20
1399.361125182435
 30
0.0
  0
VERTEX
  5
341
  8
LAYER_01
 10
1621.424470911505
 20
1388.5195874254
 30
0.0
  0
VERTEX
  5
342
  8
LAYER_01
 10
1603.702984120537
 20
1406.241074216368
 30
0.0
  0
VERTEX
  5
343
  8
LAYER_01
 10
1603.702984120537
 20
1381.179107251165
 30
0.0
  0
VERTEX
  5
344
  8
LAYER_01
 10
1577.529196630521
 20
1370.337569494129
 30
0.0
  0
VERTEX
  5
345
  8
LAYER_01
 10
1606.552752318831
 20
1358.31561909974
 30
0.0
  0
SEQEND
  5
346
  8
LAYER_01
  0
POLYLINE
  5
347
  8
LAYER_01
 66
     1
 10
0.0
 20
0.0
 30
0.0
  0
VERTEX
  5
348
  8
LAYER_01
 10
1367.728349195532
 20
1761.872450988912
 30
0.0
  0
VERTEX
  5
349
  8
LAYER_01
 10
1354.347160683035
 20
1748.491262476414
 30
0.0
  0
VERTEX
  5
34A
  8
LAYER_01
 10
1354.347160683036
 20
1729.56740420137
 30
0.0
  0
VERTEX
  5
34B
  8
LAYER_01
 10
1335.42330240799
 20
1729.56740420137
 30
0.0
  0
VERTEX
  5
34C
  8
LAYER_01
 10
1322.042113895493
 20
1716.186215688872
 30
0.0
  0
SEQEND
  5
34D
  8
LAYER_01
  0
POLYLINE
  5
34E
  8
LAYER_01
 66
     1
 10
0.0
 20
0.0
 30
0.0
  0
VERTEX
  5
34F
  8
LAYER_01
 10
1473.39724994985
 20
1761.872450988912
 30
0.0
  0
VERTEX
  5
350
  8
LAYER_01
 10
1460.016061437353
 20
1729.56740420137
 30
0.0
  0
VERTEX
  5
351
  8
LAYER_01
 10
1428.317667230536
 20
1729.56740420137
 30
0.0
  0
VERTEX
  5
352
  8
LAYER_01
 10
1396.012620442994
 20
1761.872450988912
 30
0.0
  0
SEQEND
  5
353
  8
LAYER_01
  0
POLYLINE
  5
354
  8
LAYER_01
 66
     1
 10
0.0
 20
0.0
 30
0.0
  0
VERTEX
  5
355
  8
LAYER_01
 10
1322.042113895493
 20
1687.901944441411
 30
0.0
  0
VERTEX
  5
356
  8
LAYER_01
 10
1354.347160683035
 20
1655.596897653868
 30
0.0
  0
VERTEX
  5
357
  8
LAYER_01
 10
1354.347160683035
 20
1623.898503447051
 30
0.0
  0
VERTEX
  5
358
  8
LAYER_01
 10
1322.042113895493
 20
1610.517314934554
 30
0.0
  0
SEQEND
  5
359
  8
LAYER_01
  0
POLYLINE
  5
35A
  8
LAYER_01
 66
     1
 10
0.0
 20
0.0
 30
0.0
 70
     1
  0
VERTEX
  5
35B
  8
LAYER_01
 10
1396.7613101794
 20
1641.467019404966
 30
0.0
  0
VERTEX
  5
35C
  8
LAYER_01
 10
1429.066356966942
 20
1654.848207917463
 30
0.0
  0
VERTEX
  5
35D
  8
LAYER_01
 10
1442.44754547944
 20
1687.153254705005
 30
0.0
  0
VERTEX
  5
35E
  8
LAYER_01
 10
1420.033395983075
 20
1709.567404201369
 30
0.0
  0
VERTEX
  5
35F
  8
LAYER_01
 10
1374.347160683035
 20
1709.56740420137
 30
0.0
  0
VERTEX
  5
360
  8
LAYER_01
 10
1374.347160683035
 20
1663.881168901331
 30
0.0
  0
SEQEND
  5
361
  8
LAYER_01
  0
POLYLINE
  5
362
  8
LAYER_01
 66
     1
 10
0.0
 20
0.0
 30
0.0
 70
     1
  0
VERTEX
  5
363
  8
LAYER_01
 10
1374.347160683035
 20
1740.206991228952
 30
0.0
  0
VERTEX
  5
364
  8
LAYER_01
 10
1374.347160683036
 20
1729.56740420137
 30
0.0
  0
VERTEX
  5
365
  8
LAYER_01
 10
1400.033395983074
 20
1729.56740420137
 30
0.0
  0
VERTEX
  5
366
  8
LAYER_01
 10
1381.870484819263
 20
1747.730315365181
 30
0.0
  0
SEQEND
  5
367
  8
LAYER_01
  0
POLYLINE
  5
368
  8
LAYER_01
 66
     1
 10
0.0
 20
0.0
 30
0.0
 70
     1
  0
VERTEX
  5
369
  8
LAYER_01
 10
1354.347160683036
 20
1683.881168901331
 30
0.0
  0
VERTEX
  5
36A
  8
LAYER_01
 10
1354.347160683036
 20
1709.56740420137
 30
0.0
  0
VERTEX
  5
36B
  8
LAYER_01
 10
1343.707573655452
 20
1709.567404201369
 30
0.0
  0
VERTEX
  5
36C
  8
LAYER_01
 10
1336.184249519225
 20
1702.044080065142
 30
0.0
  0
SEQEND
  5
36D
  8
LAYER_01
  0
POLYLINE
  5
36E
  8
LAYER_01
 66
     1
 10
0.0
 20
0.0
 30
0.0
 70
     1
  0
VERTEX
  5
36F
  8
LAYER_01
 10
1473.406655245414
 20
1564.821674338952
 30
0.0
  0
VERTEX
  5
370
  8
LAYER_01
 10
1491.569566409225
 20
1546.658763175142
 30
0.0
  0
VERTEX
  5
371
  8
LAYER_01
 10
1499.092890545453
 20
1554.18208731137
 30
0.0
  0
VERTEX
  5
372
  8
LAYER_01
 10
1499.092890545453
 20
1564.821674338953
 30
0.0
  0
SEQEND
  5
373
  8
LAYER_01
  0
POLYLINE
  5
374
  8
LAYER_01
 66
     1
 10
0.0
 20
0.0
 30
0.0
 70
     1
  0
VERTEX
  5
375
  8
LAYER_01
 10
1519.092890545453
 20
1610.507909638991
 30
0.0
  0
VERTEX
  5
376
  8
LAYER_01
 10
1519.092890545453
 20
1584.821674338953
 30
0.0
  0
VERTEX
  5
377
  8
LAYER_01
 10
1529.732477573036
 20
1584.821674338953
 30
0.0
  0
VERTEX
  5
378
  8
LAYER_01
 10
1537.255801709263
 20
1592.344998475181
 30
0.0
  0
SEQEND
  5
379
  8
LAYER_01
  0
POLYLINE
  5
37A
  8
LAYER_01
 66
     1
 10
0.0
 20
0.0
 30
0.0
 70
     1
  0
VERTEX
  5
37B
  8
LAYER_01
 10
1418.242434964018
 20
1628.716948619935
 30
0.0
  0
VERTEX
  5
37C
  8
LAYER_01
 10
1392.068647474004
 20
1617.8754108629
 30
0.0
  0
VERTEX
  5
37D
  8
LAYER_01
 10
1374.347160683035
 20
1635.596897653869
 30
0.0
  0
VERTEX
  5
37E
  8
LAYER_01
 10
1374.347160683035
 20
1610.534930688666
 30
0.0
  0
VERTEX
  5
37F
  8
LAYER_01
 10
1348.173373193022
 20
1599.693392931631
 30
0.0
  0
VERTEX
  5
380
  8
LAYER_01
 10
1377.196928881327
 20
1587.671442537244
 30
0.0
  0
VERTEX
  5
381
  8
LAYER_01
 10
1389.218879275713
 20
1558.647886848939
 30
0.0
  0
VERTEX
  5
382
  8
LAYER_01
 10
1400.060417032749
 20
1584.821674338953
 30
0.0
  0
VERTEX
  5
383
  8
LAYER_01
 10
1425.122383997952
 20
1584.821674338953
 30
0.0
  0
VERTEX
  5
384
  8
LAYER_01
 10
1407.400897206983
 20
1602.543161129921
 30
0.0
  0
SEQEND
  5
385
  8
LAYER_01
  0
POLYLINE
  5
386
  8
LAYER_01
 66
     1
 10
0.0
 20
0.0
 30
0.0
 70
     1
  0
VERTEX
  5
387
  8
LAYER_01
 10
1476.678741049088
 20
1652.922059135356
 30
0.0
  0
VERTEX
  5
388
  8
LAYER_01
 10
1444.373694261546
 20
1639.540870622859
 30
0.0
  0
VERTEX
  5
389
  8
LAYER_01
 10
1430.992505749049
 20
1607.235823835318
 30
0.0
  0
VERTEX
  5
38A
  8
LAYER_01
 10
1453.406655245414
 20
1584.821674338953
 30
0.0
  0
VERTEX
  5
38B
  8
LAYER_01
 10
1499.092890545453
 20
1584.821674338953
 30
0.0
  0
VERTEX
  5
38C
  8
LAYER_01
 10
1499.092890545453
 20
1630.507909638991
 30
0.0
  0
SEQEND
  5
38D
  8
LAYER_01
  0
POLYLINE
  5
38E
  8
LAYER_01
 66
     1
 10
0.0
 20
0.0
 30
0.0
 70
     1
  0
VERTEX
  5
38F
  8
LAYER_01
 10
1484.221171952774
 20
1735.741191691383
 30
0.0
  0
VERTEX
  5
390
  8
LAYER_01
 10
1473.379634195739
 20
1709.56740420137
 30
0.0
  0
VERTEX
  5
391
  8
LAYER_01
 10
1448.317667230537
 20
1709.56740420137
 30
0.0
  0
VERTEX
  5
392
  8
LAYER_01
 10
1466.039154021505
 20
1691.845917410401
 30
0.0
  0
VERTEX
  5
393
  8
LAYER_01
 10
1455.19761626447
 20
1665.672129920387
 30
0.0
  0
VERTEX
  5
394
  8
LAYER_01
 10
1481.371403754484
 20
1676.513667677422
 30
0.0
  0
VERTEX
  5
395
  8
LAYER_01
 10
1499.092890545453
 20
1658.792180886453
 30
0.0
  0
VERTEX
  5
396
  8
LAYER_01
 10
1499.092890545453
 20
1683.854147851657
 30
0.0
  0
VERTEX
  5
397
  8
LAYER_01
 10
1525.266678035468
 20
1694.695685608693
 30
0.0
  0
VERTEX
  5
398
  8
LAYER_01
 10
1496.243122347159
 20
1706.717636003082
 30
0.0
  0
SEQEND
  5
399
  8
LAYER_01
  0
POLYLINE
  5
39A
  8
LAYER_01
 66
     1
 10
0.0
 20
0.0
 30
0.0
  0
VERTEX
  5
39B
  8
LAYER_01
 10
1629.398624716139
 20
1761.872450988912
 30
0.0
  0
VERTEX
  5
39C
  8
LAYER_01
 10
1642.779813228636
 20
1729.56740420137
 30
0.0
  0
VERTEX
  5
39D
  8
LAYER_01
 10
1674.478207435453
 20
1729.56740420137
 30
0.0
  0
VERTEX
  5
39E
  8
LAYER_01
 10
1706.783254222995
 20
1761.872450988912
 30
0.0
  0
SEQEND
  5
39F
  8
LAYER_01
  0
POLYLINE
  5
3A0
  8
LAYER_01
 66
     1
 10
0.0
 20
0.0
 30
0.0
 70
     1
  0
VERTEX
  5
3A1
  8
LAYER_01
 10
1706.034564486589
 20
1641.467019404966
 30
0.0
  0
VERTEX
  5
3A2
  8
LAYER_01
 10
1673.729517699047
 20
1654.848207917463
 30
0.0
  0
VERTEX
  5
3A3
  8
LAYER_01
 10
1660.34832918655
 20
1687.153254705005
 30
0.0
  0
VERTEX
  5
3A4
  8
LAYER_01
 10
1682.762478682914
 20
1709.567404201369
 30
0.0
  0
VERTEX
  5
3A5
  8
LAYER_01
 10
1728.448713982954
 20
1709.56740420137
 30
0.0
  0
VERTEX
  5
3A6
  8
LAYER_01
 10
1728.448713982954
 20
1663.881168901331
 30
0.0
  0
SEQEND
  5
3A7
  8
LAYER_01
  0
POLYLINE
  5
3A8
  8
LAYER_01
 66
     1
 10
0.0
 20
0.0
 30
0.0
 70
     1
  0
VERTEX
  5
3A9
  8
LAYER_01
 10
1728.448713982954
 20
1740.206991228952
 30
0.0
  0
VERTEX
  5
3AA
  8
LAYER_01
 10
1728.448713982954
 20
1729.56740420137
 30
0.0
  0
VERTEX
  5
3AB
  8
LAYER_01
 10
1702.762478682916
 20
1729.56740420137
 30
0.0
  0
VERTEX
  5
3AC
  8
LAYER_01
 10
1720.925389846726
 20
1747.730315365181
 30
0.0
  0
SEQEND
  5
3AD
  8
LAYER_01
  0
POLYLINE
  5
3AE
  8
LAYER_01
 66
     1
 10
0.0
 20
0.0
 30
0.0
 70
     1
  0
VERTEX
  5
3AF
  8
LAYER_01
 10
1748.448713982954
 20
1683.881168901331
 30
0.0
  0
VERTEX
  5
3B0
  8
LAYER_01
 10
1748.448713982954
 20
1709.56740420137
 30
0.0
  0
VERTEX
  5
3B1
  8
LAYER_01
 10
1759.088301010537
 20
1709.567404201369
 30
0.0
  0
VERTEX
  5
3B2
  8
LAYER_01
 10
1766.611625146765
 20
1702.044080065142
 30
0.0
  0
SEQEND
  5
3B3
  8
LAYER_01
  0
POLYLINE
  5
3B4
  8
LAYER_01
 66
     1
 10
0.0
 20
0.0
 30
0.0
 70
     1
  0
VERTEX
  5
3B5
  8
LAYER_01
 10
1629.389219420576
 20
1564.821674338952
 30
0.0
  0
VERTEX
  5
3B6
  8
LAYER_01
 10
1611.226308256764
 20
1546.658763175142
 30
0.0
  0
VERTEX
  5
3B7
  8
LAYER_01
 10
1603.702984120536
 20
1554.18208731137
 30
0.0
  0
VERTEX
  5
3B8
  8
LAYER_01
 10
1603.702984120537
 20
1564.821674338953
 30
0.0
  0
SEQEND
  5
3B9
  8
LAYER_01
  0
POLYLINE
  5
3BA
  8
LAYER_01
 66
     1
 10
0.0
 20
0.0
 30
0.0
 70
     1
  0
VERTEX
  5
3BB
  8
LAYER_01
 10
1583.702984120537
 20
1610.507909638991
 30
0.0
  0
VERTEX
  5
3BC
  8
LAYER_01
 10
1583.702984120537
 20
1584.821674338953
 30
0.0
  0
VERTEX
  5
3BD
  8
LAYER_01
 10
1573.063397092953
 20
1584.821674338953
 30
0.0
  0
VERTEX
  5
3BE
  8
LAYER_01
 10
1565.540072956726
 20
1592.344998475181
 30
0.0
  0
SEQEND
  5
3BF
  8
LAYER_01
  0
POLYLINE
  5
3C0
  8
LAYER_01
 66
     1
 10
0.0
 20
0.0
 30
0.0
 70
     1
  0
VERTEX
  5
3C1
  8
LAYER_01
 10
1684.553439701971
 20
1628.716948619935
 30
0.0
  0
VERTEX
  5
3C2
  8
LAYER_01
 10
1710.727227191985
 20
1617.8754108629
 30
0.0
  0
VERTEX
  5
3C3
  8
LAYER_01
 10
1728.448713982954
 20
1635.596897653869
 30
0.0
  0
VERTEX
  5
3C4
  8
LAYER_01
 10
1728.448713982954
 20
1610.534930688666
 30
0.0
  0
VERTEX
  5
3C5
  8
LAYER_01
 10
1754.622501472968
 20
1599.693392931631
 30
0.0
  0
VERTEX
  5
3C6
  8
LAYER_01
 10
1725.598945784663
 20
1587.671442537244
 30
0.0
  0
VERTEX
  5
3C7
  8
LAYER_01
 10
1713.576995390276
 20
1558.647886848939
 30
0.0
  0
VERTEX
  5
3C8
  8
LAYER_01
 10
1702.735457633241
 20
1584.821674338953
 30
0.0
  0
VERTEX
  5
3C9
  8
LAYER_01
 10
1677.673490668037
 20
1584.821674338953
 30
0.0
  0
VERTEX
  5
3CA
  8
LAYER_01
 10
1695.394977459006
 20
1602.543161129921
 30
0.0
  0
SEQEND
  5
3CB
  8
LAYER_01
  0
POLYLINE
  5
3CC
  8
LAYER_01
 66
     1
 10
0.0
 20
0.0
 30
0.0
 70
     1
  0
VERTEX
  5
3CD
  8
LAYER_01
 10
1626.117133616902
 20
1652.922059135356
 30
0.0
  0
VERTEX
  5
3CE
  8
LAYER_01
 10
1658.422180404443
 20
1639.540870622859
 30
0.0
  0
VERTEX
  5
3CF
  8
LAYER_01
 10
1671.803368916941
 20
1607.235823835318
 30
0.0
  0
VERTEX
  5
3D0
  8
LAYER_01
 10
1649.389219420576
 20
1584.821674338953
 30
0.0
  0
VERTEX
  5
3D1
  8
LAYER_01
 10
1603.702984120536
 20
1584.821674338953
 30
0.0
  0
VERTEX
  5
3D2
  8
LAYER_01
 10
1603.702984120536
 20
1630.507909638991
 30
0.0
  0
SEQEND
  5
3D3
  8
LAYER_01
  0
POLYLINE
  5
3D4
  8
LAYER_01
 66
     1
 10
0.0
 20
0.0
 30
0.0
 70
     1
  0
VERTEX
  5
3D5
  8
LAYER_01
 10
1618.574702713215
 20
1735.741191691383
 30
0.0
  0
VERTEX
  5
3D6
  8
LAYER_01
 10
1629.41624047025
 20
1709.56740420137
 30
0.0
  0
VERTEX
  5
3D7
  8
LAYER_01
 10
1654.478207435453
 20
1709.56740420137
 30
0.0
  0
VERTEX
  5
3D8
  8
LAYER_01
 10
1636.756720644484
 20
1691.845917410401
 30
0.0
  0
VERTEX
  5
3D9
  8
LAYER_01
 10
1647.59825840152
 20
1665.672129920387
 30
0.0
  0
VERTEX
  5
3DA
  8
LAYER_01
 10
1621.424470911505
 20
1676.513667677422
 30
0.0
  0
VERTEX
  5
3DB
  8
LAYER_01
 10
1603.702984120537
 20
1658.792180886453
 30
0.0
  0
VERTEX
  5
3DC
  8
LAYER_01
 10
1603.702984120537
 20
1683.854147851657
 30
0.0
  0
VERTEX
  5
3DD
  8
LAYER_01
 10
1577.529196630521
 20
1694.695685608693
 30
0.0
  0
VERTEX
  5
3DE
  8
LAYER_01
 10
1606.552752318831
 20
1706.717636003082
 30
0.0
  0
SEQEND
  5
3DF
  8
LAYER_01
  0
POLYLINE
  5
3E0
  8
LAYER_01
 66
     1
 10
0.0
 20
0.0
 30
0.0
  0
VERTEX
  5
3E1
  8
LAYER_01
 10
1953.756740830701
 20
844.4491572389088
 30
0.0
  0
VERTEX
  5
3E2
  8
LAYER_01
 10
1970.262106516768
 20
884.2966349301387
 30
0.0
  0
VERTEX
  5
3E3
  8
LAYER_01
 10
2010.109584207998
 20
900.8020006162049
 30
0.0
  0
VERTEX
  5
3E4
  8
LAYER_01
 10
2049.957061899228
 20
884.2966349301387
 30
0.0
  0
VERTEX
  5
3E5
  8
LAYER_01
 10
2066.462427585294
 20
844.4491572389088
 30
0.0
  0
SEQEND
  5
3E6
  8
LAYER_01
  0
POLYLINE
  5
3E7
  8
LAYER_01
 66
     1
 10
0.0
 20
0.0
 30
0.0
  0
VERTEX
  5
3E8
  8
LAYER_01
 10
2239.465407645499
 20
1130.157824053706
 30
0.0
  0
VERTEX
  5
3E9
  8
LAYER_01
 10
2199.617929954272
 20
1113.65245836764
 30
0.0
  0
VERTEX
  5
3EA
  8
LAYER_01
 10
2183.112564268204
 20
1073.80498067641
 30
0.0
  0
VERTEX
  5
3EB
  8
LAYER_01
 10
2199.617929954272
 20
1033.957502985179
 30
0.0
  0
VERTEX
  5
3EC
  8
LAYER_01
 10
2239.465407645499
 20
1017.452137299113
 30
0.0
  0
SEQEND
  5
3ED
  8
LAYER_01
  0
POLYLINE
  5
3EE
  8
LAYER_01
 66
     1
 10
0.0
 20
0.0
 30
0.0
 70
     1
  0
VERTEX
  5
3EF
  8
LAYER_01
 10
2010.109584207998
 20
999.8344741289088
 30
0.0
  0
VERTEX
  5
3F0
  8
LAYER_01
 10
1977.804537420456
 20
967.5294273413665
 30
0.0
  0
VERTEX
  5
3F1
  8
LAYER_01
 10
1977.804537420456
 20
935.8310331345494
 30
0.0
  0
VERTEX
  5
3F2
  8
LAYER_01
 10
2010.109584207998
 20
922.4498446220528
 30
0.0
  0
VERTEX
  5
3F3
  8
LAYER_01
 10
2042.41463099554
 20
935.8310331345494
 30
0.0
  0
VERTEX
  5
3F4
  8
LAYER_01
 10
2042.41463099554
 20
967.5294273413665
 30
0.0
  0
SEQEND
  5
3F5
  8
LAYER_01
  0
POLYLINE
  5
3F6
  8
LAYER_01
 66
     1
 10
0.0
 20
0.0
 30
0.0
 70
     1
  0
VERTEX
  5
3F7
  8
LAYER_01
 10
1936.139077660497
 20
1073.804980676409
 30
0.0
  0
VERTEX
  5
3F8
  8
LAYER_01
 10
1903.834030872955
 20
1106.110027463951
 30
0.0
  0
VERTEX
  5
3F9
  8
LAYER_01
 10
1872.135636666138
 20
1106.110027463951
 30
0.0
  0
VERTEX
  5
3FA
  8
LAYER_01
 10
1858.754448153641
 20
1073.80498067641
 30
0.0
  0
VERTEX
  5
3FB
  8
LAYER_01
 10
1872.135636666138
 20
1041.499933888868
 30
0.0
  0
VERTEX
  5
3FC
  8
LAYER_01
 10
1903.834030872955
 20
1041.499933888868
 30
0.0
  0
SEQEND
  5
3FD
  8
LAYER_01
  0
POLYLINE
  5
3FE
  8
LAYER_01
 66
     1
 10
0.0
 20
0.0
 30
0.0
 70
     1
  0
VERTEX
  5
3FF
  8
LAYER_01
 10
2010.109584207998
 20
1028.11874537637
 30
0.0
  0
VERTEX
  5
400
  8
LAYER_01
 10
1996.7283956955
 20
1041.499933888868
 30
0.0
  0
VERTEX
  5
401
  8
LAYER_01
 10
1977.804537420456
 20
1041.499933888868
 30
0.0
  0
VERTEX
  5
402
  8
LAYER_01
 10
1977.804537420456
 20
1060.423792163913
 30
0.0
  0
VERTEX
  5
403
  8
LAYER_01
 10
1964.423348907959
 20
1073.80498067641
 30
0.0
  0
VERTEX
  5
404
  8
LAYER_01
 10
1977.804537420456
 20
1087.186169188906
 30
0.0
  0
VERTEX
  5
405
  8
LAYER_01
 10
1977.804537420456
 20
1106.110027463951
 30
0.0
  0
VERTEX
  5
406
  8
LAYER_01
 10
1996.7283956955
 20
1106.110027463951
 30
0.0
  0
VERTEX
  5
407
  8
LAYER_01
 10
2010.109584207998
 20
1119.491215976449
 30
0.0
  0
VERTEX
  5
408
  8
LAYER_01
 10
2023.490772720495
 20
1106.110027463951
 30
0.0
  0
VERTEX
  5
409
  8
LAYER_01
 10
2042.41463099554
 20
1106.110027463951
 30
0.0
  0
VERTEX
  5
40A
  8
LAYER_01
 10
2042.41463099554
 20
1087.186169188906
 30
0.0
  0
VERTEX
  5
40B
  8
LAYER_01
 10
2055.795819508036
 20
1073.80498067641
 30
0.0
  0
VERTEX
  5
40C
  8
LAYER_01
 10
2042.41463099554
 20
1060.423792163913
 30
0.0
  0
VERTEX
  5
40D
  8
LAYER_01
 10
2042.41463099554
 20
1041.499933888868
 30
0.0
  0
VERTEX
  5
40E
  8
LAYER_01
 10
2023.490772720495
 20
1041.499933888868
 30
0.0
  0
SEQEND
  5
40F
  8
LAYER_01
  0
POLYLINE
  5
410
  8
LAYER_01
 66
     1
 10
0.0
 20
0.0
 30
0.0
 70
     1
  0
VERTEX
  5
411
  8
LAYER_01
 10
2084.080090755499
 20
1073.804980676409
 30
0.0
  0
VERTEX
  5
412
  8
LAYER_01
 10
2116.38513754304
 20
1106.110027463951
 30
0.0
  0
VERTEX
  5
413
  8
LAYER_01
 10
2148.083531749858
 20
1106.110027463951
 30
0.0
  0
VERTEX
  5
414
  8
LAYER_01
 10
2161.464720262355
 20
1073.80498067641
 30
0.0
  0
VERTEX
  5
415
  8
LAYER_01
 10
2148.083531749858
 20
1041.499933888868
 30
0.0
  0
VERTEX
  5
416
  8
LAYER_01
 10
2116.38513754304
 20
1041.499933888868
 30
0.0
  0
SEQEND
  5
417
  8
LAYER_01
  0
POLYLINE
  5
418
  8
LAYER_01
 66
     1
 10
0.0
 20
0.0
 30
0.0
 70
     1
  0
VERTEX
  5
419
  8
LAYER_01
 10
2010.109584207998
 20
1147.77548722391
 30
0.0
  0
VERTEX
  5
41A
  8
LAYER_01
 10
1977.804537420456
 20
1180.080534011453
 30
0.0
  0
VERTEX
  5
41B
  8
LAYER_01
 10
1977.804537420456
 20
1211.77892821827
 30
0.0
  0
VERTEX
  5
41C
  8
LAYER_01
 10
2010.109584207998
 20
1225.160116730766
 30
0.0
  0
VERTEX
  5
41D
  8
LAYER_01
 10
2042.41463099554
 20
1211.77892821827
 30
0.0
  0
VERTEX
  5
41E
  8
LAYER_01
 10
2042.41463099554
 20
1180.080534011453
 30
0.0
  0
SEQEND
  5
41F
  8
LAYER_01
  0
POLYLINE
  5
420
  8
LAYER_01
 66
     1
 10
0.0
 20
0.0
 30
0.0
  0
VERTEX
  5
421
  8
LAYER_01
 10
1932.108896824854
 20
844.4491572389088
 30
0.0
  0
VERTEX
  5
422
  8
LAYER_01
 10
1918.727708312356
 20
876.7542040264505
 30
0.0
  0
VERTEX
  5
423
  8
LAYER_01
 10
1887.029314105539
 20
876.7542040264507
 30
0.0
  0
VERTEX
  5
424
  8
LAYER_01
 10
1854.724267317997
 20
844.4491572389088
 30
0.0
  0
SEQEND
  5
425
  8
LAYER_01
  0
POLYLINE
  5
426
  8
LAYER_01
 66
     1
 10
0.0
 20
0.0
 30
0.0
 70
     1
  0
VERTEX
  5
427
  8
LAYER_01
 10
1855.472957054404
 20
964.8545888228546
 30
0.0
  0
VERTEX
  5
428
  8
LAYER_01
 10
1887.778003841946
 20
951.4734003103576
 30
0.0
  0
VERTEX
  5
429
  8
LAYER_01
 10
1901.159192354443
 20
919.1683535228158
 30
0.0
  0
VERTEX
  5
42A
  8
LAYER_01
 10
1878.745042858078
 20
896.7542040264511
 30
0.0
  0
VERTEX
  5
42B
  8
LAYER_01
 10
1833.058807558039
 20
896.7542040264507
 30
0.0
  0
VERTEX
  5
42C
  8
LAYER_01
 10
1833.058807558039
 20
942.4404393264897
 30
0.0
  0
SEQEND
  5
42D
  8
LAYER_01
  0
POLYLINE
  5
42E
  8
LAYER_01
 66
     1
 10
0.0
 20
0.0
 30
0.0
 70
     1
  0
VERTEX
  5
42F
  8
LAYER_01
 10
1833.058807558038
 20
866.1146169988683
 30
0.0
  0
VERTEX
  5
430
  8
LAYER_01
 10
1833.058807558039
 20
876.7542040264507
 30
0.0
  0
VERTEX
  5
431
  8
LAYER_01
 10
1858.745042858077
 20
876.7542040264502
 30
0.0
  0
VERTEX
  5
432
  8
LAYER_01
 10
1840.582131694266
 20
858.5912928626396
 30
0.0
  0
SEQEND
  5
433
  8
LAYER_01
  0
POLYLINE
  5
434
  8
LAYER_01
 66
     1
 10
0.0
 20
0.0
 30
0.0
 70
     1
  0
VERTEX
  5
435
  8
LAYER_01
 10
1813.058807558039
 20
922.4404393264897
 30
0.0
  0
VERTEX
  5
436
  8
LAYER_01
 10
1813.058807558039
 20
896.7542040264507
 30
0.0
  0
VERTEX
  5
437
  8
LAYER_01
 10
1802.419220530455
 20
896.7542040264511
 30
0.0
  0
VERTEX
  5
438
  8
LAYER_01
 10
1794.895896394228
 20
904.2775281626789
 30
0.0
  0
SEQEND
  5
439
  8
LAYER_01
  0
POLYLINE
  5
43A
  8
LAYER_01
 66
     1
 10
0.0
 20
0.0
 30
0.0
 70
     1
  0
VERTEX
  5
43B
  8
LAYER_01
 10
1932.118302120417
 20
1041.499933888868
 30
0.0
  0
VERTEX
  5
43C
  8
LAYER_01
 10
1950.281213284228
 20
1059.662845052679
 30
0.0
  0
VERTEX
  5
43D
  8
LAYER_01
 10
1957.804537420456
 20
1052.13952091645
 30
0.0
  0
VERTEX
  5
43E
  8
LAYER_01
 10
1957.804537420456
 20
1041.499933888868
 30
0.0
  0
SEQEND
  5
43F
  8
LAYER_01
  0
POLYLINE
  5
440
  8
LAYER_01
 66
     1
 10
0.0
 20
0.0
 30
0.0
 70
     1
  0
VERTEX
  5
441
  8
LAYER_01
 10
1977.804537420456
 20
995.8136985888291
 30
0.0
  0
VERTEX
  5
442
  8
LAYER_01
 10
1977.804537420456
 20
1021.499933888868
 30
0.0
  0
VERTEX
  5
443
  8
LAYER_01
 10
1988.444124448039
 20
1021.499933888867
 30
0.0
  0
VERTEX
  5
444
  8
LAYER_01
 10
1995.967448584267
 20
1013.97660975264
 30
0.0
  0
SEQEND
  5
445
  8
LAYER_01
  0
POLYLINE
  5
446
  8
LAYER_01
 66
     1
 10
0.0
 20
0.0
 30
0.0
 70
     1
  0
VERTEX
  5
447
  8
LAYER_01
 10
1876.954081839022
 20
977.604659607885
 30
0.0
  0
VERTEX
  5
448
  8
LAYER_01
 10
1850.780294349007
 20
988.4461973649204
 30
0.0
  0
VERTEX
  5
449
  8
LAYER_01
 10
1833.058807558039
 20
970.7247105739516
 30
0.0
  0
VERTEX
  5
44A
  8
LAYER_01
 10
1833.058807558039
 20
995.7866775391549
 30
0.0
  0
VERTEX
  5
44B
  8
LAYER_01
 10
1806.885020068025
 20
1006.62821529619
 30
0.0
  0
VERTEX
  5
44C
  8
LAYER_01
 10
1835.90857575633
 20
1018.650165690577
 30
0.0
  0
VERTEX
  5
44D
  8
LAYER_01
 10
1847.930526150717
 20
1047.673721378882
 30
0.0
  0
VERTEX
  5
44E
  8
LAYER_01
 10
1858.772063907752
 20
1021.499933888868
 30
0.0
  0
VERTEX
  5
44F
  8
LAYER_01
 10
1883.834030872955
 20
1021.499933888868
 30
0.0
  0
VERTEX
  5
450
  8
LAYER_01
 10
1866.112544081987
 20
1003.7784470979
 30
0.0
  0
SEQEND
  5
451
  8
LAYER_01
  0
POLYLINE
  5
452
  8
LAYER_01
 66
     1
 10
0.0
 20
0.0
 30
0.0
 70
     1
  0
VERTEX
  5
453
  8
LAYER_01
 10
1935.390387924091
 20
953.399549092464
 30
0.0
  0
VERTEX
  5
454
  8
LAYER_01
 10
1903.085341136549
 20
966.7807376049611
 30
0.0
  0
VERTEX
  5
455
  8
LAYER_01
 10
1889.704152624052
 20
999.0857843925028
 30
0.0
  0
VERTEX
  5
456
  8
LAYER_01
 10
1912.118302120417
 20
1021.499933888868
 30
0.0
  0
VERTEX
  5
457
  8
LAYER_01
 10
1957.804537420456
 20
1021.499933888868
 30
0.0
  0
VERTEX
  5
458
  8
LAYER_01
 10
1957.804537420456
 20
975.8136985888291
 30
0.0
  0
SEQEND
  5
459
  8
LAYER_01
  0
POLYLINE
  5
45A
  8
LAYER_01
 66
     1
 10
0.0
 20
0.0
 30
0.0
 70
     1
  0
VERTEX
  5
45B
  8
LAYER_01
 10
1942.932818827777
 20
870.5804165364375
 30
0.0
  0
VERTEX
  5
45C
  8
LAYER_01
 10
1932.091281070743
 20
896.7542040264507
 30
0.0
  0
VERTEX
  5
45D
  8
LAYER_01
 10
1907.02931410554
 20
896.7542040264509
 30
0.0
  0
VERTEX
  5
45E
  8
LAYER_01
 10
1924.750800896508
 20
914.475690817419
 30
0.0
  0
VERTEX
  5
45F
  8
LAYER_01
 10
1913.909263139473
 20
940.6494783074336
 30
0.0
  0
VERTEX
  5
460
  8
LAYER_01
 10
1940.083050629487
 20
929.8079405503981
 30
0.0
  0
VERTEX
  5
461
  8
LAYER_01
 10
1957.804537420456
 20
947.529427341367
 30
0.0
  0
VERTEX
  5
462
  8
LAYER_01
 10
1957.804537420456
 20
922.4674603761637
 30
0.0
  0
VERTEX
  5
463
  8
LAYER_01
 10
1983.978324910471
 20
911.6259226191278
 30
0.0
  0
VERTEX
  5
464
  8
LAYER_01
 10
1954.954769222162
 20
899.6039722247385
 30
0.0
  0
SEQEND
  5
465
  8
LAYER_01
  0
POLYLINE
  5
466
  8
LAYER_01
 66
     1
 10
0.0
 20
0.0
 30
0.0
  0
VERTEX
  5
467
  8
LAYER_01
 10
2193.77917234546
 20
844.4491572389088
 30
0.0
  0
VERTEX
  5
468
  8
LAYER_01
 10
2207.160360857957
 20
857.8303457514062
 30
0.0
  0
VERTEX
  5
469
  8
LAYER_01
 10
2207.160360857957
 20
876.7542040264509
 30
0.0
  0
VERTEX
  5
46A
  8
LAYER_01
 10
2226.084219133002
 20
876.7542040264509
 30
0.0
  0
VERTEX
  5
46B
  8
LAYER_01
 10
2239.465407645499
 20
890.135392538948
 30
0.0
  0
SEQEND
  5
46C
  8
LAYER_01
  0
POLYLINE
  5
46D
  8
LAYER_01
 66
     1
 10
0.0
 20
0.0
 30
0.0
  0
VERTEX
  5
46E
  8
LAYER_01
 10
2088.110271591142
 20
844.4491572389088
 30
0.0
  0
VERTEX
  5
46F
  8
LAYER_01
 10
2101.491460103639
 20
876.7542040264505
 30
0.0
  0
VERTEX
  5
470
  8
LAYER_01
 10
2133.189854310457
 20
876.7542040264507
 30
0.0
  0
VERTEX
  5
471
  8
LAYER_01
 10
2165.494901097999
 20
844.4491572389088
 30
0.0
  0
SEQEND
  5
472
  8
LAYER_01
  0
POLYLINE
  5
473
  8
LAYER_01
 66
     1
 10
0.0
 20
0.0
 30
0.0
  0
VERTEX
  5
474
  8
LAYER_01
 10
2239.465407645499
 20
918.4196637864097
 30
0.0
  0
VERTEX
  5
475
  8
LAYER_01
 10
2207.160360857957
 20
950.724710573952
 30
0.0
  0
VERTEX
  5
476
  8
LAYER_01
 10
2207.160360857957
 20
982.4231047807691
 30
0.0
  0
VERTEX
  5
477
  8
LAYER_01
 10
2239.465407645499
 20
995.8042932932663
 30
0.0
  0
SEQEND
  5
478
  8
LAYER_01
  0
POLYLINE
  5
479
  8
LAYER_01
 66
     1
 10
0.0
 20
0.0
 30
0.0
 70
     1
  0
VERTEX
  5
47A
  8
LAYER_01
 10
2164.746211361592
 20
964.8545888228546
 30
0.0
  0
VERTEX
  5
47B
  8
LAYER_01
 10
2132.44116457405
 20
951.4734003103576
 30
0.0
  0
VERTEX
  5
47C
  8
LAYER_01
 10
2119.059976061553
 20
919.1683535228158
 30
0.0
  0
VERTEX
  5
47D
  8
LAYER_01
 10
2141.474125557917
 20
896.7542040264511
 30
0.0
  0
VERTEX
  5
47E
  8
LAYER_01
 10
2187.160360857957
 20
896.7542040264507
 30
0.0
  0
VERTEX
  5
47F
  8
LAYER_01
 10
2187.160360857957
 20
942.4404393264897
 30
0.0
  0
SEQEND
  5
480
  8
LAYER_01
  0
POLYLINE
  5
481
  8
LAYER_01
 66
     1
 10
0.0
 20
0.0
 30
0.0
 70
     1
  0
VERTEX
  5
482
  8
LAYER_01
 10
2187.160360857957
 20
866.1146169988683
 30
0.0
  0
VERTEX
  5
483
  8
LAYER_01
 10
2187.160360857957
 20
876.7542040264507
 30
0.0
  0
VERTEX
  5
484
  8
LAYER_01
 10
2161.474125557919
 20
876.7542040264502
 30
0.0
  0
VERTEX
  5
485
  8
LAYER_01
 10
2179.63703672173
 20
858.5912928626396
 30
0.0
  0
SEQEND
  5
486
  8
LAYER_01
  0
POLYLINE
  5
487
  8
LAYER_01
 66
     1
 10
0.0
 20
0.0
 30
0.0
 70
     1
  0
VERTEX
  5
488
  8
LAYER_01
 10
2207.160360857957
 20
922.4404393264897
 30
0.0
  0
VERTEX
  5
489
  8
LAYER_01
 10
2207.160360857957
 20
896.7542040264507
 30
0.0
  0
VERTEX
  5
48A
  8
LAYER_01
 10
2217.79994788554
 20
896.7542040264511
 30
0.0
  0
VERTEX
  5
48B
  8
LAYER_01
 10
2225.323272021768
 20
904.2775281626789
 30
0.0
  0
SEQEND
  5
48C
  8
LAYER_01
  0
POLYLINE
  5
48D
  8
LAYER_01
 66
     1
 10
0.0
 20
0.0
 30
0.0
 70
     1
  0
VERTEX
  5
48E
  8
LAYER_01
 10
2088.100866295579
 20
1041.499933888868
 30
0.0
  0
VERTEX
  5
48F
  8
LAYER_01
 10
2069.937955131768
 20
1059.662845052679
 30
0.0
  0
VERTEX
  5
490
  8
LAYER_01
 10
2062.414630995539
 20
1052.13952091645
 30
0.0
  0
VERTEX
  5
491
  8
LAYER_01
 10
2062.41463099554
 20
1041.499933888868
 30
0.0
  0
SEQEND
  5
492
  8
LAYER_01
  0
POLYLINE
  5
493
  8
LAYER_01
 66
     1
 10
0.0
 20
0.0
 30
0.0
 70
     1
  0
VERTEX
  5
494
  8
LAYER_01
 10
2042.41463099554
 20
995.8136985888291
 30
0.0
  0
VERTEX
  5
495
  8
LAYER_01
 10
2042.41463099554
 20
1021.499933888868
 30
0.0
  0
VERTEX
  5
496
  8
LAYER_01
 10
2031.775043967957
 20
1021.499933888867
 30
0.0
  0
VERTEX
  5
497
  8
LAYER_01
 10
2024.251719831729
 20
1013.97660975264
 30
0.0
  0
SEQEND
  5
498
  8
LAYER_01
  0
POLYLINE
  5
499
  8
LAYER_01
 66
     1
 10
0.0
 20
0.0
 30
0.0
 70
     1
  0
VERTEX
  5
49A
  8
LAYER_01
 10
2143.265086576974
 20
977.604659607885
 30
0.0
  0
VERTEX
  5
49B
  8
LAYER_01
 10
2169.438874066988
 20
988.4461973649204
 30
0.0
  0
VERTEX
  5
49C
  8
LAYER_01
 10
2187.160360857957
 20
970.7247105739516
 30
0.0
  0
VERTEX
  5
49D
  8
LAYER_01
 10
2187.160360857957
 20
995.7866775391549
 30
0.0
  0
VERTEX
  5
49E
  8
LAYER_01
 10
2213.334148347971
 20
1006.62821529619
 30
0.0
  0
VERTEX
  5
49F
  8
LAYER_01
 10
2184.310592659666
 20
1018.650165690577
 30
0.0
  0
VERTEX
  5
4A0
  8
LAYER_01
 10
2172.288642265279
 20
1047.673721378882
 30
0.0
  0
VERTEX
  5
4A1
  8
LAYER_01
 10
2161.447104508244
 20
1021.499933888868
 30
0.0
  0
VERTEX
  5
4A2
  8
LAYER_01
 10
2136.38513754304
 20
1021.499933888868
 30
0.0
  0
VERTEX
  5
4A3
  8
LAYER_01
 10
2154.106624334009
 20
1003.7784470979
 30
0.0
  0
SEQEND
  5
4A4
  8
LAYER_01
  0
POLYLINE
  5
4A5
  8
LAYER_01
 66
     1
 10
0.0
 20
0.0
 30
0.0
 70
     1
  0
VERTEX
  5
4A6
  8
LAYER_01
 10
2084.828780491905
 20
953.399549092464
 30
0.0
  0
VERTEX
  5
4A7
  8
LAYER_01
 10
2117.133827279446
 20
966.7807376049611
 30
0.0
  0
VERTEX
  5
4A8
  8
LAYER_01
 10
2130.515015791944
 20
999.0857843925028
 30
0.0
  0
VERTEX
  5
4A9
  8
LAYER_01
 10
2108.100866295579
 20
1021.499933888868
 30
0.0
  0
VERTEX
  5
4AA
  8
LAYER_01
 10
2062.414630995539
 20
1021.499933888868
 30
0.0
  0
VERTEX
  5
4AB
  8
LAYER_01
 10
2062.414630995539
 20
975.8136985888291
 30
0.0
  0
SEQEND
  5
4AC
  8
LAYER_01
  0
POLYLINE
  5
4AD
  8
LAYER_01
 66
     1
 10
0.0
 20
0.0
 30
0.0
 70
     1
  0
VERTEX
  5
4AE
  8
LAYER_01
 10
2077.286349588218
 20
870.5804165364375
 30
0.0
  0
VERTEX
  5
4AF
  8
LAYER_01
 10
2088.127887345253
 20
896.7542040264507
 30
0.0
  0
VERTEX
  5
4B0
  8
LAYER_01
 10
2113.189854310456
 20
896.7542040264509
 30
0.0
  0
VERTEX
  5
4B1
  8
LAYER_01
 10
2095.468367519487
 20
914.475690817419
 30
0.0
  0
VERTEX
  5
4B2
  8
LAYER_01
 10
2106.309905276523
 20
940.6494783074336
 30
0.0
  0
VERTEX
  5
4B3
  8
LAYER_01
 10
2080.136117786508
 20
929.8079405503981
 30
0.0
  0
VERTEX
  5
4B4
  8
LAYER_01
 10
2062.41463099554
 20
947.529427341367
 30
0.0
  0
VERTEX
  5
4B5
  8
LAYER_01
 10
2062.41463099554
 20
922.4674603761637
 30
0.0
  0
VERTEX
  5
4B6
  8
LAYER_01
 10
2036.240843505524
 20
911.6259226191278
 30
0.0
  0
VERTEX
  5
4B7
  8
LAYER_01
 10
2065.264399193834
 20
899.6039722247385
 30
0.0
  0
SEQEND
  5
4B8
  8
LAYER_01
  0
POLYLINE
  5
4B9
  8
LAYER_01
 66
     1
 10
0.0
 20
0.0
 30
0.0
 70
     1
  0
VERTEX
  5
4BA
  8
LAYER_01
 10
1855.472957054404
 20
1182.755372529964
 30
0.0
  0
VERTEX
  5
4BB
  8
LAYER_01
 10
1887.778003841946
 20
1196.136561042461
 30
0.0
  0
VERTEX
  5
4BC
  8
LAYER_01
 10
1901.159192354443
 20
1228.441607830003
 30
0.0
  0
VERTEX
  5
4BD
  8
LAYER_01
 10
1878.745042858078
 20
1250.855757326368
 30
0.0
  0
VERTEX
  5
4BE
  8
LAYER_01
 10
1833.058807558039
 20
1250.855757326368
 30
0.0
  0
VERTEX
  5
4BF
  8
LAYER_01
 10
1833.058807558039
 20
1205.169522026329
 30
0.0
  0
SEQEND
  5
4C0
  8
LAYER_01
  0
POLYLINE
  5
4C1
  8
LAYER_01
 66
     1
 10
0.0
 20
0.0
 30
0.0
 70
     1
  0
VERTEX
  5
4C2
  8
LAYER_01
 10
1833.058807558038
 20
1281.495344353951
 30
0.0
  0
VERTEX
  5
4C3
  8
LAYER_01
 10
1833.058807558039
 20
1270.855757326368
 30
0.0
  0
VERTEX
  5
4C4
  8
LAYER_01
 10
1858.745042858077
 20
1270.855757326369
 30
0.0
  0
VERTEX
  5
4C5
  8
LAYER_01
 10
1840.582131694266
 20
1289.018668490179
 30
0.0
  0
SEQEND
  5
4C6
  8
LAYER_01
  0
POLYLINE
  5
4C7
  8
LAYER_01
 66
     1
 10
0.0
 20
0.0
 30
0.0
 70
     1
  0
VERTEX
  5
4C8
  8
LAYER_01
 10
1813.058807558039
 20
1225.169522026329
 30
0.0
  0
VERTEX
  5
4C9
  8
LAYER_01
 10
1813.058807558039
 20
1250.855757326368
 30
0.0
  0
VERTEX
  5
4CA
  8
LAYER_01
 10
1802.419220530455
 20
1250.855757326368
 30
0.0
  0
VERTEX
  5
4CB
  8
LAYER_01
 10
1794.895896394228
 20
1243.33243319014
 30
0.0
  0
SEQEND
  5
4CC
  8
LAYER_01
  0
POLYLINE
  5
4CD
  8
LAYER_01
 66
     1
 10
0.0
 20
0.0
 30
0.0
 70
     1
  0
VERTEX
  5
4CE
  8
LAYER_01
 10
1932.118302120417
 20
1106.110027463951
 30
0.0
  0
VERTEX
  5
4CF
  8
LAYER_01
 10
1950.281213284228
 20
1087.94711630014
 30
0.0
  0
VERTEX
  5
4D0
  8
LAYER_01
 10
1957.804537420456
 20
1095.470440436369
 30
0.0
  0
VERTEX
  5
4D1
  8
LAYER_01
 10
1957.804537420456
 20
1106.110027463951
 30
0.0
  0
SEQEND
  5
4D2
  8
LAYER_01
  0
POLYLINE
  5
4D3
  8
LAYER_01
 66
     1
 10
0.0
 20
0.0
 30
0.0
 70
     1
  0
VERTEX
  5
4D4
  8
LAYER_01
 10
1977.804537420456
 20
1151.79626276399
 30
0.0
  0
VERTEX
  5
4D5
  8
LAYER_01
 10
1977.804537420456
 20
1126.110027463951
 30
0.0
  0
VERTEX
  5
4D6
  8
LAYER_01
 10
1988.444124448039
 20
1126.110027463952
 30
0.0
  0
VERTEX
  5
4D7
  8
LAYER_01
 10
1995.967448584267
 20
1133.633351600179
 30
0.0
  0
SEQEND
  5
4D8
  8
LAYER_01
  0
POLYLINE
  5
4D9
  8
LAYER_01
 66
     1
 10
0.0
 20
0.0
 30
0.0
 70
     1
  0
VERTEX
  5
4DA
  8
LAYER_01
 10
1876.954081839022
 20
1170.005301744934
 30
0.0
  0
VERTEX
  5
4DB
  8
LAYER_01
 10
1850.780294349007
 20
1159.163763987899
 30
0.0
  0
VERTEX
  5
4DC
  8
LAYER_01
 10
1833.058807558039
 20
1176.885250778867
 30
0.0
  0
VERTEX
  5
4DD
  8
LAYER_01
 10
1833.058807558039
 20
1151.823283813664
 30
0.0
  0
VERTEX
  5
4DE
  8
LAYER_01
 10
1806.885020068025
 20
1140.981746056629
 30
0.0
  0
VERTEX
  5
4DF
  8
LAYER_01
 10
1835.90857575633
 20
1128.959795662242
 30
0.0
  0
VERTEX
  5
4E0
  8
LAYER_01
 10
1847.930526150717
 20
1099.936239973938
 30
0.0
  0
VERTEX
  5
4E1
  8
LAYER_01
 10
1858.772063907752
 20
1126.110027463951
 30
0.0
  0
VERTEX
  5
4E2
  8
LAYER_01
 10
1883.834030872955
 20
1126.110027463951
 30
0.0
  0
VERTEX
  5
4E3
  8
LAYER_01
 10
1866.112544081987
 20
1143.83151425492
 30
0.0
  0
SEQEND
  5
4E4
  8
LAYER_01
  0
POLYLINE
  5
4E5
  8
LAYER_01
 66
     1
 10
0.0
 20
0.0
 30
0.0
 70
     1
  0
VERTEX
  5
4E6
  8
LAYER_01
 10
1935.390387924091
 20
1194.210412260355
 30
0.0
  0
VERTEX
  5
4E7
  8
LAYER_01
 10
1903.085341136549
 20
1180.829223747858
 30
0.0
  0
VERTEX
  5
4E8
  8
LAYER_01
 10
1889.704152624052
 20
1148.524176960316
 30
0.0
  0
VERTEX
  5
4E9
  8
LAYER_01
 10
1912.118302120417
 20
1126.110027463951
 30
0.0
  0
VERTEX
  5
4EA
  8
LAYER_01
 10
1957.804537420456
 20
1126.110027463951
 30
0.0
  0
VERTEX
  5
4EB
  8
LAYER_01
 10
1957.804537420456
 20
1171.79626276399
 30
0.0
  0
SEQEND
  5
4EC
  8
LAYER_01
  0
POLYLINE
  5
4ED
  8
LAYER_01
 66
     1
 10
0.0
 20
0.0
 30
0.0
 70
     1
  0
VERTEX
  5
4EE
  8
LAYER_01
 10
1942.932818827777
 20
1277.029544816382
 30
0.0
  0
VERTEX
  5
4EF
  8
LAYER_01
 10
1932.091281070743
 20
1250.855757326368
 30
0.0
  0
VERTEX
  5
4F0
  8
LAYER_01
 10
1907.02931410554
 20
1250.855757326368
 30
0.0
  0
VERTEX
  5
4F1
  8
LAYER_01
 10
1924.750800896508
 20
1233.1342705354
 30
0.0
  0
VERTEX
  5
4F2
  8
LAYER_01
 10
1913.909263139473
 20
1206.960483045385
 30
0.0
  0
VERTEX
  5
4F3
  8
LAYER_01
 10
1940.083050629487
 20
1217.802020802421
 30
0.0
  0
VERTEX
  5
4F4
  8
LAYER_01
 10
1957.804537420456
 20
1200.080534011452
 30
0.0
  0
VERTEX
  5
4F5
  8
LAYER_01
 10
1957.804537420456
 20
1225.142500976655
 30
0.0
  0
VERTEX
  5
4F6
  8
LAYER_01
 10
1983.978324910471
 20
1235.984038733691
 30
0.0
  0
VERTEX
  5
4F7
  8
LAYER_01
 10
1954.954769222162
 20
1248.005989128081
 30
0.0
  0
SEQEND
  5
4F8
  8
LAYER_01
  0
POLYLINE
  5
4F9
  8
LAYER_01
 66
     1
 10
0.0
 20
0.0
 30
0.0
  0
VERTEX
  5
4FA
  8
LAYER_01
 10
2239.465407645499
 20
1229.190297566409
 30
0.0
  0
VERTEX
  5
4FB
  8
LAYER_01
 10
2207.160360857957
 20
1196.885250778867
 30
0.0
  0
VERTEX
  5
4FC
  8
LAYER_01
 10
2207.160360857957
 20
1165.18685657205
 30
0.0
  0
VERTEX
  5
4FD
  8
LAYER_01
 10
2239.465407645499
 20
1151.805668059553
 30
0.0
  0
SEQEND
  5
4FE
  8
LAYER_01
  0
POLYLINE
  5
4FF
  8
LAYER_01
 66
     1
 10
0.0
 20
0.0
 30
0.0
 70
     1
  0
VERTEX
  5
500
  8
LAYER_01
 10
2164.746211361592
 20
1182.755372529964
 30
0.0
  0
VERTEX
  5
501
  8
LAYER_01
 10
2132.44116457405
 20
1196.136561042461
 30
0.0
  0
VERTEX
  5
502
  8
LAYER_01
 10
2119.059976061553
 20
1228.441607830003
 30
0.0
  0
VERTEX
  5
503
  8
LAYER_01
 10
2141.474125557917
 20
1250.855757326368
 30
0.0
  0
VERTEX
  5
504
  8
LAYER_01
 10
2187.160360857957
 20
1250.855757326368
 30
0.0
  0
VERTEX
  5
505
  8
LAYER_01
 10
2187.160360857957
 20
1205.169522026329
 30
0.0
  0
SEQEND
  5
506
  8
LAYER_01
  0
POLYLINE
  5
507
  8
LAYER_01
 66
     1
 10
0.0
 20
0.0
 30
0.0
 70
     1
  0
VERTEX
  5
508
  8
LAYER_01
 10
2187.160360857957
 20
1281.495344353951
 30
0.0
  0
VERTEX
  5
509
  8
LAYER_01
 10
2187.160360857957
 20
1270.855757326368
 30
0.0
  0
VERTEX
  5
50A
  8
LAYER_01
 10
2161.474125557919
 20
1270.855757326369
 30
0.0
  0
VERTEX
  5
50B
  8
LAYER_01
 10
2179.63703672173
 20
1289.018668490179
 30
0.0
  0
SEQEND
  5
50C
  8
LAYER_01
  0
POLYLINE
  5
50D
  8
LAYER_01
 66
     1
 10
0.0
 20
0.0
 30
0.0
 70
     1
  0
VERTEX
  5
50E
  8
LAYER_01
 10
2207.160360857957
 20
1225.169522026329
 30
0.0
  0
VERTEX
  5
50F
  8
LAYER_01
 10
2207.160360857957
 20
1250.855757326368
 30
0.0
  0
VERTEX
  5
510
  8
LAYER_01
 10
2217.79994788554
 20
1250.855757326368
 30
0.0
  0
VERTEX
  5
511
  8
LAYER_01
 10
2225.323272021768
 20
1243.33243319014
 30
0.0
  0
SEQEND
  5
512
  8
LAYER_01
  0
POLYLINE
  5
513
  8
LAYER_01
 66
     1
 10
0.0
 20
0.0
 30
0.0
 70
     1
  0
VERTEX
  5
514
  8
LAYER_01
 10
2088.100866295579
 20
1106.110027463951
 30
0.0
  0
VERTEX
  5
515
  8
LAYER_01
 10
2069.937955131768
 20
1087.94711630014
 30
0.0
  0
VERTEX
  5
516
  8
LAYER_01
 10
2062.414630995539
 20
1095.470440436369
 30
0.0
  0
VERTEX
  5
517
  8
LAYER_01
 10
2062.41463099554
 20
1106.110027463951
 30
0.0
  0
SEQEND
  5
518
  8
LAYER_01
  0
POLYLINE
  5
519
  8
LAYER_01
 66
     1
 10
0.0
 20
0.0
 30
0.0
 70
     1
  0
VERTEX
  5
51A
  8
LAYER_01
 10
2042.41463099554
 20
1151.79626276399
 30
0.0
  0
VERTEX
  5
51B
  8
LAYER_01
 10
2042.41463099554
 20
1126.110027463951
 30
0.0
  0
VERTEX
  5
51C
  8
LAYER_01
 10
2031.775043967957
 20
1126.110027463952
 30
0.0
  0
VERTEX
  5
51D
  8
LAYER_01
 10
2024.251719831729
 20
1133.633351600179
 30
0.0
  0
SEQEND
  5
51E
  8
LAYER_01
  0
POLYLINE
  5
51F
  8
LAYER_01
 66
     1
 10
0.0
 20
0.0
 30
0.0
 70
     1
  0
VERTEX
  5
520
  8
LAYER_01
 10
2143.265086576974
 20
1170.005301744934
 30
0.0
  0
VERTEX
  5
521
  8
LAYER_01
 10
2169.438874066988
 20
1159.163763987899
 30
0.0
  0
VERTEX
  5
522
  8
LAYER_01
 10
2187.160360857957
 20
1176.885250778867
 30
0.0
  0
VERTEX
  5
523
  8
LAYER_01
 10
2187.160360857957
 20
1151.823283813664
 30
0.0
  0
VERTEX
  5
524
  8
LAYER_01
 10
2213.334148347971
 20
1140.981746056629
 30
0.0
  0
VERTEX
  5
525
  8
LAYER_01
 10
2184.310592659666
 20
1128.959795662242
 30
0.0
  0
VERTEX
  5
526
  8
LAYER_01
 10
2172.288642265279
 20
1099.936239973938
 30
0.0
  0
VERTEX
  5
527
  8
LAYER_01
 10
2161.447104508244
 20
1126.110027463951
 30
0.0
  0
VERTEX
  5
528
  8
LAYER_01
 10
2136.38513754304
 20
1126.110027463951
 30
0.0
  0
VERTEX
  5
529
  8
LAYER_01
 10
2154.106624334009
 20
1143.83151425492
 30
0.0
  0
SEQEND
  5
52A
  8
LAYER_01
  0
POLYLINE
  5
52B
  8
LAYER_01
 66
     1
 10
0.0
 20
0.0
 30
0.0
 70
     1
  0
VERTEX
  5
52C
  8
LAYER_01
 10
2084.828780491905
 20
1194.210412260355
 30
0.0
  0
VERTEX
  5
52D
  8
LAYER_01
 10
2117.133827279446
 20
1180.829223747858
 30
0.0
  0
VERTEX
  5
52E
  8
LAYER_01
 10
2130.515015791944
 20
1148.524176960316
 30
0.0
  0
VERTEX
  5
52F
  8
LAYER_01
 10
2108.100866295579
 20
1126.110027463951
 30
0.0
  0
VERTEX
  5
530
  8
LAYER_01
 10
2062.414630995539
 20
1126.110027463951
 30
0.0
  0
VERTEX
  5
531
  8
LAYER_01
 10
2062.414630995539
 20
1171.79626276399
 30
0.0
  0
SEQEND
  5
532
  8
LAYER_01
  0
POLYLINE
  5
533
  8
LAYER_01
 66
     1
 10
0.0
 20
0.0
 30
0.0
 70
     1
  0
VERTEX
  5
534
  8
LAYER_01
 10
2077.286349588218
 20
1277.029544816382
 30
0.0
  0
VERTEX
  5
535
  8
LAYER_01
 10
2088.127887345253
 20
1250.855757326368
 30
0.0
  0
VERTEX
  5
536
  8
LAYER_01
 10
2113.189854310456
 20
1250.855757326368
 30
0.0
  0
VERTEX
  5
537
  8
LAYER_01
 10
2095.468367519487
 20
1233.1342705354
 30
0.0
  0
VERTEX
  5
538
  8
LAYER_01
 10
2106.309905276523
 20
1206.960483045385
 30
0.0
  0
VERTEX
  5
539
  8
LAYER_01
 10
2080.136117786508
 20
1217.802020802421
 30
0.0
  0
VERTEX
  5
53A
  8
LAYER_01
 10
2062.41463099554
 20
1200.080534011452
 30
0.0
  0
VERTEX
  5
53B
  8
LAYER_01
 10
2062.41463099554
 20
1225.142500976655
 30
0.0
  0
VERTEX
  5
53C
  8
LAYER_01
 10
2036.240843505524
 20
1235.984038733691
 30
0.0
  0
VERTEX
  5
53D
  8
LAYER_01
 10
2065.264399193834
 20
1248.005989128081
 30
0.0
  0
SEQEND
  5
53E
  8
LAYER_01
  0
POLYLINE
  5
53F
  8
LAYER_01
 66
     1
 10
0.0
 20
0.0
 30
0.0
  0
VERTEX
  5
540
  8
LAYER_01
 10
1495.045093955698
 20
844.4491572389088
 30
0.0
  0
VERTEX
  5
541
  8
LAYER_01
 10
1511.550459641765
 20
884.2966349301387
 30
0.0
  0
VERTEX
  5
542
  8
LAYER_01
 10
1551.397937332995
 20
900.8020006162049
 30
0.0
  0
VERTEX
  5
543
  8
LAYER_01
 10
1591.245415024225
 20
884.2966349301387
 30
0.0
  0
VERTEX
  5
544
  8
LAYER_01
 10
1607.750780710291
 20
844.4491572389088
 30
0.0
  0
SEQEND
  5
545
  8
LAYER_01
  0
POLYLINE
  5
546
  8
LAYER_01
 66
     1
 10
0.0
 20
0.0
 30
0.0
  0
VERTEX
  5
547
  8
LAYER_01
 10
1322.042113895493
 20
1130.157824053706
 30
0.0
  0
VERTEX
  5
548
  8
LAYER_01
 10
1361.889591586721
 20
1113.65245836764
 30
0.0
  0
VERTEX
  5
549
  8
LAYER_01
 10
1378.394957272788
 20
1073.80498067641
 30
0.0
  0
VERTEX
  5
54A
  8
LAYER_01
 10
1361.889591586721
 20
1033.957502985179
 30
0.0
  0
VERTEX
  5
54B
  8
LAYER_01
 10
1322.042113895493
 20
1017.452137299113
 30
0.0
  0
SEQEND
  5
54C
  8
LAYER_01
  0
POLYLINE
  5
54D
  8
LAYER_01
 66
     1
 10
0.0
 20
0.0
 30
0.0
 70
     1
  0
VERTEX
  5
54E
  8
LAYER_01
 10
1551.397937332994
 20
999.8344741289088
 30
0.0
  0
VERTEX
  5
54F
  8
LAYER_01
 10
1519.092890545453
 20
967.5294273413665
 30
0.0
  0
VERTEX
  5
550
  8
LAYER_01
 10
1519.092890545453
 20
935.8310331345494
 30
0.0
  0
VERTEX
  5
551
  8
LAYER_01
 10
1551.397937332995
 20
922.4498446220528
 30
0.0
  0
VERTEX
  5
552
  8
LAYER_01
 10
1583.702984120537
 20
935.8310331345494
 30
0.0
  0
VERTEX
  5
553
  8
LAYER_01
 10
1583.702984120537
 20
967.5294273413665
 30
0.0
  0
SEQEND
  5
554
  8
LAYER_01
  0
POLYLINE
  5
555
  8
LAYER_01
 66
     1
 10
0.0
 20
0.0
 30
0.0
 70
     1
  0
VERTEX
  5
556
  8
LAYER_01
 10
1477.427430785494
 20
1073.804980676409
 30
0.0
  0
VERTEX
  5
557
  8
LAYER_01
 10
1445.122383997952
 20
1106.110027463951
 30
0.0
  0
VERTEX
  5
558
  8
LAYER_01
 10
1413.423989791135
 20
1106.110027463951
 30
0.0
  0
VERTEX
  5
559
  8
LAYER_01
 10
1400.042801278638
 20
1073.80498067641
 30
0.0
  0
VERTEX
  5
55A
  8
LAYER_01
 10
1413.423989791135
 20
1041.499933888868
 30
0.0
  0
VERTEX
  5
55B
  8
LAYER_01
 10
1445.122383997952
 20
1041.499933888868
 30
0.0
  0
SEQEND
  5
55C
  8
LAYER_01
  0
POLYLINE
  5
55D
  8
LAYER_01
 66
     1
 10
0.0
 20
0.0
 30
0.0
 70
     1
  0
VERTEX
  5
55E
  8
LAYER_01
 10
1551.397937332994
 20
1028.11874537637
 30
0.0
  0
VERTEX
  5
55F
  8
LAYER_01
 10
1538.016748820497
 20
1041.499933888868
 30
0.0
  0
VERTEX
  5
560
  8
LAYER_01
 10
1519.092890545453
 20
1041.499933888868
 30
0.0
  0
VERTEX
  5
561
  8
LAYER_01
 10
1519.092890545453
 20
1060.423792163913
 30
0.0
  0
VERTEX
  5
562
  8
LAYER_01
 10
1505.711702032956
 20
1073.80498067641
 30
0.0
  0
VERTEX
  5
563
  8
LAYER_01
 10
1519.092890545453
 20
1087.186169188906
 30
0.0
  0
VERTEX
  5
564
  8
LAYER_01
 10
1519.092890545453
 20
1106.110027463951
 30
0.0
  0
VERTEX
  5
565
  8
LAYER_01
 10
1538.016748820497
 20
1106.110027463951
 30
0.0
  0
VERTEX
  5
566
  8
LAYER_01
 10
1551.397937332995
 20
1119.491215976449
 30
0.0
  0
VERTEX
  5
567
  8
LAYER_01
 10
1564.779125845492
 20
1106.110027463951
 30
0.0
  0
VERTEX
  5
568
  8
LAYER_01
 10
1583.702984120536
 20
1106.110027463951
 30
0.0
  0
VERTEX
  5
569
  8
LAYER_01
 10
1583.702984120536
 20
1087.186169188906
 30
0.0
  0
VERTEX
  5
56A
  8
LAYER_01
 10
1597.084172633033
 20
1073.80498067641
 30
0.0
  0
VERTEX
  5
56B
  8
LAYER_01
 10
1583.702984120536
 20
1060.423792163913
 30
0.0
  0
VERTEX
  5
56C
  8
LAYER_01
 10
1583.702984120536
 20
1041.499933888868
 30
0.0
  0
VERTEX
  5
56D
  8
LAYER_01
 10
1564.779125845492
 20
1041.499933888868
 30
0.0
  0
SEQEND
  5
56E
  8
LAYER_01
  0
POLYLINE
  5
56F
  8
LAYER_01
 66
     1
 10
0.0
 20
0.0
 30
0.0
 70
     1
  0
VERTEX
  5
570
  8
LAYER_01
 10
1625.368443880495
 20
1073.804980676409
 30
0.0
  0
VERTEX
  5
571
  8
LAYER_01
 10
1657.673490668037
 20
1106.110027463951
 30
0.0
  0
VERTEX
  5
572
  8
LAYER_01
 10
1689.371884874854
 20
1106.110027463951
 30
0.0
  0
VERTEX
  5
573
  8
LAYER_01
 10
1702.753073387351
 20
1073.80498067641
 30
0.0
  0
VERTEX
  5
574
  8
LAYER_01
 10
1689.371884874854
 20
1041.499933888868
 30
0.0
  0
VERTEX
  5
575
  8
LAYER_01
 10
1657.673490668037
 20
1041.499933888868
 30
0.0
  0
SEQEND
  5
576
  8
LAYER_01
  0
POLYLINE
  5
577
  8
LAYER_01
 66
     1
 10
0.0
 20
0.0
 30
0.0
 70
     1
  0
VERTEX
  5
578
  8
LAYER_01
 10
1551.397937332994
 20
1147.77548722391
 30
0.0
  0
VERTEX
  5
579
  8
LAYER_01
 10
1519.092890545453
 20
1180.080534011453
 30
0.0
  0
VERTEX
  5
57A
  8
LAYER_01
 10
1519.092890545453
 20
1211.77892821827
 30
0.0
  0
VERTEX
  5
57B
  8
LAYER_01
 10
1551.397937332995
 20
1225.160116730766
 30
0.0
  0
VERTEX
  5
57C
  8
LAYER_01
 10
1583.702984120537
 20
1211.77892821827
 30
0.0
  0
VERTEX
  5
57D
  8
LAYER_01
 10
1583.702984120537
 20
1180.080534011453
 30
0.0
  0
SEQEND
  5
57E
  8
LAYER_01
  0
POLYLINE
  5
57F
  8
LAYER_01
 66
     1
 10
0.0
 20
0.0
 30
0.0
  0
VERTEX
  5
580
  8
LAYER_01
 10
1367.728349195532
 20
844.4491572389088
 30
0.0
  0
VERTEX
  5
581
  8
LAYER_01
 10
1354.347160683035
 20
857.8303457514062
 30
0.0
  0
VERTEX
  5
582
  8
LAYER_01
 10
1354.347160683036
 20
876.7542040264509
 30
0.0
  0
VERTEX
  5
583
  8
LAYER_01
 10
1335.42330240799
 20
876.7542040264509
 30
0.0
  0
VERTEX
  5
584
  8
LAYER_01
 10
1322.042113895493
 20
890.135392538948
 30
0.0
  0
SEQEND
  5
585
  8
LAYER_01
  0
POLYLINE
  5
586
  8
LAYER_01
 66
     1
 10
0.0
 20
0.0
 30
0.0
  0
VERTEX
  5
587
  8
LAYER_01
 10
1473.39724994985
 20
844.4491572389088
 30
0.0
  0
VERTEX
  5
588
  8
LAYER_01
 10
1460.016061437353
 20
876.7542040264505
 30
0.0
  0
VERTEX
  5
589
  8
LAYER_01
 10
1428.317667230536
 20
876.7542040264507
 30
0.0
  0
VERTEX
  5
58A
  8
LAYER_01
 10
1396.012620442994
 20
844.4491572389088
 30
0.0
  0
SEQEND
  5
58B
  8
LAYER_01
  0
POLYLINE
  5
58C
  8
LAYER_01
 66
     1
 10
0.0
 20
0.0
 30
0.0
  0
VERTEX
  5
58D
  8
LAYER_01
 10
1322.042113895493
 20
918.4196637864097
 30
0.0
  0
VERTEX
  5
58E
  8
LAYER_01
 10
1354.347160683035
 20
950.724710573952
 30
0.0
  0
VERTEX
  5
58F
  8
LAYER_01
 10
1354.347160683035
 20
982.4231047807691
 30
0.0
  0
VERTEX
  5
590
  8
LAYER_01
 10
1322.042113895493
 20
995.8042932932663
 30
0.0
  0
SEQEND
  5
591
  8
LAYER_01
  0
POLYLINE
  5
592
  8
LAYER_01
 66
     1
 10
0.0
 20
0.0
 30
0.0
 70
     1
  0
VERTEX
  5
593
  8
LAYER_01
 10
1396.7613101794
 20
964.8545888228546
 30
0.0
  0
VERTEX
  5
594
  8
LAYER_01
 10
1429.066356966942
 20
951.4734003103576
 30
0.0
  0
VERTEX
  5
595
  8
LAYER_01
 10
1442.44754547944
 20
919.1683535228158
 30
0.0
  0
VERTEX
  5
596
  8
LAYER_01
 10
1420.033395983075
 20
896.7542040264511
 30
0.0
  0
VERTEX
  5
597
  8
LAYER_01
 10
1374.347160683035
 20
896.7542040264507
 30
0.0
  0
VERTEX
  5
598
  8
LAYER_01
 10
1374.347160683035
 20
942.4404393264897
 30
0.0
  0
SEQEND
  5
599
  8
LAYER_01
  0
POLYLINE
  5
59A
  8
LAYER_01
 66
     1
 10
0.0
 20
0.0
 30
0.0
 70
     1
  0
VERTEX
  5
59B
  8
LAYER_01
 10
1374.347160683035
 20
866.1146169988683
 30
0.0
  0
VERTEX
  5
59C
  8
LAYER_01
 10
1374.347160683036
 20
876.7542040264507
 30
0.0
  0
VERTEX
  5
59D
  8
LAYER_01
 10
1400.033395983074
 20
876.7542040264502
 30
0.0
  0
VERTEX
  5
59E
  8
LAYER_01
 10
1381.870484819263
 20
858.5912928626396
 30
0.0
  0
SEQEND
  5
59F
  8
LAYER_01
  0
POLYLINE
  5
5A0
  8
LAYER_01
 66
     1
 10
0.0
 20
0.0
 30
0.0
 70
     1
  0
VERTEX
  5
5A1
  8
LAYER_01
 10
1354.347160683036
 20
922.4404393264897
 30
0.0
  0
VERTEX
  5
5A2
  8
LAYER_01
 10
1354.347160683036
 20
896.7542040264507
 30
0.0
  0
VERTEX
  5
5A3
  8
LAYER_01
 10
1343.707573655452
 20
896.7542040264511
 30
0.0
  0
VERTEX
  5
5A4
  8
LAYER_01
 10
1336.184249519225
 20
904.2775281626789
 30
0.0
  0
SEQEND
  5
5A5
  8
LAYER_01
  0
POLYLINE
  5
5A6
  8
LAYER_01
 66
     1
 10
0.0
 20
0.0
 30
0.0
 70
     1
  0
VERTEX
  5
5A7
  8
LAYER_01
 10
1473.406655245414
 20
1041.499933888868
 30
0.0
  0
VERTEX
  5
5A8
  8
LAYER_01
 10
1491.569566409225
 20
1059.662845052679
 30
0.0
  0
VERTEX
  5
5A9
  8
LAYER_01
 10
1499.092890545453
 20
1052.13952091645
 30
0.0
  0
VERTEX
  5
5AA
  8
LAYER_01
 10
1499.092890545453
 20
1041.499933888868
 30
0.0
  0
SEQEND
  5
5AB
  8
LAYER_01
  0
POLYLINE
  5
5AC
  8
LAYER_01
 66
     1
 10
0.0
 20
0.0
 30
0.0
 70
     1
  0
VERTEX
  5
5AD
  8
LAYER_01
 10
1519.092890545453
 20
995.8136985888291
 30
0.0
  0
VERTEX
  5
5AE
  8
LAYER_01
 10
1519.092890545453
 20
1021.499933888868
 30
0.0
  0
VERTEX
  5
5AF
  8
LAYER_01
 10
1529.732477573036
 20
1021.499933888867
 30
0.0
  0
VERTEX
  5
5B0
  8
LAYER_01
 10
1537.255801709263
 20
1013.97660975264
 30
0.0
  0
SEQEND
  5
5B1
  8
LAYER_01
  0
POLYLINE
  5
5B2
  8
LAYER_01
 66
     1
 10
0.0
 20
0.0
 30
0.0
 70
     1
  0
VERTEX
  5
5B3
  8
LAYER_01
 10
1418.242434964018
 20
977.604659607885
 30
0.0
  0
VERTEX
  5
5B4
  8
LAYER_01
 10
1392.068647474004
 20
988.4461973649204
 30
0.0
  0
VERTEX
  5
5B5
  8
LAYER_01
 10
1374.347160683035
 20
970.7247105739516
 30
0.0
  0
VERTEX
  5
5B6
  8
LAYER_01
 10
1374.347160683035
 20
995.7866775391549
 30
0.0
  0
VERTEX
  5
5B7
  8
LAYER_01
 10
1348.173373193022
 20
1006.62821529619
 30
0.0
  0
VERTEX
  5
5B8
  8
LAYER_01
 10
1377.196928881327
 20
1018.650165690577
 30
0.0
  0
VERTEX
  5
5B9
  8
LAYER_01
 10
1389.218879275713
 20
1047.673721378882
 30
0.0
  0
VERTEX
  5
5BA
  8
LAYER_01
 10
1400.060417032749
 20
1021.499933888868
 30
0.0
  0
VERTEX
  5
5BB
  8
LAYER_01
 10
1425.122383997952
 20
1021.499933888868
 30
0.0
  0
VERTEX
  5
5BC
  8
LAYER_01
 10
1407.400897206983
 20
1003.7784470979
 30
0.0
  0
SEQEND
  5
5BD
  8
LAYER_01
  0
POLYLINE
  5
5BE
  8
LAYER_01
 66
     1
 10
0.0
 20
0.0
 30
0.0
 70
     1
  0
VERTEX
  5
5BF
  8
LAYER_01
 10
1476.678741049088
 20
953.399549092464
 30
0.0
  0
VERTEX
  5
5C0
  8
LAYER_01
 10
1444.373694261546
 20
966.7807376049611
 30
0.0
  0
VERTEX
  5
5C1
  8
LAYER_01
 10
1430.992505749049
 20
999.0857843925028
 30
0.0
  0
VERTEX
  5
5C2
  8
LAYER_01
 10
1453.406655245414
 20
1021.499933888868
 30
0.0
  0
VERTEX
  5
5C3
  8
LAYER_01
 10
1499.092890545453
 20
1021.499933888868
 30
0.0
  0
VERTEX
  5
5C4
  8
LAYER_01
 10
1499.092890545453
 20
975.8136985888291
 30
0.0
  0
SEQEND
  5
5C5
  8
LAYER_01
  0
POLYLINE
  5
5C6
  8
LAYER_01
 66
     1
 10
0.0
 20
0.0
 30
0.0
 70
     1
  0
VERTEX
  5
5C7
  8
LAYER_01
 10
1484.221171952774
 20
870.5804165364375
 30
0.0
  0
VERTEX
  5
5C8
  8
LAYER_01
 10
1473.379634195739
 20
896.7542040264507
 30
0.0
  0
VERTEX
  5
5C9
  8
LAYER_01
 10
1448.317667230537
 20
896.7542040264509
 30
0.0
  0
VERTEX
  5
5CA
  8
LAYER_01
 10
1466.039154021505
 20
914.475690817419
 30
0.0
  0
VERTEX
  5
5CB
  8
LAYER_01
 10
1455.19761626447
 20
940.6494783074336
 30
0.0
  0
VERTEX
  5
5CC
  8
LAYER_01
 10
1481.371403754484
 20
929.8079405503981
 30
0.0
  0
VERTEX
  5
5CD
  8
LAYER_01
 10
1499.092890545453
 20
947.529427341367
 30
0.0
  0
VERTEX
  5
5CE
  8
LAYER_01
 10
1499.092890545453
 20
922.4674603761637
 30
0.0
  0
VERTEX
  5
5CF
  8
LAYER_01
 10
1525.266678035468
 20
911.6259226191278
 30
0.0
  0
VERTEX
  5
5D0
  8
LAYER_01
 10
1496.243122347159
 20
899.6039722247385
 30
0.0
  0
SEQEND
  5
5D1
  8
LAYER_01
  0
POLYLINE
  5
5D2
  8
LAYER_01
 66
     1
 10
0.0
 20
0.0
 30
0.0
  0
VERTEX
  5
5D3
  8
LAYER_01
 10
1629.398624716139
 20
844.4491572389088
 30
0.0
  0
VERTEX
  5
5D4
  8
LAYER_01
 10
1642.779813228636
 20
876.7542040264505
 30
0.0
  0
VERTEX
  5
5D5
  8
LAYER_01
 10
1674.478207435453
 20
876.7542040264507
 30
0.0
  0
VERTEX
  5
5D6
  8
LAYER_01
 10
1706.783254222995
 20
844.4491572389088
 30
0.0
  0
SEQEND
  5
5D7
  8
LAYER_01
  0
POLYLINE
  5
5D8
  8
LAYER_01
 66
     1
 10
0.0
 20
0.0
 30
0.0
 70
     1
  0
VERTEX
  5
5D9
  8
LAYER_01
 10
1706.034564486589
 20
964.8545888228546
 30
0.0
  0
VERTEX
  5
5DA
  8
LAYER_01
 10
1673.729517699047
 20
951.4734003103576
 30
0.0
  0
VERTEX
  5
5DB
  8
LAYER_01
 10
1660.34832918655
 20
919.1683535228158
 30
0.0
  0
VERTEX
  5
5DC
  8
LAYER_01
 10
1682.762478682914
 20
896.7542040264511
 30
0.0
  0
VERTEX
  5
5DD
  8
LAYER_01
 10
1728.448713982954
 20
896.7542040264507
 30
0.0
  0
VERTEX
  5
5DE
  8
LAYER_01
 10
1728.448713982954
 20
942.4404393264897
 30
0.0
  0
SEQEND
  5
5DF
  8
LAYER_01
  0
POLYLINE
  5
5E0
  8
LAYER_01
 66
     1
 10
0.0
 20
0.0
 30
0.0
 70
     1
  0
VERTEX
  5
5E1
  8
LAYER_01
 10
1728.448713982954
 20
866.1146169988683
 30
0.0
  0
VERTEX
  5
5E2
  8
LAYER_01
 10
1728.448713982954
 20
876.7542040264507
 30
0.0
  0
VERTEX
  5
5E3
  8
LAYER_01
 10
1702.762478682916
 20
876.7542040264502
 30
0.0
  0
VERTEX
  5
5E4
  8
LAYER_01
 10
1720.925389846726
 20
858.5912928626396
 30
0.0
  0
SEQEND
  5
5E5
  8
LAYER_01
  0
POLYLINE
  5
5E6
  8
LAYER_01
 66
     1
 10
0.0
 20
0.0
 30
0.0
 70
     1
  0
VERTEX
  5
5E7
  8
LAYER_01
 10
1748.448713982954
 20
922.4404393264897
 30
0.0
  0
VERTEX
  5
5E8
  8
LAYER_01
 10
1748.448713982954
 20
896.7542040264507
 30
0.0
  0
VERTEX
  5
5E9
  8
LAYER_01
 10
1759.088301010537
 20
896.7542040264511
 30
0.0
  0
VERTEX
  5
5EA
  8
LAYER_01
 10
1766.611625146765
 20
904.2775281626789
 30
0.0
  0
SEQEND
  5
5EB
  8
LAYER_01
  0
POLYLINE
  5
5EC
  8
LAYER_01
 66
     1
 10
0.0
 20
0.0
 30
0.0
 70
     1
  0
VERTEX
  5
5ED
  8
LAYER_01
 10
1629.389219420576
 20
1041.499933888868
 30
0.0
  0
VERTEX
  5
5EE
  8
LAYER_01
 10
1611.226308256764
 20
1059.662845052679
 30
0.0
  0
VERTEX
  5
5EF
  8
LAYER_01
 10
1603.702984120536
 20
1052.13952091645
 30
0.0
  0
VERTEX
  5
5F0
  8
LAYER_01
 10
1603.702984120537
 20
1041.499933888868
 30
0.0
  0
SEQEND
  5
5F1
  8
LAYER_01
  0
POLYLINE
  5
5F2
  8
LAYER_01
 66
     1
 10
0.0
 20
0.0
 30
0.0
 70
     1
  0
VERTEX
  5
5F3
  8
LAYER_01
 10
1583.702984120537
 20
995.8136985888291
 30
0.0
  0
VERTEX
  5
5F4
  8
LAYER_01
 10
1583.702984120537
 20
1021.499933888868
 30
0.0
  0
VERTEX
  5
5F5
  8
LAYER_01
 10
1573.063397092953
 20
1021.499933888867
 30
0.0
  0
VERTEX
  5
5F6
  8
LAYER_01
 10
1565.540072956726
 20
1013.97660975264
 30
0.0
  0
SEQEND
  5
5F7
  8
LAYER_01
  0
POLYLINE
  5
5F8
  8
LAYER_01
 66
     1
 10
0.0
 20
0.0
 30
0.0
 70
     1
  0
VERTEX
  5
5F9
  8
LAYER_01
 10
1684.553439701971
 20
977.604659607885
 30
0.0
  0
VERTEX
  5
5FA
  8
LAYER_01
 10
1710.727227191985
 20
988.4461973649204
 30
0.0
  0
VERTEX
  5
5FB
  8
LAYER_01
 10
1728.448713982954
 20
970.7247105739516
 30
0.0
  0
VERTEX
  5
5FC
  8
LAYER_01
 10
1728.448713982954
 20
995.7866775391549
 30
0.0
  0
VERTEX
  5
5FD
  8
LAYER_01
 10
1754.622501472968
 20
1006.62821529619
 30
0.0
  0
VERTEX
  5
5FE
  8
LAYER_01
 10
1725.598945784663
 20
1018.650165690577
 30
0.0
  0
VERTEX
  5
5FF
  8
LAYER_01
 10
1713.576995390276
 20
1047.673721378882
 30
0.0
  0
VERTEX
  5
600
  8
LAYER_01
 10
1702.735457633241
 20
1021.499933888868
 30
0.0
  0
VERTEX
  5
601
  8
LAYER_01
 10
1677.673490668037
 20
1021.499933888868
 30
0.0
  0
VERTEX
  5
602
  8
LAYER_01
 10
1695.394977459006
 20
1003.7784470979
 30
0.0
  0
SEQEND
  5
603
  8
LAYER_01
  0
POLYLINE
  5
604
  8
LAYER_01
 66
     1
 10
0.0
 20
0.0
 30
0.0
 70
     1
  0
VERTEX
  5
605
  8
LAYER_01
 10
1626.117133616902
 20
953.399549092464
 30
0.0
  0
VERTEX
  5
606
  8
LAYER_01
 10
1658.422180404443
 20
966.7807376049611
 30
0.0
  0
VERTEX
  5
607
  8
LAYER_01
 10
1671.803368916941
 20
999.0857843925028
 30
0.0
  0
VERTEX
  5
608
  8
LAYER_01
 10
1649.389219420576
 20
1021.499933888868
 30
0.0
  0
VERTEX
  5
609
  8
LAYER_01
 10
1603.702984120536
 20
1021.499933888868
 30
0.0
  0
VERTEX
  5
60A
  8
LAYER_01
 10
1603.702984120536
 20
975.8136985888291
 30
0.0
  0
SEQEND
  5
60B
  8
LAYER_01
  0
POLYLINE
  5
60C
  8
LAYER_01
 66
     1
 10
0.0
 20
0.0
 30
0.0
 70
     1
  0
VERTEX
  5
60D
  8
LAYER_01
 10
1618.574702713215
 20
870.5804165364375
 30
0.0
  0
VERTEX
  5
60E
  8
LAYER_01
 10
1629.41624047025
 20
896.7542040264507
 30
0.0
  0
VERTEX
  5
60F
  8
LAYER_01
 10
1654.478207435453
 20
896.7542040264509
 30
0.0
  0
VERTEX
  5
610
  8
LAYER_01
 10
1636.756720644484
 20
914.475690817419
 30
0.0
  0
VERTEX
  5
611
  8
LAYER_01
 10
1647.59825840152
 20
940.6494783074336
 30
0.0
  0
VERTEX
  5
612
  8
LAYER_01
 10
1621.424470911505
 20
929.8079405503981
 30
0.0
  0
VERTEX
  5
613
  8
LAYER_01
 10
1603.702984120537
 20
947.529427341367
 30
0.0
  0
VERTEX
  5
614
  8
LAYER_01
 10
1603.702984120537
 20
922.4674603761637
 30
0.0
  0
VERTEX
  5
615
  8
LAYER_01
 10
1577.529196630521
 20
911.6259226191278
 30
0.0
  0
VERTEX
  5
616
  8
LAYER_01
 10
1606.552752318831
 20
899.6039722247385
 30
0.0
  0
SEQEND
  5
617
  8
LAYER_01
  0
POLYLINE
  5
618
  8
LAYER_01
 66
     1
 10
0.0
 20
0.0
 30
0.0
  0
VERTEX
  5
619
  8
LAYER_01
 10
1322.042113895493
 20
1229.190297566409
 30
0.0
  0
VERTEX
  5
61A
  8
LAYER_01
 10
1354.347160683035
 20
1196.885250778867
 30
0.0
  0
VERTEX
  5
61B
  8
LAYER_01
 10
1354.347160683035
 20
1165.18685657205
 30
0.0
  0
VERTEX
  5
61C
  8
LAYER_01
 10
1322.042113895493
 20
1151.805668059553
 30
0.0
  0
SEQEND
  5
61D
  8
LAYER_01
  0
POLYLINE
  5
61E
  8
LAYER_01
 66
     1
 10
0.0
 20
0.0
 30
0.0
 70
     1
  0
VERTEX
  5
61F
  8
LAYER_01
 10
1396.7613101794
 20
1182.755372529964
 30
0.0
  0
VERTEX
  5
620
  8
LAYER_01
 10
1429.066356966942
 20
1196.136561042461
 30
0.0
  0
VERTEX
  5
621
  8
LAYER_01
 10
1442.44754547944
 20
1228.441607830003
 30
0.0
  0
VERTEX
  5
622
  8
LAYER_01
 10
1420.033395983075
 20
1250.855757326368
 30
0.0
  0
VERTEX
  5
623
  8
LAYER_01
 10
1374.347160683035
 20
1250.855757326368
 30
0.0
  0
VERTEX
  5
624
  8
LAYER_01
 10
1374.347160683035
 20
1205.169522026329
 30
0.0
  0
SEQEND
  5
625
  8
LAYER_01
  0
POLYLINE
  5
626
  8
LAYER_01
 66
     1
 10
0.0
 20
0.0
 30
0.0
 70
     1
  0
VERTEX
  5
627
  8
LAYER_01
 10
1374.347160683035
 20
1281.495344353951
 30
0.0
  0
VERTEX
  5
628
  8
LAYER_01
 10
1374.347160683036
 20
1270.855757326368
 30
0.0
  0
VERTEX
  5
629
  8
LAYER_01
 10
1400.033395983074
 20
1270.855757326369
 30
0.0
  0
VERTEX
  5
62A
  8
LAYER_01
 10
1381.870484819263
 20
1289.018668490179
 30
0.0
  0
SEQEND
  5
62B
  8
LAYER_01
  0
POLYLINE
  5
62C
  8
LAYER_01
 66
     1
 10
0.0
 20
0.0
 30
0.0
 70
     1
  0
VERTEX
  5
62D
  8
LAYER_01
 10
1354.347160683036
 20
1225.169522026329
 30
0.0
  0
VERTEX
  5
62E
  8
LAYER_01
 10
1354.347160683036
 20
1250.855757326368
 30
0.0
  0
VERTEX
  5
62F
  8
LAYER_01
 10
1343.707573655452
 20
1250.855757326368
 30
0.0
  0
VERTEX
  5
630
  8
LAYER_01
 10
1336.184249519225
 20
1243.33243319014
 30
0.0
  0
SEQEND
  5
631
  8
LAYER_01
  0
POLYLINE
  5
632
  8
LAYER_01
 66
     1
 10
0.0
 20
0.0
 30
0.0
 70
     1
  0
VERTEX
  5
633
  8
LAYER_01
 10
1473.406655245414
 20
1106.110027463951
 30
0.0
  0
VERTEX
  5
634
  8
LAYER_01
 10
1491.569566409225
 20
1087.94711630014
 30
0.0
  0
VERTEX
  5
635
  8
LAYER_01
 10
1499.092890545453
 20
1095.470440436369
 30
0.0
  0
VERTEX
  5
636
  8
LAYER_01
 10
1499.092890545453
 20
1106.110027463951
 30
0.0
  0
SEQEND
  5
637
  8
LAYER_01
  0
POLYLINE
  5
638
  8
LAYER_01
 66
     1
 10
0.0
 20
0.0
 30
0.0
 70
     1
  0
VERTEX
  5
639
  8
LAYER_01
 10
1519.092890545453
 20
1151.79626276399
 30
0.0
  0
VERTEX
  5
63A
  8
LAYER_01
 10
1519.092890545453
 20
1126.110027463951
 30
0.0
  0
VERTEX
  5
63B
  8
LAYER_01
 10
1529.732477573036
 20
1126.110027463952
 30
0.0
  0
VERTEX
  5
63C
  8
LAYER_01
 10
1537.255801709263
 20
1133.633351600179
 30
0.0
  0
SEQEND
  5
63D
  8
LAYER_01
  0
POLYLINE
  5
63E
  8
LAYER_01
 66
     1
 10
0.0
 20
0.0
 30
0.0
 70
     1
  0
VERTEX
  5
63F
  8
LAYER_01
 10
1418.242434964018
 20
1170.005301744934
 30
0.0
  0
VERTEX
  5
640
  8
LAYER_01
 10
1392.068647474004
 20
1159.163763987899
 30
0.0
  0
VERTEX
  5
641
  8
LAYER_01
 10
1374.347160683035
 20
1176.885250778867
 30
0.0
  0
VERTEX
  5
642
  8
LAYER_01
 10
1374.347160683035
 20
1151.823283813664
 30
0.0
  0
VERTEX
  5
643
  8
LAYER_01
 10
1348.173373193022
 20
1140.981746056629
 30
0.0
  0
VERTEX
  5
644
  8
LAYER_01
 10
1377.196928881327
 20
1128.959795662242
 30
0.0
  0
VERTEX
  5
645
  8
LAYER_01
 10
1389.218879275713
 20
1099.936239973938
 30
0.0
  0
VERTEX
  5
646
  8
LAYER_01
 10
1400.060417032749
 20
1126.110027463951
 30
0.0
  0
VERTEX
  5
647
  8
LAYER_01
 10
1425.122383997952
 20
1126.110027463951
 30
0.0
  0
VERTEX
  5
648
  8
LAYER_01
 10
1407.400897206983
 20
1143.83151425492
 30
0.0
  0
SEQEND
  5
649
  8
LAYER_01
  0
POLYLINE
  5
64A
  8
LAYER_01
 66
     1
 10
0.0
 20
0.0
 30
0.0
 70
     1
  0
VERTEX
  5
64B
  8
LAYER_01
 10
1476.678741049088
 20
1194.210412260355
 30
0.0
  0
VERTEX
  5
64C
  8
LAYER_01
 10
1444.373694261546
 20
1180.829223747858
 30
0.0
  0
VERTEX
  5
64D
  8
LAYER_01
 10
1430.992505749049
 20
1148.524176960316
 30
0.0
  0
VERTEX
  5
64E
  8
LAYER_01
 10
1453.406655245414
 20
1126.110027463951
 30
0.0
  0
VERTEX
  5
64F
  8
LAYER_01
 10
1499.092890545453
 20
1126.110027463951
 30
0.0
  0
VERTEX
  5
650
  8
LAYER_01
 10
1499.092890545453
 20
1171.79626276399
 30
0.0
  0
SEQEND
  5
651
  8
LAYER_01
  0
POLYLINE
  5
652
  8
LAYER_01
 66
     1
 10
0.0
 20
0.0
 30
0.0
 70
     1
  0
VERTEX
  5
653
  8
LAYER_01
 10
1484.221171952774
 20
1277.029544816382
 30
0.0
  0
VERTEX
  5
654
  8
LAYER_01
 10
1473.379634195739
 20
1250.855757326368
 30
0.0
  0
VERTEX
  5
655
  8
LAYER_01
 10
1448.317667230537
 20
1250.855757326368
 30
0.0
  0
VERTEX
  5
656
  8
LAYER_01
 10
1466.039154021505
 20
1233.1342705354
 30
0.0
  0
VERTEX
  5
657
  8
LAYER_01
 10
1455.19761626447
 20
1206.960483045385
 30
0.0
  0
VERTEX
  5
658
  8
LAYER_01
 10
1481.371403754484
 20
1217.802020802421
 30
0.0
  0
VERTEX
  5
659
  8
LAYER_01
 10
1499.092890545453
 20
1200.080534011452
 30
0.0
  0
VERTEX
  5
65A
  8
LAYER_01
 10
1499.092890545453
 20
1225.142500976655
 30
0.0
  0
VERTEX
  5
65B
  8
LAYER_01
 10
1525.266678035468
 20
1235.984038733691
 30
0.0
  0
VERTEX
  5
65C
  8
LAYER_01
 10
1496.243122347159
 20
1248.005989128081
 30
0.0
  0
SEQEND
  5
65D
  8
LAYER_01
  0
POLYLINE
  5
65E
  8
LAYER_01
 66
     1
 10
0.0
 20
0.0
 30
0.0
 70
     1
  0
VERTEX
  5
65F
  8
LAYER_01
 10
1706.034564486589
 20
1182.755372529964
 30
0.0
  0
VERTEX
  5
660
  8
LAYER_01
 10
1673.729517699047
 20
1196.136561042461
 30
0.0
  0
VERTEX
  5
661
  8
LAYER_01
 10
1660.34832918655
 20
1228.441607830003
 30
0.0
  0
VERTEX
  5
662
  8
LAYER_01
 10
1682.762478682914
 20
1250.855757326368
 30
0.0
  0
VERTEX
  5
663
  8
LAYER_01
 10
1728.448713982954
 20
1250.855757326368
 30
0.0
  0
VERTEX
  5
664
  8
LAYER_01
 10
1728.448713982954
 20
1205.169522026329
 30
0.0
  0
SEQEND
  5
665
  8
LAYER_01
  0
POLYLINE
  5
666
  8
LAYER_01
 66
     1
 10
0.0
 20
0.0
 30
0.0
 70
     1
  0
VERTEX
  5
667
  8
LAYER_01
 10
1728.448713982954
 20
1281.495344353951
 30
0.0
  0
VERTEX
  5
668
  8
LAYER_01
 10
1728.448713982954
 20
1270.855757326368
 30
0.0
  0
VERTEX
  5
669
  8
LAYER_01
 10
1702.762478682916
 20
1270.855757326369
 30
0.0
  0
VERTEX
  5
66A
  8
LAYER_01
 10
1720.925389846726
 20
1289.018668490179
 30
0.0
  0
SEQEND
  5
66B
  8
LAYER_01
  0
POLYLINE
  5
66C
  8
LAYER_01
 66
     1
 10
0.0
 20
0.0
 30
0.0
 70
     1
  0
VERTEX
  5
66D
  8
LAYER_01
 10
1748.448713982954
 20
1225.169522026329
 30
0.0
  0
VERTEX
  5
66E
  8
LAYER_01
 10
1748.448713982954
 20
1250.855757326368
 30
0.0
  0
VERTEX
  5
66F
  8
LAYER_01
 10
1759.088301010537
 20
1250.855757326368
 30
0.0
  0
VERTEX
  5
670
  8
LAYER_01
 10
1766.611625146765
 20
1243.33243319014
 30
0.0
  0
SEQEND
  5
671
  8
LAYER_01
  0
POLYLINE
  5
672
  8
LAYER_01
 66
     1
 10
0.0
 20
0.0
 30
0.0
 70
     1
  0
VERTEX
  5
673
  8
LAYER_01
 10
1629.389219420576
 20
1106.110027463951
 30
0.0
  0
VERTEX
  5
674
  8
LAYER_01
 10
1611.226308256764
 20
1087.94711630014
 30
0.0
  0
VERTEX
  5
675
  8
LAYER_01
 10
1603.702984120536
 20
1095.470440436369
 30
0.0
  0
VERTEX
  5
676
  8
LAYER_01
 10
1603.702984120537
 20
1106.110027463951
 30
0.0
  0
SEQEND
  5
677
  8
LAYER_01
  0
POLYLINE
  5
678
  8
LAYER_01
 66
     1
 10
0.0
 20
0.0
 30
0.0
 70
     1
  0
VERTEX
  5
679
  8
LAYER_01
 10
1583.702984120537
 20
1151.79626276399
 30
0.0
  0
VERTEX
  5
67A
  8
LAYER_01
 10
1583.702984120537
 20
1126.110027463951
 30
0.0
  0
VERTEX
  5
67B
  8
LAYER_01
 10
1573.063397092953
 20
1126.110027463952
 30
0.0
  0
VERTEX
  5
67C
  8
LAYER_01
 10
1565.540072956726
 20
1133.633351600179
 30
0.0
  0
SEQEND
  5
67D
  8
LAYER_01
  0
POLYLINE
  5
67E
  8
LAYER_01
 66
     1
 10
0.0
 20
0.0
 30
0.0
 70
     1
  0
VERTEX
  5
67F
  8
LAYER_01
 10
1684.553439701971
 20
1170.005301744934
 30
0.0
  0
VERTEX
  5
680
  8
LAYER_01
 10
1710.727227191985
 20
1159.163763987899
 30
0.0
  0
VERTEX
  5
681
  8
LAYER_01
 10
1728.448713982954
 20
1176.885250778867
 30
0.0
  0
VERTEX
  5
682
  8
LAYER_01
 10
1728.448713982954
 20
1151.823283813664
 30
0.0
  0
VERTEX
  5
683
  8
LAYER_01
 10
1754.622501472968
 20
1140.981746056629
 30
0.0
  0
VERTEX
  5
684
  8
LAYER_01
 10
1725.598945784663
 20
1128.959795662242
 30
0.0
  0
VERTEX
  5
685
  8
LAYER_01
 10
1713.576995390276
 20
1099.936239973938
 30
0.0
  0
VERTEX
  5
686
  8
LAYER_01
 10
1702.735457633241
 20
1126.110027463951
 30
0.0
  0
VERTEX
  5
687
  8
LAYER_01
 10
1677.673490668037
 20
1126.110027463951
 30
0.0
  0
VERTEX
  5
688
  8
LAYER_01
 10
1695.394977459006
 20
1143.83151425492
 30
0.0
  0
SEQEND
  5
689
  8
LAYER_01
  0
POLYLINE
  5
68A
  8
LAYER_01
 66
     1
 10
0.0
 20
0.0
 30
0.0
 70
     1
  0
VERTEX
  5
68B
  8
LAYER_01
 10
1626.117133616902
 20
1194.210412260355
 30
0.0
  0
VERTEX
  5
68C
  8
LAYER_01
 10
1658.422180404443
 20
1180.829223747858
 30
0.0
  0
VERTEX
  5
68D
  8
LAYER_01
 10
1671.803368916941
 20
1148.524176960316
 30
0.0
  0
VERTEX
  5
68E
  8
LAYER_01
 10
1649.389219420576
 20
1126.110027463951
 30
0.0
  0
VERTEX
  5
68F
  8
LAYER_01
 10
1603.702984120536
 20
1126.110027463951
 30
0.0
  0
VERTEX
  5
690
  8
LAYER_01
 10
1603.702984120536
 20
1171.79626276399
 30
0.0
  0
SEQEND
  5
691
  8
LAYER_01
  0
POLYLINE
  5
692
  8
LAYER_01
 66
     1
 10
0.0
 20
0.0
 30
0.0
 70
     1
  0
VERTEX
  5
693
  8
LAYER_01
 10
1618.574702713215
 20
1277.029544816382
 30
0.0
  0
VERTEX
  5
694
  8
LAYER_01
 10
1629.41624047025
 20
1250.855757326368
 30
0.0
  0
VERTEX
  5
695
  8
LAYER_01
 10
1654.478207435453
 20
1250.855757326368
 30
0.0
  0
VERTEX
  5
696
  8
LAYER_01
 10
1636.756720644484
 20
1233.1342705354
 30
0.0
  0
VERTEX
  5
697
  8
LAYER_01
 10
1647.59825840152
 20
1206.960483045385
 30
0.0
  0
VERTEX
  5
698
  8
LAYER_01
 10
1621.424470911505
 20
1217.802020802421
 30
0.0
  0
VERTEX
  5
699
  8
LAYER_01
 10
1603.702984120537
 20
1200.080534011452
 30
0.0
  0
VERTEX
  5
69A
  8
LAYER_01
 10
1603.702984120537
 20
1225.142500976655
 30
0.0
  0
VERTEX
  5
69B
  8
LAYER_01
 10
1577.529196630521
 20
1235.984038733691
 30
0.0
  0
VERTEX
  5
69C
  8
LAYER_01
 10
1606.552752318831
 20
1248.005989128081
 30
0.0
  0
SEQEND
  5
69D
  8
LAYER_01
  0
ENDSEC
  0
EOF
