  0
SECTION
  2
HEADER
  9
$ACADVER
  1
AC1009
  9
$DWGCODEPAGE
  3
ansi_1252
  9
$INSBASE
 10
0.0
 20
0.0
 30
0.0
  9
$EXTMIN
 10
1.000000000000000E+20
 20
1.000000000000000E+20
 30
1.000000000000000E+20
  9
$EXTMAX
 10
-1.000000000000000E+20
 20
-1.000000000000000E+20
 30
-1.000000000000000E+20
  9
$LIMMIN
 10
0.0
 20
0.0
  9
$LIMMAX
 10
12.0
 20
9.0
  9
$ORTHOMODE
 70
     0
  9
$REGENMODE
 70
     1
  9
$FILLMODE
 70
     1
  9
$QTEXTMODE
 70
     0
  9
$MIRRTEXT
 70
     1
  9
$DRAGMODE
 70
     2
  9
$LTSCALE
 40
1.0
  9
$OSMODE
 70
    37
  9
$ATTMODE
 70
     1
  9
$TEXTSIZE
 40
0.2
  9
$TRACEWID
 40
0.05
  9
$TEXTSTYLE
  7
STANDARD
  9
$CLAYER
  8
LAYER_05
  9
$CELTYPE
  6
BYLAYER
  9
$CECOLOR
 62
   256
  9
$DIMSCALE
 40
1.0
  9
$DIMASZ
 40
0.18
  9
$DIMEXO
 40
0.0625
  9
$DIMDLI
 40
0.38
  9
$DIMRND
 40
0.0
  9
$DIMDLE
 40
0.0
  9
$DIMEXE
 40
0.18
  9
$DIMTP
 40
0.0
  9
$DIMTM
 40
0.0
  9
$DIMTXT
 40
0.18
  9
$DIMCEN
 40
0.09
  9
$DIMTSZ
 40
0.0
  9
$DIMTOL
 70
     0
  9
$DIMLIM
 70
     0
  9
$DIMTIH
 70
     1
  9
$DIMTOH
 70
     1
  9
$DIMSE1
 70
     0
  9
$DIMSE2
 70
     0
  9
$DIMTAD
 70
     0
  9
$DIMZIN
 70
     0
  9
$DIMBLK
  1

  9
$DIMASO
 70
     1
  9
$DIMSHO
 70
     1
  9
$DIMPOST
  1

  9
$DIMAPOST
  1

  9
$DIMALT
 70
     0
  9
$DIMALTD
 70
     2
  9
$DIMALTF
 40
25.4
  9
$DIMLFAC
 40
1.0
  9
$DIMTOFL
 70
     0
  9
$DIMTVP
 40
0.0
  9
$DIMTIX
 70
     0
  9
$DIMSOXD
 70
     0
  9
$DIMSAH
 70
     0
  9
$DIMBLK1
  1

  9
$DIMBLK2
  1

  9
$DIMSTYLE
  2
STANDARD_ACAD
  9
$DIMCLRD
 70
     0
  9
$DIMCLRE
 70
     0
  9
$DIMCLRT
 70
     0
  9
$DIMTFAC
 40
1.0
  9
$DIMGAP
 40
0.09
  9
$LUNITS
 70
     2
  9
$LUPREC
 70
     3
  9
$SKETCHINC
 40
0.1
  9
$FILLETRAD
 40
0.5
  9
$AUNITS
 70
     0
  9
$AUPREC
 70
     0
  9
$MENU
  1
.
  9
$ELEVATION
 40
0.0
  9
$PELEVATION
 40
0.0
  9
$THICKNESS
 40
0.0
  9
$LIMCHECK
 70
     0
  9
$CHAMFERA
 40
0.0
  9
$CHAMFERB
 40
0.0
  9
$SKPOLY
 70
     0
  9
$TDCREATE
 40
2460232.93251919
  9
$TDUPDATE
 40
2460232.932519363
  9
$TDINDWG
 40
0.0000000116
  9
$TDUSRTIMER
 40
0.0000000116
  9
$USRTIMER
 70
     1
  9
$ANGBASE
 50
0.0
  9
$ANGDIR
 70
     0
  9
$PDMODE
 70
     0
  9
$PDSIZE
 40
0.0
  9
$PLINEWID
 40
0.0
  9
$COORDS
 70
     1
  9
$SPLFRAME
 70
     0
  9
$SPLINETYPE
 70
     6
  9
$SPLINESEGS
 70
     8
  9
$ATTDIA
 70
     0
  9
$ATTREQ
 70
     1
  9
$HANDLING
 70
     1
  9
$HANDSEED
  5
26E
  9
$SURFTAB1
 70
     6
  9
$SURFTAB2
 70
     6
  9
$SURFTYPE
 70
     6
  9
$SURFU
 70
     6
  9
$SURFV
 70
     6
  9
$UCSNAME
  2

  9
$UCSORG
 10
0.0
 20
0.0
 30
0.0
  9
$UCSXDIR
 10
1.0
 20
0.0
 30
0.0
  9
$UCSYDIR
 10
0.0
 20
1.0
 30
0.0
  9
$PUCSNAME
  2

  9
$PUCSORG
 10
0.0
 20
0.0
 30
0.0
  9
$PUCSXDIR
 10
1.0
 20
0.0
 30
0.0
  9
$PUCSYDIR
 10
0.0
 20
1.0
 30
0.0
  9
$USERI1
 70
     0
  9
$USERI2
 70
     0
  9
$USERI3
 70
     0
  9
$USERI4
 70
     0
  9
$USERI5
 70
     0
  9
$USERR1
 40
0.0
  9
$USERR2
 40
0.0
  9
$USERR3
 40
0.0
  9
$USERR4
 40
0.0
  9
$USERR5
 40
0.0
  9
$WORLDVIEW
 70
     1
  9
$SHADEDGE
 70
     3
  9
$SHADEDIF
 70
    70
  9
$TILEMODE
 70
     1
  9
$MAXACTVP
 70
    64
  9
$PLIMCHECK
 70
     0
  9
$PEXTMIN
 10
1.000000000000000E+20
 20
1.000000000000000E+20
 30
1.000000000000000E+20
  9
$PEXTMAX
 10
-1.000000000000000E+20
 20
-1.000000000000000E+20
 30
-1.000000000000000E+20
  9
$PLIMMIN
 10
0.0
 20
0.0
  9
$PLIMMAX
 10
12.0
 20
9.0
  9
$UNITMODE
 70
     0
  9
$VISRETAIN
 70
     1
  9
$PLINEGEN
 70
     0
  9
$PSLTSCALE
 70
     1
  0
ENDSEC
  0
SECTION
  2
TABLES
  0
TABLE
  2
VPORT
 70
     1
  0
VPORT
  2
*ACTIVE
 70
     0
 10
0.0
 20
0.0
 11
1.0
 21
1.0
 12
10.42990654205607
 22
4.5
 13
0.0
 23
0.0
 14
0.5
 24
0.5
 15
0.5
 25
0.5
 16
0.0
 26
0.0
 36
1.0
 17
0.0
 27
0.0
 37
0.0
 40
9.0
 41
1.972972972850329
 42
50.0
 43
0.0
 44
0.0
 50
0.0
 51
0.0
 71
     0
 72
   100
 73
     1
 74
     3
 75
     0
 76
     0
 77
     0
 78
     0
  0
ENDTAB
  0
TABLE
  2
LTYPE
 70
     1
  0
LTYPE
  2
CONTINUOUS
 70
     0
  3
Solid line
 72
    65
 73
     0
 40
0.0
  0
ENDTAB
  0
TABLE
  2
LAYER
 70
     2
  0
LAYER
  2
0
 70
     0
 62
     7
  6
CONTINUOUS
  0
LAYER
  2
LAYER_05
 70
     0
 62
     7
  6
CONTINUOUS
  0
ENDTAB
  0
TABLE
  2
STYLE
 70
     1
  0
STYLE
  2
STANDARD
 70
     0
 40
0.0
 41
1.0
 50
0.0
 71
     0
 42
0.2
  3
txt
  4

  0
ENDTAB
  0
TABLE
  2
VIEW
 70
     0
  0
ENDTAB
  0
TABLE
  2
UCS
 70
     0
  0
ENDTAB
  0
TABLE
  2
APPID
 70
     2
  0
APPID
  2
ACAD
 70
     0
  0
APPID
  2
RHINO
 70
     0
  0
ENDTAB
  0
TABLE
  2
DIMSTYLE
 70
     1
  0
DIMSTYLE
  2
STANDARD_ACAD
 70
     0
  3

  4

  5

  6

  7

 40
1.0
 41
0.18
 42
0.0625
 43
0.38
 44
0.18
 45
0.0
 46
0.0
 47
0.0
 48
0.0
140
0.18
141
0.09
142
0.0
143
25.4
144
1.0
145
0.0
146
1.0
147
0.09
 71
     0
 72
     0
 73
     1
 74
     1
 75
     0
 76
     0
 77
     0
 78
     0
170
     0
171
     2
172
     0
173
     0
174
     0
175
     0
176
     0
177
     0
178
     0
  0
ENDTAB
  0
ENDSEC
  0
SECTION
  2
BLOCKS
  0
BLOCK
  8
0
  2
$MODEL_SPACE
 70
     0
 10
0.0
 20
0.0
 30
0.0
  3
$MODEL_SPACE
  1

  0
ENDBLK
  5
21
  8
0
  0
BLOCK
 67
     1
  8
0
  2
$PAPER_SPACE
 70
     0
 10
0.0
 20
0.0
 30
0.0
  3
$PAPER_SPACE
  1

  0
ENDBLK
  5
1D
 67
     1
  8
0
  0
ENDSEC
  0
SECTION
  2
ENTITIES
  0
POLYLINE
  5
70
  8
LAYER_05
 66
     1
 10
0.0
 20
0.0
 30
0.0
 70
     1
  0
VERTEX
  5
71
  8
LAYER_05
 10
318.5579015684489
 20
723.0514523659347
 30
0.0
  0
VERTEX
  5
72
  8
LAYER_05
 10
1190.06265304541
 20
723.0514523659347
 30
0.0
  0
VERTEX
  5
73
  8
LAYER_05
 10
1190.06265304541
 20
1115.893929143987
 30
0.0
  0
VERTEX
  5
74
  8
LAYER_05
 10
318.5579015684489
 20
1115.893929143987
 30
0.0
  0
SEQEND
  5
75
  8
LAYER_05
  0
POLYLINE
  5
76
  8
LAYER_05
 66
     1
 10
0.0
 20
0.0
 30
0.0
 70
     1
  0
VERTEX
  5
77
  8
LAYER_05
 10
910.038966070029
 20
743.0514523659347
 30
0.0
  0
VERTEX
  5
78
  8
LAYER_05
 10
986.8840921827841
 20
743.0514523659347
 30
0.0
  0
VERTEX
  5
79
  8
LAYER_05
 10
914.2162003554276
 20
791.03444964125
 30
0.0
  0
SEQEND
  5
7A
  8
LAYER_05
  0
POLYLINE
  5
7B
  8
LAYER_05
 66
     1
 10
0.0
 20
0.0
 30
0.0
 70
     1
  0
VERTEX
  5
7C
  8
LAYER_05
 10
914.9086635317891
 20
984.2870252624018
 30
0.0
  0
VERTEX
  5
7D
  8
LAYER_05
 10
900.5703814779464
 20
989.4798438045377
 30
0.0
  0
VERTEX
  5
7E
  8
LAYER_05
 10
900.6091624912049
 20
983.3086127095719
 30
0.0
  0
SEQEND
  5
7F
  8
LAYER_05
  0
POLYLINE
  5
80
  8
LAYER_05
 66
     1
 10
0.0
 20
0.0
 30
0.0
 70
     1
  0
VERTEX
  5
81
  8
LAYER_05
 10
1065.120693313109
 20
1024.874352369343
 30
0.0
  0
VERTEX
  5
82
  8
LAYER_05
 10
1042.051889247048
 20
1008.30220759956
 30
0.0
  0
VERTEX
  5
83
  8
LAYER_05
 10
1041.539955288489
 20
1043.849457661696
 30
0.0
  0
SEQEND
  5
84
  8
LAYER_05
  0
POLYLINE
  5
85
  8
LAYER_05
 66
     1
 10
0.0
 20
0.0
 30
0.0
 70
     1
  0
VERTEX
  5
86
  8
LAYER_05
 10
1034.472591530767
 20
1068.684814304026
 30
0.0
  0
VERTEX
  5
87
  8
LAYER_05
 10
1010.092939734976
 20
1088.302794849548
 30
0.0
  0
VERTEX
  5
88
  8
LAYER_05
 10
1014.865347503529
 20
1095.893929143987
 30
0.0
  0
VERTEX
  5
89
  8
LAYER_05
 10
1034.080739282152
 20
1095.893929143987
 30
0.0
  0
SEQEND
  5
8A
  8
LAYER_05
  0
POLYLINE
  5
8B
  8
LAYER_05
 66
     1
 10
0.0
 20
0.0
 30
0.0
 70
     1
  0
VERTEX
  5
8C
  8
LAYER_05
 10
338.5579015684489
 20
1066.882745927484
 30
0.0
  0
VERTEX
  5
8D
  8
LAYER_05
 10
381.6163192154752
 20
1050.670119751045
 30
0.0
  0
VERTEX
  5
8E
  8
LAYER_05
 10
355.093465232741
 20
1032.049622948098
 30
0.0
  0
VERTEX
  5
8F
  8
LAYER_05
 10
338.5579015684489
 20
1052.878042146751
 30
0.0
  0
SEQEND
  5
90
  8
LAYER_05
  0
POLYLINE
  5
91
  8
LAYER_05
 66
     1
 10
0.0
 20
0.0
 30
0.0
 70
     1
  0
VERTEX
  5
92
  8
LAYER_05
 10
950.2058164412815
 20
971.5036451179245
 30
0.0
  0
VERTEX
  5
93
  8
LAYER_05
 10
929.8057097723611
 20
970.1078117677055
 30
0.0
  0
VERTEX
  5
94
  8
LAYER_05
 10
925.8644672745382
 20
924.8356017086651
 30
0.0
  0
VERTEX
  5
95
  8
LAYER_05
 10
967.9337992300595
 20
955.0573270108716
 30
0.0
  0
VERTEX
  5
96
  8
LAYER_05
 10
967.8200470619131
 20
965.1243938918155
 30
0.0
  0
SEQEND
  5
97
  8
LAYER_05
  0
POLYLINE
  5
98
  8
LAYER_05
 66
     1
 10
0.0
 20
0.0
 30
0.0
 70
     1
  0
VERTEX
  5
99
  8
LAYER_05
 10
760.8685880083265
 20
1095.893929143987
 30
0.0
  0
VERTEX
  5
9A
  8
LAYER_05
 10
760.6418839913894
 20
1056.721266885341
 30
0.0
  0
VERTEX
  5
9B
  8
LAYER_05
 10
784.7347814005509
 20
1047.995671731733
 30
0.0
  0
VERTEX
  5
9C
  8
LAYER_05
 10
806.7033867359687
 20
1059.302623059039
 30
0.0
  0
VERTEX
  5
9D
  8
LAYER_05
 10
776.0814034160326
 20
1095.893929143987
 30
0.0
  0
SEQEND
  5
9E
  8
LAYER_05
  0
POLYLINE
  5
9F
  8
LAYER_05
 66
     1
 10
0.0
 20
0.0
 30
0.0
 70
     1
  0
VERTEX
  5
A0
  8
LAYER_05
 10
1038.067803215959
 20
819.0434559545405
 30
0.0
  0
VERTEX
  5
A1
  8
LAYER_05
 10
1036.321300717585
 20
940.315663054541
 30
0.0
  0
VERTEX
  5
A2
  8
LAYER_05
 10
1010.542185817756
 20
949.6519465332021
 30
0.0
  0
VERTEX
  5
A3
  8
LAYER_05
 10
990.6196395229692
 20
939.0843350203152
 30
0.0
  0
VERTEX
  5
A4
  8
LAYER_05
 10
988.0187721229298
 20
860.2915600441061
 30
0.0
  0
VERTEX
  5
A5
  8
LAYER_05
 10
1015.392997515853
 20
827.5811163825846
 30
0.0
  0
SEQEND
  5
A6
  8
LAYER_05
  0
POLYLINE
  5
A7
  8
LAYER_05
 66
     1
 10
0.0
 20
0.0
 30
0.0
 70
     1
  0
VERTEX
  5
A8
  8
LAYER_05
 10
476.9089008491172
 20
1014.789957686595
 30
0.0
  0
VERTEX
  5
A9
  8
LAYER_05
 10
404.2550574405971
 20
1042.146039675485
 30
0.0
  0
VERTEX
  5
AA
  8
LAYER_05
 10
391.3391868245112
 20
1033.078390784055
 30
0.0
  0
VERTEX
  5
AB
  8
LAYER_05
 10
393.257362264349
 20
983.9778630875549
 30
0.0
  0
VERTEX
  5
AC
  8
LAYER_05
 10
419.9009887409765
 20
950.417191525695
 30
0.0
  0
VERTEX
  5
AD
  8
LAYER_05
 10
476.2777123803492
 20
954.2746473865413
 30
0.0
  0
SEQEND
  5
AE
  8
LAYER_05
  0
POLYLINE
  5
AF
  8
LAYER_05
 66
     1
 10
0.0
 20
0.0
 30
0.0
 70
     1
  0
VERTEX
  5
B0
  8
LAYER_05
 10
870.9187023461526
 20
1000.218633055777
 30
0.0
  0
VERTEX
  5
B1
  8
LAYER_05
 10
893.7990222811302
 20
991.9321905683024
 30
0.0
  0
VERTEX
  5
B2
  8
LAYER_05
 10
893.8561179132396
 20
982.8465501826245
 30
0.0
  0
VERTEX
  5
B3
  8
LAYER_05
 10
885.9116936311166
 20
982.3029700660472
 30
0.0
  0
SEQEND
  5
B4
  8
LAYER_05
  0
POLYLINE
  5
B5
  8
LAYER_05
 66
     1
 10
0.0
 20
0.0
 30
0.0
 70
     1
  0
VERTEX
  5
B6
  8
LAYER_05
 10
537.1182356079668
 20
743.0514523659348
 30
0.0
  0
VERTEX
  5
B7
  8
LAYER_05
 10
567.2796357884763
 20
743.0514523659348
 30
0.0
  0
VERTEX
  5
B8
  8
LAYER_05
 10
535.6395561512081
 20
782.9057237741058
 30
0.0
  0
SEQEND
  5
B9
  8
LAYER_05
  0
POLYLINE
  5
BA
  8
LAYER_05
 66
     1
 10
0.0
 20
0.0
 30
0.0
 70
     1
  0
VERTEX
  5
BB
  8
LAYER_05
 10
722.6111106244731
 20
743.0514523659348
 30
0.0
  0
VERTEX
  5
BC
  8
LAYER_05
 10
753.2742279706436
 20
743.0514523659349
 30
0.0
  0
VERTEX
  5
BD
  8
LAYER_05
 10
753.5049256900717
 20
782.9141948487986
 30
0.0
  0
VERTEX
  5
BE
  8
LAYER_05
 10
721.1032793515205
 20
759.6375320289978
 30
0.0
  0
SEQEND
  5
BF
  8
LAYER_05
  0
POLYLINE
  5
C0
  8
LAYER_05
 66
     1
 10
0.0
 20
0.0
 30
0.0
 70
     1
  0
VERTEX
  5
C1
  8
LAYER_05
 10
924.1834453199845
 20
905.5260618662287
 30
0.0
  0
VERTEX
  5
C2
  8
LAYER_05
 10
920.5080678682316
 20
863.3077867578224
 30
0.0
  0
VERTEX
  5
C3
  8
LAYER_05
 10
977.8145618032652
 20
841.7303853013327
 30
0.0
  0
VERTEX
  5
C4
  8
LAYER_05
 10
978.2307404366225
 20
854.3384365259087
 30
0.0
  0
VERTEX
  5
C5
  8
LAYER_05
 10
931.1846065343375
 20
910.5555491716209
 30
0.0
  0
SEQEND
  5
C6
  8
LAYER_05
  0
POLYLINE
  5
C7
  8
LAYER_05
 66
     1
 10
0.0
 20
0.0
 30
0.0
 70
     1
  0
VERTEX
  5
C8
  8
LAYER_05
 10
475.2832598584129
 20
858.9313293105643
 30
0.0
  0
VERTEX
  5
C9
  8
LAYER_05
 10
471.5557810754096
 20
863.6265119014142
 30
0.0
  0
VERTEX
  5
CA
  8
LAYER_05
 10
399.4096777822133
 20
826.4938643830128
 30
0.0
  0
VERTEX
  5
CB
  8
LAYER_05
 10
400.4691898790595
 20
799.3729858775648
 30
0.0
  0
VERTEX
  5
CC
  8
LAYER_05
 10
474.3748099451524
 20
771.8335271274664
 30
0.0
  0
SEQEND
  5
CD
  8
LAYER_05
  0
POLYLINE
  5
CE
  8
LAYER_05
 66
     1
 10
0.0
 20
0.0
 30
0.0
 70
     1
  0
VERTEX
  5
CF
  8
LAYER_05
 10
578.6299609554153
 20
992.0338814026178
 30
0.0
  0
VERTEX
  5
D0
  8
LAYER_05
 10
613.3807334730636
 20
978.9493020112054
 30
0.0
  0
VERTEX
  5
D1
  8
LAYER_05
 10
613.4935033021059
 20
989.6032534207332
 30
0.0
  0
VERTEX
  5
D2
  8
LAYER_05
 10
525.8228091706342
 20
1047.492681225101
 30
0.0
  0
VERTEX
  5
D3
  8
LAYER_05
 10
526.6830791698658
 20
1024.306159036696
 30
0.0
  0
SEQEND
  5
D4
  8
LAYER_05
  0
POLYLINE
  5
D5
  8
LAYER_05
 66
     1
 10
0.0
 20
0.0
 30
0.0
 70
     1
  0
VERTEX
  5
D6
  8
LAYER_05
 10
483.8003858174643
 20
869.9286484151648
 30
0.0
  0
VERTEX
  5
D7
  8
LAYER_05
 10
520.9344365165609
 20
889.0410543885869
 30
0.0
  0
VERTEX
  5
D8
  8
LAYER_05
 10
523.4988301357691
 20
819.9239520780443
 30
0.0
  0
SEQEND
  5
D9
  8
LAYER_05
  0
POLYLINE
  5
DA
  8
LAYER_05
 66
     1
 10
0.0
 20
0.0
 30
0.0
 70
     1
  0
VERTEX
  5
DB
  8
LAYER_05
 10
520.0905216602844
 20
911.7867627797465
 30
0.0
  0
VERTEX
  5
DC
  8
LAYER_05
 10
518.9696478006517
 20
941.9972393045501
 30
0.0
  0
VERTEX
  5
DD
  8
LAYER_05
 10
481.5386332202038
 20
939.4361027707139
 30
0.0
  0
VERTEX
  5
DE
  8
LAYER_05
 10
481.0406126565134
 20
891.6882898134397
 30
0.0
  0
SEQEND
  5
DF
  8
LAYER_05
  0
POLYLINE
  5
E0
  8
LAYER_05
 66
     1
 10
0.0
 20
0.0
 30
0.0
 70
     1
  0
VERTEX
  5
E1
  8
LAYER_05
 10
566.8627344935549
 20
960.4727323744294
 30
0.0
  0
VERTEX
  5
E2
  8
LAYER_05
 10
546.4561660267748
 20
988.6035840682667
 30
0.0
  0
VERTEX
  5
E3
  8
LAYER_05
 10
587.2817697930179
 20
973.2316710148095
 30
0.0
  0
VERTEX
  5
E4
  8
LAYER_05
 10
600.0739089847649
 20
962.7451354410955
 30
0.0
  0
SEQEND
  5
E5
  8
LAYER_05
  0
POLYLINE
  5
E6
  8
LAYER_05
 66
     1
 10
0.0
 20
0.0
 30
0.0
 70
     1
  0
VERTEX
  5
E7
  8
LAYER_05
 10
701.174227471823
 20
879.0276816123384
 30
0.0
  0
VERTEX
  5
E8
  8
LAYER_05
 10
711.0395214784312
 20
770.5098684934203
 30
0.0
  0
VERTEX
  5
E9
  8
LAYER_05
 10
706.8487404661329
 20
767.4992993527148
 30
0.0
  0
VERTEX
  5
EA
  8
LAYER_05
 10
628.4074944070302
 20
875.6320833217871
 30
0.0
  0
VERTEX
  5
EB
  8
LAYER_05
 10
628.99880273864
 20
931.4960523152927
 30
0.0
  0
SEQEND
  5
EC
  8
LAYER_05
  0
POLYLINE
  5
ED
  8
LAYER_05
 66
     1
 10
0.0
 20
0.0
 30
0.0
 70
     1
  0
VERTEX
  5
EE
  8
LAYER_05
 10
753.9302600506753
 20
856.4086105191707
 30
0.0
  0
VERTEX
  5
EF
  8
LAYER_05
 10
754.1635430821073
 20
896.71807448203
 30
0.0
  0
VERTEX
  5
F0
  8
LAYER_05
 10
705.7342503491418
 20
928.6961952560873
 30
0.0
  0
VERTEX
  5
F1
  8
LAYER_05
 10
709.360376473968
 20
888.8089626104147
 30
0.0
  0
SEQEND
  5
F2
  8
LAYER_05
  0
POLYLINE
  5
F3
  8
LAYER_05
 66
     1
 10
0.0
 20
0.0
 30
0.0
 70
     1
  0
VERTEX
  5
F4
  8
LAYER_05
 10
702.0048409178689
 20
969.7195398655539
 30
0.0
  0
VERTEX
  5
F5
  8
LAYER_05
 10
700.917871785322
 20
981.676153942414
 30
0.0
  0
VERTEX
  5
F6
  8
LAYER_05
 10
754.8157639653588
 20
1009.416687955356
 30
0.0
  0
VERTEX
  5
F7
  8
LAYER_05
 10
754.6068541280843
 20
973.3187192972646
 30
0.0
  0
SEQEND
  5
F8
  8
LAYER_05
  0
POLYLINE
  5
F9
  8
LAYER_05
 66
     1
 10
0.0
 20
0.0
 30
0.0
 70
     1
  0
VERTEX
  5
FA
  8
LAYER_05
 10
760.1614077940355
 20
973.6987776655048
 30
0.0
  0
VERTEX
  5
FB
  8
LAYER_05
 10
871.9416362875025
 20
981.3470989884515
 30
0.0
  0
VERTEX
  5
FC
  8
LAYER_05
 10
849.7253748222151
 20
1007.894106569451
 30
0.0
  0
VERTEX
  5
FD
  8
LAYER_05
 10
792.2797185737845
 20
1028.698891118382
 30
0.0
  0
VERTEX
  5
FE
  8
LAYER_05
 10
760.3847060362217
 20
1012.282948966396
 30
0.0
  0
SEQEND
  5
FF
  8
LAYER_05
  0
POLYLINE
  5
100
  8
LAYER_05
 66
     1
 10
0.0
 20
0.0
 30
0.0
 70
     1
  0
VERTEX
  5
101
  8
LAYER_05
 10
691.8299867226478
 20
1081.642501850229
 30
0.0
  0
VERTEX
  5
102
  8
LAYER_05
 10
690.5343973974864
 20
1095.893929143987
 30
0.0
  0
VERTEX
  5
103
  8
LAYER_05
 10
755.3162338548357
 20
1095.893929143987
 30
0.0
  0
VERTEX
  5
104
  8
LAYER_05
 10
755.1011429870766
 20
1058.727927272988
 30
0.0
  0
SEQEND
  5
105
  8
LAYER_05
  0
POLYLINE
  5
106
  8
LAYER_05
 66
     1
 10
0.0
 20
0.0
 30
0.0
 70
     1
  0
VERTEX
  5
107
  8
LAYER_05
 10
861.7810806439151
 20
885.4200412800722
 30
0.0
  0
VERTEX
  5
108
  8
LAYER_05
 10
900.5768876053094
 20
947.1298102243002
 30
0.0
  0
VERTEX
  5
109
  8
LAYER_05
 10
883.9718789086044
 20
966.9717306321395
 30
0.0
  0
VERTEX
  5
10A
  8
LAYER_05
 10
760.0734145762399
 20
958.4942451286191
 30
0.0
  0
VERTEX
  5
10B
  8
LAYER_05
 10
759.8725779963038
 20
923.7912715275565
 30
0.0
  0
SEQEND
  5
10C
  8
LAYER_05
  0
POLYLINE
  5
10D
  8
LAYER_05
 66
     1
 10
0.0
 20
0.0
 30
0.0
 70
     1
  0
VERTEX
  5
10E
  8
LAYER_05
 10
719.5585268875192
 20
776.6297432181643
 30
0.0
  0
VERTEX
  5
10F
  8
LAYER_05
 10
710.8917938591005
 20
871.9634367197989
 30
0.0
  0
VERTEX
  5
110
  8
LAYER_05
 10
753.8395941994711
 20
840.742268053797
 30
0.0
  0
VERTEX
  5
111
  8
LAYER_05
 10
753.6101243762022
 20
801.0916963219674
 30
0.0
  0
SEQEND
  5
112
  8
LAYER_05
  0
POLYLINE
  5
113
  8
LAYER_05
 66
     1
 10
0.0
 20
0.0
 30
0.0
 70
     1
  0
VERTEX
  5
114
  8
LAYER_05
 10
759.1856586805274
 20
805.0970431702725
 30
0.0
  0
VERTEX
  5
115
  8
LAYER_05
 10
759.3686868258396
 20
836.7228600261515
 30
0.0
  0
VERTEX
  5
116
  8
LAYER_05
 10
781.1590185535754
 20
820.8822438183809
 30
0.0
  0
SEQEND
  5
117
  8
LAYER_05
  0
POLYLINE
  5
118
  8
LAYER_05
 66
     1
 10
0.0
 20
0.0
 30
0.0
 70
     1
  0
VERTEX
  5
119
  8
LAYER_05
 10
695.5231304989615
 20
759.3632188066852
 30
0.0
  0
VERTEX
  5
11A
  8
LAYER_05
 10
628.1597350501482
 20
852.2249701613405
 30
0.0
  0
VERTEX
  5
11B
  8
LAYER_05
 10
627.0041563859995
 20
743.0514523659348
 30
0.0
  0
VERTEX
  5
11C
  8
LAYER_05
 10
672.8167790145627
 20
743.0514523659349
 30
0.0
  0
SEQEND
  5
11D
  8
LAYER_05
  0
POLYLINE
  5
11E
  8
LAYER_05
 66
     1
 10
0.0
 20
0.0
 30
0.0
 70
     1
  0
VERTEX
  5
11F
  8
LAYER_05
 10
772.276543722527
 20
743.0514523659349
 30
0.0
  0
VERTEX
  5
120
  8
LAYER_05
 10
808.6454034548606
 20
800.9008465821875
 30
0.0
  0
VERTEX
  5
121
  8
LAYER_05
 10
793.6833997857435
 20
811.7775675418809
 30
0.0
  0
VERTEX
  5
122
  8
LAYER_05
 10
759.0804599943967
 20
786.9195416971033
 30
0.0
  0
VERTEX
  5
123
  8
LAYER_05
 10
758.8265821241342
 20
743.0514523659348
 30
0.0
  0
SEQEND
  5
124
  8
LAYER_05
  0
POLYLINE
  5
125
  8
LAYER_05
 66
     1
 10
0.0
 20
0.0
 30
0.0
 70
     1
  0
VERTEX
  5
126
  8
LAYER_05
 10
894.9816831785664
 20
803.7351041129943
 30
0.0
  0
VERTEX
  5
127
  8
LAYER_05
 10
895.2964790739737
 20
753.6415646443534
 30
0.0
  0
VERTEX
  5
128
  8
LAYER_05
 10
829.6840055826432
 20
801.3389574149171
 30
0.0
  0
VERTEX
  5
129
  8
LAYER_05
 10
849.9034024312607
 20
833.5005337667494
 30
0.0
  0
SEQEND
  5
12A
  8
LAYER_05
  0
POLYLINE
  5
12B
  8
LAYER_05
 66
     1
 10
0.0
 20
0.0
 30
0.0
 70
     1
  0
VERTEX
  5
12C
  8
LAYER_05
 10
915.6241886920998
 20
807.207710681067
 30
0.0
  0
VERTEX
  5
12D
  8
LAYER_05
 10
919.197761249131
 20
848.256574726481
 30
0.0
  0
VERTEX
  5
12E
  8
LAYER_05
 10
977.3077505421984
 20
826.3766361451696
 30
0.0
  0
VERTEX
  5
12F
  8
LAYER_05
 10
975.8773911469135
 20
783.044174841653
 30
0.0
  0
VERTEX
  5
130
  8
LAYER_05
 10
965.01433638053
 20
774.5951322455769
 30
0.0
  0
SEQEND
  5
131
  8
LAYER_05
  0
POLYLINE
  5
132
  8
LAYER_05
 66
     1
 10
0.0
 20
0.0
 30
0.0
 70
     1
  0
VERTEX
  5
133
  8
LAYER_05
 10
870.6679913267795
 20
866.5293088670963
 30
0.0
  0
VERTEX
  5
134
  8
LAYER_05
 10
894.643804669912
 20
857.5017848601815
 30
0.0
  0
VERTEX
  5
135
  8
LAYER_05
 10
894.8737575605546
 20
820.9093312373927
 30
0.0
  0
VERTEX
  5
136
  8
LAYER_05
 10
857.5015612967412
 20
845.5863921291473
 30
0.0
  0
SEQEND
  5
137
  8
LAYER_05
  0
POLYLINE
  5
138
  8
LAYER_05
 66
     1
 10
0.0
 20
0.0
 30
0.0
 70
     1
  0
VERTEX
  5
139
  8
LAYER_05
 10
884.360685160161
 20
876.9182266004278
 30
0.0
  0
VERTEX
  5
13A
  8
LAYER_05
 10
894.5458883521912
 20
873.0832298470145
 30
0.0
  0
VERTEX
  5
13B
  8
LAYER_05
 10
894.4761233795305
 20
884.1849451568439
 30
0.0
  0
SEQEND
  5
13C
  8
LAYER_05
  0
POLYLINE
  5
13D
  8
LAYER_05
 66
     1
 10
0.0
 20
0.0
 30
0.0
 70
     1
  0
VERTEX
  5
13E
  8
LAYER_05
 10
901.3178601204711
 20
870.5334044526737
 30
0.0
  0
VERTEX
  5
13F
  8
LAYER_05
 10
910.2236813933457
 20
867.1801286245902
 30
0.0
  0
VERTEX
  5
140
  8
LAYER_05
 10
912.8533675855081
 20
897.3867717699175
 30
0.0
  0
VERTEX
  5
141
  8
LAYER_05
 10
901.2017095807904
 20
889.0164651554428
 30
0.0
  0
SEQEND
  5
142
  8
LAYER_05
  0
POLYLINE
  5
143
  8
LAYER_05
 66
     1
 10
0.0
 20
0.0
 30
0.0
 70
     1
  0
VERTEX
  5
144
  8
LAYER_05
 10
932.1818076070704
 20
997.4015396601706
 30
0.0
  0
VERTEX
  5
145
  8
LAYER_05
 10
936.9397828369993
 20
1052.055384021191
 30
0.0
  0
VERTEX
  5
146
  8
LAYER_05
 10
954.220469757551
 20
1032.456893722
 30
0.0
  0
SEQEND
  5
147
  8
LAYER_05
  0
POLYLINE
  5
148
  8
LAYER_05
 66
     1
 10
0.0
 20
0.0
 30
0.0
 70
     1
  0
VERTEX
  5
149
  8
LAYER_05
 10
829.8348328560867
 20
1031.662028512125
 30
0.0
  0
VERTEX
  5
14A
  8
LAYER_05
 10
811.1703432278741
 20
1038.421646397791
 30
0.0
  0
VERTEX
  5
14B
  8
LAYER_05
 10
820.2619693612381
 20
1043.100986419903
 30
0.0
  0
SEQEND
  5
14C
  8
LAYER_05
  0
POLYLINE
  5
14D
  8
LAYER_05
 66
     1
 10
0.0
 20
0.0
 30
0.0
 70
     1
  0
VERTEX
  5
14E
  8
LAYER_05
 10
817.0268305700994
 20
1064.615963399971
 30
0.0
  0
VERTEX
  5
14F
  8
LAYER_05
 10
877.7977019778159
 20
1095.893929143987
 30
0.0
  0
VERTEX
  5
150
  8
LAYER_05
 10
790.8513958077751
 20
1095.893929143987
 30
0.0
  0
SEQEND
  5
151
  8
LAYER_05
  0
POLYLINE
  5
152
  8
LAYER_05
 66
     1
 10
0.0
 20
0.0
 30
0.0
 70
     1
  0
VERTEX
  5
153
  8
LAYER_05
 10
962.9641991646229
 20
1046.364930793073
 30
0.0
  0
VERTEX
  5
154
  8
LAYER_05
 10
985.766574413447
 20
1082.635069712589
 30
0.0
  0
VERTEX
  5
155
  8
LAYER_05
 10
985.9625417044733
 20
1088.571860901677
 30
0.0
  0
VERTEX
  5
156
  8
LAYER_05
 10
976.8632629199767
 20
1095.893929143987
 30
0.0
  0
VERTEX
  5
157
  8
LAYER_05
 10
940.7562154091083
 20
1095.893929143987
 30
0.0
  0
VERTEX
  5
158
  8
LAYER_05
 10
938.8274858042658
 20
1073.739024474773
 30
0.0
  0
SEQEND
  5
159
  8
LAYER_05
  0
POLYLINE
  5
15A
  8
LAYER_05
 66
     1
 10
0.0
 20
0.0
 30
0.0
 70
     1
  0
VERTEX
  5
15B
  8
LAYER_05
 10
1012.785689724265
 20
743.0514523659348
 30
0.0
  0
VERTEX
  5
15C
  8
LAYER_05
 10
1039.162202561841
 20
743.0514523659348
 30
0.0
  0
VERTEX
  5
15D
  8
LAYER_05
 10
1038.598361267747
 20
782.2030013918406
 30
0.0
  0
VERTEX
  5
15E
  8
LAYER_05
 10
1012.821404075487
 20
813.0048119965281
 30
0.0
  0
VERTEX
  5
15F
  8
LAYER_05
 10
997.9548692207131
 20
818.6024531851867
 30
0.0
  0
VERTEX
  5
160
  8
LAYER_05
 10
986.2520438963033
 20
806.7688700359231
 30
0.0
  0
VERTEX
  5
161
  8
LAYER_05
 10
984.7596535740199
 20
761.5571937933869
 30
0.0
  0
SEQEND
  5
162
  8
LAYER_05
  0
POLYLINE
  5
163
  8
LAYER_05
 66
     1
 10
0.0
 20
0.0
 30
0.0
 70
     1
  0
VERTEX
  5
164
  8
LAYER_05
 10
1071.36292229319
 20
743.0514523659349
 30
0.0
  0
VERTEX
  5
165
  8
LAYER_05
 10
1045.425546663721
 20
774.0449527144337
 30
0.0
  0
VERTEX
  5
166
  8
LAYER_05
 10
1045.871899765445
 20
743.0514523659348
 30
0.0
  0
SEQEND
  5
167
  8
LAYER_05
  0
POLYLINE
  5
168
  8
LAYER_05
 66
     1
 10
0.0
 20
0.0
 30
0.0
 70
     1
  0
VERTEX
  5
169
  8
LAYER_05
 10
1065.925098416113
 20
929.5942147646215
 30
0.0
  0
VERTEX
  5
16A
  8
LAYER_05
 10
1170.06265304541
 20
811.4890223282903
 30
0.0
  0
VERTEX
  5
16B
  8
LAYER_05
 10
1170.06265304541
 20
891.8792763514277
 30
0.0
  0
SEQEND
  5
16C
  8
LAYER_05
  0
POLYLINE
  5
16D
  8
LAYER_05
 66
     1
 10
0.0
 20
0.0
 30
0.0
 70
     1
  0
VERTEX
  5
16E
  8
LAYER_05
 10
516.8265276532335
 20
999.759921828544
 30
0.0
  0
VERTEX
  5
16F
  8
LAYER_05
 10
518.407178127012
 20
957.1572653194023
 30
0.0
  0
VERTEX
  5
170
  8
LAYER_05
 10
481.6972703735552
 20
954.6454689666996
 30
0.0
  0
VERTEX
  5
171
  8
LAYER_05
 10
482.3034054937698
 20
1012.75878487556
 30
0.0
  0
SEQEND
  5
172
  8
LAYER_05
  0
POLYLINE
  5
173
  8
LAYER_05
 66
     1
 10
0.0
 20
0.0
 30
0.0
 70
     1
  0
VERTEX
  5
174
  8
LAYER_05
 10
513.2597485680659
 20
1095.893929143987
 30
0.0
  0
VERTEX
  5
175
  8
LAYER_05
 10
514.1346368100544
 20
1072.313407152799
 30
0.0
  0
VERTEX
  5
176
  8
LAYER_05
 10
478.4230948349598
 20
1095.893929143987
 30
0.0
  0
SEQEND
  5
177
  8
LAYER_05
  0
POLYLINE
  5
178
  8
LAYER_05
 66
     1
 10
0.0
 20
0.0
 30
0.0
 70
     1
  0
VERTEX
  5
179
  8
LAYER_05
 10
338.5579015684489
 20
944.8514660259268
 30
0.0
  0
VERTEX
  5
17A
  8
LAYER_05
 10
338.5579015684489
 20
996.0230364090792
 30
0.0
  0
VERTEX
  5
17B
  8
LAYER_05
 10
356.4658220505858
 20
1008.595377843456
 30
0.0
  0
VERTEX
  5
17C
  8
LAYER_05
 10
382.5119206929486
 20
975.7873604074306
 30
0.0
  0
VERTEX
  5
17D
  8
LAYER_05
 10
383.6000723795273
 20
947.9333795278869
 30
0.0
  0
SEQEND
  5
17E
  8
LAYER_05
  0
POLYLINE
  5
17F
  8
LAYER_05
 66
     1
 10
0.0
 20
0.0
 30
0.0
 70
     1
  0
VERTEX
  5
180
  8
LAYER_05
 10
394.6359872063701
 20
948.6884882248896
 30
0.0
  0
VERTEX
  5
181
  8
LAYER_05
 10
394.1500277427947
 20
961.1278436691863
 30
0.0
  0
VERTEX
  5
182
  8
LAYER_05
 10
403.5417934331095
 20
949.2978488298913
 30
0.0
  0
SEQEND
  5
183
  8
LAYER_05
  0
POLYLINE
  5
184
  8
LAYER_05
 66
     1
 10
0.0
 20
0.0
 30
0.0
 70
     1
  0
VERTEX
  5
185
  8
LAYER_05
 10
458.49144232478
 20
880.0825293421101
 30
0.0
  0
VERTEX
  5
186
  8
LAYER_05
 10
414.9861427207012
 20
934.882391984443
 30
0.0
  0
VERTEX
  5
187
  8
LAYER_05
 10
395.2281537940123
 20
933.5304941574012
 30
0.0
  0
VERTEX
  5
188
  8
LAYER_05
 10
398.521967930344
 20
849.2170320677424
 30
0.0
  0
SEQEND
  5
189
  8
LAYER_05
  0
POLYLINE
  5
18A
  8
LAYER_05
 66
     1
 10
0.0
 20
0.0
 30
0.0
 70
     1
  0
VERTEX
  5
18B
  8
LAYER_05
 10
475.5956924483496
 20
888.885861218871
 30
0.0
  0
VERTEX
  5
18C
  8
LAYER_05
 10
476.1190752269978
 20
939.0652811905559
 30
0.0
  0
VERTEX
  5
18D
  8
LAYER_05
 10
431.3453380285682
 20
936.0017346802465
 30
0.0
  0
VERTEX
  5
18E
  8
LAYER_05
 10
470.7360470668348
 20
886.3846658558605
 30
0.0
  0
SEQEND
  5
18F
  8
LAYER_05
  0
POLYLINE
  5
190
  8
LAYER_05
 66
     1
 10
0.0
 20
0.0
 30
0.0
 70
     1
  0
VERTEX
  5
191
  8
LAYER_05
 10
369.2895796069864
 20
810.9914472363085
 30
0.0
  0
VERTEX
  5
192
  8
LAYER_05
 10
388.5623694465202
 20
820.9108978946385
 30
0.0
  0
VERTEX
  5
193
  8
LAYER_05
 10
389.2403139158964
 20
803.5572030740507
 30
0.0
  0
SEQEND
  5
194
  8
LAYER_05
  0
POLYLINE
  5
195
  8
LAYER_05
 66
     1
 10
0.0
 20
0.0
 30
0.0
 70
     1
  0
VERTEX
  5
196
  8
LAYER_05
 10
391.6040491020976
 20
743.0514523659348
 30
0.0
  0
VERTEX
  5
197
  8
LAYER_05
 10
338.5579015684489
 20
743.0514523659348
 30
0.0
  0
VERTEX
  5
198
  8
LAYER_05
 10
338.5579015684489
 20
795.1742580027269
 30
0.0
  0
VERTEX
  5
199
  8
LAYER_05
 10
356.6501570381309
 20
804.4861031960615
 30
0.0
  0
VERTEX
  5
19A
  8
LAYER_05
 10
389.6849214012686
 20
792.1763555789754
 30
0.0
  0
SEQEND
  5
19B
  8
LAYER_05
  0
POLYLINE
  5
19C
  8
LAYER_05
 66
     1
 10
0.0
 20
0.0
 30
0.0
 70
     1
  0
VERTEX
  5
19D
  8
LAYER_05
 10
482.4649047226634
 20
1028.242553089501
 30
0.0
  0
VERTEX
  5
19E
  8
LAYER_05
 10
507.2410971236942
 20
1018.913665326688
 30
0.0
  0
VERTEX
  5
19F
  8
LAYER_05
 10
482.7201708439322
 20
1052.716239321155
 30
0.0
  0
SEQEND
  5
1A0
  8
LAYER_05
  0
POLYLINE
  5
1A1
  8
LAYER_05
 66
     1
 10
0.0
 20
0.0
 30
0.0
 70
     1
  0
VERTEX
  5
1A2
  8
LAYER_05
 10
418.6671189599755
 20
1052.264096564089
 30
0.0
  0
VERTEX
  5
1A3
  8
LAYER_05
 10
477.0704000780109
 20
1030.273725900536
 30
0.0
  0
VERTEX
  5
1A4
  8
LAYER_05
 10
477.3812451298319
 20
1060.076052300602
 30
0.0
  0
VERTEX
  5
1A5
  8
LAYER_05
 10
461.3238619273649
 20
1082.211467482976
 30
0.0
  0
SEQEND
  5
1A6
  8
LAYER_05
  0
POLYLINE
  5
1A7
  8
LAYER_05
 66
     1
 10
0.0
 20
0.0
 30
0.0
 70
     1
  0
VERTEX
  5
1A8
  8
LAYER_05
 10
614.5884903667599
 20
1093.052368134899
 30
0.0
  0
VERTEX
  5
1A9
  8
LAYER_05
 10
606.7424424274928
 20
1095.893929143987
 30
0.0
  0
VERTEX
  5
1AA
  8
LAYER_05
 10
524.027018444813
 20
1095.893929143987
 30
0.0
  0
VERTEX
  5
1AB
  8
LAYER_05
 10
525.1723160632487
 20
1065.025168561949
 30
0.0
  0
VERTEX
  5
1AC
  8
LAYER_05
 10
613.6732780810926
 20
1006.587510435663
 30
0.0
  0
SEQEND
  5
1AD
  8
LAYER_05
  0
POLYLINE
  5
1AE
  8
LAYER_05
 66
     1
 10
0.0
 20
0.0
 30
0.0
 70
     1
  0
VERTEX
  5
1AF
  8
LAYER_05
 10
378.9398913004947
 20
1067.222442138917
 30
0.0
  0
VERTEX
  5
1B0
  8
LAYER_05
 10
377.8198026827775
 20
1095.893929143987
 30
0.0
  0
VERTEX
  5
1B1
  8
LAYER_05
 10
338.5579015684489
 20
1095.893929143987
 30
0.0
  0
VERTEX
  5
1B2
  8
LAYER_05
 10
338.5579015684489
 20
1082.427322846642
 30
0.0
  0
SEQEND
  5
1B3
  8
LAYER_05
  0
POLYLINE
  5
1B4
  8
LAYER_05
 66
     1
 10
0.0
 20
0.0
 30
0.0
 70
     1
  0
VERTEX
  5
1B5
  8
LAYER_05
 10
446.0326721068859
 20
1095.893929143987
 30
0.0
  0
VERTEX
  5
1B6
  8
LAYER_05
 10
388.8852168047388
 20
1095.893929143987
 30
0.0
  0
VERTEX
  5
1B7
  8
LAYER_05
 10
390.1705019216178
 20
1062.993822006472
 30
0.0
  0
VERTEX
  5
1B8
  8
LAYER_05
 10
396.0283807348536
 20
1060.78817663965
 30
0.0
  0
SEQEND
  5
1B9
  8
LAYER_05
  0
POLYLINE
  5
1BA
  8
LAYER_05
 66
     1
 10
0.0
 20
0.0
 30
0.0
 70
     1
  0
VERTEX
  5
1BB
  8
LAYER_05
 10
381.6192552145029
 20
998.6373798257996
 30
0.0
  0
VERTEX
  5
1BC
  8
LAYER_05
 10
380.5691587723826
 20
1025.517240952937
 30
0.0
  0
VERTEX
  5
1BD
  8
LAYER_05
 10
367.5408881094426
 20
1016.370681069708
 30
0.0
  0
SEQEND
  5
1BE
  8
LAYER_05
  0
POLYLINE
  5
1BF
  8
LAYER_05
 66
     1
 10
0.0
 20
0.0
 30
0.0
 70
     1
  0
VERTEX
  5
1C0
  8
LAYER_05
 10
384.1922389671695
 20
932.7753854603984
 30
0.0
  0
VERTEX
  5
1C1
  8
LAYER_05
 10
338.5579015684489
 20
929.6529542354026
 30
0.0
  0
VERTEX
  5
1C2
  8
LAYER_05
 10
338.5579015684489
 20
818.3543182363736
 30
0.0
  0
VERTEX
  5
1C3
  8
LAYER_05
 10
387.674659594651
 20
843.6340655793681
 30
0.0
  0
SEQEND
  5
1C4
  8
LAYER_05
  0
POLYLINE
  5
1C5
  8
LAYER_05
 66
     1
 10
0.0
 20
0.0
 30
0.0
 70
     1
  0
VERTEX
  5
1C6
  8
LAYER_05
 10
474.0746063502832
 20
743.0514523659347
 30
0.0
  0
VERTEX
  5
1C7
  8
LAYER_05
 10
474.258286016593
 20
760.6617740884492
 30
0.0
  0
VERTEX
  5
1C8
  8
LAYER_05
 10
400.9137973644318
 20
787.9921383824894
 30
0.0
  0
VERTEX
  5
1C9
  8
LAYER_05
 10
402.6694632240589
 20
743.0514523659348
 30
0.0
  0
SEQEND
  5
1CA
  8
LAYER_05
  0
POLYLINE
  5
1CB
  8
LAYER_05
 66
     1
 10
0.0
 20
0.0
 30
0.0
 70
     1
  0
VERTEX
  5
1CC
  8
LAYER_05
 10
521.5178112772761
 20
743.0514523659348
 30
0.0
  0
VERTEX
  5
1CD
  8
LAYER_05
 10
479.4902965899537
 20
743.0514523659348
 30
0.0
  0
VERTEX
  5
1CE
  8
LAYER_05
 10
479.6530090349809
 20
758.6515378993713
 30
0.0
  0
SEQEND
  5
1CF
  8
LAYER_05
  0
POLYLINE
  5
1D0
  8
LAYER_05
 66
     1
 10
0.0
 20
0.0
 30
0.0
 70
     1
  0
VERTEX
  5
1D1
  8
LAYER_05
 10
480.6287211303272
 20
852.1981141361683
 30
0.0
  0
VERTEX
  5
1D2
  8
LAYER_05
 10
524.34441486674
 20
797.1332362047197
 30
0.0
  0
VERTEX
  5
1D3
  8
LAYER_05
 10
525.9967820789191
 20
752.5976263812818
 30
0.0
  0
VERTEX
  5
1D4
  8
LAYER_05
 10
479.7695329635403
 20
769.8232909383885
 30
0.0
  0
SEQEND
  5
1D5
  8
LAYER_05
  0
POLYLINE
  5
1D6
  8
LAYER_05
 66
     1
 10
0.0
 20
0.0
 30
0.0
 70
     1
  0
VERTEX
  5
1D7
  8
LAYER_05
 10
531.4999474909421
 20
894.4789834929368
 30
0.0
  0
VERTEX
  5
1D8
  8
LAYER_05
 10
534.7939714202374
 20
805.6964396474307
 30
0.0
  0
VERTEX
  5
1D9
  8
LAYER_05
 10
584.5274709029501
 20
743.0514523659348
 30
0.0
  0
VERTEX
  5
1DA
  8
LAYER_05
 10
610.8838044789873
 20
743.0514523659348
 30
0.0
  0
VERTEX
  5
1DB
  8
LAYER_05
 10
612.2712178640049
 20
874.1276002544884
 30
0.0
  0
VERTEX
  5
1DC
  8
LAYER_05
 10
579.56305942013
 20
919.2164330908877
 30
0.0
  0
SEQEND
  5
1DD
  8
LAYER_05
  0
POLYLINE
  5
1DE
  8
LAYER_05
 66
     1
 10
0.0
 20
0.0
 30
0.0
 70
     1
  0
VERTEX
  5
1DF
  8
LAYER_05
 10
529.7096527228565
 20
942.7321010038161
 30
0.0
  0
VERTEX
  5
1E0
  8
LAYER_05
 10
530.6560326346653
 20
917.2246918840962
 30
0.0
  0
VERTEX
  5
1E1
  8
LAYER_05
 10
567.3192481295846
 20
936.0947651898075
 30
0.0
  0
VERTEX
  5
1E2
  8
LAYER_05
 10
560.9536236430363
 20
944.8699024041442
 30
0.0
  0
SEQEND
  5
1E3
  8
LAYER_05
  0
POLYLINE
  5
1E4
  8
LAYER_05
 66
     1
 10
0.0
 20
0.0
 30
0.0
 70
     1
  0
VERTEX
  5
1E5
  8
LAYER_05
 10
592.1072046107862
 20
925.6727391216003
 30
0.0
  0
VERTEX
  5
1E6
  8
LAYER_05
 10
612.9302531618881
 20
936.3900874857156
 30
0.0
  0
VERTEX
  5
1E7
  8
LAYER_05
 10
612.518977220887
 20
897.5347134149351
 30
0.0
  0
SEQEND
  5
1E8
  8
LAYER_05
  0
POLYLINE
  5
1E9
  8
LAYER_05
 66
     1
 10
0.0
 20
0.0
 30
0.0
 70
     1
  0
VERTEX
  5
1EA
  8
LAYER_05
 10
630.6472819211529
 20
1087.236441914812
 30
0.0
  0
VERTEX
  5
1EB
  8
LAYER_05
 10
629.6817437348869
 20
996.017035023043
 30
0.0
  0
VERTEX
  5
1EC
  8
LAYER_05
 10
653.3628518248332
 20
980.3802728109792
 30
0.0
  0
VERTEX
  5
1ED
  8
LAYER_05
 10
690.2350726043278
 20
999.357918379188
 30
0.0
  0
VERTEX
  5
1EE
  8
LAYER_05
 10
684.0027708936511
 20
1067.91297126326
 30
0.0
  0
SEQEND
  5
1EF
  8
LAYER_05
  0
POLYLINE
  5
1F0
  8
LAYER_05
 66
     1
 10
0.0
 20
0.0
 30
0.0
 70
     1
  0
VERTEX
  5
1F1
  8
LAYER_05
 10
643.4327844186108
 20
952.0893378939038
 30
0.0
  0
VERTEX
  5
1F2
  8
LAYER_05
 10
696.3433508136741
 20
932.1671187176478
 30
0.0
  0
VERTEX
  5
1F3
  8
LAYER_05
 10
699.6428100866906
 20
895.8732075029538
 30
0.0
  0
VERTEX
  5
1F4
  8
LAYER_05
 10
631.0669873644299
 20
945.7248252960311
 30
0.0
  0
SEQEND
  5
1F5
  8
LAYER_05
  0
POLYLINE
  5
1F6
  8
LAYER_05
 66
     1
 10
0.0
 20
0.0
 30
0.0
 70
     1
  0
VERTEX
  5
1F7
  8
LAYER_05
 10
711.4548396505236
 20
942.0218228344736
 30
0.0
  0
VERTEX
  5
1F8
  8
LAYER_05
 10
754.3322965109041
 20
925.877333151357
 30
0.0
  0
VERTEX
  5
1F9
  8
LAYER_05
 10
754.5188609102886
 20
958.114186760379
 30
0.0
  0
VERTEX
  5
1FA
  8
LAYER_05
 10
703.3779878056284
 20
954.6149826926099
 30
0.0
  0
VERTEX
  5
1FB
  8
LAYER_05
 10
704.080136334013
 20
946.8913788411776
 30
0.0
  0
SEQEND
  5
1FC
  8
LAYER_05
  0
POLYLINE
  5
1FD
  8
LAYER_05
 66
     1
 10
0.0
 20
0.0
 30
0.0
 70
     1
  0
VERTEX
  5
1FE
  8
LAYER_05
 10
755.005481054116
 20
1042.198301369154
 30
0.0
  0
VERTEX
  5
1FF
  8
LAYER_05
 10
693.3871021629845
 20
1064.514298448906
 30
0.0
  0
VERTEX
  5
200
  8
LAYER_05
 10
698.904777853904
 20
1003.820101288952
 30
0.0
  0
VERTEX
  5
201
  8
LAYER_05
 10
754.950314747971
 20
1032.665999701641
 30
0.0
  0
SEQEND
  5
202
  8
LAYER_05
  0
POLYLINE
  5
203
  8
LAYER_05
 66
     1
 10
0.0
 20
0.0
 30
0.0
 70
     1
  0
VERTEX
  5
204
  8
LAYER_05
 10
682.4456554533142
 20
1085.041174664583
 30
0.0
  0
VERTEX
  5
205
  8
LAYER_05
 10
652.4792983537657
 20
1095.893929143987
 30
0.0
  0
VERTEX
  5
206
  8
LAYER_05
 10
681.4590375825366
 20
1095.893929143987
 30
0.0
  0
SEQEND
  5
207
  8
LAYER_05
  0
POLYLINE
  5
208
  8
LAYER_05
 66
     1
 10
0.0
 20
0.0
 30
0.0
 70
     1
  0
VERTEX
  5
209
  8
LAYER_05
 10
830.5854131953687
 20
1048.414326760835
 30
0.0
  0
VERTEX
  5
20A
  8
LAYER_05
 10
893.2414263660771
 20
1080.662550098985
 30
0.0
  0
VERTEX
  5
20B
  8
LAYER_05
 10
893.6946922794866
 20
1008.534246476122
 30
0.0
  0
VERTEX
  5
20C
  8
LAYER_05
 10
851.0281603800238
 20
1023.986554998451
 30
0.0
  0
SEQEND
  5
20D
  8
LAYER_05
  0
POLYLINE
  5
20E
  8
LAYER_05
 66
     1
 10
0.0
 20
0.0
 30
0.0
 70
     1
  0
VERTEX
  5
20F
  8
LAYER_05
 10
759.6947603179874
 20
893.0657821850557
 30
0.0
  0
VERTEX
  5
210
  8
LAYER_05
 10
759.4593526770439
 20
852.3892024915255
 30
0.0
  0
VERTEX
  5
211
  8
LAYER_05
 10
792.0438656534877
 20
828.7016895694537
 30
0.0
  0
VERTEX
  5
212
  8
LAYER_05
 10
823.2357807586242
 20
851.1093068559333
 30
0.0
  0
SEQEND
  5
213
  8
LAYER_05
  0
POLYLINE
  5
214
  8
LAYER_05
 66
     1
 10
0.0
 20
0.0
 30
0.0
 70
     1
  0
VERTEX
  5
215
  8
LAYER_05
 10
888.2229573635489
 20
743.0514523659348
 30
0.0
  0
VERTEX
  5
216
  8
LAYER_05
 10
793.0397135551467
 20
743.0514523659348
 30
0.0
  0
VERTEX
  5
217
  8
LAYER_05
 10
822.8957990883653
 20
790.5414334782597
 30
0.0
  0
SEQEND
  5
218
  8
LAYER_05
  0
POLYLINE
  5
219
  8
LAYER_05
 66
     1
 10
0.0
 20
0.0
 30
0.0
 70
     1
  0
VERTEX
  5
21A
  8
LAYER_05
 10
901.4157764381918
 20
854.9519594658407
 30
0.0
  0
VERTEX
  5
21B
  8
LAYER_05
 10
901.65785619707
 20
816.4297546567927
 30
0.0
  0
VERTEX
  5
21C
  8
LAYER_05
 10
905.5800649549494
 20
813.8398992555976
 30
0.0
  0
VERTEX
  5
21D
  8
LAYER_05
 10
908.9133747742452
 20
852.1289165932487
 30
0.0
  0
SEQEND
  5
21E
  8
LAYER_05
  0
POLYLINE
  5
21F
  8
LAYER_05
 66
     1
 10
0.0
 20
0.0
 30
0.0
 70
     1
  0
VERTEX
  5
220
  8
LAYER_05
 10
946.0392402622649
 20
986.4170679095882
 30
0.0
  0
VERTEX
  5
221
  8
LAYER_05
 10
966.3413751943865
 20
1018.710249927492
 30
0.0
  0
VERTEX
  5
222
  8
LAYER_05
 10
992.0401495240492
 20
989.5645810245968
 30
0.0
  0
SEQEND
  5
223
  8
LAYER_05
  0
POLYLINE
  5
224
  8
LAYER_05
 66
     1
 10
0.0
 20
0.0
 30
0.0
 70
     1
  0
VERTEX
  5
225
  8
LAYER_05
 10
900.4660514763027
 20
1006.081899712357
 30
0.0
  0
VERTEX
  5
226
  8
LAYER_05
 10
899.9755937965037
 20
1084.128537229402
 30
0.0
  0
VERTEX
  5
227
  8
LAYER_05
 10
905.9489339208095
 20
1087.202936583196
 30
0.0
  0
VERTEX
  5
228
  8
LAYER_05
 10
927.272741281211
 20
1063.019035004745
 30
0.0
  0
VERTEX
  5
229
  8
LAYER_05
 10
921.64814456724
 20
998.4104949128964
 30
0.0
  0
SEQEND
  5
22A
  8
LAYER_05
  0
POLYLINE
  5
22B
  8
LAYER_05
 66
     1
 10
0.0
 20
0.0
 30
0.0
 70
     1
  0
VERTEX
  5
22C
  8
LAYER_05
 10
1044.8140824279
 20
816.503304483075
 30
0.0
  0
VERTEX
  5
22D
  8
LAYER_05
 10
1170.06265304541
 20
769.3439250743592
 30
0.0
  0
VERTEX
  5
22E
  8
LAYER_05
 10
1170.06265304541
 20
787.6644873337787
 30
0.0
  0
VERTEX
  5
22F
  8
LAYER_05
 10
1043.15663169383
 20
931.592008259461
 30
0.0
  0
SEQEND
  5
230
  8
LAYER_05
  0
POLYLINE
  5
231
  8
LAYER_05
 66
     1
 10
0.0
 20
0.0
 30
0.0
 70
     1
  0
VERTEX
  5
232
  8
LAYER_05
 10
974.631062260102
 20
876.2890146912803
 30
0.0
  0
VERTEX
  5
233
  8
LAYER_05
 10
940.4090127210136
 20
917.1821690129925
 30
0.0
  0
VERTEX
  5
234
  8
LAYER_05
 10
981.2741799345954
 20
946.5388476325472
 30
0.0
  0
VERTEX
  5
235
  8
LAYER_05
 10
979.0751669137805
 20
879.9201733717248
 30
0.0
  0
SEQEND
  5
236
  8
LAYER_05
  0
POLYLINE
  5
237
  8
LAYER_05
 66
     1
 10
0.0
 20
0.0
 30
0.0
 70
     1
  0
VERTEX
  5
238
  8
LAYER_05
 10
1170.06265304541
 20
753.7993481552011
 30
0.0
  0
VERTEX
  5
239
  8
LAYER_05
 10
1045.039168294378
 20
800.8739768180642
 30
0.0
  0
VERTEX
  5
23A
  8
LAYER_05
 10
1045.166921027605
 20
792.0031873769527
 30
0.0
  0
VERTEX
  5
23B
  8
LAYER_05
 10
1086.132914684932
 20
743.0514523659347
 30
0.0
  0
VERTEX
  5
23C
  8
LAYER_05
 10
1170.06265304541
 20
743.0514523659348
 30
0.0
  0
SEQEND
  5
23D
  8
LAYER_05
  0
POLYLINE
  5
23E
  8
LAYER_05
 66
     1
 10
0.0
 20
0.0
 30
0.0
 70
     1
  0
VERTEX
  5
23F
  8
LAYER_05
 10
1170.06265304541
 20
908.4435476233323
 30
0.0
  0
VERTEX
  5
240
  8
LAYER_05
 10
1170.06265304541
 20
940.4289574276188
 30
0.0
  0
VERTEX
  5
241
  8
LAYER_05
 10
1117.242339149005
 20
982.932759332081
 30
0.0
  0
VERTEX
  5
242
  8
LAYER_05
 10
1042.490906993557
 20
977.8180536262439
 30
0.0
  0
VERTEX
  5
243
  8
LAYER_05
 10
1042.826376085485
 20
954.5240261457045
 30
0.0
  0
SEQEND
  5
244
  8
LAYER_05
  0
POLYLINE
  5
245
  8
LAYER_05
 66
     1
 10
0.0
 20
0.0
 30
0.0
 70
     1
  0
VERTEX
  5
246
  8
LAYER_05
 10
1046.338713566223
 20
993.2798432920505
 30
0.0
  0
VERTEX
  5
247
  8
LAYER_05
 10
1077.005885949294
 20
1015.310496418097
 30
0.0
  0
VERTEX
  5
248
  8
LAYER_05
 10
1099.835001680707
 20
996.940211557521
 30
0.0
  0
SEQEND
  5
249
  8
LAYER_05
  0
POLYLINE
  5
24A
  8
LAYER_05
 66
     1
 10
0.0
 20
0.0
 30
0.0
 70
     1
  0
VERTEX
  5
24B
  8
LAYER_05
 10
1170.06265304541
 20
986.5468755179522
 30
0.0
  0
VERTEX
  5
24C
  8
LAYER_05
 10
1139.173543902239
 20
984.4333547702258
 30
0.0
  0
VERTEX
  5
24D
  8
LAYER_05
 10
1170.06265304541
 20
959.5773007414366
 30
0.0
  0
SEQEND
  5
24E
  8
LAYER_05
  0
POLYLINE
  5
24F
  8
LAYER_05
 66
     1
 10
0.0
 20
0.0
 30
0.0
 70
     1
  0
VERTEX
  5
250
  8
LAYER_05
 10
1170.06265304541
 20
1082.160525214932
 30
0.0
  0
VERTEX
  5
251
  8
LAYER_05
 10
1089.578123396807
 20
1024.342127987017
 30
0.0
  0
VERTEX
  5
252
  8
LAYER_05
 10
1121.766206433942
 20
998.4408069956656
 30
0.0
  0
VERTEX
  5
253
  8
LAYER_05
 10
1170.06265304541
 20
1001.745387308477
 30
0.0
  0
SEQEND
  5
254
  8
LAYER_05
  0
POLYLINE
  5
255
  8
LAYER_05
 66
     1
 10
0.0
 20
0.0
 30
0.0
 70
     1
  0
VERTEX
  5
256
  8
LAYER_05
 10
1035.986718126127
 20
963.5481344429513
 30
0.0
  0
VERTEX
  5
257
  8
LAYER_05
 10
1035.787814963669
 20
977.3594089947842
 30
0.0
  0
VERTEX
  5
258
  8
LAYER_05
 10
1024.490407741968
 20
976.5864082440048
 30
0.0
  0
SEQEND
  5
259
  8
LAYER_05
  0
POLYLINE
  5
25A
  8
LAYER_05
 66
     1
 10
0.0
 20
0.0
 30
0.0
 70
     1
  0
VERTEX
  5
25B
  8
LAYER_05
 10
993.0351150465501
 20
1012.260698946893
 30
0.0
  0
VERTEX
  5
25C
  8
LAYER_05
 10
995.3058901961172
 20
1081.053393022216
 30
0.0
  0
VERTEX
  5
25D
  8
LAYER_05
 10
1034.751589751308
 20
1049.311964844318
 30
0.0
  0
VERTEX
  5
25E
  8
LAYER_05
 10
1035.410898013333
 20
1003.531458850522
 30
0.0
  0
VERTEX
  5
25F
  8
LAYER_05
 10
1014.180049038431
 20
988.2796624509381
 30
0.0
  0
SEQEND
  5
260
  8
LAYER_05
  0
POLYLINE
  5
261
  8
LAYER_05
 66
     1
 10
0.0
 20
0.0
 30
0.0
 70
     1
  0
VERTEX
  5
262
  8
LAYER_05
 10
1163.981566436558
 20
1095.893929143987
 30
0.0
  0
VERTEX
  5
263
  8
LAYER_05
 10
1040.790436485756
 20
1095.893929143987
 30
0.0
  0
VERTEX
  5
264
  8
LAYER_05
 10
1041.260957067948
 20
1063.222307121404
 30
0.0
  0
VERTEX
  5
265
  8
LAYER_05
 10
1077.692930760622
 20
1033.905983938263
 30
0.0
  0
SEQEND
  5
266
  8
LAYER_05
  0
ENDSEC
  0
EOF
