  0
SECTION
  2
HEADER
  9
$ACADVER
  1
AC1009
  9
$DWGCODEPAGE
  3
ansi_1252
  9
$INSBASE
 10
0.0
 20
0.0
 30
0.0
  9
$EXTMIN
 10
1.000000000000000E+20
 20
1.000000000000000E+20
 30
1.000000000000000E+20
  9
$EXTMAX
 10
-1.000000000000000E+20
 20
-1.000000000000000E+20
 30
-1.000000000000000E+20
  9
$LIMMIN
 10
0.0
 20
0.0
  9
$LIMMAX
 10
12.0
 20
9.0
  9
$ORTHOMODE
 70
     0
  9
$REGENMODE
 70
     1
  9
$FILLMODE
 70
     1
  9
$QTEXTMODE
 70
     0
  9
$MIRRTEXT
 70
     1
  9
$DRAGMODE
 70
     2
  9
$LTSCALE
 40
1.0
  9
$OSMODE
 70
    37
  9
$ATTMODE
 70
     1
  9
$TEXTSIZE
 40
0.2
  9
$TRACEWID
 40
0.05
  9
$TEXTSTYLE
  7
STANDARD
  9
$CLAYER
  8
0
  9
$CELTYPE
  6
BYLAYER
  9
$CECOLOR
 62
   256
  9
$DIMSCALE
 40
1.0
  9
$DIMASZ
 40
0.18
  9
$DIMEXO
 40
0.0625
  9
$DIMDLI
 40
0.38
  9
$DIMRND
 40
0.0
  9
$DIMDLE
 40
0.0
  9
$DIMEXE
 40
0.18
  9
$DIMTP
 40
0.0
  9
$DIMTM
 40
0.0
  9
$DIMTXT
 40
0.18
  9
$DIMCEN
 40
0.09
  9
$DIMTSZ
 40
0.0
  9
$DIMTOL
 70
     0
  9
$DIMLIM
 70
     0
  9
$DIMTIH
 70
     1
  9
$DIMTOH
 70
     1
  9
$DIMSE1
 70
     0
  9
$DIMSE2
 70
     0
  9
$DIMTAD
 70
     0
  9
$DIMZIN
 70
     0
  9
$DIMBLK
  1

  9
$DIMASO
 70
     1
  9
$DIMSHO
 70
     1
  9
$DIMPOST
  1

  9
$DIMAPOST
  1

  9
$DIMALT
 70
     0
  9
$DIMALTD
 70
     2
  9
$DIMALTF
 40
25.4
  9
$DIMLFAC
 40
1.0
  9
$DIMTOFL
 70
     0
  9
$DIMTVP
 40
0.0
  9
$DIMTIX
 70
     0
  9
$DIMSOXD
 70
     0
  9
$DIMSAH
 70
     0
  9
$DIMBLK1
  1

  9
$DIMBLK2
  1

  9
$DIMSTYLE
  2
STANDARD_ACAD
  9
$DIMCLRD
 70
     0
  9
$DIMCLRE
 70
     0
  9
$DIMCLRT
 70
     0
  9
$DIMTFAC
 40
1.0
  9
$DIMGAP
 40
0.09
  9
$LUNITS
 70
     2
  9
$LUPREC
 70
     3
  9
$SKETCHINC
 40
0.1
  9
$FILLETRAD
 40
0.5
  9
$AUNITS
 70
     0
  9
$AUPREC
 70
     0
  9
$MENU
  1
.
  9
$ELEVATION
 40
0.0
  9
$PELEVATION
 40
0.0
  9
$THICKNESS
 40
0.0
  9
$LIMCHECK
 70
     0
  9
$CHAMFERA
 40
0.0
  9
$CHAMFERB
 40
0.0
  9
$SKPOLY
 70
     0
  9
$TDCREATE
 40
2459857.430112384
  9
$TDUPDATE
 40
2459857.430112489
  9
$TDINDWG
 40
0.0000000116
  9
$TDUSRTIMER
 40
0.0000000116
  9
$USRTIMER
 70
     1
  9
$ANGBASE
 50
0.0
  9
$ANGDIR
 70
     0
  9
$PDMODE
 70
     0
  9
$PDSIZE
 40
0.0
  9
$PLINEWID
 40
0.0
  9
$COORDS
 70
     1
  9
$SPLFRAME
 70
     0
  9
$SPLINETYPE
 70
     6
  9
$SPLINESEGS
 70
     8
  9
$ATTDIA
 70
     0
  9
$ATTREQ
 70
     1
  9
$HANDLING
 70
     1
  9
$HANDSEED
  5
200
  9
$SURFTAB1
 70
     6
  9
$SURFTAB2
 70
     6
  9
$SURFTYPE
 70
     6
  9
$SURFU
 70
     6
  9
$SURFV
 70
     6
  9
$UCSNAME
  2

  9
$UCSORG
 10
0.0
 20
0.0
 30
0.0
  9
$UCSXDIR
 10
1.0
 20
0.0
 30
0.0
  9
$UCSYDIR
 10
0.0
 20
1.0
 30
0.0
  9
$PUCSNAME
  2

  9
$PUCSORG
 10
0.0
 20
0.0
 30
0.0
  9
$PUCSXDIR
 10
1.0
 20
0.0
 30
0.0
  9
$PUCSYDIR
 10
0.0
 20
1.0
 30
0.0
  9
$USERI1
 70
     0
  9
$USERI2
 70
     0
  9
$USERI3
 70
     0
  9
$USERI4
 70
     0
  9
$USERI5
 70
     0
  9
$USERR1
 40
0.0
  9
$USERR2
 40
0.0
  9
$USERR3
 40
0.0
  9
$USERR4
 40
0.0
  9
$USERR5
 40
0.0
  9
$WORLDVIEW
 70
     1
  9
$SHADEDGE
 70
     3
  9
$SHADEDIF
 70
    70
  9
$TILEMODE
 70
     1
  9
$MAXACTVP
 70
    64
  9
$PLIMCHECK
 70
     0
  9
$PEXTMIN
 10
1.000000000000000E+20
 20
1.000000000000000E+20
 30
1.000000000000000E+20
  9
$PEXTMAX
 10
-1.000000000000000E+20
 20
-1.000000000000000E+20
 30
-1.000000000000000E+20
  9
$PLIMMIN
 10
0.0
 20
0.0
  9
$PLIMMAX
 10
12.0
 20
9.0
  9
$UNITMODE
 70
     0
  9
$VISRETAIN
 70
     1
  9
$PLINEGEN
 70
     0
  9
$PSLTSCALE
 70
     1
  0
ENDSEC
  0
SECTION
  2
TABLES
  0
TABLE
  2
VPORT
 70
     1
  0
VPORT
  2
*ACTIVE
 70
     0
 10
0.0
 20
0.0
 11
1.0
 21
1.0
 12
10.42990654205607
 22
4.5
 13
0.0
 23
0.0
 14
0.5
 24
0.5
 15
0.5
 25
0.5
 16
0.0
 26
0.0
 36
1.0
 17
0.0
 27
0.0
 37
0.0
 40
9.0
 41
1.972972972850329
 42
50.0
 43
0.0
 44
0.0
 50
0.0
 51
0.0
 71
     0
 72
   100
 73
     1
 74
     3
 75
     0
 76
     0
 77
     0
 78
     0
  0
ENDTAB
  0
TABLE
  2
LTYPE
 70
     1
  0
LTYPE
  2
CONTINUOUS
 70
     0
  3
Solid line
 72
    65
 73
     0
 40
0.0
  0
ENDTAB
  0
TABLE
  2
LAYER
 70
     1
  0
LAYER
  2
0
 70
     0
 62
     7
  6
CONTINUOUS
  0
ENDTAB
  0
TABLE
  2
STYLE
 70
     1
  0
STYLE
  2
STANDARD
 70
     0
 40
0.0
 41
1.0
 50
0.0
 71
     0
 42
0.2
  3
txt
  4

  0
ENDTAB
  0
TABLE
  2
VIEW
 70
     0
  0
ENDTAB
  0
TABLE
  2
UCS
 70
     0
  0
ENDTAB
  0
TABLE
  2
APPID
 70
     2
  0
APPID
  2
ACAD
 70
     0
  0
APPID
  2
RHINO
 70
     0
  0
ENDTAB
  0
TABLE
  2
DIMSTYLE
 70
     1
  0
DIMSTYLE
  2
STANDARD_ACAD
 70
     0
  3

  4

  5

  6

  7

 40
1.0
 41
0.18
 42
0.0625
 43
0.38
 44
0.18
 45
0.0
 46
0.0
 47
0.0
 48
0.0
140
0.18
141
0.09
142
0.0
143
25.4
144
1.0
145
0.0
146
1.0
147
0.09
 71
     0
 72
     0
 73
     1
 74
     1
 75
     0
 76
     0
 77
     0
 78
     0
170
     0
171
     2
172
     0
173
     0
174
     0
175
     0
176
     0
177
     0
178
     0
  0
ENDTAB
  0
ENDSEC
  0
SECTION
  2
BLOCKS
  0
BLOCK
  8
0
  2
$MODEL_SPACE
 70
     0
 10
0.0
 20
0.0
 30
0.0
  3
$MODEL_SPACE
  1

  0
ENDBLK
  5
21
  8
0
  0
BLOCK
 67
     1
  8
0
  2
$PAPER_SPACE
 70
     0
 10
0.0
 20
0.0
 30
0.0
  3
$PAPER_SPACE
  1

  0
ENDBLK
  5
1D
 67
     1
  8
0
  0
ENDSEC
  0
SECTION
  2
ENTITIES
  0
POLYLINE
  5
6F
  8
0
 66
     1
 10
0.0
 20
0.0
 30
0.0
 70
     1
  0
VERTEX
  5
70
  8
0
 10
50.6680463539324
 20
-14.75141944721648
 30
0.0
  0
VERTEX
  5
71
  8
0
 10
899.5368557681279
 20
-14.75141944721648
 30
0.0
  0
VERTEX
  5
72
  8
0
 10
899.5368557681279
 20
1694.939169001357
 30
0.0
  0
VERTEX
  5
73
  8
0
 10
50.6680463539324
 20
1694.939169001357
 30
0.0
  0
SEQEND
  5
74
  8
0
  0
ARC
  5
75
  8
0
 10
74.98198821943804
 20
62.10920796183343
 30
0.0
 40
48.14776103251823
 50
283.2780309296776
 51
19.30360593804501
  0
ARC
  5
76
  8
0
 10
128.1701043633707
 20
32.9784858891562
 30
0.0
 40
45.70843966001997
 50
99.75828447283793
 51
202.8233523948847
  0
ARC
  5
77
  8
0
 10
172.31617571408
 20
79.76247077678346
 30
0.0
 40
45.98617699881239
 50
230.8640377135418
 51
310.6556551376792
  0
ARC
  5
78
  8
0
 10
173.2409633190887
 20
10.03348535912929
 30
0.0
 40
45.35465570347966
 50
50.19378797584068
 51
131.3259048753804
  0
ARC
  5
79
  8
0
 10
313.9877627238785
 20
88.71647303005943
 30
0.0
 40
46.07585976125152
 50
220.8968326471945
 51
298.985760841661
  0
ARC
  5
7A
  8
0
 10
302.3925762903676
 20
23.34860951114142
 30
0.0
 40
42.17771703144597
 50
36.45808689770113
 51
123.4245065911545
  0
ARC
  5
7B
  8
0
 10
-267.9209785952795
 20
82.0669901636089
 30
0.0
 40
53.00650277717213
 50
295.4627286981316
 51
42.02380906035587
210
0.0
220
0.0
230
-1.0
  0
ARC
  5
7C
  8
0
 10
-202.1889682236959
 20
68.98405243132355
 30
0.0
 40
55.2576549981725
 50
118.4865151183422
 51
219.0000226401454
210
0.0
220
0.0
230
-1.0
  0
ARC
  5
7D
  8
0
 10
-130.2545050413305
 20
196.3091722930153
 30
0.0
 40
100.3971589176594
 50
211.9837656153007
 51
294.9365863822416
210
0.0
220
0.0
230
-1.0
  0
ARC
  5
7E
  8
0
 10
172.1559375089853
 20
55.21251194274814
 30
0.0
 40
97.98296843334558
 50
63.80312549115492
 51
149.2765225113027
  0
ARC
  5
7F
  8
0
 10
-314.2451412238004
 20
141.8323703644449
 30
0.0
 40
48.95779136679445
 50
273.139619212521
 51
7.632379752049205
210
0.0
220
0.0
230
-1.0
  0
ARC
  5
80
  8
0
 10
-267.1734974913984
 20
102.8719420774565
 30
0.0
 40
45.48602703386577
 50
88.17017921802194
 51
192.6018197465482
210
0.0
220
0.0
230
-1.0
  0
ARC
  5
81
  8
0
 10
307.9521874551206
 20
242.6115782826883
 30
0.0
 40
45.37763422188947
 50
279.7544229105655
 51
22.65131559773
  0
ARC
  5
82
  8
0
 10
360.1171759208439
 20
213.9370349335172
 30
0.0
 40
47.28317953147464
 50
102.5665046145733
 51
199.8392338937221
  0
ARC
  5
83
  8
0
 10
-350.7900360651489
 20
220.8339721354262
 30
0.0
 40
81.41167892008386
 50
165.3306294784935
 51
262.2031134694315
210
0.0
220
0.0
230
-1.0
  0
ARC
  5
84
  8
0
 10
439.0263682920682
 20
161.8387500069624
 30
0.0
 40
80.17423515238251
 50
96.78953579771505
 51
195.6767212543599
  0
ARC
  5
85
  8
0
 10
-499.4905484089037
 20
168.0876698438927
 30
0.0
 40
45.9707836592578
 50
268.6984397733242
 51
13.27785697822636
210
0.0
220
0.0
230
-1.0
  0
ARC
  5
86
  8
0
 10
-455.6197761507495
 20
132.5467910524764
 30
0.0
 40
46.10738459389637
 50
88.9174462666378
 51
193.0588504849128
210
0.0
220
0.0
230
-1.0
  0
ARC
  5
87
  8
0
 10
-428.5298110806647
 20
84.92727713253706
 30
0.0
 40
51.71535180475236
 50
293.5815952287754
 51
43.09361089513084
210
0.0
220
0.0
230
-1.0
  0
ARC
  5
88
  8
0
 10
-358.4798179255251
 20
70.4685596841452
 30
0.0
 40
59.34154993140762
 50
122.9605547341157
 51
213.7146513897904
210
0.0
220
0.0
230
-1.0
  0
ARC
  5
89
  8
0
 10
-453.6746436706659
 20
78.81107028489234
 30
0.0
 40
50.66182485186442
 50
186.9177089366537
 51
285.6223012793475
210
0.0
220
0.0
230
-1.0
  0
ARC
  5
8A
  8
0
 10
493.196148994687
 20
19.61822746927666
 30
0.0
 40
54.17263167141379
 50
78.5310567764444
 51
168.9289330075545
  0
ARC
  5
8B
  8
0
 10
-648.9325551429231
 20
111.3615425077942
 30
0.0
 40
32.18650734108471
 50
309.5251842726279
 51
58.10296539595289
210
0.0
220
0.0
230
-1.0
  0
ARC
  5
8C
  8
0
 10
-612.8533720144092
 20
113.7668213830285
 30
0.0
 40
31.38151780583354
 50
127.4267505394675
 51
240.2013991291133
210
0.0
220
0.0
230
-1.0
  0
ARC
  5
8D
  8
0
 10
-608.7252882230002
 20
113.4971645232038
 30
0.0
 40
79.97438277795735
 50
282.6289964519831
 51
22.26538039458086
210
0.0
220
0.0
230
-1.0
  0
ARC
  5
8E
  8
0
 10
-515.1076334959708
 20
64.6531707525794
 30
0.0
 40
81.53835162600326
 50
103.9133612057732
 51
200.9810156407908
210
0.0
220
0.0
230
-1.0
  0
ARC
  5
8F
  8
0
 10
663.9658831860224
 20
69.48562646163755
 30
0.0
 40
48.1494124039079
 50
173.8163203011976
 51
268.201853501943
  0
ARC
  5
90
  8
0
 10
-619.4917506215874
 20
30.81246770995475
 30
0.0
 40
43.99083991077251
 50
85.57361625976593
 51
192.4082099370934
210
0.0
220
0.0
230
-1.0
  0
ARC
  5
91
  8
0
 10
726.6174384877936
 20
103.9629129283588
 30
0.0
 40
43.82260817308745
 50
217.5801863050909
 51
302.7301632085038
  0
ARC
  5
92
  8
0
 10
715.6453052414442
 20
40.73599509627005
 30
0.0
 40
43.55130591654644
 50
37.25139746523596
 51
123.0589520483588
  0
ARC
  5
93
  8
0
 10
-811.4455633741642
 20
71.04530655025476
 30
0.0
 40
46.19457503225784
 50
242.3280494300605
 51
319.3134695222961
210
0.0
220
0.0
230
-1.0
  0
ARC
  5
94
  8
0
 10
797.8656568822391
 20
-0.0031897335845778
 30
0.0
 40
46.21245225869105
 50
40.7041543941579
 51
117.6543266534856
  0
ARC
  5
95
  8
0
 10
850.2306864493038
 20
133.6040501760995
 30
0.0
 40
76.8924715190371
 50
166.4988754834759
 51
268.0339283184788
  0
ARC
  5
96
  8
0
 10
-770.7239689428932
 20
73.1098085951345
 30
0.0
 40
78.58892229529238
 50
93.45720168901494
 51
192.0099945090304
210
0.0
220
0.0
230
-1.0
  0
ARC
  5
97
  8
0
 10
-701.3032112121512
 20
189.304965306224
 30
0.0
 40
66.65165295901551
 50
195.7467817060919
 51
283.8517330535414
210
0.0
220
0.0
230
-1.0
  0
ARC
  5
98
  8
0
 10
749.1730993385167
 20
107.0587145656227
 30
0.0
 40
66.19128480953853
 50
75.76146904100885
 51
164.6400161993579
  0
ARC
  5
99
  8
0
 10
-653.05174840306
 20
128.947756269195
 30
0.0
 40
46.83352176636512
 50
60.77523113657779
 51
137.8511710288747
210
0.0
220
0.0
230
-1.0
  0
ARC
  5
9A
  8
0
 10
-663.7976076689656
 20
194.4741372275989
 30
0.0
 40
41.68428197948003
 50
234.8865079345713
 51
323.7398942308812
210
0.0
220
0.0
230
-1.0
  0
ARC
  5
9B
  8
0
 10
685.9838575365915
 20
284.6033981925596
 30
0.0
 40
92.68557622374229
 50
199.2421366489852
 51
286.5667583635114
  0
ARC
  5
9C
  8
0
 10
624.1904190961784
 20
163.8253139681154
 30
0.0
 40
93.82498768274168
 50
19.90256497883914
 51
105.9063300336574
  0
ARC
  5
9D
  8
0
 10
-800.9128005593215
 20
213.7776625373131
 30
0.0
 40
50.30561096269555
 50
172.010370183827
 51
265.5944079404484
210
0.0
220
0.0
230
-1.0
  0
ARC
  5
9E
  8
0
 10
853.2407048886454
 20
171.7013547373517
 30
0.0
 40
49.132664779627
 50
92.92899496024883
 51
189.4662269154757
  0
ARC
  5
9F
  8
0
 10
-818.0459418396048
 20
246.4508886604407
 30
0.0
 40
54.49330886598451
 50
298.0153479027582
 51
39.44322078447254
210
0.0
220
0.0
230
-1.0
  0
ARC
  5
A0
  8
0
 10
-747.0663400881904
 20
232.3054875996606
 30
0.0
 40
56.68444424094
 50
120.6495294332035
 51
216.8090392540271
210
0.0
220
0.0
230
-1.0
  0
ARC
  5
A1
  8
0
 10
618.7300812562246
 20
284.1619018667331
 30
0.0
 40
40.49585229691533
 50
15.17188578783428
 51
104.3606316668591
  0
ARC
  5
A2
  8
0
 10
646.0769645389499
 20
331.0849693573111
 30
0.0
 40
38.17394748406954
 50
191.6254638953574
 51
287.907053559336
  0
ARC
  5
A3
  8
0
 10
-611.3411280845
 20
195.5883200840952
 30
0.0
 40
58.69773697585495
 50
289.0034048556827
 51
35.59573956698267
210
0.0
220
0.0
230
-1.0
  0
ARC
  5
A4
  8
0
 10
-548.5156028790145
 20
175.5376205504294
 30
0.0
 40
56.2788334254117
 50
105.5591149721699
 51
219.0400294504956
210
0.0
220
0.0
230
-1.0
  0
POLYLINE
  5
A5
  8
0
 66
     1
 10
0.0
 20
0.0
 30
0.0
  0
VERTEX
  5
A6
  8
0
 10
508.0844309165556
 20
208.1532229584458
 30
0.0
  0
VERTEX
  5
A7
  8
0
 10
506.8346139358318
 20
208.8572807961034
 30
0.0
  0
VERTEX
  5
A8
  8
0
 10
505.5966743865382
 20
209.5952780715993
 30
0.0
  0
VERTEX
  5
A9
  8
0
 10
504.3719470202902
 20
210.3669820580892
 30
0.0
  0
VERTEX
  5
AA
  8
0
 10
503.1617651547422
 20
211.1720918395002
 30
0.0
  0
VERTEX
  5
AB
  8
0
 10
501.9674564039964
 20
212.0102378038972
 30
0.0
  0
VERTEX
  5
AC
  8
0
 10
500.7903383300743
 20
212.8809814529336
 30
0.0
  0
VERTEX
  5
AD
  8
0
 10
499.6317140424542
 20
213.783815537514
 30
0.0
  0
VERTEX
  5
AE
  8
0
 10
498.4928677739846
 20
214.718164527182
 30
0.0
  0
VERTEX
  5
AF
  8
0
 10
497.3750604624894
 20
215.683385417949
 30
0.0
  0
VERTEX
  5
B0
  8
0
 10
496.2795253680922
 20
216.6787688803515
 30
0.0
  0
VERTEX
  5
B1
  8
0
 10
495.2074637566576
 20
217.7035407464891
 30
0.0
  0
VERTEX
  5
B2
  8
0
 10
494.1600406797774
 20
218.7568638316986
 30
0.0
  0
VERTEX
  5
B3
  8
0
 10
493.1383808814127
 20
219.837840083414
 30
0.0
  0
VERTEX
  5
B4
  8
0
 10
492.1435648606125
 20
220.9455130466704
 30
0.0
  0
VERTEX
  5
B5
  8
0
 10
491.1766251187015
 20
222.0788706327075
 30
0.0
  0
VERTEX
  5
B6
  8
0
 10
490.2385426179501
 20
223.2368481742314
 30
0.0
  0
VERTEX
  5
B7
  8
0
 10
489.3302434770243
 20
224.4183317481686
 30
0.0
  0
VERTEX
  5
B8
  8
0
 10
488.4525959265047
 20
225.6221617442152
 30
0.0
  0
VERTEX
  5
B9
  8
0
 10
487.606407545461
 20
226.8471366552059
 30
0.0
  0
VERTEX
  5
BA
  8
0
 10
486.7924227975265
 20
228.0920170633163
 30
0.0
  0
VERTEX
  5
BB
  8
0
 10
486.0113208821639
 20
229.3555297944091
 30
0.0
  0
VERTEX
  5
BC
  8
0
 10
485.263713913884
 20
230.6363722114606
 30
0.0
  0
VERTEX
  5
BD
  8
0
 10
484.5501454391318
 20
231.9332166169773
 30
0.0
  0
VERTEX
  5
BE
  8
0
 10
483.8710892974188
 20
233.2447147336389
 30
0.0
  0
VERTEX
  5
BF
  8
0
 10
483.2269488301143
 20
234.5695022321011
 30
0.0
  0
VERTEX
  5
C0
  8
0
 10
482.6180564371479
 20
235.9062032749416
 30
0.0
  0
VERTEX
  5
C1
  8
0
 10
482.0446734787774
 20
237.2534350461456
 30
0.0
  0
VERTEX
  5
C2
  8
0
 10
481.5069905165726
 20
238.6098122362728
 30
0.0
  0
VERTEX
  5
C3
  8
0
 10
481.0051278848981
 20
239.9739514545177
 30
0.0
  0
VERTEX
  5
C4
  8
0
 10
480.5391365814979
 20
241.3444755402442
 30
0.0
  0
VERTEX
  5
C5
  8
0
 10
480.108999463294
 20
242.7200177482073
 30
0.0
  0
VERTEX
  5
C6
  8
0
 10
479.7146327312748
 20
244.0992257835482
 30
0.0
  0
VERTEX
  5
C7
  8
0
 10
479.358393690055
 20
245.4881515266515
 30
0.0
  0
VERTEX
  5
C8
  8
0
 10
479.0433344008951
 20
246.8930239324087
 30
0.0
  0
VERTEX
  5
C9
  8
0
 10
478.7703182499667
 20
248.3127321176125
 30
0.0
  0
VERTEX
  5
CA
  8
0
 10
478.5401440337654
 20
249.7461172977458
 30
0.0
  0
VERTEX
  5
CB
  8
0
 10
478.3535420335691
 20
251.1919754430054
 30
0.0
  0
VERTEX
  5
CC
  8
0
 10
478.2111703200507
 20
252.6490602168946
 30
0.0
  0
VERTEX
  5
CD
  8
0
 10
478.11361131932
 20
254.1160861855488
 30
0.0
  0
VERTEX
  5
CE
  8
0
 10
478.0613686702799
 20
255.5917322831676
 30
0.0
  0
VERTEX
  5
CF
  8
0
 10
478.0548644014075
 20
257.0746455161991
 30
0.0
  0
VERTEX
  5
D0
  8
0
 10
478.0944364529119
 20
258.5634448863282
 30
0.0
  0
VERTEX
  5
D1
  8
0
 10
478.1803365677036
 20
260.0567255098728
 30
0.0
  0
VERTEX
  5
D2
  8
0
 10
478.3127285717514
 20
261.5530629089536
 30
0.0
  0
VERTEX
  5
D3
  8
0
 10
478.4916870612549
 20
263.0510174478002
 30
0.0
  0
VERTEX
  5
D4
  8
0
 10
478.7171965106331
 20
264.5491388858227
 30
0.0
  0
VERTEX
  5
D5
  8
0
 10
478.9891508116993
 20
266.0459710176543
 30
0.0
  0
VERTEX
  5
D6
  8
0
 10
479.30735325058
 20
267.5400563692691
 30
0.0
  0
VERTEX
  5
D7
  8
0
 10
479.6715169250227
 20
269.0299409185311
 30
0.0
  0
VERTEX
  5
D8
  8
0
 10
480.0812656007465
 20
270.5141788081455
 30
0.0
  0
VERTEX
  5
D9
  8
0
 10
480.5361350015156
 20
271.9913370189687
 30
0.0
  0
VERTEX
  5
DA
  8
0
 10
481.0355745236841
 20
273.459999971991
 30
0.0
  0
VERTEX
  5
DB
  8
0
 10
481.5789493621501
 20
274.9187740280354
 30
0.0
  0
VERTEX
  5
DC
  8
0
 10
482.16554303101
 20
276.366291855296
 30
0.0
  0
VERTEX
  5
DD
  8
0
 10
482.7945602587831
 20
277.8012166362621
 30
0.0
  0
VERTEX
  5
DE
  8
0
 10
483.465130234908
 20
279.2222460873054
 30
0.0
  0
VERTEX
  5
DF
  8
0
 10
484.1763101813815
 20
280.6281162662348
 30
0.0
  0
VERTEX
  5
E0
  8
0
 10
484.9270892208851
 20
282.0176051453866
 30
0.0
  0
VERTEX
  5
E1
  8
0
 10
485.7163925106345
 20
283.3895359303121
 30
0.0
  0
VERTEX
  5
E2
  8
0
 10
486.5430856094409
 20
284.7427801067794
 30
0.0
  0
VERTEX
  5
E3
  8
0
 10
487.4059790441593
 20
286.0762602016025
 30
0.0
  0
VERTEX
  5
E4
  8
0
 10
488.3038330407907
 20
287.3889522456912
 30
0.0
  0
VERTEX
  5
E5
  8
0
 10
489.2353623850211
 20
288.6798879306418
 30
0.0
  0
VERTEX
  5
E6
  8
0
 10
490.199241376904
 20
289.9481564531185
 30
0.0
  0
SEQEND
  5
E7
  8
0
  0
ARC
  5
E8
  8
0
 10
-467.4341089467165
 20
242.1175132043215
 30
0.0
 40
52.97189526680783
 50
115.452247116682
 51
219.8795419436325
210
0.0
220
0.0
230
-1.0
  0
ARC
  5
E9
  8
0
 10
411.132449958351
 20
317.0682683222358
 30
0.0
 40
51.32279100291317
 50
287.377063143331
 51
16.04232475156743
  0
ARC
  5
EA
  8
0
 10
469.1493919021883
 20
285.8420243402315
 30
0.0
 40
46.23371404953833
 50
100.8371419201769
 51
202.5822459747216
  0
ARC
  5
EB
  8
0
 10
-560.3672403445618
 20
345.7105546917203
 30
0.0
 40
52.61279007282327
 50
263.9395185523124
 51
354.7639867002165
210
0.0
220
0.0
230
-1.0
  0
ARC
  5
EC
  8
0
 10
-514.7586190010048
 20
290.0902847605529
 30
0.0
 40
51.26979818379063
 50
82.39563738896638
 51
176.3078678635628
210
0.0
220
0.0
230
-1.0
  0
ARC
  5
ED
  8
0
 10
313.1553665021789
 20
331.5648720623877
 30
0.0
 40
61.96768910442677
 50
247.2617643160932
 51
343.0782275160998
  0
ARC
  5
EE
  8
0
 10
349.0802973006669
 20
255.1166193232051
 30
0.0
 40
62.90938263544474
 50
68.20272205453102
 51
162.1372697776619
  0
ARC
  5
EF
  8
0
 10
-216.7372152361743
 20
197.2419280884509
 30
0.0
 40
35.65546609859279
 50
299.3874544296842
 51
35.87085724174691
210
0.0
220
0.0
230
-1.0
  0
ARC
  5
F0
  8
0
 10
-176.2664389588189
 20
188.3654381242725
 30
0.0
 40
31.94131758956672
 50
111.2518958021873
 51
224.0064158692437
210
0.0
220
0.0
230
-1.0
  0
ARC
  5
F1
  8
0
 10
-281.2968188105628
 20
248.8233581695208
 30
0.0
 40
66.55890204204563
 50
256.3716754400207
 51
354.1907401543278
210
0.0
220
0.0
230
-1.0
  0
ARC
  5
F2
  8
0
 10
-229.7499015708162
 20
175.970381804012
 30
0.0
 40
67.72406879891372
 50
77.489608727571
 51
173.0728068667776
210
0.0
220
0.0
230
-1.0
  0
ARC
  5
F3
  8
0
 10
122.2101643485347
 20
271.7301168905003
 30
0.0
 40
63.22050327616008
 50
249.914117034634
 51
343.8750074622816
  0
ARC
  5
F4
  8
0
 10
163.4483015729105
 20
190.4261845513991
 30
0.0
 40
66.65992385827938
 50
72.99489871720169
 51
160.8841574103998
  0
ARC
  5
F5
  8
0
 10
-130.3341604022928
 20
289.2741142921258
 30
0.0
 40
35.89729534348851
 50
300.2706469934424
 51
36.86653812071447
210
0.0
220
0.0
230
-1.0
  0
ARC
  5
F6
  8
0
 10
-85.33944393104902
 20
280.1759179468375
 30
0.0
 40
34.68994355651175
 50
117.9806882674178
 51
219.1564968467389
210
0.0
220
0.0
230
-1.0
  0
ARC
  5
F7
  8
0
 10
-181.5221972040154
 20
342.8723621552289
 30
0.0
 40
50.43082949175932
 50
273.781059375956
 51
7.91345150659033
210
0.0
220
0.0
230
-1.0
  0
ARC
  5
F8
  8
0
 10
-130.651417522459
 20
301.4529841631419
 30
0.0
 40
48.37130118334251
 50
91.09003565802492
 51
190.6044752245214
210
0.0
220
0.0
230
-1.0
  0
ARC
  5
F9
  8
0
 10
223.2537045008954
 20
367.3429434534786
 30
0.0
 40
62.45310483714772
 50
249.0283221453289
 51
343.6705816456255
  0
ARC
  5
FA
  8
0
 10
262.6513946997488
 20
287.8006874121917
 30
0.0
 40
65.29641129479391
 50
71.66899732658553
 51
161.0299064643689
  0
ARC
  5
FB
  8
0
 10
301.7912399745786
 20
375.6826761794252
 30
0.0
 40
33.15763528038095
 50
318.2133005812758
 51
65.46025015444987
  0
ARC
  5
FC
  8
0
 10
346.0544512661896
 20
384.9593971088048
 30
0.0
 40
36.95923235690465
 50
145.5903243521422
 51
238.0832263835835
  0
ARC
  5
FD
  8
0
 10
402.281391338023
 20
420.7024773016278
 30
0.0
 40
61.28061052828852
 50
224.0898536360197
 51
303.8435900229893
  0
ARC
  5
FE
  8
0
 10
392.3564145937298
 20
326.797322688084
 30
0.0
 40
61.5663703003048
 50
44.31167166943231
 51
123.6217719895766
  0
ARC
  5
FF
  8
0
 10
-487.9860141474887
 20
440.6366240520705
 30
0.0
 40
42.27456997768623
 50
297.4981115507212
 51
43.3774913726376
210
0.0
220
0.0
230
-1.0
  0
ARC
  5
100
  8
0
 10
-436.7288327335193
 20
432.0019017350219
 30
0.0
 40
42.90033729058781
 50
118.5910240112117
 51
222.2845789121471
210
0.0
220
0.0
230
-1.0
  0
ARC
  5
101
  8
0
 10
-407.5004637196367
 20
485.0394974581511
 30
0.0
 40
55.08218257306564
 50
291.1245467588669
 51
30.87711655861903
210
0.0
220
0.0
230
-1.0
  0
ARC
  5
102
  8
0
 10
-345.2352616646957
 20
463.6008799841445
 30
0.0
 40
51.91774138770061
 50
106.7814898360601
 51
215.2201734814259
210
0.0
220
0.0
230
-1.0
  0
ARC
  5
103
  8
0
 10
275.7692227904845
 20
510.7723857353063
 30
0.0
 40
96.29508731607203
 50
214.64785992002
 51
301.4197144502093
  0
ARC
  5
104
  8
0
 10
247.2653048018114
 20
376.2820684648064
 30
0.0
 40
94.5038778031356
 50
33.61251275072245
 51
122.4550616195069
  0
ARC
  5
105
  8
0
 10
137.2700527309256
 20
407.9896017157931
 30
0.0
 40
48.65594205138588
 50
317.8222664390327
 51
48.57284910866881
  0
ARC
  5
106
  8
0
 10
205.5151054738604
 20
411.8021744947279
 30
0.0
 40
48.65155576074214
 50
137.8170324490729
 51
228.5780830986287
  0
ARC
  5
107
  8
0
 10
68.62409835403372
 20
444.1764733968678
 30
0.0
 40
58.62311122756125
 50
324.0037455553758
 51
56.72117264148807
  0
ARC
  5
108
  8
0
 10
144.4146238545593
 20
458.0353123455354
 30
0.0
 40
56.02280373111862
 50
141.1388511442971
 51
239.5860670525667
  0
ARC
  5
109
  8
0
 10
-123.4725594318723
 20
561.3704531885196
 30
0.0
 40
32.20555397718623
 50
294.7294438104261
 51
47.35181037522921
210
0.0
220
0.0
230
-1.0
  0
ARC
  5
10A
  8
0
 10
-80.63632854463805
 20
554.6169933639555
 30
0.0
 40
36.99198245066942
 50
124.6215826754238
 51
217.4596715102313
210
0.0
220
0.0
230
-1.0
  0
ARC
  5
10B
  8
0
 10
163.4017590567177
 20
568.2941000916742
 30
0.0
 40
53.38378213096954
 50
277.3801064614748
 51
4.548867741031311
  0
ARC
  5
10C
  8
0
 10
216.3038411728267
 20
525.4005199975317
 30
0.0
 40
47.12845567696822
 50
89.6188104061436
 51
192.3101637963625
  0
ARC
  5
10D
  8
0
 10
-311.817752714765
 20
564.6083707364703
 30
0.0
 40
47.93423484653379
 50
272.0454786217295
 51
10.68245323210256
210
0.0
220
0.0
230
-1.0
  0
ARC
  5
10E
  8
0
 10
-266.5352646528082
 20
528.4131847005524
 30
0.0
 40
45.11731339858294
 50
87.6867957933279
 51
195.0411360605042
210
0.0
220
0.0
230
-1.0
  0
ARC
  5
10F
  8
0
 10
533.4159075622886
 20
434.7709618756988
 30
0.0
 40
54.19582763197439
 50
249.8725061011965
 51
342.171653953373
  0
ARC
  5
110
  8
0
 10
569.4228203174935
 20
361.0180002657939
 30
0.0
 40
59.24695730734634
 50
74.74746819269825
 51
157.2966918618715
  0
ARC
  5
111
  8
0
 10
-642.5006670940536
 20
413.0093146462793
 30
0.0
 40
66.88487807194964
 50
230.8888229187998
 51
322.7326909512698
210
0.0
220
0.0
230
-1.0
  0
ARC
  5
112
  8
0
 10
631.1431581425798
 20
317.9142396966512
 30
0.0
 40
68.80161760750538
 50
38.89214759887666
 51
127.4863385310538
  0
ARC
  5
113
  8
0
 10
-744.9654529503347
 20
308.2252379520393
 30
0.0
 40
49.72409847524738
 50
291.1697967626145
 51
44.2726724954596
210
0.0
220
0.0
230
-1.0
  0
ARC
  5
114
  8
0
 10
-685.2469299995155
 20
295.2276770745081
 30
0.0
 40
53.45688563424223
 50
116.8147445380366
 51
218.6277247200374
210
0.0
220
0.0
230
-1.0
  0
ARC
  5
115
  8
0
 10
-833.4425000823974
 20
360.686117391164
 30
0.0
 40
69.43272835937655
 50
256.9410621772681
 51
353.3672930870265
210
0.0
220
0.0
230
-1.0
  0
ARC
  5
116
  8
0
 10
-780.74946982445
 20
285.8620144248784
 30
0.0
 40
68.7582275819691
 50
76.30822241883772
 51
174.0001328454569
210
0.0
220
0.0
230
-1.0
  0
ARC
  5
117
  8
0
 10
724.030940897276
 20
440.3671407074274
 30
0.0
 40
66.94364318872631
 50
250.6739481181115
 51
339.5887047601318
  0
ARC
  5
118
  8
0
 10
765.6999264725044
 20
351.5398421159223
 30
0.0
 40
68.78713658698209
 50
72.16187172797565
 51
158.1007811502676
  0
ARC
  5
119
  8
0
 10
-852.6781992958494
 20
404.4224801136617
 30
0.0
 40
32.8536420847809
 50
296.1167080459933
 51
41.76092703082302
210
0.0
220
0.0
230
-1.0
  0
ARC
  5
11A
  8
0
 10
-814.5921609086311
 20
396.9770891507468
 30
0.0
 40
32.31808430782615
 50
114.8461403922289
 51
223.0314946845874
210
0.0
220
0.0
230
-1.0
  0
ARC
  5
11B
  8
0
 10
-822.744097911878
 20
518.8898036833617
 30
0.0
 40
70.67301113439028
 50
257.8020298432459
 51
348.5549934755397
210
0.0
220
0.0
230
-1.0
  0
ARC
  5
11C
  8
0
 10
-765.1769906681716
 20
430.8459926047519
 30
0.0
 40
74.93942607024653
 50
81.01741265794915
 51
165.3396106608363
210
0.0
220
0.0
230
-1.0
  0
ARC
  5
11D
  8
0
 10
658.0005407081776
 20
555.4525329257883
 30
0.0
 40
102.8175620393466
 50
239.3608213008258
 51
320.2039927627887
  0
ARC
  5
11E
  8
0
 10
683.2289679456824
 20
409.12765494826
 30
0.0
 40
96.81906330363279
 50
56.26465450466303
 51
143.3001595589514
  0
ARC
  5
11F
  8
0
 10
518.6851479771517
 20
518.0424960608419
 30
0.0
 40
56.43511022161114
 50
282.7493203277688
 51
22.09990187411521
  0
ARC
  5
120
  8
0
 10
591.2863450807141
 20
480.1272071865167
 30
0.0
 40
62.53811554530195
 50
108.9534927899676
 51
195.8957294119163
  0
ARC
  5
121
  8
0
 10
-473.9756465010504
 20
573.7156657429819
 30
0.0
 40
74.44317698719105
 50
268.6371689563058
 51
17.69173571921049
210
0.0
220
0.0
230
-1.0
  0
ARC
  5
122
  8
0
 10
-397.3720787961267
 20
516.3347161512785
 30
0.0
 40
80.20536564843479
 50
94.06181184099651
 51
192.2670928345198
210
0.0
220
0.0
230
-1.0
  0
ARC
  5
123
  8
0
 10
484.7002771930503
 20
634.330903892148
 30
0.0
 40
57.44720535189062
 50
280.499205468116
 51
0.2695649513368836
  0
ARC
  5
124
  8
0
 10
551.5511666950854
 20
578.9963440942449
 30
0.0
 40
56.39449476930762
 50
99.59946494327839
 51
181.1693054761744
  0
ARC
  5
125
  8
0
 10
618.1281502364084
 20
588.8062518824644
 30
0.0
 40
63.67846554804315
 50
287.9689555551403
 51
15.47155272605505
  0
ARC
  5
126
  8
0
 10
694.7377003016803
 20
547.5911857045455
 30
0.0
 40
60.16377050823981
 50
104.6720061012004
 51
198.7685021799948
  0
ARC
  5
127
  8
0
 10
761.2541319153167
 20
557.9366011258468
 30
0.0
 40
50.73696289315434
 50
321.293579597067
 51
44.70573101592518
  0
ARC
  5
128
  8
0
 10
831.9756092813692
 20
561.6425300707929
 30
0.0
 40
47.164523878343
 50
137.2988244562339
 51
228.7004861567584
  0
ARC
  5
129
  8
0
 10
-774.6942845758654
 20
580.3125003512662
 30
0.0
 40
56.01710963601231
 50
301.7654791717224
 51
36.8949552192841
210
0.0
220
0.0
230
-1.0
  0
ARC
  5
12A
  8
0
 10
-709.6405927918452
 20
568.0560076963059
 30
0.0
 40
50.15785727462465
 50
113.8171552531043
 51
224.8432791379022
210
0.0
220
0.0
230
-1.0
  0
ARC
  5
12B
  8
0
 10
-859.6389000669067
 20
634.6951793132943
 30
0.0
 40
36.00143370800327
 50
298.7769794168149
 51
36.03210756037556
210
0.0
220
0.0
230
-1.0
  0
ARC
  5
12C
  8
0
 10
-805.9645013053756
 20
622.7019986376406
 30
0.0
 40
41.27356397249728
 50
126.5173291888353
 51
208.2917577883551
210
0.0
220
0.0
230
-1.0
  0
ARC
  5
12D
  8
0
 10
741.7405253780715
 20
704.5454386771571
 30
0.0
 40
68.46371445542732
 50
251.1655285535123
 51
338.6065944663334
  0
ARC
  5
12E
  8
0
 10
781.0291322980238
 20
619.8514357359425
 30
0.0
 40
64.53467915837743
 50
67.72904800327518
 51
162.0430750165706
  0
ARC
  5
12F
  8
0
 10
663.8970416566734
 20
667.3786630478583
 30
0.0
 40
41.65623447710747
 50
226.7507118377237
 51
318.7897197566771
  0
ARC
  5
130
  8
0
 10
666.8546684381466
 20
606.2543762307496
 30
0.0
 40
44.04303427559302
 50
49.88118362508907
 51
135.6592479693117
  0
ARC
  5
131
  8
0
 10
-623.8874521971826
 20
638.5155708508304
 30
0.0
 40
56.3591801987952
 50
297.4374259347696
 51
37.33531915719262
210
0.0
220
0.0
230
-1.0
  0
ARC
  5
132
  8
0
 10
-553.9475309387577
 20
622.8646793804135
 30
0.0
 40
55.8089195593103
 50
116.7606258189453
 51
218.0121192730171
210
0.0
220
0.0
230
-1.0
  0
ARC
  5
133
  8
0
 10
475.310045022162
 20
704.3894769279387
 30
0.0
 40
62.17370899249913
 50
287.5410826559873
 51
16.81072457550625
  0
ARC
  5
134
  8
0
 10
554.2140581481037
 20
662.7456922225806
 30
0.0
 40
62.69784235504965
 50
108.012083483084
 51
196.3397237484095
  0
ARC
  5
135
  8
0
 10
388.0763883534166
 20
704.4407110452369
 30
0.0
 40
54.8320820495047
 50
275.6808877350379
 51
5.789840931611095
  0
ARC
  5
136
  8
0
 10
450.8229932448432
 20
653.147851491134
 30
0.0
 40
57.41209188260289
 50
98.2056637177357
 51
183.2650649489134
  0
ARC
  5
137
  8
0
 10
304.8216114419965
 20
672.1928446741589
 30
0.0
 40
61.87718016718625
 50
246.8839026512957
 51
325.1959839608035
  0
ARC
  5
138
  8
0
 10
330.8691861900644
 20
581.5925846808791
 30
0.0
 40
60.57421398772389
 50
65.8730034355795
 51
146.2068831765199
  0
ARC
  5
139
  8
0
 10
-176.6640474991751
 20
666.8745262845669
 30
0.0
 40
59.06060193035857
 50
245.1440842768748
 51
326.1043848854988
210
0.0
220
0.0
230
-1.0
  0
ARC
  5
13A
  8
0
 10
-153.8397787492336
 20
585.2604743908364
 30
0.0
 40
55.27980211098437
 50
61.70968190417328
 51
149.5387872582002
210
0.0
220
0.0
230
-1.0
  0
ARC
  5
13B
  8
0
 10
-120.4065293012863
 20
693.9852167735094
 30
0.0
 40
42.44639700665305
 50
224.1564354182996
 51
311.6530594524526
210
0.0
220
0.0
230
-1.0
  0
ARC
  5
13C
  8
0
 10
122.792886382438
 20
628.7581232220294
 30
0.0
 40
45.37865985346707
 50
51.79379408972887
 51
132.3967110395189
  0
ARC
  5
13D
  8
0
 10
-270.6088912023561
 20
674.2049110876626
 30
0.0
 40
46.05607392691804
 50
310.3369149991914
 51
50.60233904018779
210
0.0
220
0.0
230
-1.0
  0
ARC
  5
13E
  8
0
 10
-211.4664825351316
 20
674.6896849291971
 30
0.0
 40
46.11988364011924
 50
130.4317397148574
 51
230.5075143245219
210
0.0
220
0.0
230
-1.0
  0
ARC
  5
13F
  8
0
 10
150.7585655596562
 20
766.4349640078284
 30
0.0
 40
66.53683916488893
 50
250.7247544296007
 51
340.2933003125602
  0
ARC
  5
140
  8
0
 10
192.0780296156645
 20
679.8420201966723
 30
0.0
 40
67.60619951760253
 50
71.61736626916507
 51
159.4006884729957
  0
ARC
  5
141
  8
0
 10
-635.0952775299866
 20
779.3774247138106
 30
0.0
 40
74.21736235917002
 50
293.764607441405
 51
38.02324504713196
210
0.0
220
0.0
230
-1.0
  0
ARC
  5
142
  8
0
 10
-542.4984876218413
 20
756.1082832083958
 30
0.0
 40
76.96726802004508
 50
116.3243105833115
 51
215.4635419052253
210
0.0
220
0.0
230
-1.0
  0
ARC
  5
143
  8
0
 10
633.6244229656727
 20
827.0653805123673
 30
0.0
 40
50.63954664137254
 50
271.9991784112032
 51
4.793275307301363
  0
ARC
  5
144
  8
0
 10
681.6221239282511
 20
784.4453747721568
 30
0.0
 40
46.9162783964084
 50
86.98858485768429
 51
189.8038688608204
  0
ARC
  5
145
  8
0
 10
-669.1378817227702
 20
790.1020713137725
 30
0.0
 40
97.55504087465889
 50
204.4492091459893
 51
289.0861633606794
210
0.0
220
0.0
230
-1.0
  0
ARC
  5
146
  8
0
 10
722.2308775368132
 20
666.4195242469672
 30
0.0
 40
90.6386383281995
 50
66.79464753792185
 51
159.6699799554094
  0
ARC
  5
147
  8
0
 10
-840.3672504574648
 20
795.718340820606
 30
0.0
 40
71.31104460581163
 50
262.6375813149274
 51
349.2396615226355
210
0.0
220
0.0
230
-1.0
  0
ARC
  5
148
  8
0
 10
-782.4918652756587
 20
715.8799889544218
 30
0.0
 40
67.63063679159056
 50
79.62312347637885
 51
172.2541193611841
210
0.0
220
0.0
230
-1.0
  0
ARC
  5
149
  8
0
 10
726.0511860435828
 20
839.5097878639586
 30
0.0
 40
47.57614319194587
 50
285.4802453479894
 51
16.26543269559869
  0
ARC
  5
14A
  8
0
 10
773.8016206037781
 20
812.902580546835
 30
0.0
 40
39.98675402749839
 50
92.97963670242477
 51
208.766041341163
  0
ARC
  5
14B
  8
0
 10
-738.7854570140123
 20
883.5946190671475
 30
0.0
 40
30.96593414879641
 50
294.8021686102991
 51
42.84200182468852
210
0.0
220
0.0
230
-1.0
  0
ARC
  5
14C
  8
0
 10
-704.0488241394196
 20
876.7304940080961
 30
0.0
 40
30.40228701203077
 50
113.3121969655924
 51
224.3319734693954
210
0.0
220
0.0
230
-1.0
  0
ARC
  5
14D
  8
0
 10
-839.5700524909086
 20
895.1579087864234
 30
0.0
 40
54.4994163306779
 50
266.4238901232904
 51
352.314744361439
210
0.0
220
0.0
230
-1.0
  0
ARC
  5
14E
  8
0
 10
-786.6100418943228
 20
830.6128958718343
 30
0.0
 40
57.26636709216935
 50
88.94952921145298
 51
169.7891052732763
210
0.0
220
0.0
230
-1.0
  0
ARC
  5
14F
  8
0
 10
640.617959083462
 20
925.7562003599463
 30
0.0
 40
71.74378302078988
 50
212.4722931724476
 51
297.1781304574582
  0
ARC
  5
150
  8
0
 10
612.2782838101134
 20
821.2671686269125
 30
0.0
 40
73.40366901274945
 50
33.64260663149696
 51
116.007816998409
  0
ARC
  5
151
  8
0
 10
-524.0151202799022
 20
768.1294045519102
 30
0.0
 40
53.9328177587146
 50
309.3118645830586
 51
51.95905313484364
210
0.0
220
0.0
230
-1.0
  0
ARC
  5
152
  8
0
 10
-444.6031240410746
 20
769.0101871531712
 30
0.0
 40
62.14896938017032
 50
137.9884126775765
 51
223.2825050403256
210
0.0
220
0.0
230
-1.0
  0
ARC
  5
153
  8
0
 10
391.2396184581437
 20
798.5080139760289
 30
0.0
 40
48.76213228208745
 50
282.6387262419034
 51
19.6397590604827
  0
ARC
  5
154
  8
0
 10
448.416616235236
 20
766.9956913375177
 30
0.0
 40
49.20524025885565
 50
103.2186228932441
 51
199.0598624091423
  0
ARC
  5
155
  8
0
 10
-292.9850597702261
 20
763.6402304686237
 30
0.0
 40
83.59389348028508
 50
165.3137634446178
 51
259.3111938076423
210
0.0
220
0.0
230
-1.0
  0
ARC
  5
156
  8
0
 10
388.6176560425449
 20
703.1546567579264
 30
0.0
 40
83.0034232811743
 50
100.249931288951
 51
195.1251114587889
  0
ARC
  5
157
  8
0
 10
-344.9124244588093
 20
811.1751822903908
 30
0.0
 40
28.98605301243907
 50
295.9389488748935
 51
46.175543228287
210
0.0
220
0.0
230
-1.0
  0
ARC
  5
158
  8
0
 10
-308.8067795152674
 20
805.4935833398841
 30
0.0
 40
31.0537872358966
 50
121.0868607570052
 51
221.0276313461753
210
0.0
220
0.0
230
-1.0
  0
ARC
  5
159
  8
0
 10
-251.8871391282209
 20
855.913443683296
 30
0.0
 40
93.54112804447114
 50
240.5533281517336
 51
330.428476794135
210
0.0
220
0.0
230
-1.0
  0
ARC
  5
15A
  8
0
 10
-215.6931324600103
 20
725.3215547588064
 30
0.0
 40
95.74868811688567
 50
61.85677035724278
 51
149.125034588626
210
0.0
220
0.0
230
-1.0
  0
ARC
  5
15B
  8
0
 10
-141.7242474467619
 20
812.982262689518
 30
0.0
 40
52.7167324137592
 50
296.6637418365307
 51
40.45801358785523
210
0.0
220
0.0
230
-1.0
  0
ARC
  5
15C
  8
0
 10
-76.37158180931519
 20
799.7584095253427
 30
0.0
 40
53.72946182173337
 50
118.0205522579526
 51
219.1012031664332
210
0.0
220
0.0
230
-1.0
  0
ARC
  5
15D
  8
0
 10
169.3814753480582
 20
883.753304882379
 30
0.0
 40
46.13231755135177
 50
232.8865000839488
 51
311.4636365309219
  0
ARC
  5
15E
  8
0
 10
172.0398694047273
 20
813.7593722025845
 30
0.0
 40
45.08387679400654
 50
51.78767264849806
 51
132.5624639663726
  0
ARC
  5
15F
  8
0
 10
-259.9503716949782
 20
908.1602025188314
 30
0.0
 40
53.46544513580295
 50
296.771445026648
 51
39.90489812132027
210
0.0
220
0.0
230
-1.0
  0
ARC
  5
160
  8
0
 10
-194.2316204437825
 20
894.596157929195
 30
0.0
 40
53.86270581390076
 50
117.3008988813038
 51
219.3754442666645
210
0.0
220
0.0
230
-1.0
  0
ARC
  5
161
  8
0
 10
-298.5995497398543
 20
922.0920747349559
 30
0.0
 40
71.64082362065732
 50
212.6297993818299
 51
293.2323165233893
210
0.0
220
0.0
230
-1.0
  0
ARC
  5
162
  8
0
 10
330.5131317788781
 20
818.1549180622779
 30
0.0
 40
71.22374491403946
 50
66.48252785139097
 51
147.6553562433898
  0
ARC
  5
163
  8
0
 10
397.5751689334911
 20
882.4185383670051
 30
0.0
 40
49.27748426740245
 50
272.7462317262285
 51
6.129444986640772
  0
ARC
  5
164
  8
0
 10
444.7605016950019
 20
842.0298396948979
 30
0.0
 40
45.68619097458306
 50
87.72890105872443
 51
191.1467756541445
  0
ARC
  5
165
  8
0
 10
-544.0278188485493
 20
882.430920318192
 30
0.0
 40
50.06453880987279
 50
275.877118237148
 51
6.46323195291114
210
0.0
220
0.0
230
-1.0
  0
ARC
  5
166
  8
0
 10
-496.6964642746294
 20
844.3349520025979
 30
0.0
 40
43.79814357243093
 50
86.83916102148596
 51
195.5011891685733
210
0.0
220
0.0
230
-1.0
  0
ARC
  5
167
  8
0
 10
405.5073810513218
 20
979.1623462305081
 30
0.0
 40
58.41071643379474
 50
213.7886718086128
 51
296.8196636418363
  0
ARC
  5
168
  8
0
 10
384.2736222714761
 20
898.2000788828384
 30
0.0
 40
55.64201506059851
 50
31.21283987647272
 51
119.3954955739763
  0
ARC
  5
169
  8
0
 10
-296.8462438756249
 20
1020.948487799606
 30
0.0
 40
83.97248842541856
 50
257.58532107907
 51
354.1488906976838
210
0.0
220
0.0
230
-1.0
  0
ARC
  5
16A
  8
0
 10
-228.5384184626014
 20
926.4707812218529
 30
0.0
 40
87.25616880751238
 50
79.94978460311403
 51
171.7844271736396
210
0.0
220
0.0
230
-1.0
  0
ARC
  5
16B
  8
0
 10
-201.7812523429663
 20
980.9086319074544
 30
0.0
 40
34.74846406497617
 50
301.9217341650664
 51
36.22517310917243
210
0.0
220
0.0
230
-1.0
  0
ARC
  5
16C
  8
0
 10
-157.4679519355032
 20
972.3539407091024
 30
0.0
 40
33.33618220259084
 50
119.2360573692772
 51
218.9108499049617
210
0.0
220
0.0
230
-1.0
  0
ARC
  5
16D
  8
0
 10
75.19057571116541
 20
960.399210494232
 30
0.0
 40
72.80940811543614
 50
301.5008233973217
 51
48.14260719408228
  0
ARC
  5
16E
  8
0
 10
162.2555247907488
 20
952.5089494838949
 30
0.0
 40
73.07239936703171
 50
121.776795230785
 51
227.8666353606189
  0
ARC
  5
16F
  8
0
 10
708.6003554537454
 20
997.7872249876781
 30
0.0
 40
59.85946446739148
 50
221.7248665952444
 51
307.2271367114378
  0
ARC
  5
170
  8
0
 10
699.9334202367496
 20
908.1711148439417
 30
0.0
 40
61.43571094648397
 50
43.06934307706025
 51
125.8826602296219
  0
ARC
  5
171
  8
0
 10
-835.7326428493426
 20
991.3288369165123
 30
0.0
 40
82.55173594058559
 50
255.3599888043879
 51
354.3744360195359
210
0.0
220
0.0
230
-1.0
  0
ARC
  5
172
  8
0
 10
-775.2758250771147
 20
904.5602479543779
 30
0.0
 40
81.61331710027376
 50
74.58222154040625
 51
175.1522032835176
210
0.0
220
0.0
230
-1.0
  0
ARC
  5
173
  8
0
 10
532.1728623112891
 20
977.0140056473574
 30
0.0
 40
54.91987223914277
 50
243.6506394129454
 51
331.47341127161
  0
ARC
  5
174
  8
0
 10
555.924795984738
 20
901.9658790825106
 30
0.0
 40
54.6231266769404
 50
63.35022365895085
 51
151.7738270256044
  0
ARC
  5
175
  8
0
 10
-500.0035991768597
 20
986.6315620960384
 30
0.0
 40
45.87023525140436
 50
308.9605618158698
 51
49.78712127705999
210
0.0
220
0.0
230
-1.0
  0
ARC
  5
176
  8
0
 10
-442.5172846486522
 20
986.0032963634898
 30
0.0
 40
45.25737960690901
 50
128.0127236584931
 51
230.7349594344365
210
0.0
220
0.0
230
-1.0
  0
ARC
  5
177
  8
0
 10
403.54070281858
 20
1059.220190483944
 30
0.0
 40
59.64568928921827
 50
172.8452619027276
 51
267.7014324712146
  0
ARC
  5
178
  8
0
 10
-345.714474042943
 20
1010.226209907468
 30
0.0
 40
56.43908709061039
 50
88.62427637155815
 51
190.8290292544995
210
0.0
220
0.0
230
-1.0
  0
ARC
  5
179
  8
0
 10
177.1073576839163
 20
1095.404701736607
 30
0.0
 40
39.80855062386072
 50
223.5124695516242
 51
315.7158817820368
  0
ARC
  5
17A
  8
0
 10
176.7030818142967
 20
1035.369735098109
 30
0.0
 40
43.2987271145104
 50
48.12422330349712
 51
131.1041280301636
  0
ARC
  5
17B
  8
0
 10
-133.8962532456086
 20
1068.853778620862
 30
0.0
 40
45.54169484746121
 50
304.7380115277483
 51
47.17301732388946
210
0.0
220
0.0
230
-1.0
  0
ARC
  5
17C
  8
0
 10
-76.97121814985728
 20
1064.828776139344
 30
0.0
 40
45.55149529895851
 50
124.753350569734
 51
227.1576782819037
210
0.0
220
0.0
230
-1.0
  0
ARC
  5
17D
  8
0
 10
-274.9315548939826
 20
1084.798861776067
 30
0.0
 40
49.35251033756536
 50
273.270067126303
 51
9.939603867204921
210
0.0
220
0.0
230
-1.0
  0
ARC
  5
17E
  8
0
 10
-225.7089809468262
 20
1045.792293742472
 30
0.0
 40
47.52922935605856
 50
90.736369691035
 51
192.4733013024728
210
0.0
220
0.0
230
-1.0
  0
ARC
  5
17F
  8
0
 10
-327.1017614990814
 20
1131.481391983062
 30
0.0
 40
51.52915567895081
 50
306.475858026414
 51
53.52414197358618
210
0.0
220
0.0
230
-1.0
  0
ARC
  5
180
  8
0
 10
-261.5239663708521
 20
1131.481391983062
 30
0.0
 40
54.20311642549268
 50
130.1428905626376
 51
229.8571094373625
210
0.0
220
0.0
230
-1.0
  0
ARC
  5
181
  8
0
 10
134.8303467946186
 20
1137.54375424526
 30
0.0
 40
45.57301570513133
 50
313.4865209987486
 51
54.3930174271166
  0
ARC
  5
182
  8
0
 10
192.086044798711
 20
1141.486984135349
 30
0.0
 40
45.16693081081301
 50
132.8584719630615
 51
235.0210664628035
  0
ARC
  5
183
  8
0
 10
-136.14359146039
 20
1182.635948304201
 30
0.0
 40
34.04813239072649
 50
299.3633148244389
 51
38.76905160404868
210
0.0
220
0.0
230
-1.0
  0
ARC
  5
184
  8
0
 10
-96.67440042657549
 20
1175.011218218122
 30
0.0
 40
31.698789106091
 50
114.0585979276066
 51
224.0737685008813
210
0.0
220
0.0
230
-1.0
  0
ARC
  5
185
  8
0
 10
209.6362662630162
 20
1247.302265995405
 30
0.0
 40
67.36555525192163
 50
253.0074012010923
 51
339.076231988695
  0
ARC
  5
186
  8
0
 10
254.1168780150164
 20
1156.27217682852
 30
0.0
 40
69.46507380973043
 50
74.60364322602064
 51
157.4799899637668
  0
ARC
  5
187
  8
0
 10
125.0841377137627
 20
1324.183567137689
 30
0.0
 40
94.53569549073224
 50
260.8741333637217
 51
346.7443365338941
  0
ARC
  5
188
  8
0
 10
200.2326165879392
 20
1211.967240193501
 30
0.0
 40
92.09759277623914
 50
79.44620764397361
 51
168.1722622536421
  0
ARC
  5
189
  8
0
 10
-426.317190549319
 20
1145.397486150599
 30
0.0
 40
53.44236065376364
 50
296.4337221959213
 51
41.20276938368583
210
0.0
220
0.0
230
-1.0
  0
ARC
  5
18A
  8
0
 10
-360.8491465949044
 20
1132.456128624726
 30
0.0
 40
54.36888032128572
 50
117.6833081177443
 51
219.9531834618624
210
0.0
220
0.0
230
-1.0
  0
ARC
  5
18B
  8
0
 10
343.8813220803535
 20
1233.811713949325
 30
0.0
 40
44.50151332251
 50
231.3839375140467
 51
313.9675073946227
  0
ARC
  5
18C
  8
0
 10
346.7643114916852
 20
1172.122570896775
 30
0.0
 40
40.7969788261199
 50
46.63651005690356
 51
138.714934851766
  0
ARC
  5
18D
  8
0
 10
539.197314930215
 20
1060.874563199775
 30
0.0
 40
56.78340697816089
 50
271.584752008724
 51
9.309133647670253
  0
ARC
  5
18E
  8
0
 10
600.9876286729623
 20
1009.842384439024
 30
0.0
 40
60.49188125673017
 50
95.4589494876009
 51
185.4349361687932
  0
ARC
  5
18F
  8
0
 10
429.5579434686678
 20
1135.728301200274
 30
0.0
 40
76.08457859147022
 50
292.5642736776508
 51
35.5449345205034
  0
ARC
  5
190
  8
0
 10
518.22079492206
 20
1110.396057927877
 30
0.0
 40
74.53144753598399
 50
111.038049967583
 51
217.0711582305713
  0
ARC
  5
191
  8
0
 10
-617.7456318278097
 20
1141.659178141662
 30
0.0
 40
54.11002747556299
 50
297.4303724951934
 51
39.08225872406766
210
0.0
220
0.0
230
-1.0
  0
ARC
  5
192
  8
0
 10
-552.4356637579652
 20
1128.082195532161
 30
0.0
 40
53.08072306954676
 50
116.0461897280913
 51
220.4664414911697
210
0.0
220
0.0
230
-1.0
  0
ARC
  5
193
  8
0
 10
-646.4460067839831
 20
1211.44052841753
 30
0.0
 40
57.95623892349427
 50
244.145852630794
 51
325.9746190708444
210
0.0
220
0.0
230
-1.0
  0
ARC
  5
194
  8
0
 10
623.7700566024898
 20
1127.167221026608
 30
0.0
 40
57.71252851135993
 50
33.81535637173704
 51
116.0641719266246
  0
ARC
  5
195
  8
0
 10
639.825544028449
 20
1112.77970754579
 30
0.0
 40
49.05371847572268
 50
271.8453662569907
 51
9.798294177850453
  0
ARC
  5
196
  8
0
 10
694.5654826430012
 20
1068.169621716362
 30
0.0
 40
53.34358712004278
 50
96.89268460823493
 51
184.750975826606
  0
ARC
  5
197
  8
0
 10
631.039318167732
 20
1065.526923048621
 30
0.0
 40
92.04388899138532
 50
259.5571385476271
 51
347.6453353148568
  0
ARC
  5
198
  8
0
 10
701.7544800921714
 20
959.0970328795142
 30
0.0
 40
88.83499628214517
 50
77.51998221886244
 51
169.6824916436216
  0
ARC
  5
199
  8
0
 10
-774.6638834497893
 20
1026.657529609063
 30
0.0
 40
36.8344583094862
 50
300.8632497527599
 51
35.82598849169595
210
0.0
220
0.0
230
-1.0
  0
ARC
  5
19A
  8
0
 10
-731.0986590470067
 20
1017.670981077547
 30
0.0
 40
33.47817245892602
 50
114.1557830448701
 51
222.5334551995859
210
0.0
220
0.0
230
-1.0
  0
ARC
  5
19B
  8
0
 10
781.3533091532346
 20
1065.00141635457
 30
0.0
 40
66.71080445385304
 50
276.462690686373
 51
2.465011677563683
  0
ARC
  5
19C
  8
0
 10
849.8381032679089
 20
1006.435109663401
 30
0.0
 40
61.46291155035506
 50
91.71151340230637
 51
187.2161889616305
  0
ARC
  5
19D
  8
0
 10
-777.9052070317199
 20
1108.81069515127
 30
0.0
 40
43.95404956010851
 50
265.3053498706096
 51
13.90724583067417
210
0.0
220
0.0
230
-1.0
  0
ARC
  5
19E
  8
0
 10
-738.4296008482713
 20
1075.221802170616
 30
0.0
 40
44.2683685056348
 50
85.86768477063974
 51
193.344910930644
210
0.0
220
0.0
230
-1.0
  0
ARC
  5
19F
  8
0
 10
-862.6545066397231
 20
1120.194255750538
 30
0.0
 40
46.11262272138126
 50
307.0553514333558
 51
47.31353519822201
210
0.0
220
0.0
230
-1.0
  0
ARC
  5
1A0
  8
0
 10
-806.8521055033535
 20
1117.449875366783
 30
0.0
 40
44.09853940019538
 50
123.8107305013226
 51
230.5581561302551
210
0.0
220
0.0
230
-1.0
  0
ARC
  5
1A1
  8
0
 10
771.7438968394245
 20
1221.942741880982
 30
0.0
 40
66.40683521010207
 50
249.1498827520649
 51
325.2969896301979
  0
ARC
  5
1A2
  8
0
 10
801.4061581922438
 20
1126.258027839629
 30
0.0
 40
63.01928684881501
 50
66.69530707648364
 51
147.7515653057794
  0
ARC
  5
1A3
  8
0
 10
-876.5327151215291
 20
1242.607072805344
 30
0.0
 40
33.27768928797251
 50
296.414982183677
 51
42.19199634476647
210
0.0
220
0.0
230
-1.0
  0
ARC
  5
1A4
  8
0
 10
-834.8417247953231
 20
1234.732107965949
 30
0.0
 40
34.6951309728049
 50
119.4068863409791
 51
219.2000921874645
210
0.0
220
0.0
230
-1.0
  0
ARC
  5
1A5
  8
0
 10
714.6540959677635
 20
1231.431534048646
 30
0.0
 40
46.76498461085288
 50
160.8018145683719
 51
268.192179393792
  0
ARC
  5
1A6
  8
0
 10
667.1944003021242
 20
1198.817051245245
 30
0.0
 40
48.10553809337253
 50
342.9221086568905
 51
86.07188530527368
  0
ARC
  5
1A7
  8
0
 10
-526.2159663308034
 20
1236.842847658388
 30
0.0
 40
55.76065444314212
 50
156.5525187955302
 51
261.0147470263042
210
0.0
220
0.0
230
-1.0
  0
ARC
  5
1A8
  8
0
 10
588.0181515938255
 20
1202.889795260802
 30
0.0
 40
57.14116110306279
 50
100.7375039411469
 51
201.6952302370184
  0
ARC
  5
1A9
  8
0
 10
-545.2773215293323
 20
1283.101888885938
 30
0.0
 40
34.35824247091924
 50
297.766843507264
 51
39.6946198199168
210
0.0
220
0.0
230
-1.0
  0
ARC
  5
1AA
  8
0
 10
-502.0640050591352
 20
1274.491117338371
 30
0.0
 40
34.85767481666889
 50
118.7685420604994
 51
218.6929212666811
210
0.0
220
0.0
230
-1.0
  0
ARC
  5
1AB
  8
0
 10
440.8403288357069
 20
1317.504893859671
 30
0.0
 40
59.44737216693198
 50
313.5030591106074
 51
45.7093824372187
  0
ARC
  5
1AC
  8
0
 10
514.3677558989946
 20
1316.999550718343
 30
0.0
 40
53.65628141072838
 50
126.6322373236158
 51
232.5802042242107
  0
ARC
  5
1AD
  8
0
 10
-471.1030692849779
 20
1256.352536936027
 30
0.0
 40
53.5277484318791
 50
297.5237337179599
 51
39.13871828130222
210
0.0
220
0.0
230
-1.0
  0
ARC
  5
1AE
  8
0
 10
-403.1063982296731
 20
1242.309746174606
 30
0.0
 40
54.67014465873737
 50
118.9698852783718
 51
217.6925667208902
210
0.0
220
0.0
230
-1.0
  0
ARC
  5
1AF
  8
0
 10
309.2228584348005
 20
1306.175884324897
 30
0.0
 40
80.08613524256036
 50
279.2727792271479
 51
17.21956489035867
  0
ARC
  5
1B0
  8
0
 10
401.1112313556378
 20
1249.305143491371
 30
0.0
 40
82.03586246349471
 50
100.8141668627191
 51
195.678177254787
  0
ARC
  5
1B1
  8
0
 10
-310.7334944612803
 20
1334.003529331242
 30
0.0
 40
54.42508850258821
 50
295.4012635621033
 51
39.66887075376666
210
0.0
220
0.0
230
-1.0
  0
ARC
  5
1B2
  8
0
 10
-244.3163532376713
 20
1319.321845481812
 30
0.0
 40
55.17365416626131
 50
116.3901142619435
 51
218.6800200539267
210
0.0
220
0.0
230
-1.0
  0
ARC
  5
1B3
  8
0
 10
-395.4575678312182
 20
1377.950872080551
 30
0.0
 40
35.83814285481521
 50
299.8287875274504
 51
39.02416563542796
210
0.0
220
0.0
230
-1.0
  0
ARC
  5
1B4
  8
0
 10
-345.2780119358432
 20
1368.584021646747
 30
0.0
 40
38.96971042902391
 50
124.9739700578769
 51
213.8789831050013
210
0.0
220
0.0
230
-1.0
  0
ARC
  5
1B5
  8
0
 10
309.7966960760002
 20
1461.265678493322
 30
0.0
 40
66.68076500437694
 50
241.9378581957744
 51
330.9566882333011
  0
ARC
  5
1B6
  8
0
 10
339.2476143211175
 20
1361.504009482835
 30
0.0
 40
73.30387564298503
 50
66.82766012030255
 51
146.066886308773
  0
ARC
  5
1B7
  8
0
 10
-792.4748525105886
 20
1304.123830255281
 30
0.0
 40
79.27952584568442
 50
270.0726358468198
 51
8.480898542834144
210
0.0
220
0.0
230
-1.0
  0
ARC
  5
1B8
  8
0
 10
-720.4262126598973
 20
1242.10137653268
 30
0.0
 40
73.98877207815387
 50
85.06574065401041
 51
193.4877937356434
210
0.0
220
0.0
230
-1.0
  0
ARC
  5
1B9
  8
0
 10
825.2125375271294
 20
1345.900332516339
 30
0.0
 40
58.041845505025
 50
216.2583699539878
 51
302.5921863973653
  0
ARC
  5
1BA
  8
0
 10
809.9443674964587
 20
1264.116047830312
 30
0.0
 40
56.97857240037932
 50
35.24706910210604
 51
123.6034872492468
  0
ARC
  5
1BB
  8
0
 10
555.3237434593764
 20
1299.747007671713
 30
0.0
 40
76.68960021117758
 50
323.8273486030906
 51
64.46971728879232
  0
ARC
  5
1BC
  8
0
 10
646.0272350426416
 20
1322.611846174994
 30
0.0
 40
73.96445472555335
 50
141.2097429280777
 51
247.0873229638055
  0
ARC
  5
1BD
  8
0
 10
639.6742843854464
 20
1355.702494226017
 30
0.0
 40
60.11841997067727
 50
284.2782730419325
 51
18.42649404444956
  0
ARC
  5
1BE
  8
0
 10
710.2485392237278
 20
1317.148040193993
 30
0.0
 40
59.12787903612079
 50
103.2360394708338
 51
199.4687276155483
  0
ARC
  5
1BF
  8
0
 10
653.780602112525
 20
1466.443172152601
 30
0.0
 40
69.0035273202039
 50
209.8155853318169
 51
298.6085205596038
  0
ARC
  5
1C0
  8
0
 10
625.8448372011843
 20
1367.640944782344
 30
0.0
 40
71.96604376209032
 50
32.0817358098538
 51
116.342370081567
  0
ARC
  5
1C1
  8
0
 10
679.8153879056473
 20
1632.142854568191
 30
0.0
 40
43.99513348835583
 50
131.8019571299501
 51
244.2870877967206
  0
ARC
  5
1C2
  8
0
 10
629.1593348071659
 20
1624.983465730272
 30
0.0
 40
45.29303507188941
 50
314.1850155820422
 51
61.90402934462875
  0
ARC
  5
1C3
  8
0
 10
245.8210010220763
 20
1355.815484253022
 30
0.0
 40
45.49334607935891
 50
133.4217132517577
 51
234.1644153116195
  0
ARC
  5
1C4
  8
0
 10
-186.4156626823013
 20
1351.877008782982
 30
0.0
 40
46.46679220967708
 50
127.2636858443821
 51
225.1501855922403
210
0.0
220
0.0
230
-1.0
  0
ARC
  5
1C5
  8
0
 10
109.0999734119582
 20
1351.103951341637
 30
0.0
 40
42.88196740183514
 50
228.4688159712346
 51
315.5153711746981
  0
ARC
  5
1C6
  8
0
 10
111.2446828531341
 20
1289.443554907828
 30
0.0
 40
42.52852349160604
 50
48.01486621697732
 51
135.9693209289555
  0
ARC
  5
1C7
  8
0
 10
-193.8816266825197
 20
1386.2221909849
 30
0.0
 40
54.56307974486736
 50
297.5574213429776
 51
38.94877080462847
210
0.0
220
0.0
230
-1.0
  0
ARC
  5
1C8
  8
0
 10
-126.9411494351266
 20
1372.302325389064
 30
0.0
 40
54.08963860587387
 50
116.9407313191551
 51
219.5654608284509
210
0.0
220
0.0
230
-1.0
  0
ARC
  5
1C9
  8
0
 10
-119.6424793206708
 20
1420.452913403887
 30
0.0
 40
36.71564327533837
 50
265.1466028595719
 51
2.24101295259055
210
0.0
220
0.0
230
-1.0
  0
ARC
  5
1CA
  8
0
 10
-84.04954481896414
 20
1383.198975292101
 30
0.0
 40
38.7051147504161
 50
88.37938918851069
 51
179.0082266236518
210
0.0
220
0.0
230
-1.0
  0
ARC
  5
1CB
  8
0
 10
-130.2465000084501
 20
1482.469470877444
 30
0.0
 40
46.89602724533678
 50
305.9176423844306
 51
44.45928861221362
210
0.0
220
0.0
230
-1.0
  0
ARC
  5
1CC
  8
0
 10
-73.35384865863311
 20
1477.68052716113
 30
0.0
 40
44.32746521694236
 50
121.8944579602812
 51
228.4824730363628
210
0.0
220
0.0
230
-1.0
  0
ARC
  5
1CD
  8
0
 10
247.9729797990664
 20
1472.555325353937
 30
0.0
 40
64.77027463874468
 50
156.4238095009079
 51
253.1264716367559
  0
ARC
  5
1CE
  8
0
 10
-174.9460702972046
 20
1438.85059789154
 30
0.0
 40
61.15655630663882
 50
102.9094817647879
 51
207.5402370975482
210
0.0
220
0.0
230
-1.0
  0
ARC
  5
1CF
  8
0
 10
-310.0674334942678
 20
1571.239717353719
 30
0.0
 40
87.00823485170928
 50
259.0751779457512
 51
353.5907859230962
210
0.0
220
0.0
230
-1.0
  0
ARC
  5
1D0
  8
0
 10
-238.3817627572471
 20
1473.769149744453
 30
0.0
 40
88.99364662645246
 50
80.4408716911233
 51
172.2250921777242
210
0.0
220
0.0
230
-1.0
  0
ARC
  5
1D1
  8
0
 10
190.7573796052297
 20
1571.862287886652
 30
0.0
 40
40.68265130800204
 50
168.70999293229
 51
279.9685814381597
  0
ARC
  5
1D2
  8
0
 10
-149.8196441997666
 20
1531.857986187502
 30
0.0
 40
47.98027578738547
 50
91.24481288285439
 51
180.0766127466958
210
0.0
220
0.0
230
-1.0
  0
ARC
  5
1D3
  8
0
 10
80.2519345405895
 20
1587.135511929309
 30
0.0
 40
49.89323607818512
 50
272.9460268856383
 51
8.812574103312908
  0
ARC
  5
1D4
  8
0
 10
135.5081665727284
 20
1542.196833596118
 30
0.0
 40
52.91824894451133
 50
96.4580260600835
 51
185.3005749288677
  0
ARC
  5
1D5
  8
0
 10
165.1225261683879
 20
1640.529758064934
 30
0.0
 40
49.23812173090096
 50
273.7469167680929
 51
6.338647071180451
  0
ARC
  5
1D6
  8
0
 10
212.5361397738555
 20
1600.805304532574
 30
0.0
 40
45.18626563730484
 50
88.06784785250521
 51
192.0177159867679
  0
ARC
  5
1D7
  8
0
 10
309.022109202452
 20
1637.954752950806
 30
0.0
 40
44.89004611570074
 50
163.3453824453336
 51
270.3330683345349
  0
ARC
  5
1D8
  8
0
 10
257.2197964206242
 20
1599.146331334989
 30
0.0
 40
52.41717587562913
 50
353.3381719069554
 51
80.34027887291268
  0
ARC
  5
1D9
  8
0
 10
417.4369937526345
 20
1607.913113543384
 30
0.0
 40
60.85723847551363
 50
172.9201283333941
 51
265.8982796346115
  0
ARC
  5
1DA
  8
0
 10
-354.9527399212417
 20
1556.571156723882
 30
0.0
 40
58.87992704657916
 50
92.03520292680923
 51
189.1463891051853
210
0.0
220
0.0
230
-1.0
  0
ARC
  5
1DB
  8
0
 10
-815.527318961357
 20
1380.373245273542
 30
0.0
 40
53.24389943657983
 50
296.6459141141266
 51
39.22128618355386
210
0.0
220
0.0
230
-1.0
  0
ARC
  5
1DC
  8
0
 10
-752.8375237091385
 20
1366.972165853683
 30
0.0
 40
51.72169330588307
 50
114.4909880906254
 51
221.3762122070547
210
0.0
220
0.0
230
-1.0
  0
ARC
  5
1DD
  8
0
 10
744.5972559893096
 20
1493.874972000882
 30
0.0
 40
59.68031472855581
 50
213.9371122099206
 51
297.887903959355
  0
ARC
  5
1DE
  8
0
 10
722.2344480790042
 20
1404.762570782543
 30
0.0
 40
62.04948862179405
 50
35.8760547860498
 51
115.9489613832256
  0
ARC
  5
1DF
  8
0
 10
-864.4073203209823
 20
1433.79298997879
 30
0.0
 40
46.4537968101916
 50
305.727169576847
 51
46.73858258470907
210
0.0
220
0.0
230
-1.0
  0
ARC
  5
1E0
  8
0
 10
-805.649882830814
 20
1429.924187510302
 30
0.0
 40
46.32388383352452
 50
125.5318013051011
 51
226.9339508564549
210
0.0
220
0.0
230
-1.0
  0
ARC
  5
1E1
  8
0
 10
-820.2752554587297
 20
1523.036418966314
 30
0.0
 40
54.2281148025918
 50
297.8487467409436
 51
39.59508566911728
210
0.0
220
0.0
230
-1.0
  0
ARC
  5
1E2
  8
0
 10
-750.7011407536583
 20
1509.161812276575
 30
0.0
 40
55.84199973741824
 50
119.8421605690987
 51
217.601671840962
210
0.0
220
0.0
230
-1.0
  0
ARC
  5
1E3
  8
0
 10
-864.045100085297
 20
1514.442918406631
 30
0.0
 40
36.39095474376504
 50
299.3396260833028
 51
37.06278901723463
210
0.0
220
0.0
230
-1.0
  0
ARC
  5
1E4
  8
0
 10
-816.2192522329964
 20
1504.452630188595
 30
0.0
 40
37.04057326749425
 50
120.4771043444108
 51
215.9253107561267
210
0.0
220
0.0
230
-1.0
  0
ARC
  5
1E5
  8
0
 10
-866.9179555201999
 20
1597.959717435097
 30
0.0
 40
53.27666339343224
 50
295.4610657534361
 51
41.37451065976519
210
0.0
220
0.0
230
-1.0
  0
ARC
  5
1E6
  8
0
 10
-801.8776582790596
 20
1584.629903866241
 30
0.0
 40
54.63181204478673
 50
117.3051411454239
 51
219.5304352677775
210
0.0
220
0.0
230
-1.0
  0
ARC
  5
1E7
  8
0
 10
659.0427356379378
 20
1586.556345436869
 30
0.0
 40
89.63012667386592
 50
258.7319567495234
 51
349.6732511676341
  0
ARC
  5
1E8
  8
0
 10
730.4518137124153
 20
1481.491349417453
 30
0.0
 40
90.56382747216635
 50
79.32929914028793
 51
169.0759087768696
  0
ARC
  5
1E9
  8
0
 10
-602.9066665753762
 20
1571.042757410971
 30
0.0
 40
47.54011669930298
 50
230.07880102702
 51
307.5091014145402
210
0.0
220
0.0
230
-1.0
  0
ARC
  5
1EA
  8
0
 10
604.3600676107865
 20
1502.006208228981
 30
0.0
 40
43.65107982290973
 50
48.27070879119811
 51
134.141388767242
  0
ARC
  5
1EB
  8
0
 10
-552.3847979492232
 20
1616.784697911523
 30
0.0
 40
38.86584342013865
 50
301.6467340830807
 51
31.12869258951395
210
0.0
220
0.0
230
-1.0
  0
ARC
  5
1EC
  8
0
 10
-506.0973599580976
 20
1605.576080640129
 30
0.0
 40
33.89994367350262
 50
112.5823590753725
 51
220.1930675972224
210
0.0
220
0.0
230
-1.0
  0
ARC
  5
1ED
  8
0
 10
544.6176746382265
 20
1611.398532727504
 30
0.0
 40
64.195032408717
 50
277.0538841829821
 51
5.754113505754641
  0
ARC
  5
1EE
  8
0
 10
612.7852744605542
 20
1556.988841775187
 30
0.0
 40
60.99732448252887
 50
94.03867019965494
 51
188.769327489082
  0
ARC
  5
1EF
  8
0
 10
416.8656036185289
 20
1444.294468676912
 30
0.0
 40
52.21449749996248
 50
278.0426315333584
 51
9.226380102623349
  0
ARC
  5
1F0
  8
0
 10
471.6439373811861
 20
1403.959296870968
 30
0.0
 40
48.81461932759385
 50
93.80496835278558
 51
193.4640432831964
  0
ARC
  5
1F1
  8
0
 10
-555.3080563618746
 20
1427.684926112989
 30
0.0
 40
50.42260542177753
 50
273.0532332003239
 51
7.335624615145448
210
0.0
220
0.0
230
-1.0
  0
ARC
  5
1F2
  8
0
 10
-504.2802357874572
 20
1385.161742300974
 30
0.0
 40
48.97178831471543
 50
91.1910173209544
 51
189.1978404945149
210
0.0
220
0.0
230
-1.0
  0
ARC
  5
1F3
  8
0
 10
416.6093128321145
 20
1524.635881901631
 30
0.0
 40
57.89960508879302
 50
213.6935682044693
 51
296.6534718548192
  0
ARC
  5
1F4
  8
0
 10
396.9041670378709
 20
1450.194220012267
 30
0.0
 40
51.00565784028865
 50
26.4198069351384
 51
123.9272331241503
  0
ARC
  5
1F5
  8
0
 10
-545.8442563813661
 20
1531.114657634745
 30
0.0
 40
62.22766561773751
 50
212.1858819877382
 51
294.1712982321807
210
0.0
220
0.0
230
-1.0
  0
ARC
  5
1F6
  8
0
 10
571.0191089605901
 20
1447.843991411157
 30
0.0
 40
57.16740175382652
 50
61.25792899634126
 51
152.3848907837401
  0
ARC
  5
1F7
  8
0
 10
-513.2421862209021
 20
1535.006278987871
 30
0.0
 40
47.73571003015342
 50
311.5919938659631
 51
49.12419405268414
210
0.0
220
0.0
230
-1.0
  0
ARC
  5
1F8
  8
0
 10
-456.41618177828
 20
1535.361441515637
 30
0.0
 40
43.95421898709489
 50
125.5999438137934
 51
235.1162441048538
210
0.0
220
0.0
230
-1.0
  0
ENDSEC
  0
EOF
