  0
SECTION
  2
HEADER
  9
$ACADVER
  1
AC1009
  9
$DWGCODEPAGE
  3
ansi_1252
  9
$INSBASE
 10
0.0
 20
0.0
 30
0.0
  9
$EXTMIN
 10
1.000000000000000E+20
 20
1.000000000000000E+20
 30
1.000000000000000E+20
  9
$EXTMAX
 10
-1.000000000000000E+20
 20
-1.000000000000000E+20
 30
-1.000000000000000E+20
  9
$LIMMIN
 10
0.0
 20
0.0
  9
$LIMMAX
 10
12.0
 20
9.0
  9
$ORTHOMODE
 70
     0
  9
$REGENMODE
 70
     1
  9
$FILLMODE
 70
     1
  9
$QTEXTMODE
 70
     0
  9
$MIRRTEXT
 70
     1
  9
$DRAGMODE
 70
     2
  9
$LTSCALE
 40
1.0
  9
$OSMODE
 70
    37
  9
$ATTMODE
 70
     1
  9
$TEXTSIZE
 40
0.2
  9
$TRACEWID
 40
0.05
  9
$TEXTSTYLE
  7
STANDARD
  9
$CLAYER
  8
DEFAULT_LAYER
  9
$CELTYPE
  6
BYLAYER
  9
$CECOLOR
 62
   256
  9
$DIMSCALE
 40
1.0
  9
$DIMASZ
 40
0.18
  9
$DIMEXO
 40
0.0625
  9
$DIMDLI
 40
0.38
  9
$DIMRND
 40
0.0
  9
$DIMDLE
 40
0.0
  9
$DIMEXE
 40
0.18
  9
$DIMTP
 40
0.0
  9
$DIMTM
 40
0.0
  9
$DIMTXT
 40
0.18
  9
$DIMCEN
 40
0.09
  9
$DIMTSZ
 40
0.0
  9
$DIMTOL
 70
     0
  9
$DIMLIM
 70
     0
  9
$DIMTIH
 70
     1
  9
$DIMTOH
 70
     1
  9
$DIMSE1
 70
     0
  9
$DIMSE2
 70
     0
  9
$DIMTAD
 70
     0
  9
$DIMZIN
 70
     0
  9
$DIMBLK
  1

  9
$DIMASO
 70
     1
  9
$DIMSHO
 70
     1
  9
$DIMPOST
  1

  9
$DIMAPOST
  1

  9
$DIMALT
 70
     0
  9
$DIMALTD
 70
     2
  9
$DIMALTF
 40
25.4
  9
$DIMLFAC
 40
1.0
  9
$DIMTOFL
 70
     0
  9
$DIMTVP
 40
0.0
  9
$DIMTIX
 70
     0
  9
$DIMSOXD
 70
     0
  9
$DIMSAH
 70
     0
  9
$DIMBLK1
  1

  9
$DIMBLK2
  1

  9
$DIMSTYLE
  2
STANDARD_ACAD
  9
$DIMCLRD
 70
     0
  9
$DIMCLRE
 70
     0
  9
$DIMCLRT
 70
     0
  9
$DIMTFAC
 40
1.0
  9
$DIMGAP
 40
0.09
  9
$LUNITS
 70
     2
  9
$LUPREC
 70
     3
  9
$SKETCHINC
 40
0.1
  9
$FILLETRAD
 40
0.5
  9
$AUNITS
 70
     0
  9
$AUPREC
 70
     0
  9
$MENU
  1
.
  9
$ELEVATION
 40
0.0
  9
$PELEVATION
 40
0.0
  9
$THICKNESS
 40
0.0
  9
$LIMCHECK
 70
     0
  9
$CHAMFERA
 40
0.0
  9
$CHAMFERB
 40
0.0
  9
$SKPOLY
 70
     0
  9
$TDCREATE
 40
2460106.568458275
  9
$TDUPDATE
 40
2460106.568458322
  9
$TDINDWG
 40
0.0000000116
  9
$TDUSRTIMER
 40
0.0000000116
  9
$USRTIMER
 70
     1
  9
$ANGBASE
 50
0.0
  9
$ANGDIR
 70
     0
  9
$PDMODE
 70
     0
  9
$PDSIZE
 40
0.0
  9
$PLINEWID
 40
0.0
  9
$COORDS
 70
     1
  9
$SPLFRAME
 70
     0
  9
$SPLINETYPE
 70
     6
  9
$SPLINESEGS
 70
     8
  9
$ATTDIA
 70
     0
  9
$ATTREQ
 70
     1
  9
$HANDLING
 70
     1
  9
$HANDSEED
  5
1B0
  9
$SURFTAB1
 70
     6
  9
$SURFTAB2
 70
     6
  9
$SURFTYPE
 70
     6
  9
$SURFU
 70
     6
  9
$SURFV
 70
     6
  9
$UCSNAME
  2

  9
$UCSORG
 10
0.0
 20
0.0
 30
0.0
  9
$UCSXDIR
 10
1.0
 20
0.0
 30
0.0
  9
$UCSYDIR
 10
0.0
 20
1.0
 30
0.0
  9
$PUCSNAME
  2

  9
$PUCSORG
 10
0.0
 20
0.0
 30
0.0
  9
$PUCSXDIR
 10
1.0
 20
0.0
 30
0.0
  9
$PUCSYDIR
 10
0.0
 20
1.0
 30
0.0
  9
$USERI1
 70
     0
  9
$USERI2
 70
     0
  9
$USERI3
 70
     0
  9
$USERI4
 70
     0
  9
$USERI5
 70
     0
  9
$USERR1
 40
0.0
  9
$USERR2
 40
0.0
  9
$USERR3
 40
0.0
  9
$USERR4
 40
0.0
  9
$USERR5
 40
0.0
  9
$WORLDVIEW
 70
     1
  9
$SHADEDGE
 70
     3
  9
$SHADEDIF
 70
    70
  9
$TILEMODE
 70
     1
  9
$MAXACTVP
 70
    64
  9
$PLIMCHECK
 70
     0
  9
$PEXTMIN
 10
1.000000000000000E+20
 20
1.000000000000000E+20
 30
1.000000000000000E+20
  9
$PEXTMAX
 10
-1.000000000000000E+20
 20
-1.000000000000000E+20
 30
-1.000000000000000E+20
  9
$PLIMMIN
 10
0.0
 20
0.0
  9
$PLIMMAX
 10
12.0
 20
9.0
  9
$UNITMODE
 70
     0
  9
$VISRETAIN
 70
     1
  9
$PLINEGEN
 70
     0
  9
$PSLTSCALE
 70
     1
  0
ENDSEC
  0
SECTION
  2
TABLES
  0
TABLE
  2
VPORT
 70
     1
  0
VPORT
  2
*ACTIVE
 70
     0
 10
0.0
 20
0.0
 11
1.0
 21
1.0
 12
10.42990654205607
 22
4.5
 13
0.0
 23
0.0
 14
0.5
 24
0.5
 15
0.5
 25
0.5
 16
0.0
 26
0.0
 36
1.0
 17
0.0
 27
0.0
 37
0.0
 40
9.0
 41
1.972972972850329
 42
50.0
 43
0.0
 44
0.0
 50
0.0
 51
0.0
 71
     0
 72
   100
 73
     1
 74
     3
 75
     0
 76
     0
 77
     0
 78
     0
  0
ENDTAB
  0
TABLE
  2
LTYPE
 70
     1
  0
LTYPE
  2
CONTINUOUS
 70
     0
  3
Solid line
 72
    65
 73
     0
 40
0.0
  0
ENDTAB
  0
TABLE
  2
LAYER
 70
     2
  0
LAYER
  2
0
 70
     0
 62
     7
  6
CONTINUOUS
  0
LAYER
  2
DEFAULT_LAYER
 70
     0
 62
     1
  6
CONTINUOUS
  0
ENDTAB
  0
TABLE
  2
STYLE
 70
     1
  0
STYLE
  2
STANDARD
 70
     0
 40
0.0
 41
1.0
 50
0.0
 71
     0
 42
0.2
  3
txt
  4

  0
ENDTAB
  0
TABLE
  2
VIEW
 70
     0
  0
ENDTAB
  0
TABLE
  2
UCS
 70
     0
  0
ENDTAB
  0
TABLE
  2
APPID
 70
     2
  0
APPID
  2
ACAD
 70
     0
  0
APPID
  2
RHINO
 70
     0
  0
ENDTAB
  0
TABLE
  2
DIMSTYLE
 70
     1
  0
DIMSTYLE
  2
STANDARD_ACAD
 70
     0
  3

  4

  5

  6

  7

 40
1.0
 41
0.18
 42
0.0625
 43
0.38
 44
0.18
 45
0.0
 46
0.0
 47
0.0
 48
0.0
140
0.18
141
0.09
142
0.0
143
25.4
144
1.0
145
0.0
146
1.0
147
0.09
 71
     0
 72
     0
 73
     1
 74
     1
 75
     0
 76
     0
 77
     0
 78
     0
170
     0
171
     2
172
     0
173
     0
174
     0
175
     0
176
     0
177
     0
178
     0
  0
ENDTAB
  0
ENDSEC
  0
SECTION
  2
BLOCKS
  0
BLOCK
  8
0
  2
$MODEL_SPACE
 70
     0
 10
0.0
 20
0.0
 30
0.0
  3
$MODEL_SPACE
  1

  0
ENDBLK
  5
21
  8
0
  0
BLOCK
 67
     1
  8
0
  2
$PAPER_SPACE
 70
     0
 10
0.0
 20
0.0
 30
0.0
  3
$PAPER_SPACE
  1

  0
ENDBLK
  5
1D
 67
     1
  8
0
  0
ENDSEC
  0
SECTION
  2
ENTITIES
  0
POLYLINE
  5
70
  8
DEFAULT_LAYER
 66
     1
 10
0.0
 20
0.0
 30
0.0
 70
     1
  0
VERTEX
  5
71
  8
DEFAULT_LAYER
 10
17437.85064016773
 20
12663.52757714718
 30
0.0
 42
-0.3696932091970206
  0
VERTEX
  5
72
  8
DEFAULT_LAYER
 10
17108.04496654344
 20
12663.52757714718
 30
0.0
 42
-0.3619564222345552
  0
SEQEND
  5
73
  8
DEFAULT_LAYER
  0
POLYLINE
  5
74
  8
DEFAULT_LAYER
 66
     1
 10
0.0
 20
0.0
 30
0.0
 70
     1
  0
VERTEX
  5
75
  8
DEFAULT_LAYER
 10
17864.40752639803
 20
12780.57013276461
 30
0.0
  0
VERTEX
  5
76
  8
DEFAULT_LAYER
 10
17864.40752639803
 20
12499.07024345668
 30
0.0
  0
VERTEX
  5
77
  8
DEFAULT_LAYER
 10
17920.70750425962
 20
12499.07024345668
 30
0.0
  0
VERTEX
  5
78
  8
DEFAULT_LAYER
 10
17920.70750425962
 20
12780.57013276461
 30
0.0
  0
SEQEND
  5
79
  8
DEFAULT_LAYER
  0
POLYLINE
  5
7A
  8
DEFAULT_LAYER
 66
     1
 10
0.0
 20
0.0
 30
0.0
 70
     1
  0
VERTEX
  5
7B
  8
DEFAULT_LAYER
 10
17695.50759281328
 20
12780.57013276461
 30
0.0
  0
VERTEX
  5
7C
  8
DEFAULT_LAYER
 10
17695.50759281328
 20
12667.97017704144
 30
0.0
  0
VERTEX
  5
7D
  8
DEFAULT_LAYER
 10
17639.20761495169
 20
12667.97017704144
 30
0.0
  0
VERTEX
  5
7E
  8
DEFAULT_LAYER
 10
17639.20761495169
 20
12780.57013276461
 30
0.0
  0
SEQEND
  5
7F
  8
DEFAULT_LAYER
  0
POLYLINE
  5
80
  8
DEFAULT_LAYER
 66
     1
 10
0.0
 20
0.0
 30
0.0
 70
     1
  0
VERTEX
  5
81
  8
DEFAULT_LAYER
 10
17639.20761495169
 20
12611.67019917985
 30
0.0
  0
VERTEX
  5
82
  8
DEFAULT_LAYER
 10
17695.50759281328
 20
12611.67019917985
 30
0.0
  0
VERTEX
  5
83
  8
DEFAULT_LAYER
 10
17695.50759281328
 20
12499.07024345668
 30
0.0
  0
VERTEX
  5
84
  8
DEFAULT_LAYER
 10
17639.20761495169
 20
12499.07024345668
 30
0.0
  0
SEQEND
  5
85
  8
DEFAULT_LAYER
  0
POLYLINE
  5
86
  8
DEFAULT_LAYER
 66
     1
 10
0.0
 20
0.0
 30
0.0
 70
     1
  0
VERTEX
  5
87
  8
DEFAULT_LAYER
 10
17751.80757067486
 20
12780.57013276461
 30
0.0
  0
VERTEX
  5
88
  8
DEFAULT_LAYER
 10
17751.80757067486
 20
12499.07024345668
 30
0.0
  0
VERTEX
  5
89
  8
DEFAULT_LAYER
 10
17808.10754853644
 20
12499.07024345668
 30
0.0
  0
VERTEX
  5
8A
  8
DEFAULT_LAYER
 10
17808.10754853644
 20
12780.57013276461
 30
0.0
  0
SEQEND
  5
8B
  8
DEFAULT_LAYER
  0
POLYLINE
  5
8C
  8
DEFAULT_LAYER
 66
     1
 10
0.0
 20
0.0
 30
0.0
 70
     1
  0
VERTEX
  5
8D
  8
DEFAULT_LAYER
 10
17639.20761495169
 20
12389.88660091948
 30
0.0
  0
VERTEX
  5
8E
  8
DEFAULT_LAYER
 10
17920.70750425962
 20
12389.88660091948
 30
0.0
  0
VERTEX
  5
8F
  8
DEFAULT_LAYER
 10
17920.70750425962
 20
12446.18657878107
 30
0.0
  0
VERTEX
  5
90
  8
DEFAULT_LAYER
 10
17639.20761495169
 20
12446.18657878107
 30
0.0
  0
SEQEND
  5
91
  8
DEFAULT_LAYER
  0
POLYLINE
  5
92
  8
DEFAULT_LAYER
 66
     1
 10
0.0
 20
0.0
 30
0.0
 70
     1
  0
VERTEX
  5
93
  8
DEFAULT_LAYER
 10
17639.20761495169
 20
12220.98666733473
 30
0.0
  0
VERTEX
  5
94
  8
DEFAULT_LAYER
 10
17751.80757067486
 20
12220.98666733473
 30
0.0
  0
VERTEX
  5
95
  8
DEFAULT_LAYER
 10
17751.80757067486
 20
12164.68668947314
 30
0.0
  0
VERTEX
  5
96
  8
DEFAULT_LAYER
 10
17639.20761495169
 20
12164.68668947314
 30
0.0
  0
SEQEND
  5
97
  8
DEFAULT_LAYER
  0
POLYLINE
  5
98
  8
DEFAULT_LAYER
 66
     1
 10
0.0
 20
0.0
 30
0.0
 70
     1
  0
VERTEX
  5
99
  8
DEFAULT_LAYER
 10
17639.20761495169
 20
12277.28664519631
 30
0.0
  0
VERTEX
  5
9A
  8
DEFAULT_LAYER
 10
17920.70750425962
 20
12277.28664519632
 30
0.0
  0
VERTEX
  5
9B
  8
DEFAULT_LAYER
 10
17920.70750425962
 20
12333.58662305789
 30
0.0
  0
VERTEX
  5
9C
  8
DEFAULT_LAYER
 10
17639.20761495169
 20
12333.5866230579
 30
0.0
  0
SEQEND
  5
9D
  8
DEFAULT_LAYER
  0
POLYLINE
  5
9E
  8
DEFAULT_LAYER
 66
     1
 10
0.0
 20
0.0
 30
0.0
 70
     1
  0
VERTEX
  5
9F
  8
DEFAULT_LAYER
 10
18029.89114679682
 20
12164.68668947314
 30
0.0
  0
VERTEX
  5
A0
  8
DEFAULT_LAYER
 10
18029.89114679682
 20
12446.18657878107
 30
0.0
  0
VERTEX
  5
A1
  8
DEFAULT_LAYER
 10
17973.59116893523
 20
12446.18657878107
 30
0.0
  0
VERTEX
  5
A2
  8
DEFAULT_LAYER
 10
17973.59116893523
 20
12164.68668947314
 30
0.0
  0
SEQEND
  5
A3
  8
DEFAULT_LAYER
  0
POLYLINE
  5
A4
  8
DEFAULT_LAYER
 66
     1
 10
0.0
 20
0.0
 30
0.0
 70
     1
  0
VERTEX
  5
A5
  8
DEFAULT_LAYER
 10
18198.79108038157
 20
12164.68668947315
 30
0.0
  0
VERTEX
  5
A6
  8
DEFAULT_LAYER
 10
18198.79108038157
 20
12277.28664519632
 30
0.0
  0
VERTEX
  5
A7
  8
DEFAULT_LAYER
 10
18255.09105824316
 20
12277.28664519631
 30
0.0
  0
VERTEX
  5
A8
  8
DEFAULT_LAYER
 10
18255.09105824316
 20
12164.68668947314
 30
0.0
  0
SEQEND
  5
A9
  8
DEFAULT_LAYER
  0
POLYLINE
  5
AA
  8
DEFAULT_LAYER
 66
     1
 10
0.0
 20
0.0
 30
0.0
 70
     1
  0
VERTEX
  5
AB
  8
DEFAULT_LAYER
 10
18255.09105824316
 20
12333.5866230579
 30
0.0
  0
VERTEX
  5
AC
  8
DEFAULT_LAYER
 10
18198.79108038157
 20
12333.5866230579
 30
0.0
  0
VERTEX
  5
AD
  8
DEFAULT_LAYER
 10
18198.79108038157
 20
12446.18657878107
 30
0.0
  0
VERTEX
  5
AE
  8
DEFAULT_LAYER
 10
18255.09105824316
 20
12446.18657878107
 30
0.0
  0
SEQEND
  5
AF
  8
DEFAULT_LAYER
  0
POLYLINE
  5
B0
  8
DEFAULT_LAYER
 66
     1
 10
0.0
 20
0.0
 30
0.0
 70
     1
  0
VERTEX
  5
B1
  8
DEFAULT_LAYER
 10
18142.49110251999
 20
12164.68668947314
 30
0.0
  0
VERTEX
  5
B2
  8
DEFAULT_LAYER
 10
18142.49110251998
 20
12446.18657878107
 30
0.0
  0
VERTEX
  5
B3
  8
DEFAULT_LAYER
 10
18086.19112465841
 20
12446.18657878107
 30
0.0
  0
VERTEX
  5
B4
  8
DEFAULT_LAYER
 10
18086.19112465841
 20
12164.68668947314
 30
0.0
  0
SEQEND
  5
B5
  8
DEFAULT_LAYER
  0
POLYLINE
  5
B6
  8
DEFAULT_LAYER
 66
     1
 10
0.0
 20
0.0
 30
0.0
 70
     1
  0
VERTEX
  5
B7
  8
DEFAULT_LAYER
 10
18255.09105824315
 20
12555.37022131827
 30
0.0
  0
VERTEX
  5
B8
  8
DEFAULT_LAYER
 10
17973.59116893523
 20
12555.37022131827
 30
0.0
  0
VERTEX
  5
B9
  8
DEFAULT_LAYER
 10
17973.59116893523
 20
12499.07024345668
 30
0.0
  0
VERTEX
  5
BA
  8
DEFAULT_LAYER
 10
18255.09105824315
 20
12499.07024345668
 30
0.0
  0
SEQEND
  5
BB
  8
DEFAULT_LAYER
  0
POLYLINE
  5
BC
  8
DEFAULT_LAYER
 66
     1
 10
0.0
 20
0.0
 30
0.0
 70
     1
  0
VERTEX
  5
BD
  8
DEFAULT_LAYER
 10
18255.09105824315
 20
12724.27015490302
 30
0.0
  0
VERTEX
  5
BE
  8
DEFAULT_LAYER
 10
18142.49110251998
 20
12724.27015490302
 30
0.0
  0
VERTEX
  5
BF
  8
DEFAULT_LAYER
 10
18142.49110251999
 20
12780.57013276461
 30
0.0
  0
VERTEX
  5
C0
  8
DEFAULT_LAYER
 10
18255.09105824315
 20
12780.57013276461
 30
0.0
  0
SEQEND
  5
C1
  8
DEFAULT_LAYER
  0
POLYLINE
  5
C2
  8
DEFAULT_LAYER
 66
     1
 10
0.0
 20
0.0
 30
0.0
 70
     1
  0
VERTEX
  5
C3
  8
DEFAULT_LAYER
 10
18255.09105824316
 20
12667.97017704144
 30
0.0
  0
VERTEX
  5
C4
  8
DEFAULT_LAYER
 10
17973.59116893523
 20
12667.97017704144
 30
0.0
  0
VERTEX
  5
C5
  8
DEFAULT_LAYER
 10
17973.59116893523
 20
12611.67019917986
 30
0.0
  0
VERTEX
  5
C6
  8
DEFAULT_LAYER
 10
18255.09105824315
 20
12611.67019917986
 30
0.0
  0
SEQEND
  5
C7
  8
DEFAULT_LAYER
  0
POLYLINE
  5
C8
  8
DEFAULT_LAYER
 66
     1
 10
0.0
 20
0.0
 30
0.0
 70
     1
  0
VERTEX
  5
C9
  8
DEFAULT_LAYER
 10
16588.08281780896
 20
12244.32249435847
 30
0.0
 42
-0.5156706782794467
  0
VERTEX
  5
CA
  8
DEFAULT_LAYER
 10
16723.39588143846
 20
12147.17255781453
 30
0.0
  0
VERTEX
  5
CB
  8
DEFAULT_LAYER
 10
16452.76975417946
 20
12147.17255781453
 30
0.0
 42
-0.5156706782794501
  0
SEQEND
  5
CC
  8
DEFAULT_LAYER
  0
POLYLINE
  5
CD
  8
DEFAULT_LAYER
 66
     1
 10
0.0
 20
0.0
 30
0.0
 70
     1
  0
VERTEX
  5
CE
  8
DEFAULT_LAYER
 10
16273.74933663132
 20
12247.50519640421
 30
0.0
 42
-0.4794351720240546
  0
VERTEX
  5
CF
  8
DEFAULT_LAYER
 10
16397.62657228524
 20
12147.17255781453
 30
0.0
  0
VERTEX
  5
D0
  8
DEFAULT_LAYER
 10
16273.74933663132
 20
12147.17255781453
 30
0.0
  0
SEQEND
  5
D1
  8
DEFAULT_LAYER
  0
POLYLINE
  5
D2
  8
DEFAULT_LAYER
 66
     1
 10
0.0
 20
0.0
 30
0.0
 70
     1
  0
VERTEX
  5
D3
  8
DEFAULT_LAYER
 10
16778.53906333267
 20
12147.17255781453
 30
0.0
 42
-0.4794351720240527
  0
VERTEX
  5
D4
  8
DEFAULT_LAYER
 10
16902.4162989866
 20
12247.50519640421
 30
0.0
  0
VERTEX
  5
D5
  8
DEFAULT_LAYER
 10
16902.4162989866
 20
12147.17255781453
 30
0.0
  0
SEQEND
  5
D6
  8
DEFAULT_LAYER
  0
POLYLINE
  5
D7
  8
DEFAULT_LAYER
 66
     1
 10
0.0
 20
0.0
 30
0.0
 70
     1
  0
VERTEX
  5
D8
  8
DEFAULT_LAYER
 10
16208.25820872531
 20
12081.41321098666
 30
0.0
  0
VERTEX
  5
D9
  8
DEFAULT_LAYER
 10
18320.58218614917
 20
12081.41321098666
 30
0.0
  0
VERTEX
  5
DA
  8
DEFAULT_LAYER
 10
18320.58218614917
 20
12849.62982189087
 30
0.0
  0
VERTEX
  5
DB
  8
DEFAULT_LAYER
 10
16208.25820872531
 20
12849.62982189087
 30
0.0
  0
SEQEND
  5
DC
  8
DEFAULT_LAYER
  0
POLYLINE
  5
DD
  8
DEFAULT_LAYER
 66
     1
 10
0.0
 20
0.0
 30
0.0
 70
     1
  0
VERTEX
  5
DE
  8
DEFAULT_LAYER
 10
16425.19816323235
 20
12253.80936534348
 30
0.0
 42
0.0834965904925152
  0
VERTEX
  5
DF
  8
DEFAULT_LAYER
 10
16383.31655151257
 20
12290.42298052208
 30
0.0
 42
0.0567480587716681
  0
VERTEX
  5
E0
  8
DEFAULT_LAYER
 10
16425.19816323234
 20
12389.77317508627
 30
0.0
 42
0.0567480587715086
  0
VERTEX
  5
E1
  8
DEFAULT_LAYER
 10
16467.07977495213
 20
12290.42298052208
 30
0.0
 42
0.0834965904925307
  0
SEQEND
  5
E2
  8
DEFAULT_LAYER
  0
POLYLINE
  5
E3
  8
DEFAULT_LAYER
 66
     1
 10
0.0
 20
0.0
 30
0.0
 70
     1
  0
VERTEX
  5
E4
  8
DEFAULT_LAYER
 10
16750.96747238556
 20
12253.80936534347
 30
0.0
 42
-0.0834965904925049
  0
VERTEX
  5
E5
  8
DEFAULT_LAYER
 10
16792.84908410535
 20
12290.42298052208
 30
0.0
 42
-0.0567480587717271
  0
VERTEX
  5
E6
  8
DEFAULT_LAYER
 10
16750.96747238557
 20
12389.77317508627
 30
0.0
 42
-0.0567480587715086
  0
VERTEX
  5
E7
  8
DEFAULT_LAYER
 10
16709.08586066579
 20
12290.42298052208
 30
0.0
 42
-0.0834965904925489
  0
SEQEND
  5
E8
  8
DEFAULT_LAYER
  0
POLYLINE
  5
E9
  8
DEFAULT_LAYER
 66
     1
 10
0.0
 20
0.0
 30
0.0
 70
     1
  0
VERTEX
  5
EA
  8
DEFAULT_LAYER
 10
17108.04496654345
 20
12267.62767571407
 30
0.0
 42
0.3619564222345282
  0
VERTEX
  5
EB
  8
DEFAULT_LAYER
 10
17437.85064016773
 20
12267.62767571407
 30
0.0
 42
0.3696932091969959
  0
SEQEND
  5
EC
  8
DEFAULT_LAYER
  0
POLYLINE
  5
ED
  8
DEFAULT_LAYER
 66
     1
 10
0.0
 20
0.0
 30
0.0
 70
     1
  0
VERTEX
  5
EE
  8
DEFAULT_LAYER
 10
17355.24046410759
 20
12547.87028718263
 30
0.0
 42
-0.1312060734174587
  0
VERTEX
  5
EF
  8
DEFAULT_LAYER
 10
17190.65514260358
 20
12547.87028718263
 30
0.0
 42
-0.131206073417292
  0
VERTEX
  5
F0
  8
DEFAULT_LAYER
 10
17190.65514260358
 20
12383.28496567861
 30
0.0
 42
-0.131206073417492
  0
VERTEX
  5
F1
  8
DEFAULT_LAYER
 10
17355.24046410759
 20
12383.28496567861
 30
0.0
 42
-0.1312060734172668
  0
SEQEND
  5
F2
  8
DEFAULT_LAYER
  0
POLYLINE
  5
F3
  8
DEFAULT_LAYER
 66
     1
 10
0.0
 20
0.0
 30
0.0
 70
     1
  0
VERTEX
  5
F4
  8
DEFAULT_LAYER
 10
17074.99785263903
 20
12630.48046324275
 30
0.0
 42
0.3619564222352636
  0
VERTEX
  5
F5
  8
DEFAULT_LAYER
 10
17074.99785263903
 20
12300.67478961848
 30
0.0
 42
0.3696932091978046
  0
SEQEND
  5
F6
  8
DEFAULT_LAYER
  0
POLYLINE
  5
F7
  8
DEFAULT_LAYER
 66
     1
 10
0.0
 20
0.0
 30
0.0
 70
     1
  0
VERTEX
  5
F8
  8
DEFAULT_LAYER
 10
17495.21913178921
 20
12655.22817106228
 30
0.0
 42
-0.0995110548229279
  0
VERTEX
  5
F9
  8
DEFAULT_LAYER
 10
17591.50887090983
 20
12754.95041724814
 30
0.0
  0
VERTEX
  5
FA
  8
DEFAULT_LAYER
 10
17591.50887090983
 20
12492.63111382075
 30
0.0
  0
VERTEX
  5
FB
  8
DEFAULT_LAYER
 10
17563.8773160262
 20
12492.63111382075
 30
0.0
 42
0.1546270264723196
  0
SEQEND
  5
FC
  8
DEFAULT_LAYER
  0
POLYLINE
  5
FD
  8
DEFAULT_LAYER
 66
     1
 10
0.0
 20
0.0
 30
0.0
 70
     1
  0
VERTEX
  5
FE
  8
DEFAULT_LAYER
 10
17591.50887090982
 20
12176.2048356131
 30
0.0
 42
-0.0995110548229433
  0
VERTEX
  5
FF
  8
DEFAULT_LAYER
 10
17495.21913178921
 20
12275.92708179896
 30
0.0
 42
0.1546270264721745
  0
VERTEX
  5
100
  8
DEFAULT_LAYER
 10
17563.8773160262
 20
12438.52413904048
 30
0.0
  0
VERTEX
  5
101
  8
DEFAULT_LAYER
 10
17591.50887090983
 20
12438.52413904049
 30
0.0
  0
SEQEND
  5
102
  8
DEFAULT_LAYER
  0
POLYLINE
  5
103
  8
DEFAULT_LAYER
 66
     1
 10
0.0
 20
0.0
 30
0.0
 70
     1
  0
VERTEX
  5
104
  8
DEFAULT_LAYER
 10
17470.89775407214
 20
12300.67478961848
 30
0.0
 42
-0.3696932091975335
  0
VERTEX
  5
105
  8
DEFAULT_LAYER
 10
17470.89775407214
 20
12630.48046324276
 30
0.0
 42
-0.3619564222359956
  0
SEQEND
  5
106
  8
DEFAULT_LAYER
  0
POLYLINE
  5
107
  8
DEFAULT_LAYER
 66
     1
 10
0.0
 20
0.0
 30
0.0
 70
     1
  0
VERTEX
  5
108
  8
DEFAULT_LAYER
 10
17300.00129074572
 20
12174.64811376
 30
0.0
 42
0.1546270264721732
  0
VERTEX
  5
109
  8
DEFAULT_LAYER
 10
17462.59834798724
 20
12243.306297997
 30
0.0
 42
-0.0995110548221845
  0
VERTEX
  5
10A
  8
DEFAULT_LAYER
 10
17562.3205941731
 20
12147.01655887638
 30
0.0
  0
VERTEX
  5
10B
  8
DEFAULT_LAYER
 10
17300.00129074572
 20
12147.01655887638
 30
0.0
  0
SEQEND
  5
10C
  8
DEFAULT_LAYER
  0
POLYLINE
  5
10D
  8
DEFAULT_LAYER
 66
     1
 10
0.0
 20
0.0
 30
0.0
 70
     1
  0
VERTEX
  5
10E
  8
DEFAULT_LAYER
 10
16983.57501253807
 20
12147.01655887638
 30
0.0
 42
-0.099511054822185
  0
VERTEX
  5
10F
  8
DEFAULT_LAYER
 10
17083.29725872393
 20
12243.306297997
 30
0.0
 42
0.1546270264715805
  0
VERTEX
  5
110
  8
DEFAULT_LAYER
 10
17245.89431596545
 20
12174.64811376
 30
0.0
  0
VERTEX
  5
111
  8
DEFAULT_LAYER
 10
17245.89431596546
 20
12147.01655887638
 30
0.0
  0
SEQEND
  5
112
  8
DEFAULT_LAYER
  0
POLYLINE
  5
113
  8
DEFAULT_LAYER
 66
     1
 10
0.0
 20
0.0
 30
0.0
 70
     1
  0
VERTEX
  5
114
  8
DEFAULT_LAYER
 10
16982.01829068497
 20
12438.52413904048
 30
0.0
 42
0.154627026472176
  0
VERTEX
  5
115
  8
DEFAULT_LAYER
 10
17050.67647492196
 20
12275.92708179896
 30
0.0
 42
-0.0995110548221656
  0
VERTEX
  5
116
  8
DEFAULT_LAYER
 10
16954.38673580134
 20
12176.2048356131
 30
0.0
  0
VERTEX
  5
117
  8
DEFAULT_LAYER
 10
16954.38673580134
 20
12438.52413904049
 30
0.0
  0
SEQEND
  5
118
  8
DEFAULT_LAYER
  0
POLYLINE
  5
119
  8
DEFAULT_LAYER
 66
     1
 10
0.0
 20
0.0
 30
0.0
 70
     1
  0
VERTEX
  5
11A
  8
DEFAULT_LAYER
 10
16954.38673580134
 20
12754.95041724814
 30
0.0
 42
-0.0995110548221776
  0
VERTEX
  5
11B
  8
DEFAULT_LAYER
 10
17050.67647492196
 20
12655.22817106227
 30
0.0
 42
0.1546270264723767
  0
VERTEX
  5
11C
  8
DEFAULT_LAYER
 10
16982.01829068497
 20
12492.63111382076
 30
0.0
  0
VERTEX
  5
11D
  8
DEFAULT_LAYER
 10
16954.38673580134
 20
12492.63111382075
 30
0.0
  0
SEQEND
  5
11E
  8
DEFAULT_LAYER
  0
POLYLINE
  5
11F
  8
DEFAULT_LAYER
 66
     1
 10
0.0
 20
0.0
 30
0.0
 70
     1
  0
VERTEX
  5
120
  8
DEFAULT_LAYER
 10
17245.89431596545
 20
12756.50713910124
 30
0.0
 42
0.1546270264721725
  0
VERTEX
  5
121
  8
DEFAULT_LAYER
 10
17083.29725872393
 20
12687.84895486424
 30
0.0
 42
-0.0995110548221672
  0
VERTEX
  5
122
  8
DEFAULT_LAYER
 10
16983.57501253807
 20
12784.13869398486
 30
0.0
  0
VERTEX
  5
123
  8
DEFAULT_LAYER
 10
17245.89431596545
 20
12784.13869398486
 30
0.0
  0
SEQEND
  5
124
  8
DEFAULT_LAYER
  0
POLYLINE
  5
125
  8
DEFAULT_LAYER
 66
     1
 10
0.0
 20
0.0
 30
0.0
 70
     1
  0
VERTEX
  5
126
  8
DEFAULT_LAYER
 10
17562.3205941731
 20
12784.13869398486
 30
0.0
 42
-0.0995110548221836
  0
VERTEX
  5
127
  8
DEFAULT_LAYER
 10
17462.59834798724
 20
12687.84895486424
 30
0.0
 42
0.1546270264715685
  0
VERTEX
  5
128
  8
DEFAULT_LAYER
 10
17300.00129074572
 20
12756.50713910124
 30
0.0
  0
VERTEX
  5
129
  8
DEFAULT_LAYER
 10
17300.00129074572
 20
12784.13869398486
 30
0.0
  0
SEQEND
  5
12A
  8
DEFAULT_LAYER
  0
POLYLINE
  5
12B
  8
DEFAULT_LAYER
 66
     1
 10
0.0
 20
0.0
 30
0.0
 70
     1
  0
VERTEX
  5
12C
  8
DEFAULT_LAYER
 10
17973.59116893523
 20
12724.27015490302
 30
0.0
  0
VERTEX
  5
12D
  8
DEFAULT_LAYER
 10
17973.59116893523
 20
12780.57013276461
 30
0.0
  0
VERTEX
  5
12E
  8
DEFAULT_LAYER
 10
18086.1911246584
 20
12780.57013276461
 30
0.0
  0
VERTEX
  5
12F
  8
DEFAULT_LAYER
 10
18086.1911246584
 20
12724.27015490302
 30
0.0
  0
SEQEND
  5
130
  8
DEFAULT_LAYER
  0
POLYLINE
  5
131
  8
DEFAULT_LAYER
 66
     1
 10
0.0
 20
0.0
 30
0.0
 70
     1
  0
VERTEX
  5
132
  8
DEFAULT_LAYER
 10
17920.70750425962
 20
12164.68668947314
 30
0.0
  0
VERTEX
  5
133
  8
DEFAULT_LAYER
 10
17808.10754853645
 20
12164.68668947314
 30
0.0
  0
VERTEX
  5
134
  8
DEFAULT_LAYER
 10
17808.10754853645
 20
12220.98666733473
 30
0.0
  0
VERTEX
  5
135
  8
DEFAULT_LAYER
 10
17920.70750425962
 20
12220.98666733473
 30
0.0
  0
SEQEND
  5
136
  8
DEFAULT_LAYER
  0
POLYLINE
  5
137
  8
DEFAULT_LAYER
 66
     1
 10
0.0
 20
0.0
 30
0.0
 70
     1
  0
VERTEX
  5
138
  8
DEFAULT_LAYER
 10
16726.10409676378
 20
12775.83952016981
 30
0.0
  0
VERTEX
  5
139
  8
DEFAULT_LAYER
 10
16726.32011945393
 20
12754.44179038638
 30
0.0
  0
VERTEX
  5
13A
  8
DEFAULT_LAYER
 10
16726.11988801443
 20
12733.07266215148
 30
0.0
  0
VERTEX
  5
13B
  8
DEFAULT_LAYER
 10
16724.6617613226
 20
12690.36036602345
 30
0.0
  0
VERTEX
  5
13C
  8
DEFAULT_LAYER
 10
16718.85254272016
 20
12604.62070500777
 30
0.0
  0
VERTEX
  5
13D
  8
DEFAULT_LAYER
 10
16712.88331882359
 20
12539.95151315542
 30
0.0
  0
VERTEX
  5
13E
  8
DEFAULT_LAYER
 10
16708.90667020954
 20
12507.71636940287
 30
0.0
  0
VERTEX
  5
13F
  8
DEFAULT_LAYER
 10
16706.54487637968
 20
12491.68585381849
 30
0.0
  0
VERTEX
  5
140
  8
DEFAULT_LAYER
 10
16703.88630844645
 20
12475.73706842814
 30
0.0
  0
VERTEX
  5
141
  8
DEFAULT_LAYER
 10
16700.89512059372
 20
12459.88778273138
 30
0.0
  0
VERTEX
  5
142
  8
DEFAULT_LAYER
 10
16697.53546700539
 20
12444.1557662278
 30
0.0
  0
VERTEX
  5
143
  8
DEFAULT_LAYER
 10
16693.77150186534
 20
12428.55878841695
 30
0.0
  0
VERTEX
  5
144
  8
DEFAULT_LAYER
 10
16689.56737935746
 20
12413.11461879841
 30
0.0
  0
VERTEX
  5
145
  8
DEFAULT_LAYER
 10
16684.88725366563
 20
12397.84102687175
 30
0.0
  0
VERTEX
  5
146
  8
DEFAULT_LAYER
 10
16682.35748780821
 20
12390.27375051149
 30
0.0
  0
VERTEX
  5
147
  8
DEFAULT_LAYER
 10
16679.69527897375
 20
12382.75578213654
 30
0.0
  0
VERTEX
  5
148
  8
DEFAULT_LAYER
 10
16676.89614643525
 20
12375.28934293435
 30
0.0
  0
VERTEX
  5
149
  8
DEFAULT_LAYER
 10
16673.9556094657
 20
12367.87665409235
 30
0.0
  0
VERTEX
  5
14A
  8
DEFAULT_LAYER
 10
16670.86918733807
 20
12360.51993679801
 30
0.0
  0
VERTEX
  5
14B
  8
DEFAULT_LAYER
 10
16667.63239932536
 20
12353.22141223876
 30
0.0
  0
VERTEX
  5
14C
  8
DEFAULT_LAYER
 10
16663.33585242391
 20
12344.11098624479
 30
0.0
  0
VERTEX
  5
14D
  8
DEFAULT_LAYER
 10
16658.80193276869
 20
12335.09839644366
 30
0.0
  0
VERTEX
  5
14E
  8
DEFAULT_LAYER
 10
16654.03911054539
 20
12326.18556258486
 30
0.0
  0
VERTEX
  5
14F
  8
DEFAULT_LAYER
 10
16649.05585593967
 20
12317.37440441785
 30
0.0
 42
-0.5754574399110884
  0
VERTEX
  5
150
  8
DEFAULT_LAYER
 10
16527.10977967825
 20
12317.37440441785
 30
0.0
  0
VERTEX
  5
151
  8
DEFAULT_LAYER
 10
16522.12652507253
 20
12326.18556258486
 30
0.0
  0
VERTEX
  5
152
  8
DEFAULT_LAYER
 10
16517.36370284923
 20
12335.09839644367
 30
0.0
  0
VERTEX
  5
153
  8
DEFAULT_LAYER
 10
16512.82978319401
 20
12344.11098624479
 30
0.0
  0
VERTEX
  5
154
  8
DEFAULT_LAYER
 10
16508.53323629256
 20
12353.22141223876
 30
0.0
  0
VERTEX
  5
155
  8
DEFAULT_LAYER
 10
16505.29644827984
 20
12360.51993679801
 30
0.0
  0
VERTEX
  5
156
  8
DEFAULT_LAYER
 10
16502.21002615221
 20
12367.87665409235
 30
0.0
  0
VERTEX
  5
157
  8
DEFAULT_LAYER
 10
16499.26948918266
 20
12375.28934293435
 30
0.0
  0
VERTEX
  5
158
  8
DEFAULT_LAYER
 10
16496.47035664416
 20
12382.75578213654
 30
0.0
  0
VERTEX
  5
159
  8
DEFAULT_LAYER
 10
16493.8081478097
 20
12390.27375051149
 30
0.0
  0
VERTEX
  5
15A
  8
DEFAULT_LAYER
 10
16491.27838195227
 20
12397.84102687175
 30
0.0
  0
VERTEX
  5
15B
  8
DEFAULT_LAYER
 10
16486.59825626045
 20
12413.11461879841
 30
0.0
  0
VERTEX
  5
15C
  8
DEFAULT_LAYER
 10
16482.39413375257
 20
12428.55878841695
 30
0.0
  0
VERTEX
  5
15D
  8
DEFAULT_LAYER
 10
16478.63016861252
 20
12444.1557662278
 30
0.0
  0
VERTEX
  5
15E
  8
DEFAULT_LAYER
 10
16475.27051502419
 20
12459.88778273138
 30
0.0
  0
VERTEX
  5
15F
  8
DEFAULT_LAYER
 10
16472.27932717147
 20
12475.73706842814
 30
0.0
  0
VERTEX
  5
160
  8
DEFAULT_LAYER
 10
16469.62075923823
 20
12491.68585381849
 30
0.0
  0
VERTEX
  5
161
  8
DEFAULT_LAYER
 10
16467.25896540837
 20
12507.71636940287
 30
0.0
  0
VERTEX
  5
162
  8
DEFAULT_LAYER
 10
16463.28231679432
 20
12539.95151315543
 30
0.0
  0
VERTEX
  5
163
  8
DEFAULT_LAYER
 10
16457.31309289776
 20
12604.62070500777
 30
0.0
  0
VERTEX
  5
164
  8
DEFAULT_LAYER
 10
16451.50387429532
 20
12690.36036602345
 30
0.0
  0
VERTEX
  5
165
  8
DEFAULT_LAYER
 10
16450.04574760349
 20
12733.07266215148
 30
0.0
  0
VERTEX
  5
166
  8
DEFAULT_LAYER
 10
16449.84551616399
 20
12754.44179038638
 30
0.0
  0
VERTEX
  5
167
  8
DEFAULT_LAYER
 10
16450.06153885413
 20
12775.83952016981
 30
0.0
  0
SEQEND
  5
168
  8
DEFAULT_LAYER
  0
POLYLINE
  5
169
  8
DEFAULT_LAYER
 66
     1
 10
0.0
 20
0.0
 30
0.0
 70
     1
  0
VERTEX
  5
16A
  8
DEFAULT_LAYER
 10
16273.74933663132
 20
12283.22041390612
 30
0.0
 42
0.2240069190321227
  0
VERTEX
  5
16B
  8
DEFAULT_LAYER
 10
16323.28654678644
 20
12317.37440441785
 30
0.0
  0
VERTEX
  5
16C
  8
DEFAULT_LAYER
 10
16328.26980139216
 20
12326.18556258486
 30
0.0
  0
VERTEX
  5
16D
  8
DEFAULT_LAYER
 10
16333.03262361546
 20
12335.09839644367
 30
0.0
  0
VERTEX
  5
16E
  8
DEFAULT_LAYER
 10
16337.56654327068
 20
12344.11098624479
 30
0.0
  0
VERTEX
  5
16F
  8
DEFAULT_LAYER
 10
16341.86309017213
 20
12353.22141223876
 30
0.0
  0
VERTEX
  5
170
  8
DEFAULT_LAYER
 10
16345.09987818484
 20
12360.51993679801
 30
0.0
  0
VERTEX
  5
171
  8
DEFAULT_LAYER
 10
16348.18630031247
 20
12367.87665409235
 30
0.0
  0
VERTEX
  5
172
  8
DEFAULT_LAYER
 10
16351.12683728203
 20
12375.28934293435
 30
0.0
  0
VERTEX
  5
173
  8
DEFAULT_LAYER
 10
16353.92596982053
 20
12382.75578213654
 30
0.0
  0
VERTEX
  5
174
  8
DEFAULT_LAYER
 10
16356.58817865498
 20
12390.27375051149
 30
0.0
  0
VERTEX
  5
175
  8
DEFAULT_LAYER
 10
16359.11794451241
 20
12397.84102687175
 30
0.0
  0
VERTEX
  5
176
  8
DEFAULT_LAYER
 10
16363.79807020423
 20
12413.11461879841
 30
0.0
  0
VERTEX
  5
177
  8
DEFAULT_LAYER
 10
16368.00219271211
 20
12428.55878841695
 30
0.0
  0
VERTEX
  5
178
  8
DEFAULT_LAYER
 10
16371.76615785216
 20
12444.1557662278
 30
0.0
  0
VERTEX
  5
179
  8
DEFAULT_LAYER
 10
16375.12581144049
 20
12459.88778273138
 30
0.0
  0
VERTEX
  5
17A
  8
DEFAULT_LAYER
 10
16378.11699929322
 20
12475.73706842814
 30
0.0
  0
VERTEX
  5
17B
  8
DEFAULT_LAYER
 10
16380.77556722646
 20
12491.68585381849
 30
0.0
  0
VERTEX
  5
17C
  8
DEFAULT_LAYER
 10
16383.13736105632
 20
12507.71636940287
 30
0.0
  0
VERTEX
  5
17D
  8
DEFAULT_LAYER
 10
16387.11400967036
 20
12539.95151315542
 30
0.0
  0
VERTEX
  5
17E
  8
DEFAULT_LAYER
 10
16393.08323356693
 20
12604.62070500777
 30
0.0
  0
VERTEX
  5
17F
  8
DEFAULT_LAYER
 10
16398.89245216937
 20
12690.36036602345
 30
0.0
  0
VERTEX
  5
180
  8
DEFAULT_LAYER
 10
16400.3505788612
 20
12733.07266215148
 30
0.0
  0
VERTEX
  5
181
  8
DEFAULT_LAYER
 10
16400.5508103007
 20
12754.44179038638
 30
0.0
  0
VERTEX
  5
182
  8
DEFAULT_LAYER
 10
16400.33478761055
 20
12775.83952016981
 30
0.0
  0
VERTEX
  5
183
  8
DEFAULT_LAYER
 10
16273.74933663132
 20
12775.83952016981
 30
0.0
  0
SEQEND
  5
184
  8
DEFAULT_LAYER
  0
POLYLINE
  5
185
  8
DEFAULT_LAYER
 66
     1
 10
0.0
 20
0.0
 30
0.0
 70
     1
  0
VERTEX
  5
186
  8
DEFAULT_LAYER
 10
16775.83084800736
 20
12775.83952016981
 30
0.0
  0
VERTEX
  5
187
  8
DEFAULT_LAYER
 10
16775.61482531721
 20
12754.44179038638
 30
0.0
  0
VERTEX
  5
188
  8
DEFAULT_LAYER
 10
16775.81505675671
 20
12733.07266215148
 30
0.0
  0
VERTEX
  5
189
  8
DEFAULT_LAYER
 10
16777.27318344855
 20
12690.36036602345
 30
0.0
  0
VERTEX
  5
18A
  8
DEFAULT_LAYER
 10
16783.08240205098
 20
12604.62070500777
 30
0.0
  0
VERTEX
  5
18B
  8
DEFAULT_LAYER
 10
16789.05162594755
 20
12539.95151315542
 30
0.0
  0
VERTEX
  5
18C
  8
DEFAULT_LAYER
 10
16793.0282745616
 20
12507.71636940287
 30
0.0
  0
VERTEX
  5
18D
  8
DEFAULT_LAYER
 10
16795.39006839146
 20
12491.68585381849
 30
0.0
  0
VERTEX
  5
18E
  8
DEFAULT_LAYER
 10
16798.04863632469
 20
12475.73706842814
 30
0.0
  0
VERTEX
  5
18F
  8
DEFAULT_LAYER
 10
16801.03982417742
 20
12459.88778273138
 30
0.0
  0
VERTEX
  5
190
  8
DEFAULT_LAYER
 10
16804.39947776575
 20
12444.1557662278
 30
0.0
  0
VERTEX
  5
191
  8
DEFAULT_LAYER
 10
16808.1634429058
 20
12428.55878841695
 30
0.0
  0
VERTEX
  5
192
  8
DEFAULT_LAYER
 10
16812.36756541368
 20
12413.11461879841
 30
0.0
  0
VERTEX
  5
193
  8
DEFAULT_LAYER
 10
16817.0476911055
 20
12397.84102687175
 30
0.0
  0
VERTEX
  5
194
  8
DEFAULT_LAYER
 10
16819.57745696293
 20
12390.27375051149
 30
0.0
  0
VERTEX
  5
195
  8
DEFAULT_LAYER
 10
16822.23966579739
 20
12382.75578213654
 30
0.0
  0
VERTEX
  5
196
  8
DEFAULT_LAYER
 10
16825.03879833589
 20
12375.28934293435
 30
0.0
  0
VERTEX
  5
197
  8
DEFAULT_LAYER
 10
16827.97933530544
 20
12367.87665409235
 30
0.0
  0
VERTEX
  5
198
  8
DEFAULT_LAYER
 10
16831.06575743307
 20
12360.51993679801
 30
0.0
  0
VERTEX
  5
199
  8
DEFAULT_LAYER
 10
16834.30254544578
 20
12353.22141223876
 30
0.0
  0
VERTEX
  5
19A
  8
DEFAULT_LAYER
 10
16838.59909234723
 20
12344.11098624479
 30
0.0
  0
VERTEX
  5
19B
  8
DEFAULT_LAYER
 10
16843.13301200245
 20
12335.09839644366
 30
0.0
  0
VERTEX
  5
19C
  8
DEFAULT_LAYER
 10
16847.89583422576
 20
12326.18556258486
 30
0.0
  0
VERTEX
  5
19D
  8
DEFAULT_LAYER
 10
16852.87908883148
 20
12317.37440441785
 30
0.0
 42
0.2240069190321224
  0
VERTEX
  5
19E
  8
DEFAULT_LAYER
 10
16902.4162989866
 20
12283.22041390612
 30
0.0
  0
VERTEX
  5
19F
  8
DEFAULT_LAYER
 10
16902.4162989866
 20
12775.83952016981
 30
0.0
  0
SEQEND
  5
1A0
  8
DEFAULT_LAYER
  0
ARC
  5
1A1
  8
DEFAULT_LAYER
 10
16621.16486590466
 20
12147.59124846179
 30
0.0
 40
167.7230008172048
 50
359.7653444724329
 51
359.8569711261557
  0
ARC
  5
1A2
  8
DEFAULT_LAYER
 10
-16880.77007886647
 20
12147.59124846179
 30
0.0
 40
167.7230008172048
 50
359.7653444724329
 51
359.8569711261551
210
0.0
220
0.0
230
-1.0
  0
LINE
  5
1A3
  8
DEFAULT_LAYER
 10
16791.58140334517
 20
12777.18494101417
 30
0.0
 11
16791.60819219152
 21
12775.83952016981
 31
0.0
  0
LINE
  5
1A4
  8
DEFAULT_LAYER
 10
16710.35354142597
 20
12777.18494101417
 30
0.0
 11
16710.32675257962
 21
12775.83952016981
 31
0.0
  0
ARC
  5
1A5
  8
DEFAULT_LAYER
 10
-16555.00076971326
 20
12147.59124846179
 30
0.0
 40
167.7230008172048
 50
359.7653444724329
 51
359.8569711261557
210
0.0
220
0.0
230
-1.0
  0
ARC
  5
1A6
  8
DEFAULT_LAYER
 10
16295.39555675144
 20
12147.59124846179
 30
0.0
 40
167.7230008172048
 50
359.7653444724329
 51
359.8569711261551
  0
LINE
  5
1A7
  8
DEFAULT_LAYER
 10
16384.58423227275
 20
12777.18494101417
 30
0.0
 11
16384.55744342639
 21
12775.83952016981
 31
0.0
  0
LINE
  5
1A8
  8
DEFAULT_LAYER
 10
16465.81209419194
 20
12777.18494101417
 30
0.0
 11
16465.83888303829
 21
12775.83952016981
 31
0.0
  0
ENDSEC
  0
EOF
