  0
SECTION
  2
HEADER
  9
$ACADVER
  1
AC1009
  9
$DWGCODEPAGE
  3
ansi_1252
  9
$INSBASE
 10
0.0
 20
0.0
 30
0.0
  9
$EXTMIN
 10
1.000000000000000E+20
 20
1.000000000000000E+20
 30
1.000000000000000E+20
  9
$EXTMAX
 10
-1.000000000000000E+20
 20
-1.000000000000000E+20
 30
-1.000000000000000E+20
  9
$LIMMIN
 10
0.0
 20
0.0
  9
$LIMMAX
 10
12.0
 20
9.0
  9
$ORTHOMODE
 70
     0
  9
$REGENMODE
 70
     1
  9
$FILLMODE
 70
     1
  9
$QTEXTMODE
 70
     0
  9
$MIRRTEXT
 70
     1
  9
$DRAGMODE
 70
     2
  9
$LTSCALE
 40
1.0
  9
$OSMODE
 70
    37
  9
$ATTMODE
 70
     1
  9
$TEXTSIZE
 40
0.2
  9
$TRACEWID
 40
0.05
  9
$TEXTSTYLE
  7
STANDARD
  9
$CLAYER
  8
LAYER_01
  9
$CELTYPE
  6
BYLAYER
  9
$CECOLOR
 62
   256
  9
$DIMSCALE
 40
1.0
  9
$DIMASZ
 40
0.18
  9
$DIMEXO
 40
0.0625
  9
$DIMDLI
 40
0.38
  9
$DIMRND
 40
0.0
  9
$DIMDLE
 40
0.0
  9
$DIMEXE
 40
0.18
  9
$DIMTP
 40
0.0
  9
$DIMTM
 40
0.0
  9
$DIMTXT
 40
0.18
  9
$DIMCEN
 40
0.09
  9
$DIMTSZ
 40
0.0
  9
$DIMTOL
 70
     0
  9
$DIMLIM
 70
     0
  9
$DIMTIH
 70
     1
  9
$DIMTOH
 70
     1
  9
$DIMSE1
 70
     0
  9
$DIMSE2
 70
     0
  9
$DIMTAD
 70
     0
  9
$DIMZIN
 70
     0
  9
$DIMBLK
  1

  9
$DIMASO
 70
     1
  9
$DIMSHO
 70
     1
  9
$DIMPOST
  1

  9
$DIMAPOST
  1

  9
$DIMALT
 70
     0
  9
$DIMALTD
 70
     2
  9
$DIMALTF
 40
25.4
  9
$DIMLFAC
 40
1.0
  9
$DIMTOFL
 70
     0
  9
$DIMTVP
 40
0.0
  9
$DIMTIX
 70
     0
  9
$DIMSOXD
 70
     0
  9
$DIMSAH
 70
     0
  9
$DIMBLK1
  1

  9
$DIMBLK2
  1

  9
$DIMSTYLE
  2
STANDARD_ACAD
  9
$DIMCLRD
 70
     0
  9
$DIMCLRE
 70
     0
  9
$DIMCLRT
 70
     0
  9
$DIMTFAC
 40
1.0
  9
$DIMGAP
 40
0.09
  9
$LUNITS
 70
     2
  9
$LUPREC
 70
     3
  9
$SKETCHINC
 40
0.1
  9
$FILLETRAD
 40
0.5
  9
$AUNITS
 70
     0
  9
$AUPREC
 70
     0
  9
$MENU
  1
.
  9
$ELEVATION
 40
0.0
  9
$PELEVATION
 40
0.0
  9
$THICKNESS
 40
0.0
  9
$LIMCHECK
 70
     0
  9
$CHAMFERA
 40
0.0
  9
$CHAMFERB
 40
0.0
  9
$SKPOLY
 70
     0
  9
$TDCREATE
 40
2459896.567329699
  9
$TDUPDATE
 40
2459896.567329884
  9
$TDINDWG
 40
0.0000000116
  9
$TDUSRTIMER
 40
0.0000000116
  9
$USRTIMER
 70
     1
  9
$ANGBASE
 50
0.0
  9
$ANGDIR
 70
     0
  9
$PDMODE
 70
     0
  9
$PDSIZE
 40
0.0
  9
$PLINEWID
 40
0.0
  9
$COORDS
 70
     1
  9
$SPLFRAME
 70
     0
  9
$SPLINETYPE
 70
     6
  9
$SPLINESEGS
 70
     8
  9
$ATTDIA
 70
     0
  9
$ATTREQ
 70
     1
  9
$HANDLING
 70
     1
  9
$HANDSEED
  5
4DF
  9
$SURFTAB1
 70
     6
  9
$SURFTAB2
 70
     6
  9
$SURFTYPE
 70
     6
  9
$SURFU
 70
     6
  9
$SURFV
 70
     6
  9
$UCSNAME
  2

  9
$UCSORG
 10
0.0
 20
0.0
 30
0.0
  9
$UCSXDIR
 10
1.0
 20
0.0
 30
0.0
  9
$UCSYDIR
 10
0.0
 20
1.0
 30
0.0
  9
$PUCSNAME
  2

  9
$PUCSORG
 10
0.0
 20
0.0
 30
0.0
  9
$PUCSXDIR
 10
1.0
 20
0.0
 30
0.0
  9
$PUCSYDIR
 10
0.0
 20
1.0
 30
0.0
  9
$USERI1
 70
     0
  9
$USERI2
 70
     0
  9
$USERI3
 70
     0
  9
$USERI4
 70
     0
  9
$USERI5
 70
     0
  9
$USERR1
 40
0.0
  9
$USERR2
 40
0.0
  9
$USERR3
 40
0.0
  9
$USERR4
 40
0.0
  9
$USERR5
 40
0.0
  9
$WORLDVIEW
 70
     1
  9
$SHADEDGE
 70
     3
  9
$SHADEDIF
 70
    70
  9
$TILEMODE
 70
     1
  9
$MAXACTVP
 70
    64
  9
$PLIMCHECK
 70
     0
  9
$PEXTMIN
 10
1.000000000000000E+20
 20
1.000000000000000E+20
 30
1.000000000000000E+20
  9
$PEXTMAX
 10
-1.000000000000000E+20
 20
-1.000000000000000E+20
 30
-1.000000000000000E+20
  9
$PLIMMIN
 10
0.0
 20
0.0
  9
$PLIMMAX
 10
12.0
 20
9.0
  9
$UNITMODE
 70
     0
  9
$VISRETAIN
 70
     1
  9
$PLINEGEN
 70
     0
  9
$PSLTSCALE
 70
     1
  0
ENDSEC
  0
SECTION
  2
TABLES
  0
TABLE
  2
VPORT
 70
     1
  0
VPORT
  2
*ACTIVE
 70
     0
 10
0.0
 20
0.0
 11
1.0
 21
1.0
 12
10.42990654205607
 22
4.5
 13
0.0
 23
0.0
 14
0.5
 24
0.5
 15
0.5
 25
0.5
 16
0.0
 26
0.0
 36
1.0
 17
0.0
 27
0.0
 37
0.0
 40
9.0
 41
1.972972972850329
 42
50.0
 43
0.0
 44
0.0
 50
0.0
 51
0.0
 71
     0
 72
   100
 73
     1
 74
     3
 75
     0
 76
     0
 77
     0
 78
     0
  0
ENDTAB
  0
TABLE
  2
LTYPE
 70
     1
  0
LTYPE
  2
CONTINUOUS
 70
     0
  3
Solid line
 72
    65
 73
     0
 40
0.0
  0
ENDTAB
  0
TABLE
  2
LAYER
 70
     2
  0
LAYER
  2
0
 70
     0
 62
     7
  6
CONTINUOUS
  0
LAYER
  2
LAYER_01
 70
     0
 62
     5
  6
CONTINUOUS
  0
ENDTAB
  0
TABLE
  2
STYLE
 70
     1
  0
STYLE
  2
STANDARD
 70
     0
 40
0.0
 41
1.0
 50
0.0
 71
     0
 42
0.2
  3
txt
  4

  0
ENDTAB
  0
TABLE
  2
VIEW
 70
     0
  0
ENDTAB
  0
TABLE
  2
UCS
 70
     0
  0
ENDTAB
  0
TABLE
  2
APPID
 70
     2
  0
APPID
  2
ACAD
 70
     0
  0
APPID
  2
RHINO
 70
     0
  0
ENDTAB
  0
TABLE
  2
DIMSTYLE
 70
     1
  0
DIMSTYLE
  2
STANDARD_ACAD
 70
     0
  3

  4

  5

  6

  7

 40
1.0
 41
0.18
 42
0.0625
 43
0.38
 44
0.18
 45
0.0
 46
0.0
 47
0.0
 48
0.0
140
0.18
141
0.09
142
0.0
143
25.4
144
1.0
145
0.0
146
1.0
147
0.09
 71
     0
 72
     0
 73
     1
 74
     1
 75
     0
 76
     0
 77
     0
 78
     0
170
     0
171
     2
172
     0
173
     0
174
     0
175
     0
176
     0
177
     0
178
     0
  0
ENDTAB
  0
ENDSEC
  0
SECTION
  2
BLOCKS
  0
BLOCK
  8
0
  2
$MODEL_SPACE
 70
     0
 10
0.0
 20
0.0
 30
0.0
  3
$MODEL_SPACE
  1

  0
ENDBLK
  5
21
  8
0
  0
BLOCK
 67
     1
  8
0
  2
$PAPER_SPACE
 70
     0
 10
0.0
 20
0.0
 30
0.0
  3
$PAPER_SPACE
  1

  0
ENDBLK
  5
1D
 67
     1
  8
0
  0
ENDSEC
  0
SECTION
  2
ENTITIES
  0
POLYLINE
  5
70
  8
LAYER_01
 66
     1
 10
0.0
 20
0.0
 30
0.0
 70
     1
  0
VERTEX
  5
71
  8
LAYER_01
 10
2888.050830920074
 20
386.4181290352765
 30
0.0
  0
VERTEX
  5
72
  8
LAYER_01
 10
3925.430084451819
 20
386.4181290352765
 30
0.0
  0
VERTEX
  5
73
  8
LAYER_01
 10
3925.430084451819
 20
1423.797382567016
 30
0.0
  0
VERTEX
  5
74
  8
LAYER_01
 10
2888.050830920074
 20
1423.797382567016
 30
0.0
  0
SEQEND
  5
75
  8
LAYER_01
  0
POLYLINE
  5
76
  8
LAYER_01
 66
     1
 10
0.0
 20
0.0
 30
0.0
 70
     1
  0
VERTEX
  5
77
  8
LAYER_01
 10
2908.050830920074
 20
406.4181290352765
 30
0.0
  0
VERTEX
  5
78
  8
LAYER_01
 10
3905.430084451819
 20
406.4181290352765
 30
0.0
  0
VERTEX
  5
79
  8
LAYER_01
 10
3905.430084451819
 20
1403.797382567016
 30
0.0
  0
VERTEX
  5
7A
  8
LAYER_01
 10
2908.050830920074
 20
1403.797382567016
 30
0.0
  0
SEQEND
  5
7B
  8
LAYER_01
  0
POLYLINE
  5
7C
  8
LAYER_01
 66
     1
 10
0.0
 20
0.0
 30
0.0
 70
     1
  0
VERTEX
  5
7D
  8
LAYER_01
 10
3185.674252521902
 20
752.6272720153506
 30
0.0
 42
1.496606832190097
  0
VERTEX
  5
7E
  8
LAYER_01
 10
3129.117036816494
 20
752.6272702472497
 30
0.0
  0
VERTEX
  5
7F
  8
LAYER_01
 10
3144.013260224827
 20
716.6646056667263
 30
0.0
 42
0.6681787345582344
  0
VERTEX
  5
80
  8
LAYER_01
 10
3170.778028403931
 20
716.664605721595
 30
0.0
  0
SEQEND
  5
81
  8
LAYER_01
  0
POLYLINE
  5
82
  8
LAYER_01
 66
     1
 10
0.0
 20
0.0
 30
0.0
 70
     1
  0
VERTEX
  5
83
  8
LAYER_01
 10
3108.898215623882
 20
744.252362365533
 30
0.0
 42
1.496606832190102
  0
VERTEX
  5
84
  8
LAYER_01
 10
3068.906226123794
 20
704.2603703649727
 30
0.0
  0
VERTEX
  5
85
  8
LAYER_01
 10
3104.86889070432
 20
689.3641469566478
 30
0.0
 42
0.6681787345582461
  0
VERTEX
  5
86
  8
LAYER_01
 10
3123.794439741853
 20
708.2896960717771
 30
0.0
  0
SEQEND
  5
87
  8
LAYER_01
  0
POLYLINE
  5
88
  8
LAYER_01
 66
     1
 10
0.0
 20
0.0
 30
0.0
 70
     1
  0
VERTEX
  5
89
  8
LAYER_01
 10
3245.885064250332
 20
704.260371097344
 30
0.0
 42
1.49660683219014
  0
VERTEX
  5
8A
  8
LAYER_01
 10
3205.893072249772
 20
744.2523605974321
 30
0.0
  0
VERTEX
  5
8B
  8
LAYER_01
 10
3190.996848841449
 20
708.2896960169041
 30
0.0
 42
0.6681787345583059
  0
VERTEX
  5
8C
  8
LAYER_01
 10
3209.922397956575
 20
689.3641469793707
 30
0.0
  0
SEQEND
  5
8D
  8
LAYER_01
  0
POLYLINE
  5
8E
  8
LAYER_01
 66
     1
 10
0.0
 20
0.0
 30
0.0
 70
     1
  0
VERTEX
  5
8F
  8
LAYER_01
 10
3318.251037738629
 20
856.6103271220177
 30
0.0
 42
1.49660683219014
  0
VERTEX
  5
90
  8
LAYER_01
 10
3358.243029739189
 20
816.6183376219295
 30
0.0
  0
VERTEX
  5
91
  8
LAYER_01
 10
3373.139253147514
 20
852.5810022024565
 30
0.0
 42
0.6681787345582264
  0
VERTEX
  5
92
  8
LAYER_01
 10
3354.213704032385
 20
871.50655123999
 30
0.0
  0
SEQEND
  5
93
  8
LAYER_01
  0
POLYLINE
  5
94
  8
LAYER_01
 66
     1
 10
0.0
 20
0.0
 30
0.0
 70
     1
  0
VERTEX
  5
95
  8
LAYER_01
 10
2956.548259599207
 20
816.6183358538286
 30
0.0
 42
1.496606832190102
  0
VERTEX
  5
96
  8
LAYER_01
 10
2996.540249099295
 20
856.610327854389
 30
0.0
  0
VERTEX
  5
97
  8
LAYER_01
 10
2960.577584518771
 20
871.5065512627148
 30
0.0
 42
0.6681787345582461
  0
VERTEX
  5
98
  8
LAYER_01
 10
2941.652035481237
 20
852.5810021475854
 30
0.0
  0
SEQEND
  5
99
  8
LAYER_01
  0
POLYLINE
  5
9A
  8
LAYER_01
 66
     1
 10
0.0
 20
0.0
 30
0.0
  0
VERTEX
  5
9B
  8
LAYER_01
 10
3267.554171255678
 20
905.107755801149
 30
0.0
 42
0.5345113582156753
  0
VERTEX
  5
9C
  8
LAYER_01
 10
3309.87612985691
 20
876.8291483146286
 30
0.0
  0
VERTEX
  5
9D
  8
LAYER_01
 10
3345.838794437435
 20
891.7253717229609
 30
0.0
 42
0.3033467195267994
  0
VERTEX
  5
9E
  8
LAYER_01
 10
3354.78061887633
 20
905.1077558011478
 30
0.0
  0
SEQEND
  5
9F
  8
LAYER_01
  0
POLYLINE
  5
A0
  8
LAYER_01
 66
     1
 10
0.0
 20
0.0
 30
0.0
  0
VERTEX
  5
A1
  8
LAYER_01
 10
3406.740457685946
 20
853.1479169915306
 30
0.0
 42
0.3033467206462072
  0
VERTEX
  5
A2
  8
LAYER_01
 10
3393.35807358503
 20
844.2060924977667
 30
0.0
  0
VERTEX
  5
A3
  8
LAYER_01
 10
3378.461849467059
 20
808.2434262040101
 30
0.0
 42
0.5345113381187003
  0
VERTEX
  5
A4
  8
LAYER_01
 10
3406.740457685948
 20
765.9214693708791
 30
0.0
  0
SEQEND
  5
A5
  8
LAYER_01
  0
POLYLINE
  5
A6
  8
LAYER_01
 66
     1
 10
0.0
 20
0.0
 30
0.0
  0
VERTEX
  5
A7
  8
LAYER_01
 10
3376.66531244161
 20
905.1077558011477
 30
0.0
 42
-0.1861730095326929
  0
VERTEX
  5
A8
  8
LAYER_01
 10
3360.63396750156
 20
886.0098222533522
 30
0.0
 42
-0.1861730095326319
  0
VERTEX
  5
A9
  8
LAYER_01
 10
3385.474118538506
 20
883.841416653707
 30
0.0
 42
-0.1861730095326926
  0
VERTEX
  5
AA
  8
LAYER_01
 10
3387.642524138153
 20
859.0012656167594
 30
0.0
 42
-0.1861730095326774
  0
VERTEX
  5
AB
  8
LAYER_01
 10
3406.740457685947
 20
875.0326105568109
 30
0.0
  0
SEQEND
  5
AC
  8
LAYER_01
  0
POLYLINE
  5
AD
  8
LAYER_01
 66
     1
 10
0.0
 20
0.0
 30
0.0
  0
VERTEX
  5
AE
  8
LAYER_01
 10
2908.050830920075
 20
765.9214693708791
 30
0.0
 42
0.5345113582156878
  0
VERTEX
  5
AF
  8
LAYER_01
 10
2936.329438406597
 20
808.243427972111
 30
0.0
  0
VERTEX
  5
B0
  8
LAYER_01
 10
2921.433214998264
 20
844.2060925526362
 30
0.0
 42
0.3033467195268911
  0
VERTEX
  5
B1
  8
LAYER_01
 10
2908.050830920074
 20
853.1479169915306
 30
0.0
  0
SEQEND
  5
B2
  8
LAYER_01
  0
POLYLINE
  5
B3
  8
LAYER_01
 66
     1
 10
0.0
 20
0.0
 30
0.0
  0
VERTEX
  5
B4
  8
LAYER_01
 10
2960.010669729696
 20
905.1077558011481
 30
0.0
 42
0.3033467206462268
  0
VERTEX
  5
B5
  8
LAYER_01
 10
2968.95249422346
 20
891.7253717002299
 30
0.0
  0
VERTEX
  5
B6
  8
LAYER_01
 10
3004.915160517216
 20
876.8291475822599
 30
0.0
 42
0.5345113381187196
  0
VERTEX
  5
B7
  8
LAYER_01
 10
3047.237117350347
 20
905.1077558011478
 30
0.0
  0
SEQEND
  5
B8
  8
LAYER_01
  0
POLYLINE
  5
B9
  8
LAYER_01
 66
     1
 10
0.0
 20
0.0
 30
0.0
  0
VERTEX
  5
BA
  8
LAYER_01
 10
2908.050830920078
 20
875.0326105568105
 30
0.0
 42
-0.1861730095326934
  0
VERTEX
  5
BB
  8
LAYER_01
 10
2927.148764467873
 20
859.001265616761
 30
0.0
 42
-0.1861730095326268
  0
VERTEX
  5
BC
  8
LAYER_01
 10
2929.317170067519
 20
883.8414166537069
 30
0.0
 42
-0.1861730095326634
  0
VERTEX
  5
BD
  8
LAYER_01
 10
2954.157321104468
 20
886.009822253353
 30
0.0
 42
-0.1861730095326679
  0
VERTEX
  5
BE
  8
LAYER_01
 10
2938.125976164416
 20
905.107755801148
 30
0.0
  0
SEQEND
  5
BF
  8
LAYER_01
  0
POLYLINE
  5
C0
  8
LAYER_01
 66
     1
 10
0.0
 20
0.0
 30
0.0
 70
     1
  0
VERTEX
  5
C1
  8
LAYER_01
 10
3185.674252521902
 20
558.898612821075
 30
0.0
 42
-1.496606832190097
  0
VERTEX
  5
C2
  8
LAYER_01
 10
3129.117036816494
 20
558.8986145891758
 30
0.0
  0
VERTEX
  5
C3
  8
LAYER_01
 10
3144.013260224827
 20
594.8612791697001
 30
0.0
 42
-0.6681787345582344
  0
VERTEX
  5
C4
  8
LAYER_01
 10
3170.778028403931
 20
594.8612791148315
 30
0.0
  0
SEQEND
  5
C5
  8
LAYER_01
  0
POLYLINE
  5
C6
  8
LAYER_01
 66
     1
 10
0.0
 20
0.0
 30
0.0
 70
     1
  0
VERTEX
  5
C7
  8
LAYER_01
 10
3108.898215623882
 20
567.2735224708925
 30
0.0
 42
-1.496606832190102
  0
VERTEX
  5
C8
  8
LAYER_01
 10
3068.906226123794
 20
607.2655144714529
 30
0.0
  0
VERTEX
  5
C9
  8
LAYER_01
 10
3104.86889070432
 20
622.1617378797787
 30
0.0
 42
-0.6681787345582461
  0
VERTEX
  5
CA
  8
LAYER_01
 10
3123.794439741853
 20
603.2361887646493
 30
0.0
  0
SEQEND
  5
CB
  8
LAYER_01
  0
POLYLINE
  5
CC
  8
LAYER_01
 66
     1
 10
0.0
 20
0.0
 30
0.0
 70
     1
  0
VERTEX
  5
CD
  8
LAYER_01
 10
3245.885064250332
 20
607.2655137390816
 30
0.0
 42
-1.49660683219014
  0
VERTEX
  5
CE
  8
LAYER_01
 10
3205.893072249772
 20
567.2735242389934
 30
0.0
  0
VERTEX
  5
CF
  8
LAYER_01
 10
3190.996848841449
 20
603.2361888195222
 30
0.0
 42
-0.6681787345582842
  0
VERTEX
  5
D0
  8
LAYER_01
 10
3209.922397956575
 20
622.1617378570548
 30
0.0
  0
SEQEND
  5
D1
  8
LAYER_01
  0
POLYLINE
  5
D2
  8
LAYER_01
 66
     1
 10
0.0
 20
0.0
 30
0.0
 70
     1
  0
VERTEX
  5
D3
  8
LAYER_01
 10
3318.251037738629
 20
454.915557714408
 30
0.0
 42
-1.496606832190138
  0
VERTEX
  5
D4
  8
LAYER_01
 10
3358.243029739189
 20
494.907547214496
 30
0.0
  0
VERTEX
  5
D5
  8
LAYER_01
 10
3373.139253147514
 20
458.9448826339699
 30
0.0
 42
-0.6681787345582538
  0
VERTEX
  5
D6
  8
LAYER_01
 10
3354.213704032385
 20
440.0193335964356
 30
0.0
  0
SEQEND
  5
D7
  8
LAYER_01
  0
POLYLINE
  5
D8
  8
LAYER_01
 66
     1
 10
0.0
 20
0.0
 30
0.0
 70
     1
  0
VERTEX
  5
D9
  8
LAYER_01
 10
2956.548259599207
 20
494.9075489825969
 30
0.0
 42
-1.496606832190112
  0
VERTEX
  5
DA
  8
LAYER_01
 10
2996.540249099295
 20
454.9155569820366
 30
0.0
  0
VERTEX
  5
DB
  8
LAYER_01
 10
2960.577584518771
 20
440.0193335737117
 30
0.0
 42
-0.6681787345582461
  0
VERTEX
  5
DC
  8
LAYER_01
 10
2941.652035481237
 20
458.9448826888411
 30
0.0
  0
SEQEND
  5
DD
  8
LAYER_01
  0
POLYLINE
  5
DE
  8
LAYER_01
 66
     1
 10
0.0
 20
0.0
 30
0.0
  0
VERTEX
  5
DF
  8
LAYER_01
 10
3267.554171255678
 20
406.4181290352765
 30
0.0
 42
-0.5345113582156759
  0
VERTEX
  5
E0
  8
LAYER_01
 10
3309.87612985691
 20
434.696736521797
 30
0.0
  0
VERTEX
  5
E1
  8
LAYER_01
 10
3345.838794437435
 20
419.8005131134647
 30
0.0
 42
-0.3033467195268025
  0
VERTEX
  5
E2
  8
LAYER_01
 10
3354.78061887633
 20
406.4181290352777
 30
0.0
  0
SEQEND
  5
E3
  8
LAYER_01
  0
POLYLINE
  5
E4
  8
LAYER_01
 66
     1
 10
0.0
 20
0.0
 30
0.0
  0
VERTEX
  5
E5
  8
LAYER_01
 10
3406.740457685946
 20
458.3779678448959
 30
0.0
 42
-0.3033467206462043
  0
VERTEX
  5
E6
  8
LAYER_01
 10
3393.35807358503
 20
467.3197923386598
 30
0.0
  0
VERTEX
  5
E7
  8
LAYER_01
 10
3378.461849467059
 20
503.2824586324155
 30
0.0
 42
-0.5345113381187003
  0
VERTEX
  5
E8
  8
LAYER_01
 10
3406.740457685948
 20
545.6044154655465
 30
0.0
  0
SEQEND
  5
E9
  8
LAYER_01
  0
POLYLINE
  5
EA
  8
LAYER_01
 66
     1
 10
0.0
 20
0.0
 30
0.0
  0
VERTEX
  5
EB
  8
LAYER_01
 10
3376.66531244161
 20
406.4181290352778
 30
0.0
 42
0.1861730095326929
  0
VERTEX
  5
EC
  8
LAYER_01
 10
3360.63396750156
 20
425.5160625830735
 30
0.0
 42
0.1861730095326126
  0
VERTEX
  5
ED
  8
LAYER_01
 10
3385.474118538506
 20
427.6844681827197
 30
0.0
 42
0.1861730095326976
  0
VERTEX
  5
EE
  8
LAYER_01
 10
3387.642524138153
 20
452.5246192196671
 30
0.0
 42
0.1861730095326796
  0
VERTEX
  5
EF
  8
LAYER_01
 10
3406.740457685947
 20
436.4932742796155
 30
0.0
  0
SEQEND
  5
F0
  8
LAYER_01
  0
POLYLINE
  5
F1
  8
LAYER_01
 66
     1
 10
0.0
 20
0.0
 30
0.0
  0
VERTEX
  5
F2
  8
LAYER_01
 10
2908.050830920075
 20
545.6044154655465
 30
0.0
 42
-0.5345113582156878
  0
VERTEX
  5
F3
  8
LAYER_01
 10
2936.329438406597
 20
503.2824568643146
 30
0.0
  0
VERTEX
  5
F4
  8
LAYER_01
 10
2921.433214998264
 20
467.3197922837902
 30
0.0
 42
-0.3033467195268871
  0
VERTEX
  5
F5
  8
LAYER_01
 10
2908.050830920074
 20
458.377967844896
 30
0.0
  0
SEQEND
  5
F6
  8
LAYER_01
  0
POLYLINE
  5
F7
  8
LAYER_01
 66
     1
 10
0.0
 20
0.0
 30
0.0
  0
VERTEX
  5
F8
  8
LAYER_01
 10
2960.010669729696
 20
406.4181290352776
 30
0.0
 42
-0.3033467206462249
  0
VERTEX
  5
F9
  8
LAYER_01
 10
2968.95249422346
 20
419.8005131361957
 30
0.0
  0
VERTEX
  5
FA
  8
LAYER_01
 10
3004.915160517215
 20
434.6967372541669
 30
0.0
 42
-0.5345113381187084
  0
VERTEX
  5
FB
  8
LAYER_01
 10
3047.237117350347
 20
406.4181290352777
 30
0.0
  0
SEQEND
  5
FC
  8
LAYER_01
  0
POLYLINE
  5
FD
  8
LAYER_01
 66
     1
 10
0.0
 20
0.0
 30
0.0
  0
VERTEX
  5
FE
  8
LAYER_01
 10
2908.050830920078
 20
436.4932742796152
 30
0.0
 42
0.1861730095326937
  0
VERTEX
  5
FF
  8
LAYER_01
 10
2927.148764467873
 20
452.5246192196647
 30
0.0
 42
0.1861730095326279
  0
VERTEX
  5
100
  8
LAYER_01
 10
2929.317170067519
 20
427.6844681827196
 30
0.0
 42
0.1861730095326813
  0
VERTEX
  5
101
  8
LAYER_01
 10
2954.157321104467
 20
425.5160625830728
 30
0.0
 42
0.1861730095326696
  0
VERTEX
  5
102
  8
LAYER_01
 10
2938.125976164416
 20
406.4181290352786
 30
0.0
  0
SEQEND
  5
103
  8
LAYER_01
  0
POLYLINE
  5
104
  8
LAYER_01
 66
     1
 10
0.0
 20
0.0
 30
0.0
 70
     1
  0
VERTEX
  5
105
  8
LAYER_01
 10
3218.297307551526
 20
642.3805583400258
 30
0.0
  0
VERTEX
  5
106
  8
LAYER_01
 10
3254.259972132049
 20
627.4843349316931
 30
0.0
 42
1.496606882832124
  0
VERTEX
  5
107
  8
LAYER_01
 10
3254.259972132051
 20
684.0415499047322
 30
0.0
  0
VERTEX
  5
108
  8
LAYER_01
 10
3218.297307551526
 20
669.1453264963999
 30
0.0
 42
0.6681787330756896
  0
SEQEND
  5
109
  8
LAYER_01
  0
POLYLINE
  5
10A
  8
LAYER_01
 66
     1
 10
0.0
 20
0.0
 30
0.0
 70
     1
  0
VERTEX
  5
10B
  8
LAYER_01
 10
3111.289154118625
 20
636.6650088704143
 30
0.0
 42
-0.1861730095326553
  0
VERTEX
  5
10C
  8
LAYER_01
 10
3136.129305155571
 20
634.4966032707706
 30
0.0
 42
-0.1861730095326941
  0
VERTEX
  5
10D
  8
LAYER_01
 10
3138.297710755218
 20
609.6564522338252
 30
0.0
 42
-0.1861730095326701
  0
VERTEX
  5
10E
  8
LAYER_01
 10
3157.395644303012
 20
625.6877971738754
 30
0.0
 42
-0.1861730095326894
  0
VERTEX
  5
10F
  8
LAYER_01
 10
3176.493577850808
 20
609.6564522338241
 30
0.0
 42
-0.186173009532715
  0
VERTEX
  5
110
  8
LAYER_01
 10
3178.661983450454
 20
634.4966032707715
 30
0.0
 42
-0.1861730095327276
  0
VERTEX
  5
111
  8
LAYER_01
 10
3203.5021344874
 20
636.6650088704174
 30
0.0
 42
-0.1861730095326753
  0
VERTEX
  5
112
  8
LAYER_01
 10
3187.470789547352
 20
655.7629424182135
 30
0.0
 42
-0.1861730095326798
  0
VERTEX
  5
113
  8
LAYER_01
 10
3203.502134487401
 20
674.8608759660083
 30
0.0
 42
-0.1861730095327431
  0
VERTEX
  5
114
  8
LAYER_01
 10
3178.661983450454
 20
677.029281565654
 30
0.0
 42
-0.1861730095327007
  0
VERTEX
  5
115
  8
LAYER_01
 10
3176.493577850807
 20
701.8694326026023
 30
0.0
 42
-0.1861730095326833
  0
VERTEX
  5
116
  8
LAYER_01
 10
3157.395644303014
 20
685.8380876625514
 30
0.0
 42
-0.1861730095326845
  0
VERTEX
  5
117
  8
LAYER_01
 10
3138.297710755217
 20
701.8694326026024
 30
0.0
 42
-0.1861730095326946
  0
VERTEX
  5
118
  8
LAYER_01
 10
3136.129305155572
 20
677.0292815656564
 30
0.0
 42
-0.1861730095326786
  0
VERTEX
  5
119
  8
LAYER_01
 10
3111.289154118625
 20
674.8608759660112
 30
0.0
 42
-0.1861730095326518
  0
VERTEX
  5
11A
  8
LAYER_01
 10
3127.320499058676
 20
655.7629424182134
 30
0.0
 42
-0.1861730095326138
  0
SEQEND
  5
11B
  8
LAYER_01
  0
POLYLINE
  5
11C
  8
LAYER_01
 66
     1
 10
0.0
 20
0.0
 30
0.0
 70
     1
  0
VERTEX
  5
11D
  8
LAYER_01
 10
3300.13916497881
 20
691.0327020185052
 30
0.0
 42
-0.2555679268113352
  0
VERTEX
  5
11E
  8
LAYER_01
 10
3386.258405503544
 20
675.6683940293594
 30
0.0
 42
-0.4792508899632871
  0
VERTEX
  5
11F
  8
LAYER_01
 10
3386.258405503547
 20
635.8574908070634
 30
0.0
 42
-0.2555679268113106
  0
VERTEX
  5
120
  8
LAYER_01
 10
3300.139164978812
 20
620.4931828179219
 30
0.0
 42
0.4662001085580555
  0
SEQEND
  5
121
  8
LAYER_01
  0
POLYLINE
  5
122
  8
LAYER_01
 66
     1
 10
0.0
 20
0.0
 30
0.0
 70
     1
  0
VERTEX
  5
123
  8
LAYER_01
 10
3280.693183574451
 20
825.4960004291426
 30
0.0
 42
0.1828115962155479
  0
VERTEX
  5
124
  8
LAYER_01
 10
3233.391069559126
 20
781.6373400426966
 30
0.0
 42
-0.4662001085581053
  0
VERTEX
  5
125
  8
LAYER_01
 10
3283.270041927489
 20
731.7583676743322
 30
0.0
 42
0.182811596215554
  0
VERTEX
  5
126
  8
LAYER_01
 10
3327.128702313938
 20
779.0604816896408
 30
0.0
 42
-0.4191699857856717
  0
SEQEND
  5
127
  8
LAYER_01
  0
POLYLINE
  5
128
  8
LAYER_01
 66
     1
 10
0.0
 20
0.0
 30
0.0
 70
     1
  0
VERTEX
  5
129
  8
LAYER_01
 10
3280.693183574451
 20
486.029884407283
 30
0.0
 42
-0.1828115962155475
  0
VERTEX
  5
12A
  8
LAYER_01
 10
3233.391069559126
 20
529.8885447937292
 30
0.0
 42
0.4662001085581201
  0
VERTEX
  5
12B
  8
LAYER_01
 10
3283.27004192749
 20
579.7675171620949
 30
0.0
 42
-0.1828115962155405
  0
VERTEX
  5
12C
  8
LAYER_01
 10
3327.128702313936
 20
532.4654031467841
 30
0.0
 42
0.4191699857856658
  0
SEQEND
  5
12D
  8
LAYER_01
  0
POLYLINE
  5
12E
  8
LAYER_01
 66
     1
 10
0.0
 20
0.0
 30
0.0
 70
     1
  0
VERTEX
  5
12F
  8
LAYER_01
 10
3192.665403903301
 20
798.5064630940122
 30
0.0
 42
0.2555679265989438
  0
VERTEX
  5
130
  8
LAYER_01
 10
3177.301095959699
 20
884.6257035620696
 30
0.0
 42
0.4792508908386469
  0
VERTEX
  5
131
  8
LAYER_01
 10
3137.490192691864
 20
884.625703618747
 30
0.0
 42
0.2555679268113191
  0
VERTEX
  5
132
  8
LAYER_01
 10
3122.125884702721
 20
798.5064630940124
 30
0.0
 42
-0.4662001085580554
  0
SEQEND
  5
133
  8
LAYER_01
  0
POLYLINE
  5
134
  8
LAYER_01
 66
     1
 10
0.0
 20
0.0
 30
0.0
  0
VERTEX
  5
135
  8
LAYER_01
 10
3406.740457685946
 20
686.0627218743352
 30
0.0
 42
0.0502171185719879
  0
VERTEX
  5
136
  8
LAYER_01
 10
3399.967796988626
 20
692.7268933055271
 30
0.0
 42
0.2652468269286836
  0
VERTEX
  5
137
  8
LAYER_01
 10
3289.313406637343
 20
710.4050686952187
 30
0.0
 42
0.2315184435541121
  0
VERTEX
  5
138
  8
LAYER_01
 10
3352.601283638212
 20
787.0069164668647
 30
0.0
 42
0.0586356877730905
  0
VERTEX
  5
139
  8
LAYER_01
 10
3360.739293321502
 20
794.0511209075507
 30
0.0
 42
0.4275199993790272
  0
VERTEX
  5
13A
  8
LAYER_01
 10
3406.740457685948
 20
745.9214693708793
 30
0.0
  0
SEQEND
  5
13B
  8
LAYER_01
  0
POLYLINE
  5
13C
  8
LAYER_01
 66
     1
 10
0.0
 20
0.0
 30
0.0
 70
     1
  0
VERTEX
  5
13D
  8
LAYER_01
 10
3081.400219046895
 20
781.6373400426958
 30
0.0
 42
0.1828115962155204
  0
VERTEX
  5
13E
  8
LAYER_01
 10
3034.098105031584
 20
825.4960004291323
 30
0.0
 42
-0.4191699857856704
  0
VERTEX
  5
13F
  8
LAYER_01
 10
2987.662586292082
 20
779.0604816896519
 30
0.0
 42
0.1828115962154911
  0
VERTEX
  5
140
  8
LAYER_01
 10
3031.521246678529
 20
731.7583676743255
 30
0.0
 42
-0.4662001085580949
  0
SEQEND
  5
141
  8
LAYER_01
  0
POLYLINE
  5
142
  8
LAYER_01
 66
     1
 10
0.0
 20
0.0
 30
0.0
 70
     1
  0
VERTEX
  5
143
  8
LAYER_01
 10
3105.435805493395
 20
655.7629424182137
 30
0.0
 42
0.3033467206462164
  0
VERTEX
  5
144
  8
LAYER_01
 10
3096.493980999631
 20
669.1453265191309
 30
0.0
  0
VERTEX
  5
145
  8
LAYER_01
 10
3060.531314705877
 20
684.0415506371014
 30
0.0
 42
1.49660678154824
  0
VERTEX
  5
146
  8
LAYER_01
 10
3060.531314705877
 20
627.4843341993244
 30
0.0
  0
VERTEX
  5
147
  8
LAYER_01
 10
3096.493980999632
 20
642.3805583172948
 30
0.0
 42
0.3033467206462219
  0
SEQEND
  5
148
  8
LAYER_01
  0
POLYLINE
  5
149
  8
LAYER_01
 66
     1
 10
0.0
 20
0.0
 30
0.0
 70
     1
  0
VERTEX
  5
14A
  8
LAYER_01
 10
2928.532883159157
 20
635.8574907615287
 30
0.0
 42
-0.4792508917140159
  0
VERTEX
  5
14B
  8
LAYER_01
 10
2928.532883159157
 20
675.6683940748978
 30
0.0
 42
-0.2555679265989861
  0
VERTEX
  5
14C
  8
LAYER_01
 10
3014.652123627215
 20
691.0327020184973
 30
0.0
 42
0.4662001085580217
  0
VERTEX
  5
14D
  8
LAYER_01
 10
3014.652123627219
 20
620.493182817932
 30
0.0
 42
-0.2555679265989816
  0
SEQEND
  5
14E
  8
LAYER_01
  0
POLYLINE
  5
14F
  8
LAYER_01
 66
     1
 10
0.0
 20
0.0
 30
0.0
 70
     1
  0
VERTEX
  5
150
  8
LAYER_01
 10
3192.665403903301
 20
513.0194217424142
 30
0.0
 42
-0.2555679265989442
  0
VERTEX
  5
151
  8
LAYER_01
 10
3177.3010959597
 20
426.9001812743564
 30
0.0
 42
-0.4792508908386405
  0
VERTEX
  5
152
  8
LAYER_01
 10
3137.490192691864
 20
426.9001812176795
 30
0.0
 42
-0.2555679268113183
  0
VERTEX
  5
153
  8
LAYER_01
 10
3122.125884702721
 20
513.0194217424131
 30
0.0
 42
0.4662001085580403
  0
SEQEND
  5
154
  8
LAYER_01
  0
POLYLINE
  5
155
  8
LAYER_01
 66
     1
 10
0.0
 20
0.0
 30
0.0
  0
VERTEX
  5
156
  8
LAYER_01
 10
3406.740457685946
 20
625.4631629620912
 30
0.0
 42
-0.0502171185719879
  0
VERTEX
  5
157
  8
LAYER_01
 10
3399.967796988625
 20
618.7989915308995
 30
0.0
 42
-0.2652468269286874
  0
VERTEX
  5
158
  8
LAYER_01
 10
3289.313406637344
 20
601.1208161412067
 30
0.0
 42
-0.2315184435540927
  0
VERTEX
  5
159
  8
LAYER_01
 10
3352.601283638212
 20
524.518968369561
 30
0.0
 42
-0.05863568777311
  0
VERTEX
  5
15A
  8
LAYER_01
 10
3360.739293321503
 20
517.4747639288759
 30
0.0
 42
-0.4275199993790137
  0
VERTEX
  5
15B
  8
LAYER_01
 10
3406.740457685948
 20
565.6044154655474
 30
0.0
  0
SEQEND
  5
15C
  8
LAYER_01
  0
POLYLINE
  5
15D
  8
LAYER_01
 66
     1
 10
0.0
 20
0.0
 30
0.0
 70
     1
  0
VERTEX
  5
15E
  8
LAYER_01
 10
3081.400219046895
 20
529.8885447937298
 30
0.0
 42
-0.1828115962155247
  0
VERTEX
  5
15F
  8
LAYER_01
 10
3034.098105031584
 20
486.0298844072925
 30
0.0
 42
0.4191699857856956
  0
VERTEX
  5
160
  8
LAYER_01
 10
2987.662586292082
 20
532.4654031467772
 30
0.0
 42
-0.1828115962154749
  0
VERTEX
  5
161
  8
LAYER_01
 10
3031.521246678529
 20
579.767517162101
 30
0.0
 42
0.4662001085580946
  0
SEQEND
  5
162
  8
LAYER_01
  0
POLYLINE
  5
163
  8
LAYER_01
 66
     1
 10
0.0
 20
0.0
 30
0.0
  0
VERTEX
  5
164
  8
LAYER_01
 10
3247.55417125568
 20
905.1077558011482
 30
0.0
 42
0.4275199871845872
  0
VERTEX
  5
165
  8
LAYER_01
 10
3295.68382279235
 20
859.1065914367027
 30
0.0
 42
0.0586356868552282
  0
VERTEX
  5
166
  8
LAYER_01
 10
3288.639618391441
 20
850.9685817617358
 30
0.0
 42
0.231518443603485
  0
VERTEX
  5
167
  8
LAYER_01
 10
3212.037770579651
 20
787.6807047527027
 30
0.0
 42
0.2652468267155222
  0
VERTEX
  5
168
  8
LAYER_01
 10
3194.359595260511
 20
898.3350950164813
 30
0.0
 42
0.0502171191781125
  0
VERTEX
  5
169
  8
LAYER_01
 10
3187.695423761751
 20
905.1077558011458
 30
0.0
  0
SEQEND
  5
16A
  8
LAYER_01
  0
POLYLINE
  5
16B
  8
LAYER_01
 66
     1
 10
0.0
 20
0.0
 30
0.0
  0
VERTEX
  5
16C
  8
LAYER_01
 10
3247.55417125568
 20
406.4181290352782
 30
0.0
 42
-0.4275199871845872
  0
VERTEX
  5
16D
  8
LAYER_01
 10
3295.68382279235
 20
452.4192933997234
 30
0.0
 42
-0.0586356868552616
  0
VERTEX
  5
16E
  8
LAYER_01
 10
3288.63961839144
 20
460.5573030746893
 30
0.0
 42
-0.2315184436034764
  0
VERTEX
  5
16F
  8
LAYER_01
 10
3212.037770579651
 20
523.8451800837232
 30
0.0
 42
-0.265246826715523
  0
VERTEX
  5
170
  8
LAYER_01
 10
3194.359595260511
 20
413.1907898199452
 30
0.0
 42
-0.0502171191781149
  0
VERTEX
  5
171
  8
LAYER_01
 10
3187.695423761751
 20
406.4181290352807
 30
0.0
  0
SEQEND
  5
172
  8
LAYER_01
  0
POLYLINE
  5
173
  8
LAYER_01
 66
     1
 10
0.0
 20
0.0
 30
0.0
  0
VERTEX
  5
174
  8
LAYER_01
 10
3127.09586484689
 20
905.1077558011461
 30
0.0
 42
0.0502171185719851
  0
VERTEX
  5
175
  8
LAYER_01
 10
3120.431693415699
 20
898.335095103826
 30
0.0
 42
0.2652468269286407
  0
VERTEX
  5
176
  8
LAYER_01
 10
3102.753518025996
 20
787.6807047525684
 30
0.0
 42
0.2315184435541441
  0
VERTEX
  5
177
  8
LAYER_01
 10
3026.151670254356
 20
850.9685817534112
 30
0.0
 42
0.0586356877734295
  0
VERTEX
  5
178
  8
LAYER_01
 10
3019.107465813678
 20
859.1065914367028
 30
0.0
 42
0.4275199993790905
  0
VERTEX
  5
179
  8
LAYER_01
 10
3067.237117350347
 20
905.1077558011477
 30
0.0
  0
SEQEND
  5
17A
  8
LAYER_01
  0
POLYLINE
  5
17B
  8
LAYER_01
 66
     1
 10
0.0
 20
0.0
 30
0.0
  0
VERTEX
  5
17C
  8
LAYER_01
 10
3127.09586484689
 20
406.4181290352803
 30
0.0
 42
-0.0502171185719855
  0
VERTEX
  5
17D
  8
LAYER_01
 10
3120.431693415699
 20
413.1907897326004
 30
0.0
 42
-0.2652468269286408
  0
VERTEX
  5
17E
  8
LAYER_01
 10
3102.753518025996
 20
523.8451800838582
 30
0.0
 42
-0.2315184435541545
  0
VERTEX
  5
17F
  8
LAYER_01
 10
3026.151670254357
 20
460.5573030830138
 30
0.0
 42
-0.0586356877733999
  0
VERTEX
  5
180
  8
LAYER_01
 10
3019.107465813678
 20
452.4192933997222
 30
0.0
 42
-0.4275199993790857
  0
VERTEX
  5
181
  8
LAYER_01
 10
3067.237117350346
 20
406.4181290352789
 30
0.0
  0
SEQEND
  5
182
  8
LAYER_01
  0
POLYLINE
  5
183
  8
LAYER_01
 66
     1
 10
0.0
 20
0.0
 30
0.0
  0
VERTEX
  5
184
  8
LAYER_01
 10
2908.050830920075
 20
745.9214693708801
 30
0.0
 42
0.4275199871845097
  0
VERTEX
  5
185
  8
LAYER_01
 10
2954.051995284523
 20
794.0511209075512
 30
0.0
 42
0.058635686855219
  0
VERTEX
  5
186
  8
LAYER_01
 10
2962.190004959486
 20
787.0069165066436
 30
0.0
 42
0.231518443603554
  0
VERTEX
  5
187
  8
LAYER_01
 10
3025.477881968536
 20
710.4050686948458
 30
0.0
 42
0.2652468267155721
  0
VERTEX
  5
188
  8
LAYER_01
 10
2914.823491704744
 20
692.7268933757113
 30
0.0
 42
0.0502171191781219
  0
VERTEX
  5
189
  8
LAYER_01
 10
2908.050830920077
 20
686.0627218769486
 30
0.0
  0
SEQEND
  5
18A
  8
LAYER_01
  0
POLYLINE
  5
18B
  8
LAYER_01
 66
     1
 10
0.0
 20
0.0
 30
0.0
  0
VERTEX
  5
18C
  8
LAYER_01
 10
2908.050830920075
 20
565.6044154655464
 30
0.0
 42
-0.4275199871845097
  0
VERTEX
  5
18D
  8
LAYER_01
 10
2954.051995284523
 20
517.4747639288753
 30
0.0
 42
-0.0586356868552225
  0
VERTEX
  5
18E
  8
LAYER_01
 10
2962.190004959486
 20
524.518968329783
 30
0.0
 42
-0.2315184436035532
  0
VERTEX
  5
18F
  8
LAYER_01
 10
3025.477881968536
 20
601.1208161415809
 30
0.0
 42
-0.2652468267155744
  0
VERTEX
  5
190
  8
LAYER_01
 10
2914.823491704744
 20
618.7989914607153
 30
0.0
 42
-0.0502171191781574
  0
VERTEX
  5
191
  8
LAYER_01
 10
2908.050830920077
 20
625.463162959477
 30
0.0
  0
SEQEND
  5
192
  8
LAYER_01
  0
POLYLINE
  5
193
  8
LAYER_01
 66
     1
 10
0.0
 20
0.0
 30
0.0
 70
     1
  0
VERTEX
  5
194
  8
LAYER_01
 10
3627.806662849991
 20
752.6272720153506
 30
0.0
 42
-1.496606832190097
  0
VERTEX
  5
195
  8
LAYER_01
 10
3684.363878555399
 20
752.6272702472497
 30
0.0
  0
VERTEX
  5
196
  8
LAYER_01
 10
3669.467655147065
 20
716.6646056667266
 30
0.0
 42
-0.6681787345582458
  0
VERTEX
  5
197
  8
LAYER_01
 10
3642.702886967962
 20
716.664605721595
 30
0.0
  0
SEQEND
  5
198
  8
LAYER_01
  0
POLYLINE
  5
199
  8
LAYER_01
 66
     1
 10
0.0
 20
0.0
 30
0.0
 70
     1
  0
VERTEX
  5
19A
  8
LAYER_01
 10
3704.582699748011
 20
744.252362365533
 30
0.0
 42
-1.496606832190102
  0
VERTEX
  5
19B
  8
LAYER_01
 10
3744.574689248099
 20
704.2603703649727
 30
0.0
  0
VERTEX
  5
19C
  8
LAYER_01
 10
3708.612024667573
 20
689.3641469566478
 30
0.0
 42
-0.6681787345582461
  0
VERTEX
  5
19D
  8
LAYER_01
 10
3689.686475630039
 20
708.2896960717771
 30
0.0
  0
SEQEND
  5
19E
  8
LAYER_01
  0
POLYLINE
  5
19F
  8
LAYER_01
 66
     1
 10
0.0
 20
0.0
 30
0.0
 70
     1
  0
VERTEX
  5
1A0
  8
LAYER_01
 10
3567.59585112156
 20
704.260371097344
 30
0.0
 42
-1.49660683219014
  0
VERTEX
  5
1A1
  8
LAYER_01
 10
3607.587843122121
 20
744.2523605974321
 30
0.0
  0
VERTEX
  5
1A2
  8
LAYER_01
 10
3622.484066530444
 20
708.2896960169041
 30
0.0
 42
-0.6681787345583059
  0
VERTEX
  5
1A3
  8
LAYER_01
 10
3603.558517415318
 20
689.3641469793707
 30
0.0
  0
SEQEND
  5
1A4
  8
LAYER_01
  0
POLYLINE
  5
1A5
  8
LAYER_01
 66
     1
 10
0.0
 20
0.0
 30
0.0
 70
     1
  0
VERTEX
  5
1A6
  8
LAYER_01
 10
3495.229877633264
 20
856.6103271220177
 30
0.0
 42
-1.49660683219014
  0
VERTEX
  5
1A7
  8
LAYER_01
 10
3455.237885632703
 20
816.6183376219295
 30
0.0
  0
VERTEX
  5
1A8
  8
LAYER_01
 10
3440.341662224379
 20
852.5810022024565
 30
0.0
 42
-0.6681787345582264
  0
VERTEX
  5
1A9
  8
LAYER_01
 10
3459.267211339508
 20
871.50655123999
 30
0.0
  0
SEQEND
  5
1AA
  8
LAYER_01
  0
POLYLINE
  5
1AB
  8
LAYER_01
 66
     1
 10
0.0
 20
0.0
 30
0.0
 70
     1
  0
VERTEX
  5
1AC
  8
LAYER_01
 10
3856.932655772685
 20
816.6183358538286
 30
0.0
 42
-1.496606832190102
  0
VERTEX
  5
1AD
  8
LAYER_01
 10
3816.940666272597
 20
856.610327854389
 30
0.0
  0
VERTEX
  5
1AE
  8
LAYER_01
 10
3852.903330853122
 20
871.5065512627148
 30
0.0
 42
-0.6681787345582461
  0
VERTEX
  5
1AF
  8
LAYER_01
 10
3871.828879890655
 20
852.5810021475854
 30
0.0
  0
SEQEND
  5
1B0
  8
LAYER_01
  0
POLYLINE
  5
1B1
  8
LAYER_01
 66
     1
 10
0.0
 20
0.0
 30
0.0
  0
VERTEX
  5
1B2
  8
LAYER_01
 10
3545.926744116214
 20
905.107755801149
 30
0.0
 42
-0.5345113582156753
  0
VERTEX
  5
1B3
  8
LAYER_01
 10
3503.604785514982
 20
876.8291483146286
 30
0.0
  0
VERTEX
  5
1B4
  8
LAYER_01
 10
3467.642120934457
 20
891.7253717229609
 30
0.0
 42
-0.3033467195267994
  0
VERTEX
  5
1B5
  8
LAYER_01
 10
3458.700296495563
 20
905.1077558011478
 30
0.0
  0
SEQEND
  5
1B6
  8
LAYER_01
  0
POLYLINE
  5
1B7
  8
LAYER_01
 66
     1
 10
0.0
 20
0.0
 30
0.0
  0
VERTEX
  5
1B8
  8
LAYER_01
 10
3406.740457685946
 20
853.1479169915306
 30
0.0
 42
-0.3033467206462072
  0
VERTEX
  5
1B9
  8
LAYER_01
 10
3420.122841786862
 20
844.2060924977667
 30
0.0
  0
VERTEX
  5
1BA
  8
LAYER_01
 10
3435.019065904833
 20
808.2434262040101
 30
0.0
 42
-0.5345113381187003
  0
VERTEX
  5
1BB
  8
LAYER_01
 10
3406.740457685944
 20
765.9214693708791
 30
0.0
  0
SEQEND
  5
1BC
  8
LAYER_01
  0
POLYLINE
  5
1BD
  8
LAYER_01
 66
     1
 10
0.0
 20
0.0
 30
0.0
  0
VERTEX
  5
1BE
  8
LAYER_01
 10
3436.815602930283
 20
905.1077558011477
 30
0.0
 42
0.1861730095326929
  0
VERTEX
  5
1BF
  8
LAYER_01
 10
3452.846947870332
 20
886.0098222533528
 30
0.0
 42
0.1861730095326294
  0
VERTEX
  5
1C0
  8
LAYER_01
 10
3428.006796833386
 20
883.841416653707
 30
0.0
 42
0.1861730095326926
  0
VERTEX
  5
1C1
  8
LAYER_01
 10
3425.838391233739
 20
859.0012656167594
 30
0.0
 42
0.1861730095326774
  0
VERTEX
  5
1C2
  8
LAYER_01
 10
3406.740457685945
 20
875.0326105568109
 30
0.0
  0
SEQEND
  5
1C3
  8
LAYER_01
  0
POLYLINE
  5
1C4
  8
LAYER_01
 66
     1
 10
0.0
 20
0.0
 30
0.0
  0
VERTEX
  5
1C5
  8
LAYER_01
 10
3905.430084451817
 20
765.9214693708791
 30
0.0
 42
-0.5345113582156878
  0
VERTEX
  5
1C6
  8
LAYER_01
 10
3877.151476965295
 20
808.243427972111
 30
0.0
  0
VERTEX
  5
1C7
  8
LAYER_01
 10
3892.047700373628
 20
844.2060925526363
 30
0.0
 42
-0.303346719526891
  0
VERTEX
  5
1C8
  8
LAYER_01
 10
3905.430084451819
 20
853.1479169915306
 30
0.0
  0
SEQEND
  5
1C9
  8
LAYER_01
  0
POLYLINE
  5
1CA
  8
LAYER_01
 66
     1
 10
0.0
 20
0.0
 30
0.0
  0
VERTEX
  5
1CB
  8
LAYER_01
 10
3853.470245642196
 20
905.1077558011481
 30
0.0
 42
-0.3033467206462268
  0
VERTEX
  5
1CC
  8
LAYER_01
 10
3844.528421148433
 20
891.7253717002299
 30
0.0
  0
VERTEX
  5
1CD
  8
LAYER_01
 10
3808.565754854677
 20
876.8291475822599
 30
0.0
 42
-0.5345113381187196
  0
VERTEX
  5
1CE
  8
LAYER_01
 10
3766.243798021545
 20
905.1077558011478
 30
0.0
  0
SEQEND
  5
1CF
  8
LAYER_01
  0
POLYLINE
  5
1D0
  8
LAYER_01
 66
     1
 10
0.0
 20
0.0
 30
0.0
  0
VERTEX
  5
1D1
  8
LAYER_01
 10
3905.430084451815
 20
875.0326105568105
 30
0.0
 42
0.1861730095326934
  0
VERTEX
  5
1D2
  8
LAYER_01
 10
3886.332150904019
 20
859.001265616761
 30
0.0
 42
0.1861730095326293
  0
VERTEX
  5
1D3
  8
LAYER_01
 10
3884.163745304374
 20
883.8414166537073
 30
0.0
 42
0.1861730095326603
  0
VERTEX
  5
1D4
  8
LAYER_01
 10
3859.323594267425
 20
886.0098222533531
 30
0.0
 42
0.1861730095326684
  0
VERTEX
  5
1D5
  8
LAYER_01
 10
3875.354939207476
 20
905.107755801148
 30
0.0
  0
SEQEND
  5
1D6
  8
LAYER_01
  0
POLYLINE
  5
1D7
  8
LAYER_01
 66
     1
 10
0.0
 20
0.0
 30
0.0
 70
     1
  0
VERTEX
  5
1D8
  8
LAYER_01
 10
3627.806662849991
 20
558.898612821075
 30
0.0
 42
1.496606832190097
  0
VERTEX
  5
1D9
  8
LAYER_01
 10
3684.363878555399
 20
558.8986145891758
 30
0.0
  0
VERTEX
  5
1DA
  8
LAYER_01
 10
3669.467655147065
 20
594.8612791696997
 30
0.0
 42
0.6681787345582512
  0
VERTEX
  5
1DB
  8
LAYER_01
 10
3642.702886967962
 20
594.8612791148315
 30
0.0
  0
SEQEND
  5
1DC
  8
LAYER_01
  0
POLYLINE
  5
1DD
  8
LAYER_01
 66
     1
 10
0.0
 20
0.0
 30
0.0
 70
     1
  0
VERTEX
  5
1DE
  8
LAYER_01
 10
3704.582699748011
 20
567.2735224708925
 30
0.0
 42
1.496606832190102
  0
VERTEX
  5
1DF
  8
LAYER_01
 10
3744.574689248099
 20
607.2655144714529
 30
0.0
  0
VERTEX
  5
1E0
  8
LAYER_01
 10
3708.612024667573
 20
622.1617378797787
 30
0.0
 42
0.6681787345582461
  0
VERTEX
  5
1E1
  8
LAYER_01
 10
3689.686475630039
 20
603.2361887646493
 30
0.0
  0
SEQEND
  5
1E2
  8
LAYER_01
  0
POLYLINE
  5
1E3
  8
LAYER_01
 66
     1
 10
0.0
 20
0.0
 30
0.0
 70
     1
  0
VERTEX
  5
1E4
  8
LAYER_01
 10
3567.59585112156
 20
607.2655137390816
 30
0.0
 42
1.49660683219014
  0
VERTEX
  5
1E5
  8
LAYER_01
 10
3607.587843122121
 20
567.2735242389934
 30
0.0
  0
VERTEX
  5
1E6
  8
LAYER_01
 10
3622.484066530444
 20
603.2361888195222
 30
0.0
 42
0.6681787345582842
  0
VERTEX
  5
1E7
  8
LAYER_01
 10
3603.558517415318
 20
622.1617378570548
 30
0.0
  0
SEQEND
  5
1E8
  8
LAYER_01
  0
POLYLINE
  5
1E9
  8
LAYER_01
 66
     1
 10
0.0
 20
0.0
 30
0.0
 70
     1
  0
VERTEX
  5
1EA
  8
LAYER_01
 10
3495.229877633264
 20
454.915557714408
 30
0.0
 42
1.496606832190138
  0
VERTEX
  5
1EB
  8
LAYER_01
 10
3455.237885632703
 20
494.907547214496
 30
0.0
  0
VERTEX
  5
1EC
  8
LAYER_01
 10
3440.341662224378
 20
458.9448826339702
 30
0.0
 42
0.6681787345582556
  0
VERTEX
  5
1ED
  8
LAYER_01
 10
3459.267211339508
 20
440.0193335964356
 30
0.0
  0
SEQEND
  5
1EE
  8
LAYER_01
  0
POLYLINE
  5
1EF
  8
LAYER_01
 66
     1
 10
0.0
 20
0.0
 30
0.0
 70
     1
  0
VERTEX
  5
1F0
  8
LAYER_01
 10
3856.932655772685
 20
494.9075489825969
 30
0.0
 42
1.496606832190112
  0
VERTEX
  5
1F1
  8
LAYER_01
 10
3816.940666272597
 20
454.9155569820366
 30
0.0
  0
VERTEX
  5
1F2
  8
LAYER_01
 10
3852.903330853122
 20
440.0193335737117
 30
0.0
 42
0.6681787345582461
  0
VERTEX
  5
1F3
  8
LAYER_01
 10
3871.828879890655
 20
458.9448826888411
 30
0.0
  0
SEQEND
  5
1F4
  8
LAYER_01
  0
POLYLINE
  5
1F5
  8
LAYER_01
 66
     1
 10
0.0
 20
0.0
 30
0.0
  0
VERTEX
  5
1F6
  8
LAYER_01
 10
3545.926744116214
 20
406.4181290352765
 30
0.0
 42
0.5345113582156759
  0
VERTEX
  5
1F7
  8
LAYER_01
 10
3503.604785514982
 20
434.696736521797
 30
0.0
  0
VERTEX
  5
1F8
  8
LAYER_01
 10
3467.642120934457
 20
419.8005131134647
 30
0.0
 42
0.3033467195268025
  0
VERTEX
  5
1F9
  8
LAYER_01
 10
3458.700296495563
 20
406.4181290352777
 30
0.0
  0
SEQEND
  5
1FA
  8
LAYER_01
  0
POLYLINE
  5
1FB
  8
LAYER_01
 66
     1
 10
0.0
 20
0.0
 30
0.0
  0
VERTEX
  5
1FC
  8
LAYER_01
 10
3406.740457685946
 20
458.3779678448959
 30
0.0
 42
0.3033467206462043
  0
VERTEX
  5
1FD
  8
LAYER_01
 10
3420.122841786862
 20
467.3197923386598
 30
0.0
  0
VERTEX
  5
1FE
  8
LAYER_01
 10
3435.019065904833
 20
503.2824586324155
 30
0.0
 42
0.5345113381187003
  0
VERTEX
  5
1FF
  8
LAYER_01
 10
3406.740457685944
 20
545.6044154655465
 30
0.0
  0
SEQEND
  5
200
  8
LAYER_01
  0
POLYLINE
  5
201
  8
LAYER_01
 66
     1
 10
0.0
 20
0.0
 30
0.0
  0
VERTEX
  5
202
  8
LAYER_01
 10
3436.815602930283
 20
406.4181290352778
 30
0.0
 42
-0.1861730095326929
  0
VERTEX
  5
203
  8
LAYER_01
 10
3452.846947870332
 20
425.5160625830732
 30
0.0
 42
-0.1861730095326116
  0
VERTEX
  5
204
  8
LAYER_01
 10
3428.006796833386
 20
427.6844681827197
 30
0.0
 42
-0.1861730095326952
  0
VERTEX
  5
205
  8
LAYER_01
 10
3425.838391233739
 20
452.5246192196672
 30
0.0
 42
-0.1861730095326737
  0
VERTEX
  5
206
  8
LAYER_01
 10
3406.740457685945
 20
436.4932742796155
 30
0.0
  0
SEQEND
  5
207
  8
LAYER_01
  0
POLYLINE
  5
208
  8
LAYER_01
 66
     1
 10
0.0
 20
0.0
 30
0.0
  0
VERTEX
  5
209
  8
LAYER_01
 10
3905.430084451817
 20
545.6044154655465
 30
0.0
 42
0.5345113582156878
  0
VERTEX
  5
20A
  8
LAYER_01
 10
3877.151476965295
 20
503.2824568643146
 30
0.0
  0
VERTEX
  5
20B
  8
LAYER_01
 10
3892.047700373628
 20
467.3197922837902
 30
0.0
 42
0.3033467195268871
  0
VERTEX
  5
20C
  8
LAYER_01
 10
3905.430084451819
 20
458.377967844896
 30
0.0
  0
SEQEND
  5
20D
  8
LAYER_01
  0
POLYLINE
  5
20E
  8
LAYER_01
 66
     1
 10
0.0
 20
0.0
 30
0.0
  0
VERTEX
  5
20F
  8
LAYER_01
 10
3853.470245642196
 20
406.4181290352776
 30
0.0
 42
0.3033467206462249
  0
VERTEX
  5
210
  8
LAYER_01
 10
3844.528421148433
 20
419.8005131361957
 30
0.0
  0
VERTEX
  5
211
  8
LAYER_01
 10
3808.565754854677
 20
434.6967372541669
 30
0.0
 42
0.5345113381187084
  0
VERTEX
  5
212
  8
LAYER_01
 10
3766.243798021545
 20
406.4181290352777
 30
0.0
  0
SEQEND
  5
213
  8
LAYER_01
  0
POLYLINE
  5
214
  8
LAYER_01
 66
     1
 10
0.0
 20
0.0
 30
0.0
  0
VERTEX
  5
215
  8
LAYER_01
 10
3905.430084451815
 20
436.4932742796152
 30
0.0
 42
-0.1861730095326937
  0
VERTEX
  5
216
  8
LAYER_01
 10
3886.332150904019
 20
452.5246192196647
 30
0.0
 42
-0.1861730095326279
  0
VERTEX
  5
217
  8
LAYER_01
 10
3884.163745304374
 20
427.6844681827193
 30
0.0
 42
-0.1861730095326804
  0
VERTEX
  5
218
  8
LAYER_01
 10
3859.323594267425
 20
425.5160625830728
 30
0.0
 42
-0.1861730095326696
  0
VERTEX
  5
219
  8
LAYER_01
 10
3875.354939207476
 20
406.4181290352786
 30
0.0
  0
SEQEND
  5
21A
  8
LAYER_01
  0
POLYLINE
  5
21B
  8
LAYER_01
 66
     1
 10
0.0
 20
0.0
 30
0.0
 70
     1
  0
VERTEX
  5
21C
  8
LAYER_01
 10
3595.183607820367
 20
642.3805583400258
 30
0.0
  0
VERTEX
  5
21D
  8
LAYER_01
 10
3559.220943239843
 20
627.4843349316931
 30
0.0
 42
-1.496606882832113
  0
VERTEX
  5
21E
  8
LAYER_01
 10
3559.220943239842
 20
684.0415499047322
 30
0.0
  0
VERTEX
  5
21F
  8
LAYER_01
 10
3595.183607820367
 20
669.1453264963998
 30
0.0
 42
-0.6681787330756054
  0
SEQEND
  5
220
  8
LAYER_01
  0
POLYLINE
  5
221
  8
LAYER_01
 66
     1
 10
0.0
 20
0.0
 30
0.0
 70
     1
  0
VERTEX
  5
222
  8
LAYER_01
 10
3702.191761253267
 20
636.6650088704143
 30
0.0
 42
0.1861730095326553
  0
VERTEX
  5
223
  8
LAYER_01
 10
3677.351610216322
 20
634.4966032707706
 30
0.0
 42
0.1861730095326941
  0
VERTEX
  5
224
  8
LAYER_01
 10
3675.183204616674
 20
609.6564522338252
 30
0.0
 42
0.1861730095326701
  0
VERTEX
  5
225
  8
LAYER_01
 10
3656.085271068881
 20
625.6877971738754
 30
0.0
 42
0.1861730095326894
  0
VERTEX
  5
226
  8
LAYER_01
 10
3636.987337521084
 20
609.6564522338241
 30
0.0
 42
0.186173009532715
  0
VERTEX
  5
227
  8
LAYER_01
 10
3634.818931921439
 20
634.4966032707719
 30
0.0
 42
0.186173009532726
  0
VERTEX
  5
228
  8
LAYER_01
 10
3609.978780884492
 20
636.6650088704175
 30
0.0
 42
0.1861730095326778
  0
VERTEX
  5
229
  8
LAYER_01
 10
3626.010125824542
 20
655.7629424182136
 30
0.0
 42
0.1861730095326854
  0
VERTEX
  5
22A
  8
LAYER_01
 10
3609.978780884492
 20
674.8608759660083
 30
0.0
 42
0.1861730095327431
  0
VERTEX
  5
22B
  8
LAYER_01
 10
3634.818931921438
 20
677.0292815656538
 30
0.0
 42
0.1861730095326998
  0
VERTEX
  5
22C
  8
LAYER_01
 10
3636.987337521085
 20
701.8694326026024
 30
0.0
 42
0.1861730095326785
  0
VERTEX
  5
22D
  8
LAYER_01
 10
3656.085271068879
 20
685.8380876625511
 30
0.0
 42
0.1861730095326888
  0
VERTEX
  5
22E
  8
LAYER_01
 10
3675.183204616675
 20
701.8694326026024
 30
0.0
 42
0.1861730095326921
  0
VERTEX
  5
22F
  8
LAYER_01
 10
3677.351610216321
 20
677.0292815656564
 30
0.0
 42
0.1861730095326786
  0
VERTEX
  5
230
  8
LAYER_01
 10
3702.191761253267
 20
674.8608759660112
 30
0.0
 42
0.1861730095326518
  0
VERTEX
  5
231
  8
LAYER_01
 10
3686.160416313217
 20
655.7629424182134
 30
0.0
 42
0.1861730095326138
  0
SEQEND
  5
232
  8
LAYER_01
  0
POLYLINE
  5
233
  8
LAYER_01
 66
     1
 10
0.0
 20
0.0
 30
0.0
 70
     1
  0
VERTEX
  5
234
  8
LAYER_01
 10
3513.341750393082
 20
691.0327020185052
 30
0.0
 42
0.2555679268113352
  0
VERTEX
  5
235
  8
LAYER_01
 10
3427.222509868348
 20
675.6683940293594
 30
0.0
 42
0.4792508899632837
  0
VERTEX
  5
236
  8
LAYER_01
 10
3427.222509868346
 20
635.8574908070639
 30
0.0
 42
0.2555679268113124
  0
VERTEX
  5
237
  8
LAYER_01
 10
3513.34175039308
 20
620.4931828179219
 30
0.0
 42
-0.4662001085580555
  0
SEQEND
  5
238
  8
LAYER_01
  0
POLYLINE
  5
239
  8
LAYER_01
 66
     1
 10
0.0
 20
0.0
 30
0.0
 70
     1
  0
VERTEX
  5
23A
  8
LAYER_01
 10
3532.787731797441
 20
825.4960004291426
 30
0.0
 42
-0.1828115962155479
  0
VERTEX
  5
23B
  8
LAYER_01
 10
3580.089845812767
 20
781.6373400426966
 30
0.0
 42
0.4662001085581053
  0
VERTEX
  5
23C
  8
LAYER_01
 10
3530.210873444403
 20
731.7583676743318
 30
0.0
 42
-0.1828115962155503
  0
VERTEX
  5
23D
  8
LAYER_01
 10
3486.352213057955
 20
779.0604816896413
 30
0.0
 42
0.4191699857856765
  0
SEQEND
  5
23E
  8
LAYER_01
  0
POLYLINE
  5
23F
  8
LAYER_01
 66
     1
 10
0.0
 20
0.0
 30
0.0
 70
     1
  0
VERTEX
  5
240
  8
LAYER_01
 10
3532.787731797441
 20
486.029884407283
 30
0.0
 42
0.1828115962155475
  0
VERTEX
  5
241
  8
LAYER_01
 10
3580.089845812767
 20
529.8885447937292
 30
0.0
 42
-0.4662001085581201
  0
VERTEX
  5
242
  8
LAYER_01
 10
3530.210873444403
 20
579.7675171620949
 30
0.0
 42
0.1828115962155405
  0
VERTEX
  5
243
  8
LAYER_01
 10
3486.352213057956
 20
532.4654031467845
 30
0.0
 42
-0.4191699857856634
  0
SEQEND
  5
244
  8
LAYER_01
  0
POLYLINE
  5
245
  8
LAYER_01
 66
     1
 10
0.0
 20
0.0
 30
0.0
 70
     1
  0
VERTEX
  5
246
  8
LAYER_01
 10
3620.815511468592
 20
798.5064630940122
 30
0.0
 42
-0.2555679265989438
  0
VERTEX
  5
247
  8
LAYER_01
 10
3636.179819412193
 20
884.6257035620696
 30
0.0
 42
-0.4792508908386469
  0
VERTEX
  5
248
  8
LAYER_01
 10
3675.990722680029
 20
884.625703618747
 30
0.0
 42
-0.2555679268113191
  0
VERTEX
  5
249
  8
LAYER_01
 10
3691.355030669172
 20
798.5064630940124
 30
0.0
 42
0.4662001085580554
  0
SEQEND
  5
24A
  8
LAYER_01
  0
POLYLINE
  5
24B
  8
LAYER_01
 66
     1
 10
0.0
 20
0.0
 30
0.0
  0
VERTEX
  5
24C
  8
LAYER_01
 10
3406.740457685947
 20
686.0627218743352
 30
0.0
 42
-0.0502171185719879
  0
VERTEX
  5
24D
  8
LAYER_01
 10
3413.513118383267
 20
692.7268933055268
 30
0.0
 42
-0.2652468269286846
  0
VERTEX
  5
24E
  8
LAYER_01
 10
3524.167508734549
 20
710.4050686952188
 30
0.0
 42
-0.2315184435541126
  0
VERTEX
  5
24F
  8
LAYER_01
 10
3460.87963173368
 20
787.0069164668647
 30
0.0
 42
-0.0586356877730905
  0
VERTEX
  5
250
  8
LAYER_01
 10
3452.74162205039
 20
794.0511209075507
 30
0.0
 42
-0.4275199993790272
  0
VERTEX
  5
251
  8
LAYER_01
 10
3406.740457685945
 20
745.9214693708793
 30
0.0
  0
SEQEND
  5
252
  8
LAYER_01
  0
POLYLINE
  5
253
  8
LAYER_01
 66
     1
 10
0.0
 20
0.0
 30
0.0
 70
     1
  0
VERTEX
  5
254
  8
LAYER_01
 10
3732.080696324998
 20
781.6373400426958
 30
0.0
 42
-0.1828115962155204
  0
VERTEX
  5
255
  8
LAYER_01
 10
3779.382810340308
 20
825.4960004291323
 30
0.0
 42
0.4191699857856704
  0
VERTEX
  5
256
  8
LAYER_01
 10
3825.818329079811
 20
779.0604816896517
 30
0.0
 42
-0.1828115962154914
  0
VERTEX
  5
257
  8
LAYER_01
 10
3781.959668693364
 20
731.7583676743255
 30
0.0
 42
0.4662001085580949
  0
SEQEND
  5
258
  8
LAYER_01
  0
POLYLINE
  5
259
  8
LAYER_01
 66
     1
 10
0.0
 20
0.0
 30
0.0
 70
     1
  0
VERTEX
  5
25A
  8
LAYER_01
 10
3708.045109878498
 20
655.7629424182137
 30
0.0
 42
-0.3033467206462164
  0
VERTEX
  5
25B
  8
LAYER_01
 10
3716.986934372262
 20
669.1453265191309
 30
0.0
  0
VERTEX
  5
25C
  8
LAYER_01
 10
3752.949600666016
 20
684.0415506371014
 30
0.0
 42
-1.496606781548274
  0
VERTEX
  5
25D
  8
LAYER_01
 10
3752.949600666016
 20
627.4843341993244
 30
0.0
  0
VERTEX
  5
25E
  8
LAYER_01
 10
3716.98693437226
 20
642.380558317295
 30
0.0
 42
-0.3033467206462276
  0
SEQEND
  5
25F
  8
LAYER_01
  0
POLYLINE
  5
260
  8
LAYER_01
 66
     1
 10
0.0
 20
0.0
 30
0.0
 70
     1
  0
VERTEX
  5
261
  8
LAYER_01
 10
3884.948032212735
 20
635.8574907615287
 30
0.0
 42
0.4792508917140245
  0
VERTEX
  5
262
  8
LAYER_01
 10
3884.948032212735
 20
675.6683940748982
 30
0.0
 42
0.2555679265989855
  0
VERTEX
  5
263
  8
LAYER_01
 10
3798.828791744677
 20
691.0327020184973
 30
0.0
 42
-0.4662001085580217
  0
VERTEX
  5
264
  8
LAYER_01
 10
3798.828791744674
 20
620.4931828179317
 30
0.0
 42
0.2555679265989809
  0
SEQEND
  5
265
  8
LAYER_01
  0
POLYLINE
  5
266
  8
LAYER_01
 66
     1
 10
0.0
 20
0.0
 30
0.0
 70
     1
  0
VERTEX
  5
267
  8
LAYER_01
 10
3620.815511468592
 20
513.0194217424142
 30
0.0
 42
0.2555679265989442
  0
VERTEX
  5
268
  8
LAYER_01
 10
3636.179819412193
 20
426.9001812743568
 30
0.0
 42
0.4792508908386355
  0
VERTEX
  5
269
  8
LAYER_01
 10
3675.990722680029
 20
426.9001812176795
 30
0.0
 42
0.2555679268113183
  0
VERTEX
  5
26A
  8
LAYER_01
 10
3691.355030669172
 20
513.0194217424131
 30
0.0
 42
-0.4662001085580403
  0
SEQEND
  5
26B
  8
LAYER_01
  0
POLYLINE
  5
26C
  8
LAYER_01
 66
     1
 10
0.0
 20
0.0
 30
0.0
  0
VERTEX
  5
26D
  8
LAYER_01
 10
3406.740457685947
 20
625.4631629620912
 30
0.0
 42
0.0502171185719879
  0
VERTEX
  5
26E
  8
LAYER_01
 10
3413.513118383267
 20
618.7989915308995
 30
0.0
 42
0.2652468269286874
  0
VERTEX
  5
26F
  8
LAYER_01
 10
3524.167508734549
 20
601.1208161412063
 30
0.0
 42
0.2315184435540933
  0
VERTEX
  5
270
  8
LAYER_01
 10
3460.87963173368
 20
524.518968369561
 30
0.0
 42
0.05863568777311
  0
VERTEX
  5
271
  8
LAYER_01
 10
3452.74162205039
 20
517.4747639288757
 30
0.0
 42
0.4275199993790251
  0
VERTEX
  5
272
  8
LAYER_01
 10
3406.740457685945
 20
565.6044154655469
 30
0.0
  0
SEQEND
  5
273
  8
LAYER_01
  0
POLYLINE
  5
274
  8
LAYER_01
 66
     1
 10
0.0
 20
0.0
 30
0.0
 70
     1
  0
VERTEX
  5
275
  8
LAYER_01
 10
3732.080696324998
 20
529.8885447937298
 30
0.0
 42
0.1828115962155247
  0
VERTEX
  5
276
  8
LAYER_01
 10
3779.382810340308
 20
486.0298844072925
 30
0.0
 42
-0.4191699857857029
  0
VERTEX
  5
277
  8
LAYER_01
 10
3825.81832907981
 20
532.4654031467772
 30
0.0
 42
0.1828115962154749
  0
VERTEX
  5
278
  8
LAYER_01
 10
3781.959668693363
 20
579.767517162101
 30
0.0
 42
-0.4662001085580946
  0
SEQEND
  5
279
  8
LAYER_01
  0
POLYLINE
  5
27A
  8
LAYER_01
 66
     1
 10
0.0
 20
0.0
 30
0.0
  0
VERTEX
  5
27B
  8
LAYER_01
 10
3565.926744116213
 20
905.1077558011482
 30
0.0
 42
-0.4275199871845872
  0
VERTEX
  5
27C
  8
LAYER_01
 10
3517.797092579542
 20
859.1065914367027
 30
0.0
 42
-0.0586356868552282
  0
VERTEX
  5
27D
  8
LAYER_01
 10
3524.841296980451
 20
850.9685817617358
 30
0.0
 42
-0.231518443603485
  0
VERTEX
  5
27E
  8
LAYER_01
 10
3601.443144792241
 20
787.6807047527027
 30
0.0
 42
-0.2652468267155222
  0
VERTEX
  5
27F
  8
LAYER_01
 10
3619.121320111381
 20
898.3350950164813
 30
0.0
 42
-0.0502171191781125
  0
VERTEX
  5
280
  8
LAYER_01
 10
3625.785491610141
 20
905.1077558011458
 30
0.0
  0
SEQEND
  5
281
  8
LAYER_01
  0
POLYLINE
  5
282
  8
LAYER_01
 66
     1
 10
0.0
 20
0.0
 30
0.0
  0
VERTEX
  5
283
  8
LAYER_01
 10
3565.926744116213
 20
406.4181290352782
 30
0.0
 42
0.4275199871845872
  0
VERTEX
  5
284
  8
LAYER_01
 10
3517.797092579542
 20
452.4192933997236
 30
0.0
 42
0.0586356868552665
  0
VERTEX
  5
285
  8
LAYER_01
 10
3524.841296980452
 20
460.5573030746893
 30
0.0
 42
0.2315184436034764
  0
VERTEX
  5
286
  8
LAYER_01
 10
3601.443144792241
 20
523.8451800837232
 30
0.0
 42
0.265246826715523
  0
VERTEX
  5
287
  8
LAYER_01
 10
3619.121320111381
 20
413.1907898199452
 30
0.0
 42
0.0502171191781149
  0
VERTEX
  5
288
  8
LAYER_01
 10
3625.785491610141
 20
406.4181290352807
 30
0.0
  0
SEQEND
  5
289
  8
LAYER_01
  0
POLYLINE
  5
28A
  8
LAYER_01
 66
     1
 10
0.0
 20
0.0
 30
0.0
  0
VERTEX
  5
28B
  8
LAYER_01
 10
3686.385050525002
 20
905.1077558011461
 30
0.0
 42
-0.0502171185719851
  0
VERTEX
  5
28C
  8
LAYER_01
 10
3693.049221956194
 20
898.335095103826
 30
0.0
 42
-0.2652468269286407
  0
VERTEX
  5
28D
  8
LAYER_01
 10
3710.727397345896
 20
787.6807047525684
 30
0.0
 42
-0.2315184435541441
  0
VERTEX
  5
28E
  8
LAYER_01
 10
3787.329245117537
 20
850.9685817534112
 30
0.0
 42
-0.0586356877734295
  0
VERTEX
  5
28F
  8
LAYER_01
 10
3794.373449558215
 20
859.1065914367036
 30
0.0
 42
-0.427519999379093
  0
VERTEX
  5
290
  8
LAYER_01
 10
3746.243798021547
 20
905.1077558011476
 30
0.0
  0
SEQEND
  5
291
  8
LAYER_01
  0
POLYLINE
  5
292
  8
LAYER_01
 66
     1
 10
0.0
 20
0.0
 30
0.0
  0
VERTEX
  5
293
  8
LAYER_01
 10
3686.385050525002
 20
406.4181290352803
 30
0.0
 42
0.0502171185719855
  0
VERTEX
  5
294
  8
LAYER_01
 10
3693.049221956194
 20
413.1907897326004
 30
0.0
 42
0.2652468269286408
  0
VERTEX
  5
295
  8
LAYER_01
 10
3710.727397345897
 20
523.8451800838582
 30
0.0
 42
0.2315184435541545
  0
VERTEX
  5
296
  8
LAYER_01
 10
3787.329245117536
 20
460.5573030830138
 30
0.0
 42
0.0586356877733999
  0
VERTEX
  5
297
  8
LAYER_01
 10
3794.373449558215
 20
452.4192933997221
 30
0.0
 42
0.4275199993790852
  0
VERTEX
  5
298
  8
LAYER_01
 10
3746.243798021546
 20
406.4181290352789
 30
0.0
  0
SEQEND
  5
299
  8
LAYER_01
  0
POLYLINE
  5
29A
  8
LAYER_01
 66
     1
 10
0.0
 20
0.0
 30
0.0
  0
VERTEX
  5
29B
  8
LAYER_01
 10
3905.430084451817
 20
745.9214693708801
 30
0.0
 42
-0.4275199871845097
  0
VERTEX
  5
29C
  8
LAYER_01
 10
3859.42892008737
 20
794.0511209075512
 30
0.0
 42
-0.058635686855219
  0
VERTEX
  5
29D
  8
LAYER_01
 10
3851.290910412406
 20
787.0069165066436
 30
0.0
 42
-0.231518443603554
  0
VERTEX
  5
29E
  8
LAYER_01
 10
3788.003033403357
 20
710.4050686948462
 30
0.0
 42
-0.2652468267155714
  0
VERTEX
  5
29F
  8
LAYER_01
 10
3898.657423667148
 20
692.7268933757113
 30
0.0
 42
-0.0502171191781219
  0
VERTEX
  5
2A0
  8
LAYER_01
 10
3905.430084451815
 20
686.0627218769486
 30
0.0
  0
SEQEND
  5
2A1
  8
LAYER_01
  0
POLYLINE
  5
2A2
  8
LAYER_01
 66
     1
 10
0.0
 20
0.0
 30
0.0
  0
VERTEX
  5
2A3
  8
LAYER_01
 10
3905.430084451817
 20
565.6044154655464
 30
0.0
 42
0.4275199871845097
  0
VERTEX
  5
2A4
  8
LAYER_01
 10
3859.42892008737
 20
517.4747639288754
 30
0.0
 42
0.0586356868552274
  0
VERTEX
  5
2A5
  8
LAYER_01
 10
3851.290910412406
 20
524.5189683297831
 30
0.0
 42
0.2315184436035548
  0
VERTEX
  5
2A6
  8
LAYER_01
 10
3788.003033403357
 20
601.1208161415809
 30
0.0
 42
0.2652468267155744
  0
VERTEX
  5
2A7
  8
LAYER_01
 10
3898.657423667148
 20
618.7989914607153
 30
0.0
 42
0.0502171191781574
  0
VERTEX
  5
2A8
  8
LAYER_01
 10
3905.430084451815
 20
625.463162959477
 30
0.0
  0
SEQEND
  5
2A9
  8
LAYER_01
  0
POLYLINE
  5
2AA
  8
LAYER_01
 66
     1
 10
0.0
 20
0.0
 30
0.0
 70
     1
  0
VERTEX
  5
2AB
  8
LAYER_01
 10
3185.674252521902
 20
1057.588239586942
 30
0.0
 42
-1.496606832190092
  0
VERTEX
  5
2AC
  8
LAYER_01
 10
3129.117036816494
 20
1057.588241355042
 30
0.0
  0
VERTEX
  5
2AD
  8
LAYER_01
 10
3144.013260224827
 20
1093.550905935566
 30
0.0
 42
-0.6681787345582344
  0
VERTEX
  5
2AE
  8
LAYER_01
 10
3170.778028403931
 20
1093.550905880697
 30
0.0
  0
SEQEND
  5
2AF
  8
LAYER_01
  0
POLYLINE
  5
2B0
  8
LAYER_01
 66
     1
 10
0.0
 20
0.0
 30
0.0
 70
     1
  0
VERTEX
  5
2B1
  8
LAYER_01
 10
3108.898215623882
 20
1065.963149236759
 30
0.0
 42
-1.496606832190102
  0
VERTEX
  5
2B2
  8
LAYER_01
 10
3068.906226123794
 20
1105.955141237319
 30
0.0
  0
VERTEX
  5
2B3
  8
LAYER_01
 10
3104.86889070432
 20
1120.851364645645
 30
0.0
 42
-0.6681787345582532
  0
VERTEX
  5
2B4
  8
LAYER_01
 10
3123.794439741853
 20
1101.925815530515
 30
0.0
  0
SEQEND
  5
2B5
  8
LAYER_01
  0
POLYLINE
  5
2B6
  8
LAYER_01
 66
     1
 10
0.0
 20
0.0
 30
0.0
 70
     1
  0
VERTEX
  5
2B7
  8
LAYER_01
 10
3245.885064250332
 20
1105.955140504948
 30
0.0
 42
-1.496606832190147
  0
VERTEX
  5
2B8
  8
LAYER_01
 10
3205.893072249772
 20
1065.96315100486
 30
0.0
  0
VERTEX
  5
2B9
  8
LAYER_01
 10
3190.996848841449
 20
1101.925815585388
 30
0.0
 42
-0.6681787345583005
  0
VERTEX
  5
2BA
  8
LAYER_01
 10
3209.922397956575
 20
1120.851364622921
 30
0.0
  0
SEQEND
  5
2BB
  8
LAYER_01
  0
POLYLINE
  5
2BC
  8
LAYER_01
 66
     1
 10
0.0
 20
0.0
 30
0.0
 70
     1
  0
VERTEX
  5
2BD
  8
LAYER_01
 10
3318.251037738629
 20
953.6051844802746
 30
0.0
 42
-1.49660683219014
  0
VERTEX
  5
2BE
  8
LAYER_01
 10
3358.243029739189
 20
993.5971739803628
 30
0.0
  0
VERTEX
  5
2BF
  8
LAYER_01
 10
3373.139253147514
 20
957.6345093998358
 30
0.0
 42
-0.6681787345582264
  0
VERTEX
  5
2C0
  8
LAYER_01
 10
3354.213704032385
 20
938.7089603623023
 30
0.0
  0
SEQEND
  5
2C1
  8
LAYER_01
  0
POLYLINE
  5
2C2
  8
LAYER_01
 66
     1
 10
0.0
 20
0.0
 30
0.0
 70
     1
  0
VERTEX
  5
2C3
  8
LAYER_01
 10
2956.548259599207
 20
993.5971757484637
 30
0.0
 42
-1.496606832190102
  0
VERTEX
  5
2C4
  8
LAYER_01
 10
2996.540249099295
 20
953.6051837479033
 30
0.0
  0
VERTEX
  5
2C5
  8
LAYER_01
 10
2960.577584518771
 20
938.7089603395775
 30
0.0
 42
-0.6681787345582461
  0
VERTEX
  5
2C6
  8
LAYER_01
 10
2941.652035481237
 20
957.6345094547069
 30
0.0
  0
SEQEND
  5
2C7
  8
LAYER_01
  0
POLYLINE
  5
2C8
  8
LAYER_01
 66
     1
 10
0.0
 20
0.0
 30
0.0
  0
VERTEX
  5
2C9
  8
LAYER_01
 10
3267.554171255678
 20
905.1077558011433
 30
0.0
 42
-0.5345113582156753
  0
VERTEX
  5
2CA
  8
LAYER_01
 10
3309.87612985691
 20
933.3863632876637
 30
0.0
  0
VERTEX
  5
2CB
  8
LAYER_01
 10
3345.838794437435
 20
918.4901398793314
 30
0.0
 42
-0.3033467195267994
  0
VERTEX
  5
2CC
  8
LAYER_01
 10
3354.78061887633
 20
905.1077558011444
 30
0.0
  0
SEQEND
  5
2CD
  8
LAYER_01
  0
POLYLINE
  5
2CE
  8
LAYER_01
 66
     1
 10
0.0
 20
0.0
 30
0.0
  0
VERTEX
  5
2CF
  8
LAYER_01
 10
3406.740457685946
 20
957.0675946107617
 30
0.0
 42
-0.3033467206462072
  0
VERTEX
  5
2D0
  8
LAYER_01
 10
3393.35807358503
 20
966.0094191045256
 30
0.0
  0
VERTEX
  5
2D1
  8
LAYER_01
 10
3378.461849467059
 20
1001.972085398282
 30
0.0
 42
-0.5345113381187003
  0
VERTEX
  5
2D2
  8
LAYER_01
 10
3406.740457685948
 20
1044.294042231413
 30
0.0
  0
SEQEND
  5
2D3
  8
LAYER_01
  0
POLYLINE
  5
2D4
  8
LAYER_01
 66
     1
 10
0.0
 20
0.0
 30
0.0
  0
VERTEX
  5
2D5
  8
LAYER_01
 10
3376.66531244161
 20
905.1077558011445
 30
0.0
 42
0.1861730095326929
  0
VERTEX
  5
2D6
  8
LAYER_01
 10
3360.63396750156
 20
924.20568934894
 30
0.0
 42
0.1861730095326319
  0
VERTEX
  5
2D7
  8
LAYER_01
 10
3385.474118538506
 20
926.3740949485853
 30
0.0
 42
0.1861730095326911
  0
VERTEX
  5
2D8
  8
LAYER_01
 10
3387.642524138153
 20
951.2142459855329
 30
0.0
 42
0.186173009532672
  0
VERTEX
  5
2D9
  8
LAYER_01
 10
3406.740457685947
 20
935.1829010454813
 30
0.0
  0
SEQEND
  5
2DA
  8
LAYER_01
  0
POLYLINE
  5
2DB
  8
LAYER_01
 66
     1
 10
0.0
 20
0.0
 30
0.0
  0
VERTEX
  5
2DC
  8
LAYER_01
 10
2908.050830920075
 20
1044.294042231413
 30
0.0
 42
-0.5345113582156857
  0
VERTEX
  5
2DD
  8
LAYER_01
 10
2936.329438406597
 20
1001.972083630181
 30
0.0
  0
VERTEX
  5
2DE
  8
LAYER_01
 10
2921.433214998264
 20
966.0094190496561
 30
0.0
 42
-0.3033467195268911
  0
VERTEX
  5
2DF
  8
LAYER_01
 10
2908.050830920074
 20
957.0675946107617
 30
0.0
  0
SEQEND
  5
2E0
  8
LAYER_01
  0
POLYLINE
  5
2E1
  8
LAYER_01
 66
     1
 10
0.0
 20
0.0
 30
0.0
  0
VERTEX
  5
2E2
  8
LAYER_01
 10
2960.010669729696
 20
905.1077558011442
 30
0.0
 42
-0.3033467206462268
  0
VERTEX
  5
2E3
  8
LAYER_01
 10
2968.95249422346
 20
918.4901399020624
 30
0.0
  0
VERTEX
  5
2E4
  8
LAYER_01
 10
3004.915160517216
 20
933.3863640200321
 30
0.0
 42
-0.5345113381187112
  0
VERTEX
  5
2E5
  8
LAYER_01
 10
3047.237117350347
 20
905.1077558011444
 30
0.0
  0
SEQEND
  5
2E6
  8
LAYER_01
  0
POLYLINE
  5
2E7
  8
LAYER_01
 66
     1
 10
0.0
 20
0.0
 30
0.0
  0
VERTEX
  5
2E8
  8
LAYER_01
 10
2908.050830920078
 20
935.1829010454818
 30
0.0
 42
0.1861730095326934
  0
VERTEX
  5
2E9
  8
LAYER_01
 10
2927.148764467873
 20
951.2142459855313
 30
0.0
 42
0.1861730095326287
  0
VERTEX
  5
2EA
  8
LAYER_01
 10
2929.317170067519
 20
926.3740949485853
 30
0.0
 42
0.1861730095326606
  0
VERTEX
  5
2EB
  8
LAYER_01
 10
2954.157321104468
 20
924.2056893489392
 30
0.0
 42
0.1861730095326679
  0
VERTEX
  5
2EC
  8
LAYER_01
 10
2938.125976164416
 20
905.1077558011443
 30
0.0
  0
SEQEND
  5
2ED
  8
LAYER_01
  0
POLYLINE
  5
2EE
  8
LAYER_01
 66
     1
 10
0.0
 20
0.0
 30
0.0
 70
     1
  0
VERTEX
  5
2EF
  8
LAYER_01
 10
3185.674252521902
 20
1251.316898781217
 30
0.0
 42
1.496606832190092
  0
VERTEX
  5
2F0
  8
LAYER_01
 10
3129.117036816494
 20
1251.316897013117
 30
0.0
  0
VERTEX
  5
2F1
  8
LAYER_01
 10
3144.013260224827
 20
1215.354232432592
 30
0.0
 42
0.6681787345582242
  0
VERTEX
  5
2F2
  8
LAYER_01
 10
3170.778028403931
 20
1215.354232487461
 30
0.0
  0
SEQEND
  5
2F3
  8
LAYER_01
  0
POLYLINE
  5
2F4
  8
LAYER_01
 66
     1
 10
0.0
 20
0.0
 30
0.0
 70
     1
  0
VERTEX
  5
2F5
  8
LAYER_01
 10
3108.898215623882
 20
1242.9419891314
 30
0.0
 42
1.496606832190102
  0
VERTEX
  5
2F6
  8
LAYER_01
 10
3068.906226123794
 20
1202.94999713084
 30
0.0
  0
VERTEX
  5
2F7
  8
LAYER_01
 10
3104.86889070432
 20
1188.053773722514
 30
0.0
 42
0.6681787345582391
  0
VERTEX
  5
2F8
  8
LAYER_01
 10
3123.794439741853
 20
1206.979322837643
 30
0.0
  0
SEQEND
  5
2F9
  8
LAYER_01
  0
POLYLINE
  5
2FA
  8
LAYER_01
 66
     1
 10
0.0
 20
0.0
 30
0.0
 70
     1
  0
VERTEX
  5
2FB
  8
LAYER_01
 10
3245.885064250332
 20
1202.949997863211
 30
0.0
 42
1.496606832190147
  0
VERTEX
  5
2FC
  8
LAYER_01
 10
3205.893072249772
 20
1242.941987363299
 30
0.0
  0
VERTEX
  5
2FD
  8
LAYER_01
 10
3190.996848841449
 20
1206.97932278277
 30
0.0
 42
0.6681787345582875
  0
VERTEX
  5
2FE
  8
LAYER_01
 10
3209.922397956575
 20
1188.053773745238
 30
0.0
  0
SEQEND
  5
2FF
  8
LAYER_01
  0
POLYLINE
  5
300
  8
LAYER_01
 66
     1
 10
0.0
 20
0.0
 30
0.0
 70
     1
  0
VERTEX
  5
301
  8
LAYER_01
 10
3318.251037738629
 20
1355.299953887884
 30
0.0
 42
1.496606832190147
  0
VERTEX
  5
302
  8
LAYER_01
 10
3358.243029739189
 20
1315.307964387796
 30
0.0
  0
VERTEX
  5
303
  8
LAYER_01
 10
3373.139253147514
 20
1351.270628968323
 30
0.0
 42
0.6681787345582438
  0
VERTEX
  5
304
  8
LAYER_01
 10
3354.213704032385
 20
1370.196178005857
 30
0.0
  0
SEQEND
  5
305
  8
LAYER_01
  0
POLYLINE
  5
306
  8
LAYER_01
 66
     1
 10
0.0
 20
0.0
 30
0.0
 70
     1
  0
VERTEX
  5
307
  8
LAYER_01
 10
2956.548259599207
 20
1315.307962619695
 30
0.0
 42
1.496606832190102
  0
VERTEX
  5
308
  8
LAYER_01
 10
2996.540249099295
 20
1355.299954620255
 30
0.0
  0
VERTEX
  5
309
  8
LAYER_01
 10
2960.577584518771
 20
1370.196178028581
 30
0.0
 42
0.6681787345582391
  0
VERTEX
  5
30A
  8
LAYER_01
 10
2941.652035481237
 20
1351.270628913451
 30
0.0
  0
SEQEND
  5
30B
  8
LAYER_01
  0
POLYLINE
  5
30C
  8
LAYER_01
 66
     1
 10
0.0
 20
0.0
 30
0.0
  0
VERTEX
  5
30D
  8
LAYER_01
 10
3267.554171255678
 20
1403.797382567016
 30
0.0
 42
0.5345113582156743
  0
VERTEX
  5
30E
  8
LAYER_01
 10
3309.87612985691
 20
1375.518775080496
 30
0.0
  0
VERTEX
  5
30F
  8
LAYER_01
 10
3345.838794437435
 20
1390.414998488828
 30
0.0
 42
0.3033467195268005
  0
VERTEX
  5
310
  8
LAYER_01
 10
3354.78061887633
 20
1403.797382567015
 30
0.0
  0
SEQEND
  5
311
  8
LAYER_01
  0
POLYLINE
  5
312
  8
LAYER_01
 66
     1
 10
0.0
 20
0.0
 30
0.0
  0
VERTEX
  5
313
  8
LAYER_01
 10
3406.740457685946
 20
1351.837543757396
 30
0.0
 42
0.3033467206462013
  0
VERTEX
  5
314
  8
LAYER_01
 10
3393.35807358503
 20
1342.895719263632
 30
0.0
  0
VERTEX
  5
315
  8
LAYER_01
 10
3378.461849467059
 20
1306.933052969877
 30
0.0
 42
0.5345113381187003
  0
VERTEX
  5
316
  8
LAYER_01
 10
3406.740457685948
 20
1264.611096136746
 30
0.0
  0
SEQEND
  5
317
  8
LAYER_01
  0
POLYLINE
  5
318
  8
LAYER_01
 66
     1
 10
0.0
 20
0.0
 30
0.0
  0
VERTEX
  5
319
  8
LAYER_01
 10
3376.66531244161
 20
1403.797382567014
 30
0.0
 42
-0.1861730095326929
  0
VERTEX
  5
31A
  8
LAYER_01
 10
3360.63396750156
 20
1384.699449019219
 30
0.0
 42
-0.1861730095326108
  0
VERTEX
  5
31B
  8
LAYER_01
 10
3385.474118538506
 20
1382.531043419573
 30
0.0
 42
-0.1861730095326961
  0
VERTEX
  5
31C
  8
LAYER_01
 10
3387.642524138153
 20
1357.690892382625
 30
0.0
 42
-0.1861730095326778
  0
VERTEX
  5
31D
  8
LAYER_01
 10
3406.740457685947
 20
1373.722237322677
 30
0.0
  0
SEQEND
  5
31E
  8
LAYER_01
  0
POLYLINE
  5
31F
  8
LAYER_01
 66
     1
 10
0.0
 20
0.0
 30
0.0
  0
VERTEX
  5
320
  8
LAYER_01
 10
2908.050830920075
 20
1264.611096136746
 30
0.0
 42
0.5345113582156837
  0
VERTEX
  5
321
  8
LAYER_01
 10
2936.329438406597
 20
1306.933054737977
 30
0.0
  0
VERTEX
  5
322
  8
LAYER_01
 10
2921.433214998264
 20
1342.895719318502
 30
0.0
 42
0.303346719526891
  0
VERTEX
  5
323
  8
LAYER_01
 10
2908.050830920074
 20
1351.837543757396
 30
0.0
  0
SEQEND
  5
324
  8
LAYER_01
  0
POLYLINE
  5
325
  8
LAYER_01
 66
     1
 10
0.0
 20
0.0
 30
0.0
  0
VERTEX
  5
326
  8
LAYER_01
 10
2960.010669729696
 20
1403.797382567015
 30
0.0
 42
0.3033467206462261
  0
VERTEX
  5
327
  8
LAYER_01
 10
2968.95249422346
 20
1390.414998466097
 30
0.0
  0
VERTEX
  5
328
  8
LAYER_01
 10
3004.915160517216
 20
1375.518774348126
 30
0.0
 42
0.5345113381187082
  0
VERTEX
  5
329
  8
LAYER_01
 10
3047.237117350347
 20
1403.797382567014
 30
0.0
  0
SEQEND
  5
32A
  8
LAYER_01
  0
POLYLINE
  5
32B
  8
LAYER_01
 66
     1
 10
0.0
 20
0.0
 30
0.0
  0
VERTEX
  5
32C
  8
LAYER_01
 10
2908.050830920078
 20
1373.722237322677
 30
0.0
 42
-0.186173009532694
  0
VERTEX
  5
32D
  8
LAYER_01
 10
2927.148764467873
 20
1357.690892382628
 30
0.0
 42
-0.1861730095326264
  0
VERTEX
  5
32E
  8
LAYER_01
 10
2929.317170067519
 20
1382.531043419573
 30
0.0
 42
-0.1861730095326794
  0
VERTEX
  5
32F
  8
LAYER_01
 10
2954.157321104467
 20
1384.69944901922
 30
0.0
 42
-0.1861730095326685
  0
VERTEX
  5
330
  8
LAYER_01
 10
2938.125976164416
 20
1403.797382567014
 30
0.0
  0
SEQEND
  5
331
  8
LAYER_01
  0
POLYLINE
  5
332
  8
LAYER_01
 66
     1
 10
0.0
 20
0.0
 30
0.0
 70
     1
  0
VERTEX
  5
333
  8
LAYER_01
 10
3218.297307551526
 20
1167.834953262266
 30
0.0
  0
VERTEX
  5
334
  8
LAYER_01
 10
3254.259972132049
 20
1182.7311766706
 30
0.0
 42
-1.496606882832108
  0
VERTEX
  5
335
  8
LAYER_01
 10
3254.259972132051
 20
1126.17396169756
 30
0.0
  0
VERTEX
  5
336
  8
LAYER_01
 10
3218.297307551526
 20
1141.070185105892
 30
0.0
 42
-0.6681787330756334
  0
SEQEND
  5
337
  8
LAYER_01
  0
POLYLINE
  5
338
  8
LAYER_01
 66
     1
 10
0.0
 20
0.0
 30
0.0
 70
     1
  0
VERTEX
  5
339
  8
LAYER_01
 10
3111.289154118625
 20
1173.550502731878
 30
0.0
 42
0.1861730095326553
  0
VERTEX
  5
33A
  8
LAYER_01
 10
3136.129305155571
 20
1175.718908331522
 30
0.0
 42
0.1861730095326988
  0
VERTEX
  5
33B
  8
LAYER_01
 10
3138.297710755218
 20
1200.559059368467
 30
0.0
 42
0.1861730095326685
  0
VERTEX
  5
33C
  8
LAYER_01
 10
3157.395644303012
 20
1184.527714428417
 30
0.0
 42
0.1861730095326903
  0
VERTEX
  5
33D
  8
LAYER_01
 10
3176.493577850808
 20
1200.559059368468
 30
0.0
 42
0.1861730095327119
  0
VERTEX
  5
33E
  8
LAYER_01
 10
3178.661983450454
 20
1175.71890833152
 30
0.0
 42
0.1861730095327249
  0
VERTEX
  5
33F
  8
LAYER_01
 10
3203.5021344874
 20
1173.550502731875
 30
0.0
 42
0.1861730095326753
  0
VERTEX
  5
340
  8
LAYER_01
 10
3187.470789547351
 20
1154.452569184079
 30
0.0
 42
0.1861730095326874
  0
VERTEX
  5
341
  8
LAYER_01
 10
3203.502134487401
 20
1135.354635636284
 30
0.0
 42
0.186173009532742
  0
VERTEX
  5
342
  8
LAYER_01
 10
3178.661983450454
 20
1133.186230036638
 30
0.0
 42
0.1861730095326993
  0
VERTEX
  5
343
  8
LAYER_01
 10
3176.493577850807
 20
1108.34607899969
 30
0.0
 42
0.1861730095326833
  0
VERTEX
  5
344
  8
LAYER_01
 10
3157.395644303014
 20
1124.377423939741
 30
0.0
 42
0.1861730095326907
  0
VERTEX
  5
345
  8
LAYER_01
 10
3138.297710755217
 20
1108.34607899969
 30
0.0
 42
0.1861730095326946
  0
VERTEX
  5
346
  8
LAYER_01
 10
3136.129305155572
 20
1133.186230036635
 30
0.0
 42
0.186173009532687
  0
VERTEX
  5
347
  8
LAYER_01
 10
3111.289154118625
 20
1135.354635636281
 30
0.0
 42
0.1861730095326528
  0
VERTEX
  5
348
  8
LAYER_01
 10
3127.320499058676
 20
1154.452569184079
 30
0.0
 42
0.1861730095326098
  0
SEQEND
  5
349
  8
LAYER_01
  0
POLYLINE
  5
34A
  8
LAYER_01
 66
     1
 10
0.0
 20
0.0
 30
0.0
 70
     1
  0
VERTEX
  5
34B
  8
LAYER_01
 10
3300.13916497881
 20
1119.182809583787
 30
0.0
 42
0.2555679268113352
  0
VERTEX
  5
34C
  8
LAYER_01
 10
3386.258405503544
 20
1134.547117572933
 30
0.0
 42
0.4792508899633234
  0
VERTEX
  5
34D
  8
LAYER_01
 10
3386.258405503547
 20
1174.358020795229
 30
0.0
 42
0.2555679268113104
  0
VERTEX
  5
34E
  8
LAYER_01
 10
3300.139164978812
 20
1189.72232878437
 30
0.0
 42
-0.4662001085580123
  0
SEQEND
  5
34F
  8
LAYER_01
  0
POLYLINE
  5
350
  8
LAYER_01
 66
     1
 10
0.0
 20
0.0
 30
0.0
 70
     1
  0
VERTEX
  5
351
  8
LAYER_01
 10
3280.693183574451
 20
984.7195111731497
 30
0.0
 42
-0.1828115962155479
  0
VERTEX
  5
352
  8
LAYER_01
 10
3233.391069559126
 20
1028.578171559596
 30
0.0
 42
0.466200108558105
  0
VERTEX
  5
353
  8
LAYER_01
 10
3283.270041927489
 20
1078.45714392796
 30
0.0
 42
-0.1828115962155487
  0
VERTEX
  5
354
  8
LAYER_01
 10
3327.128702313938
 20
1031.155029912651
 30
0.0
 42
0.4191699857856792
  0
SEQEND
  5
355
  8
LAYER_01
  0
POLYLINE
  5
356
  8
LAYER_01
 66
     1
 10
0.0
 20
0.0
 30
0.0
 70
     1
  0
VERTEX
  5
357
  8
LAYER_01
 10
3280.693183574451
 20
1324.185627195009
 30
0.0
 42
0.1828115962155477
  0
VERTEX
  5
358
  8
LAYER_01
 10
3233.391069559126
 20
1280.326966808563
 30
0.0
 42
-0.4662001085581247
  0
VERTEX
  5
359
  8
LAYER_01
 10
3283.270041927489
 20
1230.447994440198
 30
0.0
 42
0.1828115962155435
  0
VERTEX
  5
35A
  8
LAYER_01
 10
3327.128702313937
 20
1277.750108455508
 30
0.0
 42
-0.4191699857856701
  0
SEQEND
  5
35B
  8
LAYER_01
  0
POLYLINE
  5
35C
  8
LAYER_01
 66
     1
 10
0.0
 20
0.0
 30
0.0
 70
     1
  0
VERTEX
  5
35D
  8
LAYER_01
 10
3192.665403903301
 20
1011.70904850828
 30
0.0
 42
-0.2555679265989438
  0
VERTEX
  5
35E
  8
LAYER_01
 10
3177.3010959597
 20
925.5898080402227
 30
0.0
 42
-0.4792508908386386
  0
VERTEX
  5
35F
  8
LAYER_01
 10
3137.490192691864
 20
925.5898079835453
 30
0.0
 42
-0.255567926811319
  0
VERTEX
  5
360
  8
LAYER_01
 10
3122.125884702721
 20
1011.70904850828
 30
0.0
 42
0.4662001085580554
  0
SEQEND
  5
361
  8
LAYER_01
  0
POLYLINE
  5
362
  8
LAYER_01
 66
     1
 10
0.0
 20
0.0
 30
0.0
  0
VERTEX
  5
363
  8
LAYER_01
 10
3406.740457685946
 20
1124.152789727957
 30
0.0
 42
-0.0502171185719871
  0
VERTEX
  5
364
  8
LAYER_01
 10
3399.967796988625
 20
1117.488618296765
 30
0.0
 42
-0.2652468269286863
  0
VERTEX
  5
365
  8
LAYER_01
 10
3289.313406637343
 20
1099.810442907073
 30
0.0
 42
-0.2315184435541132
  0
VERTEX
  5
366
  8
LAYER_01
 10
3352.601283638212
 20
1023.208595135428
 30
0.0
 42
-0.0586356877730917
  0
VERTEX
  5
367
  8
LAYER_01
 10
3360.739293321503
 20
1016.164390694742
 30
0.0
 42
-0.4275199993790245
  0
VERTEX
  5
368
  8
LAYER_01
 10
3406.740457685948
 20
1064.294042231413
 30
0.0
  0
SEQEND
  5
369
  8
LAYER_01
  0
POLYLINE
  5
36A
  8
LAYER_01
 66
     1
 10
0.0
 20
0.0
 30
0.0
 70
     1
  0
VERTEX
  5
36B
  8
LAYER_01
 10
3081.400219046895
 20
1028.578171559597
 30
0.0
 42
-0.1828115962155204
  0
VERTEX
  5
36C
  8
LAYER_01
 10
3034.098105031584
 20
984.71951117316
 30
0.0
 42
0.4191699857856704
  0
VERTEX
  5
36D
  8
LAYER_01
 10
2987.662586292082
 20
1031.15502991264
 30
0.0
 42
-0.1828115962154906
  0
VERTEX
  5
36E
  8
LAYER_01
 10
3031.521246678529
 20
1078.457143927967
 30
0.0
 42
0.4662001085580992
  0
SEQEND
  5
36F
  8
LAYER_01
  0
POLYLINE
  5
370
  8
LAYER_01
 66
     1
 10
0.0
 20
0.0
 30
0.0
 70
     1
  0
VERTEX
  5
371
  8
LAYER_01
 10
3105.435805493395
 20
1154.452569184079
 30
0.0
 42
-0.3033467206462125
  0
VERTEX
  5
372
  8
LAYER_01
 10
3096.493980999631
 20
1141.070185083162
 30
0.0
  0
VERTEX
  5
373
  8
LAYER_01
 10
3060.531314705877
 20
1126.173960965191
 30
0.0
 42
-1.496606781548241
  0
VERTEX
  5
374
  8
LAYER_01
 10
3060.531314705877
 20
1182.731177402968
 30
0.0
  0
VERTEX
  5
375
  8
LAYER_01
 10
3096.493980999632
 20
1167.834953284998
 30
0.0
 42
-0.3033467206462252
  0
SEQEND
  5
376
  8
LAYER_01
  0
POLYLINE
  5
377
  8
LAYER_01
 66
     1
 10
0.0
 20
0.0
 30
0.0
 70
     1
  0
VERTEX
  5
378
  8
LAYER_01
 10
2928.532883159157
 20
1174.358020840764
 30
0.0
 42
0.4792508917139724
  0
VERTEX
  5
379
  8
LAYER_01
 10
2928.532883159158
 20
1134.547117527394
 30
0.0
 42
0.2555679265989865
  0
VERTEX
  5
37A
  8
LAYER_01
 10
3014.652123627215
 20
1119.182809583795
 30
0.0
 42
-0.4662001085580217
  0
VERTEX
  5
37B
  8
LAYER_01
 10
3014.652123627218
 20
1189.722328784361
 30
0.0
 42
0.25556792659898
  0
SEQEND
  5
37C
  8
LAYER_01
  0
POLYLINE
  5
37D
  8
LAYER_01
 66
     1
 10
0.0
 20
0.0
 30
0.0
 70
     1
  0
VERTEX
  5
37E
  8
LAYER_01
 10
3192.665403903301
 20
1297.196089859878
 30
0.0
 42
0.2555679265989438
  0
VERTEX
  5
37F
  8
LAYER_01
 10
3177.3010959597
 20
1383.315330327935
 30
0.0
 42
0.4792508908386398
  0
VERTEX
  5
380
  8
LAYER_01
 10
3137.490192691864
 20
1383.315330384613
 30
0.0
 42
0.2555679268113163
  0
VERTEX
  5
381
  8
LAYER_01
 10
3122.125884702721
 20
1297.196089859879
 30
0.0
 42
-0.4662001085580379
  0
SEQEND
  5
382
  8
LAYER_01
  0
POLYLINE
  5
383
  8
LAYER_01
 66
     1
 10
0.0
 20
0.0
 30
0.0
  0
VERTEX
  5
384
  8
LAYER_01
 10
3406.740457685946
 20
1184.752348640201
 30
0.0
 42
0.0502171185719871
  0
VERTEX
  5
385
  8
LAYER_01
 10
3399.967796988626
 20
1191.416520071393
 30
0.0
 42
0.2652468269286902
  0
VERTEX
  5
386
  8
LAYER_01
 10
3289.313406637344
 20
1209.094695461086
 30
0.0
 42
0.2315184435540897
  0
VERTEX
  5
387
  8
LAYER_01
 10
3352.601283638212
 20
1285.696543232732
 30
0.0
 42
0.0586356877731102
  0
VERTEX
  5
388
  8
LAYER_01
 10
3360.739293321502
 20
1292.740747673417
 30
0.0
 42
0.4275199993789475
  0
VERTEX
  5
389
  8
LAYER_01
 10
3406.740457685947
 20
1244.611096136745
 30
0.0
  0
SEQEND
  5
38A
  8
LAYER_01
  0
POLYLINE
  5
38B
  8
LAYER_01
 66
     1
 10
0.0
 20
0.0
 30
0.0
 70
     1
  0
VERTEX
  5
38C
  8
LAYER_01
 10
3081.400219046895
 20
1280.326966808562
 30
0.0
 42
0.1828115962155246
  0
VERTEX
  5
38D
  8
LAYER_01
 10
3034.098105031584
 20
1324.185627194999
 30
0.0
 42
-0.4191699857856974
  0
VERTEX
  5
38E
  8
LAYER_01
 10
2987.662586292082
 20
1277.750108455515
 30
0.0
 42
0.1828115962154762
  0
VERTEX
  5
38F
  8
LAYER_01
 10
3031.521246678529
 20
1230.447994440191
 30
0.0
 42
-0.4662001085580897
  0
SEQEND
  5
390
  8
LAYER_01
  0
POLYLINE
  5
391
  8
LAYER_01
 66
     1
 10
0.0
 20
0.0
 30
0.0
  0
VERTEX
  5
392
  8
LAYER_01
 10
3247.55417125568
 20
905.1077558011441
 30
0.0
 42
-0.4275199871845872
  0
VERTEX
  5
393
  8
LAYER_01
 10
3295.68382279235
 20
951.1089201655894
 30
0.0
 42
-0.0586356868552295
  0
VERTEX
  5
394
  8
LAYER_01
 10
3288.639618391441
 20
959.2469298405564
 30
0.0
 42
-0.2315184436034812
  0
VERTEX
  5
395
  8
LAYER_01
 10
3212.037770579651
 20
1022.53480684959
 30
0.0
 42
-0.2652468267155228
  0
VERTEX
  5
396
  8
LAYER_01
 10
3194.359595260511
 20
911.880416585811
 30
0.0
 42
-0.050217119178112
  0
VERTEX
  5
397
  8
LAYER_01
 10
3187.695423761751
 20
905.1077558011465
 30
0.0
  0
SEQEND
  5
398
  8
LAYER_01
  0
POLYLINE
  5
399
  8
LAYER_01
 66
     1
 10
0.0
 20
0.0
 30
0.0
  0
VERTEX
  5
39A
  8
LAYER_01
 10
3247.55417125568
 20
1403.797382567014
 30
0.0
 42
0.4275199871846585
  0
VERTEX
  5
39B
  8
LAYER_01
 10
3295.68382279235
 20
1357.796218202569
 30
0.0
 42
0.0586356868552612
  0
VERTEX
  5
39C
  8
LAYER_01
 10
3288.63961839144
 20
1349.658208527603
 30
0.0
 42
0.2315184436034791
  0
VERTEX
  5
39D
  8
LAYER_01
 10
3212.037770579651
 20
1286.370331518569
 30
0.0
 42
0.2652468267155213
  0
VERTEX
  5
39E
  8
LAYER_01
 10
3194.359595260511
 20
1397.024721782347
 30
0.0
 42
0.0502171191781147
  0
VERTEX
  5
39F
  8
LAYER_01
 10
3187.695423761751
 20
1403.797382567011
 30
0.0
  0
SEQEND
  5
3A0
  8
LAYER_01
  0
POLYLINE
  5
3A1
  8
LAYER_01
 66
     1
 10
0.0
 20
0.0
 30
0.0
  0
VERTEX
  5
3A2
  8
LAYER_01
 10
3127.09586484689
 20
905.1077558011461
 30
0.0
 42
-0.0502171185719851
  0
VERTEX
  5
3A3
  8
LAYER_01
 10
3120.431693415699
 20
911.8804164984663
 30
0.0
 42
-0.2652468269286407
  0
VERTEX
  5
3A4
  8
LAYER_01
 10
3102.753518025996
 20
1022.534806849724
 30
0.0
 42
-0.2315184435541441
  0
VERTEX
  5
3A5
  8
LAYER_01
 10
3026.151670254356
 20
959.2469298488811
 30
0.0
 42
-0.0586356877734292
  0
VERTEX
  5
3A6
  8
LAYER_01
 10
3019.107465813678
 20
951.1089201655894
 30
0.0
 42
-0.4275199993790905
  0
VERTEX
  5
3A7
  8
LAYER_01
 10
3067.237117350347
 20
905.1077558011445
 30
0.0
  0
SEQEND
  5
3A8
  8
LAYER_01
  0
POLYLINE
  5
3A9
  8
LAYER_01
 66
     1
 10
0.0
 20
0.0
 30
0.0
  0
VERTEX
  5
3AA
  8
LAYER_01
 10
3127.09586484689
 20
1403.797382567012
 30
0.0
 42
0.0502171185719841
  0
VERTEX
  5
3AB
  8
LAYER_01
 10
3120.431693415699
 20
1397.024721869692
 30
0.0
 42
0.2652468269286402
  0
VERTEX
  5
3AC
  8
LAYER_01
 10
3102.753518025996
 20
1286.370331518434
 30
0.0
 42
0.2315184435541573
  0
VERTEX
  5
3AD
  8
LAYER_01
 10
3026.151670254356
 20
1349.658208519278
 30
0.0
 42
0.0586356877733935
  0
VERTEX
  5
3AE
  8
LAYER_01
 10
3019.107465813678
 20
1357.79621820257
 30
0.0
 42
0.4275199993790897
  0
VERTEX
  5
3AF
  8
LAYER_01
 10
3067.237117350347
 20
1403.797382567013
 30
0.0
  0
SEQEND
  5
3B0
  8
LAYER_01
  0
POLYLINE
  5
3B1
  8
LAYER_01
 66
     1
 10
0.0
 20
0.0
 30
0.0
  0
VERTEX
  5
3B2
  8
LAYER_01
 10
2908.050830920075
 20
1064.294042231412
 30
0.0
 42
-0.4275199871845097
  0
VERTEX
  5
3B3
  8
LAYER_01
 10
2954.051995284523
 20
1016.164390694741
 30
0.0
 42
-0.058635686855219
  0
VERTEX
  5
3B4
  8
LAYER_01
 10
2962.190004959486
 20
1023.208595095649
 30
0.0
 42
-0.2315184436035545
  0
VERTEX
  5
3B5
  8
LAYER_01
 10
3025.477881968536
 20
1099.810442907446
 30
0.0
 42
-0.2652468267155716
  0
VERTEX
  5
3B6
  8
LAYER_01
 10
2914.823491704744
 20
1117.488618226581
 30
0.0
 42
-0.0502171191781042
  0
VERTEX
  5
3B7
  8
LAYER_01
 10
2908.050830920077
 20
1124.152789725344
 30
0.0
  0
SEQEND
  5
3B8
  8
LAYER_01
  0
POLYLINE
  5
3B9
  8
LAYER_01
 66
     1
 10
0.0
 20
0.0
 30
0.0
  0
VERTEX
  5
3BA
  8
LAYER_01
 10
2908.050830920075
 20
1244.611096136746
 30
0.0
 42
0.4275199871845097
  0
VERTEX
  5
3BB
  8
LAYER_01
 10
2954.051995284523
 20
1292.740747673417
 30
0.0
 42
0.0586356868552285
  0
VERTEX
  5
3BC
  8
LAYER_01
 10
2962.190004959486
 20
1285.696543272509
 30
0.0
 42
0.2315184436035525
  0
VERTEX
  5
3BD
  8
LAYER_01
 10
3025.477881968536
 20
1209.094695460712
 30
0.0
 42
0.2652468267155716
  0
VERTEX
  5
3BE
  8
LAYER_01
 10
2914.823491704744
 20
1191.416520141577
 30
0.0
 42
0.0502171191781373
  0
VERTEX
  5
3BF
  8
LAYER_01
 10
2908.050830920077
 20
1184.752348642815
 30
0.0
  0
SEQEND
  5
3C0
  8
LAYER_01
  0
POLYLINE
  5
3C1
  8
LAYER_01
 66
     1
 10
0.0
 20
0.0
 30
0.0
 70
     1
  0
VERTEX
  5
3C2
  8
LAYER_01
 10
3627.806662849991
 20
1057.588239586942
 30
0.0
 42
1.496606832190092
  0
VERTEX
  5
3C3
  8
LAYER_01
 10
3684.363878555399
 20
1057.588241355042
 30
0.0
  0
VERTEX
  5
3C4
  8
LAYER_01
 10
3669.467655147066
 20
1093.550905935566
 30
0.0
 42
0.6681787345582344
  0
VERTEX
  5
3C5
  8
LAYER_01
 10
3642.702886967962
 20
1093.550905880697
 30
0.0
  0
SEQEND
  5
3C6
  8
LAYER_01
  0
POLYLINE
  5
3C7
  8
LAYER_01
 66
     1
 10
0.0
 20
0.0
 30
0.0
 70
     1
  0
VERTEX
  5
3C8
  8
LAYER_01
 10
3704.582699748011
 20
1065.963149236759
 30
0.0
 42
1.496606832190102
  0
VERTEX
  5
3C9
  8
LAYER_01
 10
3744.574689248099
 20
1105.955141237319
 30
0.0
  0
VERTEX
  5
3CA
  8
LAYER_01
 10
3708.612024667573
 20
1120.851364645645
 30
0.0
 42
0.6681787345582532
  0
VERTEX
  5
3CB
  8
LAYER_01
 10
3689.686475630039
 20
1101.925815530515
 30
0.0
  0
SEQEND
  5
3CC
  8
LAYER_01
  0
POLYLINE
  5
3CD
  8
LAYER_01
 66
     1
 10
0.0
 20
0.0
 30
0.0
 70
     1
  0
VERTEX
  5
3CE
  8
LAYER_01
 10
3567.59585112156
 20
1105.955140504948
 30
0.0
 42
1.496606832190147
  0
VERTEX
  5
3CF
  8
LAYER_01
 10
3607.587843122121
 20
1065.96315100486
 30
0.0
  0
VERTEX
  5
3D0
  8
LAYER_01
 10
3622.484066530443
 20
1101.925815585388
 30
0.0
 42
0.6681787345583005
  0
VERTEX
  5
3D1
  8
LAYER_01
 10
3603.558517415318
 20
1120.851364622921
 30
0.0
  0
SEQEND
  5
3D2
  8
LAYER_01
  0
POLYLINE
  5
3D3
  8
LAYER_01
 66
     1
 10
0.0
 20
0.0
 30
0.0
 70
     1
  0
VERTEX
  5
3D4
  8
LAYER_01
 10
3495.229877633264
 20
953.6051844802746
 30
0.0
 42
1.49660683219014
  0
VERTEX
  5
3D5
  8
LAYER_01
 10
3455.237885632703
 20
993.5971739803628
 30
0.0
  0
VERTEX
  5
3D6
  8
LAYER_01
 10
3440.341662224379
 20
957.6345093998358
 30
0.0
 42
0.6681787345582264
  0
VERTEX
  5
3D7
  8
LAYER_01
 10
3459.267211339508
 20
938.7089603623023
 30
0.0
  0
SEQEND
  5
3D8
  8
LAYER_01
  0
POLYLINE
  5
3D9
  8
LAYER_01
 66
     1
 10
0.0
 20
0.0
 30
0.0
 70
     1
  0
VERTEX
  5
3DA
  8
LAYER_01
 10
3856.932655772685
 20
993.5971757484637
 30
0.0
 42
1.496606832190102
  0
VERTEX
  5
3DB
  8
LAYER_01
 10
3816.940666272597
 20
953.6051837479033
 30
0.0
  0
VERTEX
  5
3DC
  8
LAYER_01
 10
3852.903330853122
 20
938.7089603395775
 30
0.0
 42
0.6681787345582461
  0
VERTEX
  5
3DD
  8
LAYER_01
 10
3871.828879890655
 20
957.6345094547069
 30
0.0
  0
SEQEND
  5
3DE
  8
LAYER_01
  0
POLYLINE
  5
3DF
  8
LAYER_01
 66
     1
 10
0.0
 20
0.0
 30
0.0
  0
VERTEX
  5
3E0
  8
LAYER_01
 10
3545.926744116214
 20
905.1077558011433
 30
0.0
 42
0.5345113582156753
  0
VERTEX
  5
3E1
  8
LAYER_01
 10
3503.604785514982
 20
933.3863632876637
 30
0.0
  0
VERTEX
  5
3E2
  8
LAYER_01
 10
3467.642120934457
 20
918.4901398793314
 30
0.0
 42
0.3033467195267994
  0
VERTEX
  5
3E3
  8
LAYER_01
 10
3458.700296495563
 20
905.1077558011444
 30
0.0
  0
SEQEND
  5
3E4
  8
LAYER_01
  0
POLYLINE
  5
3E5
  8
LAYER_01
 66
     1
 10
0.0
 20
0.0
 30
0.0
  0
VERTEX
  5
3E6
  8
LAYER_01
 10
3406.740457685946
 20
957.0675946107617
 30
0.0
 42
0.3033467206462072
  0
VERTEX
  5
3E7
  8
LAYER_01
 10
3420.122841786862
 20
966.0094191045256
 30
0.0
  0
VERTEX
  5
3E8
  8
LAYER_01
 10
3435.019065904833
 20
1001.972085398282
 30
0.0
 42
0.5345113381187003
  0
VERTEX
  5
3E9
  8
LAYER_01
 10
3406.740457685944
 20
1044.294042231413
 30
0.0
  0
SEQEND
  5
3EA
  8
LAYER_01
  0
POLYLINE
  5
3EB
  8
LAYER_01
 66
     1
 10
0.0
 20
0.0
 30
0.0
  0
VERTEX
  5
3EC
  8
LAYER_01
 10
3436.815602930283
 20
905.1077558011445
 30
0.0
 42
-0.1861730095326929
  0
VERTEX
  5
3ED
  8
LAYER_01
 10
3452.846947870332
 20
924.2056893489395
 30
0.0
 42
-0.1861730095326294
  0
VERTEX
  5
3EE
  8
LAYER_01
 10
3428.006796833386
 20
926.3740949485853
 30
0.0
 42
-0.1861730095326911
  0
VERTEX
  5
3EF
  8
LAYER_01
 10
3425.838391233739
 20
951.2142459855329
 30
0.0
 42
-0.186173009532672
  0
VERTEX
  5
3F0
  8
LAYER_01
 10
3406.740457685945
 20
935.1829010454813
 30
0.0
  0
SEQEND
  5
3F1
  8
LAYER_01
  0
POLYLINE
  5
3F2
  8
LAYER_01
 66
     1
 10
0.0
 20
0.0
 30
0.0
  0
VERTEX
  5
3F3
  8
LAYER_01
 10
3905.430084451817
 20
1044.294042231413
 30
0.0
 42
0.5345113582156857
  0
VERTEX
  5
3F4
  8
LAYER_01
 10
3877.151476965295
 20
1001.972083630181
 30
0.0
  0
VERTEX
  5
3F5
  8
LAYER_01
 10
3892.047700373628
 20
966.009419049656
 30
0.0
 42
0.303346719526891
  0
VERTEX
  5
3F6
  8
LAYER_01
 10
3905.430084451819
 20
957.0675946107617
 30
0.0
  0
SEQEND
  5
3F7
  8
LAYER_01
  0
POLYLINE
  5
3F8
  8
LAYER_01
 66
     1
 10
0.0
 20
0.0
 30
0.0
  0
VERTEX
  5
3F9
  8
LAYER_01
 10
3853.470245642196
 20
905.1077558011442
 30
0.0
 42
0.3033467206462268
  0
VERTEX
  5
3FA
  8
LAYER_01
 10
3844.528421148433
 20
918.4901399020624
 30
0.0
  0
VERTEX
  5
3FB
  8
LAYER_01
 10
3808.565754854677
 20
933.3863640200321
 30
0.0
 42
0.5345113381187112
  0
VERTEX
  5
3FC
  8
LAYER_01
 10
3766.243798021545
 20
905.1077558011444
 30
0.0
  0
SEQEND
  5
3FD
  8
LAYER_01
  0
POLYLINE
  5
3FE
  8
LAYER_01
 66
     1
 10
0.0
 20
0.0
 30
0.0
  0
VERTEX
  5
3FF
  8
LAYER_01
 10
3905.430084451815
 20
935.1829010454818
 30
0.0
 42
-0.1861730095326934
  0
VERTEX
  5
400
  8
LAYER_01
 10
3886.33215090402
 20
951.2142459855313
 30
0.0
 42
-0.1861730095326279
  0
VERTEX
  5
401
  8
LAYER_01
 10
3884.163745304374
 20
926.374094948585
 30
0.0
 42
-0.186173009532666
  0
VERTEX
  5
402
  8
LAYER_01
 10
3859.323594267425
 20
924.2056893489391
 30
0.0
 42
-0.1861730095326684
  0
VERTEX
  5
403
  8
LAYER_01
 10
3875.354939207476
 20
905.1077558011443
 30
0.0
  0
SEQEND
  5
404
  8
LAYER_01
  0
POLYLINE
  5
405
  8
LAYER_01
 66
     1
 10
0.0
 20
0.0
 30
0.0
 70
     1
  0
VERTEX
  5
406
  8
LAYER_01
 10
3627.806662849991
 20
1251.316898781217
 30
0.0
 42
-1.496606832190092
  0
VERTEX
  5
407
  8
LAYER_01
 10
3684.363878555399
 20
1251.316897013117
 30
0.0
  0
VERTEX
  5
408
  8
LAYER_01
 10
3669.467655147066
 20
1215.354232432592
 30
0.0
 42
-0.6681787345582242
  0
VERTEX
  5
409
  8
LAYER_01
 10
3642.702886967962
 20
1215.354232487461
 30
0.0
  0
SEQEND
  5
40A
  8
LAYER_01
  0
POLYLINE
  5
40B
  8
LAYER_01
 66
     1
 10
0.0
 20
0.0
 30
0.0
 70
     1
  0
VERTEX
  5
40C
  8
LAYER_01
 10
3704.582699748011
 20
1242.9419891314
 30
0.0
 42
-1.496606832190102
  0
VERTEX
  5
40D
  8
LAYER_01
 10
3744.574689248099
 20
1202.94999713084
 30
0.0
  0
VERTEX
  5
40E
  8
LAYER_01
 10
3708.612024667573
 20
1188.053773722514
 30
0.0
 42
-0.6681787345582391
  0
VERTEX
  5
40F
  8
LAYER_01
 10
3689.686475630039
 20
1206.979322837643
 30
0.0
  0
SEQEND
  5
410
  8
LAYER_01
  0
POLYLINE
  5
411
  8
LAYER_01
 66
     1
 10
0.0
 20
0.0
 30
0.0
 70
     1
  0
VERTEX
  5
412
  8
LAYER_01
 10
3567.59585112156
 20
1202.949997863211
 30
0.0
 42
-1.496606832190147
  0
VERTEX
  5
413
  8
LAYER_01
 10
3607.587843122121
 20
1242.941987363299
 30
0.0
  0
VERTEX
  5
414
  8
LAYER_01
 10
3622.484066530444
 20
1206.97932278277
 30
0.0
 42
-0.6681787345582875
  0
VERTEX
  5
415
  8
LAYER_01
 10
3603.558517415318
 20
1188.053773745238
 30
0.0
  0
SEQEND
  5
416
  8
LAYER_01
  0
POLYLINE
  5
417
  8
LAYER_01
 66
     1
 10
0.0
 20
0.0
 30
0.0
 70
     1
  0
VERTEX
  5
418
  8
LAYER_01
 10
3495.229877633264
 20
1355.299953887884
 30
0.0
 42
-1.496606832190147
  0
VERTEX
  5
419
  8
LAYER_01
 10
3455.237885632703
 20
1315.307964387796
 30
0.0
  0
VERTEX
  5
41A
  8
LAYER_01
 10
3440.341662224379
 20
1351.270628968323
 30
0.0
 42
-0.6681787345582438
  0
VERTEX
  5
41B
  8
LAYER_01
 10
3459.267211339508
 20
1370.196178005857
 30
0.0
  0
SEQEND
  5
41C
  8
LAYER_01
  0
POLYLINE
  5
41D
  8
LAYER_01
 66
     1
 10
0.0
 20
0.0
 30
0.0
 70
     1
  0
VERTEX
  5
41E
  8
LAYER_01
 10
3856.932655772685
 20
1315.307962619695
 30
0.0
 42
-1.496606832190102
  0
VERTEX
  5
41F
  8
LAYER_01
 10
3816.940666272597
 20
1355.299954620255
 30
0.0
  0
VERTEX
  5
420
  8
LAYER_01
 10
3852.903330853122
 20
1370.196178028581
 30
0.0
 42
-0.6681787345582391
  0
VERTEX
  5
421
  8
LAYER_01
 10
3871.828879890655
 20
1351.270628913451
 30
0.0
  0
SEQEND
  5
422
  8
LAYER_01
  0
POLYLINE
  5
423
  8
LAYER_01
 66
     1
 10
0.0
 20
0.0
 30
0.0
  0
VERTEX
  5
424
  8
LAYER_01
 10
3545.926744116214
 20
1403.797382567016
 30
0.0
 42
-0.5345113582156743
  0
VERTEX
  5
425
  8
LAYER_01
 10
3503.604785514982
 20
1375.518775080496
 30
0.0
  0
VERTEX
  5
426
  8
LAYER_01
 10
3467.642120934457
 20
1390.414998488828
 30
0.0
 42
-0.3033467195268005
  0
VERTEX
  5
427
  8
LAYER_01
 10
3458.700296495563
 20
1403.797382567015
 30
0.0
  0
SEQEND
  5
428
  8
LAYER_01
  0
POLYLINE
  5
429
  8
LAYER_01
 66
     1
 10
0.0
 20
0.0
 30
0.0
  0
VERTEX
  5
42A
  8
LAYER_01
 10
3406.740457685946
 20
1351.837543757396
 30
0.0
 42
-0.3033467206462013
  0
VERTEX
  5
42B
  8
LAYER_01
 10
3420.122841786862
 20
1342.895719263632
 30
0.0
  0
VERTEX
  5
42C
  8
LAYER_01
 10
3435.019065904833
 20
1306.933052969877
 30
0.0
 42
-0.5345113381187003
  0
VERTEX
  5
42D
  8
LAYER_01
 10
3406.740457685944
 20
1264.611096136746
 30
0.0
  0
SEQEND
  5
42E
  8
LAYER_01
  0
POLYLINE
  5
42F
  8
LAYER_01
 66
     1
 10
0.0
 20
0.0
 30
0.0
  0
VERTEX
  5
430
  8
LAYER_01
 10
3436.815602930283
 20
1403.797382567014
 30
0.0
 42
0.1861730095326929
  0
VERTEX
  5
431
  8
LAYER_01
 10
3452.846947870332
 20
1384.699449019219
 30
0.0
 42
0.1861730095326108
  0
VERTEX
  5
432
  8
LAYER_01
 10
3428.006796833386
 20
1382.531043419573
 30
0.0
 42
0.1861730095326961
  0
VERTEX
  5
433
  8
LAYER_01
 10
3425.838391233739
 20
1357.690892382625
 30
0.0
 42
0.1861730095326774
  0
VERTEX
  5
434
  8
LAYER_01
 10
3406.740457685945
 20
1373.722237322677
 30
0.0
  0
SEQEND
  5
435
  8
LAYER_01
  0
POLYLINE
  5
436
  8
LAYER_01
 66
     1
 10
0.0
 20
0.0
 30
0.0
  0
VERTEX
  5
437
  8
LAYER_01
 10
3905.430084451817
 20
1264.611096136746
 30
0.0
 42
-0.5345113582156837
  0
VERTEX
  5
438
  8
LAYER_01
 10
3877.151476965295
 20
1306.933054737977
 30
0.0
  0
VERTEX
  5
439
  8
LAYER_01
 10
3892.047700373628
 20
1342.895719318502
 30
0.0
 42
-0.303346719526891
  0
VERTEX
  5
43A
  8
LAYER_01
 10
3905.430084451819
 20
1351.837543757396
 30
0.0
  0
SEQEND
  5
43B
  8
LAYER_01
  0
POLYLINE
  5
43C
  8
LAYER_01
 66
     1
 10
0.0
 20
0.0
 30
0.0
  0
VERTEX
  5
43D
  8
LAYER_01
 10
3853.470245642196
 20
1403.797382567015
 30
0.0
 42
-0.3033467206462261
  0
VERTEX
  5
43E
  8
LAYER_01
 10
3844.528421148433
 20
1390.414998466097
 30
0.0
  0
VERTEX
  5
43F
  8
LAYER_01
 10
3808.565754854677
 20
1375.518774348125
 30
0.0
 42
-0.5345113381186992
  0
VERTEX
  5
440
  8
LAYER_01
 10
3766.243798021545
 20
1403.797382567014
 30
0.0
  0
SEQEND
  5
441
  8
LAYER_01
  0
POLYLINE
  5
442
  8
LAYER_01
 66
     1
 10
0.0
 20
0.0
 30
0.0
  0
VERTEX
  5
443
  8
LAYER_01
 10
3905.430084451815
 20
1373.722237322677
 30
0.0
 42
0.186173009532694
  0
VERTEX
  5
444
  8
LAYER_01
 10
3886.33215090402
 20
1357.690892382628
 30
0.0
 42
0.186173009532624
  0
VERTEX
  5
445
  8
LAYER_01
 10
3884.163745304374
 20
1382.531043419573
 30
0.0
 42
0.18617300953268
  0
VERTEX
  5
446
  8
LAYER_01
 10
3859.323594267425
 20
1384.69944901922
 30
0.0
 42
0.186173009532671
  0
VERTEX
  5
447
  8
LAYER_01
 10
3875.354939207476
 20
1403.797382567014
 30
0.0
  0
SEQEND
  5
448
  8
LAYER_01
  0
POLYLINE
  5
449
  8
LAYER_01
 66
     1
 10
0.0
 20
0.0
 30
0.0
 70
     1
  0
VERTEX
  5
44A
  8
LAYER_01
 10
3595.183607820367
 20
1167.834953262266
 30
0.0
  0
VERTEX
  5
44B
  8
LAYER_01
 10
3559.220943239843
 20
1182.731176670599
 30
0.0
 42
1.496606882832133
  0
VERTEX
  5
44C
  8
LAYER_01
 10
3559.220943239842
 20
1126.17396169756
 30
0.0
  0
VERTEX
  5
44D
  8
LAYER_01
 10
3595.183607820367
 20
1141.070185105892
 30
0.0
 42
0.6681787330756334
  0
SEQEND
  5
44E
  8
LAYER_01
  0
POLYLINE
  5
44F
  8
LAYER_01
 66
     1
 10
0.0
 20
0.0
 30
0.0
 70
     1
  0
VERTEX
  5
450
  8
LAYER_01
 10
3702.191761253267
 20
1173.550502731878
 30
0.0
 42
-0.1861730095326553
  0
VERTEX
  5
451
  8
LAYER_01
 10
3677.351610216322
 20
1175.718908331522
 30
0.0
 42
-0.1861730095326936
  0
VERTEX
  5
452
  8
LAYER_01
 10
3675.183204616674
 20
1200.559059368467
 30
0.0
 42
-0.1861730095326666
  0
VERTEX
  5
453
  8
LAYER_01
 10
3656.085271068881
 20
1184.527714428417
 30
0.0
 42
-0.1861730095326907
  0
VERTEX
  5
454
  8
LAYER_01
 10
3636.987337521084
 20
1200.559059368468
 30
0.0
 42
-0.1861730095327144
  0
VERTEX
  5
455
  8
LAYER_01
 10
3634.818931921439
 20
1175.71890833152
 30
0.0
 42
-0.1861730095327249
  0
VERTEX
  5
456
  8
LAYER_01
 10
3609.978780884492
 20
1173.550502731875
 30
0.0
 42
-0.1861730095326753
  0
VERTEX
  5
457
  8
LAYER_01
 10
3626.010125824542
 20
1154.452569184079
 30
0.0
 42
-0.1861730095326874
  0
VERTEX
  5
458
  8
LAYER_01
 10
3609.978780884492
 20
1135.354635636284
 30
0.0
 42
-0.186173009532742
  0
VERTEX
  5
459
  8
LAYER_01
 10
3634.818931921438
 20
1133.186230036638
 30
0.0
 42
-0.1861730095326993
  0
VERTEX
  5
45A
  8
LAYER_01
 10
3636.987337521085
 20
1108.34607899969
 30
0.0
 42
-0.1861730095326833
  0
VERTEX
  5
45B
  8
LAYER_01
 10
3656.085271068879
 20
1124.377423939741
 30
0.0
 42
-0.1861730095326903
  0
VERTEX
  5
45C
  8
LAYER_01
 10
3675.183204616676
 20
1108.34607899969
 30
0.0
 42
-0.186173009532697
  0
VERTEX
  5
45D
  8
LAYER_01
 10
3677.351610216321
 20
1133.186230036635
 30
0.0
 42
-0.186173009532687
  0
VERTEX
  5
45E
  8
LAYER_01
 10
3702.191761253267
 20
1135.354635636281
 30
0.0
 42
-0.1861730095326528
  0
VERTEX
  5
45F
  8
LAYER_01
 10
3686.160416313217
 20
1154.452569184079
 30
0.0
 42
-0.1861730095326103
  0
SEQEND
  5
460
  8
LAYER_01
  0
POLYLINE
  5
461
  8
LAYER_01
 66
     1
 10
0.0
 20
0.0
 30
0.0
 70
     1
  0
VERTEX
  5
462
  8
LAYER_01
 10
3513.341750393082
 20
1119.182809583787
 30
0.0
 42
-0.2555679268113352
  0
VERTEX
  5
463
  8
LAYER_01
 10
3427.222509868348
 20
1134.547117572933
 30
0.0
 42
-0.4792508899633234
  0
VERTEX
  5
464
  8
LAYER_01
 10
3427.222509868346
 20
1174.358020795228
 30
0.0
 42
-0.2555679268113126
  0
VERTEX
  5
465
  8
LAYER_01
 10
3513.34175039308
 20
1189.72232878437
 30
0.0
 42
0.4662001085580124
  0
SEQEND
  5
466
  8
LAYER_01
  0
POLYLINE
  5
467
  8
LAYER_01
 66
     1
 10
0.0
 20
0.0
 30
0.0
 70
     1
  0
VERTEX
  5
468
  8
LAYER_01
 10
3532.787731797441
 20
984.7195111731497
 30
0.0
 42
0.1828115962155479
  0
VERTEX
  5
469
  8
LAYER_01
 10
3580.089845812767
 20
1028.578171559596
 30
0.0
 42
-0.466200108558105
  0
VERTEX
  5
46A
  8
LAYER_01
 10
3530.210873444403
 20
1078.457143927961
 30
0.0
 42
0.1828115962155485
  0
VERTEX
  5
46B
  8
LAYER_01
 10
3486.352213057955
 20
1031.155029912652
 30
0.0
 42
-0.4191699857856721
  0
SEQEND
  5
46C
  8
LAYER_01
  0
POLYLINE
  5
46D
  8
LAYER_01
 66
     1
 10
0.0
 20
0.0
 30
0.0
 70
     1
  0
VERTEX
  5
46E
  8
LAYER_01
 10
3532.787731797441
 20
1324.185627195009
 30
0.0
 42
-0.1828115962155477
  0
VERTEX
  5
46F
  8
LAYER_01
 10
3580.089845812767
 20
1280.326966808563
 30
0.0
 42
0.4662001085581199
  0
VERTEX
  5
470
  8
LAYER_01
 10
3530.210873444403
 20
1230.447994440197
 30
0.0
 42
-0.1828115962155423
  0
VERTEX
  5
471
  8
LAYER_01
 10
3486.352213057956
 20
1277.750108455508
 30
0.0
 42
0.4191699857856701
  0
SEQEND
  5
472
  8
LAYER_01
  0
POLYLINE
  5
473
  8
LAYER_01
 66
     1
 10
0.0
 20
0.0
 30
0.0
 70
     1
  0
VERTEX
  5
474
  8
LAYER_01
 10
3620.815511468592
 20
1011.70904850828
 30
0.0
 42
0.2555679265989438
  0
VERTEX
  5
475
  8
LAYER_01
 10
3636.179819412193
 20
925.5898080402227
 30
0.0
 42
0.4792508908386386
  0
VERTEX
  5
476
  8
LAYER_01
 10
3675.990722680029
 20
925.5898079835453
 30
0.0
 42
0.255567926811319
  0
VERTEX
  5
477
  8
LAYER_01
 10
3691.355030669172
 20
1011.70904850828
 30
0.0
 42
-0.4662001085580554
  0
SEQEND
  5
478
  8
LAYER_01
  0
POLYLINE
  5
479
  8
LAYER_01
 66
     1
 10
0.0
 20
0.0
 30
0.0
  0
VERTEX
  5
47A
  8
LAYER_01
 10
3406.740457685947
 20
1124.152789727957
 30
0.0
 42
0.0502171185719871
  0
VERTEX
  5
47B
  8
LAYER_01
 10
3413.513118383267
 20
1117.488618296765
 30
0.0
 42
0.2652468269286863
  0
VERTEX
  5
47C
  8
LAYER_01
 10
3524.167508734549
 20
1099.810442907073
 30
0.0
 42
0.2315184435541136
  0
VERTEX
  5
47D
  8
LAYER_01
 10
3460.879631733681
 20
1023.208595135428
 30
0.0
 42
0.0586356877730917
  0
VERTEX
  5
47E
  8
LAYER_01
 10
3452.74162205039
 20
1016.164390694742
 30
0.0
 42
0.4275199993790276
  0
VERTEX
  5
47F
  8
LAYER_01
 10
3406.740457685945
 20
1064.294042231413
 30
0.0
  0
SEQEND
  5
480
  8
LAYER_01
  0
POLYLINE
  5
481
  8
LAYER_01
 66
     1
 10
0.0
 20
0.0
 30
0.0
 70
     1
  0
VERTEX
  5
482
  8
LAYER_01
 10
3732.080696324998
 20
1028.578171559597
 30
0.0
 42
0.1828115962155204
  0
VERTEX
  5
483
  8
LAYER_01
 10
3779.382810340308
 20
984.71951117316
 30
0.0
 42
-0.4191699857856704
  0
VERTEX
  5
484
  8
LAYER_01
 10
3825.818329079811
 20
1031.15502991264
 30
0.0
 42
0.1828115962154904
  0
VERTEX
  5
485
  8
LAYER_01
 10
3781.959668693363
 20
1078.457143927967
 30
0.0
 42
-0.4662001085580992
  0
SEQEND
  5
486
  8
LAYER_01
  0
POLYLINE
  5
487
  8
LAYER_01
 66
     1
 10
0.0
 20
0.0
 30
0.0
 70
     1
  0
VERTEX
  5
488
  8
LAYER_01
 10
3708.045109878498
 20
1154.452569184079
 30
0.0
 42
0.3033467206462125
  0
VERTEX
  5
489
  8
LAYER_01
 10
3716.986934372262
 20
1141.070185083162
 30
0.0
  0
VERTEX
  5
48A
  8
LAYER_01
 10
3752.949600666016
 20
1126.173960965191
 30
0.0
 42
1.496606781548241
  0
VERTEX
  5
48B
  8
LAYER_01
 10
3752.949600666016
 20
1182.731177402968
 30
0.0
  0
VERTEX
  5
48C
  8
LAYER_01
 10
3716.98693437226
 20
1167.834953284998
 30
0.0
 42
0.3033467206462252
  0
SEQEND
  5
48D
  8
LAYER_01
  0
POLYLINE
  5
48E
  8
LAYER_01
 66
     1
 10
0.0
 20
0.0
 30
0.0
 70
     1
  0
VERTEX
  5
48F
  8
LAYER_01
 10
3884.948032212735
 20
1174.358020840764
 30
0.0
 42
-0.4792508917139809
  0
VERTEX
  5
490
  8
LAYER_01
 10
3884.948032212735
 20
1134.547117527394
 30
0.0
 42
-0.2555679265989865
  0
VERTEX
  5
491
  8
LAYER_01
 10
3798.828791744677
 20
1119.182809583795
 30
0.0
 42
0.4662001085580262
  0
VERTEX
  5
492
  8
LAYER_01
 10
3798.828791744674
 20
1189.722328784361
 30
0.0
 42
-0.25556792659898
  0
SEQEND
  5
493
  8
LAYER_01
  0
POLYLINE
  5
494
  8
LAYER_01
 66
     1
 10
0.0
 20
0.0
 30
0.0
 70
     1
  0
VERTEX
  5
495
  8
LAYER_01
 10
3620.815511468592
 20
1297.196089859878
 30
0.0
 42
-0.2555679265989438
  0
VERTEX
  5
496
  8
LAYER_01
 10
3636.179819412193
 20
1383.315330327935
 30
0.0
 42
-0.4792508908386398
  0
VERTEX
  5
497
  8
LAYER_01
 10
3675.990722680029
 20
1383.315330384613
 30
0.0
 42
-0.2555679268113163
  0
VERTEX
  5
498
  8
LAYER_01
 10
3691.355030669172
 20
1297.196089859879
 30
0.0
 42
0.4662001085580379
  0
SEQEND
  5
499
  8
LAYER_01
  0
POLYLINE
  5
49A
  8
LAYER_01
 66
     1
 10
0.0
 20
0.0
 30
0.0
  0
VERTEX
  5
49B
  8
LAYER_01
 10
3406.740457685947
 20
1184.752348640201
 30
0.0
 42
-0.0502171185719871
  0
VERTEX
  5
49C
  8
LAYER_01
 10
3413.513118383267
 20
1191.416520071393
 30
0.0
 42
-0.2652468269286893
  0
VERTEX
  5
49D
  8
LAYER_01
 10
3524.167508734549
 20
1209.094695461086
 30
0.0
 42
-0.2315184435540902
  0
VERTEX
  5
49E
  8
LAYER_01
 10
3460.87963173368
 20
1285.696543232732
 30
0.0
 42
-0.0586356877731118
  0
VERTEX
  5
49F
  8
LAYER_01
 10
3452.74162205039
 20
1292.740747673417
 30
0.0
 42
-0.4275199993789475
  0
VERTEX
  5
4A0
  8
LAYER_01
 10
3406.740457685945
 20
1244.611096136745
 30
0.0
  0
SEQEND
  5
4A1
  8
LAYER_01
  0
POLYLINE
  5
4A2
  8
LAYER_01
 66
     1
 10
0.0
 20
0.0
 30
0.0
 70
     1
  0
VERTEX
  5
4A3
  8
LAYER_01
 10
3732.080696324998
 20
1280.326966808562
 30
0.0
 42
-0.1828115962155246
  0
VERTEX
  5
4A4
  8
LAYER_01
 10
3779.382810340308
 20
1324.185627195
 30
0.0
 42
0.4191699857856966
  0
VERTEX
  5
4A5
  8
LAYER_01
 10
3825.818329079811
 20
1277.750108455515
 30
0.0
 42
-0.1828115962154762
  0
VERTEX
  5
4A6
  8
LAYER_01
 10
3781.959668693363
 20
1230.447994440191
 30
0.0
 42
0.4662001085580897
  0
SEQEND
  5
4A7
  8
LAYER_01
  0
POLYLINE
  5
4A8
  8
LAYER_01
 66
     1
 10
0.0
 20
0.0
 30
0.0
  0
VERTEX
  5
4A9
  8
LAYER_01
 10
3565.926744116213
 20
905.1077558011441
 30
0.0
 42
0.4275199871845872
  0
VERTEX
  5
4AA
  8
LAYER_01
 10
3517.797092579542
 20
951.1089201655894
 30
0.0
 42
0.0586356868552295
  0
VERTEX
  5
4AB
  8
LAYER_01
 10
3524.841296980451
 20
959.2469298405566
 30
0.0
 42
0.2315184436034818
  0
VERTEX
  5
4AC
  8
LAYER_01
 10
3601.443144792241
 20
1022.53480684959
 30
0.0
 42
0.2652468267155228
  0
VERTEX
  5
4AD
  8
LAYER_01
 10
3619.121320111382
 20
911.880416585811
 30
0.0
 42
0.050217119178112
  0
VERTEX
  5
4AE
  8
LAYER_01
 10
3625.785491610141
 20
905.1077558011465
 30
0.0
  0
SEQEND
  5
4AF
  8
LAYER_01
  0
POLYLINE
  5
4B0
  8
LAYER_01
 66
     1
 10
0.0
 20
0.0
 30
0.0
  0
VERTEX
  5
4B1
  8
LAYER_01
 10
3565.926744116213
 20
1403.797382567014
 30
0.0
 42
-0.4275199871846559
  0
VERTEX
  5
4B2
  8
LAYER_01
 10
3517.797092579542
 20
1357.796218202568
 30
0.0
 42
-0.0586356868552779
  0
VERTEX
  5
4B3
  8
LAYER_01
 10
3524.841296980452
 20
1349.658208527603
 30
0.0
 42
-0.2315184436034791
  0
VERTEX
  5
4B4
  8
LAYER_01
 10
3601.443144792241
 20
1286.370331518569
 30
0.0
 42
-0.2652468267155213
  0
VERTEX
  5
4B5
  8
LAYER_01
 10
3619.121320111382
 20
1397.024721782347
 30
0.0
 42
-0.0502171191781147
  0
VERTEX
  5
4B6
  8
LAYER_01
 10
3625.785491610141
 20
1403.797382567011
 30
0.0
  0
SEQEND
  5
4B7
  8
LAYER_01
  0
POLYLINE
  5
4B8
  8
LAYER_01
 66
     1
 10
0.0
 20
0.0
 30
0.0
  0
VERTEX
  5
4B9
  8
LAYER_01
 10
3686.385050525002
 20
905.1077558011461
 30
0.0
 42
0.0502171185719851
  0
VERTEX
  5
4BA
  8
LAYER_01
 10
3693.049221956194
 20
911.8804164984663
 30
0.0
 42
0.2652468269286407
  0
VERTEX
  5
4BB
  8
LAYER_01
 10
3710.727397345896
 20
1022.534806849724
 30
0.0
 42
0.2315184435541441
  0
VERTEX
  5
4BC
  8
LAYER_01
 10
3787.329245117537
 20
959.2469298488811
 30
0.0
 42
0.0586356877734292
  0
VERTEX
  5
4BD
  8
LAYER_01
 10
3794.373449558215
 20
951.1089201655886
 30
0.0
 42
0.427519999379093
  0
VERTEX
  5
4BE
  8
LAYER_01
 10
3746.243798021547
 20
905.1077558011447
 30
0.0
  0
SEQEND
  5
4BF
  8
LAYER_01
  0
POLYLINE
  5
4C0
  8
LAYER_01
 66
     1
 10
0.0
 20
0.0
 30
0.0
  0
VERTEX
  5
4C1
  8
LAYER_01
 10
3686.385050525002
 20
1403.797382567012
 30
0.0
 42
-0.0502171185719841
  0
VERTEX
  5
4C2
  8
LAYER_01
 10
3693.049221956194
 20
1397.024721869692
 30
0.0
 42
-0.2652468269286412
  0
VERTEX
  5
4C3
  8
LAYER_01
 10
3710.727397345897
 20
1286.370331518434
 30
0.0
 42
-0.2315184435541573
  0
VERTEX
  5
4C4
  8
LAYER_01
 10
3787.329245117536
 20
1349.658208519279
 30
0.0
 42
-0.058635687773398
  0
VERTEX
  5
4C5
  8
LAYER_01
 10
3794.373449558215
 20
1357.796218202571
 30
0.0
 42
-0.4275199993790911
  0
VERTEX
  5
4C6
  8
LAYER_01
 10
3746.243798021547
 20
1403.797382567013
 30
0.0
  0
SEQEND
  5
4C7
  8
LAYER_01
  0
POLYLINE
  5
4C8
  8
LAYER_01
 66
     1
 10
0.0
 20
0.0
 30
0.0
  0
VERTEX
  5
4C9
  8
LAYER_01
 10
3905.430084451817
 20
1064.294042231412
 30
0.0
 42
0.4275199871845097
  0
VERTEX
  5
4CA
  8
LAYER_01
 10
3859.42892008737
 20
1016.164390694741
 30
0.0
 42
0.058635686855219
  0
VERTEX
  5
4CB
  8
LAYER_01
 10
3851.290910412406
 20
1023.208595095649
 30
0.0
 42
0.2315184436035545
  0
VERTEX
  5
4CC
  8
LAYER_01
 10
3788.003033403357
 20
1099.810442907446
 30
0.0
 42
0.2652468267155711
  0
VERTEX
  5
4CD
  8
LAYER_01
 10
3898.657423667148
 20
1117.488618226581
 30
0.0
 42
0.0502171191781045
  0
VERTEX
  5
4CE
  8
LAYER_01
 10
3905.430084451815
 20
1124.152789725344
 30
0.0
  0
SEQEND
  5
4CF
  8
LAYER_01
  0
POLYLINE
  5
4D0
  8
LAYER_01
 66
     1
 10
0.0
 20
0.0
 30
0.0
  0
VERTEX
  5
4D1
  8
LAYER_01
 10
3905.430084451817
 20
1244.611096136746
 30
0.0
 42
-0.4275199871845097
  0
VERTEX
  5
4D2
  8
LAYER_01
 10
3859.42892008737
 20
1292.740747673417
 30
0.0
 42
-0.0586356868552285
  0
VERTEX
  5
4D3
  8
LAYER_01
 10
3851.290910412406
 20
1285.696543272509
 30
0.0
 42
-0.2315184436035525
  0
VERTEX
  5
4D4
  8
LAYER_01
 10
3788.003033403357
 20
1209.094695460712
 30
0.0
 42
-0.2652468267155711
  0
VERTEX
  5
4D5
  8
LAYER_01
 10
3898.657423667148
 20
1191.416520141577
 30
0.0
 42
-0.0502171191781373
  0
VERTEX
  5
4D6
  8
LAYER_01
 10
3905.430084451815
 20
1184.752348642815
 30
0.0
  0
SEQEND
  5
4D7
  8
LAYER_01
  0
ENDSEC
  0
EOF
