  0
SECTION
  2
HEADER
  9
$ACADVER
  1
AC1009
  9
$DWGCODEPAGE
  3
ansi_1252
  9
$INSBASE
 10
0.0
 20
0.0
 30
0.0
  9
$EXTMIN
 10
1.000000000000000E+20
 20
1.000000000000000E+20
 30
1.000000000000000E+20
  9
$EXTMAX
 10
-1.000000000000000E+20
 20
-1.000000000000000E+20
 30
-1.000000000000000E+20
  9
$LIMMIN
 10
0.0
 20
0.0
  9
$LIMMAX
 10
12.0
 20
9.0
  9
$ORTHOMODE
 70
     0
  9
$REGENMODE
 70
     1
  9
$FILLMODE
 70
     1
  9
$QTEXTMODE
 70
     0
  9
$MIRRTEXT
 70
     1
  9
$DRAGMODE
 70
     2
  9
$LTSCALE
 40
1.0
  9
$OSMODE
 70
    37
  9
$ATTMODE
 70
     1
  9
$TEXTSIZE
 40
0.2
  9
$TRACEWID
 40
0.05
  9
$TEXTSTYLE
  7
STANDARD
  9
$CLAYER
  8
LAYER_01
  9
$CELTYPE
  6
BYLAYER
  9
$CECOLOR
 62
   256
  9
$DIMSCALE
 40
1.0
  9
$DIMASZ
 40
0.18
  9
$DIMEXO
 40
0.0625
  9
$DIMDLI
 40
0.38
  9
$DIMRND
 40
0.0
  9
$DIMDLE
 40
0.0
  9
$DIMEXE
 40
0.18
  9
$DIMTP
 40
0.0
  9
$DIMTM
 40
0.0
  9
$DIMTXT
 40
0.18
  9
$DIMCEN
 40
0.09
  9
$DIMTSZ
 40
0.0
  9
$DIMTOL
 70
     0
  9
$DIMLIM
 70
     0
  9
$DIMTIH
 70
     1
  9
$DIMTOH
 70
     1
  9
$DIMSE1
 70
     0
  9
$DIMSE2
 70
     0
  9
$DIMTAD
 70
     0
  9
$DIMZIN
 70
     0
  9
$DIMBLK
  1

  9
$DIMASO
 70
     1
  9
$DIMSHO
 70
     1
  9
$DIMPOST
  1

  9
$DIMAPOST
  1

  9
$DIMALT
 70
     0
  9
$DIMALTD
 70
     2
  9
$DIMALTF
 40
25.4
  9
$DIMLFAC
 40
1.0
  9
$DIMTOFL
 70
     0
  9
$DIMTVP
 40
0.0
  9
$DIMTIX
 70
     0
  9
$DIMSOXD
 70
     0
  9
$DIMSAH
 70
     0
  9
$DIMBLK1
  1

  9
$DIMBLK2
  1

  9
$DIMSTYLE
  2
STANDARD_ACAD
  9
$DIMCLRD
 70
     0
  9
$DIMCLRE
 70
     0
  9
$DIMCLRT
 70
     0
  9
$DIMTFAC
 40
1.0
  9
$DIMGAP
 40
0.09
  9
$LUNITS
 70
     2
  9
$LUPREC
 70
     3
  9
$SKETCHINC
 40
0.1
  9
$FILLETRAD
 40
0.5
  9
$AUNITS
 70
     0
  9
$AUPREC
 70
     0
  9
$MENU
  1
.
  9
$ELEVATION
 40
0.0
  9
$PELEVATION
 40
0.0
  9
$THICKNESS
 40
0.0
  9
$LIMCHECK
 70
     0
  9
$CHAMFERA
 40
0.0
  9
$CHAMFERB
 40
0.0
  9
$SKPOLY
 70
     0
  9
$TDCREATE
 40
2459792.87826772
  9
$TDUPDATE
 40
2459792.87826772
  9
$TDINDWG
 40
0.0000000116
  9
$TDUSRTIMER
 40
0.0000000116
  9
$USRTIMER
 70
     1
  9
$ANGBASE
 50
0.0
  9
$ANGDIR
 70
     0
  9
$PDMODE
 70
     0
  9
$PDSIZE
 40
0.0
  9
$PLINEWID
 40
0.0
  9
$COORDS
 70
     1
  9
$SPLFRAME
 70
     0
  9
$SPLINETYPE
 70
     6
  9
$SPLINESEGS
 70
     8
  9
$ATTDIA
 70
     0
  9
$ATTREQ
 70
     1
  9
$HANDLING
 70
     1
  9
$HANDSEED
  5
29F
  9
$SURFTAB1
 70
     6
  9
$SURFTAB2
 70
     6
  9
$SURFTYPE
 70
     6
  9
$SURFU
 70
     6
  9
$SURFV
 70
     6
  9
$UCSNAME
  2

  9
$UCSORG
 10
0.0
 20
0.0
 30
0.0
  9
$UCSXDIR
 10
1.0
 20
0.0
 30
0.0
  9
$UCSYDIR
 10
0.0
 20
1.0
 30
0.0
  9
$PUCSNAME
  2

  9
$PUCSORG
 10
0.0
 20
0.0
 30
0.0
  9
$PUCSXDIR
 10
1.0
 20
0.0
 30
0.0
  9
$PUCSYDIR
 10
0.0
 20
1.0
 30
0.0
  9
$USERI1
 70
     0
  9
$USERI2
 70
     0
  9
$USERI3
 70
     0
  9
$USERI4
 70
     0
  9
$USERI5
 70
     0
  9
$USERR1
 40
0.0
  9
$USERR2
 40
0.0
  9
$USERR3
 40
0.0
  9
$USERR4
 40
0.0
  9
$USERR5
 40
0.0
  9
$WORLDVIEW
 70
     1
  9
$SHADEDGE
 70
     3
  9
$SHADEDIF
 70
    70
  9
$TILEMODE
 70
     1
  9
$MAXACTVP
 70
    64
  9
$PLIMCHECK
 70
     0
  9
$PEXTMIN
 10
1.000000000000000E+20
 20
1.000000000000000E+20
 30
1.000000000000000E+20
  9
$PEXTMAX
 10
-1.000000000000000E+20
 20
-1.000000000000000E+20
 30
-1.000000000000000E+20
  9
$PLIMMIN
 10
0.0
 20
0.0
  9
$PLIMMAX
 10
12.0
 20
9.0
  9
$UNITMODE
 70
     0
  9
$VISRETAIN
 70
     1
  9
$PLINEGEN
 70
     0
  9
$PSLTSCALE
 70
     1
  0
ENDSEC
  0
SECTION
  2
TABLES
  0
TABLE
  2
VPORT
 70
     1
  0
VPORT
  2
*ACTIVE
 70
     0
 10
0.0
 20
0.0
 11
1.0
 21
1.0
 12
10.42990654205607
 22
4.5
 13
0.0
 23
0.0
 14
0.5
 24
0.5
 15
0.5
 25
0.5
 16
0.0
 26
0.0
 36
1.0
 17
0.0
 27
0.0
 37
0.0
 40
9.0
 41
1.972972972850329
 42
50.0
 43
0.0
 44
0.0
 50
0.0
 51
0.0
 71
     0
 72
   100
 73
     1
 74
     3
 75
     0
 76
     0
 77
     0
 78
     0
  0
ENDTAB
  0
TABLE
  2
LTYPE
 70
     1
  0
LTYPE
  2
CONTINUOUS
 70
     0
  3
Solid line
 72
    65
 73
     0
 40
0.0
  0
ENDTAB
  0
TABLE
  2
LAYER
 70
     2
  0
LAYER
  2
0
 70
     0
 62
     7
  6
CONTINUOUS
  0
LAYER
  2
LAYER_01
 70
     0
 62
     1
  6
CONTINUOUS
  0
ENDTAB
  0
TABLE
  2
STYLE
 70
     1
  0
STYLE
  2
STANDARD
 70
     0
 40
0.0
 41
1.0
 50
0.0
 71
     0
 42
0.2
  3
txt
  4

  0
ENDTAB
  0
TABLE
  2
VIEW
 70
     0
  0
ENDTAB
  0
TABLE
  2
UCS
 70
     0
  0
ENDTAB
  0
TABLE
  2
APPID
 70
     2
  0
APPID
  2
ACAD
 70
     0
  0
APPID
  2
RHINO
 70
     0
  0
ENDTAB
  0
TABLE
  2
DIMSTYLE
 70
     1
  0
DIMSTYLE
  2
STANDARD_ACAD
 70
     0
  3

  4

  5

  6

  7

 40
1.0
 41
0.18
 42
0.0625
 43
0.38
 44
0.18
 45
0.0
 46
0.0
 47
0.0
 48
0.0
140
0.18
141
0.09
142
0.0
143
25.4
144
1.0
145
0.0
146
1.0
147
0.09
 71
     0
 72
     0
 73
     1
 74
     1
 75
     0
 76
     0
 77
     0
 78
     0
170
     0
171
     2
172
     0
173
     0
174
     0
175
     0
176
     0
177
     0
178
     0
  0
ENDTAB
  0
ENDSEC
  0
SECTION
  2
BLOCKS
  0
BLOCK
  8
0
  2
$MODEL_SPACE
 70
     0
 10
0.0
 20
0.0
 30
0.0
  3
$MODEL_SPACE
  1

  0
ENDBLK
  5
21
  8
0
  0
BLOCK
 67
     1
  8
0
  2
$PAPER_SPACE
 70
     0
 10
0.0
 20
0.0
 30
0.0
  3
$PAPER_SPACE
  1

  0
ENDBLK
  5
1D
 67
     1
  8
0
  0
ENDSEC
  0
SECTION
  2
ENTITIES
  0
POLYLINE
  5
70
  8
LAYER_01
 66
     1
 10
0.0
 20
0.0
 30
0.0
 70
     1
  0
VERTEX
  5
71
  8
LAYER_01
 10
8256.627431026745
 20
2059.534917526321
 30
0.0
  0
VERTEX
  5
72
  8
LAYER_01
 10
9051.099432985518
 20
2059.534917526321
 30
0.0
  0
VERTEX
  5
73
  8
LAYER_01
 10
9051.099432985518
 20
2854.00691948509
 30
0.0
  0
VERTEX
  5
74
  8
LAYER_01
 10
8256.627431026745
 20
2854.00691948509
 30
0.0
  0
SEQEND
  5
75
  8
LAYER_01
  0
POLYLINE
  5
76
  8
LAYER_01
 66
     1
 10
0.0
 20
0.0
 30
0.0
 70
     1
  0
VERTEX
  5
77
  8
LAYER_01
 10
8298.552362353608
 20
2101.459848853184
 30
0.0
  0
VERTEX
  5
78
  8
LAYER_01
 10
9009.174501658656
 20
2101.459848853184
 30
0.0
  0
VERTEX
  5
79
  8
LAYER_01
 10
9009.174501658656
 20
2812.081988158227
 30
0.0
  0
VERTEX
  5
7A
  8
LAYER_01
 10
8298.552362353608
 20
2812.081988158227
 30
0.0
  0
SEQEND
  5
7B
  8
LAYER_01
  0
POLYLINE
  5
7C
  8
LAYER_01
 66
     1
 10
0.0
 20
0.0
 30
0.0
 70
     1
  0
VERTEX
  5
7D
  8
LAYER_01
 10
8813.397702102691
 20
2674.425472514814
 30
0.0
  0
VERTEX
  5
7E
  8
LAYER_01
 10
8794.178209676787
 20
2693.64496494072
 30
0.0
  0
VERTEX
  5
7F
  8
LAYER_01
 10
8813.397702102691
 20
2712.864457366624
 30
0.0
  0
VERTEX
  5
80
  8
LAYER_01
 10
8841.872582773236
 20
2712.864457366624
 30
0.0
  0
VERTEX
  5
81
  8
LAYER_01
 10
8861.092075199142
 20
2693.64496494072
 30
0.0
  0
VERTEX
  5
82
  8
LAYER_01
 10
8841.872582773238
 20
2674.425472514815
 30
0.0
  0
SEQEND
  5
83
  8
LAYER_01
  0
POLYLINE
  5
84
  8
LAYER_01
 66
     1
 10
0.0
 20
0.0
 30
0.0
 70
     1
  0
VERTEX
  5
85
  8
LAYER_01
 10
8871.517986015242
 20
2644.780069272806
 30
0.0
  0
VERTEX
  5
86
  8
LAYER_01
 10
8871.517986015242
 20
2616.305188602261
 30
0.0
  0
VERTEX
  5
87
  8
LAYER_01
 10
8890.737478441146
 20
2597.085696176357
 30
0.0
  0
VERTEX
  5
88
  8
LAYER_01
 10
8909.95697086705
 20
2616.305188602262
 30
0.0
  0
VERTEX
  5
89
  8
LAYER_01
 10
8909.956970867053
 20
2644.780069272812
 30
0.0
  0
VERTEX
  5
8A
  8
LAYER_01
 10
8890.73747844115
 20
2663.999561698715
 30
0.0
  0
SEQEND
  5
8B
  8
LAYER_01
  0
POLYLINE
  5
8C
  8
LAYER_01
 66
     1
 10
0.0
 20
0.0
 30
0.0
 70
     1
  0
VERTEX
  5
8D
  8
LAYER_01
 10
8920.382881683152
 20
2693.64496494072
 30
0.0
  0
VERTEX
  5
8E
  8
LAYER_01
 10
8939.602374109054
 20
2712.864457366625
 30
0.0
  0
VERTEX
  5
8F
  8
LAYER_01
 10
8968.077254779604
 20
2712.864457366625
 30
0.0
  0
VERTEX
  5
90
  8
LAYER_01
 10
8987.29674720551
 20
2693.64496494072
 30
0.0
  0
VERTEX
  5
91
  8
LAYER_01
 10
8968.077254779604
 20
2674.425472514815
 30
0.0
  0
VERTEX
  5
92
  8
LAYER_01
 10
8939.602374109061
 20
2674.425472514815
 30
0.0
  0
SEQEND
  5
93
  8
LAYER_01
  0
POLYLINE
  5
94
  8
LAYER_01
 66
     1
 10
0.0
 20
0.0
 30
0.0
 70
     1
  0
VERTEX
  5
95
  8
LAYER_01
 10
8909.956970867051
 20
2770.984741279177
 30
0.0
  0
VERTEX
  5
96
  8
LAYER_01
 10
8909.956970867053
 20
2742.509860608633
 30
0.0
  0
VERTEX
  5
97
  8
LAYER_01
 10
8890.737478441148
 20
2723.290368182726
 30
0.0
  0
VERTEX
  5
98
  8
LAYER_01
 10
8871.517986015242
 20
2742.509860608629
 30
0.0
  0
VERTEX
  5
99
  8
LAYER_01
 10
8871.517986015242
 20
2770.984741279177
 30
0.0
  0
VERTEX
  5
9A
  8
LAYER_01
 10
8890.737478441146
 20
2790.204233705082
 30
0.0
  0
SEQEND
  5
9B
  8
LAYER_01
  0
POLYLINE
  5
9C
  8
LAYER_01
 66
     1
 10
0.0
 20
0.0
 30
0.0
  0
VERTEX
  5
9D
  8
LAYER_01
 10
8772.30045522364
 20
2731.058016971582
 30
0.0
  0
VERTEX
  5
9E
  8
LAYER_01
 10
8796.031826945544
 20
2754.789388693487
 30
0.0
  0
VERTEX
  5
9F
  8
LAYER_01
 10
8829.59305468838
 20
2754.789388693487
 30
0.0
  0
VERTEX
  5
A0
  8
LAYER_01
 10
8829.59305468838
 20
2788.350616436323
 30
0.0
  0
VERTEX
  5
A1
  8
LAYER_01
 10
8853.324426410283
 20
2812.081988158227
 30
0.0
  0
SEQEND
  5
A2
  8
LAYER_01
  0
POLYLINE
  5
A3
  8
LAYER_01
 66
     1
 10
0.0
 20
0.0
 30
0.0
  0
VERTEX
  5
A4
  8
LAYER_01
 10
8772.30045522364
 20
2656.231912909857
 30
0.0
  0
VERTEX
  5
A5
  8
LAYER_01
 10
8796.031826945544
 20
2632.500541187952
 30
0.0
  0
VERTEX
  5
A6
  8
LAYER_01
 10
8829.59305468838
 20
2632.500541187952
 30
0.0
  0
VERTEX
  5
A7
  8
LAYER_01
 10
8829.59305468838
 20
2598.939313445117
 30
0.0
  0
VERTEX
  5
A8
  8
LAYER_01
 10
8853.324426410283
 20
2575.207941723212
 30
0.0
  0
SEQEND
  5
A9
  8
LAYER_01
  0
POLYLINE
  5
AA
  8
LAYER_01
 66
     1
 10
0.0
 20
0.0
 30
0.0
  0
VERTEX
  5
AB
  8
LAYER_01
 10
8928.15053047201
 20
2575.207941723213
 30
0.0
  0
VERTEX
  5
AC
  8
LAYER_01
 10
8951.881902193913
 20
2598.939313445116
 30
0.0
  0
VERTEX
  5
AD
  8
LAYER_01
 10
8951.881902193913
 20
2632.500541187952
 30
0.0
  0
VERTEX
  5
AE
  8
LAYER_01
 10
8985.44312993675
 20
2632.500541187952
 30
0.0
  0
VERTEX
  5
AF
  8
LAYER_01
 10
9009.174501658654
 20
2656.231912909856
 30
0.0
  0
SEQEND
  5
B0
  8
LAYER_01
  0
POLYLINE
  5
B1
  8
LAYER_01
 66
     1
 10
0.0
 20
0.0
 30
0.0
  0
VERTEX
  5
B2
  8
LAYER_01
 10
8928.15053047201
 20
2812.081988158227
 30
0.0
  0
VERTEX
  5
B3
  8
LAYER_01
 10
8951.881902193914
 20
2788.350616436323
 30
0.0
  0
VERTEX
  5
B4
  8
LAYER_01
 10
8951.881902193914
 20
2754.789388693488
 30
0.0
  0
VERTEX
  5
B5
  8
LAYER_01
 10
8985.44312993675
 20
2754.789388693488
 30
0.0
  0
VERTEX
  5
B6
  8
LAYER_01
 10
9009.174501658656
 20
2731.058016971583
 30
0.0
  0
SEQEND
  5
B7
  8
LAYER_01
  0
POLYLINE
  5
B8
  8
LAYER_01
 66
     1
 10
0.0
 20
0.0
 30
0.0
 70
     1
  0
VERTEX
  5
B9
  8
LAYER_01
 10
8576.523655667675
 20
2674.425472514814
 30
0.0
  0
VERTEX
  5
BA
  8
LAYER_01
 10
8557.304163241772
 20
2693.64496494072
 30
0.0
  0
VERTEX
  5
BB
  8
LAYER_01
 10
8576.523655667675
 20
2712.864457366624
 30
0.0
  0
VERTEX
  5
BC
  8
LAYER_01
 10
8604.99853633822
 20
2712.864457366624
 30
0.0
  0
VERTEX
  5
BD
  8
LAYER_01
 10
8624.218028764126
 20
2693.64496494072
 30
0.0
  0
VERTEX
  5
BE
  8
LAYER_01
 10
8604.998536338222
 20
2674.425472514815
 30
0.0
  0
SEQEND
  5
BF
  8
LAYER_01
  0
POLYLINE
  5
C0
  8
LAYER_01
 66
     1
 10
0.0
 20
0.0
 30
0.0
 70
     1
  0
VERTEX
  5
C1
  8
LAYER_01
 10
8634.643939580226
 20
2644.780069272806
 30
0.0
  0
VERTEX
  5
C2
  8
LAYER_01
 10
8634.643939580226
 20
2616.305188602261
 30
0.0
  0
VERTEX
  5
C3
  8
LAYER_01
 10
8653.86343200613
 20
2597.085696176357
 30
0.0
  0
VERTEX
  5
C4
  8
LAYER_01
 10
8673.082924432034
 20
2616.305188602262
 30
0.0
  0
VERTEX
  5
C5
  8
LAYER_01
 10
8673.082924432038
 20
2644.780069272812
 30
0.0
  0
VERTEX
  5
C6
  8
LAYER_01
 10
8653.863432006134
 20
2663.999561698715
 30
0.0
  0
SEQEND
  5
C7
  8
LAYER_01
  0
POLYLINE
  5
C8
  8
LAYER_01
 66
     1
 10
0.0
 20
0.0
 30
0.0
 70
     1
  0
VERTEX
  5
C9
  8
LAYER_01
 10
8683.508835248136
 20
2693.64496494072
 30
0.0
  0
VERTEX
  5
CA
  8
LAYER_01
 10
8702.728327674038
 20
2712.864457366625
 30
0.0
  0
VERTEX
  5
CB
  8
LAYER_01
 10
8731.203208344588
 20
2712.864457366625
 30
0.0
  0
VERTEX
  5
CC
  8
LAYER_01
 10
8750.422700770494
 20
2693.64496494072
 30
0.0
  0
VERTEX
  5
CD
  8
LAYER_01
 10
8731.203208344588
 20
2674.425472514815
 30
0.0
  0
VERTEX
  5
CE
  8
LAYER_01
 10
8702.728327674045
 20
2674.425472514815
 30
0.0
  0
SEQEND
  5
CF
  8
LAYER_01
  0
POLYLINE
  5
D0
  8
LAYER_01
 66
     1
 10
0.0
 20
0.0
 30
0.0
 70
     1
  0
VERTEX
  5
D1
  8
LAYER_01
 10
8673.082924432036
 20
2770.984741279177
 30
0.0
  0
VERTEX
  5
D2
  8
LAYER_01
 10
8673.082924432038
 20
2742.509860608633
 30
0.0
  0
VERTEX
  5
D3
  8
LAYER_01
 10
8653.863432006132
 20
2723.290368182726
 30
0.0
  0
VERTEX
  5
D4
  8
LAYER_01
 10
8634.643939580226
 20
2742.509860608629
 30
0.0
  0
VERTEX
  5
D5
  8
LAYER_01
 10
8634.643939580226
 20
2770.984741279177
 30
0.0
  0
VERTEX
  5
D6
  8
LAYER_01
 10
8653.86343200613
 20
2790.204233705082
 30
0.0
  0
SEQEND
  5
D7
  8
LAYER_01
  0
POLYLINE
  5
D8
  8
LAYER_01
 66
     1
 10
0.0
 20
0.0
 30
0.0
  0
VERTEX
  5
D9
  8
LAYER_01
 10
8535.426408788624
 20
2731.058016971582
 30
0.0
  0
VERTEX
  5
DA
  8
LAYER_01
 10
8559.157780510528
 20
2754.789388693487
 30
0.0
  0
VERTEX
  5
DB
  8
LAYER_01
 10
8592.719008253363
 20
2754.789388693487
 30
0.0
  0
VERTEX
  5
DC
  8
LAYER_01
 10
8592.719008253363
 20
2788.350616436323
 30
0.0
  0
VERTEX
  5
DD
  8
LAYER_01
 10
8616.450379975267
 20
2812.081988158227
 30
0.0
  0
SEQEND
  5
DE
  8
LAYER_01
  0
POLYLINE
  5
DF
  8
LAYER_01
 66
     1
 10
0.0
 20
0.0
 30
0.0
  0
VERTEX
  5
E0
  8
LAYER_01
 10
8535.426408788624
 20
2656.231912909857
 30
0.0
  0
VERTEX
  5
E1
  8
LAYER_01
 10
8559.157780510528
 20
2632.500541187952
 30
0.0
  0
VERTEX
  5
E2
  8
LAYER_01
 10
8592.719008253363
 20
2632.500541187952
 30
0.0
  0
VERTEX
  5
E3
  8
LAYER_01
 10
8592.719008253363
 20
2598.939313445117
 30
0.0
  0
VERTEX
  5
E4
  8
LAYER_01
 10
8616.450379975267
 20
2575.207941723212
 30
0.0
  0
SEQEND
  5
E5
  8
LAYER_01
  0
POLYLINE
  5
E6
  8
LAYER_01
 66
     1
 10
0.0
 20
0.0
 30
0.0
  0
VERTEX
  5
E7
  8
LAYER_01
 10
8691.276484036995
 20
2575.207941723213
 30
0.0
  0
VERTEX
  5
E8
  8
LAYER_01
 10
8715.007855758897
 20
2598.939313445116
 30
0.0
  0
VERTEX
  5
E9
  8
LAYER_01
 10
8715.007855758897
 20
2632.500541187952
 30
0.0
  0
VERTEX
  5
EA
  8
LAYER_01
 10
8748.569083501734
 20
2632.500541187952
 30
0.0
  0
VERTEX
  5
EB
  8
LAYER_01
 10
8772.300455223638
 20
2656.231912909856
 30
0.0
  0
SEQEND
  5
EC
  8
LAYER_01
  0
POLYLINE
  5
ED
  8
LAYER_01
 66
     1
 10
0.0
 20
0.0
 30
0.0
  0
VERTEX
  5
EE
  8
LAYER_01
 10
8691.276484036995
 20
2812.081988158227
 30
0.0
  0
VERTEX
  5
EF
  8
LAYER_01
 10
8715.007855758899
 20
2788.350616436323
 30
0.0
  0
VERTEX
  5
F0
  8
LAYER_01
 10
8715.007855758899
 20
2754.789388693488
 30
0.0
  0
VERTEX
  5
F1
  8
LAYER_01
 10
8748.569083501734
 20
2754.789388693488
 30
0.0
  0
VERTEX
  5
F2
  8
LAYER_01
 10
8772.30045522364
 20
2731.058016971583
 30
0.0
  0
SEQEND
  5
F3
  8
LAYER_01
  0
POLYLINE
  5
F4
  8
LAYER_01
 66
     1
 10
0.0
 20
0.0
 30
0.0
 70
     1
  0
VERTEX
  5
F5
  8
LAYER_01
 10
8339.64960923266
 20
2674.425472514814
 30
0.0
  0
VERTEX
  5
F6
  8
LAYER_01
 10
8320.430116806756
 20
2693.64496494072
 30
0.0
  0
VERTEX
  5
F7
  8
LAYER_01
 10
8339.64960923266
 20
2712.864457366624
 30
0.0
  0
VERTEX
  5
F8
  8
LAYER_01
 10
8368.124489903204
 20
2712.864457366624
 30
0.0
  0
VERTEX
  5
F9
  8
LAYER_01
 10
8387.34398232911
 20
2693.64496494072
 30
0.0
  0
VERTEX
  5
FA
  8
LAYER_01
 10
8368.124489903206
 20
2674.425472514815
 30
0.0
  0
SEQEND
  5
FB
  8
LAYER_01
  0
POLYLINE
  5
FC
  8
LAYER_01
 66
     1
 10
0.0
 20
0.0
 30
0.0
 70
     1
  0
VERTEX
  5
FD
  8
LAYER_01
 10
8397.76989314521
 20
2644.780069272806
 30
0.0
  0
VERTEX
  5
FE
  8
LAYER_01
 10
8397.76989314521
 20
2616.305188602261
 30
0.0
  0
VERTEX
  5
FF
  8
LAYER_01
 10
8416.989385571114
 20
2597.085696176357
 30
0.0
  0
VERTEX
  5
100
  8
LAYER_01
 10
8436.208877997018
 20
2616.305188602262
 30
0.0
  0
VERTEX
  5
101
  8
LAYER_01
 10
8436.208877997022
 20
2644.780069272812
 30
0.0
  0
VERTEX
  5
102
  8
LAYER_01
 10
8416.989385571118
 20
2663.999561698715
 30
0.0
  0
SEQEND
  5
103
  8
LAYER_01
  0
POLYLINE
  5
104
  8
LAYER_01
 66
     1
 10
0.0
 20
0.0
 30
0.0
 70
     1
  0
VERTEX
  5
105
  8
LAYER_01
 10
8446.63478881312
 20
2693.64496494072
 30
0.0
  0
VERTEX
  5
106
  8
LAYER_01
 10
8465.854281239022
 20
2712.864457366625
 30
0.0
  0
VERTEX
  5
107
  8
LAYER_01
 10
8494.329161909573
 20
2712.864457366625
 30
0.0
  0
VERTEX
  5
108
  8
LAYER_01
 10
8513.548654335478
 20
2693.64496494072
 30
0.0
  0
VERTEX
  5
109
  8
LAYER_01
 10
8494.329161909573
 20
2674.425472514815
 30
0.0
  0
VERTEX
  5
10A
  8
LAYER_01
 10
8465.85428123903
 20
2674.425472514815
 30
0.0
  0
SEQEND
  5
10B
  8
LAYER_01
  0
POLYLINE
  5
10C
  8
LAYER_01
 66
     1
 10
0.0
 20
0.0
 30
0.0
 70
     1
  0
VERTEX
  5
10D
  8
LAYER_01
 10
8436.20887799702
 20
2770.984741279177
 30
0.0
  0
VERTEX
  5
10E
  8
LAYER_01
 10
8436.208877997022
 20
2742.509860608633
 30
0.0
  0
VERTEX
  5
10F
  8
LAYER_01
 10
8416.989385571116
 20
2723.290368182726
 30
0.0
  0
VERTEX
  5
110
  8
LAYER_01
 10
8397.76989314521
 20
2742.509860608629
 30
0.0
  0
VERTEX
  5
111
  8
LAYER_01
 10
8397.76989314521
 20
2770.984741279177
 30
0.0
  0
VERTEX
  5
112
  8
LAYER_01
 10
8416.989385571114
 20
2790.204233705082
 30
0.0
  0
SEQEND
  5
113
  8
LAYER_01
  0
POLYLINE
  5
114
  8
LAYER_01
 66
     1
 10
0.0
 20
0.0
 30
0.0
  0
VERTEX
  5
115
  8
LAYER_01
 10
8298.552362353608
 20
2731.058016971582
 30
0.0
  0
VERTEX
  5
116
  8
LAYER_01
 10
8322.283734075512
 20
2754.789388693487
 30
0.0
  0
VERTEX
  5
117
  8
LAYER_01
 10
8355.844961818348
 20
2754.789388693487
 30
0.0
  0
VERTEX
  5
118
  8
LAYER_01
 10
8355.844961818348
 20
2788.350616436323
 30
0.0
  0
VERTEX
  5
119
  8
LAYER_01
 10
8379.576333540252
 20
2812.081988158227
 30
0.0
  0
SEQEND
  5
11A
  8
LAYER_01
  0
POLYLINE
  5
11B
  8
LAYER_01
 66
     1
 10
0.0
 20
0.0
 30
0.0
  0
VERTEX
  5
11C
  8
LAYER_01
 10
8298.552362353608
 20
2656.231912909857
 30
0.0
  0
VERTEX
  5
11D
  8
LAYER_01
 10
8322.283734075512
 20
2632.500541187952
 30
0.0
  0
VERTEX
  5
11E
  8
LAYER_01
 10
8355.844961818348
 20
2632.500541187952
 30
0.0
  0
VERTEX
  5
11F
  8
LAYER_01
 10
8355.844961818348
 20
2598.939313445117
 30
0.0
  0
VERTEX
  5
120
  8
LAYER_01
 10
8379.576333540252
 20
2575.207941723212
 30
0.0
  0
SEQEND
  5
121
  8
LAYER_01
  0
POLYLINE
  5
122
  8
LAYER_01
 66
     1
 10
0.0
 20
0.0
 30
0.0
  0
VERTEX
  5
123
  8
LAYER_01
 10
8454.402437601979
 20
2575.207941723213
 30
0.0
  0
VERTEX
  5
124
  8
LAYER_01
 10
8478.133809323881
 20
2598.939313445116
 30
0.0
  0
VERTEX
  5
125
  8
LAYER_01
 10
8478.133809323881
 20
2632.500541187952
 30
0.0
  0
VERTEX
  5
126
  8
LAYER_01
 10
8511.695037066718
 20
2632.500541187952
 30
0.0
  0
VERTEX
  5
127
  8
LAYER_01
 10
8535.426408788622
 20
2656.231912909856
 30
0.0
  0
SEQEND
  5
128
  8
LAYER_01
  0
POLYLINE
  5
129
  8
LAYER_01
 66
     1
 10
0.0
 20
0.0
 30
0.0
  0
VERTEX
  5
12A
  8
LAYER_01
 10
8454.402437601979
 20
2812.081988158227
 30
0.0
  0
VERTEX
  5
12B
  8
LAYER_01
 10
8478.133809323883
 20
2788.350616436323
 30
0.0
  0
VERTEX
  5
12C
  8
LAYER_01
 10
8478.133809323883
 20
2754.789388693488
 30
0.0
  0
VERTEX
  5
12D
  8
LAYER_01
 10
8511.695037066718
 20
2754.789388693488
 30
0.0
  0
VERTEX
  5
12E
  8
LAYER_01
 10
8535.426408788624
 20
2731.058016971583
 30
0.0
  0
SEQEND
  5
12F
  8
LAYER_01
  0
POLYLINE
  5
130
  8
LAYER_01
 66
     1
 10
0.0
 20
0.0
 30
0.0
 70
     1
  0
VERTEX
  5
131
  8
LAYER_01
 10
8813.397702102691
 20
2437.5514260798
 30
0.0
  0
VERTEX
  5
132
  8
LAYER_01
 10
8794.178209676787
 20
2456.770918505706
 30
0.0
  0
VERTEX
  5
133
  8
LAYER_01
 10
8813.397702102691
 20
2475.99041093161
 30
0.0
  0
VERTEX
  5
134
  8
LAYER_01
 10
8841.872582773236
 20
2475.99041093161
 30
0.0
  0
VERTEX
  5
135
  8
LAYER_01
 10
8861.092075199142
 20
2456.770918505706
 30
0.0
  0
VERTEX
  5
136
  8
LAYER_01
 10
8841.872582773238
 20
2437.551426079801
 30
0.0
  0
SEQEND
  5
137
  8
LAYER_01
  0
POLYLINE
  5
138
  8
LAYER_01
 66
     1
 10
0.0
 20
0.0
 30
0.0
 70
     1
  0
VERTEX
  5
139
  8
LAYER_01
 10
8871.517986015242
 20
2407.906022837793
 30
0.0
  0
VERTEX
  5
13A
  8
LAYER_01
 10
8871.517986015242
 20
2379.431142167247
 30
0.0
  0
VERTEX
  5
13B
  8
LAYER_01
 10
8890.737478441146
 20
2360.211649741344
 30
0.0
  0
VERTEX
  5
13C
  8
LAYER_01
 10
8909.95697086705
 20
2379.431142167248
 30
0.0
  0
VERTEX
  5
13D
  8
LAYER_01
 10
8909.956970867053
 20
2407.906022837798
 30
0.0
  0
VERTEX
  5
13E
  8
LAYER_01
 10
8890.73747844115
 20
2427.125515263701
 30
0.0
  0
SEQEND
  5
13F
  8
LAYER_01
  0
POLYLINE
  5
140
  8
LAYER_01
 66
     1
 10
0.0
 20
0.0
 30
0.0
 70
     1
  0
VERTEX
  5
141
  8
LAYER_01
 10
8920.382881683152
 20
2456.770918505707
 30
0.0
  0
VERTEX
  5
142
  8
LAYER_01
 10
8939.602374109054
 20
2475.990410931611
 30
0.0
  0
VERTEX
  5
143
  8
LAYER_01
 10
8968.077254779604
 20
2475.990410931611
 30
0.0
  0
VERTEX
  5
144
  8
LAYER_01
 10
8987.29674720551
 20
2456.770918505706
 30
0.0
  0
VERTEX
  5
145
  8
LAYER_01
 10
8968.077254779604
 20
2437.551426079801
 30
0.0
  0
VERTEX
  5
146
  8
LAYER_01
 10
8939.602374109061
 20
2437.551426079801
 30
0.0
  0
SEQEND
  5
147
  8
LAYER_01
  0
POLYLINE
  5
148
  8
LAYER_01
 66
     1
 10
0.0
 20
0.0
 30
0.0
 70
     1
  0
VERTEX
  5
149
  8
LAYER_01
 10
8909.956970867051
 20
2534.110694844163
 30
0.0
  0
VERTEX
  5
14A
  8
LAYER_01
 10
8909.956970867053
 20
2505.635814173619
 30
0.0
  0
VERTEX
  5
14B
  8
LAYER_01
 10
8890.737478441148
 20
2486.416321747712
 30
0.0
  0
VERTEX
  5
14C
  8
LAYER_01
 10
8871.517986015242
 20
2505.635814173615
 30
0.0
  0
VERTEX
  5
14D
  8
LAYER_01
 10
8871.517986015242
 20
2534.110694844163
 30
0.0
  0
VERTEX
  5
14E
  8
LAYER_01
 10
8890.737478441146
 20
2553.330187270068
 30
0.0
  0
SEQEND
  5
14F
  8
LAYER_01
  0
POLYLINE
  5
150
  8
LAYER_01
 66
     1
 10
0.0
 20
0.0
 30
0.0
  0
VERTEX
  5
151
  8
LAYER_01
 10
8772.30045522364
 20
2494.183970536568
 30
0.0
  0
VERTEX
  5
152
  8
LAYER_01
 10
8796.031826945544
 20
2517.915342258473
 30
0.0
  0
VERTEX
  5
153
  8
LAYER_01
 10
8829.59305468838
 20
2517.915342258473
 30
0.0
  0
VERTEX
  5
154
  8
LAYER_01
 10
8829.59305468838
 20
2551.476570001309
 30
0.0
  0
VERTEX
  5
155
  8
LAYER_01
 10
8853.324426410283
 20
2575.207941723213
 30
0.0
  0
SEQEND
  5
156
  8
LAYER_01
  0
POLYLINE
  5
157
  8
LAYER_01
 66
     1
 10
0.0
 20
0.0
 30
0.0
  0
VERTEX
  5
158
  8
LAYER_01
 10
8772.30045522364
 20
2419.357866474843
 30
0.0
  0
VERTEX
  5
159
  8
LAYER_01
 10
8796.031826945544
 20
2395.626494752938
 30
0.0
  0
VERTEX
  5
15A
  8
LAYER_01
 10
8829.59305468838
 20
2395.626494752938
 30
0.0
  0
VERTEX
  5
15B
  8
LAYER_01
 10
8829.59305468838
 20
2362.065267010103
 30
0.0
  0
VERTEX
  5
15C
  8
LAYER_01
 10
8853.324426410283
 20
2338.333895288198
 30
0.0
  0
SEQEND
  5
15D
  8
LAYER_01
  0
POLYLINE
  5
15E
  8
LAYER_01
 66
     1
 10
0.0
 20
0.0
 30
0.0
  0
VERTEX
  5
15F
  8
LAYER_01
 10
8928.15053047201
 20
2338.333895288199
 30
0.0
  0
VERTEX
  5
160
  8
LAYER_01
 10
8951.881902193913
 20
2362.065267010102
 30
0.0
  0
VERTEX
  5
161
  8
LAYER_01
 10
8951.881902193913
 20
2395.626494752938
 30
0.0
  0
VERTEX
  5
162
  8
LAYER_01
 10
8985.44312993675
 20
2395.626494752938
 30
0.0
  0
VERTEX
  5
163
  8
LAYER_01
 10
9009.174501658654
 20
2419.357866474842
 30
0.0
  0
SEQEND
  5
164
  8
LAYER_01
  0
POLYLINE
  5
165
  8
LAYER_01
 66
     1
 10
0.0
 20
0.0
 30
0.0
  0
VERTEX
  5
166
  8
LAYER_01
 10
8928.15053047201
 20
2575.207941723213
 30
0.0
  0
VERTEX
  5
167
  8
LAYER_01
 10
8951.881902193914
 20
2551.476570001309
 30
0.0
  0
VERTEX
  5
168
  8
LAYER_01
 10
8951.881902193914
 20
2517.915342258474
 30
0.0
  0
VERTEX
  5
169
  8
LAYER_01
 10
8985.44312993675
 20
2517.915342258474
 30
0.0
  0
VERTEX
  5
16A
  8
LAYER_01
 10
9009.174501658656
 20
2494.183970536569
 30
0.0
  0
SEQEND
  5
16B
  8
LAYER_01
  0
POLYLINE
  5
16C
  8
LAYER_01
 66
     1
 10
0.0
 20
0.0
 30
0.0
 70
     1
  0
VERTEX
  5
16D
  8
LAYER_01
 10
8576.523655667675
 20
2437.5514260798
 30
0.0
  0
VERTEX
  5
16E
  8
LAYER_01
 10
8557.304163241772
 20
2456.770918505706
 30
0.0
  0
VERTEX
  5
16F
  8
LAYER_01
 10
8576.523655667675
 20
2475.99041093161
 30
0.0
  0
VERTEX
  5
170
  8
LAYER_01
 10
8604.99853633822
 20
2475.99041093161
 30
0.0
  0
VERTEX
  5
171
  8
LAYER_01
 10
8624.218028764126
 20
2456.770918505706
 30
0.0
  0
VERTEX
  5
172
  8
LAYER_01
 10
8604.998536338222
 20
2437.551426079801
 30
0.0
  0
SEQEND
  5
173
  8
LAYER_01
  0
POLYLINE
  5
174
  8
LAYER_01
 66
     1
 10
0.0
 20
0.0
 30
0.0
 70
     1
  0
VERTEX
  5
175
  8
LAYER_01
 10
8634.643939580226
 20
2407.906022837793
 30
0.0
  0
VERTEX
  5
176
  8
LAYER_01
 10
8634.643939580226
 20
2379.431142167247
 30
0.0
  0
VERTEX
  5
177
  8
LAYER_01
 10
8653.86343200613
 20
2360.211649741344
 30
0.0
  0
VERTEX
  5
178
  8
LAYER_01
 10
8673.082924432034
 20
2379.431142167248
 30
0.0
  0
VERTEX
  5
179
  8
LAYER_01
 10
8673.082924432038
 20
2407.906022837798
 30
0.0
  0
VERTEX
  5
17A
  8
LAYER_01
 10
8653.863432006134
 20
2427.125515263701
 30
0.0
  0
SEQEND
  5
17B
  8
LAYER_01
  0
POLYLINE
  5
17C
  8
LAYER_01
 66
     1
 10
0.0
 20
0.0
 30
0.0
 70
     1
  0
VERTEX
  5
17D
  8
LAYER_01
 10
8683.508835248136
 20
2456.770918505707
 30
0.0
  0
VERTEX
  5
17E
  8
LAYER_01
 10
8702.728327674038
 20
2475.990410931611
 30
0.0
  0
VERTEX
  5
17F
  8
LAYER_01
 10
8731.203208344588
 20
2475.990410931611
 30
0.0
  0
VERTEX
  5
180
  8
LAYER_01
 10
8750.422700770494
 20
2456.770918505706
 30
0.0
  0
VERTEX
  5
181
  8
LAYER_01
 10
8731.203208344588
 20
2437.551426079801
 30
0.0
  0
VERTEX
  5
182
  8
LAYER_01
 10
8702.728327674045
 20
2437.551426079801
 30
0.0
  0
SEQEND
  5
183
  8
LAYER_01
  0
POLYLINE
  5
184
  8
LAYER_01
 66
     1
 10
0.0
 20
0.0
 30
0.0
 70
     1
  0
VERTEX
  5
185
  8
LAYER_01
 10
8673.082924432036
 20
2534.110694844163
 30
0.0
  0
VERTEX
  5
186
  8
LAYER_01
 10
8673.082924432038
 20
2505.635814173619
 30
0.0
  0
VERTEX
  5
187
  8
LAYER_01
 10
8653.863432006132
 20
2486.416321747712
 30
0.0
  0
VERTEX
  5
188
  8
LAYER_01
 10
8634.643939580226
 20
2505.635814173615
 30
0.0
  0
VERTEX
  5
189
  8
LAYER_01
 10
8634.643939580226
 20
2534.110694844163
 30
0.0
  0
VERTEX
  5
18A
  8
LAYER_01
 10
8653.86343200613
 20
2553.330187270068
 30
0.0
  0
SEQEND
  5
18B
  8
LAYER_01
  0
POLYLINE
  5
18C
  8
LAYER_01
 66
     1
 10
0.0
 20
0.0
 30
0.0
  0
VERTEX
  5
18D
  8
LAYER_01
 10
8535.426408788624
 20
2494.183970536568
 30
0.0
  0
VERTEX
  5
18E
  8
LAYER_01
 10
8559.157780510528
 20
2517.915342258473
 30
0.0
  0
VERTEX
  5
18F
  8
LAYER_01
 10
8592.719008253363
 20
2517.915342258473
 30
0.0
  0
VERTEX
  5
190
  8
LAYER_01
 10
8592.719008253363
 20
2551.476570001309
 30
0.0
  0
VERTEX
  5
191
  8
LAYER_01
 10
8616.450379975267
 20
2575.207941723213
 30
0.0
  0
SEQEND
  5
192
  8
LAYER_01
  0
POLYLINE
  5
193
  8
LAYER_01
 66
     1
 10
0.0
 20
0.0
 30
0.0
  0
VERTEX
  5
194
  8
LAYER_01
 10
8535.426408788624
 20
2419.357866474843
 30
0.0
  0
VERTEX
  5
195
  8
LAYER_01
 10
8559.157780510528
 20
2395.626494752938
 30
0.0
  0
VERTEX
  5
196
  8
LAYER_01
 10
8592.719008253363
 20
2395.626494752938
 30
0.0
  0
VERTEX
  5
197
  8
LAYER_01
 10
8592.719008253363
 20
2362.065267010103
 30
0.0
  0
VERTEX
  5
198
  8
LAYER_01
 10
8616.450379975267
 20
2338.333895288198
 30
0.0
  0
SEQEND
  5
199
  8
LAYER_01
  0
POLYLINE
  5
19A
  8
LAYER_01
 66
     1
 10
0.0
 20
0.0
 30
0.0
  0
VERTEX
  5
19B
  8
LAYER_01
 10
8691.276484036995
 20
2338.333895288199
 30
0.0
  0
VERTEX
  5
19C
  8
LAYER_01
 10
8715.007855758897
 20
2362.065267010102
 30
0.0
  0
VERTEX
  5
19D
  8
LAYER_01
 10
8715.007855758897
 20
2395.626494752938
 30
0.0
  0
VERTEX
  5
19E
  8
LAYER_01
 10
8748.569083501734
 20
2395.626494752938
 30
0.0
  0
VERTEX
  5
19F
  8
LAYER_01
 10
8772.300455223638
 20
2419.357866474842
 30
0.0
  0
SEQEND
  5
1A0
  8
LAYER_01
  0
POLYLINE
  5
1A1
  8
LAYER_01
 66
     1
 10
0.0
 20
0.0
 30
0.0
  0
VERTEX
  5
1A2
  8
LAYER_01
 10
8691.276484036995
 20
2575.207941723213
 30
0.0
  0
VERTEX
  5
1A3
  8
LAYER_01
 10
8715.007855758899
 20
2551.476570001309
 30
0.0
  0
VERTEX
  5
1A4
  8
LAYER_01
 10
8715.007855758899
 20
2517.915342258474
 30
0.0
  0
VERTEX
  5
1A5
  8
LAYER_01
 10
8748.569083501734
 20
2517.915342258474
 30
0.0
  0
VERTEX
  5
1A6
  8
LAYER_01
 10
8772.30045522364
 20
2494.183970536569
 30
0.0
  0
SEQEND
  5
1A7
  8
LAYER_01
  0
POLYLINE
  5
1A8
  8
LAYER_01
 66
     1
 10
0.0
 20
0.0
 30
0.0
 70
     1
  0
VERTEX
  5
1A9
  8
LAYER_01
 10
8339.64960923266
 20
2437.5514260798
 30
0.0
  0
VERTEX
  5
1AA
  8
LAYER_01
 10
8320.430116806756
 20
2456.770918505706
 30
0.0
  0
VERTEX
  5
1AB
  8
LAYER_01
 10
8339.64960923266
 20
2475.99041093161
 30
0.0
  0
VERTEX
  5
1AC
  8
LAYER_01
 10
8368.124489903204
 20
2475.99041093161
 30
0.0
  0
VERTEX
  5
1AD
  8
LAYER_01
 10
8387.34398232911
 20
2456.770918505706
 30
0.0
  0
VERTEX
  5
1AE
  8
LAYER_01
 10
8368.124489903206
 20
2437.551426079801
 30
0.0
  0
SEQEND
  5
1AF
  8
LAYER_01
  0
POLYLINE
  5
1B0
  8
LAYER_01
 66
     1
 10
0.0
 20
0.0
 30
0.0
 70
     1
  0
VERTEX
  5
1B1
  8
LAYER_01
 10
8397.76989314521
 20
2407.906022837793
 30
0.0
  0
VERTEX
  5
1B2
  8
LAYER_01
 10
8397.76989314521
 20
2379.431142167247
 30
0.0
  0
VERTEX
  5
1B3
  8
LAYER_01
 10
8416.989385571114
 20
2360.211649741344
 30
0.0
  0
VERTEX
  5
1B4
  8
LAYER_01
 10
8436.208877997018
 20
2379.431142167248
 30
0.0
  0
VERTEX
  5
1B5
  8
LAYER_01
 10
8436.208877997022
 20
2407.906022837798
 30
0.0
  0
VERTEX
  5
1B6
  8
LAYER_01
 10
8416.989385571118
 20
2427.125515263701
 30
0.0
  0
SEQEND
  5
1B7
  8
LAYER_01
  0
POLYLINE
  5
1B8
  8
LAYER_01
 66
     1
 10
0.0
 20
0.0
 30
0.0
 70
     1
  0
VERTEX
  5
1B9
  8
LAYER_01
 10
8446.63478881312
 20
2456.770918505707
 30
0.0
  0
VERTEX
  5
1BA
  8
LAYER_01
 10
8465.854281239022
 20
2475.990410931611
 30
0.0
  0
VERTEX
  5
1BB
  8
LAYER_01
 10
8494.329161909573
 20
2475.990410931611
 30
0.0
  0
VERTEX
  5
1BC
  8
LAYER_01
 10
8513.548654335478
 20
2456.770918505706
 30
0.0
  0
VERTEX
  5
1BD
  8
LAYER_01
 10
8494.329161909573
 20
2437.551426079801
 30
0.0
  0
VERTEX
  5
1BE
  8
LAYER_01
 10
8465.85428123903
 20
2437.551426079801
 30
0.0
  0
SEQEND
  5
1BF
  8
LAYER_01
  0
POLYLINE
  5
1C0
  8
LAYER_01
 66
     1
 10
0.0
 20
0.0
 30
0.0
 70
     1
  0
VERTEX
  5
1C1
  8
LAYER_01
 10
8436.20887799702
 20
2534.110694844163
 30
0.0
  0
VERTEX
  5
1C2
  8
LAYER_01
 10
8436.208877997022
 20
2505.635814173619
 30
0.0
  0
VERTEX
  5
1C3
  8
LAYER_01
 10
8416.989385571116
 20
2486.416321747712
 30
0.0
  0
VERTEX
  5
1C4
  8
LAYER_01
 10
8397.76989314521
 20
2505.635814173615
 30
0.0
  0
VERTEX
  5
1C5
  8
LAYER_01
 10
8397.76989314521
 20
2534.110694844163
 30
0.0
  0
VERTEX
  5
1C6
  8
LAYER_01
 10
8416.989385571114
 20
2553.330187270068
 30
0.0
  0
SEQEND
  5
1C7
  8
LAYER_01
  0
POLYLINE
  5
1C8
  8
LAYER_01
 66
     1
 10
0.0
 20
0.0
 30
0.0
  0
VERTEX
  5
1C9
  8
LAYER_01
 10
8298.552362353608
 20
2494.183970536568
 30
0.0
  0
VERTEX
  5
1CA
  8
LAYER_01
 10
8322.283734075512
 20
2517.915342258473
 30
0.0
  0
VERTEX
  5
1CB
  8
LAYER_01
 10
8355.844961818348
 20
2517.915342258473
 30
0.0
  0
VERTEX
  5
1CC
  8
LAYER_01
 10
8355.844961818348
 20
2551.476570001309
 30
0.0
  0
VERTEX
  5
1CD
  8
LAYER_01
 10
8379.576333540252
 20
2575.207941723213
 30
0.0
  0
SEQEND
  5
1CE
  8
LAYER_01
  0
POLYLINE
  5
1CF
  8
LAYER_01
 66
     1
 10
0.0
 20
0.0
 30
0.0
  0
VERTEX
  5
1D0
  8
LAYER_01
 10
8298.552362353608
 20
2419.357866474843
 30
0.0
  0
VERTEX
  5
1D1
  8
LAYER_01
 10
8322.283734075512
 20
2395.626494752938
 30
0.0
  0
VERTEX
  5
1D2
  8
LAYER_01
 10
8355.844961818348
 20
2395.626494752938
 30
0.0
  0
VERTEX
  5
1D3
  8
LAYER_01
 10
8355.844961818348
 20
2362.065267010103
 30
0.0
  0
VERTEX
  5
1D4
  8
LAYER_01
 10
8379.576333540252
 20
2338.333895288198
 30
0.0
  0
SEQEND
  5
1D5
  8
LAYER_01
  0
POLYLINE
  5
1D6
  8
LAYER_01
 66
     1
 10
0.0
 20
0.0
 30
0.0
  0
VERTEX
  5
1D7
  8
LAYER_01
 10
8454.402437601979
 20
2338.333895288199
 30
0.0
  0
VERTEX
  5
1D8
  8
LAYER_01
 10
8478.133809323881
 20
2362.065267010102
 30
0.0
  0
VERTEX
  5
1D9
  8
LAYER_01
 10
8478.133809323881
 20
2395.626494752938
 30
0.0
  0
VERTEX
  5
1DA
  8
LAYER_01
 10
8511.695037066718
 20
2395.626494752938
 30
0.0
  0
VERTEX
  5
1DB
  8
LAYER_01
 10
8535.426408788622
 20
2419.357866474842
 30
0.0
  0
SEQEND
  5
1DC
  8
LAYER_01
  0
POLYLINE
  5
1DD
  8
LAYER_01
 66
     1
 10
0.0
 20
0.0
 30
0.0
  0
VERTEX
  5
1DE
  8
LAYER_01
 10
8454.402437601979
 20
2575.207941723213
 30
0.0
  0
VERTEX
  5
1DF
  8
LAYER_01
 10
8478.133809323883
 20
2551.476570001309
 30
0.0
  0
VERTEX
  5
1E0
  8
LAYER_01
 10
8478.133809323883
 20
2517.915342258474
 30
0.0
  0
VERTEX
  5
1E1
  8
LAYER_01
 10
8511.695037066718
 20
2517.915342258474
 30
0.0
  0
VERTEX
  5
1E2
  8
LAYER_01
 10
8535.426408788624
 20
2494.183970536569
 30
0.0
  0
SEQEND
  5
1E3
  8
LAYER_01
  0
POLYLINE
  5
1E4
  8
LAYER_01
 66
     1
 10
0.0
 20
0.0
 30
0.0
 70
     1
  0
VERTEX
  5
1E5
  8
LAYER_01
 10
8813.397702102691
 20
2200.677379644786
 30
0.0
  0
VERTEX
  5
1E6
  8
LAYER_01
 10
8794.178209676787
 20
2219.896872070692
 30
0.0
  0
VERTEX
  5
1E7
  8
LAYER_01
 10
8813.397702102691
 20
2239.116364496596
 30
0.0
  0
VERTEX
  5
1E8
  8
LAYER_01
 10
8841.872582773236
 20
2239.116364496596
 30
0.0
  0
VERTEX
  5
1E9
  8
LAYER_01
 10
8861.092075199142
 20
2219.896872070692
 30
0.0
  0
VERTEX
  5
1EA
  8
LAYER_01
 10
8841.872582773238
 20
2200.677379644787
 30
0.0
  0
SEQEND
  5
1EB
  8
LAYER_01
  0
POLYLINE
  5
1EC
  8
LAYER_01
 66
     1
 10
0.0
 20
0.0
 30
0.0
 70
     1
  0
VERTEX
  5
1ED
  8
LAYER_01
 10
8871.517986015242
 20
2171.031976402779
 30
0.0
  0
VERTEX
  5
1EE
  8
LAYER_01
 10
8871.517986015242
 20
2142.557095732233
 30
0.0
  0
VERTEX
  5
1EF
  8
LAYER_01
 10
8890.737478441146
 20
2123.33760330633
 30
0.0
  0
VERTEX
  5
1F0
  8
LAYER_01
 10
8909.95697086705
 20
2142.557095732234
 30
0.0
  0
VERTEX
  5
1F1
  8
LAYER_01
 10
8909.956970867053
 20
2171.031976402784
 30
0.0
  0
VERTEX
  5
1F2
  8
LAYER_01
 10
8890.73747844115
 20
2190.251468828687
 30
0.0
  0
SEQEND
  5
1F3
  8
LAYER_01
  0
POLYLINE
  5
1F4
  8
LAYER_01
 66
     1
 10
0.0
 20
0.0
 30
0.0
 70
     1
  0
VERTEX
  5
1F5
  8
LAYER_01
 10
8920.382881683152
 20
2219.896872070693
 30
0.0
  0
VERTEX
  5
1F6
  8
LAYER_01
 10
8939.602374109054
 20
2239.116364496597
 30
0.0
  0
VERTEX
  5
1F7
  8
LAYER_01
 10
8968.077254779604
 20
2239.116364496597
 30
0.0
  0
VERTEX
  5
1F8
  8
LAYER_01
 10
8987.29674720551
 20
2219.896872070692
 30
0.0
  0
VERTEX
  5
1F9
  8
LAYER_01
 10
8968.077254779604
 20
2200.677379644787
 30
0.0
  0
VERTEX
  5
1FA
  8
LAYER_01
 10
8939.602374109061
 20
2200.677379644787
 30
0.0
  0
SEQEND
  5
1FB
  8
LAYER_01
  0
POLYLINE
  5
1FC
  8
LAYER_01
 66
     1
 10
0.0
 20
0.0
 30
0.0
 70
     1
  0
VERTEX
  5
1FD
  8
LAYER_01
 10
8909.956970867051
 20
2297.236648409149
 30
0.0
  0
VERTEX
  5
1FE
  8
LAYER_01
 10
8909.956970867053
 20
2268.761767738605
 30
0.0
  0
VERTEX
  5
1FF
  8
LAYER_01
 10
8890.737478441148
 20
2249.542275312698
 30
0.0
  0
VERTEX
  5
200
  8
LAYER_01
 10
8871.517986015242
 20
2268.761767738602
 30
0.0
  0
VERTEX
  5
201
  8
LAYER_01
 10
8871.517986015242
 20
2297.236648409149
 30
0.0
  0
VERTEX
  5
202
  8
LAYER_01
 10
8890.737478441146
 20
2316.456140835054
 30
0.0
  0
SEQEND
  5
203
  8
LAYER_01
  0
POLYLINE
  5
204
  8
LAYER_01
 66
     1
 10
0.0
 20
0.0
 30
0.0
  0
VERTEX
  5
205
  8
LAYER_01
 10
8772.30045522364
 20
2257.309924101554
 30
0.0
  0
VERTEX
  5
206
  8
LAYER_01
 10
8796.031826945544
 20
2281.041295823459
 30
0.0
  0
VERTEX
  5
207
  8
LAYER_01
 10
8829.59305468838
 20
2281.041295823459
 30
0.0
  0
VERTEX
  5
208
  8
LAYER_01
 10
8829.59305468838
 20
2314.602523566295
 30
0.0
  0
VERTEX
  5
209
  8
LAYER_01
 10
8853.324426410283
 20
2338.3338952882
 30
0.0
  0
SEQEND
  5
20A
  8
LAYER_01
  0
POLYLINE
  5
20B
  8
LAYER_01
 66
     1
 10
0.0
 20
0.0
 30
0.0
  0
VERTEX
  5
20C
  8
LAYER_01
 10
8772.30045522364
 20
2182.483820039829
 30
0.0
  0
VERTEX
  5
20D
  8
LAYER_01
 10
8796.031826945544
 20
2158.752448317924
 30
0.0
  0
VERTEX
  5
20E
  8
LAYER_01
 10
8829.59305468838
 20
2158.752448317925
 30
0.0
  0
VERTEX
  5
20F
  8
LAYER_01
 10
8829.59305468838
 20
2125.191220575089
 30
0.0
  0
VERTEX
  5
210
  8
LAYER_01
 10
8853.324426410283
 20
2101.459848853184
 30
0.0
  0
SEQEND
  5
211
  8
LAYER_01
  0
POLYLINE
  5
212
  8
LAYER_01
 66
     1
 10
0.0
 20
0.0
 30
0.0
  0
VERTEX
  5
213
  8
LAYER_01
 10
8928.15053047201
 20
2101.459848853185
 30
0.0
  0
VERTEX
  5
214
  8
LAYER_01
 10
8951.881902193913
 20
2125.191220575088
 30
0.0
  0
VERTEX
  5
215
  8
LAYER_01
 10
8951.881902193913
 20
2158.752448317924
 30
0.0
  0
VERTEX
  5
216
  8
LAYER_01
 10
8985.44312993675
 20
2158.752448317924
 30
0.0
  0
VERTEX
  5
217
  8
LAYER_01
 10
9009.174501658654
 20
2182.483820039828
 30
0.0
  0
SEQEND
  5
218
  8
LAYER_01
  0
POLYLINE
  5
219
  8
LAYER_01
 66
     1
 10
0.0
 20
0.0
 30
0.0
  0
VERTEX
  5
21A
  8
LAYER_01
 10
8928.15053047201
 20
2338.3338952882
 30
0.0
  0
VERTEX
  5
21B
  8
LAYER_01
 10
8951.881902193914
 20
2314.602523566296
 30
0.0
  0
VERTEX
  5
21C
  8
LAYER_01
 10
8951.881902193914
 20
2281.04129582346
 30
0.0
  0
VERTEX
  5
21D
  8
LAYER_01
 10
8985.44312993675
 20
2281.04129582346
 30
0.0
  0
VERTEX
  5
21E
  8
LAYER_01
 10
9009.174501658656
 20
2257.309924101555
 30
0.0
  0
SEQEND
  5
21F
  8
LAYER_01
  0
POLYLINE
  5
220
  8
LAYER_01
 66
     1
 10
0.0
 20
0.0
 30
0.0
 70
     1
  0
VERTEX
  5
221
  8
LAYER_01
 10
8576.523655667675
 20
2200.677379644786
 30
0.0
  0
VERTEX
  5
222
  8
LAYER_01
 10
8557.304163241772
 20
2219.896872070692
 30
0.0
  0
VERTEX
  5
223
  8
LAYER_01
 10
8576.523655667675
 20
2239.116364496596
 30
0.0
  0
VERTEX
  5
224
  8
LAYER_01
 10
8604.99853633822
 20
2239.116364496596
 30
0.0
  0
VERTEX
  5
225
  8
LAYER_01
 10
8624.218028764126
 20
2219.896872070692
 30
0.0
  0
VERTEX
  5
226
  8
LAYER_01
 10
8604.998536338222
 20
2200.677379644787
 30
0.0
  0
SEQEND
  5
227
  8
LAYER_01
  0
POLYLINE
  5
228
  8
LAYER_01
 66
     1
 10
0.0
 20
0.0
 30
0.0
 70
     1
  0
VERTEX
  5
229
  8
LAYER_01
 10
8634.643939580226
 20
2171.031976402779
 30
0.0
  0
VERTEX
  5
22A
  8
LAYER_01
 10
8634.643939580226
 20
2142.557095732233
 30
0.0
  0
VERTEX
  5
22B
  8
LAYER_01
 10
8653.86343200613
 20
2123.33760330633
 30
0.0
  0
VERTEX
  5
22C
  8
LAYER_01
 10
8673.082924432034
 20
2142.557095732234
 30
0.0
  0
VERTEX
  5
22D
  8
LAYER_01
 10
8673.082924432038
 20
2171.031976402784
 30
0.0
  0
VERTEX
  5
22E
  8
LAYER_01
 10
8653.863432006134
 20
2190.251468828687
 30
0.0
  0
SEQEND
  5
22F
  8
LAYER_01
  0
POLYLINE
  5
230
  8
LAYER_01
 66
     1
 10
0.0
 20
0.0
 30
0.0
 70
     1
  0
VERTEX
  5
231
  8
LAYER_01
 10
8683.508835248136
 20
2219.896872070693
 30
0.0
  0
VERTEX
  5
232
  8
LAYER_01
 10
8702.728327674038
 20
2239.116364496597
 30
0.0
  0
VERTEX
  5
233
  8
LAYER_01
 10
8731.203208344588
 20
2239.116364496597
 30
0.0
  0
VERTEX
  5
234
  8
LAYER_01
 10
8750.422700770494
 20
2219.896872070692
 30
0.0
  0
VERTEX
  5
235
  8
LAYER_01
 10
8731.203208344588
 20
2200.677379644787
 30
0.0
  0
VERTEX
  5
236
  8
LAYER_01
 10
8702.728327674045
 20
2200.677379644787
 30
0.0
  0
SEQEND
  5
237
  8
LAYER_01
  0
POLYLINE
  5
238
  8
LAYER_01
 66
     1
 10
0.0
 20
0.0
 30
0.0
 70
     1
  0
VERTEX
  5
239
  8
LAYER_01
 10
8673.082924432036
 20
2297.236648409149
 30
0.0
  0
VERTEX
  5
23A
  8
LAYER_01
 10
8673.082924432038
 20
2268.761767738605
 30
0.0
  0
VERTEX
  5
23B
  8
LAYER_01
 10
8653.863432006132
 20
2249.542275312698
 30
0.0
  0
VERTEX
  5
23C
  8
LAYER_01
 10
8634.643939580226
 20
2268.761767738602
 30
0.0
  0
VERTEX
  5
23D
  8
LAYER_01
 10
8634.643939580226
 20
2297.236648409149
 30
0.0
  0
VERTEX
  5
23E
  8
LAYER_01
 10
8653.86343200613
 20
2316.456140835054
 30
0.0
  0
SEQEND
  5
23F
  8
LAYER_01
  0
POLYLINE
  5
240
  8
LAYER_01
 66
     1
 10
0.0
 20
0.0
 30
0.0
  0
VERTEX
  5
241
  8
LAYER_01
 10
8535.426408788624
 20
2257.309924101554
 30
0.0
  0
VERTEX
  5
242
  8
LAYER_01
 10
8559.157780510528
 20
2281.041295823459
 30
0.0
  0
VERTEX
  5
243
  8
LAYER_01
 10
8592.719008253363
 20
2281.041295823459
 30
0.0
  0
VERTEX
  5
244
  8
LAYER_01
 10
8592.719008253363
 20
2314.602523566295
 30
0.0
  0
VERTEX
  5
245
  8
LAYER_01
 10
8616.450379975267
 20
2338.3338952882
 30
0.0
  0
SEQEND
  5
246
  8
LAYER_01
  0
POLYLINE
  5
247
  8
LAYER_01
 66
     1
 10
0.0
 20
0.0
 30
0.0
  0
VERTEX
  5
248
  8
LAYER_01
 10
8535.426408788624
 20
2182.483820039829
 30
0.0
  0
VERTEX
  5
249
  8
LAYER_01
 10
8559.157780510528
 20
2158.752448317924
 30
0.0
  0
VERTEX
  5
24A
  8
LAYER_01
 10
8592.719008253363
 20
2158.752448317925
 30
0.0
  0
VERTEX
  5
24B
  8
LAYER_01
 10
8592.719008253363
 20
2125.191220575089
 30
0.0
  0
VERTEX
  5
24C
  8
LAYER_01
 10
8616.450379975267
 20
2101.459848853184
 30
0.0
  0
SEQEND
  5
24D
  8
LAYER_01
  0
POLYLINE
  5
24E
  8
LAYER_01
 66
     1
 10
0.0
 20
0.0
 30
0.0
  0
VERTEX
  5
24F
  8
LAYER_01
 10
8691.276484036995
 20
2101.459848853185
 30
0.0
  0
VERTEX
  5
250
  8
LAYER_01
 10
8715.007855758897
 20
2125.191220575088
 30
0.0
  0
VERTEX
  5
251
  8
LAYER_01
 10
8715.007855758897
 20
2158.752448317924
 30
0.0
  0
VERTEX
  5
252
  8
LAYER_01
 10
8748.569083501734
 20
2158.752448317924
 30
0.0
  0
VERTEX
  5
253
  8
LAYER_01
 10
8772.300455223638
 20
2182.483820039828
 30
0.0
  0
SEQEND
  5
254
  8
LAYER_01
  0
POLYLINE
  5
255
  8
LAYER_01
 66
     1
 10
0.0
 20
0.0
 30
0.0
  0
VERTEX
  5
256
  8
LAYER_01
 10
8691.276484036995
 20
2338.3338952882
 30
0.0
  0
VERTEX
  5
257
  8
LAYER_01
 10
8715.007855758899
 20
2314.602523566296
 30
0.0
  0
VERTEX
  5
258
  8
LAYER_01
 10
8715.007855758899
 20
2281.04129582346
 30
0.0
  0
VERTEX
  5
259
  8
LAYER_01
 10
8748.569083501734
 20
2281.04129582346
 30
0.0
  0
VERTEX
  5
25A
  8
LAYER_01
 10
8772.30045522364
 20
2257.309924101555
 30
0.0
  0
SEQEND
  5
25B
  8
LAYER_01
  0
POLYLINE
  5
25C
  8
LAYER_01
 66
     1
 10
0.0
 20
0.0
 30
0.0
 70
     1
  0
VERTEX
  5
25D
  8
LAYER_01
 10
8339.64960923266
 20
2200.677379644786
 30
0.0
  0
VERTEX
  5
25E
  8
LAYER_01
 10
8320.430116806756
 20
2219.896872070692
 30
0.0
  0
VERTEX
  5
25F
  8
LAYER_01
 10
8339.64960923266
 20
2239.116364496596
 30
0.0
  0
VERTEX
  5
260
  8
LAYER_01
 10
8368.124489903204
 20
2239.116364496596
 30
0.0
  0
VERTEX
  5
261
  8
LAYER_01
 10
8387.34398232911
 20
2219.896872070692
 30
0.0
  0
VERTEX
  5
262
  8
LAYER_01
 10
8368.124489903206
 20
2200.677379644787
 30
0.0
  0
SEQEND
  5
263
  8
LAYER_01
  0
POLYLINE
  5
264
  8
LAYER_01
 66
     1
 10
0.0
 20
0.0
 30
0.0
 70
     1
  0
VERTEX
  5
265
  8
LAYER_01
 10
8397.76989314521
 20
2171.031976402779
 30
0.0
  0
VERTEX
  5
266
  8
LAYER_01
 10
8397.76989314521
 20
2142.557095732233
 30
0.0
  0
VERTEX
  5
267
  8
LAYER_01
 10
8416.989385571114
 20
2123.33760330633
 30
0.0
  0
VERTEX
  5
268
  8
LAYER_01
 10
8436.208877997018
 20
2142.557095732234
 30
0.0
  0
VERTEX
  5
269
  8
LAYER_01
 10
8436.208877997022
 20
2171.031976402784
 30
0.0
  0
VERTEX
  5
26A
  8
LAYER_01
 10
8416.989385571118
 20
2190.251468828687
 30
0.0
  0
SEQEND
  5
26B
  8
LAYER_01
  0
POLYLINE
  5
26C
  8
LAYER_01
 66
     1
 10
0.0
 20
0.0
 30
0.0
 70
     1
  0
VERTEX
  5
26D
  8
LAYER_01
 10
8446.63478881312
 20
2219.896872070693
 30
0.0
  0
VERTEX
  5
26E
  8
LAYER_01
 10
8465.854281239022
 20
2239.116364496597
 30
0.0
  0
VERTEX
  5
26F
  8
LAYER_01
 10
8494.329161909573
 20
2239.116364496597
 30
0.0
  0
VERTEX
  5
270
  8
LAYER_01
 10
8513.548654335478
 20
2219.896872070692
 30
0.0
  0
VERTEX
  5
271
  8
LAYER_01
 10
8494.329161909573
 20
2200.677379644787
 30
0.0
  0
VERTEX
  5
272
  8
LAYER_01
 10
8465.85428123903
 20
2200.677379644787
 30
0.0
  0
SEQEND
  5
273
  8
LAYER_01
  0
POLYLINE
  5
274
  8
LAYER_01
 66
     1
 10
0.0
 20
0.0
 30
0.0
 70
     1
  0
VERTEX
  5
275
  8
LAYER_01
 10
8436.20887799702
 20
2297.236648409149
 30
0.0
  0
VERTEX
  5
276
  8
LAYER_01
 10
8436.208877997022
 20
2268.761767738605
 30
0.0
  0
VERTEX
  5
277
  8
LAYER_01
 10
8416.989385571116
 20
2249.542275312698
 30
0.0
  0
VERTEX
  5
278
  8
LAYER_01
 10
8397.76989314521
 20
2268.761767738602
 30
0.0
  0
VERTEX
  5
279
  8
LAYER_01
 10
8397.76989314521
 20
2297.236648409149
 30
0.0
  0
VERTEX
  5
27A
  8
LAYER_01
 10
8416.989385571114
 20
2316.456140835054
 30
0.0
  0
SEQEND
  5
27B
  8
LAYER_01
  0
POLYLINE
  5
27C
  8
LAYER_01
 66
     1
 10
0.0
 20
0.0
 30
0.0
  0
VERTEX
  5
27D
  8
LAYER_01
 10
8298.552362353608
 20
2257.309924101554
 30
0.0
  0
VERTEX
  5
27E
  8
LAYER_01
 10
8322.283734075512
 20
2281.041295823459
 30
0.0
  0
VERTEX
  5
27F
  8
LAYER_01
 10
8355.844961818348
 20
2281.041295823459
 30
0.0
  0
VERTEX
  5
280
  8
LAYER_01
 10
8355.844961818348
 20
2314.602523566295
 30
0.0
  0
VERTEX
  5
281
  8
LAYER_01
 10
8379.576333540252
 20
2338.3338952882
 30
0.0
  0
SEQEND
  5
282
  8
LAYER_01
  0
POLYLINE
  5
283
  8
LAYER_01
 66
     1
 10
0.0
 20
0.0
 30
0.0
  0
VERTEX
  5
284
  8
LAYER_01
 10
8298.552362353608
 20
2182.483820039829
 30
0.0
  0
VERTEX
  5
285
  8
LAYER_01
 10
8322.283734075512
 20
2158.752448317924
 30
0.0
  0
VERTEX
  5
286
  8
LAYER_01
 10
8355.844961818348
 20
2158.752448317925
 30
0.0
  0
VERTEX
  5
287
  8
LAYER_01
 10
8355.844961818348
 20
2125.191220575089
 30
0.0
  0
VERTEX
  5
288
  8
LAYER_01
 10
8379.576333540252
 20
2101.459848853184
 30
0.0
  0
SEQEND
  5
289
  8
LAYER_01
  0
POLYLINE
  5
28A
  8
LAYER_01
 66
     1
 10
0.0
 20
0.0
 30
0.0
  0
VERTEX
  5
28B
  8
LAYER_01
 10
8454.402437601979
 20
2101.459848853185
 30
0.0
  0
VERTEX
  5
28C
  8
LAYER_01
 10
8478.133809323881
 20
2125.191220575088
 30
0.0
  0
VERTEX
  5
28D
  8
LAYER_01
 10
8478.133809323881
 20
2158.752448317924
 30
0.0
  0
VERTEX
  5
28E
  8
LAYER_01
 10
8511.695037066718
 20
2158.752448317924
 30
0.0
  0
VERTEX
  5
28F
  8
LAYER_01
 10
8535.426408788622
 20
2182.483820039828
 30
0.0
  0
SEQEND
  5
290
  8
LAYER_01
  0
POLYLINE
  5
291
  8
LAYER_01
 66
     1
 10
0.0
 20
0.0
 30
0.0
  0
VERTEX
  5
292
  8
LAYER_01
 10
8454.402437601979
 20
2338.3338952882
 30
0.0
  0
VERTEX
  5
293
  8
LAYER_01
 10
8478.133809323883
 20
2314.602523566296
 30
0.0
  0
VERTEX
  5
294
  8
LAYER_01
 10
8478.133809323883
 20
2281.04129582346
 30
0.0
  0
VERTEX
  5
295
  8
LAYER_01
 10
8511.695037066718
 20
2281.04129582346
 30
0.0
  0
VERTEX
  5
296
  8
LAYER_01
 10
8535.426408788624
 20
2257.309924101555
 30
0.0
  0
SEQEND
  5
297
  8
LAYER_01
  0
ENDSEC
  0
EOF
