  0
SECTION
  2
HEADER
  9
$ACADVER
  1
AC1009
  9
$DWGCODEPAGE
  3
ansi_1252
  9
$INSBASE
 10
0.0
 20
0.0
 30
0.0
  9
$EXTMIN
 10
1.000000000000000E+20
 20
1.000000000000000E+20
 30
1.000000000000000E+20
  9
$EXTMAX
 10
-1.000000000000000E+20
 20
-1.000000000000000E+20
 30
-1.000000000000000E+20
  9
$LIMMIN
 10
0.0
 20
0.0
  9
$LIMMAX
 10
12.0
 20
9.0
  9
$ORTHOMODE
 70
     0
  9
$REGENMODE
 70
     1
  9
$FILLMODE
 70
     1
  9
$QTEXTMODE
 70
     0
  9
$MIRRTEXT
 70
     1
  9
$DRAGMODE
 70
     2
  9
$LTSCALE
 40
1.0
  9
$OSMODE
 70
    37
  9
$ATTMODE
 70
     1
  9
$TEXTSIZE
 40
0.2
  9
$TRACEWID
 40
0.05
  9
$TEXTSTYLE
  7
STANDARD
  9
$CLAYER
  8
0
  9
$CELTYPE
  6
BYLAYER
  9
$CECOLOR
 62
   256
  9
$DIMSCALE
 40
1.0
  9
$DIMASZ
 40
0.18
  9
$DIMEXO
 40
0.0625
  9
$DIMDLI
 40
0.38
  9
$DIMRND
 40
0.0
  9
$DIMDLE
 40
0.0
  9
$DIMEXE
 40
0.18
  9
$DIMTP
 40
0.0
  9
$DIMTM
 40
0.0
  9
$DIMTXT
 40
0.18
  9
$DIMCEN
 40
0.09
  9
$DIMTSZ
 40
0.0
  9
$DIMTOL
 70
     0
  9
$DIMLIM
 70
     0
  9
$DIMTIH
 70
     1
  9
$DIMTOH
 70
     1
  9
$DIMSE1
 70
     0
  9
$DIMSE2
 70
     0
  9
$DIMTAD
 70
     0
  9
$DIMZIN
 70
     0
  9
$DIMBLK
  1

  9
$DIMASO
 70
     1
  9
$DIMSHO
 70
     1
  9
$DIMPOST
  1

  9
$DIMAPOST
  1

  9
$DIMALT
 70
     0
  9
$DIMALTD
 70
     2
  9
$DIMALTF
 40
25.4
  9
$DIMLFAC
 40
1.0
  9
$DIMTOFL
 70
     0
  9
$DIMTVP
 40
0.0
  9
$DIMTIX
 70
     0
  9
$DIMSOXD
 70
     0
  9
$DIMSAH
 70
     0
  9
$DIMBLK1
  1

  9
$DIMBLK2
  1

  9
$DIMSTYLE
  2
STANDARD_ACAD
  9
$DIMCLRD
 70
     0
  9
$DIMCLRE
 70
     0
  9
$DIMCLRT
 70
     0
  9
$DIMTFAC
 40
1.0
  9
$DIMGAP
 40
0.09
  9
$LUNITS
 70
     2
  9
$LUPREC
 70
     3
  9
$SKETCHINC
 40
0.1
  9
$FILLETRAD
 40
0.5
  9
$AUNITS
 70
     0
  9
$AUPREC
 70
     0
  9
$MENU
  1
.
  9
$ELEVATION
 40
0.0
  9
$PELEVATION
 40
0.0
  9
$THICKNESS
 40
0.0
  9
$LIMCHECK
 70
     0
  9
$CHAMFERA
 40
0.0
  9
$CHAMFERB
 40
0.0
  9
$SKPOLY
 70
     0
  9
$TDCREATE
 40
2460054.437586158
  9
$TDUPDATE
 40
2460054.437586239
  9
$TDINDWG
 40
0.0000000116
  9
$TDUSRTIMER
 40
0.0000000116
  9
$USRTIMER
 70
     1
  9
$ANGBASE
 50
0.0
  9
$ANGDIR
 70
     0
  9
$PDMODE
 70
     0
  9
$PDSIZE
 40
0.0
  9
$PLINEWID
 40
0.0
  9
$COORDS
 70
     1
  9
$SPLFRAME
 70
     0
  9
$SPLINETYPE
 70
     6
  9
$SPLINESEGS
 70
     8
  9
$ATTDIA
 70
     0
  9
$ATTREQ
 70
     1
  9
$HANDLING
 70
     1
  9
$HANDSEED
  5
2E6
  9
$SURFTAB1
 70
     6
  9
$SURFTAB2
 70
     6
  9
$SURFTYPE
 70
     6
  9
$SURFU
 70
     6
  9
$SURFV
 70
     6
  9
$UCSNAME
  2

  9
$UCSORG
 10
0.0
 20
0.0
 30
0.0
  9
$UCSXDIR
 10
1.0
 20
0.0
 30
0.0
  9
$UCSYDIR
 10
0.0
 20
1.0
 30
0.0
  9
$PUCSNAME
  2

  9
$PUCSORG
 10
0.0
 20
0.0
 30
0.0
  9
$PUCSXDIR
 10
1.0
 20
0.0
 30
0.0
  9
$PUCSYDIR
 10
0.0
 20
1.0
 30
0.0
  9
$USERI1
 70
     0
  9
$USERI2
 70
     0
  9
$USERI3
 70
     0
  9
$USERI4
 70
     0
  9
$USERI5
 70
     0
  9
$USERR1
 40
0.0
  9
$USERR2
 40
0.0
  9
$USERR3
 40
0.0
  9
$USERR4
 40
0.0
  9
$USERR5
 40
0.0
  9
$WORLDVIEW
 70
     1
  9
$SHADEDGE
 70
     3
  9
$SHADEDIF
 70
    70
  9
$TILEMODE
 70
     1
  9
$MAXACTVP
 70
    64
  9
$PLIMCHECK
 70
     0
  9
$PEXTMIN
 10
1.000000000000000E+20
 20
1.000000000000000E+20
 30
1.000000000000000E+20
  9
$PEXTMAX
 10
-1.000000000000000E+20
 20
-1.000000000000000E+20
 30
-1.000000000000000E+20
  9
$PLIMMIN
 10
0.0
 20
0.0
  9
$PLIMMAX
 10
12.0
 20
9.0
  9
$UNITMODE
 70
     0
  9
$VISRETAIN
 70
     1
  9
$PLINEGEN
 70
     0
  9
$PSLTSCALE
 70
     1
  0
ENDSEC
  0
SECTION
  2
TABLES
  0
TABLE
  2
VPORT
 70
     1
  0
VPORT
  2
*ACTIVE
 70
     0
 10
0.0
 20
0.0
 11
1.0
 21
1.0
 12
10.42990654205607
 22
4.5
 13
0.0
 23
0.0
 14
0.5
 24
0.5
 15
0.5
 25
0.5
 16
0.0
 26
0.0
 36
1.0
 17
0.0
 27
0.0
 37
0.0
 40
9.0
 41
1.972972972850329
 42
50.0
 43
0.0
 44
0.0
 50
0.0
 51
0.0
 71
     0
 72
   100
 73
     1
 74
     3
 75
     0
 76
     0
 77
     0
 78
     0
  0
ENDTAB
  0
TABLE
  2
LTYPE
 70
     1
  0
LTYPE
  2
CONTINUOUS
 70
     0
  3
Solid line
 72
    65
 73
     0
 40
0.0
  0
ENDTAB
  0
TABLE
  2
LAYER
 70
     1
  0
LAYER
  2
0
 70
     0
 62
     7
  6
CONTINUOUS
  0
ENDTAB
  0
TABLE
  2
STYLE
 70
     1
  0
STYLE
  2
STANDARD
 70
     0
 40
0.0
 41
1.0
 50
0.0
 71
     0
 42
0.2
  3
txt
  4

  0
ENDTAB
  0
TABLE
  2
VIEW
 70
     0
  0
ENDTAB
  0
TABLE
  2
UCS
 70
     0
  0
ENDTAB
  0
TABLE
  2
APPID
 70
     2
  0
APPID
  2
ACAD
 70
     0
  0
APPID
  2
RHINO
 70
     0
  0
ENDTAB
  0
TABLE
  2
DIMSTYLE
 70
     1
  0
DIMSTYLE
  2
STANDARD_ACAD
 70
     0
  3

  4

  5

  6

  7

 40
1.0
 41
0.18
 42
0.0625
 43
0.38
 44
0.18
 45
0.0
 46
0.0
 47
0.0
 48
0.0
140
0.18
141
0.09
142
0.0
143
25.4
144
1.0
145
0.0
146
1.0
147
0.09
 71
     0
 72
     0
 73
     1
 74
     1
 75
     0
 76
     0
 77
     0
 78
     0
170
     0
171
     2
172
     0
173
     0
174
     0
175
     0
176
     0
177
     0
178
     0
  0
ENDTAB
  0
ENDSEC
  0
SECTION
  2
BLOCKS
  0
BLOCK
  8
0
  2
$MODEL_SPACE
 70
     0
 10
0.0
 20
0.0
 30
0.0
  3
$MODEL_SPACE
  1

  0
ENDBLK
  5
21
  8
0
  0
BLOCK
 67
     1
  8
0
  2
$PAPER_SPACE
 70
     0
 10
0.0
 20
0.0
 30
0.0
  3
$PAPER_SPACE
  1

  0
ENDBLK
  5
1D
 67
     1
  8
0
  0
ENDSEC
  0
SECTION
  2
ENTITIES
  0
POLYLINE
  5
6F
  8
0
 66
     1
 10
0.0
 20
0.0
 30
0.0
 70
     1
  0
VERTEX
  5
70
  8
0
 10
117.1758743508711
 20
111.0458729304776
 30
0.0
  0
VERTEX
  5
71
  8
0
 10
192.5372479458015
 20
111.0458729304776
 30
0.0
  0
VERTEX
  5
72
  8
0
 10
192.5372479458015
 20
295.0484834654949
 30
0.0
  0
VERTEX
  5
73
  8
0
 10
117.1758743508711
 20
295.0484834654949
 30
0.0
  0
SEQEND
  5
74
  8
0
  0
POLYLINE
  5
75
  8
0
 66
     1
 10
0.0
 20
0.0
 30
0.0
 70
     1
  0
VERTEX
  5
76
  8
0
 10
222.4063214218884
 20
115.8060102064007
 30
0.0
  0
VERTEX
  5
77
  8
0
 10
264.9406187906975
 20
115.8060102064007
 30
0.0
  0
VERTEX
  5
78
  8
0
 10
264.9406187906975
 20
292.2608385171118
 30
0.0
  0
VERTEX
  5
79
  8
0
 10
222.4063214218884
 20
292.2608385171118
 30
0.0
  0
SEQEND
  5
7A
  8
0
  0
CIRCLE
  5
7B
  8
0
 10
-249.9769142073569
 20
130.8418548652269
 30
0.0
 40
8.335919703687447
210
0.0
220
0.0
230
-1.0
  0
CIRCLE
  5
7C
  8
0
 10
252.1665726515242
 20
151.1751390422674
 30
0.0
 40
6.000125601865568
  0
POLYLINE
  5
7D
  8
0
 66
     1
 10
0.0
 20
0.0
 30
0.0
 70
     1
  0
VERTEX
  5
7E
  8
0
 10
263.2004740109954
 20
288.9199343825155
 30
0.0
 42
0.5519426982402879
  0
VERTEX
  5
7F
  8
0
 10
263.2004740109954
 20
268.8862420895551
 30
0.0
  0
SEQEND
  5
80
  8
0
  0
POLYLINE
  5
81
  8
0
 66
     1
 10
0.0
 20
0.0
 30
0.0
 70
     1
  0
VERTEX
  5
82
  8
0
 10
237.6215685897359
 20
290.5206937374095
 30
0.0
 42
-0.5494523801696943
  0
VERTEX
  5
83
  8
0
 10
229.838542229477
 20
273.6784321637214
 30
0.0
 42
0.4744558035196175
  0
VERTEX
  5
84
  8
0
 10
247.1856026539019
 20
290.5206937374094
 30
0.0
  0
SEQEND
  5
85
  8
0
  0
POLYLINE
  5
86
  8
0
 66
     1
 10
0.0
 20
0.0
 30
0.0
 70
     1
  0
VERTEX
  5
87
  8
0
 10
224.1464662015905
 20
265.3466720526269
 30
0.0
 42
-0.1013712143134068
  0
VERTEX
  5
88
  8
0
 10
232.4124623184988
 20
272.2670833745366
 30
0.0
 42
-0.1237771074971409
  0
VERTEX
  5
89
  8
0
 10
224.1464662015905
 20
274.1936537622593
 30
0.0
  0
SEQEND
  5
8A
  8
0
  0
POLYLINE
  5
8B
  8
0
 66
     1
 10
0.0
 20
0.0
 30
0.0
 70
     1
  0
VERTEX
  5
8C
  8
0
 10
263.2004740109954
 20
263.8907949539421
 30
0.0
  0
VERTEX
  5
8D
  8
0
 10
263.2004740109954
 20
266.8510607534848
 30
0.0
 42
-0.1333017737438892
  0
VERTEX
  5
8E
  8
0
 10
257.9728417903169
 20
271.6952799995431
 30
0.0
 42
-0.0589725753777956
  0
VERTEX
  5
8F
  8
0
 10
255.5381790526218
 20
270.5387029889068
 30
0.0
 42
0.1597073977715822
  0
SEQEND
  5
90
  8
0
  0
POLYLINE
  5
91
  8
0
 66
     1
 10
0.0
 20
0.0
 30
0.0
 70
     1
  0
VERTEX
  5
92
  8
0
 10
226.4411601635161
 20
237.7380899604772
 30
0.0
 42
0.0811058505133656
  0
VERTEX
  5
93
  8
0
 10
224.1464662015905
 20
241.2713299992326
 30
0.0
  0
VERTEX
  5
94
  8
0
 10
224.1464662015906
 20
255.4540967730739
 30
0.0
 42
-0.1700158176762749
  0
VERTEX
  5
95
  8
0
 10
232.9953855150775
 20
267.0792856039528
 30
0.0
 42
0.3445841184244607
  0
VERTEX
  5
96
  8
0
 10
230.5971293492299
 20
251.3811081893027
 30
0.0
 42
0.234338717741362
  0
SEQEND
  5
97
  8
0
  0
POLYLINE
  5
98
  8
0
 66
     1
 10
0.0
 20
0.0
 30
0.0
 70
     1
  0
VERTEX
  5
99
  8
0
 10
224.1464662015906
 20
223.6848552937581
 30
0.0
 42
0.1141809116708731
  0
VERTEX
  5
9A
  8
0
 10
227.0258624152421
 20
228.8267949377324
 30
0.0
 42
0.2478011743769367
  0
VERTEX
  5
9B
  8
0
 10
251.2924234177269
 20
222.4778716360629
 30
0.0
 42
0.2212235024292242
  0
VERTEX
  5
9C
  8
0
 10
246.1621548017854
 20
207.8784458768624
 30
0.0
 42
0.0634337596450684
  0
VERTEX
  5
9D
  8
0
 10
242.887133346597
 20
206.3565763627545
 30
0.0
 42
0.4078272291074148
  0
VERTEX
  5
9E
  8
0
 10
224.1464662015905
 20
222.871859547785
 30
0.0
  0
SEQEND
  5
9F
  8
0
  0
POLYLINE
  5
A0
  8
0
 66
     1
 10
0.0
 20
0.0
 30
0.0
 70
     1
  0
VERTEX
  5
A1
  8
0
 10
224.1464662015905
 20
173.4207489739475
 30
0.0
 42
0.1724310857454985
  0
VERTEX
  5
A2
  8
0
 10
229.4218455633451
 20
178.4552339842074
 30
0.0
 42
0.1210289525142366
  0
VERTEX
  5
A3
  8
0
 10
224.1464662015904
 20
177.9651859558462
 30
0.0
  0
SEQEND
  5
A4
  8
0
  0
POLYLINE
  5
A5
  8
0
 66
     1
 10
0.0
 20
0.0
 30
0.0
 70
     1
  0
VERTEX
  5
A6
  8
0
 10
229.9941539698933
 20
150.0381827002169
 30
0.0
 42
-0.0904571633880321
  0
VERTEX
  5
A7
  8
0
 10
224.1464662015905
 20
152.7665530154648
 30
0.0
  0
VERTEX
  5
A8
  8
0
 10
224.1464662015905
 20
135.0081916796014
 30
0.0
 42
0.4014645133544105
  0
SEQEND
  5
A9
  8
0
  0
POLYLINE
  5
AA
  8
0
 66
     1
 10
0.0
 20
0.0
 30
0.0
 70
     1
  0
VERTEX
  5
AB
  8
0
 10
224.1464662015905
 20
131.2776447085966
 30
0.0
  0
VERTEX
  5
AC
  8
0
 10
224.1464662015905
 20
117.5461549861027
 30
0.0
  0
VERTEX
  5
AD
  8
0
 10
233.8242201426289
 20
117.5461549861027
 30
0.0
 42
-0.1309281038663969
  0
VERTEX
  5
AE
  8
0
 10
234.4297249043826
 20
129.0665919163877
 30
0.0
 42
0.1643097419844179
  0
SEQEND
  5
AF
  8
0
  0
POLYLINE
  5
B0
  8
0
 66
     1
 10
0.0
 20
0.0
 30
0.0
 70
     1
  0
VERTEX
  5
B1
  8
0
 10
263.2004740109954
 20
120.1568968019719
 30
0.0
 42
0.705819406180638
  0
VERTEX
  5
B2
  8
0
 10
255.230093944732
 20
117.5461549861027
 30
0.0
  0
VERTEX
  5
B3
  8
0
 10
263.2004740109954
 20
117.5461549861027
 30
0.0
  0
SEQEND
  5
B4
  8
0
  0
POLYLINE
  5
B5
  8
0
 66
     1
 10
0.0
 20
0.0
 30
0.0
 70
     1
  0
VERTEX
  5
B6
  8
0
 10
257.9702545461629
 20
123.2377216880775
 30
0.0
 42
-0.2609613963933206
  0
VERTEX
  5
B7
  8
0
 10
263.2004740109954
 20
122.4015044063566
 30
0.0
  0
VERTEX
  5
B8
  8
0
 10
263.2004740109954
 20
138.3039312594549
 30
0.0
 42
0.125341663398084
  0
VERTEX
  5
B9
  8
0
 10
254.5749816584169
 20
139.9034536918679
 30
0.0
 42
-0.5305820308445884
  0
SEQEND
  5
BA
  8
0
  0
POLYLINE
  5
BB
  8
0
 66
     1
 10
0.0
 20
0.0
 30
0.0
 70
     1
  0
VERTEX
  5
BC
  8
0
 10
254.4528838947742
 20
117.5461549861027
 30
0.0
 42
-0.1889450542254321
  0
VERTEX
  5
BD
  8
0
 10
255.4764296021483
 20
121.3663374578819
 30
0.0
 42
-0.3857976121687599
  0
VERTEX
  5
BE
  8
0
 10
242.0933243801452
 20
124.7128616588699
 30
0.0
  0
VERTEX
  5
BF
  8
0
 10
241.9201813427413
 20
124.4271756471533
 30
0.0
 42
-0.0994935195921584
  0
VERTEX
  5
C0
  8
0
 10
244.3472884572909
 20
117.5461549861027
 30
0.0
  0
SEQEND
  5
C1
  8
0
  0
POLYLINE
  5
C2
  8
0
 66
     1
 10
0.0
 20
0.0
 30
0.0
 70
     1
  0
VERTEX
  5
C3
  8
0
 10
238.5874073946244
 20
117.5461549861028
 30
0.0
  0
VERTEX
  5
C4
  8
0
 10
242.2439688951108
 20
117.5461549861027
 30
0.0
 42
0.1417076945328016
  0
VERTEX
  5
C5
  8
0
 10
238.3517311373934
 20
125.8081562147327
 30
0.0
 42
0.1178841287433065
  0
SEQEND
  5
C6
  8
0
  0
POLYLINE
  5
C7
  8
0
 66
     1
 10
0.0
 20
0.0
 30
0.0
 70
     1
  0
VERTEX
  5
C8
  8
0
 10
234.1391658228956
 20
290.5206937374095
 30
0.0
 42
-0.9986734783816017
  0
VERTEX
  5
C9
  8
0
 10
224.1464662015905
 20
278.2752108886365
 30
0.0
  0
VERTEX
  5
CA
  8
0
 10
224.1464662015905
 20
290.5206937374095
 30
0.0
  0
SEQEND
  5
CB
  8
0
  0
POLYLINE
  5
CC
  8
0
 66
     1
 10
0.0
 20
0.0
 30
0.0
 70
     1
  0
VERTEX
  5
CD
  8
0
 10
240.8804739941198
 20
204.8310651299247
 30
0.0
 42
0.435435944151813
  0
VERTEX
  5
CE
  8
0
 10
224.1464662015905
 20
220.8145551652152
 30
0.0
  0
VERTEX
  5
CF
  8
0
 10
224.1464662015905
 20
195.3551782123507
 30
0.0
 42
-0.1644833505334551
  0
VERTEX
  5
D0
  8
0
 10
230.5143484841288
 20
190.1965701285334
 30
0.0
 42
0.1081249965171832
  0
VERTEX
  5
D1
  8
0
 10
236.2150802023829
 20
193.8235394114325
 30
0.0
 42
-0.2192064929227515
  0
SEQEND
  5
D2
  8
0
  0
POLYLINE
  5
D3
  8
0
 66
     1
 10
0.0
 20
0.0
 30
0.0
 70
     1
  0
VERTEX
  5
D4
  8
0
 10
224.1464662015905
 20
189.2591245964149
 30
0.0
 42
0.0710698154490801
  0
VERTEX
  5
D5
  8
0
 10
228.6015586674702
 20
189.6297960085506
 30
0.0
 42
0.1349243234433647
  0
VERTEX
  5
D6
  8
0
 10
224.1464662015904
 20
193.2974801829897
 30
0.0
  0
SEQEND
  5
D7
  8
0
  0
POLYLINE
  5
D8
  8
0
 66
     1
 10
0.0
 20
0.0
 30
0.0
 70
     1
  0
VERTEX
  5
D9
  8
0
 10
231.3177679047957
 20
177.998940165328
 30
0.0
 42
-0.1984549983548281
  0
VERTEX
  5
DA
  8
0
 10
224.1464662015904
 20
171.3630509445865
 30
0.0
  0
VERTEX
  5
DB
  8
0
 10
224.1464662015905
 20
158.3320963338446
 30
0.0
 42
-0.07324521456614
  0
VERTEX
  5
DC
  8
0
 10
227.6144212875648
 20
156.3699926803995
 30
0.0
 42
0.856293975385191
  0
SEQEND
  5
DD
  8
0
  0
POLYLINE
  5
DE
  8
0
 66
     1
 10
0.0
 20
0.0
 30
0.0
 70
     1
  0
VERTEX
  5
DF
  8
0
 10
225.5491197367318
 20
133.4581869525349
 30
0.0
 42
0.3615303201057105
  0
VERTEX
  5
E0
  8
0
 10
232.289057400586
 20
149.5942582679374
 30
0.0
 42
0.1755871223672268
  0
VERTEX
  5
E1
  8
0
 10
244.2400046499523
 20
152.2867890163151
 30
0.0
 42
0.3533261534214542
  0
VERTEX
  5
E2
  8
0
 10
249.410008070837
 20
143.6606465337314
 30
0.0
 42
0.2228233817310979
  0
VERTEX
  5
E3
  8
0
 10
235.1727136952027
 20
131.0406696013006
 30
0.0
 42
0.1364709326243219
  0
SEQEND
  5
E4
  8
0
  0
POLYLINE
  5
E5
  8
0
 66
     1
 10
0.0
 20
0.0
 30
0.0
 70
     1
  0
VERTEX
  5
E6
  8
0
 10
249.6017568938414
 20
202.5278683011824
 30
0.0
 42
0.1959729413462806
  0
VERTEX
  5
E7
  8
0
 10
258.812330549436
 20
194.2036071648307
 30
0.0
 42
0.448341794764866
  0
SEQEND
  5
E8
  8
0
  0
POLYLINE
  5
E9
  8
0
 66
     1
 10
0.0
 20
0.0
 30
0.0
 70
     1
  0
VERTEX
  5
EA
  8
0
 10
247.709681597847
 20
202.0947202555396
 30
0.0
 42
1.674052625451984
  0
VERTEX
  5
EB
  8
0
 10
258.5721756881178
 20
192.2774992245164
 30
0.0
 42
-0.2081965247968661
  0
SEQEND
  5
EC
  8
0
  0
POLYLINE
  5
ED
  8
0
 66
     1
 10
0.0
 20
0.0
 30
0.0
 70
     1
  0
VERTEX
  5
EE
  8
0
 10
248.0263518229189
 20
208.336789534489
 30
0.0
 42
-0.3282721791099352
  0
VERTEX
  5
EF
  8
0
 10
263.2004740109954
 20
200.8090911131827
 30
0.0
  0
VERTEX
  5
F0
  8
0
 10
263.2004740109954
 20
214.9762188723352
 30
0.0
 42
-0.2066416316907567
  0
VERTEX
  5
F1
  8
0
 10
260.7431665883963
 20
225.6940401718969
 30
0.0
 42
0.3724766796493368
  0
SEQEND
  5
F2
  8
0
  0
POLYLINE
  5
F3
  8
0
 66
     1
 10
0.0
 20
0.0
 30
0.0
 70
     1
  0
VERTEX
  5
F4
  8
0
 10
224.1464662015904
 20
225.9735393646167
 30
0.0
 42
0.304984732998985
  0
VERTEX
  5
F5
  8
0
 10
224.1464662015905
 20
238.9826459283739
 30
0.0
  0
SEQEND
  5
F6
  8
0
  0
POLYLINE
  5
F7
  8
0
 66
     1
 10
0.0
 20
0.0
 30
0.0
 70
     1
  0
VERTEX
  5
F8
  8
0
 10
258.0991535657968
 20
290.5206937374095
 30
0.0
  0
VERTEX
  5
F9
  8
0
 10
262.4324092125333
 20
290.5206937374098
 30
0.0
 42
0.367451850812391
  0
VERTEX
  5
FA
  8
0
 10
256.9019102864088
 20
273.7948610104439
 30
0.0
 42
-0.0504529319941019
  0
VERTEX
  5
FB
  8
0
 10
254.3935196452198
 20
272.8478348563415
 30
0.0
 42
-0.3025989171139075
  0
SEQEND
  5
FC
  8
0
  0
POLYLINE
  5
FD
  8
0
 66
     1
 10
0.0
 20
0.0
 30
0.0
 70
     1
  0
VERTEX
  5
FE
  8
0
 10
255.3936045509376
 20
290.5206937374096
 30
0.0
  0
VERTEX
  5
FF
  8
0
 10
249.4956858570843
 20
290.5206937374095
 30
0.0
 42
-0.2608917537377658
  0
VERTEX
  5
100
  8
0
 10
241.9228611429839
 20
275.2936202304721
 30
0.0
 42
-0.092164455191705
  0
VERTEX
  5
101
  8
0
 10
251.7223324592781
 20
274.6795614051121
 30
0.0
 42
-0.2345947906488931
  0
SEQEND
  5
102
  8
0
  0
POLYLINE
  5
103
  8
0
 66
     1
 10
0.0
 20
0.0
 30
0.0
 70
     1
  0
VERTEX
  5
104
  8
0
 10
251.6656408770765
 20
253.3860251659275
 30
0.0
 42
1.573728707870693
  0
VERTEX
  5
105
  8
0
 10
232.2329560734827
 20
252.8908435051234
 30
0.0
 42
-0.3372028008971121
  0
SEQEND
  5
106
  8
0
  0
POLYLINE
  5
107
  8
0
 66
     1
 10
0.0
 20
0.0
 30
0.0
 70
     1
  0
VERTEX
  5
108
  8
0
 10
233.2054942043657
 20
251.3074043614053
 30
0.0
 42
0.5198677119813897
  0
VERTEX
  5
109
  8
0
 10
250.7750106162273
 20
251.7551089582885
 30
0.0
 42
0.3463184637813068
  0
SEQEND
  5
10A
  8
0
  0
POLYLINE
  5
10B
  8
0
 66
     1
 10
0.0
 20
0.0
 30
0.0
 70
     1
  0
VERTEX
  5
10C
  8
0
 10
263.2004740109953
 20
232.0452276249809
 30
0.0
 42
-0.2421746845273041
  0
VERTEX
  5
10D
  8
0
 10
242.1576878701037
 20
224.3191157141829
 30
0.0
 42
0.6786824163559287
  0
VERTEX
  5
10E
  8
0
 10
253.3762365165861
 20
251.9615630380674
 30
0.0
 42
0.5404673553229343
  0
VERTEX
  5
10F
  8
0
 10
242.4766529032109
 20
270.5701482883525
 30
0.0
 42
-0.1378187296286691
  0
VERTEX
  5
110
  8
0
 10
254.2975923316881
 20
268.7629004049267
 30
0.0
 42
0.1589412382153869
  0
VERTEX
  5
111
  8
0
 10
263.2004740109954
 20
261.7439598049845
 30
0.0
  0
SEQEND
  5
112
  8
0
  0
POLYLINE
  5
113
  8
0
 66
     1
 10
0.0
 20
0.0
 30
0.0
 70
     1
  0
VERTEX
  5
114
  8
0
 10
229.6534985399494
 20
187.7739846599829
 30
0.0
 42
-0.0779754987552755
  0
VERTEX
  5
115
  8
0
 10
224.1464662015906
 20
187.201820213845
 30
0.0
  0
VERTEX
  5
116
  8
0
 10
224.1464662015904
 20
182.0966668225165
 30
0.0
 42
-0.0973756527621664
  0
VERTEX
  5
117
  8
0
 10
230.4729425090974
 20
184.9434286979526
 30
0.0
 42
0.0679806610216256
  0
SEQEND
  5
118
  8
0
  0
POLYLINE
  5
119
  8
0
 66
     1
 10
0.0
 20
0.0
 30
0.0
 70
     1
  0
VERTEX
  5
11A
  8
0
 10
236.5143691696089
 20
191.3206825652524
 30
0.0
 42
-0.0823415300100454
  0
VERTEX
  5
11B
  8
0
 10
231.4755305067053
 20
188.3632613402292
 30
0.0
 42
-0.0629433827334948
  0
VERTEX
  5
11C
  8
0
 10
232.3503407286936
 20
185.2766194683378
 30
0.0
 42
-0.1081086321013824
  0
VERTEX
  5
11D
  8
0
 10
240.0026170967996
 20
184.5645684659109
 30
0.0
 42
-0.1354616510716483
  0
SEQEND
  5
11E
  8
0
  0
POLYLINE
  5
11F
  8
0
 66
     1
 10
0.0
 20
0.0
 30
0.0
 70
     1
  0
VERTEX
  5
120
  8
0
 10
252.1752923747316
 20
273.0938314908838
 30
0.0
 42
0.3234375861644991
  0
VERTEX
  5
121
  8
0
 10
224.1464662015904
 20
262.9647539983799
 30
0.0
  0
VERTEX
  5
122
  8
0
 10
224.1464662015905
 20
258.9887918647291
 30
0.0
 42
-0.3828353579984818
  0
VERTEX
  5
123
  8
0
 10
253.195615850664
 20
270.6519670383556
 30
0.0
 42
-0.0362360011445536
  0
SEQEND
  5
124
  8
0
  0
POLYLINE
  5
125
  8
0
 66
     1
 10
0.0
 20
0.0
 30
0.0
 70
     1
  0
VERTEX
  5
126
  8
0
 10
243.4771885985648
 20
204.3984067125469
 30
0.0
 42
0.1122661864644327
  0
VERTEX
  5
127
  8
0
 10
244.6438710289061
 20
202.565378640667
 30
0.0
 42
0.1844486995676093
  0
VERTEX
  5
128
  8
0
 10
240.5995369144583
 20
196.5493353462896
 30
0.0
 42
-0.0422888684615357
  0
VERTEX
  5
129
  8
0
 10
238.5430548570065
 20
197.2804865777613
 30
0.0
 42
-0.1813757982774508
  0
SEQEND
  5
12A
  8
0
  0
POLYLINE
  5
12B
  8
0
 66
     1
 10
0.0
 20
0.0
 30
0.0
 70
     1
  0
VERTEX
  5
12C
  8
0
 10
231.6463642447986
 20
249.7996234245958
 30
0.0
 42
0.5059622066239813
  0
VERTEX
  5
12D
  8
0
 10
252.4089094910511
 20
250.3286924514169
 30
0.0
 42
-2.302128973141167
  0
SEQEND
  5
12E
  8
0
  0
POLYLINE
  5
12F
  8
0
 66
     1
 10
0.0
 20
0.0
 30
0.0
 70
     1
  0
VERTEX
  5
130
  8
0
 10
260.6400565973057
 20
193.6585191930549
 30
0.0
 42
0.0331895748890838
  0
VERTEX
  5
131
  8
0
 10
262.791168253007
 20
193.2993116981341
 30
0.0
 42
0.5621094709241043
  0
VERTEX
  5
132
  8
0
 10
245.7034373859388
 20
205.6221441051365
 30
0.0
 42
0.1362164438488299
  0
VERTEX
  5
133
  8
0
 10
246.942959568099
 20
203.7793963170036
 30
0.0
 42
-0.5423405386472252
  0
SEQEND
  5
134
  8
0
  0
POLYLINE
  5
135
  8
0
 66
     1
 10
0.0
 20
0.0
 30
0.0
 70
     1
  0
VERTEX
  5
136
  8
0
 10
260.3495844398782
 20
191.7778866300788
 30
0.0
 42
0.0296956223087429
  0
VERTEX
  5
137
  8
0
 10
262.497216166023
 20
191.4218241990216
 30
0.0
 42
-0.843832116689468
  0
VERTEX
  5
138
  8
0
 10
238.2365456083996
 20
192.9632443448554
 30
0.0
 42
0.025772786198875
  0
VERTEX
  5
139
  8
0
 10
239.4089116554852
 20
194.3812801420013
 30
0.0
 42
0.0225303584070771
  0
VERTEX
  5
13A
  8
0
 10
240.3388798399351
 20
194.2107453437259
 30
0.0
 42
0.8812766449609474
  0
SEQEND
  5
13B
  8
0
  0
POLYLINE
  5
13C
  8
0
 66
     1
 10
0.0
 20
0.0
 30
0.0
 70
     1
  0
VERTEX
  5
13D
  8
0
 10
263.2004740109954
 20
173.5179815694454
 30
0.0
 42
0.3427347980723003
  0
VERTEX
  5
13E
  8
0
 10
252.1171581499273
 20
171.258198640248
 30
0.0
 42
0.1490512748751238
  0
VERTEX
  5
13F
  8
0
 10
246.9941932314703
 20
180.4084725153181
 30
0.0
 42
0.3488600638340931
  0
VERTEX
  5
140
  8
0
 10
263.2004740109953
 20
187.7153055462461
 30
0.0
  0
SEQEND
  5
141
  8
0
  0
POLYLINE
  5
142
  8
0
 66
     1
 10
0.0
 20
0.0
 30
0.0
 70
     1
  0
VERTEX
  5
143
  8
0
 10
225.7525225856621
 20
180.5532730135455
 30
0.0
 42
-1.112337510112159
  0
VERTEX
  5
144
  8
0
 10
227.0059457970195
 20
154.2588139858214
 30
0.0
 42
-0.0391745187919832
  0
VERTEX
  5
145
  8
0
 10
228.2647004862849
 20
152.9380179561137
 30
0.0
 42
1.685513654453172
  0
SEQEND
  5
146
  8
0
  0
POLYLINE
  5
147
  8
0
 66
     1
 10
0.0
 20
0.0
 30
0.0
 70
     1
  0
VERTEX
  5
148
  8
0
 10
263.2004740109954
 20
159.6176681550222
 30
0.0
 42
-1.960477084577419
  0
VERTEX
  5
149
  8
0
 10
263.2004740109953
 20
170.8888923952294
 30
0.0
  0
SEQEND
  5
14A
  8
0
  0
POLYLINE
  5
14B
  8
0
 66
     1
 10
0.0
 20
0.0
 30
0.0
 70
     1
  0
VERTEX
  5
14C
  8
0
 10
263.2004740109954
 20
143.2997312873138
 30
0.0
 42
0.0746396926657119
  0
VERTEX
  5
14D
  8
0
 10
256.6679777086558
 20
144.5567103420415
 30
0.0
 42
0.4313168830720636
  0
VERTEX
  5
14E
  8
0
 10
258.51274529425
 20
156.0528781432305
 30
0.0
 42
0.1318690089620284
  0
VERTEX
  5
14F
  8
0
 10
263.2004740109953
 20
156.9885789808062
 30
0.0
  0
SEQEND
  5
150
  8
0
  0
POLYLINE
  5
151
  8
0
 66
     1
 10
0.0
 20
0.0
 30
0.0
 70
     1
  0
VERTEX
  5
152
  8
0
 10
236.4007525260918
 20
130.27682011657
 30
0.0
 42
-0.028305760566672
  0
VERTEX
  5
153
  8
0
 10
238.0656543680016
 20
129.0056160359522
 30
0.0
 42
-0.0792012377133012
  0
VERTEX
  5
154
  8
0
 10
241.0671721372554
 20
134.1642314356639
 30
0.0
 42
-0.3328548833098485
  0
VERTEX
  5
155
  8
0
 10
251.5286169757101
 20
140.651757273502
 30
0.0
 42
-0.1584259249931876
  0
VERTEX
  5
156
  8
0
 10
263.2004740109953
 20
139.6006641333633
 30
0.0
  0
VERTEX
  5
157
  8
0
 10
263.2004740109954
 20
141.777958087484
 30
0.0
 42
0.4044158695233894
  0
SEQEND
  5
158
  8
0
  0
POLYLINE
  5
159
  8
0
 66
     1
 10
0.0
 20
0.0
 30
0.0
 70
     1
  0
VERTEX
  5
15A
  8
0
 10
235.2868843293645
 20
117.5461549861028
 30
0.0
  0
VERTEX
  5
15B
  8
0
 10
237.3629142513367
 20
117.5461549861027
 30
0.0
 42
-0.1243125969510525
  0
VERTEX
  5
15C
  8
0
 10
237.3718224342556
 20
126.8291508227731
 30
0.0
 42
0.033734965133433
  0
VERTEX
  5
15D
  8
0
 10
235.6709319054004
 20
128.2485267319
 30
0.0
 42
0.1297832083103409
  0
SEQEND
  5
15E
  8
0
  0
POLYLINE
  5
15F
  8
0
 66
     1
 10
0.0
 20
0.0
 30
0.0
 70
     1
  0
VERTEX
  5
160
  8
0
 10
154.1231275271406
 20
125.5227348683999
 30
0.0
 42
0.2243751582908315
  0
VERTEX
  5
161
  8
0
 10
164.9117507762797
 20
116.1008076860609
 30
0.0
 42
0.5694280360745969
  0
SEQEND
  5
162
  8
0
  0
POLYLINE
  5
163
  8
0
 66
     1
 10
0.0
 20
0.0
 30
0.0
 70
     1
  0
VERTEX
  5
164
  8
0
 10
151.6577387916491
 20
124.2217671116417
 30
0.0
 42
0.2188378472938496
  0
VERTEX
  5
165
  8
0
 10
163.9545428144467
 20
113.4827145557434
 30
0.0
 42
0.0462859280041493
  0
VERTEX
  5
166
  8
0
 10
164.5905469461168
 20
114.8836255595584
 30
0.0
 42
-0.2250512852748713
  0
VERTEX
  5
167
  8
0
 10
152.9602704493247
 20
125.0405858808848
 30
0.0
 42
0.0462859280041526
  0
SEQEND
  5
168
  8
0
  0
POLYLINE
  5
169
  8
0
 66
     1
 10
0.0
 20
0.0
 30
0.0
 70
     1
  0
VERTEX
  5
16A
  8
0
 10
153.3622081359701
 20
263.2481354080041
 30
0.0
 42
0.0820591107752046
  0
VERTEX
  5
16B
  8
0
 10
152.1930926336163
 20
260.2052278565944
 30
0.0
 42
-2.666531815317325
  0
VERTEX
  5
16C
  8
0
 10
170.2233657765721
 20
269.411203687317
 30
0.0
 42
0.0202295271324627
  0
VERTEX
  5
16D
  8
0
 10
167.248834831049
 20
270.67065615479
 30
0.0
 42
2.722895353417145
  0
SEQEND
  5
16E
  8
0
  0
POLYLINE
  5
16F
  8
0
 66
     1
 10
0.0
 20
0.0
 30
0.0
 70
     1
  0
VERTEX
  5
170
  8
0
 10
187.2458806575733
 20
140.3873621418944
 30
0.0
 42
0.0254039503999775
  0
VERTEX
  5
171
  8
0
 10
185.9586724767182
 20
139.5388967101304
 30
0.0
 42
0.5003968318685725
  0
VERTEX
  5
172
  8
0
 10
157.8382252696569
 20
145.9782350160303
 30
0.0
 42
0.0323650840000456
  0
VERTEX
  5
173
  8
0
 10
156.7923418272151
 20
147.0872250765954
 30
0.0
 42
-0.4976478319335392
  0
SEQEND
  5
174
  8
0
  0
POLYLINE
  5
175
  8
0
 66
     1
 10
0.0
 20
0.0
 30
0.0
 70
     1
  0
VERTEX
  5
176
  8
0
 10
173.1891642098088
 20
250.4224452855414
 30
0.0
 42
0.5173554779949913
  0
VERTEX
  5
177
  8
0
 10
189.0311954775638
 20
249.9183818215615
 30
0.0
 42
0.3517083706556031
  0
SEQEND
  5
178
  8
0
  0
POLYLINE
  5
179
  8
0
 66
     1
 10
0.0
 20
0.0
 30
0.0
 70
     1
  0
VERTEX
  5
17A
  8
0
 10
129.4227747449294
 20
266.3734376629631
 30
0.0
 42
0.5797608509281015
  0
VERTEX
  5
17B
  8
0
 10
128.9818203871979
 20
249.8701522391378
 30
0.0
 42
0.3176542009071276
  0
SEQEND
  5
17C
  8
0
  0
POLYLINE
  5
17D
  8
0
 66
     1
 10
0.0
 20
0.0
 30
0.0
 70
     1
  0
VERTEX
  5
17E
  8
0
 10
143.805601689946
 20
251.9833266763879
 30
0.0
 42
-0.2272596602534707
  0
VERTEX
  5
17F
  8
0
 10
135.4284592241611
 20
246.5289175675697
 30
0.0
 42
0.2549087625300058
  0
VERTEX
  5
180
  8
0
 10
136.203297571491
 20
237.8821937094185
 30
0.0
 42
-0.1141265290693803
  0
VERTEX
  5
181
  8
0
 10
152.8103166310433
 20
242.7173273509357
 30
0.0
 42
0.4186861091882377
  0
SEQEND
  5
182
  8
0
  0
POLYLINE
  5
183
  8
0
 66
     1
 10
0.0
 20
0.0
 30
0.0
 70
     1
  0
VERTEX
  5
184
  8
0
 10
154.6130195995801
 20
166.0140958842488
 30
0.0
 42
-0.0207093276328426
  0
VERTEX
  5
185
  8
0
 10
151.4389224692947
 20
166.1744125387299
 30
0.0
 42
-0.4528478838390503
  0
VERTEX
  5
186
  8
0
 10
141.0750543067727
 20
161.8776992596201
 30
0.0
 42
-0.1957180956604213
  0
VERTEX
  5
187
  8
0
 10
143.4474203269072
 20
152.5660271359494
 30
0.0
 42
0.3280912948118271
  0
SEQEND
  5
188
  8
0
  0
POLYLINE
  5
189
  8
0
 66
     1
 10
0.0
 20
0.0
 30
0.0
 70
     1
  0
VERTEX
  5
18A
  8
0
 10
132.4142386820866
 20
129.7371079614452
 30
0.0
 42
-0.0306352654653751
  0
VERTEX
  5
18B
  8
0
 10
133.8078886808661
 20
128.3648790872977
 30
0.0
 42
-0.4726968882695687
  0
VERTEX
  5
18C
  8
0
 10
138.605835238549
 20
132.4730973179643
 30
0.0
 42
-0.2623100376994689
  0
VERTEX
  5
18D
  8
0
 10
138.3751400716587
 20
144.0422181914041
 30
0.0
 42
-0.1870065648362211
  0
VERTEX
  5
18E
  8
0
 10
129.4846174715759
 20
141.6336713000351
 30
0.0
 42
-0.1213852109225765
  0
SEQEND
  5
18F
  8
0
  0
POLYLINE
  5
190
  8
0
 66
     1
 10
0.0
 20
0.0
 30
0.0
 70
     1
  0
VERTEX
  5
191
  8
0
 10
125.4372066933441
 20
163.9044504917532
 30
0.0
 42
0.3896006960993163
  0
VERTEX
  5
192
  8
0
 10
141.629953727568
 20
152.2331426646939
 30
0.0
 42
0.6380848300576648
  0
SEQEND
  5
193
  8
0
  0
POLYLINE
  5
194
  8
0
 66
     1
 10
0.0
 20
0.0
 30
0.0
 70
     1
  0
VERTEX
  5
195
  8
0
 10
123.5437986558126
 20
164.7688551494744
 30
0.0
 42
0.0412405990938313
  0
VERTEX
  5
196
  8
0
 10
121.9255679727966
 20
163.4323778477182
 30
0.0
 42
-0.1742153510061321
  0
VERTEX
  5
197
  8
0
 10
123.8375949589944
 20
175.6530581590052
 30
0.0
 42
-0.0414241743408874
  0
VERTEX
  5
198
  8
0
 10
124.8383315288519
 20
173.5980066087951
 30
0.0
 42
0.1379596316536217
  0
SEQEND
  5
199
  8
0
  0
POLYLINE
  5
19A
  8
0
 66
     1
 10
0.0
 20
0.0
 30
0.0
 70
     1
  0
VERTEX
  5
19B
  8
0
 10
156.8870207414547
 20
143.2835668592125
 30
0.0
 42
0.217356536561002
  0
VERTEX
  5
19C
  8
0
 10
152.8784236965471
 20
129.9567100757746
 30
0.0
 42
0.4390962660633143
  0
SEQEND
  5
19D
  8
0
  0
POLYLINE
  5
19E
  8
0
 66
     1
 10
0.0
 20
0.0
 30
0.0
 70
     1
  0
VERTEX
  5
19F
  8
0
 10
148.7896130966337
 20
129.0112820310032
 30
0.0
 42
-0.2269476470579878
  0
VERTEX
  5
1A0
  8
0
 10
153.9982593366607
 20
146.327784961776
 30
0.0
 42
1.34975736128964
  0
SEQEND
  5
1A1
  8
0
  0
POLYLINE
  5
1A2
  8
0
 66
     1
 10
0.0
 20
0.0
 30
0.0
 70
     1
  0
VERTEX
  5
1A3
  8
0
 10
167.9466397157904
 20
153.1162798605504
 30
0.0
 42
-0.4292148989715744
  0
VERTEX
  5
1A4
  8
0
 10
166.608375963142
 20
163.8314369643768
 30
0.0
 42
-0.2188295068318928
  0
VERTEX
  5
1A5
  8
0
 10
160.0136472617553
 20
166.1722821429034
 30
0.0
 42
-0.2432883736441485
  0
VERTEX
  5
1A6
  8
0
 10
150.9390035443837
 20
150.0460709104621
 30
0.0
 42
-0.1112494120139807
  0
VERTEX
  5
1A7
  8
0
 10
155.6955041938107
 20
147.9917904035325
 30
0.0
 42
-0.1626976424824791
  0
SEQEND
  5
1A8
  8
0
  0
POLYLINE
  5
1A9
  8
0
 66
     1
 10
0.0
 20
0.0
 30
0.0
 70
     1
  0
VERTEX
  5
1AA
  8
0
 10
153.3708744356973
 20
127.6152945474915
 30
0.0
 42
0.0031013679814908
  0
VERTEX
  5
1AB
  8
0
 10
153.4293274315881
 20
127.4157284283632
 30
0.0
 42
-0.1985796278125061
  0
VERTEX
  5
1AC
  8
0
 10
161.3148968943351
 20
126.8782498342035
 30
0.0
 42
-0.5832581345079217
  0
VERTEX
  5
1AD
  8
0
 10
167.5849677205917
 20
133.5644397669104
 30
0.0
 42
-0.5020139636063391
  0
VERTEX
  5
1AE
  8
0
 10
169.8548245023802
 20
148.986261177126
 30
0.0
 42
0.1844642887232512
  0
VERTEX
  5
1AF
  8
0
 10
158.5894429084226
 20
144.9647846238076
 30
0.0
 42
-0.4686570845394753
  0
SEQEND
  5
1B0
  8
0
  0
POLYLINE
  5
1B1
  8
0
 66
     1
 10
0.0
 20
0.0
 30
0.0
 70
     1
  0
VERTEX
  5
1B2
  8
0
 10
151.6769570886976
 20
129.4732767801019
 30
0.0
 42
-0.0404539803641668
  0
VERTEX
  5
1B3
  8
0
 10
150.1914053390548
 20
129.1205592914565
 30
0.0
 42
-0.2298346993138802
  0
VERTEX
  5
1B4
  8
0
 10
155.1071572836703
 20
145.4633149775188
 30
0.0
 42
-0.0404539803641607
  0
VERTEX
  5
1B5
  8
0
 10
156.1516174026361
 20
144.3495929800915
 30
0.0
 42
0.2265630213191652
  0
SEQEND
  5
1B6
  8
0
  0
POLYLINE
  5
1B7
  8
0
 66
     1
 10
0.0
 20
0.0
 30
0.0
 70
     1
  0
VERTEX
  5
1B8
  8
0
 10
147.2859945449316
 20
150.1573298713567
 30
0.0
 42
0.2859253035218587
  0
VERTEX
  5
1B9
  8
0
 10
158.1600706749648
 20
166.146117320039
 30
0.0
 42
-0.011859709853119
  0
VERTEX
  5
1BA
  8
0
 10
156.3427513714336
 20
166.0374219942789
 30
0.0
 42
-0.3443081230595212
  0
VERTEX
  5
1BB
  8
0
 10
143.048718955912
 20
150.7102196082919
 30
0.0
 42
-0.0412405990938239
  0
VERTEX
  5
1BC
  8
0
 10
142.2925171617611
 20
148.7524144678126
 30
0.0
 42
0.0141648222902014
  0
VERTEX
  5
1BD
  8
0
 10
143.3152600865272
 20
148.9177692693341
 30
0.0
 42
-0.0889228645890148
  0
SEQEND
  5
1BE
  8
0
  0
POLYLINE
  5
1BF
  8
0
 66
     1
 10
0.0
 20
0.0
 30
0.0
 70
     1
  0
VERTEX
  5
1C0
  8
0
 10
132.2218560995239
 20
280.1962621090793
 30
0.0
 42
0.2888893010216607
  0
VERTEX
  5
1C1
  8
0
 10
139.7982673430021
 20
280.3077418123616
 30
0.0
 42
0.2029050007578282
  0
VERTEX
  5
1C2
  8
0
 10
140.9892018957038
 20
267.153104613687
 30
0.0
 42
0.2534986520686604
  0
VERTEX
  5
1C3
  8
0
 10
130.1123012156558
 20
268.9129467168408
 30
0.0
 42
0.2543792477486438
  0
SEQEND
  5
1C4
  8
0
  0
POLYLINE
  5
1C5
  8
0
 66
     1
 10
0.0
 20
0.0
 30
0.0
 70
     1
  0
VERTEX
  5
1C6
  8
0
 10
190.7971031660995
 20
266.8686925781473
 30
0.0
 42
0.2301470362259437
  0
VERTEX
  5
1C7
  8
0
 10
172.023840279883
 20
269.8239197698853
 30
0.0
 42
-0.0338125502719199
  0
VERTEX
  5
1C8
  8
0
 10
171.1608319743793
 20
267.7037468124876
 30
0.0
 42
-0.2655997321579729
  0
VERTEX
  5
1C9
  8
0
 10
190.7971031660994
 20
264.7220185445973
 30
0.0
  0
SEQEND
  5
1CA
  8
0
  0
POLYLINE
  5
1CB
  8
0
 66
     1
 10
0.0
 20
0.0
 30
0.0
 70
     1
  0
VERTEX
  5
1CC
  8
0
 10
126.1839746703102
 20
178.9955911439127
 30
0.0
 42
0.011859709853127
  0
VERTEX
  5
1CD
  8
0
 10
127.4207585611022
 20
177.6596159449262
 30
0.0
 42
0.0397161127844434
  0
VERTEX
  5
1CE
  8
0
 10
125.8734991621422
 20
175.5530963343129
 30
0.0
 42
0.0325239973971702
  0
VERTEX
  5
1CF
  8
0
 10
124.8537970375335
 20
177.2991262055309
 30
0.0
 42
-0.0294941124171672
  0
SEQEND
  5
1D0
  8
0
  0
POLYLINE
  5
1D1
  8
0
 66
     1
 10
0.0
 20
0.0
 30
0.0
 70
     1
  0
VERTEX
  5
1D2
  8
0
 10
187.0296159640801
 20
183.3050523333872
 30
0.0
 42
0.0539173139830201
  0
VERTEX
  5
1D3
  8
0
 10
190.7971031660994
 20
190.6489982417644
 30
0.0
  0
VERTEX
  5
1D4
  8
0
 10
190.7971031660994
 20
185.4245432872126
 30
0.0
 42
0.0876525102084708
  0
SEQEND
  5
1D5
  8
0
  0
POLYLINE
  5
1D6
  8
0
 66
     1
 10
0.0
 20
0.0
 30
0.0
 70
     1
  0
VERTEX
  5
1D7
  8
0
 10
133.1694711631666
 20
246.4558177788668
 30
0.0
 42
-0.0749046931082613
  0
VERTEX
  5
1D8
  8
0
 10
129.8032164514959
 20
247.1911280844753
 30
0.0
 42
-0.0228304760546089
  0
VERTEX
  5
1D9
  8
0
 10
128.7269696556226
 20
246.1183935483274
 30
0.0
 42
-0.1085430918193575
  0
VERTEX
  5
1DA
  8
0
 10
132.598667451828
 20
242.5546389149103
 30
0.0
 42
-0.0890852866061001
  0
SEQEND
  5
1DB
  8
0
  0
POLYLINE
  5
1DC
  8
0
 66
     1
 10
0.0
 20
0.0
 30
0.0
 70
     1
  0
VERTEX
  5
1DD
  8
0
 10
155.4863388466927
 20
259.7501997488656
 30
0.0
 42
-0.1277261413960136
  0
VERTEX
  5
1DE
  8
0
 10
156.2283704009116
 20
262.9766450787533
 30
0.0
 42
0.2715165461757786
  0
VERTEX
  5
1DF
  8
0
 10
166.6893864340753
 20
269.4542083651036
 30
0.0
 42
-0.0434944992215927
  0
VERTEX
  5
1E0
  8
0
 10
169.6288500378093
 20
268.1070315435394
 30
0.0
 42
-0.2890754306803678
  0
SEQEND
  5
1E1
  8
0
  0
POLYLINE
  5
1E2
  8
0
 66
     1
 10
0.0
 20
0.0
 30
0.0
 70
     1
  0
VERTEX
  5
1E3
  8
0
 10
118.9160191305732
 20
185.3206726566643
 30
0.0
 42
0.13603814500307
  0
VERTEX
  5
1E4
  8
0
 10
121.2970347014065
 20
185.9561626718169
 30
0.0
 42
-0.0375848412513597
  0
VERTEX
  5
1E5
  8
0
 10
118.9160191305732
 20
191.2034933895524
 30
0.0
  0
SEQEND
  5
1E6
  8
0
  0
POLYLINE
  5
1E7
  8
0
 66
     1
 10
0.0
 20
0.0
 30
0.0
 70
     1
  0
VERTEX
  5
1E8
  8
0
 10
190.7971031660994
 20
287.2916026067343
 30
0.0
 42
0.7694058264745189
  0
VERTEX
  5
1E9
  8
0
 10
190.7971031660995
 20
273.3879865109499
 30
0.0
  0
SEQEND
  5
1EA
  8
0
  0
POLYLINE
  5
1EB
  8
0
 66
     1
 10
0.0
 20
0.0
 30
0.0
 70
     1
  0
VERTEX
  5
1EC
  8
0
 10
190.7971031660994
 20
289.7830726722281
 30
0.0
 42
0.8236786875815922
  0
VERTEX
  5
1ED
  8
0
 10
190.7971031660994
 20
270.8965164454561
 30
0.0
  0
VERTEX
  5
1EE
  8
0
 10
190.7971031660994
 20
270.3460020796533
 30
0.0
 42
-0.5762331366309911
  0
VERTEX
  5
1EF
  8
0
 10
178.3200561312409
 20
293.3083386857928
 30
0.0
  0
VERTEX
  5
1F0
  8
0
 10
190.7971031660994
 20
293.3083386857929
 30
0.0
  0
SEQEND
  5
1F1
  8
0
  0
POLYLINE
  5
1F2
  8
0
 66
     1
 10
0.0
 20
0.0
 30
0.0
 70
     1
  0
VERTEX
  5
1F3
  8
0
 10
122.3451034047883
 20
184.1600001148904
 30
0.0
 42
-0.1350388817889484
  0
VERTEX
  5
1F4
  8
0
 10
118.9160191305732
 20
183.2410344494218
 30
0.0
  0
VERTEX
  5
1F5
  8
0
 10
118.9160191305732
 20
182.5118235308427
 30
0.0
 42
-0.0975712223610395
  0
VERTEX
  5
1F6
  8
0
 10
123.6742678569851
 20
178.8321610629262
 30
0.0
 42
-0.0256129809673634
  0
VERTEX
  5
1F7
  8
0
 10
124.9811261762199
 20
180.4271925153424
 30
0.0
 42
-0.0297908231722521
  0
SEQEND
  5
1F8
  8
0
  0
POLYLINE
  5
1F9
  8
0
 66
     1
 10
0.0
 20
0.0
 30
0.0
 70
     1
  0
VERTEX
  5
1FA
  8
0
 10
124.0797950104276
 20
227.1898787528556
 30
0.0
 42
0.1172341934121219
  0
VERTEX
  5
1FB
  8
0
 10
118.9160191305733
 20
229.0856232160893
 30
0.0
  0
VERTEX
  5
1FC
  8
0
 10
118.9160191305732
 20
227.3276156913704
 30
0.0
 42
-0.1108349431745752
  0
VERTEX
  5
1FD
  8
0
 10
123.0760038923799
 20
225.7632767446453
 30
0.0
 42
-0.0113631405442571
  0
SEQEND
  5
1FE
  8
0
  0
POLYLINE
  5
1FF
  8
0
 66
     1
 10
0.0
 20
0.0
 30
0.0
 70
     1
  0
VERTEX
  5
200
  8
0
 10
170.6173453365278
 20
250.7200626023073
 30
0.0
 42
0.1880830496726854
  0
VERTEX
  5
201
  8
0
 10
166.2521313021372
 20
241.0790818408861
 30
0.0
 42
0.0592961919641368
  0
VERTEX
  5
202
  8
0
 10
157.327089360274
 20
242.7045674455077
 30
0.0
 42
-0.2419815282312088
  0
VERTEX
  5
203
  8
0
 10
161.7409180208819
 20
259.2191796689969
 30
0.0
 42
0.1590143053018471
  0
VERTEX
  5
204
  8
0
 10
170.0116516069989
 20
265.7068792706044
 30
0.0
 42
-0.1460930749488144
  0
VERTEX
  5
205
  8
0
 10
180.5208238944298
 20
267.5603992297298
 30
0.0
 42
0.5296216927804568
  0
SEQEND
  5
206
  8
0
  0
POLYLINE
  5
207
  8
0
 66
     1
 10
0.0
 20
0.0
 30
0.0
 70
     1
  0
VERTEX
  5
208
  8
0
 10
174.70169923884
 20
164.1823820904607
 30
0.0
 42
5.122808524323048
  0
VERTEX
  5
209
  8
0
 10
177.577142825981
 20
161.1216227640948
 30
0.0
 42
-0.0631325027800188
  0
SEQEND
  5
20A
  8
0
  0
POLYLINE
  5
20B
  8
0
 66
     1
 10
0.0
 20
0.0
 30
0.0
 70
     1
  0
VERTEX
  5
20C
  8
0
 10
136.2818250966246
 20
124.6928031579139
 30
0.0
 42
-0.1938147782200419
  0
VERTEX
  5
20D
  8
0
 10
137.1281549261469
 20
112.7860177101796
 30
0.0
  0
VERTEX
  5
20E
  8
0
 10
147.5736549573073
 20
112.7860177101796
 30
0.0
 42
-0.3411639246555974
  0
VERTEX
  5
20F
  8
0
 10
149.7403992110931
 20
125.2418970107175
 30
0.0
 42
-0.0180832154355151
  0
VERTEX
  5
210
  8
0
 10
149.2872411456019
 20
126.6870788255589
 30
0.0
 42
-0.166330625273387
  0
VERTEX
  5
211
  8
0
 10
141.9633179656729
 20
128.8306542190001
 30
0.0
 42
-0.5692334699239237
  0
SEQEND
  5
212
  8
0
  0
POLYLINE
  5
213
  8
0
 66
     1
 10
0.0
 20
0.0
 30
0.0
 70
     1
  0
VERTEX
  5
214
  8
0
 10
127.341323591127
 20
244.9878131584859
 30
0.0
 42
-0.1375978408226105
  0
VERTEX
  5
215
  8
0
 10
118.9160191305732
 20
241.8437867350788
 30
0.0
  0
VERTEX
  5
216
  8
0
 10
118.9160191305733
 20
230.1178860906309
 30
0.0
 42
-0.1209187824251733
  0
VERTEX
  5
217
  8
0
 10
124.7010492958766
 20
228.0083464797447
 30
0.0
 42
-0.0760794796578986
  0
VERTEX
  5
218
  8
0
 10
133.148483181645
 20
235.977601488139
 30
0.0
 42
0.2712439674617467
  0
SEQEND
  5
219
  8
0
  0
POLYLINE
  5
21A
  8
0
 66
     1
 10
0.0
 20
0.0
 30
0.0
 70
     1
  0
VERTEX
  5
21B
  8
0
 10
118.9160191305732
 20
264.6304501637264
 30
0.0
 42
0.1266671022109359
  0
VERTEX
  5
21C
  8
0
 10
124.8786872281746
 20
265.1977912775574
 30
0.0
 42
0.4424988557044695
  0
VERTEX
  5
21D
  8
0
 10
127.6210375377011
 20
248.3013673000064
 30
0.0
 42
-0.0295493359094937
  0
VERTEX
  5
21E
  8
0
 10
126.356136976795
 20
247.1817570319083
 30
0.0
 42
0.1553452927451035
  0
VERTEX
  5
21F
  8
0
 10
118.9160191305733
 20
247.2356962239304
 30
0.0
  0
SEQEND
  5
220
  8
0
  0
POLYLINE
  5
221
  8
0
 66
     1
 10
0.0
 20
0.0
 30
0.0
 70
     1
  0
VERTEX
  5
222
  8
0
 10
142.5610992453911
 20
254.0053228952912
 30
0.0
 42
0.6285455330933288
  0
VERTEX
  5
223
  8
0
 10
131.6575780521413
 20
267.2327342272378
 30
0.0
 42
-0.3003558908077263
  0
VERTEX
  5
224
  8
0
 10
131.167548401193
 20
248.8927426749656
 30
0.0
 42
0.077835945496695
  0
VERTEX
  5
225
  8
0
 10
134.0827842600947
 20
248.4850397352389
 30
0.0
 42
-0.2398405998497276
  0
SEQEND
  5
226
  8
0
  0
POLYLINE
  5
227
  8
0
 66
     1
 10
0.0
 20
0.0
 30
0.0
 70
     1
  0
VERTEX
  5
228
  8
0
 10
190.7971031660994
 20
248.7744132272275
 30
0.0
 42
-0.51330821998366
  0
VERTEX
  5
229
  8
0
 10
171.6088562147394
 20
249.0129963602109
 30
0.0
 42
0.1890822492212673
  0
VERTEX
  5
22A
  8
0
 10
168.1368861948242
 20
240.4450404734817
 30
0.0
 42
-0.1374962408187084
  0
VERTEX
  5
22B
  8
0
 10
184.9542906301878
 20
228.3447867372852
 30
0.0
 42
0.1450243499634092
  0
VERTEX
  5
22C
  8
0
 10
190.7971031660994
 20
232.5398120692232
 30
0.0
  0
SEQEND
  5
22D
  8
0
  0
POLYLINE
  5
22E
  8
0
 66
     1
 10
0.0
 20
0.0
 30
0.0
 70
     1
  0
VERTEX
  5
22F
  8
0
 10
122.366884061241
 20
112.7860177101796
 30
0.0
 42
0.1995400026002684
  0
VERTEX
  5
230
  8
0
 10
129.8010110516458
 20
128.8086534621037
 30
0.0
 42
0.2128484420855437
  0
VERTEX
  5
231
  8
0
 10
118.9160191305733
 20
130.9802273965311
 30
0.0
  0
VERTEX
  5
232
  8
0
 10
118.9160191305732
 20
112.7860177101797
 30
0.0
  0
SEQEND
  5
233
  8
0
  0
POLYLINE
  5
234
  8
0
 66
     1
 10
0.0
 20
0.0
 30
0.0
 70
     1
  0
VERTEX
  5
235
  8
0
 10
118.9160191305733
 20
149.3090628942825
 30
0.0
  0
VERTEX
  5
236
  8
0
 10
118.9160191305733
 20
133.3787043263569
 30
0.0
 42
-0.1770313064264555
  0
VERTEX
  5
237
  8
0
 10
129.7430269495373
 20
131.6197846889931
 30
0.0
 42
0.2380959283665856
  0
SEQEND
  5
238
  8
0
  0
POLYLINE
  5
239
  8
0
 66
     1
 10
0.0
 20
0.0
 30
0.0
 70
     1
  0
VERTEX
  5
23A
  8
0
 10
121.1359910246014
 20
159.5298064890585
 30
0.0
 42
0.1881577030711005
  0
VERTEX
  5
23B
  8
0
 10
120.1586845423515
 20
151.5905032447479
 30
0.0
 42
-0.1132587128425968
  0
VERTEX
  5
23C
  8
0
 10
128.3490469950609
 20
143.5845709675378
 30
0.0
 42
0.2667955722050352
  0
VERTEX
  5
23D
  8
0
 10
138.8398609894126
 20
146.769320843675
 30
0.0
 42
-0.2943674053810107
  0
SEQEND
  5
23E
  8
0
  0
POLYLINE
  5
23F
  8
0
 66
     1
 10
0.0
 20
0.0
 30
0.0
 70
     1
  0
VERTEX
  5
240
  8
0
 10
120.4288011326827
 20
161.6823972155143
 30
0.0
 42
0.0632062199561326
  0
VERTEX
  5
241
  8
0
 10
118.9160191305732
 20
158.8520412057798
 30
0.0
  0
VERTEX
  5
242
  8
0
 10
118.9160191305732
 20
180.5345199436999
 30
0.0
 42
-0.0899944369562434
  0
VERTEX
  5
243
  8
0
 10
122.666791917472
 20
177.3282753131117
 30
0.0
 42
0.2043853578543
  0
SEQEND
  5
244
  8
0
  0
POLYLINE
  5
245
  8
0
 66
     1
 10
0.0
 20
0.0
 30
0.0
 70
     1
  0
VERTEX
  5
246
  8
0
 10
144.7863358324342
 20
254.0196299889085
 30
0.0
 42
0.1924754329248005
  0
VERTEX
  5
247
  8
0
 10
144.5345050806785
 20
262.6014478002568
 30
0.0
 42
0.2065767541831898
  0
VERTEX
  5
248
  8
0
 10
157.2356422228384
 20
258.2432326928923
 30
0.0
 42
0.1317017568319764
  0
VERTEX
  5
249
  8
0
 10
153.908192110601
 20
247.5077744075791
 30
0.0
 42
0.2694893324451816
  0
SEQEND
  5
24A
  8
0
  0
POLYLINE
  5
24B
  8
0
 66
     1
 10
0.0
 20
0.0
 30
0.0
 70
     1
  0
VERTEX
  5
24C
  8
0
 10
188.6310006338196
 20
222.8209648858137
 30
0.0
 42
0.0067031407800538
  0
VERTEX
  5
24D
  8
0
 10
190.7971031660994
 20
223.9550189270096
 30
0.0
  0
VERTEX
  5
24E
  8
0
 10
190.7971031660994
 20
226.7472113322187
 30
0.0
 42
-0.0499615641838577
  0
VERTEX
  5
24F
  8
0
 10
187.5543748778655
 20
224.6646429650655
 30
0.0
 42
-0.0139088250196001
  0
SEQEND
  5
250
  8
0
  0
POLYLINE
  5
251
  8
0
 66
     1
 10
0.0
 20
0.0
 30
0.0
 70
     1
  0
VERTEX
  5
252
  8
0
 10
189.3492454280974
 20
221.442954642542
 30
0.0
 42
-0.0234958188586058
  0
VERTEX
  5
253
  8
0
 10
190.7971031660994
 20
218.1411239963984
 30
0.0
  0
VERTEX
  5
254
  8
0
 10
190.7971031660994
 20
222.2073897974401
 30
0.0
 42
-0.0094941606252608
  0
SEQEND
  5
255
  8
0
  0
POLYLINE
  5
256
  8
0
 66
     1
 10
0.0
 20
0.0
 30
0.0
 70
     1
  0
VERTEX
  5
257
  8
0
 10
190.7971031660994
 20
159.5153705692239
 30
0.0
 42
-0.4052689871652962
  0
VERTEX
  5
258
  8
0
 10
173.8196917561816
 20
170.9653048960337
 30
0.0
 42
0.0823643527523302
  0
VERTEX
  5
259
  8
0
 10
183.6019720828374
 20
178.8434854824348
 30
0.0
 42
0.4405550792168908
  0
VERTEX
  5
25A
  8
0
 10
190.7971031660994
 20
161.9791272112045
 30
0.0
  0
SEQEND
  5
25B
  8
0
  0
POLYLINE
  5
25C
  8
0
 66
     1
 10
0.0
 20
0.0
 30
0.0
 70
     1
  0
VERTEX
  5
25D
  8
0
 10
185.5269084654615
 20
118.7574445756843
 30
0.0
 42
0.1260706658753602
  0
VERTEX
  5
25E
  8
0
 10
190.7971031660994
 20
115.2808208910503
 30
0.0
  0
VERTEX
  5
25F
  8
0
 10
190.7971031660994
 20
139.3269845898698
 30
0.0
 42
0.0299062939271659
  0
VERTEX
  5
260
  8
0
 10
189.3923304160309
 20
138.746054393748
 30
0.0
 42
-0.2593404824313602
  0
SEQEND
  5
261
  8
0
  0
POLYLINE
  5
262
  8
0
 66
     1
 10
0.0
 20
0.0
 30
0.0
 70
     1
  0
VERTEX
  5
263
  8
0
 10
190.5070978734371
 20
112.7860177101797
 30
0.0
  0
VERTEX
  5
264
  8
0
 10
177.2814585300961
 20
112.7860177101796
 30
0.0
 42
0.0935320364068182
  0
VERTEX
  5
265
  8
0
 10
183.8307715688415
 20
116.9638755803547
 30
0.0
 42
0.1319516138795957
  0
SEQEND
  5
266
  8
0
  0
POLYLINE
  5
267
  8
0
 66
     1
 10
0.0
 20
0.0
 30
0.0
 70
     1
  0
VERTEX
  5
268
  8
0
 10
165.3787087812059
 20
123.2713134793177
 30
0.0
 42
-0.1944097920491191
  0
VERTEX
  5
269
  8
0
 10
166.8809167848581
 20
115.6681780276806
 30
0.0
 42
0.2412803767451093
  0
VERTEX
  5
26A
  8
0
 10
181.4054557822369
 20
120.4398598112977
 30
0.0
 42
-0.2203984185114784
  0
VERTEX
  5
26B
  8
0
 10
180.9550708406452
 20
133.1958259795795
 30
0.0
 42
-0.2920191797693412
  0
VERTEX
  5
26C
  8
0
 10
170.633234705878
 20
131.4977451894533
 30
0.0
 42
-0.6740136162267374
  0
SEQEND
  5
26D
  8
0
  0
POLYLINE
  5
26E
  8
0
 66
     1
 10
0.0
 20
0.0
 30
0.0
 70
     1
  0
VERTEX
  5
26F
  8
0
 10
123.904669784786
 20
162.8658819141138
 30
0.0
 42
0.0469256484247028
  0
VERTEX
  5
270
  8
0
 10
122.4301649262799
 20
161.4258108035363
 30
0.0
 42
0.3332236148484498
  0
VERTEX
  5
271
  8
0
 10
140.2293499629515
 20
148.5966245515237
 30
0.0
 42
0.0469256484246748
  0
VERTEX
  5
272
  8
0
 10
141.1292775816123
 20
150.4508358831819
 30
0.0
 42
-0.3650563920925955
  0
SEQEND
  5
273
  8
0
  0
POLYLINE
  5
274
  8
0
 66
     1
 10
0.0
 20
0.0
 30
0.0
 70
     1
  0
VERTEX
  5
275
  8
0
 10
125.1783103393312
 20
165.7339229809685
 30
0.0
 42
-0.198348998845702
  0
VERTEX
  5
276
  8
0
 10
128.6533811537561
 20
176.4458788835957
 30
0.0
 42
0.0681466720689949
  0
VERTEX
  5
277
  8
0
 10
137.1349704290361
 20
170.4028397465066
 30
0.0
 42
0.1914232580883292
  0
VERTEX
  5
278
  8
0
 10
137.853784877284
 20
164.93688113962
 30
0.0
 42
0.266885351117194
  0
SEQEND
  5
279
  8
0
  0
POLYLINE
  5
27A
  8
0
 66
     1
 10
0.0
 20
0.0
 30
0.0
 70
     1
  0
VERTEX
  5
27B
  8
0
 10
190.7971031660994
 20
253.8130208964295
 30
0.0
  0
VERTEX
  5
27C
  8
0
 10
190.7971031660994
 20
257.7404115657262
 30
0.0
 42
1.095279497597414
  0
VERTEX
  5
27D
  8
0
 10
172.2916438304619
 20
252.1265209277811
 30
0.0
 42
-0.3399275692685518
  0
VERTEX
  5
27E
  8
0
 10
190.0352316623625
 20
251.5619535314155
 30
0.0
 42
0.061422861108239
  0
SEQEND
  5
27F
  8
0
  0
POLYLINE
  5
280
  8
0
 66
     1
 10
0.0
 20
0.0
 30
0.0
 70
     1
  0
VERTEX
  5
281
  8
0
 10
190.7971031660994
 20
164.1041870612718
 30
0.0
 42
-0.6592897119025705
  0
VERTEX
  5
282
  8
0
 10
190.7971031660994
 20
183.2994834371453
 30
0.0
  0
SEQEND
  5
283
  8
0
  0
POLYLINE
  5
284
  8
0
 66
     1
 10
0.0
 20
0.0
 30
0.0
 70
     1
  0
VERTEX
  5
285
  8
0
 10
118.9160191305732
 20
217.5866288486102
 30
0.0
 42
-0.0182472694869068
  0
VERTEX
  5
286
  8
0
 10
119.9738460317829
 20
220.1797378878104
 30
0.0
 42
-0.0128950629043112
  0
VERTEX
  5
287
  8
0
 10
118.9160191305732
 20
220.2966779545343
 30
0.0
  0
SEQEND
  5
288
  8
0
  0
POLYLINE
  5
289
  8
0
 66
     1
 10
0.0
 20
0.0
 30
0.0
 70
     1
  0
VERTEX
  5
28A
  8
0
 10
149.9346594559218
 20
112.7860177101797
 30
0.0
  0
VERTEX
  5
28B
  8
0
 10
161.6923197705488
 20
112.7860177101796
 30
0.0
 42
-0.1885240705133253
  0
VERTEX
  5
28C
  8
0
 10
150.5733930674743
 20
123.227342668764
 30
0.0
 42
0.3532184659532971
  0
SEQEND
  5
28D
  8
0
  0
POLYLINE
  5
28E
  8
0
 66
     1
 10
0.0
 20
0.0
 30
0.0
 70
     1
  0
VERTEX
  5
28F
  8
0
 10
118.9160191305732
 20
244.1975717173728
 30
0.0
 42
0.1034823349540984
  0
VERTEX
  5
290
  8
0
 10
124.5061377537995
 20
245.94928720407
 30
0.0
 42
0.1345997023673249
  0
VERTEX
  5
291
  8
0
 10
118.9160191305733
 20
245.4885289643705
 30
0.0
  0
SEQEND
  5
292
  8
0
  0
POLYLINE
  5
293
  8
0
 66
     1
 10
0.0
 20
0.0
 30
0.0
 70
     1
  0
VERTEX
  5
294
  8
0
 10
118.9160191305733
 20
266.7408516063691
 30
0.0
 42
0.2278652475317632
  0
VERTEX
  5
295
  8
0
 10
127.2378973365884
 20
268.9341278950406
 30
0.0
 42
0.1637023487822073
  0
VERTEX
  5
296
  8
0
 10
118.9160191305733
 20
272.6700618991015
 30
0.0
  0
SEQEND
  5
297
  8
0
  0
POLYLINE
  5
298
  8
0
 66
     1
 10
0.0
 20
0.0
 30
0.0
 70
     1
  0
VERTEX
  5
299
  8
0
 10
190.7971031660994
 20
268.4508954847829
 30
0.0
  0
VERTEX
  5
29A
  8
0
 10
190.7971031660994
 20
269.4248767014772
 30
0.0
 42
-0.0263496733886446
  0
VERTEX
  5
29B
  8
0
 10
189.1290378949907
 20
269.4224822098255
 30
0.0
 42
-0.0209433357822105
  0
SEQEND
  5
29C
  8
0
  0
POLYLINE
  5
29D
  8
0
 66
     1
 10
0.0
 20
0.0
 30
0.0
 70
     1
  0
VERTEX
  5
29E
  8
0
 10
190.7971031660994
 20
141.9073220870547
 30
0.0
 42
0.0406835585732577
  0
VERTEX
  5
29F
  8
0
 10
188.4871580188041
 20
141.0426677796669
 30
0.0
 42
0.2155469670533785
  0
VERTEX
  5
2A0
  8
0
 10
175.4201223167101
 20
152.3150706816703
 30
0.0
 42
0.3121826732133016
  0
VERTEX
  5
2A1
  8
0
 10
179.8030480324619
 20
159.5687391553051
 30
0.0
 42
0.1724963487142782
  0
VERTEX
  5
2A2
  8
0
 10
190.7971031660994
 20
157.498298971855
 30
0.0
  0
SEQEND
  5
2A3
  8
0
  0
POLYLINE
  5
2A4
  8
0
 66
     1
 10
0.0
 20
0.0
 30
0.0
 70
     1
  0
VERTEX
  5
2A5
  8
0
 10
185.7890604550025
 20
136.1306812833153
 30
0.0
 42
0.2962271672862751
  0
VERTEX
  5
2A6
  8
0
 10
183.1584858494851
 20
122.5276309412313
 30
0.0
 42
0.2162995474443676
  0
SEQEND
  5
2A7
  8
0
  0
POLYLINE
  5
2A8
  8
0
 66
     1
 10
0.0
 20
0.0
 30
0.0
 70
     1
  0
VERTEX
  5
2A9
  8
0
 10
183.7684860524352
 20
121.2357721279505
 30
0.0
 42
0.0317655210347199
  0
VERTEX
  5
2AA
  8
0
 10
184.6272377267322
 20
119.8686321114304
 30
0.0
 42
0.2519167104189522
  0
VERTEX
  5
2AB
  8
0
 10
188.1432494174412
 20
138.0503951117101
 30
0.0
 42
0.0317655210347343
  0
VERTEX
  5
2AC
  8
0
 10
186.8367130681521
 20
137.1019811562748
 30
0.0
 42
-0.2367418238397877
  0
SEQEND
  5
2AD
  8
0
  0
POLYLINE
  5
2AE
  8
0
 66
     1
 10
0.0
 20
0.0
 30
0.0
 70
     1
  0
VERTEX
  5
2AF
  8
0
 10
166.5681157551798
 20
114.44365756222
 30
0.0
 42
-0.0435520568019827
  0
VERTEX
  5
2B0
  8
0
 10
165.8706280312311
 20
112.7860177101796
 30
0.0
  0
VERTEX
  5
2B1
  8
0
 10
171.4875963239863
 20
112.7860177101797
 30
0.0
 42
0.1653541477964248
  0
VERTEX
  5
2B2
  8
0
 10
182.9232971927534
 20
118.0347094718355
 30
0.0
 42
-0.0254039503999532
  0
VERTEX
  5
2B3
  8
0
 10
182.0452173500222
 20
119.3019009646841
 30
0.0
 42
-0.2377510459360523
  0
SEQEND
  5
2B4
  8
0
  0
POLYLINE
  5
2B5
  8
0
 66
     1
 10
0.0
 20
0.0
 30
0.0
 70
     1
  0
VERTEX
  5
2B6
  8
0
 10
132.2224856222182
 20
126.6127710085557
 30
0.0
 42
-0.1514469700815786
  0
VERTEX
  5
2B7
  8
0
 10
125.9968742751254
 20
112.7860177101797
 30
0.0
  0
VERTEX
  5
2B8
  8
0
 10
134.6384682316427
 20
112.7860177101797
 30
0.0
 42
0.277299186671273
  0
SEQEND
  5
2B9
  8
0
  0
POLYLINE
  5
2BA
  8
0
 66
     1
 10
0.0
 20
0.0
 30
0.0
 70
     1
  0
VERTEX
  5
2BB
  8
0
 10
122.0792438743477
 20
224.1951824709218
 30
0.0
 42
0.1036992895647564
  0
VERTEX
  5
2BC
  8
0
 10
118.9160191305732
 20
225.4475691096642
 30
0.0
  0
VERTEX
  5
2BD
  8
0
 10
118.9160191305733
 20
222.0545284632679
 30
0.0
 42
0.0248803946448375
  0
VERTEX
  5
2BE
  8
0
 10
120.7863194035652
 20
221.869250451985
 30
0.0
 42
-0.0173381583558255
  0
SEQEND
  5
2BF
  8
0
  0
POLYLINE
  5
2C0
  8
0
 66
     1
 10
0.0
 20
0.0
 30
0.0
 70
     1
  0
VERTEX
  5
2C1
  8
0
 10
138.8029095923357
 20
169.5790768800479
 30
0.0
 42
0.8966298814101172
  0
VERTEX
  5
2C2
  8
0
 10
149.5911782557387
 20
166.38992967005
 30
0.0
 42
-0.0736717295375921
  0
SEQEND
  5
2C3
  8
0
  0
POLYLINE
  5
2C4
  8
0
 66
     1
 10
0.0
 20
0.0
 30
0.0
 70
     1
  0
VERTEX
  5
2C5
  8
0
 10
172.1303734116645
 20
170.0670361895675
 30
0.0
 42
-0.4957425572626099
  0
VERTEX
  5
2C6
  8
0
 10
162.1514169282868
 20
166.6921520526396
 30
0.0
 42
0.0689393404878659
  0
SEQEND
  5
2C7
  8
0
  0
POLYLINE
  5
2C8
  8
0
 66
     1
 10
0.0
 20
0.0
 30
0.0
 70
     1
  0
VERTEX
  5
2C9
  8
0
 10
118.9160191305733
 20
275.0238468813955
 30
0.0
 42
-0.1672440922534788
  0
VERTEX
  5
2CA
  8
0
 10
128.8301857493842
 20
270.6545549811469
 30
0.0
 42
0.6803387151134938
  0
VERTEX
  5
2CB
  8
0
 10
118.9160191305732
 20
286.2465197125729
 30
0.0
  0
SEQEND
  5
2CC
  8
0
  0
POLYLINE
  5
2CD
  8
0
 66
     1
 10
0.0
 20
0.0
 30
0.0
 70
     1
  0
VERTEX
  5
2CE
  8
0
 10
128.871485362632
 20
285.3846177136461
 30
0.0
 42
0.2274361910106227
  0
VERTEX
  5
2CF
  8
0
 10
118.9160191305733
 20
288.3569211552156
 30
0.0
  0
VERTEX
  5
2D0
  8
0
 10
118.9160191305733
 20
293.3083386857929
 30
0.0
  0
VERTEX
  5
2D1
  8
0
 10
135.0201075441381
 20
293.3083386857929
 30
0.0
 42
0.413181991392165
  0
SEQEND
  5
2D2
  8
0
  0
POLYLINE
  5
2D3
  8
0
 66
     1
 10
0.0
 20
0.0
 30
0.0
 70
     1
  0
VERTEX
  5
2D4
  8
0
 10
176.3130757010599
 20
293.3083386857929
 30
0.0
  0
VERTEX
  5
2D5
  8
0
 10
157.3121819158616
 20
293.3083386857928
 30
0.0
  0
VERTEX
  5
2D6
  8
0
 10
157.3121819158616
 20
292.0254300078452
 30
0.0
 42
-0.4577604015391648
  0
VERTEX
  5
2D7
  8
0
 10
172.4408927532522
 20
271.3113450806788
 30
0.0
 42
-0.0986203005499378
  0
VERTEX
  5
2D8
  8
0
 10
181.4291710240389
 20
271.8831139360226
 30
0.0
 42
-0.4046555910677425
  0
SEQEND
  5
2D9
  8
0
  0
CIRCLE
  5
2DA
  8
0
 10
174.4643800079408
 20
140.4298501006026
 30
0.0
 40
7.316927044932309
  0
CIRCLE
  5
2DB
  8
0
 10
166.340868058872
 20
128.4480925883764
 30
0.0
 40
3.943783817204452
  0
CIRCLE
  5
2DC
  8
0
 10
137.8941315300926
 20
128.4484431213882
 30
0.0
 40
2.620492928774607
  0
CIRCLE
  5
2DD
  8
0
 10
155.9343262248297
 20
275.137366424978
 30
0.0
 40
10.3308187782037
  0
CIRCLE
  5
2DE
  8
0
 10
135.9216403621338
 20
286.2613162999667
 30
0.0
 40
5.279835511392057
  0
ENDSEC
  0
EOF
