  0
SECTION
  2
HEADER
  9
$ACADVER
  1
AC1009
  9
$DWGCODEPAGE
  3
ansi_1252
  9
$INSBASE
 10
0.0
 20
0.0
 30
0.0
  9
$EXTMIN
 10
1.000000000000000E+20
 20
1.000000000000000E+20
 30
1.000000000000000E+20
  9
$EXTMAX
 10
-1.000000000000000E+20
 20
-1.000000000000000E+20
 30
-1.000000000000000E+20
  9
$LIMMIN
 10
0.0
 20
0.0
  9
$LIMMAX
 10
12.0
 20
9.0
  9
$ORTHOMODE
 70
     0
  9
$REGENMODE
 70
     1
  9
$FILLMODE
 70
     1
  9
$QTEXTMODE
 70
     0
  9
$MIRRTEXT
 70
     1
  9
$DRAGMODE
 70
     2
  9
$LTSCALE
 40
1.0
  9
$OSMODE
 70
    37
  9
$ATTMODE
 70
     1
  9
$TEXTSIZE
 40
0.2
  9
$TRACEWID
 40
0.05
  9
$TEXTSTYLE
  7
STANDARD
  9
$CLAYER
  8
LAYER_01
  9
$CELTYPE
  6
BYLAYER
  9
$CECOLOR
 62
   256
  9
$DIMSCALE
 40
1.0
  9
$DIMASZ
 40
0.18
  9
$DIMEXO
 40
0.0625
  9
$DIMDLI
 40
0.38
  9
$DIMRND
 40
0.0
  9
$DIMDLE
 40
0.0
  9
$DIMEXE
 40
0.18
  9
$DIMTP
 40
0.0
  9
$DIMTM
 40
0.0
  9
$DIMTXT
 40
0.18
  9
$DIMCEN
 40
0.09
  9
$DIMTSZ
 40
0.0
  9
$DIMTOL
 70
     0
  9
$DIMLIM
 70
     0
  9
$DIMTIH
 70
     1
  9
$DIMTOH
 70
     1
  9
$DIMSE1
 70
     0
  9
$DIMSE2
 70
     0
  9
$DIMTAD
 70
     0
  9
$DIMZIN
 70
     0
  9
$DIMBLK
  1

  9
$DIMASO
 70
     1
  9
$DIMSHO
 70
     1
  9
$DIMPOST
  1

  9
$DIMAPOST
  1

  9
$DIMALT
 70
     0
  9
$DIMALTD
 70
     2
  9
$DIMALTF
 40
25.4
  9
$DIMLFAC
 40
1.0
  9
$DIMTOFL
 70
     0
  9
$DIMTVP
 40
0.0
  9
$DIMTIX
 70
     0
  9
$DIMSOXD
 70
     0
  9
$DIMSAH
 70
     0
  9
$DIMBLK1
  1

  9
$DIMBLK2
  1

  9
$DIMSTYLE
  2
STANDARD_ACAD
  9
$DIMCLRD
 70
     0
  9
$DIMCLRE
 70
     0
  9
$DIMCLRT
 70
     0
  9
$DIMTFAC
 40
1.0
  9
$DIMGAP
 40
0.09
  9
$LUNITS
 70
     2
  9
$LUPREC
 70
     3
  9
$SKETCHINC
 40
0.1
  9
$FILLETRAD
 40
0.5
  9
$AUNITS
 70
     0
  9
$AUPREC
 70
     0
  9
$MENU
  1
.
  9
$ELEVATION
 40
0.0
  9
$PELEVATION
 40
0.0
  9
$THICKNESS
 40
0.0
  9
$LIMCHECK
 70
     0
  9
$CHAMFERA
 40
0.0
  9
$CHAMFERB
 40
0.0
  9
$SKPOLY
 70
     0
  9
$TDCREATE
 40
2459847.525262465
  9
$TDUPDATE
 40
2459847.525262465
  9
$TDINDWG
 40
0.0000000116
  9
$TDUSRTIMER
 40
0.0000000116
  9
$USRTIMER
 70
     1
  9
$ANGBASE
 50
0.0
  9
$ANGDIR
 70
     0
  9
$PDMODE
 70
     0
  9
$PDSIZE
 40
0.0
  9
$PLINEWID
 40
0.0
  9
$COORDS
 70
     1
  9
$SPLFRAME
 70
     0
  9
$SPLINETYPE
 70
     6
  9
$SPLINESEGS
 70
     8
  9
$ATTDIA
 70
     0
  9
$ATTREQ
 70
     1
  9
$HANDLING
 70
     1
  9
$HANDSEED
  5
F0
  9
$SURFTAB1
 70
     6
  9
$SURFTAB2
 70
     6
  9
$SURFTYPE
 70
     6
  9
$SURFU
 70
     6
  9
$SURFV
 70
     6
  9
$UCSNAME
  2

  9
$UCSORG
 10
0.0
 20
0.0
 30
0.0
  9
$UCSXDIR
 10
1.0
 20
0.0
 30
0.0
  9
$UCSYDIR
 10
0.0
 20
1.0
 30
0.0
  9
$PUCSNAME
  2

  9
$PUCSORG
 10
0.0
 20
0.0
 30
0.0
  9
$PUCSXDIR
 10
1.0
 20
0.0
 30
0.0
  9
$PUCSYDIR
 10
0.0
 20
1.0
 30
0.0
  9
$USERI1
 70
     0
  9
$USERI2
 70
     0
  9
$USERI3
 70
     0
  9
$USERI4
 70
     0
  9
$USERI5
 70
     0
  9
$USERR1
 40
0.0
  9
$USERR2
 40
0.0
  9
$USERR3
 40
0.0
  9
$USERR4
 40
0.0
  9
$USERR5
 40
0.0
  9
$WORLDVIEW
 70
     1
  9
$SHADEDGE
 70
     3
  9
$SHADEDIF
 70
    70
  9
$TILEMODE
 70
     1
  9
$MAXACTVP
 70
    64
  9
$PLIMCHECK
 70
     0
  9
$PEXTMIN
 10
1.000000000000000E+20
 20
1.000000000000000E+20
 30
1.000000000000000E+20
  9
$PEXTMAX
 10
-1.000000000000000E+20
 20
-1.000000000000000E+20
 30
-1.000000000000000E+20
  9
$PLIMMIN
 10
0.0
 20
0.0
  9
$PLIMMAX
 10
12.0
 20
9.0
  9
$UNITMODE
 70
     0
  9
$VISRETAIN
 70
     1
  9
$PLINEGEN
 70
     0
  9
$PSLTSCALE
 70
     1
  0
ENDSEC
  0
SECTION
  2
TABLES
  0
TABLE
  2
VPORT
 70
     1
  0
VPORT
  2
*ACTIVE
 70
     0
 10
0.0
 20
0.0
 11
1.0
 21
1.0
 12
10.42990654205607
 22
4.5
 13
0.0
 23
0.0
 14
0.5
 24
0.5
 15
0.5
 25
0.5
 16
0.0
 26
0.0
 36
1.0
 17
0.0
 27
0.0
 37
0.0
 40
9.0
 41
1.972972972850329
 42
50.0
 43
0.0
 44
0.0
 50
0.0
 51
0.0
 71
     0
 72
   100
 73
     1
 74
     3
 75
     0
 76
     0
 77
     0
 78
     0
  0
ENDTAB
  0
TABLE
  2
LTYPE
 70
     1
  0
LTYPE
  2
CONTINUOUS
 70
     0
  3
Solid line
 72
    65
 73
     0
 40
0.0
  0
ENDTAB
  0
TABLE
  2
LAYER
 70
     2
  0
LAYER
  2
0
 70
     0
 62
     7
  6
CONTINUOUS
  0
LAYER
  2
LAYER_01
 70
     0
 62
     7
  6
CONTINUOUS
  0
ENDTAB
  0
TABLE
  2
STYLE
 70
     1
  0
STYLE
  2
STANDARD
 70
     0
 40
0.0
 41
1.0
 50
0.0
 71
     0
 42
0.2
  3
txt
  4

  0
ENDTAB
  0
TABLE
  2
VIEW
 70
     0
  0
ENDTAB
  0
TABLE
  2
UCS
 70
     0
  0
ENDTAB
  0
TABLE
  2
APPID
 70
     2
  0
APPID
  2
ACAD
 70
     0
  0
APPID
  2
RHINO
 70
     0
  0
ENDTAB
  0
TABLE
  2
DIMSTYLE
 70
     1
  0
DIMSTYLE
  2
STANDARD_ACAD
 70
     0
  3

  4

  5

  6

  7

 40
1.0
 41
0.18
 42
0.0625
 43
0.38
 44
0.18
 45
0.0
 46
0.0
 47
0.0
 48
0.0
140
0.18
141
0.09
142
0.0
143
25.4
144
1.0
145
0.0
146
1.0
147
0.09
 71
     0
 72
     0
 73
     1
 74
     1
 75
     0
 76
     0
 77
     0
 78
     0
170
     0
171
     2
172
     0
173
     0
174
     0
175
     0
176
     0
177
     0
178
     0
  0
ENDTAB
  0
ENDSEC
  0
SECTION
  2
BLOCKS
  0
BLOCK
  8
0
  2
$MODEL_SPACE
 70
     0
 10
0.0
 20
0.0
 30
0.0
  3
$MODEL_SPACE
  1

  0
ENDBLK
  5
21
  8
0
  0
BLOCK
 67
     1
  8
0
  2
$PAPER_SPACE
 70
     0
 10
0.0
 20
0.0
 30
0.0
  3
$PAPER_SPACE
  1

  0
ENDBLK
  5
1D
 67
     1
  8
0
  0
ENDSEC
  0
SECTION
  2
ENTITIES
  0
POLYLINE
  5
70
  8
LAYER_01
 66
     1
 10
0.0
 20
0.0
 30
0.0
 70
     1
  0
VERTEX
  5
71
  8
LAYER_01
 10
1832.789563961855
 20
153.8027088884971
 30
0.0
  0
VERTEX
  5
72
  8
LAYER_01
 10
2101.307538849619
 20
153.8027088884971
 30
0.0
  0
VERTEX
  5
73
  8
LAYER_01
 10
2101.307538849619
 20
1219.046215663372
 30
0.0
  0
VERTEX
  5
74
  8
LAYER_01
 10
1832.789563961855
 20
1219.046215663372
 30
0.0
  0
SEQEND
  5
75
  8
LAYER_01
  0
POLYLINE
  5
76
  8
LAYER_01
 66
     1
 10
0.0
 20
0.0
 30
0.0
 70
     1
  0
VERTEX
  5
77
  8
LAYER_01
 10
1847.789563961855
 20
776.0635059011973
 30
0.0
  0
VERTEX
  5
78
  8
LAYER_01
 10
1875.052372949921
 20
754.4084745381191
 30
0.0
  0
VERTEX
  5
79
  8
LAYER_01
 10
1876.117374492368
 20
729.5584385477013
 30
0.0
  0
VERTEX
  5
7A
  8
LAYER_01
 10
1847.789563961855
 20
722.8134287788733
 30
0.0
  0
SEQEND
  5
7B
  8
LAYER_01
  0
POLYLINE
  5
7C
  8
LAYER_01
 66
     1
 10
0.0
 20
0.0
 30
0.0
 70
     1
  0
VERTEX
  5
7D
  8
LAYER_01
 10
1967.048551405737
 20
168.8027088884971
 30
0.0
  0
VERTEX
  5
7E
  8
LAYER_01
 10
1975.307117626229
 20
207.3124082183149
 30
0.0
  0
VERTEX
  5
7F
  8
LAYER_01
 10
1863.481955669349
 20
249.5574694020251
 30
0.0
  0
VERTEX
  5
80
  8
LAYER_01
 10
1911.762025593589
 20
168.8027088884971
 30
0.0
  0
SEQEND
  5
81
  8
LAYER_01
  0
POLYLINE
  5
82
  8
LAYER_01
 66
     1
 10
0.0
 20
0.0
 30
0.0
 70
     1
  0
VERTEX
  5
83
  8
LAYER_01
 10
2086.307538849619
 20
1072.179076795278
 30
0.0
  0
VERTEX
  5
84
  8
LAYER_01
 10
2056.940707999502
 20
1080.785723389278
 30
0.0
  0
VERTEX
  5
85
  8
LAYER_01
 10
2001.506738714237
 20
1004.156412906706
 30
0.0
  0
VERTEX
  5
86
  8
LAYER_01
 10
2086.307538849619
 20
1004.156412906707
 30
0.0
  0
SEQEND
  5
87
  8
LAYER_01
  0
POLYLINE
  5
88
  8
LAYER_01
 66
     1
 10
0.0
 20
0.0
 30
0.0
 70
     1
  0
VERTEX
  5
89
  8
LAYER_01
 10
2086.307538849619
 20
313.4575619488135
 30
0.0
  0
VERTEX
  5
8A
  8
LAYER_01
 10
2030.687197833446
 20
324.1075773732783
 30
0.0
  0
VERTEX
  5
8B
  8
LAYER_01
 10
2029.977196805149
 20
243.522460661495
 30
0.0
  0
VERTEX
  5
8C
  8
LAYER_01
 10
2086.307538849619
 20
205.8924061617192
 30
0.0
  0
SEQEND
  5
8D
  8
LAYER_01
  0
POLYLINE
  5
8E
  8
LAYER_01
 66
     1
 10
0.0
 20
0.0
 30
0.0
 70
     1
  0
VERTEX
  5
8F
  8
LAYER_01
 10
2086.307538849619
 20
981.388519450255
 30
0.0
  0
VERTEX
  5
90
  8
LAYER_01
 10
2019.566676810285
 20
981.388519450255
 30
0.0
  0
VERTEX
  5
91
  8
LAYER_01
 10
2086.307538849619
 20
913.456322298319
 30
0.0
  0
SEQEND
  5
92
  8
LAYER_01
  0
POLYLINE
  5
93
  8
LAYER_01
 66
     1
 10
0.0
 20
0.0
 30
0.0
 70
     1
  0
VERTEX
  5
94
  8
LAYER_01
 10
2086.307538849619
 20
1158.071303197603
 30
0.0
  0
VERTEX
  5
95
  8
LAYER_01
 10
2086.307538849619
 20
1204.046215663372
 30
0.0
  0
VERTEX
  5
96
  8
LAYER_01
 10
2059.257652370075
 20
1204.046215663372
 30
0.0
  0
VERTEX
  5
97
  8
LAYER_01
 10
2050.767870099286
 20
1162.215686834137
 30
0.0
  0
VERTEX
  5
98
  8
LAYER_01
 10
2069.068067438543
 20
1140.142252930085
 30
0.0
  0
SEQEND
  5
99
  8
LAYER_01
  0
POLYLINE
  5
9A
  8
LAYER_01
 66
     1
 10
0.0
 20
0.0
 30
0.0
 70
     1
  0
VERTEX
  5
9B
  8
LAYER_01
 10
1847.789563961855
 20
891.0652931873458
 30
0.0
  0
VERTEX
  5
9C
  8
LAYER_01
 10
1916.437575381817
 20
969.5160240918391
 30
0.0
  0
VERTEX
  5
9D
  8
LAYER_01
 10
1847.789563961855
 20
1019.479059416489
 30
0.0
  0
SEQEND
  5
9E
  8
LAYER_01
  0
POLYLINE
  5
9F
  8
LAYER_01
 66
     1
 10
0.0
 20
0.0
 30
0.0
 70
     1
  0
VERTEX
  5
A0
  8
LAYER_01
 10
1847.789563961855
 20
574.5327506650316
 30
0.0
  0
VERTEX
  5
A1
  8
LAYER_01
 10
1909.029697775372
 20
503.1776473211177
 30
0.0
  0
VERTEX
  5
A2
  8
LAYER_01
 10
1847.789563961855
 20
461.2875866515565
 30
0.0
  0
SEQEND
  5
A3
  8
LAYER_01
  0
POLYLINE
  5
A4
  8
LAYER_01
 66
     1
 10
0.0
 20
0.0
 30
0.0
 70
     1
  0
VERTEX
  5
A5
  8
LAYER_01
 10
1976.017118654527
 20
369.1926426701791
 30
0.0
 42
0.0816147673231554
  0
VERTEX
  5
A6
  8
LAYER_01
 10
1938.325706041195
 20
453.3409126906415
 30
0.0
  0
VERTEX
  5
A7
  8
LAYER_01
 10
1847.789563961855
 20
414.7729555979296
 30
0.0
  0
VERTEX
  5
A8
  8
LAYER_01
 10
1847.789563961855
 20
305.6475506375393
 30
0.0
  0
SEQEND
  5
A9
  8
LAYER_01
  0
POLYLINE
  5
AA
  8
LAYER_01
 66
     1
 10
0.0
 20
0.0
 30
0.0
 70
     1
  0
VERTEX
  5
AB
  8
LAYER_01
 10
1947.707423710565
 20
521.4292173200597
 30
0.0
 42
0.0237344824262818
  0
VERTEX
  5
AC
  8
LAYER_01
 10
1866.165617676914
 20
649.0306026667903
 30
0.0
  0
VERTEX
  5
AD
  8
LAYER_01
 10
1979.17293134591
 20
614.8121031079852
 30
0.0
 42
0.0787050976595901
  0
SEQEND
  5
AE
  8
LAYER_01
  0
POLYLINE
  5
AF
  8
LAYER_01
 66
     1
 10
0.0
 20
0.0
 30
0.0
 70
     1
  0
VERTEX
  5
B0
  8
LAYER_01
 10
2025.276326027508
 20
358.5605076230249
 30
0.0
  0
VERTEX
  5
B1
  8
LAYER_01
 10
2071.781393381004
 20
394.7705600662051
 30
0.0
  0
VERTEX
  5
B2
  8
LAYER_01
 10
2070.716391838558
 20
457.9606515846959
 30
0.0
  0
VERTEX
  5
B3
  8
LAYER_01
 10
1988.728640402492
 20
456.1027686162461
 30
0.0
 42
-0.037066582534763
  0
SEQEND
  5
B4
  8
LAYER_01
  0
POLYLINE
  5
B5
  8
LAYER_01
 66
     1
 10
0.0
 20
0.0
 30
0.0
 70
     1
  0
VERTEX
  5
B6
  8
LAYER_01
 10
2086.307538849619
 20
718.4251756363103
 30
0.0
  0
VERTEX
  5
B7
  8
LAYER_01
 10
2046.301283431369
 20
718.8634478760002
 30
0.0
  0
VERTEX
  5
B8
  8
LAYER_01
 10
2043.671303971251
 20
620.9802789644252
 30
0.0
  0
VERTEX
  5
B9
  8
LAYER_01
 10
2018.466267466684
 20
549.9801761346602
 30
0.0
  0
VERTEX
  5
BA
  8
LAYER_01
 10
2032.666288032637
 20
519.80513243201
 30
0.0
  0
VERTEX
  5
BB
  8
LAYER_01
 10
2086.307538849619
 20
519.8051324320097
 30
0.0
  0
SEQEND
  5
BC
  8
LAYER_01
  0
POLYLINE
  5
BD
  8
LAYER_01
 66
     1
 10
0.0
 20
0.0
 30
0.0
 70
     1
  0
VERTEX
  5
BE
  8
LAYER_01
 10
2086.307538849619
 20
864.8081036927393
 30
0.0
  0
VERTEX
  5
BF
  8
LAYER_01
 10
2029.646938323152
 20
919.153861414288
 30
0.0
  0
VERTEX
  5
C0
  8
LAYER_01
 10
2040.6037443154
 20
761.3758551259212
 30
0.0
  0
VERTEX
  5
C1
  8
LAYER_01
 10
2086.307538849619
 20
761.3758551259208
 30
0.0
  0
SEQEND
  5
C2
  8
LAYER_01
  0
POLYLINE
  5
C3
  8
LAYER_01
 66
     1
 10
0.0
 20
0.0
 30
0.0
 70
     1
  0
VERTEX
  5
C4
  8
LAYER_01
 10
1953.067136367142
 20
1204.046215663372
 30
0.0
  0
VERTEX
  5
C5
  8
LAYER_01
 10
1919.998838474179
 20
1186.3387505221
 30
0.0
  0
VERTEX
  5
C6
  8
LAYER_01
 10
2021.216585068292
 20
1131.416620978136
 30
0.0
  0
VERTEX
  5
C7
  8
LAYER_01
 10
2021.216585068293
 20
1204.046215663372
 30
0.0
  0
SEQEND
  5
C8
  8
LAYER_01
  0
POLYLINE
  5
C9
  8
LAYER_01
 66
     1
 10
0.0
 20
0.0
 30
0.0
 70
     1
  0
VERTEX
  5
CA
  8
LAYER_01
 10
1998.644189374121
 20
971.7048148236028
 30
0.0
  0
VERTEX
  5
CB
  8
LAYER_01
 10
1962.076402912833
 20
971.7048148236028
 30
0.0
  0
VERTEX
  5
CC
  8
LAYER_01
 10
1919.452804680886
 20
928.6153849169897
 30
0.0
  0
VERTEX
  5
CD
  8
LAYER_01
 10
1997.246694350123
 20
920.9291622849992
 30
0.0
  0
SEQEND
  5
CE
  8
LAYER_01
  0
POLYLINE
  5
CF
  8
LAYER_01
 66
     1
 10
0.0
 20
0.0
 30
0.0
 70
     1
  0
VERTEX
  5
D0
  8
LAYER_01
 10
1882.690612925694
 20
895.8862878239345
 30
0.0
  0
VERTEX
  5
D1
  8
LAYER_01
 10
2006.283384518249
 20
887.9973875095162
 30
0.0
  0
VERTEX
  5
D2
  8
LAYER_01
 10
1886.635063082903
 20
816.1207402003713
 30
0.0
  0
SEQEND
  5
D3
  8
LAYER_01
  0
POLYLINE
  5
D4
  8
LAYER_01
 66
     1
 10
0.0
 20
0.0
 30
0.0
 70
     1
  0
VERTEX
  5
D5
  8
LAYER_01
 10
2004.665546372657
 20
834.1434588953476
 30
0.0
  0
VERTEX
  5
D6
  8
LAYER_01
 10
2007.828600953723
 20
758.805249782684
 30
0.0
  0
VERTEX
  5
D7
  8
LAYER_01
 10
1899.997194781017
 20
792.7361989250287
 30
0.0
  0
SEQEND
  5
D8
  8
LAYER_01
  0
POLYLINE
  5
D9
  8
LAYER_01
 66
     1
 10
0.0
 20
0.0
 30
0.0
 70
     1
  0
VERTEX
  5
DA
  8
LAYER_01
 10
1911.052024565292
 20
275.4725069348893
 30
0.0
  0
VERTEX
  5
DB
  8
LAYER_01
 10
1999.802153102498
 20
245.652463746388
 30
0.0
  0
VERTEX
  5
DC
  8
LAYER_01
 10
1999.447152588349
 20
317.3625676044507
 30
0.0
  0
SEQEND
  5
DD
  8
LAYER_01
  0
POLYLINE
  5
DE
  8
LAYER_01
 66
     1
 10
0.0
 20
0.0
 30
0.0
 70
     1
  0
VERTEX
  5
DF
  8
LAYER_01
 10
2006.293831119058
 20
682.6430593725524
 30
0.0
  0
VERTEX
  5
E0
  8
LAYER_01
 10
1905.938735774326
 20
675.4542989610387
 30
0.0
  0
VERTEX
  5
E1
  8
LAYER_01
 10
1941.019886582513
 20
745.329050160952
 30
0.0
  0
SEQEND
  5
E2
  8
LAYER_01
  0
POLYLINE
  5
E3
  8
LAYER_01
 66
     1
 10
0.0
 20
0.0
 30
0.0
 70
     1
  0
VERTEX
  5
E4
  8
LAYER_01
 10
1873.244857304594
 20
1174.828687904122
 30
0.0
  0
VERTEX
  5
E5
  8
LAYER_01
 10
1990.395026973707
 20
1096.373574277231
 30
0.0
  0
VERTEX
  5
E6
  8
LAYER_01
 10
1949.569967846591
 20
1014.723456023002
 30
0.0
  0
VERTEX
  5
E7
  8
LAYER_01
 10
1873.244857304594
 20
1065.843530060432
 30
0.0
  0
SEQEND
  5
E8
  8
LAYER_01
  0
ENDSEC
  0
EOF
