  0
SECTION
  2
HEADER
  9
$ACADVER
  1
AC1009
  9
$DWGCODEPAGE
  3
ansi_1252
  9
$INSBASE
 10
0.0
 20
0.0
 30
0.0
  9
$EXTMIN
 10
1.000000000000000E+20
 20
1.000000000000000E+20
 30
1.000000000000000E+20
  9
$EXTMAX
 10
-1.000000000000000E+20
 20
-1.000000000000000E+20
 30
-1.000000000000000E+20
  9
$LIMMIN
 10
0.0
 20
0.0
  9
$LIMMAX
 10
12.0
 20
9.0
  9
$ORTHOMODE
 70
     0
  9
$REGENMODE
 70
     1
  9
$FILLMODE
 70
     1
  9
$QTEXTMODE
 70
     0
  9
$MIRRTEXT
 70
     1
  9
$DRAGMODE
 70
     2
  9
$LTSCALE
 40
1.0
  9
$OSMODE
 70
    37
  9
$ATTMODE
 70
     1
  9
$TEXTSIZE
 40
0.2
  9
$TRACEWID
 40
0.05
  9
$TEXTSTYLE
  7
STANDARD
  9
$CLAYER
  8
DEFAULT
  9
$CELTYPE
  6
BYLAYER
  9
$CECOLOR
 62
   256
  9
$DIMSCALE
 40
1.0
  9
$DIMASZ
 40
0.18
  9
$DIMEXO
 40
0.0625
  9
$DIMDLI
 40
0.38
  9
$DIMRND
 40
0.0
  9
$DIMDLE
 40
0.0
  9
$DIMEXE
 40
0.18
  9
$DIMTP
 40
0.0
  9
$DIMTM
 40
0.0
  9
$DIMTXT
 40
0.18
  9
$DIMCEN
 40
0.09
  9
$DIMTSZ
 40
0.0
  9
$DIMTOL
 70
     0
  9
$DIMLIM
 70
     0
  9
$DIMTIH
 70
     1
  9
$DIMTOH
 70
     1
  9
$DIMSE1
 70
     0
  9
$DIMSE2
 70
     0
  9
$DIMTAD
 70
     0
  9
$DIMZIN
 70
     0
  9
$DIMBLK
  1

  9
$DIMASO
 70
     1
  9
$DIMSHO
 70
     1
  9
$DIMPOST
  1

  9
$DIMAPOST
  1

  9
$DIMALT
 70
     0
  9
$DIMALTD
 70
     2
  9
$DIMALTF
 40
25.4
  9
$DIMLFAC
 40
1.0
  9
$DIMTOFL
 70
     0
  9
$DIMTVP
 40
0.0
  9
$DIMTIX
 70
     0
  9
$DIMSOXD
 70
     0
  9
$DIMSAH
 70
     0
  9
$DIMBLK1
  1

  9
$DIMBLK2
  1

  9
$DIMSTYLE
  2
STANDARD_ACAD
  9
$DIMCLRD
 70
     0
  9
$DIMCLRE
 70
     0
  9
$DIMCLRT
 70
     0
  9
$DIMTFAC
 40
1.0
  9
$DIMGAP
 40
0.09
  9
$LUNITS
 70
     2
  9
$LUPREC
 70
     3
  9
$SKETCHINC
 40
0.1
  9
$FILLETRAD
 40
0.5
  9
$AUNITS
 70
     0
  9
$AUPREC
 70
     0
  9
$MENU
  1
.
  9
$ELEVATION
 40
0.0
  9
$PELEVATION
 40
0.0
  9
$THICKNESS
 40
0.0
  9
$LIMCHECK
 70
     0
  9
$CHAMFERA
 40
0.0
  9
$CHAMFERB
 40
0.0
  9
$SKPOLY
 70
     0
  9
$TDCREATE
 40
2459949.485686956
  9
$TDUPDATE
 40
2459949.485686979
  9
$TDINDWG
 40
0.0000000116
  9
$TDUSRTIMER
 40
0.0000000116
  9
$USRTIMER
 70
     1
  9
$ANGBASE
 50
0.0
  9
$ANGDIR
 70
     0
  9
$PDMODE
 70
     0
  9
$PDSIZE
 40
0.0
  9
$PLINEWID
 40
0.0
  9
$COORDS
 70
     1
  9
$SPLFRAME
 70
     0
  9
$SPLINETYPE
 70
     6
  9
$SPLINESEGS
 70
     8
  9
$ATTDIA
 70
     0
  9
$ATTREQ
 70
     1
  9
$HANDLING
 70
     1
  9
$HANDSEED
  5
1C6
  9
$SURFTAB1
 70
     6
  9
$SURFTAB2
 70
     6
  9
$SURFTYPE
 70
     6
  9
$SURFU
 70
     6
  9
$SURFV
 70
     6
  9
$UCSNAME
  2

  9
$UCSORG
 10
0.0
 20
0.0
 30
0.0
  9
$UCSXDIR
 10
1.0
 20
0.0
 30
0.0
  9
$UCSYDIR
 10
0.0
 20
1.0
 30
0.0
  9
$PUCSNAME
  2

  9
$PUCSORG
 10
0.0
 20
0.0
 30
0.0
  9
$PUCSXDIR
 10
1.0
 20
0.0
 30
0.0
  9
$PUCSYDIR
 10
0.0
 20
1.0
 30
0.0
  9
$USERI1
 70
     0
  9
$USERI2
 70
     0
  9
$USERI3
 70
     0
  9
$USERI4
 70
     0
  9
$USERI5
 70
     0
  9
$USERR1
 40
0.0
  9
$USERR2
 40
0.0
  9
$USERR3
 40
0.0
  9
$USERR4
 40
0.0
  9
$USERR5
 40
0.0
  9
$WORLDVIEW
 70
     1
  9
$SHADEDGE
 70
     3
  9
$SHADEDIF
 70
    70
  9
$TILEMODE
 70
     1
  9
$MAXACTVP
 70
    64
  9
$PLIMCHECK
 70
     0
  9
$PEXTMIN
 10
1.000000000000000E+20
 20
1.000000000000000E+20
 30
1.000000000000000E+20
  9
$PEXTMAX
 10
-1.000000000000000E+20
 20
-1.000000000000000E+20
 30
-1.000000000000000E+20
  9
$PLIMMIN
 10
0.0
 20
0.0
  9
$PLIMMAX
 10
12.0
 20
9.0
  9
$UNITMODE
 70
     0
  9
$VISRETAIN
 70
     1
  9
$PLINEGEN
 70
     0
  9
$PSLTSCALE
 70
     1
  0
ENDSEC
  0
SECTION
  2
TABLES
  0
TABLE
  2
VPORT
 70
     1
  0
VPORT
  2
*ACTIVE
 70
     0
 10
0.0
 20
0.0
 11
1.0
 21
1.0
 12
10.42990654205607
 22
4.5
 13
0.0
 23
0.0
 14
0.5
 24
0.5
 15
0.5
 25
0.5
 16
0.0
 26
0.0
 36
1.0
 17
0.0
 27
0.0
 37
0.0
 40
9.0
 41
1.972972972850329
 42
50.0
 43
0.0
 44
0.0
 50
0.0
 51
0.0
 71
     0
 72
   100
 73
     1
 74
     3
 75
     0
 76
     0
 77
     0
 78
     0
  0
ENDTAB
  0
TABLE
  2
LTYPE
 70
     1
  0
LTYPE
  2
CONTINUOUS
 70
     0
  3
Solid line
 72
    65
 73
     0
 40
0.0
  0
ENDTAB
  0
TABLE
  2
LAYER
 70
     2
  0
LAYER
  2
0
 70
     0
 62
     7
  6
CONTINUOUS
  0
LAYER
  2
DEFAULT
 70
     0
 62
     5
  6
CONTINUOUS
  0
ENDTAB
  0
TABLE
  2
STYLE
 70
     1
  0
STYLE
  2
STANDARD
 70
     0
 40
0.0
 41
1.0
 50
0.0
 71
     0
 42
0.2
  3
txt
  4

  0
ENDTAB
  0
TABLE
  2
VIEW
 70
     0
  0
ENDTAB
  0
TABLE
  2
UCS
 70
     0
  0
ENDTAB
  0
TABLE
  2
APPID
 70
     2
  0
APPID
  2
ACAD
 70
     0
  0
APPID
  2
RHINO
 70
     0
  0
ENDTAB
  0
TABLE
  2
DIMSTYLE
 70
     1
  0
DIMSTYLE
  2
STANDARD_ACAD
 70
     0
  3

  4

  5

  6

  7

 40
1.0
 41
0.18
 42
0.0625
 43
0.38
 44
0.18
 45
0.0
 46
0.0
 47
0.0
 48
0.0
140
0.18
141
0.09
142
0.0
143
25.4
144
1.0
145
0.0
146
1.0
147
0.09
 71
     0
 72
     0
 73
     1
 74
     1
 75
     0
 76
     0
 77
     0
 78
     0
170
     0
171
     2
172
     0
173
     0
174
     0
175
     0
176
     0
177
     0
178
     0
  0
ENDTAB
  0
ENDSEC
  0
SECTION
  2
BLOCKS
  0
BLOCK
  8
0
  2
$MODEL_SPACE
 70
     0
 10
0.0
 20
0.0
 30
0.0
  3
$MODEL_SPACE
  1

  0
ENDBLK
  5
21
  8
0
  0
BLOCK
 67
     1
  8
0
  2
$PAPER_SPACE
 70
     0
 10
0.0
 20
0.0
 30
0.0
  3
$PAPER_SPACE
  1

  0
ENDBLK
  5
1D
 67
     1
  8
0
  0
ENDSEC
  0
SECTION
  2
ENTITIES
  0
POLYLINE
  5
70
  8
DEFAULT
 66
     1
 10
0.0
 20
0.0
 30
0.0
 70
     1
  0
VERTEX
  5
71
  8
DEFAULT
 10
77.97382521326863
 20
43.12541185335749
 30
0.0
  0
VERTEX
  5
72
  8
DEFAULT
 10
414.0774919853429
 20
43.12541185335749
 30
0.0
  0
VERTEX
  5
73
  8
DEFAULT
 10
414.0774919853429
 20
601.85320633805
 30
0.0
  0
VERTEX
  5
74
  8
DEFAULT
 10
77.97382521326863
 20
601.85320633805
 30
0.0
  0
SEQEND
  5
75
  8
DEFAULT
  0
POLYLINE
  5
76
  8
DEFAULT
 66
     1
 10
0.0
 20
0.0
 30
0.0
 70
     1
  0
VERTEX
  5
77
  8
DEFAULT
 10
306.6399268441459
 20
478.570401110593
 30
0.0
  0
VERTEX
  5
78
  8
DEFAULT
 10
289.2219648671163
 20
465.3148197530743
 30
0.0
  0
VERTEX
  5
79
  8
DEFAULT
 10
289.7618370409218
 20
442.4059937597009
 30
0.0
  0
VERTEX
  5
7A
  8
DEFAULT
 10
371.1496735062839
 20
457.5731731205912
 30
0.0
  0
VERTEX
  5
7B
  8
DEFAULT
 10
346.3557488295775
 20
482.1467073557265
 30
0.0
  0
SEQEND
  5
7C
  8
DEFAULT
  0
POLYLINE
  5
7D
  8
DEFAULT
 66
     1
 10
0.0
 20
0.0
 30
0.0
 70
     1
  0
VERTEX
  5
7E
  8
DEFAULT
 10
349.2367802918964
 20
491.3518802314783
 30
0.0
  0
VERTEX
  5
7F
  8
DEFAULT
 10
349.6842070183885
 20
491.3921698419207
 30
0.0
  0
VERTEX
  5
80
  8
DEFAULT
 10
384.0774919853428
 20
457.304602963562
 30
0.0
  0
VERTEX
  5
81
  8
DEFAULT
 10
384.0774919853428
 20
512.8514773464426
 30
0.0
  0
VERTEX
  5
82
  8
DEFAULT
 10
362.7272207569293
 20
511.2502070043116
 30
0.0
  0
SEQEND
  5
83
  8
DEFAULT
  0
POLYLINE
  5
84
  8
DEFAULT
 66
     1
 10
0.0
 20
0.0
 30
0.0
 70
     1
  0
VERTEX
  5
85
  8
DEFAULT
 10
310.8211212205429
 20
487.8926502677072
 30
0.0
  0
VERTEX
  5
86
  8
DEFAULT
 10
337.7725976880689
 20
490.3195604709441
 30
0.0
  0
VERTEX
  5
87
  8
DEFAULT
 10
357.7682229790809
 20
519.8129997028938
 30
0.0
  0
VERTEX
  5
88
  8
DEFAULT
 10
375.6710283797946
 20
521.1557101079474
 30
0.0
  0
VERTEX
  5
89
  8
DEFAULT
 10
344.1735033324051
 20
544.5119257151215
 30
0.0
  0
VERTEX
  5
8A
  8
DEFAULT
 10
297.9281543681769
 20
527.3082917877967
 30
0.0
  0
SEQEND
  5
8B
  8
DEFAULT
  0
POLYLINE
  5
8C
  8
DEFAULT
 66
     1
 10
0.0
 20
0.0
 30
0.0
 70
     1
  0
VERTEX
  5
8D
  8
DEFAULT
 10
286.2938024345254
 20
431.5349785123055
 30
0.0
  0
VERTEX
  5
8E
  8
DEFAULT
 10
260.9180345596257
 20
413.9197610069141
 30
0.0
  0
VERTEX
  5
8F
  8
DEFAULT
 10
274.5307308787889
 20
377.6695956733114
 30
0.0
  0
VERTEX
  5
90
  8
DEFAULT
 10
308.9386026286672
 20
350.2257979614907
 30
0.0
  0
VERTEX
  5
91
  8
DEFAULT
 10
308.9277100771388
 20
349.8554512095253
 30
0.0
  0
VERTEX
  5
92
  8
DEFAULT
 10
355.6543609740212
 20
366.9000844007762
 30
0.0
  0
SEQEND
  5
93
  8
DEFAULT
  0
POLYLINE
  5
94
  8
DEFAULT
 66
     1
 10
0.0
 20
0.0
 30
0.0
 70
     1
  0
VERTEX
  5
95
  8
DEFAULT
 10
254.3510757138568
 20
420.2071316674787
 30
0.0
  0
VERTEX
  5
96
  8
DEFAULT
 10
280.9378766019385
 20
438.6630177208555
 30
0.0
  0
VERTEX
  5
97
  8
DEFAULT
 10
280.2200235392175
 20
469.1242485466016
 30
0.0
  0
VERTEX
  5
98
  8
DEFAULT
 10
254.4676159837947
 20
487.8682005147456
 30
0.0
  0
VERTEX
  5
99
  8
DEFAULT
 10
208.4255669311347
 20
440.9407520154402
 30
0.0
  0
VERTEX
  5
9A
  8
DEFAULT
 10
210.0711755931213
 20
440.5296231408011
 30
0.0
  0
SEQEND
  5
9B
  8
DEFAULT
  0
POLYLINE
  5
9C
  8
DEFAULT
 66
     1
 10
0.0
 20
0.0
 30
0.0
 70
     1
  0
VERTEX
  5
9D
  8
DEFAULT
 10
301.9911122394896
 20
486.228871373968
 30
0.0
  0
VERTEX
  5
9E
  8
DEFAULT
 10
286.7986909810423
 20
532.6742735069344
 30
0.0
  0
VERTEX
  5
9F
  8
DEFAULT
 10
283.859567146871
 20
539.4953289662494
 30
0.0
  0
VERTEX
  5
A0
  8
DEFAULT
 10
241.8697538421697
 20
520.1055375013877
 30
0.0
  0
VERTEX
  5
A1
  8
DEFAULT
 10
254.7266754550276
 20
498.6994949831884
 30
0.0
  0
VERTEX
  5
A2
  8
DEFAULT
 10
287.2613261853079
 20
475.0190709577344
 30
0.0
  0
SEQEND
  5
A3
  8
DEFAULT
  0
POLYLINE
  5
A4
  8
DEFAULT
 66
     1
 10
0.0
 20
0.0
 30
0.0
 70
     1
  0
VERTEX
  5
A5
  8
DEFAULT
 10
323.8971909006789
 20
408.6721182199055
 30
0.0
  0
VERTEX
  5
A6
  8
DEFAULT
 10
384.0774919853428
 20
352.5920134728786
 30
0.0
  0
VERTEX
  5
A7
  8
DEFAULT
 10
384.0774919853429
 20
400.7075024716125
 30
0.0
  0
SEQEND
  5
A8
  8
DEFAULT
  0
POLYLINE
  5
A9
  8
DEFAULT
 66
     1
 10
0.0
 20
0.0
 30
0.0
 70
     1
  0
VERTEX
  5
AA
  8
DEFAULT
 10
312.6562477444334
 20
419.1471949193517
 30
0.0
  0
VERTEX
  5
AB
  8
DEFAULT
 10
384.0774919853428
 20
409.6948864996322
 30
0.0
  0
VERTEX
  5
AC
  8
DEFAULT
 10
384.0774919853429
 20
444.7602685835684
 30
0.0
  0
VERTEX
  5
AD
  8
DEFAULT
 10
378.8467709934115
 20
449.9444942777936
 30
0.0
  0
VERTEX
  5
AE
  8
DEFAULT
 10
296.1459356515037
 20
434.5326286059496
 30
0.0
  0
SEQEND
  5
AF
  8
DEFAULT
  0
POLYLINE
  5
B0
  8
DEFAULT
 66
     1
 10
0.0
 20
0.0
 30
0.0
 70
     1
  0
VERTEX
  5
B1
  8
DEFAULT
 10
132.3240969499156
 20
133.6979097886985
 30
0.0
  0
VERTEX
  5
B2
  8
DEFAULT
 10
150.2825303239844
 20
118.5964999059589
 30
0.0
  0
VERTEX
  5
B3
  8
DEFAULT
 10
149.6842509791144
 20
105.633780767108
 30
0.0
  0
VERTEX
  5
B4
  8
DEFAULT
 10
107.9738252132686
 20
75.90617239922312
 30
0.0
  0
VERTEX
  5
B5
  8
DEFAULT
 10
107.9738252132686
 20
116.2680471751319
 30
0.0
  0
SEQEND
  5
B6
  8
DEFAULT
  0
POLYLINE
  5
B7
  8
DEFAULT
 66
     1
 10
0.0
 20
0.0
 30
0.0
 70
     1
  0
VERTEX
  5
B8
  8
DEFAULT
 10
194.5791805715382
 20
73.1254118533575
 30
0.0
  0
VERTEX
  5
B9
  8
DEFAULT
 10
152.5849456809754
 20
96.93411087191376
 30
0.0
  0
VERTEX
  5
BA
  8
DEFAULT
 10
119.0632318648243
 20
73.1254118533575
 30
0.0
  0
SEQEND
  5
BB
  8
DEFAULT
  0
POLYLINE
  5
BC
  8
DEFAULT
 66
     1
 10
0.0
 20
0.0
 30
0.0
 70
     1
  0
VERTEX
  5
BD
  8
DEFAULT
 10
107.9738252132686
 20
258.3976558018103
 30
0.0
  0
VERTEX
  5
BE
  8
DEFAULT
 10
124.3391426861586
 20
244.7726218231762
 30
0.0
  0
VERTEX
  5
BF
  8
DEFAULT
 10
183.229420039571
 20
286.8187368768127
 30
0.0
  0
VERTEX
  5
C0
  8
DEFAULT
 10
166.5573407307922
 20
301.5660145816677
 30
0.0
  0
VERTEX
  5
C1
  8
DEFAULT
 10
107.9738252132686
 20
283.081665246663
 30
0.0
  0
SEQEND
  5
C2
  8
DEFAULT
  0
POLYLINE
  5
C3
  8
DEFAULT
 66
     1
 10
0.0
 20
0.0
 30
0.0
 70
     1
  0
VERTEX
  5
C4
  8
DEFAULT
 10
176.3584023904065
 20
332.3408994199417
 30
0.0
  0
VERTEX
  5
C5
  8
DEFAULT
 10
107.9738252132686
 20
356.7892715713534
 30
0.0
  0
VERTEX
  5
C6
  8
DEFAULT
 10
107.9738252132686
 20
292.4243355166483
 30
0.0
  0
VERTEX
  5
C7
  8
DEFAULT
 10
163.9005877687186
 20
310.0704225962394
 30
0.0
  0
SEQEND
  5
C8
  8
DEFAULT
  0
POLYLINE
  5
C9
  8
DEFAULT
 66
     1
 10
0.0
 20
0.0
 30
0.0
 70
     1
  0
VERTEX
  5
CA
  8
DEFAULT
 10
319.5431243314435
 20
243.453748288204
 30
0.0
  0
VERTEX
  5
CB
  8
DEFAULT
 10
277.4978875572951
 20
285.3637831627915
 30
0.0
  0
VERTEX
  5
CC
  8
DEFAULT
 10
301.4003225739219
 20
305.3272966190332
 30
0.0
  0
VERTEX
  5
CD
  8
DEFAULT
 10
328.319665301107
 20
291.4830632164811
 30
0.0
  0
VERTEX
  5
CE
  8
DEFAULT
 10
327.8632376969371
 20
251.7738616536974
 30
0.0
  0
SEQEND
  5
CF
  8
DEFAULT
  0
POLYLINE
  5
D0
  8
DEFAULT
 66
     1
 10
0.0
 20
0.0
 30
0.0
 70
     1
  0
VERTEX
  5
D1
  8
DEFAULT
 10
242.2404474305616
 20
307.9278806061336
 30
0.0
  0
VERTEX
  5
D2
  8
DEFAULT
 10
212.1341310852803
 20
273.1462100116132
 30
0.0
  0
VERTEX
  5
D3
  8
DEFAULT
 10
172.8785058497165
 20
307.8697496556295
 30
0.0
  0
VERTEX
  5
D4
  8
DEFAULT
 10
185.5450604254862
 20
330.5133848903956
 30
0.0
  0
VERTEX
  5
D5
  8
DEFAULT
 10
219.6834091022309
 20
330.4123838588076
 30
0.0
  0
SEQEND
  5
D6
  8
DEFAULT
  0
POLYLINE
  5
D7
  8
DEFAULT
 66
     1
 10
0.0
 20
0.0
 30
0.0
 70
     1
  0
VERTEX
  5
D8
  8
DEFAULT
 10
166.893794129576
 20
411.3322531486708
 30
0.0
  0
VERTEX
  5
D9
  8
DEFAULT
 10
107.9738252132686
 20
413.6756610032966
 30
0.0
  0
VERTEX
  5
DA
  8
DEFAULT
 10
107.9738252132686
 20
433.221370440059
 30
0.0
  0
VERTEX
  5
DB
  8
DEFAULT
 10
137.8760608054836
 20
449.3828684243888
 30
0.0
  0
VERTEX
  5
DC
  8
DEFAULT
 10
191.1644353678977
 20
436.069624533984
 30
0.0
  0
SEQEND
  5
DD
  8
DEFAULT
  0
POLYLINE
  5
DE
  8
DEFAULT
 66
     1
 10
0.0
 20
0.0
 30
0.0
 70
     1
  0
VERTEX
  5
DF
  8
DEFAULT
 10
384.0774919853428
 20
147.6708583217331
 30
0.0
  0
VERTEX
  5
E0
  8
DEFAULT
 10
364.0600619944364
 20
125.7803814579732
 30
0.0
  0
VERTEX
  5
E1
  8
DEFAULT
 10
384.0774919853428
 20
111.8699640066656
 30
0.0
  0
SEQEND
  5
E2
  8
DEFAULT
  0
POLYLINE
  5
E3
  8
DEFAULT
 66
     1
 10
0.0
 20
0.0
 30
0.0
 70
     1
  0
VERTEX
  5
E4
  8
DEFAULT
 10
178.5810660407278
 20
186.7766635155755
 30
0.0
  0
VERTEX
  5
E5
  8
DEFAULT
 10
212.0424916377241
 20
151.8759783543173
 30
0.0
  0
VERTEX
  5
E6
  8
DEFAULT
 10
197.6833439661886
 20
136.516516000152
 30
0.0
  0
VERTEX
  5
E7
  8
DEFAULT
 10
157.0813389153397
 20
124.5204690533104
 30
0.0
  0
VERTEX
  5
E8
  8
DEFAULT
 10
137.3882529745546
 20
141.0805640489704
 30
0.0
  0
VERTEX
  5
E9
  8
DEFAULT
 10
135.0012122544595
 20
176.1402246253677
 30
0.0
  0
SEQEND
  5
EA
  8
DEFAULT
  0
POLYLINE
  5
EB
  8
DEFAULT
 66
     1
 10
0.0
 20
0.0
 30
0.0
 70
     1
  0
VERTEX
  5
EC
  8
DEFAULT
 10
206.3027455753616
 20
266.4092406796796
 30
0.0
  0
VERTEX
  5
ED
  8
DEFAULT
 10
190.0779539029448
 20
280.7608703753564
 30
0.0
  0
VERTEX
  5
EE
  8
DEFAULT
 10
131.4179227138952
 20
238.8791450504243
 30
0.0
  0
VERTEX
  5
EF
  8
DEFAULT
 10
178.7592284053922
 20
199.4648837806337
 30
0.0
  0
VERTEX
  5
F0
  8
DEFAULT
 10
205.8325916968177
 20
265.866074350571
 30
0.0
  0
SEQEND
  5
F1
  8
DEFAULT
  0
POLYLINE
  5
F2
  8
DEFAULT
 66
     1
 10
0.0
 20
0.0
 30
0.0
 70
     1
  0
VERTEX
  5
F3
  8
DEFAULT
 10
302.0406189544978
 20
217.9689236491732
 30
0.0
  0
VERTEX
  5
F4
  8
DEFAULT
 10
302.5416909173574
 20
172.8724469917981
 30
0.0
  0
VERTEX
  5
F5
  8
DEFAULT
 10
259.3730230235142
 20
157.698850646907
 30
0.0
  0
VERTEX
  5
F6
  8
DEFAULT
 10
249.1116551841374
 20
183.5534735363171
 30
0.0
  0
VERTEX
  5
F7
  8
DEFAULT
 10
249.9817603536765
 20
219.7928836585452
 30
0.0
  0
SEQEND
  5
F8
  8
DEFAULT
  0
POLYLINE
  5
F9
  8
DEFAULT
 66
     1
 10
0.0
 20
0.0
 30
0.0
 70
     1
  0
VERTEX
  5
FA
  8
DEFAULT
 10
242.0300729857687
 20
354.9467697213124
 30
0.0
  0
VERTEX
  5
FB
  8
DEFAULT
 10
227.9114204968238
 20
339.2977737807688
 30
0.0
  0
VERTEX
  5
FC
  8
DEFAULT
 10
186.6719395331566
 20
339.4197840794779
 30
0.0
  0
VERTEX
  5
FD
  8
DEFAULT
 10
178.6648304906496
 20
384.9205998611848
 30
0.0
  0
SEQEND
  5
FE
  8
DEFAULT
  0
POLYLINE
  5
FF
  8
DEFAULT
 66
     1
 10
0.0
 20
0.0
 30
0.0
 70
     1
  0
VERTEX
  5
100
  8
DEFAULT
 10
118.3300865434556
 20
362.548749689826
 30
0.0
  0
VERTEX
  5
101
  8
DEFAULT
 10
177.2628737366614
 20
341.4795148901828
 30
0.0
  0
VERTEX
  5
102
  8
DEFAULT
 10
170.1105258516094
 20
382.1231057038951
 30
0.0
  0
SEQEND
  5
103
  8
DEFAULT
  0
POLYLINE
  5
104
  8
DEFAULT
 66
     1
 10
0.0
 20
0.0
 30
0.0
 70
     1
  0
VERTEX
  5
105
  8
DEFAULT
 10
196.479291891738
 20
528.8544357953153
 30
0.0
  0
VERTEX
  5
106
  8
DEFAULT
 10
217.1270185359895
 20
551.7869518633158
 30
0.0
  0
VERTEX
  5
107
  8
DEFAULT
 10
216.7023359016037
 20
571.85320633805
 30
0.0
  0
VERTEX
  5
108
  8
DEFAULT
 10
156.9405280736111
 20
571.85320633805
 30
0.0
  0
VERTEX
  5
109
  8
DEFAULT
 10
156.9405280736111
 20
557.0964099511201
 30
0.0
  0
SEQEND
  5
10A
  8
DEFAULT
  0
POLYLINE
  5
10B
  8
DEFAULT
 66
     1
 10
0.0
 20
0.0
 30
0.0
 70
     1
  0
VERTEX
  5
10C
  8
DEFAULT
 10
304.780712459153
 20
164.2153910940045
 30
0.0
  0
VERTEX
  5
10D
  8
DEFAULT
 10
317.5395710970591
 20
130.8255101865282
 30
0.0
  0
VERTEX
  5
10E
  8
DEFAULT
 10
297.970128123507
 20
115.8430909225537
 30
0.0
  0
VERTEX
  5
10F
  8
DEFAULT
 10
270.8576615306127
 20
128.7620653888256
 30
0.0
  0
VERTEX
  5
110
  8
DEFAULT
 10
262.6623723335276
 20
149.4109803265792
 30
0.0
  0
SEQEND
  5
111
  8
DEFAULT
  0
POLYLINE
  5
112
  8
DEFAULT
 66
     1
 10
0.0
 20
0.0
 30
0.0
 70
     1
  0
VERTEX
  5
113
  8
DEFAULT
 10
126.1038255682401
 20
175.6565006035387
 30
0.0
  0
VERTEX
  5
114
  8
DEFAULT
 10
107.9738252132686
 20
189.0254318413303
 30
0.0
  0
VERTEX
  5
115
  8
DEFAULT
 10
107.9738252132687
 20
127.225036765635
 30
0.0
  0
VERTEX
  5
116
  8
DEFAULT
 10
128.4055441297717
 20
141.850009231043
 30
0.0
  0
SEQEND
  5
117
  8
DEFAULT
  0
POLYLINE
  5
118
  8
DEFAULT
 66
     1
 10
0.0
 20
0.0
 30
0.0
 70
     1
  0
VERTEX
  5
119
  8
DEFAULT
 10
171.2172425775998
 20
194.150618209382
 30
0.0
  0
VERTEX
  5
11A
  8
DEFAULT
 10
107.9738252132686
 20
246.8042689522653
 30
0.0
  0
VERTEX
  5
11B
  8
DEFAULT
 10
107.9738252132686
 20
200.0955183453102
 30
0.0
  0
VERTEX
  5
11C
  8
DEFAULT
 10
129.7582782237138
 20
184.0318201297895
 30
0.0
  0
SEQEND
  5
11D
  8
DEFAULT
  0
POLYLINE
  5
11E
  8
DEFAULT
 66
     1
 10
0.0
 20
0.0
 30
0.0
 70
     1
  0
VERTEX
  5
11F
  8
DEFAULT
 10
205.9986654979191
 20
73.1254118533575
 30
0.0
  0
VERTEX
  5
120
  8
DEFAULT
 10
262.6890120732555
 20
73.1254118533575
 30
0.0
  0
VERTEX
  5
121
  8
DEFAULT
 10
237.9830943780523
 20
98.2034222809115
 30
0.0
  0
SEQEND
  5
122
  8
DEFAULT
  0
POLYLINE
  5
123
  8
DEFAULT
 66
     1
 10
0.0
 20
0.0
 30
0.0
 70
     1
  0
VERTEX
  5
124
  8
DEFAULT
 10
318.0551700580422
 20
73.12541185335752
 30
0.0
  0
VERTEX
  5
125
  8
DEFAULT
 10
296.6224352845976
 20
88.67003267805325
 30
0.0
  0
VERTEX
  5
126
  8
DEFAULT
 10
278.0170695621645
 20
73.12541185335749
 30
0.0
  0
SEQEND
  5
127
  8
DEFAULT
  0
POLYLINE
  5
128
  8
DEFAULT
 66
     1
 10
0.0
 20
0.0
 30
0.0
 70
     1
  0
VERTEX
  5
129
  8
DEFAULT
 10
329.0999910031961
 20
73.1254118533575
 30
0.0
  0
VERTEX
  5
12A
  8
DEFAULT
 10
384.0774919853428
 20
73.1254118533575
 30
0.0
  0
VERTEX
  5
12B
  8
DEFAULT
 10
384.0774919853428
 20
101.0202126715648
 30
0.0
  0
VERTEX
  5
12C
  8
DEFAULT
 10
372.3886401541081
 20
109.1429741136091
 30
0.0
  0
SEQEND
  5
12D
  8
DEFAULT
  0
POLYLINE
  5
12E
  8
DEFAULT
 66
     1
 10
0.0
 20
0.0
 30
0.0
 70
     1
  0
VERTEX
  5
12F
  8
DEFAULT
 10
185.5101345261659
 20
192.4236043111933
 30
0.0
  0
VERTEX
  5
130
  8
DEFAULT
 10
218.1362055855972
 20
158.3942043744416
 30
0.0
  0
VERTEX
  5
131
  8
DEFAULT
 10
240.1609733509325
 20
181.9533040570431
 30
0.0
  0
VERTEX
  5
132
  8
DEFAULT
 10
241.1315637384961
 20
222.377869209599
 30
0.0
  0
VERTEX
  5
133
  8
DEFAULT
 10
212.5808352149217
 20
258.8182644775977
 30
0.0
  0
SEQEND
  5
134
  8
DEFAULT
  0
POLYLINE
  5
135
  8
DEFAULT
 66
     1
 10
0.0
 20
0.0
 30
0.0
 70
     1
  0
VERTEX
  5
136
  8
DEFAULT
 10
302.941883591512
 20
226.8525075482726
 30
0.0
  0
VERTEX
  5
137
  8
DEFAULT
 10
247.4202855754701
 20
228.797789814528
 30
0.0
  0
VERTEX
  5
138
  8
DEFAULT
 10
218.0159571241365
 20
266.3276675713043
 30
0.0
  0
VERTEX
  5
139
  8
DEFAULT
 10
248.5663232000771
 20
301.6223465087334
 30
0.0
  0
VERTEX
  5
13A
  8
DEFAULT
 10
313.243011005472
 20
237.1536349622325
 30
0.0
  0
SEQEND
  5
13B
  8
DEFAULT
  0
POLYLINE
  5
13C
  8
DEFAULT
 66
     1
 10
0.0
 20
0.0
 30
0.0
 70
     1
  0
VERTEX
  5
13D
  8
DEFAULT
 10
384.0774919853428
 20
206.0506451967639
 30
0.0
  0
VERTEX
  5
13E
  8
DEFAULT
 10
333.1512566530988
 20
244.4616702966035
 30
0.0
  0
VERTEX
  5
13F
  8
DEFAULT
 10
310.9036943604713
 20
222.2141080039762
 30
0.0
  0
VERTEX
  5
140
  8
DEFAULT
 10
311.4172714007272
 20
175.9921743809413
 30
0.0
  0
VERTEX
  5
141
  8
DEFAULT
 10
384.0774919853429
 20
201.5319214074867
 30
0.0
  0
SEQEND
  5
142
  8
DEFAULT
  0
POLYLINE
  5
143
  8
DEFAULT
 66
     1
 10
0.0
 20
0.0
 30
0.0
 70
     1
  0
VERTEX
  5
144
  8
DEFAULT
 10
337.2281873722723
 20
291.3298883116544
 30
0.0
  0
VERTEX
  5
145
  8
DEFAULT
 10
336.7862330798522
 20
252.8798648711091
 30
0.0
  0
VERTEX
  5
146
  8
DEFAULT
 10
384.0774919853429
 20
217.2105144671202
 30
0.0
  0
VERTEX
  5
147
  8
DEFAULT
 10
384.0774919853428
 20
306.3480329904638
 30
0.0
  0
SEQEND
  5
148
  8
DEFAULT
  0
POLYLINE
  5
149
  8
DEFAULT
 66
     1
 10
0.0
 20
0.0
 30
0.0
 70
     1
  0
VERTEX
  5
14A
  8
DEFAULT
 10
384.0774919853429
 20
315.7043170773828
 30
0.0
  0
VERTEX
  5
14B
  8
DEFAULT
 10
384.0774919853429
 20
340.4134744034131
 30
0.0
  0
VERTEX
  5
14C
  8
DEFAULT
 10
362.9686021684203
 20
360.0841761229188
 30
0.0
  0
VERTEX
  5
14D
  8
DEFAULT
 10
308.6457453375075
 20
340.2686500620617
 30
0.0
  0
VERTEX
  5
14E
  8
DEFAULT
 10
307.8156930676363
 20
312.0468728864425
 30
0.0
  0
VERTEX
  5
14F
  8
DEFAULT
 10
332.7175186099549
 20
299.2402197503932
 30
0.0
  0
SEQEND
  5
150
  8
DEFAULT
  0
POLYLINE
  5
151
  8
DEFAULT
 66
     1
 10
0.0
 20
0.0
 30
0.0
 70
     1
  0
VERTEX
  5
152
  8
DEFAULT
 10
232.0885797237452
 20
330.6270714909733
 30
0.0
  0
VERTEX
  5
153
  8
DEFAULT
 10
271.1613315117241
 20
291.6799631924385
 30
0.0
  0
VERTEX
  5
154
  8
DEFAULT
 10
298.9866468398076
 20
314.9198990646607
 30
0.0
  0
VERTEX
  5
155
  8
DEFAULT
 10
299.901852397512
 20
346.0368880266098
 30
0.0
  0
VERTEX
  5
156
  8
DEFAULT
 10
268.5513609241081
 20
371.0421121920743
 30
0.0
  0
SEQEND
  5
157
  8
DEFAULT
  0
POLYLINE
  5
158
  8
DEFAULT
 66
     1
 10
0.0
 20
0.0
 30
0.0
 70
     1
  0
VERTEX
  5
159
  8
DEFAULT
 10
248.2625760999419
 20
361.8548238723364
 30
0.0
  0
VERTEX
  5
15A
  8
DEFAULT
 10
176.7728649146709
 20
395.6717931671496
 30
0.0
  0
VERTEX
  5
15B
  8
DEFAULT
 10
174.8319532424863
 20
406.7011252239274
 30
0.0
  0
VERTEX
  5
15C
  8
DEFAULT
 10
201.1890976984941
 20
433.5651237751952
 30
0.0
  0
VERTEX
  5
15D
  8
DEFAULT
 10
207.1077712519437
 20
432.0864383175918
 30
0.0
  0
VERTEX
  5
15E
  8
DEFAULT
 10
252.3817215456863
 20
411.3077223245683
 30
0.0
  0
VERTEX
  5
15F
  8
DEFAULT
 10
264.2838695903005
 20
379.6126911326289
 30
0.0
  0
SEQEND
  5
160
  8
DEFAULT
  0
POLYLINE
  5
161
  8
DEFAULT
 66
     1
 10
0.0
 20
0.0
 30
0.0
 70
     1
  0
VERTEX
  5
162
  8
DEFAULT
 10
107.9738252132686
 20
404.758922642858
 30
0.0
  0
VERTEX
  5
163
  8
DEFAULT
 10
107.9738252132686
 20
368.1588706630851
 30
0.0
  0
VERTEX
  5
164
  8
DEFAULT
 10
168.5388841380025
 20
391.0540419139617
 30
0.0
  0
VERTEX
  5
165
  8
DEFAULT
 10
166.5370261806832
 20
402.4297044225628
 30
0.0
  0
SEQEND
  5
166
  8
DEFAULT
  0
POLYLINE
  5
167
  8
DEFAULT
 66
     1
 10
0.0
 20
0.0
 30
0.0
 70
     1
  0
VERTEX
  5
168
  8
DEFAULT
 10
216.6471693223797
 20
462.0423974638492
 30
0.0
  0
VERTEX
  5
169
  8
DEFAULT
 10
181.7491613253057
 20
498.6851014306601
 30
0.0
  0
VERTEX
  5
16A
  8
DEFAULT
 10
138.6088387990518
 20
487.4242084182925
 30
0.0
  0
VERTEX
  5
16B
  8
DEFAULT
 10
140.3957737548632
 20
457.9369024104707
 30
0.0
  0
VERTEX
  5
16C
  8
DEFAULT
 10
198.4009046005381
 20
443.4452527742289
 30
0.0
  0
SEQEND
  5
16D
  8
DEFAULT
  0
POLYLINE
  5
16E
  8
DEFAULT
 66
     1
 10
0.0
 20
0.0
 30
0.0
 70
     1
  0
VERTEX
  5
16F
  8
DEFAULT
 10
107.9738252132686
 20
443.3491353539564
 30
0.0
  0
VERTEX
  5
170
  8
DEFAULT
 10
107.9738252132686
 20
496.6915963836072
 30
0.0
  0
VERTEX
  5
171
  8
DEFAULT
 10
129.7635477462257
 20
486.0917364599807
 30
0.0
  0
VERTEX
  5
172
  8
DEFAULT
 10
131.5805630742678
 20
456.1080558427134
 30
0.0
  0
SEQEND
  5
173
  8
DEFAULT
  0
POLYLINE
  5
174
  8
DEFAULT
 66
     1
 10
0.0
 20
0.0
 30
0.0
 70
     1
  0
VERTEX
  5
175
  8
DEFAULT
 10
222.8905805604415
 20
468.4058709704049
 30
0.0
  0
VERTEX
  5
176
  8
DEFAULT
 10
187.4999327431472
 20
505.5658438625971
 30
0.0
  0
VERTEX
  5
177
  8
DEFAULT
 10
219.1176809649896
 20
540.6822773384956
 30
0.0
  0
VERTEX
  5
178
  8
DEFAULT
 10
247.4771984391571
 20
493.4652953013223
 30
0.0
  0
SEQEND
  5
179
  8
DEFAULT
  0
POLYLINE
  5
17A
  8
DEFAULT
 66
     1
 10
0.0
 20
0.0
 30
0.0
 70
     1
  0
VERTEX
  5
17B
  8
DEFAULT
 10
107.9738252132687
 20
540.7118689223992
 30
0.0
  0
VERTEX
  5
17C
  8
DEFAULT
 10
148.0308339167313
 20
556.7093743746461
 30
0.0
  0
VERTEX
  5
17D
  8
DEFAULT
 10
148.0308339167314
 20
571.85320633805
 30
0.0
  0
VERTEX
  5
17E
  8
DEFAULT
 10
107.9738252132686
 20
571.85320633805
 30
0.0
  0
SEQEND
  5
17F
  8
DEFAULT
  0
POLYLINE
  5
180
  8
DEFAULT
 66
     1
 10
0.0
 20
0.0
 30
0.0
 70
     1
  0
VERTEX
  5
181
  8
DEFAULT
 10
107.9738252132686
 20
506.599579850531
 30
0.0
  0
VERTEX
  5
182
  8
DEFAULT
 10
132.0059335998504
 20
494.9088856628521
 30
0.0
  0
VERTEX
  5
183
  8
DEFAULT
 10
176.3338387431482
 20
506.4797726671686
 30
0.0
  0
VERTEX
  5
184
  8
DEFAULT
 10
190.4795622578487
 20
522.190801652758
 30
0.0
  0
VERTEX
  5
185
  8
DEFAULT
 10
152.8760485415659
 20
549.0504543072454
 30
0.0
  0
VERTEX
  5
186
  8
DEFAULT
 10
107.9738252132686
 20
531.1179230034202
 30
0.0
  0
SEQEND
  5
187
  8
DEFAULT
  0
POLYLINE
  5
188
  8
DEFAULT
 66
     1
 10
0.0
 20
0.0
 30
0.0
 70
     1
  0
VERTEX
  5
189
  8
DEFAULT
 10
237.2552437805139
 20
527.7884340418534
 30
0.0
  0
VERTEX
  5
18A
  8
DEFAULT
 10
280.3326770284042
 20
547.6804597924079
 30
0.0
  0
VERTEX
  5
18B
  8
DEFAULT
 10
269.9168849367778
 20
571.85320633805
 30
0.0
  0
VERTEX
  5
18C
  8
DEFAULT
 10
225.6140252314477
 20
571.85320633805
 30
0.0
  0
VERTEX
  5
18D
  8
DEFAULT
 10
226.1093809415901
 20
548.4476490338183
 30
0.0
  0
VERTEX
  5
18E
  8
DEFAULT
 10
225.3520712344835
 20
547.6065386624007
 30
0.0
  0
SEQEND
  5
18F
  8
DEFAULT
  0
POLYLINE
  5
190
  8
DEFAULT
 66
     1
 10
0.0
 20
0.0
 30
0.0
 70
     1
  0
VERTEX
  5
191
  8
DEFAULT
 10
279.618499068392
 20
571.85320633805
 30
0.0
  0
VERTEX
  5
192
  8
DEFAULT
 10
384.0774919853428
 20
571.85320633805
 30
0.0
  0
VERTEX
  5
193
  8
DEFAULT
 10
384.0774919853428
 20
568.8627534049147
 30
0.0
  0
VERTEX
  5
194
  8
DEFAULT
 10
295.1600291618729
 20
535.7847571431772
 30
0.0
  0
SEQEND
  5
195
  8
DEFAULT
  0
POLYLINE
  5
196
  8
DEFAULT
 66
     1
 10
0.0
 20
0.0
 30
0.0
 70
     1
  0
VERTEX
  5
197
  8
DEFAULT
 10
384.0774919853428
 20
559.3565236779627
 30
0.0
  0
VERTEX
  5
198
  8
DEFAULT
 10
354.1345693116056
 20
548.2175206878105
 30
0.0
  0
VERTEX
  5
199
  8
DEFAULT
 10
384.0774919853428
 20
526.0140822644888
 30
0.0
  0
SEQEND
  5
19A
  8
DEFAULT
  0
POLYLINE
  5
19B
  8
DEFAULT
 66
     1
 10
0.0
 20
0.0
 30
0.0
 70
     1
  0
VERTEX
  5
19C
  8
DEFAULT
 10
384.0774919853428
 20
192.0878593142223
 30
0.0
  0
VERTEX
  5
19D
  8
DEFAULT
 10
313.1893368815948
 20
167.1709854875061
 30
0.0
  0
VERTEX
  5
19E
  8
DEFAULT
 10
327.9494614969195
 20
128.543799696687
 30
0.0
  0
VERTEX
  5
19F
  8
DEFAULT
 10
355.0566419231014
 20
129.1373875892312
 30
0.0
  0
VERTEX
  5
1A0
  8
DEFAULT
 10
384.0774919853428
 20
160.8737417137486
 30
0.0
  0
SEQEND
  5
1A1
  8
DEFAULT
  0
POLYLINE
  5
1A2
  8
DEFAULT
 66
     1
 10
0.0
 20
0.0
 30
0.0
 70
     1
  0
VERTEX
  5
1A3
  8
DEFAULT
 10
243.795828985997
 20
172.7948932902628
 30
0.0
  0
VERTEX
  5
1A4
  8
DEFAULT
 10
207.8381908790011
 20
134.3323047381635
 30
0.0
  0
VERTEX
  5
1A5
  8
DEFAULT
 10
238.7465739785831
 20
110.1238940056957
 30
0.0
  0
VERTEX
  5
1A6
  8
DEFAULT
 10
261.5675511349494
 20
128.0171227777065
 30
0.0
  0
SEQEND
  5
1A7
  8
DEFAULT
  0
POLYLINE
  5
1A8
  8
DEFAULT
 66
     1
 10
0.0
 20
0.0
 30
0.0
 70
     1
  0
VERTEX
  5
1A9
  8
DEFAULT
 10
200.4072440109176
 20
80.06320040013416
 30
0.0
  0
VERTEX
  5
1AA
  8
DEFAULT
 10
231.5257224801215
 20
104.4622456500885
 30
0.0
  0
VERTEX
  5
1AB
  8
DEFAULT
 10
201.1529130381203
 20
128.2511783710915
 30
0.0
  0
VERTEX
  5
1AC
  8
DEFAULT
 10
159.0734994063333
 20
115.8186243435182
 30
0.0
  0
VERTEX
  5
1AD
  8
DEFAULT
 10
158.5193300038377
 20
103.8116206227807
 30
0.0
  0
SEQEND
  5
1AE
  8
DEFAULT
  0
POLYLINE
  5
1AF
  8
DEFAULT
 66
     1
 10
0.0
 20
0.0
 30
0.0
 70
     1
  0
VERTEX
  5
1B0
  8
DEFAULT
 10
293.2653106861042
 20
108.2154514990299
 30
0.0
  0
VERTEX
  5
1B1
  8
DEFAULT
 10
293.816025460043
 20
97.93544238550528
 30
0.0
  0
VERTEX
  5
1B2
  8
DEFAULT
 10
270.1958352061191
 20
78.20097939337408
 30
0.0
  0
VERTEX
  5
1B3
  8
DEFAULT
 10
245.0395318758991
 20
103.7361586575896
 30
0.0
  0
VERTEX
  5
1B4
  8
DEFAULT
 10
266.8223583391169
 20
120.8154052882991
 30
0.0
  0
SEQEND
  5
1B5
  8
DEFAULT
  0
POLYLINE
  5
1B6
  8
DEFAULT
 66
     1
 10
0.0
 20
0.0
 30
0.0
 70
     1
  0
VERTEX
  5
1B7
  8
DEFAULT
 10
320.8568662812978
 20
122.144162247803
 30
0.0
  0
VERTEX
  5
1B8
  8
DEFAULT
 10
321.8677083984498
 20
119.4987925587234
 30
0.0
  0
VERTEX
  5
1B9
  8
DEFAULT
 10
356.398256064945
 20
120.2549359382816
 30
0.0
  0
VERTEX
  5
1BA
  8
DEFAULT
 10
364.7980684959854
 20
114.4177781472198
 30
0.0
  0
VERTEX
  5
1BB
  8
DEFAULT
 10
323.5811160595947
 20
80.1239348494033
 30
0.0
  0
VERTEX
  5
1BC
  8
DEFAULT
 10
302.8887001236987
 20
95.13162113258034
 30
0.0
  0
VERTEX
  5
1BD
  8
DEFAULT
 10
302.2065325653725
 20
107.8654155546699
 30
0.0
  0
SEQEND
  5
1BE
  8
DEFAULT
  0
ENDSEC
  0
EOF
