  0
SECTION
  2
HEADER
  9
$ACADVER
  1
AC1009
  9
$DWGCODEPAGE
  3
ansi_1252
  9
$INSBASE
 10
0.0
 20
0.0
 30
0.0
  9
$EXTMIN
 10
1.000000000000000E+20
 20
1.000000000000000E+20
 30
1.000000000000000E+20
  9
$EXTMAX
 10
-1.000000000000000E+20
 20
-1.000000000000000E+20
 30
-1.000000000000000E+20
  9
$LIMMIN
 10
0.0
 20
0.0
  9
$LIMMAX
 10
12.0
 20
9.0
  9
$ORTHOMODE
 70
     0
  9
$REGENMODE
 70
     1
  9
$FILLMODE
 70
     1
  9
$QTEXTMODE
 70
     0
  9
$MIRRTEXT
 70
     1
  9
$DRAGMODE
 70
     2
  9
$LTSCALE
 40
1.0
  9
$OSMODE
 70
    37
  9
$ATTMODE
 70
     1
  9
$TEXTSIZE
 40
0.2
  9
$TRACEWID
 40
0.05
  9
$TEXTSTYLE
  7
STANDARD
  9
$CLAYER
  8
0
  9
$CELTYPE
  6
BYLAYER
  9
$CECOLOR
 62
   256
  9
$DIMSCALE
 40
1.0
  9
$DIMASZ
 40
0.18
  9
$DIMEXO
 40
0.0625
  9
$DIMDLI
 40
0.38
  9
$DIMRND
 40
0.0
  9
$DIMDLE
 40
0.0
  9
$DIMEXE
 40
0.18
  9
$DIMTP
 40
0.0
  9
$DIMTM
 40
0.0
  9
$DIMTXT
 40
0.18
  9
$DIMCEN
 40
0.09
  9
$DIMTSZ
 40
0.0
  9
$DIMTOL
 70
     0
  9
$DIMLIM
 70
     0
  9
$DIMTIH
 70
     1
  9
$DIMTOH
 70
     1
  9
$DIMSE1
 70
     0
  9
$DIMSE2
 70
     0
  9
$DIMTAD
 70
     0
  9
$DIMZIN
 70
     0
  9
$DIMBLK
  1

  9
$DIMASO
 70
     1
  9
$DIMSHO
 70
     1
  9
$DIMPOST
  1

  9
$DIMAPOST
  1

  9
$DIMALT
 70
     0
  9
$DIMALTD
 70
     2
  9
$DIMALTF
 40
25.4
  9
$DIMLFAC
 40
1.0
  9
$DIMTOFL
 70
     0
  9
$DIMTVP
 40
0.0
  9
$DIMTIX
 70
     0
  9
$DIMSOXD
 70
     0
  9
$DIMSAH
 70
     0
  9
$DIMBLK1
  1

  9
$DIMBLK2
  1

  9
$DIMSTYLE
  2
STANDARD_ACAD
  9
$DIMCLRD
 70
     0
  9
$DIMCLRE
 70
     0
  9
$DIMCLRT
 70
     0
  9
$DIMTFAC
 40
1.0
  9
$DIMGAP
 40
0.09
  9
$LUNITS
 70
     2
  9
$LUPREC
 70
     3
  9
$SKETCHINC
 40
0.1
  9
$FILLETRAD
 40
0.5
  9
$AUNITS
 70
     0
  9
$AUPREC
 70
     0
  9
$MENU
  1
.
  9
$ELEVATION
 40
0.0
  9
$PELEVATION
 40
0.0
  9
$THICKNESS
 40
0.0
  9
$LIMCHECK
 70
     0
  9
$CHAMFERA
 40
0.0
  9
$CHAMFERB
 40
0.0
  9
$SKPOLY
 70
     0
  9
$TDCREATE
 40
2460062.604762164
  9
$TDUPDATE
 40
2460062.604762164
  9
$TDINDWG
 40
0.0000000116
  9
$TDUSRTIMER
 40
0.0000000116
  9
$USRTIMER
 70
     1
  9
$ANGBASE
 50
0.0
  9
$ANGDIR
 70
     0
  9
$PDMODE
 70
     0
  9
$PDSIZE
 40
0.0
  9
$PLINEWID
 40
0.0
  9
$COORDS
 70
     1
  9
$SPLFRAME
 70
     0
  9
$SPLINETYPE
 70
     6
  9
$SPLINESEGS
 70
     8
  9
$ATTDIA
 70
     0
  9
$ATTREQ
 70
     1
  9
$HANDLING
 70
     1
  9
$HANDSEED
  5
724
  9
$SURFTAB1
 70
     6
  9
$SURFTAB2
 70
     6
  9
$SURFTYPE
 70
     6
  9
$SURFU
 70
     6
  9
$SURFV
 70
     6
  9
$UCSNAME
  2

  9
$UCSORG
 10
0.0
 20
0.0
 30
0.0
  9
$UCSXDIR
 10
1.0
 20
0.0
 30
0.0
  9
$UCSYDIR
 10
0.0
 20
1.0
 30
0.0
  9
$PUCSNAME
  2

  9
$PUCSORG
 10
0.0
 20
0.0
 30
0.0
  9
$PUCSXDIR
 10
1.0
 20
0.0
 30
0.0
  9
$PUCSYDIR
 10
0.0
 20
1.0
 30
0.0
  9
$USERI1
 70
     0
  9
$USERI2
 70
     0
  9
$USERI3
 70
     0
  9
$USERI4
 70
     0
  9
$USERI5
 70
     0
  9
$USERR1
 40
0.0
  9
$USERR2
 40
0.0
  9
$USERR3
 40
0.0
  9
$USERR4
 40
0.0
  9
$USERR5
 40
0.0
  9
$WORLDVIEW
 70
     1
  9
$SHADEDGE
 70
     3
  9
$SHADEDIF
 70
    70
  9
$TILEMODE
 70
     1
  9
$MAXACTVP
 70
    64
  9
$PLIMCHECK
 70
     0
  9
$PEXTMIN
 10
1.000000000000000E+20
 20
1.000000000000000E+20
 30
1.000000000000000E+20
  9
$PEXTMAX
 10
-1.000000000000000E+20
 20
-1.000000000000000E+20
 30
-1.000000000000000E+20
  9
$PLIMMIN
 10
0.0
 20
0.0
  9
$PLIMMAX
 10
12.0
 20
9.0
  9
$UNITMODE
 70
     0
  9
$VISRETAIN
 70
     1
  9
$PLINEGEN
 70
     0
  9
$PSLTSCALE
 70
     1
  0
ENDSEC
  0
SECTION
  2
TABLES
  0
TABLE
  2
VPORT
 70
     1
  0
VPORT
  2
*ACTIVE
 70
     0
 10
0.0
 20
0.0
 11
1.0
 21
1.0
 12
10.42990654205607
 22
4.5
 13
0.0
 23
0.0
 14
0.5
 24
0.5
 15
0.5
 25
0.5
 16
0.0
 26
0.0
 36
1.0
 17
0.0
 27
0.0
 37
0.0
 40
9.0
 41
1.972972972850329
 42
50.0
 43
0.0
 44
0.0
 50
0.0
 51
0.0
 71
     0
 72
   100
 73
     1
 74
     3
 75
     0
 76
     0
 77
     0
 78
     0
  0
ENDTAB
  0
TABLE
  2
LTYPE
 70
     1
  0
LTYPE
  2
CONTINUOUS
 70
     0
  3
Solid line
 72
    65
 73
     0
 40
0.0
  0
ENDTAB
  0
TABLE
  2
LAYER
 70
     1
  0
LAYER
  2
0
 70
     0
 62
     7
  6
CONTINUOUS
  0
ENDTAB
  0
TABLE
  2
STYLE
 70
     1
  0
STYLE
  2
STANDARD
 70
     0
 40
0.0
 41
1.0
 50
0.0
 71
     0
 42
0.2
  3
txt
  4

  0
ENDTAB
  0
TABLE
  2
VIEW
 70
     0
  0
ENDTAB
  0
TABLE
  2
UCS
 70
     0
  0
ENDTAB
  0
TABLE
  2
APPID
 70
     2
  0
APPID
  2
ACAD
 70
     0
  0
APPID
  2
RHINO
 70
     0
  0
ENDTAB
  0
TABLE
  2
DIMSTYLE
 70
     1
  0
DIMSTYLE
  2
STANDARD_ACAD
 70
     0
  3

  4

  5

  6

  7

 40
1.0
 41
0.18
 42
0.0625
 43
0.38
 44
0.18
 45
0.0
 46
0.0
 47
0.0
 48
0.0
140
0.18
141
0.09
142
0.0
143
25.4
144
1.0
145
0.0
146
1.0
147
0.09
 71
     0
 72
     0
 73
     1
 74
     1
 75
     0
 76
     0
 77
     0
 78
     0
170
     0
171
     2
172
     0
173
     0
174
     0
175
     0
176
     0
177
     0
178
     0
  0
ENDTAB
  0
ENDSEC
  0
SECTION
  2
BLOCKS
  0
BLOCK
  8
0
  2
$MODEL_SPACE
 70
     0
 10
0.0
 20
0.0
 30
0.0
  3
$MODEL_SPACE
  1

  0
ENDBLK
  5
21
  8
0
  0
BLOCK
 67
     1
  8
0
  2
$PAPER_SPACE
 70
     0
 10
0.0
 20
0.0
 30
0.0
  3
$PAPER_SPACE
  1

  0
ENDBLK
  5
1D
 67
     1
  8
0
  0
ENDSEC
  0
SECTION
  2
ENTITIES
  0
POLYLINE
  5
6F
  8
0
 66
     1
 10
0.0
 20
0.0
 30
0.0
 70
     1
  0
VERTEX
  5
70
  8
0
 10
806.2656237826069
 20
1230.876486301556
 30
0.0
  0
VERTEX
  5
71
  8
0
 10
1426.139002744397
 20
1230.876486301556
 30
0.0
  0
VERTEX
  5
72
  8
0
 10
1426.139002744397
 20
1850.749865263339
 30
0.0
  0
VERTEX
  5
73
  8
0
 10
806.2656237826069
 20
1850.749865263339
 30
0.0
  0
SEQEND
  5
74
  8
0
  0
POLYLINE
  5
75
  8
0
 66
     1
 10
0.0
 20
0.0
 30
0.0
 70
     1
  0
VERTEX
  5
76
  8
0
 10
818.2656237826069
 20
1242.876486301556
 30
0.0
  0
VERTEX
  5
77
  8
0
 10
1414.139002744397
 20
1242.876486301556
 30
0.0
  0
VERTEX
  5
78
  8
0
 10
1414.139002744397
 20
1838.749865263339
 30
0.0
  0
VERTEX
  5
79
  8
0
 10
818.2656237826069
 20
1838.749865263339
 30
0.0
  0
SEQEND
  5
7A
  8
0
  0
POLYLINE
  5
7B
  8
0
 66
     1
 10
0.0
 20
0.0
 30
0.0
  0
VERTEX
  5
7C
  8
0
 10
818.2656237826108
 20
1510.538789211733
 30
0.0
  0
VERTEX
  5
7D
  8
0
 10
829.3468183514838
 20
1499.457594642859
 30
0.0
  0
VERTEX
  5
7E
  8
0
 10
833.4028170679697
 20
1514.594787928219
 30
0.0
  0
VERTEX
  5
7F
  8
0
 10
848.5400103533286
 20
1510.538789211733
 30
0.0
  0
VERTEX
  5
80
  8
0
 10
844.4840116368424
 20
1525.675982497092
 30
0.0
  0
VERTEX
  5
81
  8
0
 10
859.6212049222017
 20
1529.731981213577
 30
0.0
  0
VERTEX
  5
82
  8
0
 10
848.5400103533286
 20
1540.813175782447
 30
0.0
  0
VERTEX
  5
83
  8
0
 10
859.6212049221986
 20
1551.89437035132
 30
0.0
  0
VERTEX
  5
84
  8
0
 10
844.4840116368392
 20
1555.950369067806
 30
0.0
  0
VERTEX
  5
85
  8
0
 10
848.5400103533251
 20
1571.087562353165
 30
0.0
  0
VERTEX
  5
86
  8
0
 10
833.4028170679658
 20
1567.031563636679
 30
0.0
  0
VERTEX
  5
87
  8
0
 10
829.3468183514804
 20
1582.168756922038
 30
0.0
  0
VERTEX
  5
88
  8
0
 10
818.2656237826069
 20
1571.087562353165
 30
0.0
  0
SEQEND
  5
89
  8
0
  0
POLYLINE
  5
8A
  8
0
 66
     1
 10
0.0
 20
0.0
 30
0.0
 70
     1
  0
VERTEX
  5
8B
  8
0
 10
866.2133204424171
 20
1540.813175782451
 30
0.0
  0
VERTEX
  5
8C
  8
0
 10
873.5597051354498
 20
1533.466791089418
 30
0.0
  0
VERTEX
  5
8D
  8
0
 10
900.9767860617917
 20
1540.813175782449
 30
0.0
  0
VERTEX
  5
8E
  8
0
 10
873.5597051354465
 20
1548.15956047548
 30
0.0
  0
SEQEND
  5
8F
  8
0
  0
POLYLINE
  5
90
  8
0
 66
     1
 10
0.0
 20
0.0
 30
0.0
 70
     1
  0
VERTEX
  5
91
  8
0
 10
1116.202313263505
 20
1745.624685309276
 30
0.0
  0
VERTEX
  5
92
  8
0
 10
1127.687044191016
 20
1702.763085976548
 30
0.0
  0
VERTEX
  5
93
  8
0
 10
1116.202313263502
 20
1696.132373483977
 30
0.0
  0
VERTEX
  5
94
  8
0
 10
1104.717582335991
 20
1702.763085976543
 30
0.0
  0
SEQEND
  5
95
  8
0
  0
POLYLINE
  5
96
  8
0
 66
     1
 10
0.0
 20
0.0
 30
0.0
 70
     1
  0
VERTEX
  5
97
  8
0
 10
1116.202313263505
 20
1447.687995828388
 30
0.0
  0
VERTEX
  5
98
  8
0
 10
1127.687044191016
 20
1404.82639649566
 30
0.0
  0
VERTEX
  5
99
  8
0
 10
1116.202313263502
 20
1398.195684003089
 30
0.0
  0
VERTEX
  5
9A
  8
0
 10
1104.717582335991
 20
1404.826396495655
 30
0.0
  0
SEQEND
  5
9B
  8
0
  0
POLYLINE
  5
9C
  8
0
 66
     1
 10
0.0
 20
0.0
 30
0.0
 70
     1
  0
VERTEX
  5
9D
  8
0
 10
1164.150009923312
 20
1540.813175782451
 30
0.0
  0
VERTEX
  5
9E
  8
0
 10
1171.496394616345
 20
1533.466791089418
 30
0.0
  0
VERTEX
  5
9F
  8
0
 10
1198.913475542686
 20
1540.813175782449
 30
0.0
  0
VERTEX
  5
A0
  8
0
 10
1171.496394616341
 20
1548.15956047548
 30
0.0
  0
SEQEND
  5
A1
  8
0
  0
POLYLINE
  5
A2
  8
0
 66
     1
 10
0.0
 20
0.0
 30
0.0
  0
VERTEX
  5
A3
  8
0
 10
1085.927926692784
 20
1838.749865263335
 30
0.0
  0
VERTEX
  5
A4
  8
0
 10
1074.846732123911
 20
1827.668670694462
 30
0.0
  0
VERTEX
  5
A5
  8
0
 10
1089.98392540927
 20
1823.612671977976
 30
0.0
  0
VERTEX
  5
A6
  8
0
 10
1085.927926692784
 20
1808.475478692617
 30
0.0
  0
VERTEX
  5
A7
  8
0
 10
1101.065119978143
 20
1812.531477409103
 30
0.0
  0
VERTEX
  5
A8
  8
0
 10
1105.121118694629
 20
1797.394284123744
 30
0.0
  0
VERTEX
  5
A9
  8
0
 10
1116.202313263504
 20
1808.475478692619
 30
0.0
  0
VERTEX
  5
AA
  8
0
 10
1127.283507832379
 20
1797.394284123747
 30
0.0
  0
VERTEX
  5
AB
  8
0
 10
1131.339506548864
 20
1812.531477409106
 30
0.0
  0
VERTEX
  5
AC
  8
0
 10
1146.476699834223
 20
1808.47547869262
 30
0.0
  0
VERTEX
  5
AD
  8
0
 10
1142.420701117737
 20
1823.61267197798
 30
0.0
  0
VERTEX
  5
AE
  8
0
 10
1157.557894403096
 20
1827.668670694465
 30
0.0
  0
VERTEX
  5
AF
  8
0
 10
1146.476699834227
 20
1838.749865263335
 30
0.0
  0
SEQEND
  5
B0
  8
0
  0
POLYLINE
  5
B1
  8
0
 66
     1
 10
0.0
 20
0.0
 30
0.0
 70
     1
  0
VERTEX
  5
B2
  8
0
 10
1116.202313263502
 20
1623.524338061634
 30
0.0
  0
VERTEX
  5
B3
  8
0
 10
1123.548697956534
 20
1596.107257135286
 30
0.0
  0
VERTEX
  5
B4
  8
0
 10
1116.202313263501
 20
1588.760872442251
 30
0.0
  0
VERTEX
  5
B5
  8
0
 10
1108.855928570468
 20
1596.107257135282
 30
0.0
  0
SEQEND
  5
B6
  8
0
  0
POLYLINE
  5
B7
  8
0
 66
     1
 10
0.0
 20
0.0
 30
0.0
  0
VERTEX
  5
B8
  8
0
 10
1414.139002744397
 20
1510.53878921173
 30
0.0
  0
VERTEX
  5
B9
  8
0
 10
1403.057808175523
 20
1499.457594642856
 30
0.0
  0
VERTEX
  5
BA
  8
0
 10
1399.001809459038
 20
1514.594787928215
 30
0.0
  0
VERTEX
  5
BB
  8
0
 10
1383.864616173679
 20
1510.538789211729
 30
0.0
  0
VERTEX
  5
BC
  8
0
 10
1387.920614890165
 20
1525.675982497088
 30
0.0
  0
VERTEX
  5
BD
  8
0
 10
1372.783421604806
 20
1529.731981213574
 30
0.0
  0
VERTEX
  5
BE
  8
0
 10
1383.864616173678
 20
1540.813175782445
 30
0.0
  0
VERTEX
  5
BF
  8
0
 10
1372.783421604803
 20
1551.894370351317
 30
0.0
  0
VERTEX
  5
C0
  8
0
 10
1387.920614890162
 20
1555.950369067803
 30
0.0
  0
VERTEX
  5
C1
  8
0
 10
1383.864616173676
 20
1571.087562353162
 30
0.0
  0
VERTEX
  5
C2
  8
0
 10
1399.001809459036
 20
1567.031563636675
 30
0.0
  0
VERTEX
  5
C3
  8
0
 10
1403.057808175521
 20
1582.168756922034
 30
0.0
  0
VERTEX
  5
C4
  8
0
 10
1414.139002744395
 20
1571.087562353161
 30
0.0
  0
SEQEND
  5
C5
  8
0
  0
POLYLINE
  5
C6
  8
0
 66
     1
 10
0.0
 20
0.0
 30
0.0
 70
     1
  0
VERTEX
  5
C7
  8
0
 10
1146.47669983422
 20
1540.813175782447
 30
0.0
  0
VERTEX
  5
C8
  8
0
 10
1157.557894403093
 20
1551.89437035132
 30
0.0
  0
VERTEX
  5
C9
  8
0
 10
1142.420701117734
 20
1555.950369067806
 30
0.0
  0
VERTEX
  5
CA
  8
0
 10
1146.47669983422
 20
1571.087562353165
 30
0.0
  0
VERTEX
  5
CB
  8
0
 10
1131.339506548861
 20
1567.031563636679
 30
0.0
  0
VERTEX
  5
CC
  8
0
 10
1127.283507832375
 20
1582.168756922038
 30
0.0
  0
VERTEX
  5
CD
  8
0
 10
1116.202313263501
 20
1571.087562353163
 30
0.0
  0
VERTEX
  5
CE
  8
0
 10
1105.121118694627
 20
1582.168756922034
 30
0.0
  0
VERTEX
  5
CF
  8
0
 10
1101.065119978141
 20
1567.031563636675
 30
0.0
  0
VERTEX
  5
D0
  8
0
 10
1085.927926692782
 20
1571.087562353162
 30
0.0
  0
VERTEX
  5
D1
  8
0
 10
1089.983925409267
 20
1555.950369067803
 30
0.0
  0
VERTEX
  5
D2
  8
0
 10
1074.846732123908
 20
1551.894370351317
 30
0.0
  0
VERTEX
  5
D3
  8
0
 10
1085.927926692783
 20
1540.813175782445
 30
0.0
  0
VERTEX
  5
D4
  8
0
 10
1074.846732123911
 20
1529.731981213574
 30
0.0
  0
VERTEX
  5
D5
  8
0
 10
1089.98392540927
 20
1525.675982497088
 30
0.0
  0
VERTEX
  5
D6
  8
0
 10
1085.927926692784
 20
1510.538789211729
 30
0.0
  0
VERTEX
  5
D7
  8
0
 10
1101.065119978143
 20
1514.594787928215
 30
0.0
  0
VERTEX
  5
D8
  8
0
 10
1105.121118694629
 20
1499.457594642856
 30
0.0
  0
VERTEX
  5
D9
  8
0
 10
1116.202313263504
 20
1510.538789211731
 30
0.0
  0
VERTEX
  5
DA
  8
0
 10
1127.283507832379
 20
1499.457594642859
 30
0.0
  0
VERTEX
  5
DB
  8
0
 10
1131.339506548864
 20
1514.594787928219
 30
0.0
  0
VERTEX
  5
DC
  8
0
 10
1146.476699834223
 20
1510.538789211733
 30
0.0
  0
VERTEX
  5
DD
  8
0
 10
1142.420701117737
 20
1525.675982497092
 30
0.0
  0
VERTEX
  5
DE
  8
0
 10
1157.557894403096
 20
1529.731981213577
 30
0.0
  0
SEQEND
  5
DF
  8
0
  0
POLYLINE
  5
E0
  8
0
 66
     1
 10
0.0
 20
0.0
 30
0.0
 70
     1
  0
VERTEX
  5
E1
  8
0
 10
1116.202313263504
 20
1683.430667561807
 30
0.0
  0
VERTEX
  5
E2
  8
0
 10
1127.687044191013
 20
1676.799955069239
 30
0.0
  0
VERTEX
  5
E3
  8
0
 10
1116.202313263502
 20
1633.938355736508
 30
0.0
  0
VERTEX
  5
E4
  8
0
 10
1104.717582335991
 20
1676.799955069235
 30
0.0
  0
SEQEND
  5
E5
  8
0
  0
POLYLINE
  5
E6
  8
0
 66
     1
 10
0.0
 20
0.0
 30
0.0
 70
     1
  0
VERTEX
  5
E7
  8
0
 10
1116.202313263502
 20
1790.802168603529
 30
0.0
  0
VERTEX
  5
E8
  8
0
 10
1108.85592857047
 20
1783.455783910496
 30
0.0
  0
VERTEX
  5
E9
  8
0
 10
1116.202313263504
 20
1756.038702984154
 30
0.0
  0
VERTEX
  5
EA
  8
0
 10
1123.548697956538
 20
1783.455783910499
 30
0.0
  0
SEQEND
  5
EB
  8
0
  0
POLYLINE
  5
EC
  8
0
 66
     1
 10
0.0
 20
0.0
 30
0.0
 70
     1
  0
VERTEX
  5
ED
  8
0
 10
1116.202313263504
 20
1385.493978080919
 30
0.0
  0
VERTEX
  5
EE
  8
0
 10
1127.687044191013
 20
1378.863265588351
 30
0.0
  0
VERTEX
  5
EF
  8
0
 10
1116.202313263502
 20
1336.00166625562
 30
0.0
  0
VERTEX
  5
F0
  8
0
 10
1104.717582335991
 20
1378.863265588347
 30
0.0
  0
SEQEND
  5
F1
  8
0
  0
POLYLINE
  5
F2
  8
0
 66
     1
 10
0.0
 20
0.0
 30
0.0
 70
     1
  0
VERTEX
  5
F3
  8
0
 10
1116.202313263502
 20
1492.865479122641
 30
0.0
  0
VERTEX
  5
F4
  8
0
 10
1108.85592857047
 20
1485.519094429608
 30
0.0
  0
VERTEX
  5
F5
  8
0
 10
1116.202313263504
 20
1458.102013503266
 30
0.0
  0
VERTEX
  5
F6
  8
0
 10
1123.548697956538
 20
1485.519094429611
 30
0.0
  0
SEQEND
  5
F7
  8
0
  0
POLYLINE
  5
F8
  8
0
 66
     1
 10
0.0
 20
0.0
 30
0.0
 70
     1
  0
VERTEX
  5
F9
  8
0
 10
911.3908037366701
 20
1540.813175782447
 30
0.0
  0
VERTEX
  5
FA
  8
0
 10
954.2524030693977
 20
1552.297906709958
 30
0.0
  0
VERTEX
  5
FB
  8
0
 10
960.8831155619675
 20
1540.813175782447
 30
0.0
  0
VERTEX
  5
FC
  8
0
 10
954.2524030694022
 20
1529.32844485494
 30
0.0
  0
SEQEND
  5
FD
  8
0
  0
POLYLINE
  5
FE
  8
0
 66
     1
 10
0.0
 20
0.0
 30
0.0
 70
     1
  0
VERTEX
  5
FF
  8
0
 10
1209.327493217565
 20
1540.813175782447
 30
0.0
  0
VERTEX
  5
100
  8
0
 10
1252.189092550293
 20
1552.297906709958
 30
0.0
  0
VERTEX
  5
101
  8
0
 10
1258.819805042862
 20
1540.813175782447
 30
0.0
  0
VERTEX
  5
102
  8
0
 10
1252.189092550297
 20
1529.32844485494
 30
0.0
  0
SEQEND
  5
103
  8
0
  0
POLYLINE
  5
104
  8
0
 66
     1
 10
0.0
 20
0.0
 30
0.0
 70
     1
  0
VERTEX
  5
105
  8
0
 10
1321.013822790334
 20
1540.813175782447
 30
0.0
  0
VERTEX
  5
106
  8
0
 10
1278.152223457606
 20
1529.328444854937
 30
0.0
  0
VERTEX
  5
107
  8
0
 10
1271.521510965037
 20
1540.813175782447
 30
0.0
  0
VERTEX
  5
108
  8
0
 10
1278.152223457604
 20
1552.297906709957
 30
0.0
  0
SEQEND
  5
109
  8
0
  0
POLYLINE
  5
10A
  8
0
 66
     1
 10
0.0
 20
0.0
 30
0.0
 70
     1
  0
VERTEX
  5
10B
  8
0
 10
1023.077133309439
 20
1540.813175782447
 30
0.0
  0
VERTEX
  5
10C
  8
0
 10
980.2155339767114
 20
1529.328444854937
 30
0.0
  0
VERTEX
  5
10D
  8
0
 10
973.5848214841418
 20
1540.813175782447
 30
0.0
  0
VERTEX
  5
10E
  8
0
 10
980.2155339767091
 20
1552.297906709957
 30
0.0
  0
SEQEND
  5
10F
  8
0
  0
POLYLINE
  5
110
  8
0
 66
     1
 10
0.0
 20
0.0
 30
0.0
 70
     1
  0
VERTEX
  5
111
  8
0
 10
1366.19130608459
 20
1540.813175782447
 30
0.0
  0
VERTEX
  5
112
  8
0
 10
1358.844921391558
 20
1533.466791089415
 30
0.0
  0
VERTEX
  5
113
  8
0
 10
1331.42784046521
 20
1540.813175782446
 30
0.0
  0
VERTEX
  5
114
  8
0
 10
1358.844921391555
 20
1548.159560475477
 30
0.0
  0
SEQEND
  5
115
  8
0
  0
POLYLINE
  5
116
  8
0
 66
     1
 10
0.0
 20
0.0
 30
0.0
 70
     1
  0
VERTEX
  5
117
  8
0
 10
1068.254616603695
 20
1540.813175782447
 30
0.0
  0
VERTEX
  5
118
  8
0
 10
1060.908231910663
 20
1533.466791089415
 30
0.0
  0
VERTEX
  5
119
  8
0
 10
1033.491150984316
 20
1540.813175782446
 30
0.0
  0
VERTEX
  5
11A
  8
0
 10
1060.90823191066
 20
1548.159560475477
 30
0.0
  0
SEQEND
  5
11B
  8
0
  0
POLYLINE
  5
11C
  8
0
 66
     1
 10
0.0
 20
0.0
 30
0.0
 70
     1
  0
VERTEX
  5
11D
  8
0
 10
1116.202313263502
 20
1325.587648580746
 30
0.0
  0
VERTEX
  5
11E
  8
0
 10
1123.548697956534
 20
1298.170567654398
 30
0.0
  0
VERTEX
  5
11F
  8
0
 10
1116.2023132635
 20
1290.824182961362
 30
0.0
  0
VERTEX
  5
120
  8
0
 10
1108.855928570468
 20
1298.170567654395
 30
0.0
  0
SEQEND
  5
121
  8
0
  0
POLYLINE
  5
122
  8
0
 66
     1
 10
0.0
 20
0.0
 30
0.0
  0
VERTEX
  5
123
  8
0
 10
1146.47669983422
 20
1242.876486301559
 30
0.0
  0
VERTEX
  5
124
  8
0
 10
1157.557894403093
 20
1253.957680870433
 30
0.0
  0
VERTEX
  5
125
  8
0
 10
1142.420701117734
 20
1258.013679586918
 30
0.0
  0
VERTEX
  5
126
  8
0
 10
1146.47669983422
 20
1273.150872872277
 30
0.0
  0
VERTEX
  5
127
  8
0
 10
1131.339506548861
 20
1269.094874155791
 30
0.0
  0
VERTEX
  5
128
  8
0
 10
1127.283507832375
 20
1284.232067441151
 30
0.0
  0
VERTEX
  5
129
  8
0
 10
1116.2023132635
 20
1273.150872872273
 30
0.0
  0
VERTEX
  5
12A
  8
0
 10
1105.121118694627
 20
1284.232067441146
 30
0.0
  0
VERTEX
  5
12B
  8
0
 10
1101.065119978141
 20
1269.094874155787
 30
0.0
  0
VERTEX
  5
12C
  8
0
 10
1085.927926692782
 20
1273.150872872274
 30
0.0
  0
VERTEX
  5
12D
  8
0
 10
1089.983925409267
 20
1258.013679586915
 30
0.0
  0
VERTEX
  5
12E
  8
0
 10
1074.846732123908
 20
1253.957680870429
 30
0.0
  0
VERTEX
  5
12F
  8
0
 10
1085.927926692782
 20
1242.876486301556
 30
0.0
  0
SEQEND
  5
130
  8
0
  0
POLYLINE
  5
131
  8
0
 66
     1
 10
0.0
 20
0.0
 30
0.0
  0
VERTEX
  5
132
  8
0
 10
1414.139002744397
 20
1745.624685309272
 30
0.0
  0
VERTEX
  5
133
  8
0
 10
1402.654271816886
 20
1702.763085976543
 30
0.0
  0
VERTEX
  5
134
  8
0
 10
1414.139002744395
 20
1696.132373483975
 30
0.0
  0
SEQEND
  5
135
  8
0
  0
POLYLINE
  5
136
  8
0
 66
     1
 10
0.0
 20
0.0
 30
0.0
  0
VERTEX
  5
137
  8
0
 10
1321.013822790334
 20
1838.749865263335
 30
0.0
  0
VERTEX
  5
138
  8
0
 10
1278.152223457606
 20
1827.265134335824
 30
0.0
  0
VERTEX
  5
139
  8
0
 10
1271.521510965038
 20
1838.749865263335
 30
0.0
  0
SEQEND
  5
13A
  8
0
  0
POLYLINE
  5
13B
  8
0
 66
     1
 10
0.0
 20
0.0
 30
0.0
  0
VERTEX
  5
13C
  8
0
 10
1258.819805042864
 20
1838.749865263335
 30
0.0
  0
VERTEX
  5
13D
  8
0
 10
1252.189092550297
 20
1827.265134335827
 30
0.0
  0
VERTEX
  5
13E
  8
0
 10
1209.327493217568
 20
1838.749865263339
 30
0.0
  0
SEQEND
  5
13F
  8
0
  0
POLYLINE
  5
140
  8
0
 66
     1
 10
0.0
 20
0.0
 30
0.0
  0
VERTEX
  5
141
  8
0
 10
1414.139002744396
 20
1633.938355736506
 30
0.0
  0
VERTEX
  5
142
  8
0
 10
1402.654271816886
 20
1676.799955069235
 30
0.0
  0
VERTEX
  5
143
  8
0
 10
1414.139002744395
 20
1683.430667561803
 30
0.0
  0
SEQEND
  5
144
  8
0
  0
POLYLINE
  5
145
  8
0
 66
     1
 10
0.0
 20
0.0
 30
0.0
  0
VERTEX
  5
146
  8
0
 10
1414.139002744395
 20
1588.760872442249
 30
0.0
  0
VERTEX
  5
147
  8
0
 10
1406.792618051363
 20
1596.107257135282
 30
0.0
  0
VERTEX
  5
148
  8
0
 10
1414.139002744396
 20
1623.524338061625
 30
0.0
  0
SEQEND
  5
149
  8
0
  0
POLYLINE
  5
14A
  8
0
 66
     1
 10
0.0
 20
0.0
 30
0.0
  0
VERTEX
  5
14B
  8
0
 10
1383.864616173679
 20
1838.749865263335
 30
0.0
  0
VERTEX
  5
14C
  8
0
 10
1372.783421604806
 20
1827.668670694462
 30
0.0
  0
VERTEX
  5
14D
  8
0
 10
1387.920614890165
 20
1823.612671977976
 30
0.0
  0
VERTEX
  5
14E
  8
0
 10
1383.864616173679
 20
1808.475478692617
 30
0.0
  0
VERTEX
  5
14F
  8
0
 10
1399.001809459038
 20
1812.531477409103
 30
0.0
  0
VERTEX
  5
150
  8
0
 10
1403.057808175523
 20
1797.394284123744
 30
0.0
  0
VERTEX
  5
151
  8
0
 10
1414.139002744397
 20
1808.475478692617
 30
0.0
  0
SEQEND
  5
152
  8
0
  0
POLYLINE
  5
153
  8
0
 66
     1
 10
0.0
 20
0.0
 30
0.0
  0
VERTEX
  5
154
  8
0
 10
1414.139002744397
 20
1790.802168603529
 30
0.0
  0
VERTEX
  5
155
  8
0
 10
1406.792618051364
 20
1783.455783910496
 30
0.0
  0
VERTEX
  5
156
  8
0
 10
1414.139002744397
 20
1756.038702984153
 30
0.0
  0
SEQEND
  5
157
  8
0
  0
POLYLINE
  5
158
  8
0
 66
     1
 10
0.0
 20
0.0
 30
0.0
  0
VERTEX
  5
159
  8
0
 10
1366.19130608459
 20
1838.749865263335
 30
0.0
  0
VERTEX
  5
15A
  8
0
 10
1358.844921391558
 20
1831.403480570303
 30
0.0
  0
VERTEX
  5
15B
  8
0
 10
1331.42784046521
 20
1838.749865263335
 30
0.0
  0
SEQEND
  5
15C
  8
0
  0
POLYLINE
  5
15D
  8
0
 66
     1
 10
0.0
 20
0.0
 30
0.0
  0
VERTEX
  5
15E
  8
0
 10
1164.150009923312
 20
1838.749865263338
 30
0.0
  0
VERTEX
  5
15F
  8
0
 10
1171.496394616345
 20
1831.403480570306
 30
0.0
  0
VERTEX
  5
160
  8
0
 10
1198.913475542688
 20
1838.749865263339
 30
0.0
  0
SEQEND
  5
161
  8
0
  0
POLYLINE
  5
162
  8
0
 66
     1
 10
0.0
 20
0.0
 30
0.0
 70
     1
  0
VERTEX
  5
163
  8
0
 10
1214.017117893225
 20
1710.660674062897
 30
0.0
  0
VERTEX
  5
164
  8
0
 10
1209.438297597729
 20
1715.239494358394
 30
0.0
  0
VERTEX
  5
165
  8
0
 10
1200.212765075356
 20
1715.239494358394
 30
0.0
  0
VERTEX
  5
166
  8
0
 10
1214.670738910858
 20
1740.281439615984
 30
0.0
  0
VERTEX
  5
167
  8
0
 10
1239.712684168448
 20
1754.739413451485
 30
0.0
  0
VERTEX
  5
168
  8
0
 10
1239.712684168448
 20
1745.513880929111
 30
0.0
  0
VERTEX
  5
169
  8
0
 10
1244.291504463944
 20
1740.935060633615
 30
0.0
  0
VERTEX
  5
16A
  8
0
 10
1241.548183344352
 20
1730.696846833822
 30
0.0
  0
VERTEX
  5
16B
  8
0
 10
1217.925708684754
 20
1737.026469842086
 30
0.0
  0
VERTEX
  5
16C
  8
0
 10
1224.255331693018
 20
1713.403995182488
 30
0.0
  0
SEQEND
  5
16D
  8
0
  0
POLYLINE
  5
16E
  8
0
 66
     1
 10
0.0
 20
0.0
 30
0.0
 70
     1
  0
VERTEX
  5
16F
  8
0
 10
1193.86191211427
 20
1704.239494358393
 30
0.0
  0
VERTEX
  5
170
  8
0
 10
1203.467734849252
 20
1704.239494358393
 30
0.0
  0
VERTEX
  5
171
  8
0
 10
1217.925708684755
 20
1689.78152052289
 30
0.0
  0
VERTEX
  5
172
  8
0
 10
1203.467734849254
 20
1675.32354668739
 30
0.0
  0
VERTEX
  5
173
  8
0
 10
1193.861912114269
 20
1675.32354668739
 30
0.0
  0
VERTEX
  5
174
  8
0
 10
1185.514597028406
 20
1689.781520522892
 30
0.0
  0
SEQEND
  5
175
  8
0
  0
POLYLINE
  5
176
  8
0
 66
     1
 10
0.0
 20
0.0
 30
0.0
 70
     1
  0
VERTEX
  5
177
  8
0
 10
1244.291504463944
 20
1638.627980412167
 30
0.0
  0
VERTEX
  5
178
  8
0
 10
1239.712684168447
 20
1634.049160116672
 30
0.0
  0
VERTEX
  5
179
  8
0
 10
1239.712684168447
 20
1624.823627594298
 30
0.0
  0
VERTEX
  5
17A
  8
0
 10
1214.670738910857
 20
1639.281601429799
 30
0.0
  0
VERTEX
  5
17B
  8
0
 10
1200.212765075355
 20
1664.32354668739
 30
0.0
  0
VERTEX
  5
17C
  8
0
 10
1209.438297597731
 20
1664.32354668739
 30
0.0
  0
VERTEX
  5
17D
  8
0
 10
1214.017117893226
 20
1668.902366982885
 30
0.0
  0
VERTEX
  5
17E
  8
0
 10
1224.255331693019
 20
1666.159045863293
 30
0.0
  0
VERTEX
  5
17F
  8
0
 10
1217.925708684754
 20
1642.536571203695
 30
0.0
  0
VERTEX
  5
180
  8
0
 10
1241.548183344352
 20
1648.866194211959
 30
0.0
  0
SEQEND
  5
181
  8
0
  0
POLYLINE
  5
182
  8
0
 66
     1
 10
0.0
 20
0.0
 30
0.0
 70
     1
  0
VERTEX
  5
183
  8
0
 10
1279.628631839451
 20
1628.078597368194
 30
0.0
  0
VERTEX
  5
184
  8
0
 10
1279.62863183945
 20
1618.472774633207
 30
0.0
  0
VERTEX
  5
185
  8
0
 10
1265.170658003953
 20
1610.125459547345
 30
0.0
  0
VERTEX
  5
186
  8
0
 10
1250.712684168447
 20
1618.472774633211
 30
0.0
  0
VERTEX
  5
187
  8
0
 10
1250.712684168447
 20
1628.078597368194
 30
0.0
  0
VERTEX
  5
188
  8
0
 10
1265.17065800395
 20
1642.536571203696
 30
0.0
  0
SEQEND
  5
189
  8
0
  0
POLYLINE
  5
18A
  8
0
 66
     1
 10
0.0
 20
0.0
 30
0.0
 70
     1
  0
VERTEX
  5
18B
  8
0
 10
1336.479403893629
 20
1675.323546687388
 30
0.0
  0
VERTEX
  5
18C
  8
0
 10
1326.873581158647
 20
1675.323546687388
 30
0.0
  0
VERTEX
  5
18D
  8
0
 10
1312.415607323145
 20
1689.781520522891
 30
0.0
  0
VERTEX
  5
18E
  8
0
 10
1326.873581158647
 20
1704.239494358392
 30
0.0
  0
VERTEX
  5
18F
  8
0
 10
1336.47940389363
 20
1704.239494358392
 30
0.0
  0
VERTEX
  5
190
  8
0
 10
1344.826718979493
 20
1689.781520522891
 30
0.0
  0
SEQEND
  5
191
  8
0
  0
POLYLINE
  5
192
  8
0
 66
     1
 10
0.0
 20
0.0
 30
0.0
 70
     1
  0
VERTEX
  5
193
  8
0
 10
1250.712684168449
 20
1751.484443677587
 30
0.0
  0
VERTEX
  5
194
  8
0
 10
1250.712684168449
 20
1761.090266412571
 30
0.0
  0
VERTEX
  5
195
  8
0
 10
1265.170658003949
 20
1769.437581498434
 30
0.0
  0
VERTEX
  5
196
  8
0
 10
1279.628631839452
 20
1761.09026641257
 30
0.0
  0
VERTEX
  5
197
  8
0
 10
1279.628631839452
 20
1751.484443677588
 30
0.0
  0
VERTEX
  5
198
  8
0
 10
1265.170658003949
 20
1737.026469842086
 30
0.0
  0
SEQEND
  5
199
  8
0
  0
POLYLINE
  5
19A
  8
0
 66
     1
 10
0.0
 20
0.0
 30
0.0
 70
     1
  0
VERTEX
  5
19B
  8
0
 10
1286.049811543956
 20
1740.935060633615
 30
0.0
  0
VERTEX
  5
19C
  8
0
 10
1290.628631839451
 20
1745.513880929111
 30
0.0
  0
VERTEX
  5
19D
  8
0
 10
1290.628631839451
 20
1754.739413451484
 30
0.0
  0
VERTEX
  5
19E
  8
0
 10
1315.670577097042
 20
1740.281439615982
 30
0.0
  0
VERTEX
  5
19F
  8
0
 10
1330.128550932543
 20
1715.239494358392
 30
0.0
  0
VERTEX
  5
1A0
  8
0
 10
1320.90301841017
 20
1715.239494358393
 30
0.0
  0
VERTEX
  5
1A1
  8
0
 10
1316.324198114674
 20
1710.660674062896
 30
0.0
  0
VERTEX
  5
1A2
  8
0
 10
1306.085984314881
 20
1713.403995182488
 30
0.0
  0
VERTEX
  5
1A3
  8
0
 10
1312.415607323145
 20
1737.026469842086
 30
0.0
  0
VERTEX
  5
1A4
  8
0
 10
1288.793132663547
 20
1730.696846833822
 30
0.0
  0
SEQEND
  5
1A5
  8
0
  0
POLYLINE
  5
1A6
  8
0
 66
     1
 10
0.0
 20
0.0
 30
0.0
 70
     1
  0
VERTEX
  5
1A7
  8
0
 10
1357.528424901665
 20
1689.781520522889
 30
0.0
  0
VERTEX
  5
1A8
  8
0
 10
1349.181109815802
 20
1675.323546687388
 30
0.0
  0
VERTEX
  5
1A9
  8
0
 10
1378.097057486805
 20
1675.323546687388
 30
0.0
  0
VERTEX
  5
1AA
  8
0
 10
1403.139002744395
 20
1689.781520522889
 30
0.0
  0
VERTEX
  5
1AB
  8
0
 10
1378.097057486805
 20
1704.239494358391
 30
0.0
  0
VERTEX
  5
1AC
  8
0
 10
1349.181109815801
 20
1704.239494358392
 30
0.0
  0
SEQEND
  5
1AD
  8
0
  0
POLYLINE
  5
1AE
  8
0
 66
     1
 10
0.0
 20
0.0
 30
0.0
 70
     1
  0
VERTEX
  5
1AF
  8
0
 10
1265.170658003948
 20
1551.813175782445
 30
0.0
  0
VERTEX
  5
1B0
  8
0
 10
1250.712684168447
 20
1576.855121040036
 30
0.0
  0
VERTEX
  5
1B1
  8
0
 10
1250.712684168447
 20
1605.771068711038
 30
0.0
  0
VERTEX
  5
1B2
  8
0
 10
1265.170658003947
 20
1597.423753625175
 30
0.0
  0
VERTEX
  5
1B3
  8
0
 10
1279.62863183945
 20
1605.771068711039
 30
0.0
  0
VERTEX
  5
1B4
  8
0
 10
1279.62863183945
 20
1576.855121040035
 30
0.0
  0
SEQEND
  5
1B5
  8
0
  0
POLYLINE
  5
1B6
  8
0
 66
     1
 10
0.0
 20
0.0
 30
0.0
 70
     1
  0
VERTEX
  5
1B7
  8
0
 10
1127.202313263504
 20
1689.781520522893
 30
0.0
  0
VERTEX
  5
1B8
  8
0
 10
1152.244258521094
 20
1704.239494358394
 30
0.0
  0
VERTEX
  5
1B9
  8
0
 10
1181.160206192098
 20
1704.239494358393
 30
0.0
  0
VERTEX
  5
1BA
  8
0
 10
1172.812891106234
 20
1689.781520522892
 30
0.0
  0
VERTEX
  5
1BB
  8
0
 10
1181.160206192098
 20
1675.32354668739
 30
0.0
  0
VERTEX
  5
1BC
  8
0
 10
1152.244258521094
 20
1675.323546687391
 30
0.0
  0
SEQEND
  5
1BD
  8
0
  0
POLYLINE
  5
1BE
  8
0
 66
     1
 10
0.0
 20
0.0
 30
0.0
 70
     1
  0
VERTEX
  5
1BF
  8
0
 10
1265.170658003951
 20
1827.749865263336
 30
0.0
  0
VERTEX
  5
1C0
  8
0
 10
1279.628631839452
 20
1802.707920005746
 30
0.0
  0
VERTEX
  5
1C1
  8
0
 10
1279.628631839452
 20
1773.791972334742
 30
0.0
  0
VERTEX
  5
1C2
  8
0
 10
1265.170658003948
 20
1782.139287420607
 30
0.0
  0
VERTEX
  5
1C3
  8
0
 10
1250.712684168449
 20
1773.791972334744
 30
0.0
  0
VERTEX
  5
1C4
  8
0
 10
1250.712684168449
 20
1802.707920005746
 30
0.0
  0
SEQEND
  5
1C5
  8
0
  0
POLYLINE
  5
1C6
  8
0
 66
     1
 10
0.0
 20
0.0
 30
0.0
 70
     1
  0
VERTEX
  5
1C7
  8
0
 10
1239.712684168447
 20
1598.86049668699
 30
0.0
  0
VERTEX
  5
1C8
  8
0
 10
1239.712684168447
 20
1612.121921672125
 30
0.0
  0
VERTEX
  5
1C9
  8
0
 10
1228.227953240935
 20
1618.752634164695
 30
0.0
  0
VERTEX
  5
1CA
  8
0
 10
1196.851084835718
 20
1587.375765759479
 30
0.0
  0
SEQEND
  5
1CB
  8
0
  0
POLYLINE
  5
1CC
  8
0
 66
     1
 10
0.0
 20
0.0
 30
0.0
 70
     1
  0
VERTEX
  5
1CD
  8
0
 10
1302.113362766963
 20
1618.752634164694
 30
0.0
  0
VERTEX
  5
1CE
  8
0
 10
1290.628631839451
 20
1612.121921672124
 30
0.0
  0
VERTEX
  5
1CF
  8
0
 10
1290.628631839451
 20
1598.860496686988
 30
0.0
  0
VERTEX
  5
1D0
  8
0
 10
1333.490231172179
 20
1587.375765759476
 30
0.0
  0
SEQEND
  5
1D1
  8
0
  0
POLYLINE
  5
1D2
  8
0
 66
     1
 10
0.0
 20
0.0
 30
0.0
 70
     1
  0
VERTEX
  5
1D3
  8
0
 10
1396.588927713955
 20
1606.31094747269
 30
0.0
  0
VERTEX
  5
1D4
  8
0
 10
1380.17605620786
 20
1622.723818978786
 30
0.0
  0
VERTEX
  5
1D5
  8
0
 10
1370.639155017733
 20
1658.316018767107
 30
0.0
  0
VERTEX
  5
1D6
  8
0
 10
1381.044498603547
 20
1664.323546687388
 30
0.0
  0
VERTEX
  5
1D7
  8
0
 10
1393.05955444411
 20
1664.323546687387
 30
0.0
  0
VERTEX
  5
1D8
  8
0
 10
1402.596455634237
 20
1628.731346899068
 30
0.0
  0
SEQEND
  5
1D9
  8
0
  0
POLYLINE
  5
1DA
  8
0
 66
     1
 10
0.0
 20
0.0
 30
0.0
 70
     1
  0
VERTEX
  5
1DB
  8
0
 10
1366.191306084588
 20
1588.760872442251
 30
0.0
  0
VERTEX
  5
1DC
  8
0
 10
1343.770906658211
 20
1594.768400362532
 30
0.0
  0
VERTEX
  5
1DD
  8
0
 10
1317.715608060018
 20
1620.823698960726
 30
0.0
  0
VERTEX
  5
1DE
  8
0
 10
1323.723135980299
 20
1631.22904254654
 30
0.0
  0
VERTEX
  5
1DF
  8
0
 10
1334.128479566115
 20
1637.236570466821
 30
0.0
  0
VERTEX
  5
1E0
  8
0
 10
1360.183778164306
 20
1611.181271868629
 30
0.0
  0
SEQEND
  5
1E1
  8
0
  0
POLYLINE
  5
1E2
  8
0
 66
     1
 10
0.0
 20
0.0
 30
0.0
 70
     1
  0
VERTEX
  5
1E3
  8
0
 10
1348.641231054147
 20
1558.363250812884
 30
0.0
  0
VERTEX
  5
1E4
  8
0
 10
1326.220831627771
 20
1552.355722892604
 30
0.0
  0
VERTEX
  5
1E5
  8
0
 10
1290.62863183945
 20
1561.892624082732
 30
0.0
  0
VERTEX
  5
1E6
  8
0
 10
1290.62863183945
 20
1573.907679923293
 30
0.0
  0
VERTEX
  5
1E7
  8
0
 10
1296.636159759732
 20
1584.313023509109
 30
0.0
  0
VERTEX
  5
1E8
  8
0
 10
1332.228359548051
 20
1574.776122318981
 30
0.0
  0
SEQEND
  5
1E9
  8
0
  0
POLYLINE
  5
1EA
  8
0
 66
     1
 10
0.0
 20
0.0
 30
0.0
 70
     1
  0
VERTEX
  5
1EB
  8
0
 10
1392.854117838115
 20
1592.372447259441
 30
0.0
  0
VERTEX
  5
1EC
  8
0
 10
1390.165154414491
 20
1582.337099142786
 30
0.0
  0
VERTEX
  5
1ED
  8
0
 10
1380.129806297836
 20
1585.02606256641
 30
0.0
  0
VERTEX
  5
1EE
  8
0
 10
1372.783421604804
 20
1612.443143492753
 30
0.0
  0
SEQEND
  5
1EF
  8
0
  0
POLYLINE
  5
1F0
  8
0
 66
     1
 10
0.0
 20
0.0
 30
0.0
 70
     1
  0
VERTEX
  5
1F1
  8
0
 10
1369.926115960428
 20
1574.822372229003
 30
0.0
  0
VERTEX
  5
1F2
  8
0
 10
1372.615079384051
 20
1564.787024112347
 30
0.0
  0
VERTEX
  5
1F3
  8
0
 10
1362.579731267396
 20
1562.098060688724
 30
0.0
  0
VERTEX
  5
1F4
  8
0
 10
1342.509035034085
 20
1582.168756922036
 30
0.0
  0
SEQEND
  5
1F5
  8
0
  0
POLYLINE
  5
1F6
  8
0
 66
     1
 10
0.0
 20
0.0
 30
0.0
 70
     1
  0
VERTEX
  5
1F7
  8
0
 10
1356.091681839855
 20
1664.323546687387
 30
0.0
  0
VERTEX
  5
1F8
  8
0
 10
1342.830256854716
 20
1664.323546687388
 30
0.0
  0
VERTEX
  5
1F9
  8
0
 10
1336.199544362147
 20
1652.838815759878
 30
0.0
  0
VERTEX
  5
1FA
  8
0
 10
1367.576412767365
 20
1621.46194735466
 30
0.0
  0
SEQEND
  5
1FB
  8
0
  0
POLYLINE
  5
1FC
  8
0
 66
     1
 10
0.0
 20
0.0
 30
0.0
 70
     1
  0
VERTEX
  5
1FD
  8
0
 10
1367.576412767365
 20
1758.101093691119
 30
0.0
  0
VERTEX
  5
1FE
  8
0
 10
1336.199544362147
 20
1726.724225285901
 30
0.0
  0
VERTEX
  5
1FF
  8
0
 10
1342.830256854715
 20
1715.239494358392
 30
0.0
  0
VERTEX
  5
200
  8
0
 10
1356.091681839854
 20
1715.239494358392
 30
0.0
  0
SEQEND
  5
201
  8
0
  0
POLYLINE
  5
202
  8
0
 66
     1
 10
0.0
 20
0.0
 30
0.0
 70
     1
  0
VERTEX
  5
203
  8
0
 10
1396.588927713957
 20
1773.252093573089
 30
0.0
  0
VERTEX
  5
204
  8
0
 10
1380.176056207861
 20
1756.839222066993
 30
0.0
  0
VERTEX
  5
205
  8
0
 10
1370.639155017733
 20
1721.247022278672
 30
0.0
  0
VERTEX
  5
206
  8
0
 10
1381.044498603547
 20
1715.239494358391
 30
0.0
  0
VERTEX
  5
207
  8
0
 10
1393.059554444111
 20
1715.239494358391
 30
0.0
  0
VERTEX
  5
208
  8
0
 10
1402.596455634238
 20
1750.831694146711
 30
0.0
  0
SEQEND
  5
209
  8
0
  0
POLYLINE
  5
20A
  8
0
 66
     1
 10
0.0
 20
0.0
 30
0.0
 70
     1
  0
VERTEX
  5
20B
  8
0
 10
1366.19130608459
 20
1790.802168603528
 30
0.0
  0
VERTEX
  5
20C
  8
0
 10
1343.770906658213
 20
1784.794640683248
 30
0.0
  0
VERTEX
  5
20D
  8
0
 10
1317.71560806002
 20
1758.739342085054
 30
0.0
  0
VERTEX
  5
20E
  8
0
 10
1323.7231359803
 20
1748.33399849924
 30
0.0
  0
VERTEX
  5
20F
  8
0
 10
1334.128479566116
 20
1742.326470578959
 30
0.0
  0
VERTEX
  5
210
  8
0
 10
1360.183778164308
 20
1768.381769177151
 30
0.0
  0
SEQEND
  5
211
  8
0
  0
POLYLINE
  5
212
  8
0
 66
     1
 10
0.0
 20
0.0
 30
0.0
 70
     1
  0
VERTEX
  5
213
  8
0
 10
1348.64123105415
 20
1821.199790232896
 30
0.0
  0
VERTEX
  5
214
  8
0
 10
1326.220831627774
 20
1827.207318153176
 30
0.0
  0
VERTEX
  5
215
  8
0
 10
1290.628631839452
 20
1817.670416963049
 30
0.0
  0
VERTEX
  5
216
  8
0
 10
1290.628631839452
 20
1805.655361122488
 30
0.0
  0
VERTEX
  5
217
  8
0
 10
1296.636159759734
 20
1795.250017536672
 30
0.0
  0
VERTEX
  5
218
  8
0
 10
1332.228359548053
 20
1804.786918726799
 30
0.0
  0
SEQEND
  5
219
  8
0
  0
POLYLINE
  5
21A
  8
0
 66
     1
 10
0.0
 20
0.0
 30
0.0
 70
     1
  0
VERTEX
  5
21B
  8
0
 10
1392.854117838117
 20
1787.190593786337
 30
0.0
  0
VERTEX
  5
21C
  8
0
 10
1390.165154414493
 20
1797.225941902992
 30
0.0
  0
VERTEX
  5
21D
  8
0
 10
1380.129806297838
 20
1794.536978479369
 30
0.0
  0
VERTEX
  5
21E
  8
0
 10
1372.783421604805
 20
1767.119897553026
 30
0.0
  0
SEQEND
  5
21F
  8
0
  0
POLYLINE
  5
220
  8
0
 66
     1
 10
0.0
 20
0.0
 30
0.0
 70
     1
  0
VERTEX
  5
221
  8
0
 10
1369.926115960431
 20
1804.740668816776
 30
0.0
  0
VERTEX
  5
222
  8
0
 10
1372.615079384054
 20
1814.776016933431
 30
0.0
  0
VERTEX
  5
223
  8
0
 10
1362.579731267398
 20
1817.464980357055
 30
0.0
  0
VERTEX
  5
224
  8
0
 10
1342.509035034088
 20
1797.394284123744
 30
0.0
  0
SEQEND
  5
225
  8
0
  0
POLYLINE
  5
226
  8
0
 66
     1
 10
0.0
 20
0.0
 30
0.0
 70
     1
  0
VERTEX
  5
227
  8
0
 10
1174.249634168048
 20
1715.239494358394
 30
0.0
  0
VERTEX
  5
228
  8
0
 10
1187.511059153184
 20
1715.239494358394
 30
0.0
  0
VERTEX
  5
229
  8
0
 10
1194.141771645754
 20
1726.724225285906
 30
0.0
  0
VERTEX
  5
22A
  8
0
 10
1162.764903240537
 20
1758.101093691123
 30
0.0
  0
SEQEND
  5
22B
  8
0
  0
POLYLINE
  5
22C
  8
0
 66
     1
 10
0.0
 20
0.0
 30
0.0
 70
     1
  0
VERTEX
  5
22D
  8
0
 10
1194.141771645751
 20
1652.838815759881
 30
0.0
  0
VERTEX
  5
22E
  8
0
 10
1187.511059153183
 20
1664.32354668739
 30
0.0
  0
VERTEX
  5
22F
  8
0
 10
1174.249634168044
 20
1664.32354668739
 30
0.0
  0
VERTEX
  5
230
  8
0
 10
1162.764903240533
 20
1621.461947354663
 30
0.0
  0
SEQEND
  5
231
  8
0
  0
POLYLINE
  5
232
  8
0
 66
     1
 10
0.0
 20
0.0
 30
0.0
 70
     1
  0
VERTEX
  5
233
  8
0
 10
1164.150009923309
 20
1588.760872442254
 30
0.0
  0
VERTEX
  5
234
  8
0
 10
1186.570409349686
 20
1594.768400362535
 30
0.0
  0
VERTEX
  5
235
  8
0
 10
1212.625707947879
 20
1620.823698960728
 30
0.0
  0
VERTEX
  5
236
  8
0
 10
1206.618180027599
 20
1631.229042546542
 30
0.0
  0
VERTEX
  5
237
  8
0
 10
1196.212836441783
 20
1637.236570466824
 30
0.0
  0
VERTEX
  5
238
  8
0
 10
1170.157537843591
 20
1611.181271868632
 30
0.0
  0
SEQEND
  5
239
  8
0
  0
POLYLINE
  5
23A
  8
0
 66
     1
 10
0.0
 20
0.0
 30
0.0
 70
     1
  0
VERTEX
  5
23B
  8
0
 10
1181.700084953749
 20
1558.363250812886
 30
0.0
  0
VERTEX
  5
23C
  8
0
 10
1204.120484380125
 20
1552.355722892606
 30
0.0
  0
VERTEX
  5
23D
  8
0
 10
1239.712684168447
 20
1561.892624082733
 30
0.0
  0
VERTEX
  5
23E
  8
0
 10
1239.712684168447
 20
1573.907679923294
 30
0.0
  0
VERTEX
  5
23F
  8
0
 10
1233.705156248165
 20
1584.31302350911
 30
0.0
  0
VERTEX
  5
240
  8
0
 10
1198.112956459845
 20
1574.776122318983
 30
0.0
  0
SEQEND
  5
241
  8
0
  0
POLYLINE
  5
242
  8
0
 66
     1
 10
0.0
 20
0.0
 30
0.0
 70
     1
  0
VERTEX
  5
243
  8
0
 10
1133.752388293942
 20
1606.310947472693
 30
0.0
  0
VERTEX
  5
244
  8
0
 10
1150.165259800038
 20
1622.723818978789
 30
0.0
  0
VERTEX
  5
245
  8
0
 10
1159.702160990166
 20
1658.31601876711
 30
0.0
  0
VERTEX
  5
246
  8
0
 10
1149.296817404352
 20
1664.323546687391
 30
0.0
  0
VERTEX
  5
247
  8
0
 10
1137.281761563788
 20
1664.323546687391
 30
0.0
  0
VERTEX
  5
248
  8
0
 10
1127.744860373661
 20
1628.731346899071
 30
0.0
  0
SEQEND
  5
249
  8
0
  0
POLYLINE
  5
24A
  8
0
 66
     1
 10
0.0
 20
0.0
 30
0.0
 70
     1
  0
VERTEX
  5
24B
  8
0
 10
1137.487198169782
 20
1592.372447259445
 30
0.0
  0
VERTEX
  5
24C
  8
0
 10
1140.176161593405
 20
1582.33709914279
 30
0.0
  0
VERTEX
  5
24D
  8
0
 10
1150.211509710061
 20
1585.026062566413
 30
0.0
  0
VERTEX
  5
24E
  8
0
 10
1157.557894403093
 20
1612.443143492756
 30
0.0
  0
SEQEND
  5
24F
  8
0
  0
POLYLINE
  5
250
  8
0
 66
     1
 10
0.0
 20
0.0
 30
0.0
 70
     1
  0
VERTEX
  5
251
  8
0
 10
1160.415200047468
 20
1574.822372229006
 30
0.0
  0
VERTEX
  5
252
  8
0
 10
1157.726236623845
 20
1564.787024112351
 30
0.0
  0
VERTEX
  5
253
  8
0
 10
1167.7615847405
 20
1562.098060688727
 30
0.0
  0
VERTEX
  5
254
  8
0
 10
1187.832280973811
 20
1582.168756922038
 30
0.0
  0
SEQEND
  5
255
  8
0
  0
POLYLINE
  5
256
  8
0
 66
     1
 10
0.0
 20
0.0
 30
0.0
 70
     1
  0
VERTEX
  5
257
  8
0
 10
1290.628631839452
 20
1780.702544358792
 30
0.0
  0
VERTEX
  5
258
  8
0
 10
1290.628631839451
 20
1767.441119373656
 30
0.0
  0
VERTEX
  5
259
  8
0
 10
1302.113362766964
 20
1760.810406881087
 30
0.0
  0
VERTEX
  5
25A
  8
0
 10
1333.490231172181
 20
1792.187275286303
 30
0.0
  0
SEQEND
  5
25B
  8
0
  0
POLYLINE
  5
25C
  8
0
 66
     1
 10
0.0
 20
0.0
 30
0.0
 70
     1
  0
VERTEX
  5
25D
  8
0
 10
1228.227953240939
 20
1760.810406881089
 30
0.0
  0
VERTEX
  5
25E
  8
0
 10
1239.712684168448
 20
1767.441119373657
 30
0.0
  0
VERTEX
  5
25F
  8
0
 10
1239.712684168449
 20
1780.702544358796
 30
0.0
  0
VERTEX
  5
260
  8
0
 10
1196.851084835721
 20
1792.187275286307
 30
0.0
  0
SEQEND
  5
261
  8
0
  0
POLYLINE
  5
262
  8
0
 66
     1
 10
0.0
 20
0.0
 30
0.0
 70
     1
  0
VERTEX
  5
263
  8
0
 10
1181.700084953752
 20
1821.199790232899
 30
0.0
  0
VERTEX
  5
264
  8
0
 10
1198.112956459848
 20
1804.786918726803
 30
0.0
  0
VERTEX
  5
265
  8
0
 10
1233.705156248169
 20
1795.250017536675
 30
0.0
  0
VERTEX
  5
266
  8
0
 10
1239.712684168449
 20
1805.655361122489
 30
0.0
  0
VERTEX
  5
267
  8
0
 10
1239.712684168449
 20
1817.670416963052
 30
0.0
  0
VERTEX
  5
268
  8
0
 10
1204.12048438013
 20
1827.207318153179
 30
0.0
  0
SEQEND
  5
269
  8
0
  0
POLYLINE
  5
26A
  8
0
 66
     1
 10
0.0
 20
0.0
 30
0.0
 70
     1
  0
VERTEX
  5
26B
  8
0
 10
1164.150009923312
 20
1790.802168603531
 30
0.0
  0
VERTEX
  5
26C
  8
0
 10
1170.157537843593
 20
1768.381769177154
 30
0.0
  0
VERTEX
  5
26D
  8
0
 10
1196.212836441786
 20
1742.326470578961
 30
0.0
  0
VERTEX
  5
26E
  8
0
 10
1206.6181800276
 20
1748.333998499241
 30
0.0
  0
VERTEX
  5
26F
  8
0
 10
1212.625707947882
 20
1758.739342085058
 30
0.0
  0
VERTEX
  5
270
  8
0
 10
1186.57040934969
 20
1784.794640683249
 30
0.0
  0
SEQEND
  5
271
  8
0
  0
POLYLINE
  5
272
  8
0
 66
     1
 10
0.0
 20
0.0
 30
0.0
 70
     1
  0
VERTEX
  5
273
  8
0
 10
1133.752388293945
 20
1773.252093573092
 30
0.0
  0
VERTEX
  5
274
  8
0
 10
1127.744860373664
 20
1750.831694146715
 30
0.0
  0
VERTEX
  5
275
  8
0
 10
1137.281761563792
 20
1715.239494358394
 30
0.0
  0
VERTEX
  5
276
  8
0
 10
1149.296817404352
 20
1715.239494358394
 30
0.0
  0
VERTEX
  5
277
  8
0
 10
1159.702160990169
 20
1721.247022278675
 30
0.0
  0
VERTEX
  5
278
  8
0
 10
1150.165259800041
 20
1756.839222066995
 30
0.0
  0
SEQEND
  5
279
  8
0
  0
POLYLINE
  5
27A
  8
0
 66
     1
 10
0.0
 20
0.0
 30
0.0
 70
     1
  0
VERTEX
  5
27B
  8
0
 10
1167.761584740504
 20
1817.464980357058
 30
0.0
  0
VERTEX
  5
27C
  8
0
 10
1157.726236623848
 20
1814.776016933435
 30
0.0
  0
VERTEX
  5
27D
  8
0
 10
1160.415200047471
 20
1804.740668816779
 30
0.0
  0
VERTEX
  5
27E
  8
0
 10
1187.832280973815
 20
1797.394284123747
 30
0.0
  0
SEQEND
  5
27F
  8
0
  0
POLYLINE
  5
280
  8
0
 66
     1
 10
0.0
 20
0.0
 30
0.0
 70
     1
  0
VERTEX
  5
281
  8
0
 10
1150.211509710064
 20
1794.536978479372
 30
0.0
  0
VERTEX
  5
282
  8
0
 10
1140.176161593409
 20
1797.225941902995
 30
0.0
  0
VERTEX
  5
283
  8
0
 10
1137.487198169786
 20
1787.19059378634
 30
0.0
  0
VERTEX
  5
284
  8
0
 10
1157.557894403097
 20
1767.119897553029
 30
0.0
  0
SEQEND
  5
285
  8
0
  0
POLYLINE
  5
286
  8
0
 66
     1
 10
0.0
 20
0.0
 30
0.0
 70
     1
  0
VERTEX
  5
287
  8
0
 10
1290.628631839451
 20
1624.823627594295
 30
0.0
  0
VERTEX
  5
288
  8
0
 10
1290.628631839453
 20
1634.049160116669
 30
0.0
  0
VERTEX
  5
289
  8
0
 10
1286.049811543956
 20
1638.627980412166
 30
0.0
  0
VERTEX
  5
28A
  8
0
 10
1288.793132663548
 20
1648.866194211959
 30
0.0
  0
VERTEX
  5
28B
  8
0
 10
1312.415607323145
 20
1642.536571203695
 30
0.0
  0
VERTEX
  5
28C
  8
0
 10
1306.085984314881
 20
1666.159045863293
 30
0.0
  0
VERTEX
  5
28D
  8
0
 10
1316.324198114674
 20
1668.902366982884
 30
0.0
  0
VERTEX
  5
28E
  8
0
 10
1320.90301841017
 20
1664.323546687388
 30
0.0
  0
VERTEX
  5
28F
  8
0
 10
1330.128550932543
 20
1664.323546687388
 30
0.0
  0
VERTEX
  5
290
  8
0
 10
1315.670577097041
 20
1639.281601429798
 30
0.0
  0
SEQEND
  5
291
  8
0
  0
POLYLINE
  5
292
  8
0
 66
     1
 10
0.0
 20
0.0
 30
0.0
 70
     1
  0
VERTEX
  5
293
  8
0
 10
1295.445044574667
 20
1689.781520522891
 30
0.0
  0
VERTEX
  5
294
  8
0
 10
1306.526239143541
 20
1700.862715091764
 30
0.0
  0
VERTEX
  5
295
  8
0
 10
1291.389045858182
 20
1704.91871380825
 30
0.0
  0
VERTEX
  5
296
  8
0
 10
1295.445044574668
 20
1720.055907093609
 30
0.0
  0
VERTEX
  5
297
  8
0
 10
1280.307851289308
 20
1715.999908377123
 30
0.0
  0
VERTEX
  5
298
  8
0
 10
1276.251852572823
 20
1731.137101662482
 30
0.0
  0
VERTEX
  5
299
  8
0
 10
1265.170658003949
 20
1720.055907093608
 30
0.0
  0
VERTEX
  5
29A
  8
0
 10
1254.089463435076
 20
1731.137101662482
 30
0.0
  0
VERTEX
  5
29B
  8
0
 10
1250.03346471859
 20
1715.999908377122
 30
0.0
  0
VERTEX
  5
29C
  8
0
 10
1234.896271433232
 20
1720.055907093608
 30
0.0
  0
VERTEX
  5
29D
  8
0
 10
1238.952270149718
 20
1704.918713808249
 30
0.0
  0
VERTEX
  5
29E
  8
0
 10
1223.815076864358
 20
1700.862715091764
 30
0.0
  0
VERTEX
  5
29F
  8
0
 10
1234.896271433232
 20
1689.78152052289
 30
0.0
  0
VERTEX
  5
2A0
  8
0
 10
1223.815076864359
 20
1678.700325954017
 30
0.0
  0
VERTEX
  5
2A1
  8
0
 10
1238.952270149718
 20
1674.644327237531
 30
0.0
  0
VERTEX
  5
2A2
  8
0
 10
1234.896271433232
 20
1659.507133952173
 30
0.0
  0
VERTEX
  5
2A3
  8
0
 10
1250.033464718591
 20
1663.563132668659
 30
0.0
  0
VERTEX
  5
2A4
  8
0
 10
1254.089463435076
 20
1648.4259393833
 30
0.0
  0
VERTEX
  5
2A5
  8
0
 10
1265.17065800395
 20
1659.507133952173
 30
0.0
  0
VERTEX
  5
2A6
  8
0
 10
1276.251852572823
 20
1648.425939383299
 30
0.0
  0
VERTEX
  5
2A7
  8
0
 10
1280.307851289309
 20
1663.563132668659
 30
0.0
  0
VERTEX
  5
2A8
  8
0
 10
1295.445044574668
 20
1659.507133952173
 30
0.0
  0
VERTEX
  5
2A9
  8
0
 10
1291.389045858182
 20
1674.644327237532
 30
0.0
  0
VERTEX
  5
2AA
  8
0
 10
1306.526239143541
 20
1678.700325954017
 30
0.0
  0
SEQEND
  5
2AB
  8
0
  0
POLYLINE
  5
2AC
  8
0
 66
     1
 10
0.0
 20
0.0
 30
0.0
  0
VERTEX
  5
2AD
  8
0
 10
818.2656237826106
 20
1745.624685309276
 30
0.0
  0
VERTEX
  5
2AE
  8
0
 10
829.7503547101212
 20
1702.763085976548
 30
0.0
  0
VERTEX
  5
2AF
  8
0
 10
818.2656237826089
 20
1696.132373483979
 30
0.0
  0
SEQEND
  5
2B0
  8
0
  0
POLYLINE
  5
2B1
  8
0
 66
     1
 10
0.0
 20
0.0
 30
0.0
  0
VERTEX
  5
2B2
  8
0
 10
818.2656237826089
 20
1683.430667561807
 30
0.0
  0
VERTEX
  5
2B3
  8
0
 10
829.7503547101182
 20
1676.799955069239
 30
0.0
  0
VERTEX
  5
2B4
  8
0
 10
818.2656237826071
 20
1633.93835573651
 30
0.0
  0
SEQEND
  5
2B5
  8
0
  0
POLYLINE
  5
2B6
  8
0
 66
     1
 10
0.0
 20
0.0
 30
0.0
  0
VERTEX
  5
2B7
  8
0
 10
1023.077133309439
 20
1838.749865263335
 30
0.0
  0
VERTEX
  5
2B8
  8
0
 10
980.2155339767114
 20
1827.265134335824
 30
0.0
  0
VERTEX
  5
2B9
  8
0
 10
973.5848214841433
 20
1838.749865263335
 30
0.0
  0
SEQEND
  5
2BA
  8
0
  0
POLYLINE
  5
2BB
  8
0
 66
     1
 10
0.0
 20
0.0
 30
0.0
  0
VERTEX
  5
2BC
  8
0
 10
960.8831155619691
 20
1838.749865263335
 30
0.0
  0
VERTEX
  5
2BD
  8
0
 10
954.2524030694022
 20
1827.265134335827
 30
0.0
  0
VERTEX
  5
2BE
  8
0
 10
911.3908037366734
 20
1838.749865263339
 30
0.0
  0
SEQEND
  5
2BF
  8
0
  0
POLYLINE
  5
2C0
  8
0
 66
     1
 10
0.0
 20
0.0
 30
0.0
  0
VERTEX
  5
2C1
  8
0
 10
818.2656237826072
 20
1623.524338061634
 30
0.0
  0
VERTEX
  5
2C2
  8
0
 10
825.6120084756396
 20
1596.107257135286
 30
0.0
  0
VERTEX
  5
2C3
  8
0
 10
818.2656237826072
 20
1588.760872442253
 30
0.0
  0
SEQEND
  5
2C4
  8
0
  0
POLYLINE
  5
2C5
  8
0
 66
     1
 10
0.0
 20
0.0
 30
0.0
  0
VERTEX
  5
2C6
  8
0
 10
818.2656237826108
 20
1808.475478692621
 30
0.0
  0
VERTEX
  5
2C7
  8
0
 10
829.3468183514838
 20
1797.394284123747
 30
0.0
  0
VERTEX
  5
2C8
  8
0
 10
833.4028170679697
 20
1812.531477409106
 30
0.0
  0
VERTEX
  5
2C9
  8
0
 10
848.5400103533286
 20
1808.47547869262
 30
0.0
  0
VERTEX
  5
2CA
  8
0
 10
844.4840116368424
 20
1823.61267197798
 30
0.0
  0
VERTEX
  5
2CB
  8
0
 10
859.6212049222017
 20
1827.668670694465
 30
0.0
  0
VERTEX
  5
2CC
  8
0
 10
848.5400103533321
 20
1838.749865263335
 30
0.0
  0
SEQEND
  5
2CD
  8
0
  0
POLYLINE
  5
2CE
  8
0
 66
     1
 10
0.0
 20
0.0
 30
0.0
  0
VERTEX
  5
2CF
  8
0
 10
818.2656237826106
 20
1756.038702984156
 30
0.0
  0
VERTEX
  5
2D0
  8
0
 10
825.6120084756429
 20
1783.455783910499
 30
0.0
  0
VERTEX
  5
2D1
  8
0
 10
818.2656237826104
 20
1790.802168603532
 30
0.0
  0
SEQEND
  5
2D2
  8
0
  0
POLYLINE
  5
2D3
  8
0
 66
     1
 10
0.0
 20
0.0
 30
0.0
  0
VERTEX
  5
2D4
  8
0
 10
1068.254616603695
 20
1838.749865263335
 30
0.0
  0
VERTEX
  5
2D5
  8
0
 10
1060.908231910663
 20
1831.403480570303
 30
0.0
  0
VERTEX
  5
2D6
  8
0
 10
1033.491150984315
 20
1838.749865263335
 30
0.0
  0
SEQEND
  5
2D7
  8
0
  0
POLYLINE
  5
2D8
  8
0
 66
     1
 10
0.0
 20
0.0
 30
0.0
  0
VERTEX
  5
2D9
  8
0
 10
866.2133204424171
 20
1838.749865263338
 30
0.0
  0
VERTEX
  5
2DA
  8
0
 10
873.5597051354498
 20
1831.403480570306
 30
0.0
  0
VERTEX
  5
2DB
  8
0
 10
900.9767860617933
 20
1838.749865263339
 30
0.0
  0
SEQEND
  5
2DC
  8
0
  0
POLYLINE
  5
2DD
  8
0
 66
     1
 10
0.0
 20
0.0
 30
0.0
 70
     1
  0
VERTEX
  5
2DE
  8
0
 10
916.0804284123305
 20
1710.660674062897
 30
0.0
  0
VERTEX
  5
2DF
  8
0
 10
911.5016081168345
 20
1715.239494358394
 30
0.0
  0
VERTEX
  5
2E0
  8
0
 10
902.2760755944614
 20
1715.239494358394
 30
0.0
  0
VERTEX
  5
2E1
  8
0
 10
916.7340494299631
 20
1740.281439615984
 30
0.0
  0
VERTEX
  5
2E2
  8
0
 10
941.7759946875533
 20
1754.739413451485
 30
0.0
  0
VERTEX
  5
2E3
  8
0
 10
941.7759946875531
 20
1745.513880929111
 30
0.0
  0
VERTEX
  5
2E4
  8
0
 10
946.354814983049
 20
1740.935060633615
 30
0.0
  0
VERTEX
  5
2E5
  8
0
 10
943.6114938634572
 20
1730.696846833822
 30
0.0
  0
VERTEX
  5
2E6
  8
0
 10
919.9890192038596
 20
1737.026469842086
 30
0.0
  0
VERTEX
  5
2E7
  8
0
 10
926.3186422121237
 20
1713.403995182488
 30
0.0
  0
SEQEND
  5
2E8
  8
0
  0
POLYLINE
  5
2E9
  8
0
 66
     1
 10
0.0
 20
0.0
 30
0.0
 70
     1
  0
VERTEX
  5
2EA
  8
0
 10
895.9252226333749
 20
1704.239494358393
 30
0.0
  0
VERTEX
  5
2EB
  8
0
 10
905.531045368357
 20
1704.239494358393
 30
0.0
  0
VERTEX
  5
2EC
  8
0
 10
919.98901920386
 20
1689.78152052289
 30
0.0
  0
VERTEX
  5
2ED
  8
0
 10
905.5310453683592
 20
1675.32354668739
 30
0.0
  0
VERTEX
  5
2EE
  8
0
 10
895.9252226333745
 20
1675.32354668739
 30
0.0
  0
VERTEX
  5
2EF
  8
0
 10
887.5779075475114
 20
1689.781520522892
 30
0.0
  0
SEQEND
  5
2F0
  8
0
  0
POLYLINE
  5
2F1
  8
0
 66
     1
 10
0.0
 20
0.0
 30
0.0
 70
     1
  0
VERTEX
  5
2F2
  8
0
 10
946.3548149830488
 20
1638.627980412167
 30
0.0
  0
VERTEX
  5
2F3
  8
0
 10
941.775994687552
 20
1634.049160116672
 30
0.0
  0
VERTEX
  5
2F4
  8
0
 10
941.7759946875519
 20
1624.823627594298
 30
0.0
  0
VERTEX
  5
2F5
  8
0
 10
916.734049429962
 20
1639.281601429799
 30
0.0
  0
VERTEX
  5
2F6
  8
0
 10
902.2760755944605
 20
1664.32354668739
 30
0.0
  0
VERTEX
  5
2F7
  8
0
 10
911.5016081168358
 20
1664.32354668739
 30
0.0
  0
VERTEX
  5
2F8
  8
0
 10
916.0804284123308
 20
1668.902366982885
 30
0.0
  0
VERTEX
  5
2F9
  8
0
 10
926.3186422121239
 20
1666.159045863293
 30
0.0
  0
VERTEX
  5
2FA
  8
0
 10
919.9890192038597
 20
1642.536571203695
 30
0.0
  0
VERTEX
  5
2FB
  8
0
 10
943.6114938634576
 20
1648.866194211959
 30
0.0
  0
SEQEND
  5
2FC
  8
0
  0
POLYLINE
  5
2FD
  8
0
 66
     1
 10
0.0
 20
0.0
 30
0.0
 70
     1
  0
VERTEX
  5
2FE
  8
0
 10
981.6919423585559
 20
1628.078597368194
 30
0.0
  0
VERTEX
  5
2FF
  8
0
 10
981.6919423585555
 20
1618.472774633207
 30
0.0
  0
VERTEX
  5
300
  8
0
 10
967.2339685230583
 20
1610.125459547345
 30
0.0
  0
VERTEX
  5
301
  8
0
 10
952.7759946875524
 20
1618.472774633211
 30
0.0
  0
VERTEX
  5
302
  8
0
 10
952.7759946875524
 20
1628.078597368194
 30
0.0
  0
VERTEX
  5
303
  8
0
 10
967.233968523055
 20
1642.536571203696
 30
0.0
  0
SEQEND
  5
304
  8
0
  0
POLYLINE
  5
305
  8
0
 66
     1
 10
0.0
 20
0.0
 30
0.0
 70
     1
  0
VERTEX
  5
306
  8
0
 10
1038.542714412734
 20
1675.323546687388
 30
0.0
  0
VERTEX
  5
307
  8
0
 10
1028.936891677753
 20
1675.323546687388
 30
0.0
  0
VERTEX
  5
308
  8
0
 10
1014.47891784225
 20
1689.781520522891
 30
0.0
  0
VERTEX
  5
309
  8
0
 10
1028.936891677752
 20
1704.239494358392
 30
0.0
  0
VERTEX
  5
30A
  8
0
 10
1038.542714412735
 20
1704.239494358392
 30
0.0
  0
VERTEX
  5
30B
  8
0
 10
1046.890029498598
 20
1689.781520522891
 30
0.0
  0
SEQEND
  5
30C
  8
0
  0
POLYLINE
  5
30D
  8
0
 66
     1
 10
0.0
 20
0.0
 30
0.0
 70
     1
  0
VERTEX
  5
30E
  8
0
 10
952.7759946875536
 20
1751.484443677587
 30
0.0
  0
VERTEX
  5
30F
  8
0
 10
952.7759946875539
 20
1761.090266412571
 30
0.0
  0
VERTEX
  5
310
  8
0
 10
967.2339685230545
 20
1769.437581498434
 30
0.0
  0
VERTEX
  5
311
  8
0
 10
981.6919423585571
 20
1761.09026641257
 30
0.0
  0
VERTEX
  5
312
  8
0
 10
981.6919423585571
 20
1751.484443677588
 30
0.0
  0
VERTEX
  5
313
  8
0
 10
967.2339685230547
 20
1737.026469842086
 30
0.0
  0
SEQEND
  5
314
  8
0
  0
POLYLINE
  5
315
  8
0
 66
     1
 10
0.0
 20
0.0
 30
0.0
 70
     1
  0
VERTEX
  5
316
  8
0
 10
988.1131220630609
 20
1740.935060633615
 30
0.0
  0
VERTEX
  5
317
  8
0
 10
992.6919423585566
 20
1745.513880929111
 30
0.0
  0
VERTEX
  5
318
  8
0
 10
992.6919423585566
 20
1754.739413451484
 30
0.0
  0
VERTEX
  5
319
  8
0
 10
1017.733887616147
 20
1740.281439615982
 30
0.0
  0
VERTEX
  5
31A
  8
0
 10
1032.191861451649
 20
1715.239494358392
 30
0.0
  0
VERTEX
  5
31B
  8
0
 10
1022.966328929275
 20
1715.239494358393
 30
0.0
  0
VERTEX
  5
31C
  8
0
 10
1018.387508633779
 20
1710.660674062896
 30
0.0
  0
VERTEX
  5
31D
  8
0
 10
1008.149294833986
 20
1713.403995182488
 30
0.0
  0
VERTEX
  5
31E
  8
0
 10
1014.478917842251
 20
1737.026469842086
 30
0.0
  0
VERTEX
  5
31F
  8
0
 10
990.8564431826524
 20
1730.696846833822
 30
0.0
  0
SEQEND
  5
320
  8
0
  0
POLYLINE
  5
321
  8
0
 66
     1
 10
0.0
 20
0.0
 30
0.0
 70
     1
  0
VERTEX
  5
322
  8
0
 10
1059.591735420771
 20
1689.781520522889
 30
0.0
  0
VERTEX
  5
323
  8
0
 10
1051.244420334907
 20
1675.323546687388
 30
0.0
  0
VERTEX
  5
324
  8
0
 10
1080.16036800591
 20
1675.323546687388
 30
0.0
  0
VERTEX
  5
325
  8
0
 10
1105.2023132635
 20
1689.781520522889
 30
0.0
  0
VERTEX
  5
326
  8
0
 10
1080.16036800591
 20
1704.239494358391
 30
0.0
  0
VERTEX
  5
327
  8
0
 10
1051.244420334906
 20
1704.239494358392
 30
0.0
  0
SEQEND
  5
328
  8
0
  0
POLYLINE
  5
329
  8
0
 66
     1
 10
0.0
 20
0.0
 30
0.0
 70
     1
  0
VERTEX
  5
32A
  8
0
 10
967.2339685230536
 20
1551.813175782445
 30
0.0
  0
VERTEX
  5
32B
  8
0
 10
952.7759946875518
 20
1576.855121040036
 30
0.0
  0
VERTEX
  5
32C
  8
0
 10
952.7759946875522
 20
1605.771068711038
 30
0.0
  0
VERTEX
  5
32D
  8
0
 10
967.233968523052
 20
1597.423753625175
 30
0.0
  0
VERTEX
  5
32E
  8
0
 10
981.6919423585555
 20
1605.771068711039
 30
0.0
  0
VERTEX
  5
32F
  8
0
 10
981.691942358555
 20
1576.855121040035
 30
0.0
  0
SEQEND
  5
330
  8
0
  0
POLYLINE
  5
331
  8
0
 66
     1
 10
0.0
 20
0.0
 30
0.0
 70
     1
  0
VERTEX
  5
332
  8
0
 10
829.2656237826094
 20
1689.781520522893
 30
0.0
  0
VERTEX
  5
333
  8
0
 10
854.3075690401997
 20
1704.239494358394
 30
0.0
  0
VERTEX
  5
334
  8
0
 10
883.223516711203
 20
1704.239494358393
 30
0.0
  0
VERTEX
  5
335
  8
0
 10
874.8762016253395
 20
1689.781520522892
 30
0.0
  0
VERTEX
  5
336
  8
0
 10
883.2235167112027
 20
1675.32354668739
 30
0.0
  0
VERTEX
  5
337
  8
0
 10
854.3075690401995
 20
1675.323546687391
 30
0.0
  0
SEQEND
  5
338
  8
0
  0
POLYLINE
  5
339
  8
0
 66
     1
 10
0.0
 20
0.0
 30
0.0
 70
     1
  0
VERTEX
  5
33A
  8
0
 10
967.2339685230561
 20
1827.749865263336
 30
0.0
  0
VERTEX
  5
33B
  8
0
 10
981.6919423585573
 20
1802.707920005746
 30
0.0
  0
VERTEX
  5
33C
  8
0
 10
981.6919423585573
 20
1773.791972334742
 30
0.0
  0
VERTEX
  5
33D
  8
0
 10
967.2339685230531
 20
1782.139287420607
 30
0.0
  0
VERTEX
  5
33E
  8
0
 10
952.7759946875541
 20
1773.791972334744
 30
0.0
  0
VERTEX
  5
33F
  8
0
 10
952.7759946875544
 20
1802.707920005746
 30
0.0
  0
SEQEND
  5
340
  8
0
  0
POLYLINE
  5
341
  8
0
 66
     1
 10
0.0
 20
0.0
 30
0.0
 70
     1
  0
VERTEX
  5
342
  8
0
 10
941.7759946875518
 20
1598.86049668699
 30
0.0
  0
VERTEX
  5
343
  8
0
 10
941.7759946875518
 20
1612.121921672125
 30
0.0
  0
VERTEX
  5
344
  8
0
 10
930.2912637600399
 20
1618.752634164695
 30
0.0
  0
VERTEX
  5
345
  8
0
 10
898.9143953548229
 20
1587.375765759479
 30
0.0
  0
SEQEND
  5
346
  8
0
  0
POLYLINE
  5
347
  8
0
 66
     1
 10
0.0
 20
0.0
 30
0.0
 70
     1
  0
VERTEX
  5
348
  8
0
 10
1004.176673286068
 20
1618.752634164694
 30
0.0
  0
VERTEX
  5
349
  8
0
 10
992.6919423585562
 20
1612.121921672124
 30
0.0
  0
VERTEX
  5
34A
  8
0
 10
992.6919423585559
 20
1598.860496686988
 30
0.0
  0
VERTEX
  5
34B
  8
0
 10
1035.553541691284
 20
1587.375765759476
 30
0.0
  0
SEQEND
  5
34C
  8
0
  0
POLYLINE
  5
34D
  8
0
 66
     1
 10
0.0
 20
0.0
 30
0.0
 70
     1
  0
VERTEX
  5
34E
  8
0
 10
1098.652238233061
 20
1606.31094747269
 30
0.0
  0
VERTEX
  5
34F
  8
0
 10
1082.239366726965
 20
1622.723818978786
 30
0.0
  0
VERTEX
  5
350
  8
0
 10
1072.702465536838
 20
1658.316018767107
 30
0.0
  0
VERTEX
  5
351
  8
0
 10
1083.107809122652
 20
1664.323546687388
 30
0.0
  0
VERTEX
  5
352
  8
0
 10
1095.122864963216
 20
1664.323546687387
 30
0.0
  0
VERTEX
  5
353
  8
0
 10
1104.659766153342
 20
1628.731346899068
 30
0.0
  0
SEQEND
  5
354
  8
0
  0
POLYLINE
  5
355
  8
0
 66
     1
 10
0.0
 20
0.0
 30
0.0
 70
     1
  0
VERTEX
  5
356
  8
0
 10
1068.254616603693
 20
1588.760872442251
 30
0.0
  0
VERTEX
  5
357
  8
0
 10
1045.834217177316
 20
1594.768400362532
 30
0.0
  0
VERTEX
  5
358
  8
0
 10
1019.778918579124
 20
1620.823698960726
 30
0.0
  0
VERTEX
  5
359
  8
0
 10
1025.786446499404
 20
1631.22904254654
 30
0.0
  0
VERTEX
  5
35A
  8
0
 10
1036.191790085221
 20
1637.236570466821
 30
0.0
  0
VERTEX
  5
35B
  8
0
 10
1062.247088683412
 20
1611.181271868629
 30
0.0
  0
SEQEND
  5
35C
  8
0
  0
POLYLINE
  5
35D
  8
0
 66
     1
 10
0.0
 20
0.0
 30
0.0
 70
     1
  0
VERTEX
  5
35E
  8
0
 10
1050.704541573253
 20
1558.363250812884
 30
0.0
  0
VERTEX
  5
35F
  8
0
 10
1028.284142146876
 20
1552.355722892604
 30
0.0
  0
VERTEX
  5
360
  8
0
 10
992.6919423585548
 20
1561.892624082732
 30
0.0
  0
VERTEX
  5
361
  8
0
 10
992.691942358555
 20
1573.907679923293
 30
0.0
  0
VERTEX
  5
362
  8
0
 10
998.699470278837
 20
1584.313023509109
 30
0.0
  0
VERTEX
  5
363
  8
0
 10
1034.291670067156
 20
1574.776122318981
 30
0.0
  0
SEQEND
  5
364
  8
0
  0
POLYLINE
  5
365
  8
0
 66
     1
 10
0.0
 20
0.0
 30
0.0
 70
     1
  0
VERTEX
  5
366
  8
0
 10
1094.91742835722
 20
1592.372447259441
 30
0.0
  0
VERTEX
  5
367
  8
0
 10
1092.228464933597
 20
1582.337099142786
 30
0.0
  0
VERTEX
  5
368
  8
0
 10
1082.193116816941
 20
1585.02606256641
 30
0.0
  0
VERTEX
  5
369
  8
0
 10
1074.846732123909
 20
1612.443143492753
 30
0.0
  0
SEQEND
  5
36A
  8
0
  0
POLYLINE
  5
36B
  8
0
 66
     1
 10
0.0
 20
0.0
 30
0.0
 70
     1
  0
VERTEX
  5
36C
  8
0
 10
1071.989426479533
 20
1574.822372229003
 30
0.0
  0
VERTEX
  5
36D
  8
0
 10
1074.678389903157
 20
1564.787024112347
 30
0.0
  0
VERTEX
  5
36E
  8
0
 10
1064.643041786501
 20
1562.098060688724
 30
0.0
  0
VERTEX
  5
36F
  8
0
 10
1044.572345553191
 20
1582.168756922036
 30
0.0
  0
SEQEND
  5
370
  8
0
  0
POLYLINE
  5
371
  8
0
 66
     1
 10
0.0
 20
0.0
 30
0.0
 70
     1
  0
VERTEX
  5
372
  8
0
 10
1058.15499235896
 20
1664.323546687387
 30
0.0
  0
VERTEX
  5
373
  8
0
 10
1044.893567373821
 20
1664.323546687388
 30
0.0
  0
VERTEX
  5
374
  8
0
 10
1038.262854881252
 20
1652.838815759878
 30
0.0
  0
VERTEX
  5
375
  8
0
 10
1069.63972328647
 20
1621.46194735466
 30
0.0
  0
SEQEND
  5
376
  8
0
  0
POLYLINE
  5
377
  8
0
 66
     1
 10
0.0
 20
0.0
 30
0.0
 70
     1
  0
VERTEX
  5
378
  8
0
 10
1069.639723286471
 20
1758.101093691119
 30
0.0
  0
VERTEX
  5
379
  8
0
 10
1038.262854881253
 20
1726.724225285901
 30
0.0
  0
VERTEX
  5
37A
  8
0
 10
1044.893567373821
 20
1715.239494358392
 30
0.0
  0
VERTEX
  5
37B
  8
0
 10
1058.15499235896
 20
1715.239494358392
 30
0.0
  0
SEQEND
  5
37C
  8
0
  0
POLYLINE
  5
37D
  8
0
 66
     1
 10
0.0
 20
0.0
 30
0.0
 70
     1
  0
VERTEX
  5
37E
  8
0
 10
1098.652238233062
 20
1773.252093573089
 30
0.0
  0
VERTEX
  5
37F
  8
0
 10
1082.239366726966
 20
1756.839222066993
 30
0.0
  0
VERTEX
  5
380
  8
0
 10
1072.702465536838
 20
1721.247022278672
 30
0.0
  0
VERTEX
  5
381
  8
0
 10
1083.107809122652
 20
1715.239494358391
 30
0.0
  0
VERTEX
  5
382
  8
0
 10
1095.122864963216
 20
1715.239494358391
 30
0.0
  0
VERTEX
  5
383
  8
0
 10
1104.659766153343
 20
1750.831694146711
 30
0.0
  0
SEQEND
  5
384
  8
0
  0
POLYLINE
  5
385
  8
0
 66
     1
 10
0.0
 20
0.0
 30
0.0
 70
     1
  0
VERTEX
  5
386
  8
0
 10
1068.254616603695
 20
1790.802168603528
 30
0.0
  0
VERTEX
  5
387
  8
0
 10
1045.834217177318
 20
1784.794640683248
 30
0.0
  0
VERTEX
  5
388
  8
0
 10
1019.778918579125
 20
1758.739342085054
 30
0.0
  0
VERTEX
  5
389
  8
0
 10
1025.786446499405
 20
1748.33399849924
 30
0.0
  0
VERTEX
  5
38A
  8
0
 10
1036.191790085221
 20
1742.326470578959
 30
0.0
  0
VERTEX
  5
38B
  8
0
 10
1062.247088683413
 20
1768.381769177151
 30
0.0
  0
SEQEND
  5
38C
  8
0
  0
POLYLINE
  5
38D
  8
0
 66
     1
 10
0.0
 20
0.0
 30
0.0
 70
     1
  0
VERTEX
  5
38E
  8
0
 10
1050.704541573255
 20
1821.199790232896
 30
0.0
  0
VERTEX
  5
38F
  8
0
 10
1028.284142146879
 20
1827.207318153176
 30
0.0
  0
VERTEX
  5
390
  8
0
 10
992.6919423585575
 20
1817.670416963049
 30
0.0
  0
VERTEX
  5
391
  8
0
 10
992.6919423585575
 20
1805.655361122488
 30
0.0
  0
VERTEX
  5
392
  8
0
 10
998.6994702788393
 20
1795.250017536672
 30
0.0
  0
VERTEX
  5
393
  8
0
 10
1034.291670067159
 20
1804.786918726799
 30
0.0
  0
SEQEND
  5
394
  8
0
  0
POLYLINE
  5
395
  8
0
 66
     1
 10
0.0
 20
0.0
 30
0.0
 70
     1
  0
VERTEX
  5
396
  8
0
 10
1094.917428357222
 20
1787.190593786337
 30
0.0
  0
VERTEX
  5
397
  8
0
 10
1092.228464933599
 20
1797.225941902992
 30
0.0
  0
VERTEX
  5
398
  8
0
 10
1082.193116816943
 20
1794.536978479369
 30
0.0
  0
VERTEX
  5
399
  8
0
 10
1074.846732123911
 20
1767.119897553026
 30
0.0
  0
SEQEND
  5
39A
  8
0
  0
POLYLINE
  5
39B
  8
0
 66
     1
 10
0.0
 20
0.0
 30
0.0
 70
     1
  0
VERTEX
  5
39C
  8
0
 10
1071.989426479536
 20
1804.740668816776
 30
0.0
  0
VERTEX
  5
39D
  8
0
 10
1074.678389903159
 20
1814.776016933431
 30
0.0
  0
VERTEX
  5
39E
  8
0
 10
1064.643041786503
 20
1817.464980357055
 30
0.0
  0
VERTEX
  5
39F
  8
0
 10
1044.572345553193
 20
1797.394284123744
 30
0.0
  0
SEQEND
  5
3A0
  8
0
  0
POLYLINE
  5
3A1
  8
0
 66
     1
 10
0.0
 20
0.0
 30
0.0
 70
     1
  0
VERTEX
  5
3A2
  8
0
 10
876.3129446871532
 20
1715.239494358394
 30
0.0
  0
VERTEX
  5
3A3
  8
0
 10
889.5743696722893
 20
1715.239494358394
 30
0.0
  0
VERTEX
  5
3A4
  8
0
 10
896.2050821648588
 20
1726.724225285906
 30
0.0
  0
VERTEX
  5
3A5
  8
0
 10
864.8282137596422
 20
1758.101093691123
 30
0.0
  0
SEQEND
  5
3A6
  8
0
  0
POLYLINE
  5
3A7
  8
0
 66
     1
 10
0.0
 20
0.0
 30
0.0
 70
     1
  0
VERTEX
  5
3A8
  8
0
 10
896.2050821648564
 20
1652.838815759881
 30
0.0
  0
VERTEX
  5
3A9
  8
0
 10
889.5743696722886
 20
1664.32354668739
 30
0.0
  0
VERTEX
  5
3AA
  8
0
 10
876.3129446871493
 20
1664.32354668739
 30
0.0
  0
VERTEX
  5
3AB
  8
0
 10
864.8282137596385
 20
1621.461947354663
 30
0.0
  0
SEQEND
  5
3AC
  8
0
  0
POLYLINE
  5
3AD
  8
0
 66
     1
 10
0.0
 20
0.0
 30
0.0
 70
     1
  0
VERTEX
  5
3AE
  8
0
 10
866.2133204424146
 20
1588.760872442254
 30
0.0
  0
VERTEX
  5
3AF
  8
0
 10
888.6337198687912
 20
1594.768400362535
 30
0.0
  0
VERTEX
  5
3B0
  8
0
 10
914.6890184669845
 20
1620.823698960728
 30
0.0
  0
VERTEX
  5
3B1
  8
0
 10
908.6814905467044
 20
1631.229042546542
 30
0.0
  0
VERTEX
  5
3B2
  8
0
 10
898.2761469608878
 20
1637.236570466824
 30
0.0
  0
VERTEX
  5
3B3
  8
0
 10
872.2208483626961
 20
1611.181271868632
 30
0.0
  0
SEQEND
  5
3B4
  8
0
  0
POLYLINE
  5
3B5
  8
0
 66
     1
 10
0.0
 20
0.0
 30
0.0
 70
     1
  0
VERTEX
  5
3B6
  8
0
 10
883.7633954728539
 20
1558.363250812886
 30
0.0
  0
VERTEX
  5
3B7
  8
0
 10
906.1837948992305
 20
1552.355722892606
 30
0.0
  0
VERTEX
  5
3B8
  8
0
 10
941.7759946875518
 20
1561.892624082733
 30
0.0
  0
VERTEX
  5
3B9
  8
0
 10
941.7759946875518
 20
1573.907679923294
 30
0.0
  0
VERTEX
  5
3BA
  8
0
 10
935.7684667672701
 20
1584.31302350911
 30
0.0
  0
VERTEX
  5
3BB
  8
0
 10
900.1762669789508
 20
1574.776122318983
 30
0.0
  0
SEQEND
  5
3BC
  8
0
  0
POLYLINE
  5
3BD
  8
0
 66
     1
 10
0.0
 20
0.0
 30
0.0
 70
     1
  0
VERTEX
  5
3BE
  8
0
 10
835.8156988130471
 20
1606.310947472693
 30
0.0
  0
VERTEX
  5
3BF
  8
0
 10
852.2285703191429
 20
1622.723818978789
 30
0.0
  0
VERTEX
  5
3C0
  8
0
 10
861.7654715092709
 20
1658.31601876711
 30
0.0
  0
VERTEX
  5
3C1
  8
0
 10
851.3601279234571
 20
1664.323546687391
 30
0.0
  0
VERTEX
  5
3C2
  8
0
 10
839.3450720828936
 20
1664.323546687391
 30
0.0
  0
VERTEX
  5
3C3
  8
0
 10
829.8081708927664
 20
1628.731346899071
 30
0.0
  0
SEQEND
  5
3C4
  8
0
  0
POLYLINE
  5
3C5
  8
0
 66
     1
 10
0.0
 20
0.0
 30
0.0
 70
     1
  0
VERTEX
  5
3C6
  8
0
 10
839.5505086888876
 20
1592.372447259445
 30
0.0
  0
VERTEX
  5
3C7
  8
0
 10
842.2394721125104
 20
1582.33709914279
 30
0.0
  0
VERTEX
  5
3C8
  8
0
 10
852.2748202291663
 20
1585.026062566413
 30
0.0
  0
VERTEX
  5
3C9
  8
0
 10
859.6212049221983
 20
1612.443143492756
 30
0.0
  0
SEQEND
  5
3CA
  8
0
  0
POLYLINE
  5
3CB
  8
0
 66
     1
 10
0.0
 20
0.0
 30
0.0
 70
     1
  0
VERTEX
  5
3CC
  8
0
 10
862.4785105665732
 20
1574.822372229006
 30
0.0
  0
VERTEX
  5
3CD
  8
0
 10
859.78954714295
 20
1564.787024112351
 30
0.0
  0
VERTEX
  5
3CE
  8
0
 10
869.8248952596057
 20
1562.098060688727
 30
0.0
  0
VERTEX
  5
3CF
  8
0
 10
889.8955914929165
 20
1582.168756922038
 30
0.0
  0
SEQEND
  5
3D0
  8
0
  0
POLYLINE
  5
3D1
  8
0
 66
     1
 10
0.0
 20
0.0
 30
0.0
 70
     1
  0
VERTEX
  5
3D2
  8
0
 10
992.6919423585568
 20
1780.702544358792
 30
0.0
  0
VERTEX
  5
3D3
  8
0
 10
992.6919423585566
 20
1767.441119373656
 30
0.0
  0
VERTEX
  5
3D4
  8
0
 10
1004.176673286069
 20
1760.810406881087
 30
0.0
  0
VERTEX
  5
3D5
  8
0
 10
1035.553541691286
 20
1792.187275286303
 30
0.0
  0
SEQEND
  5
3D6
  8
0
  0
POLYLINE
  5
3D7
  8
0
 66
     1
 10
0.0
 20
0.0
 30
0.0
 70
     1
  0
VERTEX
  5
3D8
  8
0
 10
930.2912637600441
 20
1760.810406881089
 30
0.0
  0
VERTEX
  5
3D9
  8
0
 10
941.7759946875535
 20
1767.441119373657
 30
0.0
  0
VERTEX
  5
3DA
  8
0
 10
941.7759946875537
 20
1780.702544358796
 30
0.0
  0
VERTEX
  5
3DB
  8
0
 10
898.9143953548264
 20
1792.187275286307
 30
0.0
  0
SEQEND
  5
3DC
  8
0
  0
POLYLINE
  5
3DD
  8
0
 66
     1
 10
0.0
 20
0.0
 30
0.0
 70
     1
  0
VERTEX
  5
3DE
  8
0
 10
883.7633954728572
 20
1821.199790232899
 30
0.0
  0
VERTEX
  5
3DF
  8
0
 10
900.176266978953
 20
1804.786918726803
 30
0.0
  0
VERTEX
  5
3E0
  8
0
 10
935.768466767274
 20
1795.250017536675
 30
0.0
  0
VERTEX
  5
3E1
  8
0
 10
941.7759946875544
 20
1805.655361122489
 30
0.0
  0
VERTEX
  5
3E2
  8
0
 10
941.7759946875544
 20
1817.670416963052
 30
0.0
  0
VERTEX
  5
3E3
  8
0
 10
906.1837948992352
 20
1827.207318153179
 30
0.0
  0
SEQEND
  5
3E4
  8
0
  0
POLYLINE
  5
3E5
  8
0
 66
     1
 10
0.0
 20
0.0
 30
0.0
 70
     1
  0
VERTEX
  5
3E6
  8
0
 10
866.2133204424174
 20
1790.802168603531
 30
0.0
  0
VERTEX
  5
3E7
  8
0
 10
872.2208483626985
 20
1768.381769177154
 30
0.0
  0
VERTEX
  5
3E8
  8
0
 10
898.2761469608913
 20
1742.326470578961
 30
0.0
  0
VERTEX
  5
3E9
  8
0
 10
908.6814905467054
 20
1748.333998499241
 30
0.0
  0
VERTEX
  5
3EA
  8
0
 10
914.6890184669871
 20
1758.739342085058
 30
0.0
  0
VERTEX
  5
3EB
  8
0
 10
888.6337198687954
 20
1784.794640683249
 30
0.0
  0
SEQEND
  5
3EC
  8
0
  0
POLYLINE
  5
3ED
  8
0
 66
     1
 10
0.0
 20
0.0
 30
0.0
 70
     1
  0
VERTEX
  5
3EE
  8
0
 10
835.8156988130502
 20
1773.252093573092
 30
0.0
  0
VERTEX
  5
3EF
  8
0
 10
829.8081708927695
 20
1750.831694146715
 30
0.0
  0
VERTEX
  5
3F0
  8
0
 10
839.345072082897
 20
1715.239494358394
 30
0.0
  0
VERTEX
  5
3F1
  8
0
 10
851.3601279234575
 20
1715.239494358394
 30
0.0
  0
VERTEX
  5
3F2
  8
0
 10
861.765471509274
 20
1721.247022278675
 30
0.0
  0
VERTEX
  5
3F3
  8
0
 10
852.2285703191467
 20
1756.839222066995
 30
0.0
  0
SEQEND
  5
3F4
  8
0
  0
POLYLINE
  5
3F5
  8
0
 66
     1
 10
0.0
 20
0.0
 30
0.0
 70
     1
  0
VERTEX
  5
3F6
  8
0
 10
869.8248952596088
 20
1817.464980357058
 30
0.0
  0
VERTEX
  5
3F7
  8
0
 10
859.7895471429533
 20
1814.776016933435
 30
0.0
  0
VERTEX
  5
3F8
  8
0
 10
862.4785105665766
 20
1804.740668816779
 30
0.0
  0
VERTEX
  5
3F9
  8
0
 10
889.8955914929198
 20
1797.394284123747
 30
0.0
  0
SEQEND
  5
3FA
  8
0
  0
POLYLINE
  5
3FB
  8
0
 66
     1
 10
0.0
 20
0.0
 30
0.0
 70
     1
  0
VERTEX
  5
3FC
  8
0
 10
852.2748202291696
 20
1794.536978479372
 30
0.0
  0
VERTEX
  5
3FD
  8
0
 10
842.2394721125139
 20
1797.225941902995
 30
0.0
  0
VERTEX
  5
3FE
  8
0
 10
839.5505086888909
 20
1787.19059378634
 30
0.0
  0
VERTEX
  5
3FF
  8
0
 10
859.621204922202
 20
1767.119897553029
 30
0.0
  0
SEQEND
  5
400
  8
0
  0
POLYLINE
  5
401
  8
0
 66
     1
 10
0.0
 20
0.0
 30
0.0
 70
     1
  0
VERTEX
  5
402
  8
0
 10
992.6919423585562
 20
1624.823627594295
 30
0.0
  0
VERTEX
  5
403
  8
0
 10
992.6919423585582
 20
1634.049160116669
 30
0.0
  0
VERTEX
  5
404
  8
0
 10
988.1131220630609
 20
1638.627980412166
 30
0.0
  0
VERTEX
  5
405
  8
0
 10
990.8564431826527
 20
1648.866194211959
 30
0.0
  0
VERTEX
  5
406
  8
0
 10
1014.478917842251
 20
1642.536571203695
 30
0.0
  0
VERTEX
  5
407
  8
0
 10
1008.149294833986
 20
1666.159045863293
 30
0.0
  0
VERTEX
  5
408
  8
0
 10
1018.387508633779
 20
1668.902366982884
 30
0.0
  0
VERTEX
  5
409
  8
0
 10
1022.966328929276
 20
1664.323546687388
 30
0.0
  0
VERTEX
  5
40A
  8
0
 10
1032.191861451648
 20
1664.323546687388
 30
0.0
  0
VERTEX
  5
40B
  8
0
 10
1017.733887616147
 20
1639.281601429798
 30
0.0
  0
SEQEND
  5
40C
  8
0
  0
POLYLINE
  5
40D
  8
0
 66
     1
 10
0.0
 20
0.0
 30
0.0
 70
     1
  0
VERTEX
  5
40E
  8
0
 10
997.5083550937727
 20
1689.781520522891
 30
0.0
  0
VERTEX
  5
40F
  8
0
 10
1008.589549662646
 20
1700.862715091764
 30
0.0
  0
VERTEX
  5
410
  8
0
 10
993.4523563772868
 20
1704.91871380825
 30
0.0
  0
VERTEX
  5
411
  8
0
 10
997.5083550937729
 20
1720.055907093609
 30
0.0
  0
VERTEX
  5
412
  8
0
 10
982.3711618084135
 20
1715.999908377123
 30
0.0
  0
VERTEX
  5
413
  8
0
 10
978.3151630919281
 20
1731.137101662482
 30
0.0
  0
VERTEX
  5
414
  8
0
 10
967.2339685230545
 20
1720.055907093608
 30
0.0
  0
VERTEX
  5
415
  8
0
 10
956.1527739541816
 20
1731.137101662482
 30
0.0
  0
VERTEX
  5
416
  8
0
 10
952.0967752376957
 20
1715.999908377122
 30
0.0
  0
VERTEX
  5
417
  8
0
 10
936.959581952337
 20
1720.055907093608
 30
0.0
  0
VERTEX
  5
418
  8
0
 10
941.0155806688228
 20
1704.918713808249
 30
0.0
  0
VERTEX
  5
419
  8
0
 10
925.8783873834636
 20
1700.862715091764
 30
0.0
  0
VERTEX
  5
41A
  8
0
 10
936.9595819523374
 20
1689.78152052289
 30
0.0
  0
VERTEX
  5
41B
  8
0
 10
925.8783873834639
 20
1678.700325954017
 30
0.0
  0
VERTEX
  5
41C
  8
0
 10
941.0155806688231
 20
1674.644327237531
 30
0.0
  0
VERTEX
  5
41D
  8
0
 10
936.9595819523372
 20
1659.507133952173
 30
0.0
  0
VERTEX
  5
41E
  8
0
 10
952.0967752376964
 20
1663.563132668659
 30
0.0
  0
VERTEX
  5
41F
  8
0
 10
956.1527739541816
 20
1648.4259393833
 30
0.0
  0
VERTEX
  5
420
  8
0
 10
967.2339685230552
 20
1659.507133952173
 30
0.0
  0
VERTEX
  5
421
  8
0
 10
978.3151630919283
 20
1648.425939383299
 30
0.0
  0
VERTEX
  5
422
  8
0
 10
982.3711618084142
 20
1663.563132668659
 30
0.0
  0
VERTEX
  5
423
  8
0
 10
997.5083550937729
 20
1659.507133952173
 30
0.0
  0
VERTEX
  5
424
  8
0
 10
993.4523563772868
 20
1674.644327237532
 30
0.0
  0
VERTEX
  5
425
  8
0
 10
1008.589549662646
 20
1678.700325954017
 30
0.0
  0
SEQEND
  5
426
  8
0
  0
POLYLINE
  5
427
  8
0
 66
     1
 10
0.0
 20
0.0
 30
0.0
  0
VERTEX
  5
428
  8
0
 10
1414.139002744397
 20
1447.687995828384
 30
0.0
  0
VERTEX
  5
429
  8
0
 10
1402.654271816886
 20
1404.826396495655
 30
0.0
  0
VERTEX
  5
42A
  8
0
 10
1414.139002744395
 20
1398.195684003087
 30
0.0
  0
SEQEND
  5
42B
  8
0
  0
POLYLINE
  5
42C
  8
0
 66
     1
 10
0.0
 20
0.0
 30
0.0
  0
VERTEX
  5
42D
  8
0
 10
1209.327493217565
 20
1242.876486301559
 30
0.0
  0
VERTEX
  5
42E
  8
0
 10
1252.189092550293
 20
1254.36121722907
 30
0.0
  0
VERTEX
  5
42F
  8
0
 10
1258.819805042861
 20
1242.876486301559
 30
0.0
  0
SEQEND
  5
430
  8
0
  0
POLYLINE
  5
431
  8
0
 66
     1
 10
0.0
 20
0.0
 30
0.0
  0
VERTEX
  5
432
  8
0
 10
1271.521510965035
 20
1242.876486301559
 30
0.0
  0
VERTEX
  5
433
  8
0
 10
1278.152223457604
 20
1254.361217229069
 30
0.0
  0
VERTEX
  5
434
  8
0
 10
1321.013822790331
 20
1242.876486301557
 30
0.0
  0
SEQEND
  5
435
  8
0
  0
POLYLINE
  5
436
  8
0
 66
     1
 10
0.0
 20
0.0
 30
0.0
  0
VERTEX
  5
437
  8
0
 10
1414.139002744396
 20
1336.001666255618
 30
0.0
  0
VERTEX
  5
438
  8
0
 10
1402.654271816886
 20
1378.863265588347
 30
0.0
  0
VERTEX
  5
439
  8
0
 10
1414.139002744395
 20
1385.493978080915
 30
0.0
  0
SEQEND
  5
43A
  8
0
  0
POLYLINE
  5
43B
  8
0
 66
     1
 10
0.0
 20
0.0
 30
0.0
  0
VERTEX
  5
43C
  8
0
 10
1383.864616173676
 20
1242.876486301556
 30
0.0
  0
VERTEX
  5
43D
  8
0
 10
1372.783421604803
 20
1253.957680870429
 30
0.0
  0
VERTEX
  5
43E
  8
0
 10
1387.920614890162
 20
1258.013679586915
 30
0.0
  0
VERTEX
  5
43F
  8
0
 10
1383.864616173676
 20
1273.150872872274
 30
0.0
  0
VERTEX
  5
440
  8
0
 10
1399.001809459036
 20
1269.094874155787
 30
0.0
  0
VERTEX
  5
441
  8
0
 10
1403.057808175521
 20
1284.232067441146
 30
0.0
  0
VERTEX
  5
442
  8
0
 10
1414.139002744395
 20
1273.150872872273
 30
0.0
  0
SEQEND
  5
443
  8
0
  0
POLYLINE
  5
444
  8
0
 66
     1
 10
0.0
 20
0.0
 30
0.0
  0
VERTEX
  5
445
  8
0
 10
1414.139002744395
 20
1290.824182961362
 30
0.0
  0
VERTEX
  5
446
  8
0
 10
1406.792618051363
 20
1298.170567654395
 30
0.0
  0
VERTEX
  5
447
  8
0
 10
1414.139002744396
 20
1325.587648580738
 30
0.0
  0
SEQEND
  5
448
  8
0
  0
POLYLINE
  5
449
  8
0
 66
     1
 10
0.0
 20
0.0
 30
0.0
  0
VERTEX
  5
44A
  8
0
 10
1331.427840465211
 20
1242.876486301557
 30
0.0
  0
VERTEX
  5
44B
  8
0
 10
1358.844921391555
 20
1250.222870994589
 30
0.0
  0
VERTEX
  5
44C
  8
0
 10
1366.191306084584
 20
1242.876486301559
 30
0.0
  0
SEQEND
  5
44D
  8
0
  0
POLYLINE
  5
44E
  8
0
 66
     1
 10
0.0
 20
0.0
 30
0.0
  0
VERTEX
  5
44F
  8
0
 10
1414.139002744397
 20
1492.865479122641
 30
0.0
  0
VERTEX
  5
450
  8
0
 10
1406.792618051364
 20
1485.519094429608
 30
0.0
  0
VERTEX
  5
451
  8
0
 10
1414.139002744397
 20
1458.102013503265
 30
0.0
  0
SEQEND
  5
452
  8
0
  0
POLYLINE
  5
453
  8
0
 66
     1
 10
0.0
 20
0.0
 30
0.0
  0
VERTEX
  5
454
  8
0
 10
1198.913475542685
 20
1242.876486301559
 30
0.0
  0
VERTEX
  5
455
  8
0
 10
1171.496394616341
 20
1250.222870994592
 30
0.0
  0
VERTEX
  5
456
  8
0
 10
1164.150009923309
 20
1242.876486301559
 30
0.0
  0
SEQEND
  5
457
  8
0
  0
POLYLINE
  5
458
  8
0
 66
     1
 10
0.0
 20
0.0
 30
0.0
 70
     1
  0
VERTEX
  5
459
  8
0
 10
1214.017117893225
 20
1412.723984582009
 30
0.0
  0
VERTEX
  5
45A
  8
0
 10
1209.438297597729
 20
1417.302804877506
 30
0.0
  0
VERTEX
  5
45B
  8
0
 10
1200.212765075356
 20
1417.302804877506
 30
0.0
  0
VERTEX
  5
45C
  8
0
 10
1214.670738910858
 20
1442.344750135096
 30
0.0
  0
VERTEX
  5
45D
  8
0
 10
1239.712684168448
 20
1456.802723970598
 30
0.0
  0
VERTEX
  5
45E
  8
0
 10
1239.712684168448
 20
1447.577191448223
 30
0.0
  0
VERTEX
  5
45F
  8
0
 10
1244.291504463944
 20
1442.998371152727
 30
0.0
  0
VERTEX
  5
460
  8
0
 10
1241.548183344352
 20
1432.760157352934
 30
0.0
  0
VERTEX
  5
461
  8
0
 10
1217.925708684754
 20
1439.089780361198
 30
0.0
  0
VERTEX
  5
462
  8
0
 10
1224.255331693018
 20
1415.4673057016
 30
0.0
  0
SEQEND
  5
463
  8
0
  0
POLYLINE
  5
464
  8
0
 66
     1
 10
0.0
 20
0.0
 30
0.0
 70
     1
  0
VERTEX
  5
465
  8
0
 10
1193.86191211427
 20
1406.302804877505
 30
0.0
  0
VERTEX
  5
466
  8
0
 10
1203.467734849252
 20
1406.302804877505
 30
0.0
  0
VERTEX
  5
467
  8
0
 10
1217.925708684755
 20
1391.844831042003
 30
0.0
  0
VERTEX
  5
468
  8
0
 10
1203.467734849254
 20
1377.386857206503
 30
0.0
  0
VERTEX
  5
469
  8
0
 10
1193.861912114269
 20
1377.386857206503
 30
0.0
  0
VERTEX
  5
46A
  8
0
 10
1185.514597028406
 20
1391.844831042004
 30
0.0
  0
SEQEND
  5
46B
  8
0
  0
POLYLINE
  5
46C
  8
0
 66
     1
 10
0.0
 20
0.0
 30
0.0
 70
     1
  0
VERTEX
  5
46D
  8
0
 10
1244.291504463944
 20
1340.691290931279
 30
0.0
  0
VERTEX
  5
46E
  8
0
 10
1239.712684168447
 20
1336.112470635784
 30
0.0
  0
VERTEX
  5
46F
  8
0
 10
1239.712684168447
 20
1326.88693811341
 30
0.0
  0
VERTEX
  5
470
  8
0
 10
1214.670738910857
 20
1341.344911948912
 30
0.0
  0
VERTEX
  5
471
  8
0
 10
1200.212765075355
 20
1366.386857206502
 30
0.0
  0
VERTEX
  5
472
  8
0
 10
1209.438297597731
 20
1366.386857206502
 30
0.0
  0
VERTEX
  5
473
  8
0
 10
1214.017117893226
 20
1370.965677501997
 30
0.0
  0
VERTEX
  5
474
  8
0
 10
1224.255331693019
 20
1368.222356382405
 30
0.0
  0
VERTEX
  5
475
  8
0
 10
1217.925708684754
 20
1344.599881722807
 30
0.0
  0
VERTEX
  5
476
  8
0
 10
1241.548183344352
 20
1350.929504731072
 30
0.0
  0
SEQEND
  5
477
  8
0
  0
POLYLINE
  5
478
  8
0
 66
     1
 10
0.0
 20
0.0
 30
0.0
 70
     1
  0
VERTEX
  5
479
  8
0
 10
1279.628631839451
 20
1330.141907887307
 30
0.0
  0
VERTEX
  5
47A
  8
0
 10
1279.62863183945
 20
1320.53608515232
 30
0.0
  0
VERTEX
  5
47B
  8
0
 10
1265.170658003953
 20
1312.188770066458
 30
0.0
  0
VERTEX
  5
47C
  8
0
 10
1250.712684168447
 20
1320.536085152324
 30
0.0
  0
VERTEX
  5
47D
  8
0
 10
1250.712684168447
 20
1330.141907887306
 30
0.0
  0
VERTEX
  5
47E
  8
0
 10
1265.17065800395
 20
1344.599881722808
 30
0.0
  0
SEQEND
  5
47F
  8
0
  0
POLYLINE
  5
480
  8
0
 66
     1
 10
0.0
 20
0.0
 30
0.0
 70
     1
  0
VERTEX
  5
481
  8
0
 10
1336.479403893629
 20
1377.3868572065
 30
0.0
  0
VERTEX
  5
482
  8
0
 10
1326.873581158647
 20
1377.3868572065
 30
0.0
  0
VERTEX
  5
483
  8
0
 10
1312.415607323145
 20
1391.844831042003
 30
0.0
  0
VERTEX
  5
484
  8
0
 10
1326.873581158647
 20
1406.302804877505
 30
0.0
  0
VERTEX
  5
485
  8
0
 10
1336.47940389363
 20
1406.302804877505
 30
0.0
  0
VERTEX
  5
486
  8
0
 10
1344.826718979493
 20
1391.844831042003
 30
0.0
  0
SEQEND
  5
487
  8
0
  0
POLYLINE
  5
488
  8
0
 66
     1
 10
0.0
 20
0.0
 30
0.0
 70
     1
  0
VERTEX
  5
489
  8
0
 10
1250.712684168449
 20
1453.5477541967
 30
0.0
  0
VERTEX
  5
48A
  8
0
 10
1250.712684168449
 20
1463.153576931684
 30
0.0
  0
VERTEX
  5
48B
  8
0
 10
1265.170658003949
 20
1471.500892017546
 30
0.0
  0
VERTEX
  5
48C
  8
0
 10
1279.628631839452
 20
1463.153576931682
 30
0.0
  0
VERTEX
  5
48D
  8
0
 10
1279.628631839452
 20
1453.5477541967
 30
0.0
  0
VERTEX
  5
48E
  8
0
 10
1265.170658003949
 20
1439.089780361198
 30
0.0
  0
SEQEND
  5
48F
  8
0
  0
POLYLINE
  5
490
  8
0
 66
     1
 10
0.0
 20
0.0
 30
0.0
 70
     1
  0
VERTEX
  5
491
  8
0
 10
1286.049811543956
 20
1442.998371152727
 30
0.0
  0
VERTEX
  5
492
  8
0
 10
1290.628631839451
 20
1447.577191448224
 30
0.0
  0
VERTEX
  5
493
  8
0
 10
1290.628631839451
 20
1456.802723970597
 30
0.0
  0
VERTEX
  5
494
  8
0
 10
1315.670577097042
 20
1442.344750135095
 30
0.0
  0
VERTEX
  5
495
  8
0
 10
1330.128550932543
 20
1417.302804877505
 30
0.0
  0
VERTEX
  5
496
  8
0
 10
1320.90301841017
 20
1417.302804877505
 30
0.0
  0
VERTEX
  5
497
  8
0
 10
1316.324198114674
 20
1412.723984582009
 30
0.0
  0
VERTEX
  5
498
  8
0
 10
1306.085984314881
 20
1415.4673057016
 30
0.0
  0
VERTEX
  5
499
  8
0
 10
1312.415607323145
 20
1439.089780361199
 30
0.0
  0
VERTEX
  5
49A
  8
0
 10
1288.793132663547
 20
1432.760157352934
 30
0.0
  0
SEQEND
  5
49B
  8
0
  0
POLYLINE
  5
49C
  8
0
 66
     1
 10
0.0
 20
0.0
 30
0.0
 70
     1
  0
VERTEX
  5
49D
  8
0
 10
1357.528424901665
 20
1391.844831042001
 30
0.0
  0
VERTEX
  5
49E
  8
0
 10
1349.181109815802
 20
1377.3868572065
 30
0.0
  0
VERTEX
  5
49F
  8
0
 10
1378.097057486805
 20
1377.3868572065
 30
0.0
  0
VERTEX
  5
4A0
  8
0
 10
1403.139002744395
 20
1391.844831042001
 30
0.0
  0
VERTEX
  5
4A1
  8
0
 10
1378.097057486805
 20
1406.302804877504
 30
0.0
  0
VERTEX
  5
4A2
  8
0
 10
1349.181109815801
 20
1406.302804877504
 30
0.0
  0
SEQEND
  5
4A3
  8
0
  0
POLYLINE
  5
4A4
  8
0
 66
     1
 10
0.0
 20
0.0
 30
0.0
 70
     1
  0
VERTEX
  5
4A5
  8
0
 10
1265.170658003948
 20
1253.876486301557
 30
0.0
  0
VERTEX
  5
4A6
  8
0
 10
1250.712684168447
 20
1278.918431559148
 30
0.0
  0
VERTEX
  5
4A7
  8
0
 10
1250.712684168447
 20
1307.834379230151
 30
0.0
  0
VERTEX
  5
4A8
  8
0
 10
1265.170658003947
 20
1299.487064144288
 30
0.0
  0
VERTEX
  5
4A9
  8
0
 10
1279.62863183945
 20
1307.834379230151
 30
0.0
  0
VERTEX
  5
4AA
  8
0
 10
1279.62863183945
 20
1278.918431559147
 30
0.0
  0
SEQEND
  5
4AB
  8
0
  0
POLYLINE
  5
4AC
  8
0
 66
     1
 10
0.0
 20
0.0
 30
0.0
 70
     1
  0
VERTEX
  5
4AD
  8
0
 10
1127.202313263504
 20
1391.844831042005
 30
0.0
  0
VERTEX
  5
4AE
  8
0
 10
1152.244258521094
 20
1406.302804877506
 30
0.0
  0
VERTEX
  5
4AF
  8
0
 10
1181.160206192098
 20
1406.302804877505
 30
0.0
  0
VERTEX
  5
4B0
  8
0
 10
1172.812891106234
 20
1391.844831042004
 30
0.0
  0
VERTEX
  5
4B1
  8
0
 10
1181.160206192098
 20
1377.386857206503
 30
0.0
  0
VERTEX
  5
4B2
  8
0
 10
1152.244258521094
 20
1377.386857206503
 30
0.0
  0
SEQEND
  5
4B3
  8
0
  0
POLYLINE
  5
4B4
  8
0
 66
     1
 10
0.0
 20
0.0
 30
0.0
 70
     1
  0
VERTEX
  5
4B5
  8
0
 10
1265.170658003951
 20
1529.813175782449
 30
0.0
  0
VERTEX
  5
4B6
  8
0
 10
1279.628631839452
 20
1504.771230524858
 30
0.0
  0
VERTEX
  5
4B7
  8
0
 10
1279.628631839452
 20
1475.855282853854
 30
0.0
  0
VERTEX
  5
4B8
  8
0
 10
1265.170658003948
 20
1484.202597939719
 30
0.0
  0
VERTEX
  5
4B9
  8
0
 10
1250.712684168449
 20
1475.855282853856
 30
0.0
  0
VERTEX
  5
4BA
  8
0
 10
1250.712684168449
 20
1504.771230524859
 30
0.0
  0
SEQEND
  5
4BB
  8
0
  0
POLYLINE
  5
4BC
  8
0
 66
     1
 10
0.0
 20
0.0
 30
0.0
 70
     1
  0
VERTEX
  5
4BD
  8
0
 10
1239.712684168447
 20
1300.923807206102
 30
0.0
  0
VERTEX
  5
4BE
  8
0
 10
1239.712684168447
 20
1314.185232191237
 30
0.0
  0
VERTEX
  5
4BF
  8
0
 10
1228.227953240935
 20
1320.815944683808
 30
0.0
  0
VERTEX
  5
4C0
  8
0
 10
1196.851084835718
 20
1289.439076278591
 30
0.0
  0
SEQEND
  5
4C1
  8
0
  0
POLYLINE
  5
4C2
  8
0
 66
     1
 10
0.0
 20
0.0
 30
0.0
 70
     1
  0
VERTEX
  5
4C3
  8
0
 10
1302.113362766963
 20
1320.815944683806
 30
0.0
  0
VERTEX
  5
4C4
  8
0
 10
1290.628631839451
 20
1314.185232191237
 30
0.0
  0
VERTEX
  5
4C5
  8
0
 10
1290.628631839451
 20
1300.923807206101
 30
0.0
  0
VERTEX
  5
4C6
  8
0
 10
1333.490231172179
 20
1289.439076278589
 30
0.0
  0
SEQEND
  5
4C7
  8
0
  0
POLYLINE
  5
4C8
  8
0
 66
     1
 10
0.0
 20
0.0
 30
0.0
 70
     1
  0
VERTEX
  5
4C9
  8
0
 10
1396.588927713955
 20
1308.374257991802
 30
0.0
  0
VERTEX
  5
4CA
  8
0
 10
1380.17605620786
 20
1324.787129497898
 30
0.0
  0
VERTEX
  5
4CB
  8
0
 10
1370.639155017733
 20
1360.37932928622
 30
0.0
  0
VERTEX
  5
4CC
  8
0
 10
1381.044498603547
 20
1366.3868572065
 30
0.0
  0
VERTEX
  5
4CD
  8
0
 10
1393.05955444411
 20
1366.386857206499
 30
0.0
  0
VERTEX
  5
4CE
  8
0
 10
1402.596455634237
 20
1330.79465741818
 30
0.0
  0
SEQEND
  5
4CF
  8
0
  0
POLYLINE
  5
4D0
  8
0
 66
     1
 10
0.0
 20
0.0
 30
0.0
 70
     1
  0
VERTEX
  5
4D1
  8
0
 10
1366.191306084588
 20
1290.824182961363
 30
0.0
  0
VERTEX
  5
4D2
  8
0
 10
1343.770906658211
 20
1296.831710881645
 30
0.0
  0
VERTEX
  5
4D3
  8
0
 10
1317.715608060018
 20
1322.887009479838
 30
0.0
  0
VERTEX
  5
4D4
  8
0
 10
1323.723135980299
 20
1333.292353065652
 30
0.0
  0
VERTEX
  5
4D5
  8
0
 10
1334.128479566115
 20
1339.299880985934
 30
0.0
  0
VERTEX
  5
4D6
  8
0
 10
1360.183778164306
 20
1313.244582387741
 30
0.0
  0
SEQEND
  5
4D7
  8
0
  0
POLYLINE
  5
4D8
  8
0
 66
     1
 10
0.0
 20
0.0
 30
0.0
 70
     1
  0
VERTEX
  5
4D9
  8
0
 10
1348.641231054147
 20
1260.426561331996
 30
0.0
  0
VERTEX
  5
4DA
  8
0
 10
1326.220831627771
 20
1254.419033411716
 30
0.0
  0
VERTEX
  5
4DB
  8
0
 10
1290.62863183945
 20
1263.955934601845
 30
0.0
  0
VERTEX
  5
4DC
  8
0
 10
1290.62863183945
 20
1275.970990442405
 30
0.0
  0
VERTEX
  5
4DD
  8
0
 10
1296.636159759732
 20
1286.376334028221
 30
0.0
  0
VERTEX
  5
4DE
  8
0
 10
1332.228359548051
 20
1276.839432838093
 30
0.0
  0
SEQEND
  5
4DF
  8
0
  0
POLYLINE
  5
4E0
  8
0
 66
     1
 10
0.0
 20
0.0
 30
0.0
 70
     1
  0
VERTEX
  5
4E1
  8
0
 10
1392.854117838115
 20
1294.435757778554
 30
0.0
  0
VERTEX
  5
4E2
  8
0
 10
1390.165154414491
 20
1284.400409661898
 30
0.0
  0
VERTEX
  5
4E3
  8
0
 10
1380.129806297836
 20
1287.089373085522
 30
0.0
  0
VERTEX
  5
4E4
  8
0
 10
1372.783421604804
 20
1314.506454011865
 30
0.0
  0
SEQEND
  5
4E5
  8
0
  0
POLYLINE
  5
4E6
  8
0
 66
     1
 10
0.0
 20
0.0
 30
0.0
 70
     1
  0
VERTEX
  5
4E7
  8
0
 10
1369.926115960428
 20
1276.885682748115
 30
0.0
  0
VERTEX
  5
4E8
  8
0
 10
1372.615079384051
 20
1266.850334631459
 30
0.0
  0
VERTEX
  5
4E9
  8
0
 10
1362.579731267396
 20
1264.161371207837
 30
0.0
  0
VERTEX
  5
4EA
  8
0
 10
1342.509035034085
 20
1284.232067441148
 30
0.0
  0
SEQEND
  5
4EB
  8
0
  0
POLYLINE
  5
4EC
  8
0
 66
     1
 10
0.0
 20
0.0
 30
0.0
 70
     1
  0
VERTEX
  5
4ED
  8
0
 10
1356.091681839855
 20
1366.3868572065
 30
0.0
  0
VERTEX
  5
4EE
  8
0
 10
1342.830256854716
 20
1366.3868572065
 30
0.0
  0
VERTEX
  5
4EF
  8
0
 10
1336.199544362147
 20
1354.90212627899
 30
0.0
  0
VERTEX
  5
4F0
  8
0
 10
1367.576412767365
 20
1323.525257873772
 30
0.0
  0
SEQEND
  5
4F1
  8
0
  0
POLYLINE
  5
4F2
  8
0
 66
     1
 10
0.0
 20
0.0
 30
0.0
 70
     1
  0
VERTEX
  5
4F3
  8
0
 10
1367.576412767365
 20
1460.164404210232
 30
0.0
  0
VERTEX
  5
4F4
  8
0
 10
1336.199544362147
 20
1428.787535805014
 30
0.0
  0
VERTEX
  5
4F5
  8
0
 10
1342.830256854715
 20
1417.302804877504
 30
0.0
  0
VERTEX
  5
4F6
  8
0
 10
1356.091681839854
 20
1417.302804877504
 30
0.0
  0
SEQEND
  5
4F7
  8
0
  0
POLYLINE
  5
4F8
  8
0
 66
     1
 10
0.0
 20
0.0
 30
0.0
 70
     1
  0
VERTEX
  5
4F9
  8
0
 10
1396.588927713957
 20
1475.315404092201
 30
0.0
  0
VERTEX
  5
4FA
  8
0
 10
1380.176056207861
 20
1458.902532586105
 30
0.0
  0
VERTEX
  5
4FB
  8
0
 10
1370.639155017733
 20
1423.310332797784
 30
0.0
  0
VERTEX
  5
4FC
  8
0
 10
1381.044498603547
 20
1417.302804877504
 30
0.0
  0
VERTEX
  5
4FD
  8
0
 10
1393.059554444111
 20
1417.302804877504
 30
0.0
  0
VERTEX
  5
4FE
  8
0
 10
1402.596455634238
 20
1452.895004665823
 30
0.0
  0
SEQEND
  5
4FF
  8
0
  0
POLYLINE
  5
500
  8
0
 66
     1
 10
0.0
 20
0.0
 30
0.0
 70
     1
  0
VERTEX
  5
501
  8
0
 10
1366.19130608459
 20
1492.865479122641
 30
0.0
  0
VERTEX
  5
502
  8
0
 10
1343.770906658213
 20
1486.85795120236
 30
0.0
  0
VERTEX
  5
503
  8
0
 10
1317.71560806002
 20
1460.802652604167
 30
0.0
  0
VERTEX
  5
504
  8
0
 10
1323.7231359803
 20
1450.397309018353
 30
0.0
  0
VERTEX
  5
505
  8
0
 10
1334.128479566116
 20
1444.389781098071
 30
0.0
  0
VERTEX
  5
506
  8
0
 10
1360.183778164308
 20
1470.445079696263
 30
0.0
  0
SEQEND
  5
507
  8
0
  0
POLYLINE
  5
508
  8
0
 66
     1
 10
0.0
 20
0.0
 30
0.0
 70
     1
  0
VERTEX
  5
509
  8
0
 10
1348.64123105415
 20
1523.263100752008
 30
0.0
  0
VERTEX
  5
50A
  8
0
 10
1326.220831627774
 20
1529.270628672289
 30
0.0
  0
VERTEX
  5
50B
  8
0
 10
1290.628631839452
 20
1519.733727482161
 30
0.0
  0
VERTEX
  5
50C
  8
0
 10
1290.628631839452
 20
1507.718671641601
 30
0.0
  0
VERTEX
  5
50D
  8
0
 10
1296.636159759734
 20
1497.313328055784
 30
0.0
  0
VERTEX
  5
50E
  8
0
 10
1332.228359548053
 20
1506.850229245912
 30
0.0
  0
SEQEND
  5
50F
  8
0
  0
POLYLINE
  5
510
  8
0
 66
     1
 10
0.0
 20
0.0
 30
0.0
 70
     1
  0
VERTEX
  5
511
  8
0
 10
1392.854117838117
 20
1489.253904305449
 30
0.0
  0
VERTEX
  5
512
  8
0
 10
1390.165154414493
 20
1499.289252422105
 30
0.0
  0
VERTEX
  5
513
  8
0
 10
1380.129806297838
 20
1496.600288998481
 30
0.0
  0
VERTEX
  5
514
  8
0
 10
1372.783421604805
 20
1469.183208072138
 30
0.0
  0
SEQEND
  5
515
  8
0
  0
POLYLINE
  5
516
  8
0
 66
     1
 10
0.0
 20
0.0
 30
0.0
 70
     1
  0
VERTEX
  5
517
  8
0
 10
1369.926115960431
 20
1506.803979335888
 30
0.0
  0
VERTEX
  5
518
  8
0
 10
1372.615079384054
 20
1516.839327452544
 30
0.0
  0
VERTEX
  5
519
  8
0
 10
1362.579731267398
 20
1519.528290876167
 30
0.0
  0
VERTEX
  5
51A
  8
0
 10
1342.509035034088
 20
1499.457594642856
 30
0.0
  0
SEQEND
  5
51B
  8
0
  0
POLYLINE
  5
51C
  8
0
 66
     1
 10
0.0
 20
0.0
 30
0.0
 70
     1
  0
VERTEX
  5
51D
  8
0
 10
1174.249634168048
 20
1417.302804877506
 30
0.0
  0
VERTEX
  5
51E
  8
0
 10
1187.511059153184
 20
1417.302804877506
 30
0.0
  0
VERTEX
  5
51F
  8
0
 10
1194.141771645754
 20
1428.787535805018
 30
0.0
  0
VERTEX
  5
520
  8
0
 10
1162.764903240537
 20
1460.164404210235
 30
0.0
  0
SEQEND
  5
521
  8
0
  0
POLYLINE
  5
522
  8
0
 66
     1
 10
0.0
 20
0.0
 30
0.0
 70
     1
  0
VERTEX
  5
523
  8
0
 10
1194.141771645751
 20
1354.902126278993
 30
0.0
  0
VERTEX
  5
524
  8
0
 10
1187.511059153183
 20
1366.386857206503
 30
0.0
  0
VERTEX
  5
525
  8
0
 10
1174.249634168044
 20
1366.386857206503
 30
0.0
  0
VERTEX
  5
526
  8
0
 10
1162.764903240533
 20
1323.525257873775
 30
0.0
  0
SEQEND
  5
527
  8
0
  0
POLYLINE
  5
528
  8
0
 66
     1
 10
0.0
 20
0.0
 30
0.0
 70
     1
  0
VERTEX
  5
529
  8
0
 10
1164.150009923309
 20
1290.824182961366
 30
0.0
  0
VERTEX
  5
52A
  8
0
 10
1186.570409349686
 20
1296.831710881647
 30
0.0
  0
VERTEX
  5
52B
  8
0
 10
1212.625707947879
 20
1322.88700947984
 30
0.0
  0
VERTEX
  5
52C
  8
0
 10
1206.618180027599
 20
1333.292353065654
 30
0.0
  0
VERTEX
  5
52D
  8
0
 10
1196.212836441783
 20
1339.299880985936
 30
0.0
  0
VERTEX
  5
52E
  8
0
 10
1170.157537843591
 20
1313.244582387744
 30
0.0
  0
SEQEND
  5
52F
  8
0
  0
POLYLINE
  5
530
  8
0
 66
     1
 10
0.0
 20
0.0
 30
0.0
 70
     1
  0
VERTEX
  5
531
  8
0
 10
1181.700084953749
 20
1260.426561331999
 30
0.0
  0
VERTEX
  5
532
  8
0
 10
1204.120484380125
 20
1254.419033411718
 30
0.0
  0
VERTEX
  5
533
  8
0
 10
1239.712684168447
 20
1263.955934601845
 30
0.0
  0
VERTEX
  5
534
  8
0
 10
1239.712684168447
 20
1275.970990442406
 30
0.0
  0
VERTEX
  5
535
  8
0
 10
1233.705156248165
 20
1286.376334028222
 30
0.0
  0
VERTEX
  5
536
  8
0
 10
1198.112956459845
 20
1276.839432838095
 30
0.0
  0
SEQEND
  5
537
  8
0
  0
POLYLINE
  5
538
  8
0
 66
     1
 10
0.0
 20
0.0
 30
0.0
 70
     1
  0
VERTEX
  5
539
  8
0
 10
1133.752388293942
 20
1308.374257991806
 30
0.0
  0
VERTEX
  5
53A
  8
0
 10
1150.165259800038
 20
1324.787129497902
 30
0.0
  0
VERTEX
  5
53B
  8
0
 10
1159.702160990166
 20
1360.379329286223
 30
0.0
  0
VERTEX
  5
53C
  8
0
 10
1149.296817404352
 20
1366.386857206503
 30
0.0
  0
VERTEX
  5
53D
  8
0
 10
1137.281761563788
 20
1366.386857206503
 30
0.0
  0
VERTEX
  5
53E
  8
0
 10
1127.744860373661
 20
1330.794657418184
 30
0.0
  0
SEQEND
  5
53F
  8
0
  0
POLYLINE
  5
540
  8
0
 66
     1
 10
0.0
 20
0.0
 30
0.0
 70
     1
  0
VERTEX
  5
541
  8
0
 10
1137.487198169782
 20
1294.435757778558
 30
0.0
  0
VERTEX
  5
542
  8
0
 10
1140.176161593405
 20
1284.400409661902
 30
0.0
  0
VERTEX
  5
543
  8
0
 10
1150.211509710061
 20
1287.089373085525
 30
0.0
  0
VERTEX
  5
544
  8
0
 10
1157.557894403093
 20
1314.506454011869
 30
0.0
  0
SEQEND
  5
545
  8
0
  0
POLYLINE
  5
546
  8
0
 66
     1
 10
0.0
 20
0.0
 30
0.0
 70
     1
  0
VERTEX
  5
547
  8
0
 10
1160.415200047468
 20
1276.885682748118
 30
0.0
  0
VERTEX
  5
548
  8
0
 10
1157.726236623845
 20
1266.850334631463
 30
0.0
  0
VERTEX
  5
549
  8
0
 10
1167.7615847405
 20
1264.16137120784
 30
0.0
  0
VERTEX
  5
54A
  8
0
 10
1187.832280973811
 20
1284.232067441151
 30
0.0
  0
SEQEND
  5
54B
  8
0
  0
POLYLINE
  5
54C
  8
0
 66
     1
 10
0.0
 20
0.0
 30
0.0
 70
     1
  0
VERTEX
  5
54D
  8
0
 10
1290.628631839452
 20
1482.765854877905
 30
0.0
  0
VERTEX
  5
54E
  8
0
 10
1290.628631839451
 20
1469.504429892769
 30
0.0
  0
VERTEX
  5
54F
  8
0
 10
1302.113362766964
 20
1462.873717400199
 30
0.0
  0
VERTEX
  5
550
  8
0
 10
1333.490231172181
 20
1494.250585805416
 30
0.0
  0
SEQEND
  5
551
  8
0
  0
POLYLINE
  5
552
  8
0
 66
     1
 10
0.0
 20
0.0
 30
0.0
 70
     1
  0
VERTEX
  5
553
  8
0
 10
1228.227953240939
 20
1462.873717400201
 30
0.0
  0
VERTEX
  5
554
  8
0
 10
1239.712684168448
 20
1469.50442989277
 30
0.0
  0
VERTEX
  5
555
  8
0
 10
1239.712684168449
 20
1482.765854877909
 30
0.0
  0
VERTEX
  5
556
  8
0
 10
1196.851084835721
 20
1494.25058580542
 30
0.0
  0
SEQEND
  5
557
  8
0
  0
POLYLINE
  5
558
  8
0
 66
     1
 10
0.0
 20
0.0
 30
0.0
 70
     1
  0
VERTEX
  5
559
  8
0
 10
1181.700084953752
 20
1523.263100752011
 30
0.0
  0
VERTEX
  5
55A
  8
0
 10
1198.112956459848
 20
1506.850229245915
 30
0.0
  0
VERTEX
  5
55B
  8
0
 10
1233.705156248169
 20
1497.313328055787
 30
0.0
  0
VERTEX
  5
55C
  8
0
 10
1239.712684168449
 20
1507.718671641601
 30
0.0
  0
VERTEX
  5
55D
  8
0
 10
1239.712684168449
 20
1519.733727482164
 30
0.0
  0
VERTEX
  5
55E
  8
0
 10
1204.12048438013
 20
1529.270628672292
 30
0.0
  0
SEQEND
  5
55F
  8
0
  0
POLYLINE
  5
560
  8
0
 66
     1
 10
0.0
 20
0.0
 30
0.0
 70
     1
  0
VERTEX
  5
561
  8
0
 10
1164.150009923312
 20
1492.865479122643
 30
0.0
  0
VERTEX
  5
562
  8
0
 10
1170.157537843593
 20
1470.445079696267
 30
0.0
  0
VERTEX
  5
563
  8
0
 10
1196.212836441786
 20
1444.389781098073
 30
0.0
  0
VERTEX
  5
564
  8
0
 10
1206.6181800276
 20
1450.397309018353
 30
0.0
  0
VERTEX
  5
565
  8
0
 10
1212.625707947882
 20
1460.80265260417
 30
0.0
  0
VERTEX
  5
566
  8
0
 10
1186.57040934969
 20
1486.857951202362
 30
0.0
  0
SEQEND
  5
567
  8
0
  0
POLYLINE
  5
568
  8
0
 66
     1
 10
0.0
 20
0.0
 30
0.0
 70
     1
  0
VERTEX
  5
569
  8
0
 10
1133.752388293945
 20
1475.315404092204
 30
0.0
  0
VERTEX
  5
56A
  8
0
 10
1127.744860373664
 20
1452.895004665827
 30
0.0
  0
VERTEX
  5
56B
  8
0
 10
1137.281761563792
 20
1417.302804877506
 30
0.0
  0
VERTEX
  5
56C
  8
0
 10
1149.296817404352
 20
1417.302804877506
 30
0.0
  0
VERTEX
  5
56D
  8
0
 10
1159.702160990169
 20
1423.310332797788
 30
0.0
  0
VERTEX
  5
56E
  8
0
 10
1150.165259800041
 20
1458.902532586107
 30
0.0
  0
SEQEND
  5
56F
  8
0
  0
POLYLINE
  5
570
  8
0
 66
     1
 10
0.0
 20
0.0
 30
0.0
 70
     1
  0
VERTEX
  5
571
  8
0
 10
1167.761584740504
 20
1519.52829087617
 30
0.0
  0
VERTEX
  5
572
  8
0
 10
1157.726236623848
 20
1516.839327452547
 30
0.0
  0
VERTEX
  5
573
  8
0
 10
1160.415200047471
 20
1506.803979335891
 30
0.0
  0
VERTEX
  5
574
  8
0
 10
1187.832280973815
 20
1499.457594642859
 30
0.0
  0
SEQEND
  5
575
  8
0
  0
POLYLINE
  5
576
  8
0
 66
     1
 10
0.0
 20
0.0
 30
0.0
 70
     1
  0
VERTEX
  5
577
  8
0
 10
1150.211509710064
 20
1496.600288998484
 30
0.0
  0
VERTEX
  5
578
  8
0
 10
1140.176161593409
 20
1499.289252422108
 30
0.0
  0
VERTEX
  5
579
  8
0
 10
1137.487198169786
 20
1489.253904305452
 30
0.0
  0
VERTEX
  5
57A
  8
0
 10
1157.557894403097
 20
1469.183208072141
 30
0.0
  0
SEQEND
  5
57B
  8
0
  0
POLYLINE
  5
57C
  8
0
 66
     1
 10
0.0
 20
0.0
 30
0.0
 70
     1
  0
VERTEX
  5
57D
  8
0
 10
1290.628631839451
 20
1326.886938113407
 30
0.0
  0
VERTEX
  5
57E
  8
0
 10
1290.628631839453
 20
1336.112470635781
 30
0.0
  0
VERTEX
  5
57F
  8
0
 10
1286.049811543956
 20
1340.691290931279
 30
0.0
  0
VERTEX
  5
580
  8
0
 10
1288.793132663548
 20
1350.929504731072
 30
0.0
  0
VERTEX
  5
581
  8
0
 10
1312.415607323145
 20
1344.599881722807
 30
0.0
  0
VERTEX
  5
582
  8
0
 10
1306.085984314881
 20
1368.222356382405
 30
0.0
  0
VERTEX
  5
583
  8
0
 10
1316.324198114674
 20
1370.965677501997
 30
0.0
  0
VERTEX
  5
584
  8
0
 10
1320.90301841017
 20
1366.3868572065
 30
0.0
  0
VERTEX
  5
585
  8
0
 10
1330.128550932543
 20
1366.3868572065
 30
0.0
  0
VERTEX
  5
586
  8
0
 10
1315.670577097041
 20
1341.34491194891
 30
0.0
  0
SEQEND
  5
587
  8
0
  0
POLYLINE
  5
588
  8
0
 66
     1
 10
0.0
 20
0.0
 30
0.0
 70
     1
  0
VERTEX
  5
589
  8
0
 10
1295.445044574667
 20
1391.844831042003
 30
0.0
  0
VERTEX
  5
58A
  8
0
 10
1306.526239143541
 20
1402.926025610876
 30
0.0
  0
VERTEX
  5
58B
  8
0
 10
1291.389045858182
 20
1406.982024327362
 30
0.0
  0
VERTEX
  5
58C
  8
0
 10
1295.445044574668
 20
1422.119217612721
 30
0.0
  0
VERTEX
  5
58D
  8
0
 10
1280.307851289308
 20
1418.063218896235
 30
0.0
  0
VERTEX
  5
58E
  8
0
 10
1276.251852572823
 20
1433.200412181594
 30
0.0
  0
VERTEX
  5
58F
  8
0
 10
1265.170658003949
 20
1422.119217612721
 30
0.0
  0
VERTEX
  5
590
  8
0
 10
1254.089463435076
 20
1433.200412181594
 30
0.0
  0
VERTEX
  5
591
  8
0
 10
1250.03346471859
 20
1418.063218896235
 30
0.0
  0
VERTEX
  5
592
  8
0
 10
1234.896271433232
 20
1422.119217612721
 30
0.0
  0
VERTEX
  5
593
  8
0
 10
1238.952270149718
 20
1406.982024327361
 30
0.0
  0
VERTEX
  5
594
  8
0
 10
1223.815076864358
 20
1402.926025610876
 30
0.0
  0
VERTEX
  5
595
  8
0
 10
1234.896271433232
 20
1391.844831042003
 30
0.0
  0
VERTEX
  5
596
  8
0
 10
1223.815076864359
 20
1380.76363647313
 30
0.0
  0
VERTEX
  5
597
  8
0
 10
1238.952270149718
 20
1376.707637756644
 30
0.0
  0
VERTEX
  5
598
  8
0
 10
1234.896271433232
 20
1361.570444471285
 30
0.0
  0
VERTEX
  5
599
  8
0
 10
1250.033464718591
 20
1365.626443187771
 30
0.0
  0
VERTEX
  5
59A
  8
0
 10
1254.089463435076
 20
1350.489249902412
 30
0.0
  0
VERTEX
  5
59B
  8
0
 10
1265.17065800395
 20
1361.570444471285
 30
0.0
  0
VERTEX
  5
59C
  8
0
 10
1276.251852572823
 20
1350.489249902412
 30
0.0
  0
VERTEX
  5
59D
  8
0
 10
1280.307851289309
 20
1365.626443187771
 30
0.0
  0
VERTEX
  5
59E
  8
0
 10
1295.445044574668
 20
1361.570444471285
 30
0.0
  0
VERTEX
  5
59F
  8
0
 10
1291.389045858182
 20
1376.707637756644
 30
0.0
  0
VERTEX
  5
5A0
  8
0
 10
1306.526239143541
 20
1380.76363647313
 30
0.0
  0
SEQEND
  5
5A1
  8
0
  0
POLYLINE
  5
5A2
  8
0
 66
     1
 10
0.0
 20
0.0
 30
0.0
  0
VERTEX
  5
5A3
  8
0
 10
911.3908037366701
 20
1242.876486301559
 30
0.0
  0
VERTEX
  5
5A4
  8
0
 10
954.2524030693977
 20
1254.36121722907
 30
0.0
  0
VERTEX
  5
5A5
  8
0
 10
960.8831155619661
 20
1242.876486301559
 30
0.0
  0
SEQEND
  5
5A6
  8
0
  0
POLYLINE
  5
5A7
  8
0
 66
     1
 10
0.0
 20
0.0
 30
0.0
  0
VERTEX
  5
5A8
  8
0
 10
973.5848214841403
 20
1242.876486301559
 30
0.0
  0
VERTEX
  5
5A9
  8
0
 10
980.2155339767091
 20
1254.361217229069
 30
0.0
  0
VERTEX
  5
5AA
  8
0
 10
1023.077133309436
 20
1242.876486301557
 30
0.0
  0
SEQEND
  5
5AB
  8
0
  0
POLYLINE
  5
5AC
  8
0
 66
     1
 10
0.0
 20
0.0
 30
0.0
  0
VERTEX
  5
5AD
  8
0
 10
818.2656237826106
 20
1447.687995828388
 30
0.0
  0
VERTEX
  5
5AE
  8
0
 10
829.7503547101212
 20
1404.82639649566
 30
0.0
  0
VERTEX
  5
5AF
  8
0
 10
818.2656237826089
 20
1398.195684003091
 30
0.0
  0
SEQEND
  5
5B0
  8
0
  0
POLYLINE
  5
5B1
  8
0
 66
     1
 10
0.0
 20
0.0
 30
0.0
  0
VERTEX
  5
5B2
  8
0
 10
818.2656237826089
 20
1385.493978080919
 30
0.0
  0
VERTEX
  5
5B3
  8
0
 10
829.7503547101182
 20
1378.863265588351
 30
0.0
  0
VERTEX
  5
5B4
  8
0
 10
818.2656237826071
 20
1336.001666255622
 30
0.0
  0
SEQEND
  5
5B5
  8
0
  0
POLYLINE
  5
5B6
  8
0
 66
     1
 10
0.0
 20
0.0
 30
0.0
  0
VERTEX
  5
5B7
  8
0
 10
1033.491150984316
 20
1242.876486301557
 30
0.0
  0
VERTEX
  5
5B8
  8
0
 10
1060.90823191066
 20
1250.222870994589
 30
0.0
  0
VERTEX
  5
5B9
  8
0
 10
1068.25461660369
 20
1242.876486301559
 30
0.0
  0
SEQEND
  5
5BA
  8
0
  0
POLYLINE
  5
5BB
  8
0
 66
     1
 10
0.0
 20
0.0
 30
0.0
  0
VERTEX
  5
5BC
  8
0
 10
848.540010353325
 20
1242.876486301559
 30
0.0
  0
VERTEX
  5
5BD
  8
0
 10
859.6212049221986
 20
1253.957680870433
 30
0.0
  0
VERTEX
  5
5BE
  8
0
 10
844.4840116368392
 20
1258.013679586918
 30
0.0
  0
VERTEX
  5
5BF
  8
0
 10
848.5400103533251
 20
1273.150872872277
 30
0.0
  0
VERTEX
  5
5C0
  8
0
 10
833.4028170679658
 20
1269.094874155791
 30
0.0
  0
VERTEX
  5
5C1
  8
0
 10
829.3468183514804
 20
1284.232067441151
 30
0.0
  0
VERTEX
  5
5C2
  8
0
 10
818.2656237826069
 20
1273.150872872277
 30
0.0
  0
SEQEND
  5
5C3
  8
0
  0
POLYLINE
  5
5C4
  8
0
 66
     1
 10
0.0
 20
0.0
 30
0.0
  0
VERTEX
  5
5C5
  8
0
 10
900.97678606179
 20
1242.876486301559
 30
0.0
  0
VERTEX
  5
5C6
  8
0
 10
873.5597051354465
 20
1250.222870994592
 30
0.0
  0
VERTEX
  5
5C7
  8
0
 10
866.2133204424138
 20
1242.876486301559
 30
0.0
  0
SEQEND
  5
5C8
  8
0
  0
POLYLINE
  5
5C9
  8
0
 66
     1
 10
0.0
 20
0.0
 30
0.0
  0
VERTEX
  5
5CA
  8
0
 10
818.2656237826072
 20
1325.587648580746
 30
0.0
  0
VERTEX
  5
5CB
  8
0
 10
825.6120084756396
 20
1298.170567654398
 30
0.0
  0
VERTEX
  5
5CC
  8
0
 10
818.2656237826072
 20
1290.824182961366
 30
0.0
  0
SEQEND
  5
5CD
  8
0
  0
POLYLINE
  5
5CE
  8
0
 66
     1
 10
0.0
 20
0.0
 30
0.0
  0
VERTEX
  5
5CF
  8
0
 10
818.2656237826106
 20
1458.102013503268
 30
0.0
  0
VERTEX
  5
5D0
  8
0
 10
825.6120084756429
 20
1485.519094429611
 30
0.0
  0
VERTEX
  5
5D1
  8
0
 10
818.2656237826104
 20
1492.865479122644
 30
0.0
  0
SEQEND
  5
5D2
  8
0
  0
POLYLINE
  5
5D3
  8
0
 66
     1
 10
0.0
 20
0.0
 30
0.0
 70
     1
  0
VERTEX
  5
5D4
  8
0
 10
916.0804284123305
 20
1412.723984582009
 30
0.0
  0
VERTEX
  5
5D5
  8
0
 10
911.5016081168345
 20
1417.302804877506
 30
0.0
  0
VERTEX
  5
5D6
  8
0
 10
902.2760755944614
 20
1417.302804877506
 30
0.0
  0
VERTEX
  5
5D7
  8
0
 10
916.7340494299631
 20
1442.344750135096
 30
0.0
  0
VERTEX
  5
5D8
  8
0
 10
941.7759946875533
 20
1456.802723970598
 30
0.0
  0
VERTEX
  5
5D9
  8
0
 10
941.7759946875531
 20
1447.577191448223
 30
0.0
  0
VERTEX
  5
5DA
  8
0
 10
946.354814983049
 20
1442.998371152727
 30
0.0
  0
VERTEX
  5
5DB
  8
0
 10
943.6114938634572
 20
1432.760157352934
 30
0.0
  0
VERTEX
  5
5DC
  8
0
 10
919.9890192038596
 20
1439.089780361198
 30
0.0
  0
VERTEX
  5
5DD
  8
0
 10
926.3186422121237
 20
1415.4673057016
 30
0.0
  0
SEQEND
  5
5DE
  8
0
  0
POLYLINE
  5
5DF
  8
0
 66
     1
 10
0.0
 20
0.0
 30
0.0
 70
     1
  0
VERTEX
  5
5E0
  8
0
 10
895.9252226333749
 20
1406.302804877505
 30
0.0
  0
VERTEX
  5
5E1
  8
0
 10
905.531045368357
 20
1406.302804877505
 30
0.0
  0
VERTEX
  5
5E2
  8
0
 10
919.98901920386
 20
1391.844831042003
 30
0.0
  0
VERTEX
  5
5E3
  8
0
 10
905.5310453683592
 20
1377.386857206503
 30
0.0
  0
VERTEX
  5
5E4
  8
0
 10
895.9252226333745
 20
1377.386857206503
 30
0.0
  0
VERTEX
  5
5E5
  8
0
 10
887.5779075475114
 20
1391.844831042004
 30
0.0
  0
SEQEND
  5
5E6
  8
0
  0
POLYLINE
  5
5E7
  8
0
 66
     1
 10
0.0
 20
0.0
 30
0.0
 70
     1
  0
VERTEX
  5
5E8
  8
0
 10
946.3548149830488
 20
1340.691290931279
 30
0.0
  0
VERTEX
  5
5E9
  8
0
 10
941.775994687552
 20
1336.112470635784
 30
0.0
  0
VERTEX
  5
5EA
  8
0
 10
941.7759946875519
 20
1326.88693811341
 30
0.0
  0
VERTEX
  5
5EB
  8
0
 10
916.734049429962
 20
1341.344911948912
 30
0.0
  0
VERTEX
  5
5EC
  8
0
 10
902.2760755944605
 20
1366.386857206502
 30
0.0
  0
VERTEX
  5
5ED
  8
0
 10
911.5016081168358
 20
1366.386857206502
 30
0.0
  0
VERTEX
  5
5EE
  8
0
 10
916.0804284123308
 20
1370.965677501997
 30
0.0
  0
VERTEX
  5
5EF
  8
0
 10
926.3186422121239
 20
1368.222356382405
 30
0.0
  0
VERTEX
  5
5F0
  8
0
 10
919.9890192038597
 20
1344.599881722807
 30
0.0
  0
VERTEX
  5
5F1
  8
0
 10
943.6114938634576
 20
1350.929504731072
 30
0.0
  0
SEQEND
  5
5F2
  8
0
  0
POLYLINE
  5
5F3
  8
0
 66
     1
 10
0.0
 20
0.0
 30
0.0
 70
     1
  0
VERTEX
  5
5F4
  8
0
 10
981.6919423585559
 20
1330.141907887307
 30
0.0
  0
VERTEX
  5
5F5
  8
0
 10
981.6919423585555
 20
1320.53608515232
 30
0.0
  0
VERTEX
  5
5F6
  8
0
 10
967.2339685230583
 20
1312.188770066458
 30
0.0
  0
VERTEX
  5
5F7
  8
0
 10
952.7759946875524
 20
1320.536085152324
 30
0.0
  0
VERTEX
  5
5F8
  8
0
 10
952.7759946875524
 20
1330.141907887306
 30
0.0
  0
VERTEX
  5
5F9
  8
0
 10
967.233968523055
 20
1344.599881722808
 30
0.0
  0
SEQEND
  5
5FA
  8
0
  0
POLYLINE
  5
5FB
  8
0
 66
     1
 10
0.0
 20
0.0
 30
0.0
 70
     1
  0
VERTEX
  5
5FC
  8
0
 10
1038.542714412734
 20
1377.3868572065
 30
0.0
  0
VERTEX
  5
5FD
  8
0
 10
1028.936891677753
 20
1377.3868572065
 30
0.0
  0
VERTEX
  5
5FE
  8
0
 10
1014.47891784225
 20
1391.844831042003
 30
0.0
  0
VERTEX
  5
5FF
  8
0
 10
1028.936891677752
 20
1406.302804877505
 30
0.0
  0
VERTEX
  5
600
  8
0
 10
1038.542714412735
 20
1406.302804877505
 30
0.0
  0
VERTEX
  5
601
  8
0
 10
1046.890029498598
 20
1391.844831042003
 30
0.0
  0
SEQEND
  5
602
  8
0
  0
POLYLINE
  5
603
  8
0
 66
     1
 10
0.0
 20
0.0
 30
0.0
 70
     1
  0
VERTEX
  5
604
  8
0
 10
952.7759946875536
 20
1453.5477541967
 30
0.0
  0
VERTEX
  5
605
  8
0
 10
952.7759946875539
 20
1463.153576931684
 30
0.0
  0
VERTEX
  5
606
  8
0
 10
967.2339685230545
 20
1471.500892017546
 30
0.0
  0
VERTEX
  5
607
  8
0
 10
981.6919423585571
 20
1463.153576931682
 30
0.0
  0
VERTEX
  5
608
  8
0
 10
981.6919423585571
 20
1453.5477541967
 30
0.0
  0
VERTEX
  5
609
  8
0
 10
967.2339685230547
 20
1439.089780361198
 30
0.0
  0
SEQEND
  5
60A
  8
0
  0
POLYLINE
  5
60B
  8
0
 66
     1
 10
0.0
 20
0.0
 30
0.0
 70
     1
  0
VERTEX
  5
60C
  8
0
 10
988.1131220630609
 20
1442.998371152727
 30
0.0
  0
VERTEX
  5
60D
  8
0
 10
992.6919423585566
 20
1447.577191448224
 30
0.0
  0
VERTEX
  5
60E
  8
0
 10
992.6919423585566
 20
1456.802723970597
 30
0.0
  0
VERTEX
  5
60F
  8
0
 10
1017.733887616147
 20
1442.344750135095
 30
0.0
  0
VERTEX
  5
610
  8
0
 10
1032.191861451649
 20
1417.302804877505
 30
0.0
  0
VERTEX
  5
611
  8
0
 10
1022.966328929275
 20
1417.302804877505
 30
0.0
  0
VERTEX
  5
612
  8
0
 10
1018.387508633779
 20
1412.723984582009
 30
0.0
  0
VERTEX
  5
613
  8
0
 10
1008.149294833986
 20
1415.4673057016
 30
0.0
  0
VERTEX
  5
614
  8
0
 10
1014.478917842251
 20
1439.089780361199
 30
0.0
  0
VERTEX
  5
615
  8
0
 10
990.8564431826524
 20
1432.760157352934
 30
0.0
  0
SEQEND
  5
616
  8
0
  0
POLYLINE
  5
617
  8
0
 66
     1
 10
0.0
 20
0.0
 30
0.0
 70
     1
  0
VERTEX
  5
618
  8
0
 10
1059.591735420771
 20
1391.844831042001
 30
0.0
  0
VERTEX
  5
619
  8
0
 10
1051.244420334907
 20
1377.3868572065
 30
0.0
  0
VERTEX
  5
61A
  8
0
 10
1080.16036800591
 20
1377.3868572065
 30
0.0
  0
VERTEX
  5
61B
  8
0
 10
1105.2023132635
 20
1391.844831042001
 30
0.0
  0
VERTEX
  5
61C
  8
0
 10
1080.16036800591
 20
1406.302804877504
 30
0.0
  0
VERTEX
  5
61D
  8
0
 10
1051.244420334906
 20
1406.302804877504
 30
0.0
  0
SEQEND
  5
61E
  8
0
  0
POLYLINE
  5
61F
  8
0
 66
     1
 10
0.0
 20
0.0
 30
0.0
 70
     1
  0
VERTEX
  5
620
  8
0
 10
967.2339685230536
 20
1253.876486301557
 30
0.0
  0
VERTEX
  5
621
  8
0
 10
952.7759946875518
 20
1278.918431559148
 30
0.0
  0
VERTEX
  5
622
  8
0
 10
952.7759946875522
 20
1307.834379230151
 30
0.0
  0
VERTEX
  5
623
  8
0
 10
967.233968523052
 20
1299.487064144288
 30
0.0
  0
VERTEX
  5
624
  8
0
 10
981.6919423585555
 20
1307.834379230151
 30
0.0
  0
VERTEX
  5
625
  8
0
 10
981.691942358555
 20
1278.918431559147
 30
0.0
  0
SEQEND
  5
626
  8
0
  0
POLYLINE
  5
627
  8
0
 66
     1
 10
0.0
 20
0.0
 30
0.0
 70
     1
  0
VERTEX
  5
628
  8
0
 10
829.2656237826094
 20
1391.844831042005
 30
0.0
  0
VERTEX
  5
629
  8
0
 10
854.3075690401997
 20
1406.302804877506
 30
0.0
  0
VERTEX
  5
62A
  8
0
 10
883.223516711203
 20
1406.302804877505
 30
0.0
  0
VERTEX
  5
62B
  8
0
 10
874.8762016253395
 20
1391.844831042004
 30
0.0
  0
VERTEX
  5
62C
  8
0
 10
883.2235167112027
 20
1377.386857206503
 30
0.0
  0
VERTEX
  5
62D
  8
0
 10
854.3075690401995
 20
1377.386857206503
 30
0.0
  0
SEQEND
  5
62E
  8
0
  0
POLYLINE
  5
62F
  8
0
 66
     1
 10
0.0
 20
0.0
 30
0.0
 70
     1
  0
VERTEX
  5
630
  8
0
 10
967.2339685230561
 20
1529.813175782449
 30
0.0
  0
VERTEX
  5
631
  8
0
 10
981.6919423585573
 20
1504.771230524858
 30
0.0
  0
VERTEX
  5
632
  8
0
 10
981.6919423585573
 20
1475.855282853854
 30
0.0
  0
VERTEX
  5
633
  8
0
 10
967.2339685230531
 20
1484.202597939719
 30
0.0
  0
VERTEX
  5
634
  8
0
 10
952.7759946875541
 20
1475.855282853856
 30
0.0
  0
VERTEX
  5
635
  8
0
 10
952.7759946875544
 20
1504.771230524859
 30
0.0
  0
SEQEND
  5
636
  8
0
  0
POLYLINE
  5
637
  8
0
 66
     1
 10
0.0
 20
0.0
 30
0.0
 70
     1
  0
VERTEX
  5
638
  8
0
 10
941.7759946875518
 20
1300.923807206102
 30
0.0
  0
VERTEX
  5
639
  8
0
 10
941.7759946875518
 20
1314.185232191237
 30
0.0
  0
VERTEX
  5
63A
  8
0
 10
930.2912637600399
 20
1320.815944683808
 30
0.0
  0
VERTEX
  5
63B
  8
0
 10
898.9143953548229
 20
1289.439076278591
 30
0.0
  0
SEQEND
  5
63C
  8
0
  0
POLYLINE
  5
63D
  8
0
 66
     1
 10
0.0
 20
0.0
 30
0.0
 70
     1
  0
VERTEX
  5
63E
  8
0
 10
1004.176673286068
 20
1320.815944683806
 30
0.0
  0
VERTEX
  5
63F
  8
0
 10
992.6919423585562
 20
1314.185232191237
 30
0.0
  0
VERTEX
  5
640
  8
0
 10
992.6919423585559
 20
1300.923807206101
 30
0.0
  0
VERTEX
  5
641
  8
0
 10
1035.553541691284
 20
1289.439076278589
 30
0.0
  0
SEQEND
  5
642
  8
0
  0
POLYLINE
  5
643
  8
0
 66
     1
 10
0.0
 20
0.0
 30
0.0
 70
     1
  0
VERTEX
  5
644
  8
0
 10
1098.652238233061
 20
1308.374257991802
 30
0.0
  0
VERTEX
  5
645
  8
0
 10
1082.239366726965
 20
1324.787129497898
 30
0.0
  0
VERTEX
  5
646
  8
0
 10
1072.702465536838
 20
1360.37932928622
 30
0.0
  0
VERTEX
  5
647
  8
0
 10
1083.107809122652
 20
1366.3868572065
 30
0.0
  0
VERTEX
  5
648
  8
0
 10
1095.122864963216
 20
1366.386857206499
 30
0.0
  0
VERTEX
  5
649
  8
0
 10
1104.659766153342
 20
1330.79465741818
 30
0.0
  0
SEQEND
  5
64A
  8
0
  0
POLYLINE
  5
64B
  8
0
 66
     1
 10
0.0
 20
0.0
 30
0.0
 70
     1
  0
VERTEX
  5
64C
  8
0
 10
1068.254616603693
 20
1290.824182961363
 30
0.0
  0
VERTEX
  5
64D
  8
0
 10
1045.834217177316
 20
1296.831710881645
 30
0.0
  0
VERTEX
  5
64E
  8
0
 10
1019.778918579124
 20
1322.887009479838
 30
0.0
  0
VERTEX
  5
64F
  8
0
 10
1025.786446499404
 20
1333.292353065652
 30
0.0
  0
VERTEX
  5
650
  8
0
 10
1036.191790085221
 20
1339.299880985934
 30
0.0
  0
VERTEX
  5
651
  8
0
 10
1062.247088683412
 20
1313.244582387741
 30
0.0
  0
SEQEND
  5
652
  8
0
  0
POLYLINE
  5
653
  8
0
 66
     1
 10
0.0
 20
0.0
 30
0.0
 70
     1
  0
VERTEX
  5
654
  8
0
 10
1050.704541573253
 20
1260.426561331996
 30
0.0
  0
VERTEX
  5
655
  8
0
 10
1028.284142146876
 20
1254.419033411716
 30
0.0
  0
VERTEX
  5
656
  8
0
 10
992.6919423585548
 20
1263.955934601845
 30
0.0
  0
VERTEX
  5
657
  8
0
 10
992.691942358555
 20
1275.970990442405
 30
0.0
  0
VERTEX
  5
658
  8
0
 10
998.699470278837
 20
1286.376334028221
 30
0.0
  0
VERTEX
  5
659
  8
0
 10
1034.291670067156
 20
1276.839432838093
 30
0.0
  0
SEQEND
  5
65A
  8
0
  0
POLYLINE
  5
65B
  8
0
 66
     1
 10
0.0
 20
0.0
 30
0.0
 70
     1
  0
VERTEX
  5
65C
  8
0
 10
1094.91742835722
 20
1294.435757778554
 30
0.0
  0
VERTEX
  5
65D
  8
0
 10
1092.228464933597
 20
1284.400409661898
 30
0.0
  0
VERTEX
  5
65E
  8
0
 10
1082.193116816941
 20
1287.089373085522
 30
0.0
  0
VERTEX
  5
65F
  8
0
 10
1074.846732123909
 20
1314.506454011865
 30
0.0
  0
SEQEND
  5
660
  8
0
  0
POLYLINE
  5
661
  8
0
 66
     1
 10
0.0
 20
0.0
 30
0.0
 70
     1
  0
VERTEX
  5
662
  8
0
 10
1071.989426479533
 20
1276.885682748115
 30
0.0
  0
VERTEX
  5
663
  8
0
 10
1074.678389903157
 20
1266.850334631459
 30
0.0
  0
VERTEX
  5
664
  8
0
 10
1064.643041786501
 20
1264.161371207837
 30
0.0
  0
VERTEX
  5
665
  8
0
 10
1044.572345553191
 20
1284.232067441148
 30
0.0
  0
SEQEND
  5
666
  8
0
  0
POLYLINE
  5
667
  8
0
 66
     1
 10
0.0
 20
0.0
 30
0.0
 70
     1
  0
VERTEX
  5
668
  8
0
 10
1058.15499235896
 20
1366.3868572065
 30
0.0
  0
VERTEX
  5
669
  8
0
 10
1044.893567373821
 20
1366.3868572065
 30
0.0
  0
VERTEX
  5
66A
  8
0
 10
1038.262854881252
 20
1354.90212627899
 30
0.0
  0
VERTEX
  5
66B
  8
0
 10
1069.63972328647
 20
1323.525257873772
 30
0.0
  0
SEQEND
  5
66C
  8
0
  0
POLYLINE
  5
66D
  8
0
 66
     1
 10
0.0
 20
0.0
 30
0.0
 70
     1
  0
VERTEX
  5
66E
  8
0
 10
1069.639723286471
 20
1460.164404210232
 30
0.0
  0
VERTEX
  5
66F
  8
0
 10
1038.262854881253
 20
1428.787535805014
 30
0.0
  0
VERTEX
  5
670
  8
0
 10
1044.893567373821
 20
1417.302804877504
 30
0.0
  0
VERTEX
  5
671
  8
0
 10
1058.15499235896
 20
1417.302804877504
 30
0.0
  0
SEQEND
  5
672
  8
0
  0
POLYLINE
  5
673
  8
0
 66
     1
 10
0.0
 20
0.0
 30
0.0
 70
     1
  0
VERTEX
  5
674
  8
0
 10
1098.652238233062
 20
1475.315404092201
 30
0.0
  0
VERTEX
  5
675
  8
0
 10
1082.239366726966
 20
1458.902532586105
 30
0.0
  0
VERTEX
  5
676
  8
0
 10
1072.702465536838
 20
1423.310332797784
 30
0.0
  0
VERTEX
  5
677
  8
0
 10
1083.107809122652
 20
1417.302804877504
 30
0.0
  0
VERTEX
  5
678
  8
0
 10
1095.122864963216
 20
1417.302804877504
 30
0.0
  0
VERTEX
  5
679
  8
0
 10
1104.659766153343
 20
1452.895004665823
 30
0.0
  0
SEQEND
  5
67A
  8
0
  0
POLYLINE
  5
67B
  8
0
 66
     1
 10
0.0
 20
0.0
 30
0.0
 70
     1
  0
VERTEX
  5
67C
  8
0
 10
1068.254616603695
 20
1492.865479122641
 30
0.0
  0
VERTEX
  5
67D
  8
0
 10
1045.834217177318
 20
1486.85795120236
 30
0.0
  0
VERTEX
  5
67E
  8
0
 10
1019.778918579125
 20
1460.802652604167
 30
0.0
  0
VERTEX
  5
67F
  8
0
 10
1025.786446499405
 20
1450.397309018353
 30
0.0
  0
VERTEX
  5
680
  8
0
 10
1036.191790085221
 20
1444.389781098071
 30
0.0
  0
VERTEX
  5
681
  8
0
 10
1062.247088683413
 20
1470.445079696263
 30
0.0
  0
SEQEND
  5
682
  8
0
  0
POLYLINE
  5
683
  8
0
 66
     1
 10
0.0
 20
0.0
 30
0.0
 70
     1
  0
VERTEX
  5
684
  8
0
 10
1050.704541573255
 20
1523.263100752008
 30
0.0
  0
VERTEX
  5
685
  8
0
 10
1028.284142146879
 20
1529.270628672289
 30
0.0
  0
VERTEX
  5
686
  8
0
 10
992.6919423585575
 20
1519.733727482161
 30
0.0
  0
VERTEX
  5
687
  8
0
 10
992.6919423585575
 20
1507.718671641601
 30
0.0
  0
VERTEX
  5
688
  8
0
 10
998.6994702788393
 20
1497.313328055784
 30
0.0
  0
VERTEX
  5
689
  8
0
 10
1034.291670067159
 20
1506.850229245912
 30
0.0
  0
SEQEND
  5
68A
  8
0
  0
POLYLINE
  5
68B
  8
0
 66
     1
 10
0.0
 20
0.0
 30
0.0
 70
     1
  0
VERTEX
  5
68C
  8
0
 10
1094.917428357222
 20
1489.253904305449
 30
0.0
  0
VERTEX
  5
68D
  8
0
 10
1092.228464933599
 20
1499.289252422105
 30
0.0
  0
VERTEX
  5
68E
  8
0
 10
1082.193116816943
 20
1496.600288998481
 30
0.0
  0
VERTEX
  5
68F
  8
0
 10
1074.846732123911
 20
1469.183208072138
 30
0.0
  0
SEQEND
  5
690
  8
0
  0
POLYLINE
  5
691
  8
0
 66
     1
 10
0.0
 20
0.0
 30
0.0
 70
     1
  0
VERTEX
  5
692
  8
0
 10
1071.989426479536
 20
1506.803979335888
 30
0.0
  0
VERTEX
  5
693
  8
0
 10
1074.678389903159
 20
1516.839327452544
 30
0.0
  0
VERTEX
  5
694
  8
0
 10
1064.643041786503
 20
1519.528290876167
 30
0.0
  0
VERTEX
  5
695
  8
0
 10
1044.572345553193
 20
1499.457594642856
 30
0.0
  0
SEQEND
  5
696
  8
0
  0
POLYLINE
  5
697
  8
0
 66
     1
 10
0.0
 20
0.0
 30
0.0
 70
     1
  0
VERTEX
  5
698
  8
0
 10
876.3129446871532
 20
1417.302804877506
 30
0.0
  0
VERTEX
  5
699
  8
0
 10
889.5743696722893
 20
1417.302804877506
 30
0.0
  0
VERTEX
  5
69A
  8
0
 10
896.2050821648588
 20
1428.787535805018
 30
0.0
  0
VERTEX
  5
69B
  8
0
 10
864.8282137596422
 20
1460.164404210235
 30
0.0
  0
SEQEND
  5
69C
  8
0
  0
POLYLINE
  5
69D
  8
0
 66
     1
 10
0.0
 20
0.0
 30
0.0
 70
     1
  0
VERTEX
  5
69E
  8
0
 10
896.2050821648564
 20
1354.902126278993
 30
0.0
  0
VERTEX
  5
69F
  8
0
 10
889.5743696722886
 20
1366.386857206503
 30
0.0
  0
VERTEX
  5
6A0
  8
0
 10
876.3129446871493
 20
1366.386857206503
 30
0.0
  0
VERTEX
  5
6A1
  8
0
 10
864.8282137596385
 20
1323.525257873775
 30
0.0
  0
SEQEND
  5
6A2
  8
0
  0
POLYLINE
  5
6A3
  8
0
 66
     1
 10
0.0
 20
0.0
 30
0.0
 70
     1
  0
VERTEX
  5
6A4
  8
0
 10
866.2133204424146
 20
1290.824182961366
 30
0.0
  0
VERTEX
  5
6A5
  8
0
 10
888.6337198687912
 20
1296.831710881647
 30
0.0
  0
VERTEX
  5
6A6
  8
0
 10
914.6890184669845
 20
1322.88700947984
 30
0.0
  0
VERTEX
  5
6A7
  8
0
 10
908.6814905467044
 20
1333.292353065654
 30
0.0
  0
VERTEX
  5
6A8
  8
0
 10
898.2761469608878
 20
1339.299880985936
 30
0.0
  0
VERTEX
  5
6A9
  8
0
 10
872.2208483626961
 20
1313.244582387744
 30
0.0
  0
SEQEND
  5
6AA
  8
0
  0
POLYLINE
  5
6AB
  8
0
 66
     1
 10
0.0
 20
0.0
 30
0.0
 70
     1
  0
VERTEX
  5
6AC
  8
0
 10
883.7633954728539
 20
1260.426561331999
 30
0.0
  0
VERTEX
  5
6AD
  8
0
 10
906.1837948992305
 20
1254.419033411718
 30
0.0
  0
VERTEX
  5
6AE
  8
0
 10
941.7759946875518
 20
1263.955934601845
 30
0.0
  0
VERTEX
  5
6AF
  8
0
 10
941.7759946875518
 20
1275.970990442406
 30
0.0
  0
VERTEX
  5
6B0
  8
0
 10
935.7684667672701
 20
1286.376334028222
 30
0.0
  0
VERTEX
  5
6B1
  8
0
 10
900.1762669789508
 20
1276.839432838095
 30
0.0
  0
SEQEND
  5
6B2
  8
0
  0
POLYLINE
  5
6B3
  8
0
 66
     1
 10
0.0
 20
0.0
 30
0.0
 70
     1
  0
VERTEX
  5
6B4
  8
0
 10
835.8156988130471
 20
1308.374257991806
 30
0.0
  0
VERTEX
  5
6B5
  8
0
 10
852.2285703191429
 20
1324.787129497902
 30
0.0
  0
VERTEX
  5
6B6
  8
0
 10
861.7654715092709
 20
1360.379329286223
 30
0.0
  0
VERTEX
  5
6B7
  8
0
 10
851.3601279234571
 20
1366.386857206503
 30
0.0
  0
VERTEX
  5
6B8
  8
0
 10
839.3450720828936
 20
1366.386857206503
 30
0.0
  0
VERTEX
  5
6B9
  8
0
 10
829.8081708927664
 20
1330.794657418184
 30
0.0
  0
SEQEND
  5
6BA
  8
0
  0
POLYLINE
  5
6BB
  8
0
 66
     1
 10
0.0
 20
0.0
 30
0.0
 70
     1
  0
VERTEX
  5
6BC
  8
0
 10
839.5505086888876
 20
1294.435757778558
 30
0.0
  0
VERTEX
  5
6BD
  8
0
 10
842.2394721125104
 20
1284.400409661902
 30
0.0
  0
VERTEX
  5
6BE
  8
0
 10
852.2748202291663
 20
1287.089373085525
 30
0.0
  0
VERTEX
  5
6BF
  8
0
 10
859.6212049221983
 20
1314.506454011869
 30
0.0
  0
SEQEND
  5
6C0
  8
0
  0
POLYLINE
  5
6C1
  8
0
 66
     1
 10
0.0
 20
0.0
 30
0.0
 70
     1
  0
VERTEX
  5
6C2
  8
0
 10
862.4785105665732
 20
1276.885682748118
 30
0.0
  0
VERTEX
  5
6C3
  8
0
 10
859.78954714295
 20
1266.850334631463
 30
0.0
  0
VERTEX
  5
6C4
  8
0
 10
869.8248952596057
 20
1264.16137120784
 30
0.0
  0
VERTEX
  5
6C5
  8
0
 10
889.8955914929165
 20
1284.232067441151
 30
0.0
  0
SEQEND
  5
6C6
  8
0
  0
POLYLINE
  5
6C7
  8
0
 66
     1
 10
0.0
 20
0.0
 30
0.0
 70
     1
  0
VERTEX
  5
6C8
  8
0
 10
992.6919423585568
 20
1482.765854877905
 30
0.0
  0
VERTEX
  5
6C9
  8
0
 10
992.6919423585566
 20
1469.504429892769
 30
0.0
  0
VERTEX
  5
6CA
  8
0
 10
1004.176673286069
 20
1462.873717400199
 30
0.0
  0
VERTEX
  5
6CB
  8
0
 10
1035.553541691286
 20
1494.250585805416
 30
0.0
  0
SEQEND
  5
6CC
  8
0
  0
POLYLINE
  5
6CD
  8
0
 66
     1
 10
0.0
 20
0.0
 30
0.0
 70
     1
  0
VERTEX
  5
6CE
  8
0
 10
930.2912637600441
 20
1462.873717400201
 30
0.0
  0
VERTEX
  5
6CF
  8
0
 10
941.7759946875535
 20
1469.50442989277
 30
0.0
  0
VERTEX
  5
6D0
  8
0
 10
941.7759946875537
 20
1482.765854877909
 30
0.0
  0
VERTEX
  5
6D1
  8
0
 10
898.9143953548264
 20
1494.25058580542
 30
0.0
  0
SEQEND
  5
6D2
  8
0
  0
POLYLINE
  5
6D3
  8
0
 66
     1
 10
0.0
 20
0.0
 30
0.0
 70
     1
  0
VERTEX
  5
6D4
  8
0
 10
883.7633954728572
 20
1523.263100752011
 30
0.0
  0
VERTEX
  5
6D5
  8
0
 10
900.176266978953
 20
1506.850229245915
 30
0.0
  0
VERTEX
  5
6D6
  8
0
 10
935.768466767274
 20
1497.313328055787
 30
0.0
  0
VERTEX
  5
6D7
  8
0
 10
941.7759946875544
 20
1507.718671641601
 30
0.0
  0
VERTEX
  5
6D8
  8
0
 10
941.7759946875544
 20
1519.733727482164
 30
0.0
  0
VERTEX
  5
6D9
  8
0
 10
906.1837948992352
 20
1529.270628672292
 30
0.0
  0
SEQEND
  5
6DA
  8
0
  0
POLYLINE
  5
6DB
  8
0
 66
     1
 10
0.0
 20
0.0
 30
0.0
 70
     1
  0
VERTEX
  5
6DC
  8
0
 10
866.2133204424174
 20
1492.865479122643
 30
0.0
  0
VERTEX
  5
6DD
  8
0
 10
872.2208483626985
 20
1470.445079696267
 30
0.0
  0
VERTEX
  5
6DE
  8
0
 10
898.2761469608913
 20
1444.389781098073
 30
0.0
  0
VERTEX
  5
6DF
  8
0
 10
908.6814905467054
 20
1450.397309018353
 30
0.0
  0
VERTEX
  5
6E0
  8
0
 10
914.6890184669871
 20
1460.80265260417
 30
0.0
  0
VERTEX
  5
6E1
  8
0
 10
888.6337198687954
 20
1486.857951202362
 30
0.0
  0
SEQEND
  5
6E2
  8
0
  0
POLYLINE
  5
6E3
  8
0
 66
     1
 10
0.0
 20
0.0
 30
0.0
 70
     1
  0
VERTEX
  5
6E4
  8
0
 10
835.8156988130502
 20
1475.315404092204
 30
0.0
  0
VERTEX
  5
6E5
  8
0
 10
829.8081708927695
 20
1452.895004665827
 30
0.0
  0
VERTEX
  5
6E6
  8
0
 10
839.345072082897
 20
1417.302804877506
 30
0.0
  0
VERTEX
  5
6E7
  8
0
 10
851.3601279234575
 20
1417.302804877506
 30
0.0
  0
VERTEX
  5
6E8
  8
0
 10
861.765471509274
 20
1423.310332797788
 30
0.0
  0
VERTEX
  5
6E9
  8
0
 10
852.2285703191467
 20
1458.902532586107
 30
0.0
  0
SEQEND
  5
6EA
  8
0
  0
POLYLINE
  5
6EB
  8
0
 66
     1
 10
0.0
 20
0.0
 30
0.0
 70
     1
  0
VERTEX
  5
6EC
  8
0
 10
869.8248952596088
 20
1519.52829087617
 30
0.0
  0
VERTEX
  5
6ED
  8
0
 10
859.7895471429533
 20
1516.839327452547
 30
0.0
  0
VERTEX
  5
6EE
  8
0
 10
862.4785105665766
 20
1506.803979335891
 30
0.0
  0
VERTEX
  5
6EF
  8
0
 10
889.8955914929198
 20
1499.457594642859
 30
0.0
  0
SEQEND
  5
6F0
  8
0
  0
POLYLINE
  5
6F1
  8
0
 66
     1
 10
0.0
 20
0.0
 30
0.0
 70
     1
  0
VERTEX
  5
6F2
  8
0
 10
852.2748202291696
 20
1496.600288998484
 30
0.0
  0
VERTEX
  5
6F3
  8
0
 10
842.2394721125139
 20
1499.289252422108
 30
0.0
  0
VERTEX
  5
6F4
  8
0
 10
839.5505086888909
 20
1489.253904305452
 30
0.0
  0
VERTEX
  5
6F5
  8
0
 10
859.621204922202
 20
1469.183208072141
 30
0.0
  0
SEQEND
  5
6F6
  8
0
  0
POLYLINE
  5
6F7
  8
0
 66
     1
 10
0.0
 20
0.0
 30
0.0
 70
     1
  0
VERTEX
  5
6F8
  8
0
 10
992.6919423585562
 20
1326.886938113407
 30
0.0
  0
VERTEX
  5
6F9
  8
0
 10
992.6919423585582
 20
1336.112470635781
 30
0.0
  0
VERTEX
  5
6FA
  8
0
 10
988.1131220630609
 20
1340.691290931279
 30
0.0
  0
VERTEX
  5
6FB
  8
0
 10
990.8564431826527
 20
1350.929504731072
 30
0.0
  0
VERTEX
  5
6FC
  8
0
 10
1014.478917842251
 20
1344.599881722807
 30
0.0
  0
VERTEX
  5
6FD
  8
0
 10
1008.149294833986
 20
1368.222356382405
 30
0.0
  0
VERTEX
  5
6FE
  8
0
 10
1018.387508633779
 20
1370.965677501997
 30
0.0
  0
VERTEX
  5
6FF
  8
0
 10
1022.966328929276
 20
1366.3868572065
 30
0.0
  0
VERTEX
  5
700
  8
0
 10
1032.191861451648
 20
1366.3868572065
 30
0.0
  0
VERTEX
  5
701
  8
0
 10
1017.733887616147
 20
1341.34491194891
 30
0.0
  0
SEQEND
  5
702
  8
0
  0
POLYLINE
  5
703
  8
0
 66
     1
 10
0.0
 20
0.0
 30
0.0
 70
     1
  0
VERTEX
  5
704
  8
0
 10
997.5083550937727
 20
1391.844831042003
 30
0.0
  0
VERTEX
  5
705
  8
0
 10
1008.589549662646
 20
1402.926025610876
 30
0.0
  0
VERTEX
  5
706
  8
0
 10
993.4523563772868
 20
1406.982024327362
 30
0.0
  0
VERTEX
  5
707
  8
0
 10
997.5083550937729
 20
1422.119217612721
 30
0.0
  0
VERTEX
  5
708
  8
0
 10
982.3711618084135
 20
1418.063218896235
 30
0.0
  0
VERTEX
  5
709
  8
0
 10
978.3151630919281
 20
1433.200412181594
 30
0.0
  0
VERTEX
  5
70A
  8
0
 10
967.2339685230545
 20
1422.119217612721
 30
0.0
  0
VERTEX
  5
70B
  8
0
 10
956.1527739541816
 20
1433.200412181594
 30
0.0
  0
VERTEX
  5
70C
  8
0
 10
952.0967752376957
 20
1418.063218896235
 30
0.0
  0
VERTEX
  5
70D
  8
0
 10
936.959581952337
 20
1422.119217612721
 30
0.0
  0
VERTEX
  5
70E
  8
0
 10
941.0155806688228
 20
1406.982024327361
 30
0.0
  0
VERTEX
  5
70F
  8
0
 10
925.8783873834636
 20
1402.926025610876
 30
0.0
  0
VERTEX
  5
710
  8
0
 10
936.9595819523374
 20
1391.844831042003
 30
0.0
  0
VERTEX
  5
711
  8
0
 10
925.8783873834639
 20
1380.76363647313
 30
0.0
  0
VERTEX
  5
712
  8
0
 10
941.0155806688231
 20
1376.707637756644
 30
0.0
  0
VERTEX
  5
713
  8
0
 10
936.9595819523372
 20
1361.570444471285
 30
0.0
  0
VERTEX
  5
714
  8
0
 10
952.0967752376964
 20
1365.626443187771
 30
0.0
  0
VERTEX
  5
715
  8
0
 10
956.1527739541816
 20
1350.489249902412
 30
0.0
  0
VERTEX
  5
716
  8
0
 10
967.2339685230552
 20
1361.570444471285
 30
0.0
  0
VERTEX
  5
717
  8
0
 10
978.3151630919283
 20
1350.489249902412
 30
0.0
  0
VERTEX
  5
718
  8
0
 10
982.3711618084142
 20
1365.626443187771
 30
0.0
  0
VERTEX
  5
719
  8
0
 10
997.5083550937729
 20
1361.570444471285
 30
0.0
  0
VERTEX
  5
71A
  8
0
 10
993.4523563772868
 20
1376.707637756644
 30
0.0
  0
VERTEX
  5
71B
  8
0
 10
1008.589549662646
 20
1380.76363647313
 30
0.0
  0
SEQEND
  5
71C
  8
0
  0
ENDSEC
  0
EOF
