  0
SECTION
  2
HEADER
  9
$ACADVER
  1
AC1009
  9
$DWGCODEPAGE
  3
ansi_1252
  9
$INSBASE
 10
0.0
 20
0.0
 30
0.0
  9
$EXTMIN
 10
1.000000000000000E+20
 20
1.000000000000000E+20
 30
1.000000000000000E+20
  9
$EXTMAX
 10
-1.000000000000000E+20
 20
-1.000000000000000E+20
 30
-1.000000000000000E+20
  9
$LIMMIN
 10
0.0
 20
0.0
  9
$LIMMAX
 10
12.0
 20
9.0
  9
$ORTHOMODE
 70
     0
  9
$REGENMODE
 70
     1
  9
$FILLMODE
 70
     1
  9
$QTEXTMODE
 70
     0
  9
$MIRRTEXT
 70
     1
  9
$DRAGMODE
 70
     2
  9
$LTSCALE
 40
1.0
  9
$OSMODE
 70
    37
  9
$ATTMODE
 70
     1
  9
$TEXTSIZE
 40
0.2
  9
$TRACEWID
 40
0.05
  9
$TEXTSTYLE
  7
STANDARD
  9
$CLAYER
  8
LAYER_01
  9
$CELTYPE
  6
BYLAYER
  9
$CECOLOR
 62
   256
  9
$DIMSCALE
 40
1.0
  9
$DIMASZ
 40
0.18
  9
$DIMEXO
 40
0.0625
  9
$DIMDLI
 40
0.38
  9
$DIMRND
 40
0.0
  9
$DIMDLE
 40
0.0
  9
$DIMEXE
 40
0.18
  9
$DIMTP
 40
0.0
  9
$DIMTM
 40
0.0
  9
$DIMTXT
 40
0.18
  9
$DIMCEN
 40
0.09
  9
$DIMTSZ
 40
0.0
  9
$DIMTOL
 70
     0
  9
$DIMLIM
 70
     0
  9
$DIMTIH
 70
     1
  9
$DIMTOH
 70
     1
  9
$DIMSE1
 70
     0
  9
$DIMSE2
 70
     0
  9
$DIMTAD
 70
     0
  9
$DIMZIN
 70
     0
  9
$DIMBLK
  1

  9
$DIMASO
 70
     1
  9
$DIMSHO
 70
     1
  9
$DIMPOST
  1

  9
$DIMAPOST
  1

  9
$DIMALT
 70
     0
  9
$DIMALTD
 70
     2
  9
$DIMALTF
 40
25.4
  9
$DIMLFAC
 40
1.0
  9
$DIMTOFL
 70
     0
  9
$DIMTVP
 40
0.0
  9
$DIMTIX
 70
     0
  9
$DIMSOXD
 70
     0
  9
$DIMSAH
 70
     0
  9
$DIMBLK1
  1

  9
$DIMBLK2
  1

  9
$DIMSTYLE
  2
STANDARD_ACAD
  9
$DIMCLRD
 70
     0
  9
$DIMCLRE
 70
     0
  9
$DIMCLRT
 70
     0
  9
$DIMTFAC
 40
1.0
  9
$DIMGAP
 40
0.09
  9
$LUNITS
 70
     2
  9
$LUPREC
 70
     3
  9
$SKETCHINC
 40
0.1
  9
$FILLETRAD
 40
0.5
  9
$AUNITS
 70
     0
  9
$AUPREC
 70
     0
  9
$MENU
  1
.
  9
$ELEVATION
 40
0.0
  9
$PELEVATION
 40
0.0
  9
$THICKNESS
 40
0.0
  9
$LIMCHECK
 70
     0
  9
$CHAMFERA
 40
0.0
  9
$CHAMFERB
 40
0.0
  9
$SKPOLY
 70
     0
  9
$TDCREATE
 40
2459747.914695301
  9
$TDUPDATE
 40
2459747.914695301
  9
$TDINDWG
 40
0.0000000116
  9
$TDUSRTIMER
 40
0.0000000116
  9
$USRTIMER
 70
     1
  9
$ANGBASE
 50
0.0
  9
$ANGDIR
 70
     0
  9
$PDMODE
 70
     0
  9
$PDSIZE
 40
0.0
  9
$PLINEWID
 40
0.0
  9
$COORDS
 70
     1
  9
$SPLFRAME
 70
     0
  9
$SPLINETYPE
 70
     6
  9
$SPLINESEGS
 70
     8
  9
$ATTDIA
 70
     0
  9
$ATTREQ
 70
     1
  9
$HANDLING
 70
     1
  9
$HANDSEED
  5
17A
  9
$SURFTAB1
 70
     6
  9
$SURFTAB2
 70
     6
  9
$SURFTYPE
 70
     6
  9
$SURFU
 70
     6
  9
$SURFV
 70
     6
  9
$UCSNAME
  2

  9
$UCSORG
 10
0.0
 20
0.0
 30
0.0
  9
$UCSXDIR
 10
1.0
 20
0.0
 30
0.0
  9
$UCSYDIR
 10
0.0
 20
1.0
 30
0.0
  9
$PUCSNAME
  2

  9
$PUCSORG
 10
0.0
 20
0.0
 30
0.0
  9
$PUCSXDIR
 10
1.0
 20
0.0
 30
0.0
  9
$PUCSYDIR
 10
0.0
 20
1.0
 30
0.0
  9
$USERI1
 70
     0
  9
$USERI2
 70
     0
  9
$USERI3
 70
     0
  9
$USERI4
 70
     0
  9
$USERI5
 70
     0
  9
$USERR1
 40
0.0
  9
$USERR2
 40
0.0
  9
$USERR3
 40
0.0
  9
$USERR4
 40
0.0
  9
$USERR5
 40
0.0
  9
$WORLDVIEW
 70
     1
  9
$SHADEDGE
 70
     3
  9
$SHADEDIF
 70
    70
  9
$TILEMODE
 70
     1
  9
$MAXACTVP
 70
    64
  9
$PLIMCHECK
 70
     0
  9
$PEXTMIN
 10
1.000000000000000E+20
 20
1.000000000000000E+20
 30
1.000000000000000E+20
  9
$PEXTMAX
 10
-1.000000000000000E+20
 20
-1.000000000000000E+20
 30
-1.000000000000000E+20
  9
$PLIMMIN
 10
0.0
 20
0.0
  9
$PLIMMAX
 10
12.0
 20
9.0
  9
$UNITMODE
 70
     0
  9
$VISRETAIN
 70
     1
  9
$PLINEGEN
 70
     0
  9
$PSLTSCALE
 70
     1
  0
ENDSEC
  0
SECTION
  2
TABLES
  0
TABLE
  2
VPORT
 70
     1
  0
VPORT
  2
*ACTIVE
 70
     0
 10
0.0
 20
0.0
 11
1.0
 21
1.0
 12
10.42990654205607
 22
4.5
 13
0.0
 23
0.0
 14
0.5
 24
0.5
 15
0.5
 25
0.5
 16
0.0
 26
0.0
 36
1.0
 17
0.0
 27
0.0
 37
0.0
 40
9.0
 41
1.972972972850329
 42
50.0
 43
0.0
 44
0.0
 50
0.0
 51
0.0
 71
     0
 72
   100
 73
     1
 74
     3
 75
     0
 76
     0
 77
     0
 78
     0
  0
ENDTAB
  0
TABLE
  2
LTYPE
 70
     1
  0
LTYPE
  2
CONTINUOUS
 70
     0
  3
Solid line
 72
    65
 73
     0
 40
0.0
  0
ENDTAB
  0
TABLE
  2
LAYER
 70
     2
  0
LAYER
  2
0
 70
     0
 62
     7
  6
CONTINUOUS
  0
LAYER
  2
LAYER_01
 70
     0
 62
     7
  6
CONTINUOUS
  0
ENDTAB
  0
TABLE
  2
STYLE
 70
     1
  0
STYLE
  2
STANDARD
 70
     0
 40
0.0
 41
1.0
 50
0.0
 71
     0
 42
0.2
  3
txt
  4

  0
ENDTAB
  0
TABLE
  2
VIEW
 70
     0
  0
ENDTAB
  0
TABLE
  2
UCS
 70
     0
  0
ENDTAB
  0
TABLE
  2
APPID
 70
     2
  0
APPID
  2
ACAD
 70
     0
  0
APPID
  2
RHINO
 70
     0
  0
ENDTAB
  0
TABLE
  2
DIMSTYLE
 70
     1
  0
DIMSTYLE
  2
STANDARD_ACAD
 70
     0
  3

  4

  5

  6

  7

 40
1.0
 41
0.18
 42
0.0625
 43
0.38
 44
0.18
 45
0.0
 46
0.0
 47
0.0
 48
0.0
140
0.18
141
0.09
142
0.0
143
25.4
144
1.0
145
0.0
146
1.0
147
0.09
 71
     0
 72
     0
 73
     1
 74
     1
 75
     0
 76
     0
 77
     0
 78
     0
170
     0
171
     2
172
     0
173
     0
174
     0
175
     0
176
     0
177
     0
178
     0
  0
ENDTAB
  0
ENDSEC
  0
SECTION
  2
BLOCKS
  0
BLOCK
  8
0
  2
$MODEL_SPACE
 70
     0
 10
0.0
 20
0.0
 30
0.0
  3
$MODEL_SPACE
  1

  0
ENDBLK
  5
21
  8
0
  0
BLOCK
 67
     1
  8
0
  2
$PAPER_SPACE
 70
     0
 10
0.0
 20
0.0
 30
0.0
  3
$PAPER_SPACE
  1

  0
ENDBLK
  5
1D
 67
     1
  8
0
  0
ENDSEC
  0
SECTION
  2
ENTITIES
  0
POLYLINE
  5
70
  8
LAYER_01
 66
     1
 10
0.0
 20
0.0
 30
0.0
 70
     1
  0
VERTEX
  5
71
  8
LAYER_01
 10
594.2950119319119
 20
479.7392891559311
 30
0.0
  0
VERTEX
  5
72
  8
LAYER_01
 10
594.1956774183012
 20
483.9170511133606
 30
0.0
  0
VERTEX
  5
73
  8
LAYER_01
 10
601.9083746235373
 20
491.2714973272091
 30
0.0
  0
VERTEX
  5
74
  8
LAYER_01
 10
598.0189730628089
 20
481.2117146744105
 30
0.0
  0
SEQEND
  5
75
  8
LAYER_01
  0
POLYLINE
  5
76
  8
LAYER_01
 66
     1
 10
0.0
 20
0.0
 30
0.0
 70
     1
  0
VERTEX
  5
77
  8
LAYER_01
 10
599.6510794206571
 20
474.3409142325465
 30
0.0
  0
VERTEX
  5
78
  8
LAYER_01
 10
601.1580665821336
 20
478.2386766693407
 30
0.0
  0
VERTEX
  5
79
  8
LAYER_01
 10
611.0980943907683
 20
482.0817775599781
 30
0.0
  0
VERTEX
  5
7A
  8
LAYER_01
 10
603.6550437406742
 20
474.2761598046511
 30
0.0
  0
SEQEND
  5
7B
  8
LAYER_01
  0
POLYLINE
  5
7C
  8
LAYER_01
 66
     1
 10
0.0
 20
0.0
 30
0.0
 70
     1
  0
VERTEX
  5
7D
  8
LAYER_01
 10
602.5335719033834
 20
467.303787841437
 30
0.0
  0
VERTEX
  5
7E
  8
LAYER_01
 10
605.417455605485
 20
470.3281517598986
 30
0.0
  0
VERTEX
  5
7F
  8
LAYER_01
 10
616.0715348902299
 20
470.0748300545216
 30
0.0
  0
VERTEX
  5
80
  8
LAYER_01
 10
606.2079721408246
 20
465.7117117418135
 30
0.0
  0
SEQEND
  5
81
  8
LAYER_01
  0
POLYLINE
  5
82
  8
LAYER_01
 66
     1
 10
0.0
 20
0.0
 30
0.0
 70
     1
  0
VERTEX
  5
83
  8
LAYER_01
 10
602.5036560294552
 20
459.6992486839398
 30
0.0
  0
VERTEX
  5
84
  8
LAYER_01
 10
606.3253911210077
 20
461.3897820934101
 30
0.0
  0
VERTEX
  5
85
  8
LAYER_01
 10
616.0715348902299
 20
457.0786037252955
 30
0.0
  0
VERTEX
  5
86
  8
LAYER_01
 10
605.2890980566915
 20
456.8222300665501
 30
0.0
  0
SEQEND
  5
87
  8
LAYER_01
  0
POLYLINE
  5
88
  8
LAYER_01
 66
     1
 10
0.0
 20
0.0
 30
0.0
 70
     1
  0
VERTEX
  5
89
  8
LAYER_01
 10
599.56588621949
 20
452.6850189114647
 30
0.0
  0
VERTEX
  5
8A
  8
LAYER_01
 10
603.7436481769195
 20
452.7843534250753
 30
0.0
  0
VERTEX
  5
8B
  8
LAYER_01
 10
611.098094390768
 20
445.0716562198393
 30
0.0
  0
VERTEX
  5
8C
  8
LAYER_01
 10
601.0383117379694
 20
448.9610577805677
 30
0.0
  0
SEQEND
  5
8D
  8
LAYER_01
  0
POLYLINE
  5
8E
  8
LAYER_01
 66
     1
 10
0.0
 20
0.0
 30
0.0
 70
     1
  0
VERTEX
  5
8F
  8
LAYER_01
 10
594.1675112961053
 20
447.3289514227193
 30
0.0
  0
VERTEX
  5
90
  8
LAYER_01
 10
598.0652737328995
 20
445.8219642612428
 30
0.0
  0
VERTEX
  5
91
  8
LAYER_01
 10
601.9083746235369
 20
435.8819364526082
 30
0.0
  0
VERTEX
  5
92
  8
LAYER_01
 10
594.1027568682099
 20
443.3249871027024
 30
0.0
  0
SEQEND
  5
93
  8
LAYER_01
  0
POLYLINE
  5
94
  8
LAYER_01
 66
     1
 10
0.0
 20
0.0
 30
0.0
 70
     1
  0
VERTEX
  5
95
  8
LAYER_01
 10
587.130384904996
 20
444.446458939993
 30
0.0
  0
VERTEX
  5
96
  8
LAYER_01
 10
590.1547488234576
 20
441.5625752378915
 30
0.0
  0
VERTEX
  5
97
  8
LAYER_01
 10
589.9014271180806
 20
430.9084959531465
 30
0.0
  0
VERTEX
  5
98
  8
LAYER_01
 10
585.5383088053725
 20
440.7720587025517
 30
0.0
  0
SEQEND
  5
99
  8
LAYER_01
  0
POLYLINE
  5
9A
  8
LAYER_01
 66
     1
 10
0.0
 20
0.0
 30
0.0
 70
     1
  0
VERTEX
  5
9B
  8
LAYER_01
 10
579.5258457474987
 20
444.4763748139213
 30
0.0
  0
VERTEX
  5
9C
  8
LAYER_01
 10
581.216379156969
 20
440.6546397223688
 30
0.0
  0
VERTEX
  5
9D
  8
LAYER_01
 10
576.9052007888544
 20
430.9084959531466
 30
0.0
  0
VERTEX
  5
9E
  8
LAYER_01
 10
576.648827130109
 20
441.690932786685
 30
0.0
  0
SEQEND
  5
9F
  8
LAYER_01
  0
POLYLINE
  5
A0
  8
LAYER_01
 66
     1
 10
0.0
 20
0.0
 30
0.0
 70
     1
  0
VERTEX
  5
A1
  8
LAYER_01
 10
572.5116159750233
 20
447.4141446238866
 30
0.0
  0
VERTEX
  5
A2
  8
LAYER_01
 10
572.6109504886341
 20
443.2363826664571
 30
0.0
  0
VERTEX
  5
A3
  8
LAYER_01
 10
564.898253283398
 20
435.8819364526086
 30
0.0
  0
VERTEX
  5
A4
  8
LAYER_01
 10
568.7876548441265
 20
445.9417191054072
 30
0.0
  0
SEQEND
  5
A5
  8
LAYER_01
  0
POLYLINE
  5
A6
  8
LAYER_01
 66
     1
 10
0.0
 20
0.0
 30
0.0
 70
     1
  0
VERTEX
  5
A7
  8
LAYER_01
 10
567.1555484862783
 20
452.8125195472712
 30
0.0
  0
VERTEX
  5
A8
  8
LAYER_01
 10
565.6485613248017
 20
448.914757110477
 30
0.0
  0
VERTEX
  5
A9
  8
LAYER_01
 10
555.7085335161671
 20
445.0716562198395
 30
0.0
  0
VERTEX
  5
AA
  8
LAYER_01
 10
563.1515841662613
 20
452.8772739751666
 30
0.0
  0
SEQEND
  5
AB
  8
LAYER_01
  0
POLYLINE
  5
AC
  8
LAYER_01
 66
     1
 10
0.0
 20
0.0
 30
0.0
 70
     1
  0
VERTEX
  5
AD
  8
LAYER_01
 10
564.2730560035517
 20
459.8496459383806
 30
0.0
  0
VERTEX
  5
AE
  8
LAYER_01
 10
561.3891723014501
 20
456.825282019919
 30
0.0
  0
VERTEX
  5
AF
  8
LAYER_01
 10
550.7350930167052
 20
457.0786037252959
 30
0.0
  0
VERTEX
  5
B0
  8
LAYER_01
 10
560.5986557661105
 20
461.4417220380041
 30
0.0
  0
SEQEND
  5
B1
  8
LAYER_01
  0
POLYLINE
  5
B2
  8
LAYER_01
 66
     1
 10
0.0
 20
0.0
 30
0.0
 70
     1
  0
VERTEX
  5
B3
  8
LAYER_01
 10
564.3029718774801
 20
467.4541850958778
 30
0.0
  0
VERTEX
  5
B4
  8
LAYER_01
 10
560.4812367859275
 20
465.7636516864075
 30
0.0
  0
VERTEX
  5
B5
  8
LAYER_01
 10
550.7350930167054
 20
470.0748300545221
 30
0.0
  0
VERTEX
  5
B6
  8
LAYER_01
 10
561.5175298502438
 20
470.3312037132675
 30
0.0
  0
SEQEND
  5
B7
  8
LAYER_01
  0
POLYLINE
  5
B8
  8
LAYER_01
 66
     1
 10
0.0
 20
0.0
 30
0.0
 70
     1
  0
VERTEX
  5
B9
  8
LAYER_01
 10
567.2407416874454
 20
474.4684148683531
 30
0.0
  0
VERTEX
  5
BA
  8
LAYER_01
 10
563.062979730016
 20
474.3690803547423
 30
0.0
  0
VERTEX
  5
BB
  8
LAYER_01
 10
555.7085335161674
 20
482.0817775599785
 30
0.0
  0
VERTEX
  5
BC
  8
LAYER_01
 10
565.7683161689661
 20
478.1923759992501
 30
0.0
  0
SEQEND
  5
BD
  8
LAYER_01
  0
POLYLINE
  5
BE
  8
LAYER_01
 66
     1
 10
0.0
 20
0.0
 30
0.0
 70
     1
  0
VERTEX
  5
BF
  8
LAYER_01
 10
572.6391166108301
 20
479.8244823570982
 30
0.0
  0
VERTEX
  5
C0
  8
LAYER_01
 10
568.7413541740359
 20
481.3314695185747
 30
0.0
  0
VERTEX
  5
C1
  8
LAYER_01
 10
564.8982532833984
 20
491.2714973272093
 30
0.0
  0
VERTEX
  5
C2
  8
LAYER_01
 10
572.7038710387255
 20
483.8284466771152
 30
0.0
  0
SEQEND
  5
C3
  8
LAYER_01
  0
POLYLINE
  5
C4
  8
LAYER_01
 66
     1
 10
0.0
 20
0.0
 30
0.0
 70
     1
  0
VERTEX
  5
C5
  8
LAYER_01
 10
579.6762430019395
 20
482.7069748398245
 30
0.0
  0
VERTEX
  5
C6
  8
LAYER_01
 10
576.6518790834779
 20
485.5908585419261
 30
0.0
  0
VERTEX
  5
C7
  8
LAYER_01
 10
576.9052007888547
 20
496.244937826671
 30
0.0
  0
VERTEX
  5
C8
  8
LAYER_01
 10
581.2683191015628
 20
486.3813750772658
 30
0.0
  0
SEQEND
  5
C9
  8
LAYER_01
  0
POLYLINE
  5
CA
  8
LAYER_01
 66
     1
 10
0.0
 20
0.0
 30
0.0
 70
     1
  0
VERTEX
  5
CB
  8
LAYER_01
 10
583.4033139534679
 20
481.5548601441071
 30
0.0
  0
VERTEX
  5
CC
  8
LAYER_01
 10
580.9365021641664
 20
475.9782172179052
 30
0.0
  0
VERTEX
  5
CD
  8
LAYER_01
 10
576.5233763854001
 20
480.1863554750186
 30
0.0
  0
VERTEX
  5
CE
  8
LAYER_01
 10
576.3784283187803
 20
474.0902012128482
 30
0.0
  0
VERTEX
  5
CF
  8
LAYER_01
 10
570.690846945281
 20
476.2891838980958
 30
0.0
  0
VERTEX
  5
D0
  8
LAYER_01
 10
572.8898296305285
 20
470.6016025245964
 30
0.0
  0
VERTEX
  5
D1
  8
LAYER_01
 10
566.7936753683582
 20
470.4566544579769
 30
0.0
  0
VERTEX
  5
D2
  8
LAYER_01
 10
571.0018136254714
 20
466.0435286792103
 30
0.0
  0
VERTEX
  5
D3
  8
LAYER_01
 10
565.4251706992694
 20
463.5767168899091
 30
0.0
  0
VERTEX
  5
D4
  8
LAYER_01
 10
571.0018136254714
 20
461.1099051006076
 30
0.0
  0
VERTEX
  5
D5
  8
LAYER_01
 10
566.793675368358
 20
456.6967793218412
 30
0.0
  0
VERTEX
  5
D6
  8
LAYER_01
 10
572.8898296305283
 20
456.5518312552215
 30
0.0
  0
VERTEX
  5
D7
  8
LAYER_01
 10
570.6908469452808
 20
450.8642498817222
 30
0.0
  0
VERTEX
  5
D8
  8
LAYER_01
 10
576.37842831878
 20
453.0632325669696
 30
0.0
  0
VERTEX
  5
D9
  8
LAYER_01
 10
576.5233763853996
 20
446.9670783047993
 30
0.0
  0
VERTEX
  5
DA
  8
LAYER_01
 10
580.9365021641662
 20
451.1752165619126
 30
0.0
  0
VERTEX
  5
DB
  8
LAYER_01
 10
583.4033139534674
 20
445.5985736357106
 30
0.0
  0
VERTEX
  5
DC
  8
LAYER_01
 10
585.8701257427689
 20
451.1752165619125
 30
0.0
  0
VERTEX
  5
DD
  8
LAYER_01
 10
590.2832515215352
 20
446.9670783047991
 30
0.0
  0
VERTEX
  5
DE
  8
LAYER_01
 10
590.428199588155
 20
453.0632325669694
 30
0.0
  0
VERTEX
  5
DF
  8
LAYER_01
 10
596.1157809616543
 20
450.8642498817219
 30
0.0
  0
VERTEX
  5
E0
  8
LAYER_01
 10
593.9167982764068
 20
456.5518312552213
 30
0.0
  0
VERTEX
  5
E1
  8
LAYER_01
 10
600.0129525385771
 20
456.6967793218407
 30
0.0
  0
VERTEX
  5
E2
  8
LAYER_01
 10
595.8048142814639
 20
461.1099051006073
 30
0.0
  0
VERTEX
  5
E3
  8
LAYER_01
 10
601.3814572076659
 20
463.5767168899086
 30
0.0
  0
VERTEX
  5
E4
  8
LAYER_01
 10
595.8048142814639
 20
466.04352867921
 30
0.0
  0
VERTEX
  5
E5
  8
LAYER_01
 10
600.0129525385773
 20
470.4566544579765
 30
0.0
  0
VERTEX
  5
E6
  8
LAYER_01
 10
593.916798276407
 20
470.6016025245962
 30
0.0
  0
VERTEX
  5
E7
  8
LAYER_01
 10
596.1157809616545
 20
476.2891838980954
 30
0.0
  0
VERTEX
  5
E8
  8
LAYER_01
 10
590.4281995881553
 20
474.090201212848
 30
0.0
  0
VERTEX
  5
E9
  8
LAYER_01
 10
590.2832515215358
 20
480.1863554750183
 30
0.0
  0
VERTEX
  5
EA
  8
LAYER_01
 10
585.8701257427691
 20
475.9782172179051
 30
0.0
  0
SEQEND
  5
EB
  8
LAYER_01
  0
POLYLINE
  5
EC
  8
LAYER_01
 66
     1
 10
0.0
 20
0.0
 30
0.0
 70
     1
  0
VERTEX
  5
ED
  8
LAYER_01
 10
587.2807821594366
 20
482.6770589658963
 30
0.0
  0
VERTEX
  5
EE
  8
LAYER_01
 10
585.5902487499663
 20
486.4987940574489
 30
0.0
  0
VERTEX
  5
EF
  8
LAYER_01
 10
589.901427118081
 20
496.244937826671
 30
0.0
  0
VERTEX
  5
F0
  8
LAYER_01
 10
590.1578007768263
 20
485.4625009931326
 30
0.0
  0
SEQEND
  5
F1
  8
LAYER_01
  0
CIRCLE
  5
F2
  8
LAYER_01
 10
583.4033139534677
 20
463.5767168899088
 30
0.0
 40
68.74501159499158
  0
POLYLINE
  5
F3
  8
LAYER_01
 66
     1
 10
0.0
 20
0.0
 30
0.0
 70
     1
  0
VERTEX
  5
F4
  8
LAYER_01
 10
594.0688973217199
 20
489.2491058565416
 30
0.0
  0
VERTEX
  5
F5
  8
LAYER_01
 10
593.6984601509494
 20
504.8287695949221
 30
0.0
  0
VERTEX
  5
F6
  8
LAYER_01
 10
601.9104297257625
 20
523.3933079347275
 30
0.0
  0
VERTEX
  5
F7
  8
LAYER_01
 10
608.1801572191569
 20
523.3933079347275
 30
0.0
  0
VERTEX
  5
F8
  8
LAYER_01
 10
612.6135240459276
 20
518.9599411079566
 30
0.0
  0
VERTEX
  5
F9
  8
LAYER_01
 10
605.3487654303052
 20
500.1699314992495
 30
0.0
  0
SEQEND
  5
FA
  8
LAYER_01
  0
POLYLINE
  5
FB
  8
LAYER_01
 66
     1
 10
0.0
 20
0.0
 30
0.0
 70
     1
  0
VERTEX
  5
FC
  8
LAYER_01
 10
603.0814260564513
 20
483.2133695553108
 30
0.0
  0
VERTEX
  5
FD
  8
LAYER_01
 10
608.7012659307925
 20
497.7488621745948
 30
0.0
  0
VERTEX
  5
FE
  8
LAYER_01
 10
623.3924777947178
 20
511.757674473895
 30
0.0
  0
VERTEX
  5
FF
  8
LAYER_01
 10
629.1849507002881
 20
509.358353636729
 30
0.0
  0
VERTEX
  5
100
  8
LAYER_01
 10
631.584271537454
 20
503.5658807311587
 30
0.0
  0
VERTEX
  5
101
  8
LAYER_01
 10
617.6818843726123
 20
488.986278200314
 30
0.0
  0
SEQEND
  5
102
  8
LAYER_01
  0
POLYLINE
  5
103
  8
LAYER_01
 66
     1
 10
0.0
 20
0.0
 30
0.0
 70
     1
  0
VERTEX
  5
104
  8
LAYER_01
 10
609.098140606034
 20
474.1881308924721
 30
0.0
  0
VERTEX
  5
105
  8
LAYER_01
 10
619.8526878485936
 20
485.4665554059425
 30
0.0
  0
VERTEX
  5
106
  8
LAYER_01
 10
638.7865381715156
 20
492.7869269823686
 30
0.0
  0
VERTEX
  5
107
  8
LAYER_01
 10
643.2199049982866
 20
488.3535601555977
 30
0.0
  0
VERTEX
  5
108
  8
LAYER_01
 10
643.2199049982866
 20
482.0838326622035
 30
0.0
  0
VERTEX
  5
109
  8
LAYER_01
 10
624.7964017046193
 20
473.9342495301163
 30
0.0
  0
SEQEND
  5
10A
  8
LAYER_01
  0
POLYLINE
  5
10B
  8
LAYER_01
 66
     1
 10
0.0
 20
0.0
 30
0.0
 70
     1
  0
VERTEX
  5
10C
  8
LAYER_01
 10
611.2030507219472
 20
463.5474006404507
 30
0.0
  0
VERTEX
  5
10D
  8
LAYER_01
 10
625.4550230052591
 20
469.8517191551043
 30
0.0
  0
VERTEX
  5
10E
  8
LAYER_01
 10
645.7490047112935
 20
469.3691897954791
 30
0.0
  0
VERTEX
  5
10F
  8
LAYER_01
 10
648.1483255484595
 20
463.5767168899088
 30
0.0
  0
VERTEX
  5
110
  8
LAYER_01
 10
645.7490047112935
 20
457.7842439843384
 30
0.0
  0
VERTEX
  5
111
  8
LAYER_01
 10
625.6091966557883
 20
457.305380406714
 30
0.0
  0
SEQEND
  5
112
  8
LAYER_01
  0
POLYLINE
  5
113
  8
LAYER_01
 66
     1
 10
0.0
 20
0.0
 30
0.0
 70
     1
  0
VERTEX
  5
114
  8
LAYER_01
 10
609.0757029201008
 20
452.911133521657
 30
0.0
  0
VERTEX
  5
115
  8
LAYER_01
 10
624.6553666584812
 20
453.2815706924274
 30
0.0
  0
VERTEX
  5
116
  8
LAYER_01
 10
643.2199049982867
 20
445.0696011176144
 30
0.0
  0
VERTEX
  5
117
  8
LAYER_01
 10
643.2199049982867
 20
438.79987362422
 30
0.0
  0
VERTEX
  5
118
  8
LAYER_01
 10
638.7865381715158
 20
434.3665067974491
 30
0.0
  0
VERTEX
  5
119
  8
LAYER_01
 10
619.9965285628086
 20
441.6312654130716
 30
0.0
  0
SEQEND
  5
11A
  8
LAYER_01
  0
POLYLINE
  5
11B
  8
LAYER_01
 66
     1
 10
0.0
 20
0.0
 30
0.0
 70
     1
  0
VERTEX
  5
11C
  8
LAYER_01
 10
603.0399666188698
 20
443.8986047869254
 30
0.0
  0
VERTEX
  5
11D
  8
LAYER_01
 10
617.5754592381538
 20
438.2787649125842
 30
0.0
  0
VERTEX
  5
11E
  8
LAYER_01
 10
631.584271537454
 20
423.5875530486589
 30
0.0
  0
VERTEX
  5
11F
  8
LAYER_01
 10
629.184950700288
 20
417.7950801430886
 30
0.0
  0
VERTEX
  5
120
  8
LAYER_01
 10
623.3924777947177
 20
415.3957593059226
 30
0.0
  0
VERTEX
  5
121
  8
LAYER_01
 10
608.8128752638731
 20
429.2981464707643
 30
0.0
  0
SEQEND
  5
122
  8
LAYER_01
  0
POLYLINE
  5
123
  8
LAYER_01
 66
     1
 10
0.0
 20
0.0
 30
0.0
 70
     1
  0
VERTEX
  5
124
  8
LAYER_01
 10
594.0147279560314
 20
437.8818902373428
 30
0.0
  0
VERTEX
  5
125
  8
LAYER_01
 10
605.2931524695016
 20
427.1273429947831
 30
0.0
  0
VERTEX
  5
126
  8
LAYER_01
 10
612.6135240459278
 20
408.193492671861
 30
0.0
  0
VERTEX
  5
127
  8
LAYER_01
 10
608.1801572191569
 20
403.7601258450902
 30
0.0
  0
VERTEX
  5
128
  8
LAYER_01
 10
601.9104297257626
 20
403.7601258450902
 30
0.0
  0
VERTEX
  5
129
  8
LAYER_01
 10
593.7608465936754
 20
422.1836291387574
 30
0.0
  0
SEQEND
  5
12A
  8
LAYER_01
  0
POLYLINE
  5
12B
  8
LAYER_01
 66
     1
 10
0.0
 20
0.0
 30
0.0
 70
     1
  0
VERTEX
  5
12C
  8
LAYER_01
 10
583.3739977040099
 20
435.7769801214295
 30
0.0
  0
VERTEX
  5
12D
  8
LAYER_01
 10
589.6783162186634
 20
421.5250078381176
 30
0.0
  0
VERTEX
  5
12E
  8
LAYER_01
 10
589.1957868590382
 20
401.2310261320831
 30
0.0
  0
VERTEX
  5
12F
  8
LAYER_01
 10
583.4033139534679
 20
398.8317052949172
 30
0.0
  0
VERTEX
  5
130
  8
LAYER_01
 10
577.6108410478976
 20
401.2310261320831
 30
0.0
  0
VERTEX
  5
131
  8
LAYER_01
 10
577.1319774702731
 20
421.3708341875883
 30
0.0
  0
SEQEND
  5
132
  8
LAYER_01
  0
POLYLINE
  5
133
  8
LAYER_01
 66
     1
 10
0.0
 20
0.0
 30
0.0
 70
     1
  0
VERTEX
  5
134
  8
LAYER_01
 10
572.737730585216
 20
437.9043279232761
 30
0.0
  0
VERTEX
  5
135
  8
LAYER_01
 10
573.1081677559864
 20
422.3246641848957
 30
0.0
  0
VERTEX
  5
136
  8
LAYER_01
 10
564.8961981811733
 20
403.7601258450902
 30
0.0
  0
VERTEX
  5
137
  8
LAYER_01
 10
558.626470687779
 20
403.7601258450903
 30
0.0
  0
VERTEX
  5
138
  8
LAYER_01
 10
554.1931038610081
 20
408.1934926718611
 30
0.0
  0
VERTEX
  5
139
  8
LAYER_01
 10
561.4578624766306
 20
426.9835022805682
 30
0.0
  0
SEQEND
  5
13A
  8
LAYER_01
  0
POLYLINE
  5
13B
  8
LAYER_01
 66
     1
 10
0.0
 20
0.0
 30
0.0
 70
     1
  0
VERTEX
  5
13C
  8
LAYER_01
 10
563.7252018504846
 20
443.9400642245068
 30
0.0
  0
VERTEX
  5
13D
  8
LAYER_01
 10
558.1053619761434
 20
429.4045716052228
 30
0.0
  0
VERTEX
  5
13E
  8
LAYER_01
 10
543.4141501122181
 20
415.3957593059226
 30
0.0
  0
VERTEX
  5
13F
  8
LAYER_01
 10
537.6216772066477
 20
417.7950801430886
 30
0.0
  0
VERTEX
  5
140
  8
LAYER_01
 10
535.2223563694819
 20
423.5875530486589
 30
0.0
  0
VERTEX
  5
141
  8
LAYER_01
 10
549.1247435343236
 20
438.1671555795036
 30
0.0
  0
SEQEND
  5
142
  8
LAYER_01
  0
POLYLINE
  5
143
  8
LAYER_01
 66
     1
 10
0.0
 20
0.0
 30
0.0
 70
     1
  0
VERTEX
  5
144
  8
LAYER_01
 10
557.7084873009017
 20
452.9653028873454
 30
0.0
  0
VERTEX
  5
145
  8
LAYER_01
 10
546.953940058342
 20
441.6868783738751
 30
0.0
  0
VERTEX
  5
146
  8
LAYER_01
 10
528.02008973542
 20
434.3665067974491
 30
0.0
  0
VERTEX
  5
147
  8
LAYER_01
 10
523.5867229086491
 20
438.7998736242199
 30
0.0
  0
VERTEX
  5
148
  8
LAYER_01
 10
523.5867229086491
 20
445.0696011176142
 30
0.0
  0
VERTEX
  5
149
  8
LAYER_01
 10
542.0102262023163
 20
453.2191842497014
 30
0.0
  0
SEQEND
  5
14A
  8
LAYER_01
  0
POLYLINE
  5
14B
  8
LAYER_01
 66
     1
 10
0.0
 20
0.0
 30
0.0
 70
     1
  0
VERTEX
  5
14C
  8
LAYER_01
 10
555.6035771849886
 20
463.6060331393668
 30
0.0
  0
VERTEX
  5
14D
  8
LAYER_01
 10
541.3516049016766
 20
457.3017146247133
 30
0.0
  0
VERTEX
  5
14E
  8
LAYER_01
 10
521.0576231956421
 20
457.7842439843385
 30
0.0
  0
VERTEX
  5
14F
  8
LAYER_01
 10
518.6583023584762
 20
463.5767168899088
 30
0.0
  0
VERTEX
  5
150
  8
LAYER_01
 10
521.0576231956421
 20
469.3691897954791
 30
0.0
  0
VERTEX
  5
151
  8
LAYER_01
 10
541.1974312511473
 20
469.8480533731036
 30
0.0
  0
SEQEND
  5
152
  8
LAYER_01
  0
POLYLINE
  5
153
  8
LAYER_01
 66
     1
 10
0.0
 20
0.0
 30
0.0
 70
     1
  0
VERTEX
  5
154
  8
LAYER_01
 10
557.730924986835
 20
474.2423002581608
 30
0.0
  0
VERTEX
  5
155
  8
LAYER_01
 10
542.1512612484546
 20
473.8718630873902
 30
0.0
  0
VERTEX
  5
156
  8
LAYER_01
 10
523.5867229086491
 20
482.0838326622035
 30
0.0
  0
VERTEX
  5
157
  8
LAYER_01
 10
523.5867229086491
 20
488.3535601555977
 30
0.0
  0
VERTEX
  5
158
  8
LAYER_01
 10
528.02008973542
 20
492.7869269823686
 30
0.0
  0
VERTEX
  5
159
  8
LAYER_01
 10
546.8100993441271
 20
485.5221683667462
 30
0.0
  0
SEQEND
  5
15A
  8
LAYER_01
  0
POLYLINE
  5
15B
  8
LAYER_01
 66
     1
 10
0.0
 20
0.0
 30
0.0
 70
     1
  0
VERTEX
  5
15C
  8
LAYER_01
 10
563.766661288066
 20
483.2548289928924
 30
0.0
  0
VERTEX
  5
15D
  8
LAYER_01
 10
549.231168668782
 20
488.8746688672335
 30
0.0
  0
VERTEX
  5
15E
  8
LAYER_01
 10
535.2223563694818
 20
503.5658807311587
 30
0.0
  0
VERTEX
  5
15F
  8
LAYER_01
 10
537.6216772066477
 20
509.358353636729
 30
0.0
  0
VERTEX
  5
160
  8
LAYER_01
 10
543.4141501122181
 20
511.757674473895
 30
0.0
  0
VERTEX
  5
161
  8
LAYER_01
 10
557.9937526430626
 20
497.8552873090533
 30
0.0
  0
SEQEND
  5
162
  8
LAYER_01
  0
POLYLINE
  5
163
  8
LAYER_01
 66
     1
 10
0.0
 20
0.0
 30
0.0
 70
     1
  0
VERTEX
  5
164
  8
LAYER_01
 10
572.7918999509045
 20
489.2715435424749
 30
0.0
  0
VERTEX
  5
165
  8
LAYER_01
 10
561.5134754374342
 20
500.0260907850346
 30
0.0
  0
VERTEX
  5
166
  8
LAYER_01
 10
554.1931038610081
 20
518.9599411079566
 30
0.0
  0
VERTEX
  5
167
  8
LAYER_01
 10
558.6264706877789
 20
523.3933079347275
 30
0.0
  0
VERTEX
  5
168
  8
LAYER_01
 10
564.8961981811733
 20
523.3933079347275
 30
0.0
  0
VERTEX
  5
169
  8
LAYER_01
 10
573.0457813132605
 20
504.9698046410603
 30
0.0
  0
SEQEND
  5
16A
  8
LAYER_01
  0
POLYLINE
  5
16B
  8
LAYER_01
 66
     1
 10
0.0
 20
0.0
 30
0.0
 70
     1
  0
VERTEX
  5
16C
  8
LAYER_01
 10
583.4326302029259
 20
491.3764536583881
 30
0.0
  0
VERTEX
  5
16D
  8
LAYER_01
 10
577.1283116882723
 20
505.6284259417
 30
0.0
  0
VERTEX
  5
16E
  8
LAYER_01
 10
577.6108410478976
 20
525.9224076477345
 30
0.0
  0
VERTEX
  5
16F
  8
LAYER_01
 10
583.4033139534679
 20
528.3217284849004
 30
0.0
  0
VERTEX
  5
170
  8
LAYER_01
 10
589.1957868590382
 20
525.9224076477345
 30
0.0
  0
VERTEX
  5
171
  8
LAYER_01
 10
589.6746504366627
 20
505.7825995922293
 30
0.0
  0
SEQEND
  5
172
  8
LAYER_01
  0
ENDSEC
  0
EOF
