  0
SECTION
  2
HEADER
  9
$ACADVER
  1
AC1009
  9
$DWGCODEPAGE
  3
ansi_1252
  9
$INSBASE
 10
0.0
 20
0.0
 30
0.0
  9
$EXTMIN
 10
1.000000000000000E+20
 20
1.000000000000000E+20
 30
1.000000000000000E+20
  9
$EXTMAX
 10
-1.000000000000000E+20
 20
-1.000000000000000E+20
 30
-1.000000000000000E+20
  9
$LIMMIN
 10
0.0
 20
0.0
  9
$LIMMAX
 10
12.0
 20
9.0
  9
$ORTHOMODE
 70
     0
  9
$REGENMODE
 70
     1
  9
$FILLMODE
 70
     1
  9
$QTEXTMODE
 70
     0
  9
$MIRRTEXT
 70
     1
  9
$DRAGMODE
 70
     2
  9
$LTSCALE
 40
1.0
  9
$OSMODE
 70
    37
  9
$ATTMODE
 70
     1
  9
$TEXTSIZE
 40
0.2
  9
$TRACEWID
 40
0.05
  9
$TEXTSTYLE
  7
STANDARD
  9
$CLAYER
  8
LAYER_05
  9
$CELTYPE
  6
BYLAYER
  9
$CECOLOR
 62
   256
  9
$DIMSCALE
 40
1.0
  9
$DIMASZ
 40
0.18
  9
$DIMEXO
 40
0.0625
  9
$DIMDLI
 40
0.38
  9
$DIMRND
 40
0.0
  9
$DIMDLE
 40
0.0
  9
$DIMEXE
 40
0.18
  9
$DIMTP
 40
0.0
  9
$DIMTM
 40
0.0
  9
$DIMTXT
 40
0.18
  9
$DIMCEN
 40
0.09
  9
$DIMTSZ
 40
0.0
  9
$DIMTOL
 70
     0
  9
$DIMLIM
 70
     0
  9
$DIMTIH
 70
     1
  9
$DIMTOH
 70
     1
  9
$DIMSE1
 70
     0
  9
$DIMSE2
 70
     0
  9
$DIMTAD
 70
     0
  9
$DIMZIN
 70
     0
  9
$DIMBLK
  1

  9
$DIMASO
 70
     1
  9
$DIMSHO
 70
     1
  9
$DIMPOST
  1

  9
$DIMAPOST
  1

  9
$DIMALT
 70
     0
  9
$DIMALTD
 70
     2
  9
$DIMALTF
 40
25.4
  9
$DIMLFAC
 40
1.0
  9
$DIMTOFL
 70
     0
  9
$DIMTVP
 40
0.0
  9
$DIMTIX
 70
     0
  9
$DIMSOXD
 70
     0
  9
$DIMSAH
 70
     0
  9
$DIMBLK1
  1

  9
$DIMBLK2
  1

  9
$DIMSTYLE
  2
STANDARD_ACAD
  9
$DIMCLRD
 70
     0
  9
$DIMCLRE
 70
     0
  9
$DIMCLRT
 70
     0
  9
$DIMTFAC
 40
1.0
  9
$DIMGAP
 40
0.09
  9
$LUNITS
 70
     2
  9
$LUPREC
 70
     3
  9
$SKETCHINC
 40
0.1
  9
$FILLETRAD
 40
0.5
  9
$AUNITS
 70
     0
  9
$AUPREC
 70
     0
  9
$MENU
  1
.
  9
$ELEVATION
 40
0.0
  9
$PELEVATION
 40
0.0
  9
$THICKNESS
 40
0.0
  9
$LIMCHECK
 70
     0
  9
$CHAMFERA
 40
0.0
  9
$CHAMFERB
 40
0.0
  9
$SKPOLY
 70
     0
  9
$TDCREATE
 40
2460170.878653727
  9
$TDUPDATE
 40
2460170.878653912
  9
$TDINDWG
 40
0.0000000116
  9
$TDUSRTIMER
 40
0.0000000116
  9
$USRTIMER
 70
     1
  9
$ANGBASE
 50
0.0
  9
$ANGDIR
 70
     0
  9
$PDMODE
 70
     0
  9
$PDSIZE
 40
0.0
  9
$PLINEWID
 40
0.0
  9
$COORDS
 70
     1
  9
$SPLFRAME
 70
     0
  9
$SPLINETYPE
 70
     6
  9
$SPLINESEGS
 70
     8
  9
$ATTDIA
 70
     0
  9
$ATTREQ
 70
     1
  9
$HANDLING
 70
     1
  9
$HANDSEED
  5
8B7
  9
$SURFTAB1
 70
     6
  9
$SURFTAB2
 70
     6
  9
$SURFTYPE
 70
     6
  9
$SURFU
 70
     6
  9
$SURFV
 70
     6
  9
$UCSNAME
  2

  9
$UCSORG
 10
0.0
 20
0.0
 30
0.0
  9
$UCSXDIR
 10
1.0
 20
0.0
 30
0.0
  9
$UCSYDIR
 10
0.0
 20
1.0
 30
0.0
  9
$PUCSNAME
  2

  9
$PUCSORG
 10
0.0
 20
0.0
 30
0.0
  9
$PUCSXDIR
 10
1.0
 20
0.0
 30
0.0
  9
$PUCSYDIR
 10
0.0
 20
1.0
 30
0.0
  9
$USERI1
 70
     0
  9
$USERI2
 70
     0
  9
$USERI3
 70
     0
  9
$USERI4
 70
     0
  9
$USERI5
 70
     0
  9
$USERR1
 40
0.0
  9
$USERR2
 40
0.0
  9
$USERR3
 40
0.0
  9
$USERR4
 40
0.0
  9
$USERR5
 40
0.0
  9
$WORLDVIEW
 70
     1
  9
$SHADEDGE
 70
     3
  9
$SHADEDIF
 70
    70
  9
$TILEMODE
 70
     1
  9
$MAXACTVP
 70
    64
  9
$PLIMCHECK
 70
     0
  9
$PEXTMIN
 10
1.000000000000000E+20
 20
1.000000000000000E+20
 30
1.000000000000000E+20
  9
$PEXTMAX
 10
-1.000000000000000E+20
 20
-1.000000000000000E+20
 30
-1.000000000000000E+20
  9
$PLIMMIN
 10
0.0
 20
0.0
  9
$PLIMMAX
 10
12.0
 20
9.0
  9
$UNITMODE
 70
     0
  9
$VISRETAIN
 70
     1
  9
$PLINEGEN
 70
     0
  9
$PSLTSCALE
 70
     1
  0
ENDSEC
  0
SECTION
  2
TABLES
  0
TABLE
  2
VPORT
 70
     1
  0
VPORT
  2
*ACTIVE
 70
     0
 10
0.0
 20
0.0
 11
1.0
 21
1.0
 12
10.42990654205607
 22
4.5
 13
0.0
 23
0.0
 14
0.5
 24
0.5
 15
0.5
 25
0.5
 16
0.0
 26
0.0
 36
1.0
 17
0.0
 27
0.0
 37
0.0
 40
9.0
 41
1.972972972850329
 42
50.0
 43
0.0
 44
0.0
 50
0.0
 51
0.0
 71
     0
 72
   100
 73
     1
 74
     3
 75
     0
 76
     0
 77
     0
 78
     0
  0
ENDTAB
  0
TABLE
  2
LTYPE
 70
     1
  0
LTYPE
  2
CONTINUOUS
 70
     0
  3
Solid line
 72
    65
 73
     0
 40
0.0
  0
ENDTAB
  0
TABLE
  2
LAYER
 70
     2
  0
LAYER
  2
0
 70
     0
 62
     7
  6
CONTINUOUS
  0
LAYER
  2
LAYER_05
 70
     0
 62
     5
  6
CONTINUOUS
  0
ENDTAB
  0
TABLE
  2
STYLE
 70
     1
  0
STYLE
  2
STANDARD
 70
     0
 40
0.0
 41
1.0
 50
0.0
 71
     0
 42
0.2
  3
txt
  4

  0
ENDTAB
  0
TABLE
  2
VIEW
 70
     0
  0
ENDTAB
  0
TABLE
  2
UCS
 70
     0
  0
ENDTAB
  0
TABLE
  2
APPID
 70
     2
  0
APPID
  2
ACAD
 70
     0
  0
APPID
  2
RHINO
 70
     0
  0
ENDTAB
  0
TABLE
  2
DIMSTYLE
 70
     1
  0
DIMSTYLE
  2
STANDARD_ACAD
 70
     0
  3

  4

  5

  6

  7

 40
1.0
 41
0.18
 42
0.0625
 43
0.38
 44
0.18
 45
0.0
 46
0.0
 47
0.0
 48
0.0
140
0.18
141
0.09
142
0.0
143
25.4
144
1.0
145
0.0
146
1.0
147
0.09
 71
     0
 72
     0
 73
     1
 74
     1
 75
     0
 76
     0
 77
     0
 78
     0
170
     0
171
     2
172
     0
173
     0
174
     0
175
     0
176
     0
177
     0
178
     0
  0
ENDTAB
  0
ENDSEC
  0
SECTION
  2
BLOCKS
  0
BLOCK
  8
0
  2
$MODEL_SPACE
 70
     0
 10
0.0
 20
0.0
 30
0.0
  3
$MODEL_SPACE
  1

  0
ENDBLK
  5
21
  8
0
  0
BLOCK
 67
     1
  8
0
  2
$PAPER_SPACE
 70
     0
 10
0.0
 20
0.0
 30
0.0
  3
$PAPER_SPACE
  1

  0
ENDBLK
  5
1D
 67
     1
  8
0
  0
ENDSEC
  0
SECTION
  2
ENTITIES
  0
POLYLINE
  5
70
  8
LAYER_05
 66
     1
 10
0.0
 20
0.0
 30
0.0
 70
     1
  0
VERTEX
  5
71
  8
LAYER_05
 10
1507.488567193082
 20
3119.575536465728
 30
0.0
  0
VERTEX
  5
72
  8
LAYER_05
 10
1463.63984952276
 20
3163.747663670076
 30
0.0
  0
VERTEX
  5
73
  8
LAYER_05
 10
1507.811976727108
 20
3207.596381340397
 30
0.0
  0
VERTEX
  5
74
  8
LAYER_05
 10
1551.660694397429
 20
3163.424254136049
 30
0.0
  0
SEQEND
  5
75
  8
LAYER_05
  0
POLYLINE
  5
76
  8
LAYER_05
 66
     1
 10
0.0
 20
0.0
 30
0.0
 70
     1
  0
VERTEX
  5
77
  8
LAYER_05
 10
1518.457477767086
 20
3218.163940548077
 30
0.0
  0
VERTEX
  5
78
  8
LAYER_05
 10
1535.331446363991
 20
3234.914365121487
 30
0.0
  0
VERTEX
  5
79
  8
LAYER_05
 10
1606.498147815402
 20
3163.222768280257
 30
0.0
  0
VERTEX
  5
7A
  8
LAYER_05
 10
1534.806550974171
 20
3092.056066828846
 30
0.0
  0
VERTEX
  5
7B
  8
LAYER_05
 10
1518.056126400761
 20
3108.930035425749
 30
0.0
  0
VERTEX
  5
7C
  8
LAYER_05
 10
1572.873754645088
 20
3163.34631230375
 30
0.0
  0
SEQEND
  5
7D
  8
LAYER_05
  0
POLYLINE
  5
7E
  8
LAYER_05
 66
     1
 10
0.0
 20
0.0
 30
0.0
  0
VERTEX
  5
7F
  8
LAYER_05
 10
1562.850916000873
 20
3262.232348902578
 30
0.0
  0
VERTEX
  5
80
  8
LAYER_05
 10
1617.267192878874
 20
3207.414720658251
 30
0.0
  0
VERTEX
  5
81
  8
LAYER_05
 10
1672.0848211232
 20
3261.830997536252
 30
0.0
  0
VERTEX
  5
82
  8
LAYER_05
 10
1688.835245696611
 20
3244.957028939348
 30
0.0
  0
VERTEX
  5
83
  8
LAYER_05
 10
1617.14364885538
 20
3173.790327487937
 30
0.0
  0
VERTEX
  5
84
  8
LAYER_05
 10
1545.976947403969
 20
3245.481924329167
 30
0.0
  0
VERTEX
  5
85
  8
LAYER_05
 10
1617.668544245199
 20
3316.648625780579
 30
0.0
  0
VERTEX
  5
86
  8
LAYER_05
 10
1661.51726191552
 20
3272.476498576231
 30
0.0
  0
VERTEX
  5
87
  8
LAYER_05
 10
1617.345134711172
 20
3228.62778090591
 30
0.0
  0
VERTEX
  5
88
  8
LAYER_05
 10
1573.496417040851
 20
3272.799908110258
 30
0.0
  0
SEQEND
  5
89
  8
LAYER_05
  0
POLYLINE
  5
8A
  8
LAYER_05
 66
     1
 10
0.0
 20
0.0
 30
0.0
 70
     1
  0
VERTEX
  5
8B
  8
LAYER_05
 10
1572.692093962942
 20
3053.891096151985
 30
0.0
  0
VERTEX
  5
8C
  8
LAYER_05
 10
1616.86422116729
 20
3097.739813822306
 30
0.0
  0
VERTEX
  5
8D
  8
LAYER_05
 10
1660.712938837611
 20
3053.567686617958
 30
0.0
  0
VERTEX
  5
8E
  8
LAYER_05
 10
1616.540811633263
 20
3009.718968947637
 30
0.0
  0
SEQEND
  5
8F
  8
LAYER_05
  0
POLYLINE
  5
90
  8
LAYER_05
 66
     1
 10
0.0
 20
0.0
 30
0.0
 70
     1
  0
VERTEX
  5
91
  8
LAYER_05
 10
1562.124534755262
 20
3064.536597191963
 30
0.0
  0
VERTEX
  5
92
  8
LAYER_05
 10
1616.942162999588
 20
3118.952874069965
 30
0.0
  0
VERTEX
  5
93
  8
LAYER_05
 10
1671.358439877589
 20
3064.135245825638
 30
0.0
  0
VERTEX
  5
94
  8
LAYER_05
 10
1688.232408474493
 20
3080.885670399048
 30
0.0
  0
VERTEX
  5
95
  8
LAYER_05
 10
1617.065707023082
 20
3152.577267240279
 30
0.0
  0
VERTEX
  5
96
  8
LAYER_05
 10
1545.374110181851
 20
3081.410565788867
 30
0.0
  0
SEQEND
  5
97
  8
LAYER_05
  0
POLYLINE
  5
98
  8
LAYER_05
 66
     1
 10
0.0
 20
0.0
 30
0.0
 70
     1
  0
VERTEX
  5
99
  8
LAYER_05
 10
1517.854640544969
 20
3054.092582007778
 30
0.0
  0
VERTEX
  5
9A
  8
LAYER_05
 10
1534.60506511838
 20
3037.218613410873
 30
0.0
  0
VERTEX
  5
9B
  8
LAYER_05
 10
1551.479033715284
 20
3053.969037984283
 30
0.0
  0
VERTEX
  5
9C
  8
LAYER_05
 10
1534.728609141873
 20
3070.843006581187
 30
0.0
  0
SEQEND
  5
9D
  8
LAYER_05
  0
POLYLINE
  5
9E
  8
LAYER_05
 66
     1
 10
0.0
 20
0.0
 30
0.0
 70
     1
  0
VERTEX
  5
9F
  8
LAYER_05
 10
1480.493992946018
 20
3235.115850977279
 30
0.0
  0
VERTEX
  5
A0
  8
LAYER_05
 10
1408.802396104788
 20
3163.949149525868
 30
0.0
  0
VERTEX
  5
A1
  8
LAYER_05
 10
1479.969097556199
 20
3092.257552684638
 30
0.0
  0
VERTEX
  5
A2
  8
LAYER_05
 10
1496.843066153103
 20
3109.007977258048
 30
0.0
  0
VERTEX
  5
A3
  8
LAYER_05
 10
1442.426789275102
 20
3163.825605502374
 30
0.0
  0
VERTEX
  5
A4
  8
LAYER_05
 10
1497.244417519428
 20
3218.241882380375
 30
0.0
  0
SEQEND
  5
A5
  8
LAYER_05
  0
POLYLINE
  5
A6
  8
LAYER_05
 66
     1
 10
0.0
 20
0.0
 30
0.0
 70
     1
  0
VERTEX
  5
A7
  8
LAYER_05
 10
1524.161049934193
 20
3081.488507621166
 30
0.0
  0
VERTEX
  5
A8
  8
LAYER_05
 10
1507.410625360783
 20
3098.36247621807
 30
0.0
  0
VERTEX
  5
A9
  8
LAYER_05
 10
1490.536656763879
 20
3081.612051644659
 30
0.0
  0
VERTEX
  5
AA
  8
LAYER_05
 10
1507.28708133729
 20
3064.738083047755
 30
0.0
  0
SEQEND
  5
AB
  8
LAYER_05
  0
POLYLINE
  5
AC
  8
LAYER_05
 66
     1
 10
0.0
 20
0.0
 30
0.0
 70
     1
  0
VERTEX
  5
AD
  8
LAYER_05
 10
1671.280498045291
 20
3042.92218557798
 30
0.0
  0
VERTEX
  5
AE
  8
LAYER_05
 10
1616.462869800964
 20
2988.505908699979
 30
0.0
  0
VERTEX
  5
AF
  8
LAYER_05
 10
1562.046592922964
 20
3043.323536944305
 30
0.0
  0
VERTEX
  5
B0
  8
LAYER_05
 10
1545.17262432606
 20
3026.573112370895
 30
0.0
  0
VERTEX
  5
B1
  8
LAYER_05
 10
1616.339325777471
 20
2954.881515529664
 30
0.0
  0
VERTEX
  5
B2
  8
LAYER_05
 10
1688.030922618701
 20
3026.048216981076
 30
0.0
  0
SEQEND
  5
B3
  8
LAYER_05
  0
POLYLINE
  5
B4
  8
LAYER_05
 66
     1
 10
0.0
 20
0.0
 30
0.0
 70
     1
  0
VERTEX
  5
B5
  8
LAYER_05
 10
1698.799967682173
 20
3070.24016935907
 30
0.0
  0
VERTEX
  5
B6
  8
LAYER_05
 10
1681.925999085269
 20
3053.48974478566
 30
0.0
  0
VERTEX
  5
B7
  8
LAYER_05
 10
1698.67642365868
 20
3036.615776188756
 30
0.0
  0
VERTEX
  5
B8
  8
LAYER_05
 10
1715.550392255583
 20
3053.366200762166
 30
0.0
  0
SEQEND
  5
B9
  8
LAYER_05
  0
POLYLINE
  5
BA
  8
LAYER_05
 66
     1
 10
0.0
 20
0.0
 30
0.0
 70
     1
  0
VERTEX
  5
BB
  8
LAYER_05
 10
1709.445468722151
 20
3080.80772856675
 30
0.0
  0
VERTEX
  5
BC
  8
LAYER_05
 10
1726.195893295562
 20
3063.933759969846
 30
0.0
  0
VERTEX
  5
BD
  8
LAYER_05
 10
1743.069861892466
 20
3080.684184543256
 30
0.0
  0
VERTEX
  5
BE
  8
LAYER_05
 10
1726.319437319055
 20
3097.55815314016
 30
0.0
  0
SEQEND
  5
BF
  8
LAYER_05
  0
POLYLINE
  5
C0
  8
LAYER_05
 66
     1
 10
0.0
 20
0.0
 30
0.0
 70
     1
  0
VERTEX
  5
C1
  8
LAYER_05
 10
1726.397379151354
 20
3118.771213387818
 30
0.0
  0
VERTEX
  5
C2
  8
LAYER_05
 10
1682.548661481032
 20
3162.943340592167
 30
0.0
  0
VERTEX
  5
C3
  8
LAYER_05
 10
1726.720788685381
 20
3206.792058262488
 30
0.0
  0
VERTEX
  5
C4
  8
LAYER_05
 10
1770.569506355702
 20
3162.61993105814
 30
0.0
  0
SEQEND
  5
C5
  8
LAYER_05
  0
POLYLINE
  5
C6
  8
LAYER_05
 66
     1
 10
0.0
 20
0.0
 30
0.0
 70
     1
  0
VERTEX
  5
C7
  8
LAYER_05
 10
1715.751878111375
 20
3108.203654180139
 30
0.0
  0
VERTEX
  5
C8
  8
LAYER_05
 10
1661.335601233374
 20
3163.021282424465
 30
0.0
  0
VERTEX
  5
C9
  8
LAYER_05
 10
1716.153229477701
 20
3217.437559302466
 30
0.0
  0
VERTEX
  5
CA
  8
LAYER_05
 10
1699.40280490429
 20
3234.31152789937
 30
0.0
  0
VERTEX
  5
CB
  8
LAYER_05
 10
1627.71120806306
 20
3163.144826447958
 30
0.0
  0
VERTEX
  5
CC
  8
LAYER_05
 10
1698.877909514471
 20
3091.453229606728
 30
0.0
  0
SEQEND
  5
CD
  8
LAYER_05
  0
POLYLINE
  5
CE
  8
LAYER_05
 66
     1
 10
0.0
 20
0.0
 30
0.0
  0
VERTEX
  5
CF
  8
LAYER_05
 10
1699.604290760083
 20
3289.148981317343
 30
0.0
  0
VERTEX
  5
D0
  8
LAYER_05
 10
1682.730322163178
 20
3272.398556743932
 30
0.0
  0
VERTEX
  5
D1
  8
LAYER_05
 10
1699.480746736589
 20
3255.524588147028
 30
0.0
  0
VERTEX
  5
D2
  8
LAYER_05
 10
1716.354715333493
 20
3272.275012720438
 30
0.0
  0
VERTEX
  5
D3
  8
LAYER_05
 10
1617.870030100991
 20
3371.486079198551
 30
0.0
  0
VERTEX
  5
D4
  8
LAYER_05
 10
1546.178433259761
 20
3300.31937774714
 30
0.0
  0
VERTEX
  5
D5
  8
LAYER_05
 10
1562.928857833172
 20
3283.445409150236
 30
0.0
  0
VERTEX
  5
D6
  8
LAYER_05
 10
1617.746486077498
 20
3337.861686028237
 30
0.0
  0
VERTEX
  5
D7
  8
LAYER_05
 10
1672.162762955499
 20
3283.04405778391
 30
0.0
  0
VERTEX
  5
D8
  8
LAYER_05
 10
1689.036731552403
 20
3299.794482357321
 30
0.0
  0
SEQEND
  5
D9
  8
LAYER_05
  0
POLYLINE
  5
DA
  8
LAYER_05
 66
     1
 10
0.0
 20
0.0
 30
0.0
 70
     1
  0
VERTEX
  5
DB
  8
LAYER_05
 10
1753.715362932444
 20
3091.251743750935
 30
0.0
  0
VERTEX
  5
DC
  8
LAYER_05
 10
1736.964938359034
 20
3108.12571234784
 30
0.0
  0
VERTEX
  5
DD
  8
LAYER_05
 10
1791.78256660336
 20
3162.541989225841
 30
0.0
  0
VERTEX
  5
DE
  8
LAYER_05
 10
1737.366289725359
 20
3217.359617470167
 30
0.0
  0
VERTEX
  5
DF
  8
LAYER_05
 10
1754.240258322263
 20
3234.110042043578
 30
0.0
  0
VERTEX
  5
E0
  8
LAYER_05
 10
1825.406959773674
 20
3162.418445202347
 30
0.0
  0
SEQEND
  5
E1
  8
LAYER_05
  0
POLYLINE
  5
E2
  8
LAYER_05
 66
     1
 10
0.0
 20
0.0
 30
0.0
 70
     1
  0
VERTEX
  5
E3
  8
LAYER_05
 10
1710.048305944269
 20
3244.87908710705
 30
0.0
  0
VERTEX
  5
E4
  8
LAYER_05
 10
1726.798730517679
 20
3228.005118510146
 30
0.0
  0
VERTEX
  5
E5
  8
LAYER_05
 10
1743.672699114583
 20
3244.755543083556
 30
0.0
  0
VERTEX
  5
E6
  8
LAYER_05
 10
1726.922274541173
 20
3261.62951168046
 30
0.0
  0
SEQEND
  5
E7
  8
LAYER_05
  0
POLYLINE
  5
E8
  8
LAYER_05
 66
     1
 10
0.0
 20
0.0
 30
0.0
 70
     1
  0
VERTEX
  5
E9
  8
LAYER_05
 10
1524.76388715631
 20
3245.559866161466
 30
0.0
  0
VERTEX
  5
EA
  8
LAYER_05
 10
1508.013462582901
 20
3262.433834758369
 30
0.0
  0
VERTEX
  5
EB
  8
LAYER_05
 10
1491.139493985997
 20
3245.683410184959
 30
0.0
  0
VERTEX
  5
EC
  8
LAYER_05
 10
1507.889918559406
 20
3228.809441588056
 30
0.0
  0
SEQEND
  5
ED
  8
LAYER_05
  0
POLYLINE
  5
EE
  8
LAYER_05
 66
     1
 10
0.0
 20
0.0
 30
0.0
 70
     1
  0
VERTEX
  5
EF
  8
LAYER_05
 10
1535.409388196289
 20
3256.127425369145
 30
0.0
  0
VERTEX
  5
F0
  8
LAYER_05
 10
1552.283356793193
 20
3272.877849942556
 30
0.0
  0
VERTEX
  5
F1
  8
LAYER_05
 10
1535.532932219783
 20
3289.75181853946
 30
0.0
  0
VERTEX
  5
F2
  8
LAYER_05
 10
1518.658963622879
 20
3273.001393966049
 30
0.0
  0
SEQEND
  5
F3
  8
LAYER_05
  0
POLYLINE
  5
F4
  8
LAYER_05
 66
     1
 10
0.0
 20
0.0
 30
0.0
 70
     1
  0
VERTEX
  5
F5
  8
LAYER_05
 10
1287.7754321569
 20
2901.471047585364
 30
0.0
  0
VERTEX
  5
F6
  8
LAYER_05
 10
1243.926714486578
 20
2945.643174789713
 30
0.0
  0
VERTEX
  5
F7
  8
LAYER_05
 10
1288.098841690926
 20
2989.491892460034
 30
0.0
  0
VERTEX
  5
F8
  8
LAYER_05
 10
1331.947559361247
 20
2945.319765255686
 30
0.0
  0
SEQEND
  5
F9
  8
LAYER_05
  0
POLYLINE
  5
FA
  8
LAYER_05
 66
     1
 10
0.0
 20
0.0
 30
0.0
 70
     1
  0
VERTEX
  5
FB
  8
LAYER_05
 10
1298.744342730904
 20
3000.059451667714
 30
0.0
  0
VERTEX
  5
FC
  8
LAYER_05
 10
1315.618311327808
 20
3016.809876241124
 30
0.0
  0
VERTEX
  5
FD
  8
LAYER_05
 10
1386.785012779219
 20
2945.118279399894
 30
0.0
  0
VERTEX
  5
FE
  8
LAYER_05
 10
1315.093415937989
 20
2873.951577948483
 30
0.0
  0
VERTEX
  5
FF
  8
LAYER_05
 10
1298.342991364579
 20
2890.825546545387
 30
0.0
  0
VERTEX
  5
100
  8
LAYER_05
 10
1353.160619608905
 20
2945.241823423387
 30
0.0
  0
SEQEND
  5
101
  8
LAYER_05
  0
POLYLINE
  5
102
  8
LAYER_05
 66
     1
 10
0.0
 20
0.0
 30
0.0
  0
VERTEX
  5
103
  8
LAYER_05
 10
1343.137780964691
 20
3044.127860022214
 30
0.0
  0
VERTEX
  5
104
  8
LAYER_05
 10
1397.554057842692
 20
2989.310231777888
 30
0.0
  0
VERTEX
  5
105
  8
LAYER_05
 10
1452.371686087018
 20
3043.726508655889
 30
0.0
  0
VERTEX
  5
106
  8
LAYER_05
 10
1469.122110660428
 20
3026.852540058985
 30
0.0
  0
VERTEX
  5
107
  8
LAYER_05
 10
1397.430513819198
 20
2955.685838607574
 30
0.0
  0
VERTEX
  5
108
  8
LAYER_05
 10
1326.263812367787
 20
3027.377435448804
 30
0.0
  0
VERTEX
  5
109
  8
LAYER_05
 10
1397.955409209017
 20
3098.544136900215
 30
0.0
  0
VERTEX
  5
10A
  8
LAYER_05
 10
1441.804126879338
 20
3054.372009695867
 30
0.0
  0
VERTEX
  5
10B
  8
LAYER_05
 10
1397.63199967499
 20
3010.523292025546
 30
0.0
  0
VERTEX
  5
10C
  8
LAYER_05
 10
1353.783282004669
 20
3054.695419229894
 30
0.0
  0
SEQEND
  5
10D
  8
LAYER_05
  0
POLYLINE
  5
10E
  8
LAYER_05
 66
     1
 10
0.0
 20
0.0
 30
0.0
 70
     1
  0
VERTEX
  5
10F
  8
LAYER_05
 10
1352.978958926759
 20
2835.786607271622
 30
0.0
  0
VERTEX
  5
110
  8
LAYER_05
 10
1397.151086131108
 20
2879.635324941943
 30
0.0
  0
VERTEX
  5
111
  8
LAYER_05
 10
1440.999803801428
 20
2835.463197737595
 30
0.0
  0
VERTEX
  5
112
  8
LAYER_05
 10
1396.82767659708
 20
2791.614480067274
 30
0.0
  0
SEQEND
  5
113
  8
LAYER_05
  0
POLYLINE
  5
114
  8
LAYER_05
 66
     1
 10
0.0
 20
0.0
 30
0.0
 70
     1
  0
VERTEX
  5
115
  8
LAYER_05
 10
1342.41139971908
 20
2846.432108311601
 30
0.0
  0
VERTEX
  5
116
  8
LAYER_05
 10
1397.229027963406
 20
2900.848385189601
 30
0.0
  0
VERTEX
  5
117
  8
LAYER_05
 10
1451.645304841407
 20
2846.030756945275
 30
0.0
  0
VERTEX
  5
118
  8
LAYER_05
 10
1468.519273438311
 20
2862.781181518686
 30
0.0
  0
VERTEX
  5
119
  8
LAYER_05
 10
1397.352571986899
 20
2934.472778359916
 30
0.0
  0
VERTEX
  5
11A
  8
LAYER_05
 10
1325.660975145669
 20
2863.306076908505
 30
0.0
  0
SEQEND
  5
11B
  8
LAYER_05
  0
POLYLINE
  5
11C
  8
LAYER_05
 66
     1
 10
0.0
 20
0.0
 30
0.0
 70
     1
  0
VERTEX
  5
11D
  8
LAYER_05
 10
1298.141505508787
 20
2835.988093127414
 30
0.0
  0
VERTEX
  5
11E
  8
LAYER_05
 10
1314.891930082197
 20
2819.11412453051
 30
0.0
  0
VERTEX
  5
11F
  8
LAYER_05
 10
1331.765898679101
 20
2835.86454910392
 30
0.0
  0
VERTEX
  5
120
  8
LAYER_05
 10
1315.015474105691
 20
2852.738517700824
 30
0.0
  0
SEQEND
  5
121
  8
LAYER_05
  0
POLYLINE
  5
122
  8
LAYER_05
 66
     1
 10
0.0
 20
0.0
 30
0.0
 70
     1
  0
VERTEX
  5
123
  8
LAYER_05
 10
1260.780857909836
 20
3017.011362096916
 30
0.0
  0
VERTEX
  5
124
  8
LAYER_05
 10
1189.089261068606
 20
2945.844660645505
 30
0.0
  0
VERTEX
  5
125
  8
LAYER_05
 10
1260.255962520017
 20
2874.153063804275
 30
0.0
  0
VERTEX
  5
126
  8
LAYER_05
 10
1277.129931116921
 20
2890.903488377685
 30
0.0
  0
VERTEX
  5
127
  8
LAYER_05
 10
1222.713654238919
 20
2945.721116622011
 30
0.0
  0
VERTEX
  5
128
  8
LAYER_05
 10
1277.531282483246
 20
3000.137393500012
 30
0.0
  0
SEQEND
  5
129
  8
LAYER_05
  0
POLYLINE
  5
12A
  8
LAYER_05
 66
     1
 10
0.0
 20
0.0
 30
0.0
 70
     1
  0
VERTEX
  5
12B
  8
LAYER_05
 10
1304.447914898011
 20
2863.384018740803
 30
0.0
  0
VERTEX
  5
12C
  8
LAYER_05
 10
1287.697490324601
 20
2880.257987337707
 30
0.0
  0
VERTEX
  5
12D
  8
LAYER_05
 10
1270.823521727697
 20
2863.507562764296
 30
0.0
  0
VERTEX
  5
12E
  8
LAYER_05
 10
1287.573946301107
 20
2846.633594167392
 30
0.0
  0
SEQEND
  5
12F
  8
LAYER_05
  0
POLYLINE
  5
130
  8
LAYER_05
 66
     1
 10
0.0
 20
0.0
 30
0.0
 70
     1
  0
VERTEX
  5
131
  8
LAYER_05
 10
1451.567363009108
 20
2824.817696697617
 30
0.0
  0
VERTEX
  5
132
  8
LAYER_05
 10
1396.749734764782
 20
2770.401419819616
 30
0.0
  0
VERTEX
  5
133
  8
LAYER_05
 10
1342.333457886781
 20
2825.219048063942
 30
0.0
  0
VERTEX
  5
134
  8
LAYER_05
 10
1325.459489289877
 20
2808.468623490532
 30
0.0
  0
VERTEX
  5
135
  8
LAYER_05
 10
1396.626190741288
 20
2736.777026649301
 30
0.0
  0
VERTEX
  5
136
  8
LAYER_05
 10
1468.317787582519
 20
2807.943728100713
 30
0.0
  0
SEQEND
  5
137
  8
LAYER_05
  0
POLYLINE
  5
138
  8
LAYER_05
 66
     1
 10
0.0
 20
0.0
 30
0.0
 70
     1
  0
VERTEX
  5
139
  8
LAYER_05
 10
1479.086832645991
 20
2852.135680478707
 30
0.0
  0
VERTEX
  5
13A
  8
LAYER_05
 10
1462.212864049087
 20
2835.385255905297
 30
0.0
  0
VERTEX
  5
13B
  8
LAYER_05
 10
1478.963288622497
 20
2818.511287308393
 30
0.0
  0
VERTEX
  5
13C
  8
LAYER_05
 10
1495.837257219401
 20
2835.261711881803
 30
0.0
  0
SEQEND
  5
13D
  8
LAYER_05
  0
POLYLINE
  5
13E
  8
LAYER_05
 66
     1
 10
0.0
 20
0.0
 30
0.0
 70
     1
  0
VERTEX
  5
13F
  8
LAYER_05
 10
1489.732333685969
 20
2862.703239686387
 30
0.0
  0
VERTEX
  5
140
  8
LAYER_05
 10
1506.482758259379
 20
2845.829271089483
 30
0.0
  0
VERTEX
  5
141
  8
LAYER_05
 10
1523.356726856284
 20
2862.579695662893
 30
0.0
  0
VERTEX
  5
142
  8
LAYER_05
 10
1506.606302282873
 20
2879.453664259797
 30
0.0
  0
SEQEND
  5
143
  8
LAYER_05
  0
POLYLINE
  5
144
  8
LAYER_05
 66
     1
 10
0.0
 20
0.0
 30
0.0
 70
     1
  0
VERTEX
  5
145
  8
LAYER_05
 10
1506.684244115172
 20
2900.666724507455
 30
0.0
  0
VERTEX
  5
146
  8
LAYER_05
 10
1462.83552644485
 20
2944.838851711803
 30
0.0
  0
VERTEX
  5
147
  8
LAYER_05
 10
1507.007653649198
 20
2988.687569382124
 30
0.0
  0
VERTEX
  5
148
  8
LAYER_05
 10
1550.856371319519
 20
2944.515442177776
 30
0.0
  0
SEQEND
  5
149
  8
LAYER_05
  0
POLYLINE
  5
14A
  8
LAYER_05
 66
     1
 10
0.0
 20
0.0
 30
0.0
 70
     1
  0
VERTEX
  5
14B
  8
LAYER_05
 10
1496.038743075193
 20
2890.099165299776
 30
0.0
  0
VERTEX
  5
14C
  8
LAYER_05
 10
1441.622466197192
 20
2944.916793544102
 30
0.0
  0
VERTEX
  5
14D
  8
LAYER_05
 10
1496.440094441518
 20
2999.333070422103
 30
0.0
  0
VERTEX
  5
14E
  8
LAYER_05
 10
1479.689669868108
 20
3016.207039019007
 30
0.0
  0
VERTEX
  5
14F
  8
LAYER_05
 10
1407.998073026878
 20
2945.040337567596
 30
0.0
  0
VERTEX
  5
150
  8
LAYER_05
 10
1479.164774478289
 20
2873.348740726365
 30
0.0
  0
SEQEND
  5
151
  8
LAYER_05
  0
POLYLINE
  5
152
  8
LAYER_05
 66
     1
 10
0.0
 20
0.0
 30
0.0
  0
VERTEX
  5
153
  8
LAYER_05
 10
1479.8911557239
 20
3071.044492436979
 30
0.0
  0
VERTEX
  5
154
  8
LAYER_05
 10
1463.017187126996
 20
3054.294067863569
 30
0.0
  0
VERTEX
  5
155
  8
LAYER_05
 10
1479.767611700407
 20
3037.420099266665
 30
0.0
  0
VERTEX
  5
156
  8
LAYER_05
 10
1496.641580297311
 20
3054.170523840075
 30
0.0
  0
VERTEX
  5
157
  8
LAYER_05
 10
1398.156895064809
 20
3153.381590318188
 30
0.0
  0
VERTEX
  5
158
  8
LAYER_05
 10
1326.465298223579
 20
3082.214888866777
 30
0.0
  0
VERTEX
  5
159
  8
LAYER_05
 10
1343.215722796989
 20
3065.340920269873
 30
0.0
  0
VERTEX
  5
15A
  8
LAYER_05
 10
1398.033351041315
 20
3119.757197147873
 30
0.0
  0
VERTEX
  5
15B
  8
LAYER_05
 10
1452.449627919316
 20
3064.939568903547
 30
0.0
  0
VERTEX
  5
15C
  8
LAYER_05
 10
1469.32359651622
 20
3081.689993476958
 30
0.0
  0
SEQEND
  5
15D
  8
LAYER_05
  0
POLYLINE
  5
15E
  8
LAYER_05
 66
     1
 10
0.0
 20
0.0
 30
0.0
 70
     1
  0
VERTEX
  5
15F
  8
LAYER_05
 10
1534.002227896262
 20
2873.147254870573
 30
0.0
  0
VERTEX
  5
160
  8
LAYER_05
 10
1517.251803322851
 20
2890.021223467477
 30
0.0
  0
VERTEX
  5
161
  8
LAYER_05
 10
1572.069431567178
 20
2944.437500345478
 30
0.0
  0
VERTEX
  5
162
  8
LAYER_05
 10
1517.653154689176
 20
2999.255128589804
 30
0.0
  0
VERTEX
  5
163
  8
LAYER_05
 10
1534.52712328608
 20
3016.005553163215
 30
0.0
  0
VERTEX
  5
164
  8
LAYER_05
 10
1605.693824737491
 20
2944.313956321984
 30
0.0
  0
SEQEND
  5
165
  8
LAYER_05
  0
POLYLINE
  5
166
  8
LAYER_05
 66
     1
 10
0.0
 20
0.0
 30
0.0
 70
     1
  0
VERTEX
  5
167
  8
LAYER_05
 10
1490.335170908086
 20
3026.774598226687
 30
0.0
  0
VERTEX
  5
168
  8
LAYER_05
 10
1507.085595481497
 20
3009.900629629783
 30
0.0
  0
VERTEX
  5
169
  8
LAYER_05
 10
1523.9595640784
 20
3026.651054203193
 30
0.0
  0
VERTEX
  5
16A
  8
LAYER_05
 10
1507.20913950499
 20
3043.525022800097
 30
0.0
  0
SEQEND
  5
16B
  8
LAYER_05
  0
POLYLINE
  5
16C
  8
LAYER_05
 66
     1
 10
0.0
 20
0.0
 30
0.0
 70
     1
  0
VERTEX
  5
16D
  8
LAYER_05
 10
1305.050752120128
 20
3027.455377281103
 30
0.0
  0
VERTEX
  5
16E
  8
LAYER_05
 10
1288.300327546718
 20
3044.329345878007
 30
0.0
  0
VERTEX
  5
16F
  8
LAYER_05
 10
1271.426358949814
 20
3027.578921304596
 30
0.0
  0
VERTEX
  5
170
  8
LAYER_05
 10
1288.176783523224
 20
3010.704952707692
 30
0.0
  0
SEQEND
  5
171
  8
LAYER_05
  0
POLYLINE
  5
172
  8
LAYER_05
 66
     1
 10
0.0
 20
0.0
 30
0.0
 70
     1
  0
VERTEX
  5
173
  8
LAYER_05
 10
1315.696253160107
 20
3038.022936488782
 30
0.0
  0
VERTEX
  5
174
  8
LAYER_05
 10
1332.570221757011
 20
3054.773361062193
 30
0.0
  0
VERTEX
  5
175
  8
LAYER_05
 10
1315.819797183601
 20
3071.647329659097
 30
0.0
  0
VERTEX
  5
176
  8
LAYER_05
 10
1298.945828586697
 20
3054.896905085686
 30
0.0
  0
SEQEND
  5
177
  8
LAYER_05
  0
POLYLINE
  5
178
  8
LAYER_05
 66
     1
 10
0.0
 20
0.0
 30
0.0
 70
     1
  0
VERTEX
  5
179
  8
LAYER_05
 10
1068.062297120717
 20
2683.366558705001
 30
0.0
  0
VERTEX
  5
17A
  8
LAYER_05
 10
1024.213579450396
 20
2727.53868590935
 30
0.0
  0
VERTEX
  5
17B
  8
LAYER_05
 10
1068.385706654743
 20
2771.387403579671
 30
0.0
  0
VERTEX
  5
17C
  8
LAYER_05
 10
1112.234424325065
 20
2727.215276375323
 30
0.0
  0
SEQEND
  5
17D
  8
LAYER_05
  0
POLYLINE
  5
17E
  8
LAYER_05
 66
     1
 10
0.0
 20
0.0
 30
0.0
 70
     1
  0
VERTEX
  5
17F
  8
LAYER_05
 10
1079.031207694722
 20
2781.954962787351
 30
0.0
  0
VERTEX
  5
180
  8
LAYER_05
 10
1095.905176291626
 20
2798.705387360761
 30
0.0
  0
VERTEX
  5
181
  8
LAYER_05
 10
1167.071877743037
 20
2727.013790519531
 30
0.0
  0
VERTEX
  5
182
  8
LAYER_05
 10
1095.380280901807
 20
2655.84708906812
 30
0.0
  0
VERTEX
  5
183
  8
LAYER_05
 10
1078.629856328397
 20
2672.721057665024
 30
0.0
  0
VERTEX
  5
184
  8
LAYER_05
 10
1133.447484572723
 20
2727.137334543025
 30
0.0
  0
SEQEND
  5
185
  8
LAYER_05
  0
POLYLINE
  5
186
  8
LAYER_05
 66
     1
 10
0.0
 20
0.0
 30
0.0
  0
VERTEX
  5
187
  8
LAYER_05
 10
1123.424645928508
 20
2826.023371141852
 30
0.0
  0
VERTEX
  5
188
  8
LAYER_05
 10
1177.840922806509
 20
2771.205742897525
 30
0.0
  0
VERTEX
  5
189
  8
LAYER_05
 10
1232.658551050835
 20
2825.622019775526
 30
0.0
  0
VERTEX
  5
18A
  8
LAYER_05
 10
1249.408975624246
 20
2808.748051178622
 30
0.0
  0
VERTEX
  5
18B
  8
LAYER_05
 10
1177.717378783015
 20
2737.581349727211
 30
0.0
  0
VERTEX
  5
18C
  8
LAYER_05
 10
1106.550677331604
 20
2809.272946568441
 30
0.0
  0
VERTEX
  5
18D
  8
LAYER_05
 10
1178.242274172835
 20
2880.439648019852
 30
0.0
  0
VERTEX
  5
18E
  8
LAYER_05
 10
1222.090991843156
 20
2836.267520815505
 30
0.0
  0
VERTEX
  5
18F
  8
LAYER_05
 10
1177.918864638808
 20
2792.418803145184
 30
0.0
  0
VERTEX
  5
190
  8
LAYER_05
 10
1134.070146968486
 20
2836.590930349531
 30
0.0
  0
SEQEND
  5
191
  8
LAYER_05
  0
POLYLINE
  5
192
  8
LAYER_05
 66
     1
 10
0.0
 20
0.0
 30
0.0
 70
     1
  0
VERTEX
  5
193
  8
LAYER_05
 10
1133.265823890577
 20
2617.682118391259
 30
0.0
  0
VERTEX
  5
194
  8
LAYER_05
 10
1177.437951094925
 20
2661.53083606158
 30
0.0
  0
VERTEX
  5
195
  8
LAYER_05
 10
1221.286668765246
 20
2617.358708857232
 30
0.0
  0
VERTEX
  5
196
  8
LAYER_05
 10
1177.114541560898
 20
2573.509991186911
 30
0.0
  0
SEQEND
  5
197
  8
LAYER_05
  0
POLYLINE
  5
198
  8
LAYER_05
 66
     1
 10
0.0
 20
0.0
 30
0.0
 70
     1
  0
VERTEX
  5
199
  8
LAYER_05
 10
1122.698264682898
 20
2628.327619431238
 30
0.0
  0
VERTEX
  5
19A
  8
LAYER_05
 10
1177.515892927224
 20
2682.743896309238
 30
0.0
  0
VERTEX
  5
19B
  8
LAYER_05
 10
1231.932169805224
 20
2627.926268064912
 30
0.0
  0
VERTEX
  5
19C
  8
LAYER_05
 10
1248.806138402128
 20
2644.676692638322
 30
0.0
  0
VERTEX
  5
19D
  8
LAYER_05
 10
1177.639436950717
 20
2716.368289479552
 30
0.0
  0
VERTEX
  5
19E
  8
LAYER_05
 10
1105.947840109487
 20
2645.201588028141
 30
0.0
  0
SEQEND
  5
19F
  8
LAYER_05
  0
POLYLINE
  5
1A0
  8
LAYER_05
 66
     1
 10
0.0
 20
0.0
 30
0.0
 70
     1
  0
VERTEX
  5
1A1
  8
LAYER_05
 10
1078.428370472604
 20
2617.883604247051
 30
0.0
  0
VERTEX
  5
1A2
  8
LAYER_05
 10
1095.178795046015
 20
2601.009635650147
 30
0.0
  0
VERTEX
  5
1A3
  8
LAYER_05
 10
1112.052763642919
 20
2617.760060223557
 30
0.0
  0
VERTEX
  5
1A4
  8
LAYER_05
 10
1095.302339069509
 20
2634.634028820461
 30
0.0
  0
SEQEND
  5
1A5
  8
LAYER_05
  0
POLYLINE
  5
1A6
  8
LAYER_05
 66
     1
 10
0.0
 20
0.0
 30
0.0
 70
     1
  0
VERTEX
  5
1A7
  8
LAYER_05
 10
1041.067722873653
 20
2798.906873216553
 30
0.0
  0
VERTEX
  5
1A8
  8
LAYER_05
 10
969.3761260324231
 20
2727.740171765142
 30
0.0
  0
VERTEX
  5
1A9
  8
LAYER_05
 10
1040.542827483834
 20
2656.048574923911
 30
0.0
  0
VERTEX
  5
1AA
  8
LAYER_05
 10
1057.416796080739
 20
2672.798999497322
 30
0.0
  0
VERTEX
  5
1AB
  8
LAYER_05
 10
1003.000519202737
 20
2727.616627741648
 30
0.0
  0
VERTEX
  5
1AC
  8
LAYER_05
 10
1057.818147447064
 20
2782.032904619649
 30
0.0
  0
SEQEND
  5
1AD
  8
LAYER_05
  0
POLYLINE
  5
1AE
  8
LAYER_05
 66
     1
 10
0.0
 20
0.0
 30
0.0
 70
     1
  0
VERTEX
  5
1AF
  8
LAYER_05
 10
1084.734779861828
 20
2645.27952986044
 30
0.0
  0
VERTEX
  5
1B0
  8
LAYER_05
 10
1067.984355288419
 20
2662.153498457344
 30
0.0
  0
VERTEX
  5
1B1
  8
LAYER_05
 10
1051.110386691514
 20
2645.403073883933
 30
0.0
  0
VERTEX
  5
1B2
  8
LAYER_05
 10
1067.860811264925
 20
2628.529105287029
 30
0.0
  0
SEQEND
  5
1B3
  8
LAYER_05
  0
POLYLINE
  5
1B4
  8
LAYER_05
 66
     1
 10
0.0
 20
0.0
 30
0.0
 70
     1
  0
VERTEX
  5
1B5
  8
LAYER_05
 10
1231.854227972926
 20
2606.713207817254
 30
0.0
  0
VERTEX
  5
1B6
  8
LAYER_05
 10
1177.0365997286
 20
2552.296930939253
 30
0.0
  0
VERTEX
  5
1B7
  8
LAYER_05
 10
1122.620322850599
 20
2607.114559183579
 30
0.0
  0
VERTEX
  5
1B8
  8
LAYER_05
 10
1105.746354253695
 20
2590.364134610169
 30
0.0
  0
VERTEX
  5
1B9
  8
LAYER_05
 10
1176.913055705106
 20
2518.672537768938
 30
0.0
  0
VERTEX
  5
1BA
  8
LAYER_05
 10
1248.604652546337
 20
2589.83923922035
 30
0.0
  0
SEQEND
  5
1BB
  8
LAYER_05
  0
POLYLINE
  5
1BC
  8
LAYER_05
 66
     1
 10
0.0
 20
0.0
 30
0.0
 70
     1
  0
VERTEX
  5
1BD
  8
LAYER_05
 10
1259.373697609808
 20
2634.031191598344
 30
0.0
  0
VERTEX
  5
1BE
  8
LAYER_05
 10
1242.499729012904
 20
2617.280767024934
 30
0.0
  0
VERTEX
  5
1BF
  8
LAYER_05
 10
1259.250153586315
 20
2600.40679842803
 30
0.0
  0
VERTEX
  5
1C0
  8
LAYER_05
 10
1276.124122183219
 20
2617.157223001439
 30
0.0
  0
SEQEND
  5
1C1
  8
LAYER_05
  0
POLYLINE
  5
1C2
  8
LAYER_05
 66
     1
 10
0.0
 20
0.0
 30
0.0
 70
     1
  0
VERTEX
  5
1C3
  8
LAYER_05
 10
1270.019198649787
 20
2644.598750806024
 30
0.0
  0
VERTEX
  5
1C4
  8
LAYER_05
 10
1286.769623223197
 20
2627.724782209119
 30
0.0
  0
VERTEX
  5
1C5
  8
LAYER_05
 10
1303.643591820101
 20
2644.47520678253
 30
0.0
  0
VERTEX
  5
1C6
  8
LAYER_05
 10
1286.893167246691
 20
2661.349175379434
 30
0.0
  0
SEQEND
  5
1C7
  8
LAYER_05
  0
POLYLINE
  5
1C8
  8
LAYER_05
 66
     1
 10
0.0
 20
0.0
 30
0.0
 70
     1
  0
VERTEX
  5
1C9
  8
LAYER_05
 10
1286.971109078989
 20
2682.562235627092
 30
0.0
  0
VERTEX
  5
1CA
  8
LAYER_05
 10
1243.122391408668
 20
2726.73436283144
 30
0.0
  0
VERTEX
  5
1CB
  8
LAYER_05
 10
1287.294518613016
 20
2770.583080501762
 30
0.0
  0
VERTEX
  5
1CC
  8
LAYER_05
 10
1331.143236283337
 20
2726.410953297413
 30
0.0
  0
SEQEND
  5
1CD
  8
LAYER_05
  0
POLYLINE
  5
1CE
  8
LAYER_05
 66
     1
 10
0.0
 20
0.0
 30
0.0
 70
     1
  0
VERTEX
  5
1CF
  8
LAYER_05
 10
1276.325608039011
 20
2671.994676419413
 30
0.0
  0
VERTEX
  5
1D0
  8
LAYER_05
 10
1221.90933116101
 20
2726.812304663739
 30
0.0
  0
VERTEX
  5
1D1
  8
LAYER_05
 10
1276.726959405336
 20
2781.22858154174
 30
0.0
  0
VERTEX
  5
1D2
  8
LAYER_05
 10
1259.976534831926
 20
2798.102550138644
 30
0.0
  0
VERTEX
  5
1D3
  8
LAYER_05
 10
1188.284937990696
 20
2726.935848687232
 30
0.0
  0
VERTEX
  5
1D4
  8
LAYER_05
 10
1259.451639442107
 20
2655.244251846002
 30
0.0
  0
SEQEND
  5
1D5
  8
LAYER_05
  0
POLYLINE
  5
1D6
  8
LAYER_05
 66
     1
 10
0.0
 20
0.0
 30
0.0
  0
VERTEX
  5
1D7
  8
LAYER_05
 10
1260.178020687718
 20
2852.940003556616
 30
0.0
  0
VERTEX
  5
1D8
  8
LAYER_05
 10
1243.304052090814
 20
2836.189578983206
 30
0.0
  0
VERTEX
  5
1D9
  8
LAYER_05
 10
1260.054476664224
 20
2819.315610386302
 30
0.0
  0
VERTEX
  5
1DA
  8
LAYER_05
 10
1276.928445261129
 20
2836.066034959712
 30
0.0
  0
VERTEX
  5
1DB
  8
LAYER_05
 10
1178.443760028627
 20
2935.277101437825
 30
0.0
  0
VERTEX
  5
1DC
  8
LAYER_05
 10
1106.752163187396
 20
2864.110399986414
 30
0.0
  0
VERTEX
  5
1DD
  8
LAYER_05
 10
1123.502587760807
 20
2847.23643138951
 30
0.0
  0
VERTEX
  5
1DE
  8
LAYER_05
 10
1178.320216005133
 20
2901.652708267511
 30
0.0
  0
VERTEX
  5
1DF
  8
LAYER_05
 10
1232.736492883134
 20
2846.835080023184
 30
0.0
  0
VERTEX
  5
1E0
  8
LAYER_05
 10
1249.610461480038
 20
2863.585504596595
 30
0.0
  0
SEQEND
  5
1E1
  8
LAYER_05
  0
POLYLINE
  5
1E2
  8
LAYER_05
 66
     1
 10
0.0
 20
0.0
 30
0.0
 70
     1
  0
VERTEX
  5
1E3
  8
LAYER_05
 10
1314.28909286008
 20
2655.04276599021
 30
0.0
  0
VERTEX
  5
1E4
  8
LAYER_05
 10
1297.538668286669
 20
2671.916734587114
 30
0.0
  0
VERTEX
  5
1E5
  8
LAYER_05
 10
1352.356296530995
 20
2726.333011465115
 30
0.0
  0
VERTEX
  5
1E6
  8
LAYER_05
 10
1297.940019652994
 20
2781.150639709441
 30
0.0
  0
VERTEX
  5
1E7
  8
LAYER_05
 10
1314.813988249898
 20
2797.901064282852
 30
0.0
  0
VERTEX
  5
1E8
  8
LAYER_05
 10
1385.98068970131
 20
2726.209467441621
 30
0.0
  0
SEQEND
  5
1E9
  8
LAYER_05
  0
POLYLINE
  5
1EA
  8
LAYER_05
 66
     1
 10
0.0
 20
0.0
 30
0.0
 70
     1
  0
VERTEX
  5
1EB
  8
LAYER_05
 10
1270.622035871904
 20
2808.670109346323
 30
0.0
  0
VERTEX
  5
1EC
  8
LAYER_05
 10
1287.372460445314
 20
2791.79614074942
 30
0.0
  0
VERTEX
  5
1ED
  8
LAYER_05
 10
1304.246429042219
 20
2808.54656532283
 30
0.0
  0
VERTEX
  5
1EE
  8
LAYER_05
 10
1287.496004468808
 20
2825.420533919734
 30
0.0
  0
SEQEND
  5
1EF
  8
LAYER_05
  0
POLYLINE
  5
1F0
  8
LAYER_05
 66
     1
 10
0.0
 20
0.0
 30
0.0
 70
     1
  0
VERTEX
  5
1F1
  8
LAYER_05
 10
1085.337617083946
 20
2809.35088840074
 30
0.0
  0
VERTEX
  5
1F2
  8
LAYER_05
 10
1068.587192510536
 20
2826.224856997643
 30
0.0
  0
VERTEX
  5
1F3
  8
LAYER_05
 10
1051.713223913632
 20
2809.474432424233
 30
0.0
  0
VERTEX
  5
1F4
  8
LAYER_05
 10
1068.463648487042
 20
2792.600463827329
 30
0.0
  0
SEQEND
  5
1F5
  8
LAYER_05
  0
POLYLINE
  5
1F6
  8
LAYER_05
 66
     1
 10
0.0
 20
0.0
 30
0.0
 70
     1
  0
VERTEX
  5
1F7
  8
LAYER_05
 10
1095.983118123925
 20
2819.918447608419
 30
0.0
  0
VERTEX
  5
1F8
  8
LAYER_05
 10
1112.857086720828
 20
2836.66887218183
 30
0.0
  0
VERTEX
  5
1F9
  8
LAYER_05
 10
1096.106662147418
 20
2853.542840778734
 30
0.0
  0
VERTEX
  5
1FA
  8
LAYER_05
 10
1079.232693550514
 20
2836.792416205324
 30
0.0
  0
SEQEND
  5
1FB
  8
LAYER_05
  0
POLYLINE
  5
1FC
  8
LAYER_05
 66
     1
 10
0.0
 20
0.0
 30
0.0
 70
     1
  0
VERTEX
  5
1FD
  8
LAYER_05
 10
1002.377856806974
 20
2618.163031935141
 30
0.0
  0
VERTEX
  5
1FE
  8
LAYER_05
 10
958.5291391366526
 20
2662.33515913949
 30
0.0
  0
VERTEX
  5
1FF
  8
LAYER_05
 10
914.3570119323043
 20
2618.486441469169
 30
0.0
  0
VERTEX
  5
200
  8
LAYER_05
 10
958.2057296026258
 20
2574.31431426482
 30
0.0
  0
SEQEND
  5
201
  8
LAYER_05
  0
POLYLINE
  5
202
  8
LAYER_05
 66
     1
 10
0.0
 20
0.0
 30
0.0
 70
     1
  0
VERTEX
  5
203
  8
LAYER_05
 10
903.7115108923266
 20
2607.918882261489
 30
0.0
  0
VERTEX
  5
204
  8
LAYER_05
 10
886.8375422954223
 20
2591.168457688078
 30
0.0
  0
VERTEX
  5
205
  8
LAYER_05
 10
958.0042437468333
 20
2519.476860846848
 30
0.0
  0
VERTEX
  5
206
  8
LAYER_05
 10
1029.695840588064
 20
2590.643562298259
 30
0.0
  0
VERTEX
  5
207
  8
LAYER_05
 10
1012.945416014654
 20
2607.517530895163
 30
0.0
  0
VERTEX
  5
208
  8
LAYER_05
 10
958.1277877703275
 20
2553.101254017162
 30
0.0
  0
SEQEND
  5
209
  8
LAYER_05
  0
POLYLINE
  5
20A
  8
LAYER_05
 66
     1
 10
0.0
 20
0.0
 30
0.0
  0
VERTEX
  5
20B
  8
LAYER_05
 10
859.3180726585394
 20
2563.850473906989
 30
0.0
  0
VERTEX
  5
20C
  8
LAYER_05
 10
913.7343495365407
 20
2509.032845662662
 30
0.0
  0
VERTEX
  5
20D
  8
LAYER_05
 10
858.9167212922143
 20
2454.616568784661
 30
0.0
  0
VERTEX
  5
20E
  8
LAYER_05
 10
875.6671458656249
 20
2437.742600187757
 30
0.0
  0
VERTEX
  5
20F
  8
LAYER_05
 10
947.358742706855
 20
2508.909301639168
 30
0.0
  0
VERTEX
  5
210
  8
LAYER_05
 10
876.1920412554439
 20
2580.600898480398
 30
0.0
  0
VERTEX
  5
211
  8
LAYER_05
 10
804.5004444142135
 20
2509.434197028987
 30
0.0
  0
VERTEX
  5
212
  8
LAYER_05
 10
848.3491620845344
 20
2465.262069824639
 30
0.0
  0
VERTEX
  5
213
  8
LAYER_05
 10
892.5212892888825
 20
2509.11078749496
 30
0.0
  0
VERTEX
  5
214
  8
LAYER_05
 10
848.6725716185612
 20
2553.282914699309
 30
0.0
  0
SEQEND
  5
215
  8
LAYER_05
  0
POLYLINE
  5
216
  8
LAYER_05
 66
     1
 10
0.0
 20
0.0
 30
0.0
 70
     1
  0
VERTEX
  5
217
  8
LAYER_05
 10
1067.581383576834
 20
2552.478591621399
 30
0.0
  0
VERTEX
  5
218
  8
LAYER_05
 10
1023.409256372486
 20
2508.629873951077
 30
0.0
  0
VERTEX
  5
219
  8
LAYER_05
 10
1067.257974042807
 20
2464.457746746729
 30
0.0
  0
VERTEX
  5
21A
  8
LAYER_05
 10
1111.430101247155
 20
2508.306464417051
 30
0.0
  0
SEQEND
  5
21B
  8
LAYER_05
  0
POLYLINE
  5
21C
  8
LAYER_05
 66
     1
 10
0.0
 20
0.0
 30
0.0
 70
     1
  0
VERTEX
  5
21D
  8
LAYER_05
 10
1057.013824369154
 20
2563.124092661376
 30
0.0
  0
VERTEX
  5
21E
  8
LAYER_05
 10
1002.196196124828
 20
2508.707815783376
 30
0.0
  0
VERTEX
  5
21F
  8
LAYER_05
 10
1056.612473002829
 20
2453.890187539049
 30
0.0
  0
VERTEX
  5
220
  8
LAYER_05
 10
1039.738504405924
 20
2437.139762965639
 30
0.0
  0
VERTEX
  5
221
  8
LAYER_05
 10
968.5718029545134
 20
2508.83135980687
 30
0.0
  0
VERTEX
  5
222
  8
LAYER_05
 10
1040.263399795744
 20
2579.998061258281
 30
0.0
  0
SEQEND
  5
223
  8
LAYER_05
  0
POLYLINE
  5
224
  8
LAYER_05
 66
     1
 10
0.0
 20
0.0
 30
0.0
 70
     1
  0
VERTEX
  5
225
  8
LAYER_05
 10
1067.782869432626
 20
2607.316045039371
 30
0.0
  0
VERTEX
  5
226
  8
LAYER_05
 10
1084.533294006036
 20
2590.442076442467
 30
0.0
  0
VERTEX
  5
227
  8
LAYER_05
 10
1067.659325409132
 20
2573.691651869057
 30
0.0
  0
VERTEX
  5
228
  8
LAYER_05
 10
1050.908900835722
 20
2590.565620465961
 30
0.0
  0
SEQEND
  5
229
  8
LAYER_05
  0
POLYLINE
  5
22A
  8
LAYER_05
 66
     1
 10
0.0
 20
0.0
 30
0.0
 70
     1
  0
VERTEX
  5
22B
  8
LAYER_05
 10
887.0390281512147
 20
2646.005911106051
 30
0.0
  0
VERTEX
  5
22C
  8
LAYER_05
 10
958.730624992445
 20
2717.172612557462
 30
0.0
  0
VERTEX
  5
22D
  8
LAYER_05
 10
1029.897326443856
 20
2645.481015716232
 30
0.0
  0
VERTEX
  5
22E
  8
LAYER_05
 10
1013.023357846952
 20
2628.730591142821
 30
0.0
  0
VERTEX
  5
22F
  8
LAYER_05
 10
958.6070809689508
 20
2683.548219387148
 30
0.0
  0
VERTEX
  5
230
  8
LAYER_05
 10
903.7894527246248
 20
2629.131942509147
 30
0.0
  0
SEQEND
  5
231
  8
LAYER_05
  0
POLYLINE
  5
232
  8
LAYER_05
 66
     1
 10
0.0
 20
0.0
 30
0.0
 70
     1
  0
VERTEX
  5
233
  8
LAYER_05
 10
1040.341341628042
 20
2601.211121505939
 30
0.0
  0
VERTEX
  5
234
  8
LAYER_05
 10
1023.590917054632
 20
2618.085090102843
 30
0.0
  0
VERTEX
  5
235
  8
LAYER_05
 10
1040.464885651536
 20
2634.835514676253
 30
0.0
  0
VERTEX
  5
236
  8
LAYER_05
 10
1057.215310224946
 20
2617.961546079349
 30
0.0
  0
SEQEND
  5
237
  8
LAYER_05
  0
POLYLINE
  5
238
  8
LAYER_05
 66
     1
 10
0.0
 20
0.0
 30
0.0
 70
     1
  0
VERTEX
  5
239
  8
LAYER_05
 10
1077.825533250487
 20
2453.812245706751
 30
0.0
  0
VERTEX
  5
23A
  8
LAYER_05
 10
1132.643161494813
 20
2508.228522584752
 30
0.0
  0
VERTEX
  5
23B
  8
LAYER_05
 10
1078.226884616812
 20
2563.046150829078
 30
0.0
  0
VERTEX
  5
23C
  8
LAYER_05
 10
1095.100853213716
 20
2579.796575402489
 30
0.0
  0
VERTEX
  5
23D
  8
LAYER_05
 10
1166.267554665128
 20
2508.104978561258
 30
0.0
  0
VERTEX
  5
23E
  8
LAYER_05
 10
1094.575957823897
 20
2436.938277109847
 30
0.0
  0
SEQEND
  5
23F
  8
LAYER_05
  0
POLYLINE
  5
240
  8
LAYER_05
 66
     1
 10
0.0
 20
0.0
 30
0.0
 70
     1
  0
VERTEX
  5
241
  8
LAYER_05
 10
1050.306063613605
 20
2426.494261925661
 30
0.0
  0
VERTEX
  5
242
  8
LAYER_05
 10
1067.180032210508
 20
2443.244686499071
 30
0.0
  0
VERTEX
  5
243
  8
LAYER_05
 10
1083.930456783919
 20
2426.370717902167
 30
0.0
  0
VERTEX
  5
244
  8
LAYER_05
 10
1067.056488187015
 20
2409.620293328757
 30
0.0
  0
SEQEND
  5
245
  8
LAYER_05
  0
POLYLINE
  5
246
  8
LAYER_05
 66
     1
 10
0.0
 20
0.0
 30
0.0
 70
     1
  0
VERTEX
  5
247
  8
LAYER_05
 10
1039.660562573626
 20
2415.926702717981
 30
0.0
  0
VERTEX
  5
248
  8
LAYER_05
 10
1056.410987147037
 20
2399.052734121077
 30
0.0
  0
VERTEX
  5
249
  8
LAYER_05
 10
1039.537018550132
 20
2382.302309547666
 30
0.0
  0
VERTEX
  5
24A
  8
LAYER_05
 10
1022.786593976722
 20
2399.176278144571
 30
0.0
  0
SEQEND
  5
24B
  8
LAYER_05
  0
POLYLINE
  5
24C
  8
LAYER_05
 66
     1
 10
0.0
 20
0.0
 30
0.0
 70
     1
  0
VERTEX
  5
24D
  8
LAYER_05
 10
1001.573533729064
 20
2399.254219976869
 30
0.0
  0
VERTEX
  5
24E
  8
LAYER_05
 10
957.7248160587426
 20
2443.426347181217
 30
0.0
  0
VERTEX
  5
24F
  8
LAYER_05
 10
913.5526888543947
 20
2399.577629510896
 30
0.0
  0
VERTEX
  5
250
  8
LAYER_05
 10
957.401406524716
 20
2355.405502306548
 30
0.0
  0
SEQEND
  5
251
  8
LAYER_05
  0
POLYLINE
  5
252
  8
LAYER_05
 66
     1
 10
0.0
 20
0.0
 30
0.0
 70
     1
  0
VERTEX
  5
253
  8
LAYER_05
 10
1012.219034769042
 20
2409.82177918455
 30
0.0
  0
VERTEX
  5
254
  8
LAYER_05
 10
957.802757891041
 20
2464.639407428876
 30
0.0
  0
VERTEX
  5
255
  8
LAYER_05
 10
902.9851296467148
 20
2410.223130550874
 30
0.0
  0
VERTEX
  5
256
  8
LAYER_05
 10
886.2347050733047
 20
2427.097099147778
 30
0.0
  0
VERTEX
  5
257
  8
LAYER_05
 10
957.9263019145351
 20
2498.26380059919
 30
0.0
  0
VERTEX
  5
258
  8
LAYER_05
 10
1029.093003365946
 20
2426.572203757959
 30
0.0
  0
SEQEND
  5
259
  8
LAYER_05
  0
POLYLINE
  5
25A
  8
LAYER_05
 66
     1
 10
0.0
 20
0.0
 30
0.0
  0
VERTEX
  5
25B
  8
LAYER_05
 10
831.3972516553321
 20
2427.298585003571
 30
0.0
  0
VERTEX
  5
25C
  8
LAYER_05
 10
848.2712202522362
 20
2444.049009576981
 30
0.0
  0
VERTEX
  5
25D
  8
LAYER_05
 10
865.0216448256466
 20
2427.175040980077
 30
0.0
  0
VERTEX
  5
25E
  8
LAYER_05
 10
848.1476762287425
 20
2410.424616406666
 30
0.0
  0
VERTEX
  5
25F
  8
LAYER_05
 10
749.6629909962409
 20
2509.635682884779
 30
0.0
  0
VERTEX
  5
260
  8
LAYER_05
 10
821.3545878374712
 20
2580.802384336191
 30
0.0
  0
VERTEX
  5
261
  8
LAYER_05
 10
838.1050124108816
 20
2563.928415739286
 30
0.0
  0
VERTEX
  5
262
  8
LAYER_05
 10
783.2873841665552
 20
2509.512138861286
 30
0.0
  0
VERTEX
  5
263
  8
LAYER_05
 10
837.7036610445563
 20
2454.694510616959
 30
0.0
  0
VERTEX
  5
264
  8
LAYER_05
 10
820.8296924476522
 20
2437.944086043549
 30
0.0
  0
SEQEND
  5
265
  8
LAYER_05
  0
POLYLINE
  5
266
  8
LAYER_05
 66
     1
 10
0.0
 20
0.0
 30
0.0
 70
     1
  0
VERTEX
  5
267
  8
LAYER_05
 10
1028.891517510154
 20
2371.734750339986
 30
0.0
  0
VERTEX
  5
268
  8
LAYER_05
 10
1012.141092936744
 20
2388.608718936891
 30
0.0
  0
VERTEX
  5
269
  8
LAYER_05
 10
957.3234646924176
 20
2334.19244205889
 30
0.0
  0
VERTEX
  5
26A
  8
LAYER_05
 10
902.9071878144164
 20
2389.010070303216
 30
0.0
  0
VERTEX
  5
26B
  8
LAYER_05
 10
886.0332192175123
 20
2372.259645729806
 30
0.0
  0
VERTEX
  5
26C
  8
LAYER_05
 10
957.1999206689236
 20
2300.568048888576
 30
0.0
  0
SEQEND
  5
26D
  8
LAYER_05
  0
POLYLINE
  5
26E
  8
LAYER_05
 66
     1
 10
0.0
 20
0.0
 30
0.0
 70
     1
  0
VERTEX
  5
26F
  8
LAYER_05
 10
875.5892040333265
 20
2416.529539940098
 30
0.0
  0
VERTEX
  5
270
  8
LAYER_05
 10
892.3396286067365
 20
2399.655571343194
 30
0.0
  0
VERTEX
  5
271
  8
LAYER_05
 10
875.4656600098324
 20
2382.905146769785
 30
0.0
  0
VERTEX
  5
272
  8
LAYER_05
 10
858.7152354364223
 20
2399.779115366689
 30
0.0
  0
SEQEND
  5
273
  8
LAYER_05
  0
POLYLINE
  5
274
  8
LAYER_05
 66
     1
 10
0.0
 20
0.0
 30
0.0
 70
     1
  0
VERTEX
  5
275
  8
LAYER_05
 10
876.269983087742
 20
2601.813958728057
 30
0.0
  0
VERTEX
  5
276
  8
LAYER_05
 10
859.5195585143322
 20
2618.687927324961
 30
0.0
  0
VERTEX
  5
277
  8
LAYER_05
 10
876.3935271112363
 20
2635.438351898371
 30
0.0
  0
VERTEX
  5
278
  8
LAYER_05
 10
893.1439516846463
 20
2618.564383301467
 30
0.0
  0
SEQEND
  5
279
  8
LAYER_05
  0
POLYLINE
  5
27A
  8
LAYER_05
 66
     1
 10
0.0
 20
0.0
 30
0.0
 70
     1
  0
VERTEX
  5
27B
  8
LAYER_05
 10
865.6244820477641
 20
2591.246399520377
 30
0.0
  0
VERTEX
  5
27C
  8
LAYER_05
 10
848.7505134508597
 20
2574.495974946966
 30
0.0
  0
VERTEX
  5
27D
  8
LAYER_05
 10
832.0000888774497
 20
2591.36994354387
 30
0.0
  0
VERTEX
  5
27E
  8
LAYER_05
 10
848.8740574743539
 20
2608.120368117281
 30
0.0
  0
SEQEND
  5
27F
  8
LAYER_05
  0
POLYLINE
  5
280
  8
LAYER_05
 66
     1
 10
0.0
 20
0.0
 30
0.0
 70
     1
  0
VERTEX
  5
281
  8
LAYER_05
 10
1289.384078312719
 20
3339.288671501909
 30
0.0
  0
VERTEX
  5
282
  8
LAYER_05
 10
1245.535360642397
 20
3383.460798706258
 30
0.0
  0
VERTEX
  5
283
  8
LAYER_05
 10
1289.707487846745
 20
3427.309516376579
 30
0.0
  0
VERTEX
  5
284
  8
LAYER_05
 10
1333.556205517067
 20
3383.137389172231
 30
0.0
  0
SEQEND
  5
285
  8
LAYER_05
  0
POLYLINE
  5
286
  8
LAYER_05
 66
     1
 10
0.0
 20
0.0
 30
0.0
 70
     1
  0
VERTEX
  5
287
  8
LAYER_05
 10
1300.352988886723
 20
3437.877075584259
 30
0.0
  0
VERTEX
  5
288
  8
LAYER_05
 10
1317.226957483628
 20
3454.627500157669
 30
0.0
  0
VERTEX
  5
289
  8
LAYER_05
 10
1388.393658935039
 20
3382.935903316439
 30
0.0
  0
VERTEX
  5
28A
  8
LAYER_05
 10
1316.702062093809
 20
3311.769201865028
 30
0.0
  0
VERTEX
  5
28B
  8
LAYER_05
 10
1299.951637520399
 20
3328.643170461931
 30
0.0
  0
VERTEX
  5
28C
  8
LAYER_05
 10
1354.769265764725
 20
3383.059447339933
 30
0.0
  0
SEQEND
  5
28D
  8
LAYER_05
  0
POLYLINE
  5
28E
  8
LAYER_05
 66
     1
 10
0.0
 20
0.0
 30
0.0
  0
VERTEX
  5
28F
  8
LAYER_05
 10
1344.74642712051
 20
3481.945483938759
 30
0.0
  0
VERTEX
  5
290
  8
LAYER_05
 10
1399.162703998511
 20
3427.127855694433
 30
0.0
  0
VERTEX
  5
291
  8
LAYER_05
 10
1453.980332242837
 20
3481.544132572435
 30
0.0
  0
VERTEX
  5
292
  8
LAYER_05
 10
1470.730756816248
 20
3464.67016397553
 30
0.0
  0
VERTEX
  5
293
  8
LAYER_05
 10
1399.039159975017
 20
3393.503462524119
 30
0.0
  0
VERTEX
  5
294
  8
LAYER_05
 10
1327.872458523606
 20
3465.195059365349
 30
0.0
  0
VERTEX
  5
295
  8
LAYER_05
 10
1399.564055364837
 20
3536.361760816761
 30
0.0
  0
VERTEX
  5
296
  8
LAYER_05
 10
1443.412773035158
 20
3492.189633612413
 30
0.0
  0
VERTEX
  5
297
  8
LAYER_05
 10
1399.24064583081
 20
3448.340915942091
 30
0.0
  0
VERTEX
  5
298
  8
LAYER_05
 10
1355.391928160488
 20
3492.513043146439
 30
0.0
  0
SEQEND
  5
299
  8
LAYER_05
  0
POLYLINE
  5
29A
  8
LAYER_05
 66
     1
 10
0.0
 20
0.0
 30
0.0
 70
     1
  0
VERTEX
  5
29B
  8
LAYER_05
 10
1354.587605082579
 20
3273.604231188167
 30
0.0
  0
VERTEX
  5
29C
  8
LAYER_05
 10
1398.759732286927
 20
3317.452948858488
 30
0.0
  0
VERTEX
  5
29D
  8
LAYER_05
 10
1442.608449957248
 20
3273.28082165414
 30
0.0
  0
VERTEX
  5
29E
  8
LAYER_05
 10
1398.4363227529
 20
3229.432103983819
 30
0.0
  0
SEQEND
  5
29F
  8
LAYER_05
  0
POLYLINE
  5
2A0
  8
LAYER_05
 66
     1
 10
0.0
 20
0.0
 30
0.0
 70
     1
  0
VERTEX
  5
2A1
  8
LAYER_05
 10
1344.0200458749
 20
3284.249732228146
 30
0.0
  0
VERTEX
  5
2A2
  8
LAYER_05
 10
1398.837674119226
 20
3338.666009106146
 30
0.0
  0
VERTEX
  5
2A3
  8
LAYER_05
 10
1453.253950997227
 20
3283.84838086182
 30
0.0
  0
VERTEX
  5
2A4
  8
LAYER_05
 10
1470.12791959413
 20
3300.598805435231
 30
0.0
  0
VERTEX
  5
2A5
  8
LAYER_05
 10
1398.961218142719
 20
3372.290402276461
 30
0.0
  0
VERTEX
  5
2A6
  8
LAYER_05
 10
1327.269621301489
 20
3301.123700825049
 30
0.0
  0
SEQEND
  5
2A7
  8
LAYER_05
  0
POLYLINE
  5
2A8
  8
LAYER_05
 66
     1
 10
0.0
 20
0.0
 30
0.0
 70
     1
  0
VERTEX
  5
2A9
  8
LAYER_05
 10
1299.750151664607
 20
3273.805717043959
 30
0.0
  0
VERTEX
  5
2AA
  8
LAYER_05
 10
1316.500576238017
 20
3256.931748447055
 30
0.0
  0
VERTEX
  5
2AB
  8
LAYER_05
 10
1333.374544834921
 20
3273.682173020465
 30
0.0
  0
VERTEX
  5
2AC
  8
LAYER_05
 10
1316.624120261511
 20
3290.556141617369
 30
0.0
  0
SEQEND
  5
2AD
  8
LAYER_05
  0
POLYLINE
  5
2AE
  8
LAYER_05
 66
     1
 10
0.0
 20
0.0
 30
0.0
 70
     1
  0
VERTEX
  5
2AF
  8
LAYER_05
 10
1262.389504065655
 20
3454.828986013461
 30
0.0
  0
VERTEX
  5
2B0
  8
LAYER_05
 10
1190.697907224425
 20
3383.66228456205
 30
0.0
  0
VERTEX
  5
2B1
  8
LAYER_05
 10
1261.864608675836
 20
3311.97068772082
 30
0.0
  0
VERTEX
  5
2B2
  8
LAYER_05
 10
1278.73857727274
 20
3328.72111229423
 30
0.0
  0
VERTEX
  5
2B3
  8
LAYER_05
 10
1224.322300394739
 20
3383.538740538556
 30
0.0
  0
VERTEX
  5
2B4
  8
LAYER_05
 10
1279.139928639066
 20
3437.955017416557
 30
0.0
  0
SEQEND
  5
2B5
  8
LAYER_05
  0
POLYLINE
  5
2B6
  8
LAYER_05
 66
     1
 10
0.0
 20
0.0
 30
0.0
 70
     1
  0
VERTEX
  5
2B7
  8
LAYER_05
 10
1306.05656105383
 20
3301.201642657348
 30
0.0
  0
VERTEX
  5
2B8
  8
LAYER_05
 10
1289.30613648042
 20
3318.075611254252
 30
0.0
  0
VERTEX
  5
2B9
  8
LAYER_05
 10
1272.432167883516
 20
3301.325186680841
 30
0.0
  0
VERTEX
  5
2BA
  8
LAYER_05
 10
1289.182592456927
 20
3284.451218083937
 30
0.0
  0
SEQEND
  5
2BB
  8
LAYER_05
  0
POLYLINE
  5
2BC
  8
LAYER_05
 66
     1
 10
0.0
 20
0.0
 30
0.0
 70
     1
  0
VERTEX
  5
2BD
  8
LAYER_05
 10
1453.176009164928
 20
3262.635320614162
 30
0.0
  0
VERTEX
  5
2BE
  8
LAYER_05
 10
1398.358380920602
 20
3208.219043736161
 30
0.0
  0
VERTEX
  5
2BF
  8
LAYER_05
 10
1343.942104042601
 20
3263.036671980487
 30
0.0
  0
VERTEX
  5
2C0
  8
LAYER_05
 10
1327.068135445697
 20
3246.286247407077
 30
0.0
  0
VERTEX
  5
2C1
  8
LAYER_05
 10
1398.234836897108
 20
3174.594650565846
 30
0.0
  0
VERTEX
  5
2C2
  8
LAYER_05
 10
1469.926433738339
 20
3245.761352017258
 30
0.0
  0
SEQEND
  5
2C3
  8
LAYER_05
  0
POLYLINE
  5
2C4
  8
LAYER_05
 66
     1
 10
0.0
 20
0.0
 30
0.0
 70
     1
  0
VERTEX
  5
2C5
  8
LAYER_05
 10
1480.69547880181
 20
3289.953304395252
 30
0.0
  0
VERTEX
  5
2C6
  8
LAYER_05
 10
1463.821510204907
 20
3273.202879821842
 30
0.0
  0
VERTEX
  5
2C7
  8
LAYER_05
 10
1480.571934778317
 20
3256.328911224938
 30
0.0
  0
VERTEX
  5
2C8
  8
LAYER_05
 10
1497.44590337522
 20
3273.079335798348
 30
0.0
  0
SEQEND
  5
2C9
  8
LAYER_05
  0
POLYLINE
  5
2CA
  8
LAYER_05
 66
     1
 10
0.0
 20
0.0
 30
0.0
 70
     1
  0
VERTEX
  5
2CB
  8
LAYER_05
 10
1491.340979841789
 20
3300.520863602932
 30
0.0
  0
VERTEX
  5
2CC
  8
LAYER_05
 10
1508.091404415199
 20
3283.646895006028
 30
0.0
  0
VERTEX
  5
2CD
  8
LAYER_05
 10
1524.965373012103
 20
3300.397319579438
 30
0.0
  0
VERTEX
  5
2CE
  8
LAYER_05
 10
1508.214948438693
 20
3317.271288176342
 30
0.0
  0
SEQEND
  5
2CF
  8
LAYER_05
  0
POLYLINE
  5
2D0
  8
LAYER_05
 66
     1
 10
0.0
 20
0.0
 30
0.0
 70
     1
  0
VERTEX
  5
2D1
  8
LAYER_05
 10
1508.292890270991
 20
3338.484348424
 30
0.0
  0
VERTEX
  5
2D2
  8
LAYER_05
 10
1464.44417260067
 20
3382.656475628348
 30
0.0
  0
VERTEX
  5
2D3
  8
LAYER_05
 10
1508.616299805018
 20
3426.505193298669
 30
0.0
  0
VERTEX
  5
2D4
  8
LAYER_05
 10
1552.465017475339
 20
3382.333066094322
 30
0.0
  0
SEQEND
  5
2D5
  8
LAYER_05
  0
POLYLINE
  5
2D6
  8
LAYER_05
 66
     1
 10
0.0
 20
0.0
 30
0.0
 70
     1
  0
VERTEX
  5
2D7
  8
LAYER_05
 10
1497.647389231012
 20
3327.916789216321
 30
0.0
  0
VERTEX
  5
2D8
  8
LAYER_05
 10
1443.231112353011
 20
3382.734417460646
 30
0.0
  0
VERTEX
  5
2D9
  8
LAYER_05
 10
1498.048740597338
 20
3437.150694338648
 30
0.0
  0
VERTEX
  5
2DA
  8
LAYER_05
 10
1481.298316023928
 20
3454.024662935552
 30
0.0
  0
VERTEX
  5
2DB
  8
LAYER_05
 10
1409.606719182697
 20
3382.857961484141
 30
0.0
  0
VERTEX
  5
2DC
  8
LAYER_05
 10
1480.773420634109
 20
3311.16636464291
 30
0.0
  0
SEQEND
  5
2DD
  8
LAYER_05
  0
POLYLINE
  5
2DE
  8
LAYER_05
 66
     1
 10
0.0
 20
0.0
 30
0.0
  0
VERTEX
  5
2DF
  8
LAYER_05
 10
1481.49980187972
 20
3508.862116353524
 30
0.0
  0
VERTEX
  5
2E0
  8
LAYER_05
 10
1464.625833282816
 20
3492.111691780114
 30
0.0
  0
VERTEX
  5
2E1
  8
LAYER_05
 10
1481.376257856226
 20
3475.23772318321
 30
0.0
  0
VERTEX
  5
2E2
  8
LAYER_05
 10
1498.25022645313
 20
3491.98814775662
 30
0.0
  0
VERTEX
  5
2E3
  8
LAYER_05
 10
1399.765541220629
 20
3591.199214234733
 30
0.0
  0
VERTEX
  5
2E4
  8
LAYER_05
 10
1328.073944379398
 20
3520.032512783322
 30
0.0
  0
VERTEX
  5
2E5
  8
LAYER_05
 10
1344.824368952809
 20
3503.158544186418
 30
0.0
  0
VERTEX
  5
2E6
  8
LAYER_05
 10
1399.641997197135
 20
3557.574821064419
 30
0.0
  0
VERTEX
  5
2E7
  8
LAYER_05
 10
1454.058274075136
 20
3502.757192820093
 30
0.0
  0
VERTEX
  5
2E8
  8
LAYER_05
 10
1470.93224267204
 20
3519.507617393503
 30
0.0
  0
SEQEND
  5
2E9
  8
LAYER_05
  0
POLYLINE
  5
2EA
  8
LAYER_05
 66
     1
 10
0.0
 20
0.0
 30
0.0
 70
     1
  0
VERTEX
  5
2EB
  8
LAYER_05
 10
1535.610874052082
 20
3310.964878787118
 30
0.0
  0
VERTEX
  5
2EC
  8
LAYER_05
 10
1518.860449478671
 20
3327.838847384022
 30
0.0
  0
VERTEX
  5
2ED
  8
LAYER_05
 10
1573.678077722997
 20
3382.255124262023
 30
0.0
  0
VERTEX
  5
2EE
  8
LAYER_05
 10
1519.261800844996
 20
3437.07275250635
 30
0.0
  0
VERTEX
  5
2EF
  8
LAYER_05
 10
1536.1357694419
 20
3453.82317707976
 30
0.0
  0
VERTEX
  5
2F0
  8
LAYER_05
 10
1607.302470893312
 20
3382.131580238529
 30
0.0
  0
SEQEND
  5
2F1
  8
LAYER_05
  0
POLYLINE
  5
2F2
  8
LAYER_05
 66
     1
 10
0.0
 20
0.0
 30
0.0
 70
     1
  0
VERTEX
  5
2F3
  8
LAYER_05
 10
1491.943817063906
 20
3464.592222143232
 30
0.0
  0
VERTEX
  5
2F4
  8
LAYER_05
 10
1508.694241637316
 20
3447.718253546328
 30
0.0
  0
VERTEX
  5
2F5
  8
LAYER_05
 10
1525.56821023422
 20
3464.468678119738
 30
0.0
  0
VERTEX
  5
2F6
  8
LAYER_05
 10
1508.81778566081
 20
3481.342646716642
 30
0.0
  0
SEQEND
  5
2F7
  8
LAYER_05
  0
POLYLINE
  5
2F8
  8
LAYER_05
 66
     1
 10
0.0
 20
0.0
 30
0.0
 70
     1
  0
VERTEX
  5
2F9
  8
LAYER_05
 10
1306.659398275948
 20
3465.273001197648
 30
0.0
  0
VERTEX
  5
2FA
  8
LAYER_05
 10
1289.908973702538
 20
3482.146969794552
 30
0.0
  0
VERTEX
  5
2FB
  8
LAYER_05
 10
1273.035005105634
 20
3465.396545221141
 30
0.0
  0
VERTEX
  5
2FC
  8
LAYER_05
 10
1289.785429679044
 20
3448.522576624237
 30
0.0
  0
SEQEND
  5
2FD
  8
LAYER_05
  0
POLYLINE
  5
2FE
  8
LAYER_05
 66
     1
 10
0.0
 20
0.0
 30
0.0
 70
     1
  0
VERTEX
  5
2FF
  8
LAYER_05
 10
1317.304899315926
 20
3475.840560405327
 30
0.0
  0
VERTEX
  5
300
  8
LAYER_05
 10
1334.17886791283
 20
3492.590984978738
 30
0.0
  0
VERTEX
  5
301
  8
LAYER_05
 10
1317.42844333942
 20
3509.464953575642
 30
0.0
  0
VERTEX
  5
302
  8
LAYER_05
 10
1300.554474742516
 20
3492.714529002231
 30
0.0
  0
SEQEND
  5
303
  8
LAYER_05
  0
POLYLINE
  5
304
  8
LAYER_05
 66
     1
 10
0.0
 20
0.0
 30
0.0
 70
     1
  0
VERTEX
  5
305
  8
LAYER_05
 10
1069.670943276537
 20
3121.184182621546
 30
0.0
  0
VERTEX
  5
306
  8
LAYER_05
 10
1025.822225606215
 20
3165.356309825895
 30
0.0
  0
VERTEX
  5
307
  8
LAYER_05
 10
1069.994352810563
 20
3209.205027496216
 30
0.0
  0
VERTEX
  5
308
  8
LAYER_05
 10
1113.843070480885
 20
3165.032900291868
 30
0.0
  0
SEQEND
  5
309
  8
LAYER_05
  0
POLYLINE
  5
30A
  8
LAYER_05
 66
     1
 10
0.0
 20
0.0
 30
0.0
 70
     1
  0
VERTEX
  5
30B
  8
LAYER_05
 10
1080.639853850541
 20
3219.772586703896
 30
0.0
  0
VERTEX
  5
30C
  8
LAYER_05
 10
1097.513822447446
 20
3236.523011277306
 30
0.0
  0
VERTEX
  5
30D
  8
LAYER_05
 10
1168.680523898857
 20
3164.831414436076
 30
0.0
  0
VERTEX
  5
30E
  8
LAYER_05
 10
1096.988927057626
 20
3093.664712984665
 30
0.0
  0
VERTEX
  5
30F
  8
LAYER_05
 10
1080.238502484216
 20
3110.538681581569
 30
0.0
  0
VERTEX
  5
310
  8
LAYER_05
 10
1135.056130728543
 20
3164.954958459569
 30
0.0
  0
SEQEND
  5
311
  8
LAYER_05
  0
POLYLINE
  5
312
  8
LAYER_05
 66
     1
 10
0.0
 20
0.0
 30
0.0
  0
VERTEX
  5
313
  8
LAYER_05
 10
1125.033292084328
 20
3263.840995058396
 30
0.0
  0
VERTEX
  5
314
  8
LAYER_05
 10
1179.449568962329
 20
3209.02336681407
 30
0.0
  0
VERTEX
  5
315
  8
LAYER_05
 10
1234.267197206655
 20
3263.439643692071
 30
0.0
  0
VERTEX
  5
316
  8
LAYER_05
 10
1251.017621780065
 20
3246.565675095167
 30
0.0
  0
VERTEX
  5
317
  8
LAYER_05
 10
1179.326024938835
 20
3175.398973643756
 30
0.0
  0
VERTEX
  5
318
  8
LAYER_05
 10
1108.159323487424
 20
3247.090570484986
 30
0.0
  0
VERTEX
  5
319
  8
LAYER_05
 10
1179.850920328654
 20
3318.257271936398
 30
0.0
  0
VERTEX
  5
31A
  8
LAYER_05
 10
1223.699637998975
 20
3274.08514473205
 30
0.0
  0
VERTEX
  5
31B
  8
LAYER_05
 10
1179.527510794627
 20
3230.236427061729
 30
0.0
  0
VERTEX
  5
31C
  8
LAYER_05
 10
1135.678793124306
 20
3274.408554266076
 30
0.0
  0
SEQEND
  5
31D
  8
LAYER_05
  0
POLYLINE
  5
31E
  8
LAYER_05
 66
     1
 10
0.0
 20
0.0
 30
0.0
 70
     1
  0
VERTEX
  5
31F
  8
LAYER_05
 10
1134.874470046397
 20
3055.499742307804
 30
0.0
  0
VERTEX
  5
320
  8
LAYER_05
 10
1179.046597250745
 20
3099.348459978125
 30
0.0
  0
VERTEX
  5
321
  8
LAYER_05
 10
1222.895314921066
 20
3055.176332773777
 30
0.0
  0
VERTEX
  5
322
  8
LAYER_05
 10
1178.723187716718
 20
3011.327615103456
 30
0.0
  0
SEQEND
  5
323
  8
LAYER_05
  0
POLYLINE
  5
324
  8
LAYER_05
 66
     1
 10
0.0
 20
0.0
 30
0.0
 70
     1
  0
VERTEX
  5
325
  8
LAYER_05
 10
1124.306910838717
 20
3066.145243347782
 30
0.0
  0
VERTEX
  5
326
  8
LAYER_05
 10
1179.124539083043
 20
3120.561520225783
 30
0.0
  0
VERTEX
  5
327
  8
LAYER_05
 10
1233.540815961044
 20
3065.743891981457
 30
0.0
  0
VERTEX
  5
328
  8
LAYER_05
 10
1250.414784557948
 20
3082.494316554867
 30
0.0
  0
VERTEX
  5
329
  8
LAYER_05
 10
1179.248083106537
 20
3154.185913396097
 30
0.0
  0
VERTEX
  5
32A
  8
LAYER_05
 10
1107.556486265306
 20
3083.019211944686
 30
0.0
  0
SEQEND
  5
32B
  8
LAYER_05
  0
POLYLINE
  5
32C
  8
LAYER_05
 66
     1
 10
0.0
 20
0.0
 30
0.0
 70
     1
  0
VERTEX
  5
32D
  8
LAYER_05
 10
1080.037016628424
 20
3055.701228163597
 30
0.0
  0
VERTEX
  5
32E
  8
LAYER_05
 10
1096.787441201835
 20
3038.827259566692
 30
0.0
  0
VERTEX
  5
32F
  8
LAYER_05
 10
1113.661409798739
 20
3055.577684140102
 30
0.0
  0
VERTEX
  5
330
  8
LAYER_05
 10
1096.910985225328
 20
3072.451652737006
 30
0.0
  0
SEQEND
  5
331
  8
LAYER_05
  0
POLYLINE
  5
332
  8
LAYER_05
 66
     1
 10
0.0
 20
0.0
 30
0.0
 70
     1
  0
VERTEX
  5
333
  8
LAYER_05
 10
1042.676369029473
 20
3236.724497133098
 30
0.0
  0
VERTEX
  5
334
  8
LAYER_05
 10
970.9847721882429
 20
3165.557795681687
 30
0.0
  0
VERTEX
  5
335
  8
LAYER_05
 10
1042.151473639654
 20
3093.866198840456
 30
0.0
  0
VERTEX
  5
336
  8
LAYER_05
 10
1059.025442236558
 20
3110.616623413867
 30
0.0
  0
VERTEX
  5
337
  8
LAYER_05
 10
1004.609165358557
 20
3165.434251658193
 30
0.0
  0
VERTEX
  5
338
  8
LAYER_05
 10
1059.426793602883
 20
3219.850528536194
 30
0.0
  0
SEQEND
  5
339
  8
LAYER_05
  0
POLYLINE
  5
33A
  8
LAYER_05
 66
     1
 10
0.0
 20
0.0
 30
0.0
 70
     1
  0
VERTEX
  5
33B
  8
LAYER_05
 10
1086.343426017648
 20
3083.097153776985
 30
0.0
  0
VERTEX
  5
33C
  8
LAYER_05
 10
1069.593001444238
 20
3099.971122373889
 30
0.0
  0
VERTEX
  5
33D
  8
LAYER_05
 10
1052.719032847334
 20
3083.220697800478
 30
0.0
  0
VERTEX
  5
33E
  8
LAYER_05
 10
1069.469457420744
 20
3066.346729203574
 30
0.0
  0
SEQEND
  5
33F
  8
LAYER_05
  0
POLYLINE
  5
340
  8
LAYER_05
 66
     1
 10
0.0
 20
0.0
 30
0.0
 70
     1
  0
VERTEX
  5
341
  8
LAYER_05
 10
1233.462874128746
 20
3044.530831733799
 30
0.0
  0
VERTEX
  5
342
  8
LAYER_05
 10
1178.645245884419
 20
2990.114554855797
 30
0.0
  0
VERTEX
  5
343
  8
LAYER_05
 10
1124.228969006418
 20
3044.932183100124
 30
0.0
  0
VERTEX
  5
344
  8
LAYER_05
 10
1107.355000409514
 20
3028.181758526714
 30
0.0
  0
VERTEX
  5
345
  8
LAYER_05
 10
1178.521701860926
 20
2956.490161685483
 30
0.0
  0
VERTEX
  5
346
  8
LAYER_05
 10
1250.213298702156
 20
3027.656863136895
 30
0.0
  0
SEQEND
  5
347
  8
LAYER_05
  0
POLYLINE
  5
348
  8
LAYER_05
 66
     1
 10
0.0
 20
0.0
 30
0.0
 70
     1
  0
VERTEX
  5
349
  8
LAYER_05
 10
1260.982343765628
 20
3071.848815514889
 30
0.0
  0
VERTEX
  5
34A
  8
LAYER_05
 10
1244.108375168724
 20
3055.098390941479
 30
0.0
  0
VERTEX
  5
34B
  8
LAYER_05
 10
1260.858799742135
 20
3038.224422344575
 30
0.0
  0
VERTEX
  5
34C
  8
LAYER_05
 10
1277.732768339039
 20
3054.974846917984
 30
0.0
  0
SEQEND
  5
34D
  8
LAYER_05
  0
POLYLINE
  5
34E
  8
LAYER_05
 66
     1
 10
0.0
 20
0.0
 30
0.0
 70
     1
  0
VERTEX
  5
34F
  8
LAYER_05
 10
1271.627844805606
 20
3082.416374722569
 30
0.0
  0
VERTEX
  5
350
  8
LAYER_05
 10
1288.378269379017
 20
3065.542406125664
 30
0.0
  0
VERTEX
  5
351
  8
LAYER_05
 10
1305.252237975921
 20
3082.292830699075
 30
0.0
  0
VERTEX
  5
352
  8
LAYER_05
 10
1288.50181340251
 20
3099.166799295979
 30
0.0
  0
SEQEND
  5
353
  8
LAYER_05
  0
POLYLINE
  5
354
  8
LAYER_05
 66
     1
 10
0.0
 20
0.0
 30
0.0
 70
     1
  0
VERTEX
  5
355
  8
LAYER_05
 10
1288.579755234809
 20
3120.379859543637
 30
0.0
  0
VERTEX
  5
356
  8
LAYER_05
 10
1244.731037564487
 20
3164.551986747986
 30
0.0
  0
VERTEX
  5
357
  8
LAYER_05
 10
1288.903164768835
 20
3208.400704418306
 30
0.0
  0
VERTEX
  5
358
  8
LAYER_05
 10
1332.751882439156
 20
3164.228577213958
 30
0.0
  0
SEQEND
  5
359
  8
LAYER_05
  0
POLYLINE
  5
35A
  8
LAYER_05
 66
     1
 10
0.0
 20
0.0
 30
0.0
 70
     1
  0
VERTEX
  5
35B
  8
LAYER_05
 10
1277.93425419483
 20
3109.812300335957
 30
0.0
  0
VERTEX
  5
35C
  8
LAYER_05
 10
1223.517977316829
 20
3164.629928580284
 30
0.0
  0
VERTEX
  5
35D
  8
LAYER_05
 10
1278.335605561155
 20
3219.046205458284
 30
0.0
  0
VERTEX
  5
35E
  8
LAYER_05
 10
1261.585180987745
 20
3235.920174055188
 30
0.0
  0
VERTEX
  5
35F
  8
LAYER_05
 10
1189.893584146515
 20
3164.753472603777
 30
0.0
  0
VERTEX
  5
360
  8
LAYER_05
 10
1261.060285597926
 20
3093.061875762548
 30
0.0
  0
SEQEND
  5
361
  8
LAYER_05
  0
POLYLINE
  5
362
  8
LAYER_05
 66
     1
 10
0.0
 20
0.0
 30
0.0
  0
VERTEX
  5
363
  8
LAYER_05
 10
1261.786666843537
 20
3290.757627473161
 30
0.0
  0
VERTEX
  5
364
  8
LAYER_05
 10
1244.912698246633
 20
3274.007202899751
 30
0.0
  0
VERTEX
  5
365
  8
LAYER_05
 10
1261.663122820044
 20
3257.133234302847
 30
0.0
  0
VERTEX
  5
366
  8
LAYER_05
 10
1278.537091416948
 20
3273.883658876257
 30
0.0
  0
VERTEX
  5
367
  8
LAYER_05
 10
1180.052406184446
 20
3373.09472535437
 30
0.0
  0
VERTEX
  5
368
  8
LAYER_05
 10
1108.360809343216
 20
3301.928023902959
 30
0.0
  0
VERTEX
  5
369
  8
LAYER_05
 10
1125.111233916626
 20
3285.054055306054
 30
0.0
  0
VERTEX
  5
36A
  8
LAYER_05
 10
1179.928862160952
 20
3339.470332184056
 30
0.0
  0
VERTEX
  5
36B
  8
LAYER_05
 10
1234.345139038953
 20
3284.652703939729
 30
0.0
  0
VERTEX
  5
36C
  8
LAYER_05
 10
1251.219107635857
 20
3301.40312851314
 30
0.0
  0
SEQEND
  5
36D
  8
LAYER_05
  0
POLYLINE
  5
36E
  8
LAYER_05
 66
     1
 10
0.0
 20
0.0
 30
0.0
 70
     1
  0
VERTEX
  5
36F
  8
LAYER_05
 10
1315.897739015899
 20
3092.860389906754
 30
0.0
  0
VERTEX
  5
370
  8
LAYER_05
 10
1299.147314442489
 20
3109.734358503659
 30
0.0
  0
VERTEX
  5
371
  8
LAYER_05
 10
1353.964942686815
 20
3164.15063538166
 30
0.0
  0
VERTEX
  5
372
  8
LAYER_05
 10
1299.548665808814
 20
3218.968263625986
 30
0.0
  0
VERTEX
  5
373
  8
LAYER_05
 10
1316.422634405718
 20
3235.718688199397
 30
0.0
  0
VERTEX
  5
374
  8
LAYER_05
 10
1387.589335857129
 20
3164.027091358166
 30
0.0
  0
SEQEND
  5
375
  8
LAYER_05
  0
POLYLINE
  5
376
  8
LAYER_05
 66
     1
 10
0.0
 20
0.0
 30
0.0
 70
     1
  0
VERTEX
  5
377
  8
LAYER_05
 10
1272.230682027724
 20
3246.487733262868
 30
0.0
  0
VERTEX
  5
378
  8
LAYER_05
 10
1288.981106601134
 20
3229.613764665964
 30
0.0
  0
VERTEX
  5
379
  8
LAYER_05
 10
1305.855075198038
 20
3246.364189239375
 30
0.0
  0
VERTEX
  5
37A
  8
LAYER_05
 10
1289.104650624628
 20
3263.238157836279
 30
0.0
  0
SEQEND
  5
37B
  8
LAYER_05
  0
POLYLINE
  5
37C
  8
LAYER_05
 66
     1
 10
0.0
 20
0.0
 30
0.0
 70
     1
  0
VERTEX
  5
37D
  8
LAYER_05
 10
1086.946263239766
 20
3247.168512317285
 30
0.0
  0
VERTEX
  5
37E
  8
LAYER_05
 10
1070.195838666356
 20
3264.042480914188
 30
0.0
  0
VERTEX
  5
37F
  8
LAYER_05
 10
1053.321870069452
 20
3247.292056340778
 30
0.0
  0
VERTEX
  5
380
  8
LAYER_05
 10
1070.072294642861
 20
3230.418087743874
 30
0.0
  0
SEQEND
  5
381
  8
LAYER_05
  0
POLYLINE
  5
382
  8
LAYER_05
 66
     1
 10
0.0
 20
0.0
 30
0.0
 70
     1
  0
VERTEX
  5
383
  8
LAYER_05
 10
1097.591764279744
 20
3257.736071524964
 30
0.0
  0
VERTEX
  5
384
  8
LAYER_05
 10
1114.465732876648
 20
3274.486496098375
 30
0.0
  0
VERTEX
  5
385
  8
LAYER_05
 10
1097.715308303238
 20
3291.360464695279
 30
0.0
  0
VERTEX
  5
386
  8
LAYER_05
 10
1080.841339706334
 20
3274.610040121869
 30
0.0
  0
SEQEND
  5
387
  8
LAYER_05
  0
POLYLINE
  5
388
  8
LAYER_05
 66
     1
 10
0.0
 20
0.0
 30
0.0
 70
     1
  0
VERTEX
  5
389
  8
LAYER_05
 10
849.9578082403543
 20
2903.079693741184
 30
0.0
  0
VERTEX
  5
38A
  8
LAYER_05
 10
806.1090905700328
 20
2947.251820945532
 30
0.0
  0
VERTEX
  5
38B
  8
LAYER_05
 10
850.2812177743806
 20
2991.100538615853
 30
0.0
  0
VERTEX
  5
38C
  8
LAYER_05
 10
894.1299354447021
 20
2946.928411411505
 30
0.0
  0
SEQEND
  5
38D
  8
LAYER_05
  0
POLYLINE
  5
38E
  8
LAYER_05
 66
     1
 10
0.0
 20
0.0
 30
0.0
 70
     1
  0
VERTEX
  5
38F
  8
LAYER_05
 10
860.9267188143588
 20
3001.668097823533
 30
0.0
  0
VERTEX
  5
390
  8
LAYER_05
 10
877.8006874112634
 20
3018.418522396943
 30
0.0
  0
VERTEX
  5
391
  8
LAYER_05
 10
948.9673888626744
 20
2946.726925555713
 30
0.0
  0
VERTEX
  5
392
  8
LAYER_05
 10
877.275792021444
 20
2875.560224104302
 30
0.0
  0
VERTEX
  5
393
  8
LAYER_05
 10
860.5253674480341
 20
2892.434192701206
 30
0.0
  0
VERTEX
  5
394
  8
LAYER_05
 10
915.3429956923605
 20
2946.850469579207
 30
0.0
  0
SEQEND
  5
395
  8
LAYER_05
  0
POLYLINE
  5
396
  8
LAYER_05
 66
     1
 10
0.0
 20
0.0
 30
0.0
  0
VERTEX
  5
397
  8
LAYER_05
 10
905.3201570481453
 20
3045.736506178033
 30
0.0
  0
VERTEX
  5
398
  8
LAYER_05
 10
959.7364339261467
 20
2990.918877933707
 30
0.0
  0
VERTEX
  5
399
  8
LAYER_05
 10
1014.554062170473
 20
3045.335154811708
 30
0.0
  0
VERTEX
  5
39A
  8
LAYER_05
 10
1031.304486743883
 20
3028.461186214804
 30
0.0
  0
VERTEX
  5
39B
  8
LAYER_05
 10
959.6128899026528
 20
2957.294484763393
 30
0.0
  0
VERTEX
  5
39C
  8
LAYER_05
 10
888.4461884512416
 20
3028.986081604623
 30
0.0
  0
VERTEX
  5
39D
  8
LAYER_05
 10
960.1377852924718
 20
3100.152783056035
 30
0.0
  0
VERTEX
  5
39E
  8
LAYER_05
 10
1003.986502962793
 20
3055.980655851687
 30
0.0
  0
VERTEX
  5
39F
  8
LAYER_05
 10
959.8143757584451
 20
3012.131938181365
 30
0.0
  0
VERTEX
  5
3A0
  8
LAYER_05
 10
915.9656580881237
 20
3056.304065385713
 30
0.0
  0
SEQEND
  5
3A1
  8
LAYER_05
  0
POLYLINE
  5
3A2
  8
LAYER_05
 66
     1
 10
0.0
 20
0.0
 30
0.0
 70
     1
  0
VERTEX
  5
3A3
  8
LAYER_05
 10
915.1613350102143
 20
2837.395253427441
 30
0.0
  0
VERTEX
  5
3A4
  8
LAYER_05
 10
959.3334622145626
 20
2881.243971097762
 30
0.0
  0
VERTEX
  5
3A5
  8
LAYER_05
 10
1003.182179884884
 20
2837.071843893414
 30
0.0
  0
VERTEX
  5
3A6
  8
LAYER_05
 10
959.0100526805353
 20
2793.223126223093
 30
0.0
  0
SEQEND
  5
3A7
  8
LAYER_05
  0
POLYLINE
  5
3A8
  8
LAYER_05
 66
     1
 10
0.0
 20
0.0
 30
0.0
 70
     1
  0
VERTEX
  5
3A9
  8
LAYER_05
 10
904.593775802535
 20
2848.040754467419
 30
0.0
  0
VERTEX
  5
3AA
  8
LAYER_05
 10
959.411404046861
 20
2902.45703134542
 30
0.0
  0
VERTEX
  5
3AB
  8
LAYER_05
 10
1013.827680924862
 20
2847.639403101094
 30
0.0
  0
VERTEX
  5
3AC
  8
LAYER_05
 10
1030.701649521766
 20
2864.389827674504
 30
0.0
  0
VERTEX
  5
3AD
  8
LAYER_05
 10
959.5349480703544
 20
2936.081424515734
 30
0.0
  0
VERTEX
  5
3AE
  8
LAYER_05
 10
887.843351229124
 20
2864.914723064323
 30
0.0
  0
SEQEND
  5
3AF
  8
LAYER_05
  0
POLYLINE
  5
3B0
  8
LAYER_05
 66
     1
 10
0.0
 20
0.0
 30
0.0
 70
     1
  0
VERTEX
  5
3B1
  8
LAYER_05
 10
860.3238815922418
 20
2837.596739283233
 30
0.0
  0
VERTEX
  5
3B2
  8
LAYER_05
 10
877.0743061656524
 20
2820.722770686329
 30
0.0
  0
VERTEX
  5
3B3
  8
LAYER_05
 10
893.9482747625564
 20
2837.473195259739
 30
0.0
  0
VERTEX
  5
3B4
  8
LAYER_05
 10
877.197850189146
 20
2854.347163856643
 30
0.0
  0
SEQEND
  5
3B5
  8
LAYER_05
  0
POLYLINE
  5
3B6
  8
LAYER_05
 66
     1
 10
0.0
 20
0.0
 30
0.0
 70
     1
  0
VERTEX
  5
3B7
  8
LAYER_05
 10
822.9632339932907
 20
3018.620008252735
 30
0.0
  0
VERTEX
  5
3B8
  8
LAYER_05
 10
751.2716371520605
 20
2947.453306801324
 30
0.0
  0
VERTEX
  5
3B9
  8
LAYER_05
 10
822.4383386034717
 20
2875.761709960093
 30
0.0
  0
VERTEX
  5
3BA
  8
LAYER_05
 10
839.3123072003759
 20
2892.512134533504
 30
0.0
  0
VERTEX
  5
3BB
  8
LAYER_05
 10
784.8960303223746
 20
2947.32976277783
 30
0.0
  0
VERTEX
  5
3BC
  8
LAYER_05
 10
839.713658566701
 20
3001.746039655831
 30
0.0
  0
SEQEND
  5
3BD
  8
LAYER_05
  0
POLYLINE
  5
3BE
  8
LAYER_05
 66
     1
 10
0.0
 20
0.0
 30
0.0
 70
     1
  0
VERTEX
  5
3BF
  8
LAYER_05
 10
866.6302909814658
 20
2864.992664896622
 30
0.0
  0
VERTEX
  5
3C0
  8
LAYER_05
 10
849.8798664080559
 20
2881.866633493526
 30
0.0
  0
VERTEX
  5
3C1
  8
LAYER_05
 10
833.0058978111517
 20
2865.116208920116
 30
0.0
  0
VERTEX
  5
3C2
  8
LAYER_05
 10
849.756322384562
 20
2848.242240323211
 30
0.0
  0
SEQEND
  5
3C3
  8
LAYER_05
  0
POLYLINE
  5
3C4
  8
LAYER_05
 66
     1
 10
0.0
 20
0.0
 30
0.0
 70
     1
  0
VERTEX
  5
3C5
  8
LAYER_05
 10
1013.749739092563
 20
2826.426342853435
 30
0.0
  0
VERTEX
  5
3C6
  8
LAYER_05
 10
958.9321108482371
 20
2772.010065975435
 30
0.0
  0
VERTEX
  5
3C7
  8
LAYER_05
 10
904.5158339702361
 20
2826.827694219761
 30
0.0
  0
VERTEX
  5
3C8
  8
LAYER_05
 10
887.6418653733322
 20
2810.07726964635
 30
0.0
  0
VERTEX
  5
3C9
  8
LAYER_05
 10
958.8085668247435
 20
2738.38567280512
 30
0.0
  0
VERTEX
  5
3CA
  8
LAYER_05
 10
1030.500163665974
 20
2809.552374256531
 30
0.0
  0
SEQEND
  5
3CB
  8
LAYER_05
  0
POLYLINE
  5
3CC
  8
LAYER_05
 66
     1
 10
0.0
 20
0.0
 30
0.0
 70
     1
  0
VERTEX
  5
3CD
  8
LAYER_05
 10
1041.269208729446
 20
2853.744326634526
 30
0.0
  0
VERTEX
  5
3CE
  8
LAYER_05
 10
1024.395240132542
 20
2836.993902061116
 30
0.0
  0
VERTEX
  5
3CF
  8
LAYER_05
 10
1041.145664705952
 20
2820.119933464211
 30
0.0
  0
VERTEX
  5
3D0
  8
LAYER_05
 10
1058.019633302856
 20
2836.870358037621
 30
0.0
  0
SEQEND
  5
3D1
  8
LAYER_05
  0
POLYLINE
  5
3D2
  8
LAYER_05
 66
     1
 10
0.0
 20
0.0
 30
0.0
 70
     1
  0
VERTEX
  5
3D3
  8
LAYER_05
 10
1051.914709769424
 20
2864.311885842206
 30
0.0
  0
VERTEX
  5
3D4
  8
LAYER_05
 10
1068.665134342834
 20
2847.437917245301
 30
0.0
  0
VERTEX
  5
3D5
  8
LAYER_05
 10
1085.539102939738
 20
2864.188341818712
 30
0.0
  0
VERTEX
  5
3D6
  8
LAYER_05
 10
1068.788678366328
 20
2881.062310415616
 30
0.0
  0
SEQEND
  5
3D7
  8
LAYER_05
  0
POLYLINE
  5
3D8
  8
LAYER_05
 66
     1
 10
0.0
 20
0.0
 30
0.0
 70
     1
  0
VERTEX
  5
3D9
  8
LAYER_05
 10
1068.866620198627
 20
2902.275370663274
 30
0.0
  0
VERTEX
  5
3DA
  8
LAYER_05
 10
1025.017902528305
 20
2946.447497867622
 30
0.0
  0
VERTEX
  5
3DB
  8
LAYER_05
 10
1069.190029732653
 20
2990.296215537944
 30
0.0
  0
VERTEX
  5
3DC
  8
LAYER_05
 10
1113.038747402974
 20
2946.124088333595
 30
0.0
  0
SEQEND
  5
3DD
  8
LAYER_05
  0
POLYLINE
  5
3DE
  8
LAYER_05
 66
     1
 10
0.0
 20
0.0
 30
0.0
 70
     1
  0
VERTEX
  5
3DF
  8
LAYER_05
 10
1058.221119158648
 20
2891.707811455595
 30
0.0
  0
VERTEX
  5
3E0
  8
LAYER_05
 10
1003.804842280647
 20
2946.525439699921
 30
0.0
  0
VERTEX
  5
3E1
  8
LAYER_05
 10
1058.622470524973
 20
3000.941716577922
 30
0.0
  0
VERTEX
  5
3E2
  8
LAYER_05
 10
1041.872045951563
 20
3017.815685174826
 30
0.0
  0
VERTEX
  5
3E3
  8
LAYER_05
 10
970.1804491103328
 20
2946.648983723414
 30
0.0
  0
VERTEX
  5
3E4
  8
LAYER_05
 10
1041.347150561744
 20
2874.957386882184
 30
0.0
  0
SEQEND
  5
3E5
  8
LAYER_05
  0
POLYLINE
  5
3E6
  8
LAYER_05
 66
     1
 10
0.0
 20
0.0
 30
0.0
  0
VERTEX
  5
3E7
  8
LAYER_05
 10
1042.073531807355
 20
3072.653138592798
 30
0.0
  0
VERTEX
  5
3E8
  8
LAYER_05
 10
1025.199563210451
 20
3055.902714019388
 30
0.0
  0
VERTEX
  5
3E9
  8
LAYER_05
 10
1041.949987783862
 20
3039.028745422484
 30
0.0
  0
VERTEX
  5
3EA
  8
LAYER_05
 10
1058.823956380766
 20
3055.779169995894
 30
0.0
  0
VERTEX
  5
3EB
  8
LAYER_05
 10
960.3392711482643
 20
3154.990236474007
 30
0.0
  0
VERTEX
  5
3EC
  8
LAYER_05
 10
888.6476743070339
 20
3083.823535022595
 30
0.0
  0
VERTEX
  5
3ED
  8
LAYER_05
 10
905.3980988804442
 20
3066.949566425692
 30
0.0
  0
VERTEX
  5
3EE
  8
LAYER_05
 10
960.2157271247702
 20
3121.365843303693
 30
0.0
  0
VERTEX
  5
3EF
  8
LAYER_05
 10
1014.632004002771
 20
3066.548215059367
 30
0.0
  0
VERTEX
  5
3F0
  8
LAYER_05
 10
1031.505972599675
 20
3083.298639632776
 30
0.0
  0
SEQEND
  5
3F1
  8
LAYER_05
  0
POLYLINE
  5
3F2
  8
LAYER_05
 66
     1
 10
0.0
 20
0.0
 30
0.0
 70
     1
  0
VERTEX
  5
3F3
  8
LAYER_05
 10
1096.184603979717
 20
2874.755901026392
 30
0.0
  0
VERTEX
  5
3F4
  8
LAYER_05
 10
1079.434179406307
 20
2891.629869623296
 30
0.0
  0
VERTEX
  5
3F5
  8
LAYER_05
 10
1134.251807650633
 20
2946.046146501297
 30
0.0
  0
VERTEX
  5
3F6
  8
LAYER_05
 10
1079.835530772632
 20
3000.863774745624
 30
0.0
  0
VERTEX
  5
3F7
  8
LAYER_05
 10
1096.709499369536
 20
3017.614199319034
 30
0.0
  0
VERTEX
  5
3F8
  8
LAYER_05
 10
1167.876200820947
 20
2945.922602477803
 30
0.0
  0
SEQEND
  5
3F9
  8
LAYER_05
  0
POLYLINE
  5
3FA
  8
LAYER_05
 66
     1
 10
0.0
 20
0.0
 30
0.0
 70
     1
  0
VERTEX
  5
3FB
  8
LAYER_05
 10
1052.517546991542
 20
3028.383244382505
 30
0.0
  0
VERTEX
  5
3FC
  8
LAYER_05
 10
1069.267971564951
 20
3011.509275785601
 30
0.0
  0
VERTEX
  5
3FD
  8
LAYER_05
 10
1086.141940161856
 20
3028.259700359012
 30
0.0
  0
VERTEX
  5
3FE
  8
LAYER_05
 10
1069.391515588446
 20
3045.133668955916
 30
0.0
  0
SEQEND
  5
3FF
  8
LAYER_05
  0
POLYLINE
  5
400
  8
LAYER_05
 66
     1
 10
0.0
 20
0.0
 30
0.0
 70
     1
  0
VERTEX
  5
401
  8
LAYER_05
 10
867.2331282035832
 20
3029.064023436922
 30
0.0
  0
VERTEX
  5
402
  8
LAYER_05
 10
850.4827036301733
 20
3045.937992033826
 30
0.0
  0
VERTEX
  5
403
  8
LAYER_05
 10
833.6087350332693
 20
3029.187567460415
 30
0.0
  0
VERTEX
  5
404
  8
LAYER_05
 10
850.3591596066792
 20
3012.313598863511
 30
0.0
  0
SEQEND
  5
405
  8
LAYER_05
  0
POLYLINE
  5
406
  8
LAYER_05
 66
     1
 10
0.0
 20
0.0
 30
0.0
 70
     1
  0
VERTEX
  5
407
  8
LAYER_05
 10
877.8786292435618
 20
3039.631582644601
 30
0.0
  0
VERTEX
  5
408
  8
LAYER_05
 10
894.7525978404656
 20
3056.382007218012
 30
0.0
  0
VERTEX
  5
409
  8
LAYER_05
 10
878.0021732670557
 20
3073.255975814916
 30
0.0
  0
VERTEX
  5
40A
  8
LAYER_05
 10
861.1282046701517
 20
3056.505551241505
 30
0.0
  0
SEQEND
  5
40B
  8
LAYER_05
  0
POLYLINE
  5
40C
  8
LAYER_05
 66
     1
 10
0.0
 20
0.0
 30
0.0
 70
     1
  0
VERTEX
  5
40D
  8
LAYER_05
 10
784.2733679266114
 20
2837.876166971324
 30
0.0
  0
VERTEX
  5
40E
  8
LAYER_05
 10
740.4246502562899
 20
2882.048294175672
 30
0.0
  0
VERTEX
  5
40F
  8
LAYER_05
 10
696.2525230519416
 20
2838.199576505351
 30
0.0
  0
VERTEX
  5
410
  8
LAYER_05
 10
740.1012407222631
 20
2794.027449301002
 30
0.0
  0
SEQEND
  5
411
  8
LAYER_05
  0
POLYLINE
  5
412
  8
LAYER_05
 66
     1
 10
0.0
 20
0.0
 30
0.0
 70
     1
  0
VERTEX
  5
413
  8
LAYER_05
 10
685.6070220119639
 20
2827.632017297671
 30
0.0
  0
VERTEX
  5
414
  8
LAYER_05
 10
668.7330534150597
 20
2810.88159272426
 30
0.0
  0
VERTEX
  5
415
  8
LAYER_05
 10
739.8997548664706
 20
2739.18999588303
 30
0.0
  0
VERTEX
  5
416
  8
LAYER_05
 10
811.591351707701
 20
2810.356697334442
 30
0.0
  0
VERTEX
  5
417
  8
LAYER_05
 10
794.8409271342912
 20
2827.230665931345
 30
0.0
  0
VERTEX
  5
418
  8
LAYER_05
 10
740.0232988899648
 20
2772.814389053344
 30
0.0
  0
SEQEND
  5
419
  8
LAYER_05
  0
POLYLINE
  5
41A
  8
LAYER_05
 66
     1
 10
0.0
 20
0.0
 30
0.0
  0
VERTEX
  5
41B
  8
LAYER_05
 10
641.2135837781767
 20
2783.56360894317
 30
0.0
  0
VERTEX
  5
41C
  8
LAYER_05
 10
695.629860656178
 20
2728.745980698844
 30
0.0
  0
VERTEX
  5
41D
  8
LAYER_05
 10
640.8122324118516
 20
2674.329703820843
 30
0.0
  0
VERTEX
  5
41E
  8
LAYER_05
 10
657.5626569852622
 20
2657.455735223939
 30
0.0
  0
VERTEX
  5
41F
  8
LAYER_05
 10
729.2542538264923
 20
2728.62243667535
 30
0.0
  0
VERTEX
  5
420
  8
LAYER_05
 10
658.0875523750811
 20
2800.31403351658
 30
0.0
  0
VERTEX
  5
421
  8
LAYER_05
 10
586.3959555338507
 20
2729.147332065169
 30
0.0
  0
VERTEX
  5
422
  8
LAYER_05
 10
630.2446732041718
 20
2684.975204860822
 30
0.0
  0
VERTEX
  5
423
  8
LAYER_05
 10
674.4168004085197
 20
2728.823922531142
 30
0.0
  0
VERTEX
  5
424
  8
LAYER_05
 10
630.5680827381984
 20
2772.99604973549
 30
0.0
  0
SEQEND
  5
425
  8
LAYER_05
  0
POLYLINE
  5
426
  8
LAYER_05
 66
     1
 10
0.0
 20
0.0
 30
0.0
 70
     1
  0
VERTEX
  5
427
  8
LAYER_05
 10
849.4768946964714
 20
2772.191726657581
 30
0.0
  0
VERTEX
  5
428
  8
LAYER_05
 10
805.3047674921231
 20
2728.343008987259
 30
0.0
  0
VERTEX
  5
429
  8
LAYER_05
 10
849.1534851624441
 20
2684.170881782911
 30
0.0
  0
VERTEX
  5
42A
  8
LAYER_05
 10
893.3256123667924
 20
2728.019599453233
 30
0.0
  0
SEQEND
  5
42B
  8
LAYER_05
  0
POLYLINE
  5
42C
  8
LAYER_05
 66
     1
 10
0.0
 20
0.0
 30
0.0
 70
     1
  0
VERTEX
  5
42D
  8
LAYER_05
 10
838.9093354887912
 20
2782.837227697558
 30
0.0
  0
VERTEX
  5
42E
  8
LAYER_05
 10
784.091707244465
 20
2728.420950819557
 30
0.0
  0
VERTEX
  5
42F
  8
LAYER_05
 10
838.5079841224658
 20
2673.603322575231
 30
0.0
  0
VERTEX
  5
430
  8
LAYER_05
 10
821.6340155255618
 20
2656.852898001821
 30
0.0
  0
VERTEX
  5
431
  8
LAYER_05
 10
750.4673140741506
 20
2728.544494843051
 30
0.0
  0
VERTEX
  5
432
  8
LAYER_05
 10
822.158910915381
 20
2799.711196294463
 30
0.0
  0
SEQEND
  5
433
  8
LAYER_05
  0
POLYLINE
  5
434
  8
LAYER_05
 66
     1
 10
0.0
 20
0.0
 30
0.0
 70
     1
  0
VERTEX
  5
435
  8
LAYER_05
 10
849.6783805522632
 20
2827.029180075553
 30
0.0
  0
VERTEX
  5
436
  8
LAYER_05
 10
866.4288051256738
 20
2810.155211478649
 30
0.0
  0
VERTEX
  5
437
  8
LAYER_05
 10
849.5548365287698
 20
2793.404786905239
 30
0.0
  0
VERTEX
  5
438
  8
LAYER_05
 10
832.8044119553595
 20
2810.278755502143
 30
0.0
  0
SEQEND
  5
439
  8
LAYER_05
  0
POLYLINE
  5
43A
  8
LAYER_05
 66
     1
 10
0.0
 20
0.0
 30
0.0
 70
     1
  0
VERTEX
  5
43B
  8
LAYER_05
 10
668.934539270852
 20
2865.719046142233
 30
0.0
  0
VERTEX
  5
43C
  8
LAYER_05
 10
740.6261361120823
 20
2936.885747593644
 30
0.0
  0
VERTEX
  5
43D
  8
LAYER_05
 10
811.7928375634935
 20
2865.194150752414
 30
0.0
  0
VERTEX
  5
43E
  8
LAYER_05
 10
794.9188689665893
 20
2848.443726179003
 30
0.0
  0
VERTEX
  5
43F
  8
LAYER_05
 10
740.502592088588
 20
2903.26135442333
 30
0.0
  0
VERTEX
  5
440
  8
LAYER_05
 10
685.684963844262
 20
2848.845077545328
 30
0.0
  0
SEQEND
  5
441
  8
LAYER_05
  0
POLYLINE
  5
442
  8
LAYER_05
 66
     1
 10
0.0
 20
0.0
 30
0.0
 70
     1
  0
VERTEX
  5
443
  8
LAYER_05
 10
822.2368527476792
 20
2820.924256542121
 30
0.0
  0
VERTEX
  5
444
  8
LAYER_05
 10
805.4864281742693
 20
2837.798225139025
 30
0.0
  0
VERTEX
  5
445
  8
LAYER_05
 10
822.3603967711736
 20
2854.548649712435
 30
0.0
  0
VERTEX
  5
446
  8
LAYER_05
 10
839.1108213445834
 20
2837.674681115531
 30
0.0
  0
SEQEND
  5
447
  8
LAYER_05
  0
POLYLINE
  5
448
  8
LAYER_05
 66
     1
 10
0.0
 20
0.0
 30
0.0
 70
     1
  0
VERTEX
  5
449
  8
LAYER_05
 10
859.7210443701243
 20
2673.525380742933
 30
0.0
  0
VERTEX
  5
44A
  8
LAYER_05
 10
914.5386726144505
 20
2727.941657620934
 30
0.0
  0
VERTEX
  5
44B
  8
LAYER_05
 10
860.1223957364496
 20
2782.75928586526
 30
0.0
  0
VERTEX
  5
44C
  8
LAYER_05
 10
876.9963643333535
 20
2799.50971043867
 30
0.0
  0
VERTEX
  5
44D
  8
LAYER_05
 10
948.1630657847649
 20
2727.81811359744
 30
0.0
  0
VERTEX
  5
44E
  8
LAYER_05
 10
876.4714689435344
 20
2656.651412146029
 30
0.0
  0
SEQEND
  5
44F
  8
LAYER_05
  0
POLYLINE
  5
450
  8
LAYER_05
 66
     1
 10
0.0
 20
0.0
 30
0.0
 70
     1
  0
VERTEX
  5
451
  8
LAYER_05
 10
832.201574733242
 20
2646.207396961843
 30
0.0
  0
VERTEX
  5
452
  8
LAYER_05
 10
849.0755433301457
 20
2662.957821535253
 30
0.0
  0
VERTEX
  5
453
  8
LAYER_05
 10
865.8259679035561
 20
2646.083852938349
 30
0.0
  0
VERTEX
  5
454
  8
LAYER_05
 10
848.9519993066523
 20
2629.333428364939
 30
0.0
  0
SEQEND
  5
455
  8
LAYER_05
  0
POLYLINE
  5
456
  8
LAYER_05
 66
     1
 10
0.0
 20
0.0
 30
0.0
 70
     1
  0
VERTEX
  5
457
  8
LAYER_05
 10
821.5560736932636
 20
2635.639837754163
 30
0.0
  0
VERTEX
  5
458
  8
LAYER_05
 10
838.306498266674
 20
2618.765869157259
 30
0.0
  0
VERTEX
  5
459
  8
LAYER_05
 10
821.4325296697698
 20
2602.015444583848
 30
0.0
  0
VERTEX
  5
45A
  8
LAYER_05
 10
804.6821050963595
 20
2618.889413180753
 30
0.0
  0
SEQEND
  5
45B
  8
LAYER_05
  0
POLYLINE
  5
45C
  8
LAYER_05
 66
     1
 10
0.0
 20
0.0
 30
0.0
 70
     1
  0
VERTEX
  5
45D
  8
LAYER_05
 10
783.4690448487014
 20
2618.967355013051
 30
0.0
  0
VERTEX
  5
45E
  8
LAYER_05
 10
739.62032717838
 20
2663.139482217399
 30
0.0
  0
VERTEX
  5
45F
  8
LAYER_05
 10
695.448199974032
 20
2619.290764547078
 30
0.0
  0
VERTEX
  5
460
  8
LAYER_05
 10
739.2969176443532
 20
2575.11863734273
 30
0.0
  0
SEQEND
  5
461
  8
LAYER_05
  0
POLYLINE
  5
462
  8
LAYER_05
 66
     1
 10
0.0
 20
0.0
 30
0.0
 70
     1
  0
VERTEX
  5
463
  8
LAYER_05
 10
794.1145458886792
 20
2629.534914220731
 30
0.0
  0
VERTEX
  5
464
  8
LAYER_05
 10
739.6982690106782
 20
2684.352542465057
 30
0.0
  0
VERTEX
  5
465
  8
LAYER_05
 10
684.880640766352
 20
2629.936265587056
 30
0.0
  0
VERTEX
  5
466
  8
LAYER_05
 10
668.1302161929419
 20
2646.81023418396
 30
0.0
  0
VERTEX
  5
467
  8
LAYER_05
 10
739.8218130341724
 20
2717.976935635372
 30
0.0
  0
VERTEX
  5
468
  8
LAYER_05
 10
810.9885144855836
 20
2646.285338794141
 30
0.0
  0
SEQEND
  5
469
  8
LAYER_05
  0
POLYLINE
  5
46A
  8
LAYER_05
 66
     1
 10
0.0
 20
0.0
 30
0.0
  0
VERTEX
  5
46B
  8
LAYER_05
 10
613.2927627749694
 20
2647.011720039753
 30
0.0
  0
VERTEX
  5
46C
  8
LAYER_05
 10
630.1667313718735
 20
2663.762144613163
 30
0.0
  0
VERTEX
  5
46D
  8
LAYER_05
 10
646.9171559452839
 20
2646.888176016259
 30
0.0
  0
VERTEX
  5
46E
  8
LAYER_05
 10
630.0431873483798
 20
2630.137751442849
 30
0.0
  0
VERTEX
  5
46F
  8
LAYER_05
 10
531.5585021158782
 20
2729.348817920962
 30
0.0
  0
VERTEX
  5
470
  8
LAYER_05
 10
603.2500989571085
 20
2800.515519372373
 30
0.0
  0
VERTEX
  5
471
  8
LAYER_05
 10
620.0005235305189
 20
2783.641550775468
 30
0.0
  0
VERTEX
  5
472
  8
LAYER_05
 10
565.1828952861924
 20
2729.225273897468
 30
0.0
  0
VERTEX
  5
473
  8
LAYER_05
 10
619.5991721641935
 20
2674.407645653141
 30
0.0
  0
VERTEX
  5
474
  8
LAYER_05
 10
602.7252035672894
 20
2657.657221079731
 30
0.0
  0
SEQEND
  5
475
  8
LAYER_05
  0
POLYLINE
  5
476
  8
LAYER_05
 66
     1
 10
0.0
 20
0.0
 30
0.0
 70
     1
  0
VERTEX
  5
477
  8
LAYER_05
 10
810.7870286297917
 20
2591.447885376168
 30
0.0
  0
VERTEX
  5
478
  8
LAYER_05
 10
794.0366040563812
 20
2608.321853973073
 30
0.0
  0
VERTEX
  5
479
  8
LAYER_05
 10
739.218975812055
 20
2553.905577095072
 30
0.0
  0
VERTEX
  5
47A
  8
LAYER_05
 10
684.8026989340538
 20
2608.723205339398
 30
0.0
  0
VERTEX
  5
47B
  8
LAYER_05
 10
667.9287303371497
 20
2591.972780765988
 30
0.0
  0
VERTEX
  5
47C
  8
LAYER_05
 10
739.095431788561
 20
2520.281183924758
 30
0.0
  0
SEQEND
  5
47D
  8
LAYER_05
  0
POLYLINE
  5
47E
  8
LAYER_05
 66
     1
 10
0.0
 20
0.0
 30
0.0
 70
     1
  0
VERTEX
  5
47F
  8
LAYER_05
 10
657.4847151529639
 20
2636.24267497628
 30
0.0
  0
VERTEX
  5
480
  8
LAYER_05
 10
674.2351397263737
 20
2619.368706379376
 30
0.0
  0
VERTEX
  5
481
  8
LAYER_05
 10
657.3611711294697
 20
2602.618281805966
 30
0.0
  0
VERTEX
  5
482
  8
LAYER_05
 10
640.6107465560596
 20
2619.49225040287
 30
0.0
  0
SEQEND
  5
483
  8
LAYER_05
  0
POLYLINE
  5
484
  8
LAYER_05
 66
     1
 10
0.0
 20
0.0
 30
0.0
 70
     1
  0
VERTEX
  5
485
  8
LAYER_05
 10
658.1654942073794
 20
2821.527093764239
 30
0.0
  0
VERTEX
  5
486
  8
LAYER_05
 10
641.4150696339696
 20
2838.401062361143
 30
0.0
  0
VERTEX
  5
487
  8
LAYER_05
 10
658.2890382308736
 20
2855.151486934553
 30
0.0
  0
VERTEX
  5
488
  8
LAYER_05
 10
675.0394628042835
 20
2838.277518337649
 30
0.0
  0
SEQEND
  5
489
  8
LAYER_05
  0
POLYLINE
  5
48A
  8
LAYER_05
 66
     1
 10
0.0
 20
0.0
 30
0.0
 70
     1
  0
VERTEX
  5
48B
  8
LAYER_05
 10
647.5199931674014
 20
2810.959534556559
 30
0.0
  0
VERTEX
  5
48C
  8
LAYER_05
 10
630.6460245704969
 20
2794.209109983148
 30
0.0
  0
VERTEX
  5
48D
  8
LAYER_05
 10
613.8955999970871
 20
2811.083078580052
 30
0.0
  0
VERTEX
  5
48E
  8
LAYER_05
 10
630.7695685939913
 20
2827.833503153463
 30
0.0
  0
SEQEND
  5
48F
  8
LAYER_05
  0
POLYLINE
  5
490
  8
LAYER_05
 66
     1
 10
0.0
 20
0.0
 30
0.0
 70
     1
  0
VERTEX
  5
491
  8
LAYER_05
 10
918.3786273218532
 20
3713.030501260531
 30
0.0
  0
VERTEX
  5
492
  8
LAYER_05
 10
962.2273449921747
 20
3668.858374056183
 30
0.0
  0
VERTEX
  5
493
  8
LAYER_05
 10
1006.399472196523
 20
3712.707091726503
 30
0.0
  0
VERTEX
  5
494
  8
LAYER_05
 10
962.5507545262014
 20
3756.879218930852
 30
0.0
  0
SEQEND
  5
495
  8
LAYER_05
  0
POLYLINE
  5
496
  8
LAYER_05
 66
     1
 10
0.0
 20
0.0
 30
0.0
 70
     1
  0
VERTEX
  5
497
  8
LAYER_05
 10
1017.044973236501
 20
3723.274650934184
 30
0.0
  0
VERTEX
  5
498
  8
LAYER_05
 10
1033.918941833405
 20
3740.025075507594
 30
0.0
  0
VERTEX
  5
499
  8
LAYER_05
 10
962.7522403819939
 20
3811.716672348824
 30
0.0
  0
VERTEX
  5
49A
  8
LAYER_05
 10
891.0606435407635
 20
3740.549970897413
 30
0.0
  0
VERTEX
  5
49B
  8
LAYER_05
 10
907.8110681141734
 20
3723.676002300509
 30
0.0
  0
VERTEX
  5
49C
  8
LAYER_05
 10
962.6286963584998
 20
3778.09227917851
 30
0.0
  0
SEQEND
  5
49D
  8
LAYER_05
  0
POLYLINE
  5
49E
  8
LAYER_05
 66
     1
 10
0.0
 20
0.0
 30
0.0
  0
VERTEX
  5
49F
  8
LAYER_05
 10
1061.438411470288
 20
3767.343059288684
 30
0.0
  0
VERTEX
  5
4A0
  8
LAYER_05
 10
1007.022134592286
 20
3822.16068753301
 30
0.0
  0
VERTEX
  5
4A1
  8
LAYER_05
 10
1061.839762836613
 20
3876.576964411011
 30
0.0
  0
VERTEX
  5
4A2
  8
LAYER_05
 10
1045.089338263203
 20
3893.450933007916
 30
0.0
  0
VERTEX
  5
4A3
  8
LAYER_05
 10
973.3977414219723
 20
3822.284231556504
 30
0.0
  0
VERTEX
  5
4A4
  8
LAYER_05
 10
1044.564442873384
 20
3750.592634715274
 30
0.0
  0
VERTEX
  5
4A5
  8
LAYER_05
 10
1116.256039714614
 20
3821.759336166685
 30
0.0
  0
VERTEX
  5
4A6
  8
LAYER_05
 10
1072.407322044293
 20
3865.931463371033
 30
0.0
  0
VERTEX
  5
4A7
  8
LAYER_05
 10
1028.235194839945
 20
3822.082745700712
 30
0.0
  0
VERTEX
  5
4A8
  8
LAYER_05
 10
1072.083912510266
 20
3777.910618496364
 30
0.0
  0
SEQEND
  5
4A9
  8
LAYER_05
  0
POLYLINE
  5
4AA
  8
LAYER_05
 66
     1
 10
0.0
 20
0.0
 30
0.0
 70
     1
  0
VERTEX
  5
4AB
  8
LAYER_05
 10
853.1751005519932
 20
3778.714941574274
 30
0.0
  0
VERTEX
  5
4AC
  8
LAYER_05
 10
897.3472277563417
 20
3822.563659244595
 30
0.0
  0
VERTEX
  5
4AD
  8
LAYER_05
 10
853.4985100860206
 20
3866.735786448944
 30
0.0
  0
VERTEX
  5
4AE
  8
LAYER_05
 10
809.3263828816721
 20
3822.887068778622
 30
0.0
  0
SEQEND
  5
4AF
  8
LAYER_05
  0
POLYLINE
  5
4B0
  8
LAYER_05
 66
     1
 10
0.0
 20
0.0
 30
0.0
 70
     1
  0
VERTEX
  5
4B1
  8
LAYER_05
 10
863.7426597596736
 20
3768.069440534296
 30
0.0
  0
VERTEX
  5
4B2
  8
LAYER_05
 10
918.5602880039999
 20
3822.485717412297
 30
0.0
  0
VERTEX
  5
4B3
  8
LAYER_05
 10
864.1440111259988
 20
3877.303345656623
 30
0.0
  0
VERTEX
  5
4B4
  8
LAYER_05
 10
881.0179797229027
 20
3894.053770230033
 30
0.0
  0
VERTEX
  5
4B5
  8
LAYER_05
 10
952.1846811743137
 20
3822.362173388803
 30
0.0
  0
VERTEX
  5
4B6
  8
LAYER_05
 10
880.4930843330833
 20
3751.195471937391
 30
0.0
  0
SEQEND
  5
4B7
  8
LAYER_05
  0
POLYLINE
  5
4B8
  8
LAYER_05
 66
     1
 10
0.0
 20
0.0
 30
0.0
 70
     1
  0
VERTEX
  5
4B9
  8
LAYER_05
 10
852.9736146962018
 20
3723.877488156301
 30
0.0
  0
VERTEX
  5
4BA
  8
LAYER_05
 10
836.2231901227913
 20
3740.751456753206
 30
0.0
  0
VERTEX
  5
4BB
  8
LAYER_05
 10
853.097158719695
 20
3757.501881326616
 30
0.0
  0
VERTEX
  5
4BC
  8
LAYER_05
 10
869.8475832931051
 20
3740.627912729712
 30
0.0
  0
SEQEND
  5
4BD
  8
LAYER_05
  0
POLYLINE
  5
4BE
  8
LAYER_05
 66
     1
 10
0.0
 20
0.0
 30
0.0
 70
     1
  0
VERTEX
  5
4BF
  8
LAYER_05
 10
1033.717455977613
 20
3685.187622089622
 30
0.0
  0
VERTEX
  5
4C0
  8
LAYER_05
 10
962.0258591363825
 20
3614.02092063821
 30
0.0
  0
VERTEX
  5
4C1
  8
LAYER_05
 10
890.859157684971
 20
3685.712517479441
 30
0.0
  0
VERTEX
  5
4C2
  8
LAYER_05
 10
907.7331262818752
 20
3702.462942052851
 30
0.0
  0
VERTEX
  5
4C3
  8
LAYER_05
 10
962.1494031598766
 20
3647.645313808525
 30
0.0
  0
VERTEX
  5
4C4
  8
LAYER_05
 10
1016.967031404203
 20
3702.061590686526
 30
0.0
  0
SEQEND
  5
4C5
  8
LAYER_05
  0
POLYLINE
  5
4C6
  8
LAYER_05
 66
     1
 10
0.0
 20
0.0
 30
0.0
 70
     1
  0
VERTEX
  5
4C7
  8
LAYER_05
 10
880.4151425007854
 20
3729.982411689733
 30
0.0
  0
VERTEX
  5
4C8
  8
LAYER_05
 10
897.1655670741952
 20
3713.108443092829
 30
0.0
  0
VERTEX
  5
4C9
  8
LAYER_05
 10
880.291598477291
 20
3696.358018519419
 30
0.0
  0
VERTEX
  5
4CA
  8
LAYER_05
 10
863.5411739038814
 20
3713.231987116323
 30
0.0
  0
SEQEND
  5
4CB
  8
LAYER_05
  0
POLYLINE
  5
4CC
  8
LAYER_05
 66
     1
 10
0.0
 20
0.0
 30
0.0
 70
     1
  0
VERTEX
  5
4CD
  8
LAYER_05
 10
842.9309508783401
 20
3877.381287488921
 30
0.0
  0
VERTEX
  5
4CE
  8
LAYER_05
 10
788.1133226340139
 20
3822.96501061092
 30
0.0
  0
VERTEX
  5
4CF
  8
LAYER_05
 10
842.529599512015
 20
3768.147382366594
 30
0.0
  0
VERTEX
  5
4D0
  8
LAYER_05
 10
825.6556309151113
 20
3751.396957793184
 30
0.0
  0
VERTEX
  5
4D1
  8
LAYER_05
 10
754.4889294636998
 20
3823.088554634414
 30
0.0
  0
VERTEX
  5
4D2
  8
LAYER_05
 10
826.1805263049303
 20
3894.255256085826
 30
0.0
  0
SEQEND
  5
4D3
  8
LAYER_05
  0
POLYLINE
  5
4D4
  8
LAYER_05
 66
     1
 10
0.0
 20
0.0
 30
0.0
 70
     1
  0
VERTEX
  5
4D5
  8
LAYER_05
 10
870.4504205152225
 20
3904.699271270012
 30
0.0
  0
VERTEX
  5
4D6
  8
LAYER_05
 10
853.5764519183188
 20
3887.948846696602
 30
0.0
  0
VERTEX
  5
4D7
  8
LAYER_05
 10
836.8260273449084
 20
3904.822815293506
 30
0.0
  0
VERTEX
  5
4D8
  8
LAYER_05
 10
853.6999959418122
 20
3921.573239866916
 30
0.0
  0
SEQEND
  5
4D9
  8
LAYER_05
  0
POLYLINE
  5
4DA
  8
LAYER_05
 66
     1
 10
0.0
 20
0.0
 30
0.0
 70
     1
  0
VERTEX
  5
4DB
  8
LAYER_05
 10
881.0959215552011
 20
3915.266830477691
 30
0.0
  0
VERTEX
  5
4DC
  8
LAYER_05
 10
864.3454969817906
 20
3932.140799074595
 30
0.0
  0
VERTEX
  5
4DD
  8
LAYER_05
 10
881.2194655786946
 20
3948.891223648006
 30
0.0
  0
VERTEX
  5
4DE
  8
LAYER_05
 10
897.9698901521049
 20
3932.017255051102
 30
0.0
  0
SEQEND
  5
4DF
  8
LAYER_05
  0
POLYLINE
  5
4E0
  8
LAYER_05
 66
     1
 10
0.0
 20
0.0
 30
0.0
 70
     1
  0
VERTEX
  5
4E1
  8
LAYER_05
 10
919.1829503997633
 20
3931.939313218803
 30
0.0
  0
VERTEX
  5
4E2
  8
LAYER_05
 10
963.0316680700846
 20
3887.767186014455
 30
0.0
  0
VERTEX
  5
4E3
  8
LAYER_05
 10
1007.203795274433
 20
3931.615903684776
 30
0.0
  0
VERTEX
  5
4E4
  8
LAYER_05
 10
963.3550776041113
 20
3975.788030889124
 30
0.0
  0
SEQEND
  5
4E5
  8
LAYER_05
  0
POLYLINE
  5
4E6
  8
LAYER_05
 66
     1
 10
0.0
 20
0.0
 30
0.0
 70
     1
  0
VERTEX
  5
4E7
  8
LAYER_05
 10
908.5374493597856
 20
3921.371754011122
 30
0.0
  0
VERTEX
  5
4E8
  8
LAYER_05
 10
962.9537262377862
 20
3866.554125766797
 30
0.0
  0
VERTEX
  5
4E9
  8
LAYER_05
 10
1017.771354482113
 20
3920.970402644798
 30
0.0
  0
VERTEX
  5
4EA
  8
LAYER_05
 10
1034.521779055523
 20
3904.096434047894
 30
0.0
  0
VERTEX
  5
4EB
  8
LAYER_05
 10
962.8301822142921
 20
3832.929732596483
 30
0.0
  0
VERTEX
  5
4EC
  8
LAYER_05
 10
891.6634807628811
 20
3904.621329437713
 30
0.0
  0
SEQEND
  5
4ED
  8
LAYER_05
  0
POLYLINE
  5
4EE
  8
LAYER_05
 66
     1
 10
0.0
 20
0.0
 30
0.0
  0
VERTEX
  5
4EF
  8
LAYER_05
 10
1089.359232473495
 20
3903.894948192102
 30
0.0
  0
VERTEX
  5
4F0
  8
LAYER_05
 10
1072.485263876591
 20
3887.144523618691
 30
0.0
  0
VERTEX
  5
4F1
  8
LAYER_05
 10
1055.734839303181
 20
3904.018492215596
 30
0.0
  0
VERTEX
  5
4F2
  8
LAYER_05
 10
1072.608807900085
 20
3920.768916789006
 30
0.0
  0
VERTEX
  5
4F3
  8
LAYER_05
 10
1171.093493132586
 20
3821.557850310893
 30
0.0
  0
VERTEX
  5
4F4
  8
LAYER_05
 10
1099.401896291356
 20
3750.391148859482
 30
0.0
  0
VERTEX
  5
4F5
  8
LAYER_05
 10
1082.651471717946
 20
3767.265117456386
 30
0.0
  0
VERTEX
  5
4F6
  8
LAYER_05
 10
1137.469099962272
 20
3821.681394334387
 30
0.0
  0
VERTEX
  5
4F7
  8
LAYER_05
 10
1083.052823084271
 20
3876.499022578714
 30
0.0
  0
VERTEX
  5
4F8
  8
LAYER_05
 10
1099.926791681175
 20
3893.249447152124
 30
0.0
  0
SEQEND
  5
4F9
  8
LAYER_05
  0
POLYLINE
  5
4FA
  8
LAYER_05
 66
     1
 10
0.0
 20
0.0
 30
0.0
 70
     1
  0
VERTEX
  5
4FB
  8
LAYER_05
 10
891.864966618673
 20
3959.458782855686
 30
0.0
  0
VERTEX
  5
4FC
  8
LAYER_05
 10
908.6153911920833
 20
3942.584814258782
 30
0.0
  0
VERTEX
  5
4FD
  8
LAYER_05
 10
963.4330194364095
 20
3997.001091136783
 30
0.0
  0
VERTEX
  5
4FE
  8
LAYER_05
 10
1017.849296314411
 20
3942.183462892456
 30
0.0
  0
VERTEX
  5
4FF
  8
LAYER_05
 10
1034.723264911315
 20
3958.933887465867
 30
0.0
  0
VERTEX
  5
500
  8
LAYER_05
 10
963.5565634599038
 20
4030.625484307097
 30
0.0
  0
SEQEND
  5
501
  8
LAYER_05
  0
POLYLINE
  5
502
  8
LAYER_05
 66
     1
 10
0.0
 20
0.0
 30
0.0
 70
     1
  0
VERTEX
  5
503
  8
LAYER_05
 10
1045.167280095501
 20
3914.663993255574
 30
0.0
  0
VERTEX
  5
504
  8
LAYER_05
 10
1028.416855522091
 20
3931.537961852478
 30
0.0
  0
VERTEX
  5
505
  8
LAYER_05
 10
1045.290824118995
 20
3948.288386425888
 30
0.0
  0
VERTEX
  5
506
  8
LAYER_05
 10
1062.041248692405
 20
3931.414417828984
 30
0.0
  0
SEQEND
  5
507
  8
LAYER_05
  0
POLYLINE
  5
508
  8
LAYER_05
 66
     1
 10
0.0
 20
0.0
 30
0.0
 70
     1
  0
VERTEX
  5
509
  8
LAYER_05
 10
1044.486501041085
 20
3729.379574467616
 30
0.0
  0
VERTEX
  5
50A
  8
LAYER_05
 10
1061.236925614495
 20
3712.505605870712
 30
0.0
  0
VERTEX
  5
50B
  8
LAYER_05
 10
1044.362957017591
 20
3695.755181297302
 30
0.0
  0
VERTEX
  5
50C
  8
LAYER_05
 10
1027.612532444181
 20
3712.629149894206
 30
0.0
  0
SEQEND
  5
50D
  8
LAYER_05
  0
POLYLINE
  5
50E
  8
LAYER_05
 66
     1
 10
0.0
 20
0.0
 30
0.0
 70
     1
  0
VERTEX
  5
50F
  8
LAYER_05
 10
1055.132002081063
 20
3739.947133675295
 30
0.0
  0
VERTEX
  5
510
  8
LAYER_05
 10
1072.005970677968
 20
3756.697558248706
 30
0.0
  0
VERTEX
  5
511
  8
LAYER_05
 10
1088.756395251378
 20
3739.823589651802
 30
0.0
  0
VERTEX
  5
512
  8
LAYER_05
 10
1071.882426654474
 20
3723.073165078391
 30
0.0
  0
SEQEND
  5
513
  8
LAYER_05
  0
POLYLINE
  5
514
  8
LAYER_05
 66
     1
 10
0.0
 20
0.0
 30
0.0
 70
     1
  0
VERTEX
  5
515
  8
LAYER_05
 10
1071.279589432356
 20
3559.001806538091
 30
0.0
  0
VERTEX
  5
516
  8
LAYER_05
 10
1027.430871762035
 20
3603.17393374244
 30
0.0
  0
VERTEX
  5
517
  8
LAYER_05
 10
1071.602998966383
 20
3647.022651412761
 30
0.0
  0
VERTEX
  5
518
  8
LAYER_05
 10
1115.451716636704
 20
3602.850524208412
 30
0.0
  0
SEQEND
  5
519
  8
LAYER_05
  0
POLYLINE
  5
51A
  8
LAYER_05
 66
     1
 10
0.0
 20
0.0
 30
0.0
 70
     1
  0
VERTEX
  5
51B
  8
LAYER_05
 10
1082.248500006361
 20
3657.590210620441
 30
0.0
  0
VERTEX
  5
51C
  8
LAYER_05
 10
1099.122468603265
 20
3674.340635193851
 30
0.0
  0
VERTEX
  5
51D
  8
LAYER_05
 10
1170.289170054676
 20
3602.649038352621
 30
0.0
  0
VERTEX
  5
51E
  8
LAYER_05
 10
1098.597573213446
 20
3531.48233690121
 30
0.0
  0
VERTEX
  5
51F
  8
LAYER_05
 10
1081.847148640036
 20
3548.356305498114
 30
0.0
  0
VERTEX
  5
520
  8
LAYER_05
 10
1136.664776884362
 20
3602.772582376114
 30
0.0
  0
SEQEND
  5
521
  8
LAYER_05
  0
POLYLINE
  5
522
  8
LAYER_05
 66
     1
 10
0.0
 20
0.0
 30
0.0
  0
VERTEX
  5
523
  8
LAYER_05
 10
1126.641938240147
 20
3701.658618974942
 30
0.0
  0
VERTEX
  5
524
  8
LAYER_05
 10
1181.058215118149
 20
3646.840990730615
 30
0.0
  0
VERTEX
  5
525
  8
LAYER_05
 10
1235.875843362475
 20
3701.257267608616
 30
0.0
  0
VERTEX
  5
526
  8
LAYER_05
 10
1252.626267935885
 20
3684.383299011712
 30
0.0
  0
VERTEX
  5
527
  8
LAYER_05
 10
1180.934671094655
 20
3613.216597560301
 30
0.0
  0
VERTEX
  5
528
  8
LAYER_05
 10
1109.767969643244
 20
3684.908194401531
 30
0.0
  0
VERTEX
  5
529
  8
LAYER_05
 10
1181.459566484474
 20
3756.074895852943
 30
0.0
  0
VERTEX
  5
52A
  8
LAYER_05
 10
1225.308284154795
 20
3711.902768648595
 30
0.0
  0
VERTEX
  5
52B
  8
LAYER_05
 10
1181.136156950447
 20
3668.054050978274
 30
0.0
  0
VERTEX
  5
52C
  8
LAYER_05
 10
1137.287439280126
 20
3712.226178182621
 30
0.0
  0
SEQEND
  5
52D
  8
LAYER_05
  0
POLYLINE
  5
52E
  8
LAYER_05
 66
     1
 10
0.0
 20
0.0
 30
0.0
 70
     1
  0
VERTEX
  5
52F
  8
LAYER_05
 10
1136.483116202216
 20
3493.317366224348
 30
0.0
  0
VERTEX
  5
530
  8
LAYER_05
 10
1180.655243406565
 20
3537.16608389467
 30
0.0
  0
VERTEX
  5
531
  8
LAYER_05
 10
1224.503961076886
 20
3492.993956690323
 30
0.0
  0
VERTEX
  5
532
  8
LAYER_05
 10
1180.331833872537
 20
3449.145239020001
 30
0.0
  0
SEQEND
  5
533
  8
LAYER_05
  0
POLYLINE
  5
534
  8
LAYER_05
 66
     1
 10
0.0
 20
0.0
 30
0.0
 70
     1
  0
VERTEX
  5
535
  8
LAYER_05
 10
1125.915556994537
 20
3503.962867264327
 30
0.0
  0
VERTEX
  5
536
  8
LAYER_05
 10
1180.733185238863
 20
3558.379144142329
 30
0.0
  0
VERTEX
  5
537
  8
LAYER_05
 10
1235.149462116864
 20
3503.561515898002
 30
0.0
  0
VERTEX
  5
538
  8
LAYER_05
 10
1252.023430713768
 20
3520.311940471412
 30
0.0
  0
VERTEX
  5
539
  8
LAYER_05
 10
1180.856729262356
 20
3592.003537312642
 30
0.0
  0
VERTEX
  5
53A
  8
LAYER_05
 10
1109.165132421126
 20
3520.836835861231
 30
0.0
  0
SEQEND
  5
53B
  8
LAYER_05
  0
POLYLINE
  5
53C
  8
LAYER_05
 66
     1
 10
0.0
 20
0.0
 30
0.0
 70
     1
  0
VERTEX
  5
53D
  8
LAYER_05
 10
1081.645662784244
 20
3493.518852080142
 30
0.0
  0
VERTEX
  5
53E
  8
LAYER_05
 10
1098.396087357654
 20
3476.644883483237
 30
0.0
  0
VERTEX
  5
53F
  8
LAYER_05
 10
1115.270055954558
 20
3493.395308056647
 30
0.0
  0
VERTEX
  5
540
  8
LAYER_05
 10
1098.519631381148
 20
3510.269276653552
 30
0.0
  0
SEQEND
  5
541
  8
LAYER_05
  0
POLYLINE
  5
542
  8
LAYER_05
 66
     1
 10
0.0
 20
0.0
 30
0.0
 70
     1
  0
VERTEX
  5
543
  8
LAYER_05
 10
1044.285015185292
 20
3674.542121049643
 30
0.0
  0
VERTEX
  5
544
  8
LAYER_05
 10
972.5934183440622
 20
3603.375419598232
 30
0.0
  0
VERTEX
  5
545
  8
LAYER_05
 10
1043.760119795474
 20
3531.683822757002
 30
0.0
  0
VERTEX
  5
546
  8
LAYER_05
 10
1060.634088392378
 20
3548.434247330412
 30
0.0
  0
VERTEX
  5
547
  8
LAYER_05
 10
1006.217811514377
 20
3603.251875574738
 30
0.0
  0
VERTEX
  5
548
  8
LAYER_05
 10
1061.035439758703
 20
3657.668152452739
 30
0.0
  0
SEQEND
  5
549
  8
LAYER_05
  0
POLYLINE
  5
54A
  8
LAYER_05
 66
     1
 10
0.0
 20
0.0
 30
0.0
 70
     1
  0
VERTEX
  5
54B
  8
LAYER_05
 10
1087.952072173468
 20
3520.91477769353
 30
0.0
  0
VERTEX
  5
54C
  8
LAYER_05
 10
1071.201647600058
 20
3537.788746290434
 30
0.0
  0
VERTEX
  5
54D
  8
LAYER_05
 10
1054.327679003153
 20
3521.038321717023
 30
0.0
  0
VERTEX
  5
54E
  8
LAYER_05
 10
1071.078103576564
 20
3504.164353120119
 30
0.0
  0
SEQEND
  5
54F
  8
LAYER_05
  0
POLYLINE
  5
550
  8
LAYER_05
 66
     1
 10
0.0
 20
0.0
 30
0.0
 70
     1
  0
VERTEX
  5
551
  8
LAYER_05
 10
1235.071520284565
 20
3482.348455650344
 30
0.0
  0
VERTEX
  5
552
  8
LAYER_05
 10
1180.253892040239
 20
3427.932178772342
 30
0.0
  0
VERTEX
  5
553
  8
LAYER_05
 10
1125.837615162238
 20
3482.749807016669
 30
0.0
  0
VERTEX
  5
554
  8
LAYER_05
 10
1108.963646565334
 20
3465.999382443259
 30
0.0
  0
VERTEX
  5
555
  8
LAYER_05
 10
1180.130348016746
 20
3394.307785602029
 30
0.0
  0
VERTEX
  5
556
  8
LAYER_05
 10
1251.821944857976
 20
3465.47448705344
 30
0.0
  0
SEQEND
  5
557
  8
LAYER_05
  0
POLYLINE
  5
558
  8
LAYER_05
 66
     1
 10
0.0
 20
0.0
 30
0.0
 70
     1
  0
VERTEX
  5
559
  8
LAYER_05
 10
1262.590989921448
 20
3509.666439431434
 30
0.0
  0
VERTEX
  5
55A
  8
LAYER_05
 10
1245.717021324544
 20
3492.916014858024
 30
0.0
  0
VERTEX
  5
55B
  8
LAYER_05
 10
1262.467445897954
 20
3476.04204626112
 30
0.0
  0
VERTEX
  5
55C
  8
LAYER_05
 10
1279.341414494858
 20
3492.792470834529
 30
0.0
  0
SEQEND
  5
55D
  8
LAYER_05
  0
POLYLINE
  5
55E
  8
LAYER_05
 66
     1
 10
0.0
 20
0.0
 30
0.0
 70
     1
  0
VERTEX
  5
55F
  8
LAYER_05
 10
1273.236490961426
 20
3520.233998639114
 30
0.0
  0
VERTEX
  5
560
  8
LAYER_05
 10
1289.986915534836
 20
3503.360030042209
 30
0.0
  0
VERTEX
  5
561
  8
LAYER_05
 10
1306.86088413174
 20
3520.11045461562
 30
0.0
  0
VERTEX
  5
562
  8
LAYER_05
 10
1290.11045955833
 20
3536.984423212524
 30
0.0
  0
SEQEND
  5
563
  8
LAYER_05
  0
POLYLINE
  5
564
  8
LAYER_05
 66
     1
 10
0.0
 20
0.0
 30
0.0
 70
     1
  0
VERTEX
  5
565
  8
LAYER_05
 10
1290.188401390629
 20
3558.197483460182
 30
0.0
  0
VERTEX
  5
566
  8
LAYER_05
 10
1246.339683720307
 20
3602.369610664531
 30
0.0
  0
VERTEX
  5
567
  8
LAYER_05
 10
1290.511810924655
 20
3646.218328334852
 30
0.0
  0
VERTEX
  5
568
  8
LAYER_05
 10
1334.360528594976
 20
3602.046201130504
 30
0.0
  0
SEQEND
  5
569
  8
LAYER_05
  0
POLYLINE
  5
56A
  8
LAYER_05
 66
     1
 10
0.0
 20
0.0
 30
0.0
 70
     1
  0
VERTEX
  5
56B
  8
LAYER_05
 10
1279.54290035065
 20
3547.629924252502
 30
0.0
  0
VERTEX
  5
56C
  8
LAYER_05
 10
1225.126623472649
 20
3602.447552496829
 30
0.0
  0
VERTEX
  5
56D
  8
LAYER_05
 10
1279.944251716975
 20
3656.86382937483
 30
0.0
  0
VERTEX
  5
56E
  8
LAYER_05
 10
1263.193827143565
 20
3673.737797971733
 30
0.0
  0
VERTEX
  5
56F
  8
LAYER_05
 10
1191.502230302335
 20
3602.571096520322
 30
0.0
  0
VERTEX
  5
570
  8
LAYER_05
 10
1262.668931753746
 20
3530.879499679092
 30
0.0
  0
SEQEND
  5
571
  8
LAYER_05
  0
POLYLINE
  5
572
  8
LAYER_05
 66
     1
 10
0.0
 20
0.0
 30
0.0
  0
VERTEX
  5
573
  8
LAYER_05
 10
1263.395312999357
 20
3728.575251389706
 30
0.0
  0
VERTEX
  5
574
  8
LAYER_05
 10
1246.521344402453
 20
3711.824826816297
 30
0.0
  0
VERTEX
  5
575
  8
LAYER_05
 10
1263.271768975864
 20
3694.950858219392
 30
0.0
  0
VERTEX
  5
576
  8
LAYER_05
 10
1280.145737572768
 20
3711.701282792802
 30
0.0
  0
VERTEX
  5
577
  8
LAYER_05
 10
1181.661052340266
 20
3810.912349270915
 30
0.0
  0
VERTEX
  5
578
  8
LAYER_05
 10
1109.969455499036
 20
3739.745647819504
 30
0.0
  0
VERTEX
  5
579
  8
LAYER_05
 10
1126.719880072446
 20
3722.8716792226
 30
0.0
  0
VERTEX
  5
57A
  8
LAYER_05
 10
1181.537508316772
 20
3777.287956100601
 30
0.0
  0
VERTEX
  5
57B
  8
LAYER_05
 10
1235.953785194773
 20
3722.470327856274
 30
0.0
  0
VERTEX
  5
57C
  8
LAYER_05
 10
1252.827753791677
 20
3739.220752429685
 30
0.0
  0
SEQEND
  5
57D
  8
LAYER_05
  0
POLYLINE
  5
57E
  8
LAYER_05
 66
     1
 10
0.0
 20
0.0
 30
0.0
 70
     1
  0
VERTEX
  5
57F
  8
LAYER_05
 10
1317.506385171719
 20
3530.678013823299
 30
0.0
  0
VERTEX
  5
580
  8
LAYER_05
 10
1300.755960598308
 20
3547.551982420204
 30
0.0
  0
VERTEX
  5
581
  8
LAYER_05
 10
1355.573588842635
 20
3601.968259298205
 30
0.0
  0
VERTEX
  5
582
  8
LAYER_05
 10
1301.157311964633
 20
3656.785887542531
 30
0.0
  0
VERTEX
  5
583
  8
LAYER_05
 10
1318.031280561538
 20
3673.536312115942
 30
0.0
  0
VERTEX
  5
584
  8
LAYER_05
 10
1389.197982012949
 20
3601.844715274711
 30
0.0
  0
SEQEND
  5
585
  8
LAYER_05
  0
POLYLINE
  5
586
  8
LAYER_05
 66
     1
 10
0.0
 20
0.0
 30
0.0
 70
     1
  0
VERTEX
  5
587
  8
LAYER_05
 10
1273.839328183544
 20
3684.305357179414
 30
0.0
  0
VERTEX
  5
588
  8
LAYER_05
 10
1290.589752756953
 20
3667.43138858251
 30
0.0
  0
VERTEX
  5
589
  8
LAYER_05
 10
1307.463721353858
 20
3684.18181315592
 30
0.0
  0
VERTEX
  5
58A
  8
LAYER_05
 10
1290.713296780448
 20
3701.055781752824
 30
0.0
  0
SEQEND
  5
58B
  8
LAYER_05
  0
POLYLINE
  5
58C
  8
LAYER_05
 66
     1
 10
0.0
 20
0.0
 30
0.0
 70
     1
  0
VERTEX
  5
58D
  8
LAYER_05
 10
1088.554909395585
 20
3684.98613623383
 30
0.0
  0
VERTEX
  5
58E
  8
LAYER_05
 10
1071.804484822175
 20
3701.860104830733
 30
0.0
  0
VERTEX
  5
58F
  8
LAYER_05
 10
1054.930516225271
 20
3685.109680257323
 30
0.0
  0
VERTEX
  5
590
  8
LAYER_05
 10
1071.680940798681
 20
3668.235711660419
 30
0.0
  0
SEQEND
  5
591
  8
LAYER_05
  0
POLYLINE
  5
592
  8
LAYER_05
 66
     1
 10
0.0
 20
0.0
 30
0.0
 70
     1
  0
VERTEX
  5
593
  8
LAYER_05
 10
1099.200410435564
 20
3695.553695441509
 30
0.0
  0
VERTEX
  5
594
  8
LAYER_05
 10
1116.074379032468
 20
3712.30412001492
 30
0.0
  0
VERTEX
  5
595
  8
LAYER_05
 10
1099.323954459057
 20
3729.178088611824
 30
0.0
  0
VERTEX
  5
596
  8
LAYER_05
 10
1082.449985862153
 20
3712.427664038413
 30
0.0
  0
SEQEND
  5
597
  8
LAYER_05
  0
POLYLINE
  5
598
  8
LAYER_05
 66
     1
 10
0.0
 20
0.0
 30
0.0
 70
     1
  0
VERTEX
  5
599
  8
LAYER_05
 10
698.665492285671
 20
3494.926012380168
 30
0.0
  0
VERTEX
  5
59A
  8
LAYER_05
 10
742.5142099559926
 20
3450.75388517582
 30
0.0
  0
VERTEX
  5
59B
  8
LAYER_05
 10
786.6863371603408
 20
3494.602602846141
 30
0.0
  0
VERTEX
  5
59C
  8
LAYER_05
 10
742.8376194900193
 20
3538.774730050489
 30
0.0
  0
SEQEND
  5
59D
  8
LAYER_05
  0
POLYLINE
  5
59E
  8
LAYER_05
 66
     1
 10
0.0
 20
0.0
 30
0.0
 70
     1
  0
VERTEX
  5
59F
  8
LAYER_05
 10
797.3318382003185
 20
3505.17016205382
 30
0.0
  0
VERTEX
  5
5A0
  8
LAYER_05
 10
814.2058067972227
 20
3521.920586627231
 30
0.0
  0
VERTEX
  5
5A1
  8
LAYER_05
 10
743.0391053458118
 20
3593.612183468461
 30
0.0
  0
VERTEX
  5
5A2
  8
LAYER_05
 10
671.3475085045814
 20
3522.44548201705
 30
0.0
  0
VERTEX
  5
5A3
  8
LAYER_05
 10
688.0979330779912
 20
3505.571513420146
 30
0.0
  0
VERTEX
  5
5A4
  8
LAYER_05
 10
742.9155613223174
 20
3559.987790298147
 30
0.0
  0
SEQEND
  5
5A5
  8
LAYER_05
  0
POLYLINE
  5
5A6
  8
LAYER_05
 66
     1
 10
0.0
 20
0.0
 30
0.0
  0
VERTEX
  5
5A7
  8
LAYER_05
 10
841.7252764341056
 20
3549.238570408321
 30
0.0
  0
VERTEX
  5
5A8
  8
LAYER_05
 10
787.308999556104
 20
3604.056198652648
 30
0.0
  0
VERTEX
  5
5A9
  8
LAYER_05
 10
842.1266278004305
 20
3658.472475530648
 30
0.0
  0
VERTEX
  5
5AA
  8
LAYER_05
 10
825.3762032270199
 20
3675.346444127552
 30
0.0
  0
VERTEX
  5
5AB
  8
LAYER_05
 10
753.68460638579
 20
3604.179742676141
 30
0.0
  0
VERTEX
  5
5AC
  8
LAYER_05
 10
824.8513078372011
 20
3532.488145834911
 30
0.0
  0
VERTEX
  5
5AD
  8
LAYER_05
 10
896.5429046784313
 20
3603.654847286322
 30
0.0
  0
VERTEX
  5
5AE
  8
LAYER_05
 10
852.6941870081105
 20
3647.82697449067
 30
0.0
  0
VERTEX
  5
5AF
  8
LAYER_05
 10
808.5220598037622
 20
3603.97825682035
 30
0.0
  0
VERTEX
  5
5B0
  8
LAYER_05
 10
852.3707774740838
 20
3559.806129616001
 30
0.0
  0
SEQEND
  5
5B1
  8
LAYER_05
  0
POLYLINE
  5
5B2
  8
LAYER_05
 66
     1
 10
0.0
 20
0.0
 30
0.0
 70
     1
  0
VERTEX
  5
5B3
  8
LAYER_05
 10
633.461965515811
 20
3560.610452693911
 30
0.0
  0
VERTEX
  5
5B4
  8
LAYER_05
 10
677.6340927201591
 20
3604.459170364232
 30
0.0
  0
VERTEX
  5
5B5
  8
LAYER_05
 10
633.785375049838
 20
3648.63129756858
 30
0.0
  0
VERTEX
  5
5B6
  8
LAYER_05
 10
589.6132478454899
 20
3604.782579898259
 30
0.0
  0
SEQEND
  5
5B7
  8
LAYER_05
  0
POLYLINE
  5
5B8
  8
LAYER_05
 66
     1
 10
0.0
 20
0.0
 30
0.0
 70
     1
  0
VERTEX
  5
5B9
  8
LAYER_05
 10
644.0295247234912
 20
3549.964951653933
 30
0.0
  0
VERTEX
  5
5BA
  8
LAYER_05
 10
698.8471529678175
 20
3604.381228531934
 30
0.0
  0
VERTEX
  5
5BB
  8
LAYER_05
 10
644.4308760898164
 20
3659.19885677626
 30
0.0
  0
VERTEX
  5
5BC
  8
LAYER_05
 10
661.3048446867206
 20
3675.94928134967
 30
0.0
  0
VERTEX
  5
5BD
  8
LAYER_05
 10
732.4715461381315
 20
3604.25768450844
 30
0.0
  0
VERTEX
  5
5BE
  8
LAYER_05
 10
660.7799492969011
 20
3533.090983057029
 30
0.0
  0
SEQEND
  5
5BF
  8
LAYER_05
  0
POLYLINE
  5
5C0
  8
LAYER_05
 66
     1
 10
0.0
 20
0.0
 30
0.0
 70
     1
  0
VERTEX
  5
5C1
  8
LAYER_05
 10
633.2604796600192
 20
3505.772999275938
 30
0.0
  0
VERTEX
  5
5C2
  8
LAYER_05
 10
616.5100550866086
 20
3522.646967872843
 30
0.0
  0
VERTEX
  5
5C3
  8
LAYER_05
 10
633.3840236835126
 20
3539.397392446253
 30
0.0
  0
VERTEX
  5
5C4
  8
LAYER_05
 10
650.1344482569227
 20
3522.523423849349
 30
0.0
  0
SEQEND
  5
5C5
  8
LAYER_05
  0
POLYLINE
  5
5C6
  8
LAYER_05
 66
     1
 10
0.0
 20
0.0
 30
0.0
 70
     1
  0
VERTEX
  5
5C7
  8
LAYER_05
 10
814.0043209414305
 20
3467.083133209258
 30
0.0
  0
VERTEX
  5
5C8
  8
LAYER_05
 10
742.3127241002003
 20
3395.916431757847
 30
0.0
  0
VERTEX
  5
5C9
  8
LAYER_05
 10
671.1460226487889
 20
3467.608028599078
 30
0.0
  0
VERTEX
  5
5CA
  8
LAYER_05
 10
688.0199912456928
 20
3484.358453172488
 30
0.0
  0
VERTEX
  5
5CB
  8
LAYER_05
 10
742.4362681236942
 20
3429.540824928161
 30
0.0
  0
VERTEX
  5
5CC
  8
LAYER_05
 10
797.2538963680204
 20
3483.957101806163
 30
0.0
  0
SEQEND
  5
5CD
  8
LAYER_05
  0
POLYLINE
  5
5CE
  8
LAYER_05
 66
     1
 10
0.0
 20
0.0
 30
0.0
 70
     1
  0
VERTEX
  5
5CF
  8
LAYER_05
 10
660.702007464603
 20
3511.87792280937
 30
0.0
  0
VERTEX
  5
5D0
  8
LAYER_05
 10
677.4524320380128
 20
3495.003954212466
 30
0.0
  0
VERTEX
  5
5D1
  8
LAYER_05
 10
660.5784634411089
 20
3478.253529639056
 30
0.0
  0
VERTEX
  5
5D2
  8
LAYER_05
 10
643.8280388676988
 20
3495.127498235961
 30
0.0
  0
SEQEND
  5
5D3
  8
LAYER_05
  0
POLYLINE
  5
5D4
  8
LAYER_05
 66
     1
 10
0.0
 20
0.0
 30
0.0
 70
     1
  0
VERTEX
  5
5D5
  8
LAYER_05
 10
623.217815842158
 20
3659.276798608558
 30
0.0
  0
VERTEX
  5
5D6
  8
LAYER_05
 10
568.4001875978315
 20
3604.860521730557
 30
0.0
  0
VERTEX
  5
5D7
  8
LAYER_05
 10
622.8164644758326
 20
3550.042893486231
 30
0.0
  0
VERTEX
  5
5D8
  8
LAYER_05
 10
605.9424958789286
 20
3533.292468912821
 30
0.0
  0
VERTEX
  5
5D9
  8
LAYER_05
 10
534.7757944275172
 20
3604.984065754051
 30
0.0
  0
VERTEX
  5
5DA
  8
LAYER_05
 10
606.4673912687476
 20
3676.150767205463
 30
0.0
  0
SEQEND
  5
5DB
  8
LAYER_05
  0
POLYLINE
  5
5DC
  8
LAYER_05
 66
     1
 10
0.0
 20
0.0
 30
0.0
 70
     1
  0
VERTEX
  5
5DD
  8
LAYER_05
 10
650.7372854790403
 20
3686.594782389648
 30
0.0
  0
VERTEX
  5
5DE
  8
LAYER_05
 10
633.8633168821366
 20
3669.844357816238
 30
0.0
  0
VERTEX
  5
5DF
  8
LAYER_05
 10
617.112892308726
 20
3686.718326413142
 30
0.0
  0
VERTEX
  5
5E0
  8
LAYER_05
 10
633.98686090563
 20
3703.468750986553
 30
0.0
  0
SEQEND
  5
5E1
  8
LAYER_05
  0
POLYLINE
  5
5E2
  8
LAYER_05
 66
     1
 10
0.0
 20
0.0
 30
0.0
 70
     1
  0
VERTEX
  5
5E3
  8
LAYER_05
 10
661.3827865190187
 20
3697.162341597328
 30
0.0
  0
VERTEX
  5
5E4
  8
LAYER_05
 10
644.6323619456082
 20
3714.036310194233
 30
0.0
  0
VERTEX
  5
5E5
  8
LAYER_05
 10
661.5063305425124
 20
3730.786734767642
 30
0.0
  0
VERTEX
  5
5E6
  8
LAYER_05
 10
678.2567551159227
 20
3713.912766170738
 30
0.0
  0
SEQEND
  5
5E7
  8
LAYER_05
  0
POLYLINE
  5
5E8
  8
LAYER_05
 66
     1
 10
0.0
 20
0.0
 30
0.0
 70
     1
  0
VERTEX
  5
5E9
  8
LAYER_05
 10
699.4698153635809
 20
3713.83482433844
 30
0.0
  0
VERTEX
  5
5EA
  8
LAYER_05
 10
743.3185330339022
 20
3669.662697134092
 30
0.0
  0
VERTEX
  5
5EB
  8
LAYER_05
 10
787.49066023825
 20
3713.511414804413
 30
0.0
  0
VERTEX
  5
5EC
  8
LAYER_05
 10
743.6419425679287
 20
3757.683542008761
 30
0.0
  0
SEQEND
  5
5ED
  8
LAYER_05
  0
POLYLINE
  5
5EE
  8
LAYER_05
 66
     1
 10
0.0
 20
0.0
 30
0.0
 70
     1
  0
VERTEX
  5
5EF
  8
LAYER_05
 10
688.8243143236034
 20
3703.26726513076
 30
0.0
  0
VERTEX
  5
5F0
  8
LAYER_05
 10
743.240591201604
 20
3648.449636886433
 30
0.0
  0
VERTEX
  5
5F1
  8
LAYER_05
 10
798.05821944593
 20
3702.865913764434
 30
0.0
  0
VERTEX
  5
5F2
  8
LAYER_05
 10
814.8086440193399
 20
3685.991945167531
 30
0.0
  0
VERTEX
  5
5F3
  8
LAYER_05
 10
743.1170471781097
 20
3614.82524371612
 30
0.0
  0
VERTEX
  5
5F4
  8
LAYER_05
 10
671.9503457266987
 20
3686.51684055735
 30
0.0
  0
SEQEND
  5
5F5
  8
LAYER_05
  0
POLYLINE
  5
5F6
  8
LAYER_05
 66
     1
 10
0.0
 20
0.0
 30
0.0
  0
VERTEX
  5
5F7
  8
LAYER_05
 10
869.6460974373124
 20
3685.790459311739
 30
0.0
  0
VERTEX
  5
5F8
  8
LAYER_05
 10
852.7721288404084
 20
3669.040034738328
 30
0.0
  0
VERTEX
  5
5F9
  8
LAYER_05
 10
836.0217042669983
 20
3685.914003335233
 30
0.0
  0
VERTEX
  5
5FA
  8
LAYER_05
 10
852.8956728639023
 20
3702.664427908643
 30
0.0
  0
VERTEX
  5
5FB
  8
LAYER_05
 10
951.3803580964038
 20
3603.45336143053
 30
0.0
  0
VERTEX
  5
5FC
  8
LAYER_05
 10
879.6887612551736
 20
3532.286659979119
 30
0.0
  0
VERTEX
  5
5FD
  8
LAYER_05
 10
862.9383366817633
 20
3549.160628576023
 30
0.0
  0
VERTEX
  5
5FE
  8
LAYER_05
 10
917.7559649260897
 20
3603.576905454024
 30
0.0
  0
VERTEX
  5
5FF
  8
LAYER_05
 10
863.3396880480884
 20
3658.39453369835
 30
0.0
  0
VERTEX
  5
600
  8
LAYER_05
 10
880.2136566449924
 20
3675.144958271761
 30
0.0
  0
SEQEND
  5
601
  8
LAYER_05
  0
POLYLINE
  5
602
  8
LAYER_05
 66
     1
 10
0.0
 20
0.0
 30
0.0
 70
     1
  0
VERTEX
  5
603
  8
LAYER_05
 10
672.1518315824906
 20
3741.354293975323
 30
0.0
  0
VERTEX
  5
604
  8
LAYER_05
 10
688.9022561559009
 20
3724.480325378418
 30
0.0
  0
VERTEX
  5
605
  8
LAYER_05
 10
743.7198844002271
 20
3778.89660225642
 30
0.0
  0
VERTEX
  5
606
  8
LAYER_05
 10
798.1361612782284
 20
3724.078974012093
 30
0.0
  0
VERTEX
  5
607
  8
LAYER_05
 10
815.0101298751324
 20
3740.829398585503
 30
0.0
  0
VERTEX
  5
608
  8
LAYER_05
 10
743.8434284237212
 20
3812.520995426733
 30
0.0
  0
SEQEND
  5
609
  8
LAYER_05
  0
POLYLINE
  5
60A
  8
LAYER_05
 66
     1
 10
0.0
 20
0.0
 30
0.0
 70
     1
  0
VERTEX
  5
60B
  8
LAYER_05
 10
825.4541450593183
 20
3696.559504375211
 30
0.0
  0
VERTEX
  5
60C
  8
LAYER_05
 10
808.7037204859084
 20
3713.433472972114
 30
0.0
  0
VERTEX
  5
60D
  8
LAYER_05
 10
825.5776890828124
 20
3730.183897545525
 30
0.0
  0
VERTEX
  5
60E
  8
LAYER_05
 10
842.3281136562223
 20
3713.309928948621
 30
0.0
  0
SEQEND
  5
60F
  8
LAYER_05
  0
POLYLINE
  5
610
  8
LAYER_05
 66
     1
 10
0.0
 20
0.0
 30
0.0
 70
     1
  0
VERTEX
  5
611
  8
LAYER_05
 10
824.773366004903
 20
3511.275085587252
 30
0.0
  0
VERTEX
  5
612
  8
LAYER_05
 10
841.5237905783131
 20
3494.401116990349
 30
0.0
  0
VERTEX
  5
613
  8
LAYER_05
 10
824.6498219814089
 20
3477.650692416938
 30
0.0
  0
VERTEX
  5
614
  8
LAYER_05
 10
807.8993974079988
 20
3494.524661013842
 30
0.0
  0
SEQEND
  5
615
  8
LAYER_05
  0
POLYLINE
  5
616
  8
LAYER_05
 66
     1
 10
0.0
 20
0.0
 30
0.0
 70
     1
  0
VERTEX
  5
617
  8
LAYER_05
 10
835.4188670448809
 20
3521.842644794933
 30
0.0
  0
VERTEX
  5
618
  8
LAYER_05
 10
852.2928356417854
 20
3538.593069368343
 30
0.0
  0
VERTEX
  5
619
  8
LAYER_05
 10
869.0432602151955
 20
3521.719100771439
 30
0.0
  0
VERTEX
  5
61A
  8
LAYER_05
 10
852.1692916182913
 20
3504.968676198029
 30
0.0
  0
SEQEND
  5
61B
  8
LAYER_05
  0
POLYLINE
  5
61C
  8
LAYER_05
 66
     1
 10
0.0
 20
0.0
 30
0.0
 70
     1
  0
VERTEX
  5
61D
  8
LAYER_05
 10
851.5664543961741
 20
3340.897317657729
 30
0.0
  0
VERTEX
  5
61E
  8
LAYER_05
 10
807.7177367258525
 20
3385.069444862077
 30
0.0
  0
VERTEX
  5
61F
  8
LAYER_05
 10
851.8898639302004
 20
3428.918162532399
 30
0.0
  0
VERTEX
  5
620
  8
LAYER_05
 10
895.7385816005219
 20
3384.74603532805
 30
0.0
  0
SEQEND
  5
621
  8
LAYER_05
  0
POLYLINE
  5
622
  8
LAYER_05
 66
     1
 10
0.0
 20
0.0
 30
0.0
 70
     1
  0
VERTEX
  5
623
  8
LAYER_05
 10
862.5353649701785
 20
3439.485721740078
 30
0.0
  0
VERTEX
  5
624
  8
LAYER_05
 10
879.4093335670832
 20
3456.236146313488
 30
0.0
  0
VERTEX
  5
625
  8
LAYER_05
 10
950.5760350184942
 20
3384.544549472258
 30
0.0
  0
VERTEX
  5
626
  8
LAYER_05
 10
878.8844381772637
 20
3313.377848020847
 30
0.0
  0
VERTEX
  5
627
  8
LAYER_05
 10
862.1340136038536
 20
3330.251816617751
 30
0.0
  0
VERTEX
  5
628
  8
LAYER_05
 10
916.9516418481799
 20
3384.668093495752
 30
0.0
  0
SEQEND
  5
629
  8
LAYER_05
  0
POLYLINE
  5
62A
  8
LAYER_05
 66
     1
 10
0.0
 20
0.0
 30
0.0
  0
VERTEX
  5
62B
  8
LAYER_05
 10
906.9288032039651
 20
3483.554130094578
 30
0.0
  0
VERTEX
  5
62C
  8
LAYER_05
 10
961.3450800819664
 20
3428.736501850252
 30
0.0
  0
VERTEX
  5
62D
  8
LAYER_05
 10
1016.162708326292
 20
3483.152778728253
 30
0.0
  0
VERTEX
  5
62E
  8
LAYER_05
 10
1032.913132899703
 20
3466.278810131349
 30
0.0
  0
VERTEX
  5
62F
  8
LAYER_05
 10
961.2215360584723
 20
3395.112108679938
 30
0.0
  0
VERTEX
  5
630
  8
LAYER_05
 10
890.0548346070611
 20
3466.803705521168
 30
0.0
  0
VERTEX
  5
631
  8
LAYER_05
 10
961.7464314482913
 20
3537.970406972579
 30
0.0
  0
VERTEX
  5
632
  8
LAYER_05
 10
1005.595149118612
 20
3493.798279768231
 30
0.0
  0
VERTEX
  5
633
  8
LAYER_05
 10
961.4230219142646
 20
3449.94956209791
 30
0.0
  0
VERTEX
  5
634
  8
LAYER_05
 10
917.5743042439433
 20
3494.121689302259
 30
0.0
  0
SEQEND
  5
635
  8
LAYER_05
  0
POLYLINE
  5
636
  8
LAYER_05
 66
     1
 10
0.0
 20
0.0
 30
0.0
 70
     1
  0
VERTEX
  5
637
  8
LAYER_05
 10
916.7699811660341
 20
3275.212877343986
 30
0.0
  0
VERTEX
  5
638
  8
LAYER_05
 10
960.9421083703821
 20
3319.061595014307
 30
0.0
  0
VERTEX
  5
639
  8
LAYER_05
 10
1004.790826040703
 20
3274.889467809959
 30
0.0
  0
VERTEX
  5
63A
  8
LAYER_05
 10
960.618698836355
 20
3231.040750139638
 30
0.0
  0
SEQEND
  5
63B
  8
LAYER_05
  0
POLYLINE
  5
63C
  8
LAYER_05
 66
     1
 10
0.0
 20
0.0
 30
0.0
 70
     1
  0
VERTEX
  5
63D
  8
LAYER_05
 10
906.2024219583543
 20
3285.858378383964
 30
0.0
  0
VERTEX
  5
63E
  8
LAYER_05
 10
961.0200502026805
 20
3340.274655261965
 30
0.0
  0
VERTEX
  5
63F
  8
LAYER_05
 10
1015.436327080681
 20
3285.457027017639
 30
0.0
  0
VERTEX
  5
640
  8
LAYER_05
 10
1032.310295677585
 20
3302.207451591049
 30
0.0
  0
VERTEX
  5
641
  8
LAYER_05
 10
961.1435942261742
 20
3373.899048432279
 30
0.0
  0
VERTEX
  5
642
  8
LAYER_05
 10
889.4519973849438
 20
3302.732346980868
 30
0.0
  0
SEQEND
  5
643
  8
LAYER_05
  0
POLYLINE
  5
644
  8
LAYER_05
 66
     1
 10
0.0
 20
0.0
 30
0.0
 70
     1
  0
VERTEX
  5
645
  8
LAYER_05
 10
861.9325277480611
 20
3275.414363199778
 30
0.0
  0
VERTEX
  5
646
  8
LAYER_05
 10
878.6829523214717
 20
3258.540394602874
 30
0.0
  0
VERTEX
  5
647
  8
LAYER_05
 10
895.5569209183757
 20
3275.290819176284
 30
0.0
  0
VERTEX
  5
648
  8
LAYER_05
 10
878.8064963449656
 20
3292.164787773188
 30
0.0
  0
SEQEND
  5
649
  8
LAYER_05
  0
POLYLINE
  5
64A
  8
LAYER_05
 66
     1
 10
0.0
 20
0.0
 30
0.0
 70
     1
  0
VERTEX
  5
64B
  8
LAYER_05
 10
824.5718801491103
 20
3456.43763216928
 30
0.0
  0
VERTEX
  5
64C
  8
LAYER_05
 10
752.8802833078801
 20
3385.270930717869
 30
0.0
  0
VERTEX
  5
64D
  8
LAYER_05
 10
824.0469847592915
 20
3313.579333876638
 30
0.0
  0
VERTEX
  5
64E
  8
LAYER_05
 10
840.9209533561955
 20
3330.329758450049
 30
0.0
  0
VERTEX
  5
64F
  8
LAYER_05
 10
786.5046764781941
 20
3385.147386694375
 30
0.0
  0
VERTEX
  5
650
  8
LAYER_05
 10
841.3223047225208
 20
3439.563663572376
 30
0.0
  0
SEQEND
  5
651
  8
LAYER_05
  0
POLYLINE
  5
652
  8
LAYER_05
 66
     1
 10
0.0
 20
0.0
 30
0.0
 70
     1
  0
VERTEX
  5
653
  8
LAYER_05
 10
868.2389371372853
 20
3302.810288813167
 30
0.0
  0
VERTEX
  5
654
  8
LAYER_05
 10
851.4885125638752
 20
3319.684257410071
 30
0.0
  0
VERTEX
  5
655
  8
LAYER_05
 10
834.6145439669713
 20
3302.93383283666
 30
0.0
  0
VERTEX
  5
656
  8
LAYER_05
 10
851.3649685403816
 20
3286.059864239756
 30
0.0
  0
SEQEND
  5
657
  8
LAYER_05
  0
POLYLINE
  5
658
  8
LAYER_05
 66
     1
 10
0.0
 20
0.0
 30
0.0
 70
     1
  0
VERTEX
  5
659
  8
LAYER_05
 10
1015.358385248383
 20
3264.24396676998
 30
0.0
  0
VERTEX
  5
65A
  8
LAYER_05
 10
960.5407570040566
 20
3209.82768989198
 30
0.0
  0
VERTEX
  5
65B
  8
LAYER_05
 10
906.1244801260557
 20
3264.645318136306
 30
0.0
  0
VERTEX
  5
65C
  8
LAYER_05
 10
889.2505115291517
 20
3247.894893562896
 30
0.0
  0
VERTEX
  5
65D
  8
LAYER_05
 10
960.4172129805631
 20
3176.203296721665
 30
0.0
  0
VERTEX
  5
65E
  8
LAYER_05
 10
1032.108809821794
 20
3247.369998173077
 30
0.0
  0
SEQEND
  5
65F
  8
LAYER_05
  0
POLYLINE
  5
660
  8
LAYER_05
 66
     1
 10
0.0
 20
0.0
 30
0.0
 70
     1
  0
VERTEX
  5
661
  8
LAYER_05
 10
1042.877854885265
 20
3291.561950551071
 30
0.0
  0
VERTEX
  5
662
  8
LAYER_05
 10
1026.003886288362
 20
3274.811525977661
 30
0.0
  0
VERTEX
  5
663
  8
LAYER_05
 10
1042.754310861772
 20
3257.937557380757
 30
0.0
  0
VERTEX
  5
664
  8
LAYER_05
 10
1059.628279458676
 20
3274.687981954167
 30
0.0
  0
SEQEND
  5
665
  8
LAYER_05
  0
POLYLINE
  5
666
  8
LAYER_05
 66
     1
 10
0.0
 20
0.0
 30
0.0
 70
     1
  0
VERTEX
  5
667
  8
LAYER_05
 10
1053.523355925244
 20
3302.129509758751
 30
0.0
  0
VERTEX
  5
668
  8
LAYER_05
 10
1070.273780498654
 20
3285.255541161846
 30
0.0
  0
VERTEX
  5
669
  8
LAYER_05
 10
1087.147749095558
 20
3302.005965735257
 30
0.0
  0
VERTEX
  5
66A
  8
LAYER_05
 10
1070.397324522148
 20
3318.879934332161
 30
0.0
  0
SEQEND
  5
66B
  8
LAYER_05
  0
POLYLINE
  5
66C
  8
LAYER_05
 66
     1
 10
0.0
 20
0.0
 30
0.0
 70
     1
  0
VERTEX
  5
66D
  8
LAYER_05
 10
1070.475266354446
 20
3340.092994579819
 30
0.0
  0
VERTEX
  5
66E
  8
LAYER_05
 10
1026.626548684125
 20
3384.265121784167
 30
0.0
  0
VERTEX
  5
66F
  8
LAYER_05
 10
1070.798675888473
 20
3428.113839454488
 30
0.0
  0
VERTEX
  5
670
  8
LAYER_05
 10
1114.647393558794
 20
3383.94171225014
 30
0.0
  0
SEQEND
  5
671
  8
LAYER_05
  0
POLYLINE
  5
672
  8
LAYER_05
 66
     1
 10
0.0
 20
0.0
 30
0.0
 70
     1
  0
VERTEX
  5
673
  8
LAYER_05
 10
1059.829765314468
 20
3329.52543537214
 30
0.0
  0
VERTEX
  5
674
  8
LAYER_05
 10
1005.413488436467
 20
3384.343063616466
 30
0.0
  0
VERTEX
  5
675
  8
LAYER_05
 10
1060.231116680793
 20
3438.759340494467
 30
0.0
  0
VERTEX
  5
676
  8
LAYER_05
 10
1043.480692107383
 20
3455.63330909137
 30
0.0
  0
VERTEX
  5
677
  8
LAYER_05
 10
971.7890952661523
 20
3384.466607639959
 30
0.0
  0
VERTEX
  5
678
  8
LAYER_05
 10
1042.955796717564
 20
3312.775010798729
 30
0.0
  0
SEQEND
  5
679
  8
LAYER_05
  0
POLYLINE
  5
67A
  8
LAYER_05
 66
     1
 10
0.0
 20
0.0
 30
0.0
  0
VERTEX
  5
67B
  8
LAYER_05
 10
1043.682177963175
 20
3510.470762509343
 30
0.0
  0
VERTEX
  5
67C
  8
LAYER_05
 10
1026.808209366271
 20
3493.720337935933
 30
0.0
  0
VERTEX
  5
67D
  8
LAYER_05
 10
1043.558633939681
 20
3476.846369339029
 30
0.0
  0
VERTEX
  5
67E
  8
LAYER_05
 10
1060.432602536585
 20
3493.596793912439
 30
0.0
  0
VERTEX
  5
67F
  8
LAYER_05
 10
961.9479173040836
 20
3592.807860390552
 30
0.0
  0
VERTEX
  5
680
  8
LAYER_05
 10
890.2563204628534
 20
3521.64115893914
 30
0.0
  0
VERTEX
  5
681
  8
LAYER_05
 10
907.0067450362637
 20
3504.767190342237
 30
0.0
  0
VERTEX
  5
682
  8
LAYER_05
 10
961.8243732805897
 20
3559.183467220237
 30
0.0
  0
VERTEX
  5
683
  8
LAYER_05
 10
1016.240650158591
 20
3504.365838975911
 30
0.0
  0
VERTEX
  5
684
  8
LAYER_05
 10
1033.114618755495
 20
3521.116263549322
 30
0.0
  0
SEQEND
  5
685
  8
LAYER_05
  0
POLYLINE
  5
686
  8
LAYER_05
 66
     1
 10
0.0
 20
0.0
 30
0.0
 70
     1
  0
VERTEX
  5
687
  8
LAYER_05
 10
1097.793250135536
 20
3312.573524942937
 30
0.0
  0
VERTEX
  5
688
  8
LAYER_05
 10
1081.042825562126
 20
3329.447493539841
 30
0.0
  0
VERTEX
  5
689
  8
LAYER_05
 10
1135.860453806452
 20
3383.863770417842
 30
0.0
  0
VERTEX
  5
68A
  8
LAYER_05
 10
1081.444176928451
 20
3438.681398662168
 30
0.0
  0
VERTEX
  5
68B
  8
LAYER_05
 10
1098.318145525355
 20
3455.431823235579
 30
0.0
  0
VERTEX
  5
68C
  8
LAYER_05
 10
1169.484846976766
 20
3383.740226394348
 30
0.0
  0
SEQEND
  5
68D
  8
LAYER_05
  0
POLYLINE
  5
68E
  8
LAYER_05
 66
     1
 10
0.0
 20
0.0
 30
0.0
 70
     1
  0
VERTEX
  5
68F
  8
LAYER_05
 10
1054.126193147361
 20
3466.20086829905
 30
0.0
  0
VERTEX
  5
690
  8
LAYER_05
 10
1070.876617720771
 20
3449.326899702146
 30
0.0
  0
VERTEX
  5
691
  8
LAYER_05
 10
1087.750586317675
 20
3466.077324275557
 30
0.0
  0
VERTEX
  5
692
  8
LAYER_05
 10
1071.000161744265
 20
3482.951292872461
 30
0.0
  0
SEQEND
  5
693
  8
LAYER_05
  0
POLYLINE
  5
694
  8
LAYER_05
 66
     1
 10
0.0
 20
0.0
 30
0.0
 70
     1
  0
VERTEX
  5
695
  8
LAYER_05
 10
868.8417743594027
 20
3466.881647353467
 30
0.0
  0
VERTEX
  5
696
  8
LAYER_05
 10
852.0913497859929
 20
3483.755615950371
 30
0.0
  0
VERTEX
  5
697
  8
LAYER_05
 10
835.2173811890887
 20
3467.00519137696
 30
0.0
  0
VERTEX
  5
698
  8
LAYER_05
 10
851.9678057624988
 20
3450.131222780056
 30
0.0
  0
SEQEND
  5
699
  8
LAYER_05
  0
POLYLINE
  5
69A
  8
LAYER_05
 66
     1
 10
0.0
 20
0.0
 30
0.0
 70
     1
  0
VERTEX
  5
69B
  8
LAYER_05
 10
879.4872753993814
 20
3477.449206561146
 30
0.0
  0
VERTEX
  5
69C
  8
LAYER_05
 10
896.3612439962853
 20
3494.199631134557
 30
0.0
  0
VERTEX
  5
69D
  8
LAYER_05
 10
879.6108194228752
 20
3511.07359973146
 30
0.0
  0
VERTEX
  5
69E
  8
LAYER_05
 10
862.736850825971
 20
3494.32317515805
 30
0.0
  0
SEQEND
  5
69F
  8
LAYER_05
  0
POLYLINE
  5
6A0
  8
LAYER_05
 66
     1
 10
0.0
 20
0.0
 30
0.0
 70
     1
  0
VERTEX
  5
6A1
  8
LAYER_05
 10
478.9523572494886
 20
3276.821523499805
 30
0.0
  0
VERTEX
  5
6A2
  8
LAYER_05
 10
522.8010749198102
 20
3232.649396295457
 30
0.0
  0
VERTEX
  5
6A3
  8
LAYER_05
 10
566.9732021241584
 20
3276.498113965778
 30
0.0
  0
VERTEX
  5
6A4
  8
LAYER_05
 10
523.1244844538369
 20
3320.670241170126
 30
0.0
  0
SEQEND
  5
6A5
  8
LAYER_05
  0
POLYLINE
  5
6A6
  8
LAYER_05
 66
     1
 10
0.0
 20
0.0
 30
0.0
 70
     1
  0
VERTEX
  5
6A7
  8
LAYER_05
 10
577.6187031641362
 20
3287.065673173458
 30
0.0
  0
VERTEX
  5
6A8
  8
LAYER_05
 10
594.4926717610404
 20
3303.816097746868
 30
0.0
  0
VERTEX
  5
6A9
  8
LAYER_05
 10
523.3259703096294
 20
3375.507694588098
 30
0.0
  0
VERTEX
  5
6AA
  8
LAYER_05
 10
451.634373468399
 20
3304.340993136687
 30
0.0
  0
VERTEX
  5
6AB
  8
LAYER_05
 10
468.3847980418088
 20
3287.467024539783
 30
0.0
  0
VERTEX
  5
6AC
  8
LAYER_05
 10
523.2024262861353
 20
3341.883301417784
 30
0.0
  0
SEQEND
  5
6AD
  8
LAYER_05
  0
POLYLINE
  5
6AE
  8
LAYER_05
 66
     1
 10
0.0
 20
0.0
 30
0.0
  0
VERTEX
  5
6AF
  8
LAYER_05
 10
622.0121413979232
 20
3331.134081527958
 30
0.0
  0
VERTEX
  5
6B0
  8
LAYER_05
 10
567.5958645199216
 20
3385.951709772285
 30
0.0
  0
VERTEX
  5
6B1
  8
LAYER_05
 10
622.4134927642483
 20
3440.367986650286
 30
0.0
  0
VERTEX
  5
6B2
  8
LAYER_05
 10
605.6630681908377
 20
3457.24195524719
 30
0.0
  0
VERTEX
  5
6B3
  8
LAYER_05
 10
533.9714713496078
 20
3386.075253795778
 30
0.0
  0
VERTEX
  5
6B4
  8
LAYER_05
 10
605.138172801019
 20
3314.383656954548
 30
0.0
  0
VERTEX
  5
6B5
  8
LAYER_05
 10
676.8297696422492
 20
3385.550358405959
 30
0.0
  0
VERTEX
  5
6B6
  8
LAYER_05
 10
632.9810519719283
 20
3429.722485610307
 30
0.0
  0
VERTEX
  5
6B7
  8
LAYER_05
 10
588.80892476758
 20
3385.873767939986
 30
0.0
  0
VERTEX
  5
6B8
  8
LAYER_05
 10
632.6576424379016
 20
3341.701640735638
 30
0.0
  0
SEQEND
  5
6B9
  8
LAYER_05
  0
POLYLINE
  5
6BA
  8
LAYER_05
 66
     1
 10
0.0
 20
0.0
 30
0.0
 70
     1
  0
VERTEX
  5
6BB
  8
LAYER_05
 10
413.7488304796286
 20
3342.505963813548
 30
0.0
  0
VERTEX
  5
6BC
  8
LAYER_05
 10
457.9209576839769
 20
3386.354681483869
 30
0.0
  0
VERTEX
  5
6BD
  8
LAYER_05
 10
414.0722400136558
 20
3430.526808688217
 30
0.0
  0
VERTEX
  5
6BE
  8
LAYER_05
 10
369.9001128093075
 20
3386.678091017896
 30
0.0
  0
SEQEND
  5
6BF
  8
LAYER_05
  0
POLYLINE
  5
6C0
  8
LAYER_05
 66
     1
 10
0.0
 20
0.0
 30
0.0
 70
     1
  0
VERTEX
  5
6C1
  8
LAYER_05
 10
424.3163896873091
 20
3331.86046277357
 30
0.0
  0
VERTEX
  5
6C2
  8
LAYER_05
 10
479.1340179316351
 20
3386.276739651571
 30
0.0
  0
VERTEX
  5
6C3
  8
LAYER_05
 10
424.717741053634
 20
3441.094367895897
 30
0.0
  0
VERTEX
  5
6C4
  8
LAYER_05
 10
441.5917096505382
 20
3457.844792469307
 30
0.0
  0
VERTEX
  5
6C5
  8
LAYER_05
 10
512.7584111019492
 20
3386.153195628076
 30
0.0
  0
VERTEX
  5
6C6
  8
LAYER_05
 10
441.0668142607187
 20
3314.986494176665
 30
0.0
  0
SEQEND
  5
6C7
  8
LAYER_05
  0
POLYLINE
  5
6C8
  8
LAYER_05
 66
     1
 10
0.0
 20
0.0
 30
0.0
 70
     1
  0
VERTEX
  5
6C9
  8
LAYER_05
 10
413.547344623837
 20
3287.668510395575
 30
0.0
  0
VERTEX
  5
6CA
  8
LAYER_05
 10
396.7969200504265
 20
3304.54247899248
 30
0.0
  0
VERTEX
  5
6CB
  8
LAYER_05
 10
413.6708886473305
 20
3321.292903565889
 30
0.0
  0
VERTEX
  5
6CC
  8
LAYER_05
 10
430.4213132207406
 20
3304.418934968985
 30
0.0
  0
SEQEND
  5
6CD
  8
LAYER_05
  0
POLYLINE
  5
6CE
  8
LAYER_05
 66
     1
 10
0.0
 20
0.0
 30
0.0
 70
     1
  0
VERTEX
  5
6CF
  8
LAYER_05
 10
594.2911859052481
 20
3248.978644328895
 30
0.0
  0
VERTEX
  5
6D0
  8
LAYER_05
 10
522.5995890640179
 20
3177.811942877484
 30
0.0
  0
VERTEX
  5
6D1
  8
LAYER_05
 10
451.4328876126065
 20
3249.503539718715
 30
0.0
  0
VERTEX
  5
6D2
  8
LAYER_05
 10
468.3068562095107
 20
3266.253964292125
 30
0.0
  0
VERTEX
  5
6D3
  8
LAYER_05
 10
522.723133087512
 20
3211.436336047799
 30
0.0
  0
VERTEX
  5
6D4
  8
LAYER_05
 10
577.540761331838
 20
3265.852612925799
 30
0.0
  0
SEQEND
  5
6D5
  8
LAYER_05
  0
POLYLINE
  5
6D6
  8
LAYER_05
 66
     1
 10
0.0
 20
0.0
 30
0.0
 70
     1
  0
VERTEX
  5
6D7
  8
LAYER_05
 10
440.9888724284208
 20
3293.773433929007
 30
0.0
  0
VERTEX
  5
6D8
  8
LAYER_05
 10
457.7392970018307
 20
3276.899465332103
 30
0.0
  0
VERTEX
  5
6D9
  8
LAYER_05
 10
440.8653284049265
 20
3260.149040758693
 30
0.0
  0
VERTEX
  5
6DA
  8
LAYER_05
 10
424.1149038315166
 20
3277.023009355597
 30
0.0
  0
SEQEND
  5
6DB
  8
LAYER_05
  0
POLYLINE
  5
6DC
  8
LAYER_05
 66
     1
 10
0.0
 20
0.0
 30
0.0
 70
     1
  0
VERTEX
  5
6DD
  8
LAYER_05
 10
403.5046808059756
 20
3441.172309728195
 30
0.0
  0
VERTEX
  5
6DE
  8
LAYER_05
 10
348.6870525616494
 20
3386.756032850194
 30
0.0
  0
VERTEX
  5
6DF
  8
LAYER_05
 10
403.1033294396505
 20
3331.938404605868
 30
0.0
  0
VERTEX
  5
6E0
  8
LAYER_05
 10
386.2293608427465
 20
3315.187980032458
 30
0.0
  0
VERTEX
  5
6E1
  8
LAYER_05
 10
315.062659391335
 20
3386.879576873688
 30
0.0
  0
VERTEX
  5
6E2
  8
LAYER_05
 10
386.7542562325655
 20
3458.0462783251
 30
0.0
  0
SEQEND
  5
6E3
  8
LAYER_05
  0
POLYLINE
  5
6E4
  8
LAYER_05
 66
     1
 10
0.0
 20
0.0
 30
0.0
 70
     1
  0
VERTEX
  5
6E5
  8
LAYER_05
 10
431.0241504428579
 20
3468.490293509285
 30
0.0
  0
VERTEX
  5
6E6
  8
LAYER_05
 10
414.1501818459542
 20
3451.739868935876
 30
0.0
  0
VERTEX
  5
6E7
  8
LAYER_05
 10
397.3997572725436
 20
3468.61383753278
 30
0.0
  0
VERTEX
  5
6E8
  8
LAYER_05
 10
414.2737258694476
 20
3485.364262106189
 30
0.0
  0
SEQEND
  5
6E9
  8
LAYER_05
  0
POLYLINE
  5
6EA
  8
LAYER_05
 66
     1
 10
0.0
 20
0.0
 30
0.0
 70
     1
  0
VERTEX
  5
6EB
  8
LAYER_05
 10
441.6696514828366
 20
3479.057852716965
 30
0.0
  0
VERTEX
  5
6EC
  8
LAYER_05
 10
424.919226909426
 20
3495.931821313869
 30
0.0
  0
VERTEX
  5
6ED
  8
LAYER_05
 10
441.79319550633
 20
3512.68224588728
 30
0.0
  0
VERTEX
  5
6EE
  8
LAYER_05
 10
458.5436200797403
 20
3495.808277290376
 30
0.0
  0
SEQEND
  5
6EF
  8
LAYER_05
  0
POLYLINE
  5
6F0
  8
LAYER_05
 66
     1
 10
0.0
 20
0.0
 30
0.0
 70
     1
  0
VERTEX
  5
6F1
  8
LAYER_05
 10
479.7566803273987
 20
3495.730335458077
 30
0.0
  0
VERTEX
  5
6F2
  8
LAYER_05
 10
523.60539799772
 20
3451.558208253729
 30
0.0
  0
VERTEX
  5
6F3
  8
LAYER_05
 10
567.7775252020679
 20
3495.40692592405
 30
0.0
  0
VERTEX
  5
6F4
  8
LAYER_05
 10
523.9288075317465
 20
3539.579053128399
 30
0.0
  0
SEQEND
  5
6F5
  8
LAYER_05
  0
POLYLINE
  5
6F6
  8
LAYER_05
 66
     1
 10
0.0
 20
0.0
 30
0.0
 70
     1
  0
VERTEX
  5
6F7
  8
LAYER_05
 10
469.111179287421
 20
3485.162776250397
 30
0.0
  0
VERTEX
  5
6F8
  8
LAYER_05
 10
523.5274561654217
 20
3430.345148006071
 30
0.0
  0
VERTEX
  5
6F9
  8
LAYER_05
 10
578.3450844097479
 20
3484.761424884072
 30
0.0
  0
VERTEX
  5
6FA
  8
LAYER_05
 10
595.0955089831577
 20
3467.887456287168
 30
0.0
  0
VERTEX
  5
6FB
  8
LAYER_05
 10
523.4039121419275
 20
3396.720754835757
 30
0.0
  0
VERTEX
  5
6FC
  8
LAYER_05
 10
452.2372106905166
 20
3468.412351676987
 30
0.0
  0
SEQEND
  5
6FD
  8
LAYER_05
  0
POLYLINE
  5
6FE
  8
LAYER_05
 66
     1
 10
0.0
 20
0.0
 30
0.0
  0
VERTEX
  5
6FF
  8
LAYER_05
 10
649.9329624011305
 20
3467.685970431376
 30
0.0
  0
VERTEX
  5
700
  8
LAYER_05
 10
633.0589938042262
 20
3450.935545857965
 30
0.0
  0
VERTEX
  5
701
  8
LAYER_05
 10
616.3085692308161
 20
3467.80951445487
 30
0.0
  0
VERTEX
  5
702
  8
LAYER_05
 10
633.1825378277204
 20
3484.55993902828
 30
0.0
  0
VERTEX
  5
703
  8
LAYER_05
 10
731.6672230602219
 20
3385.348872550167
 30
0.0
  0
VERTEX
  5
704
  8
LAYER_05
 10
659.9756262189915
 20
3314.182171098756
 30
0.0
  0
VERTEX
  5
705
  8
LAYER_05
 10
643.2252016455811
 20
3331.05613969566
 30
0.0
  0
VERTEX
  5
706
  8
LAYER_05
 10
698.0428298899076
 20
3385.472416573661
 30
0.0
  0
VERTEX
  5
707
  8
LAYER_05
 10
643.6265530119063
 20
3440.290044817988
 30
0.0
  0
VERTEX
  5
708
  8
LAYER_05
 10
660.5005216088105
 20
3457.040469391397
 30
0.0
  0
SEQEND
  5
709
  8
LAYER_05
  0
POLYLINE
  5
70A
  8
LAYER_05
 66
     1
 10
0.0
 20
0.0
 30
0.0
 70
     1
  0
VERTEX
  5
70B
  8
LAYER_05
 10
452.4386965463084
 20
3523.249805094959
 30
0.0
  0
VERTEX
  5
70C
  8
LAYER_05
 10
469.1891211197187
 20
3506.375836498055
 30
0.0
  0
VERTEX
  5
70D
  8
LAYER_05
 10
524.0067493640449
 20
3560.792113376056
 30
0.0
  0
VERTEX
  5
70E
  8
LAYER_05
 10
578.4230262420463
 20
3505.97448513173
 30
0.0
  0
VERTEX
  5
70F
  8
LAYER_05
 10
595.2969948389505
 20
3522.72490970514
 30
0.0
  0
VERTEX
  5
710
  8
LAYER_05
 10
524.1302933875393
 20
3594.416506546371
 30
0.0
  0
SEQEND
  5
711
  8
LAYER_05
  0
POLYLINE
  5
712
  8
LAYER_05
 66
     1
 10
0.0
 20
0.0
 30
0.0
 70
     1
  0
VERTEX
  5
713
  8
LAYER_05
 10
605.7410100231361
 20
3478.455015494848
 30
0.0
  0
VERTEX
  5
714
  8
LAYER_05
 10
588.9905854497263
 20
3495.328984091752
 30
0.0
  0
VERTEX
  5
715
  8
LAYER_05
 10
605.8645540466305
 20
3512.079408665162
 30
0.0
  0
VERTEX
  5
716
  8
LAYER_05
 10
622.6149786200403
 20
3495.205440068258
 30
0.0
  0
SEQEND
  5
717
  8
LAYER_05
  0
POLYLINE
  5
718
  8
LAYER_05
 66
     1
 10
0.0
 20
0.0
 30
0.0
 70
     1
  0
VERTEX
  5
719
  8
LAYER_05
 10
605.0602309687206
 20
3293.17059670689
 30
0.0
  0
VERTEX
  5
71A
  8
LAYER_05
 10
621.8106555421307
 20
3276.296628109986
 30
0.0
  0
VERTEX
  5
71B
  8
LAYER_05
 10
604.9366869452267
 20
3259.546203536576
 30
0.0
  0
VERTEX
  5
71C
  8
LAYER_05
 10
588.1862623718166
 20
3276.42017213348
 30
0.0
  0
SEQEND
  5
71D
  8
LAYER_05
  0
POLYLINE
  5
71E
  8
LAYER_05
 66
     1
 10
0.0
 20
0.0
 30
0.0
 70
     1
  0
VERTEX
  5
71F
  8
LAYER_05
 10
615.7057320086988
 20
3303.73815591457
 30
0.0
  0
VERTEX
  5
720
  8
LAYER_05
 10
632.579700605603
 20
3320.48858048798
 30
0.0
  0
VERTEX
  5
721
  8
LAYER_05
 10
649.3301251790131
 20
3303.614611891076
 30
0.0
  0
VERTEX
  5
722
  8
LAYER_05
 10
632.4561565821091
 20
3286.864187317666
 30
0.0
  0
SEQEND
  5
723
  8
LAYER_05
  0
POLYLINE
  5
724
  8
LAYER_05
 66
     1
 10
0.0
 20
0.0
 30
0.0
 70
     1
  0
VERTEX
  5
725
  8
LAYER_05
 10
413.2679169357457
 20
3211.617996729945
 30
0.0
  0
VERTEX
  5
726
  8
LAYER_05
 10
457.1166346060672
 20
3167.445869525597
 30
0.0
  0
VERTEX
  5
727
  8
LAYER_05
 10
412.9445074017194
 20
3123.597151855275
 30
0.0
  0
VERTEX
  5
728
  8
LAYER_05
 10
369.0957897313979
 20
3167.769279059623
 30
0.0
  0
SEQEND
  5
729
  8
LAYER_05
  0
POLYLINE
  5
72A
  8
LAYER_05
 66
     1
 10
0.0
 20
0.0
 30
0.0
 70
     1
  0
VERTEX
  5
72B
  8
LAYER_05
 10
402.2990063617412
 20
3113.029592647596
 30
0.0
  0
VERTEX
  5
72C
  8
LAYER_05
 10
385.4250377648366
 20
3096.279168074185
 30
0.0
  0
VERTEX
  5
72D
  8
LAYER_05
 10
314.2583363134256
 20
3167.970764915415
 30
0.0
  0
VERTEX
  5
72E
  8
LAYER_05
 10
385.949933154656
 20
3239.137466366827
 30
0.0
  0
VERTEX
  5
72F
  8
LAYER_05
 10
402.7003577280659
 20
3222.263497769923
 30
0.0
  0
VERTEX
  5
730
  8
LAYER_05
 10
347.8827294837396
 20
3167.847220891922
 30
0.0
  0
SEQEND
  5
731
  8
LAYER_05
  0
POLYLINE
  5
732
  8
LAYER_05
 66
     1
 10
0.0
 20
0.0
 30
0.0
  0
VERTEX
  5
733
  8
LAYER_05
 10
357.9055681279546
 20
3068.961184293095
 30
0.0
  0
VERTEX
  5
734
  8
LAYER_05
 10
303.489291249953
 20
3123.778812537421
 30
0.0
  0
VERTEX
  5
735
  8
LAYER_05
 10
248.6716630056272
 20
3069.36253565942
 30
0.0
  0
VERTEX
  5
736
  8
LAYER_05
 10
231.9212384322167
 20
3086.236504256325
 30
0.0
  0
VERTEX
  5
737
  8
LAYER_05
 10
303.6128352734473
 20
3157.403205707735
 30
0.0
  0
VERTEX
  5
738
  8
LAYER_05
 10
374.7795367248585
 20
3085.711608866505
 30
0.0
  0
VERTEX
  5
739
  8
LAYER_05
 10
303.0879398836281
 20
3014.544907415094
 30
0.0
  0
VERTEX
  5
73A
  8
LAYER_05
 10
259.2392222133072
 20
3058.717034619442
 30
0.0
  0
VERTEX
  5
73B
  8
LAYER_05
 10
303.4113494176547
 20
3102.565752289763
 30
0.0
  0
VERTEX
  5
73C
  8
LAYER_05
 10
347.2600670879763
 20
3058.393625085414
 30
0.0
  0
SEQEND
  5
73D
  8
LAYER_05
  0
POLYLINE
  5
73E
  8
LAYER_05
 66
     1
 10
0.0
 20
0.0
 30
0.0
 70
     1
  0
VERTEX
  5
73F
  8
LAYER_05
 10
348.0643901658857
 20
3277.302437043687
 30
0.0
  0
VERTEX
  5
740
  8
LAYER_05
 10
303.8922629615374
 20
3233.453719373366
 30
0.0
  0
VERTEX
  5
741
  8
LAYER_05
 10
260.0435452912163
 20
3277.625846577714
 30
0.0
  0
VERTEX
  5
742
  8
LAYER_05
 10
304.2156724955646
 20
3321.474564248036
 30
0.0
  0
SEQEND
  5
743
  8
LAYER_05
  0
POLYLINE
  5
744
  8
LAYER_05
 66
     1
 10
0.0
 20
0.0
 30
0.0
 70
     1
  0
VERTEX
  5
745
  8
LAYER_05
 10
358.6319493735652
 20
3266.656936003709
 30
0.0
  0
VERTEX
  5
746
  8
LAYER_05
 10
303.8143211292391
 20
3212.240659125708
 30
0.0
  0
VERTEX
  5
747
  8
LAYER_05
 10
249.398044251238
 20
3267.058287370035
 30
0.0
  0
VERTEX
  5
748
  8
LAYER_05
 10
232.5240756543344
 20
3250.307862796624
 30
0.0
  0
VERTEX
  5
749
  8
LAYER_05
 10
303.6907771057454
 20
3178.616265955394
 30
0.0
  0
VERTEX
  5
74A
  8
LAYER_05
 10
375.3823739469758
 20
3249.782967406805
 30
0.0
  0
SEQEND
  5
74B
  8
LAYER_05
  0
POLYLINE
  5
74C
  8
LAYER_05
 66
     1
 10
0.0
 20
0.0
 30
0.0
 70
     1
  0
VERTEX
  5
74D
  8
LAYER_05
 10
402.9018435838584
 20
3277.100951187895
 30
0.0
  0
VERTEX
  5
74E
  8
LAYER_05
 10
386.1514190104479
 20
3293.974919784799
 30
0.0
  0
VERTEX
  5
74F
  8
LAYER_05
 10
369.2774504135439
 20
3277.224495211389
 30
0.0
  0
VERTEX
  5
750
  8
LAYER_05
 10
386.027874986954
 20
3260.350526614485
 30
0.0
  0
SEQEND
  5
751
  8
LAYER_05
  0
POLYLINE
  5
752
  8
LAYER_05
 66
     1
 10
0.0
 20
0.0
 30
0.0
 70
     1
  0
VERTEX
  5
753
  8
LAYER_05
 10
440.2624911828094
 20
3096.077682218393
 30
0.0
  0
VERTEX
  5
754
  8
LAYER_05
 10
511.9540880240397
 20
3167.244383669804
 30
0.0
  0
VERTEX
  5
755
  8
LAYER_05
 10
440.7873865726283
 20
3238.935980511035
 30
0.0
  0
VERTEX
  5
756
  8
LAYER_05
 10
423.9134179757241
 20
3222.185555937624
 30
0.0
  0
VERTEX
  5
757
  8
LAYER_05
 10
478.3296948537254
 20
3167.367927693298
 30
0.0
  0
VERTEX
  5
758
  8
LAYER_05
 10
423.512066609399
 20
3112.951650815297
 30
0.0
  0
SEQEND
  5
759
  8
LAYER_05
  0
POLYLINE
  5
75A
  8
LAYER_05
 66
     1
 10
0.0
 20
0.0
 30
0.0
 70
     1
  0
VERTEX
  5
75B
  8
LAYER_05
 10
396.5954341946342
 20
3249.705025574507
 30
0.0
  0
VERTEX
  5
75C
  8
LAYER_05
 10
413.3458587680441
 20
3232.831056977603
 30
0.0
  0
VERTEX
  5
75D
  8
LAYER_05
 10
430.2198273649483
 20
3249.581481551013
 30
0.0
  0
VERTEX
  5
75E
  8
LAYER_05
 10
413.469402791538
 20
3266.455450147917
 30
0.0
  0
SEQEND
  5
75F
  8
LAYER_05
  0
POLYLINE
  5
760
  8
LAYER_05
 66
     1
 10
0.0
 20
0.0
 30
0.0
 70
     1
  0
VERTEX
  5
761
  8
LAYER_05
 10
249.4759860835366
 20
3288.271347617693
 30
0.0
  0
VERTEX
  5
762
  8
LAYER_05
 10
304.2936143278628
 20
3342.687624495693
 30
0.0
  0
VERTEX
  5
763
  8
LAYER_05
 10
358.7098912058639
 20
3287.869996251367
 30
0.0
  0
VERTEX
  5
764
  8
LAYER_05
 10
375.5838598027678
 20
3304.620420824778
 30
0.0
  0
VERTEX
  5
765
  8
LAYER_05
 10
304.4171583513564
 20
3376.312017666008
 30
0.0
  0
VERTEX
  5
766
  8
LAYER_05
 10
232.725561510126
 20
3305.145316214597
 30
0.0
  0
SEQEND
  5
767
  8
LAYER_05
  0
POLYLINE
  5
768
  8
LAYER_05
 66
     1
 10
0.0
 20
0.0
 30
0.0
 70
     1
  0
VERTEX
  5
769
  8
LAYER_05
 10
221.9565164466542
 20
3260.953363836602
 30
0.0
  0
VERTEX
  5
76A
  8
LAYER_05
 10
238.8304850435579
 20
3277.703788410012
 30
0.0
  0
VERTEX
  5
76B
  8
LAYER_05
 10
222.0800604701477
 20
3294.577757006917
 30
0.0
  0
VERTEX
  5
76C
  8
LAYER_05
 10
205.2060918732438
 20
3277.827332433506
 30
0.0
  0
SEQEND
  5
76D
  8
LAYER_05
  0
POLYLINE
  5
76E
  8
LAYER_05
 66
     1
 10
0.0
 20
0.0
 30
0.0
 70
     1
  0
VERTEX
  5
76F
  8
LAYER_05
 10
211.3110154066761
 20
3250.385804628922
 30
0.0
  0
VERTEX
  5
770
  8
LAYER_05
 10
194.5605908332656
 20
3267.259773225827
 30
0.0
  0
VERTEX
  5
771
  8
LAYER_05
 10
177.6866222363614
 20
3250.509348652417
 30
0.0
  0
VERTEX
  5
772
  8
LAYER_05
 10
194.4370468097717
 20
3233.635380055512
 30
0.0
  0
SEQEND
  5
773
  8
LAYER_05
  0
POLYLINE
  5
774
  8
LAYER_05
 66
     1
 10
0.0
 20
0.0
 30
0.0
 70
     1
  0
VERTEX
  5
775
  8
LAYER_05
 10
194.3591049774734
 20
3212.422319807854
 30
0.0
  0
VERTEX
  5
776
  8
LAYER_05
 10
238.2078226477947
 20
3168.250192603506
 30
0.0
  0
VERTEX
  5
777
  8
LAYER_05
 10
194.0356954434468
 20
3124.401474933185
 30
0.0
  0
VERTEX
  5
778
  8
LAYER_05
 10
150.1869777731255
 20
3168.573602137533
 30
0.0
  0
SEQEND
  5
779
  8
LAYER_05
  0
POLYLINE
  5
77A
  8
LAYER_05
 66
     1
 10
0.0
 20
0.0
 30
0.0
 70
     1
  0
VERTEX
  5
77B
  8
LAYER_05
 10
205.0046060174524
 20
3222.989879015533
 30
0.0
  0
VERTEX
  5
77C
  8
LAYER_05
 10
259.420882895453
 20
3168.172250771207
 30
0.0
  0
VERTEX
  5
77D
  8
LAYER_05
 10
204.6032546511268
 20
3113.755973893206
 30
0.0
  0
VERTEX
  5
77E
  8
LAYER_05
 10
221.3536792245367
 20
3096.882005296302
 30
0.0
  0
VERTEX
  5
77F
  8
LAYER_05
 10
293.0452760657671
 20
3168.048706747714
 30
0.0
  0
VERTEX
  5
780
  8
LAYER_05
 10
221.8785746143561
 20
3239.740303588944
 30
0.0
  0
SEQEND
  5
781
  8
LAYER_05
  0
POLYLINE
  5
782
  8
LAYER_05
 66
     1
 10
0.0
 20
0.0
 30
0.0
  0
VERTEX
  5
783
  8
LAYER_05
 10
221.1521933687444
 20
3042.04455187833
 30
0.0
  0
VERTEX
  5
784
  8
LAYER_05
 10
238.0261619656485
 20
3058.79497645174
 30
0.0
  0
VERTEX
  5
785
  8
LAYER_05
 10
221.2757373922384
 20
3075.668945048645
 30
0.0
  0
VERTEX
  5
786
  8
LAYER_05
 10
204.4017687953343
 20
3058.918520475234
 30
0.0
  0
VERTEX
  5
787
  8
LAYER_05
 10
302.8864540278358
 20
2959.707453997121
 30
0.0
  0
VERTEX
  5
788
  8
LAYER_05
 10
374.5780508690661
 20
3030.874155448533
 30
0.0
  0
VERTEX
  5
789
  8
LAYER_05
 10
357.8276262956558
 20
3047.748124045437
 30
0.0
  0
VERTEX
  5
78A
  8
LAYER_05
 10
303.0099980513298
 20
2993.331847167436
 30
0.0
  0
VERTEX
  5
78B
  8
LAYER_05
 10
248.5937211733285
 20
3048.149475411762
 30
0.0
  0
VERTEX
  5
78C
  8
LAYER_05
 10
231.7197525764244
 20
3031.399050838352
 30
0.0
  0
SEQEND
  5
78D
  8
LAYER_05
  0
POLYLINE
  5
78E
  8
LAYER_05
 66
     1
 10
0.0
 20
0.0
 30
0.0
 70
     1
  0
VERTEX
  5
78F
  8
LAYER_05
 10
167.0411211963831
 20
3239.941789444737
 30
0.0
  0
VERTEX
  5
790
  8
LAYER_05
 10
183.7915457697934
 20
3223.067820847833
 30
0.0
  0
VERTEX
  5
791
  8
LAYER_05
 10
128.9739175254672
 20
3168.651543969831
 30
0.0
  0
VERTEX
  5
792
  8
LAYER_05
 10
183.3901944034685
 20
3113.833915725505
 30
0.0
  0
VERTEX
  5
793
  8
LAYER_05
 10
166.5162258065644
 20
3097.083491152095
 30
0.0
  0
VERTEX
  5
794
  8
LAYER_05
 10
95.34952435515322
 20
3168.775087993325
 30
0.0
  0
SEQEND
  5
795
  8
LAYER_05
  0
POLYLINE
  5
796
  8
LAYER_05
 66
     1
 10
0.0
 20
0.0
 30
0.0
 70
     1
  0
VERTEX
  5
797
  8
LAYER_05
 10
210.7081781845584
 20
3086.314446088623
 30
0.0
  0
VERTEX
  5
798
  8
LAYER_05
 10
193.9577536111485
 20
3103.188414685526
 30
0.0
  0
VERTEX
  5
799
  8
LAYER_05
 10
177.0837850142444
 20
3086.437990112116
 30
0.0
  0
VERTEX
  5
79A
  8
LAYER_05
 10
193.8342095876543
 20
3069.564021515213
 30
0.0
  0
SEQEND
  5
79B
  8
LAYER_05
  0
POLYLINE
  5
79C
  8
LAYER_05
 66
     1
 10
0.0
 20
0.0
 30
0.0
 70
     1
  0
VERTEX
  5
79D
  8
LAYER_05
 10
395.9925969725168
 20
3085.633667034207
 30
0.0
  0
VERTEX
  5
79E
  8
LAYER_05
 10
412.7430215459269
 20
3068.759698437303
 30
0.0
  0
VERTEX
  5
79F
  8
LAYER_05
 10
429.616990142831
 20
3085.510123010713
 30
0.0
  0
VERTEX
  5
7A0
  8
LAYER_05
 10
412.8665655694209
 20
3102.384091607617
 30
0.0
  0
SEQEND
  5
7A1
  8
LAYER_05
  0
POLYLINE
  5
7A2
  8
LAYER_05
 66
     1
 10
0.0
 20
0.0
 30
0.0
 70
     1
  0
VERTEX
  5
7A3
  8
LAYER_05
 10
385.3470959325383
 20
3075.066107826527
 30
0.0
  0
VERTEX
  5
7A4
  8
LAYER_05
 10
368.4731273356343
 20
3058.315683253117
 30
0.0
  0
VERTEX
  5
7A5
  8
LAYER_05
 10
385.2235519090444
 20
3041.441714656213
 30
0.0
  0
VERTEX
  5
7A6
  8
LAYER_05
 10
402.0975205059486
 20
3058.192139229623
 30
0.0
  0
SEQEND
  5
7A7
  8
LAYER_05
  0
POLYLINE
  5
7A8
  8
LAYER_05
 66
     1
 10
0.0
 20
0.0
 30
0.0
 70
     1
  0
VERTEX
  5
7A9
  8
LAYER_05
 10
631.8533193599917
 20
3122.792828777365
 30
0.0
  0
VERTEX
  5
7AA
  8
LAYER_05
 10
588.0046016896702
 20
3166.964955981714
 30
0.0
  0
VERTEX
  5
7AB
  8
LAYER_05
 10
632.176728894018
 20
3210.813673652035
 30
0.0
  0
VERTEX
  5
7AC
  8
LAYER_05
 10
676.0254465643395
 20
3166.641546447687
 30
0.0
  0
SEQEND
  5
7AD
  8
LAYER_05
  0
POLYLINE
  5
7AE
  8
LAYER_05
 66
     1
 10
0.0
 20
0.0
 30
0.0
 70
     1
  0
VERTEX
  5
7AF
  8
LAYER_05
 10
642.8222299339961
 20
3221.381232859715
 30
0.0
  0
VERTEX
  5
7B0
  8
LAYER_05
 10
659.6961985309008
 20
3238.131657433125
 30
0.0
  0
VERTEX
  5
7B1
  8
LAYER_05
 10
730.8628999823118
 20
3166.440060591895
 30
0.0
  0
VERTEX
  5
7B2
  8
LAYER_05
 10
659.1713031410814
 20
3095.273359140484
 30
0.0
  0
VERTEX
  5
7B3
  8
LAYER_05
 10
642.4208785676713
 20
3112.147327737388
 30
0.0
  0
VERTEX
  5
7B4
  8
LAYER_05
 10
697.2385068119977
 20
3166.563604615389
 30
0.0
  0
SEQEND
  5
7B5
  8
LAYER_05
  0
POLYLINE
  5
7B6
  8
LAYER_05
 66
     1
 10
0.0
 20
0.0
 30
0.0
  0
VERTEX
  5
7B7
  8
LAYER_05
 10
687.2156681677827
 20
3265.449641214216
 30
0.0
  0
VERTEX
  5
7B8
  8
LAYER_05
 10
741.631945045784
 20
3210.632012969889
 30
0.0
  0
VERTEX
  5
7B9
  8
LAYER_05
 10
796.44957329011
 20
3265.04828984789
 30
0.0
  0
VERTEX
  5
7BA
  8
LAYER_05
 10
813.1999978635206
 20
3248.174321250986
 30
0.0
  0
VERTEX
  5
7BB
  8
LAYER_05
 10
741.5084010222902
 20
3177.007619799575
 30
0.0
  0
VERTEX
  5
7BC
  8
LAYER_05
 10
670.341699570879
 20
3248.699216640805
 30
0.0
  0
VERTEX
  5
7BD
  8
LAYER_05
 10
742.0332964121092
 20
3319.865918092216
 30
0.0
  0
VERTEX
  5
7BE
  8
LAYER_05
 10
785.88201408243
 20
3275.693790887869
 30
0.0
  0
VERTEX
  5
7BF
  8
LAYER_05
 10
741.7098868780824
 20
3231.845073217547
 30
0.0
  0
VERTEX
  5
7C0
  8
LAYER_05
 10
697.8611692077611
 20
3276.017200421895
 30
0.0
  0
SEQEND
  5
7C1
  8
LAYER_05
  0
POLYLINE
  5
7C2
  8
LAYER_05
 66
     1
 10
0.0
 20
0.0
 30
0.0
 70
     1
  0
VERTEX
  5
7C3
  8
LAYER_05
 10
697.0568461298517
 20
3057.108388463623
 30
0.0
  0
VERTEX
  5
7C4
  8
LAYER_05
 10
741.2289733342
 20
3100.957106133944
 30
0.0
  0
VERTEX
  5
7C5
  8
LAYER_05
 10
785.0776910045208
 20
3056.784978929596
 30
0.0
  0
VERTEX
  5
7C6
  8
LAYER_05
 10
740.9055638001726
 20
3012.936261259275
 30
0.0
  0
SEQEND
  5
7C7
  8
LAYER_05
  0
POLYLINE
  5
7C8
  8
LAYER_05
 66
     1
 10
0.0
 20
0.0
 30
0.0
 70
     1
  0
VERTEX
  5
7C9
  8
LAYER_05
 10
686.4892869221721
 20
3067.753889503601
 30
0.0
  0
VERTEX
  5
7CA
  8
LAYER_05
 10
741.3069151664981
 20
3122.170166381602
 30
0.0
  0
VERTEX
  5
7CB
  8
LAYER_05
 10
795.723192044499
 20
3067.352538137276
 30
0.0
  0
VERTEX
  5
7CC
  8
LAYER_05
 10
812.597160641403
 20
3084.102962710686
 30
0.0
  0
VERTEX
  5
7CD
  8
LAYER_05
 10
741.4304591899918
 20
3155.794559551916
 30
0.0
  0
VERTEX
  5
7CE
  8
LAYER_05
 10
669.7388623487614
 20
3084.627858100505
 30
0.0
  0
SEQEND
  5
7CF
  8
LAYER_05
  0
POLYLINE
  5
7D0
  8
LAYER_05
 66
     1
 10
0.0
 20
0.0
 30
0.0
 70
     1
  0
VERTEX
  5
7D1
  8
LAYER_05
 10
642.219392711879
 20
3057.309874319415
 30
0.0
  0
VERTEX
  5
7D2
  8
LAYER_05
 10
658.9698172852895
 20
3040.435905722511
 30
0.0
  0
VERTEX
  5
7D3
  8
LAYER_05
 10
675.8437858821935
 20
3057.186330295921
 30
0.0
  0
VERTEX
  5
7D4
  8
LAYER_05
 10
659.0933613087834
 20
3074.060298892825
 30
0.0
  0
SEQEND
  5
7D5
  8
LAYER_05
  0
POLYLINE
  5
7D6
  8
LAYER_05
 66
     1
 10
0.0
 20
0.0
 30
0.0
 70
     1
  0
VERTEX
  5
7D7
  8
LAYER_05
 10
604.8587451129279
 20
3238.333143288917
 30
0.0
  0
VERTEX
  5
7D8
  8
LAYER_05
 10
533.1671482716977
 20
3167.166441837506
 30
0.0
  0
VERTEX
  5
7D9
  8
LAYER_05
 10
604.3338497231091
 20
3095.474844996276
 30
0.0
  0
VERTEX
  5
7DA
  8
LAYER_05
 10
621.2078183200133
 20
3112.225269569686
 30
0.0
  0
VERTEX
  5
7DB
  8
LAYER_05
 10
566.791541442012
 20
3167.042897814012
 30
0.0
  0
VERTEX
  5
7DC
  8
LAYER_05
 10
621.6091696863384
 20
3221.459174692013
 30
0.0
  0
SEQEND
  5
7DD
  8
LAYER_05
  0
POLYLINE
  5
7DE
  8
LAYER_05
 66
     1
 10
0.0
 20
0.0
 30
0.0
 70
     1
  0
VERTEX
  5
7DF
  8
LAYER_05
 10
648.5258021011032
 20
3084.705799932804
 30
0.0
  0
VERTEX
  5
7E0
  8
LAYER_05
 10
631.7753775276931
 20
3101.579768529708
 30
0.0
  0
VERTEX
  5
7E1
  8
LAYER_05
 10
614.9014089307889
 20
3084.829343956297
 30
0.0
  0
VERTEX
  5
7E2
  8
LAYER_05
 10
631.6518335041994
 20
3067.955375359393
 30
0.0
  0
SEQEND
  5
7E3
  8
LAYER_05
  0
POLYLINE
  5
7E4
  8
LAYER_05
 66
     1
 10
0.0
 20
0.0
 30
0.0
 70
     1
  0
VERTEX
  5
7E5
  8
LAYER_05
 10
795.6452502122006
 20
3046.139477889618
 30
0.0
  0
VERTEX
  5
7E6
  8
LAYER_05
 10
740.8276219678744
 20
2991.723201011616
 30
0.0
  0
VERTEX
  5
7E7
  8
LAYER_05
 10
686.4113450898735
 20
3046.540829255943
 30
0.0
  0
VERTEX
  5
7E8
  8
LAYER_05
 10
669.5373764929695
 20
3029.790404682533
 30
0.0
  0
VERTEX
  5
7E9
  8
LAYER_05
 10
740.704077944381
 20
2958.098807841302
 30
0.0
  0
VERTEX
  5
7EA
  8
LAYER_05
 10
812.3956747856114
 20
3029.265509292714
 30
0.0
  0
SEQEND
  5
7EB
  8
LAYER_05
  0
POLYLINE
  5
7EC
  8
LAYER_05
 66
     1
 10
0.0
 20
0.0
 30
0.0
 70
     1
  0
VERTEX
  5
7ED
  8
LAYER_05
 10
823.164719849083
 20
3073.457461670708
 30
0.0
  0
VERTEX
  5
7EE
  8
LAYER_05
 10
806.2907512521792
 20
3056.707037097298
 30
0.0
  0
VERTEX
  5
7EF
  8
LAYER_05
 10
823.0411758255896
 20
3039.833068500393
 30
0.0
  0
VERTEX
  5
7F0
  8
LAYER_05
 10
839.9151444224935
 20
3056.583493073803
 30
0.0
  0
SEQEND
  5
7F1
  8
LAYER_05
  0
POLYLINE
  5
7F2
  8
LAYER_05
 66
     1
 10
0.0
 20
0.0
 30
0.0
 70
     1
  0
VERTEX
  5
7F3
  8
LAYER_05
 10
833.8102208890614
 20
3084.025020878388
 30
0.0
  0
VERTEX
  5
7F4
  8
LAYER_05
 10
850.5606454624719
 20
3067.151052281484
 30
0.0
  0
VERTEX
  5
7F5
  8
LAYER_05
 10
867.4346140593759
 20
3083.901476854894
 30
0.0
  0
VERTEX
  5
7F6
  8
LAYER_05
 10
850.6841894859654
 20
3100.775445451798
 30
0.0
  0
SEQEND
  5
7F7
  8
LAYER_05
  0
POLYLINE
  5
7F8
  8
LAYER_05
 66
     1
 10
0.0
 20
0.0
 30
0.0
 70
     1
  0
VERTEX
  5
7F9
  8
LAYER_05
 10
850.762131318264
 20
3121.988505699456
 30
0.0
  0
VERTEX
  5
7FA
  8
LAYER_05
 10
806.9134136479427
 20
3166.160632903805
 30
0.0
  0
VERTEX
  5
7FB
  8
LAYER_05
 10
851.0855408522905
 20
3210.009350574126
 30
0.0
  0
VERTEX
  5
7FC
  8
LAYER_05
 10
894.9342585226116
 20
3165.837223369778
 30
0.0
  0
SEQEND
  5
7FD
  8
LAYER_05
  0
POLYLINE
  5
7FE
  8
LAYER_05
 66
     1
 10
0.0
 20
0.0
 30
0.0
 70
     1
  0
VERTEX
  5
7FF
  8
LAYER_05
 10
840.1166302782851
 20
3111.420946491777
 30
0.0
  0
VERTEX
  5
800
  8
LAYER_05
 10
785.7003534002843
 20
3166.238574736103
 30
0.0
  0
VERTEX
  5
801
  8
LAYER_05
 10
840.5179816446105
 20
3220.654851614104
 30
0.0
  0
VERTEX
  5
802
  8
LAYER_05
 10
823.7675570712004
 20
3237.528820211008
 30
0.0
  0
VERTEX
  5
803
  8
LAYER_05
 10
752.0759602299702
 20
3166.362118759596
 30
0.0
  0
VERTEX
  5
804
  8
LAYER_05
 10
823.2426616813814
 20
3094.670521918366
 30
0.0
  0
SEQEND
  5
805
  8
LAYER_05
  0
POLYLINE
  5
806
  8
LAYER_05
 66
     1
 10
0.0
 20
0.0
 30
0.0
  0
VERTEX
  5
807
  8
LAYER_05
 10
823.9690429269929
 20
3292.36627362898
 30
0.0
  0
VERTEX
  5
808
  8
LAYER_05
 10
807.0950743300887
 20
3275.61584905557
 30
0.0
  0
VERTEX
  5
809
  8
LAYER_05
 10
823.845498903499
 20
3258.741880458665
 30
0.0
  0
VERTEX
  5
80A
  8
LAYER_05
 10
840.7194675004032
 20
3275.492305032076
 30
0.0
  0
VERTEX
  5
80B
  8
LAYER_05
 10
742.2347822679017
 20
3374.703371510189
 30
0.0
  0
VERTEX
  5
80C
  8
LAYER_05
 10
670.5431854266712
 20
3303.536670058778
 30
0.0
  0
VERTEX
  5
80D
  8
LAYER_05
 10
687.2936100000816
 20
3286.662701461873
 30
0.0
  0
VERTEX
  5
80E
  8
LAYER_05
 10
742.1112382444076
 20
3341.078978339875
 30
0.0
  0
VERTEX
  5
80F
  8
LAYER_05
 10
796.5275151224087
 20
3286.261350095548
 30
0.0
  0
VERTEX
  5
810
  8
LAYER_05
 10
813.4014837193129
 20
3303.011774668959
 30
0.0
  0
SEQEND
  5
811
  8
LAYER_05
  0
POLYLINE
  5
812
  8
LAYER_05
 66
     1
 10
0.0
 20
0.0
 30
0.0
 70
     1
  0
VERTEX
  5
813
  8
LAYER_05
 10
878.0801150993543
 20
3094.469036062573
 30
0.0
  0
VERTEX
  5
814
  8
LAYER_05
 10
861.3296905259438
 20
3111.343004659478
 30
0.0
  0
VERTEX
  5
815
  8
LAYER_05
 10
916.14731877027
 20
3165.759281537479
 30
0.0
  0
VERTEX
  5
816
  8
LAYER_05
 10
861.7310418922689
 20
3220.576909781805
 30
0.0
  0
VERTEX
  5
817
  8
LAYER_05
 10
878.6050104891731
 20
3237.327334355216
 30
0.0
  0
VERTEX
  5
818
  8
LAYER_05
 10
949.7717119405843
 20
3165.635737513986
 30
0.0
  0
SEQEND
  5
819
  8
LAYER_05
  0
POLYLINE
  5
81A
  8
LAYER_05
 66
     1
 10
0.0
 20
0.0
 30
0.0
 70
     1
  0
VERTEX
  5
81B
  8
LAYER_05
 10
834.413058111179
 20
3248.096379418688
 30
0.0
  0
VERTEX
  5
81C
  8
LAYER_05
 10
851.1634826845889
 20
3231.222410821784
 30
0.0
  0
VERTEX
  5
81D
  8
LAYER_05
 10
868.0374512814931
 20
3247.972835395194
 30
0.0
  0
VERTEX
  5
81E
  8
LAYER_05
 10
851.287026708083
 20
3264.846803992098
 30
0.0
  0
SEQEND
  5
81F
  8
LAYER_05
  0
POLYLINE
  5
820
  8
LAYER_05
 66
     1
 10
0.0
 20
0.0
 30
0.0
 70
     1
  0
VERTEX
  5
821
  8
LAYER_05
 10
649.1286393232203
 20
3248.777158473104
 30
0.0
  0
VERTEX
  5
822
  8
LAYER_05
 10
632.3782147498105
 20
3265.651127070007
 30
0.0
  0
VERTEX
  5
823
  8
LAYER_05
 10
615.5042461529065
 20
3248.900702496597
 30
0.0
  0
VERTEX
  5
824
  8
LAYER_05
 10
632.2546707263166
 20
3232.026733899693
 30
0.0
  0
SEQEND
  5
825
  8
LAYER_05
  0
POLYLINE
  5
826
  8
LAYER_05
 66
     1
 10
0.0
 20
0.0
 30
0.0
 70
     1
  0
VERTEX
  5
827
  8
LAYER_05
 10
659.7741403631992
 20
3259.344717680784
 30
0.0
  0
VERTEX
  5
828
  8
LAYER_05
 10
676.648108960103
 20
3276.095142254193
 30
0.0
  0
VERTEX
  5
829
  8
LAYER_05
 10
659.8976843866928
 20
3292.969110851097
 30
0.0
  0
VERTEX
  5
82A
  8
LAYER_05
 10
643.0237157897889
 20
3276.218686277688
 30
0.0
  0
SEQEND
  5
82B
  8
LAYER_05
  0
POLYLINE
  5
82C
  8
LAYER_05
 66
     1
 10
0.0
 20
0.0
 30
0.0
 70
     1
  0
VERTEX
  5
82D
  8
LAYER_05
 10
566.1688790462488
 20
3057.589302007505
 30
0.0
  0
VERTEX
  5
82E
  8
LAYER_05
 10
522.3201613759272
 20
3101.761429211854
 30
0.0
  0
VERTEX
  5
82F
  8
LAYER_05
 10
478.148034171579
 20
3057.912711541533
 30
0.0
  0
VERTEX
  5
830
  8
LAYER_05
 10
521.9967518419005
 20
3013.740584337184
 30
0.0
  0
SEQEND
  5
831
  8
LAYER_05
  0
POLYLINE
  5
832
  8
LAYER_05
 66
     1
 10
0.0
 20
0.0
 30
0.0
 70
     1
  0
VERTEX
  5
833
  8
LAYER_05
 10
467.5025331316012
 20
3047.345152333853
 30
0.0
  0
VERTEX
  5
834
  8
LAYER_05
 10
450.628564534697
 20
3030.594727760442
 30
0.0
  0
VERTEX
  5
835
  8
LAYER_05
 10
521.795265986108
 20
2958.903130919212
 30
0.0
  0
VERTEX
  5
836
  8
LAYER_05
 10
593.4868628273384
 20
3030.069832370623
 30
0.0
  0
VERTEX
  5
837
  8
LAYER_05
 10
576.7364382539283
 20
3046.943800967527
 30
0.0
  0
VERTEX
  5
838
  8
LAYER_05
 10
521.918810009602
 20
2992.527524089526
 30
0.0
  0
SEQEND
  5
839
  8
LAYER_05
  0
POLYLINE
  5
83A
  8
LAYER_05
 66
     1
 10
0.0
 20
0.0
 30
0.0
  0
VERTEX
  5
83B
  8
LAYER_05
 10
423.1090948978141
 20
3003.276743979352
 30
0.0
  0
VERTEX
  5
83C
  8
LAYER_05
 10
477.5253717758154
 20
2948.459115735026
 30
0.0
  0
VERTEX
  5
83D
  8
LAYER_05
 10
422.707743531489
 20
2894.042838857025
 30
0.0
  0
VERTEX
  5
83E
  8
LAYER_05
 10
439.4581681048995
 20
2877.16887026012
 30
0.0
  0
VERTEX
  5
83F
  8
LAYER_05
 10
511.1497649461297
 20
2948.335571711532
 30
0.0
  0
VERTEX
  5
840
  8
LAYER_05
 10
439.9830634947185
 20
3020.027168552762
 30
0.0
  0
VERTEX
  5
841
  8
LAYER_05
 10
368.2914666534881
 20
2948.860467101351
 30
0.0
  0
VERTEX
  5
842
  8
LAYER_05
 10
412.140184323809
 20
2904.688339897004
 30
0.0
  0
VERTEX
  5
843
  8
LAYER_05
 10
456.3123115281571
 20
2948.537057567324
 30
0.0
  0
VERTEX
  5
844
  8
LAYER_05
 10
412.4635938578358
 20
2992.709184771672
 30
0.0
  0
SEQEND
  5
845
  8
LAYER_05
  0
POLYLINE
  5
846
  8
LAYER_05
 66
     1
 10
0.0
 20
0.0
 30
0.0
 70
     1
  0
VERTEX
  5
847
  8
LAYER_05
 10
631.3724058161088
 20
2991.904861693763
 30
0.0
  0
VERTEX
  5
848
  8
LAYER_05
 10
587.2002786117605
 20
2948.056144023441
 30
0.0
  0
VERTEX
  5
849
  8
LAYER_05
 10
631.0489962820814
 20
2903.884016819093
 30
0.0
  0
VERTEX
  5
84A
  8
LAYER_05
 10
675.2211234864296
 20
2947.732734489415
 30
0.0
  0
SEQEND
  5
84B
  8
LAYER_05
  0
POLYLINE
  5
84C
  8
LAYER_05
 66
     1
 10
0.0
 20
0.0
 30
0.0
 70
     1
  0
VERTEX
  5
84D
  8
LAYER_05
 10
620.8048466084283
 20
3002.55036273374
 30
0.0
  0
VERTEX
  5
84E
  8
LAYER_05
 10
565.9872183641022
 20
2948.134085855739
 30
0.0
  0
VERTEX
  5
84F
  8
LAYER_05
 10
620.4034952421031
 20
2893.316457611414
 30
0.0
  0
VERTEX
  5
850
  8
LAYER_05
 10
603.5295266451992
 20
2876.566033038003
 30
0.0
  0
VERTEX
  5
851
  8
LAYER_05
 10
532.362825193788
 20
2948.257629879233
 30
0.0
  0
VERTEX
  5
852
  8
LAYER_05
 10
604.0544220350184
 20
3019.424331330645
 30
0.0
  0
SEQEND
  5
853
  8
LAYER_05
  0
POLYLINE
  5
854
  8
LAYER_05
 66
     1
 10
0.0
 20
0.0
 30
0.0
 70
     1
  0
VERTEX
  5
855
  8
LAYER_05
 10
631.5738916719004
 20
3046.742315111735
 30
0.0
  0
VERTEX
  5
856
  8
LAYER_05
 10
648.3243162453109
 20
3029.868346514831
 30
0.0
  0
VERTEX
  5
857
  8
LAYER_05
 10
631.4503476484069
 20
3013.11792194142
 30
0.0
  0
VERTEX
  5
858
  8
LAYER_05
 10
614.6999230749968
 20
3029.991890538325
 30
0.0
  0
SEQEND
  5
859
  8
LAYER_05
  0
POLYLINE
  5
85A
  8
LAYER_05
 66
     1
 10
0.0
 20
0.0
 30
0.0
 70
     1
  0
VERTEX
  5
85B
  8
LAYER_05
 10
450.8300503904892
 20
3085.432181178415
 30
0.0
  0
VERTEX
  5
85C
  8
LAYER_05
 10
522.5216472317195
 20
3156.598882629826
 30
0.0
  0
VERTEX
  5
85D
  8
LAYER_05
 10
593.6883486831309
 20
3084.907285788595
 30
0.0
  0
VERTEX
  5
85E
  8
LAYER_05
 10
576.8143800862267
 20
3068.156861215185
 30
0.0
  0
VERTEX
  5
85F
  8
LAYER_05
 10
522.3981032082254
 20
3122.974489459512
 30
0.0
  0
VERTEX
  5
860
  8
LAYER_05
 10
467.5804749638994
 20
3068.558212581511
 30
0.0
  0
SEQEND
  5
861
  8
LAYER_05
  0
POLYLINE
  5
862
  8
LAYER_05
 66
     1
 10
0.0
 20
0.0
 30
0.0
 70
     1
  0
VERTEX
  5
863
  8
LAYER_05
 10
604.1323638673166
 20
3040.637391578303
 30
0.0
  0
VERTEX
  5
864
  8
LAYER_05
 10
587.3819392939065
 20
3057.511360175207
 30
0.0
  0
VERTEX
  5
865
  8
LAYER_05
 10
604.2559078908107
 20
3074.261784748618
 30
0.0
  0
VERTEX
  5
866
  8
LAYER_05
 10
621.0063324642208
 20
3057.387816151713
 30
0.0
  0
SEQEND
  5
867
  8
LAYER_05
  0
POLYLINE
  5
868
  8
LAYER_05
 66
     1
 10
0.0
 20
0.0
 30
0.0
 70
     1
  0
VERTEX
  5
869
  8
LAYER_05
 10
641.6165554897616
 20
2893.238515779115
 30
0.0
  0
VERTEX
  5
86A
  8
LAYER_05
 10
696.4341837340878
 20
2947.654792657116
 30
0.0
  0
VERTEX
  5
86B
  8
LAYER_05
 10
642.0179068560869
 20
3002.472420901443
 30
0.0
  0
VERTEX
  5
86C
  8
LAYER_05
 10
658.8918754529909
 20
3019.222845474852
 30
0.0
  0
VERTEX
  5
86D
  8
LAYER_05
 10
730.0585769044023
 20
2947.531248633622
 30
0.0
  0
VERTEX
  5
86E
  8
LAYER_05
 10
658.3669800631719
 20
2876.364547182211
 30
0.0
  0
SEQEND
  5
86F
  8
LAYER_05
  0
POLYLINE
  5
870
  8
LAYER_05
 66
     1
 10
0.0
 20
0.0
 30
0.0
 70
     1
  0
VERTEX
  5
871
  8
LAYER_05
 10
614.0970858528792
 20
2865.920531998025
 30
0.0
  0
VERTEX
  5
872
  8
LAYER_05
 10
630.971054449783
 20
2882.670956571435
 30
0.0
  0
VERTEX
  5
873
  8
LAYER_05
 10
647.7214790231936
 20
2865.796987974531
 30
0.0
  0
VERTEX
  5
874
  8
LAYER_05
 10
630.8475104262898
 20
2849.046563401121
 30
0.0
  0
SEQEND
  5
875
  8
LAYER_05
  0
POLYLINE
  5
876
  8
LAYER_05
 66
     1
 10
0.0
 20
0.0
 30
0.0
 70
     1
  0
VERTEX
  5
877
  8
LAYER_05
 10
603.4515848129009
 20
2855.352972790345
 30
0.0
  0
VERTEX
  5
878
  8
LAYER_05
 10
620.2020093863115
 20
2838.479004193441
 30
0.0
  0
VERTEX
  5
879
  8
LAYER_05
 10
603.3280407894073
 20
2821.728579620031
 30
0.0
  0
VERTEX
  5
87A
  8
LAYER_05
 10
586.5776162159967
 20
2838.602548216935
 30
0.0
  0
SEQEND
  5
87B
  8
LAYER_05
  0
POLYLINE
  5
87C
  8
LAYER_05
 66
     1
 10
0.0
 20
0.0
 30
0.0
 70
     1
  0
VERTEX
  5
87D
  8
LAYER_05
 10
565.3645559683387
 20
2838.680490049233
 30
0.0
  0
VERTEX
  5
87E
  8
LAYER_05
 10
521.5158382980173
 20
2882.852617253581
 30
0.0
  0
VERTEX
  5
87F
  8
LAYER_05
 10
477.3437110936694
 20
2839.00389958326
 30
0.0
  0
VERTEX
  5
880
  8
LAYER_05
 10
521.1924287639905
 20
2794.831772378912
 30
0.0
  0
SEQEND
  5
881
  8
LAYER_05
  0
POLYLINE
  5
882
  8
LAYER_05
 66
     1
 10
0.0
 20
0.0
 30
0.0
 70
     1
  0
VERTEX
  5
883
  8
LAYER_05
 10
576.0100570083165
 20
2849.248049256913
 30
0.0
  0
VERTEX
  5
884
  8
LAYER_05
 10
521.5937801303156
 20
2904.06567750124
 30
0.0
  0
VERTEX
  5
885
  8
LAYER_05
 10
466.7761518859894
 20
2849.649400623238
 30
0.0
  0
VERTEX
  5
886
  8
LAYER_05
 10
450.0257273125793
 20
2866.523369220142
 30
0.0
  0
VERTEX
  5
887
  8
LAYER_05
 10
521.7173241538097
 20
2937.690070671554
 30
0.0
  0
VERTEX
  5
888
  8
LAYER_05
 10
592.8840256052209
 20
2865.998473830323
 30
0.0
  0
SEQEND
  5
889
  8
LAYER_05
  0
POLYLINE
  5
88A
  8
LAYER_05
 66
     1
 10
0.0
 20
0.0
 30
0.0
  0
VERTEX
  5
88B
  8
LAYER_05
 10
395.1882738946068
 20
2866.724855075935
 30
0.0
  0
VERTEX
  5
88C
  8
LAYER_05
 10
412.0622424915109
 20
2883.475279649345
 30
0.0
  0
VERTEX
  5
88D
  8
LAYER_05
 10
428.8126670649212
 20
2866.60131105244
 30
0.0
  0
VERTEX
  5
88E
  8
LAYER_05
 10
411.9386984680172
 20
2849.850886479031
 30
0.0
  0
VERTEX
  5
88F
  8
LAYER_05
 10
313.4540132355156
 20
2949.061952957144
 30
0.0
  0
VERTEX
  5
890
  8
LAYER_05
 10
385.1456100767459
 20
3020.228654408555
 30
0.0
  0
VERTEX
  5
891
  8
LAYER_05
 10
401.8960346501563
 20
3003.35468581165
 30
0.0
  0
VERTEX
  5
892
  8
LAYER_05
 10
347.0784064058298
 20
2948.938408933649
 30
0.0
  0
VERTEX
  5
893
  8
LAYER_05
 10
401.4946832838309
 20
2894.120780689323
 30
0.0
  0
VERTEX
  5
894
  8
LAYER_05
 10
384.6207146869268
 20
2877.370356115913
 30
0.0
  0
SEQEND
  5
895
  8
LAYER_05
  0
POLYLINE
  5
896
  8
LAYER_05
 66
     1
 10
0.0
 20
0.0
 30
0.0
 70
     1
  0
VERTEX
  5
897
  8
LAYER_05
 10
592.682539749429
 20
2811.16102041235
 30
0.0
  0
VERTEX
  5
898
  8
LAYER_05
 10
575.9321151760184
 20
2828.034989009255
 30
0.0
  0
VERTEX
  5
899
  8
LAYER_05
 10
521.1144869316922
 20
2773.618712131254
 30
0.0
  0
VERTEX
  5
89A
  8
LAYER_05
 10
466.6982100536911
 20
2828.43634037558
 30
0.0
  0
VERTEX
  5
89B
  8
LAYER_05
 10
449.824241456787
 20
2811.68591580217
 30
0.0
  0
VERTEX
  5
89C
  8
LAYER_05
 10
520.9909429081982
 20
2739.994318960939
 30
0.0
  0
SEQEND
  5
89D
  8
LAYER_05
  0
POLYLINE
  5
89E
  8
LAYER_05
 66
     1
 10
0.0
 20
0.0
 30
0.0
 70
     1
  0
VERTEX
  5
89F
  8
LAYER_05
 10
439.3802262726012
 20
2855.955810012462
 30
0.0
  0
VERTEX
  5
8A0
  8
LAYER_05
 10
456.1306508460111
 20
2839.081841415559
 30
0.0
  0
VERTEX
  5
8A1
  8
LAYER_05
 10
439.256682249107
 20
2822.331416842148
 30
0.0
  0
VERTEX
  5
8A2
  8
LAYER_05
 10
422.5062576756969
 20
2839.205385439052
 30
0.0
  0
SEQEND
  5
8A3
  8
LAYER_05
  0
POLYLINE
  5
8A4
  8
LAYER_05
 66
     1
 10
0.0
 20
0.0
 30
0.0
 70
     1
  0
VERTEX
  5
8A5
  8
LAYER_05
 10
440.0610053270166
 20
3041.240228800421
 30
0.0
  0
VERTEX
  5
8A6
  8
LAYER_05
 10
423.3105807536067
 20
3058.114197397324
 30
0.0
  0
VERTEX
  5
8A7
  8
LAYER_05
 10
440.1845493505108
 20
3074.864621970735
 30
0.0
  0
VERTEX
  5
8A8
  8
LAYER_05
 10
456.9349739239209
 20
3057.990653373831
 30
0.0
  0
SEQEND
  5
8A9
  8
LAYER_05
  0
POLYLINE
  5
8AA
  8
LAYER_05
 66
     1
 10
0.0
 20
0.0
 30
0.0
 70
     1
  0
VERTEX
  5
8AB
  8
LAYER_05
 10
429.4155042870387
 20
3030.67266959274
 30
0.0
  0
VERTEX
  5
8AC
  8
LAYER_05
 10
412.5415356901343
 20
3013.922245019331
 30
0.0
  0
VERTEX
  5
8AD
  8
LAYER_05
 10
395.7911111167242
 20
3030.796213616235
 30
0.0
  0
VERTEX
  5
8AE
  8
LAYER_05
 10
412.6650797136284
 20
3047.546638189644
 30
0.0
  0
SEQEND
  5
8AF
  8
LAYER_05
  0
ENDSEC
  0
EOF
