  0
SECTION
  2
HEADER
  9
$ACADVER
  1
AC1009
  9
$DWGCODEPAGE
  3
ansi_1252
  9
$INSBASE
 10
0.0
 20
0.0
 30
0.0
  9
$EXTMIN
 10
1.000000000000000E+20
 20
1.000000000000000E+20
 30
1.000000000000000E+20
  9
$EXTMAX
 10
-1.000000000000000E+20
 20
-1.000000000000000E+20
 30
-1.000000000000000E+20
  9
$LIMMIN
 10
0.0
 20
0.0
  9
$LIMMAX
 10
12.0
 20
9.0
  9
$ORTHOMODE
 70
     0
  9
$REGENMODE
 70
     1
  9
$FILLMODE
 70
     1
  9
$QTEXTMODE
 70
     0
  9
$MIRRTEXT
 70
     1
  9
$DRAGMODE
 70
     2
  9
$LTSCALE
 40
1.0
  9
$OSMODE
 70
    37
  9
$ATTMODE
 70
     1
  9
$TEXTSIZE
 40
0.2
  9
$TRACEWID
 40
0.05
  9
$TEXTSTYLE
  7
STANDARD
  9
$CLAYER
  8
DEFAULT_LAYER
  9
$CELTYPE
  6
BYLAYER
  9
$CECOLOR
 62
   256
  9
$DIMSCALE
 40
1.0
  9
$DIMASZ
 40
0.18
  9
$DIMEXO
 40
0.0625
  9
$DIMDLI
 40
0.38
  9
$DIMRND
 40
0.0
  9
$DIMDLE
 40
0.0
  9
$DIMEXE
 40
0.18
  9
$DIMTP
 40
0.0
  9
$DIMTM
 40
0.0
  9
$DIMTXT
 40
0.18
  9
$DIMCEN
 40
0.09
  9
$DIMTSZ
 40
0.0
  9
$DIMTOL
 70
     0
  9
$DIMLIM
 70
     0
  9
$DIMTIH
 70
     1
  9
$DIMTOH
 70
     1
  9
$DIMSE1
 70
     0
  9
$DIMSE2
 70
     0
  9
$DIMTAD
 70
     0
  9
$DIMZIN
 70
     0
  9
$DIMBLK
  1

  9
$DIMASO
 70
     1
  9
$DIMSHO
 70
     1
  9
$DIMPOST
  1

  9
$DIMAPOST
  1

  9
$DIMALT
 70
     0
  9
$DIMALTD
 70
     2
  9
$DIMALTF
 40
25.4
  9
$DIMLFAC
 40
1.0
  9
$DIMTOFL
 70
     0
  9
$DIMTVP
 40
0.0
  9
$DIMTIX
 70
     0
  9
$DIMSOXD
 70
     0
  9
$DIMSAH
 70
     0
  9
$DIMBLK1
  1

  9
$DIMBLK2
  1

  9
$DIMSTYLE
  2
STANDARD_ACAD
  9
$DIMCLRD
 70
     0
  9
$DIMCLRE
 70
     0
  9
$DIMCLRT
 70
     0
  9
$DIMTFAC
 40
1.0
  9
$DIMGAP
 40
0.09
  9
$LUNITS
 70
     2
  9
$LUPREC
 70
     3
  9
$SKETCHINC
 40
0.1
  9
$FILLETRAD
 40
0.5
  9
$AUNITS
 70
     0
  9
$AUPREC
 70
     0
  9
$MENU
  1
.
  9
$ELEVATION
 40
0.0
  9
$PELEVATION
 40
0.0
  9
$THICKNESS
 40
0.0
  9
$LIMCHECK
 70
     0
  9
$CHAMFERA
 40
0.0
  9
$CHAMFERB
 40
0.0
  9
$SKPOLY
 70
     0
  9
$TDCREATE
 40
2459818.442777731
  9
$TDUPDATE
 40
2459818.442777778
  9
$TDINDWG
 40
0.0000000116
  9
$TDUSRTIMER
 40
0.0000000116
  9
$USRTIMER
 70
     1
  9
$ANGBASE
 50
0.0
  9
$ANGDIR
 70
     0
  9
$PDMODE
 70
     0
  9
$PDSIZE
 40
0.0
  9
$PLINEWID
 40
0.0
  9
$COORDS
 70
     1
  9
$SPLFRAME
 70
     0
  9
$SPLINETYPE
 70
     6
  9
$SPLINESEGS
 70
     8
  9
$ATTDIA
 70
     0
  9
$ATTREQ
 70
     1
  9
$HANDLING
 70
     1
  9
$HANDSEED
  5
22A
  9
$SURFTAB1
 70
     6
  9
$SURFTAB2
 70
     6
  9
$SURFTYPE
 70
     6
  9
$SURFU
 70
     6
  9
$SURFV
 70
     6
  9
$UCSNAME
  2

  9
$UCSORG
 10
0.0
 20
0.0
 30
0.0
  9
$UCSXDIR
 10
1.0
 20
0.0
 30
0.0
  9
$UCSYDIR
 10
0.0
 20
1.0
 30
0.0
  9
$PUCSNAME
  2

  9
$PUCSORG
 10
0.0
 20
0.0
 30
0.0
  9
$PUCSXDIR
 10
1.0
 20
0.0
 30
0.0
  9
$PUCSYDIR
 10
0.0
 20
1.0
 30
0.0
  9
$USERI1
 70
     0
  9
$USERI2
 70
     0
  9
$USERI3
 70
     0
  9
$USERI4
 70
     0
  9
$USERI5
 70
     0
  9
$USERR1
 40
0.0
  9
$USERR2
 40
0.0
  9
$USERR3
 40
0.0
  9
$USERR4
 40
0.0
  9
$USERR5
 40
0.0
  9
$WORLDVIEW
 70
     1
  9
$SHADEDGE
 70
     3
  9
$SHADEDIF
 70
    70
  9
$TILEMODE
 70
     1
  9
$MAXACTVP
 70
    64
  9
$PLIMCHECK
 70
     0
  9
$PEXTMIN
 10
1.000000000000000E+20
 20
1.000000000000000E+20
 30
1.000000000000000E+20
  9
$PEXTMAX
 10
-1.000000000000000E+20
 20
-1.000000000000000E+20
 30
-1.000000000000000E+20
  9
$PLIMMIN
 10
0.0
 20
0.0
  9
$PLIMMAX
 10
12.0
 20
9.0
  9
$UNITMODE
 70
     0
  9
$VISRETAIN
 70
     1
  9
$PLINEGEN
 70
     0
  9
$PSLTSCALE
 70
     1
  0
ENDSEC
  0
SECTION
  2
TABLES
  0
TABLE
  2
VPORT
 70
     1
  0
VPORT
  2
*ACTIVE
 70
     0
 10
0.0
 20
0.0
 11
1.0
 21
1.0
 12
10.42990654205607
 22
4.5
 13
0.0
 23
0.0
 14
0.5
 24
0.5
 15
0.5
 25
0.5
 16
0.0
 26
0.0
 36
1.0
 17
0.0
 27
0.0
 37
0.0
 40
9.0
 41
1.972972972850329
 42
50.0
 43
0.0
 44
0.0
 50
0.0
 51
0.0
 71
     0
 72
   100
 73
     1
 74
     3
 75
     0
 76
     0
 77
     0
 78
     0
  0
ENDTAB
  0
TABLE
  2
LTYPE
 70
     1
  0
LTYPE
  2
CONTINUOUS
 70
     0
  3
Solid line
 72
    65
 73
     0
 40
0.0
  0
ENDTAB
  0
TABLE
  2
LAYER
 70
     2
  0
LAYER
  2
0
 70
     0
 62
     7
  6
CONTINUOUS
  0
LAYER
  2
DEFAULT_LAYER
 70
     0
 62
     5
  6
CONTINUOUS
  0
ENDTAB
  0
TABLE
  2
STYLE
 70
     1
  0
STYLE
  2
STANDARD
 70
     0
 40
0.0
 41
1.0
 50
0.0
 71
     0
 42
0.2
  3
txt
  4

  0
ENDTAB
  0
TABLE
  2
VIEW
 70
     0
  0
ENDTAB
  0
TABLE
  2
UCS
 70
     0
  0
ENDTAB
  0
TABLE
  2
APPID
 70
     1
  0
APPID
  2
ACAD
 70
     0
  0
ENDTAB
  0
TABLE
  2
DIMSTYLE
 70
     1
  0
DIMSTYLE
  2
STANDARD_ACAD
 70
     0
  3

  4

  5

  6

  7

 40
1.0
 41
0.18
 42
0.0625
 43
0.38
 44
0.18
 45
0.0
 46
0.0
 47
0.0
 48
0.0
140
0.18
141
0.09
142
0.0
143
25.4
144
1.0
145
0.0
146
1.0
147
0.09
 71
     0
 72
     0
 73
     1
 74
     1
 75
     0
 76
     0
 77
     0
 78
     0
170
     0
171
     2
172
     0
173
     0
174
     0
175
     0
176
     0
177
     0
178
     0
  0
ENDTAB
  0
ENDSEC
  0
SECTION
  2
BLOCKS
  0
BLOCK
  8
0
  2
$MODEL_SPACE
 70
     0
 10
0.0
 20
0.0
 30
0.0
  3
$MODEL_SPACE
  1

  0
ENDBLK
  5
21
  8
0
  0
BLOCK
 67
     1
  8
0
  2
$PAPER_SPACE
 70
     0
 10
0.0
 20
0.0
 30
0.0
  3
$PAPER_SPACE
  1

  0
ENDBLK
  5
1D
 67
     1
  8
0
  0
ENDSEC
  0
SECTION
  2
ENTITIES
  0
POLYLINE
  5
6F
  8
DEFAULT_LAYER
 66
     1
 10
0.0
 20
0.0
 30
0.0
 70
     1
  0
VERTEX
  5
70
  8
DEFAULT_LAYER
 10
-1560.680287629341
 20
303.989451747346
 30
0.0
  0
VERTEX
  5
71
  8
DEFAULT_LAYER
 10
-1567.592479701997
 20
310.9016438200026
 30
0.0
  0
VERTEX
  5
72
  8
DEFAULT_LAYER
 10
-1567.592479701997
 20
320.6769595948814
 30
0.0
  0
VERTEX
  5
73
  8
DEFAULT_LAYER
 10
-1577.367795476876
 20
320.6769595948814
 30
0.0
  0
VERTEX
  5
74
  8
DEFAULT_LAYER
 10
-1584.279987549533
 20
327.5891516675382
 30
0.0
  0
VERTEX
  5
75
  8
DEFAULT_LAYER
 10
-1591.19217962219
 20
320.6769595948814
 30
0.0
  0
VERTEX
  5
76
  8
DEFAULT_LAYER
 10
-1600.967495397069
 20
320.6769595948814
 30
0.0
  0
VERTEX
  5
77
  8
DEFAULT_LAYER
 10
-1600.967495397069
 20
310.9016438200026
 30
0.0
  0
VERTEX
  5
78
  8
DEFAULT_LAYER
 10
-1607.879687469725
 20
303.9894517473459
 30
0.0
  0
SEQEND
  5
79
  8
DEFAULT_LAYER
  0
POLYLINE
  5
7A
  8
DEFAULT_LAYER
 66
     1
 10
0.0
 20
0.0
 30
0.0
 70
     1
  0
VERTEX
  5
7B
  8
DEFAULT_LAYER
 10
-1560.680287629341
 20
890.2839510519636
 30
0.0
  0
VERTEX
  5
7C
  8
DEFAULT_LAYER
 10
-1567.592479701997
 20
883.3717589793071
 30
0.0
  0
VERTEX
  5
7D
  8
DEFAULT_LAYER
 10
-1567.592479701997
 20
873.5964432044282
 30
0.0
  0
VERTEX
  5
7E
  8
DEFAULT_LAYER
 10
-1577.367795476876
 20
873.5964432044282
 30
0.0
  0
VERTEX
  5
7F
  8
DEFAULT_LAYER
 10
-1584.279987549533
 20
866.6842511317716
 30
0.0
  0
VERTEX
  5
80
  8
DEFAULT_LAYER
 10
-1591.19217962219
 20
873.5964432044282
 30
0.0
  0
VERTEX
  5
81
  8
DEFAULT_LAYER
 10
-1600.967495397069
 20
873.5964432044282
 30
0.0
  0
VERTEX
  5
82
  8
DEFAULT_LAYER
 10
-1600.967495397069
 20
883.3717589793071
 30
0.0
  0
VERTEX
  5
83
  8
DEFAULT_LAYER
 10
-1607.879687469725
 20
890.2839510519636
 30
0.0
  0
SEQEND
  5
84
  8
DEFAULT_LAYER
  0
POLYLINE
  5
85
  8
DEFAULT_LAYER
 66
     1
 10
0.0
 20
0.0
 30
0.0
 70
     1
  0
VERTEX
  5
86
  8
DEFAULT_LAYER
 10
-1878.542091691363
 20
22.01352747368134
 30
0.0
  0
VERTEX
  5
87
  8
DEFAULT_LAYER
 10
-1531.91460101627
 20
22.01352747368134
 30
0.0
  0
VERTEX
  5
88
  8
DEFAULT_LAYER
 10
-1531.91460101627
 20
1172.259875325629
 30
0.0
  0
VERTEX
  5
89
  8
DEFAULT_LAYER
 10
-1878.542091691363
 20
1172.259875325629
 30
0.0
  0
SEQEND
  5
8A
  8
DEFAULT_LAYER
  0
POLYLINE
  5
8B
  8
DEFAULT_LAYER
 66
     1
 10
0.0
 20
0.0
 30
0.0
 70
     1
  0
VERTEX
  5
8C
  8
DEFAULT_LAYER
 10
-1584.279987549533
 20
370.0063105947881
 30
0.0
  0
VERTEX
  5
8D
  8
DEFAULT_LAYER
 10
-1601.544810021448
 20
387.271133066703
 30
0.0
  0
VERTEX
  5
8E
  8
DEFAULT_LAYER
 10
-1601.544810021448
 20
513.8550200802979
 30
0.0
  0
VERTEX
  5
8F
  8
DEFAULT_LAYER
 10
-1584.279987549533
 20
531.1198425522127
 30
0.0
  0
VERTEX
  5
90
  8
DEFAULT_LAYER
 10
-1567.015165077618
 20
513.8550200802979
 30
0.0
  0
VERTEX
  5
91
  8
DEFAULT_LAYER
 10
-1567.015165077618
 20
387.271133066703
 30
0.0
  0
SEQEND
  5
92
  8
DEFAULT_LAYER
  0
POLYLINE
  5
93
  8
DEFAULT_LAYER
 66
     1
 10
0.0
 20
0.0
 30
0.0
 70
     1
  0
VERTEX
  5
94
  8
DEFAULT_LAYER
 10
-1584.279987549533
 20
824.2670922045215
 30
0.0
  0
VERTEX
  5
95
  8
DEFAULT_LAYER
 10
-1601.544810021448
 20
807.0022697326067
 30
0.0
  0
VERTEX
  5
96
  8
DEFAULT_LAYER
 10
-1601.544810021448
 20
680.4183827190118
 30
0.0
  0
VERTEX
  5
97
  8
DEFAULT_LAYER
 10
-1584.279987549533
 20
663.153560247097
 30
0.0
  0
VERTEX
  5
98
  8
DEFAULT_LAYER
 10
-1567.015165077618
 20
680.4183827190118
 30
0.0
  0
VERTEX
  5
99
  8
DEFAULT_LAYER
 10
-1567.015165077618
 20
807.0022697326067
 30
0.0
  0
SEQEND
  5
9A
  8
DEFAULT_LAYER
  0
POLYLINE
  5
9B
  8
DEFAULT_LAYER
 66
     1
 10
0.0
 20
0.0
 30
0.0
 70
     1
  0
VERTEX
  5
9C
  8
DEFAULT_LAYER
 10
-1607.879687469725
 20
597.1367013996548
 30
0.0
  0
VERTEX
  5
9D
  8
DEFAULT_LAYER
 10
-1600.967495397069
 20
590.2245093269981
 30
0.0
  0
VERTEX
  5
9E
  8
DEFAULT_LAYER
 10
-1600.967495397069
 20
580.4491935521191
 30
0.0
  0
VERTEX
  5
9F
  8
DEFAULT_LAYER
 10
-1591.19217962219
 20
580.4491935521191
 30
0.0
  0
VERTEX
  5
A0
  8
DEFAULT_LAYER
 10
-1584.279987549533
 20
573.5370014794626
 30
0.0
  0
VERTEX
  5
A1
  8
DEFAULT_LAYER
 10
-1577.367795476877
 20
580.4491935521191
 30
0.0
  0
VERTEX
  5
A2
  8
DEFAULT_LAYER
 10
-1567.592479701997
 20
580.4491935521191
 30
0.0
  0
VERTEX
  5
A3
  8
DEFAULT_LAYER
 10
-1567.592479701997
 20
590.2245093269981
 30
0.0
  0
VERTEX
  5
A4
  8
DEFAULT_LAYER
 10
-1560.680287629341
 20
597.1367013996548
 30
0.0
  0
VERTEX
  5
A5
  8
DEFAULT_LAYER
 10
-1567.592479701997
 20
604.0488934723115
 30
0.0
  0
VERTEX
  5
A6
  8
DEFAULT_LAYER
 10
-1567.592479701997
 20
613.8242092471905
 30
0.0
  0
VERTEX
  5
A7
  8
DEFAULT_LAYER
 10
-1577.367795476877
 20
613.8242092471905
 30
0.0
  0
VERTEX
  5
A8
  8
DEFAULT_LAYER
 10
-1584.279987549533
 20
620.7364013198471
 30
0.0
  0
VERTEX
  5
A9
  8
DEFAULT_LAYER
 10
-1591.19217962219
 20
613.8242092471905
 30
0.0
  0
VERTEX
  5
AA
  8
DEFAULT_LAYER
 10
-1600.967495397069
 20
613.8242092471905
 30
0.0
  0
VERTEX
  5
AB
  8
DEFAULT_LAYER
 10
-1600.967495397069
 20
604.0488934723115
 30
0.0
  0
SEQEND
  5
AC
  8
DEFAULT_LAYER
  0
POLYLINE
  5
AD
  8
DEFAULT_LAYER
 66
     1
 10
0.0
 20
0.0
 30
0.0
 70
     1
  0
VERTEX
  5
AE
  8
DEFAULT_LAYER
 10
-1616.645374082796
 20
555.4557328359931
 30
0.0
  0
VERTEX
  5
AF
  8
DEFAULT_LAYER
 10
-1601.544810021448
 20
555.4557328359931
 30
0.0
  0
VERTEX
  5
B0
  8
DEFAULT_LAYER
 10
-1584.279987549533
 20
538.1909103640783
 30
0.0
  0
VERTEX
  5
B1
  8
DEFAULT_LAYER
 10
-1567.015165077618
 20
555.4557328359931
 30
0.0
  0
VERTEX
  5
B2
  8
DEFAULT_LAYER
 10
-1551.91460101627
 20
555.4557328359931
 30
0.0
  0
VERTEX
  5
B3
  8
DEFAULT_LAYER
 10
-1551.91460101627
 20
594.6367013996548
 30
0.0
  0
VERTEX
  5
B4
  8
DEFAULT_LAYER
 10
-1556.109219817475
 20
594.6367013996548
 30
0.0
  0
VERTEX
  5
B5
  8
DEFAULT_LAYER
 10
-1562.592479701997
 20
588.1534415151326
 30
0.0
  0
VERTEX
  5
B6
  8
DEFAULT_LAYER
 10
-1562.592479701997
 20
575.4491935521191
 30
0.0
  0
VERTEX
  5
B7
  8
DEFAULT_LAYER
 10
-1575.296727665011
 20
575.4491935521191
 30
0.0
  0
VERTEX
  5
B8
  8
DEFAULT_LAYER
 10
-1584.279987549533
 20
566.4659336675971
 30
0.0
  0
VERTEX
  5
B9
  8
DEFAULT_LAYER
 10
-1593.263247434055
 20
575.4491935521191
 30
0.0
  0
VERTEX
  5
BA
  8
DEFAULT_LAYER
 10
-1605.967495397069
 20
575.4491935521191
 30
0.0
  0
VERTEX
  5
BB
  8
DEFAULT_LAYER
 10
-1605.967495397069
 20
588.1534415151328
 30
0.0
  0
VERTEX
  5
BC
  8
DEFAULT_LAYER
 10
-1612.450755281591
 20
594.6367013996548
 30
0.0
  0
VERTEX
  5
BD
  8
DEFAULT_LAYER
 10
-1616.645374082796
 20
594.6367013996548
 30
0.0
  0
SEQEND
  5
BE
  8
DEFAULT_LAYER
  0
POLYLINE
  5
BF
  8
DEFAULT_LAYER
 66
     1
 10
0.0
 20
0.0
 30
0.0
 70
     1
  0
VERTEX
  5
C0
  8
DEFAULT_LAYER
 10
-1616.645374082796
 20
638.8176699633166
 30
0.0
  0
VERTEX
  5
C1
  8
DEFAULT_LAYER
 10
-1601.544810021448
 20
638.8176699633166
 30
0.0
  0
VERTEX
  5
C2
  8
DEFAULT_LAYER
 10
-1584.279987549533
 20
656.0824924352314
 30
0.0
  0
VERTEX
  5
C3
  8
DEFAULT_LAYER
 10
-1567.015165077618
 20
638.8176699633166
 30
0.0
  0
VERTEX
  5
C4
  8
DEFAULT_LAYER
 10
-1551.91460101627
 20
638.8176699633166
 30
0.0
  0
VERTEX
  5
C5
  8
DEFAULT_LAYER
 10
-1551.91460101627
 20
599.6367013996548
 30
0.0
  0
VERTEX
  5
C6
  8
DEFAULT_LAYER
 10
-1556.109219817475
 20
599.6367013996548
 30
0.0
  0
VERTEX
  5
C7
  8
DEFAULT_LAYER
 10
-1562.592479701997
 20
606.1199612841771
 30
0.0
  0
VERTEX
  5
C8
  8
DEFAULT_LAYER
 10
-1562.592479701997
 20
618.8242092471905
 30
0.0
  0
VERTEX
  5
C9
  8
DEFAULT_LAYER
 10
-1575.296727665011
 20
618.8242092471905
 30
0.0
  0
VERTEX
  5
CA
  8
DEFAULT_LAYER
 10
-1584.279987549533
 20
627.8074691317125
 30
0.0
  0
VERTEX
  5
CB
  8
DEFAULT_LAYER
 10
-1593.263247434055
 20
618.8242092471905
 30
0.0
  0
VERTEX
  5
CC
  8
DEFAULT_LAYER
 10
-1605.967495397069
 20
618.8242092471905
 30
0.0
  0
VERTEX
  5
CD
  8
DEFAULT_LAYER
 10
-1605.967495397069
 20
606.1199612841768
 30
0.0
  0
VERTEX
  5
CE
  8
DEFAULT_LAYER
 10
-1612.450755281591
 20
599.6367013996548
 30
0.0
  0
VERTEX
  5
CF
  8
DEFAULT_LAYER
 10
-1616.645374082796
 20
599.6367013996548
 30
0.0
  0
SEQEND
  5
D0
  8
DEFAULT_LAYER
  0
POLYLINE
  5
D1
  8
DEFAULT_LAYER
 66
     1
 10
0.0
 20
0.0
 30
0.0
 70
     1
  0
VERTEX
  5
D2
  8
DEFAULT_LAYER
 10
-1562.308058296431
 20
809.3662307632852
 30
0.0
 42
-0.1989123673792581
  0
VERTEX
  5
D3
  8
DEFAULT_LAYER
 10
-1562.015165077618
 20
808.659123982098
 30
0.0
  0
VERTEX
  5
D4
  8
DEFAULT_LAYER
 10
-1562.015165077618
 20
678.7615284695187
 30
0.0
 42
-0.1989123673794444
  0
VERTEX
  5
D5
  8
DEFAULT_LAYER
 10
-1562.308058296431
 20
678.0544216883332
 30
0.0
  0
VERTEX
  5
D6
  8
DEFAULT_LAYER
 10
-1580.744453643601
 20
659.6180263411642
 30
0.0
  0
VERTEX
  5
D7
  8
DEFAULT_LAYER
 10
-1564.944097265753
 20
643.8176699633166
 30
0.0
  0
VERTEX
  5
D8
  8
DEFAULT_LAYER
 10
-1551.91460101627
 20
643.8176699633166
 30
0.0
  0
VERTEX
  5
D9
  8
DEFAULT_LAYER
 10
-1551.91460101627
 20
843.6029824883024
 30
0.0
  0
VERTEX
  5
DA
  8
DEFAULT_LAYER
 10
-1564.944097265752
 20
843.6029824883024
 30
0.0
  0
VERTEX
  5
DB
  8
DEFAULT_LAYER
 10
-1580.7444536436
 20
827.8026261104542
 30
0.0
  0
SEQEND
  5
DC
  8
DEFAULT_LAYER
  0
POLYLINE
  5
DD
  8
DEFAULT_LAYER
 66
     1
 10
0.0
 20
0.0
 30
0.0
 70
     1
  0
VERTEX
  5
DE
  8
DEFAULT_LAYER
 10
-1606.544810021448
 20
385.6142788172098
 30
0.0
 42
0.1989123673793752
  0
VERTEX
  5
DF
  8
DEFAULT_LAYER
 10
-1606.251916802635
 20
384.9071720360242
 30
0.0
  0
VERTEX
  5
E0
  8
DEFAULT_LAYER
 10
-1587.815521455466
 20
366.4707766888555
 30
0.0
  0
VERTEX
  5
E1
  8
DEFAULT_LAYER
 10
-1603.615877833314
 20
350.6704203110074
 30
0.0
  0
VERTEX
  5
E2
  8
DEFAULT_LAYER
 10
-1616.645374082796
 20
350.6704203110074
 30
0.0
  0
VERTEX
  5
E3
  8
DEFAULT_LAYER
 10
-1616.645374082796
 20
550.4557328359931
 30
0.0
  0
VERTEX
  5
E4
  8
DEFAULT_LAYER
 10
-1603.615877833314
 20
550.4557328359931
 30
0.0
  0
VERTEX
  5
E5
  8
DEFAULT_LAYER
 10
-1587.815521455466
 20
534.6553764581452
 30
0.0
  0
VERTEX
  5
E6
  8
DEFAULT_LAYER
 10
-1606.251916802635
 20
516.2189811109765
 30
0.0
 42
0.1989123673796539
  0
VERTEX
  5
E7
  8
DEFAULT_LAYER
 10
-1606.544810021448
 20
515.5118743297899
 30
0.0
  0
SEQEND
  5
E8
  8
DEFAULT_LAYER
  0
POLYLINE
  5
E9
  8
DEFAULT_LAYER
 66
     1
 10
0.0
 20
0.0
 30
0.0
 70
     1
  0
VERTEX
  5
EA
  8
DEFAULT_LAYER
 10
-1616.645374082796
 20
848.6029824883024
 30
0.0
  0
VERTEX
  5
EB
  8
DEFAULT_LAYER
 10
-1601.544810021449
 20
848.6029824883024
 30
0.0
  0
VERTEX
  5
EC
  8
DEFAULT_LAYER
 10
-1584.279987549533
 20
831.3381600163868
 30
0.0
  0
VERTEX
  5
ED
  8
DEFAULT_LAYER
 10
-1567.015165077618
 20
848.6029824883024
 30
0.0
  0
VERTEX
  5
EE
  8
DEFAULT_LAYER
 10
-1551.91460101627
 20
848.6029824883024
 30
0.0
  0
VERTEX
  5
EF
  8
DEFAULT_LAYER
 10
-1551.91460101627
 20
887.7839510519636
 30
0.0
  0
VERTEX
  5
F0
  8
DEFAULT_LAYER
 10
-1556.109219817475
 20
887.7839510519636
 30
0.0
  0
VERTEX
  5
F1
  8
DEFAULT_LAYER
 10
-1562.592479701997
 20
881.3006911674413
 30
0.0
  0
VERTEX
  5
F2
  8
DEFAULT_LAYER
 10
-1562.592479701997
 20
868.5964432044282
 30
0.0
  0
VERTEX
  5
F3
  8
DEFAULT_LAYER
 10
-1575.296727665011
 20
868.5964432044282
 30
0.0
  0
VERTEX
  5
F4
  8
DEFAULT_LAYER
 10
-1584.279987549533
 20
859.613183319906
 30
0.0
  0
VERTEX
  5
F5
  8
DEFAULT_LAYER
 10
-1593.263247434055
 20
868.5964432044282
 30
0.0
  0
VERTEX
  5
F6
  8
DEFAULT_LAYER
 10
-1605.967495397069
 20
868.5964432044282
 30
0.0
  0
VERTEX
  5
F7
  8
DEFAULT_LAYER
 10
-1605.967495397069
 20
881.3006911674418
 30
0.0
  0
VERTEX
  5
F8
  8
DEFAULT_LAYER
 10
-1612.450755281591
 20
887.7839510519636
 30
0.0
  0
VERTEX
  5
F9
  8
DEFAULT_LAYER
 10
-1616.645374082796
 20
887.7839510519636
 30
0.0
  0
SEQEND
  5
FA
  8
DEFAULT_LAYER
  0
POLYLINE
  5
FB
  8
DEFAULT_LAYER
 66
     1
 10
0.0
 20
0.0
 30
0.0
 70
     1
  0
VERTEX
  5
FC
  8
DEFAULT_LAYER
 10
-1616.645374082796
 20
345.6704203110075
 30
0.0
  0
VERTEX
  5
FD
  8
DEFAULT_LAYER
 10
-1601.544810021449
 20
345.6704203110074
 30
0.0
  0
VERTEX
  5
FE
  8
DEFAULT_LAYER
 10
-1584.279987549533
 20
362.9352427829227
 30
0.0
  0
VERTEX
  5
FF
  8
DEFAULT_LAYER
 10
-1567.015165077618
 20
345.6704203110074
 30
0.0
  0
VERTEX
  5
100
  8
DEFAULT_LAYER
 10
-1551.91460101627
 20
345.6704203110075
 30
0.0
  0
VERTEX
  5
101
  8
DEFAULT_LAYER
 10
-1551.91460101627
 20
306.4894517473459
 30
0.0
  0
VERTEX
  5
102
  8
DEFAULT_LAYER
 10
-1556.109219817475
 20
306.4894517473459
 30
0.0
  0
VERTEX
  5
103
  8
DEFAULT_LAYER
 10
-1562.592479701997
 20
312.9727116318683
 30
0.0
  0
VERTEX
  5
104
  8
DEFAULT_LAYER
 10
-1562.592479701997
 20
325.6769595948814
 30
0.0
  0
VERTEX
  5
105
  8
DEFAULT_LAYER
 10
-1575.296727665011
 20
325.6769595948814
 30
0.0
  0
VERTEX
  5
106
  8
DEFAULT_LAYER
 10
-1584.279987549533
 20
334.6602194794036
 30
0.0
  0
VERTEX
  5
107
  8
DEFAULT_LAYER
 10
-1593.263247434055
 20
325.6769595948814
 30
0.0
  0
VERTEX
  5
108
  8
DEFAULT_LAYER
 10
-1605.967495397069
 20
325.6769595948814
 30
0.0
  0
VERTEX
  5
109
  8
DEFAULT_LAYER
 10
-1605.967495397069
 20
312.9727116318679
 30
0.0
  0
VERTEX
  5
10A
  8
DEFAULT_LAYER
 10
-1612.450755281591
 20
306.4894517473459
 30
0.0
  0
VERTEX
  5
10B
  8
DEFAULT_LAYER
 10
-1616.645374082796
 20
306.4894517473459
 30
0.0
  0
SEQEND
  5
10C
  8
DEFAULT_LAYER
  0
POLYLINE
  5
10D
  8
DEFAULT_LAYER
 66
     1
 10
0.0
 20
0.0
 30
0.0
 70
     1
  0
VERTEX
  5
10E
  8
DEFAULT_LAYER
 10
-1562.308058296431
 20
384.9071720360243
 30
0.0
 42
0.198912367379234
  0
VERTEX
  5
10F
  8
DEFAULT_LAYER
 10
-1562.015165077618
 20
385.6142788172116
 30
0.0
  0
VERTEX
  5
110
  8
DEFAULT_LAYER
 10
-1562.015165077618
 20
515.511874329791
 30
0.0
 42
0.198912367379383
  0
VERTEX
  5
111
  8
DEFAULT_LAYER
 10
-1562.308058296431
 20
516.2189811109765
 30
0.0
  0
VERTEX
  5
112
  8
DEFAULT_LAYER
 10
-1580.744453643601
 20
534.6553764581455
 30
0.0
  0
VERTEX
  5
113
  8
DEFAULT_LAYER
 10
-1564.944097265753
 20
550.4557328359931
 30
0.0
  0
VERTEX
  5
114
  8
DEFAULT_LAYER
 10
-1551.91460101627
 20
550.4557328359931
 30
0.0
  0
VERTEX
  5
115
  8
DEFAULT_LAYER
 10
-1551.91460101627
 20
350.6704203110074
 30
0.0
  0
VERTEX
  5
116
  8
DEFAULT_LAYER
 10
-1564.944097265752
 20
350.6704203110074
 30
0.0
  0
VERTEX
  5
117
  8
DEFAULT_LAYER
 10
-1580.7444536436
 20
366.4707766888555
 30
0.0
  0
SEQEND
  5
118
  8
DEFAULT_LAYER
  0
POLYLINE
  5
119
  8
DEFAULT_LAYER
 66
     1
 10
0.0
 20
0.0
 30
0.0
 70
     1
  0
VERTEX
  5
11A
  8
DEFAULT_LAYER
 10
-1606.544810021448
 20
808.6591239820998
 30
0.0
 42
-0.1989123673793468
  0
VERTEX
  5
11B
  8
DEFAULT_LAYER
 10
-1606.251916802635
 20
809.3662307632853
 30
0.0
  0
VERTEX
  5
11C
  8
DEFAULT_LAYER
 10
-1587.815521455466
 20
827.8026261104544
 30
0.0
  0
VERTEX
  5
11D
  8
DEFAULT_LAYER
 10
-1603.615877833314
 20
843.6029824883024
 30
0.0
  0
VERTEX
  5
11E
  8
DEFAULT_LAYER
 10
-1616.645374082796
 20
843.6029824883024
 30
0.0
  0
VERTEX
  5
11F
  8
DEFAULT_LAYER
 10
-1616.645374082796
 20
643.8176699633166
 30
0.0
  0
VERTEX
  5
120
  8
DEFAULT_LAYER
 10
-1603.615877833314
 20
643.8176699633166
 30
0.0
  0
VERTEX
  5
121
  8
DEFAULT_LAYER
 10
-1587.815521455466
 20
659.6180263411645
 30
0.0
  0
VERTEX
  5
122
  8
DEFAULT_LAYER
 10
-1606.251916802635
 20
678.0544216883332
 30
0.0
 42
-0.1989123673796539
  0
VERTEX
  5
123
  8
DEFAULT_LAYER
 10
-1606.544810021448
 20
678.7615284695198
 30
0.0
  0
SEQEND
  5
124
  8
DEFAULT_LAYER
  0
POLYLINE
  5
125
  8
DEFAULT_LAYER
 66
     1
 10
0.0
 20
0.0
 30
0.0
 70
     1
  0
VERTEX
  5
126
  8
DEFAULT_LAYER
 10
-1815.589926026744
 20
653.8840037583385
 30
0.0
 42
0.4220169115326597
  0
VERTEX
  5
127
  8
DEFAULT_LAYER
 10
-1815.589926026744
 20
540.3893990409719
 30
0.0
  0
VERTEX
  5
128
  8
DEFAULT_LAYER
 10
-1815.589926026744
 20
160.5790251570507
 30
0.0
  0
VERTEX
  5
129
  8
DEFAULT_LAYER
 10
-1848.542091691363
 20
160.5790251570507
 30
0.0
  0
VERTEX
  5
12A
  8
DEFAULT_LAYER
 10
-1848.542091691363
 20
1033.694377642259
 30
0.0
  0
VERTEX
  5
12B
  8
DEFAULT_LAYER
 10
-1815.589926026744
 20
1033.694377642259
 30
0.0
  0
SEQEND
  5
12C
  8
DEFAULT_LAYER
  0
POLYLINE
  5
12D
  8
DEFAULT_LAYER
 66
     1
 10
0.0
 20
0.0
 30
0.0
 70
     1
  0
VERTEX
  5
12E
  8
DEFAULT_LAYER
 10
-1755.330640792597
 20
671.1756699529985
 30
0.0
 42
-0.1239944790150326
  0
VERTEX
  5
12F
  8
DEFAULT_LAYER
 10
-1720.85671195387
 20
659.9744114667645
 30
0.0
  0
VERTEX
  5
130
  8
DEFAULT_LAYER
 10
-1725.484242539456
 20
653.6051620323369
 30
0.0
  0
VERTEX
  5
131
  8
DEFAULT_LAYER
 10
-1743.244404676469
 20
649.7227290065491
 30
0.0
  0
VERTEX
  5
132
  8
DEFAULT_LAYER
 10
-1755.330640792597
 20
663.3028446863937
 30
0.0
  0
SEQEND
  5
133
  8
DEFAULT_LAYER
  0
POLYLINE
  5
134
  8
DEFAULT_LAYER
 66
     1
 10
0.0
 20
0.0
 30
0.0
 70
     1
  0
VERTEX
  5
135
  8
DEFAULT_LAYER
 10
-1829.200799323152
 20
624.7712835101062
 30
0.0
 42
-0.1239944790150334
  0
VERTEX
  5
136
  8
DEFAULT_LAYER
 10
-1807.894739575073
 20
654.0965589438398
 30
0.0
  0
VERTEX
  5
137
  8
DEFAULT_LAYER
 10
-1803.267208989487
 20
647.7273095094122
 30
0.0
  0
VERTEX
  5
138
  8
DEFAULT_LAYER
 10
-1805.062987684424
 20
629.636653794056
 30
0.0
  0
VERTEX
  5
139
  8
DEFAULT_LAYER
 10
-1821.713297551694
 20
622.3384467089809
 30
0.0
  0
SEQEND
  5
13A
  8
DEFAULT_LAYER
  0
POLYLINE
  5
13B
  8
DEFAULT_LAYER
 66
     1
 10
0.0
 20
0.0
 30
0.0
 70
     1
  0
VERTEX
  5
13C
  8
DEFAULT_LAYER
 10
-1832.290969266901
 20
579.0126844521553
 30
0.0
 42
-0.1239944790150327
  0
VERTEX
  5
13D
  8
DEFAULT_LAYER
 10
-1832.290969266901
 20
615.2607183471547
 30
0.0
  0
VERTEX
  5
13E
  8
DEFAULT_LAYER
 10
-1824.803467495443
 20
612.8278815460294
 30
0.0
  0
VERTEX
  5
13F
  8
DEFAULT_LAYER
 10
-1815.622862343997
 20
597.1367013996551
 30
0.0
  0
VERTEX
  5
140
  8
DEFAULT_LAYER
 10
-1824.803467495443
 20
581.4455212532807
 30
0.0
  0
SEQEND
  5
141
  8
DEFAULT_LAYER
  0
POLYLINE
  5
142
  8
DEFAULT_LAYER
 66
     1
 10
0.0
 20
0.0
 30
0.0
 70
     1
  0
VERTEX
  5
143
  8
DEFAULT_LAYER
 10
-1760.330640792597
 20
653.8793080710223
 30
0.0
  0
VERTEX
  5
144
  8
DEFAULT_LAYER
 10
-1773.836652217083
 20
638.7039304136977
 30
0.0
  0
VERTEX
  5
145
  8
DEFAULT_LAYER
 10
-1793.683108170659
 20
643.0424345019244
 30
0.0
  0
VERTEX
  5
146
  8
DEFAULT_LAYER
 10
-1795.689837754347
 20
622.826661748484
 30
0.0
  0
VERTEX
  5
147
  8
DEFAULT_LAYER
 10
-1814.296066618974
 20
614.6711311662407
 30
0.0
  0
VERTEX
  5
148
  8
DEFAULT_LAYER
 10
-1804.037011867124
 20
597.1367013996548
 30
0.0
  0
VERTEX
  5
149
  8
DEFAULT_LAYER
 10
-1814.296066618974
 20
579.602271633069
 30
0.0
  0
VERTEX
  5
14A
  8
DEFAULT_LAYER
 10
-1795.689837754347
 20
571.4467410508257
 30
0.0
  0
VERTEX
  5
14B
  8
DEFAULT_LAYER
 10
-1793.683108170659
 20
551.2309682973853
 30
0.0
  0
VERTEX
  5
14C
  8
DEFAULT_LAYER
 10
-1773.836652217083
 20
555.569472385612
 30
0.0
  0
VERTEX
  5
14D
  8
DEFAULT_LAYER
 10
-1760.330640792597
 20
540.3940947282874
 30
0.0
  0
VERTEX
  5
14E
  8
DEFAULT_LAYER
 10
-1746.82462936811
 20
555.569472385612
 30
0.0
  0
VERTEX
  5
14F
  8
DEFAULT_LAYER
 10
-1726.978173414535
 20
551.2309682973853
 30
0.0
  0
VERTEX
  5
150
  8
DEFAULT_LAYER
 10
-1724.971443830847
 20
571.4467410508257
 30
0.0
  0
VERTEX
  5
151
  8
DEFAULT_LAYER
 10
-1706.36521496622
 20
579.602271633069
 30
0.0
  0
VERTEX
  5
152
  8
DEFAULT_LAYER
 10
-1716.62426971807
 20
597.1367013996548
 30
0.0
  0
VERTEX
  5
153
  8
DEFAULT_LAYER
 10
-1706.36521496622
 20
614.6711311662407
 30
0.0
  0
VERTEX
  5
154
  8
DEFAULT_LAYER
 10
-1724.971443830847
 20
622.826661748484
 30
0.0
  0
VERTEX
  5
155
  8
DEFAULT_LAYER
 10
-1726.978173414534
 20
643.0424345019244
 30
0.0
  0
VERTEX
  5
156
  8
DEFAULT_LAYER
 10
-1746.82462936811
 20
638.7039304136977
 30
0.0
  0
SEQEND
  5
157
  8
DEFAULT_LAYER
  0
POLYLINE
  5
158
  8
DEFAULT_LAYER
 66
     1
 10
0.0
 20
0.0
 30
0.0
 70
     1
  0
VERTEX
  5
159
  8
DEFAULT_LAYER
 10
-1799.804569631324
 20
659.9744114667648
 30
0.0
 42
-0.1239944790150335
  0
VERTEX
  5
15A
  8
DEFAULT_LAYER
 10
-1765.330640792597
 20
671.1756699529985
 30
0.0
  0
VERTEX
  5
15B
  8
DEFAULT_LAYER
 10
-1765.330640792597
 20
663.3028446863937
 30
0.0
  0
VERTEX
  5
15C
  8
DEFAULT_LAYER
 10
-1777.416876908724
 20
649.7227290065493
 30
0.0
  0
VERTEX
  5
15D
  8
DEFAULT_LAYER
 10
-1795.177039045738
 20
653.6051620323369
 30
0.0
  0
SEQEND
  5
15E
  8
DEFAULT_LAYER
  0
POLYLINE
  5
15F
  8
DEFAULT_LAYER
 66
     1
 10
0.0
 20
0.0
 30
0.0
 70
     1
  0
VERTEX
  5
160
  8
DEFAULT_LAYER
 10
-1848.542091691363
 20
1104.8334052775
 30
0.0
  0
VERTEX
  5
161
  8
DEFAULT_LAYER
 10
-1805.589926026744
 20
1104.8334052775
 30
0.0
  0
VERTEX
  5
162
  8
DEFAULT_LAYER
 10
-1805.589926026744
 20
1039.981439163499
 30
0.0
  0
VERTEX
  5
163
  8
DEFAULT_LAYER
 10
-1796.521928415499
 20
1039.981439163499
 30
0.0
  0
VERTEX
  5
164
  8
DEFAULT_LAYER
 10
-1796.521928415499
 20
1120.823811065992
 30
0.0
  0
VERTEX
  5
165
  8
DEFAULT_LAYER
 10
-1848.542091691363
 20
1120.823811065992
 30
0.0
  0
SEQEND
  5
166
  8
DEFAULT_LAYER
  0
POLYLINE
  5
167
  8
DEFAULT_LAYER
 66
     1
 10
0.0
 20
0.0
 30
0.0
 70
     1
  0
VERTEX
  5
168
  8
DEFAULT_LAYER
 10
-1815.589926026744
 20
1098.790979479621
 30
0.0
  0
VERTEX
  5
169
  8
DEFAULT_LAYER
 10
-1837.253270026983
 20
1098.790979479621
 30
0.0
  0
VERTEX
  5
16A
  8
DEFAULT_LAYER
 10
-1837.253270026983
 20
1039.981439163499
 30
0.0
  0
VERTEX
  5
16B
  8
DEFAULT_LAYER
 10
-1815.589926026744
 20
1039.981439163499
 30
0.0
  0
SEQEND
  5
16C
  8
DEFAULT_LAYER
  0
POLYLINE
  5
16D
  8
DEFAULT_LAYER
 66
     1
 10
0.0
 20
0.0
 30
0.0
 70
     1
  0
VERTEX
  5
16E
  8
DEFAULT_LAYER
 10
-1705.071355558449
 20
1098.790979479621
 30
0.0
  0
VERTEX
  5
16F
  8
DEFAULT_LAYER
 10
-1683.408011558211
 20
1098.790979479621
 30
0.0
  0
VERTEX
  5
170
  8
DEFAULT_LAYER
 10
-1683.408011558211
 20
1039.981439163499
 30
0.0
  0
VERTEX
  5
171
  8
DEFAULT_LAYER
 10
-1705.071355558449
 20
1039.981439163499
 30
0.0
  0
SEQEND
  5
172
  8
DEFAULT_LAYER
  0
POLYLINE
  5
173
  8
DEFAULT_LAYER
 66
     1
 10
0.0
 20
0.0
 30
0.0
 70
     1
  0
VERTEX
  5
174
  8
DEFAULT_LAYER
 10
-1705.07135555845
 20
540.3893990409717
 30
0.0
 42
0.4220169115326593
  0
VERTEX
  5
175
  8
DEFAULT_LAYER
 10
-1705.07135555845
 20
653.8840037583383
 30
0.0
  0
VERTEX
  5
176
  8
DEFAULT_LAYER
 10
-1705.071355558449
 20
1033.694377642259
 30
0.0
  0
VERTEX
  5
177
  8
DEFAULT_LAYER
 10
-1672.119189893831
 20
1033.694377642259
 30
0.0
  0
VERTEX
  5
178
  8
DEFAULT_LAYER
 10
-1672.119189893831
 20
160.5790251570507
 30
0.0
  0
VERTEX
  5
179
  8
DEFAULT_LAYER
 10
-1705.071355558449
 20
160.5790251570507
 30
0.0
  0
SEQEND
  5
17A
  8
DEFAULT_LAYER
  0
POLYLINE
  5
17B
  8
DEFAULT_LAYER
 66
     1
 10
0.0
 20
0.0
 30
0.0
 70
     1
  0
VERTEX
  5
17C
  8
DEFAULT_LAYER
 10
-1672.119189893831
 20
1120.823811065992
 30
0.0
  0
VERTEX
  5
17D
  8
DEFAULT_LAYER
 10
-1672.119189893831
 20
1104.8334052775
 30
0.0
  0
VERTEX
  5
17E
  8
DEFAULT_LAYER
 10
-1715.071355558449
 20
1104.8334052775
 30
0.0
  0
VERTEX
  5
17F
  8
DEFAULT_LAYER
 10
-1715.071355558449
 20
1039.981439163499
 30
0.0
  0
VERTEX
  5
180
  8
DEFAULT_LAYER
 10
-1724.139353169694
 20
1039.981439163499
 30
0.0
  0
VERTEX
  5
181
  8
DEFAULT_LAYER
 10
-1724.139353169694
 20
1120.823811065992
 30
0.0
  0
SEQEND
  5
182
  8
DEFAULT_LAYER
  0
POLYLINE
  5
183
  8
DEFAULT_LAYER
 66
     1
 10
0.0
 20
0.0
 30
0.0
 70
     1
  0
VERTEX
  5
184
  8
DEFAULT_LAYER
 10
-1720.85671195387
 20
534.2989913325451
 30
0.0
 42
-0.1239944790150335
  0
VERTEX
  5
185
  8
DEFAULT_LAYER
 10
-1755.330640792597
 20
523.0977328463114
 30
0.0
  0
VERTEX
  5
186
  8
DEFAULT_LAYER
 10
-1755.330640792597
 20
530.9705581129163
 30
0.0
  0
VERTEX
  5
187
  8
DEFAULT_LAYER
 10
-1743.244404676469
 20
544.5506737927608
 30
0.0
  0
VERTEX
  5
188
  8
DEFAULT_LAYER
 10
-1725.484242539456
 20
540.6682407669732
 30
0.0
  0
SEQEND
  5
189
  8
DEFAULT_LAYER
  0
POLYLINE
  5
18A
  8
DEFAULT_LAYER
 66
     1
 10
0.0
 20
0.0
 30
0.0
 70
     1
  0
VERTEX
  5
18B
  8
DEFAULT_LAYER
 10
-1765.330640792597
 20
523.0977328463114
 30
0.0
 42
-0.1239944790150326
  0
VERTEX
  5
18C
  8
DEFAULT_LAYER
 10
-1799.804569631324
 20
534.2989913325454
 30
0.0
  0
VERTEX
  5
18D
  8
DEFAULT_LAYER
 10
-1795.177039045738
 20
540.6682407669732
 30
0.0
  0
VERTEX
  5
18E
  8
DEFAULT_LAYER
 10
-1777.416876908724
 20
544.5506737927608
 30
0.0
  0
VERTEX
  5
18F
  8
DEFAULT_LAYER
 10
-1765.330640792597
 20
530.9705581129163
 30
0.0
  0
SEQEND
  5
190
  8
DEFAULT_LAYER
  0
POLYLINE
  5
191
  8
DEFAULT_LAYER
 66
     1
 10
0.0
 20
0.0
 30
0.0
 70
     1
  0
VERTEX
  5
192
  8
DEFAULT_LAYER
 10
-1691.460482262042
 20
569.5021192892037
 30
0.0
 42
-0.1239944790150334
  0
VERTEX
  5
193
  8
DEFAULT_LAYER
 10
-1712.76654201012
 20
540.1768438554701
 30
0.0
  0
VERTEX
  5
194
  8
DEFAULT_LAYER
 10
-1717.394072595706
 20
546.546093289898
 30
0.0
  0
VERTEX
  5
195
  8
DEFAULT_LAYER
 10
-1715.59829390077
 20
564.6367490052539
 30
0.0
  0
VERTEX
  5
196
  8
DEFAULT_LAYER
 10
-1698.9479840335
 20
571.934956090329
 30
0.0
  0
SEQEND
  5
197
  8
DEFAULT_LAYER
  0
POLYLINE
  5
198
  8
DEFAULT_LAYER
 66
     1
 10
0.0
 20
0.0
 30
0.0
 70
     1
  0
VERTEX
  5
199
  8
DEFAULT_LAYER
 10
-1705.071355558449
 20
95.48242331968942
 30
0.0
  0
VERTEX
  5
19A
  8
DEFAULT_LAYER
 10
-1683.408011558211
 20
95.48242331968942
 30
0.0
  0
VERTEX
  5
19B
  8
DEFAULT_LAYER
 10
-1683.408011558211
 20
154.2919636358109
 30
0.0
  0
VERTEX
  5
19C
  8
DEFAULT_LAYER
 10
-1705.071355558449
 20
154.2919636358109
 30
0.0
  0
SEQEND
  5
19D
  8
DEFAULT_LAYER
  0
POLYLINE
  5
19E
  8
DEFAULT_LAYER
 66
     1
 10
0.0
 20
0.0
 30
0.0
 70
     1
  0
VERTEX
  5
19F
  8
DEFAULT_LAYER
 10
-1848.542091691363
 20
73.4495917333175
 30
0.0
  0
VERTEX
  5
1A0
  8
DEFAULT_LAYER
 10
-1796.521928415499
 20
73.4495917333175
 30
0.0
  0
VERTEX
  5
1A1
  8
DEFAULT_LAYER
 10
-1796.521928415499
 20
154.2919636358109
 30
0.0
  0
VERTEX
  5
1A2
  8
DEFAULT_LAYER
 10
-1805.589926026744
 20
154.2919636358108
 30
0.0
  0
VERTEX
  5
1A3
  8
DEFAULT_LAYER
 10
-1805.589926026744
 20
89.43999752180963
 30
0.0
  0
VERTEX
  5
1A4
  8
DEFAULT_LAYER
 10
-1848.542091691363
 20
89.43999752180963
 30
0.0
  0
SEQEND
  5
1A5
  8
DEFAULT_LAYER
  0
POLYLINE
  5
1A6
  8
DEFAULT_LAYER
 66
     1
 10
0.0
 20
0.0
 30
0.0
 70
     1
  0
VERTEX
  5
1A7
  8
DEFAULT_LAYER
 10
-1815.589926026744
 20
95.48242331968942
 30
0.0
  0
VERTEX
  5
1A8
  8
DEFAULT_LAYER
 10
-1837.253270026983
 20
95.48242331968942
 30
0.0
  0
VERTEX
  5
1A9
  8
DEFAULT_LAYER
 10
-1837.253270026983
 20
154.2919636358109
 30
0.0
  0
VERTEX
  5
1AA
  8
DEFAULT_LAYER
 10
-1815.589926026744
 20
154.2919636358109
 30
0.0
  0
SEQEND
  5
1AB
  8
DEFAULT_LAYER
  0
POLYLINE
  5
1AC
  8
DEFAULT_LAYER
 66
     1
 10
0.0
 20
0.0
 30
0.0
 70
     1
  0
VERTEX
  5
1AD
  8
DEFAULT_LAYER
 10
-1807.894739575073
 20
540.1768438554701
 30
0.0
 42
-0.1239944790150331
  0
VERTEX
  5
1AE
  8
DEFAULT_LAYER
 10
-1829.200799323151
 20
569.5021192892038
 30
0.0
  0
VERTEX
  5
1AF
  8
DEFAULT_LAYER
 10
-1821.713297551694
 20
571.934956090329
 30
0.0
  0
VERTEX
  5
1B0
  8
DEFAULT_LAYER
 10
-1805.062987684424
 20
564.6367490052542
 30
0.0
  0
VERTEX
  5
1B1
  8
DEFAULT_LAYER
 10
-1803.267208989487
 20
546.546093289898
 30
0.0
  0
SEQEND
  5
1B2
  8
DEFAULT_LAYER
  0
POLYLINE
  5
1B3
  8
DEFAULT_LAYER
 66
     1
 10
0.0
 20
0.0
 30
0.0
 70
     1
  0
VERTEX
  5
1B4
  8
DEFAULT_LAYER
 10
-1688.370312318293
 20
615.2607183471547
 30
0.0
 42
-0.1239944790150334
  0
VERTEX
  5
1B5
  8
DEFAULT_LAYER
 10
-1688.370312318293
 20
579.0126844521552
 30
0.0
  0
VERTEX
  5
1B6
  8
DEFAULT_LAYER
 10
-1695.85781408975
 20
581.4455212532807
 30
0.0
  0
VERTEX
  5
1B7
  8
DEFAULT_LAYER
 10
-1705.038419241197
 20
597.1367013996548
 30
0.0
  0
VERTEX
  5
1B8
  8
DEFAULT_LAYER
 10
-1695.85781408975
 20
612.8278815460292
 30
0.0
  0
SEQEND
  5
1B9
  8
DEFAULT_LAYER
  0
POLYLINE
  5
1BA
  8
DEFAULT_LAYER
 66
     1
 10
0.0
 20
0.0
 30
0.0
 70
     1
  0
VERTEX
  5
1BB
  8
DEFAULT_LAYER
 10
-1712.766542010121
 20
654.0965589438398
 30
0.0
 42
-0.1239944790150331
  0
VERTEX
  5
1BC
  8
DEFAULT_LAYER
 10
-1691.460482262042
 20
624.7712835101061
 30
0.0
  0
VERTEX
  5
1BD
  8
DEFAULT_LAYER
 10
-1698.9479840335
 20
622.3384467089809
 30
0.0
  0
VERTEX
  5
1BE
  8
DEFAULT_LAYER
 10
-1715.598293900769
 20
629.6366537940557
 30
0.0
  0
VERTEX
  5
1BF
  8
DEFAULT_LAYER
 10
-1717.394072595706
 20
647.727309509412
 30
0.0
  0
SEQEND
  5
1C0
  8
DEFAULT_LAYER
  0
POLYLINE
  5
1C1
  8
DEFAULT_LAYER
 66
     1
 10
0.0
 20
0.0
 30
0.0
 70
     1
  0
VERTEX
  5
1C2
  8
DEFAULT_LAYER
 10
-1672.119189893831
 20
73.4495917333175
 30
0.0
  0
VERTEX
  5
1C3
  8
DEFAULT_LAYER
 10
-1724.139353169694
 20
73.4495917333175
 30
0.0
  0
VERTEX
  5
1C4
  8
DEFAULT_LAYER
 10
-1724.139353169694
 20
154.2919636358109
 30
0.0
  0
VERTEX
  5
1C5
  8
DEFAULT_LAYER
 10
-1715.071355558449
 20
154.2919636358108
 30
0.0
  0
VERTEX
  5
1C6
  8
DEFAULT_LAYER
 10
-1715.071355558449
 20
89.43999752180963
 30
0.0
  0
VERTEX
  5
1C7
  8
DEFAULT_LAYER
 10
-1672.119189893831
 20
89.43999752180963
 30
0.0
  0
SEQEND
  5
1C8
  8
DEFAULT_LAYER
  0
POLYLINE
  5
1C9
  8
DEFAULT_LAYER
 66
     1
 10
0.0
 20
0.0
 30
0.0
 70
     1
  0
VERTEX
  5
1CA
  8
DEFAULT_LAYER
 10
-1858.542091691363
 20
42.01352747368134
 30
0.0
  0
VERTEX
  5
1CB
  8
DEFAULT_LAYER
 10
-1662.119189893831
 20
42.01352747368134
 30
0.0
  0
VERTEX
  5
1CC
  8
DEFAULT_LAYER
 10
-1662.119189893831
 20
1152.259875325629
 30
0.0
  0
VERTEX
  5
1CD
  8
DEFAULT_LAYER
 10
-1858.542091691363
 20
1152.259875325629
 30
0.0
  0
SEQEND
  5
1CE
  8
DEFAULT_LAYER
  0
POLYLINE
  5
1CF
  8
DEFAULT_LAYER
 66
     1
 10
0.0
 20
0.0
 30
0.0
 70
     1
  0
VERTEX
  5
1D0
  8
DEFAULT_LAYER
 10
-1755.330640792597
 20
518.0870655397937
 30
0.0
 42
0.1371107396919881
  0
VERTEX
  5
1D1
  8
DEFAULT_LAYER
 10
-1715.07135555845
 20
532.1333012603488
 30
0.0
  0
VERTEX
  5
1D2
  8
DEFAULT_LAYER
 10
-1715.071355558449
 20
160.5790251570507
 30
0.0
  0
VERTEX
  5
1D3
  8
DEFAULT_LAYER
 10
-1734.139353169694
 20
160.5790251570507
 30
0.0
  0
VERTEX
  5
1D4
  8
DEFAULT_LAYER
 10
-1734.139353169694
 20
67.97274824551769
 30
0.0
 42
1.103169972747786
  0
VERTEX
  5
1D5
  8
DEFAULT_LAYER
 10
-1743.304180412992
 20
61.06419550530598
 30
0.0
 42
-1.902607734120264
  0
VERTEX
  5
1D6
  8
DEFAULT_LAYER
 10
-1739.629418317134
 20
58.7613445919021
 30
0.0
 42
-0.5056934305980767
  0
VERTEX
  5
1D7
  8
DEFAULT_LAYER
 10
-1755.330640792597
 20
67.3357894822355
 30
0.0
  0
SEQEND
  5
1D8
  8
DEFAULT_LAYER
  0
POLYLINE
  5
1D9
  8
DEFAULT_LAYER
 66
     1
 10
0.0
 20
0.0
 30
0.0
 70
     1
  0
VERTEX
  5
1DA
  8
DEFAULT_LAYER
 10
-1786.5219284155
 20
67.9727482455176
 30
0.0
 42
-1.103169972747824
  0
VERTEX
  5
1DB
  8
DEFAULT_LAYER
 10
-1777.357101172202
 20
61.06419550530598
 30
0.0
 42
1.902607734120439
  0
VERTEX
  5
1DC
  8
DEFAULT_LAYER
 10
-1781.031863268059
 20
58.76134459190237
 30
0.0
 42
0.5056934305980685
  0
VERTEX
  5
1DD
  8
DEFAULT_LAYER
 10
-1765.330640792597
 20
67.3357894822355
 30
0.0
  0
VERTEX
  5
1DE
  8
DEFAULT_LAYER
 10
-1765.330640792597
 20
518.0870655397936
 30
0.0
 42
-0.1371107396919818
  0
VERTEX
  5
1DF
  8
DEFAULT_LAYER
 10
-1805.589926026744
 20
532.1333012603487
 30
0.0
  0
VERTEX
  5
1E0
  8
DEFAULT_LAYER
 10
-1805.589926026744
 20
160.5790251570507
 30
0.0
  0
VERTEX
  5
1E1
  8
DEFAULT_LAYER
 10
-1786.521928415499
 20
160.5790251570507
 30
0.0
  0
SEQEND
  5
1E2
  8
DEFAULT_LAYER
  0
POLYLINE
  5
1E3
  8
DEFAULT_LAYER
 66
     1
 10
0.0
 20
0.0
 30
0.0
 70
     1
  0
VERTEX
  5
1E4
  8
DEFAULT_LAYER
 10
-1738.3344124927
 20
52.01352747368132
 30
0.0
 42
0.3051809271200794
  0
VERTEX
  5
1E5
  8
DEFAULT_LAYER
 10
-1731.618672186709
 20
63.4495917333175
 30
0.0
  0
VERTEX
  5
1E6
  8
DEFAULT_LAYER
 10
-1672.119189893831
 20
63.4495917333175
 30
0.0
  0
VERTEX
  5
1E7
  8
DEFAULT_LAYER
 10
-1672.119189893831
 20
52.01352747368134
 30
0.0
  0
SEQEND
  5
1E8
  8
DEFAULT_LAYER
  0
POLYLINE
  5
1E9
  8
DEFAULT_LAYER
 66
     1
 10
0.0
 20
0.0
 30
0.0
 70
     1
  0
VERTEX
  5
1EA
  8
DEFAULT_LAYER
 10
-1765.330640792597
 20
1132.200250513589
 30
0.0
 42
0.2737583788297857
  0
VERTEX
  5
1EB
  8
DEFAULT_LAYER
 10
-1772.051111997334
 20
1142.259875325629
 30
0.0
  0
VERTEX
  5
1EC
  8
DEFAULT_LAYER
 10
-1765.330640792597
 20
1142.259875325629
 30
0.0
  0
SEQEND
  5
1ED
  8
DEFAULT_LAYER
  0
POLYLINE
  5
1EE
  8
DEFAULT_LAYER
 66
     1
 10
0.0
 20
0.0
 30
0.0
 70
     1
  0
VERTEX
  5
1EF
  8
DEFAULT_LAYER
 10
-1786.5219284155
 20
1126.300654553792
 30
0.0
 42
1.103169972747853
  0
VERTEX
  5
1F0
  8
DEFAULT_LAYER
 10
-1777.357101172202
 20
1133.209207294004
 30
0.0
 42
-1.902607734120413
  0
VERTEX
  5
1F1
  8
DEFAULT_LAYER
 10
-1781.031863268059
 20
1135.512058207408
 30
0.0
 42
-0.5056934305981325
  0
VERTEX
  5
1F2
  8
DEFAULT_LAYER
 10
-1765.330640792597
 20
1126.937613317074
 30
0.0
  0
VERTEX
  5
1F3
  8
DEFAULT_LAYER
 10
-1765.330640792597
 20
676.1863372595162
 30
0.0
 42
0.1371107396919829
  0
VERTEX
  5
1F4
  8
DEFAULT_LAYER
 10
-1805.589926026744
 20
662.1401015389614
 30
0.0
  0
VERTEX
  5
1F5
  8
DEFAULT_LAYER
 10
-1805.589926026744
 20
1033.694377642259
 30
0.0
  0
VERTEX
  5
1F6
  8
DEFAULT_LAYER
 10
-1786.521928415499
 20
1033.694377642259
 30
0.0
  0
SEQEND
  5
1F7
  8
DEFAULT_LAYER
  0
POLYLINE
  5
1F8
  8
DEFAULT_LAYER
 66
     1
 10
0.0
 20
0.0
 30
0.0
 70
     1
  0
VERTEX
  5
1F9
  8
DEFAULT_LAYER
 10
-1755.330640792597
 20
62.07315228572117
 30
0.0
 42
0.2737583788297858
  0
VERTEX
  5
1FA
  8
DEFAULT_LAYER
 10
-1748.61016958786
 20
52.01352747368134
 30
0.0
  0
VERTEX
  5
1FB
  8
DEFAULT_LAYER
 10
-1755.330640792597
 20
52.01352747368134
 30
0.0
  0
SEQEND
  5
1FC
  8
DEFAULT_LAYER
  0
POLYLINE
  5
1FD
  8
DEFAULT_LAYER
 66
     1
 10
0.0
 20
0.0
 30
0.0
 70
     1
  0
VERTEX
  5
1FE
  8
DEFAULT_LAYER
 10
-1731.618672186709
 20
1130.823811065992
 30
0.0
  0
VERTEX
  5
1FF
  8
DEFAULT_LAYER
 10
-1672.119189893831
 20
1130.823811065992
 30
0.0
  0
VERTEX
  5
200
  8
DEFAULT_LAYER
 10
-1672.119189893831
 20
1142.259875325629
 30
0.0
  0
VERTEX
  5
201
  8
DEFAULT_LAYER
 10
-1738.3344124927
 20
1142.259875325629
 30
0.0
 42
-0.3051809271201043
  0
SEQEND
  5
202
  8
DEFAULT_LAYER
  0
POLYLINE
  5
203
  8
DEFAULT_LAYER
 66
     1
 10
0.0
 20
0.0
 30
0.0
 70
     1
  0
VERTEX
  5
204
  8
DEFAULT_LAYER
 10
-1765.330640792597
 20
62.07315228572117
 30
0.0
 42
-0.2737583788297864
  0
VERTEX
  5
205
  8
DEFAULT_LAYER
 10
-1772.051111997334
 20
52.01352747368133
 30
0.0
  0
VERTEX
  5
206
  8
DEFAULT_LAYER
 10
-1765.330640792597
 20
52.01352747368134
 30
0.0
  0
SEQEND
  5
207
  8
DEFAULT_LAYER
  0
POLYLINE
  5
208
  8
DEFAULT_LAYER
 66
     1
 10
0.0
 20
0.0
 30
0.0
 70
     1
  0
VERTEX
  5
209
  8
DEFAULT_LAYER
 10
-1782.326869092494
 20
1142.259875325628
 30
0.0
 42
0.3051809271200709
  0
VERTEX
  5
20A
  8
DEFAULT_LAYER
 10
-1789.042609398485
 20
1130.823811065992
 30
0.0
  0
VERTEX
  5
20B
  8
DEFAULT_LAYER
 10
-1848.542091691363
 20
1130.823811065992
 30
0.0
  0
VERTEX
  5
20C
  8
DEFAULT_LAYER
 10
-1848.542091691363
 20
1142.259875325629
 30
0.0
  0
SEQEND
  5
20D
  8
DEFAULT_LAYER
  0
POLYLINE
  5
20E
  8
DEFAULT_LAYER
 66
     1
 10
0.0
 20
0.0
 30
0.0
 70
     1
  0
VERTEX
  5
20F
  8
DEFAULT_LAYER
 10
-1782.326869092494
 20
52.01352747368132
 30
0.0
 42
-0.3051809271200753
  0
VERTEX
  5
210
  8
DEFAULT_LAYER
 10
-1789.042609398485
 20
63.4495917333175
 30
0.0
  0
VERTEX
  5
211
  8
DEFAULT_LAYER
 10
-1848.542091691363
 20
63.4495917333175
 30
0.0
  0
VERTEX
  5
212
  8
DEFAULT_LAYER
 10
-1848.542091691363
 20
52.01352747368134
 30
0.0
  0
SEQEND
  5
213
  8
DEFAULT_LAYER
  0
POLYLINE
  5
214
  8
DEFAULT_LAYER
 66
     1
 10
0.0
 20
0.0
 30
0.0
 70
     1
  0
VERTEX
  5
215
  8
DEFAULT_LAYER
 10
-1755.330640792597
 20
1132.200250513589
 30
0.0
 42
-0.2737583788297882
  0
VERTEX
  5
216
  8
DEFAULT_LAYER
 10
-1748.61016958786
 20
1142.259875325629
 30
0.0
  0
VERTEX
  5
217
  8
DEFAULT_LAYER
 10
-1755.330640792597
 20
1142.259875325629
 30
0.0
  0
SEQEND
  5
218
  8
DEFAULT_LAYER
  0
POLYLINE
  5
219
  8
DEFAULT_LAYER
 66
     1
 10
0.0
 20
0.0
 30
0.0
 70
     1
  0
VERTEX
  5
21A
  8
DEFAULT_LAYER
 10
-1755.330640792597
 20
1126.937613317075
 30
0.0
  0
VERTEX
  5
21B
  8
DEFAULT_LAYER
 10
-1755.330640792597
 20
676.1863372595163
 30
0.0
 42
-0.1371107396919791
  0
VERTEX
  5
21C
  8
DEFAULT_LAYER
 10
-1715.07135555845
 20
662.1401015389612
 30
0.0
  0
VERTEX
  5
21D
  8
DEFAULT_LAYER
 10
-1715.071355558449
 20
1033.694377642259
 30
0.0
  0
VERTEX
  5
21E
  8
DEFAULT_LAYER
 10
-1734.139353169694
 20
1033.694377642259
 30
0.0
  0
VERTEX
  5
21F
  8
DEFAULT_LAYER
 10
-1734.139353169694
 20
1126.300654553792
 30
0.0
 42
-1.103169972747778
  0
VERTEX
  5
220
  8
DEFAULT_LAYER
 10
-1743.304180412992
 20
1133.209207294004
 30
0.0
 42
1.902607734120234
  0
VERTEX
  5
221
  8
DEFAULT_LAYER
 10
-1739.629418317134
 20
1135.512058207408
 30
0.0
 42
0.5056934305981442
  0
SEQEND
  5
222
  8
DEFAULT_LAYER
  0
ENDSEC
  0
EOF
