  0
SECTION
  2
HEADER
  9
$ACADVER
  1
AC1009
  9
$DWGCODEPAGE
  3
ansi_1252
  9
$INSBASE
 10
0.0
 20
0.0
 30
0.0
  9
$EXTMIN
 10
1.000000000000000E+20
 20
1.000000000000000E+20
 30
1.000000000000000E+20
  9
$EXTMAX
 10
-1.000000000000000E+20
 20
-1.000000000000000E+20
 30
-1.000000000000000E+20
  9
$LIMMIN
 10
0.0
 20
0.0
  9
$LIMMAX
 10
12.0
 20
9.0
  9
$ORTHOMODE
 70
     0
  9
$REGENMODE
 70
     1
  9
$FILLMODE
 70
     1
  9
$QTEXTMODE
 70
     0
  9
$MIRRTEXT
 70
     1
  9
$DRAGMODE
 70
     2
  9
$LTSCALE
 40
1.0
  9
$OSMODE
 70
    37
  9
$ATTMODE
 70
     1
  9
$TEXTSIZE
 40
0.2
  9
$TRACEWID
 40
0.05
  9
$TEXTSTYLE
  7
STANDARD
  9
$CLAYER
  8
LAYER_01
  9
$CELTYPE
  6
BYLAYER
  9
$CECOLOR
 62
   256
  9
$DIMSCALE
 40
1.0
  9
$DIMASZ
 40
0.18
  9
$DIMEXO
 40
0.0625
  9
$DIMDLI
 40
0.38
  9
$DIMRND
 40
0.0
  9
$DIMDLE
 40
0.0
  9
$DIMEXE
 40
0.18
  9
$DIMTP
 40
0.0
  9
$DIMTM
 40
0.0
  9
$DIMTXT
 40
0.18
  9
$DIMCEN
 40
0.09
  9
$DIMTSZ
 40
0.0
  9
$DIMTOL
 70
     0
  9
$DIMLIM
 70
     0
  9
$DIMTIH
 70
     1
  9
$DIMTOH
 70
     1
  9
$DIMSE1
 70
     0
  9
$DIMSE2
 70
     0
  9
$DIMTAD
 70
     0
  9
$DIMZIN
 70
     0
  9
$DIMBLK
  1

  9
$DIMASO
 70
     1
  9
$DIMSHO
 70
     1
  9
$DIMPOST
  1

  9
$DIMAPOST
  1

  9
$DIMALT
 70
     0
  9
$DIMALTD
 70
     2
  9
$DIMALTF
 40
25.4
  9
$DIMLFAC
 40
1.0
  9
$DIMTOFL
 70
     0
  9
$DIMTVP
 40
0.0
  9
$DIMTIX
 70
     0
  9
$DIMSOXD
 70
     0
  9
$DIMSAH
 70
     0
  9
$DIMBLK1
  1

  9
$DIMBLK2
  1

  9
$DIMSTYLE
  2
STANDARD_ACAD
  9
$DIMCLRD
 70
     0
  9
$DIMCLRE
 70
     0
  9
$DIMCLRT
 70
     0
  9
$DIMTFAC
 40
1.0
  9
$DIMGAP
 40
0.09
  9
$LUNITS
 70
     2
  9
$LUPREC
 70
     3
  9
$SKETCHINC
 40
0.1
  9
$FILLETRAD
 40
0.5
  9
$AUNITS
 70
     0
  9
$AUPREC
 70
     0
  9
$MENU
  1
.
  9
$ELEVATION
 40
0.0
  9
$PELEVATION
 40
0.0
  9
$THICKNESS
 40
0.0
  9
$LIMCHECK
 70
     0
  9
$CHAMFERA
 40
0.0
  9
$CHAMFERB
 40
0.0
  9
$SKPOLY
 70
     0
  9
$TDCREATE
 40
2460178.958926678
  9
$TDUPDATE
 40
2460178.958926771
  9
$TDINDWG
 40
0.0000000116
  9
$TDUSRTIMER
 40
0.0000000116
  9
$USRTIMER
 70
     1
  9
$ANGBASE
 50
0.0
  9
$ANGDIR
 70
     0
  9
$PDMODE
 70
     0
  9
$PDSIZE
 40
0.0
  9
$PLINEWID
 40
0.0
  9
$COORDS
 70
     1
  9
$SPLFRAME
 70
     0
  9
$SPLINETYPE
 70
     6
  9
$SPLINESEGS
 70
     8
  9
$ATTDIA
 70
     0
  9
$ATTREQ
 70
     1
  9
$HANDLING
 70
     1
  9
$HANDSEED
  5
275
  9
$SURFTAB1
 70
     6
  9
$SURFTAB2
 70
     6
  9
$SURFTYPE
 70
     6
  9
$SURFU
 70
     6
  9
$SURFV
 70
     6
  9
$UCSNAME
  2

  9
$UCSORG
 10
0.0
 20
0.0
 30
0.0
  9
$UCSXDIR
 10
1.0
 20
0.0
 30
0.0
  9
$UCSYDIR
 10
0.0
 20
1.0
 30
0.0
  9
$PUCSNAME
  2

  9
$PUCSORG
 10
0.0
 20
0.0
 30
0.0
  9
$PUCSXDIR
 10
1.0
 20
0.0
 30
0.0
  9
$PUCSYDIR
 10
0.0
 20
1.0
 30
0.0
  9
$USERI1
 70
     0
  9
$USERI2
 70
     0
  9
$USERI3
 70
     0
  9
$USERI4
 70
     0
  9
$USERI5
 70
     0
  9
$USERR1
 40
0.0
  9
$USERR2
 40
0.0
  9
$USERR3
 40
0.0
  9
$USERR4
 40
0.0
  9
$USERR5
 40
0.0
  9
$WORLDVIEW
 70
     1
  9
$SHADEDGE
 70
     3
  9
$SHADEDIF
 70
    70
  9
$TILEMODE
 70
     1
  9
$MAXACTVP
 70
    64
  9
$PLIMCHECK
 70
     0
  9
$PEXTMIN
 10
1.000000000000000E+20
 20
1.000000000000000E+20
 30
1.000000000000000E+20
  9
$PEXTMAX
 10
-1.000000000000000E+20
 20
-1.000000000000000E+20
 30
-1.000000000000000E+20
  9
$PLIMMIN
 10
0.0
 20
0.0
  9
$PLIMMAX
 10
12.0
 20
9.0
  9
$UNITMODE
 70
     0
  9
$VISRETAIN
 70
     1
  9
$PLINEGEN
 70
     0
  9
$PSLTSCALE
 70
     1
  0
ENDSEC
  0
SECTION
  2
TABLES
  0
TABLE
  2
VPORT
 70
     1
  0
VPORT
  2
*ACTIVE
 70
     0
 10
0.0
 20
0.0
 11
1.0
 21
1.0
 12
10.42990654205607
 22
4.5
 13
0.0
 23
0.0
 14
0.5
 24
0.5
 15
0.5
 25
0.5
 16
0.0
 26
0.0
 36
1.0
 17
0.0
 27
0.0
 37
0.0
 40
9.0
 41
1.972972972850329
 42
50.0
 43
0.0
 44
0.0
 50
0.0
 51
0.0
 71
     0
 72
   100
 73
     1
 74
     3
 75
     0
 76
     0
 77
     0
 78
     0
  0
ENDTAB
  0
TABLE
  2
LTYPE
 70
     1
  0
LTYPE
  2
CONTINUOUS
 70
     0
  3
Solid line
 72
    65
 73
     0
 40
0.0
  0
ENDTAB
  0
TABLE
  2
LAYER
 70
     2
  0
LAYER
  2
0
 70
     0
 62
     7
  6
CONTINUOUS
  0
LAYER
  2
LAYER_01
 70
     0
 62
     5
  6
CONTINUOUS
  0
ENDTAB
  0
TABLE
  2
STYLE
 70
     1
  0
STYLE
  2
STANDARD
 70
     0
 40
0.0
 41
1.0
 50
0.0
 71
     0
 42
0.2
  3
txt
  4

  0
ENDTAB
  0
TABLE
  2
VIEW
 70
     0
  0
ENDTAB
  0
TABLE
  2
UCS
 70
     0
  0
ENDTAB
  0
TABLE
  2
APPID
 70
     2
  0
APPID
  2
ACAD
 70
     0
  0
APPID
  2
RHINO
 70
     0
  0
ENDTAB
  0
TABLE
  2
DIMSTYLE
 70
     1
  0
DIMSTYLE
  2
STANDARD_ACAD
 70
     0
  3

  4

  5

  6

  7

 40
1.0
 41
0.18
 42
0.0625
 43
0.38
 44
0.18
 45
0.0
 46
0.0
 47
0.0
 48
0.0
140
0.18
141
0.09
142
0.0
143
25.4
144
1.0
145
0.0
146
1.0
147
0.09
 71
     0
 72
     0
 73
     1
 74
     1
 75
     0
 76
     0
 77
     0
 78
     0
170
     0
171
     2
172
     0
173
     0
174
     0
175
     0
176
     0
177
     0
178
     0
  0
ENDTAB
  0
ENDSEC
  0
SECTION
  2
BLOCKS
  0
BLOCK
  8
0
  2
$MODEL_SPACE
 70
     0
 10
0.0
 20
0.0
 30
0.0
  3
$MODEL_SPACE
  1

  0
ENDBLK
  5
21
  8
0
  0
BLOCK
 67
     1
  8
0
  2
$PAPER_SPACE
 70
     0
 10
0.0
 20
0.0
 30
0.0
  3
$PAPER_SPACE
  1

  0
ENDBLK
  5
1D
 67
     1
  8
0
  0
ENDSEC
  0
SECTION
  2
ENTITIES
  0
POLYLINE
  5
70
  8
LAYER_01
 66
     1
 10
0.0
 20
0.0
 30
0.0
 70
     1
  0
VERTEX
  5
71
  8
LAYER_01
 10
201.4338946337623
 20
1161.639015962388
 30
0.0
  0
VERTEX
  5
72
  8
LAYER_01
 10
567.7919420591978
 20
1161.639015962388
 30
0.0
  0
VERTEX
  5
73
  8
LAYER_01
 10
567.7919420591978
 20
2099.029095075623
 30
0.0
  0
VERTEX
  5
74
  8
LAYER_01
 10
201.4338946337623
 20
2099.029095075623
 30
0.0
  0
SEQEND
  5
75
  8
LAYER_01
  0
POLYLINE
  5
76
  8
LAYER_01
 66
     1
 10
0.0
 20
0.0
 30
0.0
 70
     1
  0
VERTEX
  5
77
  8
LAYER_01
 10
226.7305610834119
 20
1219.710741285261
 30
0.0
 42
0.018295941116517
  0
VERTEX
  5
78
  8
LAYER_01
 10
251.0846557702174
 20
1236.9029475378
 30
0.0
  0
VERTEX
  5
79
  8
LAYER_01
 10
235.6242421275851
 20
1257.186170662002
 30
0.0
 42
-0.0030123230349787
  0
VERTEX
  5
7A
  8
LAYER_01
 10
231.9470867543286
 20
1254.418209519953
 30
0.0
  0
VERTEX
  5
7B
  8
LAYER_01
 10
244.6183588670258
 20
1237.794188619206
 30
0.0
 42
-0.0113919402256172
  0
VERTEX
  5
7C
  8
LAYER_01
 10
229.6477666185628
 20
1227.172554191388
 30
0.0
  0
VERTEX
  5
7D
  8
LAYER_01
 10
226.579473523956
 20
1231.712876690523
 30
0.0
 42
0.0068617796255724
  0
VERTEX
  5
7E
  8
LAYER_01
 10
235.5317005014822
 20
1237.943327013844
 30
0.0
  0
VERTEX
  5
7F
  8
LAYER_01
 10
226.5495899403791
 20
1250.478811460419
 30
0.0
 42
-0.002590050589534
  0
VERTEX
  5
80
  8
LAYER_01
 10
223.3209067214788
 20
1248.190566055164
 30
0.0
  0
VERTEX
  5
81
  8
LAYER_01
 10
223.3209067214791
 20
1242.481848690994
 30
0.0
  0
VERTEX
  5
82
  8
LAYER_01
 10
227.7789431365659
 20
1236.005967632823
 30
0.0
 42
-0.0034136562544221
  0
VERTEX
  5
83
  8
LAYER_01
 10
223.3209067214787
 20
1232.981678877309
 30
0.0
  0
VERTEX
  5
84
  8
LAYER_01
 10
223.3209067214791
 20
1224.93656115042
 30
0.0
  0
SEQEND
  5
85
  8
LAYER_01
  0
POLYLINE
  5
86
  8
LAYER_01
 66
     1
 10
0.0
 20
0.0
 30
0.0
 70
     1
  0
VERTEX
  5
87
  8
LAYER_01
 10
442.9328897070224
 20
1797.556646755424
 30
0.0
  0
VERTEX
  5
88
  8
LAYER_01
 10
547.7919420591978
 20
1797.556646755424
 30
0.0
  0
VERTEX
  5
89
  8
LAYER_01
 10
547.7919420591978
 20
1787.034871418741
 30
0.0
  0
VERTEX
  5
8A
  8
LAYER_01
 10
436.6735050432028
 20
1787.034871418741
 30
0.0
 42
-0.009785721403586
  0
SEQEND
  5
8B
  8
LAYER_01
  0
POLYLINE
  5
8C
  8
LAYER_01
 66
     1
 10
0.0
 20
0.0
 30
0.0
 70
     1
  0
VERTEX
  5
8D
  8
LAYER_01
 10
470.0324206570318
 20
1551.511587454472
 30
0.0
 42
-0.0040500954918534
  0
VERTEX
  5
8E
  8
LAYER_01
 10
470.0324206570318
 20
1540.989812117788
 30
0.0
  0
VERTEX
  5
8F
  8
LAYER_01
 10
437.9564988013034
 20
1540.989812117789
 30
0.0
 42
0.0060597720547241
  0
VERTEX
  5
90
  8
LAYER_01
 10
438.3134269192557
 20
1551.511587454471
 30
0.0
  0
SEQEND
  5
91
  8
LAYER_01
  0
POLYLINE
  5
92
  8
LAYER_01
 66
     1
 10
0.0
 20
0.0
 30
0.0
 70
     1
  0
VERTEX
  5
93
  8
LAYER_01
 10
459.2885551007604
 20
1428.489057803995
 30
0.0
 42
-0.0041247731475186
  0
VERTEX
  5
94
  8
LAYER_01
 10
457.2587604589663
 20
1417.967282467312
 30
0.0
  0
VERTEX
  5
95
  8
LAYER_01
 10
414.1988537568971
 20
1417.967282467311
 30
0.0
 42
0.0063860123666886
  0
VERTEX
  5
96
  8
LAYER_01
 10
417.7176211053516
 20
1428.489057803994
 30
0.0
  0
SEQEND
  5
97
  8
LAYER_01
  0
POLYLINE
  5
98
  8
LAYER_01
 66
     1
 10
0.0
 20
0.0
 30
0.0
 70
     1
  0
VERTEX
  5
99
  8
LAYER_01
 10
465.5025169952728
 20
1469.496567687487
 30
0.0
 42
-0.0040827810728875
  0
VERTEX
  5
9A
  8
LAYER_01
 10
464.16309718676
 20
1458.974792350803
 30
0.0
  0
VERTEX
  5
9B
  8
LAYER_01
 10
426.2699885449328
 20
1458.974792350804
 30
0.0
 42
0.0062123690524609
  0
VERTEX
  5
9C
  8
LAYER_01
 10
428.6740144416705
 20
1469.496567687487
 30
0.0
  0
SEQEND
  5
9D
  8
LAYER_01
  0
POLYLINE
  5
9E
  8
LAYER_01
 66
     1
 10
0.0
 20
0.0
 30
0.0
 70
     1
  0
VERTEX
  5
9F
  8
LAYER_01
 10
469.0692670237302
 20
1510.504077570979
 30
0.0
 42
-0.0040581932370342
  0
VERTEX
  5
A0
  8
LAYER_01
 10
468.4035904636409
 20
1499.982302234296
 30
0.0
  0
VERTEX
  5
A1
  8
LAYER_01
 10
434.1127533347142
 20
1499.982302234296
 30
0.0
 42
0.0061067792324436
  0
VERTEX
  5
A2
  8
LAYER_01
 10
435.4741830359669
 20
1510.50407757098
 30
0.0
  0
SEQEND
  5
A3
  8
LAYER_01
  0
POLYLINE
  5
A4
  8
LAYER_01
 66
     1
 10
0.0
 20
0.0
 30
0.0
 70
     1
  0
VERTEX
  5
A5
  8
LAYER_01
 10
464.16309718676
 20
1633.526607221456
 30
0.0
 42
-0.0040827810728869
  0
VERTEX
  5
A6
  8
LAYER_01
 10
465.5025169952729
 20
1623.004831884773
 30
0.0
  0
VERTEX
  5
A7
  8
LAYER_01
 10
433.9645163146956
 20
1623.004831884773
 30
0.0
 42
0.006130318152711
  0
VERTEX
  5
A8
  8
LAYER_01
 10
432.3144117562194
 20
1633.526607221456
 30
0.0
  0
SEQEND
  5
A9
  8
LAYER_01
  0
POLYLINE
  5
AA
  8
LAYER_01
 66
     1
 10
0.0
 20
0.0
 30
0.0
 70
     1
  0
VERTEX
  5
AB
  8
LAYER_01
 10
397.5103517328377
 20
1376.959772583819
 30
0.0
 42
0.006645291108174
  0
VERTEX
  5
AC
  8
LAYER_01
 10
402.2620725670841
 20
1387.481547920504
 30
0.0
  0
VERTEX
  5
AD
  8
LAYER_01
 10
450.3490274378595
 20
1387.481547920504
 30
0.0
 42
-0.0041858004994189
  0
VERTEX
  5
AE
  8
LAYER_01
 10
447.6025912321506
 20
1376.959772583819
 30
0.0
  0
SEQEND
  5
AF
  8
LAYER_01
  0
POLYLINE
  5
B0
  8
LAYER_01
 66
     1
 10
0.0
 20
0.0
 30
0.0
 70
     1
  0
VERTEX
  5
B1
  8
LAYER_01
 10
438.5656672308315
 20
1346.474038037011
 30
0.0
 42
-0.0042683965441467
  0
VERTEX
  5
B2
  8
LAYER_01
 10
435.0648771797906
 20
1335.952262700328
 30
0.0
  0
VERTEX
  5
B3
  8
LAYER_01
 10
402.3444816236638
 20
1335.952262700328
 30
0.0
 42
-0.0089930560474621
  0
VERTEX
  5
B4
  8
LAYER_01
 10
398.3589251125312
 20
1346.474038037011
 30
0.0
  0
SEQEND
  5
B5
  8
LAYER_01
  0
POLYLINE
  5
B6
  8
LAYER_01
 66
     1
 10
0.0
 20
0.0
 30
0.0
 70
     1
  0
VERTEX
  5
B7
  8
LAYER_01
 10
468.4035904636408
 20
1592.519097337964
 30
0.0
 42
-0.0040581932370344
  0
VERTEX
  5
B8
  8
LAYER_01
 10
469.0692670237303
 20
1581.99732200128
 30
0.0
  0
VERTEX
  5
B9
  8
LAYER_01
 10
437.9075298743422
 20
1581.99732200128
 30
0.0
 42
0.0060674088318772
  0
VERTEX
  5
BA
  8
LAYER_01
 10
437.2696338910456
 20
1592.519097337965
 30
0.0
  0
SEQEND
  5
BB
  8
LAYER_01
  0
POLYLINE
  5
BC
  8
LAYER_01
 66
     1
 10
0.0
 20
0.0
 30
0.0
 70
     1
  0
VERTEX
  5
BD
  8
LAYER_01
 10
409.9842016164573
 20
1715.54162698844
 30
0.0
  0
VERTEX
  5
BE
  8
LAYER_01
 10
447.6025912321505
 20
1715.54162698844
 30
0.0
 42
-0.0041858004994251
  0
VERTEX
  5
BF
  8
LAYER_01
 10
450.3490274378595
 20
1705.019851651756
 30
0.0
  0
VERTEX
  5
C0
  8
LAYER_01
 10
413.836074931089
 20
1705.019851651756
 30
0.0
 42
0.0064493924465757
  0
SEQEND
  5
C1
  8
LAYER_01
  0
POLYLINE
  5
C2
  8
LAYER_01
 66
     1
 10
0.0
 20
0.0
 30
0.0
 70
     1
  0
VERTEX
  5
C3
  8
LAYER_01
 10
417.1458766180158
 20
1746.027361535248
 30
0.0
 42
-0.0090925182626657
  0
VERTEX
  5
C4
  8
LAYER_01
 10
421.470212017799
 20
1756.549136871933
 30
0.0
  0
VERTEX
  5
C5
  8
LAYER_01
 10
435.0648771797904
 20
1756.549136871932
 30
0.0
 42
-0.004268396544147
  0
VERTEX
  5
C6
  8
LAYER_01
 10
438.5656672308317
 20
1746.027361535248
 30
0.0
  0
SEQEND
  5
C7
  8
LAYER_01
  0
POLYLINE
  5
C8
  8
LAYER_01
 66
     1
 10
0.0
 20
0.0
 30
0.0
 70
     1
  0
VERTEX
  5
C9
  8
LAYER_01
 10
454.8504117379297
 20
1715.54162698844
 30
0.0
 42
-0.0041381770070614
  0
VERTEX
  5
CA
  8
LAYER_01
 10
457.5655995864557
 20
1705.019851651757
 30
0.0
  0
VERTEX
  5
CB
  8
LAYER_01
 10
547.7919420591978
 20
1705.019851651756
 30
0.0
  0
VERTEX
  5
CC
  8
LAYER_01
 10
547.7919420591978
 20
1715.54162698844
 30
0.0
  0
SEQEND
  5
CD
  8
LAYER_01
  0
POLYLINE
  5
CE
  8
LAYER_01
 66
     1
 10
0.0
 20
0.0
 30
0.0
 70
     1
  0
VERTEX
  5
CF
  8
LAYER_01
 10
442.4588350682112
 20
1756.549136871932
 30
0.0
  0
VERTEX
  5
D0
  8
LAYER_01
 10
547.7919420591978
 20
1756.549136871932
 30
0.0
  0
VERTEX
  5
D1
  8
LAYER_01
 10
547.7919420591978
 20
1746.027361535248
 30
0.0
  0
VERTEX
  5
D2
  8
LAYER_01
 10
445.9182343003998
 20
1746.027361535248
 30
0.0
 42
0.0042179319056679
  0
SEQEND
  5
D3
  8
LAYER_01
  0
POLYLINE
  5
D4
  8
LAYER_01
 66
     1
 10
0.0
 20
0.0
 30
0.0
 70
     1
  0
VERTEX
  5
D5
  8
LAYER_01
 10
442.4588350682112
 20
1335.952262700328
 30
0.0
 42
0.0042179319056676
  0
VERTEX
  5
D6
  8
LAYER_01
 10
445.9182343003998
 20
1346.474038037011
 30
0.0
  0
VERTEX
  5
D7
  8
LAYER_01
 10
547.7919420591978
 20
1346.474038037011
 30
0.0
  0
VERTEX
  5
D8
  8
LAYER_01
 10
547.7919420591978
 20
1335.952262700328
 30
0.0
  0
SEQEND
  5
D9
  8
LAYER_01
  0
POLYLINE
  5
DA
  8
LAYER_01
 66
     1
 10
0.0
 20
0.0
 30
0.0
 70
     1
  0
VERTEX
  5
DB
  8
LAYER_01
 10
454.8504117379296
 20
1376.959772583819
 30
0.0
 42
0.0041381770070618
  0
VERTEX
  5
DC
  8
LAYER_01
 10
457.5655995864559
 20
1387.481547920504
 30
0.0
  0
VERTEX
  5
DD
  8
LAYER_01
 10
547.7919420591978
 20
1387.481547920504
 30
0.0
  0
VERTEX
  5
DE
  8
LAYER_01
 10
547.7919420591978
 20
1376.959772583819
 30
0.0
  0
SEQEND
  5
DF
  8
LAYER_01
  0
POLYLINE
  5
E0
  8
LAYER_01
 66
     1
 10
0.0
 20
0.0
 30
0.0
 70
     1
  0
VERTEX
  5
E1
  8
LAYER_01
 10
464.3978875549055
 20
1417.967282467312
 30
0.0
 42
0.0040791800888567
  0
VERTEX
  5
E2
  8
LAYER_01
 10
466.4052451704786
 20
1428.489057803995
 30
0.0
  0
VERTEX
  5
E3
  8
LAYER_01
 10
547.7919420591978
 20
1428.489057803996
 30
0.0
  0
VERTEX
  5
E4
  8
LAYER_01
 10
547.7919420591978
 20
1417.967282467312
 30
0.0
  0
SEQEND
  5
E5
  8
LAYER_01
  0
POLYLINE
  5
E6
  8
LAYER_01
 66
     1
 10
0.0
 20
0.0
 30
0.0
 70
     1
  0
VERTEX
  5
E7
  8
LAYER_01
 10
471.2264734470224
 20
1458.974792350803
 30
0.0
 42
0.0040385516214084
  0
VERTEX
  5
E8
  8
LAYER_01
 10
472.5513826203969
 20
1469.496567687488
 30
0.0
  0
VERTEX
  5
E9
  8
LAYER_01
 10
547.7919420591978
 20
1469.496567687488
 30
0.0
  0
VERTEX
  5
EA
  8
LAYER_01
 10
547.7919420591978
 20
1458.974792350804
 30
0.0
  0
SEQEND
  5
EB
  8
LAYER_01
  0
POLYLINE
  5
EC
  8
LAYER_01
 66
     1
 10
0.0
 20
0.0
 30
0.0
 70
     1
  0
VERTEX
  5
ED
  8
LAYER_01
 10
475.4212296570776
 20
1499.982302234296
 30
0.0
 42
0.0040147496625622
  0
VERTEX
  5
EE
  8
LAYER_01
 10
476.0797798175997
 20
1510.50407757098
 30
0.0
  0
VERTEX
  5
EF
  8
LAYER_01
 10
547.7919420591978
 20
1510.50407757098
 30
0.0
  0
VERTEX
  5
F0
  8
LAYER_01
 10
547.7919420591978
 20
1499.982302234296
 30
0.0
  0
SEQEND
  5
F1
  8
LAYER_01
  0
POLYLINE
  5
F2
  8
LAYER_01
 66
     1
 10
0.0
 20
0.0
 30
0.0
 70
     1
  0
VERTEX
  5
F3
  8
LAYER_01
 10
477.0326478577978
 20
1551.511587454472
 30
0.0
 42
-0.0040069087175888
  0
VERTEX
  5
F4
  8
LAYER_01
 10
477.0326478577978
 20
1540.989812117788
 30
0.0
  0
VERTEX
  5
F5
  8
LAYER_01
 10
547.7919420591978
 20
1540.989812117788
 30
0.0
  0
VERTEX
  5
F6
  8
LAYER_01
 10
547.7919420591978
 20
1551.511587454472
 30
0.0
  0
SEQEND
  5
F7
  8
LAYER_01
  0
POLYLINE
  5
F8
  8
LAYER_01
 66
     1
 10
0.0
 20
0.0
 30
0.0
 70
     1
  0
VERTEX
  5
F9
  8
LAYER_01
 10
476.0797798175996
 20
1581.99732200128
 30
0.0
 42
0.0040147496625626
  0
VERTEX
  5
FA
  8
LAYER_01
 10
475.4212296570775
 20
1592.519097337964
 30
0.0
  0
VERTEX
  5
FB
  8
LAYER_01
 10
547.7919420591978
 20
1592.519097337964
 30
0.0
  0
VERTEX
  5
FC
  8
LAYER_01
 10
547.7919420591978
 20
1581.99732200128
 30
0.0
  0
SEQEND
  5
FD
  8
LAYER_01
  0
POLYLINE
  5
FE
  8
LAYER_01
 66
     1
 10
0.0
 20
0.0
 30
0.0
 70
     1
  0
VERTEX
  5
FF
  8
LAYER_01
 10
472.5513826203967
 20
1623.004831884772
 30
0.0
 42
0.0040385516214081
  0
VERTEX
  5
100
  8
LAYER_01
 10
471.2264734470226
 20
1633.526607221456
 30
0.0
  0
VERTEX
  5
101
  8
LAYER_01
 10
547.7919420591978
 20
1633.526607221456
 30
0.0
  0
VERTEX
  5
102
  8
LAYER_01
 10
547.7919420591978
 20
1623.004831884772
 30
0.0
  0
SEQEND
  5
103
  8
LAYER_01
  0
POLYLINE
  5
104
  8
LAYER_01
 66
     1
 10
0.0
 20
0.0
 30
0.0
 70
     1
  0
VERTEX
  5
105
  8
LAYER_01
 10
457.2587604589661
 20
1674.534117104948
 30
0.0
 42
-0.0041247731475189
  0
VERTEX
  5
106
  8
LAYER_01
 10
459.2885551007604
 20
1664.012341768264
 30
0.0
  0
VERTEX
  5
107
  8
LAYER_01
 10
426.0183058179782
 20
1664.012341768264
 30
0.0
 42
0.0062538455953797
  0
VERTEX
  5
108
  8
LAYER_01
 10
423.3090900028565
 20
1674.534117104949
 30
0.0
  0
SEQEND
  5
109
  8
LAYER_01
  0
POLYLINE
  5
10A
  8
LAYER_01
 66
     1
 10
0.0
 20
0.0
 30
0.0
 70
     1
  0
VERTEX
  5
10B
  8
LAYER_01
 10
466.4052451704785
 20
1664.012341768265
 30
0.0
 42
0.0040791800888567
  0
VERTEX
  5
10C
  8
LAYER_01
 10
464.3978875549054
 20
1674.534117104948
 30
0.0
  0
VERTEX
  5
10D
  8
LAYER_01
 10
547.7919420591978
 20
1674.534117104948
 30
0.0
  0
VERTEX
  5
10E
  8
LAYER_01
 10
547.7919420591978
 20
1664.012341768264
 30
0.0
  0
SEQEND
  5
10F
  8
LAYER_01
  0
POLYLINE
  5
110
  8
LAYER_01
 66
     1
 10
0.0
 20
0.0
 30
0.0
 70
     1
  0
VERTEX
  5
111
  8
LAYER_01
 10
422.5861609606844
 20
1294.465799195768
 30
0.0
 42
-0.0096283781258631
  0
VERTEX
  5
112
  8
LAYER_01
 10
416.7210533705341
 20
1304.987574532452
 30
0.0
  0
VERTEX
  5
113
  8
LAYER_01
 10
547.7919420591978
 20
1304.987574532452
 30
0.0
  0
VERTEX
  5
114
  8
LAYER_01
 10
547.7919420591978
 20
1294.465799195768
 30
0.0
  0
SEQEND
  5
115
  8
LAYER_01
  0
POLYLINE
  5
116
  8
LAYER_01
 66
     1
 10
0.0
 20
0.0
 30
0.0
 70
     1
  0
VERTEX
  5
117
  8
LAYER_01
 10
473.3321659337372
 20
1838.564156638917
 30
0.0
 42
0.0109744233064178
  0
VERTEX
  5
118
  8
LAYER_01
 10
464.5119092475608
 20
1828.042381302233
 30
0.0
  0
VERTEX
  5
119
  8
LAYER_01
 10
547.7919420591978
 20
1828.042381302233
 30
0.0
  0
VERTEX
  5
11A
  8
LAYER_01
 10
547.7919420591978
 20
1838.564156638917
 30
0.0
  0
SEQEND
  5
11B
  8
LAYER_01
  0
POLYLINE
  5
11C
  8
LAYER_01
 66
     1
 10
0.0
 20
0.0
 30
0.0
 70
     1
  0
VERTEX
  5
11D
  8
LAYER_01
 10
392.399872868222
 20
1261.143418459755
 30
0.0
  0
VERTEX
  5
11E
  8
LAYER_01
 10
400.9489554937865
 20
1268.021251850247
 30
0.0
 42
-0.0397766986447027
  0
VERTEX
  5
11F
  8
LAYER_01
 10
372.8684081584018
 20
1337.381551595843
 30
0.0
  0
VERTEX
  5
120
  8
LAYER_01
 10
366.1083504854977
 20
1323.560907719363
 30
0.0
 42
0.035188617083985
  0
SEQEND
  5
121
  8
LAYER_01
  0
POLYLINE
  5
122
  8
LAYER_01
 66
     1
 10
0.0
 20
0.0
 30
0.0
 70
     1
  0
VERTEX
  5
123
  8
LAYER_01
 10
403.772753514086
 20
1240.020901896452
 30
0.0
  0
VERTEX
  5
124
  8
LAYER_01
 10
412.1859382926211
 20
1246.931732250248
 30
0.0
 42
0.0420298763527602
  0
VERTEX
  5
125
  8
LAYER_01
 10
456.7533693560251
 20
1181.639015962389
 30
0.0
  0
VERTEX
  5
126
  8
LAYER_01
 10
443.0224028366089
 20
1181.639015962388
 30
0.0
 42
-0.0365535258737723
  0
SEQEND
  5
127
  8
LAYER_01
  0
POLYLINE
  5
128
  8
LAYER_01
 66
     1
 10
0.0
 20
0.0
 30
0.0
 70
     1
  0
VERTEX
  5
129
  8
LAYER_01
 10
428.843081006106
 20
1849.398788217321
 30
0.0
  0
VERTEX
  5
12A
  8
LAYER_01
 10
436.1797865111173
 20
1841.45629968896
 30
0.0
 42
0.0476586157053193
  0
VERTEX
  5
12B
  8
LAYER_01
 10
407.5930540042036
 20
1799.948293930307
 30
0.0
  0
VERTEX
  5
12C
  8
LAYER_01
 10
398.9919758049024
 20
1806.547397031496
 30
0.0
 42
-0.047461016229999
  0
SEQEND
  5
12D
  8
LAYER_01
  0
POLYLINE
  5
12E
  8
LAYER_01
 66
     1
 10
0.0
 20
0.0
 30
0.0
 70
     1
  0
VERTEX
  5
12F
  8
LAYER_01
 10
471.756099567673
 20
2068.299837326951
 30
0.0
  0
VERTEX
  5
130
  8
LAYER_01
 10
471.7560995676731
 20
2079.029095075623
 30
0.0
  0
VERTEX
  5
131
  8
LAYER_01
 10
547.7919420591977
 20
2079.029095075623
 30
0.0
  0
VERTEX
  5
132
  8
LAYER_01
 10
547.7919420591977
 20
2047.883079498709
 30
0.0
  0
VERTEX
  5
133
  8
LAYER_01
 10
537.062684310526
 20
2047.883079498709
 30
0.0
  0
VERTEX
  5
134
  8
LAYER_01
 10
537.062684310526
 20
2068.299837326952
 30
0.0
  0
SEQEND
  5
135
  8
LAYER_01
  0
POLYLINE
  5
136
  8
LAYER_01
 66
     1
 10
0.0
 20
0.0
 30
0.0
 70
     1
  0
VERTEX
  5
137
  8
LAYER_01
 10
246.7443308603549
 20
1912.855254192217
 30
0.0
 42
0.0237554291921946
  0
VERTEX
  5
138
  8
LAYER_01
 10
223.3209067214791
 20
1922.052856167563
 30
0.0
  0
VERTEX
  5
139
  8
LAYER_01
 10
223.3209067214791
 20
1985.837067006396
 30
0.0
  0
VERTEX
  5
13A
  8
LAYER_01
 10
234.0501644701508
 20
1985.837067006396
 30
0.0
  0
VERTEX
  5
13B
  8
LAYER_01
 10
234.0501644701509
 20
1929.631629758911
 30
0.0
 42
-0.0123941087498404
  0
VERTEX
  5
13C
  8
LAYER_01
 10
246.7443308603551
 20
1924.568862967988
 30
0.0
  0
SEQEND
  5
13D
  8
LAYER_01
  0
POLYLINE
  5
13E
  8
LAYER_01
 66
     1
 10
0.0
 20
0.0
 30
0.0
 70
     1
  0
VERTEX
  5
13F
  8
LAYER_01
 10
309.8332573281311
 20
1873.046019052248
 30
0.0
  0
VERTEX
  5
140
  8
LAYER_01
 10
317.2174487179925
 20
1880.850448976492
 30
0.0
 42
0.0567585398748885
  0
VERTEX
  5
141
  8
LAYER_01
 10
265.4700853523945
 20
1915.710616485164
 30
0.0
  0
VERTEX
  5
142
  8
LAYER_01
 10
265.4700853523943
 20
1903.551077839112
 30
0.0
 42
-0.050927475053561
  0
SEQEND
  5
143
  8
LAYER_01
  0
POLYLINE
  5
144
  8
LAYER_01
 66
     1
 10
0.0
 20
0.0
 30
0.0
 70
     1
  0
VERTEX
  5
145
  8
LAYER_01
 10
365.1032728156176
 20
1827.840626138369
 30
0.0
  0
VERTEX
  5
146
  8
LAYER_01
 10
356.5276854442826
 20
1821.376937149528
 30
0.0
 42
0.0449073089565212
  0
VERTEX
  5
147
  8
LAYER_01
 10
326.1873252515974
 20
1857.927057172117
 30
0.0
  0
VERTEX
  5
148
  8
LAYER_01
 10
333.5320750289034
 20
1865.756837595095
 30
0.0
 42
-0.0448287930045168
  0
SEQEND
  5
149
  8
LAYER_01
  0
POLYLINE
  5
14A
  8
LAYER_01
 66
     1
 10
0.0
 20
0.0
 30
0.0
 70
     1
  0
VERTEX
  5
14B
  8
LAYER_01
 10
388.7102398618778
 20
1757.716080660882
 30
0.0
 42
-0.02631808298202
  0
VERTEX
  5
14C
  8
LAYER_01
 10
399.1966183274535
 20
1783.544066218976
 30
0.0
  0
VERTEX
  5
14D
  8
LAYER_01
 10
390.2524348284542
 20
1789.72838229803
 30
0.0
 42
0.0032953693851938
  0
VERTEX
  5
14E
  8
LAYER_01
 10
388.7102398618781
 20
1786.437635034101
 30
0.0
 42
0.0227026271815794
  0
VERTEX
  5
14F
  8
LAYER_01
 10
377.2199095127841
 20
1808.667933153675
 30
0.0
  0
VERTEX
  5
150
  8
LAYER_01
 10
368.6225941358597
 20
1802.089684266786
 30
0.0
 42
-0.0460527242187384
  0
SEQEND
  5
151
  8
LAYER_01
  0
POLYLINE
  5
152
  8
LAYER_01
 66
     1
 10
0.0
 20
0.0
 30
0.0
 70
     1
  0
VERTEX
  5
153
  8
LAYER_01
 10
492.1157113902924
 20
1904.329881215793
 30
0.0
  0
VERTEX
  5
154
  8
LAYER_01
 10
497.0811654334258
 20
1894.77514389037
 30
0.0
 42
0.0561649740707045
  0
VERTEX
  5
155
  8
LAYER_01
 10
450.8627212262927
 20
1857.553792357928
 30
0.0
  0
VERTEX
  5
156
  8
LAYER_01
 10
444.2368982022415
 20
1866.10572672618
 30
0.0
 42
-0.0557254810439999
  0
SEQEND
  5
157
  8
LAYER_01
  0
POLYLINE
  5
158
  8
LAYER_01
 66
     1
 10
0.0
 20
0.0
 30
0.0
 70
     1
  0
VERTEX
  5
159
  8
LAYER_01
 10
547.7919420591978
 20
1919.826660134162
 30
0.0
  0
VERTEX
  5
15A
  8
LAYER_01
 10
547.7919420591977
 20
1931.226548214137
 30
0.0
 42
0.0366708768033435
  0
VERTEX
  5
15B
  8
LAYER_01
 10
510.7673370206688
 20
1915.091912217315
 30
0.0
  0
VERTEX
  5
15C
  8
LAYER_01
 10
515.3405197715293
 20
1905.373898871737
 30
0.0
 42
-0.0335539593479311
  0
SEQEND
  5
15D
  8
LAYER_01
  0
POLYLINE
  5
15E
  8
LAYER_01
 66
     1
 10
0.0
 20
0.0
 30
0.0
 70
     1
  0
VERTEX
  5
15F
  8
LAYER_01
 10
547.7919420591977
 20
1956.190397938323
 30
0.0
  0
VERTEX
  5
160
  8
LAYER_01
 10
537.062684310526
 20
1956.190397938322
 30
0.0
  0
VERTEX
  5
161
  8
LAYER_01
 10
537.062684310526
 20
2024.992317608341
 30
0.0
  0
VERTEX
  5
162
  8
LAYER_01
 10
547.7919420591977
 20
2024.992317608342
 30
0.0
  0
SEQEND
  5
163
  8
LAYER_01
  0
POLYLINE
  5
164
  8
LAYER_01
 66
     1
 10
0.0
 20
0.0
 30
0.0
 70
     1
  0
VERTEX
  5
165
  8
LAYER_01
 10
299.3567492130038
 20
2068.299837326952
 30
0.0
  0
VERTEX
  5
166
  8
LAYER_01
 10
299.3567492130038
 20
2079.029095075623
 30
0.0
  0
VERTEX
  5
167
  8
LAYER_01
 10
223.3209067214791
 20
2079.029095075623
 30
0.0
  0
VERTEX
  5
168
  8
LAYER_01
 10
223.3209067214791
 20
2008.727828896764
 30
0.0
  0
VERTEX
  5
169
  8
LAYER_01
 10
234.0501644701508
 20
2008.727828896764
 30
0.0
  0
VERTEX
  5
16A
  8
LAYER_01
 10
234.0501644701508
 20
2068.299837326952
 30
0.0
  0
SEQEND
  5
16B
  8
LAYER_01
  0
POLYLINE
  5
16C
  8
LAYER_01
 66
     1
 10
0.0
 20
0.0
 30
0.0
 70
     1
  0
VERTEX
  5
16D
  8
LAYER_01
 10
452.4324313130857
 20
2068.299837326952
 30
0.0
  0
VERTEX
  5
16E
  8
LAYER_01
 10
318.6804174675912
 20
2068.299837326952
 30
0.0
  0
VERTEX
  5
16F
  8
LAYER_01
 10
318.6804174675912
 20
2079.029095075623
 30
0.0
  0
VERTEX
  5
170
  8
LAYER_01
 10
452.4324313130857
 20
2079.029095075623
 30
0.0
  0
SEQEND
  5
171
  8
LAYER_01
  0
POLYLINE
  5
172
  8
LAYER_01
 66
     1
 10
0.0
 20
0.0
 30
0.0
 70
     1
  0
VERTEX
  5
173
  8
LAYER_01
 10
358.7712451102793
 20
1454.447328871718
 30
0.0
 42
0.0507418635381532
  0
VERTEX
  5
174
  8
LAYER_01
 10
372.9580308691511
 20
1528.069843080424
 30
0.0
  0
VERTEX
  5
175
  8
LAYER_01
 10
367.9778053015872
 20
1528.514087715939
 30
0.0
 42
-0.0507418635381169
  0
VERTEX
  5
176
  8
LAYER_01
 10
353.982549198977
 20
1455.885519216935
 30
0.0
  0
SEQEND
  5
177
  8
LAYER_01
  0
POLYLINE
  5
178
  8
LAYER_01
 66
     1
 10
0.0
 20
0.0
 30
0.0
 70
     1
  0
VERTEX
  5
179
  8
LAYER_01
 10
308.4918233804537
 20
1350.051836605158
 30
0.0
 42
0.0507418635381534
  0
VERTEX
  5
17A
  8
LAYER_01
 10
344.7348664808132
 20
1415.687050594333
 30
0.0
  0
VERTEX
  5
17B
  8
LAYER_01
 10
340.1356696441957
 20
1417.648526685966
 30
0.0
 42
-0.0507418635381285
  0
VERTEX
  5
17C
  8
LAYER_01
 10
304.3819281872719
 20
1352.899425322136
 30
0.0
  0
SEQEND
  5
17D
  8
LAYER_01
  0
POLYLINE
  5
17E
  8
LAYER_01
 66
     1
 10
0.0
 20
0.0
 30
0.0
 70
     1
  0
VERTEX
  5
17F
  8
LAYER_01
 10
228.4132704622455
 20
1266.303019195067
 30
0.0
 42
0.0507418635381533
  0
VERTEX
  5
180
  8
LAYER_01
 10
283.1648493252998
 20
1317.526100912023
 30
0.0
  0
VERTEX
  5
181
  8
LAYER_01
 10
279.3968826504858
 20
1320.812805513519
 30
0.0
 42
-0.0507418635381598
  0
VERTEX
  5
182
  8
LAYER_01
 10
225.3844811640163
 20
1270.28126445987
 30
0.0
  0
SEQEND
  5
183
  8
LAYER_01
  0
POLYLINE
  5
184
  8
LAYER_01
 66
     1
 10
0.0
 20
0.0
 30
0.0
 70
     1
  0
VERTEX
  5
185
  8
LAYER_01
 10
298.7403866289531
 20
1785.320805218773
 30
0.0
 42
0.0507418635381533
  0
VERTEX
  5
186
  8
LAYER_01
 10
247.5173049119964
 20
1840.072384081828
 30
0.0
  0
VERTEX
  5
187
  8
LAYER_01
 10
244.230600310501
 20
1836.304417407013
 30
0.0
 42
-0.050741863538119
  0
VERTEX
  5
188
  8
LAYER_01
 10
294.7621413641493
 20
1782.292015920544
 30
0.0
  0
SEQEND
  5
189
  8
LAYER_01
  0
POLYLINE
  5
18A
  8
LAYER_01
 66
     1
 10
0.0
 20
0.0
 30
0.0
 70
     1
  0
VERTEX
  5
18B
  8
LAYER_01
 10
353.6446114221534
 20
1683.281767811902
 30
0.0
 42
0.0507418635381533
  0
VERTEX
  5
18C
  8
LAYER_01
 10
321.8477341080666
 20
1751.182416421854
 30
0.0
  0
VERTEX
  5
18D
  8
LAYER_01
 10
317.5575265429212
 20
1748.614514739942
 30
0.0
 42
-0.0507418635381319
  0
VERTEX
  5
18E
  8
LAYER_01
 10
348.9251279741078
 20
1681.630563407952
 30
0.0
  0
SEQEND
  5
18F
  8
LAYER_01
  0
POLYLINE
  5
190
  8
LAYER_01
 66
     1
 10
0.0
 20
0.0
 30
0.0
 70
     1
  0
VERTEX
  5
191
  8
LAYER_01
 10
374.3298355354765
 20
1569.270537845532
 30
0.0
 42
0.0507418635381532
  0
VERTEX
  5
192
  8
LAYER_01
 10
365.0716625176335
 20
1643.673667624802
 30
0.0
  0
VERTEX
  5
193
  8
LAYER_01
 10
360.1979073969482
 20
1642.55719504404
 30
0.0
 42
-0.0507418635381335
  0
VERTEX
  5
194
  8
LAYER_01
 10
369.3310898266584
 20
1569.158549727537
 30
0.0
  0
SEQEND
  5
195
  8
LAYER_01
  0
POLYLINE
  5
196
  8
LAYER_01
 66
     1
 10
0.0
 20
0.0
 30
0.0
 70
     1
  0
VERTEX
  5
197
  8
LAYER_01
 10
382.6144439718234
 20
1509.899031090226
 30
0.0
  0
VERTEX
  5
198
  8
LAYER_01
 10
407.889011913921
 20
1506.488789801437
 30
0.0
 42
-0.0182959411165603
  0
VERTEX
  5
199
  8
LAYER_01
 10
402.82479203595
 20
1477.111118674009
 30
0.0
  0
VERTEX
  5
19A
  8
LAYER_01
 10
390.1490200603493
 20
1479.777017405618
 30
0.0
 42
0.006199490509376
  0
VERTEX
  5
19B
  8
LAYER_01
 10
392.0436450436783
 20
1489.3749017844
 30
0.0
  0
VERTEX
  5
19C
  8
LAYER_01
 10
384.2275360523471
 20
1490.817357674202
 30
0.0
 42
-0.0104515253474163
  0
VERTEX
  5
19D
  8
LAYER_01
 10
380.9633204471709
 20
1474.990870138427
 30
0.0
  0
VERTEX
  5
19E
  8
LAYER_01
 10
401.2854935277202
 20
1470.099336455039
 30
0.0
 42
-0.0028237768398298
  0
VERTEX
  5
19F
  8
LAYER_01
 10
400.233724398566
 20
1465.618625687221
 30
0.0
  0
VERTEX
  5
1A0
  8
LAYER_01
 10
375.4382896561454
 20
1471.58687050809
 30
0.0
 42
0.0181382669809904
  0
VERTEX
  5
1A1
  8
LAYER_01
 10
380.9405150486343
 20
1498.739463816449
 30
0.0
  0
VERTEX
  5
1A2
  8
LAYER_01
 10
396.1557523933893
 20
1496.226849045941
 30
0.0
 42
-0.0068617796255653
  0
VERTEX
  5
1A3
  8
LAYER_01
 10
394.2311656643255
 20
1485.491074969945
 30
0.0
  0
VERTEX
  5
1A4
  8
LAYER_01
 10
399.611269346102
 20
1484.450192995896
 30
0.0
 42
0.0113919402256112
  0
VERTEX
  5
1A5
  8
LAYER_01
 10
402.6864469121746
 20
1502.546630024359
 30
0.0
  0
VERTEX
  5
1A6
  8
LAYER_01
 10
381.9715465655211
 20
1505.341645496715
 30
0.0
 42
0.003012323035001
  0
SEQEND
  5
1A7
  8
LAYER_01
  0
POLYLINE
  5
1A8
  8
LAYER_01
 66
     1
 10
0.0
 20
0.0
 30
0.0
 70
     1
  0
VERTEX
  5
1A9
  8
LAYER_01
 10
369.9637928486147
 20
1451.310146272912
 30
0.0
  0
VERTEX
  5
1AA
  8
LAYER_01
 10
394.393709646934
 20
1443.988077198214
 30
0.0
 42
-0.0182959411165341
  0
VERTEX
  5
1AB
  8
LAYER_01
 10
384.7961584523051
 20
1415.764312479272
 30
0.0
  0
VERTEX
  5
1AC
  8
LAYER_01
 10
372.6934847058922
 20
1420.380317181664
 30
0.0
 42
0.0061994905093992
  0
VERTEX
  5
1AD
  8
LAYER_01
 10
376.0662236200395
 20
1429.563651031248
 30
0.0
  0
VERTEX
  5
1AE
  8
LAYER_01
 10
368.571993715946
 20
1432.211056724184
 30
0.0
 42
-0.0104515253473577
  0
VERTEX
  5
1AF
  8
LAYER_01
 10
362.8721579104001
 20
1417.090055334496
 30
0.0
  0
VERTEX
  5
1B0
  8
LAYER_01
 10
382.1789268626278
 20
1409.079656273474
 30
0.0
 42
-0.0028237768397994
  0
VERTEX
  5
1B1
  8
LAYER_01
 10
380.4391691648008
 20
1404.818643431587
 30
0.0
  0
VERTEX
  5
1B2
  8
LAYER_01
 10
356.882646555506
 20
1414.592269824347
 30
0.0
 42
0.0181382669810518
  0
VERTEX
  5
1B3
  8
LAYER_01
 10
366.5647318316421
 20
1440.54983196613
 30
0.0
  0
VERTEX
  5
1B4
  8
LAYER_01
 10
381.1995848089677
 20
1435.687964138406
 30
0.0
 42
-0.0068617796255296
  0
VERTEX
  5
1B5
  8
LAYER_01
 10
377.619247861836
 20
1425.385436951666
 30
0.0
  0
VERTEX
  5
1B6
  8
LAYER_01
 10
382.7702837247394
 20
1423.515736320642
 30
0.0
 42
0.0113919402255944
  0
VERTEX
  5
1B7
  8
LAYER_01
 10
388.6385071976907
 20
1440.908312422516
 30
0.0
  0
VERTEX
  5
1B8
  8
LAYER_01
 10
368.6158783989082
 20
1446.909440970436
 30
0.0
 42
0.0030123230349719
  0
SEQEND
  5
1B9
  8
LAYER_01
  0
POLYLINE
  5
1BA
  8
LAYER_01
 66
     1
 10
0.0
 20
0.0
 30
0.0
 70
     1
  0
VERTEX
  5
1BB
  8
LAYER_01
 10
348.3035713795845
 20
1395.421585691249
 30
0.0
  0
VERTEX
  5
1BC
  8
LAYER_01
 10
371.2872914043063
 20
1384.367982471816
 30
0.0
 42
-0.0182959411164817
  0
VERTEX
  5
1BD
  8
LAYER_01
 10
357.3927324558768
 20
1357.993086918044
 30
0.0
  0
VERTEX
  5
1BE
  8
LAYER_01
 10
346.1611649327601
 20
1364.445536235806
 30
0.0
 42
0.0061994905093594
  0
VERTEX
  5
1BF
  8
LAYER_01
 10
350.92896975218
 20
1372.988195399078
 30
0.0
  0
VERTEX
  5
1C0
  8
LAYER_01
 10
343.9411517474867
 20
1376.775362980751
 30
0.0
 42
-0.0104515253473684
  0
VERTEX
  5
1C1
  8
LAYER_01
 10
335.9460446157738
 20
1362.732176975091
 30
0.0
  0
VERTEX
  5
1C2
  8
LAYER_01
 10
353.7620127125835
 20
1351.800155146309
 30
0.0
 42
-0.0028237768397955
  0
VERTEX
  5
1C3
  8
LAYER_01
 10
351.377105054529
 20
1347.86376050801
 30
0.0
  0
VERTEX
  5
1C4
  8
LAYER_01
 10
329.6395343446173
 20
1361.202109354065
 30
0.0
 42
0.0181382669810133
  0
VERTEX
  5
1C5
  8
LAYER_01
 10
343.2630744319031
 20
1385.325479001132
 30
0.0
  0
VERTEX
  5
1C6
  8
LAYER_01
 10
356.9571843912054
 20
1378.234073437722
 30
0.0
 42
-0.0068617796255078
  0
VERTEX
  5
1C7
  8
LAYER_01
 10
351.8092570041012
 20
1368.618475551704
 30
0.0
  0
VERTEX
  5
1C8
  8
LAYER_01
 10
356.6043894498785
 20
1365.965994498422
 30
0.0
 42
0.0113919402256595
  0
VERTEX
  5
1C9
  8
LAYER_01
 10
365.1211636922874
 20
1382.226446727429
 30
0.0
  0
VERTEX
  5
1CA
  8
LAYER_01
 10
346.2838300136975
 20
1391.285920649459
 30
0.0
 42
0.0030123230349916
  0
SEQEND
  5
1CB
  8
LAYER_01
  0
POLYLINE
  5
1CC
  8
LAYER_01
 66
     1
 10
0.0
 20
0.0
 30
0.0
 70
     1
  0
VERTEX
  5
1CD
  8
LAYER_01
 10
318.1671261034538
 20
1343.609511190257
 30
0.0
  0
VERTEX
  5
1CE
  8
LAYER_01
 10
339.1387138889756
 20
1329.096550222156
 30
0.0
 42
-0.0182959411164728
  0
VERTEX
  5
1CF
  8
LAYER_01
 10
321.2892773414536
 20
1305.219961295348
 30
0.0
  0
VERTEX
  5
1D0
  8
LAYER_01
 10
311.2053745094873
 20
1313.349974511825
 30
0.0
 42
0.0061994905093991
  0
VERTEX
  5
1D1
  8
LAYER_01
 10
317.2508460560892
 20
1321.041610368724
 30
0.0
  0
VERTEX
  5
1D2
  8
LAYER_01
 10
310.9415032213099
 20
1325.875287204386
 30
0.0
 42
-0.0104515253473162
  0
VERTEX
  5
1D3
  8
LAYER_01
 10
300.8479908352521
 20
1313.255706428876
 30
0.0
  0
VERTEX
  5
1D4
  8
LAYER_01
 10
316.7344698142921
 20
1299.671244491057
 30
0.0
 42
-0.0028237768398007
  0
VERTEX
  5
1D5
  8
LAYER_01
 10
313.7631365376061
 20
1296.156395156486
 30
0.0
  0
VERTEX
  5
1D6
  8
LAYER_01
 10
294.3797688608168
 20
1312.731032039804
 30
0.0
 42
0.0181382669810253
  0
VERTEX
  5
1D7
  8
LAYER_01
 10
311.6093069883659
 20
1334.42621177057
 30
0.0
  0
VERTEX
  5
1D8
  8
LAYER_01
 10
324.0254794943011
 20
1325.279882411474
 30
0.0
 42
-0.0068617796255333
  0
VERTEX
  5
1D9
  8
LAYER_01
 10
317.4367207244867
 20
1316.58798175847
 30
0.0
  0
VERTEX
  5
1DA
  8
LAYER_01
 10
321.757877678191
 20
1313.218033169541
 30
0.0
 42
0.0113919402256121
  0
VERTEX
  5
1DB
  8
LAYER_01
 10
332.7134914426562
 20
1327.945975226456
 30
0.0
  0
VERTEX
  5
1DC
  8
LAYER_01
 10
315.5252905569514
 20
1339.840720207965
 30
0.0
 42
0.0030123230349699
  0
SEQEND
  5
1DD
  8
LAYER_01
  0
POLYLINE
  5
1DE
  8
LAYER_01
 66
     1
 10
0.0
 20
0.0
 30
0.0
 70
     1
  0
VERTEX
  5
1DF
  8
LAYER_01
 10
280.2965163200486
 20
1297.149707998566
 30
0.0
  0
VERTEX
  5
1E0
  8
LAYER_01
 10
298.7395817743811
 20
1279.534746546588
 30
0.0
 42
-0.0182959411164883
  0
VERTEX
  5
1E1
  8
LAYER_01
 10
277.3747799944506
 20
1258.744385107978
 30
0.0
  0
VERTEX
  5
1E2
  8
LAYER_01
 10
268.6868410079127
 20
1268.351774315813
 30
0.0
 42
0.006199490509424
  0
VERTEX
  5
1E3
  8
LAYER_01
 10
275.8611197084495
 20
1275.002993264467
 30
0.0
  0
VERTEX
  5
1E4
  8
LAYER_01
 10
270.3856090036844
 20
1280.764158188369
 30
0.0
 42
-0.0104515253474049
  0
VERTEX
  5
1E5
  8
LAYER_01
 10
258.4422271366736
 20
1269.878918603689
 30
0.0
  0
VERTEX
  5
1E6
  8
LAYER_01
 10
272.0080391612794
 20
1253.976511093988
 30
0.0
 42
-0.0028237768397987
  0
VERTEX
  5
1E7
  8
LAYER_01
 10
268.5234443525235
 20
1250.969754318879
 30
0.0
  0
VERTEX
  5
1E8
  8
LAYER_01
 10
251.9715625507676
 20
1270.372556671327
 30
0.0
 42
0.0181382669810591
  0
VERTEX
  5
1E9
  8
LAYER_01
 10
272.3828503083218
 20
1289.105339158647
 30
0.0
  0
VERTEX
  5
1EA
  8
LAYER_01
 10
283.2153579868796
 20
1278.129298987611
 30
0.0
 42
-0.0068617796255635
  0
VERTEX
  5
1EB
  8
LAYER_01
 10
275.3480049421045
 20
1270.575119008462
 30
0.0
  0
VERTEX
  5
1EC
  8
LAYER_01
 10
279.0887851784378
 20
1266.570682202366
 30
0.0
 42
0.0113919402256028
  0
VERTEX
  5
1ED
  8
LAYER_01
 10
292.2134748944806
 20
1279.403463274509
 30
0.0
  0
VERTEX
  5
1EE
  8
LAYER_01
 10
277.0976373518354
 20
1293.840591217658
 30
0.0
 42
0.0030123230350272
  0
SEQEND
  5
1EF
  8
LAYER_01
  0
POLYLINE
  5
1F0
  8
LAYER_01
 66
     1
 10
0.0
 20
0.0
 30
0.0
 70
     1
  0
VERTEX
  5
1F1
  8
LAYER_01
 10
221.4338946337625
 20
1875.074660859981
 30
0.0
  0
VERTEX
  5
1F2
  8
LAYER_01
 10
235.9468556018635
 20
1896.046248645503
 30
0.0
 42
-0.0182959411165538
  0
VERTEX
  5
1F3
  8
LAYER_01
 10
259.8234445286712
 20
1878.196812097981
 30
0.0
  0
VERTEX
  5
1F4
  8
LAYER_01
 10
251.6934313121946
 20
1868.112909266015
 30
0.0
 42
0.0061994905094427
  0
VERTEX
  5
1F5
  8
LAYER_01
 10
244.0017954552952
 20
1874.158380812617
 30
0.0
  0
VERTEX
  5
1F6
  8
LAYER_01
 10
239.1681186196335
 20
1867.849037977837
 30
0.0
 42
-0.0104515253473718
  0
VERTEX
  5
1F7
  8
LAYER_01
 10
251.7876993951437
 20
1857.75552559178
 30
0.0
  0
VERTEX
  5
1F8
  8
LAYER_01
 10
265.3721613329622
 20
1873.64200457082
 30
0.0
 42
-0.0028237768397773
  0
VERTEX
  5
1F9
  8
LAYER_01
 10
268.8870106675332
 20
1870.670671294134
 30
0.0
  0
VERTEX
  5
1FA
  8
LAYER_01
 10
252.3123737842149
 20
1851.287303617344
 30
0.0
 42
0.0181382669810451
  0
VERTEX
  5
1FB
  8
LAYER_01
 10
230.6171940534488
 20
1868.516841744893
 30
0.0
  0
VERTEX
  5
1FC
  8
LAYER_01
 10
239.7635234125449
 20
1880.933014250829
 30
0.0
 42
-0.006861779625519
  0
VERTEX
  5
1FD
  8
LAYER_01
 10
248.4554240655498
 20
1874.344255481014
 30
0.0
  0
VERTEX
  5
1FE
  8
LAYER_01
 10
251.8253726544779
 20
1878.665412434719
 30
0.0
 42
0.01139194022566
  0
VERTEX
  5
1FF
  8
LAYER_01
 10
237.0974305975631
 20
1889.621026199184
 30
0.0
  0
VERTEX
  5
200
  8
LAYER_01
 10
225.2026856160536
 20
1872.432825313479
 30
0.0
 42
0.0030123230349361
  0
SEQEND
  5
201
  8
LAYER_01
  0
POLYLINE
  5
202
  8
LAYER_01
 66
     1
 10
0.0
 20
0.0
 30
0.0
 70
     1
  0
VERTEX
  5
203
  8
LAYER_01
 10
267.8936978254535
 20
1837.204051076576
 30
0.0
  0
VERTEX
  5
204
  8
LAYER_01
 10
285.5086592774317
 20
1855.647116530909
 30
0.0
 42
-0.0182959411164824
  0
VERTEX
  5
205
  8
LAYER_01
 10
306.2990207160415
 20
1834.282314750978
 30
0.0
  0
VERTEX
  5
206
  8
LAYER_01
 10
296.6916315082066
 20
1825.59437576444
 30
0.0
 42
0.0061994905093799
  0
VERTEX
  5
207
  8
LAYER_01
 10
290.0404125595522
 20
1832.768654464977
 30
0.0
  0
VERTEX
  5
208
  8
LAYER_01
 10
284.2792476356503
 20
1827.293143760212
 30
0.0
 42
-0.0104515253473571
  0
VERTEX
  5
209
  8
LAYER_01
 10
295.1644872203306
 20
1815.349761893202
 30
0.0
  0
VERTEX
  5
20A
  8
LAYER_01
 10
311.0668947300312
 20
1828.915573917807
 30
0.0
 42
-0.0028237768398244
  0
VERTEX
  5
20B
  8
LAYER_01
 10
314.0736515051411
 20
1825.430979109051
 30
0.0
  0
VERTEX
  5
20C
  8
LAYER_01
 10
294.6708491526925
 20
1808.879097307296
 30
0.0
 42
0.0181382669810705
  0
VERTEX
  5
20D
  8
LAYER_01
 10
275.9380666653725
 20
1829.290385064849
 30
0.0
  0
VERTEX
  5
20E
  8
LAYER_01
 10
286.9141068364078
 20
1840.122892743407
 30
0.0
 42
-0.0068617796255621
  0
VERTEX
  5
20F
  8
LAYER_01
 10
294.4682868155568
 20
1832.255539698632
 30
0.0
  0
VERTEX
  5
210
  8
LAYER_01
 10
298.4727236216542
 20
1835.996319934966
 30
0.0
 42
0.011391940225651
  0
VERTEX
  5
211
  8
LAYER_01
 10
285.6399425495099
 20
1849.121009651008
 30
0.0
  0
VERTEX
  5
212
  8
LAYER_01
 10
271.2028146063615
 20
1834.005172108363
 30
0.0
 42
0.0030123230350162
  0
SEQEND
  5
213
  8
LAYER_01
  0
POLYLINE
  5
214
  8
LAYER_01
 66
     1
 10
0.0
 20
0.0
 30
0.0
 70
     1
  0
VERTEX
  5
215
  8
LAYER_01
 10
307.8572351620174
 20
1792.531776884112
 30
0.0
  0
VERTEX
  5
216
  8
LAYER_01
 10
328.1404582862195
 20
1807.992190526745
 30
0.0
 42
-0.0182959411165537
  0
VERTEX
  5
217
  8
LAYER_01
 10
345.332664538759
 20
1783.638095839939
 30
0.0
  0
VERTEX
  5
218
  8
LAYER_01
 10
334.4844651469599
 20
1776.560046590295
 30
0.0
 42
0.0061994905093724
  0
VERTEX
  5
219
  8
LAYER_01
 10
329.0374381911965
 20
1784.686477893094
 30
0.0
  0
VERTEX
  5
21A
  8
LAYER_01
 10
322.4906441796911
 20
1780.179624564072
 30
0.0
 42
-0.0104515253473775
  0
VERTEX
  5
21B
  8
LAYER_01
 10
331.3735118489271
 20
1766.680458915486
 30
0.0
  0
VERTEX
  5
21C
  8
LAYER_01
 10
349.2022948805564
 20
1777.591568671262
 30
0.0
 42
-0.0028237768397689
  0
VERTEX
  5
21D
  8
LAYER_01
 10
351.6269227655482
 20
1773.679514619336
 30
0.0
  0
VERTEX
  5
21E
  8
LAYER_01
 10
329.8737163320964
 20
1760.36668095512
 30
0.0
 42
0.0181382669810403
  0
VERTEX
  5
21F
  8
LAYER_01
 10
314.5645943636007
 20
1783.457124696906
 30
0.0
  0
VERTEX
  5
220
  8
LAYER_01
 10
327.1000788101754
 20
1792.43923525801
 30
0.0
 42
-0.0068617796255488
  0
VERTEX
  5
221
  8
LAYER_01
 10
333.3305291334963
 20
1783.487008280484
 30
0.0
  0
VERTEX
  5
222
  8
LAYER_01
 10
337.8708516326324
 20
1786.55530137509
 30
0.0
 42
0.011391940225615
  0
VERTEX
  5
223
  8
LAYER_01
 10
327.2492172048138
 20
1801.525893623553
 30
0.0
  0
VERTEX
  5
224
  8
LAYER_01
 10
310.6251963040669
 20
1788.854621510856
 30
0.0
 42
0.0030123230350073
  0
SEQEND
  5
225
  8
LAYER_01
  0
POLYLINE
  5
226
  8
LAYER_01
 66
     1
 10
0.0
 20
0.0
 30
0.0
 70
     1
  0
VERTEX
  5
227
  8
LAYER_01
 10
340.3404717228514
 20
1742.157817931986
 30
0.0
  0
VERTEX
  5
228
  8
LAYER_01
 10
362.7925162498011
 20
1754.254893068866
 30
0.0
 42
-0.0182959411164993
  0
VERTEX
  5
229
  8
LAYER_01
 10
375.963238140672
 20
1727.511184112981
 30
0.0
  0
VERTEX
  5
22A
  8
LAYER_01
 10
364.1413472370442
 20
1722.217309663455
 30
0.0
 42
0.0061994905093991
  0
VERTEX
  5
22B
  8
LAYER_01
 10
360.0326361554687
 20
1731.095793859761
 30
0.0
  0
VERTEX
  5
22C
  8
LAYER_01
 10
352.8614168524863
 20
1727.668571592832
 30
0.0
 42
-0.0104515253473754
  0
VERTEX
  5
22D
  8
LAYER_01
 10
359.5231869237143
 20
1712.946016422101
 30
0.0
  0
VERTEX
  5
22E
  8
LAYER_01
 10
378.8393416686955
 20
1720.933756174965
 30
0.0
 42
-0.0028237768397545
  0
VERTEX
  5
22F
  8
LAYER_01
 10
380.6221382781619
 20
1716.690570633988
 30
0.0
  0
VERTEX
  5
230
  8
LAYER_01
 10
357.0541639008509
 20
1706.944591254886
 30
0.0
 42
0.0181382669809868
  0
VERTEX
  5
231
  8
LAYER_01
 10
345.545663842107
 20
1732.145627623194
 30
0.0
  0
VERTEX
  5
232
  8
LAYER_01
 10
359.331927334259
 20
1739.056171694912
 30
0.0
 42
-0.0068617796255288
  0
VERTEX
  5
233
  8
LAYER_01
 10
364.0852336371121
 20
1729.23950432356
 30
0.0
  0
VERTEX
  5
234
  8
LAYER_01
 10
369.0496440208918
 20
1731.559758717369
 30
0.0
 42
0.0113919402256366
  0
VERTEX
  5
235
  8
LAYER_01
 10
360.9006961281955
 20
1748.007627832549
 30
0.0
  0
VERTEX
  5
236
  8
LAYER_01
 10
342.4991208363888
 20
1738.092929922755
 30
0.0
 42
0.0030123230349298
  0
SEQEND
  5
237
  8
LAYER_01
  0
POLYLINE
  5
238
  8
LAYER_01
 66
     1
 10
0.0
 20
0.0
 30
0.0
 70
     1
  0
VERTEX
  5
239
  8
LAYER_01
 10
364.5435624181463
 20
1687.322548271184
 30
0.0
  0
VERTEX
  5
23A
  8
LAYER_01
 10
388.6115844975268
 20
1695.75841476455
 30
0.0
 42
-0.018295941116521
  0
VERTEX
  5
23B
  8
LAYER_01
 10
397.4365151426554
 20
1667.283610411361
 30
0.0
  0
VERTEX
  5
23C
  8
LAYER_01
 10
384.932026915853
 20
1663.904263520262
 30
0.0
 42
0.0061994905094026
  0
VERTEX
  5
23D
  8
LAYER_01
 10
382.262801811324
 20
1673.316182863163
 30
0.0
  0
VERTEX
  5
23E
  8
LAYER_01
 10
374.6437364360168
 20
1671.052981244838
 30
0.0
 42
-0.0104515253474176
  0
VERTEX
  5
23F
  8
LAYER_01
 10
378.9203740209355
 20
1655.469554721625
 30
0.0
  0
VERTEX
  5
240
  8
LAYER_01
 10
399.2482726428045
 20
1660.337239809071
 30
0.0
 42
-0.0028237768398113
  0
VERTEX
  5
241
  8
LAYER_01
 10
400.3453396074579
 20
1655.867404089389
 30
0.0
  0
VERTEX
  5
242
  8
LAYER_01
 10
375.5429190330798
 20
1649.928257352766
 30
0.0
 42
0.0181382669810946
  0
VERTEX
  5
243
  8
LAYER_01
 10
368.118418350056
 20
1676.619353194763
 30
0.0
  0
VERTEX
  5
244
  8
LAYER_01
 10
382.8159973266231
 20
1681.288170247269
 30
0.0
 42
-0.00686177962558
  0
VERTEX
  5
245
  8
LAYER_01
 10
385.9751174325132
 20
1670.848781412425
 30
0.0
  0
VERTEX
  5
246
  8
LAYER_01
 10
391.2413754413542
 20
1672.363864741777
 30
0.0
 42
0.0113919402256305
  0
VERTEX
  5
247
  8
LAYER_01
 10
385.7657682257059
 20
1689.88400959871
 30
0.0
  0
VERTEX
  5
248
  8
LAYER_01
 10
366.0397463978509
 20
1682.970018659356
 30
0.0
 42
0.0030123230349301
  0
SEQEND
  5
249
  8
LAYER_01
  0
POLYLINE
  5
24A
  8
LAYER_01
 66
     1
 10
0.0
 20
0.0
 30
0.0
 70
     1
  0
VERTEX
  5
24B
  8
LAYER_01
 10
379.8705468295314
 20
1629.37619422858
 30
0.0
  0
VERTEX
  5
24C
  8
LAYER_01
 10
404.9619118805629
 20
1633.943133048331
 30
0.0
 42
-0.0182959411165458
  0
VERTEX
  5
24D
  8
LAYER_01
 10
409.2237521992004
 20
1604.438377483471
 30
0.0
  0
VERTEX
  5
24E
  8
LAYER_01
 10
396.3445686493838
 20
1603.056768886668
 30
0.0
 42
0.0061994905094334
  0
VERTEX
  5
24F
  8
LAYER_01
 10
395.1805547026253
 20
1612.770370685572
 30
0.0
  0
VERTEX
  5
250
  8
LAYER_01
 10
387.3012499307613
 20
1611.726917250829
 30
0.0
 42
-0.0104515253473215
  0
VERTEX
  5
251
  8
LAYER_01
 10
389.0874500186841
 20
1595.666335054563
 30
0.0
  0
VERTEX
  5
252
  8
LAYER_01
 10
409.9265521889429
 20
1597.294106914818
 30
0.0
 42
-0.0028237768398172
  0
VERTEX
  5
253
  8
LAYER_01
 10
410.3108760791571
 20
1592.707683206383
 30
0.0
  0
VERTEX
  5
254
  8
LAYER_01
 10
384.8847272167682
 20
1590.721610615792
 30
0.0
 42
0.0181382669810604
  0
VERTEX
  5
255
  8
LAYER_01
 10
381.7270417567847
 20
1618.24554256918
 30
0.0
  0
VERTEX
  5
256
  8
LAYER_01
 10
396.9740330448959
 20
1620.557670831726
 30
0.0
 42
-0.0068617796255455
  0
VERTEX
  5
257
  8
LAYER_01
 10
398.4611789322975
 20
1609.752612932849
 30
0.0
  0
VERTEX
  5
258
  8
LAYER_01
 10
403.8996118163145
 20
1610.425218817903
 30
0.0
 42
0.0113919402256636
  0
VERTEX
  5
259
  8
LAYER_01
 10
401.2321728998613
 20
1628.586235304184
 30
0.0
  0
VERTEX
  5
25A
  8
LAYER_01
 10
380.6674246602729
 20
1624.843196738416
 30
0.0
 42
0.0030123230349941
  0
SEQEND
  5
25B
  8
LAYER_01
  0
POLYLINE
  5
25C
  8
LAYER_01
 66
     1
 10
0.0
 20
0.0
 30
0.0
 70
     1
  0
VERTEX
  5
25D
  8
LAYER_01
 10
385.9440237334534
 20
1569.745587353628
 30
0.0
  0
VERTEX
  5
25E
  8
LAYER_01
 10
411.4408990751126
 20
1570.33114530922
 30
0.0
 42
-0.0182959411165171
  0
VERTEX
  5
25F
  8
LAYER_01
 10
411.0347084143774
 20
1540.522943535365
 30
0.0
  0
VERTEX
  5
260
  8
LAYER_01
 10
398.0979577841033
 20
1541.173093021807
 30
0.0
 42
0.0061994905094052
  0
VERTEX
  5
261
  8
LAYER_01
 10
398.467816881625
 20
1550.949196162829
 30
0.0
  0
VERTEX
  5
262
  8
LAYER_01
 10
390.5222873466008
 20
1551.151184198255
 30
0.0
 42
-0.0104515253473684
  0
VERTEX
  5
263
  8
LAYER_01
 10
389.7740677633045
 20
1535.008911164624
 30
0.0
  0
VERTEX
  5
264
  8
LAYER_01
 10
410.6112456255066
 20
1533.356688652223
 30
0.0
 42
-0.0028237768398113
  0
VERTEX
  5
265
  8
LAYER_01
 10
410.2733631116066
 20
1528.766609928206
 30
0.0
  0
VERTEX
  5
266
  8
LAYER_01
 10
384.8495621307484
 20
1530.782515182225
 30
0.0
 42
0.0181382669810371
  0
VERTEX
  5
267
  8
LAYER_01
 10
386.0364445895881
 20
1558.461552695617
 30
0.0
  0
VERTEX
  5
268
  8
LAYER_01
 10
401.4574166618669
 20
1558.360059896866
 30
0.0
 42
-0.0068617796255456
  0
VERTEX
  5
269
  8
LAYER_01
 10
401.2359698634777
 20
1547.455389319357
 30
0.0
  0
VERTEX
  5
26A
  8
LAYER_01
 10
406.7126653559417
 20
1547.268955970973
 30
0.0
 42
0.0113919402256722
  0
VERTEX
  5
26B
  8
LAYER_01
 10
406.9190759375297
 20
1565.623659587751
 30
0.0
  0
VERTEX
  5
26C
  8
LAYER_01
 10
386.0219736383527
 20
1565.143739427491
 30
0.0
 42
0.0030123230349786
  0
SEQEND
  5
26D
  8
LAYER_01
  0
ENDSEC
  0
EOF
