  0
SECTION
  2
HEADER
  9
$ACADVER
  1
AC1009
  9
$DWGCODEPAGE
  3
ansi_1252
  9
$INSBASE
 10
0.0
 20
0.0
 30
0.0
  9
$EXTMIN
 10
1.000000000000000E+20
 20
1.000000000000000E+20
 30
1.000000000000000E+20
  9
$EXTMAX
 10
-1.000000000000000E+20
 20
-1.000000000000000E+20
 30
-1.000000000000000E+20
  9
$LIMMIN
 10
0.0
 20
0.0
  9
$LIMMAX
 10
12.0
 20
9.0
  9
$ORTHOMODE
 70
     0
  9
$REGENMODE
 70
     1
  9
$FILLMODE
 70
     1
  9
$QTEXTMODE
 70
     0
  9
$MIRRTEXT
 70
     1
  9
$DRAGMODE
 70
     2
  9
$LTSCALE
 40
1.0
  9
$OSMODE
 70
    37
  9
$ATTMODE
 70
     1
  9
$TEXTSIZE
 40
0.2
  9
$TRACEWID
 40
0.05
  9
$TEXTSTYLE
  7
STANDARD
  9
$CLAYER
  8
DEFAULT_LAYER
  9
$CELTYPE
  6
BYLAYER
  9
$CECOLOR
 62
   256
  9
$DIMSCALE
 40
1.0
  9
$DIMASZ
 40
0.18
  9
$DIMEXO
 40
0.0625
  9
$DIMDLI
 40
0.38
  9
$DIMRND
 40
0.0
  9
$DIMDLE
 40
0.0
  9
$DIMEXE
 40
0.18
  9
$DIMTP
 40
0.0
  9
$DIMTM
 40
0.0
  9
$DIMTXT
 40
0.18
  9
$DIMCEN
 40
0.09
  9
$DIMTSZ
 40
0.0
  9
$DIMTOL
 70
     0
  9
$DIMLIM
 70
     0
  9
$DIMTIH
 70
     1
  9
$DIMTOH
 70
     1
  9
$DIMSE1
 70
     0
  9
$DIMSE2
 70
     0
  9
$DIMTAD
 70
     0
  9
$DIMZIN
 70
     0
  9
$DIMBLK
  1

  9
$DIMASO
 70
     1
  9
$DIMSHO
 70
     1
  9
$DIMPOST
  1

  9
$DIMAPOST
  1

  9
$DIMALT
 70
     0
  9
$DIMALTD
 70
     2
  9
$DIMALTF
 40
25.4
  9
$DIMLFAC
 40
1.0
  9
$DIMTOFL
 70
     0
  9
$DIMTVP
 40
0.0
  9
$DIMTIX
 70
     0
  9
$DIMSOXD
 70
     0
  9
$DIMSAH
 70
     0
  9
$DIMBLK1
  1

  9
$DIMBLK2
  1

  9
$DIMSTYLE
  2
STANDARD_ACAD
  9
$DIMCLRD
 70
     0
  9
$DIMCLRE
 70
     0
  9
$DIMCLRT
 70
     0
  9
$DIMTFAC
 40
1.0
  9
$DIMGAP
 40
0.09
  9
$LUNITS
 70
     2
  9
$LUPREC
 70
     3
  9
$SKETCHINC
 40
0.1
  9
$FILLETRAD
 40
0.5
  9
$AUNITS
 70
     0
  9
$AUPREC
 70
     0
  9
$MENU
  1
.
  9
$ELEVATION
 40
0.0
  9
$PELEVATION
 40
0.0
  9
$THICKNESS
 40
0.0
  9
$LIMCHECK
 70
     0
  9
$CHAMFERA
 40
0.0
  9
$CHAMFERB
 40
0.0
  9
$SKPOLY
 70
     0
  9
$TDCREATE
 40
2460215.754323079
  9
$TDUPDATE
 40
2460215.754323125
  9
$TDINDWG
 40
0.0000000116
  9
$TDUSRTIMER
 40
0.0000000116
  9
$USRTIMER
 70
     1
  9
$ANGBASE
 50
0.0
  9
$ANGDIR
 70
     0
  9
$PDMODE
 70
     0
  9
$PDSIZE
 40
0.0
  9
$PLINEWID
 40
0.0
  9
$COORDS
 70
     1
  9
$SPLFRAME
 70
     0
  9
$SPLINETYPE
 70
     6
  9
$SPLINESEGS
 70
     8
  9
$ATTDIA
 70
     0
  9
$ATTREQ
 70
     1
  9
$HANDLING
 70
     1
  9
$HANDSEED
  5
201
  9
$SURFTAB1
 70
     6
  9
$SURFTAB2
 70
     6
  9
$SURFTYPE
 70
     6
  9
$SURFU
 70
     6
  9
$SURFV
 70
     6
  9
$UCSNAME
  2

  9
$UCSORG
 10
0.0
 20
0.0
 30
0.0
  9
$UCSXDIR
 10
1.0
 20
0.0
 30
0.0
  9
$UCSYDIR
 10
0.0
 20
1.0
 30
0.0
  9
$PUCSNAME
  2

  9
$PUCSORG
 10
0.0
 20
0.0
 30
0.0
  9
$PUCSXDIR
 10
1.0
 20
0.0
 30
0.0
  9
$PUCSYDIR
 10
0.0
 20
1.0
 30
0.0
  9
$USERI1
 70
     0
  9
$USERI2
 70
     0
  9
$USERI3
 70
     0
  9
$USERI4
 70
     0
  9
$USERI5
 70
     0
  9
$USERR1
 40
0.0
  9
$USERR2
 40
0.0
  9
$USERR3
 40
0.0
  9
$USERR4
 40
0.0
  9
$USERR5
 40
0.0
  9
$WORLDVIEW
 70
     1
  9
$SHADEDGE
 70
     3
  9
$SHADEDIF
 70
    70
  9
$TILEMODE
 70
     1
  9
$MAXACTVP
 70
    64
  9
$PLIMCHECK
 70
     0
  9
$PEXTMIN
 10
1.000000000000000E+20
 20
1.000000000000000E+20
 30
1.000000000000000E+20
  9
$PEXTMAX
 10
-1.000000000000000E+20
 20
-1.000000000000000E+20
 30
-1.000000000000000E+20
  9
$PLIMMIN
 10
0.0
 20
0.0
  9
$PLIMMAX
 10
12.0
 20
9.0
  9
$UNITMODE
 70
     0
  9
$VISRETAIN
 70
     1
  9
$PLINEGEN
 70
     0
  9
$PSLTSCALE
 70
     1
  0
ENDSEC
  0
SECTION
  2
TABLES
  0
TABLE
  2
VPORT
 70
     1
  0
VPORT
  2
*ACTIVE
 70
     0
 10
0.0
 20
0.0
 11
1.0
 21
1.0
 12
10.42990654205607
 22
4.5
 13
0.0
 23
0.0
 14
0.5
 24
0.5
 15
0.5
 25
0.5
 16
0.0
 26
0.0
 36
1.0
 17
0.0
 27
0.0
 37
0.0
 40
9.0
 41
1.972972972850329
 42
50.0
 43
0.0
 44
0.0
 50
0.0
 51
0.0
 71
     0
 72
   100
 73
     1
 74
     3
 75
     0
 76
     0
 77
     0
 78
     0
  0
ENDTAB
  0
TABLE
  2
LTYPE
 70
     1
  0
LTYPE
  2
CONTINUOUS
 70
     0
  3
Solid line
 72
    65
 73
     0
 40
0.0
  0
ENDTAB
  0
TABLE
  2
LAYER
 70
     2
  0
LAYER
  2
0
 70
     0
 62
     7
  6
CONTINUOUS
  0
LAYER
  2
DEFAULT_LAYER
 70
     0
 62
     1
  6
CONTINUOUS
  0
ENDTAB
  0
TABLE
  2
STYLE
 70
     1
  0
STYLE
  2
STANDARD
 70
     0
 40
0.0
 41
1.0
 50
0.0
 71
     0
 42
0.2
  3
txt
  4

  0
ENDTAB
  0
TABLE
  2
VIEW
 70
     0
  0
ENDTAB
  0
TABLE
  2
UCS
 70
     0
  0
ENDTAB
  0
TABLE
  2
APPID
 70
     2
  0
APPID
  2
ACAD
 70
     0
  0
APPID
  2
RHINO
 70
     0
  0
ENDTAB
  0
TABLE
  2
DIMSTYLE
 70
     1
  0
DIMSTYLE
  2
STANDARD_ACAD
 70
     0
  3

  4

  5

  6

  7

 40
1.0
 41
0.18
 42
0.0625
 43
0.38
 44
0.18
 45
0.0
 46
0.0
 47
0.0
 48
0.0
140
0.18
141
0.09
142
0.0
143
25.4
144
1.0
145
0.0
146
1.0
147
0.09
 71
     0
 72
     0
 73
     1
 74
     1
 75
     0
 76
     0
 77
     0
 78
     0
170
     0
171
     2
172
     0
173
     0
174
     0
175
     0
176
     0
177
     0
178
     0
  0
ENDTAB
  0
ENDSEC
  0
SECTION
  2
BLOCKS
  0
BLOCK
  8
0
  2
$MODEL_SPACE
 70
     0
 10
0.0
 20
0.0
 30
0.0
  3
$MODEL_SPACE
  1

  0
ENDBLK
  5
21
  8
0
  0
BLOCK
 67
     1
  8
0
  2
$PAPER_SPACE
 70
     0
 10
0.0
 20
0.0
 30
0.0
  3
$PAPER_SPACE
  1

  0
ENDBLK
  5
1D
 67
     1
  8
0
  0
ENDSEC
  0
SECTION
  2
ENTITIES
  0
POLYLINE
  5
70
  8
DEFAULT_LAYER
 66
     1
 10
0.0
 20
0.0
 30
0.0
 70
     1
  0
VERTEX
  5
71
  8
DEFAULT_LAYER
 10
251.2304714750237
 20
246.8928049739451
 30
0.0
  0
VERTEX
  5
72
  8
DEFAULT_LAYER
 10
257.2784381060054
 20
252.9407716049269
 30
0.0
  0
VERTEX
  5
73
  8
DEFAULT_LAYER
 10
261.633410631347
 20
248.5857990795849
 30
0.0
 42
0.9027565632079516
  0
VERTEX
  5
74
  8
DEFAULT_LAYER
 10
265.4989495339494
 20
252.4513379821875
 30
0.0
  0
VERTEX
  5
75
  8
DEFAULT_LAYER
 10
261.1439770086077
 20
256.8063105075292
 30
0.0
  0
VERTEX
  5
76
  8
DEFAULT_LAYER
 10
267.1919436395893
 20
262.8542771385108
 30
0.0
  0
VERTEX
  5
77
  8
DEFAULT_LAYER
 10
261.1439770086076
 20
268.9022437694924
 30
0.0
  0
VERTEX
  5
78
  8
DEFAULT_LAYER
 10
265.4989495339496
 20
273.2572162948341
 30
0.0
 42
0.902756563207925
  0
VERTEX
  5
79
  8
DEFAULT_LAYER
 10
261.6334106313471
 20
277.1227551974365
 30
0.0
  0
VERTEX
  5
7A
  8
DEFAULT_LAYER
 10
257.2784381060053
 20
272.7677826720948
 30
0.0
  0
VERTEX
  5
7B
  8
DEFAULT_LAYER
 10
251.2304714750237
 20
278.8157493030764
 30
0.0
  0
SEQEND
  5
7C
  8
DEFAULT_LAYER
  0
POLYLINE
  5
7D
  8
DEFAULT_LAYER
 66
     1
 10
0.0
 20
0.0
 30
0.0
 70
     1
  0
VERTEX
  5
7E
  8
DEFAULT_LAYER
 10
606.6586515897372
 20
278.8157493030764
 30
0.0
  0
VERTEX
  5
7F
  8
DEFAULT_LAYER
 10
600.6106849587555
 20
272.7677826720947
 30
0.0
  0
VERTEX
  5
80
  8
DEFAULT_LAYER
 10
596.2557124334138
 20
277.1227551974366
 30
0.0
 42
0.9027565632079748
  0
VERTEX
  5
81
  8
DEFAULT_LAYER
 10
592.3901735308115
 20
273.2572162948342
 30
0.0
  0
VERTEX
  5
82
  8
DEFAULT_LAYER
 10
596.7451460561531
 20
268.9022437694924
 30
0.0
  0
VERTEX
  5
83
  8
DEFAULT_LAYER
 10
590.6971794251715
 20
262.8542771385108
 30
0.0
  0
VERTEX
  5
84
  8
DEFAULT_LAYER
 10
596.7451460561533
 20
256.8063105075291
 30
0.0
  0
VERTEX
  5
85
  8
DEFAULT_LAYER
 10
592.3901735308114
 20
252.4513379821875
 30
0.0
 42
0.9027565632080031
  0
VERTEX
  5
86
  8
DEFAULT_LAYER
 10
596.2557124334138
 20
248.585799079585
 30
0.0
  0
VERTEX
  5
87
  8
DEFAULT_LAYER
 10
600.6106849587557
 20
252.9407716049267
 30
0.0
  0
VERTEX
  5
88
  8
DEFAULT_LAYER
 10
606.6586515897372
 20
246.8928049739451
 30
0.0
  0
SEQEND
  5
89
  8
DEFAULT_LAYER
  0
POLYLINE
  5
8A
  8
DEFAULT_LAYER
 66
     1
 10
0.0
 20
0.0
 30
0.0
 70
     1
  0
VERTEX
  5
8B
  8
DEFAULT_LAYER
 10
304.3952689666179
 20
282.4412144260338
 30
0.0
 42
0.9027565632079106
  0
VERTEX
  5
8C
  8
DEFAULT_LAYER
 10
290.8815642066185
 20
268.9275096660344
 30
0.0
  0
VERTEX
  5
8D
  8
DEFAULT_LAYER
 10
289.0353233385406
 20
267.0812687979563
 30
0.0
  0
VERTEX
  5
8E
  8
DEFAULT_LAYER
 10
286.7006822829094
 20
269.4159098535876
 30
0.0
  0
VERTEX
  5
8F
  8
DEFAULT_LAYER
 10
286.7006822829094
 20
286.6220963497428
 30
0.0
  0
VERTEX
  5
90
  8
DEFAULT_LAYER
 10
303.9068687790647
 20
286.6220963497428
 30
0.0
  0
VERTEX
  5
91
  8
DEFAULT_LAYER
 10
306.2415098346958
 20
284.2874552941118
 30
0.0
  0
SEQEND
  5
92
  8
DEFAULT_LAYER
  0
POLYLINE
  5
93
  8
DEFAULT_LAYER
 66
     1
 10
0.0
 20
0.0
 30
0.0
 70
     1
  0
VERTEX
  5
94
  8
DEFAULT_LAYER
 10
290.8815642066184
 20
256.7810446109872
 30
0.0
 42
0.9027565632079126
  0
VERTEX
  5
95
  8
DEFAULT_LAYER
 10
304.3952689666178
 20
243.2673398509878
 30
0.0
  0
VERTEX
  5
96
  8
DEFAULT_LAYER
 10
306.2415098346959
 20
241.4210989829099
 30
0.0
  0
VERTEX
  5
97
  8
DEFAULT_LAYER
 10
303.9068687790647
 20
239.0864579272788
 30
0.0
  0
VERTEX
  5
98
  8
DEFAULT_LAYER
 10
286.7006822829094
 20
239.0864579272788
 30
0.0
  0
VERTEX
  5
99
  8
DEFAULT_LAYER
 10
286.7006822829094
 20
256.292644423434
 30
0.0
  0
VERTEX
  5
9A
  8
DEFAULT_LAYER
 10
289.0353233385404
 20
258.6272854790652
 30
0.0
  0
SEQEND
  5
9B
  8
DEFAULT_LAYER
  0
POLYLINE
  5
9C
  8
DEFAULT_LAYER
 66
     1
 10
0.0
 20
0.0
 30
0.0
 70
     1
  0
VERTEX
  5
9D
  8
DEFAULT_LAYER
 10
257.3037040025472
 20
243.2673398509877
 30
0.0
 42
0.9027565632079113
  0
VERTEX
  5
9E
  8
DEFAULT_LAYER
 10
270.8174087625467
 20
256.7810446109872
 30
0.0
  0
VERTEX
  5
9F
  8
DEFAULT_LAYER
 10
272.6636496306245
 20
258.6272854790652
 30
0.0
  0
VERTEX
  5
A0
  8
DEFAULT_LAYER
 10
274.9982906862557
 20
256.2926444234341
 30
0.0
  0
VERTEX
  5
A1
  8
DEFAULT_LAYER
 10
274.9982906862557
 20
239.0864579272788
 30
0.0
  0
VERTEX
  5
A2
  8
DEFAULT_LAYER
 10
257.7921041901005
 20
239.0864579272788
 30
0.0
  0
VERTEX
  5
A3
  8
DEFAULT_LAYER
 10
255.4574631344693
 20
241.4210989829098
 30
0.0
  0
SEQEND
  5
A4
  8
DEFAULT_LAYER
  0
POLYLINE
  5
A5
  8
DEFAULT_LAYER
 66
     1
 10
0.0
 20
0.0
 30
0.0
 70
     1
  0
VERTEX
  5
A6
  8
DEFAULT_LAYER
 10
270.8174087625467
 20
268.9275096660343
 30
0.0
 42
0.9027565632079106
  0
VERTEX
  5
A7
  8
DEFAULT_LAYER
 10
257.3037040025473
 20
282.4412144260338
 30
0.0
  0
VERTEX
  5
A8
  8
DEFAULT_LAYER
 10
255.4574631344693
 20
284.2874552941116
 30
0.0
  0
VERTEX
  5
A9
  8
DEFAULT_LAYER
 10
257.7921041901005
 20
286.6220963497428
 30
0.0
  0
VERTEX
  5
AA
  8
DEFAULT_LAYER
 10
274.9982906862557
 20
286.6220963497428
 30
0.0
  0
VERTEX
  5
AB
  8
DEFAULT_LAYER
 10
274.9982906862557
 20
269.4159098535876
 30
0.0
  0
VERTEX
  5
AC
  8
DEFAULT_LAYER
 10
272.6636496306247
 20
267.0812687979564
 30
0.0
  0
SEQEND
  5
AD
  8
DEFAULT_LAYER
  0
POLYLINE
  5
AE
  8
DEFAULT_LAYER
 66
     1
 10
0.0
 20
0.0
 30
0.0
 70
     1
  0
VERTEX
  5
AF
  8
DEFAULT_LAYER
 10
285.9540628313333
 20
262.8542771385108
 30
0.0
  0
VERTEX
  5
B0
  8
DEFAULT_LAYER
 10
280.8494864845825
 20
267.9588534852617
 30
0.0
  0
VERTEX
  5
B1
  8
DEFAULT_LAYER
 10
275.7449101378319
 20
262.8542771385108
 30
0.0
  0
VERTEX
  5
B2
  8
DEFAULT_LAYER
 10
280.8494864845826
 20
257.7497007917598
 30
0.0
  0
SEQEND
  5
B3
  8
DEFAULT_LAYER
  0
POLYLINE
  5
B4
  8
DEFAULT_LAYER
 66
     1
 10
0.0
 20
0.0
 30
0.0
 70
     1
  0
VERTEX
  5
B5
  8
DEFAULT_LAYER
 10
363.633298985737
 20
282.4412144260338
 30
0.0
 42
0.9027565632079106
  0
VERTEX
  5
B6
  8
DEFAULT_LAYER
 10
350.1195942257376
 20
268.9275096660344
 30
0.0
  0
VERTEX
  5
B7
  8
DEFAULT_LAYER
 10
348.2733533576597
 20
267.0812687979563
 30
0.0
  0
VERTEX
  5
B8
  8
DEFAULT_LAYER
 10
345.9387123020286
 20
269.4159098535876
 30
0.0
  0
VERTEX
  5
B9
  8
DEFAULT_LAYER
 10
345.9387123020286
 20
286.6220963497428
 30
0.0
  0
VERTEX
  5
BA
  8
DEFAULT_LAYER
 10
363.1448987981838
 20
286.6220963497428
 30
0.0
  0
VERTEX
  5
BB
  8
DEFAULT_LAYER
 10
365.479539853815
 20
284.2874552941118
 30
0.0
  0
SEQEND
  5
BC
  8
DEFAULT_LAYER
  0
POLYLINE
  5
BD
  8
DEFAULT_LAYER
 66
     1
 10
0.0
 20
0.0
 30
0.0
 70
     1
  0
VERTEX
  5
BE
  8
DEFAULT_LAYER
 10
350.1195942257376
 20
256.7810446109872
 30
0.0
 42
0.9027565632079126
  0
VERTEX
  5
BF
  8
DEFAULT_LAYER
 10
363.633298985737
 20
243.2673398509878
 30
0.0
  0
VERTEX
  5
C0
  8
DEFAULT_LAYER
 10
365.479539853815
 20
241.4210989829099
 30
0.0
  0
VERTEX
  5
C1
  8
DEFAULT_LAYER
 10
363.1448987981838
 20
239.0864579272788
 30
0.0
  0
VERTEX
  5
C2
  8
DEFAULT_LAYER
 10
345.9387123020286
 20
239.0864579272788
 30
0.0
  0
VERTEX
  5
C3
  8
DEFAULT_LAYER
 10
345.9387123020286
 20
256.292644423434
 30
0.0
  0
VERTEX
  5
C4
  8
DEFAULT_LAYER
 10
348.2733533576596
 20
258.6272854790652
 30
0.0
  0
SEQEND
  5
C5
  8
DEFAULT_LAYER
  0
POLYLINE
  5
C6
  8
DEFAULT_LAYER
 66
     1
 10
0.0
 20
0.0
 30
0.0
 70
     1
  0
VERTEX
  5
C7
  8
DEFAULT_LAYER
 10
316.5417340216664
 20
243.2673398509877
 30
0.0
 42
0.9027565632079113
  0
VERTEX
  5
C8
  8
DEFAULT_LAYER
 10
330.0554387816658
 20
256.7810446109872
 30
0.0
  0
VERTEX
  5
C9
  8
DEFAULT_LAYER
 10
331.9016796497437
 20
258.6272854790652
 30
0.0
  0
VERTEX
  5
CA
  8
DEFAULT_LAYER
 10
334.2363207053749
 20
256.2926444234341
 30
0.0
  0
VERTEX
  5
CB
  8
DEFAULT_LAYER
 10
334.2363207053749
 20
239.0864579272788
 30
0.0
  0
VERTEX
  5
CC
  8
DEFAULT_LAYER
 10
317.0301342092196
 20
239.0864579272788
 30
0.0
  0
VERTEX
  5
CD
  8
DEFAULT_LAYER
 10
314.6954931535885
 20
241.4210989829098
 30
0.0
  0
SEQEND
  5
CE
  8
DEFAULT_LAYER
  0
POLYLINE
  5
CF
  8
DEFAULT_LAYER
 66
     1
 10
0.0
 20
0.0
 30
0.0
 70
     1
  0
VERTEX
  5
D0
  8
DEFAULT_LAYER
 10
330.0554387816659
 20
268.9275096660343
 30
0.0
 42
0.9027565632079106
  0
VERTEX
  5
D1
  8
DEFAULT_LAYER
 10
316.5417340216665
 20
282.4412144260338
 30
0.0
  0
VERTEX
  5
D2
  8
DEFAULT_LAYER
 10
314.6954931535884
 20
284.2874552941116
 30
0.0
  0
VERTEX
  5
D3
  8
DEFAULT_LAYER
 10
317.0301342092196
 20
286.6220963497428
 30
0.0
  0
VERTEX
  5
D4
  8
DEFAULT_LAYER
 10
334.2363207053749
 20
286.6220963497428
 30
0.0
  0
VERTEX
  5
D5
  8
DEFAULT_LAYER
 10
334.2363207053749
 20
269.4159098535876
 30
0.0
  0
VERTEX
  5
D6
  8
DEFAULT_LAYER
 10
331.9016796497439
 20
267.0812687979564
 30
0.0
  0
SEQEND
  5
D7
  8
DEFAULT_LAYER
  0
POLYLINE
  5
D8
  8
DEFAULT_LAYER
 66
     1
 10
0.0
 20
0.0
 30
0.0
 70
     1
  0
VERTEX
  5
D9
  8
DEFAULT_LAYER
 10
345.1920928504524
 20
262.8542771385108
 30
0.0
  0
VERTEX
  5
DA
  8
DEFAULT_LAYER
 10
340.0875165037017
 20
267.9588534852617
 30
0.0
  0
VERTEX
  5
DB
  8
DEFAULT_LAYER
 10
334.9829401569511
 20
262.8542771385108
 30
0.0
  0
VERTEX
  5
DC
  8
DEFAULT_LAYER
 10
340.0875165037017
 20
257.7497007917598
 30
0.0
  0
SEQEND
  5
DD
  8
DEFAULT_LAYER
  0
POLYLINE
  5
DE
  8
DEFAULT_LAYER
 66
     1
 10
0.0
 20
0.0
 30
0.0
 70
     1
  0
VERTEX
  5
DF
  8
DEFAULT_LAYER
 10
422.8713290048562
 20
282.4412144260338
 30
0.0
 42
0.9027565632079106
  0
VERTEX
  5
E0
  8
DEFAULT_LAYER
 10
409.3576242448568
 20
268.9275096660344
 30
0.0
  0
VERTEX
  5
E1
  8
DEFAULT_LAYER
 10
407.5113833767789
 20
267.0812687979563
 30
0.0
  0
VERTEX
  5
E2
  8
DEFAULT_LAYER
 10
405.1767423211477
 20
269.4159098535876
 30
0.0
  0
VERTEX
  5
E3
  8
DEFAULT_LAYER
 10
405.1767423211477
 20
286.6220963497428
 30
0.0
  0
VERTEX
  5
E4
  8
DEFAULT_LAYER
 10
422.382928817303
 20
286.6220963497428
 30
0.0
  0
VERTEX
  5
E5
  8
DEFAULT_LAYER
 10
424.7175698729341
 20
284.2874552941118
 30
0.0
  0
SEQEND
  5
E6
  8
DEFAULT_LAYER
  0
POLYLINE
  5
E7
  8
DEFAULT_LAYER
 66
     1
 10
0.0
 20
0.0
 30
0.0
 70
     1
  0
VERTEX
  5
E8
  8
DEFAULT_LAYER
 10
409.3576242448567
 20
256.7810446109872
 30
0.0
 42
0.9027565632079126
  0
VERTEX
  5
E9
  8
DEFAULT_LAYER
 10
422.8713290048561
 20
243.2673398509878
 30
0.0
  0
VERTEX
  5
EA
  8
DEFAULT_LAYER
 10
424.7175698729342
 20
241.4210989829099
 30
0.0
  0
VERTEX
  5
EB
  8
DEFAULT_LAYER
 10
422.382928817303
 20
239.0864579272788
 30
0.0
  0
VERTEX
  5
EC
  8
DEFAULT_LAYER
 10
405.1767423211477
 20
239.0864579272788
 30
0.0
  0
VERTEX
  5
ED
  8
DEFAULT_LAYER
 10
405.1767423211477
 20
256.292644423434
 30
0.0
  0
VERTEX
  5
EE
  8
DEFAULT_LAYER
 10
407.5113833767787
 20
258.6272854790652
 30
0.0
  0
SEQEND
  5
EF
  8
DEFAULT_LAYER
  0
POLYLINE
  5
F0
  8
DEFAULT_LAYER
 66
     1
 10
0.0
 20
0.0
 30
0.0
 70
     1
  0
VERTEX
  5
F1
  8
DEFAULT_LAYER
 10
375.7797640407856
 20
243.2673398509877
 30
0.0
 42
0.9027565632079113
  0
VERTEX
  5
F2
  8
DEFAULT_LAYER
 10
389.293468800785
 20
256.7810446109872
 30
0.0
  0
VERTEX
  5
F3
  8
DEFAULT_LAYER
 10
391.1397096688628
 20
258.6272854790652
 30
0.0
  0
VERTEX
  5
F4
  8
DEFAULT_LAYER
 10
393.474350724494
 20
256.2926444234341
 30
0.0
  0
VERTEX
  5
F5
  8
DEFAULT_LAYER
 10
393.474350724494
 20
239.0864579272788
 30
0.0
  0
VERTEX
  5
F6
  8
DEFAULT_LAYER
 10
376.2681642283388
 20
239.0864579272788
 30
0.0
  0
VERTEX
  5
F7
  8
DEFAULT_LAYER
 10
373.9335231727076
 20
241.4210989829098
 30
0.0
  0
SEQEND
  5
F8
  8
DEFAULT_LAYER
  0
POLYLINE
  5
F9
  8
DEFAULT_LAYER
 66
     1
 10
0.0
 20
0.0
 30
0.0
 70
     1
  0
VERTEX
  5
FA
  8
DEFAULT_LAYER
 10
389.293468800785
 20
268.9275096660343
 30
0.0
 42
0.9027565632079106
  0
VERTEX
  5
FB
  8
DEFAULT_LAYER
 10
375.7797640407856
 20
282.4412144260338
 30
0.0
  0
VERTEX
  5
FC
  8
DEFAULT_LAYER
 10
373.9335231727076
 20
284.2874552941116
 30
0.0
  0
VERTEX
  5
FD
  8
DEFAULT_LAYER
 10
376.2681642283388
 20
286.6220963497428
 30
0.0
  0
VERTEX
  5
FE
  8
DEFAULT_LAYER
 10
393.474350724494
 20
286.6220963497428
 30
0.0
  0
VERTEX
  5
FF
  8
DEFAULT_LAYER
 10
393.474350724494
 20
269.4159098535876
 30
0.0
  0
VERTEX
  5
100
  8
DEFAULT_LAYER
 10
391.139709668863
 20
267.0812687979564
 30
0.0
  0
SEQEND
  5
101
  8
DEFAULT_LAYER
  0
POLYLINE
  5
102
  8
DEFAULT_LAYER
 66
     1
 10
0.0
 20
0.0
 30
0.0
 70
     1
  0
VERTEX
  5
103
  8
DEFAULT_LAYER
 10
404.4301228695716
 20
262.8542771385108
 30
0.0
  0
VERTEX
  5
104
  8
DEFAULT_LAYER
 10
399.3255465228208
 20
267.9588534852617
 30
0.0
  0
VERTEX
  5
105
  8
DEFAULT_LAYER
 10
394.2209701760702
 20
262.8542771385108
 30
0.0
  0
VERTEX
  5
106
  8
DEFAULT_LAYER
 10
399.3255465228209
 20
257.7497007917598
 30
0.0
  0
SEQEND
  5
107
  8
DEFAULT_LAYER
  0
POLYLINE
  5
108
  8
DEFAULT_LAYER
 66
     1
 10
0.0
 20
0.0
 30
0.0
 70
     1
  0
VERTEX
  5
109
  8
DEFAULT_LAYER
 10
482.1093590239753
 20
282.4412144260338
 30
0.0
 42
0.9027565632079106
  0
VERTEX
  5
10A
  8
DEFAULT_LAYER
 10
468.5956542639759
 20
268.9275096660344
 30
0.0
  0
VERTEX
  5
10B
  8
DEFAULT_LAYER
 10
466.749413395898
 20
267.0812687979563
 30
0.0
  0
VERTEX
  5
10C
  8
DEFAULT_LAYER
 10
464.4147723402669
 20
269.4159098535876
 30
0.0
  0
VERTEX
  5
10D
  8
DEFAULT_LAYER
 10
464.4147723402669
 20
286.6220963497428
 30
0.0
  0
VERTEX
  5
10E
  8
DEFAULT_LAYER
 10
481.6209588364221
 20
286.6220963497428
 30
0.0
  0
VERTEX
  5
10F
  8
DEFAULT_LAYER
 10
483.9555998920533
 20
284.2874552941118
 30
0.0
  0
SEQEND
  5
110
  8
DEFAULT_LAYER
  0
POLYLINE
  5
111
  8
DEFAULT_LAYER
 66
     1
 10
0.0
 20
0.0
 30
0.0
 70
     1
  0
VERTEX
  5
112
  8
DEFAULT_LAYER
 10
468.5956542639759
 20
256.7810446109872
 30
0.0
 42
0.9027565632079126
  0
VERTEX
  5
113
  8
DEFAULT_LAYER
 10
482.1093590239753
 20
243.2673398509878
 30
0.0
  0
VERTEX
  5
114
  8
DEFAULT_LAYER
 10
483.9555998920533
 20
241.4210989829099
 30
0.0
  0
VERTEX
  5
115
  8
DEFAULT_LAYER
 10
481.6209588364221
 20
239.0864579272788
 30
0.0
  0
VERTEX
  5
116
  8
DEFAULT_LAYER
 10
464.4147723402669
 20
239.0864579272788
 30
0.0
  0
VERTEX
  5
117
  8
DEFAULT_LAYER
 10
464.4147723402669
 20
256.292644423434
 30
0.0
  0
VERTEX
  5
118
  8
DEFAULT_LAYER
 10
466.7494133958979
 20
258.6272854790652
 30
0.0
  0
SEQEND
  5
119
  8
DEFAULT_LAYER
  0
POLYLINE
  5
11A
  8
DEFAULT_LAYER
 66
     1
 10
0.0
 20
0.0
 30
0.0
 70
     1
  0
VERTEX
  5
11B
  8
DEFAULT_LAYER
 10
435.0177940599047
 20
243.2673398509877
 30
0.0
 42
0.9027565632079113
  0
VERTEX
  5
11C
  8
DEFAULT_LAYER
 10
448.5314988199041
 20
256.7810446109872
 30
0.0
  0
VERTEX
  5
11D
  8
DEFAULT_LAYER
 10
450.377739687982
 20
258.6272854790652
 30
0.0
  0
VERTEX
  5
11E
  8
DEFAULT_LAYER
 10
452.7123807436132
 20
256.2926444234341
 30
0.0
  0
VERTEX
  5
11F
  8
DEFAULT_LAYER
 10
452.7123807436132
 20
239.0864579272788
 30
0.0
  0
VERTEX
  5
120
  8
DEFAULT_LAYER
 10
435.5061942474579
 20
239.0864579272788
 30
0.0
  0
VERTEX
  5
121
  8
DEFAULT_LAYER
 10
433.1715531918268
 20
241.4210989829098
 30
0.0
  0
SEQEND
  5
122
  8
DEFAULT_LAYER
  0
POLYLINE
  5
123
  8
DEFAULT_LAYER
 66
     1
 10
0.0
 20
0.0
 30
0.0
 70
     1
  0
VERTEX
  5
124
  8
DEFAULT_LAYER
 10
448.5314988199042
 20
268.9275096660343
 30
0.0
 42
0.9027565632079106
  0
VERTEX
  5
125
  8
DEFAULT_LAYER
 10
435.0177940599048
 20
282.4412144260338
 30
0.0
  0
VERTEX
  5
126
  8
DEFAULT_LAYER
 10
433.1715531918267
 20
284.2874552941116
 30
0.0
  0
VERTEX
  5
127
  8
DEFAULT_LAYER
 10
435.5061942474579
 20
286.6220963497428
 30
0.0
  0
VERTEX
  5
128
  8
DEFAULT_LAYER
 10
452.7123807436132
 20
286.6220963497428
 30
0.0
  0
VERTEX
  5
129
  8
DEFAULT_LAYER
 10
452.7123807436132
 20
269.4159098535876
 30
0.0
  0
VERTEX
  5
12A
  8
DEFAULT_LAYER
 10
450.3777396879822
 20
267.0812687979564
 30
0.0
  0
SEQEND
  5
12B
  8
DEFAULT_LAYER
  0
POLYLINE
  5
12C
  8
DEFAULT_LAYER
 66
     1
 10
0.0
 20
0.0
 30
0.0
 70
     1
  0
VERTEX
  5
12D
  8
DEFAULT_LAYER
 10
463.6681528886907
 20
262.8542771385108
 30
0.0
  0
VERTEX
  5
12E
  8
DEFAULT_LAYER
 10
458.56357654194
 20
267.9588534852617
 30
0.0
  0
VERTEX
  5
12F
  8
DEFAULT_LAYER
 10
453.4590001951894
 20
262.8542771385108
 30
0.0
  0
VERTEX
  5
130
  8
DEFAULT_LAYER
 10
458.5635765419401
 20
257.7497007917598
 30
0.0
  0
SEQEND
  5
131
  8
DEFAULT_LAYER
  0
POLYLINE
  5
132
  8
DEFAULT_LAYER
 66
     1
 10
0.0
 20
0.0
 30
0.0
 70
     1
  0
VERTEX
  5
133
  8
DEFAULT_LAYER
 10
541.3473890430946
 20
282.4412144260338
 30
0.0
 42
0.9027565632079187
  0
VERTEX
  5
134
  8
DEFAULT_LAYER
 10
527.8336842830952
 20
268.9275096660344
 30
0.0
  0
VERTEX
  5
135
  8
DEFAULT_LAYER
 10
525.9874434150172
 20
267.0812687979563
 30
0.0
  0
VERTEX
  5
136
  8
DEFAULT_LAYER
 10
523.652802359386
 20
269.4159098535876
 30
0.0
  0
VERTEX
  5
137
  8
DEFAULT_LAYER
 10
523.652802359386
 20
286.6220963497428
 30
0.0
  0
VERTEX
  5
138
  8
DEFAULT_LAYER
 10
540.8589888555413
 20
286.6220963497428
 30
0.0
  0
VERTEX
  5
139
  8
DEFAULT_LAYER
 10
543.1936299111724
 20
284.2874552941118
 30
0.0
  0
SEQEND
  5
13A
  8
DEFAULT_LAYER
  0
POLYLINE
  5
13B
  8
DEFAULT_LAYER
 66
     1
 10
0.0
 20
0.0
 30
0.0
 70
     1
  0
VERTEX
  5
13C
  8
DEFAULT_LAYER
 10
527.833684283095
 20
256.7810446109872
 30
0.0
 42
0.9027565632079165
  0
VERTEX
  5
13D
  8
DEFAULT_LAYER
 10
541.3473890430945
 20
243.2673398509878
 30
0.0
  0
VERTEX
  5
13E
  8
DEFAULT_LAYER
 10
543.1936299111725
 20
241.4210989829099
 30
0.0
  0
VERTEX
  5
13F
  8
DEFAULT_LAYER
 10
540.8589888555413
 20
239.0864579272788
 30
0.0
  0
VERTEX
  5
140
  8
DEFAULT_LAYER
 10
523.652802359386
 20
239.0864579272788
 30
0.0
  0
VERTEX
  5
141
  8
DEFAULT_LAYER
 10
523.652802359386
 20
256.292644423434
 30
0.0
  0
VERTEX
  5
142
  8
DEFAULT_LAYER
 10
525.987443415017
 20
258.6272854790652
 30
0.0
  0
SEQEND
  5
143
  8
DEFAULT_LAYER
  0
POLYLINE
  5
144
  8
DEFAULT_LAYER
 66
     1
 10
0.0
 20
0.0
 30
0.0
 70
     1
  0
VERTEX
  5
145
  8
DEFAULT_LAYER
 10
494.2558240790239
 20
243.2673398509877
 30
0.0
 42
0.9027565632079113
  0
VERTEX
  5
146
  8
DEFAULT_LAYER
 10
507.7695288390233
 20
256.7810446109872
 30
0.0
  0
VERTEX
  5
147
  8
DEFAULT_LAYER
 10
509.6157697071012
 20
258.6272854790652
 30
0.0
  0
VERTEX
  5
148
  8
DEFAULT_LAYER
 10
511.9504107627323
 20
256.2926444234341
 30
0.0
  0
VERTEX
  5
149
  8
DEFAULT_LAYER
 10
511.9504107627323
 20
239.0864579272788
 30
0.0
  0
VERTEX
  5
14A
  8
DEFAULT_LAYER
 10
494.7442242665771
 20
239.0864579272788
 30
0.0
  0
VERTEX
  5
14B
  8
DEFAULT_LAYER
 10
492.4095832109459
 20
241.4210989829098
 30
0.0
  0
SEQEND
  5
14C
  8
DEFAULT_LAYER
  0
POLYLINE
  5
14D
  8
DEFAULT_LAYER
 66
     1
 10
0.0
 20
0.0
 30
0.0
 70
     1
  0
VERTEX
  5
14E
  8
DEFAULT_LAYER
 10
507.7695288390233
 20
268.9275096660343
 30
0.0
 42
0.9027565632079106
  0
VERTEX
  5
14F
  8
DEFAULT_LAYER
 10
494.2558240790239
 20
282.4412144260338
 30
0.0
  0
VERTEX
  5
150
  8
DEFAULT_LAYER
 10
492.4095832109459
 20
284.2874552941116
 30
0.0
  0
VERTEX
  5
151
  8
DEFAULT_LAYER
 10
494.7442242665771
 20
286.6220963497428
 30
0.0
  0
VERTEX
  5
152
  8
DEFAULT_LAYER
 10
511.9504107627323
 20
286.6220963497428
 30
0.0
  0
VERTEX
  5
153
  8
DEFAULT_LAYER
 10
511.9504107627323
 20
269.4159098535876
 30
0.0
  0
VERTEX
  5
154
  8
DEFAULT_LAYER
 10
509.6157697071013
 20
267.0812687979564
 30
0.0
  0
SEQEND
  5
155
  8
DEFAULT_LAYER
  0
POLYLINE
  5
156
  8
DEFAULT_LAYER
 66
     1
 10
0.0
 20
0.0
 30
0.0
 70
     1
  0
VERTEX
  5
157
  8
DEFAULT_LAYER
 10
522.9061829078098
 20
262.8542771385108
 30
0.0
  0
VERTEX
  5
158
  8
DEFAULT_LAYER
 10
517.8016065610591
 20
267.9588534852617
 30
0.0
  0
VERTEX
  5
159
  8
DEFAULT_LAYER
 10
512.6970302143086
 20
262.8542771385108
 30
0.0
  0
VERTEX
  5
15A
  8
DEFAULT_LAYER
 10
517.8016065610592
 20
257.7497007917598
 30
0.0
  0
SEQEND
  5
15B
  8
DEFAULT_LAYER
  0
POLYLINE
  5
15C
  8
DEFAULT_LAYER
 66
     1
 10
0.0
 20
0.0
 30
0.0
 70
     1
  0
VERTEX
  5
15D
  8
DEFAULT_LAYER
 10
600.5854190622138
 20
282.4412144260338
 30
0.0
 42
0.9027565632079187
  0
VERTEX
  5
15E
  8
DEFAULT_LAYER
 10
587.0717143022143
 20
268.9275096660344
 30
0.0
  0
VERTEX
  5
15F
  8
DEFAULT_LAYER
 10
585.2254734341363
 20
267.0812687979563
 30
0.0
  0
VERTEX
  5
160
  8
DEFAULT_LAYER
 10
582.8908323785051
 20
269.4159098535876
 30
0.0
  0
VERTEX
  5
161
  8
DEFAULT_LAYER
 10
582.8908323785051
 20
286.6220963497428
 30
0.0
  0
VERTEX
  5
162
  8
DEFAULT_LAYER
 10
600.0970188746604
 20
286.6220963497428
 30
0.0
  0
VERTEX
  5
163
  8
DEFAULT_LAYER
 10
602.4316599302915
 20
284.2874552941118
 30
0.0
  0
SEQEND
  5
164
  8
DEFAULT_LAYER
  0
POLYLINE
  5
165
  8
DEFAULT_LAYER
 66
     1
 10
0.0
 20
0.0
 30
0.0
 70
     1
  0
VERTEX
  5
166
  8
DEFAULT_LAYER
 10
587.0717143022141
 20
256.7810446109872
 30
0.0
 42
0.9027565632079165
  0
VERTEX
  5
167
  8
DEFAULT_LAYER
 10
600.5854190622136
 20
243.2673398509878
 30
0.0
  0
VERTEX
  5
168
  8
DEFAULT_LAYER
 10
602.4316599302916
 20
241.4210989829099
 30
0.0
  0
VERTEX
  5
169
  8
DEFAULT_LAYER
 10
600.0970188746604
 20
239.0864579272788
 30
0.0
  0
VERTEX
  5
16A
  8
DEFAULT_LAYER
 10
582.8908323785051
 20
239.0864579272788
 30
0.0
  0
VERTEX
  5
16B
  8
DEFAULT_LAYER
 10
582.8908323785051
 20
256.292644423434
 30
0.0
  0
VERTEX
  5
16C
  8
DEFAULT_LAYER
 10
585.2254734341361
 20
258.6272854790652
 30
0.0
  0
SEQEND
  5
16D
  8
DEFAULT_LAYER
  0
POLYLINE
  5
16E
  8
DEFAULT_LAYER
 66
     1
 10
0.0
 20
0.0
 30
0.0
 70
     1
  0
VERTEX
  5
16F
  8
DEFAULT_LAYER
 10
553.493854098143
 20
243.2673398509877
 30
0.0
 42
0.9027565632079114
  0
VERTEX
  5
170
  8
DEFAULT_LAYER
 10
567.0075588581424
 20
256.7810446109872
 30
0.0
  0
VERTEX
  5
171
  8
DEFAULT_LAYER
 10
568.8537997262204
 20
258.6272854790652
 30
0.0
  0
VERTEX
  5
172
  8
DEFAULT_LAYER
 10
571.1884407818515
 20
256.2926444234341
 30
0.0
  0
VERTEX
  5
173
  8
DEFAULT_LAYER
 10
571.1884407818515
 20
239.0864579272788
 30
0.0
  0
VERTEX
  5
174
  8
DEFAULT_LAYER
 10
553.9822542856962
 20
239.0864579272788
 30
0.0
  0
VERTEX
  5
175
  8
DEFAULT_LAYER
 10
551.6476132300651
 20
241.4210989829098
 30
0.0
  0
SEQEND
  5
176
  8
DEFAULT_LAYER
  0
POLYLINE
  5
177
  8
DEFAULT_LAYER
 66
     1
 10
0.0
 20
0.0
 30
0.0
 70
     1
  0
VERTEX
  5
178
  8
DEFAULT_LAYER
 10
567.0075588581425
 20
268.9275096660343
 30
0.0
 42
0.9027565632078998
  0
VERTEX
  5
179
  8
DEFAULT_LAYER
 10
553.493854098143
 20
282.4412144260338
 30
0.0
  0
VERTEX
  5
17A
  8
DEFAULT_LAYER
 10
551.647613230065
 20
284.2874552941116
 30
0.0
  0
VERTEX
  5
17B
  8
DEFAULT_LAYER
 10
553.9822542856962
 20
286.6220963497428
 30
0.0
  0
VERTEX
  5
17C
  8
DEFAULT_LAYER
 10
571.1884407818515
 20
286.6220963497428
 30
0.0
  0
VERTEX
  5
17D
  8
DEFAULT_LAYER
 10
571.1884407818515
 20
269.4159098535876
 30
0.0
  0
VERTEX
  5
17E
  8
DEFAULT_LAYER
 10
568.8537997262205
 20
267.0812687979564
 30
0.0
  0
SEQEND
  5
17F
  8
DEFAULT_LAYER
  0
POLYLINE
  5
180
  8
DEFAULT_LAYER
 66
     1
 10
0.0
 20
0.0
 30
0.0
 70
     1
  0
VERTEX
  5
181
  8
DEFAULT_LAYER
 10
582.144212926929
 20
262.8542771385108
 30
0.0
  0
VERTEX
  5
182
  8
DEFAULT_LAYER
 10
577.0396365801782
 20
267.9588534852617
 30
0.0
  0
VERTEX
  5
183
  8
DEFAULT_LAYER
 10
571.9350602334277
 20
262.8542771385108
 30
0.0
  0
VERTEX
  5
184
  8
DEFAULT_LAYER
 10
577.0396365801784
 20
257.7497007917598
 30
0.0
  0
SEQEND
  5
185
  8
DEFAULT_LAYER
  0
POLYLINE
  5
186
  8
DEFAULT_LAYER
 66
     1
 10
0.0
 20
0.0
 30
0.0
 70
     1
  0
VERTEX
  5
187
  8
DEFAULT_LAYER
 10
557.8235607269427
 20
248.5857990795849
 30
0.0
 42
0.9027565632079257
  0
VERTEX
  5
188
  8
DEFAULT_LAYER
 10
561.6890996295452
 20
252.4513379821875
 30
0.0
  0
VERTEX
  5
189
  8
DEFAULT_LAYER
 10
557.3341271042035
 20
256.8063105075292
 30
0.0
  0
VERTEX
  5
18A
  8
DEFAULT_LAYER
 10
563.3820937351851
 20
262.8542771385108
 30
0.0
  0
VERTEX
  5
18B
  8
DEFAULT_LAYER
 10
557.3341271042034
 20
268.9022437694924
 30
0.0
  0
VERTEX
  5
18C
  8
DEFAULT_LAYER
 10
561.6890996295454
 20
273.2572162948341
 30
0.0
 42
0.902756563207925
  0
VERTEX
  5
18D
  8
DEFAULT_LAYER
 10
557.8235607269428
 20
277.1227551974365
 30
0.0
  0
VERTEX
  5
18E
  8
DEFAULT_LAYER
 10
553.468588201601
 20
272.7677826720948
 30
0.0
  0
VERTEX
  5
18F
  8
DEFAULT_LAYER
 10
547.4206215706188
 20
278.8157493030764
 30
0.0
  0
VERTEX
  5
190
  8
DEFAULT_LAYER
 10
541.3726549396364
 20
272.7677826720947
 30
0.0
  0
VERTEX
  5
191
  8
DEFAULT_LAYER
 10
537.0176824142948
 20
277.1227551974367
 30
0.0
 42
0.9027565632079506
  0
VERTEX
  5
192
  8
DEFAULT_LAYER
 10
533.1521435116923
 20
273.2572162948342
 30
0.0
  0
VERTEX
  5
193
  8
DEFAULT_LAYER
 10
537.5071160370339
 20
268.9022437694924
 30
0.0
  0
VERTEX
  5
194
  8
DEFAULT_LAYER
 10
531.4591494060523
 20
262.8542771385108
 30
0.0
  0
VERTEX
  5
195
  8
DEFAULT_LAYER
 10
537.5071160370342
 20
256.8063105075291
 30
0.0
  0
VERTEX
  5
196
  8
DEFAULT_LAYER
 10
533.1521435116922
 20
252.4513379821875
 30
0.0
 42
0.9027565632080031
  0
VERTEX
  5
197
  8
DEFAULT_LAYER
 10
537.0176824142947
 20
248.585799079585
 30
0.0
  0
VERTEX
  5
198
  8
DEFAULT_LAYER
 10
541.3726549396365
 20
252.9407716049267
 30
0.0
  0
VERTEX
  5
199
  8
DEFAULT_LAYER
 10
547.4206215706195
 20
246.8928049739451
 30
0.0
  0
VERTEX
  5
19A
  8
DEFAULT_LAYER
 10
553.468588201601
 20
252.9407716049269
 30
0.0
  0
SEQEND
  5
19B
  8
DEFAULT_LAYER
  0
POLYLINE
  5
19C
  8
DEFAULT_LAYER
 66
     1
 10
0.0
 20
0.0
 30
0.0
 70
     1
  0
VERTEX
  5
19D
  8
DEFAULT_LAYER
 10
300.0655623378182
 20
277.1227551974367
 30
0.0
 42
0.902756563207925
  0
VERTEX
  5
19E
  8
DEFAULT_LAYER
 10
296.2000234352157
 20
273.2572162948342
 30
0.0
  0
VERTEX
  5
19F
  8
DEFAULT_LAYER
 10
300.5549959605574
 20
268.9022437694924
 30
0.0
  0
VERTEX
  5
1A0
  8
DEFAULT_LAYER
 10
294.5070293295758
 20
262.8542771385108
 30
0.0
  0
VERTEX
  5
1A1
  8
DEFAULT_LAYER
 10
300.5549959605575
 20
256.8063105075291
 30
0.0
  0
VERTEX
  5
1A2
  8
DEFAULT_LAYER
 10
296.2000234352155
 20
252.4513379821875
 30
0.0
 42
0.9027565632079182
  0
VERTEX
  5
1A3
  8
DEFAULT_LAYER
 10
300.0655623378181
 20
248.585799079585
 30
0.0
  0
VERTEX
  5
1A4
  8
DEFAULT_LAYER
 10
304.4205348631598
 20
252.9407716049267
 30
0.0
  0
VERTEX
  5
1A5
  8
DEFAULT_LAYER
 10
310.4685014941422
 20
246.8928049739451
 30
0.0
  0
VERTEX
  5
1A6
  8
DEFAULT_LAYER
 10
316.5164681251245
 20
252.9407716049269
 30
0.0
  0
VERTEX
  5
1A7
  8
DEFAULT_LAYER
 10
320.8714406504661
 20
248.5857990795849
 30
0.0
 42
0.9027565632079516
  0
VERTEX
  5
1A8
  8
DEFAULT_LAYER
 10
324.7369795530686
 20
252.4513379821875
 30
0.0
  0
VERTEX
  5
1A9
  8
DEFAULT_LAYER
 10
320.3820070277269
 20
256.8063105075292
 30
0.0
  0
VERTEX
  5
1AA
  8
DEFAULT_LAYER
 10
326.4299736587085
 20
262.8542771385108
 30
0.0
  0
VERTEX
  5
1AB
  8
DEFAULT_LAYER
 10
320.3820070277268
 20
268.9022437694924
 30
0.0
  0
VERTEX
  5
1AC
  8
DEFAULT_LAYER
 10
324.7369795530687
 20
273.2572162948341
 30
0.0
 42
0.902756563207925
  0
VERTEX
  5
1AD
  8
DEFAULT_LAYER
 10
320.8714406504662
 20
277.1227551974365
 30
0.0
  0
VERTEX
  5
1AE
  8
DEFAULT_LAYER
 10
316.5164681251244
 20
272.7677826720948
 30
0.0
  0
VERTEX
  5
1AF
  8
DEFAULT_LAYER
 10
310.4685014941414
 20
278.8157493030764
 30
0.0
  0
VERTEX
  5
1B0
  8
DEFAULT_LAYER
 10
304.4205348631598
 20
272.7677826720947
 30
0.0
  0
SEQEND
  5
1B1
  8
DEFAULT_LAYER
  0
POLYLINE
  5
1B2
  8
DEFAULT_LAYER
 66
     1
 10
0.0
 20
0.0
 30
0.0
 70
     1
  0
VERTEX
  5
1B3
  8
DEFAULT_LAYER
 10
359.3035923569373
 20
277.1227551974367
 30
0.0
 42
0.902756563207925
  0
VERTEX
  5
1B4
  8
DEFAULT_LAYER
 10
355.4380534543349
 20
273.2572162948342
 30
0.0
  0
VERTEX
  5
1B5
  8
DEFAULT_LAYER
 10
359.7930259796765
 20
268.9022437694924
 30
0.0
  0
VERTEX
  5
1B6
  8
DEFAULT_LAYER
 10
353.745059348695
 20
262.8542771385108
 30
0.0
  0
VERTEX
  5
1B7
  8
DEFAULT_LAYER
 10
359.7930259796767
 20
256.8063105075291
 30
0.0
  0
VERTEX
  5
1B8
  8
DEFAULT_LAYER
 10
355.4380534543347
 20
252.4513379821875
 30
0.0
 42
0.9027565632079182
  0
VERTEX
  5
1B9
  8
DEFAULT_LAYER
 10
359.3035923569372
 20
248.585799079585
 30
0.0
  0
VERTEX
  5
1BA
  8
DEFAULT_LAYER
 10
363.658564882279
 20
252.9407716049267
 30
0.0
  0
VERTEX
  5
1BB
  8
DEFAULT_LAYER
 10
369.7065315132613
 20
246.8928049739451
 30
0.0
  0
VERTEX
  5
1BC
  8
DEFAULT_LAYER
 10
375.7544981442437
 20
252.9407716049269
 30
0.0
  0
VERTEX
  5
1BD
  8
DEFAULT_LAYER
 10
380.1094706695853
 20
248.5857990795849
 30
0.0
 42
0.9027565632079516
  0
VERTEX
  5
1BE
  8
DEFAULT_LAYER
 10
383.9750095721877
 20
252.4513379821875
 30
0.0
  0
VERTEX
  5
1BF
  8
DEFAULT_LAYER
 10
379.6200370468461
 20
256.8063105075292
 30
0.0
  0
VERTEX
  5
1C0
  8
DEFAULT_LAYER
 10
385.6680036778276
 20
262.8542771385108
 30
0.0
  0
VERTEX
  5
1C1
  8
DEFAULT_LAYER
 10
379.6200370468459
 20
268.9022437694924
 30
0.0
  0
VERTEX
  5
1C2
  8
DEFAULT_LAYER
 10
383.9750095721879
 20
273.2572162948341
 30
0.0
 42
0.902756563207925
  0
VERTEX
  5
1C3
  8
DEFAULT_LAYER
 10
380.1094706695854
 20
277.1227551974365
 30
0.0
  0
VERTEX
  5
1C4
  8
DEFAULT_LAYER
 10
375.7544981442436
 20
272.7677826720948
 30
0.0
  0
VERTEX
  5
1C5
  8
DEFAULT_LAYER
 10
369.7065315132606
 20
278.8157493030764
 30
0.0
  0
VERTEX
  5
1C6
  8
DEFAULT_LAYER
 10
363.6585648822789
 20
272.7677826720947
 30
0.0
  0
SEQEND
  5
1C7
  8
DEFAULT_LAYER
  0
POLYLINE
  5
1C8
  8
DEFAULT_LAYER
 66
     1
 10
0.0
 20
0.0
 30
0.0
 70
     1
  0
VERTEX
  5
1C9
  8
DEFAULT_LAYER
 10
439.3475006887044
 20
248.5857990795849
 30
0.0
 42
0.902756563207925
  0
VERTEX
  5
1CA
  8
DEFAULT_LAYER
 10
443.2130395913069
 20
252.4513379821875
 30
0.0
  0
VERTEX
  5
1CB
  8
DEFAULT_LAYER
 10
438.8580670659652
 20
256.8063105075292
 30
0.0
  0
VERTEX
  5
1CC
  8
DEFAULT_LAYER
 10
444.9060336969468
 20
262.8542771385108
 30
0.0
  0
VERTEX
  5
1CD
  8
DEFAULT_LAYER
 10
438.8580670659651
 20
268.9022437694924
 30
0.0
  0
VERTEX
  5
1CE
  8
DEFAULT_LAYER
 10
443.2130395913071
 20
273.2572162948341
 30
0.0
 42
0.902756563207925
  0
VERTEX
  5
1CF
  8
DEFAULT_LAYER
 10
439.3475006887045
 20
277.1227551974365
 30
0.0
  0
VERTEX
  5
1D0
  8
DEFAULT_LAYER
 10
434.9925281633627
 20
272.7677826720948
 30
0.0
  0
VERTEX
  5
1D1
  8
DEFAULT_LAYER
 10
428.9445615323805
 20
278.8157493030764
 30
0.0
  0
VERTEX
  5
1D2
  8
DEFAULT_LAYER
 10
422.8965949013981
 20
272.7677826720947
 30
0.0
  0
VERTEX
  5
1D3
  8
DEFAULT_LAYER
 10
418.5416223760565
 20
277.1227551974367
 30
0.0
 42
0.902756563207925
  0
VERTEX
  5
1D4
  8
DEFAULT_LAYER
 10
414.676083473454
 20
273.2572162948342
 30
0.0
  0
VERTEX
  5
1D5
  8
DEFAULT_LAYER
 10
419.0310559987957
 20
268.9022437694924
 30
0.0
  0
VERTEX
  5
1D6
  8
DEFAULT_LAYER
 10
412.9830893678141
 20
262.8542771385108
 30
0.0
  0
VERTEX
  5
1D7
  8
DEFAULT_LAYER
 10
419.0310559987958
 20
256.8063105075291
 30
0.0
  0
VERTEX
  5
1D8
  8
DEFAULT_LAYER
 10
414.6760834734538
 20
252.4513379821875
 30
0.0
 42
0.9027565632079182
  0
VERTEX
  5
1D9
  8
DEFAULT_LAYER
 10
418.5416223760564
 20
248.585799079585
 30
0.0
  0
VERTEX
  5
1DA
  8
DEFAULT_LAYER
 10
422.8965949013981
 20
252.9407716049267
 30
0.0
  0
VERTEX
  5
1DB
  8
DEFAULT_LAYER
 10
428.9445615323812
 20
246.8928049739451
 30
0.0
  0
VERTEX
  5
1DC
  8
DEFAULT_LAYER
 10
434.9925281633628
 20
252.9407716049269
 30
0.0
  0
SEQEND
  5
1DD
  8
DEFAULT_LAYER
  0
POLYLINE
  5
1DE
  8
DEFAULT_LAYER
 66
     1
 10
0.0
 20
0.0
 30
0.0
 70
     1
  0
VERTEX
  5
1DF
  8
DEFAULT_LAYER
 10
477.7796523951756
 20
277.1227551974367
 30
0.0
 42
0.902756563207925
  0
VERTEX
  5
1E0
  8
DEFAULT_LAYER
 10
473.9141134925732
 20
273.2572162948342
 30
0.0
  0
VERTEX
  5
1E1
  8
DEFAULT_LAYER
 10
478.2690860179148
 20
268.9022437694924
 30
0.0
  0
VERTEX
  5
1E2
  8
DEFAULT_LAYER
 10
472.2211193869333
 20
262.8542771385108
 30
0.0
  0
VERTEX
  5
1E3
  8
DEFAULT_LAYER
 10
478.269086017915
 20
256.8063105075291
 30
0.0
  0
VERTEX
  5
1E4
  8
DEFAULT_LAYER
 10
473.914113492573
 20
252.4513379821875
 30
0.0
 42
0.9027565632079182
  0
VERTEX
  5
1E5
  8
DEFAULT_LAYER
 10
477.7796523951755
 20
248.585799079585
 30
0.0
  0
VERTEX
  5
1E6
  8
DEFAULT_LAYER
 10
482.1346249205173
 20
252.9407716049267
 30
0.0
  0
VERTEX
  5
1E7
  8
DEFAULT_LAYER
 10
488.1825915514996
 20
246.8928049739451
 30
0.0
  0
VERTEX
  5
1E8
  8
DEFAULT_LAYER
 10
494.230558182482
 20
252.9407716049269
 30
0.0
  0
VERTEX
  5
1E9
  8
DEFAULT_LAYER
 10
498.5855307078236
 20
248.5857990795849
 30
0.0
 42
0.9027565632079516
  0
VERTEX
  5
1EA
  8
DEFAULT_LAYER
 10
502.451069610426
 20
252.4513379821875
 30
0.0
  0
VERTEX
  5
1EB
  8
DEFAULT_LAYER
 10
498.0960970850844
 20
256.8063105075292
 30
0.0
  0
VERTEX
  5
1EC
  8
DEFAULT_LAYER
 10
504.1440637160659
 20
262.8542771385108
 30
0.0
  0
VERTEX
  5
1ED
  8
DEFAULT_LAYER
 10
498.0960970850842
 20
268.9022437694924
 30
0.0
  0
VERTEX
  5
1EE
  8
DEFAULT_LAYER
 10
502.4510696104262
 20
273.2572162948341
 30
0.0
 42
0.902756563207925
  0
VERTEX
  5
1EF
  8
DEFAULT_LAYER
 10
498.5855307078237
 20
277.1227551974365
 30
0.0
  0
VERTEX
  5
1F0
  8
DEFAULT_LAYER
 10
494.2305581824819
 20
272.7677826720948
 30
0.0
  0
VERTEX
  5
1F1
  8
DEFAULT_LAYER
 10
488.1825915514989
 20
278.8157493030764
 30
0.0
  0
VERTEX
  5
1F2
  8
DEFAULT_LAYER
 10
482.1346249205172
 20
272.7677826720947
 30
0.0
  0
SEQEND
  5
1F3
  8
DEFAULT_LAYER
  0
POLYLINE
  5
1F4
  8
DEFAULT_LAYER
 66
     1
 10
0.0
 20
0.0
 30
0.0
 70
     1
  0
VERTEX
  5
1F5
  8
DEFAULT_LAYER
 10
241.2304714750237
 20
229.0864579272788
 30
0.0
  0
VERTEX
  5
1F6
  8
DEFAULT_LAYER
 10
616.6586515897372
 20
229.0864579272788
 30
0.0
  0
VERTEX
  5
1F7
  8
DEFAULT_LAYER
 10
616.6586515897372
 20
296.6220963497428
 30
0.0
  0
VERTEX
  5
1F8
  8
DEFAULT_LAYER
 10
241.2304714750237
 20
296.6220963497428
 30
0.0
  0
SEQEND
  5
1F9
  8
DEFAULT_LAYER
  0
ENDSEC
  0
EOF
