  0
SECTION
  2
HEADER
  9
$ACADVER
  1
AC1009
  9
$DWGCODEPAGE
  3
ansi_1252
  9
$INSBASE
 10
0.0
 20
0.0
 30
0.0
  9
$EXTMIN
 10
460.8816314692643
 20
1208.490450779657
 30
0.0
  9
$EXTMAX
 10
644.7398975803626
 20
1316.791445759571
 30
0.0
  9
$LIMMIN
 10
0.0
 20
0.0
  9
$LIMMAX
 10
12.0
 20
9.0
  9
$ORTHOMODE
 70
     0
  9
$REGENMODE
 70
     1
  9
$FILLMODE
 70
     1
  9
$QTEXTMODE
 70
     0
  9
$MIRRTEXT
 70
     1
  9
$DRAGMODE
 70
     2
  9
$LTSCALE
 40
1.0
  9
$OSMODE
 70
    37
  9
$ATTMODE
 70
     1
  9
$TEXTSIZE
 40
0.2
  9
$TRACEWID
 40
0.05
  9
$TEXTSTYLE
  7
STANDARD
  9
$CLAYER
  8
0
  9
$CELTYPE
  6
BYLAYER
  9
$CECOLOR
 62
   256
  9
$DIMSCALE
 40
1.0
  9
$DIMASZ
 40
0.18
  9
$DIMEXO
 40
0.0625
  9
$DIMDLI
 40
0.38
  9
$DIMRND
 40
0.0
  9
$DIMDLE
 40
0.0
  9
$DIMEXE
 40
0.18
  9
$DIMTP
 40
0.0
  9
$DIMTM
 40
0.0
  9
$DIMTXT
 40
0.18
  9
$DIMCEN
 40
0.09
  9
$DIMTSZ
 40
0.0
  9
$DIMTOL
 70
     0
  9
$DIMLIM
 70
     0
  9
$DIMTIH
 70
     1
  9
$DIMTOH
 70
     1
  9
$DIMSE1
 70
     0
  9
$DIMSE2
 70
     0
  9
$DIMTAD
 70
     0
  9
$DIMZIN
 70
     0
  9
$DIMBLK
  1

  9
$DIMASO
 70
     1
  9
$DIMSHO
 70
     1
  9
$DIMPOST
  1

  9
$DIMAPOST
  1

  9
$DIMALT
 70
     0
  9
$DIMALTD
 70
     2
  9
$DIMALTF
 40
25.4
  9
$DIMLFAC
 40
1.0
  9
$DIMTOFL
 70
     0
  9
$DIMTVP
 40
0.0
  9
$DIMTIX
 70
     0
  9
$DIMSOXD
 70
     0
  9
$DIMSAH
 70
     0
  9
$DIMBLK1
  1

  9
$DIMBLK2
  1

  9
$DIMSTYLE
  2
STANDARD_ACAD
  9
$DIMCLRD
 70
     0
  9
$DIMCLRE
 70
     0
  9
$DIMCLRT
 70
     0
  9
$DIMTFAC
 40
1.0
  9
$DIMGAP
 40
0.09
  9
$LUNITS
 70
     2
  9
$LUPREC
 70
     3
  9
$SKETCHINC
 40
0.1
  9
$FILLETRAD
 40
0.0
  9
$AUNITS
 70
     0
  9
$AUPREC
 70
     0
  9
$MENU
  1
.
  9
$ELEVATION
 40
0.0
  9
$PELEVATION
 40
0.0
  9
$THICKNESS
 40
0.0
  9
$LIMCHECK
 70
     0
  9
$CHAMFERA
 40
0.0
  9
$CHAMFERB
 40
0.0
  9
$SKPOLY
 70
     0
  9
$TDCREATE
 40
2460677.423045614
  9
$TDUPDATE
 40
2460677.423045625
  9
$TDINDWG
 40
0.0000000116
  9
$TDUSRTIMER
 40
0.0000000116
  9
$USRTIMER
 70
     1
  9
$ANGBASE
 50
0.0
  9
$ANGDIR
 70
     0
  9
$PDMODE
 70
     0
  9
$PDSIZE
 40
0.0
  9
$PLINEWID
 40
0.0
  9
$COORDS
 70
     1
  9
$SPLFRAME
 70
     0
  9
$SPLINETYPE
 70
     6
  9
$SPLINESEGS
 70
     8
  9
$ATTDIA
 70
     0
  9
$ATTREQ
 70
     1
  9
$HANDLING
 70
     1
  9
$HANDSEED
  5
DD
  9
$SURFTAB1
 70
     6
  9
$SURFTAB2
 70
     6
  9
$SURFTYPE
 70
     6
  9
$SURFU
 70
     6
  9
$SURFV
 70
     6
  9
$UCSNAME
  2

  9
$UCSORG
 10
0.0
 20
0.0
 30
0.0
  9
$UCSXDIR
 10
1.0
 20
0.0
 30
0.0
  9
$UCSYDIR
 10
0.0
 20
1.0
 30
0.0
  9
$PUCSNAME
  2

  9
$PUCSORG
 10
0.0
 20
0.0
 30
0.0
  9
$PUCSXDIR
 10
1.0
 20
0.0
 30
0.0
  9
$PUCSYDIR
 10
0.0
 20
1.0
 30
0.0
  9
$USERI1
 70
     0
  9
$USERI2
 70
     0
  9
$USERI3
 70
     0
  9
$USERI4
 70
     0
  9
$USERI5
 70
     0
  9
$USERR1
 40
0.0
  9
$USERR2
 40
0.0
  9
$USERR3
 40
0.0
  9
$USERR4
 40
0.0
  9
$USERR5
 40
0.0
  9
$WORLDVIEW
 70
     1
  9
$SHADEDGE
 70
     3
  9
$SHADEDIF
 70
    70
  9
$TILEMODE
 70
     1
  9
$MAXACTVP
 70
    64
  9
$PLIMCHECK
 70
     0
  9
$PEXTMIN
 10
1.000000000000000E+20
 20
1.000000000000000E+20
 30
1.000000000000000E+20
  9
$PEXTMAX
 10
-1.000000000000000E+20
 20
-1.000000000000000E+20
 30
-1.000000000000000E+20
  9
$PLIMMIN
 10
0.0
 20
0.0
  9
$PLIMMAX
 10
12.0
 20
9.0
  9
$UNITMODE
 70
     0
  9
$VISRETAIN
 70
     1
  9
$PLINEGEN
 70
     0
  9
$PSLTSCALE
 70
     1
  0
ENDSEC
  0
SECTION
  2
TABLES
  0
TABLE
  2
VPORT
 70
     1
  0
VPORT
  2
*ACTIVE
 70
     0
 10
0.0
 20
0.0
 11
1.0
 21
1.0
 12
10.42990654205607
 22
4.5
 13
0.0
 23
0.0
 14
0.5
 24
0.5
 15
0.5
 25
0.5
 16
0.0
 26
0.0
 36
1.0
 17
0.0
 27
0.0
 37
0.0
 40
9.0
 41
1.972972972850329
 42
50.0
 43
0.0
 44
0.0
 50
0.0
 51
0.0
 71
     0
 72
   100
 73
     1
 74
     3
 75
     0
 76
     0
 77
     0
 78
     0
  0
ENDTAB
  0
TABLE
  2
LTYPE
 70
     1
  0
LTYPE
  2
CONTINUOUS
 70
     0
  3
Solid line
 72
    65
 73
     0
 40
0.0
  0
ENDTAB
  0
TABLE
  2
LAYER
 70
     1
  0
LAYER
  2
0
 70
     0
 62
    12
  6
CONTINUOUS
  0
ENDTAB
  0
TABLE
  2
STYLE
 70
     1
  0
STYLE
  2
STANDARD
 70
     0
 40
0.0
 41
1.0
 50
0.0
 71
     0
 42
0.2
  3
txt
  4

  0
ENDTAB
  0
TABLE
  2
VIEW
 70
     0
  0
ENDTAB
  0
TABLE
  2
UCS
 70
     0
  0
ENDTAB
  0
TABLE
  2
APPID
 70
     2
  0
APPID
  2
ACAD
 70
     0
  0
APPID
  2
RHINO
 70
     0
  0
ENDTAB
  0
TABLE
  2
DIMSTYLE
 70
     1
  0
DIMSTYLE
  2
STANDARD_ACAD
 70
     0
  3

  4

  5

  6

  7

 40
1.0
 41
0.18
 42
0.0625
 43
0.38
 44
0.18
 45
0.0
 46
0.0
 47
0.0
 48
0.0
140
0.18
141
0.09
142
0.0
143
25.4
144
1.0
145
0.0
146
1.0
147
0.09
 71
     0
 72
     0
 73
     1
 74
     1
 75
     0
 76
     0
 77
     0
 78
     0
170
     0
171
     2
172
     0
173
     0
174
     0
175
     0
176
     0
177
     0
178
     0
  0
ENDTAB
  0
ENDSEC
  0
SECTION
  2
BLOCKS
  0
BLOCK
  8
0
  2
$MODEL_SPACE
 70
     0
 10
0.0
 20
0.0
 30
0.0
  3
$MODEL_SPACE
  1

  0
ENDBLK
  5
21
  8
0
  0
BLOCK
 67
     1
  8
0
  2
$PAPER_SPACE
 70
     0
 10
0.0
 20
0.0
 30
0.0
  3
$PAPER_SPACE
  1

  0
ENDBLK
  5
1D
 67
     1
  8
0
  0
ENDSEC
  0
SECTION
  2
ENTITIES
  0
LINE
  5
5F
  8
0
 10
460.8816314692643
 20
1316.791445759571
 30
0.0
 11
460.8816314692643
 21
1208.490450779657
 31
0.0
  0
LINE
  5
60
  8
0
 10
460.8816314692643
 20
1208.490450779657
 30
0.0
 11
644.7398975803626
 21
1208.490450779657
 31
0.0
  0
LINE
  5
61
  8
0
 10
644.7398975803626
 20
1208.490450779657
 30
0.0
 11
644.7398975803626
 21
1316.791445759571
 31
0.0
  0
LINE
  5
62
  8
0
 10
644.7398975803626
 20
1316.791445759571
 30
0.0
 11
460.8816314692643
 21
1316.791445759571
 31
0.0
  0
LINE
  5
63
  8
0
 10
469.0117480096985
 20
1216.620567320091
 30
0.0
 11
636.6097810399284
 21
1216.620567320091
 31
0.0
  0
LINE
  5
64
  8
0
 10
636.6097810399284
 20
1216.620567320091
 30
0.0
 11
636.6097810399284
 21
1308.661329219137
 31
0.0
  0
LINE
  5
65
  8
0
 10
636.6097810399284
 20
1308.661329219137
 30
0.0
 11
469.0117480096985
 21
1308.661329219137
 31
0.0
  0
LINE
  5
66
  8
0
 10
469.0117480096985
 20
1308.661329219137
 30
0.0
 11
469.0117480096985
 21
1216.620567320091
 31
0.0
  0
LINE
  5
67
  8
0
 10
603.0901744338823
 20
1308.661329219136
 30
0.0
 11
614.3455003032047
 21
1308.661329219137
 31
0.0
  0
ARC
  5
68
  8
0
 10
701.6332136748422
 20
1177.876194138804
 30
0.0
 40
157.2383428545021
 50
123.7196658647633
 51
128.8078995621461
  0
ARC
  5
69
  8
0
 10
-504.5471351930078
 20
1177.876194138886
 30
0.0
 40
149.1082263139507
 50
131.3672232260372
 51
137.4821022648929
210
0.0
220
0.0
230
-1.0
  0
ARC
  5
6A
  8
0
 10
735.1528202810546
 20
1177.876194138679
 30
0.0
 40
157.2383428547097
 50
140.1427746700572
 51
147.1283271779618
  0
LINE
  5
6B
  8
0
 10
615.6509334406171
 20
1267.053333564459
 30
0.0
 11
615.3388529524578
 21
1240.311265400731
 31
0.0
  0
ARC
  5
6C
  8
0
 10
471.0275285867757
 20
1177.876194138754
 30
0.0
 40
157.2383428546144
 50
23.39531301774963
 51
29.55602099861129
  0
ARC
  5
6D
  8
0
 10
-735.1528202807145
 20
1177.876194138924
 30
0.0
 40
149.1082263138579
 50
31.34365989731228
 51
36.73178788612263
210
0.0
220
0.0
230
-1.0
  0
ARC
  5
6E
  8
0
 10
-471.027528586892
 20
1177.876194138815
 30
0.0
 40
149.1082263140503
 50
152.3357094308323
 51
164.9393950019792
210
0.0
220
0.0
230
-1.0
  0
LINE
  5
6F
  8
0
 10
615.0141137304812
 20
1216.620567320091
 30
0.0
 11
603.0901744338825
 21
1216.620567320091
 31
0.0
  0
LINE
  5
70
  8
0
 10
636.6097810399283
 20
1308.661329219136
 30
0.0
 11
625.354455170606
 21
1308.661329219137
 31
0.0
  0
ARC
  5
71
  8
0
 10
-538.0667417989686
 20
1177.876194138804
 30
0.0
 40
157.2383428545021
 50
123.7196658647633
 51
128.807899562146
210
0.0
220
0.0
230
-1.0
  0
ARC
  5
72
  8
0
 10
735.152820280803
 20
1177.876194138886
 30
0.0
 40
149.1082263139507
 50
131.3672232260372
 51
137.4821022648929
  0
ARC
  5
73
  8
0
 10
-504.5471351927562
 20
1177.876194138679
 30
0.0
 40
157.2383428547097
 50
140.1427746700572
 51
147.1283271779618
210
0.0
220
0.0
230
-1.0
  0
ARC
  5
74
  8
0
 10
-735.1528202808657
 20
1177.876194138826
 30
0.0
 40
157.2383428544712
 50
42.83625551580163
 51
48.1720240242547
210
0.0
220
0.0
230
-1.0
  0
ARC
  5
75
  8
0
 10
538.0667417989841
 20
1177.876194138815
 30
0.0
 40
149.1082263140503
 50
51.7928525277946
 51
56.73703942734858
  0
ARC
  5
76
  8
0
 10
701.6332136747175
 20
1177.876194138968
 30
0.0
 40
149.1082263138622
 50
123.2629605726489
 51
128.207147472209
  0
ARC
  5
77
  8
0
 10
-504.5471351927798
 20
1177.876194138658
 30
0.0
 40
157.2383428547064
 50
131.8279759757493
 51
137.1637444841945
210
0.0
220
0.0
230
-1.0
  0
LINE
  5
78
  8
0
 10
624.0490220331935
 20
1267.053333564459
 30
0.0
 11
624.3611025213529
 21
1240.311265400731
 31
0.0
  0
ARC
  5
79
  8
0
 10
-768.672426887035
 20
1177.876194138754
 30
0.0
 40
157.2383428546144
 50
23.39531301774965
 51
29.55602099861129
210
0.0
220
0.0
230
-1.0
  0
ARC
  5
7A
  8
0
 10
504.5471351930962
 20
1177.876194138924
 30
0.0
 40
149.1082263138579
 50
31.34365989731228
 51
36.73178788612265
  0
ARC
  5
7B
  8
0
 10
768.6724268869187
 20
1177.876194138815
 30
0.0
 40
149.1082263140503
 50
152.3357094308323
 51
164.9393950019792
  0
LINE
  5
7C
  8
0
 10
624.6858417433295
 20
1216.620567320091
 30
0.0
 11
636.6097810399283
 21
1216.620567320091
 31
0.0
  0
LINE
  5
7D
  8
0
 10
569.5705678278364
 20
1308.661329219136
 30
0.0
 11
580.8258936971588
 21
1308.661329219137
 31
0.0
  0
ARC
  5
7E
  8
0
 10
668.1136070687962
 20
1177.876194138804
 30
0.0
 40
157.2383428545021
 50
123.7196658647633
 51
128.8078995621461
  0
ARC
  5
7F
  8
0
 10
-471.0275285869618
 20
1177.876194138886
 30
0.0
 40
149.1082263139507
 50
131.3672232260372
 51
137.4821022648929
210
0.0
220
0.0
230
-1.0
  0
ARC
  5
80
  8
0
 10
701.6332136750086
 20
1177.876194138679
 30
0.0
 40
157.2383428547097
 50
140.1427746700572
 51
147.1283271779618
  0
LINE
  5
81
  8
0
 10
582.1313268345712
 20
1267.053333564459
 30
0.0
 11
581.8192463464119
 21
1240.311265400731
 31
0.0
  0
ARC
  5
82
  8
0
 10
437.5079219807297
 20
1177.876194138754
 30
0.0
 40
157.2383428546144
 50
23.39531301774963
 51
29.55602099861129
  0
ARC
  5
83
  8
0
 10
-701.6332136746686
 20
1177.876194138924
 30
0.0
 40
149.1082263138579
 50
31.34365989731228
 51
36.73178788612263
210
0.0
220
0.0
230
-1.0
  0
ARC
  5
84
  8
0
 10
-437.507921980846
 20
1177.876194138815
 30
0.0
 40
149.1082263140503
 50
152.3357094308323
 51
164.9393950019792
210
0.0
220
0.0
230
-1.0
  0
LINE
  5
85
  8
0
 10
581.4945071244352
 20
1216.620567320091
 30
0.0
 11
569.5705678278365
 21
1216.620567320091
 31
0.0
  0
LINE
  5
86
  8
0
 10
603.0901744338823
 20
1308.661329219136
 30
0.0
 11
591.83484856456
 21
1308.661329219137
 31
0.0
  0
ARC
  5
87
  8
0
 10
-504.5471351929226
 20
1177.876194138804
 30
0.0
 40
157.2383428545021
 50
123.7196658647633
 51
128.807899562146
210
0.0
220
0.0
230
-1.0
  0
ARC
  5
88
  8
0
 10
701.633213674757
 20
1177.876194138886
 30
0.0
 40
149.1082263139507
 50
131.3672232260372
 51
137.4821022648929
  0
ARC
  5
89
  8
0
 10
-471.0275285867102
 20
1177.876194138679
 30
0.0
 40
157.2383428547097
 50
140.1427746700572
 51
147.1283271779618
210
0.0
220
0.0
230
-1.0
  0
ARC
  5
8A
  8
0
 10
-701.6332136748198
 20
1177.876194138826
 30
0.0
 40
157.2383428544712
 50
42.83625551580163
 51
48.1720240242547
210
0.0
220
0.0
230
-1.0
  0
ARC
  5
8B
  8
0
 10
504.5471351929382
 20
1177.876194138815
 30
0.0
 40
149.1082263140503
 50
51.7928525277946
 51
56.73703942734858
  0
ARC
  5
8C
  8
0
 10
668.1136070686715
 20
1177.876194138968
 30
0.0
 40
149.1082263138622
 50
123.2629605726489
 51
128.207147472209
  0
ARC
  5
8D
  8
0
 10
-471.0275285867339
 20
1177.876194138658
 30
0.0
 40
157.2383428547064
 50
131.8279759757493
 51
137.1637444841945
210
0.0
220
0.0
230
-1.0
  0
LINE
  5
8E
  8
0
 10
590.5294154271476
 20
1267.053333564459
 30
0.0
 11
590.841495915307
 21
1240.311265400731
 31
0.0
  0
ARC
  5
8F
  8
0
 10
-735.1528202809891
 20
1177.876194138754
 30
0.0
 40
157.2383428546144
 50
23.39531301774965
 51
29.55602099861129
210
0.0
220
0.0
230
-1.0
  0
ARC
  5
90
  8
0
 10
471.0275285870503
 20
1177.876194138924
 30
0.0
 40
149.1082263138579
 50
31.34365989731228
 51
36.73178788612265
  0
ARC
  5
91
  8
0
 10
735.1528202808728
 20
1177.876194138815
 30
0.0
 40
149.1082263140503
 50
152.3357094308323
 51
164.9393950019792
  0
LINE
  5
92
  8
0
 10
591.1662351372836
 20
1216.620567320091
 30
0.0
 11
603.0901744338823
 21
1216.620567320091
 31
0.0
  0
LINE
  5
93
  8
0
 10
536.0509612217904
 20
1308.661329219136
 30
0.0
 11
547.3062870911128
 21
1308.661329219137
 31
0.0
  0
ARC
  5
94
  8
0
 10
634.5940004627503
 20
1177.876194138804
 30
0.0
 40
157.2383428545021
 50
123.7196658647633
 51
128.8078995621461
  0
ARC
  5
95
  8
0
 10
-437.5079219809159
 20
1177.876194138886
 30
0.0
 40
149.1082263139507
 50
131.3672232260372
 51
137.4821022648929
210
0.0
220
0.0
230
-1.0
  0
ARC
  5
96
  8
0
 10
668.1136070689627
 20
1177.876194138679
 30
0.0
 40
157.2383428547097
 50
140.1427746700572
 51
147.1283271779618
  0
LINE
  5
97
  8
0
 10
548.6117202285252
 20
1267.053333564459
 30
0.0
 11
548.2996397403659
 21
1240.311265400731
 31
0.0
  0
ARC
  5
98
  8
0
 10
403.9883153746838
 20
1177.876194138754
 30
0.0
 40
157.2383428546144
 50
23.39531301774963
 51
29.55602099861129
  0
ARC
  5
99
  8
0
 10
-668.1136070686226
 20
1177.876194138924
 30
0.0
 40
149.1082263138579
 50
31.34365989731228
 51
36.73178788612263
210
0.0
220
0.0
230
-1.0
  0
ARC
  5
9A
  8
0
 10
-403.9883153748001
 20
1177.876194138815
 30
0.0
 40
149.1082263140503
 50
152.3357094308323
 51
164.9393950019792
210
0.0
220
0.0
230
-1.0
  0
LINE
  5
9B
  8
0
 10
547.9749005183893
 20
1216.620567320091
 30
0.0
 11
536.0509612217905
 21
1216.620567320091
 31
0.0
  0
LINE
  5
9C
  8
0
 10
569.5705678278364
 20
1308.661329219136
 30
0.0
 11
558.3152419585141
 21
1308.661329219137
 31
0.0
  0
ARC
  5
9D
  8
0
 10
-471.0275285868767
 20
1177.876194138804
 30
0.0
 40
157.2383428545021
 50
123.7196658647633
 51
128.807899562146
210
0.0
220
0.0
230
-1.0
  0
ARC
  5
9E
  8
0
 10
668.1136070687111
 20
1177.876194138886
 30
0.0
 40
149.1082263139507
 50
131.3672232260372
 51
137.4821022648929
  0
ARC
  5
9F
  8
0
 10
-437.5079219806643
 20
1177.876194138679
 30
0.0
 40
157.2383428547097
 50
140.1427746700572
 51
147.1283271779618
210
0.0
220
0.0
230
-1.0
  0
ARC
  5
A0
  8
0
 10
-668.1136070687738
 20
1177.876194138826
 30
0.0
 40
157.2383428544712
 50
42.83625551580163
 51
48.1720240242547
210
0.0
220
0.0
230
-1.0
  0
ARC
  5
A1
  8
0
 10
471.0275285868922
 20
1177.876194138815
 30
0.0
 40
149.1082263140503
 50
51.7928525277946
 51
56.73703942734858
  0
ARC
  5
A2
  8
0
 10
634.5940004626256
 20
1177.876194138968
 30
0.0
 40
149.1082263138622
 50
123.2629605726489
 51
128.207147472209
  0
ARC
  5
A3
  8
0
 10
-437.5079219806879
 20
1177.876194138658
 30
0.0
 40
157.2383428547064
 50
131.8279759757493
 51
137.1637444841945
210
0.0
220
0.0
230
-1.0
  0
LINE
  5
A4
  8
0
 10
557.0098088211016
 20
1267.053333564459
 30
0.0
 11
557.321889309261
 21
1240.311265400731
 31
0.0
  0
ARC
  5
A5
  8
0
 10
-701.6332136749431
 20
1177.876194138754
 30
0.0
 40
157.2383428546144
 50
23.39531301774965
 51
29.55602099861129
210
0.0
220
0.0
230
-1.0
  0
ARC
  5
A6
  8
0
 10
437.5079219810043
 20
1177.876194138924
 30
0.0
 40
149.1082263138579
 50
31.34365989731228
 51
36.73178788612265
  0
ARC
  5
A7
  8
0
 10
701.6332136748268
 20
1177.876194138815
 30
0.0
 40
149.1082263140503
 50
152.3357094308323
 51
164.9393950019792
  0
LINE
  5
A8
  8
0
 10
557.6466285312376
 20
1216.620567320091
 30
0.0
 11
569.5705678278364
 21
1216.620567320091
 31
0.0
  0
LINE
  5
A9
  8
0
 10
502.5313546157445
 20
1308.661329219136
 30
0.0
 11
513.7866804850669
 21
1308.661329219137
 31
0.0
  0
ARC
  5
AA
  8
0
 10
601.0743938567043
 20
1177.876194138804
 30
0.0
 40
157.2383428545021
 50
123.7196658647633
 51
128.8078995621461
  0
ARC
  5
AB
  8
0
 10
-403.9883153748699
 20
1177.876194138886
 30
0.0
 40
149.1082263139507
 50
131.3672232260372
 51
137.4821022648929
210
0.0
220
0.0
230
-1.0
  0
ARC
  5
AC
  8
0
 10
634.5940004629167
 20
1177.876194138679
 30
0.0
 40
157.2383428547097
 50
140.1427746700572
 51
147.1283271779618
  0
LINE
  5
AD
  8
0
 10
515.0921136224792
 20
1267.053333564459
 30
0.0
 11
514.78003313432
 21
1240.311265400731
 31
0.0
  0
ARC
  5
AE
  8
0
 10
370.4687087686378
 20
1177.876194138754
 30
0.0
 40
157.2383428546144
 50
23.39531301774963
 51
29.55602099861128
  0
ARC
  5
AF
  8
0
 10
-634.5940004625767
 20
1177.876194138924
 30
0.0
 40
149.1082263138579
 50
31.34365989731227
 51
36.73178788612263
210
0.0
220
0.0
230
-1.0
  0
ARC
  5
B0
  8
0
 10
-370.4687087687541
 20
1177.876194138815
 30
0.0
 40
149.1082263140503
 50
152.3357094308323
 51
164.9393950019792
210
0.0
220
0.0
230
-1.0
  0
LINE
  5
B1
  8
0
 10
514.4552939123433
 20
1216.620567320091
 30
0.0
 11
502.5313546157446
 21
1216.620567320091
 31
0.0
  0
LINE
  5
B2
  8
0
 10
536.0509612217904
 20
1308.661329219136
 30
0.0
 11
524.7956353524681
 21
1308.661329219137
 31
0.0
  0
ARC
  5
B3
  8
0
 10
-437.5079219808307
 20
1177.876194138804
 30
0.0
 40
157.2383428545021
 50
123.7196658647633
 51
128.807899562146
210
0.0
220
0.0
230
-1.0
  0
ARC
  5
B4
  8
0
 10
634.5940004626651
 20
1177.876194138886
 30
0.0
 40
149.1082263139507
 50
131.3672232260372
 51
137.4821022648929
  0
ARC
  5
B5
  8
0
 10
-403.9883153746183
 20
1177.876194138679
 30
0.0
 40
157.2383428547097
 50
140.1427746700572
 51
147.1283271779618
210
0.0
220
0.0
230
-1.0
  0
ARC
  5
B6
  8
0
 10
-634.5940004627279
 20
1177.876194138826
 30
0.0
 40
157.2383428544712
 50
42.83625551580163
 51
48.1720240242547
210
0.0
220
0.0
230
-1.0
  0
ARC
  5
B7
  8
0
 10
437.5079219808463
 20
1177.876194138815
 30
0.0
 40
149.1082263140503
 50
51.7928525277946
 51
56.73703942734858
  0
ARC
  5
B8
  8
0
 10
601.0743938565796
 20
1177.876194138968
 30
0.0
 40
149.1082263138622
 50
123.2629605726489
 51
128.207147472209
  0
ARC
  5
B9
  8
0
 10
-403.988315374642
 20
1177.876194138658
 30
0.0
 40
157.2383428547064
 50
131.8279759757493
 51
137.1637444841945
210
0.0
220
0.0
230
-1.0
  0
LINE
  5
BA
  8
0
 10
523.4902022150557
 20
1267.053333564459
 30
0.0
 11
523.802282703215
 21
1240.311265400731
 31
0.0
  0
ARC
  5
BB
  8
0
 10
-668.1136070688972
 20
1177.876194138754
 30
0.0
 40
157.2383428546144
 50
23.39531301774965
 51
29.55602099861129
210
0.0
220
0.0
230
-1.0
  0
ARC
  5
BC
  8
0
 10
403.9883153749583
 20
1177.876194138924
 30
0.0
 40
149.1082263138579
 50
31.34365989731228
 51
36.73178788612265
  0
ARC
  5
BD
  8
0
 10
668.1136070687809
 20
1177.876194138815
 30
0.0
 40
149.1082263140503
 50
152.3357094308323
 51
164.9393950019792
  0
LINE
  5
BE
  8
0
 10
524.1270219251917
 20
1216.620567320091
 30
0.0
 11
536.0509612217904
 21
1216.620567320091
 31
0.0
  0
LINE
  5
BF
  8
0
 10
469.0117480096986
 20
1308.661329219136
 30
0.0
 11
480.2670738790209
 21
1308.661329219137
 31
0.0
  0
ARC
  5
C0
  8
0
 10
567.5547872506584
 20
1177.876194138804
 30
0.0
 40
157.2383428545021
 50
123.7196658647633
 51
128.807899562146
  0
ARC
  5
C1
  8
0
 10
-370.4687087688239
 20
1177.876194138886
 30
0.0
 40
149.1082263139507
 50
131.3672232260372
 51
137.4821022648929
210
0.0
220
0.0
230
-1.0
  0
ARC
  5
C2
  8
0
 10
601.0743938568708
 20
1177.876194138679
 30
0.0
 40
157.2383428547097
 50
140.1427746700572
 51
147.1283271779618
  0
LINE
  5
C3
  8
0
 10
481.5725070164333
 20
1267.053333564459
 30
0.0
 11
481.260426528274
 21
1240.311265400731
 31
0.0
  0
ARC
  5
C4
  8
0
 10
336.9491021625919
 20
1177.876194138754
 30
0.0
 40
157.2383428546144
 50
23.39531301774964
 51
29.55602099861128
  0
ARC
  5
C5
  8
0
 10
-601.0743938565307
 20
1177.876194138924
 30
0.0
 40
149.1082263138579
 50
31.34365989731226
 51
36.73178788612264
210
0.0
220
0.0
230
-1.0
  0
ARC
  5
C6
  8
0
 10
-336.9491021627082
 20
1177.876194138815
 30
0.0
 40
149.1082263140503
 50
152.3357094308323
 51
164.9393950019792
210
0.0
220
0.0
230
-1.0
  0
LINE
  5
C7
  8
0
 10
480.9356873062974
 20
1216.620567320091
 30
0.0
 11
469.0117480096986
 21
1216.620567320091
 31
0.0
  0
LINE
  5
C8
  8
0
 10
502.5313546157445
 20
1308.661329219136
 30
0.0
 11
491.2760287464222
 21
1308.661329219137
 31
0.0
  0
ARC
  5
C9
  8
0
 10
-403.9883153747847
 20
1177.876194138804
 30
0.0
 40
157.2383428545021
 50
123.7196658647633
 51
128.807899562146
210
0.0
220
0.0
230
-1.0
  0
ARC
  5
CA
  8
0
 10
601.0743938566192
 20
1177.876194138886
 30
0.0
 40
149.1082263139507
 50
131.3672232260372
 51
137.4821022648928
  0
ARC
  5
CB
  8
0
 10
-370.4687087685724
 20
1177.876194138679
 30
0.0
 40
157.2383428547097
 50
140.1427746700572
 51
147.1283271779618
210
0.0
220
0.0
230
-1.0
  0
ARC
  5
CC
  8
0
 10
-601.0743938566819
 20
1177.876194138826
 30
0.0
 40
157.2383428544712
 50
42.83625551580162
 51
48.17202402425468
210
0.0
220
0.0
230
-1.0
  0
ARC
  5
CD
  8
0
 10
403.9883153748003
 20
1177.876194138815
 30
0.0
 40
149.1082263140503
 50
51.7928525277946
 51
56.73703942734859
  0
ARC
  5
CE
  8
0
 10
567.5547872505336
 20
1177.876194138968
 30
0.0
 40
149.1082263138622
 50
123.2629605726489
 51
128.207147472209
  0
ARC
  5
CF
  8
0
 10
-370.468708768596
 20
1177.876194138658
 30
0.0
 40
157.2383428547064
 50
131.8279759757493
 51
137.1637444841945
210
0.0
220
0.0
230
-1.0
  0
LINE
  5
D0
  8
0
 10
489.9705956090098
 20
1267.053333564459
 30
0.0
 11
490.2826760971691
 21
1240.311265400731
 31
0.0
  0
ARC
  5
D1
  8
0
 10
-634.5940004628512
 20
1177.876194138754
 30
0.0
 40
157.2383428546144
 50
23.39531301774964
 51
29.55602099861128
210
0.0
220
0.0
230
-1.0
  0
ARC
  5
D2
  8
0
 10
370.4687087689124
 20
1177.876194138924
 30
0.0
 40
149.1082263138579
 50
31.34365989731226
 51
36.73178788612264
  0
ARC
  5
D3
  8
0
 10
634.5940004627349
 20
1177.876194138815
 30
0.0
 40
149.1082263140503
 50
152.3357094308323
 51
164.9393950019792
  0
LINE
  5
D4
  8
0
 10
490.6074153191457
 20
1216.620567320091
 30
0.0
 11
502.5313546157445
 21
1216.620567320091
 31
0.0
  0
ENDSEC
  0
EOF
