  0
SECTION
  2
HEADER
  9
$ACADVER
  1
AC1009
  9
$DWGCODEPAGE
  3
ansi_1252
  9
$INSBASE
 10
0.0
 20
0.0
 30
0.0
  9
$EXTMIN
 10
1.000000000000000E+20
 20
1.000000000000000E+20
 30
1.000000000000000E+20
  9
$EXTMAX
 10
-1.000000000000000E+20
 20
-1.000000000000000E+20
 30
-1.000000000000000E+20
  9
$LIMMIN
 10
0.0
 20
0.0
  9
$LIMMAX
 10
12.0
 20
9.0
  9
$ORTHOMODE
 70
     0
  9
$REGENMODE
 70
     1
  9
$FILLMODE
 70
     1
  9
$QTEXTMODE
 70
     0
  9
$MIRRTEXT
 70
     1
  9
$DRAGMODE
 70
     2
  9
$LTSCALE
 40
1.0
  9
$OSMODE
 70
    37
  9
$ATTMODE
 70
     1
  9
$TEXTSIZE
 40
0.2
  9
$TRACEWID
 40
0.05
  9
$TEXTSTYLE
  7
STANDARD
  9
$CLAYER
  8
LAYER_01
  9
$CELTYPE
  6
BYLAYER
  9
$CECOLOR
 62
   256
  9
$DIMSCALE
 40
1.0
  9
$DIMASZ
 40
0.18
  9
$DIMEXO
 40
0.0625
  9
$DIMDLI
 40
0.38
  9
$DIMRND
 40
0.0
  9
$DIMDLE
 40
0.0
  9
$DIMEXE
 40
0.18
  9
$DIMTP
 40
0.0
  9
$DIMTM
 40
0.0
  9
$DIMTXT
 40
0.18
  9
$DIMCEN
 40
0.09
  9
$DIMTSZ
 40
0.0
  9
$DIMTOL
 70
     0
  9
$DIMLIM
 70
     0
  9
$DIMTIH
 70
     1
  9
$DIMTOH
 70
     1
  9
$DIMSE1
 70
     0
  9
$DIMSE2
 70
     0
  9
$DIMTAD
 70
     0
  9
$DIMZIN
 70
     0
  9
$DIMBLK
  1

  9
$DIMASO
 70
     1
  9
$DIMSHO
 70
     1
  9
$DIMPOST
  1

  9
$DIMAPOST
  1

  9
$DIMALT
 70
     0
  9
$DIMALTD
 70
     2
  9
$DIMALTF
 40
25.4
  9
$DIMLFAC
 40
1.0
  9
$DIMTOFL
 70
     0
  9
$DIMTVP
 40
0.0
  9
$DIMTIX
 70
     0
  9
$DIMSOXD
 70
     0
  9
$DIMSAH
 70
     0
  9
$DIMBLK1
  1

  9
$DIMBLK2
  1

  9
$DIMSTYLE
  2
STANDARD_ACAD
  9
$DIMCLRD
 70
     0
  9
$DIMCLRE
 70
     0
  9
$DIMCLRT
 70
     0
  9
$DIMTFAC
 40
1.0
  9
$DIMGAP
 40
0.09
  9
$LUNITS
 70
     2
  9
$LUPREC
 70
     3
  9
$SKETCHINC
 40
0.1
  9
$FILLETRAD
 40
0.5
  9
$AUNITS
 70
     0
  9
$AUPREC
 70
     0
  9
$MENU
  1
.
  9
$ELEVATION
 40
0.0
  9
$PELEVATION
 40
0.0
  9
$THICKNESS
 40
0.0
  9
$LIMCHECK
 70
     0
  9
$CHAMFERA
 40
0.0
  9
$CHAMFERB
 40
0.0
  9
$SKPOLY
 70
     0
  9
$TDCREATE
 40
2459590.708322569
  9
$TDUPDATE
 40
2459590.708322569
  9
$TDINDWG
 40
0.0000000116
  9
$TDUSRTIMER
 40
0.0000000116
  9
$USRTIMER
 70
     1
  9
$ANGBASE
 50
0.0
  9
$ANGDIR
 70
     0
  9
$PDMODE
 70
     0
  9
$PDSIZE
 40
0.0
  9
$PLINEWID
 40
0.0
  9
$COORDS
 70
     1
  9
$SPLFRAME
 70
     0
  9
$SPLINETYPE
 70
     6
  9
$SPLINESEGS
 70
     8
  9
$ATTDIA
 70
     0
  9
$ATTREQ
 70
     1
  9
$HANDLING
 70
     1
  9
$HANDSEED
  5
28A
  9
$SURFTAB1
 70
     6
  9
$SURFTAB2
 70
     6
  9
$SURFTYPE
 70
     6
  9
$SURFU
 70
     6
  9
$SURFV
 70
     6
  9
$UCSNAME
  2

  9
$UCSORG
 10
0.0
 20
0.0
 30
0.0
  9
$UCSXDIR
 10
1.0
 20
0.0
 30
0.0
  9
$UCSYDIR
 10
0.0
 20
1.0
 30
0.0
  9
$PUCSNAME
  2

  9
$PUCSORG
 10
0.0
 20
0.0
 30
0.0
  9
$PUCSXDIR
 10
1.0
 20
0.0
 30
0.0
  9
$PUCSYDIR
 10
0.0
 20
1.0
 30
0.0
  9
$USERI1
 70
     0
  9
$USERI2
 70
     0
  9
$USERI3
 70
     0
  9
$USERI4
 70
     0
  9
$USERI5
 70
     0
  9
$USERR1
 40
0.0
  9
$USERR2
 40
0.0
  9
$USERR3
 40
0.0
  9
$USERR4
 40
0.0
  9
$USERR5
 40
0.0
  9
$WORLDVIEW
 70
     1
  9
$SHADEDGE
 70
     3
  9
$SHADEDIF
 70
    70
  9
$TILEMODE
 70
     1
  9
$MAXACTVP
 70
    64
  9
$PLIMCHECK
 70
     0
  9
$PEXTMIN
 10
1.000000000000000E+20
 20
1.000000000000000E+20
 30
1.000000000000000E+20
  9
$PEXTMAX
 10
-1.000000000000000E+20
 20
-1.000000000000000E+20
 30
-1.000000000000000E+20
  9
$PLIMMIN
 10
0.0
 20
0.0
  9
$PLIMMAX
 10
12.0
 20
9.0
  9
$UNITMODE
 70
     0
  9
$VISRETAIN
 70
     1
  9
$PLINEGEN
 70
     0
  9
$PSLTSCALE
 70
     1
  0
ENDSEC
  0
SECTION
  2
TABLES
  0
TABLE
  2
VPORT
 70
     1
  0
VPORT
  2
*ACTIVE
 70
     0
 10
0.0
 20
0.0
 11
1.0
 21
1.0
 12
10.42990654205607
 22
4.5
 13
0.0
 23
0.0
 14
0.5
 24
0.5
 15
0.5
 25
0.5
 16
0.0
 26
0.0
 36
1.0
 17
0.0
 27
0.0
 37
0.0
 40
9.0
 41
1.972972972850329
 42
50.0
 43
0.0
 44
0.0
 50
0.0
 51
0.0
 71
     0
 72
   100
 73
     1
 74
     3
 75
     0
 76
     0
 77
     0
 78
     0
  0
ENDTAB
  0
TABLE
  2
LTYPE
 70
     1
  0
LTYPE
  2
CONTINUOUS
 70
     0
  3
Solid line
 72
    65
 73
     0
 40
0.0
  0
ENDTAB
  0
TABLE
  2
LAYER
 70
     2
  0
LAYER
  2
0
 70
     0
 62
     7
  6
CONTINUOUS
  0
LAYER
  2
LAYER_01
 70
     0
 62
     7
  6
CONTINUOUS
  0
ENDTAB
  0
TABLE
  2
STYLE
 70
     1
  0
STYLE
  2
STANDARD
 70
     0
 40
0.0
 41
1.0
 50
0.0
 71
     0
 42
0.2
  3
txt
  4

  0
ENDTAB
  0
TABLE
  2
VIEW
 70
     0
  0
ENDTAB
  0
TABLE
  2
UCS
 70
     0
  0
ENDTAB
  0
TABLE
  2
APPID
 70
     2
  0
APPID
  2
ACAD
 70
     0
  0
APPID
  2
RHINO
 70
     0
  0
ENDTAB
  0
TABLE
  2
DIMSTYLE
 70
     1
  0
DIMSTYLE
  2
STANDARD_ACAD
 70
     0
  3

  4

  5

  6

  7

 40
1.0
 41
0.18
 42
0.0625
 43
0.38
 44
0.18
 45
0.0
 46
0.0
 47
0.0
 48
0.0
140
0.18
141
0.09
142
0.0
143
25.4
144
1.0
145
0.0
146
1.0
147
0.09
 71
     0
 72
     0
 73
     1
 74
     1
 75
     0
 76
     0
 77
     0
 78
     0
170
     0
171
     2
172
     0
173
     0
174
     0
175
     0
176
     0
177
     0
178
     0
  0
ENDTAB
  0
ENDSEC
  0
SECTION
  2
BLOCKS
  0
BLOCK
  8
0
  2
$MODEL_SPACE
 70
     0
 10
0.0
 20
0.0
 30
0.0
  3
$MODEL_SPACE
  1

  0
ENDBLK
  5
21
  8
0
  0
BLOCK
 67
     1
  8
0
  2
$PAPER_SPACE
 70
     0
 10
0.0
 20
0.0
 30
0.0
  3
$PAPER_SPACE
  1

  0
ENDBLK
  5
1D
 67
     1
  8
0
  0
ENDSEC
  0
SECTION
  2
ENTITIES
  0
LINE
  5
70
  8
LAYER_01
 10
106.3515707349674
 20
98.78127208780276
 30
0.0
 11
1108.349847614142
 21
98.78127208780276
 31
0.0
  0
LINE
  5
71
  8
LAYER_01
 10
1108.349847614142
 20
98.78127208780276
 30
0.0
 11
1108.349847614142
 21
2084.117221203149
 31
0.0
  0
LINE
  5
72
  8
LAYER_01
 10
1108.349847614142
 20
2084.117221203149
 30
0.0
 11
106.3515707349674
 21
2084.117221203149
 31
0.0
  0
LINE
  5
73
  8
LAYER_01
 10
106.3515707349674
 20
2084.117221203149
 30
0.0
 11
106.3515707349674
 21
98.78127208780276
 31
0.0
  0
ARC
  5
74
  8
LAYER_01
 10
-779.7094897812677
 20
2048.14948423247
 30
0.0
 40
289.9219805297928
 50
186.5780546678876
 51
238.0707311714165
210
0.0
220
0.0
230
-1.0
  0
ARC
  5
75
  8
LAYER_01
 10
586.8283295582816
 20
1929.882932987687
 30
0.0
 40
369.0443640758118
 50
339.7403756891193
 51
356.3692296297189
  0
ARC
  5
76
  8
LAYER_01
 10
974.4990139249749
 20
1537.976813774774
 30
0.0
 40
369.0443640757049
 50
93.00820142688319
 51
109.4448832212624
  0
ARC
  5
77
  8
LAYER_01
 10
-1100.431031239856
 20
1722.126262276769
 30
0.0
 40
297.892970517719
 50
33.36800116482834
 51
49.65139036544891
210
0.0
220
0.0
230
-1.0
  0
LINE
  5
78
  8
LAYER_01
 10
907.5642213065954
 20
1949.156250406176
 30
0.0
 11
919.3677974427025
 21
1951.187554993196
 31
0.0
  0
LINE
  5
79
  8
LAYER_01
 10
919.3677974427025
 20
1951.187554993196
 30
0.0
 11
930.8287703403805
 21
1953.51037745064
 31
0.0
  0
LINE
  5
7A
  8
LAYER_01
 10
930.8287703403805
 20
1953.51037745064
 30
0.0
 11
941.9744636555929
 21
1956.118702315201
 31
0.0
  0
LINE
  5
7B
  8
LAYER_01
 10
941.9744636555929
 20
1956.118702315201
 30
0.0
 11
952.830180623739
 21
1959.007569833408
 31
0.0
  0
LINE
  5
7C
  8
LAYER_01
 10
952.830180623739
 20
1959.007569833408
 30
0.0
 11
963.419423259524
 21
1962.172999999304
 31
0.0
  0
LINE
  5
7D
  8
LAYER_01
 10
963.419423259524
 20
1962.172999999304
 30
0.0
 11
973.7640863092828
 21
1965.611927810335
 31
0.0
  0
LINE
  5
7E
  8
LAYER_01
 10
973.7640863092828
 20
1965.611927810335
 30
0.0
 11
983.8846294838645
 21
1969.322148380521
 31
0.0
  0
LINE
  5
7F
  8
LAYER_01
 10
983.8846294838645
 20
1969.322148380521
 30
0.0
 11
993.8002309666672
 21
1973.302270774637
 31
0.0
  0
LINE
  5
80
  8
LAYER_01
 10
993.8002309666672
 20
1973.302270774637
 30
0.0
 11
1003.528924748919
 21
1977.551679615536
 31
0.0
  0
LINE
  5
81
  8
LAYER_01
 10
1003.528924748919
 20
1977.551679615536
 30
0.0
 11
1013.08772397611
 21
1982.070503675723
 31
0.0
  0
LINE
  5
82
  8
LAYER_01
 10
1013.08772397611
 20
1982.070503675723
 30
0.0
 11
1022.492732182237
 21
1986.859590799433
 31
0.0
  0
LINE
  5
83
  8
LAYER_01
 10
1022.492732182237
 20
1986.859590799433
 30
0.0
 11
1031.759244031493
 21
1991.920488617301
 31
0.0
  0
LINE
  5
84
  8
LAYER_01
 10
1031.759244031493
 20
1991.920488617301
 30
0.0
 11
1040.9018369716
 21
1997.255430615813
 31
0.0
  0
LINE
  5
85
  8
LAYER_01
 10
1040.9018369716
 20
1997.255430615813
 30
0.0
 11
1049.934455022056
 21
2002.867327211246
 31
0.0
  0
LINE
  5
86
  8
LAYER_01
 10
1049.934455022056
 20
2002.867327211246
 30
0.0
 11
1058.870485768617
 21
2008.759761555061
 31
0.0
  0
LINE
  5
87
  8
LAYER_01
 10
1058.870485768617
 20
2008.759761555061
 30
0.0
 11
1067.722831507552
 21
2014.936989867001
 31
0.0
  0
ARC
  5
88
  8
LAYER_01
 10
850.3133382744729
 20
2315.217305152783
 30
0.0
 40
370.532794517797
 50
236.5652549344344
 51
271.8539600280548
  0
ARC
  5
89
  8
LAYER_01
 10
1109.485884363584
 20
1670.84691254291
 30
0.0
 40
369.0443640759805
 50
132.051449028168
 51
149.4169071386618
  0
ARC
  5
8A
  8
LAYER_01
 10
974.4990139250376
 20
1537.976813774643
 30
0.0
 40
369.0443640758527
 50
119.6775382394175
 51
137.0966630810783
  0
ARC
  5
8B
  8
LAYER_01
 10
335.5439943842606
 20
1806.716864129311
 30
0.0
 40
369.0443640757701
 50
357.2807679755245
 51
32.68395627813459
  0
ARC
  5
8C
  8
LAYER_01
 10
-884.0812826026852
 20
1815.931159276194
 30
0.0
 40
369.0443640758263
 50
356.7845807695439
 51
29.47178261447473
210
0.0
220
0.0
230
-1.0
  0
ARC
  5
8D
  8
LAYER_01
 10
-372.9425475898541
 20
2313.690962020167
 30
0.0
 40
368.8090277843548
 50
239.0183542221284
 51
271.7518277740234
210
0.0
220
0.0
230
-1.0
  0
ARC
  5
8E
  8
LAYER_01
 10
-114.9311572558581
 20
1670.619038093422
 30
0.0
 40
369.0443640757574
 50
131.9577863524783
 51
149.3245606180826
210
0.0
220
0.0
230
-1.0
  0
ARC
  5
8F
  8
LAYER_01
 10
-252.1214391979931
 20
1536.845326801309
 30
0.0
 40
369.0443640756162
 50
119.2306370432706
 51
135.5610365858232
210
0.0
220
0.0
230
-1.0
  0
ARC
  5
90
  8
LAYER_01
 10
371.1116730380292
 20
1292.333595481552
 30
0.0
 40
369.0443640758263
 50
87.9594502833467
 51
120.6466521282775
  0
ARC
  5
91
  8
LAYER_01
 10
-137.0238268165222
 20
1793.158855872637
 30
0.0
 40
368.8090277843523
 50
330.1932237359309
 51
2.926697287826161
  0
ARC
  5
92
  8
LAYER_01
 10
500.6226650671557
 20
2064.301490427519
 30
0.0
 40
369.0443640757574
 50
223.132655866281
 51
240.4994301318853
  0
ARC
  5
93
  8
LAYER_01
 10
637.1811899126997
 20
1929.882932987569
 30
0.0
 40
369.0443640756162
 50
210.4055065570733
 51
226.7359060996259
  0
ARC
  5
94
  8
LAYER_01
 10
371.0621210698471
 20
1843.324679555301
 30
0.0
 40
370.4697495283575
 50
236.8263764629025
 51
272.0962612477142
  0
ARC
  5
95
  8
LAYER_01
 10
632.8931882461949
 20
1200.062814140252
 30
0.0
 40
369.0443640756504
 50
132.2807679755209
 51
149.6998928171923
  0
ARC
  5
96
  8
LAYER_01
 10
498.5642112203714
 20
1066.527634248708
 30
0.0
 40
369.0443640759837
 50
119.9605239179442
 51
137.325982028437
  0
ARC
  5
97
  8
LAYER_01
 10
-141.4612850497873
 20
1332.708204135637
 30
0.0
 40
369.0443640758122
 50
357.5100869228888
 51
32.91327522549476
  0
ARC
  5
98
  8
LAYER_01
 10
840.630505623941
 20
-130.6225763901495
 30
0.0
 40
369.0443640758897
 50
53.71902637766044
 51
80.52892535435048
  0
ARC
  5
99
  8
LAYER_01
 10
-1090.275329666025
 20
453.3105290633108
 30
0.0
 40
289.9219805298794
 50
310.6637858781099
 51
327.0982781718266
210
0.0
220
0.0
230
-1.0
  0
ARC
  5
9A
  8
LAYER_01
 10
972.1928495645643
 20
642.9335850290707
 30
0.0
 40
369.0443640760042
 50
250.1459136630861
 51
266.6805141014116
  0
ARC
  5
9B
  8
LAYER_01
 10
582.3986950458184
 20
253.1394305101634
 30
0.0
 40
369.0443640757682
 50
3.319485898579539
 51
20.04966985343154
  0
ARC
  5
9C
  8
LAYER_01
 10
-772.5735740138266
 20
135.608773411127
 30
0.0
 40
289.9219805297331
 50
122.6709524339026
 51
139.3362141218945
210
0.0
220
0.0
230
-1.0
  0
ARC
  5
9D
  8
LAYER_01
 10
1356.506679466951
 20
385.2535974529997
 30
0.0
 40
369.0443640756371
 50
189.4710746456404
 51
216.280973622349
  0
ARC
  5
9E
  8
LAYER_01
 10
-848.6098447666093
 20
1288.045593815133
 30
0.0
 40
369.0443640757255
 50
54.03031084935154
 51
80.8402098260537
210
0.0
220
0.0
230
-1.0
  0
ARC
  5
9F
  8
LAYER_01
 10
602.1411623779352
 20
1873.326379777527
 30
0.0
 40
289.9219805297542
 50
310.3525014064087
 51
353.8963366017578
  0
ARC
  5
A0
  8
LAYER_01
 10
918.1121835191502
 20
1553.903267138735
 30
0.0
 40
289.9219805297556
 50
95.48109445484776
 51
139.0249296501966
  0
ARC
  5
A1
  8
LAYER_01
 10
-335.5439943843469
 20
1806.716864129297
 30
0.0
 40
369.0443640756811
 50
189.7823591173391
 51
216.5922580940445
210
0.0
220
0.0
230
-1.0
  0
ARC
  5
A2
  8
LAYER_01
 10
972.1928495645209
 20
642.9335850288605
 30
0.0
 40
369.0443640757918
 50
222.5920524472229
 51
239.9307062205105
  0
ARC
  5
A3
  8
LAYER_01
 10
1105.89520328164
 20
509.7830543139473
 30
0.0
 40
369.0443640756698
 50
210.3062564345853
 51
227.4079475527812
  0
ARC
  5
A4
  8
LAYER_01
 10
840.6305056240208
 20
-130.6225763900765
 30
0.0
 40
369.0443640758076
 50
87.59205244722364
 51
122.0488418813872
  0
ARC
  5
A5
  8
LAYER_01
 10
331.7872188604611
 20
377.6688873711298
 30
0.0
 40
369.044364075772
 50
328.0133271202233
 51
2.407947552778031
  0
ARC
  5
A6
  8
LAYER_01
 10
-723.3868544038505
 20
2064.301490427682
 30
0.0
 40
369.0443640759634
 50
223.1326558662853
 51
240.4994301318798
210
0.0
220
0.0
230
-1.0
  0
ARC
  5
A7
  8
LAYER_01
 10
-586.8283295584108
 20
1929.882932987588
 30
0.0
 40
369.0443640756495
 50
210.4055065570734
 51
227.7192320244765
210
0.0
220
0.0
230
-1.0
  0
ARC
  5
A8
  8
LAYER_01
 10
-848.6098447665743
 20
1288.04559381498
 30
0.0
 40
369.0443640758775
 50
87.90333691892432
 51
122.5750212420119
210
0.0
220
0.0
230
-1.0
  0
ARC
  5
A9
  8
LAYER_01
 10
-1361.261161827173
 20
1793.006264538408
 30
0.0
 40
369.0443640757442
 50
328.2909929031283
 51
2.948550971838996
210
0.0
220
0.0
230
-1.0
  0
ARC
  5
AA
  8
LAYER_01
 10
242.6337680105119
 20
592.9043575454891
 30
0.0
 40
369.0443640757488
 50
42.59205244722058
 51
59.906551242703
  0
ARC
  5
AB
  8
LAYER_01
 10
108.2843988043572
 20
727.3206818425256
 30
0.0
 40
369.0443640757022
 50
30.06490163142358
 51
47.32598202844373
  0
ARC
  5
AC
  8
LAYER_01
 10
374.4649686910805
 20
1367.346178112442
 30
0.0
 40
369.0443640757491
 50
267.5100869228857
 51
302.1354143883543
  0
ARC
  5
AD
  8
LAYER_01
 10
883.0393987146537
 20
858.1690552031516
 30
0.0
 40
369.0443640758743
 50
147.7967267033289
 51
182.407947552773
  0
ARC
  5
AE
  8
LAYER_01
 10
716.0656369278609
 20
1066.341682751897
 30
0.0
 40
369.0443640755662
 50
42.51008692288193
 51
59.661788760872
  0
ARC
  5
AF
  8
LAYER_01
 10
582.8646991130963
 20
1200.334618541256
 30
0.0
 40
369.0443640757611
 50
29.99854769944866
 51
47.09666308108011
  0
ARC
  5
B0
  8
LAYER_01
 10
851.6047494676943
 20
1839.289638081974
 30
0.0
 40
369.04436407577
 50
267.2807679755246
 51
301.0486757920578
  0
ARC
  5
B1
  8
LAYER_01
 10
1356.850091459614
 20
1330.689965309479
 30
0.0
 40
369.0443640758277
 50
148.5721966435321
 51
182.3259820284402
  0
ARC
  5
B2
  8
LAYER_01
 10
835.6548253276094
 20
1775.11215245259
 30
0.0
 40
289.9219805297556
 50
140.4810944548478
 51
218.8963366017576
  0
ARC
  5
B3
  8
LAYER_01
 10
386.363324605579
 20
1777.553149759802
 30
0.0
 40
289.9219805297819
 50
320.4810944548521
 51
38.89633660175341
  0
ARC
  5
B4
  8
LAYER_01
 10
498.6357814214326
 20
1116.556810539297
 30
0.0
 40
369.0443640758658
 50
222.5100869228904
 51
239.8433186256253
  0
ARC
  5
B5
  8
LAYER_01
 10
632.4279225291039
 20
982.6985120640816
 30
0.0
 40
369.0443640756536
 50
210.1283568339323
 51
227.4079475527801
  0
ARC
  5
B6
  8
LAYER_01
 10
367.1632248714736
 20
342.2928813601365
 30
0.0
 40
369.044364075746
 50
87.59205244722064
 51
122.5054863163613
  0
ARC
  5
B7
  8
LAYER_01
 10
-142.1486731104736
 20
852.2085279814639
 30
0.0
 40
369.0443640757966
 50
327.426634346858
 51
2.325982028441727
  0
ARC
  5
B8
  8
LAYER_01
 10
109.328082523543
 20
1456.879016865927
 30
0.0
 40
369.0443640757259
 50
312.5100869228847
 51
329.8768611884911
  0
ARC
  5
B9
  8
LAYER_01
 10
245.2225038796446
 20
1591.968933353141
 30
0.0
 40
369.044364075759
 50
299.7829376136821
 51
317.0966630810792
  0
ARC
  5
BA
  8
LAYER_01
 10
884.1775234203233
 20
1323.228882998531
 30
0.0
 40
369.0443640757369
 50
177.280767975523
 51
211.952452298624
  0
ARC
  5
BB
  8
LAYER_01
 10
373.6763650812467
 20
816.0945623340704
 30
0.0
 40
369.044364075826
 50
57.66842395973764
 51
92.32598202844021
  0
ARC
  5
BC
  8
LAYER_01
 10
-582.3986950458361
 20
253.1394305101567
 30
0.0
 40
369.0443640757546
 50
132.5920524472205
 51
149.6937435654118
210
0.0
220
0.0
230
-1.0
  0
ARC
  5
BD
  8
LAYER_01
 10
-716.1010487630028
 20
119.9888997952896
 30
0.0
 40
369.0443640758113
 50
120.0692937794907
 51
137.407947552778
210
0.0
220
0.0
230
-1.0
  0
ARC
  5
BE
  8
LAYER_01
 10
-1356.506679467184
 20
385.2535974530024
 30
0.0
 40
369.0443640758736
 50
357.5920524472268
 51
31.98667287977188
210
0.0
220
0.0
230
-1.0
  0
ARC
  5
BF
  8
LAYER_01
 10
-847.6633927035238
 20
893.5450612142243
 30
0.0
 40
369.0443640757966
 50
237.9511581186122
 51
272.4079475527768
210
0.0
220
0.0
230
-1.0
  0
ARC
  5
C0
  8
LAYER_01
 10
432.2104649934015
 20
1954.803519761577
 30
0.0
 40
122.1471473851239
 50
40.96939068952496
 51
54.39658594274187
  0
LINE
  5
C1
  8
LAYER_01
 10
503.3210431115517
 20
2054.117221203149
 30
0.0
 11
178.2794078971731
 21
2054.117221203149
 31
0.0
  0
ARC
  5
C2
  8
LAYER_01
 10
262.0845980991301
 20
1952.326313677613
 30
0.0
 40
131.8510476244266
 50
129.4648734994699
 51
139.4253657418874
  0
ARC
  5
C3
  8
LAYER_01
 10
345.1830393134683
 20
2262.754204794071
 30
0.0
 40
289.9219805298444
 50
230.7979728675653
 51
308.1913646129932
  0
ARC
  5
C4
  8
LAYER_01
 10
444.2034443911303
 20
2048.447074161319
 30
0.0
 40
289.9219805297085
 50
221.2176601768674
 51
264.7614953722237
  0
ARC
  5
C5
  8
LAYER_01
 10
129.5876860133981
 20
1727.689010086172
 30
0.0
 40
289.9219805297525
 50
6.346253225310017
 51
49.89008842066051
  0
ARC
  5
C6
  8
LAYER_01
 10
-373.5760929209191
 20
2314.008093103203
 30
0.0
 40
369.0443640757522
 50
278.9172003468792
 51
305.9489346550625
210
0.0
220
0.0
230
-1.0
  0
LINE
  5
C7
  8
LAYER_01
 10
156.9234413212218
 20
2015.251718759664
 30
0.0
 11
163.3754924603218
 21
2006.399254185835
 31
0.0
  0
LINE
  5
C8
  8
LAYER_01
 10
163.3754924603218
 20
2006.399254185835
 30
0.0
 11
169.5801968055665
 21
1997.358704220543
 31
0.0
  0
LINE
  5
C9
  8
LAYER_01
 10
169.5801968055665
 20
1997.358704220543
 30
0.0
 11
175.5276753303389
 21
1988.13999114434
 31
0.0
  0
LINE
  5
CA
  8
LAYER_01
 10
175.5276753303389
 20
1988.13999114434
 30
0.0
 11
181.2086028864586
 21
1978.7535892767
 31
0.0
  0
LINE
  5
CB
  8
LAYER_01
 10
181.2086028864586
 20
1978.7535892767
 30
0.0
 11
186.6142541016234
 21
1969.210486943277
 31
0.0
  0
LINE
  5
CC
  8
LAYER_01
 10
186.6142541016234
 20
1969.210486943277
 30
0.0
 11
191.7365460366541
 21
1959.522144694624
 31
0.0
  0
LINE
  5
CD
  8
LAYER_01
 10
191.7365460366541
 20
1959.522144694624
 30
0.0
 11
196.568077179586
 21
1949.700450099413
 31
0.0
  0
LINE
  5
CE
  8
LAYER_01
 10
196.568077179586
 20
1949.700450099413
 30
0.0
 11
201.1021623915516
 21
1939.757669480264
 31
0.0
  0
LINE
  5
CF
  8
LAYER_01
 10
201.1021623915516
 20
1939.757669480264
 30
0.0
 11
205.3328634636731
 21
1929.706397000286
 31
0.0
  0
LINE
  5
D0
  8
LAYER_01
 10
205.3328634636731
 20
1929.706397000286
 30
0.0
 11
209.2550149940734
 21
1919.559501542571
 31
0.0
  0
LINE
  5
D1
  8
LAYER_01
 10
209.2550149940734
 20
1919.559501542571
 30
0.0
 11
212.8642453487216
 21
1909.330071852484
 31
0.0
  0
LINE
  5
D2
  8
LAYER_01
 10
212.8642453487216
 20
1909.330071852484
 30
0.0
 11
216.156992528113
 21
1899.031360433041
 31
0.0
  0
LINE
  5
D3
  8
LAYER_01
 10
216.156992528113
 20
1899.031360433041
 30
0.0
 11
219.1305148226623
 21
1888.676726696686
 31
0.0
  0
LINE
  5
D4
  8
LAYER_01
 10
219.1305148226623
 20
1888.676726696686
 30
0.0
 11
221.7828962019704
 21
1878.279579881995
 31
0.0
  0
LINE
  5
D5
  8
LAYER_01
 10
221.7828962019704
 20
1878.279579881995
 30
0.0
 11
224.1130464456395
 21
1867.853322241407
 31
0.0
  0
LINE
  5
D6
  8
LAYER_01
 10
224.1130464456395
 20
1867.853322241407
 30
0.0
 11
226.1206960848667
 21
1857.411292995969
 31
0.0
  0
ARC
  5
D7
  8
LAYER_01
 10
632.4279225291706
 20
253.1394305101578
 30
0.0
 40
369.0443640757507
 50
132.5920524472201
 51
149.6937435654103
  0
ARC
  5
D8
  8
LAYER_01
 10
498.7255688119842
 20
119.9888997953435
 30
0.0
 40
369.044364075757
 50
120.0692937794905
 51
137.4079475527816
  0
ARC
  5
D9
  8
LAYER_01
 10
-141.6800618920978
 20
385.2535974530221
 30
0.0
 40
369.0443640757996
 50
357.5920524472232
 51
31.98667287977535
  0
ARC
  5
DA
  8
LAYER_01
 10
367.1632248714915
 20
893.5450612142406
 30
0.0
 40
369.0443640758127
 50
237.9511581186131
 51
272.4079475527761
  0
ARC
  5
DB
  8
LAYER_01
 10
-242.6337680104973
 20
642.9335850288336
 30
0.0
 40
369.0443640757683
 50
222.5920524472205
 51
239.9307062205103
210
0.0
220
0.0
230
-1.0
  0
ARC
  5
DC
  8
LAYER_01
 10
-108.931414293345
 20
509.783054313969
 30
0.0
 40
369.0443640757031
 50
210.3062564345872
 51
227.4079475527805
210
0.0
220
0.0
230
-1.0
  0
ARC
  5
DD
  8
LAYER_01
 10
-374.1961119510071
 20
-130.6225763900141
 30
0.0
 40
369.0443640757459
 50
87.59205244722068
 51
122.0488418813902
210
0.0
220
0.0
230
-1.0
  0
ARC
  5
DE
  8
LAYER_01
 10
-883.0393987145229
 20
377.6688873711226
 30
0.0
 40
369.0443640757449
 50
328.013327120222
 51
2.407947552779373
210
0.0
220
0.0
230
-1.0
  0
ARC
  5
DF
  8
LAYER_01
 10
582.3986950458345
 20
982.698512064154
 30
0.0
 40
369.0443640757565
 50
312.5920524472206
 51
329.8296990746817
  0
ARC
  5
E0
  8
LAYER_01
 10
716.1372071289052
 20
1116.370859042033
 30
0.0
 40
369.0443640757181
 50
300.1419476923087
 51
317.3259820284435
  0
ARC
  5
E1
  8
LAYER_01
 10
1356.162703398741
 20
850.1902891552733
 30
0.0
 40
369.0443640756587
 50
177.5100869228813
 51
211.8047175400588
  0
ARC
  5
E2
  8
LAYER_01
 10
847.6633927035236
 20
342.2928813600844
 30
0.0
 40
369.0443640757975
 50
58.12742216249615
 51
92.40794755277679
  0
ARC
  5
E3
  8
LAYER_01
 10
1105.373335825481
 20
726.0194764250941
 30
0.0
 40
369.0443640756166
 50
132.5100869228823
 51
149.7664899800638
  0
ARC
  5
E4
  8
LAYER_01
 10
972.1928495646182
 20
592.9043575453127
 30
0.0
 40
369.0443640759557
 50
120.2053813168497
 51
137.4079475527718
  0
ARC
  5
E5
  8
LAYER_01
 10
331.7872188605763
 20
858.1690552032105
 30
0.0
 40
369.0443640756582
 50
357.5920524472164
 51
32.16538527137598
  0
ARC
  5
E6
  8
LAYER_01
 10
841.0250532678546
 20
1366.803930956853
 30
0.0
 40
369.0443640757974
 50
237.766733977542
 51
272.3259820284416
  0
LINE
  5
E7
  8
LAYER_01
 10
590.1036431915371
 20
1584.945842522617
 30
0.0
 11
583.702770736231
 21
1593.943833116528
 31
0.0
  0
LINE
  5
E8
  8
LAYER_01
 10
583.702770736231
 20
1593.943833116528
 30
0.0
 11
577.554925577137
 21
1603.130411665894
 31
0.0
  0
LINE
  5
E9
  8
LAYER_01
 10
577.554925577137
 20
1603.130411665894
 30
0.0
 11
571.6701426046964
 21
1612.49532663511
 31
0.0
  0
LINE
  5
EA
  8
LAYER_01
 10
571.6701426046964
 20
1612.49532663511
 30
0.0
 11
566.0578814569742
 21
1622.02776047456
 31
0.0
  0
LINE
  5
EB
  8
LAYER_01
 10
566.0578814569742
 20
1622.02776047456
 30
0.0
 11
560.7269789600207
 21
1631.71636951076
 31
0.0
  0
LINE
  5
EC
  8
LAYER_01
 10
560.7269789600207
 20
1631.71636951076
 30
0.0
 11
555.6856049813185
 21
1641.549327755466
 31
0.0
  0
LINE
  5
ED
  8
LAYER_01
 10
555.6856049813185
 20
1641.549327755466
 30
0.0
 11
550.9412221427191
 21
1651.514374290044
 31
0.0
  0
LINE
  5
EE
  8
LAYER_01
 10
550.9412221427191
 20
1651.514374290044
 30
0.0
 11
546.5005497987966
 21
1661.598863833467
 31
0.0
  0
LINE
  5
EF
  8
LAYER_01
 10
546.5005497987966
 20
1661.598863833467
 30
0.0
 11
542.3695326392149
 21
1671.789820059789
 31
0.0
  0
LINE
  5
F0
  8
LAYER_01
 10
542.3695326392149
 20
1671.789820059789
 30
0.0
 11
538.5533142203553
 21
1682.073991194733
 31
0.0
  0
LINE
  5
F1
  8
LAYER_01
 10
538.5533142203553
 20
1682.073991194733
 30
0.0
 11
535.0562156730529
 21
1692.437907391955
 31
0.0
  0
LINE
  5
F2
  8
LAYER_01
 10
535.0562156730529
 20
1692.437907391955
 30
0.0
 11
531.881719770953
 21
1702.867939368075
 31
0.0
  0
LINE
  5
F3
  8
LAYER_01
 10
531.881719770953
 20
1702.867939368075
 30
0.0
 11
529.0324604789446
 21
1713.350357762273
 31
0.0
  0
LINE
  5
F4
  8
LAYER_01
 10
529.0324604789446
 20
1713.350357762273
 30
0.0
 11
526.5102180345876
 21
1723.871392681169
 31
0.0
  0
LINE
  5
F5
  8
LAYER_01
 10
526.5102180345876
 20
1723.871392681169
 30
0.0
 11
524.315919548761
 21
1734.417292893063
 31
0.0
  0
LINE
  5
F6
  8
LAYER_01
 10
524.315919548761
 20
1734.417292893063
 30
0.0
 11
522.4496450461456
 21
1744.974384147056
 31
0.0
  0
ARC
  5
F7
  8
LAYER_01
 10
301.5072526887127
 20
1557.253277039556
 30
0.0
 40
289.9219805297479
 50
40.35250140640883
 51
56.79101674989796
  0
ARC
  5
F8
  8
LAYER_01
 10
-114.5236351076296
 20
1670.846912543007
 30
0.0
 40
369.0443640758655
 50
159.5437888164764
 51
176.1399106823538
210
0.0
220
0.0
230
-1.0
  0
ARC
  5
F9
  8
LAYER_01
 10
-500.6226650671495
 20
2064.301490427498
 30
0.0
 40
369.0443640757361
 50
272.7788824795202
 51
289.5778599875943
210
0.0
220
0.0
230
-1.0
  0
ARC
  5
FA
  8
LAYER_01
 10
620.9303653274994
 20
1873.224298180768
 30
0.0
 40
289.921980529757
 50
212.7009555140739
 51
263.8963366017576
  0
ARC
  5
FB
  8
LAYER_01
 10
974.7708183261111
 20
1588.00530290797
 30
0.0
 40
369.0443640758525
 50
222.2807679755257
 51
239.4850045112513
  0
ARC
  5
FC
  8
LAYER_01
 10
1106.417019544926
 20
1455.577811448533
 30
0.0
 40
369.0443640758987
 50
210.1759651044709
 51
227.3259820284351
  0
ARC
  5
FD
  8
LAYER_01
 10
840.2364496580252
 20
815.5523151785216
 30
0.0
 40
369.0443640757369
 50
87.51008692288511
 51
122.036300806072
  0
ARC
  5
FE
  8
LAYER_01
 10
332.9334791533363
 20
1326.223787699668
 30
0.0
 40
369.0443640759039
 50
327.5845143416485
 51
2.096663081074218
  0
ARC
  5
FF
  8
LAYER_01
 10
-498.7255688119459
 20
119.9888997953914
 30
0.0
 40
369.0443640756977
 50
11.30621606606434
 51
35.5289253543519
210
0.0
220
0.0
230
-1.0
  0
ARC
  5
100
  8
LAYER_01
 10
-90.70303778151805
 20
356.3664104524752
 30
0.0
 40
289.9219805297644
 50
355.6637858781067
 51
38.44939964598748
  0
LINE
  5
101
  8
LAYER_01
 10
136.3515707349675
 20
536.6466355070456
 30
0.0
 11
136.8431031521715
 21
192.3409813413863
 31
0.0
  0
ARC
  5
102
  8
LAYER_01
 10
-967.2887303612667
 20
1940.629354914644
 30
0.0
 40
130.9895005912865
 50
119.958305285057
 51
133.9888038252241
210
0.0
220
0.0
230
-1.0
  0
ARC
  5
103
  8
LAYER_01
 10
-878.6802542687949
 20
2262.479544276499
 30
0.0
 40
289.9219805297552
 50
231.7263232582008
 51
310.1219337172138
210
0.0
220
0.0
230
-1.0
  0
ARC
  5
104
  8
LAYER_01
 10
-731.8186627190585
 20
2012.487501530193
 30
0.0
 40
48.97118430929126
 50
35.29662887083367
 51
58.22102775404705
210
0.0
220
0.0
230
-1.0
  0
LINE
  5
105
  8
LAYER_01
 10
706.0282898523152
 20
2054.117221203149
 30
0.0
 11
1032.700911722517
 21
2054.117221203149
 31
0.0
  0
ARC
  5
106
  8
LAYER_01
 10
345.3089249504216
 20
369.6525793535181
 30
0.0
 40
289.9219805297958
 50
303.8175297335818
 51
309.2076210734556
  0
ARC
  5
107
  8
LAYER_01
 10
345.3089249504491
 20
-79.64555227946725
 30
0.0
 40
289.9219805297456
 50
50.79237892654329
 51
129.8993939317351
  0
ARC
  5
108
  8
LAYER_01
 10
193.5739778009795
 20
165.8798769837571
 30
0.0
 40
41.30087259686069
 50
214.017182170075
 51
243.9292858436602
  0
LINE
  5
109
  8
LAYER_01
 10
175.4230661975368
 20
128.7812720878028
 30
0.0
 11
506.6649540612814
 21
128.7812720878028
 31
0.0
  0
ARC
  5
10A
  8
LAYER_01
 10
-869.5176926245153
 20
369.6525793534183
 30
0.0
 40
289.9219805296714
 50
303.8175297335806
 51
309.2076210734567
210
0.0
220
0.0
230
-1.0
  0
ARC
  5
10B
  8
LAYER_01
 10
-869.5176926245625
 20
-79.64555227946761
 30
0.0
 40
289.921980529746
 50
50.7923789265433
 51
129.9592244341306
210
0.0
220
0.0
230
-1.0
  0
ARC
  5
10C
  8
LAYER_01
 10
-985.2766911593384
 20
217.8327562050199
 30
0.0
 40
103.0772171339697
 50
226.8914765924229
 51
239.7607311661574
210
0.0
220
0.0
230
-1.0
  0
LINE
  5
10D
  8
LAYER_01
 10
1037.18763286342
 20
128.7812720878028
 30
0.0
 11
708.16166351373
 21
128.7812720878028
 31
0.0
  0
ARC
  5
10E
  8
LAYER_01
 10
-723.3868544039783
 20
2064.301490427512
 30
0.0
 40
369.0443640757522
 50
195.8785739408897
 51
216.0695287734151
210
0.0
220
0.0
230
-1.0
  0
ARC
  5
10F
  8
LAYER_01
 10
1310.558962325334
 20
1822.37314257553
 30
0.0
 40
289.9219805297494
 50
175.1231824590455
 51
216.7803691391434
  0
LINE
  5
110
  8
LAYER_01
 10
1078.349847614142
 20
1648.782584539279
 30
0.0
 11
1078.349847614142
 21
1963.331118003925
 31
0.0
  0
ARC
  5
111
  8
LAYER_01
 10
1106.417019544691
 20
1455.577811448486
 30
0.0
 40
369.0443640756625
 50
183.2375203742493
 51
199.8633906753335
  0
ARC
  5
112
  8
LAYER_01
 10
-918.2142651159035
 20
1572.692470088293
 30
0.0
 40
289.9219805297451
 50
303.2318558786525
 51
319.6474985935914
210
0.0
220
0.0
230
-1.0
  0
LINE
  5
113
  8
LAYER_01
 10
697.2718727584719
 20
1384.971362980795
 30
0.0
 11
695.4055982558564
 21
1395.528454234787
 31
0.0
  0
LINE
  5
114
  8
LAYER_01
 10
695.4055982558564
 20
1395.528454234787
 30
0.0
 11
693.2112997700299
 21
1406.074354446681
 31
0.0
  0
LINE
  5
115
  8
LAYER_01
 10
693.2112997700299
 20
1406.074354446681
 30
0.0
 11
690.6890573256733
 21
1416.595389365578
 31
0.0
  0
LINE
  5
116
  8
LAYER_01
 10
690.6890573256733
 20
1416.595389365578
 30
0.0
 11
687.8397980336647
 21
1427.077807759776
 31
0.0
  0
LINE
  5
117
  8
LAYER_01
 10
687.8397980336647
 20
1427.077807759776
 30
0.0
 11
684.6653021315651
 21
1437.507839735896
 31
0.0
  0
LINE
  5
118
  8
LAYER_01
 10
684.6653021315651
 20
1437.507839735896
 30
0.0
 11
681.1682035842626
 21
1447.871755933118
 31
0.0
  0
LINE
  5
119
  8
LAYER_01
 10
681.1682035842626
 20
1447.871755933118
 30
0.0
 11
677.3519851654031
 21
1458.155927068062
 31
0.0
  0
LINE
  5
11A
  8
LAYER_01
 10
677.3519851654031
 20
1458.155927068062
 30
0.0
 11
673.2209680058213
 21
1468.346883294384
 31
0.0
  0
LINE
  5
11B
  8
LAYER_01
 10
673.2209680058213
 20
1468.346883294384
 30
0.0
 11
668.7802956618988
 21
1478.431372837807
 31
0.0
  0
LINE
  5
11C
  8
LAYER_01
 10
668.7802956618988
 20
1478.431372837807
 30
0.0
 11
664.0359128232994
 21
1488.396419372385
 31
0.0
  0
LINE
  5
11D
  8
LAYER_01
 10
664.0359128232994
 20
1488.396419372385
 30
0.0
 11
658.9945388445972
 21
1498.229377617091
 31
0.0
  0
LINE
  5
11E
  8
LAYER_01
 10
658.9945388445972
 20
1498.229377617091
 30
0.0
 11
653.6636363476437
 21
1507.917986653291
 31
0.0
  0
LINE
  5
11F
  8
LAYER_01
 10
653.6636363476437
 20
1507.917986653291
 30
0.0
 11
648.0513751999215
 21
1517.450420492741
 31
0.0
  0
LINE
  5
120
  8
LAYER_01
 10
648.0513751999215
 20
1517.450420492741
 30
0.0
 11
642.1665922274807
 21
1526.815335461957
 31
0.0
  0
LINE
  5
121
  8
LAYER_01
 10
642.1665922274807
 20
1526.815335461957
 30
0.0
 11
636.0187470683867
 21
1536.001914011322
 31
0.0
  0
LINE
  5
122
  8
LAYER_01
 10
636.0187470683867
 20
1536.001914011322
 30
0.0
 11
629.6178746130805
 21
1544.999904605234
 31
0.0
  0
ARC
  5
123
  8
LAYER_01
 10
-598.7911524771187
 20
1256.721448947084
 30
0.0
 40
289.9219805297557
 50
96.10366339824233
 51
147.4205328401567
210
0.0
220
0.0
230
-1.0
  0
ARC
  5
124
  8
LAYER_01
 10
716.0656369277106
 20
1066.341682751654
 30
0.0
 40
369.0443640758546
 50
69.86672159521176
 51
86.59854857708099
  0
ARC
  5
125
  8
LAYER_01
 10
-1305.529655356521
 20
356.3664104524792
 30
0.0
 40
289.9219805297556
 50
321.5904079794865
 51
38.40959202051342
210
0.0
220
0.0
230
-1.0
  0
LINE
  5
126
  8
LAYER_01
 10
1078.349847614142
 20
536.4888403395744
 30
0.0
 11
1078.349847614142
 21
176.2439805653843
 31
0.0
  0
ARC
  5
127
  8
LAYER_01
 10
-616.8080489133995
 20
926.2259868133788
 30
0.0
 40
289.9219805297546
 50
275.792378926545
 51
327.3053187832081
210
0.0
220
0.0
230
-1.0
  0
ARC
  5
128
  8
LAYER_01
 10
498.6357814214077
 20
1116.556810539292
 30
0.0
 40
369.0443640758492
 50
250.0670416689249
 51
266.5985485770795
  0
ARC
  5
129
  8
LAYER_01
 10
108.2843988042771
 20
727.3206818424633
 30
0.0
 40
369.0443640758032
 50
3.237520374248422
 51
19.86642507889234
  0
ARC
  5
12A
  8
LAYER_01
 10
-299.1062932612873
 20
608.5242311612657
 30
0.0
 40
289.9219805297475
 50
122.6136529112362
 51
139.3362141218938
210
0.0
220
0.0
230
-1.0
  0
LINE
  5
12B
  8
LAYER_01
 10
519.0255525720283
 20
797.4429284320926
 30
0.0
 11
520.9491552814835
 21
786.8961322891677
 31
0.0
  0
LINE
  5
12C
  8
LAYER_01
 10
520.9491552814835
 20
786.8961322891677
 30
0.0
 11
523.2007163330987
 21
776.3623091486846
 31
0.0
  0
LINE
  5
12D
  8
LAYER_01
 10
523.2007163330987
 20
776.3623091486846
 30
0.0
 11
525.78008141237
 21
765.8551326249659
 31
0.0
  0
LINE
  5
12E
  8
LAYER_01
 10
525.78008141237
 20
765.8551326249659
 30
0.0
 11
528.6862487128665
 21
755.3883487098542
 31
0.0
  0
LINE
  5
12F
  8
LAYER_01
 10
528.6862487128665
 20
755.3883487098542
 30
0.0
 11
531.9173632126793
 21
744.9757174216334
 31
0.0
  0
LINE
  5
130
  8
LAYER_01
 10
531.9173632126793
 20
744.9757174216334
 30
0.0
 11
535.4707163953806
 21
734.6309536084008
 31
0.0
  0
LINE
  5
131
  8
LAYER_01
 10
535.4707163953806
 20
734.6309536084008
 30
0.0
 11
539.342751492025
 21
724.3676674307853
 31
0.0
  0
LINE
  5
132
  8
LAYER_01
 10
539.342751492025
 20
724.3676674307853
 30
0.0
 11
543.5290742550578
 21
714.1993050600157
 31
0.0
  0
LINE
  5
133
  8
LAYER_01
 10
543.5290742550578
 20
714.1993050600157
 30
0.0
 11
548.0244692082815
 21
704.1390901303029
 31
0.0
  0
LINE
  5
134
  8
LAYER_01
 10
548.0244692082815
 20
704.1390901303029
 30
0.0
 11
552.8229212505266
 21
694.1999664791069
 31
0.0
  0
LINE
  5
135
  8
LAYER_01
 10
552.8229212505266
 20
694.1999664791069
 30
0.0
 11
557.9176424256843
 21
684.3945426951663
 31
0.0
  0
LINE
  5
136
  8
LAYER_01
 10
557.9176424256843
 20
684.3945426951663
 30
0.0
 11
563.3011036095442
 21
674.7350389723945
 31
0.0
  0
LINE
  5
137
  8
LAYER_01
 10
563.3011036095442
 20
674.7350389723945
 30
0.0
 11
568.9650708056419
 21
665.2332367383312
 31
0.0
  0
LINE
  5
138
  8
LAYER_01
 10
568.9650708056419
 20
665.2332367383312
 30
0.0
 11
574.9006456891623
 21
655.9004314893451
 31
0.0
  0
LINE
  5
139
  8
LAYER_01
 10
574.9006456891623
 20
655.9004314893451
 30
0.0
 11
581.0983099908514
 21
646.7473892220211
 31
0.0
  0
LINE
  5
13A
  8
LAYER_01
 10
581.0983099908514
 20
646.7473892220211
 30
0.0
 11
587.547973272674
 21
637.7843068019864
 31
0.0
  0
ARC
  5
13B
  8
LAYER_01
 10
1305.831794432764
 20
1301.875733956581
 30
0.0
 40
289.9219805297557
 50
141.6866183909771
 51
218.3133816090227
  0
LINE
  5
13C
  8
LAYER_01
 10
1078.349847614142
 20
1122.135035543825
 30
0.0
 11
1078.349847614142
 21
1481.616432369337
 31
0.0
  0
LINE
  5
13D
  8
LAYER_01
 10
901.2303714186381
 20
1002.70358445541
 30
0.0
 11
911.7799086134879
 21
1004.612097289719
 31
0.0
  0
LINE
  5
13E
  8
LAYER_01
 10
911.7799086134879
 20
1004.612097289719
 30
0.0
 11
922.3169419858096
 21
1006.848586689361
 31
0.0
  0
LINE
  5
13F
  8
LAYER_01
 10
922.3169419858096
 20
1006.848586689361
 30
0.0
 11
932.8277977145152
 21
1009.41291790102
 31
0.0
  0
LINE
  5
140
  8
LAYER_01
 10
932.8277977145152
 20
1009.41291790102
 30
0.0
 11
943.2987283886753
 21
1012.304108783864
 31
0.0
  0
LINE
  5
141
  8
LAYER_01
 10
943.2987283886753
 20
1012.304108783864
 30
0.0
 11
953.7159713503526
 21
1015.520324002522
 31
0.0
  0
LINE
  5
142
  8
LAYER_01
 10
953.7159713503526
 20
1015.520324002522
 30
0.0
 11
964.0658078907661
 21
1019.058874663357
 31
0.0
  0
LINE
  5
143
  8
LAYER_01
 10
964.0658078907661
 20
1019.058874663357
 30
0.0
 11
974.3346227750152
 21
1022.916223471321
 31
0.0
  0
LINE
  5
144
  8
LAYER_01
 10
974.3346227750152
 20
1022.916223471321
 30
0.0
 11
984.5089635593614
 21
1027.087995419014
 31
0.0
  0
LINE
  5
145
  8
LAYER_01
 10
984.5089635593614
 20
1027.087995419014
 30
0.0
 11
994.5755991620325
 21
1031.568993952881
 31
0.0
  0
LINE
  5
146
  8
LAYER_01
 10
994.5755991620325
 20
1031.568993952881
 30
0.0
 11
1004.521577153803
 21
1036.353222494945
 31
0.0
  0
LINE
  5
147
  8
LAYER_01
 10
1004.521577153803
 20
1036.353222494945
 30
0.0
 11
1014.334279248207
 21
1041.433911133483
 31
0.0
  0
LINE
  5
148
  8
LAYER_01
 10
1014.334279248207
 20
1041.433911133483
 30
0.0
 11
1024.00147449291
 21
1046.803548233805
 31
0.0
  0
LINE
  5
149
  8
LAYER_01
 10
1024.00147449291
 20
1046.803548233805
 30
0.0
 11
1033.511369693139
 21
1052.453916662003
 31
0.0
  0
LINE
  5
14A
  8
LAYER_01
 10
1033.511369693139
 20
1052.453916662003
 30
0.0
 11
1042.852656634427
 21
1058.376134261341
 31
0.0
  0
LINE
  5
14B
  8
LAYER_01
 10
1042.852656634427
 20
1058.376134261341
 30
0.0
 11
1052.014555714676
 21
1064.560698173791
 31
0.0
  0
LINE
  5
14C
  8
LAYER_01
 10
1052.014555714676
 20
1064.560698173791
 30
0.0
 11
1060.986855643638
 21
1070.997532558951
 31
0.0
  0
ARC
  5
14D
  8
LAYER_01
 10
-772.5873293054246
 20
1100.670213634161
 30
0.0
 40
289.9219805297569
 50
185.8743444508803
 51
237.2840652482736
210
0.0
220
0.0
230
-1.0
  0
ARC
  5
14E
  8
LAYER_01
 10
582.3986950457929
 20
982.6985120641625
 30
0.0
 40
369.0443640757985
 50
340.0435133346409
 51
356.6805141014182
  0
ARC
  5
14F
  8
LAYER_01
 10
972.192849564532
 20
592.9043575454411
 30
0.0
 40
369.0443640758005
 50
93.31948589858465
 51
109.9473316762177
  0
ARC
  5
150
  8
LAYER_01
 10
-1089.834265968391
 20
782.5142891775612
 30
0.0
 40
289.9219805297452
 50
32.85670212913227
 51
49.41817964622894
210
0.0
220
0.0
230
-1.0
  0
ARC
  5
151
  8
LAYER_01
 10
-374.1961119510111
 20
-130.6225763900085
 30
0.0
 40
369.0443640757408
 50
53.34324550784585
 51
80.52892535435596
210
0.0
220
0.0
230
-1.0
  0
ARC
  5
152
  8
LAYER_01
 10
124.551287909084
 20
453.3105290632257
 30
0.0
 40
289.9219805297509
 50
310.6637858781062
 51
327.0982781718293
  0
ARC
  5
153
  8
LAYER_01
 10
-242.6337680105285
 20
642.9335850287783
 30
0.0
 40
369.0443640757039
 50
250.1459136630831
 51
266.6805141014215
210
0.0
220
0.0
230
-1.0
  0
ARC
  5
154
  8
LAYER_01
 10
-632.4279225291489
 20
253.1394305101741
 30
0.0
 40
369.0443640757236
 50
3.319485898578862
 51
20.04966985343219
210
0.0
220
0.0
230
-1.0
  0
ARC
  5
155
  8
LAYER_01
 10
442.2530435611904
 20
135.6087734111155
 30
0.0
 40
289.9219805297456
 50
122.6709524339026
 51
174.0952319411045
  0
LINE
  5
156
  8
LAYER_01
 10
136.3515707349675
 20
1134.83863857059
 30
0.0
 11
138.3670662488618
 21
1144.760848331977
 31
0.0
  0
LINE
  5
157
  8
LAYER_01
 10
138.3670662488618
 20
1144.760848331977
 30
0.0
 11
140.6443667769745
 21
1154.630689737993
 31
0.0
  0
LINE
  5
158
  8
LAYER_01
 10
140.6443667769745
 20
1154.630689737993
 30
0.0
 11
143.1826409127116
 21
1164.437155600336
 31
0.0
  0
LINE
  5
159
  8
LAYER_01
 10
143.1826409127116
 20
1164.437155600336
 30
0.0
 11
145.980485338463
 21
1174.169292366925
 31
0.0
  0
LINE
  5
15A
  8
LAYER_01
 10
145.980485338463
 20
1174.169292366925
 30
0.0
 11
149.0359249741021
 21
1183.816240188013
 31
0.0
  0
LINE
  5
15B
  8
LAYER_01
 10
149.0359249741021
 20
1183.816240188013
 30
0.0
 11
152.346416229777
 21
1193.367272844616
 31
0.0
  0
LINE
  5
15C
  8
LAYER_01
 10
152.346416229777
 20
1193.367272844616
 30
0.0
 11
155.9088533678698
 21
1202.811837234522
 31
0.0
  0
LINE
  5
15D
  8
LAYER_01
 10
155.9088533678698
 20
1202.811837234522
 30
0.0
 11
159.7195779475475
 21
1212.139592112704
 31
0.0
  0
LINE
  5
15E
  8
LAYER_01
 10
159.7195779475475
 20
1212.139592112704
 30
0.0
 11
163.7743912939315
 21
1221.340445788553
 31
0.0
  0
LINE
  5
15F
  8
LAYER_01
 10
163.7743912939315
 20
1221.340445788553
 30
0.0
 11
168.0685699030939
 21
1230.404592491799
 31
0.0
  0
LINE
  5
160
  8
LAYER_01
 10
168.0685699030939
 20
1230.404592491799
 30
0.0
 11
172.5968836643484
 21
1239.322547132251
 31
0.0
  0
LINE
  5
161
  8
LAYER_01
 10
172.5968836643484
 20
1239.322547132251
 30
0.0
 11
177.3536167531204
 21
1248.08517819524
 31
0.0
  0
LINE
  5
162
  8
LAYER_01
 10
177.3536167531204
 20
1248.08517819524
 30
0.0
 11
182.3325910215127
 21
1256.683738534755
 31
0.0
  0
LINE
  5
163
  8
LAYER_01
 10
182.3325910215127
 20
1256.683738534755
 30
0.0
 11
187.5271916899407
 21
1265.109893849251
 31
0.0
  0
LINE
  5
164
  8
LAYER_01
 10
187.5271916899407
 20
1265.109893849251
 30
0.0
 11
192.9303951222434
 21
1273.355748650623
 31
0.0
  0
LINE
  5
165
  8
LAYER_01
 10
192.9303951222434
 20
1273.355748650623
 30
0.0
 11
198.5347984487995
 21
1281.413869564485
 31
0.0
  0
ARC
  5
166
  8
LAYER_01
 10
-90.5256381811687
 20
1303.748120605823
 30
0.0
 40
289.9219805297373
 50
355.5818203537696
 51
38.50574503487479
  0
LINE
  5
167
  8
LAYER_01
 10
136.3515707349675
 20
1484.251546802418
 30
0.0
 11
136.3515707349675
 21
1134.83863857059
 31
0.0
  0
ARC
  5
168
  8
LAYER_01
 10
-91.13037608365534
 20
881.0227593343701
 30
0.0
 40
289.9219805297558
 50
321.6866183909771
 51
38.31338160902282
  0
LINE
  5
169
  8
LAYER_01
 10
136.3515707349675
 20
1060.763457747126
 30
0.0
 11
136.3515707349674
 21
701.2820609216138
 31
0.0
  0
LINE
  5
16A
  8
LAYER_01
 10
313.4710469304711
 20
1180.194908835541
 30
0.0
 11
302.9215097356213
 21
1178.286396001232
 31
0.0
  0
LINE
  5
16B
  8
LAYER_01
 10
302.9215097356213
 20
1178.286396001232
 30
0.0
 11
292.3844763632997
 21
1176.049906601591
 31
0.0
  0
LINE
  5
16C
  8
LAYER_01
 10
292.3844763632997
 20
1176.049906601591
 30
0.0
 11
281.8736206345941
 21
1173.485575389932
 31
0.0
  0
LINE
  5
16D
  8
LAYER_01
 10
281.8736206345941
 20
1173.485575389932
 30
0.0
 11
271.4026899604339
 21
1170.594384507087
 31
0.0
  0
LINE
  5
16E
  8
LAYER_01
 10
271.4026899604339
 20
1170.594384507087
 30
0.0
 11
260.9854469987567
 21
1167.37816928843
 31
0.0
  0
LINE
  5
16F
  8
LAYER_01
 10
260.9854469987567
 20
1167.37816928843
 30
0.0
 11
250.635610458343
 21
1163.839618627595
 31
0.0
  0
LINE
  5
170
  8
LAYER_01
 10
250.635610458343
 20
1163.839618627595
 30
0.0
 11
240.3667955740938
 21
1159.982269819631
 31
0.0
  0
LINE
  5
171
  8
LAYER_01
 10
240.3667955740938
 20
1159.982269819631
 30
0.0
 11
230.1924547897476
 21
1155.810497871938
 31
0.0
  0
LINE
  5
172
  8
LAYER_01
 10
230.1924547897476
 20
1155.810497871938
 30
0.0
 11
220.1258191870764
 21
1151.32949933807
 31
0.0
  0
LINE
  5
173
  8
LAYER_01
 10
220.1258191870764
 20
1151.32949933807
 30
0.0
 11
210.1798411953056
 21
1146.545270796007
 31
0.0
  0
LINE
  5
174
  8
LAYER_01
 10
210.1798411953056
 20
1146.545270796007
 30
0.0
 11
200.3671391009027
 21
1141.464582157469
 31
0.0
  0
LINE
  5
175
  8
LAYER_01
 10
200.3671391009027
 20
1141.464582157469
 30
0.0
 11
190.6999438561995
 21
1136.094945057147
 31
0.0
  0
LINE
  5
176
  8
LAYER_01
 10
190.6999438561995
 20
1136.094945057147
 30
0.0
 11
181.1900486559701
 21
1130.444576628949
 31
0.0
  0
LINE
  5
177
  8
LAYER_01
 10
181.1900486559701
 20
1130.444576628949
 30
0.0
 11
171.848761714682
 21
1124.522359029611
 31
0.0
  0
LINE
  5
178
  8
LAYER_01
 10
171.848761714682
 20
1124.522359029611
 30
0.0
 11
162.6868626344328
 21
1118.337795117161
 31
0.0
  0
LINE
  5
179
  8
LAYER_01
 10
162.6868626344328
 20
1118.337795117161
 30
0.0
 11
153.7145627054714
 21
1111.900960732
 31
0.0
  0
ARC
  5
17A
  8
LAYER_01
 10
-442.1140890436841
 20
1082.228279656792
 30
0.0
 40
289.9219805297566
 50
5.874344450880183
 51
57.47999495406759
210
0.0
220
0.0
230
-1.0
  0
ARC
  5
17B
  8
LAYER_01
 10
632.8931882462762
 20
1200.062814140186
 30
0.0
 40
369.0443640757543
 50
159.932547835345
 51
176.369229629722
  0
ARC
  5
17C
  8
LAYER_01
 10
245.2225038796004
 20
1591.968933353198
 30
0.0
 40
369.0443640758304
 50
273.0082014268881
 51
289.6370553674877
  0
ARC
  5
17D
  8
LAYER_01
 10
-124.8671523806986
 20
1400.384204113407
 30
0.0
 40
289.9219805297711
 50
212.5518377719753
 51
229.4181796462282
210
0.0
220
0.0
230
-1.0
  0
LINE
  5
17E
  8
LAYER_01
 10
1078.349847614142
 20
1048.059854720362
 30
0.0
 11
1076.334352100248
 21
1038.137644958975
 31
0.0
  0
LINE
  5
17F
  8
LAYER_01
 10
1076.334352100248
 20
1038.137644958975
 30
0.0
 11
1074.057051572135
 21
1028.267803552959
 31
0.0
  0
LINE
  5
180
  8
LAYER_01
 10
1074.057051572135
 20
1028.267803552959
 30
0.0
 11
1071.518777436398
 21
1018.461337690616
 31
0.0
  0
LINE
  5
181
  8
LAYER_01
 10
1071.518777436398
 20
1018.461337690616
 30
0.0
 11
1068.720933010646
 21
1008.729200924026
 31
0.0
  0
LINE
  5
182
  8
LAYER_01
 10
1068.720933010646
 20
1008.729200924026
 30
0.0
 11
1065.665493375007
 21
999.0822531029389
 31
0.0
  0
LINE
  5
183
  8
LAYER_01
 10
1065.665493375007
 20
999.0822531029389
 30
0.0
 11
1062.355002119333
 21
989.5312204463361
 31
0.0
  0
LINE
  5
184
  8
LAYER_01
 10
1062.355002119333
 20
989.5312204463361
 30
0.0
 11
1058.79256498124
 21
980.08665605643
 31
0.0
  0
LINE
  5
185
  8
LAYER_01
 10
1058.79256498124
 20
980.08665605643
 30
0.0
 11
1054.981840401562
 21
970.7589011782477
 31
0.0
  0
LINE
  5
186
  8
LAYER_01
 10
1054.981840401562
 20
970.7589011782477
 30
0.0
 11
1050.927027055178
 21
961.5580475023992
 31
0.0
  0
LINE
  5
187
  8
LAYER_01
 10
1050.927027055178
 20
961.5580475023992
 30
0.0
 11
1046.632848446015
 21
952.4939007991527
 31
0.0
  0
LINE
  5
188
  8
LAYER_01
 10
1046.632848446015
 20
952.4939007991527
 30
0.0
 11
1042.104534684761
 21
943.5759461587005
 31
0.0
  0
LINE
  5
189
  8
LAYER_01
 10
1042.104534684761
 20
943.5759461587005
 30
0.0
 11
1037.347801595989
 21
934.8133150957121
 31
0.0
  0
LINE
  5
18A
  8
LAYER_01
 10
1037.347801595989
 20
934.8133150957121
 30
0.0
 11
1032.368827327596
 21
926.2147547561972
 31
0.0
  0
LINE
  5
18B
  8
LAYER_01
 10
1032.368827327596
 20
926.2147547561972
 30
0.0
 11
1027.174226659168
 21
917.7885994417011
 31
0.0
  0
LINE
  5
18C
  8
LAYER_01
 10
1027.174226659168
 20
917.7885994417011
 30
0.0
 11
1021.771023226866
 21
909.5427446403287
 31
0.0
  0
LINE
  5
18D
  8
LAYER_01
 10
1021.771023226866
 20
909.5427446403287
 30
0.0
 11
1016.16661990031
 21
901.484623726467
 31
0.0
  0
ARC
  5
18E
  8
LAYER_01
 10
1305.227056530279
 20
879.1503726851281
 30
0.0
 40
289.9219805297384
 50
175.5818203537695
 51
218.5057450348747
  0
LINE
  5
18F
  8
LAYER_01
 10
1078.349847614142
 20
698.646946488534
 30
0.0
 11
1078.349847614142
 21
1048.059854720362
 31
0.0
  0
ARC
  5
190
  8
LAYER_01
 10
86.59371947441396
 20
1822.547782917374
 30
0.0
 40
289.9219805297561
 50
140.2627175070948
 51
218.6537467746898
210
0.0
220
0.0
230
-1.0
  0
ARC
  5
191
  8
LAYER_01
 10
-362.6834189710498
 20
1826.891048928618
 30
0.0
 40
289.9219805304875
 50
320.2385046277804
 51
321.3214726166256
210
0.0
220
0.0
230
-1.0
  0
LINE
  5
192
  8
LAYER_01
 10
136.3515707349675
 20
1645.704268867932
 30
0.0
 11
136.3515707349675
 21
2007.885723900194
 31
0.0
  0
LINE
  5
193
  8
LAYER_01
 10
161.9146269678769
 20
1092.023874129922
 30
0.0
 11
172.8105303336067
 21
1090.231029250435
 31
0.0
  0
LINE
  5
194
  8
LAYER_01
 10
172.8105303336067
 20
1090.231029250435
 30
0.0
 11
183.6621183829727
 21
1088.125735363419
 31
0.0
  0
LINE
  5
195
  8
LAYER_01
 10
183.6621183829727
 20
1088.125735363419
 30
0.0
 11
194.4550459483205
 21
1085.708088246379
 31
0.0
  0
LINE
  5
196
  8
LAYER_01
 10
194.4550459483205
 20
1085.708088246379
 30
0.0
 11
205.1749711645571
 21
1082.978990693704
 31
0.0
  0
LINE
  5
197
  8
LAYER_01
 10
205.1749711645571
 20
1082.978990693704
 30
0.0
 11
215.8076172832896
 21
1079.940158187268
 31
0.0
  0
LINE
  5
198
  8
LAYER_01
 10
215.8076172832896
 20
1079.940158187268
 30
0.0
 11
226.338834865413
 21
1076.59411938396
 31
0.0
  0
LINE
  5
199
  8
LAYER_01
 10
226.338834865413
 20
1076.59411938396
 30
0.0
 11
236.7546637937657
 21
1072.944211345286
 31
0.0
  0
LINE
  5
19A
  8
LAYER_01
 10
236.7546637937657
 20
1072.944211345286
 30
0.0
 11
247.041394541933
 21
1068.994569496688
 31
0.0
  0
LINE
  5
19B
  8
LAYER_01
 10
247.041394541933
 20
1068.994569496688
 30
0.0
 11
257.1856281384246
 21
1064.750112367752
 31
0.0
  0
LINE
  5
19C
  8
LAYER_01
 10
257.1856281384246
 20
1064.750112367752
 30
0.0
 11
267.1743342773394
 21
1060.216521227863
 31
0.0
  0
LINE
  5
19D
  8
LAYER_01
 10
267.1743342773394
 20
1060.216521227863
 30
0.0
 11
276.9949070470868
 21
1055.400214793813
 31
0.0
  0
LINE
  5
19E
  8
LAYER_01
 10
276.9949070470868
 20
1055.400214793813
 30
0.0
 11
286.6352177774249
 21
1050.308319245212
 31
0.0
  0
LINE
  5
19F
  8
LAYER_01
 10
286.6352177774249
 20
1050.308319245212
 30
0.0
 11
296.083664541422
 21
1044.948633839143
 31
0.0
  0
LINE
  5
1A0
  8
LAYER_01
 10
296.083664541422
 20
1044.948633839143
 30
0.0
 11
305.3292178922357
 21
1039.329592466274
 31
0.0
  0
LINE
  5
1A1
  8
LAYER_01
 10
305.3292178922357
 20
1039.329592466274
 30
0.0
 11
314.3614624639316
 21
1033.460221535655
 31
0.0
  0
LINE
  5
1A2
  8
LAYER_01
 10
314.3614624639316
 20
1033.460221535655
 30
0.0
 11
323.1706341199114
 21
1027.350094613919
 31
0.0
  0
ARC
  5
1A3
  8
LAYER_01
 10
345.5048851612585
 20
1316.41053124386
 30
0.0
 40
289.9219805297107
 50
265.5818203537674
 51
309.1256555491233
  0
ARC
  5
1A4
  8
LAYER_01
 10
344.862133728349
 20
867.112859360919
 30
0.0
 40
289.921980529755
 50
50.71041340220986
 51
129.1256555491199
  0
ARC
  5
1A5
  8
LAYER_01
 10
-123.9850442122184
 20
783.7708040190357
 30
0.0
 40
289.9219805297557
 50
95.87434445088023
 51
174.28958659779
210
0.0
220
0.0
230
-1.0
  0
ARC
  5
1A6
  8
LAYER_01
 10
-442.1409686688282
 20
1101.017740682013
 30
0.0
 40
289.9219805297618
 50
275.8743444508806
 51
319.4181796462285
210
0.0
220
0.0
230
-1.0
  0
LINE
  5
1A7
  8
LAYER_01
 10
221.951673390968
 20
912.4138461322484
 30
0.0
 11
220.0431605566588
 21
922.9633833270981
 31
0.0
  0
LINE
  5
1A8
  8
LAYER_01
 10
220.0431605566588
 20
922.9633833270981
 30
0.0
 11
217.8066711570175
 21
933.5004166994197
 31
0.0
  0
LINE
  5
1A9
  8
LAYER_01
 10
217.8066711570175
 20
933.5004166994197
 30
0.0
 11
215.2423399453585
 21
944.0112724281253
 31
0.0
  0
LINE
  5
1AA
  8
LAYER_01
 10
215.2423399453585
 20
944.0112724281253
 30
0.0
 11
212.3511490625139
 21
954.4822031022854
 31
0.0
  0
LINE
  5
1AB
  8
LAYER_01
 10
212.3511490625139
 20
954.4822031022854
 30
0.0
 11
209.134933843856
 21
964.8994460639627
 31
0.0
  0
LINE
  5
1AC
  8
LAYER_01
 10
209.134933843856
 20
964.8994460639627
 30
0.0
 11
205.5963831830209
 21
975.2492826043762
 31
0.0
  0
LINE
  5
1AD
  8
LAYER_01
 10
205.5963831830209
 20
975.2492826043762
 30
0.0
 11
201.7390343750574
 21
985.5180974886254
 31
0.0
  0
LINE
  5
1AE
  8
LAYER_01
 10
201.7390343750574
 20
985.5180974886254
 30
0.0
 11
197.5672624273643
 21
995.6924382729716
 31
0.0
  0
LINE
  5
1AF
  8
LAYER_01
 10
197.5672624273643
 20
995.6924382729716
 30
0.0
 11
193.086263893497
 21
1005.759073875643
 31
0.0
  0
LINE
  5
1B0
  8
LAYER_01
 10
193.086263893497
 20
1005.759073875643
 30
0.0
 11
188.3020353514332
 21
1015.705051867414
 31
0.0
  0
LINE
  5
1B1
  8
LAYER_01
 10
188.3020353514332
 20
1015.705051867414
 30
0.0
 11
183.2213467128952
 21
1025.517753961817
 31
0.0
  0
LINE
  5
1B2
  8
LAYER_01
 10
183.2213467128952
 20
1025.517753961817
 30
0.0
 11
177.851709612573
 21
1035.184949206519
 31
0.0
  0
LINE
  5
1B3
  8
LAYER_01
 10
177.851709612573
 20
1035.184949206519
 30
0.0
 11
172.2013411843751
 21
1044.694844406749
 31
0.0
  0
LINE
  5
1B4
  8
LAYER_01
 10
172.2013411843751
 20
1044.694844406749
 30
0.0
 11
166.2791235850377
 21
1054.036131348037
 31
0.0
  0
LINE
  5
1B5
  8
LAYER_01
 10
166.2791235850377
 20
1054.036131348037
 30
0.0
 11
160.0945596725876
 21
1063.198030428286
 31
0.0
  0
LINE
  5
1B6
  8
LAYER_01
 10
160.0945596725876
 20
1063.198030428286
 30
0.0
 11
153.6577252874272
 21
1072.170330357248
 31
0.0
  0
LINE
  5
1B7
  8
LAYER_01
 10
1052.786791381232
 20
1090.87461916103
 30
0.0
 11
1041.890888015503
 21
1092.667464040517
 31
0.0
  0
LINE
  5
1B8
  8
LAYER_01
 10
1041.890888015503
 20
1092.667464040517
 30
0.0
 11
1031.039299966137
 21
1094.772757927533
 31
0.0
  0
LINE
  5
1B9
  8
LAYER_01
 10
1031.039299966137
 20
1094.772757927533
 30
0.0
 11
1020.246372400789
 21
1097.190405044573
 31
0.0
  0
LINE
  5
1BA
  8
LAYER_01
 10
1020.246372400789
 20
1097.190405044573
 30
0.0
 11
1009.526447184552
 21
1099.919502597248
 31
0.0
  0
LINE
  5
1BB
  8
LAYER_01
 10
1009.526447184552
 20
1099.919502597248
 30
0.0
 11
998.8938010658197
 21
1102.958335103683
 31
0.0
  0
LINE
  5
1BC
  8
LAYER_01
 10
998.8938010658197
 20
1102.958335103683
 30
0.0
 11
988.3625834836965
 21
1106.304373906991
 31
0.0
  0
LINE
  5
1BD
  8
LAYER_01
 10
988.3625834836965
 20
1106.304373906991
 30
0.0
 11
977.9467545553437
 21
1109.954281945665
 31
0.0
  0
LINE
  5
1BE
  8
LAYER_01
 10
977.9467545553437
 20
1109.954281945665
 30
0.0
 11
967.6600238071763
 21
1113.903923794263
 31
0.0
  0
LINE
  5
1BF
  8
LAYER_01
 10
967.6600238071763
 20
1113.903923794263
 30
0.0
 11
957.5157902106847
 21
1118.1483809232
 31
0.0
  0
LINE
  5
1C0
  8
LAYER_01
 10
957.5157902106847
 20
1118.1483809232
 30
0.0
 11
947.52708407177
 21
1122.681972063089
 31
0.0
  0
LINE
  5
1C1
  8
LAYER_01
 10
947.52708407177
 20
1122.681972063089
 30
0.0
 11
937.7065113020224
 21
1127.498278497139
 31
0.0
  0
LINE
  5
1C2
  8
LAYER_01
 10
937.7065113020224
 20
1127.498278497139
 30
0.0
 11
928.0662005716841
 21
1132.59017404574
 31
0.0
  0
LINE
  5
1C3
  8
LAYER_01
 10
928.0662005716841
 20
1132.59017404574
 30
0.0
 11
918.6177538076872
 21
1137.949859451808
 31
0.0
  0
LINE
  5
1C4
  8
LAYER_01
 10
918.6177538076872
 20
1137.949859451808
 30
0.0
 11
909.3722004568734
 21
1143.568900824677
 31
0.0
  0
LINE
  5
1C5
  8
LAYER_01
 10
909.3722004568734
 20
1143.568900824677
 30
0.0
 11
900.3399558851775
 21
1149.438271755296
 31
0.0
  0
LINE
  5
1C6
  8
LAYER_01
 10
900.3399558851775
 20
1149.438271755296
 30
0.0
 11
891.5307842291978
 21
1155.548398677032
 31
0.0
  0
ARC
  5
1C7
  8
LAYER_01
 10
869.19653318785
 20
866.4879620470933
 30
0.0
 40
289.9219805297089
 50
85.58182035376727
 51
129.1256555491235
  0
ARC
  5
1C8
  8
LAYER_01
 10
869.8392846207603
 20
1315.785633930033
 30
0.0
 40
289.9219805297554
 50
230.71041340221
 51
309.1256555491198
  0
ARC
  5
1C9
  8
LAYER_01
 10
-1090.71637413689
 20
1399.127689271915
 30
0.0
 40
289.9219805297549
 50
275.87434445088
 51
354.2895865977902
210
0.0
220
0.0
230
-1.0
  0
ARC
  5
1CA
  8
LAYER_01
 10
-772.5604496802796
 20
1081.880752608936
 30
0.0
 40
289.9219805297645
 50
95.87434445088091
 51
139.4181796462283
210
0.0
220
0.0
230
-1.0
  0
LINE
  5
1CB
  8
LAYER_01
 10
992.7497449581412
 20
1270.484647158703
 30
0.0
 11
994.6582577924502
 21
1259.935109963853
 31
0.0
  0
LINE
  5
1CC
  8
LAYER_01
 10
994.6582577924502
 20
1259.935109963853
 30
0.0
 11
996.8947471920916
 21
1249.398076591532
 31
0.0
  0
LINE
  5
1CD
  8
LAYER_01
 10
996.8947471920916
 20
1249.398076591532
 30
0.0
 11
999.4590784037507
 21
1238.887220862827
 31
0.0
  0
LINE
  5
1CE
  8
LAYER_01
 10
999.4590784037507
 20
1238.887220862827
 30
0.0
 11
1002.350269286595
 21
1228.416290188666
 31
0.0
  0
LINE
  5
1CF
  8
LAYER_01
 10
1002.350269286595
 20
1228.416290188666
 30
0.0
 11
1005.566484505253
 21
1217.999047226989
 31
0.0
  0
LINE
  5
1D0
  8
LAYER_01
 10
1005.566484505253
 20
1217.999047226989
 30
0.0
 11
1009.105035166088
 21
1207.649210686575
 31
0.0
  0
LINE
  5
1D1
  8
LAYER_01
 10
1009.105035166088
 20
1207.649210686575
 30
0.0
 11
1012.962383974052
 21
1197.380395802326
 31
0.0
  0
LINE
  5
1D2
  8
LAYER_01
 10
1012.962383974052
 20
1197.380395802326
 30
0.0
 11
1017.134155921745
 21
1187.20605501798
 31
0.0
  0
LINE
  5
1D3
  8
LAYER_01
 10
1017.134155921745
 20
1187.20605501798
 30
0.0
 11
1021.615154455612
 21
1177.139419415309
 31
0.0
  0
LINE
  5
1D4
  8
LAYER_01
 10
1021.615154455612
 20
1177.139419415309
 30
0.0
 11
1026.399382997676
 21
1167.193441423538
 31
0.0
  0
LINE
  5
1D5
  8
LAYER_01
 10
1026.399382997676
 20
1167.193441423538
 30
0.0
 11
1031.480071636214
 21
1157.380739329135
 31
0.0
  0
LINE
  5
1D6
  8
LAYER_01
 10
1031.480071636214
 20
1157.380739329135
 30
0.0
 11
1036.849708736536
 21
1147.713544084432
 31
0.0
  0
LINE
  5
1D7
  8
LAYER_01
 10
1036.849708736536
 20
1147.713544084432
 30
0.0
 11
1042.500077164734
 21
1138.203648884203
 31
0.0
  0
LINE
  5
1D8
  8
LAYER_01
 10
1042.500077164734
 20
1138.203648884203
 30
0.0
 11
1048.422294764071
 21
1128.862361942915
 31
0.0
  0
LINE
  5
1D9
  8
LAYER_01
 10
1048.422294764071
 20
1128.862361942915
 30
0.0
 11
1054.606858676522
 21
1119.700462862665
 31
0.0
  0
LINE
  5
1DA
  8
LAYER_01
 10
1054.606858676522
 20
1119.700462862665
 30
0.0
 11
1061.043693061682
 21
1110.728162933704
 31
0.0
  0
LINE
  5
1DB
  8
LAYER_01
 10
609.7081276069638
 20
1536.879461277033
 30
0.0
 11
607.8716877596128
 21
1525.990820792368
 31
0.0
  0
LINE
  5
1DC
  8
LAYER_01
 10
607.8716877596128
 20
1525.990820792368
 30
0.0
 11
605.7229787731337
 21
1515.147745802529
 31
0.0
  0
LINE
  5
1DD
  8
LAYER_01
 10
605.7229787731337
 20
1515.147745802529
 30
0.0
 11
603.2621538387895
 21
1504.364580976937
 31
0.0
  0
LINE
  5
1DE
  8
LAYER_01
 10
603.2621538387895
 20
1504.364580976937
 30
0.0
 11
600.4901731450461
 21
1493.655664452505
 31
0.0
  0
LINE
  5
1DF
  8
LAYER_01
 10
600.4901731450461
 20
1493.655664452505
 30
0.0
 11
597.4088093007235
 21
1483.035265997303
 31
0.0
  0
LINE
  5
1E0
  8
LAYER_01
 10
597.4088093007235
 20
1483.035265997303
 30
0.0
 11
594.0206475736055
 21
1472.517524816509
 31
0.0
  0
LINE
  5
1E1
  8
LAYER_01
 10
594.0206475736055
 20
1472.517524816509
 30
0.0
 11
590.329080871885
 21
1462.116387559352
 31
0.0
  0
LINE
  5
1E2
  8
LAYER_01
 10
590.329080871885
 20
1462.116387559352
 30
0.0
 11
586.3382994583409
 21
1451.845547090977
 31
0.0
  0
LINE
  5
1E3
  8
LAYER_01
 10
586.3382994583409
 20
1451.845547090977
 30
0.0
 11
582.0532754506717
 21
1441.718382589831
 31
0.0
  0
LINE
  5
1E4
  8
LAYER_01
 10
582.0532754506717
 20
1441.718382589831
 30
0.0
 11
577.4797422247339
 21
1431.747901518964
 31
0.0
  0
LINE
  5
1E5
  8
LAYER_01
 10
577.4797422247339
 20
1431.747901518964
 30
0.0
 11
572.6241688993045
 21
1421.946683998985
 31
0.0
  0
LINE
  5
1E6
  8
LAYER_01
 10
572.6241688993045
 20
1421.946683998985
 30
0.0
 11
567.4937301402211
 21
1412.326830081454
 31
0.0
  0
LINE
  5
1E7
  8
LAYER_01
 10
567.4937301402211
 20
1412.326830081454
 30
0.0
 11
562.0962715771876
 21
1402.899910384944
 31
0.0
  0
LINE
  5
1E8
  8
LAYER_01
 10
562.0962715771876
 20
1402.899910384944
 30
0.0
 11
556.440271177137
 21
1393.676920512491
 31
0.0
  0
LINE
  5
1E9
  8
LAYER_01
 10
556.440271177137
 20
1393.676920512491
 30
0.0
 11
550.5347969628656
 21
1384.668239619668
 31
0.0
  0
LINE
  5
1EA
  8
LAYER_01
 10
550.5347969628656
 20
1384.668239619668
 30
0.0
 11
544.3894615039173
 21
1375.88359344801
 31
0.0
  0
ARC
  5
1EB
  8
LAYER_01
 10
833.3581931989561
 20
1352.392597368034
 30
0.0
 40
289.9219805297085
 50
175.3525014064051
 51
218.8963366017614
  0
ARC
  5
1EC
  8
LAYER_01
 10
384.0666924770084
 20
1354.833594675261
 30
0.0
 40
289.9219805297553
 50
320.4810944548477
 51
38.89633660175771
  0
LINE
  5
1ED
  8
LAYER_01
 10
637.9541711892017
 20
1564.820242268581
 30
0.0
 11
648.8428116738668
 21
1562.98380242123
 31
0.0
  0
LINE
  5
1EE
  8
LAYER_01
 10
648.8428116738668
 20
1562.98380242123
 30
0.0
 11
659.6858866637058
 21
1560.835093434751
 31
0.0
  0
LINE
  5
1EF
  8
LAYER_01
 10
659.6858866637058
 20
1560.835093434751
 30
0.0
 11
670.4690514892981
 21
1558.374268500407
 31
0.0
  0
LINE
  5
1F0
  8
LAYER_01
 10
670.4690514892981
 20
1558.374268500407
 30
0.0
 11
681.1779680137291
 21
1555.602287806663
 31
0.0
  0
LINE
  5
1F1
  8
LAYER_01
 10
681.1779680137291
 20
1555.602287806663
 30
0.0
 11
691.7983664689316
 21
1552.520923962341
 31
0.0
  0
LINE
  5
1F2
  8
LAYER_01
 10
691.7983664689316
 20
1552.520923962341
 30
0.0
 11
702.316107649725
 21
1549.132762235223
 31
0.0
  0
LINE
  5
1F3
  8
LAYER_01
 10
702.316107649725
 20
1549.132762235223
 30
0.0
 11
712.7172449068829
 21
1545.441195533502
 31
0.0
  0
LINE
  5
1F4
  8
LAYER_01
 10
712.7172449068829
 20
1545.441195533502
 30
0.0
 11
722.9880853752574
 21
1541.450414119958
 31
0.0
  0
LINE
  5
1F5
  8
LAYER_01
 10
722.9880853752574
 20
1541.450414119958
 30
0.0
 11
733.1152498764031
 21
1537.165390112289
 31
0.0
  0
LINE
  5
1F6
  8
LAYER_01
 10
733.1152498764031
 20
1537.165390112289
 30
0.0
 11
743.08573094727
 21
1532.591856886351
 31
0.0
  0
LINE
  5
1F7
  8
LAYER_01
 10
743.08573094727
 20
1532.591856886351
 30
0.0
 11
752.8869484672498
 21
1527.736283560922
 31
0.0
  0
LINE
  5
1F8
  8
LAYER_01
 10
752.8869484672498
 20
1527.736283560922
 30
0.0
 11
762.5068023847805
 21
1522.605844801838
 31
0.0
  0
LINE
  5
1F9
  8
LAYER_01
 10
762.5068023847805
 20
1522.605844801838
 30
0.0
 11
771.9337220812905
 21
1517.208386238805
 31
0.0
  0
LINE
  5
1FA
  8
LAYER_01
 10
771.9337220812905
 20
1517.208386238805
 30
0.0
 11
781.1567119537438
 21
1511.552385838754
 31
0.0
  0
LINE
  5
1FB
  8
LAYER_01
 10
781.1567119537438
 20
1511.552385838754
 30
0.0
 11
790.1653928465662
 21
1505.646911624483
 31
0.0
  0
LINE
  5
1FC
  8
LAYER_01
 10
790.1653928465662
 20
1505.646911624483
 30
0.0
 11
798.9500390182246
 21
1499.501576165535
 31
0.0
  0
ARC
  5
1FD
  8
LAYER_01
 10
822.4410350981901
 20
1788.470307860607
 30
0.0
 40
289.9219805297413
 50
265.3525014064076
 51
308.8963366017587
  0
ARC
  5
1FE
  8
LAYER_01
 10
820.000037790973
 20
1339.178807138624
 30
0.0
 40
289.921980529756
 50
50.48109445484787
 51
128.8963366017576
  0
LINE
  5
1FF
  8
LAYER_01
 10
581.7673466154159
 20
1565.125504859271
 30
0.0
 11
570.878706130751
 21
1566.961944706622
 31
0.0
  0
LINE
  5
200
  8
LAYER_01
 10
570.878706130751
 20
1566.961944706622
 30
0.0
 11
560.0356311409118
 21
1569.110653693101
 31
0.0
  0
LINE
  5
201
  8
LAYER_01
 10
560.0356311409118
 20
1569.110653693101
 30
0.0
 11
549.2524663153197
 21
1571.571478627445
 31
0.0
  0
LINE
  5
202
  8
LAYER_01
 10
549.2524663153197
 20
1571.571478627445
 30
0.0
 11
538.5435497908884
 21
1574.343459321188
 31
0.0
  0
LINE
  5
203
  8
LAYER_01
 10
538.5435497908884
 20
1574.343459321188
 30
0.0
 11
527.9231513356858
 21
1577.424823165511
 31
0.0
  0
LINE
  5
204
  8
LAYER_01
 10
527.9231513356858
 20
1577.424823165511
 30
0.0
 11
517.4054101548924
 21
1580.812984892629
 31
0.0
  0
LINE
  5
205
  8
LAYER_01
 10
517.4054101548924
 20
1580.812984892629
 30
0.0
 11
507.0042728977345
 21
1584.50455159435
 31
0.0
  0
LINE
  5
206
  8
LAYER_01
 10
507.0042728977345
 20
1584.50455159435
 30
0.0
 11
496.7334324293602
 21
1588.495333007893
 31
0.0
  0
LINE
  5
207
  8
LAYER_01
 10
496.7334324293602
 20
1588.495333007893
 30
0.0
 11
486.6062679282144
 21
1592.780357015562
 31
0.0
  0
LINE
  5
208
  8
LAYER_01
 10
486.6062679282144
 20
1592.780357015562
 30
0.0
 11
476.6357868573475
 21
1597.3538902415
 31
0.0
  0
LINE
  5
209
  8
LAYER_01
 10
476.6357868573475
 20
1597.3538902415
 30
0.0
 11
466.8345693373678
 21
1602.20946356693
 31
0.0
  0
LINE
  5
20A
  8
LAYER_01
 10
466.8345693373678
 20
1602.20946356693
 30
0.0
 11
457.2147154198369
 21
1607.339902326013
 31
0.0
  0
LINE
  5
20B
  8
LAYER_01
 10
457.2147154198369
 20
1607.339902326013
 30
0.0
 11
447.787795723327
 21
1612.737360889047
 31
0.0
  0
LINE
  5
20C
  8
LAYER_01
 10
447.787795723327
 20
1612.737360889047
 30
0.0
 11
438.5648058508738
 21
1618.393361289097
 31
0.0
  0
LINE
  5
20D
  8
LAYER_01
 10
438.5648058508738
 20
1618.393361289097
 30
0.0
 11
429.5561249580514
 21
1624.298835503369
 31
0.0
  0
LINE
  5
20E
  8
LAYER_01
 10
429.5561249580514
 20
1624.298835503369
 30
0.0
 11
420.771478786393
 21
1630.444170962317
 31
0.0
  0
ARC
  5
20F
  8
LAYER_01
 10
397.2804827064159
 20
1341.475439267283
 30
0.0
 40
289.9219805297041
 50
85.35250140640471
 51
128.8963366017617
  0
ARC
  5
210
  8
LAYER_01
 10
399.7214800136445
 20
1790.766939989227
 30
0.0
 40
289.9219805297558
 50
230.4810944548478
 51
308.8963366017576
  0
ARC
  5
211
  8
LAYER_01
 10
-301.6093342854683
 20
1576.042479989115
 30
0.0
 40
289.9219805297545
 50
186.1036633982422
 51
264.5189055451524
210
0.0
220
0.0
230
-1.0
  0
ARC
  5
212
  8
LAYER_01
 10
-617.5803554266902
 20
1256.61936735032
 30
0.0
 40
289.9219805297625
 50
6.103663398242885
 51
49.64749859359063
210
0.0
220
0.0
230
-1.0
  0
LINE
  5
213
  8
LAYER_01
 10
429.8592483191782
 20
1477.561759707763
 30
0.0
 11
440.4163395731707
 21
1479.428034210378
 31
0.0
  0
LINE
  5
214
  8
LAYER_01
 10
440.4163395731707
 20
1479.428034210378
 30
0.0
 11
450.9622397850648
 21
1481.622332696204
 31
0.0
  0
LINE
  5
215
  8
LAYER_01
 10
450.9622397850648
 20
1481.622332696204
 30
0.0
 11
461.4832747039611
 21
1484.144575140562
 31
0.0
  0
LINE
  5
216
  8
LAYER_01
 10
461.4832747039611
 20
1484.144575140562
 30
0.0
 11
471.9656930981589
 21
1486.99383443257
 31
0.0
  0
LINE
  5
217
  8
LAYER_01
 10
471.9656930981589
 20
1486.99383443257
 30
0.0
 11
482.3957250742793
 21
1490.16833033467
 31
0.0
  0
LINE
  5
218
  8
LAYER_01
 10
482.3957250742793
 20
1490.16833033467
 30
0.0
 11
492.7596412715008
 21
1493.665428881972
 31
0.0
  0
LINE
  5
219
  8
LAYER_01
 10
492.7596412715008
 20
1493.665428881972
 30
0.0
 11
503.0438124064456
 21
1497.481647300832
 31
0.0
  0
LINE
  5
21A
  8
LAYER_01
 10
503.0438124064456
 20
1497.481647300832
 30
0.0
 11
513.2347686327676
 21
1501.612664460413
 31
0.0
  0
LINE
  5
21B
  8
LAYER_01
 10
513.2347686327676
 20
1501.612664460413
 30
0.0
 11
523.3192581761907
 21
1506.053336804336
 31
0.0
  0
LINE
  5
21C
  8
LAYER_01
 10
523.3192581761907
 20
1506.053336804336
 30
0.0
 11
533.2843047107679
 21
1510.797719642935
 31
0.0
  0
LINE
  5
21D
  8
LAYER_01
 10
533.2843047107679
 20
1510.797719642935
 30
0.0
 11
543.117262955474
 21
1515.839093621638
 31
0.0
  0
LINE
  5
21E
  8
LAYER_01
 10
543.117262955474
 20
1515.839093621638
 30
0.0
 11
552.8058719916743
 21
1521.169996118591
 31
0.0
  0
LINE
  5
21F
  8
LAYER_01
 10
552.8058719916743
 20
1521.169996118591
 30
0.0
 11
562.3383058311243
 21
1526.782257266313
 31
0.0
  0
LINE
  5
220
  8
LAYER_01
 10
562.3383058311243
 20
1526.782257266313
 30
0.0
 11
571.7032208003404
 21
1532.667040238754
 31
0.0
  0
LINE
  5
221
  8
LAYER_01
 10
571.7032208003404
 20
1532.667040238754
 30
0.0
 11
580.8897993497056
 21
1538.814885397848
 31
0.0
  0
LINE
  5
222
  8
LAYER_01
 10
580.8897993497056
 20
1538.814885397848
 30
0.0
 11
589.8877899436177
 21
1545.215757853154
 31
0.0
  0
LINE
  5
223
  8
LAYER_01
 10
607.4133087875057
 20
646.0127981933216
 30
0.0
 11
609.1905645040998
 21
656.9112551958084
 31
0.0
  0
LINE
  5
224
  8
LAYER_01
 10
609.1905645040998
 20
656.9112551958084
 30
0.0
 11
611.2803323045698
 21
667.7658439067626
 31
0.0
  0
LINE
  5
225
  8
LAYER_01
 10
611.2803323045698
 20
667.7658439067626
 30
0.0
 11
613.6825369332436
 21
678.5622190361917
 31
0.0
  0
LINE
  5
226
  8
LAYER_01
 10
613.6825369332436
 20
678.5622190361917
 30
0.0
 11
616.3962961136646
 21
689.2860374421701
 31
0.0
  0
LINE
  5
227
  8
LAYER_01
 10
616.3962961136646
 20
689.2860374421701
 30
0.0
 11
619.4199147895715
 21
699.9230199368006
 31
0.0
  0
LINE
  5
228
  8
LAYER_01
 10
619.4199147895715
 20
699.9230199368006
 30
0.0
 11
622.7508845483952
 21
710.4590134780416
 31
0.0
  0
LINE
  5
229
  8
LAYER_01
 10
622.7508845483952
 20
710.4590134780416
 30
0.0
 11
626.3858883029375
 21
720.8800531891235
 31
0.0
  0
LINE
  5
22A
  8
LAYER_01
 10
626.3858883029375
 20
720.8800531891235
 30
0.0
 11
630.3208102443953
 21
731.172423641654
 31
0.0
  0
LINE
  5
22B
  8
LAYER_01
 10
630.3208102443953
 20
731.172423641654
 30
0.0
 11
634.5507510163525
 21
741.3227188415632
 31
0.0
  0
LINE
  5
22C
  8
LAYER_01
 10
634.5507510163525
 20
741.3227188415632
 30
0.0
 11
639.0700479959728
 21
751.3179003688427
 31
0.0
  0
LINE
  5
22D
  8
LAYER_01
 10
639.0700479959728
 20
751.3179003688427
 30
0.0
 11
643.8723005066436
 21
761.1453531423916
 31
0.0
  0
LINE
  5
22E
  8
LAYER_01
 10
643.8723005066436
 20
761.1453531423916
 30
0.0
 11
648.9503997269319
 21
770.7929383098956
 31
0.0
  0
LINE
  5
22F
  8
LAYER_01
 10
648.9503997269319
 20
770.7929383098956
 30
0.0
 11
654.2965630050777
 21
780.249042798929
 31
0.0
  0
LINE
  5
230
  8
LAYER_01
 10
654.2965630050777
 20
780.249042798929
 30
0.0
 11
659.9023722374149
 21
789.5026251086832
 31
0.0
  0
LINE
  5
231
  8
LAYER_01
 10
659.9023722374149
 20
789.5026251086832
 30
0.0
 11
665.7588159240172
 21
798.5432569709915
 31
0.0
  0
LINE
  5
232
  8
LAYER_01
 10
665.7588159240172
 20
798.5432569709915
 30
0.0
 11
671.8563344763068
 21
807.3611605636106
 31
0.0
  0
ARC
  5
233
  8
LAYER_01
 10
382.7642429710687
 20
829.2818682026444
 30
0.0
 40
289.9219805297089
 50
355.6637858781024
 51
39.20762107345863
  0
ARC
  5
234
  8
LAYER_01
 10
832.0623746039896
 20
829.2818682026295
 30
0.0
 40
289.9219805297548
 50
140.792378926545
 51
219.2076210734551
  0
LINE
  5
235
  8
LAYER_01
 10
579.3194818813389
 20
617.9189712871548
 30
0.0
 11
568.4210248788519
 21
619.696227003749
 31
0.0
  0
LINE
  5
236
  8
LAYER_01
 10
568.4210248788519
 20
619.696227003749
 30
0.0
 11
557.5664361678979
 21
621.7859948042188
 31
0.0
  0
LINE
  5
237
  8
LAYER_01
 10
557.5664361678979
 20
621.7859948042188
 30
0.0
 11
546.7700610384687
 21
624.1881994328927
 31
0.0
  0
LINE
  5
238
  8
LAYER_01
 10
546.7700610384687
 20
624.1881994328927
 30
0.0
 11
536.0462426324902
 21
626.9019586133137
 31
0.0
  0
LINE
  5
239
  8
LAYER_01
 10
536.0462426324902
 20
626.9019586133137
 30
0.0
 11
525.40926013786
 21
629.9255772892204
 31
0.0
  0
LINE
  5
23A
  8
LAYER_01
 10
525.40926013786
 20
629.9255772892204
 30
0.0
 11
514.8732665966189
 21
633.2565470480441
 31
0.0
  0
LINE
  5
23B
  8
LAYER_01
 10
514.8732665966189
 20
633.2565470480441
 30
0.0
 11
504.4522268855369
 21
636.8915508025865
 31
0.0
  0
LINE
  5
23C
  8
LAYER_01
 10
504.4522268855369
 20
636.8915508025865
 30
0.0
 11
494.1598564330066
 21
640.8264727440442
 31
0.0
  0
LINE
  5
23D
  8
LAYER_01
 10
494.1598564330066
 20
640.8264727440442
 30
0.0
 11
484.0095612330972
 21
645.0564135160013
 31
0.0
  0
LINE
  5
23E
  8
LAYER_01
 10
484.0095612330972
 20
645.0564135160013
 30
0.0
 11
474.0143797058177
 21
649.5757104956216
 31
0.0
  0
LINE
  5
23F
  8
LAYER_01
 10
474.0143797058177
 20
649.5757104956216
 30
0.0
 11
464.186926932269
 21
654.3779630062926
 31
0.0
  0
LINE
  5
240
  8
LAYER_01
 10
464.186926932269
 20
654.3779630062926
 30
0.0
 11
454.5393417647649
 21
659.4560622265808
 31
0.0
  0
LINE
  5
241
  8
LAYER_01
 10
454.5393417647649
 20
659.4560622265808
 30
0.0
 11
445.0832372757315
 21
664.8022255047266
 31
0.0
  0
LINE
  5
242
  8
LAYER_01
 10
445.0832372757315
 20
664.8022255047266
 30
0.0
 11
435.8296549659774
 21
670.4080347370636
 31
0.0
  0
LINE
  5
243
  8
LAYER_01
 10
435.8296549659774
 20
670.4080347370636
 30
0.0
 11
426.7890231036693
 21
676.264478423666
 31
0.0
  0
LINE
  5
244
  8
LAYER_01
 10
426.7890231036693
 20
676.264478423666
 30
0.0
 11
417.9711195110501
 21
682.3619969759555
 31
0.0
  0
ARC
  5
245
  8
LAYER_01
 10
396.0504118720257
 20
393.2699054706854
 30
0.0
 40
289.9219805297403
 50
85.66378587810479
 51
129.2076210734561
  0
ARC
  5
246
  8
LAYER_01
 10
396.050411872031
 20
842.5680371036391
 30
0.0
 40
289.921980529755
 50
230.792378926545
 51
309.207621073455
  0
LINE
  5
247
  8
LAYER_01
 10
627.2786443023374
 20
598.0536357723233
 30
0.0
 11
633.7283075841599
 21
589.0905533522886
 31
0.0
  0
LINE
  5
248
  8
LAYER_01
 10
633.7283075841599
 20
589.0905533522886
 30
0.0
 11
639.925971885849
 21
579.9375110849645
 31
0.0
  0
LINE
  5
249
  8
LAYER_01
 10
639.925971885849
 20
579.9375110849645
 30
0.0
 11
645.8615467693694
 21
570.6047058359786
 31
0.0
  0
LINE
  5
24A
  8
LAYER_01
 10
645.8615467693694
 20
570.6047058359786
 30
0.0
 11
651.525513965467
 21
561.1029036019153
 31
0.0
  0
LINE
  5
24B
  8
LAYER_01
 10
651.525513965467
 20
561.1029036019153
 30
0.0
 11
656.9089751493269
 21
551.4433998791436
 31
0.0
  0
LINE
  5
24C
  8
LAYER_01
 10
656.9089751493269
 20
551.4433998791436
 30
0.0
 11
662.0036963244845
 21
541.6379760952029
 31
0.0
  0
LINE
  5
24D
  8
LAYER_01
 10
662.0036963244845
 20
541.6379760952029
 30
0.0
 11
666.8021483667297
 21
531.698852444007
 31
0.0
  0
LINE
  5
24E
  8
LAYER_01
 10
666.8021483667297
 20
531.698852444007
 30
0.0
 11
671.2975433199535
 21
521.6386375142941
 31
0.0
  0
LINE
  5
24F
  8
LAYER_01
 10
671.2975433199535
 20
521.6386375142941
 30
0.0
 11
675.4838660829863
 21
511.4702751435246
 31
0.0
  0
LINE
  5
250
  8
LAYER_01
 10
675.4838660829863
 20
511.4702751435246
 30
0.0
 11
679.3559011796307
 21
501.2069889659093
 31
0.0
  0
LINE
  5
251
  8
LAYER_01
 10
679.3559011796307
 20
501.2069889659093
 30
0.0
 11
682.909254362332
 21
490.8622251526768
 31
0.0
  0
LINE
  5
252
  8
LAYER_01
 10
682.909254362332
 20
490.8622251526768
 30
0.0
 11
686.1403688621448
 21
480.4495938644559
 31
0.0
  0
LINE
  5
253
  8
LAYER_01
 10
686.1403688621448
 20
480.4495938644559
 30
0.0
 11
689.0465361626414
 21
469.9828099493444
 31
0.0
  0
LINE
  5
254
  8
LAYER_01
 10
689.0465361626414
 20
469.9828099493444
 30
0.0
 11
691.6259012419125
 21
459.4756334256255
 31
0.0
  0
LINE
  5
255
  8
LAYER_01
 10
691.6259012419125
 20
459.4756334256255
 30
0.0
 11
693.8774622935279
 21
448.9418102851425
 31
0.0
  0
LINE
  5
256
  8
LAYER_01
 10
693.8774622935279
 20
448.9418102851425
 30
0.0
 11
695.801065002983
 21
438.3950141422175
 31
0.0
  0
ARC
  5
257
  8
LAYER_01
 10
915.7203243137318
 20
627.3137114130511
 30
0.0
 40
289.9219805297578
 50
220.6637858781062
 51
264.2076210734547
  0
ARC
  5
258
  8
LAYER_01
 10
598.0185686616107
 20
309.6119557609293
 30
0.0
 40
289.9219805297565
 50
5.792378926545185
 51
84.20762107345479
  0
LINE
  5
259
  8
LAYER_01
 10
635.5071356936725
 20
617.9189712871548
 30
0.0
 11
646.4055926961595
 21
616.1417155705606
 31
0.0
  0
LINE
  5
25A
  8
LAYER_01
 10
646.4055926961595
 20
616.1417155705606
 30
0.0
 11
657.2601814071135
 21
614.0519477700907
 31
0.0
  0
LINE
  5
25B
  8
LAYER_01
 10
657.2601814071135
 20
614.0519477700907
 30
0.0
 11
668.0565565365428
 21
611.649743141417
 31
0.0
  0
LINE
  5
25C
  8
LAYER_01
 10
668.0565565365428
 20
611.649743141417
 30
0.0
 11
678.7803749425211
 21
608.9359839609958
 31
0.0
  0
LINE
  5
25D
  8
LAYER_01
 10
678.7803749425211
 20
608.9359839609958
 30
0.0
 11
689.4173574371515
 21
605.9123652850891
 31
0.0
  0
LINE
  5
25E
  8
LAYER_01
 10
689.4173574371515
 20
605.9123652850891
 30
0.0
 11
699.9533509783925
 21
602.5813955262655
 31
0.0
  0
LINE
  5
25F
  8
LAYER_01
 10
699.9533509783925
 20
602.5813955262655
 30
0.0
 11
710.3743906894745
 21
598.9463917717231
 31
0.0
  0
LINE
  5
260
  8
LAYER_01
 10
710.3743906894745
 20
598.9463917717231
 30
0.0
 11
720.6667611420049
 21
595.0114698302654
 31
0.0
  0
LINE
  5
261
  8
LAYER_01
 10
720.6667611420049
 20
595.0114698302654
 30
0.0
 11
730.8170563419142
 21
590.7815290583083
 31
0.0
  0
LINE
  5
262
  8
LAYER_01
 10
730.8170563419142
 20
590.7815290583083
 30
0.0
 11
740.8122378691936
 21
586.2622320786879
 31
0.0
  0
LINE
  5
263
  8
LAYER_01
 10
740.8122378691936
 20
586.2622320786879
 30
0.0
 11
750.6396906427425
 21
581.459979568017
 31
0.0
  0
LINE
  5
264
  8
LAYER_01
 10
750.6396906427425
 20
581.459979568017
 30
0.0
 11
760.2872758102465
 21
576.3818803477286
 31
0.0
  0
LINE
  5
265
  8
LAYER_01
 10
760.2872758102465
 20
576.3818803477286
 30
0.0
 11
769.7433802992799
 21
571.0357170695829
 31
0.0
  0
LINE
  5
266
  8
LAYER_01
 10
769.7433802992799
 20
571.0357170695829
 30
0.0
 11
778.996962609034
 21
565.429907837246
 31
0.0
  0
LINE
  5
267
  8
LAYER_01
 10
778.996962609034
 20
565.429907837246
 30
0.0
 11
788.0375944713421
 21
559.5734641506435
 31
0.0
  0
LINE
  5
268
  8
LAYER_01
 10
788.0375944713421
 20
559.5734641506435
 30
0.0
 11
796.8554980639612
 21
553.475945598354
 31
0.0
  0
ARC
  5
269
  8
LAYER_01
 10
818.7762057029962
 20
842.5680371035899
 30
0.0
 40
289.9219805297068
 50
265.6637858781022
 51
309.2076210734587
  0
ARC
  5
26A
  8
LAYER_01
 10
818.7762057029803
 20
393.2699054706702
 30
0.0
 40
289.9219805297553
 50
50.79237892654502
 51
129.207621073455
  0
ARC
  5
26B
  8
LAYER_01
 10
-915.7203243137302
 20
608.5242311612611
 30
0.0
 40
289.9219805297552
 50
5.792378926545018
 51
84.20762107345502
210
0.0
220
0.0
230
-1.0
  0
ARC
  5
26C
  8
LAYER_01
 10
-598.0185686616045
 20
926.2259868133833
 30
0.0
 40
289.9219805297629
 50
185.7923789265456
 51
229.3362141218933
210
0.0
220
0.0
230
-1.0
  0
LINE
  5
26D
  8
LAYER_01
 10
786.9372659324432
 20
706.3067275026322
 30
0.0
 11
776.3904697895181
 21
704.383124793177
 31
0.0
  0
LINE
  5
26E
  8
LAYER_01
 10
776.3904697895181
 20
704.383124793177
 30
0.0
 11
765.856646649035
 21
702.1315637415616
 31
0.0
  0
LINE
  5
26F
  8
LAYER_01
 10
765.856646649035
 20
702.1315637415616
 30
0.0
 11
755.3494701253165
 21
699.5521986622906
 31
0.0
  0
LINE
  5
270
  8
LAYER_01
 10
755.3494701253165
 20
699.5521986622906
 30
0.0
 11
744.8826862102048
 21
696.646031361794
 31
0.0
  0
LINE
  5
271
  8
LAYER_01
 10
744.8826862102048
 20
696.646031361794
 30
0.0
 11
734.4700549219841
 21
693.4149168619814
 31
0.0
  0
LINE
  5
272
  8
LAYER_01
 10
734.4700549219841
 20
693.4149168619814
 30
0.0
 11
724.1252911087515
 21
689.8615636792798
 31
0.0
  0
LINE
  5
273
  8
LAYER_01
 10
724.1252911087515
 20
689.8615636792798
 30
0.0
 11
713.8620049311362
 21
685.9895285826354
 31
0.0
  0
LINE
  5
274
  8
LAYER_01
 10
713.8620049311362
 20
685.9895285826354
 30
0.0
 11
703.6936425603666
 21
681.8032058196027
 31
0.0
  0
LINE
  5
275
  8
LAYER_01
 10
703.6936425603666
 20
681.8032058196027
 30
0.0
 11
693.6334276306536
 21
677.307810866379
 31
0.0
  0
LINE
  5
276
  8
LAYER_01
 10
693.6334276306536
 20
677.307810866379
 30
0.0
 11
683.6943039794579
 21
672.5093588241339
 31
0.0
  0
LINE
  5
277
  8
LAYER_01
 10
683.6943039794579
 20
672.5093588241339
 30
0.0
 11
673.8888801955173
 21
667.4146376489763
 31
0.0
  0
LINE
  5
278
  8
LAYER_01
 10
673.8888801955173
 20
667.4146376489763
 30
0.0
 11
664.2293764727455
 21
662.0311764651163
 31
0.0
  0
LINE
  5
279
  8
LAYER_01
 10
664.2293764727455
 20
662.0311764651163
 30
0.0
 11
654.7275742386821
 21
656.3672092690189
 31
0.0
  0
LINE
  5
27A
  8
LAYER_01
 10
654.7275742386821
 20
656.3672092690189
 30
0.0
 11
645.394768989696
 21
650.4316343854982
 31
0.0
  0
LINE
  5
27B
  8
LAYER_01
 10
645.394768989696
 20
650.4316343854982
 30
0.0
 11
636.2417267223719
 21
644.233970083809
 31
0.0
  0
LINE
  5
27C
  8
LAYER_01
 10
636.2417267223719
 20
644.233970083809
 30
0.0
 11
627.2786443023373
 21
637.7843068019866
 31
0.0
  0
ARC
  5
27D
  8
LAYER_01
 10
-367.1632248714711
 20
893.5450612141639
 30
0.0
 40
369.0443640757369
 50
233.7190263776548
 51
260.5289253543561
210
0.0
220
0.0
230
-1.0
  0
ARC
  5
27E
  8
LAYER_01
 10
616.8080489133995
 20
309.6119557609302
 30
0.0
 40
289.9219805297553
 50
130.6637858781061
 51
174.207621073455
  0
ARC
  5
27F
  8
LAYER_01
 10
299.1062932612809
 20
627.3137114130491
 30
0.0
 40
289.9219805297556
 50
275.792378926545
 51
319.3362141218939
  0
ARC
  5
280
  8
LAYER_01
 10
-883.0393987145147
 20
377.6688873711203
 30
0.0
 40
369.0443640757369
 50
9.47107464564394
 51
36.2809736223452
210
0.0
220
0.0
230
-1.0
  0
ARC
  5
281
  8
LAYER_01
 10
382.7642429710208
 20
406.5560743716802
 30
0.0
 40
289.9219805297556
 50
320.792378926545
 51
39.20762107345493
  0
ARC
  5
282
  8
LAYER_01
 10
832.0623746039905
 20
406.5560743716802
 30
0.0
 40
289.9219805297556
 50
140.7923789265451
 51
219.207621073455
  0
ENDSEC
  0
EOF
