  0
SECTION
  2
HEADER
  9
$ACADVER
  1
AC1009
  9
$DWGCODEPAGE
  3
ansi_1252
  9
$INSBASE
 10
0.0
 20
0.0
 30
0.0
  9
$EXTMIN
 10
1.000000000000000E+20
 20
1.000000000000000E+20
 30
1.000000000000000E+20
  9
$EXTMAX
 10
-1.000000000000000E+20
 20
-1.000000000000000E+20
 30
-1.000000000000000E+20
  9
$LIMMIN
 10
0.0
 20
0.0
  9
$LIMMAX
 10
12.0
 20
9.0
  9
$ORTHOMODE
 70
     0
  9
$REGENMODE
 70
     1
  9
$FILLMODE
 70
     1
  9
$QTEXTMODE
 70
     0
  9
$MIRRTEXT
 70
     1
  9
$DRAGMODE
 70
     2
  9
$LTSCALE
 40
1.0
  9
$OSMODE
 70
    37
  9
$ATTMODE
 70
     1
  9
$TEXTSIZE
 40
0.2
  9
$TRACEWID
 40
0.05
  9
$TEXTSTYLE
  7
STANDARD
  9
$CLAYER
  8
LAYER_01
  9
$CELTYPE
  6
BYLAYER
  9
$CECOLOR
 62
   256
  9
$DIMSCALE
 40
1.0
  9
$DIMASZ
 40
0.18
  9
$DIMEXO
 40
0.0625
  9
$DIMDLI
 40
0.38
  9
$DIMRND
 40
0.0
  9
$DIMDLE
 40
0.0
  9
$DIMEXE
 40
0.18
  9
$DIMTP
 40
0.0
  9
$DIMTM
 40
0.0
  9
$DIMTXT
 40
0.18
  9
$DIMCEN
 40
0.09
  9
$DIMTSZ
 40
0.0
  9
$DIMTOL
 70
     0
  9
$DIMLIM
 70
     0
  9
$DIMTIH
 70
     1
  9
$DIMTOH
 70
     1
  9
$DIMSE1
 70
     0
  9
$DIMSE2
 70
     0
  9
$DIMTAD
 70
     0
  9
$DIMZIN
 70
     0
  9
$DIMBLK
  1

  9
$DIMASO
 70
     1
  9
$DIMSHO
 70
     1
  9
$DIMPOST
  1

  9
$DIMAPOST
  1

  9
$DIMALT
 70
     0
  9
$DIMALTD
 70
     2
  9
$DIMALTF
 40
25.4
  9
$DIMLFAC
 40
1.0
  9
$DIMTOFL
 70
     0
  9
$DIMTVP
 40
0.0
  9
$DIMTIX
 70
     0
  9
$DIMSOXD
 70
     0
  9
$DIMSAH
 70
     0
  9
$DIMBLK1
  1

  9
$DIMBLK2
  1

  9
$DIMSTYLE
  2
STANDARD_ACAD
  9
$DIMCLRD
 70
     0
  9
$DIMCLRE
 70
     0
  9
$DIMCLRT
 70
     0
  9
$DIMTFAC
 40
1.0
  9
$DIMGAP
 40
0.09
  9
$LUNITS
 70
     2
  9
$LUPREC
 70
     3
  9
$SKETCHINC
 40
0.1
  9
$FILLETRAD
 40
0.5
  9
$AUNITS
 70
     0
  9
$AUPREC
 70
     0
  9
$MENU
  1
.
  9
$ELEVATION
 40
0.0
  9
$PELEVATION
 40
0.0
  9
$THICKNESS
 40
0.0
  9
$LIMCHECK
 70
     0
  9
$CHAMFERA
 40
0.0
  9
$CHAMFERB
 40
0.0
  9
$SKPOLY
 70
     0
  9
$TDCREATE
 40
2459690.905817963
  9
$TDUPDATE
 40
2459690.905818044
  9
$TDINDWG
 40
0.0000000116
  9
$TDUSRTIMER
 40
0.0000000116
  9
$USRTIMER
 70
     1
  9
$ANGBASE
 50
0.0
  9
$ANGDIR
 70
     0
  9
$PDMODE
 70
     0
  9
$PDSIZE
 40
0.0
  9
$PLINEWID
 40
0.0
  9
$COORDS
 70
     1
  9
$SPLFRAME
 70
     0
  9
$SPLINETYPE
 70
     6
  9
$SPLINESEGS
 70
     8
  9
$ATTDIA
 70
     0
  9
$ATTREQ
 70
     1
  9
$HANDLING
 70
     1
  9
$HANDSEED
  5
22F
  9
$SURFTAB1
 70
     6
  9
$SURFTAB2
 70
     6
  9
$SURFTYPE
 70
     6
  9
$SURFU
 70
     6
  9
$SURFV
 70
     6
  9
$UCSNAME
  2

  9
$UCSORG
 10
0.0
 20
0.0
 30
0.0
  9
$UCSXDIR
 10
1.0
 20
0.0
 30
0.0
  9
$UCSYDIR
 10
0.0
 20
1.0
 30
0.0
  9
$PUCSNAME
  2

  9
$PUCSORG
 10
0.0
 20
0.0
 30
0.0
  9
$PUCSXDIR
 10
1.0
 20
0.0
 30
0.0
  9
$PUCSYDIR
 10
0.0
 20
1.0
 30
0.0
  9
$USERI1
 70
     0
  9
$USERI2
 70
     0
  9
$USERI3
 70
     0
  9
$USERI4
 70
     0
  9
$USERI5
 70
     0
  9
$USERR1
 40
0.0
  9
$USERR2
 40
0.0
  9
$USERR3
 40
0.0
  9
$USERR4
 40
0.0
  9
$USERR5
 40
0.0
  9
$WORLDVIEW
 70
     1
  9
$SHADEDGE
 70
     3
  9
$SHADEDIF
 70
    70
  9
$TILEMODE
 70
     1
  9
$MAXACTVP
 70
    64
  9
$PLIMCHECK
 70
     0
  9
$PEXTMIN
 10
1.000000000000000E+20
 20
1.000000000000000E+20
 30
1.000000000000000E+20
  9
$PEXTMAX
 10
-1.000000000000000E+20
 20
-1.000000000000000E+20
 30
-1.000000000000000E+20
  9
$PLIMMIN
 10
0.0
 20
0.0
  9
$PLIMMAX
 10
12.0
 20
9.0
  9
$UNITMODE
 70
     0
  9
$VISRETAIN
 70
     1
  9
$PLINEGEN
 70
     0
  9
$PSLTSCALE
 70
     1
  0
ENDSEC
  0
SECTION
  2
TABLES
  0
TABLE
  2
VPORT
 70
     1
  0
VPORT
  2
*ACTIVE
 70
     0
 10
0.0
 20
0.0
 11
1.0
 21
1.0
 12
10.42990654205607
 22
4.5
 13
0.0
 23
0.0
 14
0.5
 24
0.5
 15
0.5
 25
0.5
 16
0.0
 26
0.0
 36
1.0
 17
0.0
 27
0.0
 37
0.0
 40
9.0
 41
1.972972972850329
 42
50.0
 43
0.0
 44
0.0
 50
0.0
 51
0.0
 71
     0
 72
   100
 73
     1
 74
     3
 75
     0
 76
     0
 77
     0
 78
     0
  0
ENDTAB
  0
TABLE
  2
LTYPE
 70
     1
  0
LTYPE
  2
CONTINUOUS
 70
     0
  3
Solid line
 72
    65
 73
     0
 40
0.0
  0
ENDTAB
  0
TABLE
  2
LAYER
 70
     2
  0
LAYER
  2
0
 70
     0
 62
     7
  6
CONTINUOUS
  0
LAYER
  2
LAYER_01
 70
     0
 62
     7
  6
CONTINUOUS
  0
ENDTAB
  0
TABLE
  2
STYLE
 70
     1
  0
STYLE
  2
STANDARD
 70
     0
 40
0.0
 41
1.0
 50
0.0
 71
     0
 42
0.2
  3
txt
  4

  0
ENDTAB
  0
TABLE
  2
VIEW
 70
     0
  0
ENDTAB
  0
TABLE
  2
UCS
 70
     0
  0
ENDTAB
  0
TABLE
  2
APPID
 70
     2
  0
APPID
  2
ACAD
 70
     0
  0
APPID
  2
RHINO
 70
     0
  0
ENDTAB
  0
TABLE
  2
DIMSTYLE
 70
     1
  0
DIMSTYLE
  2
STANDARD_ACAD
 70
     0
  3

  4

  5

  6

  7

 40
1.0
 41
0.18
 42
0.0625
 43
0.38
 44
0.18
 45
0.0
 46
0.0
 47
0.0
 48
0.0
140
0.18
141
0.09
142
0.0
143
25.4
144
1.0
145
0.0
146
1.0
147
0.09
 71
     0
 72
     0
 73
     1
 74
     1
 75
     0
 76
     0
 77
     0
 78
     0
170
     0
171
     2
172
     0
173
     0
174
     0
175
     0
176
     0
177
     0
178
     0
  0
ENDTAB
  0
ENDSEC
  0
SECTION
  2
BLOCKS
  0
BLOCK
  8
0
  2
$MODEL_SPACE
 70
     0
 10
0.0
 20
0.0
 30
0.0
  3
$MODEL_SPACE
  1

  0
ENDBLK
  5
21
  8
0
  0
BLOCK
 67
     1
  8
0
  2
$PAPER_SPACE
 70
     0
 10
0.0
 20
0.0
 30
0.0
  3
$PAPER_SPACE
  1

  0
ENDBLK
  5
1D
 67
     1
  8
0
  0
ENDSEC
  0
SECTION
  2
ENTITIES
  0
POLYLINE
  5
70
  8
LAYER_01
 66
     1
 10
0.0
 20
0.0
 30
0.0
 70
     1
  0
VERTEX
  5
71
  8
LAYER_01
 10
231.3163616513078
 20
167.7438405441411
 30
0.0
  0
VERTEX
  5
72
  8
LAYER_01
 10
341.2930491751256
 20
167.7438405441411
 30
0.0
  0
VERTEX
  5
73
  8
LAYER_01
 10
341.2930491751256
 20
334.4290990037769
 30
0.0
  0
VERTEX
  5
74
  8
LAYER_01
 10
231.3163616513078
 20
334.4290990037769
 30
0.0
  0
SEQEND
  5
75
  8
LAYER_01
  0
POLYLINE
  5
76
  8
LAYER_01
 66
     1
 10
0.0
 20
0.0
 30
0.0
 70
     1
  0
VERTEX
  5
77
  8
LAYER_01
 10
236.3891108728531
 20
172.8165897656864
 30
0.0
  0
VERTEX
  5
78
  8
LAYER_01
 10
336.2202999535803
 20
172.8165897656864
 30
0.0
  0
VERTEX
  5
79
  8
LAYER_01
 10
336.2202999535803
 20
329.3563497822316
 30
0.0
  0
VERTEX
  5
7A
  8
LAYER_01
 10
236.3891108728531
 20
329.3563497822316
 30
0.0
  0
SEQEND
  5
7B
  8
LAYER_01
  0
POLYLINE
  5
7C
  8
LAYER_01
 66
     1
 10
0.0
 20
0.0
 30
0.0
  0
VERTEX
  5
7D
  8
LAYER_01
 10
286.3047054132167
 20
191.2551877059516
 30
0.0
 42
-0.1659564840534172
  0
VERTEX
  5
7E
  8
LAYER_01
 10
295.0932206833342
 20
180.1271089681004
 30
0.0
 42
-0.0454547643408326
  0
VERTEX
  5
7F
  8
LAYER_01
 10
288.9535116077391
 20
176.3790154763764
 30
0.0
 42
-0.1148089187366061
  0
VERTEX
  5
80
  8
LAYER_01
 10
286.3047054132167
 20
175.7626783320779
 30
0.0
  0
SEQEND
  5
81
  8
LAYER_01
  0
POLYLINE
  5
82
  8
LAYER_01
 66
     1
 10
0.0
 20
0.0
 30
0.0
  0
VERTEX
  5
83
  8
LAYER_01
 10
286.3047054132167
 20
211.1455014495748
 30
0.0
 42
-0.0737497475487112
  0
VERTEX
  5
84
  8
LAYER_01
 10
291.2509121004263
 20
209.3766216950511
 30
0.0
 42
-0.1652132312686896
  0
VERTEX
  5
85
  8
LAYER_01
 10
286.3047054132167
 20
199.9658669328196
 30
0.0
  0
SEQEND
  5
86
  8
LAYER_01
  0
POLYLINE
  5
87
  8
LAYER_01
 66
     1
 10
0.0
 20
0.0
 30
0.0
 70
     1
  0
VERTEX
  5
88
  8
LAYER_01
 10
315.9535296113405
 20
207.5990801232682
 30
0.0
  0
VERTEX
  5
89
  8
LAYER_01
 10
315.4633200198002
 20
207.599080123268
 30
0.0
 42
-0.085961206326622
  0
VERTEX
  5
8A
  8
LAYER_01
 10
311.5946939619776
 20
193.968092850645
 30
0.0
 42
-0.0869925229291536
  0
VERTEX
  5
8B
  8
LAYER_01
 10
316.105642496206
 20
177.7117749746176
 30
0.0
 42
-0.1176970714822538
  0
VERTEX
  5
8C
  8
LAYER_01
 10
321.7250390038616
 20
190.7728808725937
 30
0.0
  0
VERTEX
  5
8D
  8
LAYER_01
 10
322.1156879506635
 20
191.3016549654287
 30
0.0
  0
VERTEX
  5
8E
  8
LAYER_01
 10
321.7250390038616
 20
191.8923544679139
 30
0.0
 42
-0.1166050140781215
  0
SEQEND
  5
8F
  8
LAYER_01
  0
POLYLINE
  5
90
  8
LAYER_01
 66
     1
 10
0.0
 20
0.0
 30
0.0
  0
VERTEX
  5
91
  8
LAYER_01
 10
288.0278311797812
 20
251.0864697739592
 30
0.0
 42
-0.0534614758689336
  0
VERTEX
  5
92
  8
LAYER_01
 10
296.010411007008
 20
247.2605183305687
 30
0.0
 42
0.0438288767442925
  0
VERTEX
  5
93
  8
LAYER_01
 10
296.3464307995797
 20
251.086469773959
 30
0.0
  0
SEQEND
  5
94
  8
LAYER_01
  0
POLYLINE
  5
95
  8
LAYER_01
 66
     1
 10
0.0
 20
0.0
 30
0.0
 70
     1
  0
VERTEX
  5
96
  8
LAYER_01
 10
289.7972900765733
 20
196.2869218348363
 30
0.0
  0
VERTEX
  5
97
  8
LAYER_01
 10
289.0566926121388
 20
195.5165667223802
 30
0.0
 42
-0.1477030961524259
  0
VERTEX
  5
98
  8
LAYER_01
 10
299.1708814697045
 20
183.6079068362519
 30
0.0
 42
0.0755995075738622
  0
VERTEX
  5
99
  8
LAYER_01
 10
306.3433401435628
 20
193.129064898479
 30
0.0
 42
0.1068412123519581
  0
VERTEX
  5
9A
  8
LAYER_01
 10
295.6951138344861
 20
206.0201442573245
 30
0.0
 42
-0.1340937211250185
  0
SEQEND
  5
9B
  8
LAYER_01
  0
POLYLINE
  5
9C
  8
LAYER_01
 66
     1
 10
0.0
 20
0.0
 30
0.0
  0
VERTEX
  5
9D
  8
LAYER_01
 10
286.3047054132167
 20
223.9371926068262
 30
0.0
 42
-0.1652132312686777
  0
VERTEX
  5
9E
  8
LAYER_01
 10
291.2509121004263
 20
214.5264378445947
 30
0.0
 42
-0.073749747548719
  0
VERTEX
  5
9F
  8
LAYER_01
 10
286.3047054132167
 20
212.7575580900709
 30
0.0
  0
SEQEND
  5
A0
  8
LAYER_01
  0
POLYLINE
  5
A1
  8
LAYER_01
 66
     1
 10
0.0
 20
0.0
 30
0.0
  0
VERTEX
  5
A2
  8
LAYER_01
 10
301.419180021125
 20
251.086469773959
 30
0.0
 42
-0.0658413758806577
  0
VERTEX
  5
A3
  8
LAYER_01
 10
300.4901084777156
 20
244.0616778002721
 30
0.0
 42
-0.071029538941248
  0
VERTEX
  5
A4
  8
LAYER_01
 10
308.4249357238713
 20
235.4154049548862
 30
0.0
 42
0.0906054049587345
  0
VERTEX
  5
A5
  8
LAYER_01
 10
311.2736561755792
 20
251.086469773959
 30
0.0
  0
SEQEND
  5
A6
  8
LAYER_01
  0
POLYLINE
  5
A7
  8
LAYER_01
 66
     1
 10
0.0
 20
0.0
 30
0.0
  0
VERTEX
  5
A8
  8
LAYER_01
 10
286.3047054132168
 20
248.1403812075677
 30
0.0
 42
-0.1148089187366037
  0
VERTEX
  5
A9
  8
LAYER_01
 10
288.953511607739
 20
247.5240440632691
 30
0.0
 42
-0.0454547643408412
  0
VERTEX
  5
AA
  8
LAYER_01
 10
295.0932206833339
 20
243.7759505715453
 30
0.0
 42
-0.1659564840534213
  0
VERTEX
  5
AB
  8
LAYER_01
 10
286.3047054132167
 20
232.6478718336941
 30
0.0
  0
SEQEND
  5
AC
  8
LAYER_01
  0
POLYLINE
  5
AD
  8
LAYER_01
 66
     1
 10
0.0
 20
0.0
 30
0.0
 70
     1
  0
VERTEX
  5
AE
  8
LAYER_01
 10
321.7250390038615
 20
232.0107050719068
 30
0.0
 42
0.1166050140779098
  0
VERTEX
  5
AF
  8
LAYER_01
 10
315.953529611344
 20
216.3039794165821
 30
0.0
  0
VERTEX
  5
B0
  8
LAYER_01
 10
315.4633200197786
 20
216.3039794165822
 30
0.0
 42
0.0859612063253747
  0
VERTEX
  5
B1
  8
LAYER_01
 10
311.5946939619776
 20
229.9349666890008
 30
0.0
 42
0.0869925229297126
  0
VERTEX
  5
B2
  8
LAYER_01
 10
316.1056424962169
 20
246.1912845651396
 30
0.0
 42
0.1176970714816728
  0
VERTEX
  5
B3
  8
LAYER_01
 10
321.7250390038616
 20
233.1301786672289
 30
0.0
  0
VERTEX
  5
B4
  8
LAYER_01
 10
322.1156879506641
 20
232.6014045743931
 30
0.0
  0
SEQEND
  5
B5
  8
LAYER_01
  0
POLYLINE
  5
B6
  8
LAYER_01
 66
     1
 10
0.0
 20
0.0
 30
0.0
  0
VERTEX
  5
B7
  8
LAYER_01
 10
311.2736561755792
 20
172.8165897656865
 30
0.0
 42
0.0906054049587299
  0
VERTEX
  5
B8
  8
LAYER_01
 10
308.4249357238714
 20
188.4876545847597
 30
0.0
 42
-0.0710295389412486
  0
VERTEX
  5
B9
  8
LAYER_01
 10
300.4901084777156
 20
179.8413817393736
 30
0.0
 42
-0.0658413758806596
  0
VERTEX
  5
BA
  8
LAYER_01
 10
301.419180021125
 20
172.8165897656865
 30
0.0
  0
SEQEND
  5
BB
  8
LAYER_01
  0
POLYLINE
  5
BC
  8
LAYER_01
 66
     1
 10
0.0
 20
0.0
 30
0.0
  0
VERTEX
  5
BD
  8
LAYER_01
 10
288.0278311797811
 20
172.8165897656866
 30
0.0
 42
0.0534614758689199
  0
VERTEX
  5
BE
  8
LAYER_01
 10
296.0104110070079
 20
176.6425412090771
 30
0.0
 42
-0.0438288767442992
  0
VERTEX
  5
BF
  8
LAYER_01
 10
296.3464307995797
 20
172.8165897656866
 30
0.0
  0
SEQEND
  5
C0
  8
LAYER_01
  0
POLYLINE
  5
C1
  8
LAYER_01
 66
     1
 10
0.0
 20
0.0
 30
0.0
 70
     1
  0
VERTEX
  5
C2
  8
LAYER_01
 10
289.0566926121388
 20
228.3864928172655
 30
0.0
  0
VERTEX
  5
C3
  8
LAYER_01
 10
289.7972900765733
 20
227.6161377048094
 30
0.0
 42
-0.1340937211250194
  0
VERTEX
  5
C4
  8
LAYER_01
 10
295.6951138344861
 20
217.8829152823212
 30
0.0
 42
0.1068412123519546
  0
VERTEX
  5
C5
  8
LAYER_01
 10
306.3433401435628
 20
230.7739946411667
 30
0.0
 42
0.0755995075738679
  0
VERTEX
  5
C6
  8
LAYER_01
 10
299.1708814697045
 20
240.2951527033938
 30
0.0
 42
-0.1477030961524171
  0
SEQEND
  5
C7
  8
LAYER_01
  0
POLYLINE
  5
C8
  8
LAYER_01
 66
     1
 10
0.0
 20
0.0
 30
0.0
  0
VERTEX
  5
C9
  8
LAYER_01
 10
336.2202999535803
 20
251.086469773959
 30
0.0
 42
-0.1609873407860291
  0
VERTEX
  5
CA
  8
LAYER_01
 10
330.1873786494174
 20
233.1301786672288
 30
0.0
  0
VERTEX
  5
CB
  8
LAYER_01
 10
329.7967297026147
 20
232.6014045743929
 30
0.0
  0
VERTEX
  5
CC
  8
LAYER_01
 10
330.1873786494172
 20
232.0107050719069
 30
0.0
 42
-0.3007561982651641
  0
VERTEX
  5
CD
  8
LAYER_01
 10
330.1873786494172
 20
191.8923544679139
 30
0.0
  0
VERTEX
  5
CE
  8
LAYER_01
 10
329.7967297026153
 20
191.3016549654288
 30
0.0
  0
VERTEX
  5
CF
  8
LAYER_01
 10
330.1873786494173
 20
190.7728808725938
 30
0.0
 42
-0.1609873407876113
  0
VERTEX
  5
D0
  8
LAYER_01
 10
336.2202999535803
 20
172.8165897656867
 30
0.0
  0
SEQEND
  5
D1
  8
LAYER_01
  0
POLYLINE
  5
D2
  8
LAYER_01
 66
     1
 10
0.0
 20
0.0
 30
0.0
 70
     1
  0
VERTEX
  5
D3
  8
LAYER_01
 10
308.8778556473707
 20
198.8750694184839
 30
0.0
 42
0.0981112689029943
  0
VERTEX
  5
D4
  8
LAYER_01
 10
297.1547872080498
 20
211.2518468458598
 30
0.0
  0
VERTEX
  5
D5
  8
LAYER_01
 10
296.1614265357205
 20
211.9515297698229
 30
0.0
  0
VERTEX
  5
D6
  8
LAYER_01
 10
297.1547872080498
 20
212.651212693786
 30
0.0
 42
0.0981112689029937
  0
VERTEX
  5
D7
  8
LAYER_01
 10
308.8778556473707
 20
225.0279901211619
 30
0.0
 42
-0.1696671194251024
  0
SEQEND
  5
D8
  8
LAYER_01
  0
POLYLINE
  5
D9
  8
LAYER_01
 66
     1
 10
0.0
 20
0.0
 30
0.0
  0
VERTEX
  5
DA
  8
LAYER_01
 10
320.764866921244
 20
251.0864697739589
 30
0.0
 42
0.1609873407857742
  0
VERTEX
  5
DB
  8
LAYER_01
 10
325.9562088266394
 20
235.635042217068
 30
0.0
 42
0.1609873407857934
  0
VERTEX
  5
DC
  8
LAYER_01
 10
331.1475507320349
 20
251.0864697739589
 30
0.0
  0
SEQEND
  5
DD
  8
LAYER_01
  0
POLYLINE
  5
DE
  8
LAYER_01
 66
     1
 10
0.0
 20
0.0
 30
0.0
  0
VERTEX
  5
DF
  8
LAYER_01
 10
320.7648669212439
 20
172.8165897656864
 30
0.0
 42
-0.1609873407876099
  0
VERTEX
  5
E0
  8
LAYER_01
 10
325.9562088266394
 20
188.2680173227546
 30
0.0
 42
-0.1609873407876181
  0
VERTEX
  5
E1
  8
LAYER_01
 10
331.1475507320348
 20
172.8165897656866
 30
0.0
  0
SEQEND
  5
E2
  8
LAYER_01
  0
POLYLINE
  5
E3
  8
LAYER_01
 66
     1
 10
0.0
 20
0.0
 30
0.0
 70
     1
  0
VERTEX
  5
E4
  8
LAYER_01
 10
325.9562088266395
 20
194.6905657886514
 30
0.0
 42
-0.3007561982651649
  0
VERTEX
  5
E5
  8
LAYER_01
 10
325.9562088266392
 20
229.2124937511694
 30
0.0
 42
-0.300756198265165
  0
SEQEND
  5
E6
  8
LAYER_01
  0
POLYLINE
  5
E7
  8
LAYER_01
 66
     1
 10
0.0
 20
0.0
 30
0.0
  0
VERTEX
  5
E8
  8
LAYER_01
 10
286.3047054132168
 20
191.2551877059516
 30
0.0
 42
0.1659564840534172
  0
VERTEX
  5
E9
  8
LAYER_01
 10
277.5161901430993
 20
180.1271089681003
 30
0.0
 42
0.0454547643408327
  0
VERTEX
  5
EA
  8
LAYER_01
 10
283.6558992186943
 20
176.3790154763764
 30
0.0
 42
0.1148089187366061
  0
VERTEX
  5
EB
  8
LAYER_01
 10
286.3047054132167
 20
175.7626783320779
 30
0.0
  0
SEQEND
  5
EC
  8
LAYER_01
  0
POLYLINE
  5
ED
  8
LAYER_01
 66
     1
 10
0.0
 20
0.0
 30
0.0
  0
VERTEX
  5
EE
  8
LAYER_01
 10
286.3047054132167
 20
211.1455014495748
 30
0.0
 42
0.0737497475487112
  0
VERTEX
  5
EF
  8
LAYER_01
 10
281.3584987260072
 20
209.3766216950511
 30
0.0
 42
0.1652132312686896
  0
VERTEX
  5
F0
  8
LAYER_01
 10
286.3047054132167
 20
199.9658669328196
 30
0.0
  0
SEQEND
  5
F1
  8
LAYER_01
  0
POLYLINE
  5
F2
  8
LAYER_01
 66
     1
 10
0.0
 20
0.0
 30
0.0
 70
     1
  0
VERTEX
  5
F3
  8
LAYER_01
 10
256.6558812150929
 20
207.5990801232682
 30
0.0
  0
VERTEX
  5
F4
  8
LAYER_01
 10
257.1460908066333
 20
207.599080123268
 30
0.0
 42
0.085961206326622
  0
VERTEX
  5
F5
  8
LAYER_01
 10
261.0147168644558
 20
193.968092850645
 30
0.0
 42
0.08699252292914
  0
VERTEX
  5
F6
  8
LAYER_01
 10
256.5037683302274
 20
177.7117749746176
 30
0.0
 42
0.1176970714822349
  0
VERTEX
  5
F7
  8
LAYER_01
 10
250.8843718225718
 20
190.7728808725937
 30
0.0
  0
VERTEX
  5
F8
  8
LAYER_01
 10
250.4937228757699
 20
191.3016549654287
 30
0.0
  0
VERTEX
  5
F9
  8
LAYER_01
 10
250.8843718225718
 20
191.8923544679139
 30
0.0
 42
0.116605014078118
  0
SEQEND
  5
FA
  8
LAYER_01
  0
POLYLINE
  5
FB
  8
LAYER_01
 66
     1
 10
0.0
 20
0.0
 30
0.0
  0
VERTEX
  5
FC
  8
LAYER_01
 10
284.5815796466522
 20
251.0864697739592
 30
0.0
 42
0.0534614758689336
  0
VERTEX
  5
FD
  8
LAYER_01
 10
276.5989998194254
 20
247.2605183305687
 30
0.0
 42
-0.0438288767442925
  0
VERTEX
  5
FE
  8
LAYER_01
 10
276.2629800268538
 20
251.086469773959
 30
0.0
  0
SEQEND
  5
FF
  8
LAYER_01
  0
POLYLINE
  5
100
  8
LAYER_01
 66
     1
 10
0.0
 20
0.0
 30
0.0
 70
     1
  0
VERTEX
  5
101
  8
LAYER_01
 10
282.8121207498601
 20
196.2869218348363
 30
0.0
  0
VERTEX
  5
102
  8
LAYER_01
 10
283.5527182142946
 20
195.5165667223802
 30
0.0
 42
0.1477030961524259
  0
VERTEX
  5
103
  8
LAYER_01
 10
273.438529356729
 20
183.6079068362518
 30
0.0
 42
-0.0755995075738623
  0
VERTEX
  5
104
  8
LAYER_01
 10
266.2660706828706
 20
193.129064898479
 30
0.0
 42
-0.1068412123519524
  0
VERTEX
  5
105
  8
LAYER_01
 10
276.9142969919473
 20
206.0201442573245
 30
0.0
 42
0.1340937211250171
  0
SEQEND
  5
106
  8
LAYER_01
  0
POLYLINE
  5
107
  8
LAYER_01
 66
     1
 10
0.0
 20
0.0
 30
0.0
  0
VERTEX
  5
108
  8
LAYER_01
 10
286.3047054132167
 20
223.9371926068262
 30
0.0
 42
0.1652132312686777
  0
VERTEX
  5
109
  8
LAYER_01
 10
281.3584987260072
 20
214.5264378445947
 30
0.0
 42
0.073749747548719
  0
VERTEX
  5
10A
  8
LAYER_01
 10
286.3047054132167
 20
212.7575580900709
 30
0.0
  0
SEQEND
  5
10B
  8
LAYER_01
  0
POLYLINE
  5
10C
  8
LAYER_01
 66
     1
 10
0.0
 20
0.0
 30
0.0
  0
VERTEX
  5
10D
  8
LAYER_01
 10
271.1902308053084
 20
251.086469773959
 30
0.0
 42
0.0658413758806577
  0
VERTEX
  5
10E
  8
LAYER_01
 10
272.1193023487178
 20
244.0616778002721
 30
0.0
 42
0.071029538941248
  0
VERTEX
  5
10F
  8
LAYER_01
 10
264.1844751025621
 20
235.4154049548862
 30
0.0
 42
-0.0906054049587273
  0
VERTEX
  5
110
  8
LAYER_01
 10
261.3357546508543
 20
251.086469773959
 30
0.0
  0
SEQEND
  5
111
  8
LAYER_01
  0
POLYLINE
  5
112
  8
LAYER_01
 66
     1
 10
0.0
 20
0.0
 30
0.0
  0
VERTEX
  5
113
  8
LAYER_01
 10
286.3047054132166
 20
248.1403812075677
 30
0.0
 42
0.1148089187366037
  0
VERTEX
  5
114
  8
LAYER_01
 10
283.6558992186945
 20
247.5240440632692
 30
0.0
 42
0.0454547643408417
  0
VERTEX
  5
115
  8
LAYER_01
 10
277.5161901430995
 20
243.7759505715453
 30
0.0
 42
0.1659564840534216
  0
VERTEX
  5
116
  8
LAYER_01
 10
286.3047054132168
 20
232.6478718336941
 30
0.0
  0
SEQEND
  5
117
  8
LAYER_01
  0
POLYLINE
  5
118
  8
LAYER_01
 66
     1
 10
0.0
 20
0.0
 30
0.0
 70
     1
  0
VERTEX
  5
119
  8
LAYER_01
 10
250.8843718225719
 20
232.0107050719068
 30
0.0
 42
-0.11660501407791
  0
VERTEX
  5
11A
  8
LAYER_01
 10
256.6558812150894
 20
216.3039794165821
 30
0.0
  0
VERTEX
  5
11B
  8
LAYER_01
 10
257.1460908066548
 20
216.3039794165822
 30
0.0
 42
-0.0859612063253747
  0
VERTEX
  5
11C
  8
LAYER_01
 10
261.0147168644557
 20
229.9349666890008
 30
0.0
 42
-0.0869925229297224
  0
VERTEX
  5
11D
  8
LAYER_01
 10
256.5037683302164
 20
246.1912845651396
 30
0.0
 42
-0.1176970714816645
  0
VERTEX
  5
11E
  8
LAYER_01
 10
250.8843718225718
 20
233.1301786672289
 30
0.0
  0
VERTEX
  5
11F
  8
LAYER_01
 10
250.4937228757693
 20
232.6014045743931
 30
0.0
  0
SEQEND
  5
120
  8
LAYER_01
  0
POLYLINE
  5
121
  8
LAYER_01
 66
     1
 10
0.0
 20
0.0
 30
0.0
  0
VERTEX
  5
122
  8
LAYER_01
 10
261.3357546508543
 20
172.8165897656865
 30
0.0
 42
-0.0906054049587219
  0
VERTEX
  5
123
  8
LAYER_01
 10
264.184475102562
 20
188.4876545847597
 30
0.0
 42
0.0710295389412486
  0
VERTEX
  5
124
  8
LAYER_01
 10
272.1193023487178
 20
179.8413817393736
 30
0.0
 42
0.0658413758806596
  0
VERTEX
  5
125
  8
LAYER_01
 10
271.1902308053084
 20
172.8165897656865
 30
0.0
  0
SEQEND
  5
126
  8
LAYER_01
  0
POLYLINE
  5
127
  8
LAYER_01
 66
     1
 10
0.0
 20
0.0
 30
0.0
  0
VERTEX
  5
128
  8
LAYER_01
 10
284.5815796466523
 20
172.8165897656866
 30
0.0
 42
-0.0534614758689199
  0
VERTEX
  5
129
  8
LAYER_01
 10
276.5989998194255
 20
176.6425412090771
 30
0.0
 42
0.043828876744299
  0
VERTEX
  5
12A
  8
LAYER_01
 10
276.2629800268538
 20
172.8165897656866
 30
0.0
  0
SEQEND
  5
12B
  8
LAYER_01
  0
POLYLINE
  5
12C
  8
LAYER_01
 66
     1
 10
0.0
 20
0.0
 30
0.0
 70
     1
  0
VERTEX
  5
12D
  8
LAYER_01
 10
283.5527182142946
 20
228.3864928172655
 30
0.0
  0
VERTEX
  5
12E
  8
LAYER_01
 10
282.8121207498601
 20
227.6161377048094
 30
0.0
 42
0.1340937211250194
  0
VERTEX
  5
12F
  8
LAYER_01
 10
276.9142969919474
 20
217.8829152823212
 30
0.0
 42
-0.1068412123519544
  0
VERTEX
  5
130
  8
LAYER_01
 10
266.2660706828706
 20
230.7739946411667
 30
0.0
 42
-0.0755995075738679
  0
VERTEX
  5
131
  8
LAYER_01
 10
273.438529356729
 20
240.2951527033938
 30
0.0
 42
0.1477030961524171
  0
SEQEND
  5
132
  8
LAYER_01
  0
POLYLINE
  5
133
  8
LAYER_01
 66
     1
 10
0.0
 20
0.0
 30
0.0
  0
VERTEX
  5
134
  8
LAYER_01
 10
236.3891108728531
 20
251.086469773959
 30
0.0
 42
0.1609873407860357
  0
VERTEX
  5
135
  8
LAYER_01
 10
242.4220321770161
 20
233.1301786672288
 30
0.0
  0
VERTEX
  5
136
  8
LAYER_01
 10
242.8126811238187
 20
232.6014045743929
 30
0.0
  0
VERTEX
  5
137
  8
LAYER_01
 10
242.4220321770162
 20
232.0107050719069
 30
0.0
 42
0.3007561982651643
  0
VERTEX
  5
138
  8
LAYER_01
 10
242.4220321770163
 20
191.8923544679139
 30
0.0
  0
VERTEX
  5
139
  8
LAYER_01
 10
242.8126811238181
 20
191.3016549654288
 30
0.0
  0
VERTEX
  5
13A
  8
LAYER_01
 10
242.4220321770161
 20
190.7728808725938
 30
0.0
 42
0.1609873407876083
  0
VERTEX
  5
13B
  8
LAYER_01
 10
236.3891108728532
 20
172.8165897656867
 30
0.0
  0
SEQEND
  5
13C
  8
LAYER_01
  0
POLYLINE
  5
13D
  8
LAYER_01
 66
     1
 10
0.0
 20
0.0
 30
0.0
 70
     1
  0
VERTEX
  5
13E
  8
LAYER_01
 10
263.7315551790628
 20
198.8750694184839
 30
0.0
 42
-0.0981112689029984
  0
VERTEX
  5
13F
  8
LAYER_01
 10
275.4546236183836
 20
211.2518468458597
 30
0.0
  0
VERTEX
  5
140
  8
LAYER_01
 10
276.447984290713
 20
211.9515297698229
 30
0.0
  0
VERTEX
  5
141
  8
LAYER_01
 10
275.4546236183836
 20
212.651212693786
 30
0.0
 42
-0.0981112689029942
  0
VERTEX
  5
142
  8
LAYER_01
 10
263.7315551790627
 20
225.0279901211619
 30
0.0
 42
0.1696671194251024
  0
SEQEND
  5
143
  8
LAYER_01
  0
POLYLINE
  5
144
  8
LAYER_01
 66
     1
 10
0.0
 20
0.0
 30
0.0
  0
VERTEX
  5
145
  8
LAYER_01
 10
251.8445439051894
 20
251.0864697739589
 30
0.0
 42
-0.1609873407857793
  0
VERTEX
  5
146
  8
LAYER_01
 10
246.653201999794
 20
235.635042217068
 30
0.0
 42
-0.160987340785776
  0
VERTEX
  5
147
  8
LAYER_01
 10
241.4618600943986
 20
251.0864697739589
 30
0.0
  0
SEQEND
  5
148
  8
LAYER_01
  0
POLYLINE
  5
149
  8
LAYER_01
 66
     1
 10
0.0
 20
0.0
 30
0.0
  0
VERTEX
  5
14A
  8
LAYER_01
 10
251.8445439051894
 20
172.8165897656864
 30
0.0
 42
0.1609873407876174
  0
VERTEX
  5
14B
  8
LAYER_01
 10
246.6532019997941
 20
188.2680173227546
 30
0.0
 42
0.1609873407876214
  0
VERTEX
  5
14C
  8
LAYER_01
 10
241.4618600943985
 20
172.8165897656866
 30
0.0
  0
SEQEND
  5
14D
  8
LAYER_01
  0
POLYLINE
  5
14E
  8
LAYER_01
 66
     1
 10
0.0
 20
0.0
 30
0.0
 70
     1
  0
VERTEX
  5
14F
  8
LAYER_01
 10
246.653201999794
 20
194.6905657886514
 30
0.0
 42
0.3007561982651653
  0
VERTEX
  5
150
  8
LAYER_01
 10
246.6532019997942
 20
229.2124937511694
 30
0.0
 42
0.3007561982651563
  0
SEQEND
  5
151
  8
LAYER_01
  0
POLYLINE
  5
152
  8
LAYER_01
 66
     1
 10
0.0
 20
0.0
 30
0.0
  0
VERTEX
  5
153
  8
LAYER_01
 10
286.3047054132167
 20
310.9177518419664
 30
0.0
 42
0.1659564840534174
  0
VERTEX
  5
154
  8
LAYER_01
 10
295.0932206833342
 20
322.0458305798177
 30
0.0
 42
0.0454547643408377
  0
VERTEX
  5
155
  8
LAYER_01
 10
288.9535116077391
 20
325.7939240715416
 30
0.0
 42
0.1148089187366053
  0
VERTEX
  5
156
  8
LAYER_01
 10
286.3047054132167
 20
326.4102612158401
 30
0.0
  0
SEQEND
  5
157
  8
LAYER_01
  0
POLYLINE
  5
158
  8
LAYER_01
 66
     1
 10
0.0
 20
0.0
 30
0.0
  0
VERTEX
  5
159
  8
LAYER_01
 10
286.3047054132167
 20
291.0274380983432
 30
0.0
 42
0.0737497475487113
  0
VERTEX
  5
15A
  8
LAYER_01
 10
291.2509121004263
 20
292.7963178528669
 30
0.0
 42
0.1652132312686777
  0
VERTEX
  5
15B
  8
LAYER_01
 10
286.3047054132167
 20
302.2070726150985
 30
0.0
  0
SEQEND
  5
15C
  8
LAYER_01
  0
POLYLINE
  5
15D
  8
LAYER_01
 66
     1
 10
0.0
 20
0.0
 30
0.0
 70
     1
  0
VERTEX
  5
15E
  8
LAYER_01
 10
315.9535296113405
 20
294.5738594246498
 30
0.0
  0
VERTEX
  5
15F
  8
LAYER_01
 10
315.4633200198002
 20
294.57385942465
 30
0.0
 42
0.085961206326622
  0
VERTEX
  5
160
  8
LAYER_01
 10
311.5946939619776
 20
308.2048466972731
 30
0.0
 42
0.086992522929151
  0
VERTEX
  5
161
  8
LAYER_01
 10
316.105642496206
 20
324.4611645733004
 30
0.0
 42
0.1176970714822452
  0
VERTEX
  5
162
  8
LAYER_01
 10
321.7250390038616
 20
311.4000586753243
 30
0.0
  0
VERTEX
  5
163
  8
LAYER_01
 10
322.1156879506635
 20
310.8712845824893
 30
0.0
  0
VERTEX
  5
164
  8
LAYER_01
 10
321.7250390038617
 20
310.2805850800041
 30
0.0
 42
0.1166050140781106
  0
SEQEND
  5
165
  8
LAYER_01
  0
POLYLINE
  5
166
  8
LAYER_01
 66
     1
 10
0.0
 20
0.0
 30
0.0
  0
VERTEX
  5
167
  8
LAYER_01
 10
288.0278311797812
 20
251.0864697739588
 30
0.0
 42
0.0534614758689336
  0
VERTEX
  5
168
  8
LAYER_01
 10
296.010411007008
 20
254.9124212173493
 30
0.0
 42
-0.0438288767442925
  0
VERTEX
  5
169
  8
LAYER_01
 10
296.3464307995797
 20
251.0864697739591
 30
0.0
  0
SEQEND
  5
16A
  8
LAYER_01
  0
POLYLINE
  5
16B
  8
LAYER_01
 66
     1
 10
0.0
 20
0.0
 30
0.0
 70
     1
  0
VERTEX
  5
16C
  8
LAYER_01
 10
289.7972900765733
 20
305.8860177130817
 30
0.0
  0
VERTEX
  5
16D
  8
LAYER_01
 10
289.0566926121388
 20
306.6563728255379
 30
0.0
 42
0.1477030961524259
  0
VERTEX
  5
16E
  8
LAYER_01
 10
299.1708814697045
 20
318.5650327116662
 30
0.0
 42
-0.0755995075738625
  0
VERTEX
  5
16F
  8
LAYER_01
 10
306.3433401435628
 20
309.043874649439
 30
0.0
 42
-0.1068412123519582
  0
VERTEX
  5
170
  8
LAYER_01
 10
295.6951138344861
 20
296.1527952905935
 30
0.0
 42
0.1340937211250191
  0
SEQEND
  5
171
  8
LAYER_01
  0
POLYLINE
  5
172
  8
LAYER_01
 66
     1
 10
0.0
 20
0.0
 30
0.0
  0
VERTEX
  5
173
  8
LAYER_01
 10
286.3047054132167
 20
278.2357469410919
 30
0.0
 42
0.165213231268677
  0
VERTEX
  5
174
  8
LAYER_01
 10
291.2509121004263
 20
287.6465017033233
 30
0.0
 42
0.073749747548719
  0
VERTEX
  5
175
  8
LAYER_01
 10
286.3047054132167
 20
289.4153814578471
 30
0.0
  0
SEQEND
  5
176
  8
LAYER_01
  0
POLYLINE
  5
177
  8
LAYER_01
 66
     1
 10
0.0
 20
0.0
 30
0.0
  0
VERTEX
  5
178
  8
LAYER_01
 10
301.419180021125
 20
251.086469773959
 30
0.0
 42
0.065841375880657
  0
VERTEX
  5
179
  8
LAYER_01
 10
300.4901084777156
 20
258.1112617476459
 30
0.0
 42
0.0710295389412456
  0
VERTEX
  5
17A
  8
LAYER_01
 10
308.4249357238713
 20
266.7575345930318
 30
0.0
 42
-0.0906054049587354
  0
VERTEX
  5
17B
  8
LAYER_01
 10
311.2736561755792
 20
251.086469773959
 30
0.0
  0
SEQEND
  5
17C
  8
LAYER_01
  0
POLYLINE
  5
17D
  8
LAYER_01
 66
     1
 10
0.0
 20
0.0
 30
0.0
  0
VERTEX
  5
17E
  8
LAYER_01
 10
286.3047054132168
 20
254.0325583403504
 30
0.0
 42
0.1148089187366037
  0
VERTEX
  5
17F
  8
LAYER_01
 10
288.953511607739
 20
254.6488954846488
 30
0.0
 42
0.0454547643408481
  0
VERTEX
  5
180
  8
LAYER_01
 10
295.0932206833339
 20
258.3969889763727
 30
0.0
 42
0.1659564840534232
  0
VERTEX
  5
181
  8
LAYER_01
 10
286.3047054132167
 20
269.525067714224
 30
0.0
  0
SEQEND
  5
182
  8
LAYER_01
  0
POLYLINE
  5
183
  8
LAYER_01
 66
     1
 10
0.0
 20
0.0
 30
0.0
 70
     1
  0
VERTEX
  5
184
  8
LAYER_01
 10
321.7250390038615
 20
270.1622344760112
 30
0.0
 42
-0.1166050140779096
  0
VERTEX
  5
185
  8
LAYER_01
 10
315.953529611344
 20
285.8689601313359
 30
0.0
  0
VERTEX
  5
186
  8
LAYER_01
 10
315.4633200197786
 20
285.8689601313358
 30
0.0
 42
-0.0859612063253747
  0
VERTEX
  5
187
  8
LAYER_01
 10
311.5946939619776
 20
272.2379728589172
 30
0.0
 42
-0.0869925229297121
  0
VERTEX
  5
188
  8
LAYER_01
 10
316.1056424962169
 20
255.9816549827783
 30
0.0
 42
-0.1176970714816737
  0
VERTEX
  5
189
  8
LAYER_01
 10
321.7250390038616
 20
269.0427608806891
 30
0.0
  0
VERTEX
  5
18A
  8
LAYER_01
 10
322.1156879506641
 20
269.5715349735249
 30
0.0
  0
SEQEND
  5
18B
  8
LAYER_01
  0
POLYLINE
  5
18C
  8
LAYER_01
 66
     1
 10
0.0
 20
0.0
 30
0.0
  0
VERTEX
  5
18D
  8
LAYER_01
 10
311.2736561755792
 20
329.3563497822315
 30
0.0
 42
-0.0906054049587285
  0
VERTEX
  5
18E
  8
LAYER_01
 10
308.4249357238714
 20
313.6852849631583
 30
0.0
 42
0.0710295389412492
  0
VERTEX
  5
18F
  8
LAYER_01
 10
300.4901084777156
 20
322.3315578085444
 30
0.0
 42
0.0658413758806596
  0
VERTEX
  5
190
  8
LAYER_01
 10
301.419180021125
 20
329.3563497822315
 30
0.0
  0
SEQEND
  5
191
  8
LAYER_01
  0
POLYLINE
  5
192
  8
LAYER_01
 66
     1
 10
0.0
 20
0.0
 30
0.0
  0
VERTEX
  5
193
  8
LAYER_01
 10
288.0278311797811
 20
329.3563497822314
 30
0.0
 42
-0.0534614758689206
  0
VERTEX
  5
194
  8
LAYER_01
 10
296.0104110070079
 20
325.5303983388409
 30
0.0
 42
0.0438288767442962
  0
VERTEX
  5
195
  8
LAYER_01
 10
296.3464307995797
 20
329.3563497822315
 30
0.0
  0
SEQEND
  5
196
  8
LAYER_01
  0
POLYLINE
  5
197
  8
LAYER_01
 66
     1
 10
0.0
 20
0.0
 30
0.0
 70
     1
  0
VERTEX
  5
198
  8
LAYER_01
 10
289.0566926121388
 20
273.7864467306525
 30
0.0
  0
VERTEX
  5
199
  8
LAYER_01
 10
289.7972900765733
 20
274.5568018431086
 30
0.0
 42
0.1340937211250194
  0
VERTEX
  5
19A
  8
LAYER_01
 10
295.6951138344861
 20
284.2900242655969
 30
0.0
 42
-0.106841212351952
  0
VERTEX
  5
19B
  8
LAYER_01
 10
306.3433401435628
 20
271.3989449067514
 30
0.0
 42
-0.0755995075738575
  0
VERTEX
  5
19C
  8
LAYER_01
 10
299.1708814697045
 20
261.8777868445243
 30
0.0
 42
0.1477030961524228
  0
SEQEND
  5
19D
  8
LAYER_01
  0
POLYLINE
  5
19E
  8
LAYER_01
 66
     1
 10
0.0
 20
0.0
 30
0.0
  0
VERTEX
  5
19F
  8
LAYER_01
 10
336.2202999535803
 20
251.086469773959
 30
0.0
 42
0.1609873407860288
  0
VERTEX
  5
1A0
  8
LAYER_01
 10
330.1873786494173
 20
269.0427608806892
 30
0.0
  0
VERTEX
  5
1A1
  8
LAYER_01
 10
329.7967297026147
 20
269.5715349735251
 30
0.0
  0
VERTEX
  5
1A2
  8
LAYER_01
 10
330.1873786494172
 20
270.1622344760111
 30
0.0
 42
0.300756198265164
  0
VERTEX
  5
1A3
  8
LAYER_01
 10
330.1873786494172
 20
310.2805850800041
 30
0.0
  0
VERTEX
  5
1A4
  8
LAYER_01
 10
329.7967297026153
 20
310.8712845824892
 30
0.0
  0
VERTEX
  5
1A5
  8
LAYER_01
 10
330.1873786494173
 20
311.4000586753242
 30
0.0
 42
0.1609873407876126
  0
VERTEX
  5
1A6
  8
LAYER_01
 10
336.2202999535803
 20
329.3563497822313
 30
0.0
  0
SEQEND
  5
1A7
  8
LAYER_01
  0
POLYLINE
  5
1A8
  8
LAYER_01
 66
     1
 10
0.0
 20
0.0
 30
0.0
 70
     1
  0
VERTEX
  5
1A9
  8
LAYER_01
 10
308.8778556473707
 20
303.2978701294342
 30
0.0
 42
-0.0981112689029859
  0
VERTEX
  5
1AA
  8
LAYER_01
 10
297.1547872080498
 20
290.9210927020582
 30
0.0
  0
VERTEX
  5
1AB
  8
LAYER_01
 10
296.1614265357205
 20
290.2214097780952
 30
0.0
  0
VERTEX
  5
1AC
  8
LAYER_01
 10
297.1547872080498
 20
289.5217268541321
 30
0.0
 42
-0.0981112689029955
  0
VERTEX
  5
1AD
  8
LAYER_01
 10
308.8778556473707
 20
277.1449494267561
 30
0.0
 42
0.1696671194251165
  0
SEQEND
  5
1AE
  8
LAYER_01
  0
POLYLINE
  5
1AF
  8
LAYER_01
 66
     1
 10
0.0
 20
0.0
 30
0.0
  0
VERTEX
  5
1B0
  8
LAYER_01
 10
320.764866921244
 20
251.0864697739591
 30
0.0
 42
-0.1609873407857745
  0
VERTEX
  5
1B1
  8
LAYER_01
 10
325.9562088266393
 20
266.53789733085
 30
0.0
 42
-0.1609873407857942
  0
VERTEX
  5
1B2
  8
LAYER_01
 10
331.1475507320349
 20
251.0864697739592
 30
0.0
  0
SEQEND
  5
1B3
  8
LAYER_01
  0
POLYLINE
  5
1B4
  8
LAYER_01
 66
     1
 10
0.0
 20
0.0
 30
0.0
  0
VERTEX
  5
1B5
  8
LAYER_01
 10
320.7648669212439
 20
329.3563497822316
 30
0.0
 42
0.1609873407876037
  0
VERTEX
  5
1B6
  8
LAYER_01
 10
325.9562088266393
 20
313.9049222251634
 30
0.0
 42
0.1609873407876194
  0
VERTEX
  5
1B7
  8
LAYER_01
 10
331.1475507320348
 20
329.3563497822313
 30
0.0
  0
SEQEND
  5
1B8
  8
LAYER_01
  0
POLYLINE
  5
1B9
  8
LAYER_01
 66
     1
 10
0.0
 20
0.0
 30
0.0
 70
     1
  0
VERTEX
  5
1BA
  8
LAYER_01
 10
325.9562088266395
 20
307.4823737592666
 30
0.0
 42
0.3007561982651647
  0
VERTEX
  5
1BB
  8
LAYER_01
 10
325.9562088266392
 20
272.9604457967487
 30
0.0
 42
0.3007561982651656
  0
SEQEND
  5
1BC
  8
LAYER_01
  0
POLYLINE
  5
1BD
  8
LAYER_01
 66
     1
 10
0.0
 20
0.0
 30
0.0
  0
VERTEX
  5
1BE
  8
LAYER_01
 10
286.3047054132168
 20
310.9177518419664
 30
0.0
 42
-0.1659564840534174
  0
VERTEX
  5
1BF
  8
LAYER_01
 10
277.5161901430993
 20
322.0458305798177
 30
0.0
 42
-0.0454547643408377
  0
VERTEX
  5
1C0
  8
LAYER_01
 10
283.6558992186943
 20
325.7939240715416
 30
0.0
 42
-0.1148089187366053
  0
VERTEX
  5
1C1
  8
LAYER_01
 10
286.3047054132167
 20
326.4102612158401
 30
0.0
  0
SEQEND
  5
1C2
  8
LAYER_01
  0
POLYLINE
  5
1C3
  8
LAYER_01
 66
     1
 10
0.0
 20
0.0
 30
0.0
  0
VERTEX
  5
1C4
  8
LAYER_01
 10
286.3047054132167
 20
291.0274380983432
 30
0.0
 42
-0.0737497475487113
  0
VERTEX
  5
1C5
  8
LAYER_01
 10
281.3584987260071
 20
292.7963178528669
 30
0.0
 42
-0.1652132312686777
  0
VERTEX
  5
1C6
  8
LAYER_01
 10
286.3047054132167
 20
302.2070726150985
 30
0.0
  0
SEQEND
  5
1C7
  8
LAYER_01
  0
POLYLINE
  5
1C8
  8
LAYER_01
 66
     1
 10
0.0
 20
0.0
 30
0.0
 70
     1
  0
VERTEX
  5
1C9
  8
LAYER_01
 10
256.6558812150929
 20
294.5738594246498
 30
0.0
  0
VERTEX
  5
1CA
  8
LAYER_01
 10
257.1460908066333
 20
294.57385942465
 30
0.0
 42
-0.085961206326622
  0
VERTEX
  5
1CB
  8
LAYER_01
 10
261.0147168644558
 20
308.2048466972731
 30
0.0
 42
-0.0869925229291382
  0
VERTEX
  5
1CC
  8
LAYER_01
 10
256.5037683302274
 20
324.4611645733004
 30
0.0
 42
-0.1176970714822345
  0
VERTEX
  5
1CD
  8
LAYER_01
 10
250.8843718225718
 20
311.4000586753243
 30
0.0
  0
VERTEX
  5
1CE
  8
LAYER_01
 10
250.4937228757699
 20
310.8712845824893
 30
0.0
  0
VERTEX
  5
1CF
  8
LAYER_01
 10
250.8843718225718
 20
310.2805850800041
 30
0.0
 42
-0.1166050140781176
  0
SEQEND
  5
1D0
  8
LAYER_01
  0
POLYLINE
  5
1D1
  8
LAYER_01
 66
     1
 10
0.0
 20
0.0
 30
0.0
  0
VERTEX
  5
1D2
  8
LAYER_01
 10
284.5815796466522
 20
251.0864697739588
 30
0.0
 42
-0.0534614758689336
  0
VERTEX
  5
1D3
  8
LAYER_01
 10
276.5989998194254
 20
254.9124212173493
 30
0.0
 42
0.0438288767442925
  0
VERTEX
  5
1D4
  8
LAYER_01
 10
276.2629800268538
 20
251.0864697739591
 30
0.0
  0
SEQEND
  5
1D5
  8
LAYER_01
  0
POLYLINE
  5
1D6
  8
LAYER_01
 66
     1
 10
0.0
 20
0.0
 30
0.0
 70
     1
  0
VERTEX
  5
1D7
  8
LAYER_01
 10
282.8121207498601
 20
305.8860177130817
 30
0.0
  0
VERTEX
  5
1D8
  8
LAYER_01
 10
283.5527182142946
 20
306.6563728255379
 30
0.0
 42
-0.1477030961524259
  0
VERTEX
  5
1D9
  8
LAYER_01
 10
273.438529356729
 20
318.5650327116662
 30
0.0
 42
0.0755995075738623
  0
VERTEX
  5
1DA
  8
LAYER_01
 10
266.2660706828706
 20
309.043874649439
 30
0.0
 42
0.1068412123519523
  0
VERTEX
  5
1DB
  8
LAYER_01
 10
276.9142969919474
 20
296.1527952905935
 30
0.0
 42
-0.1340937211250179
  0
SEQEND
  5
1DC
  8
LAYER_01
  0
POLYLINE
  5
1DD
  8
LAYER_01
 66
     1
 10
0.0
 20
0.0
 30
0.0
  0
VERTEX
  5
1DE
  8
LAYER_01
 10
286.3047054132167
 20
278.2357469410919
 30
0.0
 42
-0.165213231268677
  0
VERTEX
  5
1DF
  8
LAYER_01
 10
281.3584987260072
 20
287.6465017033233
 30
0.0
 42
-0.073749747548719
  0
VERTEX
  5
1E0
  8
LAYER_01
 10
286.3047054132167
 20
289.4153814578471
 30
0.0
  0
SEQEND
  5
1E1
  8
LAYER_01
  0
POLYLINE
  5
1E2
  8
LAYER_01
 66
     1
 10
0.0
 20
0.0
 30
0.0
  0
VERTEX
  5
1E3
  8
LAYER_01
 10
271.1902308053084
 20
251.086469773959
 30
0.0
 42
-0.065841375880657
  0
VERTEX
  5
1E4
  8
LAYER_01
 10
272.1193023487178
 20
258.1112617476459
 30
0.0
 42
-0.0710295389412456
  0
VERTEX
  5
1E5
  8
LAYER_01
 10
264.1844751025621
 20
266.7575345930318
 30
0.0
 42
0.0906054049587275
  0
VERTEX
  5
1E6
  8
LAYER_01
 10
261.3357546508543
 20
251.086469773959
 30
0.0
  0
SEQEND
  5
1E7
  8
LAYER_01
  0
POLYLINE
  5
1E8
  8
LAYER_01
 66
     1
 10
0.0
 20
0.0
 30
0.0
  0
VERTEX
  5
1E9
  8
LAYER_01
 10
286.3047054132166
 20
254.0325583403504
 30
0.0
 42
-0.1148089187366037
  0
VERTEX
  5
1EA
  8
LAYER_01
 10
283.6558992186944
 20
254.6488954846488
 30
0.0
 42
-0.0454547643408478
  0
VERTEX
  5
1EB
  8
LAYER_01
 10
277.5161901430995
 20
258.3969889763727
 30
0.0
 42
-0.1659564840534232
  0
VERTEX
  5
1EC
  8
LAYER_01
 10
286.3047054132168
 20
269.525067714224
 30
0.0
  0
SEQEND
  5
1ED
  8
LAYER_01
  0
POLYLINE
  5
1EE
  8
LAYER_01
 66
     1
 10
0.0
 20
0.0
 30
0.0
 70
     1
  0
VERTEX
  5
1EF
  8
LAYER_01
 10
250.8843718225719
 20
270.1622344760112
 30
0.0
 42
0.1166050140779098
  0
VERTEX
  5
1F0
  8
LAYER_01
 10
256.6558812150894
 20
285.8689601313359
 30
0.0
  0
VERTEX
  5
1F1
  8
LAYER_01
 10
257.1460908066548
 20
285.8689601313358
 30
0.0
 42
0.0859612063253747
  0
VERTEX
  5
1F2
  8
LAYER_01
 10
261.0147168644558
 20
272.2379728589172
 30
0.0
 42
0.0869925229297213
  0
VERTEX
  5
1F3
  8
LAYER_01
 10
256.5037683302164
 20
255.9816549827783
 30
0.0
 42
0.1176970714816464
  0
VERTEX
  5
1F4
  8
LAYER_01
 10
250.8843718225718
 20
269.0427608806891
 30
0.0
  0
VERTEX
  5
1F5
  8
LAYER_01
 10
250.4937228757693
 20
269.5715349735249
 30
0.0
  0
SEQEND
  5
1F6
  8
LAYER_01
  0
POLYLINE
  5
1F7
  8
LAYER_01
 66
     1
 10
0.0
 20
0.0
 30
0.0
  0
VERTEX
  5
1F8
  8
LAYER_01
 10
261.3357546508543
 20
329.3563497822315
 30
0.0
 42
0.090605404958721
  0
VERTEX
  5
1F9
  8
LAYER_01
 10
264.184475102562
 20
313.6852849631583
 30
0.0
 42
-0.0710295389412486
  0
VERTEX
  5
1FA
  8
LAYER_01
 10
272.1193023487178
 20
322.3315578085444
 30
0.0
 42
-0.0658413758806596
  0
VERTEX
  5
1FB
  8
LAYER_01
 10
271.1902308053084
 20
329.3563497822315
 30
0.0
  0
SEQEND
  5
1FC
  8
LAYER_01
  0
POLYLINE
  5
1FD
  8
LAYER_01
 66
     1
 10
0.0
 20
0.0
 30
0.0
  0
VERTEX
  5
1FE
  8
LAYER_01
 10
284.5815796466523
 20
329.3563497822314
 30
0.0
 42
0.0534614758689206
  0
VERTEX
  5
1FF
  8
LAYER_01
 10
276.5989998194255
 20
325.5303983388409
 30
0.0
 42
-0.0438288767442962
  0
VERTEX
  5
200
  8
LAYER_01
 10
276.2629800268538
 20
329.3563497822315
 30
0.0
  0
SEQEND
  5
201
  8
LAYER_01
  0
POLYLINE
  5
202
  8
LAYER_01
 66
     1
 10
0.0
 20
0.0
 30
0.0
 70
     1
  0
VERTEX
  5
203
  8
LAYER_01
 10
283.5527182142946
 20
273.7864467306525
 30
0.0
  0
VERTEX
  5
204
  8
LAYER_01
 10
282.8121207498601
 20
274.5568018431086
 30
0.0
 42
-0.1340937211250194
  0
VERTEX
  5
205
  8
LAYER_01
 10
276.9142969919474
 20
284.2900242655969
 30
0.0
 42
0.1068412123519523
  0
VERTEX
  5
206
  8
LAYER_01
 10
266.2660706828706
 20
271.3989449067514
 30
0.0
 42
0.0755995075738577
  0
VERTEX
  5
207
  8
LAYER_01
 10
273.438529356729
 20
261.8777868445243
 30
0.0
 42
-0.1477030961524228
  0
SEQEND
  5
208
  8
LAYER_01
  0
POLYLINE
  5
209
  8
LAYER_01
 66
     1
 10
0.0
 20
0.0
 30
0.0
  0
VERTEX
  5
20A
  8
LAYER_01
 10
236.3891108728531
 20
251.086469773959
 30
0.0
 42
-0.1609873407860351
  0
VERTEX
  5
20B
  8
LAYER_01
 10
242.4220321770161
 20
269.0427608806892
 30
0.0
  0
VERTEX
  5
20C
  8
LAYER_01
 10
242.8126811238187
 20
269.5715349735251
 30
0.0
  0
VERTEX
  5
20D
  8
LAYER_01
 10
242.4220321770162
 20
270.1622344760111
 30
0.0
 42
-0.3007561982651641
  0
VERTEX
  5
20E
  8
LAYER_01
 10
242.4220321770163
 20
310.2805850800041
 30
0.0
  0
VERTEX
  5
20F
  8
LAYER_01
 10
242.8126811238181
 20
310.8712845824892
 30
0.0
  0
VERTEX
  5
210
  8
LAYER_01
 10
242.4220321770162
 20
311.4000586753242
 30
0.0
 42
-0.1609873407876096
  0
VERTEX
  5
211
  8
LAYER_01
 10
236.3891108728532
 20
329.3563497822313
 30
0.0
  0
SEQEND
  5
212
  8
LAYER_01
  0
POLYLINE
  5
213
  8
LAYER_01
 66
     1
 10
0.0
 20
0.0
 30
0.0
 70
     1
  0
VERTEX
  5
214
  8
LAYER_01
 10
263.7315551790628
 20
303.2978701294342
 30
0.0
 42
0.0981112689029892
  0
VERTEX
  5
215
  8
LAYER_01
 10
275.4546236183836
 20
290.9210927020583
 30
0.0
  0
VERTEX
  5
216
  8
LAYER_01
 10
276.447984290713
 20
290.2214097780952
 30
0.0
  0
VERTEX
  5
217
  8
LAYER_01
 10
275.4546236183836
 20
289.5217268541321
 30
0.0
 42
0.0981112689029952
  0
VERTEX
  5
218
  8
LAYER_01
 10
263.7315551790627
 20
277.1449494267561
 30
0.0
 42
-0.1696671194251166
  0
SEQEND
  5
219
  8
LAYER_01
  0
POLYLINE
  5
21A
  8
LAYER_01
 66
     1
 10
0.0
 20
0.0
 30
0.0
  0
VERTEX
  5
21B
  8
LAYER_01
 10
251.8445439051894
 20
251.0864697739591
 30
0.0
 42
0.160987340785779
  0
VERTEX
  5
21C
  8
LAYER_01
 10
246.6532019997941
 20
266.53789733085
 30
0.0
 42
0.1609873407857776
  0
VERTEX
  5
21D
  8
LAYER_01
 10
241.4618600943986
 20
251.0864697739592
 30
0.0
  0
SEQEND
  5
21E
  8
LAYER_01
  0
POLYLINE
  5
21F
  8
LAYER_01
 66
     1
 10
0.0
 20
0.0
 30
0.0
  0
VERTEX
  5
220
  8
LAYER_01
 10
251.8445439051894
 20
329.3563497822316
 30
0.0
 42
-0.1609873407876125
  0
VERTEX
  5
221
  8
LAYER_01
 10
246.6532019997941
 20
313.9049222251635
 30
0.0
 42
-0.1609873407876211
  0
VERTEX
  5
222
  8
LAYER_01
 10
241.4618600943985
 20
329.3563497822313
 30
0.0
  0
SEQEND
  5
223
  8
LAYER_01
  0
POLYLINE
  5
224
  8
LAYER_01
 66
     1
 10
0.0
 20
0.0
 30
0.0
 70
     1
  0
VERTEX
  5
225
  8
LAYER_01
 10
246.653201999794
 20
307.4823737592666
 30
0.0
 42
-0.3007561982651654
  0
VERTEX
  5
226
  8
LAYER_01
 10
246.6532019997942
 20
272.9604457967486
 30
0.0
 42
-0.3007561982651567
  0
SEQEND
  5
227
  8
LAYER_01
  0
ENDSEC
  0
EOF
