  0
SECTION
  2
HEADER
  9
$ACADVER
  1
AC1009
  9
$DWGCODEPAGE
  3
ansi_1252
  9
$INSBASE
 10
0.0
 20
0.0
 30
0.0
  9
$EXTMIN
 10
1.000000000000000E+20
 20
1.000000000000000E+20
 30
1.000000000000000E+20
  9
$EXTMAX
 10
-1.000000000000000E+20
 20
-1.000000000000000E+20
 30
-1.000000000000000E+20
  9
$LIMMIN
 10
0.0
 20
0.0
  9
$LIMMAX
 10
12.0
 20
9.0
  9
$ORTHOMODE
 70
     0
  9
$REGENMODE
 70
     1
  9
$FILLMODE
 70
     1
  9
$QTEXTMODE
 70
     0
  9
$MIRRTEXT
 70
     1
  9
$DRAGMODE
 70
     2
  9
$LTSCALE
 40
1.0
  9
$OSMODE
 70
    37
  9
$ATTMODE
 70
     1
  9
$TEXTSIZE
 40
0.2
  9
$TRACEWID
 40
0.05
  9
$TEXTSTYLE
  7
STANDARD
  9
$CLAYER
  8
LAYER_01
  9
$CELTYPE
  6
BYLAYER
  9
$CECOLOR
 62
   256
  9
$DIMSCALE
 40
1.0
  9
$DIMASZ
 40
0.18
  9
$DIMEXO
 40
0.0625
  9
$DIMDLI
 40
0.38
  9
$DIMRND
 40
0.0
  9
$DIMDLE
 40
0.0
  9
$DIMEXE
 40
0.18
  9
$DIMTP
 40
0.0
  9
$DIMTM
 40
0.0
  9
$DIMTXT
 40
0.18
  9
$DIMCEN
 40
0.09
  9
$DIMTSZ
 40
0.0
  9
$DIMTOL
 70
     0
  9
$DIMLIM
 70
     0
  9
$DIMTIH
 70
     1
  9
$DIMTOH
 70
     1
  9
$DIMSE1
 70
     0
  9
$DIMSE2
 70
     0
  9
$DIMTAD
 70
     0
  9
$DIMZIN
 70
     0
  9
$DIMBLK
  1

  9
$DIMASO
 70
     1
  9
$DIMSHO
 70
     1
  9
$DIMPOST
  1

  9
$DIMAPOST
  1

  9
$DIMALT
 70
     0
  9
$DIMALTD
 70
     2
  9
$DIMALTF
 40
25.4
  9
$DIMLFAC
 40
1.0
  9
$DIMTOFL
 70
     0
  9
$DIMTVP
 40
0.0
  9
$DIMTIX
 70
     0
  9
$DIMSOXD
 70
     0
  9
$DIMSAH
 70
     0
  9
$DIMBLK1
  1

  9
$DIMBLK2
  1

  9
$DIMSTYLE
  2
STANDARD_ACAD
  9
$DIMCLRD
 70
     0
  9
$DIMCLRE
 70
     0
  9
$DIMCLRT
 70
     0
  9
$DIMTFAC
 40
1.0
  9
$DIMGAP
 40
0.09
  9
$LUNITS
 70
     2
  9
$LUPREC
 70
     3
  9
$SKETCHINC
 40
0.1
  9
$FILLETRAD
 40
0.5
  9
$AUNITS
 70
     0
  9
$AUPREC
 70
     0
  9
$MENU
  1
.
  9
$ELEVATION
 40
0.0
  9
$PELEVATION
 40
0.0
  9
$THICKNESS
 40
0.0
  9
$LIMCHECK
 70
     0
  9
$CHAMFERA
 40
0.0
  9
$CHAMFERB
 40
0.0
  9
$SKPOLY
 70
     0
  9
$TDCREATE
 40
2459881.284006586
  9
$TDUPDATE
 40
2459881.284006725
  9
$TDINDWG
 40
0.0000000116
  9
$TDUSRTIMER
 40
0.0000000116
  9
$USRTIMER
 70
     1
  9
$ANGBASE
 50
0.0
  9
$ANGDIR
 70
     0
  9
$PDMODE
 70
     0
  9
$PDSIZE
 40
0.0
  9
$PLINEWID
 40
0.0
  9
$COORDS
 70
     1
  9
$SPLFRAME
 70
     0
  9
$SPLINETYPE
 70
     6
  9
$SPLINESEGS
 70
     8
  9
$ATTDIA
 70
     0
  9
$ATTREQ
 70
     1
  9
$HANDLING
 70
     1
  9
$HANDSEED
  5
807
  9
$SURFTAB1
 70
     6
  9
$SURFTAB2
 70
     6
  9
$SURFTYPE
 70
     6
  9
$SURFU
 70
     6
  9
$SURFV
 70
     6
  9
$UCSNAME
  2

  9
$UCSORG
 10
0.0
 20
0.0
 30
0.0
  9
$UCSXDIR
 10
1.0
 20
0.0
 30
0.0
  9
$UCSYDIR
 10
0.0
 20
1.0
 30
0.0
  9
$PUCSNAME
  2

  9
$PUCSORG
 10
0.0
 20
0.0
 30
0.0
  9
$PUCSXDIR
 10
1.0
 20
0.0
 30
0.0
  9
$PUCSYDIR
 10
0.0
 20
1.0
 30
0.0
  9
$USERI1
 70
     0
  9
$USERI2
 70
     0
  9
$USERI3
 70
     0
  9
$USERI4
 70
     0
  9
$USERI5
 70
     0
  9
$USERR1
 40
0.0
  9
$USERR2
 40
0.0
  9
$USERR3
 40
0.0
  9
$USERR4
 40
0.0
  9
$USERR5
 40
0.0
  9
$WORLDVIEW
 70
     1
  9
$SHADEDGE
 70
     3
  9
$SHADEDIF
 70
    70
  9
$TILEMODE
 70
     1
  9
$MAXACTVP
 70
    64
  9
$PLIMCHECK
 70
     0
  9
$PEXTMIN
 10
1.000000000000000E+20
 20
1.000000000000000E+20
 30
1.000000000000000E+20
  9
$PEXTMAX
 10
-1.000000000000000E+20
 20
-1.000000000000000E+20
 30
-1.000000000000000E+20
  9
$PLIMMIN
 10
0.0
 20
0.0
  9
$PLIMMAX
 10
12.0
 20
9.0
  9
$UNITMODE
 70
     0
  9
$VISRETAIN
 70
     1
  9
$PLINEGEN
 70
     0
  9
$PSLTSCALE
 70
     1
  0
ENDSEC
  0
SECTION
  2
TABLES
  0
TABLE
  2
VPORT
 70
     1
  0
VPORT
  2
*ACTIVE
 70
     0
 10
0.0
 20
0.0
 11
1.0
 21
1.0
 12
10.42990654205607
 22
4.5
 13
0.0
 23
0.0
 14
0.5
 24
0.5
 15
0.5
 25
0.5
 16
0.0
 26
0.0
 36
1.0
 17
0.0
 27
0.0
 37
0.0
 40
9.0
 41
1.972972972850329
 42
50.0
 43
0.0
 44
0.0
 50
0.0
 51
0.0
 71
     0
 72
   100
 73
     1
 74
     3
 75
     0
 76
     0
 77
     0
 78
     0
  0
ENDTAB
  0
TABLE
  2
LTYPE
 70
     1
  0
LTYPE
  2
CONTINUOUS
 70
     0
  3
Solid line
 72
    65
 73
     0
 40
0.0
  0
ENDTAB
  0
TABLE
  2
LAYER
 70
     2
  0
LAYER
  2
0
 70
     0
 62
     7
  6
CONTINUOUS
  0
LAYER
  2
LAYER_01
 70
     0
 62
     7
  6
CONTINUOUS
  0
ENDTAB
  0
TABLE
  2
STYLE
 70
     1
  0
STYLE
  2
STANDARD
 70
     0
 40
0.0
 41
1.0
 50
0.0
 71
     0
 42
0.2
  3
txt
  4

  0
ENDTAB
  0
TABLE
  2
VIEW
 70
     0
  0
ENDTAB
  0
TABLE
  2
UCS
 70
     0
  0
ENDTAB
  0
TABLE
  2
APPID
 70
     2
  0
APPID
  2
ACAD
 70
     0
  0
APPID
  2
RHINO
 70
     0
  0
ENDTAB
  0
TABLE
  2
DIMSTYLE
 70
     1
  0
DIMSTYLE
  2
STANDARD_ACAD
 70
     0
  3

  4

  5

  6

  7

 40
1.0
 41
0.18
 42
0.0625
 43
0.38
 44
0.18
 45
0.0
 46
0.0
 47
0.0
 48
0.0
140
0.18
141
0.09
142
0.0
143
25.4
144
1.0
145
0.0
146
1.0
147
0.09
 71
     0
 72
     0
 73
     1
 74
     1
 75
     0
 76
     0
 77
     0
 78
     0
170
     0
171
     2
172
     0
173
     0
174
     0
175
     0
176
     0
177
     0
178
     0
  0
ENDTAB
  0
ENDSEC
  0
SECTION
  2
BLOCKS
  0
BLOCK
  8
0
  2
$MODEL_SPACE
 70
     0
 10
0.0
 20
0.0
 30
0.0
  3
$MODEL_SPACE
  1

  0
ENDBLK
  5
21
  8
0
  0
BLOCK
 67
     1
  8
0
  2
$PAPER_SPACE
 70
     0
 10
0.0
 20
0.0
 30
0.0
  3
$PAPER_SPACE
  1

  0
ENDBLK
  5
1D
 67
     1
  8
0
  0
ENDSEC
  0
SECTION
  2
ENTITIES
  0
POLYLINE
  5
70
  8
LAYER_01
 66
     1
 10
0.0
 20
0.0
 30
0.0
 70
     1
  0
VERTEX
  5
71
  8
LAYER_01
 10
-273.1698736121655
 20
-1068.079243003094
 30
0.0
  0
VERTEX
  5
72
  8
LAYER_01
 10
702.8056733375251
 20
-1068.079243003094
 30
0.0
  0
VERTEX
  5
73
  8
LAYER_01
 10
702.8056733375251
 20
2507.553527315957
 30
0.0
  0
VERTEX
  5
74
  8
LAYER_01
 10
-273.1698736121655
 20
2507.553527315957
 30
0.0
  0
SEQEND
  5
75
  8
LAYER_01
  0
POLYLINE
  5
76
  8
LAYER_01
 66
     1
 10
0.0
 20
0.0
 30
0.0
 70
     1
  0
VERTEX
  5
77
  8
LAYER_01
 10
-73.16987361216553
 20
-868.0792430030936
 30
0.0
  0
VERTEX
  5
78
  8
LAYER_01
 10
502.8056733375252
 20
-868.0792430030936
 30
0.0
  0
VERTEX
  5
79
  8
LAYER_01
 10
502.8056733375252
 20
2307.553527315957
 30
0.0
  0
VERTEX
  5
7A
  8
LAYER_01
 10
-73.16987361216553
 20
2307.553527315957
 30
0.0
  0
SEQEND
  5
7B
  8
LAYER_01
  0
POLYLINE
  5
7C
  8
LAYER_01
 66
     1
 10
0.0
 20
0.0
 30
0.0
 70
     1
  0
VERTEX
  5
7D
  8
LAYER_01
 10
327.4981127982322
 20
847.0252542220383
 30
0.0
  0
VERTEX
  5
7E
  8
LAYER_01
 10
268.1200032322515
 20
812.059093342818
 30
0.0
  0
VERTEX
  5
7F
  8
LAYER_01
 10
268.7125320434795
 20
880.9651250952628
 30
0.0
  0
VERTEX
  5
80
  8
LAYER_01
 10
307.4632032496908
 20
949.4362898342875
 30
0.0
  0
VERTEX
  5
81
  8
LAYER_01
 10
347.4347646071176
 20
949.4362898342877
 30
0.0
  0
VERTEX
  5
82
  8
LAYER_01
 10
367.4205452858312
 20
914.8199022698275
 30
0.0
  0
SEQEND
  5
83
  8
LAYER_01
  0
POLYLINE
  5
84
  8
LAYER_01
 66
     1
 10
0.0
 20
0.0
 30
0.0
 70
     1
  0
VERTEX
  5
85
  8
LAYER_01
 10
376.0458828015113
 20
773.6317743372313
 30
0.0
  0
VERTEX
  5
86
  8
LAYER_01
 10
307.1398510490661
 20
773.0392455260031
 30
0.0
  0
VERTEX
  5
87
  8
LAYER_01
 10
342.1060119282861
 20
832.4173550919837
 30
0.0
  0
VERTEX
  5
88
  8
LAYER_01
 10
409.9006599760756
 20
872.3397875795829
 30
0.0
  0
VERTEX
  5
89
  8
LAYER_01
 10
444.5170475405358
 20
852.3540069008695
 30
0.0
  0
VERTEX
  5
8A
  8
LAYER_01
 10
444.5170475405358
 20
812.3824455434425
 30
0.0
  0
SEQEND
  5
8B
  8
LAYER_01
  0
POLYLINE
  5
8C
  8
LAYER_01
 66
     1
 10
0.0
 20
0.0
 30
0.0
 70
     1
  0
VERTEX
  5
8D
  8
LAYER_01
 10
248.4032066158039
 20
845.079213346876
 30
0.0
  0
VERTEX
  5
8E
  8
LAYER_01
 10
248.0174692309018
 20
800.2212554071031
 30
0.0
  0
VERTEX
  5
8F
  8
LAYER_01
 10
234.203944193259
 20
792.0868445559352
 30
0.0
  0
VERTEX
  5
90
  8
LAYER_01
 10
226.308286020432
 20
806.0382135166878
 30
0.0
  0
SEQEND
  5
91
  8
LAYER_01
  0
POLYLINE
  5
92
  8
LAYER_01
 66
     1
 10
0.0
 20
0.0
 30
0.0
 70
     1
  0
VERTEX
  5
93
  8
LAYER_01
 10
340.1599710531243
 20
753.3224489095555
 30
0.0
  0
VERTEX
  5
94
  8
LAYER_01
 10
301.118971222936
 20
731.2275283141837
 30
0.0
  0
VERTEX
  5
95
  8
LAYER_01
 10
287.1676022621833
 20
739.1231864870108
 30
0.0
  0
VERTEX
  5
96
  8
LAYER_01
 10
295.3020131133514
 20
752.9367115246534
 30
0.0
  0
SEQEND
  5
97
  8
LAYER_01
  0
POLYLINE
  5
98
  8
LAYER_01
 66
     1
 10
0.0
 20
0.0
 30
0.0
 70
     1
  0
VERTEX
  5
99
  8
LAYER_01
 10
306.5746643000004
 20
811.4939065937522
 30
0.0
  0
VERTEX
  5
9A
  8
LAYER_01
 10
283.8116269555994
 20
772.838644148466
 30
0.0
  0
VERTEX
  5
9B
  8
LAYER_01
 10
267.7815579316044
 20
772.7008002253561
 30
0.0
  0
VERTEX
  5
9C
  8
LAYER_01
 10
267.9194018547144
 20
788.7308692493513
 30
0.0
  0
SEQEND
  5
9D
  8
LAYER_01
  0
POLYLINE
  5
9E
  8
LAYER_01
 66
     1
 10
0.0
 20
0.0
 30
0.0
 70
     1
  0
VERTEX
  5
9F
  8
LAYER_01
 10
269.0670961635805
 20
922.1978990211701
 30
0.0
  0
VERTEX
  5
A0
  8
LAYER_01
 10
295.8012602118566
 20
969.4362898342877
 30
0.0
  0
VERTEX
  5
A1
  8
LAYER_01
 10
333.4832489205502
 20
969.4362898342877
 30
0.0
  0
VERTEX
  5
A2
  8
LAYER_01
 10
311.5191304734559
 20
997.2092509347931
 30
0.0
  0
VERTEX
  5
A3
  8
LAYER_01
 10
333.7747694113921
 20
1036.534234803651
 30
0.0
  0
VERTEX
  5
A4
  8
LAYER_01
 10
289.1797325934522
 20
1025.456741487373
 30
0.0
  0
VERTEX
  5
A5
  8
LAYER_01
 10
270.1618148850747
 20
1049.504321179663
 30
0.0
  0
VERTEX
  5
A6
  8
LAYER_01
 10
269.8802534613696
 20
1016.761136317725
 30
0.0
  0
VERTEX
  5
A7
  8
LAYER_01
 10
234.81789986268
 20
996.5178770290995
 30
0.0
  0
VERTEX
  5
A8
  8
LAYER_01
 10
269.5338263553916
 20
976.4746275233654
 30
0.0
  0
SEQEND
  5
A9
  8
LAYER_01
  0
POLYLINE
  5
AA
  8
LAYER_01
 66
     1
 10
0.0
 20
0.0
 30
0.0
 70
     1
  0
VERTEX
  5
AB
  8
LAYER_01
 10
420.6872485853606
 20
1005.275247243593
 30
0.0
  0
VERTEX
  5
AC
  8
LAYER_01
 10
407.8945575600504
 20
1054.945733400966
 30
0.0
  0
VERTEX
  5
AD
  8
LAYER_01
 10
360.5146612032988
 20
1043.176475594081
 30
0.0
  0
VERTEX
  5
AE
  8
LAYER_01
 10
335.550103418923
 20
999.0649209943016
 30
0.0
  0
VERTEX
  5
AF
  8
LAYER_01
 10
358.9817699909102
 20
969.4362898342877
 30
0.0
  0
VERTEX
  5
B0
  8
LAYER_01
 10
396.1510616194621
 20
963.6088943653067
 30
0.0
  0
SEQEND
  5
B1
  8
LAYER_01
  0
POLYLINE
  5
B2
  8
LAYER_01
 66
     1
 10
0.0
 20
0.0
 30
0.0
 70
     1
  0
VERTEX
  5
B3
  8
LAYER_01
 10
270.8187492530604
 20
1125.900168203327
 30
0.0
  0
VERTEX
  5
B4
  8
LAYER_01
 10
270.4360852694525
 20
1081.399620541602
 30
0.0
  0
VERTEX
  5
B5
  8
LAYER_01
 10
296.8699466266809
 20
1047.974805201127
 30
0.0
  0
VERTEX
  5
B6
  8
LAYER_01
 10
347.3453417256421
 20
1060.51299087699
 30
0.0
  0
VERTEX
  5
B7
  8
LAYER_01
 10
371.3907759687754
 20
1103.000484332832
 30
0.0
  0
VERTEX
  5
B8
  8
LAYER_01
 10
327.6022265067476
 20
1128.281815152157
 30
0.0
  0
SEQEND
  5
B9
  8
LAYER_01
  0
POLYLINE
  5
BA
  8
LAYER_01
 66
     1
 10
0.0
 20
0.0
 30
0.0
 70
     1
  0
VERTEX
  5
BB
  8
LAYER_01
 10
502.8056733375251
 20
1265.152003864729
 30
0.0
  0
VERTEX
  5
BC
  8
LAYER_01
 10
502.8056733375251
 20
1182.00865618668
 30
0.0
  0
VERTEX
  5
BD
  8
LAYER_01
 10
481.6459379364109
 20
1174.550062894359
 30
0.0
  0
VERTEX
  5
BE
  8
LAYER_01
 10
473.5869422547842
 20
1216.72560475629
 30
0.0
  0
SEQEND
  5
BF
  8
LAYER_01
  0
POLYLINE
  5
C0
  8
LAYER_01
 66
     1
 10
0.0
 20
0.0
 30
0.0
 70
     1
  0
VERTEX
  5
C1
  8
LAYER_01
 10
436.3346043114223
 20
1193.698287860546
 30
0.0
  0
VERTEX
  5
C2
  8
LAYER_01
 10
452.5043317938868
 20
1220.497592536821
 30
0.0
  0
VERTEX
  5
C3
  8
LAYER_01
 10
441.1743912081089
 20
1279.791132618755
 30
0.0
  0
VERTEX
  5
C4
  8
LAYER_01
 10
391.3723656694495
 20
1287.728045569535
 30
0.0
  0
VERTEX
  5
C5
  8
LAYER_01
 10
354.2374468647811
 20
1267.399404449132
 30
0.0
  0
VERTEX
  5
C6
  8
LAYER_01
 10
375.2897502454929
 20
1228.942550788152
 30
0.0
  0
SEQEND
  5
C7
  8
LAYER_01
  0
POLYLINE
  5
C8
  8
LAYER_01
 66
     1
 10
0.0
 20
0.0
 30
0.0
 70
     1
  0
VERTEX
  5
C9
  8
LAYER_01
 10
502.8056733375251
 20
1287.822150185516
 30
0.0
  0
VERTEX
  5
CA
  8
LAYER_01
 10
493.1255256348075
 20
1287.822150185516
 30
0.0
  0
VERTEX
  5
CB
  8
LAYER_01
 10
467.9686968607159
 20
1246.127847066499
 30
0.0
  0
VERTEX
  5
CC
  8
LAYER_01
 10
458.1843685235596
 20
1297.332657898632
 30
0.0
  0
VERTEX
  5
CD
  8
LAYER_01
 10
420.0261745469008
 20
1303.41390179737
 30
0.0
  0
VERTEX
  5
CE
  8
LAYER_01
 10
449.0774211160029
 20
1319.317325976379
 30
0.0
  0
VERTEX
  5
CF
  8
LAYER_01
 10
446.0869305725591
 20
1350.679562966683
 30
0.0
  0
VERTEX
  5
D0
  8
LAYER_01
 10
471.7949916749973
 20
1331.012193817277
 30
0.0
  0
VERTEX
  5
D1
  8
LAYER_01
 10
502.8056733375251
 20
1348.494725761252
 30
0.0
  0
SEQEND
  5
D2
  8
LAYER_01
  0
POLYLINE
  5
D3
  8
LAYER_01
 66
     1
 10
0.0
 20
0.0
 30
0.0
 70
     1
  0
VERTEX
  5
D4
  8
LAYER_01
 10
302.7768076602689
 20
1466.500985455137
 30
0.0
  0
VERTEX
  5
D5
  8
LAYER_01
 10
270.3271579095668
 20
1466.500985455137
 30
0.0
  0
VERTEX
  5
D6
  8
LAYER_01
 10
270.3271579095668
 20
1397.530174879934
 30
0.0
  0
VERTEX
  5
D7
  8
LAYER_01
 10
292.4608931530465
 20
1360.173553364919
 30
0.0
  0
VERTEX
  5
D8
  8
LAYER_01
 10
326.0214680195445
 20
1378.85074285584
 30
0.0
  0
VERTEX
  5
D9
  8
LAYER_01
 10
346.9323190389081
 20
1432.234837999009
 30
0.0
  0
SEQEND
  5
DA
  8
LAYER_01
  0
POLYLINE
  5
DB
  8
LAYER_01
 66
     1
 10
0.0
 20
0.0
 30
0.0
 70
     1
  0
VERTEX
  5
DC
  8
LAYER_01
 10
502.8056733375251
 20
1050.222068729042
 30
0.0
  0
VERTEX
  5
DD
  8
LAYER_01
 10
461.2750445517571
 20
1074.199788438122
 30
0.0
  0
VERTEX
  5
DE
  8
LAYER_01
 10
435.0556983864587
 20
1029.675163194615
 30
0.0
  0
VERTEX
  5
DF
  8
LAYER_01
 10
422.3169794698706
 20
1079.136090559867
 30
0.0
  0
VERTEX
  5
E0
  8
LAYER_01
 10
374.0852335175488
 20
1067.155231667419
 30
0.0
  0
VERTEX
  5
E1
  8
LAYER_01
 10
398.5629838907471
 20
1110.40661354219
 30
0.0
  0
VERTEX
  5
E2
  8
LAYER_01
 10
364.8931622423726
 20
1129.845894134446
 30
0.0
  0
VERTEX
  5
E3
  8
LAYER_01
 10
428.0869324865136
 20
1132.496405469189
 30
0.0
  0
VERTEX
  5
E4
  8
LAYER_01
 10
393.7741454953713
 20
1195.176569447242
 30
0.0
  0
VERTEX
  5
E5
  8
LAYER_01
 10
443.3241752436134
 20
1166.568846433742
 30
0.0
  0
VERTEX
  5
E6
  8
LAYER_01
 10
458.122577187955
 20
1191.095350226611
 30
0.0
  0
VERTEX
  5
E7
  8
LAYER_01
 10
466.3654129588405
 20
1147.957708906294
 30
0.0
  0
VERTEX
  5
E8
  8
LAYER_01
 10
502.8056733375251
 20
1160.802533119767
 30
0.0
  0
VERTEX
  5
E9
  8
LAYER_01
 10
502.8056733375251
 20
1099.973701265452
 30
0.0
  0
VERTEX
  5
EA
  8
LAYER_01
 10
491.0911325421604
 20
1096.848953043112
 30
0.0
  0
VERTEX
  5
EB
  8
LAYER_01
 10
502.8056733375251
 20
1051.364626464389
 30
0.0
  0
SEQEND
  5
EC
  8
LAYER_01
  0
POLYLINE
  5
ED
  8
LAYER_01
 66
     1
 10
0.0
 20
0.0
 30
0.0
 70
     1
  0
VERTEX
  5
EE
  8
LAYER_01
 10
234.81789986268
 20
1204.944881884272
 30
0.0
  0
VERTEX
  5
EF
  8
LAYER_01
 10
332.5698707434239
 20
1148.507755182459
 30
0.0
  0
VERTEX
  5
F0
  8
LAYER_01
 10
395.0858314906575
 20
1151.129837421305
 30
0.0
  0
VERTEX
  5
F1
  8
LAYER_01
 10
360.4370674477785
 20
1214.423740432015
 30
0.0
  0
VERTEX
  5
F2
  8
LAYER_01
 10
270.3271579095668
 20
1266.448720960555
 30
0.0
  0
VERTEX
  5
F3
  8
LAYER_01
 10
270.3271579095669
 20
1225.446161576367
 30
0.0
  0
SEQEND
  5
F4
  8
LAYER_01
  0
POLYLINE
  5
F5
  8
LAYER_01
 66
     1
 10
0.0
 20
0.0
 30
0.0
 70
     1
  0
VERTEX
  5
F6
  8
LAYER_01
 10
341.9526721979001
 20
1248.189721772925
 30
0.0
  0
VERTEX
  5
F7
  8
LAYER_01
 10
327.0904045113232
 20
1275.339057556138
 30
0.0
  0
VERTEX
  5
F8
  8
LAYER_01
 10
359.1131703101622
 20
1292.869170306121
 30
0.0
  0
VERTEX
  5
F9
  8
LAYER_01
 10
296.2653308428697
 20
1302.885185229235
 30
0.0
  0
VERTEX
  5
FA
  8
LAYER_01
 10
314.5566371481677
 20
1349.581746511732
 30
0.0
  0
VERTEX
  5
FB
  8
LAYER_01
 10
285.1771033447981
 20
1333.23139726464
 30
0.0
  0
VERTEX
  5
FC
  8
LAYER_01
 10
270.3271579095668
 20
1358.294667654394
 30
0.0
  0
VERTEX
  5
FD
  8
LAYER_01
 10
270.3271579095668
 20
1289.54273172814
 30
0.0
  0
SEQEND
  5
FE
  8
LAYER_01
  0
POLYLINE
  5
FF
  8
LAYER_01
 66
     1
 10
0.0
 20
0.0
 30
0.0
 70
     1
  0
VERTEX
  5
100
  8
LAYER_01
 10
427.9171310883709
 20
1330.534286357127
 30
0.0
  0
VERTEX
  5
101
  8
LAYER_01
 10
387.7669791876135
 20
1308.555026533955
 30
0.0
  0
VERTEX
  5
102
  8
LAYER_01
 10
323.9496903308162
 20
1318.725541908235
 30
0.0
  0
VERTEX
  5
103
  8
LAYER_01
 10
342.023903180641
 20
1364.867877173283
 30
0.0
  0
VERTEX
  5
104
  8
LAYER_01
 10
391.5284935924055
 20
1392.418257924178
 30
0.0
  0
VERTEX
  5
105
  8
LAYER_01
 10
424.4153168448588
 20
1367.258939588967
 30
0.0
  0
SEQEND
  5
106
  8
LAYER_01
  0
POLYLINE
  5
107
  8
LAYER_01
 66
     1
 10
0.0
 20
0.0
 30
0.0
 70
     1
  0
VERTEX
  5
108
  8
LAYER_01
 10
502.8056733375251
 20
1454.058271618714
 30
0.0
  0
VERTEX
  5
109
  8
LAYER_01
 10
502.8056733375251
 20
1371.454024717998
 30
0.0
  0
VERTEX
  5
10A
  8
LAYER_01
 10
473.4673281449748
 20
1354.91428648864
 30
0.0
  0
VERTEX
  5
10B
  8
LAYER_01
 10
443.4968552006551
 20
1377.842517156426
 30
0.0
  0
VERTEX
  5
10C
  8
LAYER_01
 10
439.5961471513987
 20
1418.750498136
 30
0.0
  0
SEQEND
  5
10D
  8
LAYER_01
  0
POLYLINE
  5
10E
  8
LAYER_01
 66
     1
 10
0.0
 20
0.0
 30
0.0
 70
     1
  0
VERTEX
  5
10F
  8
LAYER_01
 10
383.5026839452995
 20
1466.500985455137
 30
0.0
  0
VERTEX
  5
110
  8
LAYER_01
 10
403.6089590626253
 20
1493.747665049043
 30
0.0
  0
VERTEX
  5
111
  8
LAYER_01
 10
423.715234179951
 20
1466.500985455137
 30
0.0
  0
VERTEX
  5
112
  8
LAYER_01
 10
484.0691031498319
 20
1466.500985455137
 30
0.0
  0
VERTEX
  5
113
  8
LAYER_01
 10
418.4474537743884
 20
1429.845840708636
 30
0.0
  0
VERTEX
  5
114
  8
LAYER_01
 10
421.8252414729549
 20
1394.42189377871
 30
0.0
  0
VERTEX
  5
115
  8
LAYER_01
 10
393.2635082817233
 20
1416.272400045226
 30
0.0
  0
VERTEX
  5
116
  8
LAYER_01
 10
353.4887340520178
 20
1394.13687351739
 30
0.0
  0
VERTEX
  5
117
  8
LAYER_01
 10
371.0094029197284
 20
1438.866045607981
 30
0.0
  0
VERTEX
  5
118
  8
LAYER_01
 10
335.3988954230396
 20
1466.500985455137
 30
0.0
  0
SEQEND
  5
119
  8
LAYER_01
  0
POLYLINE
  5
11A
  8
LAYER_01
 66
     1
 10
0.0
 20
0.0
 30
0.0
 70
     1
  0
VERTEX
  5
11B
  8
LAYER_01
 10
489.5944041086802
 20
849.4225937194794
 30
0.0
  0
VERTEX
  5
11C
  8
LAYER_01
 10
502.8056733375251
 20
855.7278352231226
 30
0.0
  0
VERTEX
  5
11D
  8
LAYER_01
 10
502.8056733375251
 20
919.8053888281942
 30
0.0
  0
VERTEX
  5
11E
  8
LAYER_01
 10
464.5170475405357
 20
900.4505984567402
 30
0.0
  0
VERTEX
  5
11F
  8
LAYER_01
 10
464.5170475405357
 20
863.9010122846619
 30
0.0
  0
SEQEND
  5
120
  8
LAYER_01
  0
POLYLINE
  5
121
  8
LAYER_01
 66
     1
 10
0.0
 20
0.0
 30
0.0
 70
     1
  0
VERTEX
  5
122
  8
LAYER_01
 10
390.5720248804371
 20
914.7203633415761
 30
0.0
  0
VERTEX
  5
123
  8
LAYER_01
 10
363.0294604265177
 20
867.9487027202696
 30
0.0
  0
VERTEX
  5
124
  8
LAYER_01
 10
409.8011210478241
 20
895.4912671741888
 30
0.0
  0
VERTEX
  5
125
  8
LAYER_01
 10
444.5170475405357
 20
875.4480176684544
 30
0.0
  0
VERTEX
  5
126
  8
LAYER_01
 10
444.5170475405358
 20
912.7507192303801
 30
0.0
  0
VERTEX
  5
127
  8
LAYER_01
 10
479.2926142205979
 20
930.3296683080997
 30
0.0
  0
VERTEX
  5
128
  8
LAYER_01
 10
438.3357799618425
 20
936.7508740918531
 30
0.0
  0
VERTEX
  5
129
  8
LAYER_01
 10
427.7496503017285
 20
977.853891877742
 30
0.0
  0
VERTEX
  5
12A
  8
LAYER_01
 10
406.4857034841359
 20
941.7443238785129
 30
0.0
  0
VERTEX
  5
12B
  8
LAYER_01
 10
371.8330872544676
 20
947.1771553896193
 30
0.0
  0
SEQEND
  5
12C
  8
LAYER_01
  0
POLYLINE
  5
12D
  8
LAYER_01
 66
     1
 10
0.0
 20
0.0
 30
0.0
 70
     1
  0
VERTEX
  5
12E
  8
LAYER_01
 10
502.8056733375251
 20
1027.128057961457
 30
0.0
  0
VERTEX
  5
12F
  8
LAYER_01
 10
468.4472524737197
 20
1046.96490149611
 30
0.0
  0
VERTEX
  5
130
  8
LAYER_01
 10
442.1181001028266
 20
1002.253807828764
 30
0.0
  0
VERTEX
  5
131
  8
LAYER_01
 10
454.424140789368
 20
954.4728505334294
 30
0.0
  0
VERTEX
  5
132
  8
LAYER_01
 10
502.8056733375251
 20
946.8876017648759
 30
0.0
  0
SEQEND
  5
133
  8
LAYER_01
  0
POLYLINE
  5
134
  8
LAYER_01
 66
     1
 10
0.0
 20
0.0
 30
0.0
 70
     1
  0
VERTEX
  5
135
  8
LAYER_01
 10
102.1376869271275
 20
847.0252542220383
 30
0.0
  0
VERTEX
  5
136
  8
LAYER_01
 10
161.5157964931082
 20
812.059093342818
 30
0.0
  0
VERTEX
  5
137
  8
LAYER_01
 10
160.9232676818801
 20
880.9651250952628
 30
0.0
  0
VERTEX
  5
138
  8
LAYER_01
 10
122.1725964756689
 20
949.4362898342875
 30
0.0
  0
VERTEX
  5
139
  8
LAYER_01
 10
82.20103511824203
 20
949.4362898342877
 30
0.0
  0
VERTEX
  5
13A
  8
LAYER_01
 10
62.21525443952845
 20
914.8199022698275
 30
0.0
  0
SEQEND
  5
13B
  8
LAYER_01
  0
POLYLINE
  5
13C
  8
LAYER_01
 66
     1
 10
0.0
 20
0.0
 30
0.0
 70
     1
  0
VERTEX
  5
13D
  8
LAYER_01
 10
53.58991692384842
 20
773.6317743372313
 30
0.0
  0
VERTEX
  5
13E
  8
LAYER_01
 10
122.4959486762936
 20
773.0392455260031
 30
0.0
  0
VERTEX
  5
13F
  8
LAYER_01
 10
87.52978779707354
 20
832.4173550919837
 30
0.0
  0
VERTEX
  5
140
  8
LAYER_01
 10
19.73513974928409
 20
872.3397875795829
 30
0.0
  0
VERTEX
  5
141
  8
LAYER_01
 10
-14.8812478151761
 20
852.3540069008695
 30
0.0
  0
VERTEX
  5
142
  8
LAYER_01
 10
-14.8812478151761
 20
812.3824455434425
 30
0.0
  0
SEQEND
  5
143
  8
LAYER_01
  0
POLYLINE
  5
144
  8
LAYER_01
 66
     1
 10
0.0
 20
0.0
 30
0.0
 70
     1
  0
VERTEX
  5
145
  8
LAYER_01
 10
181.2325931095558
 20
845.079213346876
 30
0.0
  0
VERTEX
  5
146
  8
LAYER_01
 10
181.6183304944579
 20
800.2212554071031
 30
0.0
  0
VERTEX
  5
147
  8
LAYER_01
 10
195.4318555321007
 20
792.0868445559352
 30
0.0
  0
VERTEX
  5
148
  8
LAYER_01
 10
203.3275137049277
 20
806.0382135166878
 30
0.0
  0
SEQEND
  5
149
  8
LAYER_01
  0
POLYLINE
  5
14A
  8
LAYER_01
 66
     1
 10
0.0
 20
0.0
 30
0.0
 70
     1
  0
VERTEX
  5
14B
  8
LAYER_01
 10
89.47582867223542
 20
753.3224489095555
 30
0.0
  0
VERTEX
  5
14C
  8
LAYER_01
 10
128.5168285024237
 20
731.2275283141837
 30
0.0
  0
VERTEX
  5
14D
  8
LAYER_01
 10
142.4681974631764
 20
739.1231864870108
 30
0.0
  0
VERTEX
  5
14E
  8
LAYER_01
 10
134.3337866120083
 20
752.9367115246534
 30
0.0
  0
SEQEND
  5
14F
  8
LAYER_01
  0
POLYLINE
  5
150
  8
LAYER_01
 66
     1
 10
0.0
 20
0.0
 30
0.0
 70
     1
  0
VERTEX
  5
151
  8
LAYER_01
 10
123.0611354253593
 20
811.4939065937522
 30
0.0
  0
VERTEX
  5
152
  8
LAYER_01
 10
145.8241727697603
 20
772.838644148466
 30
0.0
  0
VERTEX
  5
153
  8
LAYER_01
 10
161.8542417937553
 20
772.7008002253561
 30
0.0
  0
VERTEX
  5
154
  8
LAYER_01
 10
161.7163978706453
 20
788.7308692493513
 30
0.0
  0
SEQEND
  5
155
  8
LAYER_01
  0
POLYLINE
  5
156
  8
LAYER_01
 66
     1
 10
0.0
 20
0.0
 30
0.0
 70
     1
  0
VERTEX
  5
157
  8
LAYER_01
 10
160.5687035617792
 20
922.1978990211701
 30
0.0
  0
VERTEX
  5
158
  8
LAYER_01
 10
133.834539513503
 20
969.4362898342877
 30
0.0
  0
VERTEX
  5
159
  8
LAYER_01
 10
96.1525508048095
 20
969.4362898342877
 30
0.0
  0
VERTEX
  5
15A
  8
LAYER_01
 10
118.1166692519038
 20
997.2092509347931
 30
0.0
  0
VERTEX
  5
15B
  8
LAYER_01
 10
95.8610303139676
 20
1036.534234803651
 30
0.0
  0
VERTEX
  5
15C
  8
LAYER_01
 10
140.4560671319074
 20
1025.456741487373
 30
0.0
  0
VERTEX
  5
15D
  8
LAYER_01
 10
159.473984840285
 20
1049.504321179663
 30
0.0
  0
VERTEX
  5
15E
  8
LAYER_01
 10
159.7555462639901
 20
1016.761136317725
 30
0.0
  0
VERTEX
  5
15F
  8
LAYER_01
 10
194.8178998626797
 20
996.5178770290995
 30
0.0
  0
VERTEX
  5
160
  8
LAYER_01
 10
160.1019733699681
 20
976.4746275233654
 30
0.0
  0
SEQEND
  5
161
  8
LAYER_01
  0
POLYLINE
  5
162
  8
LAYER_01
 66
     1
 10
0.0
 20
0.0
 30
0.0
 70
     1
  0
VERTEX
  5
163
  8
LAYER_01
 10
8.94855113999904
 20
1005.275247243593
 30
0.0
  0
VERTEX
  5
164
  8
LAYER_01
 10
21.7412421653093
 20
1054.945733400966
 30
0.0
  0
VERTEX
  5
165
  8
LAYER_01
 10
69.12113852206085
 20
1043.176475594081
 30
0.0
  0
VERTEX
  5
166
  8
LAYER_01
 10
94.08569630643672
 20
999.0649209943016
 30
0.0
  0
VERTEX
  5
167
  8
LAYER_01
 10
70.65402973444947
 20
969.4362898342877
 30
0.0
  0
VERTEX
  5
168
  8
LAYER_01
 10
33.48473810589758
 20
963.6088943653067
 30
0.0
  0
SEQEND
  5
169
  8
LAYER_01
  0
POLYLINE
  5
16A
  8
LAYER_01
 66
     1
 10
0.0
 20
0.0
 30
0.0
 70
     1
  0
VERTEX
  5
16B
  8
LAYER_01
 10
158.8170504722992
 20
1125.900168203327
 30
0.0
  0
VERTEX
  5
16C
  8
LAYER_01
 10
159.1997144559072
 20
1081.399620541602
 30
0.0
  0
VERTEX
  5
16D
  8
LAYER_01
 10
132.7658530986788
 20
1047.974805201127
 30
0.0
  0
VERTEX
  5
16E
  8
LAYER_01
 10
82.29045799971755
 20
1060.51299087699
 30
0.0
  0
VERTEX
  5
16F
  8
LAYER_01
 10
58.24502375658426
 20
1103.000484332832
 30
0.0
  0
VERTEX
  5
170
  8
LAYER_01
 10
102.0335732186121
 20
1128.281815152157
 30
0.0
  0
SEQEND
  5
171
  8
LAYER_01
  0
POLYLINE
  5
172
  8
LAYER_01
 66
     1
 10
0.0
 20
0.0
 30
0.0
 70
     1
  0
VERTEX
  5
173
  8
LAYER_01
 10
-73.16987361216547
 20
1265.152003864729
 30
0.0
  0
VERTEX
  5
174
  8
LAYER_01
 10
-73.16987361216547
 20
1182.00865618668
 30
0.0
  0
VERTEX
  5
175
  8
LAYER_01
 10
-52.01013821105124
 20
1174.550062894359
 30
0.0
  0
VERTEX
  5
176
  8
LAYER_01
 10
-43.95114252942449
 20
1216.72560475629
 30
0.0
  0
SEQEND
  5
177
  8
LAYER_01
  0
POLYLINE
  5
178
  8
LAYER_01
 66
     1
 10
0.0
 20
0.0
 30
0.0
 70
     1
  0
VERTEX
  5
179
  8
LAYER_01
 10
-6.698804586062636
 20
1193.698287860546
 30
0.0
  0
VERTEX
  5
17A
  8
LAYER_01
 10
-22.86853206852709
 20
1220.497592536821
 30
0.0
  0
VERTEX
  5
17B
  8
LAYER_01
 10
-11.53859148274921
 20
1279.791132618755
 30
0.0
  0
VERTEX
  5
17C
  8
LAYER_01
 10
38.26343405591018
 20
1287.728045569535
 30
0.0
  0
VERTEX
  5
17D
  8
LAYER_01
 10
75.3983528605786
 20
1267.399404449132
 30
0.0
  0
VERTEX
  5
17E
  8
LAYER_01
 10
54.34604947986674
 20
1228.942550788152
 30
0.0
  0
SEQEND
  5
17F
  8
LAYER_01
  0
POLYLINE
  5
180
  8
LAYER_01
 66
     1
 10
0.0
 20
0.0
 30
0.0
 70
     1
  0
VERTEX
  5
181
  8
LAYER_01
 10
-73.16987361216547
 20
1287.822150185516
 30
0.0
  0
VERTEX
  5
182
  8
LAYER_01
 10
-63.48972590944783
 20
1287.822150185516
 30
0.0
  0
VERTEX
  5
183
  8
LAYER_01
 10
-38.33289713535623
 20
1246.127847066499
 30
0.0
  0
VERTEX
  5
184
  8
LAYER_01
 10
-28.54856879819994
 20
1297.332657898632
 30
0.0
  0
VERTEX
  5
185
  8
LAYER_01
 10
9.609625178458828
 20
1303.41390179737
 30
0.0
  0
VERTEX
  5
186
  8
LAYER_01
 10
-19.44162139064326
 20
1319.317325976379
 30
0.0
  0
VERTEX
  5
187
  8
LAYER_01
 10
-16.45113084719947
 20
1350.679562966683
 30
0.0
  0
VERTEX
  5
188
  8
LAYER_01
 10
-42.1591919496376
 20
1331.012193817277
 30
0.0
  0
VERTEX
  5
189
  8
LAYER_01
 10
-73.16987361216547
 20
1348.494725761252
 30
0.0
  0
SEQEND
  5
18A
  8
LAYER_01
  0
POLYLINE
  5
18B
  8
LAYER_01
 66
     1
 10
0.0
 20
0.0
 30
0.0
 70
     1
  0
VERTEX
  5
18C
  8
LAYER_01
 10
126.8589920650908
 20
1466.500985455137
 30
0.0
  0
VERTEX
  5
18D
  8
LAYER_01
 10
159.3086418157929
 20
1466.500985455137
 30
0.0
  0
VERTEX
  5
18E
  8
LAYER_01
 10
159.3086418157929
 20
1397.530174879934
 30
0.0
  0
VERTEX
  5
18F
  8
LAYER_01
 10
137.1749065723131
 20
1360.173553364919
 30
0.0
  0
VERTEX
  5
190
  8
LAYER_01
 10
103.6143317058152
 20
1378.85074285584
 30
0.0
  0
VERTEX
  5
191
  8
LAYER_01
 10
82.7034806864516
 20
1432.234837999009
 30
0.0
  0
SEQEND
  5
192
  8
LAYER_01
  0
POLYLINE
  5
193
  8
LAYER_01
 66
     1
 10
0.0
 20
0.0
 30
0.0
 70
     1
  0
VERTEX
  5
194
  8
LAYER_01
 10
-73.16987361216547
 20
1050.222068729042
 30
0.0
  0
VERTEX
  5
195
  8
LAYER_01
 10
-31.63924482639743
 20
1074.199788438122
 30
0.0
  0
VERTEX
  5
196
  8
LAYER_01
 10
-5.419898661099069
 20
1029.675163194615
 30
0.0
  0
VERTEX
  5
197
  8
LAYER_01
 10
7.318820255489072
 20
1079.136090559867
 30
0.0
  0
VERTEX
  5
198
  8
LAYER_01
 10
55.5505662078109
 20
1067.155231667419
 30
0.0
  0
VERTEX
  5
199
  8
LAYER_01
 10
31.07281583461258
 20
1110.40661354219
 30
0.0
  0
VERTEX
  5
19A
  8
LAYER_01
 10
64.7426374829871
 20
1129.845894134446
 30
0.0
  0
VERTEX
  5
19B
  8
LAYER_01
 10
1.548867238846071
 20
1132.496405469189
 30
0.0
  0
VERTEX
  5
19C
  8
LAYER_01
 10
35.8616542299884
 20
1195.176569447242
 30
0.0
  0
VERTEX
  5
19D
  8
LAYER_01
 10
-13.68837551825374
 20
1166.568846433742
 30
0.0
  0
VERTEX
  5
19E
  8
LAYER_01
 10
-28.48677746259534
 20
1191.095350226611
 30
0.0
  0
VERTEX
  5
19F
  8
LAYER_01
 10
-36.72961323348079
 20
1147.957708906294
 30
0.0
  0
VERTEX
  5
1A0
  8
LAYER_01
 10
-73.16987361216542
 20
1160.802533119767
 30
0.0
  0
VERTEX
  5
1A1
  8
LAYER_01
 10
-73.16987361216547
 20
1099.973701265452
 30
0.0
  0
VERTEX
  5
1A2
  8
LAYER_01
 10
-61.45533281680071
 20
1096.848953043112
 30
0.0
  0
VERTEX
  5
1A3
  8
LAYER_01
 10
-73.16987361216547
 20
1051.364626464389
 30
0.0
  0
SEQEND
  5
1A4
  8
LAYER_01
  0
POLYLINE
  5
1A5
  8
LAYER_01
 66
     1
 10
0.0
 20
0.0
 30
0.0
 70
     1
  0
VERTEX
  5
1A6
  8
LAYER_01
 10
194.8178998626797
 20
1204.944881884272
 30
0.0
  0
VERTEX
  5
1A7
  8
LAYER_01
 10
97.06592898193577
 20
1148.507755182459
 30
0.0
  0
VERTEX
  5
1A8
  8
LAYER_01
 10
34.54996823470219
 20
1151.129837421305
 30
0.0
  0
VERTEX
  5
1A9
  8
LAYER_01
 10
69.19873227758114
 20
1214.423740432015
 30
0.0
  0
VERTEX
  5
1AA
  8
LAYER_01
 10
159.3086418157928
 20
1266.448720960555
 30
0.0
  0
VERTEX
  5
1AB
  8
LAYER_01
 10
159.3086418157928
 20
1225.446161576367
 30
0.0
  0
SEQEND
  5
1AC
  8
LAYER_01
  0
POLYLINE
  5
1AD
  8
LAYER_01
 66
     1
 10
0.0
 20
0.0
 30
0.0
 70
     1
  0
VERTEX
  5
1AE
  8
LAYER_01
 10
87.68312752745953
 20
1248.189721772925
 30
0.0
  0
VERTEX
  5
1AF
  8
LAYER_01
 10
102.5453952140365
 20
1275.339057556138
 30
0.0
  0
VERTEX
  5
1B0
  8
LAYER_01
 10
70.52262941519746
 20
1292.869170306121
 30
0.0
  0
VERTEX
  5
1B1
  8
LAYER_01
 10
133.3704688824899
 20
1302.885185229235
 30
0.0
  0
VERTEX
  5
1B2
  8
LAYER_01
 10
115.0791625771919
 20
1349.581746511732
 30
0.0
  0
VERTEX
  5
1B3
  8
LAYER_01
 10
144.4586963805615
 20
1333.23139726464
 30
0.0
  0
VERTEX
  5
1B4
  8
LAYER_01
 10
159.3086418157928
 20
1358.294667654394
 30
0.0
  0
VERTEX
  5
1B5
  8
LAYER_01
 10
159.3086418157928
 20
1289.54273172814
 30
0.0
  0
SEQEND
  5
1B6
  8
LAYER_01
  0
POLYLINE
  5
1B7
  8
LAYER_01
 66
     1
 10
0.0
 20
0.0
 30
0.0
 70
     1
  0
VERTEX
  5
1B8
  8
LAYER_01
 10
1.718668636988809
 20
1330.534286357127
 30
0.0
  0
VERTEX
  5
1B9
  8
LAYER_01
 10
41.86882053774622
 20
1308.555026533955
 30
0.0
  0
VERTEX
  5
1BA
  8
LAYER_01
 10
105.6861093945435
 20
1318.725541908235
 30
0.0
  0
VERTEX
  5
1BB
  8
LAYER_01
 10
87.61189654471866
 20
1364.867877173283
 30
0.0
  0
VERTEX
  5
1BC
  8
LAYER_01
 10
38.10730613295419
 20
1392.418257924178
 30
0.0
  0
VERTEX
  5
1BD
  8
LAYER_01
 10
5.220482880500867
 20
1367.258939588967
 30
0.0
  0
SEQEND
  5
1BE
  8
LAYER_01
  0
POLYLINE
  5
1BF
  8
LAYER_01
 66
     1
 10
0.0
 20
0.0
 30
0.0
 70
     1
  0
VERTEX
  5
1C0
  8
LAYER_01
 10
-73.16987361216547
 20
1454.058271618714
 30
0.0
  0
VERTEX
  5
1C1
  8
LAYER_01
 10
-73.16987361216542
 20
1371.454024717998
 30
0.0
  0
VERTEX
  5
1C2
  8
LAYER_01
 10
-43.8315284196151
 20
1354.91428648864
 30
0.0
  0
VERTEX
  5
1C3
  8
LAYER_01
 10
-13.86105547529542
 20
1377.842517156426
 30
0.0
  0
VERTEX
  5
1C4
  8
LAYER_01
 10
-9.96034742603905
 20
1418.750498136
 30
0.0
  0
SEQEND
  5
1C5
  8
LAYER_01
  0
POLYLINE
  5
1C6
  8
LAYER_01
 66
     1
 10
0.0
 20
0.0
 30
0.0
 70
     1
  0
VERTEX
  5
1C7
  8
LAYER_01
 10
46.13311578006017
 20
1466.500985455137
 30
0.0
  0
VERTEX
  5
1C8
  8
LAYER_01
 10
26.02684066273434
 20
1493.747665049043
 30
0.0
  0
VERTEX
  5
1C9
  8
LAYER_01
 10
5.920565545408635
 20
1466.500985455137
 30
0.0
  0
VERTEX
  5
1CA
  8
LAYER_01
 10
-54.43330342447223
 20
1466.500985455137
 30
0.0
  0
VERTEX
  5
1CB
  8
LAYER_01
 10
11.18834595097127
 20
1429.845840708636
 30
0.0
  0
VERTEX
  5
1CC
  8
LAYER_01
 10
7.810558252404803
 20
1394.42189377871
 30
0.0
  0
VERTEX
  5
1CD
  8
LAYER_01
 10
36.37229144363641
 20
1416.272400045226
 30
0.0
  0
VERTEX
  5
1CE
  8
LAYER_01
 10
76.1470656733419
 20
1394.13687351739
 30
0.0
  0
VERTEX
  5
1CF
  8
LAYER_01
 10
58.62639680563132
 20
1438.866045607981
 30
0.0
  0
VERTEX
  5
1D0
  8
LAYER_01
 10
94.23690430232011
 20
1466.500985455137
 30
0.0
  0
SEQEND
  5
1D1
  8
LAYER_01
  0
POLYLINE
  5
1D2
  8
LAYER_01
 66
     1
 10
0.0
 20
0.0
 30
0.0
 70
     1
  0
VERTEX
  5
1D3
  8
LAYER_01
 10
-59.95860438332056
 20
849.4225937194794
 30
0.0
  0
VERTEX
  5
1D4
  8
LAYER_01
 10
-73.16987361216547
 20
855.7278352231226
 30
0.0
  0
VERTEX
  5
1D5
  8
LAYER_01
 10
-73.16987361216547
 20
919.8053888281942
 30
0.0
  0
VERTEX
  5
1D6
  8
LAYER_01
 10
-34.88124781517604
 20
900.4505984567402
 30
0.0
  0
VERTEX
  5
1D7
  8
LAYER_01
 10
-34.88124781517604
 20
863.9010122846619
 30
0.0
  0
SEQEND
  5
1D8
  8
LAYER_01
  0
POLYLINE
  5
1D9
  8
LAYER_01
 66
     1
 10
0.0
 20
0.0
 30
0.0
 70
     1
  0
VERTEX
  5
1DA
  8
LAYER_01
 10
39.06377484492259
 20
914.7203633415761
 30
0.0
  0
VERTEX
  5
1DB
  8
LAYER_01
 10
66.60633929884193
 20
867.9487027202696
 30
0.0
  0
VERTEX
  5
1DC
  8
LAYER_01
 10
19.83467867753558
 20
895.4912671741888
 30
0.0
  0
VERTEX
  5
1DD
  8
LAYER_01
 10
-14.88124781517604
 20
875.4480176684544
 30
0.0
  0
VERTEX
  5
1DE
  8
LAYER_01
 10
-14.8812478151761
 20
912.7507192303801
 30
0.0
  0
VERTEX
  5
1DF
  8
LAYER_01
 10
-49.65681449523822
 20
930.3296683080997
 30
0.0
  0
VERTEX
  5
1E0
  8
LAYER_01
 10
-8.699980236482816
 20
936.7508740918531
 30
0.0
  0
VERTEX
  5
1E1
  8
LAYER_01
 10
1.886149423631196
 20
977.853891877742
 30
0.0
  0
VERTEX
  5
1E2
  8
LAYER_01
 10
23.15009624122376
 20
941.7443238785129
 30
0.0
  0
VERTEX
  5
1E3
  8
LAYER_01
 10
57.80271247089206
 20
947.1771553896193
 30
0.0
  0
SEQEND
  5
1E4
  8
LAYER_01
  0
POLYLINE
  5
1E5
  8
LAYER_01
 66
     1
 10
0.0
 20
0.0
 30
0.0
 70
     1
  0
VERTEX
  5
1E6
  8
LAYER_01
 10
-73.16987361216547
 20
1027.128057961457
 30
0.0
  0
VERTEX
  5
1E7
  8
LAYER_01
 10
-38.81145274836007
 20
1046.96490149611
 30
0.0
  0
VERTEX
  5
1E8
  8
LAYER_01
 10
-12.48230037746691
 20
1002.253807828764
 30
0.0
  0
VERTEX
  5
1E9
  8
LAYER_01
 10
-24.78834106400836
 20
954.4728505334294
 30
0.0
  0
VERTEX
  5
1EA
  8
LAYER_01
 10
-73.16987361216547
 20
946.8876017648759
 30
0.0
  0
SEQEND
  5
1EB
  8
LAYER_01
  0
POLYLINE
  5
1EC
  8
LAYER_01
 66
     1
 10
0.0
 20
0.0
 30
0.0
 70
     1
  0
VERTEX
  5
1ED
  8
LAYER_01
 10
214.8178998626798
 20
1216.491887268065
 30
0.0
  0
VERTEX
  5
1EE
  8
LAYER_01
 10
250.3271579095669
 20
1236.993166960159
 30
0.0
  0
VERTEX
  5
1EF
  8
LAYER_01
 10
250.3271579095668
 20
1277.995726344347
 30
0.0
  0
VERTEX
  5
1F0
  8
LAYER_01
 10
214.8178998626798
 20
1298.497006036441
 30
0.0
  0
VERTEX
  5
1F1
  8
LAYER_01
 10
179.3086418157928
 20
1277.995726344347
 30
0.0
  0
VERTEX
  5
1F2
  8
LAYER_01
 10
179.3086418157928
 20
1236.993166960159
 30
0.0
  0
SEQEND
  5
1F3
  8
LAYER_01
  0
POLYLINE
  5
1F4
  8
LAYER_01
 66
     1
 10
0.0
 20
0.0
 30
0.0
 70
     1
  0
VERTEX
  5
1F5
  8
LAYER_01
 10
250.3271579095668
 20
1301.089737111932
 30
0.0
  0
VERTEX
  5
1F6
  8
LAYER_01
 10
214.8178998626796
 20
1321.591016804026
 30
0.0
  0
VERTEX
  5
1F7
  8
LAYER_01
 10
179.3086418157928
 20
1301.089737111932
 30
0.0
  0
VERTEX
  5
1F8
  8
LAYER_01
 10
179.3086418157929
 20
1392.050038001131
 30
0.0
  0
VERTEX
  5
1F9
  8
LAYER_01
 10
214.8178998626796
 20
1451.981445806658
 30
0.0
  0
VERTEX
  5
1FA
  8
LAYER_01
 10
250.3271579095668
 20
1392.050038001131
 30
0.0
  0
SEQEND
  5
1FB
  8
LAYER_01
  0
POLYLINE
  5
1FC
  8
LAYER_01
 66
     1
 10
0.0
 20
0.0
 30
0.0
 70
     1
  0
VERTEX
  5
1FD
  8
LAYER_01
 10
413.7817427985947
 20
1513.645334736194
 30
0.0
  0
VERTEX
  5
1FE
  8
LAYER_01
 10
433.8125048092361
 20
1486.500985455137
 30
0.0
  0
VERTEX
  5
1FF
  8
LAYER_01
 10
502.8056733375251
 20
1486.500985455137
 30
0.0
  0
VERTEX
  5
200
  8
LAYER_01
 10
502.8056733375251
 20
1540.789684017252
 30
0.0
  0
VERTEX
  5
201
  8
LAYER_01
 10
433.8125048092361
 20
1540.789684017252
 30
0.0
  0
SEQEND
  5
202
  8
LAYER_01
  0
POLYLINE
  5
203
  8
LAYER_01
 66
     1
 10
0.0
 20
0.0
 30
0.0
 70
     1
  0
VERTEX
  5
204
  8
LAYER_01
 10
15.854056926765
 20
1513.645334736194
 30
0.0
  0
VERTEX
  5
205
  8
LAYER_01
 10
-4.176705083876413
 20
1486.500985455137
 30
0.0
  0
VERTEX
  5
206
  8
LAYER_01
 10
-73.16987361216547
 20
1486.500985455137
 30
0.0
  0
VERTEX
  5
207
  8
LAYER_01
 10
-73.16987361216547
 20
1540.789684017252
 30
0.0
  0
VERTEX
  5
208
  8
LAYER_01
 10
-4.176705083876413
 20
1540.789684017252
 30
0.0
  0
SEQEND
  5
209
  8
LAYER_01
  0
POLYLINE
  5
20A
  8
LAYER_01
 66
     1
 10
0.0
 20
0.0
 30
0.0
 70
     1
  0
VERTEX
  5
20B
  8
LAYER_01
 10
214.81789986268
 20
1119.485021874253
 30
0.0
  0
VERTEX
  5
20C
  8
LAYER_01
 10
250.3762099133919
 20
1074.522618114826
 30
0.0
  0
VERTEX
  5
20D
  8
LAYER_01
 10
249.979299443079
 20
1028.36532592572
 30
0.0
  0
VERTEX
  5
20E
  8
LAYER_01
 10
214.8178998626798
 20
1008.064882412892
 30
0.0
  0
VERTEX
  5
20F
  8
LAYER_01
 10
179.6565002822807
 20
1028.36532592572
 30
0.0
  0
VERTEX
  5
210
  8
LAYER_01
 10
179.2595898119678
 20
1074.522618114826
 30
0.0
  0
SEQEND
  5
211
  8
LAYER_01
  0
POLYLINE
  5
212
  8
LAYER_01
 66
     1
 10
0.0
 20
0.0
 30
0.0
 70
     1
  0
VERTEX
  5
213
  8
LAYER_01
 10
274.6484753828669
 20
1513.645334736194
 30
0.0
  0
VERTEX
  5
214
  8
LAYER_01
 10
309.6268056745944
 20
1540.789684017252
 30
0.0
  0
VERTEX
  5
215
  8
LAYER_01
 10
373.4054133160145
 20
1540.789684017252
 30
0.0
  0
VERTEX
  5
216
  8
LAYER_01
 10
393.4361753266559
 20
1513.645334736194
 30
0.0
  0
VERTEX
  5
217
  8
LAYER_01
 10
373.4054133160145
 20
1486.500985455137
 30
0.0
  0
VERTEX
  5
218
  8
LAYER_01
 10
309.6268056745944
 20
1486.500985455137
 30
0.0
  0
SEQEND
  5
219
  8
LAYER_01
  0
POLYLINE
  5
21A
  8
LAYER_01
 66
     1
 10
0.0
 20
0.0
 30
0.0
 70
     1
  0
VERTEX
  5
21B
  8
LAYER_01
 10
214.8178998626797
 20
1536.07371644019
 30
0.0
  0
VERTEX
  5
21C
  8
LAYER_01
 10
179.308641815793
 20
1596.005124245717
 30
0.0
  0
VERTEX
  5
21D
  8
LAYER_01
 10
179.308641815793
 20
1540.789684017252
 30
0.0
  0
VERTEX
  5
21E
  8
LAYER_01
 10
152.6310818135357
 20
1540.789684017252
 30
0.0
  0
VERTEX
  5
21F
  8
LAYER_01
 10
187.6094121052632
 20
1513.645334736194
 30
0.0
  0
VERTEX
  5
220
  8
LAYER_01
 10
152.6310818135357
 20
1486.500985455137
 30
0.0
  0
VERTEX
  5
221
  8
LAYER_01
 10
179.308641815793
 20
1486.500985455137
 30
0.0
  0
VERTEX
  5
222
  8
LAYER_01
 10
179.308641815793
 20
1431.285545226672
 30
0.0
  0
VERTEX
  5
223
  8
LAYER_01
 10
214.8178998626798
 20
1491.216953032198
 30
0.0
  0
VERTEX
  5
224
  8
LAYER_01
 10
250.3271579095667
 20
1431.285545226672
 30
0.0
  0
VERTEX
  5
225
  8
LAYER_01
 10
250.3271579095667
 20
1486.500985455137
 30
0.0
  0
VERTEX
  5
226
  8
LAYER_01
 10
277.0047179118239
 20
1486.500985455137
 30
0.0
  0
VERTEX
  5
227
  8
LAYER_01
 10
242.0263876200964
 20
1513.645334736194
 30
0.0
  0
VERTEX
  5
228
  8
LAYER_01
 10
277.0047179118239
 20
1540.789684017252
 30
0.0
  0
VERTEX
  5
229
  8
LAYER_01
 10
250.3271579095667
 20
1540.789684017252
 30
0.0
  0
VERTEX
  5
22A
  8
LAYER_01
 10
250.3271579095667
 20
1596.005124245717
 30
0.0
  0
SEQEND
  5
22B
  8
LAYER_01
  0
POLYLINE
  5
22C
  8
LAYER_01
 66
     1
 10
0.0
 20
0.0
 30
0.0
 70
     1
  0
VERTEX
  5
22D
  8
LAYER_01
 10
154.9873243424928
 20
1513.645334736194
 30
0.0
  0
VERTEX
  5
22E
  8
LAYER_01
 10
120.0089940507653
 20
1540.789684017252
 30
0.0
  0
VERTEX
  5
22F
  8
LAYER_01
 10
56.23038640934521
 20
1540.789684017252
 30
0.0
  0
VERTEX
  5
230
  8
LAYER_01
 10
36.1996243987038
 20
1513.645334736194
 30
0.0
  0
VERTEX
  5
231
  8
LAYER_01
 10
56.23038640934521
 20
1486.500985455137
 30
0.0
  0
VERTEX
  5
232
  8
LAYER_01
 10
120.0089940507653
 20
1486.500985455137
 30
0.0
  0
SEQEND
  5
233
  8
LAYER_01
  0
POLYLINE
  5
234
  8
LAYER_01
 66
     1
 10
0.0
 20
0.0
 30
0.0
 70
     1
  0
VERTEX
  5
235
  8
LAYER_01
 10
214.81789986268
 20
826.3413488955747
 30
0.0
  0
VERTEX
  5
236
  8
LAYER_01
 10
248.7577707359048
 20
886.3119872727834
 30
0.0
  0
VERTEX
  5
237
  8
LAYER_01
 10
249.4342874271401
 20
964.9850909665936
 30
0.0
  0
VERTEX
  5
238
  8
LAYER_01
 10
214.8178998626798
 20
984.970871645307
 30
0.0
  0
VERTEX
  5
239
  8
LAYER_01
 10
180.2015122982195
 20
964.9850909665936
 30
0.0
  0
VERTEX
  5
23A
  8
LAYER_01
 10
180.8780289894548
 20
886.3119872727834
 30
0.0
  0
SEQEND
  5
23B
  8
LAYER_01
  0
POLYLINE
  5
23C
  8
LAYER_01
 66
     1
 10
0.0
 20
0.0
 30
0.0
 70
     1
  0
VERTEX
  5
23D
  8
LAYER_01
 10
214.81789986268
 20
1193.39787650048
 30
0.0
  0
VERTEX
  5
23E
  8
LAYER_01
 10
295.278935007799
 20
1146.94367620017
 30
0.0
  0
VERTEX
  5
23F
  8
LAYER_01
 10
250.9829886030538
 20
1145.085788823371
 30
0.0
  0
VERTEX
  5
240
  8
LAYER_01
 10
250.6504802977698
 20
1106.417917476766
 30
0.0
  0
VERTEX
  5
241
  8
LAYER_01
 10
214.8178998626798
 20
1151.727127812323
 30
0.0
  0
VERTEX
  5
242
  8
LAYER_01
 10
178.9853194275899
 20
1106.417917476766
 30
0.0
  0
VERTEX
  5
243
  8
LAYER_01
 10
178.6528111223059
 20
1145.085788823371
 30
0.0
  0
VERTEX
  5
244
  8
LAYER_01
 10
134.3568647175607
 20
1146.94367620017
 30
0.0
  0
SEQEND
  5
245
  8
LAYER_01
  0
POLYLINE
  5
246
  8
LAYER_01
 66
     1
 10
0.0
 20
0.0
 30
0.0
 70
     1
  0
VERTEX
  5
247
  8
LAYER_01
 10
327.4981127982322
 20
2180.26541525035
 30
0.0
  0
VERTEX
  5
248
  8
LAYER_01
 10
268.1200032322515
 20
2215.23157612957
 30
0.0
  0
VERTEX
  5
249
  8
LAYER_01
 10
268.7125320434795
 20
2146.325544377126
 30
0.0
  0
VERTEX
  5
24A
  8
LAYER_01
 10
307.4632032496908
 20
2077.854379638101
 30
0.0
  0
VERTEX
  5
24B
  8
LAYER_01
 10
347.4347646071176
 20
2077.854379638101
 30
0.0
  0
VERTEX
  5
24C
  8
LAYER_01
 10
367.4205452858312
 20
2112.470767202561
 30
0.0
  0
SEQEND
  5
24D
  8
LAYER_01
  0
POLYLINE
  5
24E
  8
LAYER_01
 66
     1
 10
0.0
 20
0.0
 30
0.0
 70
     1
  0
VERTEX
  5
24F
  8
LAYER_01
 10
376.0458828015113
 20
2253.658895135157
 30
0.0
  0
VERTEX
  5
250
  8
LAYER_01
 10
307.1398510490661
 20
2254.251423946385
 30
0.0
  0
VERTEX
  5
251
  8
LAYER_01
 10
342.1060119282861
 20
2194.873314380405
 30
0.0
  0
VERTEX
  5
252
  8
LAYER_01
 10
409.9006599760756
 20
2154.950881892806
 30
0.0
  0
VERTEX
  5
253
  8
LAYER_01
 10
444.5170475405358
 20
2174.936662571519
 30
0.0
  0
VERTEX
  5
254
  8
LAYER_01
 10
444.5170475405358
 20
2214.908223928946
 30
0.0
  0
SEQEND
  5
255
  8
LAYER_01
  0
POLYLINE
  5
256
  8
LAYER_01
 66
     1
 10
0.0
 20
0.0
 30
0.0
  0
VERTEX
  5
257
  8
LAYER_01
 10
321.4221066018229
 20
2307.553527315957
 30
0.0
  0
VERTEX
  5
258
  8
LAYER_01
 10
381.3927449790314
 20
2273.613656442732
 30
0.0
  0
VERTEX
  5
259
  8
LAYER_01
 10
460.0658486728418
 20
2272.937139751497
 30
0.0
  0
VERTEX
  5
25A
  8
LAYER_01
 10
480.0516293515553
 20
2307.553527315957
 30
0.0
  0
SEQEND
  5
25B
  8
LAYER_01
  0
POLYLINE
  5
25C
  8
LAYER_01
 66
     1
 10
0.0
 20
0.0
 30
0.0
 70
     1
  0
VERTEX
  5
25D
  8
LAYER_01
 10
248.4032066158039
 20
2182.211456125513
 30
0.0
  0
VERTEX
  5
25E
  8
LAYER_01
 10
248.0174692309018
 20
2227.069414065286
 30
0.0
  0
VERTEX
  5
25F
  8
LAYER_01
 10
234.203944193259
 20
2235.203824916453
 30
0.0
  0
VERTEX
  5
260
  8
LAYER_01
 10
226.308286020432
 20
2221.2524559557
 30
0.0
  0
SEQEND
  5
261
  8
LAYER_01
  0
POLYLINE
  5
262
  8
LAYER_01
 66
     1
 10
0.0
 20
0.0
 30
0.0
 70
     1
  0
VERTEX
  5
263
  8
LAYER_01
 10
340.1599710531243
 20
2273.968220562833
 30
0.0
  0
VERTEX
  5
264
  8
LAYER_01
 10
301.118971222936
 20
2296.063141158205
 30
0.0
  0
VERTEX
  5
265
  8
LAYER_01
 10
287.1676022621833
 20
2288.167482985378
 30
0.0
  0
VERTEX
  5
266
  8
LAYER_01
 10
295.3020131133514
 20
2274.353957947735
 30
0.0
  0
SEQEND
  5
267
  8
LAYER_01
  0
POLYLINE
  5
268
  8
LAYER_01
 66
     1
 10
0.0
 20
0.0
 30
0.0
 70
     1
  0
VERTEX
  5
269
  8
LAYER_01
 10
306.5746643000004
 20
2215.796762878636
 30
0.0
  0
VERTEX
  5
26A
  8
LAYER_01
 10
283.8116269555994
 20
2254.452025323922
 30
0.0
  0
VERTEX
  5
26B
  8
LAYER_01
 10
267.7815579316044
 20
2254.589869247033
 30
0.0
  0
VERTEX
  5
26C
  8
LAYER_01
 10
267.9194018547144
 20
2238.559800223037
 30
0.0
  0
SEQEND
  5
26D
  8
LAYER_01
  0
POLYLINE
  5
26E
  8
LAYER_01
 66
     1
 10
0.0
 20
0.0
 30
0.0
 70
     1
  0
VERTEX
  5
26F
  8
LAYER_01
 10
269.0670961635805
 20
2105.092770451219
 30
0.0
  0
VERTEX
  5
270
  8
LAYER_01
 10
295.8012602118566
 20
2057.854379638101
 30
0.0
  0
VERTEX
  5
271
  8
LAYER_01
 10
333.4832489205502
 20
2057.854379638101
 30
0.0
  0
VERTEX
  5
272
  8
LAYER_01
 10
311.5191304734559
 20
2030.081418537595
 30
0.0
  0
VERTEX
  5
273
  8
LAYER_01
 10
333.7747694113921
 20
1990.756434668737
 30
0.0
  0
VERTEX
  5
274
  8
LAYER_01
 10
289.1797325934522
 20
2001.833927985015
 30
0.0
  0
VERTEX
  5
275
  8
LAYER_01
 10
270.1618148850747
 20
1977.786348292726
 30
0.0
  0
VERTEX
  5
276
  8
LAYER_01
 10
269.8802534613696
 20
2010.529533154664
 30
0.0
  0
VERTEX
  5
277
  8
LAYER_01
 10
234.81789986268
 20
2030.772792443289
 30
0.0
  0
VERTEX
  5
278
  8
LAYER_01
 10
269.5338263553916
 20
2050.816041949023
 30
0.0
  0
SEQEND
  5
279
  8
LAYER_01
  0
POLYLINE
  5
27A
  8
LAYER_01
 66
     1
 10
0.0
 20
0.0
 30
0.0
 70
     1
  0
VERTEX
  5
27B
  8
LAYER_01
 10
420.6872485853606
 20
2022.015422228796
 30
0.0
  0
VERTEX
  5
27C
  8
LAYER_01
 10
407.8945575600504
 20
1972.344936071422
 30
0.0
  0
VERTEX
  5
27D
  8
LAYER_01
 10
360.5146612032988
 20
1984.114193878307
 30
0.0
  0
VERTEX
  5
27E
  8
LAYER_01
 10
335.550103418923
 20
2028.225748478087
 30
0.0
  0
VERTEX
  5
27F
  8
LAYER_01
 10
358.9817699909102
 20
2057.854379638101
 30
0.0
  0
VERTEX
  5
280
  8
LAYER_01
 10
396.1510616194621
 20
2063.681775107082
 30
0.0
  0
SEQEND
  5
281
  8
LAYER_01
  0
POLYLINE
  5
282
  8
LAYER_01
 66
     1
 10
0.0
 20
0.0
 30
0.0
 70
     1
  0
VERTEX
  5
283
  8
LAYER_01
 10
270.8187492530604
 20
1901.390501269062
 30
0.0
  0
VERTEX
  5
284
  8
LAYER_01
 10
270.4360852694525
 20
1945.891048930786
 30
0.0
  0
VERTEX
  5
285
  8
LAYER_01
 10
296.8699466266809
 20
1979.315864271261
 30
0.0
  0
VERTEX
  5
286
  8
LAYER_01
 10
347.3453417256421
 20
1966.777678595399
 30
0.0
  0
VERTEX
  5
287
  8
LAYER_01
 10
371.3907759687754
 20
1924.290185139557
 30
0.0
  0
VERTEX
  5
288
  8
LAYER_01
 10
327.6022265067476
 20
1899.008854320232
 30
0.0
  0
SEQEND
  5
289
  8
LAYER_01
  0
POLYLINE
  5
28A
  8
LAYER_01
 66
     1
 10
0.0
 20
0.0
 30
0.0
 70
     1
  0
VERTEX
  5
28B
  8
LAYER_01
 10
502.8056733375251
 20
1762.13866560766
 30
0.0
  0
VERTEX
  5
28C
  8
LAYER_01
 10
502.8056733375251
 20
1845.282013285708
 30
0.0
  0
VERTEX
  5
28D
  8
LAYER_01
 10
481.6459379364109
 20
1852.74060657803
 30
0.0
  0
VERTEX
  5
28E
  8
LAYER_01
 10
473.5869422547842
 20
1810.565064716099
 30
0.0
  0
SEQEND
  5
28F
  8
LAYER_01
  0
POLYLINE
  5
290
  8
LAYER_01
 66
     1
 10
0.0
 20
0.0
 30
0.0
 70
     1
  0
VERTEX
  5
291
  8
LAYER_01
 10
436.3346043114223
 20
1833.592381611842
 30
0.0
  0
VERTEX
  5
292
  8
LAYER_01
 10
452.5043317938868
 20
1806.793076935568
 30
0.0
  0
VERTEX
  5
293
  8
LAYER_01
 10
441.1743912081089
 20
1747.499536853634
 30
0.0
  0
VERTEX
  5
294
  8
LAYER_01
 10
391.3723656694495
 20
1739.562623902853
 30
0.0
  0
VERTEX
  5
295
  8
LAYER_01
 10
354.2374468647811
 20
1759.891265023257
 30
0.0
  0
VERTEX
  5
296
  8
LAYER_01
 10
375.2897502454929
 20
1798.348118684237
 30
0.0
  0
SEQEND
  5
297
  8
LAYER_01
  0
POLYLINE
  5
298
  8
LAYER_01
 66
     1
 10
0.0
 20
0.0
 30
0.0
 70
     1
  0
VERTEX
  5
299
  8
LAYER_01
 10
502.8056733375251
 20
1739.468519286873
 30
0.0
  0
VERTEX
  5
29A
  8
LAYER_01
 10
493.1255256348075
 20
1739.468519286873
 30
0.0
  0
VERTEX
  5
29B
  8
LAYER_01
 10
467.9686968607159
 20
1781.162822405889
 30
0.0
  0
VERTEX
  5
29C
  8
LAYER_01
 10
458.1843685235596
 20
1729.958011573756
 30
0.0
  0
VERTEX
  5
29D
  8
LAYER_01
 10
420.0261745469008
 20
1723.876767675019
 30
0.0
  0
VERTEX
  5
29E
  8
LAYER_01
 10
449.0774211160029
 20
1707.97334349601
 30
0.0
  0
VERTEX
  5
29F
  8
LAYER_01
 10
446.0869305725591
 20
1676.611106505705
 30
0.0
  0
VERTEX
  5
2A0
  8
LAYER_01
 10
471.7949916749973
 20
1696.278475655112
 30
0.0
  0
VERTEX
  5
2A1
  8
LAYER_01
 10
502.8056733375251
 20
1678.795943711136
 30
0.0
  0
SEQEND
  5
2A2
  8
LAYER_01
  0
POLYLINE
  5
2A3
  8
LAYER_01
 66
     1
 10
0.0
 20
0.0
 30
0.0
 70
     1
  0
VERTEX
  5
2A4
  8
LAYER_01
 10
302.7768076602689
 20
1560.789684017252
 30
0.0
  0
VERTEX
  5
2A5
  8
LAYER_01
 10
270.3271579095668
 20
1560.789684017252
 30
0.0
  0
VERTEX
  5
2A6
  8
LAYER_01
 10
270.3271579095668
 20
1629.760494592455
 30
0.0
  0
VERTEX
  5
2A7
  8
LAYER_01
 10
292.4608931530465
 20
1667.117116107469
 30
0.0
  0
VERTEX
  5
2A8
  8
LAYER_01
 10
326.0214680195445
 20
1648.439926616549
 30
0.0
  0
VERTEX
  5
2A9
  8
LAYER_01
 10
346.9323190389081
 20
1595.05583147338
 30
0.0
  0
SEQEND
  5
2AA
  8
LAYER_01
  0
POLYLINE
  5
2AB
  8
LAYER_01
 66
     1
 10
0.0
 20
0.0
 30
0.0
 70
     1
  0
VERTEX
  5
2AC
  8
LAYER_01
 10
502.8056733375251
 20
1977.068600743346
 30
0.0
  0
VERTEX
  5
2AD
  8
LAYER_01
 10
461.2750445517571
 20
1953.090881034267
 30
0.0
  0
VERTEX
  5
2AE
  8
LAYER_01
 10
435.0556983864587
 20
1997.615506277774
 30
0.0
  0
VERTEX
  5
2AF
  8
LAYER_01
 10
422.3169794698706
 20
1948.154578912521
 30
0.0
  0
VERTEX
  5
2B0
  8
LAYER_01
 10
374.0852335175488
 20
1960.135437804969
 30
0.0
  0
VERTEX
  5
2B1
  8
LAYER_01
 10
398.5629838907471
 20
1916.884055930199
 30
0.0
  0
VERTEX
  5
2B2
  8
LAYER_01
 10
364.8931622423726
 20
1897.444775337943
 30
0.0
  0
VERTEX
  5
2B3
  8
LAYER_01
 10
428.0869324865136
 20
1894.7942640032
 30
0.0
  0
VERTEX
  5
2B4
  8
LAYER_01
 10
393.7741454953713
 20
1832.114100025147
 30
0.0
  0
VERTEX
  5
2B5
  8
LAYER_01
 10
443.3241752436134
 20
1860.721823038647
 30
0.0
  0
VERTEX
  5
2B6
  8
LAYER_01
 10
458.122577187955
 20
1836.195319245777
 30
0.0
  0
VERTEX
  5
2B7
  8
LAYER_01
 10
466.3654129588405
 20
1879.332960566095
 30
0.0
  0
VERTEX
  5
2B8
  8
LAYER_01
 10
502.8056733375251
 20
1866.488136352622
 30
0.0
  0
VERTEX
  5
2B9
  8
LAYER_01
 10
502.8056733375251
 20
1927.316968206937
 30
0.0
  0
VERTEX
  5
2BA
  8
LAYER_01
 10
491.0911325421604
 20
1930.441716429277
 30
0.0
  0
VERTEX
  5
2BB
  8
LAYER_01
 10
502.8056733375251
 20
1975.926043007999
 30
0.0
  0
SEQEND
  5
2BC
  8
LAYER_01
  0
POLYLINE
  5
2BD
  8
LAYER_01
 66
     1
 10
0.0
 20
0.0
 30
0.0
 70
     1
  0
VERTEX
  5
2BE
  8
LAYER_01
 10
234.81789986268
 20
1822.345787588116
 30
0.0
  0
VERTEX
  5
2BF
  8
LAYER_01
 10
332.5698707434239
 20
1878.78291428993
 30
0.0
  0
VERTEX
  5
2C0
  8
LAYER_01
 10
395.0858314906575
 20
1876.160832051084
 30
0.0
  0
VERTEX
  5
2C1
  8
LAYER_01
 10
360.4370674477785
 20
1812.866929040373
 30
0.0
  0
VERTEX
  5
2C2
  8
LAYER_01
 10
270.3271579095668
 20
1760.841948511834
 30
0.0
  0
VERTEX
  5
2C3
  8
LAYER_01
 10
270.3271579095669
 20
1801.844507896022
 30
0.0
  0
SEQEND
  5
2C4
  8
LAYER_01
  0
POLYLINE
  5
2C5
  8
LAYER_01
 66
     1
 10
0.0
 20
0.0
 30
0.0
 70
     1
  0
VERTEX
  5
2C6
  8
LAYER_01
 10
341.9526721979001
 20
1779.100947699464
 30
0.0
  0
VERTEX
  5
2C7
  8
LAYER_01
 10
327.0904045113232
 20
1751.951611916251
 30
0.0
  0
VERTEX
  5
2C8
  8
LAYER_01
 10
359.1131703101622
 20
1734.421499166267
 30
0.0
  0
VERTEX
  5
2C9
  8
LAYER_01
 10
296.2653308428697
 20
1724.405484243154
 30
0.0
  0
VERTEX
  5
2CA
  8
LAYER_01
 10
314.5566371481677
 20
1677.708922960656
 30
0.0
  0
VERTEX
  5
2CB
  8
LAYER_01
 10
285.1771033447981
 20
1694.059272207749
 30
0.0
  0
VERTEX
  5
2CC
  8
LAYER_01
 10
270.3271579095668
 20
1668.996001817995
 30
0.0
  0
VERTEX
  5
2CD
  8
LAYER_01
 10
270.3271579095668
 20
1737.747937744249
 30
0.0
  0
SEQEND
  5
2CE
  8
LAYER_01
  0
POLYLINE
  5
2CF
  8
LAYER_01
 66
     1
 10
0.0
 20
0.0
 30
0.0
 70
     1
  0
VERTEX
  5
2D0
  8
LAYER_01
 10
427.9171310883709
 20
1696.756383115262
 30
0.0
  0
VERTEX
  5
2D1
  8
LAYER_01
 10
387.7669791876135
 20
1718.735642938433
 30
0.0
  0
VERTEX
  5
2D2
  8
LAYER_01
 10
323.9496903308162
 20
1708.565127564153
 30
0.0
  0
VERTEX
  5
2D3
  8
LAYER_01
 10
342.023903180641
 20
1662.422792299106
 30
0.0
  0
VERTEX
  5
2D4
  8
LAYER_01
 10
391.5284935924055
 20
1634.872411548211
 30
0.0
  0
VERTEX
  5
2D5
  8
LAYER_01
 10
424.4153168448588
 20
1660.031729883421
 30
0.0
  0
SEQEND
  5
2D6
  8
LAYER_01
  0
POLYLINE
  5
2D7
  8
LAYER_01
 66
     1
 10
0.0
 20
0.0
 30
0.0
 70
     1
  0
VERTEX
  5
2D8
  8
LAYER_01
 10
502.8056733375251
 20
1573.232397853675
 30
0.0
  0
VERTEX
  5
2D9
  8
LAYER_01
 10
502.8056733375251
 20
1655.836644754391
 30
0.0
  0
VERTEX
  5
2DA
  8
LAYER_01
 10
473.4673281449748
 20
1672.376382983748
 30
0.0
  0
VERTEX
  5
2DB
  8
LAYER_01
 10
443.4968552006551
 20
1649.448152315963
 30
0.0
  0
VERTEX
  5
2DC
  8
LAYER_01
 10
439.5961471513987
 20
1608.540171336389
 30
0.0
  0
SEQEND
  5
2DD
  8
LAYER_01
  0
POLYLINE
  5
2DE
  8
LAYER_01
 66
     1
 10
0.0
 20
0.0
 30
0.0
 70
     1
  0
VERTEX
  5
2DF
  8
LAYER_01
 10
383.5026839452995
 20
1560.789684017252
 30
0.0
  0
VERTEX
  5
2E0
  8
LAYER_01
 10
403.6089590626253
 20
1533.543004423346
 30
0.0
  0
VERTEX
  5
2E1
  8
LAYER_01
 10
423.715234179951
 20
1560.789684017252
 30
0.0
  0
VERTEX
  5
2E2
  8
LAYER_01
 10
484.0691031498319
 20
1560.789684017252
 30
0.0
  0
VERTEX
  5
2E3
  8
LAYER_01
 10
418.4474537743884
 20
1597.444828763753
 30
0.0
  0
VERTEX
  5
2E4
  8
LAYER_01
 10
421.8252414729549
 20
1632.868775693679
 30
0.0
  0
VERTEX
  5
2E5
  8
LAYER_01
 10
393.2635082817233
 20
1611.018269427163
 30
0.0
  0
VERTEX
  5
2E6
  8
LAYER_01
 10
353.4887340520178
 20
1633.153795954999
 30
0.0
  0
VERTEX
  5
2E7
  8
LAYER_01
 10
371.0094029197284
 20
1588.424623864408
 30
0.0
  0
VERTEX
  5
2E8
  8
LAYER_01
 10
335.3988954230396
 20
1560.789684017252
 30
0.0
  0
SEQEND
  5
2E9
  8
LAYER_01
  0
POLYLINE
  5
2EA
  8
LAYER_01
 66
     1
 10
0.0
 20
0.0
 30
0.0
 70
     1
  0
VERTEX
  5
2EB
  8
LAYER_01
 10
489.5944041086802
 20
2177.868075752909
 30
0.0
  0
VERTEX
  5
2EC
  8
LAYER_01
 10
502.8056733375251
 20
2171.562834249266
 30
0.0
  0
VERTEX
  5
2ED
  8
LAYER_01
 10
502.8056733375251
 20
2107.485280644195
 30
0.0
  0
VERTEX
  5
2EE
  8
LAYER_01
 10
464.5170475405357
 20
2126.840071015648
 30
0.0
  0
VERTEX
  5
2EF
  8
LAYER_01
 10
464.5170475405357
 20
2163.389657187727
 30
0.0
  0
SEQEND
  5
2F0
  8
LAYER_01
  0
POLYLINE
  5
2F1
  8
LAYER_01
 66
     1
 10
0.0
 20
0.0
 30
0.0
 70
     1
  0
VERTEX
  5
2F2
  8
LAYER_01
 10
390.5720248804371
 20
2112.570306130812
 30
0.0
  0
VERTEX
  5
2F3
  8
LAYER_01
 10
363.0294604265177
 20
2159.341966752119
 30
0.0
  0
VERTEX
  5
2F4
  8
LAYER_01
 10
409.8011210478241
 20
2131.7994022982
 30
0.0
  0
VERTEX
  5
2F5
  8
LAYER_01
 10
444.5170475405357
 20
2151.842651803934
 30
0.0
  0
VERTEX
  5
2F6
  8
LAYER_01
 10
444.5170475405358
 20
2114.539950242009
 30
0.0
  0
VERTEX
  5
2F7
  8
LAYER_01
 10
479.2926142205979
 20
2096.961001164289
 30
0.0
  0
VERTEX
  5
2F8
  8
LAYER_01
 10
438.3357799618425
 20
2090.539795380535
 30
0.0
  0
VERTEX
  5
2F9
  8
LAYER_01
 10
427.7496503017285
 20
2049.436777594647
 30
0.0
  0
VERTEX
  5
2FA
  8
LAYER_01
 10
406.4857034841359
 20
2085.546345593876
 30
0.0
  0
VERTEX
  5
2FB
  8
LAYER_01
 10
371.8330872544676
 20
2080.113514082769
 30
0.0
  0
SEQEND
  5
2FC
  8
LAYER_01
  0
POLYLINE
  5
2FD
  8
LAYER_01
 66
     1
 10
0.0
 20
0.0
 30
0.0
 70
     1
  0
VERTEX
  5
2FE
  8
LAYER_01
 10
502.8056733375251
 20
2000.162611510931
 30
0.0
  0
VERTEX
  5
2FF
  8
LAYER_01
 10
468.4472524737197
 20
1980.325767976279
 30
0.0
  0
VERTEX
  5
300
  8
LAYER_01
 10
442.1181001028266
 20
2025.036861643624
 30
0.0
  0
VERTEX
  5
301
  8
LAYER_01
 10
454.424140789368
 20
2072.817818938959
 30
0.0
  0
VERTEX
  5
302
  8
LAYER_01
 10
502.8056733375251
 20
2080.403067707512
 30
0.0
  0
SEQEND
  5
303
  8
LAYER_01
  0
POLYLINE
  5
304
  8
LAYER_01
 66
     1
 10
0.0
 20
0.0
 30
0.0
 70
     1
  0
VERTEX
  5
305
  8
LAYER_01
 10
102.1376869271275
 20
2180.26541525035
 30
0.0
  0
VERTEX
  5
306
  8
LAYER_01
 10
161.5157964931082
 20
2215.23157612957
 30
0.0
  0
VERTEX
  5
307
  8
LAYER_01
 10
160.9232676818801
 20
2146.325544377126
 30
0.0
  0
VERTEX
  5
308
  8
LAYER_01
 10
122.1725964756689
 20
2077.854379638101
 30
0.0
  0
VERTEX
  5
309
  8
LAYER_01
 10
82.20103511824203
 20
2077.854379638101
 30
0.0
  0
VERTEX
  5
30A
  8
LAYER_01
 10
62.21525443952845
 20
2112.470767202561
 30
0.0
  0
SEQEND
  5
30B
  8
LAYER_01
  0
POLYLINE
  5
30C
  8
LAYER_01
 66
     1
 10
0.0
 20
0.0
 30
0.0
 70
     1
  0
VERTEX
  5
30D
  8
LAYER_01
 10
53.58991692384842
 20
2253.658895135157
 30
0.0
  0
VERTEX
  5
30E
  8
LAYER_01
 10
122.4959486762936
 20
2254.251423946385
 30
0.0
  0
VERTEX
  5
30F
  8
LAYER_01
 10
87.52978779707354
 20
2194.873314380405
 30
0.0
  0
VERTEX
  5
310
  8
LAYER_01
 10
19.73513974928409
 20
2154.950881892806
 30
0.0
  0
VERTEX
  5
311
  8
LAYER_01
 10
-14.8812478151761
 20
2174.936662571519
 30
0.0
  0
VERTEX
  5
312
  8
LAYER_01
 10
-14.8812478151761
 20
2214.908223928946
 30
0.0
  0
SEQEND
  5
313
  8
LAYER_01
  0
POLYLINE
  5
314
  8
LAYER_01
 66
     1
 10
0.0
 20
0.0
 30
0.0
  0
VERTEX
  5
315
  8
LAYER_01
 10
108.2136931235368
 20
2307.553527315957
 30
0.0
  0
VERTEX
  5
316
  8
LAYER_01
 10
48.24305474632826
 20
2273.613656442732
 30
0.0
  0
VERTEX
  5
317
  8
LAYER_01
 10
-30.43004894748213
 20
2272.937139751497
 30
0.0
  0
VERTEX
  5
318
  8
LAYER_01
 10
-50.4158296261956
 20
2307.553527315957
 30
0.0
  0
SEQEND
  5
319
  8
LAYER_01
  0
POLYLINE
  5
31A
  8
LAYER_01
 66
     1
 10
0.0
 20
0.0
 30
0.0
 70
     1
  0
VERTEX
  5
31B
  8
LAYER_01
 10
181.2325931095558
 20
2182.211456125513
 30
0.0
  0
VERTEX
  5
31C
  8
LAYER_01
 10
181.6183304944579
 20
2227.069414065286
 30
0.0
  0
VERTEX
  5
31D
  8
LAYER_01
 10
195.4318555321007
 20
2235.203824916453
 30
0.0
  0
VERTEX
  5
31E
  8
LAYER_01
 10
203.3275137049277
 20
2221.2524559557
 30
0.0
  0
SEQEND
  5
31F
  8
LAYER_01
  0
POLYLINE
  5
320
  8
LAYER_01
 66
     1
 10
0.0
 20
0.0
 30
0.0
 70
     1
  0
VERTEX
  5
321
  8
LAYER_01
 10
89.47582867223542
 20
2273.968220562833
 30
0.0
  0
VERTEX
  5
322
  8
LAYER_01
 10
128.5168285024237
 20
2296.063141158205
 30
0.0
  0
VERTEX
  5
323
  8
LAYER_01
 10
142.4681974631764
 20
2288.167482985378
 30
0.0
  0
VERTEX
  5
324
  8
LAYER_01
 10
134.3337866120083
 20
2274.353957947735
 30
0.0
  0
SEQEND
  5
325
  8
LAYER_01
  0
POLYLINE
  5
326
  8
LAYER_01
 66
     1
 10
0.0
 20
0.0
 30
0.0
 70
     1
  0
VERTEX
  5
327
  8
LAYER_01
 10
123.0611354253593
 20
2215.796762878636
 30
0.0
  0
VERTEX
  5
328
  8
LAYER_01
 10
145.8241727697603
 20
2254.452025323922
 30
0.0
  0
VERTEX
  5
329
  8
LAYER_01
 10
161.8542417937553
 20
2254.589869247033
 30
0.0
  0
VERTEX
  5
32A
  8
LAYER_01
 10
161.7163978706453
 20
2238.559800223037
 30
0.0
  0
SEQEND
  5
32B
  8
LAYER_01
  0
POLYLINE
  5
32C
  8
LAYER_01
 66
     1
 10
0.0
 20
0.0
 30
0.0
 70
     1
  0
VERTEX
  5
32D
  8
LAYER_01
 10
160.5687035617792
 20
2105.092770451219
 30
0.0
  0
VERTEX
  5
32E
  8
LAYER_01
 10
133.834539513503
 20
2057.854379638101
 30
0.0
  0
VERTEX
  5
32F
  8
LAYER_01
 10
96.1525508048095
 20
2057.854379638101
 30
0.0
  0
VERTEX
  5
330
  8
LAYER_01
 10
118.1166692519038
 20
2030.081418537595
 30
0.0
  0
VERTEX
  5
331
  8
LAYER_01
 10
95.8610303139676
 20
1990.756434668737
 30
0.0
  0
VERTEX
  5
332
  8
LAYER_01
 10
140.4560671319074
 20
2001.833927985015
 30
0.0
  0
VERTEX
  5
333
  8
LAYER_01
 10
159.473984840285
 20
1977.786348292726
 30
0.0
  0
VERTEX
  5
334
  8
LAYER_01
 10
159.7555462639901
 20
2010.529533154664
 30
0.0
  0
VERTEX
  5
335
  8
LAYER_01
 10
194.8178998626797
 20
2030.772792443289
 30
0.0
  0
VERTEX
  5
336
  8
LAYER_01
 10
160.1019733699681
 20
2050.816041949023
 30
0.0
  0
SEQEND
  5
337
  8
LAYER_01
  0
POLYLINE
  5
338
  8
LAYER_01
 66
     1
 10
0.0
 20
0.0
 30
0.0
 70
     1
  0
VERTEX
  5
339
  8
LAYER_01
 10
8.94855113999904
 20
2022.015422228796
 30
0.0
  0
VERTEX
  5
33A
  8
LAYER_01
 10
21.7412421653093
 20
1972.344936071422
 30
0.0
  0
VERTEX
  5
33B
  8
LAYER_01
 10
69.12113852206085
 20
1984.114193878307
 30
0.0
  0
VERTEX
  5
33C
  8
LAYER_01
 10
94.08569630643672
 20
2028.225748478087
 30
0.0
  0
VERTEX
  5
33D
  8
LAYER_01
 10
70.65402973444947
 20
2057.854379638101
 30
0.0
  0
VERTEX
  5
33E
  8
LAYER_01
 10
33.48473810589758
 20
2063.681775107082
 30
0.0
  0
SEQEND
  5
33F
  8
LAYER_01
  0
POLYLINE
  5
340
  8
LAYER_01
 66
     1
 10
0.0
 20
0.0
 30
0.0
 70
     1
  0
VERTEX
  5
341
  8
LAYER_01
 10
158.8170504722992
 20
1901.390501269062
 30
0.0
  0
VERTEX
  5
342
  8
LAYER_01
 10
159.1997144559072
 20
1945.891048930786
 30
0.0
  0
VERTEX
  5
343
  8
LAYER_01
 10
132.7658530986788
 20
1979.315864271261
 30
0.0
  0
VERTEX
  5
344
  8
LAYER_01
 10
82.29045799971755
 20
1966.777678595399
 30
0.0
  0
VERTEX
  5
345
  8
LAYER_01
 10
58.24502375658426
 20
1924.290185139557
 30
0.0
  0
VERTEX
  5
346
  8
LAYER_01
 10
102.0335732186121
 20
1899.008854320232
 30
0.0
  0
SEQEND
  5
347
  8
LAYER_01
  0
POLYLINE
  5
348
  8
LAYER_01
 66
     1
 10
0.0
 20
0.0
 30
0.0
 70
     1
  0
VERTEX
  5
349
  8
LAYER_01
 10
-73.16987361216547
 20
1762.13866560766
 30
0.0
  0
VERTEX
  5
34A
  8
LAYER_01
 10
-73.16987361216547
 20
1845.282013285708
 30
0.0
  0
VERTEX
  5
34B
  8
LAYER_01
 10
-52.01013821105124
 20
1852.74060657803
 30
0.0
  0
VERTEX
  5
34C
  8
LAYER_01
 10
-43.95114252942449
 20
1810.565064716099
 30
0.0
  0
SEQEND
  5
34D
  8
LAYER_01
  0
POLYLINE
  5
34E
  8
LAYER_01
 66
     1
 10
0.0
 20
0.0
 30
0.0
 70
     1
  0
VERTEX
  5
34F
  8
LAYER_01
 10
-6.698804586062636
 20
1833.592381611842
 30
0.0
  0
VERTEX
  5
350
  8
LAYER_01
 10
-22.86853206852709
 20
1806.793076935568
 30
0.0
  0
VERTEX
  5
351
  8
LAYER_01
 10
-11.53859148274921
 20
1747.499536853634
 30
0.0
  0
VERTEX
  5
352
  8
LAYER_01
 10
38.26343405591018
 20
1739.562623902853
 30
0.0
  0
VERTEX
  5
353
  8
LAYER_01
 10
75.3983528605786
 20
1759.891265023257
 30
0.0
  0
VERTEX
  5
354
  8
LAYER_01
 10
54.34604947986674
 20
1798.348118684237
 30
0.0
  0
SEQEND
  5
355
  8
LAYER_01
  0
POLYLINE
  5
356
  8
LAYER_01
 66
     1
 10
0.0
 20
0.0
 30
0.0
 70
     1
  0
VERTEX
  5
357
  8
LAYER_01
 10
-73.16987361216547
 20
1739.468519286873
 30
0.0
  0
VERTEX
  5
358
  8
LAYER_01
 10
-63.48972590944783
 20
1739.468519286873
 30
0.0
  0
VERTEX
  5
359
  8
LAYER_01
 10
-38.33289713535623
 20
1781.162822405889
 30
0.0
  0
VERTEX
  5
35A
  8
LAYER_01
 10
-28.54856879819994
 20
1729.958011573756
 30
0.0
  0
VERTEX
  5
35B
  8
LAYER_01
 10
9.609625178458828
 20
1723.876767675019
 30
0.0
  0
VERTEX
  5
35C
  8
LAYER_01
 10
-19.44162139064326
 20
1707.97334349601
 30
0.0
  0
VERTEX
  5
35D
  8
LAYER_01
 10
-16.45113084719947
 20
1676.611106505705
 30
0.0
  0
VERTEX
  5
35E
  8
LAYER_01
 10
-42.1591919496376
 20
1696.278475655112
 30
0.0
  0
VERTEX
  5
35F
  8
LAYER_01
 10
-73.16987361216547
 20
1678.795943711136
 30
0.0
  0
SEQEND
  5
360
  8
LAYER_01
  0
POLYLINE
  5
361
  8
LAYER_01
 66
     1
 10
0.0
 20
0.0
 30
0.0
 70
     1
  0
VERTEX
  5
362
  8
LAYER_01
 10
126.8589920650908
 20
1560.789684017252
 30
0.0
  0
VERTEX
  5
363
  8
LAYER_01
 10
159.3086418157929
 20
1560.789684017252
 30
0.0
  0
VERTEX
  5
364
  8
LAYER_01
 10
159.3086418157929
 20
1629.760494592455
 30
0.0
  0
VERTEX
  5
365
  8
LAYER_01
 10
137.1749065723131
 20
1667.117116107469
 30
0.0
  0
VERTEX
  5
366
  8
LAYER_01
 10
103.6143317058152
 20
1648.439926616549
 30
0.0
  0
VERTEX
  5
367
  8
LAYER_01
 10
82.7034806864516
 20
1595.05583147338
 30
0.0
  0
SEQEND
  5
368
  8
LAYER_01
  0
POLYLINE
  5
369
  8
LAYER_01
 66
     1
 10
0.0
 20
0.0
 30
0.0
 70
     1
  0
VERTEX
  5
36A
  8
LAYER_01
 10
-73.16987361216547
 20
1977.068600743346
 30
0.0
  0
VERTEX
  5
36B
  8
LAYER_01
 10
-31.63924482639743
 20
1953.090881034267
 30
0.0
  0
VERTEX
  5
36C
  8
LAYER_01
 10
-5.419898661099069
 20
1997.615506277774
 30
0.0
  0
VERTEX
  5
36D
  8
LAYER_01
 10
7.318820255489072
 20
1948.154578912521
 30
0.0
  0
VERTEX
  5
36E
  8
LAYER_01
 10
55.5505662078109
 20
1960.135437804969
 30
0.0
  0
VERTEX
  5
36F
  8
LAYER_01
 10
31.07281583461258
 20
1916.884055930199
 30
0.0
  0
VERTEX
  5
370
  8
LAYER_01
 10
64.7426374829871
 20
1897.444775337943
 30
0.0
  0
VERTEX
  5
371
  8
LAYER_01
 10
1.548867238846071
 20
1894.7942640032
 30
0.0
  0
VERTEX
  5
372
  8
LAYER_01
 10
35.8616542299884
 20
1832.114100025147
 30
0.0
  0
VERTEX
  5
373
  8
LAYER_01
 10
-13.68837551825374
 20
1860.721823038647
 30
0.0
  0
VERTEX
  5
374
  8
LAYER_01
 10
-28.48677746259534
 20
1836.195319245777
 30
0.0
  0
VERTEX
  5
375
  8
LAYER_01
 10
-36.72961323348079
 20
1879.332960566095
 30
0.0
  0
VERTEX
  5
376
  8
LAYER_01
 10
-73.16987361216542
 20
1866.488136352622
 30
0.0
  0
VERTEX
  5
377
  8
LAYER_01
 10
-73.16987361216547
 20
1927.316968206937
 30
0.0
  0
VERTEX
  5
378
  8
LAYER_01
 10
-61.45533281680071
 20
1930.441716429277
 30
0.0
  0
VERTEX
  5
379
  8
LAYER_01
 10
-73.16987361216547
 20
1975.926043007999
 30
0.0
  0
SEQEND
  5
37A
  8
LAYER_01
  0
POLYLINE
  5
37B
  8
LAYER_01
 66
     1
 10
0.0
 20
0.0
 30
0.0
 70
     1
  0
VERTEX
  5
37C
  8
LAYER_01
 10
194.8178998626797
 20
1822.345787588116
 30
0.0
  0
VERTEX
  5
37D
  8
LAYER_01
 10
97.06592898193577
 20
1878.78291428993
 30
0.0
  0
VERTEX
  5
37E
  8
LAYER_01
 10
34.54996823470219
 20
1876.160832051084
 30
0.0
  0
VERTEX
  5
37F
  8
LAYER_01
 10
69.19873227758114
 20
1812.866929040373
 30
0.0
  0
VERTEX
  5
380
  8
LAYER_01
 10
159.3086418157928
 20
1760.841948511834
 30
0.0
  0
VERTEX
  5
381
  8
LAYER_01
 10
159.3086418157928
 20
1801.844507896022
 30
0.0
  0
SEQEND
  5
382
  8
LAYER_01
  0
POLYLINE
  5
383
  8
LAYER_01
 66
     1
 10
0.0
 20
0.0
 30
0.0
 70
     1
  0
VERTEX
  5
384
  8
LAYER_01
 10
87.68312752745953
 20
1779.100947699464
 30
0.0
  0
VERTEX
  5
385
  8
LAYER_01
 10
102.5453952140365
 20
1751.951611916251
 30
0.0
  0
VERTEX
  5
386
  8
LAYER_01
 10
70.52262941519746
 20
1734.421499166267
 30
0.0
  0
VERTEX
  5
387
  8
LAYER_01
 10
133.3704688824899
 20
1724.405484243154
 30
0.0
  0
VERTEX
  5
388
  8
LAYER_01
 10
115.0791625771919
 20
1677.708922960656
 30
0.0
  0
VERTEX
  5
389
  8
LAYER_01
 10
144.4586963805615
 20
1694.059272207749
 30
0.0
  0
VERTEX
  5
38A
  8
LAYER_01
 10
159.3086418157928
 20
1668.996001817995
 30
0.0
  0
VERTEX
  5
38B
  8
LAYER_01
 10
159.3086418157928
 20
1737.747937744249
 30
0.0
  0
SEQEND
  5
38C
  8
LAYER_01
  0
POLYLINE
  5
38D
  8
LAYER_01
 66
     1
 10
0.0
 20
0.0
 30
0.0
 70
     1
  0
VERTEX
  5
38E
  8
LAYER_01
 10
1.718668636988809
 20
1696.756383115262
 30
0.0
  0
VERTEX
  5
38F
  8
LAYER_01
 10
41.86882053774622
 20
1718.735642938433
 30
0.0
  0
VERTEX
  5
390
  8
LAYER_01
 10
105.6861093945435
 20
1708.565127564153
 30
0.0
  0
VERTEX
  5
391
  8
LAYER_01
 10
87.61189654471866
 20
1662.422792299106
 30
0.0
  0
VERTEX
  5
392
  8
LAYER_01
 10
38.10730613295419
 20
1634.872411548211
 30
0.0
  0
VERTEX
  5
393
  8
LAYER_01
 10
5.220482880500867
 20
1660.031729883421
 30
0.0
  0
SEQEND
  5
394
  8
LAYER_01
  0
POLYLINE
  5
395
  8
LAYER_01
 66
     1
 10
0.0
 20
0.0
 30
0.0
 70
     1
  0
VERTEX
  5
396
  8
LAYER_01
 10
-73.16987361216547
 20
1573.232397853675
 30
0.0
  0
VERTEX
  5
397
  8
LAYER_01
 10
-73.16987361216542
 20
1655.836644754391
 30
0.0
  0
VERTEX
  5
398
  8
LAYER_01
 10
-43.8315284196151
 20
1672.376382983748
 30
0.0
  0
VERTEX
  5
399
  8
LAYER_01
 10
-13.86105547529542
 20
1649.448152315963
 30
0.0
  0
VERTEX
  5
39A
  8
LAYER_01
 10
-9.96034742603905
 20
1608.540171336389
 30
0.0
  0
SEQEND
  5
39B
  8
LAYER_01
  0
POLYLINE
  5
39C
  8
LAYER_01
 66
     1
 10
0.0
 20
0.0
 30
0.0
 70
     1
  0
VERTEX
  5
39D
  8
LAYER_01
 10
46.13311578006017
 20
1560.789684017252
 30
0.0
  0
VERTEX
  5
39E
  8
LAYER_01
 10
26.02684066273434
 20
1533.543004423346
 30
0.0
  0
VERTEX
  5
39F
  8
LAYER_01
 10
5.920565545408635
 20
1560.789684017252
 30
0.0
  0
VERTEX
  5
3A0
  8
LAYER_01
 10
-54.43330342447223
 20
1560.789684017252
 30
0.0
  0
VERTEX
  5
3A1
  8
LAYER_01
 10
11.18834595097127
 20
1597.444828763753
 30
0.0
  0
VERTEX
  5
3A2
  8
LAYER_01
 10
7.810558252404803
 20
1632.868775693679
 30
0.0
  0
VERTEX
  5
3A3
  8
LAYER_01
 10
36.37229144363641
 20
1611.018269427163
 30
0.0
  0
VERTEX
  5
3A4
  8
LAYER_01
 10
76.1470656733419
 20
1633.153795954999
 30
0.0
  0
VERTEX
  5
3A5
  8
LAYER_01
 10
58.62639680563132
 20
1588.424623864408
 30
0.0
  0
VERTEX
  5
3A6
  8
LAYER_01
 10
94.23690430232011
 20
1560.789684017252
 30
0.0
  0
SEQEND
  5
3A7
  8
LAYER_01
  0
POLYLINE
  5
3A8
  8
LAYER_01
 66
     1
 10
0.0
 20
0.0
 30
0.0
 70
     1
  0
VERTEX
  5
3A9
  8
LAYER_01
 10
-59.95860438332056
 20
2177.868075752909
 30
0.0
  0
VERTEX
  5
3AA
  8
LAYER_01
 10
-73.16987361216547
 20
2171.562834249266
 30
0.0
  0
VERTEX
  5
3AB
  8
LAYER_01
 10
-73.16987361216547
 20
2107.485280644195
 30
0.0
  0
VERTEX
  5
3AC
  8
LAYER_01
 10
-34.88124781517604
 20
2126.840071015648
 30
0.0
  0
VERTEX
  5
3AD
  8
LAYER_01
 10
-34.88124781517604
 20
2163.389657187727
 30
0.0
  0
SEQEND
  5
3AE
  8
LAYER_01
  0
POLYLINE
  5
3AF
  8
LAYER_01
 66
     1
 10
0.0
 20
0.0
 30
0.0
 70
     1
  0
VERTEX
  5
3B0
  8
LAYER_01
 10
39.06377484492259
 20
2112.570306130812
 30
0.0
  0
VERTEX
  5
3B1
  8
LAYER_01
 10
66.60633929884193
 20
2159.341966752119
 30
0.0
  0
VERTEX
  5
3B2
  8
LAYER_01
 10
19.83467867753558
 20
2131.7994022982
 30
0.0
  0
VERTEX
  5
3B3
  8
LAYER_01
 10
-14.88124781517604
 20
2151.842651803934
 30
0.0
  0
VERTEX
  5
3B4
  8
LAYER_01
 10
-14.8812478151761
 20
2114.539950242009
 30
0.0
  0
VERTEX
  5
3B5
  8
LAYER_01
 10
-49.65681449523822
 20
2096.961001164289
 30
0.0
  0
VERTEX
  5
3B6
  8
LAYER_01
 10
-8.699980236482816
 20
2090.539795380535
 30
0.0
  0
VERTEX
  5
3B7
  8
LAYER_01
 10
1.886149423631196
 20
2049.436777594647
 30
0.0
  0
VERTEX
  5
3B8
  8
LAYER_01
 10
23.15009624122376
 20
2085.546345593876
 30
0.0
  0
VERTEX
  5
3B9
  8
LAYER_01
 10
57.80271247089206
 20
2080.113514082769
 30
0.0
  0
SEQEND
  5
3BA
  8
LAYER_01
  0
POLYLINE
  5
3BB
  8
LAYER_01
 66
     1
 10
0.0
 20
0.0
 30
0.0
 70
     1
  0
VERTEX
  5
3BC
  8
LAYER_01
 10
-73.16987361216547
 20
2000.162611510931
 30
0.0
  0
VERTEX
  5
3BD
  8
LAYER_01
 10
-38.81145274836007
 20
1980.325767976279
 30
0.0
  0
VERTEX
  5
3BE
  8
LAYER_01
 10
-12.48230037746691
 20
2025.036861643624
 30
0.0
  0
VERTEX
  5
3BF
  8
LAYER_01
 10
-24.78834106400836
 20
2072.817818938959
 30
0.0
  0
VERTEX
  5
3C0
  8
LAYER_01
 10
-73.16987361216547
 20
2080.403067707512
 30
0.0
  0
SEQEND
  5
3C1
  8
LAYER_01
  0
POLYLINE
  5
3C2
  8
LAYER_01
 66
     1
 10
0.0
 20
0.0
 30
0.0
 70
     1
  0
VERTEX
  5
3C3
  8
LAYER_01
 10
214.8178998626798
 20
1810.798782204324
 30
0.0
  0
VERTEX
  5
3C4
  8
LAYER_01
 10
250.3271579095669
 20
1790.29750251223
 30
0.0
  0
VERTEX
  5
3C5
  8
LAYER_01
 10
250.3271579095668
 20
1749.294943128041
 30
0.0
  0
VERTEX
  5
3C6
  8
LAYER_01
 10
214.8178998626798
 20
1728.793663435948
 30
0.0
  0
VERTEX
  5
3C7
  8
LAYER_01
 10
179.3086418157928
 20
1749.294943128041
 30
0.0
  0
VERTEX
  5
3C8
  8
LAYER_01
 10
179.3086418157928
 20
1790.29750251223
 30
0.0
  0
SEQEND
  5
3C9
  8
LAYER_01
  0
POLYLINE
  5
3CA
  8
LAYER_01
 66
     1
 10
0.0
 20
0.0
 30
0.0
 70
     1
  0
VERTEX
  5
3CB
  8
LAYER_01
 10
250.3271579095668
 20
1726.200932360456
 30
0.0
  0
VERTEX
  5
3CC
  8
LAYER_01
 10
214.8178998626796
 20
1705.699652668362
 30
0.0
  0
VERTEX
  5
3CD
  8
LAYER_01
 10
179.3086418157928
 20
1726.200932360457
 30
0.0
  0
VERTEX
  5
3CE
  8
LAYER_01
 10
179.3086418157929
 20
1635.240631471257
 30
0.0
  0
VERTEX
  5
3CF
  8
LAYER_01
 10
214.8178998626796
 20
1575.309223665731
 30
0.0
  0
VERTEX
  5
3D0
  8
LAYER_01
 10
250.3271579095668
 20
1635.240631471257
 30
0.0
  0
SEQEND
  5
3D1
  8
LAYER_01
  0
POLYLINE
  5
3D2
  8
LAYER_01
 66
     1
 10
0.0
 20
0.0
 30
0.0
 70
     1
  0
VERTEX
  5
3D3
  8
LAYER_01
 10
214.81789986268
 20
1907.805647598135
 30
0.0
  0
VERTEX
  5
3D4
  8
LAYER_01
 10
250.3762099133919
 20
1952.768051357562
 30
0.0
  0
VERTEX
  5
3D5
  8
LAYER_01
 10
249.979299443079
 20
1998.925343546669
 30
0.0
  0
VERTEX
  5
3D6
  8
LAYER_01
 10
214.8178998626798
 20
2019.225787059497
 30
0.0
  0
VERTEX
  5
3D7
  8
LAYER_01
 10
179.6565002822807
 20
1998.925343546669
 30
0.0
  0
VERTEX
  5
3D8
  8
LAYER_01
 10
179.2595898119678
 20
1952.768051357562
 30
0.0
  0
SEQEND
  5
3D9
  8
LAYER_01
  0
POLYLINE
  5
3DA
  8
LAYER_01
 66
     1
 10
0.0
 20
0.0
 30
0.0
 70
     1
  0
VERTEX
  5
3DB
  8
LAYER_01
 10
214.81789986268
 20
2200.949320576814
 30
0.0
  0
VERTEX
  5
3DC
  8
LAYER_01
 10
248.7577707359048
 20
2140.978682199605
 30
0.0
  0
VERTEX
  5
3DD
  8
LAYER_01
 10
249.4342874271401
 20
2062.305578505795
 30
0.0
  0
VERTEX
  5
3DE
  8
LAYER_01
 10
214.8178998626798
 20
2042.319797827082
 30
0.0
  0
VERTEX
  5
3DF
  8
LAYER_01
 10
180.2015122982195
 20
2062.305578505795
 30
0.0
  0
VERTEX
  5
3E0
  8
LAYER_01
 10
180.8780289894548
 20
2140.978682199605
 30
0.0
  0
SEQEND
  5
3E1
  8
LAYER_01
  0
POLYLINE
  5
3E2
  8
LAYER_01
 66
     1
 10
0.0
 20
0.0
 30
0.0
  0
VERTEX
  5
3E3
  8
LAYER_01
 10
148.8199638813108
 20
2307.553527315957
 30
0.0
  0
VERTEX
  5
3E4
  8
LAYER_01
 10
170.0266934620016
 20
2295.551759732879
 30
0.0
  0
VERTEX
  5
3E5
  8
LAYER_01
 10
157.6620107054751
 20
2274.554559325273
 30
0.0
  0
VERTEX
  5
3E6
  8
LAYER_01
 10
182.028461045079
 20
2274.764088498356
 30
0.0
  0
VERTEX
  5
3E7
  8
LAYER_01
 10
181.8189318719951
 20
2250.397638158752
 30
0.0
  0
VERTEX
  5
3E8
  8
LAYER_01
 10
202.8161322796022
 20
2262.762320915279
 30
0.0
  0
VERTEX
  5
3E9
  8
LAYER_01
 10
214.8178998626798
 20
2241.555591334588
 30
0.0
  0
VERTEX
  5
3EA
  8
LAYER_01
 10
226.8196674457575
 20
2262.762320915279
 30
0.0
  0
VERTEX
  5
3EB
  8
LAYER_01
 10
247.8168678533645
 20
2250.397638158752
 30
0.0
  0
VERTEX
  5
3EC
  8
LAYER_01
 10
247.6073386802807
 20
2274.764088498356
 30
0.0
  0
VERTEX
  5
3ED
  8
LAYER_01
 10
271.9737890198846
 20
2274.554559325273
 30
0.0
  0
VERTEX
  5
3EE
  8
LAYER_01
 10
259.6091062633581
 20
2295.551759732879
 30
0.0
  0
VERTEX
  5
3EF
  8
LAYER_01
 10
280.8158358440489
 20
2307.553527315957
 30
0.0
  0
SEQEND
  5
3F0
  8
LAYER_01
  0
POLYLINE
  5
3F1
  8
LAYER_01
 66
     1
 10
0.0
 20
0.0
 30
0.0
 70
     1
  0
VERTEX
  5
3F2
  8
LAYER_01
 10
214.81789986268
 20
1833.892792971909
 30
0.0
  0
VERTEX
  5
3F3
  8
LAYER_01
 10
295.278935007799
 20
1880.346993272219
 30
0.0
  0
VERTEX
  5
3F4
  8
LAYER_01
 10
250.9829886030538
 20
1882.204880649017
 30
0.0
  0
VERTEX
  5
3F5
  8
LAYER_01
 10
250.6504802977698
 20
1920.872751995623
 30
0.0
  0
VERTEX
  5
3F6
  8
LAYER_01
 10
214.8178998626798
 20
1875.563541660066
 30
0.0
  0
VERTEX
  5
3F7
  8
LAYER_01
 10
178.9853194275899
 20
1920.872751995623
 30
0.0
  0
VERTEX
  5
3F8
  8
LAYER_01
 10
178.6528111223059
 20
1882.204880649017
 30
0.0
  0
VERTEX
  5
3F9
  8
LAYER_01
 10
134.3568647175607
 20
1880.346993272219
 30
0.0
  0
SEQEND
  5
3FA
  8
LAYER_01
  0
POLYLINE
  5
3FB
  8
LAYER_01
 66
     1
 10
0.0
 20
0.0
 30
0.0
 70
     1
  0
VERTEX
  5
3FC
  8
LAYER_01
 10
-73.16987361216553
 20
2268.142367054597
 30
0.0
  0
VERTEX
  5
3FD
  8
LAYER_01
 10
-61.9628350099876
 20
2287.553527315956
 30
0.0
  0
VERTEX
  5
3FE
  8
LAYER_01
 10
-41.9195855042538
 20
2252.837600823245
 30
0.0
  0
VERTEX
  5
3FF
  8
LAYER_01
 10
12.35714299794142
 20
2253.304331015056
 30
0.0
  0
VERTEX
  5
400
  8
LAYER_01
 10
-34.88124781517621
 20
2226.57016696678
 30
0.0
  0
VERTEX
  5
401
  8
LAYER_01
 10
-34.88124781517615
 20
2186.483667955312
 30
0.0
  0
VERTEX
  5
402
  8
LAYER_01
 10
-59.07394813322895
 20
2200.451329996363
 30
0.0
  0
VERTEX
  5
403
  8
LAYER_01
 10
-73.16987361216547
 20
2193.723875364827
 30
0.0
  0
SEQEND
  5
404
  8
LAYER_01
  0
POLYLINE
  5
405
  8
LAYER_01
 66
     1
 10
0.0
 20
0.0
 30
0.0
 70
     1
  0
VERTEX
  5
406
  8
LAYER_01
 10
-73.16987361216553
 20
759.1483024177912
 30
0.0
  0
VERTEX
  5
407
  8
LAYER_01
 10
-61.96283500998761
 20
739.7371421564326
 30
0.0
  0
VERTEX
  5
408
  8
LAYER_01
 10
-41.9195855042538
 20
774.4530686491433
 30
0.0
  0
VERTEX
  5
409
  8
LAYER_01
 10
12.35714299794142
 20
773.9863384573323
 30
0.0
  0
VERTEX
  5
40A
  8
LAYER_01
 10
-34.88124781517621
 20
800.7205025056085
 30
0.0
  0
VERTEX
  5
40B
  8
LAYER_01
 10
-34.88124781517615
 20
840.807001517077
 30
0.0
  0
VERTEX
  5
40C
  8
LAYER_01
 10
-59.07394813322895
 20
826.8393394760253
 30
0.0
  0
VERTEX
  5
40D
  8
LAYER_01
 10
-73.16987361216547
 20
833.5667941075612
 30
0.0
  0
SEQEND
  5
40E
  8
LAYER_01
  0
POLYLINE
  5
40F
  8
LAYER_01
 66
     1
 10
0.0
 20
0.0
 30
0.0
 70
     1
  0
VERTEX
  5
410
  8
LAYER_01
 10
502.8056733375252
 20
759.1483024177912
 30
0.0
  0
VERTEX
  5
411
  8
LAYER_01
 10
491.5986347353473
 20
739.7371421564326
 30
0.0
  0
VERTEX
  5
412
  8
LAYER_01
 10
471.5553852296135
 20
774.4530686491433
 30
0.0
  0
VERTEX
  5
413
  8
LAYER_01
 10
417.2786567274183
 20
773.9863384573323
 30
0.0
  0
VERTEX
  5
414
  8
LAYER_01
 10
464.5170475405359
 20
800.7205025056085
 30
0.0
  0
VERTEX
  5
415
  8
LAYER_01
 10
464.5170475405358
 20
840.807001517077
 30
0.0
  0
VERTEX
  5
416
  8
LAYER_01
 10
488.7097478585886
 20
826.8393394760253
 30
0.0
  0
VERTEX
  5
417
  8
LAYER_01
 10
502.8056733375251
 20
833.5667941075612
 30
0.0
  0
SEQEND
  5
418
  8
LAYER_01
  0
POLYLINE
  5
419
  8
LAYER_01
 66
     1
 10
0.0
 20
0.0
 30
0.0
 70
     1
  0
VERTEX
  5
41A
  8
LAYER_01
 10
491.5986347353472
 20
2287.553527315956
 30
0.0
  0
VERTEX
  5
41B
  8
LAYER_01
 10
471.5553852296135
 20
2252.837600823245
 30
0.0
  0
VERTEX
  5
41C
  8
LAYER_01
 10
417.2786567274183
 20
2253.304331015056
 30
0.0
  0
VERTEX
  5
41D
  8
LAYER_01
 10
464.5170475405359
 20
2226.57016696678
 30
0.0
  0
VERTEX
  5
41E
  8
LAYER_01
 10
464.5170475405358
 20
2186.483667955312
 30
0.0
  0
VERTEX
  5
41F
  8
LAYER_01
 10
488.7097478585886
 20
2200.451329996363
 30
0.0
  0
VERTEX
  5
420
  8
LAYER_01
 10
502.8056733375251
 20
2193.723875364827
 30
0.0
  0
VERTEX
  5
421
  8
LAYER_01
 10
502.8056733375251
 20
2268.142367054597
 30
0.0
  0
SEQEND
  5
422
  8
LAYER_01
  0
POLYLINE
  5
423
  8
LAYER_01
 66
     1
 10
0.0
 20
0.0
 30
0.0
  0
VERTEX
  5
424
  8
LAYER_01
 10
480.0516293515553
 20
719.7371421564318
 30
0.0
  0
VERTEX
  5
425
  8
LAYER_01
 10
460.0658486728418
 20
754.3535297208919
 30
0.0
  0
VERTEX
  5
426
  8
LAYER_01
 10
381.3927449790314
 20
753.6770130296566
 30
0.0
  0
VERTEX
  5
427
  8
LAYER_01
 10
321.4221066018229
 20
719.7371421564318
 30
0.0
  0
SEQEND
  5
428
  8
LAYER_01
  0
POLYLINE
  5
429
  8
LAYER_01
 66
     1
 10
0.0
 20
0.0
 30
0.0
  0
VERTEX
  5
42A
  8
LAYER_01
 10
-50.4158296261956
 20
719.7371421564318
 30
0.0
  0
VERTEX
  5
42B
  8
LAYER_01
 10
-30.43004894748213
 20
754.3535297208919
 30
0.0
  0
VERTEX
  5
42C
  8
LAYER_01
 10
48.24305474632826
 20
753.6770130296566
 30
0.0
  0
VERTEX
  5
42D
  8
LAYER_01
 10
108.2136931235368
 20
719.7371421564318
 30
0.0
  0
SEQEND
  5
42E
  8
LAYER_01
  0
POLYLINE
  5
42F
  8
LAYER_01
 66
     1
 10
0.0
 20
0.0
 30
0.0
  0
VERTEX
  5
430
  8
LAYER_01
 10
280.8158358440489
 20
719.7371421564317
 30
0.0
  0
VERTEX
  5
431
  8
LAYER_01
 10
259.6091062633581
 20
731.7389097395092
 30
0.0
  0
VERTEX
  5
432
  8
LAYER_01
 10
271.9737890198846
 20
752.736110147116
 30
0.0
  0
VERTEX
  5
433
  8
LAYER_01
 10
247.6073386802807
 20
752.5265809740324
 30
0.0
  0
VERTEX
  5
434
  8
LAYER_01
 10
247.8168678533645
 20
776.8930313136364
 30
0.0
  0
VERTEX
  5
435
  8
LAYER_01
 10
226.8196674457575
 20
764.5283485571099
 30
0.0
  0
VERTEX
  5
436
  8
LAYER_01
 10
214.8178998626798
 20
785.7350781378007
 30
0.0
  0
VERTEX
  5
437
  8
LAYER_01
 10
202.8161322796022
 20
764.5283485571099
 30
0.0
  0
VERTEX
  5
438
  8
LAYER_01
 10
181.8189318719951
 20
776.8930313136364
 30
0.0
  0
VERTEX
  5
439
  8
LAYER_01
 10
182.028461045079
 20
752.5265809740324
 30
0.0
  0
VERTEX
  5
43A
  8
LAYER_01
 10
157.6620107054751
 20
752.736110147116
 30
0.0
  0
VERTEX
  5
43B
  8
LAYER_01
 10
170.0266934620016
 20
731.7389097395092
 30
0.0
  0
VERTEX
  5
43C
  8
LAYER_01
 10
148.8199638813108
 20
719.7371421564318
 30
0.0
  0
SEQEND
  5
43D
  8
LAYER_01
  0
POLYLINE
  5
43E
  8
LAYER_01
 66
     1
 10
0.0
 20
0.0
 30
0.0
 70
     1
  0
VERTEX
  5
43F
  8
LAYER_01
 10
327.4981127982322
 20
592.4490300908251
 30
0.0
  0
VERTEX
  5
440
  8
LAYER_01
 10
268.1200032322515
 20
627.4151909700454
 30
0.0
  0
VERTEX
  5
441
  8
LAYER_01
 10
268.7125320434795
 20
558.5091592176005
 30
0.0
  0
VERTEX
  5
442
  8
LAYER_01
 10
307.4632032496908
 20
490.0379944785758
 30
0.0
  0
VERTEX
  5
443
  8
LAYER_01
 10
347.4347646071176
 20
490.0379944785757
 30
0.0
  0
VERTEX
  5
444
  8
LAYER_01
 10
367.4205452858312
 20
524.6543820430359
 30
0.0
  0
SEQEND
  5
445
  8
LAYER_01
  0
POLYLINE
  5
446
  8
LAYER_01
 66
     1
 10
0.0
 20
0.0
 30
0.0
 70
     1
  0
VERTEX
  5
447
  8
LAYER_01
 10
376.0458828015113
 20
665.8425099756321
 30
0.0
  0
VERTEX
  5
448
  8
LAYER_01
 10
307.1398510490661
 20
666.4350387868602
 30
0.0
  0
VERTEX
  5
449
  8
LAYER_01
 10
342.1060119282861
 20
607.0569292208796
 30
0.0
  0
VERTEX
  5
44A
  8
LAYER_01
 10
409.9006599760756
 20
567.1344967332805
 30
0.0
  0
VERTEX
  5
44B
  8
LAYER_01
 10
444.5170475405358
 20
587.1202774119938
 30
0.0
  0
VERTEX
  5
44C
  8
LAYER_01
 10
444.5170475405358
 20
627.0918387694209
 30
0.0
  0
SEQEND
  5
44D
  8
LAYER_01
  0
POLYLINE
  5
44E
  8
LAYER_01
 66
     1
 10
0.0
 20
0.0
 30
0.0
 70
     1
  0
VERTEX
  5
44F
  8
LAYER_01
 10
248.4032066158039
 20
594.3950709659873
 30
0.0
  0
VERTEX
  5
450
  8
LAYER_01
 10
248.0174692309018
 20
639.2530289057603
 30
0.0
  0
VERTEX
  5
451
  8
LAYER_01
 10
234.203944193259
 20
647.3874397569282
 30
0.0
  0
VERTEX
  5
452
  8
LAYER_01
 10
226.308286020432
 20
633.4360707961755
 30
0.0
  0
SEQEND
  5
453
  8
LAYER_01
  0
POLYLINE
  5
454
  8
LAYER_01
 66
     1
 10
0.0
 20
0.0
 30
0.0
 70
     1
  0
VERTEX
  5
455
  8
LAYER_01
 10
340.1599710531243
 20
686.1518354033078
 30
0.0
  0
VERTEX
  5
456
  8
LAYER_01
 10
301.118971222936
 20
708.2467559986796
 30
0.0
  0
VERTEX
  5
457
  8
LAYER_01
 10
287.1676022621833
 20
700.3510978258525
 30
0.0
  0
VERTEX
  5
458
  8
LAYER_01
 10
295.3020131133514
 20
686.5375727882099
 30
0.0
  0
SEQEND
  5
459
  8
LAYER_01
  0
POLYLINE
  5
45A
  8
LAYER_01
 66
     1
 10
0.0
 20
0.0
 30
0.0
 70
     1
  0
VERTEX
  5
45B
  8
LAYER_01
 10
306.5746643000004
 20
627.9803777191112
 30
0.0
  0
VERTEX
  5
45C
  8
LAYER_01
 10
283.8116269555994
 20
666.6356401643974
 30
0.0
  0
VERTEX
  5
45D
  8
LAYER_01
 10
267.7815579316044
 20
666.7734840875072
 30
0.0
  0
VERTEX
  5
45E
  8
LAYER_01
 10
267.9194018547144
 20
650.7434150635121
 30
0.0
  0
SEQEND
  5
45F
  8
LAYER_01
  0
POLYLINE
  5
460
  8
LAYER_01
 66
     1
 10
0.0
 20
0.0
 30
0.0
 70
     1
  0
VERTEX
  5
461
  8
LAYER_01
 10
269.0670961635805
 20
517.2763852916933
 30
0.0
  0
VERTEX
  5
462
  8
LAYER_01
 10
295.8012602118566
 20
470.0379944785757
 30
0.0
  0
VERTEX
  5
463
  8
LAYER_01
 10
333.4832489205502
 20
470.0379944785757
 30
0.0
  0
VERTEX
  5
464
  8
LAYER_01
 10
311.5191304734559
 20
442.2650333780703
 30
0.0
  0
VERTEX
  5
465
  8
LAYER_01
 10
333.7747694113921
 20
402.940049509212
 30
0.0
  0
VERTEX
  5
466
  8
LAYER_01
 10
289.1797325934522
 20
414.01754282549
 30
0.0
  0
VERTEX
  5
467
  8
LAYER_01
 10
270.1618148850747
 20
389.9699631332007
 30
0.0
  0
VERTEX
  5
468
  8
LAYER_01
 10
269.8802534613696
 20
422.7131479951384
 30
0.0
  0
VERTEX
  5
469
  8
LAYER_01
 10
234.81789986268
 20
442.9564072837638
 30
0.0
  0
VERTEX
  5
46A
  8
LAYER_01
 10
269.5338263553916
 20
462.999656789498
 30
0.0
  0
SEQEND
  5
46B
  8
LAYER_01
  0
POLYLINE
  5
46C
  8
LAYER_01
 66
     1
 10
0.0
 20
0.0
 30
0.0
 70
     1
  0
VERTEX
  5
46D
  8
LAYER_01
 10
420.6872485853606
 20
434.1990370692707
 30
0.0
  0
VERTEX
  5
46E
  8
LAYER_01
 10
407.8945575600504
 20
384.5285509118971
 30
0.0
  0
VERTEX
  5
46F
  8
LAYER_01
 10
360.5146612032988
 20
396.2978087187821
 30
0.0
  0
VERTEX
  5
470
  8
LAYER_01
 10
335.550103418923
 20
440.4093633185618
 30
0.0
  0
VERTEX
  5
471
  8
LAYER_01
 10
358.9817699909102
 20
470.0379944785757
 30
0.0
  0
VERTEX
  5
472
  8
LAYER_01
 10
396.1510616194621
 20
475.8653899475567
 30
0.0
  0
SEQEND
  5
473
  8
LAYER_01
  0
POLYLINE
  5
474
  8
LAYER_01
 66
     1
 10
0.0
 20
0.0
 30
0.0
 70
     1
  0
VERTEX
  5
475
  8
LAYER_01
 10
270.8187492530604
 20
313.5741161095366
 30
0.0
  0
VERTEX
  5
476
  8
LAYER_01
 10
270.4360852694525
 20
358.0746637712608
 30
0.0
  0
VERTEX
  5
477
  8
LAYER_01
 10
296.8699466266809
 20
391.4994791117362
 30
0.0
  0
VERTEX
  5
478
  8
LAYER_01
 10
347.3453417256421
 20
378.9612934358739
 30
0.0
  0
VERTEX
  5
479
  8
LAYER_01
 10
371.3907759687754
 20
336.4737999800316
 30
0.0
  0
VERTEX
  5
47A
  8
LAYER_01
 10
327.6022265067476
 20
311.1924691607065
 30
0.0
  0
SEQEND
  5
47B
  8
LAYER_01
  0
POLYLINE
  5
47C
  8
LAYER_01
 66
     1
 10
0.0
 20
0.0
 30
0.0
 70
     1
  0
VERTEX
  5
47D
  8
LAYER_01
 10
502.8056733375251
 20
174.3222804481345
 30
0.0
  0
VERTEX
  5
47E
  8
LAYER_01
 10
502.8056733375251
 20
257.4656281261829
 30
0.0
  0
VERTEX
  5
47F
  8
LAYER_01
 10
481.6459379364109
 20
264.9242214185047
 30
0.0
  0
VERTEX
  5
480
  8
LAYER_01
 10
473.5869422547842
 20
222.7486795565738
 30
0.0
  0
SEQEND
  5
481
  8
LAYER_01
  0
POLYLINE
  5
482
  8
LAYER_01
 66
     1
 10
0.0
 20
0.0
 30
0.0
 70
     1
  0
VERTEX
  5
483
  8
LAYER_01
 10
436.3346043114223
 20
245.7759964523173
 30
0.0
  0
VERTEX
  5
484
  8
LAYER_01
 10
452.5043317938868
 20
218.9766917760421
 30
0.0
  0
VERTEX
  5
485
  8
LAYER_01
 10
441.1743912081089
 20
159.6831516941085
 30
0.0
  0
VERTEX
  5
486
  8
LAYER_01
 10
391.3723656694495
 20
151.7462387433281
 30
0.0
  0
VERTEX
  5
487
  8
LAYER_01
 10
354.2374468647811
 20
172.0748798637314
 30
0.0
  0
VERTEX
  5
488
  8
LAYER_01
 10
375.2897502454929
 20
210.5317335247115
 30
0.0
  0
SEQEND
  5
489
  8
LAYER_01
  0
POLYLINE
  5
48A
  8
LAYER_01
 66
     1
 10
0.0
 20
0.0
 30
0.0
 70
     1
  0
VERTEX
  5
48B
  8
LAYER_01
 10
502.8056733375251
 20
151.6521341273474
 30
0.0
  0
VERTEX
  5
48C
  8
LAYER_01
 10
493.1255256348075
 20
151.6521341273473
 30
0.0
  0
VERTEX
  5
48D
  8
LAYER_01
 10
467.9686968607159
 20
193.3464372463638
 30
0.0
  0
VERTEX
  5
48E
  8
LAYER_01
 10
458.1843685235596
 20
142.141626414231
 30
0.0
  0
VERTEX
  5
48F
  8
LAYER_01
 10
420.0261745469008
 20
136.0603825154936
 30
0.0
  0
VERTEX
  5
490
  8
LAYER_01
 10
449.0774211160029
 20
120.1569583364844
 30
0.0
  0
VERTEX
  5
491
  8
LAYER_01
 10
446.0869305725591
 20
88.79472134618017
 30
0.0
  0
VERTEX
  5
492
  8
LAYER_01
 10
471.7949916749973
 20
108.4620904955863
 30
0.0
  0
VERTEX
  5
493
  8
LAYER_01
 10
502.8056733375251
 20
90.97955855161098
 30
0.0
  0
SEQEND
  5
494
  8
LAYER_01
  0
POLYLINE
  5
495
  8
LAYER_01
 66
     1
 10
0.0
 20
0.0
 30
0.0
 70
     1
  0
VERTEX
  5
496
  8
LAYER_01
 10
302.7768076602689
 20
-27.02670114227355
 30
0.0
  0
VERTEX
  5
497
  8
LAYER_01
 10
270.3271579095668
 20
-27.02670114227354
 30
0.0
  0
VERTEX
  5
498
  8
LAYER_01
 10
270.3271579095668
 20
41.94410943292937
 30
0.0
  0
VERTEX
  5
499
  8
LAYER_01
 10
292.4608931530465
 20
79.30073094794423
 30
0.0
  0
VERTEX
  5
49A
  8
LAYER_01
 10
326.0214680195445
 20
60.62354145702366
 30
0.0
  0
VERTEX
  5
49B
  8
LAYER_01
 10
346.9323190389081
 20
7.239446313854565
 30
0.0
  0
SEQEND
  5
49C
  8
LAYER_01
  0
POLYLINE
  5
49D
  8
LAYER_01
 66
     1
 10
0.0
 20
0.0
 30
0.0
 70
     1
  0
VERTEX
  5
49E
  8
LAYER_01
 10
502.8056733375251
 20
389.2522155838212
 30
0.0
  0
VERTEX
  5
49F
  8
LAYER_01
 10
461.2750445517571
 20
365.2744958747414
 30
0.0
  0
VERTEX
  5
4A0
  8
LAYER_01
 10
435.0556983864587
 20
409.7991211182484
 30
0.0
  0
VERTEX
  5
4A1
  8
LAYER_01
 10
422.3169794698706
 20
360.3381937529959
 30
0.0
  0
VERTEX
  5
4A2
  8
LAYER_01
 10
374.0852335175488
 20
372.3190526454441
 30
0.0
  0
VERTEX
  5
4A3
  8
LAYER_01
 10
398.5629838907471
 20
329.0676707706733
 30
0.0
  0
VERTEX
  5
4A4
  8
LAYER_01
 10
364.8931622423726
 20
309.6283901784176
 30
0.0
  0
VERTEX
  5
4A5
  8
LAYER_01
 10
428.0869324865136
 20
306.9778788436744
 30
0.0
  0
VERTEX
  5
4A6
  8
LAYER_01
 10
393.7741454953713
 20
244.2977148656213
 30
0.0
  0
VERTEX
  5
4A7
  8
LAYER_01
 10
443.3241752436134
 20
272.9054378791217
 30
0.0
  0
VERTEX
  5
4A8
  8
LAYER_01
 10
458.122577187955
 20
248.3789340862521
 30
0.0
  0
VERTEX
  5
4A9
  8
LAYER_01
 10
466.3654129588405
 20
291.5165754065697
 30
0.0
  0
VERTEX
  5
4AA
  8
LAYER_01
 10
502.8056733375251
 20
278.6717511930966
 30
0.0
  0
VERTEX
  5
4AB
  8
LAYER_01
 10
502.8056733375251
 20
339.5005830474116
 30
0.0
  0
VERTEX
  5
4AC
  8
LAYER_01
 10
491.0911325421604
 20
342.6253312697518
 30
0.0
  0
VERTEX
  5
4AD
  8
LAYER_01
 10
502.8056733375251
 20
388.1096578484739
 30
0.0
  0
SEQEND
  5
4AE
  8
LAYER_01
  0
POLYLINE
  5
4AF
  8
LAYER_01
 66
     1
 10
0.0
 20
0.0
 30
0.0
 70
     1
  0
VERTEX
  5
4B0
  8
LAYER_01
 10
234.81789986268
 20
234.5294024285908
 30
0.0
  0
VERTEX
  5
4B1
  8
LAYER_01
 10
332.5698707434239
 20
290.9665291304048
 30
0.0
  0
VERTEX
  5
4B2
  8
LAYER_01
 10
395.0858314906575
 20
288.3444468915584
 30
0.0
  0
VERTEX
  5
4B3
  8
LAYER_01
 10
360.4370674477785
 20
225.0505438808481
 30
0.0
  0
VERTEX
  5
4B4
  8
LAYER_01
 10
270.3271579095668
 20
173.0255633523087
 30
0.0
  0
VERTEX
  5
4B5
  8
LAYER_01
 10
270.3271579095669
 20
214.0281227364968
 30
0.0
  0
SEQEND
  5
4B6
  8
LAYER_01
  0
POLYLINE
  5
4B7
  8
LAYER_01
 66
     1
 10
0.0
 20
0.0
 30
0.0
 70
     1
  0
VERTEX
  5
4B8
  8
LAYER_01
 10
341.9526721979001
 20
191.2845625399382
 30
0.0
  0
VERTEX
  5
4B9
  8
LAYER_01
 10
327.0904045113232
 20
164.1352267567259
 30
0.0
  0
VERTEX
  5
4BA
  8
LAYER_01
 10
359.1131703101622
 20
146.6051140067423
 30
0.0
  0
VERTEX
  5
4BB
  8
LAYER_01
 10
296.2653308428697
 20
136.5890990836282
 30
0.0
  0
VERTEX
  5
4BC
  8
LAYER_01
 10
314.5566371481677
 20
89.8925378011309
 30
0.0
  0
VERTEX
  5
4BD
  8
LAYER_01
 10
285.1771033447981
 20
106.2428870482235
 30
0.0
  0
VERTEX
  5
4BE
  8
LAYER_01
 10
270.3271579095668
 20
81.17961665846954
 30
0.0
  0
VERTEX
  5
4BF
  8
LAYER_01
 10
270.3271579095668
 20
149.9315525847236
 30
0.0
  0
SEQEND
  5
4C0
  8
LAYER_01
  0
POLYLINE
  5
4C1
  8
LAYER_01
 66
     1
 10
0.0
 20
0.0
 30
0.0
 70
     1
  0
VERTEX
  5
4C2
  8
LAYER_01
 10
427.9171310883709
 20
108.9399979557365
 30
0.0
  0
VERTEX
  5
4C3
  8
LAYER_01
 10
387.7669791876135
 20
130.9192577789078
 30
0.0
  0
VERTEX
  5
4C4
  8
LAYER_01
 10
323.9496903308162
 20
120.7487424046281
 30
0.0
  0
VERTEX
  5
4C5
  8
LAYER_01
 10
342.023903180641
 20
74.60640713958063
 30
0.0
  0
VERTEX
  5
4C6
  8
LAYER_01
 10
391.5284935924055
 20
47.05602638868565
 30
0.0
  0
VERTEX
  5
4C7
  8
LAYER_01
 10
424.4153168448588
 20
72.2153447238958
 30
0.0
  0
SEQEND
  5
4C8
  8
LAYER_01
  0
POLYLINE
  5
4C9
  8
LAYER_01
 66
     1
 10
0.0
 20
0.0
 30
0.0
 70
     1
  0
VERTEX
  5
4CA
  8
LAYER_01
 10
502.8056733375251
 20
-14.58398730585021
 30
0.0
  0
VERTEX
  5
4CB
  8
LAYER_01
 10
502.8056733375251
 20
68.02025959486582
 30
0.0
  0
VERTEX
  5
4CC
  8
LAYER_01
 10
473.4673281449748
 20
84.55999782422299
 30
0.0
  0
VERTEX
  5
4CD
  8
LAYER_01
 10
443.4968552006551
 20
61.63176715643756
 30
0.0
  0
VERTEX
  5
4CE
  8
LAYER_01
 10
439.5961471513987
 20
20.72378617686338
 30
0.0
  0
SEQEND
  5
4CF
  8
LAYER_01
  0
POLYLINE
  5
4D0
  8
LAYER_01
 66
     1
 10
0.0
 20
0.0
 30
0.0
 70
     1
  0
VERTEX
  5
4D1
  8
LAYER_01
 10
383.5026839452995
 20
-27.02670114227353
 30
0.0
  0
VERTEX
  5
4D2
  8
LAYER_01
 10
403.6089590626253
 20
-54.27338073617921
 30
0.0
  0
VERTEX
  5
4D3
  8
LAYER_01
 10
423.715234179951
 20
-27.02670114227354
 30
0.0
  0
VERTEX
  5
4D4
  8
LAYER_01
 10
484.0691031498319
 20
-27.02670114227353
 30
0.0
  0
VERTEX
  5
4D5
  8
LAYER_01
 10
418.4474537743884
 20
9.628443604227527
 30
0.0
  0
VERTEX
  5
4D6
  8
LAYER_01
 10
421.8252414729549
 20
45.05239053415322
 30
0.0
  0
VERTEX
  5
4D7
  8
LAYER_01
 10
393.2635082817233
 20
23.20188426763733
 30
0.0
  0
VERTEX
  5
4D8
  8
LAYER_01
 10
353.4887340520178
 20
45.33741079547339
 30
0.0
  0
VERTEX
  5
4D9
  8
LAYER_01
 10
371.0094029197284
 20
0.6082387048822397
 30
0.0
  0
VERTEX
  5
4DA
  8
LAYER_01
 10
335.3988954230396
 20
-27.02670114227354
 30
0.0
  0
SEQEND
  5
4DB
  8
LAYER_01
  0
POLYLINE
  5
4DC
  8
LAYER_01
 66
     1
 10
0.0
 20
0.0
 30
0.0
 70
     1
  0
VERTEX
  5
4DD
  8
LAYER_01
 10
489.5944041086802
 20
590.0516905933839
 30
0.0
  0
VERTEX
  5
4DE
  8
LAYER_01
 10
502.8056733375251
 20
583.7464490897407
 30
0.0
  0
VERTEX
  5
4DF
  8
LAYER_01
 10
502.8056733375251
 20
519.6688954846692
 30
0.0
  0
VERTEX
  5
4E0
  8
LAYER_01
 10
464.5170475405357
 20
539.0236858561232
 30
0.0
  0
VERTEX
  5
4E1
  8
LAYER_01
 10
464.5170475405357
 20
575.5732720282015
 30
0.0
  0
SEQEND
  5
4E2
  8
LAYER_01
  0
POLYLINE
  5
4E3
  8
LAYER_01
 66
     1
 10
0.0
 20
0.0
 30
0.0
 70
     1
  0
VERTEX
  5
4E4
  8
LAYER_01
 10
390.5720248804371
 20
524.7539209712872
 30
0.0
  0
VERTEX
  5
4E5
  8
LAYER_01
 10
363.0294604265177
 20
571.5255815925938
 30
0.0
  0
VERTEX
  5
4E6
  8
LAYER_01
 10
409.8011210478241
 20
543.9830171386745
 30
0.0
  0
VERTEX
  5
4E7
  8
LAYER_01
 10
444.5170475405357
 20
564.0262666444089
 30
0.0
  0
VERTEX
  5
4E8
  8
LAYER_01
 10
444.5170475405358
 20
526.7235650824832
 30
0.0
  0
VERTEX
  5
4E9
  8
LAYER_01
 10
479.2926142205979
 20
509.1446160047636
 30
0.0
  0
VERTEX
  5
4EA
  8
LAYER_01
 10
438.3357799618425
 20
502.7234102210102
 30
0.0
  0
VERTEX
  5
4EB
  8
LAYER_01
 10
427.7496503017285
 20
461.6203924351213
 30
0.0
  0
VERTEX
  5
4EC
  8
LAYER_01
 10
406.4857034841359
 20
497.7299604343505
 30
0.0
  0
VERTEX
  5
4ED
  8
LAYER_01
 10
371.8330872544676
 20
492.297128923244
 30
0.0
  0
SEQEND
  5
4EE
  8
LAYER_01
  0
POLYLINE
  5
4EF
  8
LAYER_01
 66
     1
 10
0.0
 20
0.0
 30
0.0
 70
     1
  0
VERTEX
  5
4F0
  8
LAYER_01
 10
502.8056733375251
 20
412.3462263514061
 30
0.0
  0
VERTEX
  5
4F1
  8
LAYER_01
 10
468.4472524737197
 20
392.5093828167538
 30
0.0
  0
VERTEX
  5
4F2
  8
LAYER_01
 10
442.1181001028266
 20
437.2204764840993
 30
0.0
  0
VERTEX
  5
4F3
  8
LAYER_01
 10
454.424140789368
 20
485.001433779434
 30
0.0
  0
VERTEX
  5
4F4
  8
LAYER_01
 10
502.8056733375251
 20
492.5866825479875
 30
0.0
  0
SEQEND
  5
4F5
  8
LAYER_01
  0
POLYLINE
  5
4F6
  8
LAYER_01
 66
     1
 10
0.0
 20
0.0
 30
0.0
 70
     1
  0
VERTEX
  5
4F7
  8
LAYER_01
 10
102.1376869271275
 20
592.4490300908251
 30
0.0
  0
VERTEX
  5
4F8
  8
LAYER_01
 10
161.5157964931082
 20
627.4151909700454
 30
0.0
  0
VERTEX
  5
4F9
  8
LAYER_01
 10
160.9232676818801
 20
558.5091592176005
 30
0.0
  0
VERTEX
  5
4FA
  8
LAYER_01
 10
122.1725964756689
 20
490.0379944785758
 30
0.0
  0
VERTEX
  5
4FB
  8
LAYER_01
 10
82.20103511824203
 20
490.0379944785757
 30
0.0
  0
VERTEX
  5
4FC
  8
LAYER_01
 10
62.21525443952845
 20
524.6543820430359
 30
0.0
  0
SEQEND
  5
4FD
  8
LAYER_01
  0
POLYLINE
  5
4FE
  8
LAYER_01
 66
     1
 10
0.0
 20
0.0
 30
0.0
 70
     1
  0
VERTEX
  5
4FF
  8
LAYER_01
 10
53.58991692384842
 20
665.8425099756321
 30
0.0
  0
VERTEX
  5
500
  8
LAYER_01
 10
122.4959486762936
 20
666.4350387868602
 30
0.0
  0
VERTEX
  5
501
  8
LAYER_01
 10
87.52978779707354
 20
607.0569292208796
 30
0.0
  0
VERTEX
  5
502
  8
LAYER_01
 10
19.73513974928409
 20
567.1344967332805
 30
0.0
  0
VERTEX
  5
503
  8
LAYER_01
 10
-14.8812478151761
 20
587.1202774119938
 30
0.0
  0
VERTEX
  5
504
  8
LAYER_01
 10
-14.8812478151761
 20
627.0918387694209
 30
0.0
  0
SEQEND
  5
505
  8
LAYER_01
  0
POLYLINE
  5
506
  8
LAYER_01
 66
     1
 10
0.0
 20
0.0
 30
0.0
 70
     1
  0
VERTEX
  5
507
  8
LAYER_01
 10
181.2325931095558
 20
594.3950709659873
 30
0.0
  0
VERTEX
  5
508
  8
LAYER_01
 10
181.6183304944579
 20
639.2530289057603
 30
0.0
  0
VERTEX
  5
509
  8
LAYER_01
 10
195.4318555321007
 20
647.3874397569282
 30
0.0
  0
VERTEX
  5
50A
  8
LAYER_01
 10
203.3275137049277
 20
633.4360707961755
 30
0.0
  0
SEQEND
  5
50B
  8
LAYER_01
  0
POLYLINE
  5
50C
  8
LAYER_01
 66
     1
 10
0.0
 20
0.0
 30
0.0
 70
     1
  0
VERTEX
  5
50D
  8
LAYER_01
 10
89.47582867223542
 20
686.1518354033078
 30
0.0
  0
VERTEX
  5
50E
  8
LAYER_01
 10
128.5168285024237
 20
708.2467559986796
 30
0.0
  0
VERTEX
  5
50F
  8
LAYER_01
 10
142.4681974631764
 20
700.3510978258525
 30
0.0
  0
VERTEX
  5
510
  8
LAYER_01
 10
134.3337866120083
 20
686.5375727882099
 30
0.0
  0
SEQEND
  5
511
  8
LAYER_01
  0
POLYLINE
  5
512
  8
LAYER_01
 66
     1
 10
0.0
 20
0.0
 30
0.0
 70
     1
  0
VERTEX
  5
513
  8
LAYER_01
 10
123.0611354253593
 20
627.9803777191112
 30
0.0
  0
VERTEX
  5
514
  8
LAYER_01
 10
145.8241727697603
 20
666.6356401643974
 30
0.0
  0
VERTEX
  5
515
  8
LAYER_01
 10
161.8542417937553
 20
666.7734840875072
 30
0.0
  0
VERTEX
  5
516
  8
LAYER_01
 10
161.7163978706453
 20
650.7434150635121
 30
0.0
  0
SEQEND
  5
517
  8
LAYER_01
  0
POLYLINE
  5
518
  8
LAYER_01
 66
     1
 10
0.0
 20
0.0
 30
0.0
 70
     1
  0
VERTEX
  5
519
  8
LAYER_01
 10
160.5687035617792
 20
517.2763852916933
 30
0.0
  0
VERTEX
  5
51A
  8
LAYER_01
 10
133.834539513503
 20
470.0379944785757
 30
0.0
  0
VERTEX
  5
51B
  8
LAYER_01
 10
96.1525508048095
 20
470.0379944785757
 30
0.0
  0
VERTEX
  5
51C
  8
LAYER_01
 10
118.1166692519038
 20
442.2650333780703
 30
0.0
  0
VERTEX
  5
51D
  8
LAYER_01
 10
95.8610303139676
 20
402.940049509212
 30
0.0
  0
VERTEX
  5
51E
  8
LAYER_01
 10
140.4560671319074
 20
414.01754282549
 30
0.0
  0
VERTEX
  5
51F
  8
LAYER_01
 10
159.473984840285
 20
389.9699631332007
 30
0.0
  0
VERTEX
  5
520
  8
LAYER_01
 10
159.7555462639901
 20
422.7131479951384
 30
0.0
  0
VERTEX
  5
521
  8
LAYER_01
 10
194.8178998626797
 20
442.9564072837638
 30
0.0
  0
VERTEX
  5
522
  8
LAYER_01
 10
160.1019733699681
 20
462.999656789498
 30
0.0
  0
SEQEND
  5
523
  8
LAYER_01
  0
POLYLINE
  5
524
  8
LAYER_01
 66
     1
 10
0.0
 20
0.0
 30
0.0
 70
     1
  0
VERTEX
  5
525
  8
LAYER_01
 10
8.94855113999904
 20
434.1990370692707
 30
0.0
  0
VERTEX
  5
526
  8
LAYER_01
 10
21.7412421653093
 20
384.5285509118971
 30
0.0
  0
VERTEX
  5
527
  8
LAYER_01
 10
69.12113852206085
 20
396.2978087187821
 30
0.0
  0
VERTEX
  5
528
  8
LAYER_01
 10
94.08569630643672
 20
440.4093633185618
 30
0.0
  0
VERTEX
  5
529
  8
LAYER_01
 10
70.65402973444947
 20
470.0379944785757
 30
0.0
  0
VERTEX
  5
52A
  8
LAYER_01
 10
33.48473810589758
 20
475.8653899475567
 30
0.0
  0
SEQEND
  5
52B
  8
LAYER_01
  0
POLYLINE
  5
52C
  8
LAYER_01
 66
     1
 10
0.0
 20
0.0
 30
0.0
 70
     1
  0
VERTEX
  5
52D
  8
LAYER_01
 10
158.8170504722992
 20
313.5741161095366
 30
0.0
  0
VERTEX
  5
52E
  8
LAYER_01
 10
159.1997144559072
 20
358.0746637712608
 30
0.0
  0
VERTEX
  5
52F
  8
LAYER_01
 10
132.7658530986788
 20
391.4994791117362
 30
0.0
  0
VERTEX
  5
530
  8
LAYER_01
 10
82.29045799971755
 20
378.9612934358739
 30
0.0
  0
VERTEX
  5
531
  8
LAYER_01
 10
58.24502375658426
 20
336.4737999800316
 30
0.0
  0
VERTEX
  5
532
  8
LAYER_01
 10
102.0335732186121
 20
311.1924691607065
 30
0.0
  0
SEQEND
  5
533
  8
LAYER_01
  0
POLYLINE
  5
534
  8
LAYER_01
 66
     1
 10
0.0
 20
0.0
 30
0.0
 70
     1
  0
VERTEX
  5
535
  8
LAYER_01
 10
-73.16987361216547
 20
174.3222804481345
 30
0.0
  0
VERTEX
  5
536
  8
LAYER_01
 10
-73.16987361216547
 20
257.4656281261829
 30
0.0
  0
VERTEX
  5
537
  8
LAYER_01
 10
-52.01013821105124
 20
264.9242214185047
 30
0.0
  0
VERTEX
  5
538
  8
LAYER_01
 10
-43.95114252942449
 20
222.7486795565738
 30
0.0
  0
SEQEND
  5
539
  8
LAYER_01
  0
POLYLINE
  5
53A
  8
LAYER_01
 66
     1
 10
0.0
 20
0.0
 30
0.0
 70
     1
  0
VERTEX
  5
53B
  8
LAYER_01
 10
-6.698804586062636
 20
245.7759964523173
 30
0.0
  0
VERTEX
  5
53C
  8
LAYER_01
 10
-22.86853206852709
 20
218.9766917760421
 30
0.0
  0
VERTEX
  5
53D
  8
LAYER_01
 10
-11.53859148274921
 20
159.6831516941085
 30
0.0
  0
VERTEX
  5
53E
  8
LAYER_01
 10
38.26343405591018
 20
151.7462387433281
 30
0.0
  0
VERTEX
  5
53F
  8
LAYER_01
 10
75.3983528605786
 20
172.0748798637314
 30
0.0
  0
VERTEX
  5
540
  8
LAYER_01
 10
54.34604947986674
 20
210.5317335247115
 30
0.0
  0
SEQEND
  5
541
  8
LAYER_01
  0
POLYLINE
  5
542
  8
LAYER_01
 66
     1
 10
0.0
 20
0.0
 30
0.0
 70
     1
  0
VERTEX
  5
543
  8
LAYER_01
 10
-73.16987361216547
 20
151.6521341273474
 30
0.0
  0
VERTEX
  5
544
  8
LAYER_01
 10
-63.48972590944783
 20
151.6521341273473
 30
0.0
  0
VERTEX
  5
545
  8
LAYER_01
 10
-38.33289713535623
 20
193.3464372463638
 30
0.0
  0
VERTEX
  5
546
  8
LAYER_01
 10
-28.54856879819994
 20
142.141626414231
 30
0.0
  0
VERTEX
  5
547
  8
LAYER_01
 10
9.609625178458828
 20
136.0603825154936
 30
0.0
  0
VERTEX
  5
548
  8
LAYER_01
 10
-19.44162139064326
 20
120.1569583364844
 30
0.0
  0
VERTEX
  5
549
  8
LAYER_01
 10
-16.45113084719947
 20
88.79472134618017
 30
0.0
  0
VERTEX
  5
54A
  8
LAYER_01
 10
-42.1591919496376
 20
108.4620904955863
 30
0.0
  0
VERTEX
  5
54B
  8
LAYER_01
 10
-73.16987361216547
 20
90.97955855161098
 30
0.0
  0
SEQEND
  5
54C
  8
LAYER_01
  0
POLYLINE
  5
54D
  8
LAYER_01
 66
     1
 10
0.0
 20
0.0
 30
0.0
 70
     1
  0
VERTEX
  5
54E
  8
LAYER_01
 10
126.8589920650908
 20
-27.02670114227355
 30
0.0
  0
VERTEX
  5
54F
  8
LAYER_01
 10
159.3086418157929
 20
-27.02670114227354
 30
0.0
  0
VERTEX
  5
550
  8
LAYER_01
 10
159.3086418157929
 20
41.94410943292937
 30
0.0
  0
VERTEX
  5
551
  8
LAYER_01
 10
137.1749065723131
 20
79.30073094794423
 30
0.0
  0
VERTEX
  5
552
  8
LAYER_01
 10
103.6143317058152
 20
60.62354145702366
 30
0.0
  0
VERTEX
  5
553
  8
LAYER_01
 10
82.7034806864516
 20
7.239446313854565
 30
0.0
  0
SEQEND
  5
554
  8
LAYER_01
  0
POLYLINE
  5
555
  8
LAYER_01
 66
     1
 10
0.0
 20
0.0
 30
0.0
 70
     1
  0
VERTEX
  5
556
  8
LAYER_01
 10
-73.16987361216547
 20
389.2522155838212
 30
0.0
  0
VERTEX
  5
557
  8
LAYER_01
 10
-31.63924482639743
 20
365.2744958747414
 30
0.0
  0
VERTEX
  5
558
  8
LAYER_01
 10
-5.419898661099069
 20
409.7991211182484
 30
0.0
  0
VERTEX
  5
559
  8
LAYER_01
 10
7.318820255489072
 20
360.3381937529959
 30
0.0
  0
VERTEX
  5
55A
  8
LAYER_01
 10
55.5505662078109
 20
372.3190526454441
 30
0.0
  0
VERTEX
  5
55B
  8
LAYER_01
 10
31.07281583461258
 20
329.0676707706733
 30
0.0
  0
VERTEX
  5
55C
  8
LAYER_01
 10
64.7426374829871
 20
309.6283901784176
 30
0.0
  0
VERTEX
  5
55D
  8
LAYER_01
 10
1.548867238846071
 20
306.9778788436744
 30
0.0
  0
VERTEX
  5
55E
  8
LAYER_01
 10
35.8616542299884
 20
244.2977148656213
 30
0.0
  0
VERTEX
  5
55F
  8
LAYER_01
 10
-13.68837551825374
 20
272.9054378791217
 30
0.0
  0
VERTEX
  5
560
  8
LAYER_01
 10
-28.48677746259534
 20
248.3789340862521
 30
0.0
  0
VERTEX
  5
561
  8
LAYER_01
 10
-36.72961323348079
 20
291.5165754065697
 30
0.0
  0
VERTEX
  5
562
  8
LAYER_01
 10
-73.16987361216542
 20
278.6717511930966
 30
0.0
  0
VERTEX
  5
563
  8
LAYER_01
 10
-73.16987361216547
 20
339.5005830474116
 30
0.0
  0
VERTEX
  5
564
  8
LAYER_01
 10
-61.45533281680071
 20
342.6253312697518
 30
0.0
  0
VERTEX
  5
565
  8
LAYER_01
 10
-73.16987361216547
 20
388.1096578484739
 30
0.0
  0
SEQEND
  5
566
  8
LAYER_01
  0
POLYLINE
  5
567
  8
LAYER_01
 66
     1
 10
0.0
 20
0.0
 30
0.0
 70
     1
  0
VERTEX
  5
568
  8
LAYER_01
 10
194.8178998626797
 20
234.5294024285908
 30
0.0
  0
VERTEX
  5
569
  8
LAYER_01
 10
97.06592898193577
 20
290.9665291304048
 30
0.0
  0
VERTEX
  5
56A
  8
LAYER_01
 10
34.54996823470219
 20
288.3444468915584
 30
0.0
  0
VERTEX
  5
56B
  8
LAYER_01
 10
69.19873227758114
 20
225.0505438808481
 30
0.0
  0
VERTEX
  5
56C
  8
LAYER_01
 10
159.3086418157928
 20
173.0255633523087
 30
0.0
  0
VERTEX
  5
56D
  8
LAYER_01
 10
159.3086418157928
 20
214.0281227364968
 30
0.0
  0
SEQEND
  5
56E
  8
LAYER_01
  0
POLYLINE
  5
56F
  8
LAYER_01
 66
     1
 10
0.0
 20
0.0
 30
0.0
 70
     1
  0
VERTEX
  5
570
  8
LAYER_01
 10
87.68312752745953
 20
191.2845625399382
 30
0.0
  0
VERTEX
  5
571
  8
LAYER_01
 10
102.5453952140365
 20
164.1352267567259
 30
0.0
  0
VERTEX
  5
572
  8
LAYER_01
 10
70.52262941519746
 20
146.6051140067423
 30
0.0
  0
VERTEX
  5
573
  8
LAYER_01
 10
133.3704688824899
 20
136.5890990836282
 30
0.0
  0
VERTEX
  5
574
  8
LAYER_01
 10
115.0791625771919
 20
89.8925378011309
 30
0.0
  0
VERTEX
  5
575
  8
LAYER_01
 10
144.4586963805615
 20
106.2428870482235
 30
0.0
  0
VERTEX
  5
576
  8
LAYER_01
 10
159.3086418157928
 20
81.17961665846954
 30
0.0
  0
VERTEX
  5
577
  8
LAYER_01
 10
159.3086418157928
 20
149.9315525847236
 30
0.0
  0
SEQEND
  5
578
  8
LAYER_01
  0
POLYLINE
  5
579
  8
LAYER_01
 66
     1
 10
0.0
 20
0.0
 30
0.0
 70
     1
  0
VERTEX
  5
57A
  8
LAYER_01
 10
1.718668636988809
 20
108.9399979557365
 30
0.0
  0
VERTEX
  5
57B
  8
LAYER_01
 10
41.86882053774622
 20
130.9192577789078
 30
0.0
  0
VERTEX
  5
57C
  8
LAYER_01
 10
105.6861093945435
 20
120.7487424046281
 30
0.0
  0
VERTEX
  5
57D
  8
LAYER_01
 10
87.61189654471866
 20
74.60640713958063
 30
0.0
  0
VERTEX
  5
57E
  8
LAYER_01
 10
38.10730613295419
 20
47.05602638868565
 30
0.0
  0
VERTEX
  5
57F
  8
LAYER_01
 10
5.220482880500867
 20
72.2153447238958
 30
0.0
  0
SEQEND
  5
580
  8
LAYER_01
  0
POLYLINE
  5
581
  8
LAYER_01
 66
     1
 10
0.0
 20
0.0
 30
0.0
 70
     1
  0
VERTEX
  5
582
  8
LAYER_01
 10
-73.16987361216547
 20
-14.58398730585021
 30
0.0
  0
VERTEX
  5
583
  8
LAYER_01
 10
-73.16987361216542
 20
68.02025959486582
 30
0.0
  0
VERTEX
  5
584
  8
LAYER_01
 10
-43.8315284196151
 20
84.55999782422299
 30
0.0
  0
VERTEX
  5
585
  8
LAYER_01
 10
-13.86105547529542
 20
61.63176715643756
 30
0.0
  0
VERTEX
  5
586
  8
LAYER_01
 10
-9.96034742603905
 20
20.72378617686338
 30
0.0
  0
SEQEND
  5
587
  8
LAYER_01
  0
POLYLINE
  5
588
  8
LAYER_01
 66
     1
 10
0.0
 20
0.0
 30
0.0
 70
     1
  0
VERTEX
  5
589
  8
LAYER_01
 10
46.13311578006017
 20
-27.02670114227353
 30
0.0
  0
VERTEX
  5
58A
  8
LAYER_01
 10
26.02684066273434
 20
-54.27338073617921
 30
0.0
  0
VERTEX
  5
58B
  8
LAYER_01
 10
5.920565545408635
 20
-27.02670114227354
 30
0.0
  0
VERTEX
  5
58C
  8
LAYER_01
 10
-54.43330342447223
 20
-27.02670114227353
 30
0.0
  0
VERTEX
  5
58D
  8
LAYER_01
 10
11.18834595097127
 20
9.628443604227527
 30
0.0
  0
VERTEX
  5
58E
  8
LAYER_01
 10
7.810558252404803
 20
45.05239053415322
 30
0.0
  0
VERTEX
  5
58F
  8
LAYER_01
 10
36.37229144363641
 20
23.20188426763733
 30
0.0
  0
VERTEX
  5
590
  8
LAYER_01
 10
76.1470656733419
 20
45.33741079547339
 30
0.0
  0
VERTEX
  5
591
  8
LAYER_01
 10
58.62639680563132
 20
0.6082387048822397
 30
0.0
  0
VERTEX
  5
592
  8
LAYER_01
 10
94.23690430232011
 20
-27.02670114227354
 30
0.0
  0
SEQEND
  5
593
  8
LAYER_01
  0
POLYLINE
  5
594
  8
LAYER_01
 66
     1
 10
0.0
 20
0.0
 30
0.0
 70
     1
  0
VERTEX
  5
595
  8
LAYER_01
 10
-59.95860438332056
 20
590.0516905933839
 30
0.0
  0
VERTEX
  5
596
  8
LAYER_01
 10
-73.16987361216547
 20
583.7464490897407
 30
0.0
  0
VERTEX
  5
597
  8
LAYER_01
 10
-73.16987361216547
 20
519.6688954846692
 30
0.0
  0
VERTEX
  5
598
  8
LAYER_01
 10
-34.88124781517604
 20
539.0236858561232
 30
0.0
  0
VERTEX
  5
599
  8
LAYER_01
 10
-34.88124781517604
 20
575.5732720282015
 30
0.0
  0
SEQEND
  5
59A
  8
LAYER_01
  0
POLYLINE
  5
59B
  8
LAYER_01
 66
     1
 10
0.0
 20
0.0
 30
0.0
 70
     1
  0
VERTEX
  5
59C
  8
LAYER_01
 10
39.06377484492259
 20
524.7539209712872
 30
0.0
  0
VERTEX
  5
59D
  8
LAYER_01
 10
66.60633929884193
 20
571.5255815925938
 30
0.0
  0
VERTEX
  5
59E
  8
LAYER_01
 10
19.83467867753558
 20
543.9830171386745
 30
0.0
  0
VERTEX
  5
59F
  8
LAYER_01
 10
-14.88124781517604
 20
564.0262666444089
 30
0.0
  0
VERTEX
  5
5A0
  8
LAYER_01
 10
-14.8812478151761
 20
526.7235650824832
 30
0.0
  0
VERTEX
  5
5A1
  8
LAYER_01
 10
-49.65681449523822
 20
509.1446160047636
 30
0.0
  0
VERTEX
  5
5A2
  8
LAYER_01
 10
-8.699980236482816
 20
502.7234102210102
 30
0.0
  0
VERTEX
  5
5A3
  8
LAYER_01
 10
1.886149423631196
 20
461.6203924351213
 30
0.0
  0
VERTEX
  5
5A4
  8
LAYER_01
 10
23.15009624122376
 20
497.7299604343505
 30
0.0
  0
VERTEX
  5
5A5
  8
LAYER_01
 10
57.80271247089206
 20
492.297128923244
 30
0.0
  0
SEQEND
  5
5A6
  8
LAYER_01
  0
POLYLINE
  5
5A7
  8
LAYER_01
 66
     1
 10
0.0
 20
0.0
 30
0.0
 70
     1
  0
VERTEX
  5
5A8
  8
LAYER_01
 10
-73.16987361216547
 20
412.3462263514061
 30
0.0
  0
VERTEX
  5
5A9
  8
LAYER_01
 10
-38.81145274836007
 20
392.5093828167538
 30
0.0
  0
VERTEX
  5
5AA
  8
LAYER_01
 10
-12.48230037746691
 20
437.2204764840993
 30
0.0
  0
VERTEX
  5
5AB
  8
LAYER_01
 10
-24.78834106400836
 20
485.001433779434
 30
0.0
  0
VERTEX
  5
5AC
  8
LAYER_01
 10
-73.16987361216547
 20
492.5866825479875
 30
0.0
  0
SEQEND
  5
5AD
  8
LAYER_01
  0
POLYLINE
  5
5AE
  8
LAYER_01
 66
     1
 10
0.0
 20
0.0
 30
0.0
 70
     1
  0
VERTEX
  5
5AF
  8
LAYER_01
 10
214.8178998626798
 20
222.9823970447983
 30
0.0
  0
VERTEX
  5
5B0
  8
LAYER_01
 10
250.3271579095669
 20
202.4811173527042
 30
0.0
  0
VERTEX
  5
5B1
  8
LAYER_01
 10
250.3271579095668
 20
161.4785579685163
 30
0.0
  0
VERTEX
  5
5B2
  8
LAYER_01
 10
214.8178998626798
 20
140.9772782764223
 30
0.0
  0
VERTEX
  5
5B3
  8
LAYER_01
 10
179.3086418157928
 20
161.4785579685163
 30
0.0
  0
VERTEX
  5
5B4
  8
LAYER_01
 10
179.3086418157928
 20
202.4811173527042
 30
0.0
  0
SEQEND
  5
5B5
  8
LAYER_01
  0
POLYLINE
  5
5B6
  8
LAYER_01
 66
     1
 10
0.0
 20
0.0
 30
0.0
 70
     1
  0
VERTEX
  5
5B7
  8
LAYER_01
 10
250.3271579095668
 20
138.3845472009311
 30
0.0
  0
VERTEX
  5
5B8
  8
LAYER_01
 10
214.8178998626796
 20
117.8832675088372
 30
0.0
  0
VERTEX
  5
5B9
  8
LAYER_01
 10
179.3086418157928
 20
138.3845472009313
 30
0.0
  0
VERTEX
  5
5BA
  8
LAYER_01
 10
179.3086418157929
 20
47.42424631173186
 30
0.0
  0
VERTEX
  5
5BB
  8
LAYER_01
 10
214.8178998626796
 20
-12.50716149379481
 30
0.0
  0
VERTEX
  5
5BC
  8
LAYER_01
 10
250.3271579095668
 20
47.42424631173186
 30
0.0
  0
SEQEND
  5
5BD
  8
LAYER_01
  0
POLYLINE
  5
5BE
  8
LAYER_01
 66
     1
 10
0.0
 20
0.0
 30
0.0
 70
     1
  0
VERTEX
  5
5BF
  8
LAYER_01
 10
413.7817427985947
 20
-74.17105042333098
 30
0.0
  0
VERTEX
  5
5C0
  8
LAYER_01
 10
433.8125048092361
 20
-47.02670114227355
 30
0.0
  0
VERTEX
  5
5C1
  8
LAYER_01
 10
502.8056733375251
 20
-47.02670114227364
 30
0.0
  0
VERTEX
  5
5C2
  8
LAYER_01
 10
502.8056733375251
 20
-101.3153997043883
 30
0.0
  0
VERTEX
  5
5C3
  8
LAYER_01
 10
433.8125048092361
 20
-101.3153997043884
 30
0.0
  0
SEQEND
  5
5C4
  8
LAYER_01
  0
POLYLINE
  5
5C5
  8
LAYER_01
 66
     1
 10
0.0
 20
0.0
 30
0.0
 70
     1
  0
VERTEX
  5
5C6
  8
LAYER_01
 10
15.854056926765
 20
-74.17105042333098
 30
0.0
  0
VERTEX
  5
5C7
  8
LAYER_01
 10
-4.176705083876413
 20
-47.02670114227355
 30
0.0
  0
VERTEX
  5
5C8
  8
LAYER_01
 10
-73.16987361216547
 20
-47.02670114227364
 30
0.0
  0
VERTEX
  5
5C9
  8
LAYER_01
 10
-73.16987361216547
 20
-101.3153997043883
 30
0.0
  0
VERTEX
  5
5CA
  8
LAYER_01
 10
-4.176705083876413
 20
-101.3153997043884
 30
0.0
  0
SEQEND
  5
5CB
  8
LAYER_01
  0
POLYLINE
  5
5CC
  8
LAYER_01
 66
     1
 10
0.0
 20
0.0
 30
0.0
 70
     1
  0
VERTEX
  5
5CD
  8
LAYER_01
 10
214.81789986268
 20
319.9892624386101
 30
0.0
  0
VERTEX
  5
5CE
  8
LAYER_01
 10
250.3762099133919
 20
364.9516661980369
 30
0.0
  0
VERTEX
  5
5CF
  8
LAYER_01
 10
249.979299443079
 20
411.1089583871437
 30
0.0
  0
VERTEX
  5
5D0
  8
LAYER_01
 10
214.8178998626798
 20
431.4094018999713
 30
0.0
  0
VERTEX
  5
5D1
  8
LAYER_01
 10
179.6565002822807
 20
411.1089583871437
 30
0.0
  0
VERTEX
  5
5D2
  8
LAYER_01
 10
179.2595898119678
 20
364.9516661980369
 30
0.0
  0
SEQEND
  5
5D3
  8
LAYER_01
  0
POLYLINE
  5
5D4
  8
LAYER_01
 66
     1
 10
0.0
 20
0.0
 30
0.0
 70
     1
  0
VERTEX
  5
5D5
  8
LAYER_01
 10
274.6484753828669
 20
-74.17105042333088
 30
0.0
  0
VERTEX
  5
5D6
  8
LAYER_01
 10
309.6268056745944
 20
-101.3153997043883
 30
0.0
  0
VERTEX
  5
5D7
  8
LAYER_01
 10
373.4054133160145
 20
-101.3153997043884
 30
0.0
  0
VERTEX
  5
5D8
  8
LAYER_01
 10
393.4361753266559
 20
-74.17105042333097
 30
0.0
  0
VERTEX
  5
5D9
  8
LAYER_01
 10
373.4054133160145
 20
-47.02670114227354
 30
0.0
  0
VERTEX
  5
5DA
  8
LAYER_01
 10
309.6268056745944
 20
-47.02670114227362
 30
0.0
  0
SEQEND
  5
5DB
  8
LAYER_01
  0
POLYLINE
  5
5DC
  8
LAYER_01
 66
     1
 10
0.0
 20
0.0
 30
0.0
 70
     1
  0
VERTEX
  5
5DD
  8
LAYER_01
 10
214.8178998626797
 20
-96.59943212732685
 30
0.0
  0
VERTEX
  5
5DE
  8
LAYER_01
 10
179.308641815793
 20
-156.5308399328536
 30
0.0
  0
VERTEX
  5
5DF
  8
LAYER_01
 10
179.308641815793
 20
-101.3153997043884
 30
0.0
  0
VERTEX
  5
5E0
  8
LAYER_01
 10
152.6310818135357
 20
-101.3153997043884
 30
0.0
  0
VERTEX
  5
5E1
  8
LAYER_01
 10
187.6094121052632
 20
-74.17105042333097
 30
0.0
  0
VERTEX
  5
5E2
  8
LAYER_01
 10
152.6310818135357
 20
-47.02670114227353
 30
0.0
  0
VERTEX
  5
5E3
  8
LAYER_01
 10
179.308641815793
 20
-47.02670114227354
 30
0.0
  0
VERTEX
  5
5E4
  8
LAYER_01
 10
179.308641815793
 20
8.188739086191665
 30
0.0
  0
VERTEX
  5
5E5
  8
LAYER_01
 10
214.8178998626798
 20
-51.74266871933509
 30
0.0
  0
VERTEX
  5
5E6
  8
LAYER_01
 10
250.3271579095667
 20
8.188739086191665
 30
0.0
  0
VERTEX
  5
5E7
  8
LAYER_01
 10
250.3271579095667
 20
-47.02670114227354
 30
0.0
  0
VERTEX
  5
5E8
  8
LAYER_01
 10
277.0047179118239
 20
-47.02670114227353
 30
0.0
  0
VERTEX
  5
5E9
  8
LAYER_01
 10
242.0263876200964
 20
-74.17105042333097
 30
0.0
  0
VERTEX
  5
5EA
  8
LAYER_01
 10
277.0047179118239
 20
-101.3153997043884
 30
0.0
  0
VERTEX
  5
5EB
  8
LAYER_01
 10
250.3271579095667
 20
-101.3153997043884
 30
0.0
  0
VERTEX
  5
5EC
  8
LAYER_01
 10
250.3271579095667
 20
-156.5308399328536
 30
0.0
  0
SEQEND
  5
5ED
  8
LAYER_01
  0
POLYLINE
  5
5EE
  8
LAYER_01
 66
     1
 10
0.0
 20
0.0
 30
0.0
 70
     1
  0
VERTEX
  5
5EF
  8
LAYER_01
 10
154.9873243424928
 20
-74.17105042333088
 30
0.0
  0
VERTEX
  5
5F0
  8
LAYER_01
 10
120.0089940507653
 20
-101.3153997043883
 30
0.0
  0
VERTEX
  5
5F1
  8
LAYER_01
 10
56.23038640934521
 20
-101.3153997043884
 30
0.0
  0
VERTEX
  5
5F2
  8
LAYER_01
 10
36.1996243987038
 20
-74.17105042333097
 30
0.0
  0
VERTEX
  5
5F3
  8
LAYER_01
 10
56.23038640934521
 20
-47.02670114227354
 30
0.0
  0
VERTEX
  5
5F4
  8
LAYER_01
 10
120.0089940507653
 20
-47.02670114227362
 30
0.0
  0
SEQEND
  5
5F5
  8
LAYER_01
  0
POLYLINE
  5
5F6
  8
LAYER_01
 66
     1
 10
0.0
 20
0.0
 30
0.0
 70
     1
  0
VERTEX
  5
5F7
  8
LAYER_01
 10
214.81789986268
 20
613.1329354172886
 30
0.0
  0
VERTEX
  5
5F8
  8
LAYER_01
 10
248.7577707359048
 20
553.1622970400799
 30
0.0
  0
VERTEX
  5
5F9
  8
LAYER_01
 10
249.4342874271401
 20
474.4891933462698
 30
0.0
  0
VERTEX
  5
5FA
  8
LAYER_01
 10
214.8178998626798
 20
454.5034126675563
 30
0.0
  0
VERTEX
  5
5FB
  8
LAYER_01
 10
180.2015122982195
 20
474.4891933462698
 30
0.0
  0
VERTEX
  5
5FC
  8
LAYER_01
 10
180.8780289894548
 20
553.1622970400799
 30
0.0
  0
SEQEND
  5
5FD
  8
LAYER_01
  0
POLYLINE
  5
5FE
  8
LAYER_01
 66
     1
 10
0.0
 20
0.0
 30
0.0
 70
     1
  0
VERTEX
  5
5FF
  8
LAYER_01
 10
214.81789986268
 20
246.0764078123833
 30
0.0
  0
VERTEX
  5
600
  8
LAYER_01
 10
295.278935007799
 20
292.5306081126938
 30
0.0
  0
VERTEX
  5
601
  8
LAYER_01
 10
250.9829886030538
 20
294.3884954894919
 30
0.0
  0
VERTEX
  5
602
  8
LAYER_01
 10
250.6504802977698
 20
333.0563668360973
 30
0.0
  0
VERTEX
  5
603
  8
LAYER_01
 10
214.8178998626798
 20
287.7471565005405
 30
0.0
  0
VERTEX
  5
604
  8
LAYER_01
 10
178.9853194275899
 20
333.0563668360973
 30
0.0
  0
VERTEX
  5
605
  8
LAYER_01
 10
178.6528111223059
 20
294.3884954894919
 30
0.0
  0
VERTEX
  5
606
  8
LAYER_01
 10
134.3568647175607
 20
292.5306081126938
 30
0.0
  0
SEQEND
  5
607
  8
LAYER_01
  0
POLYLINE
  5
608
  8
LAYER_01
 66
     1
 10
0.0
 20
0.0
 30
0.0
 70
     1
  0
VERTEX
  5
609
  8
LAYER_01
 10
327.4981127982322
 20
-740.791130937487
 30
0.0
  0
VERTEX
  5
60A
  8
LAYER_01
 10
268.1200032322515
 20
-775.7572918167073
 30
0.0
  0
VERTEX
  5
60B
  8
LAYER_01
 10
268.7125320434795
 20
-706.8512600642625
 30
0.0
  0
VERTEX
  5
60C
  8
LAYER_01
 10
307.4632032496908
 20
-638.3800953252378
 30
0.0
  0
VERTEX
  5
60D
  8
LAYER_01
 10
347.4347646071176
 20
-638.3800953252376
 30
0.0
  0
VERTEX
  5
60E
  8
LAYER_01
 10
367.4205452858312
 20
-672.9964828896977
 30
0.0
  0
SEQEND
  5
60F
  8
LAYER_01
  0
POLYLINE
  5
610
  8
LAYER_01
 66
     1
 10
0.0
 20
0.0
 30
0.0
 70
     1
  0
VERTEX
  5
611
  8
LAYER_01
 10
376.0458828015113
 20
-814.184610822294
 30
0.0
  0
VERTEX
  5
612
  8
LAYER_01
 10
307.1398510490661
 20
-814.7771396335222
 30
0.0
  0
VERTEX
  5
613
  8
LAYER_01
 10
342.1060119282861
 20
-755.3990300675416
 30
0.0
  0
VERTEX
  5
614
  8
LAYER_01
 10
409.9006599760756
 20
-715.4765975799423
 30
0.0
  0
VERTEX
  5
615
  8
LAYER_01
 10
444.5170475405358
 20
-735.4623782586557
 30
0.0
  0
VERTEX
  5
616
  8
LAYER_01
 10
444.5170475405358
 20
-775.4339396160829
 30
0.0
  0
SEQEND
  5
617
  8
LAYER_01
  0
POLYLINE
  5
618
  8
LAYER_01
 66
     1
 10
0.0
 20
0.0
 30
0.0
  0
VERTEX
  5
619
  8
LAYER_01
 10
321.4221066018229
 20
-868.0792430030936
 30
0.0
  0
VERTEX
  5
61A
  8
LAYER_01
 10
381.3927449790314
 20
-834.1393721298687
 30
0.0
  0
VERTEX
  5
61B
  8
LAYER_01
 10
460.0658486728418
 20
-833.4628554386334
 30
0.0
  0
VERTEX
  5
61C
  8
LAYER_01
 10
480.0516293515553
 20
-868.0792430030936
 30
0.0
  0
SEQEND
  5
61D
  8
LAYER_01
  0
POLYLINE
  5
61E
  8
LAYER_01
 66
     1
 10
0.0
 20
0.0
 30
0.0
 70
     1
  0
VERTEX
  5
61F
  8
LAYER_01
 10
248.4032066158039
 20
-742.7371718126492
 30
0.0
  0
VERTEX
  5
620
  8
LAYER_01
 10
248.0174692309018
 20
-787.5951297524223
 30
0.0
  0
VERTEX
  5
621
  8
LAYER_01
 10
234.203944193259
 20
-795.7295406035901
 30
0.0
  0
VERTEX
  5
622
  8
LAYER_01
 10
226.308286020432
 20
-781.7781716428374
 30
0.0
  0
SEQEND
  5
623
  8
LAYER_01
  0
POLYLINE
  5
624
  8
LAYER_01
 66
     1
 10
0.0
 20
0.0
 30
0.0
 70
     1
  0
VERTEX
  5
625
  8
LAYER_01
 10
340.1599710531243
 20
-834.4939362499697
 30
0.0
  0
VERTEX
  5
626
  8
LAYER_01
 10
301.118971222936
 20
-856.5888568453415
 30
0.0
  0
VERTEX
  5
627
  8
LAYER_01
 10
287.1676022621833
 20
-848.6931986725144
 30
0.0
  0
VERTEX
  5
628
  8
LAYER_01
 10
295.3020131133514
 20
-834.8796736348718
 30
0.0
  0
SEQEND
  5
629
  8
LAYER_01
  0
POLYLINE
  5
62A
  8
LAYER_01
 66
     1
 10
0.0
 20
0.0
 30
0.0
 70
     1
  0
VERTEX
  5
62B
  8
LAYER_01
 10
306.5746643000004
 20
-776.322478565773
 30
0.0
  0
VERTEX
  5
62C
  8
LAYER_01
 10
283.8116269555994
 20
-814.9777410110594
 30
0.0
  0
VERTEX
  5
62D
  8
LAYER_01
 10
267.7815579316044
 20
-815.1155849341692
 30
0.0
  0
VERTEX
  5
62E
  8
LAYER_01
 10
267.9194018547144
 20
-799.0855159101741
 30
0.0
  0
SEQEND
  5
62F
  8
LAYER_01
  0
POLYLINE
  5
630
  8
LAYER_01
 66
     1
 10
0.0
 20
0.0
 30
0.0
 70
     1
  0
VERTEX
  5
631
  8
LAYER_01
 10
269.0670961635805
 20
-665.6184861383551
 30
0.0
  0
VERTEX
  5
632
  8
LAYER_01
 10
295.8012602118566
 20
-618.3800953252376
 30
0.0
  0
VERTEX
  5
633
  8
LAYER_01
 10
333.4832489205502
 20
-618.3800953252376
 30
0.0
  0
VERTEX
  5
634
  8
LAYER_01
 10
311.5191304734559
 20
-590.6071342247321
 30
0.0
  0
VERTEX
  5
635
  8
LAYER_01
 10
333.7747694113921
 20
-551.2821503558739
 30
0.0
  0
VERTEX
  5
636
  8
LAYER_01
 10
289.1797325934522
 20
-562.3596436721518
 30
0.0
  0
VERTEX
  5
637
  8
LAYER_01
 10
270.1618148850747
 20
-538.3120639798626
 30
0.0
  0
VERTEX
  5
638
  8
LAYER_01
 10
269.8802534613696
 20
-571.0552488418003
 30
0.0
  0
VERTEX
  5
639
  8
LAYER_01
 10
234.81789986268
 20
-591.2985081304257
 30
0.0
  0
VERTEX
  5
63A
  8
LAYER_01
 10
269.5338263553916
 20
-611.3417576361599
 30
0.0
  0
SEQEND
  5
63B
  8
LAYER_01
  0
POLYLINE
  5
63C
  8
LAYER_01
 66
     1
 10
0.0
 20
0.0
 30
0.0
 70
     1
  0
VERTEX
  5
63D
  8
LAYER_01
 10
420.6872485853606
 20
-582.5411379159327
 30
0.0
  0
VERTEX
  5
63E
  8
LAYER_01
 10
407.8945575600504
 20
-532.870651758559
 30
0.0
  0
VERTEX
  5
63F
  8
LAYER_01
 10
360.5146612032988
 20
-544.639909565444
 30
0.0
  0
VERTEX
  5
640
  8
LAYER_01
 10
335.550103418923
 20
-588.7514641652238
 30
0.0
  0
VERTEX
  5
641
  8
LAYER_01
 10
358.9817699909102
 20
-618.3800953252376
 30
0.0
  0
VERTEX
  5
642
  8
LAYER_01
 10
396.1510616194621
 20
-624.2074907942185
 30
0.0
  0
SEQEND
  5
643
  8
LAYER_01
  0
POLYLINE
  5
644
  8
LAYER_01
 66
     1
 10
0.0
 20
0.0
 30
0.0
 70
     1
  0
VERTEX
  5
645
  8
LAYER_01
 10
270.8187492530604
 20
-461.9162169561986
 30
0.0
  0
VERTEX
  5
646
  8
LAYER_01
 10
270.4360852694525
 20
-506.4167646179228
 30
0.0
  0
VERTEX
  5
647
  8
LAYER_01
 10
296.8699466266809
 20
-539.8415799583981
 30
0.0
  0
VERTEX
  5
648
  8
LAYER_01
 10
347.3453417256421
 20
-527.3033942825359
 30
0.0
  0
VERTEX
  5
649
  8
LAYER_01
 10
371.3907759687754
 20
-484.8159008266935
 30
0.0
  0
VERTEX
  5
64A
  8
LAYER_01
 10
327.6022265067476
 20
-459.5345700073685
 30
0.0
  0
SEQEND
  5
64B
  8
LAYER_01
  0
POLYLINE
  5
64C
  8
LAYER_01
 66
     1
 10
0.0
 20
0.0
 30
0.0
 70
     1
  0
VERTEX
  5
64D
  8
LAYER_01
 10
502.8056733375251
 20
-322.6643812947964
 30
0.0
  0
VERTEX
  5
64E
  8
LAYER_01
 10
502.8056733375251
 20
-405.8077289728449
 30
0.0
  0
VERTEX
  5
64F
  8
LAYER_01
 10
481.6459379364109
 20
-413.2663222651666
 30
0.0
  0
VERTEX
  5
650
  8
LAYER_01
 10
473.5869422547842
 20
-371.0907804032357
 30
0.0
  0
SEQEND
  5
651
  8
LAYER_01
  0
POLYLINE
  5
652
  8
LAYER_01
 66
     1
 10
0.0
 20
0.0
 30
0.0
 70
     1
  0
VERTEX
  5
653
  8
LAYER_01
 10
436.3346043114223
 20
-394.1180972989792
 30
0.0
  0
VERTEX
  5
654
  8
LAYER_01
 10
452.5043317938868
 20
-367.3187926227041
 30
0.0
  0
VERTEX
  5
655
  8
LAYER_01
 10
441.1743912081089
 20
-308.0252525407704
 30
0.0
  0
VERTEX
  5
656
  8
LAYER_01
 10
391.3723656694495
 20
-300.08833958999
 30
0.0
  0
VERTEX
  5
657
  8
LAYER_01
 10
354.2374468647811
 20
-320.4169807103933
 30
0.0
  0
VERTEX
  5
658
  8
LAYER_01
 10
375.2897502454929
 20
-358.8738343713734
 30
0.0
  0
SEQEND
  5
659
  8
LAYER_01
  0
POLYLINE
  5
65A
  8
LAYER_01
 66
     1
 10
0.0
 20
0.0
 30
0.0
 70
     1
  0
VERTEX
  5
65B
  8
LAYER_01
 10
502.8056733375251
 20
-299.9942349740094
 30
0.0
  0
VERTEX
  5
65C
  8
LAYER_01
 10
493.1255256348075
 20
-299.9942349740093
 30
0.0
  0
VERTEX
  5
65D
  8
LAYER_01
 10
467.9686968607159
 20
-341.6885380930257
 30
0.0
  0
VERTEX
  5
65E
  8
LAYER_01
 10
458.1843685235596
 20
-290.4837272608929
 30
0.0
  0
VERTEX
  5
65F
  8
LAYER_01
 10
420.0261745469008
 20
-284.4024833621556
 30
0.0
  0
VERTEX
  5
660
  8
LAYER_01
 10
449.0774211160029
 20
-268.4990591831463
 30
0.0
  0
VERTEX
  5
661
  8
LAYER_01
 10
446.0869305725591
 20
-237.1368221928421
 30
0.0
  0
VERTEX
  5
662
  8
LAYER_01
 10
471.7949916749973
 20
-256.8041913422483
 30
0.0
  0
VERTEX
  5
663
  8
LAYER_01
 10
502.8056733375251
 20
-239.3216593982729
 30
0.0
  0
SEQEND
  5
664
  8
LAYER_01
  0
POLYLINE
  5
665
  8
LAYER_01
 66
     1
 10
0.0
 20
0.0
 30
0.0
 70
     1
  0
VERTEX
  5
666
  8
LAYER_01
 10
302.7768076602689
 20
-121.3153997043884
 30
0.0
  0
VERTEX
  5
667
  8
LAYER_01
 10
270.3271579095668
 20
-121.3153997043884
 30
0.0
  0
VERTEX
  5
668
  8
LAYER_01
 10
270.3271579095668
 20
-190.2862102795913
 30
0.0
  0
VERTEX
  5
669
  8
LAYER_01
 10
292.4608931530465
 20
-227.6428317946062
 30
0.0
  0
VERTEX
  5
66A
  8
LAYER_01
 10
326.0214680195445
 20
-208.9656423036856
 30
0.0
  0
VERTEX
  5
66B
  8
LAYER_01
 10
346.9323190389081
 20
-155.5815471605165
 30
0.0
  0
SEQEND
  5
66C
  8
LAYER_01
  0
POLYLINE
  5
66D
  8
LAYER_01
 66
     1
 10
0.0
 20
0.0
 30
0.0
 70
     1
  0
VERTEX
  5
66E
  8
LAYER_01
 10
502.8056733375251
 20
-537.5943164304831
 30
0.0
  0
VERTEX
  5
66F
  8
LAYER_01
 10
461.2750445517571
 20
-513.6165967214033
 30
0.0
  0
VERTEX
  5
670
  8
LAYER_01
 10
435.0556983864587
 20
-558.1412219649103
 30
0.0
  0
VERTEX
  5
671
  8
LAYER_01
 10
422.3169794698706
 20
-508.6802945996578
 30
0.0
  0
VERTEX
  5
672
  8
LAYER_01
 10
374.0852335175488
 20
-520.661153492106
 30
0.0
  0
VERTEX
  5
673
  8
LAYER_01
 10
398.5629838907471
 20
-477.4097716173353
 30
0.0
  0
VERTEX
  5
674
  8
LAYER_01
 10
364.8931622423726
 20
-457.9704910250795
 30
0.0
  0
VERTEX
  5
675
  8
LAYER_01
 10
428.0869324865136
 20
-455.3199796903364
 30
0.0
  0
VERTEX
  5
676
  8
LAYER_01
 10
393.7741454953713
 20
-392.6398157122832
 30
0.0
  0
VERTEX
  5
677
  8
LAYER_01
 10
443.3241752436134
 20
-421.2475387257836
 30
0.0
  0
VERTEX
  5
678
  8
LAYER_01
 10
458.122577187955
 20
-396.7210349329141
 30
0.0
  0
VERTEX
  5
679
  8
LAYER_01
 10
466.3654129588405
 20
-439.8586762532316
 30
0.0
  0
VERTEX
  5
67A
  8
LAYER_01
 10
502.8056733375251
 20
-427.0138520397585
 30
0.0
  0
VERTEX
  5
67B
  8
LAYER_01
 10
502.8056733375251
 20
-487.8426838940736
 30
0.0
  0
VERTEX
  5
67C
  8
LAYER_01
 10
491.0911325421604
 20
-490.9674321164138
 30
0.0
  0
VERTEX
  5
67D
  8
LAYER_01
 10
502.8056733375251
 20
-536.4517586951358
 30
0.0
  0
SEQEND
  5
67E
  8
LAYER_01
  0
POLYLINE
  5
67F
  8
LAYER_01
 66
     1
 10
0.0
 20
0.0
 30
0.0
 70
     1
  0
VERTEX
  5
680
  8
LAYER_01
 10
234.81789986268
 20
-382.8715032752527
 30
0.0
  0
VERTEX
  5
681
  8
LAYER_01
 10
332.5698707434239
 20
-439.3086299770667
 30
0.0
  0
VERTEX
  5
682
  8
LAYER_01
 10
395.0858314906575
 20
-436.6865477382203
 30
0.0
  0
VERTEX
  5
683
  8
LAYER_01
 10
360.4370674477785
 20
-373.39264472751
 30
0.0
  0
VERTEX
  5
684
  8
LAYER_01
 10
270.3271579095668
 20
-321.3676641989706
 30
0.0
  0
VERTEX
  5
685
  8
LAYER_01
 10
270.3271579095669
 20
-362.3702235831587
 30
0.0
  0
SEQEND
  5
686
  8
LAYER_01
  0
POLYLINE
  5
687
  8
LAYER_01
 66
     1
 10
0.0
 20
0.0
 30
0.0
 70
     1
  0
VERTEX
  5
688
  8
LAYER_01
 10
341.9526721979001
 20
-339.6266633866002
 30
0.0
  0
VERTEX
  5
689
  8
LAYER_01
 10
327.0904045113232
 20
-312.4773276033878
 30
0.0
  0
VERTEX
  5
68A
  8
LAYER_01
 10
359.1131703101622
 20
-294.9472148534042
 30
0.0
  0
VERTEX
  5
68B
  8
LAYER_01
 10
296.2653308428697
 20
-284.9311999302902
 30
0.0
  0
VERTEX
  5
68C
  8
LAYER_01
 10
314.5566371481677
 20
-238.2346386477928
 30
0.0
  0
VERTEX
  5
68D
  8
LAYER_01
 10
285.1771033447981
 20
-254.5849878948854
 30
0.0
  0
VERTEX
  5
68E
  8
LAYER_01
 10
270.3271579095668
 20
-229.5217175051315
 30
0.0
  0
VERTEX
  5
68F
  8
LAYER_01
 10
270.3271579095668
 20
-298.2736534313856
 30
0.0
  0
SEQEND
  5
690
  8
LAYER_01
  0
POLYLINE
  5
691
  8
LAYER_01
 66
     1
 10
0.0
 20
0.0
 30
0.0
 70
     1
  0
VERTEX
  5
692
  8
LAYER_01
 10
427.9171310883709
 20
-257.2820988023984
 30
0.0
  0
VERTEX
  5
693
  8
LAYER_01
 10
387.7669791876135
 20
-279.2613586255698
 30
0.0
  0
VERTEX
  5
694
  8
LAYER_01
 10
323.9496903308162
 20
-269.09084325129
 30
0.0
  0
VERTEX
  5
695
  8
LAYER_01
 10
342.023903180641
 20
-222.9485079862426
 30
0.0
  0
VERTEX
  5
696
  8
LAYER_01
 10
391.5284935924055
 20
-195.3981272353476
 30
0.0
  0
VERTEX
  5
697
  8
LAYER_01
 10
424.4153168448588
 20
-220.5574455705577
 30
0.0
  0
SEQEND
  5
698
  8
LAYER_01
  0
POLYLINE
  5
699
  8
LAYER_01
 66
     1
 10
0.0
 20
0.0
 30
0.0
 70
     1
  0
VERTEX
  5
69A
  8
LAYER_01
 10
502.8056733375251
 20
-133.7581135408117
 30
0.0
  0
VERTEX
  5
69B
  8
LAYER_01
 10
502.8056733375251
 20
-216.3623604415278
 30
0.0
  0
VERTEX
  5
69C
  8
LAYER_01
 10
473.4673281449748
 20
-232.9020986708849
 30
0.0
  0
VERTEX
  5
69D
  8
LAYER_01
 10
443.4968552006551
 20
-209.9738680030995
 30
0.0
  0
VERTEX
  5
69E
  8
LAYER_01
 10
439.5961471513987
 20
-169.0658870235253
 30
0.0
  0
SEQEND
  5
69F
  8
LAYER_01
  0
POLYLINE
  5
6A0
  8
LAYER_01
 66
     1
 10
0.0
 20
0.0
 30
0.0
 70
     1
  0
VERTEX
  5
6A1
  8
LAYER_01
 10
383.5026839452995
 20
-121.3153997043884
 30
0.0
  0
VERTEX
  5
6A2
  8
LAYER_01
 10
403.6089590626253
 20
-94.06872011048273
 30
0.0
  0
VERTEX
  5
6A3
  8
LAYER_01
 10
423.715234179951
 20
-121.3153997043884
 30
0.0
  0
VERTEX
  5
6A4
  8
LAYER_01
 10
484.0691031498319
 20
-121.3153997043884
 30
0.0
  0
VERTEX
  5
6A5
  8
LAYER_01
 10
418.4474537743884
 20
-157.9705444508895
 30
0.0
  0
VERTEX
  5
6A6
  8
LAYER_01
 10
421.8252414729549
 20
-193.3944913808152
 30
0.0
  0
VERTEX
  5
6A7
  8
LAYER_01
 10
393.2635082817233
 20
-171.5439851142993
 30
0.0
  0
VERTEX
  5
6A8
  8
LAYER_01
 10
353.4887340520178
 20
-193.6795116421353
 30
0.0
  0
VERTEX
  5
6A9
  8
LAYER_01
 10
371.0094029197284
 20
-148.9503395515442
 30
0.0
  0
VERTEX
  5
6AA
  8
LAYER_01
 10
335.3988954230396
 20
-121.3153997043884
 30
0.0
  0
SEQEND
  5
6AB
  8
LAYER_01
  0
POLYLINE
  5
6AC
  8
LAYER_01
 66
     1
 10
0.0
 20
0.0
 30
0.0
 70
     1
  0
VERTEX
  5
6AD
  8
LAYER_01
 10
489.5944041086802
 20
-738.3937914400458
 30
0.0
  0
VERTEX
  5
6AE
  8
LAYER_01
 10
502.8056733375251
 20
-732.0885499364026
 30
0.0
  0
VERTEX
  5
6AF
  8
LAYER_01
 10
502.8056733375251
 20
-668.0109963313312
 30
0.0
  0
VERTEX
  5
6B0
  8
LAYER_01
 10
464.5170475405357
 20
-687.365786702785
 30
0.0
  0
VERTEX
  5
6B1
  8
LAYER_01
 10
464.5170475405357
 20
-723.9153728748634
 30
0.0
  0
SEQEND
  5
6B2
  8
LAYER_01
  0
POLYLINE
  5
6B3
  8
LAYER_01
 66
     1
 10
0.0
 20
0.0
 30
0.0
 70
     1
  0
VERTEX
  5
6B4
  8
LAYER_01
 10
390.5720248804371
 20
-673.0960218179491
 30
0.0
  0
VERTEX
  5
6B5
  8
LAYER_01
 10
363.0294604265177
 20
-719.8676824392558
 30
0.0
  0
VERTEX
  5
6B6
  8
LAYER_01
 10
409.8011210478241
 20
-692.3251179853364
 30
0.0
  0
VERTEX
  5
6B7
  8
LAYER_01
 10
444.5170475405357
 20
-712.3683674910708
 30
0.0
  0
VERTEX
  5
6B8
  8
LAYER_01
 10
444.5170475405358
 20
-675.0656659291451
 30
0.0
  0
VERTEX
  5
6B9
  8
LAYER_01
 10
479.2926142205979
 20
-657.4867168514256
 30
0.0
  0
VERTEX
  5
6BA
  8
LAYER_01
 10
438.3357799618425
 20
-651.0655110676721
 30
0.0
  0
VERTEX
  5
6BB
  8
LAYER_01
 10
427.7496503017285
 20
-609.9624932817833
 30
0.0
  0
VERTEX
  5
6BC
  8
LAYER_01
 10
406.4857034841359
 20
-646.0720612810123
 30
0.0
  0
VERTEX
  5
6BD
  8
LAYER_01
 10
371.8330872544676
 20
-640.639229769906
 30
0.0
  0
SEQEND
  5
6BE
  8
LAYER_01
  0
POLYLINE
  5
6BF
  8
LAYER_01
 66
     1
 10
0.0
 20
0.0
 30
0.0
 70
     1
  0
VERTEX
  5
6C0
  8
LAYER_01
 10
502.8056733375251
 20
-560.688327198068
 30
0.0
  0
VERTEX
  5
6C1
  8
LAYER_01
 10
468.4472524737197
 20
-540.8514836634158
 30
0.0
  0
VERTEX
  5
6C2
  8
LAYER_01
 10
442.1181001028266
 20
-585.5625773307612
 30
0.0
  0
VERTEX
  5
6C3
  8
LAYER_01
 10
454.424140789368
 20
-633.3435346260959
 30
0.0
  0
VERTEX
  5
6C4
  8
LAYER_01
 10
502.8056733375251
 20
-640.9287833946494
 30
0.0
  0
SEQEND
  5
6C5
  8
LAYER_01
  0
POLYLINE
  5
6C6
  8
LAYER_01
 66
     1
 10
0.0
 20
0.0
 30
0.0
 70
     1
  0
VERTEX
  5
6C7
  8
LAYER_01
 10
102.1376869271275
 20
-740.791130937487
 30
0.0
  0
VERTEX
  5
6C8
  8
LAYER_01
 10
161.5157964931082
 20
-775.7572918167073
 30
0.0
  0
VERTEX
  5
6C9
  8
LAYER_01
 10
160.9232676818801
 20
-706.8512600642625
 30
0.0
  0
VERTEX
  5
6CA
  8
LAYER_01
 10
122.1725964756689
 20
-638.3800953252378
 30
0.0
  0
VERTEX
  5
6CB
  8
LAYER_01
 10
82.20103511824203
 20
-638.3800953252376
 30
0.0
  0
VERTEX
  5
6CC
  8
LAYER_01
 10
62.21525443952845
 20
-672.9964828896977
 30
0.0
  0
SEQEND
  5
6CD
  8
LAYER_01
  0
POLYLINE
  5
6CE
  8
LAYER_01
 66
     1
 10
0.0
 20
0.0
 30
0.0
 70
     1
  0
VERTEX
  5
6CF
  8
LAYER_01
 10
53.58991692384842
 20
-814.184610822294
 30
0.0
  0
VERTEX
  5
6D0
  8
LAYER_01
 10
122.4959486762936
 20
-814.7771396335222
 30
0.0
  0
VERTEX
  5
6D1
  8
LAYER_01
 10
87.52978779707354
 20
-755.3990300675416
 30
0.0
  0
VERTEX
  5
6D2
  8
LAYER_01
 10
19.73513974928409
 20
-715.4765975799423
 30
0.0
  0
VERTEX
  5
6D3
  8
LAYER_01
 10
-14.8812478151761
 20
-735.4623782586557
 30
0.0
  0
VERTEX
  5
6D4
  8
LAYER_01
 10
-14.8812478151761
 20
-775.4339396160829
 30
0.0
  0
SEQEND
  5
6D5
  8
LAYER_01
  0
POLYLINE
  5
6D6
  8
LAYER_01
 66
     1
 10
0.0
 20
0.0
 30
0.0
  0
VERTEX
  5
6D7
  8
LAYER_01
 10
108.2136931235368
 20
-868.0792430030936
 30
0.0
  0
VERTEX
  5
6D8
  8
LAYER_01
 10
48.24305474632826
 20
-834.1393721298687
 30
0.0
  0
VERTEX
  5
6D9
  8
LAYER_01
 10
-30.43004894748213
 20
-833.4628554386334
 30
0.0
  0
VERTEX
  5
6DA
  8
LAYER_01
 10
-50.4158296261956
 20
-868.0792430030936
 30
0.0
  0
SEQEND
  5
6DB
  8
LAYER_01
  0
POLYLINE
  5
6DC
  8
LAYER_01
 66
     1
 10
0.0
 20
0.0
 30
0.0
 70
     1
  0
VERTEX
  5
6DD
  8
LAYER_01
 10
181.2325931095558
 20
-742.7371718126492
 30
0.0
  0
VERTEX
  5
6DE
  8
LAYER_01
 10
181.6183304944579
 20
-787.5951297524223
 30
0.0
  0
VERTEX
  5
6DF
  8
LAYER_01
 10
195.4318555321007
 20
-795.7295406035901
 30
0.0
  0
VERTEX
  5
6E0
  8
LAYER_01
 10
203.3275137049277
 20
-781.7781716428374
 30
0.0
  0
SEQEND
  5
6E1
  8
LAYER_01
  0
POLYLINE
  5
6E2
  8
LAYER_01
 66
     1
 10
0.0
 20
0.0
 30
0.0
 70
     1
  0
VERTEX
  5
6E3
  8
LAYER_01
 10
89.47582867223542
 20
-834.4939362499697
 30
0.0
  0
VERTEX
  5
6E4
  8
LAYER_01
 10
128.5168285024237
 20
-856.5888568453415
 30
0.0
  0
VERTEX
  5
6E5
  8
LAYER_01
 10
142.4681974631764
 20
-848.6931986725144
 30
0.0
  0
VERTEX
  5
6E6
  8
LAYER_01
 10
134.3337866120083
 20
-834.8796736348718
 30
0.0
  0
SEQEND
  5
6E7
  8
LAYER_01
  0
POLYLINE
  5
6E8
  8
LAYER_01
 66
     1
 10
0.0
 20
0.0
 30
0.0
 70
     1
  0
VERTEX
  5
6E9
  8
LAYER_01
 10
123.0611354253593
 20
-776.322478565773
 30
0.0
  0
VERTEX
  5
6EA
  8
LAYER_01
 10
145.8241727697603
 20
-814.9777410110594
 30
0.0
  0
VERTEX
  5
6EB
  8
LAYER_01
 10
161.8542417937553
 20
-815.1155849341692
 30
0.0
  0
VERTEX
  5
6EC
  8
LAYER_01
 10
161.7163978706453
 20
-799.0855159101741
 30
0.0
  0
SEQEND
  5
6ED
  8
LAYER_01
  0
POLYLINE
  5
6EE
  8
LAYER_01
 66
     1
 10
0.0
 20
0.0
 30
0.0
 70
     1
  0
VERTEX
  5
6EF
  8
LAYER_01
 10
160.5687035617792
 20
-665.6184861383551
 30
0.0
  0
VERTEX
  5
6F0
  8
LAYER_01
 10
133.834539513503
 20
-618.3800953252376
 30
0.0
  0
VERTEX
  5
6F1
  8
LAYER_01
 10
96.1525508048095
 20
-618.3800953252376
 30
0.0
  0
VERTEX
  5
6F2
  8
LAYER_01
 10
118.1166692519038
 20
-590.6071342247321
 30
0.0
  0
VERTEX
  5
6F3
  8
LAYER_01
 10
95.8610303139676
 20
-551.2821503558739
 30
0.0
  0
VERTEX
  5
6F4
  8
LAYER_01
 10
140.4560671319074
 20
-562.3596436721518
 30
0.0
  0
VERTEX
  5
6F5
  8
LAYER_01
 10
159.473984840285
 20
-538.3120639798626
 30
0.0
  0
VERTEX
  5
6F6
  8
LAYER_01
 10
159.7555462639901
 20
-571.0552488418003
 30
0.0
  0
VERTEX
  5
6F7
  8
LAYER_01
 10
194.8178998626797
 20
-591.2985081304257
 30
0.0
  0
VERTEX
  5
6F8
  8
LAYER_01
 10
160.1019733699681
 20
-611.3417576361599
 30
0.0
  0
SEQEND
  5
6F9
  8
LAYER_01
  0
POLYLINE
  5
6FA
  8
LAYER_01
 66
     1
 10
0.0
 20
0.0
 30
0.0
 70
     1
  0
VERTEX
  5
6FB
  8
LAYER_01
 10
8.94855113999904
 20
-582.5411379159327
 30
0.0
  0
VERTEX
  5
6FC
  8
LAYER_01
 10
21.7412421653093
 20
-532.870651758559
 30
0.0
  0
VERTEX
  5
6FD
  8
LAYER_01
 10
69.12113852206085
 20
-544.639909565444
 30
0.0
  0
VERTEX
  5
6FE
  8
LAYER_01
 10
94.08569630643672
 20
-588.7514641652238
 30
0.0
  0
VERTEX
  5
6FF
  8
LAYER_01
 10
70.65402973444947
 20
-618.3800953252376
 30
0.0
  0
VERTEX
  5
700
  8
LAYER_01
 10
33.48473810589758
 20
-624.2074907942185
 30
0.0
  0
SEQEND
  5
701
  8
LAYER_01
  0
POLYLINE
  5
702
  8
LAYER_01
 66
     1
 10
0.0
 20
0.0
 30
0.0
 70
     1
  0
VERTEX
  5
703
  8
LAYER_01
 10
158.8170504722992
 20
-461.9162169561986
 30
0.0
  0
VERTEX
  5
704
  8
LAYER_01
 10
159.1997144559072
 20
-506.4167646179228
 30
0.0
  0
VERTEX
  5
705
  8
LAYER_01
 10
132.7658530986788
 20
-539.8415799583981
 30
0.0
  0
VERTEX
  5
706
  8
LAYER_01
 10
82.29045799971755
 20
-527.3033942825359
 30
0.0
  0
VERTEX
  5
707
  8
LAYER_01
 10
58.24502375658426
 20
-484.8159008266935
 30
0.0
  0
VERTEX
  5
708
  8
LAYER_01
 10
102.0335732186121
 20
-459.5345700073685
 30
0.0
  0
SEQEND
  5
709
  8
LAYER_01
  0
POLYLINE
  5
70A
  8
LAYER_01
 66
     1
 10
0.0
 20
0.0
 30
0.0
 70
     1
  0
VERTEX
  5
70B
  8
LAYER_01
 10
-73.16987361216547
 20
-322.6643812947964
 30
0.0
  0
VERTEX
  5
70C
  8
LAYER_01
 10
-73.16987361216547
 20
-405.8077289728449
 30
0.0
  0
VERTEX
  5
70D
  8
LAYER_01
 10
-52.01013821105124
 20
-413.2663222651666
 30
0.0
  0
VERTEX
  5
70E
  8
LAYER_01
 10
-43.95114252942449
 20
-371.0907804032357
 30
0.0
  0
SEQEND
  5
70F
  8
LAYER_01
  0
POLYLINE
  5
710
  8
LAYER_01
 66
     1
 10
0.0
 20
0.0
 30
0.0
 70
     1
  0
VERTEX
  5
711
  8
LAYER_01
 10
-6.698804586062636
 20
-394.1180972989792
 30
0.0
  0
VERTEX
  5
712
  8
LAYER_01
 10
-22.86853206852709
 20
-367.3187926227041
 30
0.0
  0
VERTEX
  5
713
  8
LAYER_01
 10
-11.53859148274921
 20
-308.0252525407704
 30
0.0
  0
VERTEX
  5
714
  8
LAYER_01
 10
38.26343405591018
 20
-300.08833958999
 30
0.0
  0
VERTEX
  5
715
  8
LAYER_01
 10
75.3983528605786
 20
-320.4169807103933
 30
0.0
  0
VERTEX
  5
716
  8
LAYER_01
 10
54.34604947986674
 20
-358.8738343713734
 30
0.0
  0
SEQEND
  5
717
  8
LAYER_01
  0
POLYLINE
  5
718
  8
LAYER_01
 66
     1
 10
0.0
 20
0.0
 30
0.0
 70
     1
  0
VERTEX
  5
719
  8
LAYER_01
 10
-73.16987361216547
 20
-299.9942349740094
 30
0.0
  0
VERTEX
  5
71A
  8
LAYER_01
 10
-63.48972590944783
 20
-299.9942349740093
 30
0.0
  0
VERTEX
  5
71B
  8
LAYER_01
 10
-38.33289713535623
 20
-341.6885380930257
 30
0.0
  0
VERTEX
  5
71C
  8
LAYER_01
 10
-28.54856879819994
 20
-290.4837272608929
 30
0.0
  0
VERTEX
  5
71D
  8
LAYER_01
 10
9.609625178458828
 20
-284.4024833621556
 30
0.0
  0
VERTEX
  5
71E
  8
LAYER_01
 10
-19.44162139064326
 20
-268.4990591831463
 30
0.0
  0
VERTEX
  5
71F
  8
LAYER_01
 10
-16.45113084719947
 20
-237.1368221928421
 30
0.0
  0
VERTEX
  5
720
  8
LAYER_01
 10
-42.1591919496376
 20
-256.8041913422483
 30
0.0
  0
VERTEX
  5
721
  8
LAYER_01
 10
-73.16987361216547
 20
-239.3216593982729
 30
0.0
  0
SEQEND
  5
722
  8
LAYER_01
  0
POLYLINE
  5
723
  8
LAYER_01
 66
     1
 10
0.0
 20
0.0
 30
0.0
 70
     1
  0
VERTEX
  5
724
  8
LAYER_01
 10
126.8589920650908
 20
-121.3153997043884
 30
0.0
  0
VERTEX
  5
725
  8
LAYER_01
 10
159.3086418157929
 20
-121.3153997043884
 30
0.0
  0
VERTEX
  5
726
  8
LAYER_01
 10
159.3086418157929
 20
-190.2862102795913
 30
0.0
  0
VERTEX
  5
727
  8
LAYER_01
 10
137.1749065723131
 20
-227.6428317946062
 30
0.0
  0
VERTEX
  5
728
  8
LAYER_01
 10
103.6143317058152
 20
-208.9656423036856
 30
0.0
  0
VERTEX
  5
729
  8
LAYER_01
 10
82.7034806864516
 20
-155.5815471605165
 30
0.0
  0
SEQEND
  5
72A
  8
LAYER_01
  0
POLYLINE
  5
72B
  8
LAYER_01
 66
     1
 10
0.0
 20
0.0
 30
0.0
 70
     1
  0
VERTEX
  5
72C
  8
LAYER_01
 10
-73.16987361216547
 20
-537.5943164304831
 30
0.0
  0
VERTEX
  5
72D
  8
LAYER_01
 10
-31.63924482639743
 20
-513.6165967214033
 30
0.0
  0
VERTEX
  5
72E
  8
LAYER_01
 10
-5.419898661099069
 20
-558.1412219649103
 30
0.0
  0
VERTEX
  5
72F
  8
LAYER_01
 10
7.318820255489072
 20
-508.6802945996578
 30
0.0
  0
VERTEX
  5
730
  8
LAYER_01
 10
55.5505662078109
 20
-520.661153492106
 30
0.0
  0
VERTEX
  5
731
  8
LAYER_01
 10
31.07281583461258
 20
-477.4097716173353
 30
0.0
  0
VERTEX
  5
732
  8
LAYER_01
 10
64.7426374829871
 20
-457.9704910250795
 30
0.0
  0
VERTEX
  5
733
  8
LAYER_01
 10
1.548867238846071
 20
-455.3199796903364
 30
0.0
  0
VERTEX
  5
734
  8
LAYER_01
 10
35.8616542299884
 20
-392.6398157122832
 30
0.0
  0
VERTEX
  5
735
  8
LAYER_01
 10
-13.68837551825374
 20
-421.2475387257836
 30
0.0
  0
VERTEX
  5
736
  8
LAYER_01
 10
-28.48677746259534
 20
-396.7210349329141
 30
0.0
  0
VERTEX
  5
737
  8
LAYER_01
 10
-36.72961323348079
 20
-439.8586762532316
 30
0.0
  0
VERTEX
  5
738
  8
LAYER_01
 10
-73.16987361216542
 20
-427.0138520397585
 30
0.0
  0
VERTEX
  5
739
  8
LAYER_01
 10
-73.16987361216547
 20
-487.8426838940736
 30
0.0
  0
VERTEX
  5
73A
  8
LAYER_01
 10
-61.45533281680071
 20
-490.9674321164138
 30
0.0
  0
VERTEX
  5
73B
  8
LAYER_01
 10
-73.16987361216547
 20
-536.4517586951358
 30
0.0
  0
SEQEND
  5
73C
  8
LAYER_01
  0
POLYLINE
  5
73D
  8
LAYER_01
 66
     1
 10
0.0
 20
0.0
 30
0.0
 70
     1
  0
VERTEX
  5
73E
  8
LAYER_01
 10
194.8178998626797
 20
-382.8715032752527
 30
0.0
  0
VERTEX
  5
73F
  8
LAYER_01
 10
97.06592898193577
 20
-439.3086299770667
 30
0.0
  0
VERTEX
  5
740
  8
LAYER_01
 10
34.54996823470219
 20
-436.6865477382203
 30
0.0
  0
VERTEX
  5
741
  8
LAYER_01
 10
69.19873227758114
 20
-373.39264472751
 30
0.0
  0
VERTEX
  5
742
  8
LAYER_01
 10
159.3086418157928
 20
-321.3676641989706
 30
0.0
  0
VERTEX
  5
743
  8
LAYER_01
 10
159.3086418157928
 20
-362.3702235831587
 30
0.0
  0
SEQEND
  5
744
  8
LAYER_01
  0
POLYLINE
  5
745
  8
LAYER_01
 66
     1
 10
0.0
 20
0.0
 30
0.0
 70
     1
  0
VERTEX
  5
746
  8
LAYER_01
 10
87.68312752745953
 20
-339.6266633866002
 30
0.0
  0
VERTEX
  5
747
  8
LAYER_01
 10
102.5453952140365
 20
-312.4773276033878
 30
0.0
  0
VERTEX
  5
748
  8
LAYER_01
 10
70.52262941519746
 20
-294.9472148534042
 30
0.0
  0
VERTEX
  5
749
  8
LAYER_01
 10
133.3704688824899
 20
-284.9311999302902
 30
0.0
  0
VERTEX
  5
74A
  8
LAYER_01
 10
115.0791625771919
 20
-238.2346386477928
 30
0.0
  0
VERTEX
  5
74B
  8
LAYER_01
 10
144.4586963805615
 20
-254.5849878948854
 30
0.0
  0
VERTEX
  5
74C
  8
LAYER_01
 10
159.3086418157928
 20
-229.5217175051315
 30
0.0
  0
VERTEX
  5
74D
  8
LAYER_01
 10
159.3086418157928
 20
-298.2736534313856
 30
0.0
  0
SEQEND
  5
74E
  8
LAYER_01
  0
POLYLINE
  5
74F
  8
LAYER_01
 66
     1
 10
0.0
 20
0.0
 30
0.0
 70
     1
  0
VERTEX
  5
750
  8
LAYER_01
 10
1.718668636988809
 20
-257.2820988023984
 30
0.0
  0
VERTEX
  5
751
  8
LAYER_01
 10
41.86882053774622
 20
-279.2613586255698
 30
0.0
  0
VERTEX
  5
752
  8
LAYER_01
 10
105.6861093945435
 20
-269.09084325129
 30
0.0
  0
VERTEX
  5
753
  8
LAYER_01
 10
87.61189654471866
 20
-222.9485079862426
 30
0.0
  0
VERTEX
  5
754
  8
LAYER_01
 10
38.10730613295419
 20
-195.3981272353476
 30
0.0
  0
VERTEX
  5
755
  8
LAYER_01
 10
5.220482880500867
 20
-220.5574455705577
 30
0.0
  0
SEQEND
  5
756
  8
LAYER_01
  0
POLYLINE
  5
757
  8
LAYER_01
 66
     1
 10
0.0
 20
0.0
 30
0.0
 70
     1
  0
VERTEX
  5
758
  8
LAYER_01
 10
-73.16987361216547
 20
-133.7581135408117
 30
0.0
  0
VERTEX
  5
759
  8
LAYER_01
 10
-73.16987361216542
 20
-216.3623604415278
 30
0.0
  0
VERTEX
  5
75A
  8
LAYER_01
 10
-43.8315284196151
 20
-232.9020986708849
 30
0.0
  0
VERTEX
  5
75B
  8
LAYER_01
 10
-13.86105547529542
 20
-209.9738680030995
 30
0.0
  0
VERTEX
  5
75C
  8
LAYER_01
 10
-9.96034742603905
 20
-169.0658870235253
 30
0.0
  0
SEQEND
  5
75D
  8
LAYER_01
  0
POLYLINE
  5
75E
  8
LAYER_01
 66
     1
 10
0.0
 20
0.0
 30
0.0
 70
     1
  0
VERTEX
  5
75F
  8
LAYER_01
 10
46.13311578006017
 20
-121.3153997043884
 30
0.0
  0
VERTEX
  5
760
  8
LAYER_01
 10
26.02684066273434
 20
-94.06872011048273
 30
0.0
  0
VERTEX
  5
761
  8
LAYER_01
 10
5.920565545408635
 20
-121.3153997043884
 30
0.0
  0
VERTEX
  5
762
  8
LAYER_01
 10
-54.43330342447223
 20
-121.3153997043884
 30
0.0
  0
VERTEX
  5
763
  8
LAYER_01
 10
11.18834595097127
 20
-157.9705444508895
 30
0.0
  0
VERTEX
  5
764
  8
LAYER_01
 10
7.810558252404803
 20
-193.3944913808152
 30
0.0
  0
VERTEX
  5
765
  8
LAYER_01
 10
36.37229144363641
 20
-171.5439851142993
 30
0.0
  0
VERTEX
  5
766
  8
LAYER_01
 10
76.1470656733419
 20
-193.6795116421353
 30
0.0
  0
VERTEX
  5
767
  8
LAYER_01
 10
58.62639680563132
 20
-148.9503395515442
 30
0.0
  0
VERTEX
  5
768
  8
LAYER_01
 10
94.23690430232011
 20
-121.3153997043884
 30
0.0
  0
SEQEND
  5
769
  8
LAYER_01
  0
POLYLINE
  5
76A
  8
LAYER_01
 66
     1
 10
0.0
 20
0.0
 30
0.0
 70
     1
  0
VERTEX
  5
76B
  8
LAYER_01
 10
-59.95860438332056
 20
-738.3937914400458
 30
0.0
  0
VERTEX
  5
76C
  8
LAYER_01
 10
-73.16987361216547
 20
-732.0885499364026
 30
0.0
  0
VERTEX
  5
76D
  8
LAYER_01
 10
-73.16987361216547
 20
-668.0109963313312
 30
0.0
  0
VERTEX
  5
76E
  8
LAYER_01
 10
-34.88124781517604
 20
-687.365786702785
 30
0.0
  0
VERTEX
  5
76F
  8
LAYER_01
 10
-34.88124781517604
 20
-723.9153728748634
 30
0.0
  0
SEQEND
  5
770
  8
LAYER_01
  0
POLYLINE
  5
771
  8
LAYER_01
 66
     1
 10
0.0
 20
0.0
 30
0.0
 70
     1
  0
VERTEX
  5
772
  8
LAYER_01
 10
39.06377484492259
 20
-673.0960218179491
 30
0.0
  0
VERTEX
  5
773
  8
LAYER_01
 10
66.60633929884193
 20
-719.8676824392558
 30
0.0
  0
VERTEX
  5
774
  8
LAYER_01
 10
19.83467867753558
 20
-692.3251179853364
 30
0.0
  0
VERTEX
  5
775
  8
LAYER_01
 10
-14.88124781517604
 20
-712.3683674910708
 30
0.0
  0
VERTEX
  5
776
  8
LAYER_01
 10
-14.8812478151761
 20
-675.0656659291451
 30
0.0
  0
VERTEX
  5
777
  8
LAYER_01
 10
-49.65681449523822
 20
-657.4867168514256
 30
0.0
  0
VERTEX
  5
778
  8
LAYER_01
 10
-8.699980236482816
 20
-651.0655110676721
 30
0.0
  0
VERTEX
  5
779
  8
LAYER_01
 10
1.886149423631196
 20
-609.9624932817833
 30
0.0
  0
VERTEX
  5
77A
  8
LAYER_01
 10
23.15009624122376
 20
-646.0720612810123
 30
0.0
  0
VERTEX
  5
77B
  8
LAYER_01
 10
57.80271247089206
 20
-640.639229769906
 30
0.0
  0
SEQEND
  5
77C
  8
LAYER_01
  0
POLYLINE
  5
77D
  8
LAYER_01
 66
     1
 10
0.0
 20
0.0
 30
0.0
 70
     1
  0
VERTEX
  5
77E
  8
LAYER_01
 10
-73.16987361216547
 20
-560.688327198068
 30
0.0
  0
VERTEX
  5
77F
  8
LAYER_01
 10
-38.81145274836007
 20
-540.8514836634158
 30
0.0
  0
VERTEX
  5
780
  8
LAYER_01
 10
-12.48230037746691
 20
-585.5625773307612
 30
0.0
  0
VERTEX
  5
781
  8
LAYER_01
 10
-24.78834106400836
 20
-633.3435346260959
 30
0.0
  0
VERTEX
  5
782
  8
LAYER_01
 10
-73.16987361216547
 20
-640.9287833946494
 30
0.0
  0
SEQEND
  5
783
  8
LAYER_01
  0
POLYLINE
  5
784
  8
LAYER_01
 66
     1
 10
0.0
 20
0.0
 30
0.0
 70
     1
  0
VERTEX
  5
785
  8
LAYER_01
 10
214.8178998626798
 20
-371.3244978914602
 30
0.0
  0
VERTEX
  5
786
  8
LAYER_01
 10
250.3271579095669
 20
-350.8232181993662
 30
0.0
  0
VERTEX
  5
787
  8
LAYER_01
 10
250.3271579095668
 20
-309.8206588151782
 30
0.0
  0
VERTEX
  5
788
  8
LAYER_01
 10
214.8178998626798
 20
-289.3193791230842
 30
0.0
  0
VERTEX
  5
789
  8
LAYER_01
 10
179.3086418157928
 20
-309.8206588151782
 30
0.0
  0
VERTEX
  5
78A
  8
LAYER_01
 10
179.3086418157928
 20
-350.8232181993662
 30
0.0
  0
SEQEND
  5
78B
  8
LAYER_01
  0
POLYLINE
  5
78C
  8
LAYER_01
 66
     1
 10
0.0
 20
0.0
 30
0.0
 70
     1
  0
VERTEX
  5
78D
  8
LAYER_01
 10
250.3271579095668
 20
-286.726648047593
 30
0.0
  0
VERTEX
  5
78E
  8
LAYER_01
 10
214.8178998626796
 20
-266.2253683554991
 30
0.0
  0
VERTEX
  5
78F
  8
LAYER_01
 10
179.3086418157928
 20
-286.7266480475932
 30
0.0
  0
VERTEX
  5
790
  8
LAYER_01
 10
179.3086418157929
 20
-195.7663471583938
 30
0.0
  0
VERTEX
  5
791
  8
LAYER_01
 10
214.8178998626796
 20
-135.8349393528671
 30
0.0
  0
VERTEX
  5
792
  8
LAYER_01
 10
250.3271579095668
 20
-195.7663471583938
 30
0.0
  0
SEQEND
  5
793
  8
LAYER_01
  0
POLYLINE
  5
794
  8
LAYER_01
 66
     1
 10
0.0
 20
0.0
 30
0.0
 70
     1
  0
VERTEX
  5
795
  8
LAYER_01
 10
214.81789986268
 20
-468.3313632852721
 30
0.0
  0
VERTEX
  5
796
  8
LAYER_01
 10
250.3762099133919
 20
-513.2937670446988
 30
0.0
  0
VERTEX
  5
797
  8
LAYER_01
 10
249.979299443079
 20
-559.4510592338056
 30
0.0
  0
VERTEX
  5
798
  8
LAYER_01
 10
214.8178998626798
 20
-579.7515027466333
 30
0.0
  0
VERTEX
  5
799
  8
LAYER_01
 10
179.6565002822807
 20
-559.4510592338056
 30
0.0
  0
VERTEX
  5
79A
  8
LAYER_01
 10
179.2595898119678
 20
-513.2937670446988
 30
0.0
  0
SEQEND
  5
79B
  8
LAYER_01
  0
POLYLINE
  5
79C
  8
LAYER_01
 66
     1
 10
0.0
 20
0.0
 30
0.0
 70
     1
  0
VERTEX
  5
79D
  8
LAYER_01
 10
214.81789986268
 20
-761.4750362639506
 30
0.0
  0
VERTEX
  5
79E
  8
LAYER_01
 10
248.7577707359048
 20
-701.5043978867418
 30
0.0
  0
VERTEX
  5
79F
  8
LAYER_01
 10
249.4342874271401
 20
-622.8312941929316
 30
0.0
  0
VERTEX
  5
7A0
  8
LAYER_01
 10
214.8178998626798
 20
-602.8455135142183
 30
0.0
  0
VERTEX
  5
7A1
  8
LAYER_01
 10
180.2015122982195
 20
-622.8312941929316
 30
0.0
  0
VERTEX
  5
7A2
  8
LAYER_01
 10
180.8780289894548
 20
-701.5043978867418
 30
0.0
  0
SEQEND
  5
7A3
  8
LAYER_01
  0
POLYLINE
  5
7A4
  8
LAYER_01
 66
     1
 10
0.0
 20
0.0
 30
0.0
  0
VERTEX
  5
7A5
  8
LAYER_01
 10
148.8199638813108
 20
-868.0792430030936
 30
0.0
  0
VERTEX
  5
7A6
  8
LAYER_01
 10
170.0266934620016
 20
-856.0774754200161
 30
0.0
  0
VERTEX
  5
7A7
  8
LAYER_01
 10
157.6620107054751
 20
-835.0802750124092
 30
0.0
  0
VERTEX
  5
7A8
  8
LAYER_01
 10
182.028461045079
 20
-835.2898041854928
 30
0.0
  0
VERTEX
  5
7A9
  8
LAYER_01
 10
181.8189318719951
 20
-810.9233538458889
 30
0.0
  0
VERTEX
  5
7AA
  8
LAYER_01
 10
202.8161322796022
 20
-823.2880366024153
 30
0.0
  0
VERTEX
  5
7AB
  8
LAYER_01
 10
214.8178998626798
 20
-802.0813070217246
 30
0.0
  0
VERTEX
  5
7AC
  8
LAYER_01
 10
226.8196674457575
 20
-823.2880366024153
 30
0.0
  0
VERTEX
  5
7AD
  8
LAYER_01
 10
247.8168678533645
 20
-810.9233538458889
 30
0.0
  0
VERTEX
  5
7AE
  8
LAYER_01
 10
247.6073386802807
 20
-835.2898041854928
 30
0.0
  0
VERTEX
  5
7AF
  8
LAYER_01
 10
271.9737890198846
 20
-835.0802750124092
 30
0.0
  0
VERTEX
  5
7B0
  8
LAYER_01
 10
259.6091062633581
 20
-856.0774754200161
 30
0.0
  0
VERTEX
  5
7B1
  8
LAYER_01
 10
280.8158358440489
 20
-868.0792430030936
 30
0.0
  0
SEQEND
  5
7B2
  8
LAYER_01
  0
POLYLINE
  5
7B3
  8
LAYER_01
 66
     1
 10
0.0
 20
0.0
 30
0.0
 70
     1
  0
VERTEX
  5
7B4
  8
LAYER_01
 10
214.81789986268
 20
-394.4185086590453
 30
0.0
  0
VERTEX
  5
7B5
  8
LAYER_01
 10
295.278935007799
 20
-440.8727089593557
 30
0.0
  0
VERTEX
  5
7B6
  8
LAYER_01
 10
250.9829886030538
 20
-442.7305963361538
 30
0.0
  0
VERTEX
  5
7B7
  8
LAYER_01
 10
250.6504802977698
 20
-481.3984676827592
 30
0.0
  0
VERTEX
  5
7B8
  8
LAYER_01
 10
214.8178998626798
 20
-436.0892573472025
 30
0.0
  0
VERTEX
  5
7B9
  8
LAYER_01
 10
178.9853194275899
 20
-481.3984676827592
 30
0.0
  0
VERTEX
  5
7BA
  8
LAYER_01
 10
178.6528111223059
 20
-442.7305963361538
 30
0.0
  0
VERTEX
  5
7BB
  8
LAYER_01
 10
134.3568647175607
 20
-440.8727089593557
 30
0.0
  0
SEQEND
  5
7BC
  8
LAYER_01
  0
POLYLINE
  5
7BD
  8
LAYER_01
 66
     1
 10
0.0
 20
0.0
 30
0.0
 70
     1
  0
VERTEX
  5
7BE
  8
LAYER_01
 10
-73.16987361216553
 20
-828.668082741734
 30
0.0
  0
VERTEX
  5
7BF
  8
LAYER_01
 10
-61.9628350099876
 20
-848.0792430030926
 30
0.0
  0
VERTEX
  5
7C0
  8
LAYER_01
 10
-41.9195855042538
 20
-813.363316510382
 30
0.0
  0
VERTEX
  5
7C1
  8
LAYER_01
 10
12.35714299794142
 20
-813.8300467021929
 30
0.0
  0
VERTEX
  5
7C2
  8
LAYER_01
 10
-34.88124781517621
 20
-787.0958826539168
 30
0.0
  0
VERTEX
  5
7C3
  8
LAYER_01
 10
-34.88124781517615
 20
-747.0093836424483
 30
0.0
  0
VERTEX
  5
7C4
  8
LAYER_01
 10
-59.07394813322895
 20
-760.9770456834999
 30
0.0
  0
VERTEX
  5
7C5
  8
LAYER_01
 10
-73.16987361216547
 20
-754.249591051964
 30
0.0
  0
SEQEND
  5
7C6
  8
LAYER_01
  0
POLYLINE
  5
7C7
  8
LAYER_01
 66
     1
 10
0.0
 20
0.0
 30
0.0
 70
     1
  0
VERTEX
  5
7C8
  8
LAYER_01
 10
-73.16987361216553
 20
680.3259818950721
 30
0.0
  0
VERTEX
  5
7C9
  8
LAYER_01
 10
-61.96283500998761
 20
699.7371421564308
 30
0.0
  0
VERTEX
  5
7CA
  8
LAYER_01
 10
-41.9195855042538
 20
665.02121566372
 30
0.0
  0
VERTEX
  5
7CB
  8
LAYER_01
 10
12.35714299794142
 20
665.487945855531
 30
0.0
  0
VERTEX
  5
7CC
  8
LAYER_01
 10
-34.88124781517621
 20
638.7537818072549
 30
0.0
  0
VERTEX
  5
7CD
  8
LAYER_01
 10
-34.88124781517615
 20
598.6672827957864
 30
0.0
  0
VERTEX
  5
7CE
  8
LAYER_01
 10
-59.07394813322895
 20
612.634944836838
 30
0.0
  0
VERTEX
  5
7CF
  8
LAYER_01
 10
-73.16987361216547
 20
605.9074902053021
 30
0.0
  0
SEQEND
  5
7D0
  8
LAYER_01
  0
POLYLINE
  5
7D1
  8
LAYER_01
 66
     1
 10
0.0
 20
0.0
 30
0.0
 70
     1
  0
VERTEX
  5
7D2
  8
LAYER_01
 10
502.8056733375252
 20
680.3259818950721
 30
0.0
  0
VERTEX
  5
7D3
  8
LAYER_01
 10
491.5986347353473
 20
699.7371421564308
 30
0.0
  0
VERTEX
  5
7D4
  8
LAYER_01
 10
471.5553852296135
 20
665.02121566372
 30
0.0
  0
VERTEX
  5
7D5
  8
LAYER_01
 10
417.2786567274183
 20
665.487945855531
 30
0.0
  0
VERTEX
  5
7D6
  8
LAYER_01
 10
464.5170475405359
 20
638.7537818072549
 30
0.0
  0
VERTEX
  5
7D7
  8
LAYER_01
 10
464.5170475405358
 20
598.6672827957864
 30
0.0
  0
VERTEX
  5
7D8
  8
LAYER_01
 10
488.7097478585886
 20
612.634944836838
 30
0.0
  0
VERTEX
  5
7D9
  8
LAYER_01
 10
502.8056733375251
 20
605.9074902053021
 30
0.0
  0
SEQEND
  5
7DA
  8
LAYER_01
  0
POLYLINE
  5
7DB
  8
LAYER_01
 66
     1
 10
0.0
 20
0.0
 30
0.0
 70
     1
  0
VERTEX
  5
7DC
  8
LAYER_01
 10
491.5986347353472
 20
-848.0792430030926
 30
0.0
  0
VERTEX
  5
7DD
  8
LAYER_01
 10
471.5553852296135
 20
-813.363316510382
 30
0.0
  0
VERTEX
  5
7DE
  8
LAYER_01
 10
417.2786567274183
 20
-813.8300467021929
 30
0.0
  0
VERTEX
  5
7DF
  8
LAYER_01
 10
464.5170475405359
 20
-787.0958826539168
 30
0.0
  0
VERTEX
  5
7E0
  8
LAYER_01
 10
464.5170475405358
 20
-747.0093836424483
 30
0.0
  0
VERTEX
  5
7E1
  8
LAYER_01
 10
488.7097478585886
 20
-760.9770456834999
 30
0.0
  0
VERTEX
  5
7E2
  8
LAYER_01
 10
502.8056733375251
 20
-754.249591051964
 30
0.0
  0
VERTEX
  5
7E3
  8
LAYER_01
 10
502.8056733375251
 20
-828.668082741734
 30
0.0
  0
SEQEND
  5
7E4
  8
LAYER_01
  0
POLYLINE
  5
7E5
  8
LAYER_01
 66
     1
 10
0.0
 20
0.0
 30
0.0
  0
VERTEX
  5
7E6
  8
LAYER_01
 10
480.0516293515553
 20
719.7371421564316
 30
0.0
  0
VERTEX
  5
7E7
  8
LAYER_01
 10
460.0658486728418
 20
685.1207545919715
 30
0.0
  0
VERTEX
  5
7E8
  8
LAYER_01
 10
381.3927449790314
 20
685.7972712832068
 30
0.0
  0
VERTEX
  5
7E9
  8
LAYER_01
 10
321.4221066018229
 20
719.7371421564316
 30
0.0
  0
SEQEND
  5
7EA
  8
LAYER_01
  0
POLYLINE
  5
7EB
  8
LAYER_01
 66
     1
 10
0.0
 20
0.0
 30
0.0
  0
VERTEX
  5
7EC
  8
LAYER_01
 10
-50.4158296261956
 20
719.7371421564316
 30
0.0
  0
VERTEX
  5
7ED
  8
LAYER_01
 10
-30.43004894748213
 20
685.1207545919715
 30
0.0
  0
VERTEX
  5
7EE
  8
LAYER_01
 10
48.24305474632826
 20
685.7972712832068
 30
0.0
  0
VERTEX
  5
7EF
  8
LAYER_01
 10
108.2136931235368
 20
719.7371421564316
 30
0.0
  0
SEQEND
  5
7F0
  8
LAYER_01
  0
POLYLINE
  5
7F1
  8
LAYER_01
 66
     1
 10
0.0
 20
0.0
 30
0.0
  0
VERTEX
  5
7F2
  8
LAYER_01
 10
280.8158358440489
 20
719.7371421564317
 30
0.0
  0
VERTEX
  5
7F3
  8
LAYER_01
 10
259.6091062633581
 20
707.7353745733542
 30
0.0
  0
VERTEX
  5
7F4
  8
LAYER_01
 10
271.9737890198846
 20
686.7381741657473
 30
0.0
  0
VERTEX
  5
7F5
  8
LAYER_01
 10
247.6073386802807
 20
686.9477033388309
 30
0.0
  0
VERTEX
  5
7F6
  8
LAYER_01
 10
247.8168678533645
 20
662.581252999227
 30
0.0
  0
VERTEX
  5
7F7
  8
LAYER_01
 10
226.8196674457575
 20
674.9459357557535
 30
0.0
  0
VERTEX
  5
7F8
  8
LAYER_01
 10
214.8178998626798
 20
653.7392061750627
 30
0.0
  0
VERTEX
  5
7F9
  8
LAYER_01
 10
202.8161322796022
 20
674.9459357557535
 30
0.0
  0
VERTEX
  5
7FA
  8
LAYER_01
 10
181.8189318719951
 20
662.581252999227
 30
0.0
  0
VERTEX
  5
7FB
  8
LAYER_01
 10
182.028461045079
 20
686.9477033388309
 30
0.0
  0
VERTEX
  5
7FC
  8
LAYER_01
 10
157.6620107054751
 20
686.7381741657473
 30
0.0
  0
VERTEX
  5
7FD
  8
LAYER_01
 10
170.0266934620016
 20
707.7353745733542
 30
0.0
  0
VERTEX
  5
7FE
  8
LAYER_01
 10
148.8199638813108
 20
719.7371421564316
 30
0.0
  0
SEQEND
  5
7FF
  8
LAYER_01
  0
ENDSEC
  0
EOF
