  0
SECTION
  2
HEADER
  9
$ACADVER
  1
AC1009
  9
$DWGCODEPAGE
  3
ansi_1252
  9
$INSBASE
 10
0.0
 20
0.0
 30
0.0
  9
$EXTMIN
 10
1.000000000000000E+20
 20
1.000000000000000E+20
 30
1.000000000000000E+20
  9
$EXTMAX
 10
-1.000000000000000E+20
 20
-1.000000000000000E+20
 30
-1.000000000000000E+20
  9
$LIMMIN
 10
0.0
 20
0.0
  9
$LIMMAX
 10
12.0
 20
9.0
  9
$ORTHOMODE
 70
     0
  9
$REGENMODE
 70
     1
  9
$FILLMODE
 70
     1
  9
$QTEXTMODE
 70
     0
  9
$MIRRTEXT
 70
     1
  9
$DRAGMODE
 70
     2
  9
$LTSCALE
 40
1.0
  9
$OSMODE
 70
    37
  9
$ATTMODE
 70
     1
  9
$TEXTSIZE
 40
0.2
  9
$TRACEWID
 40
0.05
  9
$TEXTSTYLE
  7
STANDARD
  9
$CLAYER
  8
LAYER_01
  9
$CELTYPE
  6
BYLAYER
  9
$CECOLOR
 62
   256
  9
$DIMSCALE
 40
1.0
  9
$DIMASZ
 40
0.18
  9
$DIMEXO
 40
0.0625
  9
$DIMDLI
 40
0.38
  9
$DIMRND
 40
0.0
  9
$DIMDLE
 40
0.0
  9
$DIMEXE
 40
0.18
  9
$DIMTP
 40
0.0
  9
$DIMTM
 40
0.0
  9
$DIMTXT
 40
0.18
  9
$DIMCEN
 40
0.09
  9
$DIMTSZ
 40
0.0
  9
$DIMTOL
 70
     0
  9
$DIMLIM
 70
     0
  9
$DIMTIH
 70
     1
  9
$DIMTOH
 70
     1
  9
$DIMSE1
 70
     0
  9
$DIMSE2
 70
     0
  9
$DIMTAD
 70
     0
  9
$DIMZIN
 70
     0
  9
$DIMBLK
  1

  9
$DIMASO
 70
     1
  9
$DIMSHO
 70
     1
  9
$DIMPOST
  1

  9
$DIMAPOST
  1

  9
$DIMALT
 70
     0
  9
$DIMALTD
 70
     2
  9
$DIMALTF
 40
25.4
  9
$DIMLFAC
 40
1.0
  9
$DIMTOFL
 70
     0
  9
$DIMTVP
 40
0.0
  9
$DIMTIX
 70
     0
  9
$DIMSOXD
 70
     0
  9
$DIMSAH
 70
     0
  9
$DIMBLK1
  1

  9
$DIMBLK2
  1

  9
$DIMSTYLE
  2
STANDARD_ACAD
  9
$DIMCLRD
 70
     0
  9
$DIMCLRE
 70
     0
  9
$DIMCLRT
 70
     0
  9
$DIMTFAC
 40
1.0
  9
$DIMGAP
 40
0.09
  9
$LUNITS
 70
     2
  9
$LUPREC
 70
     3
  9
$SKETCHINC
 40
0.1
  9
$FILLETRAD
 40
0.5
  9
$AUNITS
 70
     0
  9
$AUPREC
 70
     0
  9
$MENU
  1
.
  9
$ELEVATION
 40
0.0
  9
$PELEVATION
 40
0.0
  9
$THICKNESS
 40
0.0
  9
$LIMCHECK
 70
     0
  9
$CHAMFERA
 40
0.0
  9
$CHAMFERB
 40
0.0
  9
$SKPOLY
 70
     0
  9
$TDCREATE
 40
2460051.428069363
  9
$TDUPDATE
 40
2460051.428069479
  9
$TDINDWG
 40
0.0000000116
  9
$TDUSRTIMER
 40
0.0000000116
  9
$USRTIMER
 70
     1
  9
$ANGBASE
 50
0.0
  9
$ANGDIR
 70
     0
  9
$PDMODE
 70
     0
  9
$PDSIZE
 40
0.0
  9
$PLINEWID
 40
0.0
  9
$COORDS
 70
     1
  9
$SPLFRAME
 70
     0
  9
$SPLINETYPE
 70
     6
  9
$SPLINESEGS
 70
     8
  9
$ATTDIA
 70
     0
  9
$ATTREQ
 70
     1
  9
$HANDLING
 70
     1
  9
$HANDSEED
  5
2CB
  9
$SURFTAB1
 70
     6
  9
$SURFTAB2
 70
     6
  9
$SURFTYPE
 70
     6
  9
$SURFU
 70
     6
  9
$SURFV
 70
     6
  9
$UCSNAME
  2

  9
$UCSORG
 10
0.0
 20
0.0
 30
0.0
  9
$UCSXDIR
 10
1.0
 20
0.0
 30
0.0
  9
$UCSYDIR
 10
0.0
 20
1.0
 30
0.0
  9
$PUCSNAME
  2

  9
$PUCSORG
 10
0.0
 20
0.0
 30
0.0
  9
$PUCSXDIR
 10
1.0
 20
0.0
 30
0.0
  9
$PUCSYDIR
 10
0.0
 20
1.0
 30
0.0
  9
$USERI1
 70
     0
  9
$USERI2
 70
     0
  9
$USERI3
 70
     0
  9
$USERI4
 70
     0
  9
$USERI5
 70
     0
  9
$USERR1
 40
0.0
  9
$USERR2
 40
0.0
  9
$USERR3
 40
0.0
  9
$USERR4
 40
0.0
  9
$USERR5
 40
0.0
  9
$WORLDVIEW
 70
     1
  9
$SHADEDGE
 70
     3
  9
$SHADEDIF
 70
    70
  9
$TILEMODE
 70
     1
  9
$MAXACTVP
 70
    64
  9
$PLIMCHECK
 70
     0
  9
$PEXTMIN
 10
1.000000000000000E+20
 20
1.000000000000000E+20
 30
1.000000000000000E+20
  9
$PEXTMAX
 10
-1.000000000000000E+20
 20
-1.000000000000000E+20
 30
-1.000000000000000E+20
  9
$PLIMMIN
 10
0.0
 20
0.0
  9
$PLIMMAX
 10
12.0
 20
9.0
  9
$UNITMODE
 70
     0
  9
$VISRETAIN
 70
     1
  9
$PLINEGEN
 70
     0
  9
$PSLTSCALE
 70
     1
  0
ENDSEC
  0
SECTION
  2
TABLES
  0
TABLE
  2
VPORT
 70
     1
  0
VPORT
  2
*ACTIVE
 70
     0
 10
0.0
 20
0.0
 11
1.0
 21
1.0
 12
10.42990654205607
 22
4.5
 13
0.0
 23
0.0
 14
0.5
 24
0.5
 15
0.5
 25
0.5
 16
0.0
 26
0.0
 36
1.0
 17
0.0
 27
0.0
 37
0.0
 40
9.0
 41
1.972972972850329
 42
50.0
 43
0.0
 44
0.0
 50
0.0
 51
0.0
 71
     0
 72
   100
 73
     1
 74
     3
 75
     0
 76
     0
 77
     0
 78
     0
  0
ENDTAB
  0
TABLE
  2
LTYPE
 70
     1
  0
LTYPE
  2
CONTINUOUS
 70
     0
  3
Solid line
 72
    65
 73
     0
 40
0.0
  0
ENDTAB
  0
TABLE
  2
LAYER
 70
     2
  0
LAYER
  2
0
 70
     0
 62
     7
  6
CONTINUOUS
  0
LAYER
  2
LAYER_01
 70
     0
 62
     7
  6
CONTINUOUS
  0
ENDTAB
  0
TABLE
  2
STYLE
 70
     1
  0
STYLE
  2
STANDARD
 70
     0
 40
0.0
 41
1.0
 50
0.0
 71
     0
 42
0.2
  3
txt
  4

  0
ENDTAB
  0
TABLE
  2
VIEW
 70
     0
  0
ENDTAB
  0
TABLE
  2
UCS
 70
     0
  0
ENDTAB
  0
TABLE
  2
APPID
 70
     2
  0
APPID
  2
ACAD
 70
     0
  0
APPID
  2
RHINO
 70
     0
  0
ENDTAB
  0
TABLE
  2
DIMSTYLE
 70
     1
  0
DIMSTYLE
  2
STANDARD_ACAD
 70
     0
  3

  4

  5

  6

  7

 40
1.0
 41
0.18
 42
0.0625
 43
0.38
 44
0.18
 45
0.0
 46
0.0
 47
0.0
 48
0.0
140
0.18
141
0.09
142
0.0
143
25.4
144
1.0
145
0.0
146
1.0
147
0.09
 71
     0
 72
     0
 73
     1
 74
     1
 75
     0
 76
     0
 77
     0
 78
     0
170
     0
171
     2
172
     0
173
     0
174
     0
175
     0
176
     0
177
     0
178
     0
  0
ENDTAB
  0
ENDSEC
  0
SECTION
  2
BLOCKS
  0
BLOCK
  8
0
  2
$MODEL_SPACE
 70
     0
 10
0.0
 20
0.0
 30
0.0
  3
$MODEL_SPACE
  1

  0
ENDBLK
  5
21
  8
0
  0
BLOCK
 67
     1
  8
0
  2
$PAPER_SPACE
 70
     0
 10
0.0
 20
0.0
 30
0.0
  3
$PAPER_SPACE
  1

  0
ENDBLK
  5
1D
 67
     1
  8
0
  0
ENDSEC
  0
SECTION
  2
ENTITIES
  0
POLYLINE
  5
70
  8
LAYER_01
 66
     1
 10
0.0
 20
0.0
 30
0.0
 70
     1
  0
VERTEX
  5
71
  8
LAYER_01
 10
55.75156178765945
 20
54.35292110182621
 30
0.0
  0
VERTEX
  5
72
  8
LAYER_01
 10
1091.340144194958
 20
54.35292110182621
 30
0.0
  0
VERTEX
  5
73
  8
LAYER_01
 10
1091.340144194958
 20
1196.191503509125
 30
0.0
  0
VERTEX
  5
74
  8
LAYER_01
 10
55.75156178765945
 20
1196.191503509125
 30
0.0
  0
SEQEND
  5
75
  8
LAYER_01
  0
POLYLINE
  5
76
  8
LAYER_01
 66
     1
 10
0.0
 20
0.0
 30
0.0
 70
     1
  0
VERTEX
  5
77
  8
LAYER_01
 10
694.9290541660105
 20
72.14721230547595
 30
0.0
  0
VERTEX
  5
78
  8
LAYER_01
 10
928.446521813973
 20
72.14721230547593
 30
0.0
  0
VERTEX
  5
79
  8
LAYER_01
 10
928.4465218139732
 20
107.3577888386638
 30
0.0
  0
VERTEX
  5
7A
  8
LAYER_01
 10
694.9290541660104
 20
107.3577888386638
 30
0.0
  0
SEQEND
  5
7B
  8
LAYER_01
  0
POLYLINE
  5
7C
  8
LAYER_01
 66
     1
 10
0.0
 20
0.0
 30
0.0
 70
     1
  0
VERTEX
  5
7D
  8
LAYER_01
 10
405.2101404710567
 20
349.307579471997
 30
0.0
  0
VERTEX
  5
7E
  8
LAYER_01
 10
405.2101404710561
 20
72.14721230547596
 30
0.0
  0
VERTEX
  5
7F
  8
LAYER_01
 10
483.272018328525
 20
72.14721230547597
 30
0.0
  0
VERTEX
  5
80
  8
LAYER_01
 10
483.272018328525
 20
349.307579471997
 30
0.0
  0
SEQEND
  5
81
  8
LAYER_01
  0
POLYLINE
  5
82
  8
LAYER_01
 66
     1
 10
0.0
 20
0.0
 30
0.0
 70
     1
  0
VERTEX
  5
83
  8
LAYER_01
 10
688.2287490214633
 20
703.2175354024258
 30
0.0
  0
VERTEX
  5
84
  8
LAYER_01
 10
688.2287490214634
 20
810.822306605791
 30
0.0
  0
VERTEX
  5
85
  8
LAYER_01
 10
724.9492544698693
 20
810.822306605791
 30
0.0
  0
VERTEX
  5
86
  8
LAYER_01
 10
724.9492544698692
 20
663.2065873211734
 30
0.0
  0
VERTEX
  5
87
  8
LAYER_01
 10
466.2871813753808
 20
663.2065873211734
 30
0.0
  0
VERTEX
  5
88
  8
LAYER_01
 10
466.2871813753808
 20
774.5062438844758
 30
0.0
  0
VERTEX
  5
89
  8
LAYER_01
 10
505.9730236042185
 20
774.5062438844758
 30
0.0
  0
VERTEX
  5
8A
  8
LAYER_01
 10
505.9730236042185
 20
703.2175354024258
 30
0.0
  0
SEQEND
  5
8B
  8
LAYER_01
  0
POLYLINE
  5
8C
  8
LAYER_01
 66
     1
 10
0.0
 20
0.0
 30
0.0
 70
     1
  0
VERTEX
  5
8D
  8
LAYER_01
 10
958.4636577947882
 20
702.9563670479122
 30
0.0
  0
VERTEX
  5
8E
  8
LAYER_01
 10
958.4636577947881
 20
781.4423346927197
 30
0.0
  0
VERTEX
  5
8F
  8
LAYER_01
 10
992.9471204881545
 20
781.4423346927197
 30
0.0
  0
VERTEX
  5
90
  8
LAYER_01
 10
992.9471204881545
 20
663.2065873211734
 30
0.0
  0
VERTEX
  5
91
  8
LAYER_01
 10
761.0103616131814
 20
663.2065873211734
 30
0.0
  0
VERTEX
  5
92
  8
LAYER_01
 10
761.0103616131814
 20
866.9026493022789
 30
0.0
  0
VERTEX
  5
93
  8
LAYER_01
 10
791.2709145056815
 20
866.9026493022789
 30
0.0
  0
VERTEX
  5
94
  8
LAYER_01
 10
791.2709145056816
 20
702.9563670479122
 30
0.0
  0
SEQEND
  5
95
  8
LAYER_01
  0
POLYLINE
  5
96
  8
LAYER_01
 66
     1
 10
0.0
 20
0.0
 30
0.0
 70
     1
  0
VERTEX
  5
97
  8
LAYER_01
 10
724.2042836041851
 20
1142.297749275727
 30
0.0
  0
VERTEX
  5
98
  8
LAYER_01
 10
724.204283604185
 20
1178.397212305476
 30
0.0
  0
VERTEX
  5
99
  8
LAYER_01
 10
629.9757520708586
 20
1178.397212305476
 30
0.0
  0
VERTEX
  5
9A
  8
LAYER_01
 10
629.9757520708586
 20
1142.297749275727
 30
0.0
  0
SEQEND
  5
9B
  8
LAYER_01
  0
POLYLINE
  5
9C
  8
LAYER_01
 66
     1
 10
0.0
 20
0.0
 30
0.0
 70
     1
  0
VERTEX
  5
9D
  8
LAYER_01
 10
599.5528205178084
 20
72.14721230547597
 30
0.0
  0
VERTEX
  5
9E
  8
LAYER_01
 10
642.8706114922328
 20
72.14721230547588
 30
0.0
  0
VERTEX
  5
9F
  8
LAYER_01
 10
642.8706114922328
 20
543.2038737848216
 30
0.0
  0
VERTEX
  5
A0
  8
LAYER_01
 10
494.1870037773899
 20
543.2038737848216
 30
0.0
  0
VERTEX
  5
A1
  8
LAYER_01
 10
494.18700377739
 20
488.6796047910669
 30
0.0
  0
VERTEX
  5
A2
  8
LAYER_01
 10
599.5528205178084
 20
488.6796047910669
 30
0.0
  0
SEQEND
  5
A3
  8
LAYER_01
  0
POLYLINE
  5
A4
  8
LAYER_01
 66
     1
 10
0.0
 20
0.0
 30
0.0
 70
     1
  0
VERTEX
  5
A5
  8
LAYER_01
 10
171.6266040894873
 20
1085.14726679509
 30
0.0
  0
VERTEX
  5
A6
  8
LAYER_01
 10
186.7812344991281
 20
1085.14726679509
 30
0.0
  0
VERTEX
  5
A7
  8
LAYER_01
 10
186.7812344991281
 20
1052.366519318589
 30
0.0
  0
VERTEX
  5
A8
  8
LAYER_01
 10
171.6266040894873
 20
1052.366519318589
 30
0.0
  0
SEQEND
  5
A9
  8
LAYER_01
  0
POLYLINE
  5
AA
  8
LAYER_01
 66
     1
 10
0.0
 20
0.0
 30
0.0
 70
     1
  0
VERTEX
  5
AB
  8
LAYER_01
 10
232.5872923791219
 20
1135.20439087956
 30
0.0
  0
VERTEX
  5
AC
  8
LAYER_01
 10
232.5872923791216
 20
1178.397212305476
 30
0.0
  0
VERTEX
  5
AD
  8
LAYER_01
 10
583.865183840769
 20
1178.397212305476
 30
0.0
  0
VERTEX
  5
AE
  8
LAYER_01
 10
583.865183840769
 20
1095.721854963991
 30
0.0
  0
VERTEX
  5
AF
  8
LAYER_01
 10
554.6470345281094
 20
1095.721854963991
 30
0.0
  0
VERTEX
  5
B0
  8
LAYER_01
 10
554.6470345281094
 20
1077.792347052555
 30
0.0
  0
VERTEX
  5
B1
  8
LAYER_01
 10
529.0170425178592
 20
1077.792347052555
 30
0.0
  0
VERTEX
  5
B2
  8
LAYER_01
 10
529.0170425178592
 20
1131.445577550589
 30
0.0
  0
VERTEX
  5
B3
  8
LAYER_01
 10
250.2247840033176
 20
1131.445577550589
 30
0.0
  0
VERTEX
  5
B4
  8
LAYER_01
 10
250.2247840033176
 20
997.7995982871283
 30
0.0
  0
VERTEX
  5
B5
  8
LAYER_01
 10
277.2786259594836
 20
997.7995982871283
 30
0.0
  0
VERTEX
  5
B6
  8
LAYER_01
 10
277.2786259594836
 20
1065.434203177544
 30
0.0
  0
VERTEX
  5
B7
  8
LAYER_01
 10
391.4458390145047
 20
1065.434203177544
 30
0.0
  0
VERTEX
  5
B8
  8
LAYER_01
 10
391.4458390145047
 20
1029.182054956281
 30
0.0
  0
VERTEX
  5
B9
  8
LAYER_01
 10
303.2503142374031
 20
1029.182054956281
 30
0.0
  0
VERTEX
  5
BA
  8
LAYER_01
 10
303.2503142374031
 20
888.4939694028333
 30
0.0
  0
VERTEX
  5
BB
  8
LAYER_01
 10
274.0973121070368
 20
888.4939694028333
 30
0.0
  0
VERTEX
  5
BC
  8
LAYER_01
 10
274.0973121070368
 20
971.819802627825
 30
0.0
  0
VERTEX
  5
BD
  8
LAYER_01
 10
227.1548732193612
 20
971.8198026278249
 30
0.0
  0
VERTEX
  5
BE
  8
LAYER_01
 10
227.1548732193611
 20
1001.407159711454
 30
0.0
  0
VERTEX
  5
BF
  8
LAYER_01
 10
201.8878470509413
 20
1001.407159711454
 30
0.0
  0
VERTEX
  5
C0
  8
LAYER_01
 10
201.8878470509413
 20
1035.401044747417
 30
0.0
  0
VERTEX
  5
C1
  8
LAYER_01
 10
232.5872923791219
 20
1035.401044747417
 30
0.0
  0
VERTEX
  5
C2
  8
LAYER_01
 10
232.5872923791219
 20
1102.112741366262
 30
0.0
  0
VERTEX
  5
C3
  8
LAYER_01
 10
201.8878470509413
 20
1102.112741366262
 30
0.0
  0
VERTEX
  5
C4
  8
LAYER_01
 10
201.8878470509413
 20
1135.20439087956
 30
0.0
  0
SEQEND
  5
C5
  8
LAYER_01
  0
POLYLINE
  5
C6
  8
LAYER_01
 66
     1
 10
0.0
 20
0.0
 30
0.0
 70
     1
  0
VERTEX
  5
C7
  8
LAYER_01
 10
133.3731604863995
 20
225.9815526081783
 30
0.0
  0
VERTEX
  5
C8
  8
LAYER_01
 10
133.3731604863995
 20
253.5782304698187
 30
0.0
  0
VERTEX
  5
C9
  8
LAYER_01
 10
111.7274307610838
 20
253.5782304698187
 30
0.0
  0
VERTEX
  5
CA
  8
LAYER_01
 10
111.7274307610838
 20
225.9815526081783
 30
0.0
  0
SEQEND
  5
CB
  8
LAYER_01
  0
POLYLINE
  5
CC
  8
LAYER_01
 66
     1
 10
0.0
 20
0.0
 30
0.0
 70
     1
  0
VERTEX
  5
CD
  8
LAYER_01
 10
1073.545852991309
 20
243.3092822705805
 30
0.0
  0
VERTEX
  5
CE
  8
LAYER_01
 10
1073.545852991309
 20
174.8695681251141
 30
0.0
  0
VERTEX
  5
CF
  8
LAYER_01
 10
1048.456363585022
 20
174.8695681251141
 30
0.0
  0
VERTEX
  5
D0
  8
LAYER_01
 10
1048.456363585022
 20
210.0738669397307
 30
0.0
  0
VERTEX
  5
D1
  8
LAYER_01
 10
980.8217586946058
 20
210.0738669397307
 30
0.0
  0
VERTEX
  5
D2
  8
LAYER_01
 10
980.8217586946057
 20
174.8695681251141
 30
0.0
  0
VERTEX
  5
D3
  8
LAYER_01
 10
954.6637398136907
 20
174.8695681251141
 30
0.0
  0
VERTEX
  5
D4
  8
LAYER_01
 10
954.6637398136907
 20
243.3092822705805
 30
0.0
  0
SEQEND
  5
D5
  8
LAYER_01
  0
POLYLINE
  5
D6
  8
LAYER_01
 66
     1
 10
0.0
 20
0.0
 30
0.0
 70
     1
  0
VERTEX
  5
D7
  8
LAYER_01
 10
174.4036078276476
 20
329.4516165166887
 30
0.0
  0
VERTEX
  5
D8
  8
LAYER_01
 10
143.9905533060795
 20
329.4516165166887
 30
0.0
  0
VERTEX
  5
D9
  8
LAYER_01
 10
143.9905533060795
 20
109.1062587976281
 30
0.0
  0
VERTEX
  5
DA
  8
LAYER_01
 10
174.4036078276476
 20
109.1062587976281
 30
0.0
  0
SEQEND
  5
DB
  8
LAYER_01
  0
POLYLINE
  5
DC
  8
LAYER_01
 66
     1
 10
0.0
 20
0.0
 30
0.0
 70
     1
  0
VERTEX
  5
DD
  8
LAYER_01
 10
373.8720519377746
 20
379.8209814649294
 30
0.0
  0
VERTEX
  5
DE
  8
LAYER_01
 10
373.8720519377753
 20
72.14721230547596
 30
0.0
  0
VERTEX
  5
DF
  8
LAYER_01
 10
326.8649191378514
 20
72.14721230547593
 30
0.0
  0
VERTEX
  5
E0
  8
LAYER_01
 10
326.8649191378515
 20
435.8996662086972
 30
0.0
  0
VERTEX
  5
E1
  8
LAYER_01
 10
432.353084526046
 20
435.8996662086972
 30
0.0
  0
VERTEX
  5
E2
  8
LAYER_01
 10
432.353084526046
 20
379.8209814649294
 30
0.0
  0
SEQEND
  5
E3
  8
LAYER_01
  0
POLYLINE
  5
E4
  8
LAYER_01
 66
     1
 10
0.0
 20
0.0
 30
0.0
 70
     1
  0
VERTEX
  5
E5
  8
LAYER_01
 10
561.6172396617301
 20
435.8996662086972
 30
0.0
  0
VERTEX
  5
E6
  8
LAYER_01
 10
561.6172396617299
 20
72.14721230547596
 30
0.0
  0
VERTEX
  5
E7
  8
LAYER_01
 10
514.6101068618069
 20
72.14721230547596
 30
0.0
  0
VERTEX
  5
E8
  8
LAYER_01
 10
514.610106861807
 20
379.8209814649294
 30
0.0
  0
VERTEX
  5
E9
  8
LAYER_01
 10
465.3587717125689
 20
379.8209814649294
 30
0.0
  0
VERTEX
  5
EA
  8
LAYER_01
 10
465.3587717125689
 20
435.8996662086972
 30
0.0
  0
SEQEND
  5
EB
  8
LAYER_01
  0
POLYLINE
  5
EC
  8
LAYER_01
 66
     1
 10
0.0
 20
0.0
 30
0.0
 70
     1
  0
VERTEX
  5
ED
  8
LAYER_01
 10
245.6115473073485
 20
72.14721230547593
 30
0.0
  0
VERTEX
  5
EE
  8
LAYER_01
 10
288.9293382817732
 20
72.14721230547565
 30
0.0
  0
VERTEX
  5
EF
  8
LAYER_01
 10
288.9293382817732
 20
488.6796047910669
 30
0.0
  0
VERTEX
  5
F0
  8
LAYER_01
 10
440.6627239045738
 20
488.6796047910669
 30
0.0
  0
VERTEX
  5
F1
  8
LAYER_01
 10
440.6627239045737
 20
543.2038737848216
 30
0.0
  0
VERTEX
  5
F2
  8
LAYER_01
 10
245.6115473073488
 20
543.2038737848216
 30
0.0
  0
SEQEND
  5
F3
  8
LAYER_01
  0
POLYLINE
  5
F4
  8
LAYER_01
 66
     1
 10
0.0
 20
0.0
 30
0.0
 70
     1
  0
VERTEX
  5
F5
  8
LAYER_01
 10
410.6028995088334
 20
637.539278408203
 30
0.0
  0
VERTEX
  5
F6
  8
LAYER_01
 10
440.6627239045736
 20
637.5392784082031
 30
0.0
  0
VERTEX
  5
F7
  8
LAYER_01
 10
440.6627239045736
 20
579.6951319984222
 30
0.0
  0
VERTEX
  5
F8
  8
LAYER_01
 10
281.5726470320529
 20
579.6951319984222
 30
0.0
  0
VERTEX
  5
F9
  8
LAYER_01
 10
281.5726470320529
 20
636.3024953119645
 30
0.0
  0
VERTEX
  5
FA
  8
LAYER_01
 10
311.6324714277932
 20
636.3024953119645
 30
0.0
  0
VERTEX
  5
FB
  8
LAYER_01
 10
311.6324714277932
 20
613.1945101463389
 30
0.0
  0
VERTEX
  5
FC
  8
LAYER_01
 10
410.6028995088334
 20
613.1945101463389
 30
0.0
  0
SEQEND
  5
FD
  8
LAYER_01
  0
POLYLINE
  5
FE
  8
LAYER_01
 66
     1
 10
0.0
 20
0.0
 30
0.0
 70
     1
  0
VERTEX
  5
FF
  8
LAYER_01
 10
311.6324714277932
 20
654.036707166502
 30
0.0
  0
VERTEX
  5
100
  8
LAYER_01
 10
281.5726470320529
 20
654.0367071665021
 30
0.0
  0
VERTEX
  5
101
  8
LAYER_01
 10
281.5726470320529
 20
734.1986268973162
 30
0.0
  0
VERTEX
  5
102
  8
LAYER_01
 10
311.6324714277932
 20
734.1986268973162
 30
0.0
  0
SEQEND
  5
103
  8
LAYER_01
  0
POLYLINE
  5
104
  8
LAYER_01
 66
     1
 10
0.0
 20
0.0
 30
0.0
 70
     1
  0
VERTEX
  5
105
  8
LAYER_01
 10
255.9969764787438
 20
759.1828217421009
 30
0.0
  0
VERTEX
  5
106
  8
LAYER_01
 10
255.9969764787438
 20
654.036707166502
 30
0.0
  0
VERTEX
  5
107
  8
LAYER_01
 10
226.1805097480305
 20
654.036707166502
 30
0.0
  0
VERTEX
  5
108
  8
LAYER_01
 10
226.1805097480305
 20
664.3273758710988
 30
0.0
  0
VERTEX
  5
109
  8
LAYER_01
 10
164.0568726635007
 20
664.3273758710988
 30
0.0
  0
VERTEX
  5
10A
  8
LAYER_01
 10
164.0568726635007
 20
759.1828217421009
 30
0.0
  0
SEQEND
  5
10B
  8
LAYER_01
  0
POLYLINE
  5
10C
  8
LAYER_01
 66
     1
 10
0.0
 20
0.0
 30
0.0
 70
     1
  0
VERTEX
  5
10D
  8
LAYER_01
 10
226.1805097480305
 20
636.3024953119645
 30
0.0
  0
VERTEX
  5
10E
  8
LAYER_01
 10
255.9969764787438
 20
636.3024953119645
 30
0.0
  0
VERTEX
  5
10F
  8
LAYER_01
 10
255.9969764787438
 20
578.1558792699767
 30
0.0
  0
VERTEX
  5
110
  8
LAYER_01
 10
226.1805097480305
 20
578.1558792699767
 30
0.0
  0
SEQEND
  5
111
  8
LAYER_01
  0
POLYLINE
  5
112
  8
LAYER_01
 66
     1
 10
0.0
 20
0.0
 30
0.0
 70
     1
  0
VERTEX
  5
113
  8
LAYER_01
 10
281.5726470320529
 20
819.6053043304214
 30
0.0
  0
VERTEX
  5
114
  8
LAYER_01
 10
385.9324773848828
 20
819.6053043304214
 30
0.0
  0
VERTEX
  5
115
  8
LAYER_01
 10
385.9324773848828
 20
786.1059261825048
 30
0.0
  0
VERTEX
  5
116
  8
LAYER_01
 10
311.6324714277932
 20
786.1059261825048
 30
0.0
  0
VERTEX
  5
117
  8
LAYER_01
 10
311.6324714277932
 20
758.887705654618
 30
0.0
  0
VERTEX
  5
118
  8
LAYER_01
 10
281.5726470320529
 20
758.887705654618
 30
0.0
  0
SEQEND
  5
119
  8
LAYER_01
  0
POLYLINE
  5
11A
  8
LAYER_01
 66
     1
 10
0.0
 20
0.0
 30
0.0
 70
     1
  0
VERTEX
  5
11B
  8
LAYER_01
 10
365.9587789988016
 20
669.7640998163013
 30
0.0
  0
VERTEX
  5
11C
  8
LAYER_01
 10
365.9587789988016
 20
691.5710550272576
 30
0.0
  0
VERTEX
  5
11D
  8
LAYER_01
 10
395.6953641960589
 20
691.5710550272576
 30
0.0
  0
VERTEX
  5
11E
  8
LAYER_01
 10
395.6953641960589
 20
637.6171154737312
 30
0.0
  0
VERTEX
  5
11F
  8
LAYER_01
 10
326.5400067405677
 20
637.6171154737312
 30
0.0
  0
VERTEX
  5
120
  8
LAYER_01
 10
326.5400067405677
 20
691.5710550272576
 30
0.0
  0
VERTEX
  5
121
  8
LAYER_01
 10
356.2765919378249
 20
691.5710550272574
 30
0.0
  0
VERTEX
  5
122
  8
LAYER_01
 10
356.276591937825
 20
669.7640998163013
 30
0.0
  0
SEQEND
  5
123
  8
LAYER_01
  0
POLYLINE
  5
124
  8
LAYER_01
 66
     1
 10
0.0
 20
0.0
 30
0.0
 70
     1
  0
VERTEX
  5
125
  8
LAYER_01
 10
356.276591937825
 20
729.5363365125424
 30
0.0
  0
VERTEX
  5
126
  8
LAYER_01
 10
356.2765919378249
 20
707.7293813015862
 30
0.0
  0
VERTEX
  5
127
  8
LAYER_01
 10
326.5400067405677
 20
707.7293813015862
 30
0.0
  0
VERTEX
  5
128
  8
LAYER_01
 10
326.5400067405677
 20
761.6833208551125
 30
0.0
  0
VERTEX
  5
129
  8
LAYER_01
 10
395.6953641960589
 20
761.6833208551125
 30
0.0
  0
VERTEX
  5
12A
  8
LAYER_01
 10
395.6953641960589
 20
707.7293813015862
 30
0.0
  0
VERTEX
  5
12B
  8
LAYER_01
 10
365.9587789988016
 20
707.7293813015862
 30
0.0
  0
VERTEX
  5
12C
  8
LAYER_01
 10
365.9587789988016
 20
729.5363365125424
 30
0.0
  0
SEQEND
  5
12D
  8
LAYER_01
  0
POLYLINE
  5
12E
  8
LAYER_01
 66
     1
 10
0.0
 20
0.0
 30
0.0
 70
     1
  0
VERTEX
  5
12F
  8
LAYER_01
 10
390.2769883456509
 20
971.8398057183258
 30
0.0
  0
VERTEX
  5
130
  8
LAYER_01
 10
390.2769883456509
 20
1003.903618407116
 30
0.0
  0
VERTEX
  5
131
  8
LAYER_01
 10
441.5956596269094
 20
1003.903618407115
 30
0.0
  0
VERTEX
  5
132
  8
LAYER_01
 10
441.5956596269094
 20
856.9444769168299
 30
0.0
  0
VERTEX
  5
133
  8
LAYER_01
 10
390.2769883456509
 20
856.9444769168299
 30
0.0
  0
VERTEX
  5
134
  8
LAYER_01
 10
390.2769883456509
 20
889.0082896056194
 30
0.0
  0
VERTEX
  5
135
  8
LAYER_01
 10
410.1998430358029
 20
889.0082896056196
 30
0.0
  0
VERTEX
  5
136
  8
LAYER_01
 10
410.1998430358029
 20
971.8398057183259
 30
0.0
  0
SEQEND
  5
137
  8
LAYER_01
  0
POLYLINE
  5
138
  8
LAYER_01
 66
     1
 10
0.0
 20
0.0
 30
0.0
 70
     1
  0
VERTEX
  5
139
  8
LAYER_01
 10
369.3350528367912
 20
889.0082896056196
 30
0.0
  0
VERTEX
  5
13A
  8
LAYER_01
 10
369.3350528367911
 20
856.9444769168299
 30
0.0
  0
VERTEX
  5
13B
  8
LAYER_01
 10
318.0163815555327
 20
856.9444769168299
 30
0.0
  0
VERTEX
  5
13C
  8
LAYER_01
 10
318.0163815555327
 20
1003.903618407115
 30
0.0
  0
VERTEX
  5
13D
  8
LAYER_01
 10
369.3350528367912
 20
1003.903618407116
 30
0.0
  0
VERTEX
  5
13E
  8
LAYER_01
 10
369.3350528367912
 20
971.8398057183258
 30
0.0
  0
VERTEX
  5
13F
  8
LAYER_01
 10
349.4121981466392
 20
971.8398057183259
 30
0.0
  0
VERTEX
  5
140
  8
LAYER_01
 10
349.4121981466392
 20
889.0082896056196
 30
0.0
  0
SEQEND
  5
141
  8
LAYER_01
  0
POLYLINE
  5
142
  8
LAYER_01
 66
     1
 10
0.0
 20
0.0
 30
0.0
 70
     1
  0
VERTEX
  5
143
  8
LAYER_01
 10
556.1418396625335
 20
771.4735416009945
 30
0.0
  0
VERTEX
  5
144
  8
LAYER_01
 10
556.1418396625335
 20
803.96520579035
 30
0.0
  0
VERTEX
  5
145
  8
LAYER_01
 10
530.170151384614
 20
803.96520579035
 30
0.0
  0
VERTEX
  5
146
  8
LAYER_01
 10
530.170151384614
 20
735.7624702188552
 30
0.0
  0
VERTEX
  5
147
  8
LAYER_01
 10
667.0625916828144
 20
735.7624702188552
 30
0.0
  0
VERTEX
  5
148
  8
LAYER_01
 10
667.0625916828144
 20
849.9837909577882
 30
0.0
  0
VERTEX
  5
149
  8
LAYER_01
 10
639.467672887525
 20
849.9837909577884
 30
0.0
  0
VERTEX
  5
14A
  8
LAYER_01
 10
639.467672887525
 20
771.4735416009945
 30
0.0
  0
SEQEND
  5
14B
  8
LAYER_01
  0
POLYLINE
  5
14C
  8
LAYER_01
 66
     1
 10
0.0
 20
0.0
 30
0.0
 70
     1
  0
VERTEX
  5
14D
  8
LAYER_01
 10
810.208603874998
 20
726.2226711302151
 30
0.0
  0
VERTEX
  5
14E
  8
LAYER_01
 10
810.2086038749978
 20
817.0268453034811
 30
0.0
  0
VERTEX
  5
14F
  8
LAYER_01
 10
846.3958228755655
 20
817.0268453034811
 30
0.0
  0
VERTEX
  5
150
  8
LAYER_01
 10
846.3958228755656
 20
766.9332925058538
 30
0.0
  0
VERTEX
  5
151
  8
LAYER_01
 10
895.9205859605233
 20
766.9332925058538
 30
0.0
  0
VERTEX
  5
152
  8
LAYER_01
 10
895.9205859605233
 20
778.7826399142297
 30
0.0
  0
VERTEX
  5
153
  8
LAYER_01
 10
925.4579706082656
 20
778.7826399142295
 30
0.0
  0
VERTEX
  5
154
  8
LAYER_01
 10
925.4579706082656
 20
726.2226711302151
 30
0.0
  0
SEQEND
  5
155
  8
LAYER_01
  0
POLYLINE
  5
156
  8
LAYER_01
 66
     1
 10
0.0
 20
0.0
 30
0.0
 70
     1
  0
VERTEX
  5
157
  8
LAYER_01
 10
814.5844948836543
 20
887.480807970225
 30
0.0
  0
VERTEX
  5
158
  8
LAYER_01
 10
761.0103616131814
 20
887.4808079702252
 30
0.0
  0
VERTEX
  5
159
  8
LAYER_01
 10
761.0103616131814
 20
1005.292161672433
 30
0.0
  0
VERTEX
  5
15A
  8
LAYER_01
 10
814.5844948836543
 20
1005.292161672433
 30
0.0
  0
SEQEND
  5
15B
  8
LAYER_01
  0
POLYLINE
  5
15C
  8
LAYER_01
 66
     1
 10
0.0
 20
0.0
 30
0.0
 70
     1
  0
VERTEX
  5
15D
  8
LAYER_01
 10
858.3982681912884
 20
887.4808079702251
 30
0.0
  0
VERTEX
  5
15E
  8
LAYER_01
 10
858.3982681912883
 20
1082.144249790224
 30
0.0
  0
VERTEX
  5
15F
  8
LAYER_01
 10
838.8631290580928
 20
1082.144249790224
 30
0.0
  0
VERTEX
  5
160
  8
LAYER_01
 10
838.8631290580928
 20
887.4808079702251
 30
0.0
  0
SEQEND
  5
161
  8
LAYER_01
  0
POLYLINE
  5
162
  8
LAYER_01
 66
     1
 10
0.0
 20
0.0
 30
0.0
 70
     1
  0
VERTEX
  5
163
  8
LAYER_01
 10
893.1340652708102
 20
1082.144249790224
 30
0.0
  0
VERTEX
  5
164
  8
LAYER_01
 10
866.4142213634857
 20
1082.144249790225
 30
0.0
  0
VERTEX
  5
165
  8
LAYER_01
 10
866.4142213634857
 20
887.4808079702251
 30
0.0
  0
VERTEX
  5
166
  8
LAYER_01
 10
893.1340652708104
 20
887.4808079702251
 30
0.0
  0
SEQEND
  5
167
  8
LAYER_01
  0
POLYLINE
  5
168
  8
LAYER_01
 66
     1
 10
0.0
 20
0.0
 30
0.0
 70
     1
  0
VERTEX
  5
169
  8
LAYER_01
 10
1006.752696038386
 20
663.2065873211734
 30
0.0
  0
VERTEX
  5
16A
  8
LAYER_01
 10
1073.545852991309
 20
663.2065873211732
 30
0.0
  0
VERTEX
  5
16B
  8
LAYER_01
 10
1073.545852991309
 20
900.21411164868
 30
0.0
  0
VERTEX
  5
16C
  8
LAYER_01
 10
1043.129291932647
 20
900.2141116486799
 30
0.0
  0
VERTEX
  5
16D
  8
LAYER_01
 10
1043.129291932647
 20
781.4423346927197
 30
0.0
  0
VERTEX
  5
16E
  8
LAYER_01
 10
1006.752696038386
 20
781.4423346927197
 30
0.0
  0
SEQEND
  5
16F
  8
LAYER_01
  0
POLYLINE
  5
170
  8
LAYER_01
 66
     1
 10
0.0
 20
0.0
 30
0.0
 70
     1
  0
VERTEX
  5
171
  8
LAYER_01
 10
1029.104580262571
 20
920.8129069141048
 30
0.0
  0
VERTEX
  5
172
  8
LAYER_01
 10
1073.545852991309
 20
920.812906914105
 30
0.0
  0
VERTEX
  5
173
  8
LAYER_01
 10
1073.545852991309
 20
953.6833248908465
 30
0.0
  0
VERTEX
  5
174
  8
LAYER_01
 10
1008.505784997146
 20
953.6833248908465
 30
0.0
  0
VERTEX
  5
175
  8
LAYER_01
 10
1008.505784997146
 20
834.0350034555065
 30
0.0
  0
VERTEX
  5
176
  8
LAYER_01
 10
1029.104580262571
 20
834.0350034555065
 30
0.0
  0
SEQEND
  5
177
  8
LAYER_01
  0
POLYLINE
  5
178
  8
LAYER_01
 66
     1
 10
0.0
 20
0.0
 30
0.0
 70
     1
  0
VERTEX
  5
179
  8
LAYER_01
 10
623.4016684755102
 20
1114.248325935574
 30
0.0
  0
VERTEX
  5
17A
  8
LAYER_01
 10
639.8577655415367
 20
1114.248325935574
 30
0.0
  0
VERTEX
  5
17B
  8
LAYER_01
 10
639.8577655415367
 20
1024.139116554521
 30
0.0
  0
VERTEX
  5
17C
  8
LAYER_01
 10
623.4016684755102
 20
1024.139116554521
 30
0.0
  0
SEQEND
  5
17D
  8
LAYER_01
  0
POLYLINE
  5
17E
  8
LAYER_01
 66
     1
 10
0.0
 20
0.0
 30
0.0
 70
     1
  0
VERTEX
  5
17F
  8
LAYER_01
 10
652.5498228123881
 20
1024.139116554521
 30
0.0
  0
VERTEX
  5
180
  8
LAYER_01
 10
652.5498228123881
 20
1114.248325935574
 30
0.0
  0
VERTEX
  5
181
  8
LAYER_01
 10
681.5525759283149
 20
1114.248325935574
 30
0.0
  0
VERTEX
  5
182
  8
LAYER_01
 10
681.5525759283149
 20
1024.139116554521
 30
0.0
  0
SEQEND
  5
183
  8
LAYER_01
  0
POLYLINE
  5
184
  8
LAYER_01
 66
     1
 10
0.0
 20
0.0
 30
0.0
 70
     1
  0
VERTEX
  5
185
  8
LAYER_01
 10
743.488262150541
 20
1114.248325935574
 30
0.0
  0
VERTEX
  5
186
  8
LAYER_01
 10
743.4882621505407
 20
1178.397212305476
 30
0.0
  0
VERTEX
  5
187
  8
LAYER_01
 10
767.7254883872458
 20
1178.397212305476
 30
0.0
  0
VERTEX
  5
188
  8
LAYER_01
 10
767.7254883872456
 20
1079.867129053499
 30
0.0
  0
VERTEX
  5
189
  8
LAYER_01
 10
694.2446331991664
 20
1079.867129053499
 30
0.0
  0
VERTEX
  5
18A
  8
LAYER_01
 10
694.2446331991664
 20
1114.248325935574
 30
0.0
  0
SEQEND
  5
18B
  8
LAYER_01
  0
POLYLINE
  5
18C
  8
LAYER_01
 66
     1
 10
0.0
 20
0.0
 30
0.0
 70
     1
  0
VERTEX
  5
18D
  8
LAYER_01
 10
785.519779590895
 20
1062.07283784985
 30
0.0
  0
VERTEX
  5
18E
  8
LAYER_01
 10
785.5197795908948
 20
1178.397212305476
 30
0.0
  0
VERTEX
  5
18F
  8
LAYER_01
 10
814.5844948836543
 20
1178.397212305476
 30
0.0
  0
VERTEX
  5
190
  8
LAYER_01
 10
814.5844948836543
 20
1024.139116554521
 30
0.0
  0
VERTEX
  5
191
  8
LAYER_01
 10
694.2446331991664
 20
1024.139116554521
 30
0.0
  0
VERTEX
  5
192
  8
LAYER_01
 10
694.2446331991664
 20
1062.07283784985
 30
0.0
  0
SEQEND
  5
193
  8
LAYER_01
  0
POLYLINE
  5
194
  8
LAYER_01
 66
     1
 10
0.0
 20
0.0
 30
0.0
 70
     1
  0
VERTEX
  5
195
  8
LAYER_01
 10
608.7547184404416
 20
1024.139116554521
 30
0.0
  0
VERTEX
  5
196
  8
LAYER_01
 10
529.0170425178592
 20
1024.139116554521
 30
0.0
  0
VERTEX
  5
197
  8
LAYER_01
 10
529.0170425178592
 20
1041.073094212535
 30
0.0
  0
VERTEX
  5
198
  8
LAYER_01
 10
583.865183840769
 20
1041.073094212535
 30
0.0
  0
VERTEX
  5
199
  8
LAYER_01
 10
583.865183840769
 20
1054.058938351495
 30
0.0
  0
VERTEX
  5
19A
  8
LAYER_01
 10
608.7547184404418
 20
1054.058938351495
 30
0.0
  0
SEQEND
  5
19B
  8
LAYER_01
  0
POLYLINE
  5
19C
  8
LAYER_01
 66
     1
 10
0.0
 20
0.0
 30
0.0
 70
     1
  0
VERTEX
  5
19D
  8
LAYER_01
 10
938.1925818791449
 20
1082.144249790224
 30
0.0
  0
VERTEX
  5
19E
  8
LAYER_01
 10
909.1659716152051
 20
1082.144249790224
 30
0.0
  0
VERTEX
  5
19F
  8
LAYER_01
 10
909.1659716152051
 20
887.4808079702251
 30
0.0
  0
VERTEX
  5
1A0
  8
LAYER_01
 10
996.2341622858287
 20
887.4808079702251
 30
0.0
  0
VERTEX
  5
1A1
  8
LAYER_01
 10
996.2341622858287
 20
968.5845810403029
 30
0.0
  0
VERTEX
  5
1A2
  8
LAYER_01
 10
1073.545852991309
 20
968.584581040303
 30
0.0
  0
VERTEX
  5
1A3
  8
LAYER_01
 10
1073.545852991309
 20
1082.144249790224
 30
0.0
  0
VERTEX
  5
1A4
  8
LAYER_01
 10
1033.42210556485
 20
1082.144249790224
 30
0.0
  0
VERTEX
  5
1A5
  8
LAYER_01
 10
1033.42210556485
 20
1010.311743003468
 30
0.0
  0
VERTEX
  5
1A6
  8
LAYER_01
 10
997.7110341827104
 20
1010.311743003468
 30
0.0
  0
VERTEX
  5
1A7
  8
LAYER_01
 10
997.7110341827104
 20
1082.144249790224
 30
0.0
  0
VERTEX
  5
1A8
  8
LAYER_01
 10
963.6231933179411
 20
1082.144249790224
 30
0.0
  0
VERTEX
  5
1A9
  8
LAYER_01
 10
963.6231933179411
 20
972.4363642648354
 30
0.0
  0
VERTEX
  5
1AA
  8
LAYER_01
 10
938.1925818791449
 20
972.4363642648354
 30
0.0
  0
SEQEND
  5
1AB
  8
LAYER_01
  0
POLYLINE
  5
1AC
  8
LAYER_01
 66
     1
 10
0.0
 20
0.0
 30
0.0
 70
     1
  0
VERTEX
  5
1AD
  8
LAYER_01
 10
1073.545852991309
 20
1178.397212305476
 30
0.0
  0
VERTEX
  5
1AE
  8
LAYER_01
 10
838.8631290580928
 20
1178.397212305476
 30
0.0
  0
VERTEX
  5
1AF
  8
LAYER_01
 10
838.8631290580928
 20
1109.358905621759
 30
0.0
  0
VERTEX
  5
1B0
  8
LAYER_01
 10
1073.545852991309
 20
1109.358905621759
 30
0.0
  0
SEQEND
  5
1B1
  8
LAYER_01
  0
POLYLINE
  5
1B2
  8
LAYER_01
 66
     1
 10
0.0
 20
0.0
 30
0.0
 70
     1
  0
VERTEX
  5
1B3
  8
LAYER_01
 10
218.2840677791418
 20
1052.366519318589
 30
0.0
  0
VERTEX
  5
1B4
  8
LAYER_01
 10
201.8878470509413
 20
1052.366519318589
 30
0.0
  0
VERTEX
  5
1B5
  8
LAYER_01
 10
201.8878470509413
 20
1085.14726679509
 30
0.0
  0
VERTEX
  5
1B6
  8
LAYER_01
 10
218.2840677791418
 20
1085.14726679509
 30
0.0
  0
SEQEND
  5
1B7
  8
LAYER_01
  0
POLYLINE
  5
1B8
  8
LAYER_01
 66
     1
 10
0.0
 20
0.0
 30
0.0
 70
     1
  0
VERTEX
  5
1B9
  8
LAYER_01
 10
157.9297729603423
 20
1001.407159711454
 30
0.0
  0
VERTEX
  5
1BA
  8
LAYER_01
 10
157.9297729603422
 20
971.819802627825
 30
0.0
  0
VERTEX
  5
1BB
  8
LAYER_01
 10
139.9363985677819
 20
971.819802627825
 30
0.0
  0
VERTEX
  5
1BC
  8
LAYER_01
 10
139.9363985677819
 20
1135.20439087956
 30
0.0
  0
VERTEX
  5
1BD
  8
LAYER_01
 10
186.781234499128
 20
1135.20439087956
 30
0.0
  0
VERTEX
  5
1BE
  8
LAYER_01
 10
186.7812344991281
 20
1102.112741366262
 30
0.0
  0
VERTEX
  5
1BF
  8
LAYER_01
 10
157.3233794895073
 20
1102.112741366262
 30
0.0
  0
VERTEX
  5
1C0
  8
LAYER_01
 10
157.3233794895073
 20
1035.401044747417
 30
0.0
  0
VERTEX
  5
1C1
  8
LAYER_01
 10
186.7812344991281
 20
1035.401044747417
 30
0.0
  0
VERTEX
  5
1C2
  8
LAYER_01
 10
186.781234499128
 20
1001.407159711454
 30
0.0
  0
SEQEND
  5
1C3
  8
LAYER_01
  0
POLYLINE
  5
1C4
  8
LAYER_01
 66
     1
 10
0.0
 20
0.0
 30
0.0
 70
     1
  0
VERTEX
  5
1C5
  8
LAYER_01
 10
73.5458529913089
 20
1178.397212305476
 30
0.0
  0
VERTEX
  5
1C6
  8
LAYER_01
 10
119.3476252739001
 20
1178.397212305476
 30
0.0
  0
VERTEX
  5
1C7
  8
LAYER_01
 10
119.3476252739001
 20
875.5938142201344
 30
0.0
  0
VERTEX
  5
1C8
  8
LAYER_01
 10
73.5458529913089
 20
875.5938142201344
 30
0.0
  0
VERTEX
  5
1C9
  8
LAYER_01
 10
73.54585299130889
 20
895.4975813360179
 30
0.0
  0
VERTEX
  5
1CA
  8
LAYER_01
 10
101.2552438261256
 20
895.4975813360179
 30
0.0
  0
VERTEX
  5
1CB
  8
LAYER_01
 10
101.2552438261256
 20
1119.793303039468
 30
0.0
  0
VERTEX
  5
1CC
  8
LAYER_01
 10
73.54585299130889
 20
1119.793303039468
 30
0.0
  0
SEQEND
  5
1CD
  8
LAYER_01
  0
POLYLINE
  5
1CE
  8
LAYER_01
 66
     1
 10
0.0
 20
0.0
 30
0.0
 70
     1
  0
VERTEX
  5
1CF
  8
LAYER_01
 10
139.9363985677819
 20
858.8134432884784
 30
0.0
  0
VERTEX
  5
1D0
  8
LAYER_01
 10
165.4879153529186
 20
858.8134432884785
 30
0.0
  0
VERTEX
  5
1D1
  8
LAYER_01
 10
165.4879153529186
 20
832.2310047890154
 30
0.0
  0
VERTEX
  5
1D2
  8
LAYER_01
 10
226.5480037865143
 20
832.2310047890154
 30
0.0
  0
VERTEX
  5
1D3
  8
LAYER_01
 10
226.5480037865144
 20
858.8134432884784
 30
0.0
  0
VERTEX
  5
1D4
  8
LAYER_01
 10
255.9969764787438
 20
858.8134432884784
 30
0.0
  0
VERTEX
  5
1D5
  8
LAYER_01
 10
255.9969764787438
 20
797.5448952632273
 30
0.0
  0
VERTEX
  5
1D6
  8
LAYER_01
 10
139.9363985677819
 20
797.5448952632273
 30
0.0
  0
SEQEND
  5
1D7
  8
LAYER_01
  0
POLYLINE
  5
1D8
  8
LAYER_01
 66
     1
 10
0.0
 20
0.0
 30
0.0
 70
     1
  0
VERTEX
  5
1D9
  8
LAYER_01
 10
165.4879153529186
 20
886.9933841016114
 30
0.0
  0
VERTEX
  5
1DA
  8
LAYER_01
 10
139.9363985677819
 20
886.9933841016111
 30
0.0
  0
VERTEX
  5
1DB
  8
LAYER_01
 10
139.9363985677819
 20
946.341026022141
 30
0.0
  0
VERTEX
  5
1DC
  8
LAYER_01
 10
255.9969764787438
 20
946.341026022141
 30
0.0
  0
VERTEX
  5
1DD
  8
LAYER_01
 10
255.9969764787438
 20
886.9933841016112
 30
0.0
  0
VERTEX
  5
1DE
  8
LAYER_01
 10
226.5480037865144
 20
886.9933841016112
 30
0.0
  0
VERTEX
  5
1DF
  8
LAYER_01
 10
226.5480037865143
 20
913.8811230432423
 30
0.0
  0
VERTEX
  5
1E0
  8
LAYER_01
 10
165.4879153529186
 20
913.8811230432423
 30
0.0
  0
SEQEND
  5
1E1
  8
LAYER_01
  0
POLYLINE
  5
1E2
  8
LAYER_01
 66
     1
 10
0.0
 20
0.0
 30
0.0
 70
     1
  0
VERTEX
  5
1E3
  8
LAYER_01
 10
73.5458529913089
 20
724.1747902172661
 30
0.0
  0
VERTEX
  5
1E4
  8
LAYER_01
 10
73.5458529913089
 20
834.4741046662773
 30
0.0
  0
VERTEX
  5
1E5
  8
LAYER_01
 10
119.3476252739001
 20
834.4741046662774
 30
0.0
  0
VERTEX
  5
1E6
  8
LAYER_01
 10
119.3476252739001
 20
724.174790217266
 30
0.0
  0
SEQEND
  5
1E7
  8
LAYER_01
  0
POLYLINE
  5
1E8
  8
LAYER_01
 66
     1
 10
0.0
 20
0.0
 30
0.0
 70
     1
  0
VERTEX
  5
1E9
  8
LAYER_01
 10
73.5458529913089
 20
524.465293388215
 30
0.0
  0
VERTEX
  5
1EA
  8
LAYER_01
 10
73.54585299130892
 20
496.6443791427812
 30
0.0
  0
VERTEX
  5
1EB
  8
LAYER_01
 10
159.7162892377922
 20
496.6443791427812
 30
0.0
  0
VERTEX
  5
1EC
  8
LAYER_01
 10
159.7162892377922
 20
629.4408677688185
 30
0.0
  0
VERTEX
  5
1ED
  8
LAYER_01
 10
146.1298498074056
 20
629.4408677688185
 30
0.0
  0
VERTEX
  5
1EE
  8
LAYER_01
 10
146.1298498074056
 20
680.2804475728458
 30
0.0
  0
VERTEX
  5
1EF
  8
LAYER_01
 10
73.5458529913089
 20
680.2804475728458
 30
0.0
  0
VERTEX
  5
1F0
  8
LAYER_01
 10
73.5458529913089
 20
653.241581099566
 30
0.0
  0
VERTEX
  5
1F1
  8
LAYER_01
 10
132.3747438364135
 20
653.241581099566
 30
0.0
  0
VERTEX
  5
1F2
  8
LAYER_01
 10
132.3747438364135
 20
524.465293388215
 30
0.0
  0
SEQEND
  5
1F3
  8
LAYER_01
  0
POLYLINE
  5
1F4
  8
LAYER_01
 66
     1
 10
0.0
 20
0.0
 30
0.0
 70
     1
  0
VERTEX
  5
1F5
  8
LAYER_01
 10
73.5458529913089
 20
72.14721230547596
 30
0.0
  0
VERTEX
  5
1F6
  8
LAYER_01
 10
73.54585299130889
 20
372.6544612344275
 30
0.0
  0
VERTEX
  5
1F7
  8
LAYER_01
 10
133.3731604863995
 20
372.6544612344275
 30
0.0
  0
VERTEX
  5
1F8
  8
LAYER_01
 10
133.3731604863995
 20
346.6190337584908
 30
0.0
  0
VERTEX
  5
1F9
  8
LAYER_01
 10
100.1334100962718
 20
346.6190337584908
 30
0.0
  0
VERTEX
  5
1FA
  8
LAYER_01
 10
100.1334100962718
 20
91.93884155582599
 30
0.0
  0
VERTEX
  5
1FB
  8
LAYER_01
 10
146.3065905195475
 20
91.93884155582599
 30
0.0
  0
VERTEX
  5
1FC
  8
LAYER_01
 10
146.3065905195476
 20
72.14721230547596
 30
0.0
  0
SEQEND
  5
1FD
  8
LAYER_01
  0
POLYLINE
  5
1FE
  8
LAYER_01
 66
     1
 10
0.0
 20
0.0
 30
0.0
 70
     1
  0
VERTEX
  5
1FF
  8
LAYER_01
 10
73.54585299130892
 20
399.1672263514703
 30
0.0
  0
VERTEX
  5
200
  8
LAYER_01
 10
73.54585299130889
 20
429.9152990414599
 30
0.0
  0
VERTEX
  5
201
  8
LAYER_01
 10
184.4538555499288
 20
429.9152990414599
 30
0.0
  0
VERTEX
  5
202
  8
LAYER_01
 10
184.4538555499288
 20
628.7502266034239
 30
0.0
  0
VERTEX
  5
203
  8
LAYER_01
 10
207.1003537936571
 20
628.7502266034239
 30
0.0
  0
VERTEX
  5
204
  8
LAYER_01
 10
207.1003537936571
 20
399.1672263514703
 30
0.0
  0
SEQEND
  5
205
  8
LAYER_01
  0
POLYLINE
  5
206
  8
LAYER_01
 66
     1
 10
0.0
 20
0.0
 30
0.0
 70
     1
  0
VERTEX
  5
207
  8
LAYER_01
 10
207.1003537936571
 20
72.14721230547596
 30
0.0
  0
VERTEX
  5
208
  8
LAYER_01
 10
160.824118202597
 20
72.14721230547596
 30
0.0
  0
VERTEX
  5
209
  8
LAYER_01
 10
160.824118202597
 20
91.93884155582597
 30
0.0
  0
VERTEX
  5
20A
  8
LAYER_01
 10
185.9976284924596
 20
91.93884155582599
 30
0.0
  0
VERTEX
  5
20B
  8
LAYER_01
 10
185.9976284924596
 20
346.6190337584908
 30
0.0
  0
VERTEX
  5
20C
  8
LAYER_01
 10
143.9905533060794
 20
346.6190337584908
 30
0.0
  0
VERTEX
  5
20D
  8
LAYER_01
 10
143.9905533060795
 20
372.6544612344276
 30
0.0
  0
VERTEX
  5
20E
  8
LAYER_01
 10
207.1003537936571
 20
372.6544612344276
 30
0.0
  0
SEQEND
  5
20F
  8
LAYER_01
  0
POLYLINE
  5
210
  8
LAYER_01
 66
     1
 10
0.0
 20
0.0
 30
0.0
 70
     1
  0
VERTEX
  5
211
  8
LAYER_01
 10
133.3731604863995
 20
272.5647200747855
 30
0.0
  0
VERTEX
  5
212
  8
LAYER_01
 10
133.3731604863995
 20
300.1613979364259
 30
0.0
  0
VERTEX
  5
213
  8
LAYER_01
 10
111.7274307610838
 20
300.1613979364259
 30
0.0
  0
VERTEX
  5
214
  8
LAYER_01
 10
111.7274307610838
 20
272.5647200747855
 30
0.0
  0
SEQEND
  5
215
  8
LAYER_01
  0
POLYLINE
  5
216
  8
LAYER_01
 66
     1
 10
0.0
 20
0.0
 30
0.0
 70
     1
  0
VERTEX
  5
217
  8
LAYER_01
 10
133.3731604863995
 20
211.3083192501197
 30
0.0
  0
VERTEX
  5
218
  8
LAYER_01
 10
111.7274307610838
 20
211.3083192501196
 30
0.0
  0
VERTEX
  5
219
  8
LAYER_01
 10
111.7274307610838
 20
183.7116413884792
 30
0.0
  0
VERTEX
  5
21A
  8
LAYER_01
 10
133.3731604863995
 20
183.7116413884792
 30
0.0
  0
SEQEND
  5
21B
  8
LAYER_01
  0
POLYLINE
  5
21C
  8
LAYER_01
 66
     1
 10
0.0
 20
0.0
 30
0.0
 70
     1
  0
VERTEX
  5
21D
  8
LAYER_01
 10
133.3731604863995
 20
142.5919318346222
 30
0.0
  0
VERTEX
  5
21E
  8
LAYER_01
 10
133.3731604863995
 20
170.1886096962627
 30
0.0
  0
VERTEX
  5
21F
  8
LAYER_01
 10
111.7274307610838
 20
170.1886096962627
 30
0.0
  0
VERTEX
  5
220
  8
LAYER_01
 10
111.7274307610838
 20
142.5919318346222
 30
0.0
  0
SEQEND
  5
221
  8
LAYER_01
  0
POLYLINE
  5
222
  8
LAYER_01
 66
     1
 10
0.0
 20
0.0
 30
0.0
 70
     1
  0
VERTEX
  5
223
  8
LAYER_01
 10
1073.545852991309
 20
72.14721230547596
 30
0.0
  0
VERTEX
  5
224
  8
LAYER_01
 10
954.6637398136907
 20
72.14721230547602
 30
0.0
  0
VERTEX
  5
225
  8
LAYER_01
 10
954.6637398136907
 20
143.9845233941672
 30
0.0
  0
VERTEX
  5
226
  8
LAYER_01
 10
980.8217586946059
 20
143.9845233941673
 30
0.0
  0
VERTEX
  5
227
  8
LAYER_01
 10
980.8217586946058
 20
106.7281906671755
 30
0.0
  0
VERTEX
  5
228
  8
LAYER_01
 10
1048.456363585022
 20
106.7281906671755
 30
0.0
  0
VERTEX
  5
229
  8
LAYER_01
 10
1048.456363585022
 20
143.9845233941672
 30
0.0
  0
VERTEX
  5
22A
  8
LAYER_01
 10
1073.545852991309
 20
143.9845233941672
 30
0.0
  0
SEQEND
  5
22B
  8
LAYER_01
  0
POLYLINE
  5
22C
  8
LAYER_01
 66
     1
 10
0.0
 20
0.0
 30
0.0
 70
     1
  0
VERTEX
  5
22D
  8
LAYER_01
 10
410.6028995088333
 20
819.6053043304214
 30
0.0
  0
VERTEX
  5
22E
  8
LAYER_01
 10
440.6627239045736
 20
819.6053043304214
 30
0.0
  0
VERTEX
  5
22F
  8
LAYER_01
 10
440.6627239045736
 20
663.6258521895031
 30
0.0
  0
VERTEX
  5
230
  8
LAYER_01
 10
410.6028995088334
 20
663.6258521895031
 30
0.0
  0
SEQEND
  5
231
  8
LAYER_01
  0
POLYLINE
  5
232
  8
LAYER_01
 66
     1
 10
0.0
 20
0.0
 30
0.0
 70
     1
  0
VERTEX
  5
233
  8
LAYER_01
 10
810.2086038749981
 20
830.9210395005781
 30
0.0
  0
VERTEX
  5
234
  8
LAYER_01
 10
810.208603874998
 20
866.9026493022789
 30
0.0
  0
VERTEX
  5
235
  8
LAYER_01
 10
925.4579706082656
 20
866.9026493022789
 30
0.0
  0
VERTEX
  5
236
  8
LAYER_01
 10
925.4579706082654
 20
797.4734169841645
 30
0.0
  0
VERTEX
  5
237
  8
LAYER_01
 10
895.9205859605233
 20
797.4734169841647
 30
0.0
  0
VERTEX
  5
238
  8
LAYER_01
 10
895.9205859605233
 20
830.9210395005779
 30
0.0
  0
SEQEND
  5
239
  8
LAYER_01
  0
POLYLINE
  5
23A
  8
LAYER_01
 66
     1
 10
0.0
 20
0.0
 30
0.0
 70
     1
  0
VERTEX
  5
23B
  8
LAYER_01
 10
835.9177820284781
 20
386.5076161644938
 30
0.0
  0
VERTEX
  5
23C
  8
LAYER_01
 10
835.9177820284781
 20
334.1513685885751
 30
0.0
  0
VERTEX
  5
23D
  8
LAYER_01
 10
878.8070553088123
 20
334.1513685885751
 30
0.0
  0
VERTEX
  5
23E
  8
LAYER_01
 10
878.8070553088123
 20
386.5076161644938
 30
0.0
  0
SEQEND
  5
23F
  8
LAYER_01
  0
POLYLINE
  5
240
  8
LAYER_01
 66
     1
 10
0.0
 20
0.0
 30
0.0
 70
     1
  0
VERTEX
  5
241
  8
LAYER_01
 10
835.1721211098635
 20
483.9810872766093
 30
0.0
  0
VERTEX
  5
242
  8
LAYER_01
 10
835.1721211098635
 20
524.4809525846831
 30
0.0
  0
VERTEX
  5
243
  8
LAYER_01
 10
986.6330879580294
 20
524.4809525846831
 30
0.0
  0
VERTEX
  5
244
  8
LAYER_01
 10
986.6330879580296
 20
272.0780497945387
 30
0.0
  0
VERTEX
  5
245
  8
LAYER_01
 10
954.6637398136907
 20
272.0780497945387
 30
0.0
  0
VERTEX
  5
246
  8
LAYER_01
 10
954.6637398136907
 20
483.9810872766094
 30
0.0
  0
SEQEND
  5
247
  8
LAYER_01
  0
POLYLINE
  5
248
  8
LAYER_01
 66
     1
 10
0.0
 20
0.0
 30
0.0
 70
     1
  0
VERTEX
  5
249
  8
LAYER_01
 10
835.1721211098635
 20
556.9455629320823
 30
0.0
  0
VERTEX
  5
24A
  8
LAYER_01
 10
835.1721211098635
 20
595.7985790566169
 30
0.0
  0
VERTEX
  5
24B
  8
LAYER_01
 10
1042.945627333221
 20
595.7985790566169
 30
0.0
  0
VERTEX
  5
24C
  8
LAYER_01
 10
1042.945627333221
 20
272.0780497945387
 30
0.0
  0
VERTEX
  5
24D
  8
LAYER_01
 10
1009.694210029093
 20
272.0780497945387
 30
0.0
  0
VERTEX
  5
24E
  8
LAYER_01
 10
1009.694210029093
 20
556.9455629320826
 30
0.0
  0
SEQEND
  5
24F
  8
LAYER_01
  0
POLYLINE
  5
250
  8
LAYER_01
 66
     1
 10
0.0
 20
0.0
 30
0.0
 70
     1
  0
VERTEX
  5
251
  8
LAYER_01
 10
790.444681067233
 20
556.0383853424913
 30
0.0
  0
VERTEX
  5
252
  8
LAYER_01
 10
790.444681067233
 20
518.0533303285682
 30
0.0
  0
VERTEX
  5
253
  8
LAYER_01
 10
814.9397165435012
 20
518.0533303285682
 30
0.0
  0
VERTEX
  5
254
  8
LAYER_01
 10
814.9397165435012
 20
556.0383853424913
 30
0.0
  0
SEQEND
  5
255
  8
LAYER_01
  0
POLYLINE
  5
256
  8
LAYER_01
 66
     1
 10
0.0
 20
0.0
 30
0.0
 70
     1
  0
VERTEX
  5
257
  8
LAYER_01
 10
721.5745813223631
 20
562.7833951113188
 30
0.0
  0
VERTEX
  5
258
  8
LAYER_01
 10
721.5745813223631
 20
503.8533097626158
 30
0.0
  0
VERTEX
  5
259
  8
LAYER_01
 10
765.9496455909649
 20
503.8533097626158
 30
0.0
  0
VERTEX
  5
25A
  8
LAYER_01
 10
765.9496455909649
 20
562.7833951113188
 30
0.0
  0
SEQEND
  5
25B
  8
LAYER_01
  0
POLYLINE
  5
25C
  8
LAYER_01
 66
     1
 10
0.0
 20
0.0
 30
0.0
 70
     1
  0
VERTEX
  5
25D
  8
LAYER_01
 10
814.789953578847
 20
588.439989091357
 30
0.0
  0
VERTEX
  5
25E
  8
LAYER_01
 10
814.789953578847
 20
623.5192032259658
 30
0.0
  0
VERTEX
  5
25F
  8
LAYER_01
 10
675.7332059241521
 20
623.5192032259658
 30
0.0
  0
VERTEX
  5
260
  8
LAYER_01
 10
675.7332059241521
 20
471.0263150015955
 30
0.0
  0
VERTEX
  5
261
  8
LAYER_01
 10
701.1638173629485
 20
471.0263150015955
 30
0.0
  0
VERTEX
  5
262
  8
LAYER_01
 10
701.1638173629485
 20
588.439989091357
 30
0.0
  0
SEQEND
  5
263
  8
LAYER_01
  0
POLYLINE
  5
264
  8
LAYER_01
 66
     1
 10
0.0
 20
0.0
 30
0.0
 70
     1
  0
VERTEX
  5
265
  8
LAYER_01
 10
494.1870037773899
 20
623.5192032259658
 30
0.0
  0
VERTEX
  5
266
  8
LAYER_01
 10
494.1870037773899
 20
587.2329954505867
 30
0.0
  0
VERTEX
  5
267
  8
LAYER_01
 10
622.0134175315668
 20
587.2329954505867
 30
0.0
  0
VERTEX
  5
268
  8
LAYER_01
 10
622.0134175315668
 20
623.5192032259658
 30
0.0
  0
SEQEND
  5
269
  8
LAYER_01
  0
POLYLINE
  5
26A
  8
LAYER_01
 66
     1
 10
0.0
 20
0.0
 30
0.0
 70
     1
  0
VERTEX
  5
26B
  8
LAYER_01
 10
426.5974206124547
 20
1099.88092317434
 30
0.0
  0
VERTEX
  5
26C
  8
LAYER_01
 10
426.5974206124547
 20
1041.985701388144
 30
0.0
  0
VERTEX
  5
26D
  8
LAYER_01
 10
500.1838707332269
 20
1041.985701388144
 30
0.0
  0
VERTEX
  5
26E
  8
LAYER_01
 10
500.1838707332269
 20
1099.88092317434
 30
0.0
  0
SEQEND
  5
26F
  8
LAYER_01
  0
POLYLINE
  5
270
  8
LAYER_01
 66
     1
 10
0.0
 20
0.0
 30
0.0
 70
     1
  0
VERTEX
  5
271
  8
LAYER_01
 10
175.090679260644
 20
901.3709049246381
 30
0.0
  0
VERTEX
  5
272
  8
LAYER_01
 10
175.090679260644
 20
846.7363257971359
 30
0.0
  0
VERTEX
  5
273
  8
LAYER_01
 10
219.0858929791063
 20
846.7363257971359
 30
0.0
  0
VERTEX
  5
274
  8
LAYER_01
 10
219.0858929791063
 20
901.3709049246381
 30
0.0
  0
SEQEND
  5
275
  8
LAYER_01
  0
POLYLINE
  5
276
  8
LAYER_01
 66
     1
 10
0.0
 20
0.0
 30
0.0
 70
     1
  0
VERTEX
  5
277
  8
LAYER_01
 10
141.5880688777675
 20
1168.491745985941
 30
0.0
  0
VERTEX
  5
278
  8
LAYER_01
 10
141.5880688777675
 20
1148.870915849006
 30
0.0
  0
VERTEX
  5
279
  8
LAYER_01
 10
179.592946055399
 20
1148.870915849006
 30
0.0
  0
VERTEX
  5
27A
  8
LAYER_01
 10
179.592946055399
 20
1168.491745985941
 30
0.0
  0
SEQEND
  5
27B
  8
LAYER_01
  0
POLYLINE
  5
27C
  8
LAYER_01
 66
     1
 10
0.0
 20
0.0
 30
0.0
 70
     1
  0
VERTEX
  5
27D
  8
LAYER_01
 10
189.8016472057059
 20
1168.491745985941
 30
0.0
  0
VERTEX
  5
27E
  8
LAYER_01
 10
189.8016472057059
 20
1148.870915849006
 30
0.0
  0
VERTEX
  5
27F
  8
LAYER_01
 10
200.5553714153722
 20
1148.870915849006
 30
0.0
  0
VERTEX
  5
280
  8
LAYER_01
 10
200.5553714153722
 20
1168.491745985941
 30
0.0
  0
SEQEND
  5
281
  8
LAYER_01
  0
POLYLINE
  5
282
  8
LAYER_01
 66
     1
 10
0.0
 20
0.0
 30
0.0
 70
     1
  0
VERTEX
  5
283
  8
LAYER_01
 10
211.8750811097577
 20
1168.491745985941
 30
0.0
  0
VERTEX
  5
284
  8
LAYER_01
 10
211.8750811097577
 20
1148.870915849006
 30
0.0
  0
VERTEX
  5
285
  8
LAYER_01
 10
222.6288053194239
 20
1148.870915849006
 30
0.0
  0
VERTEX
  5
286
  8
LAYER_01
 10
222.6288053194239
 20
1168.491745985941
 30
0.0
  0
SEQEND
  5
287
  8
LAYER_01
  0
POLYLINE
  5
288
  8
LAYER_01
 66
     1
 10
0.0
 20
0.0
 30
0.0
 70
     1
  0
VERTEX
  5
289
  8
LAYER_01
 10
470.3333878173526
 20
915.1885265331559
 30
0.0
  0
VERTEX
  5
28A
  8
LAYER_01
 10
470.3333878173526
 20
811.301773421478
 30
0.0
  0
VERTEX
  5
28B
  8
LAYER_01
 10
505.9730236042185
 20
811.301773421478
 30
0.0
  0
VERTEX
  5
28C
  8
LAYER_01
 10
505.9730236042185
 20
915.1885265331559
 30
0.0
  0
SEQEND
  5
28D
  8
LAYER_01
  0
POLYLINE
  5
28E
  8
LAYER_01
 66
     1
 10
0.0
 20
0.0
 30
0.0
 70
     1
  0
VERTEX
  5
28F
  8
LAYER_01
 10
708.2352503782658
 20
414.2024906918195
 30
0.0
  0
VERTEX
  5
290
  8
LAYER_01
 10
675.7332059241521
 20
414.2024906918195
 30
0.0
  0
VERTEX
  5
291
  8
LAYER_01
 10
675.7332059241521
 20
123.9240153661046
 30
0.0
  0
VERTEX
  5
292
  8
LAYER_01
 10
928.4465218139732
 20
123.9240153661046
 30
0.0
  0
VERTEX
  5
293
  8
LAYER_01
 10
928.4465218139732
 20
169.898521821923
 30
0.0
  0
VERTEX
  5
294
  8
LAYER_01
 10
708.235250378266
 20
169.898521821923
 30
0.0
  0
SEQEND
  5
295
  8
LAYER_01
  0
POLYLINE
  5
296
  8
LAYER_01
 66
     1
 10
0.0
 20
0.0
 30
0.0
 70
     1
  0
VERTEX
  5
297
  8
LAYER_01
 10
765.9496455909649
 20
414.2024906918195
 30
0.0
  0
VERTEX
  5
298
  8
LAYER_01
 10
731.6458417232525
 20
414.2024906918195
 30
0.0
  0
VERTEX
  5
299
  8
LAYER_01
 10
731.6458417232525
 20
196.3021494706574
 30
0.0
  0
VERTEX
  5
29A
  8
LAYER_01
 10
928.4465218139733
 20
196.3021494706576
 30
0.0
  0
VERTEX
  5
29B
  8
LAYER_01
 10
928.4465218139733
 20
240.196791874912
 30
0.0
  0
VERTEX
  5
29C
  8
LAYER_01
 10
765.9496455909649
 20
240.196791874912
 30
0.0
  0
SEQEND
  5
29D
  8
LAYER_01
  0
POLYLINE
  5
29E
  8
LAYER_01
 66
     1
 10
0.0
 20
0.0
 30
0.0
 70
     1
  0
VERTEX
  5
29F
  8
LAYER_01
 10
790.444681067233
 20
270.9246123683354
 30
0.0
  0
VERTEX
  5
2A0
  8
LAYER_01
 10
928.4465218139733
 20
270.9246123683352
 30
0.0
  0
VERTEX
  5
2A1
  8
LAYER_01
 10
928.4465218139733
 20
302.4644085702778
 30
0.0
  0
VERTEX
  5
2A2
  8
LAYER_01
 10
812.6323538858946
 20
302.4644085702778
 30
0.0
  0
VERTEX
  5
2A3
  8
LAYER_01
 10
812.6323538858946
 20
393.8358943420291
 30
0.0
  0
VERTEX
  5
2A4
  8
LAYER_01
 10
790.444681067233
 20
393.8358943420291
 30
0.0
  0
SEQEND
  5
2A5
  8
LAYER_01
  0
POLYLINE
  5
2A6
  8
LAYER_01
 66
     1
 10
0.0
 20
0.0
 30
0.0
 70
     1
  0
VERTEX
  5
2A7
  8
LAYER_01
 10
928.4465218139732
 20
334.1513685885751
 30
0.0
  0
VERTEX
  5
2A8
  8
LAYER_01
 10
902.0924834513959
 20
334.1513685885751
 30
0.0
  0
VERTEX
  5
2A9
  8
LAYER_01
 10
902.0924834513959
 20
418.1945761827911
 30
0.0
  0
VERTEX
  5
2AA
  8
LAYER_01
 10
790.444681067233
 20
418.1945761827911
 30
0.0
  0
VERTEX
  5
2AB
  8
LAYER_01
 10
790.444681067233
 20
445.1236767619297
 30
0.0
  0
VERTEX
  5
2AC
  8
LAYER_01
 10
765.9496455909649
 20
445.1236767619297
 30
0.0
  0
VERTEX
  5
2AD
  8
LAYER_01
 10
765.9496455909649
 20
477.0472102702061
 30
0.0
  0
VERTEX
  5
2AE
  8
LAYER_01
 10
790.444681067233
 20
477.047210270206
 30
0.0
  0
VERTEX
  5
2AF
  8
LAYER_01
 10
790.444681067233
 20
487.8687470526724
 30
0.0
  0
VERTEX
  5
2B0
  8
LAYER_01
 10
812.6323538858946
 20
487.8687470526725
 30
0.0
  0
VERTEX
  5
2B1
  8
LAYER_01
 10
812.6323538858946
 20
452.6987525096563
 30
0.0
  0
VERTEX
  5
2B2
  8
LAYER_01
 10
928.4465218139732
 20
452.6987525096563
 30
0.0
  0
SEQEND
  5
2B3
  8
LAYER_01
  0
POLYLINE
  5
2B4
  8
LAYER_01
 66
     1
 10
0.0
 20
0.0
 30
0.0
 70
     1
  0
VERTEX
  5
2B5
  8
LAYER_01
 10
724.9492544698693
 20
846.9242613924115
 30
0.0
  0
VERTEX
  5
2B6
  8
LAYER_01
 10
688.2287490214633
 20
846.9242613924116
 30
0.0
  0
VERTEX
  5
2B7
  8
LAYER_01
 10
688.2287490214633
 20
947.3247513458846
 30
0.0
  0
VERTEX
  5
2B8
  8
LAYER_01
 10
470.3333878173526
 20
947.3247513458845
 30
0.0
  0
VERTEX
  5
2B9
  8
LAYER_01
 10
470.3333878173526
 20
992.0214376886674
 30
0.0
  0
VERTEX
  5
2BA
  8
LAYER_01
 10
724.9492544698693
 20
992.0214376886674
 30
0.0
  0
SEQEND
  5
2BB
  8
LAYER_01
  0
POLYLINE
  5
2BC
  8
LAYER_01
 66
     1
 10
0.0
 20
0.0
 30
0.0
 70
     1
  0
VERTEX
  5
2BD
  8
LAYER_01
 10
667.0625916828144
 20
919.1875186816615
 30
0.0
  0
VERTEX
  5
2BE
  8
LAYER_01
 10
667.0625916828144
 20
881.8532167821522
 30
0.0
  0
VERTEX
  5
2BF
  8
LAYER_01
 10
556.1418396625335
 20
881.8532167821522
 30
0.0
  0
VERTEX
  5
2C0
  8
LAYER_01
 10
556.1418396625335
 20
826.6633791915733
 30
0.0
  0
VERTEX
  5
2C1
  8
LAYER_01
 10
530.170151384614
 20
826.6633791915733
 30
0.0
  0
VERTEX
  5
2C2
  8
LAYER_01
 10
530.170151384614
 20
919.1875186816615
 30
0.0
  0
SEQEND
  5
2C3
  8
LAYER_01
  0
ENDSEC
  0
EOF
