  0
SECTION
  2
HEADER
  9
$ACADVER
  1
AC1009
  9
$DWGCODEPAGE
  3
ansi_1252
  9
$INSBASE
 10
0.0
 20
0.0
 30
0.0
  9
$EXTMIN
 10
1.000000000000000E+20
 20
1.000000000000000E+20
 30
1.000000000000000E+20
  9
$EXTMAX
 10
-1.000000000000000E+20
 20
-1.000000000000000E+20
 30
-1.000000000000000E+20
  9
$LIMMIN
 10
0.0
 20
0.0
  9
$LIMMAX
 10
12.0
 20
9.0
  9
$ORTHOMODE
 70
     0
  9
$REGENMODE
 70
     1
  9
$FILLMODE
 70
     1
  9
$QTEXTMODE
 70
     0
  9
$MIRRTEXT
 70
     1
  9
$DRAGMODE
 70
     2
  9
$LTSCALE
 40
1.0
  9
$OSMODE
 70
    37
  9
$ATTMODE
 70
     1
  9
$TEXTSIZE
 40
0.2
  9
$TRACEWID
 40
0.05
  9
$TEXTSTYLE
  7
STANDARD
  9
$CLAYER
  8
LAYER_01
  9
$CELTYPE
  6
BYLAYER
  9
$CECOLOR
 62
   256
  9
$DIMSCALE
 40
1.0
  9
$DIMASZ
 40
0.18
  9
$DIMEXO
 40
0.0625
  9
$DIMDLI
 40
0.38
  9
$DIMRND
 40
0.0
  9
$DIMDLE
 40
0.0
  9
$DIMEXE
 40
0.18
  9
$DIMTP
 40
0.0
  9
$DIMTM
 40
0.0
  9
$DIMTXT
 40
0.18
  9
$DIMCEN
 40
0.09
  9
$DIMTSZ
 40
0.0
  9
$DIMTOL
 70
     0
  9
$DIMLIM
 70
     0
  9
$DIMTIH
 70
     1
  9
$DIMTOH
 70
     1
  9
$DIMSE1
 70
     0
  9
$DIMSE2
 70
     0
  9
$DIMTAD
 70
     0
  9
$DIMZIN
 70
     0
  9
$DIMBLK
  1

  9
$DIMASO
 70
     1
  9
$DIMSHO
 70
     1
  9
$DIMPOST
  1

  9
$DIMAPOST
  1

  9
$DIMALT
 70
     0
  9
$DIMALTD
 70
     2
  9
$DIMALTF
 40
25.4
  9
$DIMLFAC
 40
1.0
  9
$DIMTOFL
 70
     0
  9
$DIMTVP
 40
0.0
  9
$DIMTIX
 70
     0
  9
$DIMSOXD
 70
     0
  9
$DIMSAH
 70
     0
  9
$DIMBLK1
  1

  9
$DIMBLK2
  1

  9
$DIMSTYLE
  2
STANDARD_ACAD
  9
$DIMCLRD
 70
     0
  9
$DIMCLRE
 70
     0
  9
$DIMCLRT
 70
     0
  9
$DIMTFAC
 40
1.0
  9
$DIMGAP
 40
0.09
  9
$LUNITS
 70
     2
  9
$LUPREC
 70
     3
  9
$SKETCHINC
 40
0.1
  9
$FILLETRAD
 40
0.5
  9
$AUNITS
 70
     0
  9
$AUPREC
 70
     0
  9
$MENU
  1
.
  9
$ELEVATION
 40
0.0
  9
$PELEVATION
 40
0.0
  9
$THICKNESS
 40
0.0
  9
$LIMCHECK
 70
     0
  9
$CHAMFERA
 40
0.0
  9
$CHAMFERB
 40
0.0
  9
$SKPOLY
 70
     0
  9
$TDCREATE
 40
2459914.617487847
  9
$TDUPDATE
 40
2459914.617488032
  9
$TDINDWG
 40
0.0000000116
  9
$TDUSRTIMER
 40
0.0000000116
  9
$USRTIMER
 70
     1
  9
$ANGBASE
 50
0.0
  9
$ANGDIR
 70
     0
  9
$PDMODE
 70
     0
  9
$PDSIZE
 40
0.0
  9
$PLINEWID
 40
0.0
  9
$COORDS
 70
     1
  9
$SPLFRAME
 70
     0
  9
$SPLINETYPE
 70
     6
  9
$SPLINESEGS
 70
     8
  9
$ATTDIA
 70
     0
  9
$ATTREQ
 70
     1
  9
$HANDLING
 70
     1
  9
$HANDSEED
  5
227
  9
$SURFTAB1
 70
     6
  9
$SURFTAB2
 70
     6
  9
$SURFTYPE
 70
     6
  9
$SURFU
 70
     6
  9
$SURFV
 70
     6
  9
$UCSNAME
  2

  9
$UCSORG
 10
0.0
 20
0.0
 30
0.0
  9
$UCSXDIR
 10
1.0
 20
0.0
 30
0.0
  9
$UCSYDIR
 10
0.0
 20
1.0
 30
0.0
  9
$PUCSNAME
  2

  9
$PUCSORG
 10
0.0
 20
0.0
 30
0.0
  9
$PUCSXDIR
 10
1.0
 20
0.0
 30
0.0
  9
$PUCSYDIR
 10
0.0
 20
1.0
 30
0.0
  9
$USERI1
 70
     0
  9
$USERI2
 70
     0
  9
$USERI3
 70
     0
  9
$USERI4
 70
     0
  9
$USERI5
 70
     0
  9
$USERR1
 40
0.0
  9
$USERR2
 40
0.0
  9
$USERR3
 40
0.0
  9
$USERR4
 40
0.0
  9
$USERR5
 40
0.0
  9
$WORLDVIEW
 70
     1
  9
$SHADEDGE
 70
     3
  9
$SHADEDIF
 70
    70
  9
$TILEMODE
 70
     1
  9
$MAXACTVP
 70
    64
  9
$PLIMCHECK
 70
     0
  9
$PEXTMIN
 10
1.000000000000000E+20
 20
1.000000000000000E+20
 30
1.000000000000000E+20
  9
$PEXTMAX
 10
-1.000000000000000E+20
 20
-1.000000000000000E+20
 30
-1.000000000000000E+20
  9
$PLIMMIN
 10
0.0
 20
0.0
  9
$PLIMMAX
 10
12.0
 20
9.0
  9
$UNITMODE
 70
     0
  9
$VISRETAIN
 70
     1
  9
$PLINEGEN
 70
     0
  9
$PSLTSCALE
 70
     1
  0
ENDSEC
  0
SECTION
  2
TABLES
  0
TABLE
  2
VPORT
 70
     1
  0
VPORT
  2
*ACTIVE
 70
     0
 10
0.0
 20
0.0
 11
1.0
 21
1.0
 12
10.42990654205607
 22
4.5
 13
0.0
 23
0.0
 14
0.5
 24
0.5
 15
0.5
 25
0.5
 16
0.0
 26
0.0
 36
1.0
 17
0.0
 27
0.0
 37
0.0
 40
9.0
 41
1.972972972850329
 42
50.0
 43
0.0
 44
0.0
 50
0.0
 51
0.0
 71
     0
 72
   100
 73
     1
 74
     3
 75
     0
 76
     0
 77
     0
 78
     0
  0
ENDTAB
  0
TABLE
  2
LTYPE
 70
     1
  0
LTYPE
  2
CONTINUOUS
 70
     0
  3
Solid line
 72
    65
 73
     0
 40
0.0
  0
ENDTAB
  0
TABLE
  2
LAYER
 70
     2
  0
LAYER
  2
0
 70
     0
 62
     7
  6
CONTINUOUS
  0
LAYER
  2
LAYER_01
 70
     0
 62
     7
  6
CONTINUOUS
  0
ENDTAB
  0
TABLE
  2
STYLE
 70
     1
  0
STYLE
  2
STANDARD
 70
     0
 40
0.0
 41
1.0
 50
0.0
 71
     0
 42
0.2
  3
txt
  4

  0
ENDTAB
  0
TABLE
  2
VIEW
 70
     0
  0
ENDTAB
  0
TABLE
  2
UCS
 70
     0
  0
ENDTAB
  0
TABLE
  2
APPID
 70
     2
  0
APPID
  2
ACAD
 70
     0
  0
APPID
  2
RHINO
 70
     0
  0
ENDTAB
  0
TABLE
  2
DIMSTYLE
 70
     1
  0
DIMSTYLE
  2
STANDARD_ACAD
 70
     0
  3

  4

  5

  6

  7

 40
1.0
 41
0.18
 42
0.0625
 43
0.38
 44
0.18
 45
0.0
 46
0.0
 47
0.0
 48
0.0
140
0.18
141
0.09
142
0.0
143
25.4
144
1.0
145
0.0
146
1.0
147
0.09
 71
     0
 72
     0
 73
     1
 74
     1
 75
     0
 76
     0
 77
     0
 78
     0
170
     0
171
     2
172
     0
173
     0
174
     0
175
     0
176
     0
177
     0
178
     0
  0
ENDTAB
  0
ENDSEC
  0
SECTION
  2
BLOCKS
  0
BLOCK
  8
0
  2
$MODEL_SPACE
 70
     0
 10
0.0
 20
0.0
 30
0.0
  3
$MODEL_SPACE
  1

  0
ENDBLK
  5
21
  8
0
  0
BLOCK
 67
     1
  8
0
  2
$PAPER_SPACE
 70
     0
 10
0.0
 20
0.0
 30
0.0
  3
$PAPER_SPACE
  1

  0
ENDBLK
  5
1D
 67
     1
  8
0
  0
ENDSEC
  0
SECTION
  2
ENTITIES
  0
POLYLINE
  5
70
  8
LAYER_01
 66
     1
 10
0.0
 20
0.0
 30
0.0
 70
     1
  0
VERTEX
  5
71
  8
LAYER_01
 10
71.95589240693943
 20
56.02901078132979
 30
0.0
  0
VERTEX
  5
72
  8
LAYER_01
 10
404.9613223390268
 20
56.02901078132979
 30
0.0
  0
VERTEX
  5
73
  8
LAYER_01
 10
404.9613223390268
 20
809.0543761003137
 30
0.0
  0
VERTEX
  5
74
  8
LAYER_01
 10
71.95589240693943
 20
809.0543761003137
 30
0.0
  0
SEQEND
  5
75
  8
LAYER_01
  0
POLYLINE
  5
76
  8
LAYER_01
 66
     1
 10
0.0
 20
0.0
 30
0.0
 70
     1
  0
VERTEX
  5
77
  8
LAYER_01
 10
294.1886303542977
 20
236.4681674512748
 30
0.0
  0
VERTEX
  5
78
  8
LAYER_01
 10
384.9613223390227
 20
236.4681674512748
 30
0.0
  0
VERTEX
  5
79
  8
LAYER_01
 10
384.961322339023
 20
197.1955539829743
 30
0.0
  0
VERTEX
  5
7A
  8
LAYER_01
 10
294.1886303542977
 20
197.1955539829742
 30
0.0
  0
SEQEND
  5
7B
  8
LAYER_01
  0
POLYLINE
  5
7C
  8
LAYER_01
 66
     1
 10
0.0
 20
0.0
 30
0.0
 70
     1
  0
VERTEX
  5
7D
  8
LAYER_01
 10
384.9613223390223
 20
282.298813888914
 30
0.0
  0
VERTEX
  5
7E
  8
LAYER_01
 10
384.9613223390268
 20
245.9664465426744
 30
0.0
  0
VERTEX
  5
7F
  8
LAYER_01
 10
294.1886303542978
 20
245.9664465426744
 30
0.0
  0
VERTEX
  5
80
  8
LAYER_01
 10
294.1886303542977
 20
282.298813888914
 30
0.0
  0
SEQEND
  5
81
  8
LAYER_01
  0
POLYLINE
  5
82
  8
LAYER_01
 66
     1
 10
0.0
 20
0.0
 30
0.0
 70
     1
  0
VERTEX
  5
83
  8
LAYER_01
 10
130.3206112539003
 20
789.0543761003137
 30
0.0
  0
VERTEX
  5
84
  8
LAYER_01
 10
111.5072569846649
 20
789.0543761003137
 30
0.0
  0
VERTEX
  5
85
  8
LAYER_01
 10
111.5072569846649
 20
746.6191191595979
 30
0.0
  0
VERTEX
  5
86
  8
LAYER_01
 10
130.3206112539002
 20
746.6191191595979
 30
0.0
  0
SEQEND
  5
87
  8
LAYER_01
  0
POLYLINE
  5
88
  8
LAYER_01
 66
     1
 10
0.0
 20
0.0
 30
0.0
 70
     1
  0
VERTEX
  5
89
  8
LAYER_01
 10
355.8151068529894
 20
76.02901078133249
 30
0.0
  0
VERTEX
  5
8A
  8
LAYER_01
 10
377.8074792374851
 20
76.02901078133249
 30
0.0
  0
VERTEX
  5
8B
  8
LAYER_01
 10
377.807479237485
 20
120.4092155744257
 30
0.0
  0
VERTEX
  5
8C
  8
LAYER_01
 10
355.8151068529895
 20
120.4092155744257
 30
0.0
  0
SEQEND
  5
8D
  8
LAYER_01
  0
POLYLINE
  5
8E
  8
LAYER_01
 66
     1
 10
0.0
 20
0.0
 30
0.0
 70
     1
  0
VERTEX
  5
8F
  8
LAYER_01
 10
130.3206112539002
 20
734.8818587186214
 30
0.0
  0
VERTEX
  5
90
  8
LAYER_01
 10
91.95589240693944
 20
734.8818587186215
 30
0.0
  0
VERTEX
  5
91
  8
LAYER_01
 10
91.95589240693944
 20
634.2345913362722
 30
0.0
  0
VERTEX
  5
92
  8
LAYER_01
 10
112.7707629025738
 20
634.2345913362723
 30
0.0
  0
VERTEX
  5
93
  8
LAYER_01
 10
112.7707629025738
 20
666.9528417935957
 30
0.0
  0
VERTEX
  5
94
  8
LAYER_01
 10
130.3206112539002
 20
666.9528417935957
 30
0.0
  0
SEQEND
  5
95
  8
LAYER_01
  0
POLYLINE
  5
96
  8
LAYER_01
 66
     1
 10
0.0
 20
0.0
 30
0.0
 70
     1
  0
VERTEX
  5
97
  8
LAYER_01
 10
249.1668636403949
 20
746.6191191595979
 30
0.0
  0
VERTEX
  5
98
  8
LAYER_01
 10
249.1668636403949
 20
778.7357264712851
 30
0.0
  0
VERTEX
  5
99
  8
LAYER_01
 10
207.8155565505448
 20
778.7357264712851
 30
0.0
  0
VERTEX
  5
9A
  8
LAYER_01
 10
207.8155565505447
 20
763.9212081706639
 30
0.0
  0
VERTEX
  5
9B
  8
LAYER_01
 10
235.4140986506859
 20
763.9212081706639
 30
0.0
  0
VERTEX
  5
9C
  8
LAYER_01
 10
235.5554117942108
 20
746.6191191595979
 30
0.0
  0
SEQEND
  5
9D
  8
LAYER_01
  0
POLYLINE
  5
9E
  8
LAYER_01
 66
     1
 10
0.0
 20
0.0
 30
0.0
 70
     1
  0
VERTEX
  5
9F
  8
LAYER_01
 10
269.3977404843939
 20
778.7357264712851
 30
0.0
  0
VERTEX
  5
A0
  8
LAYER_01
 10
255.5766293596254
 20
778.735726471285
 30
0.0
  0
VERTEX
  5
A1
  8
LAYER_01
 10
255.5766293596254
 20
746.6191191595979
 30
0.0
  0
VERTEX
  5
A2
  8
LAYER_01
 10
269.3977404843939
 20
746.6191191595979
 30
0.0
  0
SEQEND
  5
A3
  8
LAYER_01
  0
POLYLINE
  5
A4
  8
LAYER_01
 66
     1
 10
0.0
 20
0.0
 30
0.0
 70
     1
  0
VERTEX
  5
A5
  8
LAYER_01
 10
313.2150451551319
 20
76.02901078132979
 30
0.0
  0
VERTEX
  5
A6
  8
LAYER_01
 10
300.7900271599233
 20
76.02901078132994
 30
0.0
  0
VERTEX
  5
A7
  8
LAYER_01
 10
300.7900271599233
 20
171.8842901260036
 30
0.0
  0
VERTEX
  5
A8
  8
LAYER_01
 10
313.2150451551317
 20
171.8842901260036
 30
0.0
  0
SEQEND
  5
A9
  8
LAYER_01
  0
POLYLINE
  5
AA
  8
LAYER_01
 66
     1
 10
0.0
 20
0.0
 30
0.0
 70
     1
  0
VERTEX
  5
AB
  8
LAYER_01
 10
177.0383557567397
 20
666.9528417935957
 30
0.0
  0
VERTEX
  5
AC
  8
LAYER_01
 10
163.0680228673061
 20
666.9528417935956
 30
0.0
  0
VERTEX
  5
AD
  8
LAYER_01
 10
163.0680228673061
 20
734.8818587186213
 30
0.0
  0
VERTEX
  5
AE
  8
LAYER_01
 10
177.0383557567397
 20
734.8818587186215
 30
0.0
  0
SEQEND
  5
AF
  8
LAYER_01
  0
POLYLINE
  5
B0
  8
LAYER_01
 66
     1
 10
0.0
 20
0.0
 30
0.0
 70
     1
  0
VERTEX
  5
B1
  8
LAYER_01
 10
252.9002708865403
 20
206.369241479143
 30
0.0
  0
VERTEX
  5
B2
  8
LAYER_01
 10
252.9002708865402
 20
137.9889071527262
 30
0.0
  0
VERTEX
  5
B3
  8
LAYER_01
 10
281.5167202034946
 20
137.9889071527262
 30
0.0
  0
VERTEX
  5
B4
  8
LAYER_01
 10
281.5167202034946
 20
206.369241479143
 30
0.0
  0
SEQEND
  5
B5
  8
LAYER_01
  0
POLYLINE
  5
B6
  8
LAYER_01
 66
     1
 10
0.0
 20
0.0
 30
0.0
 70
     1
  0
VERTEX
  5
B7
  8
LAYER_01
 10
314.8406550464572
 20
308.7470064107658
 30
0.0
  0
VERTEX
  5
B8
  8
LAYER_01
 10
314.8406550464572
 20
404.8182597313588
 30
0.0
  0
VERTEX
  5
B9
  8
LAYER_01
 10
299.9599066178557
 20
404.8182597313588
 30
0.0
  0
VERTEX
  5
BA
  8
LAYER_01
 10
299.9599066178557
 20
308.7470064107658
 30
0.0
  0
SEQEND
  5
BB
  8
LAYER_01
  0
POLYLINE
  5
BC
  8
LAYER_01
 66
     1
 10
0.0
 20
0.0
 30
0.0
 70
     1
  0
VERTEX
  5
BD
  8
LAYER_01
 10
148.8461978953495
 20
488.1579268892529
 30
0.0
  0
VERTEX
  5
BE
  8
LAYER_01
 10
148.8461978953496
 20
542.4752442576867
 30
0.0
  0
VERTEX
  5
BF
  8
LAYER_01
 10
119.0547102127027
 20
542.4752442576865
 30
0.0
  0
VERTEX
  5
C0
  8
LAYER_01
 10
119.0547102127027
 20
488.157926889253
 30
0.0
  0
SEQEND
  5
C1
  8
LAYER_01
  0
POLYLINE
  5
C2
  8
LAYER_01
 66
     1
 10
0.0
 20
0.0
 30
0.0
 70
     1
  0
VERTEX
  5
C3
  8
LAYER_01
 10
231.7113204682733
 20
734.8818587186213
 30
0.0
  0
VERTEX
  5
C4
  8
LAYER_01
 10
207.8155565505448
 20
734.8818587186213
 30
0.0
  0
VERTEX
  5
C5
  8
LAYER_01
 10
207.8155565505448
 20
697.542143997361
 30
0.0
  0
VERTEX
  5
C6
  8
LAYER_01
 10
231.7113204682733
 20
697.542143997361
 30
0.0
  0
SEQEND
  5
C7
  8
LAYER_01
  0
POLYLINE
  5
C8
  8
LAYER_01
 66
     1
 10
0.0
 20
0.0
 30
0.0
 70
     1
  0
VERTEX
  5
C9
  8
LAYER_01
 10
364.5753882417066
 20
758.0789238048387
 30
0.0
  0
VERTEX
  5
CA
  8
LAYER_01
 10
364.5753882417066
 20
743.2355519869271
 30
0.0
  0
VERTEX
  5
CB
  8
LAYER_01
 10
384.961322339019
 20
743.2355519869271
 30
0.0
  0
VERTEX
  5
CC
  8
LAYER_01
 10
384.9613223390188
 20
758.0789238048387
 30
0.0
  0
SEQEND
  5
CD
  8
LAYER_01
  0
POLYLINE
  5
CE
  8
LAYER_01
 66
     1
 10
0.0
 20
0.0
 30
0.0
 70
     1
  0
VERTEX
  5
CF
  8
LAYER_01
 10
226.4909266933259
 20
111.8516305460224
 30
0.0
  0
VERTEX
  5
D0
  8
LAYER_01
 10
226.4909266933258
 20
76.02901078133084
 30
0.0
  0
VERTEX
  5
D1
  8
LAYER_01
 10
206.9165071418577
 20
76.02901078133178
 30
0.0
  0
VERTEX
  5
D2
  8
LAYER_01
 10
206.9165071418579
 20
100.8580633215706
 30
0.0
  0
VERTEX
  5
D3
  8
LAYER_01
 10
91.95589240693944
 20
100.8580633215706
 30
0.0
  0
VERTEX
  5
D4
  8
LAYER_01
 10
91.95589240693944
 20
147.7158738820801
 30
0.0
  0
VERTEX
  5
D5
  8
LAYER_01
 10
140.2369159895698
 20
147.7158738820801
 30
0.0
  0
VERTEX
  5
D6
  8
LAYER_01
 10
140.2369159895698
 20
206.2481557940158
 30
0.0
  0
VERTEX
  5
D7
  8
LAYER_01
 10
148.6473968214817
 20
206.2481557940158
 30
0.0
  0
VERTEX
  5
D8
  8
LAYER_01
 10
148.6473968214817
 20
111.8516305460224
 30
0.0
  0
SEQEND
  5
D9
  8
LAYER_01
  0
POLYLINE
  5
DA
  8
LAYER_01
 66
     1
 10
0.0
 20
0.0
 30
0.0
 70
     1
  0
VERTEX
  5
DB
  8
LAYER_01
 10
271.2814627831571
 20
549.9156010987678
 30
0.0
  0
VERTEX
  5
DC
  8
LAYER_01
 10
164.9073235579834
 20
549.9156010987678
 30
0.0
  0
VERTEX
  5
DD
  8
LAYER_01
 10
164.9073235579834
 20
579.4395207038996
 30
0.0
  0
VERTEX
  5
DE
  8
LAYER_01
 10
118.0074422246361
 20
579.4395207038996
 30
0.0
  0
VERTEX
  5
DF
  8
LAYER_01
 10
118.0074422246361
 20
594.8718148269895
 30
0.0
  0
VERTEX
  5
E0
  8
LAYER_01
 10
163.0680228673061
 20
594.8718148269894
 30
0.0
  0
VERTEX
  5
E1
  8
LAYER_01
 10
163.0680228673061
 20
656.5347884876428
 30
0.0
  0
VERTEX
  5
E2
  8
LAYER_01
 10
177.0383557567397
 20
656.5347884876428
 30
0.0
  0
VERTEX
  5
E3
  8
LAYER_01
 10
177.0383557567397
 20
578.8027169350056
 30
0.0
  0
VERTEX
  5
E4
  8
LAYER_01
 10
236.9260360765291
 20
578.8027169350056
 30
0.0
  0
VERTEX
  5
E5
  8
LAYER_01
 10
236.2911668779727
 20
656.5347884876428
 30
0.0
  0
VERTEX
  5
E6
  8
LAYER_01
 10
249.1668636403949
 20
656.5347884876428
 30
0.0
  0
VERTEX
  5
E7
  8
LAYER_01
 10
249.1668636403949
 20
603.9130019598822
 30
0.0
  0
VERTEX
  5
E8
  8
LAYER_01
 10
271.2814627831572
 20
603.9130019598822
 30
0.0
  0
SEQEND
  5
E9
  8
LAYER_01
  0
POLYLINE
  5
EA
  8
LAYER_01
 66
     1
 10
0.0
 20
0.0
 30
0.0
 70
     1
  0
VERTEX
  5
EB
  8
LAYER_01
 10
289.2834228200639
 20
111.8516305460224
 30
0.0
  0
VERTEX
  5
EC
  8
LAYER_01
 10
289.2834228200639
 20
76.02901078133007
 30
0.0
  0
VERTEX
  5
ED
  8
LAYER_01
 10
252.9002708865403
 20
76.02901078133151
 30
0.0
  0
VERTEX
  5
EE
  8
LAYER_01
 10
252.9002708865402
 20
111.8516305460224
 30
0.0
  0
SEQEND
  5
EF
  8
LAYER_01
  0
POLYLINE
  5
F0
  8
LAYER_01
 66
     1
 10
0.0
 20
0.0
 30
0.0
 70
     1
  0
VERTEX
  5
F1
  8
LAYER_01
 10
148.8461978953495
 20
567.2247270008143
 30
0.0
  0
VERTEX
  5
F2
  8
LAYER_01
 10
118.0074422246361
 20
567.2247270008141
 30
0.0
  0
VERTEX
  5
F3
  8
LAYER_01
 10
118.0074422246361
 20
549.9156010987678
 30
0.0
  0
VERTEX
  5
F4
  8
LAYER_01
 10
148.8461978953496
 20
549.9156010987678
 30
0.0
  0
SEQEND
  5
F5
  8
LAYER_01
  0
POLYLINE
  5
F6
  8
LAYER_01
 66
     1
 10
0.0
 20
0.0
 30
0.0
 70
     1
  0
VERTEX
  5
F7
  8
LAYER_01
 10
231.7113204682733
 20
656.5347884876428
 30
0.0
  0
VERTEX
  5
F8
  8
LAYER_01
 10
193.3677149350599
 20
656.5347884876428
 30
0.0
  0
VERTEX
  5
F9
  8
LAYER_01
 10
193.3677149350599
 20
605.9300312582855
 30
0.0
  0
VERTEX
  5
FA
  8
LAYER_01
 10
231.7113204682733
 20
605.9300312582855
 30
0.0
  0
SEQEND
  5
FB
  8
LAYER_01
  0
POLYLINE
  5
FC
  8
LAYER_01
 66
     1
 10
0.0
 20
0.0
 30
0.0
 70
     1
  0
VERTEX
  5
FD
  8
LAYER_01
 10
235.6512747370164
 20
734.8818587186215
 30
0.0
  0
VERTEX
  5
FE
  8
LAYER_01
 10
249.1668636403949
 20
734.8818587186215
 30
0.0
  0
VERTEX
  5
FF
  8
LAYER_01
 10
249.1668636403949
 20
697.542143997361
 30
0.0
  0
VERTEX
  5
100
  8
LAYER_01
 10
235.9562432562634
 20
697.5421439973609
 30
0.0
  0
SEQEND
  5
101
  8
LAYER_01
  0
POLYLINE
  5
102
  8
LAYER_01
 66
     1
 10
0.0
 20
0.0
 30
0.0
 70
     1
  0
VERTEX
  5
103
  8
LAYER_01
 10
202.6652102688653
 20
789.0543761003137
 30
0.0
  0
VERTEX
  5
104
  8
LAYER_01
 10
202.6652102688652
 20
763.9212081706639
 30
0.0
  0
VERTEX
  5
105
  8
LAYER_01
 10
177.0383557567397
 20
763.9212081706639
 30
0.0
  0
VERTEX
  5
106
  8
LAYER_01
 10
177.0383557567397
 20
746.6191191595979
 30
0.0
  0
VERTEX
  5
107
  8
LAYER_01
 10
163.0680228673061
 20
746.6191191595979
 30
0.0
  0
VERTEX
  5
108
  8
LAYER_01
 10
163.0680228673061
 20
789.0543761003137
 30
0.0
  0
SEQEND
  5
109
  8
LAYER_01
  0
POLYLINE
  5
10A
  8
LAYER_01
 66
     1
 10
0.0
 20
0.0
 30
0.0
 70
     1
  0
VERTEX
  5
10B
  8
LAYER_01
 10
347.6500950275667
 20
76.02901078133249
 30
0.0
  0
VERTEX
  5
10C
  8
LAYER_01
 10
328.8350677776796
 20
76.02901078133104
 30
0.0
  0
VERTEX
  5
10D
  8
LAYER_01
 10
328.8350677776796
 20
170.1092875552595
 30
0.0
  0
VERTEX
  5
10E
  8
LAYER_01
 10
377.8074792374851
 20
170.1092875552595
 30
0.0
  0
VERTEX
  5
10F
  8
LAYER_01
 10
377.8074792374851
 20
148.0992556780332
 30
0.0
  0
VERTEX
  5
110
  8
LAYER_01
 10
347.6500950275667
 20
148.0992556780331
 30
0.0
  0
SEQEND
  5
111
  8
LAYER_01
  0
POLYLINE
  5
112
  8
LAYER_01
 66
     1
 10
0.0
 20
0.0
 30
0.0
 70
     1
  0
VERTEX
  5
113
  8
LAYER_01
 10
128.2055500383929
 20
266.0849288775053
 30
0.0
  0
VERTEX
  5
114
  8
LAYER_01
 10
91.95589240693944
 20
266.0849288775054
 30
0.0
  0
VERTEX
  5
115
  8
LAYER_01
 10
91.95589240693945
 20
320.6953574453724
 30
0.0
  0
VERTEX
  5
116
  8
LAYER_01
 10
128.2055500383929
 20
320.6953574453724
 30
0.0
  0
SEQEND
  5
117
  8
LAYER_01
  0
POLYLINE
  5
118
  8
LAYER_01
 66
     1
 10
0.0
 20
0.0
 30
0.0
 70
     1
  0
VERTEX
  5
119
  8
LAYER_01
 10
91.95589240693944
 20
542.4752442576864
 30
0.0
  0
VERTEX
  5
11A
  8
LAYER_01
 10
91.95589240693944
 20
488.157926889253
 30
0.0
  0
VERTEX
  5
11B
  8
LAYER_01
 10
112.7707629025738
 20
488.157926889253
 30
0.0
  0
VERTEX
  5
11C
  8
LAYER_01
 10
112.7707629025738
 20
542.4752442576867
 30
0.0
  0
SEQEND
  5
11D
  8
LAYER_01
  0
POLYLINE
  5
11E
  8
LAYER_01
 66
     1
 10
0.0
 20
0.0
 30
0.0
 70
     1
  0
VERTEX
  5
11F
  8
LAYER_01
 10
130.3206112539002
 20
634.2345913362723
 30
0.0
  0
VERTEX
  5
120
  8
LAYER_01
 10
130.3206112539002
 20
656.5347884876428
 30
0.0
  0
VERTEX
  5
121
  8
LAYER_01
 10
118.0074422246361
 20
656.5347884876428
 30
0.0
  0
VERTEX
  5
122
  8
LAYER_01
 10
118.0074422246361
 20
634.2345913362723
 30
0.0
  0
SEQEND
  5
123
  8
LAYER_01
  0
POLYLINE
  5
124
  8
LAYER_01
 66
     1
 10
0.0
 20
0.0
 30
0.0
 70
     1
  0
VERTEX
  5
125
  8
LAYER_01
 10
213.4144115210083
 20
236.4681674512748
 30
0.0
  0
VERTEX
  5
126
  8
LAYER_01
 10
281.5167202034946
 20
236.4681674512748
 30
0.0
  0
VERTEX
  5
127
  8
LAYER_01
 10
281.5167202034946
 20
225.5434665764184
 30
0.0
  0
VERTEX
  5
128
  8
LAYER_01
 10
226.4909266933259
 20
225.5434665764184
 30
0.0
  0
VERTEX
  5
129
  8
LAYER_01
 10
226.4909266933259
 20
137.9889071527262
 30
0.0
  0
VERTEX
  5
12A
  8
LAYER_01
 10
179.8911395342557
 20
137.9889071527262
 30
0.0
  0
VERTEX
  5
12B
  8
LAYER_01
 10
179.8911395342557
 20
226.3456164057393
 30
0.0
  0
VERTEX
  5
12C
  8
LAYER_01
 10
213.4144115210083
 20
226.3456164057393
 30
0.0
  0
SEQEND
  5
12D
  8
LAYER_01
  0
POLYLINE
  5
12E
  8
LAYER_01
 66
     1
 10
0.0
 20
0.0
 30
0.0
 70
     1
  0
VERTEX
  5
12F
  8
LAYER_01
 10
140.2369159895698
 20
236.2763600156233
 30
0.0
  0
VERTEX
  5
130
  8
LAYER_01
 10
148.6473968214817
 20
236.2763600156233
 30
0.0
  0
VERTEX
  5
131
  8
LAYER_01
 10
148.6473968214817
 20
226.8432686036354
 30
0.0
  0
VERTEX
  5
132
  8
LAYER_01
 10
140.2369159895698
 20
226.8432686036354
 30
0.0
  0
SEQEND
  5
133
  8
LAYER_01
  0
POLYLINE
  5
134
  8
LAYER_01
 66
     1
 10
0.0
 20
0.0
 30
0.0
 70
     1
  0
VERTEX
  5
135
  8
LAYER_01
 10
91.95589240693944
 20
226.8432686036354
 30
0.0
  0
VERTEX
  5
136
  8
LAYER_01
 10
91.95589240693944
 20
236.2763600156233
 30
0.0
  0
VERTEX
  5
137
  8
LAYER_01
 10
107.6571936577525
 20
236.2763600156233
 30
0.0
  0
VERTEX
  5
138
  8
LAYER_01
 10
107.6571936577525
 20
226.8432686036354
 30
0.0
  0
SEQEND
  5
139
  8
LAYER_01
  0
POLYLINE
  5
13A
  8
LAYER_01
 66
     1
 10
0.0
 20
0.0
 30
0.0
 70
     1
  0
VERTEX
  5
13B
  8
LAYER_01
 10
107.6571936577525
 20
245.7094514276113
 30
0.0
  0
VERTEX
  5
13C
  8
LAYER_01
 10
91.95589240693944
 20
245.7094514276115
 30
0.0
  0
VERTEX
  5
13D
  8
LAYER_01
 10
91.95589240693944
 20
256.6518374655174
 30
0.0
  0
VERTEX
  5
13E
  8
LAYER_01
 10
107.6571936577525
 20
256.6518374655174
 30
0.0
  0
SEQEND
  5
13F
  8
LAYER_01
  0
POLYLINE
  5
140
  8
LAYER_01
 66
     1
 10
0.0
 20
0.0
 30
0.0
 70
     1
  0
VERTEX
  5
141
  8
LAYER_01
 10
128.2055500383929
 20
216.4668680504486
 30
0.0
  0
VERTEX
  5
142
  8
LAYER_01
 10
91.95589240693944
 20
216.4668680504488
 30
0.0
  0
VERTEX
  5
143
  8
LAYER_01
 10
91.95589240693943
 20
160.1328367379157
 30
0.0
  0
VERTEX
  5
144
  8
LAYER_01
 10
128.2055500383929
 20
160.1328367379157
 30
0.0
  0
SEQEND
  5
145
  8
LAYER_01
  0
POLYLINE
  5
146
  8
LAYER_01
 66
     1
 10
0.0
 20
0.0
 30
0.0
 70
     1
  0
VERTEX
  5
147
  8
LAYER_01
 10
148.6473968214817
 20
256.6518374655174
 30
0.0
  0
VERTEX
  5
148
  8
LAYER_01
 10
148.6473968214817
 20
245.7094514276113
 30
0.0
  0
VERTEX
  5
149
  8
LAYER_01
 10
140.2369159895698
 20
245.7094514276113
 30
0.0
  0
VERTEX
  5
14A
  8
LAYER_01
 10
140.2369159895698
 20
256.6518374655174
 30
0.0
  0
SEQEND
  5
14B
  8
LAYER_01
  0
POLYLINE
  5
14C
  8
LAYER_01
 66
     1
 10
0.0
 20
0.0
 30
0.0
 70
     1
  0
VERTEX
  5
14D
  8
LAYER_01
 10
213.4144115210083
 20
255.2108761264227
 30
0.0
  0
VERTEX
  5
14E
  8
LAYER_01
 10
179.8911395342557
 20
255.2108761264226
 30
0.0
  0
VERTEX
  5
14F
  8
LAYER_01
 10
179.8911395342557
 20
342.6839247938917
 30
0.0
  0
VERTEX
  5
150
  8
LAYER_01
 10
226.2017859976959
 20
342.6839247938917
 30
0.0
  0
VERTEX
  5
151
  8
LAYER_01
 10
226.2017859976959
 20
257.3938237643831
 30
0.0
  0
VERTEX
  5
152
  8
LAYER_01
 10
281.5167202034946
 20
257.393823764383
 30
0.0
  0
VERTEX
  5
153
  8
LAYER_01
 10
281.5167202034946
 20
245.9664465426744
 30
0.0
  0
VERTEX
  5
154
  8
LAYER_01
 10
213.4144115210083
 20
245.9664465426744
 30
0.0
  0
SEQEND
  5
155
  8
LAYER_01
  0
POLYLINE
  5
156
  8
LAYER_01
 66
     1
 10
0.0
 20
0.0
 30
0.0
 70
     1
  0
VERTEX
  5
157
  8
LAYER_01
 10
271.2814627831571
 20
656.5347884876428
 30
0.0
  0
VERTEX
  5
158
  8
LAYER_01
 10
255.5766293596254
 20
656.5347884876428
 30
0.0
  0
VERTEX
  5
159
  8
LAYER_01
 10
255.5766293596254
 20
614.2241284303384
 30
0.0
  0
VERTEX
  5
15A
  8
LAYER_01
 10
271.2814627831571
 20
614.2241284303385
 30
0.0
  0
SEQEND
  5
15B
  8
LAYER_01
  0
POLYLINE
  5
15C
  8
LAYER_01
 66
     1
 10
0.0
 20
0.0
 30
0.0
 70
     1
  0
VERTEX
  5
15D
  8
LAYER_01
 10
384.9613223390213
 20
598.7888535385554
 30
0.0
  0
VERTEX
  5
15E
  8
LAYER_01
 10
384.9613223390184
 20
588.0366754443013
 30
0.0
  0
VERTEX
  5
15F
  8
LAYER_01
 10
314.8406550464571
 20
588.0366754443013
 30
0.0
  0
VERTEX
  5
160
  8
LAYER_01
 10
314.8406550464571
 20
547.9766324275539
 30
0.0
  0
VERTEX
  5
161
  8
LAYER_01
 10
300.5703450391745
 20
547.9766324275539
 30
0.0
  0
VERTEX
  5
162
  8
LAYER_01
 10
300.5703450391745
 20
598.7888535385554
 30
0.0
  0
SEQEND
  5
163
  8
LAYER_01
  0
POLYLINE
  5
164
  8
LAYER_01
 66
     1
 10
0.0
 20
0.0
 30
0.0
 70
     1
  0
VERTEX
  5
165
  8
LAYER_01
 10
377.5524660323633
 20
571.7985472096741
 30
0.0
  0
VERTEX
  5
166
  8
LAYER_01
 10
377.5524660323633
 20
544.6927435066699
 30
0.0
  0
VERTEX
  5
167
  8
LAYER_01
 10
347.995802636032
 20
544.6927435066699
 30
0.0
  0
VERTEX
  5
168
  8
LAYER_01
 10
347.995802636032
 20
516.7145183110727
 30
0.0
  0
VERTEX
  5
169
  8
LAYER_01
 10
327.4755610057603
 20
516.7145183110727
 30
0.0
  0
VERTEX
  5
16A
  8
LAYER_01
 10
327.4755610057603
 20
571.7985472096741
 30
0.0
  0
SEQEND
  5
16B
  8
LAYER_01
  0
POLYLINE
  5
16C
  8
LAYER_01
 66
     1
 10
0.0
 20
0.0
 30
0.0
 70
     1
  0
VERTEX
  5
16D
  8
LAYER_01
 10
347.9958026360321
 20
490.6858863574488
 30
0.0
  0
VERTEX
  5
16E
  8
LAYER_01
 10
347.995802636032
 20
413.0425363338553
 30
0.0
  0
VERTEX
  5
16F
  8
LAYER_01
 10
327.4755610057602
 20
413.0425363338553
 30
0.0
  0
VERTEX
  5
170
  8
LAYER_01
 10
327.4755610057603
 20
490.6858863574488
 30
0.0
  0
SEQEND
  5
171
  8
LAYER_01
  0
POLYLINE
  5
172
  8
LAYER_01
 66
     1
 10
0.0
 20
0.0
 30
0.0
 70
     1
  0
VERTEX
  5
173
  8
LAYER_01
 10
347.9958026360321
 20
404.8182597313588
 30
0.0
  0
VERTEX
  5
174
  8
LAYER_01
 10
327.4755610057603
 20
404.8182597313589
 30
0.0
  0
VERTEX
  5
175
  8
LAYER_01
 10
327.4755610057602
 20
308.7470064107658
 30
0.0
  0
VERTEX
  5
176
  8
LAYER_01
 10
376.4227862020367
 20
308.7470064107658
 30
0.0
  0
VERTEX
  5
177
  8
LAYER_01
 10
376.4227862020367
 20
331.2779332857017
 30
0.0
  0
VERTEX
  5
178
  8
LAYER_01
 10
347.995802636032
 20
331.2779332857017
 30
0.0
  0
SEQEND
  5
179
  8
LAYER_01
  0
POLYLINE
  5
17A
  8
LAYER_01
 66
     1
 10
0.0
 20
0.0
 30
0.0
 70
     1
  0
VERTEX
  5
17B
  8
LAYER_01
 10
314.8406550464571
 20
514.5957034861426
 30
0.0
  0
VERTEX
  5
17C
  8
LAYER_01
 10
314.8406550464571
 20
413.0425363338553
 30
0.0
  0
VERTEX
  5
17D
  8
LAYER_01
 10
289.2834228200639
 20
413.0425363338553
 30
0.0
  0
VERTEX
  5
17E
  8
LAYER_01
 10
289.2834228200639
 20
369.2909304699833
 30
0.0
  0
VERTEX
  5
17F
  8
LAYER_01
 10
252.0539383736906
 20
369.2909304699833
 30
0.0
  0
VERTEX
  5
180
  8
LAYER_01
 10
252.0539383736906
 20
429.0004230615122
 30
0.0
  0
VERTEX
  5
181
  8
LAYER_01
 10
300.5703450391745
 20
429.0004230615121
 30
0.0
  0
VERTEX
  5
182
  8
LAYER_01
 10
300.5703450391745
 20
514.5957034861426
 30
0.0
  0
SEQEND
  5
183
  8
LAYER_01
  0
POLYLINE
  5
184
  8
LAYER_01
 66
     1
 10
0.0
 20
0.0
 30
0.0
 70
     1
  0
VERTEX
  5
185
  8
LAYER_01
 10
252.0539383736906
 20
275.5365982212094
 30
0.0
  0
VERTEX
  5
186
  8
LAYER_01
 10
281.5167202034946
 20
275.5365982212093
 30
0.0
  0
VERTEX
  5
187
  8
LAYER_01
 10
281.5167202034946
 20
342.6839247938917
 30
0.0
  0
VERTEX
  5
188
  8
LAYER_01
 10
252.0539383736906
 20
342.6839247938917
 30
0.0
  0
SEQEND
  5
189
  8
LAYER_01
  0
POLYLINE
  5
18A
  8
LAYER_01
 66
     1
 10
0.0
 20
0.0
 30
0.0
 70
     1
  0
VERTEX
  5
18B
  8
LAYER_01
 10
140.2369159895698
 20
333.6588517952276
 30
0.0
  0
VERTEX
  5
18C
  8
LAYER_01
 10
91.95589240693944
 20
333.6588517952273
 30
0.0
  0
VERTEX
  5
18D
  8
LAYER_01
 10
91.95589240693944
 20
382.4226507641902
 30
0.0
  0
VERTEX
  5
18E
  8
LAYER_01
 10
207.2391969794895
 20
382.4226507641901
 30
0.0
  0
VERTEX
  5
18F
  8
LAYER_01
 10
207.2391969794894
 20
429.0004230615121
 30
0.0
  0
VERTEX
  5
190
  8
LAYER_01
 10
226.2017859976959
 20
429.000423061512
 30
0.0
  0
VERTEX
  5
191
  8
LAYER_01
 10
226.201785997696
 20
369.2909304699833
 30
0.0
  0
VERTEX
  5
192
  8
LAYER_01
 10
148.6473968214817
 20
369.2909304699833
 30
0.0
  0
VERTEX
  5
193
  8
LAYER_01
 10
148.6473968214817
 20
275.5365982212094
 30
0.0
  0
VERTEX
  5
194
  8
LAYER_01
 10
140.2369159895698
 20
275.5365982212094
 30
0.0
  0
SEQEND
  5
195
  8
LAYER_01
  0
POLYLINE
  5
196
  8
LAYER_01
 66
     1
 10
0.0
 20
0.0
 30
0.0
 70
     1
  0
VERTEX
  5
197
  8
LAYER_01
 10
164.9073235579834
 20
477.9932769331775
 30
0.0
  0
VERTEX
  5
198
  8
LAYER_01
 10
164.9073235579834
 20
542.4752442576865
 30
0.0
  0
VERTEX
  5
199
  8
LAYER_01
 10
174.4886794979655
 20
542.4752442576865
 30
0.0
  0
VERTEX
  5
19A
  8
LAYER_01
 10
174.4886794979655
 20
460.0230378417916
 30
0.0
  0
VERTEX
  5
19B
  8
LAYER_01
 10
119.0547102127027
 20
460.0230378417916
 30
0.0
  0
VERTEX
  5
19C
  8
LAYER_01
 10
119.0547102127027
 20
477.9932769331775
 30
0.0
  0
SEQEND
  5
19D
  8
LAYER_01
  0
POLYLINE
  5
19E
  8
LAYER_01
 66
     1
 10
0.0
 20
0.0
 30
0.0
 70
     1
  0
VERTEX
  5
19F
  8
LAYER_01
 10
91.95589240693943
 20
567.2247270008143
 30
0.0
  0
VERTEX
  5
1A0
  8
LAYER_01
 10
112.7707629025738
 20
567.2247270008141
 30
0.0
  0
VERTEX
  5
1A1
  8
LAYER_01
 10
112.7707629025738
 20
549.9156010987678
 30
0.0
  0
VERTEX
  5
1A2
  8
LAYER_01
 10
91.95589240693944
 20
549.9156010987676
 30
0.0
  0
SEQEND
  5
1A3
  8
LAYER_01
  0
POLYLINE
  5
1A4
  8
LAYER_01
 66
     1
 10
0.0
 20
0.0
 30
0.0
 70
     1
  0
VERTEX
  5
1A5
  8
LAYER_01
 10
112.7707629025738
 20
579.4395207038996
 30
0.0
  0
VERTEX
  5
1A6
  8
LAYER_01
 10
91.95589240693944
 20
579.4395207038995
 30
0.0
  0
VERTEX
  5
1A7
  8
LAYER_01
 10
91.95589240693945
 20
594.8718148269895
 30
0.0
  0
VERTEX
  5
1A8
  8
LAYER_01
 10
112.7707629025738
 20
594.8718148269894
 30
0.0
  0
SEQEND
  5
1A9
  8
LAYER_01
  0
POLYLINE
  5
1AA
  8
LAYER_01
 66
     1
 10
0.0
 20
0.0
 30
0.0
 70
     1
  0
VERTEX
  5
1AB
  8
LAYER_01
 10
193.3677149350599
 20
734.8818587186214
 30
0.0
  0
VERTEX
  5
1AC
  8
LAYER_01
 10
193.36771493506
 20
666.9528417935957
 30
0.0
  0
VERTEX
  5
1AD
  8
LAYER_01
 10
231.7113204682733
 20
666.9528417935957
 30
0.0
  0
VERTEX
  5
1AE
  8
LAYER_01
 10
231.7113204682733
 20
679.4882394206372
 30
0.0
  0
VERTEX
  5
1AF
  8
LAYER_01
 10
202.6652102688653
 20
679.4882394206372
 30
0.0
  0
VERTEX
  5
1B0
  8
LAYER_01
 10
202.6652102688653
 20
734.8818587186214
 30
0.0
  0
SEQEND
  5
1B1
  8
LAYER_01
  0
POLYLINE
  5
1B2
  8
LAYER_01
 66
     1
 10
0.0
 20
0.0
 30
0.0
 70
     1
  0
VERTEX
  5
1B3
  8
LAYER_01
 10
249.1668636403949
 20
679.4882394206372
 30
0.0
  0
VERTEX
  5
1B4
  8
LAYER_01
 10
249.1668636403949
 20
666.9528417935957
 30
0.0
  0
VERTEX
  5
1B5
  8
LAYER_01
 10
236.2060784322288
 20
666.9528417935957
 30
0.0
  0
VERTEX
  5
1B6
  8
LAYER_01
 10
236.1036967809219
 20
679.4882394206372
 30
0.0
  0
SEQEND
  5
1B7
  8
LAYER_01
  0
POLYLINE
  5
1B8
  8
LAYER_01
 66
     1
 10
0.0
 20
0.0
 30
0.0
 70
     1
  0
VERTEX
  5
1B9
  8
LAYER_01
 10
255.5766293596254
 20
734.8818587186214
 30
0.0
  0
VERTEX
  5
1BA
  8
LAYER_01
 10
255.5766293596255
 20
697.542143997361
 30
0.0
  0
VERTEX
  5
1BB
  8
LAYER_01
 10
269.3977404843939
 20
697.542143997361
 30
0.0
  0
VERTEX
  5
1BC
  8
LAYER_01
 10
269.3977404843939
 20
734.8818587186214
 30
0.0
  0
SEQEND
  5
1BD
  8
LAYER_01
  0
POLYLINE
  5
1BE
  8
LAYER_01
 66
     1
 10
0.0
 20
0.0
 30
0.0
 70
     1
  0
VERTEX
  5
1BF
  8
LAYER_01
 10
294.2024117074318
 20
746.6191191595979
 30
0.0
  0
VERTEX
  5
1C0
  8
LAYER_01
 10
285.4797302095003
 20
746.619119159598
 30
0.0
  0
VERTEX
  5
1C1
  8
LAYER_01
 10
285.4797302095003
 20
789.0543761003137
 30
0.0
  0
VERTEX
  5
1C2
  8
LAYER_01
 10
294.2024117074318
 20
789.0543761003137
 30
0.0
  0
SEQEND
  5
1C3
  8
LAYER_01
  0
POLYLINE
  5
1C4
  8
LAYER_01
 66
     1
 10
0.0
 20
0.0
 30
0.0
 70
     1
  0
VERTEX
  5
1C5
  8
LAYER_01
 10
294.2024117074318
 20
666.9528417935957
 30
0.0
  0
VERTEX
  5
1C6
  8
LAYER_01
 10
255.5766293596254
 20
666.9528417935956
 30
0.0
  0
VERTEX
  5
1C7
  8
LAYER_01
 10
255.5766293596254
 20
679.4882394206372
 30
0.0
  0
VERTEX
  5
1C8
  8
LAYER_01
 10
285.4797302095003
 20
679.4882394206372
 30
0.0
  0
VERTEX
  5
1C9
  8
LAYER_01
 10
285.4797302095003
 20
734.8818587186213
 30
0.0
  0
VERTEX
  5
1CA
  8
LAYER_01
 10
294.2024117074318
 20
734.8818587186214
 30
0.0
  0
SEQEND
  5
1CB
  8
LAYER_01
  0
POLYLINE
  5
1CC
  8
LAYER_01
 66
     1
 10
0.0
 20
0.0
 30
0.0
 70
     1
  0
VERTEX
  5
1CD
  8
LAYER_01
 10
193.3677149350599
 20
755.5732321276444
 30
0.0
  0
VERTEX
  5
1CE
  8
LAYER_01
 10
193.3677149350598
 20
746.6191191595979
 30
0.0
  0
VERTEX
  5
1CF
  8
LAYER_01
 10
202.6652102688653
 20
746.6191191595979
 30
0.0
  0
VERTEX
  5
1D0
  8
LAYER_01
 10
202.6652102688653
 20
755.5732321276444
 30
0.0
  0
SEQEND
  5
1D1
  8
LAYER_01
  0
POLYLINE
  5
1D2
  8
LAYER_01
 66
     1
 10
0.0
 20
0.0
 30
0.0
 70
     1
  0
VERTEX
  5
1D3
  8
LAYER_01
 10
207.8155565505448
 20
746.6191191595979
 30
0.0
  0
VERTEX
  5
1D4
  8
LAYER_01
 10
231.7113204682733
 20
746.6191191595977
 30
0.0
  0
VERTEX
  5
1D5
  8
LAYER_01
 10
231.7113204682733
 20
755.5732321276444
 30
0.0
  0
VERTEX
  5
1D6
  8
LAYER_01
 10
207.8155565505448
 20
755.5732321276444
 30
0.0
  0
SEQEND
  5
1D7
  8
LAYER_01
  0
POLYLINE
  5
1D8
  8
LAYER_01
 66
     1
 10
0.0
 20
0.0
 30
0.0
 70
     1
  0
VERTEX
  5
1D9
  8
LAYER_01
 10
364.5753882417066
 20
639.3559534452701
 30
0.0
  0
VERTEX
  5
1DA
  8
LAYER_01
 10
300.5703450391745
 20
639.35595344527
 30
0.0
  0
VERTEX
  5
1DB
  8
LAYER_01
 10
300.5703450391745
 20
612.1488483197012
 30
0.0
  0
VERTEX
  5
1DC
  8
LAYER_01
 10
371.0656299674233
 20
612.1488483197012
 30
0.0
  0
VERTEX
  5
1DD
  8
LAYER_01
 10
371.0656299674232
 20
717.1449963426087
 30
0.0
  0
VERTEX
  5
1DE
  8
LAYER_01
 10
364.5753882417066
 20
717.1449963426087
 30
0.0
  0
SEQEND
  5
1DF
  8
LAYER_01
  0
POLYLINE
  5
1E0
  8
LAYER_01
 66
     1
 10
0.0
 20
0.0
 30
0.0
 70
     1
  0
VERTEX
  5
1E1
  8
LAYER_01
 10
307.0646189458112
 20
717.1449963426087
 30
0.0
  0
VERTEX
  5
1E2
  8
LAYER_01
 10
307.0646189458112
 20
667.2859465795059
 30
0.0
  0
VERTEX
  5
1E3
  8
LAYER_01
 10
359.3826904005512
 20
667.2859465795059
 30
0.0
  0
VERTEX
  5
1E4
  8
LAYER_01
 10
359.3826904005512
 20
717.1449963426087
 30
0.0
  0
SEQEND
  5
1E5
  8
LAYER_01
  0
POLYLINE
  5
1E6
  8
LAYER_01
 66
     1
 10
0.0
 20
0.0
 30
0.0
 70
     1
  0
VERTEX
  5
1E7
  8
LAYER_01
 10
331.6942432177818
 20
789.0543761003137
 30
0.0
  0
VERTEX
  5
1E8
  8
LAYER_01
 10
307.0646189458112
 20
789.0543761003137
 30
0.0
  0
VERTEX
  5
1E9
  8
LAYER_01
 10
307.0646189458112
 20
743.2355519869272
 30
0.0
  0
VERTEX
  5
1EA
  8
LAYER_01
 10
359.3826904005512
 20
743.2355519869271
 30
0.0
  0
VERTEX
  5
1EB
  8
LAYER_01
 10
359.3826904005513
 20
758.0789238048387
 30
0.0
  0
VERTEX
  5
1EC
  8
LAYER_01
 10
331.6942432177818
 20
758.0789238048387
 30
0.0
  0
SEQEND
  5
1ED
  8
LAYER_01
  0
POLYLINE
  5
1EE
  8
LAYER_01
 66
     1
 10
0.0
 20
0.0
 30
0.0
 70
     1
  0
VERTEX
  5
1EF
  8
LAYER_01
 10
364.5753882417066
 20
789.0543761003137
 30
0.0
  0
VERTEX
  5
1F0
  8
LAYER_01
 10
364.5753882417066
 20
765.2993147621628
 30
0.0
  0
VERTEX
  5
1F1
  8
LAYER_01
 10
384.9613223390187
 20
765.2993147621628
 30
0.0
  0
VERTEX
  5
1F2
  8
LAYER_01
 10
384.9613223390184
 20
789.0543761003137
 30
0.0
  0
SEQEND
  5
1F3
  8
LAYER_01
  0
POLYLINE
  5
1F4
  8
LAYER_01
 66
     1
 10
0.0
 20
0.0
 30
0.0
 70
     1
  0
VERTEX
  5
1F5
  8
LAYER_01
 10
359.3826904005513
 20
765.2993147621628
 30
0.0
  0
VERTEX
  5
1F6
  8
LAYER_01
 10
359.3826904005514
 20
789.0543761003137
 30
0.0
  0
VERTEX
  5
1F7
  8
LAYER_01
 10
347.9983518310943
 20
789.0543761003137
 30
0.0
  0
VERTEX
  5
1F8
  8
LAYER_01
 10
347.9983518310943
 20
765.2993147621628
 30
0.0
  0
SEQEND
  5
1F9
  8
LAYER_01
  0
POLYLINE
  5
1FA
  8
LAYER_01
 66
     1
 10
0.0
 20
0.0
 30
0.0
 70
     1
  0
VERTEX
  5
1FB
  8
LAYER_01
 10
91.95589240693944
 20
414.3726970375833
 30
0.0
  0
VERTEX
  5
1FC
  8
LAYER_01
 10
91.95589240693944
 20
477.9932769331775
 30
0.0
  0
VERTEX
  5
1FD
  8
LAYER_01
 10
112.7707629025738
 20
477.9932769331775
 30
0.0
  0
VERTEX
  5
1FE
  8
LAYER_01
 10
112.7707629025738
 20
429.0004230615121
 30
0.0
  0
VERTEX
  5
1FF
  8
LAYER_01
 10
174.4886794979655
 20
429.0004230615121
 30
0.0
  0
VERTEX
  5
200
  8
LAYER_01
 10
174.4886794979655
 20
414.3726970375833
 30
0.0
  0
SEQEND
  5
201
  8
LAYER_01
  0
POLYLINE
  5
202
  8
LAYER_01
 66
     1
 10
0.0
 20
0.0
 30
0.0
 70
     1
  0
VERTEX
  5
203
  8
LAYER_01
 10
356.9039553483083
 20
404.8182597313588
 30
0.0
  0
VERTEX
  5
204
  8
LAYER_01
 10
356.9039553483083
 20
359.1239629406977
 30
0.0
  0
VERTEX
  5
205
  8
LAYER_01
 10
378.0705107101945
 20
359.1239629406977
 30
0.0
  0
VERTEX
  5
206
  8
LAYER_01
 10
378.0705107101945
 20
404.8182597313588
 30
0.0
  0
SEQEND
  5
207
  8
LAYER_01
  0
POLYLINE
  5
208
  8
LAYER_01
 66
     1
 10
0.0
 20
0.0
 30
0.0
 70
     1
  0
VERTEX
  5
209
  8
LAYER_01
 10
360.5756682584209
 20
528.4452460984759
 30
0.0
  0
VERTEX
  5
20A
  8
LAYER_01
 10
360.5756682584209
 20
516.7145183110727
 30
0.0
  0
VERTEX
  5
20B
  8
LAYER_01
 10
375.5148002269943
 20
516.7145183110727
 30
0.0
  0
VERTEX
  5
20C
  8
LAYER_01
 10
375.5148002269943
 20
528.4452460984759
 30
0.0
  0
SEQEND
  5
20D
  8
LAYER_01
  0
POLYLINE
  5
20E
  8
LAYER_01
 66
     1
 10
0.0
 20
0.0
 30
0.0
 70
     1
  0
VERTEX
  5
20F
  8
LAYER_01
 10
252.0539383736906
 20
514.4735610400933
 30
0.0
  0
VERTEX
  5
210
  8
LAYER_01
 10
252.0539383736906
 20
460.0230378417916
 30
0.0
  0
VERTEX
  5
211
  8
LAYER_01
 10
271.3827386337775
 20
460.0230378417916
 30
0.0
  0
VERTEX
  5
212
  8
LAYER_01
 10
271.3827386337775
 20
514.4735610400933
 30
0.0
  0
SEQEND
  5
213
  8
LAYER_01
  0
POLYLINE
  5
214
  8
LAYER_01
 66
     1
 10
0.0
 20
0.0
 30
0.0
 70
     1
  0
VERTEX
  5
215
  8
LAYER_01
 10
207.2391969794895
 20
549.9156010987678
 30
0.0
  0
VERTEX
  5
216
  8
LAYER_01
 10
207.2391969794895
 20
460.0230378417916
 30
0.0
  0
VERTEX
  5
217
  8
LAYER_01
 10
226.2017859976959
 20
460.0230378417916
 30
0.0
  0
VERTEX
  5
218
  8
LAYER_01
 10
226.2017859976959
 20
549.9156010987678
 30
0.0
  0
SEQEND
  5
219
  8
LAYER_01
  0
POLYLINE
  5
21A
  8
LAYER_01
 66
     1
 10
0.0
 20
0.0
 30
0.0
 70
     1
  0
VERTEX
  5
21B
  8
LAYER_01
 10
384.9613223390184
 20
413.0425363338553
 30
0.0
  0
VERTEX
  5
21C
  8
LAYER_01
 10
360.575668258421
 20
413.0425363338553
 30
0.0
  0
VERTEX
  5
21D
  8
LAYER_01
 10
360.5756682584209
 20
490.6858863574488
 30
0.0
  0
VERTEX
  5
21E
  8
LAYER_01
 10
384.9613223390184
 20
490.6858863574488
 30
0.0
  0
SEQEND
  5
21F
  8
LAYER_01
  0
ENDSEC
  0
EOF
