  0
SECTION
  2
HEADER
  9
$ACADVER
  1
AC1009
  9
$DWGCODEPAGE
  3
ansi_1252
  9
$INSBASE
 10
0.0
 20
0.0
 30
0.0
  9
$EXTMIN
 10
1.000000000000000E+20
 20
1.000000000000000E+20
 30
1.000000000000000E+20
  9
$EXTMAX
 10
-1.000000000000000E+20
 20
-1.000000000000000E+20
 30
-1.000000000000000E+20
  9
$LIMMIN
 10
0.0
 20
0.0
  9
$LIMMAX
 10
12.0
 20
9.0
  9
$ORTHOMODE
 70
     0
  9
$REGENMODE
 70
     1
  9
$FILLMODE
 70
     1
  9
$QTEXTMODE
 70
     0
  9
$MIRRTEXT
 70
     1
  9
$DRAGMODE
 70
     2
  9
$LTSCALE
 40
1.0
  9
$OSMODE
 70
    37
  9
$ATTMODE
 70
     1
  9
$TEXTSIZE
 40
0.2
  9
$TRACEWID
 40
0.05
  9
$TEXTSTYLE
  7
STANDARD
  9
$CLAYER
  8
0
  9
$CELTYPE
  6
BYLAYER
  9
$CECOLOR
 62
   256
  9
$DIMSCALE
 40
1.0
  9
$DIMASZ
 40
0.18
  9
$DIMEXO
 40
0.0625
  9
$DIMDLI
 40
0.38
  9
$DIMRND
 40
0.0
  9
$DIMDLE
 40
0.0
  9
$DIMEXE
 40
0.18
  9
$DIMTP
 40
0.0
  9
$DIMTM
 40
0.0
  9
$DIMTXT
 40
0.18
  9
$DIMCEN
 40
0.09
  9
$DIMTSZ
 40
0.0
  9
$DIMTOL
 70
     0
  9
$DIMLIM
 70
     0
  9
$DIMTIH
 70
     1
  9
$DIMTOH
 70
     1
  9
$DIMSE1
 70
     0
  9
$DIMSE2
 70
     0
  9
$DIMTAD
 70
     0
  9
$DIMZIN
 70
     0
  9
$DIMBLK
  1

  9
$DIMASO
 70
     1
  9
$DIMSHO
 70
     1
  9
$DIMPOST
  1

  9
$DIMAPOST
  1

  9
$DIMALT
 70
     0
  9
$DIMALTD
 70
     2
  9
$DIMALTF
 40
25.4
  9
$DIMLFAC
 40
1.0
  9
$DIMTOFL
 70
     0
  9
$DIMTVP
 40
0.0
  9
$DIMTIX
 70
     0
  9
$DIMSOXD
 70
     0
  9
$DIMSAH
 70
     0
  9
$DIMBLK1
  1

  9
$DIMBLK2
  1

  9
$DIMSTYLE
  2
STANDARD_ACAD
  9
$DIMCLRD
 70
     0
  9
$DIMCLRE
 70
     0
  9
$DIMCLRT
 70
     0
  9
$DIMTFAC
 40
1.0
  9
$DIMGAP
 40
0.09
  9
$LUNITS
 70
     2
  9
$LUPREC
 70
     3
  9
$SKETCHINC
 40
0.1
  9
$FILLETRAD
 40
0.5
  9
$AUNITS
 70
     0
  9
$AUPREC
 70
     0
  9
$MENU
  1
.
  9
$ELEVATION
 40
0.0
  9
$PELEVATION
 40
0.0
  9
$THICKNESS
 40
0.0
  9
$LIMCHECK
 70
     0
  9
$CHAMFERA
 40
0.0
  9
$CHAMFERB
 40
0.0
  9
$SKPOLY
 70
     0
  9
$TDCREATE
 40
2460017.441057141
  9
$TDUPDATE
 40
2460017.441057176
  9
$TDINDWG
 40
0.0000000116
  9
$TDUSRTIMER
 40
0.0000000116
  9
$USRTIMER
 70
     1
  9
$ANGBASE
 50
0.0
  9
$ANGDIR
 70
     0
  9
$PDMODE
 70
     0
  9
$PDSIZE
 40
0.0
  9
$PLINEWID
 40
0.0
  9
$COORDS
 70
     1
  9
$SPLFRAME
 70
     0
  9
$SPLINETYPE
 70
     6
  9
$SPLINESEGS
 70
     8
  9
$ATTDIA
 70
     0
  9
$ATTREQ
 70
     1
  9
$HANDLING
 70
     1
  9
$HANDSEED
  5
1CB
  9
$SURFTAB1
 70
     6
  9
$SURFTAB2
 70
     6
  9
$SURFTYPE
 70
     6
  9
$SURFU
 70
     6
  9
$SURFV
 70
     6
  9
$UCSNAME
  2

  9
$UCSORG
 10
0.0
 20
0.0
 30
0.0
  9
$UCSXDIR
 10
1.0
 20
0.0
 30
0.0
  9
$UCSYDIR
 10
0.0
 20
1.0
 30
0.0
  9
$PUCSNAME
  2

  9
$PUCSORG
 10
0.0
 20
0.0
 30
0.0
  9
$PUCSXDIR
 10
1.0
 20
0.0
 30
0.0
  9
$PUCSYDIR
 10
0.0
 20
1.0
 30
0.0
  9
$USERI1
 70
     0
  9
$USERI2
 70
     0
  9
$USERI3
 70
     0
  9
$USERI4
 70
     0
  9
$USERI5
 70
     0
  9
$USERR1
 40
0.0
  9
$USERR2
 40
0.0
  9
$USERR3
 40
0.0
  9
$USERR4
 40
0.0
  9
$USERR5
 40
0.0
  9
$WORLDVIEW
 70
     1
  9
$SHADEDGE
 70
     3
  9
$SHADEDIF
 70
    70
  9
$TILEMODE
 70
     1
  9
$MAXACTVP
 70
    64
  9
$PLIMCHECK
 70
     0
  9
$PEXTMIN
 10
1.000000000000000E+20
 20
1.000000000000000E+20
 30
1.000000000000000E+20
  9
$PEXTMAX
 10
-1.000000000000000E+20
 20
-1.000000000000000E+20
 30
-1.000000000000000E+20
  9
$PLIMMIN
 10
0.0
 20
0.0
  9
$PLIMMAX
 10
12.0
 20
9.0
  9
$UNITMODE
 70
     0
  9
$VISRETAIN
 70
     1
  9
$PLINEGEN
 70
     0
  9
$PSLTSCALE
 70
     1
  0
ENDSEC
  0
SECTION
  2
TABLES
  0
TABLE
  2
VPORT
 70
     1
  0
VPORT
  2
*ACTIVE
 70
     0
 10
0.0
 20
0.0
 11
1.0
 21
1.0
 12
10.42990654205607
 22
4.5
 13
0.0
 23
0.0
 14
0.5
 24
0.5
 15
0.5
 25
0.5
 16
0.0
 26
0.0
 36
1.0
 17
0.0
 27
0.0
 37
0.0
 40
9.0
 41
1.972972972850329
 42
50.0
 43
0.0
 44
0.0
 50
0.0
 51
0.0
 71
     0
 72
   100
 73
     1
 74
     3
 75
     0
 76
     0
 77
     0
 78
     0
  0
ENDTAB
  0
TABLE
  2
LTYPE
 70
     1
  0
LTYPE
  2
CONTINUOUS
 70
     0
  3
Solid line
 72
    65
 73
     0
 40
0.0
  0
ENDTAB
  0
TABLE
  2
LAYER
 70
     1
  0
LAYER
  2
0
 70
     0
 62
     7
  6
CONTINUOUS
  0
ENDTAB
  0
TABLE
  2
STYLE
 70
     1
  0
STYLE
  2
STANDARD
 70
     0
 40
0.0
 41
1.0
 50
0.0
 71
     0
 42
0.2
  3
txt
  4

  0
ENDTAB
  0
TABLE
  2
VIEW
 70
     0
  0
ENDTAB
  0
TABLE
  2
UCS
 70
     0
  0
ENDTAB
  0
TABLE
  2
APPID
 70
     2
  0
APPID
  2
ACAD
 70
     0
  0
APPID
  2
RHINO
 70
     0
  0
ENDTAB
  0
TABLE
  2
DIMSTYLE
 70
     1
  0
DIMSTYLE
  2
STANDARD_ACAD
 70
     0
  3

  4

  5

  6

  7

 40
1.0
 41
0.18
 42
0.0625
 43
0.38
 44
0.18
 45
0.0
 46
0.0
 47
0.0
 48
0.0
140
0.18
141
0.09
142
0.0
143
25.4
144
1.0
145
0.0
146
1.0
147
0.09
 71
     0
 72
     0
 73
     1
 74
     1
 75
     0
 76
     0
 77
     0
 78
     0
170
     0
171
     2
172
     0
173
     0
174
     0
175
     0
176
     0
177
     0
178
     0
  0
ENDTAB
  0
ENDSEC
  0
SECTION
  2
BLOCKS
  0
BLOCK
  8
0
  2
$MODEL_SPACE
 70
     0
 10
0.0
 20
0.0
 30
0.0
  3
$MODEL_SPACE
  1

  0
ENDBLK
  5
21
  8
0
  0
BLOCK
 67
     1
  8
0
  2
$PAPER_SPACE
 70
     0
 10
0.0
 20
0.0
 30
0.0
  3
$PAPER_SPACE
  1

  0
ENDBLK
  5
1D
 67
     1
  8
0
  0
ENDSEC
  0
SECTION
  2
ENTITIES
  0
POLYLINE
  5
6F
  8
0
 66
     1
 10
0.0
 20
0.0
 30
0.0
 70
     1
  0
VERTEX
  5
70
  8
0
 10
6802.361899525536
 20
3212.354811034024
 30
0.0
  0
VERTEX
  5
71
  8
0
 10
7455.317885125358
 20
3212.354811034024
 30
0.0
  0
VERTEX
  5
72
  8
0
 10
7455.317885125358
 20
5172.061934899069
 30
0.0
  0
VERTEX
  5
73
  8
0
 10
6802.361899525536
 20
5172.061934899069
 30
0.0
  0
SEQEND
  5
74
  8
0
  0
POLYLINE
  5
75
  8
0
 66
     1
 10
0.0
 20
0.0
 30
0.0
 70
     1
  0
VERTEX
  5
76
  8
0
 10
7097.557854498767
 20
4554.269071457304
 30
0.0
  0
VERTEX
  5
77
  8
0
 10
7123.992540440227
 20
4440.920101543354
 30
0.0
  0
VERTEX
  5
78
  8
0
 10
7014.882232412494
 20
4531.932487569165
 30
0.0
  0
SEQEND
  5
79
  8
0
  0
POLYLINE
  5
7A
  8
0
 66
     1
 10
0.0
 20
0.0
 30
0.0
 70
     1
  0
VERTEX
  5
7B
  8
0
 10
7090.77199872943
 20
4583.3660602826
 30
0.0
  0
VERTEX
  5
7C
  8
0
 10
6965.492289500215
 20
4549.519072935351
 30
0.0
  0
VERTEX
  5
7D
  8
0
 10
7078.065275990448
 20
4637.851062927815
 30
0.0
  0
SEQEND
  5
7E
  8
0
  0
POLYLINE
  5
7F
  8
0
 66
     1
 10
0.0
 20
0.0
 30
0.0
 70
     1
  0
VERTEX
  5
80
  8
0
 10
7119.61564626345
 20
4591.15878728635
 30
0.0
  0
VERTEX
  5
81
  8
0
 10
7093.160694347118
 20
4704.594655428675
 30
0.0
  0
VERTEX
  5
82
  8
0
 10
7206.388770832806
 20
4614.602398925061
 30
0.0
  0
SEQEND
  5
83
  8
0
  0
POLYLINE
  5
84
  8
0
 66
     1
 10
0.0
 20
0.0
 30
0.0
 70
     1
  0
VERTEX
  5
85
  8
0
 10
7126.401502032786
 20
4562.061798461054
 30
0.0
  0
VERTEX
  5
86
  8
0
 10
7235.432459836715
 20
4591.518838806638
 30
0.0
  0
VERTEX
  5
87
  8
0
 10
7291.891215941938
 20
4546.646126852211
 30
0.0
  0
VERTEX
  5
88
  8
0
 10
7207.318881542782
 20
4371.414944243123
 30
0.0
  0
VERTEX
  5
89
  8
0
 10
7162.05864974384
 20
4409.167946343126
 30
0.0
  0
SEQEND
  5
8A
  8
0
  0
POLYLINE
  5
8B
  8
0
 66
     1
 10
0.0
 20
0.0
 30
0.0
 70
     1
  0
VERTEX
  5
8C
  8
0
 10
7425.45813041841
 20
3925.418673809001
 30
0.0
  0
VERTEX
  5
8D
  8
0
 10
7308.796195706006
 20
3889.340308935791
 30
0.0
  0
VERTEX
  5
8E
  8
0
 10
7280.919258861843
 20
3899.506979055459
 30
0.0
  0
VERTEX
  5
8F
  8
0
 10
7248.159236920589
 20
4039.978280648477
 30
0.0
  0
VERTEX
  5
90
  8
0
 10
7353.103442462549
 20
4273.831034060137
 30
0.0
  0
VERTEX
  5
91
  8
0
 10
7425.458130418411
 20
3935.728762014982
 30
0.0
  0
SEQEND
  5
92
  8
0
  0
POLYLINE
  5
93
  8
0
 66
     1
 10
0.0
 20
0.0
 30
0.0
 70
     1
  0
VERTEX
  5
94
  8
0
 10
6832.221654232482
 20
4444.946379363082
 30
0.0
  0
VERTEX
  5
95
  8
0
 10
6901.766994819533
 20
4499.516116919885
 30
0.0
  0
VERTEX
  5
96
  8
0
 10
6832.221654232483
 20
4261.967987274234
 30
0.0
  0
SEQEND
  5
97
  8
0
  0
POLYLINE
  5
98
  8
0
 66
     1
 10
0.0
 20
0.0
 30
0.0
 70
     1
  0
VERTEX
  5
99
  8
0
 10
7425.458130418411
 20
3705.767215421488
 30
0.0
  0
VERTEX
  5
9A
  8
0
 10
7425.458130418411
 20
3804.967716272046
 30
0.0
  0
VERTEX
  5
9B
  8
0
 10
7320.912016183268
 20
3728.022518962355
 30
0.0
  0
VERTEX
  5
9C
  8
0
 10
7346.483178766539
 20
3618.376240404909
 30
0.0
  0
SEQEND
  5
9D
  8
0
  0
POLYLINE
  5
9E
  8
0
 66
     1
 10
0.0
 20
0.0
 30
0.0
 70
     1
  0
VERTEX
  5
9F
  8
0
 10
7361.254776851152
 20
3311.642038739103
 30
0.0
  0
VERTEX
  5
A0
  8
0
 10
7327.065148480989
 20
3242.214565740971
 30
0.0
  0
VERTEX
  5
A1
  8
0
 10
7425.458130418411
 20
3242.214565740971
 30
0.0
  0
VERTEX
  5
A2
  8
0
 10
7425.458130418411
 20
3263.507032387819
 30
0.0
  0
SEQEND
  5
A3
  8
0
  0
POLYLINE
  5
A4
  8
0
 66
     1
 10
0.0
 20
0.0
 30
0.0
 70
     1
  0
VERTEX
  5
A5
  8
0
 10
6936.142384351835
 20
4510.659237036971
 30
0.0
  0
VERTEX
  5
A6
  8
0
 10
6851.816687548337
 20
4222.625396269965
 30
0.0
  0
VERTEX
  5
A7
  8
0
 10
6957.135090275106
 20
4235.207849023745
 30
0.0
  0
VERTEX
  5
A8
  8
0
 10
7029.798152773571
 20
4480.606683928678
 30
0.0
  0
VERTEX
  5
A9
  8
0
 10
6979.670926063478
 20
4522.419401628849
 30
0.0
  0
SEQEND
  5
AA
  8
0
  0
POLYLINE
  5
AB
  8
0
 66
     1
 10
0.0
 20
0.0
 30
0.0
 70
     1
  0
VERTEX
  5
AC
  8
0
 10
7304.036462482616
 20
4503.113446607191
 30
0.0
  0
VERTEX
  5
AD
  8
0
 10
7342.535577818565
 20
4323.213031933943
 30
0.0
  0
VERTEX
  5
AE
  8
0
 10
7321.445958345524
 20
4276.217911462971
 30
0.0
  0
VERTEX
  5
AF
  8
0
 10
7230.957862892898
 20
4351.696916361219
 30
0.0
  0
SEQEND
  5
B0
  8
0
  0
POLYLINE
  5
B1
  8
0
 66
     1
 10
0.0
 20
0.0
 30
0.0
 70
     1
  0
VERTEX
  5
B2
  8
0
 10
7332.094189272115
 20
4514.693307371128
 30
0.0
  0
VERTEX
  5
B3
  8
0
 10
7363.21159212902
 20
4369.28649402848
 30
0.0
  0
VERTEX
  5
B4
  8
0
 10
7403.12871993213
 20
4458.235952427209
 30
0.0
  0
SEQEND
  5
B5
  8
0
  0
POLYLINE
  5
B6
  8
0
 66
     1
 10
0.0
 20
0.0
 30
0.0
 70
     1
  0
VERTEX
  5
B7
  8
0
 10
7425.458130418411
 20
4078.418042831112
 30
0.0
  0
VERTEX
  5
B8
  8
0
 10
7425.458130418411
 20
4261.086586398504
 30
0.0
  0
VERTEX
  5
B9
  8
0
 10
7387.341165070875
 20
4256.532729682245
 30
0.0
  0
SEQEND
  5
BA
  8
0
  0
POLYLINE
  5
BB
  8
0
 66
     1
 10
0.0
 20
0.0
 30
0.0
 70
     1
  0
VERTEX
  5
BC
  8
0
 10
7330.367352726296
 20
3556.00804166062
 30
0.0
  0
VERTEX
  5
BD
  8
0
 10
7382.340417388219
 20
3333.153366717786
 30
0.0
  0
VERTEX
  5
BE
  8
0
 10
7231.304840568148
 20
3446.38886059098
 30
0.0
  0
SEQEND
  5
BF
  8
0
  0
POLYLINE
  5
C0
  8
0
 66
     1
 10
0.0
 20
0.0
 30
0.0
 70
     1
  0
VERTEX
  5
C1
  8
0
 10
7336.945743705332
 20
3329.867184309448
 30
0.0
  0
VERTEX
  5
C2
  8
0
 10
7211.200359369351
 20
3424.141930679453
 30
0.0
  0
VERTEX
  5
C3
  8
0
 10
7046.793166893894
 20
3242.214565740971
 30
0.0
  0
VERTEX
  5
C4
  8
0
 10
7293.781124209414
 20
3242.214565740971
 30
0.0
  0
SEQEND
  5
C5
  8
0
  0
POLYLINE
  5
C6
  8
0
 66
     1
 10
0.0
 20
0.0
 30
0.0
 70
     1
  0
VERTEX
  5
C7
  8
0
 10
6865.168853326613
 20
3720.89100248988
 30
0.0
  0
VERTEX
  5
C8
  8
0
 10
7105.604592123874
 20
3795.247118169531
 30
0.0
  0
VERTEX
  5
C9
  8
0
 10
7020.107456004858
 20
3604.729303612834
 30
0.0
  0
SEQEND
  5
CA
  8
0
  0
POLYLINE
  5
CB
  8
0
 66
     1
 10
0.0
 20
0.0
 30
0.0
 70
     1
  0
VERTEX
  5
CC
  8
0
 10
6832.221654232484
 20
3405.425138601178
 30
0.0
  0
VERTEX
  5
CD
  8
0
 10
6979.218167615428
 20
3513.613528086871
 30
0.0
  0
VERTEX
  5
CE
  8
0
 10
7007.575958421347
 20
3576.804701209664
 30
0.0
  0
VERTEX
  5
CF
  8
0
 10
6896.985700604084
 20
3659.717235628096
 30
0.0
  0
VERTEX
  5
D0
  8
0
 10
6832.221654232483
 20
3525.52819476891
 30
0.0
  0
SEQEND
  5
D1
  8
0
  0
POLYLINE
  5
D2
  8
0
 66
     1
 10
0.0
 20
0.0
 30
0.0
 70
     1
  0
VERTEX
  5
D3
  8
0
 10
7028.087689053353
 20
3549.581148662551
 30
0.0
  0
VERTEX
  5
D4
  8
0
 10
7143.60731606017
 20
3806.999676051666
 30
0.0
  0
VERTEX
  5
D5
  8
0
 10
7263.206466789067
 20
3843.986391634264
 30
0.0
  0
VERTEX
  5
D6
  8
0
 10
7287.36299000613
 20
3740.40592809405
 30
0.0
  0
SEQEND
  5
D7
  8
0
  0
POLYLINE
  5
D8
  8
0
 66
     1
 10
0.0
 20
0.0
 30
0.0
 70
     1
  0
VERTEX
  5
D9
  8
0
 10
6882.182149340439
 20
3297.383008864569
 30
0.0
  0
VERTEX
  5
DA
  8
0
 10
6836.961009718682
 20
3371.838016524633
 30
0.0
  0
VERTEX
  5
DB
  8
0
 10
6954.374800637572
 20
3458.253732452753
 30
0.0
  0
SEQEND
  5
DC
  8
0
  0
POLYLINE
  5
DD
  8
0
 66
     1
 10
0.0
 20
0.0
 30
0.0
 70
     1
  0
VERTEX
  5
DE
  8
0
 10
7247.407992253894
 20
3911.728479387429
 30
0.0
  0
VERTEX
  5
DF
  8
0
 10
7198.594551211273
 20
3929.530655977361
 30
0.0
  0
VERTEX
  5
E0
  8
0
 10
7227.983332935673
 20
3995.019240984728
 30
0.0
  0
SEQEND
  5
E1
  8
0
  0
POLYLINE
  5
E2
  8
0
 66
     1
 10
0.0
 20
0.0
 30
0.0
 70
     1
  0
VERTEX
  5
E3
  8
0
 10
7236.967058515944
 20
4087.969086972746
 30
0.0
  0
VERTEX
  5
E4
  8
0
 10
7308.378506411806
 20
4247.099013482919
 30
0.0
  0
VERTEX
  5
E5
  8
0
 10
7202.797303981376
 20
4234.485163890888
 30
0.0
  0
SEQEND
  5
E6
  8
0
  0
POLYLINE
  5
E7
  8
0
 66
     1
 10
0.0
 20
0.0
 30
0.0
 70
     1
  0
VERTEX
  5
E8
  8
0
 10
7166.144249445739
 20
4260.178298653471
 30
0.0
  0
VERTEX
  5
E9
  8
0
 10
6989.418379389611
 20
4239.064752940847
 30
0.0
  0
VERTEX
  5
EA
  8
0
 10
7054.771329399205
 20
4459.775761237439
 30
0.0
  0
VERTEX
  5
EB
  8
0
 10
7135.250996094223
 20
4392.645105803729
 30
0.0
  0
SEQEND
  5
EC
  8
0
  0
POLYLINE
  5
ED
  8
0
 66
     1
 10
0.0
 20
0.0
 30
0.0
 70
     1
  0
VERTEX
  5
EE
  8
0
 10
7141.924248533576
 20
4703.980100431025
 30
0.0
  0
VERTEX
  5
EF
  8
0
 10
7305.1961892419
 20
4574.213607666101
 30
0.0
  0
VERTEX
  5
F0
  8
0
 10
7325.952399010588
 20
4617.21981306518
 30
0.0
  0
SEQEND
  5
F1
  8
0
  0
POLYLINE
  5
F2
  8
0
 66
     1
 10
0.0
 20
0.0
 30
0.0
 70
     1
  0
VERTEX
  5
F3
  8
0
 10
7425.45813041841
 20
4603.319514201939
 30
0.0
  0
VERTEX
  5
F4
  8
0
 10
7372.144194489644
 20
4628.454431820763
 30
0.0
  0
VERTEX
  5
F5
  8
0
 10
7425.458130418411
 20
4642.858329514294
 30
0.0
  0
SEQEND
  5
F6
  8
0
  0
POLYLINE
  5
F7
  8
0
 66
     1
 10
0.0
 20
0.0
 30
0.0
 70
     1
  0
VERTEX
  5
F8
  8
0
 10
7425.45813041841
 20
4754.695274375321
 30
0.0
  0
VERTEX
  5
F9
  8
0
 10
7380.554835935068
 20
4661.657078714035
 30
0.0
  0
VERTEX
  5
FA
  8
0
 10
7425.458130418411
 20
4673.788662109129
 30
0.0
  0
SEQEND
  5
FB
  8
0
  0
POLYLINE
  5
FC
  8
0
 66
     1
 10
0.0
 20
0.0
 30
0.0
 70
     1
  0
VERTEX
  5
FD
  8
0
 10
7239.903936261483
 20
4802.794827868725
 30
0.0
  0
VERTEX
  5
FE
  8
0
 10
7150.743676351036
 20
4732.833965750013
 30
0.0
  0
VERTEX
  5
FF
  8
0
 10
7078.647975096508
 20
4766.823568658434
 30
0.0
  0
VERTEX
  5
100
  8
0
 10
7049.977037193507
 20
4889.761336293299
 30
0.0
  0
VERTEX
  5
101
  8
0
 10
7165.527092302422
 20
5028.188987344491
 30
0.0
  0
VERTEX
  5
102
  8
0
 10
7191.169821095906
 20
5030.521814593392
 30
0.0
  0
SEQEND
  5
103
  8
0
  0
POLYLINE
  5
104
  8
0
 66
     1
 10
0.0
 20
0.0
 30
0.0
 70
     1
  0
VERTEX
  5
105
  8
0
 10
7387.472033603233
 20
5142.202180192122
 30
0.0
  0
VERTEX
  5
106
  8
0
 10
7425.458130418411
 20
5111.76269417529
 30
0.0
  0
VERTEX
  5
107
  8
0
 10
7425.458130418411
 20
5142.202180192122
 30
0.0
  0
SEQEND
  5
108
  8
0
  0
POLYLINE
  5
109
  8
0
 66
     1
 10
0.0
 20
0.0
 30
0.0
 70
     1
  0
VERTEX
  5
10A
  8
0
 10
7026.011668347593
 20
4861.051097143796
 30
0.0
  0
VERTEX
  5
10B
  8
0
 10
7044.604071190724
 20
4781.328958013373
 30
0.0
  0
VERTEX
  5
10C
  8
0
 10
6993.421388579209
 20
4822.008312861379
 30
0.0
  0
SEQEND
  5
10D
  8
0
  0
POLYLINE
  5
10E
  8
0
 66
     1
 10
0.0
 20
0.0
 30
0.0
 70
     1
  0
VERTEX
  5
10F
  8
0
 10
7083.390503745787
 20
5020.716675272721
 30
0.0
  0
VERTEX
  5
110
  8
0
 10
7025.473613137639
 20
4994.829271741752
 30
0.0
  0
VERTEX
  5
111
  8
0
 10
7041.483170301319
 20
4926.182085340515
 30
0.0
  0
VERTEX
  5
112
  8
0
 10
7123.435223466951
 20
5024.359712411728
 30
0.0
  0
SEQEND
  5
113
  8
0
  0
POLYLINE
  5
114
  8
0
 66
     1
 10
0.0
 20
0.0
 30
0.0
 70
     1
  0
VERTEX
  5
115
  8
0
 10
7023.960051031981
 20
4759.594459688513
 30
0.0
  0
VERTEX
  5
116
  8
0
 10
7055.523341245956
 20
4734.508352097582
 30
0.0
  0
VERTEX
  5
117
  8
0
 10
7070.582895341959
 20
4669.934672352514
 30
0.0
  0
VERTEX
  5
118
  8
0
 10
6956.63161491105
 20
4580.521184477031
 30
0.0
  0
VERTEX
  5
119
  8
0
 10
6859.485112767828
 20
4661.554178645363
 30
0.0
  0
VERTEX
  5
11A
  8
0
 10
6964.65942594073
 20
4787.551808934022
 30
0.0
  0
SEQEND
  5
11B
  8
0
  0
POLYLINE
  5
11C
  8
0
 66
     1
 10
0.0
 20
0.0
 30
0.0
 70
     1
  0
VERTEX
  5
11D
  8
0
 10
6832.221654232483
 20
4628.892865580458
 30
0.0
  0
VERTEX
  5
11E
  8
0
 10
6832.221654232483
 20
4513.51316636501
 30
0.0
  0
VERTEX
  5
11F
  8
0
 10
6891.721066877304
 20
4529.588202612687
 30
0.0
  0
VERTEX
  5
120
  8
0
 10
6932.611319792313
 20
4561.673319334639
 30
0.0
  0
VERTEX
  5
121
  8
0
 10
6840.350440855183
 20
4638.63105944818
 30
0.0
  0
SEQEND
  5
122
  8
0
  0
POLYLINE
  5
123
  8
0
 66
     1
 10
0.0
 20
0.0
 30
0.0
 70
     1
  0
VERTEX
  5
124
  8
0
 10
6991.51763570129
 20
5012.358612769507
 30
0.0
  0
VERTEX
  5
125
  8
0
 10
6832.221654232483
 20
4997.866785117167
 30
0.0
  0
VERTEX
  5
126
  8
0
 10
6832.221654232483
 20
4950.127841973739
 30
0.0
  0
VERTEX
  5
127
  8
0
 10
6839.445704147382
 20
4944.38625761486
 30
0.0
  0
SEQEND
  5
128
  8
0
  0
POLYLINE
  5
129
  8
0
 66
     1
 10
0.0
 20
0.0
 30
0.0
 70
     1
  0
VERTEX
  5
12A
  8
0
 10
6843.232040029141
 20
3745.36195368388
 30
0.0
  0
VERTEX
  5
12B
  8
0
 10
6916.030836321232
 20
3767.875394262689
 30
0.0
  0
VERTEX
  5
12C
  8
0
 10
7011.621363702764
 20
3965.93592171881
 30
0.0
  0
VERTEX
  5
12D
  8
0
 10
6918.590603637467
 20
3999.864077235074
 30
0.0
  0
SEQEND
  5
12E
  8
0
  0
POLYLINE
  5
12F
  8
0
 66
     1
 10
0.0
 20
0.0
 30
0.0
 70
     1
  0
VERTEX
  5
130
  8
0
 10
7172.967406036236
 20
4230.921368088566
 30
0.0
  0
VERTEX
  5
131
  8
0
 10
7216.79115453103
 20
4043.010047308997
 30
0.0
  0
VERTEX
  5
132
  8
0
 10
7170.469026241004
 20
3939.787985751922
 30
0.0
  0
VERTEX
  5
133
  8
0
 10
7052.85834764315
 20
3982.680394574989
 30
0.0
  0
VERTEX
  5
134
  8
0
 10
7172.649265252436
 20
4230.883359618276
 30
0.0
  0
SEQEND
  5
135
  8
0
  0
POLYLINE
  5
136
  8
0
 66
     1
 10
0.0
 20
0.0
 30
0.0
 70
     1
  0
VERTEX
  5
137
  8
0
 10
7389.078697571322
 20
3435.731430848088
 30
0.0
  0
VERTEX
  5
138
  8
0
 10
7425.458130418411
 20
3509.605649787618
 30
0.0
  0
VERTEX
  5
139
  8
0
 10
7425.458130418411
 20
3661.232237481978
 30
0.0
  0
VERTEX
  5
13A
  8
0
 10
7354.738876380882
 20
3582.976734521648
 30
0.0
  0
SEQEND
  5
13B
  8
0
  0
POLYLINE
  5
13C
  8
0
 66
     1
 10
0.0
 20
0.0
 30
0.0
 70
     1
  0
VERTEX
  5
13D
  8
0
 10
7291.804889316454
 20
3852.830615976035
 30
0.0
  0
VERTEX
  5
13E
  8
0
 10
7313.53221248685
 20
3759.666289915736
 30
0.0
  0
VERTEX
  5
13F
  8
0
 10
7425.458130418411
 20
3842.0429703148
 30
0.0
  0
VERTEX
  5
140
  8
0
 10
7425.458130418411
 20
3894.163638704061
 30
0.0
  0
SEQEND
  5
141
  8
0
  0
POLYLINE
  5
142
  8
0
 66
     1
 10
0.0
 20
0.0
 30
0.0
 70
     1
  0
VERTEX
  5
143
  8
0
 10
7294.742793702548
 20
3708.762157140668
 30
0.0
  0
VERTEX
  5
144
  8
0
 10
7322.111655111953
 20
3591.407547543881
 30
0.0
  0
VERTEX
  5
145
  8
0
 10
7207.313489291379
 20
3464.375831394202
 30
0.0
  0
VERTEX
  5
146
  8
0
 10
7086.133888650068
 20
3555.227485122927
 30
0.0
  0
SEQEND
  5
147
  8
0
  0
POLYLINE
  5
148
  8
0
 66
     1
 10
0.0
 20
0.0
 30
0.0
 70
     1
  0
VERTEX
  5
149
  8
0
 10
7399.775540087866
 20
3389.864569283431
 30
0.0
  0
VERTEX
  5
14A
  8
0
 10
7425.458130418411
 20
3279.740501037041
 30
0.0
  0
VERTEX
  5
14B
  8
0
 10
7425.458130418411
 20
3442.017149808468
 30
0.0
  0
SEQEND
  5
14C
  8
0
  0
POLYLINE
  5
14D
  8
0
 66
     1
 10
0.0
 20
0.0
 30
0.0
 70
     1
  0
VERTEX
  5
14E
  8
0
 10
7061.014886780928
 20
3536.740078209878
 30
0.0
  0
VERTEX
  5
14F
  8
0
 10
7187.209008092581
 20
3442.128901482673
 30
0.0
  0
VERTEX
  5
150
  8
0
 10
7006.547046182656
 20
3242.214565740971
 30
0.0
  0
VERTEX
  5
151
  8
0
 10
6915.689363262133
 20
3242.214565740971
 30
0.0
  0
VERTEX
  5
152
  8
0
 10
6901.003920061728
 20
3266.393628788103
 30
0.0
  0
VERTEX
  5
153
  8
0
 10
7003.244322075496
 20
3494.221353028433
 30
0.0
  0
SEQEND
  5
154
  8
0
  0
POLYLINE
  5
155
  8
0
 66
     1
 10
0.0
 20
0.0
 30
0.0
 70
     1
  0
VERTEX
  5
156
  8
0
 10
6880.753596308683
 20
3242.214565740971
 30
0.0
  0
VERTEX
  5
157
  8
0
 10
6832.221654232483
 20
3322.120692593704
 30
0.0
  0
VERTEX
  5
158
  8
0
 10
6832.221654232483
 20
3242.214565740971
 30
0.0
  0
SEQEND
  5
159
  8
0
  0
POLYLINE
  5
15A
  8
0
 66
     1
 10
0.0
 20
0.0
 30
0.0
 70
     1
  0
VERTEX
  5
15B
  8
0
 10
6872.639613020772
 20
3677.970161921486
 30
0.0
  0
VERTEX
  5
15C
  8
0
 10
6832.221654232482
 20
3708.272608676735
 30
0.0
  0
VERTEX
  5
15D
  8
0
 10
6832.221654232483
 20
3594.225438928618
 30
0.0
  0
SEQEND
  5
15E
  8
0
  0
POLYLINE
  5
15F
  8
0
 66
     1
 10
0.0
 20
0.0
 30
0.0
 70
     1
  0
VERTEX
  5
160
  8
0
 10
7039.814490318059
 20
3955.65393774252
 30
0.0
  0
VERTEX
  5
161
  8
0
 10
6955.003297946649
 20
3779.927849024347
 30
0.0
  0
VERTEX
  5
162
  8
0
 10
7121.890911640217
 20
3831.538789940927
 30
0.0
  0
VERTEX
  5
163
  8
0
 10
7158.21183438942
 20
3912.474633396878
 30
0.0
  0
SEQEND
  5
164
  8
0
  0
POLYLINE
  5
165
  8
0
 66
     1
 10
0.0
 20
0.0
 30
0.0
 70
     1
  0
VERTEX
  5
166
  8
0
 10
7261.636400730513
 20
3874.755874907107
 30
0.0
  0
VERTEX
  5
167
  8
0
 10
7186.33735935969
 20
3902.217303622316
 30
0.0
  0
VERTEX
  5
168
  8
0
 10
7159.893635576514
 20
3843.291347823064
 30
0.0
  0
SEQEND
  5
169
  8
0
  0
POLYLINE
  5
16A
  8
0
 66
     1
 10
0.0
 20
0.0
 30
0.0
 70
     1
  0
VERTEX
  5
16B
  8
0
 10
6890.484471785492
 20
4010.114334373305
 30
0.0
  0
VERTEX
  5
16C
  8
0
 10
6832.221654232483
 20
4031.362682052792
 30
0.0
  0
VERTEX
  5
16D
  8
0
 10
6832.221654232483
 20
3813.348232668068
 30
0.0
  0
SEQEND
  5
16E
  8
0
  0
POLYLINE
  5
16F
  8
0
 66
     1
 10
0.0
 20
0.0
 30
0.0
 70
     1
  0
VERTEX
  5
170
  8
0
 10
7137.464973000146
 20
4226.679871116003
 30
0.0
  0
VERTEX
  5
171
  8
0
 10
7024.665221027856
 20
3992.96237855128
 30
0.0
  0
VERTEX
  5
172
  8
0
 10
6927.08452660581
 20
4028.549887171143
 30
0.0
  0
VERTEX
  5
173
  8
0
 10
6980.187424749229
 20
4207.889828076404
 30
0.0
  0
SEQEND
  5
174
  8
0
  0
POLYLINE
  5
175
  8
0
 66
     1
 10
0.0
 20
0.0
 30
0.0
 70
     1
  0
VERTEX
  5
176
  8
0
 10
6898.978394753835
 20
4038.800144309373
 30
0.0
  0
VERTEX
  5
177
  8
0
 10
6947.904135634723
 20
4204.032924159301
 30
0.0
  0
VERTEX
  5
178
  8
0
 10
6842.693590591891
 20
4191.463357227723
 30
0.0
  0
VERTEX
  5
179
  8
0
 10
6832.221654232483
 20
4155.694046516937
 30
0.0
  0
VERTEX
  5
17A
  8
0
 10
6832.221654232483
 20
4063.146210842397
 30
0.0
  0
SEQEND
  5
17B
  8
0
  0
POLYLINE
  5
17C
  8
0
 66
     1
 10
0.0
 20
0.0
 30
0.0
 70
     1
  0
VERTEX
  5
17D
  8
0
 10
7173.317105397835
 20
4360.892950603502
 30
0.0
  0
VERTEX
  5
17E
  8
0
 10
7195.97414739088
 20
4263.742094455794
 30
0.0
  0
VERTEX
  5
17F
  8
0
 10
7278.033388099422
 20
4273.545761170195
 30
0.0
  0
SEQEND
  5
180
  8
0
  0
POLYLINE
  5
181
  8
0
 66
     1
 10
0.0
 20
0.0
 30
0.0
 70
     1
  0
VERTEX
  5
182
  8
0
 10
7373.779456773003
 20
4319.90449615467
 30
0.0
  0
VERTEX
  5
183
  8
0
 10
7381.066099514442
 20
4285.855141011787
 30
0.0
  0
VERTEX
  5
184
  8
0
 10
7425.458130418411
 20
4291.158683574455
 30
0.0
  0
VERTEX
  5
185
  8
0
 10
7425.458130418411
 20
4435.062832550946
 30
0.0
  0
SEQEND
  5
186
  8
0
  0
POLYLINE
  5
187
  8
0
 66
     1
 10
0.0
 20
0.0
 30
0.0
 70
     1
  0
VERTEX
  5
188
  8
0
 10
7329.159600649604
 20
4555.167788527981
 30
0.0
  0
VERTEX
  5
189
  8
0
 10
7415.745435919049
 20
4486.350451530012
 30
0.0
  0
VERTEX
  5
18A
  8
0
 10
7425.458130418411
 20
4507.993765136442
 30
0.0
  0
VERTEX
  5
18B
  8
0
 10
7425.458130418411
 20
4570.307719295211
 30
0.0
  0
VERTEX
  5
18C
  8
0
 10
7352.962197885693
 20
4604.486011709118
 30
0.0
  0
SEQEND
  5
18D
  8
0
  0
POLYLINE
  5
18E
  8
0
 66
     1
 10
0.0
 20
0.0
 30
0.0
 70
     1
  0
VERTEX
  5
18F
  8
0
 10
7342.427759565233
 20
4651.356235270054
 30
0.0
  0
VERTEX
  5
190
  8
0
 10
7425.458130418411
 20
4823.392518535031
 30
0.0
  0
VERTEX
  5
191
  8
0
 10
7425.458130418411
 20
4910.437791747045
 30
0.0
  0
VERTEX
  5
192
  8
0
 10
7273.004023970677
 20
4790.812515515971
 30
0.0
  0
VERTEX
  5
193
  8
0
 10
7300.52306343756
 20
4662.220298050677
 30
0.0
  0
VERTEX
  5
194
  8
0
 10
7330.437892538273
 20
4648.116916787809
 30
0.0
  0
SEQEND
  5
195
  8
0
  0
POLYLINE
  5
196
  8
0
 66
     1
 10
0.0
 20
0.0
 30
0.0
 70
     1
  0
VERTEX
  5
197
  8
0
 10
7180.959663637201
 20
4718.588603107422
 30
0.0
  0
VERTEX
  5
198
  8
0
 10
7246.858530627713
 20
4770.297083454308
 30
0.0
  0
VERTEX
  5
199
  8
0
 10
7266.560699396822
 20
4678.231894407865
 30
0.0
  0
SEQEND
  5
19A
  8
0
  0
POLYLINE
  5
19B
  8
0
 66
     1
 10
0.0
 20
0.0
 30
0.0
 70
     1
  0
VERTEX
  5
19C
  8
0
 10
7425.458130418411
 20
4948.392557238296
 30
0.0
  0
VERTEX
  5
19D
  8
0
 10
7425.458130418411
 20
5051.836010773068
 30
0.0
  0
VERTEX
  5
19E
  8
0
 10
7221.122525370569
 20
5033.246738499618
 30
0.0
  0
VERTEX
  5
19F
  8
0
 10
7266.049429604448
 20
4823.310259930387
 30
0.0
  0
SEQEND
  5
1A0
  8
0
  0
POLYLINE
  5
1A1
  8
0
 66
     1
 10
0.0
 20
0.0
 30
0.0
 70
     1
  0
VERTEX
  5
1A2
  8
0
 10
7416.133544253653
 20
5080.970778189723
 30
0.0
  0
VERTEX
  5
1A3
  8
0
 10
7345.258588778695
 20
5137.765168690552
 30
0.0
  0
VERTEX
  5
1A4
  8
0
 10
7167.612404602942
 20
5058.361761373522
 30
0.0
  0
SEQEND
  5
1A5
  8
0
  0
POLYLINE
  5
1A6
  8
0
 66
     1
 10
0.0
 20
0.0
 30
0.0
 70
     1
  0
VERTEX
  5
1A7
  8
0
 10
7075.739536558443
 20
5050.003698870309
 30
0.0
  0
VERTEX
  5
1A8
  8
0
 10
7282.011646875138
 20
5142.202180192122
 30
0.0
  0
VERTEX
  5
1A9
  8
0
 10
6991.104032592508
 20
5142.202180192122
 30
0.0
  0
VERTEX
  5
1AA
  8
0
 10
7013.917751682546
 20
5044.379510216453
 30
0.0
  0
SEQEND
  5
1AB
  8
0
  0
POLYLINE
  5
1AC
  8
0
 66
     1
 10
0.0
 20
0.0
 30
0.0
 70
     1
  0
VERTEX
  5
1AD
  8
0
 10
6836.555220078972
 20
4680.680733071351
 30
0.0
  0
VERTEX
  5
1AE
  8
0
 10
6936.748083988083
 20
4800.710643831299
 30
0.0
  0
VERTEX
  5
1AF
  8
0
 10
6832.221654232483
 20
4849.98975172547
 30
0.0
  0
VERTEX
  5
1B0
  8
0
 10
6832.221654232483
 20
4684.295498484613
 30
0.0
  0
SEQEND
  5
1B1
  8
0
  0
POLYLINE
  5
1B2
  8
0
 66
     1
 10
0.0
 20
0.0
 30
0.0
 70
     1
  0
VERTEX
  5
1B3
  8
0
 10
7017.517801455404
 20
4897.471846191009
 30
0.0
  0
VERTEX
  5
1B4
  8
0
 10
6997.707011150958
 20
4982.418294170868
 30
0.0
  0
VERTEX
  5
1B5
  8
0
 10
6865.784730326844
 20
4923.452329621328
 30
0.0
  0
VERTEX
  5
1B6
  8
0
 10
6970.038779190019
 20
4840.592517832323
 30
0.0
  0
SEQEND
  5
1B7
  8
0
  0
POLYLINE
  5
1B8
  8
0
 66
     1
 10
0.0
 20
0.0
 30
0.0
 70
     1
  0
VERTEX
  5
1B9
  8
0
 10
6921.862652331838
 20
4840.74019294961
 30
0.0
  0
VERTEX
  5
1BA
  8
0
 10
6835.068625534789
 20
4909.722997965191
 30
0.0
  0
VERTEX
  5
1BB
  8
0
 10
6832.221654232483
 20
4908.450472900913
 30
0.0
  0
VERTEX
  5
1BC
  8
0
 10
6832.221654232483
 20
4883.001546632197
 30
0.0
  0
SEQEND
  5
1BD
  8
0
  0
POLYLINE
  5
1BE
  8
0
 66
     1
 10
0.0
 20
0.0
 30
0.0
 70
     1
  0
VERTEX
  5
1BF
  8
0
 10
6832.221654232482
 20
5027.849849486345
 30
0.0
  0
VERTEX
  5
1C0
  8
0
 10
6983.893729308867
 20
5041.648098201804
 30
0.0
  0
VERTEX
  5
1C1
  8
0
 10
6960.443003823106
 20
5142.202180192122
 30
0.0
  0
VERTEX
  5
1C2
  8
0
 10
6832.221654232483
 20
5142.202180192122
 30
0.0
  0
SEQEND
  5
1C3
  8
0
  0
ENDSEC
  0
EOF
