  0
SECTION
  2
HEADER
  9
$ACADVER
  1
AC1009
  9
$DWGCODEPAGE
  3
ansi_1252
  9
$INSBASE
 10
0.0
 20
0.0
 30
0.0
  9
$EXTMIN
 10
6646.421755246134
 20
1531.564129434627
 30
0.0
  9
$EXTMAX
 10
8146.913289410606
 20
3032.05566359909
 30
0.0
  9
$LIMMIN
 10
0.0
 20
0.0
  9
$LIMMAX
 10
12.0
 20
9.0
  9
$ORTHOMODE
 70
     0
  9
$REGENMODE
 70
     1
  9
$FILLMODE
 70
     1
  9
$QTEXTMODE
 70
     0
  9
$MIRRTEXT
 70
     1
  9
$DRAGMODE
 70
     2
  9
$LTSCALE
 40
1.0
  9
$OSMODE
 70
    37
  9
$ATTMODE
 70
     1
  9
$TEXTSIZE
 40
0.2
  9
$TRACEWID
 40
0.05
  9
$TEXTSTYLE
  7
STANDARD
  9
$CLAYER
  8
DEFAULT_LAYER
  9
$CELTYPE
  6
BYLAYER
  9
$CECOLOR
 62
   256
  9
$DIMSCALE
 40
1.0
  9
$DIMASZ
 40
0.18
  9
$DIMEXO
 40
0.0625
  9
$DIMDLI
 40
0.38
  9
$DIMRND
 40
0.0
  9
$DIMDLE
 40
0.0
  9
$DIMEXE
 40
0.18
  9
$DIMTP
 40
0.0
  9
$DIMTM
 40
0.0
  9
$DIMTXT
 40
0.18
  9
$DIMCEN
 40
0.09
  9
$DIMTSZ
 40
0.0
  9
$DIMTOL
 70
     0
  9
$DIMLIM
 70
     0
  9
$DIMTIH
 70
     1
  9
$DIMTOH
 70
     1
  9
$DIMSE1
 70
     0
  9
$DIMSE2
 70
     0
  9
$DIMTAD
 70
     0
  9
$DIMZIN
 70
     0
  9
$DIMBLK
  1

  9
$DIMASO
 70
     1
  9
$DIMSHO
 70
     1
  9
$DIMPOST
  1

  9
$DIMAPOST
  1

  9
$DIMALT
 70
     0
  9
$DIMALTD
 70
     2
  9
$DIMALTF
 40
25.4
  9
$DIMLFAC
 40
1.0
  9
$DIMTOFL
 70
     0
  9
$DIMTVP
 40
0.0
  9
$DIMTIX
 70
     0
  9
$DIMSOXD
 70
     0
  9
$DIMSAH
 70
     0
  9
$DIMBLK1
  1

  9
$DIMBLK2
  1

  9
$DIMSTYLE
  2
STANDARD_ACAD
  9
$DIMCLRD
 70
     0
  9
$DIMCLRE
 70
     0
  9
$DIMCLRT
 70
     0
  9
$DIMTFAC
 40
1.0
  9
$DIMGAP
 40
0.09
  9
$LUNITS
 70
     2
  9
$LUPREC
 70
     3
  9
$SKETCHINC
 40
0.1
  9
$FILLETRAD
 40
0.0
  9
$AUNITS
 70
     0
  9
$AUPREC
 70
     0
  9
$MENU
  1
.
  9
$ELEVATION
 40
0.0
  9
$PELEVATION
 40
0.0
  9
$THICKNESS
 40
0.0
  9
$LIMCHECK
 70
     0
  9
$CHAMFERA
 40
0.0
  9
$CHAMFERB
 40
0.0
  9
$SKPOLY
 70
     0
  9
$TDCREATE
 40
2460668.767916922
  9
$TDUPDATE
 40
2460668.767917975
  9
$TDINDWG
 40
0.0000000116
  9
$TDUSRTIMER
 40
0.0000000116
  9
$USRTIMER
 70
     1
  9
$ANGBASE
 50
0.0
  9
$ANGDIR
 70
     0
  9
$PDMODE
 70
     0
  9
$PDSIZE
 40
0.0
  9
$PLINEWID
 40
0.0
  9
$COORDS
 70
     1
  9
$SPLFRAME
 70
     0
  9
$SPLINETYPE
 70
     6
  9
$SPLINESEGS
 70
     8
  9
$ATTDIA
 70
     0
  9
$ATTREQ
 70
     1
  9
$HANDLING
 70
     1
  9
$HANDSEED
  5
387
  9
$SURFTAB1
 70
     6
  9
$SURFTAB2
 70
     6
  9
$SURFTYPE
 70
     6
  9
$SURFU
 70
     6
  9
$SURFV
 70
     6
  9
$UCSNAME
  2

  9
$UCSORG
 10
0.0
 20
0.0
 30
0.0
  9
$UCSXDIR
 10
1.0
 20
0.0
 30
0.0
  9
$UCSYDIR
 10
0.0
 20
1.0
 30
0.0
  9
$PUCSNAME
  2

  9
$PUCSORG
 10
0.0
 20
0.0
 30
0.0
  9
$PUCSXDIR
 10
1.0
 20
0.0
 30
0.0
  9
$PUCSYDIR
 10
0.0
 20
1.0
 30
0.0
  9
$USERI1
 70
     0
  9
$USERI2
 70
     0
  9
$USERI3
 70
     0
  9
$USERI4
 70
     0
  9
$USERI5
 70
     0
  9
$USERR1
 40
0.0
  9
$USERR2
 40
0.0
  9
$USERR3
 40
0.0
  9
$USERR4
 40
0.0
  9
$USERR5
 40
0.0
  9
$WORLDVIEW
 70
     1
  9
$SHADEDGE
 70
     3
  9
$SHADEDIF
 70
    70
  9
$TILEMODE
 70
     1
  9
$MAXACTVP
 70
    64
  9
$PLIMCHECK
 70
     0
  9
$PEXTMIN
 10
1.000000000000000E+20
 20
1.000000000000000E+20
 30
1.000000000000000E+20
  9
$PEXTMAX
 10
-1.000000000000000E+20
 20
-1.000000000000000E+20
 30
-1.000000000000000E+20
  9
$PLIMMIN
 10
0.0
 20
0.0
  9
$PLIMMAX
 10
12.0
 20
9.0
  9
$UNITMODE
 70
     0
  9
$VISRETAIN
 70
     1
  9
$PLINEGEN
 70
     0
  9
$PSLTSCALE
 70
     1
  0
ENDSEC
  0
SECTION
  2
TABLES
  0
TABLE
  2
VPORT
 70
     1
  0
VPORT
  2
*ACTIVE
 70
     0
 10
0.0
 20
0.0
 11
1.0
 21
1.0
 12
10.42990654205607
 22
4.5
 13
0.0
 23
0.0
 14
0.5
 24
0.5
 15
0.5
 25
0.5
 16
0.0
 26
0.0
 36
1.0
 17
0.0
 27
0.0
 37
0.0
 40
9.0
 41
1.972972972850329
 42
50.0
 43
0.0
 44
0.0
 50
0.0
 51
0.0
 71
     0
 72
   100
 73
     1
 74
     3
 75
     0
 76
     0
 77
     0
 78
     0
  0
ENDTAB
  0
TABLE
  2
LTYPE
 70
     1
  0
LTYPE
  2
CONTINUOUS
 70
     0
  3
Solid line
 72
    65
 73
     0
 40
0.0
  0
ENDTAB
  0
TABLE
  2
LAYER
 70
     2
  0
LAYER
  2
0
 70
     0
 62
     7
  6
CONTINUOUS
  0
LAYER
  2
DEFAULT_LAYER
 70
     0
 62
     1
  6
CONTINUOUS
  0
ENDTAB
  0
TABLE
  2
STYLE
 70
     1
  0
STYLE
  2
STANDARD
 70
     0
 40
0.0
 41
1.0
 50
0.0
 71
     0
 42
0.2
  3
txt
  4

  0
ENDTAB
  0
TABLE
  2
VIEW
 70
     0
  0
ENDTAB
  0
TABLE
  2
UCS
 70
     0
  0
ENDTAB
  0
TABLE
  2
APPID
 70
     2
  0
APPID
  2
ACAD
 70
     0
  0
APPID
  2
RHINO
 70
     0
  0
ENDTAB
  0
TABLE
  2
DIMSTYLE
 70
     1
  0
DIMSTYLE
  2
STANDARD_ACAD
 70
     0
  3

  4

  5

  6

  7

 40
1.0
 41
0.18
 42
0.0625
 43
0.38
 44
0.18
 45
0.0
 46
0.0
 47
0.0
 48
0.0
140
0.18
141
0.09
142
0.0
143
25.4
144
1.0
145
0.0
146
1.0
147
0.09
 71
     0
 72
     0
 73
     1
 74
     1
 75
     0
 76
     0
 77
     0
 78
     0
170
     0
171
     2
172
     0
173
     0
174
     0
175
     0
176
     0
177
     0
178
     0
  0
ENDTAB
  0
ENDSEC
  0
SECTION
  2
BLOCKS
  0
BLOCK
  8
0
  2
$MODEL_SPACE
 70
     0
 10
0.0
 20
0.0
 30
0.0
  3
$MODEL_SPACE
  1

  0
ENDBLK
  5
21
  8
0
  0
BLOCK
 67
     1
  8
0
  2
$PAPER_SPACE
 70
     0
 10
0.0
 20
0.0
 30
0.0
  3
$PAPER_SPACE
  1

  0
ENDBLK
  5
1D
 67
     1
  8
0
  0
ENDSEC
  0
SECTION
  2
ENTITIES
  0
LINE
  5
60
  8
DEFAULT_LAYER
 10
6646.421755246134
 20
3032.05566359909
 30
0.0
 11
6646.421755246134
 21
1531.564129434627
 31
0.0
  0
LINE
  5
61
  8
DEFAULT_LAYER
 10
6646.421755246134
 20
1531.564129434627
 30
0.0
 11
8146.913289410606
 21
1531.564129434627
 31
0.0
  0
LINE
  5
62
  8
DEFAULT_LAYER
 10
8146.913289410606
 20
1531.564129434627
 30
0.0
 11
8146.913289410606
 21
3032.05566359909
 31
0.0
  0
LINE
  5
63
  8
DEFAULT_LAYER
 10
8146.913289410606
 20
3032.05566359909
 30
0.0
 11
6646.421755246134
 21
3032.05566359909
 31
0.0
  0
LINE
  5
64
  8
DEFAULT_LAYER
 10
6796.421755246135
 20
1848.592876540981
 30
0.0
 11
6856.175063273513
 21
1944.928202492912
 31
0.0
  0
LINE
  5
65
  8
DEFAULT_LAYER
 10
6856.175063273513
 20
1944.928202492912
 30
0.0
 11
6853.308540629591
 21
2035.646869769696
 31
0.0
  0
LINE
  5
66
  8
DEFAULT_LAYER
 10
6853.308540629591
 20
2035.646869769696
 30
0.0
 11
6796.421755246135
 21
2050.889637973195
 31
0.0
  0
LINE
  5
67
  8
DEFAULT_LAYER
 10
6796.421755246135
 20
2162.301466351565
 30
0.0
 11
6868.367981058952
 21
2181.579399456577
 31
0.0
  0
LINE
  5
68
  8
DEFAULT_LAYER
 10
6868.367981058952
 20
2181.579399456577
 30
0.0
 11
6855.275653689889
 21
2132.718168525909
 31
0.0
  0
LINE
  5
69
  8
DEFAULT_LAYER
 10
6855.275653689889
 20
2132.718168525909
 30
0.0
 11
6891.044557251495
 21
2096.949264964304
 31
0.0
  0
LINE
  5
6A
  8
DEFAULT_LAYER
 10
6891.044557251495
 20
2096.949264964304
 30
0.0
 11
6796.421755246135
 21
2071.595161581396
 31
0.0
  0
LINE
  5
6B
  8
DEFAULT_LAYER
 10
6796.421755246136
 20
2183.006989959766
 30
0.0
 11
6811.463223622516
 21
2187.037339264196
 31
0.0
  0
LINE
  5
6C
  8
DEFAULT_LAYER
 10
6811.463223622516
 20
2187.037339264196
 30
0.0
 11
6796.421755246135
 21
2243.172863465294
 31
0.0
  0
LINE
  5
6D
  8
DEFAULT_LAYER
 10
7277.159092163078
 20
1681.564129434627
 30
0.0
 11
7296.437025268089
 21
1753.510355247439
 31
0.0
  0
LINE
  5
6E
  8
DEFAULT_LAYER
 10
7296.437025268089
 20
1753.510355247439
 30
0.0
 11
7247.575794337422
 21
1740.418027878377
 31
0.0
  0
LINE
  5
6F
  8
DEFAULT_LAYER
 10
7247.575794337422
 20
1740.418027878377
 30
0.0
 11
7211.806890775814
 21
1776.186931439983
 31
0.0
  0
LINE
  5
70
  8
DEFAULT_LAYER
 10
7211.806890775814
 20
1776.186931439983
 30
0.0
 11
7186.452787392909
 21
1681.564129434623
 31
0.0
  0
ARC
  5
71
  8
DEFAULT_LAYER
 10
6796.421755246169
 20
1681.56412943463
 30
0.0
 40
61.80373199176134
 50
359.9999999999932
 51
5.68846317290725
  0
LINE
  5
72
  8
DEFAULT_LAYER
 10
6857.92113774973
 20
1687.690077507374
 30
0.0
 11
6898.221388350624
 21
1698.488497110654
 31
0.0
  0
LINE
  5
73
  8
DEFAULT_LAYER
 10
6898.221388350624
 20
1698.488497110654
 30
0.0
 11
6925.507149263706
 21
1681.564129434623
 31
0.0
  0
LINE
  5
74
  8
DEFAULT_LAYER
 10
7165.747263784706
 20
1681.564129434627
 30
0.0
 11
7150.504495581207
 21
1738.450914818079
 31
0.0
  0
LINE
  5
75
  8
DEFAULT_LAYER
 10
7150.504495581207
 20
1738.450914818079
 30
0.0
 11
7059.785828304424
 21
1741.317437462
 31
0.0
  0
LINE
  5
76
  8
DEFAULT_LAYER
 10
7059.785828304424
 20
1741.317437462
 30
0.0
 11
6963.450502352493
 21
1681.564129434624
 31
0.0
  0
LINE
  5
77
  8
DEFAULT_LAYER
 10
7358.030489276797
 20
1681.564129434627
 30
0.0
 11
7301.894965075708
 21
1696.605597811004
 31
0.0
  0
LINE
  5
78
  8
DEFAULT_LAYER
 10
7301.894965075708
 20
1696.605597811004
 30
0.0
 11
7297.864615771279
 21
1681.564129434623
 31
0.0
  0
LINE
  5
79
  8
DEFAULT_LAYER
 10
6796.421755246136
 20
1810.649523452194
 30
0.0
 11
6813.346122922166
 21
1783.363762539112
 31
0.0
  0
LINE
  5
7A
  8
DEFAULT_LAYER
 10
6813.346122922166
 20
1783.363762539112
 30
0.0
 11
6802.547703318885
 21
1743.063511938219
 31
0.0
  0
ARC
  5
7B
  8
DEFAULT_LAYER
 10
6796.421755246142
 20
1681.564129434653
 30
0.0
 40
61.80373199176482
 50
84.31153682709308
 51
90.00000000000674
  0
ARC
  5
7C
  8
DEFAULT_LAYER
 10
6796.421755246137
 20
1681.564129434623
 30
0.0
 40
26.97072727957948
 50
0.0
 51
45.00000000000239
  0
ARC
  5
7D
  8
DEFAULT_LAYER
 10
6796.421755246135
 20
1681.564129434624
 30
0.0
 40
26.97072727958039
 50
44.99999999999864
 51
90.0
  0
LINE
  5
7E
  8
DEFAULT_LAYER
 10
6796.421755246136
 20
2512.73015506052
 30
0.0
 11
6853.308540629592
 21
2527.97292326402
 31
0.0
  0
LINE
  5
7F
  8
DEFAULT_LAYER
 10
6853.308540629592
 20
2527.97292326402
 30
0.0
 11
6856.175063273512
 21
2618.691590540803
 31
0.0
  0
LINE
  5
80
  8
DEFAULT_LAYER
 10
6856.175063273512
 20
2618.691590540803
 30
0.0
 11
6796.421755246135
 21
2715.026916492733
 31
0.0
  0
LINE
  5
81
  8
DEFAULT_LAYER
 10
6796.421755246136
 20
2492.024631452319
 30
0.0
 11
6891.044557251495
 21
2466.670528069412
 31
0.0
  0
LINE
  5
82
  8
DEFAULT_LAYER
 10
6891.044557251495
 20
2466.670528069412
 30
0.0
 11
6855.27565368989
 21
2430.901624507807
 31
0.0
  0
LINE
  5
83
  8
DEFAULT_LAYER
 10
6855.27565368989
 20
2430.901624507807
 30
0.0
 11
6868.367981058953
 21
2382.040393577138
 31
0.0
  0
LINE
  5
84
  8
DEFAULT_LAYER
 10
6868.367981058953
 20
2382.040393577138
 30
0.0
 11
6796.421755246136
 21
2401.318326682151
 31
0.0
  0
LINE
  5
85
  8
DEFAULT_LAYER
 10
6796.421755246136
 20
2320.446929568421
 30
0.0
 11
6811.463223622517
 21
2376.582453769519
 31
0.0
  0
LINE
  5
86
  8
DEFAULT_LAYER
 10
6811.463223622517
 20
2376.582453769519
 30
0.0
 11
6796.421755246136
 21
2380.612803073949
 31
0.0
  0
LINE
  5
87
  8
DEFAULT_LAYER
 10
7186.45278739291
 20
2882.055663599092
 30
0.0
 11
7211.806890775816
 21
2787.432861593732
 31
0.0
  0
LINE
  5
88
  8
DEFAULT_LAYER
 10
7211.806890775816
 20
2787.432861593732
 30
0.0
 11
7247.575794337422
 21
2823.201765155338
 31
0.0
  0
LINE
  5
89
  8
DEFAULT_LAYER
 10
7247.575794337422
 20
2823.201765155338
 30
0.0
 11
7296.43702526809
 21
2810.109437786276
 31
0.0
  0
LINE
  5
8A
  8
DEFAULT_LAYER
 10
7296.43702526809
 20
2810.109437786276
 30
0.0
 11
7277.159092163077
 21
2882.05566359909
 31
0.0
  0
LINE
  5
8B
  8
DEFAULT_LAYER
 10
6925.507149263708
 20
2882.055663599092
 30
0.0
 11
6898.221388350625
 21
2865.131295923061
 31
0.0
  0
LINE
  5
8C
  8
DEFAULT_LAYER
 10
6898.221388350625
 20
2865.131295923061
 30
0.0
 11
6857.921137749731
 21
2875.929715526341
 31
0.0
  0
ARC
  5
8D
  8
DEFAULT_LAYER
 10
6796.421755246169
 20
2882.055663599085
 30
0.0
 40
61.80373199176134
 50
354.3115368270927
 51
0.0000000000067453
  0
LINE
  5
8E
  8
DEFAULT_LAYER
 10
6963.450502352494
 20
2882.055663599093
 30
0.0
 11
7059.785828304425
 21
2822.302355571716
 31
0.0
  0
LINE
  5
8F
  8
DEFAULT_LAYER
 10
7059.785828304425
 20
2822.302355571716
 30
0.0
 11
7150.504495581208
 21
2825.168878215635
 31
0.0
  0
LINE
  5
90
  8
DEFAULT_LAYER
 10
7150.504495581208
 20
2825.168878215635
 30
0.0
 11
7165.747263784708
 21
2882.05566359909
 31
0.0
  0
LINE
  5
91
  8
DEFAULT_LAYER
 10
7297.86461577128
 20
2882.055663599092
 30
0.0
 11
7301.894965075709
 21
2867.014195222712
 31
0.0
  0
LINE
  5
92
  8
DEFAULT_LAYER
 10
7301.894965075709
 20
2867.014195222712
 30
0.0
 11
7358.030489276797
 21
2882.05566359909
 31
0.0
  0
ARC
  5
93
  8
DEFAULT_LAYER
 10
6796.421755246143
 20
2882.055663599062
 30
0.0
 40
61.80373199176482
 50
269.9999999999933
 51
275.6884631729069
  0
LINE
  5
94
  8
DEFAULT_LAYER
 10
6802.547703318886
 20
2820.556281095496
 30
0.0
 11
6813.346122922167
 21
2780.256030494603
 31
0.0
  0
LINE
  5
95
  8
DEFAULT_LAYER
 10
6813.346122922167
 20
2780.256030494603
 30
0.0
 11
6796.421755246136
 21
2752.970269581521
 31
0.0
  0
ARC
  5
96
  8
DEFAULT_LAYER
 10
6796.421755246136
 20
2882.05566359909
 30
0.0
 40
26.97072727958039
 50
270.0
 51
315.0000000000014
  0
ARC
  5
97
  8
DEFAULT_LAYER
 10
6796.421755246137
 20
2882.055663599092
 30
0.0
 40
26.97072727957948
 50
314.999999999998
 51
0.0
  0
LINE
  5
98
  8
DEFAULT_LAYER
 10
7516.175952493663
 20
1681.564129434622
 30
0.0
 11
7496.89801938865
 21
1753.510355247439
 31
0.0
  0
LINE
  5
99
  8
DEFAULT_LAYER
 10
7496.89801938865
 20
1753.510355247439
 30
0.0
 11
7545.759250319318
 21
1740.418027878375
 31
0.0
  0
LINE
  5
9A
  8
DEFAULT_LAYER
 10
7545.759250319318
 20
1740.418027878375
 30
0.0
 11
7581.528153880924
 21
1776.186931439981
 31
0.0
  0
LINE
  5
9B
  8
DEFAULT_LAYER
 10
7581.528153880924
 20
1776.186931439981
 30
0.0
 11
7606.882257263828
 21
1681.564129434627
 31
0.0
  0
LINE
  5
9C
  8
DEFAULT_LAYER
 10
7829.884542304247
 20
1681.564129434622
 30
0.0
 11
7733.549216352315
 21
1741.317437461999
 31
0.0
  0
LINE
  5
9D
  8
DEFAULT_LAYER
 10
7733.549216352315
 20
1741.317437461999
 30
0.0
 11
7642.830549075532
 21
1738.450914818078
 31
0.0
  0
LINE
  5
9E
  8
DEFAULT_LAYER
 10
7642.830549075532
 20
1738.450914818078
 30
0.0
 11
7627.587780872035
 21
1681.564129434627
 31
0.0
  0
LINE
  5
9F
  8
DEFAULT_LAYER
 10
7495.47042888546
 20
1681.564129434622
 30
0.0
 11
7491.440079581031
 21
1696.605597811003
 31
0.0
  0
LINE
  5
A0
  8
DEFAULT_LAYER
 10
7491.440079581031
 20
1696.605597811003
 30
0.0
 11
7435.304555379952
 21
1681.564129434627
 31
0.0
  0
LINE
  5
A1
  8
DEFAULT_LAYER
 10
7996.913289410604
 20
2050.889637973194
 30
0.0
 11
7940.026504027147
 21
2035.646869769693
 31
0.0
  0
LINE
  5
A2
  8
DEFAULT_LAYER
 10
7940.026504027147
 20
2035.646869769693
 30
0.0
 11
7937.159981383227
 21
1944.928202492911
 31
0.0
  0
LINE
  5
A3
  8
DEFAULT_LAYER
 10
7937.159981383227
 20
1944.928202492911
 30
0.0
 11
7996.913289410604
 21
1848.59287654098
 31
0.0
  0
LINE
  5
A4
  8
DEFAULT_LAYER
 10
7996.913289410603
 20
2071.595161581394
 30
0.0
 11
7902.290487405245
 21
2096.949264964302
 31
0.0
  0
LINE
  5
A5
  8
DEFAULT_LAYER
 10
7902.290487405245
 20
2096.949264964302
 30
0.0
 11
7938.059390966851
 21
2132.718168525907
 31
0.0
  0
LINE
  5
A6
  8
DEFAULT_LAYER
 10
7938.059390966851
 20
2132.718168525907
 30
0.0
 11
7924.967063597787
 21
2181.579399456576
 31
0.0
  0
LINE
  5
A7
  8
DEFAULT_LAYER
 10
7924.967063597787
 20
2181.579399456576
 30
0.0
 11
7996.913289410604
 21
2162.301466351564
 31
0.0
  0
LINE
  5
A8
  8
DEFAULT_LAYER
 10
7996.913289410604
 20
2243.172863465292
 30
0.0
 11
7981.871821034222
 21
2187.037339264195
 31
0.0
  0
LINE
  5
A9
  8
DEFAULT_LAYER
 10
7981.871821034222
 20
2187.037339264195
 30
0.0
 11
7996.913289410603
 21
2183.006989959764
 31
0.0
  0
LINE
  5
AA
  8
DEFAULT_LAYER
 10
7867.827895393032
 20
1681.564129434622
 30
0.0
 11
7895.113656306116
 21
1698.488497110652
 31
0.0
  0
LINE
  5
AB
  8
DEFAULT_LAYER
 10
7895.113656306116
 20
1698.488497110652
 30
0.0
 11
7935.413906907009
 21
1687.690077507371
 31
0.0
  0
ARC
  5
AC
  8
DEFAULT_LAYER
 10
7996.913289410571
 20
1681.564129434629
 30
0.0
 40
61.80373199176134
 50
174.3115368270928
 51
180.0000000000068
  0
ARC
  5
AD
  8
DEFAULT_LAYER
 10
7996.913289410597
 20
1681.564129434652
 30
0.0
 40
61.80373199176482
 50
89.99999999999325
 51
95.68846317290692
  0
LINE
  5
AE
  8
DEFAULT_LAYER
 10
7990.787341337854
 20
1743.063511938217
 30
0.0
 11
7979.988921734573
 21
1783.36376253911
 31
0.0
  0
LINE
  5
AF
  8
DEFAULT_LAYER
 10
7979.988921734573
 20
1783.36376253911
 30
0.0
 11
7996.913289410603
 21
1810.649523452193
 31
0.0
  0
ARC
  5
B0
  8
DEFAULT_LAYER
 10
7996.913289410604
 20
1681.564129434622
 30
0.0
 40
26.97072727958039
 50
90.0
 51
135.0000000000014
  0
ARC
  5
B1
  8
DEFAULT_LAYER
 10
7996.913289410602
 20
1681.564129434622
 30
0.0
 40
26.97072727957948
 50
134.9999999999976
 51
180.0
  0
LINE
  5
B2
  8
DEFAULT_LAYER
 10
7996.913289410604
 20
2715.026916492732
 30
0.0
 11
7937.159981383228
 21
2618.691590540801
 31
0.0
  0
LINE
  5
B3
  8
DEFAULT_LAYER
 10
7937.159981383228
 20
2618.691590540801
 30
0.0
 11
7940.026504027148
 21
2527.972923264019
 31
0.0
  0
LINE
  5
B4
  8
DEFAULT_LAYER
 10
7940.026504027148
 20
2527.972923264019
 30
0.0
 11
7996.913289410605
 21
2512.730155060519
 31
0.0
  0
LINE
  5
B5
  8
DEFAULT_LAYER
 10
7996.913289410605
 20
2401.318326682149
 30
0.0
 11
7924.967063597787
 21
2382.040393577137
 31
0.0
  0
LINE
  5
B6
  8
DEFAULT_LAYER
 10
7924.967063597787
 20
2382.040393577137
 30
0.0
 11
7938.059390966851
 21
2430.901624507805
 31
0.0
  0
LINE
  5
B7
  8
DEFAULT_LAYER
 10
7938.059390966851
 20
2430.901624507805
 30
0.0
 11
7902.290487405246
 21
2466.67052806941
 31
0.0
  0
LINE
  5
B8
  8
DEFAULT_LAYER
 10
7902.290487405246
 20
2466.67052806941
 30
0.0
 11
7996.913289410605
 21
2492.024631452318
 31
0.0
  0
LINE
  5
B9
  8
DEFAULT_LAYER
 10
7996.913289410605
 20
2380.612803073947
 30
0.0
 11
7981.871821034224
 21
2376.582453769516
 31
0.0
  0
LINE
  5
BA
  8
DEFAULT_LAYER
 10
7981.871821034224
 20
2376.582453769516
 30
0.0
 11
7996.913289410605
 21
2320.44692956842
 31
0.0
  0
LINE
  5
BB
  8
DEFAULT_LAYER
 10
7606.882257263831
 20
2882.05566359909
 30
0.0
 11
7581.528153880925
 21
2787.432861593731
 31
0.0
  0
LINE
  5
BC
  8
DEFAULT_LAYER
 10
7581.528153880925
 20
2787.432861593731
 30
0.0
 11
7545.759250319319
 21
2823.201765155336
 31
0.0
  0
LINE
  5
BD
  8
DEFAULT_LAYER
 10
7545.759250319319
 20
2823.201765155336
 30
0.0
 11
7496.89801938865
 21
2810.109437786273
 31
0.0
  0
LINE
  5
BE
  8
DEFAULT_LAYER
 10
7496.89801938865
 20
2810.109437786273
 30
0.0
 11
7516.175952493663
 21
2882.055663599091
 31
0.0
  0
LINE
  5
BF
  8
DEFAULT_LAYER
 10
7627.587780872033
 20
2882.05566359909
 30
0.0
 11
7642.830549075533
 21
2825.168878215633
 31
0.0
  0
LINE
  5
C0
  8
DEFAULT_LAYER
 10
7642.830549075533
 20
2825.168878215633
 30
0.0
 11
7733.549216352316
 21
2822.302355571713
 31
0.0
  0
LINE
  5
C1
  8
DEFAULT_LAYER
 10
7733.549216352316
 20
2822.302355571713
 30
0.0
 11
7829.884542304248
 21
2882.055663599091
 31
0.0
  0
LINE
  5
C2
  8
DEFAULT_LAYER
 10
7435.304555379936
 20
2882.05566359909
 30
0.0
 11
7491.440079581032
 21
2867.01419522271
 31
0.0
  0
LINE
  5
C3
  8
DEFAULT_LAYER
 10
7491.440079581032
 20
2867.01419522271
 30
0.0
 11
7495.470428885462
 21
2882.055663599091
 31
0.0
  0
LINE
  5
C4
  8
DEFAULT_LAYER
 10
7996.913289410605
 20
2752.97026958152
 30
0.0
 11
7979.988921734574
 21
2780.256030494602
 31
0.0
  0
LINE
  5
C5
  8
DEFAULT_LAYER
 10
7979.988921734574
 20
2780.256030494602
 30
0.0
 11
7990.787341337856
 21
2820.556281095495
 31
0.0
  0
ARC
  5
C6
  8
DEFAULT_LAYER
 10
7996.913289410598
 20
2882.05566359906
 30
0.0
 40
61.80373199176482
 50
264.3115368270931
 51
270.0000000000067
  0
ARC
  5
C7
  8
DEFAULT_LAYER
 10
7996.913289410571
 20
2882.055663599083
 30
0.0
 40
61.80373199176134
 50
179.9999999999933
 51
185.6884631729072
  0
LINE
  5
C8
  8
DEFAULT_LAYER
 10
7935.413906907009
 20
2875.929715526341
 30
0.0
 11
7895.113656306115
 21
2865.13129592306
 31
0.0
  0
LINE
  5
C9
  8
DEFAULT_LAYER
 10
7895.113656306115
 20
2865.13129592306
 30
0.0
 11
7867.827895393033
 21
2882.055663599091
 31
0.0
  0
ARC
  5
CA
  8
DEFAULT_LAYER
 10
7996.913289410605
 20
2882.055663599091
 30
0.0
 40
26.97072727958111
 50
180.0
 51
224.9999999999986
  0
ARC
  5
CB
  8
DEFAULT_LAYER
 10
7996.913289410605
 20
2882.055663599091
 30
0.0
 40
26.97072727958111
 50
225.0000000000007
 51
270.0
  0
ARC
  5
CC
  8
DEFAULT_LAYER
 10
6796.421755246147
 20
2281.809896516827
 30
0.0
 40
18.63703305153173
 50
269.9999999999637
 51
315.0000000000376
  0
ARC
  5
CD
  8
DEFAULT_LAYER
 10
6796.421755246109
 20
2281.809896516868
 30
0.0
 40
18.63703305159009
 50
315.0000000000356
 51
359.9999999999637
  0
ARC
  5
CE
  8
DEFAULT_LAYER
 10
6796.421755246093
 20
2281.809896516838
 30
0.0
 40
18.63703305160657
 50
0.0000000000573192
 51
44.99999999995057
  0
ARC
  5
CF
  8
DEFAULT_LAYER
 10
6796.421755246153
 20
2281.809896516904
 30
0.0
 40
18.63703305151654
 50
44.99999999993575
 51
90.00000000005593
  0
ARC
  5
D0
  8
DEFAULT_LAYER
 10
7396.667522328326
 20
1681.564129434602
 30
0.0
 40
18.63703305160657
 50
0.0000000000580182
 51
44.99999999995008
  0
ARC
  5
D1
  8
DEFAULT_LAYER
 10
7396.667522328388
 20
1681.564129434669
 30
0.0
 40
18.63703305151654
 50
44.99999999993526
 51
90.00000000005593
  0
ARC
  5
D2
  8
DEFAULT_LAYER
 10
7396.667522328352
 20
1681.564129434662
 30
0.0
 40
18.63703305152281
 50
89.99999999994128
 51
135.0000000000435
  0
ARC
  5
D3
  8
DEFAULT_LAYER
 10
7396.667522328413
 20
1681.564129434605
 30
0.0
 40
18.63703305160657
 50
135.0000000000554
 51
179.9999999999434
  0
ARC
  5
D4
  8
DEFAULT_LAYER
 10
7396.667522328398
 20
2882.055663599105
 30
0.0
 40
18.6370330515913
 50
180.0000000000391
 51
224.9999999999693
  0
ARC
  5
D5
  8
DEFAULT_LAYER
 10
7396.667522328358
 20
2882.055663599059
 30
0.0
 40
18.63703305153052
 50
224.9999999999545
 51
270.0000000000363
  0
ARC
  5
D6
  8
DEFAULT_LAYER
 10
7396.667522328394
 20
2882.055663599037
 30
0.0
 40
18.63703305150866
 50
269.9999999999217
 51
315.0000000000622
  0
ARC
  5
D7
  8
DEFAULT_LAYER
 10
7396.667522328316
 20
2882.055663599115
 30
0.0
 40
18.63703305161798
 50
315.0000000000622
 51
359.9999999999231
  0
ARC
  5
D8
  8
DEFAULT_LAYER
 10
7996.91328941058
 20
2281.809896516912
 30
0.0
 40
18.63703305150705
 50
89.99999999992451
 51
135.0000000000662
  0
ARC
  5
D9
  8
DEFAULT_LAYER
 10
7996.913289410662
 20
2281.809896516832
 30
0.0
 40
18.63703305162184
 50
135.0000000000712
 51
179.9999999999231
  0
ARC
  5
DA
  8
DEFAULT_LAYER
 10
7996.913289410632
 20
2281.809896516869
 30
0.0
 40
18.6370330515913
 50
180.0000000000391
 51
224.9999999999693
  0
ARC
  5
DB
  8
DEFAULT_LAYER
 10
7996.913289410592
 20
2281.809896516823
 30
0.0
 40
18.63703305153052
 50
224.9999999999545
 51
270.0000000000363
  0
LINE
  5
DC
  8
DEFAULT_LAYER
 10
6796.421755246134
 20
1681.564129434627
 30
0.0
 11
7996.913289410606
 21
1681.564129434627
 31
0.0
  0
LINE
  5
DD
  8
DEFAULT_LAYER
 10
7996.913289410606
 20
1681.564129434627
 30
0.0
 11
7996.913289410606
 21
2882.05566359909
 31
0.0
  0
LINE
  5
DE
  8
DEFAULT_LAYER
 10
7996.913289410606
 20
2882.05566359909
 30
0.0
 11
6796.421755246134
 21
2882.05566359909
 31
0.0
  0
LINE
  5
DF
  8
DEFAULT_LAYER
 10
6796.421755246134
 20
2882.05566359909
 30
0.0
 11
6796.421755246134
 21
1681.564129434627
 31
0.0
  0
LINE
  5
E0
  8
DEFAULT_LAYER
 10
6915.029478571635
 20
2039.814317900235
 30
0.0
 11
6875.215093685907
 21
1975.624871789822
 31
0.0
  0
LINE
  5
E1
  8
DEFAULT_LAYER
 10
6875.215093685907
 20
1975.624871789822
 30
0.0
 11
6872.829547994022
 21
2051.121755219155
 31
0.0
  0
LINE
  5
E2
  8
DEFAULT_LAYER
 10
6872.829547994022
 20
2051.121755219155
 30
0.0
 11
6835.058788297699
 21
2061.242399777295
 31
0.0
  0
LINE
  5
E3
  8
DEFAULT_LAYER
 10
6835.058788297699
 20
2061.242399777295
 30
0.0
 11
6907.37448887005
 21
2080.619333345747
 31
0.0
  0
LINE
  5
E4
  8
DEFAULT_LAYER
 10
6907.37448887005
 20
2080.619333345747
 30
0.0
 11
6960.313255873948
 21
2027.680566341849
 31
0.0
  0
LINE
  5
E5
  8
DEFAULT_LAYER
 10
6960.313255873948
 20
2027.680566341849
 30
0.0
 11
6915.029478571635
 21
2039.814317900235
 31
0.0
  0
ARC
  5
E6
  8
DEFAULT_LAYER
 10
6796.421755246114
 20
1681.564129434585
 30
0.0
 40
61.80373199183749
 50
54.31153682709343
 51
65.68846317290692
  0
LINE
  5
E7
  8
DEFAULT_LAYER
 10
6821.866219844667
 20
1737.887131036168
 30
0.0
 11
6832.664639447948
 21
1778.187381637061
 31
0.0
  0
LINE
  5
E8
  8
DEFAULT_LAYER
 10
6832.664639447948
 20
1778.187381637061
 30
0.0
 11
6860.964452254922
 21
1793.355359911363
 31
0.0
  0
LINE
  5
E9
  8
DEFAULT_LAYER
 10
6860.964452254922
 20
1793.355359911363
 30
0.0
 11
6861.97850414881
 21
1761.26301396103
 31
0.0
  0
LINE
  5
EA
  8
DEFAULT_LAYER
 10
6861.97850414881
 20
1761.26301396103
 30
0.0
 11
6832.476673151199
 21
1731.761182963417
 31
0.0
  0
LINE
  5
EB
  8
DEFAULT_LAYER
 10
6808.18919799002
 20
1829.621199996588
 30
0.0
 11
6857.315878651021
 21
1908.824091864021
 31
0.0
  0
LINE
  5
EC
  8
DEFAULT_LAYER
 10
6857.315878651021
 20
1908.824091864021
 30
0.0
 11
6860.259386173334
 21
1815.669035123132
 31
0.0
  0
LINE
  5
ED
  8
DEFAULT_LAYER
 10
6860.259386173334
 20
1815.669035123132
 30
0.0
 11
6827.675565688949
 21
1798.204937937332
 31
0.0
  0
LINE
  5
EE
  8
DEFAULT_LAYER
 10
6827.675565688949
 20
1798.204937937332
 30
0.0
 11
6808.18919799002
 21
1829.621199996588
 31
0.0
  0
LINE
  5
EF
  8
DEFAULT_LAYER
 10
6876.355909063414
 20
1939.520761160931
 30
0.0
 11
6879.936128799313
 21
1826.215267591016
 31
0.0
  0
LINE
  5
F0
  8
DEFAULT_LAYER
 10
6879.936128799313
 20
1826.215267591016
 30
0.0
 11
6979.851674487145
 21
1879.767453133554
 31
0.0
  0
LINE
  5
F1
  8
DEFAULT_LAYER
 10
6979.851674487145
 20
1879.767453133554
 30
0.0
 11
7022.728526695378
 21
1959.765384914677
 31
0.0
  0
LINE
  5
F2
  8
DEFAULT_LAYER
 10
7022.728526695378
 20
1959.765384914677
 30
0.0
 11
6981.084509515421
 21
2001.409402094632
 31
0.0
  0
LINE
  5
F3
  8
DEFAULT_LAYER
 10
6981.084509515421
 20
2001.409402094632
 30
0.0
 11
6924.197724131965
 21
2016.652170298133
 31
0.0
  0
LINE
  5
F4
  8
DEFAULT_LAYER
 10
6924.197724131965
 20
2016.652170298133
 30
0.0
 11
6876.355909063414
 21
1939.520761160931
 31
0.0
  0
LINE
  5
F5
  8
DEFAULT_LAYER
 10
6830.781740148298
 20
2192.213720166247
 30
0.0
 11
6863.191600156902
 21
2200.897915982359
 31
0.0
  0
LINE
  5
F6
  8
DEFAULT_LAYER
 10
6863.191600156902
 20
2200.897915982359
 30
0.0
 11
6815.740271771917
 21
2248.349244367343
 31
0.0
  0
LINE
  5
F7
  8
DEFAULT_LAYER
 10
6815.740271771917
 20
2248.349244367343
 30
0.0
 11
6830.781740148298
 21
2192.213720166247
 31
0.0
  0
LINE
  5
F8
  8
DEFAULT_LAYER
 10
7154.671943711746
 20
1800.171852760123
 30
0.0
 11
7090.482497601334
 21
1760.357467874395
 31
0.0
  0
LINE
  5
F9
  8
DEFAULT_LAYER
 10
7090.482497601334
 20
1760.357467874395
 30
0.0
 11
7165.979381030667
 21
1757.97192218251
 31
0.0
  0
LINE
  5
FA
  8
DEFAULT_LAYER
 10
7165.979381030667
 20
1757.97192218251
 30
0.0
 11
7176.100025588808
 21
1720.201162486186
 31
0.0
  0
LINE
  5
FB
  8
DEFAULT_LAYER
 10
7176.100025588808
 20
1720.201162486186
 30
0.0
 11
7195.476959157259
 21
1792.516863058538
 31
0.0
  0
LINE
  5
FC
  8
DEFAULT_LAYER
 10
7195.476959157259
 20
1792.516863058538
 30
0.0
 11
7142.538192153361
 21
1845.455630062436
 31
0.0
  0
LINE
  5
FD
  8
DEFAULT_LAYER
 10
7142.538192153361
 20
1845.455630062436
 30
0.0
 11
7154.671943711746
 21
1800.171852760123
 31
0.0
  0
LINE
  5
FE
  8
DEFAULT_LAYER
 10
7011.689159161561
 20
1896.83153335005
 30
0.0
 11
7078.26415096386
 21
1932.514031893657
 31
0.0
  0
LINE
  5
FF
  8
DEFAULT_LAYER
 10
7078.26415096386
 20
1932.514031893657
 30
0.0
 11
7105.914266102043
 21
1904.863916755471
 31
0.0
  0
LINE
  5
100
  8
DEFAULT_LAYER
 10
7105.914266102043
 20
1904.863916755471
 30
0.0
 11
7087.699600402091
 21
1972.841974590579
 31
0.0
  0
LINE
  5
101
  8
DEFAULT_LAYER
 10
7087.699600402091
 20
1972.841974590579
 30
0.0
 11
7019.721542566983
 21
1991.056640290532
 31
0.0
  0
LINE
  5
102
  8
DEFAULT_LAYER
 10
7019.721542566983
 20
1991.056640290532
 30
0.0
 11
7047.371657705168
 21
1963.406525152348
 31
0.0
  0
LINE
  5
103
  8
DEFAULT_LAYER
 10
7047.371657705168
 20
1963.406525152348
 30
0.0
 11
7011.689159161561
 21
1896.83153335005
 31
0.0
  0
LINE
  5
104
  8
DEFAULT_LAYER
 10
6962.78759427065
 20
1847.929968459138
 30
0.0
 11
6918.759218190759
 21
1765.783569069389
 31
0.0
  0
LINE
  5
105
  8
DEFAULT_LAYER
 10
6918.759218190759
 20
1765.783569069389
 30
0.0
 11
6881.808753306031
 21
1766.951127494519
 31
0.0
  0
LINE
  5
106
  8
DEFAULT_LAYER
 10
6881.808753306031
 20
1766.951127494519
 30
0.0
 11
6880.641194880901
 21
1803.901592379246
 31
0.0
  0
LINE
  5
107
  8
DEFAULT_LAYER
 10
6880.641194880901
 20
1803.901592379246
 30
0.0
 11
6962.78759427065
 21
1847.929968459138
 31
0.0
  0
LINE
  5
108
  8
DEFAULT_LAYER
 10
6944.4788258081
 20
1693.331572178508
 30
0.0
 11
7023.681717675534
 21
1742.458252839509
 31
0.0
  0
LINE
  5
109
  8
DEFAULT_LAYER
 10
7023.681717675534
 20
1742.458252839509
 30
0.0
 11
6930.526660934644
 21
1745.401760361822
 31
0.0
  0
LINE
  5
10A
  8
DEFAULT_LAYER
 10
6930.526660934644
 20
1745.401760361822
 30
0.0
 11
6913.062563748845
 21
1712.817939877437
 31
0.0
  0
LINE
  5
10B
  8
DEFAULT_LAYER
 10
6913.062563748845
 20
1712.817939877437
 30
0.0
 11
6944.4788258081
 21
1693.331572178508
 31
0.0
  0
LINE
  5
10C
  8
DEFAULT_LAYER
 10
7054.378386972444
 20
1761.498283251902
 30
0.0
 11
6941.072893402527
 21
1765.078502987801
 31
0.0
  0
LINE
  5
10D
  8
DEFAULT_LAYER
 10
6941.072893402527
 20
1765.078502987801
 30
0.0
 11
6994.625078945066
 21
1864.994048675632
 31
0.0
  0
LINE
  5
10E
  8
DEFAULT_LAYER
 10
6994.625078945066
 20
1864.994048675632
 30
0.0
 11
7074.623010726188
 21
1907.870900883866
 31
0.0
  0
LINE
  5
10F
  8
DEFAULT_LAYER
 10
7074.623010726188
 20
1907.870900883866
 30
0.0
 11
7116.267027906145
 21
1866.226883703908
 31
0.0
  0
LINE
  5
110
  8
DEFAULT_LAYER
 10
7116.267027906145
 20
1866.226883703908
 30
0.0
 11
7131.509796109644
 21
1809.340098320453
 31
0.0
  0
LINE
  5
111
  8
DEFAULT_LAYER
 10
7131.509796109644
 20
1809.340098320453
 30
0.0
 11
7054.378386972444
 21
1761.498283251902
 31
0.0
  0
LINE
  5
112
  8
DEFAULT_LAYER
 10
7307.071345977759
 20
1715.924114336785
 30
0.0
 11
7315.75554179387
 21
1748.33397434539
 31
0.0
  0
LINE
  5
113
  8
DEFAULT_LAYER
 10
7315.75554179387
 20
1748.33397434539
 30
0.0
 11
7363.206870178855
 21
1700.882645960404
 31
0.0
  0
LINE
  5
114
  8
DEFAULT_LAYER
 10
7363.206870178855
 20
1700.882645960404
 30
0.0
 11
7307.071345977759
 21
1715.924114336785
 31
0.0
  0
ARC
  5
115
  8
DEFAULT_LAYER
 10
-6796.421755246099
 20
1681.564129434601
 30
0.0
 40
61.80373199183749
 50
144.3115368270931
 51
155.6884631729067
210
0.0
220
0.0
230
-1.0
  0
LINE
  5
116
  8
DEFAULT_LAYER
 10
6852.744756847681
 20
1707.008594033155
 30
0.0
 11
6893.045007448573
 21
1717.807013636436
 31
0.0
  0
LINE
  5
117
  8
DEFAULT_LAYER
 10
6893.045007448573
 20
1717.807013636436
 30
0.0
 11
6908.212985722877
 21
1746.106826443409
 31
0.0
  0
LINE
  5
118
  8
DEFAULT_LAYER
 10
6908.212985722877
 20
1746.106826443409
 30
0.0
 11
6876.120639772542
 21
1747.1208783373
 31
0.0
  0
LINE
  5
119
  8
DEFAULT_LAYER
 10
6876.120639772542
 20
1747.1208783373
 30
0.0
 11
6846.618808774931
 21
1717.619047339686
 31
0.0
  0
LINE
  5
11A
  8
DEFAULT_LAYER
 10
6915.029478571636
 20
2523.80547513348
 30
0.0
 11
6875.215093685908
 21
2587.994921243893
 31
0.0
  0
LINE
  5
11B
  8
DEFAULT_LAYER
 10
6875.215093685908
 20
2587.994921243893
 30
0.0
 11
6872.829547994023
 21
2512.498037814559
 31
0.0
  0
LINE
  5
11C
  8
DEFAULT_LAYER
 10
6872.829547994023
 20
2512.498037814559
 30
0.0
 11
6835.058788297699
 21
2502.377393256419
 31
0.0
  0
LINE
  5
11D
  8
DEFAULT_LAYER
 10
6835.058788297699
 20
2502.377393256419
 30
0.0
 11
6907.374488870049
 21
2483.000459687968
 31
0.0
  0
LINE
  5
11E
  8
DEFAULT_LAYER
 10
6907.374488870049
 20
2483.000459687968
 30
0.0
 11
6960.313255873948
 21
2535.939226691867
 31
0.0
  0
LINE
  5
11F
  8
DEFAULT_LAYER
 10
6960.313255873948
 20
2535.939226691867
 30
0.0
 11
6915.029478571636
 21
2523.80547513348
 31
0.0
  0
ARC
  5
120
  8
DEFAULT_LAYER
 10
-6796.421755246114
 20
2882.055663599129
 30
0.0
 40
61.80373199183749
 50
234.3115368270933
 51
245.6884631729069
210
0.0
220
0.0
230
-1.0
  0
LINE
  5
121
  8
DEFAULT_LAYER
 10
6821.866219844667
 20
2825.732661997547
 30
0.0
 11
6832.664639447949
 21
2785.432411396654
 31
0.0
  0
LINE
  5
122
  8
DEFAULT_LAYER
 10
6832.664639447949
 20
2785.432411396654
 30
0.0
 11
6860.964452254923
 21
2770.264433122351
 31
0.0
  0
LINE
  5
123
  8
DEFAULT_LAYER
 10
6860.964452254923
 20
2770.264433122351
 30
0.0
 11
6861.978504148811
 21
2802.356779072685
 31
0.0
  0
LINE
  5
124
  8
DEFAULT_LAYER
 10
6861.978504148811
 20
2802.356779072685
 30
0.0
 11
6832.476673151199
 21
2831.858610070297
 31
0.0
  0
LINE
  5
125
  8
DEFAULT_LAYER
 10
6808.189197990022
 20
2733.998593037126
 30
0.0
 11
6857.31587865102
 21
2654.795701169694
 31
0.0
  0
LINE
  5
126
  8
DEFAULT_LAYER
 10
6857.31587865102
 20
2654.795701169694
 30
0.0
 11
6860.259386173335
 21
2747.950757910582
 31
0.0
  0
LINE
  5
127
  8
DEFAULT_LAYER
 10
6860.259386173335
 20
2747.950757910582
 30
0.0
 11
6827.67556568895
 21
2765.414855096383
 31
0.0
  0
LINE
  5
128
  8
DEFAULT_LAYER
 10
6827.67556568895
 20
2765.414855096383
 30
0.0
 11
6808.189197990022
 21
2733.998593037126
 31
0.0
  0
LINE
  5
129
  8
DEFAULT_LAYER
 10
6876.355909063415
 20
2624.099031872783
 30
0.0
 11
6879.936128799314
 21
2737.404525442699
 31
0.0
  0
LINE
  5
12A
  8
DEFAULT_LAYER
 10
6879.936128799314
 20
2737.404525442699
 30
0.0
 11
6979.851674487146
 21
2683.852339900161
 31
0.0
  0
LINE
  5
12B
  8
DEFAULT_LAYER
 10
6979.851674487146
 20
2683.852339900161
 30
0.0
 11
7022.728526695379
 21
2603.854408119039
 31
0.0
  0
LINE
  5
12C
  8
DEFAULT_LAYER
 10
7022.728526695379
 20
2603.854408119039
 30
0.0
 11
6981.084509515422
 21
2562.210390939082
 31
0.0
  0
LINE
  5
12D
  8
DEFAULT_LAYER
 10
6981.084509515422
 20
2562.210390939082
 30
0.0
 11
6924.197724131966
 21
2546.967622735583
 31
0.0
  0
LINE
  5
12E
  8
DEFAULT_LAYER
 10
6924.197724131966
 20
2546.967622735583
 30
0.0
 11
6876.355909063415
 21
2624.099031872783
 31
0.0
  0
LINE
  5
12F
  8
DEFAULT_LAYER
 10
6830.781740148299
 20
2371.406072867469
 30
0.0
 11
6863.191600156902
 21
2362.721877051358
 31
0.0
  0
LINE
  5
130
  8
DEFAULT_LAYER
 10
6863.191600156902
 20
2362.721877051358
 30
0.0
 11
6815.740271771917
 21
2315.270548666372
 31
0.0
  0
LINE
  5
131
  8
DEFAULT_LAYER
 10
6815.740271771917
 20
2315.270548666372
 30
0.0
 11
6830.781740148299
 21
2371.406072867469
 31
0.0
  0
LINE
  5
132
  8
DEFAULT_LAYER
 10
7154.671943711747
 20
2763.447940273593
 30
0.0
 11
7090.482497601334
 21
2803.26232515932
 31
0.0
  0
LINE
  5
133
  8
DEFAULT_LAYER
 10
7090.482497601334
 20
2803.26232515932
 30
0.0
 11
7165.979381030668
 21
2805.647870851206
 31
0.0
  0
LINE
  5
134
  8
DEFAULT_LAYER
 10
7165.979381030668
 20
2805.647870851206
 30
0.0
 11
7176.100025588808
 21
2843.41863054753
 31
0.0
  0
LINE
  5
135
  8
DEFAULT_LAYER
 10
7176.100025588808
 20
2843.41863054753
 30
0.0
 11
7195.47695915726
 21
2771.102929975178
 31
0.0
  0
LINE
  5
136
  8
DEFAULT_LAYER
 10
7195.47695915726
 20
2771.102929975178
 30
0.0
 11
7142.538192153362
 21
2718.16416297128
 31
0.0
  0
LINE
  5
137
  8
DEFAULT_LAYER
 10
7142.538192153362
 20
2718.16416297128
 30
0.0
 11
7154.671943711747
 21
2763.447940273593
 31
0.0
  0
LINE
  5
138
  8
DEFAULT_LAYER
 10
7011.689159161562
 20
2666.788259683666
 30
0.0
 11
7078.26415096386
 21
2631.10576114006
 31
0.0
  0
LINE
  5
139
  8
DEFAULT_LAYER
 10
7078.26415096386
 20
2631.10576114006
 30
0.0
 11
7105.914266102044
 21
2658.755876278244
 31
0.0
  0
LINE
  5
13A
  8
DEFAULT_LAYER
 10
7105.914266102044
 20
2658.755876278244
 30
0.0
 11
7087.699600402092
 21
2590.777818443137
 31
0.0
  0
LINE
  5
13B
  8
DEFAULT_LAYER
 10
7087.699600402092
 20
2590.777818443137
 30
0.0
 11
7019.721542566985
 21
2572.563152743184
 31
0.0
  0
LINE
  5
13C
  8
DEFAULT_LAYER
 10
7019.721542566985
 20
2572.563152743184
 30
0.0
 11
7047.371657705168
 21
2600.213267881368
 31
0.0
  0
LINE
  5
13D
  8
DEFAULT_LAYER
 10
7047.371657705168
 20
2600.213267881368
 30
0.0
 11
7011.689159161562
 21
2666.788259683666
 31
0.0
  0
ARC
  5
13E
  8
DEFAULT_LAYER
 10
6796.421755246099
 20
2882.055663599114
 30
0.0
 40
61.80373199183749
 50
324.3115368270929
 51
335.6884631729069
  0
LINE
  5
13F
  8
DEFAULT_LAYER
 10
6852.744756847681
 20
2856.61119900056
 30
0.0
 11
6893.045007448573
 21
2845.812779397279
 31
0.0
  0
LINE
  5
140
  8
DEFAULT_LAYER
 10
6893.045007448573
 20
2845.812779397279
 30
0.0
 11
6908.212985722877
 21
2817.512966590305
 31
0.0
  0
LINE
  5
141
  8
DEFAULT_LAYER
 10
6908.212985722877
 20
2817.512966590305
 30
0.0
 11
6876.120639772543
 21
2816.498914696417
 31
0.0
  0
LINE
  5
142
  8
DEFAULT_LAYER
 10
6876.120639772543
 20
2816.498914696417
 30
0.0
 11
6846.618808774931
 21
2846.000745694029
 31
0.0
  0
LINE
  5
143
  8
DEFAULT_LAYER
 10
6962.78759427065
 20
2715.689824574577
 30
0.0
 11
6918.759218190759
 21
2797.836223964325
 31
0.0
  0
LINE
  5
144
  8
DEFAULT_LAYER
 10
6918.759218190759
 20
2797.836223964325
 30
0.0
 11
6881.808753306031
 21
2796.668665539196
 31
0.0
  0
LINE
  5
145
  8
DEFAULT_LAYER
 10
6881.808753306031
 20
2796.668665539196
 30
0.0
 11
6880.641194880902
 21
2759.718200654468
 31
0.0
  0
LINE
  5
146
  8
DEFAULT_LAYER
 10
6880.641194880902
 20
2759.718200654468
 30
0.0
 11
6962.78759427065
 21
2715.689824574577
 31
0.0
  0
LINE
  5
147
  8
DEFAULT_LAYER
 10
6944.478825808101
 20
2870.288220855207
 30
0.0
 11
7023.681717675535
 21
2821.161540194207
 31
0.0
  0
LINE
  5
148
  8
DEFAULT_LAYER
 10
7023.681717675535
 20
2821.161540194207
 30
0.0
 11
6930.526660934645
 21
2818.218032671893
 31
0.0
  0
LINE
  5
149
  8
DEFAULT_LAYER
 10
6930.526660934645
 20
2818.218032671893
 30
0.0
 11
6913.062563748845
 21
2850.801853156277
 31
0.0
  0
LINE
  5
14A
  8
DEFAULT_LAYER
 10
6913.062563748845
 20
2850.801853156277
 30
0.0
 11
6944.478825808101
 21
2870.288220855207
 31
0.0
  0
LINE
  5
14B
  8
DEFAULT_LAYER
 10
7054.378386972445
 20
2802.121509781812
 30
0.0
 11
6941.072893402528
 21
2798.541290045914
 31
0.0
  0
LINE
  5
14C
  8
DEFAULT_LAYER
 10
6941.072893402528
 20
2798.541290045914
 30
0.0
 11
6994.625078945067
 21
2698.625744358082
 31
0.0
  0
LINE
  5
14D
  8
DEFAULT_LAYER
 10
6994.625078945067
 20
2698.625744358082
 30
0.0
 11
7074.623010726189
 21
2655.748892149849
 31
0.0
  0
LINE
  5
14E
  8
DEFAULT_LAYER
 10
7074.623010726189
 20
2655.748892149849
 30
0.0
 11
7116.267027906146
 21
2697.392909329806
 31
0.0
  0
LINE
  5
14F
  8
DEFAULT_LAYER
 10
7116.267027906146
 20
2697.392909329806
 30
0.0
 11
7131.509796109645
 21
2754.279694713262
 31
0.0
  0
LINE
  5
150
  8
DEFAULT_LAYER
 10
7131.509796109645
 20
2754.279694713262
 30
0.0
 11
7054.378386972445
 21
2802.121509781812
 31
0.0
  0
LINE
  5
151
  8
DEFAULT_LAYER
 10
7307.07134597776
 20
2847.695678696929
 30
0.0
 11
7315.755541793872
 21
2815.285818688326
 31
0.0
  0
LINE
  5
152
  8
DEFAULT_LAYER
 10
7315.755541793872
 20
2815.285818688326
 30
0.0
 11
7363.206870178856
 21
2862.737147073311
 31
0.0
  0
LINE
  5
153
  8
DEFAULT_LAYER
 10
7363.206870178856
 20
2862.737147073311
 30
0.0
 11
7307.07134597776
 21
2847.695678696929
 31
0.0
  0
ARC
  5
154
  8
DEFAULT_LAYER
 10
-7396.667522328392
 20
2281.809896516819
 30
0.0
 40
61.80373199183749
 50
54.31153682709331
 51
65.68846317290692
210
0.0
220
0.0
230
-1.0
  0
LINE
  5
155
  8
DEFAULT_LAYER
 10
7371.223057729838
 20
2338.132898118402
 30
0.0
 11
7360.424638126558
 21
2378.433148719295
 31
0.0
  0
LINE
  5
156
  8
DEFAULT_LAYER
 10
7360.424638126558
 20
2378.433148719295
 30
0.0
 11
7332.124825319583
 21
2393.601126993597
 31
0.0
  0
LINE
  5
157
  8
DEFAULT_LAYER
 10
7332.124825319583
 20
2393.601126993597
 30
0.0
 11
7331.110773425694
 21
2361.508781043264
 31
0.0
  0
LINE
  5
158
  8
DEFAULT_LAYER
 10
7331.110773425694
 20
2361.508781043264
 30
0.0
 11
7360.612604423307
 21
2332.006950045651
 31
0.0
  0
LINE
  5
159
  8
DEFAULT_LAYER
 10
7515.27524565387
 20
1923.559708051245
 30
0.0
 11
7475.460860768142
 21
1987.749154161657
 31
0.0
  0
LINE
  5
15A
  8
DEFAULT_LAYER
 10
7475.460860768142
 20
1987.749154161657
 30
0.0
 11
7473.075315076257
 21
1912.252270732324
 31
0.0
  0
LINE
  5
15B
  8
DEFAULT_LAYER
 10
7473.075315076257
 20
1912.252270732324
 30
0.0
 11
7435.304555379933
 21
1902.131626174184
 31
0.0
  0
LINE
  5
15C
  8
DEFAULT_LAYER
 10
7435.304555379933
 20
1902.131626174184
 30
0.0
 11
7507.620255952284
 21
1882.754692605733
 31
0.0
  0
LINE
  5
15D
  8
DEFAULT_LAYER
 10
7507.620255952284
 20
1882.754692605733
 30
0.0
 11
7560.559022956183
 21
1935.693459609632
 31
0.0
  0
LINE
  5
15E
  8
DEFAULT_LAYER
 10
7560.559022956183
 20
1935.693459609632
 30
0.0
 11
7515.27524565387
 21
1923.559708051245
 31
0.0
  0
ARC
  5
15F
  8
DEFAULT_LAYER
 10
-7396.667522328348
 20
2281.809896516894
 30
0.0
 40
61.80373199183749
 50
234.3115368270933
 51
245.6884631729069
210
0.0
220
0.0
230
-1.0
  0
LINE
  5
160
  8
DEFAULT_LAYER
 10
7422.111986926901
 20
2225.486894915312
 30
0.0
 11
7432.910406530183
 21
2185.186644314419
 31
0.0
  0
LINE
  5
161
  8
DEFAULT_LAYER
 10
7432.910406530183
 20
2185.186644314419
 30
0.0
 11
7461.210219337157
 21
2170.018666040116
 31
0.0
  0
LINE
  5
162
  8
DEFAULT_LAYER
 10
7461.210219337157
 20
2170.018666040116
 30
0.0
 11
7462.224271231044
 21
2202.11101199045
 31
0.0
  0
LINE
  5
163
  8
DEFAULT_LAYER
 10
7462.224271231044
 20
2202.11101199045
 30
0.0
 11
7432.722440233434
 21
2231.612842988062
 31
0.0
  0
LINE
  5
164
  8
DEFAULT_LAYER
 10
7408.434965072256
 20
2133.752825954891
 30
0.0
 11
7457.561645733254
 21
2054.549934087459
 31
0.0
  0
LINE
  5
165
  8
DEFAULT_LAYER
 10
7457.561645733254
 20
2054.549934087459
 30
0.0
 11
7460.505153255569
 21
2147.704990828347
 31
0.0
  0
LINE
  5
166
  8
DEFAULT_LAYER
 10
7460.505153255569
 20
2147.704990828347
 30
0.0
 11
7427.921332771184
 21
2165.169088014147
 31
0.0
  0
LINE
  5
167
  8
DEFAULT_LAYER
 10
7427.921332771184
 20
2165.169088014147
 30
0.0
 11
7408.434965072256
 21
2133.752825954891
 31
0.0
  0
LINE
  5
168
  8
DEFAULT_LAYER
 10
7476.601676145649
 20
2023.853264790548
 30
0.0
 11
7480.181895881548
 21
2137.158758360464
 31
0.0
  0
LINE
  5
169
  8
DEFAULT_LAYER
 10
7480.181895881548
 20
2137.158758360464
 30
0.0
 11
7580.09744156938
 21
2083.606572817926
 31
0.0
  0
LINE
  5
16A
  8
DEFAULT_LAYER
 10
7580.09744156938
 20
2083.606572817926
 30
0.0
 11
7622.974293777613
 21
2003.608641036804
 31
0.0
  0
LINE
  5
16B
  8
DEFAULT_LAYER
 10
7622.974293777613
 20
2003.608641036804
 30
0.0
 11
7581.330276597656
 21
1961.964623856847
 31
0.0
  0
LINE
  5
16C
  8
DEFAULT_LAYER
 10
7581.330276597656
 20
1961.964623856847
 30
0.0
 11
7524.4434912142
 21
1946.721855653348
 31
0.0
  0
LINE
  5
16D
  8
DEFAULT_LAYER
 10
7524.4434912142
 20
1946.721855653348
 30
0.0
 11
7476.601676145649
 21
2023.853264790548
 31
0.0
  0
LINE
  5
16E
  8
DEFAULT_LAYER
 10
7431.027507230533
 20
1771.160305785234
 30
0.0
 11
7463.437367239137
 21
1762.476109969122
 31
0.0
  0
LINE
  5
16F
  8
DEFAULT_LAYER
 10
7463.437367239137
 20
1762.476109969122
 30
0.0
 11
7415.986038854151
 21
1715.024781584137
 31
0.0
  0
LINE
  5
170
  8
DEFAULT_LAYER
 10
7415.986038854151
 20
1715.024781584137
 30
0.0
 11
7431.027507230533
 21
1771.160305785234
 31
0.0
  0
LINE
  5
171
  8
DEFAULT_LAYER
 10
7278.05979900287
 20
1923.559708051245
 30
0.0
 11
7317.874183888598
 21
1987.749154161657
 31
0.0
  0
LINE
  5
172
  8
DEFAULT_LAYER
 10
7317.874183888598
 20
1987.749154161657
 30
0.0
 11
7320.259729580484
 21
1912.252270732324
 31
0.0
  0
LINE
  5
173
  8
DEFAULT_LAYER
 10
7320.259729580484
 20
1912.252270732324
 30
0.0
 11
7358.030489276807
 21
1902.131626174184
 31
0.0
  0
LINE
  5
174
  8
DEFAULT_LAYER
 10
7358.030489276807
 20
1902.131626174184
 30
0.0
 11
7285.714788704455
 21
1882.754692605733
 31
0.0
  0
LINE
  5
175
  8
DEFAULT_LAYER
 10
7285.714788704455
 20
1882.754692605733
 30
0.0
 11
7232.776021700557
 21
1935.693459609631
 31
0.0
  0
LINE
  5
176
  8
DEFAULT_LAYER
 10
7232.776021700557
 20
1935.693459609631
 30
0.0
 11
7278.05979900287
 21
1923.559708051245
 31
0.0
  0
ARC
  5
177
  8
DEFAULT_LAYER
 10
7396.667522328392
 20
2281.809896516894
 30
0.0
 40
61.80373199183749
 50
234.3115368270935
 51
245.6884631729069
  0
LINE
  5
178
  8
DEFAULT_LAYER
 10
7371.223057729839
 20
2225.486894915312
 30
0.0
 11
7360.424638126558
 21
2185.186644314419
 31
0.0
  0
LINE
  5
179
  8
DEFAULT_LAYER
 10
7360.424638126558
 20
2185.186644314419
 30
0.0
 11
7332.124825319583
 21
2170.018666040117
 31
0.0
  0
LINE
  5
17A
  8
DEFAULT_LAYER
 10
7332.124825319583
 20
2170.018666040117
 30
0.0
 11
7331.110773425694
 21
2202.11101199045
 31
0.0
  0
LINE
  5
17B
  8
DEFAULT_LAYER
 10
7331.110773425694
 20
2202.11101199045
 30
0.0
 11
7360.612604423306
 21
2231.612842988062
 31
0.0
  0
LINE
  5
17C
  8
DEFAULT_LAYER
 10
7384.900079584485
 20
2133.752825954892
 30
0.0
 11
7335.773398923485
 21
2054.549934087458
 31
0.0
  0
LINE
  5
17D
  8
DEFAULT_LAYER
 10
7335.773398923485
 20
2054.549934087458
 30
0.0
 11
7332.829891401171
 21
2147.704990828348
 31
0.0
  0
LINE
  5
17E
  8
DEFAULT_LAYER
 10
7332.829891401171
 20
2147.704990828348
 30
0.0
 11
7365.413711885556
 21
2165.169088014148
 31
0.0
  0
LINE
  5
17F
  8
DEFAULT_LAYER
 10
7365.413711885556
 20
2165.169088014148
 30
0.0
 11
7384.900079584485
 21
2133.752825954892
 31
0.0
  0
LINE
  5
180
  8
DEFAULT_LAYER
 10
7316.733368511092
 20
2023.853264790547
 30
0.0
 11
7313.153148775192
 21
2137.158758360464
 31
0.0
  0
LINE
  5
181
  8
DEFAULT_LAYER
 10
7313.153148775192
 20
2137.158758360464
 30
0.0
 11
7213.237603087359
 21
2083.606572817926
 31
0.0
  0
LINE
  5
182
  8
DEFAULT_LAYER
 10
7213.237603087359
 20
2083.606572817926
 30
0.0
 11
7170.360750879126
 21
2003.608641036804
 31
0.0
  0
LINE
  5
183
  8
DEFAULT_LAYER
 10
7170.360750879126
 20
2003.608641036804
 30
0.0
 11
7212.004768059085
 21
1961.964623856846
 31
0.0
  0
LINE
  5
184
  8
DEFAULT_LAYER
 10
7212.004768059085
 20
1961.964623856846
 30
0.0
 11
7268.89155344254
 21
1946.721855653348
 31
0.0
  0
LINE
  5
185
  8
DEFAULT_LAYER
 10
7268.89155344254
 20
1946.721855653348
 30
0.0
 11
7316.733368511092
 21
2023.853264790547
 31
0.0
  0
LINE
  5
186
  8
DEFAULT_LAYER
 10
7336.914214300993
 20
2018.445823458567
 30
0.0
 11
7339.780736944914
 21
1927.727156181785
 31
0.0
  0
LINE
  5
187
  8
DEFAULT_LAYER
 10
7339.780736944914
 20
1927.727156181785
 30
0.0
 11
7396.66752232837
 21
1912.484387978285
 31
0.0
  0
LINE
  5
188
  8
DEFAULT_LAYER
 10
7396.66752232837
 20
1912.484387978285
 30
0.0
 11
7453.554307711826
 21
1927.727156181785
 31
0.0
  0
LINE
  5
189
  8
DEFAULT_LAYER
 10
7453.554307711826
 20
1927.727156181785
 30
0.0
 11
7456.420830355746
 21
2018.445823458568
 31
0.0
  0
LINE
  5
18A
  8
DEFAULT_LAYER
 10
7456.420830355746
 20
2018.445823458568
 30
0.0
 11
7396.66752232837
 21
2114.781149410498
 31
0.0
  0
LINE
  5
18B
  8
DEFAULT_LAYER
 10
7396.66752232837
 20
2114.781149410498
 30
0.0
 11
7336.914214300993
 21
2018.445823458567
 31
0.0
  0
LINE
  5
18C
  8
DEFAULT_LAYER
 10
7324.721296515552
 20
1781.794626494902
 30
0.0
 11
7337.813623884615
 21
1830.655857425571
 31
0.0
  0
LINE
  5
18D
  8
DEFAULT_LAYER
 10
7337.813623884615
 20
1830.655857425571
 30
0.0
 11
7302.044720323011
 21
1866.424760987176
 31
0.0
  0
LINE
  5
18E
  8
DEFAULT_LAYER
 10
7302.044720323011
 20
1866.424760987176
 30
0.0
 11
7396.66752232837
 21
1891.778864370084
 31
0.0
  0
LINE
  5
18F
  8
DEFAULT_LAYER
 10
7396.66752232837
 20
1891.778864370084
 30
0.0
 11
7491.29032433373
 21
1866.424760987177
 31
0.0
  0
LINE
  5
190
  8
DEFAULT_LAYER
 10
7491.29032433373
 20
1866.424760987177
 30
0.0
 11
7455.521420772124
 21
1830.655857425572
 31
0.0
  0
LINE
  5
191
  8
DEFAULT_LAYER
 10
7455.521420772124
 20
1830.655857425572
 30
0.0
 11
7468.613748141187
 21
1781.794626494902
 31
0.0
  0
LINE
  5
192
  8
DEFAULT_LAYER
 10
7468.613748141187
 20
1781.794626494902
 30
0.0
 11
7396.66752232837
 21
1801.072559599916
 31
0.0
  0
LINE
  5
193
  8
DEFAULT_LAYER
 10
7396.66752232837
 20
1801.072559599916
 30
0.0
 11
7324.721296515552
 21
1781.794626494902
 31
0.0
  0
LINE
  5
194
  8
DEFAULT_LAYER
 10
7381.62605395199
 20
1776.336686687283
 30
0.0
 11
7396.66752232837
 21
1720.201162486186
 31
0.0
  0
LINE
  5
195
  8
DEFAULT_LAYER
 10
7396.66752232837
 20
1720.201162486186
 30
0.0
 11
7411.708990704751
 21
1776.336686687284
 31
0.0
  0
LINE
  5
196
  8
DEFAULT_LAYER
 10
7411.708990704751
 20
1776.336686687284
 30
0.0
 11
7396.66752232837
 21
1780.367035991713
 31
0.0
  0
LINE
  5
197
  8
DEFAULT_LAYER
 10
7396.66752232837
 20
1780.367035991713
 30
0.0
 11
7381.62605395199
 21
1776.336686687283
 31
0.0
  0
LINE
  5
198
  8
DEFAULT_LAYER
 10
7362.307537426207
 20
1771.160305785234
 30
0.0
 11
7329.897677417604
 21
1762.476109969122
 31
0.0
  0
LINE
  5
199
  8
DEFAULT_LAYER
 10
7329.897677417604
 20
1762.476109969122
 30
0.0
 11
7377.349005802588
 21
1715.024781584137
 31
0.0
  0
LINE
  5
19A
  8
DEFAULT_LAYER
 10
7377.349005802588
 20
1715.024781584137
 30
0.0
 11
7362.307537426207
 21
1771.160305785234
 31
0.0
  0
LINE
  5
19B
  8
DEFAULT_LAYER
 10
7038.417333862759
 20
2163.202173191357
 30
0.0
 11
7102.606779973172
 21
2203.016558077085
 31
0.0
  0
LINE
  5
19C
  8
DEFAULT_LAYER
 10
7102.606779973172
 20
2203.016558077085
 30
0.0
 11
7027.109896543838
 21
2205.40210376897
 31
0.0
  0
LINE
  5
19D
  8
DEFAULT_LAYER
 10
7027.109896543838
 20
2205.40210376897
 30
0.0
 11
7016.989251985698
 21
2243.172863465294
 31
0.0
  0
LINE
  5
19E
  8
DEFAULT_LAYER
 10
7016.989251985698
 20
2243.172863465294
 30
0.0
 11
6997.612318417246
 21
2170.857162892943
 31
0.0
  0
LINE
  5
19F
  8
DEFAULT_LAYER
 10
6997.612318417246
 20
2170.857162892943
 30
0.0
 11
7050.551085421143
 21
2117.918395889043
 31
0.0
  0
LINE
  5
1A0
  8
DEFAULT_LAYER
 10
7050.551085421143
 20
2117.918395889043
 30
0.0
 11
7038.417333862759
 21
2163.202173191357
 31
0.0
  0
LINE
  5
1A1
  8
DEFAULT_LAYER
 10
7181.400118412943
 20
2066.54249260143
 30
0.0
 11
7114.825126610645
 21
2030.859994057823
 31
0.0
  0
LINE
  5
1A2
  8
DEFAULT_LAYER
 10
7114.825126610645
 20
2030.859994057823
 30
0.0
 11
7087.175011472461
 21
2058.510109196009
 31
0.0
  0
LINE
  5
1A3
  8
DEFAULT_LAYER
 10
7087.175011472461
 20
2058.510109196009
 30
0.0
 11
7105.389677172414
 21
1990.532051360901
 31
0.0
  0
LINE
  5
1A4
  8
DEFAULT_LAYER
 10
7105.389677172414
 20
1990.532051360901
 30
0.0
 11
7173.367735007521
 21
1972.317385660947
 31
0.0
  0
LINE
  5
1A5
  8
DEFAULT_LAYER
 10
7173.367735007521
 20
1972.317385660947
 30
0.0
 11
7145.717619869337
 21
1999.967500799132
 31
0.0
  0
LINE
  5
1A6
  8
DEFAULT_LAYER
 10
7145.717619869337
 20
1999.967500799132
 30
0.0
 11
7181.400118412943
 21
2066.54249260143
 31
0.0
  0
LINE
  5
1A7
  8
DEFAULT_LAYER
 10
7230.301683303856
 20
2115.444057492342
 30
0.0
 11
7274.330059383747
 21
2197.59045688209
 31
0.0
  0
LINE
  5
1A8
  8
DEFAULT_LAYER
 10
7274.330059383747
 20
2197.59045688209
 30
0.0
 11
7311.280524268474
 21
2196.422898456961
 31
0.0
  0
LINE
  5
1A9
  8
DEFAULT_LAYER
 10
7311.280524268474
 20
2196.422898456961
 30
0.0
 11
7312.448082693604
 21
2159.472433572233
 31
0.0
  0
LINE
  5
1AA
  8
DEFAULT_LAYER
 10
7312.448082693604
 20
2159.472433572233
 30
0.0
 11
7230.301683303856
 21
2115.444057492342
 31
0.0
  0
LINE
  5
1AB
  8
DEFAULT_LAYER
 10
7248.610451766405
 20
2270.042453772972
 30
0.0
 11
7169.407559898971
 21
2220.915773111971
 31
0.0
  0
LINE
  5
1AC
  8
DEFAULT_LAYER
 10
7169.407559898971
 20
2220.915773111971
 30
0.0
 11
7262.562616639861
 21
2217.972265589658
 31
0.0
  0
LINE
  5
1AD
  8
DEFAULT_LAYER
 10
7262.562616639861
 20
2217.972265589658
 30
0.0
 11
7280.026713825661
 21
2250.556086074043
 31
0.0
  0
LINE
  5
1AE
  8
DEFAULT_LAYER
 10
7280.026713825661
 20
2250.556086074043
 30
0.0
 11
7248.610451766405
 21
2270.042453772972
 31
0.0
  0
LINE
  5
1AF
  8
DEFAULT_LAYER
 10
7138.710890602062
 20
2201.875742699577
 30
0.0
 11
7252.016384171977
 21
2198.295522963678
 31
0.0
  0
LINE
  5
1B0
  8
DEFAULT_LAYER
 10
7252.016384171977
 20
2198.295522963678
 30
0.0
 11
7198.464198629438
 21
2098.379977275847
 31
0.0
  0
LINE
  5
1B1
  8
DEFAULT_LAYER
 10
7198.464198629438
 20
2098.379977275847
 30
0.0
 11
7118.466266848316
 21
2055.503125067614
 31
0.0
  0
LINE
  5
1B2
  8
DEFAULT_LAYER
 10
7118.466266848316
 20
2055.503125067614
 30
0.0
 11
7076.822249668361
 21
2097.147142247571
 31
0.0
  0
LINE
  5
1B3
  8
DEFAULT_LAYER
 10
7076.822249668361
 20
2097.147142247571
 30
0.0
 11
7061.57948146486
 21
2154.033927631027
 31
0.0
  0
LINE
  5
1B4
  8
DEFAULT_LAYER
 10
7061.57948146486
 20
2154.033927631027
 30
0.0
 11
7138.710890602062
 21
2201.875742699577
 31
0.0
  0
LINE
  5
1B5
  8
DEFAULT_LAYER
 10
6886.017931596746
 20
2247.449911614694
 30
0.0
 11
6877.333735780635
 21
2215.04005160609
 31
0.0
  0
LINE
  5
1B6
  8
DEFAULT_LAYER
 10
6877.333735780635
 20
2215.04005160609
 30
0.0
 11
6829.882407395649
 21
2262.491379991076
 31
0.0
  0
LINE
  5
1B7
  8
DEFAULT_LAYER
 10
6829.882407395649
 20
2262.491379991076
 30
0.0
 11
6886.017931596746
 21
2247.449911614694
 31
0.0
  0
ARC
  5
1B8
  8
DEFAULT_LAYER
 10
-7396.667522328407
 20
2281.809896516878
 30
0.0
 40
61.80373199183749
 50
324.3115368270929
 51
335.6884631729069
210
0.0
220
0.0
230
-1.0
  0
LINE
  5
1B9
  8
DEFAULT_LAYER
 10
7340.344520726825
 20
2256.365431918326
 30
0.0
 11
7300.044270125933
 21
2245.567012315045
 31
0.0
  0
LINE
  5
1BA
  8
DEFAULT_LAYER
 10
7300.044270125933
 20
2245.567012315045
 30
0.0
 11
7284.87629185163
 21
2217.26719950807
 31
0.0
  0
LINE
  5
1BB
  8
DEFAULT_LAYER
 10
7284.87629185163
 20
2217.26719950807
 30
0.0
 11
7316.968637801964
 21
2216.25314761418
 31
0.0
  0
LINE
  5
1BC
  8
DEFAULT_LAYER
 10
7316.968637801964
 20
2216.25314761418
 30
0.0
 11
7346.470468799575
 21
2245.754978611794
 31
0.0
  0
LINE
  5
1BD
  8
DEFAULT_LAYER
 10
7038.417333862758
 20
2400.417619842357
 30
0.0
 11
7102.606779973171
 21
2360.603234956629
 31
0.0
  0
LINE
  5
1BE
  8
DEFAULT_LAYER
 10
7102.606779973171
 20
2360.603234956629
 30
0.0
 11
7027.109896543838
 21
2358.217689264744
 31
0.0
  0
LINE
  5
1BF
  8
DEFAULT_LAYER
 10
7027.109896543838
 20
2358.217689264744
 30
0.0
 11
7016.989251985698
 21
2320.44692956842
 31
0.0
  0
LINE
  5
1C0
  8
DEFAULT_LAYER
 10
7016.989251985698
 20
2320.44692956842
 30
0.0
 11
6997.612318417245
 21
2392.762630140771
 31
0.0
  0
LINE
  5
1C1
  8
DEFAULT_LAYER
 10
6997.612318417245
 20
2392.762630140771
 30
0.0
 11
7050.551085421144
 21
2445.70139714467
 31
0.0
  0
LINE
  5
1C2
  8
DEFAULT_LAYER
 10
7050.551085421144
 20
2445.70139714467
 30
0.0
 11
7038.417333862758
 21
2400.417619842357
 31
0.0
  0
LINE
  5
1C3
  8
DEFAULT_LAYER
 10
6896.652252306416
 20
2353.756122329674
 30
0.0
 11
6945.513483237084
 21
2340.66379496061
 31
0.0
  0
LINE
  5
1C4
  8
DEFAULT_LAYER
 10
6945.513483237084
 20
2340.66379496061
 30
0.0
 11
6981.282386798691
 21
2376.432698522216
 31
0.0
  0
LINE
  5
1C5
  8
DEFAULT_LAYER
 10
6981.282386798691
 20
2376.432698522216
 30
0.0
 11
7006.636490181596
 21
2281.809896516857
 31
0.0
  0
LINE
  5
1C6
  8
DEFAULT_LAYER
 10
7006.636490181596
 20
2281.809896516857
 30
0.0
 11
6981.282386798691
 21
2187.187094511498
 31
0.0
  0
LINE
  5
1C7
  8
DEFAULT_LAYER
 10
6981.282386798691
 20
2187.187094511498
 30
0.0
 11
6945.513483237084
 21
2222.955998073102
 31
0.0
  0
LINE
  5
1C8
  8
DEFAULT_LAYER
 10
6945.513483237084
 20
2222.955998073102
 30
0.0
 11
6896.652252306415
 21
2209.863670704039
 31
0.0
  0
LINE
  5
1C9
  8
DEFAULT_LAYER
 10
6896.652252306415
 20
2209.863670704039
 30
0.0
 11
6915.930185411428
 21
2281.809896516857
 31
0.0
  0
LINE
  5
1CA
  8
DEFAULT_LAYER
 10
6915.930185411428
 20
2281.809896516857
 30
0.0
 11
6896.652252306416
 21
2353.756122329674
 31
0.0
  0
ARC
  5
1CB
  8
DEFAULT_LAYER
 10
7396.667522328407
 20
2281.809896516835
 30
0.0
 40
61.80373199183749
 50
144.311536827093
 51
155.6884631729069
  0
LINE
  5
1CC
  8
DEFAULT_LAYER
 10
7340.344520726824
 20
2307.254361115389
 30
0.0
 11
7300.044270125933
 21
2318.052780718669
 31
0.0
  0
LINE
  5
1CD
  8
DEFAULT_LAYER
 10
7300.044270125933
 20
2318.052780718669
 30
0.0
 11
7284.87629185163
 21
2346.352593525642
 31
0.0
  0
LINE
  5
1CE
  8
DEFAULT_LAYER
 10
7284.87629185163
 20
2346.352593525642
 30
0.0
 11
7316.968637801963
 21
2347.366645419532
 31
0.0
  0
LINE
  5
1CF
  8
DEFAULT_LAYER
 10
7316.968637801963
 20
2347.366645419532
 30
0.0
 11
7346.470468799575
 21
2317.86481442192
 31
0.0
  0
LINE
  5
1D0
  8
DEFAULT_LAYER
 10
7248.610451766405
 20
2293.577339260742
 30
0.0
 11
7169.407559898971
 21
2342.704019921742
 31
0.0
  0
LINE
  5
1D1
  8
DEFAULT_LAYER
 10
7169.407559898971
 20
2342.704019921742
 30
0.0
 11
7262.562616639862
 21
2345.647527444056
 31
0.0
  0
LINE
  5
1D2
  8
DEFAULT_LAYER
 10
7262.562616639862
 20
2345.647527444056
 30
0.0
 11
7280.026713825661
 21
2313.06370695967
 31
0.0
  0
LINE
  5
1D3
  8
DEFAULT_LAYER
 10
7280.026713825661
 20
2313.06370695967
 30
0.0
 11
7248.610451766405
 21
2293.577339260742
 31
0.0
  0
LINE
  5
1D4
  8
DEFAULT_LAYER
 10
7138.710890602061
 20
2361.744050334136
 30
0.0
 11
7252.016384171978
 21
2365.324270070035
 31
0.0
  0
LINE
  5
1D5
  8
DEFAULT_LAYER
 10
7252.016384171978
 20
2365.324270070035
 30
0.0
 11
7198.46419862944
 21
2465.239815757867
 31
0.0
  0
LINE
  5
1D6
  8
DEFAULT_LAYER
 10
7198.46419862944
 20
2465.239815757867
 30
0.0
 11
7118.466266848317
 21
2508.116667966099
 31
0.0
  0
LINE
  5
1D7
  8
DEFAULT_LAYER
 10
7118.466266848317
 20
2508.116667966099
 30
0.0
 11
7076.82224966836
 21
2466.472650786143
 31
0.0
  0
LINE
  5
1D8
  8
DEFAULT_LAYER
 10
7076.82224966836
 20
2466.472650786143
 30
0.0
 11
7061.57948146486
 21
2409.585865402686
 31
0.0
  0
LINE
  5
1D9
  8
DEFAULT_LAYER
 10
7061.57948146486
 20
2409.585865402686
 30
0.0
 11
7138.710890602061
 21
2361.744050334136
 31
0.0
  0
LINE
  5
1DA
  8
DEFAULT_LAYER
 10
7133.303449270081
 20
2341.563204544234
 30
0.0
 11
7042.584781993298
 21
2338.696681900313
 31
0.0
  0
LINE
  5
1DB
  8
DEFAULT_LAYER
 10
7042.584781993298
 20
2338.696681900313
 30
0.0
 11
7027.342013789798
 21
2281.809896516857
 31
0.0
  0
LINE
  5
1DC
  8
DEFAULT_LAYER
 10
7027.342013789798
 20
2281.809896516857
 30
0.0
 11
7042.584781993298
 21
2224.923111133399
 31
0.0
  0
LINE
  5
1DD
  8
DEFAULT_LAYER
 10
7042.584781993298
 20
2224.923111133399
 30
0.0
 11
7133.303449270081
 21
2222.05658848948
 31
0.0
  0
LINE
  5
1DE
  8
DEFAULT_LAYER
 10
7133.303449270081
 20
2222.05658848948
 30
0.0
 11
7229.638775222013
 21
2281.809896516857
 31
0.0
  0
LINE
  5
1DF
  8
DEFAULT_LAYER
 10
7229.638775222013
 20
2281.809896516857
 30
0.0
 11
7133.303449270081
 21
2341.563204544234
 31
0.0
  0
LINE
  5
1E0
  8
DEFAULT_LAYER
 10
6891.194312498797
 20
2296.851364893238
 30
0.0
 11
6835.058788297699
 21
2281.809896516857
 31
0.0
  0
LINE
  5
1E1
  8
DEFAULT_LAYER
 10
6835.058788297699
 20
2281.809896516857
 30
0.0
 11
6891.194312498797
 21
2266.768428140476
 31
0.0
  0
LINE
  5
1E2
  8
DEFAULT_LAYER
 10
6891.194312498797
 20
2266.768428140476
 30
0.0
 11
6895.224661803227
 21
2281.809896516857
 31
0.0
  0
LINE
  5
1E3
  8
DEFAULT_LAYER
 10
6895.224661803227
 20
2281.809896516857
 30
0.0
 11
6891.194312498797
 21
2296.851364893238
 31
0.0
  0
LINE
  5
1E4
  8
DEFAULT_LAYER
 10
6886.017931596745
 20
2316.16988141902
 30
0.0
 11
6877.333735780634
 21
2348.579741427623
 31
0.0
  0
LINE
  5
1E5
  8
DEFAULT_LAYER
 10
6877.333735780634
 20
2348.579741427623
 30
0.0
 11
6829.88240739565
 21
2301.128413042638
 31
0.0
  0
LINE
  5
1E6
  8
DEFAULT_LAYER
 10
6829.88240739565
 20
2301.128413042638
 30
0.0
 11
6886.017931596745
 21
2316.16988141902
 31
0.0
  0
LINE
  5
1E7
  8
DEFAULT_LAYER
 10
7278.05979900287
 20
2640.060084982469
 30
0.0
 11
7317.874183888598
 21
2575.870638872055
 31
0.0
  0
LINE
  5
1E8
  8
DEFAULT_LAYER
 10
7317.874183888598
 20
2575.870638872055
 30
0.0
 11
7320.259729580483
 21
2651.367522301389
 31
0.0
  0
LINE
  5
1E9
  8
DEFAULT_LAYER
 10
7320.259729580483
 20
2651.367522301389
 30
0.0
 11
7358.030489276807
 21
2661.488166859529
 31
0.0
  0
LINE
  5
1EA
  8
DEFAULT_LAYER
 10
7358.030489276807
 20
2661.488166859529
 30
0.0
 11
7285.714788704456
 21
2680.865100427981
 31
0.0
  0
LINE
  5
1EB
  8
DEFAULT_LAYER
 10
7285.714788704456
 20
2680.865100427981
 30
0.0
 11
7232.776021700557
 21
2627.926333424083
 31
0.0
  0
LINE
  5
1EC
  8
DEFAULT_LAYER
 10
7232.776021700557
 20
2627.926333424083
 30
0.0
 11
7278.05979900287
 21
2640.060084982469
 31
0.0
  0
LINE
  5
1ED
  8
DEFAULT_LAYER
 10
7181.400118412944
 20
2497.077300432284
 30
0.0
 11
7145.717619869337
 21
2563.652292234581
 31
0.0
  0
LINE
  5
1EE
  8
DEFAULT_LAYER
 10
7145.717619869337
 20
2563.652292234581
 30
0.0
 11
7173.367735007521
 21
2591.302407372766
 31
0.0
  0
LINE
  5
1EF
  8
DEFAULT_LAYER
 10
7173.367735007521
 20
2591.302407372766
 30
0.0
 11
7105.389677172414
 21
2573.087741672812
 31
0.0
  0
LINE
  5
1F0
  8
DEFAULT_LAYER
 10
7105.389677172414
 20
2573.087741672812
 30
0.0
 11
7087.175011472462
 21
2505.109683837705
 31
0.0
  0
LINE
  5
1F1
  8
DEFAULT_LAYER
 10
7087.175011472462
 20
2505.109683837705
 30
0.0
 11
7114.825126610645
 21
2532.75979897589
 31
0.0
  0
LINE
  5
1F2
  8
DEFAULT_LAYER
 10
7114.825126610645
 20
2532.75979897589
 30
0.0
 11
7181.400118412944
 21
2497.077300432284
 31
0.0
  0
LINE
  5
1F3
  8
DEFAULT_LAYER
 10
7230.301683303855
 20
2448.17573554137
 30
0.0
 11
7312.448082693604
 21
2404.14735946148
 31
0.0
  0
LINE
  5
1F4
  8
DEFAULT_LAYER
 10
7312.448082693604
 20
2404.14735946148
 30
0.0
 11
7311.280524268474
 21
2367.196894576752
 31
0.0
  0
LINE
  5
1F5
  8
DEFAULT_LAYER
 10
7311.280524268474
 20
2367.196894576752
 30
0.0
 11
7274.330059383747
 21
2366.029336151622
 31
0.0
  0
LINE
  5
1F6
  8
DEFAULT_LAYER
 10
7274.330059383747
 20
2366.029336151622
 30
0.0
 11
7230.301683303855
 21
2448.17573554137
 31
0.0
  0
LINE
  5
1F7
  8
DEFAULT_LAYER
 10
7384.900079584485
 20
2429.866967078822
 30
0.0
 11
7335.773398923485
 21
2509.069858946256
 31
0.0
  0
LINE
  5
1F8
  8
DEFAULT_LAYER
 10
7335.773398923485
 20
2509.069858946256
 30
0.0
 11
7332.829891401171
 21
2415.914802205366
 31
0.0
  0
LINE
  5
1F9
  8
DEFAULT_LAYER
 10
7332.829891401171
 20
2415.914802205366
 30
0.0
 11
7365.413711885556
 21
2398.450705019565
 31
0.0
  0
LINE
  5
1FA
  8
DEFAULT_LAYER
 10
7365.413711885556
 20
2398.450705019565
 30
0.0
 11
7384.900079584485
 21
2429.866967078822
 31
0.0
  0
LINE
  5
1FB
  8
DEFAULT_LAYER
 10
7316.733368511091
 20
2539.766528243166
 30
0.0
 11
7313.153148775192
 21
2426.461034673249
 31
0.0
  0
LINE
  5
1FC
  8
DEFAULT_LAYER
 10
7313.153148775192
 20
2426.461034673249
 30
0.0
 11
7213.237603087361
 21
2480.013220215788
 31
0.0
  0
LINE
  5
1FD
  8
DEFAULT_LAYER
 10
7213.237603087361
 20
2480.013220215788
 30
0.0
 11
7170.360750879127
 21
2560.01115199691
 31
0.0
  0
LINE
  5
1FE
  8
DEFAULT_LAYER
 10
7170.360750879127
 20
2560.01115199691
 30
0.0
 11
7212.004768059083
 21
2601.655169176866
 31
0.0
  0
LINE
  5
1FF
  8
DEFAULT_LAYER
 10
7212.004768059083
 20
2601.655169176866
 30
0.0
 11
7268.89155344254
 21
2616.897937380366
 31
0.0
  0
LINE
  5
200
  8
DEFAULT_LAYER
 10
7268.89155344254
 20
2616.897937380366
 30
0.0
 11
7316.733368511091
 21
2539.766528243166
 31
0.0
  0
LINE
  5
201
  8
DEFAULT_LAYER
 10
7362.307537426207
 20
2792.45948724848
 30
0.0
 11
7329.897677417604
 21
2801.143683064591
 31
0.0
  0
LINE
  5
202
  8
DEFAULT_LAYER
 10
7329.897677417604
 20
2801.143683064591
 30
0.0
 11
7377.349005802589
 21
2848.595011449577
 31
0.0
  0
LINE
  5
203
  8
DEFAULT_LAYER
 10
7377.349005802589
 20
2848.595011449577
 30
0.0
 11
7362.307537426207
 21
2792.45948724848
 31
0.0
  0
LINE
  5
204
  8
DEFAULT_LAYER
 10
7515.27524565387
 20
2640.060084982469
 30
0.0
 11
7475.460860768142
 21
2575.870638872056
 31
0.0
  0
LINE
  5
205
  8
DEFAULT_LAYER
 10
7475.460860768142
 20
2575.870638872056
 30
0.0
 11
7473.075315076257
 21
2651.367522301389
 31
0.0
  0
LINE
  5
206
  8
DEFAULT_LAYER
 10
7473.075315076257
 20
2651.367522301389
 30
0.0
 11
7435.304555379933
 21
2661.488166859529
 31
0.0
  0
LINE
  5
207
  8
DEFAULT_LAYER
 10
7435.304555379933
 20
2661.488166859529
 30
0.0
 11
7507.620255952284
 21
2680.865100427981
 31
0.0
  0
LINE
  5
208
  8
DEFAULT_LAYER
 10
7507.620255952284
 20
2680.865100427981
 30
0.0
 11
7560.559022956183
 21
2627.926333424083
 31
0.0
  0
LINE
  5
209
  8
DEFAULT_LAYER
 10
7560.559022956183
 20
2627.926333424083
 30
0.0
 11
7515.27524565387
 21
2640.060084982469
 31
0.0
  0
ARC
  5
20A
  8
DEFAULT_LAYER
 10
7396.667522328348
 20
2281.809896516819
 30
0.0
 40
61.80373199183749
 50
54.31153682709331
 51
65.68846317290692
  0
LINE
  5
20B
  8
DEFAULT_LAYER
 10
7422.111986926901
 20
2338.132898118403
 30
0.0
 11
7432.910406530183
 21
2378.433148719295
 31
0.0
  0
LINE
  5
20C
  8
DEFAULT_LAYER
 10
7432.910406530183
 20
2378.433148719295
 30
0.0
 11
7461.210219337157
 21
2393.601126993596
 31
0.0
  0
LINE
  5
20D
  8
DEFAULT_LAYER
 10
7461.210219337157
 20
2393.601126993596
 30
0.0
 11
7462.224271231045
 21
2361.508781043264
 31
0.0
  0
LINE
  5
20E
  8
DEFAULT_LAYER
 10
7462.224271231045
 20
2361.508781043264
 30
0.0
 11
7432.722440233434
 21
2332.006950045651
 31
0.0
  0
LINE
  5
20F
  8
DEFAULT_LAYER
 10
7408.434965072255
 20
2429.866967078822
 30
0.0
 11
7457.561645733255
 21
2509.069858946255
 31
0.0
  0
LINE
  5
210
  8
DEFAULT_LAYER
 10
7457.561645733255
 20
2509.069858946255
 30
0.0
 11
7460.505153255569
 21
2415.914802205366
 31
0.0
  0
LINE
  5
211
  8
DEFAULT_LAYER
 10
7460.505153255569
 20
2415.914802205366
 30
0.0
 11
7427.921332771184
 21
2398.450705019566
 31
0.0
  0
LINE
  5
212
  8
DEFAULT_LAYER
 10
7427.921332771184
 20
2398.450705019566
 30
0.0
 11
7408.434965072255
 21
2429.866967078822
 31
0.0
  0
LINE
  5
213
  8
DEFAULT_LAYER
 10
7476.601676145649
 20
2539.766528243166
 30
0.0
 11
7480.181895881548
 21
2426.46103467325
 31
0.0
  0
LINE
  5
214
  8
DEFAULT_LAYER
 10
7480.181895881548
 20
2426.46103467325
 30
0.0
 11
7580.09744156938
 21
2480.013220215789
 31
0.0
  0
LINE
  5
215
  8
DEFAULT_LAYER
 10
7580.09744156938
 20
2480.013220215789
 30
0.0
 11
7622.974293777613
 21
2560.011151996911
 31
0.0
  0
LINE
  5
216
  8
DEFAULT_LAYER
 10
7622.974293777613
 20
2560.011151996911
 30
0.0
 11
7581.330276597656
 21
2601.655169176867
 31
0.0
  0
LINE
  5
217
  8
DEFAULT_LAYER
 10
7581.330276597656
 20
2601.655169176867
 30
0.0
 11
7524.4434912142
 21
2616.897937380367
 31
0.0
  0
LINE
  5
218
  8
DEFAULT_LAYER
 10
7524.4434912142
 20
2616.897937380367
 30
0.0
 11
7476.601676145649
 21
2539.766528243166
 31
0.0
  0
LINE
  5
219
  8
DEFAULT_LAYER
 10
7456.420830355747
 20
2545.173969575146
 30
0.0
 11
7453.554307711826
 21
2635.89263685193
 31
0.0
  0
LINE
  5
21A
  8
DEFAULT_LAYER
 10
7453.554307711826
 20
2635.89263685193
 30
0.0
 11
7396.66752232837
 21
2651.135405055429
 31
0.0
  0
LINE
  5
21B
  8
DEFAULT_LAYER
 10
7396.66752232837
 20
2651.135405055429
 30
0.0
 11
7339.780736944914
 21
2635.892636851929
 31
0.0
  0
LINE
  5
21C
  8
DEFAULT_LAYER
 10
7339.780736944914
 20
2635.892636851929
 30
0.0
 11
7336.914214300993
 21
2545.173969575146
 31
0.0
  0
LINE
  5
21D
  8
DEFAULT_LAYER
 10
7336.914214300993
 20
2545.173969575146
 30
0.0
 11
7396.66752232837
 21
2448.838643623215
 31
0.0
  0
LINE
  5
21E
  8
DEFAULT_LAYER
 10
7396.66752232837
 20
2448.838643623215
 30
0.0
 11
7456.420830355747
 21
2545.173969575146
 31
0.0
  0
LINE
  5
21F
  8
DEFAULT_LAYER
 10
7468.613748141187
 20
2781.825166538811
 30
0.0
 11
7455.521420772123
 21
2732.963935608143
 31
0.0
  0
LINE
  5
220
  8
DEFAULT_LAYER
 10
7455.521420772123
 20
2732.963935608143
 30
0.0
 11
7491.29032433373
 21
2697.195032046538
 31
0.0
  0
LINE
  5
221
  8
DEFAULT_LAYER
 10
7491.29032433373
 20
2697.195032046538
 30
0.0
 11
7396.66752232837
 21
2671.84092866363
 31
0.0
  0
LINE
  5
222
  8
DEFAULT_LAYER
 10
7396.66752232837
 20
2671.84092866363
 30
0.0
 11
7302.04472032301
 21
2697.195032046537
 31
0.0
  0
LINE
  5
223
  8
DEFAULT_LAYER
 10
7302.04472032301
 20
2697.195032046537
 30
0.0
 11
7337.813623884615
 21
2732.963935608142
 31
0.0
  0
LINE
  5
224
  8
DEFAULT_LAYER
 10
7337.813623884615
 20
2732.963935608142
 30
0.0
 11
7324.721296515553
 21
2781.825166538811
 31
0.0
  0
LINE
  5
225
  8
DEFAULT_LAYER
 10
7324.721296515553
 20
2781.825166538811
 30
0.0
 11
7396.66752232837
 21
2762.547233433799
 31
0.0
  0
LINE
  5
226
  8
DEFAULT_LAYER
 10
7396.66752232837
 20
2762.547233433799
 30
0.0
 11
7468.613748141187
 21
2781.825166538811
 31
0.0
  0
LINE
  5
227
  8
DEFAULT_LAYER
 10
7411.708990704751
 20
2787.28310634643
 30
0.0
 11
7396.66752232837
 21
2843.418630547528
 31
0.0
  0
LINE
  5
228
  8
DEFAULT_LAYER
 10
7396.66752232837
 20
2843.418630547528
 30
0.0
 11
7381.626053951989
 21
2787.283106346431
 31
0.0
  0
LINE
  5
229
  8
DEFAULT_LAYER
 10
7381.626053951989
 20
2787.283106346431
 30
0.0
 11
7396.66752232837
 21
2783.252757042
 31
0.0
  0
LINE
  5
22A
  8
DEFAULT_LAYER
 10
7396.66752232837
 20
2783.252757042
 30
0.0
 11
7411.708990704751
 21
2787.28310634643
 31
0.0
  0
LINE
  5
22B
  8
DEFAULT_LAYER
 10
7431.027507230533
 20
2792.459487248481
 30
0.0
 11
7463.437367239137
 21
2801.143683064593
 31
0.0
  0
LINE
  5
22C
  8
DEFAULT_LAYER
 10
7463.437367239137
 20
2801.143683064593
 30
0.0
 11
7415.986038854151
 21
2848.595011449577
 31
0.0
  0
LINE
  5
22D
  8
DEFAULT_LAYER
 10
7415.986038854151
 20
2848.595011449577
 30
0.0
 11
7431.027507230533
 21
2792.459487248481
 31
0.0
  0
LINE
  5
22E
  8
DEFAULT_LAYER
 10
7754.917710793981
 20
2400.417619842358
 30
0.0
 11
7690.728264683569
 21
2360.603234956629
 31
0.0
  0
LINE
  5
22F
  8
DEFAULT_LAYER
 10
7690.728264683569
 20
2360.603234956629
 30
0.0
 11
7766.225148112901
 21
2358.217689264744
 31
0.0
  0
LINE
  5
230
  8
DEFAULT_LAYER
 10
7766.225148112901
 20
2358.217689264744
 30
0.0
 11
7776.345792671042
 21
2320.44692956842
 31
0.0
  0
LINE
  5
231
  8
DEFAULT_LAYER
 10
7776.345792671042
 20
2320.44692956842
 30
0.0
 11
7795.722726239494
 21
2392.762630140772
 31
0.0
  0
LINE
  5
232
  8
DEFAULT_LAYER
 10
7795.722726239494
 20
2392.762630140772
 30
0.0
 11
7742.783959235596
 21
2445.701397144671
 31
0.0
  0
LINE
  5
233
  8
DEFAULT_LAYER
 10
7742.783959235596
 20
2445.701397144671
 30
0.0
 11
7754.917710793981
 21
2400.417619842358
 31
0.0
  0
LINE
  5
234
  8
DEFAULT_LAYER
 10
7611.934926243796
 20
2497.077300432283
 30
0.0
 11
7678.509918046094
 21
2532.75979897589
 31
0.0
  0
LINE
  5
235
  8
DEFAULT_LAYER
 10
7678.509918046094
 20
2532.75979897589
 30
0.0
 11
7706.160033184278
 21
2505.109683837705
 31
0.0
  0
LINE
  5
236
  8
DEFAULT_LAYER
 10
7706.160033184278
 20
2505.109683837705
 30
0.0
 11
7687.945367484325
 21
2573.087741672812
 31
0.0
  0
LINE
  5
237
  8
DEFAULT_LAYER
 10
7687.945367484325
 20
2573.087741672812
 30
0.0
 11
7619.967309649218
 21
2591.302407372766
 31
0.0
  0
LINE
  5
238
  8
DEFAULT_LAYER
 10
7619.967309649218
 20
2591.302407372766
 30
0.0
 11
7647.617424787403
 21
2563.652292234581
 31
0.0
  0
LINE
  5
239
  8
DEFAULT_LAYER
 10
7647.617424787403
 20
2563.652292234581
 30
0.0
 11
7611.934926243796
 21
2497.077300432283
 31
0.0
  0
LINE
  5
23A
  8
DEFAULT_LAYER
 10
7563.033361352884
 20
2448.175735541372
 30
0.0
 11
7519.004985272994
 21
2366.029336151623
 31
0.0
  0
LINE
  5
23B
  8
DEFAULT_LAYER
 10
7519.004985272994
 20
2366.029336151623
 30
0.0
 11
7482.054520388266
 21
2367.196894576753
 31
0.0
  0
LINE
  5
23C
  8
DEFAULT_LAYER
 10
7482.054520388266
 20
2367.196894576753
 30
0.0
 11
7480.886961963136
 21
2404.147359461479
 31
0.0
  0
LINE
  5
23D
  8
DEFAULT_LAYER
 10
7480.886961963136
 20
2404.147359461479
 30
0.0
 11
7563.033361352884
 21
2448.175735541372
 31
0.0
  0
LINE
  5
23E
  8
DEFAULT_LAYER
 10
7544.724592890335
 20
2293.577339260742
 30
0.0
 11
7623.927484757768
 21
2342.704019921742
 31
0.0
  0
LINE
  5
23F
  8
DEFAULT_LAYER
 10
7623.927484757768
 20
2342.704019921742
 30
0.0
 11
7530.77242801688
 21
2345.647527444056
 31
0.0
  0
LINE
  5
240
  8
DEFAULT_LAYER
 10
7530.77242801688
 20
2345.647527444056
 30
0.0
 11
7513.30833083108
 21
2313.063706959671
 31
0.0
  0
LINE
  5
241
  8
DEFAULT_LAYER
 10
7513.30833083108
 20
2313.063706959671
 30
0.0
 11
7544.724592890335
 21
2293.577339260742
 31
0.0
  0
LINE
  5
242
  8
DEFAULT_LAYER
 10
7654.624154054679
 20
2361.744050334136
 30
0.0
 11
7541.318660484762
 21
2365.324270070035
 31
0.0
  0
LINE
  5
243
  8
DEFAULT_LAYER
 10
7541.318660484762
 20
2365.324270070035
 30
0.0
 11
7594.870846027301
 21
2465.239815757867
 31
0.0
  0
LINE
  5
244
  8
DEFAULT_LAYER
 10
7594.870846027301
 20
2465.239815757867
 30
0.0
 11
7674.868777808423
 21
2508.116667966099
 31
0.0
  0
LINE
  5
245
  8
DEFAULT_LAYER
 10
7674.868777808423
 20
2508.116667966099
 30
0.0
 11
7716.51279498838
 21
2466.472650786143
 31
0.0
  0
LINE
  5
246
  8
DEFAULT_LAYER
 10
7716.51279498838
 20
2466.472650786143
 30
0.0
 11
7731.755563191879
 21
2409.585865402686
 31
0.0
  0
LINE
  5
247
  8
DEFAULT_LAYER
 10
7731.755563191879
 20
2409.585865402686
 30
0.0
 11
7654.624154054679
 21
2361.744050334136
 31
0.0
  0
LINE
  5
248
  8
DEFAULT_LAYER
 10
7847.821561419656
 20
2222.955998073103
 30
0.0
 11
7896.682792350324
 21
2209.863670704041
 31
0.0
  0
LINE
  5
249
  8
DEFAULT_LAYER
 10
7896.682792350324
 20
2209.863670704041
 30
0.0
 11
7877.404859245311
 21
2281.809896516857
 31
0.0
  0
LINE
  5
24A
  8
DEFAULT_LAYER
 10
7877.404859245311
 20
2281.809896516857
 30
0.0
 11
7896.682792350324
 21
2353.756122329674
 31
0.0
  0
LINE
  5
24B
  8
DEFAULT_LAYER
 10
7896.682792350324
 20
2353.756122329674
 30
0.0
 11
7847.821561419656
 21
2340.66379496061
 31
0.0
  0
LINE
  5
24C
  8
DEFAULT_LAYER
 10
7847.821561419656
 20
2340.66379496061
 30
0.0
 11
7812.052657858049
 21
2376.432698522217
 31
0.0
  0
LINE
  5
24D
  8
DEFAULT_LAYER
 10
7812.052657858049
 20
2376.432698522217
 30
0.0
 11
7786.698554475143
 21
2281.809896516857
 31
0.0
  0
LINE
  5
24E
  8
DEFAULT_LAYER
 10
7786.698554475143
 20
2281.809896516857
 30
0.0
 11
7812.05265785805
 21
2187.187094511497
 31
0.0
  0
LINE
  5
24F
  8
DEFAULT_LAYER
 10
7812.05265785805
 20
2187.187094511497
 30
0.0
 11
7847.821561419656
 21
2222.955998073103
 31
0.0
  0
LINE
  5
250
  8
DEFAULT_LAYER
 10
7907.317113059994
 20
2316.16988141902
 30
0.0
 11
7916.001308876104
 21
2348.579741427623
 31
0.0
  0
LINE
  5
251
  8
DEFAULT_LAYER
 10
7916.001308876104
 20
2348.579741427623
 30
0.0
 11
7963.45263726109
 21
2301.128413042638
 31
0.0
  0
LINE
  5
252
  8
DEFAULT_LAYER
 10
7963.45263726109
 20
2301.128413042638
 30
0.0
 11
7907.317113059994
 21
2316.16988141902
 31
0.0
  0
ARC
  5
253
  8
DEFAULT_LAYER
 10
-7396.667522328333
 20
2281.809896516835
 30
0.0
 40
61.80373199183749
 50
144.311536827093
 51
155.6884631729069
210
0.0
220
0.0
230
-1.0
  0
LINE
  5
254
  8
DEFAULT_LAYER
 10
7452.990523929915
 20
2307.254361115389
 30
0.0
 11
7493.290774530808
 21
2318.052780718669
 31
0.0
  0
LINE
  5
255
  8
DEFAULT_LAYER
 10
7493.290774530808
 20
2318.052780718669
 30
0.0
 11
7508.458752805111
 21
2346.352593525643
 31
0.0
  0
LINE
  5
256
  8
DEFAULT_LAYER
 10
7508.458752805111
 20
2346.352593525643
 30
0.0
 11
7476.366406854776
 21
2347.366645419534
 31
0.0
  0
LINE
  5
257
  8
DEFAULT_LAYER
 10
7476.366406854776
 20
2347.366645419534
 30
0.0
 11
7446.864575857166
 21
2317.864814421919
 31
0.0
  0
LINE
  5
258
  8
DEFAULT_LAYER
 10
7754.917710793981
 20
2163.202173191357
 30
0.0
 11
7690.728264683568
 21
2203.016558077085
 31
0.0
  0
LINE
  5
259
  8
DEFAULT_LAYER
 10
7690.728264683568
 20
2203.016558077085
 30
0.0
 11
7766.225148112902
 21
2205.402103768971
 31
0.0
  0
LINE
  5
25A
  8
DEFAULT_LAYER
 10
7766.225148112902
 20
2205.402103768971
 30
0.0
 11
7776.345792671043
 21
2243.172863465295
 31
0.0
  0
LINE
  5
25B
  8
DEFAULT_LAYER
 10
7776.345792671043
 20
2243.172863465295
 30
0.0
 11
7795.722726239494
 21
2170.857162892943
 31
0.0
  0
LINE
  5
25C
  8
DEFAULT_LAYER
 10
7795.722726239494
 20
2170.857162892943
 30
0.0
 11
7742.783959235596
 21
2117.918395889045
 31
0.0
  0
LINE
  5
25D
  8
DEFAULT_LAYER
 10
7742.783959235596
 20
2117.918395889045
 30
0.0
 11
7754.917710793981
 21
2163.202173191357
 31
0.0
  0
LINE
  5
25E
  8
DEFAULT_LAYER
 10
7611.934926243796
 20
2066.542492601431
 30
0.0
 11
7678.509918046094
 21
2030.859994057824
 31
0.0
  0
LINE
  5
25F
  8
DEFAULT_LAYER
 10
7678.509918046094
 20
2030.859994057824
 30
0.0
 11
7706.160033184278
 21
2058.510109196009
 31
0.0
  0
LINE
  5
260
  8
DEFAULT_LAYER
 10
7706.160033184278
 20
2058.510109196009
 30
0.0
 11
7687.945367484325
 21
1990.532051360902
 31
0.0
  0
LINE
  5
261
  8
DEFAULT_LAYER
 10
7687.945367484325
 20
1990.532051360902
 30
0.0
 11
7619.967309649218
 21
1972.317385660948
 31
0.0
  0
LINE
  5
262
  8
DEFAULT_LAYER
 10
7619.967309649218
 20
1972.317385660948
 30
0.0
 11
7647.617424787403
 21
1999.967500799133
 31
0.0
  0
LINE
  5
263
  8
DEFAULT_LAYER
 10
7647.617424787403
 20
1999.967500799133
 30
0.0
 11
7611.934926243796
 21
2066.542492601431
 31
0.0
  0
ARC
  5
264
  8
DEFAULT_LAYER
 10
7396.667522328333
 20
2281.809896516878
 30
0.0
 40
61.80373199183749
 50
324.3115368270929
 51
335.6884631729069
  0
LINE
  5
265
  8
DEFAULT_LAYER
 10
7452.990523929916
 20
2256.365431918325
 30
0.0
 11
7493.290774530808
 21
2245.567012315044
 31
0.0
  0
LINE
  5
266
  8
DEFAULT_LAYER
 10
7493.290774530808
 20
2245.567012315044
 30
0.0
 11
7508.458752805111
 21
2217.26719950807
 31
0.0
  0
LINE
  5
267
  8
DEFAULT_LAYER
 10
7508.458752805111
 20
2217.26719950807
 30
0.0
 11
7476.366406854776
 21
2216.253147614181
 31
0.0
  0
LINE
  5
268
  8
DEFAULT_LAYER
 10
7476.366406854776
 20
2216.253147614181
 30
0.0
 11
7446.864575857166
 21
2245.754978611794
 31
0.0
  0
LINE
  5
269
  8
DEFAULT_LAYER
 10
7458.166904831965
 20
2287.935844589607
 30
0.0
 11
7498.467155432859
 21
2298.734264192887
 31
0.0
  0
LINE
  5
26A
  8
DEFAULT_LAYER
 10
7498.467155432859
 20
2298.734264192887
 30
0.0
 11
7525.752916345941
 21
2281.809896516857
 31
0.0
  0
LINE
  5
26B
  8
DEFAULT_LAYER
 10
7525.752916345941
 20
2281.809896516857
 30
0.0
 11
7498.467155432859
 21
2264.885528840826
 31
0.0
  0
LINE
  5
26C
  8
DEFAULT_LAYER
 10
7498.467155432859
 20
2264.885528840826
 30
0.0
 11
7458.166904831965
 21
2275.683948444106
 31
0.0
  0
ARC
  5
26D
  8
DEFAULT_LAYER
 10
7396.667522328403
 20
2281.809896516849
 30
0.0
 40
61.80373199176134
 50
354.3115368270927
 51
0.0000000000067453
  0
ARC
  5
26E
  8
DEFAULT_LAYER
 10
7396.667522328404
 20
2281.809896516864
 30
0.0
 40
61.80373199176134
 50
359.9999999999932
 51
5.68846317290725
  0
LINE
  5
26F
  8
DEFAULT_LAYER
 10
7563.033361352885
 20
2115.444057492342
 30
0.0
 11
7519.004985272994
 21
2197.59045688209
 31
0.0
  0
LINE
  5
270
  8
DEFAULT_LAYER
 10
7519.004985272994
 20
2197.59045688209
 30
0.0
 11
7482.054520388266
 21
2196.422898456961
 31
0.0
  0
LINE
  5
271
  8
DEFAULT_LAYER
 10
7482.054520388266
 20
2196.422898456961
 30
0.0
 11
7480.886961963136
 21
2159.472433572233
 31
0.0
  0
LINE
  5
272
  8
DEFAULT_LAYER
 10
7480.886961963136
 20
2159.472433572233
 30
0.0
 11
7563.033361352885
 21
2115.444057492342
 31
0.0
  0
LINE
  5
273
  8
DEFAULT_LAYER
 10
7544.724592890335
 20
2270.042453772972
 30
0.0
 11
7623.927484757768
 21
2220.915773111972
 31
0.0
  0
LINE
  5
274
  8
DEFAULT_LAYER
 10
7623.927484757768
 20
2220.915773111972
 30
0.0
 11
7530.77242801688
 21
2217.972265589658
 31
0.0
  0
LINE
  5
275
  8
DEFAULT_LAYER
 10
7530.77242801688
 20
2217.972265589658
 30
0.0
 11
7513.308330831079
 21
2250.556086074042
 31
0.0
  0
LINE
  5
276
  8
DEFAULT_LAYER
 10
7513.308330831079
 20
2250.556086074042
 30
0.0
 11
7544.724592890335
 21
2270.042453772972
 31
0.0
  0
LINE
  5
277
  8
DEFAULT_LAYER
 10
7654.624154054679
 20
2201.875742699577
 30
0.0
 11
7541.318660484762
 21
2198.295522963679
 31
0.0
  0
LINE
  5
278
  8
DEFAULT_LAYER
 10
7541.318660484762
 20
2198.295522963679
 30
0.0
 11
7594.870846027301
 21
2098.379977275847
 31
0.0
  0
LINE
  5
279
  8
DEFAULT_LAYER
 10
7594.870846027301
 20
2098.379977275847
 30
0.0
 11
7674.868777808423
 21
2055.503125067614
 31
0.0
  0
LINE
  5
27A
  8
DEFAULT_LAYER
 10
7674.868777808423
 20
2055.503125067614
 30
0.0
 11
7716.51279498838
 21
2097.147142247571
 31
0.0
  0
LINE
  5
27B
  8
DEFAULT_LAYER
 10
7716.51279498838
 20
2097.147142247571
 30
0.0
 11
7731.755563191879
 21
2154.033927631027
 31
0.0
  0
LINE
  5
27C
  8
DEFAULT_LAYER
 10
7731.755563191879
 20
2154.033927631027
 30
0.0
 11
7654.624154054679
 21
2201.875742699577
 31
0.0
  0
LINE
  5
27D
  8
DEFAULT_LAYER
 10
7660.031595386658
 20
2222.056588489481
 30
0.0
 11
7750.750262663442
 21
2224.9231111334
 31
0.0
  0
LINE
  5
27E
  8
DEFAULT_LAYER
 10
7750.750262663442
 20
2224.9231111334
 30
0.0
 11
7765.993030866941
 21
2281.809896516857
 31
0.0
  0
LINE
  5
27F
  8
DEFAULT_LAYER
 10
7765.993030866941
 20
2281.809896516857
 30
0.0
 11
7750.750262663442
 21
2338.696681900313
 31
0.0
  0
LINE
  5
280
  8
DEFAULT_LAYER
 10
7750.750262663442
 20
2338.696681900313
 30
0.0
 11
7660.031595386658
 21
2341.563204544234
 31
0.0
  0
LINE
  5
281
  8
DEFAULT_LAYER
 10
7660.031595386658
 20
2341.563204544234
 30
0.0
 11
7563.696269434728
 21
2281.809896516858
 31
0.0
  0
LINE
  5
282
  8
DEFAULT_LAYER
 10
7563.696269434728
 20
2281.809896516858
 30
0.0
 11
7660.031595386658
 21
2222.056588489481
 31
0.0
  0
LINE
  5
283
  8
DEFAULT_LAYER
 10
7902.140732157943
 20
2266.768428140477
 30
0.0
 11
7958.276256359041
 21
2281.809896516858
 31
0.0
  0
LINE
  5
284
  8
DEFAULT_LAYER
 10
7958.276256359041
 20
2281.809896516858
 30
0.0
 11
7902.140732157943
 21
2296.851364893239
 31
0.0
  0
LINE
  5
285
  8
DEFAULT_LAYER
 10
7902.140732157943
 20
2296.851364893239
 30
0.0
 11
7898.110382853513
 21
2281.809896516857
 31
0.0
  0
LINE
  5
286
  8
DEFAULT_LAYER
 10
7898.110382853513
 20
2281.809896516857
 30
0.0
 11
7902.140732157943
 21
2266.768428140477
 31
0.0
  0
LINE
  5
287
  8
DEFAULT_LAYER
 10
7907.317113059994
 20
2247.449911614694
 30
0.0
 11
7916.001308876105
 21
2215.040051606091
 31
0.0
  0
LINE
  5
288
  8
DEFAULT_LAYER
 10
7916.001308876105
 20
2215.040051606091
 30
0.0
 11
7963.45263726109
 21
2262.491379991076
 31
0.0
  0
LINE
  5
289
  8
DEFAULT_LAYER
 10
7963.45263726109
 20
2262.491379991076
 30
0.0
 11
7907.317113059994
 21
2247.449911614694
 31
0.0
  0
LINE
  5
28A
  8
DEFAULT_LAYER
 10
7402.79347040112
 20
2220.31051401326
 30
0.0
 11
7413.591890004401
 21
2180.010263412368
 31
0.0
  0
LINE
  5
28B
  8
DEFAULT_LAYER
 10
7413.591890004401
 20
2180.010263412368
 30
0.0
 11
7396.66752232837
 21
2152.724502499286
 31
0.0
  0
LINE
  5
28C
  8
DEFAULT_LAYER
 10
7396.66752232837
 20
2152.724502499286
 30
0.0
 11
7379.743154652339
 21
2180.010263412368
 31
0.0
  0
LINE
  5
28D
  8
DEFAULT_LAYER
 10
7379.743154652339
 20
2180.010263412368
 30
0.0
 11
7390.541574255621
 21
2220.310514013261
 31
0.0
  0
ARC
  5
28E
  8
DEFAULT_LAYER
 10
7396.667522328363
 20
2281.809896516827
 30
0.0
 40
61.80373199176482
 50
264.3115368270931
 51
270.0000000000067
  0
ARC
  5
28F
  8
DEFAULT_LAYER
 10
7396.667522328377
 20
2281.809896516826
 30
0.0
 40
61.80373199176482
 50
269.9999999999933
 51
275.6884631729069
  0
LINE
  5
290
  8
DEFAULT_LAYER
 10
7335.168139824774
 20
2275.683948444107
 30
0.0
 11
7294.867889223881
 21
2264.885528840826
 31
0.0
  0
LINE
  5
291
  8
DEFAULT_LAYER
 10
7294.867889223881
 20
2264.885528840826
 30
0.0
 11
7267.582128310799
 21
2281.809896516858
 31
0.0
  0
LINE
  5
292
  8
DEFAULT_LAYER
 10
7267.582128310799
 20
2281.809896516858
 30
0.0
 11
7294.867889223882
 21
2298.734264192887
 31
0.0
  0
LINE
  5
293
  8
DEFAULT_LAYER
 10
7294.867889223882
 20
2298.734264192887
 30
0.0
 11
7335.168139824775
 21
2287.935844589606
 31
0.0
  0
ARC
  5
294
  8
DEFAULT_LAYER
 10
7396.667522328337
 20
2281.809896516864
 30
0.0
 40
61.80373199176134
 50
174.3115368270928
 51
180.0000000000068
  0
ARC
  5
295
  8
DEFAULT_LAYER
 10
7396.667522328337
 20
2281.809896516849
 30
0.0
 40
61.80373199176134
 50
179.9999999999933
 51
185.6884631729072
  0
LINE
  5
296
  8
DEFAULT_LAYER
 10
7390.54157425562
 20
2343.309279020453
 30
0.0
 11
7379.743154652339
 21
2383.609529621345
 31
0.0
  0
LINE
  5
297
  8
DEFAULT_LAYER
 10
7379.743154652339
 20
2383.609529621345
 30
0.0
 11
7396.66752232837
 21
2410.895290534428
 31
0.0
  0
LINE
  5
298
  8
DEFAULT_LAYER
 10
7396.66752232837
 20
2410.895290534428
 30
0.0
 11
7413.591890004401
 21
2383.609529621345
 31
0.0
  0
LINE
  5
299
  8
DEFAULT_LAYER
 10
7413.591890004401
 20
2383.609529621345
 30
0.0
 11
7402.79347040112
 21
2343.309279020453
 31
0.0
  0
ARC
  5
29A
  8
DEFAULT_LAYER
 10
7396.667522328377
 20
2281.809896516887
 30
0.0
 40
61.80373199176482
 50
84.31153682709308
 51
90.00000000000674
  0
ARC
  5
29B
  8
DEFAULT_LAYER
 10
7396.667522328363
 20
2281.809896516887
 30
0.0
 40
61.80373199176482
 50
89.99999999999325
 51
95.68846317290692
  0
ARC
  5
29C
  8
DEFAULT_LAYER
 10
7396.667522328372
 20
2281.809896516857
 30
0.0
 40
26.97072727957948
 50
314.999999999998
 51
0.0
  0
ARC
  5
29D
  8
DEFAULT_LAYER
 10
7396.667522328372
 20
2281.809896516857
 30
0.0
 40
26.97072727957948
 50
0.0
 51
45.00000000000273
  0
ARC
  5
29E
  8
DEFAULT_LAYER
 10
7396.66752232837
 20
2281.809896516859
 30
0.0
 40
26.97072727958039
 50
44.99999999999864
 51
90.0
  0
ARC
  5
29F
  8
DEFAULT_LAYER
 10
7396.66752232837
 20
2281.809896516859
 30
0.0
 40
26.97072727958039
 50
90.0
 51
135.0000000000014
  0
ARC
  5
2A0
  8
DEFAULT_LAYER
 10
7396.667522328368
 20
2281.809896516857
 30
0.0
 40
26.97072727957948
 50
134.9999999999973
 51
180.0
  0
ARC
  5
2A1
  8
DEFAULT_LAYER
 10
7396.66752232837
 20
2281.809896516857
 30
0.0
 40
26.97072727958111
 50
180.0
 51
224.9999999999986
  0
ARC
  5
2A2
  8
DEFAULT_LAYER
 10
7396.66752232837
 20
2281.809896516857
 30
0.0
 40
26.97072727958111
 50
225.0000000000007
 51
270.0
  0
ARC
  5
2A3
  8
DEFAULT_LAYER
 10
7396.66752232837
 20
2281.809896516855
 30
0.0
 40
26.97072727958039
 50
270.0
 51
315.0000000000014
  0
ARC
  5
2A4
  8
DEFAULT_LAYER
 10
-7996.913289410627
 20
1681.564129434584
 30
0.0
 40
61.80373199183749
 50
54.31153682709343
 51
65.68846317290692
210
0.0
220
0.0
230
-1.0
  0
LINE
  5
2A5
  8
DEFAULT_LAYER
 10
7971.468824812072
 20
1737.887131036167
 30
0.0
 11
7960.670405208791
 21
1778.18738163706
 31
0.0
  0
LINE
  5
2A6
  8
DEFAULT_LAYER
 10
7960.670405208791
 20
1778.18738163706
 30
0.0
 11
7932.370592401817
 21
1793.355359911362
 31
0.0
  0
LINE
  5
2A7
  8
DEFAULT_LAYER
 10
7932.370592401817
 20
1793.355359911362
 30
0.0
 11
7931.356540507928
 21
1761.263013961029
 31
0.0
  0
LINE
  5
2A8
  8
DEFAULT_LAYER
 10
7931.356540507928
 20
1761.263013961029
 30
0.0
 11
7960.85837150554
 21
1731.761182963416
 31
0.0
  0
LINE
  5
2A9
  8
DEFAULT_LAYER
 10
7638.663100944993
 20
1800.171852760122
 30
0.0
 11
7702.852547055405
 21
1760.357467874394
 31
0.0
  0
LINE
  5
2AA
  8
DEFAULT_LAYER
 10
7702.852547055405
 20
1760.357467874394
 30
0.0
 11
7627.355663626072
 21
1757.971922182508
 31
0.0
  0
LINE
  5
2AB
  8
DEFAULT_LAYER
 10
7627.355663626072
 20
1757.971922182508
 30
0.0
 11
7617.235019067931
 21
1720.201162486184
 31
0.0
  0
LINE
  5
2AC
  8
DEFAULT_LAYER
 10
7617.235019067931
 20
1720.201162486184
 30
0.0
 11
7597.858085499479
 21
1792.516863058536
 31
0.0
  0
LINE
  5
2AD
  8
DEFAULT_LAYER
 10
7597.858085499479
 20
1792.516863058536
 30
0.0
 11
7650.796852503378
 21
1845.455630062435
 31
0.0
  0
LINE
  5
2AE
  8
DEFAULT_LAYER
 10
7650.796852503378
 20
1845.455630062435
 30
0.0
 11
7638.663100944993
 21
1800.171852760122
 31
0.0
  0
ARC
  5
2AF
  8
DEFAULT_LAYER
 10
7996.913289410641
 20
1681.5641294346
 30
0.0
 40
61.80373199183749
 50
144.3115368270931
 51
155.6884631729067
  0
LINE
  5
2B0
  8
DEFAULT_LAYER
 10
7940.590287809058
 20
1707.008594033153
 30
0.0
 11
7900.290037208167
 21
1717.807013636434
 31
0.0
  0
LINE
  5
2B1
  8
DEFAULT_LAYER
 10
7900.290037208167
 20
1717.807013636434
 30
0.0
 11
7885.122058933864
 21
1746.106826443407
 31
0.0
  0
LINE
  5
2B2
  8
DEFAULT_LAYER
 10
7885.122058933864
 20
1746.106826443407
 30
0.0
 11
7917.214404884197
 21
1747.120878337297
 31
0.0
  0
LINE
  5
2B3
  8
DEFAULT_LAYER
 10
7917.214404884197
 20
1747.120878337297
 30
0.0
 11
7946.716235881809
 21
1717.619047339685
 31
0.0
  0
LINE
  5
2B4
  8
DEFAULT_LAYER
 10
7848.856218848639
 20
1693.331572178507
 30
0.0
 11
7769.653326981205
 21
1742.458252839507
 31
0.0
  0
LINE
  5
2B5
  8
DEFAULT_LAYER
 10
7769.653326981205
 20
1742.458252839507
 30
0.0
 11
7862.808383722095
 21
1745.401760361821
 31
0.0
  0
LINE
  5
2B6
  8
DEFAULT_LAYER
 10
7862.808383722095
 20
1745.401760361821
 30
0.0
 11
7880.272480907895
 21
1712.817939877435
 31
0.0
  0
LINE
  5
2B7
  8
DEFAULT_LAYER
 10
7880.272480907895
 20
1712.817939877435
 30
0.0
 11
7848.856218848639
 21
1693.331572178507
 31
0.0
  0
LINE
  5
2B8
  8
DEFAULT_LAYER
 10
7738.956657684296
 20
1761.498283251901
 30
0.0
 11
7852.262151254211
 21
1765.0785029878
 31
0.0
  0
LINE
  5
2B9
  8
DEFAULT_LAYER
 10
7852.262151254211
 20
1765.0785029878
 30
0.0
 11
7798.709965711673
 21
1864.994048675631
 31
0.0
  0
LINE
  5
2BA
  8
DEFAULT_LAYER
 10
7798.709965711673
 20
1864.994048675631
 30
0.0
 11
7718.71203393055
 21
1907.870900883864
 31
0.0
  0
LINE
  5
2BB
  8
DEFAULT_LAYER
 10
7718.71203393055
 20
1907.870900883864
 30
0.0
 11
7677.068016750595
 21
1866.226883703907
 31
0.0
  0
LINE
  5
2BC
  8
DEFAULT_LAYER
 10
7677.068016750595
 20
1866.226883703907
 30
0.0
 11
7661.825248547094
 21
1809.340098320451
 31
0.0
  0
LINE
  5
2BD
  8
DEFAULT_LAYER
 10
7661.825248547094
 20
1809.340098320451
 30
0.0
 11
7738.956657684296
 21
1761.498283251901
 31
0.0
  0
LINE
  5
2BE
  8
DEFAULT_LAYER
 10
7486.263698678979
 20
1715.924114336785
 30
0.0
 11
7477.579502862868
 21
1748.333974345388
 31
0.0
  0
LINE
  5
2BF
  8
DEFAULT_LAYER
 10
7477.579502862868
 20
1748.333974345388
 30
0.0
 11
7430.128174477883
 21
1700.882645960403
 31
0.0
  0
LINE
  5
2C0
  8
DEFAULT_LAYER
 10
7430.128174477883
 20
1700.882645960403
 30
0.0
 11
7486.263698678979
 21
1715.924114336785
 31
0.0
  0
LINE
  5
2C1
  8
DEFAULT_LAYER
 10
7878.305566085104
 20
2039.814317900234
 30
0.0
 11
7918.119950970832
 21
1975.62487178982
 31
0.0
  0
LINE
  5
2C2
  8
DEFAULT_LAYER
 10
7918.119950970832
 20
1975.62487178982
 30
0.0
 11
7920.505496662717
 21
2051.121755219154
 31
0.0
  0
LINE
  5
2C3
  8
DEFAULT_LAYER
 10
7920.505496662717
 20
2051.121755219154
 30
0.0
 11
7958.276256359041
 21
2061.242399777293
 31
0.0
  0
LINE
  5
2C4
  8
DEFAULT_LAYER
 10
7958.276256359041
 20
2061.242399777293
 30
0.0
 11
7885.96055578669
 21
2080.619333345746
 31
0.0
  0
LINE
  5
2C5
  8
DEFAULT_LAYER
 10
7885.96055578669
 20
2080.619333345746
 30
0.0
 11
7833.021788782791
 21
2027.680566341847
 31
0.0
  0
LINE
  5
2C6
  8
DEFAULT_LAYER
 10
7833.021788782791
 20
2027.680566341847
 30
0.0
 11
7878.305566085104
 21
2039.814317900234
 31
0.0
  0
LINE
  5
2C7
  8
DEFAULT_LAYER
 10
7781.645885495178
 20
1896.831533350048
 30
0.0
 11
7745.963386951571
 21
1963.406525152346
 31
0.0
  0
LINE
  5
2C8
  8
DEFAULT_LAYER
 10
7745.963386951571
 20
1963.406525152346
 30
0.0
 11
7773.613502089755
 21
1991.056640290531
 31
0.0
  0
LINE
  5
2C9
  8
DEFAULT_LAYER
 10
7773.613502089755
 20
1991.056640290531
 30
0.0
 11
7705.635444254648
 21
1972.841974590577
 31
0.0
  0
LINE
  5
2CA
  8
DEFAULT_LAYER
 10
7705.635444254648
 20
1972.841974590577
 30
0.0
 11
7687.420778554696
 21
1904.863916755469
 31
0.0
  0
LINE
  5
2CB
  8
DEFAULT_LAYER
 10
7687.420778554696
 20
1904.863916755469
 30
0.0
 11
7715.07089369288
 21
1932.514031893655
 31
0.0
  0
LINE
  5
2CC
  8
DEFAULT_LAYER
 10
7715.07089369288
 20
1932.514031893655
 30
0.0
 11
7781.645885495178
 21
1896.831533350048
 31
0.0
  0
LINE
  5
2CD
  8
DEFAULT_LAYER
 10
7830.54745038609
 20
1847.929968459135
 30
0.0
 11
7912.693849775838
 21
1803.901592379245
 31
0.0
  0
LINE
  5
2CE
  8
DEFAULT_LAYER
 10
7912.693849775838
 20
1803.901592379245
 30
0.0
 11
7911.526291350708
 21
1766.951127494517
 31
0.0
  0
LINE
  5
2CF
  8
DEFAULT_LAYER
 10
7911.526291350708
 20
1766.951127494517
 30
0.0
 11
7874.575826465981
 21
1765.783569069387
 31
0.0
  0
LINE
  5
2D0
  8
DEFAULT_LAYER
 10
7874.575826465981
 20
1765.783569069387
 30
0.0
 11
7830.54745038609
 21
1847.929968459135
 31
0.0
  0
LINE
  5
2D1
  8
DEFAULT_LAYER
 10
7985.145846666719
 20
1829.621199996586
 30
0.0
 11
7936.019166005719
 21
1908.82409186402
 31
0.0
  0
LINE
  5
2D2
  8
DEFAULT_LAYER
 10
7936.019166005719
 20
1908.82409186402
 30
0.0
 11
7933.075658483404
 21
1815.669035123131
 31
0.0
  0
LINE
  5
2D3
  8
DEFAULT_LAYER
 10
7933.075658483404
 20
1815.669035123131
 30
0.0
 11
7965.65947896779
 21
1798.20493793733
 31
0.0
  0
LINE
  5
2D4
  8
DEFAULT_LAYER
 10
7965.65947896779
 20
1798.20493793733
 30
0.0
 11
7985.145846666719
 21
1829.621199996586
 31
0.0
  0
LINE
  5
2D5
  8
DEFAULT_LAYER
 10
7916.979135593324
 20
1939.52076116093
 30
0.0
 11
7913.398915857425
 21
1826.215267591014
 31
0.0
  0
LINE
  5
2D6
  8
DEFAULT_LAYER
 10
7913.398915857425
 20
1826.215267591014
 30
0.0
 11
7813.483370169594
 21
1879.767453133553
 31
0.0
  0
LINE
  5
2D7
  8
DEFAULT_LAYER
 10
7813.483370169594
 20
1879.767453133553
 30
0.0
 11
7770.606517961361
 21
1959.765384914675
 31
0.0
  0
LINE
  5
2D8
  8
DEFAULT_LAYER
 10
7770.606517961361
 20
1959.765384914675
 30
0.0
 11
7812.250535141317
 21
2001.409402094631
 31
0.0
  0
LINE
  5
2D9
  8
DEFAULT_LAYER
 10
7812.250535141317
 20
2001.409402094631
 30
0.0
 11
7869.137320524774
 21
2016.652170298131
 31
0.0
  0
LINE
  5
2DA
  8
DEFAULT_LAYER
 10
7869.137320524774
 20
2016.652170298131
 30
0.0
 11
7916.979135593324
 21
1939.52076116093
 31
0.0
  0
LINE
  5
2DB
  8
DEFAULT_LAYER
 10
7962.55330450844
 20
2192.213720166245
 30
0.0
 11
7930.143444499837
 21
2200.897915982356
 31
0.0
  0
LINE
  5
2DC
  8
DEFAULT_LAYER
 10
7930.143444499837
 20
2200.897915982356
 30
0.0
 11
7977.594772884823
 21
2248.349244367341
 31
0.0
  0
LINE
  5
2DD
  8
DEFAULT_LAYER
 10
7977.594772884823
 20
2248.349244367341
 30
0.0
 11
7962.55330450844
 21
2192.213720166245
 31
0.0
  0
LINE
  5
2DE
  8
DEFAULT_LAYER
 10
7878.305566085105
 20
2523.805475133479
 30
0.0
 11
7918.119950970833
 21
2587.994921243891
 31
0.0
  0
LINE
  5
2DF
  8
DEFAULT_LAYER
 10
7918.119950970833
 20
2587.994921243891
 30
0.0
 11
7920.505496662719
 21
2512.498037814558
 31
0.0
  0
LINE
  5
2E0
  8
DEFAULT_LAYER
 10
7920.505496662719
 20
2512.498037814558
 30
0.0
 11
7958.276256359042
 21
2502.377393256418
 31
0.0
  0
LINE
  5
2E1
  8
DEFAULT_LAYER
 10
7958.276256359042
 20
2502.377393256418
 30
0.0
 11
7885.96055578669
 21
2483.000459687967
 31
0.0
  0
LINE
  5
2E2
  8
DEFAULT_LAYER
 10
7885.96055578669
 20
2483.000459687967
 30
0.0
 11
7833.021788782792
 21
2535.939226691865
 31
0.0
  0
LINE
  5
2E3
  8
DEFAULT_LAYER
 10
7833.021788782792
 20
2535.939226691865
 30
0.0
 11
7878.305566085105
 21
2523.805475133479
 31
0.0
  0
ARC
  5
2E4
  8
DEFAULT_LAYER
 10
7996.913289410627
 20
2882.055663599127
 30
0.0
 40
61.80373199183749
 50
234.3115368270933
 51
245.6884631729069
  0
LINE
  5
2E5
  8
DEFAULT_LAYER
 10
7971.468824812074
 20
2825.732661997546
 30
0.0
 11
7960.670405208793
 21
2785.432411396652
 31
0.0
  0
LINE
  5
2E6
  8
DEFAULT_LAYER
 10
7960.670405208793
 20
2785.432411396652
 30
0.0
 11
7932.370592401818
 21
2770.26443312235
 31
0.0
  0
LINE
  5
2E7
  8
DEFAULT_LAYER
 10
7932.370592401818
 20
2770.26443312235
 30
0.0
 11
7931.356540507929
 21
2802.356779072684
 31
0.0
  0
LINE
  5
2E8
  8
DEFAULT_LAYER
 10
7931.356540507929
 20
2802.356779072684
 30
0.0
 11
7960.858371505541
 21
2831.858610070296
 31
0.0
  0
LINE
  5
2E9
  8
DEFAULT_LAYER
 10
7985.14584666672
 20
2733.998593037126
 30
0.0
 11
7936.01916600572
 21
2654.795701169691
 31
0.0
  0
LINE
  5
2EA
  8
DEFAULT_LAYER
 10
7936.01916600572
 20
2654.795701169691
 30
0.0
 11
7933.075658483406
 21
2747.950757910581
 31
0.0
  0
LINE
  5
2EB
  8
DEFAULT_LAYER
 10
7933.075658483406
 20
2747.950757910581
 30
0.0
 11
7965.659478967791
 21
2765.414855096382
 31
0.0
  0
LINE
  5
2EC
  8
DEFAULT_LAYER
 10
7965.659478967791
 20
2765.414855096382
 30
0.0
 11
7985.14584666672
 21
2733.998593037126
 31
0.0
  0
LINE
  5
2ED
  8
DEFAULT_LAYER
 10
7916.979135593326
 20
2624.099031872781
 30
0.0
 11
7913.398915857427
 21
2737.404525442699
 31
0.0
  0
LINE
  5
2EE
  8
DEFAULT_LAYER
 10
7913.398915857427
 20
2737.404525442699
 30
0.0
 11
7813.483370169594
 21
2683.85233990016
 31
0.0
  0
LINE
  5
2EF
  8
DEFAULT_LAYER
 10
7813.483370169594
 20
2683.85233990016
 30
0.0
 11
7770.606517961362
 21
2603.854408119038
 31
0.0
  0
LINE
  5
2F0
  8
DEFAULT_LAYER
 10
7770.606517961362
 20
2603.854408119038
 30
0.0
 11
7812.250535141319
 21
2562.21039093908
 31
0.0
  0
LINE
  5
2F1
  8
DEFAULT_LAYER
 10
7812.250535141319
 20
2562.21039093908
 30
0.0
 11
7869.137320524775
 21
2546.967622735581
 31
0.0
  0
LINE
  5
2F2
  8
DEFAULT_LAYER
 10
7869.137320524775
 20
2546.967622735581
 30
0.0
 11
7916.979135593326
 21
2624.099031872781
 31
0.0
  0
LINE
  5
2F3
  8
DEFAULT_LAYER
 10
7962.553304508442
 20
2371.406072867467
 30
0.0
 11
7930.143444499838
 21
2362.721877051356
 31
0.0
  0
LINE
  5
2F4
  8
DEFAULT_LAYER
 10
7930.143444499838
 20
2362.721877051356
 30
0.0
 11
7977.594772884823
 21
2315.270548666371
 31
0.0
  0
LINE
  5
2F5
  8
DEFAULT_LAYER
 10
7977.594772884823
 20
2315.270548666371
 30
0.0
 11
7962.553304508442
 21
2371.406072867467
 31
0.0
  0
LINE
  5
2F6
  8
DEFAULT_LAYER
 10
7638.663100944993
 20
2763.447940273591
 30
0.0
 11
7702.852547055407
 21
2803.262325159318
 31
0.0
  0
LINE
  5
2F7
  8
DEFAULT_LAYER
 10
7702.852547055407
 20
2803.262325159318
 30
0.0
 11
7627.355663626072
 21
2805.647870851203
 31
0.0
  0
LINE
  5
2F8
  8
DEFAULT_LAYER
 10
7627.355663626072
 20
2805.647870851203
 30
0.0
 11
7617.235019067933
 21
2843.418630547528
 31
0.0
  0
LINE
  5
2F9
  8
DEFAULT_LAYER
 10
7617.235019067933
 20
2843.418630547528
 30
0.0
 11
7597.85808549948
 21
2771.102929975177
 31
0.0
  0
LINE
  5
2FA
  8
DEFAULT_LAYER
 10
7597.85808549948
 20
2771.102929975177
 30
0.0
 11
7650.796852503378
 21
2718.164162971277
 31
0.0
  0
LINE
  5
2FB
  8
DEFAULT_LAYER
 10
7650.796852503378
 20
2718.164162971277
 30
0.0
 11
7638.663100944993
 21
2763.447940273591
 31
0.0
  0
LINE
  5
2FC
  8
DEFAULT_LAYER
 10
7781.645885495178
 20
2666.788259683664
 30
0.0
 11
7715.07089369288
 21
2631.105761140057
 31
0.0
  0
LINE
  5
2FD
  8
DEFAULT_LAYER
 10
7715.07089369288
 20
2631.105761140057
 30
0.0
 11
7687.420778554696
 21
2658.755876278243
 31
0.0
  0
LINE
  5
2FE
  8
DEFAULT_LAYER
 10
7687.420778554696
 20
2658.755876278243
 30
0.0
 11
7705.635444254649
 21
2590.777818443135
 31
0.0
  0
LINE
  5
2FF
  8
DEFAULT_LAYER
 10
7705.635444254649
 20
2590.777818443135
 30
0.0
 11
7773.613502089756
 21
2572.563152743182
 31
0.0
  0
LINE
  5
300
  8
DEFAULT_LAYER
 10
7773.613502089756
 20
2572.563152743182
 30
0.0
 11
7745.963386951572
 21
2600.213267881366
 31
0.0
  0
LINE
  5
301
  8
DEFAULT_LAYER
 10
7745.963386951572
 20
2600.213267881366
 30
0.0
 11
7781.645885495178
 21
2666.788259683664
 31
0.0
  0
LINE
  5
302
  8
DEFAULT_LAYER
 10
7830.547450386091
 20
2715.689824574575
 30
0.0
 11
7874.575826465982
 21
2797.836223964324
 31
0.0
  0
LINE
  5
303
  8
DEFAULT_LAYER
 10
7874.575826465982
 20
2797.836223964324
 30
0.0
 11
7911.526291350709
 21
2796.668665539195
 31
0.0
  0
LINE
  5
304
  8
DEFAULT_LAYER
 10
7911.526291350709
 20
2796.668665539195
 30
0.0
 11
7912.693849775839
 21
2759.718200654467
 31
0.0
  0
LINE
  5
305
  8
DEFAULT_LAYER
 10
7912.693849775839
 20
2759.718200654467
 30
0.0
 11
7830.547450386091
 21
2715.689824574575
 31
0.0
  0
LINE
  5
306
  8
DEFAULT_LAYER
 10
7848.85621884864
 20
2870.288220855206
 30
0.0
 11
7769.653326981206
 21
2821.161540194205
 31
0.0
  0
LINE
  5
307
  8
DEFAULT_LAYER
 10
7769.653326981206
 20
2821.161540194205
 30
0.0
 11
7862.808383722096
 21
2818.218032671892
 31
0.0
  0
LINE
  5
308
  8
DEFAULT_LAYER
 10
7862.808383722096
 20
2818.218032671892
 30
0.0
 11
7880.272480907896
 21
2850.801853156277
 31
0.0
  0
LINE
  5
309
  8
DEFAULT_LAYER
 10
7880.272480907896
 20
2850.801853156277
 30
0.0
 11
7848.85621884864
 21
2870.288220855206
 31
0.0
  0
LINE
  5
30A
  8
DEFAULT_LAYER
 10
7738.956657684296
 20
2802.121509781811
 30
0.0
 11
7852.262151254212
 21
2798.541290045912
 31
0.0
  0
LINE
  5
30B
  8
DEFAULT_LAYER
 10
7852.262151254212
 20
2798.541290045912
 30
0.0
 11
7798.709965711673
 21
2698.625744358081
 31
0.0
  0
LINE
  5
30C
  8
DEFAULT_LAYER
 10
7798.709965711673
 20
2698.625744358081
 30
0.0
 11
7718.712033930551
 21
2655.748892149848
 31
0.0
  0
LINE
  5
30D
  8
DEFAULT_LAYER
 10
7718.712033930551
 20
2655.748892149848
 30
0.0
 11
7677.068016750595
 21
2697.392909329805
 31
0.0
  0
LINE
  5
30E
  8
DEFAULT_LAYER
 10
7677.068016750595
 20
2697.392909329805
 30
0.0
 11
7661.825248547095
 21
2754.279694713261
 31
0.0
  0
LINE
  5
30F
  8
DEFAULT_LAYER
 10
7661.825248547095
 20
2754.279694713261
 30
0.0
 11
7738.956657684296
 21
2802.121509781811
 31
0.0
  0
LINE
  5
310
  8
DEFAULT_LAYER
 10
7486.263698678981
 20
2847.695678696928
 30
0.0
 11
7477.57950286287
 21
2815.285818688324
 31
0.0
  0
LINE
  5
311
  8
DEFAULT_LAYER
 10
7477.57950286287
 20
2815.285818688324
 30
0.0
 11
7430.128174477884
 21
2862.73714707331
 31
0.0
  0
LINE
  5
312
  8
DEFAULT_LAYER
 10
7430.128174477884
 20
2862.73714707331
 30
0.0
 11
7486.263698678981
 21
2847.695678696928
 31
0.0
  0
ARC
  5
313
  8
DEFAULT_LAYER
 10
-7996.913289410642
 20
2882.055663599112
 30
0.0
 40
61.80373199183749
 50
324.3115368270929
 51
335.6884631729069
210
0.0
220
0.0
230
-1.0
  0
LINE
  5
314
  8
DEFAULT_LAYER
 10
7940.59028780906
 20
2856.61119900056
 30
0.0
 11
7900.290037208167
 21
2845.812779397278
 31
0.0
  0
LINE
  5
315
  8
DEFAULT_LAYER
 10
7900.290037208167
 20
2845.812779397278
 30
0.0
 11
7885.122058933865
 21
2817.512966590303
 31
0.0
  0
LINE
  5
316
  8
DEFAULT_LAYER
 10
7885.122058933865
 20
2817.512966590303
 30
0.0
 11
7917.214404884199
 21
2816.498914696415
 31
0.0
  0
LINE
  5
317
  8
DEFAULT_LAYER
 10
7917.214404884199
 20
2816.498914696415
 30
0.0
 11
7946.71623588181
 21
2846.000745694027
 31
0.0
  0
LINE
  5
318
  8
DEFAULT_LAYER
 10
6890.675082491962
 20
2187.556569271031
 30
0.0
 11
6877.582755122897
 21
2138.695338340362
 31
0.0
  0
LINE
  5
319
  8
DEFAULT_LAYER
 10
6877.582755122897
 20
2138.695338340362
 30
0.0
 11
6913.351658684503
 21
2102.926434778756
 31
0.0
  0
LINE
  5
31A
  8
DEFAULT_LAYER
 10
6913.351658684503
 20
2102.926434778756
 30
0.0
 11
6962.212889615173
 21
2116.01876214782
 31
0.0
  0
LINE
  5
31B
  8
DEFAULT_LAYER
 10
6962.212889615173
 20
2116.01876214782
 30
0.0
 11
6975.305216984237
 21
2164.879993078489
 31
0.0
  0
LINE
  5
31C
  8
DEFAULT_LAYER
 10
6975.305216984237
 20
2164.879993078489
 30
0.0
 11
6939.53631342263
 21
2200.648896640095
 31
0.0
  0
LINE
  5
31D
  8
DEFAULT_LAYER
 10
6939.53631342263
 20
2200.648896640095
 30
0.0
 11
6890.675082491962
 21
2187.556569271031
 31
0.0
  0
LINE
  5
31E
  8
DEFAULT_LAYER
 10
7302.414195082544
 20
1775.817456680448
 30
0.0
 11
7253.552964151874
 21
1762.725129311384
 31
0.0
  0
LINE
  5
31F
  8
DEFAULT_LAYER
 10
7253.552964151874
 20
1762.725129311384
 30
0.0
 11
7217.784060590269
 21
1798.494032872991
 31
0.0
  0
LINE
  5
320
  8
DEFAULT_LAYER
 10
7217.784060590269
 20
1798.494032872991
 30
0.0
 11
7230.876387959334
 21
1847.35526380366
 31
0.0
  0
LINE
  5
321
  8
DEFAULT_LAYER
 10
7230.876387959334
 20
1847.35526380366
 30
0.0
 11
7279.737618890003
 21
1860.447591172724
 31
0.0
  0
LINE
  5
322
  8
DEFAULT_LAYER
 10
7279.737618890003
 20
1860.447591172724
 30
0.0
 11
7315.506522451608
 21
1824.678687611117
 31
0.0
  0
LINE
  5
323
  8
DEFAULT_LAYER
 10
7315.506522451608
 20
1824.678687611117
 30
0.0
 11
7302.414195082544
 21
1775.817456680448
 31
0.0
  0
LINE
  5
324
  8
DEFAULT_LAYER
 10
6890.675082491962
 20
2376.063223762684
 30
0.0
 11
6877.582755122898
 21
2424.924454693354
 31
0.0
  0
LINE
  5
325
  8
DEFAULT_LAYER
 10
6877.582755122898
 20
2424.924454693354
 30
0.0
 11
6913.351658684503
 21
2460.693358254959
 31
0.0
  0
LINE
  5
326
  8
DEFAULT_LAYER
 10
6913.351658684503
 20
2460.693358254959
 30
0.0
 11
6962.212889615173
 21
2447.601030885892
 31
0.0
  0
LINE
  5
327
  8
DEFAULT_LAYER
 10
6962.212889615173
 20
2447.601030885892
 30
0.0
 11
6975.305216984237
 21
2398.739799955224
 31
0.0
  0
LINE
  5
328
  8
DEFAULT_LAYER
 10
6975.305216984237
 20
2398.739799955224
 30
0.0
 11
6939.536313422631
 21
2362.970896393618
 31
0.0
  0
LINE
  5
329
  8
DEFAULT_LAYER
 10
6939.536313422631
 20
2362.970896393618
 30
0.0
 11
6890.675082491962
 21
2376.063223762684
 31
0.0
  0
LINE
  5
32A
  8
DEFAULT_LAYER
 10
7490.920849574196
 20
1775.817456680448
 30
0.0
 11
7477.828522205132
 21
1824.678687611118
 31
0.0
  0
LINE
  5
32B
  8
DEFAULT_LAYER
 10
7477.828522205132
 20
1824.678687611118
 30
0.0
 11
7513.597425766738
 21
1860.447591172723
 31
0.0
  0
LINE
  5
32C
  8
DEFAULT_LAYER
 10
7513.597425766738
 20
1860.447591172723
 30
0.0
 11
7562.458656697407
 21
1847.355263803657
 31
0.0
  0
LINE
  5
32D
  8
DEFAULT_LAYER
 10
7562.458656697407
 20
1847.355263803657
 30
0.0
 11
7575.55098406647
 21
1798.494032872989
 31
0.0
  0
LINE
  5
32E
  8
DEFAULT_LAYER
 10
7575.55098406647
 20
1798.494032872989
 30
0.0
 11
7539.782080504864
 21
1762.725129311383
 31
0.0
  0
LINE
  5
32F
  8
DEFAULT_LAYER
 10
7539.782080504864
 20
1762.725129311383
 30
0.0
 11
7490.920849574196
 21
1775.817456680448
 31
0.0
  0
LINE
  5
330
  8
DEFAULT_LAYER
 10
7490.920849574196
 20
2787.802336353265
 30
0.0
 11
7477.828522205132
 21
2738.941105422595
 31
0.0
  0
LINE
  5
331
  8
DEFAULT_LAYER
 10
7477.828522205132
 20
2738.941105422595
 30
0.0
 11
7513.597425766738
 21
2703.17220186099
 31
0.0
  0
LINE
  5
332
  8
DEFAULT_LAYER
 10
7513.597425766738
 20
2703.17220186099
 30
0.0
 11
7562.458656697408
 21
2716.264529230054
 31
0.0
  0
LINE
  5
333
  8
DEFAULT_LAYER
 10
7562.458656697408
 20
2716.264529230054
 30
0.0
 11
7575.550984066472
 21
2765.125760160722
 31
0.0
  0
LINE
  5
334
  8
DEFAULT_LAYER
 10
7575.550984066472
 20
2765.125760160722
 30
0.0
 11
7539.782080504865
 21
2800.894663722329
 31
0.0
  0
LINE
  5
335
  8
DEFAULT_LAYER
 10
7539.782080504865
 20
2800.894663722329
 30
0.0
 11
7490.920849574196
 21
2787.802336353265
 31
0.0
  0
LINE
  5
336
  8
DEFAULT_LAYER
 10
7902.659962164779
 20
2376.063223762682
 30
0.0
 11
7853.798731234109
 21
2362.970896393618
 31
0.0
  0
LINE
  5
337
  8
DEFAULT_LAYER
 10
7853.798731234109
 20
2362.970896393618
 30
0.0
 11
7818.029827672503
 21
2398.739799955225
 31
0.0
  0
LINE
  5
338
  8
DEFAULT_LAYER
 10
7818.029827672503
 20
2398.739799955225
 30
0.0
 11
7831.122155041569
 21
2447.601030885894
 31
0.0
  0
LINE
  5
339
  8
DEFAULT_LAYER
 10
7831.122155041569
 20
2447.601030885894
 30
0.0
 11
7879.983385972237
 21
2460.693358254958
 31
0.0
  0
LINE
  5
33A
  8
DEFAULT_LAYER
 10
7879.983385972237
 20
2460.693358254958
 30
0.0
 11
7915.752289533843
 21
2424.924454693351
 31
0.0
  0
LINE
  5
33B
  8
DEFAULT_LAYER
 10
7915.752289533843
 20
2424.924454693351
 30
0.0
 11
7902.659962164779
 21
2376.063223762682
 31
0.0
  0
LINE
  5
33C
  8
DEFAULT_LAYER
 10
7302.414195082544
 20
2787.802336353265
 30
0.0
 11
7253.552964151876
 21
2800.894663722331
 31
0.0
  0
LINE
  5
33D
  8
DEFAULT_LAYER
 10
7253.552964151876
 20
2800.894663722331
 30
0.0
 11
7217.784060590269
 21
2765.125760160724
 31
0.0
  0
LINE
  5
33E
  8
DEFAULT_LAYER
 10
7217.784060590269
 20
2765.125760160724
 30
0.0
 11
7230.876387959334
 21
2716.264529230053
 31
0.0
  0
LINE
  5
33F
  8
DEFAULT_LAYER
 10
7230.876387959334
 20
2716.264529230053
 30
0.0
 11
7279.737618890003
 21
2703.17220186099
 31
0.0
  0
LINE
  5
340
  8
DEFAULT_LAYER
 10
7279.737618890003
 20
2703.17220186099
 30
0.0
 11
7315.506522451608
 21
2738.941105422595
 31
0.0
  0
LINE
  5
341
  8
DEFAULT_LAYER
 10
7315.506522451608
 20
2738.941105422595
 30
0.0
 11
7302.414195082544
 21
2787.802336353265
 31
0.0
  0
LINE
  5
342
  8
DEFAULT_LAYER
 10
7902.659962164779
 20
2187.55656927103
 30
0.0
 11
7853.798731234109
 21
2200.648896640096
 31
0.0
  0
LINE
  5
343
  8
DEFAULT_LAYER
 10
7853.798731234109
 20
2200.648896640096
 30
0.0
 11
7818.029827672503
 21
2164.879993078488
 31
0.0
  0
LINE
  5
344
  8
DEFAULT_LAYER
 10
7818.029827672503
 20
2164.879993078488
 30
0.0
 11
7831.122155041568
 21
2116.018762147818
 31
0.0
  0
LINE
  5
345
  8
DEFAULT_LAYER
 10
7831.122155041568
 20
2116.018762147818
 30
0.0
 11
7879.983385972236
 21
2102.926434778754
 31
0.0
  0
LINE
  5
346
  8
DEFAULT_LAYER
 10
7879.983385972236
 20
2102.926434778754
 30
0.0
 11
7915.752289533842
 21
2138.69533834036
 31
0.0
  0
LINE
  5
347
  8
DEFAULT_LAYER
 10
7915.752289533842
 20
2138.69533834036
 30
0.0
 11
7902.659962164779
 21
2187.55656927103
 31
0.0
  0
LINE
  5
348
  8
DEFAULT_LAYER
 10
7081.224582909257
 20
1997.007068853735
 30
0.0
 11
6996.594448416983
 21
2019.683645046275
 31
0.0
  0
LINE
  5
349
  8
DEFAULT_LAYER
 10
6996.594448416983
 20
2019.683645046275
 30
0.0
 11
6929.681590303057
 21
2086.596503160202
 31
0.0
  0
LINE
  5
34A
  8
DEFAULT_LAYER
 10
6929.681590303057
 20
2086.596503160202
 30
0.0
 11
6978.542821233727
 21
2099.688830529265
 31
0.0
  0
LINE
  5
34B
  8
DEFAULT_LAYER
 10
6978.542821233727
 20
2099.688830529265
 30
0.0
 11
6991.635148602792
 21
2148.550061459934
 31
0.0
  0
LINE
  5
34C
  8
DEFAULT_LAYER
 10
6991.635148602792
 20
2148.550061459934
 30
0.0
 11
7058.548006716716
 21
2081.637203346009
 31
0.0
  0
LINE
  5
34D
  8
DEFAULT_LAYER
 10
7058.548006716716
 20
2081.637203346009
 30
0.0
 11
7081.224582909257
 21
1997.007068853735
 31
0.0
  0
LINE
  5
34E
  8
DEFAULT_LAYER
 10
7681.470349991491
 20
2597.252835935968
 30
0.0
 11
7596.840215499218
 21
2619.92941212851
 31
0.0
  0
LINE
  5
34F
  8
DEFAULT_LAYER
 10
7596.840215499218
 20
2619.92941212851
 30
0.0
 11
7529.927357385292
 21
2686.842270242436
 31
0.0
  0
LINE
  5
350
  8
DEFAULT_LAYER
 10
7529.927357385292
 20
2686.842270242436
 30
0.0
 11
7578.788588315962
 21
2699.934597611499
 31
0.0
  0
LINE
  5
351
  8
DEFAULT_LAYER
 10
7578.788588315962
 20
2699.934597611499
 30
0.0
 11
7591.880915685027
 21
2748.795828542168
 31
0.0
  0
LINE
  5
352
  8
DEFAULT_LAYER
 10
7591.880915685027
 20
2748.795828542168
 30
0.0
 11
7658.793773798951
 21
2681.882970428243
 31
0.0
  0
LINE
  5
353
  8
DEFAULT_LAYER
 10
7658.793773798951
 20
2681.882970428243
 30
0.0
 11
7681.470349991491
 21
2597.252835935968
 31
0.0
  0
LINE
  5
354
  8
DEFAULT_LAYER
 10
7081.224582909257
 20
2566.612724179981
 30
0.0
 11
6996.594448416984
 21
2543.936147987439
 31
0.0
  0
LINE
  5
355
  8
DEFAULT_LAYER
 10
6996.594448416984
 20
2543.936147987439
 30
0.0
 11
6929.681590303058
 21
2477.023289873514
 31
0.0
  0
LINE
  5
356
  8
DEFAULT_LAYER
 10
6929.681590303058
 20
2477.023289873514
 30
0.0
 11
6978.542821233727
 21
2463.930962504449
 31
0.0
  0
LINE
  5
357
  8
DEFAULT_LAYER
 10
6978.542821233727
 20
2463.930962504449
 30
0.0
 11
6991.635148602792
 21
2415.069731573779
 31
0.0
  0
LINE
  5
358
  8
DEFAULT_LAYER
 10
6991.635148602792
 20
2415.069731573779
 30
0.0
 11
7058.548006716717
 21
2481.982589687705
 31
0.0
  0
LINE
  5
359
  8
DEFAULT_LAYER
 10
7058.548006716717
 20
2481.982589687705
 30
0.0
 11
7081.224582909257
 21
2566.612724179981
 31
0.0
  0
LINE
  5
35A
  8
DEFAULT_LAYER
 10
7681.47034999149
 20
1966.366957097746
 30
0.0
 11
7596.840215499218
 21
1943.690380905204
 31
0.0
  0
LINE
  5
35B
  8
DEFAULT_LAYER
 10
7596.840215499218
 20
1943.690380905204
 30
0.0
 11
7529.927357385292
 21
1876.777522791278
 31
0.0
  0
LINE
  5
35C
  8
DEFAULT_LAYER
 10
7529.927357385292
 20
1876.777522791278
 30
0.0
 11
7578.788588315962
 21
1863.685195422214
 31
0.0
  0
LINE
  5
35D
  8
DEFAULT_LAYER
 10
7578.788588315962
 20
1863.685195422214
 30
0.0
 11
7591.880915685025
 21
1814.823964491544
 31
0.0
  0
LINE
  5
35E
  8
DEFAULT_LAYER
 10
7591.880915685025
 20
1814.823964491544
 30
0.0
 11
7658.79377379895
 21
1881.73682260547
 31
0.0
  0
LINE
  5
35F
  8
DEFAULT_LAYER
 10
7658.79377379895
 20
1881.73682260547
 30
0.0
 11
7681.47034999149
 21
1966.366957097746
 31
0.0
  0
LINE
  5
360
  8
DEFAULT_LAYER
 10
7111.864694665247
 20
1966.366957097745
 30
0.0
 11
7134.541270857788
 21
1881.736822605471
 31
0.0
  0
LINE
  5
361
  8
DEFAULT_LAYER
 10
7134.541270857788
 20
1881.736822605471
 30
0.0
 11
7201.454128971714
 21
1814.823964491545
 31
0.0
  0
LINE
  5
362
  8
DEFAULT_LAYER
 10
7201.454128971714
 20
1814.823964491545
 30
0.0
 11
7214.546456340778
 21
1863.685195422215
 31
0.0
  0
LINE
  5
363
  8
DEFAULT_LAYER
 10
7214.546456340778
 20
1863.685195422215
 30
0.0
 11
7263.407687271448
 21
1876.777522791279
 31
0.0
  0
LINE
  5
364
  8
DEFAULT_LAYER
 10
7263.407687271448
 20
1876.777522791279
 30
0.0
 11
7196.494829157521
 21
1943.690380905204
 31
0.0
  0
LINE
  5
365
  8
DEFAULT_LAYER
 10
7196.494829157521
 20
1943.690380905204
 30
0.0
 11
7111.864694665247
 21
1966.366957097745
 31
0.0
  0
LINE
  5
366
  8
DEFAULT_LAYER
 10
7712.110461747482
 20
2566.612724179978
 30
0.0
 11
7734.787037940023
 21
2481.982589687705
 31
0.0
  0
LINE
  5
367
  8
DEFAULT_LAYER
 10
7734.787037940023
 20
2481.982589687705
 30
0.0
 11
7801.699896053949
 21
2415.069731573779
 31
0.0
  0
LINE
  5
368
  8
DEFAULT_LAYER
 10
7801.699896053949
 20
2415.069731573779
 30
0.0
 11
7814.792223423013
 21
2463.930962504449
 31
0.0
  0
LINE
  5
369
  8
DEFAULT_LAYER
 10
7814.792223423013
 20
2463.930962504449
 30
0.0
 11
7863.653454353682
 21
2477.023289873512
 31
0.0
  0
LINE
  5
36A
  8
DEFAULT_LAYER
 10
7863.653454353682
 20
2477.023289873512
 30
0.0
 11
7796.740596239756
 21
2543.936147987438
 31
0.0
  0
LINE
  5
36B
  8
DEFAULT_LAYER
 10
7796.740596239756
 20
2543.936147987438
 30
0.0
 11
7712.110461747482
 21
2566.612724179978
 31
0.0
  0
LINE
  5
36C
  8
DEFAULT_LAYER
 10
7111.864694665247
 20
2597.252835935971
 30
0.0
 11
7134.541270857789
 21
2681.882970428244
 31
0.0
  0
LINE
  5
36D
  8
DEFAULT_LAYER
 10
7134.541270857789
 20
2681.882970428244
 30
0.0
 11
7201.454128971714
 21
2748.79582854217
 31
0.0
  0
LINE
  5
36E
  8
DEFAULT_LAYER
 10
7201.454128971714
 20
2748.79582854217
 30
0.0
 11
7214.546456340779
 21
2699.934597611499
 31
0.0
  0
LINE
  5
36F
  8
DEFAULT_LAYER
 10
7214.546456340779
 20
2699.934597611499
 30
0.0
 11
7263.407687271448
 21
2686.842270242435
 31
0.0
  0
LINE
  5
370
  8
DEFAULT_LAYER
 10
7263.407687271448
 20
2686.842270242435
 30
0.0
 11
7196.494829157523
 21
2619.92941212851
 31
0.0
  0
LINE
  5
371
  8
DEFAULT_LAYER
 10
7196.494829157523
 20
2619.92941212851
 30
0.0
 11
7111.864694665247
 21
2597.252835935971
 31
0.0
  0
LINE
  5
372
  8
DEFAULT_LAYER
 10
7712.11046174748
 20
1997.007068853735
 30
0.0
 11
7734.787037940023
 21
2081.637203346009
 31
0.0
  0
LINE
  5
373
  8
DEFAULT_LAYER
 10
7734.787037940023
 20
2081.637203346009
 30
0.0
 11
7801.699896053949
 21
2148.550061459935
 31
0.0
  0
LINE
  5
374
  8
DEFAULT_LAYER
 10
7801.699896053949
 20
2148.550061459935
 30
0.0
 11
7814.792223423013
 21
2099.688830529264
 31
0.0
  0
LINE
  5
375
  8
DEFAULT_LAYER
 10
7814.792223423013
 20
2099.688830529264
 30
0.0
 11
7863.653454353681
 21
2086.5965031602
 31
0.0
  0
LINE
  5
376
  8
DEFAULT_LAYER
 10
7863.653454353681
 20
2086.5965031602
 30
0.0
 11
7796.740596239756
 21
2019.683645046274
 31
0.0
  0
LINE
  5
377
  8
DEFAULT_LAYER
 10
7796.740596239756
 20
2019.683645046274
 30
0.0
 11
7712.11046174748
 21
1997.007068853735
 31
0.0
  0
ENDSEC
  0
EOF
