  0
SECTION
  2
HEADER
  9
$ACADVER
  1
AC1009
  9
$DWGCODEPAGE
  3
ansi_1252
  9
$INSBASE
 10
0.0
 20
0.0
 30
0.0
  9
$EXTMIN
 10
1.000000000000000E+20
 20
1.000000000000000E+20
 30
1.000000000000000E+20
  9
$EXTMAX
 10
-1.000000000000000E+20
 20
-1.000000000000000E+20
 30
-1.000000000000000E+20
  9
$LIMMIN
 10
0.0
 20
0.0
  9
$LIMMAX
 10
12.0
 20
9.0
  9
$ORTHOMODE
 70
     0
  9
$REGENMODE
 70
     1
  9
$FILLMODE
 70
     1
  9
$QTEXTMODE
 70
     0
  9
$MIRRTEXT
 70
     1
  9
$DRAGMODE
 70
     2
  9
$LTSCALE
 40
1.0
  9
$OSMODE
 70
    37
  9
$ATTMODE
 70
     1
  9
$TEXTSIZE
 40
0.2
  9
$TRACEWID
 40
0.05
  9
$TEXTSTYLE
  7
STANDARD
  9
$CLAYER
  8
LAYER_01
  9
$CELTYPE
  6
BYLAYER
  9
$CECOLOR
 62
   256
  9
$DIMSCALE
 40
1.0
  9
$DIMASZ
 40
0.18
  9
$DIMEXO
 40
0.0625
  9
$DIMDLI
 40
0.38
  9
$DIMRND
 40
0.0
  9
$DIMDLE
 40
0.0
  9
$DIMEXE
 40
0.18
  9
$DIMTP
 40
0.0
  9
$DIMTM
 40
0.0
  9
$DIMTXT
 40
0.18
  9
$DIMCEN
 40
0.09
  9
$DIMTSZ
 40
0.0
  9
$DIMTOL
 70
     0
  9
$DIMLIM
 70
     0
  9
$DIMTIH
 70
     1
  9
$DIMTOH
 70
     1
  9
$DIMSE1
 70
     0
  9
$DIMSE2
 70
     0
  9
$DIMTAD
 70
     0
  9
$DIMZIN
 70
     0
  9
$DIMBLK
  1

  9
$DIMASO
 70
     1
  9
$DIMSHO
 70
     1
  9
$DIMPOST
  1

  9
$DIMAPOST
  1

  9
$DIMALT
 70
     0
  9
$DIMALTD
 70
     2
  9
$DIMALTF
 40
25.4
  9
$DIMLFAC
 40
1.0
  9
$DIMTOFL
 70
     0
  9
$DIMTVP
 40
0.0
  9
$DIMTIX
 70
     0
  9
$DIMSOXD
 70
     0
  9
$DIMSAH
 70
     0
  9
$DIMBLK1
  1

  9
$DIMBLK2
  1

  9
$DIMSTYLE
  2
STANDARD_ACAD
  9
$DIMCLRD
 70
     0
  9
$DIMCLRE
 70
     0
  9
$DIMCLRT
 70
     0
  9
$DIMTFAC
 40
1.0
  9
$DIMGAP
 40
0.09
  9
$LUNITS
 70
     2
  9
$LUPREC
 70
     3
  9
$SKETCHINC
 40
0.1
  9
$FILLETRAD
 40
0.5
  9
$AUNITS
 70
     0
  9
$AUPREC
 70
     0
  9
$MENU
  1
.
  9
$ELEVATION
 40
0.0
  9
$PELEVATION
 40
0.0
  9
$THICKNESS
 40
0.0
  9
$LIMCHECK
 70
     0
  9
$CHAMFERA
 40
0.0
  9
$CHAMFERB
 40
0.0
  9
$SKPOLY
 70
     0
  9
$TDCREATE
 40
2460066.931585382
  9
$TDUPDATE
 40
2460066.931585752
  9
$TDINDWG
 40
0.0000000116
  9
$TDUSRTIMER
 40
0.0000000116
  9
$USRTIMER
 70
     1
  9
$ANGBASE
 50
0.0
  9
$ANGDIR
 70
     0
  9
$PDMODE
 70
     0
  9
$PDSIZE
 40
0.0
  9
$PLINEWID
 40
0.0
  9
$COORDS
 70
     1
  9
$SPLFRAME
 70
     0
  9
$SPLINETYPE
 70
     6
  9
$SPLINESEGS
 70
     8
  9
$ATTDIA
 70
     0
  9
$ATTREQ
 70
     1
  9
$HANDLING
 70
     1
  9
$HANDSEED
  5
6EA
  9
$SURFTAB1
 70
     6
  9
$SURFTAB2
 70
     6
  9
$SURFTYPE
 70
     6
  9
$SURFU
 70
     6
  9
$SURFV
 70
     6
  9
$UCSNAME
  2

  9
$UCSORG
 10
0.0
 20
0.0
 30
0.0
  9
$UCSXDIR
 10
1.0
 20
0.0
 30
0.0
  9
$UCSYDIR
 10
0.0
 20
1.0
 30
0.0
  9
$PUCSNAME
  2

  9
$PUCSORG
 10
0.0
 20
0.0
 30
0.0
  9
$PUCSXDIR
 10
1.0
 20
0.0
 30
0.0
  9
$PUCSYDIR
 10
0.0
 20
1.0
 30
0.0
  9
$USERI1
 70
     0
  9
$USERI2
 70
     0
  9
$USERI3
 70
     0
  9
$USERI4
 70
     0
  9
$USERI5
 70
     0
  9
$USERR1
 40
0.0
  9
$USERR2
 40
0.0
  9
$USERR3
 40
0.0
  9
$USERR4
 40
0.0
  9
$USERR5
 40
0.0
  9
$WORLDVIEW
 70
     1
  9
$SHADEDGE
 70
     3
  9
$SHADEDIF
 70
    70
  9
$TILEMODE
 70
     1
  9
$MAXACTVP
 70
    64
  9
$PLIMCHECK
 70
     0
  9
$PEXTMIN
 10
1.000000000000000E+20
 20
1.000000000000000E+20
 30
1.000000000000000E+20
  9
$PEXTMAX
 10
-1.000000000000000E+20
 20
-1.000000000000000E+20
 30
-1.000000000000000E+20
  9
$PLIMMIN
 10
0.0
 20
0.0
  9
$PLIMMAX
 10
12.0
 20
9.0
  9
$UNITMODE
 70
     0
  9
$VISRETAIN
 70
     1
  9
$PLINEGEN
 70
     0
  9
$PSLTSCALE
 70
     1
  0
ENDSEC
  0
SECTION
  2
TABLES
  0
TABLE
  2
VPORT
 70
     1
  0
VPORT
  2
*ACTIVE
 70
     0
 10
0.0
 20
0.0
 11
1.0
 21
1.0
 12
10.42990654205607
 22
4.5
 13
0.0
 23
0.0
 14
0.5
 24
0.5
 15
0.5
 25
0.5
 16
0.0
 26
0.0
 36
1.0
 17
0.0
 27
0.0
 37
0.0
 40
9.0
 41
1.972972972850329
 42
50.0
 43
0.0
 44
0.0
 50
0.0
 51
0.0
 71
     0
 72
   100
 73
     1
 74
     3
 75
     0
 76
     0
 77
     0
 78
     0
  0
ENDTAB
  0
TABLE
  2
LTYPE
 70
     1
  0
LTYPE
  2
CONTINUOUS
 70
     0
  3
Solid line
 72
    65
 73
     0
 40
0.0
  0
ENDTAB
  0
TABLE
  2
LAYER
 70
     2
  0
LAYER
  2
0
 70
     0
 62
     7
  6
CONTINUOUS
  0
LAYER
  2
LAYER_01
 70
     0
 62
     1
  6
CONTINUOUS
  0
ENDTAB
  0
TABLE
  2
STYLE
 70
     1
  0
STYLE
  2
STANDARD
 70
     0
 40
0.0
 41
1.0
 50
0.0
 71
     0
 42
0.2
  3
txt
  4

  0
ENDTAB
  0
TABLE
  2
VIEW
 70
     0
  0
ENDTAB
  0
TABLE
  2
UCS
 70
     0
  0
ENDTAB
  0
TABLE
  2
APPID
 70
     2
  0
APPID
  2
ACAD
 70
     0
  0
APPID
  2
RHINO
 70
     0
  0
ENDTAB
  0
TABLE
  2
DIMSTYLE
 70
     1
  0
DIMSTYLE
  2
STANDARD_ACAD
 70
     0
  3

  4

  5

  6

  7

 40
1.0
 41
0.18
 42
0.0625
 43
0.38
 44
0.18
 45
0.0
 46
0.0
 47
0.0
 48
0.0
140
0.18
141
0.09
142
0.0
143
25.4
144
1.0
145
0.0
146
1.0
147
0.09
 71
     0
 72
     0
 73
     1
 74
     1
 75
     0
 76
     0
 77
     0
 78
     0
170
     0
171
     2
172
     0
173
     0
174
     0
175
     0
176
     0
177
     0
178
     0
  0
ENDTAB
  0
ENDSEC
  0
SECTION
  2
BLOCKS
  0
BLOCK
  8
0
  2
$MODEL_SPACE
 70
     0
 10
0.0
 20
0.0
 30
0.0
  3
$MODEL_SPACE
  1

  0
ENDBLK
  5
21
  8
0
  0
BLOCK
 67
     1
  8
0
  2
$PAPER_SPACE
 70
     0
 10
0.0
 20
0.0
 30
0.0
  3
$PAPER_SPACE
  1

  0
ENDBLK
  5
1D
 67
     1
  8
0
  0
ENDSEC
  0
SECTION
  2
ENTITIES
  0
POLYLINE
  5
70
  8
LAYER_01
 66
     1
 10
0.0
 20
0.0
 30
0.0
 70
     1
  0
VERTEX
  5
71
  8
LAYER_01
 10
2348.719646628246
 20
1214.556904111982
 30
0.0
 42
-0.2073350541729736
  0
VERTEX
  5
72
  8
LAYER_01
 10
2423.722232172166
 20
1206.302209268214
 30
0.0
 42
0.0705441682267876
  0
VERTEX
  5
73
  8
LAYER_01
 10
2379.072163965014
 20
1283.638395964416
 30
0.0
 42
-0.2073350541729675
  0
SEQEND
  5
74
  8
LAYER_01
  0
POLYLINE
  5
75
  8
LAYER_01
 66
     1
 10
0.0
 20
0.0
 30
0.0
 70
     1
  0
VERTEX
  5
76
  8
LAYER_01
 10
2001.657417945162
 20
867.4946754288985
 30
0.0
 42
-0.2073350541730492
  0
VERTEX
  5
77
  8
LAYER_01
 10
1932.575926092728
 20
837.1421580921303
 30
0.0
 42
0.0705441682268283
  0
VERTEX
  5
78
  8
LAYER_01
 10
2009.91211278893
 20
792.4920898849789
 30
0.0
 42
-0.2073350541730194
  0
SEQEND
  5
79
  8
LAYER_01
  0
POLYLINE
  5
7A
  8
LAYER_01
 66
     1
 10
0.0
 20
0.0
 30
0.0
 70
     1
  0
VERTEX
  5
7B
  8
LAYER_01
 10
1908.662374046183
 20
960.4897193278766
 30
0.0
 42
-0.2073350541730036
  0
VERTEX
  5
7C
  8
LAYER_01
 10
1833.659788502264
 20
968.7444141716445
 30
0.0
 42
0.0705441682268256
  0
VERTEX
  5
7D
  8
LAYER_01
 10
1878.309856709416
 20
891.4082274754431
 30
0.0
 42
-0.2073350541730493
  0
SEQEND
  5
7E
  8
LAYER_01
  0
POLYLINE
  5
7F
  8
LAYER_01
 66
     1
 10
0.0
 20
0.0
 30
0.0
 70
     1
  0
VERTEX
  5
80
  8
LAYER_01
 10
2195.486454861601
 20
1154.318756244316
 30
0.0
 42
-0.2109204691842255
  0
VERTEX
  5
81
  8
LAYER_01
 10
2280.249561513282
 20
1268.267763050602
 30
0.0
 42
0.3806506207913491
  0
VERTEX
  5
82
  8
LAYER_01
 10
2275.617499477452
 20
1287.138710652312
 30
0.0
 42
-0.3030525429560996
  0
VERTEX
  5
83
  8
LAYER_01
 10
2346.981514992026
 20
1305.813816374741
 30
0.0
 42
-0.303052542956099
  0
VERTEX
  5
84
  8
LAYER_01
 10
2328.306409269597
 20
1234.449800860167
 30
0.0
 42
0.3806506207915154
  0
VERTEX
  5
85
  8
LAYER_01
 10
2309.435461667888
 20
1239.081862895996
 30
0.0
 42
-0.2109204691842217
  0
SEQEND
  5
86
  8
LAYER_01
  0
POLYLINE
  5
87
  8
LAYER_01
 66
     1
 10
0.0
 20
0.0
 30
0.0
 70
     1
  0
VERTEX
  5
88
  8
LAYER_01
 10
2061.895565812827
 20
1154.318756244316
 30
0.0
 42
-0.2109204691842249
  0
VERTEX
  5
89
  8
LAYER_01
 10
1947.946559006542
 20
1239.081862895997
 30
0.0
 42
0.3806506207914244
  0
VERTEX
  5
8A
  8
LAYER_01
 10
1929.075611404832
 20
1234.449800860167
 30
0.0
 42
-0.3030525429560969
  0
VERTEX
  5
8B
  8
LAYER_01
 10
1910.400505682403
 20
1305.813816374741
 30
0.0
 42
-0.303052542956182
  0
VERTEX
  5
8C
  8
LAYER_01
 10
1981.764521196978
 20
1287.138710652312
 30
0.0
 42
0.3806506207914261
  0
VERTEX
  5
8D
  8
LAYER_01
 10
1977.132459161147
 20
1268.267763050603
 30
0.0
 42
-0.2109204691842122
  0
SEQEND
  5
8E
  8
LAYER_01
  0
POLYLINE
  5
8F
  8
LAYER_01
 66
     1
 10
0.0
 20
0.0
 30
0.0
 70
     1
  0
VERTEX
  5
90
  8
LAYER_01
 10
2104.242180784215
 20
1178.767585797316
 30
0.0
 42
-0.2109204691842285
  0
VERTEX
  5
91
  8
LAYER_01
 10
2047.940999479806
 20
1309.149092864504
 30
0.0
 42
0.3806506207913533
  0
VERTEX
  5
92
  8
LAYER_01
 10
2029.282248445325
 20
1314.573083270425
 30
0.0
 42
-0.3030525429561408
  0
VERTEX
  5
93
  8
LAYER_01
 10
2048.791140228629
 20
1385.713686483327
 30
0.0
 42
-0.3030525429561314
  0
VERTEX
  5
94
  8
LAYER_01
 10
2101.256637719102
 20
1333.858562752057
 30
0.0
 42
0.3806506207913485
  0
VERTEX
  5
95
  8
LAYER_01
 10
2087.809680523313
 20
1319.831873753406
 30
0.0
 42
-0.2109204691843125
  0
SEQEND
  5
96
  8
LAYER_01
  0
POLYLINE
  5
97
  8
LAYER_01
 66
     1
 10
0.0
 20
0.0
 30
0.0
 70
     1
  0
VERTEX
  5
98
  8
LAYER_01
 10
1773.691010337214
 20
278.3245099817447
 30
0.0
 42
-0.0319899623375854
  0
VERTEX
  5
99
  8
LAYER_01
 10
1778.717568657926
 20
275.2063314232935
 30
0.0
 42
-0.0319899623375851
  0
VERTEX
  5
9A
  8
LAYER_01
 10
1773.691010337214
 20
272.0881528648425
 30
0.0
  0
SEQEND
  5
9B
  8
LAYER_01
  0
POLYLINE
  5
9C
  8
LAYER_01
 66
     1
 10
0.0
 20
0.0
 30
0.0
 70
     1
  0
VERTEX
  5
9D
  8
LAYER_01
 10
1773.691010337213
 20
196.7221134581176
 30
0.0
 42
0.0319899623375688
  0
VERTEX
  5
9E
  8
LAYER_01
 10
1778.717568657926
 20
199.8402920165692
 30
0.0
 42
0.0319899623375954
  0
VERTEX
  5
9F
  8
LAYER_01
 10
1773.691010337214
 20
202.9584705750201
 30
0.0
  0
SEQEND
  5
A0
  8
LAYER_01
  0
POLYLINE
  5
A1
  8
LAYER_01
 66
     1
 10
0.0
 20
0.0
 30
0.0
 70
     1
  0
VERTEX
  5
A2
  8
LAYER_01
 10
2483.691010337215
 20
278.3245099817447
 30
0.0
 42
0.0319899623375635
  0
VERTEX
  5
A3
  8
LAYER_01
 10
2478.664452016504
 20
275.2063314232936
 30
0.0
 42
0.0319899623374169
  0
VERTEX
  5
A4
  8
LAYER_01
 10
2483.691010337216
 20
272.0881528648425
 30
0.0
  0
SEQEND
  5
A5
  8
LAYER_01
  0
POLYLINE
  5
A6
  8
LAYER_01
 66
     1
 10
0.0
 20
0.0
 30
0.0
 70
     1
  0
VERTEX
  5
A7
  8
LAYER_01
 10
2255.724602729268
 20
867.494675428899
 30
0.0
 42
-0.207335054172974
  0
VERTEX
  5
A8
  8
LAYER_01
 10
2247.469907885499
 20
792.4920898849791
 30
0.0
 42
0.0705441682268164
  0
VERTEX
  5
A9
  8
LAYER_01
 10
2324.806094581701
 20
837.14215809213
 30
0.0
 42
-0.2073350541729651
  0
SEQEND
  5
AA
  8
LAYER_01
  0
POLYLINE
  5
AB
  8
LAYER_01
 66
     1
 10
0.0
 20
0.0
 30
0.0
 70
     1
  0
VERTEX
  5
AC
  8
LAYER_01
 10
2348.719646628245
 20
960.4897193278764
 30
0.0
 42
-0.2073350541730188
  0
VERTEX
  5
AD
  8
LAYER_01
 10
2379.072163965014
 20
891.4082274754428
 30
0.0
 42
0.070544168226869
  0
VERTEX
  5
AE
  8
LAYER_01
 10
2423.722232172165
 20
968.7444141716446
 30
0.0
 42
-0.207335054173002
  0
SEQEND
  5
AF
  8
LAYER_01
  0
POLYLINE
  5
B0
  8
LAYER_01
 66
     1
 10
0.0
 20
0.0
 30
0.0
 70
     1
  0
VERTEX
  5
B1
  8
LAYER_01
 10
2195.486454861601
 20
1020.727867195543
 30
0.0
 42
-0.2109204691842234
  0
VERTEX
  5
B2
  8
LAYER_01
 10
2309.435461667888
 20
935.964760543863
 30
0.0
 42
0.38065062079147
  0
VERTEX
  5
B3
  8
LAYER_01
 10
2328.306409269597
 20
940.5968225796921
 30
0.0
 42
-0.3030525429561925
  0
VERTEX
  5
B4
  8
LAYER_01
 10
2346.981514992026
 20
869.2328070651187
 30
0.0
 42
-0.3030525429561455
  0
VERTEX
  5
B5
  8
LAYER_01
 10
2275.617499477451
 20
887.9079127875469
 30
0.0
 42
0.3806506207913519
  0
VERTEX
  5
B6
  8
LAYER_01
 10
2280.249561513281
 20
906.7788603892565
 30
0.0
 42
-0.2109204691841715
  0
SEQEND
  5
B7
  8
LAYER_01
  0
POLYLINE
  5
B8
  8
LAYER_01
 66
     1
 10
0.0
 20
0.0
 30
0.0
 70
     1
  0
VERTEX
  5
B9
  8
LAYER_01
 10
2037.446736259828
 20
1063.07448216693
 30
0.0
 42
-0.2109204691842287
  0
VERTEX
  5
BA
  8
LAYER_01
 10
1907.06522919264
 20
1006.77330086252
 30
0.0
 42
0.3806506207914487
  0
VERTEX
  5
BB
  8
LAYER_01
 10
1901.641238786719
 20
988.1145498280398
 30
0.0
 42
-0.3030525429561096
  0
VERTEX
  5
BC
  8
LAYER_01
 10
1830.500635573817
 20
1007.623441611344
 30
0.0
 42
-0.3030525429561579
  0
VERTEX
  5
BD
  8
LAYER_01
 10
1882.355759305087
 20
1060.088939101817
 30
0.0
 42
0.380650620791448
  0
VERTEX
  5
BE
  8
LAYER_01
 10
1896.382448303738
 20
1046.641981906029
 30
0.0
 42
-0.2109204691842065
  0
SEQEND
  5
BF
  8
LAYER_01
  0
POLYLINE
  5
C0
  8
LAYER_01
 66
     1
 10
0.0
 20
0.0
 30
0.0
 70
     1
  0
VERTEX
  5
C1
  8
LAYER_01
 10
1922.961414446089
 20
182.5233117199296
 30
0.0
 42
0.0859815434144626
  0
VERTEX
  5
C2
  8
LAYER_01
 10
1940.275911820397
 20
192.5803842684918
 30
0.0
 42
0.0859815434145037
  0
VERTEX
  5
C3
  8
LAYER_01
 10
1957.590409194706
 20
182.5233117199297
 30
0.0
  0
SEQEND
  5
C4
  8
LAYER_01
  0
POLYLINE
  5
C5
  8
LAYER_01
 66
     1
 10
0.0
 20
0.0
 30
0.0
 70
     1
  0
VERTEX
  5
C6
  8
LAYER_01
 10
1882.224369787981
 20
182.5233117199296
 30
0.0
 42
-0.0859815434144628
  0
VERTEX
  5
C7
  8
LAYER_01
 10
1864.909872413673
 20
192.580384268492
 30
0.0
 42
-0.0859815434145081
  0
VERTEX
  5
C8
  8
LAYER_01
 10
1847.595375039364
 20
182.5233117199297
 30
0.0
  0
SEQEND
  5
C9
  8
LAYER_01
  0
POLYLINE
  5
CA
  8
LAYER_01
 66
     1
 10
0.0
 20
0.0
 30
0.0
 70
     1
  0
VERTEX
  5
CB
  8
LAYER_01
 10
2032.956448601432
 20
182.5233117199296
 30
0.0
 42
-0.0859815434144629
  0
VERTEX
  5
CC
  8
LAYER_01
 10
2015.641951227124
 20
192.5803842684918
 30
0.0
 42
-0.0859815434145098
  0
VERTEX
  5
CD
  8
LAYER_01
 10
1998.327453852816
 20
182.5233117199297
 30
0.0
  0
SEQEND
  5
CE
  8
LAYER_01
  0
POLYLINE
  5
CF
  8
LAYER_01
 66
     1
 10
0.0
 20
0.0
 30
0.0
 70
     1
  0
VERTEX
  5
D0
  8
LAYER_01
 10
2073.69349325954
 20
182.5233117199295
 30
0.0
 42
0.0859815434144601
  0
VERTEX
  5
D1
  8
LAYER_01
 10
2091.007990633848
 20
192.5803842684915
 30
0.0
 42
0.0859815434145006
  0
VERTEX
  5
D2
  8
LAYER_01
 10
2108.322488008157
 20
182.5233117199297
 30
0.0
  0
SEQEND
  5
D3
  8
LAYER_01
  0
POLYLINE
  5
D4
  8
LAYER_01
 66
     1
 10
0.0
 20
0.0
 30
0.0
 70
     1
  0
VERTEX
  5
D5
  8
LAYER_01
 10
2183.688527414884
 20
182.5233117199296
 30
0.0
 42
-0.0859815434144644
  0
VERTEX
  5
D6
  8
LAYER_01
 10
2166.374030040575
 20
192.5803842684916
 30
0.0
 42
-0.0859815434144966
  0
VERTEX
  5
D7
  8
LAYER_01
 10
2149.059532666267
 20
182.5233117199298
 30
0.0
  0
SEQEND
  5
D8
  8
LAYER_01
  0
POLYLINE
  5
D9
  8
LAYER_01
 66
     1
 10
0.0
 20
0.0
 30
0.0
 70
     1
  0
VERTEX
  5
DA
  8
LAYER_01
 10
2183.688527414884
 20
292.5233117199334
 30
0.0
 42
0.0859815434144644
  0
VERTEX
  5
DB
  8
LAYER_01
 10
2166.374030040575
 20
282.4662391713712
 30
0.0
 42
0.085981543414504
  0
VERTEX
  5
DC
  8
LAYER_01
 10
2149.059532666267
 20
292.5233117199329
 30
0.0
  0
SEQEND
  5
DD
  8
LAYER_01
  0
POLYLINE
  5
DE
  8
LAYER_01
 66
     1
 10
0.0
 20
0.0
 30
0.0
 70
     1
  0
VERTEX
  5
DF
  8
LAYER_01
 10
2224.425572072992
 20
182.5233117199296
 30
0.0
 42
0.0859815434144607
  0
VERTEX
  5
E0
  8
LAYER_01
 10
2241.7400694473
 20
192.580384268492
 30
0.0
 42
0.0859815434145018
  0
VERTEX
  5
E1
  8
LAYER_01
 10
2259.054566821609
 20
182.5233117199298
 30
0.0
  0
SEQEND
  5
E2
  8
LAYER_01
  0
POLYLINE
  5
E3
  8
LAYER_01
 66
     1
 10
0.0
 20
0.0
 30
0.0
 70
     1
  0
VERTEX
  5
E4
  8
LAYER_01
 10
2224.425572072992
 20
292.5233117199334
 30
0.0
 42
-0.0859815434144606
  0
VERTEX
  5
E5
  8
LAYER_01
 10
2241.7400694473
 20
282.4662391713711
 30
0.0
 42
-0.0859815434145018
  0
VERTEX
  5
E6
  8
LAYER_01
 10
2259.054566821609
 20
292.5233117199329
 30
0.0
  0
SEQEND
  5
E7
  8
LAYER_01
  0
POLYLINE
  5
E8
  8
LAYER_01
 66
     1
 10
0.0
 20
0.0
 30
0.0
 70
     1
  0
VERTEX
  5
E9
  8
LAYER_01
 10
2375.157650886443
 20
182.5233117199296
 30
0.0
 42
0.0859815434144644
  0
VERTEX
  5
EA
  8
LAYER_01
 10
2392.472148260752
 20
192.5803842684917
 30
0.0
 42
0.0859815434144967
  0
VERTEX
  5
EB
  8
LAYER_01
 10
2409.78664563506
 20
182.5233117199298
 30
0.0
  0
SEQEND
  5
EC
  8
LAYER_01
  0
POLYLINE
  5
ED
  8
LAYER_01
 66
     1
 10
0.0
 20
0.0
 30
0.0
 70
     1
  0
VERTEX
  5
EE
  8
LAYER_01
 10
2375.157650886443
 20
292.5233117199334
 30
0.0
 42
-0.0859815434144644
  0
VERTEX
  5
EF
  8
LAYER_01
 10
2392.472148260752
 20
282.4662391713712
 30
0.0
 42
-0.085981543414504
  0
VERTEX
  5
F0
  8
LAYER_01
 10
2409.78664563506
 20
292.5233117199329
 30
0.0
  0
SEQEND
  5
F1
  8
LAYER_01
  0
POLYLINE
  5
F2
  8
LAYER_01
 66
     1
 10
0.0
 20
0.0
 30
0.0
 70
     1
  0
VERTEX
  5
F3
  8
LAYER_01
 10
2334.420606228336
 20
182.5233117199296
 30
0.0
 42
-0.0859815434144647
  0
VERTEX
  5
F4
  8
LAYER_01
 10
2317.106108854027
 20
192.5803842684916
 30
0.0
 42
-0.0859815434145006
  0
VERTEX
  5
F5
  8
LAYER_01
 10
2299.791611479719
 20
182.5233117199298
 30
0.0
  0
SEQEND
  5
F6
  8
LAYER_01
  0
POLYLINE
  5
F7
  8
LAYER_01
 66
     1
 10
0.0
 20
0.0
 30
0.0
 70
     1
  0
VERTEX
  5
F8
  8
LAYER_01
 10
2450.98328174601
 20
1478.612048910366
 30
0.0
  0
VERTEX
  5
F9
  8
LAYER_01
 10
2483.691010337214
 20
1478.612048910366
 30
0.0
  0
VERTEX
  5
FA
  8
LAYER_01
 10
2483.691010337215
 20
1557.231932693245
 30
0.0
  0
VERTEX
  5
FB
  8
LAYER_01
 10
2477.23576012629
 20
1559.329370630886
 30
0.0
  0
VERTEX
  5
FC
  8
LAYER_01
 10
2450.98328174601
 20
1523.19593402071
 30
0.0
  0
SEQEND
  5
FD
  8
LAYER_01
  0
POLYLINE
  5
FE
  8
LAYER_01
 66
     1
 10
0.0
 20
0.0
 30
0.0
 70
     1
  0
VERTEX
  5
FF
  8
LAYER_01
 10
2389.12607594308
 20
1478.612048910366
 30
0.0
  0
VERTEX
  5
100
  8
LAYER_01
 10
2393.869833599645
 20
1478.612048910366
 30
0.0
  0
VERTEX
  5
101
  8
LAYER_01
 10
2430.98328174601
 20
1529.694327945368
 30
0.0
  0
VERTEX
  5
102
  8
LAYER_01
 10
2430.98328174601
 20
1574.357711856226
 30
0.0
  0
VERTEX
  5
103
  8
LAYER_01
 10
2391.497954771361
 20
1587.187272302485
 30
0.0
  0
VERTEX
  5
104
  8
LAYER_01
 10
2352.012627796712
 20
1574.357711856226
 30
0.0
  0
VERTEX
  5
105
  8
LAYER_01
 10
2352.012627796712
 20
1529.694327945368
 30
0.0
  0
SEQEND
  5
106
  8
LAYER_01
  0
POLYLINE
  5
107
  8
LAYER_01
 66
     1
 10
0.0
 20
0.0
 30
0.0
 70
     1
  0
VERTEX
  5
108
  8
LAYER_01
 10
2068.499350190045
 20
1439.118334756519
 30
0.0
 42
0.0769223410273403
  0
VERTEX
  5
109
  8
LAYER_01
 10
1965.034706855399
 20
1404.475532892207
 30
0.0
  0
VERTEX
  5
10A
  8
LAYER_01
 10
1962.133346779949
 20
1405.418241926584
 30
0.0
  0
VERTEX
  5
10B
  8
LAYER_01
 10
1990.334219113414
 20
1444.233412747883
 30
0.0
  0
VERTEX
  5
10C
  8
LAYER_01
 10
2065.408085156335
 20
1444.233412747883
 30
0.0
  0
VERTEX
  5
10D
  8
LAYER_01
 10
2068.499350190044
 20
1439.978651444101
 30
0.0
  0
SEQEND
  5
10E
  8
LAYER_01
  0
POLYLINE
  5
10F
  8
LAYER_01
 66
     1
 10
0.0
 20
0.0
 30
0.0
 70
     1
  0
VERTEX
  5
110
  8
LAYER_01
 10
2188.882670484383
 20
1478.612048910366
 30
0.0
  0
VERTEX
  5
111
  8
LAYER_01
 10
2188.882670484383
 20
1503.267908303041
 30
0.0
  0
VERTEX
  5
112
  8
LAYER_01
 10
2161.051690112216
 20
1512.310741991429
 30
0.0
  0
VERTEX
  5
113
  8
LAYER_01
 10
2188.176337311862
 20
1521.124074119963
 30
0.0
  0
VERTEX
  5
114
  8
LAYER_01
 10
2188.176337311861
 20
1552.790670181507
 30
0.0
  0
VERTEX
  5
115
  8
LAYER_01
 10
2206.789495467138
 20
1527.17185581371
 30
0.0
  0
VERTEX
  5
116
  8
LAYER_01
 10
2233.914142666787
 20
1535.985187942245
 30
0.0
  0
VERTEX
  5
117
  8
LAYER_01
 10
2217.150188764555
 20
1512.9115848756
 30
0.0
  0
VERTEX
  5
118
  8
LAYER_01
 10
2235.763346919834
 20
1487.292770507804
 30
0.0
  0
VERTEX
  5
119
  8
LAYER_01
 10
2205.646624386616
 20
1497.078286844828
 30
0.0
  0
VERTEX
  5
11A
  8
LAYER_01
 10
2192.230117194964
 20
1478.612048910366
 30
0.0
  0
SEQEND
  5
11B
  8
LAYER_01
  0
POLYLINE
  5
11C
  8
LAYER_01
 66
     1
 10
0.0
 20
0.0
 30
0.0
 70
     1
  0
VERTEX
  5
11D
  8
LAYER_01
 10
2068.499350190045
 20
735.9282886833397
 30
0.0
 42
-0.0769223410273406
  0
VERTEX
  5
11E
  8
LAYER_01
 10
1965.034706855399
 20
770.5710905476521
 30
0.0
  0
VERTEX
  5
11F
  8
LAYER_01
 10
1962.133346779949
 20
769.6283815132747
 30
0.0
  0
VERTEX
  5
120
  8
LAYER_01
 10
1990.334219113414
 20
730.8132106919763
 30
0.0
  0
VERTEX
  5
121
  8
LAYER_01
 10
2065.408085156335
 20
730.8132106919762
 30
0.0
  0
VERTEX
  5
122
  8
LAYER_01
 10
2068.499350190044
 20
735.067971995758
 30
0.0
  0
SEQEND
  5
123
  8
LAYER_01
  0
POLYLINE
  5
124
  8
LAYER_01
 66
     1
 10
0.0
 20
0.0
 30
0.0
 70
     1
  0
VERTEX
  5
125
  8
LAYER_01
 10
2483.691010337214
 20
696.4345745294928
 30
0.0
  0
VERTEX
  5
126
  8
LAYER_01
 10
2483.691010337215
 20
617.8146907466139
 30
0.0
  0
VERTEX
  5
127
  8
LAYER_01
 10
2477.23576012629
 20
615.7172528089727
 30
0.0
  0
VERTEX
  5
128
  8
LAYER_01
 10
2450.98328174601
 20
651.8506894191491
 30
0.0
  0
VERTEX
  5
129
  8
LAYER_01
 10
2450.98328174601
 20
696.4345745294929
 30
0.0
  0
SEQEND
  5
12A
  8
LAYER_01
  0
POLYLINE
  5
12B
  8
LAYER_01
 66
     1
 10
0.0
 20
0.0
 30
0.0
 70
     1
  0
VERTEX
  5
12C
  8
LAYER_01
 10
1927.167778737591
 20
1381.853879790962
 30
0.0
 42
0.0677707934932009
  0
VERTEX
  5
12D
  8
LAYER_01
 10
1855.807749549754
 20
1317.255377738969
 30
0.0
  0
VERTEX
  5
12E
  8
LAYER_01
 10
1852.319214340961
 20
1322.800716288784
 30
0.0
  0
VERTEX
  5
12F
  8
LAYER_01
 10
1829.448987770678
 20
1310.52335479387
 30
0.0
  0
VERTEX
  5
130
  8
LAYER_01
 10
1828.464440585394
 20
1336.461965695244
 30
0.0
  0
VERTEX
  5
131
  8
LAYER_01
 10
1802.519562637766
 20
1337.264572034346
 30
0.0
  0
VERTEX
  5
132
  8
LAYER_01
 10
1814.636225214774
 20
1360.220341606457
 30
0.0
  0
VERTEX
  5
133
  8
LAYER_01
 10
1792.568604983591
 20
1373.887858059172
 30
0.0
  0
VERTEX
  5
134
  8
LAYER_01
 10
1792.977283268735
 20
1374.144954821433
 30
0.0
  0
VERTEX
  5
135
  8
LAYER_01
 10
1792.568604983591
 20
1374.402051583693
 30
0.0
  0
VERTEX
  5
136
  8
LAYER_01
 10
1814.636225214774
 20
1388.069568036408
 30
0.0
  0
VERTEX
  5
137
  8
LAYER_01
 10
1802.519562637766
 20
1411.025337608519
 30
0.0
  0
VERTEX
  5
138
  8
LAYER_01
 10
1828.464440585394
 20
1411.827943947621
 30
0.0
  0
VERTEX
  5
139
  8
LAYER_01
 10
1829.448987770678
 20
1437.766554848995
 30
0.0
  0
VERTEX
  5
13A
  8
LAYER_01
 10
1852.319214340961
 20
1425.489193354082
 30
0.0
  0
VERTEX
  5
13B
  8
LAYER_01
 10
1864.111076772658
 20
1444.233412747883
 30
0.0
  0
VERTEX
  5
13C
  8
LAYER_01
 10
1867.657055033478
 20
1444.233412747883
 30
0.0
  0
VERTEX
  5
13D
  8
LAYER_01
 10
1879.448917465175
 20
1425.489193354082
 30
0.0
  0
VERTEX
  5
13E
  8
LAYER_01
 10
1902.319144035459
 20
1437.766554848995
 30
0.0
  0
VERTEX
  5
13F
  8
LAYER_01
 10
1903.303691220743
 20
1411.827943947621
 30
0.0
  0
VERTEX
  5
140
  8
LAYER_01
 10
1929.248569168371
 20
1411.025337608519
 30
0.0
  0
VERTEX
  5
141
  8
LAYER_01
 10
1917.131906591363
 20
1388.069568036408
 30
0.0
  0
SEQEND
  5
142
  8
LAYER_01
  0
POLYLINE
  5
143
  8
LAYER_01
 66
     1
 10
0.0
 20
0.0
 30
0.0
 70
     1
  0
VERTEX
  5
144
  8
LAYER_01
 10
2401.574271124676
 20
1317.255377738967
 30
0.0
 42
0.0677707934931804
  0
VERTEX
  5
145
  8
LAYER_01
 10
2330.214241936837
 20
1381.853879790963
 30
0.0
  0
VERTEX
  5
146
  8
LAYER_01
 10
2340.250114083065
 20
1388.069568036408
 30
0.0
  0
VERTEX
  5
147
  8
LAYER_01
 10
2328.133451506057
 20
1411.025337608519
 30
0.0
  0
VERTEX
  5
148
  8
LAYER_01
 10
2354.078329453685
 20
1411.827943947621
 30
0.0
  0
VERTEX
  5
149
  8
LAYER_01
 10
2355.062876638969
 20
1437.766554848995
 30
0.0
  0
VERTEX
  5
14A
  8
LAYER_01
 10
2377.933103209252
 20
1425.489193354082
 30
0.0
  0
VERTEX
  5
14B
  8
LAYER_01
 10
2389.72496564095
 20
1444.233412747883
 30
0.0
  0
VERTEX
  5
14C
  8
LAYER_01
 10
2393.270943901772
 20
1444.233412747883
 30
0.0
  0
VERTEX
  5
14D
  8
LAYER_01
 10
2405.06280633347
 20
1425.489193354082
 30
0.0
  0
VERTEX
  5
14E
  8
LAYER_01
 10
2427.933032903753
 20
1437.766554848995
 30
0.0
  0
VERTEX
  5
14F
  8
LAYER_01
 10
2428.917580089037
 20
1411.827943947621
 30
0.0
  0
VERTEX
  5
150
  8
LAYER_01
 10
2454.862458036665
 20
1411.025337608519
 30
0.0
  0
VERTEX
  5
151
  8
LAYER_01
 10
2442.745795459658
 20
1388.069568036408
 30
0.0
  0
VERTEX
  5
152
  8
LAYER_01
 10
2465.228525029237
 20
1374.144954821432
 30
0.0
  0
VERTEX
  5
153
  8
LAYER_01
 10
2442.745795459658
 20
1360.220341606457
 30
0.0
  0
VERTEX
  5
154
  8
LAYER_01
 10
2454.862458036665
 20
1337.264572034346
 30
0.0
  0
VERTEX
  5
155
  8
LAYER_01
 10
2428.917580089037
 20
1336.461965695244
 30
0.0
  0
VERTEX
  5
156
  8
LAYER_01
 10
2427.933032903753
 20
1310.52335479387
 30
0.0
  0
VERTEX
  5
157
  8
LAYER_01
 10
2405.06280633347
 20
1322.800716288784
 30
0.0
  0
SEQEND
  5
158
  8
LAYER_01
  0
POLYLINE
  5
159
  8
LAYER_01
 66
     1
 10
0.0
 20
0.0
 30
0.0
 70
     1
  0
VERTEX
  5
15A
  8
LAYER_01
 10
2188.882670484383
 20
1439.11833475652
 30
0.0
 42
-0.0769223410274469
  0
VERTEX
  5
15B
  8
LAYER_01
 10
2292.347313819029
 20
1404.475532892207
 30
0.0
  0
VERTEX
  5
15C
  8
LAYER_01
 10
2295.248673894479
 20
1405.418241926584
 30
0.0
  0
VERTEX
  5
15D
  8
LAYER_01
 10
2267.047801561013
 20
1444.233412747883
 30
0.0
  0
VERTEX
  5
15E
  8
LAYER_01
 10
2191.973935518092
 20
1444.233412747883
 30
0.0
  0
VERTEX
  5
15F
  8
LAYER_01
 10
2188.882670484383
 20
1439.978651444101
 30
0.0
  0
SEQEND
  5
160
  8
LAYER_01
  0
POLYLINE
  5
161
  8
LAYER_01
 66
     1
 10
0.0
 20
0.0
 30
0.0
 70
     1
  0
VERTEX
  5
162
  8
LAYER_01
 10
1863.512187074786
 20
1478.612048910366
 30
0.0
  0
VERTEX
  5
163
  8
LAYER_01
 10
1826.398738928421
 20
1529.694327945368
 30
0.0
  0
VERTEX
  5
164
  8
LAYER_01
 10
1826.398738928421
 20
1574.357711856226
 30
0.0
  0
VERTEX
  5
165
  8
LAYER_01
 10
1865.884065903067
 20
1587.187272302485
 30
0.0
  0
VERTEX
  5
166
  8
LAYER_01
 10
1905.369392877716
 20
1574.357711856226
 30
0.0
  0
VERTEX
  5
167
  8
LAYER_01
 10
1905.369392877716
 20
1529.694327945368
 30
0.0
  0
VERTEX
  5
168
  8
LAYER_01
 10
1868.25594473135
 20
1478.612048910366
 30
0.0
  0
SEQEND
  5
169
  8
LAYER_01
  0
POLYLINE
  5
16A
  8
LAYER_01
 66
     1
 10
0.0
 20
0.0
 30
0.0
 70
     1
  0
VERTEX
  5
16B
  8
LAYER_01
 10
2266.791619884143
 20
1478.612048910366
 30
0.0
  0
VERTEX
  5
16C
  8
LAYER_01
 10
2241.871548314551
 20
1512.9115848756
 30
0.0
  0
VERTEX
  5
16D
  8
LAYER_01
 10
2266.274822441786
 20
1546.499810184628
 30
0.0
  0
VERTEX
  5
16E
  8
LAYER_01
 10
2305.760149416432
 20
1559.329370630886
 30
0.0
  0
VERTEX
  5
16F
  8
LAYER_01
 10
2332.012627796712
 20
1523.19593402071
 30
0.0
  0
VERTEX
  5
170
  8
LAYER_01
 10
2332.012627796712
 20
1478.612048910366
 30
0.0
  0
SEQEND
  5
171
  8
LAYER_01
  0
POLYLINE
  5
172
  8
LAYER_01
 66
     1
 10
0.0
 20
0.0
 30
0.0
 70
     1
  0
VERTEX
  5
173
  8
LAYER_01
 10
2068.499350190044
 20
1478.612048910366
 30
0.0
  0
VERTEX
  5
174
  8
LAYER_01
 10
2068.499350190044
 20
1503.267908303041
 30
0.0
  0
VERTEX
  5
175
  8
LAYER_01
 10
2096.330330562212
 20
1512.310741991429
 30
0.0
  0
VERTEX
  5
176
  8
LAYER_01
 10
2069.205683362566
 20
1521.124074119963
 30
0.0
  0
VERTEX
  5
177
  8
LAYER_01
 10
2069.205683362567
 20
1552.790670181507
 30
0.0
  0
VERTEX
  5
178
  8
LAYER_01
 10
2050.592525207289
 20
1527.17185581371
 30
0.0
  0
VERTEX
  5
179
  8
LAYER_01
 10
2023.46787800764
 20
1535.985187942245
 30
0.0
  0
VERTEX
  5
17A
  8
LAYER_01
 10
2040.231831909872
 20
1512.9115848756
 30
0.0
  0
VERTEX
  5
17B
  8
LAYER_01
 10
2021.618673754594
 20
1487.292770507804
 30
0.0
  0
VERTEX
  5
17C
  8
LAYER_01
 10
2051.735396287811
 20
1497.078286844828
 30
0.0
  0
VERTEX
  5
17D
  8
LAYER_01
 10
2065.151903479463
 20
1478.612048910366
 30
0.0
  0
SEQEND
  5
17E
  8
LAYER_01
  0
POLYLINE
  5
17F
  8
LAYER_01
 66
     1
 10
0.0
 20
0.0
 30
0.0
 70
     1
  0
VERTEX
  5
180
  8
LAYER_01
 10
2068.499350190044
 20
696.4345745294929
 30
0.0
  0
VERTEX
  5
181
  8
LAYER_01
 10
2068.499350190044
 20
671.7787151368179
 30
0.0
  0
VERTEX
  5
182
  8
LAYER_01
 10
2096.330330562212
 20
662.7358814484301
 30
0.0
  0
VERTEX
  5
183
  8
LAYER_01
 10
2069.205683362566
 20
653.922549319896
 30
0.0
  0
VERTEX
  5
184
  8
LAYER_01
 10
2069.205683362567
 20
622.2559532583523
 30
0.0
  0
VERTEX
  5
185
  8
LAYER_01
 10
2050.592525207289
 20
647.8747676261487
 30
0.0
  0
VERTEX
  5
186
  8
LAYER_01
 10
2023.46787800764
 20
639.0614354976142
 30
0.0
  0
VERTEX
  5
187
  8
LAYER_01
 10
2040.231831909872
 20
662.1350385642595
 30
0.0
  0
VERTEX
  5
188
  8
LAYER_01
 10
2021.618673754594
 20
687.753852932055
 30
0.0
  0
VERTEX
  5
189
  8
LAYER_01
 10
2051.735396287811
 20
677.9683365950309
 30
0.0
  0
VERTEX
  5
18A
  8
LAYER_01
 10
2065.151903479464
 20
696.4345745294929
 30
0.0
  0
SEQEND
  5
18B
  8
LAYER_01
  0
POLYLINE
  5
18C
  8
LAYER_01
 66
     1
 10
0.0
 20
0.0
 30
0.0
 70
     1
  0
VERTEX
  5
18D
  8
LAYER_01
 10
2188.882670484383
 20
696.434574529493
 30
0.0
  0
VERTEX
  5
18E
  8
LAYER_01
 10
2188.882670484383
 20
671.7787151368179
 30
0.0
  0
VERTEX
  5
18F
  8
LAYER_01
 10
2161.051690112216
 20
662.7358814484301
 30
0.0
  0
VERTEX
  5
190
  8
LAYER_01
 10
2188.176337311862
 20
653.922549319896
 30
0.0
  0
VERTEX
  5
191
  8
LAYER_01
 10
2188.176337311861
 20
622.2559532583523
 30
0.0
  0
VERTEX
  5
192
  8
LAYER_01
 10
2206.789495467138
 20
647.8747676261487
 30
0.0
  0
VERTEX
  5
193
  8
LAYER_01
 10
2233.914142666787
 20
639.0614354976142
 30
0.0
  0
VERTEX
  5
194
  8
LAYER_01
 10
2217.150188764555
 20
662.1350385642595
 30
0.0
  0
VERTEX
  5
195
  8
LAYER_01
 10
2235.763346919834
 20
687.753852932055
 30
0.0
  0
VERTEX
  5
196
  8
LAYER_01
 10
2205.646624386616
 20
677.9683365950309
 30
0.0
  0
VERTEX
  5
197
  8
LAYER_01
 10
2192.230117194964
 20
696.4345745294929
 30
0.0
  0
SEQEND
  5
198
  8
LAYER_01
  0
POLYLINE
  5
199
  8
LAYER_01
 66
     1
 10
0.0
 20
0.0
 30
0.0
 70
     1
  0
VERTEX
  5
19A
  8
LAYER_01
 10
1927.167778737591
 20
793.1927436488968
 30
0.0
 42
-0.0677707934932009
  0
VERTEX
  5
19B
  8
LAYER_01
 10
1855.807749549754
 20
857.7912457008905
 30
0.0
  0
VERTEX
  5
19C
  8
LAYER_01
 10
1852.319214340961
 20
852.2459071510752
 30
0.0
  0
VERTEX
  5
19D
  8
LAYER_01
 10
1829.448987770678
 20
864.523268645989
 30
0.0
  0
VERTEX
  5
19E
  8
LAYER_01
 10
1828.464440585394
 20
838.5846577446155
 30
0.0
  0
VERTEX
  5
19F
  8
LAYER_01
 10
1802.519562637766
 20
837.7820514055134
 30
0.0
  0
VERTEX
  5
1A0
  8
LAYER_01
 10
1814.636225214774
 20
814.8262818334019
 30
0.0
  0
VERTEX
  5
1A1
  8
LAYER_01
 10
1792.568604983591
 20
801.1587653806869
 30
0.0
  0
VERTEX
  5
1A2
  8
LAYER_01
 10
1792.977283268735
 20
800.9016686184264
 30
0.0
  0
VERTEX
  5
1A3
  8
LAYER_01
 10
1792.568604983591
 20
800.6445718561658
 30
0.0
  0
VERTEX
  5
1A4
  8
LAYER_01
 10
1814.636225214774
 20
786.9770554034508
 30
0.0
  0
VERTEX
  5
1A5
  8
LAYER_01
 10
1802.519562637766
 20
764.0212858313398
 30
0.0
  0
VERTEX
  5
1A6
  8
LAYER_01
 10
1828.464440585394
 20
763.2186794922377
 30
0.0
  0
VERTEX
  5
1A7
  8
LAYER_01
 10
1829.448987770678
 20
737.2800685908642
 30
0.0
  0
VERTEX
  5
1A8
  8
LAYER_01
 10
1852.319214340961
 20
749.5574300857775
 30
0.0
  0
VERTEX
  5
1A9
  8
LAYER_01
 10
1864.111076772657
 20
730.8132106919763
 30
0.0
  0
VERTEX
  5
1AA
  8
LAYER_01
 10
1867.657055033478
 20
730.8132106919763
 30
0.0
  0
VERTEX
  5
1AB
  8
LAYER_01
 10
1879.448917465175
 20
749.5574300857775
 30
0.0
  0
VERTEX
  5
1AC
  8
LAYER_01
 10
1902.319144035459
 20
737.2800685908642
 30
0.0
  0
VERTEX
  5
1AD
  8
LAYER_01
 10
1903.303691220743
 20
763.2186794922377
 30
0.0
  0
VERTEX
  5
1AE
  8
LAYER_01
 10
1929.248569168371
 20
764.0212858313398
 30
0.0
  0
VERTEX
  5
1AF
  8
LAYER_01
 10
1917.131906591363
 20
786.9770554034508
 30
0.0
  0
SEQEND
  5
1B0
  8
LAYER_01
  0
POLYLINE
  5
1B1
  8
LAYER_01
 66
     1
 10
0.0
 20
0.0
 30
0.0
 70
     1
  0
VERTEX
  5
1B2
  8
LAYER_01
 10
2401.574271124676
 20
857.7912457008923
 30
0.0
 42
-0.0677707934931804
  0
VERTEX
  5
1B3
  8
LAYER_01
 10
2330.214241936837
 20
793.1927436488957
 30
0.0
  0
VERTEX
  5
1B4
  8
LAYER_01
 10
2340.250114083065
 20
786.9770554034508
 30
0.0
  0
VERTEX
  5
1B5
  8
LAYER_01
 10
2328.133451506057
 20
764.0212858313398
 30
0.0
  0
VERTEX
  5
1B6
  8
LAYER_01
 10
2354.078329453685
 20
763.2186794922377
 30
0.0
  0
VERTEX
  5
1B7
  8
LAYER_01
 10
2355.062876638969
 20
737.2800685908642
 30
0.0
  0
VERTEX
  5
1B8
  8
LAYER_01
 10
2377.933103209252
 20
749.5574300857775
 30
0.0
  0
VERTEX
  5
1B9
  8
LAYER_01
 10
2389.724965640951
 20
730.8132106919763
 30
0.0
  0
VERTEX
  5
1BA
  8
LAYER_01
 10
2393.270943901772
 20
730.8132106919763
 30
0.0
  0
VERTEX
  5
1BB
  8
LAYER_01
 10
2405.06280633347
 20
749.5574300857775
 30
0.0
  0
VERTEX
  5
1BC
  8
LAYER_01
 10
2427.933032903753
 20
737.2800685908642
 30
0.0
  0
VERTEX
  5
1BD
  8
LAYER_01
 10
2428.917580089037
 20
763.2186794922377
 30
0.0
  0
VERTEX
  5
1BE
  8
LAYER_01
 10
2454.862458036665
 20
764.0212858313398
 30
0.0
  0
VERTEX
  5
1BF
  8
LAYER_01
 10
2442.745795459658
 20
786.9770554034508
 30
0.0
  0
VERTEX
  5
1C0
  8
LAYER_01
 10
2465.228525029237
 20
800.9016686184268
 30
0.0
  0
VERTEX
  5
1C1
  8
LAYER_01
 10
2442.745795459658
 20
814.8262818334019
 30
0.0
  0
VERTEX
  5
1C2
  8
LAYER_01
 10
2454.862458036665
 20
837.7820514055134
 30
0.0
  0
VERTEX
  5
1C3
  8
LAYER_01
 10
2428.917580089037
 20
838.5846577446155
 30
0.0
  0
VERTEX
  5
1C4
  8
LAYER_01
 10
2427.933032903753
 20
864.523268645989
 30
0.0
  0
VERTEX
  5
1C5
  8
LAYER_01
 10
2405.06280633347
 20
852.2459071510752
 30
0.0
  0
SEQEND
  5
1C6
  8
LAYER_01
  0
POLYLINE
  5
1C7
  8
LAYER_01
 66
     1
 10
0.0
 20
0.0
 30
0.0
 70
     1
  0
VERTEX
  5
1C8
  8
LAYER_01
 10
2088.499350190044
 20
696.4345745294931
 30
0.0
  0
VERTEX
  5
1C9
  8
LAYER_01
 10
2088.499350190044
 20
686.3095656969299
 30
0.0
  0
VERTEX
  5
1CA
  8
LAYER_01
 10
2128.691010337215
 20
673.2505036908146
 30
0.0
  0
VERTEX
  5
1CB
  8
LAYER_01
 10
2168.882670484384
 20
686.3095656969299
 30
0.0
  0
VERTEX
  5
1CC
  8
LAYER_01
 10
2168.882670484384
 20
696.4345745294929
 30
0.0
  0
SEQEND
  5
1CD
  8
LAYER_01
  0
POLYLINE
  5
1CE
  8
LAYER_01
 66
     1
 10
0.0
 20
0.0
 30
0.0
 70
     1
  0
VERTEX
  5
1CF
  8
LAYER_01
 10
1773.691010337215
 20
696.4345745294929
 30
0.0
  0
VERTEX
  5
1D0
  8
LAYER_01
 10
1773.691010337215
 20
617.8146907466141
 30
0.0
  0
VERTEX
  5
1D1
  8
LAYER_01
 10
1780.146260548141
 20
615.7172528089727
 30
0.0
  0
VERTEX
  5
1D2
  8
LAYER_01
 10
1806.398738928421
 20
651.8506894191491
 30
0.0
  0
VERTEX
  5
1D3
  8
LAYER_01
 10
1806.398738928421
 20
696.4345745294929
 30
0.0
  0
SEQEND
  5
1D4
  8
LAYER_01
  0
POLYLINE
  5
1D5
  8
LAYER_01
 66
     1
 10
0.0
 20
0.0
 30
0.0
 70
     1
  0
VERTEX
  5
1D6
  8
LAYER_01
 10
2188.882670484383
 20
735.9282886833394
 30
0.0
 42
0.0769223410274469
  0
VERTEX
  5
1D7
  8
LAYER_01
 10
2292.347313819029
 20
770.5710905476519
 30
0.0
  0
VERTEX
  5
1D8
  8
LAYER_01
 10
2295.248673894479
 20
769.6283815132747
 30
0.0
  0
VERTEX
  5
1D9
  8
LAYER_01
 10
2267.047801561013
 20
730.8132106919763
 30
0.0
  0
VERTEX
  5
1DA
  8
LAYER_01
 10
2191.973935518092
 20
730.8132106919763
 30
0.0
  0
VERTEX
  5
1DB
  8
LAYER_01
 10
2188.882670484383
 20
735.067971995758
 30
0.0
  0
SEQEND
  5
1DC
  8
LAYER_01
  0
POLYLINE
  5
1DD
  8
LAYER_01
 66
     1
 10
0.0
 20
0.0
 30
0.0
 70
     1
  0
VERTEX
  5
1DE
  8
LAYER_01
 10
1863.512187074786
 20
696.4345745294929
 30
0.0
  0
VERTEX
  5
1DF
  8
LAYER_01
 10
1826.398738928421
 20
645.352295494491
 30
0.0
  0
VERTEX
  5
1E0
  8
LAYER_01
 10
1826.398738928421
 20
600.6889115836334
 30
0.0
  0
VERTEX
  5
1E1
  8
LAYER_01
 10
1865.884065903067
 20
587.8593511373738
 30
0.0
  0
VERTEX
  5
1E2
  8
LAYER_01
 10
1905.369392877716
 20
600.6889115836334
 30
0.0
  0
VERTEX
  5
1E3
  8
LAYER_01
 10
1905.369392877716
 20
645.352295494491
 30
0.0
  0
VERTEX
  5
1E4
  8
LAYER_01
 10
1868.255944731351
 20
696.4345745294929
 30
0.0
  0
SEQEND
  5
1E5
  8
LAYER_01
  0
POLYLINE
  5
1E6
  8
LAYER_01
 66
     1
 10
0.0
 20
0.0
 30
0.0
 70
     1
  0
VERTEX
  5
1E7
  8
LAYER_01
 10
2393.869833599645
 20
696.434574529493
 30
0.0
  0
VERTEX
  5
1E8
  8
LAYER_01
 10
2430.98328174601
 20
645.352295494491
 30
0.0
  0
VERTEX
  5
1E9
  8
LAYER_01
 10
2430.98328174601
 20
600.6889115836334
 30
0.0
  0
VERTEX
  5
1EA
  8
LAYER_01
 10
2391.497954771361
 20
587.8593511373738
 30
0.0
  0
VERTEX
  5
1EB
  8
LAYER_01
 10
2352.012627796712
 20
600.6889115836334
 30
0.0
  0
VERTEX
  5
1EC
  8
LAYER_01
 10
2352.012627796712
 20
645.352295494491
 30
0.0
  0
VERTEX
  5
1ED
  8
LAYER_01
 10
2389.12607594308
 20
696.4345745294929
 30
0.0
  0
SEQEND
  5
1EE
  8
LAYER_01
  0
POLYLINE
  5
1EF
  8
LAYER_01
 66
     1
 10
0.0
 20
0.0
 30
0.0
 70
     1
  0
VERTEX
  5
1F0
  8
LAYER_01
 10
2266.791619884143
 20
696.4345745294929
 30
0.0
  0
VERTEX
  5
1F1
  8
LAYER_01
 10
2241.871548314551
 20
662.1350385642595
 30
0.0
  0
VERTEX
  5
1F2
  8
LAYER_01
 10
2266.274822441786
 20
628.5468132552314
 30
0.0
  0
VERTEX
  5
1F3
  8
LAYER_01
 10
2305.760149416432
 20
615.7172528089727
 30
0.0
  0
VERTEX
  5
1F4
  8
LAYER_01
 10
2332.012627796712
 20
651.8506894191491
 30
0.0
  0
VERTEX
  5
1F5
  8
LAYER_01
 10
2332.012627796712
 20
696.4345745294929
 30
0.0
  0
SEQEND
  5
1F6
  8
LAYER_01
  0
POLYLINE
  5
1F7
  8
LAYER_01
 66
     1
 10
0.0
 20
0.0
 30
0.0
 70
     1
  0
VERTEX
  5
1F8
  8
LAYER_01
 10
1990.590400790285
 20
696.4345745294929
 30
0.0
  0
VERTEX
  5
1F9
  8
LAYER_01
 10
2015.510472359877
 20
662.1350385642595
 30
0.0
  0
VERTEX
  5
1FA
  8
LAYER_01
 10
1991.107198232642
 20
628.5468132552314
 30
0.0
  0
VERTEX
  5
1FB
  8
LAYER_01
 10
1951.621871257996
 20
615.7172528089727
 30
0.0
  0
VERTEX
  5
1FC
  8
LAYER_01
 10
1925.369392877716
 20
651.8506894191491
 30
0.0
  0
VERTEX
  5
1FD
  8
LAYER_01
 10
1925.369392877716
 20
696.4345745294929
 30
0.0
  0
SEQEND
  5
1FE
  8
LAYER_01
  0
POLYLINE
  5
1FF
  8
LAYER_01
 66
     1
 10
0.0
 20
0.0
 30
0.0
 70
     1
  0
VERTEX
  5
200
  8
LAYER_01
 10
2088.499350190044
 20
1478.612048910366
 30
0.0
  0
VERTEX
  5
201
  8
LAYER_01
 10
2088.499350190044
 20
1488.737057742929
 30
0.0
  0
VERTEX
  5
202
  8
LAYER_01
 10
2128.691010337215
 20
1501.796119749044
 30
0.0
  0
VERTEX
  5
203
  8
LAYER_01
 10
2168.882670484384
 20
1488.737057742929
 30
0.0
  0
VERTEX
  5
204
  8
LAYER_01
 10
2168.882670484385
 20
1478.612048910366
 30
0.0
  0
SEQEND
  5
205
  8
LAYER_01
  0
POLYLINE
  5
206
  8
LAYER_01
 66
     1
 10
0.0
 20
0.0
 30
0.0
 70
     1
  0
VERTEX
  5
207
  8
LAYER_01
 10
1773.691010337215
 20
1478.612048910366
 30
0.0
  0
VERTEX
  5
208
  8
LAYER_01
 10
1773.691010337215
 20
1557.231932693245
 30
0.0
  0
VERTEX
  5
209
  8
LAYER_01
 10
1780.146260548141
 20
1559.329370630886
 30
0.0
  0
VERTEX
  5
20A
  8
LAYER_01
 10
1806.398738928421
 20
1523.19593402071
 30
0.0
  0
VERTEX
  5
20B
  8
LAYER_01
 10
1806.398738928421
 20
1478.612048910366
 30
0.0
  0
SEQEND
  5
20C
  8
LAYER_01
  0
POLYLINE
  5
20D
  8
LAYER_01
 66
     1
 10
0.0
 20
0.0
 30
0.0
 70
     1
  0
VERTEX
  5
20E
  8
LAYER_01
 10
1990.590400790285
 20
1478.612048910366
 30
0.0
  0
VERTEX
  5
20F
  8
LAYER_01
 10
2015.510472359877
 20
1512.9115848756
 30
0.0
  0
VERTEX
  5
210
  8
LAYER_01
 10
1991.107198232642
 20
1546.499810184628
 30
0.0
  0
VERTEX
  5
211
  8
LAYER_01
 10
1951.621871257996
 20
1559.329370630886
 30
0.0
  0
VERTEX
  5
212
  8
LAYER_01
 10
1925.369392877716
 20
1523.19593402071
 30
0.0
  0
VERTEX
  5
213
  8
LAYER_01
 10
1925.369392877716
 20
1478.612048910366
 30
0.0
  0
SEQEND
  5
214
  8
LAYER_01
  0
POLYLINE
  5
215
  8
LAYER_01
 66
     1
 10
0.0
 20
0.0
 30
0.0
 70
     1
  0
VERTEX
  5
216
  8
LAYER_01
 10
2465.426697211477
 20
969.8323037342262
 30
0.0
 42
-0.0266724390636571
  0
VERTEX
  5
217
  8
LAYER_01
 10
2450.98328174601
 20
934.6515093313533
 30
0.0
  0
VERTEX
  5
218
  8
LAYER_01
 10
2450.98328174601
 20
882.776197199647
 30
0.0
  0
VERTEX
  5
219
  8
LAYER_01
 10
2483.691010337215
 20
893.4035824379703
 30
0.0
  0
VERTEX
  5
21A
  8
LAYER_01
 10
2483.691010337215
 20
983.9886464902397
 30
0.0
  0
VERTEX
  5
21B
  8
LAYER_01
 10
2477.23576012629
 20
986.0860844278805
 30
0.0
  0
SEQEND
  5
21C
  8
LAYER_01
  0
POLYLINE
  5
21D
  8
LAYER_01
 66
     1
 10
0.0
 20
0.0
 30
0.0
 70
     1
  0
VERTEX
  5
21E
  8
LAYER_01
 10
2483.691010337214
 20
453.0974249436586
 30
0.0
  0
VERTEX
  5
21F
  8
LAYER_01
 10
2451.689614918532
 20
463.4953086221262
 30
0.0
  0
VERTEX
  5
220
  8
LAYER_01
 10
2451.689614918532
 20
505.0126383476641
 30
0.0
  0
VERTEX
  5
221
  8
LAYER_01
 10
2476.092889045767
 20
538.6008636566921
 30
0.0
  0
VERTEX
  5
222
  8
LAYER_01
 10
2483.691010337215
 20
536.1320843947342
 30
0.0
  0
SEQEND
  5
223
  8
LAYER_01
  0
POLYLINE
  5
224
  8
LAYER_01
 66
     1
 10
0.0
 20
0.0
 30
0.0
 70
     1
  0
VERTEX
  5
225
  8
LAYER_01
 10
1791.95532346295
 20
969.8323037342311
 30
0.0
 42
0.0266724390636647
  0
VERTEX
  5
226
  8
LAYER_01
 10
1806.398738928422
 20
934.6515093313484
 30
0.0
  0
VERTEX
  5
227
  8
LAYER_01
 10
1806.398738928421
 20
882.776197199647
 30
0.0
  0
VERTEX
  5
228
  8
LAYER_01
 10
1773.691010337215
 20
893.4035824379707
 30
0.0
  0
VERTEX
  5
229
  8
LAYER_01
 10
1773.691010337214
 20
983.9886464902388
 30
0.0
  0
VERTEX
  5
22A
  8
LAYER_01
 10
1780.146260548141
 20
986.0860844278805
 30
0.0
  0
SEQEND
  5
22B
  8
LAYER_01
  0
POLYLINE
  5
22C
  8
LAYER_01
 66
     1
 10
0.0
 20
0.0
 30
0.0
 70
     1
  0
VERTEX
  5
22D
  8
LAYER_01
 10
1773.691010337214
 20
453.0974249436579
 30
0.0
  0
VERTEX
  5
22E
  8
LAYER_01
 10
1805.692405755899
 20
463.4953086221262
 30
0.0
  0
VERTEX
  5
22F
  8
LAYER_01
 10
1805.692405755899
 20
505.0126383476641
 30
0.0
  0
VERTEX
  5
230
  8
LAYER_01
 10
1781.289131628664
 20
538.6008636566921
 30
0.0
  0
VERTEX
  5
231
  8
LAYER_01
 10
1773.691010337215
 20
536.1320843947337
 30
0.0
  0
SEQEND
  5
232
  8
LAYER_01
  0
POLYLINE
  5
233
  8
LAYER_01
 66
     1
 10
0.0
 20
0.0
 30
0.0
 70
     1
  0
VERTEX
  5
234
  8
LAYER_01
 10
2394.561896213174
 20
312.5233117199296
 30
0.0
  0
VERTEX
  5
235
  8
LAYER_01
 10
2431.689614918534
 20
324.586838803496
 30
0.0
  0
VERTEX
  5
236
  8
LAYER_01
 10
2431.689614918533
 20
366.8468511776659
 30
0.0
  0
VERTEX
  5
237
  8
LAYER_01
 10
2391.497954771361
 20
422.1659255579543
 30
0.0
  0
VERTEX
  5
238
  8
LAYER_01
 10
2351.306294624189
 20
366.8468511776659
 30
0.0
  0
VERTEX
  5
239
  8
LAYER_01
 10
2351.306294624188
 20
324.586838803496
 30
0.0
  0
VERTEX
  5
23A
  8
LAYER_01
 10
2388.434013329551
 20
312.5233117199296
 30
0.0
  0
SEQEND
  5
23B
  8
LAYER_01
  0
POLYLINE
  5
23C
  8
LAYER_01
 66
     1
 10
0.0
 20
0.0
 30
0.0
 70
     1
  0
VERTEX
  5
23D
  8
LAYER_01
 10
1963.142400922757
 20
312.5233117199296
 30
0.0
  0
VERTEX
  5
23E
  8
LAYER_01
 10
1972.956402485687
 20
326.0311260386238
 30
0.0
  0
VERTEX
  5
23F
  8
LAYER_01
 10
1942.839679952471
 20
316.2456097015984
 30
0.0
  0
VERTEX
  5
240
  8
LAYER_01
 10
1926.075726050238
 20
339.3192127682441
 30
0.0
  0
VERTEX
  5
241
  8
LAYER_01
 10
1926.075726050238
 20
312.5233117199293
 30
0.0
  0
SEQEND
  5
242
  8
LAYER_01
  0
POLYLINE
  5
243
  8
LAYER_01
 66
     1
 10
0.0
 20
0.0
 30
0.0
 70
     1
  0
VERTEX
  5
244
  8
LAYER_01
 10
1862.820124461257
 20
312.5233117199293
 30
0.0
  0
VERTEX
  5
245
  8
LAYER_01
 10
1825.692405755897
 20
324.586838803496
 30
0.0
  0
VERTEX
  5
246
  8
LAYER_01
 10
1825.692405755898
 20
366.8468511776659
 30
0.0
  0
VERTEX
  5
247
  8
LAYER_01
 10
1865.884065903067
 20
422.1659255579543
 30
0.0
  0
VERTEX
  5
248
  8
LAYER_01
 10
1906.075726050239
 20
366.8468511776659
 30
0.0
  0
VERTEX
  5
249
  8
LAYER_01
 10
1906.07572605024
 20
324.586838803496
 30
0.0
  0
VERTEX
  5
24A
  8
LAYER_01
 10
1868.94800734488
 20
312.5233117199293
 30
0.0
  0
SEQEND
  5
24B
  8
LAYER_01
  0
POLYLINE
  5
24C
  8
LAYER_01
 66
     1
 10
0.0
 20
0.0
 30
0.0
 70
     1
  0
VERTEX
  5
24D
  8
LAYER_01
 10
1773.691010337215
 20
583.0848127658705
 30
0.0
  0
VERTEX
  5
24E
  8
LAYER_01
 10
1777.424887475727
 20
577.945571779162
 30
0.0
  0
VERTEX
  5
24F
  8
LAYER_01
 10
1773.691010337215
 20
572.8063307924531
 30
0.0
  0
VERTEX
  5
250
  8
LAYER_01
 10
1773.691010337215
 20
557.1613288794983
 30
0.0
  0
VERTEX
  5
251
  8
LAYER_01
 10
1788.928451853666
 20
562.1122737483911
 30
0.0
  0
VERTEX
  5
252
  8
LAYER_01
 10
1805.692405755899
 20
539.0386706817453
 30
0.0
  0
VERTEX
  5
253
  8
LAYER_01
 10
1805.692405755899
 20
568.3018952066004
 30
0.0
  0
VERTEX
  5
254
  8
LAYER_01
 10
1833.52338612807
 20
577.3447288949915
 30
0.0
  0
VERTEX
  5
255
  8
LAYER_01
 10
1806.398738928421
 20
586.158061023526
 30
0.0
  0
VERTEX
  5
256
  8
LAYER_01
 10
1806.398738928422
 20
617.8246570850697
 30
0.0
  0
VERTEX
  5
257
  8
LAYER_01
 10
1787.785580773143
 20
592.2058427172738
 30
0.0
  0
VERTEX
  5
258
  8
LAYER_01
 10
1773.691010337215
 20
596.7854462618488
 30
0.0
  0
SEQEND
  5
259
  8
LAYER_01
  0
POLYLINE
  5
25A
  8
LAYER_01
 66
     1
 10
0.0
 20
0.0
 30
0.0
 70
     1
  0
VERTEX
  5
25B
  8
LAYER_01
 10
1773.691010337215
 20
321.1965545704916
 30
0.0
  0
VERTEX
  5
25C
  8
LAYER_01
 10
1788.928451853666
 20
316.2456097015984
 30
0.0
  0
VERTEX
  5
25D
  8
LAYER_01
 10
1805.692405755899
 20
339.3192127682441
 30
0.0
  0
VERTEX
  5
25E
  8
LAYER_01
 10
1805.692405755899
 20
312.5233117199296
 30
0.0
  0
VERTEX
  5
25F
  8
LAYER_01
 10
1773.691010337215
 20
312.5233117199293
 30
0.0
  0
SEQEND
  5
260
  8
LAYER_01
  0
POLYLINE
  5
261
  8
LAYER_01
 66
     1
 10
0.0
 20
0.0
 30
0.0
 70
     1
  0
VERTEX
  5
262
  8
LAYER_01
 10
1773.691010337215
 20
425.2604585063316
 30
0.0
  0
VERTEX
  5
263
  8
LAYER_01
 10
1805.692405755899
 20
414.8625748278632
 30
0.0
  0
VERTEX
  5
264
  8
LAYER_01
 10
1805.692405755899
 20
373.3452451023259
 30
0.0
  0
VERTEX
  5
265
  8
LAYER_01
 10
1781.289131628664
 20
339.7570197932973
 30
0.0
  0
VERTEX
  5
266
  8
LAYER_01
 10
1773.691010337215
 20
342.2257990552557
 30
0.0
  0
SEQEND
  5
267
  8
LAYER_01
  0
POLYLINE
  5
268
  8
LAYER_01
 66
     1
 10
0.0
 20
0.0
 30
0.0
 70
     1
  0
VERTEX
  5
269
  8
LAYER_01
 10
2483.691010337215
 20
583.0848127658678
 30
0.0
  0
VERTEX
  5
26A
  8
LAYER_01
 10
2479.957133198704
 20
577.945571779162
 30
0.0
  0
VERTEX
  5
26B
  8
LAYER_01
 10
2483.691010337215
 20
572.8063307924554
 30
0.0
  0
VERTEX
  5
26C
  8
LAYER_01
 10
2483.691010337215
 20
557.1613288794988
 30
0.0
  0
VERTEX
  5
26D
  8
LAYER_01
 10
2468.453568820765
 20
562.1122737483911
 30
0.0
  0
VERTEX
  5
26E
  8
LAYER_01
 10
2451.689614918532
 20
539.0386706817453
 30
0.0
  0
VERTEX
  5
26F
  8
LAYER_01
 10
2451.689614918532
 20
568.3018952066004
 30
0.0
  0
VERTEX
  5
270
  8
LAYER_01
 10
2423.858634546361
 20
577.3447288949915
 30
0.0
  0
VERTEX
  5
271
  8
LAYER_01
 10
2450.98328174601
 20
586.158061023526
 30
0.0
  0
VERTEX
  5
272
  8
LAYER_01
 10
2450.983281746009
 20
617.8246570850697
 30
0.0
  0
VERTEX
  5
273
  8
LAYER_01
 10
2469.596439901288
 20
592.2058427172738
 30
0.0
  0
VERTEX
  5
274
  8
LAYER_01
 10
2483.691010337215
 20
596.7854462618486
 30
0.0
  0
SEQEND
  5
275
  8
LAYER_01
  0
POLYLINE
  5
276
  8
LAYER_01
 66
     1
 10
0.0
 20
0.0
 30
0.0
 70
     1
  0
VERTEX
  5
277
  8
LAYER_01
 10
2483.691010337215
 20
321.1965545704907
 30
0.0
  0
VERTEX
  5
278
  8
LAYER_01
 10
2468.453568820765
 20
316.2456097015984
 30
0.0
  0
VERTEX
  5
279
  8
LAYER_01
 10
2451.689614918532
 20
339.3192127682441
 30
0.0
  0
VERTEX
  5
27A
  8
LAYER_01
 10
2451.689614918532
 20
312.5233117199296
 30
0.0
  0
VERTEX
  5
27B
  8
LAYER_01
 10
2483.691010337215
 20
312.5233117199296
 30
0.0
  0
SEQEND
  5
27C
  8
LAYER_01
  0
POLYLINE
  5
27D
  8
LAYER_01
 66
     1
 10
0.0
 20
0.0
 30
0.0
 70
     1
  0
VERTEX
  5
27E
  8
LAYER_01
 10
2483.691010337214
 20
425.2604585063309
 30
0.0
  0
VERTEX
  5
27F
  8
LAYER_01
 10
2451.689614918532
 20
414.8625748278632
 30
0.0
  0
VERTEX
  5
280
  8
LAYER_01
 10
2451.689614918532
 20
373.3452451023259
 30
0.0
  0
VERTEX
  5
281
  8
LAYER_01
 10
2476.092889045767
 20
339.7570197932973
 30
0.0
  0
VERTEX
  5
282
  8
LAYER_01
 10
2483.691010337215
 20
342.2257990552553
 30
0.0
  0
SEQEND
  5
283
  8
LAYER_01
  0
POLYLINE
  5
284
  8
LAYER_01
 66
     1
 10
0.0
 20
0.0
 30
0.0
 70
     1
  0
VERTEX
  5
285
  8
LAYER_01
 10
2147.18380414274
 20
312.5233117199296
 30
0.0
  0
VERTEX
  5
286
  8
LAYER_01
 10
2128.691010337214
 20
337.9764587728564
 30
0.0
  0
VERTEX
  5
287
  8
LAYER_01
 10
2110.198216531688
 20
312.5233117199296
 30
0.0
  0
SEQEND
  5
288
  8
LAYER_01
  0
POLYLINE
  5
289
  8
LAYER_01
 66
     1
 10
0.0
 20
0.0
 30
0.0
 70
     1
  0
VERTEX
  5
28A
  8
LAYER_01
 10
2188.176337311861
 20
312.5233117199296
 30
0.0
  0
VERTEX
  5
28B
  8
LAYER_01
 10
2188.176337311861
 20
357.3044131437741
 30
0.0
  0
VERTEX
  5
28C
  8
LAYER_01
 10
2252.064938413743
 20
336.5457482810048
 30
0.0
  0
VERTEX
  5
28D
  8
LAYER_01
 10
2269.518260201675
 20
312.5233117199296
 30
0.0
  0
SEQEND
  5
28E
  8
LAYER_01
  0
POLYLINE
  5
28F
  8
LAYER_01
 66
     1
 10
0.0
 20
0.0
 30
0.0
 70
     1
  0
VERTEX
  5
290
  8
LAYER_01
 10
2294.239619751671
 20
312.5233117199298
 30
0.0
  0
VERTEX
  5
291
  8
LAYER_01
 10
2284.42561818874
 20
326.0311260386238
 30
0.0
  0
VERTEX
  5
292
  8
LAYER_01
 10
2314.542340721957
 20
316.2456097015984
 30
0.0
  0
VERTEX
  5
293
  8
LAYER_01
 10
2331.30629462419
 20
339.3192127682441
 30
0.0
  0
VERTEX
  5
294
  8
LAYER_01
 10
2331.30629462419
 20
312.5233117199296
 30
0.0
  0
SEQEND
  5
295
  8
LAYER_01
  0
POLYLINE
  5
296
  8
LAYER_01
 66
     1
 10
0.0
 20
0.0
 30
0.0
 70
     1
  0
VERTEX
  5
297
  8
LAYER_01
 10
2069.205683362567
 20
312.5233117199296
 30
0.0
  0
VERTEX
  5
298
  8
LAYER_01
 10
2069.205683362567
 20
357.3044131437741
 30
0.0
  0
VERTEX
  5
299
  8
LAYER_01
 10
2005.317082260684
 20
336.5457482810048
 30
0.0
  0
VERTEX
  5
29A
  8
LAYER_01
 10
1987.863760472753
 20
312.5233117199293
 30
0.0
  0
SEQEND
  5
29B
  8
LAYER_01
  0
POLYLINE
  5
29C
  8
LAYER_01
 66
     1
 10
0.0
 20
0.0
 30
0.0
 70
     1
  0
VERTEX
  5
29D
  8
LAYER_01
 10
1865.884065903067
 20
456.1919578920351
 30
0.0
  0
VERTEX
  5
29E
  8
LAYER_01
 10
1906.075726050239
 20
511.511032272324
 30
0.0
  0
VERTEX
  5
29F
  8
LAYER_01
 10
1906.07572605024
 20
553.7710446464935
 30
0.0
  0
VERTEX
  5
2A0
  8
LAYER_01
 10
1865.884065903068
 20
566.8301066526087
 30
0.0
  0
VERTEX
  5
2A1
  8
LAYER_01
 10
1825.692405755897
 20
553.7710446464935
 30
0.0
  0
VERTEX
  5
2A2
  8
LAYER_01
 10
1825.692405755898
 20
511.511032272324
 30
0.0
  0
SEQEND
  5
2A3
  8
LAYER_01
  0
POLYLINE
  5
2A4
  8
LAYER_01
 66
     1
 10
0.0
 20
0.0
 30
0.0
 70
     1
  0
VERTEX
  5
2A5
  8
LAYER_01
 10
1853.52338612807
 20
439.1789417249965
 30
0.0
  0
VERTEX
  5
2A6
  8
LAYER_01
 10
1825.692405755898
 20
477.4849999382418
 30
0.0
  0
VERTEX
  5
2A7
  8
LAYER_01
 10
1825.692405755899
 20
448.9644580620188
 30
0.0
  0
VERTEX
  5
2A8
  8
LAYER_01
 10
1795.575683222682
 20
439.1789417249947
 30
0.0
  0
VERTEX
  5
2A9
  8
LAYER_01
 10
1825.692405755899
 20
429.3934253879706
 30
0.0
  0
VERTEX
  5
2AA
  8
LAYER_01
 10
1825.692405755898
 20
400.8728835117481
 30
0.0
  0
SEQEND
  5
2AB
  8
LAYER_01
  0
POLYLINE
  5
2AC
  8
LAYER_01
 66
     1
 10
0.0
 20
0.0
 30
0.0
 70
     1
  0
VERTEX
  5
2AD
  8
LAYER_01
 10
2391.497954771363
 20
566.8301066526087
 30
0.0
  0
VERTEX
  5
2AE
  8
LAYER_01
 10
2431.689614918534
 20
553.7710446464935
 30
0.0
  0
VERTEX
  5
2AF
  8
LAYER_01
 10
2431.689614918533
 20
511.511032272324
 30
0.0
  0
VERTEX
  5
2B0
  8
LAYER_01
 10
2391.497954771361
 20
456.1919578920351
 30
0.0
  0
VERTEX
  5
2B1
  8
LAYER_01
 10
2351.306294624189
 20
511.511032272324
 30
0.0
  0
VERTEX
  5
2B2
  8
LAYER_01
 10
2351.306294624188
 20
553.7710446464935
 30
0.0
  0
SEQEND
  5
2B3
  8
LAYER_01
  0
POLYLINE
  5
2B4
  8
LAYER_01
 66
     1
 10
0.0
 20
0.0
 30
0.0
 70
     1
  0
VERTEX
  5
2B5
  8
LAYER_01
 10
2403.858634546361
 20
439.1789417249965
 30
0.0
  0
VERTEX
  5
2B6
  8
LAYER_01
 10
2431.689614918533
 20
477.4849999382418
 30
0.0
  0
VERTEX
  5
2B7
  8
LAYER_01
 10
2431.689614918532
 20
448.9644580620188
 30
0.0
  0
VERTEX
  5
2B8
  8
LAYER_01
 10
2461.80633745175
 20
439.1789417249947
 30
0.0
  0
VERTEX
  5
2B9
  8
LAYER_01
 10
2431.689614918532
 20
429.3934253879706
 30
0.0
  0
VERTEX
  5
2BA
  8
LAYER_01
 10
2431.689614918533
 20
400.8728835117481
 30
0.0
  0
SEQEND
  5
2BB
  8
LAYER_01
  0
POLYLINE
  5
2BC
  8
LAYER_01
 66
     1
 10
0.0
 20
0.0
 30
0.0
 70
     1
  0
VERTEX
  5
2BD
  8
LAYER_01
 10
2128.691010337215
 20
652.2212592060482
 30
0.0
  0
VERTEX
  5
2BE
  8
LAYER_01
 10
2168.176337311862
 20
639.391698759789
 30
0.0
  0
VERTEX
  5
2BF
  8
LAYER_01
 10
2168.176337311862
 20
594.728314848931
 30
0.0
  0
VERTEX
  5
2C0
  8
LAYER_01
 10
2128.691010337214
 20
540.381424677133
 30
0.0
  0
VERTEX
  5
2C1
  8
LAYER_01
 10
2089.205683362566
 20
594.728314848931
 30
0.0
  0
VERTEX
  5
2C2
  8
LAYER_01
 10
2089.205683362566
 20
639.391698759789
 30
0.0
  0
SEQEND
  5
2C3
  8
LAYER_01
  0
POLYLINE
  5
2C4
  8
LAYER_01
 66
     1
 10
0.0
 20
0.0
 30
0.0
 70
     1
  0
VERTEX
  5
2C5
  8
LAYER_01
 10
2128.691010337215
 20
512.0857243593282
 30
0.0
  0
VERTEX
  5
2C6
  8
LAYER_01
 10
2128.948107099474
 20
512.4944026444723
 30
0.0
  0
VERTEX
  5
2C7
  8
LAYER_01
 10
2142.615623552189
 20
490.4267824132903
 30
0.0
  0
VERTEX
  5
2C8
  8
LAYER_01
 10
2165.571393124301
 20
502.5434449902973
 30
0.0
  0
VERTEX
  5
2C9
  8
LAYER_01
 10
2166.373999463403
 20
476.5985670426689
 30
0.0
  0
VERTEX
  5
2CA
  8
LAYER_01
 10
2192.312610364776
 20
475.6140198573858
 30
0.0
  0
VERTEX
  5
2CB
  8
LAYER_01
 10
2180.035248869863
 20
452.7437932871021
 30
0.0
  0
VERTEX
  5
2CC
  8
LAYER_01
 10
2201.597792971547
 20
439.1789417249947
 30
0.0
  0
VERTEX
  5
2CD
  8
LAYER_01
 10
2180.035248869863
 20
425.6140901628874
 30
0.0
  0
VERTEX
  5
2CE
  8
LAYER_01
 10
2192.312610364776
 20
402.7438635926037
 30
0.0
  0
VERTEX
  5
2CF
  8
LAYER_01
 10
2166.373999463403
 20
401.7593164073205
 30
0.0
  0
VERTEX
  5
2D0
  8
LAYER_01
 10
2165.571393124301
 20
375.8144384596922
 30
0.0
  0
VERTEX
  5
2D1
  8
LAYER_01
 10
2142.615623552189
 20
387.9311010366991
 30
0.0
  0
VERTEX
  5
2D2
  8
LAYER_01
 10
2128.948107099474
 20
365.8634808055176
 30
0.0
  0
VERTEX
  5
2D3
  8
LAYER_01
 10
2128.691010337214
 20
366.2721590906617
 30
0.0
  0
VERTEX
  5
2D4
  8
LAYER_01
 10
2128.433913574953
 20
365.8634808055176
 30
0.0
  0
VERTEX
  5
2D5
  8
LAYER_01
 10
2114.766397122238
 20
387.9311010366991
 30
0.0
  0
VERTEX
  5
2D6
  8
LAYER_01
 10
2091.810627550127
 20
375.8144384596922
 30
0.0
  0
VERTEX
  5
2D7
  8
LAYER_01
 10
2091.008021211024
 20
401.7593164073205
 30
0.0
  0
VERTEX
  5
2D8
  8
LAYER_01
 10
2065.069410309652
 20
402.7438635926037
 30
0.0
  0
VERTEX
  5
2D9
  8
LAYER_01
 10
2077.346771804565
 20
425.6140901628874
 30
0.0
  0
VERTEX
  5
2DA
  8
LAYER_01
 10
2055.78422770288
 20
439.1789417249947
 30
0.0
  0
VERTEX
  5
2DB
  8
LAYER_01
 10
2077.346771804565
 20
452.7437932871021
 30
0.0
  0
VERTEX
  5
2DC
  8
LAYER_01
 10
2065.069410309652
 20
475.6140198573858
 30
0.0
  0
VERTEX
  5
2DD
  8
LAYER_01
 10
2091.008021211024
 20
476.5985670426689
 30
0.0
  0
VERTEX
  5
2DE
  8
LAYER_01
 10
2091.810627550127
 20
502.5434449902973
 30
0.0
  0
VERTEX
  5
2DF
  8
LAYER_01
 10
2114.766397122238
 20
490.4267824132903
 30
0.0
  0
VERTEX
  5
2E0
  8
LAYER_01
 10
2128.433913574953
 20
512.4944026444723
 30
0.0
  0
SEQEND
  5
2E1
  8
LAYER_01
  0
POLYLINE
  5
2E2
  8
LAYER_01
 66
     1
 10
0.0
 20
0.0
 30
0.0
 70
     1
  0
VERTEX
  5
2E3
  8
LAYER_01
 10
2379.137274996361
 20
439.1789417249965
 30
0.0
  0
VERTEX
  5
2E4
  8
LAYER_01
 10
2351.306294624189
 20
477.4849999382418
 30
0.0
  0
VERTEX
  5
2E5
  8
LAYER_01
 10
2351.30629462419
 20
448.9644580620188
 30
0.0
  0
VERTEX
  5
2E6
  8
LAYER_01
 10
2321.189572090972
 20
439.1789417249947
 30
0.0
  0
VERTEX
  5
2E7
  8
LAYER_01
 10
2351.30629462419
 20
429.3934253879706
 30
0.0
  0
VERTEX
  5
2E8
  8
LAYER_01
 10
2351.306294624189
 20
400.8728835117481
 30
0.0
  0
SEQEND
  5
2E9
  8
LAYER_01
  0
POLYLINE
  5
2EA
  8
LAYER_01
 66
     1
 10
0.0
 20
0.0
 30
0.0
 70
     1
  0
VERTEX
  5
2EB
  8
LAYER_01
 10
1878.244745678066
 20
439.1789417249965
 30
0.0
  0
VERTEX
  5
2EC
  8
LAYER_01
 10
1906.075726050239
 20
477.4849999382418
 30
0.0
  0
VERTEX
  5
2ED
  8
LAYER_01
 10
1906.075726050238
 20
448.9644580620188
 30
0.0
  0
VERTEX
  5
2EE
  8
LAYER_01
 10
1936.192448583455
 20
439.1789417249947
 30
0.0
  0
VERTEX
  5
2EF
  8
LAYER_01
 10
1906.075726050238
 20
429.3934253879706
 30
0.0
  0
VERTEX
  5
2F0
  8
LAYER_01
 10
1906.075726050239
 20
400.8728835117481
 30
0.0
  0
SEQEND
  5
2F1
  8
LAYER_01
  0
POLYLINE
  5
2F2
  8
LAYER_01
 66
     1
 10
0.0
 20
0.0
 30
0.0
 70
     1
  0
VERTEX
  5
2F3
  8
LAYER_01
 10
2278.317416794022
 20
577.945571779162
 30
0.0
  0
VERTEX
  5
2F4
  8
LAYER_01
 10
2253.914142666787
 20
611.5337970881906
 30
0.0
  0
VERTEX
  5
2F5
  8
LAYER_01
 10
2214.428815692141
 20
624.3633575344497
 30
0.0
  0
VERTEX
  5
2F6
  8
LAYER_01
 10
2188.176337311861
 20
588.2299209242724
 30
0.0
  0
VERTEX
  5
2F7
  8
LAYER_01
 10
2188.176337311861
 20
521.0534703062153
 30
0.0
  0
VERTEX
  5
2F8
  8
LAYER_01
 10
2252.064938413743
 20
541.8121351689847
 30
0.0
  0
SEQEND
  5
2F9
  8
LAYER_01
  0
POLYLINE
  5
2FA
  8
LAYER_01
 66
     1
 10
0.0
 20
0.0
 30
0.0
 70
     1
  0
VERTEX
  5
2FB
  8
LAYER_01
 10
2359.137274996361
 20
577.3447288949915
 30
0.0
  0
VERTEX
  5
2FC
  8
LAYER_01
 10
2332.012627796712
 20
586.158061023526
 30
0.0
  0
VERTEX
  5
2FD
  8
LAYER_01
 10
2332.012627796713
 20
617.8246570850697
 30
0.0
  0
VERTEX
  5
2FE
  8
LAYER_01
 10
2313.399469641434
 20
592.2058427172738
 30
0.0
  0
VERTEX
  5
2FF
  8
LAYER_01
 10
2286.274822441785
 20
601.0191748458087
 30
0.0
  0
VERTEX
  5
300
  8
LAYER_01
 10
2303.038776344018
 20
577.945571779162
 30
0.0
  0
VERTEX
  5
301
  8
LAYER_01
 10
2284.42561818874
 20
552.3267574113661
 30
0.0
  0
VERTEX
  5
302
  8
LAYER_01
 10
2314.542340721957
 20
562.1122737483911
 30
0.0
  0
VERTEX
  5
303
  8
LAYER_01
 10
2331.30629462419
 20
539.0386706817453
 30
0.0
  0
VERTEX
  5
304
  8
LAYER_01
 10
2331.30629462419
 20
568.3018952066004
 30
0.0
  0
SEQEND
  5
305
  8
LAYER_01
  0
POLYLINE
  5
306
  8
LAYER_01
 66
     1
 10
0.0
 20
0.0
 30
0.0
 70
     1
  0
VERTEX
  5
307
  8
LAYER_01
 10
2331.30629462419
 20
505.0126383476641
 30
0.0
  0
VERTEX
  5
308
  8
LAYER_01
 10
2306.903020496955
 20
538.6008636566921
 30
0.0
  0
VERTEX
  5
309
  8
LAYER_01
 10
2264.425618188741
 20
524.7991190019438
 30
0.0
  0
VERTEX
  5
30A
  8
LAYER_01
 10
2224.940291214094
 20
470.4522288301469
 30
0.0
  0
VERTEX
  5
30B
  8
LAYER_01
 10
2288.828892315976
 20
449.6935639673779
 30
0.0
  0
VERTEX
  5
30C
  8
LAYER_01
 10
2331.30629462419
 20
463.4953086221262
 30
0.0
  0
SEQEND
  5
30D
  8
LAYER_01
  0
POLYLINE
  5
30E
  8
LAYER_01
 66
     1
 10
0.0
 20
0.0
 30
0.0
 70
     1
  0
VERTEX
  5
30F
  8
LAYER_01
 10
1979.064603880405
 20
577.945571779162
 30
0.0
  0
VERTEX
  5
310
  8
LAYER_01
 10
2003.46787800764
 20
611.5337970881906
 30
0.0
  0
VERTEX
  5
311
  8
LAYER_01
 10
2042.953204982286
 20
624.3633575344497
 30
0.0
  0
VERTEX
  5
312
  8
LAYER_01
 10
2069.205683362567
 20
588.2299209242724
 30
0.0
  0
VERTEX
  5
313
  8
LAYER_01
 10
2069.205683362567
 20
521.0534703062153
 30
0.0
  0
VERTEX
  5
314
  8
LAYER_01
 10
2005.317082260684
 20
541.8121351689847
 30
0.0
  0
SEQEND
  5
315
  8
LAYER_01
  0
POLYLINE
  5
316
  8
LAYER_01
 66
     1
 10
0.0
 20
0.0
 30
0.0
 70
     1
  0
VERTEX
  5
317
  8
LAYER_01
 10
1898.244745678066
 20
577.3447288949915
 30
0.0
  0
VERTEX
  5
318
  8
LAYER_01
 10
1925.369392877716
 20
586.158061023526
 30
0.0
  0
VERTEX
  5
319
  8
LAYER_01
 10
1925.369392877715
 20
617.8246570850697
 30
0.0
  0
VERTEX
  5
31A
  8
LAYER_01
 10
1943.982551032994
 20
592.2058427172738
 30
0.0
  0
VERTEX
  5
31B
  8
LAYER_01
 10
1971.107198232643
 20
601.0191748458087
 30
0.0
  0
VERTEX
  5
31C
  8
LAYER_01
 10
1954.34324433041
 20
577.945571779162
 30
0.0
  0
VERTEX
  5
31D
  8
LAYER_01
 10
1972.956402485687
 20
552.3267574113661
 30
0.0
  0
VERTEX
  5
31E
  8
LAYER_01
 10
1942.839679952471
 20
562.1122737483911
 30
0.0
  0
VERTEX
  5
31F
  8
LAYER_01
 10
1926.075726050238
 20
539.0386706817453
 30
0.0
  0
VERTEX
  5
320
  8
LAYER_01
 10
1926.075726050238
 20
568.3018952066004
 30
0.0
  0
SEQEND
  5
321
  8
LAYER_01
  0
POLYLINE
  5
322
  8
LAYER_01
 66
     1
 10
0.0
 20
0.0
 30
0.0
 70
     1
  0
VERTEX
  5
323
  8
LAYER_01
 10
1926.075726050238
 20
505.0126383476641
 30
0.0
  0
VERTEX
  5
324
  8
LAYER_01
 10
1950.479000177473
 20
538.6008636566921
 30
0.0
  0
VERTEX
  5
325
  8
LAYER_01
 10
1992.956402485686
 20
524.7991190019438
 30
0.0
  0
VERTEX
  5
326
  8
LAYER_01
 10
2032.441729460334
 20
470.4522288301469
 30
0.0
  0
VERTEX
  5
327
  8
LAYER_01
 10
1968.553128358451
 20
449.6935639673779
 30
0.0
  0
VERTEX
  5
328
  8
LAYER_01
 10
1926.075726050238
 20
463.4953086221262
 30
0.0
  0
SEQEND
  5
329
  8
LAYER_01
  0
POLYLINE
  5
32A
  8
LAYER_01
 66
     1
 10
0.0
 20
0.0
 30
0.0
 70
     1
  0
VERTEX
  5
32B
  8
LAYER_01
 10
2331.30629462419
 20
373.3452451023259
 30
0.0
  0
VERTEX
  5
32C
  8
LAYER_01
 10
2306.903020496955
 20
339.7570197932973
 30
0.0
  0
VERTEX
  5
32D
  8
LAYER_01
 10
2264.425618188741
 20
353.5587644480456
 30
0.0
  0
VERTEX
  5
32E
  8
LAYER_01
 10
2224.940291214094
 20
407.9056546198426
 30
0.0
  0
VERTEX
  5
32F
  8
LAYER_01
 10
2288.828892315976
 20
428.6643194826115
 30
0.0
  0
VERTEX
  5
330
  8
LAYER_01
 10
2331.30629462419
 20
414.8625748278632
 30
0.0
  0
SEQEND
  5
331
  8
LAYER_01
  0
POLYLINE
  5
332
  8
LAYER_01
 66
     1
 10
0.0
 20
0.0
 30
0.0
 70
     1
  0
VERTEX
  5
333
  8
LAYER_01
 10
1926.075726050238
 20
373.3452451023259
 30
0.0
  0
VERTEX
  5
334
  8
LAYER_01
 10
1950.479000177473
 20
339.7570197932973
 30
0.0
  0
VERTEX
  5
335
  8
LAYER_01
 10
1992.956402485686
 20
353.5587644480456
 30
0.0
  0
VERTEX
  5
336
  8
LAYER_01
 10
2032.441729460334
 20
407.9056546198426
 30
0.0
  0
VERTEX
  5
337
  8
LAYER_01
 10
1968.553128358451
 20
428.6643194826115
 30
0.0
  0
VERTEX
  5
338
  8
LAYER_01
 10
1926.075726050238
 20
414.8625748278632
 30
0.0
  0
SEQEND
  5
339
  8
LAYER_01
  0
POLYLINE
  5
33A
  8
LAYER_01
 66
     1
 10
0.0
 20
0.0
 30
0.0
 70
     1
  0
VERTEX
  5
33B
  8
LAYER_01
 10
2465.426697211477
 20
1205.214319705633
 30
0.0
 42
0.0266724390636573
  0
VERTEX
  5
33C
  8
LAYER_01
 10
2450.98328174601
 20
1240.395114108506
 30
0.0
  0
VERTEX
  5
33D
  8
LAYER_01
 10
2450.98328174601
 20
1292.270426240212
 30
0.0
  0
VERTEX
  5
33E
  8
LAYER_01
 10
2483.691010337215
 20
1281.643041001889
 30
0.0
  0
VERTEX
  5
33F
  8
LAYER_01
 10
2483.691010337215
 20
1191.057976949619
 30
0.0
  0
VERTEX
  5
340
  8
LAYER_01
 10
2477.23576012629
 20
1188.960539011979
 30
0.0
  0
SEQEND
  5
341
  8
LAYER_01
  0
POLYLINE
  5
342
  8
LAYER_01
 66
     1
 10
0.0
 20
0.0
 30
0.0
 70
     1
  0
VERTEX
  5
343
  8
LAYER_01
 10
2483.691010337214
 20
1721.949198496201
 30
0.0
  0
VERTEX
  5
344
  8
LAYER_01
 10
2451.689614918532
 20
1711.551314817733
 30
0.0
  0
VERTEX
  5
345
  8
LAYER_01
 10
2451.689614918532
 20
1670.033985092195
 30
0.0
  0
VERTEX
  5
346
  8
LAYER_01
 10
2476.092889045767
 20
1636.445759783167
 30
0.0
  0
VERTEX
  5
347
  8
LAYER_01
 10
2483.691010337215
 20
1638.914539045125
 30
0.0
  0
SEQEND
  5
348
  8
LAYER_01
  0
POLYLINE
  5
349
  8
LAYER_01
 66
     1
 10
0.0
 20
0.0
 30
0.0
 70
     1
  0
VERTEX
  5
34A
  8
LAYER_01
 10
1791.95532346295
 20
1205.214319705628
 30
0.0
 42
-0.0266724390636643
  0
VERTEX
  5
34B
  8
LAYER_01
 10
1806.398738928422
 20
1240.395114108511
 30
0.0
  0
VERTEX
  5
34C
  8
LAYER_01
 10
1806.398738928421
 20
1292.270426240212
 30
0.0
  0
VERTEX
  5
34D
  8
LAYER_01
 10
1773.691010337215
 20
1281.643041001888
 30
0.0
  0
VERTEX
  5
34E
  8
LAYER_01
 10
1773.691010337214
 20
1191.05797694962
 30
0.0
  0
VERTEX
  5
34F
  8
LAYER_01
 10
1780.146260548141
 20
1188.960539011979
 30
0.0
  0
SEQEND
  5
350
  8
LAYER_01
  0
POLYLINE
  5
351
  8
LAYER_01
 66
     1
 10
0.0
 20
0.0
 30
0.0
 70
     1
  0
VERTEX
  5
352
  8
LAYER_01
 10
1773.691010337214
 20
1721.949198496201
 30
0.0
  0
VERTEX
  5
353
  8
LAYER_01
 10
1805.692405755899
 20
1711.551314817733
 30
0.0
  0
VERTEX
  5
354
  8
LAYER_01
 10
1805.692405755899
 20
1670.033985092195
 30
0.0
  0
VERTEX
  5
355
  8
LAYER_01
 10
1781.289131628664
 20
1636.445759783167
 30
0.0
  0
VERTEX
  5
356
  8
LAYER_01
 10
1773.691010337215
 20
1638.914539045125
 30
0.0
  0
SEQEND
  5
357
  8
LAYER_01
  0
POLYLINE
  5
358
  8
LAYER_01
 66
     1
 10
0.0
 20
0.0
 30
0.0
 70
     1
  0
VERTEX
  5
359
  8
LAYER_01
 10
2394.561896213174
 20
1862.52331171993
 30
0.0
  0
VERTEX
  5
35A
  8
LAYER_01
 10
2431.689614918534
 20
1850.459784636363
 30
0.0
  0
VERTEX
  5
35B
  8
LAYER_01
 10
2431.689614918533
 20
1808.199772262193
 30
0.0
  0
VERTEX
  5
35C
  8
LAYER_01
 10
2391.497954771361
 20
1752.880697881905
 30
0.0
  0
VERTEX
  5
35D
  8
LAYER_01
 10
2351.306294624189
 20
1808.199772262193
 30
0.0
  0
VERTEX
  5
35E
  8
LAYER_01
 10
2351.306294624188
 20
1850.459784636363
 30
0.0
  0
VERTEX
  5
35F
  8
LAYER_01
 10
2388.434013329551
 20
1862.52331171993
 30
0.0
  0
SEQEND
  5
360
  8
LAYER_01
  0
POLYLINE
  5
361
  8
LAYER_01
 66
     1
 10
0.0
 20
0.0
 30
0.0
 70
     1
  0
VERTEX
  5
362
  8
LAYER_01
 10
1963.142400922757
 20
1862.52331171993
 30
0.0
  0
VERTEX
  5
363
  8
LAYER_01
 10
1972.956402485687
 20
1849.015497401235
 30
0.0
  0
VERTEX
  5
364
  8
LAYER_01
 10
1942.839679952471
 20
1858.801013738261
 30
0.0
  0
VERTEX
  5
365
  8
LAYER_01
 10
1926.075726050238
 20
1835.727410671615
 30
0.0
  0
VERTEX
  5
366
  8
LAYER_01
 10
1926.075726050238
 20
1862.52331171993
 30
0.0
  0
SEQEND
  5
367
  8
LAYER_01
  0
POLYLINE
  5
368
  8
LAYER_01
 66
     1
 10
0.0
 20
0.0
 30
0.0
 70
     1
  0
VERTEX
  5
369
  8
LAYER_01
 10
1862.820124461257
 20
1862.52331171993
 30
0.0
  0
VERTEX
  5
36A
  8
LAYER_01
 10
1825.692405755897
 20
1850.459784636363
 30
0.0
  0
VERTEX
  5
36B
  8
LAYER_01
 10
1825.692405755898
 20
1808.199772262193
 30
0.0
  0
VERTEX
  5
36C
  8
LAYER_01
 10
1865.884065903067
 20
1752.880697881905
 30
0.0
  0
VERTEX
  5
36D
  8
LAYER_01
 10
1906.075726050239
 20
1808.199772262193
 30
0.0
  0
VERTEX
  5
36E
  8
LAYER_01
 10
1906.07572605024
 20
1850.459784636363
 30
0.0
  0
VERTEX
  5
36F
  8
LAYER_01
 10
1868.94800734488
 20
1862.52331171993
 30
0.0
  0
SEQEND
  5
370
  8
LAYER_01
  0
POLYLINE
  5
371
  8
LAYER_01
 66
     1
 10
0.0
 20
0.0
 30
0.0
 70
     1
  0
VERTEX
  5
372
  8
LAYER_01
 10
1773.691010337215
 20
1591.961810673989
 30
0.0
  0
VERTEX
  5
373
  8
LAYER_01
 10
1777.424887475727
 20
1597.101051660697
 30
0.0
  0
VERTEX
  5
374
  8
LAYER_01
 10
1773.691010337215
 20
1602.240292647406
 30
0.0
  0
VERTEX
  5
375
  8
LAYER_01
 10
1773.691010337215
 20
1617.885294560361
 30
0.0
  0
VERTEX
  5
376
  8
LAYER_01
 10
1788.928451853666
 20
1612.934349691468
 30
0.0
  0
VERTEX
  5
377
  8
LAYER_01
 10
1805.692405755899
 20
1636.007952758114
 30
0.0
  0
VERTEX
  5
378
  8
LAYER_01
 10
1805.692405755899
 20
1606.744728233259
 30
0.0
  0
VERTEX
  5
379
  8
LAYER_01
 10
1833.52338612807
 20
1597.701894544868
 30
0.0
  0
VERTEX
  5
37A
  8
LAYER_01
 10
1806.398738928421
 20
1588.888562416333
 30
0.0
  0
VERTEX
  5
37B
  8
LAYER_01
 10
1806.398738928422
 20
1557.221966354789
 30
0.0
  0
VERTEX
  5
37C
  8
LAYER_01
 10
1787.785580773143
 20
1582.840780722585
 30
0.0
  0
VERTEX
  5
37D
  8
LAYER_01
 10
1773.691010337215
 20
1578.26117717801
 30
0.0
  0
SEQEND
  5
37E
  8
LAYER_01
  0
POLYLINE
  5
37F
  8
LAYER_01
 66
     1
 10
0.0
 20
0.0
 30
0.0
 70
     1
  0
VERTEX
  5
380
  8
LAYER_01
 10
1773.691010337215
 20
1853.850068869368
 30
0.0
  0
VERTEX
  5
381
  8
LAYER_01
 10
1788.928451853666
 20
1858.801013738261
 30
0.0
  0
VERTEX
  5
382
  8
LAYER_01
 10
1805.692405755899
 20
1835.727410671615
 30
0.0
  0
VERTEX
  5
383
  8
LAYER_01
 10
1805.692405755899
 20
1862.52331171993
 30
0.0
  0
VERTEX
  5
384
  8
LAYER_01
 10
1773.691010337215
 20
1862.52331171993
 30
0.0
  0
SEQEND
  5
385
  8
LAYER_01
  0
POLYLINE
  5
386
  8
LAYER_01
 66
     1
 10
0.0
 20
0.0
 30
0.0
 70
     1
  0
VERTEX
  5
387
  8
LAYER_01
 10
1773.691010337215
 20
1749.786164933528
 30
0.0
  0
VERTEX
  5
388
  8
LAYER_01
 10
1805.692405755899
 20
1760.184048611996
 30
0.0
  0
VERTEX
  5
389
  8
LAYER_01
 10
1805.692405755899
 20
1801.701378337533
 30
0.0
  0
VERTEX
  5
38A
  8
LAYER_01
 10
1781.289131628664
 20
1835.289603646562
 30
0.0
  0
VERTEX
  5
38B
  8
LAYER_01
 10
1773.691010337215
 20
1832.820824384603
 30
0.0
  0
SEQEND
  5
38C
  8
LAYER_01
  0
POLYLINE
  5
38D
  8
LAYER_01
 66
     1
 10
0.0
 20
0.0
 30
0.0
 70
     1
  0
VERTEX
  5
38E
  8
LAYER_01
 10
2483.691010337215
 20
1591.961810673991
 30
0.0
  0
VERTEX
  5
38F
  8
LAYER_01
 10
2479.957133198704
 20
1597.101051660697
 30
0.0
  0
VERTEX
  5
390
  8
LAYER_01
 10
2483.691010337215
 20
1602.240292647404
 30
0.0
  0
VERTEX
  5
391
  8
LAYER_01
 10
2483.691010337215
 20
1617.88529456036
 30
0.0
  0
VERTEX
  5
392
  8
LAYER_01
 10
2468.453568820765
 20
1612.934349691468
 30
0.0
  0
VERTEX
  5
393
  8
LAYER_01
 10
2451.689614918532
 20
1636.007952758114
 30
0.0
  0
VERTEX
  5
394
  8
LAYER_01
 10
2451.689614918532
 20
1606.744728233259
 30
0.0
  0
VERTEX
  5
395
  8
LAYER_01
 10
2423.858634546361
 20
1597.701894544868
 30
0.0
  0
VERTEX
  5
396
  8
LAYER_01
 10
2450.98328174601
 20
1588.888562416333
 30
0.0
  0
VERTEX
  5
397
  8
LAYER_01
 10
2450.983281746009
 20
1557.221966354789
 30
0.0
  0
VERTEX
  5
398
  8
LAYER_01
 10
2469.596439901288
 20
1582.840780722585
 30
0.0
  0
VERTEX
  5
399
  8
LAYER_01
 10
2483.691010337215
 20
1578.26117717801
 30
0.0
  0
SEQEND
  5
39A
  8
LAYER_01
  0
POLYLINE
  5
39B
  8
LAYER_01
 66
     1
 10
0.0
 20
0.0
 30
0.0
 70
     1
  0
VERTEX
  5
39C
  8
LAYER_01
 10
2483.691010337215
 20
1853.850068869368
 30
0.0
  0
VERTEX
  5
39D
  8
LAYER_01
 10
2468.453568820765
 20
1858.801013738261
 30
0.0
  0
VERTEX
  5
39E
  8
LAYER_01
 10
2451.689614918532
 20
1835.727410671615
 30
0.0
  0
VERTEX
  5
39F
  8
LAYER_01
 10
2451.689614918532
 20
1862.52331171993
 30
0.0
  0
VERTEX
  5
3A0
  8
LAYER_01
 10
2483.691010337215
 20
1862.52331171993
 30
0.0
  0
SEQEND
  5
3A1
  8
LAYER_01
  0
POLYLINE
  5
3A2
  8
LAYER_01
 66
     1
 10
0.0
 20
0.0
 30
0.0
 70
     1
  0
VERTEX
  5
3A3
  8
LAYER_01
 10
2483.691010337214
 20
1749.786164933528
 30
0.0
  0
VERTEX
  5
3A4
  8
LAYER_01
 10
2451.689614918532
 20
1760.184048611996
 30
0.0
  0
VERTEX
  5
3A5
  8
LAYER_01
 10
2451.689614918532
 20
1801.701378337533
 30
0.0
  0
VERTEX
  5
3A6
  8
LAYER_01
 10
2476.092889045767
 20
1835.289603646562
 30
0.0
  0
VERTEX
  5
3A7
  8
LAYER_01
 10
2483.691010337215
 20
1832.820824384604
 30
0.0
  0
SEQEND
  5
3A8
  8
LAYER_01
  0
POLYLINE
  5
3A9
  8
LAYER_01
 66
     1
 10
0.0
 20
0.0
 30
0.0
 70
     1
  0
VERTEX
  5
3AA
  8
LAYER_01
 10
2147.18380414274
 20
1862.52331171993
 30
0.0
  0
VERTEX
  5
3AB
  8
LAYER_01
 10
2128.691010337214
 20
1837.070164667003
 30
0.0
  0
VERTEX
  5
3AC
  8
LAYER_01
 10
2110.198216531688
 20
1862.52331171993
 30
0.0
  0
SEQEND
  5
3AD
  8
LAYER_01
  0
POLYLINE
  5
3AE
  8
LAYER_01
 66
     1
 10
0.0
 20
0.0
 30
0.0
 70
     1
  0
VERTEX
  5
3AF
  8
LAYER_01
 10
2188.176337311861
 20
1862.52331171993
 30
0.0
  0
VERTEX
  5
3B0
  8
LAYER_01
 10
2188.176337311861
 20
1817.742210296085
 30
0.0
  0
VERTEX
  5
3B1
  8
LAYER_01
 10
2252.064938413743
 20
1838.500875158854
 30
0.0
  0
VERTEX
  5
3B2
  8
LAYER_01
 10
2269.518260201675
 20
1862.52331171993
 30
0.0
  0
SEQEND
  5
3B3
  8
LAYER_01
  0
POLYLINE
  5
3B4
  8
LAYER_01
 66
     1
 10
0.0
 20
0.0
 30
0.0
 70
     1
  0
VERTEX
  5
3B5
  8
LAYER_01
 10
2294.239619751671
 20
1862.523311719929
 30
0.0
  0
VERTEX
  5
3B6
  8
LAYER_01
 10
2284.42561818874
 20
1849.015497401235
 30
0.0
  0
VERTEX
  5
3B7
  8
LAYER_01
 10
2314.542340721957
 20
1858.801013738261
 30
0.0
  0
VERTEX
  5
3B8
  8
LAYER_01
 10
2331.30629462419
 20
1835.727410671615
 30
0.0
  0
VERTEX
  5
3B9
  8
LAYER_01
 10
2331.30629462419
 20
1862.52331171993
 30
0.0
  0
SEQEND
  5
3BA
  8
LAYER_01
  0
POLYLINE
  5
3BB
  8
LAYER_01
 66
     1
 10
0.0
 20
0.0
 30
0.0
 70
     1
  0
VERTEX
  5
3BC
  8
LAYER_01
 10
2069.205683362567
 20
1862.52331171993
 30
0.0
  0
VERTEX
  5
3BD
  8
LAYER_01
 10
2069.205683362567
 20
1817.742210296085
 30
0.0
  0
VERTEX
  5
3BE
  8
LAYER_01
 10
2005.317082260684
 20
1838.500875158854
 30
0.0
  0
VERTEX
  5
3BF
  8
LAYER_01
 10
1987.863760472753
 20
1862.52331171993
 30
0.0
  0
SEQEND
  5
3C0
  8
LAYER_01
  0
POLYLINE
  5
3C1
  8
LAYER_01
 66
     1
 10
0.0
 20
0.0
 30
0.0
 70
     1
  0
VERTEX
  5
3C2
  8
LAYER_01
 10
1865.884065903067
 20
1718.854665547824
 30
0.0
  0
VERTEX
  5
3C3
  8
LAYER_01
 10
1906.075726050239
 20
1663.535591167535
 30
0.0
  0
VERTEX
  5
3C4
  8
LAYER_01
 10
1906.07572605024
 20
1621.275578793366
 30
0.0
  0
VERTEX
  5
3C5
  8
LAYER_01
 10
1865.884065903068
 20
1608.21651678725
 30
0.0
  0
VERTEX
  5
3C6
  8
LAYER_01
 10
1825.692405755897
 20
1621.275578793366
 30
0.0
  0
VERTEX
  5
3C7
  8
LAYER_01
 10
1825.692405755898
 20
1663.535591167535
 30
0.0
  0
SEQEND
  5
3C8
  8
LAYER_01
  0
POLYLINE
  5
3C9
  8
LAYER_01
 66
     1
 10
0.0
 20
0.0
 30
0.0
 70
     1
  0
VERTEX
  5
3CA
  8
LAYER_01
 10
1853.52338612807
 20
1735.867681714863
 30
0.0
  0
VERTEX
  5
3CB
  8
LAYER_01
 10
1825.692405755898
 20
1697.561623501617
 30
0.0
  0
VERTEX
  5
3CC
  8
LAYER_01
 10
1825.692405755899
 20
1726.08216537784
 30
0.0
  0
VERTEX
  5
3CD
  8
LAYER_01
 10
1795.575683222682
 20
1735.867681714864
 30
0.0
  0
VERTEX
  5
3CE
  8
LAYER_01
 10
1825.692405755899
 20
1745.653198051888
 30
0.0
  0
VERTEX
  5
3CF
  8
LAYER_01
 10
1825.692405755898
 20
1774.173739928111
 30
0.0
  0
SEQEND
  5
3D0
  8
LAYER_01
  0
POLYLINE
  5
3D1
  8
LAYER_01
 66
     1
 10
0.0
 20
0.0
 30
0.0
 70
     1
  0
VERTEX
  5
3D2
  8
LAYER_01
 10
2391.497954771363
 20
1608.21651678725
 30
0.0
  0
VERTEX
  5
3D3
  8
LAYER_01
 10
2431.689614918534
 20
1621.275578793366
 30
0.0
  0
VERTEX
  5
3D4
  8
LAYER_01
 10
2431.689614918533
 20
1663.535591167535
 30
0.0
  0
VERTEX
  5
3D5
  8
LAYER_01
 10
2391.497954771361
 20
1718.854665547824
 30
0.0
  0
VERTEX
  5
3D6
  8
LAYER_01
 10
2351.306294624189
 20
1663.535591167535
 30
0.0
  0
VERTEX
  5
3D7
  8
LAYER_01
 10
2351.306294624188
 20
1621.275578793366
 30
0.0
  0
SEQEND
  5
3D8
  8
LAYER_01
  0
POLYLINE
  5
3D9
  8
LAYER_01
 66
     1
 10
0.0
 20
0.0
 30
0.0
 70
     1
  0
VERTEX
  5
3DA
  8
LAYER_01
 10
2403.858634546361
 20
1735.867681714863
 30
0.0
  0
VERTEX
  5
3DB
  8
LAYER_01
 10
2431.689614918533
 20
1697.561623501617
 30
0.0
  0
VERTEX
  5
3DC
  8
LAYER_01
 10
2431.689614918532
 20
1726.08216537784
 30
0.0
  0
VERTEX
  5
3DD
  8
LAYER_01
 10
2461.80633745175
 20
1735.867681714864
 30
0.0
  0
VERTEX
  5
3DE
  8
LAYER_01
 10
2431.689614918532
 20
1745.653198051888
 30
0.0
  0
VERTEX
  5
3DF
  8
LAYER_01
 10
2431.689614918533
 20
1774.173739928111
 30
0.0
  0
SEQEND
  5
3E0
  8
LAYER_01
  0
POLYLINE
  5
3E1
  8
LAYER_01
 66
     1
 10
0.0
 20
0.0
 30
0.0
 70
     1
  0
VERTEX
  5
3E2
  8
LAYER_01
 10
2128.691010337215
 20
1522.825364233811
 30
0.0
  0
VERTEX
  5
3E3
  8
LAYER_01
 10
2168.176337311862
 20
1535.65492468007
 30
0.0
  0
VERTEX
  5
3E4
  8
LAYER_01
 10
2168.176337311862
 20
1580.318308590928
 30
0.0
  0
VERTEX
  5
3E5
  8
LAYER_01
 10
2128.691010337214
 20
1634.665198762726
 30
0.0
  0
VERTEX
  5
3E6
  8
LAYER_01
 10
2089.205683362566
 20
1580.318308590928
 30
0.0
  0
VERTEX
  5
3E7
  8
LAYER_01
 10
2089.205683362566
 20
1535.65492468007
 30
0.0
  0
SEQEND
  5
3E8
  8
LAYER_01
  0
POLYLINE
  5
3E9
  8
LAYER_01
 66
     1
 10
0.0
 20
0.0
 30
0.0
 70
     1
  0
VERTEX
  5
3EA
  8
LAYER_01
 10
2128.691010337215
 20
1662.960899080531
 30
0.0
  0
VERTEX
  5
3EB
  8
LAYER_01
 10
2128.948107099474
 20
1662.552220795387
 30
0.0
  0
VERTEX
  5
3EC
  8
LAYER_01
 10
2142.615623552189
 20
1684.619841026569
 30
0.0
  0
VERTEX
  5
3ED
  8
LAYER_01
 10
2165.571393124301
 20
1672.503178449562
 30
0.0
  0
VERTEX
  5
3EE
  8
LAYER_01
 10
2166.373999463403
 20
1698.44805639719
 30
0.0
  0
VERTEX
  5
3EF
  8
LAYER_01
 10
2192.312610364776
 20
1699.432603582473
 30
0.0
  0
VERTEX
  5
3F0
  8
LAYER_01
 10
2180.035248869863
 20
1722.302830152757
 30
0.0
  0
VERTEX
  5
3F1
  8
LAYER_01
 10
2201.597792971547
 20
1735.867681714864
 30
0.0
  0
VERTEX
  5
3F2
  8
LAYER_01
 10
2180.035248869863
 20
1749.432533276972
 30
0.0
  0
VERTEX
  5
3F3
  8
LAYER_01
 10
2192.312610364776
 20
1772.302759847255
 30
0.0
  0
VERTEX
  5
3F4
  8
LAYER_01
 10
2166.373999463403
 20
1773.287307032539
 30
0.0
  0
VERTEX
  5
3F5
  8
LAYER_01
 10
2165.571393124301
 20
1799.232184980167
 30
0.0
  0
VERTEX
  5
3F6
  8
LAYER_01
 10
2142.615623552189
 20
1787.11552240316
 30
0.0
  0
VERTEX
  5
3F7
  8
LAYER_01
 10
2128.948107099474
 20
1809.183142634341
 30
0.0
  0
VERTEX
  5
3F8
  8
LAYER_01
 10
2128.691010337214
 20
1808.774464349197
 30
0.0
  0
VERTEX
  5
3F9
  8
LAYER_01
 10
2128.433913574953
 20
1809.183142634341
 30
0.0
  0
VERTEX
  5
3FA
  8
LAYER_01
 10
2114.766397122238
 20
1787.11552240316
 30
0.0
  0
VERTEX
  5
3FB
  8
LAYER_01
 10
2091.810627550127
 20
1799.232184980167
 30
0.0
  0
VERTEX
  5
3FC
  8
LAYER_01
 10
2091.008021211024
 20
1773.287307032539
 30
0.0
  0
VERTEX
  5
3FD
  8
LAYER_01
 10
2065.069410309652
 20
1772.302759847255
 30
0.0
  0
VERTEX
  5
3FE
  8
LAYER_01
 10
2077.346771804565
 20
1749.432533276972
 30
0.0
  0
VERTEX
  5
3FF
  8
LAYER_01
 10
2055.78422770288
 20
1735.867681714864
 30
0.0
  0
VERTEX
  5
400
  8
LAYER_01
 10
2077.346771804565
 20
1722.302830152757
 30
0.0
  0
VERTEX
  5
401
  8
LAYER_01
 10
2065.069410309652
 20
1699.432603582473
 30
0.0
  0
VERTEX
  5
402
  8
LAYER_01
 10
2091.008021211024
 20
1698.44805639719
 30
0.0
  0
VERTEX
  5
403
  8
LAYER_01
 10
2091.810627550127
 20
1672.503178449562
 30
0.0
  0
VERTEX
  5
404
  8
LAYER_01
 10
2114.766397122238
 20
1684.619841026569
 30
0.0
  0
VERTEX
  5
405
  8
LAYER_01
 10
2128.433913574953
 20
1662.552220795387
 30
0.0
  0
SEQEND
  5
406
  8
LAYER_01
  0
POLYLINE
  5
407
  8
LAYER_01
 66
     1
 10
0.0
 20
0.0
 30
0.0
 70
     1
  0
VERTEX
  5
408
  8
LAYER_01
 10
2379.137274996361
 20
1735.867681714863
 30
0.0
  0
VERTEX
  5
409
  8
LAYER_01
 10
2351.306294624189
 20
1697.561623501617
 30
0.0
  0
VERTEX
  5
40A
  8
LAYER_01
 10
2351.30629462419
 20
1726.08216537784
 30
0.0
  0
VERTEX
  5
40B
  8
LAYER_01
 10
2321.189572090972
 20
1735.867681714864
 30
0.0
  0
VERTEX
  5
40C
  8
LAYER_01
 10
2351.30629462419
 20
1745.653198051888
 30
0.0
  0
VERTEX
  5
40D
  8
LAYER_01
 10
2351.306294624189
 20
1774.173739928111
 30
0.0
  0
SEQEND
  5
40E
  8
LAYER_01
  0
POLYLINE
  5
40F
  8
LAYER_01
 66
     1
 10
0.0
 20
0.0
 30
0.0
 70
     1
  0
VERTEX
  5
410
  8
LAYER_01
 10
1878.244745678066
 20
1735.867681714863
 30
0.0
  0
VERTEX
  5
411
  8
LAYER_01
 10
1906.075726050239
 20
1697.561623501617
 30
0.0
  0
VERTEX
  5
412
  8
LAYER_01
 10
1906.075726050238
 20
1726.08216537784
 30
0.0
  0
VERTEX
  5
413
  8
LAYER_01
 10
1936.192448583455
 20
1735.867681714864
 30
0.0
  0
VERTEX
  5
414
  8
LAYER_01
 10
1906.075726050238
 20
1745.653198051888
 30
0.0
  0
VERTEX
  5
415
  8
LAYER_01
 10
1906.075726050239
 20
1774.173739928111
 30
0.0
  0
SEQEND
  5
416
  8
LAYER_01
  0
POLYLINE
  5
417
  8
LAYER_01
 66
     1
 10
0.0
 20
0.0
 30
0.0
 70
     1
  0
VERTEX
  5
418
  8
LAYER_01
 10
2278.317416794022
 20
1597.101051660697
 30
0.0
  0
VERTEX
  5
419
  8
LAYER_01
 10
2253.914142666787
 20
1563.512826351669
 30
0.0
  0
VERTEX
  5
41A
  8
LAYER_01
 10
2214.428815692141
 20
1550.683265905409
 30
0.0
  0
VERTEX
  5
41B
  8
LAYER_01
 10
2188.176337311861
 20
1586.816702515587
 30
0.0
  0
VERTEX
  5
41C
  8
LAYER_01
 10
2188.176337311861
 20
1653.993153133644
 30
0.0
  0
VERTEX
  5
41D
  8
LAYER_01
 10
2252.064938413743
 20
1633.234488270874
 30
0.0
  0
SEQEND
  5
41E
  8
LAYER_01
  0
POLYLINE
  5
41F
  8
LAYER_01
 66
     1
 10
0.0
 20
0.0
 30
0.0
 70
     1
  0
VERTEX
  5
420
  8
LAYER_01
 10
2359.137274996361
 20
1597.701894544868
 30
0.0
  0
VERTEX
  5
421
  8
LAYER_01
 10
2332.012627796712
 20
1588.888562416333
 30
0.0
  0
VERTEX
  5
422
  8
LAYER_01
 10
2332.012627796713
 20
1557.221966354789
 30
0.0
  0
VERTEX
  5
423
  8
LAYER_01
 10
2313.399469641434
 20
1582.840780722585
 30
0.0
  0
VERTEX
  5
424
  8
LAYER_01
 10
2286.274822441785
 20
1574.02744859405
 30
0.0
  0
VERTEX
  5
425
  8
LAYER_01
 10
2303.038776344018
 20
1597.101051660697
 30
0.0
  0
VERTEX
  5
426
  8
LAYER_01
 10
2284.42561818874
 20
1622.719866028493
 30
0.0
  0
VERTEX
  5
427
  8
LAYER_01
 10
2314.542340721957
 20
1612.934349691468
 30
0.0
  0
VERTEX
  5
428
  8
LAYER_01
 10
2331.30629462419
 20
1636.007952758114
 30
0.0
  0
VERTEX
  5
429
  8
LAYER_01
 10
2331.30629462419
 20
1606.744728233259
 30
0.0
  0
SEQEND
  5
42A
  8
LAYER_01
  0
POLYLINE
  5
42B
  8
LAYER_01
 66
     1
 10
0.0
 20
0.0
 30
0.0
 70
     1
  0
VERTEX
  5
42C
  8
LAYER_01
 10
2331.30629462419
 20
1670.033985092195
 30
0.0
  0
VERTEX
  5
42D
  8
LAYER_01
 10
2306.903020496955
 20
1636.445759783167
 30
0.0
  0
VERTEX
  5
42E
  8
LAYER_01
 10
2264.425618188741
 20
1650.247504437915
 30
0.0
  0
VERTEX
  5
42F
  8
LAYER_01
 10
2224.940291214094
 20
1704.594394609712
 30
0.0
  0
VERTEX
  5
430
  8
LAYER_01
 10
2288.828892315976
 20
1725.353059472481
 30
0.0
  0
VERTEX
  5
431
  8
LAYER_01
 10
2331.30629462419
 20
1711.551314817733
 30
0.0
  0
SEQEND
  5
432
  8
LAYER_01
  0
POLYLINE
  5
433
  8
LAYER_01
 66
     1
 10
0.0
 20
0.0
 30
0.0
 70
     1
  0
VERTEX
  5
434
  8
LAYER_01
 10
1979.064603880405
 20
1597.101051660697
 30
0.0
  0
VERTEX
  5
435
  8
LAYER_01
 10
2003.46787800764
 20
1563.512826351669
 30
0.0
  0
VERTEX
  5
436
  8
LAYER_01
 10
2042.953204982286
 20
1550.683265905409
 30
0.0
  0
VERTEX
  5
437
  8
LAYER_01
 10
2069.205683362567
 20
1586.816702515587
 30
0.0
  0
VERTEX
  5
438
  8
LAYER_01
 10
2069.205683362567
 20
1653.993153133644
 30
0.0
  0
VERTEX
  5
439
  8
LAYER_01
 10
2005.317082260684
 20
1633.234488270874
 30
0.0
  0
SEQEND
  5
43A
  8
LAYER_01
  0
POLYLINE
  5
43B
  8
LAYER_01
 66
     1
 10
0.0
 20
0.0
 30
0.0
 70
     1
  0
VERTEX
  5
43C
  8
LAYER_01
 10
1898.244745678066
 20
1597.701894544868
 30
0.0
  0
VERTEX
  5
43D
  8
LAYER_01
 10
1925.369392877716
 20
1588.888562416333
 30
0.0
  0
VERTEX
  5
43E
  8
LAYER_01
 10
1925.369392877715
 20
1557.221966354789
 30
0.0
  0
VERTEX
  5
43F
  8
LAYER_01
 10
1943.982551032994
 20
1582.840780722585
 30
0.0
  0
VERTEX
  5
440
  8
LAYER_01
 10
1971.107198232643
 20
1574.02744859405
 30
0.0
  0
VERTEX
  5
441
  8
LAYER_01
 10
1954.34324433041
 20
1597.101051660697
 30
0.0
  0
VERTEX
  5
442
  8
LAYER_01
 10
1972.956402485687
 20
1622.719866028493
 30
0.0
  0
VERTEX
  5
443
  8
LAYER_01
 10
1942.839679952471
 20
1612.934349691468
 30
0.0
  0
VERTEX
  5
444
  8
LAYER_01
 10
1926.075726050238
 20
1636.007952758114
 30
0.0
  0
VERTEX
  5
445
  8
LAYER_01
 10
1926.075726050238
 20
1606.744728233259
 30
0.0
  0
SEQEND
  5
446
  8
LAYER_01
  0
POLYLINE
  5
447
  8
LAYER_01
 66
     1
 10
0.0
 20
0.0
 30
0.0
 70
     1
  0
VERTEX
  5
448
  8
LAYER_01
 10
1926.075726050238
 20
1670.033985092195
 30
0.0
  0
VERTEX
  5
449
  8
LAYER_01
 10
1950.479000177473
 20
1636.445759783167
 30
0.0
  0
VERTEX
  5
44A
  8
LAYER_01
 10
1992.956402485686
 20
1650.247504437915
 30
0.0
  0
VERTEX
  5
44B
  8
LAYER_01
 10
2032.441729460334
 20
1704.594394609712
 30
0.0
  0
VERTEX
  5
44C
  8
LAYER_01
 10
1968.553128358451
 20
1725.353059472481
 30
0.0
  0
VERTEX
  5
44D
  8
LAYER_01
 10
1926.075726050238
 20
1711.551314817733
 30
0.0
  0
SEQEND
  5
44E
  8
LAYER_01
  0
POLYLINE
  5
44F
  8
LAYER_01
 66
     1
 10
0.0
 20
0.0
 30
0.0
 70
     1
  0
VERTEX
  5
450
  8
LAYER_01
 10
2331.30629462419
 20
1801.701378337533
 30
0.0
  0
VERTEX
  5
451
  8
LAYER_01
 10
2306.903020496955
 20
1835.289603646562
 30
0.0
  0
VERTEX
  5
452
  8
LAYER_01
 10
2264.425618188741
 20
1821.487858991813
 30
0.0
  0
VERTEX
  5
453
  8
LAYER_01
 10
2224.940291214094
 20
1767.140968820016
 30
0.0
  0
VERTEX
  5
454
  8
LAYER_01
 10
2288.828892315976
 20
1746.382303957248
 30
0.0
  0
VERTEX
  5
455
  8
LAYER_01
 10
2331.30629462419
 20
1760.184048611996
 30
0.0
  0
SEQEND
  5
456
  8
LAYER_01
  0
POLYLINE
  5
457
  8
LAYER_01
 66
     1
 10
0.0
 20
0.0
 30
0.0
 70
     1
  0
VERTEX
  5
458
  8
LAYER_01
 10
1926.075726050238
 20
1801.701378337533
 30
0.0
  0
VERTEX
  5
459
  8
LAYER_01
 10
1950.479000177473
 20
1835.289603646562
 30
0.0
  0
VERTEX
  5
45A
  8
LAYER_01
 10
1992.956402485686
 20
1821.487858991813
 30
0.0
  0
VERTEX
  5
45B
  8
LAYER_01
 10
2032.441729460334
 20
1767.140968820016
 30
0.0
  0
VERTEX
  5
45C
  8
LAYER_01
 10
1968.553128358451
 20
1746.382303957248
 30
0.0
  0
VERTEX
  5
45D
  8
LAYER_01
 10
1926.075726050238
 20
1760.184048611996
 30
0.0
  0
SEQEND
  5
45E
  8
LAYER_01
  0
POLYLINE
  5
45F
  8
LAYER_01
 66
     1
 10
0.0
 20
0.0
 30
0.0
 70
     1
  0
VERTEX
  5
460
  8
LAYER_01
 10
1773.691010337215
 20
291.9596892568413
 30
0.0
 42
-0.0792581391862427
  0
VERTEX
  5
461
  8
LAYER_01
 10
1789.543833006951
 20
282.4662391713579
 30
0.0
 42
-0.0859815434145118
  0
VERTEX
  5
462
  8
LAYER_01
 10
1806.858330381259
 20
292.5233117199197
 30
0.0
  0
VERTEX
  5
463
  8
LAYER_01
 10
1773.691010337215
 20
292.52331171992
 30
0.0
  0
SEQEND
  5
464
  8
LAYER_01
  0
POLYLINE
  5
465
  8
LAYER_01
 66
     1
 10
0.0
 20
0.0
 30
0.0
 70
     1
  0
VERTEX
  5
466
  8
LAYER_01
 10
1773.691010337215
 20
183.0869341830083
 30
0.0
 42
0.0792581391862425
  0
VERTEX
  5
467
  8
LAYER_01
 10
1789.543833006951
 20
192.5803842684916
 30
0.0
 42
0.0859815434145043
  0
VERTEX
  5
468
  8
LAYER_01
 10
1806.858330381259
 20
182.5233117199298
 30
0.0
  0
VERTEX
  5
469
  8
LAYER_01
 10
1773.691010337215
 20
182.5233117199296
 30
0.0
  0
SEQEND
  5
46A
  8
LAYER_01
  0
POLYLINE
  5
46B
  8
LAYER_01
 66
     1
 10
0.0
 20
0.0
 30
0.0
 70
     1
  0
VERTEX
  5
46C
  8
LAYER_01
 10
1922.961414446089
 20
292.5233117199333
 30
0.0
 42
-0.0859815434145133
  0
VERTEX
  5
46D
  8
LAYER_01
 10
1940.275911820397
 20
282.466239171371
 30
0.0
 42
-0.0859815434145115
  0
VERTEX
  5
46E
  8
LAYER_01
 10
1957.590409194706
 20
292.523311719933
 30
0.0
  0
SEQEND
  5
46F
  8
LAYER_01
  0
POLYLINE
  5
470
  8
LAYER_01
 66
     1
 10
0.0
 20
0.0
 30
0.0
 70
     1
  0
VERTEX
  5
471
  8
LAYER_01
 10
1882.224369787981
 20
292.5233117199334
 30
0.0
 42
0.0859815434144626
  0
VERTEX
  5
472
  8
LAYER_01
 10
1864.909872413673
 20
282.466239171371
 30
0.0
 42
0.0859815434145115
  0
VERTEX
  5
473
  8
LAYER_01
 10
1847.595375039364
 20
292.523311719933
 30
0.0
  0
SEQEND
  5
474
  8
LAYER_01
  0
POLYLINE
  5
475
  8
LAYER_01
 66
     1
 10
0.0
 20
0.0
 30
0.0
 70
     1
  0
VERTEX
  5
476
  8
LAYER_01
 10
2032.956448601432
 20
292.5233117199334
 30
0.0
 42
0.0859815434144629
  0
VERTEX
  5
477
  8
LAYER_01
 10
2015.641951227124
 20
282.4662391713711
 30
0.0
 42
0.0859815434145121
  0
VERTEX
  5
478
  8
LAYER_01
 10
1998.327453852816
 20
292.523311719933
 30
0.0
  0
SEQEND
  5
479
  8
LAYER_01
  0
POLYLINE
  5
47A
  8
LAYER_01
 66
     1
 10
0.0
 20
0.0
 30
0.0
 70
     1
  0
VERTEX
  5
47B
  8
LAYER_01
 10
2073.69349325954
 20
292.5233117199333
 30
0.0
 42
-0.08598154341446
  0
VERTEX
  5
47C
  8
LAYER_01
 10
2091.007990633848
 20
282.4662391713712
 30
0.0
 42
-0.0859815434145077
  0
VERTEX
  5
47D
  8
LAYER_01
 10
2108.322488008157
 20
292.523311719933
 30
0.0
  0
SEQEND
  5
47E
  8
LAYER_01
  0
POLYLINE
  5
47F
  8
LAYER_01
 66
     1
 10
0.0
 20
0.0
 30
0.0
 70
     1
  0
VERTEX
  5
480
  8
LAYER_01
 10
2334.420606228336
 20
292.5233117199334
 30
0.0
 42
0.0859815434145075
  0
VERTEX
  5
481
  8
LAYER_01
 10
2317.106108854027
 20
282.4662391713712
 30
0.0
 42
0.085981543414461
  0
VERTEX
  5
482
  8
LAYER_01
 10
2299.791611479719
 20
292.523311719933
 30
0.0
  0
SEQEND
  5
483
  8
LAYER_01
  0
POLYLINE
  5
484
  8
LAYER_01
 66
     1
 10
0.0
 20
0.0
 30
0.0
 70
     1
  0
VERTEX
  5
485
  8
LAYER_01
 10
2483.691010337215
 20
291.9596892568413
 30
0.0
 42
0.0792581391862449
  0
VERTEX
  5
486
  8
LAYER_01
 10
2467.838187667478
 20
282.4662391713578
 30
0.0
 42
0.085981543414514
  0
VERTEX
  5
487
  8
LAYER_01
 10
2450.52369029317
 20
292.5233117199197
 30
0.0
  0
VERTEX
  5
488
  8
LAYER_01
 10
2483.691010337215
 20
292.52331171992
 30
0.0
  0
SEQEND
  5
489
  8
LAYER_01
  0
POLYLINE
  5
48A
  8
LAYER_01
 66
     1
 10
0.0
 20
0.0
 30
0.0
 70
     1
  0
VERTEX
  5
48B
  8
LAYER_01
 10
2483.691010337216
 20
196.7221134581176
 30
0.0
 42
-0.0319899623375691
  0
VERTEX
  5
48C
  8
LAYER_01
 10
2478.664452016504
 20
199.8402920165695
 30
0.0
 42
-0.031989962337388
  0
VERTEX
  5
48D
  8
LAYER_01
 10
2483.691010337216
 20
202.9584705750201
 30
0.0
  0
SEQEND
  5
48E
  8
LAYER_01
  0
POLYLINE
  5
48F
  8
LAYER_01
 66
     1
 10
0.0
 20
0.0
 30
0.0
 70
     1
  0
VERTEX
  5
490
  8
LAYER_01
 10
2483.691010337215
 20
183.0869341830083
 30
0.0
 42
-0.0792581391862449
  0
VERTEX
  5
491
  8
LAYER_01
 10
2467.838187667478
 20
192.5803842684918
 30
0.0
 42
-0.0859815434145025
  0
VERTEX
  5
492
  8
LAYER_01
 10
2450.52369029317
 20
182.5233117199298
 30
0.0
  0
VERTEX
  5
493
  8
LAYER_01
 10
2483.691010337215
 20
182.5233117199296
 30
0.0
  0
SEQEND
  5
494
  8
LAYER_01
  0
POLYLINE
  5
495
  8
LAYER_01
 66
     1
 10
0.0
 20
0.0
 30
0.0
 70
     1
  0
VERTEX
  5
496
  8
LAYER_01
 10
1773.691010337215
 20
1883.086934183018
 30
0.0
 42
0.0792581391862425
  0
VERTEX
  5
497
  8
LAYER_01
 10
1789.543833006951
 20
1892.580384268501
 30
0.0
 42
0.0859815434144834
  0
VERTEX
  5
498
  8
LAYER_01
 10
1806.858330381259
 20
1882.523311719939
 30
0.0
  0
VERTEX
  5
499
  8
LAYER_01
 10
1773.691010337215
 20
1882.523311719939
 30
0.0
  0
SEQEND
  5
49A
  8
LAYER_01
  0
POLYLINE
  5
49B
  8
LAYER_01
 66
     1
 10
0.0
 20
0.0
 30
0.0
 70
     1
  0
VERTEX
  5
49C
  8
LAYER_01
 10
1773.691010337214
 20
1896.722113458115
 30
0.0
 42
0.0319899623375884
  0
VERTEX
  5
49D
  8
LAYER_01
 10
1778.717568657926
 20
1899.840292016565
 30
0.0
 42
0.0319899623376026
  0
VERTEX
  5
49E
  8
LAYER_01
 10
1773.691010337214
 20
1902.958470575017
 30
0.0
  0
SEQEND
  5
49F
  8
LAYER_01
  0
POLYLINE
  5
4A0
  8
LAYER_01
 66
     1
 10
0.0
 20
0.0
 30
0.0
 70
     1
  0
VERTEX
  5
4A1
  8
LAYER_01
 10
1773.691010337213
 20
1978.324509981741
 30
0.0
 42
-0.0319899623375672
  0
VERTEX
  5
4A2
  8
LAYER_01
 10
1778.717568657926
 20
1975.20633142329
 30
0.0
 42
-0.0319899623376084
  0
VERTEX
  5
4A3
  8
LAYER_01
 10
1773.691010337214
 20
1972.088152864839
 30
0.0
  0
SEQEND
  5
4A4
  8
LAYER_01
  0
POLYLINE
  5
4A5
  8
LAYER_01
 66
     1
 10
0.0
 20
0.0
 30
0.0
 70
     1
  0
VERTEX
  5
4A6
  8
LAYER_01
 10
1773.691010337215
 20
1991.959689256851
 30
0.0
 42
-0.0792581391862425
  0
VERTEX
  5
4A7
  8
LAYER_01
 10
1789.543833006951
 20
1982.466239171368
 30
0.0
 42
-0.0859815434144834
  0
VERTEX
  5
4A8
  8
LAYER_01
 10
1806.858330381259
 20
1992.523311719929
 30
0.0
  0
VERTEX
  5
4A9
  8
LAYER_01
 10
1773.691010337215
 20
1992.52331171993
 30
0.0
  0
SEQEND
  5
4AA
  8
LAYER_01
  0
POLYLINE
  5
4AB
  8
LAYER_01
 66
     1
 10
0.0
 20
0.0
 30
0.0
 70
     1
  0
VERTEX
  5
4AC
  8
LAYER_01
 10
1753.691010337215
 20
162.5233117199297
 30
0.0
  0
VERTEX
  5
4AD
  8
LAYER_01
 10
2503.691010337215
 20
162.5233117199297
 30
0.0
  0
VERTEX
  5
4AE
  8
LAYER_01
 10
2503.691010337215
 20
2012.52331171993
 30
0.0
  0
VERTEX
  5
4AF
  8
LAYER_01
 10
1753.691010337215
 20
2012.52331171993
 30
0.0
  0
SEQEND
  5
4B0
  8
LAYER_01
  0
POLYLINE
  5
4B1
  8
LAYER_01
 66
     1
 10
0.0
 20
0.0
 30
0.0
 70
     1
  0
VERTEX
  5
4B2
  8
LAYER_01
 10
1922.961414446089
 20
1992.52331171993
 30
0.0
 42
-0.0859815434144632
  0
VERTEX
  5
4B3
  8
LAYER_01
 10
1940.275911820397
 20
1982.466239171367
 30
0.0
 42
-0.0859815434144883
  0
VERTEX
  5
4B4
  8
LAYER_01
 10
1957.590409194706
 20
1992.523311719929
 30
0.0
  0
SEQEND
  5
4B5
  8
LAYER_01
  0
POLYLINE
  5
4B6
  8
LAYER_01
 66
     1
 10
0.0
 20
0.0
 30
0.0
 70
     1
  0
VERTEX
  5
4B7
  8
LAYER_01
 10
1922.961414446089
 20
1882.523311719926
 30
0.0
 42
0.0859815434144632
  0
VERTEX
  5
4B8
  8
LAYER_01
 10
1940.275911820397
 20
1892.580384268488
 30
0.0
 42
0.0859815434144668
  0
VERTEX
  5
4B9
  8
LAYER_01
 10
1957.590409194706
 20
1882.523311719926
 30
0.0
  0
SEQEND
  5
4BA
  8
LAYER_01
  0
POLYLINE
  5
4BB
  8
LAYER_01
 66
     1
 10
0.0
 20
0.0
 30
0.0
 70
     1
  0
VERTEX
  5
4BC
  8
LAYER_01
 10
1882.224369787981
 20
1992.52331171993
 30
0.0
 42
0.085981543414463
  0
VERTEX
  5
4BD
  8
LAYER_01
 10
1864.909872413673
 20
1982.466239171367
 30
0.0
 42
0.0859815434144853
  0
VERTEX
  5
4BE
  8
LAYER_01
 10
1847.595375039364
 20
1992.523311719929
 30
0.0
  0
SEQEND
  5
4BF
  8
LAYER_01
  0
POLYLINE
  5
4C0
  8
LAYER_01
 66
     1
 10
0.0
 20
0.0
 30
0.0
 70
     1
  0
VERTEX
  5
4C1
  8
LAYER_01
 10
1882.224369787981
 20
1882.523311719926
 30
0.0
 42
-0.085981543414463
  0
VERTEX
  5
4C2
  8
LAYER_01
 10
1864.909872413673
 20
1892.580384268488
 30
0.0
 42
-0.0859815434144785
  0
VERTEX
  5
4C3
  8
LAYER_01
 10
1847.595375039364
 20
1882.523311719926
 30
0.0
  0
SEQEND
  5
4C4
  8
LAYER_01
  0
POLYLINE
  5
4C5
  8
LAYER_01
 66
     1
 10
0.0
 20
0.0
 30
0.0
 70
     1
  0
VERTEX
  5
4C6
  8
LAYER_01
 10
2032.956448601432
 20
1992.52331171993
 30
0.0
 42
0.0859815434144622
  0
VERTEX
  5
4C7
  8
LAYER_01
 10
2015.641951227123
 20
1982.466239171367
 30
0.0
 42
0.08598154341449
  0
VERTEX
  5
4C8
  8
LAYER_01
 10
1998.327453852816
 20
1992.523311719929
 30
0.0
  0
SEQEND
  5
4C9
  8
LAYER_01
  0
POLYLINE
  5
4CA
  8
LAYER_01
 66
     1
 10
0.0
 20
0.0
 30
0.0
 70
     1
  0
VERTEX
  5
4CB
  8
LAYER_01
 10
2032.956448601432
 20
1882.523311719926
 30
0.0
 42
-0.0859815434144625
  0
VERTEX
  5
4CC
  8
LAYER_01
 10
2015.641951227124
 20
1892.580384268488
 30
0.0
 42
-0.0859815434144832
  0
VERTEX
  5
4CD
  8
LAYER_01
 10
1998.327453852816
 20
1882.523311719926
 30
0.0
  0
SEQEND
  5
4CE
  8
LAYER_01
  0
POLYLINE
  5
4CF
  8
LAYER_01
 66
     1
 10
0.0
 20
0.0
 30
0.0
 70
     1
  0
VERTEX
  5
4D0
  8
LAYER_01
 10
2073.69349325954
 20
1992.52331171993
 30
0.0
 42
-0.0859815434144595
  0
VERTEX
  5
4D1
  8
LAYER_01
 10
2091.007990633849
 20
1982.466239171368
 30
0.0
 42
-0.0859815434144811
  0
VERTEX
  5
4D2
  8
LAYER_01
 10
2108.322488008157
 20
1992.523311719929
 30
0.0
  0
SEQEND
  5
4D3
  8
LAYER_01
  0
POLYLINE
  5
4D4
  8
LAYER_01
 66
     1
 10
0.0
 20
0.0
 30
0.0
 70
     1
  0
VERTEX
  5
4D5
  8
LAYER_01
 10
2073.69349325954
 20
1882.523311719926
 30
0.0
 42
0.0859815434144595
  0
VERTEX
  5
4D6
  8
LAYER_01
 10
2091.007990633849
 20
1892.580384268488
 30
0.0
 42
0.0859815434144805
  0
VERTEX
  5
4D7
  8
LAYER_01
 10
2108.322488008157
 20
1882.523311719926
 30
0.0
  0
SEQEND
  5
4D8
  8
LAYER_01
  0
POLYLINE
  5
4D9
  8
LAYER_01
 66
     1
 10
0.0
 20
0.0
 30
0.0
 70
     1
  0
VERTEX
  5
4DA
  8
LAYER_01
 10
2183.688527414884
 20
1992.52331171993
 30
0.0
 42
0.0859815434144637
  0
VERTEX
  5
4DB
  8
LAYER_01
 10
2166.374030040575
 20
1982.466239171368
 30
0.0
 42
0.0859815434144811
  0
VERTEX
  5
4DC
  8
LAYER_01
 10
2149.059532666267
 20
1992.523311719929
 30
0.0
  0
SEQEND
  5
4DD
  8
LAYER_01
  0
POLYLINE
  5
4DE
  8
LAYER_01
 66
     1
 10
0.0
 20
0.0
 30
0.0
 70
     1
  0
VERTEX
  5
4DF
  8
LAYER_01
 10
2183.688527414884
 20
1882.523311719926
 30
0.0
 42
-0.085981543414464
  0
VERTEX
  5
4E0
  8
LAYER_01
 10
2166.374030040575
 20
1892.580384268488
 30
0.0
 42
-0.0859815434144805
  0
VERTEX
  5
4E1
  8
LAYER_01
 10
2149.059532666267
 20
1882.523311719926
 30
0.0
  0
SEQEND
  5
4E2
  8
LAYER_01
  0
POLYLINE
  5
4E3
  8
LAYER_01
 66
     1
 10
0.0
 20
0.0
 30
0.0
 70
     1
  0
VERTEX
  5
4E4
  8
LAYER_01
 10
2224.425572072992
 20
1992.52331171993
 30
0.0
 42
-0.0859815434144601
  0
VERTEX
  5
4E5
  8
LAYER_01
 10
2241.7400694473
 20
1982.466239171367
 30
0.0
 42
-0.0859815434144615
  0
VERTEX
  5
4E6
  8
LAYER_01
 10
2259.054566821609
 20
1992.523311719929
 30
0.0
  0
SEQEND
  5
4E7
  8
LAYER_01
  0
POLYLINE
  5
4E8
  8
LAYER_01
 66
     1
 10
0.0
 20
0.0
 30
0.0
 70
     1
  0
VERTEX
  5
4E9
  8
LAYER_01
 10
2224.425572072992
 20
1882.523311719926
 30
0.0
 42
0.0859815434144604
  0
VERTEX
  5
4EA
  8
LAYER_01
 10
2241.7400694473
 20
1892.580384268488
 30
0.0
 42
0.0859815434144742
  0
VERTEX
  5
4EB
  8
LAYER_01
 10
2259.054566821609
 20
1882.523311719926
 30
0.0
  0
SEQEND
  5
4EC
  8
LAYER_01
  0
POLYLINE
  5
4ED
  8
LAYER_01
 66
     1
 10
0.0
 20
0.0
 30
0.0
 70
     1
  0
VERTEX
  5
4EE
  8
LAYER_01
 10
2375.157650886443
 20
1992.52331171993
 30
0.0
 42
-0.0859815434144637
  0
VERTEX
  5
4EF
  8
LAYER_01
 10
2392.472148260752
 20
1982.466239171367
 30
0.0
 42
-0.0859815434144809
  0
VERTEX
  5
4F0
  8
LAYER_01
 10
2409.78664563506
 20
1992.523311719929
 30
0.0
  0
SEQEND
  5
4F1
  8
LAYER_01
  0
POLYLINE
  5
4F2
  8
LAYER_01
 66
     1
 10
0.0
 20
0.0
 30
0.0
 70
     1
  0
VERTEX
  5
4F3
  8
LAYER_01
 10
2375.157650886443
 20
1882.523311719926
 30
0.0
 42
0.085981543414464
  0
VERTEX
  5
4F4
  8
LAYER_01
 10
2392.472148260752
 20
1892.580384268488
 30
0.0
 42
0.0859815434144798
  0
VERTEX
  5
4F5
  8
LAYER_01
 10
2409.78664563506
 20
1882.523311719926
 30
0.0
  0
SEQEND
  5
4F6
  8
LAYER_01
  0
POLYLINE
  5
4F7
  8
LAYER_01
 66
     1
 10
0.0
 20
0.0
 30
0.0
 70
     1
  0
VERTEX
  5
4F8
  8
LAYER_01
 10
2334.420606228336
 20
1992.52331171993
 30
0.0
 42
0.0859815434144639
  0
VERTEX
  5
4F9
  8
LAYER_01
 10
2317.106108854027
 20
1982.466239171368
 30
0.0
 42
0.0859815434144608
  0
VERTEX
  5
4FA
  8
LAYER_01
 10
2299.791611479719
 20
1992.523311719929
 30
0.0
  0
SEQEND
  5
4FB
  8
LAYER_01
  0
POLYLINE
  5
4FC
  8
LAYER_01
 66
     1
 10
0.0
 20
0.0
 30
0.0
 70
     1
  0
VERTEX
  5
4FD
  8
LAYER_01
 10
2334.420606228336
 20
1882.523311719926
 30
0.0
 42
-0.0859815434144642
  0
VERTEX
  5
4FE
  8
LAYER_01
 10
2317.106108854027
 20
1892.580384268487
 30
0.0
 42
-0.0859815434144675
  0
VERTEX
  5
4FF
  8
LAYER_01
 10
2299.791611479719
 20
1882.523311719926
 30
0.0
  0
SEQEND
  5
500
  8
LAYER_01
  0
POLYLINE
  5
501
  8
LAYER_01
 66
     1
 10
0.0
 20
0.0
 30
0.0
 70
     1
  0
VERTEX
  5
502
  8
LAYER_01
 10
2483.691010337215
 20
1883.086934183018
 30
0.0
 42
-0.0792581391862445
  0
VERTEX
  5
503
  8
LAYER_01
 10
2467.838187667478
 20
1892.580384268501
 30
0.0
 42
-0.0859815434144854
  0
VERTEX
  5
504
  8
LAYER_01
 10
2450.52369029317
 20
1882.523311719939
 30
0.0
  0
VERTEX
  5
505
  8
LAYER_01
 10
2483.691010337215
 20
1882.523311719939
 30
0.0
  0
SEQEND
  5
506
  8
LAYER_01
  0
POLYLINE
  5
507
  8
LAYER_01
 66
     1
 10
0.0
 20
0.0
 30
0.0
 70
     1
  0
VERTEX
  5
508
  8
LAYER_01
 10
2483.691010337215
 20
1896.722113458115
 30
0.0
 42
-0.0319899623375636
  0
VERTEX
  5
509
  8
LAYER_01
 10
2478.664452016504
 20
1899.840292016565
 30
0.0
 42
-0.0319899623374155
  0
VERTEX
  5
50A
  8
LAYER_01
 10
2483.691010337216
 20
1902.958470575017
 30
0.0
  0
SEQEND
  5
50B
  8
LAYER_01
  0
POLYLINE
  5
50C
  8
LAYER_01
 66
     1
 10
0.0
 20
0.0
 30
0.0
 70
     1
  0
VERTEX
  5
50D
  8
LAYER_01
 10
2483.691010337216
 20
1978.324509981741
 30
0.0
 42
0.0319899623375692
  0
VERTEX
  5
50E
  8
LAYER_01
 10
2478.664452016504
 20
1975.20633142329
 30
0.0
 42
0.0319899623373975
  0
VERTEX
  5
50F
  8
LAYER_01
 10
2483.691010337216
 20
1972.088152864839
 30
0.0
  0
SEQEND
  5
510
  8
LAYER_01
  0
POLYLINE
  5
511
  8
LAYER_01
 66
     1
 10
0.0
 20
0.0
 30
0.0
 70
     1
  0
VERTEX
  5
512
  8
LAYER_01
 10
2483.691010337215
 20
1991.959689256851
 30
0.0
 42
0.0792581391862445
  0
VERTEX
  5
513
  8
LAYER_01
 10
2467.838187667478
 20
1982.466239171368
 30
0.0
 42
0.0859815434144854
  0
VERTEX
  5
514
  8
LAYER_01
 10
2450.52369029317
 20
1992.523311719929
 30
0.0
  0
VERTEX
  5
515
  8
LAYER_01
 10
2483.691010337215
 20
1992.52331171993
 30
0.0
  0
SEQEND
  5
516
  8
LAYER_01
  0
POLYLINE
  5
517
  8
LAYER_01
 66
     1
 10
0.0
 20
0.0
 30
0.0
 70
     1
  0
VERTEX
  5
518
  8
LAYER_01
 10
2382.75819512132
 20
1087.52331171993
 30
0.0
 42
-0.2073350541729606
  0
VERTEX
  5
519
  8
LAYER_01
 10
2443.584992129986
 20
1042.873243512779
 30
0.0
 42
0.0705441682268883
  0
VERTEX
  5
51A
  8
LAYER_01
 10
2443.584992129986
 20
1132.173379927081
 30
0.0
 42
-0.2073350541729436
  0
SEQEND
  5
51B
  8
LAYER_01
  0
POLYLINE
  5
51C
  8
LAYER_01
 66
     1
 10
0.0
 20
0.0
 30
0.0
 70
     1
  0
VERTEX
  5
51D
  8
LAYER_01
 10
2001.657417945162
 20
1307.551948010961
 30
0.0
 42
-0.2073350541730451
  0
VERTEX
  5
51E
  8
LAYER_01
 10
2009.91211278893
 20
1382.554533554881
 30
0.0
 42
0.0705441682268704
  0
VERTEX
  5
51F
  8
LAYER_01
 10
1932.575926092728
 20
1337.904465347729
 30
0.0
 42
-0.2073350541730464
  0
SEQEND
  5
520
  8
LAYER_01
  0
POLYLINE
  5
521
  8
LAYER_01
 66
     1
 10
0.0
 20
0.0
 30
0.0
 70
     1
  0
VERTEX
  5
522
  8
LAYER_01
 10
2128.691010337215
 20
1341.590496504036
 30
0.0
 42
-0.2073350541730678
  0
VERTEX
  5
523
  8
LAYER_01
 10
2173.341078544366
 20
1402.417293512701
 30
0.0
 42
0.0705441682268554
  0
VERTEX
  5
524
  8
LAYER_01
 10
2084.040942130063
 20
1402.417293512701
 30
0.0
 42
-0.2073350541730722
  0
SEQEND
  5
525
  8
LAYER_01
  0
POLYLINE
  5
526
  8
LAYER_01
 66
     1
 10
0.0
 20
0.0
 30
0.0
 70
     1
  0
VERTEX
  5
527
  8
LAYER_01
 10
2247.4699078855
 20
1382.55453355488
 30
0.0
 42
-0.2073350541730204
  0
VERTEX
  5
528
  8
LAYER_01
 10
2255.724602729268
 20
1307.55194801096
 30
0.0
 42
-0.2073350541729108
  0
VERTEX
  5
529
  8
LAYER_01
 10
2324.806094581701
 20
1337.904465347729
 30
0.0
 42
0.0705441682268386
  0
SEQEND
  5
52A
  8
LAYER_01
  0
POLYLINE
  5
52B
  8
LAYER_01
 66
     1
 10
0.0
 20
0.0
 30
0.0
 70
     1
  0
VERTEX
  5
52C
  8
LAYER_01
 10
2128.691010337214
 20
833.4561269358239
 30
0.0
 42
-0.2073350541729595
  0
VERTEX
  5
52D
  8
LAYER_01
 10
2084.040942130063
 20
772.6293299271576
 30
0.0
 42
0.0705441682268776
  0
VERTEX
  5
52E
  8
LAYER_01
 10
2173.341078544368
 20
772.6293299271583
 30
0.0
 42
-0.2073350541730289
  0
SEQEND
  5
52F
  8
LAYER_01
  0
POLYLINE
  5
530
  8
LAYER_01
 66
     1
 10
0.0
 20
0.0
 30
0.0
 70
     1
  0
VERTEX
  5
531
  8
LAYER_01
 10
1908.662374046184
 20
1214.556904111983
 30
0.0
 42
-0.207335054172967
  0
VERTEX
  5
532
  8
LAYER_01
 10
1878.309856709415
 20
1283.638395964417
 30
0.0
 42
0.0705441682268154
  0
VERTEX
  5
533
  8
LAYER_01
 10
1833.659788502265
 20
1206.302209268215
 30
0.0
 42
-0.2073350541730161
  0
SEQEND
  5
534
  8
LAYER_01
  0
POLYLINE
  5
535
  8
LAYER_01
 66
     1
 10
0.0
 20
0.0
 30
0.0
 70
     1
  0
VERTEX
  5
536
  8
LAYER_01
 10
1874.623825553109
 20
1087.52331171993
 30
0.0
 42
-0.2073350541729957
  0
VERTEX
  5
537
  8
LAYER_01
 10
1813.797028544443
 20
1132.173379927081
 30
0.0
 42
0.0705441682268869
  0
VERTEX
  5
538
  8
LAYER_01
 10
1813.797028544443
 20
1042.873243512778
 30
0.0
 42
-0.2073350541730384
  0
SEQEND
  5
539
  8
LAYER_01
  0
POLYLINE
  5
53A
  8
LAYER_01
 66
     1
 10
0.0
 20
0.0
 30
0.0
 70
     1
  0
VERTEX
  5
53B
  8
LAYER_01
 10
2219.935284414601
 20
1111.972141272929
 30
0.0
 42
-0.210920469184228
  0
VERTEX
  5
53C
  8
LAYER_01
 10
2350.316791481789
 20
1168.273322577339
 30
0.0
 42
0.3806506207914035
  0
VERTEX
  5
53D
  8
LAYER_01
 10
2355.74078188771
 20
1186.93207361182
 30
0.0
 42
-0.3030525429561838
  0
VERTEX
  5
53E
  8
LAYER_01
 10
2426.881385100613
 20
1167.423181828516
 30
0.0
 42
-0.3030525429560487
  0
VERTEX
  5
53F
  8
LAYER_01
 10
2375.026261369341
 20
1114.957684338042
 30
0.0
 42
0.3806506207913488
  0
VERTEX
  5
540
  8
LAYER_01
 10
2360.999572370691
 20
1128.404641533831
 30
0.0
 42
-0.210920469184108
  0
SEQEND
  5
541
  8
LAYER_01
  0
POLYLINE
  5
542
  8
LAYER_01
 66
     1
 10
0.0
 20
0.0
 30
0.0
 70
     1
  0
VERTEX
  5
543
  8
LAYER_01
 10
2219.935284414601
 20
1063.07448216693
 30
0.0
 42
-0.2109204691843095
  0
VERTEX
  5
544
  8
LAYER_01
 10
2360.999572370691
 20
1046.641981906029
 30
0.0
 42
0.3806506207913408
  0
VERTEX
  5
545
  8
LAYER_01
 10
2375.026261369341
 20
1060.088939101817
 30
0.0
 42
-0.3030525429560227
  0
VERTEX
  5
546
  8
LAYER_01
 10
2426.881385100612
 20
1007.623441611343
 30
0.0
 42
-0.3030525429561094
  0
VERTEX
  5
547
  8
LAYER_01
 10
2355.740781887709
 20
988.1145498280398
 30
0.0
 42
0.3806506207913663
  0
VERTEX
  5
548
  8
LAYER_01
 10
2350.31679148179
 20
1006.77330086252
 30
0.0
 42
-0.2109204691841858
  0
SEQEND
  5
549
  8
LAYER_01
  0
POLYLINE
  5
54A
  8
LAYER_01
 66
     1
 10
0.0
 20
0.0
 30
0.0
 70
     1
  0
VERTEX
  5
54B
  8
LAYER_01
 10
2153.139839890214
 20
996.2790376425437
 30
0.0
 42
-0.2109204691842285
  0
VERTEX
  5
54C
  8
LAYER_01
 10
2209.441021194624
 20
865.8975305753556
 30
0.0
 42
0.3806506207914855
  0
VERTEX
  5
54D
  8
LAYER_01
 10
2228.099772229104
 20
860.473540169435
 30
0.0
 42
-0.3030525429561401
  0
VERTEX
  5
54E
  8
LAYER_01
 10
2208.5908804458
 20
789.332936956533
 30
0.0
 42
-0.303052542956156
  0
VERTEX
  5
54F
  8
LAYER_01
 10
2156.125382955327
 20
841.1880606878032
 30
0.0
 42
0.3806506207913339
  0
VERTEX
  5
550
  8
LAYER_01
 10
2169.572340151115
 20
855.2147496864536
 30
0.0
 42
-0.2109204691842586
  0
SEQEND
  5
551
  8
LAYER_01
  0
POLYLINE
  5
552
  8
LAYER_01
 66
     1
 10
0.0
 20
0.0
 30
0.0
 70
     1
  0
VERTEX
  5
553
  8
LAYER_01
 10
2104.242180784215
 20
996.2790376425432
 30
0.0
 42
-0.2109204691842721
  0
VERTEX
  5
554
  8
LAYER_01
 10
2087.809680523313
 20
855.2147496864534
 30
0.0
 42
0.3806506207914032
  0
VERTEX
  5
555
  8
LAYER_01
 10
2101.256637719101
 20
841.1880606878027
 30
0.0
 42
-0.3030525429560628
  0
VERTEX
  5
556
  8
LAYER_01
 10
2048.791140228628
 20
789.3329369565325
 30
0.0
 42
-0.3030525429561292
  0
VERTEX
  5
557
  8
LAYER_01
 10
2029.282248445325
 20
860.473540169435
 30
0.0
 42
0.3806506207913734
  0
VERTEX
  5
558
  8
LAYER_01
 10
2047.940999479806
 20
865.8975305753552
 30
0.0
 42
-0.210920469184299
  0
SEQEND
  5
559
  8
LAYER_01
  0
POLYLINE
  5
55A
  8
LAYER_01
 66
     1
 10
0.0
 20
0.0
 30
0.0
 70
     1
  0
VERTEX
  5
55B
  8
LAYER_01
 10
2061.895565812827
 20
1020.727867195543
 30
0.0
 42
-0.2109204691842091
  0
VERTEX
  5
55C
  8
LAYER_01
 10
1977.132459161147
 20
906.7788603892569
 30
0.0
 42
0.3806506207914695
  0
VERTEX
  5
55D
  8
LAYER_01
 10
1981.764521196978
 20
887.907912787547
 30
0.0
 42
-0.3030525429561407
  0
VERTEX
  5
55E
  8
LAYER_01
 10
1910.400505682403
 20
869.2328070651184
 30
0.0
 42
-0.3030525429561435
  0
VERTEX
  5
55F
  8
LAYER_01
 10
1929.075611404832
 20
940.5968225796926
 30
0.0
 42
0.3806506207914082
  0
VERTEX
  5
560
  8
LAYER_01
 10
1947.946559006542
 20
935.9647605438627
 30
0.0
 42
-0.2109204691842238
  0
SEQEND
  5
561
  8
LAYER_01
  0
POLYLINE
  5
562
  8
LAYER_01
 66
     1
 10
0.0
 20
0.0
 30
0.0
 70
     1
  0
VERTEX
  5
563
  8
LAYER_01
 10
2037.446736259828
 20
1111.97214127293
 30
0.0
 42
-0.2109204691842285
  0
VERTEX
  5
564
  8
LAYER_01
 10
1896.382448303738
 20
1128.404641533831
 30
0.0
 42
0.3806506207914295
  0
VERTEX
  5
565
  8
LAYER_01
 10
1882.355759305088
 20
1114.957684338042
 30
0.0
 42
-0.3030525429561408
  0
VERTEX
  5
566
  8
LAYER_01
 10
1830.500635573817
 20
1167.423181828516
 30
0.0
 42
-0.3030525429560896
  0
VERTEX
  5
567
  8
LAYER_01
 10
1901.64123878672
 20
1186.932073611819
 30
0.0
 42
0.3806506207913954
  0
VERTEX
  5
568
  8
LAYER_01
 10
1907.06522919264
 20
1168.273322577339
 30
0.0
 42
-0.2109204691841868
  0
SEQEND
  5
569
  8
LAYER_01
  0
POLYLINE
  5
56A
  8
LAYER_01
 66
     1
 10
0.0
 20
0.0
 30
0.0
 70
     1
  0
VERTEX
  5
56B
  8
LAYER_01
 10
2153.139839890214
 20
1178.767585797316
 30
0.0
 42
-0.210920469184208
  0
VERTEX
  5
56C
  8
LAYER_01
 10
2169.572340151116
 20
1319.831873753406
 30
0.0
 42
0.3806506207913548
  0
VERTEX
  5
56D
  8
LAYER_01
 10
2156.125382955327
 20
1333.858562752057
 30
0.0
 42
-0.3030525429561399
  0
VERTEX
  5
56E
  8
LAYER_01
 10
2208.5908804458
 20
1385.713686483327
 30
0.0
 42
-0.3030525429561325
  0
VERTEX
  5
56F
  8
LAYER_01
 10
2228.099772229105
 20
1314.573083270425
 30
0.0
 42
0.3806506207913988
  0
VERTEX
  5
570
  8
LAYER_01
 10
2209.441021194624
 20
1309.149092864504
 30
0.0
 42
-0.2109204691841885
  0
SEQEND
  5
571
  8
LAYER_01
  0
POLYLINE
  5
572
  8
LAYER_01
 66
     1
 10
0.0
 20
0.0
 30
0.0
 70
     1
  0
VERTEX
  5
573
  8
LAYER_01
 10
2204.057049743938
 20
220.8077343904089
 30
0.0
 42
0.0888840728088394
  0
VERTEX
  5
574
  8
LAYER_01
 10
2183.692470414081
 20
217.1587323900749
 30
0.0
 42
0.1791837651654371
  0
VERTEX
  5
575
  8
LAYER_01
 10
2183.692470414081
 20
257.8878910497873
 30
0.0
 42
0.1791837651653617
  0
VERTEX
  5
576
  8
LAYER_01
 10
2224.421629073795
 20
257.8878910497881
 30
0.0
 42
0.1791837651654233
  0
VERTEX
  5
577
  8
LAYER_01
 10
2224.421629073795
 20
217.1587323900749
 30
0.0
 42
0.0888840728088396
  0
SEQEND
  5
578
  8
LAYER_01
  0
POLYLINE
  5
579
  8
LAYER_01
 66
     1
 10
0.0
 20
0.0
 30
0.0
 70
     1
  0
VERTEX
  5
57A
  8
LAYER_01
 10
2409.790588634258
 20
217.1587323900743
 30
0.0
 42
-0.1791837651653734
  0
VERTEX
  5
57B
  8
LAYER_01
 10
2450.519747293973
 20
217.1587323900746
 30
0.0
 42
-0.1791837651654508
  0
VERTEX
  5
57C
  8
LAYER_01
 10
2450.519747293973
 20
257.8878910497884
 30
0.0
 42
-0.1791837651653682
  0
VERTEX
  5
57D
  8
LAYER_01
 10
2409.790588634258
 20
257.8878910497884
 30
0.0
 42
-0.1791837651654339
  0
SEQEND
  5
57E
  8
LAYER_01
  0
POLYLINE
  5
57F
  8
LAYER_01
 66
     1
 10
0.0
 20
0.0
 30
0.0
 70
     1
  0
VERTEX
  5
580
  8
LAYER_01
 10
2149.055589667069
 20
217.1587323900747
 30
0.0
 42
0.1791837651653788
  0
VERTEX
  5
581
  8
LAYER_01
 10
2108.326431007355
 20
217.1587323900746
 30
0.0
 42
0.1791837651654494
  0
VERTEX
  5
582
  8
LAYER_01
 10
2108.326431007355
 20
257.8878910497884
 30
0.0
 42
0.1791837651653685
  0
VERTEX
  5
583
  8
LAYER_01
 10
2149.055589667069
 20
257.8878910497884
 30
0.0
 42
0.1791837651654723
  0
SEQEND
  5
584
  8
LAYER_01
  0
POLYLINE
  5
585
  8
LAYER_01
 66
     1
 10
0.0
 20
0.0
 30
0.0
 70
     1
  0
VERTEX
  5
586
  8
LAYER_01
 10
2409.790588634258
 20
1957.887891049785
 30
0.0
 42
0.1791837651653676
  0
VERTEX
  5
587
  8
LAYER_01
 10
2450.519747293973
 20
1957.887891049785
 30
0.0
 42
0.1791837651654775
  0
VERTEX
  5
588
  8
LAYER_01
 10
2450.519747293973
 20
1917.158732390071
 30
0.0
 42
0.1791837651653697
  0
VERTEX
  5
589
  8
LAYER_01
 10
2409.790588634258
 20
1917.158732390071
 30
0.0
 42
0.1791837651654536
  0
SEQEND
  5
58A
  8
LAYER_01
  0
POLYLINE
  5
58B
  8
LAYER_01
 66
     1
 10
0.0
 20
0.0
 30
0.0
 70
     1
  0
VERTEX
  5
58C
  8
LAYER_01
 10
2149.055589667069
 20
1957.887891049785
 30
0.0
 42
-0.1791837651653676
  0
VERTEX
  5
58D
  8
LAYER_01
 10
2108.326431007355
 20
1957.887891049785
 30
0.0
 42
-0.1791837651654775
  0
VERTEX
  5
58E
  8
LAYER_01
 10
2108.326431007355
 20
1917.158732390071
 30
0.0
 42
-0.1791837651653697
  0
VERTEX
  5
58F
  8
LAYER_01
 10
2149.055589667069
 20
1917.158732390071
 30
0.0
 42
-0.1791837651654536
  0
SEQEND
  5
590
  8
LAYER_01
  0
POLYLINE
  5
591
  8
LAYER_01
 66
     1
 10
0.0
 20
0.0
 30
0.0
 70
     1
  0
VERTEX
  5
592
  8
LAYER_01
 10
2155.54776569155
 20
275.206331423294
 30
0.0
 42
-0.319886452134118
  0
VERTEX
  5
593
  8
LAYER_01
 10
2101.834254982875
 20
275.2063314232951
 30
0.0
 42
-0.3198864521342263
  0
SEQEND
  5
594
  8
LAYER_01
  0
POLYLINE
  5
595
  8
LAYER_01
 66
     1
 10
0.0
 20
0.0
 30
0.0
 70
     1
  0
VERTEX
  5
596
  8
LAYER_01
 10
1957.594352193903
 20
1957.887891049785
 30
0.0
 42
0.1791837651654772
  0
VERTEX
  5
597
  8
LAYER_01
 10
1998.323510853618
 20
1957.887891049784
 30
0.0
 42
0.1791837651654813
  0
VERTEX
  5
598
  8
LAYER_01
 10
1998.323510853618
 20
1917.158732390071
 30
0.0
 42
0.1791837651654808
  0
VERTEX
  5
599
  8
LAYER_01
 10
1957.594352193903
 20
1917.158732390071
 30
0.0
 42
0.1791837651654782
  0
SEQEND
  5
59A
  8
LAYER_01
  0
POLYLINE
  5
59B
  8
LAYER_01
 66
     1
 10
0.0
 20
0.0
 30
0.0
 70
     1
  0
VERTEX
  5
59C
  8
LAYER_01
 10
2476.429299853615
 20
1937.523311719928
 30
0.0
 42
0.1560484305471774
  0
VERTEX
  5
59D
  8
LAYER_01
 10
2467.838187667478
 20
1964.380067074264
 30
0.0
 42
0.3198864521343222
  0
VERTEX
  5
59E
  8
LAYER_01
 10
2467.838187667478
 20
1910.666556365592
 30
0.0
 42
0.1560484305471962
  0
SEQEND
  5
59F
  8
LAYER_01
  0
POLYLINE
  5
5A0
  8
LAYER_01
 66
     1
 10
0.0
 20
0.0
 30
0.0
 70
     1
  0
VERTEX
  5
5A1
  8
LAYER_01
 10
2325.697221040163
 20
1937.523311719928
 30
0.0
 42
0.156048430547359
  0
VERTEX
  5
5A2
  8
LAYER_01
 10
2317.106108854026
 20
1964.380067074264
 30
0.0
 42
0.3198864521341134
  0
VERTEX
  5
5A3
  8
LAYER_01
 10
2317.106108854026
 20
1910.666556365591
 30
0.0
 42
0.1560484305471623
  0
SEQEND
  5
5A4
  8
LAYER_01
  0
POLYLINE
  5
5A5
  8
LAYER_01
 66
     1
 10
0.0
 20
0.0
 30
0.0
 70
     1
  0
VERTEX
  5
5A6
  8
LAYER_01
 10
2381.645883911727
 20
1899.840292016565
 30
0.0
 42
0.3198864521343171
  0
VERTEX
  5
5A7
  8
LAYER_01
 10
2327.932373203053
 20
1899.840292016565
 30
0.0
 42
0.319886452134238
  0
SEQEND
  5
5A8
  8
LAYER_01
  0
POLYLINE
  5
5A9
  8
LAYER_01
 66
     1
 10
0.0
 20
0.0
 30
0.0
 70
     1
  0
VERTEX
  5
5AA
  8
LAYER_01
 10
2383.881036074615
 20
1937.523311719928
 30
0.0
 42
-0.1560484305471682
  0
VERTEX
  5
5AB
  8
LAYER_01
 10
2392.472148260752
 20
1964.380067074264
 30
0.0
 42
-0.3198864521341098
  0
VERTEX
  5
5AC
  8
LAYER_01
 10
2392.472148260752
 20
1910.666556365592
 30
0.0
 42
-0.1560484305471867
  0
SEQEND
  5
5AD
  8
LAYER_01
  0
POLYLINE
  5
5AE
  8
LAYER_01
 66
     1
 10
0.0
 20
0.0
 30
0.0
 70
     1
  0
VERTEX
  5
5AF
  8
LAYER_01
 10
2082.416878447712
 20
1937.523311719928
 30
0.0
 42
-0.156048430547183
  0
VERTEX
  5
5B0
  8
LAYER_01
 10
2091.00799063385
 20
1964.380067074264
 30
0.0
 42
-0.3198864521341175
  0
VERTEX
  5
5B1
  8
LAYER_01
 10
2091.007990633849
 20
1910.666556365591
 30
0.0
 42
-0.1560484305471926
  0
SEQEND
  5
5B2
  8
LAYER_01
  0
POLYLINE
  5
5B3
  8
LAYER_01
 66
     1
 10
0.0
 20
0.0
 30
0.0
 70
     1
  0
VERTEX
  5
5B4
  8
LAYER_01
 10
2381.645883911727
 20
275.2063314232939
 30
0.0
 42
-0.319886452134317
  0
VERTEX
  5
5B5
  8
LAYER_01
 10
2327.932373203053
 20
275.2063314232942
 30
0.0
 42
-0.3198864521341761
  0
SEQEND
  5
5B6
  8
LAYER_01
  0
POLYLINE
  5
5B7
  8
LAYER_01
 66
     1
 10
0.0
 20
0.0
 30
0.0
 70
     1
  0
VERTEX
  5
5B8
  8
LAYER_01
 10
2073.689550260343
 20
217.1587323900748
 30
0.0
 42
0.1791837651653773
  0
VERTEX
  5
5B9
  8
LAYER_01
 10
2032.960391600629
 20
217.1587323900746
 30
0.0
 42
0.1791837651654517
  0
VERTEX
  5
5BA
  8
LAYER_01
 10
2032.960391600629
 20
257.8878910497879
 30
0.0
 42
0.1791837651654884
  0
VERTEX
  5
5BB
  8
LAYER_01
 10
2073.689550260343
 20
257.8878910497879
 30
0.0
 42
0.1791837651654594
  0
SEQEND
  5
5BC
  8
LAYER_01
  0
POLYLINE
  5
5BD
  8
LAYER_01
 66
     1
 10
0.0
 20
0.0
 30
0.0
 70
     1
  0
VERTEX
  5
5BE
  8
LAYER_01
 10
2476.429299853615
 20
237.5233117199314
 30
0.0
 42
-0.1560484305472687
  0
VERTEX
  5
5BF
  8
LAYER_01
 10
2467.838187667478
 20
210.6665563655951
 30
0.0
 42
-0.3198864521342462
  0
VERTEX
  5
5C0
  8
LAYER_01
 10
2467.838187667478
 20
264.3800670742675
 30
0.0
 42
-0.1560484305472019
  0
SEQEND
  5
5C1
  8
LAYER_01
  0
POLYLINE
  5
5C2
  8
LAYER_01
 66
     1
 10
0.0
 20
0.0
 30
0.0
 70
     1
  0
VERTEX
  5
5C3
  8
LAYER_01
 10
2325.697221040163
 20
237.5233117199314
 30
0.0
 42
-0.1560484305472594
  0
VERTEX
  5
5C4
  8
LAYER_01
 10
2317.106108854026
 20
210.6665563655951
 30
0.0
 42
-0.3198864521342159
  0
VERTEX
  5
5C5
  8
LAYER_01
 10
2317.106108854026
 20
264.3800670742676
 30
0.0
 42
-0.1560484305471636
  0
SEQEND
  5
5C6
  8
LAYER_01
  0
POLYLINE
  5
5C7
  8
LAYER_01
 66
     1
 10
0.0
 20
0.0
 30
0.0
 70
     1
  0
VERTEX
  5
5C8
  8
LAYER_01
 10
2383.881036074616
 20
237.5233117199314
 30
0.0
 42
0.1560484305472594
  0
VERTEX
  5
5C9
  8
LAYER_01
 10
2392.472148260752
 20
210.6665563655951
 30
0.0
 42
0.319886452134194
  0
VERTEX
  5
5CA
  8
LAYER_01
 10
2392.472148260752
 20
264.3800670742676
 30
0.0
 42
0.1560484305472444
  0
SEQEND
  5
5CB
  8
LAYER_01
  0
POLYLINE
  5
5CC
  8
LAYER_01
 66
     1
 10
0.0
 20
0.0
 30
0.0
 70
     1
  0
VERTEX
  5
5CD
  8
LAYER_01
 10
2082.416878447712
 20
237.5233117199314
 30
0.0
 42
0.1560484305472502
  0
VERTEX
  5
5CE
  8
LAYER_01
 10
2091.00799063385
 20
210.6665563655949
 30
0.0
 42
0.3198864521342167
  0
VERTEX
  5
5CF
  8
LAYER_01
 10
2091.00799063385
 20
264.3800670742675
 30
0.0
 42
0.1560484305472019
  0
SEQEND
  5
5D0
  8
LAYER_01
  0
POLYLINE
  5
5D1
  8
LAYER_01
 66
     1
 10
0.0
 20
0.0
 30
0.0
 70
     1
  0
VERTEX
  5
5D2
  8
LAYER_01
 10
2381.645883911727
 20
199.8402920165691
 30
0.0
 42
0.3198864521343263
  0
VERTEX
  5
5D3
  8
LAYER_01
 10
2327.932373203053
 20
199.8402920165688
 30
0.0
 42
0.3198864521342335
  0
SEQEND
  5
5D4
  8
LAYER_01
  0
POLYLINE
  5
5D5
  8
LAYER_01
 66
     1
 10
0.0
 20
0.0
 30
0.0
 70
     1
  0
VERTEX
  5
5D6
  8
LAYER_01
 10
2177.200294389601
 20
275.2063314232938
 30
0.0
 42
0.3198864521343178
  0
VERTEX
  5
5D7
  8
LAYER_01
 10
2230.913805098274
 20
275.2063314232942
 30
0.0
 42
0.3198864521342382
  0
SEQEND
  5
5D8
  8
LAYER_01
  0
POLYLINE
  5
5D9
  8
LAYER_01
 66
     1
 10
0.0
 20
0.0
 30
0.0
 70
     1
  0
VERTEX
  5
5DA
  8
LAYER_01
 10
1957.594352193903
 20
217.1587323900744
 30
0.0
 42
-0.1791837651654861
  0
VERTEX
  5
5DB
  8
LAYER_01
 10
1998.323510853618
 20
217.1587323900745
 30
0.0
 42
-0.1791837651654263
  0
VERTEX
  5
5DC
  8
LAYER_01
 10
1998.323510853618
 20
257.8878910497884
 30
0.0
 42
-0.1791837651654914
  0
VERTEX
  5
5DD
  8
LAYER_01
 10
1957.594352193903
 20
257.8878910497883
 30
0.0
 42
-0.1791837651654351
  0
SEQEND
  5
5DE
  8
LAYER_01
  0
POLYLINE
  5
5DF
  8
LAYER_01
 66
     1
 10
0.0
 20
0.0
 30
0.0
 70
     1
  0
VERTEX
  5
5E0
  8
LAYER_01
 10
2430.155167964115
 20
208.4314042027052
 30
0.0
 42
0.1560484305473149
  0
VERTEX
  5
5E1
  8
LAYER_01
 10
2403.298412609778
 20
199.8402920165684
 30
0.0
 42
0.3198864521343459
  0
VERTEX
  5
5E2
  8
LAYER_01
 10
2457.011923318453
 20
199.8402920165694
 30
0.0
 42
0.1560484305473404
  0
SEQEND
  5
5E3
  8
LAYER_01
  0
POLYLINE
  5
5E4
  8
LAYER_01
 66
     1
 10
0.0
 20
0.0
 30
0.0
 70
     1
  0
VERTEX
  5
5E5
  8
LAYER_01
 10
2403.298412609778
 20
275.2063314232942
 30
0.0
 42
0.319886452134113
  0
VERTEX
  5
5E6
  8
LAYER_01
 10
2457.011923318452
 20
275.206331423294
 30
0.0
 42
0.3198864521342449
  0
SEQEND
  5
5E7
  8
LAYER_01
  0
POLYLINE
  5
5E8
  8
LAYER_01
 66
     1
 10
0.0
 20
0.0
 30
0.0
 70
     1
  0
VERTEX
  5
5E9
  8
LAYER_01
 10
2381.645883911727
 20
1975.20633142329
 30
0.0
 42
-0.3198864521343859
  0
VERTEX
  5
5EA
  8
LAYER_01
 10
2327.932373203053
 20
1975.20633142329
 30
0.0
 42
-0.3198864521342363
  0
SEQEND
  5
5EB
  8
LAYER_01
  0
POLYLINE
  5
5EC
  8
LAYER_01
 66
     1
 10
0.0
 20
0.0
 30
0.0
 70
     1
  0
VERTEX
  5
5ED
  8
LAYER_01
 10
2430.155167964115
 20
1966.615219237154
 30
0.0
 42
-0.1560484305473472
  0
VERTEX
  5
5EE
  8
LAYER_01
 10
2403.298412609778
 20
1975.20633142329
 30
0.0
 42
-0.3198864521343903
  0
VERTEX
  5
5EF
  8
LAYER_01
 10
2457.011923318453
 20
1975.20633142329
 30
0.0
 42
-0.1560484305473494
  0
SEQEND
  5
5F0
  8
LAYER_01
  0
POLYLINE
  5
5F1
  8
LAYER_01
 66
     1
 10
0.0
 20
0.0
 30
0.0
 70
     1
  0
VERTEX
  5
5F2
  8
LAYER_01
 10
2177.200294389601
 20
1899.840292016565
 30
0.0
 42
-0.3198864521343244
  0
VERTEX
  5
5F3
  8
LAYER_01
 10
2230.913805098274
 20
1899.840292016565
 30
0.0
 42
-0.3198864521342346
  0
SEQEND
  5
5F4
  8
LAYER_01
  0
POLYLINE
  5
5F5
  8
LAYER_01
 66
     1
 10
0.0
 20
0.0
 30
0.0
 70
     1
  0
VERTEX
  5
5F6
  8
LAYER_01
 10
2177.2002943896
 20
1975.20633142329
 30
0.0
 42
0.3198864521343123
  0
VERTEX
  5
5F7
  8
LAYER_01
 10
2230.913805098274
 20
1975.206331423289
 30
0.0
 42
0.3198864521342483
  0
SEQEND
  5
5F8
  8
LAYER_01
  0
POLYLINE
  5
5F9
  8
LAYER_01
 66
     1
 10
0.0
 20
0.0
 30
0.0
 70
     1
  0
VERTEX
  5
5FA
  8
LAYER_01
 10
1977.958931523761
 20
1966.615219237154
 30
0.0
 42
-0.1560484305473536
  0
VERTEX
  5
5FB
  8
LAYER_01
 10
1951.102176169424
 20
1975.20633142329
 30
0.0
 42
-0.3198864521342184
  0
VERTEX
  5
5FC
  8
LAYER_01
 10
2004.815686878098
 20
1975.20633142329
 30
0.0
 42
-0.1560484305473515
  0
SEQEND
  5
5FD
  8
LAYER_01
  0
POLYLINE
  5
5FE
  8
LAYER_01
 66
     1
 10
0.0
 20
0.0
 30
0.0
 70
     1
  0
VERTEX
  5
5FF
  8
LAYER_01
 10
1951.102176169424
 20
1899.840292016565
 30
0.0
 42
-0.3198864521342094
  0
VERTEX
  5
600
  8
LAYER_01
 10
2004.815686878097
 20
1899.840292016565
 30
0.0
 42
-0.3198864521342423
  0
SEQEND
  5
601
  8
LAYER_01
  0
POLYLINE
  5
602
  8
LAYER_01
 66
     1
 10
0.0
 20
0.0
 30
0.0
 70
     1
  0
VERTEX
  5
603
  8
LAYER_01
 10
1977.958931523761
 20
208.4314042027052
 30
0.0
 42
0.156048430547353
  0
VERTEX
  5
604
  8
LAYER_01
 10
1951.102176169424
 20
199.8402920165686
 30
0.0
 42
0.3198864521342171
  0
VERTEX
  5
605
  8
LAYER_01
 10
2004.815686878098
 20
199.8402920165685
 30
0.0
 42
0.1560484305473585
  0
SEQEND
  5
606
  8
LAYER_01
  0
POLYLINE
  5
607
  8
LAYER_01
 66
     1
 10
0.0
 20
0.0
 30
0.0
 70
     1
  0
VERTEX
  5
608
  8
LAYER_01
 10
1922.957471446892
 20
217.1587323900749
 30
0.0
 42
0.1791837651654841
  0
VERTEX
  5
609
  8
LAYER_01
 10
1882.228312787178
 20
217.158732390075
 30
0.0
 42
0.1791837651654229
  0
VERTEX
  5
60A
  8
LAYER_01
 10
1882.228312787178
 20
257.8878910497878
 30
0.0
 42
0.1791837651654885
  0
VERTEX
  5
60B
  8
LAYER_01
 10
1922.957471446892
 20
257.8878910497879
 30
0.0
 42
0.1791837651654535
  0
SEQEND
  5
60C
  8
LAYER_01
  0
POLYLINE
  5
60D
  8
LAYER_01
 66
     1
 10
0.0
 20
0.0
 30
0.0
 70
     1
  0
VERTEX
  5
60E
  8
LAYER_01
 10
1951.102176169424
 20
275.2063314232941
 30
0.0
 42
0.3198864521342116
  0
VERTEX
  5
60F
  8
LAYER_01
 10
2004.815686878097
 20
275.2063314232937
 30
0.0
 42
0.3198864521342118
  0
SEQEND
  5
610
  8
LAYER_01
  0
POLYLINE
  5
611
  8
LAYER_01
 66
     1
 10
0.0
 20
0.0
 30
0.0
 70
     1
  0
VERTEX
  5
612
  8
LAYER_01
 10
1806.862273380452
 20
257.8878910497884
 30
0.0
 42
-0.1791837651654788
  0
VERTEX
  5
613
  8
LAYER_01
 10
1806.862273380452
 20
217.1587323900745
 30
0.0
 42
-0.1791837651654941
  0
VERTEX
  5
614
  8
LAYER_01
 10
1847.591432040167
 20
217.1587323900745
 30
0.0
 42
-0.1791837651654231
  0
VERTEX
  5
615
  8
LAYER_01
 10
1847.591432040167
 20
257.8878910497884
 30
0.0
 42
-0.1791837651654501
  0
SEQEND
  5
616
  8
LAYER_01
  0
POLYLINE
  5
617
  8
LAYER_01
 66
     1
 10
0.0
 20
0.0
 30
0.0
 70
     1
  0
VERTEX
  5
618
  8
LAYER_01
 10
1806.862273380452
 20
1917.158732390071
 30
0.0
 42
0.1791837651654812
  0
VERTEX
  5
619
  8
LAYER_01
 10
1806.862273380452
 20
1957.887891049785
 30
0.0
 42
0.1791837651654837
  0
VERTEX
  5
61A
  8
LAYER_01
 10
1847.591432040167
 20
1957.887891049784
 30
0.0
 42
0.1791837651654788
  0
VERTEX
  5
61B
  8
LAYER_01
 10
1847.591432040167
 20
1917.15873239007
 30
0.0
 42
0.1791837651654565
  0
SEQEND
  5
61C
  8
LAYER_01
  0
POLYLINE
  5
61D
  8
LAYER_01
 66
     1
 10
0.0
 20
0.0
 30
0.0
 70
     1
  0
VERTEX
  5
61E
  8
LAYER_01
 10
1827.226852710309
 20
1891.249179830429
 30
0.0
 42
0.1560484305473446
  0
VERTEX
  5
61F
  8
LAYER_01
 10
1854.083608064647
 20
1899.840292016565
 30
0.0
 42
0.3198864521342123
  0
VERTEX
  5
620
  8
LAYER_01
 10
1800.370097355973
 20
1899.840292016565
 30
0.0
 42
0.1560484305473523
  0
SEQEND
  5
621
  8
LAYER_01
  0
POLYLINE
  5
622
  8
LAYER_01
 66
     1
 10
0.0
 20
0.0
 30
0.0
 70
     1
  0
VERTEX
  5
623
  8
LAYER_01
 10
1827.226852710309
 20
1983.797443609427
 30
0.0
 42
-0.1560484305473446
  0
VERTEX
  5
624
  8
LAYER_01
 10
1854.083608064647
 20
1975.206331423291
 30
0.0
 42
-0.3198864521342123
  0
VERTEX
  5
625
  8
LAYER_01
 10
1800.370097355973
 20
1975.206331423291
 30
0.0
 42
-0.1560484305473529
  0
SEQEND
  5
626
  8
LAYER_01
  0
POLYLINE
  5
627
  8
LAYER_01
 66
     1
 10
0.0
 20
0.0
 30
0.0
 70
     1
  0
VERTEX
  5
628
  8
LAYER_01
 10
1780.95272082081
 20
1937.523311719928
 30
0.0
 42
-0.1560484305473586
  0
VERTEX
  5
629
  8
LAYER_01
 10
1789.543833006947
 20
1964.380067074264
 30
0.0
 42
-0.3198864521342115
  0
VERTEX
  5
62A
  8
LAYER_01
 10
1789.543833006947
 20
1910.666556365591
 30
0.0
 42
-0.1560484305473691
  0
SEQEND
  5
62B
  8
LAYER_01
  0
POLYLINE
  5
62C
  8
LAYER_01
 66
     1
 10
0.0
 20
0.0
 30
0.0
 70
     1
  0
VERTEX
  5
62D
  8
LAYER_01
 10
2259.058509820807
 20
1957.887891049785
 30
0.0
 42
0.1791837651653683
  0
VERTEX
  5
62E
  8
LAYER_01
 10
2299.787668480521
 20
1957.887891049784
 30
0.0
 42
0.1791837651654828
  0
VERTEX
  5
62F
  8
LAYER_01
 10
2299.787668480521
 20
1917.158732390071
 30
0.0
 42
0.1791837651653683
  0
VERTEX
  5
630
  8
LAYER_01
 10
2259.058509820806
 20
1917.158732390071
 30
0.0
 42
0.1791837651654721
  0
SEQEND
  5
631
  8
LAYER_01
  0
POLYLINE
  5
632
  8
LAYER_01
 66
     1
 10
0.0
 20
0.0
 30
0.0
 70
     1
  0
VERTEX
  5
633
  8
LAYER_01
 10
1922.957471446892
 20
1957.887891049784
 30
0.0
 42
-0.1791837651654763
  0
VERTEX
  5
634
  8
LAYER_01
 10
1882.228312787178
 20
1957.887891049784
 30
0.0
 42
-0.1791837651654756
  0
VERTEX
  5
635
  8
LAYER_01
 10
1882.228312787178
 20
1917.158732390071
 30
0.0
 42
-0.1791837651654783
  0
VERTEX
  5
636
  8
LAYER_01
 10
1922.957471446892
 20
1917.158732390071
 30
0.0
 42
-0.1791837651654755
  0
SEQEND
  5
637
  8
LAYER_01
  0
POLYLINE
  5
638
  8
LAYER_01
 66
     1
 10
0.0
 20
0.0
 30
0.0
 70
     1
  0
VERTEX
  5
639
  8
LAYER_01
 10
2024.23306341326
 20
1937.523311719928
 30
0.0
 42
0.1560484305473594
  0
VERTEX
  5
63A
  8
LAYER_01
 10
2015.641951227124
 20
1964.380067074264
 30
0.0
 42
0.3198864521342112
  0
VERTEX
  5
63B
  8
LAYER_01
 10
2015.641951227123
 20
1910.666556365592
 30
0.0
 42
0.1560484305473663
  0
SEQEND
  5
63C
  8
LAYER_01
  0
POLYLINE
  5
63D
  8
LAYER_01
 66
     1
 10
0.0
 20
0.0
 30
0.0
 70
     1
  0
VERTEX
  5
63E
  8
LAYER_01
 10
1873.500984599809
 20
1937.523311719928
 30
0.0
 42
0.1560484305473594
  0
VERTEX
  5
63F
  8
LAYER_01
 10
1864.909872413672
 20
1964.380067074264
 30
0.0
 42
0.3198864521342115
  0
VERTEX
  5
640
  8
LAYER_01
 10
1864.909872413672
 20
1910.666556365591
 30
0.0
 42
0.1560484305473709
  0
SEQEND
  5
641
  8
LAYER_01
  0
POLYLINE
  5
642
  8
LAYER_01
 66
     1
 10
0.0
 20
0.0
 30
0.0
 70
     1
  0
VERTEX
  5
643
  8
LAYER_01
 10
1929.449647471372
 20
1899.840292016565
 30
0.0
 42
0.319886452134213
  0
VERTEX
  5
644
  8
LAYER_01
 10
1875.736136762699
 20
1899.840292016565
 30
0.0
 42
0.3198864521342388
  0
SEQEND
  5
645
  8
LAYER_01
  0
POLYLINE
  5
646
  8
LAYER_01
 66
     1
 10
0.0
 20
0.0
 30
0.0
 70
     1
  0
VERTEX
  5
647
  8
LAYER_01
 10
1931.684799634261
 20
1937.523311719928
 30
0.0
 42
-0.1560484305473594
  0
VERTEX
  5
648
  8
LAYER_01
 10
1940.275911820398
 20
1964.380067074264
 30
0.0
 42
-0.3198864521342115
  0
VERTEX
  5
649
  8
LAYER_01
 10
1940.275911820398
 20
1910.666556365591
 30
0.0
 42
-0.1560484305473698
  0
SEQEND
  5
64A
  8
LAYER_01
  0
POLYLINE
  5
64B
  8
LAYER_01
 66
     1
 10
0.0
 20
0.0
 30
0.0
 70
     1
  0
VERTEX
  5
64C
  8
LAYER_01
 10
2080.181726284824
 20
1899.840292016565
 30
0.0
 42
0.319886452134317
  0
VERTEX
  5
64D
  8
LAYER_01
 10
2026.46821557615
 20
1899.840292016566
 30
0.0
 42
0.3198864521342439
  0
SEQEND
  5
64E
  8
LAYER_01
  0
POLYLINE
  5
64F
  8
LAYER_01
 66
     1
 10
0.0
 20
0.0
 30
0.0
 70
     1
  0
VERTEX
  5
650
  8
LAYER_01
 10
2155.54776569155
 20
1899.840292016565
 30
0.0
 42
0.319886452134319
  0
VERTEX
  5
651
  8
LAYER_01
 10
2101.834254982875
 20
1899.840292016564
 30
0.0
 42
0.3198864521342257
  0
SEQEND
  5
652
  8
LAYER_01
  0
POLYLINE
  5
653
  8
LAYER_01
 66
     1
 10
0.0
 20
0.0
 30
0.0
 70
     1
  0
VERTEX
  5
654
  8
LAYER_01
 10
2233.148957261164
 20
1937.523311719928
 30
0.0
 42
-0.1560484305473681
  0
VERTEX
  5
655
  8
LAYER_01
 10
2241.740069447301
 20
1964.380067074264
 30
0.0
 42
-0.319886452134115
  0
VERTEX
  5
656
  8
LAYER_01
 10
2241.740069447301
 20
1910.666556365592
 30
0.0
 42
-0.1560484305471687
  0
SEQEND
  5
657
  8
LAYER_01
  0
POLYLINE
  5
658
  8
LAYER_01
 66
     1
 10
0.0
 20
0.0
 30
0.0
 70
     1
  0
VERTEX
  5
659
  8
LAYER_01
 10
2128.691010337212
 20
1966.615219237154
 30
0.0
 42
0.156048430547352
  0
VERTEX
  5
65A
  8
LAYER_01
 10
2155.54776569155
 20
1975.20633142329
 30
0.0
 42
0.3198864521343132
  0
VERTEX
  5
65B
  8
LAYER_01
 10
2101.834254982874
 20
1975.20633142329
 30
0.0
 42
0.1560484305473379
  0
SEQEND
  5
65C
  8
LAYER_01
  0
POLYLINE
  5
65D
  8
LAYER_01
 66
     1
 10
0.0
 20
0.0
 30
0.0
 70
     1
  0
VERTEX
  5
65E
  8
LAYER_01
 10
2174.965142226712
 20
1937.523311719928
 30
0.0
 42
0.1560484305473606
  0
VERTEX
  5
65F
  8
LAYER_01
 10
2166.374030040575
 20
1964.380067074264
 30
0.0
 42
0.3198864521341098
  0
VERTEX
  5
660
  8
LAYER_01
 10
2166.374030040575
 20
1910.666556365592
 30
0.0
 42
0.1560484305471664
  0
SEQEND
  5
661
  8
LAYER_01
  0
POLYLINE
  5
662
  8
LAYER_01
 66
     1
 10
0.0
 20
0.0
 30
0.0
 70
     1
  0
VERTEX
  5
663
  8
LAYER_01
 10
1827.226852710309
 20
191.2491798304325
 30
0.0
 42
0.1560484305473344
  0
VERTEX
  5
664
  8
LAYER_01
 10
1854.083608064646
 20
199.8402920165687
 30
0.0
 42
0.3198864521342212
  0
VERTEX
  5
665
  8
LAYER_01
 10
1800.370097355973
 20
199.8402920165682
 30
0.0
 42
0.1560484305473513
  0
SEQEND
  5
666
  8
LAYER_01
  0
POLYLINE
  5
667
  8
LAYER_01
 66
     1
 10
0.0
 20
0.0
 30
0.0
 70
     1
  0
VERTEX
  5
668
  8
LAYER_01
 10
1929.449647471372
 20
275.2063314232937
 30
0.0
 42
-0.3198864521342151
  0
VERTEX
  5
669
  8
LAYER_01
 10
1875.736136762698
 20
275.2063314232936
 30
0.0
 42
-0.3198864521342085
  0
SEQEND
  5
66A
  8
LAYER_01
  0
POLYLINE
  5
66B
  8
LAYER_01
 66
     1
 10
0.0
 20
0.0
 30
0.0
 70
     1
  0
VERTEX
  5
66C
  8
LAYER_01
 10
2080.181726284824
 20
275.2063314232938
 30
0.0
 42
-0.3198864521341127
  0
VERTEX
  5
66D
  8
LAYER_01
 10
2026.46821557615
 20
275.2063314232939
 30
0.0
 42
-0.3198864521342076
  0
SEQEND
  5
66E
  8
LAYER_01
  0
POLYLINE
  5
66F
  8
LAYER_01
 66
     1
 10
0.0
 20
0.0
 30
0.0
 70
     1
  0
VERTEX
  5
670
  8
LAYER_01
 10
2259.058509820807
 20
217.1587323900743
 30
0.0
 42
-0.1791837651653747
  0
VERTEX
  5
671
  8
LAYER_01
 10
2299.787668480521
 20
217.1587323900745
 30
0.0
 42
-0.1791837651654515
  0
VERTEX
  5
672
  8
LAYER_01
 10
2299.787668480521
 20
257.8878910497883
 30
0.0
 42
-0.1791837651653788
  0
VERTEX
  5
673
  8
LAYER_01
 10
2259.058509820806
 20
257.8878910497883
 30
0.0
 42
-0.1791837651654174
  0
SEQEND
  5
674
  8
LAYER_01
  0
POLYLINE
  5
675
  8
LAYER_01
 66
     1
 10
0.0
 20
0.0
 30
0.0
 70
     1
  0
VERTEX
  5
676
  8
LAYER_01
 10
2233.148957261164
 20
237.5233117199314
 30
0.0
 42
0.1560484305472684
  0
VERTEX
  5
677
  8
LAYER_01
 10
2241.740069447301
 20
210.6665563655951
 30
0.0
 42
0.3198864521342158
  0
VERTEX
  5
678
  8
LAYER_01
 10
2241.740069447301
 20
264.3800670742675
 30
0.0
 42
0.1560484305472456
  0
SEQEND
  5
679
  8
LAYER_01
  0
POLYLINE
  5
67A
  8
LAYER_01
 66
     1
 10
0.0
 20
0.0
 30
0.0
 70
     1
  0
VERTEX
  5
67B
  8
LAYER_01
 10
2174.965142226712
 20
237.5233117199314
 30
0.0
 42
-0.1560484305472594
  0
VERTEX
  5
67C
  8
LAYER_01
 10
2166.374030040575
 20
210.6665563655951
 30
0.0
 42
-0.319886452134194
  0
VERTEX
  5
67D
  8
LAYER_01
 10
2166.374030040575
 20
264.3800670742676
 30
0.0
 42
-0.1560484305472444
  0
SEQEND
  5
67E
  8
LAYER_01
  0
POLYLINE
  5
67F
  8
LAYER_01
 66
     1
 10
0.0
 20
0.0
 30
0.0
 70
     1
  0
VERTEX
  5
680
  8
LAYER_01
 10
1780.95272082081
 20
237.5233117199314
 30
0.0
 42
0.1560484305473802
  0
VERTEX
  5
681
  8
LAYER_01
 10
1789.543833006946
 20
210.666556365595
 30
0.0
 42
0.3198864521343964
  0
VERTEX
  5
682
  8
LAYER_01
 10
1789.543833006947
 20
264.3800670742676
 30
0.0
 42
0.1560484305473676
  0
SEQEND
  5
683
  8
LAYER_01
  0
POLYLINE
  5
684
  8
LAYER_01
 66
     1
 10
0.0
 20
0.0
 30
0.0
 70
     1
  0
VERTEX
  5
685
  8
LAYER_01
 10
2024.23306341326
 20
237.5233117199314
 30
0.0
 42
-0.1560484305473824
  0
VERTEX
  5
686
  8
LAYER_01
 10
2015.641951227124
 20
210.6665563655951
 30
0.0
 42
-0.3198864521343947
  0
VERTEX
  5
687
  8
LAYER_01
 10
2015.641951227123
 20
264.3800670742676
 30
0.0
 42
-0.1560484305473663
  0
SEQEND
  5
688
  8
LAYER_01
  0
POLYLINE
  5
689
  8
LAYER_01
 66
     1
 10
0.0
 20
0.0
 30
0.0
 70
     1
  0
VERTEX
  5
68A
  8
LAYER_01
 10
1873.500984599809
 20
237.5233117199314
 30
0.0
 42
-0.1560484305473824
  0
VERTEX
  5
68B
  8
LAYER_01
 10
1864.909872413672
 20
210.666556365595
 30
0.0
 42
-0.3198864521343949
  0
VERTEX
  5
68C
  8
LAYER_01
 10
1864.909872413672
 20
264.3800670742676
 30
0.0
 42
-0.1560484305473654
  0
SEQEND
  5
68D
  8
LAYER_01
  0
POLYLINE
  5
68E
  8
LAYER_01
 66
     1
 10
0.0
 20
0.0
 30
0.0
 70
     1
  0
VERTEX
  5
68F
  8
LAYER_01
 10
1931.684799634261
 20
237.5233117199314
 30
0.0
 42
0.1560484305473817
  0
VERTEX
  5
690
  8
LAYER_01
 10
1940.275911820398
 20
210.666556365595
 30
0.0
 42
0.3198864521343466
  0
VERTEX
  5
691
  8
LAYER_01
 10
1940.275911820398
 20
264.3800670742676
 30
0.0
 42
0.1560484305473625
  0
SEQEND
  5
692
  8
LAYER_01
  0
POLYLINE
  5
693
  8
LAYER_01
 66
     1
 10
0.0
 20
0.0
 30
0.0
 70
     1
  0
VERTEX
  5
694
  8
LAYER_01
 10
1929.449647471372
 20
199.8402920165691
 30
0.0
 42
0.3198864521342243
  0
VERTEX
  5
695
  8
LAYER_01
 10
1875.736136762699
 20
199.8402920165691
 30
0.0
 42
0.319886452134206
  0
SEQEND
  5
696
  8
LAYER_01
  0
POLYLINE
  5
697
  8
LAYER_01
 66
     1
 10
0.0
 20
0.0
 30
0.0
 70
     1
  0
VERTEX
  5
698
  8
LAYER_01
 10
2080.181726284824
 20
199.8402920165689
 30
0.0
 42
0.3198864521341127
  0
VERTEX
  5
699
  8
LAYER_01
 10
2026.46821557615
 20
199.840292016569
 30
0.0
 42
0.3198864521342115
  0
SEQEND
  5
69A
  8
LAYER_01
  0
POLYLINE
  5
69B
  8
LAYER_01
 66
     1
 10
0.0
 20
0.0
 30
0.0
 70
     1
  0
VERTEX
  5
69C
  8
LAYER_01
 10
2128.691010337212
 20
208.4314042027054
 30
0.0
 42
-0.1560484305473514
  0
VERTEX
  5
69D
  8
LAYER_01
 10
2155.54776569155
 20
199.8402920165691
 30
0.0
 42
-0.3198864521343587
  0
VERTEX
  5
69E
  8
LAYER_01
 10
2101.834254982874
 20
199.8402920165689
 30
0.0
 42
-0.1560484305473556
  0
SEQEND
  5
69F
  8
LAYER_01
  0
POLYLINE
  5
6A0
  8
LAYER_01
 66
     1
 10
0.0
 20
0.0
 30
0.0
 70
     1
  0
VERTEX
  5
6A1
  8
LAYER_01
 10
1827.226852710309
 20
283.7974436094302
 30
0.0
 42
-0.1560484305473205
  0
VERTEX
  5
6A2
  8
LAYER_01
 10
1854.083608064646
 20
275.2063314232943
 30
0.0
 42
-0.3198864521342157
  0
VERTEX
  5
6A3
  8
LAYER_01
 10
1800.370097355972
 20
275.2063314232943
 30
0.0
 42
-0.1560484305473489
  0
SEQEND
  5
6A4
  8
LAYER_01
  0
POLYLINE
  5
6A5
  8
LAYER_01
 66
     1
 10
0.0
 20
0.0
 30
0.0
 70
     1
  0
VERTEX
  5
6A6
  8
LAYER_01
 10
2375.153707887246
 20
217.158732390075
 30
0.0
 42
0.1791837651653737
  0
VERTEX
  5
6A7
  8
LAYER_01
 10
2334.424549227533
 20
217.158732390075
 30
0.0
 42
0.1791837651654192
  0
VERTEX
  5
6A8
  8
LAYER_01
 10
2334.424549227533
 20
257.8878910497879
 30
0.0
 42
0.1791837651653686
  0
VERTEX
  5
6A9
  8
LAYER_01
 10
2375.153707887246
 20
257.8878910497877
 30
0.0
 42
0.1791837651654364
  0
SEQEND
  5
6AA
  8
LAYER_01
  0
POLYLINE
  5
6AB
  8
LAYER_01
 66
     1
 10
0.0
 20
0.0
 30
0.0
 70
     1
  0
VERTEX
  5
6AC
  8
LAYER_01
 10
2279.423089150663
 20
266.6152192371579
 30
0.0
 42
-0.1560484305473514
  0
VERTEX
  5
6AD
  8
LAYER_01
 10
2252.566333796327
 20
275.2063314232939
 30
0.0
 42
-0.3198864521343548
  0
VERTEX
  5
6AE
  8
LAYER_01
 10
2306.279844505001
 20
275.2063314232942
 30
0.0
 42
-0.1560484305473479
  0
SEQEND
  5
6AF
  8
LAYER_01
  0
POLYLINE
  5
6B0
  8
LAYER_01
 66
     1
 10
0.0
 20
0.0
 30
0.0
 70
     1
  0
VERTEX
  5
6B1
  8
LAYER_01
 10
2279.423089150663
 20
208.4314042027051
 30
0.0
 42
0.1560484305473545
  0
VERTEX
  5
6B2
  8
LAYER_01
 10
2252.566333796326
 20
199.8402920165688
 30
0.0
 42
0.3198864521343541
  0
VERTEX
  5
6B3
  8
LAYER_01
 10
2306.279844505001
 20
199.8402920165688
 30
0.0
 42
0.1560484305473475
  0
SEQEND
  5
6B4
  8
LAYER_01
  0
POLYLINE
  5
6B5
  8
LAYER_01
 66
     1
 10
0.0
 20
0.0
 30
0.0
 70
     1
  0
VERTEX
  5
6B6
  8
LAYER_01
 10
2177.200294389601
 20
199.8402920165692
 30
0.0
 42
-0.3198864521343588
  0
VERTEX
  5
6B7
  8
LAYER_01
 10
2230.913805098274
 20
199.8402920165692
 30
0.0
 42
-0.3198864521342406
  0
SEQEND
  5
6B8
  8
LAYER_01
  0
POLYLINE
  5
6B9
  8
LAYER_01
 66
     1
 10
0.0
 20
0.0
 30
0.0
 70
     1
  0
VERTEX
  5
6BA
  8
LAYER_01
 10
2073.689550260343
 20
1957.887891049784
 30
0.0
 42
-0.1791837651653651
  0
VERTEX
  5
6BB
  8
LAYER_01
 10
2032.960391600629
 20
1957.887891049784
 30
0.0
 42
-0.1791837651654744
  0
VERTEX
  5
6BC
  8
LAYER_01
 10
2032.960391600629
 20
1917.158732390072
 30
0.0
 42
-0.1791837651653686
  0
VERTEX
  5
6BD
  8
LAYER_01
 10
2073.689550260343
 20
1917.158732390071
 30
0.0
 42
-0.1791837651654502
  0
SEQEND
  5
6BE
  8
LAYER_01
  0
POLYLINE
  5
6BF
  8
LAYER_01
 66
     1
 10
0.0
 20
0.0
 30
0.0
 70
     1
  0
VERTEX
  5
6C0
  8
LAYER_01
 10
2375.153707887246
 20
1957.887891049784
 30
0.0
 42
-0.1791837651653745
  0
VERTEX
  5
6C1
  8
LAYER_01
 10
2334.424549227534
 20
1957.887891049784
 30
0.0
 42
-0.1791837651654701
  0
VERTEX
  5
6C2
  8
LAYER_01
 10
2334.424549227533
 20
1917.158732390071
 30
0.0
 42
-0.1791837651653636
  0
VERTEX
  5
6C3
  8
LAYER_01
 10
2375.153707887246
 20
1917.158732390072
 30
0.0
 42
-0.1791837651654526
  0
SEQEND
  5
6C4
  8
LAYER_01
  0
POLYLINE
  5
6C5
  8
LAYER_01
 66
     1
 10
0.0
 20
0.0
 30
0.0
 70
     1
  0
VERTEX
  5
6C6
  8
LAYER_01
 10
2204.057049743938
 20
1954.23888904945
 30
0.0
 42
-0.0888840728088288
  0
VERTEX
  5
6C7
  8
LAYER_01
 10
2183.692470414081
 20
1957.887891049784
 30
0.0
 42
-0.1791837651654779
  0
VERTEX
  5
6C8
  8
LAYER_01
 10
2183.692470414081
 20
1917.158732390071
 30
0.0
 42
-0.1791837651653688
  0
VERTEX
  5
6C9
  8
LAYER_01
 10
2224.421629073794
 20
1917.158732390071
 30
0.0
 42
-0.1791837651654725
  0
VERTEX
  5
6CA
  8
LAYER_01
 10
2224.421629073795
 20
1957.887891049784
 30
0.0
 42
-0.0888840728088315
  0
SEQEND
  5
6CB
  8
LAYER_01
  0
POLYLINE
  5
6CC
  8
LAYER_01
 66
     1
 10
0.0
 20
0.0
 30
0.0
 70
     1
  0
VERTEX
  5
6CD
  8
LAYER_01
 10
1929.449647471372
 20
1975.20633142329
 30
0.0
 42
-0.3198864521342154
  0
VERTEX
  5
6CE
  8
LAYER_01
 10
1875.736136762699
 20
1975.20633142329
 30
0.0
 42
-0.3198864521342373
  0
SEQEND
  5
6CF
  8
LAYER_01
  0
POLYLINE
  5
6D0
  8
LAYER_01
 66
     1
 10
0.0
 20
0.0
 30
0.0
 70
     1
  0
VERTEX
  5
6D1
  8
LAYER_01
 10
2403.298412609778
 20
1899.840292016565
 30
0.0
 42
-0.3198864521343156
  0
VERTEX
  5
6D2
  8
LAYER_01
 10
2457.011923318452
 20
1899.840292016565
 30
0.0
 42
-0.3198864521342363
  0
SEQEND
  5
6D3
  8
LAYER_01
  0
POLYLINE
  5
6D4
  8
LAYER_01
 66
     1
 10
0.0
 20
0.0
 30
0.0
 70
     1
  0
VERTEX
  5
6D5
  8
LAYER_01
 10
2080.181726284824
 20
1975.20633142329
 30
0.0
 42
-0.3198864521343128
  0
VERTEX
  5
6D6
  8
LAYER_01
 10
2026.46821557615
 20
1975.20633142329
 30
0.0
 42
-0.319886452134253
  0
SEQEND
  5
6D7
  8
LAYER_01
  0
POLYLINE
  5
6D8
  8
LAYER_01
 66
     1
 10
0.0
 20
0.0
 30
0.0
 70
     1
  0
VERTEX
  5
6D9
  8
LAYER_01
 10
2279.423089150663
 20
1908.431404202701
 30
0.0
 42
0.156048430547355
  0
VERTEX
  5
6DA
  8
LAYER_01
 10
2252.566333796326
 20
1899.840292016565
 30
0.0
 42
0.3198864521343182
  0
VERTEX
  5
6DB
  8
LAYER_01
 10
2306.279844505001
 20
1899.840292016565
 30
0.0
 42
0.1560484305473487
  0
SEQEND
  5
6DC
  8
LAYER_01
  0
POLYLINE
  5
6DD
  8
LAYER_01
 66
     1
 10
0.0
 20
0.0
 30
0.0
 70
     1
  0
VERTEX
  5
6DE
  8
LAYER_01
 10
2279.423089150663
 20
1966.615219237154
 30
0.0
 42
-0.1560484305473534
  0
VERTEX
  5
6DF
  8
LAYER_01
 10
2252.566333796326
 20
1975.20633142329
 30
0.0
 42
-0.3198864521343182
  0
VERTEX
  5
6E0
  8
LAYER_01
 10
2306.279844505001
 20
1975.20633142329
 30
0.0
 42
-0.1560484305473473
  0
SEQEND
  5
6E1
  8
LAYER_01
  0
CIRCLE
  5
6E2
  8
LAYER_01
 10
2128.691010337215
 20
1087.52331171993
 30
0.0
 40
36.97749299939196
  0
ENDSEC
  0
EOF
