  0
SECTION
  2
HEADER
  9
$ACADVER
  1
AC1009
  9
$DWGCODEPAGE
  3
ansi_1252
  9
$INSBASE
 10
0.0
 20
0.0
 30
0.0
  9
$EXTMIN
 10
1.000000000000000E+20
 20
1.000000000000000E+20
 30
1.000000000000000E+20
  9
$EXTMAX
 10
-1.000000000000000E+20
 20
-1.000000000000000E+20
 30
-1.000000000000000E+20
  9
$LIMMIN
 10
0.0
 20
0.0
  9
$LIMMAX
 10
12.0
 20
9.0
  9
$ORTHOMODE
 70
     0
  9
$REGENMODE
 70
     1
  9
$FILLMODE
 70
     1
  9
$QTEXTMODE
 70
     0
  9
$MIRRTEXT
 70
     1
  9
$DRAGMODE
 70
     2
  9
$LTSCALE
 40
1.0
  9
$OSMODE
 70
    37
  9
$ATTMODE
 70
     1
  9
$TEXTSIZE
 40
0.2
  9
$TRACEWID
 40
0.05
  9
$TEXTSTYLE
  7
STANDARD
  9
$CLAYER
  8
LAYER_01
  9
$CELTYPE
  6
BYLAYER
  9
$CECOLOR
 62
   256
  9
$DIMSCALE
 40
1.0
  9
$DIMASZ
 40
0.18
  9
$DIMEXO
 40
0.0625
  9
$DIMDLI
 40
0.38
  9
$DIMRND
 40
0.0
  9
$DIMDLE
 40
0.0
  9
$DIMEXE
 40
0.18
  9
$DIMTP
 40
0.0
  9
$DIMTM
 40
0.0
  9
$DIMTXT
 40
0.18
  9
$DIMCEN
 40
0.09
  9
$DIMTSZ
 40
0.0
  9
$DIMTOL
 70
     0
  9
$DIMLIM
 70
     0
  9
$DIMTIH
 70
     1
  9
$DIMTOH
 70
     1
  9
$DIMSE1
 70
     0
  9
$DIMSE2
 70
     0
  9
$DIMTAD
 70
     0
  9
$DIMZIN
 70
     0
  9
$DIMBLK
  1

  9
$DIMASO
 70
     1
  9
$DIMSHO
 70
     1
  9
$DIMPOST
  1

  9
$DIMAPOST
  1

  9
$DIMALT
 70
     0
  9
$DIMALTD
 70
     2
  9
$DIMALTF
 40
25.4
  9
$DIMLFAC
 40
1.0
  9
$DIMTOFL
 70
     0
  9
$DIMTVP
 40
0.0
  9
$DIMTIX
 70
     0
  9
$DIMSOXD
 70
     0
  9
$DIMSAH
 70
     0
  9
$DIMBLK1
  1

  9
$DIMBLK2
  1

  9
$DIMSTYLE
  2
STANDARD_ACAD
  9
$DIMCLRD
 70
     0
  9
$DIMCLRE
 70
     0
  9
$DIMCLRT
 70
     0
  9
$DIMTFAC
 40
1.0
  9
$DIMGAP
 40
0.09
  9
$LUNITS
 70
     2
  9
$LUPREC
 70
     3
  9
$SKETCHINC
 40
0.1
  9
$FILLETRAD
 40
0.5
  9
$AUNITS
 70
     0
  9
$AUPREC
 70
     0
  9
$MENU
  1
.
  9
$ELEVATION
 40
0.0
  9
$PELEVATION
 40
0.0
  9
$THICKNESS
 40
0.0
  9
$LIMCHECK
 70
     0
  9
$CHAMFERA
 40
0.0
  9
$CHAMFERB
 40
0.0
  9
$SKPOLY
 70
     0
  9
$TDCREATE
 40
2460047.402739989
  9
$TDUPDATE
 40
2460047.402740174
  9
$TDINDWG
 40
0.0000000116
  9
$TDUSRTIMER
 40
0.0000000116
  9
$USRTIMER
 70
     1
  9
$ANGBASE
 50
0.0
  9
$ANGDIR
 70
     0
  9
$PDMODE
 70
     0
  9
$PDSIZE
 40
0.0
  9
$PLINEWID
 40
0.0
  9
$COORDS
 70
     1
  9
$SPLFRAME
 70
     0
  9
$SPLINETYPE
 70
     6
  9
$SPLINESEGS
 70
     8
  9
$ATTDIA
 70
     0
  9
$ATTREQ
 70
     1
  9
$HANDLING
 70
     1
  9
$HANDSEED
  5
151
  9
$SURFTAB1
 70
     6
  9
$SURFTAB2
 70
     6
  9
$SURFTYPE
 70
     6
  9
$SURFU
 70
     6
  9
$SURFV
 70
     6
  9
$UCSNAME
  2

  9
$UCSORG
 10
0.0
 20
0.0
 30
0.0
  9
$UCSXDIR
 10
1.0
 20
0.0
 30
0.0
  9
$UCSYDIR
 10
0.0
 20
1.0
 30
0.0
  9
$PUCSNAME
  2

  9
$PUCSORG
 10
0.0
 20
0.0
 30
0.0
  9
$PUCSXDIR
 10
1.0
 20
0.0
 30
0.0
  9
$PUCSYDIR
 10
0.0
 20
1.0
 30
0.0
  9
$USERI1
 70
     0
  9
$USERI2
 70
     0
  9
$USERI3
 70
     0
  9
$USERI4
 70
     0
  9
$USERI5
 70
     0
  9
$USERR1
 40
0.0
  9
$USERR2
 40
0.0
  9
$USERR3
 40
0.0
  9
$USERR4
 40
0.0
  9
$USERR5
 40
0.0
  9
$WORLDVIEW
 70
     1
  9
$SHADEDGE
 70
     3
  9
$SHADEDIF
 70
    70
  9
$TILEMODE
 70
     1
  9
$MAXACTVP
 70
    64
  9
$PLIMCHECK
 70
     0
  9
$PEXTMIN
 10
1.000000000000000E+20
 20
1.000000000000000E+20
 30
1.000000000000000E+20
  9
$PEXTMAX
 10
-1.000000000000000E+20
 20
-1.000000000000000E+20
 30
-1.000000000000000E+20
  9
$PLIMMIN
 10
0.0
 20
0.0
  9
$PLIMMAX
 10
12.0
 20
9.0
  9
$UNITMODE
 70
     0
  9
$VISRETAIN
 70
     1
  9
$PLINEGEN
 70
     0
  9
$PSLTSCALE
 70
     1
  0
ENDSEC
  0
SECTION
  2
TABLES
  0
TABLE
  2
VPORT
 70
     1
  0
VPORT
  2
*ACTIVE
 70
     0
 10
0.0
 20
0.0
 11
1.0
 21
1.0
 12
10.42990654205607
 22
4.5
 13
0.0
 23
0.0
 14
0.5
 24
0.5
 15
0.5
 25
0.5
 16
0.0
 26
0.0
 36
1.0
 17
0.0
 27
0.0
 37
0.0
 40
9.0
 41
1.972972972850329
 42
50.0
 43
0.0
 44
0.0
 50
0.0
 51
0.0
 71
     0
 72
   100
 73
     1
 74
     3
 75
     0
 76
     0
 77
     0
 78
     0
  0
ENDTAB
  0
TABLE
  2
LTYPE
 70
     1
  0
LTYPE
  2
CONTINUOUS
 70
     0
  3
Solid line
 72
    65
 73
     0
 40
0.0
  0
ENDTAB
  0
TABLE
  2
LAYER
 70
     2
  0
LAYER
  2
0
 70
     0
 62
     7
  6
CONTINUOUS
  0
LAYER
  2
LAYER_01
 70
     0
 62
     7
  6
CONTINUOUS
  0
ENDTAB
  0
TABLE
  2
STYLE
 70
     1
  0
STYLE
  2
STANDARD
 70
     0
 40
0.0
 41
1.0
 50
0.0
 71
     0
 42
0.2
  3
txt
  4

  0
ENDTAB
  0
TABLE
  2
VIEW
 70
     0
  0
ENDTAB
  0
TABLE
  2
UCS
 70
     0
  0
ENDTAB
  0
TABLE
  2
APPID
 70
     2
  0
APPID
  2
ACAD
 70
     0
  0
APPID
  2
RHINO
 70
     0
  0
ENDTAB
  0
TABLE
  2
DIMSTYLE
 70
     1
  0
DIMSTYLE
  2
STANDARD_ACAD
 70
     0
  3

  4

  5

  6

  7

 40
1.0
 41
0.18
 42
0.0625
 43
0.38
 44
0.18
 45
0.0
 46
0.0
 47
0.0
 48
0.0
140
0.18
141
0.09
142
0.0
143
25.4
144
1.0
145
0.0
146
1.0
147
0.09
 71
     0
 72
     0
 73
     1
 74
     1
 75
     0
 76
     0
 77
     0
 78
     0
170
     0
171
     2
172
     0
173
     0
174
     0
175
     0
176
     0
177
     0
178
     0
  0
ENDTAB
  0
ENDSEC
  0
SECTION
  2
BLOCKS
  0
BLOCK
  8
0
  2
$MODEL_SPACE
 70
     0
 10
0.0
 20
0.0
 30
0.0
  3
$MODEL_SPACE
  1

  0
ENDBLK
  5
21
  8
0
  0
BLOCK
 67
     1
  8
0
  2
$PAPER_SPACE
 70
     0
 10
0.0
 20
0.0
 30
0.0
  3
$PAPER_SPACE
  1

  0
ENDBLK
  5
1D
 67
     1
  8
0
  0
ENDSEC
  0
SECTION
  2
ENTITIES
  0
POLYLINE
  5
70
  8
LAYER_01
 66
     1
 10
0.0
 20
0.0
 30
0.0
 70
     1
  0
VERTEX
  5
71
  8
LAYER_01
 10
61.41456489495263
 20
42.61373808812755
 30
0.0
  0
VERTEX
  5
72
  8
LAYER_01
 10
1121.135514407932
 20
42.61373808812758
 30
0.0
  0
VERTEX
  5
73
  8
LAYER_01
 10
1121.135514407932
 20
2460.155165251966
 30
0.0
  0
VERTEX
  5
74
  8
LAYER_01
 10
61.41456489495263
 20
2460.155165251966
 30
0.0
  0
SEQEND
  5
75
  8
LAYER_01
  0
POLYLINE
  5
76
  8
LAYER_01
 66
     1
 10
0.0
 20
0.0
 30
0.0
 70
     1
  0
VERTEX
  5
77
  8
LAYER_01
 10
591.275039651435
 20
1354.834363260005
 30
0.0
  0
VERTEX
  5
78
  8
LAYER_01
 10
357.512932323074
 20
1957.136362694965
 30
0.0
  0
VERTEX
  5
79
  8
LAYER_01
 10
357.512932323074
 20
2145.958524577296
 30
0.0
  0
VERTEX
  5
7A
  8
LAYER_01
 10
462.0541391512633
 20
2145.958524577296
 30
0.0
  0
VERTEX
  5
7B
  8
LAYER_01
 10
591.2750396514423
 20
1389.061024313655
 30
0.0
  0
VERTEX
  5
7C
  8
LAYER_01
 10
720.4959401516213
 20
2145.958524577296
 30
0.0
  0
VERTEX
  5
7D
  8
LAYER_01
 10
825.0371469798106
 20
2145.958524577296
 30
0.0
  0
VERTEX
  5
7E
  8
LAYER_01
 10
825.0371469798106
 20
1957.136362694965
 30
0.0
  0
SEQEND
  5
7F
  8
LAYER_01
  0
POLYLINE
  5
80
  8
LAYER_01
 66
     1
 10
0.0
 20
0.0
 30
0.0
 70
     1
  0
VERTEX
  5
81
  8
LAYER_01
 10
595.2070256656597
 20
2430.155165251966
 30
0.0
  0
VERTEX
  5
82
  8
LAYER_01
 10
1091.135514407932
 20
2430.155165251966
 30
0.0
  0
VERTEX
  5
83
  8
LAYER_01
 10
1091.135514407932
 20
2344.19476638295
 30
0.0
  0
VERTEX
  5
84
  8
LAYER_01
 10
633.8461863356167
 20
2344.19476638295
 30
0.0
  0
SEQEND
  5
85
  8
LAYER_01
  0
POLYLINE
  5
86
  8
LAYER_01
 66
     1
 10
0.0
 20
0.0
 30
0.0
 70
     1
  0
VERTEX
  5
87
  8
LAYER_01
 10
587.3430536372252
 20
2430.155165251966
 30
0.0
  0
VERTEX
  5
88
  8
LAYER_01
 10
91.41456489495282
 20
2430.155165251966
 30
0.0
  0
VERTEX
  5
89
  8
LAYER_01
 10
91.41456489495282
 20
2344.19476638295
 30
0.0
  0
VERTEX
  5
8A
  8
LAYER_01
 10
548.7038929672678
 20
2344.19476638295
 30
0.0
  0
SEQEND
  5
8B
  8
LAYER_01
  0
POLYLINE
  5
8C
  8
LAYER_01
 66
     1
 10
0.0
 20
0.0
 30
0.0
 70
     1
  0
VERTEX
  5
8D
  8
LAYER_01
 10
948.7067906960971
 20
72.61373808812755
 30
0.0
  0
VERTEX
  5
8E
  8
LAYER_01
 10
948.7067906960971
 20
189.0436047119368
 30
0.0
  0
VERTEX
  5
8F
  8
LAYER_01
 10
606.2750396514423
 20
189.0436047119368
 30
0.0
  0
VERTEX
  5
90
  8
LAYER_01
 10
606.2750396514423
 20
72.61373808812756
 30
0.0
  0
SEQEND
  5
91
  8
LAYER_01
  0
POLYLINE
  5
92
  8
LAYER_01
 66
     1
 10
0.0
 20
0.0
 30
0.0
 70
     1
  0
VERTEX
  5
93
  8
LAYER_01
 10
233.8432886067875
 20
72.61373808812755
 30
0.0
  0
VERTEX
  5
94
  8
LAYER_01
 10
233.8432886067875
 20
189.0436047119368
 30
0.0
  0
VERTEX
  5
95
  8
LAYER_01
 10
576.2750396514423
 20
189.0436047119368
 30
0.0
  0
VERTEX
  5
96
  8
LAYER_01
 10
576.2750396514423
 20
72.61373808812756
 30
0.0
  0
SEQEND
  5
97
  8
LAYER_01
  0
POLYLINE
  5
98
  8
LAYER_01
 66
     1
 10
0.0
 20
0.0
 30
0.0
 70
     1
  0
VERTEX
  5
99
  8
LAYER_01
 10
591.2750396514423
 20
1567.325264986928
 30
0.0
  0
VERTEX
  5
9A
  8
LAYER_01
 10
690.0618778132501
 20
2145.958524577296
 30
0.0
  0
VERTEX
  5
9B
  8
LAYER_01
 10
591.2750396514423
 20
2365.729240715043
 30
0.0
  0
VERTEX
  5
9C
  8
LAYER_01
 10
492.4882014896344
 20
2145.958524577296
 30
0.0
  0
SEQEND
  5
9D
  8
LAYER_01
  0
POLYLINE
  5
9E
  8
LAYER_01
 66
     1
 10
0.0
 20
0.0
 30
0.0
 70
     1
  0
VERTEX
  5
9F
  8
LAYER_01
 10
591.2750396514423
 20
1239.135619757116
 30
0.0
  0
VERTEX
  5
A0
  8
LAYER_01
 10
680.3353223477882
 20
1150.07533706077
 30
0.0
  0
VERTEX
  5
A1
  8
LAYER_01
 10
591.2750396514423
 20
1061.015054364424
 30
0.0
  0
VERTEX
  5
A2
  8
LAYER_01
 10
502.2147569550964
 20
1150.07533706077
 30
0.0
  0
SEQEND
  5
A3
  8
LAYER_01
  0
POLYLINE
  5
A4
  8
LAYER_01
 66
     1
 10
0.0
 20
0.0
 30
0.0
 70
     1
  0
VERTEX
  5
A5
  8
LAYER_01
 10
1091.135514407932
 20
1557.499569897159
 30
0.0
  0
VERTEX
  5
A6
  8
LAYER_01
 10
1091.135514407932
 20
451.1775938473593
 30
0.0
  0
VERTEX
  5
A7
  8
LAYER_01
 10
978.7067906960971
 20
451.1775938473589
 30
0.0
  0
VERTEX
  5
A8
  8
LAYER_01
 10
978.7067906960971
 20
1493.666185761306
 30
0.0
  0
SEQEND
  5
A9
  8
LAYER_01
  0
POLYLINE
  5
AA
  8
LAYER_01
 66
     1
 10
0.0
 20
0.0
 30
0.0
 70
     1
  0
VERTEX
  5
AB
  8
LAYER_01
 10
1091.135514407932
 20
1591.99774405392
 30
0.0
  0
VERTEX
  5
AC
  8
LAYER_01
 10
1091.135514407932
 20
1763.016009221513
 30
0.0
  0
VERTEX
  5
AD
  8
LAYER_01
 10
996.028274316967
 20
1763.016009221514
 30
0.0
  0
VERTEX
  5
AE
  8
LAYER_01
 10
649.2882814876014
 20
1341.131210865675
 30
0.0
  0
SEQEND
  5
AF
  8
LAYER_01
  0
POLYLINE
  5
B0
  8
LAYER_01
 66
     1
 10
0.0
 20
0.0
 30
0.0
 70
     1
  0
VERTEX
  5
B1
  8
LAYER_01
 10
1091.135514407932
 20
389.0494850092105
 30
0.0
  0
VERTEX
  5
B2
  8
LAYER_01
 10
978.7067906960971
 20
243.5734484585636
 30
0.0
  0
VERTEX
  5
B3
  8
LAYER_01
 10
978.7067906960971
 20
421.177593847359
 30
0.0
  0
VERTEX
  5
B4
  8
LAYER_01
 10
1091.135514407932
 20
421.1775938473593
 30
0.0
  0
SEQEND
  5
B5
  8
LAYER_01
  0
POLYLINE
  5
B6
  8
LAYER_01
 66
     1
 10
0.0
 20
0.0
 30
0.0
 70
     1
  0
VERTEX
  5
B7
  8
LAYER_01
 10
1091.135514407932
 20
219.0436047119368
 30
0.0
  0
VERTEX
  5
B8
  8
LAYER_01
 10
1091.135514407932
 20
339.9897975159568
 30
0.0
  0
VERTEX
  5
B9
  8
LAYER_01
 10
997.6642705029096
 20
219.0436047119368
 30
0.0
  0
SEQEND
  5
BA
  8
LAYER_01
  0
POLYLINE
  5
BB
  8
LAYER_01
 66
     1
 10
0.0
 20
0.0
 30
0.0
 70
     1
  0
VERTEX
  5
BC
  8
LAYER_01
 10
978.7067906960971
 20
72.61373808812756
 30
0.0
  0
VERTEX
  5
BD
  8
LAYER_01
 10
978.7067906960971
 20
189.0436047119368
 30
0.0
  0
VERTEX
  5
BE
  8
LAYER_01
 10
1091.135514407932
 20
189.0436047119368
 30
0.0
  0
VERTEX
  5
BF
  8
LAYER_01
 10
1091.135514407932
 20
72.61373808812756
 30
0.0
  0
SEQEND
  5
C0
  8
LAYER_01
  0
POLYLINE
  5
C1
  8
LAYER_01
 66
     1
 10
0.0
 20
0.0
 30
0.0
 70
     1
  0
VERTEX
  5
C2
  8
LAYER_01
 10
777.4909151737654
 20
416.0568519406862
 30
0.0
  0
VERTEX
  5
C3
  8
LAYER_01
 10
625.232519458255
 20
219.0436047119368
 30
0.0
  0
VERTEX
  5
C4
  8
LAYER_01
 10
929.7493108892846
 20
219.0436047119368
 30
0.0
  0
SEQEND
  5
C5
  8
LAYER_01
  0
POLYLINE
  5
C6
  8
LAYER_01
 66
     1
 10
0.0
 20
0.0
 30
0.0
 70
     1
  0
VERTEX
  5
C7
  8
LAYER_01
 10
1091.135514407932
 20
1793.016009221514
 30
0.0
  0
VERTEX
  5
C8
  8
LAYER_01
 10
1010.149007836346
 20
1793.016009221514
 30
0.0
  0
VERTEX
  5
C9
  8
LAYER_01
 10
1010.149007836346
 20
2314.19476638295
 30
0.0
  0
VERTEX
  5
CA
  8
LAYER_01
 10
1091.135514407932
 20
2314.19476638295
 30
0.0
  0
SEQEND
  5
CB
  8
LAYER_01
  0
POLYLINE
  5
CC
  8
LAYER_01
 66
     1
 10
0.0
 20
0.0
 30
0.0
 70
     1
  0
VERTEX
  5
CD
  8
LAYER_01
 10
948.7067906960975
 20
451.177593847359
 30
0.0
  0
VERTEX
  5
CE
  8
LAYER_01
 10
792.4909151737697
 20
451.177593847359
 30
0.0
  0
VERTEX
  5
CF
  8
LAYER_01
 10
792.4909151737697
 20
1387.938849170011
 30
0.0
  0
VERTEX
  5
D0
  8
LAYER_01
 10
948.7067906960971
 20
1476.633158427615
 30
0.0
  0
SEQEND
  5
D1
  8
LAYER_01
  0
POLYLINE
  5
D2
  8
LAYER_01
 66
     1
 10
0.0
 20
0.0
 30
0.0
 70
     1
  0
VERTEX
  5
D3
  8
LAYER_01
 10
811.4483949805821
 20
421.177593847359
 30
0.0
  0
VERTEX
  5
D4
  8
LAYER_01
 10
948.7067906960971
 20
243.5734484585637
 30
0.0
  0
VERTEX
  5
D5
  8
LAYER_01
 10
948.7067906960971
 20
421.177593847359
 30
0.0
  0
SEQEND
  5
D6
  8
LAYER_01
  0
POLYLINE
  5
D7
  8
LAYER_01
 66
     1
 10
0.0
 20
0.0
 30
0.0
 70
     1
  0
VERTEX
  5
D8
  8
LAYER_01
 10
606.2750396514423
 20
243.5734484585637
 30
0.0
  0
VERTEX
  5
D9
  8
LAYER_01
 10
606.2750396514423
 20
421.177593847359
 30
0.0
  0
VERTEX
  5
DA
  8
LAYER_01
 10
743.5334353669573
 20
421.177593847359
 30
0.0
  0
SEQEND
  5
DB
  8
LAYER_01
  0
POLYLINE
  5
DC
  8
LAYER_01
 66
     1
 10
0.0
 20
0.0
 30
0.0
 70
     1
  0
VERTEX
  5
DD
  8
LAYER_01
 10
762.4909151737697
 20
451.1775938473589
 30
0.0
  0
VERTEX
  5
DE
  8
LAYER_01
 10
762.4909151737697
 20
1370.905821836321
 30
0.0
  0
VERTEX
  5
DF
  8
LAYER_01
 10
606.2750396514423
 20
1282.211512578717
 30
0.0
  0
VERTEX
  5
E0
  8
LAYER_01
 10
606.2750396514423
 20
1266.562026628309
 30
0.0
  0
VERTEX
  5
E1
  8
LAYER_01
 10
722.761729218981
 20
1150.07533706077
 30
0.0
  0
VERTEX
  5
E2
  8
LAYER_01
 10
606.2750396514423
 20
1033.588647493231
 30
0.0
  0
VERTEX
  5
E3
  8
LAYER_01
 10
606.2750396514423
 20
451.177593847359
 30
0.0
  0
SEQEND
  5
E4
  8
LAYER_01
  0
POLYLINE
  5
E5
  8
LAYER_01
 66
     1
 10
0.0
 20
0.0
 30
0.0
 70
     1
  0
VERTEX
  5
E6
  8
LAYER_01
 10
625.0093723144024
 20
1358.83850775859
 30
0.0
  0
VERTEX
  5
E7
  8
LAYER_01
 10
980.1490078363464
 20
1790.943302760051
 30
0.0
  0
VERTEX
  5
E8
  8
LAYER_01
 10
980.1490078363464
 20
1927.86152448818
 30
0.0
  0
VERTEX
  5
E9
  8
LAYER_01
 10
845.8554256793351
 20
1927.86152448818
 30
0.0
  0
SEQEND
  5
EA
  8
LAYER_01
  0
POLYLINE
  5
EB
  8
LAYER_01
 66
     1
 10
0.0
 20
0.0
 30
0.0
 70
     1
  0
VERTEX
  5
EC
  8
LAYER_01
 10
647.3311728567357
 20
2314.19476638295
 30
0.0
  0
VERTEX
  5
ED
  8
LAYER_01
 10
709.4683014393831
 20
2175.958524577296
 30
0.0
  0
VERTEX
  5
EE
  8
LAYER_01
 10
825.0371469798106
 20
2175.958524577296
 30
0.0
  0
VERTEX
  5
EF
  8
LAYER_01
 10
825.0371469798106
 20
2314.19476638295
 30
0.0
  0
SEQEND
  5
F0
  8
LAYER_01
  0
POLYLINE
  5
F1
  8
LAYER_01
 66
     1
 10
0.0
 20
0.0
 30
0.0
 70
     1
  0
VERTEX
  5
F2
  8
LAYER_01
 10
980.1490078363465
 20
2314.19476638295
 30
0.0
  0
VERTEX
  5
F3
  8
LAYER_01
 10
855.0371469798106
 20
2314.19476638295
 30
0.0
  0
VERTEX
  5
F4
  8
LAYER_01
 10
855.0371469798106
 20
1957.86152448818
 30
0.0
  0
VERTEX
  5
F5
  8
LAYER_01
 10
980.1490078363464
 20
1957.86152448818
 30
0.0
  0
SEQEND
  5
F6
  8
LAYER_01
  0
POLYLINE
  5
F7
  8
LAYER_01
 66
     1
 10
0.0
 20
0.0
 30
0.0
 70
     1
  0
VERTEX
  5
F8
  8
LAYER_01
 10
91.41456489495263
 20
1557.499569897159
 30
0.0
  0
VERTEX
  5
F9
  8
LAYER_01
 10
91.41456489495272
 20
451.1775938473593
 30
0.0
  0
VERTEX
  5
FA
  8
LAYER_01
 10
203.8432886067875
 20
451.1775938473589
 30
0.0
  0
VERTEX
  5
FB
  8
LAYER_01
 10
203.8432886067875
 20
1493.666185761306
 30
0.0
  0
SEQEND
  5
FC
  8
LAYER_01
  0
POLYLINE
  5
FD
  8
LAYER_01
 66
     1
 10
0.0
 20
0.0
 30
0.0
 70
     1
  0
VERTEX
  5
FE
  8
LAYER_01
 10
91.41456489495263
 20
1591.99774405392
 30
0.0
  0
VERTEX
  5
FF
  8
LAYER_01
 10
91.41456489495263
 20
1763.016009221513
 30
0.0
  0
VERTEX
  5
100
  8
LAYER_01
 10
186.5218049859176
 20
1763.016009221514
 30
0.0
  0
VERTEX
  5
101
  8
LAYER_01
 10
533.2617978152832
 20
1341.131210865675
 30
0.0
  0
SEQEND
  5
102
  8
LAYER_01
  0
POLYLINE
  5
103
  8
LAYER_01
 66
     1
 10
0.0
 20
0.0
 30
0.0
 70
     1
  0
VERTEX
  5
104
  8
LAYER_01
 10
91.41456489495263
 20
389.0494850092105
 30
0.0
  0
VERTEX
  5
105
  8
LAYER_01
 10
203.8432886067875
 20
243.5734484585636
 30
0.0
  0
VERTEX
  5
106
  8
LAYER_01
 10
203.8432886067875
 20
421.177593847359
 30
0.0
  0
VERTEX
  5
107
  8
LAYER_01
 10
91.41456489495263
 20
421.1775938473593
 30
0.0
  0
SEQEND
  5
108
  8
LAYER_01
  0
POLYLINE
  5
109
  8
LAYER_01
 66
     1
 10
0.0
 20
0.0
 30
0.0
 70
     1
  0
VERTEX
  5
10A
  8
LAYER_01
 10
91.41456489495263
 20
219.0436047119368
 30
0.0
  0
VERTEX
  5
10B
  8
LAYER_01
 10
91.41456489495263
 20
339.9897975159568
 30
0.0
  0
VERTEX
  5
10C
  8
LAYER_01
 10
184.885808799975
 20
219.0436047119368
 30
0.0
  0
SEQEND
  5
10D
  8
LAYER_01
  0
POLYLINE
  5
10E
  8
LAYER_01
 66
     1
 10
0.0
 20
0.0
 30
0.0
 70
     1
  0
VERTEX
  5
10F
  8
LAYER_01
 10
203.8432886067875
 20
72.61373808812756
 30
0.0
  0
VERTEX
  5
110
  8
LAYER_01
 10
203.8432886067875
 20
189.0436047119368
 30
0.0
  0
VERTEX
  5
111
  8
LAYER_01
 10
91.41456489495263
 20
189.0436047119368
 30
0.0
  0
VERTEX
  5
112
  8
LAYER_01
 10
91.41456489495263
 20
72.61373808812756
 30
0.0
  0
SEQEND
  5
113
  8
LAYER_01
  0
POLYLINE
  5
114
  8
LAYER_01
 66
     1
 10
0.0
 20
0.0
 30
0.0
 70
     1
  0
VERTEX
  5
115
  8
LAYER_01
 10
405.0591641291192
 20
416.0568519406862
 30
0.0
  0
VERTEX
  5
116
  8
LAYER_01
 10
557.3175598446296
 20
219.0436047119368
 30
0.0
  0
VERTEX
  5
117
  8
LAYER_01
 10
252.8007684135999
 20
219.0436047119368
 30
0.0
  0
SEQEND
  5
118
  8
LAYER_01
  0
POLYLINE
  5
119
  8
LAYER_01
 66
     1
 10
0.0
 20
0.0
 30
0.0
 70
     1
  0
VERTEX
  5
11A
  8
LAYER_01
 10
91.41456489495263
 20
1793.016009221514
 30
0.0
  0
VERTEX
  5
11B
  8
LAYER_01
 10
172.4010714665382
 20
1793.016009221514
 30
0.0
  0
VERTEX
  5
11C
  8
LAYER_01
 10
172.4010714665382
 20
2314.19476638295
 30
0.0
  0
VERTEX
  5
11D
  8
LAYER_01
 10
91.41456489495263
 20
2314.19476638295
 30
0.0
  0
SEQEND
  5
11E
  8
LAYER_01
  0
POLYLINE
  5
11F
  8
LAYER_01
 66
     1
 10
0.0
 20
0.0
 30
0.0
 70
     1
  0
VERTEX
  5
120
  8
LAYER_01
 10
233.843288606787
 20
451.177593847359
 30
0.0
  0
VERTEX
  5
121
  8
LAYER_01
 10
390.0591641291148
 20
451.177593847359
 30
0.0
  0
VERTEX
  5
122
  8
LAYER_01
 10
390.0591641291149
 20
1387.938849170011
 30
0.0
  0
VERTEX
  5
123
  8
LAYER_01
 10
233.8432886067875
 20
1476.633158427615
 30
0.0
  0
SEQEND
  5
124
  8
LAYER_01
  0
POLYLINE
  5
125
  8
LAYER_01
 66
     1
 10
0.0
 20
0.0
 30
0.0
 70
     1
  0
VERTEX
  5
126
  8
LAYER_01
 10
371.1016843223025
 20
421.177593847359
 30
0.0
  0
VERTEX
  5
127
  8
LAYER_01
 10
233.8432886067875
 20
243.5734484585637
 30
0.0
  0
VERTEX
  5
128
  8
LAYER_01
 10
233.8432886067875
 20
421.177593847359
 30
0.0
  0
SEQEND
  5
129
  8
LAYER_01
  0
POLYLINE
  5
12A
  8
LAYER_01
 66
     1
 10
0.0
 20
0.0
 30
0.0
 70
     1
  0
VERTEX
  5
12B
  8
LAYER_01
 10
576.2750396514423
 20
243.5734484585637
 30
0.0
  0
VERTEX
  5
12C
  8
LAYER_01
 10
576.2750396514423
 20
421.177593847359
 30
0.0
  0
VERTEX
  5
12D
  8
LAYER_01
 10
439.0166439359273
 20
421.177593847359
 30
0.0
  0
SEQEND
  5
12E
  8
LAYER_01
  0
POLYLINE
  5
12F
  8
LAYER_01
 66
     1
 10
0.0
 20
0.0
 30
0.0
 70
     1
  0
VERTEX
  5
130
  8
LAYER_01
 10
420.0591641291149
 20
451.1775938473589
 30
0.0
  0
VERTEX
  5
131
  8
LAYER_01
 10
420.0591641291149
 20
1370.905821836321
 30
0.0
  0
VERTEX
  5
132
  8
LAYER_01
 10
576.2750396514423
 20
1282.211512578717
 30
0.0
  0
VERTEX
  5
133
  8
LAYER_01
 10
576.2750396514423
 20
1266.562026628309
 30
0.0
  0
VERTEX
  5
134
  8
LAYER_01
 10
459.7883500839035
 20
1150.07533706077
 30
0.0
  0
VERTEX
  5
135
  8
LAYER_01
 10
576.2750396514423
 20
1033.588647493231
 30
0.0
  0
VERTEX
  5
136
  8
LAYER_01
 10
576.2750396514423
 20
451.177593847359
 30
0.0
  0
SEQEND
  5
137
  8
LAYER_01
  0
POLYLINE
  5
138
  8
LAYER_01
 66
     1
 10
0.0
 20
0.0
 30
0.0
 70
     1
  0
VERTEX
  5
139
  8
LAYER_01
 10
557.5407069884822
 20
1358.83850775859
 30
0.0
  0
VERTEX
  5
13A
  8
LAYER_01
 10
202.4010714665382
 20
1790.943302760051
 30
0.0
  0
VERTEX
  5
13B
  8
LAYER_01
 10
202.4010714665382
 20
1927.86152448818
 30
0.0
  0
VERTEX
  5
13C
  8
LAYER_01
 10
336.6946536235495
 20
1927.86152448818
 30
0.0
  0
SEQEND
  5
13D
  8
LAYER_01
  0
POLYLINE
  5
13E
  8
LAYER_01
 66
     1
 10
0.0
 20
0.0
 30
0.0
 70
     1
  0
VERTEX
  5
13F
  8
LAYER_01
 10
535.2189064461488
 20
2314.19476638295
 30
0.0
  0
VERTEX
  5
140
  8
LAYER_01
 10
473.0817778635014
 20
2175.958524577296
 30
0.0
  0
VERTEX
  5
141
  8
LAYER_01
 10
357.512932323074
 20
2175.958524577296
 30
0.0
  0
VERTEX
  5
142
  8
LAYER_01
 10
357.512932323074
 20
2314.19476638295
 30
0.0
  0
SEQEND
  5
143
  8
LAYER_01
  0
POLYLINE
  5
144
  8
LAYER_01
 66
     1
 10
0.0
 20
0.0
 30
0.0
 70
     1
  0
VERTEX
  5
145
  8
LAYER_01
 10
202.4010714665381
 20
2314.19476638295
 30
0.0
  0
VERTEX
  5
146
  8
LAYER_01
 10
327.512932323074
 20
2314.19476638295
 30
0.0
  0
VERTEX
  5
147
  8
LAYER_01
 10
327.512932323074
 20
1957.86152448818
 30
0.0
  0
VERTEX
  5
148
  8
LAYER_01
 10
202.4010714665382
 20
1957.86152448818
 30
0.0
  0
SEQEND
  5
149
  8
LAYER_01
  0
ENDSEC
  0
EOF
