  0
SECTION
  2
HEADER
  9
$ACADVER
  1
AC1009
  9
$DWGCODEPAGE
  3
ansi_1252
  9
$INSBASE
 10
0.0
 20
0.0
 30
0.0
  9
$EXTMIN
 10
1.000000000000000E+20
 20
1.000000000000000E+20
 30
1.000000000000000E+20
  9
$EXTMAX
 10
-1.000000000000000E+20
 20
-1.000000000000000E+20
 30
-1.000000000000000E+20
  9
$LIMMIN
 10
0.0
 20
0.0
  9
$LIMMAX
 10
12.0
 20
9.0
  9
$ORTHOMODE
 70
     0
  9
$REGENMODE
 70
     1
  9
$FILLMODE
 70
     1
  9
$QTEXTMODE
 70
     0
  9
$MIRRTEXT
 70
     1
  9
$DRAGMODE
 70
     2
  9
$LTSCALE
 40
1.0
  9
$OSMODE
 70
    37
  9
$ATTMODE
 70
     1
  9
$TEXTSIZE
 40
0.2
  9
$TRACEWID
 40
0.05
  9
$TEXTSTYLE
  7
STANDARD
  9
$CLAYER
  8
LAYER_05
  9
$CELTYPE
  6
BYLAYER
  9
$CECOLOR
 62
   256
  9
$DIMSCALE
 40
1.0
  9
$DIMASZ
 40
0.18
  9
$DIMEXO
 40
0.0625
  9
$DIMDLI
 40
0.38
  9
$DIMRND
 40
0.0
  9
$DIMDLE
 40
0.0
  9
$DIMEXE
 40
0.18
  9
$DIMTP
 40
0.0
  9
$DIMTM
 40
0.0
  9
$DIMTXT
 40
0.18
  9
$DIMCEN
 40
0.09
  9
$DIMTSZ
 40
0.0
  9
$DIMTOL
 70
     0
  9
$DIMLIM
 70
     0
  9
$DIMTIH
 70
     1
  9
$DIMTOH
 70
     1
  9
$DIMSE1
 70
     0
  9
$DIMSE2
 70
     0
  9
$DIMTAD
 70
     0
  9
$DIMZIN
 70
     0
  9
$DIMBLK
  1

  9
$DIMASO
 70
     1
  9
$DIMSHO
 70
     1
  9
$DIMPOST
  1

  9
$DIMAPOST
  1

  9
$DIMALT
 70
     0
  9
$DIMALTD
 70
     2
  9
$DIMALTF
 40
25.4
  9
$DIMLFAC
 40
1.0
  9
$DIMTOFL
 70
     0
  9
$DIMTVP
 40
0.0
  9
$DIMTIX
 70
     0
  9
$DIMSOXD
 70
     0
  9
$DIMSAH
 70
     0
  9
$DIMBLK1
  1

  9
$DIMBLK2
  1

  9
$DIMSTYLE
  2
STANDARD_ACAD
  9
$DIMCLRD
 70
     0
  9
$DIMCLRE
 70
     0
  9
$DIMCLRT
 70
     0
  9
$DIMTFAC
 40
1.0
  9
$DIMGAP
 40
0.09
  9
$LUNITS
 70
     2
  9
$LUPREC
 70
     3
  9
$SKETCHINC
 40
0.1
  9
$FILLETRAD
 40
0.5
  9
$AUNITS
 70
     0
  9
$AUPREC
 70
     0
  9
$MENU
  1
.
  9
$ELEVATION
 40
0.0
  9
$PELEVATION
 40
0.0
  9
$THICKNESS
 40
0.0
  9
$LIMCHECK
 70
     0
  9
$CHAMFERA
 40
0.0
  9
$CHAMFERB
 40
0.0
  9
$SKPOLY
 70
     0
  9
$TDCREATE
 40
2460236.63366853
  9
$TDUPDATE
 40
2460236.633668703
  9
$TDINDWG
 40
0.0000000116
  9
$TDUSRTIMER
 40
0.0000000116
  9
$USRTIMER
 70
     1
  9
$ANGBASE
 50
0.0
  9
$ANGDIR
 70
     0
  9
$PDMODE
 70
     0
  9
$PDSIZE
 40
0.0
  9
$PLINEWID
 40
0.0
  9
$COORDS
 70
     1
  9
$SPLFRAME
 70
     0
  9
$SPLINETYPE
 70
     6
  9
$SPLINESEGS
 70
     8
  9
$ATTDIA
 70
     0
  9
$ATTREQ
 70
     1
  9
$HANDLING
 70
     1
  9
$HANDSEED
  5
18B
  9
$SURFTAB1
 70
     6
  9
$SURFTAB2
 70
     6
  9
$SURFTYPE
 70
     6
  9
$SURFU
 70
     6
  9
$SURFV
 70
     6
  9
$UCSNAME
  2

  9
$UCSORG
 10
0.0
 20
0.0
 30
0.0
  9
$UCSXDIR
 10
1.0
 20
0.0
 30
0.0
  9
$UCSYDIR
 10
0.0
 20
1.0
 30
0.0
  9
$PUCSNAME
  2

  9
$PUCSORG
 10
0.0
 20
0.0
 30
0.0
  9
$PUCSXDIR
 10
1.0
 20
0.0
 30
0.0
  9
$PUCSYDIR
 10
0.0
 20
1.0
 30
0.0
  9
$USERI1
 70
     0
  9
$USERI2
 70
     0
  9
$USERI3
 70
     0
  9
$USERI4
 70
     0
  9
$USERI5
 70
     0
  9
$USERR1
 40
0.0
  9
$USERR2
 40
0.0
  9
$USERR3
 40
0.0
  9
$USERR4
 40
0.0
  9
$USERR5
 40
0.0
  9
$WORLDVIEW
 70
     1
  9
$SHADEDGE
 70
     3
  9
$SHADEDIF
 70
    70
  9
$TILEMODE
 70
     1
  9
$MAXACTVP
 70
    64
  9
$PLIMCHECK
 70
     0
  9
$PEXTMIN
 10
1.000000000000000E+20
 20
1.000000000000000E+20
 30
1.000000000000000E+20
  9
$PEXTMAX
 10
-1.000000000000000E+20
 20
-1.000000000000000E+20
 30
-1.000000000000000E+20
  9
$PLIMMIN
 10
0.0
 20
0.0
  9
$PLIMMAX
 10
12.0
 20
9.0
  9
$UNITMODE
 70
     0
  9
$VISRETAIN
 70
     1
  9
$PLINEGEN
 70
     0
  9
$PSLTSCALE
 70
     1
  0
ENDSEC
  0
SECTION
  2
TABLES
  0
TABLE
  2
VPORT
 70
     1
  0
VPORT
  2
*ACTIVE
 70
     0
 10
0.0
 20
0.0
 11
1.0
 21
1.0
 12
10.42990654205607
 22
4.5
 13
0.0
 23
0.0
 14
0.5
 24
0.5
 15
0.5
 25
0.5
 16
0.0
 26
0.0
 36
1.0
 17
0.0
 27
0.0
 37
0.0
 40
9.0
 41
1.972972972850329
 42
50.0
 43
0.0
 44
0.0
 50
0.0
 51
0.0
 71
     0
 72
   100
 73
     1
 74
     3
 75
     0
 76
     0
 77
     0
 78
     0
  0
ENDTAB
  0
TABLE
  2
LTYPE
 70
     1
  0
LTYPE
  2
CONTINUOUS
 70
     0
  3
Solid line
 72
    65
 73
     0
 40
0.0
  0
ENDTAB
  0
TABLE
  2
LAYER
 70
     2
  0
LAYER
  2
0
 70
     0
 62
     7
  6
CONTINUOUS
  0
LAYER
  2
LAYER_05
 70
     0
 62
     1
  6
CONTINUOUS
  0
ENDTAB
  0
TABLE
  2
STYLE
 70
     1
  0
STYLE
  2
STANDARD
 70
     0
 40
0.0
 41
1.0
 50
0.0
 71
     0
 42
0.2
  3
txt
  4

  0
ENDTAB
  0
TABLE
  2
VIEW
 70
     0
  0
ENDTAB
  0
TABLE
  2
UCS
 70
     0
  0
ENDTAB
  0
TABLE
  2
APPID
 70
     2
  0
APPID
  2
ACAD
 70
     0
  0
APPID
  2
RHINO
 70
     0
  0
ENDTAB
  0
TABLE
  2
DIMSTYLE
 70
     1
  0
DIMSTYLE
  2
STANDARD_ACAD
 70
     0
  3

  4

  5

  6

  7

 40
1.0
 41
0.18
 42
0.0625
 43
0.38
 44
0.18
 45
0.0
 46
0.0
 47
0.0
 48
0.0
140
0.18
141
0.09
142
0.0
143
25.4
144
1.0
145
0.0
146
1.0
147
0.09
 71
     0
 72
     0
 73
     1
 74
     1
 75
     0
 76
     0
 77
     0
 78
     0
170
     0
171
     2
172
     0
173
     0
174
     0
175
     0
176
     0
177
     0
178
     0
  0
ENDTAB
  0
ENDSEC
  0
SECTION
  2
BLOCKS
  0
BLOCK
  8
0
  2
$MODEL_SPACE
 70
     0
 10
0.0
 20
0.0
 30
0.0
  3
$MODEL_SPACE
  1

  0
ENDBLK
  5
21
  8
0
  0
BLOCK
 67
     1
  8
0
  2
$PAPER_SPACE
 70
     0
 10
0.0
 20
0.0
 30
0.0
  3
$PAPER_SPACE
  1

  0
ENDBLK
  5
1D
 67
     1
  8
0
  0
ENDSEC
  0
SECTION
  2
ENTITIES
  0
POLYLINE
  5
70
  8
LAYER_05
 66
     1
 10
0.0
 20
0.0
 30
0.0
 70
     1
  0
VERTEX
  5
71
  8
LAYER_05
 10
263.8050444248159
 20
1256.666310002872
 30
0.0
  0
VERTEX
  5
72
  8
LAYER_05
 10
2454.538138974307
 20
1256.666310002872
 30
0.0
  0
VERTEX
  5
73
  8
LAYER_05
 10
2454.538138974307
 20
1853.651034488766
 30
0.0
  0
VERTEX
  5
74
  8
LAYER_05
 10
263.8050444248159
 20
1853.651034488766
 30
0.0
  0
SEQEND
  5
75
  8
LAYER_05
  0
POLYLINE
  5
76
  8
LAYER_05
 66
     1
 10
0.0
 20
0.0
 30
0.0
 70
     1
  0
VERTEX
  5
77
  8
LAYER_05
 10
558.2908095990833
 20
1550.548582099536
 30
0.0
  0
VERTEX
  5
78
  8
LAYER_05
 10
575.6196140438367
 20
1599.578043070389
 30
0.0
  0
VERTEX
  5
79
  8
LAYER_05
 10
460.5911673206825
 20
1833.651034488766
 30
0.0
  0
VERTEX
  5
7A
  8
LAYER_05
 10
434.3143411520119
 20
1833.651034488766
 30
0.0
  0
VERTEX
  5
7B
  8
LAYER_05
 10
404.075262602077
 20
1763.822635995166
 30
0.0
  0
VERTEX
  5
7C
  8
LAYER_05
 10
497.5356496908601
 20
1528.000379563091
 30
0.0
  0
SEQEND
  5
7D
  8
LAYER_05
  0
POLYLINE
  5
7E
  8
LAYER_05
 66
     1
 10
0.0
 20
0.0
 30
0.0
 70
     1
  0
VERTEX
  5
7F
  8
LAYER_05
 10
525.4380337421323
 20
1457.596186174135
 30
0.0
  0
VERTEX
  5
80
  8
LAYER_05
 10
544.8902308672784
 20
1512.633493726731
 30
0.0
  0
VERTEX
  5
81
  8
LAYER_05
 10
508.9169739330555
 20
1499.282655962931
 30
0.0
  0
SEQEND
  5
82
  8
LAYER_05
  0
POLYLINE
  5
83
  8
LAYER_05
 66
     1
 10
0.0
 20
0.0
 30
0.0
 70
     1
  0
VERTEX
  5
84
  8
LAYER_05
 10
283.8050444248159
 20
1651.068461120752
 30
0.0
  0
VERTEX
  5
85
  8
LAYER_05
 10
283.8050444248159
 20
1548.857900506457
 30
0.0
  0
VERTEX
  5
86
  8
LAYER_05
 10
324.0574971742136
 20
1641.809288105394
 30
0.0
  0
SEQEND
  5
87
  8
LAYER_05
  0
POLYLINE
  5
88
  8
LAYER_05
 66
     1
 10
0.0
 20
0.0
 30
0.0
 70
     1
  0
VERTEX
  5
89
  8
LAYER_05
 10
1336.764106962262
 20
1523.621384888265
 30
0.0
  0
VERTEX
  5
8A
  8
LAYER_05
 10
1529.291500544958
 20
1551.650021217653
 30
0.0
  0
VERTEX
  5
8B
  8
LAYER_05
 10
1525.540089113146
 20
1527.133982643073
 30
0.0
  0
VERTEX
  5
8C
  8
LAYER_05
 10
1402.818271185854
 20
1453.9689393451
 30
0.0
  0
SEQEND
  5
8D
  8
LAYER_05
  0
POLYLINE
  5
8E
  8
LAYER_05
 66
     1
 10
0.0
 20
0.0
 30
0.0
 70
     1
  0
VERTEX
  5
8F
  8
LAYER_05
 10
1710.499479696205
 20
1608.191335341033
 30
0.0
  0
VERTEX
  5
90
  8
LAYER_05
 10
1835.211604026893
 20
1682.542971672259
 30
0.0
  0
VERTEX
  5
91
  8
LAYER_05
 10
1832.191045994801
 20
1625.907508570543
 30
0.0
  0
SEQEND
  5
92
  8
LAYER_05
  0
POLYLINE
  5
93
  8
LAYER_05
 66
     1
 10
0.0
 20
0.0
 30
0.0
 70
     1
  0
VERTEX
  5
94
  8
LAYER_05
 10
283.8050444248159
 20
1415.736346685015
 30
0.0
  0
VERTEX
  5
95
  8
LAYER_05
 10
283.8050444248159
 20
1276.666310002872
 30
0.0
  0
VERTEX
  5
96
  8
LAYER_05
 10
299.5939152105741
 20
1276.666310002872
 30
0.0
  0
VERTEX
  5
97
  8
LAYER_05
 10
395.6079496795531
 20
1457.230016616177
 30
0.0
  0
SEQEND
  5
98
  8
LAYER_05
  0
POLYLINE
  5
99
  8
LAYER_05
 66
     1
 10
0.0
 20
0.0
 30
0.0
 70
     1
  0
VERTEX
  5
9A
  8
LAYER_05
 10
1007.686577091445
 20
1684.392168439342
 30
0.0
  0
VERTEX
  5
9B
  8
LAYER_05
 10
811.4151988978572
 20
1611.549519447858
 30
0.0
  0
VERTEX
  5
9C
  8
LAYER_05
 10
941.9108689664163
 20
1407.913441128552
 30
0.0
  0
SEQEND
  5
9D
  8
LAYER_05
  0
POLYLINE
  5
9E
  8
LAYER_05
 66
     1
 10
0.0
 20
0.0
 30
0.0
 70
     1
  0
VERTEX
  5
9F
  8
LAYER_05
 10
512.5684505904513
 20
1276.666310002872
 30
0.0
  0
VERTEX
  5
A0
  8
LAYER_05
 10
573.7626859516351
 20
1276.666310002872
 30
0.0
  0
VERTEX
  5
A1
  8
LAYER_05
 10
541.415633559987
 20
1358.285433585986
 30
0.0
  0
SEQEND
  5
A2
  8
LAYER_05
  0
POLYLINE
  5
A3
  8
LAYER_05
 66
     1
 10
0.0
 20
0.0
 30
0.0
 70
     1
  0
VERTEX
  5
A4
  8
LAYER_05
 10
1514.095296266836
 20
1579.598305910404
 30
0.0
  0
VERTEX
  5
A5
  8
LAYER_05
 10
1311.631484103462
 20
1550.123100042875
 30
0.0
  0
VERTEX
  5
A6
  8
LAYER_05
 10
1138.320859194829
 20
1732.874770666375
 30
0.0
  0
VERTEX
  5
A7
  8
LAYER_05
 10
1287.246618481407
 20
1788.14593098198
 30
0.0
  0
SEQEND
  5
A8
  8
LAYER_05
  0
POLYLINE
  5
A9
  8
LAYER_05
 66
     1
 10
0.0
 20
0.0
 30
0.0
 70
     1
  0
VERTEX
  5
AA
  8
LAYER_05
 10
1878.537540959077
 20
1752.995881141555
 30
0.0
  0
VERTEX
  5
AB
  8
LAYER_05
 10
1889.976858796254
 20
1744.406122867032
 30
0.0
  0
VERTEX
  5
AC
  8
LAYER_05
 10
1999.587521756341
 20
1809.754477681541
 30
0.0
  0
VERTEX
  5
AD
  8
LAYER_05
 10
1974.394468124912
 20
1833.651034488766
 30
0.0
  0
VERTEX
  5
AE
  8
LAYER_05
 10
1882.839149137595
 20
1833.651034488766
 30
0.0
  0
SEQEND
  5
AF
  8
LAYER_05
  0
POLYLINE
  5
B0
  8
LAYER_05
 66
     1
 10
0.0
 20
0.0
 30
0.0
 70
     1
  0
VERTEX
  5
B1
  8
LAYER_05
 10
1572.442918411657
 20
1833.651034488766
 30
0.0
  0
VERTEX
  5
B2
  8
LAYER_05
 10
1409.858158613107
 20
1833.651034488766
 30
0.0
  0
VERTEX
  5
B3
  8
LAYER_05
 10
1305.609685718755
 20
1794.961058452363
 30
0.0
  0
VERTEX
  5
B4
  8
LAYER_05
 10
1534.345482997777
 20
1584.678557548769
 30
0.0
  0
SEQEND
  5
B5
  8
LAYER_05
  0
POLYLINE
  5
B6
  8
LAYER_05
 66
     1
 10
0.0
 20
0.0
 30
0.0
 70
     1
  0
VERTEX
  5
B7
  8
LAYER_05
 10
1154.423080859191
 20
1276.666310002872
 30
0.0
  0
VERTEX
  5
B8
  8
LAYER_05
 10
1487.916479917272
 20
1276.666310002872
 30
0.0
  0
VERTEX
  5
B9
  8
LAYER_05
 10
1367.465245961035
 20
1403.679089777737
 30
0.0
  0
SEQEND
  5
BA
  8
LAYER_05
  0
POLYLINE
  5
BB
  8
LAYER_05
 66
     1
 10
0.0
 20
0.0
 30
0.0
 70
     1
  0
VERTEX
  5
BC
  8
LAYER_05
 10
1498.84943062965
 20
1352.70651051526
 30
0.0
  0
VERTEX
  5
BD
  8
LAYER_05
 10
1420.515951191431
 20
1435.307183385912
 30
0.0
  0
VERTEX
  5
BE
  8
LAYER_05
 10
1520.621240525719
 20
1494.98856647004
 30
0.0
  0
SEQEND
  5
BF
  8
LAYER_05
  0
POLYLINE
  5
C0
  8
LAYER_05
 66
     1
 10
0.0
 20
0.0
 30
0.0
 70
     1
  0
VERTEX
  5
C1
  8
LAYER_05
 10
1773.232510134863
 20
1341.367027476593
 30
0.0
  0
VERTEX
  5
C2
  8
LAYER_05
 10
1572.491717993835
 20
1525.913024679171
 30
0.0
  0
VERTEX
  5
C3
  8
LAYER_05
 10
1566.732683949443
 20
1522.47956857227
 30
0.0
  0
VERTEX
  5
C4
  8
LAYER_05
 10
1534.932137440843
 20
1314.6582087805
 30
0.0
  0
VERTEX
  5
C5
  8
LAYER_05
 10
1570.961355100808
 20
1276.666310002872
 30
0.0
  0
VERTEX
  5
C6
  8
LAYER_05
 10
1699.155838273889
 20
1276.666310002872
 30
0.0
  0
SEQEND
  5
C7
  8
LAYER_05
  0
POLYLINE
  5
C8
  8
LAYER_05
 66
     1
 10
0.0
 20
0.0
 30
0.0
 70
     1
  0
VERTEX
  5
C9
  8
LAYER_05
 10
1614.34772546366
 20
1833.651034488766
 30
0.0
  0
VERTEX
  5
CA
  8
LAYER_05
 10
1669.619467597536
 20
1833.651034488766
 30
0.0
  0
VERTEX
  5
CB
  8
LAYER_05
 10
1833.394664154568
 20
1710.672604322628
 30
0.0
  0
VERTEX
  5
CC
  8
LAYER_05
 10
1645.668945651682
 20
1598.753138376124
 30
0.0
  0
VERTEX
  5
CD
  8
LAYER_05
 10
1576.871370106844
 20
1588.737409240615
 30
0.0
  0
SEQEND
  5
CE
  8
LAYER_05
  0
POLYLINE
  5
CF
  8
LAYER_05
 66
     1
 10
0.0
 20
0.0
 30
0.0
 70
     1
  0
VERTEX
  5
D0
  8
LAYER_05
 10
1643.565720895821
 20
1568.286358023735
 30
0.0
  0
VERTEX
  5
D1
  8
LAYER_05
 10
1588.127864549637
 20
1535.235078076771
 30
0.0
  0
VERTEX
  5
D2
  8
LAYER_05
 10
1786.450582847609
 20
1352.912076230127
 30
0.0
  0
VERTEX
  5
D3
  8
LAYER_05
 10
1819.154743699044
 20
1381.476840525086
 30
0.0
  0
VERTEX
  5
D4
  8
LAYER_05
 10
1830.569894051094
 20
1595.510909626028
 30
0.0
  0
SEQEND
  5
D5
  8
LAYER_05
  0
POLYLINE
  5
D6
  8
LAYER_05
 66
     1
 10
0.0
 20
0.0
 30
0.0
 70
     1
  0
VERTEX
  5
D7
  8
LAYER_05
 10
1927.752414358948
 20
1639.819579944775
 30
0.0
  0
VERTEX
  5
D8
  8
LAYER_05
 10
1872.069123958885
 20
1631.713062387954
 30
0.0
  0
VERTEX
  5
D9
  8
LAYER_05
 10
1874.628953605056
 20
1679.70986825367
 30
0.0
  0
SEQEND
  5
DA
  8
LAYER_05
  0
POLYLINE
  5
DB
  8
LAYER_05
 66
     1
 10
0.0
 20
0.0
 30
0.0
 70
     1
  0
VERTEX
  5
DC
  8
LAYER_05
 10
2046.418204014086
 20
1626.934665330004
 30
0.0
  0
VERTEX
  5
DD
  8
LAYER_05
 10
2075.32822061084
 20
1605.22619828562
 30
0.0
  0
VERTEX
  5
DE
  8
LAYER_05
 10
2110.936365054738
 20
1636.327386224408
 30
0.0
  0
SEQEND
  5
DF
  8
LAYER_05
  0
POLYLINE
  5
E0
  8
LAYER_05
 66
     1
 10
0.0
 20
0.0
 30
0.0
 70
     1
  0
VERTEX
  5
E1
  8
LAYER_05
 10
2434.538138974306
 20
1397.18749454616
 30
0.0
  0
VERTEX
  5
E2
  8
LAYER_05
 10
2172.911767856338
 20
1645.34992579225
 30
0.0
  0
VERTEX
  5
E3
  8
LAYER_05
 10
2161.688782268689
 20
1643.716054498859
 30
0.0
  0
VERTEX
  5
E4
  8
LAYER_05
 10
2098.069929306725
 20
1588.1494998996
 30
0.0
  0
VERTEX
  5
E5
  8
LAYER_05
 10
2434.538138974306
 20
1335.496270988222
 30
0.0
  0
SEQEND
  5
E6
  8
LAYER_05
  0
POLYLINE
  5
E7
  8
LAYER_05
 66
     1
 10
0.0
 20
0.0
 30
0.0
 70
     1
  0
VERTEX
  5
E8
  8
LAYER_05
 10
622.2235473374182
 20
1833.651034488766
 30
0.0
  0
VERTEX
  5
E9
  8
LAYER_05
 10
645.5076559713841
 20
1797.316613837946
 30
0.0
  0
VERTEX
  5
EA
  8
LAYER_05
 10
590.7988660413416
 20
1642.525642008972
 30
0.0
  0
VERTEX
  5
EB
  8
LAYER_05
 10
496.8757829334377
 20
1833.651034488766
 30
0.0
  0
SEQEND
  5
EC
  8
LAYER_05
  0
POLYLINE
  5
ED
  8
LAYER_05
 66
     1
 10
0.0
 20
0.0
 30
0.0
 70
     1
  0
VERTEX
  5
EE
  8
LAYER_05
 10
678.4284574448327
 20
1745.944312338139
 30
0.0
  0
VERTEX
  5
EF
  8
LAYER_05
 10
620.5087689286654
 20
1582.068546032334
 30
0.0
  0
VERTEX
  5
F0
  8
LAYER_05
 10
624.0119722613656
 20
1574.939828684654
 30
0.0
  0
VERTEX
  5
F1
  8
LAYER_05
 10
756.502432728905
 20
1624.111318666439
 30
0.0
  0
SEQEND
  5
F2
  8
LAYER_05
  0
POLYLINE
  5
F3
  8
LAYER_05
 66
     1
 10
0.0
 20
0.0
 30
0.0
 70
     1
  0
VERTEX
  5
F4
  8
LAYER_05
 10
821.2371491942258
 20
1523.093991538385
 30
0.0
  0
VERTEX
  5
F5
  8
LAYER_05
 10
773.5564114798567
 20
1597.498900409495
 30
0.0
  0
VERTEX
  5
F6
  8
LAYER_05
 10
637.7031889485206
 20
1547.079380791859
 30
0.0
  0
VERTEX
  5
F7
  8
LAYER_05
 10
736.0021035627374
 20
1347.049547716683
 30
0.0
  0
SEQEND
  5
F8
  8
LAYER_05
  0
POLYLINE
  5
F9
  8
LAYER_05
 66
     1
 10
0.0
 20
0.0
 30
0.0
 70
     1
  0
VERTEX
  5
FA
  8
LAYER_05
 10
1076.895291197356
 20
1710.077758030487
 30
0.0
  0
VERTEX
  5
FB
  8
LAYER_05
 10
1059.812779628968
 20
1703.737886137186
 30
0.0
  0
VERTEX
  5
FC
  8
LAYER_05
 10
1012.921251052401
 20
1506.636091081426
 30
0.0
  0
VERTEX
  5
FD
  8
LAYER_05
 10
1238.661034474352
 20
1539.499873096379
 30
0.0
  0
SEQEND
  5
FE
  8
LAYER_05
  0
POLYLINE
  5
FF
  8
LAYER_05
 66
     1
 10
0.0
 20
0.0
 30
0.0
 70
     1
  0
VERTEX
  5
100
  8
LAYER_05
 10
1105.4235042949
 20
1276.666310002872
 30
0.0
  0
VERTEX
  5
101
  8
LAYER_05
 10
1349.767565955458
 20
1422.340845736925
 30
0.0
  0
VERTEX
  5
102
  8
LAYER_05
 10
1263.793657333152
 20
1512.998157941769
 30
0.0
  0
VERTEX
  5
103
  8
LAYER_05
 10
1005.488458909942
 20
1475.39341851291
 30
0.0
  0
VERTEX
  5
104
  8
LAYER_05
 10
976.5682081611012
 20
1353.831304649389
 30
0.0
  0
VERTEX
  5
105
  8
LAYER_05
 10
1026.017685706256
 20
1276.666310002872
 30
0.0
  0
SEQEND
  5
106
  8
LAYER_05
  0
POLYLINE
  5
107
  8
LAYER_05
 66
     1
 10
0.0
 20
0.0
 30
0.0
 70
     1
  0
VERTEX
  5
108
  8
LAYER_05
 10
438.7948856871423
 20
1473.258083721894
 30
0.0
  0
VERTEX
  5
109
  8
LAYER_05
 10
334.2579901381389
 20
1276.666310002872
 30
0.0
  0
VERTEX
  5
10A
  8
LAYER_05
 10
461.4907991549702
 20
1276.666310002872
 30
0.0
  0
VERTEX
  5
10B
  8
LAYER_05
 10
514.4161709917557
 20
1426.411346431235
 30
0.0
  0
VERTEX
  5
10C
  8
LAYER_05
 10
488.5340681840443
 20
1491.717901170017
 30
0.0
  0
SEQEND
  5
10D
  8
LAYER_05
  0
POLYLINE
  5
10E
  8
LAYER_05
 66
     1
 10
0.0
 20
0.0
 30
0.0
 70
     1
  0
VERTEX
  5
10F
  8
LAYER_05
 10
283.8050444248161
 20
1448.678047384957
 30
0.0
  0
VERTEX
  5
110
  8
LAYER_05
 10
477.1527439418488
 20
1520.435624770177
 30
0.0
  0
VERTEX
  5
111
  8
LAYER_05
 10
439.5819411385395
 20
1615.23548350203
 30
0.0
  0
VERTEX
  5
112
  8
LAYER_05
 10
348.7753520922701
 20
1636.123500541599
 30
0.0
  0
VERTEX
  5
113
  8
LAYER_05
 10
283.8050444248159
 20
1486.093382177939
 30
0.0
  0
SEQEND
  5
114
  8
LAYER_05
  0
POLYLINE
  5
115
  8
LAYER_05
 66
     1
 10
0.0
 20
0.0
 30
0.0
 70
     1
  0
VERTEX
  5
116
  8
LAYER_05
 10
427.9338053650361
 20
1644.626434544478
 30
0.0
  0
VERTEX
  5
117
  8
LAYER_05
 10
359.294869421993
 20
1660.415280691156
 30
0.0
  0
VERTEX
  5
118
  8
LAYER_05
 10
391.8670353966357
 20
1735.631269224706
 30
0.0
  0
SEQEND
  5
119
  8
LAYER_05
  0
POLYLINE
  5
11A
  8
LAYER_05
 66
     1
 10
0.0
 20
0.0
 30
0.0
 70
     1
  0
VERTEX
  5
11B
  8
LAYER_05
 10
334.5770145039362
 20
1666.101068254952
 30
0.0
  0
VERTEX
  5
11C
  8
LAYER_05
 10
283.8050444248159
 20
1677.780020050011
 30
0.0
  0
VERTEX
  5
11D
  8
LAYER_05
 10
283.8050444248159
 20
1833.651034488766
 30
0.0
  0
VERTEX
  5
11E
  8
LAYER_05
 10
407.1342648388076
 20
1833.651034488766
 30
0.0
  0
SEQEND
  5
11F
  8
LAYER_05
  0
POLYLINE
  5
120
  8
LAYER_05
 66
     1
 10
0.0
 20
0.0
 30
0.0
 70
     1
  0
VERTEX
  5
121
  8
LAYER_05
 10
959.7058740395057
 20
1833.651034488766
 30
0.0
  0
VERTEX
  5
122
  8
LAYER_05
 10
709.4272203629496
 20
1833.651034488766
 30
0.0
  0
VERTEX
  5
123
  8
LAYER_05
 10
695.08703676495
 20
1793.077463803347
 30
0.0
  0
VERTEX
  5
124
  8
LAYER_05
 10
794.3612201469052
 20
1638.161937704802
 30
0.0
  0
VERTEX
  5
125
  8
LAYER_05
 10
1016.282552177084
 20
1720.524113186408
 30
0.0
  0
VERTEX
  5
126
  8
LAYER_05
 10
1026.451811434297
 20
1763.26913163278
 30
0.0
  0
SEQEND
  5
127
  8
LAYER_05
  0
POLYLINE
  5
128
  8
LAYER_05
 66
     1
 10
0.0
 20
0.0
 30
0.0
 70
     1
  0
VERTEX
  5
129
  8
LAYER_05
 10
552.4374963103637
 20
1389.470273328886
 30
0.0
  0
VERTEX
  5
12A
  8
LAYER_05
 10
597.1436331996731
 20
1276.666310002872
 30
0.0
  0
VERTEX
  5
12B
  8
LAYER_05
 10
701.924808375254
 20
1276.666310002872
 30
0.0
  0
VERTEX
  5
12C
  8
LAYER_05
 10
717.9946837480363
 20
1309.857026935397
 30
0.0
  0
VERTEX
  5
12D
  8
LAYER_05
 10
607.0154703089352
 20
1535.690177038432
 30
0.0
  0
VERTEX
  5
12E
  8
LAYER_05
 10
603.6793530711278
 20
1534.452036158265
 30
0.0
  0
SEQEND
  5
12F
  8
LAYER_05
  0
POLYLINE
  5
130
  8
LAYER_05
 66
     1
 10
0.0
 20
0.0
 30
0.0
 70
     1
  0
VERTEX
  5
131
  8
LAYER_05
 10
910.6865029070843
 20
1276.666310002872
 30
0.0
  0
VERTEX
  5
132
  8
LAYER_05
 10
734.8225298610034
 20
1276.666310002872
 30
0.0
  0
VERTEX
  5
133
  8
LAYER_05
 10
839.9765787160261
 20
1493.851458542803
 30
0.0
  0
VERTEX
  5
134
  8
LAYER_05
 10
929.2233921978077
 20
1354.583457616975
 30
0.0
  0
SEQEND
  5
135
  8
LAYER_05
  0
POLYLINE
  5
136
  8
LAYER_05
 66
     1
 10
0.0
 20
0.0
 30
0.0
 70
     1
  0
VERTEX
  5
137
  8
LAYER_05
 10
1115.21371929165
 20
1757.240665272451
 30
0.0
  0
VERTEX
  5
138
  8
LAYER_05
 10
1081.099441719035
 20
1793.213308160305
 30
0.0
  0
VERTEX
  5
139
  8
LAYER_05
 10
1090.719784340298
 20
1833.651034488766
 30
0.0
  0
VERTEX
  5
13A
  8
LAYER_05
 10
1237.748224244309
 20
1833.651034488766
 30
0.0
  0
VERTEX
  5
13B
  8
LAYER_05
 10
1261.719462656476
 20
1811.613679500916
 30
0.0
  0
SEQEND
  5
13C
  8
LAYER_05
  0
POLYLINE
  5
13D
  8
LAYER_05
 66
     1
 10
0.0
 20
0.0
 30
0.0
 70
     1
  0
VERTEX
  5
13E
  8
LAYER_05
 10
1280.082529893823
 20
1818.428806971299
 30
0.0
  0
VERTEX
  5
13F
  8
LAYER_05
 10
1321.098165862511
 20
1833.651034488766
 30
0.0
  0
VERTEX
  5
140
  8
LAYER_05
 10
1263.524479021265
 20
1833.651034488766
 30
0.0
  0
SEQEND
  5
141
  8
LAYER_05
  0
POLYLINE
  5
142
  8
LAYER_05
 66
     1
 10
0.0
 20
0.0
 30
0.0
 70
     1
  0
VERTEX
  5
143
  8
LAYER_05
 10
1870.447972015177
 20
1601.316463443439
 30
0.0
  0
VERTEX
  5
144
  8
LAYER_05
 10
1860.656461801269
 20
1417.725646932663
 30
0.0
  0
VERTEX
  5
145
  8
LAYER_05
 10
2028.403573930213
 20
1564.24084849648
 30
0.0
  0
VERTEX
  5
146
  8
LAYER_05
 10
1961.395747534044
 20
1614.556876028625
 30
0.0
  0
SEQEND
  5
147
  8
LAYER_05
  0
POLYLINE
  5
148
  8
LAYER_05
 66
     1
 10
0.0
 20
0.0
 30
0.0
 70
     1
  0
VERTEX
  5
149
  8
LAYER_05
 10
1741.448875489798
 20
1276.666310002872
 30
0.0
  0
VERTEX
  5
14A
  8
LAYER_05
 10
1793.837662667752
 20
1322.424198860963
 30
0.0
  0
VERTEX
  5
14B
  8
LAYER_05
 10
1814.969177399038
 20
1302.997472399974
 30
0.0
  0
VERTEX
  5
14C
  8
LAYER_05
 10
1813.564848737859
 20
1276.666310002872
 30
0.0
  0
SEQEND
  5
14D
  8
LAYER_05
  0
POLYLINE
  5
14E
  8
LAYER_05
 66
     1
 10
0.0
 20
0.0
 30
0.0
 70
     1
  0
VERTEX
  5
14F
  8
LAYER_05
 10
1869.38728015813
 20
1276.666310002872
 30
0.0
  0
VERTEX
  5
150
  8
LAYER_05
 10
2027.896683254611
 20
1276.666310002872
 30
0.0
  0
VERTEX
  5
151
  8
LAYER_05
 10
1955.60631440053
 20
1463.717639412808
 30
0.0
  0
VERTEX
  5
152
  8
LAYER_05
 10
1858.590071796953
 20
1378.980834351742
 30
0.0
  0
VERTEX
  5
153
  8
LAYER_05
 10
1853.892992298491
 20
1290.910593755584
 30
0.0
  0
SEQEND
  5
154
  8
LAYER_05
  0
POLYLINE
  5
155
  8
LAYER_05
 66
     1
 10
0.0
 20
0.0
 30
0.0
 70
     1
  0
VERTEX
  5
156
  8
LAYER_05
 10
1975.526792385449
 20
1481.116763666969
 30
0.0
  0
VERTEX
  5
157
  8
LAYER_05
 10
2054.541460468193
 20
1276.666310002872
 30
0.0
  0
VERTEX
  5
158
  8
LAYER_05
 10
2411.377860583265
 20
1276.666310002872
 30
0.0
  0
VERTEX
  5
159
  8
LAYER_05
 10
2051.145282626098
 20
1547.16415011046
 30
0.0
  0
SEQEND
  5
15A
  8
LAYER_05
  0
POLYLINE
  5
15B
  8
LAYER_05
 66
     1
 10
0.0
 20
0.0
 30
0.0
 70
     1
  0
VERTEX
  5
15C
  8
LAYER_05
 10
1843.27070071044
 20
1833.651034488766
 30
0.0
  0
VERTEX
  5
15D
  8
LAYER_05
 10
1771.125911334825
 20
1833.651034488766
 30
0.0
  0
VERTEX
  5
15E
  8
LAYER_05
 10
1840.492707501045
 20
1781.563661812614
 30
0.0
  0
SEQEND
  5
15F
  8
LAYER_05
  0
POLYLINE
  5
160
  8
LAYER_05
 66
     1
 10
0.0
 20
0.0
 30
0.0
 70
     1
  0
VERTEX
  5
161
  8
LAYER_05
 10
2012.77487083899
 20
1652.197369246154
 30
0.0
  0
VERTEX
  5
162
  8
LAYER_05
 10
1911.662863172986
 20
1728.122150501914
 30
0.0
  0
VERTEX
  5
163
  8
LAYER_05
 10
2018.498909038756
 20
1791.816317142961
 30
0.0
  0
VERTEX
  5
164
  8
LAYER_05
 10
2145.345701755426
 20
1671.497373980523
 30
0.0
  0
SEQEND
  5
165
  8
LAYER_05
  0
POLYLINE
  5
166
  8
LAYER_05
 66
     1
 10
0.0
 20
0.0
 30
0.0
 70
     1
  0
VERTEX
  5
167
  8
LAYER_05
 10
2434.538138974307
 20
1575.703773776316
 30
0.0
  0
VERTEX
  5
168
  8
LAYER_05
 10
2342.092778661857
 20
1669.979735283072
 30
0.0
  0
VERTEX
  5
169
  8
LAYER_05
 10
2202.903318986669
 20
1649.716173441187
 30
0.0
  0
VERTEX
  5
16A
  8
LAYER_05
 10
2434.538138974306
 20
1430.001853956691
 30
0.0
  0
SEQEND
  5
16B
  8
LAYER_05
  0
POLYLINE
  5
16C
  8
LAYER_05
 66
     1
 10
0.0
 20
0.0
 30
0.0
 70
     1
  0
VERTEX
  5
16D
  8
LAYER_05
 10
2088.669475934243
 20
1833.651034488766
 30
0.0
  0
VERTEX
  5
16E
  8
LAYER_05
 10
2039.741776435639
 20
1804.481019631209
 30
0.0
  0
VERTEX
  5
16F
  8
LAYER_05
 10
2166.163993983813
 20
1684.564801949427
 30
0.0
  0
VERTEX
  5
170
  8
LAYER_05
 10
2253.225453092557
 20
1760.606809873547
 30
0.0
  0
VERTEX
  5
171
  8
LAYER_05
 10
2181.599562935886
 20
1833.651034488766
 30
0.0
  0
SEQEND
  5
172
  8
LAYER_05
  0
POLYLINE
  5
173
  8
LAYER_05
 66
     1
 10
0.0
 20
0.0
 30
0.0
 70
     1
  0
VERTEX
  5
174
  8
LAYER_05
 10
2203.126899858961
 20
1679.909310371407
 30
0.0
  0
VERTEX
  5
175
  8
LAYER_05
 10
2272.737053543526
 20
1740.708841096815
 30
0.0
  0
VERTEX
  5
176
  8
LAYER_05
 10
2316.212405559073
 20
1696.372591021555
 30
0.0
  0
SEQEND
  5
177
  8
LAYER_05
  0
POLYLINE
  5
178
  8
LAYER_05
 66
     1
 10
0.0
 20
0.0
 30
0.0
 70
     1
  0
VERTEX
  5
179
  8
LAYER_05
 10
2389.889765606083
 20
1707.098731816579
 30
0.0
  0
VERTEX
  5
17A
  8
LAYER_05
 10
2434.538138974306
 20
1713.598757587193
 30
0.0
  0
VERTEX
  5
17B
  8
LAYER_05
 10
2434.538138974306
 20
1833.651034488766
 30
0.0
  0
VERTEX
  5
17C
  8
LAYER_05
 10
2379.147749294019
 20
1833.651034488766
 30
0.0
  0
VERTEX
  5
17D
  8
LAYER_05
 10
2318.089394006556
 20
1780.32089295273
 30
0.0
  0
SEQEND
  5
17E
  8
LAYER_05
  0
POLYLINE
  5
17F
  8
LAYER_05
 66
     1
 10
0.0
 20
0.0
 30
0.0
 70
     1
  0
VERTEX
  5
180
  8
LAYER_05
 10
2336.85471207811
 20
1833.651034488766
 30
0.0
  0
VERTEX
  5
181
  8
LAYER_05
 10
2265.794789199376
 20
1833.651034488766
 30
0.0
  0
VERTEX
  5
182
  8
LAYER_05
 10
2298.577793555587
 20
1800.218861729462
 30
0.0
  0
SEQEND
  5
183
  8
LAYER_05
  0
ENDSEC
  0
EOF
