  0
SECTION
  2
HEADER
  9
$ACADVER
  1
AC1009
  9
$DWGCODEPAGE
  3
ansi_1252
  9
$INSBASE
 10
0.0
 20
0.0
 30
0.0
  9
$EXTMIN
 10
1.000000000000000E+20
 20
1.000000000000000E+20
 30
1.000000000000000E+20
  9
$EXTMAX
 10
-1.000000000000000E+20
 20
-1.000000000000000E+20
 30
-1.000000000000000E+20
  9
$LIMMIN
 10
0.0
 20
0.0
  9
$LIMMAX
 10
12.0
 20
9.0
  9
$ORTHOMODE
 70
     0
  9
$REGENMODE
 70
     1
  9
$FILLMODE
 70
     1
  9
$QTEXTMODE
 70
     0
  9
$MIRRTEXT
 70
     1
  9
$DRAGMODE
 70
     2
  9
$LTSCALE
 40
1.0
  9
$OSMODE
 70
    37
  9
$ATTMODE
 70
     1
  9
$TEXTSIZE
 40
0.2
  9
$TRACEWID
 40
0.05
  9
$TEXTSTYLE
  7
STANDARD
  9
$CLAYER
  8
DEFAULT
  9
$CELTYPE
  6
BYLAYER
  9
$CECOLOR
 62
   256
  9
$DIMSCALE
 40
1.0
  9
$DIMASZ
 40
0.18
  9
$DIMEXO
 40
0.0625
  9
$DIMDLI
 40
0.38
  9
$DIMRND
 40
0.0
  9
$DIMDLE
 40
0.0
  9
$DIMEXE
 40
0.18
  9
$DIMTP
 40
0.0
  9
$DIMTM
 40
0.0
  9
$DIMTXT
 40
0.18
  9
$DIMCEN
 40
0.09
  9
$DIMTSZ
 40
0.0
  9
$DIMTOL
 70
     0
  9
$DIMLIM
 70
     0
  9
$DIMTIH
 70
     1
  9
$DIMTOH
 70
     1
  9
$DIMSE1
 70
     0
  9
$DIMSE2
 70
     0
  9
$DIMTAD
 70
     0
  9
$DIMZIN
 70
     0
  9
$DIMBLK
  1

  9
$DIMASO
 70
     1
  9
$DIMSHO
 70
     1
  9
$DIMPOST
  1

  9
$DIMAPOST
  1

  9
$DIMALT
 70
     0
  9
$DIMALTD
 70
     2
  9
$DIMALTF
 40
25.4
  9
$DIMLFAC
 40
1.0
  9
$DIMTOFL
 70
     0
  9
$DIMTVP
 40
0.0
  9
$DIMTIX
 70
     0
  9
$DIMSOXD
 70
     0
  9
$DIMSAH
 70
     0
  9
$DIMBLK1
  1

  9
$DIMBLK2
  1

  9
$DIMSTYLE
  2
STANDARD_ACAD
  9
$DIMCLRD
 70
     0
  9
$DIMCLRE
 70
     0
  9
$DIMCLRT
 70
     0
  9
$DIMTFAC
 40
1.0
  9
$DIMGAP
 40
0.09
  9
$LUNITS
 70
     2
  9
$LUPREC
 70
     3
  9
$SKETCHINC
 40
0.1
  9
$FILLETRAD
 40
0.5
  9
$AUNITS
 70
     0
  9
$AUPREC
 70
     0
  9
$MENU
  1
.
  9
$ELEVATION
 40
0.0
  9
$PELEVATION
 40
0.0
  9
$THICKNESS
 40
0.0
  9
$LIMCHECK
 70
     0
  9
$CHAMFERA
 40
0.0
  9
$CHAMFERB
 40
0.0
  9
$SKPOLY
 70
     0
  9
$TDCREATE
 40
2460079.73506588
  9
$TDUPDATE
 40
2460079.735066065
  9
$TDINDWG
 40
0.0000000116
  9
$TDUSRTIMER
 40
0.0000000116
  9
$USRTIMER
 70
     1
  9
$ANGBASE
 50
0.0
  9
$ANGDIR
 70
     0
  9
$PDMODE
 70
     0
  9
$PDSIZE
 40
0.0
  9
$PLINEWID
 40
0.0
  9
$COORDS
 70
     1
  9
$SPLFRAME
 70
     0
  9
$SPLINETYPE
 70
     6
  9
$SPLINESEGS
 70
     8
  9
$ATTDIA
 70
     0
  9
$ATTREQ
 70
     1
  9
$HANDLING
 70
     1
  9
$HANDSEED
  5
1EE
  9
$SURFTAB1
 70
     6
  9
$SURFTAB2
 70
     6
  9
$SURFTYPE
 70
     6
  9
$SURFU
 70
     6
  9
$SURFV
 70
     6
  9
$UCSNAME
  2

  9
$UCSORG
 10
0.0
 20
0.0
 30
0.0
  9
$UCSXDIR
 10
1.0
 20
0.0
 30
0.0
  9
$UCSYDIR
 10
0.0
 20
1.0
 30
0.0
  9
$PUCSNAME
  2

  9
$PUCSORG
 10
0.0
 20
0.0
 30
0.0
  9
$PUCSXDIR
 10
1.0
 20
0.0
 30
0.0
  9
$PUCSYDIR
 10
0.0
 20
1.0
 30
0.0
  9
$USERI1
 70
     0
  9
$USERI2
 70
     0
  9
$USERI3
 70
     0
  9
$USERI4
 70
     0
  9
$USERI5
 70
     0
  9
$USERR1
 40
0.0
  9
$USERR2
 40
0.0
  9
$USERR3
 40
0.0
  9
$USERR4
 40
0.0
  9
$USERR5
 40
0.0
  9
$WORLDVIEW
 70
     1
  9
$SHADEDGE
 70
     3
  9
$SHADEDIF
 70
    70
  9
$TILEMODE
 70
     1
  9
$MAXACTVP
 70
    64
  9
$PLIMCHECK
 70
     0
  9
$PEXTMIN
 10
1.000000000000000E+20
 20
1.000000000000000E+20
 30
1.000000000000000E+20
  9
$PEXTMAX
 10
-1.000000000000000E+20
 20
-1.000000000000000E+20
 30
-1.000000000000000E+20
  9
$PLIMMIN
 10
0.0
 20
0.0
  9
$PLIMMAX
 10
12.0
 20
9.0
  9
$UNITMODE
 70
     0
  9
$VISRETAIN
 70
     1
  9
$PLINEGEN
 70
     0
  9
$PSLTSCALE
 70
     1
  0
ENDSEC
  0
SECTION
  2
TABLES
  0
TABLE
  2
VPORT
 70
     1
  0
VPORT
  2
*ACTIVE
 70
     0
 10
0.0
 20
0.0
 11
1.0
 21
1.0
 12
10.42990654205607
 22
4.5
 13
0.0
 23
0.0
 14
0.5
 24
0.5
 15
0.5
 25
0.5
 16
0.0
 26
0.0
 36
1.0
 17
0.0
 27
0.0
 37
0.0
 40
9.0
 41
1.972972972850329
 42
50.0
 43
0.0
 44
0.0
 50
0.0
 51
0.0
 71
     0
 72
   100
 73
     1
 74
     3
 75
     0
 76
     0
 77
     0
 78
     0
  0
ENDTAB
  0
TABLE
  2
LTYPE
 70
     1
  0
LTYPE
  2
CONTINUOUS
 70
     0
  3
Solid line
 72
    65
 73
     0
 40
0.0
  0
ENDTAB
  0
TABLE
  2
LAYER
 70
     2
  0
LAYER
  2
0
 70
     0
 62
     7
  6
CONTINUOUS
  0
LAYER
  2
DEFAULT
 70
     0
 62
     7
  6
CONTINUOUS
  0
ENDTAB
  0
TABLE
  2
STYLE
 70
     1
  0
STYLE
  2
STANDARD
 70
     0
 40
0.0
 41
1.0
 50
0.0
 71
     0
 42
0.2
  3
txt
  4

  0
ENDTAB
  0
TABLE
  2
VIEW
 70
     0
  0
ENDTAB
  0
TABLE
  2
UCS
 70
     0
  0
ENDTAB
  0
TABLE
  2
APPID
 70
     2
  0
APPID
  2
ACAD
 70
     0
  0
APPID
  2
RHINO
 70
     0
  0
ENDTAB
  0
TABLE
  2
DIMSTYLE
 70
     1
  0
DIMSTYLE
  2
STANDARD_ACAD
 70
     0
  3

  4

  5

  6

  7

 40
1.0
 41
0.18
 42
0.0625
 43
0.38
 44
0.18
 45
0.0
 46
0.0
 47
0.0
 48
0.0
140
0.18
141
0.09
142
0.0
143
25.4
144
1.0
145
0.0
146
1.0
147
0.09
 71
     0
 72
     0
 73
     1
 74
     1
 75
     0
 76
     0
 77
     0
 78
     0
170
     0
171
     2
172
     0
173
     0
174
     0
175
     0
176
     0
177
     0
178
     0
  0
ENDTAB
  0
ENDSEC
  0
SECTION
  2
BLOCKS
  0
BLOCK
  8
0
  2
$MODEL_SPACE
 70
     0
 10
0.0
 20
0.0
 30
0.0
  3
$MODEL_SPACE
  1

  0
ENDBLK
  5
21
  8
0
  0
BLOCK
 67
     1
  8
0
  2
$PAPER_SPACE
 70
     0
 10
0.0
 20
0.0
 30
0.0
  3
$PAPER_SPACE
  1

  0
ENDBLK
  5
1D
 67
     1
  8
0
  0
ENDSEC
  0
SECTION
  2
ENTITIES
  0
POLYLINE
  5
70
  8
DEFAULT
 66
     1
 10
0.0
 20
0.0
 30
0.0
 70
     1
  0
VERTEX
  5
71
  8
DEFAULT
 10
46.55689317824286
 20
59.68582160928057
 30
0.0
  0
VERTEX
  5
72
  8
DEFAULT
 10
1117.6226014754
 20
59.68582160928057
 30
0.0
  0
VERTEX
  5
73
  8
DEFAULT
 10
1117.6226014754
 20
3555.241377164836
 30
0.0
  0
VERTEX
  5
74
  8
DEFAULT
 10
46.55689317824286
 20
3555.241377164836
 30
0.0
  0
SEQEND
  5
75
  8
DEFAULT
  0
POLYLINE
  5
76
  8
DEFAULT
 66
     1
 10
0.0
 20
0.0
 30
0.0
 70
     1
  0
VERTEX
  5
77
  8
DEFAULT
 10
607.1171654425693
 20
2682.026538058883
 30
0.0
 42
-0.3777224177475334
  0
VERTEX
  5
78
  8
DEFAULT
 10
682.7214649185147
 20
2809.928722736763
 30
0.0
 42
-0.1046250624534893
  0
VERTEX
  5
79
  8
DEFAULT
 10
509.9465735232786
 20
2928.459692547231
 30
0.0
 42
-0.1789342148545983
  0
VERTEX
  5
7A
  8
DEFAULT
 10
331.0439613259369
 20
2965.860155697146
 30
0.0
 42
-0.6116315899456468
  0
VERTEX
  5
7B
  8
DEFAULT
 10
243.5370505276686
 20
2806.454896740845
 30
0.0
 42
-0.0615021020881367
  0
VERTEX
  5
7C
  8
DEFAULT
 10
322.7764842558108
 20
2716.359119111733
 30
0.0
 42
-0.3020279202084242
  0
SEQEND
  5
7D
  8
DEFAULT
  0
POLYLINE
  5
7E
  8
DEFAULT
 66
     1
 10
0.0
 20
0.0
 30
0.0
 70
     1
  0
VERTEX
  5
7F
  8
DEFAULT
 10
295.4167374554454
 20
2700.412448780014
 30
0.0
 42
0.1608028369573961
  0
VERTEX
  5
80
  8
DEFAULT
 10
66.55689317824329
 20
2873.852901510543
 30
0.0
  0
VERTEX
  5
81
  8
DEFAULT
 10
66.55689317824323
 20
2840.326840806291
 30
0.0
 42
-0.1551676996511954
  0
VERTEX
  5
82
  8
DEFAULT
 10
270.2467088466074
 20
2681.273601921075
 30
0.0
 42
-0.0305858606197346
  0
SEQEND
  5
83
  8
DEFAULT
  0
POLYLINE
  5
84
  8
DEFAULT
 66
     1
 10
0.0
 20
0.0
 30
0.0
 70
     1
  0
VERTEX
  5
85
  8
DEFAULT
 10
1097.622601475399
 20
2968.746370174289
 30
0.0
  0
VERTEX
  5
86
  8
DEFAULT
 10
1097.622601475399
 20
3078.301777581732
 30
0.0
 42
-0.1050974305366506
  0
VERTEX
  5
87
  8
DEFAULT
 10
1016.37918591005
 20
3120.857777363901
 30
0.0
 42
-0.4758053158534922
  0
VERTEX
  5
88
  8
DEFAULT
 10
875.5697819145157
 20
2897.713727124054
 30
0.0
 42
0.1572533485157191
  0
SEQEND
  5
89
  8
DEFAULT
  0
POLYLINE
  5
8A
  8
DEFAULT
 66
     1
 10
0.0
 20
0.0
 30
0.0
 70
     1
  0
VERTEX
  5
8B
  8
DEFAULT
 10
353.469768949048
 20
2059.537278341602
 30
0.0
 42
-0.6840527897379672
  0
VERTEX
  5
8C
  8
DEFAULT
 10
344.8733244007914
 20
2244.387238920506
 30
0.0
 42
-0.2408289449839147
  0
VERTEX
  5
8D
  8
DEFAULT
 10
188.6342292346692
 20
2420.65434550615
 30
0.0
 42
-0.168441747161261
  0
VERTEX
  5
8E
  8
DEFAULT
 10
66.55689317824316
 20
2259.857075494663
 30
0.0
  0
VERTEX
  5
8F
  8
DEFAULT
 10
66.55689317824334
 20
1985.37313700827
 30
0.0
 42
-0.101257519193589
  0
VERTEX
  5
90
  8
DEFAULT
 10
141.234079601499
 20
1958.088989970155
 30
0.0
 42
-0.1155135121618807
  0
SEQEND
  5
91
  8
DEFAULT
  0
POLYLINE
  5
92
  8
DEFAULT
 66
     1
 10
0.0
 20
0.0
 30
0.0
 70
     1
  0
VERTEX
  5
93
  8
DEFAULT
 10
858.4720407802663
 20
411.351881748472
 30
0.0
 42
0.2073975666171472
  0
VERTEX
  5
94
  8
DEFAULT
 10
954.9926158770159
 20
177.6701251697291
 30
0.0
 42
0.4203959913795789
  0
SEQEND
  5
95
  8
DEFAULT
  0
POLYLINE
  5
96
  8
DEFAULT
 66
     1
 10
0.0
 20
0.0
 30
0.0
 70
     1
  0
VERTEX
  5
97
  8
DEFAULT
 10
1097.622601475399
 20
636.9187314832907
 30
0.0
  0
VERTEX
  5
98
  8
DEFAULT
 10
1097.622601475399
 20
713.8382129983752
 30
0.0
 42
0.1154355847661215
  0
VERTEX
  5
99
  8
DEFAULT
 10
969.1422271482224
 20
646.9561563166776
 30
0.0
 42
0.1410371830526123
  0
SEQEND
  5
9A
  8
DEFAULT
  0
POLYLINE
  5
9B
  8
DEFAULT
 66
     1
 10
0.0
 20
0.0
 30
0.0
 70
     1
  0
VERTEX
  5
9C
  8
DEFAULT
 10
1097.622601475399
 20
790.7701937575116
 30
0.0
  0
VERTEX
  5
9D
  8
DEFAULT
 10
1097.622601475398
 20
816.2552790932737
 30
0.0
 42
0.1482107377787436
  0
VERTEX
  5
9E
  8
DEFAULT
 10
883.0210532855001
 20
703.5234650116379
 30
0.0
 42
0.0268714344100057
  0
VERTEX
  5
9F
  8
DEFAULT
 10
901.3238539161403
 20
686.4587232619076
 30
0.0
 42
-0.1444022118915579
  0
SEQEND
  5
A0
  8
DEFAULT
  0
POLYLINE
  5
A1
  8
DEFAULT
 66
     1
 10
0.0
 20
0.0
 30
0.0
 70
     1
  0
VERTEX
  5
A2
  8
DEFAULT
 10
670.2908402030657
 20
444.2770477244362
 30
0.0
 42
0.693727104538388
  0
VERTEX
  5
A3
  8
DEFAULT
 10
423.4760523596152
 20
817.1467134962961
 30
0.0
 42
0.2500270403014273
  0
VERTEX
  5
A4
  8
DEFAULT
 10
451.1834933782082
 20
1004.678512964993
 30
0.0
 42
0.1451096469458937
  0
VERTEX
  5
A5
  8
DEFAULT
 10
587.8302758532137
 20
1006.616664101819
 30
0.0
 42
0.8979053695375249
  0
VERTEX
  5
A6
  8
DEFAULT
 10
767.8862610757991
 20
890.5751239227948
 30
0.0
 42
0.1975561737798944
  0
VERTEX
  5
A7
  8
DEFAULT
 10
831.8296324128871
 20
684.2038387995316
 30
0.0
 42
0.1328182223237818
  0
VERTEX
  5
A8
  8
DEFAULT
 10
738.4939841347901
 20
472.6714595470257
 30
0.0
 42
0.0802068234672212
  0
SEQEND
  5
A9
  8
DEFAULT
  0
POLYLINE
  5
AA
  8
DEFAULT
 66
     1
 10
0.0
 20
0.0
 30
0.0
 70
     1
  0
VERTEX
  5
AB
  8
DEFAULT
 10
849.2435984451643
 20
1859.843777412668
 30
0.0
 42
0.1123387851364512
  0
VERTEX
  5
AC
  8
DEFAULT
 10
679.6713771378775
 20
1996.589891278657
 30
0.0
 42
0.0318363235359635
  0
VERTEX
  5
AD
  8
DEFAULT
 10
661.2472214409538
 20
1977.689967417964
 30
0.0
 42
-0.1223343563861609
  0
VERTEX
  5
AE
  8
DEFAULT
 10
835.8132823148259
 20
1836.334183031573
 30
0.0
 42
-0.0242036347908033
  0
SEQEND
  5
AF
  8
DEFAULT
  0
POLYLINE
  5
B0
  8
DEFAULT
 66
     1
 10
0.0
 20
0.0
 30
0.0
 70
     1
  0
VERTEX
  5
B1
  8
DEFAULT
 10
162.464207878267
 20
1943.00185901709
 30
0.0
 42
-0.0319898913865506
  0
VERTEX
  5
B2
  8
DEFAULT
 10
181.0550746983948
 20
1925.768961479567
 30
0.0
 42
-0.2479507505437465
  0
VERTEX
  5
B3
  8
DEFAULT
 10
610.3528758498941
 20
1997.922925679889
 30
0.0
 42
-0.025736272410329
  0
VERTEX
  5
B4
  8
DEFAULT
 10
627.4127290044439
 20
2018.509195454414
 30
0.0
 42
0.2555511554139949
  0
SEQEND
  5
B5
  8
DEFAULT
  0
POLYLINE
  5
B6
  8
DEFAULT
 66
     1
 10
0.0
 20
0.0
 30
0.0
 70
     1
  0
VERTEX
  5
B7
  8
DEFAULT
 10
374.2151344400115
 20
2484.134606110835
 30
0.0
 42
0.0967493530252592
  0
VERTEX
  5
B8
  8
DEFAULT
 10
324.2955031481174
 20
2652.48455595616
 30
0.0
 42
0.0398489547735623
  0
VERTEX
  5
B9
  8
DEFAULT
 10
299.2281260326109
 20
2632.151780402514
 30
0.0
 42
-0.0946641535252219
  0
VERTEX
  5
BA
  8
DEFAULT
 10
343.0418511365836
 20
2478.240780657979
 30
0.0
 42
-0.081982797405936
  0
SEQEND
  5
BB
  8
DEFAULT
  0
POLYLINE
  5
BC
  8
DEFAULT
 66
     1
 10
0.0
 20
0.0
 30
0.0
 70
     1
  0
VERTEX
  5
BD
  8
DEFAULT
 10
982.6421591400484
 20
1969.79562026278
 30
0.0
 42
0.3972002043348979
  0
VERTEX
  5
BE
  8
DEFAULT
 10
701.3260176538822
 20
2013.674501463067
 30
0.0
 42
-0.1028536453268521
  0
VERTEX
  5
BF
  8
DEFAULT
 10
864.2345766077667
 20
1881.113732133782
 30
0.0
 42
-0.1345603277527654
  0
SEQEND
  5
C0
  8
DEFAULT
  0
POLYLINE
  5
C1
  8
DEFAULT
 66
     1
 10
0.0
 20
0.0
 30
0.0
 70
     1
  0
VERTEX
  5
C2
  8
DEFAULT
 10
802.2532062728386
 20
2776.850351140088
 30
0.0
 42
-0.8080582454581968
  0
VERTEX
  5
C3
  8
DEFAULT
 10
670.4961549027406
 20
2601.011183318768
 30
0.0
 42
-0.2206494184842772
  0
VERTEX
  5
C4
  8
DEFAULT
 10
676.8918127989225
 20
2383.381893098201
 30
0.0
 42
-0.2915488135467864
  0
VERTEX
  5
C5
  8
DEFAULT
 10
862.6046744363192
 20
2406.533020770091
 30
0.0
 42
-1.356626589294309
  0
VERTEX
  5
C6
  8
DEFAULT
 10
1033.136574395905
 20
2459.720971963201
 30
0.0
 42
-0.1335286118303076
  0
VERTEX
  5
C7
  8
DEFAULT
 10
1097.622601475399
 20
2521.011510326533
 30
0.0
  0
VERTEX
  5
C8
  8
DEFAULT
 10
1097.622601475399
 20
2822.256730839642
 30
0.0
 42
-0.1509720734630029
  0
SEQEND
  5
C9
  8
DEFAULT
  0
POLYLINE
  5
CA
  8
DEFAULT
 66
     1
 10
0.0
 20
0.0
 30
0.0
 70
     1
  0
VERTEX
  5
CB
  8
DEFAULT
 10
546.381082318331
 20
2936.565458268834
 30
0.0
 42
0.3241927847091422
  0
VERTEX
  5
CC
  8
DEFAULT
 10
1097.622601475399
 20
2857.649402140807
 30
0.0
  0
VERTEX
  5
CD
  8
DEFAULT
 10
1097.622601475399
 20
2930.634464012712
 30
0.0
 42
-0.3298668552389824
  0
VERTEX
  5
CE
  8
DEFAULT
 10
609.2651606188364
 20
2964.713913427325
 30
0.0
 42
-0.0656396145339663
  0
SEQEND
  5
CF
  8
DEFAULT
  0
POLYLINE
  5
D0
  8
DEFAULT
 66
     1
 10
0.0
 20
0.0
 30
0.0
 70
     1
  0
VERTEX
  5
D1
  8
DEFAULT
 10
197.103654070529
 20
1906.567429925688
 30
0.0
 42
-0.0316566467274714
  0
VERTEX
  5
D2
  8
DEFAULT
 10
210.6357228346309
 20
1885.444348289845
 30
0.0
 42
-0.2413698440771118
  0
VERTEX
  5
D3
  8
DEFAULT
 10
583.854663897236
 20
1953.863018914888
 30
0.0
 42
-0.024519776949401
  0
VERTEX
  5
D4
  8
DEFAULT
 10
595.8751167813369
 20
1976.322785478911
 30
0.0
 42
0.2431116347778484
  0
SEQEND
  5
D5
  8
DEFAULT
  0
POLYLINE
  5
D6
  8
DEFAULT
 66
     1
 10
0.0
 20
0.0
 30
0.0
 70
     1
  0
VERTEX
  5
D7
  8
DEFAULT
 10
66.55689317824324
 20
2806.45521941486
 30
0.0
 42
-0.1511246392646
  0
VERTEX
  5
D8
  8
DEFAULT
 10
247.2745118847582
 20
2658.848211790004
 30
0.0
 42
0.0924643760772834
  0
VERTEX
  5
D9
  8
DEFAULT
 10
197.6108760254788
 20
2578.017113149432
 30
0.0
 42
0.1978906828453829
  0
VERTEX
  5
DA
  8
DEFAULT
 10
66.55689317824303
 20
2772.745450953531
 30
0.0
  0
SEQEND
  5
DB
  8
DEFAULT
  0
POLYLINE
  5
DC
  8
DEFAULT
 66
     1
 10
0.0
 20
0.0
 30
0.0
 70
     1
  0
VERTEX
  5
DD
  8
DEFAULT
 10
221.5896092186022
 20
1862.287067012386
 30
0.0
 42
-0.2433125310201463
  0
VERTEX
  5
DE
  8
DEFAULT
 10
574.204626658802
 20
1930.651027022773
 30
0.0
 42
0.2331401184343722
  0
VERTEX
  5
DF
  8
DEFAULT
 10
600.0060674234584
 20
1702.237699383382
 30
0.0
 42
0.4084898085059555
  0
VERTEX
  5
E0
  8
DEFAULT
 10
485.0591392457547
 20
1636.028949612302
 30
0.0
 42
0.4811044777788418
  0
VERTEX
  5
E1
  8
DEFAULT
 10
227.4654102241592
 20
1733.267451171608
 30
0.0
 42
0.1673810293809428
  0
SEQEND
  5
E2
  8
DEFAULT
  0
POLYLINE
  5
E3
  8
DEFAULT
 66
     1
 10
0.0
 20
0.0
 30
0.0
 70
     1
  0
VERTEX
  5
E4
  8
DEFAULT
 10
276.5297885733887
 20
2606.541159273877
 30
0.0
 42
-0.0962551774915807
  0
VERTEX
  5
E5
  8
DEFAULT
 10
312.6338702359126
 20
2460.314513203989
 30
0.0
 42
0.3103977516728393
  0
VERTEX
  5
E6
  8
DEFAULT
 10
284.9231898470281
 20
2353.55453574197
 30
0.0
 42
-0.3503006372694964
  0
SEQEND
  5
E7
  8
DEFAULT
  0
POLYLINE
  5
E8
  8
DEFAULT
 66
     1
 10
0.0
 20
0.0
 30
0.0
 70
     1
  0
VERTEX
  5
E9
  8
DEFAULT
 10
283.9167895956294
 20
3003.580914360527
 30
0.0
 42
-0.2857191257400705
  0
VERTEX
  5
EA
  8
DEFAULT
 10
221.9483512403823
 20
3275.054580552499
 30
0.0
 42
-0.4064077484856241
  0
VERTEX
  5
EB
  8
DEFAULT
 10
66.55689317824339
 20
3344.780130521874
 30
0.0
  0
VERTEX
  5
EC
  8
DEFAULT
 10
66.55689317824313
 20
2907.107897676692
 30
0.0
 42
-0.0472635200360773
  0
VERTEX
  5
ED
  8
DEFAULT
 10
151.5399246170518
 20
2870.967585847724
 30
0.0
 42
-0.6560844767519336
  0
SEQEND
  5
EE
  8
DEFAULT
  0
POLYLINE
  5
EF
  8
DEFAULT
 66
     1
 10
0.0
 20
0.0
 30
0.0
 70
     1
  0
VERTEX
  5
F0
  8
DEFAULT
 10
687.527462765062
 20
3038.779898578944
 30
0.0
 42
-0.0720438619685773
  0
VERTEX
  5
F1
  8
DEFAULT
 10
635.9789703713004
 20
2983.544920865133
 30
0.0
 42
0.1225622302909923
  0
VERTEX
  5
F2
  8
DEFAULT
 10
801.813768222092
 20
2905.120663738596
 30
0.0
 42
-0.2786587230213572
  0
SEQEND
  5
F3
  8
DEFAULT
  0
POLYLINE
  5
F4
  8
DEFAULT
 66
     1
 10
0.0
 20
0.0
 30
0.0
 70
     1
  0
VERTEX
  5
F5
  8
DEFAULT
 10
848.8157630780275
 20
665.418605661828
 30
0.0
 42
0.0220810313655852
  0
VERTEX
  5
F6
  8
DEFAULT
 10
867.218190292402
 20
648.3810817200464
 30
0.0
 42
0.1200836897721118
  0
VERTEX
  5
F7
  8
DEFAULT
 10
790.2940834754982
 20
479.0014976967186
 30
0.0
 42
0.0278120363850076
  0
VERTEX
  5
F8
  8
DEFAULT
 10
764.5852028600455
 20
477.3440487655294
 30
0.0
 42
-0.1252205426250961
  0
SEQEND
  5
F9
  8
DEFAULT
  0
POLYLINE
  5
FA
  8
DEFAULT
 66
     1
 10
0.0
 20
0.0
 30
0.0
 70
     1
  0
VERTEX
  5
FB
  8
DEFAULT
 10
198.6206010164781
 20
1451.667818613692
 30
0.0
 42
-0.1806088869614129
  0
VERTEX
  5
FC
  8
DEFAULT
 10
66.55689317824286
 20
1273.906996613769
 30
0.0
  0
VERTEX
  5
FD
  8
DEFAULT
 10
66.55689317824321
 20
1593.120958669887
 30
0.0
 42
0.1088811122431628
  0
VERTEX
  5
FE
  8
DEFAULT
 10
146.2784881547272
 20
1623.618530797335
 30
0.0
 42
0.2742134485311826
  0
SEQEND
  5
FF
  8
DEFAULT
  0
POLYLINE
  5
100
  8
DEFAULT
 66
     1
 10
0.0
 20
0.0
 30
0.0
 70
     1
  0
VERTEX
  5
101
  8
DEFAULT
 10
1097.622601475399
 20
1285.524127625918
 30
0.0
  0
VERTEX
  5
102
  8
DEFAULT
 10
1097.622601475398
 20
1311.015175595734
 30
0.0
 42
0.0752082094199858
  0
VERTEX
  5
103
  8
DEFAULT
 10
951.037247763431
 20
1317.075985707712
 30
0.0
 42
0.0181671721266308
  0
VERTEX
  5
104
  8
DEFAULT
 10
953.1175993790853
 20
1292.154076722633
 30
0.0
 42
-0.078173911755999
  0
SEQEND
  5
105
  8
DEFAULT
  0
POLYLINE
  5
106
  8
DEFAULT
 66
     1
 10
0.0
 20
0.0
 30
0.0
 70
     1
  0
VERTEX
  5
107
  8
DEFAULT
 10
949.8037159836391
 20
1464.569360426442
 30
0.0
 42
-0.0227172749917706
  0
VERTEX
  5
108
  8
DEFAULT
 10
928.1447144214675
 20
1477.86521081492
 30
0.0
 42
0.0934025072763679
  0
VERTEX
  5
109
  8
DEFAULT
 10
900.6597466531302
 20
1334.450015049365
 30
0.0
 42
-0.0123424547938756
  0
VERTEX
  5
10A
  8
DEFAULT
 10
925.7021072522886
 20
1338.949089896374
 30
0.0
 42
-0.0872595146449414
  0
SEQEND
  5
10B
  8
DEFAULT
  0
POLYLINE
  5
10C
  8
DEFAULT
 66
     1
 10
0.0
 20
0.0
 30
0.0
 70
     1
  0
VERTEX
  5
10D
  8
DEFAULT
 10
815.4331452088269
 20
1635.158610699089
 30
0.0
 42
-0.5138612585479534
  0
VERTEX
  5
10E
  8
DEFAULT
 10
623.387158000127
 20
1912.533956458502
 30
0.0
 42
-0.1645725003716181
  0
VERTEX
  5
10F
  8
DEFAULT
 10
807.3437434636784
 20
1742.443750097574
 30
0.0
 42
0.0970269228921604
  0
SEQEND
  5
110
  8
DEFAULT
  0
POLYLINE
  5
111
  8
DEFAULT
 66
     1
 10
0.0
 20
0.0
 30
0.0
 70
     1
  0
VERTEX
  5
112
  8
DEFAULT
 10
351.6669007680773
 20
2668.295716833728
 30
0.0
 42
-0.1014134516184337
  0
VERTEX
  5
113
  8
DEFAULT
 10
406.3272485874056
 20
2479.47491985965
 30
0.0
 42
-0.8168958048563981
  0
VERTEX
  5
114
  8
DEFAULT
 10
385.2627315130957
 20
2289.768154812198
 30
0.0
 42
1.440731882478058
  0
SEQEND
  5
115
  8
DEFAULT
  0
POLYLINE
  5
116
  8
DEFAULT
 66
     1
 10
0.0
 20
0.0
 30
0.0
 70
     1
  0
VERTEX
  5
117
  8
DEFAULT
 10
849.0936917029474
 20
79.68582160928061
 30
0.0
  0
VERTEX
  5
118
  8
DEFAULT
 10
735.5598775363889
 20
79.68582160928065
 30
0.0
 42
-0.7124093033166514
  0
VERTEX
  5
119
  8
DEFAULT
 10
733.501564145342
 20
414.1159716724775
 30
0.0
 42
0.2081066967245133
  0
VERTEX
  5
11A
  8
DEFAULT
 10
868.3992356074593
 20
87.52110012253293
 30
0.0
 42
-0.0294659493530268
  0
SEQEND
  5
11B
  8
DEFAULT
  0
POLYLINE
  5
11C
  8
DEFAULT
 66
     1
 10
0.0
 20
0.0
 30
0.0
 70
     1
  0
VERTEX
  5
11D
  8
DEFAULT
 10
756.0783115753386
 20
1252.52442511573
 30
0.0
 42
-0.0669914840516036
  0
VERTEX
  5
11E
  8
DEFAULT
 10
876.7422629844056
 20
1303.098663482266
 30
0.0
 42
0.0151165792872326
  0
VERTEX
  5
11F
  8
DEFAULT
 10
879.3272659697516
 20
1277.885584178512
 30
0.0
 42
0.0726500648596324
  0
VERTEX
  5
120
  8
DEFAULT
 10
756.3034300476843
 20
1223.406392887245
 30
0.0
 42
0.0303093815859017
  0
SEQEND
  5
121
  8
DEFAULT
  0
POLYLINE
  5
122
  8
DEFAULT
 66
     1
 10
0.0
 20
0.0
 30
0.0
 70
     1
  0
VERTEX
  5
123
  8
DEFAULT
 10
835.4592369671259
 20
1583.260428298766
 30
0.0
 42
-0.1713032028336177
  0
VERTEX
  5
124
  8
DEFAULT
 10
668.9526441914029
 20
1630.217152547359
 30
0.0
 42
-0.8670336870115226
  0
VERTEX
  5
125
  8
DEFAULT
 10
492.8781867297388
 20
1565.622221301952
 30
0.0
 42
-0.1543441345157444
  0
VERTEX
  5
126
  8
DEFAULT
 10
451.6923670903369
 20
1467.68447937493
 30
0.0
 42
-0.4410490750266237
  0
VERTEX
  5
127
  8
DEFAULT
 10
752.7086570362765
 20
1279.404931504955
 30
0.0
 42
-0.0645213539198459
  0
VERTEX
  5
128
  8
DEFAULT
 10
875.682679806633
 20
1328.672441942865
 30
0.0
 42
-0.1010272735653228
  0
VERTEX
  5
129
  8
DEFAULT
 10
907.4381361395608
 20
1493.353220578541
 30
0.0
 42
-0.1040079845177109
  0
SEQEND
  5
12A
  8
DEFAULT
  0
POLYLINE
  5
12B
  8
DEFAULT
 66
     1
 10
0.0
 20
0.0
 30
0.0
 70
     1
  0
VERTEX
  5
12C
  8
DEFAULT
 10
1097.622601475399
 20
1336.45731586188
 30
0.0
  0
VERTEX
  5
12D
  8
DEFAULT
 10
1097.622601475399
 20
1429.897428924573
 30
0.0
 42
-0.1154225366062028
  0
VERTEX
  5
12E
  8
DEFAULT
 10
972.3151439611677
 20
1453.409931888445
 30
0.0
 42
0.0828329621341507
  0
VERTEX
  5
12F
  8
DEFAULT
 10
950.7744013784827
 20
1342.190068386632
 30
0.0
 42
-0.0716448194891977
  0
SEQEND
  5
130
  8
DEFAULT
  0
POLYLINE
  5
131
  8
DEFAULT
 66
     1
 10
0.0
 20
0.0
 30
0.0
 70
     1
  0
VERTEX
  5
132
  8
DEFAULT
 10
1097.622601475399
 20
2174.474077106618
 30
0.0
 42
0.1204089834582973
  0
VERTEX
  5
133
  8
DEFAULT
 10
1016.482208258272
 20
2011.2278591348
 30
0.0
 42
-0.0316229263834177
  0
VERTEX
  5
134
  8
DEFAULT
 10
1036.168437319862
 20
1984.941683506613
 30
0.0
 42
-0.0551910689477375
  0
VERTEX
  5
135
  8
DEFAULT
 10
1097.622601475399
 20
1988.99886384544
 30
0.0
  0
SEQEND
  5
136
  8
DEFAULT
  0
POLYLINE
  5
137
  8
DEFAULT
 66
     1
 10
0.0
 20
0.0
 30
0.0
 70
     1
  0
VERTEX
  5
138
  8
DEFAULT
 10
886.9878839528326
 20
633.0778720359889
 30
0.0
 42
0.0221197201530943
  0
VERTEX
  5
139
  8
DEFAULT
 10
908.1318487692292
 20
619.5108902841157
 30
0.0
 42
0.1187198217080313
  0
VERTEX
  5
13A
  8
DEFAULT
 10
840.2643993708576
 20
473.9983351089094
 30
0.0
 42
0.0270142891709135
  0
VERTEX
  5
13B
  8
DEFAULT
 10
815.5374488790682
 20
477.8451827963561
 30
0.0
 42
-0.1177410763264995
  0
SEQEND
  5
13C
  8
DEFAULT
  0
POLYLINE
  5
13D
  8
DEFAULT
 66
     1
 10
0.0
 20
0.0
 30
0.0
 70
     1
  0
VERTEX
  5
13E
  8
DEFAULT
 10
825.8530619045321
 20
925.7233555263202
 30
0.0
 42
1.977615191669579
  0
VERTEX
  5
13F
  8
DEFAULT
 10
920.4609199600782
 20
1058.245094422073
 30
0.0
 42
-0.2016903486255504
  0
VERTEX
  5
140
  8
DEFAULT
 10
1097.622601475399
 20
1093.379950047982
 30
0.0
  0
VERTEX
  5
141
  8
DEFAULT
 10
1097.622601475399
 20
841.6841774470429
 30
0.0
 42
0.1500332508914804
  0
VERTEX
  5
142
  8
DEFAULT
 10
866.6380631070978
 20
722.4734750725172
 30
0.0
 42
-0.2346988420825495
  0
SEQEND
  5
143
  8
DEFAULT
  0
POLYLINE
  5
144
  8
DEFAULT
 66
     1
 10
0.0
 20
0.0
 30
0.0
 70
     1
  0
VERTEX
  5
145
  8
DEFAULT
 10
1097.622601475399
 20
739.5799489389995
 30
0.0
  0
VERTEX
  5
146
  8
DEFAULT
 10
1097.622601475399
 20
765.2169677436141
 30
0.0
 42
0.1381769110067014
  0
VERTEX
  5
147
  8
DEFAULT
 10
921.595302771117
 20
671.2925922170103
 30
0.0
 42
0.0279684178535373
  0
VERTEX
  5
148
  8
DEFAULT
 10
944.0393517657737
 20
658.080791182524
 30
0.0
 42
-0.1288774569594572
  0
SEQEND
  5
149
  8
DEFAULT
  0
POLYLINE
  5
14A
  8
DEFAULT
 66
     1
 10
0.0
 20
0.0
 30
0.0
 70
     1
  0
VERTEX
  5
14B
  8
DEFAULT
 10
790.0582663228835
 20
977.8494680598849
 30
0.0
 42
0.3564922897964078
  0
VERTEX
  5
14C
  8
DEFAULT
 10
686.1241058055483
 20
1066.017657476143
 30
0.0
 42
0.1501941905324075
  0
VERTEX
  5
14D
  8
DEFAULT
 10
752.3273522999638
 20
1190.782399368967
 30
0.0
 42
-0.0829332549919055
  0
VERTEX
  5
14E
  8
DEFAULT
 10
883.3953778831428
 20
1253.057616275414
 30
0.0
 42
0.0832604991669948
  0
VERTEX
  5
14F
  8
DEFAULT
 10
932.0575317225175
 20
1123.206824051901
 30
0.0
 42
0.1849483968311456
  0
SEQEND
  5
150
  8
DEFAULT
  0
POLYLINE
  5
151
  8
DEFAULT
 66
     1
 10
0.0
 20
0.0
 30
0.0
 70
     1
  0
VERTEX
  5
152
  8
DEFAULT
 10
647.2230127296715
 20
2037.873522520662
 30
0.0
 42
-0.0907364904939469
  0
VERTEX
  5
153
  8
DEFAULT
 10
727.4793287812905
 20
2085.950457422277
 30
0.0
 42
-0.4014097961304128
  0
VERTEX
  5
154
  8
DEFAULT
 10
622.1209041797017
 20
2302.453499338819
 30
0.0
 42
-0.1860341398293224
  0
VERTEX
  5
155
  8
DEFAULT
 10
452.0718475847691
 20
2226.932604525461
 30
0.0
 42
-0.4876000814902284
  0
VERTEX
  5
156
  8
DEFAULT
 10
440.0755861402642
 20
2070.958524090789
 30
0.0
 42
-0.1027263011295018
  0
SEQEND
  5
157
  8
DEFAULT
  0
POLYLINE
  5
158
  8
DEFAULT
 66
     1
 10
0.0
 20
0.0
 30
0.0
 70
     1
  0
VERTEX
  5
159
  8
DEFAULT
 10
943.0264409594183
 20
154.5632178340431
 30
0.0
 42
-0.2188282447094894
  0
VERTEX
  5
15A
  8
DEFAULT
 10
833.6874265676869
 20
419.2791389735226
 30
0.0
 42
0.0356319305645821
  0
VERTEX
  5
15B
  8
DEFAULT
 10
808.8435987254405
 20
423.4089533189241
 30
0.0
 42
0.2233244314857815
  0
VERTEX
  5
15C
  8
DEFAULT
 10
928.3384885461275
 20
134.1050849210042
 30
0.0
 42
0.0356319305645888
  0
SEQEND
  5
15D
  8
DEFAULT
  0
POLYLINE
  5
15E
  8
DEFAULT
 66
     1
 10
0.0
 20
0.0
 30
0.0
 70
     1
  0
VERTEX
  5
15F
  8
DEFAULT
 10
911.0265448990751
 20
116.058980374816
 30
0.0
 42
-0.2224900452733134
  0
VERTEX
  5
160
  8
DEFAULT
 10
783.8427709915966
 20
423.9780708404743
 30
0.0
 42
0.0358326170329261
  0
VERTEX
  5
161
  8
DEFAULT
 10
758.6974838953879
 20
420.9561302095476
 30
0.0
 42
0.2172482491204687
  0
VERTEX
  5
162
  8
DEFAULT
 10
891.078069489029
 20
100.4552655241031
 30
0.0
 42
0.0358326170328123
  0
SEQEND
  5
163
  8
DEFAULT
  0
POLYLINE
  5
164
  8
DEFAULT
 66
     1
 10
0.0
 20
0.0
 30
0.0
 70
     1
  0
VERTEX
  5
165
  8
DEFAULT
 10
824.0858630862099
 20
1810.010565239706
 30
0.0
 42
0.1334467788584736
  0
VERTEX
  5
166
  8
DEFAULT
 10
645.8129524002247
 20
1957.272121197257
 30
0.0
 42
0.0303118464025766
  0
VERTEX
  5
167
  8
DEFAULT
 10
633.2171125020482
 20
1935.523561649218
 30
0.0
 42
-0.1467195065532612
  0
VERTEX
  5
168
  8
DEFAULT
 10
814.3527130650775
 20
1779.696282061047
 30
0.0
 42
-0.0284679774400521
  0
SEQEND
  5
169
  8
DEFAULT
  0
POLYLINE
  5
16A
  8
DEFAULT
 66
     1
 10
0.0
 20
0.0
 30
0.0
 70
     1
  0
VERTEX
  5
16B
  8
DEFAULT
 10
930.7367493723028
 20
607.7038130895459
 30
0.0
 42
0.1238373648865772
  0
VERTEX
  5
16C
  8
DEFAULT
 10
864.459192284847
 20
467.4990685167776
 30
0.0
 42
-0.5667695527559743
  0
VERTEX
  5
16D
  8
DEFAULT
 10
952.4200480737101
 20
79.68582160928057
 30
0.0
  0
VERTEX
  5
16E
  8
DEFAULT
 10
1097.622601475399
 20
79.68582160928065
 30
0.0
  0
VERTEX
  5
16F
  8
DEFAULT
 10
1097.622601475399
 20
584.956684949045
 30
0.0
 42
-0.1516341872093899
  0
SEQEND
  5
170
  8
DEFAULT
  0
POLYLINE
  5
171
  8
DEFAULT
 66
     1
 10
0.0
 20
0.0
 30
0.0
 70
     1
  0
VERTEX
  5
172
  8
DEFAULT
 10
219.7180337558939
 20
1435.160287730182
 30
0.0
 42
-0.1851107864002795
  0
VERTEX
  5
173
  8
DEFAULT
 10
66.55689317824314
 20
1244.570084468421
 30
0.0
  0
VERTEX
  5
174
  8
DEFAULT
 10
66.5568931782431
 20
1215.960430993725
 30
0.0
 42
0.191631474388575
  0
VERTEX
  5
175
  8
DEFAULT
 10
241.9006936092507
 20
1422.593419852664
 30
0.0
 42
-0.0362226907283811
  0
SEQEND
  5
176
  8
DEFAULT
  0
POLYLINE
  5
177
  8
DEFAULT
 66
     1
 10
0.0
 20
0.0
 30
0.0
 70
     1
  0
VERTEX
  5
178
  8
DEFAULT
 10
926.1741255026051
 20
1313.714320655692
 30
0.0
 42
0.0169785013481555
  0
VERTEX
  5
179
  8
DEFAULT
 10
928.3484917632645
 20
1288.738167739475
 30
0.0
 42
0.0134614975186162
  0
VERTEX
  5
17A
  8
DEFAULT
 10
903.7458264263724
 20
1283.985400507342
 30
0.0
 42
-0.0159738059705075
  0
VERTEX
  5
17B
  8
DEFAULT
 10
901.3996070103703
 20
1309.060708089555
 30
0.0
 42
-0.0128517053974449
  0
SEQEND
  5
17C
  8
DEFAULT
  0
POLYLINE
  5
17D
  8
DEFAULT
 66
     1
 10
0.0
 20
0.0
 30
0.0
 70
     1
  0
VERTEX
  5
17E
  8
DEFAULT
 10
932.1995747211199
 20
1264.035419728642
 30
0.0
 42
0.090579321924165
  0
VERTEX
  5
17F
  8
DEFAULT
 10
980.0841849808602
 20
1140.276032758157
 30
0.0
 42
0.0226874237071383
  0
VERTEX
  5
180
  8
DEFAULT
 10
955.4460183622363
 20
1132.73488439815
 30
0.0
 42
-0.0863914547861943
  0
VERTEX
  5
181
  8
DEFAULT
 10
907.6626637546278
 20
1259.244713986613
 30
0.0
 42
-0.0141933396787384
  0
SEQEND
  5
182
  8
DEFAULT
  0
POLYLINE
  5
183
  8
DEFAULT
 66
     1
 10
0.0
 20
0.0
 30
0.0
 70
     1
  0
VERTEX
  5
184
  8
DEFAULT
 10
957.0053712841476
 20
1267.430160172306
 30
0.0
 42
0.0962340113730955
  0
VERTEX
  5
185
  8
DEFAULT
 10
1006.220218909819
 20
1145.700844633911
 30
0.0
 42
-0.0809666790577831
  0
VERTEX
  5
186
  8
DEFAULT
 10
1097.622601475399
 20
1145.341996582228
 30
0.0
  0
VERTEX
  5
187
  8
DEFAULT
 10
1097.622601475399
 20
1259.975482942628
 30
0.0
 42
0.0804456918443562
  0
SEQEND
  5
188
  8
DEFAULT
  0
POLYLINE
  5
189
  8
DEFAULT
 66
     1
 10
0.0
 20
0.0
 30
0.0
 70
     1
  0
VERTEX
  5
18A
  8
DEFAULT
 10
1071.697572389053
 20
2239.78212170912
 30
0.0
 42
0.1197652740261312
  0
VERTEX
  5
18B
  8
DEFAULT
 10
963.6921728148135
 20
2058.305046531201
 30
0.0
 42
-0.0326551195157595
  0
VERTEX
  5
18C
  8
DEFAULT
 10
990.5426012807307
 20
2037.593495446039
 30
0.0
 42
-0.1299592364744147
  0
VERTEX
  5
18D
  8
DEFAULT
 10
1097.622601475399
 20
2221.07414942416
 30
0.0
  0
VERTEX
  5
18E
  8
DEFAULT
 10
1097.622601475399
 20
2222.557387954802
 30
0.0
 42
-0.0459948091343386
  0
SEQEND
  5
18F
  8
DEFAULT
  0
POLYLINE
  5
190
  8
DEFAULT
 66
     1
 10
0.0
 20
0.0
 30
0.0
 70
     1
  0
VERTEX
  5
191
  8
DEFAULT
 10
872.2606902801689
 20
2096.920525296744
 30
0.0
 42
0.492105521610298
  0
VERTEX
  5
192
  8
DEFAULT
 10
913.6216080432843
 20
2369.725500300277
 30
0.0
 42
0.2944648303522652
  0
VERTEX
  5
193
  8
DEFAULT
 10
1010.711968582574
 20
2398.786934813682
 30
0.0
 42
0.2199021338961518
  0
VERTEX
  5
194
  8
DEFAULT
 10
1049.059768159464
 20
2261.805467602467
 30
0.0
 42
0.1157800083801976
  0
VERTEX
  5
195
  8
DEFAULT
 10
935.739966009084
 20
2074.660288781393
 30
0.0
 42
0.0649832896655655
  0
SEQEND
  5
196
  8
DEFAULT
  0
POLYLINE
  5
197
  8
DEFAULT
 66
     1
 10
0.0
 20
0.0
 30
0.0
 70
     1
  0
VERTEX
  5
198
  8
DEFAULT
 10
66.55689317824314
 20
987.3032266534044
 30
0.0
 42
-0.3938165793307004
  0
VERTEX
  5
199
  8
DEFAULT
 10
298.169774331355
 20
1134.922459810603
 30
0.0
 42
-0.3184485778181085
  0
VERTEX
  5
19A
  8
DEFAULT
 10
348.5299155756869
 20
1408.350608297915
 30
0.0
 42
-0.1201514682258866
  0
VERTEX
  5
19B
  8
DEFAULT
 10
265.2153105364879
 20
1413.498364602628
 30
0.0
 42
-0.199583930916857
  0
VERTEX
  5
19C
  8
DEFAULT
 10
66.55689317824323
 20
1187.90052480432
 30
0.0
  0
SEQEND
  5
19D
  8
DEFAULT
  0
POLYLINE
  5
19E
  8
DEFAULT
 66
     1
 10
0.0
 20
0.0
 30
0.0
 70
     1
  0
VERTEX
  5
19F
  8
DEFAULT
 10
526.1050431741467
 20
2983.022420922332
 30
0.0
 42
-2.034583793251595
  0
VERTEX
  5
1A0
  8
DEFAULT
 10
664.4666887489632
 20
3099.103467921022
 30
0.0
 42
4.502198012173551
  0
SEQEND
  5
1A1
  8
DEFAULT
  0
POLYLINE
  5
1A2
  8
DEFAULT
 66
     1
 10
0.0
 20
0.0
 30
0.0
 70
     1
  0
VERTEX
  5
1A3
  8
DEFAULT
 10
323.810728712209
 20
1229.207228838447
 30
0.0
 42
-3.016940150159997
  0
VERTEX
  5
1A4
  8
DEFAULT
 10
364.1218608475156
 20
1118.056926233917
 30
0.0
 42
6.356906767064112
  0
SEQEND
  5
1A5
  8
DEFAULT
  0
POLYLINE
  5
1A6
  8
DEFAULT
 66
     1
 10
0.0
 20
0.0
 30
0.0
 70
     1
  0
VERTEX
  5
1A7
  8
DEFAULT
 10
66.55689317824294
 20
2331.776632992008
 30
0.0
 42
0.4369369815747279
  0
VERTEX
  5
1A8
  8
DEFAULT
 10
66.55689317824327
 20
2700.825893456185
 30
0.0
  0
SEQEND
  5
1A9
  8
DEFAULT
  0
POLYLINE
  5
1AA
  8
DEFAULT
 66
     1
 10
0.0
 20
0.0
 30
0.0
 70
     1
  0
VERTEX
  5
1AB
  8
DEFAULT
 10
1097.622601475399
 20
1491.748007847535
 30
0.0
  0
VERTEX
  5
1AC
  8
DEFAULT
 10
1097.6226014754
 20
1927.148284922475
 30
0.0
 42
0.0378220423467508
  0
VERTEX
  5
1AD
  8
DEFAULT
 10
1064.68659267278
 20
1926.532746778807
 30
0.0
 42
-0.4182084190263284
  0
VERTEX
  5
1AE
  8
DEFAULT
 10
899.2908670243289
 20
1595.524688514791
 30
0.0
 42
0.2762166119134177
  0
SEQEND
  5
1AF
  8
DEFAULT
  0
POLYLINE
  5
1B0
  8
DEFAULT
 66
     1
 10
0.0
 20
0.0
 30
0.0
 70
     1
  0
VERTEX
  5
1B1
  8
DEFAULT
 10
1013.076833344772
 20
1915.222231166424
 30
0.0
 42
0.4053487692479936
  0
VERTEX
  5
1B2
  8
DEFAULT
 10
877.3482564142237
 20
1643.587323283665
 30
0.0
 42
0.4351941475278277
  0
SEQEND
  5
1B3
  8
DEFAULT
  0
POLYLINE
  5
1B4
  8
DEFAULT
 66
     1
 10
0.0
 20
0.0
 30
0.0
 70
     1
  0
VERTEX
  5
1B5
  8
DEFAULT
 10
1097.622601475399
 20
3503.103296847274
 30
0.0
  0
VERTEX
  5
1B6
  8
DEFAULT
 10
1097.622601475399
 20
3535.241377164836
 30
0.0
  0
VERTEX
  5
1B7
  8
DEFAULT
 10
66.55689317824321
 20
3535.241377164836
 30
0.0
  0
VERTEX
  5
1B8
  8
DEFAULT
 10
66.55689317824317
 20
3434.655224851616
 30
0.0
 42
-0.8216113217572559
  0
VERTEX
  5
1B9
  8
DEFAULT
 10
302.123537481703
 20
3391.36451795078
 30
0.0
 42
-0.640062140078084
  0
VERTEX
  5
1BA
  8
DEFAULT
 10
734.5970414004289
 20
3186.293287835339
 30
0.0
 42
-0.3671818185759507
  0
VERTEX
  5
1BB
  8
DEFAULT
 10
953.846003209601
 20
3205.053123617347
 30
0.0
 42
-0.4515285642656051
  0
SEQEND
  5
1BC
  8
DEFAULT
  0
POLYLINE
  5
1BD
  8
DEFAULT
 66
     1
 10
0.0
 20
0.0
 30
0.0
 70
     1
  0
VERTEX
  5
1BE
  8
DEFAULT
 10
1097.622601475399
 20
3448.766728204511
 30
0.0
 42
0.6921146627714183
  0
VERTEX
  5
1BF
  8
DEFAULT
 10
1097.622601475399
 20
3132.638346224494
 30
0.0
  0
SEQEND
  5
1C0
  8
DEFAULT
  0
POLYLINE
  5
1C1
  8
DEFAULT
 66
     1
 10
0.0
 20
0.0
 30
0.0
 70
     1
  0
VERTEX
  5
1C2
  8
DEFAULT
 10
632.2335211656263
 20
79.6858216092806
 30
0.0
  0
VERTEX
  5
1C3
  8
DEFAULT
 10
66.55689317824321
 20
79.68582160928065
 30
0.0
  0
VERTEX
  5
1C4
  8
DEFAULT
 10
66.55689317824314
 20
198.711281335198
 30
0.0
 42
0.8896752014260043
  0
VERTEX
  5
1C5
  8
DEFAULT
 10
359.9396198955844
 20
376.6543522020306
 30
0.0
 42
0.2750890504673915
  0
VERTEX
  5
1C6
  8
DEFAULT
 10
604.043605686656
 20
382.3834715772334
 30
0.0
 42
0.3737529342136232
  0
SEQEND
  5
1C7
  8
DEFAULT
  0
POLYLINE
  5
1C8
  8
DEFAULT
 66
     1
 10
0.0
 20
0.0
 30
0.0
 70
     1
  0
VERTEX
  5
1C9
  8
DEFAULT
 10
66.5568931782432
 20
886.4670840167402
 30
0.0
  0
VERTEX
  5
1CA
  8
DEFAULT
 10
66.55689317824329
 20
411.028612918084
 30
0.0
 42
-0.3420300326440495
  0
VERTEX
  5
1CB
  8
DEFAULT
 10
271.5625970772555
 20
463.3418517405927
 30
0.0
 42
-0.3181155206017673
  0
VERTEX
  5
1CC
  8
DEFAULT
 10
294.4983447757956
 20
738.2038529145947
 30
0.0
 42
-0.3884815224904816
  0
SEQEND
  5
1CD
  8
DEFAULT
  0
POLYLINE
  5
1CE
  8
DEFAULT
 66
     1
 10
0.0
 20
0.0
 30
0.0
 70
     1
  0
VERTEX
  5
1CF
  8
DEFAULT
 10
291.3372895389612
 20
525.2533194011869
 30
0.0
 42
6.611785912483318
  0
VERTEX
  5
1D0
  8
DEFAULT
 10
290.3273199980194
 20
640.6286185460347
 30
0.0
 42
-2.684320889257895
  0
SEQEND
  5
1D1
  8
DEFAULT
  0
POLYLINE
  5
1D2
  8
DEFAULT
 66
     1
 10
0.0
 20
0.0
 30
0.0
 70
     1
  0
VERTEX
  5
1D3
  8
DEFAULT
 10
66.55689317824329
 20
1636.262659939286
 30
0.0
 42
0.8264721631156112
  0
VERTEX
  5
1D4
  8
DEFAULT
 10
66.55689317824321
 20
1942.23143573887
 30
0.0
  0
SEQEND
  5
1D5
  8
DEFAULT
  0
CIRCLE
  5
1D6
  8
DEFAULT
 10
202.823884285979
 20
304.8699471266409
 30
0.0
 40
132.1610626170609
  0
CIRCLE
  5
1D7
  8
DEFAULT
 10
357.5130893217648
 20
583.5246776345118
 30
0.0
 40
55.5961806445362
  0
CIRCLE
  5
1D8
  8
DEFAULT
 10
261.5402600679511
 20
936.8851553350723
 30
0.0
 40
149.7106751579838
  0
CIRCLE
  5
1D9
  8
DEFAULT
 10
684.1186439250579
 20
958.3098125769333
 30
0.0
 40
59.23257310269357
  0
CIRCLE
  5
1DA
  8
DEFAULT
 10
921.9235213673979
 20
957.1695822770162
 30
0.0
 40
70.1257547595347
  0
CIRCLE
  5
1DB
  8
DEFAULT
 10
418.5892313952668
 20
1200.695747069598
 30
0.0
 40
60.75277231030476
  0
CIRCLE
  5
1DC
  8
DEFAULT
 10
317.4289579713263
 20
1581.775174635595
 30
0.0
 40
128.0292103767442
  0
CIRCLE
  5
1DD
  8
DEFAULT
 10
576.2916450875962
 20
1610.523274298344
 30
0.0
 40
57.19621060696056
  0
CIRCLE
  5
1DE
  8
DEFAULT
 10
376.4804452155237
 20
2386.766171236278
 30
0.0
 40
62.56896127966154
  0
CIRCLE
  5
1DF
  8
DEFAULT
 10
385.1166700597835
 20
2153.633886036262
 30
0.0
 40
61.09653217719526
  0
CIRCLE
  5
1E0
  8
DEFAULT
 10
787.9126678773387
 20
2249.246748709603
 30
0.0
 40
120.2272531539008
  0
CIRCLE
  5
1E1
  8
DEFAULT
 10
939.6330862657571
 20
2459.538298179519
 30
0.0
 40
60.48306140476225
  0
CIRCLE
  5
1E2
  8
DEFAULT
 10
717.4949914362343
 20
2703.077400224832
 30
0.0
 40
69.18949452214956
  0
CIRCLE
  5
1E3
  8
DEFAULT
 10
246.5090792941336
 20
2908.544846975816
 30
0.0
 40
64.87907785720692
  0
CIRCLE
  5
1E4
  8
DEFAULT
 10
550.5051998426129
 20
3094.4388125272
 30
0.0
 40
64.83387272391656
  0
CIRCLE
  5
1E5
  8
DEFAULT
 10
855.2723064317793
 20
3066.521065210599
 30
0.0
 40
117.1655579103691
  0
CIRCLE
  5
1E6
  8
DEFAULT
 10
180.0597471246744
 20
3389.717677686745
 30
0.0
 40
78.67814110009431
  0
ENDSEC
  0
EOF
