  0
SECTION
  2
HEADER
  9
$ACADVER
  1
AC1009
  9
$DWGCODEPAGE
  3
ansi_1252
  9
$INSBASE
 10
0.0
 20
0.0
 30
0.0
  9
$EXTMIN
 10
295.3960020256127
 20
3024.282817587623
 30
0.0
  9
$EXTMAX
 10
1629.111323877514
 20
4120.58065820593
 30
0.0
  9
$LIMMIN
 10
0.0
 20
0.0
  9
$LIMMAX
 10
12.0
 20
9.0
  9
$ORTHOMODE
 70
     0
  9
$REGENMODE
 70
     1
  9
$FILLMODE
 70
     1
  9
$QTEXTMODE
 70
     0
  9
$MIRRTEXT
 70
     1
  9
$DRAGMODE
 70
     2
  9
$LTSCALE
 40
1.0
  9
$OSMODE
 70
    37
  9
$ATTMODE
 70
     1
  9
$TEXTSIZE
 40
0.2
  9
$TRACEWID
 40
0.05
  9
$TEXTSTYLE
  7
STANDARD
  9
$CLAYER
  8
LAYER_01
  9
$CELTYPE
  6
BYLAYER
  9
$CECOLOR
 62
   256
  9
$DIMSCALE
 40
1.0
  9
$DIMASZ
 40
0.18
  9
$DIMEXO
 40
0.0625
  9
$DIMDLI
 40
0.38
  9
$DIMRND
 40
0.0
  9
$DIMDLE
 40
0.0
  9
$DIMEXE
 40
0.18
  9
$DIMTP
 40
0.0
  9
$DIMTM
 40
0.0
  9
$DIMTXT
 40
0.18
  9
$DIMCEN
 40
0.09
  9
$DIMTSZ
 40
0.0
  9
$DIMTOL
 70
     0
  9
$DIMLIM
 70
     0
  9
$DIMTIH
 70
     1
  9
$DIMTOH
 70
     1
  9
$DIMSE1
 70
     0
  9
$DIMSE2
 70
     0
  9
$DIMTAD
 70
     0
  9
$DIMZIN
 70
     0
  9
$DIMBLK
  1

  9
$DIMASO
 70
     1
  9
$DIMSHO
 70
     1
  9
$DIMPOST
  1

  9
$DIMAPOST
  1

  9
$DIMALT
 70
     0
  9
$DIMALTD
 70
     2
  9
$DIMALTF
 40
25.4
  9
$DIMLFAC
 40
1.0
  9
$DIMTOFL
 70
     0
  9
$DIMTVP
 40
0.0
  9
$DIMTIX
 70
     0
  9
$DIMSOXD
 70
     0
  9
$DIMSAH
 70
     0
  9
$DIMBLK1
  1

  9
$DIMBLK2
  1

  9
$DIMSTYLE
  2
STANDARD_ACAD
  9
$DIMCLRD
 70
     0
  9
$DIMCLRE
 70
     0
  9
$DIMCLRT
 70
     0
  9
$DIMTFAC
 40
1.0
  9
$DIMGAP
 40
0.09
  9
$LUNITS
 70
     2
  9
$LUPREC
 70
     3
  9
$SKETCHINC
 40
0.1
  9
$FILLETRAD
 40
0.0
  9
$AUNITS
 70
     0
  9
$AUPREC
 70
     0
  9
$MENU
  1
.
  9
$ELEVATION
 40
0.0
  9
$PELEVATION
 40
0.0
  9
$THICKNESS
 40
0.0
  9
$LIMCHECK
 70
     0
  9
$CHAMFERA
 40
0.0
  9
$CHAMFERB
 40
0.0
  9
$SKPOLY
 70
     0
  9
$TDCREATE
 40
2460676.447277049
  9
$TDUPDATE
 40
2460676.447277223
  9
$TDINDWG
 40
0.0000000116
  9
$TDUSRTIMER
 40
0.0000000116
  9
$USRTIMER
 70
     1
  9
$ANGBASE
 50
0.0
  9
$ANGDIR
 70
     0
  9
$PDMODE
 70
     0
  9
$PDSIZE
 40
0.0
  9
$PLINEWID
 40
0.0
  9
$COORDS
 70
     1
  9
$SPLFRAME
 70
     0
  9
$SPLINETYPE
 70
     6
  9
$SPLINESEGS
 70
     8
  9
$ATTDIA
 70
     0
  9
$ATTREQ
 70
     1
  9
$HANDLING
 70
     1
  9
$HANDSEED
  5
473
  9
$SURFTAB1
 70
     6
  9
$SURFTAB2
 70
     6
  9
$SURFTYPE
 70
     6
  9
$SURFU
 70
     6
  9
$SURFV
 70
     6
  9
$UCSNAME
  2

  9
$UCSORG
 10
0.0
 20
0.0
 30
0.0
  9
$UCSXDIR
 10
1.0
 20
0.0
 30
0.0
  9
$UCSYDIR
 10
0.0
 20
1.0
 30
0.0
  9
$PUCSNAME
  2

  9
$PUCSORG
 10
0.0
 20
0.0
 30
0.0
  9
$PUCSXDIR
 10
1.0
 20
0.0
 30
0.0
  9
$PUCSYDIR
 10
0.0
 20
1.0
 30
0.0
  9
$USERI1
 70
     0
  9
$USERI2
 70
     0
  9
$USERI3
 70
     0
  9
$USERI4
 70
     0
  9
$USERI5
 70
     0
  9
$USERR1
 40
0.0
  9
$USERR2
 40
0.0
  9
$USERR3
 40
0.0
  9
$USERR4
 40
0.0
  9
$USERR5
 40
0.0
  9
$WORLDVIEW
 70
     1
  9
$SHADEDGE
 70
     3
  9
$SHADEDIF
 70
    70
  9
$TILEMODE
 70
     1
  9
$MAXACTVP
 70
    64
  9
$PLIMCHECK
 70
     0
  9
$PEXTMIN
 10
1.000000000000000E+20
 20
1.000000000000000E+20
 30
1.000000000000000E+20
  9
$PEXTMAX
 10
-1.000000000000000E+20
 20
-1.000000000000000E+20
 30
-1.000000000000000E+20
  9
$PLIMMIN
 10
0.0
 20
0.0
  9
$PLIMMAX
 10
12.0
 20
9.0
  9
$UNITMODE
 70
     0
  9
$VISRETAIN
 70
     1
  9
$PLINEGEN
 70
     0
  9
$PSLTSCALE
 70
     1
  0
ENDSEC
  0
SECTION
  2
TABLES
  0
TABLE
  2
VPORT
 70
     1
  0
VPORT
  2
*ACTIVE
 70
     0
 10
0.0
 20
0.0
 11
1.0
 21
1.0
 12
10.42990654205607
 22
4.5
 13
0.0
 23
0.0
 14
0.5
 24
0.5
 15
0.5
 25
0.5
 16
0.0
 26
0.0
 36
1.0
 17
0.0
 27
0.0
 37
0.0
 40
9.0
 41
1.972972972850329
 42
50.0
 43
0.0
 44
0.0
 50
0.0
 51
0.0
 71
     0
 72
   100
 73
     1
 74
     3
 75
     0
 76
     0
 77
     0
 78
     0
  0
ENDTAB
  0
TABLE
  2
LTYPE
 70
     1
  0
LTYPE
  2
CONTINUOUS
 70
     0
  3
Solid line
 72
    65
 73
     0
 40
0.0
  0
ENDTAB
  0
TABLE
  2
LAYER
 70
     2
  0
LAYER
  2
0
 70
     0
 62
     7
  6
CONTINUOUS
  0
LAYER
  2
LAYER_01
 70
     0
 62
    12
  6
CONTINUOUS
  0
ENDTAB
  0
TABLE
  2
STYLE
 70
     1
  0
STYLE
  2
STANDARD
 70
     0
 40
0.0
 41
1.0
 50
0.0
 71
     0
 42
0.2
  3
txt
  4

  0
ENDTAB
  0
TABLE
  2
VIEW
 70
     0
  0
ENDTAB
  0
TABLE
  2
UCS
 70
     0
  0
ENDTAB
  0
TABLE
  2
APPID
 70
     2
  0
APPID
  2
ACAD
 70
     0
  0
APPID
  2
RHINO
 70
     0
  0
ENDTAB
  0
TABLE
  2
DIMSTYLE
 70
     1
  0
DIMSTYLE
  2
STANDARD_ACAD
 70
     0
  3

  4

  5

  6

  7

 40
1.0
 41
0.18
 42
0.0625
 43
0.38
 44
0.18
 45
0.0
 46
0.0
 47
0.0
 48
0.0
140
0.18
141
0.09
142
0.0
143
25.4
144
1.0
145
0.0
146
1.0
147
0.09
 71
     0
 72
     0
 73
     1
 74
     1
 75
     0
 76
     0
 77
     0
 78
     0
170
     0
171
     2
172
     0
173
     0
174
     0
175
     0
176
     0
177
     0
178
     0
  0
ENDTAB
  0
ENDSEC
  0
SECTION
  2
BLOCKS
  0
BLOCK
  8
0
  2
$MODEL_SPACE
 70
     0
 10
0.0
 20
0.0
 30
0.0
  3
$MODEL_SPACE
  1

  0
ENDBLK
  5
21
  8
0
  0
BLOCK
 67
     1
  8
0
  2
$PAPER_SPACE
 70
     0
 10
0.0
 20
0.0
 30
0.0
  3
$PAPER_SPACE
  1

  0
ENDBLK
  5
1D
 67
     1
  8
0
  0
ENDSEC
  0
SECTION
  2
ENTITIES
  0
ARC
  5
60
  8
LAYER_01
 10
-577.1971094768973
 20
3838.7795507545
 30
0.0
 40
281.8011074505903
 50
235.1590653124242
 51
243.9888099745364
210
0.0
220
0.0
230
-1.0
  0
ARC
  5
61
  8
LAYER_01
 10
962.253662950352
 20
3572.431737896786
 30
0.0
 40
261.8011074498613
 50
177.1338558074154
 51
182.8661441925846
  0
ARC
  5
62
  8
LAYER_01
 10
-577.1971094767157
 20
3306.083925038763
 30
0.0
 40
281.8011074509465
 50
116.0111900254694
 51
124.8409346875704
210
0.0
220
0.0
230
-1.0
  0
ARC
  5
63
  8
LAYER_01
 10
-962.2536629517843
 20
3572.431737896794
 30
0.0
 40
226.7902604336184
 50
351.1063393750919
 51
8.893660624903161
210
0.0
220
0.0
230
-1.0
  0
ARC
  5
64
  8
LAYER_01
 10
577.1971094767505
 20
3306.083925038791
 30
0.0
 40
261.8011074509037
 50
50.1001653061054
 51
61.26782235266617
  0
ARC
  5
65
  8
LAYER_01
 10
962.2536629516183
 20
3572.431737896796
 30
0.0
 40
261.8011074511274
 50
188.0762414784247
 51
199.2438985249755
  0
ARC
  5
66
  8
LAYER_01
 10
-577.1971094766486
 20
3306.08392503865
 30
0.0
 40
226.7902604334079
 50
127.4435452270724
 51
163.2123909418427
210
0.0
220
0.0
230
-1.0
  0
ARC
  5
67
  8
LAYER_01
 10
962.2536629514846
 20
3572.431737896659
 30
0.0
 40
261.801107450927
 50
230.1001653061053
 51
241.267822352665
  0
ARC
  5
68
  8
LAYER_01
 10
577.197109476592
 20
3306.083925038636
 30
0.0
 40
261.8011074511364
 50
8.076241478424427
 51
19.2438985249753
  0
ARC
  5
69
  8
LAYER_01
 10
-962.2536629515477
 20
3572.43173789677
 30
0.0
 40
226.7902604333814
 50
307.4435452270702
 51
343.2123909418442
210
0.0
220
0.0
230
-1.0
  0
ARC
  5
6A
  8
LAYER_01
 10
962.2536629515705
 20
3572.431737896746
 30
0.0
 40
281.8011074510419
 50
248.4987626505605
 51
291.5012373494396
  0
ARC
  5
6B
  8
LAYER_01
 10
1347.310216426463
 20
3306.083925038691
 30
0.0
 40
281.8011074510482
 50
179.1546988194866
 51
70.93741808854439
  0
ARC
  5
6C
  8
LAYER_01
 10
1347.310216426464
 20
3838.779550754881
 30
0.0
 40
281.8011074510493
 50
289.0625819114553
 51
180.8453011805134
  0
ARC
  5
6D
  8
LAYER_01
 10
962.2536629515704
 20
3572.431737896823
 30
0.0
 40
281.8011074510424
 50
68.49876265056042
 51
111.5012373494396
  0
ARC
  5
6E
  8
LAYER_01
 10
577.1971094766783
 20
3838.779550754879
 30
0.0
 40
281.8011074510478
 50
359.1546988194866
 51
250.9374180885443
  0
ARC
  5
6F
  8
LAYER_01
 10
577.1971094766693
 20
3306.08392503868
 30
0.0
 40
281.8011074510567
 50
109.0625819114531
 51
0.8453011805157293
  0
LINE
  5
70
  8
LAYER_01
 10
972.2536629515699
 20
3834.041790957845
 30
0.0
 11
972.2536629515707
 21
3799.001423043437
 31
0.0
  0
ARC
  5
71
  8
LAYER_01
 10
-962.2536629515854
 20
3572.431737896841
 30
0.0
 40
226.7902604333522
 50
92.52719679615709
 51
119.5495967938324
210
0.0
220
0.0
230
-1.0
  0
ARC
  5
72
  8
LAYER_01
 10
-1347.310216426617
 20
3838.779550754943
 30
0.0
 40
281.8011074512037
 50
345.8150014813481
 51
354.6447461434408
210
0.0
220
0.0
230
-1.0
  0
ARC
  5
73
  8
LAYER_01
 10
962.2536629515703
 20
3572.431737896785
 30
0.0
 40
261.8011074510782
 50
66.47791963851395
 51
87.81094428108983
  0
ARC
  5
74
  8
LAYER_01
 10
1347.310216426774
 20
3838.779550755737
 30
0.0
 40
281.8011074519418
 50
248.498762650571
 51
250.9374180885532
  0
ARC
  5
75
  8
LAYER_01
 10
1347.310216426194
 20
3306.083925039511
 30
0.0
 40
281.8011074501664
 50
109.0625819114468
 51
111.5012373494443
  0
ARC
  5
76
  8
LAYER_01
 10
962.2536629475405
 20
3572.4317378968
 30
0.0
 40
281.8011074551076
 50
359.1546988194872
 51
0.8453011805064439
  0
ARC
  5
77
  8
LAYER_01
 10
577.197109476148
 20
3306.083925037296
 30
0.0
 40
281.8011074525211
 50
68.49876265056939
 51
70.93741808854662
  0
ARC
  5
78
  8
LAYER_01
 10
577.1971094761353
 20
3838.779550756324
 30
0.0
 40
281.8011074525726
 50
289.0625819114528
 51
291.5012373494291
  0
ARC
  5
79
  8
LAYER_01
 10
962.2536629534095
 20
3572.4317378968
 30
0.0
 40
281.8011074529164
 50
179.1546988194869
 51
180.8453011805193
  0
ARC
  5
7A
  8
LAYER_01
 10
-1347.310216426538
 20
3838.779550754931
 30
0.0
 40
261.8011074511249
 50
340.7561014750246
 51
351.9237585215756
210
0.0
220
0.0
230
-1.0
  0
ARC
  5
7B
  8
LAYER_01
 10
-962.2536629515204
 20
3572.431737896716
 30
0.0
 40
261.801107451162
 50
118.7321776473407
 51
129.8998346938909
210
0.0
220
0.0
230
-1.0
  0
ARC
  5
7C
  8
LAYER_01
 10
1347.31021642639
 20
3838.77955075485
 30
0.0
 40
226.7902604332892
 50
196.7876090581486
 51
232.5564547729369
  0
ARC
  5
7D
  8
LAYER_01
 10
-962.2536629515969
 20
3572.43173789679
 30
0.0
 40
261.8011074510512
 50
160.7561014750222
 51
171.9237585215766
210
0.0
220
0.0
230
-1.0
  0
ARC
  5
7E
  8
LAYER_01
 10
-1347.310216426557
 20
3838.779550755019
 30
0.0
 40
261.8011074511949
 50
298.7321776473406
 51
309.8998346938885
210
0.0
220
0.0
230
-1.0
  0
ARC
  5
7F
  8
LAYER_01
 10
962.2536629516637
 20
3572.43173789685
 30
0.0
 40
226.7902604333001
 50
16.78760905814864
 51
52.55645477293637
  0
ARC
  5
80
  8
LAYER_01
 10
577.1971094766909
 20
3838.779550754891
 30
0.0
 40
226.7902604333616
 50
351.1063393750917
 51
299.549596793823
  0
ARC
  5
81
  8
LAYER_01
 10
962.2536629522509
 20
3572.431737896665
 30
0.0
 40
281.801107451767
 50
165.8150014813566
 51
174.644746143432
  0
ARC
  5
82
  8
LAYER_01
 10
-577.1971094765253
 20
3838.779550755006
 30
0.0
 40
261.8011074512054
 50
246.4779196384967
 51
182.8661441925885
210
0.0
220
0.0
230
-1.0
  0
ARC
  5
83
  8
LAYER_01
 10
962.2536629513504
 20
3572.431737897172
 30
0.0
 40
281.8011074506335
 50
116.0111900254659
 51
124.8409346875768
  0
ARC
  5
84
  8
LAYER_01
 10
962.2536629508681
 20
3572.431737896912
 30
0.0
 40
281.8011074517894
 50
345.8150014813565
 51
354.6447461434312
  0
ARC
  5
85
  8
LAYER_01
 10
-1347.310216426585
 20
3306.083925038585
 30
0.0
 40
261.8011074511744
 50
66.47791963850108
 51
2.866144192584321
210
0.0
220
0.0
230
-1.0
  0
ARC
  5
86
  8
LAYER_01
 10
962.2536629517813
 20
3572.431737896416
 30
0.0
 40
281.8011074506538
 50
296.0111900254656
 51
304.8409346875764
  0
ARC
  5
87
  8
LAYER_01
 10
1347.310216426458
 20
3306.083925038674
 30
0.0
 40
226.7902604333699
 50
171.1063393750909
 51
119.5495967938242
  0
ARC
  5
88
  8
LAYER_01
 10
962.2536629516289
 20
3572.4317378967
 30
0.0
 40
261.8011074511808
 50
118.7321776473405
 51
129.8998346938894
  0
ARC
  5
89
  8
LAYER_01
 10
-577.1971094767256
 20
3838.779550754867
 30
0.0
 40
226.7902604333193
 50
196.7876090581503
 51
232.5564547729349
210
0.0
220
0.0
230
-1.0
  0
ARC
  5
8A
  8
LAYER_01
 10
962.2536629516227
 20
3572.431737896773
 30
0.0
 40
261.8011074511317
 50
160.7561014750249
 51
171.9237585215756
  0
ARC
  5
8B
  8
LAYER_01
 10
577.1971094766488
 20
3838.779550754921
 30
0.0
 40
261.8011074510782
 50
298.7321776473381
 51
309.8998346938914
  0
ARC
  5
8C
  8
LAYER_01
 10
-962.2536629514952
 20
3572.431737896838
 30
0.0
 40
226.7902604333208
 50
16.78760905815031
 51
52.5564547729347
210
0.0
220
0.0
230
-1.0
  0
ARC
  5
8D
  8
LAYER_01
 10
577.1971094765912
 20
3838.779550754936
 30
0.0
 40
261.8011074511378
 50
340.7561014750245
 51
351.9237585215751
  0
ARC
  5
8E
  8
LAYER_01
 10
962.2536629514939
 20
3572.431737896658
 30
0.0
 40
281.8011074509299
 50
235.1590653124296
 51
243.9888099745312
  0
ARC
  5
8F
  8
LAYER_01
 10
-577.1971094765565
 20
3306.083925038585
 30
0.0
 40
261.8011074511739
 50
177.1338558074157
 51
113.5220803614989
210
0.0
220
0.0
230
-1.0
  0
ARC
  5
90
  8
LAYER_01
 10
962.2536629521877
 20
3572.431737896892
 30
0.0
 40
281.8011074517026
 50
185.3552538565666
 51
194.1849985186435
  0
ARC
  5
91
  8
LAYER_01
 10
577.1971094765953
 20
3306.083925038613
 30
0.0
 40
226.7902604334662
 50
60.45040320616418
 51
8.893660624920807
  0
LINE
  5
92
  8
LAYER_01
 10
972.2536629515703
 20
3310.821684835723
 30
0.0
 11
972.2536629515698
 21
3345.862052750133
 31
0.0
  0
ARC
  5
93
  8
LAYER_01
 10
962.2536629515705
 20
3572.431737896785
 30
0.0
 40
226.7902604334079
 50
272.52719679616
 51
299.5495967938286
  0
ARC
  5
94
  8
LAYER_01
 10
1347.310216427041
 20
3306.083925038562
 30
0.0
 40
281.8011074516321
 50
165.8150014813564
 51
174.6447461434361
  0
ARC
  5
95
  8
LAYER_01
 10
-962.2536629516122
 20
3572.431737896585
 30
0.0
 40
261.8011074508784
 50
246.4779196385047
 51
267.8109442810972
210
0.0
220
0.0
230
-1.0
  0
LINE
  5
96
  8
LAYER_01
 10
952.2536629515703
 20
3799.001423043437
 30
0.0
 11
952.2536629515704
 21
3834.041790957845
 31
0.0
  0
ARC
  5
97
  8
LAYER_01
 10
962.2536629515703
 20
3572.431737896785
 30
0.0
 40
261.8011074510782
 50
92.18905571891024
 51
113.522080361486
  0
ARC
  5
98
  8
LAYER_01
 10
-577.1971094765615
 20
3838.779550754938
 30
0.0
 40
281.8011074511663
 50
185.3552538565586
 51
194.1849985186527
210
0.0
220
0.0
230
-1.0
  0
ARC
  5
99
  8
LAYER_01
 10
-962.2536629515594
 20
3572.43173789682
 30
0.0
 40
226.7902604333719
 50
60.45040320616939
 51
87.47280320384219
210
0.0
220
0.0
230
-1.0
  0
LINE
  5
9A
  8
LAYER_01
 10
952.2536629515699
 20
3310.821684835724
 30
0.0
 11
952.2536629515703
 21
3345.862052750134
 31
0.0
  0
ARC
  5
9B
  8
LAYER_01
 10
-962.2536629515705
 20
3572.431737896785
 30
0.0
 40
226.7902604334079
 50
272.5271967961604
 51
299.5495967938286
210
0.0
220
0.0
230
-1.0
  0
ARC
  5
9C
  8
LAYER_01
 10
-577.1971094760269
 20
3306.083925038543
 30
0.0
 40
281.8011074517068
 50
165.8150014813564
 51
174.6447461434338
210
0.0
220
0.0
230
-1.0
  0
ARC
  5
9D
  8
LAYER_01
 10
962.2536629515703
 20
3572.431737896785
 30
0.0
 40
261.8011074510782
 50
246.477919638514
 51
267.8109442810897
  0
ARC
  5
9E
  8
LAYER_01
 10
1347.310216426546
 20
3306.083925038567
 30
0.0
 40
261.8011074511754
 50
118.7321776473401
 51
129.8998346938892
  0
ARC
  5
9F
  8
LAYER_01
 10
-962.2536629515705
 20
3572.431737896785
 30
0.0
 40
226.7902604334079
 50
196.7876090581574
 51
232.5564547729275
210
0.0
220
0.0
230
-1.0
  0
ARC
  5
A0
  8
LAYER_01
 10
1347.310216426441
 20
3306.083925038663
 30
0.0
 40
261.8011074510257
 50
160.7561014750223
 51
171.923758521578
  0
ARC
  5
A1
  8
LAYER_01
 10
962.2536629515199
 20
3572.431737896857
 30
0.0
 40
261.8011074511666
 50
298.7321776473404
 51
309.8998346938897
  0
ARC
  5
A2
  8
LAYER_01
 10
-1347.310216426467
 20
3306.083925038668
 30
0.0
 40
226.7902604333779
 50
16.78760905815482
 51
52.55645477292978
210
0.0
220
0.0
230
-1.0
  0
ARC
  5
A3
  8
LAYER_01
 10
962.2536629515893
 20
3572.431737896784
 30
0.0
 40
261.8011074510597
 50
340.7561014750222
 51
351.9237585215761
  0
ARC
  5
A4
  8
LAYER_01
 10
-1347.310216426613
 20
3838.779550755124
 30
0.0
 40
281.8011074513141
 50
296.0111900254755
 51
304.8409346875649
210
0.0
220
0.0
230
-1.0
  0
ARC
  5
A5
  8
LAYER_01
 10
-962.2536629514029
 20
3572.431737896784
 30
0.0
 40
226.7902604335736
 50
171.1063393750926
 51
188.8936606249068
210
0.0
220
0.0
230
-1.0
  0
ARC
  5
A6
  8
LAYER_01
 10
-1347.310216426313
 20
3306.083925038955
 30
0.0
 40
281.8011074507248
 50
55.1590653124261
 51
63.98880997453407
210
0.0
220
0.0
230
-1.0
  0
ARC
  5
A7
  8
LAYER_01
 10
962.2536629515703
 20
3572.431737896785
 30
0.0
 40
261.8011074510782
 50
357.1338558074287
 51
2.866144192571326
  0
ARC
  5
A8
  8
LAYER_01
 10
962.2536629515705
 20
3572.431737896785
 30
0.0
 40
281.8011074510779
 50
5.355253856556724
 51
14.18499851865388
  0
ARC
  5
A9
  8
LAYER_01
 10
1347.310216426464
 20
3838.7795507549
 30
0.0
 40
226.7902604333765
 50
240.4504032061745
 51
188.8936606249097
  0
ARC
  5
AA
  8
LAYER_01
 10
962.2536629514395
 20
3572.431737896566
 30
0.0
 40
281.8011074513328
 50
55.15906531243505
 51
63.98880997452427
  0
ARC
  5
AB
  8
LAYER_01
 10
-1347.310216426558
 20
3838.779550754967
 30
0.0
 40
261.801107451146
 50
357.1338558074196
 51
293.5220803614952
210
0.0
220
0.0
230
-1.0
  0
LINE
  5
AC
  8
LAYER_01
 10
531.5235977722145
 20
3759.67070792275
 30
0.0
 11
508.3750244469697
 21
3748.677302490743
 31
0.0
  0
LINE
  5
AD
  8
LAYER_01
 10
508.3750244469697
 20
3748.677302490743
 30
0.0
 11
510.4287427313725
 21
3723.133347213711
 31
0.0
  0
LINE
  5
AE
  8
LAYER_01
 10
510.4287427313725
 20
3723.133347213711
 30
0.0
 11
533.5773160566171
 21
3734.126752645718
 31
0.0
  0
LINE
  5
AF
  8
LAYER_01
 10
533.5773160566171
 20
3734.126752645718
 30
0.0
 11
531.5235977722145
 21
3759.67070792275
 31
0.0
  0
ARC
  5
B0
  8
LAYER_01
 10
452.98733367819
 20
3575.835125395832
 30
0.0
 40
127.3750080761417
 50
26.27988164524911
 51
55.05832111689939
  0
ARC
  5
B1
  8
LAYER_01
 10
-401.9443579209114
 20
3813.78593759282
 30
0.0
 40
182.228283378294
 50
227.121697657675
 51
242.1511246086076
210
0.0
220
0.0
230
-1.0
  0
ARC
  5
B2
  8
LAYER_01
 10
577.1971094766338
 20
3838.779550754854
 30
0.0
 40
206.7902604333414
 50
244.1615598101179
 51
267.2281995253426
  0
ARC
  5
B3
  8
LAYER_01
 10
-452.9873336781916
 20
3575.835125395834
 30
0.0
 40
147.3750080761396
 50
126.1712610030772
 51
140.8014304996798
210
0.0
220
0.0
230
-1.0
  0
LINE
  5
B4
  8
LAYER_01
 10
567.1971094766484
 20
3668.977597542049
 30
0.0
 11
567.1971094766484
 21
3693.192302254116
 31
0.0
  0
ARC
  5
B5
  8
LAYER_01
 10
496.6540155411376
 20
3628.464278880216
 30
0.0
 40
95.73946475663247
 50
42.53846942800144
 51
55.99225579241099
  0
ARC
  5
B6
  8
LAYER_01
 10
-401.9443579209515
 20
3813.78593759278
 30
0.0
 40
182.2282833782388
 50
215.552842612028
 51
220.7624924747469
210
0.0
220
0.0
230
-1.0
  0
ARC
  5
B7
  8
LAYER_01
 10
496.6540155410223
 20
3628.464278880061
 30
0.0
 40
115.7394647568246
 50
52.44671009900627
 51
56.26908291617747
  0
ARC
  5
B8
  8
LAYER_01
 10
401.9443579207893
 20
3813.785937592878
 30
0.0
 40
182.228283378429
 50
330.7407057854448
 51
335.0728894899935
  0
LINE
  5
B9
  8
LAYER_01
 10
567.1971094766486
 20
3736.983103229383
 30
0.0
 11
567.1971094766484
 21
3720.220998526013
 31
0.0
  0
ARC
  5
BA
  8
LAYER_01
 10
-701.4068852751072
 20
3575.835125395832
 30
0.0
 40
127.3750080761417
 50
26.27988164524911
 51
55.05832111689939
210
0.0
220
0.0
230
-1.0
  0
ARC
  5
BB
  8
LAYER_01
 10
752.4498610323858
 20
3813.78593759282
 30
0.0
 40
182.228283378294
 50
227.121697657675
 51
242.1511246086076
  0
ARC
  5
BC
  8
LAYER_01
 10
-577.1971094766634
 20
3838.779550754854
 30
0.0
 40
206.7902604333414
 50
244.1615598101179
 51
267.2281995253426
210
0.0
220
0.0
230
-1.0
  0
ARC
  5
BD
  8
LAYER_01
 10
701.4068852751057
 20
3575.835125395834
 30
0.0
 40
147.3750080761396
 50
126.1712610030772
 51
140.8014304996798
  0
LINE
  5
BE
  8
LAYER_01
 10
587.1971094766488
 20
3668.977597542049
 30
0.0
 11
587.1971094766488
 21
3693.192302254116
 31
0.0
  0
ARC
  5
BF
  8
LAYER_01
 10
-657.7402034121596
 20
3628.464278880216
 30
0.0
 40
95.73946475663247
 50
42.53846942800144
 51
55.99225579241099
210
0.0
220
0.0
230
-1.0
  0
ARC
  5
C0
  8
LAYER_01
 10
752.4498610323458
 20
3813.78593759278
 30
0.0
 40
182.2282833782388
 50
215.552842612028
 51
220.7624924747469
  0
ARC
  5
C1
  8
LAYER_01
 10
-657.7402034122749
 20
3628.464278880061
 30
0.0
 40
115.7394647568246
 50
52.44671009900627
 51
56.26908291617747
210
0.0
220
0.0
230
-1.0
  0
ARC
  5
C2
  8
LAYER_01
 10
-752.4498610325079
 20
3813.785937592878
 30
0.0
 40
182.228283378429
 50
330.7407057854448
 51
335.0728894899935
210
0.0
220
0.0
230
-1.0
  0
LINE
  5
C3
  8
LAYER_01
 10
587.1971094766486
 20
3736.983103229383
 30
0.0
 11
587.1971094766488
 21
3720.220998526013
 31
0.0
  0
ARC
  5
C4
  8
LAYER_01
 10
-401.9443579208964
 20
3813.785937592828
 30
0.0
 40
162.2282833783085
 50
220.7910222989383
 51
240.8489791421545
210
0.0
220
0.0
230
-1.0
  0
ARC
  5
C5
  8
LAYER_01
 10
-643.1783813237926
 20
3674.50940924347
 30
0.0
 40
162.2282833783097
 50
359.1510208578457
 51
19.20897770106165
210
0.0
220
0.0
230
-1.0
  0
LINE
  5
C6
  8
LAYER_01
 10
489.9821854635256
 20
3727.88488583915
 30
0.0
 11
492.8167752069883
 21
3692.628524640225
 31
0.0
  0
LINE
  5
C7
  8
LAYER_01
 10
492.8167752069883
 20
3692.628524640225
 30
0.0
 11
524.7669745219896
 21
3707.801878512542
 31
0.0
  0
ARC
  5
C8
  8
LAYER_01
 10
-643.1783813237926
 20
3674.50940924347
 30
0.0
 40
162.2282833783097
 50
37.81464332525429
 51
60.84897914215399
210
0.0
220
0.0
230
-1.0
  0
ARC
  5
C9
  8
LAYER_01
 10
-401.9443579208964
 20
3813.785937592828
 30
0.0
 40
162.2282833783085
 50
179.1510208578457
 51
202.1853566747456
210
0.0
220
0.0
230
-1.0
  0
LINE
  5
CA
  8
LAYER_01
 10
552.1624144161449
 20
3752.5278652214
 30
0.0
 11
549.135565296599
 21
3790.175530496236
 31
0.0
  0
LINE
  5
CB
  8
LAYER_01
 10
549.135565296599
 20
3790.175530496236
 30
0.0
 11
515.0183062156448
 21
3773.973026089767
 31
0.0
  0
LINE
  5
CC
  8
LAYER_01
 10
622.870621181082
 20
3759.670707922749
 30
0.0
 11
620.8169028966793
 21
3734.126752645718
 31
0.0
  0
LINE
  5
CD
  8
LAYER_01
 10
620.8169028966793
 20
3734.126752645718
 30
0.0
 11
643.9654762219241
 21
3723.133347213711
 31
0.0
  0
LINE
  5
CE
  8
LAYER_01
 10
643.9654762219241
 20
3723.133347213711
 30
0.0
 11
646.0191945063268
 21
3748.677302490743
 31
0.0
  0
LINE
  5
CF
  8
LAYER_01
 10
646.0191945063268
 20
3748.677302490743
 30
0.0
 11
622.870621181082
 21
3759.670707922749
 31
0.0
  0
ARC
  5
D0
  8
LAYER_01
 10
742.8087737218914
 20
3599.738516835542
 30
0.0
 40
127.3750080761417
 50
86.27988164524908
 51
115.0583211168994
  0
ARC
  5
D1
  8
LAYER_01
 10
-511.2158376295208
 20
3674.509409243479
 30
0.0
 40
182.228283378294
 50
167.121697657675
 51
182.1511246086076
210
0.0
220
0.0
230
-1.0
  0
ARC
  5
D2
  8
LAYER_01
 10
577.1971094766993
 20
3838.779550754875
 30
0.0
 40
206.7902604333414
 50
304.1615598101179
 51
327.2281995253427
  0
ARC
  5
D3
  8
LAYER_01
 10
-742.8087737218909
 20
3599.738516835544
 30
0.0
 40
147.3750080761396
 50
66.17126100307718
 51
80.80143049967977
210
0.0
220
0.0
230
-1.0
  0
LINE
  5
D4
  8
LAYER_01
 10
719.2499145712125
 20
3745.21832011064
 30
0.0
 11
698.2793651454238
 21
3757.325672466674
 31
0.0
  0
ARC
  5
D5
  8
LAYER_01
 10
719.063930756219
 20
3663.869549370019
 30
0.0
 40
95.73946475663247
 50
102.5384694280014
 51
115.992255792411
  0
ARC
  5
D6
  8
LAYER_01
 10
-511.2158376295745
 20
3674.509409243494
 30
0.0
 40
182.2282833782388
 50
155.552842612028
 51
160.7624924747469
210
0.0
220
0.0
230
-1.0
  0
ARC
  5
D7
  8
LAYER_01
 10
719.0639307562944
 20
3663.869549369842
 30
0.0
 40
115.7394647568246
 50
112.4467100990062
 51
116.2690829161775
  0
ARC
  5
D8
  8
LAYER_01
 10
511.2158376294094
 20
3674.509409243402
 30
0.0
 40
182.228283378429
 50
30.74070578544483
 51
35.07288948999343
  0
LINE
  5
D9
  8
LAYER_01
 10
660.3554190487746
 20
3779.221072954307
 30
0.0
 11
674.8718275427875
 21
3770.840020602622
 31
0.0
  0
ARC
  5
DA
  8
LAYER_01
 10
-867.0185495203498
 20
3814.876159315211
 30
0.0
 40
127.3750080761417
 50
326.2798816452492
 51
355.0583211168994
210
0.0
220
0.0
230
-1.0
  0
ARC
  5
DB
  8
LAYER_01
 10
686.4685891852575
 20
3978.056079104261
 30
0.0
 40
182.228283378294
 50
287.1216976576749
 51
302.1511246086076
  0
ARC
  5
DC
  8
LAYER_01
 10
-577.1971094767139
 20
3838.7795507549
 30
0.0
 40
206.7902604333414
 50
184.161559810118
 51
207.2281995253427
210
0.0
220
0.0
230
-1.0
  0
ARC
  5
DD
  8
LAYER_01
 10
867.0185495203475
 20
3814.876159315211
 30
0.0
 40
147.3750080761396
 50
186.1712610030771
 51
200.8014304996798
  0
LINE
  5
DE
  8
LAYER_01
 10
729.2499145712125
 20
3762.538828186329
 30
0.0
 11
708.2793651454238
 21
3774.646180542363
 31
0.0
  0
ARC
  5
DF
  8
LAYER_01
 10
-799.60702469173
 20
3803.374280265117
 30
0.0
 40
95.73946475663247
 50
342.5384694280015
 51
355.9922557924111
210
0.0
220
0.0
230
-1.0
  0
ARC
  5
E0
  8
LAYER_01
 10
686.4685891852721
 20
3978.056079104207
 30
0.0
 40
182.2282833782388
 50
275.552842612028
 51
280.7624924747469
  0
ARC
  5
E1
  8
LAYER_01
 10
-799.607024691921
 20
3803.37428026514
 30
0.0
 40
115.7394647568246
 50
352.4467100990062
 51
356.2690829161776
210
0.0
220
0.0
230
-1.0
  0
ARC
  5
E2
  8
LAYER_01
 10
-686.4685891852689
 20
3978.056079104396
 30
0.0
 40
182.228283378429
 50
270.7407057854448
 51
275.0728894899935
210
0.0
220
0.0
230
-1.0
  0
LINE
  5
E3
  8
LAYER_01
 10
670.3554190487746
 20
3796.541581029996
 30
0.0
 11
684.8718275427875
 21
3788.160528678311
 31
0.0
  0
ARC
  5
E4
  8
LAYER_01
 10
-511.2158376295063
 20
3674.50940924347
 30
0.0
 40
162.2282833783085
 50
160.7910222989384
 51
180.8489791421545
210
0.0
220
0.0
230
-1.0
  0
ARC
  5
E5
  8
LAYER_01
 10
-752.4498610324019
 20
3813.785937592829
 30
0.0
 40
162.2282833783097
 50
299.1510208578457
 51
319.2089777010618
210
0.0
220
0.0
230
-1.0
  0
LINE
  5
E6
  8
LAYER_01
 10
629.6272444313079
 20
3707.801878512541
 30
0.0
 11
661.5774437463085
 21
3692.628524640224
 31
0.0
  0
LINE
  5
E7
  8
LAYER_01
 10
661.5774437463085
 20
3692.628524640224
 30
0.0
 11
664.4120334897714
 21
3727.88488583915
 31
0.0
  0
ARC
  5
E8
  8
LAYER_01
 10
-752.4498610324019
 20
3813.785937592829
 30
0.0
 40
162.2282833783097
 50
337.8146433252542
 51
0.8489791421540464
210
0.0
220
0.0
230
-1.0
  0
ARC
  5
E9
  8
LAYER_01
 10
-511.2158376295063
 20
3674.50940924347
 30
0.0
 40
162.2282833783085
 50
119.1510208578457
 51
142.1853566747456
210
0.0
220
0.0
230
-1.0
  0
LINE
  5
EA
  8
LAYER_01
 10
639.3759127376527
 20
3773.973026089767
 30
0.0
 11
605.2586536566985
 21
3790.175530496236
 31
0.0
  0
LINE
  5
EB
  8
LAYER_01
 10
605.2586536566985
 20
3790.175530496236
 30
0.0
 11
602.2318045371524
 21
3752.5278652214
 31
0.0
  0
LINE
  5
EC
  8
LAYER_01
 10
668.5441328855165
 20
3838.77955075492
 30
0.0
 11
689.6389879263586
 21
3824.229000909894
 31
0.0
  0
LINE
  5
ED
  8
LAYER_01
 10
689.6389879263586
 20
3824.229000909894
 30
0.0
 11
710.7338429672006
 21
3838.77955075492
 31
0.0
  0
LINE
  5
EE
  8
LAYER_01
 10
710.7338429672006
 20
3838.77955075492
 30
0.0
 11
689.6389879263586
 21
3853.330100599945
 31
0.0
  0
LINE
  5
EF
  8
LAYER_01
 10
689.6389879263586
 20
3853.330100599945
 30
0.0
 11
668.5441328855165
 21
3838.77955075492
 31
0.0
  0
ARC
  5
F0
  8
LAYER_01
 10
867.0185495203502
 20
3862.68294219463
 30
0.0
 40
127.3750080761417
 50
146.2798816452492
 51
175.0583211168995
  0
ARC
  5
F1
  8
LAYER_01
 10
-686.468589185258
 20
3699.50302240558
 30
0.0
 40
182.228283378294
 50
107.1216976576749
 51
122.1511246086076
210
0.0
220
0.0
230
-1.0
  0
ARC
  5
F2
  8
LAYER_01
 10
577.1971094767134
 20
3838.779550754941
 30
0.0
 40
206.7902604333414
 50
4.161559810117829
 51
27.22819952534267
  0
ARC
  5
F3
  8
LAYER_01
 10
-867.018549520348
 20
3862.682942194631
 30
0.0
 40
147.3750080761396
 50
6.17126100307715
 51
20.80143049967984
210
0.0
220
0.0
230
-1.0
  0
LINE
  5
F4
  8
LAYER_01
 10
729.2499145712125
 20
3915.020273323512
 30
0.0
 11
708.2793651454238
 21
3902.912920967479
 31
0.0
  0
ARC
  5
F5
  8
LAYER_01
 10
799.60702469173
 20
3874.184821244724
 30
0.0
 40
95.73946475663247
 50
162.5384694280013
 51
175.9922557924111
  0
ARC
  5
F6
  8
LAYER_01
 10
-686.4685891852721
 20
3699.503022405634
 30
0.0
 40
182.2282833782388
 50
95.55284261202803
 51
100.762492474747
210
0.0
220
0.0
230
-1.0
  0
ARC
  5
F7
  8
LAYER_01
 10
799.607024691921
 20
3874.184821244701
 30
0.0
 40
115.7394647568246
 50
172.4467100990062
 51
176.2690829161776
  0
ARC
  5
F8
  8
LAYER_01
 10
686.4685891852689
 20
3699.503022405445
 30
0.0
 40
182.228283378429
 50
90.74070578544476
 51
95.07288948999347
  0
LINE
  5
F9
  8
LAYER_01
 10
670.3554190487741
 20
3881.017520479845
 30
0.0
 11
684.871827542788
 21
3889.39857283153
 31
0.0
  0
ARC
  5
FA
  8
LAYER_01
 10
-742.8087737218914
 20
4077.8205846743
 30
0.0
 40
127.3750080761417
 50
266.2798816452491
 51
295.0583211168994
210
0.0
220
0.0
230
-1.0
  0
ARC
  5
FB
  8
LAYER_01
 10
511.2158376295208
 20
4003.049692266362
 30
0.0
 40
182.228283378294
 50
347.1216976576749
 51
2.151124608607565
  0
ARC
  5
FC
  8
LAYER_01
 10
-577.1971094766989
 20
3838.779550754967
 30
0.0
 40
206.7902604333414
 50
124.1615598101179
 51
147.2281995253427
210
0.0
220
0.0
230
-1.0
  0
ARC
  5
FD
  8
LAYER_01
 10
742.8087737218909
 20
4077.820584674297
 30
0.0
 40
147.3750080761396
 50
246.1712610030772
 51
260.8014304996797
  0
LINE
  5
FE
  8
LAYER_01
 10
719.2499145712125
 20
3932.340781399201
 30
0.0
 11
698.2793651454238
 21
3920.233429043167
 31
0.0
  0
ARC
  5
FF
  8
LAYER_01
 10
-719.063930756219
 20
4013.689552139822
 30
0.0
 40
95.73946475663247
 50
282.5384694280015
 51
295.9922557924111
210
0.0
220
0.0
230
-1.0
  0
ARC
  5
100
  8
LAYER_01
 10
511.2158376295749
 20
4003.049692266347
 30
0.0
 40
182.2282833782388
 50
335.552842612028
 51
340.762492474747
  0
ARC
  5
101
  8
LAYER_01
 10
-719.0639307562949
 20
4013.689552139999
 30
0.0
 40
115.7394647568246
 50
292.4467100990063
 51
296.2690829161775
210
0.0
220
0.0
230
-1.0
  0
ARC
  5
102
  8
LAYER_01
 10
-511.2158376294099
 20
4003.049692266439
 30
0.0
 40
182.228283378429
 50
210.7407057854448
 51
215.0728894899936
210
0.0
220
0.0
230
-1.0
  0
LINE
  5
103
  8
LAYER_01
 10
660.3554190487741
 20
3898.338028555534
 30
0.0
 11
674.8718275427875
 21
3906.719080907219
 31
0.0
  0
ARC
  5
104
  8
LAYER_01
 10
-686.468589185258
 20
3699.503022405563
 30
0.0
 40
162.2282833783085
 50
100.7910222989383
 51
120.8489791421546
210
0.0
220
0.0
230
-1.0
  0
ARC
  5
105
  8
LAYER_01
 10
-686.468589185258
 20
3978.05607910428
 30
0.0
 40
162.2282833783097
 50
239.1510208578455
 51
259.2089777010617
210
0.0
220
0.0
230
-1.0
  0
LINE
  5
106
  8
LAYER_01
 10
716.8421684444309
 20
3818.696543428312
 30
0.0
 11
745.9577780159686
 21
3838.77955075492
 31
0.0
  0
LINE
  5
107
  8
LAYER_01
 10
745.9577780159686
 20
3838.77955075492
 30
0.0
 11
716.8421684444309
 21
3858.862558081529
 31
0.0
  0
ARC
  5
108
  8
LAYER_01
 10
-686.468589185258
 20
3978.05607910428
 30
0.0
 40
162.2282833783097
 50
277.8146433252543
 51
300.848979142154
210
0.0
220
0.0
230
-1.0
  0
ARC
  5
109
  8
LAYER_01
 10
-686.468589185258
 20
3699.503022405563
 30
0.0
 40
162.2282833783085
 50
59.15102085784561
 51
82.18535667474562
210
0.0
220
0.0
230
-1.0
  0
LINE
  5
10A
  8
LAYER_01
 10
664.4106077981567
 20
3860.224711623288
 30
0.0
 11
633.3201978367481
 21
3838.779550754921
 31
0.0
  0
LINE
  5
10B
  8
LAYER_01
 10
633.3201978367481
 20
3838.779550754921
 30
0.0
 11
664.4106077981562
 21
3817.334389886553
 31
0.0
  0
LINE
  5
10C
  8
LAYER_01
 10
622.8706211810827
 20
3917.888393587092
 30
0.0
 11
646.0191945063275
 21
3928.881799019098
 31
0.0
  0
LINE
  5
10D
  8
LAYER_01
 10
646.0191945063275
 20
3928.881799019098
 30
0.0
 11
643.9654762219247
 21
3954.42575429613
 31
0.0
  0
LINE
  5
10E
  8
LAYER_01
 10
643.9654762219247
 20
3954.42575429613
 30
0.0
 11
620.8169028966802
 21
3943.432348864124
 31
0.0
  0
LINE
  5
10F
  8
LAYER_01
 10
620.8169028966802
 20
3943.432348864124
 30
0.0
 11
622.8706211810827
 21
3917.888393587092
 31
0.0
  0
ARC
  5
110
  8
LAYER_01
 10
701.4068852751072
 20
4101.723976114008
 30
0.0
 40
127.3750080761417
 50
206.2798816452491
 51
235.0583211168994
  0
ARC
  5
111
  8
LAYER_01
 10
-752.4498610323858
 20
3863.773163917021
 30
0.0
 40
182.228283378294
 50
47.121697657675
 51
62.15112460860758
210
0.0
220
0.0
230
-1.0
  0
ARC
  5
112
  8
LAYER_01
 10
577.1971094766634
 20
3838.779550754987
 30
0.0
 40
206.7902604333414
 50
64.1615598101179
 51
87.22819952534266
  0
ARC
  5
113
  8
LAYER_01
 10
-701.4068852751057
 20
4101.723976114007
 30
0.0
 40
147.3750080761396
 50
306.1712610030771
 51
320.8014304996798
210
0.0
220
0.0
230
-1.0
  0
LINE
  5
114
  8
LAYER_01
 10
587.1971094766488
 20
4008.581503967793
 30
0.0
 11
587.1971094766488
 21
3984.366799255726
 31
0.0
  0
ARC
  5
115
  8
LAYER_01
 10
657.7402034121596
 20
4049.094822629626
 30
0.0
 40
95.73946475663247
 50
222.5384694280014
 51
235.992255792411
  0
ARC
  5
116
  8
LAYER_01
 10
-752.4498610323458
 20
3863.773163917061
 30
0.0
 40
182.2282833782388
 50
35.55284261202802
 51
40.76249247474695
210
0.0
220
0.0
230
-1.0
  0
ARC
  5
117
  8
LAYER_01
 10
657.7402034122749
 20
4049.09482262978
 30
0.0
 40
115.7394647568246
 50
232.4467100990063
 51
236.2690829161774
  0
ARC
  5
118
  8
LAYER_01
 10
752.4498610325079
 20
3863.773163916964
 30
0.0
 40
182.228283378429
 50
150.7407057854448
 51
155.0728894899935
  0
LINE
  5
119
  8
LAYER_01
 10
587.1971094766486
 20
3940.575998280459
 30
0.0
 11
587.1971094766488
 21
3957.338102983829
 31
0.0
  0
ARC
  5
11A
  8
LAYER_01
 10
-452.98733367819
 20
4101.723976114008
 30
0.0
 40
127.3750080761417
 50
206.2798816452491
 51
235.0583211168994
210
0.0
220
0.0
230
-1.0
  0
ARC
  5
11B
  8
LAYER_01
 10
401.9443579209114
 20
3863.773163917021
 30
0.0
 40
182.228283378294
 50
47.121697657675
 51
62.15112460860758
  0
ARC
  5
11C
  8
LAYER_01
 10
-577.1971094766338
 20
3838.779550754987
 30
0.0
 40
206.7902604333414
 50
64.1615598101179
 51
87.22819952534266
210
0.0
220
0.0
230
-1.0
  0
ARC
  5
11D
  8
LAYER_01
 10
452.9873336781916
 20
4101.723976114007
 30
0.0
 40
147.3750080761396
 50
306.1712610030771
 51
320.8014304996798
  0
LINE
  5
11E
  8
LAYER_01
 10
567.1971094766484
 20
4008.581503967793
 30
0.0
 11
567.1971094766484
 21
3984.366799255726
 31
0.0
  0
ARC
  5
11F
  8
LAYER_01
 10
-496.6540155411376
 20
4049.094822629626
 30
0.0
 40
95.73946475663247
 50
222.5384694280014
 51
235.992255792411
210
0.0
220
0.0
230
-1.0
  0
ARC
  5
120
  8
LAYER_01
 10
401.9443579209515
 20
3863.773163917061
 30
0.0
 40
182.2282833782388
 50
35.55284261202802
 51
40.76249247474695
  0
ARC
  5
121
  8
LAYER_01
 10
-496.6540155410223
 20
4049.09482262978
 30
0.0
 40
115.7394647568246
 50
232.4467100990063
 51
236.2690829161774
210
0.0
220
0.0
230
-1.0
  0
ARC
  5
122
  8
LAYER_01
 10
-401.9443579207893
 20
3863.773163916964
 30
0.0
 40
182.228283378429
 50
150.7407057854448
 51
155.0728894899935
210
0.0
220
0.0
230
-1.0
  0
LINE
  5
123
  8
LAYER_01
 10
567.1971094766486
 20
3940.575998280459
 30
0.0
 11
567.1971094766484
 21
3957.338102983829
 31
0.0
  0
ARC
  5
124
  8
LAYER_01
 10
-752.4498610324008
 20
3863.773163917013
 30
0.0
 40
162.2282833783085
 50
40.79102229893832
 51
60.84897914215447
210
0.0
220
0.0
230
-1.0
  0
ARC
  5
125
  8
LAYER_01
 10
-511.2158376295047
 20
4003.049692266371
 30
0.0
 40
162.2282833783097
 50
179.1510208578457
 51
199.2089777010617
210
0.0
220
0.0
230
-1.0
  0
LINE
  5
126
  8
LAYER_01
 10
664.4120334897716
 20
3949.674215670692
 30
0.0
 11
661.577443746309
 21
3984.930576869617
 31
0.0
  0
LINE
  5
127
  8
LAYER_01
 10
661.577443746309
 20
3984.930576869617
 30
0.0
 11
629.6272444313076
 21
3969.7572229973
 31
0.0
  0
ARC
  5
128
  8
LAYER_01
 10
-511.2158376295047
 20
4003.049692266371
 30
0.0
 40
162.2282833783097
 50
217.8146433252543
 51
240.848979142154
210
0.0
220
0.0
230
-1.0
  0
ARC
  5
129
  8
LAYER_01
 10
-752.4498610324008
 20
3863.773163917013
 30
0.0
 40
162.2282833783085
 50
359.1510208578457
 51
22.18535667474559
210
0.0
220
0.0
230
-1.0
  0
LINE
  5
12A
  8
LAYER_01
 10
602.2318045371524
 20
3925.031236288441
 30
0.0
 11
605.2586536566982
 21
3887.383571013605
 31
0.0
  0
LINE
  5
12B
  8
LAYER_01
 10
605.2586536566982
 20
3887.383571013605
 30
0.0
 11
639.3759127376525
 21
3903.586075420074
 31
0.0
  0
LINE
  5
12C
  8
LAYER_01
 10
531.5235977722152
 20
3917.888393587092
 30
0.0
 11
533.577316056618
 21
3943.432348864124
 31
0.0
  0
LINE
  5
12D
  8
LAYER_01
 10
533.577316056618
 20
3943.432348864124
 30
0.0
 11
510.4287427313732
 21
3954.425754296131
 31
0.0
  0
LINE
  5
12E
  8
LAYER_01
 10
510.4287427313732
 20
3954.425754296131
 30
0.0
 11
508.3750244469709
 21
3928.881799019099
 31
0.0
  0
LINE
  5
12F
  8
LAYER_01
 10
508.3750244469709
 20
3928.881799019099
 30
0.0
 11
531.5235977722152
 21
3917.888393587092
 31
0.0
  0
ARC
  5
130
  8
LAYER_01
 10
411.5854452314063
 20
4077.8205846743
 30
0.0
 40
127.3750080761417
 50
266.2798816452491
 51
295.0583211168994
  0
ARC
  5
131
  8
LAYER_01
 10
-643.1783813237769
 20
4003.049692266362
 30
0.0
 40
182.228283378294
 50
347.1216976576749
 51
2.151124608607566
210
0.0
220
0.0
230
-1.0
  0
ARC
  5
132
  8
LAYER_01
 10
577.1971094765984
 20
3838.779550754967
 30
0.0
 40
206.7902604333414
 50
124.1615598101179
 51
147.2281995253427
  0
ARC
  5
133
  8
LAYER_01
 10
-411.5854452314068
 20
4077.820584674297
 30
0.0
 40
147.3750080761396
 50
246.1712610030772
 51
260.8014304996797
210
0.0
220
0.0
230
-1.0
  0
LINE
  5
134
  8
LAYER_01
 10
435.1443043820848
 20
3932.340781399201
 30
0.0
 11
456.1148538078739
 21
3920.233429043167
 31
0.0
  0
ARC
  5
135
  8
LAYER_01
 10
435.3302881970787
 20
4013.689552139822
 30
0.0
 40
95.73946475663247
 50
282.5384694280015
 51
295.992255792411
  0
ARC
  5
136
  8
LAYER_01
 10
-643.1783813237223
 20
4003.049692266347
 30
0.0
 40
182.2282833782388
 50
335.552842612028
 51
340.762492474747
210
0.0
220
0.0
230
-1.0
  0
ARC
  5
137
  8
LAYER_01
 10
435.3302881970028
 20
4013.689552139999
 30
0.0
 40
115.7394647568246
 50
292.4467100990062
 51
296.2690829161775
  0
ARC
  5
138
  8
LAYER_01
 10
643.1783813238878
 20
4003.049692266439
 30
0.0
 40
182.228283378429
 50
210.7407057854447
 51
215.0728894899934
  0
LINE
  5
139
  8
LAYER_01
 10
494.0387999045231
 20
3898.338028555534
 30
0.0
 11
479.5223914105102
 21
3906.719080907219
 31
0.0
  0
ARC
  5
13A
  8
LAYER_01
 10
-287.3756694329475
 20
3862.68294219463
 30
0.0
 40
127.3750080761417
 50
146.2798816452492
 51
175.0583211168995
210
0.0
220
0.0
230
-1.0
  0
ARC
  5
13B
  8
LAYER_01
 10
467.9256297680397
 20
3699.50302240558
 30
0.0
 40
182.228283378294
 50
107.1216976576749
 51
122.1511246086075
  0
ARC
  5
13C
  8
LAYER_01
 10
-577.1971094765838
 20
3838.779550754941
 30
0.0
 40
206.7902604333414
 50
4.161559810117955
 51
27.22819952534268
210
0.0
220
0.0
230
-1.0
  0
ARC
  5
13D
  8
LAYER_01
 10
287.3756694329497
 20
3862.682942194631
 30
0.0
 40
147.3750080761396
 50
6.171261003077147
 51
20.80143049967982
  0
LINE
  5
13E
  8
LAYER_01
 10
425.1443043820843
 20
3915.020273323512
 30
0.0
 11
446.1148538078735
 21
3902.912920967479
 31
0.0
  0
ARC
  5
13F
  8
LAYER_01
 10
-354.7871942615677
 20
3874.184821244724
 30
0.0
 40
95.73946475663247
 50
162.5384694280015
 51
175.9922557924111
210
0.0
220
0.0
230
-1.0
  0
ARC
  5
140
  8
LAYER_01
 10
467.9256297680251
 20
3699.503022405634
 30
0.0
 40
182.2282833782388
 50
95.55284261202797
 51
100.7624924747469
  0
ARC
  5
141
  8
LAYER_01
 10
-354.7871942613767
 20
3874.184821244701
 30
0.0
 40
115.7394647568246
 50
172.4467100990062
 51
176.2690829161776
210
0.0
220
0.0
230
-1.0
  0
ARC
  5
142
  8
LAYER_01
 10
-467.9256297680288
 20
3699.503022405445
 30
0.0
 40
182.228283378429
 50
90.74070578544482
 51
95.07288948999351
210
0.0
220
0.0
230
-1.0
  0
LINE
  5
143
  8
LAYER_01
 10
484.0387999045231
 20
3881.017520479845
 30
0.0
 11
469.5223914105097
 21
3889.39857283153
 31
0.0
  0
ARC
  5
144
  8
LAYER_01
 10
-643.1783813237914
 20
4003.049692266371
 30
0.0
 40
162.2282833783085
 50
340.7910222989383
 51
0.8489791421545347
210
0.0
220
0.0
230
-1.0
  0
ARC
  5
145
  8
LAYER_01
 10
-401.9443579208958
 20
3863.773163917012
 30
0.0
 40
162.2282833783097
 50
119.1510208578457
 51
139.2089777010618
210
0.0
220
0.0
230
-1.0
  0
LINE
  5
146
  8
LAYER_01
 10
524.7669745219894
 20
3969.7572229973
 30
0.0
 11
492.8167752069892
 21
3984.930576869617
 31
0.0
  0
LINE
  5
147
  8
LAYER_01
 10
492.8167752069892
 20
3984.930576869617
 30
0.0
 11
489.9821854635259
 21
3949.674215670691
 31
0.0
  0
ARC
  5
148
  8
LAYER_01
 10
-401.9443579208958
 20
3863.773163917012
 30
0.0
 40
162.2282833783097
 50
157.8146433252544
 51
180.8489791421542
210
0.0
220
0.0
230
-1.0
  0
ARC
  5
149
  8
LAYER_01
 10
-643.1783813237914
 20
4003.049692266371
 30
0.0
 40
162.2282833783085
 50
299.1510208578457
 51
322.1853566747455
210
0.0
220
0.0
230
-1.0
  0
LINE
  5
14A
  8
LAYER_01
 10
515.018306215645
 20
3903.586075420074
 30
0.0
 11
549.1355652965988
 21
3887.383571013605
 31
0.0
  0
LINE
  5
14B
  8
LAYER_01
 10
549.1355652965988
 20
3887.383571013605
 30
0.0
 11
552.1624144161453
 21
3925.031236288441
 31
0.0
  0
LINE
  5
14C
  8
LAYER_01
 10
485.8500860677811
 20
3838.779550754921
 30
0.0
 11
464.7552310269391
 21
3853.330100599946
 31
0.0
  0
LINE
  5
14D
  8
LAYER_01
 10
464.7552310269391
 20
3853.330100599946
 30
0.0
 11
443.6603759860971
 21
3838.779550754921
 31
0.0
  0
LINE
  5
14E
  8
LAYER_01
 10
443.6603759860971
 20
3838.779550754921
 30
0.0
 11
464.7552310269391
 21
3824.229000909895
 31
0.0
  0
LINE
  5
14F
  8
LAYER_01
 10
464.7552310269391
 20
3824.229000909895
 30
0.0
 11
485.8500860677811
 21
3838.779550754921
 31
0.0
  0
ARC
  5
150
  8
LAYER_01
 10
287.3756694329479
 20
3814.876159315211
 30
0.0
 40
127.3750080761417
 50
326.2798816452492
 51
355.0583211168994
  0
ARC
  5
151
  8
LAYER_01
 10
-467.9256297680402
 20
3978.056079104261
 30
0.0
 40
182.228283378294
 50
287.1216976576749
 51
302.1511246086076
210
0.0
220
0.0
230
-1.0
  0
ARC
  5
152
  8
LAYER_01
 10
577.1971094765838
 20
3838.7795507549
 30
0.0
 40
206.7902604333414
 50
184.161559810118
 51
207.2281995253427
  0
ARC
  5
153
  8
LAYER_01
 10
-287.3756694329502
 20
3814.876159315211
 30
0.0
 40
147.3750080761396
 50
186.1712610030771
 51
200.8014304996798
210
0.0
220
0.0
230
-1.0
  0
LINE
  5
154
  8
LAYER_01
 10
425.1443043820852
 20
3762.538828186329
 30
0.0
 11
446.1148538078739
 21
3774.646180542363
 31
0.0
  0
ARC
  5
155
  8
LAYER_01
 10
354.7871942615677
 20
3803.374280265117
 30
0.0
 40
95.73946475663247
 50
342.5384694280015
 51
355.9922557924111
  0
ARC
  5
156
  8
LAYER_01
 10
-467.9256297680256
 20
3978.056079104207
 30
0.0
 40
182.2282833782388
 50
275.552842612028
 51
280.7624924747469
210
0.0
220
0.0
230
-1.0
  0
ARC
  5
157
  8
LAYER_01
 10
354.7871942613767
 20
3803.37428026514
 30
0.0
 40
115.7394647568246
 50
352.4467100990062
 51
356.2690829161776
  0
ARC
  5
158
  8
LAYER_01
 10
467.9256297680288
 20
3978.056079104396
 30
0.0
 40
182.228283378429
 50
270.7407057854448
 51
275.0728894899935
  0
LINE
  5
159
  8
LAYER_01
 10
484.0387999045231
 20
3796.541581029996
 30
0.0
 11
469.5223914105102
 21
3788.160528678311
 31
0.0
  0
ARC
  5
15A
  8
LAYER_01
 10
-411.5854452314063
 20
3599.738516835542
 30
0.0
 40
127.3750080761417
 50
86.27988164524908
 51
115.0583211168994
210
0.0
220
0.0
230
-1.0
  0
ARC
  5
15B
  8
LAYER_01
 10
643.1783813237769
 20
3674.509409243479
 30
0.0
 40
182.228283378294
 50
167.121697657675
 51
182.1511246086076
  0
ARC
  5
15C
  8
LAYER_01
 10
-577.1971094765984
 20
3838.779550754875
 30
0.0
 40
206.7902604333414
 50
304.1615598101179
 51
327.2281995253427
210
0.0
220
0.0
230
-1.0
  0
ARC
  5
15D
  8
LAYER_01
 10
411.5854452314068
 20
3599.738516835544
 30
0.0
 40
147.3750080761396
 50
66.17126100307722
 51
80.80143049967975
  0
LINE
  5
15E
  8
LAYER_01
 10
435.1443043820852
 20
3745.21832011064
 30
0.0
 11
456.1148538078739
 21
3757.325672466674
 31
0.0
  0
ARC
  5
15F
  8
LAYER_01
 10
-435.3302881970787
 20
3663.869549370019
 30
0.0
 40
95.73946475663247
 50
102.5384694280014
 51
115.992255792411
210
0.0
220
0.0
230
-1.0
  0
ARC
  5
160
  8
LAYER_01
 10
643.1783813237232
 20
3674.509409243494
 30
0.0
 40
182.2282833782388
 50
155.552842612028
 51
160.7624924747469
  0
ARC
  5
161
  8
LAYER_01
 10
-435.3302881970033
 20
3663.869549369842
 30
0.0
 40
115.7394647568246
 50
112.4467100990063
 51
116.2690829161775
210
0.0
220
0.0
230
-1.0
  0
ARC
  5
162
  8
LAYER_01
 10
-643.1783813238883
 20
3674.509409243402
 30
0.0
 40
182.228283378429
 50
30.74070578544482
 51
35.07288948999343
210
0.0
220
0.0
230
-1.0
  0
LINE
  5
163
  8
LAYER_01
 10
494.0387999045231
 20
3779.221072954307
 30
0.0
 11
479.5223914105102
 21
3770.840020602622
 31
0.0
  0
ARC
  5
164
  8
LAYER_01
 10
-467.9256297680392
 20
3978.056079104278
 30
0.0
 40
162.2282833783085
 50
280.7910222989383
 51
300.8489791421546
210
0.0
220
0.0
230
-1.0
  0
ARC
  5
165
  8
LAYER_01
 10
-467.9256297680397
 20
3699.503022405562
 30
0.0
 40
162.2282833783097
 50
59.15102085784559
 51
79.20897770106167
210
0.0
220
0.0
230
-1.0
  0
LINE
  5
166
  8
LAYER_01
 10
437.5520505088668
 20
3858.862558081529
 30
0.0
 11
408.4364409373291
 21
3838.779550754921
 31
0.0
  0
LINE
  5
167
  8
LAYER_01
 10
408.4364409373291
 20
3838.779550754921
 30
0.0
 11
437.5520505088668
 21
3818.696543428312
 31
0.0
  0
ARC
  5
168
  8
LAYER_01
 10
-467.9256297680397
 20
3699.503022405562
 30
0.0
 40
162.2282833783097
 50
97.81464332525424
 51
120.848979142154
210
0.0
220
0.0
230
-1.0
  0
ARC
  5
169
  8
LAYER_01
 10
-467.9256297680392
 20
3978.056079104278
 30
0.0
 40
162.2282833783085
 50
239.1510208578455
 51
262.1853566747456
210
0.0
220
0.0
230
-1.0
  0
LINE
  5
16A
  8
LAYER_01
 10
489.9836111551415
 20
3817.334389886554
 30
0.0
 11
521.0740211165491
 21
3838.779550754921
 31
0.0
  0
LINE
  5
16B
  8
LAYER_01
 10
521.0740211165491
 20
3838.779550754921
 30
0.0
 11
489.9836111551415
 21
3860.224711623288
 31
0.0
  0
LINE
  5
16C
  8
LAYER_01
 10
1392.983728130927
 20
3759.67070792275
 30
0.0
 11
1416.132301456171
 21
3748.677302490743
 31
0.0
  0
LINE
  5
16D
  8
LAYER_01
 10
1416.132301456171
 20
3748.677302490743
 30
0.0
 11
1414.078583171769
 21
3723.133347213711
 31
0.0
  0
LINE
  5
16E
  8
LAYER_01
 10
1414.078583171769
 20
3723.133347213711
 30
0.0
 11
1390.930009846524
 21
3734.126752645718
 31
0.0
  0
LINE
  5
16F
  8
LAYER_01
 10
1390.930009846524
 20
3734.126752645718
 30
0.0
 11
1392.983728130927
 21
3759.67070792275
 31
0.0
  0
ARC
  5
170
  8
LAYER_01
 10
-1471.519992224951
 20
3575.835125395832
 30
0.0
 40
127.3750080761417
 50
26.27988164524908
 51
55.05832111689939
210
0.0
220
0.0
230
-1.0
  0
ARC
  5
171
  8
LAYER_01
 10
1522.56296798223
 20
3813.78593759282
 30
0.0
 40
182.228283378294
 50
227.121697657675
 51
242.1511246086076
  0
ARC
  5
172
  8
LAYER_01
 10
-1347.310216426507
 20
3838.779550754854
 30
0.0
 40
206.7902604333414
 50
244.1615598101179
 51
267.2281995253426
210
0.0
220
0.0
230
-1.0
  0
ARC
  5
173
  8
LAYER_01
 10
1471.51999222495
 20
3575.835125395834
 30
0.0
 40
147.3750080761396
 50
126.1712610030772
 51
140.8014304996799
  0
LINE
  5
174
  8
LAYER_01
 10
1357.310216426493
 20
3668.977597542049
 30
0.0
 11
1357.310216426493
 21
3693.192302254116
 31
0.0
  0
ARC
  5
175
  8
LAYER_01
 10
-1427.853310362004
 20
3628.464278880216
 30
0.0
 40
95.73946475663247
 50
42.53846942800144
 51
55.99225579241099
210
0.0
220
0.0
230
-1.0
  0
ARC
  5
176
  8
LAYER_01
 10
1522.56296798219
 20
3813.78593759278
 30
0.0
 40
182.2282833782388
 50
215.552842612028
 51
220.7624924747469
  0
ARC
  5
177
  8
LAYER_01
 10
-1427.853310362119
 20
3628.464278880061
 30
0.0
 40
115.7394647568246
 50
52.44671009900632
 51
56.26908291617752
210
0.0
220
0.0
230
-1.0
  0
ARC
  5
178
  8
LAYER_01
 10
-1522.562967982352
 20
3813.785937592878
 30
0.0
 40
182.228283378429
 50
330.7407057854448
 51
335.0728894899935
210
0.0
220
0.0
230
-1.0
  0
LINE
  5
179
  8
LAYER_01
 10
1357.310216426493
 20
3736.983103229383
 30
0.0
 11
1357.310216426493
 21
3720.220998526013
 31
0.0
  0
ARC
  5
17A
  8
LAYER_01
 10
1223.100440628034
 20
3575.835125395832
 30
0.0
 40
127.3750080761417
 50
26.27988164524908
 51
55.05832111689939
  0
ARC
  5
17B
  8
LAYER_01
 10
-1172.057464870755
 20
3813.78593759282
 30
0.0
 40
182.228283378294
 50
227.121697657675
 51
242.1511246086076
210
0.0
220
0.0
230
-1.0
  0
ARC
  5
17C
  8
LAYER_01
 10
1347.310216426478
 20
3838.779550754854
 30
0.0
 40
206.7902604333414
 50
244.1615598101179
 51
267.2281995253426
  0
ARC
  5
17D
  8
LAYER_01
 10
-1223.100440628035
 20
3575.835125395834
 30
0.0
 40
147.3750080761396
 50
126.1712610030772
 51
140.8014304996799
210
0.0
220
0.0
230
-1.0
  0
LINE
  5
17E
  8
LAYER_01
 10
1337.310216426492
 20
3668.977597542049
 30
0.0
 11
1337.310216426492
 21
3693.192302254116
 31
0.0
  0
ARC
  5
17F
  8
LAYER_01
 10
1266.767122490981
 20
3628.464278880216
 30
0.0
 40
95.73946475663247
 50
42.53846942800144
 51
55.99225579241099
  0
ARC
  5
180
  8
LAYER_01
 10
-1172.057464870795
 20
3813.78593759278
 30
0.0
 40
182.2282833782388
 50
215.552842612028
 51
220.7624924747469
210
0.0
220
0.0
230
-1.0
  0
ARC
  5
181
  8
LAYER_01
 10
1266.767122490866
 20
3628.464278880061
 30
0.0
 40
115.7394647568246
 50
52.44671009900632
 51
56.26908291617752
  0
ARC
  5
182
  8
LAYER_01
 10
1172.057464870633
 20
3813.785937592878
 30
0.0
 40
182.228283378429
 50
330.7407057854448
 51
335.0728894899935
  0
LINE
  5
183
  8
LAYER_01
 10
1337.310216426493
 20
3736.983103229383
 30
0.0
 11
1337.310216426492
 21
3720.220998526013
 31
0.0
  0
ARC
  5
184
  8
LAYER_01
 10
1522.562967982245
 20
3813.785937592828
 30
0.0
 40
162.2282833783085
 50
220.7910222989383
 51
240.8489791421545
  0
ARC
  5
185
  8
LAYER_01
 10
1281.328944579349
 20
3674.50940924347
 30
0.0
 40
162.2282833783097
 50
359.1510208578457
 51
19.20897770106166
  0
LINE
  5
186
  8
LAYER_01
 10
1434.525140439615
 20
3727.88488583915
 30
0.0
 11
1431.690550696153
 21
3692.628524640225
 31
0.0
  0
LINE
  5
187
  8
LAYER_01
 10
1431.690550696153
 20
3692.628524640225
 30
0.0
 11
1399.740351381152
 21
3707.801878512542
 31
0.0
  0
ARC
  5
188
  8
LAYER_01
 10
1281.328944579349
 20
3674.50940924347
 30
0.0
 40
162.2282833783097
 50
37.81464332525432
 51
60.84897914215404
  0
ARC
  5
189
  8
LAYER_01
 10
1522.562967982245
 20
3813.785937592828
 30
0.0
 40
162.2282833783085
 50
179.1510208578457
 51
202.1853566747456
  0
LINE
  5
18A
  8
LAYER_01
 10
1372.344911486996
 20
3752.5278652214
 30
0.0
 11
1375.371760606542
 21
3790.175530496236
 31
0.0
  0
LINE
  5
18B
  8
LAYER_01
 10
1375.371760606542
 20
3790.175530496236
 30
0.0
 11
1409.489019687496
 21
3773.973026089767
 31
0.0
  0
LINE
  5
18C
  8
LAYER_01
 10
1301.636704722059
 20
3759.670707922749
 30
0.0
 11
1303.690423006462
 21
3734.126752645718
 31
0.0
  0
LINE
  5
18D
  8
LAYER_01
 10
1303.690423006462
 20
3734.126752645718
 30
0.0
 11
1280.541849681217
 21
3723.133347213711
 31
0.0
  0
LINE
  5
18E
  8
LAYER_01
 10
1280.541849681217
 20
3723.133347213711
 30
0.0
 11
1278.488131396814
 21
3748.677302490743
 31
0.0
  0
LINE
  5
18F
  8
LAYER_01
 10
1278.488131396814
 20
3748.677302490743
 30
0.0
 11
1301.636704722059
 21
3759.670707922749
 31
0.0
  0
ARC
  5
190
  8
LAYER_01
 10
-1181.69855218125
 20
3599.738516835542
 30
0.0
 40
127.3750080761417
 50
86.27988164524908
 51
115.0583211168994
210
0.0
220
0.0
230
-1.0
  0
ARC
  5
191
  8
LAYER_01
 10
1413.29148827362
 20
3674.509409243479
 30
0.0
 40
182.228283378294
 50
167.121697657675
 51
182.1511246086076
  0
ARC
  5
192
  8
LAYER_01
 10
-1347.310216426442
 20
3838.779550754875
 30
0.0
 40
206.7902604333414
 50
304.1615598101179
 51
327.2281995253427
210
0.0
220
0.0
230
-1.0
  0
ARC
  5
193
  8
LAYER_01
 10
1181.69855218125
 20
3599.738516835544
 30
0.0
 40
147.3750080761396
 50
66.17126100307726
 51
80.80143049967977
  0
LINE
  5
194
  8
LAYER_01
 10
1205.257411331929
 20
3745.21832011064
 30
0.0
 11
1226.227960757717
 21
3757.325672466674
 31
0.0
  0
ARC
  5
195
  8
LAYER_01
 10
-1205.443395146922
 20
3663.869549370019
 30
0.0
 40
95.73946475663247
 50
102.5384694280015
 51
115.9922557924111
210
0.0
220
0.0
230
-1.0
  0
ARC
  5
196
  8
LAYER_01
 10
1413.291488273567
 20
3674.509409243494
 30
0.0
 40
182.2282833782388
 50
155.552842612028
 51
160.7624924747469
  0
ARC
  5
197
  8
LAYER_01
 10
-1205.443395146847
 20
3663.869549369842
 30
0.0
 40
115.7394647568246
 50
112.4467100990063
 51
116.2690829161775
210
0.0
220
0.0
230
-1.0
  0
ARC
  5
198
  8
LAYER_01
 10
-1413.291488273732
 20
3674.509409243402
 30
0.0
 40
182.228283378429
 50
30.74070578544481
 51
35.07288948999345
210
0.0
220
0.0
230
-1.0
  0
LINE
  5
199
  8
LAYER_01
 10
1264.151906854367
 20
3779.221072954307
 30
0.0
 11
1249.635498360354
 21
3770.840020602622
 31
0.0
  0
ARC
  5
19A
  8
LAYER_01
 10
1057.488776382791
 20
3814.876159315211
 30
0.0
 40
127.3750080761417
 50
326.2798816452492
 51
355.0583211168994
  0
ARC
  5
19B
  8
LAYER_01
 10
-1238.038736717884
 20
3978.056079104261
 30
0.0
 40
182.228283378294
 50
287.121697657675
 51
302.1511246086076
210
0.0
220
0.0
230
-1.0
  0
ARC
  5
19C
  8
LAYER_01
 10
1347.310216426427
 20
3838.7795507549
 30
0.0
 40
206.7902604333414
 50
184.161559810118
 51
207.2281995253427
  0
ARC
  5
19D
  8
LAYER_01
 10
-1057.488776382794
 20
3814.876159315211
 30
0.0
 40
147.3750080761396
 50
186.1712610030771
 51
200.8014304996798
210
0.0
220
0.0
230
-1.0
  0
LINE
  5
19E
  8
LAYER_01
 10
1195.257411331929
 20
3762.538828186329
 30
0.0
 11
1216.227960757717
 21
3774.646180542363
 31
0.0
  0
ARC
  5
19F
  8
LAYER_01
 10
1124.900301211411
 20
3803.374280265117
 30
0.0
 40
95.73946475663247
 50
342.5384694280016
 51
355.9922557924111
  0
ARC
  5
1A0
  8
LAYER_01
 10
-1238.038736717869
 20
3978.056079104207
 30
0.0
 40
182.2282833782388
 50
275.552842612028
 51
280.7624924747469
210
0.0
220
0.0
230
-1.0
  0
ARC
  5
1A1
  8
LAYER_01
 10
1124.90030121122
 20
3803.37428026514
 30
0.0
 40
115.7394647568246
 50
352.4467100990062
 51
356.2690829161776
  0
ARC
  5
1A2
  8
LAYER_01
 10
1238.038736717872
 20
3978.056079104396
 30
0.0
 40
182.228283378429
 50
270.7407057854448
 51
275.0728894899935
  0
LINE
  5
1A3
  8
LAYER_01
 10
1254.151906854367
 20
3796.541581029996
 30
0.0
 11
1239.635498360354
 21
3788.160528678311
 31
0.0
  0
ARC
  5
1A4
  8
LAYER_01
 10
1413.291488273635
 20
3674.50940924347
 30
0.0
 40
162.2282833783085
 50
160.7910222989384
 51
180.8489791421545
  0
ARC
  5
1A5
  8
LAYER_01
 10
1172.057464870739
 20
3813.785937592829
 30
0.0
 40
162.2282833783097
 50
299.1510208578457
 51
319.2089777010618
  0
LINE
  5
1A6
  8
LAYER_01
 10
1294.880081471833
 20
3707.801878512541
 30
0.0
 11
1262.929882156833
 21
3692.628524640224
 31
0.0
  0
LINE
  5
1A7
  8
LAYER_01
 10
1262.929882156833
 20
3692.628524640224
 30
0.0
 11
1260.09529241337
 21
3727.88488583915
 31
0.0
  0
ARC
  5
1A8
  8
LAYER_01
 10
1172.057464870739
 20
3813.785937592829
 30
0.0
 40
162.2282833783097
 50
337.8146433252542
 51
0.8489791421540469
  0
ARC
  5
1A9
  8
LAYER_01
 10
1413.291488273635
 20
3674.50940924347
 30
0.0
 40
162.2282833783085
 50
119.1510208578456
 51
142.1853566747456
  0
LINE
  5
1AA
  8
LAYER_01
 10
1285.131413165488
 20
3773.973026089767
 30
0.0
 11
1319.248672246443
 21
3790.175530496236
 31
0.0
  0
LINE
  5
1AB
  8
LAYER_01
 10
1319.248672246443
 20
3790.175530496236
 30
0.0
 11
1322.275521365989
 21
3752.5278652214
 31
0.0
  0
LINE
  5
1AC
  8
LAYER_01
 10
1255.963193017625
 20
3838.77955075492
 30
0.0
 11
1234.868337976783
 21
3824.229000909894
 31
0.0
  0
LINE
  5
1AD
  8
LAYER_01
 10
1234.868337976783
 20
3824.229000909894
 30
0.0
 11
1213.77348293594
 21
3838.77955075492
 31
0.0
  0
LINE
  5
1AE
  8
LAYER_01
 10
1213.77348293594
 20
3838.77955075492
 30
0.0
 11
1234.868337976783
 21
3853.330100599945
 31
0.0
  0
LINE
  5
1AF
  8
LAYER_01
 10
1234.868337976783
 20
3853.330100599945
 30
0.0
 11
1255.963193017625
 21
3838.77955075492
 31
0.0
  0
ARC
  5
1B0
  8
LAYER_01
 10
-1057.488776382791
 20
3862.68294219463
 30
0.0
 40
127.3750080761417
 50
146.2798816452492
 51
175.0583211168995
210
0.0
220
0.0
230
-1.0
  0
ARC
  5
1B1
  8
LAYER_01
 10
1238.038736717883
 20
3699.50302240558
 30
0.0
 40
182.228283378294
 50
107.121697657675
 51
122.1511246086076
  0
ARC
  5
1B2
  8
LAYER_01
 10
-1347.310216426428
 20
3838.779550754941
 30
0.0
 40
206.7902604333414
 50
4.161559810117831
 51
27.22819952534267
210
0.0
220
0.0
230
-1.0
  0
ARC
  5
1B3
  8
LAYER_01
 10
1057.488776382793
 20
3862.682942194631
 30
0.0
 40
147.3750080761396
 50
6.171261003077155
 51
20.80143049967984
  0
LINE
  5
1B4
  8
LAYER_01
 10
1195.257411331929
 20
3915.020273323512
 30
0.0
 11
1216.227960757717
 21
3902.912920967479
 31
0.0
  0
ARC
  5
1B5
  8
LAYER_01
 10
-1124.900301211411
 20
3874.184821244724
 30
0.0
 40
95.73946475663247
 50
162.5384694280013
 51
175.9922557924111
210
0.0
220
0.0
230
-1.0
  0
ARC
  5
1B6
  8
LAYER_01
 10
1238.038736717869
 20
3699.503022405634
 30
0.0
 40
182.2282833782388
 50
95.55284261202799
 51
100.7624924747469
  0
ARC
  5
1B7
  8
LAYER_01
 10
-1124.90030121122
 20
3874.184821244701
 30
0.0
 40
115.7394647568246
 50
172.4467100990062
 51
176.2690829161776
210
0.0
220
0.0
230
-1.0
  0
ARC
  5
1B8
  8
LAYER_01
 10
-1238.038736717872
 20
3699.503022405445
 30
0.0
 40
182.228283378429
 50
90.74070578544476
 51
95.07288948999351
210
0.0
220
0.0
230
-1.0
  0
LINE
  5
1B9
  8
LAYER_01
 10
1254.151906854367
 20
3881.017520479845
 30
0.0
 11
1239.635498360353
 21
3889.39857283153
 31
0.0
  0
ARC
  5
1BA
  8
LAYER_01
 10
1181.69855218125
 20
4077.8205846743
 30
0.0
 40
127.3750080761417
 50
266.2798816452491
 51
295.0583211168994
  0
ARC
  5
1BB
  8
LAYER_01
 10
-1413.29148827362
 20
4003.049692266362
 30
0.0
 40
182.228283378294
 50
347.1216976576749
 51
2.151124608607568
210
0.0
220
0.0
230
-1.0
  0
ARC
  5
1BC
  8
LAYER_01
 10
1347.310216426442
 20
3838.779550754967
 30
0.0
 40
206.7902604333414
 50
124.1615598101179
 51
147.2281995253427
  0
ARC
  5
1BD
  8
LAYER_01
 10
-1181.69855218125
 20
4077.820584674297
 30
0.0
 40
147.3750080761396
 50
246.1712610030772
 51
260.8014304996797
210
0.0
220
0.0
230
-1.0
  0
LINE
  5
1BE
  8
LAYER_01
 10
1205.257411331929
 20
3932.340781399201
 30
0.0
 11
1226.227960757717
 21
3920.233429043167
 31
0.0
  0
ARC
  5
1BF
  8
LAYER_01
 10
1205.443395146922
 20
4013.689552139822
 30
0.0
 40
95.73946475663247
 50
282.5384694280015
 51
295.9922557924111
  0
ARC
  5
1C0
  8
LAYER_01
 10
-1413.291488273566
 20
4003.049692266347
 30
0.0
 40
182.2282833782388
 50
335.552842612028
 51
340.762492474747
210
0.0
220
0.0
230
-1.0
  0
ARC
  5
1C1
  8
LAYER_01
 10
1205.443395146846
 20
4013.689552139999
 30
0.0
 40
115.7394647568246
 50
292.4467100990063
 51
296.2690829161775
  0
ARC
  5
1C2
  8
LAYER_01
 10
1413.291488273731
 20
4003.049692266439
 30
0.0
 40
182.228283378429
 50
210.7407057854448
 51
215.0728894899936
  0
LINE
  5
1C3
  8
LAYER_01
 10
1264.151906854367
 20
3898.338028555534
 30
0.0
 11
1249.635498360354
 21
3906.719080907219
 31
0.0
  0
ARC
  5
1C4
  8
LAYER_01
 10
1238.038736717883
 20
3699.503022405563
 30
0.0
 40
162.2282833783085
 50
100.7910222989384
 51
120.8489791421545
  0
ARC
  5
1C5
  8
LAYER_01
 10
1238.038736717883
 20
3978.05607910428
 30
0.0
 40
162.2282833783097
 50
239.1510208578456
 51
259.2089777010618
  0
LINE
  5
1C6
  8
LAYER_01
 10
1207.66515745871
 20
3818.696543428312
 30
0.0
 11
1178.549547887172
 21
3838.77955075492
 31
0.0
  0
LINE
  5
1C7
  8
LAYER_01
 10
1178.549547887172
 20
3838.77955075492
 30
0.0
 11
1207.66515745871
 21
3858.862558081529
 31
0.0
  0
ARC
  5
1C8
  8
LAYER_01
 10
1238.038736717883
 20
3978.05607910428
 30
0.0
 40
162.2282833783097
 50
277.8146433252543
 51
300.848979142154
  0
ARC
  5
1C9
  8
LAYER_01
 10
1238.038736717883
 20
3699.503022405563
 30
0.0
 40
162.2282833783085
 50
59.15102085784561
 51
82.18535667474565
  0
LINE
  5
1CA
  8
LAYER_01
 10
1260.096718104984
 20
3860.224711623288
 30
0.0
 11
1291.187128066393
 21
3838.779550754921
 31
0.0
  0
LINE
  5
1CB
  8
LAYER_01
 10
1291.187128066393
 20
3838.779550754921
 30
0.0
 11
1260.096718104985
 21
3817.334389886553
 31
0.0
  0
LINE
  5
1CC
  8
LAYER_01
 10
1301.636704722058
 20
3917.888393587092
 30
0.0
 11
1278.488131396814
 21
3928.881799019098
 31
0.0
  0
LINE
  5
1CD
  8
LAYER_01
 10
1278.488131396814
 20
3928.881799019098
 30
0.0
 11
1280.541849681216
 21
3954.42575429613
 31
0.0
  0
LINE
  5
1CE
  8
LAYER_01
 10
1280.541849681216
 20
3954.42575429613
 30
0.0
 11
1303.690423006461
 21
3943.432348864124
 31
0.0
  0
LINE
  5
1CF
  8
LAYER_01
 10
1303.690423006461
 20
3943.432348864124
 30
0.0
 11
1301.636704722058
 21
3917.888393587092
 31
0.0
  0
ARC
  5
1D0
  8
LAYER_01
 10
-1223.100440628034
 20
4101.723976114008
 30
0.0
 40
127.3750080761417
 50
206.2798816452491
 51
235.0583211168994
210
0.0
220
0.0
230
-1.0
  0
ARC
  5
1D1
  8
LAYER_01
 10
1172.057464870755
 20
3863.773163917021
 30
0.0
 40
182.228283378294
 50
47.121697657675
 51
62.15112460860758
  0
ARC
  5
1D2
  8
LAYER_01
 10
-1347.310216426478
 20
3838.779550754987
 30
0.0
 40
206.7902604333414
 50
64.16155981011786
 51
87.22819952534266
210
0.0
220
0.0
230
-1.0
  0
ARC
  5
1D3
  8
LAYER_01
 10
1223.100440628035
 20
4101.723976114007
 30
0.0
 40
147.3750080761396
 50
306.1712610030771
 51
320.8014304996798
  0
LINE
  5
1D4
  8
LAYER_01
 10
1337.310216426492
 20
4008.581503967793
 30
0.0
 11
1337.310216426492
 21
3984.366799255726
 31
0.0
  0
ARC
  5
1D5
  8
LAYER_01
 10
-1266.767122490981
 20
4049.094822629626
 30
0.0
 40
95.73946475663247
 50
222.5384694280014
 51
235.992255792411
210
0.0
220
0.0
230
-1.0
  0
ARC
  5
1D6
  8
LAYER_01
 10
1172.057464870795
 20
3863.773163917061
 30
0.0
 40
182.2282833782388
 50
35.55284261202802
 51
40.76249247474692
  0
ARC
  5
1D7
  8
LAYER_01
 10
-1266.767122490866
 20
4049.09482262978
 30
0.0
 40
115.7394647568246
 50
232.4467100990063
 51
236.2690829161775
210
0.0
220
0.0
230
-1.0
  0
ARC
  5
1D8
  8
LAYER_01
 10
-1172.057464870633
 20
3863.773163916964
 30
0.0
 40
182.228283378429
 50
150.7407057854448
 51
155.0728894899935
210
0.0
220
0.0
230
-1.0
  0
LINE
  5
1D9
  8
LAYER_01
 10
1337.310216426493
 20
3940.575998280459
 30
0.0
 11
1337.310216426492
 21
3957.338102983829
 31
0.0
  0
ARC
  5
1DA
  8
LAYER_01
 10
1471.519992224951
 20
4101.723976114008
 30
0.0
 40
127.3750080761417
 50
206.2798816452491
 51
235.0583211168994
  0
ARC
  5
1DB
  8
LAYER_01
 10
-1522.56296798223
 20
3863.773163917021
 30
0.0
 40
182.228283378294
 50
47.121697657675
 51
62.15112460860758
210
0.0
220
0.0
230
-1.0
  0
ARC
  5
1DC
  8
LAYER_01
 10
1347.310216426507
 20
3838.779550754987
 30
0.0
 40
206.7902604333414
 50
64.16155981011786
 51
87.22819952534266
  0
ARC
  5
1DD
  8
LAYER_01
 10
-1471.51999222495
 20
4101.723976114007
 30
0.0
 40
147.3750080761396
 50
306.1712610030771
 51
320.8014304996798
210
0.0
220
0.0
230
-1.0
  0
LINE
  5
1DE
  8
LAYER_01
 10
1357.310216426493
 20
4008.581503967793
 30
0.0
 11
1357.310216426493
 21
3984.366799255726
 31
0.0
  0
ARC
  5
1DF
  8
LAYER_01
 10
1427.853310362004
 20
4049.094822629626
 30
0.0
 40
95.73946475663247
 50
222.5384694280014
 51
235.992255792411
  0
ARC
  5
1E0
  8
LAYER_01
 10
-1522.56296798219
 20
3863.773163917061
 30
0.0
 40
182.2282833782388
 50
35.55284261202802
 51
40.76249247474692
210
0.0
220
0.0
230
-1.0
  0
ARC
  5
1E1
  8
LAYER_01
 10
1427.853310362119
 20
4049.09482262978
 30
0.0
 40
115.7394647568246
 50
232.4467100990063
 51
236.2690829161775
  0
ARC
  5
1E2
  8
LAYER_01
 10
1522.562967982352
 20
3863.773163916964
 30
0.0
 40
182.228283378429
 50
150.7407057854448
 51
155.0728894899935
  0
LINE
  5
1E3
  8
LAYER_01
 10
1357.310216426493
 20
3940.575998280459
 30
0.0
 11
1357.310216426493
 21
3957.338102983829
 31
0.0
  0
ARC
  5
1E4
  8
LAYER_01
 10
1172.05746487074
 20
3863.773163917013
 30
0.0
 40
162.2282833783085
 50
40.79102229893832
 51
60.84897914215451
  0
ARC
  5
1E5
  8
LAYER_01
 10
1413.291488273636
 20
4003.049692266371
 30
0.0
 40
162.2282833783097
 50
179.1510208578457
 51
199.2089777010617
  0
LINE
  5
1E6
  8
LAYER_01
 10
1260.09529241337
 20
3949.674215670692
 30
0.0
 11
1262.929882156832
 21
3984.930576869617
 31
0.0
  0
LINE
  5
1E7
  8
LAYER_01
 10
1262.929882156832
 20
3984.930576869617
 30
0.0
 11
1294.880081471833
 21
3969.7572229973
 31
0.0
  0
ARC
  5
1E8
  8
LAYER_01
 10
1413.291488273636
 20
4003.049692266371
 30
0.0
 40
162.2282833783097
 50
217.8146433252543
 51
240.848979142154
  0
ARC
  5
1E9
  8
LAYER_01
 10
1172.05746487074
 20
3863.773163917013
 30
0.0
 40
162.2282833783085
 50
359.1510208578457
 51
22.1853566747456
  0
LINE
  5
1EA
  8
LAYER_01
 10
1322.275521365989
 20
3925.031236288441
 30
0.0
 11
1319.248672246443
 21
3887.383571013605
 31
0.0
  0
LINE
  5
1EB
  8
LAYER_01
 10
1319.248672246443
 20
3887.383571013605
 30
0.0
 11
1285.131413165489
 21
3903.586075420074
 31
0.0
  0
LINE
  5
1EC
  8
LAYER_01
 10
1392.983728130926
 20
3917.888393587092
 30
0.0
 11
1390.930009846523
 21
3943.432348864124
 31
0.0
  0
LINE
  5
1ED
  8
LAYER_01
 10
1390.930009846523
 20
3943.432348864124
 30
0.0
 11
1414.078583171768
 21
3954.425754296131
 31
0.0
  0
LINE
  5
1EE
  8
LAYER_01
 10
1414.078583171768
 20
3954.425754296131
 30
0.0
 11
1416.13230145617
 21
3928.881799019099
 31
0.0
  0
LINE
  5
1EF
  8
LAYER_01
 10
1416.13230145617
 20
3928.881799019099
 30
0.0
 11
1392.983728130926
 21
3917.888393587092
 31
0.0
  0
ARC
  5
1F0
  8
LAYER_01
 10
-1512.921880671735
 20
4077.8205846743
 30
0.0
 40
127.3750080761417
 50
266.2798816452491
 51
295.0583211168994
210
0.0
220
0.0
230
-1.0
  0
ARC
  5
1F1
  8
LAYER_01
 10
1281.328944579364
 20
4003.049692266362
 30
0.0
 40
182.228283378294
 50
347.1216976576749
 51
2.151124608607565
  0
ARC
  5
1F2
  8
LAYER_01
 10
-1347.310216426543
 20
3838.779550754967
 30
0.0
 40
206.7902604333414
 50
124.1615598101178
 51
147.2281995253427
210
0.0
220
0.0
230
-1.0
  0
ARC
  5
1F3
  8
LAYER_01
 10
1512.921880671734
 20
4077.820584674297
 30
0.0
 40
147.3750080761396
 50
246.1712610030772
 51
260.8014304996799
  0
LINE
  5
1F4
  8
LAYER_01
 10
1489.363021521056
 20
3932.340781399201
 30
0.0
 11
1468.392472095267
 21
3920.233429043167
 31
0.0
  0
ARC
  5
1F5
  8
LAYER_01
 10
-1489.177037706062
 20
4013.689552139822
 30
0.0
 40
95.73946475663247
 50
282.5384694280013
 51
295.9922557924111
210
0.0
220
0.0
230
-1.0
  0
ARC
  5
1F6
  8
LAYER_01
 10
1281.328944579419
 20
4003.049692266347
 30
0.0
 40
182.2282833782388
 50
335.552842612028
 51
340.762492474747
  0
ARC
  5
1F7
  8
LAYER_01
 10
-1489.177037706138
 20
4013.689552139999
 30
0.0
 40
115.7394647568246
 50
292.4467100990062
 51
296.2690829161775
210
0.0
220
0.0
230
-1.0
  0
ARC
  5
1F8
  8
LAYER_01
 10
-1281.328944579253
 20
4003.049692266439
 30
0.0
 40
182.228283378429
 50
210.7407057854447
 51
215.0728894899935
210
0.0
220
0.0
230
-1.0
  0
LINE
  5
1F9
  8
LAYER_01
 10
1430.468525998618
 20
3898.338028555534
 30
0.0
 11
1444.984934492631
 21
3906.719080907219
 31
0.0
  0
ARC
  5
1FA
  8
LAYER_01
 10
1637.131656470194
 20
3862.68294219463
 30
0.0
 40
127.3750080761417
 50
146.2798816452492
 51
175.0583211168995
  0
ARC
  5
1FB
  8
LAYER_01
 10
-1456.581696135101
 20
3699.50302240558
 30
0.0
 40
182.228283378294
 50
107.1216976576749
 51
122.1511246086076
210
0.0
220
0.0
230
-1.0
  0
ARC
  5
1FC
  8
LAYER_01
 10
1347.310216426557
 20
3838.779550754941
 30
0.0
 40
206.7902604333414
 50
4.161559810117957
 51
27.22819952534267
  0
ARC
  5
1FD
  8
LAYER_01
 10
-1637.131656470191
 20
3862.682942194631
 30
0.0
 40
147.3750080761396
 50
6.171261003077146
 51
20.8014304996798
210
0.0
220
0.0
230
-1.0
  0
LINE
  5
1FE
  8
LAYER_01
 10
1499.363021521057
 20
3915.020273323512
 30
0.0
 11
1478.392472095268
 21
3902.912920967479
 31
0.0
  0
ARC
  5
1FF
  8
LAYER_01
 10
1569.720131641573
 20
3874.184821244724
 30
0.0
 40
95.73946475663247
 50
162.5384694280016
 51
175.9922557924111
  0
ARC
  5
200
  8
LAYER_01
 10
-1456.581696135116
 20
3699.503022405634
 30
0.0
 40
182.2282833782388
 50
95.55284261202799
 51
100.7624924747469
210
0.0
220
0.0
230
-1.0
  0
ARC
  5
201
  8
LAYER_01
 10
1569.720131641764
 20
3874.184821244701
 30
0.0
 40
115.7394647568246
 50
172.4467100990062
 51
176.2690829161776
  0
ARC
  5
202
  8
LAYER_01
 10
1456.581696135112
 20
3699.503022405445
 30
0.0
 40
182.228283378429
 50
90.74070578544482
 51
95.07288948999351
  0
LINE
  5
203
  8
LAYER_01
 10
1440.468525998618
 20
3881.017520479845
 30
0.0
 11
1454.984934492631
 21
3889.39857283153
 31
0.0
  0
ARC
  5
204
  8
LAYER_01
 10
1281.32894457935
 20
4003.049692266371
 30
0.0
 40
162.2282833783085
 50
340.7910222989384
 51
0.8489791421545347
  0
ARC
  5
205
  8
LAYER_01
 10
1522.562967982245
 20
3863.773163917012
 30
0.0
 40
162.2282833783097
 50
119.1510208578457
 51
139.2089777010618
  0
LINE
  5
206
  8
LAYER_01
 10
1399.740351381152
 20
3969.7572229973
 30
0.0
 11
1431.690550696152
 21
3984.930576869617
 31
0.0
  0
LINE
  5
207
  8
LAYER_01
 10
1431.690550696152
 20
3984.930576869617
 30
0.0
 11
1434.525140439615
 21
3949.674215670691
 31
0.0
  0
ARC
  5
208
  8
LAYER_01
 10
1522.562967982245
 20
3863.773163917012
 30
0.0
 40
162.2282833783097
 50
157.8146433252544
 51
180.8489791421542
  0
ARC
  5
209
  8
LAYER_01
 10
1281.32894457935
 20
4003.049692266371
 30
0.0
 40
162.2282833783085
 50
299.1510208578457
 51
322.1853566747455
  0
LINE
  5
20A
  8
LAYER_01
 10
1409.489019687496
 20
3903.586075420074
 30
0.0
 11
1375.371760606542
 21
3887.383571013605
 31
0.0
  0
LINE
  5
20B
  8
LAYER_01
 10
1375.371760606542
 20
3887.383571013605
 30
0.0
 11
1372.344911486996
 21
3925.031236288441
 31
0.0
  0
LINE
  5
20C
  8
LAYER_01
 10
1438.65723983536
 20
3838.779550754921
 30
0.0
 11
1459.752094876202
 21
3853.330100599946
 31
0.0
  0
LINE
  5
20D
  8
LAYER_01
 10
1459.752094876202
 20
3853.330100599946
 30
0.0
 11
1480.846949917044
 21
3838.779550754921
 31
0.0
  0
LINE
  5
20E
  8
LAYER_01
 10
1480.846949917044
 20
3838.779550754921
 30
0.0
 11
1459.752094876202
 21
3824.229000909895
 31
0.0
  0
LINE
  5
20F
  8
LAYER_01
 10
1459.752094876202
 20
3824.229000909895
 30
0.0
 11
1438.65723983536
 21
3838.779550754921
 31
0.0
  0
ARC
  5
210
  8
LAYER_01
 10
-1637.131656470193
 20
3814.876159315211
 30
0.0
 40
127.3750080761417
 50
326.2798816452492
 51
355.0583211168994
210
0.0
220
0.0
230
-1.0
  0
ARC
  5
211
  8
LAYER_01
 10
1456.581696135101
 20
3978.056079104261
 30
0.0
 40
182.228283378294
 50
287.121697657675
 51
302.1511246086076
  0
ARC
  5
212
  8
LAYER_01
 10
-1347.310216426557
 20
3838.7795507549
 30
0.0
 40
206.7902604333414
 50
184.161559810118
 51
207.2281995253427
210
0.0
220
0.0
230
-1.0
  0
ARC
  5
213
  8
LAYER_01
 10
1637.131656470191
 20
3814.876159315211
 30
0.0
 40
147.3750080761396
 50
186.1712610030771
 51
200.8014304996798
  0
LINE
  5
214
  8
LAYER_01
 10
1499.363021521056
 20
3762.538828186329
 30
0.0
 11
1478.392472095267
 21
3774.646180542363
 31
0.0
  0
ARC
  5
215
  8
LAYER_01
 10
-1569.720131641573
 20
3803.374280265117
 30
0.0
 40
95.73946475663247
 50
342.5384694280016
 51
355.9922557924111
210
0.0
220
0.0
230
-1.0
  0
ARC
  5
216
  8
LAYER_01
 10
1456.581696135116
 20
3978.056079104207
 30
0.0
 40
182.2282833782388
 50
275.552842612028
 51
280.7624924747469
  0
ARC
  5
217
  8
LAYER_01
 10
-1569.720131641764
 20
3803.37428026514
 30
0.0
 40
115.7394647568246
 50
352.4467100990062
 51
356.2690829161776
210
0.0
220
0.0
230
-1.0
  0
ARC
  5
218
  8
LAYER_01
 10
-1456.581696135112
 20
3978.056079104396
 30
0.0
 40
182.228283378429
 50
270.7407057854448
 51
275.0728894899935
210
0.0
220
0.0
230
-1.0
  0
LINE
  5
219
  8
LAYER_01
 10
1440.468525998618
 20
3796.541581029996
 30
0.0
 11
1454.984934492631
 21
3788.160528678311
 31
0.0
  0
ARC
  5
21A
  8
LAYER_01
 10
1512.921880671735
 20
3599.738516835542
 30
0.0
 40
127.3750080761417
 50
86.27988164524908
 51
115.0583211168994
  0
ARC
  5
21B
  8
LAYER_01
 10
-1281.328944579364
 20
3674.509409243479
 30
0.0
 40
182.228283378294
 50
167.121697657675
 51
182.1511246086076
210
0.0
220
0.0
230
-1.0
  0
ARC
  5
21C
  8
LAYER_01
 10
1347.310216426543
 20
3838.779550754875
 30
0.0
 40
206.7902604333414
 50
304.1615598101179
 51
327.2281995253427
  0
ARC
  5
21D
  8
LAYER_01
 10
-1512.921880671734
 20
3599.738516835544
 30
0.0
 40
147.3750080761396
 50
66.17126100307726
 51
80.80143049967977
210
0.0
220
0.0
230
-1.0
  0
LINE
  5
21E
  8
LAYER_01
 10
1489.363021521056
 20
3745.21832011064
 30
0.0
 11
1468.392472095267
 21
3757.325672466674
 31
0.0
  0
ARC
  5
21F
  8
LAYER_01
 10
1489.177037706062
 20
3663.869549370019
 30
0.0
 40
95.73946475663247
 50
102.5384694280015
 51
115.9922557924111
  0
ARC
  5
220
  8
LAYER_01
 10
-1281.328944579418
 20
3674.509409243494
 30
0.0
 40
182.2282833782388
 50
155.552842612028
 51
160.7624924747469
210
0.0
220
0.0
230
-1.0
  0
ARC
  5
221
  8
LAYER_01
 10
1489.177037706138
 20
3663.869549369842
 30
0.0
 40
115.7394647568246
 50
112.4467100990063
 51
116.2690829161775
  0
ARC
  5
222
  8
LAYER_01
 10
1281.328944579253
 20
3674.509409243402
 30
0.0
 40
182.228283378429
 50
30.74070578544481
 51
35.07288948999345
  0
LINE
  5
223
  8
LAYER_01
 10
1430.468525998618
 20
3779.221072954307
 30
0.0
 11
1444.984934492631
 21
3770.840020602622
 31
0.0
  0
ARC
  5
224
  8
LAYER_01
 10
1456.581696135102
 20
3978.056079104278
 30
0.0
 40
162.2282833783085
 50
280.7910222989382
 51
300.8489791421545
  0
ARC
  5
225
  8
LAYER_01
 10
1456.581696135101
 20
3699.503022405562
 30
0.0
 40
162.2282833783097
 50
59.15102085784557
 51
79.20897770106166
  0
LINE
  5
226
  8
LAYER_01
 10
1486.955275394274
 20
3858.862558081529
 30
0.0
 11
1516.070884965812
 21
3838.779550754921
 31
0.0
  0
LINE
  5
227
  8
LAYER_01
 10
1516.070884965812
 20
3838.779550754921
 30
0.0
 11
1486.955275394274
 21
3818.696543428312
 31
0.0
  0
ARC
  5
228
  8
LAYER_01
 10
1456.581696135101
 20
3699.503022405562
 30
0.0
 40
162.2282833783097
 50
97.81464332525424
 51
120.848979142154
  0
ARC
  5
229
  8
LAYER_01
 10
1456.581696135102
 20
3978.056079104278
 30
0.0
 40
162.2282833783085
 50
239.1510208578455
 51
262.1853566747455
  0
LINE
  5
22A
  8
LAYER_01
 10
1434.523714748
 20
3817.334389886554
 30
0.0
 11
1403.433304786592
 21
3838.779550754921
 31
0.0
  0
LINE
  5
22B
  8
LAYER_01
 10
1403.433304786592
 20
3838.779550754921
 30
0.0
 11
1434.523714748
 21
3860.224711623288
 31
0.0
  0
LINE
  5
22C
  8
LAYER_01
 10
531.5235977722145
 20
3385.192767870821
 30
0.0
 11
508.3750244469697
 21
3396.186173302827
 31
0.0
  0
LINE
  5
22D
  8
LAYER_01
 10
508.3750244469697
 20
3396.186173302827
 30
0.0
 11
510.4287427313725
 21
3421.730128579859
 31
0.0
  0
LINE
  5
22E
  8
LAYER_01
 10
510.4287427313725
 20
3421.730128579859
 30
0.0
 11
533.5773160566171
 21
3410.736723147853
 31
0.0
  0
LINE
  5
22F
  8
LAYER_01
 10
533.5773160566171
 20
3410.736723147853
 30
0.0
 11
531.5235977722145
 21
3385.192767870821
 31
0.0
  0
ARC
  5
230
  8
LAYER_01
 10
-452.98733367819
 20
3569.028350397738
 30
0.0
 40
127.3750080761417
 50
206.2798816452491
 51
235.0583211168994
210
0.0
220
0.0
230
-1.0
  0
ARC
  5
231
  8
LAYER_01
 10
401.9443579209114
 20
3331.07753820075
 30
0.0
 40
182.228283378294
 50
47.121697657675
 51
62.15112460860758
  0
ARC
  5
232
  8
LAYER_01
 10
-577.1971094766338
 20
3306.083925038716
 30
0.0
 40
206.7902604333414
 50
64.1615598101179
 51
87.22819952534266
210
0.0
220
0.0
230
-1.0
  0
ARC
  5
233
  8
LAYER_01
 10
452.9873336781916
 20
3569.028350397736
 30
0.0
 40
147.3750080761396
 50
306.1712610030771
 51
320.8014304996798
  0
LINE
  5
234
  8
LAYER_01
 10
567.1971094766484
 20
3475.885878251522
 30
0.0
 11
567.1971094766484
 21
3451.671173539454
 31
0.0
  0
ARC
  5
235
  8
LAYER_01
 10
-496.6540155411376
 20
3516.399196913355
 30
0.0
 40
95.73946475663247
 50
222.5384694280014
 51
235.992255792411
210
0.0
220
0.0
230
-1.0
  0
ARC
  5
236
  8
LAYER_01
 10
401.9443579209515
 20
3331.07753820079
 30
0.0
 40
182.2282833782388
 50
35.55284261202802
 51
40.76249247474695
  0
ARC
  5
237
  8
LAYER_01
 10
-496.6540155410223
 20
3516.399196913509
 30
0.0
 40
115.7394647568246
 50
232.4467100990063
 51
236.2690829161774
210
0.0
220
0.0
230
-1.0
  0
ARC
  5
238
  8
LAYER_01
 10
-401.9443579207893
 20
3331.077538200693
 30
0.0
 40
182.228283378429
 50
150.7407057854448
 51
155.0728894899935
210
0.0
220
0.0
230
-1.0
  0
LINE
  5
239
  8
LAYER_01
 10
567.1971094766486
 20
3407.880372564188
 30
0.0
 11
567.1971094766484
 21
3424.642477267558
 31
0.0
  0
ARC
  5
23A
  8
LAYER_01
 10
701.4068852751072
 20
3569.028350397738
 30
0.0
 40
127.3750080761417
 50
206.2798816452491
 51
235.0583211168994
  0
ARC
  5
23B
  8
LAYER_01
 10
-752.4498610323858
 20
3331.07753820075
 30
0.0
 40
182.228283378294
 50
47.121697657675
 51
62.15112460860758
210
0.0
220
0.0
230
-1.0
  0
ARC
  5
23C
  8
LAYER_01
 10
577.1971094766634
 20
3306.083925038716
 30
0.0
 40
206.7902604333414
 50
64.1615598101179
 51
87.22819952534266
  0
ARC
  5
23D
  8
LAYER_01
 10
-701.4068852751057
 20
3569.028350397736
 30
0.0
 40
147.3750080761396
 50
306.1712610030771
 51
320.8014304996798
210
0.0
220
0.0
230
-1.0
  0
LINE
  5
23E
  8
LAYER_01
 10
587.1971094766488
 20
3475.885878251522
 30
0.0
 11
587.1971094766488
 21
3451.671173539454
 31
0.0
  0
ARC
  5
23F
  8
LAYER_01
 10
657.7402034121596
 20
3516.399196913355
 30
0.0
 40
95.73946475663247
 50
222.5384694280014
 51
235.992255792411
  0
ARC
  5
240
  8
LAYER_01
 10
-752.4498610323458
 20
3331.07753820079
 30
0.0
 40
182.2282833782388
 50
35.55284261202802
 51
40.76249247474695
210
0.0
220
0.0
230
-1.0
  0
ARC
  5
241
  8
LAYER_01
 10
657.7402034122749
 20
3516.399196913509
 30
0.0
 40
115.7394647568246
 50
232.4467100990063
 51
236.2690829161774
  0
ARC
  5
242
  8
LAYER_01
 10
752.4498610325079
 20
3331.077538200693
 30
0.0
 40
182.228283378429
 50
150.7407057854448
 51
155.0728894899935
  0
LINE
  5
243
  8
LAYER_01
 10
587.1971094766486
 20
3407.880372564188
 30
0.0
 11
587.1971094766488
 21
3424.642477267558
 31
0.0
  0
ARC
  5
244
  8
LAYER_01
 10
401.9443579208964
 20
3331.077538200742
 30
0.0
 40
162.2282833783085
 50
40.79102229893832
 51
60.84897914215446
  0
ARC
  5
245
  8
LAYER_01
 10
643.1783813237926
 20
3470.3540665501
 30
0.0
 40
162.2282833783097
 50
179.1510208578457
 51
199.2089777010617
  0
LINE
  5
246
  8
LAYER_01
 10
489.9821854635256
 20
3416.978589954421
 30
0.0
 11
492.8167752069883
 21
3452.234951153346
 31
0.0
  0
LINE
  5
247
  8
LAYER_01
 10
492.8167752069883
 20
3452.234951153346
 30
0.0
 11
524.7669745219896
 21
3437.061597281029
 31
0.0
  0
ARC
  5
248
  8
LAYER_01
 10
643.1783813237926
 20
3470.3540665501
 30
0.0
 40
162.2282833783097
 50
217.8146433252543
 51
240.848979142154
  0
ARC
  5
249
  8
LAYER_01
 10
401.9443579208964
 20
3331.077538200742
 30
0.0
 40
162.2282833783085
 50
359.1510208578457
 51
22.18535667474559
  0
LINE
  5
24A
  8
LAYER_01
 10
552.1624144161449
 20
3392.33561057217
 30
0.0
 11
549.135565296599
 21
3354.687945297334
 31
0.0
  0
LINE
  5
24B
  8
LAYER_01
 10
549.135565296599
 20
3354.687945297334
 30
0.0
 11
515.0183062156448
 21
3370.890449703803
 31
0.0
  0
LINE
  5
24C
  8
LAYER_01
 10
622.870621181082
 20
3385.192767870821
 30
0.0
 11
620.8169028966793
 21
3410.736723147853
 31
0.0
  0
LINE
  5
24D
  8
LAYER_01
 10
620.8169028966793
 20
3410.736723147853
 30
0.0
 11
643.9654762219241
 21
3421.73012857986
 31
0.0
  0
LINE
  5
24E
  8
LAYER_01
 10
643.9654762219241
 20
3421.73012857986
 30
0.0
 11
646.0191945063268
 21
3396.186173302827
 31
0.0
  0
LINE
  5
24F
  8
LAYER_01
 10
646.0191945063268
 20
3396.186173302827
 30
0.0
 11
622.870621181082
 21
3385.192767870821
 31
0.0
  0
ARC
  5
250
  8
LAYER_01
 10
-742.8087737218914
 20
3545.124958958028
 30
0.0
 40
127.3750080761417
 50
266.2798816452491
 51
295.0583211168994
210
0.0
220
0.0
230
-1.0
  0
ARC
  5
251
  8
LAYER_01
 10
511.2158376295208
 20
3470.354066550091
 30
0.0
 40
182.228283378294
 50
347.1216976576749
 51
2.151124608607565
  0
ARC
  5
252
  8
LAYER_01
 10
-577.1971094766993
 20
3306.083925038696
 30
0.0
 40
206.7902604333414
 50
124.1615598101179
 51
147.2281995253427
210
0.0
220
0.0
230
-1.0
  0
ARC
  5
253
  8
LAYER_01
 10
742.8087737218909
 20
3545.124958958026
 30
0.0
 40
147.3750080761396
 50
246.1712610030772
 51
260.8014304996797
  0
LINE
  5
254
  8
LAYER_01
 10
719.2499145712125
 20
3399.64515568293
 30
0.0
 11
698.2793651454238
 21
3387.537803326896
 31
0.0
  0
ARC
  5
255
  8
LAYER_01
 10
-719.063930756219
 20
3480.993926423551
 30
0.0
 40
95.73946475663247
 50
282.5384694280015
 51
295.9922557924111
210
0.0
220
0.0
230
-1.0
  0
ARC
  5
256
  8
LAYER_01
 10
511.2158376295745
 20
3470.354066550076
 30
0.0
 40
182.2282833782388
 50
335.552842612028
 51
340.762492474747
  0
ARC
  5
257
  8
LAYER_01
 10
-719.0639307562944
 20
3480.993926423728
 30
0.0
 40
115.7394647568246
 50
292.4467100990062
 51
296.2690829161775
210
0.0
220
0.0
230
-1.0
  0
ARC
  5
258
  8
LAYER_01
 10
-511.2158376294094
 20
3470.354066550168
 30
0.0
 40
182.228283378429
 50
210.7407057854448
 51
215.0728894899934
210
0.0
220
0.0
230
-1.0
  0
LINE
  5
259
  8
LAYER_01
 10
660.3554190487746
 20
3365.642402839263
 30
0.0
 11
674.8718275427875
 21
3374.023455190948
 31
0.0
  0
ARC
  5
25A
  8
LAYER_01
 10
867.0185495203498
 20
3329.987316478359
 30
0.0
 40
127.3750080761417
 50
146.2798816452492
 51
175.0583211168995
  0
ARC
  5
25B
  8
LAYER_01
 10
-686.4685891852575
 20
3166.807396689309
 30
0.0
 40
182.228283378294
 50
107.1216976576749
 51
122.1511246086076
210
0.0
220
0.0
230
-1.0
  0
ARC
  5
25C
  8
LAYER_01
 10
577.1971094767139
 20
3306.08392503867
 30
0.0
 40
206.7902604333414
 50
4.161559810117955
 51
27.22819952534267
  0
ARC
  5
25D
  8
LAYER_01
 10
-867.0185495203475
 20
3329.98731647836
 30
0.0
 40
147.3750080761396
 50
6.17126100307715
 51
20.80143049967984
210
0.0
220
0.0
230
-1.0
  0
LINE
  5
25E
  8
LAYER_01
 10
729.2499145712125
 20
3382.324647607241
 30
0.0
 11
708.2793651454238
 21
3370.217295251208
 31
0.0
  0
ARC
  5
25F
  8
LAYER_01
 10
799.60702469173
 20
3341.489195528453
 30
0.0
 40
95.73946475663247
 50
162.5384694280015
 51
175.9922557924111
  0
ARC
  5
260
  8
LAYER_01
 10
-686.4685891852721
 20
3166.807396689363
 30
0.0
 40
182.2282833782388
 50
95.55284261202799
 51
100.7624924747469
210
0.0
220
0.0
230
-1.0
  0
ARC
  5
261
  8
LAYER_01
 10
799.607024691921
 20
3341.48919552843
 30
0.0
 40
115.7394647568246
 50
172.4467100990062
 51
176.2690829161776
  0
ARC
  5
262
  8
LAYER_01
 10
686.4685891852689
 20
3166.807396689174
 30
0.0
 40
182.228283378429
 50
90.74070578544476
 51
95.07288948999351
  0
LINE
  5
263
  8
LAYER_01
 10
670.3554190487746
 20
3348.321894763574
 30
0.0
 11
684.8718275427875
 21
3356.702947115259
 31
0.0
  0
ARC
  5
264
  8
LAYER_01
 10
511.2158376295063
 20
3470.3540665501
 30
0.0
 40
162.2282833783085
 50
340.7910222989383
 51
0.8489791421545347
  0
ARC
  5
265
  8
LAYER_01
 10
752.4498610324019
 20
3331.077538200741
 30
0.0
 40
162.2282833783097
 50
119.1510208578457
 51
139.2089777010618
  0
LINE
  5
266
  8
LAYER_01
 10
629.6272444313079
 20
3437.061597281029
 30
0.0
 11
661.5774437463085
 21
3452.234951153346
 31
0.0
  0
LINE
  5
267
  8
LAYER_01
 10
661.5774437463085
 20
3452.234951153346
 30
0.0
 11
664.4120334897714
 21
3416.97858995442
 31
0.0
  0
ARC
  5
268
  8
LAYER_01
 10
752.4498610324019
 20
3331.077538200741
 30
0.0
 40
162.2282833783097
 50
157.8146433252543
 51
180.848979142154
  0
ARC
  5
269
  8
LAYER_01
 10
511.2158376295063
 20
3470.3540665501
 30
0.0
 40
162.2282833783085
 50
299.1510208578457
 51
322.1853566747455
  0
LINE
  5
26A
  8
LAYER_01
 10
639.3759127376527
 20
3370.890449703803
 30
0.0
 11
605.2586536566985
 21
3354.687945297334
 31
0.0
  0
LINE
  5
26B
  8
LAYER_01
 10
605.2586536566985
 20
3354.687945297334
 30
0.0
 11
602.2318045371524
 21
3392.33561057217
 31
0.0
  0
LINE
  5
26C
  8
LAYER_01
 10
668.5441328855165
 20
3306.08392503865
 30
0.0
 11
689.6389879263586
 21
3320.634474883676
 31
0.0
  0
LINE
  5
26D
  8
LAYER_01
 10
689.6389879263586
 20
3320.634474883676
 30
0.0
 11
710.7338429672006
 21
3306.08392503865
 31
0.0
  0
LINE
  5
26E
  8
LAYER_01
 10
710.7338429672006
 20
3306.08392503865
 30
0.0
 11
689.6389879263586
 21
3291.533375193625
 31
0.0
  0
LINE
  5
26F
  8
LAYER_01
 10
689.6389879263586
 20
3291.533375193625
 30
0.0
 11
668.5441328855165
 21
3306.08392503865
 31
0.0
  0
ARC
  5
270
  8
LAYER_01
 10
-867.0185495203502
 20
3282.18053359894
 30
0.0
 40
127.3750080761417
 50
326.2798816452491
 51
355.0583211168994
210
0.0
220
0.0
230
-1.0
  0
ARC
  5
271
  8
LAYER_01
 10
686.468589185258
 20
3445.36045338799
 30
0.0
 40
182.228283378294
 50
287.1216976576749
 51
302.1511246086076
  0
ARC
  5
272
  8
LAYER_01
 10
-577.1971094767134
 20
3306.083925038629
 30
0.0
 40
206.7902604333414
 50
184.1615598101178
 51
207.2281995253427
210
0.0
220
0.0
230
-1.0
  0
ARC
  5
273
  8
LAYER_01
 10
867.018549520348
 20
3282.18053359894
 30
0.0
 40
147.3750080761396
 50
186.1712610030771
 51
200.8014304996798
  0
LINE
  5
274
  8
LAYER_01
 10
729.2499145712125
 20
3229.843202470058
 30
0.0
 11
708.2793651454238
 21
3241.950554826092
 31
0.0
  0
ARC
  5
275
  8
LAYER_01
 10
-799.60702469173
 20
3270.678654548846
 30
0.0
 40
95.73946475663247
 50
342.5384694280013
 51
355.9922557924111
210
0.0
220
0.0
230
-1.0
  0
ARC
  5
276
  8
LAYER_01
 10
686.4685891852721
 20
3445.360453387936
 30
0.0
 40
182.2282833782388
 50
275.552842612028
 51
280.762492474747
  0
ARC
  5
277
  8
LAYER_01
 10
-799.607024691921
 20
3270.678654548869
 30
0.0
 40
115.7394647568246
 50
352.4467100990062
 51
356.2690829161776
210
0.0
220
0.0
230
-1.0
  0
ARC
  5
278
  8
LAYER_01
 10
-686.4685891852689
 20
3445.360453388125
 30
0.0
 40
182.228283378429
 50
270.7407057854448
 51
275.0728894899934
210
0.0
220
0.0
230
-1.0
  0
LINE
  5
279
  8
LAYER_01
 10
670.3554190487741
 20
3263.845955313725
 30
0.0
 11
684.871827542788
 21
3255.46490296204
 31
0.0
  0
ARC
  5
27A
  8
LAYER_01
 10
742.8087737218914
 20
3067.042891119271
 30
0.0
 40
127.3750080761417
 50
86.27988164524913
 51
115.0583211168994
  0
ARC
  5
27B
  8
LAYER_01
 10
-511.2158376295208
 20
3141.813783527208
 30
0.0
 40
182.228283378294
 50
167.121697657675
 51
182.1511246086076
210
0.0
220
0.0
230
-1.0
  0
ARC
  5
27C
  8
LAYER_01
 10
577.1971094766989
 20
3306.083925038604
 30
0.0
 40
206.7902604333414
 50
304.1615598101179
 51
327.2281995253427
  0
ARC
  5
27D
  8
LAYER_01
 10
-742.8087737218909
 20
3067.042891119273
 30
0.0
 40
147.3750080761396
 50
66.17126100307718
 51
80.80143049967973
210
0.0
220
0.0
230
-1.0
  0
LINE
  5
27E
  8
LAYER_01
 10
719.2499145712125
 20
3212.522694394369
 30
0.0
 11
698.2793651454238
 21
3224.630046750403
 31
0.0
  0
ARC
  5
27F
  8
LAYER_01
 10
719.063930756219
 20
3131.173923653748
 30
0.0
 40
95.73946475663247
 50
102.5384694280014
 51
115.992255792411
  0
ARC
  5
280
  8
LAYER_01
 10
-511.2158376295749
 20
3141.813783527223
 30
0.0
 40
182.2282833782388
 50
155.552842612028
 51
160.7624924747469
210
0.0
220
0.0
230
-1.0
  0
ARC
  5
281
  8
LAYER_01
 10
719.0639307562949
 20
3131.173923653571
 30
0.0
 40
115.7394647568246
 50
112.4467100990063
 51
116.2690829161775
  0
ARC
  5
282
  8
LAYER_01
 10
511.2158376294099
 20
3141.813783527131
 30
0.0
 40
182.228283378429
 50
30.74070578544483
 51
35.07288948999356
  0
LINE
  5
283
  8
LAYER_01
 10
660.3554190487741
 20
3246.525447238036
 30
0.0
 11
674.8718275427875
 21
3238.144394886351
 31
0.0
  0
ARC
  5
284
  8
LAYER_01
 10
686.468589185258
 20
3445.360453388007
 30
0.0
 40
162.2282833783085
 50
280.7910222989383
 51
300.8489791421546
  0
ARC
  5
285
  8
LAYER_01
 10
686.468589185258
 20
3166.807396689291
 30
0.0
 40
162.2282833783097
 50
59.15102085784559
 51
79.2089777010617
  0
LINE
  5
286
  8
LAYER_01
 10
716.8421684444309
 20
3326.166932365258
 30
0.0
 11
745.9577780159686
 21
3306.08392503865
 31
0.0
  0
LINE
  5
287
  8
LAYER_01
 10
745.9577780159686
 20
3306.08392503865
 30
0.0
 11
716.8421684444309
 21
3286.000917712041
 31
0.0
  0
ARC
  5
288
  8
LAYER_01
 10
686.468589185258
 20
3166.807396689291
 30
0.0
 40
162.2282833783097
 50
97.81464332525427
 51
120.848979142154
  0
ARC
  5
289
  8
LAYER_01
 10
686.468589185258
 20
3445.360453388007
 30
0.0
 40
162.2282833783085
 50
239.1510208578455
 51
262.1853566747456
  0
LINE
  5
28A
  8
LAYER_01
 10
664.4106077981567
 20
3284.638764170282
 30
0.0
 11
633.3201978367481
 21
3306.08392503865
 31
0.0
  0
LINE
  5
28B
  8
LAYER_01
 10
633.3201978367481
 20
3306.08392503865
 30
0.0
 11
664.4106077981562
 21
3327.529085907017
 31
0.0
  0
LINE
  5
28C
  8
LAYER_01
 10
622.8706211810827
 20
3226.975082206479
 30
0.0
 11
646.0191945063275
 21
3215.981676774472
 31
0.0
  0
LINE
  5
28D
  8
LAYER_01
 10
646.0191945063275
 20
3215.981676774472
 30
0.0
 11
643.9654762219247
 21
3190.43772149744
 31
0.0
  0
LINE
  5
28E
  8
LAYER_01
 10
643.9654762219247
 20
3190.43772149744
 30
0.0
 11
620.8169028966802
 21
3201.431126929446
 31
0.0
  0
LINE
  5
28F
  8
LAYER_01
 10
620.8169028966802
 20
3201.431126929446
 30
0.0
 11
622.8706211810827
 21
3226.975082206479
 31
0.0
  0
ARC
  5
290
  8
LAYER_01
 10
-701.4068852751072
 20
3043.139499679561
 30
0.0
 40
127.3750080761417
 50
26.27988164524911
 51
55.05832111689939
210
0.0
220
0.0
230
-1.0
  0
ARC
  5
291
  8
LAYER_01
 10
752.4498610323858
 20
3281.090311876549
 30
0.0
 40
182.228283378294
 50
227.121697657675
 51
242.1511246086076
  0
ARC
  5
292
  8
LAYER_01
 10
-577.1971094766634
 20
3306.083925038583
 30
0.0
 40
206.7902604333414
 50
244.1615598101179
 51
267.2281995253426
210
0.0
220
0.0
230
-1.0
  0
ARC
  5
293
  8
LAYER_01
 10
701.4068852751057
 20
3043.139499679563
 30
0.0
 40
147.3750080761396
 50
126.1712610030772
 51
140.8014304996798
  0
LINE
  5
294
  8
LAYER_01
 10
587.1971094766488
 20
3136.281971825778
 30
0.0
 11
587.1971094766488
 21
3160.496676537845
 31
0.0
  0
ARC
  5
295
  8
LAYER_01
 10
-657.7402034121596
 20
3095.768653163944
 30
0.0
 40
95.73946475663247
 50
42.53846942800144
 51
55.99225579241099
210
0.0
220
0.0
230
-1.0
  0
ARC
  5
296
  8
LAYER_01
 10
752.4498610323458
 20
3281.090311876509
 30
0.0
 40
182.2282833782388
 50
215.552842612028
 51
220.7624924747469
  0
ARC
  5
297
  8
LAYER_01
 10
-657.7402034122749
 20
3095.76865316379
 30
0.0
 40
115.7394647568246
 50
52.44671009900627
 51
56.26908291617747
210
0.0
220
0.0
230
-1.0
  0
ARC
  5
298
  8
LAYER_01
 10
-752.4498610325079
 20
3281.090311876607
 30
0.0
 40
182.228283378429
 50
330.7407057854448
 51
335.0728894899935
210
0.0
220
0.0
230
-1.0
  0
LINE
  5
299
  8
LAYER_01
 10
587.1971094766486
 20
3204.287477513112
 30
0.0
 11
587.1971094766488
 21
3187.525372809742
 31
0.0
  0
ARC
  5
29A
  8
LAYER_01
 10
452.98733367819
 20
3043.139499679561
 30
0.0
 40
127.3750080761417
 50
26.27988164524911
 51
55.05832111689939
  0
ARC
  5
29B
  8
LAYER_01
 10
-401.9443579209114
 20
3281.090311876549
 30
0.0
 40
182.228283378294
 50
227.121697657675
 51
242.1511246086076
210
0.0
220
0.0
230
-1.0
  0
ARC
  5
29C
  8
LAYER_01
 10
577.1971094766338
 20
3306.083925038583
 30
0.0
 40
206.7902604333414
 50
244.1615598101179
 51
267.2281995253426
  0
ARC
  5
29D
  8
LAYER_01
 10
-452.9873336781916
 20
3043.139499679563
 30
0.0
 40
147.3750080761396
 50
126.1712610030772
 51
140.8014304996798
210
0.0
220
0.0
230
-1.0
  0
LINE
  5
29E
  8
LAYER_01
 10
567.1971094766484
 20
3136.281971825778
 30
0.0
 11
567.1971094766484
 21
3160.496676537845
 31
0.0
  0
ARC
  5
29F
  8
LAYER_01
 10
496.6540155411376
 20
3095.768653163944
 30
0.0
 40
95.73946475663247
 50
42.53846942800144
 51
55.99225579241099
  0
ARC
  5
2A0
  8
LAYER_01
 10
-401.9443579209515
 20
3281.090311876509
 30
0.0
 40
182.2282833782388
 50
215.552842612028
 51
220.7624924747469
210
0.0
220
0.0
230
-1.0
  0
ARC
  5
2A1
  8
LAYER_01
 10
496.6540155410223
 20
3095.76865316379
 30
0.0
 40
115.7394647568246
 50
52.44671009900627
 51
56.26908291617747
  0
ARC
  5
2A2
  8
LAYER_01
 10
401.9443579207893
 20
3281.090311876607
 30
0.0
 40
182.228283378429
 50
330.7407057854448
 51
335.0728894899935
  0
LINE
  5
2A3
  8
LAYER_01
 10
567.1971094766486
 20
3204.287477513112
 30
0.0
 11
567.1971094766484
 21
3187.525372809742
 31
0.0
  0
ARC
  5
2A4
  8
LAYER_01
 10
752.4498610324008
 20
3281.090311876557
 30
0.0
 40
162.2282833783085
 50
220.7910222989383
 51
240.8489791421545
  0
ARC
  5
2A5
  8
LAYER_01
 10
511.2158376295047
 20
3141.813783527199
 30
0.0
 40
162.2282833783097
 50
359.1510208578457
 51
19.20897770106165
  0
LINE
  5
2A6
  8
LAYER_01
 10
664.4120334897716
 20
3195.189260122879
 30
0.0
 11
661.577443746309
 21
3159.932898923954
 31
0.0
  0
LINE
  5
2A7
  8
LAYER_01
 10
661.577443746309
 20
3159.932898923954
 30
0.0
 11
629.6272444313076
 21
3175.106252796271
 31
0.0
  0
ARC
  5
2A8
  8
LAYER_01
 10
511.2158376295047
 20
3141.813783527199
 30
0.0
 40
162.2282833783097
 50
37.81464332525429
 51
60.84897914215399
  0
ARC
  5
2A9
  8
LAYER_01
 10
752.4498610324008
 20
3281.090311876557
 30
0.0
 40
162.2282833783085
 50
179.1510208578457
 51
202.1853566747456
  0
LINE
  5
2AA
  8
LAYER_01
 10
602.2318045371524
 20
3219.832239505129
 30
0.0
 11
605.2586536566982
 21
3257.479904779965
 31
0.0
  0
LINE
  5
2AB
  8
LAYER_01
 10
605.2586536566982
 20
3257.479904779965
 30
0.0
 11
639.3759127376525
 21
3241.277400373496
 31
0.0
  0
LINE
  5
2AC
  8
LAYER_01
 10
531.5235977722152
 20
3226.975082206478
 30
0.0
 11
533.577316056618
 21
3201.431126929446
 31
0.0
  0
LINE
  5
2AD
  8
LAYER_01
 10
533.577316056618
 20
3201.431126929446
 30
0.0
 11
510.4287427313732
 21
3190.43772149744
 31
0.0
  0
LINE
  5
2AE
  8
LAYER_01
 10
510.4287427313732
 20
3190.43772149744
 30
0.0
 11
508.3750244469709
 21
3215.981676774471
 31
0.0
  0
LINE
  5
2AF
  8
LAYER_01
 10
508.3750244469709
 20
3215.981676774471
 30
0.0
 11
531.5235977722152
 21
3226.975082206478
 31
0.0
  0
ARC
  5
2B0
  8
LAYER_01
 10
-411.5854452314063
 20
3067.042891119271
 30
0.0
 40
127.3750080761417
 50
86.27988164524908
 51
115.0583211168994
210
0.0
220
0.0
230
-1.0
  0
ARC
  5
2B1
  8
LAYER_01
 10
643.1783813237769
 20
3141.813783527208
 30
0.0
 40
182.228283378294
 50
167.121697657675
 51
182.1511246086076
  0
ARC
  5
2B2
  8
LAYER_01
 10
-577.1971094765984
 20
3306.083925038604
 30
0.0
 40
206.7902604333414
 50
304.1615598101179
 51
327.2281995253427
210
0.0
220
0.0
230
-1.0
  0
ARC
  5
2B3
  8
LAYER_01
 10
411.5854452314068
 20
3067.042891119273
 30
0.0
 40
147.3750080761396
 50
66.17126100307725
 51
80.80143049967977
  0
LINE
  5
2B4
  8
LAYER_01
 10
435.1443043820848
 20
3212.522694394369
 30
0.0
 11
456.1148538078739
 21
3224.630046750403
 31
0.0
  0
ARC
  5
2B5
  8
LAYER_01
 10
-435.3302881970787
 20
3131.173923653748
 30
0.0
 40
95.73946475663247
 50
102.5384694280014
 51
115.992255792411
210
0.0
220
0.0
230
-1.0
  0
ARC
  5
2B6
  8
LAYER_01
 10
643.1783813237223
 20
3141.813783527223
 30
0.0
 40
182.2282833782388
 50
155.552842612028
 51
160.7624924747469
  0
ARC
  5
2B7
  8
LAYER_01
 10
-435.3302881970028
 20
3131.173923653571
 30
0.0
 40
115.7394647568246
 50
112.4467100990062
 51
116.2690829161775
210
0.0
220
0.0
230
-1.0
  0
ARC
  5
2B8
  8
LAYER_01
 10
-643.1783813238878
 20
3141.813783527131
 30
0.0
 40
182.228283378429
 50
30.74070578544469
 51
35.07288948999343
210
0.0
220
0.0
230
-1.0
  0
LINE
  5
2B9
  8
LAYER_01
 10
494.0387999045231
 20
3246.525447238036
 30
0.0
 11
479.5223914105102
 21
3238.144394886351
 31
0.0
  0
ARC
  5
2BA
  8
LAYER_01
 10
287.3756694329475
 20
3282.18053359894
 30
0.0
 40
127.3750080761417
 50
326.2798816452492
 51
355.0583211168994
  0
ARC
  5
2BB
  8
LAYER_01
 10
-467.9256297680397
 20
3445.36045338799
 30
0.0
 40
182.228283378294
 50
287.1216976576749
 51
302.1511246086076
210
0.0
220
0.0
230
-1.0
  0
ARC
  5
2BC
  8
LAYER_01
 10
577.1971094765838
 20
3306.083925038629
 30
0.0
 40
206.7902604333414
 50
184.161559810118
 51
207.2281995253427
  0
ARC
  5
2BD
  8
LAYER_01
 10
-287.3756694329497
 20
3282.18053359894
 30
0.0
 40
147.3750080761396
 50
186.1712610030771
 51
200.8014304996798
210
0.0
220
0.0
230
-1.0
  0
LINE
  5
2BE
  8
LAYER_01
 10
425.1443043820843
 20
3229.843202470058
 30
0.0
 11
446.1148538078735
 21
3241.950554826092
 31
0.0
  0
ARC
  5
2BF
  8
LAYER_01
 10
354.7871942615677
 20
3270.678654548846
 30
0.0
 40
95.73946475663247
 50
342.5384694280015
 51
355.9922557924111
  0
ARC
  5
2C0
  8
LAYER_01
 10
-467.9256297680251
 20
3445.360453387936
 30
0.0
 40
182.2282833782388
 50
275.552842612028
 51
280.7624924747469
210
0.0
220
0.0
230
-1.0
  0
ARC
  5
2C1
  8
LAYER_01
 10
354.7871942613767
 20
3270.678654548869
 30
0.0
 40
115.7394647568246
 50
352.4467100990062
 51
356.2690829161776
  0
ARC
  5
2C2
  8
LAYER_01
 10
467.9256297680288
 20
3445.360453388125
 30
0.0
 40
182.228283378429
 50
270.7407057854448
 51
275.0728894899935
  0
LINE
  5
2C3
  8
LAYER_01
 10
484.0387999045231
 20
3263.845955313725
 30
0.0
 11
469.5223914105097
 21
3255.46490296204
 31
0.0
  0
ARC
  5
2C4
  8
LAYER_01
 10
643.1783813237914
 20
3141.813783527199
 30
0.0
 40
162.2282833783085
 50
160.7910222989384
 51
180.8489791421545
  0
ARC
  5
2C5
  8
LAYER_01
 10
401.9443579208958
 20
3281.090311876558
 30
0.0
 40
162.2282833783097
 50
299.1510208578457
 51
319.2089777010618
  0
LINE
  5
2C6
  8
LAYER_01
 10
524.7669745219894
 20
3175.10625279627
 30
0.0
 11
492.8167752069892
 21
3159.932898923953
 31
0.0
  0
LINE
  5
2C7
  8
LAYER_01
 10
492.8167752069892
 20
3159.932898923953
 30
0.0
 11
489.9821854635259
 21
3195.189260122879
 31
0.0
  0
ARC
  5
2C8
  8
LAYER_01
 10
401.9443579208958
 20
3281.090311876558
 30
0.0
 40
162.2282833783097
 50
337.8146433252544
 51
0.8489791421542073
  0
ARC
  5
2C9
  8
LAYER_01
 10
643.1783813237914
 20
3141.813783527199
 30
0.0
 40
162.2282833783085
 50
119.1510208578457
 51
142.1853566747456
  0
LINE
  5
2CA
  8
LAYER_01
 10
515.018306215645
 20
3241.277400373496
 30
0.0
 11
549.1355652965988
 21
3257.479904779965
 31
0.0
  0
LINE
  5
2CB
  8
LAYER_01
 10
549.1355652965988
 20
3257.479904779965
 30
0.0
 11
552.1624144161453
 21
3219.832239505129
 31
0.0
  0
LINE
  5
2CC
  8
LAYER_01
 10
485.8500860677811
 20
3306.083925038649
 30
0.0
 11
464.7552310269391
 21
3291.533375193624
 31
0.0
  0
LINE
  5
2CD
  8
LAYER_01
 10
464.7552310269391
 20
3291.533375193624
 30
0.0
 11
443.6603759860971
 21
3306.083925038649
 31
0.0
  0
LINE
  5
2CE
  8
LAYER_01
 10
443.6603759860971
 20
3306.083925038649
 30
0.0
 11
464.7552310269391
 21
3320.634474883675
 31
0.0
  0
LINE
  5
2CF
  8
LAYER_01
 10
464.7552310269391
 20
3320.634474883675
 30
0.0
 11
485.8500860677811
 21
3306.083925038649
 31
0.0
  0
ARC
  5
2D0
  8
LAYER_01
 10
-287.3756694329479
 20
3329.987316478359
 30
0.0
 40
127.3750080761417
 50
146.2798816452492
 51
175.0583211168995
210
0.0
220
0.0
230
-1.0
  0
ARC
  5
2D1
  8
LAYER_01
 10
467.9256297680402
 20
3166.807396689309
 30
0.0
 40
182.228283378294
 50
107.1216976576749
 51
122.1511246086076
  0
ARC
  5
2D2
  8
LAYER_01
 10
-577.1971094765838
 20
3306.08392503867
 30
0.0
 40
206.7902604333414
 50
4.161559810117955
 51
27.22819952534268
210
0.0
220
0.0
230
-1.0
  0
ARC
  5
2D3
  8
LAYER_01
 10
287.3756694329502
 20
3329.98731647836
 30
0.0
 40
147.3750080761396
 50
6.17126100307715
 51
20.80143049967983
  0
LINE
  5
2D4
  8
LAYER_01
 10
425.1443043820852
 20
3382.324647607241
 30
0.0
 11
446.1148538078739
 21
3370.217295251208
 31
0.0
  0
ARC
  5
2D5
  8
LAYER_01
 10
-354.7871942615677
 20
3341.489195528453
 30
0.0
 40
95.73946475663247
 50
162.5384694280015
 51
175.9922557924111
210
0.0
220
0.0
230
-1.0
  0
ARC
  5
2D6
  8
LAYER_01
 10
467.9256297680256
 20
3166.807396689363
 30
0.0
 40
182.2282833782388
 50
95.55284261202799
 51
100.7624924747469
  0
ARC
  5
2D7
  8
LAYER_01
 10
-354.7871942613767
 20
3341.48919552843
 30
0.0
 40
115.7394647568246
 50
172.4467100990062
 51
176.2690829161776
210
0.0
220
0.0
230
-1.0
  0
ARC
  5
2D8
  8
LAYER_01
 10
-467.9256297680288
 20
3166.807396689174
 30
0.0
 40
182.228283378429
 50
90.7407057854448
 51
95.0728894899935
210
0.0
220
0.0
230
-1.0
  0
LINE
  5
2D9
  8
LAYER_01
 10
484.0387999045231
 20
3348.321894763574
 30
0.0
 11
469.5223914105102
 21
3356.702947115259
 31
0.0
  0
ARC
  5
2DA
  8
LAYER_01
 10
411.5854452314063
 20
3545.124958958029
 30
0.0
 40
127.3750080761417
 50
266.2798816452491
 51
295.0583211168994
  0
ARC
  5
2DB
  8
LAYER_01
 10
-643.1783813237769
 20
3470.354066550091
 30
0.0
 40
182.228283378294
 50
347.1216976576749
 51
2.151124608607566
210
0.0
220
0.0
230
-1.0
  0
ARC
  5
2DC
  8
LAYER_01
 10
577.1971094765984
 20
3306.083925038696
 30
0.0
 40
206.7902604333414
 50
124.1615598101179
 51
147.2281995253427
  0
ARC
  5
2DD
  8
LAYER_01
 10
-411.5854452314068
 20
3545.124958958026
 30
0.0
 40
147.3750080761396
 50
246.1712610030772
 51
260.8014304996797
210
0.0
220
0.0
230
-1.0
  0
LINE
  5
2DE
  8
LAYER_01
 10
435.1443043820852
 20
3399.64515568293
 30
0.0
 11
456.1148538078739
 21
3387.537803326896
 31
0.0
  0
ARC
  5
2DF
  8
LAYER_01
 10
435.3302881970787
 20
3480.993926423551
 30
0.0
 40
95.73946475663247
 50
282.5384694280015
 51
295.992255792411
  0
ARC
  5
2E0
  8
LAYER_01
 10
-643.1783813237232
 20
3470.354066550076
 30
0.0
 40
182.2282833782388
 50
335.552842612028
 51
340.762492474747
210
0.0
220
0.0
230
-1.0
  0
ARC
  5
2E1
  8
LAYER_01
 10
435.3302881970033
 20
3480.993926423728
 30
0.0
 40
115.7394647568246
 50
292.4467100990062
 51
296.2690829161775
  0
ARC
  5
2E2
  8
LAYER_01
 10
643.1783813238883
 20
3470.354066550168
 30
0.0
 40
182.228283378429
 50
210.7407057854448
 51
215.0728894899934
  0
LINE
  5
2E3
  8
LAYER_01
 10
494.0387999045231
 20
3365.642402839263
 30
0.0
 11
479.5223914105102
 21
3374.023455190948
 31
0.0
  0
ARC
  5
2E4
  8
LAYER_01
 10
467.9256297680392
 20
3166.807396689292
 30
0.0
 40
162.2282833783085
 50
100.7910222989383
 51
120.8489791421546
  0
ARC
  5
2E5
  8
LAYER_01
 10
467.9256297680397
 20
3445.360453388009
 30
0.0
 40
162.2282833783097
 50
239.1510208578455
 51
259.2089777010617
  0
LINE
  5
2E6
  8
LAYER_01
 10
437.5520505088668
 20
3286.000917712041
 30
0.0
 11
408.4364409373291
 21
3306.083925038649
 31
0.0
  0
LINE
  5
2E7
  8
LAYER_01
 10
408.4364409373291
 20
3306.083925038649
 30
0.0
 11
437.5520505088668
 21
3326.166932365258
 31
0.0
  0
ARC
  5
2E8
  8
LAYER_01
 10
467.9256297680397
 20
3445.360453388009
 30
0.0
 40
162.2282833783097
 50
277.8146433252543
 51
300.848979142154
  0
ARC
  5
2E9
  8
LAYER_01
 10
467.9256297680392
 20
3166.807396689292
 30
0.0
 40
162.2282833783085
 50
59.15102085784561
 51
82.18535667474559
  0
LINE
  5
2EA
  8
LAYER_01
 10
489.9836111551415
 20
3327.529085907017
 30
0.0
 11
521.0740211165491
 21
3306.08392503865
 31
0.0
  0
LINE
  5
2EB
  8
LAYER_01
 10
521.0740211165491
 20
3306.08392503865
 30
0.0
 11
489.9836111551415
 21
3284.638764170282
 31
0.0
  0
LINE
  5
2EC
  8
LAYER_01
 10
1392.983728130927
 20
3385.192767870821
 30
0.0
 11
1416.132301456171
 21
3396.186173302827
 31
0.0
  0
LINE
  5
2ED
  8
LAYER_01
 10
1416.132301456171
 20
3396.186173302827
 30
0.0
 11
1414.078583171769
 21
3421.730128579859
 31
0.0
  0
LINE
  5
2EE
  8
LAYER_01
 10
1414.078583171769
 20
3421.730128579859
 30
0.0
 11
1390.930009846524
 21
3410.736723147853
 31
0.0
  0
LINE
  5
2EF
  8
LAYER_01
 10
1390.930009846524
 20
3410.736723147853
 30
0.0
 11
1392.983728130927
 21
3385.192767870821
 31
0.0
  0
ARC
  5
2F0
  8
LAYER_01
 10
1471.519992224951
 20
3569.028350397738
 30
0.0
 40
127.3750080761417
 50
206.2798816452491
 51
235.0583211168994
  0
ARC
  5
2F1
  8
LAYER_01
 10
-1522.56296798223
 20
3331.07753820075
 30
0.0
 40
182.228283378294
 50
47.121697657675
 51
62.15112460860758
210
0.0
220
0.0
230
-1.0
  0
ARC
  5
2F2
  8
LAYER_01
 10
1347.310216426507
 20
3306.083925038716
 30
0.0
 40
206.7902604333414
 50
64.16155981011786
 51
87.22819952534266
  0
ARC
  5
2F3
  8
LAYER_01
 10
-1471.51999222495
 20
3569.028350397736
 30
0.0
 40
147.3750080761396
 50
306.1712610030771
 51
320.8014304996798
210
0.0
220
0.0
230
-1.0
  0
LINE
  5
2F4
  8
LAYER_01
 10
1357.310216426493
 20
3475.885878251522
 30
0.0
 11
1357.310216426493
 21
3451.671173539454
 31
0.0
  0
ARC
  5
2F5
  8
LAYER_01
 10
1427.853310362004
 20
3516.399196913355
 30
0.0
 40
95.73946475663247
 50
222.5384694280014
 51
235.992255792411
  0
ARC
  5
2F6
  8
LAYER_01
 10
-1522.56296798219
 20
3331.07753820079
 30
0.0
 40
182.2282833782388
 50
35.55284261202802
 51
40.76249247474692
210
0.0
220
0.0
230
-1.0
  0
ARC
  5
2F7
  8
LAYER_01
 10
1427.853310362119
 20
3516.399196913509
 30
0.0
 40
115.7394647568246
 50
232.4467100990063
 51
236.2690829161775
  0
ARC
  5
2F8
  8
LAYER_01
 10
1522.562967982352
 20
3331.077538200693
 30
0.0
 40
182.228283378429
 50
150.7407057854448
 51
155.0728894899935
  0
LINE
  5
2F9
  8
LAYER_01
 10
1357.310216426493
 20
3407.880372564188
 30
0.0
 11
1357.310216426493
 21
3424.642477267558
 31
0.0
  0
ARC
  5
2FA
  8
LAYER_01
 10
-1223.100440628034
 20
3569.028350397738
 30
0.0
 40
127.3750080761417
 50
206.2798816452491
 51
235.0583211168994
210
0.0
220
0.0
230
-1.0
  0
ARC
  5
2FB
  8
LAYER_01
 10
1172.057464870755
 20
3331.07753820075
 30
0.0
 40
182.228283378294
 50
47.121697657675
 51
62.15112460860758
  0
ARC
  5
2FC
  8
LAYER_01
 10
-1347.310216426478
 20
3306.083925038716
 30
0.0
 40
206.7902604333414
 50
64.16155981011786
 51
87.22819952534266
210
0.0
220
0.0
230
-1.0
  0
ARC
  5
2FD
  8
LAYER_01
 10
1223.100440628035
 20
3569.028350397736
 30
0.0
 40
147.3750080761396
 50
306.1712610030771
 51
320.8014304996798
  0
LINE
  5
2FE
  8
LAYER_01
 10
1337.310216426492
 20
3475.885878251522
 30
0.0
 11
1337.310216426492
 21
3451.671173539454
 31
0.0
  0
ARC
  5
2FF
  8
LAYER_01
 10
-1266.767122490981
 20
3516.399196913355
 30
0.0
 40
95.73946475663247
 50
222.5384694280014
 51
235.992255792411
210
0.0
220
0.0
230
-1.0
  0
ARC
  5
300
  8
LAYER_01
 10
1172.057464870795
 20
3331.07753820079
 30
0.0
 40
182.2282833782388
 50
35.55284261202802
 51
40.76249247474692
  0
ARC
  5
301
  8
LAYER_01
 10
-1266.767122490866
 20
3516.399196913509
 30
0.0
 40
115.7394647568246
 50
232.4467100990063
 51
236.2690829161775
210
0.0
220
0.0
230
-1.0
  0
ARC
  5
302
  8
LAYER_01
 10
-1172.057464870633
 20
3331.077538200693
 30
0.0
 40
182.228283378429
 50
150.7407057854448
 51
155.0728894899935
210
0.0
220
0.0
230
-1.0
  0
LINE
  5
303
  8
LAYER_01
 10
1337.310216426493
 20
3407.880372564188
 30
0.0
 11
1337.310216426492
 21
3424.642477267558
 31
0.0
  0
ARC
  5
304
  8
LAYER_01
 10
-1522.562967982245
 20
3331.077538200742
 30
0.0
 40
162.2282833783085
 50
40.79102229893832
 51
60.84897914215451
210
0.0
220
0.0
230
-1.0
  0
ARC
  5
305
  8
LAYER_01
 10
-1281.328944579349
 20
3470.3540665501
 30
0.0
 40
162.2282833783097
 50
179.1510208578457
 51
199.2089777010617
210
0.0
220
0.0
230
-1.0
  0
LINE
  5
306
  8
LAYER_01
 10
1434.525140439615
 20
3416.978589954421
 30
0.0
 11
1431.690550696153
 21
3452.234951153346
 31
0.0
  0
LINE
  5
307
  8
LAYER_01
 10
1431.690550696153
 20
3452.234951153346
 30
0.0
 11
1399.740351381152
 21
3437.061597281029
 31
0.0
  0
ARC
  5
308
  8
LAYER_01
 10
-1281.328944579349
 20
3470.3540665501
 30
0.0
 40
162.2282833783097
 50
217.8146433252543
 51
240.848979142154
210
0.0
220
0.0
230
-1.0
  0
ARC
  5
309
  8
LAYER_01
 10
-1522.562967982245
 20
3331.077538200742
 30
0.0
 40
162.2282833783085
 50
359.1510208578457
 51
22.1853566747456
210
0.0
220
0.0
230
-1.0
  0
LINE
  5
30A
  8
LAYER_01
 10
1372.344911486996
 20
3392.33561057217
 30
0.0
 11
1375.371760606542
 21
3354.687945297334
 31
0.0
  0
LINE
  5
30B
  8
LAYER_01
 10
1375.371760606542
 20
3354.687945297334
 30
0.0
 11
1409.489019687496
 21
3370.890449703803
 31
0.0
  0
LINE
  5
30C
  8
LAYER_01
 10
1301.636704722059
 20
3385.192767870821
 30
0.0
 11
1303.690423006462
 21
3410.736723147853
 31
0.0
  0
LINE
  5
30D
  8
LAYER_01
 10
1303.690423006462
 20
3410.736723147853
 30
0.0
 11
1280.541849681217
 21
3421.73012857986
 31
0.0
  0
LINE
  5
30E
  8
LAYER_01
 10
1280.541849681217
 20
3421.73012857986
 30
0.0
 11
1278.488131396814
 21
3396.186173302827
 31
0.0
  0
LINE
  5
30F
  8
LAYER_01
 10
1278.488131396814
 20
3396.186173302827
 30
0.0
 11
1301.636704722059
 21
3385.192767870821
 31
0.0
  0
ARC
  5
310
  8
LAYER_01
 10
1181.69855218125
 20
3545.124958958028
 30
0.0
 40
127.3750080761417
 50
266.2798816452491
 51
295.0583211168994
  0
ARC
  5
311
  8
LAYER_01
 10
-1413.29148827362
 20
3470.354066550091
 30
0.0
 40
182.228283378294
 50
347.1216976576749
 51
2.151124608607565
210
0.0
220
0.0
230
-1.0
  0
ARC
  5
312
  8
LAYER_01
 10
1347.310216426442
 20
3306.083925038696
 30
0.0
 40
206.7902604333414
 50
124.1615598101179
 51
147.2281995253427
  0
ARC
  5
313
  8
LAYER_01
 10
-1181.69855218125
 20
3545.124958958026
 30
0.0
 40
147.3750080761396
 50
246.1712610030772
 51
260.8014304996797
210
0.0
220
0.0
230
-1.0
  0
LINE
  5
314
  8
LAYER_01
 10
1205.257411331929
 20
3399.64515568293
 30
0.0
 11
1226.227960757717
 21
3387.537803326896
 31
0.0
  0
ARC
  5
315
  8
LAYER_01
 10
1205.443395146922
 20
3480.993926423551
 30
0.0
 40
95.73946475663247
 50
282.5384694280015
 51
295.9922557924111
  0
ARC
  5
316
  8
LAYER_01
 10
-1413.291488273567
 20
3470.354066550076
 30
0.0
 40
182.2282833782388
 50
335.552842612028
 51
340.762492474747
210
0.0
220
0.0
230
-1.0
  0
ARC
  5
317
  8
LAYER_01
 10
1205.443395146847
 20
3480.993926423728
 30
0.0
 40
115.7394647568246
 50
292.4467100990063
 51
296.2690829161775
  0
ARC
  5
318
  8
LAYER_01
 10
1413.291488273732
 20
3470.354066550168
 30
0.0
 40
182.228283378429
 50
210.7407057854448
 51
215.0728894899935
  0
LINE
  5
319
  8
LAYER_01
 10
1264.151906854367
 20
3365.642402839263
 30
0.0
 11
1249.635498360354
 21
3374.023455190948
 31
0.0
  0
ARC
  5
31A
  8
LAYER_01
 10
-1057.488776382791
 20
3329.987316478359
 30
0.0
 40
127.3750080761417
 50
146.2798816452492
 51
175.0583211168995
210
0.0
220
0.0
230
-1.0
  0
ARC
  5
31B
  8
LAYER_01
 10
1238.038736717884
 20
3166.807396689309
 30
0.0
 40
182.228283378294
 50
107.121697657675
 51
122.1511246086076
  0
ARC
  5
31C
  8
LAYER_01
 10
-1347.310216426427
 20
3306.08392503867
 30
0.0
 40
206.7902604333414
 50
4.161559810117957
 51
27.22819952534267
210
0.0
220
0.0
230
-1.0
  0
ARC
  5
31D
  8
LAYER_01
 10
1057.488776382794
 20
3329.98731647836
 30
0.0
 40
147.3750080761396
 50
6.171261003077155
 51
20.80143049967984
  0
LINE
  5
31E
  8
LAYER_01
 10
1195.257411331929
 20
3382.324647607241
 30
0.0
 11
1216.227960757717
 21
3370.217295251208
 31
0.0
  0
ARC
  5
31F
  8
LAYER_01
 10
-1124.900301211411
 20
3341.489195528453
 30
0.0
 40
95.73946475663247
 50
162.5384694280016
 51
175.9922557924111
210
0.0
220
0.0
230
-1.0
  0
ARC
  5
320
  8
LAYER_01
 10
1238.038736717869
 20
3166.807396689363
 30
0.0
 40
182.2282833782388
 50
95.55284261202799
 51
100.7624924747469
  0
ARC
  5
321
  8
LAYER_01
 10
-1124.90030121122
 20
3341.48919552843
 30
0.0
 40
115.7394647568246
 50
172.4467100990062
 51
176.2690829161776
210
0.0
220
0.0
230
-1.0
  0
ARC
  5
322
  8
LAYER_01
 10
-1238.038736717872
 20
3166.807396689174
 30
0.0
 40
182.228283378429
 50
90.74070578544482
 51
95.07288948999351
210
0.0
220
0.0
230
-1.0
  0
LINE
  5
323
  8
LAYER_01
 10
1254.151906854367
 20
3348.321894763574
 30
0.0
 11
1239.635498360354
 21
3356.702947115259
 31
0.0
  0
ARC
  5
324
  8
LAYER_01
 10
-1413.291488273635
 20
3470.3540665501
 30
0.0
 40
162.2282833783085
 50
340.7910222989384
 51
0.8489791421545334
210
0.0
220
0.0
230
-1.0
  0
ARC
  5
325
  8
LAYER_01
 10
-1172.057464870739
 20
3331.077538200741
 30
0.0
 40
162.2282833783097
 50
119.1510208578457
 51
139.2089777010618
210
0.0
220
0.0
230
-1.0
  0
LINE
  5
326
  8
LAYER_01
 10
1294.880081471833
 20
3437.061597281029
 30
0.0
 11
1262.929882156833
 21
3452.234951153346
 31
0.0
  0
LINE
  5
327
  8
LAYER_01
 10
1262.929882156833
 20
3452.234951153346
 30
0.0
 11
1260.09529241337
 21
3416.97858995442
 31
0.0
  0
ARC
  5
328
  8
LAYER_01
 10
-1172.057464870739
 20
3331.077538200741
 30
0.0
 40
162.2282833783097
 50
157.8146433252543
 51
180.848979142154
210
0.0
220
0.0
230
-1.0
  0
ARC
  5
329
  8
LAYER_01
 10
-1413.291488273635
 20
3470.3540665501
 30
0.0
 40
162.2282833783085
 50
299.1510208578456
 51
322.1853566747455
210
0.0
220
0.0
230
-1.0
  0
LINE
  5
32A
  8
LAYER_01
 10
1285.131413165488
 20
3370.890449703803
 30
0.0
 11
1319.248672246443
 21
3354.687945297334
 31
0.0
  0
LINE
  5
32B
  8
LAYER_01
 10
1319.248672246443
 20
3354.687945297334
 30
0.0
 11
1322.275521365989
 21
3392.33561057217
 31
0.0
  0
LINE
  5
32C
  8
LAYER_01
 10
1255.963193017625
 20
3306.08392503865
 30
0.0
 11
1234.868337976783
 21
3320.634474883676
 31
0.0
  0
LINE
  5
32D
  8
LAYER_01
 10
1234.868337976783
 20
3320.634474883676
 30
0.0
 11
1213.77348293594
 21
3306.08392503865
 31
0.0
  0
LINE
  5
32E
  8
LAYER_01
 10
1213.77348293594
 20
3306.08392503865
 30
0.0
 11
1234.868337976783
 21
3291.533375193625
 31
0.0
  0
LINE
  5
32F
  8
LAYER_01
 10
1234.868337976783
 20
3291.533375193625
 30
0.0
 11
1255.963193017625
 21
3306.08392503865
 31
0.0
  0
ARC
  5
330
  8
LAYER_01
 10
1057.488776382791
 20
3282.18053359894
 30
0.0
 40
127.3750080761417
 50
326.2798816452492
 51
355.0583211168994
  0
ARC
  5
331
  8
LAYER_01
 10
-1238.038736717883
 20
3445.36045338799
 30
0.0
 40
182.228283378294
 50
287.121697657675
 51
302.1511246086076
210
0.0
220
0.0
230
-1.0
  0
ARC
  5
332
  8
LAYER_01
 10
1347.310216426428
 20
3306.083925038629
 30
0.0
 40
206.7902604333414
 50
184.1615598101178
 51
207.2281995253427
  0
ARC
  5
333
  8
LAYER_01
 10
-1057.488776382793
 20
3282.18053359894
 30
0.0
 40
147.3750080761396
 50
186.1712610030771
 51
200.8014304996798
210
0.0
220
0.0
230
-1.0
  0
LINE
  5
334
  8
LAYER_01
 10
1195.257411331929
 20
3229.843202470058
 30
0.0
 11
1216.227960757717
 21
3241.950554826092
 31
0.0
  0
ARC
  5
335
  8
LAYER_01
 10
1124.900301211411
 20
3270.678654548846
 30
0.0
 40
95.73946475663247
 50
342.5384694280013
 51
355.9922557924111
  0
ARC
  5
336
  8
LAYER_01
 10
-1238.038736717869
 20
3445.360453387936
 30
0.0
 40
182.2282833782388
 50
275.552842612028
 51
280.7624924747469
210
0.0
220
0.0
230
-1.0
  0
ARC
  5
337
  8
LAYER_01
 10
1124.90030121122
 20
3270.678654548869
 30
0.0
 40
115.7394647568246
 50
352.4467100990062
 51
356.2690829161776
  0
ARC
  5
338
  8
LAYER_01
 10
1238.038736717872
 20
3445.360453388125
 30
0.0
 40
182.228283378429
 50
270.7407057854448
 51
275.0728894899935
  0
LINE
  5
339
  8
LAYER_01
 10
1254.151906854367
 20
3263.845955313725
 30
0.0
 11
1239.635498360353
 21
3255.46490296204
 31
0.0
  0
ARC
  5
33A
  8
LAYER_01
 10
-1181.69855218125
 20
3067.042891119271
 30
0.0
 40
127.3750080761417
 50
86.27988164524908
 51
115.0583211168994
210
0.0
220
0.0
230
-1.0
  0
ARC
  5
33B
  8
LAYER_01
 10
1413.29148827362
 20
3141.813783527208
 30
0.0
 40
182.228283378294
 50
167.121697657675
 51
182.1511246086076
  0
ARC
  5
33C
  8
LAYER_01
 10
-1347.310216426442
 20
3306.083925038604
 30
0.0
 40
206.7902604333414
 50
304.1615598101179
 51
327.2281995253427
210
0.0
220
0.0
230
-1.0
  0
ARC
  5
33D
  8
LAYER_01
 10
1181.69855218125
 20
3067.042891119273
 30
0.0
 40
147.3750080761396
 50
66.17126100307718
 51
80.80143049967977
  0
LINE
  5
33E
  8
LAYER_01
 10
1205.257411331929
 20
3212.522694394369
 30
0.0
 11
1226.227960757717
 21
3224.630046750403
 31
0.0
  0
ARC
  5
33F
  8
LAYER_01
 10
-1205.443395146922
 20
3131.173923653748
 30
0.0
 40
95.73946475663247
 50
102.5384694280015
 51
115.9922557924111
210
0.0
220
0.0
230
-1.0
  0
ARC
  5
340
  8
LAYER_01
 10
1413.291488273566
 20
3141.813783527223
 30
0.0
 40
182.2282833782388
 50
155.552842612028
 51
160.7624924747469
  0
ARC
  5
341
  8
LAYER_01
 10
-1205.443395146846
 20
3131.173923653571
 30
0.0
 40
115.7394647568246
 50
112.4467100990063
 51
116.2690829161775
210
0.0
220
0.0
230
-1.0
  0
ARC
  5
342
  8
LAYER_01
 10
-1413.291488273731
 20
3141.813783527131
 30
0.0
 40
182.228283378429
 50
30.74070578544481
 51
35.07288948999356
210
0.0
220
0.0
230
-1.0
  0
LINE
  5
343
  8
LAYER_01
 10
1264.151906854367
 20
3246.525447238036
 30
0.0
 11
1249.635498360354
 21
3238.144394886351
 31
0.0
  0
ARC
  5
344
  8
LAYER_01
 10
-1238.038736717883
 20
3445.360453388007
 30
0.0
 40
162.2282833783085
 50
280.7910222989383
 51
300.8489791421545
210
0.0
220
0.0
230
-1.0
  0
ARC
  5
345
  8
LAYER_01
 10
-1238.038736717883
 20
3166.807396689291
 30
0.0
 40
162.2282833783097
 50
59.15102085784563
 51
79.20897770106173
210
0.0
220
0.0
230
-1.0
  0
LINE
  5
346
  8
LAYER_01
 10
1207.66515745871
 20
3326.166932365258
 30
0.0
 11
1178.549547887172
 21
3306.08392503865
 31
0.0
  0
LINE
  5
347
  8
LAYER_01
 10
1178.549547887172
 20
3306.08392503865
 30
0.0
 11
1207.66515745871
 21
3286.000917712041
 31
0.0
  0
ARC
  5
348
  8
LAYER_01
 10
-1238.038736717883
 20
3166.807396689291
 30
0.0
 40
162.2282833783097
 50
97.81464332525424
 51
120.848979142154
210
0.0
220
0.0
230
-1.0
  0
ARC
  5
349
  8
LAYER_01
 10
-1238.038736717883
 20
3445.360453388007
 30
0.0
 40
162.2282833783085
 50
239.1510208578455
 51
262.1853566747457
210
0.0
220
0.0
230
-1.0
  0
LINE
  5
34A
  8
LAYER_01
 10
1260.096718104984
 20
3284.638764170282
 30
0.0
 11
1291.187128066393
 21
3306.08392503865
 31
0.0
  0
LINE
  5
34B
  8
LAYER_01
 10
1291.187128066393
 20
3306.08392503865
 30
0.0
 11
1260.096718104985
 21
3327.529085907017
 31
0.0
  0
LINE
  5
34C
  8
LAYER_01
 10
1301.636704722058
 20
3226.975082206479
 30
0.0
 11
1278.488131396814
 21
3215.981676774472
 31
0.0
  0
LINE
  5
34D
  8
LAYER_01
 10
1278.488131396814
 20
3215.981676774472
 30
0.0
 11
1280.541849681216
 21
3190.43772149744
 31
0.0
  0
LINE
  5
34E
  8
LAYER_01
 10
1280.541849681216
 20
3190.43772149744
 30
0.0
 11
1303.690423006461
 21
3201.431126929446
 31
0.0
  0
LINE
  5
34F
  8
LAYER_01
 10
1303.690423006461
 20
3201.431126929446
 30
0.0
 11
1301.636704722058
 21
3226.975082206479
 31
0.0
  0
ARC
  5
350
  8
LAYER_01
 10
1223.100440628034
 20
3043.139499679561
 30
0.0
 40
127.3750080761417
 50
26.27988164524908
 51
55.05832111689939
  0
ARC
  5
351
  8
LAYER_01
 10
-1172.057464870755
 20
3281.090311876549
 30
0.0
 40
182.228283378294
 50
227.121697657675
 51
242.1511246086076
210
0.0
220
0.0
230
-1.0
  0
ARC
  5
352
  8
LAYER_01
 10
1347.310216426478
 20
3306.083925038583
 30
0.0
 40
206.7902604333414
 50
244.1615598101179
 51
267.2281995253426
  0
ARC
  5
353
  8
LAYER_01
 10
-1223.100440628035
 20
3043.139499679563
 30
0.0
 40
147.3750080761396
 50
126.1712610030772
 51
140.8014304996799
210
0.0
220
0.0
230
-1.0
  0
LINE
  5
354
  8
LAYER_01
 10
1337.310216426492
 20
3136.281971825778
 30
0.0
 11
1337.310216426492
 21
3160.496676537845
 31
0.0
  0
ARC
  5
355
  8
LAYER_01
 10
1266.767122490981
 20
3095.768653163944
 30
0.0
 40
95.73946475663247
 50
42.53846942800144
 51
55.99225579241099
  0
ARC
  5
356
  8
LAYER_01
 10
-1172.057464870795
 20
3281.090311876509
 30
0.0
 40
182.2282833782388
 50
215.552842612028
 51
220.7624924747469
210
0.0
220
0.0
230
-1.0
  0
ARC
  5
357
  8
LAYER_01
 10
1266.767122490866
 20
3095.76865316379
 30
0.0
 40
115.7394647568246
 50
52.44671009900632
 51
56.26908291617752
  0
ARC
  5
358
  8
LAYER_01
 10
1172.057464870633
 20
3281.090311876607
 30
0.0
 40
182.228283378429
 50
330.7407057854448
 51
335.0728894899935
  0
LINE
  5
359
  8
LAYER_01
 10
1337.310216426493
 20
3204.287477513112
 30
0.0
 11
1337.310216426492
 21
3187.525372809742
 31
0.0
  0
ARC
  5
35A
  8
LAYER_01
 10
-1471.519992224951
 20
3043.139499679561
 30
0.0
 40
127.3750080761417
 50
26.27988164524908
 51
55.05832111689939
210
0.0
220
0.0
230
-1.0
  0
ARC
  5
35B
  8
LAYER_01
 10
1522.56296798223
 20
3281.090311876549
 30
0.0
 40
182.228283378294
 50
227.121697657675
 51
242.1511246086076
  0
ARC
  5
35C
  8
LAYER_01
 10
-1347.310216426507
 20
3306.083925038583
 30
0.0
 40
206.7902604333414
 50
244.1615598101179
 51
267.2281995253426
210
0.0
220
0.0
230
-1.0
  0
ARC
  5
35D
  8
LAYER_01
 10
1471.51999222495
 20
3043.139499679563
 30
0.0
 40
147.3750080761396
 50
126.1712610030772
 51
140.8014304996799
  0
LINE
  5
35E
  8
LAYER_01
 10
1357.310216426493
 20
3136.281971825778
 30
0.0
 11
1357.310216426493
 21
3160.496676537845
 31
0.0
  0
ARC
  5
35F
  8
LAYER_01
 10
-1427.853310362004
 20
3095.768653163944
 30
0.0
 40
95.73946475663247
 50
42.53846942800144
 51
55.99225579241099
210
0.0
220
0.0
230
-1.0
  0
ARC
  5
360
  8
LAYER_01
 10
1522.56296798219
 20
3281.090311876509
 30
0.0
 40
182.2282833782388
 50
215.552842612028
 51
220.7624924747469
  0
ARC
  5
361
  8
LAYER_01
 10
-1427.853310362119
 20
3095.76865316379
 30
0.0
 40
115.7394647568246
 50
52.44671009900632
 51
56.26908291617752
210
0.0
220
0.0
230
-1.0
  0
ARC
  5
362
  8
LAYER_01
 10
-1522.562967982352
 20
3281.090311876607
 30
0.0
 40
182.228283378429
 50
330.7407057854448
 51
335.0728894899935
210
0.0
220
0.0
230
-1.0
  0
LINE
  5
363
  8
LAYER_01
 10
1357.310216426493
 20
3204.287477513112
 30
0.0
 11
1357.310216426493
 21
3187.525372809742
 31
0.0
  0
ARC
  5
364
  8
LAYER_01
 10
-1172.05746487074
 20
3281.090311876557
 30
0.0
 40
162.2282833783085
 50
220.7910222989383
 51
240.8489791421545
210
0.0
220
0.0
230
-1.0
  0
ARC
  5
365
  8
LAYER_01
 10
-1413.291488273636
 20
3141.813783527199
 30
0.0
 40
162.2282833783097
 50
359.1510208578457
 51
19.20897770106166
210
0.0
220
0.0
230
-1.0
  0
LINE
  5
366
  8
LAYER_01
 10
1260.09529241337
 20
3195.189260122879
 30
0.0
 11
1262.929882156832
 21
3159.932898923954
 31
0.0
  0
LINE
  5
367
  8
LAYER_01
 10
1262.929882156832
 20
3159.932898923954
 30
0.0
 11
1294.880081471833
 21
3175.106252796271
 31
0.0
  0
ARC
  5
368
  8
LAYER_01
 10
-1413.291488273636
 20
3141.813783527199
 30
0.0
 40
162.2282833783097
 50
37.81464332525432
 51
60.84897914215404
210
0.0
220
0.0
230
-1.0
  0
ARC
  5
369
  8
LAYER_01
 10
-1172.05746487074
 20
3281.090311876557
 30
0.0
 40
162.2282833783085
 50
179.1510208578457
 51
202.1853566747456
210
0.0
220
0.0
230
-1.0
  0
LINE
  5
36A
  8
LAYER_01
 10
1322.275521365989
 20
3219.832239505129
 30
0.0
 11
1319.248672246443
 21
3257.479904779965
 31
0.0
  0
LINE
  5
36B
  8
LAYER_01
 10
1319.248672246443
 20
3257.479904779965
 30
0.0
 11
1285.131413165489
 21
3241.277400373496
 31
0.0
  0
LINE
  5
36C
  8
LAYER_01
 10
1392.983728130926
 20
3226.975082206478
 30
0.0
 11
1390.930009846523
 21
3201.431126929446
 31
0.0
  0
LINE
  5
36D
  8
LAYER_01
 10
1390.930009846523
 20
3201.431126929446
 30
0.0
 11
1414.078583171768
 21
3190.43772149744
 31
0.0
  0
LINE
  5
36E
  8
LAYER_01
 10
1414.078583171768
 20
3190.43772149744
 30
0.0
 11
1416.13230145617
 21
3215.981676774471
 31
0.0
  0
LINE
  5
36F
  8
LAYER_01
 10
1416.13230145617
 20
3215.981676774471
 30
0.0
 11
1392.983728130926
 21
3226.975082206478
 31
0.0
  0
ARC
  5
370
  8
LAYER_01
 10
1512.921880671735
 20
3067.042891119271
 30
0.0
 40
127.3750080761417
 50
86.27988164524908
 51
115.0583211168994
  0
ARC
  5
371
  8
LAYER_01
 10
-1281.328944579364
 20
3141.813783527208
 30
0.0
 40
182.228283378294
 50
167.121697657675
 51
182.1511246086076
210
0.0
220
0.0
230
-1.0
  0
ARC
  5
372
  8
LAYER_01
 10
1347.310216426543
 20
3306.083925038604
 30
0.0
 40
206.7902604333414
 50
304.1615598101178
 51
327.2281995253427
  0
ARC
  5
373
  8
LAYER_01
 10
-1512.921880671734
 20
3067.042891119273
 30
0.0
 40
147.3750080761396
 50
66.17126100307726
 51
80.80143049967987
210
0.0
220
0.0
230
-1.0
  0
LINE
  5
374
  8
LAYER_01
 10
1489.363021521056
 20
3212.522694394369
 30
0.0
 11
1468.392472095267
 21
3224.630046750403
 31
0.0
  0
ARC
  5
375
  8
LAYER_01
 10
1489.177037706062
 20
3131.173923653748
 30
0.0
 40
95.73946475663247
 50
102.5384694280014
 51
115.9922557924111
  0
ARC
  5
376
  8
LAYER_01
 10
-1281.328944579419
 20
3141.813783527223
 30
0.0
 40
182.2282833782388
 50
155.552842612028
 51
160.762492474747
210
0.0
220
0.0
230
-1.0
  0
ARC
  5
377
  8
LAYER_01
 10
1489.177037706138
 20
3131.173923653571
 30
0.0
 40
115.7394647568246
 50
112.4467100990062
 51
116.2690829161775
  0
ARC
  5
378
  8
LAYER_01
 10
1281.328944579253
 20
3141.813783527131
 30
0.0
 40
182.228283378429
 50
30.74070578544469
 51
35.07288948999345
  0
LINE
  5
379
  8
LAYER_01
 10
1430.468525998618
 20
3246.525447238036
 30
0.0
 11
1444.984934492631
 21
3238.144394886351
 31
0.0
  0
ARC
  5
37A
  8
LAYER_01
 10
-1637.131656470194
 20
3282.18053359894
 30
0.0
 40
127.3750080761417
 50
326.2798816452492
 51
355.0583211168994
210
0.0
220
0.0
230
-1.0
  0
ARC
  5
37B
  8
LAYER_01
 10
1456.581696135101
 20
3445.36045338799
 30
0.0
 40
182.228283378294
 50
287.1216976576749
 51
302.1511246086076
  0
ARC
  5
37C
  8
LAYER_01
 10
-1347.310216426557
 20
3306.083925038629
 30
0.0
 40
206.7902604333414
 50
184.161559810118
 51
207.2281995253427
210
0.0
220
0.0
230
-1.0
  0
ARC
  5
37D
  8
LAYER_01
 10
1637.131656470191
 20
3282.18053359894
 30
0.0
 40
147.3750080761396
 50
186.1712610030771
 51
200.8014304996798
  0
LINE
  5
37E
  8
LAYER_01
 10
1499.363021521057
 20
3229.843202470058
 30
0.0
 11
1478.392472095268
 21
3241.950554826092
 31
0.0
  0
ARC
  5
37F
  8
LAYER_01
 10
-1569.720131641573
 20
3270.678654548846
 30
0.0
 40
95.73946475663247
 50
342.5384694280016
 51
355.9922557924111
210
0.0
220
0.0
230
-1.0
  0
ARC
  5
380
  8
LAYER_01
 10
1456.581696135116
 20
3445.360453387936
 30
0.0
 40
182.2282833782388
 50
275.552842612028
 51
280.7624924747469
  0
ARC
  5
381
  8
LAYER_01
 10
-1569.720131641764
 20
3270.678654548869
 30
0.0
 40
115.7394647568246
 50
352.4467100990062
 51
356.2690829161776
210
0.0
220
0.0
230
-1.0
  0
ARC
  5
382
  8
LAYER_01
 10
-1456.581696135112
 20
3445.360453388125
 30
0.0
 40
182.228283378429
 50
270.7407057854448
 51
275.0728894899935
210
0.0
220
0.0
230
-1.0
  0
LINE
  5
383
  8
LAYER_01
 10
1440.468525998618
 20
3263.845955313725
 30
0.0
 11
1454.984934492631
 21
3255.46490296204
 31
0.0
  0
ARC
  5
384
  8
LAYER_01
 10
-1281.32894457935
 20
3141.813783527199
 30
0.0
 40
162.2282833783085
 50
160.7910222989384
 51
180.8489791421545
210
0.0
220
0.0
230
-1.0
  0
ARC
  5
385
  8
LAYER_01
 10
-1522.562967982245
 20
3281.090311876558
 30
0.0
 40
162.2282833783097
 50
299.1510208578457
 51
319.2089777010618
210
0.0
220
0.0
230
-1.0
  0
LINE
  5
386
  8
LAYER_01
 10
1399.740351381152
 20
3175.10625279627
 30
0.0
 11
1431.690550696152
 21
3159.932898923953
 31
0.0
  0
LINE
  5
387
  8
LAYER_01
 10
1431.690550696152
 20
3159.932898923953
 30
0.0
 11
1434.525140439615
 21
3195.189260122879
 31
0.0
  0
ARC
  5
388
  8
LAYER_01
 10
-1522.562967982245
 20
3281.090311876558
 30
0.0
 40
162.2282833783097
 50
337.8146433252544
 51
0.8489791421542073
210
0.0
220
0.0
230
-1.0
  0
ARC
  5
389
  8
LAYER_01
 10
-1281.32894457935
 20
3141.813783527199
 30
0.0
 40
162.2282833783085
 50
119.1510208578457
 51
142.1853566747456
210
0.0
220
0.0
230
-1.0
  0
LINE
  5
38A
  8
LAYER_01
 10
1409.489019687496
 20
3241.277400373496
 30
0.0
 11
1375.371760606542
 21
3257.479904779965
 31
0.0
  0
LINE
  5
38B
  8
LAYER_01
 10
1375.371760606542
 20
3257.479904779965
 30
0.0
 11
1372.344911486996
 21
3219.832239505129
 31
0.0
  0
LINE
  5
38C
  8
LAYER_01
 10
1438.65723983536
 20
3306.083925038649
 30
0.0
 11
1459.752094876202
 21
3291.533375193624
 31
0.0
  0
LINE
  5
38D
  8
LAYER_01
 10
1459.752094876202
 20
3291.533375193624
 30
0.0
 11
1480.846949917044
 21
3306.083925038649
 31
0.0
  0
LINE
  5
38E
  8
LAYER_01
 10
1480.846949917044
 20
3306.083925038649
 30
0.0
 11
1459.752094876202
 21
3320.634474883675
 31
0.0
  0
LINE
  5
38F
  8
LAYER_01
 10
1459.752094876202
 20
3320.634474883675
 30
0.0
 11
1438.65723983536
 21
3306.083925038649
 31
0.0
  0
ARC
  5
390
  8
LAYER_01
 10
1637.131656470193
 20
3329.987316478359
 30
0.0
 40
127.3750080761417
 50
146.2798816452492
 51
175.0583211168995
  0
ARC
  5
391
  8
LAYER_01
 10
-1456.581696135101
 20
3166.807396689309
 30
0.0
 40
182.228283378294
 50
107.121697657675
 51
122.1511246086076
210
0.0
220
0.0
230
-1.0
  0
ARC
  5
392
  8
LAYER_01
 10
1347.310216426557
 20
3306.08392503867
 30
0.0
 40
206.7902604333414
 50
4.161559810117957
 51
27.22819952534267
  0
ARC
  5
393
  8
LAYER_01
 10
-1637.131656470191
 20
3329.98731647836
 30
0.0
 40
147.3750080761396
 50
6.171261003077155
 51
20.80143049967984
210
0.0
220
0.0
230
-1.0
  0
LINE
  5
394
  8
LAYER_01
 10
1499.363021521056
 20
3382.324647607241
 30
0.0
 11
1478.392472095267
 21
3370.217295251208
 31
0.0
  0
ARC
  5
395
  8
LAYER_01
 10
1569.720131641573
 20
3341.489195528453
 30
0.0
 40
95.73946475663247
 50
162.5384694280016
 51
175.9922557924111
  0
ARC
  5
396
  8
LAYER_01
 10
-1456.581696135116
 20
3166.807396689363
 30
0.0
 40
182.2282833782388
 50
95.55284261202799
 51
100.7624924747469
210
0.0
220
0.0
230
-1.0
  0
ARC
  5
397
  8
LAYER_01
 10
1569.720131641764
 20
3341.48919552843
 30
0.0
 40
115.7394647568246
 50
172.4467100990062
 51
176.2690829161776
  0
ARC
  5
398
  8
LAYER_01
 10
1456.581696135112
 20
3166.807396689174
 30
0.0
 40
182.228283378429
 50
90.74070578544482
 51
95.07288948999351
  0
LINE
  5
399
  8
LAYER_01
 10
1440.468525998618
 20
3348.321894763574
 30
0.0
 11
1454.984934492631
 21
3356.702947115259
 31
0.0
  0
ARC
  5
39A
  8
LAYER_01
 10
-1512.921880671735
 20
3545.124958958029
 30
0.0
 40
127.3750080761417
 50
266.2798816452491
 51
295.0583211168994
210
0.0
220
0.0
230
-1.0
  0
ARC
  5
39B
  8
LAYER_01
 10
1281.328944579364
 20
3470.354066550091
 30
0.0
 40
182.228283378294
 50
347.1216976576749
 51
2.151124608607565
  0
ARC
  5
39C
  8
LAYER_01
 10
-1347.310216426543
 20
3306.083925038696
 30
0.0
 40
206.7902604333414
 50
124.1615598101179
 51
147.2281995253427
210
0.0
220
0.0
230
-1.0
  0
ARC
  5
39D
  8
LAYER_01
 10
1512.921880671734
 20
3545.124958958026
 30
0.0
 40
147.3750080761396
 50
246.1712610030772
 51
260.8014304996797
  0
LINE
  5
39E
  8
LAYER_01
 10
1489.363021521056
 20
3399.64515568293
 30
0.0
 11
1468.392472095267
 21
3387.537803326896
 31
0.0
  0
ARC
  5
39F
  8
LAYER_01
 10
-1489.177037706062
 20
3480.993926423551
 30
0.0
 40
95.73946475663247
 50
282.5384694280015
 51
295.9922557924111
210
0.0
220
0.0
230
-1.0
  0
ARC
  5
3A0
  8
LAYER_01
 10
1281.328944579418
 20
3470.354066550076
 30
0.0
 40
182.2282833782388
 50
335.552842612028
 51
340.762492474747
  0
ARC
  5
3A1
  8
LAYER_01
 10
-1489.177037706138
 20
3480.993926423728
 30
0.0
 40
115.7394647568246
 50
292.4467100990063
 51
296.2690829161775
210
0.0
220
0.0
230
-1.0
  0
ARC
  5
3A2
  8
LAYER_01
 10
-1281.328944579253
 20
3470.354066550168
 30
0.0
 40
182.228283378429
 50
210.7407057854448
 51
215.0728894899935
210
0.0
220
0.0
230
-1.0
  0
LINE
  5
3A3
  8
LAYER_01
 10
1430.468525998618
 20
3365.642402839263
 30
0.0
 11
1444.984934492631
 21
3374.023455190948
 31
0.0
  0
ARC
  5
3A4
  8
LAYER_01
 10
-1456.581696135102
 20
3166.807396689292
 30
0.0
 40
162.2282833783085
 50
100.7910222989383
 51
120.8489791421545
210
0.0
220
0.0
230
-1.0
  0
ARC
  5
3A5
  8
LAYER_01
 10
-1456.581696135101
 20
3445.360453388009
 30
0.0
 40
162.2282833783097
 50
239.1510208578455
 51
259.2089777010617
210
0.0
220
0.0
230
-1.0
  0
LINE
  5
3A6
  8
LAYER_01
 10
1486.955275394274
 20
3286.000917712041
 30
0.0
 11
1516.070884965812
 21
3306.083925038649
 31
0.0
  0
LINE
  5
3A7
  8
LAYER_01
 10
1516.070884965812
 20
3306.083925038649
 30
0.0
 11
1486.955275394274
 21
3326.166932365258
 31
0.0
  0
ARC
  5
3A8
  8
LAYER_01
 10
-1456.581696135101
 20
3445.360453388009
 30
0.0
 40
162.2282833783097
 50
277.8146433252543
 51
300.848979142154
210
0.0
220
0.0
230
-1.0
  0
ARC
  5
3A9
  8
LAYER_01
 10
-1456.581696135102
 20
3166.807396689292
 30
0.0
 40
162.2282833783085
 50
59.15102085784561
 51
82.18535667474558
210
0.0
220
0.0
230
-1.0
  0
LINE
  5
3AA
  8
LAYER_01
 10
1434.523714748
 20
3327.529085907017
 30
0.0
 11
1403.433304786592
 21
3306.08392503865
 31
0.0
  0
LINE
  5
3AB
  8
LAYER_01
 10
1403.433304786592
 20
3306.08392503865
 30
0.0
 11
1434.523714748
 21
3284.638764170282
 31
0.0
  0
ARC
  5
3AC
  8
LAYER_01
 10
-1071.525142660179
 20
3711.708266246144
 30
0.0
 40
162.2282833783097
 50
277.8146433252543
 51
300.848979142154
210
0.0
220
0.0
230
-1.0
  0
ARC
  5
3AD
  8
LAYER_01
 10
-1071.52514266018
 20
3433.155209547427
 30
0.0
 40
162.2282833783085
 50
59.15102085784561
 51
82.18535667474558
210
0.0
220
0.0
230
-1.0
  0
LINE
  5
3AE
  8
LAYER_01
 10
1049.467161273078
 20
3593.876898765152
 30
0.0
 11
1018.37675131167
 21
3572.431737896785
 31
0.0
  0
LINE
  5
3AF
  8
LAYER_01
 10
1018.37675131167
 20
3572.431737896785
 30
0.0
 11
1049.467161273078
 21
3550.986577028418
 31
0.0
  0
ARC
  5
3B0
  8
LAYER_01
 10
-1071.52514266018
 20
3433.155209547427
 30
0.0
 40
162.2282833783085
 50
100.7910222989384
 51
120.8489791421545
210
0.0
220
0.0
230
-1.0
  0
ARC
  5
3B1
  8
LAYER_01
 10
-1071.525142660179
 20
3711.708266246144
 30
0.0
 40
162.2282833783097
 50
239.1510208578455
 51
259.2089777010617
210
0.0
220
0.0
230
-1.0
  0
LINE
  5
3B2
  8
LAYER_01
 10
1101.898721919352
 20
3552.348730570177
 30
0.0
 11
1131.01433149089
 21
3572.431737896785
 31
0.0
  0
LINE
  5
3B3
  8
LAYER_01
 10
1131.01433149089
 20
3572.431737896785
 30
0.0
 11
1101.898721919352
 21
3592.514745223393
 31
0.0
  0
ARC
  5
3B4
  8
LAYER_01
 10
-1104.120484231216
 20
3747.341739281864
 30
0.0
 40
115.7394647568246
 50
292.4467100990063
 51
296.2690829161775
210
0.0
220
0.0
230
-1.0
  0
ARC
  5
3B5
  8
LAYER_01
 10
-896.2723911043308
 20
3736.701879408304
 30
0.0
 40
182.228283378429
 50
210.7407057854448
 51
215.0728894899935
210
0.0
220
0.0
230
-1.0
  0
LINE
  5
3B6
  8
LAYER_01
 10
1045.411972523696
 20
3631.990215697399
 30
0.0
 11
1059.928381017709
 21
3640.371268049084
 31
0.0
  0
ARC
  5
3B7
  8
LAYER_01
 10
1127.865327196812
 20
3811.472771816162
 30
0.0
 40
147.3750080761396
 50
246.1712610030772
 51
260.8014304996797
  0
LINE
  5
3B8
  8
LAYER_01
 10
1104.306468046134
 20
3665.992968541065
 30
0.0
 11
1083.335918620345
 21
3653.885616185032
 31
0.0
  0
ARC
  5
3B9
  8
LAYER_01
 10
-1104.12048423114
 20
3747.341739281687
 30
0.0
 40
95.73946475663247
 50
282.5384694280015
 51
295.9922557924111
210
0.0
220
0.0
230
-1.0
  0
ARC
  5
3BA
  8
LAYER_01
 10
896.2723911044959
 20
3736.701879408212
 30
0.0
 40
182.2282833782388
 50
335.552842612028
 51
340.762492474747
  0
ARC
  5
3BB
  8
LAYER_01
 10
-1127.865327196813
 20
3811.472771816164
 30
0.0
 40
127.3750080761417
 50
266.2798816452491
 51
295.0583211168994
210
0.0
220
0.0
230
-1.0
  0
ARC
  5
3BC
  8
LAYER_01
 10
896.2723911044422
 20
3736.701879408227
 30
0.0
 40
182.228283378294
 50
347.1216976576749
 51
2.151124608607565
  0
ARC
  5
3BD
  8
LAYER_01
 10
-962.2536629516208
 20
3572.431737896831
 30
0.0
 40
206.7902604333414
 50
124.1615598101179
 51
147.2281995253427
210
0.0
220
0.0
230
-1.0
  0
ARC
  5
3BE
  8
LAYER_01
 10
1184.663578166843
 20
3607.837008386566
 30
0.0
 40
115.7394647568246
 50
172.4467100990062
 51
176.2690829161776
  0
ARC
  5
3BF
  8
LAYER_01
 10
1071.52514266019
 20
3433.15520954731
 30
0.0
 40
182.228283378429
 50
90.74070578544482
 51
95.07288948999351
  0
LINE
  5
3C0
  8
LAYER_01
 10
1055.411972523696
 20
3614.66970762171
 30
0.0
 11
1069.928381017709
 21
3623.050759973394
 31
0.0
  0
ARC
  5
3C1
  8
LAYER_01
 10
-1252.075102995269
 20
3596.335129336495
 30
0.0
 40
147.3750080761396
 50
6.171261003077146
 51
20.80143049967984
210
0.0
220
0.0
230
-1.0
  0
LINE
  5
3C2
  8
LAYER_01
 10
1114.306468046134
 20
3648.672460465377
 30
0.0
 11
1093.335918620345
 21
3636.565108109343
 31
0.0
  0
ARC
  5
3C3
  8
LAYER_01
 10
1184.663578166652
 20
3607.837008386589
 30
0.0
 40
95.73946475663247
 50
162.5384694280016
 51
175.9922557924111
  0
ARC
  5
3C4
  8
LAYER_01
 10
-1071.525142660194
 20
3433.155209547499
 30
0.0
 40
182.2282833782388
 50
95.55284261202799
 51
100.7624924747469
210
0.0
220
0.0
230
-1.0
  0
ARC
  5
3C5
  8
LAYER_01
 10
1252.075102995271
 20
3596.335129336495
 30
0.0
 40
127.3750080761417
 50
146.2798816452492
 51
175.0583211168995
  0
ARC
  5
3C6
  8
LAYER_01
 10
-1071.525142660179
 20
3433.155209547444
 30
0.0
 40
182.228283378294
 50
107.1216976576749
 51
122.1511246086076
210
0.0
220
0.0
230
-1.0
  0
ARC
  5
3C7
  8
LAYER_01
 10
962.2536629516353
 20
3572.431737896806
 30
0.0
 40
206.7902604333414
 50
4.161559810117957
 51
27.22819952534267
  0
LINE
  5
3C8
  8
LAYER_01
 10
1053.600686360438
 20
3572.431737896785
 30
0.0
 11
1074.69554140128
 21
3557.881188051759
 31
0.0
  0
LINE
  5
3C9
  8
LAYER_01
 10
1074.69554140128
 20
3557.881188051759
 30
0.0
 11
1095.790396442122
 21
3572.431737896785
 31
0.0
  0
LINE
  5
3CA
  8
LAYER_01
 10
1095.790396442122
 20
3572.431737896785
 30
0.0
 11
1074.69554140128
 21
3586.98228774181
 31
0.0
  0
LINE
  5
3CB
  8
LAYER_01
 10
1074.69554140128
 20
3586.98228774181
 30
0.0
 11
1053.600686360438
 21
3572.431737896785
 31
0.0
  0
ARC
  5
3CC
  8
LAYER_01
 10
-1137.506414507323
 20
3547.438124734693
 30
0.0
 40
162.2282833783097
 50
337.8146433252544
 51
0.8489791421542079
210
0.0
220
0.0
230
-1.0
  0
ARC
  5
3CD
  8
LAYER_01
 10
-896.2723911044277
 20
3408.161596385335
 30
0.0
 40
162.2282833783085
 50
119.1510208578457
 51
142.1853566747456
210
0.0
220
0.0
230
-1.0
  0
LINE
  5
3CE
  8
LAYER_01
 10
1024.432466212574
 20
3507.625213231632
 30
0.0
 11
990.3152071316204
 21
3523.8277176381
 31
0.0
  0
LINE
  5
3CF
  8
LAYER_01
 10
990.3152071316204
 20
3523.8277176381
 30
0.0
 11
987.2883580120738
 21
3486.180052363264
 31
0.0
  0
ARC
  5
3D0
  8
LAYER_01
 10
-896.2723911044277
 20
3408.161596385335
 30
0.0
 40
162.2282833783085
 50
160.7910222989384
 51
180.8489791421545
210
0.0
220
0.0
230
-1.0
  0
ARC
  5
3D1
  8
LAYER_01
 10
-1137.506414507323
 20
3547.438124734693
 30
0.0
 40
162.2282833783097
 50
299.1510208578457
 51
319.2089777010617
210
0.0
220
0.0
230
-1.0
  0
LINE
  5
3D2
  8
LAYER_01
 10
1014.68379790623
 20
3441.454065654406
 30
0.0
 11
1046.63399722123
 21
3426.280711782089
 31
0.0
  0
LINE
  5
3D3
  8
LAYER_01
 10
1046.63399722123
 20
3426.280711782089
 30
0.0
 11
1049.468586964693
 21
3461.537072981015
 31
0.0
  0
ARC
  5
3D4
  8
LAYER_01
 10
-1184.663578166843
 20
3537.026467407004
 30
0.0
 40
115.7394647568246
 50
352.4467100990062
 51
356.2690829161776
210
0.0
220
0.0
230
-1.0
  0
ARC
  5
3D5
  8
LAYER_01
 10
-1071.52514266019
 20
3711.708266246261
 30
0.0
 40
182.228283378429
 50
270.7407057854448
 51
275.0728894899935
210
0.0
220
0.0
230
-1.0
  0
LINE
  5
3D6
  8
LAYER_01
 10
1055.411972523696
 20
3530.19376817186
 30
0.0
 11
1069.928381017709
 21
3521.812715820176
 31
0.0
  0
ARC
  5
3D7
  8
LAYER_01
 10
1252.07510299527
 20
3548.528346457075
 30
0.0
 40
147.3750080761396
 50
186.1712610030771
 51
200.8014304996798
  0
LINE
  5
3D8
  8
LAYER_01
 10
1114.306468046135
 20
3496.191015328194
 30
0.0
 11
1093.335918620346
 21
3508.298367684227
 31
0.0
  0
ARC
  5
3D9
  8
LAYER_01
 10
-1184.663578166652
 20
3537.026467406982
 30
0.0
 40
95.73946475663247
 50
342.5384694280016
 51
355.9922557924111
210
0.0
220
0.0
230
-1.0
  0
ARC
  5
3DA
  8
LAYER_01
 10
1071.525142660194
 20
3711.708266246071
 30
0.0
 40
182.2282833782388
 50
275.552842612028
 51
280.7624924747469
  0
ARC
  5
3DB
  8
LAYER_01
 10
-1252.075102995272
 20
3548.528346457076
 30
0.0
 40
127.3750080761417
 50
326.2798816452492
 51
355.0583211168994
210
0.0
220
0.0
230
-1.0
  0
ARC
  5
3DC
  8
LAYER_01
 10
1071.525142660179
 20
3711.708266246126
 30
0.0
 40
182.228283378294
 50
287.1216976576749
 51
302.1511246086076
  0
ARC
  5
3DD
  8
LAYER_01
 10
-962.2536629516353
 20
3572.431737896765
 30
0.0
 40
206.7902604333414
 50
184.161559810118
 51
207.2281995253427
210
0.0
220
0.0
230
-1.0
  0
ARC
  5
3DE
  8
LAYER_01
 10
1104.120484231216
 20
3397.521736511707
 30
0.0
 40
115.7394647568246
 50
112.4467100990062
 51
116.2690829161775
  0
ARC
  5
3DF
  8
LAYER_01
 10
896.2723911043313
 20
3408.161596385267
 30
0.0
 40
182.228283378429
 50
30.74070578544469
 51
35.07288948999341
  0
LINE
  5
3E0
  8
LAYER_01
 10
1045.411972523696
 20
3512.873260096171
 30
0.0
 11
1059.928381017709
 21
3504.492207744486
 31
0.0
  0
ARC
  5
3E1
  8
LAYER_01
 10
-1127.865327196812
 20
3333.390703977408
 30
0.0
 40
147.3750080761396
 50
66.17126100307726
 51
80.80143049967977
210
0.0
220
0.0
230
-1.0
  0
LINE
  5
3E2
  8
LAYER_01
 10
1104.306468046134
 20
3478.870507252505
 30
0.0
 11
1083.335918620345
 21
3490.977859608538
 31
0.0
  0
ARC
  5
3E3
  8
LAYER_01
 10
1104.12048423114
 20
3397.521736511884
 30
0.0
 40
95.73946475663247
 50
102.5384694280014
 51
115.9922557924111
  0
ARC
  5
3E4
  8
LAYER_01
 10
-896.2723911044968
 20
3408.161596385359
 30
0.0
 40
182.2282833782388
 50
155.552842612028
 51
160.7624924747469
210
0.0
220
0.0
230
-1.0
  0
ARC
  5
3E5
  8
LAYER_01
 10
1127.865327196813
 20
3333.390703977406
 30
0.0
 40
127.3750080761417
 50
86.27988164524908
 51
115.0583211168994
  0
ARC
  5
3E6
  8
LAYER_01
 10
-896.2723911044422
 20
3408.161596385344
 30
0.0
 40
182.228283378294
 50
167.121697657675
 51
182.1511246086076
210
0.0
220
0.0
230
-1.0
  0
ARC
  5
3E7
  8
LAYER_01
 10
962.2536629516208
 20
3572.431737896739
 30
0.0
 40
206.7902604333414
 50
304.1615598101178
 51
327.2281995253427
  0
LINE
  5
3E8
  8
LAYER_01
 10
1007.927174656004
 20
3493.322895064614
 30
0.0
 11
1005.873456371601
 21
3467.778939787582
 31
0.0
  0
LINE
  5
3E9
  8
LAYER_01
 10
1005.873456371601
 20
3467.778939787582
 30
0.0
 11
1029.022029696846
 21
3456.785534355575
 31
0.0
  0
LINE
  5
3EA
  8
LAYER_01
 10
1029.022029696846
 20
3456.785534355575
 30
0.0
 11
1031.075747981248
 21
3482.329489632607
 31
0.0
  0
LINE
  5
3EB
  8
LAYER_01
 10
1031.075747981248
 20
3482.329489632607
 30
0.0
 11
1007.927174656004
 21
3493.322895064614
 31
0.0
  0
ARC
  5
3EC
  8
LAYER_01
 10
-1028.234934798715
 20
3408.161596385334
 30
0.0
 40
162.2282833783097
 50
37.81464332525429
 51
60.84897914215399
210
0.0
220
0.0
230
-1.0
  0
ARC
  5
3ED
  8
LAYER_01
 10
-787.0009113958183
 20
3547.438124734693
 30
0.0
 40
162.2282833783085
 50
179.1510208578457
 51
202.1853566747456
210
0.0
220
0.0
230
-1.0
  0
LINE
  5
3EE
  8
LAYER_01
 10
937.2189678910667
 20
3486.180052363264
 30
0.0
 11
934.1921187715209
 21
3523.8277176381
 31
0.0
  0
LINE
  5
3EF
  8
LAYER_01
 10
934.1921187715209
 20
3523.8277176381
 30
0.0
 11
900.0748596905667
 21
3507.625213231632
 31
0.0
  0
ARC
  5
3F0
  8
LAYER_01
 10
-787.0009113958183
 20
3547.438124734693
 30
0.0
 40
162.2282833783085
 50
220.7910222989383
 51
240.8489791421545
210
0.0
220
0.0
230
-1.0
  0
ARC
  5
3F1
  8
LAYER_01
 10
-1028.234934798715
 20
3408.161596385334
 30
0.0
 40
162.2282833783097
 50
359.1510208578457
 51
19.20897770106165
210
0.0
220
0.0
230
-1.0
  0
LINE
  5
3F2
  8
LAYER_01
 10
875.0387389384475
 20
3461.537072981014
 30
0.0
 11
877.8733286819102
 21
3426.280711782089
 31
0.0
  0
LINE
  5
3F3
  8
LAYER_01
 10
877.8733286819102
 20
3426.280711782089
 30
0.0
 11
909.8235279969115
 21
3441.454065654406
 31
0.0
  0
ARC
  5
3F4
  8
LAYER_01
 10
-1042.796756887197
 20
3362.116466021926
 30
0.0
 40
115.7394647568246
 50
52.44671009900627
 51
56.26908291617747
210
0.0
220
0.0
230
-1.0
  0
ARC
  5
3F5
  8
LAYER_01
 10
-1137.50641450743
 20
3547.438124734742
 30
0.0
 40
182.228283378429
 50
330.7407057854448
 51
335.0728894899935
210
0.0
220
0.0
230
-1.0
  0
LINE
  5
3F6
  8
LAYER_01
 10
972.2536629515705
 20
3470.635290371247
 30
0.0
 11
972.2536629515708
 21
3453.873185667877
 31
0.0
  0
ARC
  5
3F7
  8
LAYER_01
 10
1086.463438750028
 20
3309.487312537698
 30
0.0
 40
147.3750080761396
 50
126.1712610030772
 51
140.8014304996798
  0
LINE
  5
3F8
  8
LAYER_01
 10
972.2536629515707
 20
3402.629784683913
 30
0.0
 11
972.2536629515707
 21
3426.84448939598
 31
0.0
  0
ARC
  5
3F9
  8
LAYER_01
 10
-1042.796756887082
 20
3362.11646602208
 30
0.0
 40
95.73946475663247
 50
42.53846942800144
 51
55.99225579241099
210
0.0
220
0.0
230
-1.0
  0
ARC
  5
3FA
  8
LAYER_01
 10
1137.506414507268
 20
3547.438124734645
 30
0.0
 40
182.2282833782388
 50
215.552842612028
 51
220.7624924747469
  0
ARC
  5
3FB
  8
LAYER_01
 10
-1086.463438750029
 20
3309.487312537697
 30
0.0
 40
127.3750080761417
 50
26.27988164524911
 51
55.05832111689939
210
0.0
220
0.0
230
-1.0
  0
ARC
  5
3FC
  8
LAYER_01
 10
1137.506414507308
 20
3547.438124734684
 30
0.0
 40
182.228283378294
 50
227.121697657675
 51
242.1511246086076
  0
ARC
  5
3FD
  8
LAYER_01
 10
-962.2536629515852
 20
3572.431737896719
 30
0.0
 40
206.7902604333414
 50
244.1615598101179
 51
267.2281995253426
210
0.0
220
0.0
230
-1.0
  0
ARC
  5
3FE
  8
LAYER_01
 10
881.7105690159442
 20
3362.116466021926
 30
0.0
 40
115.7394647568246
 50
52.44671009900627
 51
56.26908291617747
  0
ARC
  5
3FF
  8
LAYER_01
 10
787.0009113957112
 20
3547.438124734742
 30
0.0
 40
182.228283378429
 50
330.7407057854448
 51
335.0728894899935
  0
LINE
  5
400
  8
LAYER_01
 10
952.2536629515705
 20
3470.635290371247
 30
0.0
 11
952.2536629515702
 21
3453.873185667877
 31
0.0
  0
ARC
  5
401
  8
LAYER_01
 10
-838.0438871531135
 20
3309.487312537698
 30
0.0
 40
147.3750080761396
 50
126.1712610030772
 51
140.8014304996798
210
0.0
220
0.0
230
-1.0
  0
LINE
  5
402
  8
LAYER_01
 10
952.2536629515703
 20
3402.629784683913
 30
0.0
 11
952.2536629515703
 21
3426.84448939598
 31
0.0
  0
ARC
  5
403
  8
LAYER_01
 10
881.7105690160595
 20
3362.11646602208
 30
0.0
 40
95.73946475663247
 50
42.53846942800144
 51
55.99225579241099
  0
ARC
  5
404
  8
LAYER_01
 10
-787.0009113958733
 20
3547.438124734645
 30
0.0
 40
182.2282833782388
 50
215.552842612028
 51
220.7624924747469
210
0.0
220
0.0
230
-1.0
  0
ARC
  5
405
  8
LAYER_01
 10
838.0438871531119
 20
3309.487312537697
 30
0.0
 40
127.3750080761417
 50
26.27988164524911
 51
55.05832111689939
  0
ARC
  5
406
  8
LAYER_01
 10
-787.0009113958333
 20
3547.438124734684
 30
0.0
 40
182.228283378294
 50
227.121697657675
 51
242.1511246086076
210
0.0
220
0.0
230
-1.0
  0
ARC
  5
407
  8
LAYER_01
 10
962.2536629515558
 20
3572.431737896719
 30
0.0
 40
206.7902604333414
 50
244.1615598101179
 51
267.2281995253426
  0
LINE
  5
408
  8
LAYER_01
 10
916.5801512471364
 20
3493.322895064614
 30
0.0
 11
893.4315779218916
 21
3482.329489632608
 31
0.0
  0
LINE
  5
409
  8
LAYER_01
 10
893.4315779218916
 20
3482.329489632608
 30
0.0
 11
895.4852962062944
 21
3456.785534355575
 31
0.0
  0
LINE
  5
40A
  8
LAYER_01
 10
895.4852962062944
 20
3456.785534355575
 30
0.0
 11
918.633869531539
 21
3467.778939787582
 31
0.0
  0
LINE
  5
40B
  8
LAYER_01
 10
918.633869531539
 20
3467.778939787582
 30
0.0
 11
916.5801512471364
 21
3493.322895064614
 31
0.0
  0
ARC
  5
40C
  8
LAYER_01
 10
-852.9821832429611
 20
3433.155209547426
 30
0.0
 40
162.2282833783097
 50
97.81464332525427
 51
120.848979142154
210
0.0
220
0.0
230
-1.0
  0
ARC
  5
40D
  8
LAYER_01
 10
-852.9821832429611
 20
3711.708266246143
 30
0.0
 40
162.2282833783085
 50
239.1510208578455
 51
262.1853566747456
210
0.0
220
0.0
230
-1.0
  0
LINE
  5
40E
  8
LAYER_01
 10
875.0401646300625
 20
3550.986577028418
 30
0.0
 11
906.130574591471
 21
3572.431737896785
 31
0.0
  0
LINE
  5
40F
  8
LAYER_01
 10
906.130574591471
 20
3572.431737896785
 30
0.0
 11
875.0401646300629
 21
3593.876898765153
 31
0.0
  0
ARC
  5
410
  8
LAYER_01
 10
-852.9821832429611
 20
3711.708266246143
 30
0.0
 40
162.2282833783085
 50
280.7910222989383
 51
300.8489791421546
210
0.0
220
0.0
230
-1.0
  0
ARC
  5
411
  8
LAYER_01
 10
-852.9821832429611
 20
3433.155209547426
 30
0.0
 40
162.2282833783097
 50
59.15102085784559
 51
79.2089777010617
210
0.0
220
0.0
230
-1.0
  0
LINE
  5
412
  8
LAYER_01
 10
822.6086039837883
 20
3592.514745223393
 30
0.0
 11
793.4929944122505
 21
3572.431737896786
 31
0.0
  0
LINE
  5
413
  8
LAYER_01
 10
793.4929944122505
 20
3572.431737896786
 30
0.0
 11
822.6086039837883
 21
3552.348730570177
 31
0.0
  0
ARC
  5
414
  8
LAYER_01
 10
-820.3868416719242
 20
3397.521736511707
 30
0.0
 40
115.7394647568246
 50
112.4467100990063
 51
116.2690829161775
210
0.0
220
0.0
230
-1.0
  0
ARC
  5
415
  8
LAYER_01
 10
-1028.234934798809
 20
3408.161596385267
 30
0.0
 40
182.228283378429
 50
30.74070578544483
 51
35.07288948999356
210
0.0
220
0.0
230
-1.0
  0
LINE
  5
416
  8
LAYER_01
 10
879.095353379445
 20
3512.873260096172
 30
0.0
 11
864.5789448854316
 21
3504.492207744486
 31
0.0
  0
ARC
  5
417
  8
LAYER_01
 10
796.6419987063282
 20
3333.390703977408
 30
0.0
 40
147.3750080761396
 50
66.17126100307718
 51
80.80143049967973
  0
LINE
  5
418
  8
LAYER_01
 10
820.2008578570067
 20
3478.870507252505
 30
0.0
 11
841.1714072827954
 21
3490.977859608538
 31
0.0
  0
ARC
  5
419
  8
LAYER_01
 10
-820.3868416720002
 20
3397.521736511884
 30
0.0
 40
95.73946475663247
 50
102.5384694280014
 51
115.992255792411
210
0.0
220
0.0
230
-1.0
  0
ARC
  5
41A
  8
LAYER_01
 10
1028.234934798644
 20
3408.161596385359
 30
0.0
 40
182.2282833782388
 50
155.552842612028
 51
160.7624924747469
  0
ARC
  5
41B
  8
LAYER_01
 10
-796.6419987063277
 20
3333.390703977406
 30
0.0
 40
127.3750080761417
 50
86.27988164524913
 51
115.0583211168994
210
0.0
220
0.0
230
-1.0
  0
ARC
  5
41C
  8
LAYER_01
 10
1028.234934798698
 20
3408.161596385344
 30
0.0
 40
182.228283378294
 50
167.121697657675
 51
182.1511246086076
  0
ARC
  5
41D
  8
LAYER_01
 10
-962.2536629515203
 20
3572.431737896739
 30
0.0
 40
206.7902604333414
 50
304.1615598101179
 51
327.2281995253427
210
0.0
220
0.0
230
-1.0
  0
ARC
  5
41E
  8
LAYER_01
 10
739.8437477362982
 20
3537.026467407004
 30
0.0
 40
115.7394647568246
 50
352.4467100990062
 51
356.2690829161776
  0
ARC
  5
41F
  8
LAYER_01
 10
852.9821832429502
 20
3711.708266246261
 30
0.0
 40
182.228283378429
 50
270.7407057854448
 51
275.0728894899934
  0
LINE
  5
420
  8
LAYER_01
 10
869.095353379445
 20
3530.19376817186
 30
0.0
 11
854.5789448854312
 21
3521.812715820176
 31
0.0
  0
ARC
  5
421
  8
LAYER_01
 10
-672.4322229078712
 20
3548.528346457075
 30
0.0
 40
147.3750080761396
 50
186.1712610030771
 51
200.8014304996798
210
0.0
220
0.0
230
-1.0
  0
LINE
  5
422
  8
LAYER_01
 10
810.2008578570067
 20
3496.191015328194
 30
0.0
 11
831.1714072827954
 21
3508.298367684227
 31
0.0
  0
ARC
  5
423
  8
LAYER_01
 10
739.8437477364891
 20
3537.026467406982
 30
0.0
 40
95.73946475663247
 50
342.5384694280013
 51
355.9922557924111
  0
ARC
  5
424
  8
LAYER_01
 10
-852.982183242947
 20
3711.708266246071
 30
0.0
 40
182.2282833782388
 50
275.552842612028
 51
280.762492474747
210
0.0
220
0.0
230
-1.0
  0
ARC
  5
425
  8
LAYER_01
 10
672.4322229078689
 20
3548.528346457076
 30
0.0
 40
127.3750080761417
 50
326.2798816452491
 51
355.0583211168994
  0
ARC
  5
426
  8
LAYER_01
 10
-852.9821832429611
 20
3711.708266246126
 30
0.0
 40
182.228283378294
 50
287.1216976576749
 51
302.1511246086076
210
0.0
220
0.0
230
-1.0
  0
ARC
  5
427
  8
LAYER_01
 10
962.2536629515057
 20
3572.431737896765
 30
0.0
 40
206.7902604333414
 50
184.1615598101178
 51
207.2281995253427
  0
LINE
  5
428
  8
LAYER_01
 10
870.9066395427026
 20
3572.431737896786
 30
0.0
 11
849.8117845018605
 21
3586.982287741811
 31
0.0
  0
LINE
  5
429
  8
LAYER_01
 10
849.8117845018605
 20
3586.982287741811
 30
0.0
 11
828.7169294610185
 21
3572.431737896786
 31
0.0
  0
LINE
  5
42A
  8
LAYER_01
 10
828.7169294610185
 20
3572.431737896786
 30
0.0
 11
849.8117845018605
 21
3557.88118805176
 31
0.0
  0
LINE
  5
42B
  8
LAYER_01
 10
849.8117845018605
 20
3557.88118805176
 30
0.0
 11
870.9066395427026
 21
3572.431737896786
 31
0.0
  0
ARC
  5
42C
  8
LAYER_01
 10
-787.0009113958172
 20
3597.425351058877
 30
0.0
 40
162.2282833783097
 50
157.8146433252543
 51
180.848979142154
210
0.0
220
0.0
230
-1.0
  0
ARC
  5
42D
  8
LAYER_01
 10
-1028.234934798713
 20
3736.701879408235
 30
0.0
 40
162.2282833783085
 50
299.1510208578457
 51
322.1853566747455
210
0.0
220
0.0
230
-1.0
  0
LINE
  5
42E
  8
LAYER_01
 10
900.0748596905664
 20
3637.238262561939
 30
0.0
 11
934.1921187715207
 21
3621.03575815547
 31
0.0
  0
LINE
  5
42F
  8
LAYER_01
 10
934.1921187715207
 20
3621.03575815547
 30
0.0
 11
937.2189678910668
 21
3658.683423430305
 31
0.0
  0
ARC
  5
430
  8
LAYER_01
 10
-1028.234934798713
 20
3736.701879408235
 30
0.0
 40
162.2282833783085
 50
340.7910222989383
 51
0.8489791421545347
210
0.0
220
0.0
230
-1.0
  0
ARC
  5
431
  8
LAYER_01
 10
-787.0009113958172
 20
3597.425351058877
 30
0.0
 40
162.2282833783097
 50
119.1510208578457
 51
139.2089777010618
210
0.0
220
0.0
230
-1.0
  0
LINE
  5
432
  8
LAYER_01
 10
909.8235279969113
 20
3703.409410139165
 30
0.0
 11
877.8733286819106
 21
3718.582764011481
 31
0.0
  0
LINE
  5
433
  8
LAYER_01
 10
877.8733286819106
 20
3718.582764011481
 30
0.0
 11
875.0387389384478
 21
3683.326402812556
 31
0.0
  0
ARC
  5
434
  8
LAYER_01
 10
-739.8437477362982
 20
3607.837008386566
 30
0.0
 40
115.7394647568246
 50
172.4467100990062
 51
176.2690829161776
210
0.0
220
0.0
230
-1.0
  0
ARC
  5
435
  8
LAYER_01
 10
-852.9821832429502
 20
3433.15520954731
 30
0.0
 40
182.228283378429
 50
90.74070578544476
 51
95.07288948999351
210
0.0
220
0.0
230
-1.0
  0
LINE
  5
436
  8
LAYER_01
 10
869.0953533794445
 20
3614.66970762171
 30
0.0
 11
854.5789448854316
 21
3623.050759973394
 31
0.0
  0
ARC
  5
437
  8
LAYER_01
 10
672.4322229078716
 20
3596.335129336495
 30
0.0
 40
147.3750080761396
 50
6.17126100307715
 51
20.80143049967982
  0
LINE
  5
438
  8
LAYER_01
 10
810.2008578570067
 20
3648.672460465377
 30
0.0
 11
831.1714072827954
 21
3636.565108109343
 31
0.0
  0
ARC
  5
439
  8
LAYER_01
 10
-739.8437477364891
 20
3607.837008386589
 30
0.0
 40
95.73946475663247
 50
162.5384694280015
 51
175.9922557924111
210
0.0
220
0.0
230
-1.0
  0
ARC
  5
43A
  8
LAYER_01
 10
852.982183242947
 20
3433.155209547499
 30
0.0
 40
182.2282833782388
 50
95.55284261202799
 51
100.7624924747469
  0
ARC
  5
43B
  8
LAYER_01
 10
-672.4322229078693
 20
3596.335129336494
 30
0.0
 40
127.3750080761417
 50
146.2798816452492
 51
175.0583211168995
210
0.0
220
0.0
230
-1.0
  0
ARC
  5
43C
  8
LAYER_01
 10
852.9821832429616
 20
3433.155209547444
 30
0.0
 40
182.228283378294
 50
107.1216976576749
 51
122.1511246086076
  0
ARC
  5
43D
  8
LAYER_01
 10
-962.2536629515052
 20
3572.431737896806
 30
0.0
 40
206.7902604333414
 50
4.161559810117955
 51
27.22819952534267
210
0.0
220
0.0
230
-1.0
  0
ARC
  5
43E
  8
LAYER_01
 10
820.3868416719247
 20
3747.341739281864
 30
0.0
 40
115.7394647568246
 50
292.4467100990062
 51
296.2690829161775
  0
ARC
  5
43F
  8
LAYER_01
 10
1028.23493479881
 20
3736.701879408304
 30
0.0
 40
182.228283378429
 50
210.7407057854448
 51
215.0728894899934
  0
LINE
  5
440
  8
LAYER_01
 10
879.0953533794445
 20
3631.990215697398
 30
0.0
 11
864.5789448854316
 21
3640.371268049084
 31
0.0
  0
ARC
  5
441
  8
LAYER_01
 10
-796.6419987063282
 20
3811.472771816162
 30
0.0
 40
147.3750080761396
 50
246.1712610030772
 51
260.8014304996797
210
0.0
220
0.0
230
-1.0
  0
LINE
  5
442
  8
LAYER_01
 10
820.2008578570067
 20
3665.992968541065
 30
0.0
 11
841.1714072827954
 21
3653.885616185032
 31
0.0
  0
ARC
  5
443
  8
LAYER_01
 10
820.3868416720002
 20
3747.341739281687
 30
0.0
 40
95.73946475663247
 50
282.5384694280015
 51
295.9922557924111
  0
ARC
  5
444
  8
LAYER_01
 10
-1028.234934798645
 20
3736.701879408212
 30
0.0
 40
182.2282833782388
 50
335.552842612028
 51
340.762492474747
210
0.0
220
0.0
230
-1.0
  0
ARC
  5
445
  8
LAYER_01
 10
796.6419987063277
 20
3811.472771816164
 30
0.0
 40
127.3750080761417
 50
266.2798816452491
 51
295.0583211168994
  0
ARC
  5
446
  8
LAYER_01
 10
-1028.234934798698
 20
3736.701879408227
 30
0.0
 40
182.228283378294
 50
347.1216976576749
 51
2.151124608607565
210
0.0
220
0.0
230
-1.0
  0
ARC
  5
447
  8
LAYER_01
 10
962.2536629515198
 20
3572.431737896831
 30
0.0
 40
206.7902604333414
 50
124.1615598101179
 51
147.2281995253427
  0
LINE
  5
448
  8
LAYER_01
 10
916.5801512471371
 20
3651.540580728956
 30
0.0
 11
918.6338695315399
 21
3677.084536005988
 31
0.0
  0
LINE
  5
449
  8
LAYER_01
 10
918.6338695315399
 20
3677.084536005988
 30
0.0
 11
895.4852962062951
 21
3688.077941437995
 31
0.0
  0
LINE
  5
44A
  8
LAYER_01
 10
895.4852962062951
 20
3688.077941437995
 30
0.0
 11
893.4315779218923
 21
3662.533986160963
 31
0.0
  0
LINE
  5
44B
  8
LAYER_01
 10
893.4315779218923
 20
3662.533986160963
 30
0.0
 11
916.5801512471371
 21
3651.540580728956
 31
0.0
  0
ARC
  5
44C
  8
LAYER_01
 10
-896.2723911044266
 20
3736.701879408236
 30
0.0
 40
162.2282833783097
 50
217.8146433252543
 51
240.848979142154
210
0.0
220
0.0
230
-1.0
  0
ARC
  5
44D
  8
LAYER_01
 10
-1137.506414507323
 20
3597.425351058878
 30
0.0
 40
162.2282833783085
 50
359.1510208578457
 51
22.18535667474559
210
0.0
220
0.0
230
-1.0
  0
LINE
  5
44E
  8
LAYER_01
 10
987.2883580120744
 20
3658.683423430306
 30
0.0
 11
990.3152071316201
 21
3621.03575815547
 31
0.0
  0
LINE
  5
44F
  8
LAYER_01
 10
990.3152071316201
 20
3621.03575815547
 30
0.0
 11
1024.432466212574
 21
3637.238262561938
 31
0.0
  0
ARC
  5
450
  8
LAYER_01
 10
-1137.506414507323
 20
3597.425351058878
 30
0.0
 40
162.2282833783085
 50
40.79102229893832
 51
60.84897914215451
210
0.0
220
0.0
230
-1.0
  0
ARC
  5
451
  8
LAYER_01
 10
-896.2723911044266
 20
3736.701879408236
 30
0.0
 40
162.2282833783097
 50
179.1510208578457
 51
199.2089777010617
210
0.0
220
0.0
230
-1.0
  0
LINE
  5
452
  8
LAYER_01
 10
1049.468586964694
 20
3683.326402812556
 30
0.0
 11
1046.633997221231
 21
3718.582764011481
 31
0.0
  0
LINE
  5
453
  8
LAYER_01
 10
1046.633997221231
 20
3718.582764011481
 30
0.0
 11
1014.68379790623
 21
3703.409410139164
 31
0.0
  0
ARC
  5
454
  8
LAYER_01
 10
-881.7105690159442
 20
3782.747009771644
 30
0.0
 40
115.7394647568246
 50
232.4467100990063
 51
236.2690829161774
210
0.0
220
0.0
230
-1.0
  0
ARC
  5
455
  8
LAYER_01
 10
-787.0009113957112
 20
3597.425351058828
 30
0.0
 40
182.228283378429
 50
150.7407057854448
 51
155.0728894899935
210
0.0
220
0.0
230
-1.0
  0
LINE
  5
456
  8
LAYER_01
 10
952.2536629515705
 20
3674.228185422323
 30
0.0
 11
952.2536629515702
 21
3690.990290125693
 31
0.0
  0
ARC
  5
457
  8
LAYER_01
 10
838.0438871531135
 20
3835.376163255872
 30
0.0
 40
147.3750080761396
 50
306.1712610030771
 51
320.8014304996798
  0
LINE
  5
458
  8
LAYER_01
 10
952.2536629515703
 20
3742.233691109657
 30
0.0
 11
952.2536629515703
 21
3718.01898639759
 31
0.0
  0
ARC
  5
459
  8
LAYER_01
 10
-881.7105690160595
 20
3782.74700977149
 30
0.0
 40
95.73946475663247
 50
222.5384694280014
 51
235.992255792411
210
0.0
220
0.0
230
-1.0
  0
ARC
  5
45A
  8
LAYER_01
 10
787.0009113958733
 20
3597.425351058925
 30
0.0
 40
182.2282833782388
 50
35.55284261202802
 51
40.76249247474695
  0
ARC
  5
45B
  8
LAYER_01
 10
-838.0438871531119
 20
3835.376163255873
 30
0.0
 40
127.3750080761417
 50
206.2798816452491
 51
235.0583211168994
210
0.0
220
0.0
230
-1.0
  0
ARC
  5
45C
  8
LAYER_01
 10
787.0009113958333
 20
3597.425351058886
 30
0.0
 40
182.228283378294
 50
47.121697657675
 51
62.15112460860758
  0
ARC
  5
45D
  8
LAYER_01
 10
-962.2536629515558
 20
3572.431737896851
 30
0.0
 40
206.7902604333414
 50
64.1615598101179
 51
87.22819952534266
210
0.0
220
0.0
230
-1.0
  0
ARC
  5
45E
  8
LAYER_01
 10
1042.796756887197
 20
3782.747009771644
 30
0.0
 40
115.7394647568246
 50
232.4467100990063
 51
236.2690829161774
  0
ARC
  5
45F
  8
LAYER_01
 10
1137.50641450743
 20
3597.425351058828
 30
0.0
 40
182.228283378429
 50
150.7407057854448
 51
155.0728894899935
  0
LINE
  5
460
  8
LAYER_01
 10
972.2536629515705
 20
3674.228185422323
 30
0.0
 11
972.2536629515708
 21
3690.990290125693
 31
0.0
  0
ARC
  5
461
  8
LAYER_01
 10
-1086.463438750028
 20
3835.376163255872
 30
0.0
 40
147.3750080761396
 50
306.1712610030771
 51
320.8014304996798
210
0.0
220
0.0
230
-1.0
  0
LINE
  5
462
  8
LAYER_01
 10
972.2536629515707
 20
3742.233691109657
 30
0.0
 11
972.2536629515707
 21
3718.01898639759
 31
0.0
  0
ARC
  5
463
  8
LAYER_01
 10
1042.796756887082
 20
3782.74700977149
 30
0.0
 40
95.73946475663247
 50
222.5384694280014
 51
235.992255792411
  0
ARC
  5
464
  8
LAYER_01
 10
-1137.506414507268
 20
3597.425351058925
 30
0.0
 40
182.2282833782388
 50
35.55284261202802
 51
40.76249247474695
210
0.0
220
0.0
230
-1.0
  0
ARC
  5
465
  8
LAYER_01
 10
1086.463438750029
 20
3835.376163255873
 30
0.0
 40
127.3750080761417
 50
206.2798816452491
 51
235.0583211168994
  0
ARC
  5
466
  8
LAYER_01
 10
-1137.506414507308
 20
3597.425351058886
 30
0.0
 40
182.228283378294
 50
47.121697657675
 51
62.15112460860765
210
0.0
220
0.0
230
-1.0
  0
ARC
  5
467
  8
LAYER_01
 10
962.2536629515852
 20
3572.431737896851
 30
0.0
 40
206.7902604333414
 50
64.1615598101179
 51
87.22819952534266
  0
LINE
  5
468
  8
LAYER_01
 10
1007.927174656005
 20
3651.540580728956
 30
0.0
 11
1031.075747981249
 21
3662.533986160963
 31
0.0
  0
LINE
  5
469
  8
LAYER_01
 10
1031.075747981249
 20
3662.533986160963
 30
0.0
 11
1029.022029696847
 21
3688.077941437995
 31
0.0
  0
LINE
  5
46A
  8
LAYER_01
 10
1029.022029696847
 20
3688.077941437995
 30
0.0
 11
1005.873456371602
 21
3677.084536005988
 31
0.0
  0
LINE
  5
46B
  8
LAYER_01
 10
1005.873456371602
 20
3677.084536005988
 30
0.0
 11
1007.927174656005
 21
3651.540580728956
 31
0.0
  0
ENDSEC
  0
EOF
