  0
SECTION
  2
HEADER
  9
$ACADVER
  1
AC1009
  9
$DWGCODEPAGE
  3
ansi_1252
  9
$INSBASE
 10
0.0
 20
0.0
 30
0.0
  9
$EXTMIN
 10
1.000000000000000E+20
 20
1.000000000000000E+20
 30
1.000000000000000E+20
  9
$EXTMAX
 10
-1.000000000000000E+20
 20
-1.000000000000000E+20
 30
-1.000000000000000E+20
  9
$LIMMIN
 10
0.0
 20
0.0
  9
$LIMMAX
 10
12.0
 20
9.0
  9
$ORTHOMODE
 70
     0
  9
$REGENMODE
 70
     1
  9
$FILLMODE
 70
     1
  9
$QTEXTMODE
 70
     0
  9
$MIRRTEXT
 70
     1
  9
$DRAGMODE
 70
     2
  9
$LTSCALE
 40
1.0
  9
$OSMODE
 70
    37
  9
$ATTMODE
 70
     1
  9
$TEXTSIZE
 40
0.2
  9
$TRACEWID
 40
0.05
  9
$TEXTSTYLE
  7
STANDARD
  9
$CLAYER
  8
LAYER_01
  9
$CELTYPE
  6
BYLAYER
  9
$CECOLOR
 62
   256
  9
$DIMSCALE
 40
1.0
  9
$DIMASZ
 40
0.18
  9
$DIMEXO
 40
0.0625
  9
$DIMDLI
 40
0.38
  9
$DIMRND
 40
0.0
  9
$DIMDLE
 40
0.0
  9
$DIMEXE
 40
0.18
  9
$DIMTP
 40
0.0
  9
$DIMTM
 40
0.0
  9
$DIMTXT
 40
0.18
  9
$DIMCEN
 40
0.09
  9
$DIMTSZ
 40
0.0
  9
$DIMTOL
 70
     0
  9
$DIMLIM
 70
     0
  9
$DIMTIH
 70
     1
  9
$DIMTOH
 70
     1
  9
$DIMSE1
 70
     0
  9
$DIMSE2
 70
     0
  9
$DIMTAD
 70
     0
  9
$DIMZIN
 70
     0
  9
$DIMBLK
  1

  9
$DIMASO
 70
     1
  9
$DIMSHO
 70
     1
  9
$DIMPOST
  1

  9
$DIMAPOST
  1

  9
$DIMALT
 70
     0
  9
$DIMALTD
 70
     2
  9
$DIMALTF
 40
25.4
  9
$DIMLFAC
 40
1.0
  9
$DIMTOFL
 70
     0
  9
$DIMTVP
 40
0.0
  9
$DIMTIX
 70
     0
  9
$DIMSOXD
 70
     0
  9
$DIMSAH
 70
     0
  9
$DIMBLK1
  1

  9
$DIMBLK2
  1

  9
$DIMSTYLE
  2
STANDARD_ACAD
  9
$DIMCLRD
 70
     0
  9
$DIMCLRE
 70
     0
  9
$DIMCLRT
 70
     0
  9
$DIMTFAC
 40
1.0
  9
$DIMGAP
 40
0.09
  9
$LUNITS
 70
     2
  9
$LUPREC
 70
     3
  9
$SKETCHINC
 40
0.1
  9
$FILLETRAD
 40
0.5
  9
$AUNITS
 70
     0
  9
$AUPREC
 70
     0
  9
$MENU
  1
.
  9
$ELEVATION
 40
0.0
  9
$PELEVATION
 40
0.0
  9
$THICKNESS
 40
0.0
  9
$LIMCHECK
 70
     0
  9
$CHAMFERA
 40
0.0
  9
$CHAMFERB
 40
0.0
  9
$SKPOLY
 70
     0
  9
$TDCREATE
 40
2460021.615118669
  9
$TDUPDATE
 40
2460021.615118727
  9
$TDINDWG
 40
0.0000000116
  9
$TDUSRTIMER
 40
0.0000000116
  9
$USRTIMER
 70
     1
  9
$ANGBASE
 50
0.0
  9
$ANGDIR
 70
     0
  9
$PDMODE
 70
     0
  9
$PDSIZE
 40
0.0
  9
$PLINEWID
 40
0.0
  9
$COORDS
 70
     1
  9
$SPLFRAME
 70
     0
  9
$SPLINETYPE
 70
     6
  9
$SPLINESEGS
 70
     8
  9
$ATTDIA
 70
     0
  9
$ATTREQ
 70
     1
  9
$HANDLING
 70
     1
  9
$HANDSEED
  5
293
  9
$SURFTAB1
 70
     6
  9
$SURFTAB2
 70
     6
  9
$SURFTYPE
 70
     6
  9
$SURFU
 70
     6
  9
$SURFV
 70
     6
  9
$UCSNAME
  2

  9
$UCSORG
 10
0.0
 20
0.0
 30
0.0
  9
$UCSXDIR
 10
1.0
 20
0.0
 30
0.0
  9
$UCSYDIR
 10
0.0
 20
1.0
 30
0.0
  9
$PUCSNAME
  2

  9
$PUCSORG
 10
0.0
 20
0.0
 30
0.0
  9
$PUCSXDIR
 10
1.0
 20
0.0
 30
0.0
  9
$PUCSYDIR
 10
0.0
 20
1.0
 30
0.0
  9
$USERI1
 70
     0
  9
$USERI2
 70
     0
  9
$USERI3
 70
     0
  9
$USERI4
 70
     0
  9
$USERI5
 70
     0
  9
$USERR1
 40
0.0
  9
$USERR2
 40
0.0
  9
$USERR3
 40
0.0
  9
$USERR4
 40
0.0
  9
$USERR5
 40
0.0
  9
$WORLDVIEW
 70
     1
  9
$SHADEDGE
 70
     3
  9
$SHADEDIF
 70
    70
  9
$TILEMODE
 70
     1
  9
$MAXACTVP
 70
    64
  9
$PLIMCHECK
 70
     0
  9
$PEXTMIN
 10
1.000000000000000E+20
 20
1.000000000000000E+20
 30
1.000000000000000E+20
  9
$PEXTMAX
 10
-1.000000000000000E+20
 20
-1.000000000000000E+20
 30
-1.000000000000000E+20
  9
$PLIMMIN
 10
0.0
 20
0.0
  9
$PLIMMAX
 10
12.0
 20
9.0
  9
$UNITMODE
 70
     0
  9
$VISRETAIN
 70
     1
  9
$PLINEGEN
 70
     0
  9
$PSLTSCALE
 70
     1
  0
ENDSEC
  0
SECTION
  2
TABLES
  0
TABLE
  2
VPORT
 70
     1
  0
VPORT
  2
*ACTIVE
 70
     0
 10
0.0
 20
0.0
 11
1.0
 21
1.0
 12
10.42990654205607
 22
4.5
 13
0.0
 23
0.0
 14
0.5
 24
0.5
 15
0.5
 25
0.5
 16
0.0
 26
0.0
 36
1.0
 17
0.0
 27
0.0
 37
0.0
 40
9.0
 41
1.972972972850329
 42
50.0
 43
0.0
 44
0.0
 50
0.0
 51
0.0
 71
     0
 72
   100
 73
     1
 74
     3
 75
     0
 76
     0
 77
     0
 78
     0
  0
ENDTAB
  0
TABLE
  2
LTYPE
 70
     1
  0
LTYPE
  2
CONTINUOUS
 70
     0
  3
Solid line
 72
    65
 73
     0
 40
0.0
  0
ENDTAB
  0
TABLE
  2
LAYER
 70
     2
  0
LAYER
  2
0
 70
     0
 62
     7
  6
CONTINUOUS
  0
LAYER
  2
LAYER_01
 70
     0
 62
     7
  6
CONTINUOUS
  0
ENDTAB
  0
TABLE
  2
STYLE
 70
     1
  0
STYLE
  2
STANDARD
 70
     0
 40
0.0
 41
1.0
 50
0.0
 71
     0
 42
0.2
  3
txt
  4

  0
ENDTAB
  0
TABLE
  2
VIEW
 70
     0
  0
ENDTAB
  0
TABLE
  2
UCS
 70
     0
  0
ENDTAB
  0
TABLE
  2
APPID
 70
     2
  0
APPID
  2
ACAD
 70
     0
  0
APPID
  2
RHINO
 70
     0
  0
ENDTAB
  0
TABLE
  2
DIMSTYLE
 70
     1
  0
DIMSTYLE
  2
STANDARD_ACAD
 70
     0
  3

  4

  5

  6

  7

 40
1.0
 41
0.18
 42
0.0625
 43
0.38
 44
0.18
 45
0.0
 46
0.0
 47
0.0
 48
0.0
140
0.18
141
0.09
142
0.0
143
25.4
144
1.0
145
0.0
146
1.0
147
0.09
 71
     0
 72
     0
 73
     1
 74
     1
 75
     0
 76
     0
 77
     0
 78
     0
170
     0
171
     2
172
     0
173
     0
174
     0
175
     0
176
     0
177
     0
178
     0
  0
ENDTAB
  0
ENDSEC
  0
SECTION
  2
BLOCKS
  0
BLOCK
  8
0
  2
$MODEL_SPACE
 70
     0
 10
0.0
 20
0.0
 30
0.0
  3
$MODEL_SPACE
  1

  0
ENDBLK
  5
21
  8
0
  0
BLOCK
 67
     1
  8
0
  2
$PAPER_SPACE
 70
     0
 10
0.0
 20
0.0
 30
0.0
  3
$PAPER_SPACE
  1

  0
ENDBLK
  5
1D
 67
     1
  8
0
  0
ENDSEC
  0
SECTION
  2
ENTITIES
  0
POLYLINE
  5
70
  8
LAYER_01
 66
     1
 10
0.0
 20
0.0
 30
0.0
 70
     1
  0
VERTEX
  5
71
  8
LAYER_01
 10
222.3230636287349
 20
279.6900485617948
 30
0.0
  0
VERTEX
  5
72
  8
LAYER_01
 10
1452.100814180495
 20
279.6900485617948
 30
0.0
  0
VERTEX
  5
73
  8
LAYER_01
 10
1452.100814180495
 20
1509.467799113555
 30
0.0
  0
VERTEX
  5
74
  8
LAYER_01
 10
222.3230636287349
 20
1509.467799113555
 30
0.0
  0
SEQEND
  5
75
  8
LAYER_01
  0
POLYLINE
  5
76
  8
LAYER_01
 66
     1
 10
0.0
 20
0.0
 30
0.0
 70
     1
  0
VERTEX
  5
77
  8
LAYER_01
 10
252.3230636287349
 20
309.6900485617948
 30
0.0
  0
VERTEX
  5
78
  8
LAYER_01
 10
1422.100814180495
 20
309.6900485617948
 30
0.0
  0
VERTEX
  5
79
  8
LAYER_01
 10
1422.100814180495
 20
1479.467799113555
 30
0.0
  0
VERTEX
  5
7A
  8
LAYER_01
 10
252.3230636287349
 20
1479.467799113555
 30
0.0
  0
SEQEND
  5
7B
  8
LAYER_01
  0
POLYLINE
  5
7C
  8
LAYER_01
 66
     1
 10
0.0
 20
0.0
 30
0.0
 70
     1
  0
VERTEX
  5
7D
  8
LAYER_01
 10
1028.268720086032
 20
1258.411017932138
 30
0.0
  0
VERTEX
  5
7E
  8
LAYER_01
 10
856.2560891975011
 20
1258.411017932138
 30
0.0
  0
VERTEX
  5
7F
  8
LAYER_01
 10
856.2560891975008
 20
1206.067511768501
 30
0.0
  0
VERTEX
  5
80
  8
LAYER_01
 10
1028.268720086031
 20
1206.067511768501
 30
0.0
  0
SEQEND
  5
81
  8
LAYER_01
  0
POLYLINE
  5
82
  8
LAYER_01
 66
     1
 10
0.0
 20
0.0
 30
0.0
 70
     1
  0
VERTEX
  5
83
  8
LAYER_01
 10
1028.268720086032
 20
1115.635705019091
 30
0.0
  0
VERTEX
  5
84
  8
LAYER_01
 10
856.2560891975011
 20
1115.635705019091
 30
0.0
  0
VERTEX
  5
85
  8
LAYER_01
 10
856.256089197501
 20
1167.979211182728
 30
0.0
  0
VERTEX
  5
86
  8
LAYER_01
 10
1028.268720086031
 20
1167.979211182728
 30
0.0
  0
SEQEND
  5
87
  8
LAYER_01
  0
POLYLINE
  5
88
  8
LAYER_01
 66
     1
 10
0.0
 20
0.0
 30
0.0
  0
VERTEX
  5
89
  8
LAYER_01
 10
1110.612226249668
 20
1460.423648820668
 30
0.0
  0
VERTEX
  5
8A
  8
LAYER_01
 10
1110.612226249668
 20
1352.289730587471
 30
0.0
  0
VERTEX
  5
8B
  8
LAYER_01
 10
1058.268720086031
 20
1352.289730587471
 30
0.0
  0
VERTEX
  5
8C
  8
LAYER_01
 10
1058.268720086031
 20
1460.423648820668
 30
0.0
  0
VERTEX
  5
8D
  8
LAYER_01
 10
1201.044032999078
 20
1460.423648820668
 30
0.0
  0
VERTEX
  5
8E
  8
LAYER_01
 10
1201.044032999078
 20
1352.289730587471
 30
0.0
  0
VERTEX
  5
8F
  8
LAYER_01
 10
1148.700526835441
 20
1352.289730587471
 30
0.0
  0
VERTEX
  5
90
  8
LAYER_01
 10
1148.700526835441
 20
1460.423648820668
 30
0.0
  0
SEQEND
  5
91
  8
LAYER_01
  0
POLYLINE
  5
92
  8
LAYER_01
 66
     1
 10
0.0
 20
0.0
 30
0.0
  0
VERTEX
  5
93
  8
LAYER_01
 10
1148.700526835441
 20
1206.067511768501
 30
0.0
  0
VERTEX
  5
94
  8
LAYER_01
 10
1148.700526835441
 20
1314.201430001698
 30
0.0
  0
VERTEX
  5
95
  8
LAYER_01
 10
1201.044032999078
 20
1314.201430001698
 30
0.0
  0
VERTEX
  5
96
  8
LAYER_01
 10
1201.044032999078
 20
1206.067511768501
 30
0.0
  0
VERTEX
  5
97
  8
LAYER_01
 10
1058.268720086031
 20
1206.067511768501
 30
0.0
  0
VERTEX
  5
98
  8
LAYER_01
 10
1058.268720086031
 20
1314.201430001698
 30
0.0
  0
VERTEX
  5
99
  8
LAYER_01
 10
1110.612226249668
 20
1314.201430001698
 30
0.0
  0
VERTEX
  5
9A
  8
LAYER_01
 10
1110.612226249668
 20
1206.067511768501
 30
0.0
  0
SEQEND
  5
9B
  8
LAYER_01
  0
POLYLINE
  5
9C
  8
LAYER_01
 66
     1
 10
0.0
 20
0.0
 30
0.0
 70
     1
  0
VERTEX
  5
9D
  8
LAYER_01
 10
1058.268720086031
 20
1021.756992363759
 30
0.0
  0
VERTEX
  5
9E
  8
LAYER_01
 10
1110.612226249668
 20
1021.756992363758
 30
0.0
  0
VERTEX
  5
9F
  8
LAYER_01
 10
1110.612226249668
 20
913.623074130561
 30
0.0
  0
VERTEX
  5
A0
  8
LAYER_01
 10
1058.268720086031
 20
913.623074130561
 30
0.0
  0
SEQEND
  5
A1
  8
LAYER_01
  0
POLYLINE
  5
A2
  8
LAYER_01
 66
     1
 10
0.0
 20
0.0
 30
0.0
 70
     1
  0
VERTEX
  5
A3
  8
LAYER_01
 10
1148.700526835441
 20
913.6230741305609
 30
0.0
  0
VERTEX
  5
A4
  8
LAYER_01
 10
1148.700526835441
 20
1021.756992363759
 30
0.0
  0
VERTEX
  5
A5
  8
LAYER_01
 10
1201.044032999078
 20
1021.756992363759
 30
0.0
  0
VERTEX
  5
A6
  8
LAYER_01
 10
1201.044032999078
 20
913.623074130561
 30
0.0
  0
SEQEND
  5
A7
  8
LAYER_01
  0
POLYLINE
  5
A8
  8
LAYER_01
 66
     1
 10
0.0
 20
0.0
 30
0.0
 70
     1
  0
VERTEX
  5
A9
  8
LAYER_01
 10
1403.056663887608
 20
1206.067511768501
 30
0.0
  0
VERTEX
  5
AA
  8
LAYER_01
 10
1231.044032999078
 20
1206.067511768501
 30
0.0
  0
VERTEX
  5
AB
  8
LAYER_01
 10
1231.044032999078
 20
1258.411017932138
 30
0.0
  0
VERTEX
  5
AC
  8
LAYER_01
 10
1403.056663887608
 20
1258.411017932138
 30
0.0
  0
SEQEND
  5
AD
  8
LAYER_01
  0
POLYLINE
  5
AE
  8
LAYER_01
 66
     1
 10
0.0
 20
0.0
 30
0.0
 70
     1
  0
VERTEX
  5
AF
  8
LAYER_01
 10
1231.044032999078
 20
1167.979211182728
 30
0.0
  0
VERTEX
  5
B0
  8
LAYER_01
 10
1231.044032999078
 20
1115.635705019091
 30
0.0
  0
VERTEX
  5
B1
  8
LAYER_01
 10
1403.056663887608
 20
1115.635705019091
 30
0.0
  0
VERTEX
  5
B2
  8
LAYER_01
 10
1403.056663887608
 20
1167.979211182728
 30
0.0
  0
SEQEND
  5
B3
  8
LAYER_01
  0
POLYLINE
  5
B4
  8
LAYER_01
 66
     1
 10
0.0
 20
0.0
 30
0.0
 70
     1
  0
VERTEX
  5
B5
  8
LAYER_01
 10
1148.700526835441
 20
1167.979211182728
 30
0.0
  0
VERTEX
  5
B6
  8
LAYER_01
 10
1201.044032999078
 20
1167.979211182728
 30
0.0
  0
VERTEX
  5
B7
  8
LAYER_01
 10
1201.044032999078
 20
1059.845292949531
 30
0.0
  0
VERTEX
  5
B8
  8
LAYER_01
 10
1148.700526835441
 20
1059.845292949531
 30
0.0
  0
SEQEND
  5
B9
  8
LAYER_01
  0
POLYLINE
  5
BA
  8
LAYER_01
 66
     1
 10
0.0
 20
0.0
 30
0.0
 70
     1
  0
VERTEX
  5
BB
  8
LAYER_01
 10
1110.612226249668
 20
1167.979211182728
 30
0.0
  0
VERTEX
  5
BC
  8
LAYER_01
 10
1110.612226249668
 20
1059.845292949531
 30
0.0
  0
VERTEX
  5
BD
  8
LAYER_01
 10
1058.268720086031
 20
1059.845292949531
 30
0.0
  0
VERTEX
  5
BE
  8
LAYER_01
 10
1058.268720086031
 20
1167.979211182728
 30
0.0
  0
SEQEND
  5
BF
  8
LAYER_01
  0
LINE
  5
C0
  8
LAYER_01
 10
1343.644667731845
 20
1479.467799113555
 30
0.0
 11
1422.100814180495
 21
1401.011652664905
 31
0.0
  0
LINE
  5
C1
  8
LAYER_01
 10
1343.644667731845
 20
894.5789238376747
 30
0.0
 11
1422.100814180495
 21
973.0350702863245
 31
0.0
  0
LINE
  5
C2
  8
LAYER_01
 10
915.6680853532646
 20
1479.467799113555
 30
0.0
 11
837.2119389046147
 21
1401.011652664905
 31
0.0
  0
LINE
  5
C3
  8
LAYER_01
 10
915.6680853532646
 20
894.5789238376747
 30
0.0
 11
837.2119389046147
 21
973.0350702863245
 31
0.0
  0
POLYLINE
  5
C4
  8
LAYER_01
 66
     1
 10
0.0
 20
0.0
 30
0.0
 70
     1
  0
VERTEX
  5
C5
  8
LAYER_01
 10
1368.593613481496
 20
1341.918218631136
 30
0.0
 42
0.886228032649093
  0
VERTEX
  5
C6
  8
LAYER_01
 10
1407.100814180495
 20
1300.606661365679
 30
0.0
  0
VERTEX
  5
C7
  8
LAYER_01
 10
1407.100814180495
 20
1373.585245793712
 30
0.0
  0
VERTEX
  5
C8
  8
LAYER_01
 10
1316.218260860652
 20
1464.467799113555
 30
0.0
  0
VERTEX
  5
C9
  8
LAYER_01
 10
1243.239676432619
 20
1464.467799113555
 30
0.0
 42
0.8862280326491049
  0
VERTEX
  5
CA
  8
LAYER_01
 10
1284.551233698076
 20
1425.960598414556
 30
0.0
  0
SEQEND
  5
CB
  8
LAYER_01
  0
POLYLINE
  5
CC
  8
LAYER_01
 66
     1
 10
0.0
 20
0.0
 30
0.0
 70
     1
  0
VERTEX
  5
CD
  8
LAYER_01
 10
1343.680471293017
 20
1288.411017932138
 30
0.0
 42
-0.2139926560660851
  0
VERTEX
  5
CE
  8
LAYER_01
 10
1333.037704071304
 20
1335.047721170134
 30
0.0
  0
VERTEX
  5
CF
  8
LAYER_01
 10
1277.680736237076
 20
1390.404689004365
 30
0.0
 42
-0.2139926560660817
  0
VERTEX
  5
D0
  8
LAYER_01
 10
1231.044032999078
 20
1401.047456226077
 30
0.0
  0
VERTEX
  5
D1
  8
LAYER_01
 10
1231.044032999078
 20
1288.411017932138
 30
0.0
  0
SEQEND
  5
D2
  8
LAYER_01
  0
POLYLINE
  5
D3
  8
LAYER_01
 66
     1
 10
0.0
 20
0.0
 30
0.0
 70
     1
  0
VERTEX
  5
D4
  8
LAYER_01
 10
1368.593613481496
 20
1032.128504320093
 30
0.0
 42
-0.886228032649093
  0
VERTEX
  5
D5
  8
LAYER_01
 10
1407.100814180495
 20
1073.44006158555
 30
0.0
  0
VERTEX
  5
D6
  8
LAYER_01
 10
1407.100814180495
 20
1000.461477157517
 30
0.0
  0
VERTEX
  5
D7
  8
LAYER_01
 10
1316.218260860652
 20
909.5789238376747
 30
0.0
  0
VERTEX
  5
D8
  8
LAYER_01
 10
1243.239676432619
 20
909.5789238376744
 30
0.0
 42
-0.886228032649089
  0
VERTEX
  5
D9
  8
LAYER_01
 10
1284.551233698076
 20
948.0861245366729
 30
0.0
  0
SEQEND
  5
DA
  8
LAYER_01
  0
POLYLINE
  5
DB
  8
LAYER_01
 66
     1
 10
0.0
 20
0.0
 30
0.0
 70
     1
  0
VERTEX
  5
DC
  8
LAYER_01
 10
1343.680471293017
 20
1085.635705019091
 30
0.0
 42
0.2139926560660851
  0
VERTEX
  5
DD
  8
LAYER_01
 10
1333.037704071304
 20
1038.999001781095
 30
0.0
  0
VERTEX
  5
DE
  8
LAYER_01
 10
1277.680736237076
 20
983.6420339468644
 30
0.0
 42
0.2139926560660906
  0
VERTEX
  5
DF
  8
LAYER_01
 10
1231.044032999078
 20
972.9992667251519
 30
0.0
  0
VERTEX
  5
E0
  8
LAYER_01
 10
1231.044032999078
 20
1085.635705019091
 30
0.0
  0
SEQEND
  5
E1
  8
LAYER_01
  0
POLYLINE
  5
E2
  8
LAYER_01
 66
     1
 10
0.0
 20
0.0
 30
0.0
 70
     1
  0
VERTEX
  5
E3
  8
LAYER_01
 10
890.719139603613
 20
1341.918218631136
 30
0.0
 42
-0.8862280326490882
  0
VERTEX
  5
E4
  8
LAYER_01
 10
852.2119389046147
 20
1300.606661365679
 30
0.0
  0
VERTEX
  5
E5
  8
LAYER_01
 10
852.2119389046147
 20
1373.585245793712
 30
0.0
  0
VERTEX
  5
E6
  8
LAYER_01
 10
943.0944922244571
 20
1464.467799113555
 30
0.0
  0
VERTEX
  5
E7
  8
LAYER_01
 10
1016.07307665249
 20
1464.467799113555
 30
0.0
 42
-0.886228032649105
  0
VERTEX
  5
E8
  8
LAYER_01
 10
974.7615193870333
 20
1425.960598414556
 30
0.0
  0
SEQEND
  5
E9
  8
LAYER_01
  0
POLYLINE
  5
EA
  8
LAYER_01
 66
     1
 10
0.0
 20
0.0
 30
0.0
 70
     1
  0
VERTEX
  5
EB
  8
LAYER_01
 10
915.6322817920922
 20
1288.411017932138
 30
0.0
 42
0.2139926560660855
  0
VERTEX
  5
EC
  8
LAYER_01
 10
926.2750490138048
 20
1335.047721170134
 30
0.0
  0
VERTEX
  5
ED
  8
LAYER_01
 10
981.6320168480338
 20
1390.404689004365
 30
0.0
 42
0.2139926560660817
  0
VERTEX
  5
EE
  8
LAYER_01
 10
1028.268720086031
 20
1401.047456226077
 30
0.0
  0
VERTEX
  5
EF
  8
LAYER_01
 10
1028.268720086031
 20
1288.411017932138
 30
0.0
  0
SEQEND
  5
F0
  8
LAYER_01
  0
POLYLINE
  5
F1
  8
LAYER_01
 66
     1
 10
0.0
 20
0.0
 30
0.0
 70
     1
  0
VERTEX
  5
F2
  8
LAYER_01
 10
890.719139603613
 20
1032.128504320093
 30
0.0
 42
0.8862280326490882
  0
VERTEX
  5
F3
  8
LAYER_01
 10
852.2119389046147
 20
1073.44006158555
 30
0.0
  0
VERTEX
  5
F4
  8
LAYER_01
 10
852.2119389046147
 20
1000.461477157517
 30
0.0
  0
VERTEX
  5
F5
  8
LAYER_01
 10
943.0944922244571
 20
909.5789238376747
 30
0.0
  0
VERTEX
  5
F6
  8
LAYER_01
 10
1016.07307665249
 20
909.5789238376744
 30
0.0
 42
0.886228032649089
  0
VERTEX
  5
F7
  8
LAYER_01
 10
974.7615193870333
 20
948.0861245366729
 30
0.0
  0
SEQEND
  5
F8
  8
LAYER_01
  0
POLYLINE
  5
F9
  8
LAYER_01
 66
     1
 10
0.0
 20
0.0
 30
0.0
 70
     1
  0
VERTEX
  5
FA
  8
LAYER_01
 10
915.6322817920922
 20
1085.635705019091
 30
0.0
 42
-0.2139926560660855
  0
VERTEX
  5
FB
  8
LAYER_01
 10
926.2750490138048
 20
1038.999001781095
 30
0.0
  0
VERTEX
  5
FC
  8
LAYER_01
 10
981.6320168480338
 20
983.6420339468644
 30
0.0
 42
-0.2139926560660906
  0
VERTEX
  5
FD
  8
LAYER_01
 10
1028.268720086031
 20
972.9992667251519
 30
0.0
  0
VERTEX
  5
FE
  8
LAYER_01
 10
1028.268720086031
 20
1085.635705019091
 30
0.0
  0
SEQEND
  5
FF
  8
LAYER_01
  0
POLYLINE
  5
100
  8
LAYER_01
 66
     1
 10
0.0
 20
0.0
 30
0.0
 70
     1
  0
VERTEX
  5
101
  8
LAYER_01
 10
1201.044032999078
 20
703.5221426562578
 30
0.0
  0
VERTEX
  5
102
  8
LAYER_01
 10
1201.044032999078
 20
875.5347735447883
 30
0.0
  0
VERTEX
  5
103
  8
LAYER_01
 10
1148.700526835441
 20
875.5347735447885
 30
0.0
  0
VERTEX
  5
104
  8
LAYER_01
 10
1148.700526835441
 20
703.522142656258
 30
0.0
  0
SEQEND
  5
105
  8
LAYER_01
  0
POLYLINE
  5
106
  8
LAYER_01
 66
     1
 10
0.0
 20
0.0
 30
0.0
 70
     1
  0
VERTEX
  5
107
  8
LAYER_01
 10
1058.268720086031
 20
703.5221426562578
 30
0.0
  0
VERTEX
  5
108
  8
LAYER_01
 10
1058.268720086031
 20
875.5347735447883
 30
0.0
  0
VERTEX
  5
109
  8
LAYER_01
 10
1110.612226249669
 20
875.5347735447884
 30
0.0
  0
VERTEX
  5
10A
  8
LAYER_01
 10
1110.612226249668
 20
703.522142656258
 30
0.0
  0
SEQEND
  5
10B
  8
LAYER_01
  0
POLYLINE
  5
10C
  8
LAYER_01
 66
     1
 10
0.0
 20
0.0
 30
0.0
  0
VERTEX
  5
10D
  8
LAYER_01
 10
1403.056663887608
 20
621.1786364926211
 30
0.0
  0
VERTEX
  5
10E
  8
LAYER_01
 10
1294.922745654411
 20
621.1786364926211
 30
0.0
  0
VERTEX
  5
10F
  8
LAYER_01
 10
1294.922745654411
 20
673.522142656258
 30
0.0
  0
VERTEX
  5
110
  8
LAYER_01
 10
1403.056663887608
 20
673.522142656258
 30
0.0
  0
VERTEX
  5
111
  8
LAYER_01
 10
1403.056663887608
 20
530.7468297432115
 30
0.0
  0
VERTEX
  5
112
  8
LAYER_01
 10
1294.922745654411
 20
530.7468297432115
 30
0.0
  0
VERTEX
  5
113
  8
LAYER_01
 10
1294.922745654411
 20
583.0903359068484
 30
0.0
  0
VERTEX
  5
114
  8
LAYER_01
 10
1403.056663887608
 20
583.0903359068484
 30
0.0
  0
SEQEND
  5
115
  8
LAYER_01
  0
POLYLINE
  5
116
  8
LAYER_01
 66
     1
 10
0.0
 20
0.0
 30
0.0
  0
VERTEX
  5
117
  8
LAYER_01
 10
1148.700526835441
 20
583.0903359068484
 30
0.0
  0
VERTEX
  5
118
  8
LAYER_01
 10
1256.834445068638
 20
583.0903359068484
 30
0.0
  0
VERTEX
  5
119
  8
LAYER_01
 10
1256.834445068638
 20
530.7468297432115
 30
0.0
  0
VERTEX
  5
11A
  8
LAYER_01
 10
1148.700526835441
 20
530.7468297432115
 30
0.0
  0
VERTEX
  5
11B
  8
LAYER_01
 10
1148.700526835441
 20
673.522142656258
 30
0.0
  0
VERTEX
  5
11C
  8
LAYER_01
 10
1256.834445068638
 20
673.522142656258
 30
0.0
  0
VERTEX
  5
11D
  8
LAYER_01
 10
1256.834445068638
 20
621.1786364926211
 30
0.0
  0
VERTEX
  5
11E
  8
LAYER_01
 10
1148.700526835441
 20
621.1786364926211
 30
0.0
  0
SEQEND
  5
11F
  8
LAYER_01
  0
POLYLINE
  5
120
  8
LAYER_01
 66
     1
 10
0.0
 20
0.0
 30
0.0
 70
     1
  0
VERTEX
  5
121
  8
LAYER_01
 10
964.3900074306986
 20
673.522142656258
 30
0.0
  0
VERTEX
  5
122
  8
LAYER_01
 10
964.3900074306985
 20
621.1786364926211
 30
0.0
  0
VERTEX
  5
123
  8
LAYER_01
 10
856.2560891975011
 20
621.1786364926211
 30
0.0
  0
VERTEX
  5
124
  8
LAYER_01
 10
856.2560891975011
 20
673.522142656258
 30
0.0
  0
SEQEND
  5
125
  8
LAYER_01
  0
POLYLINE
  5
126
  8
LAYER_01
 66
     1
 10
0.0
 20
0.0
 30
0.0
 70
     1
  0
VERTEX
  5
127
  8
LAYER_01
 10
856.256089197501
 20
583.0903359068484
 30
0.0
  0
VERTEX
  5
128
  8
LAYER_01
 10
964.3900074306987
 20
583.0903359068484
 30
0.0
  0
VERTEX
  5
129
  8
LAYER_01
 10
964.3900074306987
 20
530.7468297432115
 30
0.0
  0
VERTEX
  5
12A
  8
LAYER_01
 10
856.2560891975011
 20
530.7468297432115
 30
0.0
  0
SEQEND
  5
12B
  8
LAYER_01
  0
POLYLINE
  5
12C
  8
LAYER_01
 66
     1
 10
0.0
 20
0.0
 30
0.0
 70
     1
  0
VERTEX
  5
12D
  8
LAYER_01
 10
1148.700526835441
 20
328.7341988546812
 30
0.0
  0
VERTEX
  5
12E
  8
LAYER_01
 10
1148.700526835441
 20
500.7468297432115
 30
0.0
  0
VERTEX
  5
12F
  8
LAYER_01
 10
1201.044032999078
 20
500.7468297432115
 30
0.0
  0
VERTEX
  5
130
  8
LAYER_01
 10
1201.044032999078
 20
328.7341988546809
 30
0.0
  0
SEQEND
  5
131
  8
LAYER_01
  0
POLYLINE
  5
132
  8
LAYER_01
 66
     1
 10
0.0
 20
0.0
 30
0.0
 70
     1
  0
VERTEX
  5
133
  8
LAYER_01
 10
1110.612226249669
 20
500.7468297432115
 30
0.0
  0
VERTEX
  5
134
  8
LAYER_01
 10
1058.268720086031
 20
500.7468297432115
 30
0.0
  0
VERTEX
  5
135
  8
LAYER_01
 10
1058.268720086031
 20
328.7341988546809
 30
0.0
  0
VERTEX
  5
136
  8
LAYER_01
 10
1110.612226249669
 20
328.7341988546809
 30
0.0
  0
SEQEND
  5
137
  8
LAYER_01
  0
POLYLINE
  5
138
  8
LAYER_01
 66
     1
 10
0.0
 20
0.0
 30
0.0
 70
     1
  0
VERTEX
  5
139
  8
LAYER_01
 10
1110.612226249668
 20
583.0903359068486
 30
0.0
  0
VERTEX
  5
13A
  8
LAYER_01
 10
1110.612226249669
 20
530.7468297432115
 30
0.0
  0
VERTEX
  5
13B
  8
LAYER_01
 10
1002.478308016471
 20
530.7468297432115
 30
0.0
  0
VERTEX
  5
13C
  8
LAYER_01
 10
1002.478308016471
 20
583.0903359068484
 30
0.0
  0
SEQEND
  5
13D
  8
LAYER_01
  0
POLYLINE
  5
13E
  8
LAYER_01
 66
     1
 10
0.0
 20
0.0
 30
0.0
 70
     1
  0
VERTEX
  5
13F
  8
LAYER_01
 10
1110.612226249668
 20
621.1786364926211
 30
0.0
  0
VERTEX
  5
140
  8
LAYER_01
 10
1002.478308016471
 20
621.1786364926211
 30
0.0
  0
VERTEX
  5
141
  8
LAYER_01
 10
1002.478308016471
 20
673.522142656258
 30
0.0
  0
VERTEX
  5
142
  8
LAYER_01
 10
1110.612226249668
 20
673.522142656258
 30
0.0
  0
SEQEND
  5
143
  8
LAYER_01
  0
LINE
  5
144
  8
LAYER_01
 10
1422.100814180495
 20
388.1461950104447
 30
0.0
 11
1343.644667731845
 21
309.6900485617948
 31
0.0
  0
LINE
  5
145
  8
LAYER_01
 10
837.2119389046147
 20
388.1461950104447
 30
0.0
 11
915.6680853532646
 21
309.6900485617948
 31
0.0
  0
LINE
  5
146
  8
LAYER_01
 10
1422.100814180495
 20
816.1227773890248
 30
0.0
 11
1343.644667731845
 21
894.5789238376747
 31
0.0
  0
LINE
  5
147
  8
LAYER_01
 10
837.2119389046147
 20
816.1227773890248
 30
0.0
 11
915.6680853532646
 21
894.5789238376747
 31
0.0
  0
POLYLINE
  5
148
  8
LAYER_01
 66
     1
 10
0.0
 20
0.0
 30
0.0
 70
     1
  0
VERTEX
  5
149
  8
LAYER_01
 10
1284.551233698076
 20
363.1972492607931
 30
0.0
 42
0.8862280326490882
  0
VERTEX
  5
14A
  8
LAYER_01
 10
1243.239676432619
 20
324.6900485617948
 30
0.0
  0
VERTEX
  5
14B
  8
LAYER_01
 10
1316.218260860652
 20
324.6900485617948
 30
0.0
  0
VERTEX
  5
14C
  8
LAYER_01
 10
1407.100814180495
 20
415.5726018816372
 30
0.0
  0
VERTEX
  5
14D
  8
LAYER_01
 10
1407.100814180495
 20
488.5511863096702
 30
0.0
 42
0.886228032649111
  0
VERTEX
  5
14E
  8
LAYER_01
 10
1368.593613481496
 20
447.2396290442134
 30
0.0
  0
SEQEND
  5
14F
  8
LAYER_01
  0
POLYLINE
  5
150
  8
LAYER_01
 66
     1
 10
0.0
 20
0.0
 30
0.0
 70
     1
  0
VERTEX
  5
151
  8
LAYER_01
 10
1231.044032999078
 20
388.1103914492723
 30
0.0
 42
-0.213992656066085
  0
VERTEX
  5
152
  8
LAYER_01
 10
1277.680736237074
 20
398.7531586709849
 30
0.0
  0
VERTEX
  5
153
  8
LAYER_01
 10
1333.037704071305
 20
454.1101265052139
 30
0.0
 42
-0.2139926560660803
  0
VERTEX
  5
154
  8
LAYER_01
 10
1343.680471293017
 20
500.7468297432114
 30
0.0
  0
VERTEX
  5
155
  8
LAYER_01
 10
1231.044032999078
 20
500.7468297432115
 30
0.0
  0
SEQEND
  5
156
  8
LAYER_01
  0
POLYLINE
  5
157
  8
LAYER_01
 66
     1
 10
0.0
 20
0.0
 30
0.0
 70
     1
  0
VERTEX
  5
158
  8
LAYER_01
 10
974.7615193870333
 20
363.1972492607931
 30
0.0
 42
-0.8862280326490856
  0
VERTEX
  5
159
  8
LAYER_01
 10
1016.07307665249
 20
324.6900485617948
 30
0.0
  0
VERTEX
  5
15A
  8
LAYER_01
 10
943.0944922244576
 20
324.6900485617948
 30
0.0
  0
VERTEX
  5
15B
  8
LAYER_01
 10
852.2119389046147
 20
415.5726018816372
 30
0.0
  0
VERTEX
  5
15C
  8
LAYER_01
 10
852.2119389046145
 20
488.5511863096704
 30
0.0
 42
-0.886228032649089
  0
VERTEX
  5
15D
  8
LAYER_01
 10
890.7191396036129
 20
447.2396290442134
 30
0.0
  0
SEQEND
  5
15E
  8
LAYER_01
  0
POLYLINE
  5
15F
  8
LAYER_01
 66
     1
 10
0.0
 20
0.0
 30
0.0
 70
     1
  0
VERTEX
  5
160
  8
LAYER_01
 10
1028.268720086031
 20
388.1103914492723
 30
0.0
 42
0.2139926560660858
  0
VERTEX
  5
161
  8
LAYER_01
 10
981.6320168480347
 20
398.7531586709849
 30
0.0
  0
VERTEX
  5
162
  8
LAYER_01
 10
926.2750490138045
 20
454.1101265052139
 30
0.0
 42
0.2139926560660829
  0
VERTEX
  5
163
  8
LAYER_01
 10
915.6322817920919
 20
500.7468297432114
 30
0.0
  0
VERTEX
  5
164
  8
LAYER_01
 10
1028.268720086031
 20
500.7468297432115
 30
0.0
  0
SEQEND
  5
165
  8
LAYER_01
  0
POLYLINE
  5
166
  8
LAYER_01
 66
     1
 10
0.0
 20
0.0
 30
0.0
 70
     1
  0
VERTEX
  5
167
  8
LAYER_01
 10
1284.551233698076
 20
841.0717231386764
 30
0.0
 42
-0.8862280326490882
  0
VERTEX
  5
168
  8
LAYER_01
 10
1243.239676432619
 20
879.5789238376747
 30
0.0
  0
VERTEX
  5
169
  8
LAYER_01
 10
1316.218260860652
 20
879.5789238376747
 30
0.0
  0
VERTEX
  5
16A
  8
LAYER_01
 10
1407.100814180495
 20
788.6963705178323
 30
0.0
  0
VERTEX
  5
16B
  8
LAYER_01
 10
1407.100814180495
 20
715.7177860897992
 30
0.0
 42
-0.8862280326491085
  0
VERTEX
  5
16C
  8
LAYER_01
 10
1368.593613481496
 20
757.0293433552561
 30
0.0
  0
SEQEND
  5
16D
  8
LAYER_01
  0
POLYLINE
  5
16E
  8
LAYER_01
 66
     1
 10
0.0
 20
0.0
 30
0.0
 70
     1
  0
VERTEX
  5
16F
  8
LAYER_01
 10
1231.044032999078
 20
816.1585809501972
 30
0.0
 42
0.2139926560660855
  0
VERTEX
  5
170
  8
LAYER_01
 10
1277.680736237074
 20
805.5158137284845
 30
0.0
  0
VERTEX
  5
171
  8
LAYER_01
 10
1333.037704071304
 20
750.1588458942556
 30
0.0
 42
0.2139926560660808
  0
VERTEX
  5
172
  8
LAYER_01
 10
1343.680471293017
 20
703.5221426562581
 30
0.0
  0
VERTEX
  5
173
  8
LAYER_01
 10
1231.044032999078
 20
703.522142656258
 30
0.0
  0
SEQEND
  5
174
  8
LAYER_01
  0
POLYLINE
  5
175
  8
LAYER_01
 66
     1
 10
0.0
 20
0.0
 30
0.0
 70
     1
  0
VERTEX
  5
176
  8
LAYER_01
 10
974.7615193870333
 20
841.0717231386764
 30
0.0
 42
0.8862280326490808
  0
VERTEX
  5
177
  8
LAYER_01
 10
1016.07307665249
 20
879.5789238376747
 30
0.0
  0
VERTEX
  5
178
  8
LAYER_01
 10
943.0944922244576
 20
879.5789238376747
 30
0.0
  0
VERTEX
  5
179
  8
LAYER_01
 10
852.2119389046147
 20
788.6963705178323
 30
0.0
  0
VERTEX
  5
17A
  8
LAYER_01
 10
852.2119389046145
 20
715.7177860897991
 30
0.0
 42
0.886228032649089
  0
VERTEX
  5
17B
  8
LAYER_01
 10
890.7191396036129
 20
757.0293433552561
 30
0.0
  0
SEQEND
  5
17C
  8
LAYER_01
  0
POLYLINE
  5
17D
  8
LAYER_01
 66
     1
 10
0.0
 20
0.0
 30
0.0
 70
     1
  0
VERTEX
  5
17E
  8
LAYER_01
 10
1028.268720086031
 20
816.1585809501972
 30
0.0
 42
-0.2139926560660864
  0
VERTEX
  5
17F
  8
LAYER_01
 10
981.6320168480347
 20
805.5158137284845
 30
0.0
  0
VERTEX
  5
180
  8
LAYER_01
 10
926.2750490138045
 20
750.1588458942556
 30
0.0
 42
-0.2139926560660906
  0
VERTEX
  5
181
  8
LAYER_01
 10
915.6322817920919
 20
703.5221426562581
 30
0.0
  0
VERTEX
  5
182
  8
LAYER_01
 10
1028.268720086031
 20
703.522142656258
 30
0.0
  0
SEQEND
  5
183
  8
LAYER_01
  0
POLYLINE
  5
184
  8
LAYER_01
 66
     1
 10
0.0
 20
0.0
 30
0.0
 70
     1
  0
VERTEX
  5
185
  8
LAYER_01
 10
646.1551577231978
 20
530.7468297432115
 30
0.0
  0
VERTEX
  5
186
  8
LAYER_01
 10
818.1677886117284
 20
530.7468297432115
 30
0.0
  0
VERTEX
  5
187
  8
LAYER_01
 10
818.1677886117286
 20
583.0903359068484
 30
0.0
  0
VERTEX
  5
188
  8
LAYER_01
 10
646.155157723198
 20
583.0903359068484
 30
0.0
  0
SEQEND
  5
189
  8
LAYER_01
  0
POLYLINE
  5
18A
  8
LAYER_01
 66
     1
 10
0.0
 20
0.0
 30
0.0
 70
     1
  0
VERTEX
  5
18B
  8
LAYER_01
 10
646.1551577231978
 20
673.522142656258
 30
0.0
  0
VERTEX
  5
18C
  8
LAYER_01
 10
818.1677886117284
 20
673.522142656258
 30
0.0
  0
VERTEX
  5
18D
  8
LAYER_01
 10
818.1677886117285
 20
621.1786364926209
 30
0.0
  0
VERTEX
  5
18E
  8
LAYER_01
 10
646.155157723198
 20
621.178636492621
 30
0.0
  0
SEQEND
  5
18F
  8
LAYER_01
  0
POLYLINE
  5
190
  8
LAYER_01
 66
     1
 10
0.0
 20
0.0
 30
0.0
  0
VERTEX
  5
191
  8
LAYER_01
 10
563.8116515595611
 20
328.7341988546811
 30
0.0
  0
VERTEX
  5
192
  8
LAYER_01
 10
563.8116515595611
 20
436.8681170878787
 30
0.0
  0
VERTEX
  5
193
  8
LAYER_01
 10
616.155157723198
 20
436.8681170878787
 30
0.0
  0
VERTEX
  5
194
  8
LAYER_01
 10
616.155157723198
 20
328.7341988546812
 30
0.0
  0
VERTEX
  5
195
  8
LAYER_01
 10
473.3798448101516
 20
328.7341988546812
 30
0.0
  0
VERTEX
  5
196
  8
LAYER_01
 10
473.3798448101516
 20
436.8681170878787
 30
0.0
  0
VERTEX
  5
197
  8
LAYER_01
 10
525.7233509737885
 20
436.8681170878787
 30
0.0
  0
VERTEX
  5
198
  8
LAYER_01
 10
525.7233509737885
 20
328.7341988546812
 30
0.0
  0
SEQEND
  5
199
  8
LAYER_01
  0
POLYLINE
  5
19A
  8
LAYER_01
 66
     1
 10
0.0
 20
0.0
 30
0.0
  0
VERTEX
  5
19B
  8
LAYER_01
 10
525.7233509737885
 20
583.0903359068484
 30
0.0
  0
VERTEX
  5
19C
  8
LAYER_01
 10
525.7233509737885
 20
474.9564176736512
 30
0.0
  0
VERTEX
  5
19D
  8
LAYER_01
 10
473.3798448101516
 20
474.9564176736512
 30
0.0
  0
VERTEX
  5
19E
  8
LAYER_01
 10
473.3798448101516
 20
583.0903359068484
 30
0.0
  0
VERTEX
  5
19F
  8
LAYER_01
 10
616.155157723198
 20
583.0903359068484
 30
0.0
  0
VERTEX
  5
1A0
  8
LAYER_01
 10
616.155157723198
 20
474.9564176736512
 30
0.0
  0
VERTEX
  5
1A1
  8
LAYER_01
 10
563.8116515595611
 20
474.9564176736512
 30
0.0
  0
VERTEX
  5
1A2
  8
LAYER_01
 10
563.8116515595611
 20
583.0903359068484
 30
0.0
  0
SEQEND
  5
1A3
  8
LAYER_01
  0
POLYLINE
  5
1A4
  8
LAYER_01
 66
     1
 10
0.0
 20
0.0
 30
0.0
 70
     1
  0
VERTEX
  5
1A5
  8
LAYER_01
 10
616.155157723198
 20
767.4008553115908
 30
0.0
  0
VERTEX
  5
1A6
  8
LAYER_01
 10
563.8116515595611
 20
767.4008553115909
 30
0.0
  0
VERTEX
  5
1A7
  8
LAYER_01
 10
563.8116515595611
 20
875.5347735447883
 30
0.0
  0
VERTEX
  5
1A8
  8
LAYER_01
 10
616.155157723198
 20
875.5347735447883
 30
0.0
  0
SEQEND
  5
1A9
  8
LAYER_01
  0
POLYLINE
  5
1AA
  8
LAYER_01
 66
     1
 10
0.0
 20
0.0
 30
0.0
 70
     1
  0
VERTEX
  5
1AB
  8
LAYER_01
 10
525.7233509737885
 20
875.5347735447884
 30
0.0
  0
VERTEX
  5
1AC
  8
LAYER_01
 10
525.7233509737885
 20
767.4008553115907
 30
0.0
  0
VERTEX
  5
1AD
  8
LAYER_01
 10
473.3798448101516
 20
767.4008553115907
 30
0.0
  0
VERTEX
  5
1AE
  8
LAYER_01
 10
473.3798448101516
 20
875.5347735447883
 30
0.0
  0
SEQEND
  5
1AF
  8
LAYER_01
  0
POLYLINE
  5
1B0
  8
LAYER_01
 66
     1
 10
0.0
 20
0.0
 30
0.0
 70
     1
  0
VERTEX
  5
1B1
  8
LAYER_01
 10
271.3672139216212
 20
583.0903359068484
 30
0.0
  0
VERTEX
  5
1B2
  8
LAYER_01
 10
443.3798448101516
 20
583.0903359068484
 30
0.0
  0
VERTEX
  5
1B3
  8
LAYER_01
 10
443.3798448101516
 20
530.7468297432115
 30
0.0
  0
VERTEX
  5
1B4
  8
LAYER_01
 10
271.367213921621
 20
530.7468297432115
 30
0.0
  0
SEQEND
  5
1B5
  8
LAYER_01
  0
POLYLINE
  5
1B6
  8
LAYER_01
 66
     1
 10
0.0
 20
0.0
 30
0.0
 70
     1
  0
VERTEX
  5
1B7
  8
LAYER_01
 10
443.3798448101516
 20
621.1786364926209
 30
0.0
  0
VERTEX
  5
1B8
  8
LAYER_01
 10
443.3798448101516
 20
673.522142656258
 30
0.0
  0
VERTEX
  5
1B9
  8
LAYER_01
 10
271.367213921621
 20
673.522142656258
 30
0.0
  0
VERTEX
  5
1BA
  8
LAYER_01
 10
271.367213921621
 20
621.1786364926209
 30
0.0
  0
SEQEND
  5
1BB
  8
LAYER_01
  0
POLYLINE
  5
1BC
  8
LAYER_01
 66
     1
 10
0.0
 20
0.0
 30
0.0
 70
     1
  0
VERTEX
  5
1BD
  8
LAYER_01
 10
525.7233509737887
 20
621.178636492621
 30
0.0
  0
VERTEX
  5
1BE
  8
LAYER_01
 10
473.3798448101516
 20
621.1786364926209
 30
0.0
  0
VERTEX
  5
1BF
  8
LAYER_01
 10
473.3798448101516
 20
729.3125547258182
 30
0.0
  0
VERTEX
  5
1C0
  8
LAYER_01
 10
525.7233509737885
 20
729.3125547258182
 30
0.0
  0
SEQEND
  5
1C1
  8
LAYER_01
  0
POLYLINE
  5
1C2
  8
LAYER_01
 66
     1
 10
0.0
 20
0.0
 30
0.0
 70
     1
  0
VERTEX
  5
1C3
  8
LAYER_01
 10
563.8116515595611
 20
621.1786364926211
 30
0.0
  0
VERTEX
  5
1C4
  8
LAYER_01
 10
563.8116515595611
 20
729.3125547258182
 30
0.0
  0
VERTEX
  5
1C5
  8
LAYER_01
 10
616.155157723198
 20
729.3125547258182
 30
0.0
  0
VERTEX
  5
1C6
  8
LAYER_01
 10
616.155157723198
 20
621.178636492621
 30
0.0
  0
SEQEND
  5
1C7
  8
LAYER_01
  0
LINE
  5
1C8
  8
LAYER_01
 10
330.7792100773847
 20
309.6900485617948
 30
0.0
 11
252.3230636287349
 21
388.1461950104447
 31
0.0
  0
LINE
  5
1C9
  8
LAYER_01
 10
330.7792100773847
 20
894.5789238376747
 30
0.0
 11
252.3230636287349
 21
816.1227773890248
 31
0.0
  0
LINE
  5
1CA
  8
LAYER_01
 10
758.7557924559649
 20
309.6900485617948
 30
0.0
 11
837.2119389046147
 21
388.1461950104447
 31
0.0
  0
LINE
  5
1CB
  8
LAYER_01
 10
758.7557924559649
 20
894.5789238376747
 30
0.0
 11
837.2119389046147
 21
816.1227773890248
 31
0.0
  0
POLYLINE
  5
1CC
  8
LAYER_01
 66
     1
 10
0.0
 20
0.0
 30
0.0
 70
     1
  0
VERTEX
  5
1CD
  8
LAYER_01
 10
305.8302643277332
 20
447.2396290442134
 30
0.0
 42
0.886228032649087
  0
VERTEX
  5
1CE
  8
LAYER_01
 10
267.3230636287349
 20
488.5511863096704
 30
0.0
  0
VERTEX
  5
1CF
  8
LAYER_01
 10
267.3230636287349
 20
415.5726018816376
 30
0.0
  0
VERTEX
  5
1D0
  8
LAYER_01
 10
358.2056169485772
 20
324.6900485617948
 30
0.0
  0
VERTEX
  5
1D1
  8
LAYER_01
 10
431.1842013766105
 20
324.6900485617945
 30
0.0
 42
0.8862280326490737
  0
VERTEX
  5
1D2
  8
LAYER_01
 10
389.8726441111535
 20
363.197249260793
 30
0.0
  0
SEQEND
  5
1D3
  8
LAYER_01
  0
POLYLINE
  5
1D4
  8
LAYER_01
 66
     1
 10
0.0
 20
0.0
 30
0.0
 70
     1
  0
VERTEX
  5
1D5
  8
LAYER_01
 10
330.7434065162124
 20
500.7468297432112
 30
0.0
 42
-0.2139926560660854
  0
VERTEX
  5
1D6
  8
LAYER_01
 10
341.3861737379249
 20
454.1101265052148
 30
0.0
  0
VERTEX
  5
1D7
  8
LAYER_01
 10
396.7431415721539
 20
398.7531586709846
 30
0.0
 42
-0.2139926560660915
  0
VERTEX
  5
1D8
  8
LAYER_01
 10
443.3798448101514
 20
388.110391449272
 30
0.0
  0
VERTEX
  5
1D9
  8
LAYER_01
 10
443.3798448101516
 20
500.7468297432115
 30
0.0
  0
SEQEND
  5
1DA
  8
LAYER_01
  0
POLYLINE
  5
1DB
  8
LAYER_01
 66
     1
 10
0.0
 20
0.0
 30
0.0
 70
     1
  0
VERTEX
  5
1DC
  8
LAYER_01
 10
305.8302643277332
 20
757.0293433552561
 30
0.0
 42
-0.8862280326490856
  0
VERTEX
  5
1DD
  8
LAYER_01
 10
267.3230636287349
 20
715.717786089799
 30
0.0
  0
VERTEX
  5
1DE
  8
LAYER_01
 10
267.3230636287349
 20
788.6963705178318
 30
0.0
  0
VERTEX
  5
1DF
  8
LAYER_01
 10
358.2056169485772
 20
879.5789238376747
 30
0.0
  0
VERTEX
  5
1E0
  8
LAYER_01
 10
431.1842013766104
 20
879.5789238376749
 30
0.0
 42
-0.886228032649089
  0
VERTEX
  5
1E1
  8
LAYER_01
 10
389.8726441111535
 20
841.0717231386765
 30
0.0
  0
SEQEND
  5
1E2
  8
LAYER_01
  0
POLYLINE
  5
1E3
  8
LAYER_01
 66
     1
 10
0.0
 20
0.0
 30
0.0
 70
     1
  0
VERTEX
  5
1E4
  8
LAYER_01
 10
330.7434065162124
 20
703.5221426562583
 30
0.0
 42
0.213992656066085
  0
VERTEX
  5
1E5
  8
LAYER_01
 10
341.3861737379249
 20
750.1588458942547
 30
0.0
  0
VERTEX
  5
1E6
  8
LAYER_01
 10
396.7431415721539
 20
805.5158137284849
 30
0.0
 42
0.2139926560660829
  0
VERTEX
  5
1E7
  8
LAYER_01
 10
443.3798448101514
 20
816.1585809501975
 30
0.0
  0
VERTEX
  5
1E8
  8
LAYER_01
 10
443.3798448101516
 20
703.522142656258
 30
0.0
  0
SEQEND
  5
1E9
  8
LAYER_01
  0
POLYLINE
  5
1EA
  8
LAYER_01
 66
     1
 10
0.0
 20
0.0
 30
0.0
 70
     1
  0
VERTEX
  5
1EB
  8
LAYER_01
 10
783.7047382056164
 20
447.2396290442134
 30
0.0
 42
-0.886228032649087
  0
VERTEX
  5
1EC
  8
LAYER_01
 10
822.2119389046147
 20
488.5511863096704
 30
0.0
  0
VERTEX
  5
1ED
  8
LAYER_01
 10
822.2119389046147
 20
415.5726018816376
 30
0.0
  0
VERTEX
  5
1EE
  8
LAYER_01
 10
731.3293855847724
 20
324.6900485617948
 30
0.0
  0
VERTEX
  5
1EF
  8
LAYER_01
 10
658.3508011567392
 20
324.6900485617946
 30
0.0
 42
-0.8862280326490751
  0
VERTEX
  5
1F0
  8
LAYER_01
 10
699.6623584221961
 20
363.197249260793
 30
0.0
  0
SEQEND
  5
1F1
  8
LAYER_01
  0
POLYLINE
  5
1F2
  8
LAYER_01
 66
     1
 10
0.0
 20
0.0
 30
0.0
 70
     1
  0
VERTEX
  5
1F3
  8
LAYER_01
 10
758.7915960171373
 20
500.7468297432112
 30
0.0
 42
0.2139926560660856
  0
VERTEX
  5
1F4
  8
LAYER_01
 10
748.1488287954246
 20
454.1101265052148
 30
0.0
  0
VERTEX
  5
1F5
  8
LAYER_01
 10
692.7918609611957
 20
398.7531586709846
 30
0.0
 42
0.2139926560660906
  0
VERTEX
  5
1F6
  8
LAYER_01
 10
646.1551577231982
 20
388.110391449272
 30
0.0
  0
VERTEX
  5
1F7
  8
LAYER_01
 10
646.155157723198
 20
500.7468297432115
 30
0.0
  0
SEQEND
  5
1F8
  8
LAYER_01
  0
POLYLINE
  5
1F9
  8
LAYER_01
 66
     1
 10
0.0
 20
0.0
 30
0.0
 70
     1
  0
VERTEX
  5
1FA
  8
LAYER_01
 10
783.7047382056164
 20
757.0293433552561
 30
0.0
 42
0.8862280326490808
  0
VERTEX
  5
1FB
  8
LAYER_01
 10
822.2119389046147
 20
715.717786089799
 30
0.0
  0
VERTEX
  5
1FC
  8
LAYER_01
 10
822.2119389046147
 20
788.6963705178318
 30
0.0
  0
VERTEX
  5
1FD
  8
LAYER_01
 10
731.3293855847724
 20
879.5789238376747
 30
0.0
  0
VERTEX
  5
1FE
  8
LAYER_01
 10
658.3508011567392
 20
879.5789238376749
 30
0.0
 42
0.886228032649089
  0
VERTEX
  5
1FF
  8
LAYER_01
 10
699.6623584221961
 20
841.0717231386765
 30
0.0
  0
SEQEND
  5
200
  8
LAYER_01
  0
POLYLINE
  5
201
  8
LAYER_01
 66
     1
 10
0.0
 20
0.0
 30
0.0
 70
     1
  0
VERTEX
  5
202
  8
LAYER_01
 10
758.7915960171373
 20
703.5221426562583
 30
0.0
 42
-0.2139926560660851
  0
VERTEX
  5
203
  8
LAYER_01
 10
748.1488287954246
 20
750.1588458942547
 30
0.0
  0
VERTEX
  5
204
  8
LAYER_01
 10
692.7918609611957
 20
805.5158137284849
 30
0.0
 42
-0.2139926560660906
  0
VERTEX
  5
205
  8
LAYER_01
 10
646.1551577231982
 20
816.1585809501975
 30
0.0
  0
VERTEX
  5
206
  8
LAYER_01
 10
646.155157723198
 20
703.522142656258
 30
0.0
  0
SEQEND
  5
207
  8
LAYER_01
  0
POLYLINE
  5
208
  8
LAYER_01
 66
     1
 10
0.0
 20
0.0
 30
0.0
 70
     1
  0
VERTEX
  5
209
  8
LAYER_01
 10
473.3798448101516
 20
1085.635705019092
 30
0.0
  0
VERTEX
  5
20A
  8
LAYER_01
 10
473.3798448101516
 20
913.623074130561
 30
0.0
  0
VERTEX
  5
20B
  8
LAYER_01
 10
525.7233509737885
 20
913.6230741305608
 30
0.0
  0
VERTEX
  5
20C
  8
LAYER_01
 10
525.7233509737885
 20
1085.635705019091
 30
0.0
  0
SEQEND
  5
20D
  8
LAYER_01
  0
POLYLINE
  5
20E
  8
LAYER_01
 66
     1
 10
0.0
 20
0.0
 30
0.0
 70
     1
  0
VERTEX
  5
20F
  8
LAYER_01
 10
616.155157723198
 20
1085.635705019092
 30
0.0
  0
VERTEX
  5
210
  8
LAYER_01
 10
616.155157723198
 20
913.623074130561
 30
0.0
  0
VERTEX
  5
211
  8
LAYER_01
 10
563.8116515595609
 20
913.6230741305609
 30
0.0
  0
VERTEX
  5
212
  8
LAYER_01
 10
563.811651559561
 20
1085.635705019091
 30
0.0
  0
SEQEND
  5
213
  8
LAYER_01
  0
POLYLINE
  5
214
  8
LAYER_01
 66
     1
 10
0.0
 20
0.0
 30
0.0
  0
VERTEX
  5
215
  8
LAYER_01
 10
271.3672139216212
 20
1167.979211182728
 30
0.0
  0
VERTEX
  5
216
  8
LAYER_01
 10
379.5011321548187
 20
1167.979211182728
 30
0.0
  0
VERTEX
  5
217
  8
LAYER_01
 10
379.5011321548188
 20
1115.635705019091
 30
0.0
  0
VERTEX
  5
218
  8
LAYER_01
 10
271.3672139216212
 20
1115.635705019091
 30
0.0
  0
VERTEX
  5
219
  8
LAYER_01
 10
271.3672139216212
 20
1258.411017932138
 30
0.0
  0
VERTEX
  5
21A
  8
LAYER_01
 10
379.5011321548188
 20
1258.411017932138
 30
0.0
  0
VERTEX
  5
21B
  8
LAYER_01
 10
379.5011321548188
 20
1206.067511768501
 30
0.0
  0
VERTEX
  5
21C
  8
LAYER_01
 10
271.3672139216212
 20
1206.067511768501
 30
0.0
  0
SEQEND
  5
21D
  8
LAYER_01
  0
POLYLINE
  5
21E
  8
LAYER_01
 66
     1
 10
0.0
 20
0.0
 30
0.0
  0
VERTEX
  5
21F
  8
LAYER_01
 10
525.7233509737885
 20
1206.067511768501
 30
0.0
  0
VERTEX
  5
220
  8
LAYER_01
 10
417.5894327405913
 20
1206.067511768501
 30
0.0
  0
VERTEX
  5
221
  8
LAYER_01
 10
417.5894327405913
 20
1258.411017932138
 30
0.0
  0
VERTEX
  5
222
  8
LAYER_01
 10
525.7233509737885
 20
1258.411017932138
 30
0.0
  0
VERTEX
  5
223
  8
LAYER_01
 10
525.7233509737885
 20
1115.635705019091
 30
0.0
  0
VERTEX
  5
224
  8
LAYER_01
 10
417.5894327405913
 20
1115.635705019091
 30
0.0
  0
VERTEX
  5
225
  8
LAYER_01
 10
417.5894327405913
 20
1167.979211182728
 30
0.0
  0
VERTEX
  5
226
  8
LAYER_01
 10
525.7233509737885
 20
1167.979211182728
 30
0.0
  0
SEQEND
  5
227
  8
LAYER_01
  0
POLYLINE
  5
228
  8
LAYER_01
 66
     1
 10
0.0
 20
0.0
 30
0.0
 70
     1
  0
VERTEX
  5
229
  8
LAYER_01
 10
710.0338703785309
 20
1115.635705019091
 30
0.0
  0
VERTEX
  5
22A
  8
LAYER_01
 10
710.033870378531
 20
1167.979211182728
 30
0.0
  0
VERTEX
  5
22B
  8
LAYER_01
 10
818.1677886117284
 20
1167.979211182728
 30
0.0
  0
VERTEX
  5
22C
  8
LAYER_01
 10
818.1677886117284
 20
1115.635705019091
 30
0.0
  0
SEQEND
  5
22D
  8
LAYER_01
  0
POLYLINE
  5
22E
  8
LAYER_01
 66
     1
 10
0.0
 20
0.0
 30
0.0
 70
     1
  0
VERTEX
  5
22F
  8
LAYER_01
 10
818.1677886117285
 20
1206.067511768501
 30
0.0
  0
VERTEX
  5
230
  8
LAYER_01
 10
710.0338703785308
 20
1206.067511768501
 30
0.0
  0
VERTEX
  5
231
  8
LAYER_01
 10
710.0338703785308
 20
1258.411017932138
 30
0.0
  0
VERTEX
  5
232
  8
LAYER_01
 10
818.1677886117284
 20
1258.411017932138
 30
0.0
  0
SEQEND
  5
233
  8
LAYER_01
  0
POLYLINE
  5
234
  8
LAYER_01
 66
     1
 10
0.0
 20
0.0
 30
0.0
 70
     1
  0
VERTEX
  5
235
  8
LAYER_01
 10
525.7233509737885
 20
1460.423648820668
 30
0.0
  0
VERTEX
  5
236
  8
LAYER_01
 10
525.7233509737885
 20
1288.411017932138
 30
0.0
  0
VERTEX
  5
237
  8
LAYER_01
 10
473.3798448101516
 20
1288.411017932138
 30
0.0
  0
VERTEX
  5
238
  8
LAYER_01
 10
473.3798448101516
 20
1460.423648820668
 30
0.0
  0
SEQEND
  5
239
  8
LAYER_01
  0
POLYLINE
  5
23A
  8
LAYER_01
 66
     1
 10
0.0
 20
0.0
 30
0.0
 70
     1
  0
VERTEX
  5
23B
  8
LAYER_01
 10
563.8116515595609
 20
1288.411017932138
 30
0.0
  0
VERTEX
  5
23C
  8
LAYER_01
 10
616.155157723198
 20
1288.411017932138
 30
0.0
  0
VERTEX
  5
23D
  8
LAYER_01
 10
616.155157723198
 20
1460.423648820668
 30
0.0
  0
VERTEX
  5
23E
  8
LAYER_01
 10
563.8116515595609
 20
1460.423648820668
 30
0.0
  0
SEQEND
  5
23F
  8
LAYER_01
  0
POLYLINE
  5
240
  8
LAYER_01
 66
     1
 10
0.0
 20
0.0
 30
0.0
 70
     1
  0
VERTEX
  5
241
  8
LAYER_01
 10
563.811651559561
 20
1206.067511768501
 30
0.0
  0
VERTEX
  5
242
  8
LAYER_01
 10
563.8116515595609
 20
1258.411017932138
 30
0.0
  0
VERTEX
  5
243
  8
LAYER_01
 10
671.9455697927583
 20
1258.411017932138
 30
0.0
  0
VERTEX
  5
244
  8
LAYER_01
 10
671.9455697927583
 20
1206.067511768501
 30
0.0
  0
SEQEND
  5
245
  8
LAYER_01
  0
POLYLINE
  5
246
  8
LAYER_01
 66
     1
 10
0.0
 20
0.0
 30
0.0
 70
     1
  0
VERTEX
  5
247
  8
LAYER_01
 10
563.8116515595611
 20
1167.979211182728
 30
0.0
  0
VERTEX
  5
248
  8
LAYER_01
 10
671.9455697927583
 20
1167.979211182728
 30
0.0
  0
VERTEX
  5
249
  8
LAYER_01
 10
671.9455697927583
 20
1115.635705019091
 30
0.0
  0
VERTEX
  5
24A
  8
LAYER_01
 10
563.811651559561
 20
1115.635705019091
 30
0.0
  0
SEQEND
  5
24B
  8
LAYER_01
  0
LINE
  5
24C
  8
LAYER_01
 10
252.3230636287349
 20
1401.011652664905
 30
0.0
 11
330.7792100773847
 21
1479.467799113555
 31
0.0
  0
LINE
  5
24D
  8
LAYER_01
 10
837.2119389046147
 20
1401.011652664905
 30
0.0
 11
758.7557924559649
 21
1479.467799113555
 31
0.0
  0
LINE
  5
24E
  8
LAYER_01
 10
252.3230636287349
 20
973.0350702863245
 30
0.0
 11
330.7792100773847
 21
894.5789238376747
 31
0.0
  0
LINE
  5
24F
  8
LAYER_01
 10
837.2119389046147
 20
973.0350702863245
 30
0.0
 11
758.7557924559649
 21
894.5789238376747
 31
0.0
  0
POLYLINE
  5
250
  8
LAYER_01
 66
     1
 10
0.0
 20
0.0
 30
0.0
 70
     1
  0
VERTEX
  5
251
  8
LAYER_01
 10
389.8726441111535
 20
1425.960598414556
 30
0.0
 42
0.8862280326490918
  0
VERTEX
  5
252
  8
LAYER_01
 10
431.1842013766104
 20
1464.467799113555
 30
0.0
  0
VERTEX
  5
253
  8
LAYER_01
 10
358.2056169485777
 20
1464.467799113555
 30
0.0
  0
VERTEX
  5
254
  8
LAYER_01
 10
267.3230636287349
 20
1373.585245793712
 30
0.0
  0
VERTEX
  5
255
  8
LAYER_01
 10
267.3230636287348
 20
1300.606661365679
 30
0.0
 42
0.8862280326490678
  0
VERTEX
  5
256
  8
LAYER_01
 10
305.8302643277331
 20
1341.918218631136
 30
0.0
  0
SEQEND
  5
257
  8
LAYER_01
  0
POLYLINE
  5
258
  8
LAYER_01
 66
     1
 10
0.0
 20
0.0
 30
0.0
 70
     1
  0
VERTEX
  5
259
  8
LAYER_01
 10
443.3798448101513
 20
1401.047456226077
 30
0.0
 42
-0.2139926560660856
  0
VERTEX
  5
25A
  8
LAYER_01
 10
396.7431415721549
 20
1390.404689004364
 30
0.0
  0
VERTEX
  5
25B
  8
LAYER_01
 10
341.3861737379247
 20
1335.047721170135
 30
0.0
 42
-0.2139926560660906
  0
VERTEX
  5
25C
  8
LAYER_01
 10
330.743406516212
 20
1288.411017932138
 30
0.0
  0
VERTEX
  5
25D
  8
LAYER_01
 10
443.3798448101516
 20
1288.411017932138
 30
0.0
  0
SEQEND
  5
25E
  8
LAYER_01
  0
POLYLINE
  5
25F
  8
LAYER_01
 66
     1
 10
0.0
 20
0.0
 30
0.0
 70
     1
  0
VERTEX
  5
260
  8
LAYER_01
 10
699.6623584221961
 20
1425.960598414556
 30
0.0
 42
-0.8862280326490903
  0
VERTEX
  5
261
  8
LAYER_01
 10
658.3508011567391
 20
1464.467799113555
 30
0.0
  0
VERTEX
  5
262
  8
LAYER_01
 10
731.3293855847719
 20
1464.467799113555
 30
0.0
  0
VERTEX
  5
263
  8
LAYER_01
 10
822.2119389046147
 20
1373.585245793712
 30
0.0
  0
VERTEX
  5
264
  8
LAYER_01
 10
822.211938904615
 20
1300.606661365679
 30
0.0
 42
-0.886228032649089
  0
VERTEX
  5
265
  8
LAYER_01
 10
783.7047382056165
 20
1341.918218631136
 30
0.0
  0
SEQEND
  5
266
  8
LAYER_01
  0
POLYLINE
  5
267
  8
LAYER_01
 66
     1
 10
0.0
 20
0.0
 30
0.0
 70
     1
  0
VERTEX
  5
268
  8
LAYER_01
 10
646.1551577231984
 20
1401.047456226077
 30
0.0
 42
0.2139926560660851
  0
VERTEX
  5
269
  8
LAYER_01
 10
692.7918609611947
 20
1390.404689004364
 30
0.0
  0
VERTEX
  5
26A
  8
LAYER_01
 10
748.148828795425
 20
1335.047721170135
 30
0.0
 42
0.2139926560660906
  0
VERTEX
  5
26B
  8
LAYER_01
 10
758.7915960171375
 20
1288.411017932138
 30
0.0
  0
VERTEX
  5
26C
  8
LAYER_01
 10
646.155157723198
 20
1288.411017932138
 30
0.0
  0
SEQEND
  5
26D
  8
LAYER_01
  0
POLYLINE
  5
26E
  8
LAYER_01
 66
     1
 10
0.0
 20
0.0
 30
0.0
 70
     1
  0
VERTEX
  5
26F
  8
LAYER_01
 10
389.8726441111535
 20
948.086124536673
 30
0.0
 42
-0.886228032649087
  0
VERTEX
  5
270
  8
LAYER_01
 10
431.1842013766104
 20
909.5789238376747
 30
0.0
  0
VERTEX
  5
271
  8
LAYER_01
 10
358.2056169485777
 20
909.5789238376747
 30
0.0
  0
VERTEX
  5
272
  8
LAYER_01
 10
267.3230636287349
 20
1000.461477157517
 30
0.0
  0
VERTEX
  5
273
  8
LAYER_01
 10
267.3230636287345
 20
1073.44006158555
 30
0.0
 42
-0.8862280326490755
  0
VERTEX
  5
274
  8
LAYER_01
 10
305.8302643277331
 20
1032.128504320093
 30
0.0
  0
SEQEND
  5
275
  8
LAYER_01
  0
POLYLINE
  5
276
  8
LAYER_01
 66
     1
 10
0.0
 20
0.0
 30
0.0
 70
     1
  0
VERTEX
  5
277
  8
LAYER_01
 10
443.3798448101513
 20
972.9992667251521
 30
0.0
 42
0.2139926560660856
  0
VERTEX
  5
278
  8
LAYER_01
 10
396.7431415721549
 20
983.6420339468648
 30
0.0
  0
VERTEX
  5
279
  8
LAYER_01
 10
341.3861737379247
 20
1038.999001781094
 30
0.0
 42
0.2139926560660906
  0
VERTEX
  5
27A
  8
LAYER_01
 10
330.743406516212
 20
1085.635705019091
 30
0.0
  0
VERTEX
  5
27B
  8
LAYER_01
 10
443.3798448101516
 20
1085.635705019091
 30
0.0
  0
SEQEND
  5
27C
  8
LAYER_01
  0
POLYLINE
  5
27D
  8
LAYER_01
 66
     1
 10
0.0
 20
0.0
 30
0.0
 70
     1
  0
VERTEX
  5
27E
  8
LAYER_01
 10
699.6623584221961
 20
948.086124536673
 30
0.0
 42
0.8862280326490808
  0
VERTEX
  5
27F
  8
LAYER_01
 10
658.3508011567391
 20
909.5789238376747
 30
0.0
  0
VERTEX
  5
280
  8
LAYER_01
 10
731.3293855847719
 20
909.5789238376747
 30
0.0
  0
VERTEX
  5
281
  8
LAYER_01
 10
822.2119389046147
 20
1000.461477157517
 30
0.0
  0
VERTEX
  5
282
  8
LAYER_01
 10
822.211938904615
 20
1073.44006158555
 30
0.0
 42
0.886228032649089
  0
VERTEX
  5
283
  8
LAYER_01
 10
783.7047382056165
 20
1032.128504320093
 30
0.0
  0
SEQEND
  5
284
  8
LAYER_01
  0
POLYLINE
  5
285
  8
LAYER_01
 66
     1
 10
0.0
 20
0.0
 30
0.0
 70
     1
  0
VERTEX
  5
286
  8
LAYER_01
 10
646.1551577231984
 20
972.9992667251521
 30
0.0
 42
-0.2139926560660851
  0
VERTEX
  5
287
  8
LAYER_01
 10
692.7918609611947
 20
983.6420339468648
 30
0.0
  0
VERTEX
  5
288
  8
LAYER_01
 10
748.148828795425
 20
1038.999001781094
 30
0.0
 42
-0.2139926560660906
  0
VERTEX
  5
289
  8
LAYER_01
 10
758.7915960171375
 20
1085.635705019091
 30
0.0
  0
VERTEX
  5
28A
  8
LAYER_01
 10
646.155157723198
 20
1085.635705019091
 30
0.0
  0
SEQEND
  5
28B
  8
LAYER_01
  0
ENDSEC
  0
EOF
