  0
SECTION
  2
HEADER
  9
$ACADVER
  1
AC1009
  9
$DWGCODEPAGE
  3
ansi_1252
  9
$INSBASE
 10
0.0
 20
0.0
 30
0.0
  9
$EXTMIN
 10
1.000000000000000E+20
 20
1.000000000000000E+20
 30
1.000000000000000E+20
  9
$EXTMAX
 10
-1.000000000000000E+20
 20
-1.000000000000000E+20
 30
-1.000000000000000E+20
  9
$LIMMIN
 10
0.0
 20
0.0
  9
$LIMMAX
 10
12.0
 20
9.0
  9
$ORTHOMODE
 70
     0
  9
$REGENMODE
 70
     1
  9
$FILLMODE
 70
     1
  9
$QTEXTMODE
 70
     0
  9
$MIRRTEXT
 70
     1
  9
$DRAGMODE
 70
     2
  9
$LTSCALE
 40
1.0
  9
$OSMODE
 70
    37
  9
$ATTMODE
 70
     1
  9
$TEXTSIZE
 40
0.2
  9
$TRACEWID
 40
0.05
  9
$TEXTSTYLE
  7
STANDARD
  9
$CLAYER
  8
0
  9
$CELTYPE
  6
BYLAYER
  9
$CECOLOR
 62
   256
  9
$DIMSCALE
 40
1.0
  9
$DIMASZ
 40
0.18
  9
$DIMEXO
 40
0.0625
  9
$DIMDLI
 40
0.38
  9
$DIMRND
 40
0.0
  9
$DIMDLE
 40
0.0
  9
$DIMEXE
 40
0.18
  9
$DIMTP
 40
0.0
  9
$DIMTM
 40
0.0
  9
$DIMTXT
 40
0.18
  9
$DIMCEN
 40
0.09
  9
$DIMTSZ
 40
0.0
  9
$DIMTOL
 70
     0
  9
$DIMLIM
 70
     0
  9
$DIMTIH
 70
     1
  9
$DIMTOH
 70
     1
  9
$DIMSE1
 70
     0
  9
$DIMSE2
 70
     0
  9
$DIMTAD
 70
     0
  9
$DIMZIN
 70
     0
  9
$DIMBLK
  1

  9
$DIMASO
 70
     1
  9
$DIMSHO
 70
     1
  9
$DIMPOST
  1

  9
$DIMAPOST
  1

  9
$DIMALT
 70
     0
  9
$DIMALTD
 70
     2
  9
$DIMALTF
 40
25.4
  9
$DIMLFAC
 40
1.0
  9
$DIMTOFL
 70
     0
  9
$DIMTVP
 40
0.0
  9
$DIMTIX
 70
     0
  9
$DIMSOXD
 70
     0
  9
$DIMSAH
 70
     0
  9
$DIMBLK1
  1

  9
$DIMBLK2
  1

  9
$DIMSTYLE
  2
STANDARD_ACAD
  9
$DIMCLRD
 70
     0
  9
$DIMCLRE
 70
     0
  9
$DIMCLRT
 70
     0
  9
$DIMTFAC
 40
1.0
  9
$DIMGAP
 40
0.09
  9
$LUNITS
 70
     2
  9
$LUPREC
 70
     3
  9
$SKETCHINC
 40
0.1
  9
$FILLETRAD
 40
0.5
  9
$AUNITS
 70
     0
  9
$AUPREC
 70
     0
  9
$MENU
  1
.
  9
$ELEVATION
 40
0.0
  9
$PELEVATION
 40
0.0
  9
$THICKNESS
 40
0.0
  9
$LIMCHECK
 70
     0
  9
$CHAMFERA
 40
0.0
  9
$CHAMFERB
 40
0.0
  9
$SKPOLY
 70
     0
  9
$TDCREATE
 40
2459821.468201447
  9
$TDUPDATE
 40
2459821.46820147
  9
$TDINDWG
 40
0.0000000116
  9
$TDUSRTIMER
 40
0.0000000116
  9
$USRTIMER
 70
     1
  9
$ANGBASE
 50
0.0
  9
$ANGDIR
 70
     0
  9
$PDMODE
 70
     0
  9
$PDSIZE
 40
0.0
  9
$PLINEWID
 40
0.0
  9
$COORDS
 70
     1
  9
$SPLFRAME
 70
     0
  9
$SPLINETYPE
 70
     6
  9
$SPLINESEGS
 70
     8
  9
$ATTDIA
 70
     0
  9
$ATTREQ
 70
     1
  9
$HANDLING
 70
     1
  9
$HANDSEED
  5
134
  9
$SURFTAB1
 70
     6
  9
$SURFTAB2
 70
     6
  9
$SURFTYPE
 70
     6
  9
$SURFU
 70
     6
  9
$SURFV
 70
     6
  9
$UCSNAME
  2

  9
$UCSORG
 10
0.0
 20
0.0
 30
0.0
  9
$UCSXDIR
 10
1.0
 20
0.0
 30
0.0
  9
$UCSYDIR
 10
0.0
 20
1.0
 30
0.0
  9
$PUCSNAME
  2

  9
$PUCSORG
 10
0.0
 20
0.0
 30
0.0
  9
$PUCSXDIR
 10
1.0
 20
0.0
 30
0.0
  9
$PUCSYDIR
 10
0.0
 20
1.0
 30
0.0
  9
$USERI1
 70
     0
  9
$USERI2
 70
     0
  9
$USERI3
 70
     0
  9
$USERI4
 70
     0
  9
$USERI5
 70
     0
  9
$USERR1
 40
0.0
  9
$USERR2
 40
0.0
  9
$USERR3
 40
0.0
  9
$USERR4
 40
0.0
  9
$USERR5
 40
0.0
  9
$WORLDVIEW
 70
     1
  9
$SHADEDGE
 70
     3
  9
$SHADEDIF
 70
    70
  9
$TILEMODE
 70
     1
  9
$MAXACTVP
 70
    64
  9
$PLIMCHECK
 70
     0
  9
$PEXTMIN
 10
1.000000000000000E+20
 20
1.000000000000000E+20
 30
1.000000000000000E+20
  9
$PEXTMAX
 10
-1.000000000000000E+20
 20
-1.000000000000000E+20
 30
-1.000000000000000E+20
  9
$PLIMMIN
 10
0.0
 20
0.0
  9
$PLIMMAX
 10
12.0
 20
9.0
  9
$UNITMODE
 70
     0
  9
$VISRETAIN
 70
     1
  9
$PLINEGEN
 70
     0
  9
$PSLTSCALE
 70
     1
  0
ENDSEC
  0
SECTION
  2
TABLES
  0
TABLE
  2
VPORT
 70
     1
  0
VPORT
  2
*ACTIVE
 70
     0
 10
0.0
 20
0.0
 11
1.0
 21
1.0
 12
10.42990654205607
 22
4.5
 13
0.0
 23
0.0
 14
0.5
 24
0.5
 15
0.5
 25
0.5
 16
0.0
 26
0.0
 36
1.0
 17
0.0
 27
0.0
 37
0.0
 40
9.0
 41
1.972972972850329
 42
50.0
 43
0.0
 44
0.0
 50
0.0
 51
0.0
 71
     0
 72
   100
 73
     1
 74
     3
 75
     0
 76
     0
 77
     0
 78
     0
  0
ENDTAB
  0
TABLE
  2
LTYPE
 70
     1
  0
LTYPE
  2
CONTINUOUS
 70
     0
  3
Solid line
 72
    65
 73
     0
 40
0.0
  0
ENDTAB
  0
TABLE
  2
LAYER
 70
     1
  0
LAYER
  2
0
 70
     0
 62
     7
  6
CONTINUOUS
  0
ENDTAB
  0
TABLE
  2
STYLE
 70
     1
  0
STYLE
  2
STANDARD
 70
     0
 40
0.0
 41
1.0
 50
0.0
 71
     0
 42
0.2
  3
txt
  4

  0
ENDTAB
  0
TABLE
  2
VIEW
 70
     0
  0
ENDTAB
  0
TABLE
  2
UCS
 70
     0
  0
ENDTAB
  0
TABLE
  2
APPID
 70
     1
  0
APPID
  2
ACAD
 70
     0
  0
ENDTAB
  0
TABLE
  2
DIMSTYLE
 70
     1
  0
DIMSTYLE
  2
STANDARD_ACAD
 70
     0
  3

  4

  5

  6

  7

 40
1.0
 41
0.18
 42
0.0625
 43
0.38
 44
0.18
 45
0.0
 46
0.0
 47
0.0
 48
0.0
140
0.18
141
0.09
142
0.0
143
25.4
144
1.0
145
0.0
146
1.0
147
0.09
 71
     0
 72
     0
 73
     1
 74
     1
 75
     0
 76
     0
 77
     0
 78
     0
170
     0
171
     2
172
     0
173
     0
174
     0
175
     0
176
     0
177
     0
178
     0
  0
ENDTAB
  0
ENDSEC
  0
SECTION
  2
BLOCKS
  0
BLOCK
  8
0
  2
$MODEL_SPACE
 70
     0
 10
0.0
 20
0.0
 30
0.0
  3
$MODEL_SPACE
  1

  0
ENDBLK
  5
21
  8
0
  0
BLOCK
 67
     1
  8
0
  2
$PAPER_SPACE
 70
     0
 10
0.0
 20
0.0
 30
0.0
  3
$PAPER_SPACE
  1

  0
ENDBLK
  5
1D
 67
     1
  8
0
  0
ENDSEC
  0
SECTION
  2
ENTITIES
  0
POLYLINE
  5
6E
  8
0
 66
     1
 10
0.0
 20
0.0
 30
0.0
 70
     1
  0
VERTEX
  5
6F
  8
0
 10
105.4642169489466
 20
63.79342713792129
 30
0.0
  0
VERTEX
  5
70
  8
0
 10
268.4446770202189
 20
63.79342713792129
 30
0.0
  0
VERTEX
  5
71
  8
0
 10
268.4446770202189
 20
380.6531359382799
 30
0.0
  0
VERTEX
  5
72
  8
0
 10
105.4642169489466
 20
380.6531359382799
 30
0.0
  0
SEQEND
  5
73
  8
0
  0
POLYLINE
  5
74
  8
0
 66
     1
 10
0.0
 20
0.0
 30
0.0
 70
     1
  0
VERTEX
  5
75
  8
0
 10
234.626354419268
 20
167.6726228218222
 30
0.0
 42
-0.3753799968004099
  0
VERTEX
  5
76
  8
0
 10
139.2825395498975
 20
167.6726228218222
 30
0.0
 42
-0.0472909111258863
  0
VERTEX
  5
77
  8
0
 10
126.6750905735356
 20
143.7753048263903
 30
0.0
 42
0.339830391728722
  0
VERTEX
  5
78
  8
0
 10
247.2338033956299
 20
143.7753048263904
 30
0.0
 42
-0.0472909111259017
  0
SEQEND
  5
79
  8
0
  0
POLYLINE
  5
7A
  8
0
 66
     1
 10
0.0
 20
0.0
 30
0.0
 70
     1
  0
VERTEX
  5
7B
  8
0
 10
224.3200208512116
 20
210.3315690586079
 30
0.0
 42
-0.7311681345482804
  0
VERTEX
  5
7C
  8
0
 10
149.5888731179539
 20
210.3315690586078
 30
0.0
 42
-0.0553799097633534
  0
VERTEX
  5
7D
  8
0
 10
143.4999046816323
 20
179.3090725609648
 30
0.0
 42
0.4178830315561586
  0
VERTEX
  5
7E
  8
0
 10
230.4089892875331
 20
179.3090725609648
 30
0.0
 42
-0.0553799097633569
  0
SEQEND
  5
7F
  8
0
  0
POLYLINE
  5
80
  8
0
 66
     1
 10
0.0
 20
0.0
 30
0.0
 70
     1
  0
VERTEX
  5
81
  8
0
 10
129.3778904029632
 20
345.4598764978354
 30
0.0
 42
0.0261308692233982
  0
VERTEX
  5
82
  8
0
 10
116.8372169489467
 20
338.781817292441
 30
0.0
  0
VERTEX
  5
83
  8
0
 10
116.8372169489467
 20
313.9477467394655
 30
0.0
 42
-0.0089957618261165
  0
VERTEX
  5
84
  8
0
 10
120.0658001842544
 20
309.934534439853
 30
0.0
 42
-0.0517444803916369
  0
VERTEX
  5
85
  8
0
 10
139.5000259185231
 20
321.7995481765892
 30
0.0
 42
-0.5225112716126331
  0
SEQEND
  5
86
  8
0
  0
POLYLINE
  5
87
  8
0
 66
     1
 10
0.0
 20
0.0
 30
0.0
 70
     1
  0
VERTEX
  5
88
  8
0
 10
239.0934439836404
 20
254.0266079494123
 30
0.0
 42
0.122477677023875
  0
VERTEX
  5
89
  8
0
 10
239.0934439836404
 20
190.4199551267889
 30
0.0
 42
0.2809180314969534
  0
SEQEND
  5
8A
  8
0
  0
POLYLINE
  5
8B
  8
0
 66
     1
 10
0.0
 20
0.0
 30
0.0
 70
     1
  0
VERTEX
  5
8C
  8
0
 10
257.0716770202189
 20
338.7818172924408
 30
0.0
 42
0.0261308692233979
  0
VERTEX
  5
8D
  8
0
 10
244.5310035662026
 20
345.4598764978352
 30
0.0
 42
-0.5225112716126226
  0
VERTEX
  5
8E
  8
0
 10
234.4088680506423
 20
321.7995481765892
 30
0.0
 42
-0.0517444803916273
  0
VERTEX
  5
8F
  8
0
 10
253.8430937849112
 20
309.934534439853
 30
0.0
 42
-0.0089957618261219
  0
VERTEX
  5
90
  8
0
 10
257.0716770202188
 20
313.9477467394655
 30
0.0
  0
SEQEND
  5
91
  8
0
  0
POLYLINE
  5
92
  8
0
 66
     1
 10
0.0
 20
0.0
 30
0.0
 70
     1
  0
VERTEX
  5
93
  8
0
 10
257.0716770202188
 20
351.8736641097708
 30
0.0
 42
0.1073833601102483
  0
VERTEX
  5
94
  8
0
 10
196.9509074969455
 20
369.2801359382799
 30
0.0
  0
VERTEX
  5
95
  8
0
 10
257.0716770202188
 20
369.28013593828
 30
0.0
  0
SEQEND
  5
96
  8
0
  0
POLYLINE
  5
97
  8
0
 66
     1
 10
0.0
 20
0.0
 30
0.0
 70
     1
  0
VERTEX
  5
98
  8
0
 10
116.8372169489466
 20
92.57289896643043
 30
0.0
 42
0.1073833601102504
  0
VERTEX
  5
99
  8
0
 10
176.9579864722212
 20
75.1664271379213
 30
0.0
  0
VERTEX
  5
9A
  8
0
 10
116.8372169489467
 20
75.16642713792129
 30
0.0
  0
SEQEND
  5
9B
  8
0
  0
POLYLINE
  5
9C
  8
0
 66
     1
 10
0.0
 20
0.0
 30
0.0
 70
     1
  0
VERTEX
  5
9D
  8
0
 10
253.8430937849112
 20
134.5120286363482
 30
0.0
 42
0.0089957618261117
  0
VERTEX
  5
9E
  8
0
 10
257.0716770202188
 20
130.4988163367358
 30
0.0
  0
VERTEX
  5
9F
  8
0
 10
257.0716770202188
 20
105.6647457837603
 30
0.0
 42
-0.0261308692233958
  0
VERTEX
  5
A0
  8
0
 10
244.5310035662022
 20
98.98668657836593
 30
0.0
 42
0.5225112716126392
  0
VERTEX
  5
A1
  8
0
 10
234.4088680506425
 20
122.6470148996121
 30
0.0
 42
0.0517444803916352
  0
SEQEND
  5
A2
  8
0
  0
POLYLINE
  5
A3
  8
0
 66
     1
 10
0.0
 20
0.0
 30
0.0
 70
     1
  0
VERTEX
  5
A4
  8
0
 10
257.0716770202188
 20
149.5146344194394
 30
0.0
  0
VERTEX
  5
A5
  8
0
 10
257.0716770202187
 20
204.0035346416485
 30
0.0
 42
-0.106711462465255
  0
VERTEX
  5
A6
  8
0
 10
243.3108091153753
 20
176.7002590964389
 30
0.0
 42
0.0579987510530684
  0
SEQEND
  5
A7
  8
0
  0
POLYLINE
  5
A8
  8
0
 66
     1
 10
0.0
 20
0.0
 30
0.0
 70
     1
  0
VERTEX
  5
A9
  8
0
 10
257.0716770202189
 20
294.9319286567621
 30
0.0
 42
0.057998751053082
  0
VERTEX
  5
AA
  8
0
 10
243.3108091153753
 20
267.7463039797625
 30
0.0
 42
-0.1067114624652677
  0
VERTEX
  5
AB
  8
0
 10
257.0716770202188
 20
240.4430284345526
 30
0.0
  0
SEQEND
  5
AC
  8
0
  0
POLYLINE
  5
AD
  8
0
 66
     1
 10
0.0
 20
0.0
 30
0.0
 70
     1
  0
VERTEX
  5
AE
  8
0
 10
196.9509074969441
 20
75.1664271379213
 30
0.0
 42
0.1073833601102508
  0
VERTEX
  5
AF
  8
0
 10
257.0716770202189
 20
92.5728989664305
 30
0.0
  0
VERTEX
  5
B0
  8
0
 10
257.0716770202188
 20
75.16642713792129
 30
0.0
  0
SEQEND
  5
B1
  8
0
  0
POLYLINE
  5
B2
  8
0
 66
     1
 10
0.0
 20
0.0
 30
0.0
 70
     1
  0
VERTEX
  5
B3
  8
0
 10
176.9579864722197
 20
369.2801359382799
 30
0.0
 42
0.1073833601102478
  0
VERTEX
  5
B4
  8
0
 10
116.8372169489467
 20
351.8736641097709
 30
0.0
  0
VERTEX
  5
B5
  8
0
 10
116.8372169489467
 20
369.28013593828
 30
0.0
  0
SEQEND
  5
B6
  8
0
  0
POLYLINE
  5
B7
  8
0
 66
     1
 10
0.0
 20
0.0
 30
0.0
 70
     1
  0
VERTEX
  5
B8
  8
0
 10
130.5980848537902
 20
176.7002590964388
 30
0.0
 42
-0.0579987510530643
  0
VERTEX
  5
B9
  8
0
 10
116.8372169489466
 20
149.5146344194393
 30
0.0
  0
VERTEX
  5
BA
  8
0
 10
116.8372169489466
 20
204.0035346416487
 30
0.0
 42
0.1067114624652558
  0
SEQEND
  5
BB
  8
0
  0
POLYLINE
  5
BC
  8
0
 66
     1
 10
0.0
 20
0.0
 30
0.0
 70
     1
  0
VERTEX
  5
BD
  8
0
 10
130.5980848537902
 20
267.7463039797625
 30
0.0
 42
0.1067114624652528
  0
VERTEX
  5
BE
  8
0
 10
116.8372169489467
 20
240.4430284345528
 30
0.0
  0
VERTEX
  5
BF
  8
0
 10
116.8372169489467
 20
294.9319286567619
 30
0.0
 42
-0.0579987510530478
  0
SEQEND
  5
C0
  8
0
  0
POLYLINE
  5
C1
  8
0
 66
     1
 10
0.0
 20
0.0
 30
0.0
 70
     1
  0
VERTEX
  5
C2
  8
0
 10
120.0658001842543
 20
134.5120286363482
 30
0.0
 42
-0.0089957618261189
  0
VERTEX
  5
C3
  8
0
 10
116.8372169489467
 20
130.4988163367358
 30
0.0
  0
VERTEX
  5
C4
  8
0
 10
116.8372169489466
 20
105.6647457837603
 30
0.0
 42
0.0261308692233984
  0
VERTEX
  5
C5
  8
0
 10
129.3778904029632
 20
98.98668657836593
 30
0.0
 42
-0.5225112716126371
  0
VERTEX
  5
C6
  8
0
 10
139.500025918523
 20
122.6470148996121
 30
0.0
 42
-0.0517444803916319
  0
SEQEND
  5
C7
  8
0
  0
POLYLINE
  5
C8
  8
0
 66
     1
 10
0.0
 20
0.0
 30
0.0
 70
     1
  0
VERTEX
  5
C9
  8
0
 10
177.5402481633536
 20
86.52622532235027
 30
0.0
 42
-0.5225112716126241
  0
VERTEX
  5
CA
  8
0
 10
178.4779757406403
 20
112.243718020032
 30
0.0
 42
-0.0535410883580277
  0
VERTEX
  5
CB
  8
0
 10
155.3191529938509
 20
116.5513215369052
 30
0.0
 42
-0.5225112716126246
  0
VERTEX
  5
CC
  8
0
 10
146.9470419023983
 20
92.21664423193792
 30
0.0
 42
0.0573806044846325
  0
SEQEND
  5
CD
  8
0
  0
POLYLINE
  5
CE
  8
0
 66
     1
 10
0.0
 20
0.0
 30
0.0
 70
     1
  0
VERTEX
  5
CF
  8
0
 10
143.4999046816323
 20
265.1374905152364
 30
0.0
 42
-0.0553799097633541
  0
VERTEX
  5
D0
  8
0
 10
149.5888731179539
 20
234.1149940175933
 30
0.0
 42
-0.7311681345482806
  0
VERTEX
  5
D1
  8
0
 10
224.3200208512116
 20
234.1149940175933
 30
0.0
 42
-0.0553799097633548
  0
VERTEX
  5
D2
  8
0
 10
230.4089892875331
 20
265.1374905152363
 30
0.0
 42
0.4178830315561599
  0
SEQEND
  5
D3
  8
0
  0
POLYLINE
  5
D4
  8
0
 66
     1
 10
0.0
 20
0.0
 30
0.0
 70
     1
  0
VERTEX
  5
D5
  8
0
 10
226.9618520667672
 20
92.21664423193793
 30
0.0
 42
-0.5225112716126356
  0
VERTEX
  5
D6
  8
0
 10
218.5897409753144
 20
116.5513215369052
 30
0.0
 42
-0.0535410883580267
  0
VERTEX
  5
D7
  8
0
 10
195.430918228525
 20
112.2437180200321
 30
0.0
 42
-0.5225112716126252
  0
VERTEX
  5
D8
  8
0
 10
196.3686458058118
 20
86.52622532235029
 30
0.0
 42
0.0573806044846495
  0
SEQEND
  5
D9
  8
0
  0
POLYLINE
  5
DA
  8
0
 66
     1
 10
0.0
 20
0.0
 30
0.0
 70
     1
  0
VERTEX
  5
DB
  8
0
 10
177.5402481633535
 20
357.9203377538508
 30
0.0
 42
0.5225112716126322
  0
VERTEX
  5
DC
  8
0
 10
178.4779757406405
 20
332.2028450561691
 30
0.0
 42
0.05354108835803
  0
VERTEX
  5
DD
  8
0
 10
155.3191529938511
 20
327.895241539296
 30
0.0
 42
0.5225112716126125
  0
VERTEX
  5
DE
  8
0
 10
146.9470419023983
 20
352.2299188442634
 30
0.0
 42
-0.0573806044846452
  0
SEQEND
  5
DF
  8
0
  0
POLYLINE
  5
E0
  8
0
 66
     1
 10
0.0
 20
0.0
 30
0.0
 70
     1
  0
VERTEX
  5
E1
  8
0
 10
134.815449985525
 20
254.0266079494124
 30
0.0
 42
0.2809180314969504
  0
VERTEX
  5
E2
  8
0
 10
134.815449985525
 20
190.4199551267889
 30
0.0
 42
0.1224776770238751
  0
SEQEND
  5
E3
  8
0
  0
POLYLINE
  5
E4
  8
0
 66
     1
 10
0.0
 20
0.0
 30
0.0
 70
     1
  0
VERTEX
  5
E5
  8
0
 10
126.6750905735356
 20
300.6712582498109
 30
0.0
 42
-0.0472909111258898
  0
VERTEX
  5
E6
  8
0
 10
139.2825395498975
 20
276.773940254379
 30
0.0
 42
-0.3753799968004105
  0
VERTEX
  5
E7
  8
0
 10
234.626354419268
 20
276.773940254379
 30
0.0
 42
-0.0472909111258896
  0
VERTEX
  5
E8
  8
0
 10
247.2338033956299
 20
300.6712582498109
 30
0.0
 42
0.3398303917287053
  0
SEQEND
  5
E9
  8
0
  0
POLYLINE
  5
EA
  8
0
 66
     1
 10
0.0
 20
0.0
 30
0.0
 70
     1
  0
VERTEX
  5
EB
  8
0
 10
196.3686458058118
 20
357.920337753851
 30
0.0
 42
-0.0573806044846359
  0
VERTEX
  5
EC
  8
0
 10
226.9618520667673
 20
352.2299188442634
 30
0.0
 42
0.5225112716126369
  0
VERTEX
  5
ED
  8
0
 10
218.5897409753147
 20
327.8952415392959
 30
0.0
 42
0.0535410883580262
  0
VERTEX
  5
EE
  8
0
 10
195.4309182285249
 20
332.2028450561691
 30
0.0
 42
0.5225112716126337
  0
SEQEND
  5
EF
  8
0
  0
POLYLINE
  5
F0
  8
0
 66
     1
 10
0.0
 20
0.0
 30
0.0
 70
     1
  0
VERTEX
  5
F1
  8
0
 10
208.8142186909337
 20
237.1534276939446
 30
0.0
 42
0.6726523845237731
  0
VERTEX
  5
F2
  8
0
 10
201.8845931404267
 20
244.0830532444517
 30
0.0
  0
VERTEX
  5
F3
  8
0
 10
192.4185485997205
 20
227.6873831532384
 30
0.0
  0
SEQEND
  5
F4
  8
0
  0
POLYLINE
  5
F5
  8
0
 66
     1
 10
0.0
 20
0.0
 30
0.0
 70
     1
  0
VERTEX
  5
F6
  8
0
 10
213.350637681133
 20
224.2232815381006
 30
0.0
 42
0.672652384523773
  0
VERTEX
  5
F7
  8
0
 10
210.8142186909337
 20
233.6893260788069
 30
0.0
  0
VERTEX
  5
F8
  8
0
 10
194.4185485997205
 20
224.2232815381007
 30
0.0
  0
SEQEND
  5
F9
  8
0
  0
POLYLINE
  5
FA
  8
0
 66
     1
 10
0.0
 20
0.0
 30
0.0
 70
     1
  0
VERTEX
  5
FB
  8
0
 10
210.8142186909337
 20
210.7572369973943
 30
0.0
 42
0.6726523845237677
  0
VERTEX
  5
FC
  8
0
 10
213.350637681133
 20
220.2232815381006
 30
0.0
  0
VERTEX
  5
FD
  8
0
 10
194.4185485997205
 20
220.2232815381006
 30
0.0
  0
SEQEND
  5
FE
  8
0
  0
POLYLINE
  5
FF
  8
0
 66
     1
 10
0.0
 20
0.0
 30
0.0
 70
     1
  0
VERTEX
  5
100
  8
0
 10
201.8845931404267
 20
200.3635098317496
 30
0.0
 42
0.6726523845237731
  0
VERTEX
  5
101
  8
0
 10
208.8142186909337
 20
207.2931353822566
 30
0.0
  0
VERTEX
  5
102
  8
0
 10
192.4185485997205
 20
216.7591799229629
 30
0.0
  0
SEQEND
  5
103
  8
0
  0
POLYLINE
  5
104
  8
0
 66
     1
 10
0.0
 20
0.0
 30
0.0
 70
     1
  0
VERTEX
  5
105
  8
0
 10
188.9544469845827
 20
195.8270908415503
 30
0.0
 42
0.672652384523773
  0
VERTEX
  5
106
  8
0
 10
198.420491525289
 20
198.3635098317496
 30
0.0
  0
VERTEX
  5
107
  8
0
 10
188.9544469845827
 20
214.7591799229629
 30
0.0
  0
SEQEND
  5
108
  8
0
  0
POLYLINE
  5
109
  8
0
 66
     1
 10
0.0
 20
0.0
 30
0.0
 70
     1
  0
VERTEX
  5
10A
  8
0
 10
175.4884024438764
 20
198.3635098317496
 30
0.0
 42
0.6726523845237677
  0
VERTEX
  5
10B
  8
0
 10
184.9544469845827
 20
195.8270908415503
 30
0.0
  0
VERTEX
  5
10C
  8
0
 10
184.9544469845827
 20
214.7591799229629
 30
0.0
  0
SEQEND
  5
10D
  8
0
  0
POLYLINE
  5
10E
  8
0
 66
     1
 10
0.0
 20
0.0
 30
0.0
 70
     1
  0
VERTEX
  5
10F
  8
0
 10
165.0946752782317
 20
207.2931353822567
 30
0.0
 42
0.6726523845237731
  0
VERTEX
  5
110
  8
0
 10
172.0243008287387
 20
200.3635098317496
 30
0.0
  0
VERTEX
  5
111
  8
0
 10
181.490345369445
 20
216.7591799229629
 30
0.0
  0
SEQEND
  5
112
  8
0
  0
POLYLINE
  5
113
  8
0
 66
     1
 10
0.0
 20
0.0
 30
0.0
 70
     1
  0
VERTEX
  5
114
  8
0
 10
160.5582562880325
 20
220.2232815381006
 30
0.0
 42
0.672652384523773
  0
VERTEX
  5
115
  8
0
 10
163.0946752782318
 20
210.7572369973943
 30
0.0
  0
VERTEX
  5
116
  8
0
 10
179.4903453694449
 20
220.2232815381006
 30
0.0
  0
SEQEND
  5
117
  8
0
  0
POLYLINE
  5
118
  8
0
 66
     1
 10
0.0
 20
0.0
 30
0.0
 70
     1
  0
VERTEX
  5
119
  8
0
 10
163.0946752782317
 20
233.6893260788069
 30
0.0
 42
0.6726523845237677
  0
VERTEX
  5
11A
  8
0
 10
160.5582562880324
 20
224.2232815381006
 30
0.0
  0
VERTEX
  5
11B
  8
0
 10
179.4903453694449
 20
224.2232815381006
 30
0.0
  0
SEQEND
  5
11C
  8
0
  0
POLYLINE
  5
11D
  8
0
 66
     1
 10
0.0
 20
0.0
 30
0.0
 70
     1
  0
VERTEX
  5
11E
  8
0
 10
172.0243008287387
 20
244.0830532444517
 30
0.0
 42
0.6726523845237731
  0
VERTEX
  5
11F
  8
0
 10
165.0946752782317
 20
237.1534276939446
 30
0.0
  0
VERTEX
  5
120
  8
0
 10
181.4903453694449
 20
227.6873831532384
 30
0.0
  0
SEQEND
  5
121
  8
0
  0
POLYLINE
  5
122
  8
0
 66
     1
 10
0.0
 20
0.0
 30
0.0
 70
     1
  0
VERTEX
  5
123
  8
0
 10
184.9544469845827
 20
248.6194722346509
 30
0.0
 42
0.672652384523773
  0
VERTEX
  5
124
  8
0
 10
175.4884024438765
 20
246.0830532444516
 30
0.0
  0
VERTEX
  5
125
  8
0
 10
184.9544469845827
 20
229.6873831532384
 30
0.0
  0
SEQEND
  5
126
  8
0
  0
POLYLINE
  5
127
  8
0
 66
     1
 10
0.0
 20
0.0
 30
0.0
 70
     1
  0
VERTEX
  5
128
  8
0
 10
198.420491525289
 20
246.0830532444516
 30
0.0
 42
0.6726523845237677
  0
VERTEX
  5
129
  8
0
 10
188.9544469845827
 20
248.6194722346509
 30
0.0
  0
VERTEX
  5
12A
  8
0
 10
188.9544469845827
 20
229.6873831532384
 30
0.0
  0
SEQEND
  5
12B
  8
0
  0
CIRCLE
  5
12C
  8
0
 10
186.9544469845827
 20
222.2232815381006
 30
0.0
 40
6.555053887106549
  0
ENDSEC
  0
EOF
