  0
SECTION
  2
HEADER
  9
$ACADVER
  1
AC1009
  9
$DWGCODEPAGE
  3
ansi_1252
  9
$INSBASE
 10
0.0
 20
0.0
 30
0.0
  9
$EXTMIN
 10
1.000000000000000E+20
 20
1.000000000000000E+20
 30
1.000000000000000E+20
  9
$EXTMAX
 10
-1.000000000000000E+20
 20
-1.000000000000000E+20
 30
-1.000000000000000E+20
  9
$LIMMIN
 10
0.0
 20
0.0
  9
$LIMMAX
 10
12.0
 20
9.0
  9
$ORTHOMODE
 70
     0
  9
$REGENMODE
 70
     1
  9
$FILLMODE
 70
     1
  9
$QTEXTMODE
 70
     0
  9
$MIRRTEXT
 70
     1
  9
$DRAGMODE
 70
     2
  9
$LTSCALE
 40
1.0
  9
$OSMODE
 70
    37
  9
$ATTMODE
 70
     1
  9
$TEXTSIZE
 40
0.2
  9
$TRACEWID
 40
0.05
  9
$TEXTSTYLE
  7
STANDARD
  9
$CLAYER
  8
LAYER_05
  9
$CELTYPE
  6
BYLAYER
  9
$CECOLOR
 62
   256
  9
$DIMSCALE
 40
1.0
  9
$DIMASZ
 40
0.18
  9
$DIMEXO
 40
0.0625
  9
$DIMDLI
 40
0.38
  9
$DIMRND
 40
0.0
  9
$DIMDLE
 40
0.0
  9
$DIMEXE
 40
0.18
  9
$DIMTP
 40
0.0
  9
$DIMTM
 40
0.0
  9
$DIMTXT
 40
0.18
  9
$DIMCEN
 40
0.09
  9
$DIMTSZ
 40
0.0
  9
$DIMTOL
 70
     0
  9
$DIMLIM
 70
     0
  9
$DIMTIH
 70
     1
  9
$DIMTOH
 70
     1
  9
$DIMSE1
 70
     0
  9
$DIMSE2
 70
     0
  9
$DIMTAD
 70
     0
  9
$DIMZIN
 70
     0
  9
$DIMBLK
  1

  9
$DIMASO
 70
     1
  9
$DIMSHO
 70
     1
  9
$DIMPOST
  1

  9
$DIMAPOST
  1

  9
$DIMALT
 70
     0
  9
$DIMALTD
 70
     2
  9
$DIMALTF
 40
25.4
  9
$DIMLFAC
 40
1.0
  9
$DIMTOFL
 70
     0
  9
$DIMTVP
 40
0.0
  9
$DIMTIX
 70
     0
  9
$DIMSOXD
 70
     0
  9
$DIMSAH
 70
     0
  9
$DIMBLK1
  1

  9
$DIMBLK2
  1

  9
$DIMSTYLE
  2
STANDARD_ACAD
  9
$DIMCLRD
 70
     0
  9
$DIMCLRE
 70
     0
  9
$DIMCLRT
 70
     0
  9
$DIMTFAC
 40
1.0
  9
$DIMGAP
 40
0.09
  9
$LUNITS
 70
     2
  9
$LUPREC
 70
     3
  9
$SKETCHINC
 40
0.1
  9
$FILLETRAD
 40
0.5
  9
$AUNITS
 70
     0
  9
$AUPREC
 70
     0
  9
$MENU
  1
.
  9
$ELEVATION
 40
0.0
  9
$PELEVATION
 40
0.0
  9
$THICKNESS
 40
0.0
  9
$LIMCHECK
 70
     0
  9
$CHAMFERA
 40
0.0
  9
$CHAMFERB
 40
0.0
  9
$SKPOLY
 70
     0
  9
$TDCREATE
 40
2460249.35231309
  9
$TDUPDATE
 40
2460249.352313183
  9
$TDINDWG
 40
0.0000000116
  9
$TDUSRTIMER
 40
0.0000000116
  9
$USRTIMER
 70
     1
  9
$ANGBASE
 50
0.0
  9
$ANGDIR
 70
     0
  9
$PDMODE
 70
     0
  9
$PDSIZE
 40
0.0
  9
$PLINEWID
 40
0.0
  9
$COORDS
 70
     1
  9
$SPLFRAME
 70
     0
  9
$SPLINETYPE
 70
     6
  9
$SPLINESEGS
 70
     8
  9
$ATTDIA
 70
     0
  9
$ATTREQ
 70
     1
  9
$HANDLING
 70
     1
  9
$HANDSEED
  5
23C
  9
$SURFTAB1
 70
     6
  9
$SURFTAB2
 70
     6
  9
$SURFTYPE
 70
     6
  9
$SURFU
 70
     6
  9
$SURFV
 70
     6
  9
$UCSNAME
  2

  9
$UCSORG
 10
0.0
 20
0.0
 30
0.0
  9
$UCSXDIR
 10
1.0
 20
0.0
 30
0.0
  9
$UCSYDIR
 10
0.0
 20
1.0
 30
0.0
  9
$PUCSNAME
  2

  9
$PUCSORG
 10
0.0
 20
0.0
 30
0.0
  9
$PUCSXDIR
 10
1.0
 20
0.0
 30
0.0
  9
$PUCSYDIR
 10
0.0
 20
1.0
 30
0.0
  9
$USERI1
 70
     0
  9
$USERI2
 70
     0
  9
$USERI3
 70
     0
  9
$USERI4
 70
     0
  9
$USERI5
 70
     0
  9
$USERR1
 40
0.0
  9
$USERR2
 40
0.0
  9
$USERR3
 40
0.0
  9
$USERR4
 40
0.0
  9
$USERR5
 40
0.0
  9
$WORLDVIEW
 70
     1
  9
$SHADEDGE
 70
     3
  9
$SHADEDIF
 70
    70
  9
$TILEMODE
 70
     1
  9
$MAXACTVP
 70
    64
  9
$PLIMCHECK
 70
     0
  9
$PEXTMIN
 10
1.000000000000000E+20
 20
1.000000000000000E+20
 30
1.000000000000000E+20
  9
$PEXTMAX
 10
-1.000000000000000E+20
 20
-1.000000000000000E+20
 30
-1.000000000000000E+20
  9
$PLIMMIN
 10
0.0
 20
0.0
  9
$PLIMMAX
 10
12.0
 20
9.0
  9
$UNITMODE
 70
     0
  9
$VISRETAIN
 70
     1
  9
$PLINEGEN
 70
     0
  9
$PSLTSCALE
 70
     1
  0
ENDSEC
  0
SECTION
  2
TABLES
  0
TABLE
  2
VPORT
 70
     1
  0
VPORT
  2
*ACTIVE
 70
     0
 10
0.0
 20
0.0
 11
1.0
 21
1.0
 12
10.42990654205607
 22
4.5
 13
0.0
 23
0.0
 14
0.5
 24
0.5
 15
0.5
 25
0.5
 16
0.0
 26
0.0
 36
1.0
 17
0.0
 27
0.0
 37
0.0
 40
9.0
 41
1.972972972850329
 42
50.0
 43
0.0
 44
0.0
 50
0.0
 51
0.0
 71
     0
 72
   100
 73
     1
 74
     3
 75
     0
 76
     0
 77
     0
 78
     0
  0
ENDTAB
  0
TABLE
  2
LTYPE
 70
     1
  0
LTYPE
  2
CONTINUOUS
 70
     0
  3
Solid line
 72
    65
 73
     0
 40
0.0
  0
ENDTAB
  0
TABLE
  2
LAYER
 70
     2
  0
LAYER
  2
0
 70
     0
 62
     7
  6
CONTINUOUS
  0
LAYER
  2
LAYER_05
 70
     0
 62
     5
  6
CONTINUOUS
  0
ENDTAB
  0
TABLE
  2
STYLE
 70
     1
  0
STYLE
  2
STANDARD
 70
     0
 40
0.0
 41
1.0
 50
0.0
 71
     0
 42
0.2
  3
txt
  4

  0
ENDTAB
  0
TABLE
  2
VIEW
 70
     0
  0
ENDTAB
  0
TABLE
  2
UCS
 70
     0
  0
ENDTAB
  0
TABLE
  2
APPID
 70
     2
  0
APPID
  2
ACAD
 70
     0
  0
APPID
  2
RHINO
 70
     0
  0
ENDTAB
  0
TABLE
  2
DIMSTYLE
 70
     1
  0
DIMSTYLE
  2
STANDARD_ACAD
 70
     0
  3

  4

  5

  6

  7

 40
1.0
 41
0.18
 42
0.0625
 43
0.38
 44
0.18
 45
0.0
 46
0.0
 47
0.0
 48
0.0
140
0.18
141
0.09
142
0.0
143
25.4
144
1.0
145
0.0
146
1.0
147
0.09
 71
     0
 72
     0
 73
     1
 74
     1
 75
     0
 76
     0
 77
     0
 78
     0
170
     0
171
     2
172
     0
173
     0
174
     0
175
     0
176
     0
177
     0
178
     0
  0
ENDTAB
  0
ENDSEC
  0
SECTION
  2
BLOCKS
  0
BLOCK
  8
0
  2
$MODEL_SPACE
 70
     0
 10
0.0
 20
0.0
 30
0.0
  3
$MODEL_SPACE
  1

  0
ENDBLK
  5
21
  8
0
  0
BLOCK
 67
     1
  8
0
  2
$PAPER_SPACE
 70
     0
 10
0.0
 20
0.0
 30
0.0
  3
$PAPER_SPACE
  1

  0
ENDBLK
  5
1D
 67
     1
  8
0
  0
ENDSEC
  0
SECTION
  2
ENTITIES
  0
POLYLINE
  5
70
  8
LAYER_05
 66
     1
 10
0.0
 20
0.0
 30
0.0
 70
     1
  0
VERTEX
  5
71
  8
LAYER_05
 10
247.7234717208636
 20
121.0059855480139
 30
0.0
  0
VERTEX
  5
72
  8
LAYER_05
 10
1388.815189525394
 20
121.0059855480139
 30
0.0
  0
VERTEX
  5
73
  8
LAYER_05
 10
1388.815189525394
 20
3132.273141949036
 30
0.0
  0
VERTEX
  5
74
  8
LAYER_05
 10
247.7234717208636
 20
3132.273141949036
 30
0.0
  0
SEQEND
  5
75
  8
LAYER_05
  0
POLYLINE
  5
76
  8
LAYER_05
 66
     1
 10
0.0
 20
0.0
 30
0.0
 70
     1
  0
VERTEX
  5
77
  8
LAYER_05
 10
758.5939238400682
 20
244.7032414613262
 30
0.0
  0
VERTEX
  5
78
  8
LAYER_05
 10
1318.269330623129
 20
244.7032414613262
 30
0.0
  0
VERTEX
  5
79
  8
LAYER_05
 10
1318.269330623129
 20
191.5518444502794
 30
0.0
  0
VERTEX
  5
7A
  8
LAYER_05
 10
765.5410981865433
 20
191.551844450279
 30
0.0
 42
-0.0053418829572263
  0
SEQEND
  5
7B
  8
LAYER_05
  0
POLYLINE
  5
7C
  8
LAYER_05
 66
     1
 10
0.0
 20
0.0
 30
0.0
 70
     1
  0
VERTEX
  5
7D
  8
LAYER_05
 10
1318.269330623129
 20
1998.699342825863
 30
0.0
  0
VERTEX
  5
7E
  8
LAYER_05
 10
1024.969103070636
 20
1998.699342825861
 30
0.0
 42
0.0054076922268378
  0
VERTEX
  5
7F
  8
LAYER_05
 10
1034.749229364276
 20
2051.850739836912
 30
0.0
  0
VERTEX
  5
80
  8
LAYER_05
 10
1318.269330623129
 20
2051.85073983691
 30
0.0
  0
SEQEND
  5
81
  8
LAYER_05
  0
POLYLINE
  5
82
  8
LAYER_05
 66
     1
 10
0.0
 20
0.0
 30
0.0
 70
     1
  0
VERTEX
  5
83
  8
LAYER_05
 10
1318.269330623129
 20
1945.547945814816
 30
0.0
  0
VERTEX
  5
84
  8
LAYER_05
 10
1013.992877505268
 20
1945.547945814815
 30
0.0
 42
-0.0054564561348785
  0
VERTEX
  5
85
  8
LAYER_05
 10
1001.80433840618
 20
1892.396548803777
 30
0.0
  0
VERTEX
  5
86
  8
LAYER_05
 10
1318.269330623128
 20
1892.39654880378
 30
0.0
  0
SEQEND
  5
87
  8
LAYER_05
  0
POLYLINE
  5
88
  8
LAYER_05
 66
     1
 10
0.0
 20
0.0
 30
0.0
 70
     1
  0
VERTEX
  5
89
  8
LAYER_05
 10
1318.269330623129
 20
1467.185372715404
 30
0.0
  0
VERTEX
  5
8A
  8
LAYER_05
 10
862.693616329418
 20
1467.185372715405
 30
0.0
 42
-0.00562493978477
  0
VERTEX
  5
8B
  8
LAYER_05
 10
881.6887932625393
 20
1520.336769726457
 30
0.0
  0
VERTEX
  5
8C
  8
LAYER_05
 10
1318.269330623129
 20
1520.336769726451
 30
0.0
  0
SEQEND
  5
8D
  8
LAYER_05
  0
POLYLINE
  5
8E
  8
LAYER_05
 66
     1
 10
0.0
 20
0.0
 30
0.0
 70
     1
  0
VERTEX
  5
8F
  8
LAYER_05
 10
1318.269330623129
 20
1307.731181682254
 30
0.0
  0
VERTEX
  5
90
  8
LAYER_05
 10
813.5914215903108
 20
1307.731181682254
 30
0.0
 42
0.0054731577765856
  0
VERTEX
  5
91
  8
LAYER_05
 10
799.7634721720218
 20
1254.579784671218
 30
0.0
  0
VERTEX
  5
92
  8
LAYER_05
 10
1318.269330623129
 20
1254.579784671217
 30
0.0
  0
SEQEND
  5
93
  8
LAYER_05
  0
POLYLINE
  5
94
  8
LAYER_05
 66
     1
 10
0.0
 20
0.0
 30
0.0
 70
     1
  0
VERTEX
  5
95
  8
LAYER_05
 10
1318.269330623129
 20
616.7630205386444
 30
0.0
  0
VERTEX
  5
96
  8
LAYER_05
 10
725.9265721169319
 20
616.7630205386436
 30
0.0
 42
-0.005296843004999
  0
VERTEX
  5
97
  8
LAYER_05
 10
725.7949961074343
 20
669.9144175496917
 30
0.0
  0
VERTEX
  5
98
  8
LAYER_05
 10
1318.269330623129
 20
669.9144175496912
 30
0.0
  0
SEQEND
  5
99
  8
LAYER_05
  0
POLYLINE
  5
9A
  8
LAYER_05
 66
     1
 10
0.0
 20
0.0
 30
0.0
 70
     1
  0
VERTEX
  5
9B
  8
LAYER_05
 10
1318.269330623129
 20
776.2172115717849
 30
0.0
  0
VERTEX
  5
9C
  8
LAYER_05
 10
728.9122091611844
 20
776.2172115717867
 30
0.0
 42
0.005301048420849
  0
VERTEX
  5
9D
  8
LAYER_05
 10
726.7897612639598
 20
723.0658145607483
 30
0.0
  0
VERTEX
  5
9E
  8
LAYER_05
 10
1318.269330623129
 20
723.0658145607481
 30
0.0
  0
SEQEND
  5
9F
  8
LAYER_05
  0
POLYLINE
  5
A0
  8
LAYER_05
 66
     1
 10
0.0
 20
0.0
 30
0.0
 70
     1
  0
VERTEX
  5
A1
  8
LAYER_05
 10
1318.269330623129
 20
1148.276990649123
 30
0.0
  0
VERTEX
  5
A2
  8
LAYER_05
 10
775.785250397191
 20
1148.276990649123
 30
0.0
 42
-0.005416931312182
  0
VERTEX
  5
A3
  8
LAYER_05
 10
787.1677277822278
 20
1201.428387660171
 30
0.0
  0
VERTEX
  5
A4
  8
LAYER_05
 10
1318.269330623129
 20
1201.42838766017
 30
0.0
  0
SEQEND
  5
A5
  8
LAYER_05
  0
POLYLINE
  5
A6
  8
LAYER_05
 66
     1
 10
0.0
 20
0.0
 30
0.0
 70
     1
  0
VERTEX
  5
A7
  8
LAYER_05
 10
1318.269330623129
 20
2955.424489024697
 30
0.0
  0
VERTEX
  5
A8
  8
LAYER_05
 10
1025.101537553169
 20
2955.424489024697
 30
0.0
 42
0.0054303171496612
  0
VERTEX
  5
A9
  8
LAYER_05
 10
1014.140688046125
 20
3008.575886035735
 30
0.0
  0
VERTEX
  5
AA
  8
LAYER_05
 10
1318.269330623129
 20
3008.575886035734
 30
0.0
  0
SEQEND
  5
AB
  8
LAYER_05
  0
POLYLINE
  5
AC
  8
LAYER_05
 66
     1
 10
0.0
 20
0.0
 30
0.0
 70
     1
  0
VERTEX
  5
AD
  8
LAYER_05
 10
1318.269330623129
 20
935.6714026049256
 30
0.0
  0
VERTEX
  5
AE
  8
LAYER_05
 10
742.0821120800447
 20
935.6714026049251
 30
0.0
 42
-0.0053384663847871
  0
VERTEX
  5
AF
  8
LAYER_05
 10
748.7596228611026
 20
988.8227996159719
 30
0.0
  0
VERTEX
  5
B0
  8
LAYER_05
 10
1318.269330623129
 20
988.8227996159725
 30
0.0
  0
SEQEND
  5
B1
  8
LAYER_05
  0
POLYLINE
  5
B2
  8
LAYER_05
 66
     1
 10
0.0
 20
0.0
 30
0.0
 70
     1
  0
VERTEX
  5
B3
  8
LAYER_05
 10
1318.269330623129
 20
2105.002136847957
 30
0.0
  0
VERTEX
  5
B4
  8
LAYER_05
 10
1043.347460909302
 20
2105.002136847956
 30
0.0
 42
0.0053700979853094
  0
VERTEX
  5
B5
  8
LAYER_05
 10
1050.776100361378
 20
2158.153533859003
 30
0.0
  0
VERTEX
  5
B6
  8
LAYER_05
 10
1318.269330623129
 20
2158.153533859004
 30
0.0
  0
SEQEND
  5
B7
  8
LAYER_05
  0
POLYLINE
  5
B8
  8
LAYER_05
 66
     1
 10
0.0
 20
0.0
 30
0.0
 70
     1
  0
VERTEX
  5
B9
  8
LAYER_05
 10
1318.269330623129
 20
2211.304930870051
 30
0.0
  0
VERTEX
  5
BA
  8
LAYER_05
 10
1057.045639691606
 20
2211.304930870051
 30
0.0
 42
0.0053430136241426
  0
VERTEX
  5
BB
  8
LAYER_05
 10
1062.164836312878
 20
2264.456327881098
 30
0.0
  0
VERTEX
  5
BC
  8
LAYER_05
 10
1318.269330623129
 20
2264.456327881097
 30
0.0
  0
SEQEND
  5
BD
  8
LAYER_05
  0
POLYLINE
  5
BE
  8
LAYER_05
 66
     1
 10
0.0
 20
0.0
 30
0.0
 70
     1
  0
VERTEX
  5
BF
  8
LAYER_05
 10
1318.269330623129
 20
2317.607724892144
 30
0.0
  0
VERTEX
  5
C0
  8
LAYER_05
 10
1066.140775473667
 20
2317.607724892144
 30
0.0
 42
0.0053259788044488
  0
VERTEX
  5
C1
  8
LAYER_05
 10
1068.978919977832
 20
2370.759121903204
 30
0.0
  0
VERTEX
  5
C2
  8
LAYER_05
 10
1318.269330623129
 20
2370.759121903202
 30
0.0
  0
SEQEND
  5
C3
  8
LAYER_05
  0
POLYLINE
  5
C4
  8
LAYER_05
 66
     1
 10
0.0
 20
0.0
 30
0.0
 70
     1
  0
VERTEX
  5
C5
  8
LAYER_05
 10
1318.269330623129
 20
2423.910518914238
 30
0.0
  0
VERTEX
  5
C6
  8
LAYER_05
 10
1070.683148056532
 20
2423.910518914237
 30
0.0
 42
0.005318710312972
  0
VERTEX
  5
C7
  8
LAYER_05
 10
1071.255780011044
 20
2477.061915925286
 30
0.0
  0
VERTEX
  5
C8
  8
LAYER_05
 10
1318.269330623129
 20
2477.061915925285
 30
0.0
  0
SEQEND
  5
C9
  8
LAYER_05
  0
POLYLINE
  5
CA
  8
LAYER_05
 66
     1
 10
0.0
 20
0.0
 30
0.0
 70
     1
  0
VERTEX
  5
CB
  8
LAYER_05
 10
1318.269330623129
 20
2795.970297991566
 30
0.0
  0
VERTEX
  5
CC
  8
LAYER_05
 10
1050.863471368905
 20
2795.970297991566
 30
0.0
 42
-0.0053551025568073
  0
VERTEX
  5
CD
  8
LAYER_05
 10
1057.118265339396
 20
2742.81890098053
 30
0.0
  0
VERTEX
  5
CE
  8
LAYER_05
 10
1318.269330623129
 20
2742.81890098053
 30
0.0
  0
SEQEND
  5
CF
  8
LAYER_05
  0
POLYLINE
  5
D0
  8
LAYER_05
 66
     1
 10
0.0
 20
0.0
 30
0.0
 70
     1
  0
VERTEX
  5
D1
  8
LAYER_05
 10
1318.269330623129
 20
1041.974196627019
 30
0.0
  0
VERTEX
  5
D2
  8
LAYER_05
 10
756.5949970138388
 20
1041.97419662702
 30
0.0
 42
-0.0053723002888475
  0
VERTEX
  5
D3
  8
LAYER_05
 10
765.5992587289379
 20
1095.125593638077
 30
0.0
  0
VERTEX
  5
D4
  8
LAYER_05
 10
1318.269330623129
 20
1095.125593638076
 30
0.0
  0
SEQEND
  5
D5
  8
LAYER_05
  0
POLYLINE
  5
D6
  8
LAYER_05
 66
     1
 10
0.0
 20
0.0
 30
0.0
 70
     1
  0
VERTEX
  5
D7
  8
LAYER_05
 10
1318.269330623128
 20
404.1574324944668
 30
0.0
  0
VERTEX
  5
D8
  8
LAYER_05
 10
737.7427151225805
 20
404.1574324944674
 30
0.0
 42
-0.0053170942853626
  0
VERTEX
  5
D9
  8
LAYER_05
 10
733.0887323637353
 20
457.3088295055136
 30
0.0
  0
VERTEX
  5
DA
  8
LAYER_05
 10
1318.269330623128
 20
457.3088295055137
 30
0.0
  0
SEQEND
  5
DB
  8
LAYER_05
  0
POLYLINE
  5
DC
  8
LAYER_05
 66
     1
 10
0.0
 20
0.0
 30
0.0
 70
     1
  0
VERTEX
  5
DD
  8
LAYER_05
 10
1318.269330623129
 20
297.854638472363
 30
0.0
  0
VERTEX
  5
DE
  8
LAYER_05
 10
750.4864684446563
 20
297.8546384723627
 30
0.0
 42
-0.0053418829572133
  0
VERTEX
  5
DF
  8
LAYER_05
 10
743.5392940981814
 20
351.0060354834092
 30
0.0
  0
VERTEX
  5
E0
  8
LAYER_05
 10
1318.269330623129
 20
351.0060354834099
 30
0.0
  0
SEQEND
  5
E1
  8
LAYER_05
  0
POLYLINE
  5
E2
  8
LAYER_05
 66
     1
 10
0.0
 20
0.0
 30
0.0
 70
     1
  0
VERTEX
  5
E3
  8
LAYER_05
 10
1318.269330623129
 20
829.3686085828318
 30
0.0
  0
VERTEX
  5
E4
  8
LAYER_05
 10
732.1652093398548
 20
829.368608582832
 30
0.0
 42
-0.0053148474052545
  0
VERTEX
  5
E5
  8
LAYER_05
 10
736.5531787783698
 20
882.5200055938897
 30
0.0
  0
VERTEX
  5
E6
  8
LAYER_05
 10
1318.269330623129
 20
882.5200055938888
 30
0.0
  0
SEQEND
  5
E7
  8
LAYER_05
  0
POLYLINE
  5
E8
  8
LAYER_05
 66
     1
 10
0.0
 20
0.0
 30
0.0
 70
     1
  0
VERTEX
  5
E9
  8
LAYER_05
 10
1318.269330623129
 20
1679.790960759592
 30
0.0
  0
VERTEX
  5
EA
  8
LAYER_05
 10
940.5247183134611
 20
1679.790960759592
 30
0.0
 42
0.0055913453081114
  0
VERTEX
  5
EB
  8
LAYER_05
 10
957.7697428613011
 20
1732.94235777064
 30
0.0
  0
VERTEX
  5
EC
  8
LAYER_05
 10
1318.269330623129
 20
1732.942357770639
 30
0.0
  0
SEQEND
  5
ED
  8
LAYER_05
  0
POLYLINE
  5
EE
  8
LAYER_05
 66
     1
 10
0.0
 20
0.0
 30
0.0
 70
     1
  0
VERTEX
  5
EF
  8
LAYER_05
 10
1318.269330623129
 20
1786.093754781676
 30
0.0
  0
VERTEX
  5
F0
  8
LAYER_05
 10
973.7146334306901
 20
1786.093754781674
 30
0.0
 42
0.0055172824862736
  0
VERTEX
  5
F1
  8
LAYER_05
 10
988.3851352182686
 20
1839.245151792723
 30
0.0
  0
VERTEX
  5
F2
  8
LAYER_05
 10
1318.269330623129
 20
1839.245151792722
 30
0.0
  0
SEQEND
  5
F3
  8
LAYER_05
  0
POLYLINE
  5
F4
  8
LAYER_05
 66
     1
 10
0.0
 20
0.0
 30
0.0
 70
     1
  0
VERTEX
  5
F5
  8
LAYER_05
 10
1318.269330623129
 20
563.6116235275974
 30
0.0
  0
VERTEX
  5
F6
  8
LAYER_05
 10
727.1846666181823
 20
563.6116235275975
 30
0.0
 42
0.0053021627766497
  0
VERTEX
  5
F7
  8
LAYER_05
 10
729.5709770342203
 20
510.4602265165603
 30
0.0
  0
VERTEX
  5
F8
  8
LAYER_05
 10
1318.269330623129
 20
510.4602265165606
 30
0.0
  0
SEQEND
  5
F9
  8
LAYER_05
  0
POLYLINE
  5
FA
  8
LAYER_05
 66
     1
 10
0.0
 20
0.0
 30
0.0
 70
     1
  0
VERTEX
  5
FB
  8
LAYER_05
 10
1318.269330623129
 20
1360.882578693301
 30
0.0
  0
VERTEX
  5
FC
  8
LAYER_05
 10
828.6728235947842
 20
1360.882578693301
 30
0.0
 42
-0.0055420360089565
  0
VERTEX
  5
FD
  8
LAYER_05
 10
845.0314127264928
 20
1414.033975704358
 30
0.0
  0
VERTEX
  5
FE
  8
LAYER_05
 10
1318.269330623128
 20
1414.033975704358
 30
0.0
  0
SEQEND
  5
FF
  8
LAYER_05
  0
POLYLINE
  5
100
  8
LAYER_05
 66
     1
 10
0.0
 20
0.0
 30
0.0
 70
     1
  0
VERTEX
  5
101
  8
LAYER_05
 10
1318.269330623129
 20
1573.488166737488
 30
0.0
  0
VERTEX
  5
102
  8
LAYER_05
 10
902.0165862408527
 20
1573.488166737488
 30
0.0
 42
0.005680168285785
  0
VERTEX
  5
103
  8
LAYER_05
 10
921.9509282582513
 20
1626.639563748545
 30
0.0
  0
VERTEX
  5
104
  8
LAYER_05
 10
1318.269330623129
 20
1626.639563748545
 30
0.0
  0
SEQEND
  5
105
  8
LAYER_05
  0
POLYLINE
  5
106
  8
LAYER_05
 66
     1
 10
0.0
 20
0.0
 30
0.0
 70
     1
  0
VERTEX
  5
107
  8
LAYER_05
 10
1318.269330623129
 20
2530.213312936332
 30
0.0
  0
VERTEX
  5
108
  8
LAYER_05
 10
1070.69759405628
 20
2530.213312936332
 30
0.0
 42
0.0053210887753401
  0
VERTEX
  5
109
  8
LAYER_05
 10
1069.007831618429
 20
2583.36470994738
 30
0.0
  0
VERTEX
  5
10A
  8
LAYER_05
 10
1318.269330623129
 20
2583.364709947379
 30
0.0
  0
SEQEND
  5
10B
  8
LAYER_05
  0
POLYLINE
  5
10C
  8
LAYER_05
 66
     1
 10
0.0
 20
0.0
 30
0.0
 70
     1
  0
VERTEX
  5
10D
  8
LAYER_05
 10
1318.269330623128
 20
2636.516106958436
 30
0.0
  0
VERTEX
  5
10E
  8
LAYER_05
 10
1066.184192171119
 20
2636.516106958436
 30
0.0
 42
0.0053331531581259
  0
VERTEX
  5
10F
  8
LAYER_05
 10
1062.22281752784
 20
2689.667503969483
 30
0.0
  0
VERTEX
  5
110
  8
LAYER_05
 10
1318.269330623129
 20
2689.667503969483
 30
0.0
  0
SEQEND
  5
111
  8
LAYER_05
  0
POLYLINE
  5
112
  8
LAYER_05
 66
     1
 10
0.0
 20
0.0
 30
0.0
 70
     1
  0
VERTEX
  5
113
  8
LAYER_05
 10
1318.269330623128
 20
2849.121695002623
 30
0.0
  0
VERTEX
  5
114
  8
LAYER_05
 10
1043.449699928065
 20
2849.121695002623
 30
0.0
 42
0.0053873054323425
  0
VERTEX
  5
115
  8
LAYER_05
 10
1034.866481651427
 20
2902.273092013662
 30
0.0
  0
VERTEX
  5
116
  8
LAYER_05
 10
1318.269330623129
 20
2902.27309201366
 30
0.0
  0
SEQEND
  5
117
  8
LAYER_05
  0
POLYLINE
  5
118
  8
LAYER_05
 66
     1
 10
0.0
 20
0.0
 30
0.0
 70
     1
  0
VERTEX
  5
119
  8
LAYER_05
 10
877.0621587528665
 20
2211.304930870051
 30
0.0
  0
VERTEX
  5
11A
  8
LAYER_05
 10
318.2693306231288
 20
2211.30493087005
 30
0.0
  0
VERTEX
  5
11B
  8
LAYER_05
 10
318.2693306231287
 20
2158.153533859003
 30
0.0
  0
VERTEX
  5
11C
  8
LAYER_05
 10
870.3015412474053
 20
2158.153533859006
 30
0.0
 42
0.0057747142644825
  0
SEQEND
  5
11D
  8
LAYER_05
  0
POLYLINE
  5
11E
  8
LAYER_05
 66
     1
 10
0.0
 20
0.0
 30
0.0
 70
     1
  0
VERTEX
  5
11F
  8
LAYER_05
 10
877.1404568681426
 20
2742.818900980531
 30
0.0
  0
VERTEX
  5
120
  8
LAYER_05
 10
318.2693306231288
 20
2742.81890098053
 30
0.0
  0
VERTEX
  5
121
  8
LAYER_05
 10
318.2693306231288
 20
2689.667503969482
 30
0.0
  0
VERTEX
  5
122
  8
LAYER_05
 10
882.6427645752692
 20
2689.667503969483
 30
0.0
 42
0.0057591726430724
  0
SEQEND
  5
123
  8
LAYER_05
  0
POLYLINE
  5
124
  8
LAYER_05
 66
     1
 10
0.0
 20
0.0
 30
0.0
 70
     1
  0
VERTEX
  5
125
  8
LAYER_05
 10
615.8193973763791
 20
1254.579784671217
 30
0.0
  0
VERTEX
  5
126
  8
LAYER_05
 10
318.2693306231288
 20
1254.579784671217
 30
0.0
  0
VERTEX
  5
127
  8
LAYER_05
 10
318.2693306231288
 20
1201.428387660169
 30
0.0
  0
VERTEX
  5
128
  8
LAYER_05
 10
604.1043531638609
 20
1201.428387660171
 30
0.0
 42
-0.0050629414806018
  0
SEQEND
  5
129
  8
LAYER_05
  0
POLYLINE
  5
12A
  8
LAYER_05
 66
     1
 10
0.0
 20
0.0
 30
0.0
 70
     1
  0
VERTEX
  5
12B
  8
LAYER_05
 10
853.1331652714966
 20
2902.273092013663
 30
0.0
 42
0.0058402506474799
  0
VERTEX
  5
12C
  8
LAYER_05
 10
842.5865413685765
 20
2955.424489024699
 30
0.0
  0
VERTEX
  5
12D
  8
LAYER_05
 10
318.2693306231287
 20
2955.424489024697
 30
0.0
  0
VERTEX
  5
12E
  8
LAYER_05
 10
318.2693306231288
 20
2902.273092013659
 30
0.0
  0
SEQEND
  5
12F
  8
LAYER_05
  0
POLYLINE
  5
130
  8
LAYER_05
 66
     1
 10
0.0
 20
0.0
 30
0.0
 70
     1
  0
VERTEX
  5
131
  8
LAYER_05
 10
593.5107702972332
 20
1148.276990649123
 30
0.0
  0
VERTEX
  5
132
  8
LAYER_05
 10
318.2693306231288
 20
1148.276990649123
 30
0.0
  0
VERTEX
  5
133
  8
LAYER_05
 10
318.2693306231288
 20
1095.125593638077
 30
0.0
  0
VERTEX
  5
134
  8
LAYER_05
 10
584.0252013874914
 20
1095.125593638076
 30
0.0
 42
-0.0050223852244939
  0
SEQEND
  5
135
  8
LAYER_05
  0
POLYLINE
  5
136
  8
LAYER_05
 66
     1
 10
0.0
 20
0.0
 30
0.0
 70
     1
  0
VERTEX
  5
137
  8
LAYER_05
 10
547.8373785323852
 20
723.0658145607489
 30
0.0
 42
0.0049450176599337
  0
VERTEX
  5
138
  8
LAYER_05
 10
546.9088504818561
 20
669.9144175496887
 30
0.0
  0
VERTEX
  5
139
  8
LAYER_05
 10
318.2693306231288
 20
669.9144175496904
 30
0.0
  0
VERTEX
  5
13A
  8
LAYER_05
 10
318.2693306231288
 20
723.0658145607485
 30
0.0
  0
SEQEND
  5
13B
  8
LAYER_05
  0
POLYLINE
  5
13C
  8
LAYER_05
 66
     1
 10
0.0
 20
0.0
 30
0.0
 70
     1
  0
VERTEX
  5
13D
  8
LAYER_05
 10
575.6357874705251
 20
1041.974196627019
 30
0.0
  0
VERTEX
  5
13E
  8
LAYER_05
 10
318.2693306231288
 20
1041.97419662702
 30
0.0
  0
VERTEX
  5
13F
  8
LAYER_05
 10
318.2693306231288
 20
988.8227996159721
 30
0.0
  0
VERTEX
  5
140
  8
LAYER_05
 10
568.332180693436
 20
988.8227996159716
 30
0.0
 42
-0.0049907257527516
  0
SEQEND
  5
141
  8
LAYER_05
  0
POLYLINE
  5
142
  8
LAYER_05
 66
     1
 10
0.0
 20
0.0
 30
0.0
 70
     1
  0
VERTEX
  5
143
  8
LAYER_05
 10
556.9481670422133
 20
882.5200055938897
 30
0.0
 42
-0.0049674848023172
  0
VERTEX
  5
144
  8
LAYER_05
 10
562.1054783202101
 20
935.6714026049268
 30
0.0
  0
VERTEX
  5
145
  8
LAYER_05
 10
318.2693306231288
 20
935.6714026049273
 30
0.0
  0
VERTEX
  5
146
  8
LAYER_05
 10
318.2693306231288
 20
882.5200055938885
 30
0.0
  0
SEQEND
  5
147
  8
LAYER_05
  0
POLYLINE
  5
148
  8
LAYER_05
 66
     1
 10
0.0
 20
0.0
 30
0.0
 70
     1
  0
VERTEX
  5
149
  8
LAYER_05
 10
674.2241691256181
 20
1467.185372715405
 30
0.0
  0
VERTEX
  5
14A
  8
LAYER_05
 10
318.2693306231288
 20
1467.185372715403
 30
0.0
  0
VERTEX
  5
14B
  8
LAYER_05
 10
318.2693306231288
 20
1414.033975704357
 30
0.0
  0
VERTEX
  5
14C
  8
LAYER_05
 10
657.8535852021283
 20
1414.033975704358
 30
0.0
 42
-0.0051734775962983
  0
SEQEND
  5
14D
  8
LAYER_05
  0
POLYLINE
  5
14E
  8
LAYER_05
 66
     1
 10
0.0
 20
0.0
 30
0.0
 70
     1
  0
VERTEX
  5
14F
  8
LAYER_05
 10
862.2874164829259
 20
2105.002136847957
 30
0.0
  0
VERTEX
  5
150
  8
LAYER_05
 10
318.2693306231288
 20
2105.002136847957
 30
0.0
  0
VERTEX
  5
151
  8
LAYER_05
 10
318.2693306231287
 20
2051.85073983691
 30
0.0
  0
VERTEX
  5
152
  8
LAYER_05
 10
853.0065680578722
 20
2051.85073983691
 30
0.0
 42
0.0058152365302383
  0
SEQEND
  5
153
  8
LAYER_05
  0
POLYLINE
  5
154
  8
LAYER_05
 66
     1
 10
0.0
 20
0.0
 30
0.0
 70
     1
  0
VERTEX
  5
155
  8
LAYER_05
 10
552.854076759465
 20
829.3686085828309
 30
0.0
  0
VERTEX
  5
156
  8
LAYER_05
 10
318.2693306231288
 20
829.3686085828322
 30
0.0
  0
VERTEX
  5
157
  8
LAYER_05
 10
318.2693306231288
 20
776.2172115717847
 30
0.0
  0
VERTEX
  5
158
  8
LAYER_05
 10
549.8183431560645
 20
776.2172115717849
 30
0.0
 42
-0.0049523214095068
  0
SEQEND
  5
159
  8
LAYER_05
  0
POLYLINE
  5
15A
  8
LAYER_05
 66
     1
 10
0.0
 20
0.0
 30
0.0
 70
     1
  0
VERTEX
  5
15B
  8
LAYER_05
 10
891.7738928307406
 20
2530.213312936332
 30
0.0
  0
VERTEX
  5
15C
  8
LAYER_05
 10
318.2693306231288
 20
2530.213312936333
 30
0.0
  0
VERTEX
  5
15D
  8
LAYER_05
 10
318.2693306231288
 20
2477.061915925285
 30
0.0
  0
VERTEX
  5
15E
  8
LAYER_05
 10
892.37513411652
 20
2477.061915925285
 30
0.0
 42
0.0057289233752479
  0
SEQEND
  5
15F
  8
LAYER_05
  0
POLYLINE
  5
160
  8
LAYER_05
 66
     1
 10
0.0
 20
0.0
 30
0.0
 70
     1
  0
VERTEX
  5
161
  8
LAYER_05
 10
886.9115600002674
 20
2636.516106958439
 30
0.0
 42
-0.0057379326100122
  0
VERTEX
  5
162
  8
LAYER_05
 10
889.9536602577575
 20
2583.364709947377
 30
0.0
  0
VERTEX
  5
163
  8
LAYER_05
 10
318.2693306231288
 20
2583.364709947379
 30
0.0
  0
VERTEX
  5
164
  8
LAYER_05
 10
318.2693306231288
 20
2636.516106958436
 30
0.0
  0
SEQEND
  5
165
  8
LAYER_05
  0
POLYLINE
  5
166
  8
LAYER_05
 66
     1
 10
0.0
 20
0.0
 30
0.0
 70
     1
  0
VERTEX
  5
167
  8
LAYER_05
 10
886.8647798095783
 20
2317.607724892144
 30
0.0
  0
VERTEX
  5
168
  8
LAYER_05
 10
318.2693306231287
 20
2317.607724892145
 30
0.0
  0
VERTEX
  5
169
  8
LAYER_05
 10
318.2693306231288
 20
2264.456327881097
 30
0.0
  0
VERTEX
  5
16A
  8
LAYER_05
 10
882.5802755061499
 20
2264.456327881097
 30
0.0
 42
0.0057471396863752
  0
SEQEND
  5
16B
  8
LAYER_05
  0
POLYLINE
  5
16C
  8
LAYER_05
 66
     1
 10
0.0
 20
0.0
 30
0.0
 70
     1
  0
VERTEX
  5
16D
  8
LAYER_05
 10
817.5726731780655
 20
3061.72728304677
 30
0.0
  0
VERTEX
  5
16E
  8
LAYER_05
 10
318.2693306231288
 20
3061.72728304677
 30
0.0
  0
VERTEX
  5
16F
  8
LAYER_05
 10
318.2693306231288
 20
3008.575886035734
 30
0.0
  0
VERTEX
  5
170
  8
LAYER_05
 10
830.7399044547244
 20
3008.575886035733
 30
0.0
 42
0.0059017336530562
  0
SEQEND
  5
171
  8
LAYER_05
  0
POLYLINE
  5
172
  8
LAYER_05
 66
     1
 10
0.0
 20
0.0
 30
0.0
 70
     1
  0
VERTEX
  5
173
  8
LAYER_05
 10
547.0316681146444
 20
616.7630205386444
 30
0.0
  0
VERTEX
  5
174
  8
LAYER_05
 10
318.2693306231288
 20
616.7630205386447
 30
0.0
  0
VERTEX
  5
175
  8
LAYER_05
 10
318.2693306231288
 20
563.6116235275972
 30
0.0
  0
VERTEX
  5
176
  8
LAYER_05
 10
548.2059756376042
 20
563.6116235275972
 30
0.0
 42
-0.004945469857584
  0
SEQEND
  5
177
  8
LAYER_05
  0
POLYLINE
  5
178
  8
LAYER_05
 66
     1
 10
0.0
 20
0.0
 30
0.0
 70
     1
  0
VERTEX
  5
179
  8
LAYER_05
 10
550.4331532021091
 20
510.4602265165628
 30
0.0
  0
VERTEX
  5
17A
  8
LAYER_05
 10
318.2693306231288
 20
510.4602265165611
 30
0.0
  0
VERTEX
  5
17B
  8
LAYER_05
 10
318.2693306231288
 20
457.3088295055135
 30
0.0
  0
VERTEX
  5
17C
  8
LAYER_05
 10
553.7158250314145
 20
457.3088295055137
 30
0.0
 42
-0.0049536843987303
  0
SEQEND
  5
17D
  8
LAYER_05
  0
POLYLINE
  5
17E
  8
LAYER_05
 66
     1
 10
0.0
 20
0.0
 30
0.0
 70
     1
  0
VERTEX
  5
17F
  8
LAYER_05
 10
732.2988301551591
 20
1630.631145053416
 30
0.0
 42
0.0056662684637317
  0
VERTEX
  5
180
  8
LAYER_05
 10
750.9344329219879
 20
1679.790960759593
 30
0.0
  0
VERTEX
  5
181
  8
LAYER_05
 10
318.2693306231288
 20
1679.790960759592
 30
0.0
  0
VERTEX
  5
182
  8
LAYER_05
 10
318.2693306231288
 20
1626.639563748545
 30
0.0
  0
VERTEX
  5
183
  8
LAYER_05
 10
730.7374047157639
 20
1626.639563748545
 30
0.0
 42
-0.0003986943132418
  0
SEQEND
  5
184
  8
LAYER_05
  0
POLYLINE
  5
185
  8
LAYER_05
 66
     1
 10
0.0
 20
0.0
 30
0.0
 70
     1
  0
VERTEX
  5
186
  8
LAYER_05
 10
691.8109526340713
 20
1520.336769726452
 30
0.0
 42
-0.0052453335155278
  0
VERTEX
  5
187
  8
LAYER_05
 10
710.6393605357457
 20
1573.488166737491
 30
0.0
  0
VERTEX
  5
188
  8
LAYER_05
 10
318.2693306231288
 20
1573.488166737488
 30
0.0
  0
VERTEX
  5
189
  8
LAYER_05
 10
318.2693306231288
 20
1520.336769726451
 30
0.0
  0
SEQEND
  5
18A
  8
LAYER_05
  0
POLYLINE
  5
18B
  8
LAYER_05
 66
     1
 10
0.0
 20
0.0
 30
0.0
 70
     1
  0
VERTEX
  5
18C
  8
LAYER_05
 10
817.3958425105357
 20
1892.396548803782
 30
0.0
 42
-0.0059387247378464
  0
VERTEX
  5
18D
  8
LAYER_05
 10
802.8672964750574
 20
1839.245151792534
 30
0.0
  0
VERTEX
  5
18E
  8
LAYER_05
 10
318.2693306231288
 20
1839.245151792722
 30
0.0
  0
VERTEX
  5
18F
  8
LAYER_05
 10
318.2693306231288
 20
1892.39654880378
 30
0.0
  0
SEQEND
  5
190
  8
LAYER_05
  0
POLYLINE
  5
191
  8
LAYER_05
 66
     1
 10
0.0
 20
0.0
 30
0.0
 70
     1
  0
VERTEX
  5
192
  8
LAYER_05
 10
642.6761546748797
 20
1360.8825786933
 30
0.0
  0
VERTEX
  5
193
  8
LAYER_05
 10
318.2693306231288
 20
1360.882578693301
 30
0.0
  0
VERTEX
  5
194
  8
LAYER_05
 10
318.2693306231288
 20
1307.731181682254
 30
0.0
  0
VERTEX
  5
195
  8
LAYER_05
 10
628.6710286057395
 20
1307.731181682253
 30
0.0
 42
-0.005113030953752
  0
SEQEND
  5
196
  8
LAYER_05
  0
POLYLINE
  5
197
  8
LAYER_05
 66
     1
 10
0.0
 20
0.0
 30
0.0
 70
     1
  0
VERTEX
  5
198
  8
LAYER_05
 10
577.4985667273855
 20
244.7032414613234
 30
0.0
 42
-0.0049939824763959
  0
VERTEX
  5
199
  8
LAYER_05
 10
569.942088885715
 20
297.8546384723635
 30
0.0
  0
VERTEX
  5
19A
  8
LAYER_05
 10
318.2693306231288
 20
297.8546384723631
 30
0.0
  0
VERTEX
  5
19B
  8
LAYER_05
 10
318.2693306231288
 20
244.7032414613261
 30
0.0
  0
SEQEND
  5
19C
  8
LAYER_05
  0
POLYLINE
  5
19D
  8
LAYER_05
 66
     1
 10
0.0
 20
0.0
 30
0.0
 70
     1
  0
VERTEX
  5
19E
  8
LAYER_05
 10
842.4434572219052
 20
1998.699342825863
 30
0.0
  0
VERTEX
  5
19F
  8
LAYER_05
 10
318.2693306231288
 20
1998.699342825863
 30
0.0
  0
VERTEX
  5
1A0
  8
LAYER_05
 10
318.2693306231288
 20
1945.547945814816
 30
0.0
  0
VERTEX
  5
1A1
  8
LAYER_05
 10
830.5800873549565
 20
1945.547945814816
 30
0.0
 42
0.0058695249995499
  0
SEQEND
  5
1A2
  8
LAYER_05
  0
POLYLINE
  5
1A3
  8
LAYER_05
 66
     1
 10
0.0
 20
0.0
 30
0.0
 70
     1
  0
VERTEX
  5
1A4
  8
LAYER_05
 10
558.0578749395389
 20
404.1574324944689
 30
0.0
 42
0.0049697780252515
  0
VERTEX
  5
1A5
  8
LAYER_05
 10
563.4644694568153
 20
351.0060354834069
 30
0.0
  0
VERTEX
  5
1A6
  8
LAYER_05
 10
318.2693306231288
 20
351.0060354834097
 30
0.0
  0
VERTEX
  5
1A7
  8
LAYER_05
 10
318.2693306231288
 20
404.1574324944669
 30
0.0
  0
SEQEND
  5
1A8
  8
LAYER_05
  0
POLYLINE
  5
1A9
  8
LAYER_05
 66
     1
 10
0.0
 20
0.0
 30
0.0
 70
     1
  0
VERTEX
  5
1AA
  8
LAYER_05
 10
889.922514511929
 20
2370.759121903205
 30
0.0
 42
0.0057319730608474
  0
VERTEX
  5
1AB
  8
LAYER_05
 10
891.7583322333833
 20
2423.910518914237
 30
0.0
  0
VERTEX
  5
1AC
  8
LAYER_05
 10
318.2693306231288
 20
2423.910518914238
 30
0.0
  0
VERTEX
  5
1AD
  8
LAYER_05
 10
318.2693306231288
 20
2370.759121903201
 30
0.0
  0
SEQEND
  5
1AE
  8
LAYER_05
  0
POLYLINE
  5
1AF
  8
LAYER_05
 66
     1
 10
0.0
 20
0.0
 30
0.0
 70
     1
  0
VERTEX
  5
1B0
  8
LAYER_05
 10
769.6681566021015
 20
1732.94235777064
 30
0.0
 42
0.0060243785371471
  0
VERTEX
  5
1B1
  8
LAYER_05
 10
786.9679879694877
 20
1786.093754781673
 30
0.0
  0
VERTEX
  5
1B2
  8
LAYER_05
 10
318.2693306231288
 20
1786.093754781676
 30
0.0
  0
VERTEX
  5
1B3
  8
LAYER_05
 10
318.2693306231288
 20
1732.942357770639
 30
0.0
  0
SEQEND
  5
1B4
  8
LAYER_05
  0
POLYLINE
  5
1B5
  8
LAYER_05
 66
     1
 10
0.0
 20
0.0
 30
0.0
 70
     1
  0
VERTEX
  5
1B6
  8
LAYER_05
 10
862.3977404288355
 20
2849.121695002622
 30
0.0
 42
-0.0057930544593912
  0
VERTEX
  5
1B7
  8
LAYER_05
 10
870.395775124033
 20
2795.970297991564
 30
0.0
  0
VERTEX
  5
1B8
  8
LAYER_05
 10
318.2693306231288
 20
2795.970297991566
 30
0.0
  0
VERTEX
  5
1B9
  8
LAYER_05
 10
318.2693306231288
 20
2849.121695002623
 30
0.0
  0
SEQEND
  5
1BA
  8
LAYER_05
  0
POLYLINE
  5
1BB
  8
LAYER_05
 66
     1
 10
0.0
 20
0.0
 30
0.0
 70
     1
  0
VERTEX
  5
1BC
  8
LAYER_05
 10
981.3924928196834
 20
3061.72728304677
 30
0.0
  0
VERTEX
  5
1BD
  8
LAYER_05
 10
963.6698724413299
 20
3061.727283046772
 30
0.0
 42
-0.0684757555807325
  0
VERTEX
  5
1BE
  8
LAYER_05
 10
984.4511440261158
 20
3048.971864055889
 30
0.0
  0
SEQEND
  5
1BF
  8
LAYER_05
  0
CIRCLE
  5
1C0
  8
LAYER_05
 10
927.7097610681981
 20
2979.834416762435
 30
0.0
 40
69.44032176950192
  0
CIRCLE
  5
1C1
  8
LAYER_05
 10
971.3236421676149
 20
2689.807043642976
 30
0.0
 40
69.44032176950243
  0
CIRCLE
  5
1C2
  8
LAYER_05
 10
979.3548594393395
 20
2396.628685820863
 30
0.0
 40
69.4403217695026
  0
CIRCLE
  5
1C3
  8
LAYER_05
 10
951.6842726790189
 20
2104.648578926004
 30
0.0
 40
69.44032176950245
  0
CIRCLE
  5
1C4
  8
LAYER_05
 10
888.7223672226718
 20
1818.198155116992
 30
0.0
 40
69.44032176950239
  0
CIRCLE
  5
1C5
  8
LAYER_05
 10
793.3875997532454
 20
1542.566938175744
 30
0.0
 40
69.44032176950226
  0
CIRCLE
  5
1C6
  8
LAYER_05
 10
708.3174220607332
 20
1261.860311336911
 30
0.0
 40
69.44032176950229
  0
CIRCLE
  5
1C7
  8
LAYER_05
 10
655.414832858324
 20
973.3564721617939
 30
0.0
 40
69.4403217695023
  0
CIRCLE
  5
1C8
  8
LAYER_05
 10
635.3534986454802
 20
680.7292644136803
 30
0.0
 40
69.44032176950233
  0
CIRCLE
  5
1C9
  8
LAYER_05
 10
649.4887916356125
 20
387.8163628715072
 30
0.0
 40
69.44032176950218
  0
POLYLINE
  5
1CA
  8
LAYER_05
 66
     1
 10
0.0
 20
0.0
 30
0.0
 70
     1
  0
VERTEX
  5
1CB
  8
LAYER_05
 10
1036.049320870962
 20
2751.533518308416
 30
0.0
 42
0.4766071170618614
  0
VERTEX
  5
1CC
  8
LAYER_05
 10
897.5494757570733
 20
2740.373272775289
 30
0.0
 42
0.0183142685163161
  0
VERTEX
  5
1CD
  8
LAYER_05
 10
872.0702629089353
 20
2909.807154908088
 30
0.0
 42
0.4766071164002861
  0
VERTEX
  5
1CE
  8
LAYER_05
 10
1007.726938452992
 20
2939.874155481974
 30
0.0
 42
-0.0192178476735505
  0
SEQEND
  5
1CF
  8
LAYER_05
  0
POLYLINE
  5
1D0
  8
LAYER_05
 66
     1
 10
0.0
 20
0.0
 30
0.0
 70
     1
  0
VERTEX
  5
1D1
  8
LAYER_05
 10
747.5340145786158
 20
191.5518444502795
 30
0.0
 42
-0.014806596363244
  0
VERTEX
  5
1D2
  8
LAYER_05
 10
724.7861570283942
 20
339.5475538626025
 30
0.0
 42
-0.476280788168589
  0
VERTEX
  5
1D3
  8
LAYER_05
 10
586.7637916802474
 20
324.0578690151467
 30
0.0
 42
0.0125562947469166
  0
VERTEX
  5
1D4
  8
LAYER_05
 10
606.4422967740843
 20
191.5518444502796
 30
0.0
  0
SEQEND
  5
1D5
  8
LAYER_05
  0
POLYLINE
  5
1D6
  8
LAYER_05
 66
     1
 10
0.0
 20
0.0
 30
0.0
 70
     1
  0
VERTEX
  5
1D7
  8
LAYER_05
 10
707.126217174802
 20
734.0982444783479
 30
0.0
 42
0.4762654005710721
  0
VERTEX
  5
1D8
  8
LAYER_05
 10
568.3653694431794
 20
739.9927582712653
 30
0.0
 42
-0.0172705174727889
  0
VERTEX
  5
1D9
  8
LAYER_05
 10
580.965717588908
 20
923.7893419863109
 30
0.0
 42
0.4762654005589336
  0
VERTEX
  5
1DA
  8
LAYER_05
 10
719.2327650162597
 20
910.691947163057
 30
0.0
 42
0.0175051887836634
  0
SEQEND
  5
1DB
  8
LAYER_05
  0
POLYLINE
  5
1DC
  8
LAYER_05
 66
     1
 10
0.0
 20
0.0
 30
0.0
 70
     1
  0
VERTEX
  5
1DD
  8
LAYER_05
 10
848.3353748066299
 20
3021.056716114018
 30
0.0
 42
0.0044779313932394
  0
VERTEX
  5
1DE
  8
LAYER_05
 10
838.2331269969482
 20
3061.72728304677
 30
0.0
  0
VERTEX
  5
1DF
  8
LAYER_05
 10
891.7496496950668
 20
3061.72728304677
 30
0.0
 42
0.1711509527331609
  0
SEQEND
  5
1E0
  8
LAYER_05
  0
POLYLINE
  5
1E1
  8
LAYER_05
 66
     1
 10
0.0
 20
0.0
 30
0.0
 70
     1
  0
VERTEX
  5
1E2
  8
LAYER_05
 10
1051.104645800626
 20
2450.028492143938
 30
0.0
 42
0.4766071175659488
  0
VERTEX
  5
1E3
  8
LAYER_05
 10
912.2753329366687
 20
2455.788708491663
 30
0.0
 42
0.0183142689171745
  0
VERTEX
  5
1E4
  8
LAYER_05
 10
907.5834988163489
 20
2627.063396284919
 30
0.0
 42
0.4766071173359663
  0
VERTEX
  5
1E5
  8
LAYER_05
 10
1045.889260167208
 20
2640.415346257982
 30
0.0
 42
-0.0192178480647303
  0
SEQEND
  5
1E6
  8
LAYER_05
  0
POLYLINE
  5
1E7
  8
LAYER_05
 66
     1
 10
0.0
 20
0.0
 30
0.0
 70
     1
  0
VERTEX
  5
1E8
  8
LAYER_05
 10
971.2387911992936
 20
1852.703385624011
 30
0.0
 42
0.4766071168177465
  0
VERTEX
  5
1E9
  8
LAYER_05
 10
837.9033652594161
 20
1891.798428198623
 30
0.0
 42
0.0183142683616842
  0
VERTEX
  5
1EA
  8
LAYER_05
 10
874.685686562124
 20
2059.1426573967
 30
0.0
 42
0.4766071172633546
  0
VERTEX
  5
1EB
  8
LAYER_05
 10
1012.125571087452
 20
2038.721190042969
 30
0.0
 42
-0.0192178474793949
  0
SEQEND
  5
1EC
  8
LAYER_05
  0
POLYLINE
  5
1ED
  8
LAYER_05
 66
     1
 10
0.0
 20
0.0
 30
0.0
 70
     1
  0
VERTEX
  5
1EE
  8
LAYER_05
 10
880.2153402475572
 20
1572.633171045972
 30
0.0
  0
VERTEX
  5
1EF
  8
LAYER_05
 10
878.815579889462
 20
1569.055263303587
 30
0.0
 42
0.4762654020749365
  0
VERTEX
  5
1F0
  8
LAYER_05
 10
749.8974205031049
 20
1620.721755474633
 30
0.0
 42
-0.0002625349567009
  0
VERTEX
  5
1F1
  8
LAYER_05
 10
750.9186577997551
 20
1623.330321915882
 30
0.0
 42
0.0180190223493603
  0
VERTEX
  5
1F2
  8
LAYER_05
 10
806.7626688920354
 20
1782.39062786666
 30
0.0
 42
0.4766071164603385
  0
VERTEX
  5
1F3
  8
LAYER_05
 10
940.7004358940347
 20
1745.41181343514
 30
0.0
 42
-0.0184708027529495
  0
SEQEND
  5
1F4
  8
LAYER_05
  0
POLYLINE
  5
1F5
  8
LAYER_05
 66
     1
 10
0.0
 20
0.0
 30
0.0
 70
     1
  0
VERTEX
  5
1F6
  8
LAYER_05
 10
732.7434140836342
 20
1018.299343497666
 30
0.0
 42
0.4762654006475252
  0
VERTEX
  5
1F7
  8
LAYER_05
 10
595.5301681193308
 20
1039.789883088304
 30
0.0
 42
-0.0172705190063923
  0
VERTEX
  5
1F8
  8
LAYER_05
 10
628.7578217289098
 20
1220.996621424318
 30
0.0
 42
0.47626540092941
  0
VERTEX
  5
1F9
  8
LAYER_05
 10
764.6688953273448
 20
1192.404695157119
 30
0.0
 42
0.0175051903116699
  0
SEQEND
  5
1FA
  8
LAYER_05
  0
POLYLINE
  5
1FB
  8
LAYER_05
 66
     1
 10
0.0
 20
0.0
 30
0.0
 70
     1
  0
VERTEX
  5
1FC
  8
LAYER_05
 10
713.5823909506278
 20
450.1989059831693
 30
0.0
 42
0.4762807878191772
  0
VERTEX
  5
1FD
  8
LAYER_05
 10
575.2564380311936
 20
437.7075327974622
 30
0.0
 42
-0.017396191670383
  0
VERTEX
  5
1FE
  8
LAYER_05
 10
566.9629067145997
 20
623.0898847017519
 30
0.0
 42
0.4762654006841669
  0
VERTEX
  5
1FF
  8
LAYER_05
 10
705.8252287572609
 20
625.6538033326832
 30
0.0
 42
0.0173684421196323
  0
SEQEND
  5
200
  8
LAYER_05
  0
POLYLINE
  5
201
  8
LAYER_05
 66
     1
 10
0.0
 20
0.0
 30
0.0
 70
     1
  0
VERTEX
  5
202
  8
LAYER_05
 10
1029.393777618721
 20
2148.929545494706
 30
0.0
 42
0.4766071174496143
  0
VERTEX
  5
203
  8
LAYER_05
 10
892.2944926431668
 20
2171.524771891253
 30
0.0
 42
0.0183142679011358
  0
VERTEX
  5
204
  8
LAYER_05
 10
908.459638793933
 20
2342.099438183734
 30
0.0
 42
0.4766071175909578
  0
VERTEX
  5
205
  8
LAYER_05
 10
1047.362756999575
 20
2338.538264685631
 30
0.0
 42
-0.0192178470336393
  0
SEQEND
  5
206
  8
LAYER_05
  0
POLYLINE
  5
207
  8
LAYER_05
 66
     1
 10
0.0
 20
0.0
 30
0.0
 70
     1
  0
VERTEX
  5
208
  8
LAYER_05
 10
790.217160407745
 20
1297.804768724985
 30
0.0
 42
0.476265401182273
  0
VERTEX
  5
209
  8
LAYER_05
 10
656.2987963350713
 20
1334.617673410076
 30
0.0
 42
-0.0172705184146734
  0
VERTEX
  5
20A
  8
LAYER_05
 10
709.7306302502175
 20
1510.927048608909
 30
0.0
 42
0.4762654016961079
  0
VERTEX
  5
20B
  8
LAYER_05
 10
841.5550319544044
 20
1467.204682149409
 30
0.0
 42
0.0175051897139065
  0
SEQEND
  5
20C
  8
LAYER_05
  0
POLYLINE
  5
20D
  8
LAYER_05
 66
     1
 10
0.0
 20
0.0
 30
0.0
 70
     1
  0
VERTEX
  5
20E
  8
LAYER_05
 10
867.3540589813917
 20
2134.447676495304
 30
0.0
  0
VERTEX
  5
20F
  8
LAYER_05
 10
867.3521064693197
 20
2134.442150390529
 30
0.0
 42
-0.0000163821498807
  0
SEQEND
  5
210
  8
LAYER_05
  0
POLYLINE
  5
211
  8
LAYER_05
 66
     1
 10
0.0
 20
0.0
 30
0.0
 70
     1
  0
VERTEX
  5
212
  8
LAYER_05
 10
838.2995595779134
 20
2977.513419627841
 30
0.0
 42
0.0000163821650802
  0
VERTEX
  5
213
  8
LAYER_05
 10
838.2997118615688
 20
2977.507560707543
 30
0.0
  0
SEQEND
  5
214
  8
LAYER_05
  0
POLYLINE
  5
215
  8
LAYER_05
 66
     1
 10
0.0
 20
0.0
 30
0.0
 70
     1
  0
VERTEX
  5
216
  8
LAYER_05
 10
882.2944609308809
 20
2698.373025580201
 30
0.0
  0
VERTEX
  5
217
  8
LAYER_05
 10
882.293899805227
 20
2698.367191604251
 30
0.0
 42
-0.0000163821643831
  0
SEQEND
  5
218
  8
LAYER_05
  0
POLYLINE
  5
219
  8
LAYER_05
 66
     1
 10
0.0
 20
0.0
 30
0.0
 70
     1
  0
VERTEX
  5
21A
  8
LAYER_05
 10
892.0274224795218
 20
2415.954572922395
 30
0.0
 42
0.0000163821498797
  0
VERTEX
  5
21B
  8
LAYER_05
 10
892.0261562686986
 20
2415.948850436263
 30
0.0
  0
SEQEND
  5
21C
  8
LAYER_05
  0
POLYLINE
  5
21D
  8
LAYER_05
 66
     1
 10
0.0
 20
0.0
 30
0.0
 70
     1
  0
VERTEX
  5
21E
  8
LAYER_05
 10
621.743946002172
 20
1284.323712712701
 30
0.0
  0
VERTEX
  5
21F
  8
LAYER_05
 10
621.742474192814
 20
1284.318039625835
 30
0.0
 42
-0.0000163821569705
  0
SEQEND
  5
220
  8
LAYER_05
  0
POLYLINE
  5
221
  8
LAYER_05
 66
     1
 10
0.0
 20
0.0
 30
0.0
 70
     1
  0
VERTEX
  5
222
  8
LAYER_05
 10
709.8961888860665
 20
1574.641156321165
 30
0.0
  0
VERTEX
  5
223
  8
LAYER_05
 10
709.8940872867287
 20
1574.63568517708
 30
0.0
 42
-0.0000163821498788
  0
SEQEND
  5
224
  8
LAYER_05
  0
POLYLINE
  5
225
  8
LAYER_05
 66
     1
 10
0.0
 20
0.0
 30
0.0
 70
     1
  0
VERTEX
  5
226
  8
LAYER_05
 10
545.9483934215884
 20
683.2389094357789
 30
0.0
 42
0.0000163821498775
  0
VERTEX
  5
227
  8
LAYER_05
 10
545.9482291600176
 20
683.2330508390611
 30
0.0
  0
SEQEND
  5
228
  8
LAYER_05
  0
POLYLINE
  5
229
  8
LAYER_05
 66
     1
 10
0.0
 20
0.0
 30
0.0
 70
     1
  0
VERTEX
  5
22A
  8
LAYER_05
 10
566.8617223961727
 20
985.9230065173813
 30
0.0
  0
VERTEX
  5
22B
  8
LAYER_05
 10
566.8608991188997
 20
985.9172037290949
 30
0.0
 42
-0.0000163821474866
  0
SEQEND
  5
22C
  8
LAYER_05
  0
POLYLINE
  5
22D
  8
LAYER_05
 66
     1
 10
0.0
 20
0.0
 30
0.0
  0
VERTEX
  5
22E
  8
LAYER_05
 10
560.3701805188412
 20
380.2371603508068
 30
0.0
 42
0.0000163821498775
  0
VERTEX
  5
22F
  8
LAYER_05
 10
560.370677364705
 20
380.2313205493073
 30
0.0
  0
SEQEND
  5
230
  8
LAYER_05
  0
POLYLINE
  5
231
  8
LAYER_05
 66
     1
 10
0.0
 20
0.0
 30
0.0
 70
     1
  0
VERTEX
  5
232
  8
LAYER_05
 10
808.6403928819043
 20
1858.028401713225
 30
0.0
 42
0.0000163821498779
  0
VERTEX
  5
233
  8
LAYER_05
 10
808.6377830335647
 20
1858.023153968089
 30
0.0
 42
-0.0000163821320959
  0
SEQEND
  5
234
  8
LAYER_05
  0
ENDSEC
  0
EOF
