  0
SECTION
  2
HEADER
  9
$ACADVER
  1
AC1009
  9
$DWGCODEPAGE
  3
ansi_1252
  9
$INSBASE
 10
0.0
 20
0.0
 30
0.0
  9
$EXTMIN
 10
1.000000000000000E+20
 20
1.000000000000000E+20
 30
1.000000000000000E+20
  9
$EXTMAX
 10
-1.000000000000000E+20
 20
-1.000000000000000E+20
 30
-1.000000000000000E+20
  9
$LIMMIN
 10
0.0
 20
0.0
  9
$LIMMAX
 10
12.0
 20
9.0
  9
$ORTHOMODE
 70
     0
  9
$REGENMODE
 70
     1
  9
$FILLMODE
 70
     1
  9
$QTEXTMODE
 70
     0
  9
$MIRRTEXT
 70
     1
  9
$DRAGMODE
 70
     2
  9
$LTSCALE
 40
1.0
  9
$OSMODE
 70
    37
  9
$ATTMODE
 70
     1
  9
$TEXTSIZE
 40
0.2
  9
$TRACEWID
 40
0.05
  9
$TEXTSTYLE
  7
STANDARD
  9
$CLAYER
  8
LAYER_01
  9
$CELTYPE
  6
BYLAYER
  9
$CECOLOR
 62
   256
  9
$DIMSCALE
 40
1.0
  9
$DIMASZ
 40
0.18
  9
$DIMEXO
 40
0.0625
  9
$DIMDLI
 40
0.38
  9
$DIMRND
 40
0.0
  9
$DIMDLE
 40
0.0
  9
$DIMEXE
 40
0.18
  9
$DIMTP
 40
0.0
  9
$DIMTM
 40
0.0
  9
$DIMTXT
 40
0.18
  9
$DIMCEN
 40
0.09
  9
$DIMTSZ
 40
0.0
  9
$DIMTOL
 70
     0
  9
$DIMLIM
 70
     0
  9
$DIMTIH
 70
     1
  9
$DIMTOH
 70
     1
  9
$DIMSE1
 70
     0
  9
$DIMSE2
 70
     0
  9
$DIMTAD
 70
     0
  9
$DIMZIN
 70
     0
  9
$DIMBLK
  1

  9
$DIMASO
 70
     1
  9
$DIMSHO
 70
     1
  9
$DIMPOST
  1

  9
$DIMAPOST
  1

  9
$DIMALT
 70
     0
  9
$DIMALTD
 70
     2
  9
$DIMALTF
 40
25.4
  9
$DIMLFAC
 40
1.0
  9
$DIMTOFL
 70
     0
  9
$DIMTVP
 40
0.0
  9
$DIMTIX
 70
     0
  9
$DIMSOXD
 70
     0
  9
$DIMSAH
 70
     0
  9
$DIMBLK1
  1

  9
$DIMBLK2
  1

  9
$DIMSTYLE
  2
STANDARD_ACAD
  9
$DIMCLRD
 70
     0
  9
$DIMCLRE
 70
     0
  9
$DIMCLRT
 70
     0
  9
$DIMTFAC
 40
1.0
  9
$DIMGAP
 40
0.09
  9
$LUNITS
 70
     2
  9
$LUPREC
 70
     3
  9
$SKETCHINC
 40
0.1
  9
$FILLETRAD
 40
0.5
  9
$AUNITS
 70
     0
  9
$AUPREC
 70
     0
  9
$MENU
  1
.
  9
$ELEVATION
 40
0.0
  9
$PELEVATION
 40
0.0
  9
$THICKNESS
 40
0.0
  9
$LIMCHECK
 70
     0
  9
$CHAMFERA
 40
0.0
  9
$CHAMFERB
 40
0.0
  9
$SKPOLY
 70
     0
  9
$TDCREATE
 40
2459586.381599815
  9
$TDUPDATE
 40
2459586.381599815
  9
$TDINDWG
 40
0.0000000116
  9
$TDUSRTIMER
 40
0.0000000116
  9
$USRTIMER
 70
     1
  9
$ANGBASE
 50
0.0
  9
$ANGDIR
 70
     0
  9
$PDMODE
 70
     0
  9
$PDSIZE
 40
0.0
  9
$PLINEWID
 40
0.0
  9
$COORDS
 70
     1
  9
$SPLFRAME
 70
     0
  9
$SPLINETYPE
 70
     6
  9
$SPLINESEGS
 70
     8
  9
$ATTDIA
 70
     0
  9
$ATTREQ
 70
     1
  9
$HANDLING
 70
     1
  9
$HANDSEED
  5
178
  9
$SURFTAB1
 70
     6
  9
$SURFTAB2
 70
     6
  9
$SURFTYPE
 70
     6
  9
$SURFU
 70
     6
  9
$SURFV
 70
     6
  9
$UCSNAME
  2

  9
$UCSORG
 10
0.0
 20
0.0
 30
0.0
  9
$UCSXDIR
 10
1.0
 20
0.0
 30
0.0
  9
$UCSYDIR
 10
0.0
 20
1.0
 30
0.0
  9
$PUCSNAME
  2

  9
$PUCSORG
 10
0.0
 20
0.0
 30
0.0
  9
$PUCSXDIR
 10
1.0
 20
0.0
 30
0.0
  9
$PUCSYDIR
 10
0.0
 20
1.0
 30
0.0
  9
$USERI1
 70
     0
  9
$USERI2
 70
     0
  9
$USERI3
 70
     0
  9
$USERI4
 70
     0
  9
$USERI5
 70
     0
  9
$USERR1
 40
0.0
  9
$USERR2
 40
0.0
  9
$USERR3
 40
0.0
  9
$USERR4
 40
0.0
  9
$USERR5
 40
0.0
  9
$WORLDVIEW
 70
     1
  9
$SHADEDGE
 70
     3
  9
$SHADEDIF
 70
    70
  9
$TILEMODE
 70
     1
  9
$MAXACTVP
 70
    64
  9
$PLIMCHECK
 70
     0
  9
$PEXTMIN
 10
1.000000000000000E+20
 20
1.000000000000000E+20
 30
1.000000000000000E+20
  9
$PEXTMAX
 10
-1.000000000000000E+20
 20
-1.000000000000000E+20
 30
-1.000000000000000E+20
  9
$PLIMMIN
 10
0.0
 20
0.0
  9
$PLIMMAX
 10
12.0
 20
9.0
  9
$UNITMODE
 70
     0
  9
$VISRETAIN
 70
     1
  9
$PLINEGEN
 70
     0
  9
$PSLTSCALE
 70
     1
  0
ENDSEC
  0
SECTION
  2
TABLES
  0
TABLE
  2
VPORT
 70
     1
  0
VPORT
  2
*ACTIVE
 70
     0
 10
0.0
 20
0.0
 11
1.0
 21
1.0
 12
10.42990654205607
 22
4.5
 13
0.0
 23
0.0
 14
0.5
 24
0.5
 15
0.5
 25
0.5
 16
0.0
 26
0.0
 36
1.0
 17
0.0
 27
0.0
 37
0.0
 40
9.0
 41
1.972972972850329
 42
50.0
 43
0.0
 44
0.0
 50
0.0
 51
0.0
 71
     0
 72
   100
 73
     1
 74
     3
 75
     0
 76
     0
 77
     0
 78
     0
  0
ENDTAB
  0
TABLE
  2
LTYPE
 70
     1
  0
LTYPE
  2
CONTINUOUS
 70
     0
  3
Solid line
 72
    65
 73
     0
 40
0.0
  0
ENDTAB
  0
TABLE
  2
LAYER
 70
     2
  0
LAYER
  2
0
 70
     0
 62
     7
  6
CONTINUOUS
  0
LAYER
  2
LAYER_01
 70
     0
 62
     7
  6
CONTINUOUS
  0
ENDTAB
  0
TABLE
  2
STYLE
 70
     1
  0
STYLE
  2
STANDARD
 70
     0
 40
0.0
 41
1.0
 50
0.0
 71
     0
 42
0.2
  3
txt
  4

  0
ENDTAB
  0
TABLE
  2
VIEW
 70
     0
  0
ENDTAB
  0
TABLE
  2
UCS
 70
     0
  0
ENDTAB
  0
TABLE
  2
APPID
 70
     2
  0
APPID
  2
ACAD
 70
     0
  0
APPID
  2
RHINO
 70
     0
  0
ENDTAB
  0
TABLE
  2
DIMSTYLE
 70
     1
  0
DIMSTYLE
  2
STANDARD_ACAD
 70
     0
  3

  4

  5

  6

  7

 40
1.0
 41
0.18
 42
0.0625
 43
0.38
 44
0.18
 45
0.0
 46
0.0
 47
0.0
 48
0.0
140
0.18
141
0.09
142
0.0
143
25.4
144
1.0
145
0.0
146
1.0
147
0.09
 71
     0
 72
     0
 73
     1
 74
     1
 75
     0
 76
     0
 77
     0
 78
     0
170
     0
171
     2
172
     0
173
     0
174
     0
175
     0
176
     0
177
     0
178
     0
  0
ENDTAB
  0
ENDSEC
  0
SECTION
  2
BLOCKS
  0
BLOCK
  8
0
  2
$MODEL_SPACE
 70
     0
 10
0.0
 20
0.0
 30
0.0
  3
$MODEL_SPACE
  1

  0
ENDBLK
  5
21
  8
0
  0
BLOCK
 67
     1
  8
0
  2
$PAPER_SPACE
 70
     0
 10
0.0
 20
0.0
 30
0.0
  3
$PAPER_SPACE
  1

  0
ENDBLK
  5
1D
 67
     1
  8
0
  0
ENDSEC
  0
SECTION
  2
ENTITIES
  0
ARC
  5
70
  8
LAYER_01
 10
306.118411510304
 20
348.9700598922875
 30
0.0
 40
32.53683628207742
 50
255.8001935343717
 51
291.139531542937
  0
LINE
  5
71
  8
LAYER_01
 10
317.852509776183
 20
318.622792253612
 30
0.0
 11
309.896408500907
 21
334.9570178937913
 31
0.0
  0
ARC
  5
72
  8
LAYER_01
 10
-306.118411510304
 20
348.9700598922875
 30
0.0
 40
14.51339406591813
 50
254.9114798724718
 51
278.1487950502193
210
0.0
220
0.0
230
-1.0
  0
LINE
  5
73
  8
LAYER_01
 10
304.0612203545328
 20
334.6032031775693
 30
0.0
 11
298.1369918024853
 21
317.4273482984129
 31
0.0
  0
ARC
  5
74
  8
LAYER_01
 10
306.118411510304
 20
348.9700598922875
 30
0.0
 40
32.53683628207742
 50
345.8001935343719
 51
21.13953154293711
  0
LINE
  5
75
  8
LAYER_01
 10
336.4656791489797
 20
360.7041581581665
 30
0.0
 11
320.1314535088003
 21
352.7480568828907
 31
0.0
  0
ARC
  5
76
  8
LAYER_01
 10
-306.118411510304
 20
348.9700598922875
 30
0.0
 40
14.51339406591813
 50
164.9114798724719
 51
188.1487950502191
210
0.0
220
0.0
230
-1.0
  0
LINE
  5
77
  8
LAYER_01
 10
320.4852682250223
 20
346.9128687365164
 30
0.0
 11
337.6611231041786
 21
340.9886401844689
 31
0.0
  0
ARC
  5
78
  8
LAYER_01
 10
306.118411510304
 20
348.9700598922875
 30
0.0
 40
32.53683628207742
 50
210.8001935343721
 51
246.1395315429368
  0
LINE
  5
79
  8
LAYER_01
 10
292.9569132274257
 20
319.2140406995847
 30
0.0
 11
298.8811417794733
 21
336.389895578741
 31
0.0
  0
ARC
  5
7A
  8
LAYER_01
 10
-306.118411510304
 20
348.9700598922875
 30
0.0
 40
14.51339406591813
 50
299.9114798724716
 51
323.1487950502189
210
0.0
220
0.0
230
-1.0
  0
LINE
  5
7B
  8
LAYER_01
 10
294.5048558865487
 20
340.2658119014175
 30
0.0
 11
278.1706302463693
 21
332.3097106261416
 31
0.0
  0
ARC
  5
7C
  8
LAYER_01
 10
306.118411510304
 20
348.9700598922875
 30
0.0
 40
32.53683628207742
 50
75.80019353437194
 51
111.1395315429372
  0
LINE
  5
7D
  8
LAYER_01
 10
294.3843132444249
 20
379.317327530963
 30
0.0
 11
302.3404145197009
 21
362.9831018907838
 31
0.0
  0
ARC
  5
7E
  8
LAYER_01
 10
-306.118411510304
 20
348.9700598922875
 30
0.0
 40
14.51339406591813
 50
74.91147987245716
 51
98.1487950502196
210
0.0
220
0.0
230
-1.0
  0
LINE
  5
7F
  8
LAYER_01
 10
308.1756026660752
 20
363.3369166070057
 30
0.0
 11
314.0998312181226
 21
380.5127714861621
 31
0.0
  0
ARC
  5
80
  8
LAYER_01
 10
-306.118411510304
 20
348.9700598922875
 30
0.0
 40
32.53683628207742
 50
338.8604684570631
 51
14.19980646562825
210
0.0
220
0.0
230
-1.0
  0
LINE
  5
81
  8
LAYER_01
 10
274.5756999164293
 20
356.951479600106
 30
0.0
 11
291.7515547955858
 21
351.0272510480586
 31
0.0
  0
ARC
  5
82
  8
LAYER_01
 10
306.118411510304
 20
348.9700598922875
 30
0.0
 40
14.51339406591813
 50
171.8512049497809
 51
195.0885201275281
  0
LINE
  5
83
  8
LAYER_01
 10
292.1053695118077
 20
345.1920629016843
 30
0.0
 11
275.7711438716284
 21
337.2359616264086
 31
0.0
  0
ARC
  5
84
  8
LAYER_01
 10
306.118411510304
 20
348.9700598922875
 30
0.0
 40
32.53683628207742
 50
30.80019353437193
 51
66.13953154293694
  0
LINE
  5
85
  8
LAYER_01
 10
319.2799097931822
 20
378.7260790849904
 30
0.0
 11
313.3556812411348
 21
361.550224205834
 31
0.0
  0
ARC
  5
86
  8
LAYER_01
 10
-306.118411510304
 20
348.9700598922875
 30
0.0
 40
14.51339406591813
 50
119.9114798724724
 51
143.1487950502194
210
0.0
220
0.0
230
-1.0
  0
LINE
  5
87
  8
LAYER_01
 10
317.7319671340595
 20
357.6743078831576
 30
0.0
 11
334.0661927742388
 21
365.6304091584333
 31
0.0
  0
ARC
  5
88
  8
LAYER_01
 10
-306.118411510304
 20
348.9700598922875
 30
0.0
 40
32.53683628207742
 50
23.86046845706347
 51
59.19980646562775
210
0.0
220
0.0
230
-1.0
  0
LINE
  5
89
  8
LAYER_01
 10
289.458062244158
 20
376.9178411562222
 30
0.0
 11
297.4141635194339
 21
360.583615516043
 31
0.0
  0
ARC
  5
8A
  8
LAYER_01
 10
306.118411510304
 20
348.9700598922875
 30
0.0
 40
14.51339406591813
 50
126.8512049497811
 51
150.0885201275281
  0
LINE
  5
8B
  8
LAYER_01
 10
293.5382471967575
 20
356.2073296231183
 30
0.0
 11
276.3623923176012
 21
362.131558175166
 31
0.0
  0
ARC
  5
8C
  8
LAYER_01
 10
306.118411510304
 20
348.9700598922875
 30
0.0
 40
32.53683628207742
 50
300.8001935343721
 51
336.1395315429368
  0
LINE
  5
8D
  8
LAYER_01
 10
335.8744307030067
 20
335.8085616094093
 30
0.0
 11
318.6985758238504
 21
341.7327901614568
 31
0.0
  0
ARC
  5
8E
  8
LAYER_01
 10
-306.118411510304
 20
348.9700598922875
 30
0.0
 40
14.51339406591813
 50
209.9114798724719
 51
233.1487950502189
210
0.0
220
0.0
230
-1.0
  0
LINE
  5
8F
  8
LAYER_01
 10
314.822659501174
 20
337.356504268532
 30
0.0
 11
322.7787607764499
 21
321.0222786283528
 31
0.0
  0
ARC
  5
90
  8
LAYER_01
 10
306.1184115103025
 20
348.9700598922832
 30
0.0
 40
40.67263421690213
 50
74.3121291266909
 51
82.40695146193036
  0
LINE
  5
91
  8
LAYER_01
 10
311.4927359587888
 20
389.2860593325095
 30
0.0
 11
313.8835853580103
 21
407.2212405752107
 31
0.0
  0
ARC
  5
92
  8
LAYER_01
 10
306.1184115103016
 20
348.9700598922872
 30
0.0
 40
58.76646982625163
 50
82.40695146192897
 51
121.7178101021055
  0
LINE
  5
93
  8
LAYER_01
 10
275.2227570884931
 20
398.9596239400755
 30
0.0
 11
268.5249387847149
 21
406.8319664805836
 31
0.0
  0
ARC
  5
94
  8
LAYER_01
 10
-306.1184115103024
 20
348.970059892284
 30
0.0
 40
69.00195233181881
 50
56.98780535062223
 51
105.6878708733092
210
0.0
220
0.0
230
-1.0
  0
LINE
  5
95
  8
LAYER_01
 10
324.7763078931475
 20
415.4016211276607
 30
0.0
 11
317.1161553304637
 21
388.1275981832435
 31
0.0
  0
ARC
  5
96
  8
LAYER_01
 10
306.1184115103025
 20
348.9700598922832
 30
0.0
 40
40.67263421690213
 50
2.312129126690888
 51
10.40695146193033
  0
LINE
  5
97
  8
LAYER_01
 10
346.1219630767484
 20
356.3171025771067
 30
0.0
 11
363.9181471639047
 21
359.5855454776862
 31
0.0
  0
ARC
  5
98
  8
LAYER_01
 10
306.118411510306
 20
348.9700598922853
 30
0.0
 40
58.76646982625163
 50
10.40695146192896
 51
49.71781010210555
  0
LINE
  5
99
  8
LAYER_01
 10
344.1140298760347
 20
393.8011981875109
 30
0.0
 11
349.5313328665894
 21
402.603889560838
 31
0.0
  0
ARC
  5
9A
  8
LAYER_01
 10
-306.1184115103032
 20
348.9700598922835
 30
0.0
 40
69.00195233181881
 50
128.9878053506222
 51
177.6878708733092
210
0.0
220
0.0
230
-1.0
  0
LINE
  5
9B
  8
LAYER_01
 10
375.0641877724548
 20
351.7538273416103
 30
0.0
 11
346.7579332042092
 21
350.6109287573686
 31
0.0
  0
ARC
  5
9C
  8
LAYER_01
 10
306.1184115103025
 20
348.9700598922832
 30
0.0
 40
40.67263421690213
 50
290.3121291266909
 51
298.4069514619303
  0
LINE
  5
9D
  8
LAYER_01
 10
325.467641600589
 20
313.1947825480742
 30
0.0
 11
334.07543883728
 21
297.2796101082193
 31
0.0
  0
ARC
  5
9E
  8
LAYER_01
 10
306.1184115103056
 20
348.9700598922806
 30
0.0
 40
58.76646982625163
 50
298.4069514619289
 51
337.7178101021054
  0
LINE
  5
9F
  8
LAYER_01
 10
360.4966495057042
 20
326.6876630652887
 30
0.0
 11
370.5425451850017
 21
324.2556829859723
 31
0.0
  0
ARC
  5
A0
  8
LAYER_01
 10
-306.1184115103031
 20
348.9700598922826
 30
0.0
 40
69.00195233181881
 50
200.9878053506222
 51
249.6878708733091
210
0.0
220
0.0
230
-1.0
  0
LINE
  5
A1
  8
LAYER_01
 10
330.0713482382133
 20
284.2589615573654
 30
0.0
 11
320.2372733835143
 21
310.8266343310271
 31
0.0
  0
ARC
  5
A2
  8
LAYER_01
 10
306.1184115103025
 20
348.9700598922832
 30
0.0
 40
40.67263421690213
 50
218.3121291266909
 51
226.4069514619304
  0
LINE
  5
A3
  8
LAYER_01
 10
278.0733417957957
 20
319.5126798517844
 30
0.0
 11
265.5970689691819
 21
306.408119446559
 31
0.0
  0
ARC
  5
A4
  8
LAYER_01
 10
306.1184115103009
 20
348.9700598922793
 30
0.0
 40
58.76646982625163
 50
226.4069514619289
 51
265.7178101021056
  0
LINE
  5
A5
  8
LAYER_01
 10
301.7303924740595
 20
290.36764300716
 30
0.0
 11
302.5217944607463
 21
280.0619052848527
 31
0.0
  0
ARC
  5
A6
  8
LAYER_01
 10
-306.1184115103021
 20
348.9700598922824
 30
0.0
 40
69.00195233181881
 50
272.9878053506222
 51
321.6878708733092
210
0.0
220
0.0
230
-1.0
  0
LINE
  5
A7
  8
LAYER_01
 10
251.9763642763747
 20
306.1926342226401
 30
0.0
 11
274.2048263365057
 21
323.75525758299
 31
0.0
  0
ARC
  5
A8
  8
LAYER_01
 10
-306.118411510305
 20
348.9700598922909
 30
0.0
 40
76.51980940970249
 50
45.78885986833156
 51
69.68787087330905
210
0.0
220
0.0
230
-1.0
  0
LINE
  5
A9
  8
LAYER_01
 10
279.555769566373
 20
420.7315208936924
 30
0.0
 11
264.3327787117232
 21
461.8578541419628
 31
0.0
  0
ARC
  5
AA
  8
LAYER_01
 10
306.118411510305
 20
348.9700598922909
 30
0.0
 40
120.3731415180901
 50
110.312129126691
 51
130.3230770685491
  0
LINE
  5
AB
  8
LAYER_01
 10
228.2253238765512
 20
440.7434770555114
 30
0.0
 11
234.6056583427309
 21
433.226184900461
 31
0.0
  0
ARC
  5
AC
  8
LAYER_01
 10
-306.118411510305
 20
348.9700598922909
 30
0.0
 40
110.513204944019
 50
49.67692293146695
 51
60.45546473618182
210
0.0
220
0.0
230
-1.0
  0
LINE
  5
AD
  8
LAYER_01
 10
251.6243581716077
 20
445.1135288213761
 30
0.0
 11
266.2862614542372
 21
425.5155679478021
 31
0.0
  0
ARC
  5
AE
  8
LAYER_01
 10
306.118411510305
 20
348.9700598922909
 30
0.0
 40
86.28913594170142
 50
117.4912129309078
 51
141.8554228263154
  0
LINE
  5
AF
  8
LAYER_01
 10
238.2559133900012
 20
402.2663668040947
 30
0.0
 11
274.1312264148702
 21
374.0914285614601
 31
0.0
  0
ARC
  5
B0
  8
LAYER_01
 10
-306.1184115103056
 20
348.9700598922896
 30
0.0
 40
40.67263421690347
 50
38.14457717368529
 51
84.15680018696118
210
0.0
220
0.0
230
-1.0
  0
LINE
  5
B1
  8
LAYER_01
 10
301.9776775496266
 20
389.4313685266987
 30
0.0
 11
300.9062310904433
 21
399.9010403969364
 31
0.0
  0
ARC
  5
B2
  8
LAYER_01
 10
306.1184115103056
 20
348.9700598922898
 30
0.0
 40
51.1969881916299
 50
95.84319981303892
 51
134.211140131883
  0
LINE
  5
B3
  8
LAYER_01
 10
270.4185222804845
 20
385.6667833001419
 30
0.0
 11
252.76080559845
 21
403.8175495654964
 31
0.0
  0
ARC
  5
B4
  8
LAYER_01
 10
-306.118411510305
 20
348.9700598922909
 30
0.0
 40
76.51980940970249
 50
45.78885986833168
 51
69.68787087330905
210
0.0
220
0.0
230
-1.0
  0
LINE
  5
B5
  8
LAYER_01
 10
252.3697335174931
 20
425.4135659218151
 30
0.0
 11
246.9605216779417
 21
433.106761983766
 31
0.0
  0
ARC
  5
B6
  8
LAYER_01
 10
306.118411510305
 20
348.9700598922909
 30
0.0
 40
102.8525185313789
 50
125.1116790604929
 51
134.211140131557
  0
LINE
  5
B7
  8
LAYER_01
 10
234.3988895569185
 20
422.6921782762967
 30
0.0
 11
217.1563556144111
 21
440.4161688153064
 31
0.0
  0
ARC
  5
B8
  8
LAYER_01
 10
-306.118411510305
 20
348.9700598922909
 30
0.0
 40
127.5799287755882
 50
45.78885986850568
 51
69.68787087330904
210
0.0
220
0.0
230
-1.0
  0
LINE
  5
B9
  8
LAYER_01
 10
261.8310564653694
 20
468.6164907187388
 30
0.0
 11
259.3265093216634
 21
475.3827590198583
 31
0.0
  0
ARC
  5
BA
  8
LAYER_01
 10
306.118411510305
 20
348.9700598922909
 30
0.0
 40
134.7948538006858
 50
110.3121291266911
 51
141.8554228263155
  0
LINE
  5
BB
  8
LAYER_01
 10
200.1083627035129
 20
432.2258234353023
 30
0.0
 11
232.6257855181493
 21
406.6880287134302
 31
0.0
  0
ARC
  5
BC
  8
LAYER_01
 10
-306.1184115102978
 20
348.9700598922987
 30
0.0
 40
93.44800693465288
 50
38.14457717368352
 51
54.88832093952214
210
0.0
220
0.0
230
-1.0
  0
ARC
  5
BD
  8
LAYER_01
 10
-306.1184115103131
 20
348.9700598922909
 30
0.0
 40
76.51980940970249
 50
117.7888598683315
 51
141.687870873309
210
0.0
220
0.0
230
-1.0
  0
LINE
  5
BE
  8
LAYER_01
 10
366.1593088383847
 20
396.4081445936905
 30
0.0
 11
400.5686131861771
 21
423.5948051335496
 31
0.0
  0
ARC
  5
BF
  8
LAYER_01
 10
306.1184115103131
 20
348.9700598922909
 30
0.0
 40
120.3731415180901
 50
38.31212912669102
 51
58.32307706854908
  0
LINE
  5
C0
  8
LAYER_01
 10
369.3298301029004
 20
451.4103339960185
 30
0.0
 11
364.152092193791
 21
443.0193042982236
 31
0.0
  0
ARC
  5
C1
  8
LAYER_01
 10
-306.1184115103131
 20
348.9700598922909
 30
0.0
 40
110.513204944019
 50
121.6769229314669
 51
132.4554647361818
210
0.0
220
0.0
230
-1.0
  0
LINE
  5
C2
  8
LAYER_01
 10
380.7166955605078
 20
430.5069502166417
 30
0.0
 11
366.6087044498122
 21
410.5065485933779
 31
0.0
  0
ARC
  5
C3
  8
LAYER_01
 10
306.1184115103131
 20
348.9700598922909
 30
0.0
 40
86.28913594170142
 50
45.49121293090786
 51
69.85542282631538
  0
LINE
  5
C4
  8
LAYER_01
 10
335.8355462933387
 20
429.9805955148438
 30
0.0
 11
320.1256690846729
 21
387.154610555975
 31
0.0
  0
ARC
  5
C5
  8
LAYER_01
 10
-306.1184115103119
 20
348.97005989229
 30
0.0
 40
40.67263421690347
 50
110.1445771736852
 51
156.1568001869612
210
0.0
220
0.0
230
-1.0
  0
LINE
  5
C6
  8
LAYER_01
 10
343.3198455818608
 20
365.4113638905205
 30
0.0
 11
352.946000073072
 21
369.665676560821
 31
0.0
  0
ARC
  5
C7
  8
LAYER_01
 10
306.1184115103122
 20
348.97005989229
 30
0.0
 40
51.1969881916299
 50
23.84319981303893
 51
62.21114013188308
  0
LINE
  5
C8
  8
LAYER_01
 10
329.9871969647129
 20
394.2625833462297
 30
0.0
 11
341.793066960522
 21
416.6649650964943
 31
0.0
  0
ARC
  5
C9
  8
LAYER_01
 10
-306.1184115103131
 20
348.9700598922909
 30
0.0
 40
76.51980940970249
 50
117.7888598683316
 51
141.687870873309
210
0.0
220
0.0
230
-1.0
  0
LINE
  5
CA
  8
LAYER_01
 10
362.2112511231743
 20
423.7104328123312
 30
0.0
 11
367.8563769844333
 21
431.2322273045588
 31
0.0
  0
ARC
  5
CB
  8
LAYER_01
 10
306.1184115103131
 20
348.9700598922909
 30
0.0
 40
102.8525185313789
 50
53.11167906049283
 51
62.21114013155704
  0
LINE
  5
CC
  8
LAYER_01
 10
354.0697614824609
 20
439.960766033612
 30
0.0
 11
365.5980421650181
 21
461.8364045817688
 31
0.0
  0
ARC
  5
CD
  8
LAYER_01
 10
-306.1184115103131
 20
348.9700598922909
 30
0.0
 40
127.5799287755882
 50
117.7888598685057
 51
141.687870873309
210
0.0
220
0.0
230
-1.0
  0
LINE
  5
CE
  8
LAYER_01
 10
406.2233838544615
 20
428.0626179389329
 30
0.0
 11
411.8845397826241
 21
432.5354757138693
 31
0.0
  0
ARC
  5
CF
  8
LAYER_01
 10
306.1184115103131
 20
348.9700598922909
 30
0.0
 40
134.7948538006858
 50
38.31212912669109
 51
69.8554228263155
  0
LINE
  5
D0
  8
LAYER_01
 10
352.5404412912062
 20
475.5190534172105
 30
0.0
 11
338.3009914721599
 21
436.7015339883085
 31
0.0
  0
ARC
  5
D1
  8
LAYER_01
 10
-306.1184115103182
 20
348.9700598923001
 30
0.0
 40
93.44800693465288
 50
110.1445771736835
 51
126.8883209395221
210
0.0
220
0.0
230
-1.0
  0
ARC
  5
D2
  8
LAYER_01
 10
-306.1184115103156
 20
348.9700598922833
 30
0.0
 40
76.51980940970249
 50
189.7888598683315
 51
213.687870873309
210
0.0
220
0.0
230
-1.0
  0
LINE
  5
D3
  8
LAYER_01
 10
369.7883687180386
 20
306.5269475975432
 30
0.0
 11
406.2774791888636
 21
282.2028946035114
 31
0.0
  0
ARC
  5
D4
  8
LAYER_01
 10
306.1184115103156
 20
348.9700598922833
 30
0.0
 40
120.3731415180901
 50
326.312129126691
 51
346.3230770685491
  0
LINE
  5
D5
  8
LAYER_01
 10
423.0783043113854
 20
320.5082139420222
 30
0.0
 11
413.4979518325373
 21
322.8395645432256
 31
0.0
  0
ARC
  5
D6
  8
LAYER_01
 10
-306.1184115103156
 20
348.9700598922833
 30
0.0
 40
110.513204944019
 50
193.6769229314669
 51
204.4554647361818
210
0.0
220
0.0
230
-1.0
  0
LINE
  5
D7
  8
LAYER_01
 10
406.7167398944524
 20
303.2191605206194
 30
0.0
 11
383.3356185924316
 21
310.4561934023678
 31
0.0
  0
ARC
  5
D8
  8
LAYER_01
 10
306.1184115103156
 20
348.9700598922833
 30
0.0
 40
86.28913594170142
 50
333.4912129309079
 51
357.8554228263154
  0
LINE
  5
D9
  8
LAYER_01
 10
392.347108974791
 20
345.7410174420513
 30
0.0
 11
346.7625578758792
 21
347.4480413784133
 31
0.0
  0
ARC
  5
DA
  8
LAYER_01
 10
-306.1184115103143
 20
348.9700598922841
 30
0.0
 40
40.67263421690347
 50
182.1445771736852
 51
228.1568001869611
210
0.0
220
0.0
230
-1.0
  0
LINE
  5
DB
  8
LAYER_01
 10
333.2508961574489
 20
318.670035948151
 30
0.0
 11
340.2716332731582
 21
310.8296739069282
 31
0.0
  0
ARC
  5
DC
  8
LAYER_01
 10
306.1184115103144
 20
348.9700598922839
 30
0.0
 40
51.1969881916299
 50
311.843199813039
 51
350.211140131883
  0
LINE
  5
DD
  8
LAYER_01
 10
356.5700214211343
 20
340.2656554152184
 30
0.0
 11
381.5241670273413
 21
335.9603225004777
 31
0.0
  0
ARC
  5
DE
  8
LAYER_01
 10
-306.1184115103156
 20
348.9700598922833
 30
0.0
 40
76.51980940970249
 50
189.7888598683317
 51
213.687870873309
210
0.0
220
0.0
230
-1.0
  0
LINE
  5
DF
  8
LAYER_01
 10
394.5343709093722
 20
318.7186446591863
 30
0.0
 11
403.4324624019527
 21
315.6741732498238
 31
0.0
  0
ARC
  5
E0
  8
LAYER_01
 10
306.1184115103156
 20
348.9700598922833
 30
0.0
 40
102.8525185313789
 50
341.1116790604928
 51
350.211140131557
  0
LINE
  5
E1
  8
LAYER_01
 10
407.4734975529308
 20
331.4832905639678
 30
0.0
 11
431.8409007891074
 21
327.2791881733264
 31
0.0
  0
ARC
  5
E2
  8
LAYER_01
 10
-306.1184115103156
 20
348.9700598922833
 30
0.0
 40
127.5799287755882
 50
189.7888598685057
 51
213.6878708733091
210
0.0
220
0.0
230
-1.0
  0
LINE
  5
E3
  8
LAYER_01
 10
412.2740419068031
 20
278.2055181958342
 30
0.0
 11
418.2773758297266
 21
274.2036280264697
 31
0.0
  0
ARC
  5
E4
  8
LAYER_01
 10
306.1184115103156
 20
348.9700598922833
 30
0.0
 40
134.7948538006858
 50
326.312129126691
 51
357.8554228263155
  0
LINE
  5
E5
  8
LAYER_01
 10
440.8188525484595
 20
343.9258755897626
 30
0.0
 11
399.5009657645539
 21
345.4731239456139
 31
0.0
  0
ARC
  5
E6
  8
LAYER_01
 10
-306.1184115103259
 20
348.9700598922813
 30
0.0
 40
93.44800693465288
 50
182.1445771736835
 51
198.8883209395221
210
0.0
220
0.0
230
-1.0
  0
ARC
  5
E7
  8
LAYER_01
 10
-306.118411510309
 20
348.9700598922785
 30
0.0
 40
76.51980940970249
 50
261.7888598683315
 51
285.6878708733091
210
0.0
220
0.0
230
-1.0
  0
LINE
  5
E8
  8
LAYER_01
 10
285.4277117988615
 20
275.3006892044009
 30
0.0
 11
273.5699179412887
 21
233.0809371700765
 31
0.0
  0
ARC
  5
E9
  8
LAYER_01
 10
306.118411510309
 20
348.9700598922785
 30
0.0
 40
120.3731415180901
 50
254.3121291266911
 51
274.323077068549
  0
LINE
  5
EA
  8
LAYER_01
 10
315.192181989327
 20
228.9393976087259
 30
0.0
 11
314.4489364423039
 21
238.771281217757
 31
0.0
  0
ARC
  5
EB
  8
LAYER_01
 10
-306.118411510309
 20
348.9700598922785
 30
0.0
 40
110.513204944019
 50
265.676922931467
 51
276.4554647361818
210
0.0
220
0.0
230
-1.0
  0
LINE
  5
EC
  8
LAYER_01
 10
293.693313612934
 20
239.1575587403632
 30
0.0
 11
293.3509770638967
 21
263.6306926622481
 31
0.0
  0
ARC
  5
ED
  8
LAYER_01
 10
306.118411510309
 20
348.9700598922785
 30
0.0
 40
86.28913594170142
 50
261.4912129309079
 51
285.8554228263154
  0
LINE
  5
EE
  8
LAYER_01
 10
329.6935425659611
 20
265.963866284366
 30
0.0
 11
317.230617833593
 21
309.8448500555161
 31
0.0
  0
ARC
  5
EF
  8
LAYER_01
 10
-306.1184115103093
 20
348.9700598922799
 30
0.0
 40
40.67263421690347
 50
254.1445771736852
 51
300.1568001869611
210
0.0
220
0.0
230
-1.0
  0
LINE
  5
F0
  8
LAYER_01
 10
285.6857751499243
 20
313.8023112366394
 30
0.0
 11
280.3986748222994
 21
304.7023883407588
 31
0.0
  0
ARC
  5
F1
  8
LAYER_01
 10
306.1184115103092
 20
348.9700598922798
 30
0.0
 40
51.1969881916299
 50
239.8431998130389
 51
278.211140131883
  0
LINE
  5
F2
  8
LAYER_01
 10
313.4304357679462
 20
298.2979186196868
 30
0.0
 11
317.047075916987
 21
273.2346947952288
 31
0.0
  0
ARC
  5
F3
  8
LAYER_01
 10
-306.118411510309
 20
348.9700598922785
 30
0.0
 40
76.51980940970249
 50
261.7888598683316
 51
285.6878708733091
210
0.0
220
0.0
230
-1.0
  0
LINE
  5
F4
  8
LAYER_01
 10
304.6696399539955
 20
255.5332841503978
 30
0.0
 11
304.5238370701575
 21
246.129902849407
 31
0.0
  0
ARC
  5
F5
  8
LAYER_01
 10
306.118411510309
 20
348.9700598922785
 30
0.0
 40
102.8525185313789
 50
269.1116790604927
 51
278.211140131557
  0
LINE
  5
F6
  8
LAYER_01
 10
320.8079496451675
 20
247.1719359526292
 30
0.0
 11
324.3395523801415
 21
222.6980192348713
 31
0.0
  0
ARC
  5
F7
  8
LAYER_01
 10
-306.118411510309
 20
348.9700598922785
 30
0.0
 40
127.5799287755882
 50
261.7888598685057
 51
285.6878708733091
210
0.0
220
0.0
230
-1.0
  0
LINE
  5
F8
  8
LAYER_01
 10
271.6212268483614
 20
226.1426098789218
 30
0.0
 11
269.6703353303807
 21
219.196447960074
 31
0.0
  0
ARC
  5
F9
  8
LAYER_01
 10
306.118411510309
 20
348.9700598922785
 30
0.0
 40
134.7948538006858
 50
254.3121291266911
 51
285.8554228263155
  0
LINE
  5
FA
  8
LAYER_01
 10
342.94583259059
 20
219.3035890228824
 30
0.0
 11
331.6494240338625
 21
259.0773605247379
 31
0.0
  0
ARC
  5
FB
  8
LAYER_01
 10
-306.1184115103103
 20
348.9700598922681
 30
0.0
 40
93.44800693465288
 50
254.1445771736834
 51
270.8883209395221
210
0.0
220
0.0
230
-1.0
  0
ARC
  5
FC
  8
LAYER_01
 10
-306.1184115103025
 20
348.9700598922832
 30
0.0
 40
93.4480069346633
 50
74.14457717368448
 51
90.88832093952126
210
0.0
220
0.0
230
-1.0
  0
LINE
  5
FD
  8
LAYER_01
 10
307.5671830666161
 20
442.4068356341638
 30
0.0
 11
307.712985950454
 21
451.8102169351547
 31
0.0
  0
ARC
  5
FE
  8
LAYER_01
 10
306.1184115103025
 20
348.9700598922832
 30
0.0
 40
102.8525185313789
 50
89.11167906049282
 51
98.21114013155706
  0
LINE
  5
FF
  8
LAYER_01
 10
291.4288733754441
 20
450.7681838319324
 30
0.0
 11
287.89727064047
 21
475.2421005496903
 31
0.0
  0
ARC
  5
100
  8
LAYER_01
 10
-306.1184115103025
 20
348.9700598922832
 30
0.0
 40
127.5799287755882
 50
81.78885986850568
 51
105.687870873309
210
0.0
220
0.0
230
-1.0
  0
LINE
  5
101
  8
LAYER_01
 10
340.6155961722502
 20
471.7975099056399
 30
0.0
 11
342.5664876902309
 21
478.7436718244877
 31
0.0
  0
ARC
  5
102
  8
LAYER_01
 10
306.1184115103025
 20
348.9700598922832
 30
0.0
 40
134.7948538006858
 50
74.31212912669105
 51
105.8554228263155
  0
LINE
  5
103
  8
LAYER_01
 10
269.2909904300216
 20
478.6365307616793
 30
0.0
 11
280.5873989867491
 21
438.8627592598239
 31
0.0
  0
ARC
  5
104
  8
LAYER_01
 10
-306.1184115103025
 20
348.9700598922832
 30
0.0
 40
76.51980940970249
 50
74.14457717368443
 51
105.687870873309
210
0.0
220
0.0
230
-1.0
  0
LINE
  5
105
  8
LAYER_01
 10
326.8091112217499
 20
422.6394305801607
 30
0.0
 11
338.6669050793229
 21
464.8591826144852
 31
0.0
  0
ARC
  5
106
  8
LAYER_01
 10
306.1184115103025
 20
348.9700598922832
 30
0.0
 40
120.3731415180901
 50
74.31212912669102
 51
94.32307706854907
  0
LINE
  5
107
  8
LAYER_01
 10
297.0446410312846
 20
469.0007221758358
 30
0.0
 11
297.7878865783076
 21
459.1688385668047
 31
0.0
  0
ARC
  5
108
  8
LAYER_01
 10
-306.1184115103025
 20
348.9700598922832
 30
0.0
 40
110.513204944019
 50
85.67692293146695
 51
96.45546473618182
210
0.0
220
0.0
230
-1.0
  0
LINE
  5
109
  8
LAYER_01
 10
318.5435094076775
 20
458.7825610441985
 30
0.0
 11
318.8858459567148
 21
434.3094271223137
 31
0.0
  0
ARC
  5
10A
  8
LAYER_01
 10
306.1184115103025
 20
348.9700598922832
 30
0.0
 40
86.28913594170142
 50
81.49121293090789
 51
105.8554228263154
  0
LINE
  5
10B
  8
LAYER_01
 10
282.5432804546505
 20
431.9762535001958
 30
0.0
 11
285.2123667863634
 21
422.5786091654339
 31
0.0
  0
ARC
  5
10C
  8
LAYER_01
 10
-306.1184115103025
 20
348.9700598922832
 30
0.0
 40
93.4480069346633
 50
146.1445771736845
 51
162.8883209395212
210
0.0
220
0.0
230
-1.0
  0
LINE
  5
10D
  8
LAYER_01
 10
395.429760973095
 20
376.4657478668701
 30
0.0
 11
404.4179636035451
 21
379.2328857106951
 31
0.0
  0
ARC
  5
10E
  8
LAYER_01
 10
306.1184115103025
 20
348.9700598922832
 30
0.0
 40
102.8525185313789
 50
17.11167906049283
 51
26.21114013155704
  0
LINE
  5
10F
  8
LAYER_01
 10
398.3948637065375
 20
394.3979911496452
 30
0.0
 11
420.579616417738
 21
405.3196011284124
 31
0.0
  0
ARC
  5
110
  8
LAYER_01
 10
-306.1184115103025
 20
348.9700598922832
 30
0.0
 40
127.5799287755882
 50
153.7888598685057
 51
177.687870873309
210
0.0
220
0.0
230
-1.0
  0
LINE
  5
111
  8
LAYER_01
 10
433.5944745440553
 20
354.1170570555672
 30
0.0
 11
440.8035257334546
 21
354.4081310434108
 31
0.0
  0
ARC
  5
112
  8
LAYER_01
 10
306.1184115103025
 20
348.9700598922832
 30
0.0
 40
134.7948538006858
 50
2.312129126691043
 51
33.85542282631553
  0
LINE
  5
113
  8
LAYER_01
 10
418.0582546028284
 20
424.0641617882974
 30
0.0
 11
383.7219322577856
 21
401.02986749523
 31
0.0
  0
ARC
  5
114
  8
LAYER_01
 10
-306.1184115103025
 20
348.9700598922832
 30
0.0
 40
76.51980940970249
 50
146.1445771736844
 51
177.687870873309
210
0.0
220
0.0
230
-1.0
  0
LINE
  5
115
  8
LAYER_01
 10
382.5759243907177
 20
352.0571226124666
 30
0.0
 11
426.3935544971124
 21
353.8263113722398
 31
0.0
  0
ARC
  5
116
  8
LAYER_01
 10
306.1184115103025
 20
348.9700598922832
 30
0.0
 40
120.3731415180901
 50
2.31212912669103
 51
22.32307706854906
  0
LINE
  5
117
  8
LAYER_01
 10
417.4704057492239
 20
394.6912429254175
 30
0.0
 11
408.349404280423
 21
390.9461552828068
 31
0.0
  0
ARC
  5
118
  8
LAYER_01
 10
-306.1184115103025
 20
348.9700598922832
 30
0.0
 40
110.513204944019
 50
157.6769229314669
 51
168.4554647361818
210
0.0
220
0.0
230
-1.0
  0
LINE
  5
119
  8
LAYER_01
 10
414.3958727085619
 20
371.0870186221399
 30
0.0
 11
391.2263270294376
 21
363.1988229289354
 31
0.0
  0
ARC
  5
11A
  8
LAYER_01
 10
306.1184115103025
 20
348.9700598922832
 30
0.0
 40
86.28913594170142
 50
9.491212930907883
 51
33.85542282631541
  0
LINE
  5
11B
  8
LAYER_01
 10
377.7768766931517
 20
397.0416663684954
 30
0.0
 11
369.6639788467055
 21
391.5991826136326
 31
0.0
  0
ARC
  5
11C
  8
LAYER_01
 10
-306.1184115103025
 20
348.9700598922832
 30
0.0
 40
93.4480069346633
 50
218.1445771736845
 51
234.8883209395213
210
0.0
220
0.0
230
-1.0
  0
LINE
  5
11D
  8
LAYER_01
 10
359.8670895031144
 20
272.526553862759
 30
0.0
 11
365.2763013426658
 21
264.8333578008082
 31
0.0
  0
ARC
  5
11E
  8
LAYER_01
 10
306.1184115103025
 20
348.9700598922832
 30
0.0
 40
102.8525185313789
 50
305.1116790604929
 51
314.211140131557
  0
LINE
  5
11F
  8
LAYER_01
 10
377.8379334636891
 20
275.2479415082774
 30
0.0
 11
395.0804674061964
 21
257.5239509692677
 31
0.0
  0
ARC
  5
120
  8
LAYER_01
 10
-306.1184115103025
 20
348.9700598922832
 30
0.0
 40
127.5799287755882
 50
225.7888598685057
 51
249.687870873309
210
0.0
220
0.0
230
-1.0
  0
LINE
  5
121
  8
LAYER_01
 10
350.4057665552381
 20
229.3236290658353
 30
0.0
 11
352.9103136989441
 21
222.5573607647159
 31
0.0
  0
ARC
  5
122
  8
LAYER_01
 10
306.1184115103025
 20
348.9700598922832
 30
0.0
 40
134.7948538006858
 50
290.312129126691
 51
321.8554228263155
  0
LINE
  5
123
  8
LAYER_01
 10
412.1284603170946
 20
265.7142963492718
 30
0.0
 11
379.6110375024582
 21
291.2520910711439
 31
0.0
  0
ARC
  5
124
  8
LAYER_01
 10
-306.1184115103025
 20
348.9700598922832
 30
0.0
 40
76.51980940970249
 50
218.1445771736844
 51
249.687870873309
210
0.0
220
0.0
230
-1.0
  0
LINE
  5
125
  8
LAYER_01
 10
332.6810534542345
 20
277.2085988908818
 30
0.0
 11
347.9040443088842
 21
236.0822656426113
 31
0.0
  0
ARC
  5
126
  8
LAYER_01
 10
306.1184115103025
 20
348.9700598922832
 30
0.0
 40
120.3731415180901
 50
290.312129126691
 51
310.3230770685491
  0
LINE
  5
127
  8
LAYER_01
 10
384.0114991440563
 20
257.1966427290627
 30
0.0
 11
377.6311646778765
 21
264.7139348841132
 31
0.0
  0
ARC
  5
128
  8
LAYER_01
 10
-306.1184115103025
 20
348.9700598922832
 30
0.0
 40
110.513204944019
 50
229.676922931467
 51
240.4554647361818
210
0.0
220
0.0
230
-1.0
  0
LINE
  5
129
  8
LAYER_01
 10
360.6124648489998
 20
252.826590963198
 30
0.0
 11
345.9505615663703
 21
272.424551836772
 31
0.0
  0
ARC
  5
12A
  8
LAYER_01
 10
306.1184115103025
 20
348.9700598922832
 30
0.0
 40
86.28913594170142
 50
297.4912129309078
 51
321.8554228263154
  0
LINE
  5
12B
  8
LAYER_01
 10
373.9809096306063
 20
295.6737529804794
 30
0.0
 11
366.2977766825338
 21
301.7077573715169
 31
0.0
  0
ARC
  5
12C
  8
LAYER_01
 10
-306.1184115103025
 20
348.9700598922832
 30
0.0
 40
93.4480069346633
 50
290.1445771736845
 51
306.8883209395212
210
0.0
220
0.0
230
-1.0
  0
LINE
  5
12D
  8
LAYER_01
 10
250.0255718974412
 20
274.2296869722428
 30
0.0
 11
244.3804460361822
 21
266.7078924800153
 31
0.0
  0
ARC
  5
12E
  8
LAYER_01
 10
306.1184115103025
 20
348.9700598922832
 30
0.0
 40
102.8525185313789
 50
233.1116790604928
 51
242.211140131557
  0
LINE
  5
12F
  8
LAYER_01
 10
258.1670615381546
 20
257.9793537509621
 30
0.0
 11
246.6387808555974
 21
236.1037152028054
 31
0.0
  0
ARC
  5
130
  8
LAYER_01
 10
-306.1184115103025
 20
348.9700598922832
 30
0.0
 40
127.5799287755882
 50
297.7888598685057
 51
321.687870873309
210
0.0
220
0.0
230
-1.0
  0
LINE
  5
131
  8
LAYER_01
 10
206.013439166154
 20
269.8775018456412
 30
0.0
 11
200.3522832379914
 21
265.4046440707048
 31
0.0
  0
ARC
  5
132
  8
LAYER_01
 10
306.1184115103025
 20
348.9700598922832
 30
0.0
 40
134.7948538006858
 50
218.312129126691
 51
249.8554228263155
  0
LINE
  5
133
  8
LAYER_01
 10
259.6963817294094
 20
222.4210663673636
 30
0.0
 11
273.9358315484556
 21
261.2385857962655
 31
0.0
  0
ARC
  5
134
  8
LAYER_01
 10
-306.1184115103025
 20
348.9700598922832
 30
0.0
 40
76.51980940970249
 50
290.1445771736844
 51
321.687870873309
210
0.0
220
0.0
230
-1.0
  0
LINE
  5
135
  8
LAYER_01
 10
246.0775141822309
 20
301.5319751908836
 30
0.0
 11
211.6682098344384
 21
274.3453146510244
 31
0.0
  0
ARC
  5
136
  8
LAYER_01
 10
306.1184115103025
 20
348.9700598922832
 30
0.0
 40
120.3731415180901
 50
218.312129126691
 51
238.3230770685491
  0
LINE
  5
137
  8
LAYER_01
 10
242.9069929177151
 20
246.5297857885556
 30
0.0
 11
248.0847308268245
 21
254.9208154863504
 31
0.0
  0
ARC
  5
138
  8
LAYER_01
 10
-306.1184115103025
 20
348.9700598922832
 30
0.0
 40
110.513204944019
 50
301.6769229314669
 51
312.4554647361818
210
0.0
220
0.0
230
-1.0
  0
LINE
  5
139
  8
LAYER_01
 10
231.5201274601076
 20
267.4331695679324
 30
0.0
 11
245.6281185708033
 21
287.4335711911962
 31
0.0
  0
ARC
  5
13A
  8
LAYER_01
 10
306.1184115103025
 20
348.9700598922832
 30
0.0
 40
86.28913594170142
 50
225.4912129309078
 51
249.8554228263154
  0
LINE
  5
13B
  8
LAYER_01
 10
276.4012767272768
 20
267.9595242697302
 30
0.0
 11
279.7657372717301
 21
277.1312278265203
 31
0.0
  0
ARC
  5
13C
  8
LAYER_01
 10
-306.1184115103025
 20
348.9700598922832
 30
0.0
 40
93.4480069346633
 50
2.14457717368446
 51
18.88832093952124
210
0.0
220
0.0
230
-1.0
  0
LINE
  5
13D
  8
LAYER_01
 10
217.7024521112459
 20
379.2214751253802
 30
0.0
 11
208.8043606186654
 21
382.2659465347427
 31
0.0
  0
ARC
  5
13E
  8
LAYER_01
 10
306.1184115103025
 20
348.9700598922832
 30
0.0
 40
102.8525185313789
 50
161.1116790604928
 51
170.211140131557
  0
LINE
  5
13F
  8
LAYER_01
 10
204.7633254676873
 20
366.4568292205987
 30
0.0
 11
180.3959222315108
 21
370.6609316112402
 31
0.0
  0
ARC
  5
140
  8
LAYER_01
 10
-306.1184115103025
 20
348.9700598922832
 30
0.0
 40
127.5799287755882
 50
9.788859868505668
 51
33.68787087330902
210
0.0
220
0.0
230
-1.0
  0
LINE
  5
141
  8
LAYER_01
 10
199.962781113815
 20
419.7346015887323
 30
0.0
 11
193.9594471908915
 21
423.7364917580969
 31
0.0
  0
ARC
  5
142
  8
LAYER_01
 10
306.1184115103025
 20
348.9700598922832
 30
0.0
 40
134.7948538006858
 50
146.3121291266911
 51
177.8554228263155
  0
LINE
  5
143
  8
LAYER_01
 10
171.4179704721587
 20
354.0142441948039
 30
0.0
 11
212.7358572560641
 21
352.4669958389526
 31
0.0
  0
ARC
  5
144
  8
LAYER_01
 10
-306.1184115103025
 20
348.9700598922832
 30
0.0
 40
76.51980940970249
 50
2.144577173684394
 51
33.68787087330902
210
0.0
220
0.0
230
-1.0
  0
LINE
  5
145
  8
LAYER_01
 10
242.4484543025795
 20
391.4131721870233
 30
0.0
 11
205.9593438317545
 21
415.7372251810552
 31
0.0
  0
ARC
  5
146
  8
LAYER_01
 10
306.1184115103025
 20
348.9700598922832
 30
0.0
 40
120.3731415180901
 50
146.312129126691
 51
166.3230770685491
  0
LINE
  5
147
  8
LAYER_01
 10
189.1585187092327
 20
377.4319058425444
 30
0.0
 11
198.7388711880809
 21
375.1005552413409
 31
0.0
  0
ARC
  5
148
  8
LAYER_01
 10
-306.1184115103025
 20
348.9700598922832
 30
0.0
 40
110.513204944019
 50
13.67692293146692
 51
24.4554647361818
210
0.0
220
0.0
230
-1.0
  0
LINE
  5
149
  8
LAYER_01
 10
205.5200831261657
 20
394.7209592639472
 30
0.0
 11
228.9012044281865
 21
387.4839263821987
 31
0.0
  0
ARC
  5
14A
  8
LAYER_01
 10
306.1184115103025
 20
348.9700598922832
 30
0.0
 40
86.28913594170142
 50
153.4912129309079
 51
177.8554228263154
  0
LINE
  5
14B
  8
LAYER_01
 10
219.8897140458271
 20
352.1991023425152
 30
0.0
 11
229.6521979641798
 21
351.8335224843122
 31
0.0
  0
ARC
  5
14C
  8
LAYER_01
 10
-306.1184115103025
 20
348.9700598922832
 30
0.0
 40
76.51980940970249
 50
333.7888598683315
 51
357.687870873309
210
0.0
220
0.0
230
-1.0
  0
LINE
  5
14D
  8
LAYER_01
 10
229.6608986298873
 20
345.8829971720998
 30
0.0
 11
185.8432685234926
 21
344.1138084123266
 31
0.0
  0
ARC
  5
14E
  8
LAYER_01
 10
306.1184115103025
 20
348.9700598922832
 30
0.0
 40
120.3731415180901
 50
182.312129126691
 51
202.3230770685491
  0
LINE
  5
14F
  8
LAYER_01
 10
194.7664172713812
 20
303.2488768591488
 30
0.0
 11
203.8874187401821
 21
306.9939645017595
 31
0.0
  0
ARC
  5
150
  8
LAYER_01
 10
-306.1184115103025
 20
348.9700598922832
 30
0.0
 40
110.513204944019
 50
337.6769229314669
 51
348.4554647361818
210
0.0
220
0.0
230
-1.0
  0
LINE
  5
151
  8
LAYER_01
 10
197.8409503120431
 20
326.8531011624265
 30
0.0
 11
221.0104959911675
 21
334.7412968556309
 31
0.0
  0
ARC
  5
152
  8
LAYER_01
 10
306.1184115103025
 20
348.9700598922832
 30
0.0
 40
86.28913594170142
 50
189.4912129309079
 51
213.8554228263154
  0
LINE
  5
153
  8
LAYER_01
 10
234.4599463274533
 20
300.898453416071
 30
0.0
 11
272.3419863425299
 21
326.3113689100624
 31
0.0
  0
ARC
  5
154
  8
LAYER_01
 10
-306.1184115103039
 20
348.9700598922834
 30
0.0
 40
40.67263421690347
 50
326.1445771736852
 51
12.15680018696115
210
0.0
220
0.0
230
-1.0
  0
LINE
  5
155
  8
LAYER_01
 10
266.3578631126845
 20
357.5352198594172
 30
0.0
 11
256.0695182925724
 21
359.7515202559823
 31
0.0
  0
ARC
  5
156
  8
LAYER_01
 10
306.1184115103038
 20
348.9700598922834
 30
0.0
 40
51.1969881916299
 50
167.8431998130389
 51
206.211140131883
  0
LINE
  5
157
  8
LAYER_01
 10
260.1858811172673
 20
326.3573587801502
 30
0.0
 11
237.466942048245
 21
315.1727675037297
 31
0.0
  0
ARC
  5
158
  8
LAYER_01
 10
-306.1184115103025
 20
348.9700598922832
 30
0.0
 40
76.51980940970249
 50
333.7888598683317
 51
357.687870873309
210
0.0
220
0.0
230
-1.0
  0
LINE
  5
159
  8
LAYER_01
 10
216.80706204751
 20
321.4743719176963
 30
0.0
 11
207.8188594170599
 21
318.7072340738712
 31
0.0
  0
ARC
  5
15A
  8
LAYER_01
 10
306.1184115103025
 20
348.9700598922832
 30
0.0
 40
102.8525185313789
 50
197.1116790604928
 51
206.211140131557
  0
LINE
  5
15B
  8
LAYER_01
 10
213.8419593140675
 20
303.5421286349211
 30
0.0
 11
191.657206602867
 21
292.6205186561539
 31
0.0
  0
ARC
  5
15C
  8
LAYER_01
 10
-306.1184115103025
 20
348.9700598922832
 30
0.0
 40
127.5799287755882
 50
333.7888598685057
 51
357.687870873309
210
0.0
220
0.0
230
-1.0
  0
LINE
  5
15D
  8
LAYER_01
 10
178.6423484765498
 20
343.8230627289992
 30
0.0
 11
171.4332972871504
 21
343.5319887411555
 31
0.0
  0
ARC
  5
15E
  8
LAYER_01
 10
306.1184115103025
 20
348.9700598922832
 30
0.0
 40
134.7948538006858
 50
182.312129126691
 51
213.8554228263155
  0
LINE
  5
15F
  8
LAYER_01
 10
194.1785684177767
 20
273.875957996269
 30
0.0
 11
228.5148907628194
 21
296.9102522893364
 31
0.0
  0
ARC
  5
160
  8
LAYER_01
 10
-306.118411510293
 20
348.9700598922788
 30
0.0
 40
93.44800693465288
 50
326.1445771736835
 51
342.8883209395221
210
0.0
220
0.0
230
-1.0
  0
ARC
  5
161
  8
LAYER_01
 10
306.1184115103025
 20
348.9700598922832
 30
0.0
 40
40.67263421690213
 50
146.3121291266909
 51
154.4069514619304
  0
LINE
  5
162
  8
LAYER_01
 10
269.4363751195906
 20
366.5396751519412
 30
0.0
 11
253.1178172231355
 21
374.3557838537407
 31
0.0
  0
ARC
  5
163
  8
LAYER_01
 10
306.1184115102984
 20
348.9700598922835
 30
0.0
 40
58.76646982625163
 50
154.406951461929
 51
193.7178101021055
  0
LINE
  5
164
  8
LAYER_01
 10
249.0282286072211
 20
335.0341712613808
 30
0.0
 11
239.4714462544603
 21
331.0968551491695
 31
0.0
  0
ARC
  5
165
  8
LAYER_01
 10
-306.1184115103017
 20
348.9700598922833
 30
0.0
 40
69.00195233181881
 50
344.9878053506222
 51
33.68787087330917
210
0.0
220
0.0
230
-1.0
  0
LINE
  5
166
  8
LAYER_01
 10
248.7038493713221
 20
387.2432552121393
 30
0.0
 11
272.2758692968196
 21
371.5298806067867
 31
0.0
  0
ARC
  5
167
  8
LAYER_01
 10
306.1184115103025
 20
348.9700598922832
 30
0.0
 40
141.8779989362567
 50
144.0
 51
180.0
  0
ARC
  5
168
  8
LAYER_01
 10
306.118411510309
 20
348.9700598922853
 30
0.0
 40
141.8779989362633
 50
180.0000000000009
 51
215.9999999999991
  0
ARC
  5
169
  8
LAYER_01
 10
306.1184115102985
 20
348.970059892278
 30
0.0
 40
141.8779989362505
 50
215.9999999999992
 51
252.0000000000009
  0
ARC
  5
16A
  8
LAYER_01
 10
306.1184115103025
 20
348.9700598922913
 30
0.0
 40
141.8779989362644
 50
252.000000000001
 51
287.999999999999
  0
ARC
  5
16B
  8
LAYER_01
 10
306.1184115103022
 20
348.9700598922839
 30
0.0
 40
141.8779989362574
 50
288.0000000000001
 51
323.9999999999998
  0
ARC
  5
16C
  8
LAYER_01
 10
306.1184115103025
 20
348.9700598922832
 30
0.0
 40
141.8779989362567
 50
324.0
 51
0.0
  0
ARC
  5
16D
  8
LAYER_01
 10
306.1184115103025
 20
348.9700598922832
 30
0.0
 40
141.8779989362567
 50
0.0
 51
36.00000000000001
  0
ARC
  5
16E
  8
LAYER_01
 10
306.1184115103025
 20
348.9700598922832
 30
0.0
 40
141.8779989362567
 50
35.99999999999999
 51
71.99999999999999
  0
ARC
  5
16F
  8
LAYER_01
 10
306.1184115103025
 20
348.9700598922832
 30
0.0
 40
141.8779989362567
 50
72.0
 51
108.0
  0
ARC
  5
170
  8
LAYER_01
 10
306.1184115103025
 20
348.9700598922832
 30
0.0
 40
141.8779989362567
 50
108.0
 51
144.0
  0
ENDSEC
  0
EOF
