  0
SECTION
  2
HEADER
  9
$ACADVER
  1
AC1009
  9
$DWGCODEPAGE
  3
ansi_1252
  9
$INSBASE
 10
0.0
 20
0.0
 30
0.0
  9
$EXTMIN
 10
1.000000000000000E+20
 20
1.000000000000000E+20
 30
1.000000000000000E+20
  9
$EXTMAX
 10
-1.000000000000000E+20
 20
-1.000000000000000E+20
 30
-1.000000000000000E+20
  9
$LIMMIN
 10
0.0
 20
0.0
  9
$LIMMAX
 10
12.0
 20
9.0
  9
$ORTHOMODE
 70
     0
  9
$REGENMODE
 70
     1
  9
$FILLMODE
 70
     1
  9
$QTEXTMODE
 70
     0
  9
$MIRRTEXT
 70
     1
  9
$DRAGMODE
 70
     2
  9
$LTSCALE
 40
1.0
  9
$OSMODE
 70
    37
  9
$ATTMODE
 70
     1
  9
$TEXTSIZE
 40
0.2
  9
$TRACEWID
 40
0.05
  9
$TEXTSTYLE
  7
STANDARD
  9
$CLAYER
  8
0
  9
$CELTYPE
  6
BYLAYER
  9
$CECOLOR
 62
   256
  9
$DIMSCALE
 40
1.0
  9
$DIMASZ
 40
0.18
  9
$DIMEXO
 40
0.0625
  9
$DIMDLI
 40
0.38
  9
$DIMRND
 40
0.0
  9
$DIMDLE
 40
0.0
  9
$DIMEXE
 40
0.18
  9
$DIMTP
 40
0.0
  9
$DIMTM
 40
0.0
  9
$DIMTXT
 40
0.18
  9
$DIMCEN
 40
0.09
  9
$DIMTSZ
 40
0.0
  9
$DIMTOL
 70
     0
  9
$DIMLIM
 70
     0
  9
$DIMTIH
 70
     1
  9
$DIMTOH
 70
     1
  9
$DIMSE1
 70
     0
  9
$DIMSE2
 70
     0
  9
$DIMTAD
 70
     0
  9
$DIMZIN
 70
     0
  9
$DIMBLK
  1

  9
$DIMASO
 70
     1
  9
$DIMSHO
 70
     1
  9
$DIMPOST
  1

  9
$DIMAPOST
  1

  9
$DIMALT
 70
     0
  9
$DIMALTD
 70
     2
  9
$DIMALTF
 40
25.4
  9
$DIMLFAC
 40
1.0
  9
$DIMTOFL
 70
     0
  9
$DIMTVP
 40
0.0
  9
$DIMTIX
 70
     0
  9
$DIMSOXD
 70
     0
  9
$DIMSAH
 70
     0
  9
$DIMBLK1
  1

  9
$DIMBLK2
  1

  9
$DIMSTYLE
  2
STANDARD_ACAD
  9
$DIMCLRD
 70
     0
  9
$DIMCLRE
 70
     0
  9
$DIMCLRT
 70
     0
  9
$DIMTFAC
 40
1.0
  9
$DIMGAP
 40
0.09
  9
$LUNITS
 70
     2
  9
$LUPREC
 70
     3
  9
$SKETCHINC
 40
0.1
  9
$FILLETRAD
 40
0.5
  9
$AUNITS
 70
     0
  9
$AUPREC
 70
     0
  9
$MENU
  1
.
  9
$ELEVATION
 40
0.0
  9
$PELEVATION
 40
0.0
  9
$THICKNESS
 40
0.0
  9
$LIMCHECK
 70
     0
  9
$CHAMFERA
 40
0.0
  9
$CHAMFERB
 40
0.0
  9
$SKPOLY
 70
     0
  9
$TDCREATE
 40
2460060.683459688
  9
$TDUPDATE
 40
2460060.683459734
  9
$TDINDWG
 40
0.0000000116
  9
$TDUSRTIMER
 40
0.0000000116
  9
$USRTIMER
 70
     1
  9
$ANGBASE
 50
0.0
  9
$ANGDIR
 70
     0
  9
$PDMODE
 70
     0
  9
$PDSIZE
 40
0.0
  9
$PLINEWID
 40
0.0
  9
$COORDS
 70
     1
  9
$SPLFRAME
 70
     0
  9
$SPLINETYPE
 70
     6
  9
$SPLINESEGS
 70
     8
  9
$ATTDIA
 70
     0
  9
$ATTREQ
 70
     1
  9
$HANDLING
 70
     1
  9
$HANDSEED
  5
1E4
  9
$SURFTAB1
 70
     6
  9
$SURFTAB2
 70
     6
  9
$SURFTYPE
 70
     6
  9
$SURFU
 70
     6
  9
$SURFV
 70
     6
  9
$UCSNAME
  2

  9
$UCSORG
 10
0.0
 20
0.0
 30
0.0
  9
$UCSXDIR
 10
1.0
 20
0.0
 30
0.0
  9
$UCSYDIR
 10
0.0
 20
1.0
 30
0.0
  9
$PUCSNAME
  2

  9
$PUCSORG
 10
0.0
 20
0.0
 30
0.0
  9
$PUCSXDIR
 10
1.0
 20
0.0
 30
0.0
  9
$PUCSYDIR
 10
0.0
 20
1.0
 30
0.0
  9
$USERI1
 70
     0
  9
$USERI2
 70
     0
  9
$USERI3
 70
     0
  9
$USERI4
 70
     0
  9
$USERI5
 70
     0
  9
$USERR1
 40
0.0
  9
$USERR2
 40
0.0
  9
$USERR3
 40
0.0
  9
$USERR4
 40
0.0
  9
$USERR5
 40
0.0
  9
$WORLDVIEW
 70
     1
  9
$SHADEDGE
 70
     3
  9
$SHADEDIF
 70
    70
  9
$TILEMODE
 70
     1
  9
$MAXACTVP
 70
    64
  9
$PLIMCHECK
 70
     0
  9
$PEXTMIN
 10
1.000000000000000E+20
 20
1.000000000000000E+20
 30
1.000000000000000E+20
  9
$PEXTMAX
 10
-1.000000000000000E+20
 20
-1.000000000000000E+20
 30
-1.000000000000000E+20
  9
$PLIMMIN
 10
0.0
 20
0.0
  9
$PLIMMAX
 10
12.0
 20
9.0
  9
$UNITMODE
 70
     0
  9
$VISRETAIN
 70
     1
  9
$PLINEGEN
 70
     0
  9
$PSLTSCALE
 70
     1
  0
ENDSEC
  0
SECTION
  2
TABLES
  0
TABLE
  2
VPORT
 70
     1
  0
VPORT
  2
*ACTIVE
 70
     0
 10
0.0
 20
0.0
 11
1.0
 21
1.0
 12
10.42990654205607
 22
4.5
 13
0.0
 23
0.0
 14
0.5
 24
0.5
 15
0.5
 25
0.5
 16
0.0
 26
0.0
 36
1.0
 17
0.0
 27
0.0
 37
0.0
 40
9.0
 41
1.972972972850329
 42
50.0
 43
0.0
 44
0.0
 50
0.0
 51
0.0
 71
     0
 72
   100
 73
     1
 74
     3
 75
     0
 76
     0
 77
     0
 78
     0
  0
ENDTAB
  0
TABLE
  2
LTYPE
 70
     1
  0
LTYPE
  2
CONTINUOUS
 70
     0
  3
Solid line
 72
    65
 73
     0
 40
0.0
  0
ENDTAB
  0
TABLE
  2
LAYER
 70
     1
  0
LAYER
  2
0
 70
     0
 62
     7
  6
CONTINUOUS
  0
ENDTAB
  0
TABLE
  2
STYLE
 70
     1
  0
STYLE
  2
STANDARD
 70
     0
 40
0.0
 41
1.0
 50
0.0
 71
     0
 42
0.2
  3
txt
  4

  0
ENDTAB
  0
TABLE
  2
VIEW
 70
     0
  0
ENDTAB
  0
TABLE
  2
UCS
 70
     0
  0
ENDTAB
  0
TABLE
  2
APPID
 70
     2
  0
APPID
  2
ACAD
 70
     0
  0
APPID
  2
RHINO
 70
     0
  0
ENDTAB
  0
TABLE
  2
DIMSTYLE
 70
     1
  0
DIMSTYLE
  2
STANDARD_ACAD
 70
     0
  3

  4

  5

  6

  7

 40
1.0
 41
0.18
 42
0.0625
 43
0.38
 44
0.18
 45
0.0
 46
0.0
 47
0.0
 48
0.0
140
0.18
141
0.09
142
0.0
143
25.4
144
1.0
145
0.0
146
1.0
147
0.09
 71
     0
 72
     0
 73
     1
 74
     1
 75
     0
 76
     0
 77
     0
 78
     0
170
     0
171
     2
172
     0
173
     0
174
     0
175
     0
176
     0
177
     0
178
     0
  0
ENDTAB
  0
ENDSEC
  0
SECTION
  2
BLOCKS
  0
BLOCK
  8
0
  2
$MODEL_SPACE
 70
     0
 10
0.0
 20
0.0
 30
0.0
  3
$MODEL_SPACE
  1

  0
ENDBLK
  5
21
  8
0
  0
BLOCK
 67
     1
  8
0
  2
$PAPER_SPACE
 70
     0
 10
0.0
 20
0.0
 30
0.0
  3
$PAPER_SPACE
  1

  0
ENDBLK
  5
1D
 67
     1
  8
0
  0
ENDSEC
  0
SECTION
  2
ENTITIES
  0
POLYLINE
  5
6F
  8
0
 66
     1
 10
0.0
 20
0.0
 30
0.0
 70
     1
  0
VERTEX
  5
70
  8
0
 10
66.85256229009161
 20
49.66167356818895
 30
0.0
  0
VERTEX
  5
71
  8
0
 10
1115.318364552608
 20
49.66167356818895
 30
0.0
  0
VERTEX
  5
72
  8
0
 10
1115.318364552608
 20
2380.006670461578
 30
0.0
  0
VERTEX
  5
73
  8
0
 10
66.85256229009161
 20
2380.006670461578
 30
0.0
  0
SEQEND
  5
74
  8
0
  0
POLYLINE
  5
75
  8
0
 66
     1
 10
0.0
 20
0.0
 30
0.0
 70
     1
  0
VERTEX
  5
76
  8
0
 10
274.1240526948103
 20
659.0042726777572
 30
0.0
  0
VERTEX
  5
77
  8
0
 10
274.1240526948108
 20
431.130529848402
 30
0.0
  0
VERTEX
  5
78
  8
0
 10
559.6301849771338
 20
431.130529848402
 30
0.0
  0
VERTEX
  5
79
  8
0
 10
559.6301849771339
 20
659.0042726777571
 30
0.0
  0
SEQEND
  5
7A
  8
0
  0
POLYLINE
  5
7B
  8
0
 66
     1
 10
0.0
 20
0.0
 30
0.0
 70
     1
  0
VERTEX
  5
7C
  8
0
 10
996.5852930505878
 20
1363.208023289809
 30
0.0
  0
VERTEX
  5
7D
  8
0
 10
996.5852930505878
 20
1409.249022578937
 30
0.0
  0
VERTEX
  5
7E
  8
0
 10
931.0400155197484
 20
1409.249022578937
 30
0.0
  0
VERTEX
  5
7F
  8
0
 10
931.0400155197485
 20
1363.20802328981
 30
0.0
  0
SEQEND
  5
80
  8
0
  0
POLYLINE
  5
81
  8
0
 66
     1
 10
0.0
 20
0.0
 30
0.0
 70
     1
  0
VERTEX
  5
82
  8
0
 10
996.5852930505878
 20
1335.975122158552
 30
0.0
  0
VERTEX
  5
83
  8
0
 10
903.8071143884913
 20
1335.975122158553
 30
0.0
  0
VERTEX
  5
84
  8
0
 10
903.8071143884913
 20
1409.249022578937
 30
0.0
  0
VERTEX
  5
85
  8
0
 10
584.006202525706
 20
1409.249022578937
 30
0.0
  0
VERTEX
  5
86
  8
0
 10
584.006202525706
 20
1375.381656532779
 30
0.0
  0
VERTEX
  5
87
  8
0
 10
683.0676186868112
 20
1375.381656532779
 30
0.0
  0
VERTEX
  5
88
  8
0
 10
683.0676186868112
 20
1267.420364391802
 30
0.0
  0
VERTEX
  5
89
  8
0
 10
584.0062025257059
 20
1267.420364391802
 30
0.0
  0
VERTEX
  5
8A
  8
0
 10
584.0062025257059
 20
1138.432691388477
 30
0.0
  0
VERTEX
  5
8B
  8
0
 10
683.0676186868112
 20
1138.432691388477
 30
0.0
  0
VERTEX
  5
8C
  8
0
 10
683.0676186868111
 20
1038.864134643146
 30
0.0
  0
VERTEX
  5
8D
  8
0
 10
892.1349339598419
 20
1038.864134643146
 30
0.0
  0
VERTEX
  5
8E
  8
0
 10
892.1349339598418
 20
1137.13606312968
 30
0.0
  0
VERTEX
  5
8F
  8
0
 10
996.5852930505876
 20
1137.13606312968
 30
0.0
  0
SEQEND
  5
90
  8
0
  0
POLYLINE
  5
91
  8
0
 66
     1
 10
0.0
 20
0.0
 30
0.0
 70
     1
  0
VERTEX
  5
92
  8
0
 10
477.7554472307006
 20
1874.511619738165
 30
0.0
  0
VERTEX
  5
93
  8
0
 10
362.4889601871943
 20
1874.511619738165
 30
0.0
  0
VERTEX
  5
94
  8
0
 10
362.4889601871944
 20
1701.169940680456
 30
0.0
  0
VERTEX
  5
95
  8
0
 10
717.3229502496843
 20
1701.169940680456
 30
0.0
  0
VERTEX
  5
96
  8
0
 10
717.3229502496843
 20
1762.089393220041
 30
0.0
  0
VERTEX
  5
97
  8
0
 10
477.7554472307006
 20
1762.08939322004
 30
0.0
  0
SEQEND
  5
98
  8
0
  0
POLYLINE
  5
99
  8
0
 66
     1
 10
0.0
 20
0.0
 30
0.0
 70
     1
  0
VERTEX
  5
9A
  8
0
 10
504.9883483619577
 20
1874.511619738165
 30
0.0
  0
VERTEX
  5
9B
  8
0
 10
504.9883483619578
 20
1789.322294351298
 30
0.0
  0
VERTEX
  5
9C
  8
0
 10
717.3229502496841
 20
1789.322294351298
 30
0.0
  0
VERTEX
  5
9D
  8
0
 10
717.3229502496843
 20
1878.341190911828
 30
0.0
  0
VERTEX
  5
9E
  8
0
 10
817.8379979360834
 20
1878.341190911828
 30
0.0
  0
VERTEX
  5
9F
  8
0
 10
817.8379979360834
 20
1951.164480392583
 30
0.0
  0
VERTEX
  5
A0
  8
0
 10
623.5704005265366
 20
1951.164480392583
 30
0.0
  0
VERTEX
  5
A1
  8
0
 10
623.5704005265366
 20
1874.511619738165
 30
0.0
  0
SEQEND
  5
A2
  8
0
  0
POLYLINE
  5
A3
  8
0
 66
     1
 10
0.0
 20
0.0
 30
0.0
 70
     1
  0
VERTEX
  5
A4
  8
0
 10
504.9883483619576
 20
1901.744520869422
 30
0.0
  0
VERTEX
  5
A5
  8
0
 10
596.3374993952793
 20
1901.744520869422
 30
0.0
  0
VERTEX
  5
A6
  8
0
 10
596.3374993952793
 20
1951.164480392583
 30
0.0
  0
VERTEX
  5
A7
  8
0
 10
504.9883483619577
 20
1951.164480392583
 30
0.0
  0
SEQEND
  5
A8
  8
0
  0
POLYLINE
  5
A9
  8
0
 66
     1
 10
0.0
 20
0.0
 30
0.0
 70
     1
  0
VERTEX
  5
AA
  8
0
 10
477.7554472307005
 20
1901.744520869422
 30
0.0
  0
VERTEX
  5
AB
  8
0
 10
477.7554472307006
 20
1978.39738152384
 30
0.0
  0
VERTEX
  5
AC
  8
0
 10
596.3374993952793
 20
1978.39738152384
 30
0.0
  0
VERTEX
  5
AD
  8
0
 10
596.3374993952793
 20
2126.404258395071
 30
0.0
  0
VERTEX
  5
AE
  8
0
 10
493.0162890275306
 20
2126.404258395071
 30
0.0
  0
VERTEX
  5
AF
  8
0
 10
493.0162890275307
 20
2277.339321191869
 30
0.0
  0
VERTEX
  5
B0
  8
0
 10
300.3433161330672
 20
2277.339321191869
 30
0.0
  0
VERTEX
  5
B1
  8
0
 10
300.3433161330672
 20
2179.708049151864
 30
0.0
  0
VERTEX
  5
B2
  8
0
 10
173.1288466437843
 20
2179.708049151864
 30
0.0
  0
VERTEX
  5
B3
  8
0
 10
173.1288466437843
 20
1901.744520869422
 30
0.0
  0
VERTEX
  5
B4
  8
0
 10
220.8081612029845
 20
1901.744520869422
 30
0.0
  0
VERTEX
  5
B5
  8
0
 10
220.8081612029846
 20
1996.985432729072
 30
0.0
  0
VERTEX
  5
B6
  8
0
 10
362.4889601871944
 20
1996.985432729072
 30
0.0
  0
VERTEX
  5
B7
  8
0
 10
362.4889601871944
 20
1901.744520869422
 30
0.0
  0
SEQEND
  5
B8
  8
0
  0
POLYLINE
  5
B9
  8
0
 66
     1
 10
0.0
 20
0.0
 30
0.0
 70
     1
  0
VERTEX
  5
BA
  8
0
 10
1088.08546342135
 20
1878.341190911829
 30
0.0
  0
VERTEX
  5
BB
  8
0
 10
1088.08546342135
 20
2352.77376933032
 30
0.0
  0
VERTEX
  5
BC
  8
0
 10
981.4422591061635
 20
2352.77376933032
 30
0.0
  0
VERTEX
  5
BD
  8
0
 10
981.4422591061639
 20
2126.404258395071
 30
0.0
  0
VERTEX
  5
BE
  8
0
 10
936.5648508207231
 20
2126.404258395071
 30
0.0
  0
VERTEX
  5
BF
  8
0
 10
936.5648508207228
 20
1878.341190911828
 30
0.0
  0
SEQEND
  5
C0
  8
0
  0
POLYLINE
  5
C1
  8
0
 66
     1
 10
0.0
 20
0.0
 30
0.0
 70
     1
  0
VERTEX
  5
C2
  8
0
 10
94.0854634213498
 20
659.0042726777572
 30
0.0
  0
VERTEX
  5
C3
  8
0
 10
154.3713266036737
 20
659.0042726777572
 30
0.0
  0
VERTEX
  5
C4
  8
0
 10
154.3713266036737
 20
431.1305298484021
 30
0.0
  0
VERTEX
  5
C5
  8
0
 10
94.0854634213498
 20
431.1305298484019
 30
0.0
  0
SEQEND
  5
C6
  8
0
  0
POLYLINE
  5
C7
  8
0
 66
     1
 10
0.0
 20
0.0
 30
0.0
 70
     1
  0
VERTEX
  5
C8
  8
0
 10
1088.08546342135
 20
1109.903161998423
 30
0.0
  0
VERTEX
  5
C9
  8
0
 10
1023.818194181845
 20
1109.903161998423
 30
0.0
  0
VERTEX
  5
CA
  8
0
 10
1023.818194181845
 20
1011.631233511889
 30
0.0
  0
VERTEX
  5
CB
  8
0
 10
919.3678350910989
 20
1011.631233511888
 30
0.0
  0
VERTEX
  5
CC
  8
0
 10
919.367835091099
 20
910.6242958796158
 30
0.0
  0
VERTEX
  5
CD
  8
0
 10
1088.08546342135
 20
910.6242958796159
 30
0.0
  0
SEQEND
  5
CE
  8
0
  0
POLYLINE
  5
CF
  8
0
 66
     1
 10
0.0
 20
0.0
 30
0.0
 70
     1
  0
VERTEX
  5
D0
  8
0
 10
94.08546342134983
 20
1488.428176166016
 30
0.0
  0
VERTEX
  5
D1
  8
0
 10
220.8081612029845
 20
1488.428176166016
 30
0.0
  0
VERTEX
  5
D2
  8
0
 10
220.8081612029846
 20
1267.420364391802
 30
0.0
  0
VERTEX
  5
D3
  8
0
 10
403.7161648435195
 20
1267.420364391802
 30
0.0
  0
VERTEX
  5
D4
  8
0
 10
403.7161648435196
 20
910.624295879616
 30
0.0
  0
VERTEX
  5
D5
  8
0
 10
319.4714398808035
 20
910.6242958796158
 30
0.0
  0
VERTEX
  5
D6
  8
0
 10
319.4714398808035
 20
993.668218025034
 30
0.0
  0
VERTEX
  5
D7
  8
0
 10
214.3636290140176
 20
993.6682180250341
 30
0.0
  0
VERTEX
  5
D8
  8
0
 10
214.3636290140176
 20
1136.382122739996
 30
0.0
  0
VERTEX
  5
D9
  8
0
 10
94.0854634213498
 20
1136.382122739996
 30
0.0
  0
SEQEND
  5
DA
  8
0
  0
POLYLINE
  5
DB
  8
0
 66
     1
 10
0.0
 20
0.0
 30
0.0
 70
     1
  0
VERTEX
  5
DC
  8
0
 10
520.2491901587879
 20
2352.77376933032
 30
0.0
  0
VERTEX
  5
DD
  8
0
 10
520.2491901587878
 20
2304.572222323126
 30
0.0
  0
VERTEX
  5
DE
  8
0
 10
623.5704005265366
 20
2304.572222323126
 30
0.0
  0
VERTEX
  5
DF
  8
0
 10
623.5704005265366
 20
2153.637159526328
 30
0.0
  0
VERTEX
  5
E0
  8
0
 10
954.2093579749067
 20
2153.637159526328
 30
0.0
  0
VERTEX
  5
E1
  8
0
 10
954.2093579749069
 20
2352.77376933032
 30
0.0
  0
SEQEND
  5
E2
  8
0
  0
POLYLINE
  5
E3
  8
0
 66
     1
 10
0.0
 20
0.0
 30
0.0
 70
     1
  0
VERTEX
  5
E4
  8
0
 10
559.630184977133
 20
76.89457469944715
 30
0.0
  0
VERTEX
  5
E5
  8
0
 10
94.0854634213498
 20
76.89457469944715
 30
0.0
  0
VERTEX
  5
E6
  8
0
 10
94.0854634213498
 20
208.998327454825
 30
0.0
  0
VERTEX
  5
E7
  8
0
 10
154.3713266036737
 20
208.9983274548251
 30
0.0
  0
VERTEX
  5
E8
  8
0
 10
154.3713266036737
 20
198.2097954464794
 30
0.0
  0
VERTEX
  5
E9
  8
0
 10
274.1240526948108
 20
198.2097954464794
 30
0.0
  0
VERTEX
  5
EA
  8
0
 10
274.1240526948108
 20
208.9983274548251
 30
0.0
  0
VERTEX
  5
EB
  8
0
 10
383.2607876344337
 20
208.998327454825
 30
0.0
  0
VERTEX
  5
EC
  8
0
 10
383.2607876344337
 20
140.0029498199593
 30
0.0
  0
VERTEX
  5
ED
  8
0
 10
559.6301849771337
 20
140.0029498199594
 30
0.0
  0
SEQEND
  5
EE
  8
0
  0
POLYLINE
  5
EF
  8
0
 66
     1
 10
0.0
 20
0.0
 30
0.0
 70
     1
  0
VERTEX
  5
F0
  8
0
 10
493.0162890275306
 20
2352.77376933032
 30
0.0
  0
VERTEX
  5
F1
  8
0
 10
493.0162890275306
 20
2304.572222323126
 30
0.0
  0
VERTEX
  5
F2
  8
0
 10
300.3433161330672
 20
2304.572222323126
 30
0.0
  0
VERTEX
  5
F3
  8
0
 10
300.3433161330673
 20
2352.77376933032
 30
0.0
  0
SEQEND
  5
F4
  8
0
  0
POLYLINE
  5
F5
  8
0
 66
     1
 10
0.0
 20
0.0
 30
0.0
 70
     1
  0
VERTEX
  5
F6
  8
0
 10
892.1349339598423
 20
76.89457469944715
 30
0.0
  0
VERTEX
  5
F7
  8
0
 10
586.8630861083908
 20
76.89457469944713
 30
0.0
  0
VERTEX
  5
F8
  8
0
 10
586.8630861083909
 20
140.0029498199593
 30
0.0
  0
VERTEX
  5
F9
  8
0
 10
710.2146885016002
 20
140.0029498199593
 30
0.0
  0
VERTEX
  5
FA
  8
0
 10
710.2146885016002
 20
281.8529302624233
 30
0.0
  0
VERTEX
  5
FB
  8
0
 10
776.2464331215637
 20
281.8529302624233
 30
0.0
  0
VERTEX
  5
FC
  8
0
 10
776.2464331215638
 20
659.0042726777571
 30
0.0
  0
VERTEX
  5
FD
  8
0
 10
892.1349339598416
 20
659.0042726777572
 30
0.0
  0
SEQEND
  5
FE
  8
0
  0
POLYLINE
  5
FF
  8
0
 66
     1
 10
0.0
 20
0.0
 30
0.0
 70
     1
  0
VERTEX
  5
100
  8
0
 10
1088.08546342135
 20
1851.108289780572
 30
0.0
  0
VERTEX
  5
101
  8
0
 10
1088.08546342135
 20
1655.709820873237
 30
0.0
  0
VERTEX
  5
102
  8
0
 10
1014.532360246883
 20
1655.709820873238
 30
0.0
  0
VERTEX
  5
103
  8
0
 10
1014.532360246883
 20
1457.89730299139
 30
0.0
  0
VERTEX
  5
104
  8
0
 10
1088.08546342135
 20
1457.89730299139
 30
0.0
  0
VERTEX
  5
105
  8
0
 10
1088.08546342135
 20
1363.20802328981
 30
0.0
  0
VERTEX
  5
106
  8
0
 10
1023.818194181845
 20
1363.20802328981
 30
0.0
  0
VERTEX
  5
107
  8
0
 10
1023.818194181845
 20
1436.481923710194
 30
0.0
  0
VERTEX
  5
108
  8
0
 10
931.0400155197485
 20
1436.481923710194
 30
0.0
  0
VERTEX
  5
109
  8
0
 10
931.0400155197485
 20
1673.937039549199
 30
0.0
  0
VERTEX
  5
10A
  8
0
 10
1023.818194181845
 20
1673.937039549199
 30
0.0
  0
VERTEX
  5
10B
  8
0
 10
1023.818194181845
 20
1851.10828978057
 30
0.0
  0
SEQEND
  5
10C
  8
0
  0
POLYLINE
  5
10D
  8
0
 66
     1
 10
0.0
 20
0.0
 30
0.0
 70
     1
  0
VERTEX
  5
10E
  8
0
 10
1088.08546342135
 20
883.391394748359
 30
0.0
  0
VERTEX
  5
10F
  8
0
 10
919.367835091099
 20
883.3913947483588
 30
0.0
  0
VERTEX
  5
110
  8
0
 10
919.367835091099
 20
686.2371738090142
 30
0.0
  0
VERTEX
  5
111
  8
0
 10
1031.782697569289
 20
686.2371738090143
 30
0.0
  0
VERTEX
  5
112
  8
0
 10
1031.782697569289
 20
357.385221137466
 30
0.0
  0
VERTEX
  5
113
  8
0
 10
919.367835091099
 20
357.3852211374661
 30
0.0
  0
VERTEX
  5
114
  8
0
 10
919.3678350910991
 20
76.89457469944708
 30
0.0
  0
VERTEX
  5
115
  8
0
 10
1088.08546342135
 20
76.89457469944715
 30
0.0
  0
SEQEND
  5
116
  8
0
  0
POLYLINE
  5
117
  8
0
 66
     1
 10
0.0
 20
0.0
 30
0.0
 70
     1
  0
VERTEX
  5
118
  8
0
 10
94.08546342134983
 20
2179.708049151864
 30
0.0
  0
VERTEX
  5
119
  8
0
 10
145.8959455125271
 20
2179.708049151864
 30
0.0
  0
VERTEX
  5
11A
  8
0
 10
145.895945512527
 20
1874.511619738165
 30
0.0
  0
VERTEX
  5
11B
  8
0
 10
220.8081612029845
 20
1874.511619738165
 30
0.0
  0
VERTEX
  5
11C
  8
0
 10
220.8081612029846
 20
1701.169940680456
 30
0.0
  0
VERTEX
  5
11D
  8
0
 10
94.08546342134974
 20
1701.169940680456
 30
0.0
  0
SEQEND
  5
11E
  8
0
  0
POLYLINE
  5
11F
  8
0
 66
     1
 10
0.0
 20
0.0
 30
0.0
 70
     1
  0
VERTEX
  5
120
  8
0
 10
94.0854634213498
 20
236.231228586082
 30
0.0
  0
VERTEX
  5
121
  8
0
 10
94.0854634213498
 20
403.8976287171449
 30
0.0
  0
VERTEX
  5
122
  8
0
 10
154.3713266036737
 20
403.8976287171448
 30
0.0
  0
VERTEX
  5
123
  8
0
 10
154.3713266036737
 20
236.2312285860823
 30
0.0
  0
SEQEND
  5
124
  8
0
  0
POLYLINE
  5
125
  8
0
 66
     1
 10
0.0
 20
0.0
 30
0.0
 70
     1
  0
VERTEX
  5
126
  8
0
 10
273.1104150018098
 20
2352.77376933032
 30
0.0
  0
VERTEX
  5
127
  8
0
 10
94.0854634213498
 20
2352.77376933032
 30
0.0
  0
VERTEX
  5
128
  8
0
 10
94.0854634213498
 20
2206.940950283121
 30
0.0
  0
VERTEX
  5
129
  8
0
 10
145.895945512527
 20
2206.940950283121
 30
0.0
  0
VERTEX
  5
12A
  8
0
 10
145.895945512527
 20
2304.572222323126
 30
0.0
  0
VERTEX
  5
12B
  8
0
 10
273.1104150018099
 20
2304.572222323126
 30
0.0
  0
SEQEND
  5
12C
  8
0
  0
POLYLINE
  5
12D
  8
0
 66
     1
 10
0.0
 20
0.0
 30
0.0
 70
     1
  0
VERTEX
  5
12E
  8
0
 10
94.0854634213498
 20
993.6682180250341
 30
0.0
  0
VERTEX
  5
12F
  8
0
 10
94.0854634213498
 20
1109.149221608739
 30
0.0
  0
VERTEX
  5
130
  8
0
 10
187.1307278827604
 20
1109.149221608739
 30
0.0
  0
VERTEX
  5
131
  8
0
 10
187.1307278827604
 20
993.6682180250341
 30
0.0
  0
SEQEND
  5
132
  8
0
  0
POLYLINE
  5
133
  8
0
 66
     1
 10
0.0
 20
0.0
 30
0.0
 70
     1
  0
VERTEX
  5
134
  8
0
 10
520.2491901587879
 20
2277.339321191869
 30
0.0
  0
VERTEX
  5
135
  8
0
 10
520.2491901587878
 20
2153.637159526328
 30
0.0
  0
VERTEX
  5
136
  8
0
 10
596.3374993952793
 20
2153.637159526328
 30
0.0
  0
VERTEX
  5
137
  8
0
 10
596.3374993952793
 20
2277.339321191869
 30
0.0
  0
SEQEND
  5
138
  8
0
  0
POLYLINE
  5
139
  8
0
 66
     1
 10
0.0
 20
0.0
 30
0.0
 70
     1
  0
VERTEX
  5
13A
  8
0
 10
584.006202525706
 20
1348.148755401522
 30
0.0
  0
VERTEX
  5
13B
  8
0
 10
584.006202525706
 20
1294.65326552306
 30
0.0
  0
VERTEX
  5
13C
  8
0
 10
655.834717555554
 20
1294.65326552306
 30
0.0
  0
VERTEX
  5
13D
  8
0
 10
655.834717555554
 20
1348.148755401522
 30
0.0
  0
SEQEND
  5
13E
  8
0
  0
POLYLINE
  5
13F
  8
0
 66
     1
 10
0.0
 20
0.0
 30
0.0
 70
     1
  0
VERTEX
  5
140
  8
0
 10
817.8379979360834
 20
1851.10828978057
 30
0.0
  0
VERTEX
  5
141
  8
0
 10
744.5558513809415
 20
1851.10828978057
 30
0.0
  0
VERTEX
  5
142
  8
0
 10
744.5558513809415
 20
1789.322294351298
 30
0.0
  0
VERTEX
  5
143
  8
0
 10
817.8379979360834
 20
1789.322294351298
 30
0.0
  0
SEQEND
  5
144
  8
0
  0
POLYLINE
  5
145
  8
0
 66
     1
 10
0.0
 20
0.0
 30
0.0
 70
     1
  0
VERTEX
  5
146
  8
0
 10
655.834717555554
 20
1038.864134643146
 30
0.0
  0
VERTEX
  5
147
  8
0
 10
655.834717555554
 20
1111.19979025722
 30
0.0
  0
VERTEX
  5
148
  8
0
 10
584.0062025257059
 20
1111.19979025722
 30
0.0
  0
VERTEX
  5
149
  8
0
 10
584.006202525706
 20
1038.864134643146
 30
0.0
  0
SEQEND
  5
14A
  8
0
  0
POLYLINE
  5
14B
  8
0
 66
     1
 10
0.0
 20
0.0
 30
0.0
 70
     1
  0
VERTEX
  5
14C
  8
0
 10
919.3678350910989
 20
384.6181222687233
 30
0.0
  0
VERTEX
  5
14D
  8
0
 10
1004.549796438032
 20
384.6181222687232
 30
0.0
  0
VERTEX
  5
14E
  8
0
 10
1004.549796438032
 20
659.0042726777571
 30
0.0
  0
VERTEX
  5
14F
  8
0
 10
919.3678350910991
 20
659.0042726777571
 30
0.0
  0
SEQEND
  5
150
  8
0
  0
POLYLINE
  5
151
  8
0
 66
     1
 10
0.0
 20
0.0
 30
0.0
 70
     1
  0
VERTEX
  5
152
  8
0
 10
996.5852930505873
 20
1109.903161998423
 30
0.0
  0
VERTEX
  5
153
  8
0
 10
919.367835091099
 20
1109.903161998423
 30
0.0
  0
VERTEX
  5
154
  8
0
 10
919.3678350910991
 20
1038.864134643146
 30
0.0
  0
VERTEX
  5
155
  8
0
 10
996.5852930505878
 20
1038.864134643146
 30
0.0
  0
SEQEND
  5
156
  8
0
  0
POLYLINE
  5
157
  8
0
 66
     1
 10
0.0
 20
0.0
 30
0.0
 70
     1
  0
VERTEX
  5
158
  8
0
 10
623.5704005265366
 20
1978.397381523841
 30
0.0
  0
VERTEX
  5
159
  8
0
 10
623.5704005265366
 20
2126.40425839507
 30
0.0
  0
VERTEX
  5
15A
  8
0
 10
909.3319496894655
 20
2126.404258395071
 30
0.0
  0
VERTEX
  5
15B
  8
0
 10
909.3319496894658
 20
1878.341190911828
 30
0.0
  0
VERTEX
  5
15C
  8
0
 10
845.0708990673406
 20
1878.341190911828
 30
0.0
  0
VERTEX
  5
15D
  8
0
 10
845.0708990673406
 20
1978.39738152384
 30
0.0
  0
SEQEND
  5
15E
  8
0
  0
POLYLINE
  5
15F
  8
0
 66
     1
 10
0.0
 20
0.0
 30
0.0
 70
     1
  0
VERTEX
  5
160
  8
0
 10
556.7733013944488
 20
1348.148755401522
 30
0.0
  0
VERTEX
  5
161
  8
0
 10
362.4889601871944
 20
1348.148755401522
 30
0.0
  0
VERTEX
  5
162
  8
0
 10
362.4889601871944
 20
1294.653265523059
 30
0.0
  0
VERTEX
  5
163
  8
0
 10
556.7733013944488
 20
1294.65326552306
 30
0.0
  0
SEQEND
  5
164
  8
0
  0
POLYLINE
  5
165
  8
0
 66
     1
 10
0.0
 20
0.0
 30
0.0
 70
     1
  0
VERTEX
  5
166
  8
0
 10
335.2560590559372
 20
1874.511619738164
 30
0.0
  0
VERTEX
  5
167
  8
0
 10
335.2560590559372
 20
1294.65326552306
 30
0.0
  0
VERTEX
  5
168
  8
0
 10
248.0410623342418
 20
1294.65326552306
 30
0.0
  0
VERTEX
  5
169
  8
0
 10
248.0410623342418
 20
1874.511619738165
 30
0.0
  0
SEQEND
  5
16A
  8
0
  0
POLYLINE
  5
16B
  8
0
 66
     1
 10
0.0
 20
0.0
 30
0.0
 70
     1
  0
VERTEX
  5
16C
  8
0
 10
220.8081612029846
 20
1673.937039549199
 30
0.0
  0
VERTEX
  5
16D
  8
0
 10
220.8081612029845
 20
1515.661077297274
 30
0.0
  0
VERTEX
  5
16E
  8
0
 10
118.318364552607
 20
1515.661077297274
 30
0.0
  0
VERTEX
  5
16F
  8
0
 10
118.3183645526069
 20
1673.937039549199
 30
0.0
  0
SEQEND
  5
170
  8
0
  0
POLYLINE
  5
171
  8
0
 66
     1
 10
0.0
 20
0.0
 30
0.0
 70
     1
  0
VERTEX
  5
172
  8
0
 10
335.2560590559372
 20
1901.744520869422
 30
0.0
  0
VERTEX
  5
173
  8
0
 10
335.2560590559372
 20
1969.752531597815
 30
0.0
  0
VERTEX
  5
174
  8
0
 10
248.0410623342418
 20
1969.752531597815
 30
0.0
  0
VERTEX
  5
175
  8
0
 10
248.0410623342418
 20
1901.744520869422
 30
0.0
  0
SEQEND
  5
176
  8
0
  0
POLYLINE
  5
177
  8
0
 66
     1
 10
0.0
 20
0.0
 30
0.0
 70
     1
  0
VERTEX
  5
178
  8
0
 10
717.3229502496843
 20
1673.937039549199
 30
0.0
  0
VERTEX
  5
179
  8
0
 10
717.3229502496843
 20
1515.661077297274
 30
0.0
  0
VERTEX
  5
17A
  8
0
 10
362.4889601871944
 20
1515.661077297274
 30
0.0
  0
VERTEX
  5
17B
  8
0
 10
362.4889601871944
 20
1673.937039549199
 30
0.0
  0
SEQEND
  5
17C
  8
0
  0
POLYLINE
  5
17D
  8
0
 66
     1
 10
0.0
 20
0.0
 30
0.0
 70
     1
  0
VERTEX
  5
17E
  8
0
 10
556.7733013944488
 20
1138.432691388477
 30
0.0
  0
VERTEX
  5
17F
  8
0
 10
430.9490659747768
 20
1138.432691388477
 30
0.0
  0
VERTEX
  5
180
  8
0
 10
430.9490659747768
 20
1267.420364391802
 30
0.0
  0
VERTEX
  5
181
  8
0
 10
556.7733013944488
 20
1267.420364391802
 30
0.0
  0
SEQEND
  5
182
  8
0
  0
POLYLINE
  5
183
  8
0
 66
     1
 10
0.0
 20
0.0
 30
0.0
 70
     1
  0
VERTEX
  5
184
  8
0
 10
362.4889601871944
 20
1488.428176166016
 30
0.0
  0
VERTEX
  5
185
  8
0
 10
717.3229502496843
 20
1488.428176166016
 30
0.0
  0
VERTEX
  5
186
  8
0
 10
717.3229502496843
 20
1436.481923710194
 30
0.0
  0
VERTEX
  5
187
  8
0
 10
556.7733013944488
 20
1436.481923710194
 30
0.0
  0
VERTEX
  5
188
  8
0
 10
556.7733013944489
 20
1375.381656532779
 30
0.0
  0
VERTEX
  5
189
  8
0
 10
362.4889601871944
 20
1375.381656532779
 30
0.0
  0
SEQEND
  5
18A
  8
0
  0
POLYLINE
  5
18B
  8
0
 66
     1
 10
0.0
 20
0.0
 30
0.0
 70
     1
  0
VERTEX
  5
18C
  8
0
 10
655.8347175555539
 20
1011.631233511889
 30
0.0
  0
VERTEX
  5
18D
  8
0
 10
556.7733013944488
 20
1011.631233511889
 30
0.0
  0
VERTEX
  5
18E
  8
0
 10
556.7733013944488
 20
1111.19979025722
 30
0.0
  0
VERTEX
  5
18F
  8
0
 10
430.9490659747768
 20
1111.19979025722
 30
0.0
  0
VERTEX
  5
190
  8
0
 10
430.9490659747768
 20
910.624295879616
 30
0.0
  0
VERTEX
  5
191
  8
0
 10
655.834717555554
 20
910.624295879616
 30
0.0
  0
SEQEND
  5
192
  8
0
  0
POLYLINE
  5
193
  8
0
 66
     1
 10
0.0
 20
0.0
 30
0.0
 70
     1
  0
VERTEX
  5
194
  8
0
 10
749.0135319903065
 20
659.0042726777572
 30
0.0
  0
VERTEX
  5
195
  8
0
 10
749.0135319903065
 20
431.130529848402
 30
0.0
  0
VERTEX
  5
196
  8
0
 10
586.863086108391
 20
431.130529848402
 30
0.0
  0
VERTEX
  5
197
  8
0
 10
586.8630861083911
 20
659.0042726777571
 30
0.0
  0
SEQEND
  5
198
  8
0
  0
POLYLINE
  5
199
  8
0
 66
     1
 10
0.0
 20
0.0
 30
0.0
 70
     1
  0
VERTEX
  5
19A
  8
0
 10
744.5558513809416
 20
1673.937039549199
 30
0.0
  0
VERTEX
  5
19B
  8
0
 10
903.8071143884913
 20
1673.937039549199
 30
0.0
  0
VERTEX
  5
19C
  8
0
 10
903.8071143884913
 20
1436.481923710194
 30
0.0
  0
VERTEX
  5
19D
  8
0
 10
744.5558513809415
 20
1436.481923710194
 30
0.0
  0
SEQEND
  5
19E
  8
0
  0
POLYLINE
  5
19F
  8
0
 66
     1
 10
0.0
 20
0.0
 30
0.0
 70
     1
  0
VERTEX
  5
1A0
  8
0
 10
744.5558513809415
 20
1701.169940680457
 30
0.0
  0
VERTEX
  5
1A1
  8
0
 10
744.5558513809415
 20
1762.08939322004
 30
0.0
  0
VERTEX
  5
1A2
  8
0
 10
845.0708990673406
 20
1762.08939322004
 30
0.0
  0
VERTEX
  5
1A3
  8
0
 10
845.0708990673406
 20
1851.10828978057
 30
0.0
  0
VERTEX
  5
1A4
  8
0
 10
996.5852930505878
 20
1851.10828978057
 30
0.0
  0
VERTEX
  5
1A5
  8
0
 10
996.5852930505878
 20
1701.169940680456
 30
0.0
  0
SEQEND
  5
1A6
  8
0
  0
POLYLINE
  5
1A7
  8
0
 66
     1
 10
0.0
 20
0.0
 30
0.0
 70
     1
  0
VERTEX
  5
1A8
  8
0
 10
273.1104150018098
 20
2277.339321191869
 30
0.0
  0
VERTEX
  5
1A9
  8
0
 10
173.1288466437843
 20
2277.339321191869
 30
0.0
  0
VERTEX
  5
1AA
  8
0
 10
173.1288466437843
 20
2206.940950283121
 30
0.0
  0
VERTEX
  5
1AB
  8
0
 10
273.1104150018099
 20
2206.940950283121
 30
0.0
  0
SEQEND
  5
1AC
  8
0
  0
POLYLINE
  5
1AD
  8
0
 66
     1
 10
0.0
 20
0.0
 30
0.0
 70
     1
  0
VERTEX
  5
1AE
  8
0
 10
892.1349339598421
 20
1011.631233511889
 30
0.0
  0
VERTEX
  5
1AF
  8
0
 10
683.0676186868111
 20
1011.631233511889
 30
0.0
  0
VERTEX
  5
1B0
  8
0
 10
683.0676186868113
 20
763.5633298651934
 30
0.0
  0
VERTEX
  5
1B1
  8
0
 10
776.2464331215638
 20
763.5633298651934
 30
0.0
  0
VERTEX
  5
1B2
  8
0
 10
776.2464331215638
 20
686.2371738090144
 30
0.0
  0
VERTEX
  5
1B3
  8
0
 10
892.1349339598419
 20
686.2371738090143
 30
0.0
  0
SEQEND
  5
1B4
  8
0
  0
POLYLINE
  5
1B5
  8
0
 66
     1
 10
0.0
 20
0.0
 30
0.0
 70
     1
  0
VERTEX
  5
1B6
  8
0
 10
319.4714398808035
 20
763.5633298651933
 30
0.0
  0
VERTEX
  5
1B7
  8
0
 10
319.4714398808035
 20
883.391394748359
 30
0.0
  0
VERTEX
  5
1B8
  8
0
 10
655.834717555554
 20
883.3913947483588
 30
0.0
  0
VERTEX
  5
1B9
  8
0
 10
655.8347175555541
 20
763.5633298651934
 30
0.0
  0
SEQEND
  5
1BA
  8
0
  0
POLYLINE
  5
1BB
  8
0
 66
     1
 10
0.0
 20
0.0
 30
0.0
 70
     1
  0
VERTEX
  5
1BC
  8
0
 10
154.3713266036737
 20
686.2371738090143
 30
0.0
  0
VERTEX
  5
1BD
  8
0
 10
154.3713266036737
 20
763.5633298651934
 30
0.0
  0
VERTEX
  5
1BE
  8
0
 10
292.2385387495463
 20
763.5633298651934
 30
0.0
  0
VERTEX
  5
1BF
  8
0
 10
292.2385387495463
 20
966.4353168937768
 30
0.0
  0
VERTEX
  5
1C0
  8
0
 10
118.318364552607
 20
966.4353168937768
 30
0.0
  0
VERTEX
  5
1C1
  8
0
 10
118.318364552607
 20
686.2371738090143
 30
0.0
  0
SEQEND
  5
1C2
  8
0
  0
POLYLINE
  5
1C3
  8
0
 66
     1
 10
0.0
 20
0.0
 30
0.0
 70
     1
  0
VERTEX
  5
1C4
  8
0
 10
749.0135319903064
 20
686.2371738090143
 30
0.0
  0
VERTEX
  5
1C5
  8
0
 10
274.1240526948108
 20
686.2371738090143
 30
0.0
  0
VERTEX
  5
1C6
  8
0
 10
274.1240526948108
 20
736.3304287339362
 30
0.0
  0
VERTEX
  5
1C7
  8
0
 10
749.0135319903065
 20
736.3304287339362
 30
0.0
  0
SEQEND
  5
1C8
  8
0
  0
POLYLINE
  5
1C9
  8
0
 66
     1
 10
0.0
 20
0.0
 30
0.0
 70
     1
  0
VERTEX
  5
1CA
  8
0
 10
749.0135319903064
 20
403.8976287171448
 30
0.0
  0
VERTEX
  5
1CB
  8
0
 10
749.0135319903064
 20
309.0858313936806
 30
0.0
  0
VERTEX
  5
1CC
  8
0
 10
383.2607876344337
 20
309.0858313936805
 30
0.0
  0
VERTEX
  5
1CD
  8
0
 10
383.2607876344337
 20
236.2312285860822
 30
0.0
  0
VERTEX
  5
1CE
  8
0
 10
274.1240526948108
 20
236.2312285860822
 30
0.0
  0
VERTEX
  5
1CF
  8
0
 10
274.1240526948108
 20
403.8976287171449
 30
0.0
  0
SEQEND
  5
1D0
  8
0
  0
POLYLINE
  5
1D1
  8
0
 66
     1
 10
0.0
 20
0.0
 30
0.0
 70
     1
  0
VERTEX
  5
1D2
  8
0
 10
181.6042277349309
 20
225.4426965777366
 30
0.0
  0
VERTEX
  5
1D3
  8
0
 10
246.8911515635535
 20
225.4426965777366
 30
0.0
  0
VERTEX
  5
1D4
  8
0
 10
246.8911515635535
 20
736.3304287339362
 30
0.0
  0
VERTEX
  5
1D5
  8
0
 10
181.6042277349309
 20
736.3304287339362
 30
0.0
  0
SEQEND
  5
1D6
  8
0
  0
POLYLINE
  5
1D7
  8
0
 66
     1
 10
0.0
 20
0.0
 30
0.0
 70
     1
  0
VERTEX
  5
1D8
  8
0
 10
410.4936887656909
 20
167.2358509512165
 30
0.0
  0
VERTEX
  5
1D9
  8
0
 10
682.981787370343
 20
167.2358509512165
 30
0.0
  0
VERTEX
  5
1DA
  8
0
 10
682.981787370343
 20
281.8529302624233
 30
0.0
  0
VERTEX
  5
1DB
  8
0
 10
410.4936887656909
 20
281.8529302624233
 30
0.0
  0
SEQEND
  5
1DC
  8
0
  0
ENDSEC
  0
EOF
