  0
SECTION
  2
HEADER
  9
$ACADVER
  1
AC1009
  9
$DWGCODEPAGE
  3
ansi_1252
  9
$INSBASE
 10
0.0
 20
0.0
 30
0.0
  9
$EXTMIN
 10
1.000000000000000E+20
 20
1.000000000000000E+20
 30
1.000000000000000E+20
  9
$EXTMAX
 10
-1.000000000000000E+20
 20
-1.000000000000000E+20
 30
-1.000000000000000E+20
  9
$LIMMIN
 10
0.0
 20
0.0
  9
$LIMMAX
 10
12.0
 20
9.0
  9
$ORTHOMODE
 70
     0
  9
$REGENMODE
 70
     1
  9
$FILLMODE
 70
     1
  9
$QTEXTMODE
 70
     0
  9
$MIRRTEXT
 70
     1
  9
$DRAGMODE
 70
     2
  9
$LTSCALE
 40
1.0
  9
$OSMODE
 70
    37
  9
$ATTMODE
 70
     1
  9
$TEXTSIZE
 40
0.2
  9
$TRACEWID
 40
0.05
  9
$TEXTSTYLE
  7
STANDARD
  9
$CLAYER
  8
LAYER_01
  9
$CELTYPE
  6
BYLAYER
  9
$CECOLOR
 62
   256
  9
$DIMSCALE
 40
1.0
  9
$DIMASZ
 40
0.18
  9
$DIMEXO
 40
0.0625
  9
$DIMDLI
 40
0.38
  9
$DIMRND
 40
0.0
  9
$DIMDLE
 40
0.0
  9
$DIMEXE
 40
0.18
  9
$DIMTP
 40
0.0
  9
$DIMTM
 40
0.0
  9
$DIMTXT
 40
0.18
  9
$DIMCEN
 40
0.09
  9
$DIMTSZ
 40
0.0
  9
$DIMTOL
 70
     0
  9
$DIMLIM
 70
     0
  9
$DIMTIH
 70
     1
  9
$DIMTOH
 70
     1
  9
$DIMSE1
 70
     0
  9
$DIMSE2
 70
     0
  9
$DIMTAD
 70
     0
  9
$DIMZIN
 70
     0
  9
$DIMBLK
  1

  9
$DIMASO
 70
     1
  9
$DIMSHO
 70
     1
  9
$DIMPOST
  1

  9
$DIMAPOST
  1

  9
$DIMALT
 70
     0
  9
$DIMALTD
 70
     2
  9
$DIMALTF
 40
25.4
  9
$DIMLFAC
 40
1.0
  9
$DIMTOFL
 70
     0
  9
$DIMTVP
 40
0.0
  9
$DIMTIX
 70
     0
  9
$DIMSOXD
 70
     0
  9
$DIMSAH
 70
     0
  9
$DIMBLK1
  1

  9
$DIMBLK2
  1

  9
$DIMSTYLE
  2
STANDARD_ACAD
  9
$DIMCLRD
 70
     0
  9
$DIMCLRE
 70
     0
  9
$DIMCLRT
 70
     0
  9
$DIMTFAC
 40
1.0
  9
$DIMGAP
 40
0.09
  9
$LUNITS
 70
     2
  9
$LUPREC
 70
     3
  9
$SKETCHINC
 40
0.1
  9
$FILLETRAD
 40
0.5
  9
$AUNITS
 70
     0
  9
$AUPREC
 70
     0
  9
$MENU
  1
.
  9
$ELEVATION
 40
0.0
  9
$PELEVATION
 40
0.0
  9
$THICKNESS
 40
0.0
  9
$LIMCHECK
 70
     0
  9
$CHAMFERA
 40
0.0
  9
$CHAMFERB
 40
0.0
  9
$SKPOLY
 70
     0
  9
$TDCREATE
 40
2459881.986686458
  9
$TDUPDATE
 40
2459881.986686493
  9
$TDINDWG
 40
0.0000000116
  9
$TDUSRTIMER
 40
0.0000000116
  9
$USRTIMER
 70
     1
  9
$ANGBASE
 50
0.0
  9
$ANGDIR
 70
     0
  9
$PDMODE
 70
     0
  9
$PDSIZE
 40
0.0
  9
$PLINEWID
 40
0.0
  9
$COORDS
 70
     1
  9
$SPLFRAME
 70
     0
  9
$SPLINETYPE
 70
     6
  9
$SPLINESEGS
 70
     8
  9
$ATTDIA
 70
     0
  9
$ATTREQ
 70
     1
  9
$HANDLING
 70
     1
  9
$HANDSEED
  5
10A
  9
$SURFTAB1
 70
     6
  9
$SURFTAB2
 70
     6
  9
$SURFTYPE
 70
     6
  9
$SURFU
 70
     6
  9
$SURFV
 70
     6
  9
$UCSNAME
  2

  9
$UCSORG
 10
0.0
 20
0.0
 30
0.0
  9
$UCSXDIR
 10
1.0
 20
0.0
 30
0.0
  9
$UCSYDIR
 10
0.0
 20
1.0
 30
0.0
  9
$PUCSNAME
  2

  9
$PUCSORG
 10
0.0
 20
0.0
 30
0.0
  9
$PUCSXDIR
 10
1.0
 20
0.0
 30
0.0
  9
$PUCSYDIR
 10
0.0
 20
1.0
 30
0.0
  9
$USERI1
 70
     0
  9
$USERI2
 70
     0
  9
$USERI3
 70
     0
  9
$USERI4
 70
     0
  9
$USERI5
 70
     0
  9
$USERR1
 40
0.0
  9
$USERR2
 40
0.0
  9
$USERR3
 40
0.0
  9
$USERR4
 40
0.0
  9
$USERR5
 40
0.0
  9
$WORLDVIEW
 70
     1
  9
$SHADEDGE
 70
     3
  9
$SHADEDIF
 70
    70
  9
$TILEMODE
 70
     1
  9
$MAXACTVP
 70
    64
  9
$PLIMCHECK
 70
     0
  9
$PEXTMIN
 10
1.000000000000000E+20
 20
1.000000000000000E+20
 30
1.000000000000000E+20
  9
$PEXTMAX
 10
-1.000000000000000E+20
 20
-1.000000000000000E+20
 30
-1.000000000000000E+20
  9
$PLIMMIN
 10
0.0
 20
0.0
  9
$PLIMMAX
 10
12.0
 20
9.0
  9
$UNITMODE
 70
     0
  9
$VISRETAIN
 70
     1
  9
$PLINEGEN
 70
     0
  9
$PSLTSCALE
 70
     1
  0
ENDSEC
  0
SECTION
  2
TABLES
  0
TABLE
  2
VPORT
 70
     1
  0
VPORT
  2
*ACTIVE
 70
     0
 10
0.0
 20
0.0
 11
1.0
 21
1.0
 12
10.42990654205607
 22
4.5
 13
0.0
 23
0.0
 14
0.5
 24
0.5
 15
0.5
 25
0.5
 16
0.0
 26
0.0
 36
1.0
 17
0.0
 27
0.0
 37
0.0
 40
9.0
 41
1.972972972850329
 42
50.0
 43
0.0
 44
0.0
 50
0.0
 51
0.0
 71
     0
 72
   100
 73
     1
 74
     3
 75
     0
 76
     0
 77
     0
 78
     0
  0
ENDTAB
  0
TABLE
  2
LTYPE
 70
     1
  0
LTYPE
  2
CONTINUOUS
 70
     0
  3
Solid line
 72
    65
 73
     0
 40
0.0
  0
ENDTAB
  0
TABLE
  2
LAYER
 70
     2
  0
LAYER
  2
0
 70
     0
 62
     7
  6
CONTINUOUS
  0
LAYER
  2
LAYER_01
 70
     0
 62
     7
  6
CONTINUOUS
  0
ENDTAB
  0
TABLE
  2
STYLE
 70
     1
  0
STYLE
  2
STANDARD
 70
     0
 40
0.0
 41
1.0
 50
0.0
 71
     0
 42
0.2
  3
txt
  4

  0
ENDTAB
  0
TABLE
  2
VIEW
 70
     0
  0
ENDTAB
  0
TABLE
  2
UCS
 70
     0
  0
ENDTAB
  0
TABLE
  2
APPID
 70
     2
  0
APPID
  2
ACAD
 70
     0
  0
APPID
  2
RHINO
 70
     0
  0
ENDTAB
  0
TABLE
  2
DIMSTYLE
 70
     1
  0
DIMSTYLE
  2
STANDARD_ACAD
 70
     0
  3

  4

  5

  6

  7

 40
1.0
 41
0.18
 42
0.0625
 43
0.38
 44
0.18
 45
0.0
 46
0.0
 47
0.0
 48
0.0
140
0.18
141
0.09
142
0.0
143
25.4
144
1.0
145
0.0
146
1.0
147
0.09
 71
     0
 72
     0
 73
     1
 74
     1
 75
     0
 76
     0
 77
     0
 78
     0
170
     0
171
     2
172
     0
173
     0
174
     0
175
     0
176
     0
177
     0
178
     0
  0
ENDTAB
  0
ENDSEC
  0
SECTION
  2
BLOCKS
  0
BLOCK
  8
0
  2
$MODEL_SPACE
 70
     0
 10
0.0
 20
0.0
 30
0.0
  3
$MODEL_SPACE
  1

  0
ENDBLK
  5
21
  8
0
  0
BLOCK
 67
     1
  8
0
  2
$PAPER_SPACE
 70
     0
 10
0.0
 20
0.0
 30
0.0
  3
$PAPER_SPACE
  1

  0
ENDBLK
  5
1D
 67
     1
  8
0
  0
ENDSEC
  0
SECTION
  2
ENTITIES
  0
POLYLINE
  5
70
  8
LAYER_01
 66
     1
 10
0.0
 20
0.0
 30
0.0
 70
     1
  0
VERTEX
  5
71
  8
LAYER_01
 10
3528.345984346005
 20
35.05792503153631
 30
0.0
  0
VERTEX
  5
72
  8
LAYER_01
 10
5017.366985180552
 20
35.0579250315363
 30
0.0
  0
VERTEX
  5
73
  8
LAYER_01
 10
5017.366985180552
 20
2978.225880872336
 30
0.0
  0
VERTEX
  5
74
  8
LAYER_01
 10
3528.345984346005
 20
2978.225880872336
 30
0.0
  0
SEQEND
  5
75
  8
LAYER_01
  0
POLYLINE
  5
76
  8
LAYER_01
 66
     1
 10
0.0
 20
0.0
 30
0.0
 70
     1
  0
VERTEX
  5
77
  8
LAYER_01
 10
3564.005400180029
 20
179.1304089389764
 30
0.0
  0
VERTEX
  5
78
  8
LAYER_01
 10
4036.036965481999
 20
1099.231312741202
 30
0.0
  0
VERTEX
  5
79
  8
LAYER_01
 10
4074.335887245054
 20
1037.231514352461
 30
0.0
  0
VERTEX
  5
7A
  8
LAYER_01
 10
4034.97807749304
 20
960.5138560718386
 30
0.0
  0
VERTEX
  5
7B
  8
LAYER_01
 10
4077.501775846413
 20
875.8367677867791
 30
0.0
  0
VERTEX
  5
7C
  8
LAYER_01
 10
4042.294878400323
 20
806.9513164160115
 30
0.0
  0
VERTEX
  5
7D
  8
LAYER_01
 10
3999.705478022701
 20
891.7592365977141
 30
0.0
  0
VERTEX
  5
7E
  8
LAYER_01
 10
3578.493315726803
 20
70.71734086556125
 30
0.0
  0
VERTEX
  5
7F
  8
LAYER_01
 10
3564.00540018003
 20
70.71734086556137
 30
0.0
  0
SEQEND
  5
80
  8
LAYER_01
  0
POLYLINE
  5
81
  8
LAYER_01
 66
     1
 10
0.0
 20
0.0
 30
0.0
 70
     1
  0
VERTEX
  5
82
  8
LAYER_01
 10
4404.455613420756
 20
1308.206273378128
 30
0.0
  0
VERTEX
  5
83
  8
LAYER_01
 10
4329.748736176909
 20
1456.969459197701
 30
0.0
  0
VERTEX
  5
84
  8
LAYER_01
 10
4294.476136706569
 20
1388.214839723576
 30
0.0
  0
VERTEX
  5
85
  8
LAYER_01
 10
4432.853743273548
 20
1112.664658020769
 30
0.0
  0
VERTEX
  5
86
  8
LAYER_01
 10
4468.80110837871
 20
1180.075622275709
 30
0.0
  0
VERTEX
  5
87
  8
LAYER_01
 10
4439.134581608981
 20
1239.150331288929
 30
0.0
  0
VERTEX
  5
88
  8
LAYER_01
 10
4981.707569346527
 20
2296.753112739841
 30
0.0
  0
VERTEX
  5
89
  8
LAYER_01
 10
4981.707569346527
 20
2433.406546857992
 30
0.0
  0
SEQEND
  5
8A
  8
LAYER_01
  0
POLYLINE
  5
8B
  8
LAYER_01
 66
     1
 10
0.0
 20
0.0
 30
0.0
 70
     1
  0
VERTEX
  5
8C
  8
LAYER_01
 10
4539.039390465791
 20
1040.210712976095
 30
0.0
  0
VERTEX
  5
8D
  8
LAYER_01
 10
4488.401141380302
 20
1141.046238916954
 30
0.0
  0
VERTEX
  5
8E
  8
LAYER_01
 10
4452.453776275141
 20
1073.635274662014
 30
0.0
  0
VERTEX
  5
8F
  8
LAYER_01
 10
4956.105715113399
 20
70.71734086556154
 30
0.0
  0
VERTEX
  5
90
  8
LAYER_01
 10
4981.707569346527
 20
70.71734086556137
 30
0.0
  0
VERTEX
  5
91
  8
LAYER_01
 10
4981.707569346527
 20
158.7292352227095
 30
0.0
  0
VERTEX
  5
92
  8
LAYER_01
 10
4573.718358654015
 20
971.1547708868968
 30
0.0
  0
VERTEX
  5
93
  8
LAYER_01
 10
4606.117519321502
 20
1034.308380102667
 30
0.0
  0
VERTEX
  5
94
  8
LAYER_01
 10
4569.028823328929
 20
1098.667194089256
 30
0.0
  0
SEQEND
  5
95
  8
LAYER_01
  0
POLYLINE
  5
96
  8
LAYER_01
 66
     1
 10
0.0
 20
0.0
 30
0.0
 70
     1
  0
VERTEX
  5
97
  8
LAYER_01
 10
4003.745094345717
 20
1967.145156099609
 30
0.0
  0
VERTEX
  5
98
  8
LAYER_01
 10
4052.857338459075
 20
1869.34835121906
 30
0.0
  0
VERTEX
  5
99
  8
LAYER_01
 10
4088.734592737819
 20
1936.898926581878
 30
0.0
  0
VERTEX
  5
9A
  8
LAYER_01
 10
3583.701839307088
 20
2942.566465038311
 30
0.0
  0
VERTEX
  5
9B
  8
LAYER_01
 10
3564.00540018003
 20
2942.566465038311
 30
0.0
  0
VERTEX
  5
9C
  8
LAYER_01
 10
3564.00540018003
 20
2842.795166498086
 30
0.0
  0
VERTEX
  5
9D
  8
LAYER_01
 10
3969.066126157492
 20
2036.201098188807
 30
0.0
  0
VERTEX
  5
9E
  8
LAYER_01
 10
3928.605781277975
 20
1957.334338784744
 30
0.0
  0
VERTEX
  5
9F
  8
LAYER_01
 10
3965.800690781989
 20
1893.182559994647
 30
0.0
  0
SEQEND
  5
A0
  8
LAYER_01
  0
POLYLINE
  5
A1
  8
LAYER_01
 66
     1
 10
0.0
 20
0.0
 30
0.0
 70
     1
  0
VERTEX
  5
A2
  8
LAYER_01
 10
4673.852330971071
 20
1166.339511066907
 30
0.0
  0
VERTEX
  5
A3
  8
LAYER_01
 10
4981.707569346527
 20
553.309925015659
 30
0.0
  0
VERTEX
  5
A4
  8
LAYER_01
 10
4981.707569346527
 20
692.3025796336972
 30
0.0
  0
VERTEX
  5
A5
  8
LAYER_01
 10
4709.124930441409
 20
1235.094130541034
 30
0.0
  0
VERTEX
  5
A6
  8
LAYER_01
 10
4809.73354125724
 20
1431.204053153335
 30
0.0
  0
VERTEX
  5
A7
  8
LAYER_01
 10
4981.707569346527
 20
1088.753595569872
 30
0.0
  0
VERTEX
  5
A8
  8
LAYER_01
 10
4981.707569346527
 20
1227.74625018791
 30
0.0
  0
VERTEX
  5
A9
  8
LAYER_01
 10
4845.006140727579
 20
1499.958672627461
 30
0.0
  0
VERTEX
  5
AA
  8
LAYER_01
 10
4981.707569346527
 20
1766.422013787464
 30
0.0
  0
VERTEX
  5
AB
  8
LAYER_01
 10
4981.707569346527
 20
1903.075447905615
 30
0.0
  0
VERTEX
  5
AC
  8
LAYER_01
 10
4588.412220510198
 20
1136.450009002986
 30
0.0
  0
VERTEX
  5
AD
  8
LAYER_01
 10
4625.500916502771
 20
1072.091195016397
 30
0.0
  0
SEQEND
  5
AE
  8
LAYER_01
  0
POLYLINE
  5
AF
  8
LAYER_01
 66
     1
 10
0.0
 20
0.0
 30
0.0
 70
     1
  0
VERTEX
  5
B0
  8
LAYER_01
 10
4228.821387348658
 20
435.5226242437286
 30
0.0
  0
VERTEX
  5
B1
  8
LAYER_01
 10
4041.668425937766
 20
70.71734086556127
 30
0.0
  0
VERTEX
  5
B2
  8
LAYER_01
 10
4111.774578582678
 20
70.71734086556133
 30
0.0
  0
VERTEX
  5
B3
  8
LAYER_01
 10
4263.500355536882
 20
366.4666821545304
 30
0.0
  0
VERTEX
  5
B4
  8
LAYER_01
 10
4412.021709209833
 20
70.71734086556125
 30
0.0
  0
VERTEX
  5
B5
  8
LAYER_01
 10
4481.821956691357
 20
70.71734086556137
 30
0.0
  0
VERTEX
  5
B6
  8
LAYER_01
 10
4097.349224793179
 20
836.3147071058722
 30
0.0
  0
VERTEX
  5
B7
  8
LAYER_01
 10
4062.14232734709
 20
767.429255735105
 30
0.0
  0
VERTEX
  5
B8
  8
LAYER_01
 10
4094.237610303623
 20
703.5181846457592
 30
0.0
  0
VERTEX
  5
B9
  8
LAYER_01
 10
3769.597158827467
 20
70.71734086556117
 30
0.0
  0
VERTEX
  5
BA
  8
LAYER_01
 10
3839.703311472379
 20
70.71734086556143
 30
0.0
  0
VERTEX
  5
BB
  8
LAYER_01
 10
4128.916578491848
 20
634.4622425565617
 30
0.0
  0
SEQEND
  5
BC
  8
LAYER_01
  0
POLYLINE
  5
BD
  8
LAYER_01
 66
     1
 10
0.0
 20
0.0
 30
0.0
 70
     1
  0
VERTEX
  5
BE
  8
LAYER_01
 10
3866.340617337749
 20
1835.964841852595
 30
0.0
  0
VERTEX
  5
BF
  8
LAYER_01
 10
3564.00540018003
 20
2438.002455378184
 30
0.0
  0
VERTEX
  5
C0
  8
LAYER_01
 10
3564.00540018003
 20
2299.009800760146
 30
0.0
  0
VERTEX
  5
C1
  8
LAYER_01
 10
3831.06801786741
 20
1767.210222378469
 30
0.0
  0
VERTEX
  5
C2
  8
LAYER_01
 10
3729.393321981037
 20
1569.022248404689
 30
0.0
  0
VERTEX
  5
C3
  8
LAYER_01
 10
3564.00540018003
 20
1898.357847092462
 30
0.0
  0
VERTEX
  5
C4
  8
LAYER_01
 10
3564.00540018003
 20
1759.365192474422
 30
0.0
  0
VERTEX
  5
C5
  8
LAYER_01
 10
3694.120722510698
 20
1500.267628930565
 30
0.0
  0
VERTEX
  5
C6
  8
LAYER_01
 10
3564.00540018003
 20
1246.64216301839
 30
0.0
  0
VERTEX
  5
C7
  8
LAYER_01
 10
3564.00540018003
 20
1109.988728900238
 30
0.0
  0
VERTEX
  5
C8
  8
LAYER_01
 10
3946.450196643341
 20
1855.463880874958
 30
0.0
  0
VERTEX
  5
C9
  8
LAYER_01
 10
3909.255287139327
 20
1919.615659665055
 30
0.0
  0
SEQEND
  5
CA
  8
LAYER_01
  0
POLYLINE
  5
CB
  8
LAYER_01
 66
     1
 10
0.0
 20
0.0
 30
0.0
 70
     1
  0
VERTEX
  5
CC
  8
LAYER_01
 10
4443.208932304559
 20
2300.054125464
 30
0.0
  0
VERTEX
  5
CD
  8
LAYER_01
 10
4772.831590125884
 20
2942.566465038311
 30
0.0
  0
VERTEX
  5
CE
  8
LAYER_01
 10
4702.725437480972
 20
2942.566465038311
 30
0.0
  0
VERTEX
  5
CF
  8
LAYER_01
 10
4408.529964116335
 20
2369.110067553197
 30
0.0
  0
VERTEX
  5
D0
  8
LAYER_01
 10
4310.305475889618
 20
2564.703677314296
 30
0.0
  0
VERTEX
  5
D1
  8
LAYER_01
 10
4504.15721804275
 20
2942.566465038311
 30
0.0
  0
VERTEX
  5
D2
  8
LAYER_01
 10
4434.051065397838
 20
2942.566465038311
 30
0.0
  0
VERTEX
  5
D3
  8
LAYER_01
 10
4275.626507701394
 20
2633.759619403494
 30
0.0
  0
VERTEX
  5
D4
  8
LAYER_01
 10
4120.547850426064
 20
2942.566465038311
 30
0.0
  0
VERTEX
  5
D5
  8
LAYER_01
 10
4050.74760294454
 20
2942.566465038311
 30
0.0
  0
VERTEX
  5
D6
  8
LAYER_01
 10
4438.890053382934
 20
2169.661618667063
 30
0.0
  0
VERTEX
  5
D7
  8
LAYER_01
 10
4473.362226011257
 20
2240.010121481337
 30
0.0
  0
SEQEND
  5
D8
  8
LAYER_01
  0
POLYLINE
  5
D9
  8
LAYER_01
 66
     1
 10
0.0
 20
0.0
 30
0.0
 70
     1
  0
VERTEX
  5
DA
  8
LAYER_01
 10
4981.707569346527
 20
2805.913030920158
 30
0.0
  0
VERTEX
  5
DB
  8
LAYER_01
 10
4981.707569346527
 20
2942.566465038311
 30
0.0
  0
VERTEX
  5
DC
  8
LAYER_01
 10
4546.532295025172
 20
2094.307169159842
 30
0.0
  0
VERTEX
  5
DD
  8
LAYER_01
 10
4493.460974608281
 20
2199.987649888521
 30
0.0
  0
VERTEX
  5
DE
  8
LAYER_01
 10
4458.988801979958
 20
2129.639147074246
 30
0.0
  0
VERTEX
  5
DF
  8
LAYER_01
 10
4511.259695554834
 20
2025.552549685718
 30
0.0
  0
VERTEX
  5
E0
  8
LAYER_01
 10
4458.923367754201
 20
1923.536697249565
 30
0.0
  0
VERTEX
  5
E1
  8
LAYER_01
 10
4495.488549930677
 20
1858.157431304355
 30
0.0
  0
SEQEND
  5
E2
  8
LAYER_01
  0
POLYLINE
  5
E3
  8
LAYER_01
 66
     1
 10
0.0
 20
0.0
 30
0.0
 70
     1
  0
VERTEX
  5
E4
  8
LAYER_01
 10
4219.807291612345
 20
1457.443041773331
 30
0.0
  0
VERTEX
  5
E5
  8
LAYER_01
 10
4055.053567969431
 20
1136.299158245856
 30
0.0
  0
VERTEX
  5
E6
  8
LAYER_01
 10
4093.352489732485
 20
1074.299359857116
 30
0.0
  0
VERTEX
  5
E7
  8
LAYER_01
 10
4136.652773379414
 20
1158.701830045619
 30
0.0
  0
VERTEX
  5
E8
  8
LAYER_01
 10
4683.023995725808
 20
70.71734086556134
 30
0.0
  0
VERTEX
  5
E9
  8
LAYER_01
 10
4752.824243207333
 20
70.71734086556128
 30
0.0
  0
VERTEX
  5
EA
  8
LAYER_01
 10
4171.925372849752
 20
1227.456449519744
 30
0.0
  0
VERTEX
  5
EB
  8
LAYER_01
 10
4254.486259800569
 20
1388.387099684134
 30
0.0
  0
SEQEND
  5
EC
  8
LAYER_01
  0
POLYLINE
  5
ED
  8
LAYER_01
 66
     1
 10
0.0
 20
0.0
 30
0.0
 70
     1
  0
VERTEX
  5
EE
  8
LAYER_01
 10
4136.648550760657
 20
1702.495604249312
 30
0.0
  0
VERTEX
  5
EF
  8
LAYER_01
 10
4274.650881669495
 20
1427.692705855957
 30
0.0
  0
VERTEX
  5
F0
  8
LAYER_01
 10
4355.221354336455
 20
1584.74356891258
 30
0.0
  0
VERTEX
  5
F1
  8
LAYER_01
 10
4317.575502451942
 20
1648.016354596368
 30
0.0
  0
VERTEX
  5
F2
  8
LAYER_01
 10
4275.244512951609
 20
1565.503267419279
 30
0.0
  0
VERTEX
  5
F3
  8
LAYER_01
 10
4108.357794524486
 20
1897.82340741332
 30
0.0
  0
VERTEX
  5
F4
  8
LAYER_01
 10
4072.480540245741
 20
1830.272832050503
 30
0.0
  0
VERTEX
  5
F5
  8
LAYER_01
 10
4101.969582572432
 20
1771.55154633851
 30
0.0
  0
VERTEX
  5
F6
  8
LAYER_01
 10
3564.00540018003
 20
722.9324140230176
 30
0.0
  0
VERTEX
  5
F7
  8
LAYER_01
 10
3564.005400180029
 20
586.278979904863
 30
0.0
  0
SEQEND
  5
F8
  8
LAYER_01
  0
POLYLINE
  5
F9
  8
LAYER_01
 66
     1
 10
0.0
 20
0.0
 30
0.0
 70
     1
  0
VERTEX
  5
FA
  8
LAYER_01
 10
4375.378485268664
 20
1760.688007599292
 30
0.0
  0
VERTEX
  5
FB
  8
LAYER_01
 10
4336.787812244924
 20
1685.465679819655
 30
0.0
  0
VERTEX
  5
FC
  8
LAYER_01
 10
4374.433664129438
 20
1622.192894135867
 30
0.0
  0
VERTEX
  5
FD
  8
LAYER_01
 10
4475.941030777154
 20
1820.054703939625
 30
0.0
  0
VERTEX
  5
FE
  8
LAYER_01
 10
4439.375848600677
 20
1885.433969884835
 30
0.0
  0
VERTEX
  5
FF
  8
LAYER_01
 10
4410.651084739002
 20
1829.442627073416
 30
0.0
  0
VERTEX
  5
100
  8
LAYER_01
 10
3851.655218511042
 20
2942.566465038311
 30
0.0
  0
VERTEX
  5
101
  8
LAYER_01
 10
3781.854971029518
 20
2942.566465038311
 30
0.0
  0
SEQEND
  5
102
  8
LAYER_01
  0
ENDSEC
  0
EOF
