  0
SECTION
  2
HEADER
  9
$ACADVER
  1
AC1009
  9
$DWGCODEPAGE
  3
ansi_1252
  9
$INSBASE
 10
0.0
 20
0.0
 30
0.0
  9
$EXTMIN
 10
1.000000000000000E+20
 20
1.000000000000000E+20
 30
1.000000000000000E+20
  9
$EXTMAX
 10
-1.000000000000000E+20
 20
-1.000000000000000E+20
 30
-1.000000000000000E+20
  9
$LIMMIN
 10
0.0
 20
0.0
  9
$LIMMAX
 10
12.0
 20
9.0
  9
$ORTHOMODE
 70
     0
  9
$REGENMODE
 70
     1
  9
$FILLMODE
 70
     1
  9
$QTEXTMODE
 70
     0
  9
$MIRRTEXT
 70
     1
  9
$DRAGMODE
 70
     2
  9
$LTSCALE
 40
1.0
  9
$OSMODE
 70
    37
  9
$ATTMODE
 70
     1
  9
$TEXTSIZE
 40
0.2
  9
$TRACEWID
 40
0.05
  9
$TEXTSTYLE
  7
STANDARD
  9
$CLAYER
  8
LAYER_05
  9
$CELTYPE
  6
BYLAYER
  9
$CECOLOR
 62
   256
  9
$DIMSCALE
 40
1.0
  9
$DIMASZ
 40
0.18
  9
$DIMEXO
 40
0.0625
  9
$DIMDLI
 40
0.38
  9
$DIMRND
 40
0.0
  9
$DIMDLE
 40
0.0
  9
$DIMEXE
 40
0.18
  9
$DIMTP
 40
0.0
  9
$DIMTM
 40
0.0
  9
$DIMTXT
 40
0.18
  9
$DIMCEN
 40
0.09
  9
$DIMTSZ
 40
0.0
  9
$DIMTOL
 70
     0
  9
$DIMLIM
 70
     0
  9
$DIMTIH
 70
     1
  9
$DIMTOH
 70
     1
  9
$DIMSE1
 70
     0
  9
$DIMSE2
 70
     0
  9
$DIMTAD
 70
     0
  9
$DIMZIN
 70
     0
  9
$DIMBLK
  1

  9
$DIMASO
 70
     1
  9
$DIMSHO
 70
     1
  9
$DIMPOST
  1

  9
$DIMAPOST
  1

  9
$DIMALT
 70
     0
  9
$DIMALTD
 70
     2
  9
$DIMALTF
 40
25.4
  9
$DIMLFAC
 40
1.0
  9
$DIMTOFL
 70
     0
  9
$DIMTVP
 40
0.0
  9
$DIMTIX
 70
     0
  9
$DIMSOXD
 70
     0
  9
$DIMSAH
 70
     0
  9
$DIMBLK1
  1

  9
$DIMBLK2
  1

  9
$DIMSTYLE
  2
STANDARD_ACAD
  9
$DIMCLRD
 70
     0
  9
$DIMCLRE
 70
     0
  9
$DIMCLRT
 70
     0
  9
$DIMTFAC
 40
1.0
  9
$DIMGAP
 40
0.09
  9
$LUNITS
 70
     2
  9
$LUPREC
 70
     3
  9
$SKETCHINC
 40
0.1
  9
$FILLETRAD
 40
0.5
  9
$AUNITS
 70
     0
  9
$AUPREC
 70
     0
  9
$MENU
  1
.
  9
$ELEVATION
 40
0.0
  9
$PELEVATION
 40
0.0
  9
$THICKNESS
 40
0.0
  9
$LIMCHECK
 70
     0
  9
$CHAMFERA
 40
0.0
  9
$CHAMFERB
 40
0.0
  9
$SKPOLY
 70
     0
  9
$TDCREATE
 40
2460232.543134086
  9
$TDUPDATE
 40
2460232.54313412
  9
$TDINDWG
 40
0.0000000116
  9
$TDUSRTIMER
 40
0.0000000116
  9
$USRTIMER
 70
     1
  9
$ANGBASE
 50
0.0
  9
$ANGDIR
 70
     0
  9
$PDMODE
 70
     0
  9
$PDSIZE
 40
0.0
  9
$PLINEWID
 40
0.0
  9
$COORDS
 70
     1
  9
$SPLFRAME
 70
     0
  9
$SPLINETYPE
 70
     6
  9
$SPLINESEGS
 70
     8
  9
$ATTDIA
 70
     0
  9
$ATTREQ
 70
     1
  9
$HANDLING
 70
     1
  9
$HANDSEED
  5
2AE
  9
$SURFTAB1
 70
     6
  9
$SURFTAB2
 70
     6
  9
$SURFTYPE
 70
     6
  9
$SURFU
 70
     6
  9
$SURFV
 70
     6
  9
$UCSNAME
  2

  9
$UCSORG
 10
0.0
 20
0.0
 30
0.0
  9
$UCSXDIR
 10
1.0
 20
0.0
 30
0.0
  9
$UCSYDIR
 10
0.0
 20
1.0
 30
0.0
  9
$PUCSNAME
  2

  9
$PUCSORG
 10
0.0
 20
0.0
 30
0.0
  9
$PUCSXDIR
 10
1.0
 20
0.0
 30
0.0
  9
$PUCSYDIR
 10
0.0
 20
1.0
 30
0.0
  9
$USERI1
 70
     0
  9
$USERI2
 70
     0
  9
$USERI3
 70
     0
  9
$USERI4
 70
     0
  9
$USERI5
 70
     0
  9
$USERR1
 40
0.0
  9
$USERR2
 40
0.0
  9
$USERR3
 40
0.0
  9
$USERR4
 40
0.0
  9
$USERR5
 40
0.0
  9
$WORLDVIEW
 70
     1
  9
$SHADEDGE
 70
     3
  9
$SHADEDIF
 70
    70
  9
$TILEMODE
 70
     1
  9
$MAXACTVP
 70
    64
  9
$PLIMCHECK
 70
     0
  9
$PEXTMIN
 10
1.000000000000000E+20
 20
1.000000000000000E+20
 30
1.000000000000000E+20
  9
$PEXTMAX
 10
-1.000000000000000E+20
 20
-1.000000000000000E+20
 30
-1.000000000000000E+20
  9
$PLIMMIN
 10
0.0
 20
0.0
  9
$PLIMMAX
 10
12.0
 20
9.0
  9
$UNITMODE
 70
     0
  9
$VISRETAIN
 70
     1
  9
$PLINEGEN
 70
     0
  9
$PSLTSCALE
 70
     1
  0
ENDSEC
  0
SECTION
  2
TABLES
  0
TABLE
  2
VPORT
 70
     1
  0
VPORT
  2
*ACTIVE
 70
     0
 10
0.0
 20
0.0
 11
1.0
 21
1.0
 12
10.42990654205607
 22
4.5
 13
0.0
 23
0.0
 14
0.5
 24
0.5
 15
0.5
 25
0.5
 16
0.0
 26
0.0
 36
1.0
 17
0.0
 27
0.0
 37
0.0
 40
9.0
 41
1.972972972850329
 42
50.0
 43
0.0
 44
0.0
 50
0.0
 51
0.0
 71
     0
 72
   100
 73
     1
 74
     3
 75
     0
 76
     0
 77
     0
 78
     0
  0
ENDTAB
  0
TABLE
  2
LTYPE
 70
     1
  0
LTYPE
  2
CONTINUOUS
 70
     0
  3
Solid line
 72
    65
 73
     0
 40
0.0
  0
ENDTAB
  0
TABLE
  2
LAYER
 70
     2
  0
LAYER
  2
0
 70
     0
 62
     7
  6
CONTINUOUS
  0
LAYER
  2
LAYER_05
 70
     0
 62
     1
  6
CONTINUOUS
  0
ENDTAB
  0
TABLE
  2
STYLE
 70
     1
  0
STYLE
  2
STANDARD
 70
     0
 40
0.0
 41
1.0
 50
0.0
 71
     0
 42
0.2
  3
txt
  4

  0
ENDTAB
  0
TABLE
  2
VIEW
 70
     0
  0
ENDTAB
  0
TABLE
  2
UCS
 70
     0
  0
ENDTAB
  0
TABLE
  2
APPID
 70
     2
  0
APPID
  2
ACAD
 70
     0
  0
APPID
  2
RHINO
 70
     0
  0
ENDTAB
  0
TABLE
  2
DIMSTYLE
 70
     1
  0
DIMSTYLE
  2
STANDARD_ACAD
 70
     0
  3

  4

  5

  6

  7

 40
1.0
 41
0.18
 42
0.0625
 43
0.38
 44
0.18
 45
0.0
 46
0.0
 47
0.0
 48
0.0
140
0.18
141
0.09
142
0.0
143
25.4
144
1.0
145
0.0
146
1.0
147
0.09
 71
     0
 72
     0
 73
     1
 74
     1
 75
     0
 76
     0
 77
     0
 78
     0
170
     0
171
     2
172
     0
173
     0
174
     0
175
     0
176
     0
177
     0
178
     0
  0
ENDTAB
  0
ENDSEC
  0
SECTION
  2
BLOCKS
  0
BLOCK
  8
0
  2
$MODEL_SPACE
 70
     0
 10
0.0
 20
0.0
 30
0.0
  3
$MODEL_SPACE
  1

  0
ENDBLK
  5
21
  8
0
  0
BLOCK
 67
     1
  8
0
  2
$PAPER_SPACE
 70
     0
 10
0.0
 20
0.0
 30
0.0
  3
$PAPER_SPACE
  1

  0
ENDBLK
  5
1D
 67
     1
  8
0
  0
ENDSEC
  0
SECTION
  2
ENTITIES
  0
POLYLINE
  5
70
  8
LAYER_05
 66
     1
 10
0.0
 20
0.0
 30
0.0
 70
     1
  0
VERTEX
  5
71
  8
LAYER_05
 10
4677.609542917005
 20
1272.867933098178
 30
0.0
  0
VERTEX
  5
72
  8
LAYER_05
 10
4599.248489495485
 20
1199.137305560656
 30
0.0
  0
VERTEX
  5
73
  8
LAYER_05
 10
4629.115420893512
 20
1180.784213432532
 30
0.0
  0
VERTEX
  5
74
  8
LAYER_05
 10
4677.609542917005
 20
1226.412773700093
 30
0.0
  0
SEQEND
  5
75
  8
LAYER_05
  0
POLYLINE
  5
76
  8
LAYER_05
 66
     1
 10
0.0
 20
0.0
 30
0.0
 70
     1
  0
VERTEX
  5
77
  8
LAYER_05
 10
4677.609542917005
 20
1179.957614302008
 30
0.0
  0
VERTEX
  5
78
  8
LAYER_05
 10
4621.221450898511
 20
1126.901545902786
 30
0.0
  0
VERTEX
  5
79
  8
LAYER_05
 10
4677.609542917006
 20
1126.901545902786
 30
0.0
  0
SEQEND
  5
7A
  8
LAYER_05
  0
POLYLINE
  5
7B
  8
LAYER_05
 66
     1
 10
0.0
 20
0.0
 30
0.0
 70
     1
  0
VERTEX
  5
7C
  8
LAYER_05
 10
1188.496506333809
 20
1272.867933098178
 30
0.0
  0
VERTEX
  5
7D
  8
LAYER_05
 10
1266.857559755329
 20
1199.137305560656
 30
0.0
  0
VERTEX
  5
7E
  8
LAYER_05
 10
1236.990628357302
 20
1180.784213432532
 30
0.0
  0
VERTEX
  5
7F
  8
LAYER_05
 10
1188.496506333809
 20
1226.412773700093
 30
0.0
  0
SEQEND
  5
80
  8
LAYER_05
  0
POLYLINE
  5
81
  8
LAYER_05
 66
     1
 10
0.0
 20
0.0
 30
0.0
 70
     1
  0
VERTEX
  5
82
  8
LAYER_05
 10
1188.496506333809
 20
1179.957614302008
 30
0.0
  0
VERTEX
  5
83
  8
LAYER_05
 10
1244.884598352304
 20
1126.901545902786
 30
0.0
  0
VERTEX
  5
84
  8
LAYER_05
 10
1188.496506333808
 20
1126.901545902786
 30
0.0
  0
SEQEND
  5
85
  8
LAYER_05
  0
POLYLINE
  5
86
  8
LAYER_05
 66
     1
 10
0.0
 20
0.0
 30
0.0
 70
     1
  0
VERTEX
  5
87
  8
LAYER_05
 10
1169.873884631105
 20
1049.799307496584
 30
0.0
  0
VERTEX
  5
88
  8
LAYER_05
 10
4696.232164619709
 20
1049.799307496584
 30
0.0
  0
VERTEX
  5
89
  8
LAYER_05
 10
4696.232164619709
 20
1317.845083773881
 30
0.0
  0
VERTEX
  5
8A
  8
LAYER_05
 10
1169.873884631105
 20
1317.845083773881
 30
0.0
  0
SEQEND
  5
8B
  8
LAYER_05
  0
POLYLINE
  5
8C
  8
LAYER_05
 66
     1
 10
0.0
 20
0.0
 30
0.0
 70
     1
  0
VERTEX
  5
8D
  8
LAYER_05
 10
3805.331283771218
 20
1272.867933098178
 30
0.0
  0
VERTEX
  5
8E
  8
LAYER_05
 10
3883.692337192739
 20
1199.137305560656
 30
0.0
  0
VERTEX
  5
8F
  8
LAYER_05
 10
3853.825405794712
 20
1180.784213432532
 30
0.0
  0
VERTEX
  5
90
  8
LAYER_05
 10
3805.33128377121
 20
1226.412773700093
 30
0.0
  0
VERTEX
  5
91
  8
LAYER_05
 10
3756.837161747709
 20
1180.784213432532
 30
0.0
  0
VERTEX
  5
92
  8
LAYER_05
 10
3726.970230349682
 20
1199.137305560656
 30
0.0
  0
SEQEND
  5
93
  8
LAYER_05
  0
POLYLINE
  5
94
  8
LAYER_05
 66
     1
 10
0.0
 20
0.0
 30
0.0
 70
     1
  0
VERTEX
  5
95
  8
LAYER_05
 10
2933.053024625415
 20
1272.867933098178
 30
0.0
  0
VERTEX
  5
96
  8
LAYER_05
 10
3011.414078046936
 20
1199.137305560656
 30
0.0
  0
VERTEX
  5
97
  8
LAYER_05
 10
2981.547146648908
 20
1180.784213432532
 30
0.0
  0
VERTEX
  5
98
  8
LAYER_05
 10
2933.053024625407
 20
1226.412773700093
 30
0.0
  0
VERTEX
  5
99
  8
LAYER_05
 10
2884.558902601906
 20
1180.784213432532
 30
0.0
  0
VERTEX
  5
9A
  8
LAYER_05
 10
2854.691971203879
 20
1199.137305560656
 30
0.0
  0
SEQEND
  5
9B
  8
LAYER_05
  0
POLYLINE
  5
9C
  8
LAYER_05
 66
     1
 10
0.0
 20
0.0
 30
0.0
 70
     1
  0
VERTEX
  5
9D
  8
LAYER_05
 10
2060.774765479597
 20
1226.412773700093
 30
0.0
  0
VERTEX
  5
9E
  8
LAYER_05
 10
2012.280643456103
 20
1180.784213432532
 30
0.0
  0
VERTEX
  5
9F
  8
LAYER_05
 10
1982.413712058076
 20
1199.137305560656
 30
0.0
  0
VERTEX
  5
A0
  8
LAYER_05
 10
2060.774765479604
 20
1272.867933098178
 30
0.0
  0
VERTEX
  5
A1
  8
LAYER_05
 10
2139.135818901133
 20
1199.137305560656
 30
0.0
  0
VERTEX
  5
A2
  8
LAYER_05
 10
2109.268887503105
 20
1180.784213432532
 30
0.0
  0
SEQEND
  5
A3
  8
LAYER_05
  0
POLYLINE
  5
A4
  8
LAYER_05
 66
     1
 10
0.0
 20
0.0
 30
0.0
 70
     1
  0
VERTEX
  5
A5
  8
LAYER_05
 10
3805.331283771218
 20
1179.957614302008
 30
0.0
  0
VERTEX
  5
A6
  8
LAYER_05
 10
3861.719375789713
 20
1126.901545902786
 30
0.0
  0
VERTEX
  5
A7
  8
LAYER_05
 10
3748.943191752707
 20
1126.901545902786
 30
0.0
  0
SEQEND
  5
A8
  8
LAYER_05
  0
POLYLINE
  5
A9
  8
LAYER_05
 66
     1
 10
0.0
 20
0.0
 30
0.0
 70
     1
  0
VERTEX
  5
AA
  8
LAYER_05
 10
2933.053024625415
 20
1179.957614302008
 30
0.0
  0
VERTEX
  5
AB
  8
LAYER_05
 10
2989.44111664391
 20
1126.901545902786
 30
0.0
  0
VERTEX
  5
AC
  8
LAYER_05
 10
2876.664932606904
 20
1126.901545902786
 30
0.0
  0
SEQEND
  5
AD
  8
LAYER_05
  0
POLYLINE
  5
AE
  8
LAYER_05
 66
     1
 10
0.0
 20
0.0
 30
0.0
 70
     1
  0
VERTEX
  5
AF
  8
LAYER_05
 10
2060.774765479612
 20
1179.957614302008
 30
0.0
  0
VERTEX
  5
B0
  8
LAYER_05
 10
2117.162857498107
 20
1126.901545902786
 30
0.0
  0
VERTEX
  5
B1
  8
LAYER_05
 10
2004.386673461101
 20
1126.901545902786
 30
0.0
  0
SEQEND
  5
B2
  8
LAYER_05
  0
POLYLINE
  5
B3
  8
LAYER_05
 66
     1
 10
0.0
 20
0.0
 30
0.0
 70
     1
  0
VERTEX
  5
B4
  8
LAYER_05
 10
4241.470413344112
 20
1094.776458172287
 30
0.0
  0
VERTEX
  5
B5
  8
LAYER_05
 10
4163.109359922591
 20
1168.50708570981
 30
0.0
  0
VERTEX
  5
B6
  8
LAYER_05
 10
4192.976291320618
 20
1186.860177837933
 30
0.0
  0
VERTEX
  5
B7
  8
LAYER_05
 10
4241.470413344112
 20
1141.231617570372
 30
0.0
  0
VERTEX
  5
B8
  8
LAYER_05
 10
4289.964535367606
 20
1186.860177837933
 30
0.0
  0
VERTEX
  5
B9
  8
LAYER_05
 10
4319.831466765633
 20
1168.50708570981
 30
0.0
  0
SEQEND
  5
BA
  8
LAYER_05
  0
POLYLINE
  5
BB
  8
LAYER_05
 66
     1
 10
0.0
 20
0.0
 30
0.0
 70
     1
  0
VERTEX
  5
BC
  8
LAYER_05
 10
4241.470413344112
 20
1187.686776968457
 30
0.0
  0
VERTEX
  5
BD
  8
LAYER_05
 10
4185.082321325616
 20
1240.742845367679
 30
0.0
  0
VERTEX
  5
BE
  8
LAYER_05
 10
4297.858505362608
 20
1240.742845367679
 30
0.0
  0
SEQEND
  5
BF
  8
LAYER_05
  0
POLYLINE
  5
C0
  8
LAYER_05
 66
     1
 10
0.0
 20
0.0
 30
0.0
 70
     1
  0
VERTEX
  5
C1
  8
LAYER_05
 10
4012.876460400801
 20
1216.952267827324
 30
0.0
  0
VERTEX
  5
C2
  8
LAYER_05
 10
4077.844867749139
 20
1155.822902731388
 30
0.0
  0
VERTEX
  5
C3
  8
LAYER_05
 10
4107.711799147166
 20
1174.175994859511
 30
0.0
  0
VERTEX
  5
C4
  8
LAYER_05
 10
4028.690692162244
 20
1248.527672795324
 30
0.0
  0
VERTEX
  5
C5
  8
LAYER_05
 10
3985.396338545486
 20
1221.923491402642
 30
0.0
  0
VERTEX
  5
C6
  8
LAYER_05
 10
3999.44903818207
 20
1208.701178562766
 30
0.0
  0
SEQEND
  5
C7
  8
LAYER_05
  0
POLYLINE
  5
C8
  8
LAYER_05
 66
     1
 10
0.0
 20
0.0
 30
0.0
 70
     1
  0
VERTEX
  5
C9
  8
LAYER_05
 10
4022.616891779699
 20
1068.421929199287
 30
0.0
  0
VERTEX
  5
CA
  8
LAYER_05
 10
3909.222966570136
 20
1175.115304282831
 30
0.0
  0
VERTEX
  5
CB
  8
LAYER_05
 10
3879.356035172109
 20
1156.762212154708
 30
0.0
  0
VERTEX
  5
CC
  8
LAYER_05
 10
3947.049958115326
 20
1093.068384658135
 30
0.0
  0
VERTEX
  5
CD
  8
LAYER_05
 10
3820.850190789355
 20
1093.068384658134
 30
0.0
  0
VERTEX
  5
CE
  8
LAYER_05
 10
3820.850190789355
 20
1068.421929199287
 30
0.0
  0
SEQEND
  5
CF
  8
LAYER_05
  0
POLYLINE
  5
D0
  8
LAYER_05
 66
     1
 10
0.0
 20
0.0
 30
0.0
 70
     1
  0
VERTEX
  5
D1
  8
LAYER_05
 10
3973.293131386819
 20
1254.196581945025
 30
0.0
  0
VERTEX
  5
D2
  8
LAYER_05
 10
4003.160062784847
 20
1272.549674073148
 30
0.0
  0
VERTEX
  5
D3
  8
LAYER_05
 10
3974.812172158922
 20
1299.222462071178
 30
0.0
  0
VERTEX
  5
D4
  8
LAYER_05
 10
3925.439538982213
 20
1299.222462071178
 30
0.0
  0
SEQEND
  5
D5
  8
LAYER_05
  0
POLYLINE
  5
D6
  8
LAYER_05
 66
     1
 10
0.0
 20
0.0
 30
0.0
 70
     1
  0
VERTEX
  5
D7
  8
LAYER_05
 10
4137.578730545193
 20
1192.529086987634
 30
0.0
  0
VERTEX
  5
D8
  8
LAYER_05
 10
4167.44566194322
 20
1210.882179115757
 30
0.0
  0
VERTEX
  5
D9
  8
LAYER_05
 10
4099.751739000004
 20
1274.57600661233
 30
0.0
  0
VERTEX
  5
DA
  8
LAYER_05
 10
4225.951506325975
 20
1274.576006612331
 30
0.0
  0
VERTEX
  5
DB
  8
LAYER_05
 10
4225.951506325975
 20
1299.222462071178
 30
0.0
  0
VERTEX
  5
DC
  8
LAYER_05
 10
4024.18480533563
 20
1299.222462071178
 30
0.0
  0
SEQEND
  5
DD
  8
LAYER_05
  0
POLYLINE
  5
DE
  8
LAYER_05
 66
     1
 10
0.0
 20
0.0
 30
0.0
 70
     1
  0
VERTEX
  5
DF
  8
LAYER_05
 10
4220.107424486533
 20
1068.421929199287
 30
0.0
  0
VERTEX
  5
E0
  8
LAYER_05
 10
4133.242428524563
 20
1150.153993581686
 30
0.0
  0
VERTEX
  5
E1
  8
LAYER_05
 10
4103.375497126536
 20
1131.800901453563
 30
0.0
  0
VERTEX
  5
E2
  8
LAYER_05
 10
4170.734791309824
 20
1068.421929199287
 30
0.0
  0
SEQEND
  5
E3
  8
LAYER_05
  0
POLYLINE
  5
E4
  8
LAYER_05
 66
     1
 10
0.0
 20
0.0
 30
0.0
 70
     1
  0
VERTEX
  5
E5
  8
LAYER_05
 10
3968.95682936619
 20
1211.821488539078
 30
0.0
  0
VERTEX
  5
E6
  8
LAYER_05
 10
3939.089897968163
 20
1193.468396410954
 30
0.0
  0
VERTEX
  5
E7
  8
LAYER_05
 10
4018.111004953085
 20
1119.116718475141
 30
0.0
  0
VERTEX
  5
E8
  8
LAYER_05
 10
4064.417445530408
 20
1147.571813466829
 30
0.0
  0
VERTEX
  5
E9
  8
LAYER_05
 10
4050.364745893824
 20
1160.794126306705
 30
0.0
  0
VERTEX
  5
EA
  8
LAYER_05
 10
4033.925236714528
 20
1150.692123443141
 30
0.0
  0
SEQEND
  5
EB
  8
LAYER_05
  0
POLYLINE
  5
EC
  8
LAYER_05
 66
     1
 10
0.0
 20
0.0
 30
0.0
 70
     1
  0
VERTEX
  5
ED
  8
LAYER_05
 10
4071.989524956408
 20
1068.421929199287
 30
0.0
  0
VERTEX
  5
EE
  8
LAYER_05
 10
4043.641634330483
 20
1095.094717197317
 30
0.0
  0
VERTEX
  5
EF
  8
LAYER_05
 10
4073.508565728509
 20
1113.44780932544
 30
0.0
  0
VERTEX
  5
F0
  8
LAYER_05
 10
4121.362158133116
 20
1068.421929199287
 30
0.0
  0
SEQEND
  5
F1
  8
LAYER_05
  0
POLYLINE
  5
F2
  8
LAYER_05
 66
     1
 10
0.0
 20
0.0
 30
0.0
 70
     1
  0
VERTEX
  5
F3
  8
LAYER_05
 10
3876.066905805505
 20
1299.222462071178
 30
0.0
  0
VERTEX
  5
F4
  8
LAYER_05
 10
3943.426199988793
 20
1235.843489816902
 30
0.0
  0
VERTEX
  5
F5
  8
LAYER_05
 10
3913.559268590766
 20
1217.490397688779
 30
0.0
  0
VERTEX
  5
F6
  8
LAYER_05
 10
3826.694272628796
 20
1299.222462071178
 30
0.0
  0
SEQEND
  5
F7
  8
LAYER_05
  0
POLYLINE
  5
F8
  8
LAYER_05
 66
     1
 10
0.0
 20
0.0
 30
0.0
 70
     1
  0
VERTEX
  5
F9
  8
LAYER_05
 10
4470.064366287423
 20
1216.952267827324
 30
0.0
  0
VERTEX
  5
FA
  8
LAYER_05
 10
4405.095958939085
 20
1155.822902731388
 30
0.0
  0
VERTEX
  5
FB
  8
LAYER_05
 10
4375.229027541058
 20
1174.175994859511
 30
0.0
  0
VERTEX
  5
FC
  8
LAYER_05
 10
4454.250134525979
 20
1248.527672795324
 30
0.0
  0
VERTEX
  5
FD
  8
LAYER_05
 10
4497.544488142737
 20
1221.923491402642
 30
0.0
  0
VERTEX
  5
FE
  8
LAYER_05
 10
4483.491788506154
 20
1208.701178562766
 30
0.0
  0
SEQEND
  5
FF
  8
LAYER_05
  0
POLYLINE
  5
100
  8
LAYER_05
 66
     1
 10
0.0
 20
0.0
 30
0.0
 70
     1
  0
VERTEX
  5
101
  8
LAYER_05
 10
4460.323934908525
 20
1068.421929199287
 30
0.0
  0
VERTEX
  5
102
  8
LAYER_05
 10
4573.717860118088
 20
1175.115304282831
 30
0.0
  0
VERTEX
  5
103
  8
LAYER_05
 10
4603.584791516115
 20
1156.762212154708
 30
0.0
  0
VERTEX
  5
104
  8
LAYER_05
 10
4535.890868572897
 20
1093.068384658135
 30
0.0
  0
VERTEX
  5
105
  8
LAYER_05
 10
4662.090635898869
 20
1093.068384658134
 30
0.0
  0
VERTEX
  5
106
  8
LAYER_05
 10
4662.090635898869
 20
1068.421929199287
 30
0.0
  0
SEQEND
  5
107
  8
LAYER_05
  0
POLYLINE
  5
108
  8
LAYER_05
 66
     1
 10
0.0
 20
0.0
 30
0.0
 70
     1
  0
VERTEX
  5
109
  8
LAYER_05
 10
4509.647695301404
 20
1254.196581945025
 30
0.0
  0
VERTEX
  5
10A
  8
LAYER_05
 10
4479.780763903376
 20
1272.549674073148
 30
0.0
  0
VERTEX
  5
10B
  8
LAYER_05
 10
4508.128654529302
 20
1299.222462071178
 30
0.0
  0
VERTEX
  5
10C
  8
LAYER_05
 10
4557.501287706011
 20
1299.222462071178
 30
0.0
  0
SEQEND
  5
10D
  8
LAYER_05
  0
POLYLINE
  5
10E
  8
LAYER_05
 66
     1
 10
0.0
 20
0.0
 30
0.0
 70
     1
  0
VERTEX
  5
10F
  8
LAYER_05
 10
4345.362096143031
 20
1192.529086987634
 30
0.0
  0
VERTEX
  5
110
  8
LAYER_05
 10
4315.495164745003
 20
1210.882179115757
 30
0.0
  0
VERTEX
  5
111
  8
LAYER_05
 10
4383.18908768822
 20
1274.57600661233
 30
0.0
  0
VERTEX
  5
112
  8
LAYER_05
 10
4256.989320362249
 20
1274.576006612331
 30
0.0
  0
VERTEX
  5
113
  8
LAYER_05
 10
4256.989320362249
 20
1299.222462071178
 30
0.0
  0
VERTEX
  5
114
  8
LAYER_05
 10
4458.756021352594
 20
1299.222462071178
 30
0.0
  0
SEQEND
  5
115
  8
LAYER_05
  0
POLYLINE
  5
116
  8
LAYER_05
 66
     1
 10
0.0
 20
0.0
 30
0.0
 70
     1
  0
VERTEX
  5
117
  8
LAYER_05
 10
4262.833402201691
 20
1068.421929199287
 30
0.0
  0
VERTEX
  5
118
  8
LAYER_05
 10
4349.69839816366
 20
1150.153993581686
 30
0.0
  0
VERTEX
  5
119
  8
LAYER_05
 10
4379.565329561688
 20
1131.800901453563
 30
0.0
  0
VERTEX
  5
11A
  8
LAYER_05
 10
4312.2060353784
 20
1068.421929199287
 30
0.0
  0
SEQEND
  5
11B
  8
LAYER_05
  0
POLYLINE
  5
11C
  8
LAYER_05
 66
     1
 10
0.0
 20
0.0
 30
0.0
 70
     1
  0
VERTEX
  5
11D
  8
LAYER_05
 10
4513.983997322033
 20
1211.821488539078
 30
0.0
  0
VERTEX
  5
11E
  8
LAYER_05
 10
4543.85092872006
 20
1193.468396410954
 30
0.0
  0
VERTEX
  5
11F
  8
LAYER_05
 10
4464.829821735138
 20
1119.116718475141
 30
0.0
  0
VERTEX
  5
120
  8
LAYER_05
 10
4418.523381157816
 20
1147.571813466829
 30
0.0
  0
VERTEX
  5
121
  8
LAYER_05
 10
4432.5760807944
 20
1160.794126306705
 30
0.0
  0
VERTEX
  5
122
  8
LAYER_05
 10
4449.015589973696
 20
1150.692123443141
 30
0.0
  0
SEQEND
  5
123
  8
LAYER_05
  0
POLYLINE
  5
124
  8
LAYER_05
 66
     1
 10
0.0
 20
0.0
 30
0.0
 70
     1
  0
VERTEX
  5
125
  8
LAYER_05
 10
4410.951301731816
 20
1068.421929199287
 30
0.0
  0
VERTEX
  5
126
  8
LAYER_05
 10
4439.299192357741
 20
1095.094717197317
 30
0.0
  0
VERTEX
  5
127
  8
LAYER_05
 10
4409.432260959715
 20
1113.44780932544
 30
0.0
  0
VERTEX
  5
128
  8
LAYER_05
 10
4361.578668555107
 20
1068.421929199287
 30
0.0
  0
SEQEND
  5
129
  8
LAYER_05
  0
POLYLINE
  5
12A
  8
LAYER_05
 66
     1
 10
0.0
 20
0.0
 30
0.0
 70
     1
  0
VERTEX
  5
12B
  8
LAYER_05
 10
4606.873920882719
 20
1299.222462071178
 30
0.0
  0
VERTEX
  5
12C
  8
LAYER_05
 10
4539.514626699431
 20
1235.843489816902
 30
0.0
  0
VERTEX
  5
12D
  8
LAYER_05
 10
4569.381558097458
 20
1217.490397688779
 30
0.0
  0
VERTEX
  5
12E
  8
LAYER_05
 10
4656.246554059428
 20
1299.222462071178
 30
0.0
  0
SEQEND
  5
12F
  8
LAYER_05
  0
POLYLINE
  5
130
  8
LAYER_05
 66
     1
 10
0.0
 20
0.0
 30
0.0
 70
     1
  0
VERTEX
  5
131
  8
LAYER_05
 10
3369.192154198309
 20
1094.776458172287
 30
0.0
  0
VERTEX
  5
132
  8
LAYER_05
 10
3290.831100776787
 20
1168.50708570981
 30
0.0
  0
VERTEX
  5
133
  8
LAYER_05
 10
3320.698032174815
 20
1186.860177837933
 30
0.0
  0
VERTEX
  5
134
  8
LAYER_05
 10
3369.192154198309
 20
1141.231617570372
 30
0.0
  0
VERTEX
  5
135
  8
LAYER_05
 10
3417.686276221803
 20
1186.860177837933
 30
0.0
  0
VERTEX
  5
136
  8
LAYER_05
 10
3447.55320761983
 20
1168.50708570981
 30
0.0
  0
SEQEND
  5
137
  8
LAYER_05
  0
POLYLINE
  5
138
  8
LAYER_05
 66
     1
 10
0.0
 20
0.0
 30
0.0
 70
     1
  0
VERTEX
  5
139
  8
LAYER_05
 10
3369.192154198309
 20
1187.686776968457
 30
0.0
  0
VERTEX
  5
13A
  8
LAYER_05
 10
3312.804062179813
 20
1240.742845367679
 30
0.0
  0
VERTEX
  5
13B
  8
LAYER_05
 10
3425.580246216804
 20
1240.742845367679
 30
0.0
  0
SEQEND
  5
13C
  8
LAYER_05
  0
POLYLINE
  5
13D
  8
LAYER_05
 66
     1
 10
0.0
 20
0.0
 30
0.0
 70
     1
  0
VERTEX
  5
13E
  8
LAYER_05
 10
3140.598201254998
 20
1216.952267827324
 30
0.0
  0
VERTEX
  5
13F
  8
LAYER_05
 10
3205.566608603336
 20
1155.822902731388
 30
0.0
  0
VERTEX
  5
140
  8
LAYER_05
 10
3235.433540001363
 20
1174.175994859511
 30
0.0
  0
VERTEX
  5
141
  8
LAYER_05
 10
3156.412433016441
 20
1248.527672795324
 30
0.0
  0
VERTEX
  5
142
  8
LAYER_05
 10
3113.118079399683
 20
1221.923491402642
 30
0.0
  0
VERTEX
  5
143
  8
LAYER_05
 10
3127.170779036267
 20
1208.701178562766
 30
0.0
  0
SEQEND
  5
144
  8
LAYER_05
  0
POLYLINE
  5
145
  8
LAYER_05
 66
     1
 10
0.0
 20
0.0
 30
0.0
 70
     1
  0
VERTEX
  5
146
  8
LAYER_05
 10
3150.338632633896
 20
1068.421929199287
 30
0.0
  0
VERTEX
  5
147
  8
LAYER_05
 10
3036.944707424333
 20
1175.115304282831
 30
0.0
  0
VERTEX
  5
148
  8
LAYER_05
 10
3007.077776026306
 20
1156.762212154708
 30
0.0
  0
VERTEX
  5
149
  8
LAYER_05
 10
3074.771698969523
 20
1093.068384658135
 30
0.0
  0
VERTEX
  5
14A
  8
LAYER_05
 10
2948.571931643552
 20
1093.068384658134
 30
0.0
  0
VERTEX
  5
14B
  8
LAYER_05
 10
2948.571931643552
 20
1068.421929199287
 30
0.0
  0
SEQEND
  5
14C
  8
LAYER_05
  0
POLYLINE
  5
14D
  8
LAYER_05
 66
     1
 10
0.0
 20
0.0
 30
0.0
 70
     1
  0
VERTEX
  5
14E
  8
LAYER_05
 10
3101.014872241017
 20
1254.196581945025
 30
0.0
  0
VERTEX
  5
14F
  8
LAYER_05
 10
3130.881803639044
 20
1272.549674073148
 30
0.0
  0
VERTEX
  5
150
  8
LAYER_05
 10
3102.533913013119
 20
1299.222462071178
 30
0.0
  0
VERTEX
  5
151
  8
LAYER_05
 10
3053.16127983641
 20
1299.222462071178
 30
0.0
  0
SEQEND
  5
152
  8
LAYER_05
  0
POLYLINE
  5
153
  8
LAYER_05
 66
     1
 10
0.0
 20
0.0
 30
0.0
 70
     1
  0
VERTEX
  5
154
  8
LAYER_05
 10
3265.30047139939
 20
1192.529086987634
 30
0.0
  0
VERTEX
  5
155
  8
LAYER_05
 10
3295.167402797417
 20
1210.882179115757
 30
0.0
  0
VERTEX
  5
156
  8
LAYER_05
 10
3227.473479854201
 20
1274.57600661233
 30
0.0
  0
VERTEX
  5
157
  8
LAYER_05
 10
3353.673247180172
 20
1274.576006612331
 30
0.0
  0
VERTEX
  5
158
  8
LAYER_05
 10
3353.673247180172
 20
1299.222462071178
 30
0.0
  0
VERTEX
  5
159
  8
LAYER_05
 10
3151.906546189827
 20
1299.222462071178
 30
0.0
  0
SEQEND
  5
15A
  8
LAYER_05
  0
POLYLINE
  5
15B
  8
LAYER_05
 66
     1
 10
0.0
 20
0.0
 30
0.0
 70
     1
  0
VERTEX
  5
15C
  8
LAYER_05
 10
3347.82916534073
 20
1068.421929199287
 30
0.0
  0
VERTEX
  5
15D
  8
LAYER_05
 10
3260.96416937876
 20
1150.153993581686
 30
0.0
  0
VERTEX
  5
15E
  8
LAYER_05
 10
3231.097237980733
 20
1131.800901453563
 30
0.0
  0
VERTEX
  5
15F
  8
LAYER_05
 10
3298.456532164021
 20
1068.421929199287
 30
0.0
  0
SEQEND
  5
160
  8
LAYER_05
  0
POLYLINE
  5
161
  8
LAYER_05
 66
     1
 10
0.0
 20
0.0
 30
0.0
 70
     1
  0
VERTEX
  5
162
  8
LAYER_05
 10
3096.678570220387
 20
1211.821488539078
 30
0.0
  0
VERTEX
  5
163
  8
LAYER_05
 10
3066.811638822361
 20
1193.468396410954
 30
0.0
  0
VERTEX
  5
164
  8
LAYER_05
 10
3145.832745807282
 20
1119.116718475141
 30
0.0
  0
VERTEX
  5
165
  8
LAYER_05
 10
3192.139186384605
 20
1147.571813466829
 30
0.0
  0
VERTEX
  5
166
  8
LAYER_05
 10
3178.086486748021
 20
1160.794126306705
 30
0.0
  0
VERTEX
  5
167
  8
LAYER_05
 10
3161.646977568725
 20
1150.692123443141
 30
0.0
  0
SEQEND
  5
168
  8
LAYER_05
  0
POLYLINE
  5
169
  8
LAYER_05
 66
     1
 10
0.0
 20
0.0
 30
0.0
 70
     1
  0
VERTEX
  5
16A
  8
LAYER_05
 10
3199.711265810604
 20
1068.421929199287
 30
0.0
  0
VERTEX
  5
16B
  8
LAYER_05
 10
3171.363375184679
 20
1095.094717197317
 30
0.0
  0
VERTEX
  5
16C
  8
LAYER_05
 10
3201.230306582706
 20
1113.44780932544
 30
0.0
  0
VERTEX
  5
16D
  8
LAYER_05
 10
3249.083898987313
 20
1068.421929199287
 30
0.0
  0
SEQEND
  5
16E
  8
LAYER_05
  0
POLYLINE
  5
16F
  8
LAYER_05
 66
     1
 10
0.0
 20
0.0
 30
0.0
 70
     1
  0
VERTEX
  5
170
  8
LAYER_05
 10
3003.788646659701
 20
1299.222462071178
 30
0.0
  0
VERTEX
  5
171
  8
LAYER_05
 10
3071.14794084299
 20
1235.843489816902
 30
0.0
  0
VERTEX
  5
172
  8
LAYER_05
 10
3041.281009444963
 20
1217.490397688779
 30
0.0
  0
VERTEX
  5
173
  8
LAYER_05
 10
2954.416013482993
 20
1299.222462071178
 30
0.0
  0
SEQEND
  5
174
  8
LAYER_05
  0
POLYLINE
  5
175
  8
LAYER_05
 66
     1
 10
0.0
 20
0.0
 30
0.0
 70
     1
  0
VERTEX
  5
176
  8
LAYER_05
 10
3597.78610714162
 20
1216.952267827324
 30
0.0
  0
VERTEX
  5
177
  8
LAYER_05
 10
3532.817699793282
 20
1155.822902731388
 30
0.0
  0
VERTEX
  5
178
  8
LAYER_05
 10
3502.950768395255
 20
1174.175994859511
 30
0.0
  0
VERTEX
  5
179
  8
LAYER_05
 10
3581.971875380176
 20
1248.527672795324
 30
0.0
  0
VERTEX
  5
17A
  8
LAYER_05
 10
3625.266228996934
 20
1221.923491402642
 30
0.0
  0
VERTEX
  5
17B
  8
LAYER_05
 10
3611.213529360351
 20
1208.701178562766
 30
0.0
  0
SEQEND
  5
17C
  8
LAYER_05
  0
POLYLINE
  5
17D
  8
LAYER_05
 66
     1
 10
0.0
 20
0.0
 30
0.0
 70
     1
  0
VERTEX
  5
17E
  8
LAYER_05
 10
3588.045675762722
 20
1068.421929199287
 30
0.0
  0
VERTEX
  5
17F
  8
LAYER_05
 10
3701.439600972285
 20
1175.115304282831
 30
0.0
  0
VERTEX
  5
180
  8
LAYER_05
 10
3731.306532370312
 20
1156.762212154708
 30
0.0
  0
VERTEX
  5
181
  8
LAYER_05
 10
3663.612609427094
 20
1093.068384658135
 30
0.0
  0
VERTEX
  5
182
  8
LAYER_05
 10
3789.812376753065
 20
1093.068384658134
 30
0.0
  0
VERTEX
  5
183
  8
LAYER_05
 10
3789.812376753066
 20
1068.421929199287
 30
0.0
  0
SEQEND
  5
184
  8
LAYER_05
  0
POLYLINE
  5
185
  8
LAYER_05
 66
     1
 10
0.0
 20
0.0
 30
0.0
 70
     1
  0
VERTEX
  5
186
  8
LAYER_05
 10
3637.369436155601
 20
1254.196581945025
 30
0.0
  0
VERTEX
  5
187
  8
LAYER_05
 10
3607.502504757574
 20
1272.549674073148
 30
0.0
  0
VERTEX
  5
188
  8
LAYER_05
 10
3635.850395383499
 20
1299.222462071178
 30
0.0
  0
VERTEX
  5
189
  8
LAYER_05
 10
3685.223028560207
 20
1299.222462071178
 30
0.0
  0
SEQEND
  5
18A
  8
LAYER_05
  0
POLYLINE
  5
18B
  8
LAYER_05
 66
     1
 10
0.0
 20
0.0
 30
0.0
 70
     1
  0
VERTEX
  5
18C
  8
LAYER_05
 10
3473.083836997228
 20
1192.529086987634
 30
0.0
  0
VERTEX
  5
18D
  8
LAYER_05
 10
3443.2169055992
 20
1210.882179115757
 30
0.0
  0
VERTEX
  5
18E
  8
LAYER_05
 10
3510.910828542417
 20
1274.57600661233
 30
0.0
  0
VERTEX
  5
18F
  8
LAYER_05
 10
3384.711061216446
 20
1274.576006612331
 30
0.0
  0
VERTEX
  5
190
  8
LAYER_05
 10
3384.711061216446
 20
1299.222462071178
 30
0.0
  0
VERTEX
  5
191
  8
LAYER_05
 10
3586.47776220679
 20
1299.222462071178
 30
0.0
  0
SEQEND
  5
192
  8
LAYER_05
  0
POLYLINE
  5
193
  8
LAYER_05
 66
     1
 10
0.0
 20
0.0
 30
0.0
 70
     1
  0
VERTEX
  5
194
  8
LAYER_05
 10
3390.555143055888
 20
1068.421929199287
 30
0.0
  0
VERTEX
  5
195
  8
LAYER_05
 10
3477.420139017857
 20
1150.153993581686
 30
0.0
  0
VERTEX
  5
196
  8
LAYER_05
 10
3507.287070415885
 20
1131.800901453563
 30
0.0
  0
VERTEX
  5
197
  8
LAYER_05
 10
3439.927776232596
 20
1068.421929199287
 30
0.0
  0
SEQEND
  5
198
  8
LAYER_05
  0
POLYLINE
  5
199
  8
LAYER_05
 66
     1
 10
0.0
 20
0.0
 30
0.0
 70
     1
  0
VERTEX
  5
19A
  8
LAYER_05
 10
3641.705738176231
 20
1211.821488539078
 30
0.0
  0
VERTEX
  5
19B
  8
LAYER_05
 10
3671.572669574257
 20
1193.468396410954
 30
0.0
  0
VERTEX
  5
19C
  8
LAYER_05
 10
3592.551562589336
 20
1119.116718475141
 30
0.0
  0
VERTEX
  5
19D
  8
LAYER_05
 10
3546.245122012013
 20
1147.571813466829
 30
0.0
  0
VERTEX
  5
19E
  8
LAYER_05
 10
3560.297821648596
 20
1160.794126306705
 30
0.0
  0
VERTEX
  5
19F
  8
LAYER_05
 10
3576.737330827892
 20
1150.692123443141
 30
0.0
  0
SEQEND
  5
1A0
  8
LAYER_05
  0
POLYLINE
  5
1A1
  8
LAYER_05
 66
     1
 10
0.0
 20
0.0
 30
0.0
 70
     1
  0
VERTEX
  5
1A2
  8
LAYER_05
 10
3538.673042586013
 20
1068.421929199287
 30
0.0
  0
VERTEX
  5
1A3
  8
LAYER_05
 10
3567.020933211938
 20
1095.094717197317
 30
0.0
  0
VERTEX
  5
1A4
  8
LAYER_05
 10
3537.154001813911
 20
1113.44780932544
 30
0.0
  0
VERTEX
  5
1A5
  8
LAYER_05
 10
3489.300409409304
 20
1068.421929199287
 30
0.0
  0
SEQEND
  5
1A6
  8
LAYER_05
  0
POLYLINE
  5
1A7
  8
LAYER_05
 66
     1
 10
0.0
 20
0.0
 30
0.0
 70
     1
  0
VERTEX
  5
1A8
  8
LAYER_05
 10
3734.595661736916
 20
1299.222462071178
 30
0.0
  0
VERTEX
  5
1A9
  8
LAYER_05
 10
3667.236367553628
 20
1235.843489816902
 30
0.0
  0
VERTEX
  5
1AA
  8
LAYER_05
 10
3697.103298951655
 20
1217.490397688779
 30
0.0
  0
VERTEX
  5
1AB
  8
LAYER_05
 10
3783.968294913625
 20
1299.222462071178
 30
0.0
  0
SEQEND
  5
1AC
  8
LAYER_05
  0
POLYLINE
  5
1AD
  8
LAYER_05
 66
     1
 10
0.0
 20
0.0
 30
0.0
 70
     1
  0
VERTEX
  5
1AE
  8
LAYER_05
 10
2496.913895052506
 20
1094.776458172287
 30
0.0
  0
VERTEX
  5
1AF
  8
LAYER_05
 10
2418.552841630984
 20
1168.50708570981
 30
0.0
  0
VERTEX
  5
1B0
  8
LAYER_05
 10
2448.419773029012
 20
1186.860177837933
 30
0.0
  0
VERTEX
  5
1B1
  8
LAYER_05
 10
2496.913895052506
 20
1141.231617570372
 30
0.0
  0
VERTEX
  5
1B2
  8
LAYER_05
 10
2545.408017076
 20
1186.860177837933
 30
0.0
  0
VERTEX
  5
1B3
  8
LAYER_05
 10
2575.274948474027
 20
1168.50708570981
 30
0.0
  0
SEQEND
  5
1B4
  8
LAYER_05
  0
POLYLINE
  5
1B5
  8
LAYER_05
 66
     1
 10
0.0
 20
0.0
 30
0.0
 70
     1
  0
VERTEX
  5
1B6
  8
LAYER_05
 10
2496.913895052506
 20
1187.686776968457
 30
0.0
  0
VERTEX
  5
1B7
  8
LAYER_05
 10
2440.52580303401
 20
1240.742845367679
 30
0.0
  0
VERTEX
  5
1B8
  8
LAYER_05
 10
2553.301987071001
 20
1240.742845367679
 30
0.0
  0
SEQEND
  5
1B9
  8
LAYER_05
  0
POLYLINE
  5
1BA
  8
LAYER_05
 66
     1
 10
0.0
 20
0.0
 30
0.0
 70
     1
  0
VERTEX
  5
1BB
  8
LAYER_05
 10
2268.319942109195
 20
1216.952267827324
 30
0.0
  0
VERTEX
  5
1BC
  8
LAYER_05
 10
2333.288349457533
 20
1155.822902731388
 30
0.0
  0
VERTEX
  5
1BD
  8
LAYER_05
 10
2363.15528085556
 20
1174.175994859511
 30
0.0
  0
VERTEX
  5
1BE
  8
LAYER_05
 10
2284.134173870638
 20
1248.527672795324
 30
0.0
  0
VERTEX
  5
1BF
  8
LAYER_05
 10
2240.83982025388
 20
1221.923491402642
 30
0.0
  0
VERTEX
  5
1C0
  8
LAYER_05
 10
2254.892519890464
 20
1208.701178562766
 30
0.0
  0
SEQEND
  5
1C1
  8
LAYER_05
  0
POLYLINE
  5
1C2
  8
LAYER_05
 66
     1
 10
0.0
 20
0.0
 30
0.0
 70
     1
  0
VERTEX
  5
1C3
  8
LAYER_05
 10
2278.060373488093
 20
1068.421929199287
 30
0.0
  0
VERTEX
  5
1C4
  8
LAYER_05
 10
2164.66644827853
 20
1175.115304282831
 30
0.0
  0
VERTEX
  5
1C5
  8
LAYER_05
 10
2134.799516880503
 20
1156.762212154708
 30
0.0
  0
VERTEX
  5
1C6
  8
LAYER_05
 10
2202.49343982372
 20
1093.068384658135
 30
0.0
  0
VERTEX
  5
1C7
  8
LAYER_05
 10
2076.293672497749
 20
1093.068384658134
 30
0.0
  0
VERTEX
  5
1C8
  8
LAYER_05
 10
2076.293672497749
 20
1068.421929199287
 30
0.0
  0
SEQEND
  5
1C9
  8
LAYER_05
  0
POLYLINE
  5
1CA
  8
LAYER_05
 66
     1
 10
0.0
 20
0.0
 30
0.0
 70
     1
  0
VERTEX
  5
1CB
  8
LAYER_05
 10
2228.736613095213
 20
1254.196581945025
 30
0.0
  0
VERTEX
  5
1CC
  8
LAYER_05
 10
2258.603544493241
 20
1272.549674073148
 30
0.0
  0
VERTEX
  5
1CD
  8
LAYER_05
 10
2230.255653867316
 20
1299.222462071178
 30
0.0
  0
VERTEX
  5
1CE
  8
LAYER_05
 10
2180.883020690607
 20
1299.222462071178
 30
0.0
  0
SEQEND
  5
1CF
  8
LAYER_05
  0
POLYLINE
  5
1D0
  8
LAYER_05
 66
     1
 10
0.0
 20
0.0
 30
0.0
 70
     1
  0
VERTEX
  5
1D1
  8
LAYER_05
 10
2393.022212253587
 20
1192.529086987634
 30
0.0
  0
VERTEX
  5
1D2
  8
LAYER_05
 10
2422.889143651614
 20
1210.882179115757
 30
0.0
  0
VERTEX
  5
1D3
  8
LAYER_05
 10
2355.195220708398
 20
1274.57600661233
 30
0.0
  0
VERTEX
  5
1D4
  8
LAYER_05
 10
2481.394988034368
 20
1274.576006612331
 30
0.0
  0
VERTEX
  5
1D5
  8
LAYER_05
 10
2481.394988034368
 20
1299.222462071178
 30
0.0
  0
VERTEX
  5
1D6
  8
LAYER_05
 10
2279.628287044024
 20
1299.222462071178
 30
0.0
  0
SEQEND
  5
1D7
  8
LAYER_05
  0
POLYLINE
  5
1D8
  8
LAYER_05
 66
     1
 10
0.0
 20
0.0
 30
0.0
 70
     1
  0
VERTEX
  5
1D9
  8
LAYER_05
 10
2475.550906194927
 20
1068.421929199287
 30
0.0
  0
VERTEX
  5
1DA
  8
LAYER_05
 10
2388.685910232957
 20
1150.153993581686
 30
0.0
  0
VERTEX
  5
1DB
  8
LAYER_05
 10
2358.81897883493
 20
1131.800901453563
 30
0.0
  0
VERTEX
  5
1DC
  8
LAYER_05
 10
2426.178273018218
 20
1068.421929199287
 30
0.0
  0
SEQEND
  5
1DD
  8
LAYER_05
  0
POLYLINE
  5
1DE
  8
LAYER_05
 66
     1
 10
0.0
 20
0.0
 30
0.0
 70
     1
  0
VERTEX
  5
1DF
  8
LAYER_05
 10
2224.400311074584
 20
1211.821488539078
 30
0.0
  0
VERTEX
  5
1E0
  8
LAYER_05
 10
2194.533379676557
 20
1193.468396410954
 30
0.0
  0
VERTEX
  5
1E1
  8
LAYER_05
 10
2273.554486661479
 20
1119.116718475141
 30
0.0
  0
VERTEX
  5
1E2
  8
LAYER_05
 10
2319.860927238802
 20
1147.571813466829
 30
0.0
  0
VERTEX
  5
1E3
  8
LAYER_05
 10
2305.808227602218
 20
1160.794126306705
 30
0.0
  0
VERTEX
  5
1E4
  8
LAYER_05
 10
2289.368718422922
 20
1150.692123443141
 30
0.0
  0
SEQEND
  5
1E5
  8
LAYER_05
  0
POLYLINE
  5
1E6
  8
LAYER_05
 66
     1
 10
0.0
 20
0.0
 30
0.0
 70
     1
  0
VERTEX
  5
1E7
  8
LAYER_05
 10
2327.433006664802
 20
1068.421929199287
 30
0.0
  0
VERTEX
  5
1E8
  8
LAYER_05
 10
2299.085116038877
 20
1095.094717197317
 30
0.0
  0
VERTEX
  5
1E9
  8
LAYER_05
 10
2328.952047436903
 20
1113.44780932544
 30
0.0
  0
VERTEX
  5
1EA
  8
LAYER_05
 10
2376.80563984151
 20
1068.421929199287
 30
0.0
  0
SEQEND
  5
1EB
  8
LAYER_05
  0
POLYLINE
  5
1EC
  8
LAYER_05
 66
     1
 10
0.0
 20
0.0
 30
0.0
 70
     1
  0
VERTEX
  5
1ED
  8
LAYER_05
 10
2131.510387513898
 20
1299.222462071178
 30
0.0
  0
VERTEX
  5
1EE
  8
LAYER_05
 10
2198.869681697187
 20
1235.843489816902
 30
0.0
  0
VERTEX
  5
1EF
  8
LAYER_05
 10
2169.00275029916
 20
1217.490397688779
 30
0.0
  0
VERTEX
  5
1F0
  8
LAYER_05
 10
2082.13775433719
 20
1299.222462071178
 30
0.0
  0
SEQEND
  5
1F1
  8
LAYER_05
  0
POLYLINE
  5
1F2
  8
LAYER_05
 66
     1
 10
0.0
 20
0.0
 30
0.0
 70
     1
  0
VERTEX
  5
1F3
  8
LAYER_05
 10
2725.507847995817
 20
1216.952267827324
 30
0.0
  0
VERTEX
  5
1F4
  8
LAYER_05
 10
2660.539440647479
 20
1155.822902731388
 30
0.0
  0
VERTEX
  5
1F5
  8
LAYER_05
 10
2630.672509249452
 20
1174.175994859511
 30
0.0
  0
VERTEX
  5
1F6
  8
LAYER_05
 10
2709.693616234373
 20
1248.527672795324
 30
0.0
  0
VERTEX
  5
1F7
  8
LAYER_05
 10
2752.987969851131
 20
1221.923491402642
 30
0.0
  0
VERTEX
  5
1F8
  8
LAYER_05
 10
2738.935270214548
 20
1208.701178562766
 30
0.0
  0
SEQEND
  5
1F9
  8
LAYER_05
  0
POLYLINE
  5
1FA
  8
LAYER_05
 66
     1
 10
0.0
 20
0.0
 30
0.0
 70
     1
  0
VERTEX
  5
1FB
  8
LAYER_05
 10
2715.767416616919
 20
1068.421929199287
 30
0.0
  0
VERTEX
  5
1FC
  8
LAYER_05
 10
2829.161341826481
 20
1175.115304282831
 30
0.0
  0
VERTEX
  5
1FD
  8
LAYER_05
 10
2859.028273224509
 20
1156.762212154708
 30
0.0
  0
VERTEX
  5
1FE
  8
LAYER_05
 10
2791.334350281291
 20
1093.068384658135
 30
0.0
  0
VERTEX
  5
1FF
  8
LAYER_05
 10
2917.534117607262
 20
1093.068384658134
 30
0.0
  0
VERTEX
  5
200
  8
LAYER_05
 10
2917.534117607262
 20
1068.421929199287
 30
0.0
  0
SEQEND
  5
201
  8
LAYER_05
  0
POLYLINE
  5
202
  8
LAYER_05
 66
     1
 10
0.0
 20
0.0
 30
0.0
 70
     1
  0
VERTEX
  5
203
  8
LAYER_05
 10
2765.091177009798
 20
1254.196581945025
 30
0.0
  0
VERTEX
  5
204
  8
LAYER_05
 10
2735.224245611771
 20
1272.549674073148
 30
0.0
  0
VERTEX
  5
205
  8
LAYER_05
 10
2763.572136237696
 20
1299.222462071178
 30
0.0
  0
VERTEX
  5
206
  8
LAYER_05
 10
2812.944769414405
 20
1299.222462071178
 30
0.0
  0
SEQEND
  5
207
  8
LAYER_05
  0
POLYLINE
  5
208
  8
LAYER_05
 66
     1
 10
0.0
 20
0.0
 30
0.0
 70
     1
  0
VERTEX
  5
209
  8
LAYER_05
 10
2600.805577851424
 20
1192.529086987634
 30
0.0
  0
VERTEX
  5
20A
  8
LAYER_05
 10
2570.938646453397
 20
1210.882179115757
 30
0.0
  0
VERTEX
  5
20B
  8
LAYER_05
 10
2638.632569396614
 20
1274.57600661233
 30
0.0
  0
VERTEX
  5
20C
  8
LAYER_05
 10
2512.432802070643
 20
1274.576006612331
 30
0.0
  0
VERTEX
  5
20D
  8
LAYER_05
 10
2512.432802070643
 20
1299.222462071178
 30
0.0
  0
VERTEX
  5
20E
  8
LAYER_05
 10
2714.199503060987
 20
1299.222462071178
 30
0.0
  0
SEQEND
  5
20F
  8
LAYER_05
  0
POLYLINE
  5
210
  8
LAYER_05
 66
     1
 10
0.0
 20
0.0
 30
0.0
 70
     1
  0
VERTEX
  5
211
  8
LAYER_05
 10
2518.276883910085
 20
1068.421929199287
 30
0.0
  0
VERTEX
  5
212
  8
LAYER_05
 10
2605.141879872054
 20
1150.153993581686
 30
0.0
  0
VERTEX
  5
213
  8
LAYER_05
 10
2635.008811270081
 20
1131.800901453563
 30
0.0
  0
VERTEX
  5
214
  8
LAYER_05
 10
2567.649517086793
 20
1068.421929199287
 30
0.0
  0
SEQEND
  5
215
  8
LAYER_05
  0
POLYLINE
  5
216
  8
LAYER_05
 66
     1
 10
0.0
 20
0.0
 30
0.0
 70
     1
  0
VERTEX
  5
217
  8
LAYER_05
 10
2769.427479030428
 20
1211.821488539078
 30
0.0
  0
VERTEX
  5
218
  8
LAYER_05
 10
2799.294410428454
 20
1193.468396410954
 30
0.0
  0
VERTEX
  5
219
  8
LAYER_05
 10
2720.273303443533
 20
1119.116718475141
 30
0.0
  0
VERTEX
  5
21A
  8
LAYER_05
 10
2673.96686286621
 20
1147.571813466829
 30
0.0
  0
VERTEX
  5
21B
  8
LAYER_05
 10
2688.019562502794
 20
1160.794126306705
 30
0.0
  0
VERTEX
  5
21C
  8
LAYER_05
 10
2704.459071682089
 20
1150.692123443141
 30
0.0
  0
SEQEND
  5
21D
  8
LAYER_05
  0
POLYLINE
  5
21E
  8
LAYER_05
 66
     1
 10
0.0
 20
0.0
 30
0.0
 70
     1
  0
VERTEX
  5
21F
  8
LAYER_05
 10
2666.39478344021
 20
1068.421929199287
 30
0.0
  0
VERTEX
  5
220
  8
LAYER_05
 10
2694.742674066135
 20
1095.094717197317
 30
0.0
  0
VERTEX
  5
221
  8
LAYER_05
 10
2664.875742668108
 20
1113.44780932544
 30
0.0
  0
VERTEX
  5
222
  8
LAYER_05
 10
2617.022150263501
 20
1068.421929199287
 30
0.0
  0
SEQEND
  5
223
  8
LAYER_05
  0
POLYLINE
  5
224
  8
LAYER_05
 66
     1
 10
0.0
 20
0.0
 30
0.0
 70
     1
  0
VERTEX
  5
225
  8
LAYER_05
 10
2862.317402591113
 20
1299.222462071178
 30
0.0
  0
VERTEX
  5
226
  8
LAYER_05
 10
2794.958108407825
 20
1235.843489816902
 30
0.0
  0
VERTEX
  5
227
  8
LAYER_05
 10
2824.825039805852
 20
1217.490397688779
 30
0.0
  0
VERTEX
  5
228
  8
LAYER_05
 10
2911.690035767821
 20
1299.222462071178
 30
0.0
  0
SEQEND
  5
229
  8
LAYER_05
  0
POLYLINE
  5
22A
  8
LAYER_05
 66
     1
 10
0.0
 20
0.0
 30
0.0
 70
     1
  0
VERTEX
  5
22B
  8
LAYER_05
 10
1624.635635906703
 20
1094.776458172287
 30
0.0
  0
VERTEX
  5
22C
  8
LAYER_05
 10
1546.274582485181
 20
1168.50708570981
 30
0.0
  0
VERTEX
  5
22D
  8
LAYER_05
 10
1576.141513883209
 20
1186.860177837933
 30
0.0
  0
VERTEX
  5
22E
  8
LAYER_05
 10
1624.635635906703
 20
1141.231617570372
 30
0.0
  0
VERTEX
  5
22F
  8
LAYER_05
 10
1673.129757930197
 20
1186.860177837933
 30
0.0
  0
VERTEX
  5
230
  8
LAYER_05
 10
1702.996689328224
 20
1168.50708570981
 30
0.0
  0
SEQEND
  5
231
  8
LAYER_05
  0
POLYLINE
  5
232
  8
LAYER_05
 66
     1
 10
0.0
 20
0.0
 30
0.0
 70
     1
  0
VERTEX
  5
233
  8
LAYER_05
 10
1624.635635906703
 20
1187.686776968457
 30
0.0
  0
VERTEX
  5
234
  8
LAYER_05
 10
1568.247543888207
 20
1240.742845367679
 30
0.0
  0
VERTEX
  5
235
  8
LAYER_05
 10
1681.023727925198
 20
1240.742845367679
 30
0.0
  0
SEQEND
  5
236
  8
LAYER_05
  0
POLYLINE
  5
237
  8
LAYER_05
 66
     1
 10
0.0
 20
0.0
 30
0.0
 70
     1
  0
VERTEX
  5
238
  8
LAYER_05
 10
1396.041682963392
 20
1216.952267827324
 30
0.0
  0
VERTEX
  5
239
  8
LAYER_05
 10
1461.01009031173
 20
1155.822902731388
 30
0.0
  0
VERTEX
  5
23A
  8
LAYER_05
 10
1490.877021709757
 20
1174.175994859511
 30
0.0
  0
VERTEX
  5
23B
  8
LAYER_05
 10
1411.855914724835
 20
1248.527672795324
 30
0.0
  0
VERTEX
  5
23C
  8
LAYER_05
 10
1368.561561108077
 20
1221.923491402642
 30
0.0
  0
VERTEX
  5
23D
  8
LAYER_05
 10
1382.61426074466
 20
1208.701178562766
 30
0.0
  0
SEQEND
  5
23E
  8
LAYER_05
  0
POLYLINE
  5
23F
  8
LAYER_05
 66
     1
 10
0.0
 20
0.0
 30
0.0
 70
     1
  0
VERTEX
  5
240
  8
LAYER_05
 10
1405.78211434229
 20
1068.421929199287
 30
0.0
  0
VERTEX
  5
241
  8
LAYER_05
 10
1292.388189132727
 20
1175.115304282831
 30
0.0
  0
VERTEX
  5
242
  8
LAYER_05
 10
1262.5212577347
 20
1156.762212154708
 30
0.0
  0
VERTEX
  5
243
  8
LAYER_05
 10
1330.215180677917
 20
1093.068384658135
 30
0.0
  0
VERTEX
  5
244
  8
LAYER_05
 10
1204.015413351946
 20
1093.068384658134
 30
0.0
  0
VERTEX
  5
245
  8
LAYER_05
 10
1204.015413351946
 20
1068.421929199287
 30
0.0
  0
SEQEND
  5
246
  8
LAYER_05
  0
POLYLINE
  5
247
  8
LAYER_05
 66
     1
 10
0.0
 20
0.0
 30
0.0
 70
     1
  0
VERTEX
  5
248
  8
LAYER_05
 10
1356.45835394941
 20
1254.196581945025
 30
0.0
  0
VERTEX
  5
249
  8
LAYER_05
 10
1386.325285347438
 20
1272.549674073148
 30
0.0
  0
VERTEX
  5
24A
  8
LAYER_05
 10
1357.977394721513
 20
1299.222462071178
 30
0.0
  0
VERTEX
  5
24B
  8
LAYER_05
 10
1308.604761544804
 20
1299.222462071178
 30
0.0
  0
SEQEND
  5
24C
  8
LAYER_05
  0
POLYLINE
  5
24D
  8
LAYER_05
 66
     1
 10
0.0
 20
0.0
 30
0.0
 70
     1
  0
VERTEX
  5
24E
  8
LAYER_05
 10
1520.743953107784
 20
1192.529086987634
 30
0.0
  0
VERTEX
  5
24F
  8
LAYER_05
 10
1550.610884505811
 20
1210.882179115757
 30
0.0
  0
VERTEX
  5
250
  8
LAYER_05
 10
1482.916961562595
 20
1274.57600661233
 30
0.0
  0
VERTEX
  5
251
  8
LAYER_05
 10
1609.116728888565
 20
1274.576006612331
 30
0.0
  0
VERTEX
  5
252
  8
LAYER_05
 10
1609.116728888565
 20
1299.222462071178
 30
0.0
  0
VERTEX
  5
253
  8
LAYER_05
 10
1407.350027898221
 20
1299.222462071178
 30
0.0
  0
SEQEND
  5
254
  8
LAYER_05
  0
POLYLINE
  5
255
  8
LAYER_05
 66
     1
 10
0.0
 20
0.0
 30
0.0
 70
     1
  0
VERTEX
  5
256
  8
LAYER_05
 10
1603.272647049124
 20
1068.421929199287
 30
0.0
  0
VERTEX
  5
257
  8
LAYER_05
 10
1516.407651087154
 20
1150.153993581686
 30
0.0
  0
VERTEX
  5
258
  8
LAYER_05
 10
1486.540719689127
 20
1131.800901453563
 30
0.0
  0
VERTEX
  5
259
  8
LAYER_05
 10
1553.900013872415
 20
1068.421929199287
 30
0.0
  0
SEQEND
  5
25A
  8
LAYER_05
  0
POLYLINE
  5
25B
  8
LAYER_05
 66
     1
 10
0.0
 20
0.0
 30
0.0
 70
     1
  0
VERTEX
  5
25C
  8
LAYER_05
 10
1352.122051928781
 20
1211.821488539078
 30
0.0
  0
VERTEX
  5
25D
  8
LAYER_05
 10
1322.255120530754
 20
1193.468396410954
 30
0.0
  0
VERTEX
  5
25E
  8
LAYER_05
 10
1401.276227515676
 20
1119.116718475141
 30
0.0
  0
VERTEX
  5
25F
  8
LAYER_05
 10
1447.582668092999
 20
1147.571813466829
 30
0.0
  0
VERTEX
  5
260
  8
LAYER_05
 10
1433.529968456415
 20
1160.794126306705
 30
0.0
  0
VERTEX
  5
261
  8
LAYER_05
 10
1417.090459277119
 20
1150.692123443141
 30
0.0
  0
SEQEND
  5
262
  8
LAYER_05
  0
POLYLINE
  5
263
  8
LAYER_05
 66
     1
 10
0.0
 20
0.0
 30
0.0
 70
     1
  0
VERTEX
  5
264
  8
LAYER_05
 10
1455.154747518998
 20
1068.421929199287
 30
0.0
  0
VERTEX
  5
265
  8
LAYER_05
 10
1426.806856893073
 20
1095.094717197317
 30
0.0
  0
VERTEX
  5
266
  8
LAYER_05
 10
1456.6737882911
 20
1113.44780932544
 30
0.0
  0
VERTEX
  5
267
  8
LAYER_05
 10
1504.527380695707
 20
1068.421929199287
 30
0.0
  0
SEQEND
  5
268
  8
LAYER_05
  0
POLYLINE
  5
269
  8
LAYER_05
 66
     1
 10
0.0
 20
0.0
 30
0.0
 70
     1
  0
VERTEX
  5
26A
  8
LAYER_05
 10
1259.232128368095
 20
1299.222462071178
 30
0.0
  0
VERTEX
  5
26B
  8
LAYER_05
 10
1326.591422551384
 20
1235.843489816902
 30
0.0
  0
VERTEX
  5
26C
  8
LAYER_05
 10
1296.724491153357
 20
1217.490397688779
 30
0.0
  0
VERTEX
  5
26D
  8
LAYER_05
 10
1209.859495191387
 20
1299.222462071178
 30
0.0
  0
SEQEND
  5
26E
  8
LAYER_05
  0
POLYLINE
  5
26F
  8
LAYER_05
 66
     1
 10
0.0
 20
0.0
 30
0.0
 70
     1
  0
VERTEX
  5
270
  8
LAYER_05
 10
1853.229588850013
 20
1216.952267827324
 30
0.0
  0
VERTEX
  5
271
  8
LAYER_05
 10
1788.261181501676
 20
1155.822902731388
 30
0.0
  0
VERTEX
  5
272
  8
LAYER_05
 10
1758.394250103649
 20
1174.175994859511
 30
0.0
  0
VERTEX
  5
273
  8
LAYER_05
 10
1837.41535708857
 20
1248.527672795324
 30
0.0
  0
VERTEX
  5
274
  8
LAYER_05
 10
1880.709710705328
 20
1221.923491402642
 30
0.0
  0
VERTEX
  5
275
  8
LAYER_05
 10
1866.657011068745
 20
1208.701178562766
 30
0.0
  0
SEQEND
  5
276
  8
LAYER_05
  0
POLYLINE
  5
277
  8
LAYER_05
 66
     1
 10
0.0
 20
0.0
 30
0.0
 70
     1
  0
VERTEX
  5
278
  8
LAYER_05
 10
1843.489157471116
 20
1068.421929199287
 30
0.0
  0
VERTEX
  5
279
  8
LAYER_05
 10
1956.883082680678
 20
1175.115304282831
 30
0.0
  0
VERTEX
  5
27A
  8
LAYER_05
 10
1986.750014078706
 20
1156.762212154708
 30
0.0
  0
VERTEX
  5
27B
  8
LAYER_05
 10
1919.056091135488
 20
1093.068384658135
 30
0.0
  0
VERTEX
  5
27C
  8
LAYER_05
 10
2045.255858461459
 20
1093.068384658134
 30
0.0
  0
VERTEX
  5
27D
  8
LAYER_05
 10
2045.255858461459
 20
1068.421929199287
 30
0.0
  0
SEQEND
  5
27E
  8
LAYER_05
  0
POLYLINE
  5
27F
  8
LAYER_05
 66
     1
 10
0.0
 20
0.0
 30
0.0
 70
     1
  0
VERTEX
  5
280
  8
LAYER_05
 10
1892.812917863995
 20
1254.196581945025
 30
0.0
  0
VERTEX
  5
281
  8
LAYER_05
 10
1862.945986465968
 20
1272.549674073148
 30
0.0
  0
VERTEX
  5
282
  8
LAYER_05
 10
1891.293877091893
 20
1299.222462071178
 30
0.0
  0
VERTEX
  5
283
  8
LAYER_05
 10
1940.666510268601
 20
1299.222462071178
 30
0.0
  0
SEQEND
  5
284
  8
LAYER_05
  0
POLYLINE
  5
285
  8
LAYER_05
 66
     1
 10
0.0
 20
0.0
 30
0.0
 70
     1
  0
VERTEX
  5
286
  8
LAYER_05
 10
1728.527318705621
 20
1192.529086987634
 30
0.0
  0
VERTEX
  5
287
  8
LAYER_05
 10
1698.660387307594
 20
1210.882179115757
 30
0.0
  0
VERTEX
  5
288
  8
LAYER_05
 10
1766.354310250811
 20
1274.57600661233
 30
0.0
  0
VERTEX
  5
289
  8
LAYER_05
 10
1640.15454292484
 20
1274.576006612331
 30
0.0
  0
VERTEX
  5
28A
  8
LAYER_05
 10
1640.15454292484
 20
1299.222462071178
 30
0.0
  0
VERTEX
  5
28B
  8
LAYER_05
 10
1841.921243915184
 20
1299.222462071178
 30
0.0
  0
SEQEND
  5
28C
  8
LAYER_05
  0
POLYLINE
  5
28D
  8
LAYER_05
 66
     1
 10
0.0
 20
0.0
 30
0.0
 70
     1
  0
VERTEX
  5
28E
  8
LAYER_05
 10
1645.998624764281
 20
1068.421929199287
 30
0.0
  0
VERTEX
  5
28F
  8
LAYER_05
 10
1732.863620726251
 20
1150.153993581686
 30
0.0
  0
VERTEX
  5
290
  8
LAYER_05
 10
1762.730552124278
 20
1131.800901453563
 30
0.0
  0
VERTEX
  5
291
  8
LAYER_05
 10
1695.37125794099
 20
1068.421929199287
 30
0.0
  0
SEQEND
  5
292
  8
LAYER_05
  0
POLYLINE
  5
293
  8
LAYER_05
 66
     1
 10
0.0
 20
0.0
 30
0.0
 70
     1
  0
VERTEX
  5
294
  8
LAYER_05
 10
1897.149219884624
 20
1211.821488539078
 30
0.0
  0
VERTEX
  5
295
  8
LAYER_05
 10
1927.016151282651
 20
1193.468396410954
 30
0.0
  0
VERTEX
  5
296
  8
LAYER_05
 10
1847.99504429773
 20
1119.116718475141
 30
0.0
  0
VERTEX
  5
297
  8
LAYER_05
 10
1801.688603720407
 20
1147.571813466829
 30
0.0
  0
VERTEX
  5
298
  8
LAYER_05
 10
1815.74130335699
 20
1160.794126306705
 30
0.0
  0
VERTEX
  5
299
  8
LAYER_05
 10
1832.180812536286
 20
1150.692123443141
 30
0.0
  0
SEQEND
  5
29A
  8
LAYER_05
  0
POLYLINE
  5
29B
  8
LAYER_05
 66
     1
 10
0.0
 20
0.0
 30
0.0
 70
     1
  0
VERTEX
  5
29C
  8
LAYER_05
 10
1794.116524294407
 20
1068.421929199287
 30
0.0
  0
VERTEX
  5
29D
  8
LAYER_05
 10
1822.464414920332
 20
1095.094717197317
 30
0.0
  0
VERTEX
  5
29E
  8
LAYER_05
 10
1792.597483522305
 20
1113.44780932544
 30
0.0
  0
VERTEX
  5
29F
  8
LAYER_05
 10
1744.743891117698
 20
1068.421929199287
 30
0.0
  0
SEQEND
  5
2A0
  8
LAYER_05
  0
POLYLINE
  5
2A1
  8
LAYER_05
 66
     1
 10
0.0
 20
0.0
 30
0.0
 70
     1
  0
VERTEX
  5
2A2
  8
LAYER_05
 10
1990.03914344531
 20
1299.222462071178
 30
0.0
  0
VERTEX
  5
2A3
  8
LAYER_05
 10
1922.679849262022
 20
1235.843489816902
 30
0.0
  0
VERTEX
  5
2A4
  8
LAYER_05
 10
1952.546780660049
 20
1217.490397688779
 30
0.0
  0
VERTEX
  5
2A5
  8
LAYER_05
 10
2039.411776622018
 20
1299.222462071178
 30
0.0
  0
SEQEND
  5
2A6
  8
LAYER_05
  0
ENDSEC
  0
EOF
