  0
SECTION
  2
HEADER
  9
$ACADVER
  1
AC1009
  9
$DWGCODEPAGE
  3
ansi_1252
  9
$INSBASE
 10
0.0
 20
0.0
 30
0.0
  9
$EXTMIN
 10
1.000000000000000E+20
 20
1.000000000000000E+20
 30
1.000000000000000E+20
  9
$EXTMAX
 10
-1.000000000000000E+20
 20
-1.000000000000000E+20
 30
-1.000000000000000E+20
  9
$LIMMIN
 10
0.0
 20
0.0
  9
$LIMMAX
 10
12.0
 20
9.0
  9
$ORTHOMODE
 70
     0
  9
$REGENMODE
 70
     1
  9
$FILLMODE
 70
     1
  9
$QTEXTMODE
 70
     0
  9
$MIRRTEXT
 70
     1
  9
$DRAGMODE
 70
     2
  9
$LTSCALE
 40
1.0
  9
$OSMODE
 70
    37
  9
$ATTMODE
 70
     1
  9
$TEXTSIZE
 40
0.2
  9
$TRACEWID
 40
0.05
  9
$TEXTSTYLE
  7
STANDARD
  9
$CLAYER
  8
LAYER_01
  9
$CELTYPE
  6
BYLAYER
  9
$CECOLOR
 62
   256
  9
$DIMSCALE
 40
1.0
  9
$DIMASZ
 40
0.18
  9
$DIMEXO
 40
0.0625
  9
$DIMDLI
 40
0.38
  9
$DIMRND
 40
0.0
  9
$DIMDLE
 40
0.0
  9
$DIMEXE
 40
0.18
  9
$DIMTP
 40
0.0
  9
$DIMTM
 40
0.0
  9
$DIMTXT
 40
0.18
  9
$DIMCEN
 40
0.09
  9
$DIMTSZ
 40
0.0
  9
$DIMTOL
 70
     0
  9
$DIMLIM
 70
     0
  9
$DIMTIH
 70
     1
  9
$DIMTOH
 70
     1
  9
$DIMSE1
 70
     0
  9
$DIMSE2
 70
     0
  9
$DIMTAD
 70
     0
  9
$DIMZIN
 70
     0
  9
$DIMBLK
  1

  9
$DIMASO
 70
     1
  9
$DIMSHO
 70
     1
  9
$DIMPOST
  1

  9
$DIMAPOST
  1

  9
$DIMALT
 70
     0
  9
$DIMALTD
 70
     2
  9
$DIMALTF
 40
25.4
  9
$DIMLFAC
 40
1.0
  9
$DIMTOFL
 70
     0
  9
$DIMTVP
 40
0.0
  9
$DIMTIX
 70
     0
  9
$DIMSOXD
 70
     0
  9
$DIMSAH
 70
     0
  9
$DIMBLK1
  1

  9
$DIMBLK2
  1

  9
$DIMSTYLE
  2
STANDARD_ACAD
  9
$DIMCLRD
 70
     0
  9
$DIMCLRE
 70
     0
  9
$DIMCLRT
 70
     0
  9
$DIMTFAC
 40
1.0
  9
$DIMGAP
 40
0.09
  9
$LUNITS
 70
     2
  9
$LUPREC
 70
     3
  9
$SKETCHINC
 40
0.1
  9
$FILLETRAD
 40
0.5
  9
$AUNITS
 70
     0
  9
$AUPREC
 70
     0
  9
$MENU
  1
.
  9
$ELEVATION
 40
0.0
  9
$PELEVATION
 40
0.0
  9
$THICKNESS
 40
0.0
  9
$LIMCHECK
 70
     0
  9
$CHAMFERA
 40
0.0
  9
$CHAMFERB
 40
0.0
  9
$SKPOLY
 70
     0
  9
$TDCREATE
 40
2459984.841955162
  9
$TDUPDATE
 40
2459984.841955232
  9
$TDINDWG
 40
0.0000000116
  9
$TDUSRTIMER
 40
0.0000000116
  9
$USRTIMER
 70
     1
  9
$ANGBASE
 50
0.0
  9
$ANGDIR
 70
     0
  9
$PDMODE
 70
     0
  9
$PDSIZE
 40
0.0
  9
$PLINEWID
 40
0.0
  9
$COORDS
 70
     1
  9
$SPLFRAME
 70
     0
  9
$SPLINETYPE
 70
     6
  9
$SPLINESEGS
 70
     8
  9
$ATTDIA
 70
     0
  9
$ATTREQ
 70
     1
  9
$HANDLING
 70
     1
  9
$HANDSEED
  5
377
  9
$SURFTAB1
 70
     6
  9
$SURFTAB2
 70
     6
  9
$SURFTYPE
 70
     6
  9
$SURFU
 70
     6
  9
$SURFV
 70
     6
  9
$UCSNAME
  2

  9
$UCSORG
 10
0.0
 20
0.0
 30
0.0
  9
$UCSXDIR
 10
1.0
 20
0.0
 30
0.0
  9
$UCSYDIR
 10
0.0
 20
1.0
 30
0.0
  9
$PUCSNAME
  2

  9
$PUCSORG
 10
0.0
 20
0.0
 30
0.0
  9
$PUCSXDIR
 10
1.0
 20
0.0
 30
0.0
  9
$PUCSYDIR
 10
0.0
 20
1.0
 30
0.0
  9
$USERI1
 70
     0
  9
$USERI2
 70
     0
  9
$USERI3
 70
     0
  9
$USERI4
 70
     0
  9
$USERI5
 70
     0
  9
$USERR1
 40
0.0
  9
$USERR2
 40
0.0
  9
$USERR3
 40
0.0
  9
$USERR4
 40
0.0
  9
$USERR5
 40
0.0
  9
$WORLDVIEW
 70
     1
  9
$SHADEDGE
 70
     3
  9
$SHADEDIF
 70
    70
  9
$TILEMODE
 70
     1
  9
$MAXACTVP
 70
    64
  9
$PLIMCHECK
 70
     0
  9
$PEXTMIN
 10
1.000000000000000E+20
 20
1.000000000000000E+20
 30
1.000000000000000E+20
  9
$PEXTMAX
 10
-1.000000000000000E+20
 20
-1.000000000000000E+20
 30
-1.000000000000000E+20
  9
$PLIMMIN
 10
0.0
 20
0.0
  9
$PLIMMAX
 10
12.0
 20
9.0
  9
$UNITMODE
 70
     0
  9
$VISRETAIN
 70
     1
  9
$PLINEGEN
 70
     0
  9
$PSLTSCALE
 70
     1
  0
ENDSEC
  0
SECTION
  2
TABLES
  0
TABLE
  2
VPORT
 70
     1
  0
VPORT
  2
*ACTIVE
 70
     0
 10
0.0
 20
0.0
 11
1.0
 21
1.0
 12
10.42990654205607
 22
4.5
 13
0.0
 23
0.0
 14
0.5
 24
0.5
 15
0.5
 25
0.5
 16
0.0
 26
0.0
 36
1.0
 17
0.0
 27
0.0
 37
0.0
 40
9.0
 41
1.972972972850329
 42
50.0
 43
0.0
 44
0.0
 50
0.0
 51
0.0
 71
     0
 72
   100
 73
     1
 74
     3
 75
     0
 76
     0
 77
     0
 78
     0
  0
ENDTAB
  0
TABLE
  2
LTYPE
 70
     1
  0
LTYPE
  2
CONTINUOUS
 70
     0
  3
Solid line
 72
    65
 73
     0
 40
0.0
  0
ENDTAB
  0
TABLE
  2
LAYER
 70
     2
  0
LAYER
  2
0
 70
     0
 62
     7
  6
CONTINUOUS
  0
LAYER
  2
LAYER_01
 70
     0
 62
     7
  6
CONTINUOUS
  0
ENDTAB
  0
TABLE
  2
STYLE
 70
     1
  0
STYLE
  2
STANDARD
 70
     0
 40
0.0
 41
1.0
 50
0.0
 71
     0
 42
0.2
  3
txt
  4

  0
ENDTAB
  0
TABLE
  2
VIEW
 70
     0
  0
ENDTAB
  0
TABLE
  2
UCS
 70
     0
  0
ENDTAB
  0
TABLE
  2
APPID
 70
     2
  0
APPID
  2
ACAD
 70
     0
  0
APPID
  2
RHINO
 70
     0
  0
ENDTAB
  0
TABLE
  2
DIMSTYLE
 70
     1
  0
DIMSTYLE
  2
STANDARD_ACAD
 70
     0
  3

  4

  5

  6

  7

 40
1.0
 41
0.18
 42
0.0625
 43
0.38
 44
0.18
 45
0.0
 46
0.0
 47
0.0
 48
0.0
140
0.18
141
0.09
142
0.0
143
25.4
144
1.0
145
0.0
146
1.0
147
0.09
 71
     0
 72
     0
 73
     1
 74
     1
 75
     0
 76
     0
 77
     0
 78
     0
170
     0
171
     2
172
     0
173
     0
174
     0
175
     0
176
     0
177
     0
178
     0
  0
ENDTAB
  0
ENDSEC
  0
SECTION
  2
BLOCKS
  0
BLOCK
  8
0
  2
$MODEL_SPACE
 70
     0
 10
0.0
 20
0.0
 30
0.0
  3
$MODEL_SPACE
  1

  0
ENDBLK
  5
21
  8
0
  0
BLOCK
 67
     1
  8
0
  2
$PAPER_SPACE
 70
     0
 10
0.0
 20
0.0
 30
0.0
  3
$PAPER_SPACE
  1

  0
ENDBLK
  5
1D
 67
     1
  8
0
  0
ENDSEC
  0
SECTION
  2
ENTITIES
  0
POLYLINE
  5
70
  8
LAYER_01
 66
     1
 10
0.0
 20
0.0
 30
0.0
 70
     1
  0
VERTEX
  5
71
  8
LAYER_01
 10
95.99789912617604
 20
75.29687451210779
 30
0.0
  0
VERTEX
  5
72
  8
LAYER_01
 10
554.4830342483313
 20
75.29687451210779
 30
0.0
  0
VERTEX
  5
73
  8
LAYER_01
 10
554.4830342483313
 20
1024.020245897118
 30
0.0
  0
VERTEX
  5
74
  8
LAYER_01
 10
95.99789912617604
 20
1024.020245897118
 30
0.0
  0
SEQEND
  5
75
  8
LAYER_01
  0
POLYLINE
  5
76
  8
LAYER_01
 66
     1
 10
0.0
 20
0.0
 30
0.0
  0
VERTEX
  5
77
  8
LAYER_01
 10
381.7371754713144
 20
106.7459005101591
 30
0.0
  0
VERTEX
  5
78
  8
LAYER_01
 10
381.7371754713144
 20
95.29687451210779
 30
0.0
  0
VERTEX
  5
79
  8
LAYER_01
 10
381.7371754713144
 20
106.745900510159
 30
0.0
 42
0.4142135623730954
  0
VERTEX
  5
7A
  8
LAYER_01
 10
355.662213525498
 20
132.8208624559755
 30
0.0
  0
VERTEX
  5
7B
  8
LAYER_01
 10
340.3499108139322
 20
132.8208624559755
 30
0.0
  0
VERTEX
  5
7C
  8
LAYER_01
 10
340.3499108139321
 20
95.29687451210783
 30
0.0
  0
VERTEX
  5
7D
  8
LAYER_01
 10
381.7371754713145
 20
95.29687451210783
 30
0.0
  0
SEQEND
  5
7E
  8
LAYER_01
  0
POLYLINE
  5
7F
  8
LAYER_01
 66
     1
 10
0.0
 20
0.0
 30
0.0
 70
     1
  0
VERTEX
  5
80
  8
LAYER_01
 10
407.5259277204403
 20
179.4246297408663
 30
0.0
 42
0.4142135623730955
  0
VERTEX
  5
81
  8
LAYER_01
 10
381.7371754713143
 20
153.6358774917405
 30
0.0
  0
VERTEX
  5
82
  8
LAYER_01
 10
381.7371754713143
 20
140.4738426632023
 30
0.0
  0
VERTEX
  5
83
  8
LAYER_01
 10
340.3499108139321
 20
140.4738426632024
 30
0.0
  0
VERTEX
  5
84
  8
LAYER_01
 10
340.3499108139322
 20
188.9005420975665
 30
0.0
  0
VERTEX
  5
85
  8
LAYER_01
 10
462.6105530334455
 20
188.9005420975665
 30
0.0
  0
VERTEX
  5
86
  8
LAYER_01
 10
462.6105530334455
 20
179.4246297408663
 30
0.0
  0
SEQEND
  5
87
  8
LAYER_01
  0
POLYLINE
  5
88
  8
LAYER_01
 66
     1
 10
0.0
 20
0.0
 30
0.0
 70
     1
  0
VERTEX
  5
89
  8
LAYER_01
 10
230.5990542687827
 20
140.4738426632024
 30
0.0
 42
0.4142135623730946
  0
VERTEX
  5
8A
  8
LAYER_01
 10
206.2807157051176
 20
116.1555040995372
 30
0.0
  0
VERTEX
  5
8B
  8
LAYER_01
 10
206.2807157051175
 20
95.29687451210783
 30
0.0
  0
VERTEX
  5
8C
  8
LAYER_01
 10
138.8482204440781
 20
95.29687451210782
 30
0.0
  0
VERTEX
  5
8D
  8
LAYER_01
 10
138.8482204440783
 20
108.2800022748134
 30
0.0
  0
VERTEX
  5
8E
  8
LAYER_01
 10
170.7343648239861
 20
108.2800022748133
 30
0.0
 42
0.4142135623730958
  0
VERTEX
  5
8F
  8
LAYER_01
 10
188.3040266218195
 20
125.8496640726467
 30
0.0
  0
VERTEX
  5
90
  8
LAYER_01
 10
188.3040266218194
 20
147.3228008478894
 30
0.0
  0
VERTEX
  5
91
  8
LAYER_01
 10
206.9997347027615
 20
147.3228008478893
 30
0.0
 42
0.4142135623730956
  0
VERTEX
  5
92
  8
LAYER_01
 10
236.8022470016742
 20
177.125313146802
 30
0.0
  0
VERTEX
  5
93
  8
LAYER_01
 10
236.8368240088064
 20
213.9882954919801
 30
0.0
 42
0.399310753213956
  0
VERTEX
  5
94
  8
LAYER_01
 10
263.2417405882866
 20
188.9005420975665
 30
0.0
  0
VERTEX
  5
95
  8
LAYER_01
 10
315.0588073554773
 20
188.9005420975664
 30
0.0
  0
VERTEX
  5
96
  8
LAYER_01
 10
315.0588073554773
 20
140.4738426632024
 30
0.0
  0
SEQEND
  5
97
  8
LAYER_01
  0
POLYLINE
  5
98
  8
LAYER_01
 66
     1
 10
0.0
 20
0.0
 30
0.0
 70
     1
  0
VERTEX
  5
99
  8
LAYER_01
 10
517.2609706073855
 20
589.3549607104245
 30
0.0
  0
VERTEX
  5
9A
  8
LAYER_01
 10
534.4830342483313
 20
589.3549607104244
 30
0.0
  0
VERTEX
  5
9B
  8
LAYER_01
 10
534.4830342483313
 20
630.0028661356928
 30
0.0
  0
VERTEX
  5
9C
  8
LAYER_01
 10
516.5266988047327
 20
630.002866135693
 30
0.0
  0
VERTEX
  5
9D
  8
LAYER_01
 10
516.5266988047327
 20
593.9397758172825
 30
0.0
 42
0.0795695013336034
  0
SEQEND
  5
9E
  8
LAYER_01
  0
POLYLINE
  5
9F
  8
LAYER_01
 66
     1
 10
0.0
 20
0.0
 30
0.0
 70
     1
  0
VERTEX
  5
A0
  8
LAYER_01
 10
534.4830342483313
 20
746.938052524109
 30
0.0
  0
VERTEX
  5
A1
  8
LAYER_01
 10
498.099293262028
 20
746.9380525241091
 30
0.0
  0
VERTEX
  5
A2
  8
LAYER_01
 10
498.099293262028
 20
812.4113408059508
 30
0.0
  0
VERTEX
  5
A3
  8
LAYER_01
 10
534.4830342483313
 20
812.4113408059513
 30
0.0
  0
SEQEND
  5
A4
  8
LAYER_01
  0
POLYLINE
  5
A5
  8
LAYER_01
 66
     1
 10
0.0
 20
0.0
 30
0.0
 70
     1
  0
VERTEX
  5
A6
  8
LAYER_01
 10
503.5396142720633
 20
340.3289095866372
 30
0.0
 42
0.4142135623730957
  0
VERTEX
  5
A7
  8
LAYER_01
 10
521.6773771475296
 20
322.1911467111709
 30
0.0
  0
VERTEX
  5
A8
  8
LAYER_01
 10
534.4830342483313
 20
322.1911467111712
 30
0.0
  0
VERTEX
  5
A9
  8
LAYER_01
 10
534.4830342483313
 20
307.5896046475068
 30
0.0
  0
VERTEX
  5
AA
  8
LAYER_01
 10
503.5396142720633
 20
307.589604647507
 30
0.0
  0
SEQEND
  5
AB
  8
LAYER_01
  0
POLYLINE
  5
AC
  8
LAYER_01
 66
     1
 10
0.0
 20
0.0
 30
0.0
 70
     1
  0
VERTEX
  5
AD
  8
LAYER_01
 10
197.7877908759189
 20
799.9441712836575
 30
0.0
  0
VERTEX
  5
AE
  8
LAYER_01
 10
180.6172396059524
 20
799.9441712836577
 30
0.0
 42
0.3755746252337767
  0
VERTEX
  5
AF
  8
LAYER_01
 10
206.751443688872
 20
777.0897190205728
 30
0.0
  0
VERTEX
  5
B0
  8
LAYER_01
 10
222.2994926285184
 20
777.0897190205727
 30
0.0
 42
0.3938716619742476
  0
SEQEND
  5
B1
  8
LAYER_01
  0
POLYLINE
  5
B2
  8
LAYER_01
 66
     1
 10
0.0
 20
0.0
 30
0.0
 70
     1
  0
VERTEX
  5
B3
  8
LAYER_01
 10
304.2281778459116
 20
772.0893934818495
 30
0.0
  0
VERTEX
  5
B4
  8
LAYER_01
 10
395.9268101756514
 20
772.0893934818495
 30
0.0
 42
0.4142135623730956
  0
VERTEX
  5
B5
  8
LAYER_01
 10
427.7611979860433
 20
803.9237812922413
 30
0.0
  0
VERTEX
  5
B6
  8
LAYER_01
 10
427.7611979860433
 20
812.4113408059508
 30
0.0
  0
VERTEX
  5
B7
  8
LAYER_01
 10
478.122619806186
 20
812.4113408059509
 30
0.0
  0
VERTEX
  5
B8
  8
LAYER_01
 10
478.122619806186
 20
782.7330624775991
 30
0.0
 42
-0.4142135623730944
  0
VERTEX
  5
B9
  8
LAYER_01
 10
444.7388888266118
 20
749.3493314980249
 30
0.0
  0
VERTEX
  5
BA
  8
LAYER_01
 10
335.8696981068833
 20
749.3493314980249
 30
0.0
 42
-0.3220659874978996
  0
SEQEND
  5
BB
  8
LAYER_01
  0
POLYLINE
  5
BC
  8
LAYER_01
 66
     1
 10
0.0
 20
0.0
 30
0.0
 70
     1
  0
VERTEX
  5
BD
  8
LAYER_01
 10
375.4806031271413
 20
511.3747301941021
 30
0.0
 42
0.3720616006612862
  0
VERTEX
  5
BE
  8
LAYER_01
 10
401.4476037726012
 20
533.8019780573298
 30
0.0
  0
VERTEX
  5
BF
  8
LAYER_01
 10
288.4822187248939
 20
533.80197805733
 30
0.0
 42
0.414213562373095
  0
VERTEX
  5
C0
  8
LAYER_01
 10
273.5276521572388
 20
518.8474114896749
 30
0.0
  0
VERTEX
  5
C1
  8
LAYER_01
 10
273.5276521572388
 20
511.3747301941021
 30
0.0
  0
SEQEND
  5
C2
  8
LAYER_01
  0
POLYLINE
  5
C3
  8
LAYER_01
 66
     1
 10
0.0
 20
0.0
 30
0.0
 70
     1
  0
VERTEX
  5
C4
  8
LAYER_01
 10
534.4830342483313
 20
140.6804278914051
 30
0.0
 42
0.3146599131990798
  0
VERTEX
  5
C5
  8
LAYER_01
 10
516.7149045383851
 20
125.5265744001946
 30
0.0
  0
VERTEX
  5
C6
  8
LAYER_01
 10
534.4830342483313
 20
125.5265744001943
 30
0.0
  0
SEQEND
  5
C7
  8
LAYER_01
  0
POLYLINE
  5
C8
  8
LAYER_01
 66
     1
 10
0.0
 20
0.0
 30
0.0
 70
     1
  0
VERTEX
  5
C9
  8
LAYER_01
 10
163.6753724553871
 20
966.3104726476262
 30
0.0
 42
0.3978224910895977
  0
VERTEX
  5
CA
  8
LAYER_01
 10
180.7560633040768
 20
982.4558502156456
 30
0.0
  0
VERTEX
  5
CB
  8
LAYER_01
 10
139.801016533366
 20
982.4558502156455
 30
0.0
 42
0.4142135623730932
  0
VERTEX
  5
CC
  8
LAYER_01
 10
127.3524554237553
 20
970.0072891060348
 30
0.0
  0
VERTEX
  5
CD
  8
LAYER_01
 10
127.3524554237553
 20
966.3104726476262
 30
0.0
  0
SEQEND
  5
CE
  8
LAYER_01
  0
POLYLINE
  5
CF
  8
LAYER_01
 66
     1
 10
0.0
 20
0.0
 30
0.0
 70
     1
  0
VERTEX
  5
D0
  8
LAYER_01
 10
339.0742879347887
 20
617.4298677088233
 30
0.0
 42
-0.4142135623730937
  0
VERTEX
  5
D1
  8
LAYER_01
 10
305.4419468474701
 20
583.7975266215047
 30
0.0
  0
VERTEX
  5
D2
  8
LAYER_01
 10
215.7665464438598
 20
583.7975266215049
 30
0.0
  0
VERTEX
  5
D3
  8
LAYER_01
 10
215.7665464438598
 20
537.6210751852377
 30
0.0
 42
0.4142135623730959
  0
VERTEX
  5
D4
  8
LAYER_01
 10
242.0128914349955
 20
511.3747301941021
 30
0.0
  0
VERTEX
  5
D5
  8
LAYER_01
 10
263.1517494109779
 20
511.3747301941021
 30
0.0
  0
VERTEX
  5
D6
  8
LAYER_01
 10
263.1517494109779
 20
520.8538214617104
 30
0.0
 42
-0.4142135623730961
  0
VERTEX
  5
D7
  8
LAYER_01
 10
292.1131828461077
 20
549.8152548968403
 30
0.0
  0
VERTEX
  5
D8
  8
LAYER_01
 10
401.7269481182769
 20
549.8152548968403
 30
0.0
  0
VERTEX
  5
D9
  8
LAYER_01
 10
401.7269481182771
 20
561.4071870139611
 30
0.0
 42
-0.3123838553089328
  0
VERTEX
  5
DA
  8
LAYER_01
 10
383.0547669032912
 20
588.3773407233534
 30
0.0
  0
VERTEX
  5
DB
  8
LAYER_01
 10
383.0547669032912
 20
642.3792972298453
 30
0.0
 42
0.0733167332844585
  0
VERTEX
  5
DC
  8
LAYER_01
 10
375.4806031271413
 20
643.4959253804395
 30
0.0
  0
VERTEX
  5
DD
  8
LAYER_01
 10
339.0742879347886
 20
643.4959253804395
 30
0.0
  0
SEQEND
  5
DE
  8
LAYER_01
  0
POLYLINE
  5
DF
  8
LAYER_01
 66
     1
 10
0.0
 20
0.0
 30
0.0
 70
     1
  0
VERTEX
  5
E0
  8
LAYER_01
 10
517.1813434042493
 20
494.0219695832346
 30
0.0
 42
0.2156750170901304
  0
VERTEX
  5
E1
  8
LAYER_01
 10
507.6869289550738
 20
489.726758793715
 30
0.0
  0
VERTEX
  5
E2
  8
LAYER_01
 10
534.4830342483313
 20
489.726758793715
 30
0.0
  0
VERTEX
  5
E3
  8
LAYER_01
 10
534.4830342483313
 20
494.0219695832345
 30
0.0
  0
SEQEND
  5
E4
  8
LAYER_01
  0
POLYLINE
  5
E5
  8
LAYER_01
 66
     1
 10
0.0
 20
0.0
 30
0.0
 70
     1
  0
VERTEX
  5
E6
  8
LAYER_01
 10
504.5402011203727
 20
423.8038881580273
 30
0.0
 42
0.1101582228115343
  0
VERTEX
  5
E7
  8
LAYER_01
 10
505.7381365352639
 20
418.4325294104834
 30
0.0
 42
-0.2749598639837441
  0
VERTEX
  5
E8
  8
LAYER_01
 10
521.6773771475296
 20
427.9147131123217
 30
0.0
  0
VERTEX
  5
E9
  8
LAYER_01
 10
534.4830342483313
 20
427.9147131123213
 30
0.0
  0
VERTEX
  5
EA
  8
LAYER_01
 10
534.4830342483313
 20
466.6946536737561
 30
0.0
  0
VERTEX
  5
EB
  8
LAYER_01
 10
504.5402011203727
 20
466.694653673756
 30
0.0
  0
SEQEND
  5
EC
  8
LAYER_01
  0
POLYLINE
  5
ED
  8
LAYER_01
 66
     1
 10
0.0
 20
0.0
 30
0.0
 70
     1
  0
VERTEX
  5
EE
  8
LAYER_01
 10
165.925038926233
 20
799.9441712836574
 30
0.0
 42
0.3779616548982546
  0
VERTEX
  5
EF
  8
LAYER_01
 10
197.5097021576496
 20
772.0893934818494
 30
0.0
  0
VERTEX
  5
F0
  8
LAYER_01
 10
222.3595788611458
 20
772.0893934818494
 30
0.0
  0
VERTEX
  5
F1
  8
LAYER_01
 10
222.3595788611459
 20
743.188922404118
 30
0.0
  0
VERTEX
  5
F2
  8
LAYER_01
 10
160.5116109213589
 20
743.188922404118
 30
0.0
 42
0.3970019847316961
  0
VERTEX
  5
F3
  8
LAYER_01
 10
126.9380271271037
 20
711.5437497102337
 30
0.0
  0
VERTEX
  5
F4
  8
LAYER_01
 10
115.9978991261761
 20
711.5437497102336
 30
0.0
  0
VERTEX
  5
F5
  8
LAYER_01
 10
115.9978991261761
 20
799.9441712836575
 30
0.0
  0
SEQEND
  5
F6
  8
LAYER_01
  0
POLYLINE
  5
F7
  8
LAYER_01
 66
     1
 10
0.0
 20
0.0
 30
0.0
 70
     1
  0
VERTEX
  5
F8
  8
LAYER_01
 10
165.6753143472578
 20
809.7854924724006
 30
0.0
  0
VERTEX
  5
F9
  8
LAYER_01
 10
115.9978991261761
 20
809.7854924724006
 30
0.0
  0
VERTEX
  5
FA
  8
LAYER_01
 10
115.9978991261761
 20
824.4646484699681
 30
0.0
  0
VERTEX
  5
FB
  8
LAYER_01
 10
165.6753143472578
 20
824.4646484699681
 30
0.0
  0
SEQEND
  5
FC
  8
LAYER_01
  0
POLYLINE
  5
FD
  8
LAYER_01
 66
     1
 10
0.0
 20
0.0
 30
0.0
 70
     1
  0
VERTEX
  5
FE
  8
LAYER_01
 10
180.7079358652795
 20
841.5924894372928
 30
0.0
 42
0.414213562373094
  0
VERTEX
  5
FF
  8
LAYER_01
 10
194.0228050652014
 20
854.9073586372147
 30
0.0
  0
VERTEX
  5
100
  8
LAYER_01
 10
194.0228050652013
 20
881.9893645622008
 30
0.0
  0
VERTEX
  5
101
  8
LAYER_01
 10
180.3819075166972
 20
881.9893645622004
 30
0.0
  0
VERTEX
  5
102
  8
LAYER_01
 10
180.3819075166971
 20
841.5924894372929
 30
0.0
  0
SEQEND
  5
103
  8
LAYER_01
  0
POLYLINE
  5
104
  8
LAYER_01
 66
     1
 10
0.0
 20
0.0
 30
0.0
 70
     1
  0
VERTEX
  5
105
  8
LAYER_01
 10
478.122619806186
 20
846.7640475422106
 30
0.0
 42
0.4142135623730944
  0
VERTEX
  5
106
  8
LAYER_01
 10
444.7388888266118
 20
880.1477785217849
 30
0.0
  0
VERTEX
  5
107
  8
LAYER_01
 10
427.7611979860433
 20
880.1477785217849
 30
0.0
  0
VERTEX
  5
108
  8
LAYER_01
 10
427.7611979860432
 20
820.6280609016674
 30
0.0
  0
VERTEX
  5
109
  8
LAYER_01
 10
478.122619806186
 20
820.6280609016673
 30
0.0
  0
SEQEND
  5
10A
  8
LAYER_01
  0
POLYLINE
  5
10B
  8
LAYER_01
 66
     1
 10
0.0
 20
0.0
 30
0.0
 70
     1
  0
VERTEX
  5
10C
  8
LAYER_01
 10
531.2076960637578
 20
650.9023791795506
 30
0.0
 42
0.4070821902967561
  0
VERTEX
  5
10D
  8
LAYER_01
 10
516.5310721476549
 20
636.579698742312
 30
0.0
  0
VERTEX
  5
10E
  8
LAYER_01
 10
534.4830342483313
 20
636.5796987423117
 30
0.0
  0
VERTEX
  5
10F
  8
LAYER_01
 10
534.4830342483313
 20
650.9023791795505
 30
0.0
  0
SEQEND
  5
110
  8
LAYER_01
  0
POLYLINE
  5
111
  8
LAYER_01
 66
     1
 10
0.0
 20
0.0
 30
0.0
 70
     1
  0
VERTEX
  5
112
  8
LAYER_01
 10
337.2779327445112
 20
330.6967005750222
 30
0.0
 42
0.4142135623730938
  0
VERTEX
  5
113
  8
LAYER_01
 10
360.3850286720266
 20
307.5896046475069
 30
0.0
  0
VERTEX
  5
114
  8
LAYER_01
 10
411.010024150205
 20
307.5896046475069
 30
0.0
  0
VERTEX
  5
115
  8
LAYER_01
 10
411.010024150205
 20
363.8130927016563
 30
0.0
  0
VERTEX
  5
116
  8
LAYER_01
 10
337.2779327445113
 20
363.8130927016563
 30
0.0
  0
SEQEND
  5
117
  8
LAYER_01
  0
POLYLINE
  5
118
  8
LAYER_01
 66
     1
 10
0.0
 20
0.0
 30
0.0
 70
     1
  0
VERTEX
  5
119
  8
LAYER_01
 10
517.1813434042493
 20
411.1627458741507
 30
0.0
  0
VERTEX
  5
11A
  8
LAYER_01
 10
534.4830342483313
 20
411.1627458741507
 30
0.0
  0
VERTEX
  5
11B
  8
LAYER_01
 10
534.4830342483313
 20
416.4465303099928
 30
0.0
  0
VERTEX
  5
11C
  8
LAYER_01
 10
525.6520761375876
 20
416.4465303099927
 30
0.0
 42
0.2172517923601119
  0
VERTEX
  5
11D
  8
LAYER_01
 10
514.6341199877766
 20
411.4220413205078
 30
0.0
 42
0.0507664893099471
  0
SEQEND
  5
11E
  8
LAYER_01
  0
POLYLINE
  5
11F
  8
LAYER_01
 66
     1
 10
0.0
 20
0.0
 30
0.0
 70
     1
  0
VERTEX
  5
120
  8
LAYER_01
 10
305.3471694973493
 20
333.8271778574851
 30
0.0
  0
VERTEX
  5
121
  8
LAYER_01
 10
305.3471694973493
 20
268.6641799545469
 30
0.0
  0
VERTEX
  5
122
  8
LAYER_01
 10
389.1602061353781
 20
268.6641799545469
 30
0.0
 42
0.4142135623730953
  0
VERTEX
  5
123
  8
LAYER_01
 10
411.0100241502049
 20
290.5139979693737
 30
0.0
  0
VERTEX
  5
124
  8
LAYER_01
 10
411.010024150205
 20
299.5247881803182
 30
0.0
  0
VERTEX
  5
125
  8
LAYER_01
 10
354.1135198507802
 20
299.5247881803182
 30
0.0
 42
-0.4142135623730947
  0
VERTEX
  5
126
  8
LAYER_01
 10
325.842825951283
 20
327.7954820798154
 30
0.0
  0
VERTEX
  5
127
  8
LAYER_01
 10
325.842825951283
 20
362.2716867252509
 30
0.0
 42
0.3227463405744639
  0
SEQEND
  5
128
  8
LAYER_01
  0
POLYLINE
  5
129
  8
LAYER_01
 66
     1
 10
0.0
 20
0.0
 30
0.0
 70
     1
  0
VERTEX
  5
12A
  8
LAYER_01
 10
160.0121964343961
 20
608.2949708001008
 30
0.0
 42
-0.251053305506717
  0
VERTEX
  5
12B
  8
LAYER_01
 10
140.6261948847122
 20
618.6835812056008
 30
0.0
  0
VERTEX
  5
12C
  8
LAYER_01
 10
169.8900281718153
 20
618.6835812056007
 30
0.0
 42
0.4142135623730949
  0
VERTEX
  5
12D
  8
LAYER_01
 10
188.7931228165426
 20
637.586675850328
 30
0.0
  0
VERTEX
  5
12E
  8
LAYER_01
 10
188.7931228165426
 20
660.448284874363
 30
0.0
  0
VERTEX
  5
12F
  8
LAYER_01
 10
207.2248825598947
 20
660.4482848743631
 30
0.0
 42
0.4142135623730953
  0
VERTEX
  5
130
  8
LAYER_01
 10
238.7180708931552
 20
691.9414732076236
 30
0.0
  0
VERTEX
  5
131
  8
LAYER_01
 10
238.7180708931552
 20
726.9346936272087
 30
0.0
 42
0.4142135623730959
  0
VERTEX
  5
132
  8
LAYER_01
 10
264.7327536169719
 20
700.920010903392
 30
0.0
  0
VERTEX
  5
133
  8
LAYER_01
 10
312.3015728944044
 20
700.9200109033919
 30
0.0
  0
VERTEX
  5
134
  8
LAYER_01
 10
312.3015728944044
 20
651.9930474157875
 30
0.0
  0
VERTEX
  5
135
  8
LAYER_01
 10
236.2804137027359
 20
651.9930474157874
 30
0.0
 42
0.4142135623730951
  0
VERTEX
  5
136
  8
LAYER_01
 10
207.2694244085119
 20
622.9820581215633
 30
0.0
  0
VERTEX
  5
137
  8
LAYER_01
 10
207.2694244085119
 20
608.2949708001008
 30
0.0
  0
SEQEND
  5
138
  8
LAYER_01
  0
POLYLINE
  5
139
  8
LAYER_01
 66
     1
 10
0.0
 20
0.0
 30
0.0
 70
     1
  0
VERTEX
  5
13A
  8
LAYER_01
 10
182.9116016212985
 20
938.8009791236042
 30
0.0
 42
0.1108515793790984
  0
VERTEX
  5
13B
  8
LAYER_01
 10
180.3819075166971
 20
927.5309139894183
 30
0.0
  0
VERTEX
  5
13C
  8
LAYER_01
 10
180.3819075166971
 20
906.8424860073062
 30
0.0
  0
VERTEX
  5
13D
  8
LAYER_01
 10
194.0228050652013
 20
906.8424860073062
 30
0.0
  0
VERTEX
  5
13E
  8
LAYER_01
 10
194.0228050652013
 20
925.6697339790351
 30
0.0
 42
0.3663116229925437
  0
SEQEND
  5
13F
  8
LAYER_01
  0
POLYLINE
  5
140
  8
LAYER_01
 66
     1
 10
0.0
 20
0.0
 30
0.0
 70
     1
  0
VERTEX
  5
141
  8
LAYER_01
 10
213.2786445223909
 20
982.4558502156456
 30
0.0
 42
-0.4142135623730985
  0
VERTEX
  5
142
  8
LAYER_01
 10
225.7272056320016
 20
970.0072891060348
 30
0.0
  0
VERTEX
  5
143
  8
LAYER_01
 10
225.7272056320016
 20
965.2184292517604
 30
0.0
  0
VERTEX
  5
144
  8
LAYER_01
 10
197.5097021576496
 20
965.2184292517604
 30
0.0
 42
0.2821992412019531
  0
VERTEX
  5
145
  8
LAYER_01
 10
169.135953456063
 20
947.8186745119265
 30
0.0
  0
VERTEX
  5
146
  8
LAYER_01
 10
127.3524554237553
 20
947.8186745119267
 30
0.0
  0
VERTEX
  5
147
  8
LAYER_01
 10
127.3524554237553
 20
960.0352035243207
 30
0.0
  0
VERTEX
  5
148
  8
LAYER_01
 10
165.6333151630117
 20
960.0352035243205
 30
0.0
 42
0.4142135623730929
  0
VERTEX
  5
149
  8
LAYER_01
 10
187.0584241113432
 20
981.4603124726519
 30
0.0
  0
VERTEX
  5
14A
  8
LAYER_01
 10
187.0584241113432
 20
982.4558502156455
 30
0.0
  0
SEQEND
  5
14B
  8
LAYER_01
  0
POLYLINE
  5
14C
  8
LAYER_01
 66
     1
 10
0.0
 20
0.0
 30
0.0
 70
     1
  0
VERTEX
  5
14D
  8
LAYER_01
 10
326.9524108907367
 20
968.7839487467594
 30
0.0
 42
-0.3400435027823179
  0
VERTEX
  5
14E
  8
LAYER_01
 10
354.0493686550193
 20
1004.020245897118
 30
0.0
  0
VERTEX
  5
14F
  8
LAYER_01
 10
274.6256293644037
 20
1004.020245897118
 30
0.0
  0
VERTEX
  5
150
  8
LAYER_01
 10
274.6256293644037
 20
965.2184292517604
 30
0.0
  0
VERTEX
  5
151
  8
LAYER_01
 10
326.9524108907368
 20
965.2184292517607
 30
0.0
  0
SEQEND
  5
152
  8
LAYER_01
  0
POLYLINE
  5
153
  8
LAYER_01
 66
     1
 10
0.0
 20
0.0
 30
0.0
 70
     1
  0
VERTEX
  5
154
  8
LAYER_01
 10
513.5427887144534
 20
851.5368804767322
 30
0.0
 42
0.4142135623730906
  0
VERTEX
  5
155
  8
LAYER_01
 10
521.0663768574531
 20
844.0132923337326
 30
0.0
  0
VERTEX
  5
156
  8
LAYER_01
 10
534.4830342483313
 20
844.0132923337326
 30
0.0
  0
VERTEX
  5
157
  8
LAYER_01
 10
534.4830342483313
 20
920.1021010634477
 30
0.0
  0
VERTEX
  5
158
  8
LAYER_01
 10
513.5427887144534
 20
920.1021010634478
 30
0.0
  0
SEQEND
  5
159
  8
LAYER_01
  0
POLYLINE
  5
15A
  8
LAYER_01
 66
     1
 10
0.0
 20
0.0
 30
0.0
 70
     1
  0
VERTEX
  5
15B
  8
LAYER_01
 10
518.3729849248616
 20
944.8081407886914
 30
0.0
  0
VERTEX
  5
15C
  8
LAYER_01
 10
534.4830342483313
 20
944.8081407886912
 30
0.0
  0
VERTEX
  5
15D
  8
LAYER_01
 10
534.4830342483313
 20
981.4412987850774
 30
0.0
  0
VERTEX
  5
15E
  8
LAYER_01
 10
503.7835094277806
 20
981.4412987850774
 30
0.0
  0
VERTEX
  5
15F
  8
LAYER_01
 10
503.7835094277806
 20
939.059260702335
 30
0.0
 42
0.228240819865057
  0
VERTEX
  5
160
  8
LAYER_01
 10
508.021169932282
 20
930.2595544017713
 30
0.0
  0
VERTEX
  5
161
  8
LAYER_01
 10
508.0211699322822
 20
934.456325796112
 30
0.0
 42
-0.4142135623730939
  0
SEQEND
  5
162
  8
LAYER_01
  0
POLYLINE
  5
163
  8
LAYER_01
 66
     1
 10
0.0
 20
0.0
 30
0.0
 70
     1
  0
VERTEX
  5
164
  8
LAYER_01
 10
128.4821344767419
 20
190.7919733596231
 30
0.0
  0
VERTEX
  5
165
  8
LAYER_01
 10
115.9978991261761
 20
190.791973359623
 30
0.0
  0
VERTEX
  5
166
  8
LAYER_01
 10
115.997899126176
 20
170.131670423489
 30
0.0
  0
VERTEX
  5
167
  8
LAYER_01
 10
128.4821344767419
 20
170.131670423489
 30
0.0
  0
SEQEND
  5
168
  8
LAYER_01
  0
POLYLINE
  5
169
  8
LAYER_01
 66
     1
 10
0.0
 20
0.0
 30
0.0
 70
     1
  0
VERTEX
  5
16A
  8
LAYER_01
 10
411.0100241502049
 20
400.7863094711404
 30
0.0
  0
VERTEX
  5
16B
  8
LAYER_01
 10
411.010024150205
 20
379.8252356164992
 30
0.0
  0
VERTEX
  5
16C
  8
LAYER_01
 10
337.2779327445112
 20
379.8252356164994
 30
0.0
  0
VERTEX
  5
16D
  8
LAYER_01
 10
337.2779327445113
 20
400.7863094711406
 30
0.0
  0
SEQEND
  5
16E
  8
LAYER_01
  0
POLYLINE
  5
16F
  8
LAYER_01
 66
     1
 10
0.0
 20
0.0
 30
0.0
 70
     1
  0
VERTEX
  5
170
  8
LAYER_01
 10
534.4830342483313
 20
233.6934203642012
 30
0.0
  0
VERTEX
  5
171
  8
LAYER_01
 10
503.5396142720633
 20
233.6934203642014
 30
0.0
  0
VERTEX
  5
172
  8
LAYER_01
 10
503.5396142720633
 20
299.5247881803183
 30
0.0
  0
VERTEX
  5
173
  8
LAYER_01
 10
534.4830342483313
 20
299.5247881803186
 30
0.0
  0
SEQEND
  5
174
  8
LAYER_01
  0
POLYLINE
  5
175
  8
LAYER_01
 66
     1
 10
0.0
 20
0.0
 30
0.0
 70
     1
  0
VERTEX
  5
176
  8
LAYER_01
 10
128.4821344767419
 20
108.2800022748133
 30
0.0
  0
VERTEX
  5
177
  8
LAYER_01
 10
128.4821344767423
 20
95.29687451210783
 30
0.0
  0
VERTEX
  5
178
  8
LAYER_01
 10
115.9978991261761
 20
95.29687451210783
 30
0.0
  0
VERTEX
  5
179
  8
LAYER_01
 10
115.9978991261761
 20
108.2800022748135
 30
0.0
  0
SEQEND
  5
17A
  8
LAYER_01
  0
POLYLINE
  5
17B
  8
LAYER_01
 66
     1
 10
0.0
 20
0.0
 30
0.0
 70
     1
  0
VERTEX
  5
17C
  8
LAYER_01
 10
508.0211699322822
 20
846.516255839528
 30
0.0
 42
0.4142135623730939
  0
VERTEX
  5
17D
  8
LAYER_01
 10
518.3729849248616
 20
836.1644408469485
 30
0.0
  0
VERTEX
  5
17E
  8
LAYER_01
 10
534.4830342483313
 20
836.1644408469485
 30
0.0
  0
VERTEX
  5
17F
  8
LAYER_01
 10
534.4830342483313
 20
820.6280609016675
 30
0.0
  0
VERTEX
  5
180
  8
LAYER_01
 10
498.099293262028
 20
820.6280609016674
 30
0.0
  0
VERTEX
  5
181
  8
LAYER_01
 10
498.099293262028
 20
847.4093765523826
 30
0.0
  0
VERTEX
  5
182
  8
LAYER_01
 10
508.0211699322823
 20
847.4093765523827
 30
0.0
  0
SEQEND
  5
183
  8
LAYER_01
  0
POLYLINE
  5
184
  8
LAYER_01
 66
     1
 10
0.0
 20
0.0
 30
0.0
 70
     1
  0
VERTEX
  5
185
  8
LAYER_01
 10
457.145478740529
 20
918.0522785623983
 30
0.0
 42
0.4142135623730939
  0
VERTEX
  5
186
  8
LAYER_01
 10
475.3522331652955
 20
936.2590329871648
 30
0.0
  0
VERTEX
  5
187
  8
LAYER_01
 10
475.3522331652955
 20
981.4412987850774
 30
0.0
  0
VERTEX
  5
188
  8
LAYER_01
 10
492.3382955319205
 20
981.4412987850772
 30
0.0
  0
VERTEX
  5
189
  8
LAYER_01
 10
492.3382955319205
 20
929.0194481469533
 30
0.0
 42
0.4142135623730957
  0
VERTEX
  5
18A
  8
LAYER_01
 10
501.2556426154263
 20
920.1021010634477
 30
0.0
  0
VERTEX
  5
18B
  8
LAYER_01
 10
508.0211699322822
 20
920.1021010634479
 30
0.0
  0
VERTEX
  5
18C
  8
LAYER_01
 10
508.0211699322823
 20
872.2893626795124
 30
0.0
  0
VERTEX
  5
18D
  8
LAYER_01
 10
497.5944708078904
 20
872.2893626795121
 30
0.0
 42
0.3575309461652032
  0
VERTEX
  5
18E
  8
LAYER_01
 10
472.0846105382113
 20
893.2039722428442
 30
0.0
  0
VERTEX
  5
18F
  8
LAYER_01
 10
427.7611979860433
 20
893.2039722428442
 30
0.0
  0
VERTEX
  5
190
  8
LAYER_01
 10
427.7611979860433
 20
918.0522785623983
 30
0.0
  0
SEQEND
  5
191
  8
LAYER_01
  0
POLYLINE
  5
192
  8
LAYER_01
 66
     1
 10
0.0
 20
0.0
 30
0.0
 70
     1
  0
VERTEX
  5
193
  8
LAYER_01
 10
411.8687423581224
 20
691.2576947770012
 30
0.0
 42
0.4142135623730967
  0
VERTEX
  5
194
  8
LAYER_01
 10
383.0547669032914
 20
662.4437193221701
 30
0.0
  0
VERTEX
  5
195
  8
LAYER_01
 10
383.0547669032912
 20
651.9930474157875
 30
0.0
  0
VERTEX
  5
196
  8
LAYER_01
 10
339.0742879347887
 20
651.9930474157874
 30
0.0
  0
VERTEX
  5
197
  8
LAYER_01
 10
339.0742879347886
 20
700.920010903392
 30
0.0
  0
VERTEX
  5
198
  8
LAYER_01
 10
462.3725037875572
 20
700.920010903392
 30
0.0
  0
VERTEX
  5
199
  8
LAYER_01
 10
462.3725037875572
 20
691.2576947770013
 30
0.0
  0
SEQEND
  5
19A
  8
LAYER_01
  0
POLYLINE
  5
19B
  8
LAYER_01
 66
     1
 10
0.0
 20
0.0
 30
0.0
 70
     1
  0
VERTEX
  5
19C
  8
LAYER_01
 10
462.3725037875572
 20
645.3267298945892
 30
0.0
 42
0.4142135623730905
  0
VERTEX
  5
19D
  8
LAYER_01
 10
477.6963675464534
 20
630.002866135693
 30
0.0
  0
VERTEX
  5
19E
  8
LAYER_01
 10
502.859353161803
 20
630.002866135693
 30
0.0
  0
VERTEX
  5
19F
  8
LAYER_01
 10
502.859353161803
 20
593.3490352340345
 30
0.0
 42
0.0507930482734991
  0
VERTEX
  5
1A0
  8
LAYER_01
 10
503.2661450982215
 20
589.3549607104245
 30
0.0
  0
VERTEX
  5
1A1
  8
LAYER_01
 10
450.8151763078189
 20
589.3549607104245
 30
0.0
 42
-0.4142135623730965
  0
VERTEX
  5
1A2
  8
LAYER_01
 10
432.1874580836924
 20
607.982678934551
 30
0.0
  0
VERTEX
  5
1A3
  8
LAYER_01
 10
432.1874580836924
 20
664.2564330870132
 30
0.0
 42
-0.4142135623730944
  0
VERTEX
  5
1A4
  8
LAYER_01
 10
450.8151763078189
 20
682.8841513111397
 30
0.0
  0
VERTEX
  5
1A5
  8
LAYER_01
 10
462.3725037875572
 20
682.8841513111397
 30
0.0
  0
SEQEND
  5
1A6
  8
LAYER_01
  0
POLYLINE
  5
1A7
  8
LAYER_01
 66
     1
 10
0.0
 20
0.0
 30
0.0
 70
     1
  0
VERTEX
  5
1A8
  8
LAYER_01
 10
429.40647219574
 20
407.536424268455
 30
0.0
 42
0.414213562373095
  0
VERTEX
  5
1A9
  8
LAYER_01
 10
444.3610387633951
 20
422.4909908361101
 30
0.0
  0
VERTEX
  5
1AA
  8
LAYER_01
 10
444.3610387633952
 20
466.694653673756
 30
0.0
  0
VERTEX
  5
1AB
  8
LAYER_01
 10
360.3850286720266
 20
466.6946536737559
 30
0.0
 42
0.3472771961551362
  0
VERTEX
  5
1AC
  8
LAYER_01
 10
337.9066486665299
 20
448.9410906481551
 30
0.0
  0
VERTEX
  5
1AD
  8
LAYER_01
 10
406.2475917052195
 20
448.9410906481551
 30
0.0
 42
-0.4142135623730955
  0
VERTEX
  5
1AE
  8
LAYER_01
 10
426.1216114810948
 20
429.0670708722798
 30
0.0
  0
VERTEX
  5
1AF
  8
LAYER_01
 10
426.1216114810948
 20
407.536424268455
 30
0.0
  0
SEQEND
  5
1B0
  8
LAYER_01
  0
POLYLINE
  5
1B1
  8
LAYER_01
 66
     1
 10
0.0
 20
0.0
 30
0.0
 70
     1
  0
VERTEX
  5
1B2
  8
LAYER_01
 10
411.0100241502049
 20
416.7836743688692
 30
0.0
 42
0.4142135623730953
  0
VERTEX
  5
1B3
  8
LAYER_01
 10
389.1602061353781
 20
438.6334923836961
 30
0.0
  0
VERTEX
  5
1B4
  8
LAYER_01
 10
337.2779327445112
 20
438.6334923836961
 30
0.0
  0
VERTEX
  5
1B5
  8
LAYER_01
 10
337.2779327445113
 20
407.536424268455
 30
0.0
  0
VERTEX
  5
1B6
  8
LAYER_01
 10
411.0100241502049
 20
407.536424268455
 30
0.0
  0
SEQEND
  5
1B7
  8
LAYER_01
  0
POLYLINE
  5
1B8
  8
LAYER_01
 66
     1
 10
0.0
 20
0.0
 30
0.0
 70
     1
  0
VERTEX
  5
1B9
  8
LAYER_01
 10
492.3433343126037
 20
415.1871659028748
 30
0.0
 42
0.3308578069746597
  0
VERTEX
  5
1BA
  8
LAYER_01
 10
503.5396142720632
 20
400.1192759815077
 30
0.0
  0
VERTEX
  5
1BB
  8
LAYER_01
 10
503.5396142720633
 20
353.3857420298869
 30
0.0
 42
0.414213562373094
  0
VERTEX
  5
1BC
  8
LAYER_01
 10
477.1001206854509
 20
379.8252356164994
 30
0.0
  0
VERTEX
  5
1BD
  8
LAYER_01
 10
426.1216114810948
 20
379.8252356164994
 30
0.0
  0
VERTEX
  5
1BE
  8
LAYER_01
 10
426.1216114810948
 20
400.7863094711406
 30
0.0
  0
VERTEX
  5
1BF
  8
LAYER_01
 10
444.252939111708
 20
400.7863094711407
 30
0.0
 42
0.4142135623730946
  0
VERTEX
  5
1C0
  8
LAYER_01
 10
473.2143725468379
 20
429.7477429062706
 30
0.0
  0
VERTEX
  5
1C1
  8
LAYER_01
 10
473.2143725468378
 20
466.694653673756
 30
0.0
  0
VERTEX
  5
1C2
  8
LAYER_01
 10
492.3433343126036
 20
466.6946536737559
 30
0.0
  0
SEQEND
  5
1C3
  8
LAYER_01
  0
POLYLINE
  5
1C4
  8
LAYER_01
 66
     1
 10
0.0
 20
0.0
 30
0.0
 70
     1
  0
VERTEX
  5
1C5
  8
LAYER_01
 10
508.0806145918136
 20
510.1665479024697
 30
0.0
 42
0.4142135623730944
  0
VERTEX
  5
1C6
  8
LAYER_01
 10
492.3433343126037
 20
494.4292676232599
 30
0.0
  0
VERTEX
  5
1C7
  8
LAYER_01
 10
492.3433343126038
 20
489.726758793715
 30
0.0
  0
VERTEX
  5
1C8
  8
LAYER_01
 10
473.2143725468379
 20
489.726758793715
 30
0.0
  0
VERTEX
  5
1C9
  8
LAYER_01
 10
473.2143725468379
 20
520.8538214617104
 30
0.0
 42
0.4142135623730946
  0
VERTEX
  5
1CA
  8
LAYER_01
 10
444.252939111708
 20
549.8152548968403
 30
0.0
  0
VERTEX
  5
1CB
  8
LAYER_01
 10
426.7110275795982
 20
549.8152548968403
 30
0.0
  0
VERTEX
  5
1CC
  8
LAYER_01
 10
426.7110275795982
 20
559.5633652685224
 30
0.0
  0
VERTEX
  5
1CD
  8
LAYER_01
 10
534.4830342483313
 20
559.5633652685225
 30
0.0
  0
VERTEX
  5
1CE
  8
LAYER_01
 10
534.4830342483313
 20
510.1665479024698
 30
0.0
  0
SEQEND
  5
1CF
  8
LAYER_01
  0
POLYLINE
  5
1D0
  8
LAYER_01
 66
     1
 10
0.0
 20
0.0
 30
0.0
 70
     1
  0
VERTEX
  5
1D1
  8
LAYER_01
 10
511.0594630746972
 20
344.4732305427364
 30
0.0
 42
0.4142135623730943
  0
VERTEX
  5
1D2
  8
LAYER_01
 10
525.6520761375876
 20
329.880617479846
 30
0.0
  0
VERTEX
  5
1D3
  8
LAYER_01
 10
534.4830342483313
 20
329.8806174798459
 30
0.0
  0
VERTEX
  5
1D4
  8
LAYER_01
 10
534.4830342483313
 20
399.4498856236649
 30
0.0
  0
VERTEX
  5
1D5
  8
LAYER_01
 10
511.0594630746972
 20
399.4498856236649
 30
0.0
  0
SEQEND
  5
1D6
  8
LAYER_01
  0
POLYLINE
  5
1D7
  8
LAYER_01
 66
     1
 10
0.0
 20
0.0
 30
0.0
 70
     1
  0
VERTEX
  5
1D8
  8
LAYER_01
 10
479.3260776391503
 20
267.9344153062733
 30
0.0
 42
-0.4142135623730942
  0
VERTEX
  5
1D9
  8
LAYER_01
 10
449.3401627949791
 20
237.9485004621021
 30
0.0
  0
VERTEX
  5
1DA
  8
LAYER_01
 10
335.3330843415205
 20
237.9485004621021
 30
0.0
 42
-0.3476899760633083
  0
VERTEX
  5
1DB
  8
LAYER_01
 10
306.1528464448125
 20
261.0301553652362
 30
0.0
  0
VERTEX
  5
1DC
  8
LAYER_01
 10
406.2475917052195
 20
261.0301553652362
 30
0.0
 42
0.4142135623730956
  0
VERTEX
  5
1DD
  8
LAYER_01
 10
426.1216114810947
 20
280.9041751411115
 30
0.0
  0
VERTEX
  5
1DE
  8
LAYER_01
 10
426.1216114810948
 20
299.5247881803182
 30
0.0
  0
VERTEX
  5
1DF
  8
LAYER_01
 10
479.3260776391502
 20
299.5247881803181
 30
0.0
  0
SEQEND
  5
1E0
  8
LAYER_01
  0
POLYLINE
  5
1E1
  8
LAYER_01
 66
     1
 10
0.0
 20
0.0
 30
0.0
 70
     1
  0
VERTEX
  5
1E2
  8
LAYER_01
 10
462.6105530334455
 20
134.3723327213298
 30
0.0
 42
0.4142135623730955
  0
VERTEX
  5
1E3
  8
LAYER_01
 10
477.4469807254077
 20
119.5359050293677
 30
0.0
  0
VERTEX
  5
1E4
  8
LAYER_01
 10
502.9055349788977
 20
119.5359050293677
 30
0.0
  0
VERTEX
  5
1E5
  8
LAYER_01
 10
502.9055349788978
 20
95.29687451210785
 30
0.0
  0
VERTEX
  5
1E6
  8
LAYER_01
 10
431.3556624608848
 20
95.29687451210798
 30
0.0
  0
VERTEX
  5
1E7
  8
LAYER_01
 10
431.3556624608848
 20
142.3332148839069
 30
0.0
 42
-0.4142135623730951
  0
VERTEX
  5
1E8
  8
LAYER_01
 10
459.3574413093307
 20
170.3349937323527
 30
0.0
  0
VERTEX
  5
1E9
  8
LAYER_01
 10
462.6105530334455
 20
170.3349937323527
 30
0.0
  0
SEQEND
  5
1EA
  8
LAYER_01
  0
POLYLINE
  5
1EB
  8
LAYER_01
 66
     1
 10
0.0
 20
0.0
 30
0.0
 70
     1
  0
VERTEX
  5
1EC
  8
LAYER_01
 10
178.5523996094771
 20
330.7547382502568
 30
0.0
 42
0.4142135623730989
  0
VERTEX
  5
1ED
  8
LAYER_01
 10
193.9087597608946
 20
346.1110984016744
 30
0.0
  0
VERTEX
  5
1EE
  8
LAYER_01
 10
193.9087597608947
 20
369.8193020559529
 30
0.0
  0
VERTEX
  5
1EF
  8
LAYER_01
 10
177.9040495769927
 20
369.8193020559528
 30
0.0
  0
VERTEX
  5
1F0
  8
LAYER_01
 10
177.9040495769927
 20
330.7547382502568
 30
0.0
  0
SEQEND
  5
1F1
  8
LAYER_01
  0
POLYLINE
  5
1F2
  8
LAYER_01
 66
     1
 10
0.0
 20
0.0
 30
0.0
 70
     1
  0
VERTEX
  5
1F3
  8
LAYER_01
 10
179.3216551093133
 20
424.5257180493688
 30
0.0
 42
0.0907976338160831
  0
VERTEX
  5
1F4
  8
LAYER_01
 10
177.9040495769929
 20
416.7836743688692
 30
0.0
  0
VERTEX
  5
1F5
  8
LAYER_01
 10
177.9040495769927
 20
394.337592789026
 30
0.0
  0
VERTEX
  5
1F6
  8
LAYER_01
 10
193.9087597608947
 20
394.3375927890258
 30
0.0
  0
VERTEX
  5
1F7
  8
LAYER_01
 10
193.9087597608947
 20
409.1886373924763
 30
0.0
 42
0.3996103605430681
  0
SEQEND
  5
1F8
  8
LAYER_01
  0
POLYLINE
  5
1F9
  8
LAYER_01
 66
     1
 10
0.0
 20
0.0
 30
0.0
 70
     1
  0
VERTEX
  5
1FA
  8
LAYER_01
 10
197.7877908759189
 20
679.8284171651592
 30
0.0
 42
0.4142135623730961
  0
VERTEX
  5
1FB
  8
LAYER_01
 10
222.3595788611457
 20
704.4002051503861
 30
0.0
  0
VERTEX
  5
1FC
  8
LAYER_01
 10
222.3595788611458
 20
737.2776737753204
 30
0.0
  0
VERTEX
  5
1FD
  8
LAYER_01
 10
160.0121964343961
 20
737.2776737753204
 30
0.0
 42
0.4142135623730946
  0
VERTEX
  5
1FE
  8
LAYER_01
 10
136.729954471337
 20
713.9954318122614
 30
0.0
  0
VERTEX
  5
1FF
  8
LAYER_01
 10
136.729954471337
 20
711.5437497102337
 30
0.0
  0
VERTEX
  5
200
  8
LAYER_01
 10
169.8900281718153
 20
711.5437497102337
 30
0.0
 42
-0.4142135623730958
  0
VERTEX
  5
201
  8
LAYER_01
 10
188.7931228165426
 20
692.6406550655064
 30
0.0
  0
VERTEX
  5
202
  8
LAYER_01
 10
188.7931228165426
 20
679.8284171651592
 30
0.0
  0
SEQEND
  5
203
  8
LAYER_01
  0
POLYLINE
  5
204
  8
LAYER_01
 66
     1
 10
0.0
 20
0.0
 30
0.0
 70
     1
  0
VERTEX
  5
205
  8
LAYER_01
 10
166.1718344017557
 20
938.984603178957
 30
0.0
  0
VERTEX
  5
206
  8
LAYER_01
 10
127.3524554237553
 20
938.9846031789571
 30
0.0
  0
VERTEX
  5
207
  8
LAYER_01
 10
127.3524554237553
 20
919.291047116917
 30
0.0
 42
0.4142135623730971
  0
VERTEX
  5
208
  8
LAYER_01
 10
139.801016533366
 20
906.8424860073063
 30
0.0
  0
VERTEX
  5
209
  8
LAYER_01
 10
165.6753143472577
 20
906.8424860073063
 30
0.0
  0
VERTEX
  5
20A
  8
LAYER_01
 10
165.6753143472578
 20
933.3840414413686
 30
0.0
 42
-0.0442409403268401
  0
SEQEND
  5
20B
  8
LAYER_01
  0
POLYLINE
  5
20C
  8
LAYER_01
 66
     1
 10
0.0
 20
0.0
 30
0.0
 70
     1
  0
VERTEX
  5
20D
  8
LAYER_01
 10
213.2786445223909
 20
906.8424860073063
 30
0.0
 42
0.4142135623730913
  0
VERTEX
  5
20E
  8
LAYER_01
 10
225.7272056320017
 20
919.291047116917
 30
0.0
  0
VERTEX
  5
20F
  8
LAYER_01
 10
225.7272056320017
 20
953.9004501615932
 30
0.0
  0
VERTEX
  5
210
  8
LAYER_01
 10
206.751443688872
 20
953.9004501615932
 30
0.0
 42
0.1780684926521443
  0
VERTEX
  5
211
  8
LAYER_01
 10
189.6653882463992
 20
947.616210784646
 30
0.0
 42
-0.3731197769277756
  0
VERTEX
  5
212
  8
LAYER_01
 10
206.8525290903167
 20
927.790974947538
 30
0.0
  0
VERTEX
  5
213
  8
LAYER_01
 10
206.8525290903167
 20
906.8424860073063
 30
0.0
  0
SEQEND
  5
214
  8
LAYER_01
  0
POLYLINE
  5
215
  8
LAYER_01
 66
     1
 10
0.0
 20
0.0
 30
0.0
 70
     1
  0
VERTEX
  5
216
  8
LAYER_01
 10
339.0486756097593
 20
847.0631308802668
 30
0.0
 42
0.4142135623730955
  0
VERTEX
  5
217
  8
LAYER_01
 10
365.4837455883587
 20
820.6280609016674
 30
0.0
  0
VERTEX
  5
218
  8
LAYER_01
 10
414.6617525452676
 20
820.6280609016674
 30
0.0
  0
VERTEX
  5
219
  8
LAYER_01
 10
414.6617525452677
 20
880.1477785217849
 30
0.0
  0
VERTEX
  5
21A
  8
LAYER_01
 10
339.0486756097594
 20
880.1477785217849
 30
0.0
  0
SEQEND
  5
21B
  8
LAYER_01
  0
POLYLINE
  5
21C
  8
LAYER_01
 66
     1
 10
0.0
 20
0.0
 30
0.0
 70
     1
  0
VERTEX
  5
21D
  8
LAYER_01
 10
414.6617525452676
 20
927.5309139894183
 30
0.0
 42
0.4142135623730928
  0
VERTEX
  5
21E
  8
LAYER_01
 10
388.2922163730927
 20
953.9004501615933
 30
0.0
  0
VERTEX
  5
21F
  8
LAYER_01
 10
339.0486756097593
 20
953.9004501615931
 30
0.0
  0
VERTEX
  5
220
  8
LAYER_01
 10
339.0486756097592
 20
924.7160596054653
 30
0.0
  0
VERTEX
  5
221
  8
LAYER_01
 10
414.6617525452675
 20
924.7160596054651
 30
0.0
  0
SEQEND
  5
222
  8
LAYER_01
  0
POLYLINE
  5
223
  8
LAYER_01
 66
     1
 10
0.0
 20
0.0
 30
0.0
 70
     1
  0
VERTEX
  5
224
  8
LAYER_01
 10
414.6617525452676
 20
918.0522785623983
 30
0.0
  0
VERTEX
  5
225
  8
LAYER_01
 10
414.6617525452676
 20
893.2039722428442
 30
0.0
  0
VERTEX
  5
226
  8
LAYER_01
 10
339.0486756097593
 20
893.2039722428443
 30
0.0
  0
VERTEX
  5
227
  8
LAYER_01
 10
339.0486756097592
 20
918.0522785623984
 30
0.0
  0
SEQEND
  5
228
  8
LAYER_01
  0
POLYLINE
  5
229
  8
LAYER_01
 66
     1
 10
0.0
 20
0.0
 30
0.0
 70
     1
  0
VERTEX
  5
22A
  8
LAYER_01
 10
395.9268101756514
 20
965.2184292517604
 30
0.0
 42
-0.4142135623730959
  0
VERTEX
  5
22B
  8
LAYER_01
 10
427.7611979860433
 20
933.3840414413686
 30
0.0
  0
VERTEX
  5
22C
  8
LAYER_01
 10
427.7611979860433
 20
924.7160596054651
 30
0.0
  0
VERTEX
  5
22D
  8
LAYER_01
 10
436.1897763695829
 20
924.7160596054651
 30
0.0
 42
0.4142135623730909
  0
VERTEX
  5
22E
  8
LAYER_01
 10
448.8261115177571
 20
937.3523947536394
 30
0.0
  0
VERTEX
  5
22F
  8
LAYER_01
 10
448.8261115177572
 20
981.4412987850774
 30
0.0
  0
VERTEX
  5
230
  8
LAYER_01
 10
365.4837455883587
 20
981.4412987850773
 30
0.0
 42
0.302273715646446
  0
VERTEX
  5
231
  8
LAYER_01
 10
341.1008850744893
 20
965.2184292517607
 30
0.0
  0
SEQEND
  5
232
  8
LAYER_01
  0
POLYLINE
  5
233
  8
LAYER_01
 66
     1
 10
0.0
 20
0.0
 30
0.0
 70
     1
  0
VERTEX
  5
234
  8
LAYER_01
 10
115.9978991261761
 20
660.4482848743631
 30
0.0
  0
VERTEX
  5
235
  8
LAYER_01
 10
126.8792698340403
 20
660.448284874363
 30
0.0
  0
VERTEX
  5
236
  8
LAYER_01
 10
126.8792698340403
 20
633.639733633564
 30
0.0
  0
VERTEX
  5
237
  8
LAYER_01
 10
115.9978991261761
 20
633.6397336335639
 30
0.0
  0
SEQEND
  5
238
  8
LAYER_01
  0
POLYLINE
  5
239
  8
LAYER_01
 66
     1
 10
0.0
 20
0.0
 30
0.0
 70
     1
  0
VERTEX
  5
23A
  8
LAYER_01
 10
115.9978991261761
 20
147.3228008478893
 30
0.0
  0
VERTEX
  5
23B
  8
LAYER_01
 10
128.4821344767419
 20
147.3228008478893
 30
0.0
  0
VERTEX
  5
23C
  8
LAYER_01
 10
128.4821344767419
 20
121.5668731006044
 30
0.0
  0
VERTEX
  5
23D
  8
LAYER_01
 10
115.9978991261761
 20
121.5668731006043
 30
0.0
  0
SEQEND
  5
23E
  8
LAYER_01
  0
POLYLINE
  5
23F
  8
LAYER_01
 66
     1
 10
0.0
 20
0.0
 30
0.0
 70
     1
  0
VERTEX
  5
240
  8
LAYER_01
 10
516.0558523197972
 20
119.5359050293676
 30
0.0
  0
VERTEX
  5
241
  8
LAYER_01
 10
516.0558523197973
 20
95.29687451210783
 30
0.0
  0
VERTEX
  5
242
  8
LAYER_01
 10
534.4830342483313
 20
95.29687451210783
 30
0.0
  0
VERTEX
  5
243
  8
LAYER_01
 10
534.4830342483313
 20
119.5359050293676
 30
0.0
  0
SEQEND
  5
244
  8
LAYER_01
  0
POLYLINE
  5
245
  8
LAYER_01
 66
     1
 10
0.0
 20
0.0
 30
0.0
 70
     1
  0
VERTEX
  5
246
  8
LAYER_01
 10
242.4362886351206
 20
132.8208624559755
 30
0.0
 42
0.4142135623730952
  0
VERTEX
  5
247
  8
LAYER_01
 10
216.3613266893041
 20
106.745900510159
 30
0.0
  0
VERTEX
  5
248
  8
LAYER_01
 10
216.3613266893039
 20
95.29687451210783
 30
0.0
  0
VERTEX
  5
249
  8
LAYER_01
 10
315.0588073554773
 20
95.29687451210782
 30
0.0
  0
VERTEX
  5
24A
  8
LAYER_01
 10
315.0588073554773
 20
132.8208624559755
 30
0.0
  0
SEQEND
  5
24B
  8
LAYER_01
  0
POLYLINE
  5
24C
  8
LAYER_01
 66
     1
 10
0.0
 20
0.0
 30
0.0
 70
     1
  0
VERTEX
  5
24D
  8
LAYER_01
 10
198.6548539070022
 20
170.131670423489
 30
0.0
 42
0.4142135623730948
  0
VERTEX
  5
24E
  8
LAYER_01
 10
222.5177301458376
 20
193.9945466623245
 30
0.0
  0
VERTEX
  5
24F
  8
LAYER_01
 10
222.5177301458376
 20
223.6361817763419
 30
0.0
  0
VERTEX
  5
250
  8
LAYER_01
 10
154.3727896088235
 20
223.6361817763419
 30
0.0
 42
0.4142135623730946
  0
VERTEX
  5
251
  8
LAYER_01
 10
138.8482204440783
 20
208.1116126115966
 30
0.0
  0
VERTEX
  5
252
  8
LAYER_01
 10
138.8482204440783
 20
200.5801359535047
 30
0.0
  0
VERTEX
  5
253
  8
LAYER_01
 10
170.7343648239861
 20
200.5801359535046
 30
0.0
 42
-0.4142135623730954
  0
VERTEX
  5
254
  8
LAYER_01
 10
188.3040266218194
 20
183.0104741556713
 30
0.0
  0
VERTEX
  5
255
  8
LAYER_01
 10
188.3040266218194
 20
170.131670423489
 30
0.0
  0
SEQEND
  5
256
  8
LAYER_01
  0
POLYLINE
  5
257
  8
LAYER_01
 66
     1
 10
0.0
 20
0.0
 30
0.0
 70
     1
  0
VERTEX
  5
258
  8
LAYER_01
 10
165.5297565002977
 20
369.8193020559529
 30
0.0
  0
VERTEX
  5
259
  8
LAYER_01
 10
115.9978991261761
 20
369.8193020559529
 30
0.0
  0
VERTEX
  5
25A
  8
LAYER_01
 10
115.9978991261761
 20
330.7547382502568
 30
0.0
  0
VERTEX
  5
25B
  8
LAYER_01
 10
165.5297565002977
 20
330.7547382502567
 30
0.0
  0
SEQEND
  5
25C
  8
LAYER_01
  0
POLYLINE
  5
25D
  8
LAYER_01
 66
     1
 10
0.0
 20
0.0
 30
0.0
 70
     1
  0
VERTEX
  5
25E
  8
LAYER_01
 10
187.9681761867184
 20
313.3864940933101
 30
0.0
 42
0.414213562373097
  0
VERTEX
  5
25F
  8
LAYER_01
 10
205.8647102735594
 20
331.2830281801512
 30
0.0
  0
VERTEX
  5
260
  8
LAYER_01
 10
205.8647102735594
 20
369.8193020559528
 30
0.0
  0
VERTEX
  5
261
  8
LAYER_01
 10
226.3901019728354
 20
369.8193020559528
 30
0.0
 42
0.4142135623730928
  0
VERTEX
  5
262
  8
LAYER_01
 10
237.6045682147964
 20
381.0337682979138
 30
0.0
  0
VERTEX
  5
263
  8
LAYER_01
 10
237.6045682147964
 20
438.6334923836961
 30
0.0
  0
VERTEX
  5
264
  8
LAYER_01
 10
263.1517494109779
 20
438.6334923836961
 30
0.0
  0
VERTEX
  5
265
  8
LAYER_01
 10
263.1517494109778
 20
429.7477429062706
 30
0.0
 42
0.4142135623730951
  0
VERTEX
  5
266
  8
LAYER_01
 10
292.1131828461077
 20
400.7863094711406
 30
0.0
  0
VERTEX
  5
267
  8
LAYER_01
 10
325.842825951283
 20
400.7863094711407
 30
0.0
  0
VERTEX
  5
268
  8
LAYER_01
 10
325.842825951283
 20
379.8252356164992
 30
0.0
  0
VERTEX
  5
269
  8
LAYER_01
 10
263.2417405882866
 20
379.8252356164993
 30
0.0
 42
0.4142135623730951
  0
VERTEX
  5
26A
  8
LAYER_01
 10
236.8022470016743
 20
353.3857420298869
 30
0.0
  0
VERTEX
  5
26B
  8
LAYER_01
 10
236.7722643866208
 20
270.4989772342132
 30
0.0
 42
0.4011345675538245
  0
VERTEX
  5
26C
  8
LAYER_01
 10
206.9997347027615
 20
298.9649957805921
 30
0.0
  0
VERTEX
  5
26D
  8
LAYER_01
 10
177.9040495769927
 20
298.964995780592
 30
0.0
  0
VERTEX
  5
26E
  8
LAYER_01
 10
177.9040495769927
 20
313.3864940933102
 30
0.0
  0
SEQEND
  5
26F
  8
LAYER_01
  0
POLYLINE
  5
270
  8
LAYER_01
 66
     1
 10
0.0
 20
0.0
 30
0.0
 70
     1
  0
VERTEX
  5
271
  8
LAYER_01
 10
188.2794498999067
 20
435.3780898184757
 30
0.0
 42
-0.4091281529978834
  0
VERTEX
  5
272
  8
LAYER_01
 10
205.8647102735594
 20
417.4842629221145
 30
0.0
  0
VERTEX
  5
273
  8
LAYER_01
 10
205.8647102735594
 20
394.337592789026
 30
0.0
  0
VERTEX
  5
274
  8
LAYER_01
 10
208.4395423834674
 20
394.3375927890259
 30
0.0
 42
0.4142135623730944
  0
VERTEX
  5
275
  8
LAYER_01
 10
222.1613204149913
 20
408.0593708205498
 30
0.0
  0
VERTEX
  5
276
  8
LAYER_01
 10
222.1613204149913
 20
438.6334923836961
 30
0.0
  0
VERTEX
  5
277
  8
LAYER_01
 10
199.7538675918196
 20
438.6334923836961
 30
0.0
 42
0.1391097003680101
  0
SEQEND
  5
278
  8
LAYER_01
  0
POLYLINE
  5
279
  8
LAYER_01
 66
     1
 10
0.0
 20
0.0
 30
0.0
 70
     1
  0
VERTEX
  5
27A
  8
LAYER_01
 10
164.2326277225259
 20
454.9091214281385
 30
0.0
 42
0.4142135623730959
  0
VERTEX
  5
27B
  8
LAYER_01
 10
176.3442512638438
 20
467.0207449694565
 30
0.0
  0
VERTEX
  5
27C
  8
LAYER_01
 10
176.3442512638438
 20
468.9399248859132
 30
0.0
  0
VERTEX
  5
27D
  8
LAYER_01
 10
141.0413471067867
 20
468.9399248859132
 30
0.0
 42
0.414213562373095
  0
VERTEX
  5
27E
  8
LAYER_01
 10
127.3195690752628
 20
455.2181468543894
 30
0.0
  0
VERTEX
  5
27F
  8
LAYER_01
 10
127.3195690752628
 20
454.9091214281385
 30
0.0
  0
SEQEND
  5
280
  8
LAYER_01
  0
POLYLINE
  5
281
  8
LAYER_01
 66
     1
 10
0.0
 20
0.0
 30
0.0
 70
     1
  0
VERTEX
  5
282
  8
LAYER_01
 10
177.0674441677854
 20
686.6625573950244
 30
0.0
 42
0.414213562373098
  0
VERTEX
  5
283
  8
LAYER_01
 10
162.116237407157
 20
701.6137641556527
 30
0.0
  0
VERTEX
  5
284
  8
LAYER_01
 10
136.729954471337
 20
701.6137641556527
 30
0.0
  0
VERTEX
  5
285
  8
LAYER_01
 10
136.729954471337
 20
679.8284171651592
 30
0.0
  0
VERTEX
  5
286
  8
LAYER_01
 10
177.0674441677854
 20
679.8284171651592
 30
0.0
  0
SEQEND
  5
287
  8
LAYER_01
  0
POLYLINE
  5
288
  8
LAYER_01
 66
     1
 10
0.0
 20
0.0
 30
0.0
 70
     1
  0
VERTEX
  5
289
  8
LAYER_01
 10
115.9978991261761
 20
881.9893645622008
 30
0.0
  0
VERTEX
  5
28A
  8
LAYER_01
 10
165.6753143472578
 20
881.9893645622009
 30
0.0
  0
VERTEX
  5
28B
  8
LAYER_01
 10
165.6753143472578
 20
841.5924894372928
 30
0.0
  0
VERTEX
  5
28C
  8
LAYER_01
 10
115.9978991261761
 20
841.5924894372927
 30
0.0
  0
SEQEND
  5
28D
  8
LAYER_01
  0
POLYLINE
  5
28E
  8
LAYER_01
 66
     1
 10
0.0
 20
0.0
 30
0.0
 70
     1
  0
VERTEX
  5
28F
  8
LAYER_01
 10
238.5809997634432
 20
977.5594898918889
 30
0.0
 42
0.4142135623730955
  0
VERTEX
  5
290
  8
LAYER_01
 10
226.649836392901
 20
989.4906532624311
 30
0.0
  0
VERTEX
  5
291
  8
LAYER_01
 10
187.0584241113432
 20
989.4906532624312
 30
0.0
  0
VERTEX
  5
292
  8
LAYER_01
 10
187.0584241113431
 20
1004.020245897118
 30
0.0
  0
VERTEX
  5
293
  8
LAYER_01
 10
267.5787269419397
 20
1004.020245897118
 30
0.0
  0
VERTEX
  5
294
  8
LAYER_01
 10
267.5787269419396
 20
965.2184292517604
 30
0.0
  0
VERTEX
  5
295
  8
LAYER_01
 10
238.5809997634432
 20
965.2184292517604
 30
0.0
  0
SEQEND
  5
296
  8
LAYER_01
  0
POLYLINE
  5
297
  8
LAYER_01
 66
     1
 10
0.0
 20
0.0
 30
0.0
 70
     1
  0
VERTEX
  5
298
  8
LAYER_01
 10
473.6098707495941
 20
138.255617129219
 30
0.0
 42
0.4142135623730972
  0
VERTEX
  5
299
  8
LAYER_01
 10
486.3389134786185
 20
125.5265744001945
 30
0.0
  0
VERTEX
  5
29A
  8
LAYER_01
 10
502.9055349788977
 20
125.574388820097
 30
0.0
 42
-0.4142135623730933
  0
VERTEX
  5
29B
  8
LAYER_01
 10
527.6654813749282
 20
150.3343352161274
 30
0.0
  0
VERTEX
  5
29C
  8
LAYER_01
 10
534.4830342483313
 20
150.3343352161274
 30
0.0
  0
VERTEX
  5
29D
  8
LAYER_01
 10
534.4830342483313
 20
170.3349937323527
 30
0.0
  0
VERTEX
  5
29E
  8
LAYER_01
 10
473.6098707495941
 20
170.3349937323527
 30
0.0
  0
SEQEND
  5
29F
  8
LAYER_01
  0
POLYLINE
  5
2A0
  8
LAYER_01
 66
     1
 10
0.0
 20
0.0
 30
0.0
 70
     1
  0
VERTEX
  5
2A1
  8
LAYER_01
 10
165.5297565002977
 20
280.9041751411115
 30
0.0
 42
0.4142135623730956
  0
VERTEX
  5
2A2
  8
LAYER_01
 10
185.403776276173
 20
261.0301553652361
 30
0.0
  0
VERTEX
  5
2A3
  8
LAYER_01
 10
222.5177301458376
 20
261.0301553652362
 30
0.0
  0
VERTEX
  5
2A4
  8
LAYER_01
 10
222.5177301458377
 20
233.1723129574503
 30
0.0
  0
VERTEX
  5
2A5
  8
LAYER_01
 10
155.1025792288369
 20
233.1723129574503
 30
0.0
 42
0.4142135623730953
  0
VERTEX
  5
2A6
  8
LAYER_01
 10
128.4821344767419
 20
206.5518682053553
 30
0.0
  0
VERTEX
  5
2A7
  8
LAYER_01
 10
128.4821344767419
 20
200.5801359535047
 30
0.0
  0
VERTEX
  5
2A8
  8
LAYER_01
 10
115.9978991261761
 20
200.5801359535048
 30
0.0
  0
VERTEX
  5
2A9
  8
LAYER_01
 10
115.9978991261761
 20
289.7799918588301
 30
0.0
  0
VERTEX
  5
2AA
  8
LAYER_01
 10
165.5297565002978
 20
289.7799918588301
 30
0.0
  0
SEQEND
  5
2AB
  8
LAYER_01
  0
POLYLINE
  5
2AC
  8
LAYER_01
 66
     1
 10
0.0
 20
0.0
 30
0.0
 70
     1
  0
VERTEX
  5
2AD
  8
LAYER_01
 10
127.3195690752628
 20
408.0593708205498
 30
0.0
 42
0.4142135623730952
  0
VERTEX
  5
2AE
  8
LAYER_01
 10
141.0413471067867
 20
394.3375927890259
 30
0.0
  0
VERTEX
  5
2AF
  8
LAYER_01
 10
165.5297565002977
 20
394.3375927890258
 30
0.0
  0
VERTEX
  5
2B0
  8
LAYER_01
 10
165.5297565002977
 20
424.5449975438939
 30
0.0
  0
VERTEX
  5
2B1
  8
LAYER_01
 10
127.3195690752628
 20
424.5449975438939
 30
0.0
  0
SEQEND
  5
2B2
  8
LAYER_01
  0
POLYLINE
  5
2B3
  8
LAYER_01
 66
     1
 10
0.0
 20
0.0
 30
0.0
 70
     1
  0
VERTEX
  5
2B4
  8
LAYER_01
 10
165.9457045335994
 20
447.9745739160071
 30
0.0
 42
0.3752310589015949
  0
VERTEX
  5
2B5
  8
LAYER_01
 10
189.9488670782536
 20
468.9399248859133
 30
0.0
  0
VERTEX
  5
2B6
  8
LAYER_01
 10
208.4395423834674
 20
468.9399248859132
 30
0.0
 42
-0.414213562373095
  0
VERTEX
  5
2B7
  8
LAYER_01
 10
222.1613204149913
 20
455.2181468543894
 30
0.0
  0
VERTEX
  5
2B8
  8
LAYER_01
 10
222.1613204149915
 20
448.9410906481551
 30
0.0
  0
VERTEX
  5
2B9
  8
LAYER_01
 10
185.403776276173
 20
448.9410906481551
 30
0.0
 42
0.3223980096421867
  0
VERTEX
  5
2BA
  8
LAYER_01
 10
166.5593202128385
 20
435.3807970089554
 30
0.0
  0
VERTEX
  5
2BB
  8
LAYER_01
 10
127.3195690752628
 20
435.3807970089555
 30
0.0
  0
VERTEX
  5
2BC
  8
LAYER_01
 10
127.3195690752628
 20
447.9745739160071
 30
0.0
  0
SEQEND
  5
2BD
  8
LAYER_01
  0
POLYLINE
  5
2BE
  8
LAYER_01
 66
     1
 10
0.0
 20
0.0
 30
0.0
 70
     1
  0
VERTEX
  5
2BF
  8
LAYER_01
 10
115.9978991261761
 20
989.4906532624311
 30
0.0
  0
VERTEX
  5
2C0
  8
LAYER_01
 10
180.7831549880375
 20
989.4906532624311
 30
0.0
  0
VERTEX
  5
2C1
  8
LAYER_01
 10
180.7831549880376
 20
1004.020245897118
 30
0.0
  0
VERTEX
  5
2C2
  8
LAYER_01
 10
115.9978991261761
 20
1004.020245897118
 30
0.0
  0
SEQEND
  5
2C3
  8
LAYER_01
  0
POLYLINE
  5
2C4
  8
LAYER_01
 66
     1
 10
0.0
 20
0.0
 30
0.0
 70
     1
  0
VERTEX
  5
2C5
  8
LAYER_01
 10
326.9524108907368
 20
848.870078612158
 30
0.0
  0
VERTEX
  5
2C6
  8
LAYER_01
 10
326.9524108907367
 20
878.9347715443423
 30
0.0
 42
0.337058716347345
  0
VERTEX
  5
2C7
  8
LAYER_01
 10
302.4859671273091
 20
846.7640475422106
 30
0.0
  0
VERTEX
  5
2C8
  8
LAYER_01
 10
302.4859671273091
 20
782.7330624775991
 30
0.0
 42
0.0424906338786928
  0
VERTEX
  5
2C9
  8
LAYER_01
 10
302.9664130316417
 20
777.0897190205727
 30
0.0
  0
VERTEX
  5
2CA
  8
LAYER_01
 10
388.2922163730927
 20
777.0897190205727
 30
0.0
 42
0.414213562373095
  0
VERTEX
  5
2CB
  8
LAYER_01
 10
414.6617525452676
 20
803.4592551927476
 30
0.0
  0
VERTEX
  5
2CC
  8
LAYER_01
 10
414.6617525452676
 20
812.4113408059509
 30
0.0
  0
VERTEX
  5
2CD
  8
LAYER_01
 10
363.4111486969439
 20
812.4113408059509
 30
0.0
 42
-0.4142135623730954
  0
SEQEND
  5
2CE
  8
LAYER_01
  0
POLYLINE
  5
2CF
  8
LAYER_01
 66
     1
 10
0.0
 20
0.0
 30
0.0
 70
     1
  0
VERTEX
  5
2D0
  8
LAYER_01
 10
289.0193309313454
 20
608.2949708001008
 30
0.0
 42
0.4142135623730948
  0
VERTEX
  5
2D1
  8
LAYER_01
 10
312.3015728944044
 20
631.5772127631599
 30
0.0
  0
VERTEX
  5
2D2
  8
LAYER_01
 10
312.3015728944044
 20
643.4959253804395
 30
0.0
  0
VERTEX
  5
2D3
  8
LAYER_01
 10
242.0128914349955
 20
643.4959253804395
 30
0.0
 42
0.4142135623730941
  0
VERTEX
  5
2D4
  8
LAYER_01
 10
215.7665464438598
 20
617.2495803893039
 30
0.0
  0
VERTEX
  5
2D5
  8
LAYER_01
 10
215.7665464438599
 20
608.2949708001008
 30
0.0
  0
SEQEND
  5
2D6
  8
LAYER_01
  0
POLYLINE
  5
2D7
  8
LAYER_01
 66
     1
 10
0.0
 20
0.0
 30
0.0
 70
     1
  0
VERTEX
  5
2D8
  8
LAYER_01
 10
498.0992932620281
 20
726.9346936272087
 30
0.0
 42
-0.407291919458257
  0
VERTEX
  5
2D9
  8
LAYER_01
 10
472.7008319758511
 20
700.9273102839994
 30
0.0
  0
VERTEX
  5
2DA
  8
LAYER_01
 10
472.7008319758513
 20
691.2576947770012
 30
0.0
  0
VERTEX
  5
2DB
  8
LAYER_01
 10
534.4830342483313
 20
691.2576947770013
 30
0.0
  0
VERTEX
  5
2DC
  8
LAYER_01
 10
534.4830342483313
 20
732.78100993517
 30
0.0
  0
VERTEX
  5
2DD
  8
LAYER_01
 10
498.099293262028
 20
732.78100993517
 30
0.0
  0
SEQEND
  5
2DE
  8
LAYER_01
  0
POLYLINE
  5
2DF
  8
LAYER_01
 66
     1
 10
0.0
 20
0.0
 30
0.0
 70
     1
  0
VERTEX
  5
2E0
  8
LAYER_01
 10
472.7008319758513
 20
652.0667503063955
 30
0.0
 42
0.4142135623730936
  0
VERTEX
  5
2E1
  8
LAYER_01
 10
488.1878835399349
 20
636.5796987423118
 30
0.0
  0
VERTEX
  5
2E2
  8
LAYER_01
 10
502.859353161803
 20
636.579698742312
 30
0.0
  0
VERTEX
  5
2E3
  8
LAYER_01
 10
502.859353161803
 20
639.5692157577715
 30
0.0
 42
-0.4142135623730966
  0
VERTEX
  5
2E4
  8
LAYER_01
 10
522.6706000630966
 20
659.3804626590652
 30
0.0
  0
VERTEX
  5
2E5
  8
LAYER_01
 10
534.4830342483313
 20
659.3804626590648
 30
0.0
  0
VERTEX
  5
2E6
  8
LAYER_01
 10
534.4830342483313
 20
682.8841513111398
 30
0.0
  0
VERTEX
  5
2E7
  8
LAYER_01
 10
472.7008319758513
 20
682.8841513111397
 30
0.0
  0
SEQEND
  5
2E8
  8
LAYER_01
  0
POLYLINE
  5
2E9
  8
LAYER_01
 66
     1
 10
0.0
 20
0.0
 30
0.0
 70
     1
  0
VERTEX
  5
2EA
  8
LAYER_01
 10
426.7110275795982
 20
526.3415303004024
 30
0.0
  0
VERTEX
  5
2EB
  8
LAYER_01
 10
426.7110275795982
 20
533.80197805733
 30
0.0
  0
VERTEX
  5
2EC
  8
LAYER_01
 10
429.40647219574
 20
533.80197805733
 30
0.0
 42
-0.414213562373095
  0
VERTEX
  5
2ED
  8
LAYER_01
 10
444.3610387633951
 20
518.8474114896749
 30
0.0
  0
VERTEX
  5
2EE
  8
LAYER_01
 10
444.3610387633951
 20
489.726758793715
 30
0.0
  0
VERTEX
  5
2EF
  8
LAYER_01
 10
354.1135198507802
 20
489.726758793715
 30
0.0
 42
0.4142135623730946
  0
VERTEX
  5
2F0
  8
LAYER_01
 10
325.842825951283
 20
461.4560648942178
 30
0.0
  0
VERTEX
  5
2F1
  8
LAYER_01
 10
325.842825951283
 20
448.9410906481551
 30
0.0
  0
VERTEX
  5
2F2
  8
LAYER_01
 10
273.5276521572388
 20
448.9410906481552
 30
0.0
  0
VERTEX
  5
2F3
  8
LAYER_01
 10
273.5276521572388
 20
497.3305410061784
 30
0.0
  0
VERTEX
  5
2F4
  8
LAYER_01
 10
397.7000382853741
 20
497.3305410061784
 30
0.0
 42
0.4142135623730952
  0
SEQEND
  5
2F5
  8
LAYER_01
  0
POLYLINE
  5
2F6
  8
LAYER_01
 66
     1
 10
0.0
 20
0.0
 30
0.0
 70
     1
  0
VERTEX
  5
2F7
  8
LAYER_01
 10
273.5276521572388
 20
422.4909908361101
 30
0.0
 42
0.414213562373095
  0
VERTEX
  5
2F8
  8
LAYER_01
 10
288.4822187248939
 20
407.536424268455
 30
0.0
  0
VERTEX
  5
2F9
  8
LAYER_01
 10
325.842825951283
 20
407.536424268455
 30
0.0
  0
VERTEX
  5
2FA
  8
LAYER_01
 10
325.8428259512829
 20
438.6334923836961
 30
0.0
  0
VERTEX
  5
2FB
  8
LAYER_01
 10
273.5276521572388
 20
438.6334923836961
 30
0.0
  0
SEQEND
  5
2FC
  8
LAYER_01
  0
POLYLINE
  5
2FD
  8
LAYER_01
 66
     1
 10
0.0
 20
0.0
 30
0.0
 70
     1
  0
VERTEX
  5
2FE
  8
LAYER_01
 10
449.3401627949791
 20
363.8130927016563
 30
0.0
  0
VERTEX
  5
2FF
  8
LAYER_01
 10
426.1216114810948
 20
363.8130927016563
 30
0.0
  0
VERTEX
  5
300
  8
LAYER_01
 10
426.1216114810948
 20
307.5896046475069
 30
0.0
  0
VERTEX
  5
301
  8
LAYER_01
 10
479.3260776391502
 20
307.589604647507
 30
0.0
  0
VERTEX
  5
302
  8
LAYER_01
 10
479.3260776391502
 20
333.8271778574851
 30
0.0
 42
0.4142135623730947
  0
SEQEND
  5
303
  8
LAYER_01
  0
POLYLINE
  5
304
  8
LAYER_01
 66
     1
 10
0.0
 20
0.0
 30
0.0
 70
     1
  0
VERTEX
  5
305
  8
LAYER_01
 10
477.1001206854509
 20
188.9005420975665
 30
0.0
  0
VERTEX
  5
306
  8
LAYER_01
 10
473.6098707495941
 20
188.9005420975665
 30
0.0
  0
VERTEX
  5
307
  8
LAYER_01
 10
473.609870749594
 20
179.4246297408664
 30
0.0
  0
VERTEX
  5
308
  8
LAYER_01
 10
534.4830342483313
 20
179.4246297408662
 30
0.0
  0
VERTEX
  5
309
  8
LAYER_01
 10
534.4830342483313
 20
219.2201205969717
 30
0.0
  0
VERTEX
  5
30A
  8
LAYER_01
 10
503.5396142720632
 20
219.2201205969718
 30
0.0
  0
VERTEX
  5
30B
  8
LAYER_01
 10
503.5396142720632
 20
215.3400356841789
 30
0.0
 42
-0.4142135623730953
  0
SEQEND
  5
30C
  8
LAYER_01
  0
POLYLINE
  5
30D
  8
LAYER_01
 66
     1
 10
0.0
 20
0.0
 30
0.0
 70
     1
  0
VERTEX
  5
30E
  8
LAYER_01
 10
165.7984261757249
 20
121.5668731006043
 30
0.0
 42
0.4142135623730937
  0
VERTEX
  5
30F
  8
LAYER_01
 10
175.9120803024169
 20
131.6805272272964
 30
0.0
  0
VERTEX
  5
310
  8
LAYER_01
 10
175.9120803024169
 20
147.3228008478893
 30
0.0
  0
VERTEX
  5
311
  8
LAYER_01
 10
138.8482204440783
 20
147.3228008478894
 30
0.0
  0
VERTEX
  5
312
  8
LAYER_01
 10
138.8482204440783
 20
121.5668731006043
 30
0.0
  0
SEQEND
  5
313
  8
LAYER_01
  0
POLYLINE
  5
314
  8
LAYER_01
 66
     1
 10
0.0
 20
0.0
 30
0.0
 70
     1
  0
VERTEX
  5
315
  8
LAYER_01
 10
175.9120803024169
 20
180.678319232931
 30
0.0
 42
0.414213562373095
  0
VERTEX
  5
316
  8
LAYER_01
 10
165.7984261757249
 20
190.791973359623
 30
0.0
  0
VERTEX
  5
317
  8
LAYER_01
 10
138.8482204440783
 20
190.791973359623
 30
0.0
  0
VERTEX
  5
318
  8
LAYER_01
 10
138.8482204440783
 20
170.131670423489
 30
0.0
  0
VERTEX
  5
319
  8
LAYER_01
 10
175.9120803024169
 20
170.131670423489
 30
0.0
  0
SEQEND
  5
31A
  8
LAYER_01
  0
POLYLINE
  5
31B
  8
LAYER_01
 66
     1
 10
0.0
 20
0.0
 30
0.0
 70
     1
  0
VERTEX
  5
31C
  8
LAYER_01
 10
198.6548539070022
 20
289.7799918588301
 30
0.0
  0
VERTEX
  5
31D
  8
LAYER_01
 10
177.9163818777834
 20
289.7799918588301
 30
0.0
 42
0.404406371543833
  0
VERTEX
  5
31E
  8
LAYER_01
 10
199.7538675918196
 20
268.6641799545469
 30
0.0
  0
VERTEX
  5
31F
  8
LAYER_01
 10
222.3590834859572
 20
268.6641799545469
 30
0.0
 42
0.3808109542418947
  0
SEQEND
  5
320
  8
LAYER_01
  0
POLYLINE
  5
321
  8
LAYER_01
 66
     1
 10
0.0
 20
0.0
 30
0.0
 70
     1
  0
VERTEX
  5
322
  8
LAYER_01
 10
165.5297565002977
 20
298.9649957805921
 30
0.0
  0
VERTEX
  5
323
  8
LAYER_01
 10
115.9978991261761
 20
298.9649957805918
 30
0.0
  0
VERTEX
  5
324
  8
LAYER_01
 10
115.9978991261761
 20
313.3864940933101
 30
0.0
  0
VERTEX
  5
325
  8
LAYER_01
 10
165.5297565002977
 20
313.3864940933101
 30
0.0
  0
SEQEND
  5
326
  8
LAYER_01
  0
POLYLINE
  5
327
  8
LAYER_01
 66
     1
 10
0.0
 20
0.0
 30
0.0
 70
     1
  0
VERTEX
  5
328
  8
LAYER_01
 10
176.3442512638439
 20
535.9107826278403
 30
0.0
 42
0.4142135623730983
  0
VERTEX
  5
329
  8
LAYER_01
 10
164.2326277225259
 20
548.0224061691582
 30
0.0
  0
VERTEX
  5
32A
  8
LAYER_01
 10
115.9978991261761
 20
548.0224061691587
 30
0.0
  0
VERTEX
  5
32B
  8
LAYER_01
 10
115.9978991261761
 20
477.3219694199697
 30
0.0
  0
VERTEX
  5
32C
  8
LAYER_01
 10
176.3442512638439
 20
477.3219694199697
 30
0.0
  0
SEQEND
  5
32D
  8
LAYER_01
  0
POLYLINE
  5
32E
  8
LAYER_01
 66
     1
 10
0.0
 20
0.0
 30
0.0
 70
     1
  0
VERTEX
  5
32F
  8
LAYER_01
 10
162.116237407157
 20
633.639733633564
 30
0.0
 42
0.4142135623730961
  0
VERTEX
  5
330
  8
LAYER_01
 10
177.0674441677854
 20
648.5909403941923
 30
0.0
  0
VERTEX
  5
331
  8
LAYER_01
 10
177.0674441677854
 20
660.4482848743631
 30
0.0
  0
VERTEX
  5
332
  8
LAYER_01
 10
136.729954471337
 20
660.448284874363
 30
0.0
  0
VERTEX
  5
333
  8
LAYER_01
 10
136.729954471337
 20
633.639733633564
 30
0.0
  0
SEQEND
  5
334
  8
LAYER_01
  0
POLYLINE
  5
335
  8
LAYER_01
 66
     1
 10
0.0
 20
0.0
 30
0.0
 70
     1
  0
VERTEX
  5
336
  8
LAYER_01
 10
126.8792698340403
 20
617.4298677088233
 30
0.0
 42
0.4142135623730943
  0
VERTEX
  5
337
  8
LAYER_01
 10
160.5116109213589
 20
583.7975266215047
 30
0.0
  0
VERTEX
  5
338
  8
LAYER_01
 10
207.2694244085119
 20
583.7975266215047
 30
0.0
  0
VERTEX
  5
339
  8
LAYER_01
 10
207.2694244085119
 20
526.3415303004024
 30
0.0
 42
0.4142135623730956
  0
VERTEX
  5
33A
  8
LAYER_01
 10
236.2804137027359
 20
497.3305410061784
 30
0.0
  0
VERTEX
  5
33B
  8
LAYER_01
 10
263.1517494109778
 20
497.3305410061784
 30
0.0
  0
VERTEX
  5
33C
  8
LAYER_01
 10
263.1517494109779
 20
448.9410906481551
 30
0.0
  0
VERTEX
  5
33D
  8
LAYER_01
 10
237.6045682147964
 20
448.9410906481551
 30
0.0
  0
VERTEX
  5
33E
  8
LAYER_01
 10
237.6045682147964
 20
466.1075031780087
 30
0.0
 42
0.4142135623730951
  0
VERTEX
  5
33F
  8
LAYER_01
 10
226.3901019728354
 20
477.3219694199697
 30
0.0
  0
VERTEX
  5
340
  8
LAYER_01
 10
190.1689516162353
 20
477.3219694199697
 30
0.0
  0
VERTEX
  5
341
  8
LAYER_01
 10
190.1689516162353
 20
536.56847768915
 30
0.0
 42
0.4142135623730933
  0
VERTEX
  5
342
  8
LAYER_01
 10
165.9457045335994
 20
560.7917247717858
 30
0.0
  0
VERTEX
  5
343
  8
LAYER_01
 10
115.9978991261761
 20
560.791724771786
 30
0.0
  0
VERTEX
  5
344
  8
LAYER_01
 10
115.9978991261761
 20
618.6835812056007
 30
0.0
  0
VERTEX
  5
345
  8
LAYER_01
 10
126.8792698340403
 20
618.6835812056007
 30
0.0
  0
SEQEND
  5
346
  8
LAYER_01
  0
POLYLINE
  5
347
  8
LAYER_01
 66
     1
 10
0.0
 20
0.0
 30
0.0
 70
     1
  0
VERTEX
  5
348
  8
LAYER_01
 10
126.8792698340403
 20
701.6137641556527
 30
0.0
  0
VERTEX
  5
349
  8
LAYER_01
 10
115.9978991261761
 20
701.6137641556527
 30
0.0
  0
VERTEX
  5
34A
  8
LAYER_01
 10
115.9978991261761
 20
679.8284171651592
 30
0.0
  0
VERTEX
  5
34B
  8
LAYER_01
 10
126.8792698340403
 20
679.8284171651594
 30
0.0
  0
SEQEND
  5
34C
  8
LAYER_01
  0
POLYLINE
  5
34D
  8
LAYER_01
 66
     1
 10
0.0
 20
0.0
 30
0.0
 70
     1
  0
VERTEX
  5
34E
  8
LAYER_01
 10
274.6256293644037
 20
937.3523947536394
 30
0.0
 42
0.4142135623730969
  0
VERTEX
  5
34F
  8
LAYER_01
 10
287.2619645125779
 20
924.7160596054653
 30
0.0
  0
VERTEX
  5
350
  8
LAYER_01
 10
326.9524108907368
 20
924.7160596054656
 30
0.0
  0
VERTEX
  5
351
  8
LAYER_01
 10
326.9524108907367
 20
953.9004501615932
 30
0.0
  0
VERTEX
  5
352
  8
LAYER_01
 10
274.6256293644037
 20
953.9004501615932
 30
0.0
  0
SEQEND
  5
353
  8
LAYER_01
  0
POLYLINE
  5
354
  8
LAYER_01
 66
     1
 10
0.0
 20
0.0
 30
0.0
 70
     1
  0
VERTEX
  5
355
  8
LAYER_01
 10
267.5787269419397
 20
936.2590329871648
 30
0.0
 42
0.4142135623730958
  0
VERTEX
  5
356
  8
LAYER_01
 10
285.7854813667062
 20
918.0522785623983
 30
0.0
  0
VERTEX
  5
357
  8
LAYER_01
 10
326.9524108907367
 20
918.0522785623984
 30
0.0
  0
VERTEX
  5
358
  8
LAYER_01
 10
326.9524108907368
 20
893.2039722428442
 30
0.0
  0
VERTEX
  5
359
  8
LAYER_01
 10
264.7327536169719
 20
893.2039722428442
 30
0.0
 42
0.4142135623730932
  0
VERTEX
  5
35A
  8
LAYER_01
 10
238.7180708931551
 20
867.1892895190275
 30
0.0
  0
VERTEX
  5
35B
  8
LAYER_01
 10
238.7180708931552
 20
780.7965494104047
 30
0.0
  0
VERTEX
  5
35C
  8
LAYER_01
 10
238.6183479152129
 20
780.7965494104047
 30
0.0
 42
0.3910865276662239
  0
VERTEX
  5
35D
  8
LAYER_01
 10
207.2248825598947
 20
809.7854924724005
 30
0.0
  0
VERTEX
  5
35E
  8
LAYER_01
 10
180.3819075166971
 20
809.7854924724006
 30
0.0
  0
VERTEX
  5
35F
  8
LAYER_01
 10
180.3819075166972
 20
824.4646484699681
 30
0.0
  0
VERTEX
  5
360
  8
LAYER_01
 10
186.824829525928
 20
824.4646484699681
 30
0.0
 42
0.4142135623730963
  0
VERTEX
  5
361
  8
LAYER_01
 10
206.8525290903166
 20
844.4923480343567
 30
0.0
  0
VERTEX
  5
362
  8
LAYER_01
 10
206.8525290903167
 20
881.9893645622005
 30
0.0
  0
VERTEX
  5
363
  8
LAYER_01
 10
226.649836392901
 20
881.9893645622006
 30
0.0
 42
0.4142135623730959
  0
VERTEX
  5
364
  8
LAYER_01
 10
238.5809997634431
 20
893.9205279327429
 30
0.0
  0
VERTEX
  5
365
  8
LAYER_01
 10
238.5809997634432
 20
953.9004501615932
 30
0.0
  0
VERTEX
  5
366
  8
LAYER_01
 10
267.5787269419397
 20
953.9004501615932
 30
0.0
  0
SEQEND
  5
367
  8
LAYER_01
  0
POLYLINE
  5
368
  8
LAYER_01
 66
     1
 10
0.0
 20
0.0
 30
0.0
 70
     1
  0
VERTEX
  5
369
  8
LAYER_01
 10
515.0388468275396
 20
927.803923302576
 30
0.0
  0
VERTEX
  5
36A
  8
LAYER_01
 10
534.4830342483313
 20
927.803923302576
 30
0.0
  0
VERTEX
  5
36B
  8
LAYER_01
 10
534.4830342483313
 20
937.2941383540731
 30
0.0
  0
VERTEX
  5
36C
  8
LAYER_01
 10
521.0663768574531
 20
937.2941383540732
 30
0.0
 42
0.4142135623730931
  0
VERTEX
  5
36D
  8
LAYER_01
 10
513.5427887144534
 20
929.7705502110736
 30
0.0
  0
VERTEX
  5
36E
  8
LAYER_01
 10
513.5427887144534
 20
927.9037943246045
 30
0.0
 42
0.0333409520064566
  0
SEQEND
  5
36F
  8
LAYER_01
  0
ENDSEC
  0
EOF
