  0
SECTION
  2
HEADER
  9
$ACADVER
  1
AC1009
  9
$DWGCODEPAGE
  3
ansi_1252
  9
$INSBASE
 10
0.0
 20
0.0
 30
0.0
  9
$EXTMIN
 10
1.000000000000000E+20
 20
1.000000000000000E+20
 30
1.000000000000000E+20
  9
$EXTMAX
 10
-1.000000000000000E+20
 20
-1.000000000000000E+20
 30
-1.000000000000000E+20
  9
$LIMMIN
 10
0.0
 20
0.0
  9
$LIMMAX
 10
12.0
 20
9.0
  9
$ORTHOMODE
 70
     0
  9
$REGENMODE
 70
     1
  9
$FILLMODE
 70
     1
  9
$QTEXTMODE
 70
     0
  9
$MIRRTEXT
 70
     1
  9
$DRAGMODE
 70
     2
  9
$LTSCALE
 40
1.0
  9
$OSMODE
 70
    37
  9
$ATTMODE
 70
     1
  9
$TEXTSIZE
 40
0.2
  9
$TRACEWID
 40
0.05
  9
$TEXTSTYLE
  7
STANDARD
  9
$CLAYER
  8
LAYER_01
  9
$CELTYPE
  6
BYLAYER
  9
$CECOLOR
 62
   256
  9
$DIMSCALE
 40
1.0
  9
$DIMASZ
 40
0.18
  9
$DIMEXO
 40
0.0625
  9
$DIMDLI
 40
0.38
  9
$DIMRND
 40
0.0
  9
$DIMDLE
 40
0.0
  9
$DIMEXE
 40
0.18
  9
$DIMTP
 40
0.0
  9
$DIMTM
 40
0.0
  9
$DIMTXT
 40
0.18
  9
$DIMCEN
 40
0.09
  9
$DIMTSZ
 40
0.0
  9
$DIMTOL
 70
     0
  9
$DIMLIM
 70
     0
  9
$DIMTIH
 70
     1
  9
$DIMTOH
 70
     1
  9
$DIMSE1
 70
     0
  9
$DIMSE2
 70
     0
  9
$DIMTAD
 70
     0
  9
$DIMZIN
 70
     0
  9
$DIMBLK
  1

  9
$DIMASO
 70
     1
  9
$DIMSHO
 70
     1
  9
$DIMPOST
  1

  9
$DIMAPOST
  1

  9
$DIMALT
 70
     0
  9
$DIMALTD
 70
     2
  9
$DIMALTF
 40
25.4
  9
$DIMLFAC
 40
1.0
  9
$DIMTOFL
 70
     0
  9
$DIMTVP
 40
0.0
  9
$DIMTIX
 70
     0
  9
$DIMSOXD
 70
     0
  9
$DIMSAH
 70
     0
  9
$DIMBLK1
  1

  9
$DIMBLK2
  1

  9
$DIMSTYLE
  2
STANDARD_ACAD
  9
$DIMCLRD
 70
     0
  9
$DIMCLRE
 70
     0
  9
$DIMCLRT
 70
     0
  9
$DIMTFAC
 40
1.0
  9
$DIMGAP
 40
0.09
  9
$LUNITS
 70
     2
  9
$LUPREC
 70
     3
  9
$SKETCHINC
 40
0.1
  9
$FILLETRAD
 40
0.5
  9
$AUNITS
 70
     0
  9
$AUPREC
 70
     0
  9
$MENU
  1
.
  9
$ELEVATION
 40
0.0
  9
$PELEVATION
 40
0.0
  9
$THICKNESS
 40
0.0
  9
$LIMCHECK
 70
     0
  9
$CHAMFERA
 40
0.0
  9
$CHAMFERB
 40
0.0
  9
$SKPOLY
 70
     0
  9
$TDCREATE
 40
2459770.437239363
  9
$TDUPDATE
 40
2459770.43723941
  9
$TDINDWG
 40
0.0000000116
  9
$TDUSRTIMER
 40
0.0000000116
  9
$USRTIMER
 70
     1
  9
$ANGBASE
 50
0.0
  9
$ANGDIR
 70
     0
  9
$PDMODE
 70
     0
  9
$PDSIZE
 40
0.0
  9
$PLINEWID
 40
0.0
  9
$COORDS
 70
     1
  9
$SPLFRAME
 70
     0
  9
$SPLINETYPE
 70
     6
  9
$SPLINESEGS
 70
     8
  9
$ATTDIA
 70
     0
  9
$ATTREQ
 70
     1
  9
$HANDLING
 70
     1
  9
$HANDSEED
  5
387
  9
$SURFTAB1
 70
     6
  9
$SURFTAB2
 70
     6
  9
$SURFTYPE
 70
     6
  9
$SURFU
 70
     6
  9
$SURFV
 70
     6
  9
$UCSNAME
  2

  9
$UCSORG
 10
0.0
 20
0.0
 30
0.0
  9
$UCSXDIR
 10
1.0
 20
0.0
 30
0.0
  9
$UCSYDIR
 10
0.0
 20
1.0
 30
0.0
  9
$PUCSNAME
  2

  9
$PUCSORG
 10
0.0
 20
0.0
 30
0.0
  9
$PUCSXDIR
 10
1.0
 20
0.0
 30
0.0
  9
$PUCSYDIR
 10
0.0
 20
1.0
 30
0.0
  9
$USERI1
 70
     0
  9
$USERI2
 70
     0
  9
$USERI3
 70
     0
  9
$USERI4
 70
     0
  9
$USERI5
 70
     0
  9
$USERR1
 40
0.0
  9
$USERR2
 40
0.0
  9
$USERR3
 40
0.0
  9
$USERR4
 40
0.0
  9
$USERR5
 40
0.0
  9
$WORLDVIEW
 70
     1
  9
$SHADEDGE
 70
     3
  9
$SHADEDIF
 70
    70
  9
$TILEMODE
 70
     1
  9
$MAXACTVP
 70
    64
  9
$PLIMCHECK
 70
     0
  9
$PEXTMIN
 10
1.000000000000000E+20
 20
1.000000000000000E+20
 30
1.000000000000000E+20
  9
$PEXTMAX
 10
-1.000000000000000E+20
 20
-1.000000000000000E+20
 30
-1.000000000000000E+20
  9
$PLIMMIN
 10
0.0
 20
0.0
  9
$PLIMMAX
 10
12.0
 20
9.0
  9
$UNITMODE
 70
     0
  9
$VISRETAIN
 70
     1
  9
$PLINEGEN
 70
     0
  9
$PSLTSCALE
 70
     1
  0
ENDSEC
  0
SECTION
  2
TABLES
  0
TABLE
  2
VPORT
 70
     1
  0
VPORT
  2
*ACTIVE
 70
     0
 10
0.0
 20
0.0
 11
1.0
 21
1.0
 12
10.42990654205607
 22
4.5
 13
0.0
 23
0.0
 14
0.5
 24
0.5
 15
0.5
 25
0.5
 16
0.0
 26
0.0
 36
1.0
 17
0.0
 27
0.0
 37
0.0
 40
9.0
 41
1.972972972850329
 42
50.0
 43
0.0
 44
0.0
 50
0.0
 51
0.0
 71
     0
 72
   100
 73
     1
 74
     3
 75
     0
 76
     0
 77
     0
 78
     0
  0
ENDTAB
  0
TABLE
  2
LTYPE
 70
     1
  0
LTYPE
  2
CONTINUOUS
 70
     0
  3
Solid line
 72
    65
 73
     0
 40
0.0
  0
ENDTAB
  0
TABLE
  2
LAYER
 70
     2
  0
LAYER
  2
0
 70
     0
 62
     7
  6
CONTINUOUS
  0
LAYER
  2
LAYER_01
 70
     0
 62
     7
  6
CONTINUOUS
  0
ENDTAB
  0
TABLE
  2
STYLE
 70
     1
  0
STYLE
  2
STANDARD
 70
     0
 40
0.0
 41
1.0
 50
0.0
 71
     0
 42
0.2
  3
txt
  4

  0
ENDTAB
  0
TABLE
  2
VIEW
 70
     0
  0
ENDTAB
  0
TABLE
  2
UCS
 70
     0
  0
ENDTAB
  0
TABLE
  2
APPID
 70
     2
  0
APPID
  2
ACAD
 70
     0
  0
APPID
  2
RHINO
 70
     0
  0
ENDTAB
  0
TABLE
  2
DIMSTYLE
 70
     1
  0
DIMSTYLE
  2
STANDARD_ACAD
 70
     0
  3

  4

  5

  6

  7

 40
1.0
 41
0.18
 42
0.0625
 43
0.38
 44
0.18
 45
0.0
 46
0.0
 47
0.0
 48
0.0
140
0.18
141
0.09
142
0.0
143
25.4
144
1.0
145
0.0
146
1.0
147
0.09
 71
     0
 72
     0
 73
     1
 74
     1
 75
     0
 76
     0
 77
     0
 78
     0
170
     0
171
     2
172
     0
173
     0
174
     0
175
     0
176
     0
177
     0
178
     0
  0
ENDTAB
  0
ENDSEC
  0
SECTION
  2
BLOCKS
  0
BLOCK
  8
0
  2
$MODEL_SPACE
 70
     0
 10
0.0
 20
0.0
 30
0.0
  3
$MODEL_SPACE
  1

  0
ENDBLK
  5
21
  8
0
  0
BLOCK
 67
     1
  8
0
  2
$PAPER_SPACE
 70
     0
 10
0.0
 20
0.0
 30
0.0
  3
$PAPER_SPACE
  1

  0
ENDBLK
  5
1D
 67
     1
  8
0
  0
ENDSEC
  0
SECTION
  2
ENTITIES
  0
POLYLINE
  5
70
  8
LAYER_01
 66
     1
 10
0.0
 20
0.0
 30
0.0
 70
     1
  0
VERTEX
  5
71
  8
LAYER_01
 10
737.7990200182301
 20
3874.249788798722
 30
0.0
  0
VERTEX
  5
72
  8
LAYER_01
 10
813.5224422121811
 20
3930.633821096088
 30
0.0
  0
VERTEX
  5
73
  8
LAYER_01
 10
787.1146519228344
 20
3865.722667302753
 30
0.0
  0
VERTEX
  5
74
  8
LAYER_01
 10
813.5224422121811
 20
3800.811513509421
 30
0.0
  0
VERTEX
  5
75
  8
LAYER_01
 10
737.7990200182301
 20
3857.195545806787
 30
0.0
  0
SEQEND
  5
76
  8
LAYER_01
  0
POLYLINE
  5
77
  8
LAYER_01
 66
     1
 10
0.0
 20
0.0
 30
0.0
 70
     1
  0
VERTEX
  5
78
  8
LAYER_01
 10
737.7990200182303
 20
3596.124211881825
 30
0.0
  0
VERTEX
  5
79
  8
LAYER_01
 10
767.9450676613823
 20
3673.004924892583
 30
0.0
  0
VERTEX
  5
7A
  8
LAYER_01
 10
740.2559911137314
 20
3707.725928669844
 30
0.0
  0
VERTEX
  5
7B
  8
LAYER_01
 10
737.7990200182301
 20
3703.345976912889
 30
0.0
  0
SEQEND
  5
7C
  8
LAYER_01
  0
POLYLINE
  5
7D
  8
LAYER_01
 66
     1
 10
0.0
 20
0.0
 30
0.0
 70
     1
  0
VERTEX
  5
7E
  8
LAYER_01
 10
737.7990200182298
 20
4135.321122723684
 30
0.0
  0
VERTEX
  5
7F
  8
LAYER_01
 10
767.9450676613823
 20
4058.440409712925
 30
0.0
  0
VERTEX
  5
80
  8
LAYER_01
 10
740.2559911137314
 20
4023.719405935664
 30
0.0
  0
VERTEX
  5
81
  8
LAYER_01
 10
737.7990200182301
 20
4028.099357692619
 30
0.0
  0
SEQEND
  5
82
  8
LAYER_01
  0
POLYLINE
  5
83
  8
LAYER_01
 66
     1
 10
0.0
 20
0.0
 30
0.0
 70
     1
  0
VERTEX
  5
84
  8
LAYER_01
 10
737.7990200182302
 20
3779.755626244105
 30
0.0
  0
VERTEX
  5
85
  8
LAYER_01
 10
795.9996467877879
 20
3764.42505388291
 30
0.0
  0
VERTEX
  5
86
  8
LAYER_01
 10
737.7990200182302
 20
3747.258724714955
 30
0.0
  0
SEQEND
  5
87
  8
LAYER_01
  0
POLYLINE
  5
88
  8
LAYER_01
 66
     1
 10
0.0
 20
0.0
 30
0.0
 70
     1
  0
VERTEX
  5
89
  8
LAYER_01
 10
737.7990200182301
 20
3822.230324455405
 30
0.0
  0
VERTEX
  5
8A
  8
LAYER_01
 10
765.798948047581
 20
3801.381440443175
 30
0.0
  0
VERTEX
  5
8B
  8
LAYER_01
 10
737.79902001823
 20
3808.756875152182
 30
0.0
  0
SEQEND
  5
8C
  8
LAYER_01
  0
POLYLINE
  5
8D
  8
LAYER_01
 66
     1
 10
0.0
 20
0.0
 30
0.0
 70
     1
  0
VERTEX
  5
8E
  8
LAYER_01
 10
737.7990200182302
 20
3951.689708361404
 30
0.0
  0
VERTEX
  5
8F
  8
LAYER_01
 10
795.9996467877879
 20
3967.020280722599
 30
0.0
  0
VERTEX
  5
90
  8
LAYER_01
 10
737.7990200182301
 20
3984.186609890553
 30
0.0
  0
SEQEND
  5
91
  8
LAYER_01
  0
POLYLINE
  5
92
  8
LAYER_01
 66
     1
 10
0.0
 20
0.0
 30
0.0
 70
     1
  0
VERTEX
  5
93
  8
LAYER_01
 10
737.7990200182301
 20
3909.215010150103
 30
0.0
  0
VERTEX
  5
94
  8
LAYER_01
 10
765.798948047581
 20
3930.063894162334
 30
0.0
  0
VERTEX
  5
95
  8
LAYER_01
 10
737.7990200182301
 20
3922.688459453326
 30
0.0
  0
SEQEND
  5
96
  8
LAYER_01
  0
POLYLINE
  5
97
  8
LAYER_01
 66
     1
 10
0.0
 20
0.0
 30
0.0
 70
     1
  0
VERTEX
  5
98
  8
LAYER_01
 10
2737.79902001823
 20
3874.249788798722
 30
0.0
  0
VERTEX
  5
99
  8
LAYER_01
 10
2662.07559782428
 20
3930.633821096088
 30
0.0
  0
VERTEX
  5
9A
  8
LAYER_01
 10
2688.483388113626
 20
3865.722667302753
 30
0.0
  0
VERTEX
  5
9B
  8
LAYER_01
 10
2662.07559782428
 20
3800.811513509421
 30
0.0
  0
VERTEX
  5
9C
  8
LAYER_01
 10
2737.79902001823
 20
3857.195545806787
 30
0.0
  0
SEQEND
  5
9D
  8
LAYER_01
  0
POLYLINE
  5
9E
  8
LAYER_01
 66
     1
 10
0.0
 20
0.0
 30
0.0
 70
     1
  0
VERTEX
  5
9F
  8
LAYER_01
 10
2737.79902001823
 20
3596.124211881825
 30
0.0
  0
VERTEX
  5
A0
  8
LAYER_01
 10
2707.652972375078
 20
3673.004924892583
 30
0.0
  0
VERTEX
  5
A1
  8
LAYER_01
 10
2735.342048922729
 20
3707.725928669844
 30
0.0
  0
VERTEX
  5
A2
  8
LAYER_01
 10
2737.79902001823
 20
3703.345976912889
 30
0.0
  0
SEQEND
  5
A3
  8
LAYER_01
  0
POLYLINE
  5
A4
  8
LAYER_01
 66
     1
 10
0.0
 20
0.0
 30
0.0
 70
     1
  0
VERTEX
  5
A5
  8
LAYER_01
 10
2737.79902001823
 20
4135.321122723684
 30
0.0
  0
VERTEX
  5
A6
  8
LAYER_01
 10
2707.652972375078
 20
4058.440409712925
 30
0.0
  0
VERTEX
  5
A7
  8
LAYER_01
 10
2735.342048922729
 20
4023.719405935664
 30
0.0
  0
VERTEX
  5
A8
  8
LAYER_01
 10
2737.79902001823
 20
4028.099357692618
 30
0.0
  0
SEQEND
  5
A9
  8
LAYER_01
  0
POLYLINE
  5
AA
  8
LAYER_01
 66
     1
 10
0.0
 20
0.0
 30
0.0
 70
     1
  0
VERTEX
  5
AB
  8
LAYER_01
 10
2737.79902001823
 20
3779.755626244104
 30
0.0
  0
VERTEX
  5
AC
  8
LAYER_01
 10
2679.598393248672
 20
3764.42505388291
 30
0.0
  0
VERTEX
  5
AD
  8
LAYER_01
 10
2737.79902001823
 20
3747.258724714955
 30
0.0
  0
SEQEND
  5
AE
  8
LAYER_01
  0
POLYLINE
  5
AF
  8
LAYER_01
 66
     1
 10
0.0
 20
0.0
 30
0.0
 70
     1
  0
VERTEX
  5
B0
  8
LAYER_01
 10
2737.799020018231
 20
3822.230324455405
 30
0.0
  0
VERTEX
  5
B1
  8
LAYER_01
 10
2709.799091988879
 20
3801.381440443175
 30
0.0
  0
VERTEX
  5
B2
  8
LAYER_01
 10
2737.79902001823
 20
3808.756875152182
 30
0.0
  0
SEQEND
  5
B3
  8
LAYER_01
  0
POLYLINE
  5
B4
  8
LAYER_01
 66
     1
 10
0.0
 20
0.0
 30
0.0
 70
     1
  0
VERTEX
  5
B5
  8
LAYER_01
 10
2737.79902001823
 20
3951.689708361404
 30
0.0
  0
VERTEX
  5
B6
  8
LAYER_01
 10
2679.598393248672
 20
3967.020280722599
 30
0.0
  0
VERTEX
  5
B7
  8
LAYER_01
 10
2737.79902001823
 20
3984.186609890553
 30
0.0
  0
SEQEND
  5
B8
  8
LAYER_01
  0
POLYLINE
  5
B9
  8
LAYER_01
 66
     1
 10
0.0
 20
0.0
 30
0.0
 70
     1
  0
VERTEX
  5
BA
  8
LAYER_01
 10
2737.79902001823
 20
3909.215010150103
 30
0.0
  0
VERTEX
  5
BB
  8
LAYER_01
 10
2709.799091988879
 20
3930.063894162334
 30
0.0
  0
VERTEX
  5
BC
  8
LAYER_01
 10
2737.79902001823
 20
3922.688459453327
 30
0.0
  0
SEQEND
  5
BD
  8
LAYER_01
  0
POLYLINE
  5
BE
  8
LAYER_01
 66
     1
 10
0.0
 20
0.0
 30
0.0
 70
     1
  0
VERTEX
  5
BF
  8
LAYER_01
 10
1028.534294015405
 20
3525.722667302754
 30
0.0
  0
VERTEX
  5
C0
  8
LAYER_01
 10
1056.757765531885
 20
3555.101854575238
 30
0.0
  0
VERTEX
  5
C1
  8
LAYER_01
 10
988.8118003110086
 20
3582.757619855059
 30
0.0
  0
VERTEX
  5
C2
  8
LAYER_01
 10
920.8658350901318
 20
3555.101854575238
 30
0.0
  0
VERTEX
  5
C3
  8
LAYER_01
 10
949.0893066066117
 20
3525.722667302754
 30
0.0
  0
SEQEND
  5
C4
  8
LAYER_01
  0
POLYLINE
  5
C5
  8
LAYER_01
 66
     1
 10
0.0
 20
0.0
 30
0.0
 70
     1
  0
VERTEX
  5
C6
  8
LAYER_01
 10
1028.534294015405
 20
4205.722667302754
 30
0.0
  0
VERTEX
  5
C7
  8
LAYER_01
 10
1056.757765531885
 20
4176.34348003027
 30
0.0
  0
VERTEX
  5
C8
  8
LAYER_01
 10
988.8118003110086
 20
4148.687714750449
 30
0.0
  0
VERTEX
  5
C9
  8
LAYER_01
 10
920.8658350901318
 20
4176.34348003027
 30
0.0
  0
VERTEX
  5
CA
  8
LAYER_01
 10
949.0893066066117
 20
4205.722667302754
 30
0.0
  0
SEQEND
  5
CB
  8
LAYER_01
  0
POLYLINE
  5
CC
  8
LAYER_01
 66
     1
 10
0.0
 20
0.0
 30
0.0
 70
     1
  0
VERTEX
  5
CD
  8
LAYER_01
 10
774.2955078245262
 20
3525.722667302754
 30
0.0
  0
VERTEX
  5
CE
  8
LAYER_01
 10
883.1314596644855
 20
3570.021714763588
 30
0.0
  0
VERTEX
  5
CF
  8
LAYER_01
 10
926.196228997801
 20
3654.710746366049
 30
0.0
  0
VERTEX
  5
D0
  8
LAYER_01
 10
840.0255226256112
 20
3605.10894434841
 30
0.0
  0
VERTEX
  5
D1
  8
LAYER_01
 10
766.5571649587259
 20
3525.722667302754
 30
0.0
  0
SEQEND
  5
D2
  8
LAYER_01
  0
POLYLINE
  5
D3
  8
LAYER_01
 66
     1
 10
0.0
 20
0.0
 30
0.0
 70
     1
  0
VERTEX
  5
D4
  8
LAYER_01
 10
766.5571649587259
 20
4205.722667302754
 30
0.0
  0
VERTEX
  5
D5
  8
LAYER_01
 10
774.2955078245262
 20
4205.722667302754
 30
0.0
  0
VERTEX
  5
D6
  8
LAYER_01
 10
883.1314596644855
 20
4161.42361984192
 30
0.0
  0
VERTEX
  5
D7
  8
LAYER_01
 10
926.196228997801
 20
4076.73458823946
 30
0.0
  0
VERTEX
  5
D8
  8
LAYER_01
 10
840.0255226256112
 20
4126.336390257098
 30
0.0
  0
SEQEND
  5
D9
  8
LAYER_01
  0
POLYLINE
  5
DA
  8
LAYER_01
 66
     1
 10
0.0
 20
0.0
 30
0.0
 70
     1
  0
VERTEX
  5
DB
  8
LAYER_01
 10
1381.480252007801
 20
3525.722667302754
 30
0.0
  0
VERTEX
  5
DC
  8
LAYER_01
 10
1419.60515044647
 20
3540.742670329812
 30
0.0
  0
VERTEX
  5
DD
  8
LAYER_01
 10
1530.251938950464
 20
3548.890227055159
 30
0.0
  0
VERTEX
  5
DE
  8
LAYER_01
 10
1463.570993514807
 20
3525.722667302754
 30
0.0
  0
SEQEND
  5
DF
  8
LAYER_01
  0
POLYLINE
  5
E0
  8
LAYER_01
 66
     1
 10
0.0
 20
0.0
 30
0.0
 70
     1
  0
VERTEX
  5
E1
  8
LAYER_01
 10
1596.023387755355
 20
3525.722667302754
 30
0.0
  0
VERTEX
  5
E2
  8
LAYER_01
 10
1549.022282452404
 20
3525.722667302754
 30
0.0
  0
VERTEX
  5
E3
  8
LAYER_01
 10
1588.473197006796
 20
3539.429452865773
 30
0.0
  0
SEQEND
  5
E4
  8
LAYER_01
  0
POLYLINE
  5
E5
  8
LAYER_01
 66
     1
 10
0.0
 20
0.0
 30
0.0
 70
     1
  0
VERTEX
  5
E6
  8
LAYER_01
 10
1596.023387755355
 20
4205.722667302754
 30
0.0
  0
VERTEX
  5
E7
  8
LAYER_01
 10
1549.022282452404
 20
4205.722667302754
 30
0.0
  0
VERTEX
  5
E8
  8
LAYER_01
 10
1588.473197006796
 20
4192.015881739735
 30
0.0
  0
SEQEND
  5
E9
  8
LAYER_01
  0
POLYLINE
  5
EA
  8
LAYER_01
 66
     1
 10
0.0
 20
0.0
 30
0.0
 70
     1
  0
VERTEX
  5
EB
  8
LAYER_01
 10
1381.480252007801
 20
4205.722667302754
 30
0.0
  0
VERTEX
  5
EC
  8
LAYER_01
 10
1419.60515044647
 20
4190.702664275695
 30
0.0
  0
VERTEX
  5
ED
  8
LAYER_01
 10
1530.251938950464
 20
4182.55510755035
 30
0.0
  0
VERTEX
  5
EE
  8
LAYER_01
 10
1463.570993514808
 20
4205.722667302754
 30
0.0
  0
SEQEND
  5
EF
  8
LAYER_01
  0
POLYLINE
  5
F0
  8
LAYER_01
 66
     1
 10
0.0
 20
0.0
 30
0.0
 70
     1
  0
VERTEX
  5
F1
  8
LAYER_01
 10
2012.027046521653
 20
3525.722667302754
 30
0.0
  0
VERTEX
  5
F2
  8
LAYER_01
 10
2094.117788028659
 20
3525.722667302754
 30
0.0
  0
VERTEX
  5
F3
  8
LAYER_01
 10
2055.99288958999
 20
3540.742670329812
 30
0.0
  0
VERTEX
  5
F4
  8
LAYER_01
 10
1945.346101085996
 20
3548.890227055159
 30
0.0
  0
SEQEND
  5
F5
  8
LAYER_01
  0
POLYLINE
  5
F6
  8
LAYER_01
 66
     1
 10
0.0
 20
0.0
 30
0.0
 70
     1
  0
VERTEX
  5
F7
  8
LAYER_01
 10
1926.575757584056
 20
3525.722667302754
 30
0.0
  0
VERTEX
  5
F8
  8
LAYER_01
 10
1887.124843029664
 20
3539.429452865773
 30
0.0
  0
VERTEX
  5
F9
  8
LAYER_01
 10
1879.574652281105
 20
3525.722667302754
 30
0.0
  0
SEQEND
  5
FA
  8
LAYER_01
  0
POLYLINE
  5
FB
  8
LAYER_01
 66
     1
 10
0.0
 20
0.0
 30
0.0
 70
     1
  0
VERTEX
  5
FC
  8
LAYER_01
 10
1879.574652281105
 20
4205.722667302754
 30
0.0
  0
VERTEX
  5
FD
  8
LAYER_01
 10
1926.575757584056
 20
4205.722667302754
 30
0.0
  0
VERTEX
  5
FE
  8
LAYER_01
 10
1887.124843029664
 20
4192.015881739735
 30
0.0
  0
SEQEND
  5
FF
  8
LAYER_01
  0
POLYLINE
  5
100
  8
LAYER_01
 66
     1
 10
0.0
 20
0.0
 30
0.0
 70
     1
  0
VERTEX
  5
101
  8
LAYER_01
 10
2094.117788028659
 20
4205.722667302754
 30
0.0
  0
VERTEX
  5
102
  8
LAYER_01
 10
2055.99288958999
 20
4190.702664275695
 30
0.0
  0
VERTEX
  5
103
  8
LAYER_01
 10
1945.346101085996
 20
4182.55510755035
 30
0.0
  0
VERTEX
  5
104
  8
LAYER_01
 10
2012.027046521653
 20
4205.722667302754
 30
0.0
  0
SEQEND
  5
105
  8
LAYER_01
  0
POLYLINE
  5
106
  8
LAYER_01
 66
     1
 10
0.0
 20
0.0
 30
0.0
 70
     1
  0
VERTEX
  5
107
  8
LAYER_01
 10
1203.32809279749
 20
3525.722667302754
 30
0.0
  0
VERTEX
  5
108
  8
LAYER_01
 10
1094.492140957531
 20
3570.021714763588
 30
0.0
  0
VERTEX
  5
109
  8
LAYER_01
 10
1051.427371624216
 20
3654.710746366049
 30
0.0
  0
VERTEX
  5
10A
  8
LAYER_01
 10
1137.598077996405
 20
3605.10894434841
 30
0.0
  0
VERTEX
  5
10B
  8
LAYER_01
 10
1211.066435663291
 20
3525.722667302754
 30
0.0
  0
SEQEND
  5
10C
  8
LAYER_01
  0
POLYLINE
  5
10D
  8
LAYER_01
 66
     1
 10
0.0
 20
0.0
 30
0.0
 70
     1
  0
VERTEX
  5
10E
  8
LAYER_01
 10
1267.430051910161
 20
3525.722667302754
 30
0.0
  0
VERTEX
  5
10F
  8
LAYER_01
 10
1209.678532960634
 20
3673.004924892583
 30
0.0
  0
VERTEX
  5
110
  8
LAYER_01
 10
1237.367609508285
 20
3707.725928669844
 30
0.0
  0
VERTEX
  5
111
  8
LAYER_01
 10
1288.545528102731
 20
3616.492940672765
 30
0.0
  0
VERTEX
  5
112
  8
LAYER_01
 10
1374.239749443409
 20
3676.485755903836
 30
0.0
  0
VERTEX
  5
113
  8
LAYER_01
 10
1384.121866449017
 20
3633.189372372996
 30
0.0
  0
VERTEX
  5
114
  8
LAYER_01
 10
1268.372049702401
 20
3525.722667302754
 30
0.0
  0
SEQEND
  5
115
  8
LAYER_01
  0
POLYLINE
  5
116
  8
LAYER_01
 66
     1
 10
0.0
 20
0.0
 30
0.0
 70
     1
  0
VERTEX
  5
117
  8
LAYER_01
 10
1267.430051910161
 20
4205.722667302754
 30
0.0
  0
VERTEX
  5
118
  8
LAYER_01
 10
1209.678532960634
 20
4058.440409712925
 30
0.0
  0
VERTEX
  5
119
  8
LAYER_01
 10
1237.367609508285
 20
4023.719405935664
 30
0.0
  0
VERTEX
  5
11A
  8
LAYER_01
 10
1288.545528102731
 20
4114.952393932744
 30
0.0
  0
VERTEX
  5
11B
  8
LAYER_01
 10
1374.239749443409
 20
4054.959578701673
 30
0.0
  0
VERTEX
  5
11C
  8
LAYER_01
 10
1384.121866449017
 20
4098.255962232513
 30
0.0
  0
VERTEX
  5
11D
  8
LAYER_01
 10
1268.372049702401
 20
4205.722667302754
 30
0.0
  0
SEQEND
  5
11E
  8
LAYER_01
  0
POLYLINE
  5
11F
  8
LAYER_01
 66
     1
 10
0.0
 20
0.0
 30
0.0
 70
     1
  0
VERTEX
  5
120
  8
LAYER_01
 10
1203.32809279749
 20
4205.722667302754
 30
0.0
  0
VERTEX
  5
121
  8
LAYER_01
 10
1094.492140957531
 20
4161.42361984192
 30
0.0
  0
VERTEX
  5
122
  8
LAYER_01
 10
1051.427371624216
 20
4076.73458823946
 30
0.0
  0
VERTEX
  5
123
  8
LAYER_01
 10
1137.598077996405
 20
4126.336390257098
 30
0.0
  0
VERTEX
  5
124
  8
LAYER_01
 10
1211.066435663291
 20
4205.722667302754
 30
0.0
  0
SEQEND
  5
125
  8
LAYER_01
  0
POLYLINE
  5
126
  8
LAYER_01
 66
     1
 10
0.0
 20
0.0
 30
0.0
 70
     1
  0
VERTEX
  5
127
  8
LAYER_01
 10
2709.040875077735
 20
3525.722667302754
 30
0.0
  0
VERTEX
  5
128
  8
LAYER_01
 10
2701.302532211934
 20
3525.722667302754
 30
0.0
  0
VERTEX
  5
129
  8
LAYER_01
 10
2592.466580371975
 20
3570.021714763588
 30
0.0
  0
VERTEX
  5
12A
  8
LAYER_01
 10
2549.40181103866
 20
3654.710746366049
 30
0.0
  0
VERTEX
  5
12B
  8
LAYER_01
 10
2635.572517410849
 20
3605.10894434841
 30
0.0
  0
SEQEND
  5
12C
  8
LAYER_01
  0
POLYLINE
  5
12D
  8
LAYER_01
 66
     1
 10
0.0
 20
0.0
 30
0.0
 70
     1
  0
VERTEX
  5
12E
  8
LAYER_01
 10
2709.040875077735
 20
4205.722667302754
 30
0.0
  0
VERTEX
  5
12F
  8
LAYER_01
 10
2701.302532211934
 20
4205.722667302754
 30
0.0
  0
VERTEX
  5
130
  8
LAYER_01
 10
2592.466580371975
 20
4161.42361984192
 30
0.0
  0
VERTEX
  5
131
  8
LAYER_01
 10
2549.40181103866
 20
4076.73458823946
 30
0.0
  0
VERTEX
  5
132
  8
LAYER_01
 10
2635.572517410849
 20
4126.336390257098
 30
0.0
  0
SEQEND
  5
133
  8
LAYER_01
  0
POLYLINE
  5
134
  8
LAYER_01
 66
     1
 10
0.0
 20
0.0
 30
0.0
 70
     1
  0
VERTEX
  5
135
  8
LAYER_01
 10
2264.53160437317
 20
3525.722667302754
 30
0.0
  0
VERTEX
  5
136
  8
LAYER_01
 10
2272.26994723897
 20
3525.722667302754
 30
0.0
  0
VERTEX
  5
137
  8
LAYER_01
 10
2381.10589907893
 20
3570.021714763588
 30
0.0
  0
VERTEX
  5
138
  8
LAYER_01
 10
2424.170668412245
 20
3654.710746366049
 30
0.0
  0
VERTEX
  5
139
  8
LAYER_01
 10
2337.999962040055
 20
3605.10894434841
 30
0.0
  0
SEQEND
  5
13A
  8
LAYER_01
  0
POLYLINE
  5
13B
  8
LAYER_01
 66
     1
 10
0.0
 20
0.0
 30
0.0
 70
     1
  0
VERTEX
  5
13C
  8
LAYER_01
 10
2207.22599033406
 20
3525.722667302754
 30
0.0
  0
VERTEX
  5
13D
  8
LAYER_01
 10
2208.167988126299
 20
3525.722667302754
 30
0.0
  0
VERTEX
  5
13E
  8
LAYER_01
 10
2265.919507075826
 20
3673.004924892583
 30
0.0
  0
VERTEX
  5
13F
  8
LAYER_01
 10
2238.230430528175
 20
3707.725928669844
 30
0.0
  0
VERTEX
  5
140
  8
LAYER_01
 10
2187.052511933729
 20
3616.492940672765
 30
0.0
  0
VERTEX
  5
141
  8
LAYER_01
 10
2101.358290593052
 20
3676.485755903836
 30
0.0
  0
VERTEX
  5
142
  8
LAYER_01
 10
2091.476173587444
 20
3633.189372372996
 30
0.0
  0
SEQEND
  5
143
  8
LAYER_01
  0
POLYLINE
  5
144
  8
LAYER_01
 66
     1
 10
0.0
 20
0.0
 30
0.0
 70
     1
  0
VERTEX
  5
145
  8
LAYER_01
 10
2208.167988126299
 20
4205.722667302754
 30
0.0
  0
VERTEX
  5
146
  8
LAYER_01
 10
2265.919507075826
 20
4058.440409712925
 30
0.0
  0
VERTEX
  5
147
  8
LAYER_01
 10
2238.230430528175
 20
4023.719405935664
 30
0.0
  0
VERTEX
  5
148
  8
LAYER_01
 10
2187.052511933729
 20
4114.952393932744
 30
0.0
  0
VERTEX
  5
149
  8
LAYER_01
 10
2101.358290593052
 20
4054.959578701673
 30
0.0
  0
VERTEX
  5
14A
  8
LAYER_01
 10
2091.476173587444
 20
4098.255962232513
 30
0.0
  0
VERTEX
  5
14B
  8
LAYER_01
 10
2207.225990334059
 20
4205.722667302754
 30
0.0
  0
SEQEND
  5
14C
  8
LAYER_01
  0
POLYLINE
  5
14D
  8
LAYER_01
 66
     1
 10
0.0
 20
0.0
 30
0.0
 70
     1
  0
VERTEX
  5
14E
  8
LAYER_01
 10
2264.53160437317
 20
4205.722667302754
 30
0.0
  0
VERTEX
  5
14F
  8
LAYER_01
 10
2272.26994723897
 20
4205.722667302754
 30
0.0
  0
VERTEX
  5
150
  8
LAYER_01
 10
2381.10589907893
 20
4161.42361984192
 30
0.0
  0
VERTEX
  5
151
  8
LAYER_01
 10
2424.170668412245
 20
4076.73458823946
 30
0.0
  0
VERTEX
  5
152
  8
LAYER_01
 10
2337.999962040055
 20
4126.336390257098
 30
0.0
  0
SEQEND
  5
153
  8
LAYER_01
  0
POLYLINE
  5
154
  8
LAYER_01
 66
     1
 10
0.0
 20
0.0
 30
0.0
 70
     1
  0
VERTEX
  5
155
  8
LAYER_01
 10
1847.556812293164
 20
3525.722667302754
 30
0.0
  0
VERTEX
  5
156
  8
LAYER_01
 10
1628.041227743297
 20
3525.722667302754
 30
0.0
  0
VERTEX
  5
157
  8
LAYER_01
 10
1616.795622768815
 20
3546.138190704077
 30
0.0
  0
VERTEX
  5
158
  8
LAYER_01
 10
1737.799020018231
 20
3557.520783296934
 30
0.0
  0
VERTEX
  5
159
  8
LAYER_01
 10
1858.802417267645
 20
3546.138190704077
 30
0.0
  0
SEQEND
  5
15A
  8
LAYER_01
  0
POLYLINE
  5
15B
  8
LAYER_01
 66
     1
 10
0.0
 20
0.0
 30
0.0
 70
     1
  0
VERTEX
  5
15C
  8
LAYER_01
 10
1628.041227743297
 20
4205.722667302754
 30
0.0
  0
VERTEX
  5
15D
  8
LAYER_01
 10
1616.795622768815
 20
4185.307143901431
 30
0.0
  0
VERTEX
  5
15E
  8
LAYER_01
 10
1737.799020018231
 20
4173.924551308574
 30
0.0
  0
VERTEX
  5
15F
  8
LAYER_01
 10
1858.802417267645
 20
4185.307143901431
 30
0.0
  0
VERTEX
  5
160
  8
LAYER_01
 10
1847.556812293164
 20
4205.722667302754
 30
0.0
  0
SEQEND
  5
161
  8
LAYER_01
  0
POLYLINE
  5
162
  8
LAYER_01
 66
     1
 10
0.0
 20
0.0
 30
0.0
 70
     1
  0
VERTEX
  5
163
  8
LAYER_01
 10
2447.063746021056
 20
3525.722667302754
 30
0.0
  0
VERTEX
  5
164
  8
LAYER_01
 10
2418.840274504576
 20
3555.101854575238
 30
0.0
  0
VERTEX
  5
165
  8
LAYER_01
 10
2486.786239725452
 20
3582.757619855059
 30
0.0
  0
VERTEX
  5
166
  8
LAYER_01
 10
2554.732204946329
 20
3555.101854575238
 30
0.0
  0
VERTEX
  5
167
  8
LAYER_01
 10
2526.508733429849
 20
3525.722667302754
 30
0.0
  0
SEQEND
  5
168
  8
LAYER_01
  0
POLYLINE
  5
169
  8
LAYER_01
 66
     1
 10
0.0
 20
0.0
 30
0.0
 70
     1
  0
VERTEX
  5
16A
  8
LAYER_01
 10
2447.063746021056
 20
4205.722667302754
 30
0.0
  0
VERTEX
  5
16B
  8
LAYER_01
 10
2418.840274504576
 20
4176.34348003027
 30
0.0
  0
VERTEX
  5
16C
  8
LAYER_01
 10
2486.786239725452
 20
4148.687714750449
 30
0.0
  0
VERTEX
  5
16D
  8
LAYER_01
 10
2554.732204946329
 20
4176.34348003027
 30
0.0
  0
VERTEX
  5
16E
  8
LAYER_01
 10
2526.508733429849
 20
4205.722667302754
 30
0.0
  0
SEQEND
  5
16F
  8
LAYER_01
  0
POLYLINE
  5
170
  8
LAYER_01
 66
     1
 10
0.0
 20
0.0
 30
0.0
 70
     1
  0
VERTEX
  5
171
  8
LAYER_01
 10
1749.26188864548
 20
3892.493508697404
 30
0.0
  0
VERTEX
  5
172
  8
LAYER_01
 10
1829.840776428434
 20
4010.352372189832
 30
0.0
  0
VERTEX
  5
173
  8
LAYER_01
 10
1875.854714425996
 20
4160.215586692468
 30
0.0
  0
VERTEX
  5
174
  8
LAYER_01
 10
1787.376156348817
 20
4030.80225541748
 30
0.0
  0
VERTEX
  5
175
  8
LAYER_01
 10
1744.909897252353
 20
3892.493508697405
 30
0.0
  0
SEQEND
  5
176
  8
LAYER_01
  0
POLYLINE
  5
177
  8
LAYER_01
 66
     1
 10
0.0
 20
0.0
 30
0.0
 70
     1
  0
VERTEX
  5
178
  8
LAYER_01
 10
1726.336151390986
 20
3838.951825908105
 30
0.0
  0
VERTEX
  5
179
  8
LAYER_01
 10
1730.688142784102
 20
3838.951825908105
 30
0.0
  0
VERTEX
  5
17A
  8
LAYER_01
 10
1688.221883687643
 20
3700.643079188028
 30
0.0
  0
VERTEX
  5
17B
  8
LAYER_01
 10
1599.743325610464
 20
3571.229747913041
 30
0.0
  0
VERTEX
  5
17C
  8
LAYER_01
 10
1645.757263608027
 20
3721.092962415676
 30
0.0
  0
SEQEND
  5
17D
  8
LAYER_01
  0
POLYLINE
  5
17E
  8
LAYER_01
 66
     1
 10
0.0
 20
0.0
 30
0.0
 70
     1
  0
VERTEX
  5
17F
  8
LAYER_01
 10
1749.261888645475
 20
3838.951825908105
 30
0.0
  0
VERTEX
  5
180
  8
LAYER_01
 10
1829.840776428434
 20
3721.092962415676
 30
0.0
  0
VERTEX
  5
181
  8
LAYER_01
 10
1875.854714425996
 20
3571.229747913041
 30
0.0
  0
VERTEX
  5
182
  8
LAYER_01
 10
1787.376156348817
 20
3700.643079188028
 30
0.0
  0
VERTEX
  5
183
  8
LAYER_01
 10
1744.909897252358
 20
3838.951825908105
 30
0.0
  0
SEQEND
  5
184
  8
LAYER_01
  0
POLYLINE
  5
185
  8
LAYER_01
 66
     1
 10
0.0
 20
0.0
 30
0.0
 70
     1
  0
VERTEX
  5
186
  8
LAYER_01
 10
1726.336151390981
 20
3892.493508697404
 30
0.0
  0
VERTEX
  5
187
  8
LAYER_01
 10
1730.688142784107
 20
3892.493508697404
 30
0.0
  0
VERTEX
  5
188
  8
LAYER_01
 10
1688.221883687643
 20
4030.80225541748
 30
0.0
  0
VERTEX
  5
189
  8
LAYER_01
 10
1599.743325610464
 20
4160.215586692468
 30
0.0
  0
VERTEX
  5
18A
  8
LAYER_01
 10
1645.757263608027
 20
4010.352372189832
 30
0.0
  0
SEQEND
  5
18B
  8
LAYER_01
  0
POLYLINE
  5
18C
  8
LAYER_01
 66
     1
 10
0.0
 20
0.0
 30
0.0
 70
     1
  0
VERTEX
  5
18D
  8
LAYER_01
 10
988.811800311009
 20
4118.408987757281
 30
0.0
  0
VERTEX
  5
18E
  8
LAYER_01
 10
922.8051473561027
 20
4145.275402784182
 30
0.0
  0
VERTEX
  5
18F
  8
LAYER_01
 10
977.6662875973612
 20
4037.388215378659
 30
0.0
  0
VERTEX
  5
190
  8
LAYER_01
 10
988.8118003110083
 20
4042.992247491874
 30
0.0
  0
VERTEX
  5
191
  8
LAYER_01
 10
999.9573130246552
 20
4037.388215378659
 30
0.0
  0
VERTEX
  5
192
  8
LAYER_01
 10
1054.818453265914
 20
4145.275402784182
 30
0.0
  0
SEQEND
  5
193
  8
LAYER_01
  0
POLYLINE
  5
194
  8
LAYER_01
 66
     1
 10
0.0
 20
0.0
 30
0.0
 70
     1
  0
VERTEX
  5
195
  8
LAYER_01
 10
988.8118003110086
 20
4018.836661197823
 30
0.0
  0
VERTEX
  5
196
  8
LAYER_01
 10
965.53047691336
 20
3865.722667302754
 30
0.0
  0
VERTEX
  5
197
  8
LAYER_01
 10
988.8118003110083
 20
3712.608673407685
 30
0.0
  0
VERTEX
  5
198
  8
LAYER_01
 10
1012.093123708656
 20
3865.722667302754
 30
0.0
  0
SEQEND
  5
199
  8
LAYER_01
  0
POLYLINE
  5
19A
  8
LAYER_01
 66
     1
 10
0.0
 20
0.0
 30
0.0
 70
     1
  0
VERTEX
  5
19B
  8
LAYER_01
 10
988.811800311009
 20
3613.036346848228
 30
0.0
  0
VERTEX
  5
19C
  8
LAYER_01
 10
922.8051473561027
 20
3586.169931821327
 30
0.0
  0
VERTEX
  5
19D
  8
LAYER_01
 10
977.6662875973612
 20
3694.057119226849
 30
0.0
  0
VERTEX
  5
19E
  8
LAYER_01
 10
988.8118003110083
 20
3688.453087113634
 30
0.0
  0
VERTEX
  5
19F
  8
LAYER_01
 10
999.9573130246552
 20
3694.057119226849
 30
0.0
  0
VERTEX
  5
1A0
  8
LAYER_01
 10
1054.818453265914
 20
3586.169931821327
 30
0.0
  0
SEQEND
  5
1A1
  8
LAYER_01
  0
POLYLINE
  5
1A2
  8
LAYER_01
 66
     1
 10
0.0
 20
0.0
 30
0.0
 70
     1
  0
VERTEX
  5
1A3
  8
LAYER_01
 10
937.1635000984855
 20
3865.722667302754
 30
0.0
  0
VERTEX
  5
1A4
  8
LAYER_01
 10
953.3685546939284
 20
3759.14708360348
 30
0.0
  0
VERTEX
  5
1A5
  8
LAYER_01
 10
891.793201112045
 20
3865.722667302754
 30
0.0
  0
VERTEX
  5
1A6
  8
LAYER_01
 10
953.3685546939284
 20
3972.298251002028
 30
0.0
  0
SEQEND
  5
1A7
  8
LAYER_01
  0
POLYLINE
  5
1A8
  8
LAYER_01
 66
     1
 10
0.0
 20
0.0
 30
0.0
 70
     1
  0
VERTEX
  5
1A9
  8
LAYER_01
 10
749.1185415522971
 20
3548.168728463251
 30
0.0
  0
VERTEX
  5
1AA
  8
LAYER_01
 10
794.0510831466466
 20
3662.759068001306
 30
0.0
  0
VERTEX
  5
1AB
  8
LAYER_01
 10
915.7668347492948
 20
3681.066307590528
 30
0.0
  0
VERTEX
  5
1AC
  8
LAYER_01
 10
822.3390018719731
 20
3627.287139884719
 30
0.0
  0
SEQEND
  5
1AD
  8
LAYER_01
  0
POLYLINE
  5
1AE
  8
LAYER_01
 66
     1
 10
0.0
 20
0.0
 30
0.0
 70
     1
  0
VERTEX
  5
1AF
  8
LAYER_01
 10
789.8712462267788
 20
3690.490468818371
 30
0.0
  0
VERTEX
  5
1B0
  8
LAYER_01
 10
946.9927887453232
 20
3714.123085678888
 30
0.0
  0
VERTEX
  5
1B1
  8
LAYER_01
 10
867.505833207354
 20
3851.700349797592
 30
0.0
  0
VERTEX
  5
1B2
  8
LAYER_01
 10
823.0960025010545
 20
3851.700349797591
 30
0.0
  0
VERTEX
  5
1B3
  8
LAYER_01
 10
862.5159144328048
 20
3754.805004223988
 30
0.0
  0
VERTEX
  5
1B4
  8
LAYER_01
 10
762.1821696791292
 20
3725.211472595631
 30
0.0
  0
SEQEND
  5
1B5
  8
LAYER_01
  0
POLYLINE
  5
1B6
  8
LAYER_01
 66
     1
 10
0.0
 20
0.0
 30
0.0
 70
     1
  0
VERTEX
  5
1B7
  8
LAYER_01
 10
749.1185415522971
 20
4183.276606142257
 30
0.0
  0
VERTEX
  5
1B8
  8
LAYER_01
 10
794.0510831466466
 20
4068.686266604203
 30
0.0
  0
VERTEX
  5
1B9
  8
LAYER_01
 10
915.7668347492948
 20
4050.37902701498
 30
0.0
  0
VERTEX
  5
1BA
  8
LAYER_01
 10
822.3390018719731
 20
4104.158194720789
 30
0.0
  0
SEQEND
  5
1BB
  8
LAYER_01
  0
POLYLINE
  5
1BC
  8
LAYER_01
 66
     1
 10
0.0
 20
0.0
 30
0.0
 70
     1
  0
VERTEX
  5
1BD
  8
LAYER_01
 10
789.8712462267788
 20
4040.954865787137
 30
0.0
  0
VERTEX
  5
1BE
  8
LAYER_01
 10
946.9927887453232
 20
4017.322248926621
 30
0.0
  0
VERTEX
  5
1BF
  8
LAYER_01
 10
867.505833207354
 20
3879.744984807917
 30
0.0
  0
VERTEX
  5
1C0
  8
LAYER_01
 10
823.0960025010545
 20
3879.744984807917
 30
0.0
  0
VERTEX
  5
1C1
  8
LAYER_01
 10
862.5159144328048
 20
3976.64033038152
 30
0.0
  0
VERTEX
  5
1C2
  8
LAYER_01
 10
762.1821696791292
 20
4006.233862009877
 30
0.0
  0
SEQEND
  5
1C3
  8
LAYER_01
  0
POLYLINE
  5
1C4
  8
LAYER_01
 66
     1
 10
0.0
 20
0.0
 30
0.0
 70
     1
  0
VERTEX
  5
1C5
  8
LAYER_01
 10
2486.786239725452
 20
4118.408987757281
 30
0.0
  0
VERTEX
  5
1C6
  8
LAYER_01
 10
2552.792892680358
 20
4145.275402784182
 30
0.0
  0
VERTEX
  5
1C7
  8
LAYER_01
 10
2497.931752439099
 20
4037.388215378659
 30
0.0
  0
VERTEX
  5
1C8
  8
LAYER_01
 10
2486.786239725452
 20
4042.992247491874
 30
0.0
  0
VERTEX
  5
1C9
  8
LAYER_01
 10
2475.640727011805
 20
4037.388215378659
 30
0.0
  0
VERTEX
  5
1CA
  8
LAYER_01
 10
2420.779586770547
 20
4145.275402784182
 30
0.0
  0
SEQEND
  5
1CB
  8
LAYER_01
  0
POLYLINE
  5
1CC
  8
LAYER_01
 66
     1
 10
0.0
 20
0.0
 30
0.0
 70
     1
  0
VERTEX
  5
1CD
  8
LAYER_01
 10
2486.786239725452
 20
3613.036346848228
 30
0.0
  0
VERTEX
  5
1CE
  8
LAYER_01
 10
2552.792892680358
 20
3586.169931821327
 30
0.0
  0
VERTEX
  5
1CF
  8
LAYER_01
 10
2497.931752439099
 20
3694.057119226849
 30
0.0
  0
VERTEX
  5
1D0
  8
LAYER_01
 10
2486.786239725452
 20
3688.453087113634
 30
0.0
  0
VERTEX
  5
1D1
  8
LAYER_01
 10
2475.640727011805
 20
3694.057119226849
 30
0.0
  0
VERTEX
  5
1D2
  8
LAYER_01
 10
2420.779586770547
 20
3586.169931821327
 30
0.0
  0
SEQEND
  5
1D3
  8
LAYER_01
  0
POLYLINE
  5
1D4
  8
LAYER_01
 66
     1
 10
0.0
 20
0.0
 30
0.0
 70
     1
  0
VERTEX
  5
1D5
  8
LAYER_01
 10
1737.79902001823
 20
3766.564025420318
 30
0.0
  0
VERTEX
  5
1D6
  8
LAYER_01
 10
1713.779646674355
 20
3688.335109220129
 30
0.0
  0
VERTEX
  5
1D7
  8
LAYER_01
 10
1737.79902001823
 20
3594.272590044294
 30
0.0
  0
VERTEX
  5
1D8
  8
LAYER_01
 10
1761.818393362106
 20
3688.335109220129
 30
0.0
  0
SEQEND
  5
1D9
  8
LAYER_01
  0
POLYLINE
  5
1DA
  8
LAYER_01
 66
     1
 10
0.0
 20
0.0
 30
0.0
 70
     1
  0
VERTEX
  5
1DB
  8
LAYER_01
 10
1190.508948699182
 20
3865.722667302753
 30
0.0
  0
VERTEX
  5
1DC
  8
LAYER_01
 10
1164.101158409835
 20
3800.811513509421
 30
0.0
  0
VERTEX
  5
1DD
  8
LAYER_01
 10
1251.276454384875
 20
3865.722667302754
 30
0.0
  0
VERTEX
  5
1DE
  8
LAYER_01
 10
1164.101158409835
 20
3930.633821096088
 30
0.0
  0
SEQEND
  5
1DF
  8
LAYER_01
  0
POLYLINE
  5
1E0
  8
LAYER_01
 66
     1
 10
0.0
 20
0.0
 30
0.0
 70
     1
  0
VERTEX
  5
1E1
  8
LAYER_01
 10
2285.089091337278
 20
3865.722667302753
 30
0.0
  0
VERTEX
  5
1E2
  8
LAYER_01
 10
2311.496881626625
 20
3800.811513509421
 30
0.0
  0
VERTEX
  5
1E3
  8
LAYER_01
 10
2224.321585651586
 20
3865.722667302754
 30
0.0
  0
VERTEX
  5
1E4
  8
LAYER_01
 10
2311.496881626625
 20
3930.633821096088
 30
0.0
  0
SEQEND
  5
1E5
  8
LAYER_01
  0
POLYLINE
  5
1E6
  8
LAYER_01
 66
     1
 10
0.0
 20
0.0
 30
0.0
 70
     1
  0
VERTEX
  5
1E7
  8
LAYER_01
 10
2486.786239725452
 20
3712.608673407685
 30
0.0
  0
VERTEX
  5
1E8
  8
LAYER_01
 10
2510.067563123101
 20
3865.722667302754
 30
0.0
  0
VERTEX
  5
1E9
  8
LAYER_01
 10
2486.786239725452
 20
4018.836661197823
 30
0.0
  0
VERTEX
  5
1EA
  8
LAYER_01
 10
2463.504916327804
 20
3865.722667302754
 30
0.0
  0
SEQEND
  5
1EB
  8
LAYER_01
  0
POLYLINE
  5
1EC
  8
LAYER_01
 66
     1
 10
0.0
 20
0.0
 30
0.0
 70
     1
  0
VERTEX
  5
1ED
  8
LAYER_01
 10
1737.79902001823
 20
3964.881309185189
 30
0.0
  0
VERTEX
  5
1EE
  8
LAYER_01
 10
1713.779646674355
 20
4043.110225385379
 30
0.0
  0
VERTEX
  5
1EF
  8
LAYER_01
 10
1737.79902001823
 20
4137.172744561215
 30
0.0
  0
VERTEX
  5
1F0
  8
LAYER_01
 10
1761.818393362106
 20
4043.110225385379
 30
0.0
  0
SEQEND
  5
1F1
  8
LAYER_01
  0
POLYLINE
  5
1F2
  8
LAYER_01
 66
     1
 10
0.0
 20
0.0
 30
0.0
 70
     1
  0
VERTEX
  5
1F3
  8
LAYER_01
 10
1601.069720263254
 20
3865.722667302753
 30
0.0
  0
VERTEX
  5
1F4
  8
LAYER_01
 10
1523.512291996729
 20
3935.918698324583
 30
0.0
  0
VERTEX
  5
1F5
  8
LAYER_01
 10
1563.524166891921
 20
3955.18740172501
 30
0.0
  0
VERTEX
  5
1F6
  8
LAYER_01
 10
1694.831977009363
 20
3865.722667302754
 30
0.0
  0
VERTEX
  5
1F7
  8
LAYER_01
 10
1563.524166891921
 20
3776.257932880499
 30
0.0
  0
VERTEX
  5
1F8
  8
LAYER_01
 10
1523.512291996729
 20
3795.526636280925
 30
0.0
  0
SEQEND
  5
1F9
  8
LAYER_01
  0
POLYLINE
  5
1FA
  8
LAYER_01
 66
     1
 10
0.0
 20
0.0
 30
0.0
 70
     1
  0
VERTEX
  5
1FB
  8
LAYER_01
 10
1040.460100523531
 20
3865.722667302754
 30
0.0
  0
VERTEX
  5
1FC
  8
LAYER_01
 10
1024.255045928088
 20
3759.14708360348
 30
0.0
  0
VERTEX
  5
1FD
  8
LAYER_01
 10
1085.830399509971
 20
3865.722667302754
 30
0.0
  0
VERTEX
  5
1FE
  8
LAYER_01
 10
1024.255045928088
 20
3972.298251002028
 30
0.0
  0
SEQEND
  5
1FF
  8
LAYER_01
  0
POLYLINE
  5
200
  8
LAYER_01
 66
     1
 10
0.0
 20
0.0
 30
0.0
 70
     1
  0
VERTEX
  5
201
  8
LAYER_01
 10
1408.890786882815
 20
3865.722667302756
 30
0.0
  0
VERTEX
  5
202
  8
LAYER_01
 10
1416.692062798913
 20
3880.63615149893
 30
0.0
  0
VERTEX
  5
203
  8
LAYER_01
 10
1493.721986250651
 20
3865.722667302754
 30
0.0
  0
VERTEX
  5
204
  8
LAYER_01
 10
1416.692062798913
 20
3850.809183106579
 30
0.0
  0
SEQEND
  5
205
  8
LAYER_01
  0
POLYLINE
  5
206
  8
LAYER_01
 66
     1
 10
0.0
 20
0.0
 30
0.0
 70
     1
  0
VERTEX
  5
207
  8
LAYER_01
 10
2538.434539937975
 20
3865.722667302754
 30
0.0
  0
VERTEX
  5
208
  8
LAYER_01
 10
2522.229485342532
 20
3759.14708360348
 30
0.0
  0
VERTEX
  5
209
  8
LAYER_01
 10
2583.804838924415
 20
3865.722667302754
 30
0.0
  0
VERTEX
  5
20A
  8
LAYER_01
 10
2522.229485342532
 20
3972.298251002028
 30
0.0
  0
SEQEND
  5
20B
  8
LAYER_01
  0
POLYLINE
  5
20C
  8
LAYER_01
 66
     1
 10
0.0
 20
0.0
 30
0.0
 70
     1
  0
VERTEX
  5
20D
  8
LAYER_01
 10
1874.528319773206
 20
3865.722667302753
 30
0.0
  0
VERTEX
  5
20E
  8
LAYER_01
 10
1952.085748039732
 20
3935.918698324583
 30
0.0
  0
VERTEX
  5
20F
  8
LAYER_01
 10
1912.073873144539
 20
3955.18740172501
 30
0.0
  0
VERTEX
  5
210
  8
LAYER_01
 10
1780.766063027098
 20
3865.722667302754
 30
0.0
  0
VERTEX
  5
211
  8
LAYER_01
 10
1912.073873144539
 20
3776.257932880499
 30
0.0
  0
VERTEX
  5
212
  8
LAYER_01
 10
1952.085748039732
 20
3795.526636280925
 30
0.0
  0
SEQEND
  5
213
  8
LAYER_01
  0
POLYLINE
  5
214
  8
LAYER_01
 66
     1
 10
0.0
 20
0.0
 30
0.0
 70
     1
  0
VERTEX
  5
215
  8
LAYER_01
 10
2435.13793951293
 20
3865.722667302754
 30
0.0
  0
VERTEX
  5
216
  8
LAYER_01
 10
2451.342994108372
 20
3759.14708360348
 30
0.0
  0
VERTEX
  5
217
  8
LAYER_01
 10
2389.767640526489
 20
3865.722667302754
 30
0.0
  0
VERTEX
  5
218
  8
LAYER_01
 10
2451.342994108372
 20
3972.298251002028
 30
0.0
  0
SEQEND
  5
219
  8
LAYER_01
  0
POLYLINE
  5
21A
  8
LAYER_01
 66
     1
 10
0.0
 20
0.0
 30
0.0
 70
     1
  0
VERTEX
  5
21B
  8
LAYER_01
 10
2066.707253153646
 20
3865.722667302756
 30
0.0
  0
VERTEX
  5
21C
  8
LAYER_01
 10
2058.905977237547
 20
3880.63615149893
 30
0.0
  0
VERTEX
  5
21D
  8
LAYER_01
 10
1981.87605378581
 20
3865.722667302754
 30
0.0
  0
VERTEX
  5
21E
  8
LAYER_01
 10
2058.905977237547
 20
3850.809183106579
 30
0.0
  0
SEQEND
  5
21F
  8
LAYER_01
  0
POLYLINE
  5
220
  8
LAYER_01
 66
     1
 10
0.0
 20
0.0
 30
0.0
 70
     1
  0
VERTEX
  5
221
  8
LAYER_01
 10
1379.168425374027
 20
3865.722667302754
 30
0.0
  0
VERTEX
  5
222
  8
LAYER_01
 10
1366.465785098982
 20
3839.345362978662
 30
0.0
  0
VERTEX
  5
223
  8
LAYER_01
 10
1337.923211487595
 20
3832.830706809562
 30
0.0
  0
VERTEX
  5
224
  8
LAYER_01
 10
1315.033844631639
 20
3851.084367765555
 30
0.0
  0
VERTEX
  5
225
  8
LAYER_01
 10
1315.033844631639
 20
3880.360966839953
 30
0.0
  0
VERTEX
  5
226
  8
LAYER_01
 10
1337.923211487595
 20
3898.614627795946
 30
0.0
  0
VERTEX
  5
227
  8
LAYER_01
 10
1366.465785098982
 20
3892.099971626847
 30
0.0
  0
SEQEND
  5
228
  8
LAYER_01
  0
POLYLINE
  5
229
  8
LAYER_01
 66
     1
 10
0.0
 20
0.0
 30
0.0
 70
     1
  0
VERTEX
  5
22A
  8
LAYER_01
 10
2096.429614662433
 20
3865.722667302754
 30
0.0
  0
VERTEX
  5
22B
  8
LAYER_01
 10
2109.132254937479
 20
3839.345362978662
 30
0.0
  0
VERTEX
  5
22C
  8
LAYER_01
 10
2137.674828548865
 20
3832.830706809562
 30
0.0
  0
VERTEX
  5
22D
  8
LAYER_01
 10
2160.564195404822
 20
3851.084367765555
 30
0.0
  0
VERTEX
  5
22E
  8
LAYER_01
 10
2160.564195404822
 20
3880.360966839953
 30
0.0
  0
VERTEX
  5
22F
  8
LAYER_01
 10
2137.674828548865
 20
3898.614627795946
 30
0.0
  0
VERTEX
  5
230
  8
LAYER_01
 10
2109.132254937479
 20
3892.099971626847
 30
0.0
  0
SEQEND
  5
231
  8
LAYER_01
  0
POLYLINE
  5
232
  8
LAYER_01
 66
     1
 10
0.0
 20
0.0
 30
0.0
 70
     1
  0
VERTEX
  5
233
  8
LAYER_01
 10
1692.706021607376
 20
3657.511731429783
 30
0.0
  0
VERTEX
  5
234
  8
LAYER_01
 10
1711.673836524501
 20
3583.231673044298
 30
0.0
  0
VERTEX
  5
235
  8
LAYER_01
 10
1637.127148866785
 20
3576.219187493948
 30
0.0
  0
SEQEND
  5
236
  8
LAYER_01
  0
POLYLINE
  5
237
  8
LAYER_01
 66
     1
 10
0.0
 20
0.0
 30
0.0
 70
     1
  0
VERTEX
  5
238
  8
LAYER_01
 10
1312.995356850006
 20
3528.884369345619
 30
0.0
  0
VERTEX
  5
239
  8
LAYER_01
 10
1413.292904272108
 20
3568.398427810849
 30
0.0
  0
VERTEX
  5
23A
  8
LAYER_01
 10
1520.80237946099
 20
3576.314966189023
 30
0.0
  0
VERTEX
  5
23B
  8
LAYER_01
 10
1403.197062967767
 20
3612.631198676764
 30
0.0
  0
SEQEND
  5
23C
  8
LAYER_01
  0
POLYLINE
  5
23D
  8
LAYER_01
 66
     1
 10
0.0
 20
0.0
 30
0.0
 70
     1
  0
VERTEX
  5
23E
  8
LAYER_01
 10
1228.505059069719
 20
3548.168728463251
 30
0.0
  0
VERTEX
  5
23F
  8
LAYER_01
 10
1183.57251747537
 20
3662.759068001306
 30
0.0
  0
VERTEX
  5
240
  8
LAYER_01
 10
1061.856765872722
 20
3681.066307590528
 30
0.0
  0
VERTEX
  5
241
  8
LAYER_01
 10
1155.284598750043
 20
3627.287139884719
 30
0.0
  0
SEQEND
  5
242
  8
LAYER_01
  0
POLYLINE
  5
243
  8
LAYER_01
 66
     1
 10
0.0
 20
0.0
 30
0.0
 70
     1
  0
VERTEX
  5
244
  8
LAYER_01
 10
1681.041163068544
 20
3822.391105694674
 30
0.0
  0
VERTEX
  5
245
  8
LAYER_01
 10
1579.322273707107
 20
3753.086367352693
 30
0.0
  0
VERTEX
  5
246
  8
LAYER_01
 10
1588.558337560391
 20
3630.348539711526
 30
0.0
  0
VERTEX
  5
247
  8
LAYER_01
 10
1620.199500621315
 20
3733.400932383575
 30
0.0
  0
SEQEND
  5
248
  8
LAYER_01
  0
POLYLINE
  5
249
  8
LAYER_01
 66
     1
 10
0.0
 20
0.0
 30
0.0
 70
     1
  0
VERTEX
  5
24A
  8
LAYER_01
 10
1504.818979481664
 20
3665.855944633843
 30
0.0
  0
VERTEX
  5
24B
  8
LAYER_01
 10
1511.344180896263
 20
3770.259293224936
 30
0.0
  0
VERTEX
  5
24C
  8
LAYER_01
 10
1551.356055791455
 20
3750.99058982451
 30
0.0
  0
VERTEX
  5
24D
  8
LAYER_01
 10
1563.278790362122
 20
3592.549660442484
 30
0.0
  0
VERTEX
  5
24E
  8
LAYER_01
 10
1411.463363907533
 20
3639.429890747957
 30
0.0
  0
VERTEX
  5
24F
  8
LAYER_01
 10
1401.581246901926
 20
3682.726274278798
 30
0.0
  0
SEQEND
  5
250
  8
LAYER_01
  0
POLYLINE
  5
251
  8
LAYER_01
 66
     1
 10
0.0
 20
0.0
 30
0.0
 70
     1
  0
VERTEX
  5
252
  8
LAYER_01
 10
1187.752354395238
 20
3690.490468818371
 30
0.0
  0
VERTEX
  5
253
  8
LAYER_01
 10
1030.630811876693
 20
3714.123085678888
 30
0.0
  0
VERTEX
  5
254
  8
LAYER_01
 10
1110.117767414662
 20
3851.700349797592
 30
0.0
  0
VERTEX
  5
255
  8
LAYER_01
 10
1154.527598120962
 20
3851.700349797591
 30
0.0
  0
VERTEX
  5
256
  8
LAYER_01
 10
1115.107686189212
 20
3754.805004223988
 30
0.0
  0
VERTEX
  5
257
  8
LAYER_01
 10
1215.441430942887
 20
3725.211472595631
 30
0.0
  0
SEQEND
  5
258
  8
LAYER_01
  0
POLYLINE
  5
259
  8
LAYER_01
 66
     1
 10
0.0
 20
0.0
 30
0.0
 70
     1
  0
VERTEX
  5
25A
  8
LAYER_01
 10
1536.96665078952
 20
3845.529705635154
 30
0.0
  0
VERTEX
  5
25B
  8
LAYER_01
 10
1430.260528947544
 20
3824.870720264064
 30
0.0
  0
VERTEX
  5
25C
  8
LAYER_01
 10
1480.638862552949
 20
3728.563848140317
 30
0.0
  0
VERTEX
  5
25D
  8
LAYER_01
 10
1485.010159750437
 20
3798.504687680309
 30
0.0
  0
SEQEND
  5
25E
  8
LAYER_01
  0
POLYLINE
  5
25F
  8
LAYER_01
 66
     1
 10
0.0
 20
0.0
 30
0.0
 70
     1
  0
VERTEX
  5
260
  8
LAYER_01
 10
1331.309363845272
 20
3803.853546958688
 30
0.0
  0
VERTEX
  5
261
  8
LAYER_01
 10
1315.033844631638
 20
3799.566427749326
 30
0.0
  0
VERTEX
  5
262
  8
LAYER_01
 10
1312.432646133308
 20
3721.149242871122
 30
0.0
  0
VERTEX
  5
263
  8
LAYER_01
 10
1344.112988653106
 20
3792.929302885574
 30
0.0
  0
SEQEND
  5
264
  8
LAYER_01
  0
POLYLINE
  5
265
  8
LAYER_01
 66
     1
 10
0.0
 20
0.0
 30
0.0
 70
     1
  0
VERTEX
  5
266
  8
LAYER_01
 10
1181.623953834228
 20
3764.42505388291
 30
0.0
  0
VERTEX
  5
267
  8
LAYER_01
 10
1248.838525368211
 20
3744.600053296509
 30
0.0
  0
VERTEX
  5
268
  8
LAYER_01
 10
1283.123121032131
 20
3683.482169048857
 30
0.0
  0
VERTEX
  5
269
  8
LAYER_01
 10
1286.726445447632
 20
3792.110002352639
 30
0.0
  0
SEQEND
  5
26A
  8
LAYER_01
  0
POLYLINE
  5
26B
  8
LAYER_01
 66
     1
 10
0.0
 20
0.0
 30
0.0
 70
     1
  0
VERTEX
  5
26C
  8
LAYER_01
 10
1287.696933787664
 20
3821.366886681646
 30
0.0
  0
VERTEX
  5
26D
  8
LAYER_01
 10
1288.25492223168
 20
3838.18831841872
 30
0.0
  0
VERTEX
  5
26E
  8
LAYER_01
 10
1274.755497215051
 20
3848.240056627063
 30
0.0
  0
VERTEX
  5
26F
  8
LAYER_01
 10
1211.824652574436
 20
3801.381440443175
 30
0.0
  0
SEQEND
  5
270
  8
LAYER_01
  0
POLYLINE
  5
271
  8
LAYER_01
 66
     1
 10
0.0
 20
0.0
 30
0.0
 70
     1
  0
VERTEX
  5
272
  8
LAYER_01
 10
1384.997374386868
 20
3816.107485017795
 30
0.0
  0
VERTEX
  5
273
  8
LAYER_01
 10
1378.201558904183
 20
3800.709796596673
 30
0.0
  0
VERTEX
  5
274
  8
LAYER_01
 10
1437.888762072162
 20
3749.783782656499
 30
0.0
  0
VERTEX
  5
275
  8
LAYER_01
 10
1401.521221819903
 20
3819.306607209666
 30
0.0
  0
SEQEND
  5
276
  8
LAYER_01
  0
POLYLINE
  5
277
  8
LAYER_01
 66
     1
 10
0.0
 20
0.0
 30
0.0
 70
     1
  0
VERTEX
  5
278
  8
LAYER_01
 10
1449.063876240948
 20
3703.383636802169
 30
0.0
  0
VERTEX
  5
279
  8
LAYER_01
 10
1366.381852317616
 20
3773.929175534673
 30
0.0
  0
VERTEX
  5
27A
  8
LAYER_01
 10
1322.496484950855
 20
3674.49545566962
 30
0.0
  0
VERTEX
  5
27B
  8
LAYER_01
 10
1379.903894436993
 20
3714.685238088023
 30
0.0
  0
SEQEND
  5
27C
  8
LAYER_01
  0
POLYLINE
  5
27D
  8
LAYER_01
 66
     1
 10
0.0
 20
0.0
 30
0.0
 70
     1
  0
VERTEX
  5
27E
  8
LAYER_01
 10
1692.706021607376
 20
4073.933603175725
 30
0.0
  0
VERTEX
  5
27F
  8
LAYER_01
 10
1711.673836524501
 20
4148.213661561211
 30
0.0
  0
VERTEX
  5
280
  8
LAYER_01
 10
1637.127148866785
 20
4155.22614711156
 30
0.0
  0
SEQEND
  5
281
  8
LAYER_01
  0
POLYLINE
  5
282
  8
LAYER_01
 66
     1
 10
0.0
 20
0.0
 30
0.0
 70
     1
  0
VERTEX
  5
283
  8
LAYER_01
 10
1312.995356850006
 20
4202.560965259889
 30
0.0
  0
VERTEX
  5
284
  8
LAYER_01
 10
1413.292904272108
 20
4163.04690679466
 30
0.0
  0
VERTEX
  5
285
  8
LAYER_01
 10
1520.80237946099
 20
4155.130368416485
 30
0.0
  0
VERTEX
  5
286
  8
LAYER_01
 10
1403.197062967767
 20
4118.814135928744
 30
0.0
  0
SEQEND
  5
287
  8
LAYER_01
  0
POLYLINE
  5
288
  8
LAYER_01
 66
     1
 10
0.0
 20
0.0
 30
0.0
 70
     1
  0
VERTEX
  5
289
  8
LAYER_01
 10
1228.505059069719
 20
4183.276606142257
 30
0.0
  0
VERTEX
  5
28A
  8
LAYER_01
 10
1183.57251747537
 20
4068.686266604203
 30
0.0
  0
VERTEX
  5
28B
  8
LAYER_01
 10
1061.856765872722
 20
4050.37902701498
 30
0.0
  0
VERTEX
  5
28C
  8
LAYER_01
 10
1155.284598750043
 20
4104.158194720789
 30
0.0
  0
SEQEND
  5
28D
  8
LAYER_01
  0
POLYLINE
  5
28E
  8
LAYER_01
 66
     1
 10
0.0
 20
0.0
 30
0.0
 70
     1
  0
VERTEX
  5
28F
  8
LAYER_01
 10
1681.041163068544
 20
3909.054228910834
 30
0.0
  0
VERTEX
  5
290
  8
LAYER_01
 10
1579.322273707107
 20
3978.358967252815
 30
0.0
  0
VERTEX
  5
291
  8
LAYER_01
 10
1588.558337560391
 20
4101.096794893983
 30
0.0
  0
VERTEX
  5
292
  8
LAYER_01
 10
1620.199500621315
 20
3998.044402221934
 30
0.0
  0
SEQEND
  5
293
  8
LAYER_01
  0
POLYLINE
  5
294
  8
LAYER_01
 66
     1
 10
0.0
 20
0.0
 30
0.0
 70
     1
  0
VERTEX
  5
295
  8
LAYER_01
 10
1504.818979481664
 20
4065.589389971666
 30
0.0
  0
VERTEX
  5
296
  8
LAYER_01
 10
1511.344180896263
 20
3961.186041380572
 30
0.0
  0
VERTEX
  5
297
  8
LAYER_01
 10
1551.356055791455
 20
3980.454744780999
 30
0.0
  0
VERTEX
  5
298
  8
LAYER_01
 10
1563.278790362122
 20
4138.895674163025
 30
0.0
  0
VERTEX
  5
299
  8
LAYER_01
 10
1411.463363907533
 20
4092.015443857551
 30
0.0
  0
VERTEX
  5
29A
  8
LAYER_01
 10
1401.581246901926
 20
4048.71906032671
 30
0.0
  0
SEQEND
  5
29B
  8
LAYER_01
  0
POLYLINE
  5
29C
  8
LAYER_01
 66
     1
 10
0.0
 20
0.0
 30
0.0
 70
     1
  0
VERTEX
  5
29D
  8
LAYER_01
 10
1187.752354395238
 20
4040.954865787137
 30
0.0
  0
VERTEX
  5
29E
  8
LAYER_01
 10
1030.630811876693
 20
4017.322248926621
 30
0.0
  0
VERTEX
  5
29F
  8
LAYER_01
 10
1110.117767414662
 20
3879.744984807917
 30
0.0
  0
VERTEX
  5
2A0
  8
LAYER_01
 10
1154.527598120962
 20
3879.744984807917
 30
0.0
  0
VERTEX
  5
2A1
  8
LAYER_01
 10
1115.107686189212
 20
3976.64033038152
 30
0.0
  0
VERTEX
  5
2A2
  8
LAYER_01
 10
1215.441430942887
 20
4006.233862009877
 30
0.0
  0
SEQEND
  5
2A3
  8
LAYER_01
  0
POLYLINE
  5
2A4
  8
LAYER_01
 66
     1
 10
0.0
 20
0.0
 30
0.0
 70
     1
  0
VERTEX
  5
2A5
  8
LAYER_01
 10
1536.96665078952
 20
3885.915628970354
 30
0.0
  0
VERTEX
  5
2A6
  8
LAYER_01
 10
1430.260528947544
 20
3906.574614341444
 30
0.0
  0
VERTEX
  5
2A7
  8
LAYER_01
 10
1480.638862552949
 20
4002.881486465192
 30
0.0
  0
VERTEX
  5
2A8
  8
LAYER_01
 10
1485.010159750437
 20
3932.940646925199
 30
0.0
  0
SEQEND
  5
2A9
  8
LAYER_01
  0
POLYLINE
  5
2AA
  8
LAYER_01
 66
     1
 10
0.0
 20
0.0
 30
0.0
 70
     1
  0
VERTEX
  5
2AB
  8
LAYER_01
 10
1331.309363845272
 20
3927.591787646821
 30
0.0
  0
VERTEX
  5
2AC
  8
LAYER_01
 10
1315.033844631638
 20
3931.878906856182
 30
0.0
  0
VERTEX
  5
2AD
  8
LAYER_01
 10
1312.432646133308
 20
4010.296091734387
 30
0.0
  0
VERTEX
  5
2AE
  8
LAYER_01
 10
1344.112988653106
 20
3938.516031719934
 30
0.0
  0
SEQEND
  5
2AF
  8
LAYER_01
  0
POLYLINE
  5
2B0
  8
LAYER_01
 66
     1
 10
0.0
 20
0.0
 30
0.0
 70
     1
  0
VERTEX
  5
2B1
  8
LAYER_01
 10
1181.623953834228
 20
3967.020280722599
 30
0.0
  0
VERTEX
  5
2B2
  8
LAYER_01
 10
1248.838525368211
 20
3986.845281309
 30
0.0
  0
VERTEX
  5
2B3
  8
LAYER_01
 10
1283.123121032131
 20
4047.963165556651
 30
0.0
  0
VERTEX
  5
2B4
  8
LAYER_01
 10
1286.726445447632
 20
3939.335332252869
 30
0.0
  0
SEQEND
  5
2B5
  8
LAYER_01
  0
POLYLINE
  5
2B6
  8
LAYER_01
 66
     1
 10
0.0
 20
0.0
 30
0.0
 70
     1
  0
VERTEX
  5
2B7
  8
LAYER_01
 10
1287.696933787664
 20
3910.078447923863
 30
0.0
  0
VERTEX
  5
2B8
  8
LAYER_01
 10
1288.25492223168
 20
3893.257016186788
 30
0.0
  0
VERTEX
  5
2B9
  8
LAYER_01
 10
1274.755497215051
 20
3883.205277978444
 30
0.0
  0
VERTEX
  5
2BA
  8
LAYER_01
 10
1211.824652574436
 20
3930.063894162334
 30
0.0
  0
SEQEND
  5
2BB
  8
LAYER_01
  0
POLYLINE
  5
2BC
  8
LAYER_01
 66
     1
 10
0.0
 20
0.0
 30
0.0
 70
     1
  0
VERTEX
  5
2BD
  8
LAYER_01
 10
1384.997374386868
 20
3915.337849587713
 30
0.0
  0
VERTEX
  5
2BE
  8
LAYER_01
 10
1378.201558904183
 20
3930.735538008836
 30
0.0
  0
VERTEX
  5
2BF
  8
LAYER_01
 10
1437.888762072162
 20
3981.66155194901
 30
0.0
  0
VERTEX
  5
2C0
  8
LAYER_01
 10
1401.521221819903
 20
3912.138727395842
 30
0.0
  0
SEQEND
  5
2C1
  8
LAYER_01
  0
POLYLINE
  5
2C2
  8
LAYER_01
 66
     1
 10
0.0
 20
0.0
 30
0.0
 70
     1
  0
VERTEX
  5
2C3
  8
LAYER_01
 10
1449.063876240948
 20
4028.061697803339
 30
0.0
  0
VERTEX
  5
2C4
  8
LAYER_01
 10
1366.381852317616
 20
3957.516159070835
 30
0.0
  0
VERTEX
  5
2C5
  8
LAYER_01
 10
1322.496484950855
 20
4056.949878935889
 30
0.0
  0
VERTEX
  5
2C6
  8
LAYER_01
 10
1379.903894436993
 20
4016.760096517485
 30
0.0
  0
SEQEND
  5
2C7
  8
LAYER_01
  0
POLYLINE
  5
2C8
  8
LAYER_01
 66
     1
 10
0.0
 20
0.0
 30
0.0
 70
     1
  0
VERTEX
  5
2C9
  8
LAYER_01
 10
2726.479498484163
 20
3548.168728463251
 30
0.0
  0
VERTEX
  5
2CA
  8
LAYER_01
 10
2681.546956889814
 20
3662.759068001306
 30
0.0
  0
VERTEX
  5
2CB
  8
LAYER_01
 10
2559.831205287166
 20
3681.066307590528
 30
0.0
  0
VERTEX
  5
2CC
  8
LAYER_01
 10
2653.259038164487
 20
3627.287139884719
 30
0.0
  0
SEQEND
  5
2CD
  8
LAYER_01
  0
POLYLINE
  5
2CE
  8
LAYER_01
 66
     1
 10
0.0
 20
0.0
 30
0.0
 70
     1
  0
VERTEX
  5
2CF
  8
LAYER_01
 10
2685.726793809682
 20
3690.490468818371
 30
0.0
  0
VERTEX
  5
2D0
  8
LAYER_01
 10
2528.605251291137
 20
3714.123085678888
 30
0.0
  0
VERTEX
  5
2D1
  8
LAYER_01
 10
2608.092206829107
 20
3851.700349797592
 30
0.0
  0
VERTEX
  5
2D2
  8
LAYER_01
 10
2652.502037535406
 20
3851.700349797591
 30
0.0
  0
VERTEX
  5
2D3
  8
LAYER_01
 10
2613.082125603656
 20
3754.805004223988
 30
0.0
  0
VERTEX
  5
2D4
  8
LAYER_01
 10
2713.415870357331
 20
3725.211472595631
 30
0.0
  0
SEQEND
  5
2D5
  8
LAYER_01
  0
POLYLINE
  5
2D6
  8
LAYER_01
 66
     1
 10
0.0
 20
0.0
 30
0.0
 70
     1
  0
VERTEX
  5
2D7
  8
LAYER_01
 10
2726.479498484163
 20
4183.276606142257
 30
0.0
  0
VERTEX
  5
2D8
  8
LAYER_01
 10
2681.546956889814
 20
4068.686266604203
 30
0.0
  0
VERTEX
  5
2D9
  8
LAYER_01
 10
2559.831205287166
 20
4050.37902701498
 30
0.0
  0
VERTEX
  5
2DA
  8
LAYER_01
 10
2653.259038164487
 20
4104.158194720789
 30
0.0
  0
SEQEND
  5
2DB
  8
LAYER_01
  0
POLYLINE
  5
2DC
  8
LAYER_01
 66
     1
 10
0.0
 20
0.0
 30
0.0
 70
     1
  0
VERTEX
  5
2DD
  8
LAYER_01
 10
2685.726793809682
 20
4040.954865787137
 30
0.0
  0
VERTEX
  5
2DE
  8
LAYER_01
 10
2528.605251291137
 20
4017.322248926621
 30
0.0
  0
VERTEX
  5
2DF
  8
LAYER_01
 10
2608.092206829107
 20
3879.744984807917
 30
0.0
  0
VERTEX
  5
2E0
  8
LAYER_01
 10
2652.502037535406
 20
3879.744984807917
 30
0.0
  0
VERTEX
  5
2E1
  8
LAYER_01
 10
2613.082125603656
 20
3976.64033038152
 30
0.0
  0
VERTEX
  5
2E2
  8
LAYER_01
 10
2713.415870357331
 20
4006.233862009877
 30
0.0
  0
SEQEND
  5
2E3
  8
LAYER_01
  0
POLYLINE
  5
2E4
  8
LAYER_01
 66
     1
 10
0.0
 20
0.0
 30
0.0
 70
     1
  0
VERTEX
  5
2E5
  8
LAYER_01
 10
1782.892018429085
 20
3657.511731429783
 30
0.0
  0
VERTEX
  5
2E6
  8
LAYER_01
 10
1763.92420351196
 20
3583.231673044298
 30
0.0
  0
VERTEX
  5
2E7
  8
LAYER_01
 10
1838.470891169676
 20
3576.219187493948
 30
0.0
  0
SEQEND
  5
2E8
  8
LAYER_01
  0
POLYLINE
  5
2E9
  8
LAYER_01
 66
     1
 10
0.0
 20
0.0
 30
0.0
 70
     1
  0
VERTEX
  5
2EA
  8
LAYER_01
 10
2162.602683186454
 20
3528.884369345619
 30
0.0
  0
VERTEX
  5
2EB
  8
LAYER_01
 10
2062.305135764353
 20
3568.398427810849
 30
0.0
  0
VERTEX
  5
2EC
  8
LAYER_01
 10
1954.79566057547
 20
3576.314966189023
 30
0.0
  0
VERTEX
  5
2ED
  8
LAYER_01
 10
2072.400977068693
 20
3612.631198676764
 30
0.0
  0
SEQEND
  5
2EE
  8
LAYER_01
  0
POLYLINE
  5
2EF
  8
LAYER_01
 66
     1
 10
0.0
 20
0.0
 30
0.0
 70
     1
  0
VERTEX
  5
2F0
  8
LAYER_01
 10
2247.092980966741
 20
3548.168728463251
 30
0.0
  0
VERTEX
  5
2F1
  8
LAYER_01
 10
2292.025522561091
 20
3662.759068001306
 30
0.0
  0
VERTEX
  5
2F2
  8
LAYER_01
 10
2413.741274163739
 20
3681.066307590528
 30
0.0
  0
VERTEX
  5
2F3
  8
LAYER_01
 10
2320.313441286417
 20
3627.287139884719
 30
0.0
  0
SEQEND
  5
2F4
  8
LAYER_01
  0
POLYLINE
  5
2F5
  8
LAYER_01
 66
     1
 10
0.0
 20
0.0
 30
0.0
 70
     1
  0
VERTEX
  5
2F6
  8
LAYER_01
 10
1794.556876967916
 20
3822.391105694674
 30
0.0
  0
VERTEX
  5
2F7
  8
LAYER_01
 10
1896.275766329353
 20
3753.086367352693
 30
0.0
  0
VERTEX
  5
2F8
  8
LAYER_01
 10
1887.03970247607
 20
3630.348539711526
 30
0.0
  0
VERTEX
  5
2F9
  8
LAYER_01
 10
1855.398539415145
 20
3733.400932383575
 30
0.0
  0
SEQEND
  5
2FA
  8
LAYER_01
  0
POLYLINE
  5
2FB
  8
LAYER_01
 66
     1
 10
0.0
 20
0.0
 30
0.0
 70
     1
  0
VERTEX
  5
2FC
  8
LAYER_01
 10
1970.779060554797
 20
3665.855944633843
 30
0.0
  0
VERTEX
  5
2FD
  8
LAYER_01
 10
1964.253859140198
 20
3770.259293224936
 30
0.0
  0
VERTEX
  5
2FE
  8
LAYER_01
 10
1924.241984245006
 20
3750.99058982451
 30
0.0
  0
VERTEX
  5
2FF
  8
LAYER_01
 10
1912.319249674339
 20
3592.549660442484
 30
0.0
  0
VERTEX
  5
300
  8
LAYER_01
 10
2064.134676128927
 20
3639.429890747957
 30
0.0
  0
VERTEX
  5
301
  8
LAYER_01
 10
2074.016793134535
 20
3682.726274278798
 30
0.0
  0
SEQEND
  5
302
  8
LAYER_01
  0
POLYLINE
  5
303
  8
LAYER_01
 66
     1
 10
0.0
 20
0.0
 30
0.0
 70
     1
  0
VERTEX
  5
304
  8
LAYER_01
 10
2287.845685641223
 20
3690.490468818371
 30
0.0
  0
VERTEX
  5
305
  8
LAYER_01
 10
2444.967228159767
 20
3714.123085678888
 30
0.0
  0
VERTEX
  5
306
  8
LAYER_01
 10
2365.480272621798
 20
3851.700349797592
 30
0.0
  0
VERTEX
  5
307
  8
LAYER_01
 10
2321.070441915499
 20
3851.700349797591
 30
0.0
  0
VERTEX
  5
308
  8
LAYER_01
 10
2360.490353847249
 20
3754.805004223988
 30
0.0
  0
VERTEX
  5
309
  8
LAYER_01
 10
2260.156609093573
 20
3725.211472595631
 30
0.0
  0
SEQEND
  5
30A
  8
LAYER_01
  0
POLYLINE
  5
30B
  8
LAYER_01
 66
     1
 10
0.0
 20
0.0
 30
0.0
 70
     1
  0
VERTEX
  5
30C
  8
LAYER_01
 10
1938.63138924694
 20
3845.529705635154
 30
0.0
  0
VERTEX
  5
30D
  8
LAYER_01
 10
2045.337511088916
 20
3824.870720264064
 30
0.0
  0
VERTEX
  5
30E
  8
LAYER_01
 10
1994.959177483511
 20
3728.563848140317
 30
0.0
  0
VERTEX
  5
30F
  8
LAYER_01
 10
1990.587880286023
 20
3798.504687680309
 30
0.0
  0
SEQEND
  5
310
  8
LAYER_01
  0
POLYLINE
  5
311
  8
LAYER_01
 66
     1
 10
0.0
 20
0.0
 30
0.0
 70
     1
  0
VERTEX
  5
312
  8
LAYER_01
 10
2144.288676191189
 20
3803.853546958688
 30
0.0
  0
VERTEX
  5
313
  8
LAYER_01
 10
2160.564195404823
 20
3799.566427749326
 30
0.0
  0
VERTEX
  5
314
  8
LAYER_01
 10
2163.165393903152
 20
3721.149242871122
 30
0.0
  0
VERTEX
  5
315
  8
LAYER_01
 10
2131.485051383354
 20
3792.929302885574
 30
0.0
  0
SEQEND
  5
316
  8
LAYER_01
  0
POLYLINE
  5
317
  8
LAYER_01
 66
     1
 10
0.0
 20
0.0
 30
0.0
 70
     1
  0
VERTEX
  5
318
  8
LAYER_01
 10
2293.974086202232
 20
3764.42505388291
 30
0.0
  0
VERTEX
  5
319
  8
LAYER_01
 10
2226.759514668249
 20
3744.600053296509
 30
0.0
  0
VERTEX
  5
31A
  8
LAYER_01
 10
2192.474919004329
 20
3683.482169048857
 30
0.0
  0
VERTEX
  5
31B
  8
LAYER_01
 10
2188.871594588828
 20
3792.110002352639
 30
0.0
  0
SEQEND
  5
31C
  8
LAYER_01
  0
POLYLINE
  5
31D
  8
LAYER_01
 66
     1
 10
0.0
 20
0.0
 30
0.0
 70
     1
  0
VERTEX
  5
31E
  8
LAYER_01
 10
2187.901106248796
 20
3821.366886681646
 30
0.0
  0
VERTEX
  5
31F
  8
LAYER_01
 10
2187.343117804781
 20
3838.18831841872
 30
0.0
  0
VERTEX
  5
320
  8
LAYER_01
 10
2200.84254282141
 20
3848.240056627063
 30
0.0
  0
VERTEX
  5
321
  8
LAYER_01
 10
2263.773387462025
 20
3801.381440443175
 30
0.0
  0
SEQEND
  5
322
  8
LAYER_01
  0
POLYLINE
  5
323
  8
LAYER_01
 66
     1
 10
0.0
 20
0.0
 30
0.0
 70
     1
  0
VERTEX
  5
324
  8
LAYER_01
 10
2090.600665649592
 20
3816.107485017795
 30
0.0
  0
VERTEX
  5
325
  8
LAYER_01
 10
2097.396481132277
 20
3800.709796596673
 30
0.0
  0
VERTEX
  5
326
  8
LAYER_01
 10
2037.709277964299
 20
3749.783782656499
 30
0.0
  0
VERTEX
  5
327
  8
LAYER_01
 10
2074.076818216558
 20
3819.306607209666
 30
0.0
  0
SEQEND
  5
328
  8
LAYER_01
  0
POLYLINE
  5
329
  8
LAYER_01
 66
     1
 10
0.0
 20
0.0
 30
0.0
 70
     1
  0
VERTEX
  5
32A
  8
LAYER_01
 10
2026.534163795513
 20
3703.383636802169
 30
0.0
  0
VERTEX
  5
32B
  8
LAYER_01
 10
2109.216187718844
 20
3773.929175534673
 30
0.0
  0
VERTEX
  5
32C
  8
LAYER_01
 10
2153.101555085606
 20
3674.49545566962
 30
0.0
  0
VERTEX
  5
32D
  8
LAYER_01
 10
2095.694145599467
 20
3714.685238088023
 30
0.0
  0
SEQEND
  5
32E
  8
LAYER_01
  0
POLYLINE
  5
32F
  8
LAYER_01
 66
     1
 10
0.0
 20
0.0
 30
0.0
 70
     1
  0
VERTEX
  5
330
  8
LAYER_01
 10
1782.892018429085
 20
4073.933603175725
 30
0.0
  0
VERTEX
  5
331
  8
LAYER_01
 10
1763.92420351196
 20
4148.213661561211
 30
0.0
  0
VERTEX
  5
332
  8
LAYER_01
 10
1838.470891169676
 20
4155.22614711156
 30
0.0
  0
SEQEND
  5
333
  8
LAYER_01
  0
POLYLINE
  5
334
  8
LAYER_01
 66
     1
 10
0.0
 20
0.0
 30
0.0
 70
     1
  0
VERTEX
  5
335
  8
LAYER_01
 10
2162.602683186454
 20
4202.560965259889
 30
0.0
  0
VERTEX
  5
336
  8
LAYER_01
 10
2062.305135764353
 20
4163.04690679466
 30
0.0
  0
VERTEX
  5
337
  8
LAYER_01
 10
1954.79566057547
 20
4155.130368416485
 30
0.0
  0
VERTEX
  5
338
  8
LAYER_01
 10
2072.400977068693
 20
4118.814135928744
 30
0.0
  0
SEQEND
  5
339
  8
LAYER_01
  0
POLYLINE
  5
33A
  8
LAYER_01
 66
     1
 10
0.0
 20
0.0
 30
0.0
 70
     1
  0
VERTEX
  5
33B
  8
LAYER_01
 10
2247.092980966741
 20
4183.276606142257
 30
0.0
  0
VERTEX
  5
33C
  8
LAYER_01
 10
2292.025522561091
 20
4068.686266604203
 30
0.0
  0
VERTEX
  5
33D
  8
LAYER_01
 10
2413.741274163739
 20
4050.37902701498
 30
0.0
  0
VERTEX
  5
33E
  8
LAYER_01
 10
2320.313441286417
 20
4104.158194720789
 30
0.0
  0
SEQEND
  5
33F
  8
LAYER_01
  0
POLYLINE
  5
340
  8
LAYER_01
 66
     1
 10
0.0
 20
0.0
 30
0.0
 70
     1
  0
VERTEX
  5
341
  8
LAYER_01
 10
1794.556876967916
 20
3909.054228910834
 30
0.0
  0
VERTEX
  5
342
  8
LAYER_01
 10
1896.275766329353
 20
3978.358967252815
 30
0.0
  0
VERTEX
  5
343
  8
LAYER_01
 10
1887.03970247607
 20
4101.096794893983
 30
0.0
  0
VERTEX
  5
344
  8
LAYER_01
 10
1855.398539415145
 20
3998.044402221934
 30
0.0
  0
SEQEND
  5
345
  8
LAYER_01
  0
POLYLINE
  5
346
  8
LAYER_01
 66
     1
 10
0.0
 20
0.0
 30
0.0
 70
     1
  0
VERTEX
  5
347
  8
LAYER_01
 10
1970.779060554797
 20
4065.589389971666
 30
0.0
  0
VERTEX
  5
348
  8
LAYER_01
 10
1964.253859140198
 20
3961.186041380572
 30
0.0
  0
VERTEX
  5
349
  8
LAYER_01
 10
1924.241984245006
 20
3980.454744780999
 30
0.0
  0
VERTEX
  5
34A
  8
LAYER_01
 10
1912.319249674339
 20
4138.895674163025
 30
0.0
  0
VERTEX
  5
34B
  8
LAYER_01
 10
2064.134676128927
 20
4092.015443857551
 30
0.0
  0
VERTEX
  5
34C
  8
LAYER_01
 10
2074.016793134535
 20
4048.71906032671
 30
0.0
  0
SEQEND
  5
34D
  8
LAYER_01
  0
POLYLINE
  5
34E
  8
LAYER_01
 66
     1
 10
0.0
 20
0.0
 30
0.0
 70
     1
  0
VERTEX
  5
34F
  8
LAYER_01
 10
2287.845685641223
 20
4040.954865787137
 30
0.0
  0
VERTEX
  5
350
  8
LAYER_01
 10
2444.967228159767
 20
4017.322248926621
 30
0.0
  0
VERTEX
  5
351
  8
LAYER_01
 10
2365.480272621798
 20
3879.744984807917
 30
0.0
  0
VERTEX
  5
352
  8
LAYER_01
 10
2321.070441915499
 20
3879.744984807917
 30
0.0
  0
VERTEX
  5
353
  8
LAYER_01
 10
2360.490353847249
 20
3976.64033038152
 30
0.0
  0
VERTEX
  5
354
  8
LAYER_01
 10
2260.156609093573
 20
4006.233862009877
 30
0.0
  0
SEQEND
  5
355
  8
LAYER_01
  0
POLYLINE
  5
356
  8
LAYER_01
 66
     1
 10
0.0
 20
0.0
 30
0.0
 70
     1
  0
VERTEX
  5
357
  8
LAYER_01
 10
1938.63138924694
 20
3885.915628970354
 30
0.0
  0
VERTEX
  5
358
  8
LAYER_01
 10
2045.337511088916
 20
3906.574614341444
 30
0.0
  0
VERTEX
  5
359
  8
LAYER_01
 10
1994.959177483511
 20
4002.881486465192
 30
0.0
  0
VERTEX
  5
35A
  8
LAYER_01
 10
1990.587880286023
 20
3932.940646925199
 30
0.0
  0
SEQEND
  5
35B
  8
LAYER_01
  0
POLYLINE
  5
35C
  8
LAYER_01
 66
     1
 10
0.0
 20
0.0
 30
0.0
 70
     1
  0
VERTEX
  5
35D
  8
LAYER_01
 10
2144.288676191189
 20
3927.591787646821
 30
0.0
  0
VERTEX
  5
35E
  8
LAYER_01
 10
2160.564195404823
 20
3931.878906856182
 30
0.0
  0
VERTEX
  5
35F
  8
LAYER_01
 10
2163.165393903152
 20
4010.296091734387
 30
0.0
  0
VERTEX
  5
360
  8
LAYER_01
 10
2131.485051383354
 20
3938.516031719934
 30
0.0
  0
SEQEND
  5
361
  8
LAYER_01
  0
POLYLINE
  5
362
  8
LAYER_01
 66
     1
 10
0.0
 20
0.0
 30
0.0
 70
     1
  0
VERTEX
  5
363
  8
LAYER_01
 10
2293.974086202232
 20
3967.020280722599
 30
0.0
  0
VERTEX
  5
364
  8
LAYER_01
 10
2226.759514668249
 20
3986.845281309
 30
0.0
  0
VERTEX
  5
365
  8
LAYER_01
 10
2192.474919004329
 20
4047.963165556651
 30
0.0
  0
VERTEX
  5
366
  8
LAYER_01
 10
2188.871594588828
 20
3939.335332252869
 30
0.0
  0
SEQEND
  5
367
  8
LAYER_01
  0
POLYLINE
  5
368
  8
LAYER_01
 66
     1
 10
0.0
 20
0.0
 30
0.0
 70
     1
  0
VERTEX
  5
369
  8
LAYER_01
 10
2187.901106248796
 20
3910.078447923863
 30
0.0
  0
VERTEX
  5
36A
  8
LAYER_01
 10
2187.343117804781
 20
3893.257016186788
 30
0.0
  0
VERTEX
  5
36B
  8
LAYER_01
 10
2200.84254282141
 20
3883.205277978444
 30
0.0
  0
VERTEX
  5
36C
  8
LAYER_01
 10
2263.773387462025
 20
3930.063894162334
 30
0.0
  0
SEQEND
  5
36D
  8
LAYER_01
  0
POLYLINE
  5
36E
  8
LAYER_01
 66
     1
 10
0.0
 20
0.0
 30
0.0
 70
     1
  0
VERTEX
  5
36F
  8
LAYER_01
 10
2090.600665649592
 20
3915.337849587713
 30
0.0
  0
VERTEX
  5
370
  8
LAYER_01
 10
2097.396481132277
 20
3930.735538008836
 30
0.0
  0
VERTEX
  5
371
  8
LAYER_01
 10
2037.709277964299
 20
3981.66155194901
 30
0.0
  0
VERTEX
  5
372
  8
LAYER_01
 10
2074.076818216558
 20
3912.138727395842
 30
0.0
  0
SEQEND
  5
373
  8
LAYER_01
  0
POLYLINE
  5
374
  8
LAYER_01
 66
     1
 10
0.0
 20
0.0
 30
0.0
 70
     1
  0
VERTEX
  5
375
  8
LAYER_01
 10
2026.534163795513
 20
4028.061697803339
 30
0.0
  0
VERTEX
  5
376
  8
LAYER_01
 10
2109.216187718844
 20
3957.516159070835
 30
0.0
  0
VERTEX
  5
377
  8
LAYER_01
 10
2153.101555085606
 20
4056.949878935889
 30
0.0
  0
VERTEX
  5
378
  8
LAYER_01
 10
2095.694145599467
 20
4016.760096517485
 30
0.0
  0
SEQEND
  5
379
  8
LAYER_01
  0
POLYLINE
  5
37A
  8
LAYER_01
 66
     1
 10
0.0
 20
0.0
 30
0.0
 70
     1
  0
VERTEX
  5
37B
  8
LAYER_01
 10
717.7990200182303
 20
3505.722667302754
 30
0.0
  0
VERTEX
  5
37C
  8
LAYER_01
 10
2757.79902001823
 20
3505.722667302754
 30
0.0
  0
VERTEX
  5
37D
  8
LAYER_01
 10
2757.79902001823
 20
4225.722667302754
 30
0.0
  0
VERTEX
  5
37E
  8
LAYER_01
 10
717.7990200182303
 20
4225.722667302754
 30
0.0
  0
SEQEND
  5
37F
  8
LAYER_01
  0
ENDSEC
  0
EOF
