  0
SECTION
  2
HEADER
  9
$ACADVER
  1
AC1009
  9
$DWGCODEPAGE
  3
ansi_1252
  9
$INSBASE
 10
0.0
 20
0.0
 30
0.0
  9
$EXTMIN
 10
1.000000000000000E+20
 20
1.000000000000000E+20
 30
1.000000000000000E+20
  9
$EXTMAX
 10
-1.000000000000000E+20
 20
-1.000000000000000E+20
 30
-1.000000000000000E+20
  9
$LIMMIN
 10
0.0
 20
0.0
  9
$LIMMAX
 10
12.0
 20
9.0
  9
$ORTHOMODE
 70
     0
  9
$REGENMODE
 70
     1
  9
$FILLMODE
 70
     1
  9
$QTEXTMODE
 70
     0
  9
$MIRRTEXT
 70
     1
  9
$DRAGMODE
 70
     2
  9
$LTSCALE
 40
1.0
  9
$OSMODE
 70
    37
  9
$ATTMODE
 70
     1
  9
$TEXTSIZE
 40
0.2
  9
$TRACEWID
 40
0.05
  9
$TEXTSTYLE
  7
STANDARD
  9
$CLAYER
  8
LAYER_01
  9
$CELTYPE
  6
BYLAYER
  9
$CECOLOR
 62
   256
  9
$DIMSCALE
 40
1.0
  9
$DIMASZ
 40
0.18
  9
$DIMEXO
 40
0.0625
  9
$DIMDLI
 40
0.38
  9
$DIMRND
 40
0.0
  9
$DIMDLE
 40
0.0
  9
$DIMEXE
 40
0.18
  9
$DIMTP
 40
0.0
  9
$DIMTM
 40
0.0
  9
$DIMTXT
 40
0.18
  9
$DIMCEN
 40
0.09
  9
$DIMTSZ
 40
0.0
  9
$DIMTOL
 70
     0
  9
$DIMLIM
 70
     0
  9
$DIMTIH
 70
     1
  9
$DIMTOH
 70
     1
  9
$DIMSE1
 70
     0
  9
$DIMSE2
 70
     0
  9
$DIMTAD
 70
     0
  9
$DIMZIN
 70
     0
  9
$DIMBLK
  1

  9
$DIMASO
 70
     1
  9
$DIMSHO
 70
     1
  9
$DIMPOST
  1

  9
$DIMAPOST
  1

  9
$DIMALT
 70
     0
  9
$DIMALTD
 70
     2
  9
$DIMALTF
 40
25.4
  9
$DIMLFAC
 40
1.0
  9
$DIMTOFL
 70
     0
  9
$DIMTVP
 40
0.0
  9
$DIMTIX
 70
     0
  9
$DIMSOXD
 70
     0
  9
$DIMSAH
 70
     0
  9
$DIMBLK1
  1

  9
$DIMBLK2
  1

  9
$DIMSTYLE
  2
STANDARD_ACAD
  9
$DIMCLRD
 70
     0
  9
$DIMCLRE
 70
     0
  9
$DIMCLRT
 70
     0
  9
$DIMTFAC
 40
1.0
  9
$DIMGAP
 40
0.09
  9
$LUNITS
 70
     2
  9
$LUPREC
 70
     3
  9
$SKETCHINC
 40
0.1
  9
$FILLETRAD
 40
0.5
  9
$AUNITS
 70
     0
  9
$AUPREC
 70
     0
  9
$MENU
  1
.
  9
$ELEVATION
 40
0.0
  9
$PELEVATION
 40
0.0
  9
$THICKNESS
 40
0.0
  9
$LIMCHECK
 70
     0
  9
$CHAMFERA
 40
0.0
  9
$CHAMFERB
 40
0.0
  9
$SKPOLY
 70
     0
  9
$TDCREATE
 40
2459723.429636342
  9
$TDUPDATE
 40
2459723.429636435
  9
$TDINDWG
 40
0.0000000116
  9
$TDUSRTIMER
 40
0.0000000116
  9
$USRTIMER
 70
     1
  9
$ANGBASE
 50
0.0
  9
$ANGDIR
 70
     0
  9
$PDMODE
 70
     0
  9
$PDSIZE
 40
0.0
  9
$PLINEWID
 40
0.0
  9
$COORDS
 70
     1
  9
$SPLFRAME
 70
     0
  9
$SPLINETYPE
 70
     6
  9
$SPLINESEGS
 70
     8
  9
$ATTDIA
 70
     0
  9
$ATTREQ
 70
     1
  9
$HANDLING
 70
     1
  9
$HANDSEED
  5
240
  9
$SURFTAB1
 70
     6
  9
$SURFTAB2
 70
     6
  9
$SURFTYPE
 70
     6
  9
$SURFU
 70
     6
  9
$SURFV
 70
     6
  9
$UCSNAME
  2

  9
$UCSORG
 10
0.0
 20
0.0
 30
0.0
  9
$UCSXDIR
 10
1.0
 20
0.0
 30
0.0
  9
$UCSYDIR
 10
0.0
 20
1.0
 30
0.0
  9
$PUCSNAME
  2

  9
$PUCSORG
 10
0.0
 20
0.0
 30
0.0
  9
$PUCSXDIR
 10
1.0
 20
0.0
 30
0.0
  9
$PUCSYDIR
 10
0.0
 20
1.0
 30
0.0
  9
$USERI1
 70
     0
  9
$USERI2
 70
     0
  9
$USERI3
 70
     0
  9
$USERI4
 70
     0
  9
$USERI5
 70
     0
  9
$USERR1
 40
0.0
  9
$USERR2
 40
0.0
  9
$USERR3
 40
0.0
  9
$USERR4
 40
0.0
  9
$USERR5
 40
0.0
  9
$WORLDVIEW
 70
     1
  9
$SHADEDGE
 70
     3
  9
$SHADEDIF
 70
    70
  9
$TILEMODE
 70
     1
  9
$MAXACTVP
 70
    64
  9
$PLIMCHECK
 70
     0
  9
$PEXTMIN
 10
1.000000000000000E+20
 20
1.000000000000000E+20
 30
1.000000000000000E+20
  9
$PEXTMAX
 10
-1.000000000000000E+20
 20
-1.000000000000000E+20
 30
-1.000000000000000E+20
  9
$PLIMMIN
 10
0.0
 20
0.0
  9
$PLIMMAX
 10
12.0
 20
9.0
  9
$UNITMODE
 70
     0
  9
$VISRETAIN
 70
     1
  9
$PLINEGEN
 70
     0
  9
$PSLTSCALE
 70
     1
  0
ENDSEC
  0
SECTION
  2
TABLES
  0
TABLE
  2
VPORT
 70
     1
  0
VPORT
  2
*ACTIVE
 70
     0
 10
0.0
 20
0.0
 11
1.0
 21
1.0
 12
10.42990654205607
 22
4.5
 13
0.0
 23
0.0
 14
0.5
 24
0.5
 15
0.5
 25
0.5
 16
0.0
 26
0.0
 36
1.0
 17
0.0
 27
0.0
 37
0.0
 40
9.0
 41
1.972972972850329
 42
50.0
 43
0.0
 44
0.0
 50
0.0
 51
0.0
 71
     0
 72
   100
 73
     1
 74
     3
 75
     0
 76
     0
 77
     0
 78
     0
  0
ENDTAB
  0
TABLE
  2
LTYPE
 70
     1
  0
LTYPE
  2
CONTINUOUS
 70
     0
  3
Solid line
 72
    65
 73
     0
 40
0.0
  0
ENDTAB
  0
TABLE
  2
LAYER
 70
     2
  0
LAYER
  2
0
 70
     0
 62
     7
  6
CONTINUOUS
  0
LAYER
  2
LAYER_01
 70
     0
 62
     7
  6
CONTINUOUS
  0
ENDTAB
  0
TABLE
  2
STYLE
 70
     1
  0
STYLE
  2
STANDARD
 70
     0
 40
0.0
 41
1.0
 50
0.0
 71
     0
 42
0.2
  3
txt
  4

  0
ENDTAB
  0
TABLE
  2
VIEW
 70
     0
  0
ENDTAB
  0
TABLE
  2
UCS
 70
     0
  0
ENDTAB
  0
TABLE
  2
APPID
 70
     2
  0
APPID
  2
ACAD
 70
     0
  0
APPID
  2
RHINO
 70
     0
  0
ENDTAB
  0
TABLE
  2
DIMSTYLE
 70
     1
  0
DIMSTYLE
  2
STANDARD_ACAD
 70
     0
  3

  4

  5

  6

  7

 40
1.0
 41
0.18
 42
0.0625
 43
0.38
 44
0.18
 45
0.0
 46
0.0
 47
0.0
 48
0.0
140
0.18
141
0.09
142
0.0
143
25.4
144
1.0
145
0.0
146
1.0
147
0.09
 71
     0
 72
     0
 73
     1
 74
     1
 75
     0
 76
     0
 77
     0
 78
     0
170
     0
171
     2
172
     0
173
     0
174
     0
175
     0
176
     0
177
     0
178
     0
  0
ENDTAB
  0
ENDSEC
  0
SECTION
  2
BLOCKS
  0
BLOCK
  8
0
  2
$MODEL_SPACE
 70
     0
 10
0.0
 20
0.0
 30
0.0
  3
$MODEL_SPACE
  1

  0
ENDBLK
  5
21
  8
0
  0
BLOCK
 67
     1
  8
0
  2
$PAPER_SPACE
 70
     0
 10
0.0
 20
0.0
 30
0.0
  3
$PAPER_SPACE
  1

  0
ENDBLK
  5
1D
 67
     1
  8
0
  0
ENDSEC
  0
SECTION
  2
ENTITIES
  0
LINE
  5
70
  8
LAYER_01
 10
111.7844160835936
 20
308.6355138858243
 30
0.0
 11
99.76750354428985
 21
329.4494169540098
 31
0.0
  0
LINE
  5
71
  8
LAYER_01
 10
123.6209348642802
 20
288.1340619729318
 30
0.0
 11
114.2862704866295
 21
304.3021749466262
 31
0.0
  0
LINE
  5
72
  8
LAYER_01
 10
86.0631654646022
 20
295.077766357214
 30
0.0
 11
111.7844160835935
 21
308.6355138858243
 31
0.0
  0
LINE
  5
73
  8
LAYER_01
 10
114.2862704866295
 20
304.3021749466262
 30
0.0
 11
86.06316546460218
 21
289.4256925379685
 31
0.0
  0
LINE
  5
74
  8
LAYER_01
 10
86.06316546460218
 20
289.4256925379685
 30
0.0
 11
86.0631654646022
 21
295.077766357214
 31
0.0
  0
LINE
  5
75
  8
LAYER_01
 10
126.5076862102283
 20
293.1340619729319
 30
0.0
 11
123.6209348642802
 21
288.1340619729318
 31
0.0
  0
LINE
  5
76
  8
LAYER_01
 10
105.5410062361861
 20
329.4494169540098
 30
0.0
 11
126.5076862102283
 21
293.1340619729319
 31
0.0
  0
LINE
  5
77
  8
LAYER_01
 10
99.76750354428985
 20
329.4494169540098
 30
0.0
 11
105.5410062361861
 21
329.4494169540098
 31
0.0
  0
LINE
  5
78
  8
LAYER_01
 10
86.06316546460218
 20
343.1860267921298
 30
0.0
 11
104.8561255032433
 21
310.6356651805918
 31
0.0
  0
LINE
  5
79
  8
LAYER_01
 10
86.0631654646022
 20
300.7298401764594
 30
0.0
 11
86.06316546460218
 21
343.1860267921298
 31
0.0
  0
LINE
  5
7A
  8
LAYER_01
 10
104.8561255032433
 20
310.6356651805918
 30
0.0
 11
86.0631654646022
 21
300.7298401764594
 31
0.0
  0
LINE
  5
7B
  8
LAYER_01
 10
86.06316546460219
 20
282.4945052271408
 30
0.0
 11
86.06316546460219
 21
283.7736187187231
 31
0.0
  0
LINE
  5
7C
  8
LAYER_01
 10
112.3616887123511
 20
268.6324755828664
 30
0.0
 11
86.06316546460219
 21
282.4945052271408
 31
0.0
  0
LINE
  5
7D
  8
LAYER_01
 10
120.734183518332
 20
283.1340619729319
 30
0.0
 11
112.3616887123511
 21
268.6324755828664
 31
0.0
  0
LINE
  5
7E
  8
LAYER_01
 10
112.3616887123511
 20
297.6356483629975
 30
0.0
 11
120.734183518332
 21
283.1340619729319
 31
0.0
  0
LINE
  5
7F
  8
LAYER_01
 10
86.06316546460219
 20
283.7736187187231
 30
0.0
 11
112.3616887123511
 21
297.6356483629975
 31
0.0
  0
LINE
  5
80
  8
LAYER_01
 10
155.3343041910179
 20
320.8623217148815
 30
0.0
 11
161.5777140384253
 21
310.048418646696
 31
0.0
  0
LINE
  5
81
  8
LAYER_01
 10
143.4977854103312
 20
341.363773627774
 30
0.0
 11
152.832449787982
 21
325.1956606540796
 31
0.0
  0
LINE
  5
82
  8
LAYER_01
 10
186.9489216821027
 20
337.5264804102305
 30
0.0
 11
155.3343041910179
 21
320.8623217148815
 31
0.0
  0
LINE
  5
83
  8
LAYER_01
 10
152.832449787982
 20
325.1956606540796
 30
0.0
 11
186.9489216821027
 21
343.1785542294759
 31
0.0
  0
LINE
  5
84
  8
LAYER_01
 10
154.7570315622604
 20
331.8621872377083
 30
0.0
 11
146.3845367562794
 21
346.363773627774
 31
0.0
  0
LINE
  5
85
  8
LAYER_01
 10
182.2688979047118
 20
346.3637736277738
 30
0.0
 11
154.7570315622604
 21
331.8621872377083
 31
0.0
  0
LINE
  5
86
  8
LAYER_01
 10
154.7570315622603
 20
360.8653600178394
 30
0.0
 11
182.2688979047118
 21
346.3637736277738
 31
0.0
  0
LINE
  5
87
  8
LAYER_01
 10
146.3845367562794
 20
346.363773627774
 30
0.0
 11
154.7570315622603
 21
360.8653600178394
 31
0.0
  0
LINE
  5
88
  8
LAYER_01
 10
186.9489216821027
 20
343.1785542294759
 30
0.0
 11
186.9489216821027
 21
337.5264804102305
 31
0.0
  0
LINE
  5
89
  8
LAYER_01
 10
186.9489216821027
 20
310.0484186466959
 30
0.0
 11
167.3512167303216
 21
310.0484186466959
 31
0.0
  0
LINE
  5
8A
  8
LAYER_01
 10
186.9489216821027
 20
331.874406590985
 30
0.0
 11
186.9489216821027
 21
310.0484186466959
 31
0.0
  0
LINE
  5
8B
  8
LAYER_01
 10
162.2625947713681
 20
318.8621704201139
 30
0.0
 11
186.9489216821027
 21
331.874406590985
 31
0.0
  0
LINE
  5
8C
  8
LAYER_01
 10
167.3512167303216
 20
310.0484186466959
 30
0.0
 11
162.2625947713681
 21
318.8621704201139
 31
0.0
  0
LINE
  5
8D
  8
LAYER_01
 10
140.6110340643831
 20
336.3637736277739
 30
0.0
 11
143.4977854103312
 21
341.363773627774
 31
0.0
  0
LINE
  5
8E
  8
LAYER_01
 10
155.804211346529
 20
310.0484186466961
 30
0.0
 11
140.6110340643831
 21
336.3637736277739
 31
0.0
  0
LINE
  5
8F
  8
LAYER_01
 10
161.5777140384253
 20
310.048418646696
 30
0.0
 11
155.804211346529
 21
310.0484186466961
 31
0.0
  0
POLYLINE
  5
90
  8
LAYER_01
 66
     1
 10
0.0
 20
0.0
 30
0.0
 70
     1
  0
VERTEX
  5
91
  8
LAYER_01
 10
146.3845367562796
 20
219.9043503180903
 30
0.0
  0
VERTEX
  5
92
  8
LAYER_01
 10
154.7570315622605
 20
234.4059367081557
 30
0.0
  0
VERTEX
  5
93
  8
LAYER_01
 10
182.2688979047119
 20
219.9043503180902
 30
0.0
  0
VERTEX
  5
94
  8
LAYER_01
 10
154.7570315622605
 20
205.4027639280247
 30
0.0
  0
SEQEND
  5
95
  8
LAYER_01
  0
POLYLINE
  5
96
  8
LAYER_01
 66
     1
 10
0.0
 20
0.0
 30
0.0
 70
     1
  0
VERTEX
  5
97
  8
LAYER_01
 10
146.3845367562795
 20
93.44492700840652
 30
0.0
  0
VERTEX
  5
98
  8
LAYER_01
 10
154.7570315622606
 20
107.9465133984721
 30
0.0
  0
VERTEX
  5
99
  8
LAYER_01
 10
182.268897904712
 20
93.44492700840655
 30
0.0
  0
VERTEX
  5
9A
  8
LAYER_01
 10
154.7570315622606
 20
78.94334061834098
 30
0.0
  0
SEQEND
  5
9B
  8
LAYER_01
  0
POLYLINE
  5
9C
  8
LAYER_01
 66
     1
 10
0.0
 20
0.0
 30
0.0
 70
     1
  0
VERTEX
  5
9D
  8
LAYER_01
 10
170.2379680762697
 20
305.048418646696
 30
0.0
  0
VERTEX
  5
9E
  8
LAYER_01
 10
173.1247194222178
 20
300.0484186466961
 30
0.0
  0
VERTEX
  5
9F
  8
LAYER_01
 10
199.5756755442838
 20
300.0484186466961
 30
0.0
  0
VERTEX
  5
A0
  8
LAYER_01
 10
199.5756755442838
 20
305.0484186466961
 30
0.0
  0
SEQEND
  5
A1
  8
LAYER_01
  0
POLYLINE
  5
A2
  8
LAYER_01
 66
     1
 10
0.0
 20
0.0
 30
0.0
 70
     1
  0
VERTEX
  5
A3
  8
LAYER_01
 10
149.617809011279
 20
361.9639654481362
 30
0.0
  0
VERTEX
  5
A4
  8
LAYER_01
 10
143.4977854103313
 20
351.363773627774
 30
0.0
  0
VERTEX
  5
A5
  8
LAYER_01
 10
140.6110340643831
 20
356.363773627774
 30
0.0
  0
VERTEX
  5
A6
  8
LAYER_01
 10
143.8443063193827
 20
361.9639654481362
 30
0.0
  0
SEQEND
  5
A7
  8
LAYER_01
  0
POLYLINE
  5
A8
  8
LAYER_01
 66
     1
 10
0.0
 20
0.0
 30
0.0
 70
     1
  0
VERTEX
  5
A9
  8
LAYER_01
 10
102.654254890238
 20
334.4494169540098
 30
0.0
  0
VERTEX
  5
AA
  8
LAYER_01
 10
95.77549785741907
 20
346.3637736277739
 30
0.0
  0
VERTEX
  5
AB
  8
LAYER_01
 10
104.782272804315
 20
361.9639654481362
 30
0.0
  0
VERTEX
  5
AC
  8
LAYER_01
 10
99.0087701124187
 20
361.9639654481362
 30
0.0
  0
VERTEX
  5
AD
  8
LAYER_01
 10
90.00199516552281
 20
346.3637736277739
 30
0.0
  0
VERTEX
  5
AE
  8
LAYER_01
 10
96.88075219834172
 20
334.4494169540098
 30
0.0
  0
SEQEND
  5
AF
  8
LAYER_01
  0
POLYLINE
  5
B0
  8
LAYER_01
 66
     1
 10
0.0
 20
0.0
 30
0.0
 70
     1
  0
VERTEX
  5
B1
  8
LAYER_01
 10
134.8375313724869
 20
336.3637736277739
 30
0.0
  0
VERTEX
  5
B2
  8
LAYER_01
 10
131.9507800265387
 20
341.363773627774
 30
0.0
  0
VERTEX
  5
B3
  8
LAYER_01
 10
125.0720229937198
 20
329.4494169540098
 30
0.0
  0
VERTEX
  5
B4
  8
LAYER_01
 10
111.3145089280824
 20
329.4494169540098
 30
0.0
  0
VERTEX
  5
B5
  8
LAYER_01
 10
114.2012602740305
 20
324.4494169540098
 30
0.0
  0
VERTEX
  5
B6
  8
LAYER_01
 10
127.9587743396679
 20
324.4494169540098
 30
0.0
  0
SEQEND
  5
B7
  8
LAYER_01
  0
POLYLINE
  5
B8
  8
LAYER_01
 66
     1
 10
0.0
 20
0.0
 30
0.0
 70
     1
  0
VERTEX
  5
B9
  8
LAYER_01
 10
129.3944375561764
 20
288.1340619729319
 30
0.0
  0
VERTEX
  5
BA
  8
LAYER_01
 10
132.2811889021245
 20
283.1340619729319
 30
0.0
  0
VERTEX
  5
BB
  8
LAYER_01
 10
129.3944375561764
 20
278.1340619729319
 30
0.0
  0
VERTEX
  5
BC
  8
LAYER_01
 10
126.5076862102283
 20
283.1340619729319
 30
0.0
  0
SEQEND
  5
BD
  8
LAYER_01
  0
POLYLINE
  5
BE
  8
LAYER_01
 66
     1
 10
0.0
 20
0.0
 30
0.0
 70
     1
  0
VERTEX
  5
BF
  8
LAYER_01
 10
135.1679402480727
 20
288.1340619729319
 30
0.0
  0
VERTEX
  5
C0
  8
LAYER_01
 10
142.0466972808916
 20
300.048418646696
 30
0.0
  0
VERTEX
  5
C1
  8
LAYER_01
 10
155.804211346529
 20
300.048418646696
 30
0.0
  0
VERTEX
  5
C2
  8
LAYER_01
 10
152.9174600005808
 20
305.0484186466961
 30
0.0
  0
VERTEX
  5
C3
  8
LAYER_01
 10
139.1599459349434
 20
305.048418646696
 30
0.0
  0
VERTEX
  5
C4
  8
LAYER_01
 10
132.2811889021245
 20
293.1340619729319
 30
0.0
  0
SEQEND
  5
C5
  8
LAYER_01
  0
POLYLINE
  5
C6
  8
LAYER_01
 66
     1
 10
0.0
 20
0.0
 30
0.0
 70
     1
  0
VERTEX
  5
C7
  8
LAYER_01
 10
158.6909626924773
 20
271.2197052991681
 30
0.0
  0
VERTEX
  5
C8
  8
LAYER_01
 10
165.569719725296
 20
283.1340619729319
 30
0.0
  0
VERTEX
  5
C9
  8
LAYER_01
 10
158.6909626924772
 20
295.0484186466959
 30
0.0
  0
VERTEX
  5
CA
  8
LAYER_01
 10
144.9334486268397
 20
295.048418646696
 30
0.0
  0
VERTEX
  5
CB
  8
LAYER_01
 10
138.0546915940208
 20
283.1340619729319
 30
0.0
  0
VERTEX
  5
CC
  8
LAYER_01
 10
144.9334486268395
 20
271.2197052991681
 30
0.0
  0
SEQEND
  5
CD
  8
LAYER_01
  0
POLYLINE
  5
CE
  8
LAYER_01
 66
     1
 10
0.0
 20
0.0
 30
0.0
 70
     1
  0
VERTEX
  5
CF
  8
LAYER_01
 10
186.948921682103
 20
129.7602819894844
 30
0.0
  0
VERTEX
  5
D0
  8
LAYER_01
 10
186.948921682103
 20
107.9342940451953
 30
0.0
  0
VERTEX
  5
D1
  8
LAYER_01
 10
162.2625947713684
 20
120.9465302160665
 30
0.0
  0
VERTEX
  5
D2
  8
LAYER_01
 10
167.3512167303217
 20
129.7602819894844
 30
0.0
  0
SEQEND
  5
D3
  8
LAYER_01
  0
POLYLINE
  5
D4
  8
LAYER_01
 66
     1
 10
0.0
 20
0.0
 30
0.0
 70
     1
  0
VERTEX
  5
D5
  8
LAYER_01
 10
140.6110340643833
 20
103.4449270084065
 30
0.0
  0
VERTEX
  5
D6
  8
LAYER_01
 10
155.8042113465292
 20
129.7602819894844
 30
0.0
  0
VERTEX
  5
D7
  8
LAYER_01
 10
161.5777140384255
 20
129.7602819894844
 30
0.0
  0
VERTEX
  5
D8
  8
LAYER_01
 10
155.3343041910181
 20
118.9463789212989
 30
0.0
  0
VERTEX
  5
D9
  8
LAYER_01
 10
186.948921682103
 20
102.2822202259499
 30
0.0
  0
VERTEX
  5
DA
  8
LAYER_01
 10
186.9489216821029
 20
96.6301464067044
 30
0.0
  0
VERTEX
  5
DB
  8
LAYER_01
 10
152.8324497879822
 20
114.6130399821009
 30
0.0
  0
VERTEX
  5
DC
  8
LAYER_01
 10
143.4977854103315
 20
98.44492700840652
 30
0.0
  0
SEQEND
  5
DD
  8
LAYER_01
  0
POLYLINE
  5
DE
  8
LAYER_01
 66
     1
 10
0.0
 20
0.0
 30
0.0
 70
     1
  0
VERTEX
  5
DF
  8
LAYER_01
 10
86.06316546460219
 20
96.62267384405034
 30
0.0
  0
VERTEX
  5
E0
  8
LAYER_01
 10
104.8561255032434
 20
129.1730354555884
 30
0.0
  0
VERTEX
  5
E1
  8
LAYER_01
 10
86.06316546460219
 20
139.0788604597208
 30
0.0
  0
SEQEND
  5
E2
  8
LAYER_01
  0
POLYLINE
  5
E3
  8
LAYER_01
 66
     1
 10
0.0
 20
0.0
 30
0.0
 70
     1
  0
VERTEX
  5
E4
  8
LAYER_01
 10
152.9174600005811
 20
134.7602819894844
 30
0.0
  0
VERTEX
  5
E5
  8
LAYER_01
 10
155.8042113465292
 20
139.7602819894844
 30
0.0
  0
VERTEX
  5
E6
  8
LAYER_01
 10
142.0466972808915
 20
139.7602819894844
 30
0.0
  0
VERTEX
  5
E7
  8
LAYER_01
 10
135.1679402480727
 20
151.6746386632482
 30
0.0
  0
VERTEX
  5
E8
  8
LAYER_01
 10
132.2811889021246
 20
146.6746386632482
 30
0.0
  0
VERTEX
  5
E9
  8
LAYER_01
 10
139.1599459349434
 20
134.7602819894844
 30
0.0
  0
SEQEND
  5
EA
  8
LAYER_01
  0
POLYLINE
  5
EB
  8
LAYER_01
 66
     1
 10
0.0
 20
0.0
 30
0.0
 70
     1
  0
VERTEX
  5
EC
  8
LAYER_01
 10
114.2862704866295
 20
177.8427516369426
 30
0.0
  0
VERTEX
  5
ED
  8
LAYER_01
 10
123.6209348642802
 20
161.6746386632483
 30
0.0
  0
VERTEX
  5
EE
  8
LAYER_01
 10
126.5076862102283
 20
166.6746386632483
 30
0.0
  0
VERTEX
  5
EF
  8
LAYER_01
 10
105.5410062361862
 20
202.9899936443262
 30
0.0
  0
VERTEX
  5
F0
  8
LAYER_01
 10
99.76750354428991
 20
202.9899936443262
 30
0.0
  0
VERTEX
  5
F1
  8
LAYER_01
 10
111.7844160835936
 20
182.1760905761407
 30
0.0
  0
VERTEX
  5
F2
  8
LAYER_01
 10
86.0631654646022
 20
168.6183430475303
 30
0.0
  0
VERTEX
  5
F3
  8
LAYER_01
 10
86.06316546460219
 20
162.9662692282849
 30
0.0
  0
SEQEND
  5
F4
  8
LAYER_01
  0
POLYLINE
  5
F5
  8
LAYER_01
 66
     1
 10
0.0
 20
0.0
 30
0.0
 70
     1
  0
VERTEX
  5
F6
  8
LAYER_01
 10
123.6209348642802
 20
278.134061972932
 30
0.0
  0
VERTEX
  5
F7
  8
LAYER_01
 10
114.2862704866295
 20
261.9659489992376
 30
0.0
  0
VERTEX
  5
F8
  8
LAYER_01
 10
86.06316546460218
 20
276.8424314078954
 30
0.0
  0
VERTEX
  5
F9
  8
LAYER_01
 10
86.0631654646022
 20
271.1903575886499
 30
0.0
  0
VERTEX
  5
FA
  8
LAYER_01
 10
111.7844160835936
 20
257.6326100600396
 30
0.0
  0
VERTEX
  5
FB
  8
LAYER_01
 10
99.76750354428987
 20
236.8187069918541
 30
0.0
  0
VERTEX
  5
FC
  8
LAYER_01
 10
105.5410062361861
 20
236.8187069918541
 30
0.0
  0
VERTEX
  5
FD
  8
LAYER_01
 10
126.5076862102283
 20
273.1340619729319
 30
0.0
  0
SEQEND
  5
FE
  8
LAYER_01
  0
POLYLINE
  5
FF
  8
LAYER_01
 66
     1
 10
0.0
 20
0.0
 30
0.0
 70
     1
  0
VERTEX
  5
100
  8
LAYER_01
 10
108.4277575821342
 20
334.4494169540098
 30
0.0
  0
VERTEX
  5
101
  8
LAYER_01
 10
122.1852716477717
 20
334.4494169540098
 30
0.0
  0
VERTEX
  5
102
  8
LAYER_01
 10
129.0640286805906
 20
346.363773627774
 30
0.0
  0
VERTEX
  5
103
  8
LAYER_01
 10
122.1852716477719
 20
358.2781303015378
 30
0.0
  0
VERTEX
  5
104
  8
LAYER_01
 10
108.4277575821341
 20
358.2781303015378
 30
0.0
  0
VERTEX
  5
105
  8
LAYER_01
 10
101.5490005493153
 20
346.363773627774
 30
0.0
  0
SEQEND
  5
106
  8
LAYER_01
  0
POLYLINE
  5
107
  8
LAYER_01
 66
     1
 10
0.0
 20
0.0
 30
0.0
 70
     1
  0
VERTEX
  5
108
  8
LAYER_01
 10
129.3944375561764
 20
298.134061972932
 30
0.0
  0
VERTEX
  5
109
  8
LAYER_01
 10
136.2731945889953
 20
310.048418646696
 30
0.0
  0
VERTEX
  5
10A
  8
LAYER_01
 10
150.0307086546328
 20
310.0484186466959
 30
0.0
  0
VERTEX
  5
10B
  8
LAYER_01
 10
137.7242827184349
 20
331.363773627774
 30
0.0
  0
VERTEX
  5
10C
  8
LAYER_01
 10
130.8455256856161
 20
319.4494169540098
 30
0.0
  0
VERTEX
  5
10D
  8
LAYER_01
 10
117.0880116199787
 20
319.4494169540098
 30
0.0
  0
SEQEND
  5
10E
  8
LAYER_01
  0
POLYLINE
  5
10F
  8
LAYER_01
 66
     1
 10
0.0
 20
0.0
 30
0.0
 70
     1
  0
VERTEX
  5
110
  8
LAYER_01
 10
86.06316546460219
 20
150.3830080982119
 30
0.0
  0
VERTEX
  5
111
  8
LAYER_01
 10
86.0631654646022
 20
144.7309342789663
 30
0.0
  0
VERTEX
  5
112
  8
LAYER_01
 10
111.7844160835936
 20
131.1731867503559
 30
0.0
  0
VERTEX
  5
113
  8
LAYER_01
 10
99.76750354428991
 20
110.3592836821704
 30
0.0
  0
VERTEX
  5
114
  8
LAYER_01
 10
105.5410062361862
 20
110.3592836821704
 30
0.0
  0
VERTEX
  5
115
  8
LAYER_01
 10
126.5076862102283
 20
146.6746386632483
 30
0.0
  0
VERTEX
  5
116
  8
LAYER_01
 10
123.6209348642802
 20
151.6746386632483
 30
0.0
  0
VERTEX
  5
117
  8
LAYER_01
 10
114.2862704866295
 20
135.5065256895541
 30
0.0
  0
SEQEND
  5
118
  8
LAYER_01
  0
POLYLINE
  5
119
  8
LAYER_01
 66
     1
 10
0.0
 20
0.0
 30
0.0
 70
     1
  0
VERTEX
  5
11A
  8
LAYER_01
 10
86.06316546460219
 20
157.3141954090394
 30
0.0
  0
VERTEX
  5
11B
  8
LAYER_01
 10
112.3616887123511
 20
171.1762250533138
 30
0.0
  0
VERTEX
  5
11C
  8
LAYER_01
 10
120.7341835183321
 20
156.6746386632483
 30
0.0
  0
VERTEX
  5
11D
  8
LAYER_01
 10
112.3616887123511
 20
142.1730522731828
 30
0.0
  0
VERTEX
  5
11E
  8
LAYER_01
 10
86.06316546460218
 20
156.0350819174573
 30
0.0
  0
SEQEND
  5
11F
  8
LAYER_01
  0
POLYLINE
  5
120
  8
LAYER_01
 66
     1
 10
0.0
 20
0.0
 30
0.0
 70
     1
  0
VERTEX
  5
121
  8
LAYER_01
 10
86.06316546460219
 20
216.7266034824463
 30
0.0
  0
VERTEX
  5
122
  8
LAYER_01
 10
104.8561255032434
 20
184.1762418709082
 30
0.0
  0
VERTEX
  5
123
  8
LAYER_01
 10
86.06316546460219
 20
174.2704168667758
 30
0.0
  0
SEQEND
  5
124
  8
LAYER_01
  0
POLYLINE
  5
125
  8
LAYER_01
 66
     1
 10
0.0
 20
0.0
 30
0.0
 70
     1
  0
VERTEX
  5
126
  8
LAYER_01
 10
93.74232552783327
 20
76.9664847837927
 30
0.0
  0
VERTEX
  5
127
  8
LAYER_01
 10
86.06316546460218
 20
90.2671801727628
 30
0.0
  0
VERTEX
  5
128
  8
LAYER_01
 10
86.06316546460219
 20
76.96648478379271
 30
0.0
  0
SEQEND
  5
129
  8
LAYER_01
  0
POLYLINE
  5
12A
  8
LAYER_01
 66
     1
 10
0.0
 20
0.0
 30
0.0
 70
     1
  0
VERTEX
  5
12B
  8
LAYER_01
 10
174.1186038504087
 20
361.9639654481362
 30
0.0
  0
VERTEX
  5
12C
  8
LAYER_01
 10
186.9489216821027
 20
355.2010668453171
 30
0.0
  0
VERTEX
  5
12D
  8
LAYER_01
 10
186.9489216821027
 20
349.5489930260717
 30
0.0
  0
VERTEX
  5
12E
  8
LAYER_01
 10
163.3957011768587
 20
361.9639654481362
 30
0.0
  0
SEQEND
  5
12F
  8
LAYER_01
  0
POLYLINE
  5
130
  8
LAYER_01
 66
     1
 10
0.0
 20
0.0
 30
0.0
 70
     1
  0
VERTEX
  5
131
  8
LAYER_01
 10
137.7242827184349
 20
351.363773627774
 30
0.0
  0
VERTEX
  5
132
  8
LAYER_01
 10
134.8375313724868
 20
346.363773627774
 30
0.0
  0
VERTEX
  5
133
  8
LAYER_01
 10
137.724282718435
 20
341.363773627774
 30
0.0
  0
VERTEX
  5
134
  8
LAYER_01
 10
140.6110340643831
 20
346.363773627774
 30
0.0
  0
SEQEND
  5
135
  8
LAYER_01
  0
POLYLINE
  5
136
  8
LAYER_01
 66
     1
 10
0.0
 20
0.0
 30
0.0
 70
     1
  0
VERTEX
  5
137
  8
LAYER_01
 10
132.2811889021244
 20
273.1340619729321
 30
0.0
  0
VERTEX
  5
138
  8
LAYER_01
 10
139.1599459349433
 20
261.2197052991681
 30
0.0
  0
VERTEX
  5
139
  8
LAYER_01
 10
152.917460000581
 20
261.2197052991681
 30
0.0
  0
VERTEX
  5
13A
  8
LAYER_01
 10
155.8042113465291
 20
266.219705299168
 30
0.0
  0
VERTEX
  5
13B
  8
LAYER_01
 10
142.0466972808914
 20
266.219705299168
 30
0.0
  0
VERTEX
  5
13C
  8
LAYER_01
 10
135.1679402480726
 20
278.1340619729319
 30
0.0
  0
SEQEND
  5
13D
  8
LAYER_01
  0
POLYLINE
  5
13E
  8
LAYER_01
 66
     1
 10
0.0
 20
0.0
 30
0.0
 70
     1
  0
VERTEX
  5
13F
  8
LAYER_01
 10
164.4644653843735
 20
305.048418646696
 30
0.0
  0
VERTEX
  5
140
  8
LAYER_01
 10
158.6909626924772
 20
305.048418646696
 30
0.0
  0
VERTEX
  5
141
  8
LAYER_01
 10
171.3432224171923
 20
283.1340619729319
 30
0.0
  0
VERTEX
  5
142
  8
LAYER_01
 10
158.6909626924773
 20
261.2197052991681
 30
0.0
  0
VERTEX
  5
143
  8
LAYER_01
 10
164.4644653843736
 20
261.2197052991681
 30
0.0
  0
VERTEX
  5
144
  8
LAYER_01
 10
177.1167251090886
 20
283.1340619729319
 30
0.0
  0
SEQEND
  5
145
  8
LAYER_01
  0
POLYLINE
  5
146
  8
LAYER_01
 66
     1
 10
0.0
 20
0.0
 30
0.0
 70
     1
  0
VERTEX
  5
147
  8
LAYER_01
 10
86.06316546460219
 20
223.082097153734
 30
0.0
  0
VERTEX
  5
148
  8
LAYER_01
 10
104.8561255032433
 20
255.632458765272
 30
0.0
  0
VERTEX
  5
149
  8
LAYER_01
 10
86.0631654646022
 20
265.5382837694044
 30
0.0
  0
SEQEND
  5
14A
  8
LAYER_01
  0
POLYLINE
  5
14B
  8
LAYER_01
 66
     1
 10
0.0
 20
0.0
 30
0.0
 70
     1
  0
VERTEX
  5
14C
  8
LAYER_01
 10
96.8807521983417
 20
231.818706991854
 30
0.0
  0
VERTEX
  5
14D
  8
LAYER_01
 10
90.00199516552294
 20
219.9043503180902
 30
0.0
  0
VERTEX
  5
14E
  8
LAYER_01
 10
96.88075219834175
 20
207.9899936443262
 30
0.0
  0
VERTEX
  5
14F
  8
LAYER_01
 10
102.654254890238
 20
207.9899936443262
 30
0.0
  0
VERTEX
  5
150
  8
LAYER_01
 10
95.7754978574192
 20
219.9043503180902
 30
0.0
  0
VERTEX
  5
151
  8
LAYER_01
 10
102.654254890238
 20
231.818706991854
 30
0.0
  0
SEQEND
  5
152
  8
LAYER_01
  0
POLYLINE
  5
153
  8
LAYER_01
 66
     1
 10
0.0
 20
0.0
 30
0.0
 70
     1
  0
VERTEX
  5
154
  8
LAYER_01
 10
131.9507800265389
 20
224.9043503180902
 30
0.0
  0
VERTEX
  5
155
  8
LAYER_01
 10
134.837531372487
 20
229.9043503180903
 30
0.0
  0
VERTEX
  5
156
  8
LAYER_01
 10
127.9587743396683
 20
241.8187069918541
 30
0.0
  0
VERTEX
  5
157
  8
LAYER_01
 10
114.2012602740305
 20
241.8187069918541
 30
0.0
  0
VERTEX
  5
158
  8
LAYER_01
 10
111.3145089280823
 20
236.818706991854
 30
0.0
  0
VERTEX
  5
159
  8
LAYER_01
 10
125.0720229937201
 20
236.818706991854
 30
0.0
  0
SEQEND
  5
15A
  8
LAYER_01
  0
POLYLINE
  5
15B
  8
LAYER_01
 66
     1
 10
0.0
 20
0.0
 30
0.0
 70
     1
  0
VERTEX
  5
15C
  8
LAYER_01
 10
167.3512167303217
 20
256.219705299168
 30
0.0
  0
VERTEX
  5
15D
  8
LAYER_01
 10
186.9489216821029
 20
256.219705299168
 30
0.0
  0
VERTEX
  5
15E
  8
LAYER_01
 10
186.9489216821029
 20
234.393717354879
 30
0.0
  0
VERTEX
  5
15F
  8
LAYER_01
 10
162.2625947713683
 20
247.4059535257501
 30
0.0
  0
SEQEND
  5
160
  8
LAYER_01
  0
POLYLINE
  5
161
  8
LAYER_01
 66
     1
 10
0.0
 20
0.0
 30
0.0
 70
     1
  0
VERTEX
  5
162
  8
LAYER_01
 10
199.5756755442838
 20
178.5889953370124
 30
0.0
  0
VERTEX
  5
163
  8
LAYER_01
 10
199.5756755442838
 20
173.5889953370123
 30
0.0
  0
VERTEX
  5
164
  8
LAYER_01
 10
173.1247194222179
 20
173.5889953370123
 30
0.0
  0
VERTEX
  5
165
  8
LAYER_01
 10
170.2379680762698
 20
178.5889953370124
 30
0.0
  0
SEQEND
  5
166
  8
LAYER_01
  0
POLYLINE
  5
167
  8
LAYER_01
 66
     1
 10
0.0
 20
0.0
 30
0.0
 70
     1
  0
VERTEX
  5
168
  8
LAYER_01
 10
158.6909626924773
 20
178.5889953370122
 30
0.0
  0
VERTEX
  5
169
  8
LAYER_01
 10
171.3432224171924
 20
156.6746386632483
 30
0.0
  0
VERTEX
  5
16A
  8
LAYER_01
 10
158.6909626924773
 20
134.7602819894844
 30
0.0
  0
VERTEX
  5
16B
  8
LAYER_01
 10
164.4644653843737
 20
134.7602819894844
 30
0.0
  0
VERTEX
  5
16C
  8
LAYER_01
 10
177.1167251090886
 20
156.6746386632483
 30
0.0
  0
VERTEX
  5
16D
  8
LAYER_01
 10
164.4644653843735
 20
178.5889953370124
 30
0.0
  0
SEQEND
  5
16E
  8
LAYER_01
  0
POLYLINE
  5
16F
  8
LAYER_01
 66
     1
 10
0.0
 20
0.0
 30
0.0
 70
     1
  0
VERTEX
  5
170
  8
LAYER_01
 10
137.7242827184351
 20
108.4449270084067
 30
0.0
  0
VERTEX
  5
171
  8
LAYER_01
 10
130.8455256856165
 20
120.3592836821704
 30
0.0
  0
VERTEX
  5
172
  8
LAYER_01
 10
117.0880116199788
 20
120.3592836821704
 30
0.0
  0
VERTEX
  5
173
  8
LAYER_01
 10
129.3944375561765
 20
141.6746386632483
 30
0.0
  0
VERTEX
  5
174
  8
LAYER_01
 10
136.2731945889952
 20
129.7602819894844
 30
0.0
  0
VERTEX
  5
175
  8
LAYER_01
 10
150.0307086546329
 20
129.7602819894844
 30
0.0
  0
SEQEND
  5
176
  8
LAYER_01
  0
POLYLINE
  5
177
  8
LAYER_01
 66
     1
 10
0.0
 20
0.0
 30
0.0
 70
     1
  0
VERTEX
  5
178
  8
LAYER_01
 10
158.6909626924772
 20
168.5889953370123
 30
0.0
  0
VERTEX
  5
179
  8
LAYER_01
 10
144.9334486268398
 20
168.5889953370123
 30
0.0
  0
VERTEX
  5
17A
  8
LAYER_01
 10
138.0546915940209
 20
156.6746386632482
 30
0.0
  0
VERTEX
  5
17B
  8
LAYER_01
 10
144.9334486268396
 20
144.7602819894844
 30
0.0
  0
VERTEX
  5
17C
  8
LAYER_01
 10
158.6909626924774
 20
144.7602819894844
 30
0.0
  0
VERTEX
  5
17D
  8
LAYER_01
 10
165.5697197252961
 20
156.6746386632483
 30
0.0
  0
SEQEND
  5
17E
  8
LAYER_01
  0
POLYLINE
  5
17F
  8
LAYER_01
 66
     1
 10
0.0
 20
0.0
 30
0.0
 70
     1
  0
VERTEX
  5
180
  8
LAYER_01
 10
152.917460000581
 20
178.5889953370123
 30
0.0
  0
VERTEX
  5
181
  8
LAYER_01
 10
139.1599459349435
 20
178.5889953370124
 30
0.0
  0
VERTEX
  5
182
  8
LAYER_01
 10
132.2811889021246
 20
166.6746386632483
 30
0.0
  0
VERTEX
  5
183
  8
LAYER_01
 10
135.1679402480727
 20
161.6746386632482
 30
0.0
  0
VERTEX
  5
184
  8
LAYER_01
 10
142.0466972808916
 20
173.5889953370123
 30
0.0
  0
VERTEX
  5
185
  8
LAYER_01
 10
155.8042113465291
 20
173.5889953370123
 30
0.0
  0
SEQEND
  5
186
  8
LAYER_01
  0
POLYLINE
  5
187
  8
LAYER_01
 66
     1
 10
0.0
 20
0.0
 30
0.0
 70
     1
  0
VERTEX
  5
188
  8
LAYER_01
 10
140.6110340643833
 20
83.4449270084065
 30
0.0
  0
VERTEX
  5
189
  8
LAYER_01
 10
143.4977854103314
 20
88.4449270084065
 30
0.0
  0
VERTEX
  5
18A
  8
LAYER_01
 10
150.1248671185897
 20
76.96648478379271
 30
0.0
  0
VERTEX
  5
18B
  8
LAYER_01
 10
144.3513644266935
 20
76.96648478379271
 30
0.0
  0
SEQEND
  5
18C
  8
LAYER_01
  0
POLYLINE
  5
18D
  8
LAYER_01
 66
     1
 10
0.0
 20
0.0
 30
0.0
 70
     1
  0
VERTEX
  5
18E
  8
LAYER_01
 10
108.4277575821344
 20
81.53057033464245
 30
0.0
  0
VERTEX
  5
18F
  8
LAYER_01
 10
122.1852716477719
 20
81.53057033464245
 30
0.0
  0
VERTEX
  5
190
  8
LAYER_01
 10
129.0640286805908
 20
93.44492700840652
 30
0.0
  0
VERTEX
  5
191
  8
LAYER_01
 10
122.185271647772
 20
105.3592836821704
 30
0.0
  0
VERTEX
  5
192
  8
LAYER_01
 10
108.4277575821343
 20
105.3592836821704
 30
0.0
  0
VERTEX
  5
193
  8
LAYER_01
 10
101.5490005493156
 20
93.44492700840654
 30
0.0
  0
SEQEND
  5
194
  8
LAYER_01
  0
POLYLINE
  5
195
  8
LAYER_01
 66
     1
 10
0.0
 20
0.0
 30
0.0
 70
     1
  0
VERTEX
  5
196
  8
LAYER_01
 10
134.8375313724871
 20
219.9043503180901
 30
0.0
  0
VERTEX
  5
197
  8
LAYER_01
 10
137.7242827184351
 20
214.9043503180903
 30
0.0
  0
VERTEX
  5
198
  8
LAYER_01
 10
140.6110340643833
 20
219.9043503180902
 30
0.0
  0
VERTEX
  5
199
  8
LAYER_01
 10
137.7242827184351
 20
224.9043503180902
 30
0.0
  0
SEQEND
  5
19A
  8
LAYER_01
  0
POLYLINE
  5
19B
  8
LAYER_01
 66
     1
 10
0.0
 20
0.0
 30
0.0
 70
     1
  0
VERTEX
  5
19C
  8
LAYER_01
 10
140.6110340643833
 20
93.44492700840647
 30
0.0
  0
VERTEX
  5
19D
  8
LAYER_01
 10
137.7242827184352
 20
98.44492700840651
 30
0.0
  0
VERTEX
  5
19E
  8
LAYER_01
 10
134.8375313724871
 20
93.44492700840647
 30
0.0
  0
VERTEX
  5
19F
  8
LAYER_01
 10
137.7242827184352
 20
88.4449270084065
 30
0.0
  0
SEQEND
  5
1A0
  8
LAYER_01
  0
POLYLINE
  5
1A1
  8
LAYER_01
 66
     1
 10
0.0
 20
0.0
 30
0.0
 70
     1
  0
VERTEX
  5
1A2
  8
LAYER_01
 10
126.5076862102283
 20
156.6746386632483
 30
0.0
  0
VERTEX
  5
1A3
  8
LAYER_01
 10
129.3944375561764
 20
161.6746386632483
 30
0.0
  0
VERTEX
  5
1A4
  8
LAYER_01
 10
132.2811889021246
 20
156.6746386632483
 30
0.0
  0
VERTEX
  5
1A5
  8
LAYER_01
 10
129.3944375561765
 20
151.6746386632483
 30
0.0
  0
SEQEND
  5
1A6
  8
LAYER_01
  0
POLYLINE
  5
1A7
  8
LAYER_01
 66
     1
 10
0.0
 20
0.0
 30
0.0
 70
     1
  0
VERTEX
  5
1A8
  8
LAYER_01
 10
134.8375313724871
 20
103.4449270084065
 30
0.0
  0
VERTEX
  5
1A9
  8
LAYER_01
 10
127.9587743396683
 20
115.3592836821703
 30
0.0
  0
VERTEX
  5
1AA
  8
LAYER_01
 10
114.2012602740306
 20
115.3592836821703
 30
0.0
  0
VERTEX
  5
1AB
  8
LAYER_01
 10
111.3145089280825
 20
110.3592836821704
 30
0.0
  0
VERTEX
  5
1AC
  8
LAYER_01
 10
125.0720229937201
 20
110.3592836821704
 30
0.0
  0
VERTEX
  5
1AD
  8
LAYER_01
 10
131.9507800265389
 20
98.44492700840655
 30
0.0
  0
SEQEND
  5
1AE
  8
LAYER_01
  0
POLYLINE
  5
1AF
  8
LAYER_01
 66
     1
 10
0.0
 20
0.0
 30
0.0
 70
     1
  0
VERTEX
  5
1B0
  8
LAYER_01
 10
131.9507800265388
 20
351.363773627774
 30
0.0
  0
VERTEX
  5
1B1
  8
LAYER_01
 10
134.8375313724869
 20
356.3637736277739
 30
0.0
  0
VERTEX
  5
1B2
  8
LAYER_01
 10
131.6042591174872
 20
361.9639654481362
 30
0.0
  0
VERTEX
  5
1B3
  8
LAYER_01
 10
125.830756425591
 20
361.9639654481362
 30
0.0
  0
SEQEND
  5
1B4
  8
LAYER_01
  0
POLYLINE
  5
1B5
  8
LAYER_01
 66
     1
 10
0.0
 20
0.0
 30
0.0
 70
     1
  0
VERTEX
  5
1B6
  8
LAYER_01
 10
199.5756755442838
 20
271.219705299168
 30
0.0
  0
VERTEX
  5
1B7
  8
LAYER_01
 10
199.5756755442838
 20
295.0484186466961
 30
0.0
  0
VERTEX
  5
1B8
  8
LAYER_01
 10
176.011470768166
 20
295.0484186466959
 30
0.0
  0
VERTEX
  5
1B9
  8
LAYER_01
 10
182.8902278009849
 20
283.1340619729319
 30
0.0
  0
VERTEX
  5
1BA
  8
LAYER_01
 10
176.0114707681661
 20
271.219705299168
 30
0.0
  0
SEQEND
  5
1BB
  8
LAYER_01
  0
POLYLINE
  5
1BC
  8
LAYER_01
 66
     1
 10
0.0
 20
0.0
 30
0.0
 70
     1
  0
VERTEX
  5
1BD
  8
LAYER_01
 10
140.6110340643833
 20
229.9043503180902
 30
0.0
  0
VERTEX
  5
1BE
  8
LAYER_01
 10
155.8042113465291
 20
256.2197052991681
 30
0.0
  0
VERTEX
  5
1BF
  8
LAYER_01
 10
161.5777140384254
 20
256.219705299168
 30
0.0
  0
VERTEX
  5
1C0
  8
LAYER_01
 10
155.334304191018
 20
245.4058022309826
 30
0.0
  0
VERTEX
  5
1C1
  8
LAYER_01
 10
186.9489216821029
 20
228.7416435356336
 30
0.0
  0
VERTEX
  5
1C2
  8
LAYER_01
 10
186.9489216821029
 20
223.089569716388
 30
0.0
  0
VERTEX
  5
1C3
  8
LAYER_01
 10
152.8324497879821
 20
241.0724632917845
 30
0.0
  0
VERTEX
  5
1C4
  8
LAYER_01
 10
143.4977854103314
 20
224.9043503180903
 30
0.0
  0
SEQEND
  5
1C5
  8
LAYER_01
  0
POLYLINE
  5
1C6
  8
LAYER_01
 66
     1
 10
0.0
 20
0.0
 30
0.0
 70
     1
  0
VERTEX
  5
1C7
  8
LAYER_01
 10
199.5756755442838
 20
144.7602819894845
 30
0.0
  0
VERTEX
  5
1C8
  8
LAYER_01
 10
199.5756755442838
 20
168.5889953370123
 30
0.0
  0
VERTEX
  5
1C9
  8
LAYER_01
 10
176.0114707681661
 20
168.5889953370123
 30
0.0
  0
VERTEX
  5
1CA
  8
LAYER_01
 10
182.8902278009849
 20
156.6746386632483
 30
0.0
  0
VERTEX
  5
1CB
  8
LAYER_01
 10
176.0114707681661
 20
144.7602819894845
 30
0.0
  0
SEQEND
  5
1CC
  8
LAYER_01
  0
POLYLINE
  5
1CD
  8
LAYER_01
 66
     1
 10
0.0
 20
0.0
 30
0.0
 70
     1
  0
VERTEX
  5
1CE
  8
LAYER_01
 10
199.5756755442838
 20
310.0484186466961
 30
0.0
  0
VERTEX
  5
1CF
  8
LAYER_01
 10
199.5756755442838
 20
361.9639654481362
 30
0.0
  0
VERTEX
  5
1D0
  8
LAYER_01
 10
191.9489216821027
 20
361.9639654481362
 30
0.0
  0
VERTEX
  5
1D1
  8
LAYER_01
 10
191.9489216821027
 20
310.0484186466959
 30
0.0
  0
SEQEND
  5
1D2
  8
LAYER_01
  0
POLYLINE
  5
1D3
  8
LAYER_01
 66
     1
 10
0.0
 20
0.0
 30
0.0
 70
     1
  0
VERTEX
  5
1D4
  8
LAYER_01
 10
93.2352674205225
 20
361.9639654481362
 30
0.0
  0
VERTEX
  5
1D5
  8
LAYER_01
 10
86.06316546460219
 20
361.9639654481362
 30
0.0
  0
VERTEX
  5
1D6
  8
LAYER_01
 10
86.06316546460218
 20
349.541520463418
 30
0.0
  0
SEQEND
  5
1D7
  8
LAYER_01
  0
POLYLINE
  5
1D8
  8
LAYER_01
 66
     1
 10
0.0
 20
0.0
 30
0.0
 70
     1
  0
VERTEX
  5
1D9
  8
LAYER_01
 10
117.0880116199786
 20
246.8187069918541
 30
0.0
  0
VERTEX
  5
1DA
  8
LAYER_01
 10
130.8455256856164
 20
246.8187069918541
 30
0.0
  0
VERTEX
  5
1DB
  8
LAYER_01
 10
137.7242827184352
 20
234.9043503180903
 30
0.0
  0
VERTEX
  5
1DC
  8
LAYER_01
 10
150.0307086546328
 20
256.219705299168
 30
0.0
  0
VERTEX
  5
1DD
  8
LAYER_01
 10
136.2731945889952
 20
256.2197052991681
 30
0.0
  0
VERTEX
  5
1DE
  8
LAYER_01
 10
129.3944375561764
 20
268.134061972932
 30
0.0
  0
SEQEND
  5
1DF
  8
LAYER_01
  0
POLYLINE
  5
1E0
  8
LAYER_01
 66
     1
 10
0.0
 20
0.0
 30
0.0
 70
     1
  0
VERTEX
  5
1E1
  8
LAYER_01
 10
137.7242827184351
 20
204.9043503180903
 30
0.0
  0
VERTEX
  5
1E2
  8
LAYER_01
 10
150.0307086546328
 20
183.5889953370124
 30
0.0
  0
VERTEX
  5
1E3
  8
LAYER_01
 10
136.2731945889954
 20
183.5889953370124
 30
0.0
  0
VERTEX
  5
1E4
  8
LAYER_01
 10
129.3944375561765
 20
171.6746386632483
 30
0.0
  0
VERTEX
  5
1E5
  8
LAYER_01
 10
117.0880116199787
 20
192.9899936443262
 30
0.0
  0
VERTEX
  5
1E6
  8
LAYER_01
 10
130.8455256856163
 20
192.9899936443262
 30
0.0
  0
SEQEND
  5
1E7
  8
LAYER_01
  0
POLYLINE
  5
1E8
  8
LAYER_01
 66
     1
 10
0.0
 20
0.0
 30
0.0
 70
     1
  0
VERTEX
  5
1E9
  8
LAYER_01
 10
186.9489216821029
 20
211.0670571005469
 30
0.0
  0
VERTEX
  5
1EA
  8
LAYER_01
 10
155.334304191018
 20
194.4028984051978
 30
0.0
  0
VERTEX
  5
1EB
  8
LAYER_01
 10
161.5777140384254
 20
183.5889953370124
 30
0.0
  0
VERTEX
  5
1EC
  8
LAYER_01
 10
155.8042113465291
 20
183.5889953370124
 30
0.0
  0
VERTEX
  5
1ED
  8
LAYER_01
 10
140.6110340643833
 20
209.9043503180903
 30
0.0
  0
VERTEX
  5
1EE
  8
LAYER_01
 10
143.4977854103314
 20
214.9043503180903
 30
0.0
  0
VERTEX
  5
1EF
  8
LAYER_01
 10
152.8324497879821
 20
198.7362373443959
 30
0.0
  0
VERTEX
  5
1F0
  8
LAYER_01
 10
186.9489216821029
 20
216.7191309197924
 30
0.0
  0
SEQEND
  5
1F1
  8
LAYER_01
  0
POLYLINE
  5
1F2
  8
LAYER_01
 66
     1
 10
0.0
 20
0.0
 30
0.0
 70
     1
  0
VERTEX
  5
1F3
  8
LAYER_01
 10
186.9489216821029
 20
205.4149832813015
 30
0.0
  0
VERTEX
  5
1F4
  8
LAYER_01
 10
186.9489216821028
 20
183.5889953370124
 30
0.0
  0
VERTEX
  5
1F5
  8
LAYER_01
 10
167.3512167303217
 20
183.5889953370124
 30
0.0
  0
VERTEX
  5
1F6
  8
LAYER_01
 10
162.2625947713683
 20
192.4027471104303
 30
0.0
  0
SEQEND
  5
1F7
  8
LAYER_01
  0
POLYLINE
  5
1F8
  8
LAYER_01
 66
     1
 10
0.0
 20
0.0
 30
0.0
 70
     1
  0
VERTEX
  5
1F9
  8
LAYER_01
 10
199.5756755442838
 20
261.2197052991681
 30
0.0
  0
VERTEX
  5
1FA
  8
LAYER_01
 10
170.2379680762698
 20
261.219705299168
 30
0.0
  0
VERTEX
  5
1FB
  8
LAYER_01
 10
173.1247194222179
 20
266.219705299168
 30
0.0
  0
VERTEX
  5
1FC
  8
LAYER_01
 10
199.5756755442838
 20
266.219705299168
 30
0.0
  0
SEQEND
  5
1FD
  8
LAYER_01
  0
POLYLINE
  5
1FE
  8
LAYER_01
 66
     1
 10
0.0
 20
0.0
 30
0.0
 70
     1
  0
VERTEX
  5
1FF
  8
LAYER_01
 10
199.5756755442838
 20
256.219705299168
 30
0.0
  0
VERTEX
  5
200
  8
LAYER_01
 10
199.5756755442838
 20
183.5889953370124
 30
0.0
  0
VERTEX
  5
201
  8
LAYER_01
 10
191.9489216821028
 20
183.5889953370124
 30
0.0
  0
VERTEX
  5
202
  8
LAYER_01
 10
191.9489216821029
 20
256.219705299168
 30
0.0
  0
SEQEND
  5
203
  8
LAYER_01
  0
POLYLINE
  5
204
  8
LAYER_01
 66
     1
 10
0.0
 20
0.0
 30
0.0
 70
     1
  0
VERTEX
  5
205
  8
LAYER_01
 10
199.5756755442839
 20
129.7602819894844
 30
0.0
  0
VERTEX
  5
206
  8
LAYER_01
 10
191.948921682103
 20
129.7602819894844
 30
0.0
  0
VERTEX
  5
207
  8
LAYER_01
 10
191.9489216821029
 20
76.96648478379271
 30
0.0
  0
VERTEX
  5
208
  8
LAYER_01
 10
199.5756755442838
 20
76.96648478379271
 30
0.0
  0
SEQEND
  5
209
  8
LAYER_01
  0
POLYLINE
  5
20A
  8
LAYER_01
 66
     1
 10
0.0
 20
0.0
 30
0.0
 70
     1
  0
VERTEX
  5
20B
  8
LAYER_01
 10
199.5756755442838
 20
134.7602819894844
 30
0.0
  0
VERTEX
  5
20C
  8
LAYER_01
 10
199.5756755442838
 20
139.7602819894845
 30
0.0
  0
VERTEX
  5
20D
  8
LAYER_01
 10
173.124719422218
 20
139.7602819894844
 30
0.0
  0
VERTEX
  5
20E
  8
LAYER_01
 10
170.2379680762698
 20
134.7602819894844
 30
0.0
  0
SEQEND
  5
20F
  8
LAYER_01
  0
POLYLINE
  5
210
  8
LAYER_01
 66
     1
 10
0.0
 20
0.0
 30
0.0
 70
     1
  0
VERTEX
  5
211
  8
LAYER_01
 10
183.175322763986
 20
76.96648478379268
 30
0.0
  0
VERTEX
  5
212
  8
LAYER_01
 10
186.948921682103
 20
78.95555997161779
 30
0.0
  0
VERTEX
  5
213
  8
LAYER_01
 10
186.9489216821029
 20
76.96648478379271
 30
0.0
  0
SEQEND
  5
214
  8
LAYER_01
  0
POLYLINE
  5
215
  8
LAYER_01
 66
     1
 10
0.0
 20
0.0
 30
0.0
 70
     1
  0
VERTEX
  5
216
  8
LAYER_01
 10
172.4524200904361
 20
76.96648478379271
 30
0.0
  0
VERTEX
  5
217
  8
LAYER_01
 10
161.729517416886
 20
76.96648478379271
 30
0.0
  0
VERTEX
  5
218
  8
LAYER_01
 10
186.9489216821029
 20
90.2597076101087
 30
0.0
  0
VERTEX
  5
219
  8
LAYER_01
 10
186.9489216821029
 20
84.6076337908632
 30
0.0
  0
SEQEND
  5
21A
  8
LAYER_01
  0
POLYLINE
  5
21B
  8
LAYER_01
 66
     1
 10
0.0
 20
0.0
 30
0.0
 70
     1
  0
VERTEX
  5
21C
  8
LAYER_01
 10
134.837531372487
 20
209.9043503180903
 30
0.0
  0
VERTEX
  5
21D
  8
LAYER_01
 10
131.9507800265389
 20
214.9043503180902
 30
0.0
  0
VERTEX
  5
21E
  8
LAYER_01
 10
125.0720229937201
 20
202.9899936443262
 30
0.0
  0
VERTEX
  5
21F
  8
LAYER_01
 10
111.3145089280824
 20
202.9899936443262
 30
0.0
  0
VERTEX
  5
220
  8
LAYER_01
 10
114.2012602740305
 20
197.9899936443262
 30
0.0
  0
VERTEX
  5
221
  8
LAYER_01
 10
127.9587743396681
 20
197.9899936443262
 30
0.0
  0
SEQEND
  5
222
  8
LAYER_01
  0
POLYLINE
  5
223
  8
LAYER_01
 66
     1
 10
0.0
 20
0.0
 30
0.0
 70
     1
  0
VERTEX
  5
224
  8
LAYER_01
 10
129.0640286805908
 20
219.9043503180902
 30
0.0
  0
VERTEX
  5
225
  8
LAYER_01
 10
122.185271647772
 20
231.818706991854
 30
0.0
  0
VERTEX
  5
226
  8
LAYER_01
 10
108.4277575821342
 20
231.818706991854
 30
0.0
  0
VERTEX
  5
227
  8
LAYER_01
 10
101.5490005493154
 20
219.9043503180902
 30
0.0
  0
VERTEX
  5
228
  8
LAYER_01
 10
108.4277575821343
 20
207.9899936443262
 30
0.0
  0
VERTEX
  5
229
  8
LAYER_01
 10
122.1852716477719
 20
207.9899936443262
 30
0.0
  0
SEQEND
  5
22A
  8
LAYER_01
  0
POLYLINE
  5
22B
  8
LAYER_01
 66
     1
 10
0.0
 20
0.0
 30
0.0
 70
     1
  0
VERTEX
  5
22C
  8
LAYER_01
 10
125.3236983182806
 20
76.96648478379271
 30
0.0
  0
VERTEX
  5
22D
  8
LAYER_01
 10
131.0972010101769
 20
76.96648478379271
 30
0.0
  0
VERTEX
  5
22E
  8
LAYER_01
 10
134.8375313724871
 20
83.44492700840652
 30
0.0
  0
VERTEX
  5
22F
  8
LAYER_01
 10
131.9507800265389
 20
88.44492700840655
 30
0.0
  0
SEQEND
  5
230
  8
LAYER_01
  0
POLYLINE
  5
231
  8
LAYER_01
 66
     1
 10
0.0
 20
0.0
 30
0.0
 70
     1
  0
VERTEX
  5
232
  8
LAYER_01
 10
99.51582821972949
 20
76.96648478379272
 30
0.0
  0
VERTEX
  5
233
  8
LAYER_01
 10
90.001995165523
 20
93.44492700840657
 30
0.0
  0
VERTEX
  5
234
  8
LAYER_01
 10
96.88075219834178
 20
105.3592836821704
 30
0.0
  0
VERTEX
  5
235
  8
LAYER_01
 10
102.654254890238
 20
105.3592836821704
 30
0.0
  0
VERTEX
  5
236
  8
LAYER_01
 10
95.77549785741928
 20
93.44492700840655
 30
0.0
  0
VERTEX
  5
237
  8
LAYER_01
 10
105.2893309116258
 20
76.9664847837927
 30
0.0
  0
SEQEND
  5
238
  8
LAYER_01
  0
ENDSEC
  0
EOF
