  0
SECTION
  2
HEADER
  9
$ACADVER
  1
AC1009
  9
$EXTMIN
 10
0.00000000
 20
0.00000000
 30
0.0
  9
$EXTMAX
 10
83.66071831
 20
83.66071831
 30
0.0
  0
ENDSEC
  0
SECTION
  2
TABLES
  0
TABLE
  2
LAYER
 70
1
 0
LAYER
 2
Default_Layer
 70
0
 62
1
 6
CONTINUOUS
 0
ENDTAB
 0
ENDSEC
  0
SECTION
  2
ENTITIES
  0
POLYLINE
  8
Default_Layer
 66
   1
 39
0.000000
 70
    0
  0
VERTEX
  8
0
 10
81.66071831
 20
45.24668497
  0
VERTEX
  8
0
 10
80.66009965
 20
44.24606630
  0
VERTEX
  8
0
 10
79.24501116
 20
44.24606630
  0
VERTEX
  8
0
 10
79.24501116
 20
42.83097782
  0
VERTEX
  8
0
 10
78.24439250
 20
41.83035915
  0
VERTEX
  8
0
 10
79.24501116
 20
40.82974049
  0
VERTEX
  8
0
 10
79.24501116
 20
39.41465201
  0
VERTEX
  8
0
 10
80.66009965
 20
39.41465201
  0
VERTEX
  8
0
 10
81.66071831
 20
38.41403334
  0
SEQEND
  0
POLYLINE
  8
Default_Layer
 66
   1
 39
0.000000
 70
    0
  0
VERTEX
  8
0
 10
2.00000000
 20
45.24668497
  0
VERTEX
  8
0
 10
3.00061866
 20
44.24606630
  0
VERTEX
  8
0
 10
4.41570715
 20
44.24606630
  0
VERTEX
  8
0
 10
4.41570715
 20
42.83097782
  0
VERTEX
  8
0
 10
5.41632581
 20
41.83035915
  0
VERTEX
  8
0
 10
4.41570715
 20
40.82974049
  0
VERTEX
  8
0
 10
4.41570715
 20
39.41465201
  0
VERTEX
  8
0
 10
3.00061866
 20
39.41465201
  0
VERTEX
  8
0
 10
2.00000000
 20
38.41403334
  0
SEQEND
  0
POLYLINE
  8
Default_Layer
 66
   1
 39
0.000000
 70
    0
  0
VERTEX
  8
0
 10
38.41403334
 20
81.66071831
  0
VERTEX
  8
0
 10
39.41465201
 20
80.66009965
  0
VERTEX
  8
0
 10
39.41465201
 20
79.24501116
  0
VERTEX
  8
0
 10
40.82974049
 20
79.24501116
  0
VERTEX
  8
0
 10
41.83035915
 20
78.24439250
  0
VERTEX
  8
0
 10
42.83097782
 20
79.24501116
  0
VERTEX
  8
0
 10
44.24606630
 20
79.24501116
  0
VERTEX
  8
0
 10
44.24606630
 20
80.66009965
  0
VERTEX
  8
0
 10
45.24668497
 20
81.66071831
  0
SEQEND
  0
POLYLINE
  8
Default_Layer
 66
   1
 39
0.000000
 70
    0
  0
VERTEX
  8
0
 10
38.41403334
 20
2.00000000
  0
VERTEX
  8
0
 10
39.41465201
 20
3.00061866
  0
VERTEX
  8
0
 10
39.41465201
 20
4.41570715
  0
VERTEX
  8
0
 10
40.82974049
 20
4.41570715
  0
VERTEX
  8
0
 10
41.83035915
 20
5.41632581
  0
VERTEX
  8
0
 10
42.83097782
 20
4.41570715
  0
VERTEX
  8
0
 10
44.24606630
 20
4.41570715
  0
VERTEX
  8
0
 10
44.24606630
 20
3.00061866
  0
VERTEX
  8
0
 10
45.24668497
 20
2.00000000
  0
SEQEND
  0
POLYLINE
  8
Default_Layer
 66
   1
 39
0.000000
 70
    0
  0
VERTEX
  8
0
 10
81.66071831
 20
64.94096638
  0
VERTEX
  8
0
 10
79.52480989
 20
66.07266109
  0
VERTEX
  8
0
 10
79.24501116
 20
65.92441187
  0
VERTEX
  8
0
 10
79.24501116
 20
63.66102247
  0
VERTEX
  8
0
 10
75.62981544
 20
61.74553873
  0
VERTEX
  8
0
 10
79.24501116
 20
59.83005499
  0
VERTEX
  8
0
 10
79.24501116
 20
57.56666559
  0
VERTEX
  8
0
 10
79.52480989
 20
57.41841638
  0
VERTEX
  8
0
 10
81.66071831
 20
58.55011108
  0
SEQEND
  0
POLYLINE
  8
Default_Layer
 66
   1
 39
0.000000
 70
    0
  0
VERTEX
  8
0
 10
81.66071831
 20
48.07511209
  0
VERTEX
  8
0
 10
79.48976410
 20
50.24606630
  0
VERTEX
  8
0
 10
79.24501116
 20
50.24606630
  0
VERTEX
  8
0
 10
79.24501116
 20
55.00677776
  0
VERTEX
  8
0
 10
81.66071831
 20
56.28672167
  0
SEQEND
  0
POLYLINE
  8
Default_Layer
 66
   1
 39
0.000000
 70
    0
  0
VERTEX
  8
0
 10
59.74553873
 20
81.66071831
  0
VERTEX
  8
0
 10
59.74553873
 20
79.24501116
  0
VERTEX
  8
0
 10
57.27357751
 20
79.24501116
  0
VERTEX
  8
0
 10
58.54795843
 20
81.66071831
  0
SEQEND
  0
POLYLINE
  8
Default_Layer
 66
   1
 39
0.000000
 70
    0
  0
VERTEX
  8
0
 10
56.28672167
 20
81.66071831
  0
VERTEX
  8
0
 10
55.01234076
 20
79.24501116
  0
VERTEX
  8
0
 10
50.24606630
 20
79.24501116
  0
VERTEX
  8
0
 10
50.24606630
 20
79.48976410
  0
VERTEX
  8
0
 10
48.07511209
 20
81.66071831
  0
SEQEND
  0
POLYLINE
  8
Default_Layer
 66
   1
 39
0.000000
 70
    0
  0
VERTEX
  8
0
 10
63.74553873
 20
81.66071831
  0
VERTEX
  8
0
 10
63.74553873
 20
79.24501116
  0
VERTEX
  8
0
 10
66.21749995
 20
79.24501116
  0
VERTEX
  8
0
 10
64.94311903
 20
81.66071831
  0
SEQEND
  0
POLYLINE
  8
Default_Layer
 66
   1
 39
0.000000
 70
    0
  0
VERTEX
  8
0
 10
81.66071831
 20
75.41596537
  0
VERTEX
  8
0
 10
79.48976410
 20
73.24501116
  0
VERTEX
  8
0
 10
79.24501116
 20
73.24501116
  0
VERTEX
  8
0
 10
79.24501116
 20
68.48429970
  0
VERTEX
  8
0
 10
81.66071831
 20
67.20435579
  0
SEQEND
  0
POLYLINE
  8
Default_Layer
 66
   1
 39
0.000000
 70
    0
  0
VERTEX
  8
0
 10
67.20435579
 20
81.66071831
  0
VERTEX
  8
0
 10
68.47873671
 20
79.24501116
  0
VERTEX
  8
0
 10
73.24501116
 20
79.24501116
  0
VERTEX
  8
0
 10
73.24501116
 20
79.48976410
  0
VERTEX
  8
0
 10
75.41596537
 20
81.66071831
  0
SEQEND
  0
POLYLINE
  8
Default_Layer
 66
   1
 39
0.000000
 70
    0
  0
VERTEX
  8
0
 10
81.66071831
 20
78.24439250
  0
VERTEX
  8
0
 10
80.66009965
 20
79.24501116
  0
VERTEX
  8
0
 10
79.24501116
 20
79.24501116
  0
VERTEX
  8
0
 10
79.24501116
 20
80.66009965
  0
VERTEX
  8
0
 10
78.24439250
 20
81.66071831
  0
SEQEND
  0
POLYLINE
  8
Default_Layer
 66
   1
 39
0.000000
 70
    0
  0
VERTEX
  8
0
 10
2.00000000
 20
64.94096638
  0
VERTEX
  8
0
 10
4.13590842
 20
66.07266109
  0
VERTEX
  8
0
 10
4.41570715
 20
65.92441187
  0
VERTEX
  8
0
 10
4.41570715
 20
63.66102247
  0
VERTEX
  8
0
 10
8.03090287
 20
61.74553873
  0
VERTEX
  8
0
 10
4.41570715
 20
59.83005499
  0
VERTEX
  8
0
 10
4.41570715
 20
57.56666559
  0
VERTEX
  8
0
 10
4.13590842
 20
57.41841638
  0
VERTEX
  8
0
 10
2.00000000
 20
58.55011108
  0
SEQEND
  0
POLYLINE
  8
Default_Layer
 66
   1
 39
0.000000
 70
    0
  0
VERTEX
  8
0
 10
2.00000000
 20
48.07511209
  0
VERTEX
  8
0
 10
4.17095421
 20
50.24606630
  0
VERTEX
  8
0
 10
4.41570715
 20
50.24606630
  0
VERTEX
  8
0
 10
4.41570715
 20
55.00677776
  0
VERTEX
  8
0
 10
2.00000000
 20
56.28672167
  0
SEQEND
  0
POLYLINE
  8
Default_Layer
 66
   1
 39
0.000000
 70
    0
  0
VERTEX
  8
0
 10
19.91517958
 20
81.66071831
  0
VERTEX
  8
0
 10
19.91517958
 20
79.24501116
  0
VERTEX
  8
0
 10
17.44321836
 20
79.24501116
  0
VERTEX
  8
0
 10
18.71759927
 20
81.66071831
  0
SEQEND
  0
POLYLINE
  8
Default_Layer
 66
   1
 39
0.000000
 70
    0
  0
VERTEX
  8
0
 10
2.00000000
 20
75.41596537
  0
VERTEX
  8
0
 10
4.17095421
 20
73.24501116
  0
VERTEX
  8
0
 10
4.41570715
 20
73.24501116
  0
VERTEX
  8
0
 10
4.41570715
 20
68.48429970
  0
VERTEX
  8
0
 10
2.00000000
 20
67.20435579
  0
SEQEND
  0
POLYLINE
  8
Default_Layer
 66
   1
 39
0.000000
 70
    0
  0
VERTEX
  8
0
 10
16.45636252
 20
81.66071831
  0
VERTEX
  8
0
 10
15.18198160
 20
79.24501116
  0
VERTEX
  8
0
 10
10.41570715
 20
79.24501116
  0
VERTEX
  8
0
 10
10.41570715
 20
79.48976410
  0
VERTEX
  8
0
 10
8.24475294
 20
81.66071831
  0
SEQEND
  0
POLYLINE
  8
Default_Layer
 66
   1
 39
0.000000
 70
    0
  0
VERTEX
  8
0
 10
2.00000000
 20
78.24439250
  0
VERTEX
  8
0
 10
3.00061866
 20
79.24501116
  0
VERTEX
  8
0
 10
4.41570715
 20
79.24501116
  0
VERTEX
  8
0
 10
4.41570715
 20
80.66009965
  0
VERTEX
  8
0
 10
5.41632581
 20
81.66071831
  0
SEQEND
  0
POLYLINE
  8
Default_Layer
 66
   1
 39
0.000000
 70
    0
  0
VERTEX
  8
0
 10
23.91517958
 20
81.66071831
  0
VERTEX
  8
0
 10
23.91517958
 20
79.24501116
  0
VERTEX
  8
0
 10
26.38714080
 20
79.24501116
  0
VERTEX
  8
0
 10
25.11275988
 20
81.66071831
  0
SEQEND
  0
POLYLINE
  8
Default_Layer
 66
   1
 39
0.000000
 70
    0
  0
VERTEX
  8
0
 10
27.37399663
 20
81.66071831
  0
VERTEX
  8
0
 10
28.64837755
 20
79.24501116
  0
VERTEX
  8
0
 10
33.41465201
 20
79.24501116
  0
VERTEX
  8
0
 10
33.41465201
 20
79.48976410
  0
VERTEX
  8
0
 10
35.58560622
 20
81.66071831
  0
SEQEND
  0
POLYLINE
  8
Default_Layer
 66
   1
 39
0.000000
 70
    0
  0
VERTEX
  8
0
 10
81.66071831
 20
25.11060723
  0
VERTEX
  8
0
 10
79.52480989
 20
26.24230193
  0
VERTEX
  8
0
 10
79.24501116
 20
26.09405272
  0
VERTEX
  8
0
 10
79.24501116
 20
23.83066332
  0
VERTEX
  8
0
 10
75.62981544
 20
21.91517958
  0
VERTEX
  8
0
 10
79.24501116
 20
19.99969584
  0
VERTEX
  8
0
 10
79.24501116
 20
17.73630643
  0
VERTEX
  8
0
 10
79.52480989
 20
17.58805722
  0
VERTEX
  8
0
 10
81.66071831
 20
18.71975192
  0
SEQEND
  0
POLYLINE
  8
Default_Layer
 66
   1
 39
0.000000
 70
    0
  0
VERTEX
  8
0
 10
59.74553873
 20
2.00000000
  0
VERTEX
  8
0
 10
59.74553873
 20
4.41570715
  0
VERTEX
  8
0
 10
57.27357751
 20
4.41570715
  0
VERTEX
  8
0
 10
58.54795843
 20
2.00000000
  0
SEQEND
  0
POLYLINE
  8
Default_Layer
 66
   1
 39
0.000000
 70
    0
  0
VERTEX
  8
0
 10
56.28672167
 20
2.00000000
  0
VERTEX
  8
0
 10
55.01234076
 20
4.41570715
  0
VERTEX
  8
0
 10
50.24606630
 20
4.41570715
  0
VERTEX
  8
0
 10
50.24606630
 20
4.17095421
  0
VERTEX
  8
0
 10
48.07511209
 20
2.00000000
  0
SEQEND
  0
POLYLINE
  8
Default_Layer
 66
   1
 39
0.000000
 70
    0
  0
VERTEX
  8
0
 10
63.74553873
 20
2.00000000
  0
VERTEX
  8
0
 10
63.74553873
 20
4.41570715
  0
VERTEX
  8
0
 10
66.21749995
 20
4.41570715
  0
VERTEX
  8
0
 10
64.94311903
 20
2.00000000
  0
SEQEND
  0
POLYLINE
  8
Default_Layer
 66
   1
 39
0.000000
 70
    0
  0
VERTEX
  8
0
 10
81.66071831
 20
8.24475294
  0
VERTEX
  8
0
 10
79.48976410
 20
10.41570715
  0
VERTEX
  8
0
 10
79.24501116
 20
10.41570715
  0
VERTEX
  8
0
 10
79.24501116
 20
15.17641861
  0
VERTEX
  8
0
 10
81.66071831
 20
16.45636252
  0
SEQEND
  0
POLYLINE
  8
Default_Layer
 66
   1
 39
0.000000
 70
    0
  0
VERTEX
  8
0
 10
67.20435579
 20
2.00000000
  0
VERTEX
  8
0
 10
68.47873671
 20
4.41570715
  0
VERTEX
  8
0
 10
73.24501116
 20
4.41570715
  0
VERTEX
  8
0
 10
73.24501116
 20
4.17095421
  0
VERTEX
  8
0
 10
75.41596537
 20
2.00000000
  0
SEQEND
  0
POLYLINE
  8
Default_Layer
 66
   1
 39
0.000000
 70
    0
  0
VERTEX
  8
0
 10
81.66071831
 20
5.41632581
  0
VERTEX
  8
0
 10
80.66009965
 20
4.41570715
  0
VERTEX
  8
0
 10
79.24501116
 20
4.41570715
  0
VERTEX
  8
0
 10
79.24501116
 20
3.00061866
  0
VERTEX
  8
0
 10
78.24439250
 20
2.00000000
  0
SEQEND
  0
POLYLINE
  8
Default_Layer
 66
   1
 39
0.000000
 70
    0
  0
VERTEX
  8
0
 10
81.66071831
 20
35.58560622
  0
VERTEX
  8
0
 10
79.48976410
 20
33.41465201
  0
VERTEX
  8
0
 10
79.24501116
 20
33.41465201
  0
VERTEX
  8
0
 10
79.24501116
 20
28.65394055
  0
VERTEX
  8
0
 10
81.66071831
 20
27.37399663
  0
SEQEND
  0
POLYLINE
  8
Default_Layer
 66
   1
 39
0.000000
 70
    0
  0
VERTEX
  8
0
 10
2.00000000
 20
25.11060723
  0
VERTEX
  8
0
 10
4.13590842
 20
26.24230193
  0
VERTEX
  8
0
 10
4.41570715
 20
26.09405272
  0
VERTEX
  8
0
 10
4.41570715
 20
23.83066332
  0
VERTEX
  8
0
 10
8.03090287
 20
21.91517958
  0
VERTEX
  8
0
 10
4.41570715
 20
19.99969584
  0
VERTEX
  8
0
 10
4.41570715
 20
17.73630643
  0
VERTEX
  8
0
 10
4.13590842
 20
17.58805722
  0
VERTEX
  8
0
 10
2.00000000
 20
18.71975192
  0
SEQEND
  0
POLYLINE
  8
Default_Layer
 66
   1
 39
0.000000
 70
    0
  0
VERTEX
  8
0
 10
19.91517958
 20
2.00000000
  0
VERTEX
  8
0
 10
19.91517958
 20
4.41570715
  0
VERTEX
  8
0
 10
17.44321836
 20
4.41570715
  0
VERTEX
  8
0
 10
18.71759927
 20
2.00000000
  0
SEQEND
  0
POLYLINE
  8
Default_Layer
 66
   1
 39
0.000000
 70
    0
  0
VERTEX
  8
0
 10
2.00000000
 20
8.24475294
  0
VERTEX
  8
0
 10
4.17095421
 20
10.41570715
  0
VERTEX
  8
0
 10
4.41570715
 20
10.41570715
  0
VERTEX
  8
0
 10
4.41570715
 20
15.17641861
  0
VERTEX
  8
0
 10
2.00000000
 20
16.45636252
  0
SEQEND
  0
POLYLINE
  8
Default_Layer
 66
   1
 39
0.000000
 70
    0
  0
VERTEX
  8
0
 10
16.45636252
 20
2.00000000
  0
VERTEX
  8
0
 10
15.18198160
 20
4.41570715
  0
VERTEX
  8
0
 10
10.41570715
 20
4.41570715
  0
VERTEX
  8
0
 10
10.41570715
 20
4.17095421
  0
VERTEX
  8
0
 10
8.24475294
 20
2.00000000
  0
SEQEND
  0
POLYLINE
  8
Default_Layer
 66
   1
 39
0.000000
 70
    0
  0
VERTEX
  8
0
 10
2.00000000
 20
5.41632581
  0
VERTEX
  8
0
 10
3.00061866
 20
4.41570715
  0
VERTEX
  8
0
 10
4.41570715
 20
4.41570715
  0
VERTEX
  8
0
 10
4.41570715
 20
3.00061866
  0
VERTEX
  8
0
 10
5.41632581
 20
2.00000000
  0
SEQEND
  0
POLYLINE
  8
Default_Layer
 66
   1
 39
0.000000
 70
    0
  0
VERTEX
  8
0
 10
23.91517958
 20
2.00000000
  0
VERTEX
  8
0
 10
23.91517958
 20
4.41570715
  0
VERTEX
  8
0
 10
26.38714080
 20
4.41570715
  0
VERTEX
  8
0
 10
25.11275988
 20
2.00000000
  0
SEQEND
  0
POLYLINE
  8
Default_Layer
 66
   1
 39
0.000000
 70
    0
  0
VERTEX
  8
0
 10
27.37399663
 20
2.00000000
  0
VERTEX
  8
0
 10
28.64837755
 20
4.41570715
  0
VERTEX
  8
0
 10
33.41465201
 20
4.41570715
  0
VERTEX
  8
0
 10
33.41465201
 20
4.17095421
  0
VERTEX
  8
0
 10
35.58560622
 20
2.00000000
  0
SEQEND
  0
POLYLINE
  8
Default_Layer
 66
   1
 39
0.000000
 70
    0
  0
VERTEX
  8
0
 10
2.00000000
 20
35.58560622
  0
VERTEX
  8
0
 10
4.17095421
 20
33.41465201
  0
VERTEX
  8
0
 10
4.41570715
 20
33.41465201
  0
VERTEX
  8
0
 10
4.41570715
 20
28.65394055
  0
VERTEX
  8
0
 10
2.00000000
 20
27.37399663
  0
SEQEND
  0
POLYLINE
  8
Default_Layer
 66
   1
 39
0.000000
 70
    1
  0
VERTEX
  8
0
 10
0.00000000
 20
0.00000000
  0
VERTEX
  8
0
 10
0.00000000
 20
83.66071831
  0
VERTEX
  8
0
 10
83.66071831
 20
83.66071831
  0
VERTEX
  8
0
 10
83.66071831
 20
0.00000000
  0
VERTEX
  8
0
 10
0.00000000
 20
0.00000000
  0
SEQEND
  0
POLYLINE
  8
Default_Layer
 66
   1
 39
0.000000
 70
    1
  0
VERTEX
  8
0
 10
2.00000000
 20
2.00000000
  0
VERTEX
  8
0
 10
2.00000000
 20
81.66071831
  0
VERTEX
  8
0
 10
81.66071831
 20
81.66071831
  0
VERTEX
  8
0
 10
81.66071831
 20
2.00000000
  0
VERTEX
  8
0
 10
2.00000000
 20
2.00000000
  0
SEQEND
  0
POLYLINE
  8
Default_Layer
 66
   1
 39
0.000000
 70
    1
  0
VERTEX
  8
0
 10
56.28672167
 20
41.83035915
  0
VERTEX
  8
0
 10
55.01234076
 20
44.24606630
  0
VERTEX
  8
0
 10
50.24606630
 20
44.24606630
  0
VERTEX
  8
0
 10
50.24606630
 20
44.00131337
  0
VERTEX
  8
0
 10
48.07511209
 20
41.83035915
  0
VERTEX
  8
0
 10
50.24606630
 20
39.65940494
  0
VERTEX
  8
0
 10
50.24606630
 20
39.41465201
  0
VERTEX
  8
0
 10
55.01234076
 20
39.41465201
  0
VERTEX
  8
0
 10
56.28672167
 20
41.83035915
  0
SEQEND
  0
POLYLINE
  8
Default_Layer
 66
   1
 39
0.000000
 70
    1
  0
VERTEX
  8
0
 10
67.20435579
 20
41.83035915
  0
VERTEX
  8
0
 10
68.47873671
 20
44.24606630
  0
VERTEX
  8
0
 10
73.24501116
 20
44.24606630
  0
VERTEX
  8
0
 10
73.24501116
 20
44.00131337
  0
VERTEX
  8
0
 10
75.41596537
 20
41.83035915
  0
VERTEX
  8
0
 10
73.24501116
 20
39.65940494
  0
VERTEX
  8
0
 10
73.24501116
 20
39.41465201
  0
VERTEX
  8
0
 10
68.47873671
 20
39.41465201
  0
VERTEX
  8
0
 10
67.20435579
 20
41.83035915
  0
SEQEND
  0
POLYLINE
  8
Default_Layer
 66
   1
 39
0.000000
 70
    1
  0
VERTEX
  8
0
 10
16.45636252
 20
41.83035915
  0
VERTEX
  8
0
 10
15.18198160
 20
44.24606630
  0
VERTEX
  8
0
 10
10.41570715
 20
44.24606630
  0
VERTEX
  8
0
 10
10.41570715
 20
44.00131337
  0
VERTEX
  8
0
 10
8.24475294
 20
41.83035915
  0
VERTEX
  8
0
 10
10.41570715
 20
39.65940494
  0
VERTEX
  8
0
 10
10.41570715
 20
39.41465201
  0
VERTEX
  8
0
 10
15.18198160
 20
39.41465201
  0
VERTEX
  8
0
 10
16.45636252
 20
41.83035915
  0
SEQEND
  0
POLYLINE
  8
Default_Layer
 66
   1
 39
0.000000
 70
    1
  0
VERTEX
  8
0
 10
35.58560622
 20
41.83035915
  0
VERTEX
  8
0
 10
33.41465201
 20
39.65940494
  0
VERTEX
  8
0
 10
33.41465201
 20
39.41465201
  0
VERTEX
  8
0
 10
28.64837755
 20
39.41465201
  0
VERTEX
  8
0
 10
27.37399663
 20
41.83035915
  0
VERTEX
  8
0
 10
28.64837755
 20
44.24606630
  0
VERTEX
  8
0
 10
33.41465201
 20
44.24606630
  0
VERTEX
  8
0
 10
33.41465201
 20
44.00131337
  0
VERTEX
  8
0
 10
35.58560622
 20
41.83035915
  0
SEQEND
  0
POLYLINE
  8
Default_Layer
 66
   1
 39
0.000000
 70
    1
  0
VERTEX
  8
0
 10
41.83035915
 20
64.94096638
  0
VERTEX
  8
0
 10
43.96626757
 20
66.07266109
  0
VERTEX
  8
0
 10
44.24606630
 20
65.92441187
  0
VERTEX
  8
0
 10
44.24606630
 20
63.66102247
  0
VERTEX
  8
0
 10
47.86126202
 20
61.74553873
  0
VERTEX
  8
0
 10
44.24606630
 20
59.83005499
  0
VERTEX
  8
0
 10
44.24606630
 20
57.56666559
  0
VERTEX
  8
0
 10
43.96626757
 20
57.41841638
  0
VERTEX
  8
0
 10
41.83035915
 20
58.55011108
  0
VERTEX
  8
0
 10
39.69445074
 20
57.41841638
  0
VERTEX
  8
0
 10
39.41465201
 20
57.56666559
  0
VERTEX
  8
0
 10
39.41465201
 20
59.83005499
  0
VERTEX
  8
0
 10
35.79945629
 20
61.74553873
  0
VERTEX
  8
0
 10
39.41465201
 20
63.66102247
  0
VERTEX
  8
0
 10
39.41465201
 20
65.92441187
  0
VERTEX
  8
0
 10
39.69445074
 20
66.07266109
  0
VERTEX
  8
0
 10
41.83035915
 20
64.94096638
  0
SEQEND
  0
POLYLINE
  8
Default_Layer
 66
   1
 39
0.000000
 70
    1
  0
VERTEX
  8
0
 10
41.83035915
 20
56.28672167
  0
VERTEX
  8
0
 10
39.41465201
 20
55.00677776
  0
VERTEX
  8
0
 10
39.41465201
 20
50.24606630
  0
VERTEX
  8
0
 10
39.65940494
 20
50.24606630
  0
VERTEX
  8
0
 10
41.83035915
 20
48.07511209
  0
VERTEX
  8
0
 10
44.00131337
 20
50.24606630
  0
VERTEX
  8
0
 10
44.24606630
 20
50.24606630
  0
VERTEX
  8
0
 10
44.24606630
 20
55.00677776
  0
VERTEX
  8
0
 10
41.83035915
 20
56.28672167
  0
SEQEND
  0
POLYLINE
  8
Default_Layer
 66
   1
 39
0.000000
 70
    1
  0
VERTEX
  8
0
 10
45.24668497
 20
41.83035915
  0
VERTEX
  8
0
 10
44.24606630
 20
40.82974049
  0
VERTEX
  8
0
 10
44.24606630
 20
39.41465201
  0
VERTEX
  8
0
 10
42.83097782
 20
39.41465201
  0
VERTEX
  8
0
 10
41.83035915
 20
38.41403334
  0
VERTEX
  8
0
 10
40.82974049
 20
39.41465201
  0
VERTEX
  8
0
 10
39.41465201
 20
39.41465201
  0
VERTEX
  8
0
 10
39.41465201
 20
40.82974049
  0
VERTEX
  8
0
 10
38.41403334
 20
41.83035915
  0
VERTEX
  8
0
 10
39.41465201
 20
42.83097782
  0
VERTEX
  8
0
 10
39.41465201
 20
44.24606630
  0
VERTEX
  8
0
 10
40.82974049
 20
44.24606630
  0
VERTEX
  8
0
 10
41.83035915
 20
45.24668497
  0
VERTEX
  8
0
 10
42.83097782
 20
44.24606630
  0
VERTEX
  8
0
 10
44.24606630
 20
44.24606630
  0
VERTEX
  8
0
 10
44.24606630
 20
42.83097782
  0
VERTEX
  8
0
 10
45.24668497
 20
41.83035915
  0
SEQEND
  0
POLYLINE
  8
Default_Layer
 66
   1
 39
0.000000
 70
    1
  0
VERTEX
  8
0
 10
41.83035915
 20
67.20435579
  0
VERTEX
  8
0
 10
39.41465201
 20
68.48429970
  0
VERTEX
  8
0
 10
39.41465201
 20
73.24501116
  0
VERTEX
  8
0
 10
39.65940494
 20
73.24501116
  0
VERTEX
  8
0
 10
41.83035915
 20
75.41596537
  0
VERTEX
  8
0
 10
44.00131337
 20
73.24501116
  0
VERTEX
  8
0
 10
44.24606630
 20
73.24501116
  0
VERTEX
  8
0
 10
44.24606630
 20
68.48429970
  0
VERTEX
  8
0
 10
41.83035915
 20
67.20435579
  0
SEQEND
  0
POLYLINE
  8
Default_Layer
 66
   1
 39
0.000000
 70
    1
  0
VERTEX
  8
0
 10
41.83035915
 20
25.11060723
  0
VERTEX
  8
0
 10
43.96626757
 20
26.24230193
  0
VERTEX
  8
0
 10
44.24606630
 20
26.09405272
  0
VERTEX
  8
0
 10
44.24606630
 20
23.83066332
  0
VERTEX
  8
0
 10
47.86126202
 20
21.91517958
  0
VERTEX
  8
0
 10
44.24606630
 20
19.99969584
  0
VERTEX
  8
0
 10
44.24606630
 20
17.73630643
  0
VERTEX
  8
0
 10
43.96626757
 20
17.58805722
  0
VERTEX
  8
0
 10
41.83035915
 20
18.71975192
  0
VERTEX
  8
0
 10
39.69445074
 20
17.58805722
  0
VERTEX
  8
0
 10
39.41465201
 20
17.73630643
  0
VERTEX
  8
0
 10
39.41465201
 20
19.99969584
  0
VERTEX
  8
0
 10
35.79945629
 20
21.91517958
  0
VERTEX
  8
0
 10
39.41465201
 20
23.83066332
  0
VERTEX
  8
0
 10
39.41465201
 20
26.09405272
  0
VERTEX
  8
0
 10
39.69445074
 20
26.24230193
  0
VERTEX
  8
0
 10
41.83035915
 20
25.11060723
  0
SEQEND
  0
POLYLINE
  8
Default_Layer
 66
   1
 39
0.000000
 70
    1
  0
VERTEX
  8
0
 10
41.83035915
 20
8.24475294
  0
VERTEX
  8
0
 10
44.00131337
 20
10.41570715
  0
VERTEX
  8
0
 10
44.24606630
 20
10.41570715
  0
VERTEX
  8
0
 10
44.24606630
 20
15.17641861
  0
VERTEX
  8
0
 10
41.83035915
 20
16.45636252
  0
VERTEX
  8
0
 10
39.41465201
 20
15.17641861
  0
VERTEX
  8
0
 10
39.41465201
 20
10.41570715
  0
VERTEX
  8
0
 10
39.65940494
 20
10.41570715
  0
VERTEX
  8
0
 10
41.83035915
 20
8.24475294
  0
SEQEND
  0
POLYLINE
  8
Default_Layer
 66
   1
 39
0.000000
 70
    1
  0
VERTEX
  8
0
 10
41.83035915
 20
35.58560622
  0
VERTEX
  8
0
 10
44.00131337
 20
33.41465201
  0
VERTEX
  8
0
 10
44.24606630
 20
33.41465201
  0
VERTEX
  8
0
 10
44.24606630
 20
28.65394055
  0
VERTEX
  8
0
 10
41.83035915
 20
27.37399663
  0
VERTEX
  8
0
 10
39.41465201
 20
28.65394055
  0
VERTEX
  8
0
 10
39.41465201
 20
33.41465201
  0
VERTEX
  8
0
 10
39.65940494
 20
33.41465201
  0
VERTEX
  8
0
 10
41.83035915
 20
35.58560622
  0
SEQEND
  0
POLYLINE
  8
Default_Layer
 66
   1
 39
0.000000
 70
    1
  0
VERTEX
  8
0
 10
58.54795843
 20
41.83035915
  0
VERTEX
  8
0
 10
57.27357751
 20
39.41465201
  0
VERTEX
  8
0
 10
59.74553873
 20
39.41465201
  0
VERTEX
  8
0
 10
59.74553873
 20
44.24606630
  0
VERTEX
  8
0
 10
57.27357751
 20
44.24606630
  0
VERTEX
  8
0
 10
58.54795843
 20
41.83035915
  0
SEQEND
  0
POLYLINE
  8
Default_Layer
 66
   1
 39
0.000000
 70
    1
  0
VERTEX
  8
0
 10
64.94311903
 20
41.83035915
  0
VERTEX
  8
0
 10
66.21749995
 20
39.41465201
  0
VERTEX
  8
0
 10
63.74553873
 20
39.41465201
  0
VERTEX
  8
0
 10
63.74553873
 20
44.24606630
  0
VERTEX
  8
0
 10
66.21749995
 20
44.24606630
  0
VERTEX
  8
0
 10
64.94311903
 20
41.83035915
  0
SEQEND
  0
POLYLINE
  8
Default_Layer
 66
   1
 39
0.000000
 70
    1
  0
VERTEX
  8
0
 10
18.71759927
 20
41.83035915
  0
VERTEX
  8
0
 10
17.44321836
 20
39.41465201
  0
VERTEX
  8
0
 10
19.91517958
 20
39.41465201
  0
VERTEX
  8
0
 10
19.91517958
 20
44.24606630
  0
VERTEX
  8
0
 10
17.44321836
 20
44.24606630
  0
VERTEX
  8
0
 10
18.71759927
 20
41.83035915
  0
SEQEND
  0
POLYLINE
  8
Default_Layer
 66
   1
 39
0.000000
 70
    1
  0
VERTEX
  8
0
 10
25.11275988
 20
41.83035915
  0
VERTEX
  8
0
 10
26.38714080
 20
39.41465201
  0
VERTEX
  8
0
 10
23.91517958
 20
39.41465201
  0
VERTEX
  8
0
 10
23.91517958
 20
44.24606630
  0
VERTEX
  8
0
 10
26.38714080
 20
44.24606630
  0
VERTEX
  8
0
 10
25.11275988
 20
41.83035915
  0
SEQEND
  0
POLYLINE
  8
Default_Layer
 66
   1
 39
0.000000
 70
    1
  0
VERTEX
  8
0
 10
52.13307886
 20
61.74553873
  0
VERTEX
  8
0
 10
56.00837942
 20
59.69224044
  0
VERTEX
  8
0
 10
54.92649337
 20
61.74553873
  0
VERTEX
  8
0
 10
56.00837942
 20
63.79883703
  0
VERTEX
  8
0
 10
52.13307886
 20
61.74553873
  0
SEQEND
  0
POLYLINE
  8
Default_Layer
 66
   1
 39
0.000000
 70
    1
  0
VERTEX
  8
0
 10
71.35799860
 20
61.74553873
  0
VERTEX
  8
0
 10
67.48269804
 20
59.69224044
  0
VERTEX
  8
0
 10
68.56458410
 20
61.74553873
  0
VERTEX
  8
0
 10
67.48269804
 20
63.79883703
  0
VERTEX
  8
0
 10
71.35799860
 20
61.74553873
  0
SEQEND
  0
POLYLINE
  8
Default_Layer
 66
   1
 39
0.000000
 70
    1
  0
VERTEX
  8
0
 10
57.18713508
 20
61.74553873
  0
VERTEX
  8
0
 10
59.74553873
 20
56.88997578
  0
VERTEX
  8
0
 10
59.74553873
 20
66.60110169
  0
VERTEX
  8
0
 10
57.18713508
 20
61.74553873
  0
SEQEND
  0
POLYLINE
  8
Default_Layer
 66
   1
 39
0.000000
 70
    1
  0
VERTEX
  8
0
 10
66.30394238
 20
61.74553873
  0
VERTEX
  8
0
 10
63.74553873
 20
56.88997578
  0
VERTEX
  8
0
 10
63.74553873
 20
66.60110169
  0
VERTEX
  8
0
 10
66.30394238
 20
61.74553873
  0
SEQEND
  0
POLYLINE
  8
Default_Layer
 66
   1
 39
0.000000
 70
    1
  0
VERTEX
  8
0
 10
50.24606630
 20
48.76693719
  0
VERTEX
  8
0
 10
50.24606630
 20
46.24606630
  0
VERTEX
  8
0
 10
53.95726177
 20
46.24606630
  0
VERTEX
  8
0
 10
51.31013891
 20
51.26393304
  0
VERTEX
  8
0
 10
46.24606630
 20
53.94709309
  0
VERTEX
  8
0
 10
46.24606630
 20
50.24606630
  0
VERTEX
  8
0
 10
48.76693719
 20
50.24606630
  0
VERTEX
  8
0
 10
50.24606630
 20
48.76693719
  0
SEQEND
  0
POLYLINE
  8
Default_Layer
 66
   1
 39
0.000000
 70
    1
  0
VERTEX
  8
0
 10
46.24606630
 20
58.62635026
  0
VERTEX
  8
0
 10
46.24606630
 20
56.21048250
  0
VERTEX
  8
0
 10
52.79137188
 20
52.74250251
  0
VERTEX
  8
0
 10
56.21849853
 20
46.24606630
  0
VERTEX
  8
0
 10
59.74553873
 20
46.24606630
  0
VERTEX
  8
0
 10
59.74553873
 20
52.59953154
  0
VERTEX
  8
0
 10
57.66284891
 20
56.55224306
  0
VERTEX
  8
0
 10
49.99717044
 20
60.61384403
  0
VERTEX
  8
0
 10
46.24606630
 20
58.62635026
  0
SEQEND
  0
POLYLINE
  8
Default_Layer
 66
   1
 39
0.000000
 70
    1
  0
VERTEX
  8
0
 10
48.24606630
 20
44.82974049
  0
VERTEX
  8
0
 10
48.24606630
 20
48.24606630
  0
VERTEX
  8
0
 10
44.82974049
 20
48.24606630
  0
VERTEX
  8
0
 10
43.24457272
 20
46.66089853
  0
VERTEX
  8
0
 10
43.65940494
 20
46.24606630
  0
VERTEX
  8
0
 10
46.24606630
 20
46.24606630
  0
VERTEX
  8
0
 10
46.24606630
 20
43.65940494
  0
VERTEX
  8
0
 10
46.66089853
 20
43.24457272
  0
VERTEX
  8
0
 10
48.24606630
 20
44.82974049
  0
SEQEND
  0
POLYLINE
  8
Default_Layer
 66
   1
 39
0.000000
 70
    1
  0
VERTEX
  8
0
 10
73.24501116
 20
48.76693719
  0
VERTEX
  8
0
 10
73.24501116
 20
46.24606630
  0
VERTEX
  8
0
 10
69.53381569
 20
46.24606630
  0
VERTEX
  8
0
 10
72.18093855
 20
51.26393304
  0
VERTEX
  8
0
 10
77.24501116
 20
53.94709309
  0
VERTEX
  8
0
 10
77.24501116
 20
50.24606630
  0
VERTEX
  8
0
 10
74.72414027
 20
50.24606630
  0
VERTEX
  8
0
 10
73.24501116
 20
48.76693719
  0
SEQEND
  0
POLYLINE
  8
Default_Layer
 66
   1
 39
0.000000
 70
    1
  0
VERTEX
  8
0
 10
77.24501116
 20
58.62635026
  0
VERTEX
  8
0
 10
77.24501116
 20
56.21048250
  0
VERTEX
  8
0
 10
70.69970559
 20
52.74250251
  0
VERTEX
  8
0
 10
67.27257894
 20
46.24606630
  0
VERTEX
  8
0
 10
63.74553873
 20
46.24606630
  0
VERTEX
  8
0
 10
63.74553873
 20
52.59953154
  0
VERTEX
  8
0
 10
65.82822856
 20
56.55224306
  0
VERTEX
  8
0
 10
73.49390702
 20
60.61384403
  0
VERTEX
  8
0
 10
77.24501116
 20
58.62635026
  0
SEQEND
  0
POLYLINE
  8
Default_Layer
 66
   1
 39
0.000000
 70
    1
  0
VERTEX
  8
0
 10
75.24501116
 20
44.82974049
  0
VERTEX
  8
0
 10
75.24501116
 20
48.24606630
  0
VERTEX
  8
0
 10
78.66133697
 20
48.24606630
  0
VERTEX
  8
0
 10
80.24650475
 20
46.66089853
  0
VERTEX
  8
0
 10
79.83167252
 20
46.24606630
  0
VERTEX
  8
0
 10
77.24501116
 20
46.24606630
  0
VERTEX
  8
0
 10
77.24501116
 20
43.65940494
  0
VERTEX
  8
0
 10
76.83017894
 20
43.24457272
  0
VERTEX
  8
0
 10
75.24501116
 20
44.82974049
  0
SEQEND
  0
POLYLINE
  8
Default_Layer
 66
   1
 39
0.000000
 70
    1
  0
VERTEX
  8
0
 10
50.24606630
 20
74.72414027
  0
VERTEX
  8
0
 10
50.24606630
 20
77.24501116
  0
VERTEX
  8
0
 10
53.95726177
 20
77.24501116
  0
VERTEX
  8
0
 10
51.31013891
 20
72.22714442
  0
VERTEX
  8
0
 10
46.24606630
 20
69.54398437
  0
VERTEX
  8
0
 10
46.24606630
 20
73.24501116
  0
VERTEX
  8
0
 10
48.76693719
 20
73.24501116
  0
VERTEX
  8
0
 10
50.24606630
 20
74.72414027
  0
SEQEND
  0
POLYLINE
  8
Default_Layer
 66
   1
 39
0.000000
 70
    1
  0
VERTEX
  8
0
 10
46.24606630
 20
64.86472721
  0
VERTEX
  8
0
 10
46.24606630
 20
67.28059497
  0
VERTEX
  8
0
 10
52.79137188
 20
70.74857495
  0
VERTEX
  8
0
 10
56.21849853
 20
77.24501116
  0
VERTEX
  8
0
 10
59.74553873
 20
77.24501116
  0
VERTEX
  8
0
 10
59.74553873
 20
70.89154592
  0
VERTEX
  8
0
 10
57.66284891
 20
66.93883441
  0
VERTEX
  8
0
 10
49.99717044
 20
62.87723343
  0
VERTEX
  8
0
 10
46.24606630
 20
64.86472721
  0
SEQEND
  0
POLYLINE
  8
Default_Layer
 66
   1
 39
0.000000
 70
    1
  0
VERTEX
  8
0
 10
48.24606630
 20
78.66133697
  0
VERTEX
  8
0
 10
48.24606630
 20
75.24501116
  0
VERTEX
  8
0
 10
44.82974049
 20
75.24501116
  0
VERTEX
  8
0
 10
43.24457272
 20
76.83017894
  0
VERTEX
  8
0
 10
43.65940494
 20
77.24501116
  0
VERTEX
  8
0
 10
46.24606630
 20
77.24501116
  0
VERTEX
  8
0
 10
46.24606630
 20
79.83167252
  0
VERTEX
  8
0
 10
46.66089853
 20
80.24650475
  0
VERTEX
  8
0
 10
48.24606630
 20
78.66133697
  0
SEQEND
  0
POLYLINE
  8
Default_Layer
 66
   1
 39
0.000000
 70
    1
  0
VERTEX
  8
0
 10
73.24501116
 20
74.72414027
  0
VERTEX
  8
0
 10
73.24501116
 20
77.24501116
  0
VERTEX
  8
0
 10
69.53381569
 20
77.24501116
  0
VERTEX
  8
0
 10
72.18093855
 20
72.22714442
  0
VERTEX
  8
0
 10
77.24501116
 20
69.54398437
  0
VERTEX
  8
0
 10
77.24501116
 20
73.24501116
  0
VERTEX
  8
0
 10
74.72414027
 20
73.24501116
  0
VERTEX
  8
0
 10
73.24501116
 20
74.72414027
  0
SEQEND
  0
POLYLINE
  8
Default_Layer
 66
   1
 39
0.000000
 70
    1
  0
VERTEX
  8
0
 10
77.24501116
 20
64.86472721
  0
VERTEX
  8
0
 10
77.24501116
 20
67.28059497
  0
VERTEX
  8
0
 10
70.69970559
 20
70.74857495
  0
VERTEX
  8
0
 10
67.27257894
 20
77.24501116
  0
VERTEX
  8
0
 10
63.74553873
 20
77.24501116
  0
VERTEX
  8
0
 10
63.74553873
 20
70.89154592
  0
VERTEX
  8
0
 10
65.82822856
 20
66.93883441
  0
VERTEX
  8
0
 10
73.49390702
 20
62.87723343
  0
VERTEX
  8
0
 10
77.24501116
 20
64.86472721
  0
SEQEND
  0
POLYLINE
  8
Default_Layer
 66
   1
 39
0.000000
 70
    1
  0
VERTEX
  8
0
 10
75.24501116
 20
78.66133697
  0
VERTEX
  8
0
 10
75.24501116
 20
75.24501116
  0
VERTEX
  8
0
 10
78.66133697
 20
75.24501116
  0
VERTEX
  8
0
 10
80.24650475
 20
76.83017894
  0
VERTEX
  8
0
 10
79.83167252
 20
77.24501116
  0
VERTEX
  8
0
 10
77.24501116
 20
77.24501116
  0
VERTEX
  8
0
 10
77.24501116
 20
79.83167252
  0
VERTEX
  8
0
 10
76.83017894
 20
80.24650475
  0
VERTEX
  8
0
 10
75.24501116
 20
78.66133697
  0
SEQEND
  0
POLYLINE
  8
Default_Layer
 66
   1
 39
0.000000
 70
    1
  0
VERTEX
  8
0
 10
12.30271970
 20
61.74553873
  0
VERTEX
  8
0
 10
16.17802027
 20
59.69224044
  0
VERTEX
  8
0
 10
15.09613421
 20
61.74553873
  0
VERTEX
  8
0
 10
16.17802027
 20
63.79883703
  0
VERTEX
  8
0
 10
12.30271970
 20
61.74553873
  0
SEQEND
  0
POLYLINE
  8
Default_Layer
 66
   1
 39
0.000000
 70
    1
  0
VERTEX
  8
0
 10
31.52763945
 20
61.74553873
  0
VERTEX
  8
0
 10
27.65233889
 20
59.69224044
  0
VERTEX
  8
0
 10
28.73422494
 20
61.74553873
  0
VERTEX
  8
0
 10
27.65233889
 20
63.79883703
  0
VERTEX
  8
0
 10
31.52763945
 20
61.74553873
  0
SEQEND
  0
POLYLINE
  8
Default_Layer
 66
   1
 39
0.000000
 70
    1
  0
VERTEX
  8
0
 10
17.35677593
 20
61.74553873
  0
VERTEX
  8
0
 10
19.91517958
 20
56.88997578
  0
VERTEX
  8
0
 10
19.91517958
 20
66.60110169
  0
VERTEX
  8
0
 10
17.35677593
 20
61.74553873
  0
SEQEND
  0
POLYLINE
  8
Default_Layer
 66
   1
 39
0.000000
 70
    1
  0
VERTEX
  8
0
 10
26.47358322
 20
61.74553873
  0
VERTEX
  8
0
 10
23.91517958
 20
56.88997578
  0
VERTEX
  8
0
 10
23.91517958
 20
66.60110169
  0
VERTEX
  8
0
 10
26.47358322
 20
61.74553873
  0
SEQEND
  0
POLYLINE
  8
Default_Layer
 66
   1
 39
0.000000
 70
    1
  0
VERTEX
  8
0
 10
10.41570715
 20
48.76693719
  0
VERTEX
  8
0
 10
10.41570715
 20
46.24606630
  0
VERTEX
  8
0
 10
14.12690262
 20
46.24606630
  0
VERTEX
  8
0
 10
11.47977976
 20
51.26393304
  0
VERTEX
  8
0
 10
6.41570715
 20
53.94709309
  0
VERTEX
  8
0
 10
6.41570715
 20
50.24606630
  0
VERTEX
  8
0
 10
8.93657804
 20
50.24606630
  0
VERTEX
  8
0
 10
10.41570715
 20
48.76693719
  0
SEQEND
  0
POLYLINE
  8
Default_Layer
 66
   1
 39
0.000000
 70
    1
  0
VERTEX
  8
0
 10
6.41570715
 20
58.62635026
  0
VERTEX
  8
0
 10
6.41570715
 20
56.21048250
  0
VERTEX
  8
0
 10
12.96101272
 20
52.74250251
  0
VERTEX
  8
0
 10
16.38813937
 20
46.24606630
  0
VERTEX
  8
0
 10
19.91517958
 20
46.24606630
  0
VERTEX
  8
0
 10
19.91517958
 20
52.59953154
  0
VERTEX
  8
0
 10
17.83248975
 20
56.55224306
  0
VERTEX
  8
0
 10
10.16681129
 20
60.61384403
  0
VERTEX
  8
0
 10
6.41570715
 20
58.62635026
  0
SEQEND
  0
POLYLINE
  8
Default_Layer
 66
   1
 39
0.000000
 70
    1
  0
VERTEX
  8
0
 10
8.41570715
 20
44.82974049
  0
VERTEX
  8
0
 10
8.41570715
 20
48.24606630
  0
VERTEX
  8
0
 10
4.99938134
 20
48.24606630
  0
VERTEX
  8
0
 10
3.41421356
 20
46.66089853
  0
VERTEX
  8
0
 10
3.82904579
 20
46.24606630
  0
VERTEX
  8
0
 10
6.41570715
 20
46.24606630
  0
VERTEX
  8
0
 10
6.41570715
 20
43.65940494
  0
VERTEX
  8
0
 10
6.83053937
 20
43.24457272
  0
VERTEX
  8
0
 10
8.41570715
 20
44.82974049
  0
SEQEND
  0
POLYLINE
  8
Default_Layer
 66
   1
 39
0.000000
 70
    1
  0
VERTEX
  8
0
 10
33.41465201
 20
48.76693719
  0
VERTEX
  8
0
 10
33.41465201
 20
46.24606630
  0
VERTEX
  8
0
 10
29.70345653
 20
46.24606630
  0
VERTEX
  8
0
 10
32.35057940
 20
51.26393304
  0
VERTEX
  8
0
 10
37.41465201
 20
53.94709309
  0
VERTEX
  8
0
 10
37.41465201
 20
50.24606630
  0
VERTEX
  8
0
 10
34.89378111
 20
50.24606630
  0
VERTEX
  8
0
 10
33.41465201
 20
48.76693719
  0
SEQEND
  0
POLYLINE
  8
Default_Layer
 66
   1
 39
0.000000
 70
    1
  0
VERTEX
  8
0
 10
37.41465201
 20
58.62635026
  0
VERTEX
  8
0
 10
37.41465201
 20
56.21048250
  0
VERTEX
  8
0
 10
30.86934643
 20
52.74250251
  0
VERTEX
  8
0
 10
27.44221978
 20
46.24606630
  0
VERTEX
  8
0
 10
23.91517958
 20
46.24606630
  0
VERTEX
  8
0
 10
23.91517958
 20
52.59953154
  0
VERTEX
  8
0
 10
25.99786940
 20
56.55224306
  0
VERTEX
  8
0
 10
33.66354787
 20
60.61384403
  0
VERTEX
  8
0
 10
37.41465201
 20
58.62635026
  0
SEQEND
  0
POLYLINE
  8
Default_Layer
 66
   1
 39
0.000000
 70
    1
  0
VERTEX
  8
0
 10
35.41465201
 20
44.82974049
  0
VERTEX
  8
0
 10
35.41465201
 20
48.24606630
  0
VERTEX
  8
0
 10
38.83097782
 20
48.24606630
  0
VERTEX
  8
0
 10
40.41614559
 20
46.66089853
  0
VERTEX
  8
0
 10
40.00131337
 20
46.24606630
  0
VERTEX
  8
0
 10
37.41465201
 20
46.24606630
  0
VERTEX
  8
0
 10
37.41465201
 20
43.65940494
  0
VERTEX
  8
0
 10
36.99981978
 20
43.24457272
  0
VERTEX
  8
0
 10
35.41465201
 20
44.82974049
  0
SEQEND
  0
POLYLINE
  8
Default_Layer
 66
   1
 39
0.000000
 70
    1
  0
VERTEX
  8
0
 10
10.41570715
 20
74.72414027
  0
VERTEX
  8
0
 10
10.41570715
 20
77.24501116
  0
VERTEX
  8
0
 10
14.12690262
 20
77.24501116
  0
VERTEX
  8
0
 10
11.47977976
 20
72.22714442
  0
VERTEX
  8
0
 10
6.41570715
 20
69.54398437
  0
VERTEX
  8
0
 10
6.41570715
 20
73.24501116
  0
VERTEX
  8
0
 10
8.93657804
 20
73.24501116
  0
VERTEX
  8
0
 10
10.41570715
 20
74.72414027
  0
SEQEND
  0
POLYLINE
  8
Default_Layer
 66
   1
 39
0.000000
 70
    1
  0
VERTEX
  8
0
 10
6.41570715
 20
64.86472721
  0
VERTEX
  8
0
 10
6.41570715
 20
67.28059497
  0
VERTEX
  8
0
 10
12.96101272
 20
70.74857495
  0
VERTEX
  8
0
 10
16.38813937
 20
77.24501116
  0
VERTEX
  8
0
 10
19.91517958
 20
77.24501116
  0
VERTEX
  8
0
 10
19.91517958
 20
70.89154592
  0
VERTEX
  8
0
 10
17.83248975
 20
66.93883441
  0
VERTEX
  8
0
 10
10.16681129
 20
62.87723343
  0
VERTEX
  8
0
 10
6.41570715
 20
64.86472721
  0
SEQEND
  0
POLYLINE
  8
Default_Layer
 66
   1
 39
0.000000
 70
    1
  0
VERTEX
  8
0
 10
8.41570715
 20
78.66133697
  0
VERTEX
  8
0
 10
8.41570715
 20
75.24501116
  0
VERTEX
  8
0
 10
4.99938134
 20
75.24501116
  0
VERTEX
  8
0
 10
3.41421356
 20
76.83017894
  0
VERTEX
  8
0
 10
3.82904579
 20
77.24501116
  0
VERTEX
  8
0
 10
6.41570715
 20
77.24501116
  0
VERTEX
  8
0
 10
6.41570715
 20
79.83167252
  0
VERTEX
  8
0
 10
6.83053937
 20
80.24650475
  0
VERTEX
  8
0
 10
8.41570715
 20
78.66133697
  0
SEQEND
  0
POLYLINE
  8
Default_Layer
 66
   1
 39
0.000000
 70
    1
  0
VERTEX
  8
0
 10
33.41465201
 20
74.72414027
  0
VERTEX
  8
0
 10
33.41465201
 20
77.24501116
  0
VERTEX
  8
0
 10
29.70345653
 20
77.24501116
  0
VERTEX
  8
0
 10
32.35057940
 20
72.22714442
  0
VERTEX
  8
0
 10
37.41465201
 20
69.54398437
  0
VERTEX
  8
0
 10
37.41465201
 20
73.24501116
  0
VERTEX
  8
0
 10
34.89378111
 20
73.24501116
  0
VERTEX
  8
0
 10
33.41465201
 20
74.72414027
  0
SEQEND
  0
POLYLINE
  8
Default_Layer
 66
   1
 39
0.000000
 70
    1
  0
VERTEX
  8
0
 10
37.41465201
 20
64.86472721
  0
VERTEX
  8
0
 10
37.41465201
 20
67.28059497
  0
VERTEX
  8
0
 10
30.86934643
 20
70.74857495
  0
VERTEX
  8
0
 10
27.44221978
 20
77.24501116
  0
VERTEX
  8
0
 10
23.91517958
 20
77.24501116
  0
VERTEX
  8
0
 10
23.91517958
 20
70.89154592
  0
VERTEX
  8
0
 10
25.99786940
 20
66.93883441
  0
VERTEX
  8
0
 10
33.66354787
 20
62.87723343
  0
VERTEX
  8
0
 10
37.41465201
 20
64.86472721
  0
SEQEND
  0
POLYLINE
  8
Default_Layer
 66
   1
 39
0.000000
 70
    1
  0
VERTEX
  8
0
 10
35.41465201
 20
78.66133697
  0
VERTEX
  8
0
 10
35.41465201
 20
75.24501116
  0
VERTEX
  8
0
 10
38.83097782
 20
75.24501116
  0
VERTEX
  8
0
 10
40.41614559
 20
76.83017894
  0
VERTEX
  8
0
 10
40.00131337
 20
77.24501116
  0
VERTEX
  8
0
 10
37.41465201
 20
77.24501116
  0
VERTEX
  8
0
 10
37.41465201
 20
79.83167252
  0
VERTEX
  8
0
 10
36.99981978
 20
80.24650475
  0
VERTEX
  8
0
 10
35.41465201
 20
78.66133697
  0
SEQEND
  0
POLYLINE
  8
Default_Layer
 66
   1
 39
0.000000
 70
    1
  0
VERTEX
  8
0
 10
52.13307886
 20
21.91517958
  0
VERTEX
  8
0
 10
56.00837942
 20
19.86188128
  0
VERTEX
  8
0
 10
54.92649337
 20
21.91517958
  0
VERTEX
  8
0
 10
56.00837942
 20
23.96847787
  0
VERTEX
  8
0
 10
52.13307886
 20
21.91517958
  0
SEQEND
  0
POLYLINE
  8
Default_Layer
 66
   1
 39
0.000000
 70
    1
  0
VERTEX
  8
0
 10
71.35799860
 20
21.91517958
  0
VERTEX
  8
0
 10
67.48269804
 20
19.86188128
  0
VERTEX
  8
0
 10
68.56458410
 20
21.91517958
  0
VERTEX
  8
0
 10
67.48269804
 20
23.96847787
  0
VERTEX
  8
0
 10
71.35799860
 20
21.91517958
  0
SEQEND
  0
POLYLINE
  8
Default_Layer
 66
   1
 39
0.000000
 70
    1
  0
VERTEX
  8
0
 10
57.18713508
 20
21.91517958
  0
VERTEX
  8
0
 10
59.74553873
 20
17.05961662
  0
VERTEX
  8
0
 10
59.74553873
 20
26.77074253
  0
VERTEX
  8
0
 10
57.18713508
 20
21.91517958
  0
SEQEND
  0
POLYLINE
  8
Default_Layer
 66
   1
 39
0.000000
 70
    1
  0
VERTEX
  8
0
 10
66.30394238
 20
21.91517958
  0
VERTEX
  8
0
 10
63.74553873
 20
17.05961662
  0
VERTEX
  8
0
 10
63.74553873
 20
26.77074253
  0
VERTEX
  8
0
 10
66.30394238
 20
21.91517958
  0
SEQEND
  0
POLYLINE
  8
Default_Layer
 66
   1
 39
0.000000
 70
    1
  0
VERTEX
  8
0
 10
50.24606630
 20
8.93657804
  0
VERTEX
  8
0
 10
50.24606630
 20
6.41570715
  0
VERTEX
  8
0
 10
53.95726177
 20
6.41570715
  0
VERTEX
  8
0
 10
51.31013891
 20
11.43357389
  0
VERTEX
  8
0
 10
46.24606630
 20
14.11673394
  0
VERTEX
  8
0
 10
46.24606630
 20
10.41570715
  0
VERTEX
  8
0
 10
48.76693719
 20
10.41570715
  0
VERTEX
  8
0
 10
50.24606630
 20
8.93657804
  0
SEQEND
  0
POLYLINE
  8
Default_Layer
 66
   1
 39
0.000000
 70
    1
  0
VERTEX
  8
0
 10
46.24606630
 20
18.79599110
  0
VERTEX
  8
0
 10
46.24606630
 20
16.38012334
  0
VERTEX
  8
0
 10
52.79137188
 20
12.91214336
  0
VERTEX
  8
0
 10
56.21849853
 20
6.41570715
  0
VERTEX
  8
0
 10
59.74553873
 20
6.41570715
  0
VERTEX
  8
0
 10
59.74553873
 20
12.76917239
  0
VERTEX
  8
0
 10
57.66284891
 20
16.72188390
  0
VERTEX
  8
0
 10
49.99717044
 20
20.78348487
  0
VERTEX
  8
0
 10
46.24606630
 20
18.79599110
  0
SEQEND
  0
POLYLINE
  8
Default_Layer
 66
   1
 39
0.000000
 70
    1
  0
VERTEX
  8
0
 10
48.24606630
 20
4.99938134
  0
VERTEX
  8
0
 10
48.24606630
 20
8.41570715
  0
VERTEX
  8
0
 10
44.82974049
 20
8.41570715
  0
VERTEX
  8
0
 10
43.24457272
 20
6.83053937
  0
VERTEX
  8
0
 10
43.65940494
 20
6.41570715
  0
VERTEX
  8
0
 10
46.24606630
 20
6.41570715
  0
VERTEX
  8
0
 10
46.24606630
 20
3.82904579
  0
VERTEX
  8
0
 10
46.66089853
 20
3.41421356
  0
VERTEX
  8
0
 10
48.24606630
 20
4.99938134
  0
SEQEND
  0
POLYLINE
  8
Default_Layer
 66
   1
 39
0.000000
 70
    1
  0
VERTEX
  8
0
 10
73.24501116
 20
8.93657804
  0
VERTEX
  8
0
 10
73.24501116
 20
6.41570715
  0
VERTEX
  8
0
 10
69.53381569
 20
6.41570715
  0
VERTEX
  8
0
 10
72.18093855
 20
11.43357389
  0
VERTEX
  8
0
 10
77.24501116
 20
14.11673394
  0
VERTEX
  8
0
 10
77.24501116
 20
10.41570715
  0
VERTEX
  8
0
 10
74.72414027
 20
10.41570715
  0
VERTEX
  8
0
 10
73.24501116
 20
8.93657804
  0
SEQEND
  0
POLYLINE
  8
Default_Layer
 66
   1
 39
0.000000
 70
    1
  0
VERTEX
  8
0
 10
77.24501116
 20
18.79599110
  0
VERTEX
  8
0
 10
77.24501116
 20
16.38012334
  0
VERTEX
  8
0
 10
70.69970559
 20
12.91214336
  0
VERTEX
  8
0
 10
67.27257894
 20
6.41570715
  0
VERTEX
  8
0
 10
63.74553873
 20
6.41570715
  0
VERTEX
  8
0
 10
63.74553873
 20
12.76917239
  0
VERTEX
  8
0
 10
65.82822856
 20
16.72188390
  0
VERTEX
  8
0
 10
73.49390702
 20
20.78348487
  0
VERTEX
  8
0
 10
77.24501116
 20
18.79599110
  0
SEQEND
  0
POLYLINE
  8
Default_Layer
 66
   1
 39
0.000000
 70
    1
  0
VERTEX
  8
0
 10
75.24501116
 20
4.99938134
  0
VERTEX
  8
0
 10
75.24501116
 20
8.41570715
  0
VERTEX
  8
0
 10
78.66133697
 20
8.41570715
  0
VERTEX
  8
0
 10
80.24650475
 20
6.83053937
  0
VERTEX
  8
0
 10
79.83167252
 20
6.41570715
  0
VERTEX
  8
0
 10
77.24501116
 20
6.41570715
  0
VERTEX
  8
0
 10
77.24501116
 20
3.82904579
  0
VERTEX
  8
0
 10
76.83017894
 20
3.41421356
  0
VERTEX
  8
0
 10
75.24501116
 20
4.99938134
  0
SEQEND
  0
POLYLINE
  8
Default_Layer
 66
   1
 39
0.000000
 70
    1
  0
VERTEX
  8
0
 10
50.24606630
 20
34.89378111
  0
VERTEX
  8
0
 10
50.24606630
 20
37.41465201
  0
VERTEX
  8
0
 10
53.95726177
 20
37.41465201
  0
VERTEX
  8
0
 10
51.31013891
 20
32.39678527
  0
VERTEX
  8
0
 10
46.24606630
 20
29.71362522
  0
VERTEX
  8
0
 10
46.24606630
 20
33.41465201
  0
VERTEX
  8
0
 10
48.76693719
 20
33.41465201
  0
VERTEX
  8
0
 10
50.24606630
 20
34.89378111
  0
SEQEND
  0
POLYLINE
  8
Default_Layer
 66
   1
 39
0.000000
 70
    1
  0
VERTEX
  8
0
 10
46.24606630
 20
25.03436805
  0
VERTEX
  8
0
 10
46.24606630
 20
27.45023581
  0
VERTEX
  8
0
 10
52.79137188
 20
30.91821580
  0
VERTEX
  8
0
 10
56.21849853
 20
37.41465201
  0
VERTEX
  8
0
 10
59.74553873
 20
37.41465201
  0
VERTEX
  8
0
 10
59.74553873
 20
31.06118677
  0
VERTEX
  8
0
 10
57.66284891
 20
27.10847525
  0
VERTEX
  8
0
 10
49.99717044
 20
23.04687428
  0
VERTEX
  8
0
 10
46.24606630
 20
25.03436805
  0
SEQEND
  0
POLYLINE
  8
Default_Layer
 66
   1
 39
0.000000
 70
    1
  0
VERTEX
  8
0
 10
48.24606630
 20
38.83097782
  0
VERTEX
  8
0
 10
48.24606630
 20
35.41465201
  0
VERTEX
  8
0
 10
44.82974049
 20
35.41465201
  0
VERTEX
  8
0
 10
43.24457272
 20
36.99981978
  0
VERTEX
  8
0
 10
43.65940494
 20
37.41465201
  0
VERTEX
  8
0
 10
46.24606630
 20
37.41465201
  0
VERTEX
  8
0
 10
46.24606630
 20
40.00131337
  0
VERTEX
  8
0
 10
46.66089853
 20
40.41614559
  0
VERTEX
  8
0
 10
48.24606630
 20
38.83097782
  0
SEQEND
  0
POLYLINE
  8
Default_Layer
 66
   1
 39
0.000000
 70
    1
  0
VERTEX
  8
0
 10
73.24501116
 20
34.89378111
  0
VERTEX
  8
0
 10
73.24501116
 20
37.41465201
  0
VERTEX
  8
0
 10
69.53381569
 20
37.41465201
  0
VERTEX
  8
0
 10
72.18093855
 20
32.39678527
  0
VERTEX
  8
0
 10
77.24501116
 20
29.71362522
  0
VERTEX
  8
0
 10
77.24501116
 20
33.41465201
  0
VERTEX
  8
0
 10
74.72414027
 20
33.41465201
  0
VERTEX
  8
0
 10
73.24501116
 20
34.89378111
  0
SEQEND
  0
POLYLINE
  8
Default_Layer
 66
   1
 39
0.000000
 70
    1
  0
VERTEX
  8
0
 10
77.24501116
 20
25.03436805
  0
VERTEX
  8
0
 10
77.24501116
 20
27.45023581
  0
VERTEX
  8
0
 10
70.69970559
 20
30.91821580
  0
VERTEX
  8
0
 10
67.27257894
 20
37.41465201
  0
VERTEX
  8
0
 10
63.74553873
 20
37.41465201
  0
VERTEX
  8
0
 10
63.74553873
 20
31.06118677
  0
VERTEX
  8
0
 10
65.82822856
 20
27.10847525
  0
VERTEX
  8
0
 10
73.49390702
 20
23.04687428
  0
VERTEX
  8
0
 10
77.24501116
 20
25.03436805
  0
SEQEND
  0
POLYLINE
  8
Default_Layer
 66
   1
 39
0.000000
 70
    1
  0
VERTEX
  8
0
 10
75.24501116
 20
38.83097782
  0
VERTEX
  8
0
 10
75.24501116
 20
35.41465201
  0
VERTEX
  8
0
 10
78.66133697
 20
35.41465201
  0
VERTEX
  8
0
 10
80.24650475
 20
36.99981978
  0
VERTEX
  8
0
 10
79.83167252
 20
37.41465201
  0
VERTEX
  8
0
 10
77.24501116
 20
37.41465201
  0
VERTEX
  8
0
 10
77.24501116
 20
40.00131337
  0
VERTEX
  8
0
 10
76.83017894
 20
40.41614559
  0
VERTEX
  8
0
 10
75.24501116
 20
38.83097782
  0
SEQEND
  0
POLYLINE
  8
Default_Layer
 66
   1
 39
0.000000
 70
    1
  0
VERTEX
  8
0
 10
12.30271970
 20
21.91517958
  0
VERTEX
  8
0
 10
16.17802027
 20
19.86188128
  0
VERTEX
  8
0
 10
15.09613421
 20
21.91517958
  0
VERTEX
  8
0
 10
16.17802027
 20
23.96847787
  0
VERTEX
  8
0
 10
12.30271970
 20
21.91517958
  0
SEQEND
  0
POLYLINE
  8
Default_Layer
 66
   1
 39
0.000000
 70
    1
  0
VERTEX
  8
0
 10
31.52763945
 20
21.91517958
  0
VERTEX
  8
0
 10
27.65233889
 20
19.86188128
  0
VERTEX
  8
0
 10
28.73422494
 20
21.91517958
  0
VERTEX
  8
0
 10
27.65233889
 20
23.96847787
  0
VERTEX
  8
0
 10
31.52763945
 20
21.91517958
  0
SEQEND
  0
POLYLINE
  8
Default_Layer
 66
   1
 39
0.000000
 70
    1
  0
VERTEX
  8
0
 10
17.35677593
 20
21.91517958
  0
VERTEX
  8
0
 10
19.91517958
 20
17.05961662
  0
VERTEX
  8
0
 10
19.91517958
 20
26.77074253
  0
VERTEX
  8
0
 10
17.35677593
 20
21.91517958
  0
SEQEND
  0
POLYLINE
  8
Default_Layer
 66
   1
 39
0.000000
 70
    1
  0
VERTEX
  8
0
 10
26.47358322
 20
21.91517958
  0
VERTEX
  8
0
 10
23.91517958
 20
17.05961662
  0
VERTEX
  8
0
 10
23.91517958
 20
26.77074253
  0
VERTEX
  8
0
 10
26.47358322
 20
21.91517958
  0
SEQEND
  0
POLYLINE
  8
Default_Layer
 66
   1
 39
0.000000
 70
    1
  0
VERTEX
  8
0
 10
10.41570715
 20
8.93657804
  0
VERTEX
  8
0
 10
10.41570715
 20
6.41570715
  0
VERTEX
  8
0
 10
14.12690262
 20
6.41570715
  0
VERTEX
  8
0
 10
11.47977976
 20
11.43357389
  0
VERTEX
  8
0
 10
6.41570715
 20
14.11673394
  0
VERTEX
  8
0
 10
6.41570715
 20
10.41570715
  0
VERTEX
  8
0
 10
8.93657804
 20
10.41570715
  0
VERTEX
  8
0
 10
10.41570715
 20
8.93657804
  0
SEQEND
  0
POLYLINE
  8
Default_Layer
 66
   1
 39
0.000000
 70
    1
  0
VERTEX
  8
0
 10
6.41570715
 20
18.79599110
  0
VERTEX
  8
0
 10
6.41570715
 20
16.38012334
  0
VERTEX
  8
0
 10
12.96101272
 20
12.91214336
  0
VERTEX
  8
0
 10
16.38813937
 20
6.41570715
  0
VERTEX
  8
0
 10
19.91517958
 20
6.41570715
  0
VERTEX
  8
0
 10
19.91517958
 20
12.76917239
  0
VERTEX
  8
0
 10
17.83248975
 20
16.72188390
  0
VERTEX
  8
0
 10
10.16681129
 20
20.78348487
  0
VERTEX
  8
0
 10
6.41570715
 20
18.79599110
  0
SEQEND
  0
POLYLINE
  8
Default_Layer
 66
   1
 39
0.000000
 70
    1
  0
VERTEX
  8
0
 10
8.41570715
 20
4.99938134
  0
VERTEX
  8
0
 10
8.41570715
 20
8.41570715
  0
VERTEX
  8
0
 10
4.99938134
 20
8.41570715
  0
VERTEX
  8
0
 10
3.41421356
 20
6.83053937
  0
VERTEX
  8
0
 10
3.82904579
 20
6.41570715
  0
VERTEX
  8
0
 10
6.41570715
 20
6.41570715
  0
VERTEX
  8
0
 10
6.41570715
 20
3.82904579
  0
VERTEX
  8
0
 10
6.83053937
 20
3.41421356
  0
VERTEX
  8
0
 10
8.41570715
 20
4.99938134
  0
SEQEND
  0
POLYLINE
  8
Default_Layer
 66
   1
 39
0.000000
 70
    1
  0
VERTEX
  8
0
 10
33.41465201
 20
8.93657804
  0
VERTEX
  8
0
 10
33.41465201
 20
6.41570715
  0
VERTEX
  8
0
 10
29.70345653
 20
6.41570715
  0
VERTEX
  8
0
 10
32.35057940
 20
11.43357389
  0
VERTEX
  8
0
 10
37.41465201
 20
14.11673394
  0
VERTEX
  8
0
 10
37.41465201
 20
10.41570715
  0
VERTEX
  8
0
 10
34.89378111
 20
10.41570715
  0
VERTEX
  8
0
 10
33.41465201
 20
8.93657804
  0
SEQEND
  0
POLYLINE
  8
Default_Layer
 66
   1
 39
0.000000
 70
    1
  0
VERTEX
  8
0
 10
37.41465201
 20
18.79599110
  0
VERTEX
  8
0
 10
37.41465201
 20
16.38012334
  0
VERTEX
  8
0
 10
30.86934643
 20
12.91214336
  0
VERTEX
  8
0
 10
27.44221978
 20
6.41570715
  0
VERTEX
  8
0
 10
23.91517958
 20
6.41570715
  0
VERTEX
  8
0
 10
23.91517958
 20
12.76917239
  0
VERTEX
  8
0
 10
25.99786940
 20
16.72188390
  0
VERTEX
  8
0
 10
33.66354787
 20
20.78348487
  0
VERTEX
  8
0
 10
37.41465201
 20
18.79599110
  0
SEQEND
  0
POLYLINE
  8
Default_Layer
 66
   1
 39
0.000000
 70
    1
  0
VERTEX
  8
0
 10
35.41465201
 20
4.99938134
  0
VERTEX
  8
0
 10
35.41465201
 20
8.41570715
  0
VERTEX
  8
0
 10
38.83097782
 20
8.41570715
  0
VERTEX
  8
0
 10
40.41614559
 20
6.83053937
  0
VERTEX
  8
0
 10
40.00131337
 20
6.41570715
  0
VERTEX
  8
0
 10
37.41465201
 20
6.41570715
  0
VERTEX
  8
0
 10
37.41465201
 20
3.82904579
  0
VERTEX
  8
0
 10
36.99981978
 20
3.41421356
  0
VERTEX
  8
0
 10
35.41465201
 20
4.99938134
  0
SEQEND
  0
POLYLINE
  8
Default_Layer
 66
   1
 39
0.000000
 70
    1
  0
VERTEX
  8
0
 10
10.41570715
 20
34.89378111
  0
VERTEX
  8
0
 10
10.41570715
 20
37.41465201
  0
VERTEX
  8
0
 10
14.12690262
 20
37.41465201
  0
VERTEX
  8
0
 10
11.47977976
 20
32.39678527
  0
VERTEX
  8
0
 10
6.41570715
 20
29.71362522
  0
VERTEX
  8
0
 10
6.41570715
 20
33.41465201
  0
VERTEX
  8
0
 10
8.93657804
 20
33.41465201
  0
VERTEX
  8
0
 10
10.41570715
 20
34.89378111
  0
SEQEND
  0
POLYLINE
  8
Default_Layer
 66
   1
 39
0.000000
 70
    1
  0
VERTEX
  8
0
 10
6.41570715
 20
25.03436805
  0
VERTEX
  8
0
 10
6.41570715
 20
27.45023581
  0
VERTEX
  8
0
 10
12.96101272
 20
30.91821580
  0
VERTEX
  8
0
 10
16.38813937
 20
37.41465201
  0
VERTEX
  8
0
 10
19.91517958
 20
37.41465201
  0
VERTEX
  8
0
 10
19.91517958
 20
31.06118677
  0
VERTEX
  8
0
 10
17.83248975
 20
27.10847525
  0
VERTEX
  8
0
 10
10.16681129
 20
23.04687428
  0
VERTEX
  8
0
 10
6.41570715
 20
25.03436805
  0
SEQEND
  0
POLYLINE
  8
Default_Layer
 66
   1
 39
0.000000
 70
    1
  0
VERTEX
  8
0
 10
8.41570715
 20
38.83097782
  0
VERTEX
  8
0
 10
8.41570715
 20
35.41465201
  0
VERTEX
  8
0
 10
4.99938134
 20
35.41465201
  0
VERTEX
  8
0
 10
3.41421356
 20
36.99981978
  0
VERTEX
  8
0
 10
3.82904579
 20
37.41465201
  0
VERTEX
  8
0
 10
6.41570715
 20
37.41465201
  0
VERTEX
  8
0
 10
6.41570715
 20
40.00131337
  0
VERTEX
  8
0
 10
6.83053937
 20
40.41614559
  0
VERTEX
  8
0
 10
8.41570715
 20
38.83097782
  0
SEQEND
  0
POLYLINE
  8
Default_Layer
 66
   1
 39
0.000000
 70
    1
  0
VERTEX
  8
0
 10
33.41465201
 20
34.89378111
  0
VERTEX
  8
0
 10
33.41465201
 20
37.41465201
  0
VERTEX
  8
0
 10
29.70345653
 20
37.41465201
  0
VERTEX
  8
0
 10
32.35057940
 20
32.39678527
  0
VERTEX
  8
0
 10
37.41465201
 20
29.71362522
  0
VERTEX
  8
0
 10
37.41465201
 20
33.41465201
  0
VERTEX
  8
0
 10
34.89378111
 20
33.41465201
  0
VERTEX
  8
0
 10
33.41465201
 20
34.89378111
  0
SEQEND
  0
POLYLINE
  8
Default_Layer
 66
   1
 39
0.000000
 70
    1
  0
VERTEX
  8
0
 10
37.41465201
 20
25.03436805
  0
VERTEX
  8
0
 10
37.41465201
 20
27.45023581
  0
VERTEX
  8
0
 10
30.86934643
 20
30.91821580
  0
VERTEX
  8
0
 10
27.44221978
 20
37.41465201
  0
VERTEX
  8
0
 10
23.91517958
 20
37.41465201
  0
VERTEX
  8
0
 10
23.91517958
 20
31.06118677
  0
VERTEX
  8
0
 10
25.99786940
 20
27.10847525
  0
VERTEX
  8
0
 10
33.66354787
 20
23.04687428
  0
VERTEX
  8
0
 10
37.41465201
 20
25.03436805
  0
SEQEND
  0
POLYLINE
  8
Default_Layer
 66
   1
 39
0.000000
 70
    1
  0
VERTEX
  8
0
 10
35.41465201
 20
38.83097782
  0
VERTEX
  8
0
 10
36.99981978
 20
40.41614559
  0
VERTEX
  8
0
 10
37.41465201
 20
40.00131337
  0
VERTEX
  8
0
 10
37.41465201
 20
37.41465201
  0
VERTEX
  8
0
 10
40.00131337
 20
37.41465201
  0
VERTEX
  8
0
 10
40.41614559
 20
36.99981978
  0
VERTEX
  8
0
 10
38.83097782
 20
35.41465201
  0
VERTEX
  8
0
 10
35.41465201
 20
35.41465201
  0
VERTEX
  8
0
 10
35.41465201
 20
38.83097782
  0
SEQEND
  0
ENDSEC
  0
EOF
