  0
SECTION
  2
HEADER
  9
$ACADVER
  1
AC1009
  9
$DWGCODEPAGE
  3
ansi_1252
  9
$INSBASE
 10
0.0
 20
0.0
 30
0.0
  9
$EXTMIN
 10
1.000000000000000E+20
 20
1.000000000000000E+20
 30
1.000000000000000E+20
  9
$EXTMAX
 10
-1.000000000000000E+20
 20
-1.000000000000000E+20
 30
-1.000000000000000E+20
  9
$LIMMIN
 10
0.0
 20
0.0
  9
$LIMMAX
 10
12.0
 20
9.0
  9
$ORTHOMODE
 70
     0
  9
$REGENMODE
 70
     1
  9
$FILLMODE
 70
     1
  9
$QTEXTMODE
 70
     0
  9
$MIRRTEXT
 70
     1
  9
$DRAGMODE
 70
     2
  9
$LTSCALE
 40
1.0
  9
$OSMODE
 70
    37
  9
$ATTMODE
 70
     1
  9
$TEXTSIZE
 40
0.2
  9
$TRACEWID
 40
0.05
  9
$TEXTSTYLE
  7
STANDARD
  9
$CLAYER
  8
LAYER_01
  9
$CELTYPE
  6
BYLAYER
  9
$CECOLOR
 62
   256
  9
$DIMSCALE
 40
1.0
  9
$DIMASZ
 40
0.18
  9
$DIMEXO
 40
0.0625
  9
$DIMDLI
 40
0.38
  9
$DIMRND
 40
0.0
  9
$DIMDLE
 40
0.0
  9
$DIMEXE
 40
0.18
  9
$DIMTP
 40
0.0
  9
$DIMTM
 40
0.0
  9
$DIMTXT
 40
0.18
  9
$DIMCEN
 40
0.09
  9
$DIMTSZ
 40
0.0
  9
$DIMTOL
 70
     0
  9
$DIMLIM
 70
     0
  9
$DIMTIH
 70
     1
  9
$DIMTOH
 70
     1
  9
$DIMSE1
 70
     0
  9
$DIMSE2
 70
     0
  9
$DIMTAD
 70
     0
  9
$DIMZIN
 70
     0
  9
$DIMBLK
  1

  9
$DIMASO
 70
     1
  9
$DIMSHO
 70
     1
  9
$DIMPOST
  1

  9
$DIMAPOST
  1

  9
$DIMALT
 70
     0
  9
$DIMALTD
 70
     2
  9
$DIMALTF
 40
25.4
  9
$DIMLFAC
 40
1.0
  9
$DIMTOFL
 70
     0
  9
$DIMTVP
 40
0.0
  9
$DIMTIX
 70
     0
  9
$DIMSOXD
 70
     0
  9
$DIMSAH
 70
     0
  9
$DIMBLK1
  1

  9
$DIMBLK2
  1

  9
$DIMSTYLE
  2
STANDARD_ACAD
  9
$DIMCLRD
 70
     0
  9
$DIMCLRE
 70
     0
  9
$DIMCLRT
 70
     0
  9
$DIMTFAC
 40
1.0
  9
$DIMGAP
 40
0.09
  9
$LUNITS
 70
     2
  9
$LUPREC
 70
     3
  9
$SKETCHINC
 40
0.1
  9
$FILLETRAD
 40
0.5
  9
$AUNITS
 70
     0
  9
$AUPREC
 70
     0
  9
$MENU
  1
.
  9
$ELEVATION
 40
0.0
  9
$PELEVATION
 40
0.0
  9
$THICKNESS
 40
0.0
  9
$LIMCHECK
 70
     0
  9
$CHAMFERA
 40
0.0
  9
$CHAMFERB
 40
0.0
  9
$SKPOLY
 70
     0
  9
$TDCREATE
 40
2459984.586412026
  9
$TDUPDATE
 40
2459984.586412338
  9
$TDINDWG
 40
0.0000000116
  9
$TDUSRTIMER
 40
0.0000000116
  9
$USRTIMER
 70
     1
  9
$ANGBASE
 50
0.0
  9
$ANGDIR
 70
     0
  9
$PDMODE
 70
     0
  9
$PDSIZE
 40
0.0
  9
$PLINEWID
 40
0.0
  9
$COORDS
 70
     1
  9
$SPLFRAME
 70
     0
  9
$SPLINETYPE
 70
     6
  9
$SPLINESEGS
 70
     8
  9
$ATTDIA
 70
     0
  9
$ATTREQ
 70
     1
  9
$HANDLING
 70
     1
  9
$HANDSEED
  5
297
  9
$SURFTAB1
 70
     6
  9
$SURFTAB2
 70
     6
  9
$SURFTYPE
 70
     6
  9
$SURFU
 70
     6
  9
$SURFV
 70
     6
  9
$UCSNAME
  2

  9
$UCSORG
 10
0.0
 20
0.0
 30
0.0
  9
$UCSXDIR
 10
1.0
 20
0.0
 30
0.0
  9
$UCSYDIR
 10
0.0
 20
1.0
 30
0.0
  9
$PUCSNAME
  2

  9
$PUCSORG
 10
0.0
 20
0.0
 30
0.0
  9
$PUCSXDIR
 10
1.0
 20
0.0
 30
0.0
  9
$PUCSYDIR
 10
0.0
 20
1.0
 30
0.0
  9
$USERI1
 70
     0
  9
$USERI2
 70
     0
  9
$USERI3
 70
     0
  9
$USERI4
 70
     0
  9
$USERI5
 70
     0
  9
$USERR1
 40
0.0
  9
$USERR2
 40
0.0
  9
$USERR3
 40
0.0
  9
$USERR4
 40
0.0
  9
$USERR5
 40
0.0
  9
$WORLDVIEW
 70
     1
  9
$SHADEDGE
 70
     3
  9
$SHADEDIF
 70
    70
  9
$TILEMODE
 70
     1
  9
$MAXACTVP
 70
    64
  9
$PLIMCHECK
 70
     0
  9
$PEXTMIN
 10
1.000000000000000E+20
 20
1.000000000000000E+20
 30
1.000000000000000E+20
  9
$PEXTMAX
 10
-1.000000000000000E+20
 20
-1.000000000000000E+20
 30
-1.000000000000000E+20
  9
$PLIMMIN
 10
0.0
 20
0.0
  9
$PLIMMAX
 10
12.0
 20
9.0
  9
$UNITMODE
 70
     0
  9
$VISRETAIN
 70
     1
  9
$PLINEGEN
 70
     0
  9
$PSLTSCALE
 70
     1
  0
ENDSEC
  0
SECTION
  2
TABLES
  0
TABLE
  2
VPORT
 70
     1
  0
VPORT
  2
*ACTIVE
 70
     0
 10
0.0
 20
0.0
 11
1.0
 21
1.0
 12
10.42990654205607
 22
4.5
 13
0.0
 23
0.0
 14
0.5
 24
0.5
 15
0.5
 25
0.5
 16
0.0
 26
0.0
 36
1.0
 17
0.0
 27
0.0
 37
0.0
 40
9.0
 41
1.972972972850329
 42
50.0
 43
0.0
 44
0.0
 50
0.0
 51
0.0
 71
     0
 72
   100
 73
     1
 74
     3
 75
     0
 76
     0
 77
     0
 78
     0
  0
ENDTAB
  0
TABLE
  2
LTYPE
 70
     1
  0
LTYPE
  2
CONTINUOUS
 70
     0
  3
Solid line
 72
    65
 73
     0
 40
0.0
  0
ENDTAB
  0
TABLE
  2
LAYER
 70
     2
  0
LAYER
  2
0
 70
     0
 62
     7
  6
CONTINUOUS
  0
LAYER
  2
LAYER_01
 70
     0
 62
     1
  6
CONTINUOUS
  0
ENDTAB
  0
TABLE
  2
STYLE
 70
     1
  0
STYLE
  2
STANDARD
 70
     0
 40
0.0
 41
1.0
 50
0.0
 71
     0
 42
0.2
  3
txt
  4

  0
ENDTAB
  0
TABLE
  2
VIEW
 70
     0
  0
ENDTAB
  0
TABLE
  2
UCS
 70
     0
  0
ENDTAB
  0
TABLE
  2
APPID
 70
     2
  0
APPID
  2
ACAD
 70
     0
  0
APPID
  2
RHINO
 70
     0
  0
ENDTAB
  0
TABLE
  2
DIMSTYLE
 70
     1
  0
DIMSTYLE
  2
STANDARD_ACAD
 70
     0
  3

  4

  5

  6

  7

 40
1.0
 41
0.18
 42
0.0625
 43
0.38
 44
0.18
 45
0.0
 46
0.0
 47
0.0
 48
0.0
140
0.18
141
0.09
142
0.0
143
25.4
144
1.0
145
0.0
146
1.0
147
0.09
 71
     0
 72
     0
 73
     1
 74
     1
 75
     0
 76
     0
 77
     0
 78
     0
170
     0
171
     2
172
     0
173
     0
174
     0
175
     0
176
     0
177
     0
178
     0
  0
ENDTAB
  0
ENDSEC
  0
SECTION
  2
BLOCKS
  0
BLOCK
  8
0
  2
$MODEL_SPACE
 70
     0
 10
0.0
 20
0.0
 30
0.0
  3
$MODEL_SPACE
  1

  0
ENDBLK
  5
21
  8
0
  0
BLOCK
 67
     1
  8
0
  2
$PAPER_SPACE
 70
     0
 10
0.0
 20
0.0
 30
0.0
  3
$PAPER_SPACE
  1

  0
ENDBLK
  5
1D
 67
     1
  8
0
  0
ENDSEC
  0
SECTION
  2
ENTITIES
  0
POLYLINE
  5
70
  8
LAYER_01
 66
     1
 10
0.0
 20
0.0
 30
0.0
 70
     1
  0
VERTEX
  5
71
  8
LAYER_01
 10
5387.746374057123
 20
744.3108816159993
 30
0.0
 42
0.1870637802546982
  0
VERTEX
  5
72
  8
LAYER_01
 10
5133.406252627169
 20
753.1964536976636
 30
0.0
 42
0.0534921591254945
  0
VERTEX
  5
73
  8
LAYER_01
 10
5139.367310362354
 20
808.6950928531514
 30
0.0
 42
-0.6119891948150414
  0
VERTEX
  5
74
  8
LAYER_01
 10
5446.957015140129
 20
748.7952909557534
 30
0.0
 42
0.0654880076844151
  0
SEQEND
  5
75
  8
LAYER_01
  0
POLYLINE
  5
76
  8
LAYER_01
 66
     1
 10
0.0
 20
0.0
 30
0.0
 70
     1
  0
VERTEX
  5
77
  8
LAYER_01
 10
5470.283834887849
 20
1533.83232348074
 30
0.0
 42
0.0430114089147852
  0
VERTEX
  5
78
  8
LAYER_01
 10
5442.759527067774
 20
1570.492020292273
 30
0.0
 42
-0.0201753098991233
  0
VERTEX
  5
79
  8
LAYER_01
 10
5427.553612975533
 20
1566.342691475942
 30
0.0
 42
-0.0487438362013329
  0
VERTEX
  5
7A
  8
LAYER_01
 10
5457.737202227487
 20
1527.487174413884
 30
0.0
 42
-0.0176526931228135
  0
SEQEND
  5
7B
  8
LAYER_01
  0
POLYLINE
  5
7C
  8
LAYER_01
 66
     1
 10
0.0
 20
0.0
 30
0.0
 70
     1
  0
VERTEX
  5
7D
  8
LAYER_01
 10
5296.693335904421
 20
702.7725114565161
 30
0.0
 42
0.1427957615587887
  0
VERTEX
  5
7E
  8
LAYER_01
 10
5137.67450755695
 20
684.1533368263118
 30
0.0
 42
0.0120396446660173
  0
VERTEX
  5
7F
  8
LAYER_01
 10
5133.274096393492
 20
697.4906533200851
 30
0.0
 42
-0.1537448001374465
  0
VERTEX
  5
80
  8
LAYER_01
 10
5312.76864038903
 20
713.9273213262524
 30
0.0
 42
0.0214967939101434
  0
SEQEND
  5
81
  8
LAYER_01
  0
POLYLINE
  5
82
  8
LAYER_01
 66
     1
 10
0.0
 20
0.0
 30
0.0
 70
     1
  0
VERTEX
  5
83
  8
LAYER_01
 10
5207.409929169428
 20
538.9155596002514
 30
0.0
 42
-0.1016094407861711
  0
VERTEX
  5
84
  8
LAYER_01
 10
5149.572261965148
 20
579.723080368116
 30
0.0
 42
0.0742624424369906
  0
VERTEX
  5
85
  8
LAYER_01
 10
5142.64112040785
 20
665.6098507503583
 30
0.0
 42
-0.1297088115016627
  0
VERTEX
  5
86
  8
LAYER_01
 10
5277.313604743178
 20
686.2642673839323
 30
0.0
 42
0.1852422193961919
  0
SEQEND
  5
87
  8
LAYER_01
  0
POLYLINE
  5
88
  8
LAYER_01
 66
     1
 10
0.0
 20
0.0
 30
0.0
 70
     1
  0
VERTEX
  5
89
  8
LAYER_01
 10
5127.475529681555
 20
730.7464379352011
 30
0.0
 42
-0.1780474578898143
  0
VERTEX
  5
8A
  8
LAYER_01
 10
5357.308214652807
 20
735.6926619646691
 30
0.0
 42
0.0239106470390196
  0
VERTEX
  5
8B
  8
LAYER_01
 10
5337.208252138625
 20
727.3536716784338
 30
0.0
 42
0.1703521428612121
  0
VERTEX
  5
8C
  8
LAYER_01
 10
5126.307312413544
 20
715.1715661948596
 30
0.0
 42
0.0048803811201766
  0
VERTEX
  5
8D
  8
LAYER_01
 10
5123.997630505191
 20
720.3758129843491
 30
0.0
 42
0.0104537462284128
  0
SEQEND
  5
8E
  8
LAYER_01
  0
POLYLINE
  5
8F
  8
LAYER_01
 66
     1
 10
0.0
 20
0.0
 30
0.0
 70
     1
  0
VERTEX
  5
90
  8
LAYER_01
 10
5672.280845114414
 20
1513.168549830548
 30
0.0
 42
-0.0222015897290469
  0
VERTEX
  5
91
  8
LAYER_01
 10
5688.028605250948
 20
1530.327422803371
 30
0.0
 42
-0.0524992693469718
  0
VERTEX
  5
92
  8
LAYER_01
 10
5650.490968990478
 20
1595.708959486561
 30
0.0
 42
-0.3452196453804172
  0
VERTEX
  5
93
  8
LAYER_01
 10
5489.467485993898
 20
1592.434380200091
 30
0.0
 42
-0.0402737324703706
  0
VERTEX
  5
94
  8
LAYER_01
 10
5461.756269943897
 20
1577.613723264248
 30
0.0
 42
-0.0394777709395501
  0
VERTEX
  5
95
  8
LAYER_01
 10
5488.146718258367
 20
1541.06084299448
 30
0.0
 42
-0.2481460290513947
  0
SEQEND
  5
96
  8
LAYER_01
  0
POLYLINE
  5
97
  8
LAYER_01
 66
     1
 10
0.0
 20
0.0
 30
0.0
 70
     1
  0
VERTEX
  5
98
  8
LAYER_01
 10
5441.550309882462
 20
1517.535348494868
 30
0.0
 42
0.0624532736639683
  0
VERTEX
  5
99
  8
LAYER_01
 10
5404.550399751384
 20
1562.481087546469
 30
0.0
 42
-0.0653051265814026
  0
VERTEX
  5
9A
  8
LAYER_01
 10
5353.741451319635
 20
1563.691953717399
 30
0.0
 42
-0.1354837575467265
  0
VERTEX
  5
9B
  8
LAYER_01
 10
5234.483160368896
 20
1498.204419608742
 30
0.0
 42
-0.6113300811810825
  0
VERTEX
  5
9C
  8
LAYER_01
 10
5207.397526708342
 20
1331.727502742837
 30
0.0
 42
-0.2504749122207696
  0
VERTEX
  5
9D
  8
LAYER_01
 10
5267.833538347608
 20
1159.762206400194
 30
0.0
 42
0.164178870023579
  0
VERTEX
  5
9E
  8
LAYER_01
 10
5403.929780980277
 20
1221.885421423367
 30
0.0
 42
-0.4497402791632521
  0
SEQEND
  5
9F
  8
LAYER_01
  0
POLYLINE
  5
A0
  8
LAYER_01
 66
     1
 10
0.0
 20
0.0
 30
0.0
 70
     1
  0
VERTEX
  5
A1
  8
LAYER_01
 10
5324.280658881438
 20
2601.122148293718
 30
0.0
 42
0.0353207490856284
  0
VERTEX
  5
A2
  8
LAYER_01
 10
5308.264117470935
 20
2589.130895489538
 30
0.0
 42
0.1902536535214424
  0
VERTEX
  5
A3
  8
LAYER_01
 10
5232.67215072111
 20
2584.817004017877
 30
0.0
 42
0.185534297732988
  0
VERTEX
  5
A4
  8
LAYER_01
 10
5254.926626905708
 20
2785.895220151132
 30
0.0
 42
-0.1195115846041756
  0
VERTEX
  5
A5
  8
LAYER_01
 10
5388.504546557909
 20
2805.048557176747
 30
0.0
 42
0.2510095923525842
  0
SEQEND
  5
A6
  8
LAYER_01
  0
POLYLINE
  5
A7
  8
LAYER_01
 66
     1
 10
0.0
 20
0.0
 30
0.0
 70
     1
  0
VERTEX
  5
A8
  8
LAYER_01
 10
5407.691073505613
 20
2821.793600280517
 30
0.0
 42
0.132656301575892
  0
VERTEX
  5
A9
  8
LAYER_01
 10
5249.463897947971
 20
2804.168232837935
 30
0.0
 42
0.0124178934785411
  0
VERTEX
  5
AA
  8
LAYER_01
 10
5244.672979275795
 20
2817.327622623155
 30
0.0
 42
-0.1436223408580936
  0
VERTEX
  5
AB
  8
LAYER_01
 10
5423.70806258154
 20
2833.176477456266
 30
0.0
 42
0.0217124169193046
  0
SEQEND
  5
AC
  8
LAYER_01
  0
POLYLINE
  5
AD
  8
LAYER_01
 66
     1
 10
0.0
 20
0.0
 30
0.0
 70
     1
  0
VERTEX
  5
AE
  8
LAYER_01
 10
5171.104983510317
 20
2172.504718662155
 30
0.0
 42
-0.3263214786821547
  0
VERTEX
  5
AF
  8
LAYER_01
 10
5074.364135539664
 20
2116.186803433927
 30
0.0
 42
-0.1233779783503125
  0
VERTEX
  5
B0
  8
LAYER_01
 10
5132.539403787101
 20
1998.999017246142
 30
0.0
 42
-0.1001538706725516
  0
VERTEX
  5
B1
  8
LAYER_01
 10
5233.896839595865
 20
1995.871737591976
 30
0.0
 42
-0.2544033647822797
  0
SEQEND
  5
B2
  8
LAYER_01
  0
POLYLINE
  5
B3
  8
LAYER_01
 66
     1
 10
0.0
 20
0.0
 30
0.0
 70
     1
  0
VERTEX
  5
B4
  8
LAYER_01
 10
5518.842081510254
 20
2183.844604466975
 30
0.0
 42
-0.0155211033555822
  0
VERTEX
  5
B5
  8
LAYER_01
 10
5497.681122844969
 20
2174.712741432159
 30
0.0
 42
-0.1189845223631409
  0
VERTEX
  5
B6
  8
LAYER_01
 10
5524.418763945763
 20
2138.633250161809
 30
0.0
 42
0.0717192306685347
  0
SEQEND
  5
B7
  8
LAYER_01
  0
POLYLINE
  5
B8
  8
LAYER_01
 66
     1
 10
0.0
 20
0.0
 30
0.0
 70
     1
  0
VERTEX
  5
B9
  8
LAYER_01
 10
5701.762333933501
 20
1018.247268711556
 30
0.0
 42
0.3135349884307232
  0
VERTEX
  5
BA
  8
LAYER_01
 10
5778.280674098112
 20
775.6648765192593
 30
0.0
 42
0.4628586771585882
  0
SEQEND
  5
BB
  8
LAYER_01
  0
POLYLINE
  5
BC
  8
LAYER_01
 66
     1
 10
0.0
 20
0.0
 30
0.0
 70
     1
  0
VERTEX
  5
BD
  8
LAYER_01
 10
5749.897654110744
 20
2348.861602328879
 30
0.0
 42
-0.0898939803133572
  0
VERTEX
  5
BE
  8
LAYER_01
 10
5718.583825185893
 20
2419.252923934574
 30
0.0
 42
-0.0488656035364961
  0
VERTEX
  5
BF
  8
LAYER_01
 10
5692.230272837359
 20
2351.814144789512
 30
0.0
 42
-0.1587850763614357
  0
SEQEND
  5
C0
  8
LAYER_01
  0
POLYLINE
  5
C1
  8
LAYER_01
 66
     1
 10
0.0
 20
0.0
 30
0.0
 70
     1
  0
VERTEX
  5
C2
  8
LAYER_01
 10
5221.427218902265
 20
2211.951319045083
 30
0.0
 42
0.0219415788005003
  0
VERTEX
  5
C3
  8
LAYER_01
 10
5215.839740659051
 20
2199.112900921869
 30
0.0
 42
0.1112499802457528
  0
VERTEX
  5
C4
  8
LAYER_01
 10
5367.50008445007
 20
2167.78013888591
 30
0.0
 42
-0.062024677025268
  0
VERTEX
  5
C5
  8
LAYER_01
 10
5385.908862152336
 20
2182.626812162423
 30
0.0
 42
-0.1254031019297009
  0
SEQEND
  5
C6
  8
LAYER_01
  0
POLYLINE
  5
C7
  8
LAYER_01
 66
     1
 10
0.0
 20
0.0
 30
0.0
 70
     1
  0
VERTEX
  5
C8
  8
LAYER_01
 10
5897.935706414011
 20
1839.277272029956
 30
0.0
 42
0.0256740971304837
  0
VERTEX
  5
C9
  8
LAYER_01
 10
5890.437273922874
 20
1821.790229432044
 30
0.0
 42
-0.1235957103423111
  0
VERTEX
  5
CA
  8
LAYER_01
 10
5762.159021380508
 20
1909.446726936209
 30
0.0
 42
-0.0174937958333496
  0
VERTEX
  5
CB
  8
LAYER_01
 10
5774.448200740458
 20
1924.247021749762
 30
0.0
 42
0.1268976364494441
  0
SEQEND
  5
CC
  8
LAYER_01
  0
POLYLINE
  5
CD
  8
LAYER_01
 66
     1
 10
0.0
 20
0.0
 30
0.0
 70
     1
  0
VERTEX
  5
CE
  8
LAYER_01
 10
6035.244402789222
 20
2282.714919170812
 30
0.0
 42
-0.2904875054407366
  0
VERTEX
  5
CF
  8
LAYER_01
 10
5804.071938600518
 20
2293.835074128659
 30
0.0
 42
-0.1368984919121449
  0
VERTEX
  5
D0
  8
LAYER_01
 10
5807.994846478132
 20
2243.888886167972
 30
0.0
 42
-0.7893025464139256
  0
VERTEX
  5
D1
  8
LAYER_01
 10
5917.92044377749
 20
2095.929692291237
 30
0.0
 42
-0.0820264688055214
  0
VERTEX
  5
D2
  8
LAYER_01
 10
6035.244402789222
 20
2096.974926464608
 30
0.0
  0
SEQEND
  5
D3
  8
LAYER_01
  0
POLYLINE
  5
D4
  8
LAYER_01
 66
     1
 10
0.0
 20
0.0
 30
0.0
 70
     1
  0
VERTEX
  5
D5
  8
LAYER_01
 10
5501.902577684526
 20
2475.724305443374
 30
0.0
 42
0.4814030600454152
  0
VERTEX
  5
D6
  8
LAYER_01
 10
5384.675898359123
 20
2581.620261497063
 30
0.0
 42
0.2411196136964757
  0
SEQEND
  5
D7
  8
LAYER_01
  0
POLYLINE
  5
D8
  8
LAYER_01
 66
     1
 10
0.0
 20
0.0
 30
0.0
 70
     1
  0
VERTEX
  5
D9
  8
LAYER_01
 10
5657.326879715663
 20
2445.666627273594
 30
0.0
 42
0.0217124169196515
  0
VERTEX
  5
DA
  8
LAYER_01
 10
5674.03718431688
 20
2456.004883992744
 30
0.0
 42
-0.2063856662417715
  0
VERTEX
  5
DB
  8
LAYER_01
 10
5529.410345853137
 20
2248.616101585291
 30
0.0
 42
0.0178796891162935
  0
VERTEX
  5
DC
  8
LAYER_01
 10
5521.364824892726
 20
2260.101749797735
 30
0.0
 42
0.1955707194438975
  0
SEQEND
  5
DD
  8
LAYER_01
  0
POLYLINE
  5
DE
  8
LAYER_01
 66
     1
 10
0.0
 20
0.0
 30
0.0
 70
     1
  0
VERTEX
  5
DF
  8
LAYER_01
 10
5592.90892679363
 20
2810.192650187731
 30
0.0
 42
-0.1567655624028606
  0
VERTEX
  5
E0
  8
LAYER_01
 10
5718.576824714005
 20
2620.848474099614
 30
0.0
 42
0.3735399117108859
  0
SEQEND
  5
E1
  8
LAYER_01
  0
POLYLINE
  5
E2
  8
LAYER_01
 66
     1
 10
0.0
 20
0.0
 30
0.0
 70
     1
  0
VERTEX
  5
E3
  8
LAYER_01
 10
5551.757643697254
 20
2201.344692564366
 30
0.0
 42
-0.2274899793659047
  0
VERTEX
  5
E4
  8
LAYER_01
 10
5528.170097615421
 20
2033.294489575226
 30
0.0
 42
-0.6309086940878138
  0
VERTEX
  5
E5
  8
LAYER_01
 10
5680.375816610689
 20
1941.221003117936
 30
0.0
 42
-0.0226973763257434
  0
VERTEX
  5
E6
  8
LAYER_01
 10
5699.732999393559
 20
1967.535574989314
 30
0.0
 42
-0.1646598681434527
  0
VERTEX
  5
E7
  8
LAYER_01
 10
5668.361864554779
 20
2182.039408939426
 30
0.0
 42
-0.2493504539207109
  0
VERTEX
  5
E8
  8
LAYER_01
 10
5623.444097780022
 20
2257.155855365292
 30
0.0
 42
-0.0613988587272588
  0
SEQEND
  5
E9
  8
LAYER_01
  0
POLYLINE
  5
EA
  8
LAYER_01
 66
     1
 10
0.0
 20
0.0
 30
0.0
 70
     1
  0
VERTEX
  5
EB
  8
LAYER_01
 10
5656.76576028307
 20
1792.38832724368
 30
0.0
 42
0.0308938714665618
  0
VERTEX
  5
EC
  8
LAYER_01
 10
5644.30787342649
 20
1802.611147188752
 30
0.0
 42
-0.1195182751288119
  0
VERTEX
  5
ED
  8
LAYER_01
 10
5709.662883922695
 20
1949.450714174425
 30
0.0
 42
0.0110941893106162
  0
VERTEX
  5
EE
  8
LAYER_01
 10
5717.565167787889
 20
1936.700566778118
 30
0.0
 42
0.1214895549609749
  0
SEQEND
  5
EF
  8
LAYER_01
  0
POLYLINE
  5
F0
  8
LAYER_01
 66
     1
 10
0.0
 20
0.0
 30
0.0
 70
     1
  0
VERTEX
  5
F1
  8
LAYER_01
 10
6035.24440278922
 20
1471.937091565289
 30
0.0
  0
VERTEX
  5
F2
  8
LAYER_01
 10
6035.244402789222
 20
1477.336110188234
 30
0.0
 42
0.3290866390625352
  0
VERTEX
  5
F3
  8
LAYER_01
 10
5794.071727970085
 20
1538.424763529288
 30
0.0
 42
0.2405916384774204
  0
SEQEND
  5
F4
  8
LAYER_01
  0
POLYLINE
  5
F5
  8
LAYER_01
 66
     1
 10
0.0
 20
0.0
 30
0.0
 70
     1
  0
VERTEX
  5
F6
  8
LAYER_01
 10
5223.753357934818
 20
1644.624680406131
 30
0.0
 42
-0.0201753098990928
  0
VERTEX
  5
F7
  8
LAYER_01
 10
5215.235320268523
 20
1657.88664810788
 30
0.0
 42
0.0153196586138672
  0
VERTEX
  5
F8
  8
LAYER_01
 10
5199.036407573235
 20
1655.637269275576
 30
0.0
 42
-0.0533808431190696
  0
VERTEX
  5
F9
  8
LAYER_01
 10
5187.415294231184
 20
1639.050689384715
 30
0.0
 42
-0.0363827902993031
  0
SEQEND
  5
FA
  8
LAYER_01
  0
POLYLINE
  5
FB
  8
LAYER_01
 66
     1
 10
0.0
 20
0.0
 30
0.0
 70
     1
  0
VERTEX
  5
FC
  8
LAYER_01
 10
5353.258664580075
 20
2148.809096809488
 30
0.0
 42
-0.0997814122326653
  0
VERTEX
  5
FD
  8
LAYER_01
 10
5210.065586404328
 20
2180.877653284129
 30
0.0
 42
0.6751343083784699
  0
VERTEX
  5
FE
  8
LAYER_01
 10
5449.336508897643
 20
2006.489150753606
 30
0.0
 42
-0.6224183083625958
  0
SEQEND
  5
FF
  8
LAYER_01
  0
POLYLINE
  5
100
  8
LAYER_01
 66
     1
 10
0.0
 20
0.0
 30
0.0
 70
     1
  0
VERTEX
  5
101
  8
LAYER_01
 10
5740.032125689304
 20
733.2266241429098
 30
0.0
 42
-0.1840262436814936
  0
VERTEX
  5
102
  8
LAYER_01
 10
5638.695678247112
 20
904.7079059219523
 30
0.0
 42
0.1693759441887069
  0
VERTEX
  5
103
  8
LAYER_01
 10
5652.512326718903
 20
698.3761760641531
 30
0.0
 42
0.1441055763740784
  0
SEQEND
  5
104
  8
LAYER_01
  0
POLYLINE
  5
105
  8
LAYER_01
 66
     1
 10
0.0
 20
0.0
 30
0.0
 70
     1
  0
VERTEX
  5
106
  8
LAYER_01
 10
5993.528036690152
 20
1111.30283427755
 30
0.0
 42
-0.0922975004246633
  0
VERTEX
  5
107
  8
LAYER_01
 10
6035.244402789222
 20
1081.512406431123
 30
0.0
  0
VERTEX
  5
108
  8
LAYER_01
 10
6035.24440278922
 20
1120.988171808034
 30
0.0
 42
0.0140841991952827
  0
VERTEX
  5
109
  8
LAYER_01
 10
6018.224973807891
 20
1125.795815491378
 30
0.0
 42
-0.0273041917420728
  0
SEQEND
  5
10A
  8
LAYER_01
  0
POLYLINE
  5
10B
  8
LAYER_01
 66
     1
 10
0.0
 20
0.0
 30
0.0
 70
     1
  0
VERTEX
  5
10C
  8
LAYER_01
 10
5841.480957579979
 20
879.5999157853288
 30
0.0
 42
0.4022016527433199
  0
VERTEX
  5
10D
  8
LAYER_01
 10
6035.244402789221
 20
887.2393908646982
 30
0.0
  0
VERTEX
  5
10E
  8
LAYER_01
 10
6035.244402789222
 20
764.8198729428968
 30
0.0
 42
-0.2712042919424851
  0
VERTEX
  5
10F
  8
LAYER_01
 10
5810.362536422963
 20
755.0176993032215
 30
0.0
 42
0.1606618486821937
  0
SEQEND
  5
110
  8
LAYER_01
  0
POLYLINE
  5
111
  8
LAYER_01
 66
     1
 10
0.0
 20
0.0
 30
0.0
 70
     1
  0
VERTEX
  5
112
  8
LAYER_01
 10
5022.688176802587
 20
1541.992158981322
 30
0.0
 42
0.0554286111705791
  0
VERTEX
  5
113
  8
LAYER_01
 10
4995.244402789222
 20
1489.757972301183
 30
0.0
  0
VERTEX
  5
114
  8
LAYER_01
 10
4995.244402789222
 20
1439.223173572052
 30
0.0
 42
-0.1022511984110549
  0
VERTEX
  5
115
  8
LAYER_01
 10
5034.1396284239
 20
1533.933834716272
 30
0.0
 42
-0.0136949513082103
  0
SEQEND
  5
116
  8
LAYER_01
  0
POLYLINE
  5
117
  8
LAYER_01
 66
     1
 10
0.0
 20
0.0
 30
0.0
 70
     1
  0
VERTEX
  5
118
  8
LAYER_01
 10
5496.81098193805
 20
2809.129602042394
 30
0.0
 42
0.0291594610939424
  0
VERTEX
  5
119
  8
LAYER_01
 10
5477.83958136478
 20
2802.198144998962
 30
0.0
 42
-0.3054448747902226
  0
VERTEX
  5
11A
  8
LAYER_01
 10
5666.516145714229
 20
2517.918633563847
 30
0.0
 42
0.0291594610941324
  0
VERTEX
  5
11B
  8
LAYER_01
 10
5680.272038818108
 20
2532.708310415315
 30
0.0
 42
0.2801293571094405
  0
SEQEND
  5
11C
  8
LAYER_01
  0
POLYLINE
  5
11D
  8
LAYER_01
 66
     1
 10
0.0
 20
0.0
 30
0.0
 70
     1
  0
VERTEX
  5
11E
  8
LAYER_01
 10
6035.244402789221
 20
2044.23716854567
 30
0.0
  0
VERTEX
  5
11F
  8
LAYER_01
 10
6035.24440278922
 20
2029.992816808683
 30
0.0
 42
0.2439171701904488
  0
VERTEX
  5
120
  8
LAYER_01
 10
5775.701378593878
 20
1952.942055552031
 30
0.0
 42
-0.0125909004565888
  0
VERTEX
  5
121
  8
LAYER_01
 10
5767.520551104401
 20
1964.491433688374
 30
0.0
 42
-0.2397804317746877
  0
SEQEND
  5
122
  8
LAYER_01
  0
POLYLINE
  5
123
  8
LAYER_01
 66
     1
 10
0.0
 20
0.0
 30
0.0
 70
     1
  0
VERTEX
  5
124
  8
LAYER_01
 10
5685.959217949373
 20
1752.450645805244
 30
0.0
 42
0.0471324627350863
  0
VERTEX
  5
125
  8
LAYER_01
 10
5673.445079361085
 20
1773.577418146178
 30
0.0
 42
-0.1293937354912351
  0
VERTEX
  5
126
  8
LAYER_01
 10
5729.031905939169
 20
1920.180803880371
 30
0.0
 42
0.0108381121831275
  0
VERTEX
  5
127
  8
LAYER_01
 10
5737.995730377502
 20
1908.587832632486
 30
0.0
 42
0.1428031450838363
  0
SEQEND
  5
128
  8
LAYER_01
  0
POLYLINE
  5
129
  8
LAYER_01
 66
     1
 10
0.0
 20
0.0
 30
0.0
 70
     1
  0
VERTEX
  5
12A
  8
LAYER_01
 10
5707.820058084775
 20
537.7533008305688
 30
0.0
 42
0.0674798184382051
  0
VERTEX
  5
12B
  8
LAYER_01
 10
5661.245019840966
 20
502.3207376882854
 30
0.0
 42
0.1097637113847142
  0
VERTEX
  5
12C
  8
LAYER_01
 10
5648.014485490527
 20
600.1939695230665
 30
0.0
 42
0.0590358663479742
  0
SEQEND
  5
12D
  8
LAYER_01
  0
POLYLINE
  5
12E
  8
LAYER_01
 66
     1
 10
0.0
 20
0.0
 30
0.0
 70
     1
  0
VERTEX
  5
12F
  8
LAYER_01
 10
5767.2571305563
 20
760.1732237731336
 30
0.0
 42
-0.2731265275637558
  0
VERTEX
  5
130
  8
LAYER_01
 10
5675.396637433506
 20
988.1485811391659
 30
0.0
 42
0.0369953131709138
  0
VERTEX
  5
131
  8
LAYER_01
 10
5653.719486408753
 20
947.1229315295953
 30
0.0
 42
0.2267694128424053
  0
VERTEX
  5
132
  8
LAYER_01
 10
5754.513640334604
 20
746.008035982219
 30
0.0
 42
0.0285775721035682
  0
SEQEND
  5
133
  8
LAYER_01
  0
POLYLINE
  5
134
  8
LAYER_01
 66
     1
 10
0.0
 20
0.0
 30
0.0
 70
     1
  0
VERTEX
  5
135
  8
LAYER_01
 10
5366.360831543303
 20
1917.064068186421
 30
0.0
 42
-0.3100547191557174
  0
VERTEX
  5
136
  8
LAYER_01
 10
5402.88333306723
 20
1630.10865363114
 30
0.0
 42
-0.0368061144825166
  0
VERTEX
  5
137
  8
LAYER_01
 10
5436.007844113737
 20
1604.219355031415
 30
0.0
 42
0.048567428777928
  0
VERTEX
  5
138
  8
LAYER_01
 10
5464.45229351148
 20
1617.162701218457
 30
0.0
 42
-0.5275740273448893
  0
VERTEX
  5
139
  8
LAYER_01
 10
5531.194277337134
 20
1822.053289243626
 30
0.0
 42
0.3264116606888399
  0
SEQEND
  5
13A
  8
LAYER_01
  0
POLYLINE
  5
13B
  8
LAYER_01
 66
     1
 10
0.0
 20
0.0
 30
0.0
 70
     1
  0
VERTEX
  5
13C
  8
LAYER_01
 10
5022.433611568546
 20
1719.962008512235
 30
0.0
 42
-0.0295556406806288
  0
VERTEX
  5
13D
  8
LAYER_01
 10
4995.244402789221
 20
1703.487549998766
 30
0.0
  0
VERTEX
  5
13E
  8
LAYER_01
 10
4995.244402789222
 20
1647.632310421556
 30
0.0
 42
0.0865146462653313
  0
VERTEX
  5
13F
  8
LAYER_01
 10
5039.491363393985
 20
1592.500059620893
 30
0.0
 42
-0.0346010611158747
  0
VERTEX
  5
140
  8
LAYER_01
 10
5069.02886554146
 20
1618.769429247689
 30
0.0
 42
-0.3234320674794584
  0
SEQEND
  5
141
  8
LAYER_01
  0
POLYLINE
  5
142
  8
LAYER_01
 66
     1
 10
0.0
 20
0.0
 30
0.0
 70
     1
  0
VERTEX
  5
143
  8
LAYER_01
 10
5723.22270297886
 20
1129.266004402803
 30
0.0
 42
0.0101946876034002
  0
VERTEX
  5
144
  8
LAYER_01
 10
5732.122021225179
 20
1123.327844594624
 30
0.0
 42
0.0307814151556999
  0
VERTEX
  5
145
  8
LAYER_01
 10
5696.629799882634
 20
1095.347108910285
 30
0.0
 42
-0.0413933737472424
  0
SEQEND
  5
146
  8
LAYER_01
  0
POLYLINE
  5
147
  8
LAYER_01
 66
     1
 10
0.0
 20
0.0
 30
0.0
 70
     1
  0
VERTEX
  5
148
  8
LAYER_01
 10
5848.47965055733
 20
1819.367975234651
 30
0.0
 42
0.7849019655709082
  0
VERTEX
  5
149
  8
LAYER_01
 10
5920.1599236985
 20
1641.034101042531
 30
0.0
 42
-0.2369913581941255
  0
VERTEX
  5
14A
  8
LAYER_01
 10
5884.7715058375
 20
1803.630116514752
 30
0.0
 42
-0.0292777404136357
  0
SEQEND
  5
14B
  8
LAYER_01
  0
POLYLINE
  5
14C
  8
LAYER_01
 66
     1
 10
0.0
 20
0.0
 30
0.0
 70
     1
  0
VERTEX
  5
14D
  8
LAYER_01
 10
5752.470630940323
 20
2175.833639673346
 30
0.0
 42
-0.0792823140839527
  0
VERTEX
  5
14E
  8
LAYER_01
 10
5723.922209911103
 20
2168.919926364816
 30
0.0
 42
0.1437352087612573
  0
VERTEX
  5
14F
  8
LAYER_01
 10
5742.032917862339
 20
2011.634013341814
 30
0.0
 42
-0.0670770610152231
  0
VERTEX
  5
150
  8
LAYER_01
 10
5822.07960522436
 20
2064.915706454721
 30
0.0
 42
-0.4010826563730613
  0
SEQEND
  5
151
  8
LAYER_01
  0
POLYLINE
  5
152
  8
LAYER_01
 66
     1
 10
0.0
 20
0.0
 30
0.0
 70
     1
  0
VERTEX
  5
153
  8
LAYER_01
 10
5120.81186152923
 20
1497.220612542713
 30
0.0
 42
-0.0741015271028825
  0
VERTEX
  5
154
  8
LAYER_01
 10
5050.369080741262
 20
1524.014578717837
 30
0.0
 42
0.1739995687557505
  0
VERTEX
  5
155
  8
LAYER_01
 10
5010.876156297945
 20
1370.986318493152
 30
0.0
 42
-0.1075888982952383
  0
VERTEX
  5
156
  8
LAYER_01
 10
5092.401315449477
 20
1381.917270950963
 30
0.0
 42
-0.3521830532215991
  0
SEQEND
  5
157
  8
LAYER_01
  0
POLYLINE
  5
158
  8
LAYER_01
 66
     1
 10
0.0
 20
0.0
 30
0.0
 70
     1
  0
VERTEX
  5
159
  8
LAYER_01
 10
5311.877042018644
 20
1901.095370741865
 30
0.0
 42
0.4275339660402042
  0
VERTEX
  5
15A
  8
LAYER_01
 10
5242.829644518818
 20
1678.421292017325
 30
0.0
 42
-0.1050531986190066
  0
VERTEX
  5
15B
  8
LAYER_01
 10
5359.168316350885
 20
1654.132044658453
 30
0.0
 42
0.3409529173286594
  0
SEQEND
  5
15C
  8
LAYER_01
  0
POLYLINE
  5
15D
  8
LAYER_01
 66
     1
 10
0.0
 20
0.0
 30
0.0
 70
     1
  0
VERTEX
  5
15E
  8
LAYER_01
 10
5475.067485514732
 20
2257.336601242875
 30
0.0
 42
0.4063364523895229
  0
VERTEX
  5
15F
  8
LAYER_01
 10
5252.419900225048
 20
2255.197239837447
 30
0.0
 42
0.2023802286624968
  0
SEQEND
  5
160
  8
LAYER_01
  0
POLYLINE
  5
161
  8
LAYER_01
 66
     1
 10
0.0
 20
0.0
 30
0.0
 70
     1
  0
VERTEX
  5
162
  8
LAYER_01
 10
5239.100318971775
 20
2240.20573404627
 30
0.0
 42
0.0223978241666353
  0
VERTEX
  5
163
  8
LAYER_01
 10
5230.810327254842
 20
2228.563122239028
 30
0.0
 42
0.2185206937577162
  0
VERTEX
  5
164
  8
LAYER_01
 10
5497.184861571854
 20
2231.12264426288
 30
0.0
 42
0.0223978241668963
  0
VERTEX
  5
165
  8
LAYER_01
 10
5488.672679644078
 20
2242.603808454257
 30
0.0
 42
-0.213699210892303
  0
SEQEND
  5
166
  8
LAYER_01
  0
POLYLINE
  5
167
  8
LAYER_01
 66
     1
 10
0.0
 20
0.0
 30
0.0
 70
     1
  0
VERTEX
  5
168
  8
LAYER_01
 10
5000.262246857944
 20
2432.908313751826
 30
0.0
 42
-0.0044556019144254
  0
VERTEX
  5
169
  8
LAYER_01
 10
4995.244402789222
 20
2432.630777458055
 30
0.0
  0
VERTEX
  5
16A
  8
LAYER_01
 10
4995.244402789221
 20
2243.64708795475
 30
0.0
 42
-0.2449425586982299
  0
VERTEX
  5
16B
  8
LAYER_01
 10
5060.351071681599
 20
2302.417701234998
 30
0.0
 42
-0.0976468795338375
  0
SEQEND
  5
16C
  8
LAYER_01
  0
POLYLINE
  5
16D
  8
LAYER_01
 66
     1
 10
0.0
 20
0.0
 30
0.0
 70
     1
  0
VERTEX
  5
16E
  8
LAYER_01
 10
5551.733376814923
 20
2816.392657846196
 30
0.0
 42
0.0366076856390576
  0
VERTEX
  5
16F
  8
LAYER_01
 10
5526.413287234101
 20
2815.274098659595
 30
0.0
 42
-0.2419052791015839
  0
VERTEX
  5
170
  8
LAYER_01
 10
5697.431884986967
 20
2557.599895278091
 30
0.0
 42
0.036607685639181
  0
VERTEX
  5
171
  8
LAYER_01
 10
5708.297145993081
 20
2580.497585430237
 30
0.0
 42
0.2097402527689945
  0
SEQEND
  5
172
  8
LAYER_01
  0
POLYLINE
  5
173
  8
LAYER_01
 66
     1
 10
0.0
 20
0.0
 30
0.0
 70
     1
  0
VERTEX
  5
174
  8
LAYER_01
 10
5209.278611916156
 20
1108.6237021969
 30
0.0
 42
-0.2375093089741248
  0
VERTEX
  5
175
  8
LAYER_01
 10
4995.244402789222
 20
1251.164258959031
 30
0.0
  0
VERTEX
  5
176
  8
LAYER_01
 10
4995.244402789222
 20
1057.235078415049
 30
0.0
 42
0.4162435732654906
  0
SEQEND
  5
177
  8
LAYER_01
  0
POLYLINE
  5
178
  8
LAYER_01
 66
     1
 10
0.0
 20
0.0
 30
0.0
 70
     1
  0
VERTEX
  5
179
  8
LAYER_01
 10
5955.487152063732
 20
1607.500841530592
 30
0.0
 42
0.1180300475771057
  0
VERTEX
  5
17A
  8
LAYER_01
 10
6035.244402789222
 20
1574.470292048921
 30
0.0
  0
VERTEX
  5
17B
  8
LAYER_01
 10
6035.244402789222
 20
1550.934380203959
 30
0.0
 42
0.1120580411400069
  0
VERTEX
  5
17C
  8
LAYER_01
 10
5930.261920837972
 20
1600.629496687223
 30
0.0
 42
0.0466458414343473
  0
SEQEND
  5
17D
  8
LAYER_01
  0
POLYLINE
  5
17E
  8
LAYER_01
 66
     1
 10
0.0
 20
0.0
 30
0.0
 70
     1
  0
VERTEX
  5
17F
  8
LAYER_01
 10
5762.304059260852
 20
1939.153837102631
 30
0.0
 42
-0.0119028780261668
  0
VERTEX
  5
180
  8
LAYER_01
 10
5753.914104940386
 20
1950.714858310234
 30
0.0
 42
0.0158934327114985
  0
VERTEX
  5
181
  8
LAYER_01
 10
5741.06568375201
 20
1935.945699111498
 30
0.0
 42
0.011324838276883
  0
VERTEX
  5
182
  8
LAYER_01
 10
5749.717538805552
 20
1924.370096662059
 30
0.0
 42
-0.0165146849676178
  0
SEQEND
  5
183
  8
LAYER_01
  0
POLYLINE
  5
184
  8
LAYER_01
 66
     1
 10
0.0
 20
0.0
 30
0.0
 70
     1
  0
VERTEX
  5
185
  8
LAYER_01
 10
6035.244402789221
 20
1211.680789308377
 30
0.0
  0
VERTEX
  5
186
  8
LAYER_01
 10
6035.244402789221
 20
1385.582379793585
 30
0.0
 42
-0.2425228648237994
  0
VERTEX
  5
187
  8
LAYER_01
 10
5722.26768579082
 20
1489.674952401673
 30
0.0
 42
0.0214646104291045
  0
VERTEX
  5
188
  8
LAYER_01
 10
5710.377210246004
 20
1476.192936102725
 30
0.0
 42
-0.3612487540146603
  0
VERTEX
  5
189
  8
LAYER_01
 10
5703.589596067728
 20
1221.694194759657
 30
0.0
 42
0.0757397112782364
  0
VERTEX
  5
18A
  8
LAYER_01
 10
5747.861691003447
 20
1176.734536726826
 30
0.0
 42
-0.2731608557636424
  0
VERTEX
  5
18B
  8
LAYER_01
 10
6030.761790470031
 20
1206.395543511011
 30
0.0
 42
0.0082717506379952
  0
SEQEND
  5
18C
  8
LAYER_01
  0
POLYLINE
  5
18D
  8
LAYER_01
 66
     1
 10
0.0
 20
0.0
 30
0.0
 70
     1
  0
VERTEX
  5
18E
  8
LAYER_01
 10
5017.671498909302
 20
1332.628438875417
 30
0.0
 42
0.3225795030358318
  0
VERTEX
  5
18F
  8
LAYER_01
 10
5228.885727950925
 20
1159.006114290506
 30
0.0
 42
0.5985706699064604
  0
SEQEND
  5
190
  8
LAYER_01
  0
POLYLINE
  5
191
  8
LAYER_01
 66
     1
 10
0.0
 20
0.0
 30
0.0
 70
     1
  0
VERTEX
  5
192
  8
LAYER_01
 10
5593.423048560956
 20
703.4701975018286
 30
0.0
 42
-0.2380452089010332
  0
VERTEX
  5
193
  8
LAYER_01
 10
5639.87875702772
 20
1031.278918940369
 30
0.0
 42
0.0948704785041986
  0
VERTEX
  5
194
  8
LAYER_01
 10
5578.066992356106
 20
1020.520558326605
 30
0.0
 42
-0.4060040092933657
  0
VERTEX
  5
195
  8
LAYER_01
 10
5470.35388723808
 20
870.4689679086383
 30
0.0
 42
0.3486793743130606
  0
SEQEND
  5
196
  8
LAYER_01
  0
POLYLINE
  5
197
  8
LAYER_01
 66
     1
 10
0.0
 20
0.0
 30
0.0
 70
     1
  0
VERTEX
  5
198
  8
LAYER_01
 10
4995.244402789222
 20
399.0246091542115
 30
0.0
 42
0.2937609967137136
  0
VERTEX
  5
199
  8
LAYER_01
 10
5097.649590656807
 20
640.6402972439714
 30
0.0
 42
0.1645928078993267
  0
VERTEX
  5
19A
  8
LAYER_01
 10
4995.244402789223
 20
503.4928984014392
 30
0.0
  0
SEQEND
  5
19B
  8
LAYER_01
  0
POLYLINE
  5
19C
  8
LAYER_01
 66
     1
 10
0.0
 20
0.0
 30
0.0
 70
     1
  0
VERTEX
  5
19D
  8
LAYER_01
 10
6000.313951032212
 20
1177.960271231106
 30
0.0
 42
0.0256418686157444
  0
VERTEX
  5
19E
  8
LAYER_01
 10
6016.69537238784
 20
1191.839438449279
 30
0.0
 42
0.2593194143370212
  0
VERTEX
  5
19F
  8
LAYER_01
 10
5764.641331936717
 20
1165.412524432994
 30
0.0
 42
0.0256418686156655
  0
VERTEX
  5
1A0
  8
LAYER_01
 10
5783.545227823071
 20
1155.232889438636
 30
0.0
 42
-0.2381730312786561
  0
SEQEND
  5
1A1
  8
LAYER_01
  0
POLYLINE
  5
1A2
  8
LAYER_01
 66
     1
 10
0.0
 20
0.0
 30
0.0
 70
     1
  0
VERTEX
  5
1A3
  8
LAYER_01
 10
5810.482414436731
 20
1841.784919077581
 30
0.0
 42
0.5637716733350973
  0
VERTEX
  5
1A4
  8
LAYER_01
 10
5859.442224725499
 20
1606.527502324327
 30
0.0
 42
0.1017788439240599
  0
VERTEX
  5
1A5
  8
LAYER_01
 10
5757.151903310214
 20
1579.796592456194
 30
0.0
 42
-0.3134036453091987
  0
VERTEX
  5
1A6
  8
LAYER_01
 10
5750.814680625121
 20
1893.64344751139
 30
0.0
 42
0.0586617601460439
  0
SEQEND
  5
1A7
  8
LAYER_01
  0
POLYLINE
  5
1A8
  8
LAYER_01
 66
     1
 10
0.0
 20
0.0
 30
0.0
 70
     1
  0
VERTEX
  5
1A9
  8
LAYER_01
 10
5493.658648294459
 20
1993.989615331483
 30
0.0
 42
-0.1240038999071409
  0
VERTEX
  5
1AA
  8
LAYER_01
 10
5408.222417698431
 20
1950.616763341163
 30
0.0
 42
-0.1099373338897353
  0
VERTEX
  5
1AB
  8
LAYER_01
 10
5488.13081349165
 20
1921.943743397468
 30
0.0
 42
-0.1899202898837721
  0
SEQEND
  5
1AC
  8
LAYER_01
  0
POLYLINE
  5
1AD
  8
LAYER_01
 66
     1
 10
0.0
 20
0.0
 30
0.0
 70
     1
  0
VERTEX
  5
1AE
  8
LAYER_01
 10
5255.405575292396
 20
1659.172167081875
 30
0.0
 42
0.0305898675012898
  0
VERTEX
  5
1AF
  8
LAYER_01
 10
5268.27233213253
 20
1644.239807033664
 30
0.0
 42
-0.0753429998276849
  0
VERTEX
  5
1B0
  8
LAYER_01
 10
5341.769753089079
 20
1625.694665982408
 30
0.0
 42
0.0173318278322391
  0
VERTEX
  5
1B1
  8
LAYER_01
 10
5349.770445573648
 20
1637.503258270825
 30
0.0
 42
0.091432035130464
  0
SEQEND
  5
1B2
  8
LAYER_01
  0
POLYLINE
  5
1B3
  8
LAYER_01
 66
     1
 10
0.0
 20
0.0
 30
0.0
 70
     1
  0
VERTEX
  5
1B4
  8
LAYER_01
 10
5065.296392146056
 20
2444.85548888206
 30
0.0
 42
-0.0124178934785304
  0
VERTEX
  5
1B5
  8
LAYER_01
 10
5051.815806994388
 20
2441.061247823381
 30
0.0
 42
0.1988881525800233
  0
VERTEX
  5
1B6
  8
LAYER_01
 10
5198.254644120551
 20
2245.434114560584
 30
0.0
 42
-0.0178796891165531
  0
VERTEX
  5
1B7
  8
LAYER_01
 10
5206.077974870118
 20
2257.072242346756
 30
0.0
 42
-0.1998509131418603
  0
SEQEND
  5
1B8
  8
LAYER_01
  0
POLYLINE
  5
1B9
  8
LAYER_01
 66
     1
 10
0.0
 20
0.0
 30
0.0
 70
     1
  0
VERTEX
  5
1BA
  8
LAYER_01
 10
5646.939549318754
 20
2501.761309196744
 30
0.0
 42
0.3368505270367172
  0
VERTEX
  5
1BB
  8
LAYER_01
 10
5455.347103530063
 20
2790.434187417025
 30
0.0
 42
0.2936144404004587
  0
VERTEX
  5
1BC
  8
LAYER_01
 10
5374.776363465099
 20
2621.242417976919
 30
0.0
 42
-0.4960490764318327
  0
VERTEX
  5
1BD
  8
LAYER_01
 10
5542.323759575226
 20
2469.889570677231
 30
0.0
 42
0.1618853225229013
  0
SEQEND
  5
1BE
  8
LAYER_01
  0
POLYLINE
  5
1BF
  8
LAYER_01
 66
     1
 10
0.0
 20
0.0
 30
0.0
 70
     1
  0
VERTEX
  5
1C0
  8
LAYER_01
 10
5527.422401166531
 20
2417.615380572547
 30
0.0
 42
0.1214249274372524
  0
VERTEX
  5
1C1
  8
LAYER_01
 10
5634.444332433169
 20
2434.490388428324
 30
0.0
 42
-0.1832033110674027
  0
VERTEX
  5
1C2
  8
LAYER_01
 10
5509.050638436114
 20
2274.846947535571
 30
0.0
 42
0.4439446778554587
  0
VERTEX
  5
1C3
  8
LAYER_01
 10
5218.106548450661
 20
2272.051343188718
 30
0.0
 42
-0.2038071177950908
  0
VERTEX
  5
1C4
  8
LAYER_01
 10
5083.320641923727
 20
2451.090135645906
 30
0.0
 42
0.0958175196486295
  0
VERTEX
  5
1C5
  8
LAYER_01
 10
5174.174657862206
 20
2507.785144705403
 30
0.0
 42
0.5149143492599174
  0
VERTEX
  5
1C6
  8
LAYER_01
 10
5293.377153398856
 20
2389.632275491607
 30
0.0
 42
0.534180338100097
  0
SEQEND
  5
1C7
  8
LAYER_01
  0
POLYLINE
  5
1C8
  8
LAYER_01
 66
     1
 10
0.0
 20
0.0
 30
0.0
 70
     1
  0
VERTEX
  5
1C9
  8
LAYER_01
 10
5696.27242416878
 20
2473.249358884392
 30
0.0
 42
0.0244126765927124
  0
VERTEX
  5
1CA
  8
LAYER_01
 10
5712.121428723035
 20
2488.638028582041
 30
0.0
 42
-0.2375107815223105
  0
VERTEX
  5
1CB
  8
LAYER_01
 10
5544.996469449219
 20
2219.459491565898
 30
0.0
 42
0.0179557934485169
  0
VERTEX
  5
1CC
  8
LAYER_01
 10
5538.966890742432
 20
2232.186284479922
 30
0.0
 42
0.223315122087859
  0
SEQEND
  5
1CD
  8
LAYER_01
  0
POLYLINE
  5
1CE
  8
LAYER_01
 66
     1
 10
0.0
 20
0.0
 30
0.0
 70
     1
  0
VERTEX
  5
1CF
  8
LAYER_01
 10
5730.949951145491
 20
2774.642271645315
 30
0.0
 42
0.1094360056743733
  0
VERTEX
  5
1D0
  8
LAYER_01
 10
5658.180010332904
 20
2840.153013859038
 30
0.0
  0
VERTEX
  5
1D1
  8
LAYER_01
 10
5707.681027325117
 20
2840.153013859041
 30
0.0
 42
0.048703908670324
  0
SEQEND
  5
1D2
  8
LAYER_01
  0
POLYLINE
  5
1D3
  8
LAYER_01
 66
     1
 10
0.0
 20
0.0
 30
0.0
 70
     1
  0
VERTEX
  5
1D4
  8
LAYER_01
 10
5137.937896016997
 20
836.0362140771219
 30
0.0
 42
-0.0987426542989747
  0
VERTEX
  5
1D5
  8
LAYER_01
 10
5200.766796369268
 20
879.3144763339944
 30
0.0
 42
-0.4393717177627409
  0
VERTEX
  5
1D6
  8
LAYER_01
 10
5148.59581125773
 20
1009.710095760639
 30
0.0
 42
-0.1176594359760815
  0
VERTEX
  5
1D7
  8
LAYER_01
 10
5059.804779467384
 20
996.6069842369404
 30
0.0
 42
-0.1759240975565204
  0
SEQEND
  5
1D8
  8
LAYER_01
  0
POLYLINE
  5
1D9
  8
LAYER_01
 66
     1
 10
0.0
 20
0.0
 30
0.0
 70
     1
  0
VERTEX
  5
1DA
  8
LAYER_01
 10
5439.780396081063
 20
808.8847098701808
 30
0.0
 42
0.2270738373469826
  0
VERTEX
  5
1DB
  8
LAYER_01
 10
5294.670099033073
 20
894.4701429735943
 30
0.0
 42
0.1612060372341747
  0
VERTEX
  5
1DC
  8
LAYER_01
 10
5326.947106519981
 20
944.9537731320842
 30
0.0
 42
0.2612844562218503
  0
VERTEX
  5
1DD
  8
LAYER_01
 10
5432.151682906357
 20
869.2423152201695
 30
0.0
 42
0.0746158941625858
  0
SEQEND
  5
1DE
  8
LAYER_01
  0
POLYLINE
  5
1DF
  8
LAYER_01
 66
     1
 10
0.0
 20
0.0
 30
0.0
 70
     1
  0
VERTEX
  5
1E0
  8
LAYER_01
 10
5740.293891934321
 20
1570.696575112018
 30
0.0
 42
0.0133651549778802
  0
VERTEX
  5
1E1
  8
LAYER_01
 10
5728.398178945265
 20
1563.26795532988
 30
0.0
 42
-0.0741177226142778
  0
VERTEX
  5
1E2
  8
LAYER_01
 10
5687.410800537131
 20
1644.306422437945
 30
0.0
 42
0.0471324627350771
  0
VERTEX
  5
1E3
  8
LAYER_01
 10
5695.124018151089
 20
1667.618446120848
 30
0.0
 42
0.0916919685096268
  0
SEQEND
  5
1E4
  8
LAYER_01
  0
POLYLINE
  5
1E5
  8
LAYER_01
 66
     1
 10
0.0
 20
0.0
 30
0.0
 70
     1
  0
VERTEX
  5
1E6
  8
LAYER_01
 10
6035.244402789221
 20
1404.825317076087
 30
0.0
  0
VERTEX
  5
1E7
  8
LAYER_01
 10
6035.244402789222
 20
1419.022770968681
 30
0.0
 42
-0.2454230155091507
  0
VERTEX
  5
1E8
  8
LAYER_01
 10
5746.973496856792
 20
1511.614739673595
 30
0.0
 42
0.0167907583178888
  0
VERTEX
  5
1E9
  8
LAYER_01
 10
5736.044326859634
 20
1502.762353033774
 30
0.0
 42
0.2446185454452045
  0
SEQEND
  5
1EA
  8
LAYER_01
  0
POLYLINE
  5
1EB
  8
LAYER_01
 66
     1
 10
0.0
 20
0.0
 30
0.0
 70
     1
  0
VERTEX
  5
1EC
  8
LAYER_01
 10
6035.24440278922
 20
1438.320137712522
 30
0.0
  0
VERTEX
  5
1ED
  8
LAYER_01
 10
6035.244402789222
 20
1452.56448944951
 30
0.0
 42
-0.2441244768050638
  0
VERTEX
  5
1EE
  8
LAYER_01
 10
5775.535788200991
 20
1529.775006277202
 30
0.0
 42
0.0173718556418877
  0
VERTEX
  5
1EF
  8
LAYER_01
 10
5762.909569492786
 20
1522.542412483839
 30
0.0
 42
0.2453037637048651
  0
SEQEND
  5
1F0
  8
LAYER_01
  0
POLYLINE
  5
1F1
  8
LAYER_01
 66
     1
 10
0.0
 20
0.0
 30
0.0
 70
     1
  0
VERTEX
  5
1F2
  8
LAYER_01
 10
5687.141891158624
 20
1440.586042295425
 30
0.0
 42
0.228790289717831
  0
VERTEX
  5
1F3
  8
LAYER_01
 10
5682.285267637264
 20
1258.488984198156
 30
0.0
 42
0.3136395551466983
  0
SEQEND
  5
1F4
  8
LAYER_01
  0
POLYLINE
  5
1F5
  8
LAYER_01
 66
     1
 10
0.0
 20
0.0
 30
0.0
 70
     1
  0
VERTEX
  5
1F6
  8
LAYER_01
 10
5263.805484134068
 20
1140.317625295007
 30
0.0
 42
-0.0193718592365084
  0
VERTEX
  5
1F7
  8
LAYER_01
 10
5259.460203544138
 20
1125.985726084833
 30
0.0
 42
0.1770789655625799
  0
VERTEX
  5
1F8
  8
LAYER_01
 10
5427.666245909958
 20
1198.911804260031
 30
0.0
 42
-0.0176526931259058
  0
VERTEX
  5
1F9
  8
LAYER_01
 10
5417.108514488505
 20
1208.19691142297
 30
0.0
 42
-0.1705233612941898
  0
SEQEND
  5
1FA
  8
LAYER_01
  0
POLYLINE
  5
1FB
  8
LAYER_01
 66
     1
 10
0.0
 20
0.0
 30
0.0
 70
     1
  0
VERTEX
  5
1FC
  8
LAYER_01
 10
6035.244402789222
 20
742.5638638169703
 30
0.0
  0
VERTEX
  5
1FD
  8
LAYER_01
 10
6035.244402789222
 20
720.8884327873926
 30
0.0
 42
-0.2534760382892708
  0
VERTEX
  5
1FE
  8
LAYER_01
 10
5786.84916290848
 20
724.556691949694
 30
0.0
 42
0.0236602191762078
  0
VERTEX
  5
1FF
  8
LAYER_01
 10
5799.399480111235
 20
739.3342868176793
 30
0.0
 42
0.2604541939609745
  0
SEQEND
  5
200
  8
LAYER_01
  0
POLYLINE
  5
201
  8
LAYER_01
 66
     1
 10
0.0
 20
0.0
 30
0.0
 70
     1
  0
VERTEX
  5
202
  8
LAYER_01
 10
5725.555718181493
 20
1049.368133070451
 30
0.0
 42
-0.0630439933562969
  0
VERTEX
  5
203
  8
LAYER_01
 10
5789.184474453077
 20
1095.964803276074
 30
0.0
 42
0.0466119001096456
  0
VERTEX
  5
204
  8
LAYER_01
 10
5836.679181948275
 20
1084.689241519726
 30
0.0
 42
0.1819198999407536
  0
VERTEX
  5
205
  8
LAYER_01
 10
5794.785569503706
 20
995.3949323829934
 30
0.0
 42
0.1083238444671632
  0
SEQEND
  5
206
  8
LAYER_01
  0
POLYLINE
  5
207
  8
LAYER_01
 66
     1
 10
0.0
 20
0.0
 30
0.0
 70
     1
  0
VERTEX
  5
208
  8
LAYER_01
 10
5707.967464722149
 20
1140.747844558894
 30
0.0
 42
0.0782430546970333
  0
VERTEX
  5
209
  8
LAYER_01
 10
5659.94873651519
 20
1068.171517676632
 30
0.0
 42
0.1156846955513951
  0
VERTEX
  5
20A
  8
LAYER_01
 10
5567.009264289604
 20
1057.107984344681
 30
0.0
 42
0.7485496499463639
  0
VERTEX
  5
20B
  8
LAYER_01
 10
5315.731893191765
 20
1018.461890749354
 30
0.0
 42
0.2920752584566136
  0
VERTEX
  5
20C
  8
LAYER_01
 10
5223.339337998306
 20
1063.144314937981
 30
0.0
 42
0.0673437555619319
  0
VERTEX
  5
20D
  8
LAYER_01
 10
5251.568399995564
 20
1106.632621748099
 30
0.0
 42
0.1882274253014772
  0
VERTEX
  5
20E
  8
LAYER_01
 10
5443.149582051176
 20
1187.440082566787
 30
0.0
 42
0.3018838851597728
  0
VERTEX
  5
20F
  8
LAYER_01
 10
5663.576473711533
 20
1186.801801805075
 30
0.0
 42
0.0611741001842135
  0
SEQEND
  5
210
  8
LAYER_01
  0
POLYLINE
  5
211
  8
LAYER_01
 66
     1
 10
0.0
 20
0.0
 30
0.0
 70
     1
  0
VERTEX
  5
212
  8
LAYER_01
 10
6035.244402789222
 20
1940.662382731094
 30
0.0
  0
VERTEX
  5
213
  8
LAYER_01
 10
6035.244402789221
 20
2010.620214692904
 30
0.0
 42
0.2491280454610341
  0
VERTEX
  5
214
  8
LAYER_01
 10
5787.634447945997
 20
1938.046991574197
 30
0.0
 42
0.1312338137778687
  0
VERTEX
  5
215
  8
LAYER_01
 10
5907.30910269701
 20
1856.098627590405
 30
0.0
 42
-0.2164896798621626
  0
SEQEND
  5
216
  8
LAYER_01
  0
POLYLINE
  5
217
  8
LAYER_01
 66
     1
 10
0.0
 20
0.0
 30
0.0
 70
     1
  0
VERTEX
  5
218
  8
LAYER_01
 10
4995.244402789223
 20
1533.786817831322
 30
0.0
 42
-0.020792125197619
  0
VERTEX
  5
219
  8
LAYER_01
 10
5007.840824972107
 20
1553.946597771572
 30
0.0
 42
-0.0168201701042036
  0
VERTEX
  5
21A
  8
LAYER_01
 10
4995.244402789222
 20
1565.65322418035
 30
0.0
  0
SEQEND
  5
21B
  8
LAYER_01
  0
POLYLINE
  5
21C
  8
LAYER_01
 66
     1
 10
0.0
 20
0.0
 30
0.0
 70
     1
  0
VERTEX
  5
21D
  8
LAYER_01
 10
5089.406286685169
 20
1610.22048503922
 30
0.0
 42
0.0533808431191001
  0
VERTEX
  5
21E
  8
LAYER_01
 10
5109.352493191214
 20
1606.711389172342
 30
0.0
 42
0.0545345207601044
  0
VERTEX
  5
21F
  8
LAYER_01
 10
5066.215058442073
 20
1572.569213363983
 30
0.0
 42
-0.0173318278323122
  0
VERTEX
  5
220
  8
LAYER_01
 10
5054.39773154585
 20
1580.556998857749
 30
0.0
 42
-0.0430524795954368
  0
SEQEND
  5
221
  8
LAYER_01
  0
POLYLINE
  5
222
  8
LAYER_01
 66
     1
 10
0.0
 20
0.0
 30
0.0
 70
     1
  0
VERTEX
  5
223
  8
LAYER_01
 10
5992.60128864913
 20
380.1530138590397
 30
0.0
 42
0.1135157899872588
  0
VERTEX
  5
224
  8
LAYER_01
 10
5960.847879432014
 20
454.4501434844442
 30
0.0
 42
-0.1581114594225869
  0
VERTEX
  5
225
  8
LAYER_01
 10
5741.806239943982
 20
512.8861573128338
 30
0.0
 42
0.248308705404857
  0
VERTEX
  5
226
  8
LAYER_01
 10
5637.810224882865
 20
380.1530138590401
 30
0.0
  0
SEQEND
  5
227
  8
LAYER_01
  0
POLYLINE
  5
228
  8
LAYER_01
 66
     1
 10
0.0
 20
0.0
 30
0.0
 70
     1
  0
VERTEX
  5
229
  8
LAYER_01
 10
5214.988006534187
 20
460.7688184942934
 30
0.0
 42
0.2588929408698191
  0
VERTEX
  5
22A
  8
LAYER_01
 10
5115.861310381107
 20
462.0820771562564
 30
0.0
 42
0.0850686495087359
  0
VERTEX
  5
22B
  8
LAYER_01
 10
5146.923132403183
 20
555.5937258088072
 30
0.0
 42
0.090965355312587
  0
VERTEX
  5
22C
  8
LAYER_01
 10
5206.760934416119
 20
518.5314646427424
 30
0.0
 42
0.0643373922497601
  0
SEQEND
  5
22D
  8
LAYER_01
  0
POLYLINE
  5
22E
  8
LAYER_01
 66
     1
 10
0.0
 20
0.0
 30
0.0
 70
     1
  0
VERTEX
  5
22F
  8
LAYER_01
 10
6030.655904050083
 20
380.1530138590401
 30
0.0
 42
0.0970197626174597
  0
VERTEX
  5
230
  8
LAYER_01
 10
6002.704338301067
 20
459.0839577925497
 30
0.0
 42
0.0226644201108623
  0
VERTEX
  5
231
  8
LAYER_01
 10
6035.244402789223
 20
466.1190079592105
 30
0.0
  0
VERTEX
  5
232
  8
LAYER_01
 10
6035.244402789222
 20
380.15301385904
 30
0.0
  0
SEQEND
  5
233
  8
LAYER_01
  0
POLYLINE
  5
234
  8
LAYER_01
 66
     1
 10
0.0
 20
0.0
 30
0.0
 70
     1
  0
VERTEX
  5
235
  8
LAYER_01
 10
5050.86099567173
 20
380.15301385904
 30
0.0
 42
0.0156022102735211
  0
VERTEX
  5
236
  8
LAYER_01
 10
5064.16352258744
 20
392.5718778184964
 30
0.0
 42
0.0307247275239212
  0
VERTEX
  5
237
  8
LAYER_01
 10
5062.411431243992
 20
380.1530138590398
 30
0.0
  0
SEQEND
  5
238
  8
LAYER_01
  0
POLYLINE
  5
239
  8
LAYER_01
 66
     1
 10
0.0
 20
0.0
 30
0.0
 70
     1
  0
VERTEX
  5
23A
  8
LAYER_01
 10
5743.325729361435
 20
1967.18571864502
 30
0.0
 42
0.0151644687267994
  0
VERTEX
  5
23B
  8
LAYER_01
 10
5730.066877691933
 20
1952.43941003564
 30
0.0
 42
-0.0115876551973294
  0
VERTEX
  5
23C
  8
LAYER_01
 10
5722.542126382979
 20
1965.168538424328
 30
0.0
 42
-0.0147003214182159
  0
VERTEX
  5
23D
  8
LAYER_01
 10
5736.143069636435
 20
1979.895801191196
 30
0.0
 42
0.0121651422813177
  0
SEQEND
  5
23E
  8
LAYER_01
  0
POLYLINE
  5
23F
  8
LAYER_01
 66
     1
 10
0.0
 20
0.0
 30
0.0
 70
     1
  0
VERTEX
  5
240
  8
LAYER_01
 10
5712.947214257489
 20
1552.210107268818
 30
0.0
 42
0.013370907724374
  0
VERTEX
  5
241
  8
LAYER_01
 10
5702.073760206929
 20
1543.34276965293
 30
0.0
 42
-0.0558608349844073
  0
VERTEX
  5
242
  8
LAYER_01
 10
5665.146806776304
 20
1609.719592956038
 30
0.0
 42
0.030893871466681
  0
VERTEX
  5
243
  8
LAYER_01
 10
5675.133894890557
 20
1622.367243471404
 30
0.0
 42
0.0611596273880918
  0
SEQEND
  5
244
  8
LAYER_01
  0
POLYLINE
  5
245
  8
LAYER_01
 66
     1
 10
0.0
 20
0.0
 30
0.0
 70
     1
  0
VERTEX
  5
246
  8
LAYER_01
 10
4995.244402789222
 20
1295.193104489171
 30
0.0
 42
0.28309724688692
  0
VERTEX
  5
247
  8
LAYER_01
 10
5218.707586959499
 20
1126.713220792187
 30
0.0
 42
0.0234994762942819
  0
VERTEX
  5
248
  8
LAYER_01
 10
5223.945756336619
 20
1140.31114754449
 30
0.0
 42
-0.314446581125597
  0
VERTEX
  5
249
  8
LAYER_01
 10
5000.285910456438
 20
1324.164018320387
 30
0.0
 42
0.0094426968942289
  0
VERTEX
  5
24A
  8
LAYER_01
 10
4995.244402789221
 20
1321.180638848953
 30
0.0
  0
SEQEND
  5
24B
  8
LAYER_01
  0
POLYLINE
  5
24C
  8
LAYER_01
 66
     1
 10
0.0
 20
0.0
 30
0.0
 70
     1
  0
VERTEX
  5
24D
  8
LAYER_01
 10
5772.680119127464
 20
710.78466884536
 30
0.0
 42
0.2494611088237831
  0
VERTEX
  5
24E
  8
LAYER_01
 10
6035.244402789222
 20
699.6439167320364
 30
0.0
  0
VERTEX
  5
24F
  8
LAYER_01
 10
6035.244402789222
 20
521.7127330295596
 30
0.0
 42
-0.3489739002603913
  0
VERTEX
  5
250
  8
LAYER_01
 10
5670.700277492274
 20
662.2877834263334
 30
0.0
 42
0.1404482528344189
  0
SEQEND
  5
251
  8
LAYER_01
  0
POLYLINE
  5
252
  8
LAYER_01
 66
     1
 10
0.0
 20
0.0
 30
0.0
 70
     1
  0
VERTEX
  5
253
  8
LAYER_01
 10
6035.244402789221
 20
2063.534535289511
 30
0.0
  0
VERTEX
  5
254
  8
LAYER_01
 10
6035.244402789222
 20
2077.731989182104
 30
0.0
 42
0.2291721283634705
  0
VERTEX
  5
255
  8
LAYER_01
 10
5750.406881774014
 20
1993.635777923261
 30
0.0
 42
0.01284250247794
  0
VERTEX
  5
256
  8
LAYER_01
 10
5757.283226176657
 20
1980.942749387366
 30
0.0
 42
-0.2338106543131249
  0
SEQEND
  5
257
  8
LAYER_01
  0
POLYLINE
  5
258
  8
LAYER_01
 66
     1
 10
0.0
 20
0.0
 30
0.0
 70
     1
  0
VERTEX
  5
259
  8
LAYER_01
 10
5686.190660199176
 20
2173.703482629312
 30
0.0
 42
0.0512066049140634
  0
VERTEX
  5
25A
  8
LAYER_01
 10
5704.733555036319
 20
2169.376358794249
 30
0.0
 42
0.1472011595851795
  0
VERTEX
  5
25B
  8
LAYER_01
 10
5727.289375051845
 20
1997.920745465719
 30
0.0
 42
0.0141565474790413
  0
VERTEX
  5
25C
  8
LAYER_01
 10
5713.170038799523
 20
1983.222344067793
 30
0.0
 42
-0.1543290156914832
  0
SEQEND
  5
25D
  8
LAYER_01
  0
POLYLINE
  5
25E
  8
LAYER_01
 66
     1
 10
0.0
 20
0.0
 30
0.0
 70
     1
  0
VERTEX
  5
25F
  8
LAYER_01
 10
5551.218536653082
 20
1857.439638589008
 30
0.0
 42
-0.0430125335588917
  0
VERTEX
  5
260
  8
LAYER_01
 10
5565.974806183889
 20
1827.303482426737
 30
0.0
 42
-0.1217449217065707
  0
VERTEX
  5
261
  8
LAYER_01
 10
5626.997861016073
 20
1813.168367550747
 30
0.0
 42
-0.0452885088803133
  0
VERTEX
  5
262
  8
LAYER_01
 10
5645.705483170595
 20
1875.503606265329
 30
0.0
 42
-0.2606183929038091
  0
SEQEND
  5
263
  8
LAYER_01
  0
POLYLINE
  5
264
  8
LAYER_01
 66
     1
 10
0.0
 20
0.0
 30
0.0
 70
     1
  0
VERTEX
  5
265
  8
LAYER_01
 10
5238.256286269865
 20
1626.356542207285
 30
0.0
 42
0.1848453431049008
  0
VERTEX
  5
266
  8
LAYER_01
 10
5083.517209861441
 20
1562.856767942265
 30
0.0
 42
0.2818588160737769
  0
VERTEX
  5
267
  8
LAYER_01
 10
5297.675972304189
 20
1581.358026285841
 30
0.0
 42
-0.0962508488226883
  0
SEQEND
  5
268
  8
LAYER_01
  0
POLYLINE
  5
269
  8
LAYER_01
 66
     1
 10
0.0
 20
0.0
 30
0.0
 70
     1
  0
VERTEX
  5
26A
  8
LAYER_01
 10
5281.595285253337
 20
1923.31529018397
 30
0.0
 42
0.1824110312277218
  0
VERTEX
  5
26B
  8
LAYER_01
 10
5138.634381600454
 20
1949.448473990995
 30
0.0
 42
-0.1530763449121926
  0
VERTEX
  5
26C
  8
LAYER_01
 10
5095.019788294234
 20
1794.443696505799
 30
0.0
 42
-0.2794165169977484
  0
VERTEX
  5
26D
  8
LAYER_01
 10
5188.468626802056
 20
1762.950880660448
 30
0.0
 42
-0.2523864622863732
  0
SEQEND
  5
26E
  8
LAYER_01
  0
POLYLINE
  5
26F
  8
LAYER_01
 66
     1
 10
0.0
 20
0.0
 30
0.0
 70
     1
  0
VERTEX
  5
270
  8
LAYER_01
 10
5455.313160189176
 20
2195.075182680635
 30
0.0
 42
-0.0620246770252008
  0
VERTEX
  5
271
  8
LAYER_01
 10
5477.734242914204
 20
2187.551762360817
 30
0.0
 42
0.0268684903755538
  0
VERTEX
  5
272
  8
LAYER_01
 10
5512.718590453454
 20
2201.965530796618
 30
0.0
 42
0.0219415788004923
  0
VERTEX
  5
273
  8
LAYER_01
 10
5506.885444763501
 20
2214.694211183235
 30
0.0
 42
-0.0408421947995165
  0
SEQEND
  5
274
  8
LAYER_01
  0
POLYLINE
  5
275
  8
LAYER_01
 66
     1
 10
0.0
 20
0.0
 30
0.0
 70
     1
  0
VERTEX
  5
276
  8
LAYER_01
 10
5033.246356876838
 20
2436.990333321821
 30
0.0
 42
-0.0124633709039545
  0
VERTEX
  5
277
  8
LAYER_01
 10
5019.363964503787
 20
2434.790263939447
 30
0.0
 42
0.2018850118260663
  0
VERTEX
  5
278
  8
LAYER_01
 10
5183.231662810284
 20
2215.983389796553
 30
0.0
 42
-0.0179557934485376
  0
VERTEX
  5
279
  8
LAYER_01
 10
5189.01557407033
 20
2228.823695392362
 30
0.0
 42
-0.1997945594516711
  0
SEQEND
  5
27A
  8
LAYER_01
  0
POLYLINE
  5
27B
  8
LAYER_01
 66
     1
 10
0.0
 20
0.0
 30
0.0
 70
     1
  0
VERTEX
  5
27C
  8
LAYER_01
 10
5484.827637321278
 20
2425.413606418223
 30
0.0
 42
-0.4528803447538656
  0
VERTEX
  5
27D
  8
LAYER_01
 10
5334.151698027044
 20
2406.158534416886
 30
0.0
 42
0.24716988173279
  0
VERTEX
  5
27E
  8
LAYER_01
 10
5379.024834723807
 20
2491.090944186429
 30
0.0
 42
0.1402422522741294
  0
SEQEND
  5
27F
  8
LAYER_01
  0
POLYLINE
  5
280
  8
LAYER_01
 66
     1
 10
0.0
 20
0.0
 30
0.0
 70
     1
  0
VERTEX
  5
281
  8
LAYER_01
 10
5755.387081695905
 20
2730.831578705623
 30
0.0
 42
0.06870747146766
  0
VERTEX
  5
282
  8
LAYER_01
 10
5819.623009128394
 20
2657.025739350612
 30
0.0
 42
0.0709782078627984
  0
VERTEX
  5
283
  8
LAYER_01
 10
5771.783654035447
 20
2619.154740520826
 30
0.0
 42
0.1266638012429889
  0
SEQEND
  5
284
  8
LAYER_01
  0
POLYLINE
  5
285
  8
LAYER_01
 66
     1
 10
0.0
 20
0.0
 30
0.0
 70
     1
  0
VERTEX
  5
286
  8
LAYER_01
 10
6035.244402789224
 20
2627.336849814594
 30
0.0
 42
-0.3129785212064243
  0
VERTEX
  5
287
  8
LAYER_01
 10
5767.65036226586
 20
2840.15301385904
 30
0.0
  0
VERTEX
  5
288
  8
LAYER_01
 10
6035.244402789222
 20
2840.15301385904
 30
0.0
  0
SEQEND
  5
289
  8
LAYER_01
  0
POLYLINE
  5
28A
  8
LAYER_01
 66
     1
 10
0.0
 20
0.0
 30
0.0
 70
     1
  0
VERTEX
  5
28B
  8
LAYER_01
 10
4965.244402789222
 20
350.15301385904
 30
0.0
  0
VERTEX
  5
28C
  8
LAYER_01
 10
6065.244402789222
 20
350.15301385904
 30
0.0
  0
VERTEX
  5
28D
  8
LAYER_01
 10
6065.244402789222
 20
2870.15301385904
 30
0.0
  0
VERTEX
  5
28E
  8
LAYER_01
 10
4965.244402789222
 20
2870.15301385904
 30
0.0
  0
SEQEND
  5
28F
  8
LAYER_01
  0
ENDSEC
  0
EOF
