  0
SECTION
  2
HEADER
  9
$ACADVER
  1
AC1009
  9
$EXTMIN
 10
0.00000000
 20
0.00000000
 30
0.0
  9
$EXTMAX
 10
1152.36079789
 20
1152.36079789
 30
0.0
  0
ENDSEC
  0
SECTION
  2
TABLES
  0
TABLE
  2
LAYER
 70
1
 0
LAYER
 2
Default_Layer
 70
0
 62
1
 6
CONTINUOUS
 0
ENDTAB
 0
ENDSEC
  0
SECTION
  2
ENTITIES
  0
POLYLINE
  8
Default_Layer
 66
   1
 39
0.000000
 70
    0
  0
VERTEX
  8
0
 10
1132.36079789
 20
556.40395434
 42
-0.41421356
  0
VERTEX
  8
0
 10
1112.58435328
 20
576.18039894
 42
-0.41421356
  0
VERTEX
  8
0
 10
1132.36079789
 20
595.95684355
  0
SEQEND
  0
POLYLINE
  8
Default_Layer
 66
   1
 39
0.000000
 70
    0
  0
VERTEX
  8
0
 10
556.40395434
 20
20.00000000
 42
-0.41421356
  0
VERTEX
  8
0
 10
576.18039894
 20
39.77644461
 42
-0.41421356
  0
VERTEX
  8
0
 10
595.95684355
 20
20.00000000
  0
SEQEND
  0
POLYLINE
  8
Default_Layer
 66
   1
 39
0.000000
 70
    0
  0
VERTEX
  8
0
 10
595.95684355
 20
1132.36079789
 42
-0.41421356
  0
VERTEX
  8
0
 10
576.18039894
 20
1112.58435328
 42
-0.41421356
  0
VERTEX
  8
0
 10
556.40395434
 20
1132.36079789
  0
SEQEND
  0
POLYLINE
  8
Default_Layer
 66
   1
 39
0.000000
 70
    0
  0
VERTEX
  8
0
 10
20.00000000
 20
556.40395434
 42
-0.41421356
  0
VERTEX
  8
0
 10
0.22355539
 20
576.18039894
 42
-0.41421356
  0
VERTEX
  8
0
 10
20.00000000
 20
595.95684355
  0
SEQEND
  0
POLYLINE
  8
Default_Layer
 66
   1
 39
0.000000
 70
    0
  0
VERTEX
  8
0
 10
864.27059841
 20
20.00000000
  0
VERTEX
  8
0
 10
864.27059841
 20
52.49941570
  0
VERTEX
  8
0
 10
909.83747640
 20
52.49941570
  0
VERTEX
  8
0
 10
942.33689210
 20
20.00000000
  0
SEQEND
  0
POLYLINE
  8
Default_Layer
 66
   1
 39
0.000000
 70
    0
  0
VERTEX
  8
0
 10
1132.36079789
 20
210.02390579
  0
VERTEX
  8
0
 10
1099.86138219
 20
242.52332149
  0
VERTEX
  8
0
 10
1099.86138219
 20
288.09019947
  0
VERTEX
  8
0
 10
1132.36079789
 20
288.09019947
  0
SEQEND
  0
POLYLINE
  8
Default_Layer
 66
   1
 39
0.000000
 70
    0
  0
VERTEX
  8
0
 10
1132.36079789
 20
181.73963454
  0
VERTEX
  8
0
 10
1092.64202436
 20
142.02086102
  0
VERTEX
  8
0
 10
1126.86670080
 20
59.39518299
 42
-0.03465571
  0
VERTEX
  8
0
 10
1132.36079789
 20
59.77644461
  0
SEQEND
  0
POLYLINE
  8
Default_Layer
 66
   1
 39
0.000000
 70
    0
  0
VERTEX
  8
0
 10
970.62116334
 20
20.00000000
  0
VERTEX
  8
0
 10
1010.33993687
 20
59.71877352
  0
VERTEX
  8
0
 10
1092.96561490
 20
25.49409708
 42
0.03465571
  0
VERTEX
  8
0
 10
1092.58435328
 20
20.00000000
  0
SEQEND
  0
POLYLINE
  8
Default_Layer
 66
   1
 39
0.000000
 70
    0
  0
VERTEX
  8
0
 10
844.27059841
 20
20.00000000
  0
VERTEX
  8
0
 10
844.27059841
 20
52.49941570
  0
VERTEX
  8
0
 10
798.70372043
 20
52.49941570
  0
VERTEX
  8
0
 10
766.20430473
 20
20.00000000
  0
SEQEND
  0
POLYLINE
  8
Default_Layer
 66
   1
 39
0.000000
 70
    0
  0
VERTEX
  8
0
 10
737.92003349
 20
20.00000000
  0
VERTEX
  8
0
 10
698.20125996
 20
59.71877352
  0
VERTEX
  8
0
 10
615.57558193
 20
25.49409708
 42
-0.03465571
  0
VERTEX
  8
0
 10
615.95684355
 20
20.00000000
  0
SEQEND
  0
POLYLINE
  8
Default_Layer
 66
   1
 39
0.000000
 70
    0
  0
VERTEX
  8
0
 10
1132.36079789
 20
386.15649315
  0
VERTEX
  8
0
 10
1099.86138219
 20
353.65707746
  0
VERTEX
  8
0
 10
1099.86138219
 20
308.09019947
  0
VERTEX
  8
0
 10
1132.36079789
 20
308.09019947
  0
SEQEND
  0
POLYLINE
  8
Default_Layer
 66
   1
 39
0.000000
 70
    0
  0
VERTEX
  8
0
 10
1132.36079789
 20
414.44076440
  0
VERTEX
  8
0
 10
1092.64202436
 20
454.15953792
  0
VERTEX
  8
0
 10
1126.86670080
 20
536.78521595
 42
0.03465571
  0
VERTEX
  8
0
 10
1132.36079789
 20
536.40395434
  0
SEQEND
  0
POLYLINE
  8
Default_Layer
 66
   1
 39
0.000000
 70
    0
  0
VERTEX
  8
0
 10
1112.58435328
 20
20.00000000
 42
-0.41421356
  0
VERTEX
  8
0
 10
1132.36079789
 20
39.77644461
  0
SEQEND
  0
POLYLINE
  8
Default_Layer
 66
   1
 39
0.000000
 70
    0
  0
VERTEX
  8
0
 10
288.09019947
 20
20.00000000
  0
VERTEX
  8
0
 10
288.09019947
 20
52.49941570
  0
VERTEX
  8
0
 10
242.52332149
 20
52.49941570
  0
VERTEX
  8
0
 10
210.02390579
 20
20.00000000
  0
SEQEND
  0
POLYLINE
  8
Default_Layer
 66
   1
 39
0.000000
 70
    0
  0
VERTEX
  8
0
 10
20.00000000
 20
210.02390579
  0
VERTEX
  8
0
 10
52.49941570
 20
242.52332149
  0
VERTEX
  8
0
 10
52.49941570
 20
288.09019947
  0
VERTEX
  8
0
 10
20.00000000
 20
288.09019947
  0
SEQEND
  0
POLYLINE
  8
Default_Layer
 66
   1
 39
0.000000
 70
    0
  0
VERTEX
  8
0
 10
20.00000000
 20
181.73963454
  0
VERTEX
  8
0
 10
59.71877352
 20
142.02086102
  0
VERTEX
  8
0
 10
25.49409708
 20
59.39518299
 42
0.03465571
  0
VERTEX
  8
0
 10
20.00000000
 20
59.77644461
  0
SEQEND
  0
POLYLINE
  8
Default_Layer
 66
   1
 39
0.000000
 70
    0
  0
VERTEX
  8
0
 10
181.73963454
 20
20.00000000
  0
VERTEX
  8
0
 10
142.02086102
 20
59.71877352
  0
VERTEX
  8
0
 10
59.39518299
 20
25.49409708
 42
-0.03465571
  0
VERTEX
  8
0
 10
59.77644461
 20
20.00000000
  0
SEQEND
  0
POLYLINE
  8
Default_Layer
 66
   1
 39
0.000000
 70
    0
  0
VERTEX
  8
0
 10
308.09019947
 20
20.00000000
  0
VERTEX
  8
0
 10
308.09019947
 20
52.49941570
  0
VERTEX
  8
0
 10
353.65707746
 20
52.49941570
  0
VERTEX
  8
0
 10
386.15649315
 20
20.00000000
  0
SEQEND
  0
POLYLINE
  8
Default_Layer
 66
   1
 39
0.000000
 70
    0
  0
VERTEX
  8
0
 10
414.44076440
 20
20.00000000
  0
VERTEX
  8
0
 10
454.15953792
 20
59.71877352
  0
VERTEX
  8
0
 10
536.78521595
 20
25.49409708
 42
0.03465571
  0
VERTEX
  8
0
 10
536.40395434
 20
20.00000000
  0
SEQEND
  0
POLYLINE
  8
Default_Layer
 66
   1
 39
0.000000
 70
    0
  0
VERTEX
  8
0
 10
20.00000000
 20
386.15649315
  0
VERTEX
  8
0
 10
52.49941570
 20
353.65707746
  0
VERTEX
  8
0
 10
52.49941570
 20
308.09019947
  0
VERTEX
  8
0
 10
20.00000000
 20
308.09019947
  0
SEQEND
  0
POLYLINE
  8
Default_Layer
 66
   1
 39
0.000000
 70
    0
  0
VERTEX
  8
0
 10
20.00000000
 20
414.44076440
  0
VERTEX
  8
0
 10
59.71877352
 20
454.15953792
  0
VERTEX
  8
0
 10
25.49409708
 20
536.78521595
 42
-0.03465571
  0
VERTEX
  8
0
 10
20.00000000
 20
536.40395434
  0
SEQEND
  0
POLYLINE
  8
Default_Layer
 66
   1
 39
0.000000
 70
    0
  0
VERTEX
  8
0
 10
0.22355539
 20
20.00000000
 42
-0.41421356
  0
VERTEX
  8
0
 10
20.00000000
 20
39.77644461
  0
SEQEND
  0
POLYLINE
  8
Default_Layer
 66
   1
 39
0.000000
 70
    0
  0
VERTEX
  8
0
 10
864.27059841
 20
1132.36079789
  0
VERTEX
  8
0
 10
864.27059841
 20
1099.86138219
  0
VERTEX
  8
0
 10
909.83747640
 20
1099.86138219
  0
VERTEX
  8
0
 10
942.33689210
 20
1132.36079789
  0
SEQEND
  0
POLYLINE
  8
Default_Layer
 66
   1
 39
0.000000
 70
    0
  0
VERTEX
  8
0
 10
1132.36079789
 20
942.33689210
  0
VERTEX
  8
0
 10
1099.86138219
 20
909.83747640
  0
VERTEX
  8
0
 10
1099.86138219
 20
864.27059841
  0
VERTEX
  8
0
 10
1132.36079789
 20
864.27059841
  0
SEQEND
  0
POLYLINE
  8
Default_Layer
 66
   1
 39
0.000000
 70
    0
  0
VERTEX
  8
0
 10
1132.36079789
 20
970.62116334
  0
VERTEX
  8
0
 10
1092.64202436
 20
1010.33993687
  0
VERTEX
  8
0
 10
1126.86670080
 20
1092.96561490
 42
0.03465571
  0
VERTEX
  8
0
 10
1132.36079789
 20
1092.58435328
  0
SEQEND
  0
POLYLINE
  8
Default_Layer
 66
   1
 39
0.000000
 70
    0
  0
VERTEX
  8
0
 10
970.62116334
 20
1132.36079789
  0
VERTEX
  8
0
 10
1010.33993687
 20
1092.64202436
  0
VERTEX
  8
0
 10
1092.96561490
 20
1126.86670080
 42
-0.03465571
  0
VERTEX
  8
0
 10
1092.58435328
 20
1132.36079789
  0
SEQEND
  0
POLYLINE
  8
Default_Layer
 66
   1
 39
0.000000
 70
    0
  0
VERTEX
  8
0
 10
844.27059841
 20
1132.36079789
  0
VERTEX
  8
0
 10
844.27059841
 20
1099.86138219
  0
VERTEX
  8
0
 10
798.70372043
 20
1099.86138219
  0
VERTEX
  8
0
 10
766.20430473
 20
1132.36079789
  0
SEQEND
  0
POLYLINE
  8
Default_Layer
 66
   1
 39
0.000000
 70
    0
  0
VERTEX
  8
0
 10
737.92003349
 20
1132.36079789
  0
VERTEX
  8
0
 10
698.20125996
 20
1092.64202436
  0
VERTEX
  8
0
 10
615.57558193
 20
1126.86670080
 42
0.03465571
  0
VERTEX
  8
0
 10
615.95684355
 20
1132.36079789
  0
SEQEND
  0
POLYLINE
  8
Default_Layer
 66
   1
 39
0.000000
 70
    0
  0
VERTEX
  8
0
 10
1132.36079789
 20
766.20430473
  0
VERTEX
  8
0
 10
1099.86138219
 20
798.70372043
  0
VERTEX
  8
0
 10
1099.86138219
 20
844.27059841
  0
VERTEX
  8
0
 10
1132.36079789
 20
844.27059841
  0
SEQEND
  0
POLYLINE
  8
Default_Layer
 66
   1
 39
0.000000
 70
    0
  0
VERTEX
  8
0
 10
1132.36079789
 20
737.92003349
  0
VERTEX
  8
0
 10
1092.64202436
 20
698.20125996
  0
VERTEX
  8
0
 10
1126.86670080
 20
615.57558193
 42
-0.03465571
  0
VERTEX
  8
0
 10
1132.36079789
 20
615.95684355
  0
SEQEND
  0
POLYLINE
  8
Default_Layer
 66
   1
 39
0.000000
 70
    0
  0
VERTEX
  8
0
 10
1152.13724249
 20
1132.36079789
 42
-0.41421356
  0
VERTEX
  8
0
 10
1132.36079789
 20
1112.58435328
  0
SEQEND
  0
POLYLINE
  8
Default_Layer
 66
   1
 39
0.000000
 70
    0
  0
VERTEX
  8
0
 10
288.09019947
 20
1132.36079789
  0
VERTEX
  8
0
 10
288.09019947
 20
1099.86138219
  0
VERTEX
  8
0
 10
242.52332149
 20
1099.86138219
  0
VERTEX
  8
0
 10
210.02390579
 20
1132.36079789
  0
SEQEND
  0
POLYLINE
  8
Default_Layer
 66
   1
 39
0.000000
 70
    0
  0
VERTEX
  8
0
 10
20.00000000
 20
942.33689210
  0
VERTEX
  8
0
 10
52.49941570
 20
909.83747640
  0
VERTEX
  8
0
 10
52.49941570
 20
864.27059841
  0
VERTEX
  8
0
 10
20.00000000
 20
864.27059841
  0
SEQEND
  0
POLYLINE
  8
Default_Layer
 66
   1
 39
0.000000
 70
    0
  0
VERTEX
  8
0
 10
20.00000000
 20
970.62116334
  0
VERTEX
  8
0
 10
59.71877352
 20
1010.33993687
  0
VERTEX
  8
0
 10
25.49409708
 20
1092.96561490
 42
-0.03465571
  0
VERTEX
  8
0
 10
20.00000000
 20
1092.58435328
  0
SEQEND
  0
POLYLINE
  8
Default_Layer
 66
   1
 39
0.000000
 70
    0
  0
VERTEX
  8
0
 10
181.73963454
 20
1132.36079789
  0
VERTEX
  8
0
 10
142.02086102
 20
1092.64202436
  0
VERTEX
  8
0
 10
59.39518299
 20
1126.86670080
 42
0.03465571
  0
VERTEX
  8
0
 10
59.77644461
 20
1132.36079789
  0
SEQEND
  0
POLYLINE
  8
Default_Layer
 66
   1
 39
0.000000
 70
    0
  0
VERTEX
  8
0
 10
308.09019947
 20
1132.36079789
  0
VERTEX
  8
0
 10
308.09019947
 20
1099.86138219
  0
VERTEX
  8
0
 10
353.65707746
 20
1099.86138219
  0
VERTEX
  8
0
 10
386.15649315
 20
1132.36079789
  0
SEQEND
  0
POLYLINE
  8
Default_Layer
 66
   1
 39
0.000000
 70
    0
  0
VERTEX
  8
0
 10
414.44076440
 20
1132.36079789
  0
VERTEX
  8
0
 10
454.15953792
 20
1092.64202436
  0
VERTEX
  8
0
 10
536.78521595
 20
1126.86670080
 42
-0.03465571
  0
VERTEX
  8
0
 10
536.40395434
 20
1132.36079789
  0
SEQEND
  0
POLYLINE
  8
Default_Layer
 66
   1
 39
0.000000
 70
    0
  0
VERTEX
  8
0
 10
20.00000000
 20
766.20430473
  0
VERTEX
  8
0
 10
52.49941570
 20
798.70372043
  0
VERTEX
  8
0
 10
52.49941570
 20
844.27059841
  0
VERTEX
  8
0
 10
20.00000000
 20
844.27059841
  0
SEQEND
  0
POLYLINE
  8
Default_Layer
 66
   1
 39
0.000000
 70
    0
  0
VERTEX
  8
0
 10
20.00000000
 20
737.92003349
  0
VERTEX
  8
0
 10
59.71877352
 20
698.20125996
  0
VERTEX
  8
0
 10
25.49409708
 20
615.57558193
 42
0.03465571
  0
VERTEX
  8
0
 10
20.00000000
 20
615.95684355
  0
SEQEND
  0
POLYLINE
  8
Default_Layer
 66
   1
 39
0.000000
 70
    0
  0
VERTEX
  8
0
 10
39.77644461
 20
1132.36079789
 42
-0.41421356
  0
VERTEX
  8
0
 10
20.00000000
 20
1112.58435328
  0
SEQEND
  0
POLYLINE
  8
Default_Layer
 66
   1
 39
0.000000
 70
    1
  0
VERTEX
  8
0
 10
0.00000000
 20
0.00000000
  0
VERTEX
  8
0
 10
0.00000000
 20
1152.36079789
  0
VERTEX
  8
0
 10
1152.36079789
 20
1152.36079789
  0
VERTEX
  8
0
 10
1152.36079789
 20
0.00000000
  0
VERTEX
  8
0
 10
0.00000000
 20
0.00000000
  0
SEQEND
  0
POLYLINE
  8
Default_Layer
 66
   1
 39
0.000000
 70
    1
  0
VERTEX
  8
0
 10
20.00000000
 20
20.00000000
  0
VERTEX
  8
0
 10
20.00000000
 20
1132.36079789
  0
VERTEX
  8
0
 10
1132.36079789
 20
1132.36079789
  0
VERTEX
  8
0
 10
1132.36079789
 20
20.00000000
  0
VERTEX
  8
0
 10
20.00000000
 20
20.00000000
  0
SEQEND
  0
POLYLINE
  8
Default_Layer
 66
   1
 39
0.000000
 70
    1
  0
VERTEX
  8
0
 10
1092.58435328
 20
576.18039894
 42
0.03465571
  0
VERTEX
  8
0
 10
1092.96561490
 20
570.68630186
  0
VERTEX
  8
0
 10
1010.33993687
 20
536.46162542
  0
VERTEX
  8
0
 10
970.62116334
 20
576.18039894
  0
VERTEX
  8
0
 10
1010.33993687
 20
615.89917247
  0
VERTEX
  8
0
 10
1092.96561490
 20
581.67449603
 42
0.03465571
  0
VERTEX
  8
0
 10
1092.58435328
 20
576.18039894
  0
SEQEND
  0
POLYLINE
  8
Default_Layer
 66
   1
 39
0.000000
 70
    1
  0
VERTEX
  8
0
 10
942.33689210
 20
576.18039894
  0
VERTEX
  8
0
 10
909.83747640
 20
543.68098325
  0
VERTEX
  8
0
 10
864.27059841
 20
543.68098325
  0
VERTEX
  8
0
 10
864.27059841
 20
608.67981464
  0
VERTEX
  8
0
 10
909.83747640
 20
608.67981464
  0
VERTEX
  8
0
 10
942.33689210
 20
576.18039894
  0
SEQEND
  0
POLYLINE
  8
Default_Layer
 66
   1
 39
0.000000
 70
    1
  0
VERTEX
  8
0
 10
766.20430473
 20
576.18039894
  0
VERTEX
  8
0
 10
798.70372043
 20
543.68098325
  0
VERTEX
  8
0
 10
844.27059841
 20
543.68098325
  0
VERTEX
  8
0
 10
844.27059841
 20
608.67981464
  0
VERTEX
  8
0
 10
798.70372043
 20
608.67981464
  0
VERTEX
  8
0
 10
766.20430473
 20
576.18039894
  0
SEQEND
  0
POLYLINE
  8
Default_Layer
 66
   1
 39
0.000000
 70
    1
  0
VERTEX
  8
0
 10
615.57558193
 20
570.68630186
  0
VERTEX
  8
0
 10
698.20125996
 20
536.46162542
  0
VERTEX
  8
0
 10
737.92003349
 20
576.18039894
  0
VERTEX
  8
0
 10
698.20125996
 20
615.89917247
  0
VERTEX
  8
0
 10
615.57558193
 20
581.67449603
 42
-0.06939477
  0
VERTEX
  8
0
 10
615.57558193
 20
570.68630186
  0
SEQEND
  0
POLYLINE
  8
Default_Layer
 66
   1
 39
0.000000
 70
    1
  0
VERTEX
  8
0
 10
59.39518299
 20
570.68630186
  0
VERTEX
  8
0
 10
142.02086102
 20
536.46162542
  0
VERTEX
  8
0
 10
181.73963454
 20
576.18039894
  0
VERTEX
  8
0
 10
142.02086102
 20
615.89917247
  0
VERTEX
  8
0
 10
59.39518299
 20
581.67449603
 42
-0.06939477
  0
VERTEX
  8
0
 10
59.39518299
 20
570.68630186
  0
SEQEND
  0
POLYLINE
  8
Default_Layer
 66
   1
 39
0.000000
 70
    1
  0
VERTEX
  8
0
 10
536.78521595
 20
570.68630186
  0
VERTEX
  8
0
 10
454.15953792
 20
536.46162542
  0
VERTEX
  8
0
 10
414.44076440
 20
576.18039894
  0
VERTEX
  8
0
 10
454.15953792
 20
615.89917247
  0
VERTEX
  8
0
 10
536.78521595
 20
581.67449603
 42
0.06939477
  0
VERTEX
  8
0
 10
536.78521595
 20
570.68630186
  0
SEQEND
  0
POLYLINE
  8
Default_Layer
 66
   1
 39
0.000000
 70
    1
  0
VERTEX
  8
0
 10
210.02390579
 20
576.18039894
  0
VERTEX
  8
0
 10
242.52332149
 20
543.68098325
  0
VERTEX
  8
0
 10
288.09019947
 20
543.68098325
  0
VERTEX
  8
0
 10
288.09019947
 20
608.67981464
  0
VERTEX
  8
0
 10
242.52332149
 20
608.67981464
  0
VERTEX
  8
0
 10
210.02390579
 20
576.18039894
  0
SEQEND
  0
POLYLINE
  8
Default_Layer
 66
   1
 39
0.000000
 70
    1
  0
VERTEX
  8
0
 10
386.15649315
 20
576.18039894
  0
VERTEX
  8
0
 10
353.65707746
 20
543.68098325
  0
VERTEX
  8
0
 10
308.09019947
 20
543.68098325
  0
VERTEX
  8
0
 10
308.09019947
 20
608.67981464
  0
VERTEX
  8
0
 10
353.65707746
 20
608.67981464
  0
VERTEX
  8
0
 10
386.15649315
 20
576.18039894
  0
SEQEND
  0
POLYLINE
  8
Default_Layer
 66
   1
 39
0.000000
 70
    1
  0
VERTEX
  8
0
 10
576.18039894
 20
288.09019947
  0
VERTEX
  8
0
 10
608.67981464
 20
288.09019947
  0
VERTEX
  8
0
 10
608.67981464
 20
242.52332149
  0
VERTEX
  8
0
 10
576.18039894
 20
210.02390579
  0
VERTEX
  8
0
 10
543.68098325
 20
242.52332149
  0
VERTEX
  8
0
 10
543.68098325
 20
288.09019947
  0
VERTEX
  8
0
 10
576.18039894
 20
288.09019947
  0
SEQEND
  0
POLYLINE
  8
Default_Layer
 66
   1
 39
0.000000
 70
    1
  0
VERTEX
  8
0
 10
576.18039894
 20
308.09019947
  0
VERTEX
  8
0
 10
608.67981464
 20
308.09019947
  0
VERTEX
  8
0
 10
608.67981464
 20
353.65707746
  0
VERTEX
  8
0
 10
576.18039894
 20
386.15649315
  0
VERTEX
  8
0
 10
543.68098325
 20
353.65707746
  0
VERTEX
  8
0
 10
543.68098325
 20
308.09019947
  0
VERTEX
  8
0
 10
576.18039894
 20
308.09019947
  0
SEQEND
  0
POLYLINE
  8
Default_Layer
 66
   1
 39
0.000000
 70
    1
  0
VERTEX
  8
0
 10
576.18039894
 20
864.27059841
  0
VERTEX
  8
0
 10
608.67981464
 20
864.27059841
  0
VERTEX
  8
0
 10
608.67981464
 20
909.83747640
  0
VERTEX
  8
0
 10
576.18039894
 20
942.33689210
  0
VERTEX
  8
0
 10
543.68098325
 20
909.83747640
  0
VERTEX
  8
0
 10
543.68098325
 20
864.27059841
  0
VERTEX
  8
0
 10
576.18039894
 20
864.27059841
  0
SEQEND
  0
POLYLINE
  8
Default_Layer
 66
   1
 39
0.000000
 70
    1
  0
VERTEX
  8
0
 10
576.18039894
 20
844.27059841
  0
VERTEX
  8
0
 10
608.67981464
 20
844.27059841
  0
VERTEX
  8
0
 10
608.67981464
 20
798.70372043
  0
VERTEX
  8
0
 10
576.18039894
 20
766.20430473
  0
VERTEX
  8
0
 10
543.68098325
 20
798.70372043
  0
VERTEX
  8
0
 10
543.68098325
 20
844.27059841
  0
VERTEX
  8
0
 10
576.18039894
 20
844.27059841
  0
SEQEND
  0
POLYLINE
  8
Default_Layer
 66
   1
 39
0.000000
 70
    1
  0
VERTEX
  8
0
 10
581.67449603
 20
536.78521595
  0
VERTEX
  8
0
 10
615.89917247
 20
454.15953792
  0
VERTEX
  8
0
 10
576.18039894
 20
414.44076440
  0
VERTEX
  8
0
 10
536.46162542
 20
454.15953792
  0
VERTEX
  8
0
 10
570.68630186
 20
536.78521595
 42
0.06939477
  0
VERTEX
  8
0
 10
581.67449603
 20
536.78521595
  0
SEQEND
  0
POLYLINE
  8
Default_Layer
 66
   1
 39
0.000000
 70
    1
  0
VERTEX
  8
0
 10
576.18039894
 20
59.77644461
 42
-0.03465571
  0
VERTEX
  8
0
 10
581.67449603
 20
59.39518299
  0
VERTEX
  8
0
 10
615.89917247
 20
142.02086102
  0
VERTEX
  8
0
 10
576.18039894
 20
181.73963454
  0
VERTEX
  8
0
 10
536.46162542
 20
142.02086102
  0
VERTEX
  8
0
 10
570.68630186
 20
59.39518299
 42
-0.03465571
  0
VERTEX
  8
0
 10
576.18039894
 20
59.77644461
  0
SEQEND
  0
POLYLINE
  8
Default_Layer
 66
   1
 39
0.000000
 70
    1
  0
VERTEX
  8
0
 10
576.18039894
 20
1092.58435328
 42
0.03465571
  0
VERTEX
  8
0
 10
581.67449603
 20
1092.96561490
  0
VERTEX
  8
0
 10
615.89917247
 20
1010.33993687
  0
VERTEX
  8
0
 10
576.18039894
 20
970.62116334
  0
VERTEX
  8
0
 10
536.46162542
 20
1010.33993687
  0
VERTEX
  8
0
 10
570.68630186
 20
1092.96561490
 42
0.03465571
  0
VERTEX
  8
0
 10
576.18039894
 20
1092.58435328
  0
SEQEND
  0
POLYLINE
  8
Default_Layer
 66
   1
 39
0.000000
 70
    1
  0
VERTEX
  8
0
 10
581.67449603
 20
615.57558193
  0
VERTEX
  8
0
 10
615.89917247
 20
698.20125996
  0
VERTEX
  8
0
 10
576.18039894
 20
737.92003349
  0
VERTEX
  8
0
 10
536.46162542
 20
698.20125996
  0
VERTEX
  8
0
 10
570.68630186
 20
615.57558193
 42
-0.06939477
  0
VERTEX
  8
0
 10
581.67449603
 20
615.57558193
  0
SEQEND
  0
POLYLINE
  8
Default_Layer
 66
   1
 39
0.000000
 70
    1
  0
VERTEX
  8
0
 10
576.18039894
 20
595.95684355
 42
0.41421356
  0
VERTEX
  8
0
 10
556.40395434
 20
576.18039894
 42
0.41421356
  0
VERTEX
  8
0
 10
576.18039894
 20
556.40395434
 42
0.41421356
  0
VERTEX
  8
0
 10
595.95684355
 20
576.18039894
 42
0.41421356
  0
VERTEX
  8
0
 10
576.18039894
 20
595.95684355
  0
SEQEND
  0
POLYLINE
  8
Default_Layer
 66
   1
 39
0.000000
 70
    1
  0
VERTEX
  8
0
 10
854.27059841
 20
149.44961151
  0
VERTEX
  8
0
 10
854.32997027
 20
149.39023966
  0
VERTEX
  8
0
 10
886.92111478
 20
181.98138417
  0
VERTEX
  8
0
 10
854.27059841
 20
214.63190054
  0
VERTEX
  8
0
 10
821.62008205
 20
181.98138417
  0
VERTEX
  8
0
 10
854.21122656
 20
149.39023966
  0
VERTEX
  8
0
 10
854.27059841
 20
149.44961151
  0
SEQEND
  0
POLYLINE
  8
Default_Layer
 66
   1
 39
0.000000
 70
    1
  0
VERTEX
  8
0
 10
854.27059841
 20
446.73078743
  0
VERTEX
  8
0
 10
854.32997027
 20
446.79015928
  0
VERTEX
  8
0
 10
886.92111478
 20
414.19901477
  0
VERTEX
  8
0
 10
854.27059841
 20
381.54849841
  0
VERTEX
  8
0
 10
821.62008205
 20
414.19901477
  0
VERTEX
  8
0
 10
854.21122656
 20
446.79015928
  0
VERTEX
  8
0
 10
854.27059841
 20
446.73078743
  0
SEQEND
  0
POLYLINE
  8
Default_Layer
 66
   1
 39
0.000000
 70
    1
  0
VERTEX
  8
0
 10
919.44462610
 20
288.09019947
  0
VERTEX
  8
0
 10
864.27059841
 20
288.09019947
  0
VERTEX
  8
0
 10
864.27059841
 20
232.91617178
  0
VERTEX
  8
0
 10
901.06325040
 20
196.12351980
  0
VERTEX
  8
0
 10
956.23727809
 20
251.29754748
  0
VERTEX
  8
0
 10
919.44462610
 20
288.09019947
  0
SEQEND
  0
POLYLINE
  8
Default_Layer
 66
   1
 39
0.000000
 70
    1
  0
VERTEX
  8
0
 10
993.02993008
 20
288.09019947
  0
VERTEX
  8
0
 10
970.37941371
 20
265.43968311
  0
VERTEX
  8
0
 10
947.72889735
 20
288.09019947
  0
VERTEX
  8
0
 10
993.02993008
 20
288.09019947
  0
SEQEND
  0
POLYLINE
  8
Default_Layer
 66
   1
 39
0.000000
 70
    1
  0
VERTEX
  8
0
 10
915.20538603
 20
181.98138417
  0
VERTEX
  8
0
 10
942.81957783
 20
154.36719237
  0
VERTEX
  8
0
 10
997.99360552
 20
154.36719237
  0
VERTEX
  8
0
 10
997.99360552
 20
209.54122006
  0
VERTEX
  8
0
 10
970.37941371
 20
237.15541186
  0
VERTEX
  8
0
 10
915.20538603
 20
181.98138417
  0
SEQEND
  0
POLYLINE
  8
Default_Layer
 66
   1
 39
0.000000
 70
    1
  0
VERTEX
  8
0
 10
901.06325040
 20
167.83924855
  0
VERTEX
  8
0
 10
864.27059841
 20
131.04659656
  0
VERTEX
  8
0
 10
864.27059841
 20
72.49941570
  0
VERTEX
  8
0
 10
918.12174765
 20
72.49941570
  0
VERTEX
  8
0
 10
956.47902772
 20
34.14213562
  0
VERTEX
  8
0
 10
997.99360552
 20
75.65671342
  0
VERTEX
  8
0
 10
997.99360552
 20
134.36719237
  0
VERTEX
  8
0
 10
934.53530658
 20
134.36719237
  0
VERTEX
  8
0
 10
901.06325040
 20
167.83924855
  0
SEQEND
  0
POLYLINE
  8
Default_Layer
 66
   1
 39
0.000000
 70
    1
  0
VERTEX
  8
0
 10
1021.31420133
 20
288.09019947
  0
VERTEX
  8
0
 10
984.52154934
 20
251.29754748
  0
VERTEX
  8
0
 10
1017.99360552
 20
217.82549131
  0
VERTEX
  8
0
 10
1017.99360552
 20
154.36719237
  0
VERTEX
  8
0
 10
1076.70408447
 20
154.36719237
  0
VERTEX
  8
0
 10
1118.21866226
 20
195.88177017
  0
VERTEX
  8
0
 10
1079.86138219
 20
234.23905024
  0
VERTEX
  8
0
 10
1079.86138219
 20
288.09019947
  0
VERTEX
  8
0
 10
1021.31420133
 20
288.09019947
  0
SEQEND
  0
POLYLINE
  8
Default_Layer
 66
   1
 39
0.000000
 70
    1
  0
VERTEX
  8
0
 10
1108.38911015
 20
51.74151434
  0
VERTEX
  8
0
 10
1074.16443371
 20
134.36719237
  0
VERTEX
  8
0
 10
1017.99360552
 20
134.36719237
  0
VERTEX
  8
0
 10
1017.99360552
 20
78.19636417
  0
VERTEX
  8
0
 10
1100.61928355
 20
43.97168773
 42
-0.06939477
  0
VERTEX
  8
0
 10
1108.38911015
 20
51.74151434
  0
SEQEND
  0
POLYLINE
  8
Default_Layer
 66
   1
 39
0.000000
 70
    1
  0
VERTEX
  8
0
 10
789.09657073
 20
288.09019947
  0
VERTEX
  8
0
 10
844.27059841
 20
288.09019947
  0
VERTEX
  8
0
 10
844.27059841
 20
232.91617178
  0
VERTEX
  8
0
 10
807.47794643
 20
196.12351980
  0
VERTEX
  8
0
 10
752.30391874
 20
251.29754748
  0
VERTEX
  8
0
 10
789.09657073
 20
288.09019947
  0
SEQEND
  0
POLYLINE
  8
Default_Layer
 66
   1
 39
0.000000
 70
    1
  0
VERTEX
  8
0
 10
715.51126675
 20
288.09019947
  0
VERTEX
  8
0
 10
738.16178312
 20
265.43968311
  0
VERTEX
  8
0
 10
760.81229948
 20
288.09019947
  0
VERTEX
  8
0
 10
715.51126675
 20
288.09019947
  0
SEQEND
  0
POLYLINE
  8
Default_Layer
 66
   1
 39
0.000000
 70
    1
  0
VERTEX
  8
0
 10
738.16178312
 20
237.15541186
  0
VERTEX
  8
0
 10
793.33581080
 20
181.98138417
  0
VERTEX
  8
0
 10
765.72161900
 20
154.36719237
  0
VERTEX
  8
0
 10
710.54759131
 20
154.36719237
  0
VERTEX
  8
0
 10
710.54759131
 20
209.54122006
  0
VERTEX
  8
0
 10
738.16178312
 20
237.15541186
  0
SEQEND
  0
POLYLINE
  8
Default_Layer
 66
   1
 39
0.000000
 70
    1
  0
VERTEX
  8
0
 10
807.47794643
 20
167.83924855
  0
VERTEX
  8
0
 10
844.27059841
 20
131.04659656
  0
VERTEX
  8
0
 10
844.27059841
 20
72.49941570
  0
VERTEX
  8
0
 10
790.41944918
 20
72.49941570
  0
VERTEX
  8
0
 10
752.06216911
 20
34.14213562
  0
VERTEX
  8
0
 10
710.54759131
 20
75.65671342
  0
VERTEX
  8
0
 10
710.54759131
 20
134.36719237
  0
VERTEX
  8
0
 10
774.00589025
 20
134.36719237
  0
VERTEX
  8
0
 10
807.47794643
 20
167.83924855
  0
SEQEND
  0
POLYLINE
  8
Default_Layer
 66
   1
 39
0.000000
 70
    1
  0
VERTEX
  8
0
 10
724.01964749
 20
251.29754748
  0
VERTEX
  8
0
 10
690.54759131
 20
217.82549131
  0
VERTEX
  8
0
 10
690.54759131
 20
154.36719237
  0
VERTEX
  8
0
 10
631.83711236
 20
154.36719237
  0
VERTEX
  8
0
 10
590.32253457
 20
195.88177017
  0
VERTEX
  8
0
 10
628.67981464
 20
234.23905024
  0
VERTEX
  8
0
 10
628.67981464
 20
288.09019947
  0
VERTEX
  8
0
 10
687.22699550
 20
288.09019947
  0
VERTEX
  8
0
 10
724.01964749
 20
251.29754748
  0
SEQEND
  0
POLYLINE
  8
Default_Layer
 66
   1
 39
0.000000
 70
    1
  0
VERTEX
  8
0
 10
600.15208668
 20
51.74151434
  0
VERTEX
  8
0
 10
634.37676312
 20
134.36719237
  0
VERTEX
  8
0
 10
690.54759131
 20
134.36719237
  0
VERTEX
  8
0
 10
690.54759131
 20
78.19636417
  0
VERTEX
  8
0
 10
607.92191328
 20
43.97168773
 42
0.06939477
  0
VERTEX
  8
0
 10
600.15208668
 20
51.74151434
  0
SEQEND
  0
POLYLINE
  8
Default_Layer
 66
   1
 39
0.000000
 70
    1
  0
VERTEX
  8
0
 10
919.44462610
 20
308.09019947
  0
VERTEX
  8
0
 10
864.27059841
 20
308.09019947
  0
VERTEX
  8
0
 10
864.27059841
 20
363.26422716
  0
VERTEX
  8
0
 10
901.06325040
 20
400.05687915
  0
VERTEX
  8
0
 10
956.23727809
 20
344.88285146
  0
VERTEX
  8
0
 10
919.44462610
 20
308.09019947
  0
SEQEND
  0
POLYLINE
  8
Default_Layer
 66
   1
 39
0.000000
 70
    1
  0
VERTEX
  8
0
 10
993.02993008
 20
308.09019947
  0
VERTEX
  8
0
 10
970.37941371
 20
330.74071584
  0
VERTEX
  8
0
 10
947.72889735
 20
308.09019947
  0
VERTEX
  8
0
 10
993.02993008
 20
308.09019947
  0
SEQEND
  0
POLYLINE
  8
Default_Layer
 66
   1
 39
0.000000
 70
    1
  0
VERTEX
  8
0
 10
970.37941371
 20
359.02498708
  0
VERTEX
  8
0
 10
915.20538603
 20
414.19901477
  0
VERTEX
  8
0
 10
942.81957783
 20
441.81320657
  0
VERTEX
  8
0
 10
997.99360552
 20
441.81320657
  0
VERTEX
  8
0
 10
997.99360552
 20
386.63917889
  0
VERTEX
  8
0
 10
970.37941371
 20
359.02498708
  0
SEQEND
  0
POLYLINE
  8
Default_Layer
 66
   1
 39
0.000000
 70
    1
  0
VERTEX
  8
0
 10
901.06325040
 20
428.34115039
  0
VERTEX
  8
0
 10
864.27059841
 20
465.13380238
  0
VERTEX
  8
0
 10
864.27059841
 20
523.68098325
  0
VERTEX
  8
0
 10
918.12174765
 20
523.68098325
  0
VERTEX
  8
0
 10
956.47902772
 20
562.03826332
  0
VERTEX
  8
0
 10
997.99360552
 20
520.52368553
  0
VERTEX
  8
0
 10
997.99360552
 20
461.81320657
  0
VERTEX
  8
0
 10
934.53530658
 20
461.81320657
  0
VERTEX
  8
0
 10
901.06325040
 20
428.34115039
  0
SEQEND
  0
POLYLINE
  8
Default_Layer
 66
   1
 39
0.000000
 70
    1
  0
VERTEX
  8
0
 10
984.52154934
 20
344.88285146
  0
VERTEX
  8
0
 10
1017.99360552
 20
378.35490764
  0
VERTEX
  8
0
 10
1017.99360552
 20
441.81320657
  0
VERTEX
  8
0
 10
1076.70408447
 20
441.81320657
  0
VERTEX
  8
0
 10
1118.21866226
 20
400.29862878
  0
VERTEX
  8
0
 10
1079.86138219
 20
361.94134870
  0
VERTEX
  8
0
 10
1079.86138219
 20
308.09019947
  0
VERTEX
  8
0
 10
1021.31420133
 20
308.09019947
  0
VERTEX
  8
0
 10
984.52154934
 20
344.88285146
  0
SEQEND
  0
POLYLINE
  8
Default_Layer
 66
   1
 39
0.000000
 70
    1
  0
VERTEX
  8
0
 10
1108.38911015
 20
544.43888460
  0
VERTEX
  8
0
 10
1074.16443371
 20
461.81320657
  0
VERTEX
  8
0
 10
1017.99360552
 20
461.81320657
  0
VERTEX
  8
0
 10
1017.99360552
 20
517.98403477
  0
VERTEX
  8
0
 10
1100.61928355
 20
552.20871121
 42
0.06939477
  0
VERTEX
  8
0
 10
1108.38911015
 20
544.43888460
  0
SEQEND
  0
POLYLINE
  8
Default_Layer
 66
   1
 39
0.000000
 70
    1
  0
VERTEX
  8
0
 10
789.09657073
 20
308.09019947
  0
VERTEX
  8
0
 10
844.27059841
 20
308.09019947
  0
VERTEX
  8
0
 10
844.27059841
 20
363.26422716
  0
VERTEX
  8
0
 10
807.47794643
 20
400.05687915
  0
VERTEX
  8
0
 10
752.30391874
 20
344.88285146
  0
VERTEX
  8
0
 10
789.09657073
 20
308.09019947
  0
SEQEND
  0
POLYLINE
  8
Default_Layer
 66
   1
 39
0.000000
 70
    1
  0
VERTEX
  8
0
 10
715.51126675
 20
308.09019947
  0
VERTEX
  8
0
 10
738.16178312
 20
330.74071584
  0
VERTEX
  8
0
 10
760.81229948
 20
308.09019947
  0
VERTEX
  8
0
 10
715.51126675
 20
308.09019947
  0
SEQEND
  0
POLYLINE
  8
Default_Layer
 66
   1
 39
0.000000
 70
    1
  0
VERTEX
  8
0
 10
793.33581080
 20
414.19901477
  0
VERTEX
  8
0
 10
765.72161900
 20
441.81320657
  0
VERTEX
  8
0
 10
710.54759131
 20
441.81320657
  0
VERTEX
  8
0
 10
710.54759131
 20
386.63917889
  0
VERTEX
  8
0
 10
738.16178312
 20
359.02498708
  0
VERTEX
  8
0
 10
793.33581080
 20
414.19901477
  0
SEQEND
  0
POLYLINE
  8
Default_Layer
 66
   1
 39
0.000000
 70
    1
  0
VERTEX
  8
0
 10
807.47794643
 20
428.34115039
  0
VERTEX
  8
0
 10
844.27059841
 20
465.13380238
  0
VERTEX
  8
0
 10
844.27059841
 20
523.68098325
  0
VERTEX
  8
0
 10
790.41944918
 20
523.68098325
  0
VERTEX
  8
0
 10
752.06216911
 20
562.03826332
  0
VERTEX
  8
0
 10
710.54759131
 20
520.52368553
  0
VERTEX
  8
0
 10
710.54759131
 20
461.81320657
  0
VERTEX
  8
0
 10
774.00589025
 20
461.81320657
  0
VERTEX
  8
0
 10
807.47794643
 20
428.34115039
  0
SEQEND
  0
POLYLINE
  8
Default_Layer
 66
   1
 39
0.000000
 70
    1
  0
VERTEX
  8
0
 10
724.01964749
 20
344.88285146
  0
VERTEX
  8
0
 10
690.54759131
 20
378.35490764
  0
VERTEX
  8
0
 10
690.54759131
 20
441.81320657
  0
VERTEX
  8
0
 10
631.83711236
 20
441.81320657
  0
VERTEX
  8
0
 10
590.32253457
 20
400.29862878
  0
VERTEX
  8
0
 10
628.67981464
 20
361.94134870
  0
VERTEX
  8
0
 10
628.67981464
 20
308.09019947
  0
VERTEX
  8
0
 10
687.22699550
 20
308.09019947
  0
VERTEX
  8
0
 10
724.01964749
 20
344.88285146
  0
SEQEND
  0
POLYLINE
  8
Default_Layer
 66
   1
 39
0.000000
 70
    1
  0
VERTEX
  8
0
 10
600.15208668
 20
544.43888460
  0
VERTEX
  8
0
 10
634.37676312
 20
461.81320657
  0
VERTEX
  8
0
 10
690.54759131
 20
461.81320657
  0
VERTEX
  8
0
 10
690.54759131
 20
517.98403477
  0
VERTEX
  8
0
 10
607.92191328
 20
552.20871121
 42
-0.06939477
  0
VERTEX
  8
0
 10
600.15208668
 20
544.43888460
  0
SEQEND
  0
POLYLINE
  8
Default_Layer
 66
   1
 39
0.000000
 70
    1
  0
VERTEX
  8
0
 10
298.09019947
 20
149.44961151
  0
VERTEX
  8
0
 10
298.03082762
 20
149.39023966
  0
VERTEX
  8
0
 10
265.43968311
 20
181.98138417
  0
VERTEX
  8
0
 10
298.09019947
 20
214.63190054
  0
VERTEX
  8
0
 10
330.74071584
 20
181.98138417
  0
VERTEX
  8
0
 10
298.14957132
 20
149.39023966
  0
VERTEX
  8
0
 10
298.09019947
 20
149.44961151
  0
SEQEND
  0
POLYLINE
  8
Default_Layer
 66
   1
 39
0.000000
 70
    1
  0
VERTEX
  8
0
 10
298.09019947
 20
446.73078743
  0
VERTEX
  8
0
 10
298.03082762
 20
446.79015928
  0
VERTEX
  8
0
 10
265.43968311
 20
414.19901477
  0
VERTEX
  8
0
 10
298.09019947
 20
381.54849841
  0
VERTEX
  8
0
 10
330.74071584
 20
414.19901477
  0
VERTEX
  8
0
 10
298.14957132
 20
446.79015928
  0
VERTEX
  8
0
 10
298.09019947
 20
446.73078743
  0
SEQEND
  0
POLYLINE
  8
Default_Layer
 66
   1
 39
0.000000
 70
    1
  0
VERTEX
  8
0
 10
232.91617178
 20
288.09019947
  0
VERTEX
  8
0
 10
288.09019947
 20
288.09019947
  0
VERTEX
  8
0
 10
288.09019947
 20
232.91617178
  0
VERTEX
  8
0
 10
251.29754748
 20
196.12351980
  0
VERTEX
  8
0
 10
196.12351980
 20
251.29754748
  0
VERTEX
  8
0
 10
232.91617178
 20
288.09019947
  0
SEQEND
  0
POLYLINE
  8
Default_Layer
 66
   1
 39
0.000000
 70
    1
  0
VERTEX
  8
0
 10
159.33086781
 20
288.09019947
  0
VERTEX
  8
0
 10
181.98138417
 20
265.43968311
  0
VERTEX
  8
0
 10
204.63190054
 20
288.09019947
  0
VERTEX
  8
0
 10
159.33086781
 20
288.09019947
  0
SEQEND
  0
POLYLINE
  8
Default_Layer
 66
   1
 39
0.000000
 70
    1
  0
VERTEX
  8
0
 10
237.15541186
 20
181.98138417
  0
VERTEX
  8
0
 10
209.54122006
 20
154.36719237
  0
VERTEX
  8
0
 10
154.36719237
 20
154.36719237
  0
VERTEX
  8
0
 10
154.36719237
 20
209.54122006
  0
VERTEX
  8
0
 10
181.98138417
 20
237.15541186
  0
VERTEX
  8
0
 10
237.15541186
 20
181.98138417
  0
SEQEND
  0
POLYLINE
  8
Default_Layer
 66
   1
 39
0.000000
 70
    1
  0
VERTEX
  8
0
 10
251.29754748
 20
167.83924855
  0
VERTEX
  8
0
 10
288.09019947
 20
131.04659656
  0
VERTEX
  8
0
 10
288.09019947
 20
72.49941570
  0
VERTEX
  8
0
 10
234.23905024
 20
72.49941570
  0
VERTEX
  8
0
 10
195.88177017
 20
34.14213562
  0
VERTEX
  8
0
 10
154.36719237
 20
75.65671342
  0
VERTEX
  8
0
 10
154.36719237
 20
134.36719237
  0
VERTEX
  8
0
 10
217.82549131
 20
134.36719237
  0
VERTEX
  8
0
 10
251.29754748
 20
167.83924855
  0
SEQEND
  0
POLYLINE
  8
Default_Layer
 66
   1
 39
0.000000
 70
    1
  0
VERTEX
  8
0
 10
131.04659656
 20
288.09019947
  0
VERTEX
  8
0
 10
167.83924855
 20
251.29754748
  0
VERTEX
  8
0
 10
134.36719237
 20
217.82549131
  0
VERTEX
  8
0
 10
134.36719237
 20
154.36719237
  0
VERTEX
  8
0
 10
75.65671342
 20
154.36719237
  0
VERTEX
  8
0
 10
34.14213562
 20
195.88177017
  0
VERTEX
  8
0
 10
72.49941570
 20
234.23905024
  0
VERTEX
  8
0
 10
72.49941570
 20
288.09019947
  0
VERTEX
  8
0
 10
131.04659656
 20
288.09019947
  0
SEQEND
  0
POLYLINE
  8
Default_Layer
 66
   1
 39
0.000000
 70
    1
  0
VERTEX
  8
0
 10
43.97168773
 20
51.74151434
  0
VERTEX
  8
0
 10
78.19636417
 20
134.36719237
  0
VERTEX
  8
0
 10
134.36719237
 20
134.36719237
  0
VERTEX
  8
0
 10
134.36719237
 20
78.19636417
  0
VERTEX
  8
0
 10
51.74151434
 20
43.97168773
 42
0.06939477
  0
VERTEX
  8
0
 10
43.97168773
 20
51.74151434
  0
SEQEND
  0
POLYLINE
  8
Default_Layer
 66
   1
 39
0.000000
 70
    1
  0
VERTEX
  8
0
 10
363.26422716
 20
288.09019947
  0
VERTEX
  8
0
 10
308.09019947
 20
288.09019947
  0
VERTEX
  8
0
 10
308.09019947
 20
232.91617178
  0
VERTEX
  8
0
 10
344.88285146
 20
196.12351980
  0
VERTEX
  8
0
 10
400.05687915
 20
251.29754748
  0
VERTEX
  8
0
 10
363.26422716
 20
288.09019947
  0
SEQEND
  0
POLYLINE
  8
Default_Layer
 66
   1
 39
0.000000
 70
    1
  0
VERTEX
  8
0
 10
436.84953114
 20
288.09019947
  0
VERTEX
  8
0
 10
414.19901477
 20
265.43968311
  0
VERTEX
  8
0
 10
391.54849841
 20
288.09019947
  0
VERTEX
  8
0
 10
436.84953114
 20
288.09019947
  0
SEQEND
  0
POLYLINE
  8
Default_Layer
 66
   1
 39
0.000000
 70
    1
  0
VERTEX
  8
0
 10
414.19901477
 20
237.15541186
  0
VERTEX
  8
0
 10
359.02498708
 20
181.98138417
  0
VERTEX
  8
0
 10
386.63917889
 20
154.36719237
  0
VERTEX
  8
0
 10
441.81320657
 20
154.36719237
  0
VERTEX
  8
0
 10
441.81320657
 20
209.54122006
  0
VERTEX
  8
0
 10
414.19901477
 20
237.15541186
  0
SEQEND
  0
POLYLINE
  8
Default_Layer
 66
   1
 39
0.000000
 70
    1
  0
VERTEX
  8
0
 10
344.88285146
 20
167.83924855
  0
VERTEX
  8
0
 10
308.09019947
 20
131.04659656
  0
VERTEX
  8
0
 10
308.09019947
 20
72.49941570
  0
VERTEX
  8
0
 10
361.94134870
 20
72.49941570
  0
VERTEX
  8
0
 10
400.29862878
 20
34.14213562
  0
VERTEX
  8
0
 10
441.81320657
 20
75.65671342
  0
VERTEX
  8
0
 10
441.81320657
 20
134.36719237
  0
VERTEX
  8
0
 10
378.35490764
 20
134.36719237
  0
VERTEX
  8
0
 10
344.88285146
 20
167.83924855
  0
SEQEND
  0
POLYLINE
  8
Default_Layer
 66
   1
 39
0.000000
 70
    1
  0
VERTEX
  8
0
 10
428.34115039
 20
251.29754748
  0
VERTEX
  8
0
 10
461.81320657
 20
217.82549131
  0
VERTEX
  8
0
 10
461.81320657
 20
154.36719237
  0
VERTEX
  8
0
 10
520.52368553
 20
154.36719237
  0
VERTEX
  8
0
 10
562.03826332
 20
195.88177017
  0
VERTEX
  8
0
 10
523.68098325
 20
234.23905024
  0
VERTEX
  8
0
 10
523.68098325
 20
288.09019947
  0
VERTEX
  8
0
 10
465.13380238
 20
288.09019947
  0
VERTEX
  8
0
 10
428.34115039
 20
251.29754748
  0
SEQEND
  0
POLYLINE
  8
Default_Layer
 66
   1
 39
0.000000
 70
    1
  0
VERTEX
  8
0
 10
552.20871121
 20
51.74151434
  0
VERTEX
  8
0
 10
517.98403477
 20
134.36719237
  0
VERTEX
  8
0
 10
461.81320657
 20
134.36719237
  0
VERTEX
  8
0
 10
461.81320657
 20
78.19636417
  0
VERTEX
  8
0
 10
544.43888460
 20
43.97168773
 42
-0.06939477
  0
VERTEX
  8
0
 10
552.20871121
 20
51.74151434
  0
SEQEND
  0
POLYLINE
  8
Default_Layer
 66
   1
 39
0.000000
 70
    1
  0
VERTEX
  8
0
 10
232.91617178
 20
308.09019947
  0
VERTEX
  8
0
 10
288.09019947
 20
308.09019947
  0
VERTEX
  8
0
 10
288.09019947
 20
363.26422716
  0
VERTEX
  8
0
 10
251.29754748
 20
400.05687915
  0
VERTEX
  8
0
 10
196.12351980
 20
344.88285146
  0
VERTEX
  8
0
 10
232.91617178
 20
308.09019947
  0
SEQEND
  0
POLYLINE
  8
Default_Layer
 66
   1
 39
0.000000
 70
    1
  0
VERTEX
  8
0
 10
159.33086781
 20
308.09019947
  0
VERTEX
  8
0
 10
181.98138417
 20
330.74071584
  0
VERTEX
  8
0
 10
204.63190054
 20
308.09019947
  0
VERTEX
  8
0
 10
159.33086781
 20
308.09019947
  0
SEQEND
  0
POLYLINE
  8
Default_Layer
 66
   1
 39
0.000000
 70
    1
  0
VERTEX
  8
0
 10
181.98138417
 20
359.02498708
  0
VERTEX
  8
0
 10
237.15541186
 20
414.19901477
  0
VERTEX
  8
0
 10
209.54122006
 20
441.81320657
  0
VERTEX
  8
0
 10
154.36719237
 20
441.81320657
  0
VERTEX
  8
0
 10
154.36719237
 20
386.63917889
  0
VERTEX
  8
0
 10
181.98138417
 20
359.02498708
  0
SEQEND
  0
POLYLINE
  8
Default_Layer
 66
   1
 39
0.000000
 70
    1
  0
VERTEX
  8
0
 10
251.29754748
 20
428.34115039
  0
VERTEX
  8
0
 10
288.09019947
 20
465.13380238
  0
VERTEX
  8
0
 10
288.09019947
 20
523.68098325
  0
VERTEX
  8
0
 10
234.23905024
 20
523.68098325
  0
VERTEX
  8
0
 10
195.88177017
 20
562.03826332
  0
VERTEX
  8
0
 10
154.36719237
 20
520.52368553
  0
VERTEX
  8
0
 10
154.36719237
 20
461.81320657
  0
VERTEX
  8
0
 10
217.82549131
 20
461.81320657
  0
VERTEX
  8
0
 10
251.29754748
 20
428.34115039
  0
SEQEND
  0
POLYLINE
  8
Default_Layer
 66
   1
 39
0.000000
 70
    1
  0
VERTEX
  8
0
 10
167.83924855
 20
344.88285146
  0
VERTEX
  8
0
 10
134.36719237
 20
378.35490764
  0
VERTEX
  8
0
 10
134.36719237
 20
441.81320657
  0
VERTEX
  8
0
 10
75.65671342
 20
441.81320657
  0
VERTEX
  8
0
 10
34.14213562
 20
400.29862878
  0
VERTEX
  8
0
 10
72.49941570
 20
361.94134870
  0
VERTEX
  8
0
 10
72.49941570
 20
308.09019947
  0
VERTEX
  8
0
 10
131.04659656
 20
308.09019947
  0
VERTEX
  8
0
 10
167.83924855
 20
344.88285146
  0
SEQEND
  0
POLYLINE
  8
Default_Layer
 66
   1
 39
0.000000
 70
    1
  0
VERTEX
  8
0
 10
43.97168773
 20
544.43888460
  0
VERTEX
  8
0
 10
78.19636417
 20
461.81320657
  0
VERTEX
  8
0
 10
134.36719237
 20
461.81320657
  0
VERTEX
  8
0
 10
134.36719237
 20
517.98403477
  0
VERTEX
  8
0
 10
51.74151434
 20
552.20871121
 42
-0.06939477
  0
VERTEX
  8
0
 10
43.97168773
 20
544.43888460
  0
SEQEND
  0
POLYLINE
  8
Default_Layer
 66
   1
 39
0.000000
 70
    1
  0
VERTEX
  8
0
 10
363.26422716
 20
308.09019947
  0
VERTEX
  8
0
 10
308.09019947
 20
308.09019947
  0
VERTEX
  8
0
 10
308.09019947
 20
363.26422716
  0
VERTEX
  8
0
 10
344.88285146
 20
400.05687915
  0
VERTEX
  8
0
 10
400.05687915
 20
344.88285146
  0
VERTEX
  8
0
 10
363.26422716
 20
308.09019947
  0
SEQEND
  0
POLYLINE
  8
Default_Layer
 66
   1
 39
0.000000
 70
    1
  0
VERTEX
  8
0
 10
436.84953114
 20
308.09019947
  0
VERTEX
  8
0
 10
414.19901477
 20
330.74071584
  0
VERTEX
  8
0
 10
391.54849841
 20
308.09019947
  0
VERTEX
  8
0
 10
436.84953114
 20
308.09019947
  0
SEQEND
  0
POLYLINE
  8
Default_Layer
 66
   1
 39
0.000000
 70
    1
  0
VERTEX
  8
0
 10
359.02498708
 20
414.19901477
  0
VERTEX
  8
0
 10
386.63917889
 20
441.81320657
  0
VERTEX
  8
0
 10
441.81320657
 20
441.81320657
  0
VERTEX
  8
0
 10
441.81320657
 20
386.63917889
  0
VERTEX
  8
0
 10
414.19901477
 20
359.02498708
  0
VERTEX
  8
0
 10
359.02498708
 20
414.19901477
  0
SEQEND
  0
POLYLINE
  8
Default_Layer
 66
   1
 39
0.000000
 70
    1
  0
VERTEX
  8
0
 10
344.88285146
 20
428.34115039
  0
VERTEX
  8
0
 10
308.09019947
 20
465.13380238
  0
VERTEX
  8
0
 10
308.09019947
 20
523.68098325
  0
VERTEX
  8
0
 10
361.94134870
 20
523.68098325
  0
VERTEX
  8
0
 10
400.29862878
 20
562.03826332
  0
VERTEX
  8
0
 10
441.81320657
 20
520.52368553
  0
VERTEX
  8
0
 10
441.81320657
 20
461.81320657
  0
VERTEX
  8
0
 10
378.35490764
 20
461.81320657
  0
VERTEX
  8
0
 10
344.88285146
 20
428.34115039
  0
SEQEND
  0
POLYLINE
  8
Default_Layer
 66
   1
 39
0.000000
 70
    1
  0
VERTEX
  8
0
 10
428.34115039
 20
344.88285146
  0
VERTEX
  8
0
 10
461.81320657
 20
378.35490764
  0
VERTEX
  8
0
 10
461.81320657
 20
441.81320657
  0
VERTEX
  8
0
 10
520.52368553
 20
441.81320657
  0
VERTEX
  8
0
 10
562.03826332
 20
400.29862878
  0
VERTEX
  8
0
 10
523.68098325
 20
361.94134870
  0
VERTEX
  8
0
 10
523.68098325
 20
308.09019947
  0
VERTEX
  8
0
 10
465.13380238
 20
308.09019947
  0
VERTEX
  8
0
 10
428.34115039
 20
344.88285146
  0
SEQEND
  0
POLYLINE
  8
Default_Layer
 66
   1
 39
0.000000
 70
    1
  0
VERTEX
  8
0
 10
552.20871121
 20
544.43888460
  0
VERTEX
  8
0
 10
517.98403477
 20
461.81320657
  0
VERTEX
  8
0
 10
461.81320657
 20
461.81320657
  0
VERTEX
  8
0
 10
461.81320657
 20
517.98403477
  0
VERTEX
  8
0
 10
544.43888460
 20
552.20871121
 42
0.06939477
  0
VERTEX
  8
0
 10
552.20871121
 20
544.43888460
  0
SEQEND
  0
POLYLINE
  8
Default_Layer
 66
   1
 39
0.000000
 70
    1
  0
VERTEX
  8
0
 10
854.27059841
 20
1002.91118638
  0
VERTEX
  8
0
 10
854.32997027
 20
1002.97055823
  0
VERTEX
  8
0
 10
886.92111478
 20
970.37941371
  0
VERTEX
  8
0
 10
854.27059841
 20
937.72889735
  0
VERTEX
  8
0
 10
821.62008205
 20
970.37941371
  0
VERTEX
  8
0
 10
854.21122656
 20
1002.97055823
  0
VERTEX
  8
0
 10
854.27059841
 20
1002.91118638
  0
SEQEND
  0
POLYLINE
  8
Default_Layer
 66
   1
 39
0.000000
 70
    1
  0
VERTEX
  8
0
 10
854.27059841
 20
705.63001045
  0
VERTEX
  8
0
 10
854.32997027
 20
705.57063860
  0
VERTEX
  8
0
 10
886.92111478
 20
738.16178312
  0
VERTEX
  8
0
 10
854.27059841
 20
770.81229948
  0
VERTEX
  8
0
 10
821.62008205
 20
738.16178312
  0
VERTEX
  8
0
 10
854.21122656
 20
705.57063860
  0
VERTEX
  8
0
 10
854.27059841
 20
705.63001045
  0
SEQEND
  0
POLYLINE
  8
Default_Layer
 66
   1
 39
0.000000
 70
    1
  0
VERTEX
  8
0
 10
919.44462610
 20
864.27059841
  0
VERTEX
  8
0
 10
864.27059841
 20
864.27059841
  0
VERTEX
  8
0
 10
864.27059841
 20
919.44462610
  0
VERTEX
  8
0
 10
901.06325040
 20
956.23727809
  0
VERTEX
  8
0
 10
956.23727809
 20
901.06325040
  0
VERTEX
  8
0
 10
919.44462610
 20
864.27059841
  0
SEQEND
  0
POLYLINE
  8
Default_Layer
 66
   1
 39
0.000000
 70
    1
  0
VERTEX
  8
0
 10
993.02993008
 20
864.27059841
  0
VERTEX
  8
0
 10
970.37941371
 20
886.92111478
  0
VERTEX
  8
0
 10
947.72889735
 20
864.27059841
  0
VERTEX
  8
0
 10
993.02993008
 20
864.27059841
  0
SEQEND
  0
POLYLINE
  8
Default_Layer
 66
   1
 39
0.000000
 70
    1
  0
VERTEX
  8
0
 10
915.20538603
 20
970.37941371
  0
VERTEX
  8
0
 10
942.81957783
 20
997.99360552
  0
VERTEX
  8
0
 10
997.99360552
 20
997.99360552
  0
VERTEX
  8
0
 10
997.99360552
 20
942.81957783
  0
VERTEX
  8
0
 10
970.37941371
 20
915.20538603
  0
VERTEX
  8
0
 10
915.20538603
 20
970.37941371
  0
SEQEND
  0
POLYLINE
  8
Default_Layer
 66
   1
 39
0.000000
 70
    1
  0
VERTEX
  8
0
 10
901.06325040
 20
984.52154934
  0
VERTEX
  8
0
 10
864.27059841
 20
1021.31420133
  0
VERTEX
  8
0
 10
864.27059841
 20
1079.86138219
  0
VERTEX
  8
0
 10
918.12174765
 20
1079.86138219
  0
VERTEX
  8
0
 10
956.47902772
 20
1118.21866226
  0
VERTEX
  8
0
 10
997.99360552
 20
1076.70408447
  0
VERTEX
  8
0
 10
997.99360552
 20
1017.99360552
  0
VERTEX
  8
0
 10
934.53530658
 20
1017.99360552
  0
VERTEX
  8
0
 10
901.06325040
 20
984.52154934
  0
SEQEND
  0
POLYLINE
  8
Default_Layer
 66
   1
 39
0.000000
 70
    1
  0
VERTEX
  8
0
 10
1021.31420133
 20
864.27059841
  0
VERTEX
  8
0
 10
984.52154934
 20
901.06325040
  0
VERTEX
  8
0
 10
1017.99360552
 20
934.53530658
  0
VERTEX
  8
0
 10
1017.99360552
 20
997.99360552
  0
VERTEX
  8
0
 10
1076.70408447
 20
997.99360552
  0
VERTEX
  8
0
 10
1118.21866226
 20
956.47902772
  0
VERTEX
  8
0
 10
1079.86138219
 20
918.12174765
  0
VERTEX
  8
0
 10
1079.86138219
 20
864.27059841
  0
VERTEX
  8
0
 10
1021.31420133
 20
864.27059841
  0
SEQEND
  0
POLYLINE
  8
Default_Layer
 66
   1
 39
0.000000
 70
    1
  0
VERTEX
  8
0
 10
1108.38911015
 20
1100.61928355
  0
VERTEX
  8
0
 10
1074.16443371
 20
1017.99360552
  0
VERTEX
  8
0
 10
1017.99360552
 20
1017.99360552
  0
VERTEX
  8
0
 10
1017.99360552
 20
1074.16443371
  0
VERTEX
  8
0
 10
1100.61928355
 20
1108.38911015
 42
0.06939477
  0
VERTEX
  8
0
 10
1108.38911015
 20
1100.61928355
  0
SEQEND
  0
POLYLINE
  8
Default_Layer
 66
   1
 39
0.000000
 70
    1
  0
VERTEX
  8
0
 10
789.09657073
 20
864.27059841
  0
VERTEX
  8
0
 10
844.27059841
 20
864.27059841
  0
VERTEX
  8
0
 10
844.27059841
 20
919.44462610
  0
VERTEX
  8
0
 10
807.47794643
 20
956.23727809
  0
VERTEX
  8
0
 10
752.30391874
 20
901.06325040
  0
VERTEX
  8
0
 10
789.09657073
 20
864.27059841
  0
SEQEND
  0
POLYLINE
  8
Default_Layer
 66
   1
 39
0.000000
 70
    1
  0
VERTEX
  8
0
 10
715.51126675
 20
864.27059841
  0
VERTEX
  8
0
 10
738.16178312
 20
886.92111478
  0
VERTEX
  8
0
 10
760.81229948
 20
864.27059841
  0
VERTEX
  8
0
 10
715.51126675
 20
864.27059841
  0
SEQEND
  0
POLYLINE
  8
Default_Layer
 66
   1
 39
0.000000
 70
    1
  0
VERTEX
  8
0
 10
738.16178312
 20
915.20538603
  0
VERTEX
  8
0
 10
793.33581080
 20
970.37941371
  0
VERTEX
  8
0
 10
765.72161900
 20
997.99360552
  0
VERTEX
  8
0
 10
710.54759131
 20
997.99360552
  0
VERTEX
  8
0
 10
710.54759131
 20
942.81957783
  0
VERTEX
  8
0
 10
738.16178312
 20
915.20538603
  0
SEQEND
  0
POLYLINE
  8
Default_Layer
 66
   1
 39
0.000000
 70
    1
  0
VERTEX
  8
0
 10
807.47794643
 20
984.52154934
  0
VERTEX
  8
0
 10
844.27059841
 20
1021.31420133
  0
VERTEX
  8
0
 10
844.27059841
 20
1079.86138219
  0
VERTEX
  8
0
 10
790.41944918
 20
1079.86138219
  0
VERTEX
  8
0
 10
752.06216911
 20
1118.21866226
  0
VERTEX
  8
0
 10
710.54759131
 20
1076.70408447
  0
VERTEX
  8
0
 10
710.54759131
 20
1017.99360552
  0
VERTEX
  8
0
 10
774.00589025
 20
1017.99360552
  0
VERTEX
  8
0
 10
807.47794643
 20
984.52154934
  0
SEQEND
  0
POLYLINE
  8
Default_Layer
 66
   1
 39
0.000000
 70
    1
  0
VERTEX
  8
0
 10
724.01964749
 20
901.06325040
  0
VERTEX
  8
0
 10
690.54759131
 20
934.53530658
  0
VERTEX
  8
0
 10
690.54759131
 20
997.99360552
  0
VERTEX
  8
0
 10
631.83711236
 20
997.99360552
  0
VERTEX
  8
0
 10
590.32253457
 20
956.47902772
  0
VERTEX
  8
0
 10
628.67981464
 20
918.12174765
  0
VERTEX
  8
0
 10
628.67981464
 20
864.27059841
  0
VERTEX
  8
0
 10
687.22699550
 20
864.27059841
  0
VERTEX
  8
0
 10
724.01964749
 20
901.06325040
  0
SEQEND
  0
POLYLINE
  8
Default_Layer
 66
   1
 39
0.000000
 70
    1
  0
VERTEX
  8
0
 10
600.15208668
 20
1100.61928355
  0
VERTEX
  8
0
 10
634.37676312
 20
1017.99360552
  0
VERTEX
  8
0
 10
690.54759131
 20
1017.99360552
  0
VERTEX
  8
0
 10
690.54759131
 20
1074.16443371
  0
VERTEX
  8
0
 10
607.92191328
 20
1108.38911015
 42
-0.06939477
  0
VERTEX
  8
0
 10
600.15208668
 20
1100.61928355
  0
SEQEND
  0
POLYLINE
  8
Default_Layer
 66
   1
 39
0.000000
 70
    1
  0
VERTEX
  8
0
 10
919.44462610
 20
844.27059841
  0
VERTEX
  8
0
 10
864.27059841
 20
844.27059841
  0
VERTEX
  8
0
 10
864.27059841
 20
789.09657073
  0
VERTEX
  8
0
 10
901.06325040
 20
752.30391874
  0
VERTEX
  8
0
 10
956.23727809
 20
807.47794643
  0
VERTEX
  8
0
 10
919.44462610
 20
844.27059841
  0
SEQEND
  0
POLYLINE
  8
Default_Layer
 66
   1
 39
0.000000
 70
    1
  0
VERTEX
  8
0
 10
993.02993008
 20
844.27059841
  0
VERTEX
  8
0
 10
970.37941371
 20
821.62008205
  0
VERTEX
  8
0
 10
947.72889735
 20
844.27059841
  0
VERTEX
  8
0
 10
993.02993008
 20
844.27059841
  0
SEQEND
  0
POLYLINE
  8
Default_Layer
 66
   1
 39
0.000000
 70
    1
  0
VERTEX
  8
0
 10
970.37941371
 20
793.33581080
  0
VERTEX
  8
0
 10
915.20538603
 20
738.16178312
  0
VERTEX
  8
0
 10
942.81957783
 20
710.54759131
  0
VERTEX
  8
0
 10
997.99360552
 20
710.54759131
  0
VERTEX
  8
0
 10
997.99360552
 20
765.72161900
  0
VERTEX
  8
0
 10
970.37941371
 20
793.33581080
  0
SEQEND
  0
POLYLINE
  8
Default_Layer
 66
   1
 39
0.000000
 70
    1
  0
VERTEX
  8
0
 10
901.06325040
 20
724.01964749
  0
VERTEX
  8
0
 10
864.27059841
 20
687.22699550
  0
VERTEX
  8
0
 10
864.27059841
 20
628.67981464
  0
VERTEX
  8
0
 10
918.12174765
 20
628.67981464
  0
VERTEX
  8
0
 10
956.47902772
 20
590.32253457
  0
VERTEX
  8
0
 10
997.99360552
 20
631.83711236
  0
VERTEX
  8
0
 10
997.99360552
 20
690.54759131
  0
VERTEX
  8
0
 10
934.53530658
 20
690.54759131
  0
VERTEX
  8
0
 10
901.06325040
 20
724.01964749
  0
SEQEND
  0
POLYLINE
  8
Default_Layer
 66
   1
 39
0.000000
 70
    1
  0
VERTEX
  8
0
 10
984.52154934
 20
807.47794643
  0
VERTEX
  8
0
 10
1017.99360552
 20
774.00589025
  0
VERTEX
  8
0
 10
1017.99360552
 20
710.54759131
  0
VERTEX
  8
0
 10
1076.70408447
 20
710.54759131
  0
VERTEX
  8
0
 10
1118.21866226
 20
752.06216911
  0
VERTEX
  8
0
 10
1079.86138219
 20
790.41944918
  0
VERTEX
  8
0
 10
1079.86138219
 20
844.27059841
  0
VERTEX
  8
0
 10
1021.31420133
 20
844.27059841
  0
VERTEX
  8
0
 10
984.52154934
 20
807.47794643
  0
SEQEND
  0
POLYLINE
  8
Default_Layer
 66
   1
 39
0.000000
 70
    1
  0
VERTEX
  8
0
 10
1108.38911015
 20
607.92191328
  0
VERTEX
  8
0
 10
1074.16443371
 20
690.54759131
  0
VERTEX
  8
0
 10
1017.99360552
 20
690.54759131
  0
VERTEX
  8
0
 10
1017.99360552
 20
634.37676312
  0
VERTEX
  8
0
 10
1100.61928355
 20
600.15208668
 42
-0.06939477
  0
VERTEX
  8
0
 10
1108.38911015
 20
607.92191328
  0
SEQEND
  0
POLYLINE
  8
Default_Layer
 66
   1
 39
0.000000
 70
    1
  0
VERTEX
  8
0
 10
789.09657073
 20
844.27059841
  0
VERTEX
  8
0
 10
844.27059841
 20
844.27059841
  0
VERTEX
  8
0
 10
844.27059841
 20
789.09657073
  0
VERTEX
  8
0
 10
807.47794643
 20
752.30391874
  0
VERTEX
  8
0
 10
752.30391874
 20
807.47794643
  0
VERTEX
  8
0
 10
789.09657073
 20
844.27059841
  0
SEQEND
  0
POLYLINE
  8
Default_Layer
 66
   1
 39
0.000000
 70
    1
  0
VERTEX
  8
0
 10
715.51126675
 20
844.27059841
  0
VERTEX
  8
0
 10
738.16178312
 20
821.62008205
  0
VERTEX
  8
0
 10
760.81229948
 20
844.27059841
  0
VERTEX
  8
0
 10
715.51126675
 20
844.27059841
  0
SEQEND
  0
POLYLINE
  8
Default_Layer
 66
   1
 39
0.000000
 70
    1
  0
VERTEX
  8
0
 10
793.33581080
 20
738.16178312
  0
VERTEX
  8
0
 10
765.72161900
 20
710.54759131
  0
VERTEX
  8
0
 10
710.54759131
 20
710.54759131
  0
VERTEX
  8
0
 10
710.54759131
 20
765.72161900
  0
VERTEX
  8
0
 10
738.16178312
 20
793.33581080
  0
VERTEX
  8
0
 10
793.33581080
 20
738.16178312
  0
SEQEND
  0
POLYLINE
  8
Default_Layer
 66
   1
 39
0.000000
 70
    1
  0
VERTEX
  8
0
 10
807.47794643
 20
724.01964749
  0
VERTEX
  8
0
 10
844.27059841
 20
687.22699550
  0
VERTEX
  8
0
 10
844.27059841
 20
628.67981464
  0
VERTEX
  8
0
 10
790.41944918
 20
628.67981464
  0
VERTEX
  8
0
 10
752.06216911
 20
590.32253457
  0
VERTEX
  8
0
 10
710.54759131
 20
631.83711236
  0
VERTEX
  8
0
 10
710.54759131
 20
690.54759131
  0
VERTEX
  8
0
 10
774.00589025
 20
690.54759131
  0
VERTEX
  8
0
 10
807.47794643
 20
724.01964749
  0
SEQEND
  0
POLYLINE
  8
Default_Layer
 66
   1
 39
0.000000
 70
    1
  0
VERTEX
  8
0
 10
724.01964749
 20
807.47794643
  0
VERTEX
  8
0
 10
690.54759131
 20
774.00589025
  0
VERTEX
  8
0
 10
690.54759131
 20
710.54759131
  0
VERTEX
  8
0
 10
631.83711236
 20
710.54759131
  0
VERTEX
  8
0
 10
590.32253457
 20
752.06216911
  0
VERTEX
  8
0
 10
628.67981464
 20
790.41944918
  0
VERTEX
  8
0
 10
628.67981464
 20
844.27059841
  0
VERTEX
  8
0
 10
687.22699550
 20
844.27059841
  0
VERTEX
  8
0
 10
724.01964749
 20
807.47794643
  0
SEQEND
  0
POLYLINE
  8
Default_Layer
 66
   1
 39
0.000000
 70
    1
  0
VERTEX
  8
0
 10
600.15208668
 20
607.92191328
  0
VERTEX
  8
0
 10
634.37676312
 20
690.54759131
  0
VERTEX
  8
0
 10
690.54759131
 20
690.54759131
  0
VERTEX
  8
0
 10
690.54759131
 20
634.37676312
  0
VERTEX
  8
0
 10
607.92191328
 20
600.15208668
 42
0.06939477
  0
VERTEX
  8
0
 10
600.15208668
 20
607.92191328
  0
SEQEND
  0
POLYLINE
  8
Default_Layer
 66
   1
 39
0.000000
 70
    1
  0
VERTEX
  8
0
 10
298.09019947
 20
1002.91118638
  0
VERTEX
  8
0
 10
298.03082762
 20
1002.97055823
  0
VERTEX
  8
0
 10
265.43968311
 20
970.37941371
  0
VERTEX
  8
0
 10
298.09019947
 20
937.72889735
  0
VERTEX
  8
0
 10
330.74071584
 20
970.37941371
  0
VERTEX
  8
0
 10
298.14957132
 20
1002.97055823
  0
VERTEX
  8
0
 10
298.09019947
 20
1002.91118638
  0
SEQEND
  0
POLYLINE
  8
Default_Layer
 66
   1
 39
0.000000
 70
    1
  0
VERTEX
  8
0
 10
298.09019947
 20
705.63001045
  0
VERTEX
  8
0
 10
298.03082762
 20
705.57063860
  0
VERTEX
  8
0
 10
265.43968311
 20
738.16178312
  0
VERTEX
  8
0
 10
298.09019947
 20
770.81229948
  0
VERTEX
  8
0
 10
330.74071584
 20
738.16178312
  0
VERTEX
  8
0
 10
298.14957132
 20
705.57063860
  0
VERTEX
  8
0
 10
298.09019947
 20
705.63001045
  0
SEQEND
  0
POLYLINE
  8
Default_Layer
 66
   1
 39
0.000000
 70
    1
  0
VERTEX
  8
0
 10
232.91617178
 20
864.27059841
  0
VERTEX
  8
0
 10
288.09019947
 20
864.27059841
  0
VERTEX
  8
0
 10
288.09019947
 20
919.44462610
  0
VERTEX
  8
0
 10
251.29754748
 20
956.23727809
  0
VERTEX
  8
0
 10
196.12351980
 20
901.06325040
  0
VERTEX
  8
0
 10
232.91617178
 20
864.27059841
  0
SEQEND
  0
POLYLINE
  8
Default_Layer
 66
   1
 39
0.000000
 70
    1
  0
VERTEX
  8
0
 10
159.33086781
 20
864.27059841
  0
VERTEX
  8
0
 10
181.98138417
 20
886.92111478
  0
VERTEX
  8
0
 10
204.63190054
 20
864.27059841
  0
VERTEX
  8
0
 10
159.33086781
 20
864.27059841
  0
SEQEND
  0
POLYLINE
  8
Default_Layer
 66
   1
 39
0.000000
 70
    1
  0
VERTEX
  8
0
 10
237.15541186
 20
970.37941371
  0
VERTEX
  8
0
 10
209.54122006
 20
997.99360552
  0
VERTEX
  8
0
 10
154.36719237
 20
997.99360552
  0
VERTEX
  8
0
 10
154.36719237
 20
942.81957783
  0
VERTEX
  8
0
 10
181.98138417
 20
915.20538603
  0
VERTEX
  8
0
 10
237.15541186
 20
970.37941371
  0
SEQEND
  0
POLYLINE
  8
Default_Layer
 66
   1
 39
0.000000
 70
    1
  0
VERTEX
  8
0
 10
251.29754748
 20
984.52154934
  0
VERTEX
  8
0
 10
288.09019947
 20
1021.31420133
  0
VERTEX
  8
0
 10
288.09019947
 20
1079.86138219
  0
VERTEX
  8
0
 10
234.23905024
 20
1079.86138219
  0
VERTEX
  8
0
 10
195.88177017
 20
1118.21866226
  0
VERTEX
  8
0
 10
154.36719237
 20
1076.70408447
  0
VERTEX
  8
0
 10
154.36719237
 20
1017.99360552
  0
VERTEX
  8
0
 10
217.82549131
 20
1017.99360552
  0
VERTEX
  8
0
 10
251.29754748
 20
984.52154934
  0
SEQEND
  0
POLYLINE
  8
Default_Layer
 66
   1
 39
0.000000
 70
    1
  0
VERTEX
  8
0
 10
131.04659656
 20
864.27059841
  0
VERTEX
  8
0
 10
167.83924855
 20
901.06325040
  0
VERTEX
  8
0
 10
134.36719237
 20
934.53530658
  0
VERTEX
  8
0
 10
134.36719237
 20
997.99360552
  0
VERTEX
  8
0
 10
75.65671342
 20
997.99360552
  0
VERTEX
  8
0
 10
34.14213562
 20
956.47902772
  0
VERTEX
  8
0
 10
72.49941570
 20
918.12174765
  0
VERTEX
  8
0
 10
72.49941570
 20
864.27059841
  0
VERTEX
  8
0
 10
131.04659656
 20
864.27059841
  0
SEQEND
  0
POLYLINE
  8
Default_Layer
 66
   1
 39
0.000000
 70
    1
  0
VERTEX
  8
0
 10
43.97168773
 20
1100.61928355
  0
VERTEX
  8
0
 10
78.19636417
 20
1017.99360552
  0
VERTEX
  8
0
 10
134.36719237
 20
1017.99360552
  0
VERTEX
  8
0
 10
134.36719237
 20
1074.16443371
  0
VERTEX
  8
0
 10
51.74151434
 20
1108.38911015
 42
-0.06939477
  0
VERTEX
  8
0
 10
43.97168773
 20
1100.61928355
  0
SEQEND
  0
POLYLINE
  8
Default_Layer
 66
   1
 39
0.000000
 70
    1
  0
VERTEX
  8
0
 10
363.26422716
 20
864.27059841
  0
VERTEX
  8
0
 10
308.09019947
 20
864.27059841
  0
VERTEX
  8
0
 10
308.09019947
 20
919.44462610
  0
VERTEX
  8
0
 10
344.88285146
 20
956.23727809
  0
VERTEX
  8
0
 10
400.05687915
 20
901.06325040
  0
VERTEX
  8
0
 10
363.26422716
 20
864.27059841
  0
SEQEND
  0
POLYLINE
  8
Default_Layer
 66
   1
 39
0.000000
 70
    1
  0
VERTEX
  8
0
 10
436.84953114
 20
864.27059841
  0
VERTEX
  8
0
 10
414.19901477
 20
886.92111478
  0
VERTEX
  8
0
 10
391.54849841
 20
864.27059841
  0
VERTEX
  8
0
 10
436.84953114
 20
864.27059841
  0
SEQEND
  0
POLYLINE
  8
Default_Layer
 66
   1
 39
0.000000
 70
    1
  0
VERTEX
  8
0
 10
414.19901477
 20
915.20538603
  0
VERTEX
  8
0
 10
359.02498708
 20
970.37941371
  0
VERTEX
  8
0
 10
386.63917889
 20
997.99360552
  0
VERTEX
  8
0
 10
441.81320657
 20
997.99360552
  0
VERTEX
  8
0
 10
441.81320657
 20
942.81957783
  0
VERTEX
  8
0
 10
414.19901477
 20
915.20538603
  0
SEQEND
  0
POLYLINE
  8
Default_Layer
 66
   1
 39
0.000000
 70
    1
  0
VERTEX
  8
0
 10
344.88285146
 20
984.52154934
  0
VERTEX
  8
0
 10
308.09019947
 20
1021.31420133
  0
VERTEX
  8
0
 10
308.09019947
 20
1079.86138219
  0
VERTEX
  8
0
 10
361.94134870
 20
1079.86138219
  0
VERTEX
  8
0
 10
400.29862878
 20
1118.21866226
  0
VERTEX
  8
0
 10
441.81320657
 20
1076.70408447
  0
VERTEX
  8
0
 10
441.81320657
 20
1017.99360552
  0
VERTEX
  8
0
 10
378.35490764
 20
1017.99360552
  0
VERTEX
  8
0
 10
344.88285146
 20
984.52154934
  0
SEQEND
  0
POLYLINE
  8
Default_Layer
 66
   1
 39
0.000000
 70
    1
  0
VERTEX
  8
0
 10
428.34115039
 20
901.06325040
  0
VERTEX
  8
0
 10
461.81320657
 20
934.53530658
  0
VERTEX
  8
0
 10
461.81320657
 20
997.99360552
  0
VERTEX
  8
0
 10
520.52368553
 20
997.99360552
  0
VERTEX
  8
0
 10
562.03826332
 20
956.47902772
  0
VERTEX
  8
0
 10
523.68098325
 20
918.12174765
  0
VERTEX
  8
0
 10
523.68098325
 20
864.27059841
  0
VERTEX
  8
0
 10
465.13380238
 20
864.27059841
  0
VERTEX
  8
0
 10
428.34115039
 20
901.06325040
  0
SEQEND
  0
POLYLINE
  8
Default_Layer
 66
   1
 39
0.000000
 70
    1
  0
VERTEX
  8
0
 10
552.20871121
 20
1100.61928355
  0
VERTEX
  8
0
 10
517.98403477
 20
1017.99360552
  0
VERTEX
  8
0
 10
461.81320657
 20
1017.99360552
  0
VERTEX
  8
0
 10
461.81320657
 20
1074.16443371
  0
VERTEX
  8
0
 10
544.43888460
 20
1108.38911015
 42
0.06939477
  0
VERTEX
  8
0
 10
552.20871121
 20
1100.61928355
  0
SEQEND
  0
POLYLINE
  8
Default_Layer
 66
   1
 39
0.000000
 70
    1
  0
VERTEX
  8
0
 10
232.91617178
 20
844.27059841
  0
VERTEX
  8
0
 10
288.09019947
 20
844.27059841
  0
VERTEX
  8
0
 10
288.09019947
 20
789.09657073
  0
VERTEX
  8
0
 10
251.29754748
 20
752.30391874
  0
VERTEX
  8
0
 10
196.12351980
 20
807.47794643
  0
VERTEX
  8
0
 10
232.91617178
 20
844.27059841
  0
SEQEND
  0
POLYLINE
  8
Default_Layer
 66
   1
 39
0.000000
 70
    1
  0
VERTEX
  8
0
 10
159.33086781
 20
844.27059841
  0
VERTEX
  8
0
 10
181.98138417
 20
821.62008205
  0
VERTEX
  8
0
 10
204.63190054
 20
844.27059841
  0
VERTEX
  8
0
 10
159.33086781
 20
844.27059841
  0
SEQEND
  0
POLYLINE
  8
Default_Layer
 66
   1
 39
0.000000
 70
    1
  0
VERTEX
  8
0
 10
181.98138417
 20
793.33581080
  0
VERTEX
  8
0
 10
237.15541186
 20
738.16178312
  0
VERTEX
  8
0
 10
209.54122006
 20
710.54759131
  0
VERTEX
  8
0
 10
154.36719237
 20
710.54759131
  0
VERTEX
  8
0
 10
154.36719237
 20
765.72161900
  0
VERTEX
  8
0
 10
181.98138417
 20
793.33581080
  0
SEQEND
  0
POLYLINE
  8
Default_Layer
 66
   1
 39
0.000000
 70
    1
  0
VERTEX
  8
0
 10
251.29754748
 20
724.01964749
  0
VERTEX
  8
0
 10
288.09019947
 20
687.22699550
  0
VERTEX
  8
0
 10
288.09019947
 20
628.67981464
  0
VERTEX
  8
0
 10
234.23905024
 20
628.67981464
  0
VERTEX
  8
0
 10
195.88177017
 20
590.32253457
  0
VERTEX
  8
0
 10
154.36719237
 20
631.83711236
  0
VERTEX
  8
0
 10
154.36719237
 20
690.54759131
  0
VERTEX
  8
0
 10
217.82549131
 20
690.54759131
  0
VERTEX
  8
0
 10
251.29754748
 20
724.01964749
  0
SEQEND
  0
POLYLINE
  8
Default_Layer
 66
   1
 39
0.000000
 70
    1
  0
VERTEX
  8
0
 10
167.83924855
 20
807.47794643
  0
VERTEX
  8
0
 10
134.36719237
 20
774.00589025
  0
VERTEX
  8
0
 10
134.36719237
 20
710.54759131
  0
VERTEX
  8
0
 10
75.65671342
 20
710.54759131
  0
VERTEX
  8
0
 10
34.14213562
 20
752.06216911
  0
VERTEX
  8
0
 10
72.49941570
 20
790.41944918
  0
VERTEX
  8
0
 10
72.49941570
 20
844.27059841
  0
VERTEX
  8
0
 10
131.04659656
 20
844.27059841
  0
VERTEX
  8
0
 10
167.83924855
 20
807.47794643
  0
SEQEND
  0
POLYLINE
  8
Default_Layer
 66
   1
 39
0.000000
 70
    1
  0
VERTEX
  8
0
 10
43.97168773
 20
607.92191328
  0
VERTEX
  8
0
 10
78.19636417
 20
690.54759131
  0
VERTEX
  8
0
 10
134.36719237
 20
690.54759131
  0
VERTEX
  8
0
 10
134.36719237
 20
634.37676312
  0
VERTEX
  8
0
 10
51.74151434
 20
600.15208668
 42
0.06939477
  0
VERTEX
  8
0
 10
43.97168773
 20
607.92191328
  0
SEQEND
  0
POLYLINE
  8
Default_Layer
 66
   1
 39
0.000000
 70
    1
  0
VERTEX
  8
0
 10
363.26422716
 20
844.27059841
  0
VERTEX
  8
0
 10
308.09019947
 20
844.27059841
  0
VERTEX
  8
0
 10
308.09019947
 20
789.09657073
  0
VERTEX
  8
0
 10
344.88285146
 20
752.30391874
  0
VERTEX
  8
0
 10
400.05687915
 20
807.47794643
  0
VERTEX
  8
0
 10
363.26422716
 20
844.27059841
  0
SEQEND
  0
POLYLINE
  8
Default_Layer
 66
   1
 39
0.000000
 70
    1
  0
VERTEX
  8
0
 10
436.84953114
 20
844.27059841
  0
VERTEX
  8
0
 10
414.19901477
 20
821.62008205
  0
VERTEX
  8
0
 10
391.54849841
 20
844.27059841
  0
VERTEX
  8
0
 10
436.84953114
 20
844.27059841
  0
SEQEND
  0
POLYLINE
  8
Default_Layer
 66
   1
 39
0.000000
 70
    1
  0
VERTEX
  8
0
 10
359.02498708
 20
738.16178312
  0
VERTEX
  8
0
 10
386.63917889
 20
710.54759131
  0
VERTEX
  8
0
 10
441.81320657
 20
710.54759131
  0
VERTEX
  8
0
 10
441.81320657
 20
765.72161900
  0
VERTEX
  8
0
 10
414.19901477
 20
793.33581080
  0
VERTEX
  8
0
 10
359.02498708
 20
738.16178312
  0
SEQEND
  0
POLYLINE
  8
Default_Layer
 66
   1
 39
0.000000
 70
    1
  0
VERTEX
  8
0
 10
344.88285146
 20
724.01964749
  0
VERTEX
  8
0
 10
308.09019947
 20
687.22699550
  0
VERTEX
  8
0
 10
308.09019947
 20
628.67981464
  0
VERTEX
  8
0
 10
361.94134870
 20
628.67981464
  0
VERTEX
  8
0
 10
400.29862878
 20
590.32253457
  0
VERTEX
  8
0
 10
441.81320657
 20
631.83711236
  0
VERTEX
  8
0
 10
441.81320657
 20
690.54759131
  0
VERTEX
  8
0
 10
378.35490764
 20
690.54759131
  0
VERTEX
  8
0
 10
344.88285146
 20
724.01964749
  0
SEQEND
  0
POLYLINE
  8
Default_Layer
 66
   1
 39
0.000000
 70
    1
  0
VERTEX
  8
0
 10
428.34115039
 20
807.47794643
  0
VERTEX
  8
0
 10
461.81320657
 20
774.00589025
  0
VERTEX
  8
0
 10
461.81320657
 20
710.54759131
  0
VERTEX
  8
0
 10
520.52368553
 20
710.54759131
  0
VERTEX
  8
0
 10
562.03826332
 20
752.06216911
  0
VERTEX
  8
0
 10
523.68098325
 20
790.41944918
  0
VERTEX
  8
0
 10
523.68098325
 20
844.27059841
  0
VERTEX
  8
0
 10
465.13380238
 20
844.27059841
  0
VERTEX
  8
0
 10
428.34115039
 20
807.47794643
  0
SEQEND
  0
POLYLINE
  8
Default_Layer
 66
   1
 39
0.000000
 70
    1
  0
VERTEX
  8
0
 10
552.20871121
 20
607.92191328
 42
0.06939477
  0
VERTEX
  8
0
 10
544.43888460
 20
600.15208668
  0
VERTEX
  8
0
 10
461.81320657
 20
634.37676312
  0
VERTEX
  8
0
 10
461.81320657
 20
690.54759131
  0
VERTEX
  8
0
 10
517.98403477
 20
690.54759131
  0
VERTEX
  8
0
 10
552.20871121
 20
607.92191328
  0
SEQEND
  0
ENDSEC
  0
EOF
