  0
SECTION
  2
HEADER
  9
$ACADVER
  1
AC1009
  9
$DWGCODEPAGE
  3
ansi_1252
  9
$INSBASE
 10
0.0
 20
0.0
 30
0.0
  9
$EXTMIN
 10
1.000000000000000E+20
 20
1.000000000000000E+20
 30
1.000000000000000E+20
  9
$EXTMAX
 10
-1.000000000000000E+20
 20
-1.000000000000000E+20
 30
-1.000000000000000E+20
  9
$LIMMIN
 10
0.0
 20
0.0
  9
$LIMMAX
 10
12.0
 20
9.0
  9
$ORTHOMODE
 70
     0
  9
$REGENMODE
 70
     1
  9
$FILLMODE
 70
     1
  9
$QTEXTMODE
 70
     0
  9
$MIRRTEXT
 70
     1
  9
$DRAGMODE
 70
     2
  9
$LTSCALE
 40
1.0
  9
$OSMODE
 70
    37
  9
$ATTMODE
 70
     1
  9
$TEXTSIZE
 40
0.2
  9
$TRACEWID
 40
0.05
  9
$TEXTSTYLE
  7
STANDARD
  9
$CLAYER
  8
LAYER_02
  9
$CELTYPE
  6
BYLAYER
  9
$CECOLOR
 62
   256
  9
$DIMSCALE
 40
1.0
  9
$DIMASZ
 40
0.18
  9
$DIMEXO
 40
0.0625
  9
$DIMDLI
 40
0.38
  9
$DIMRND
 40
0.0
  9
$DIMDLE
 40
0.0
  9
$DIMEXE
 40
0.18
  9
$DIMTP
 40
0.0
  9
$DIMTM
 40
0.0
  9
$DIMTXT
 40
0.18
  9
$DIMCEN
 40
0.09
  9
$DIMTSZ
 40
0.0
  9
$DIMTOL
 70
     0
  9
$DIMLIM
 70
     0
  9
$DIMTIH
 70
     1
  9
$DIMTOH
 70
     1
  9
$DIMSE1
 70
     0
  9
$DIMSE2
 70
     0
  9
$DIMTAD
 70
     0
  9
$DIMZIN
 70
     0
  9
$DIMBLK
  1

  9
$DIMASO
 70
     1
  9
$DIMSHO
 70
     1
  9
$DIMPOST
  1

  9
$DIMAPOST
  1

  9
$DIMALT
 70
     0
  9
$DIMALTD
 70
     2
  9
$DIMALTF
 40
25.4
  9
$DIMLFAC
 40
1.0
  9
$DIMTOFL
 70
     0
  9
$DIMTVP
 40
0.0
  9
$DIMTIX
 70
     0
  9
$DIMSOXD
 70
     0
  9
$DIMSAH
 70
     0
  9
$DIMBLK1
  1

  9
$DIMBLK2
  1

  9
$DIMSTYLE
  2
STANDARD_ACAD
  9
$DIMCLRD
 70
     0
  9
$DIMCLRE
 70
     0
  9
$DIMCLRT
 70
     0
  9
$DIMTFAC
 40
1.0
  9
$DIMGAP
 40
0.09
  9
$LUNITS
 70
     2
  9
$LUPREC
 70
     3
  9
$SKETCHINC
 40
0.1
  9
$FILLETRAD
 40
0.5
  9
$AUNITS
 70
     0
  9
$AUPREC
 70
     0
  9
$MENU
  1
.
  9
$ELEVATION
 40
0.0
  9
$PELEVATION
 40
0.0
  9
$THICKNESS
 40
0.0
  9
$LIMCHECK
 70
     0
  9
$CHAMFERA
 40
0.0
  9
$CHAMFERB
 40
0.0
  9
$SKPOLY
 70
     0
  9
$TDCREATE
 40
2459780.502014352
  9
$TDUPDATE
 40
2459780.502014386
  9
$TDINDWG
 40
0.0000000116
  9
$TDUSRTIMER
 40
0.0000000116
  9
$USRTIMER
 70
     1
  9
$ANGBASE
 50
0.0
  9
$ANGDIR
 70
     0
  9
$PDMODE
 70
     0
  9
$PDSIZE
 40
0.0
  9
$PLINEWID
 40
0.0
  9
$COORDS
 70
     1
  9
$SPLFRAME
 70
     0
  9
$SPLINETYPE
 70
     6
  9
$SPLINESEGS
 70
     8
  9
$ATTDIA
 70
     0
  9
$ATTREQ
 70
     1
  9
$HANDLING
 70
     1
  9
$HANDSEED
  5
18F
  9
$SURFTAB1
 70
     6
  9
$SURFTAB2
 70
     6
  9
$SURFTYPE
 70
     6
  9
$SURFU
 70
     6
  9
$SURFV
 70
     6
  9
$UCSNAME
  2

  9
$UCSORG
 10
0.0
 20
0.0
 30
0.0
  9
$UCSXDIR
 10
1.0
 20
0.0
 30
0.0
  9
$UCSYDIR
 10
0.0
 20
1.0
 30
0.0
  9
$PUCSNAME
  2

  9
$PUCSORG
 10
0.0
 20
0.0
 30
0.0
  9
$PUCSXDIR
 10
1.0
 20
0.0
 30
0.0
  9
$PUCSYDIR
 10
0.0
 20
1.0
 30
0.0
  9
$USERI1
 70
     0
  9
$USERI2
 70
     0
  9
$USERI3
 70
     0
  9
$USERI4
 70
     0
  9
$USERI5
 70
     0
  9
$USERR1
 40
0.0
  9
$USERR2
 40
0.0
  9
$USERR3
 40
0.0
  9
$USERR4
 40
0.0
  9
$USERR5
 40
0.0
  9
$WORLDVIEW
 70
     1
  9
$SHADEDGE
 70
     3
  9
$SHADEDIF
 70
    70
  9
$TILEMODE
 70
     1
  9
$MAXACTVP
 70
    64
  9
$PLIMCHECK
 70
     0
  9
$PEXTMIN
 10
1.000000000000000E+20
 20
1.000000000000000E+20
 30
1.000000000000000E+20
  9
$PEXTMAX
 10
-1.000000000000000E+20
 20
-1.000000000000000E+20
 30
-1.000000000000000E+20
  9
$PLIMMIN
 10
0.0
 20
0.0
  9
$PLIMMAX
 10
12.0
 20
9.0
  9
$UNITMODE
 70
     0
  9
$VISRETAIN
 70
     1
  9
$PLINEGEN
 70
     0
  9
$PSLTSCALE
 70
     1
  0
ENDSEC
  0
SECTION
  2
TABLES
  0
TABLE
  2
VPORT
 70
     1
  0
VPORT
  2
*ACTIVE
 70
     0
 10
0.0
 20
0.0
 11
1.0
 21
1.0
 12
10.42990654205607
 22
4.5
 13
0.0
 23
0.0
 14
0.5
 24
0.5
 15
0.5
 25
0.5
 16
0.0
 26
0.0
 36
1.0
 17
0.0
 27
0.0
 37
0.0
 40
9.0
 41
1.972972972850329
 42
50.0
 43
0.0
 44
0.0
 50
0.0
 51
0.0
 71
     0
 72
   100
 73
     1
 74
     3
 75
     0
 76
     0
 77
     0
 78
     0
  0
ENDTAB
  0
TABLE
  2
LTYPE
 70
     1
  0
LTYPE
  2
CONTINUOUS
 70
     0
  3
Solid line
 72
    65
 73
     0
 40
0.0
  0
ENDTAB
  0
TABLE
  2
LAYER
 70
     2
  0
LAYER
  2
0
 70
     0
 62
     7
  6
CONTINUOUS
  0
LAYER
  2
LAYER_02
 70
     0
 62
     7
  6
CONTINUOUS
  0
ENDTAB
  0
TABLE
  2
STYLE
 70
     1
  0
STYLE
  2
STANDARD
 70
     0
 40
0.0
 41
1.0
 50
0.0
 71
     0
 42
0.2
  3
txt
  4

  0
ENDTAB
  0
TABLE
  2
VIEW
 70
     0
  0
ENDTAB
  0
TABLE
  2
UCS
 70
     0
  0
ENDTAB
  0
TABLE
  2
APPID
 70
     2
  0
APPID
  2
ACAD
 70
     0
  0
APPID
  2
RHINO
 70
     0
  0
ENDTAB
  0
TABLE
  2
DIMSTYLE
 70
     1
  0
DIMSTYLE
  2
STANDARD_ACAD
 70
     0
  3

  4

  5

  6

  7

 40
1.0
 41
0.18
 42
0.0625
 43
0.38
 44
0.18
 45
0.0
 46
0.0
 47
0.0
 48
0.0
140
0.18
141
0.09
142
0.0
143
25.4
144
1.0
145
0.0
146
1.0
147
0.09
 71
     0
 72
     0
 73
     1
 74
     1
 75
     0
 76
     0
 77
     0
 78
     0
170
     0
171
     2
172
     0
173
     0
174
     0
175
     0
176
     0
177
     0
178
     0
  0
ENDTAB
  0
ENDSEC
  0
SECTION
  2
BLOCKS
  0
BLOCK
  8
0
  2
$MODEL_SPACE
 70
     0
 10
0.0
 20
0.0
 30
0.0
  3
$MODEL_SPACE
  1

  0
ENDBLK
  5
21
  8
0
  0
BLOCK
 67
     1
  8
0
  2
$PAPER_SPACE
 70
     0
 10
0.0
 20
0.0
 30
0.0
  3
$PAPER_SPACE
  1

  0
ENDBLK
  5
1D
 67
     1
  8
0
  0
ENDSEC
  0
SECTION
  2
ENTITIES
  0
POLYLINE
  5
70
  8
LAYER_02
 66
     1
 10
0.0
 20
0.0
 30
0.0
 70
     1
  0
VERTEX
  5
71
  8
LAYER_02
 10
1108.911246117034
 20
-2.601519689015518
 30
0.0
  0
VERTEX
  5
72
  8
LAYER_02
 10
1695.373042930965
 20
-2.601519689015518
 30
0.0
  0
VERTEX
  5
73
  8
LAYER_02
 10
1695.373042930965
 20
524.7493357851671
 30
0.0
  0
VERTEX
  5
74
  8
LAYER_02
 10
1108.911246117034
 20
524.7493357851671
 30
0.0
  0
SEQEND
  5
75
  8
LAYER_02
  0
POLYLINE
  5
76
  8
LAYER_02
 66
     1
 10
0.0
 20
0.0
 30
0.0
 70
     1
  0
VERTEX
  5
77
  8
LAYER_02
 10
1552.032431259537
 20
59.11773689641305
 30
0.0
 42
-0.8142596305898531
  0
VERTEX
  5
78
  8
LAYER_02
 10
1417.979964601969
 20
94.56798892020554
 30
0.0
 42
-0.1469920587849703
  0
VERTEX
  5
79
  8
LAYER_02
 10
1403.585422938854
 20
90.78425300502322
 30
0.0
 42
-0.1140436595449457
  0
VERTEX
  5
7A
  8
LAYER_02
 10
1403.738343971129
 20
42.31117189120835
 30
0.0
 42
-0.1115528981077232
  0
VERTEX
  5
7B
  8
LAYER_02
 10
1421.863196295698
 20
17.39848031098483
 30
0.0
  0
VERTEX
  5
7C
  8
LAYER_02
 10
1547.766842422613
 20
17.39848031098478
 30
0.0
 42
-0.1309874041392335
  0
VERTEX
  5
7D
  8
LAYER_02
 10
1568.035828105706
 20
48.28848325395581
 30
0.0
 42
-0.2092665814097259
  0
SEQEND
  5
7E
  8
LAYER_02
  0
POLYLINE
  5
7F
  8
LAYER_02
 66
     1
 10
0.0
 20
0.0
 30
0.0
 70
     1
  0
VERTEX
  5
80
  8
LAYER_02
 10
1594.930192001019
 20
63.42961599664685
 30
0.0
 42
-0.1191983137088837
  0
VERTEX
  5
81
  8
LAYER_02
 10
1628.591032577889
 20
65.40549928875791
 30
0.0
 42
-0.3412621472915039
  0
VERTEX
  5
82
  8
LAYER_02
 10
1601.812471700321
 20
138.457196168036
 30
0.0
 42
-0.3706195004476903
  0
VERTEX
  5
83
  8
LAYER_02
 10
1548.372397836314
 20
128.772824328063
 30
0.0
 42
-0.1371217829988968
  0
VERTEX
  5
84
  8
LAYER_02
 10
1559.45514849988
 20
92.30392887856587
 30
0.0
 42
-0.721918251625673
  0
SEQEND
  5
85
  8
LAYER_02
  0
POLYLINE
  5
86
  8
LAYER_02
 66
     1
 10
0.0
 20
0.0
 30
0.0
 70
     1
  0
VERTEX
  5
87
  8
LAYER_02
 10
1361.549437875409
 20
17.39848031098506
 30
0.0
 42
0.0904254764682359
  0
VERTEX
  5
88
  8
LAYER_02
 10
1374.7404022044
 20
42.69329645292031
 30
0.0
 42
0.3544397989741758
  0
VERTEX
  5
89
  8
LAYER_02
 10
1309.387483877764
 20
17.3984803109848
 30
0.0
  0
SEQEND
  5
8A
  8
LAYER_02
  0
POLYLINE
  5
8B
  8
LAYER_02
 66
     1
 10
0.0
 20
0.0
 30
0.0
 70
     1
  0
VERTEX
  5
8C
  8
LAYER_02
 10
1293.464755203343
 20
17.39848031098479
 30
0.0
 42
-0.3807306757442528
  0
VERTEX
  5
8D
  8
LAYER_02
 10
1377.728384181493
 20
56.70282919174628
 30
0.0
 42
0.6308258680970855
  0
VERTEX
  5
8E
  8
LAYER_02
 10
1256.520927424841
 20
133.5709217873398
 30
0.0
 42
-0.4009624646656896
  0
VERTEX
  5
8F
  8
LAYER_02
 10
1254.948431725826
 20
17.39848031098468
 30
0.0
  0
SEQEND
  5
90
  8
LAYER_02
  0
POLYLINE
  5
91
  8
LAYER_02
 66
     1
 10
0.0
 20
0.0
 30
0.0
 70
     1
  0
VERTEX
  5
92
  8
LAYER_02
 10
1428.050789331765
 20
127.2819077574609
 30
0.0
 42
-0.0550334277356347
  0
VERTEX
  5
93
  8
LAYER_02
 10
1437.488231854725
 20
139.6257490808289
 30
0.0
 42
-0.1018142279211647
  0
VERTEX
  5
94
  8
LAYER_02
 10
1416.770963890449
 20
139.3853737524915
 30
0.0
 42
-0.1642579298858503
  0
SEQEND
  5
95
  8
LAYER_02
  0
POLYLINE
  5
96
  8
LAYER_02
 66
     1
 10
0.0
 20
0.0
 30
0.0
 70
     1
  0
VERTEX
  5
97
  8
LAYER_02
 10
1274.378288232158
 20
296.8411341749955
 30
0.0
 42
2.418090282268135
  0
VERTEX
  5
98
  8
LAYER_02
 10
1290.305896576991
 20
329.1466588291567
 30
0.0
 42
-0.1442955408762829
  0
SEQEND
  5
99
  8
LAYER_02
  0
POLYLINE
  5
9A
  8
LAYER_02
 66
     1
 10
0.0
 20
0.0
 30
0.0
 70
     1
  0
VERTEX
  5
9B
  8
LAYER_02
 10
1652.631326492309
 20
56.39548504273316
 30
0.0
 42
-0.1105659246425084
  0
VERTEX
  5
9C
  8
LAYER_02
 10
1675.373042930964
 20
34.83409819035761
 30
0.0
  0
VERTEX
  5
9D
  8
LAYER_02
 10
1675.373042930964
 20
56.94667261793438
 30
0.0
 42
-0.0900945164476117
  0
SEQEND
  5
9E
  8
LAYER_02
  0
POLYLINE
  5
9F
  8
LAYER_02
 66
     1
 10
0.0
 20
0.0
 30
0.0
 70
     1
  0
VERTEX
  5
A0
  8
LAYER_02
 10
1199.830706656421
 20
397.3778915754885
 30
0.0
 42
-0.1538665868741659
  0
VERTEX
  5
A1
  8
LAYER_02
 10
1178.184163949675
 20
416.5006821382364
 30
0.0
 42
-0.3778173897236061
  0
VERTEX
  5
A2
  8
LAYER_02
 10
1139.540135884323
 20
366.0066244269731
 30
0.0
 42
-0.1856675037532689
  0
VERTEX
  5
A3
  8
LAYER_02
 10
1164.094326861909
 20
345.7799034081622
 30
0.0
 42
-0.263407301307226
  0
SEQEND
  5
A4
  8
LAYER_02
  0
POLYLINE
  5
A5
  8
LAYER_02
 66
     1
 10
0.0
 20
0.0
 30
0.0
 70
     1
  0
VERTEX
  5
A6
  8
LAYER_02
 10
1315.795019324052
 20
172.5066656634748
 30
0.0
 42
0.0787165392716777
  0
VERTEX
  5
A7
  8
LAYER_02
 10
1282.110808892462
 20
172.560190803094
 30
0.0
 42
0.9732258994103565
  0
VERTEX
  5
A8
  8
LAYER_02
 10
1216.074696431977
 20
258.5363254849437
 30
0.0
 42
0.1309176402459629
  0
VERTEX
  5
A9
  8
LAYER_02
 10
1211.612477470775
 20
278.3336790172969
 30
0.0
 42
0.2427174943616893
  0
VERTEX
  5
AA
  8
LAYER_02
 10
1268.565670748109
 20
291.2836259006032
 30
0.0
 42
0.2674788823425274
  0
VERTEX
  5
AB
  8
LAYER_02
 10
1295.380129635328
 20
272.2021065643294
 30
0.0
 42
0.5229815827446852
  0
SEQEND
  5
AC
  8
LAYER_02
  0
POLYLINE
  5
AD
  8
LAYER_02
 66
     1
 10
0.0
 20
0.0
 30
0.0
 70
     1
  0
VERTEX
  5
AE
  8
LAYER_02
 10
1675.373042930964
 20
459.5036737937027
 30
0.0
 42
-0.1255866240145133
  0
VERTEX
  5
AF
  8
LAYER_02
 10
1644.562896138801
 20
461.3549412265085
 30
0.0
 42
-0.3796241667178684
  0
VERTEX
  5
B0
  8
LAYER_02
 10
1634.389894793355
 20
411.8517103227067
 30
0.0
 42
-0.1680524325837013
  0
VERTEX
  5
B1
  8
LAYER_02
 10
1675.373042930964
 20
406.1781637519712
 30
0.0
  0
SEQEND
  5
B2
  8
LAYER_02
  0
POLYLINE
  5
B3
  8
LAYER_02
 66
     1
 10
0.0
 20
0.0
 30
0.0
 70
     1
  0
VERTEX
  5
B4
  8
LAYER_02
 10
1531.811735903601
 20
146.8517481313344
 30
0.0
 42
-0.2896026030693784
  0
VERTEX
  5
B5
  8
LAYER_02
 10
1537.178660374994
 20
191.0597880898612
 30
0.0
 42
-0.2186968705545795
  0
VERTEX
  5
B6
  8
LAYER_02
 10
1477.568808169738
 20
196.0685532669581
 30
0.0
 42
-0.1993277483021305
  0
VERTEX
  5
B7
  8
LAYER_02
 10
1466.971982120871
 20
158.1031564985073
 30
0.0
 42
-0.2464980903744095
  0
SEQEND
  5
B8
  8
LAYER_02
  0
POLYLINE
  5
B9
  8
LAYER_02
 66
     1
 10
0.0
 20
0.0
 30
0.0
 70
     1
  0
VERTEX
  5
BA
  8
LAYER_02
 10
1412.042522804512
 20
415.5961556773466
 30
0.0
 42
0.1268127590156098
  0
VERTEX
  5
BB
  8
LAYER_02
 10
1430.727205783615
 20
424.9452910814101
 30
0.0
 42
0.0766190090736471
  0
VERTEX
  5
BC
  8
LAYER_02
 10
1428.901039599829
 20
405.8854467440569
 30
0.0
 42
0.0697803186195275
  0
SEQEND
  5
BD
  8
LAYER_02
  0
POLYLINE
  5
BE
  8
LAYER_02
 66
     1
 10
0.0
 20
0.0
 30
0.0
 70
     1
  0
VERTEX
  5
BF
  8
LAYER_02
 10
1289.92930270572
 20
352.869811387599
 30
0.0
 42
0.2895030211994923
  0
VERTEX
  5
C0
  8
LAYER_02
 10
1316.608343756168
 20
361.1836100505728
 30
0.0
 42
0.1085611041825044
  0
VERTEX
  5
C1
  8
LAYER_02
 10
1318.564334820535
 20
331.186575503513
 30
0.0
 42
0.2231840014053643
  0
VERTEX
  5
C2
  8
LAYER_02
 10
1291.174988551414
 20
337.1414758611974
 30
0.0
 42
0.0621573276999276
  0
SEQEND
  5
C3
  8
LAYER_02
  0
POLYLINE
  5
C4
  8
LAYER_02
 66
     1
 10
0.0
 20
0.0
 30
0.0
 70
     1
  0
VERTEX
  5
C5
  8
LAYER_02
 10
1349.658299501048
 20
290.6707743662975
 30
0.0
 42
0.0882541547406397
  0
VERTEX
  5
C6
  8
LAYER_02
 10
1327.963176146904
 20
290.1728993588076
 30
0.0
 42
0.1288109694552388
  0
VERTEX
  5
C7
  8
LAYER_02
 10
1331.458424932047
 20
306.508879623123
 30
0.0
 42
0.0867630720969483
  0
SEQEND
  5
C8
  8
LAYER_02
  0
POLYLINE
  5
C9
  8
LAYER_02
 66
     1
 10
0.0
 20
0.0
 30
0.0
 70
     1
  0
VERTEX
  5
CA
  8
LAYER_02
 10
1255.73316801115
 20
472.6397245922666
 30
0.0
 42
0.1105964109191168
  0
VERTEX
  5
CB
  8
LAYER_02
 10
1292.575365226764
 20
462.0020682602021
 30
0.0
 42
0.4335696478854635
  0
VERTEX
  5
CC
  8
LAYER_02
 10
1296.211237638024
 20
404.2839142643367
 30
0.0
 42
0.3232859225124809
  0
VERTEX
  5
CD
  8
LAYER_02
 10
1271.718769844882
 20
385.9064555719619
 30
0.0
 42
0.1200634091817151
  0
VERTEX
  5
CE
  8
LAYER_02
 10
1245.658390578183
 20
401.0862371889838
 30
0.0
 42
0.4533021051586877
  0
SEQEND
  5
CF
  8
LAYER_02
  0
POLYLINE
  5
D0
  8
LAYER_02
 66
     1
 10
0.0
 20
0.0
 30
0.0
 70
     1
  0
VERTEX
  5
D1
  8
LAYER_02
 10
1675.373042930964
 20
153.5819783697561
 30
0.0
 42
1.443735946535044
  0
VERTEX
  5
D2
  8
LAYER_02
 10
1675.373042930965
 20
84.9460525151442
 30
0.0
  0
SEQEND
  5
D3
  8
LAYER_02
  0
POLYLINE
  5
D4
  8
LAYER_02
 66
     1
 10
0.0
 20
0.0
 30
0.0
 70
     1
  0
VERTEX
  5
D5
  8
LAYER_02
 10
1638.514089610418
 20
287.0104689321544
 30
0.0
 42
0.3193638525274212
  0
VERTEX
  5
D6
  8
LAYER_02
 10
1675.373042930965
 20
218.7200626756418
 30
0.0
  0
VERTEX
  5
D7
  8
LAYER_02
 10
1675.373042930964
 20
293.3597699645128
 30
0.0
 42
-0.1511198073732399
  0
SEQEND
  5
D8
  8
LAYER_02
  0
POLYLINE
  5
D9
  8
LAYER_02
 66
     1
 10
0.0
 20
0.0
 30
0.0
 70
     1
  0
VERTEX
  5
DA
  8
LAYER_02
 10
1128.911246117035
 20
294.605638424328
 30
0.0
 42
0.8911902495311015
  0
VERTEX
  5
DB
  8
LAYER_02
 10
1128.911246117035
 20
353.336252987298
 30
0.0
  0
SEQEND
  5
DC
  8
LAYER_02
  0
POLYLINE
  5
DD
  8
LAYER_02
 66
     1
 10
0.0
 20
0.0
 30
0.0
 70
     1
  0
VERTEX
  5
DE
  8
LAYER_02
 10
1629.044519052455
 20
504.749335785167
 30
0.0
 42
0.3793640888685775
  0
VERTEX
  5
DF
  8
LAYER_02
 10
1675.373042930964
 20
484.5664526468082
 30
0.0
  0
VERTEX
  5
E0
  8
LAYER_02
 10
1675.373042930964
 20
504.7493357851671
 30
0.0
  0
SEQEND
  5
E1
  8
LAYER_02
  0
POLYLINE
  5
E2
  8
LAYER_02
 66
     1
 10
0.0
 20
0.0
 30
0.0
 70
     1
  0
VERTEX
  5
E3
  8
LAYER_02
 10
1170.153548424892
 20
17.39848031098484
 30
0.0
  0
VERTEX
  5
E4
  8
LAYER_02
 10
1202.848224301673
 20
17.39848031098475
 30
0.0
 42
-0.3037006856461062
  0
VERTEX
  5
E5
  8
LAYER_02
 10
1217.059426304538
 20
136.2739626194496
 30
0.0
 42
0.9777111419096353
  0
SEQEND
  5
E6
  8
LAYER_02
  0
POLYLINE
  5
E7
  8
LAYER_02
 66
     1
 10
0.0
 20
0.0
 30
0.0
 70
     1
  0
VERTEX
  5
E8
  8
LAYER_02
 10
1175.615627631686
 20
158.1417614184267
 30
0.0
 42
-0.2146973588501379
  0
VERTEX
  5
E9
  8
LAYER_02
 10
1163.921886225189
 20
172.5492317403229
 30
0.0
 42
-0.095132404016604
  0
VERTEX
  5
EA
  8
LAYER_02
 10
1151.909724021698
 20
148.5457845941452
 30
0.0
 42
-0.0764810068576334
  0
SEQEND
  5
EB
  8
LAYER_02
  0
POLYLINE
  5
EC
  8
LAYER_02
 66
     1
 10
0.0
 20
0.0
 30
0.0
 70
     1
  0
VERTEX
  5
ED
  8
LAYER_02
 10
1240.897118902692
 20
120.731510014105
 30
0.0
 42
0.3417052561996775
  0
VERTEX
  5
EE
  8
LAYER_02
 10
1231.484118922674
 20
23.86751568701217
 30
0.0
 42
0.4618805985314138
  0
SEQEND
  5
EF
  8
LAYER_02
  0
POLYLINE
  5
F0
  8
LAYER_02
 66
     1
 10
0.0
 20
0.0
 30
0.0
 70
     1
  0
VERTEX
  5
F1
  8
LAYER_02
 10
1586.276172620931
 20
330.8818994681275
 30
0.0
 42
0.1380818008233126
  0
VERTEX
  5
F2
  8
LAYER_02
 10
1605.001750729271
 20
302.1427602465279
 30
0.0
 42
0.1151510314124694
  0
VERTEX
  5
F3
  8
LAYER_02
 10
1604.984274651497
 20
255.4837732780603
 30
0.0
 42
0.2083249368230237
  0
VERTEX
  5
F4
  8
LAYER_02
 10
1584.303057992378
 20
253.4373331718805
 30
0.0
 42
0.2451663977435628
  0
VERTEX
  5
F5
  8
LAYER_02
 10
1557.828783174891
 20
314.2041159171087
 30
0.0
 42
0.2555725727569045
  0
SEQEND
  5
F6
  8
LAYER_02
  0
POLYLINE
  5
F7
  8
LAYER_02
 66
     1
 10
0.0
 20
0.0
 30
0.0
 70
     1
  0
VERTEX
  5
F8
  8
LAYER_02
 10
1173.605549058956
 20
455.975766292025
 30
0.0
 42
-0.0869616307247269
  0
VERTEX
  5
F9
  8
LAYER_02
 10
1159.872626866643
 20
451.0205842882704
 30
0.0
 42
-0.0913801845898978
  0
VERTEX
  5
FA
  8
LAYER_02
 10
1171.416297550473
 20
437.9631201206847
 30
0.0
 42
-0.0952840139998504
  0
SEQEND
  5
FB
  8
LAYER_02
  0
POLYLINE
  5
FC
  8
LAYER_02
 66
     1
 10
0.0
 20
0.0
 30
0.0
 70
     1
  0
VERTEX
  5
FD
  8
LAYER_02
 10
1396.697244120621
 20
497.8486758626896
 30
0.0
 42
-0.138674794499383
  0
VERTEX
  5
FE
  8
LAYER_02
 10
1385.779698265674
 20
504.7493357851671
 30
0.0
  0
VERTEX
  5
FF
  8
LAYER_02
 10
1373.330247871019
 20
504.7493357851671
 30
0.0
 42
-0.1433343796504661
  0
VERTEX
  5
100
  8
LAYER_02
 10
1337.254569032343
 20
471.1575699167878
 30
0.0
 42
-0.4623631148754377
  0
VERTEX
  5
101
  8
LAYER_02
 10
1354.709891944292
 20
413.3740188334654
 30
0.0
 42
-0.1011523612860218
  0
VERTEX
  5
102
  8
LAYER_02
 10
1381.825716386582
 20
420.5618496961565
 30
0.0
 42
-0.7015075288225469
  0
SEQEND
  5
103
  8
LAYER_02
  0
POLYLINE
  5
104
  8
LAYER_02
 66
     1
 10
0.0
 20
0.0
 30
0.0
 70
     1
  0
VERTEX
  5
105
  8
LAYER_02
 10
1537.618246760323
 20
497.9251195948754
 30
0.0
 42
-0.4418745807218034
  0
VERTEX
  5
106
  8
LAYER_02
 10
1435.210863630789
 20
504.7493357851671
 30
0.0
  0
VERTEX
  5
107
  8
LAYER_02
 10
1421.099499179287
 20
504.749335785167
 30
0.0
 42
-0.1401805175735943
  0
VERTEX
  5
108
  8
LAYER_02
 10
1410.047406375717
 20
497.8092391111875
 30
0.0
 42
-0.4025757940253284
  0
VERTEX
  5
109
  8
LAYER_02
 10
1444.784227685374
 20
451.3689434958123
 30
0.0
 42
-0.8721781991930191
  0
VERTEX
  5
10A
  8
LAYER_02
 10
1548.041249990321
 20
381.7802158519931
 30
0.0
 42
-0.326256668866838
  0
VERTEX
  5
10B
  8
LAYER_02
 10
1585.78713256999
 20
367.0143336927313
 30
0.0
 42
-0.193690409943911
  0
VERTEX
  5
10C
  8
LAYER_02
 10
1614.711514970719
 20
404.3889443237802
 30
0.0
 42
-0.6370803296741382
  0
VERTEX
  5
10D
  8
LAYER_02
 10
1580.488442176943
 20
464.3276444684336
 30
0.0
 42
-0.4773853109270005
  0
SEQEND
  5
10E
  8
LAYER_02
  0
POLYLINE
  5
10F
  8
LAYER_02
 66
     1
 10
0.0
 20
0.0
 30
0.0
 70
     1
  0
VERTEX
  5
110
  8
LAYER_02
 10
1550.704090462768
 20
504.7493357851668
 30
0.0
 42
1.327006839993274
  0
VERTEX
  5
111
  8
LAYER_02
 10
1594.572182083514
 20
504.7493357851669
 30
0.0
  0
SEQEND
  5
112
  8
LAYER_02
  0
POLYLINE
  5
113
  8
LAYER_02
 66
     1
 10
0.0
 20
0.0
 30
0.0
 70
     1
  0
VERTEX
  5
114
  8
LAYER_02
 10
1232.899736736027
 20
151.3412762053428
 30
0.0
 42
-0.0385204869795597
  0
VERTEX
  5
115
  8
LAYER_02
 10
1246.737403484552
 20
160.4402818749085
 30
0.0
 42
-0.2016323148393052
  0
VERTEX
  5
116
  8
LAYER_02
 10
1208.361963093654
 20
177.5707912816539
 30
0.0
 42
-0.2266726885730004
  0
VERTEX
  5
117
  8
LAYER_02
 10
1199.367700273936
 20
160.2775941512161
 30
0.0
 42
-0.1042971111343245
  0
SEQEND
  5
118
  8
LAYER_02
  0
POLYLINE
  5
119
  8
LAYER_02
 66
     1
 10
0.0
 20
0.0
 30
0.0
 70
     1
  0
VERTEX
  5
11A
  8
LAYER_02
 10
1322.696028376276
 20
380.9223028050814
 30
0.0
 42
0.157104777290018
  0
VERTEX
  5
11B
  8
LAYER_02
 10
1316.178246025741
 20
395.578035080543
 30
0.0
 42
0.1106801258097449
  0
VERTEX
  5
11C
  8
LAYER_02
 10
1333.437773331622
 20
397.0975302266037
 30
0.0
 42
0.0696420193877382
  0
SEQEND
  5
11D
  8
LAYER_02
  0
POLYLINE
  5
11E
  8
LAYER_02
 66
     1
 10
0.0
 20
0.0
 30
0.0
 70
     1
  0
VERTEX
  5
11F
  8
LAYER_02
 10
1128.911246117035
 20
147.214448114239
 30
0.0
 42
0.4996158975914411
  0
VERTEX
  5
120
  8
LAYER_02
 10
1128.911246117035
 20
236.4431102107708
 30
0.0
  0
SEQEND
  5
121
  8
LAYER_02
  0
POLYLINE
  5
122
  8
LAYER_02
 66
     1
 10
0.0
 20
0.0
 30
0.0
 70
     1
  0
VERTEX
  5
123
  8
LAYER_02
 10
1394.719723955726
 20
17.39848031098464
 30
0.0
  0
VERTEX
  5
124
  8
LAYER_02
 10
1405.940467621277
 20
17.39848031098474
 30
0.0
 42
0.0532195940488928
  0
VERTEX
  5
125
  8
LAYER_02
 10
1399.014848399294
 20
26.96544096566157
 30
0.0
 42
-0.0243702994094313
  0
SEQEND
  5
126
  8
LAYER_02
  0
POLYLINE
  5
127
  8
LAYER_02
 66
     1
 10
0.0
 20
0.0
 30
0.0
 70
     1
  0
VERTEX
  5
128
  8
LAYER_02
 10
1178.426818277145
 20
299.4391623838355
 30
0.0
 42
0.1244204415688751
  0
VERTEX
  5
129
  8
LAYER_02
 10
1159.506718499035
 20
295.5367489621298
 30
0.0
 42
0.1241554698607524
  0
VERTEX
  5
12A
  8
LAYER_02
 10
1168.926441849305
 20
315.0547048290153
 30
0.0
 42
0.0721055910602148
  0
SEQEND
  5
12B
  8
LAYER_02
  0
POLYLINE
  5
12C
  8
LAYER_02
 66
     1
 10
0.0
 20
0.0
 30
0.0
 70
     1
  0
VERTEX
  5
12D
  8
LAYER_02
 10
1444.105575470441
 20
238.157006172286
 30
0.0
 42
0.215331383318801
  0
VERTEX
  5
12E
  8
LAYER_02
 10
1401.915052425323
 20
234.964021080034
 30
0.0
 42
0.2326519460708175
  0
VERTEX
  5
12F
  8
LAYER_02
 10
1373.496696760024
 20
281.6932719196145
 30
0.0
 42
0.1269883041437172
  0
VERTEX
  5
130
  8
LAYER_02
 10
1408.410502131681
 20
284.3276874753841
 30
0.0
 42
0.7149810932255442
  0
VERTEX
  5
131
  8
LAYER_02
 10
1441.234280443735
 20
255.4782108710668
 30
0.0
 42
0.0614908108694767
  0
SEQEND
  5
132
  8
LAYER_02
  0
POLYLINE
  5
133
  8
LAYER_02
 66
     1
 10
0.0
 20
0.0
 30
0.0
 70
     1
  0
VERTEX
  5
134
  8
LAYER_02
 10
1242.110898955314
 20
504.749335785167
 30
0.0
 42
0.479300402989908
  0
VERTEX
  5
135
  8
LAYER_02
 10
1353.701622197208
 20
504.749335785167
 30
0.0
  0
SEQEND
  5
136
  8
LAYER_02
  0
POLYLINE
  5
137
  8
LAYER_02
 66
     1
 10
0.0
 20
0.0
 30
0.0
 70
     1
  0
VERTEX
  5
138
  8
LAYER_02
 10
1455.49498297576
 20
358.0846894952837
 30
0.0
 42
0.2920189674030939
  0
VERTEX
  5
139
  8
LAYER_02
 10
1523.064214729891
 20
355.0713448271694
 30
0.0
 42
0.2088855110500875
  0
VERTEX
  5
13A
  8
LAYER_02
 10
1529.094750065837
 20
328.2285344926557
 30
0.0
 42
0.3518178286034653
  0
VERTEX
  5
13B
  8
LAYER_02
 10
1448.202755194364
 20
289.3990297468658
 30
0.0
 42
0.2038084696536101
  0
VERTEX
  5
13C
  8
LAYER_02
 10
1432.549207249743
 20
298.4344077188063
 30
0.0
 42
0.2414157449946731
  0
SEQEND
  5
13D
  8
LAYER_02
  0
POLYLINE
  5
13E
  8
LAYER_02
 66
     1
 10
0.0
 20
0.0
 30
0.0
 70
     1
  0
VERTEX
  5
13F
  8
LAYER_02
 10
1675.373042930964
 20
377.0650837808013
 30
0.0
  0
VERTEX
  5
140
  8
LAYER_02
 10
1675.373042930964
 20
387.0775686940489
 30
0.0
 42
0.8980708325720241
  0
VERTEX
  5
141
  8
LAYER_02
 10
1610.699408129542
 20
319.4265912647941
 30
0.0
 42
-0.2213374412987993
  0
SEQEND
  5
142
  8
LAYER_02
  0
POLYLINE
  5
143
  8
LAYER_02
 66
     1
 10
0.0
 20
0.0
 30
0.0
 70
     1
  0
VERTEX
  5
144
  8
LAYER_02
 10
1616.251583099724
 20
480.1266305293897
 30
0.0
 42
-0.0654936978193759
  0
VERTEX
  5
145
  8
LAYER_02
 10
1607.344530538171
 20
493.7546025922038
 30
0.0
 42
-0.1127319567432641
  0
VERTEX
  5
146
  8
LAYER_02
 10
1601.861204221439
 20
479.1552804556869
 30
0.0
 42
-0.0955599769442197
  0
SEQEND
  5
147
  8
LAYER_02
  0
POLYLINE
  5
148
  8
LAYER_02
 66
     1
 10
0.0
 20
0.0
 30
0.0
 70
     1
  0
VERTEX
  5
149
  8
LAYER_02
 10
1128.911246117035
 20
378.4457217791742
 30
0.0
 42
1.038390798849986
  0
VERTEX
  5
14A
  8
LAYER_02
 10
1128.911246117035
 20
447.902537201063
 30
0.0
  0
SEQEND
  5
14B
  8
LAYER_02
  0
POLYLINE
  5
14C
  8
LAYER_02
 66
     1
 10
0.0
 20
0.0
 30
0.0
 70
     1
  0
VERTEX
  5
14D
  8
LAYER_02
 10
1653.544814162655
 20
17.39848031098448
 30
0.0
 42
0.5667463790482713
  0
VERTEX
  5
14E
  8
LAYER_02
 10
1578.146867746761
 20
17.39848031098473
 30
0.0
  0
SEQEND
  5
14F
  8
LAYER_02
  0
POLYLINE
  5
150
  8
LAYER_02
 66
     1
 10
0.0
 20
0.0
 30
0.0
 70
     1
  0
VERTEX
  5
151
  8
LAYER_02
 10
1128.911246117035
 20
254.6253709556608
 30
0.0
 42
-0.0430617419223145
  0
VERTEX
  5
152
  8
LAYER_02
 10
1139.172610861093
 20
247.9583675288769
 30
0.0
 42
-0.250988693835145
  0
VERTEX
  5
153
  8
LAYER_02
 10
1145.829041398407
 20
284.586718808341
 30
0.0
 42
-0.1002075354680956
  0
VERTEX
  5
154
  8
LAYER_02
 10
1128.911246117034
 20
279.789030031539
 30
0.0
  0
SEQEND
  5
155
  8
LAYER_02
  0
POLYLINE
  5
156
  8
LAYER_02
 66
     1
 10
0.0
 20
0.0
 30
0.0
 70
     1
  0
VERTEX
  5
157
  8
LAYER_02
 10
1166.565298643519
 20
190.2506632889662
 30
0.0
 42
-0.3921500284555416
  0
VERTEX
  5
158
  8
LAYER_02
 10
1196.197265781628
 20
198.3894319767969
 30
0.0
 42
-0.1247838789995799
  0
VERTEX
  5
159
  8
LAYER_02
 10
1194.697223987387
 20
224.9977378418501
 30
0.0
 42
-0.2448963496691771
  0
VERTEX
  5
15A
  8
LAYER_02
 10
1158.26969238945
 20
225.209392752235
 30
0.0
 42
-0.1282776716169524
  0
SEQEND
  5
15B
  8
LAYER_02
  0
POLYLINE
  5
15C
  8
LAYER_02
 66
     1
 10
0.0
 20
0.0
 30
0.0
 70
     1
  0
VERTEX
  5
15D
  8
LAYER_02
 10
1573.284858282331
 20
219.9919262477921
 30
0.0
 42
0.6465042616055545
  0
VERTEX
  5
15E
  8
LAYER_02
 10
1620.742419319969
 20
220.0840157916326
 30
0.0
 42
0.152908750734427
  0
VERTEX
  5
15F
  8
LAYER_02
 10
1669.256693722598
 20
182.5387770177216
 30
0.0
 42
0.2753920551453886
  0
VERTEX
  5
160
  8
LAYER_02
 10
1610.053512565527
 20
155.3261164570243
 30
0.0
 42
0.545891121348489
  0
VERTEX
  5
161
  8
LAYER_02
 10
1561.148842505518
 20
205.5416579456594
 30
0.0
 42
0.0661277002436274
  0
SEQEND
  5
162
  8
LAYER_02
  0
POLYLINE
  5
163
  8
LAYER_02
 66
     1
 10
0.0
 20
0.0
 30
0.0
 70
     1
  0
VERTEX
  5
164
  8
LAYER_02
 10
1383.835578564372
 20
132.1950687396458
 30
0.0
 42
-0.2593758820156015
  0
VERTEX
  5
165
  8
LAYER_02
 10
1406.817168812728
 20
142.3841776520646
 30
0.0
 42
-0.2462565272683631
  0
VERTEX
  5
166
  8
LAYER_02
 10
1376.285123454967
 20
179.0798237098493
 30
0.0
 42
-0.1803101645574154
  0
VERTEX
  5
167
  8
LAYER_02
 10
1334.518389947048
 20
167.7547843952464
 30
0.0
 42
-0.1441428631513808
  0
SEQEND
  5
168
  8
LAYER_02
  0
POLYLINE
  5
169
  8
LAYER_02
 66
     1
 10
0.0
 20
0.0
 30
0.0
 70
     1
  0
VERTEX
  5
16A
  8
LAYER_02
 10
1675.373042930964
 20
312.4603650224354
 30
0.0
  0
VERTEX
  5
16B
  8
LAYER_02
 10
1675.373042930964
 20
338.8315937550784
 30
0.0
 42
0.1883574008644559
  0
VERTEX
  5
16C
  8
LAYER_02
 10
1642.499172362651
 20
302.8886551014259
 30
0.0
 42
0.1883150504395993
  0
SEQEND
  5
16D
  8
LAYER_02
  0
POLYLINE
  5
16E
  8
LAYER_02
 66
     1
 10
0.0
 20
0.0
 30
0.0
 70
     1
  0
VERTEX
  5
16F
  8
LAYER_02
 10
1237.857315852186
 20
485.6067483721278
 30
0.0
 42
-0.0703017862377801
  0
VERTEX
  5
170
  8
LAYER_02
 10
1222.482273281503
 20
504.749335785167
 30
0.0
  0
VERTEX
  5
171
  8
LAYER_02
 10
1193.131097533563
 20
504.7493357851671
 30
0.0
 42
-0.138625662927607
  0
VERTEX
  5
172
  8
LAYER_02
 10
1193.451935453026
 20
481.7445311035394
 30
0.0
 42
-0.2459919101228945
  0
SEQEND
  5
173
  8
LAYER_02
  0
POLYLINE
  5
174
  8
LAYER_02
 66
     1
 10
0.0
 20
0.0
 30
0.0
 70
     1
  0
VERTEX
  5
175
  8
LAYER_02
 10
1128.911246117035
 20
471.929102007669
 30
0.0
 42
0.8489651686839585
  0
VERTEX
  5
176
  8
LAYER_02
 10
1181.689697513285
 20
504.749335785167
 30
0.0
  0
VERTEX
  5
177
  8
LAYER_02
 10
1128.911246117035
 20
504.7493357851671
 30
0.0
  0
SEQEND
  5
178
  8
LAYER_02
  0
CIRCLE
  5
179
  8
LAYER_02
 10
1219.342253732296
 20
441.2775776243861
 30
0.0
 40
31.42439653386095
  0
CIRCLE
  5
17A
  8
LAYER_02
 10
1321.417877117825
 20
434.8453656862275
 30
0.0
 40
26.37863389771437
  0
CIRCLE
  5
17B
  8
LAYER_02
 10
1403.250278349669
 20
456.5135388573762
 30
0.0
 40
26.70122203309494
  0
CIRCLE
  5
17C
  8
LAYER_02
 10
1491.639361210945
 20
409.4917549581846
 30
0.0
 40
37.542848543395
  0
CIRCLE
  5
17D
  8
LAYER_02
 10
1385.850899416565
 20
350.6363617654586
 30
0.0
 40
40.48181335393806
  0
CIRCLE
  5
17E
  8
LAYER_02
 10
1227.53637115455
 20
340.0147875871568
 30
0.0
 40
44.31688839615416
  0
CIRCLE
  5
17F
  8
LAYER_02
 10
1340.210097327674
 20
229.4441284160588
 30
0.0
 40
35.56752118200137
  0
CIRCLE
  5
180
  8
LAYER_02
 10
1247.925953886248
 20
214.6520692716775
 30
0.0
 40
37.4175313185037
  0
CIRCLE
  5
181
  8
LAYER_02
 10
1176.686565617392
 20
260.0600058220592
 30
0.0
 40
31.48728778616659
  0
CIRCLE
  5
182
  8
LAYER_02
 10
1426.545486079943
 20
189.8485005735209
 30
0.0
 40
36.944918361643
  0
CIRCLE
  5
183
  8
LAYER_02
 10
1488.673968606259
 20
90.71226236577563
 30
0.0
 40
48.15514971776417
  0
CIRCLE
  5
184
  8
LAYER_02
 10
1569.457182171974
 20
164.7113291386491
 30
0.0
 40
25.21456172550904
  0
CIRCLE
  5
185
  8
LAYER_02
 10
1556.803937214219
 20
348.5525295206125
 30
0.0
 40
25.32463089862209
  0
CIRCLE
  5
186
  8
LAYER_02
 10
1611.574393397716
 20
442.3372364588148
 30
0.0
 40
21.51717282135546
  0
CIRCLE
  5
187
  8
LAYER_02
 10
-1513.253268912525
 20
257.4265026296596
 30
0.0
 40
43.85720747385357
210
0.0
220
0.0
230
-1.0
  0
ENDSEC
  0
EOF
