  0
SECTION
  2
HEADER
  9
$ACADVER
  1
AC1009
  9
$DWGCODEPAGE
  3
ansi_1252
  9
$INSBASE
 10
0.0
 20
0.0
 30
0.0
  9
$EXTMIN
 10
1.000000000000000E+20
 20
1.000000000000000E+20
 30
1.000000000000000E+20
  9
$EXTMAX
 10
-1.000000000000000E+20
 20
-1.000000000000000E+20
 30
-1.000000000000000E+20
  9
$LIMMIN
 10
0.0
 20
0.0
  9
$LIMMAX
 10
12.0
 20
9.0
  9
$ORTHOMODE
 70
     0
  9
$REGENMODE
 70
     1
  9
$FILLMODE
 70
     1
  9
$QTEXTMODE
 70
     0
  9
$MIRRTEXT
 70
     1
  9
$DRAGMODE
 70
     2
  9
$LTSCALE
 40
1.0
  9
$OSMODE
 70
    37
  9
$ATTMODE
 70
     1
  9
$TEXTSIZE
 40
0.2
  9
$TRACEWID
 40
0.05
  9
$TEXTSTYLE
  7
STANDARD
  9
$CLAYER
  8
LAYER_05
  9
$CELTYPE
  6
BYLAYER
  9
$CECOLOR
 62
   256
  9
$DIMSCALE
 40
1.0
  9
$DIMASZ
 40
0.18
  9
$DIMEXO
 40
0.0625
  9
$DIMDLI
 40
0.38
  9
$DIMRND
 40
0.0
  9
$DIMDLE
 40
0.0
  9
$DIMEXE
 40
0.18
  9
$DIMTP
 40
0.0
  9
$DIMTM
 40
0.0
  9
$DIMTXT
 40
0.18
  9
$DIMCEN
 40
0.09
  9
$DIMTSZ
 40
0.0
  9
$DIMTOL
 70
     0
  9
$DIMLIM
 70
     0
  9
$DIMTIH
 70
     1
  9
$DIMTOH
 70
     1
  9
$DIMSE1
 70
     0
  9
$DIMSE2
 70
     0
  9
$DIMTAD
 70
     0
  9
$DIMZIN
 70
     0
  9
$DIMBLK
  1

  9
$DIMASO
 70
     1
  9
$DIMSHO
 70
     1
  9
$DIMPOST
  1

  9
$DIMAPOST
  1

  9
$DIMALT
 70
     0
  9
$DIMALTD
 70
     2
  9
$DIMALTF
 40
25.4
  9
$DIMLFAC
 40
1.0
  9
$DIMTOFL
 70
     0
  9
$DIMTVP
 40
0.0
  9
$DIMTIX
 70
     0
  9
$DIMSOXD
 70
     0
  9
$DIMSAH
 70
     0
  9
$DIMBLK1
  1

  9
$DIMBLK2
  1

  9
$DIMSTYLE
  2
STANDARD_ACAD
  9
$DIMCLRD
 70
     0
  9
$DIMCLRE
 70
     0
  9
$DIMCLRT
 70
     0
  9
$DIMTFAC
 40
1.0
  9
$DIMGAP
 40
0.09
  9
$LUNITS
 70
     2
  9
$LUPREC
 70
     2
  9
$SKETCHINC
 40
0.1
  9
$FILLETRAD
 40
0.5
  9
$AUNITS
 70
     0
  9
$AUPREC
 70
     0
  9
$MENU
  1
.
  9
$ELEVATION
 40
0.0
  9
$PELEVATION
 40
0.0
  9
$THICKNESS
 40
0.0
  9
$LIMCHECK
 70
     0
  9
$CHAMFERA
 40
0.0
  9
$CHAMFERB
 40
0.0
  9
$SKPOLY
 70
     0
  9
$TDCREATE
 40
2460103.731435046
  9
$TDUPDATE
 40
2460103.731435093
  9
$TDINDWG
 40
0.0000000116
  9
$TDUSRTIMER
 40
0.0000000116
  9
$USRTIMER
 70
     1
  9
$ANGBASE
 50
0.0
  9
$ANGDIR
 70
     0
  9
$PDMODE
 70
     0
  9
$PDSIZE
 40
0.0
  9
$PLINEWID
 40
0.0
  9
$COORDS
 70
     1
  9
$SPLFRAME
 70
     0
  9
$SPLINETYPE
 70
     6
  9
$SPLINESEGS
 70
     8
  9
$ATTDIA
 70
     0
  9
$ATTREQ
 70
     1
  9
$HANDLING
 70
     1
  9
$HANDSEED
  5
2BB
  9
$SURFTAB1
 70
     6
  9
$SURFTAB2
 70
     6
  9
$SURFTYPE
 70
     6
  9
$SURFU
 70
     6
  9
$SURFV
 70
     6
  9
$UCSNAME
  2

  9
$UCSORG
 10
0.0
 20
0.0
 30
0.0
  9
$UCSXDIR
 10
1.0
 20
0.0
 30
0.0
  9
$UCSYDIR
 10
0.0
 20
1.0
 30
0.0
  9
$PUCSNAME
  2

  9
$PUCSORG
 10
0.0
 20
0.0
 30
0.0
  9
$PUCSXDIR
 10
1.0
 20
0.0
 30
0.0
  9
$PUCSYDIR
 10
0.0
 20
1.0
 30
0.0
  9
$USERI1
 70
     0
  9
$USERI2
 70
     0
  9
$USERI3
 70
     0
  9
$USERI4
 70
     0
  9
$USERI5
 70
     0
  9
$USERR1
 40
0.0
  9
$USERR2
 40
0.0
  9
$USERR3
 40
0.0
  9
$USERR4
 40
0.0
  9
$USERR5
 40
0.0
  9
$WORLDVIEW
 70
     1
  9
$SHADEDGE
 70
     3
  9
$SHADEDIF
 70
    70
  9
$TILEMODE
 70
     1
  9
$MAXACTVP
 70
    64
  9
$PLIMCHECK
 70
     0
  9
$PEXTMIN
 10
1.000000000000000E+20
 20
1.000000000000000E+20
 30
1.000000000000000E+20
  9
$PEXTMAX
 10
-1.000000000000000E+20
 20
-1.000000000000000E+20
 30
-1.000000000000000E+20
  9
$PLIMMIN
 10
0.0
 20
0.0
  9
$PLIMMAX
 10
12.0
 20
9.0
  9
$UNITMODE
 70
     0
  9
$VISRETAIN
 70
     1
  9
$PLINEGEN
 70
     0
  9
$PSLTSCALE
 70
     1
  0
ENDSEC
  0
SECTION
  2
TABLES
  0
TABLE
  2
VPORT
 70
     1
  0
VPORT
  2
*ACTIVE
 70
     0
 10
0.0
 20
0.0
 11
1.0
 21
1.0
 12
10.42990654205607
 22
4.5
 13
0.0
 23
0.0
 14
0.5
 24
0.5
 15
0.5
 25
0.5
 16
0.0
 26
0.0
 36
1.0
 17
0.0
 27
0.0
 37
0.0
 40
9.0
 41
1.972972972850329
 42
50.0
 43
0.0
 44
0.0
 50
0.0
 51
0.0
 71
     0
 72
   100
 73
     1
 74
     3
 75
     0
 76
     0
 77
     0
 78
     0
  0
ENDTAB
  0
TABLE
  2
LTYPE
 70
     1
  0
LTYPE
  2
CONTINUOUS
 70
     0
  3
Solid line
 72
    65
 73
     0
 40
0.0
  0
ENDTAB
  0
TABLE
  2
LAYER
 70
     2
  0
LAYER
  2
0
 70
     0
 62
     7
  6
CONTINUOUS
  0
LAYER
  2
LAYER_05
 70
     0
 62
     1
  6
CONTINUOUS
  0
ENDTAB
  0
TABLE
  2
STYLE
 70
     1
  0
STYLE
  2
STANDARD
 70
     0
 40
0.0
 41
1.0
 50
0.0
 71
     0
 42
0.2
  3
txt
  4

  0
ENDTAB
  0
TABLE
  2
VIEW
 70
     0
  0
ENDTAB
  0
TABLE
  2
UCS
 70
     0
  0
ENDTAB
  0
TABLE
  2
APPID
 70
     2
  0
APPID
  2
ACAD
 70
     0
  0
APPID
  2
RHINO
 70
     0
  0
ENDTAB
  0
TABLE
  2
DIMSTYLE
 70
     1
  0
DIMSTYLE
  2
STANDARD_ACAD
 70
     0
  3

  4

  5

  6

  7

 40
1.0
 41
0.18
 42
0.0625
 43
0.38
 44
0.18
 45
0.0
 46
0.0
 47
0.0
 48
0.0
140
0.18
141
0.09
142
0.0
143
25.4
144
1.0
145
0.0
146
1.0
147
0.09
 71
     0
 72
     0
 73
     1
 74
     1
 75
     0
 76
     0
 77
     0
 78
     0
170
     0
171
     2
172
     0
173
     0
174
     0
175
     0
176
     0
177
     0
178
     0
  0
ENDTAB
  0
ENDSEC
  0
SECTION
  2
BLOCKS
  0
BLOCK
  8
0
  2
$MODEL_SPACE
 70
     0
 10
0.0
 20
0.0
 30
0.0
  3
$MODEL_SPACE
  1

  0
ENDBLK
  5
21
  8
0
  0
BLOCK
 67
     1
  8
0
  2
$PAPER_SPACE
 70
     0
 10
0.0
 20
0.0
 30
0.0
  3
$PAPER_SPACE
  1

  0
ENDBLK
  5
1D
 67
     1
  8
0
  0
ENDSEC
  0
SECTION
  2
ENTITIES
  0
POLYLINE
  5
70
  8
LAYER_05
 66
     1
 10
0.0
 20
0.0
 30
0.0
 70
     1
  0
VERTEX
  5
71
  8
LAYER_05
 10
10677.22733926823
 20
7560.516082114365
 30
0.0
  0
VERTEX
  5
72
  8
LAYER_05
 10
12983.70200530682
 20
7560.516082114365
 30
0.0
  0
VERTEX
  5
73
  8
LAYER_05
 10
12983.70200530682
 20
8717.948588679183
 30
0.0
  0
VERTEX
  5
74
  8
LAYER_05
 10
10677.22733926823
 20
8717.948588679183
 30
0.0
  0
SEQEND
  5
75
  8
LAYER_05
  0
POLYLINE
  5
76
  8
LAYER_05
 66
     1
 10
0.0
 20
0.0
 30
0.0
 70
     1
  0
VERTEX
  5
77
  8
LAYER_05
 10
12388.62151264648
 20
8056.285343465552
 30
0.0
  0
VERTEX
  5
78
  8
LAYER_05
 10
12680.58342574566
 20
8188.399082207838
 30
0.0
  0
VERTEX
  5
79
  8
LAYER_05
 10
12403.1435720427
 20
8197.69867218519
 30
0.0
  0
VERTEX
  5
7A
  8
LAYER_05
 10
12427.54974956821
 20
8255.602176716398
 30
0.0
  0
VERTEX
  5
7B
  8
LAYER_05
 10
12380.51734100026
 20
8219.80925491946
 30
0.0
  0
SEQEND
  5
7C
  8
LAYER_05
  0
POLYLINE
  5
7D
  8
LAYER_05
 66
     1
 10
0.0
 20
0.0
 30
0.0
 70
     1
  0
VERTEX
  5
7E
  8
LAYER_05
 10
12482.34678523105
 20
8659.595869110359
 30
0.0
  0
VERTEX
  5
7F
  8
LAYER_05
 10
12560.95439704507
 20
8659.595869110359
 30
0.0
  0
VERTEX
  5
80
  8
LAYER_05
 10
12689.18658991959
 20
8547.629230081551
 30
0.0
  0
VERTEX
  5
81
  8
LAYER_05
 10
12591.35333942801
 20
8516.805892104734
 30
0.0
  0
VERTEX
  5
82
  8
LAYER_05
 10
12554.01013019231
 20
8555.628643984048
 30
0.0
  0
VERTEX
  5
83
  8
LAYER_05
 10
12529.42217019872
 20
8497.293861676819
 30
0.0
  0
VERTEX
  5
84
  8
LAYER_05
 10
12422.81760981914
 20
8463.707035337728
 30
0.0
  0
VERTEX
  5
85
  8
LAYER_05
 10
12334.22273684449
 20
8507.297255857906
 30
0.0
  0
SEQEND
  5
86
  8
LAYER_05
  0
POLYLINE
  5
87
  8
LAYER_05
 66
     1
 10
0.0
 20
0.0
 30
0.0
 70
     1
  0
VERTEX
  5
88
  8
LAYER_05
 10
12244.28955863272
 20
8659.595869110359
 30
0.0
  0
VERTEX
  5
89
  8
LAYER_05
 10
12448.42456682926
 20
8659.595869110359
 30
0.0
  0
VERTEX
  5
8A
  8
LAYER_05
 10
12312.54644180712
 20
8517.96237054248
 30
0.0
  0
VERTEX
  5
8B
  8
LAYER_05
 10
12176.8985797413
 20
8584.703481196055
 30
0.0
  0
SEQEND
  5
8C
  8
LAYER_05
  0
POLYLINE
  5
8D
  8
LAYER_05
 66
     1
 10
0.0
 20
0.0
 30
0.0
 70
     1
  0
VERTEX
  5
8E
  8
LAYER_05
 10
11558.66738958426
 20
8024.726698596445
 30
0.0
  0
VERTEX
  5
8F
  8
LAYER_05
 10
11660.0757975095
 20
8024.093970404752
 30
0.0
  0
VERTEX
  5
90
  8
LAYER_05
 10
11528.80400520664
 20
8201.105619894624
 30
0.0
  0
VERTEX
  5
91
  8
LAYER_05
 10
11537.8246756955
 20
8206.891753563126
 30
0.0
  0
VERTEX
  5
92
  8
LAYER_05
 10
11711.99978003829
 20
8009.305303796697
 30
0.0
  0
VERTEX
  5
93
  8
LAYER_05
 10
11719.06263298915
 20
7851.989272694116
 30
0.0
  0
VERTEX
  5
94
  8
LAYER_05
 10
11653.81492940835
 20
7846.621741110081
 30
0.0
  0
SEQEND
  5
95
  8
LAYER_05
  0
POLYLINE
  5
96
  8
LAYER_05
 66
     1
 10
0.0
 20
0.0
 30
0.0
 70
     1
  0
VERTEX
  5
97
  8
LAYER_05
 10
11433.43456737868
 20
8025.508076972814
 30
0.0
  0
VERTEX
  5
98
  8
LAYER_05
 10
11549.72210222792
 20
8024.782511872771
 30
0.0
  0
VERTEX
  5
99
  8
LAYER_05
 10
11491.91806565989
 20
7833.303471165915
 30
0.0
  0
VERTEX
  5
9A
  8
LAYER_05
 10
11388.03932269059
 20
7824.75799901597
 30
0.0
  0
VERTEX
  5
9B
  8
LAYER_05
 10
11363.94695095818
 20
7848.825686872688
 30
0.0
  0
VERTEX
  5
9C
  8
LAYER_05
 10
11367.01973758024
 20
7856.638694608739
 30
0.0
  0
VERTEX
  5
9D
  8
LAYER_05
 10
11435.15888457872
 20
7863.875586785866
 30
0.0
  0
VERTEX
  5
9E
  8
LAYER_05
 10
11393.90959222133
 20
7925.010068274564
 30
0.0
  0
SEQEND
  5
9F
  8
LAYER_05
  0
POLYLINE
  5
A0
  8
LAYER_05
 66
     1
 10
0.0
 20
0.0
 30
0.0
 70
     1
  0
VERTEX
  5
A1
  8
LAYER_05
 10
12925.34928573799
 20
8605.959651031126
 30
0.0
  0
VERTEX
  5
A2
  8
LAYER_05
 10
12706.3802999966
 20
8511.02465117626
 30
0.0
  0
VERTEX
  5
A3
  8
LAYER_05
 10
12715.03014452806
 20
8388.228996441572
 30
0.0
  0
VERTEX
  5
A4
  8
LAYER_05
 10
12873.69522514485
 20
8223.277585387983
 30
0.0
  0
VERTEX
  5
A5
  8
LAYER_05
 10
12925.34928573799
 20
8502.746542002513
 30
0.0
  0
SEQEND
  5
A6
  8
LAYER_05
  0
POLYLINE
  5
A7
  8
LAYER_05
 66
     1
 10
0.0
 20
0.0
 30
0.0
 70
     1
  0
VERTEX
  5
A8
  8
LAYER_05
 10
12832.27176006128
 20
8659.595869110359
 30
0.0
  0
VERTEX
  5
A9
  8
LAYER_05
 10
12665.44139341214
 20
8659.595869110359
 30
0.0
  0
VERTEX
  5
AA
  8
LAYER_05
 10
12718.59812788368
 20
8610.997185444281
 30
0.0
  0
SEQEND
  5
AB
  8
LAYER_05
  0
POLYLINE
  5
AC
  8
LAYER_05
 66
     1
 10
0.0
 20
0.0
 30
0.0
 70
     1
  0
VERTEX
  5
AD
  8
LAYER_05
 10
11693.5535941812
 20
8420.170540296509
 30
0.0
  0
VERTEX
  5
AE
  8
LAYER_05
 10
11532.25875609515
 20
8506.95215673277
 30
0.0
  0
VERTEX
  5
AF
  8
LAYER_05
 10
11668.52783995212
 20
8574.658179529628
 30
0.0
  0
VERTEX
  5
B0
  8
LAYER_05
 10
11688.66496410878
 20
8529.058532991883
 30
0.0
  0
SEQEND
  5
B1
  8
LAYER_05
  0
POLYLINE
  5
B2
  8
LAYER_05
 66
     1
 10
0.0
 20
0.0
 30
0.0
 70
     1
  0
VERTEX
  5
B3
  8
LAYER_05
 10
11746.2712357029
 20
8239.477790254425
 30
0.0
  0
VERTEX
  5
B4
  8
LAYER_05
 10
11748.63473507336
 20
8190.502694089336
 30
0.0
  0
VERTEX
  5
B5
  8
LAYER_05
 10
11946.65665676945
 20
8051.807032010735
 30
0.0
  0
VERTEX
  5
B6
  8
LAYER_05
 10
12005.87968093043
 20
8246.454786917548
 30
0.0
  0
VERTEX
  5
B7
  8
LAYER_05
 10
11924.27770145058
 20
8303.962926252025
 30
0.0
  0
VERTEX
  5
B8
  8
LAYER_05
 10
11832.90910086862
 20
8202.423925178955
 30
0.0
  0
VERTEX
  5
B9
  8
LAYER_05
 10
11802.98617980229
 20
8270.183085493329
 30
0.0
  0
SEQEND
  5
BA
  8
LAYER_05
  0
POLYLINE
  5
BB
  8
LAYER_05
 66
     1
 10
0.0
 20
0.0
 30
0.0
 70
     1
  0
VERTEX
  5
BC
  8
LAYER_05
 10
12201.53448917263
 20
7830.848913765143
 30
0.0
  0
VERTEX
  5
BD
  8
LAYER_05
 10
12098.28496899224
 20
7874.226445068582
 30
0.0
  0
VERTEX
  5
BE
  8
LAYER_05
 10
12207.06862388454
 20
7983.587506999518
 30
0.0
  0
SEQEND
  5
BF
  8
LAYER_05
  0
POLYLINE
  5
C0
  8
LAYER_05
 66
     1
 10
0.0
 20
0.0
 30
0.0
 70
     1
  0
VERTEX
  5
C1
  8
LAYER_05
 10
11253.28035791199
 20
8505.880567464868
 30
0.0
  0
VERTEX
  5
C2
  8
LAYER_05
 10
11253.28035791199
 20
8426.926984131032
 30
0.0
  0
VERTEX
  5
C3
  8
LAYER_05
 10
11295.85416699012
 20
8447.894813013194
 30
0.0
  0
SEQEND
  5
C4
  8
LAYER_05
  0
POLYLINE
  5
C5
  8
LAYER_05
 66
     1
 10
0.0
 20
0.0
 30
0.0
 70
     1
  0
VERTEX
  5
C6
  8
LAYER_05
 10
11369.4995060993
 20
8347.589469362643
 30
0.0
  0
VERTEX
  5
C7
  8
LAYER_05
 10
11460.07054206363
 20
8224.231236552798
 30
0.0
  0
VERTEX
  5
C8
  8
LAYER_05
 10
11447.87548611558
 20
8195.284109957276
 30
0.0
  0
VERTEX
  5
C9
  8
LAYER_05
 10
11391.3341777401
 20
8158.385782980381
 30
0.0
  0
SEQEND
  5
CA
  8
LAYER_05
  0
POLYLINE
  5
CB
  8
LAYER_05
 66
     1
 10
0.0
 20
0.0
 30
0.0
 70
     1
  0
VERTEX
  5
CC
  8
LAYER_05
 10
11376.50066006132
 20
8025.863310714866
 30
0.0
  0
VERTEX
  5
CD
  8
LAYER_05
 10
11357.03572776704
 20
7979.659844187477
 30
0.0
  0
VERTEX
  5
CE
  8
LAYER_05
 10
11325.64675421236
 20
8026.180608861507
 30
0.0
  0
SEQEND
  5
CF
  8
LAYER_05
  0
POLYLINE
  5
D0
  8
LAYER_05
 66
     1
 10
0.0
 20
0.0
 30
0.0
 70
     1
  0
VERTEX
  5
D1
  8
LAYER_05
 10
10735.58005883706
 20
7817.700108526296
 30
0.0
  0
VERTEX
  5
D2
  8
LAYER_05
 10
10735.58005883705
 20
7812.084583830297
 30
0.0
  0
VERTEX
  5
D3
  8
LAYER_05
 10
10884.28092767856
 20
7651.641059261616
 30
0.0
  0
VERTEX
  5
D4
  8
LAYER_05
 10
11019.20882629264
 20
8014.006417897023
 30
0.0
  0
VERTEX
  5
D5
  8
LAYER_05
 10
10793.41617841842
 20
7956.136624312639
 30
0.0
  0
SEQEND
  5
D6
  8
LAYER_05
  0
POLYLINE
  5
D7
  8
LAYER_05
 66
     1
 10
0.0
 20
0.0
 30
0.0
 70
     1
  0
VERTEX
  5
D8
  8
LAYER_05
 10
11307.04869958657
 20
7618.86880168319
 30
0.0
  0
VERTEX
  5
D9
  8
LAYER_05
 10
10991.77950919057
 20
7618.86880168319
 30
0.0
  0
VERTEX
  5
DA
  8
LAYER_05
 10
11195.88685383382
 20
7838.463089509642
 30
0.0
  0
VERTEX
  5
DB
  8
LAYER_05
 10
11287.67948596628
 20
7848.212160501272
 30
0.0
  0
VERTEX
  5
DC
  8
LAYER_05
 10
11297.38916290358
 20
7838.078151455213
 30
0.0
  0
VERTEX
  5
DD
  8
LAYER_05
 10
11260.94156064169
 20
7751.563307958642
 30
0.0
  0
VERTEX
  5
DE
  8
LAYER_05
 10
11372.10399766323
 20
7760.09813047018
 30
0.0
  0
VERTEX
  5
DF
  8
LAYER_05
 10
11446.40754384908
 20
7682.547372184032
 30
0.0
  0
VERTEX
  5
E0
  8
LAYER_05
 10
11438.90474287253
 20
7657.693932547279
 30
0.0
  0
SEQEND
  5
E1
  8
LAYER_05
  0
POLYLINE
  5
E2
  8
LAYER_05
 66
     1
 10
0.0
 20
0.0
 30
0.0
 70
     1
  0
VERTEX
  5
E3
  8
LAYER_05
 10
11472.13726313434
 20
7767.778478157053
 30
0.0
  0
VERTEX
  5
E4
  8
LAYER_05
 10
11465.86750387305
 20
7747.009556813601
 30
0.0
  0
VERTEX
  5
E5
  8
LAYER_05
 10
11447.00858838894
 20
7765.84915036748
 30
0.0
  0
SEQEND
  5
E6
  8
LAYER_05
  0
POLYLINE
  5
E7
  8
LAYER_05
 66
     1
 10
0.0
 20
0.0
 30
0.0
 70
     1
  0
VERTEX
  5
E8
  8
LAYER_05
 10
12664.79764168636
 20
8231.117228915698
 30
0.0
  0
VERTEX
  5
E9
  8
LAYER_05
 10
12523.0344464776
 20
8328.268586822625
 30
0.0
  0
VERTEX
  5
EA
  8
LAYER_05
 10
12492.76512010699
 20
8305.23281926111
 30
0.0
  0
VERTEX
  5
EB
  8
LAYER_05
 10
12467.36140307504
 20
8236.460564196115
 30
0.0
  0
SEQEND
  5
EC
  8
LAYER_05
  0
POLYLINE
  5
ED
  8
LAYER_05
 66
     1
 10
0.0
 20
0.0
 30
0.0
 70
     1
  0
VERTEX
  5
EE
  8
LAYER_05
 10
12823.68230735269
 20
8183.60250771646
 30
0.0
  0
VERTEX
  5
EF
  8
LAYER_05
 10
12861.40825179234
 20
8156.800185869966
 30
0.0
  0
VERTEX
  5
F0
  8
LAYER_05
 10
12866.09931880498
 20
8182.180719140284
 30
0.0
  0
SEQEND
  5
F1
  8
LAYER_05
  0
POLYLINE
  5
F2
  8
LAYER_05
 66
     1
 10
0.0
 20
0.0
 30
0.0
 70
     1
  0
VERTEX
  5
F3
  8
LAYER_05
 10
12325.68592649239
 20
8433.10473306939
 30
0.0
  0
VERTEX
  5
F4
  8
LAYER_05
 10
12233.95543366177
 20
8404.204129551761
 30
0.0
  0
VERTEX
  5
F5
  8
LAYER_05
 10
12305.43384349511
 20
8477.697008079487
 30
0.0
  0
VERTEX
  5
F6
  8
LAYER_05
 10
12323.98736042178
 20
8468.465615772622
 30
0.0
  0
SEQEND
  5
F7
  8
LAYER_05
  0
POLYLINE
  5
F8
  8
LAYER_05
 66
     1
 10
0.0
 20
0.0
 30
0.0
 70
     1
  0
VERTEX
  5
F9
  8
LAYER_05
 10
11698.50182633678
 20
8309.9549873031
 30
0.0
  0
VERTEX
  5
FA
  8
LAYER_05
 10
11701.43192837541
 20
8244.690705765632
 30
0.0
  0
VERTEX
  5
FB
  8
LAYER_05
 10
11645.67043524386
 20
8214.472450717905
 30
0.0
  0
VERTEX
  5
FC
  8
LAYER_05
 10
11704.66974034635
 20
8172.572578392896
 30
0.0
  0
VERTEX
  5
FD
  8
LAYER_05
 10
11709.40477849412
 20
8067.105649701409
 30
0.0
  0
VERTEX
  5
FE
  8
LAYER_05
 10
11568.37899259489
 20
8226.490225976904
 30
0.0
  0
SEQEND
  5
FF
  8
LAYER_05
  0
POLYLINE
  5
100
  8
LAYER_05
 66
     1
 10
0.0
 20
0.0
 30
0.0
 70
     1
  0
VERTEX
  5
101
  8
LAYER_05
 10
10771.92305389166
 20
7983.154740654238
 30
0.0
  0
VERTEX
  5
102
  8
LAYER_05
 10
10845.22099460816
 20
8158.600666151204
 30
0.0
  0
VERTEX
  5
103
  8
LAYER_05
 10
10735.58005883706
 20
8158.600666151204
 30
0.0
  0
VERTEX
  5
104
  8
LAYER_05
 10
10735.58005883706
 20
7973.621434442864
 30
0.0
  0
SEQEND
  5
105
  8
LAYER_05
  0
POLYLINE
  5
106
  8
LAYER_05
 66
     1
 10
0.0
 20
0.0
 30
0.0
 70
     1
  0
VERTEX
  5
107
  8
LAYER_05
 10
11320.29016665452
 20
7892.437742552329
 30
0.0
  0
VERTEX
  5
108
  8
LAYER_05
 10
11332.57557815071
 20
7921.599344054856
 30
0.0
  0
VERTEX
  5
109
  8
LAYER_05
 10
11261.3615250994
 20
8026.581710482184
 30
0.0
  0
VERTEX
  5
10A
  8
LAYER_05
 10
11085.28370493921
 20
8027.680331425225
 30
0.0
  0
VERTEX
  5
10B
  8
LAYER_05
 10
11017.79743756746
 20
7861.948689513441
 30
0.0
  0
VERTEX
  5
10C
  8
LAYER_05
 10
11171.49887253431
 20
7876.138787428094
 30
0.0
  0
VERTEX
  5
10D
  8
LAYER_05
 10
11251.8130193599
 20
7960.844731482684
 30
0.0
  0
SEQEND
  5
10E
  8
LAYER_05
  0
POLYLINE
  5
10F
  8
LAYER_05
 66
     1
 10
0.0
 20
0.0
 30
0.0
 70
     1
  0
VERTEX
  5
110
  8
LAYER_05
 10
10735.58005883706
 20
7896.164160286518
 30
0.0
  0
VERTEX
  5
111
  8
LAYER_05
 10
10735.58005883706
 20
7941.313447679539
 30
0.0
  0
VERTEX
  5
112
  8
LAYER_05
 10
10756.70447471776
 20
7946.727554817729
 30
0.0
  0
SEQEND
  5
113
  8
LAYER_05
  0
POLYLINE
  5
114
  8
LAYER_05
 66
     1
 10
0.0
 20
0.0
 30
0.0
 70
     1
  0
VERTEX
  5
115
  8
LAYER_05
 10
11129.04558899401
 20
7831.364042222782
 30
0.0
  0
VERTEX
  5
116
  8
LAYER_05
 10
10927.56770997482
 20
7618.86880168319
 30
0.0
  0
VERTEX
  5
117
  8
LAYER_05
 10
10918.81480447714
 20
7618.868801683191
 30
0.0
  0
VERTEX
  5
118
  8
LAYER_05
 10
10999.75160813354
 20
7817.632044687507
 30
0.0
  0
SEQEND
  5
119
  8
LAYER_05
  0
POLYLINE
  5
11A
  8
LAYER_05
 66
     1
 10
0.0
 20
0.0
 30
0.0
 70
     1
  0
VERTEX
  5
11B
  8
LAYER_05
 10
11602.18700132035
 20
7842.374625588422
 30
0.0
  0
VERTEX
  5
11C
  8
LAYER_05
 10
11518.86141056185
 20
7835.519936218385
 30
0.0
  0
VERTEX
  5
11D
  8
LAYER_05
 10
11551.38553317684
 20
7936.428089253166
 30
0.0
  0
SEQEND
  5
11E
  8
LAYER_05
  0
POLYLINE
  5
11F
  8
LAYER_05
 66
     1
 10
0.0
 20
0.0
 30
0.0
 70
     1
  0
VERTEX
  5
120
  8
LAYER_05
 10
12018.0381425778
 20
7670.731952577225
 30
0.0
  0
VERTEX
  5
121
  8
LAYER_05
 10
11982.61724341426
 20
7757.94477285536
 30
0.0
  0
VERTEX
  5
122
  8
LAYER_05
 10
12062.4679285699
 20
7838.21929326174
 30
0.0
  0
VERTEX
  5
123
  8
LAYER_05
 10
12199.75625779264
 20
7781.770860272793
 30
0.0
  0
VERTEX
  5
124
  8
LAYER_05
 10
12197.67569367908
 20
7724.348615896432
 30
0.0
  0
SEQEND
  5
125
  8
LAYER_05
  0
POLYLINE
  5
126
  8
LAYER_05
 66
     1
 10
0.0
 20
0.0
 30
0.0
 70
     1
  0
VERTEX
  5
127
  8
LAYER_05
 10
12343.89830720592
 20
8053.957951968931
 30
0.0
  0
VERTEX
  5
128
  8
LAYER_05
 10
12350.79915933509
 20
7910.295466938509
 30
0.0
  0
VERTEX
  5
129
  8
LAYER_05
 10
12235.43348016153
 20
7816.607157094442
 30
0.0
  0
VERTEX
  5
12A
  8
LAYER_05
 10
12223.22779932044
 20
7821.735048263707
 30
0.0
  0
VERTEX
  5
12B
  8
LAYER_05
 10
12228.2026990002
 20
8004.833758560608
 30
0.0
  0
VERTEX
  5
12C
  8
LAYER_05
 10
12318.12441484371
 20
8095.232765148818
 30
0.0
  0
SEQEND
  5
12D
  8
LAYER_05
  0
POLYLINE
  5
12E
  8
LAYER_05
 66
     1
 10
0.0
 20
0.0
 30
0.0
 70
     1
  0
VERTEX
  5
12F
  8
LAYER_05
 10
12039.10201176884
 20
7618.86880168319
 30
0.0
  0
VERTEX
  5
130
  8
LAYER_05
 10
12035.26678670698
 20
7628.311836782386
 30
0.0
  0
VERTEX
  5
131
  8
LAYER_05
 10
12199.95225686956
 20
7677.904250541918
 30
0.0
  0
VERTEX
  5
132
  8
LAYER_05
 10
12142.81883676236
 20
7618.868801683191
 30
0.0
  0
SEQEND
  5
133
  8
LAYER_05
  0
POLYLINE
  5
134
  8
LAYER_05
 66
     1
 10
0.0
 20
0.0
 30
0.0
 70
     1
  0
VERTEX
  5
135
  8
LAYER_05
 10
12737.5583388936
 20
7769.67705564187
 30
0.0
  0
VERTEX
  5
136
  8
LAYER_05
 10
12681.46756891714
 20
7827.624633022611
 30
0.0
  0
VERTEX
  5
137
  8
LAYER_05
 10
12676.24247359303
 20
7822.424370171232
 30
0.0
  0
VERTEX
  5
138
  8
LAYER_05
 10
12590.82746013528
 20
7618.86880168319
 30
0.0
  0
VERTEX
  5
139
  8
LAYER_05
 10
12748.22498756121
 20
7618.868801683189
 30
0.0
  0
SEQEND
  5
13A
  8
LAYER_05
  0
POLYLINE
  5
13B
  8
LAYER_05
 66
     1
 10
0.0
 20
0.0
 30
0.0
 70
     1
  0
VERTEX
  5
13C
  8
LAYER_05
 10
12698.23641163899
 20
7844.313781154451
 30
0.0
  0
VERTEX
  5
13D
  8
LAYER_05
 10
12734.84994505488
 20
7807.969133929748
 30
0.0
  0
VERTEX
  5
13E
  8
LAYER_05
 10
12730.04048548909
 20
7875.966704882367
 30
0.0
  0
SEQEND
  5
13F
  8
LAYER_05
  0
POLYLINE
  5
140
  8
LAYER_05
 66
     1
 10
0.0
 20
0.0
 30
0.0
 70
     1
  0
VERTEX
  5
141
  8
LAYER_05
 10
12082.28094010198
 20
8364.172454019475
 30
0.0
  0
VERTEX
  5
142
  8
LAYER_05
 10
12112.33443289846
 20
8467.366892935397
 30
0.0
  0
VERTEX
  5
143
  8
LAYER_05
 10
12066.22852373883
 20
8442.381189648968
 30
0.0
  0
VERTEX
  5
144
  8
LAYER_05
 10
12062.99735640338
 20
8458.123711285305
 30
0.0
  0
VERTEX
  5
145
  8
LAYER_05
 10
12150.1386675412
 20
8554.964875851396
 30
0.0
  0
VERTEX
  5
146
  8
LAYER_05
 10
12284.10048000219
 20
8488.311526523963
 30
0.0
  0
VERTEX
  5
147
  8
LAYER_05
 10
12152.74533571764
 20
8351.392588049675
 30
0.0
  0
VERTEX
  5
148
  8
LAYER_05
 10
12326.99627778685
 20
8405.825736258324
 30
0.0
  0
VERTEX
  5
149
  8
LAYER_05
 10
12333.27653071766
 20
8275.082934388196
 30
0.0
  0
VERTEX
  5
14A
  8
LAYER_05
 10
12265.26250070095
 20
8222.916833695741
 30
0.0
  0
VERTEX
  5
14B
  8
LAYER_05
 10
12213.43173495849
 20
8308.443021743
 30
0.0
  0
VERTEX
  5
14C
  8
LAYER_05
 10
12211.46383092716
 20
8181.653776296409
 30
0.0
  0
VERTEX
  5
14D
  8
LAYER_05
 10
12203.92356871687
 20
8175.870468387535
 30
0.0
  0
VERTEX
  5
14E
  8
LAYER_05
 10
12107.1274140191
 20
8243.1183232302
 30
0.0
  0
SEQEND
  5
14F
  8
LAYER_05
  0
POLYLINE
  5
150
  8
LAYER_05
 66
     1
 10
0.0
 20
0.0
 30
0.0
 70
     1
  0
VERTEX
  5
151
  8
LAYER_05
 10
12054.39405527461
 20
8500.03972494325
 30
0.0
  0
VERTEX
  5
152
  8
LAYER_05
 10
12030.94848617444
 20
8614.26852850504
 30
0.0
  0
VERTEX
  5
153
  8
LAYER_05
 10
12118.13613269263
 20
8570.887892235234
 30
0.0
  0
SEQEND
  5
154
  8
LAYER_05
  0
POLYLINE
  5
155
  8
LAYER_05
 66
     1
 10
0.0
 20
0.0
 30
0.0
 70
     1
  0
VERTEX
  5
156
  8
LAYER_05
 10
12103.24702641901
 20
8620.941328186265
 30
0.0
  0
VERTEX
  5
157
  8
LAYER_05
 10
12144.78268943372
 20
8600.505058575254
 30
0.0
  0
VERTEX
  5
158
  8
LAYER_05
 10
12160.67338816364
 20
8618.16728308389
 30
0.0
  0
SEQEND
  5
159
  8
LAYER_05
  0
POLYLINE
  5
15A
  8
LAYER_05
 66
     1
 10
0.0
 20
0.0
 30
0.0
 70
     1
  0
VERTEX
  5
15B
  8
LAYER_05
 10
11792.45948249627
 20
8294.020336166765
 30
0.0
  0
VERTEX
  5
15C
  8
LAYER_05
 10
11744.8832974409
 20
8268.237861317873
 30
0.0
  0
VERTEX
  5
15D
  8
LAYER_05
 10
11741.53788378738
 20
8337.559629472666
 30
0.0
  0
VERTEX
  5
15E
  8
LAYER_05
 10
11766.23617964834
 20
8353.401871067925
 30
0.0
  0
SEQEND
  5
15F
  8
LAYER_05
  0
POLYLINE
  5
160
  8
LAYER_05
 66
     1
 10
0.0
 20
0.0
 30
0.0
 70
     1
  0
VERTEX
  5
161
  8
LAYER_05
 10
11760.00739583685
 20
7954.844854910047
 30
0.0
  0
VERTEX
  5
162
  8
LAYER_05
 10
11841.77711567146
 20
7862.084246547107
 30
0.0
  0
VERTEX
  5
163
  8
LAYER_05
 10
11764.78958918541
 20
7855.750951161792
 30
0.0
  0
SEQEND
  5
164
  8
LAYER_05
  0
POLYLINE
  5
165
  8
LAYER_05
 66
     1
 10
0.0
 20
0.0
 30
0.0
 70
     1
  0
VERTEX
  5
166
  8
LAYER_05
 10
11889.95333248398
 20
8317.266832847446
 30
0.0
  0
VERTEX
  5
167
  8
LAYER_05
 10
11861.15866081353
 20
8301.677486706172
 30
0.0
  0
VERTEX
  5
168
  8
LAYER_05
 10
11865.76684479944
 20
8290.38398881269
 30
0.0
  0
SEQEND
  5
169
  8
LAYER_05
  0
POLYLINE
  5
16A
  8
LAYER_05
 66
     1
 10
0.0
 20
0.0
 30
0.0
 70
     1
  0
VERTEX
  5
16B
  8
LAYER_05
 10
11851.27707899688
 20
8325.89475402277
 30
0.0
  0
VERTEX
  5
16C
  8
LAYER_05
 10
11834.37304051694
 20
8367.322293276547
 30
0.0
  0
VERTEX
  5
16D
  8
LAYER_05
 10
11874.95202851053
 20
8338.724677012055
 30
0.0
  0
SEQEND
  5
16E
  8
LAYER_05
  0
POLYLINE
  5
16F
  8
LAYER_05
 66
     1
 10
0.0
 20
0.0
 30
0.0
 70
     1
  0
VERTEX
  5
170
  8
LAYER_05
 10
11980.22818780434
 20
8366.141360174915
 30
0.0
  0
VERTEX
  5
171
  8
LAYER_05
 10
12030.44721892227
 20
8393.329788226361
 30
0.0
  0
VERTEX
  5
172
  8
LAYER_05
 10
12038.54197996045
 20
8353.805657062392
 30
0.0
  0
VERTEX
  5
173
  8
LAYER_05
 10
12022.70883785596
 20
8301.767018248807
 30
0.0
  0
VERTEX
  5
174
  8
LAYER_05
 10
11960.92556822962
 20
8344.690131883946
 30
0.0
  0
SEQEND
  5
175
  8
LAYER_05
  0
POLYLINE
  5
176
  8
LAYER_05
 66
     1
 10
0.0
 20
0.0
 30
0.0
 70
     1
  0
VERTEX
  5
177
  8
LAYER_05
 10
11924.97809203967
 20
7823.468920314121
 30
0.0
  0
VERTEX
  5
178
  8
LAYER_05
 10
11757.19641137267
 20
8013.092483901332
 30
0.0
  0
VERTEX
  5
179
  8
LAYER_05
 10
11751.09100171797
 20
8139.605326977686
 30
0.0
  0
VERTEX
  5
17A
  8
LAYER_05
 10
11971.32899841125
 20
7983.197655285061
 30
0.0
  0
VERTEX
  5
17B
  8
LAYER_05
 10
12040.82546325975
 20
8221.82711327339
 30
0.0
  0
VERTEX
  5
17C
  8
LAYER_05
 10
12069.74617505096
 20
8201.44554491019
 30
0.0
  0
VERTEX
  5
17D
  8
LAYER_05
 10
12109.30077579154
 20
8008.313070654975
 30
0.0
  0
VERTEX
  5
17E
  8
LAYER_05
 10
12011.81710644386
 20
7910.553610636815
 30
0.0
  0
VERTEX
  5
17F
  8
LAYER_05
 10
11872.09074725924
 20
7969.255912680032
 30
0.0
  0
VERTEX
  5
180
  8
LAYER_05
 10
11929.31024512333
 20
7827.81332947525
 30
0.0
  0
SEQEND
  5
181
  8
LAYER_05
  0
POLYLINE
  5
182
  8
LAYER_05
 66
     1
 10
0.0
 20
0.0
 30
0.0
 70
     1
  0
VERTEX
  5
183
  8
LAYER_05
 10
12316.69263707777
 20
8097.525641947325
 30
0.0
  0
VERTEX
  5
184
  8
LAYER_05
 10
12266.05852002265
 20
8132.703028532988
 30
0.0
  0
VERTEX
  5
185
  8
LAYER_05
 10
12285.4913747355
 20
8147.491951112267
 30
0.0
  0
SEQEND
  5
186
  8
LAYER_05
  0
POLYLINE
  5
187
  8
LAYER_05
 66
     1
 10
0.0
 20
0.0
 30
0.0
 70
     1
  0
VERTEX
  5
188
  8
LAYER_05
 10
12232.02076150306
 20
8197.420742466276
 30
0.0
  0
VERTEX
  5
189
  8
LAYER_05
 10
12247.09420467656
 20
8208.98192703625
 30
0.0
  0
VERTEX
  5
18A
  8
LAYER_05
 10
12233.72359932521
 20
8230.393874840769
 30
0.0
  0
SEQEND
  5
18B
  8
LAYER_05
  0
POLYLINE
  5
18C
  8
LAYER_05
 66
     1
 10
0.0
 20
0.0
 30
0.0
 70
     1
  0
VERTEX
  5
18D
  8
LAYER_05
 10
12341.85314738584
 20
8096.534250741407
 30
0.0
  0
VERTEX
  5
18E
  8
LAYER_05
 10
12302.92929738144
 20
8160.762676991964
 30
0.0
  0
VERTEX
  5
18F
  8
LAYER_05
 10
12337.50400897331
 20
8187.074957945455
 30
0.0
  0
SEQEND
  5
190
  8
LAYER_05
  0
POLYLINE
  5
191
  8
LAYER_05
 66
     1
 10
0.0
 20
0.0
 30
0.0
 70
     1
  0
VERTEX
  5
192
  8
LAYER_05
 10
12393.35578630004
 20
7944.855645334481
 30
0.0
  0
VERTEX
  5
193
  8
LAYER_05
 10
12391.84682202751
 20
7977.172266527923
 30
0.0
  0
VERTEX
  5
194
  8
LAYER_05
 10
12405.74439708914
 20
7954.916419166538
 30
0.0
  0
SEQEND
  5
195
  8
LAYER_05
  0
POLYLINE
  5
196
  8
LAYER_05
 66
     1
 10
0.0
 20
0.0
 30
0.0
 70
     1
  0
VERTEX
  5
197
  8
LAYER_05
 10
12291.76272883549
 20
7792.941926075595
 30
0.0
  0
VERTEX
  5
198
  8
LAYER_05
 10
12353.98583813665
 20
7843.954935789925
 30
0.0
  0
VERTEX
  5
199
  8
LAYER_05
 10
12357.44057946049
 20
7772.033857866493
 30
0.0
  0
VERTEX
  5
19A
  8
LAYER_05
 10
12348.13807732728
 20
7769.257327448187
 30
0.0
  0
SEQEND
  5
19B
  8
LAYER_05
  0
POLYLINE
  5
19C
  8
LAYER_05
 66
     1
 10
0.0
 20
0.0
 30
0.0
 70
     1
  0
VERTEX
  5
19D
  8
LAYER_05
 10
11082.5507324469
 20
8101.577705766093
 30
0.0
  0
VERTEX
  5
19E
  8
LAYER_05
 10
11211.29671974188
 20
8100.38626893597
 30
0.0
  0
VERTEX
  5
19F
  8
LAYER_05
 10
11129.9987353932
 20
8220.234169975221
 30
0.0
  0
SEQEND
  5
1A0
  8
LAYER_05
  0
POLYLINE
  5
1A1
  8
LAYER_05
 66
     1
 10
0.0
 20
0.0
 30
0.0
 70
     1
  0
VERTEX
  5
1A2
  8
LAYER_05
 10
10878.00176964187
 20
8158.600666151203
 30
0.0
  0
VERTEX
  5
1A3
  8
LAYER_05
 10
10808.73842954418
 20
7992.811959297193
 30
0.0
  0
VERTEX
  5
1A4
  8
LAYER_05
 10
10945.00085539437
 20
8028.555613026958
 30
0.0
  0
VERTEX
  5
1A5
  8
LAYER_05
 10
10869.94497661395
 20
8029.023917099848
 30
0.0
  0
VERTEX
  5
1A6
  8
LAYER_05
 10
10939.58084844011
 20
8158.600666151202
 30
0.0
  0
SEQEND
  5
1A7
  8
LAYER_05
  0
POLYLINE
  5
1A8
  8
LAYER_05
 66
     1
 10
0.0
 20
0.0
 30
0.0
 70
     1
  0
VERTEX
  5
1A9
  8
LAYER_05
 10
10901.58204917181
 20
8293.506466822346
 30
0.0
  0
VERTEX
  5
1AA
  8
LAYER_05
 10
10859.33322335639
 20
8192.379691992264
 30
0.0
  0
VERTEX
  5
1AB
  8
LAYER_05
 10
10742.527700239
 20
8192.379691992264
 30
0.0
  0
VERTEX
  5
1AC
  8
LAYER_05
 10
10839.02761820272
 20
8376.13437952703
 30
0.0
  0
SEQEND
  5
1AD
  8
LAYER_05
  0
POLYLINE
  5
1AE
  8
LAYER_05
 66
     1
 10
0.0
 20
0.0
 30
0.0
 70
     1
  0
VERTEX
  5
1AF
  8
LAYER_05
 10
10922.70579085759
 20
8265.60419584059
 30
0.0
  0
VERTEX
  5
1B0
  8
LAYER_05
 10
10892.1139983901
 20
8192.379691992264
 30
0.0
  0
VERTEX
  5
1B1
  8
LAYER_05
 10
10957.73404282955
 20
8192.379691992264
 30
0.0
  0
VERTEX
  5
1B2
  8
LAYER_05
 10
10966.20626016575
 20
8208.144589463805
 30
0.0
  0
SEQEND
  5
1B3
  8
LAYER_05
  0
POLYLINE
  5
1B4
  8
LAYER_05
 66
     1
 10
0.0
 20
0.0
 30
0.0
 70
     1
  0
VERTEX
  5
1B5
  8
LAYER_05
 10
10978.78194000584
 20
8399.82804700817
 30
0.0
  0
VERTEX
  5
1B6
  8
LAYER_05
 10
10931.93858089178
 20
8287.70379886671
 30
0.0
  0
VERTEX
  5
1B7
  8
LAYER_05
 10
10976.72866064073
 20
8227.724418221715
 30
0.0
  0
VERTEX
  5
1B8
  8
LAYER_05
 10
11049.59076783639
 20
8363.304468156526
 30
0.0
  0
SEQEND
  5
1B9
  8
LAYER_05
  0
POLYLINE
  5
1BA
  8
LAYER_05
 66
     1
 10
0.0
 20
0.0
 30
0.0
 70
     1
  0
VERTEX
  5
1BB
  8
LAYER_05
 10
10910.91798002914
 20
8315.852947687015
 30
0.0
  0
VERTEX
  5
1BC
  8
LAYER_05
 10
10951.81283493369
 20
8413.73885821406
 30
0.0
  0
VERTEX
  5
1BD
  8
LAYER_05
 10
10735.58005883706
 20
8525.272901214668
 30
0.0
  0
VERTEX
  5
1BE
  8
LAYER_05
 10
10735.58005883706
 20
8236.880413236471
 30
0.0
  0
VERTEX
  5
1BF
  8
LAYER_05
 10
10833.09553262262
 20
8420.066698184537
 30
0.0
  0
SEQEND
  5
1C0
  8
LAYER_05
  0
POLYLINE
  5
1C1
  8
LAYER_05
 66
     1
 10
0.0
 20
0.0
 30
0.0
 70
     1
  0
VERTEX
  5
1C2
  8
LAYER_05
 10
11151.76919152581
 20
8438.063131724173
 30
0.0
  0
VERTEX
  5
1C3
  8
LAYER_05
 10
11124.35202348901
 20
8387.617945004007
 30
0.0
  0
VERTEX
  5
1C4
  8
LAYER_05
 10
11162.06239038971
 20
8368.1889081443
 30
0.0
  0
SEQEND
  5
1C5
  8
LAYER_05
  0
POLYLINE
  5
1C6
  8
LAYER_05
 66
     1
 10
0.0
 20
0.0
 30
0.0
 70
     1
  0
VERTEX
  5
1C7
  8
LAYER_05
 10
10973.39352442001
 20
8465.394389089559
 30
0.0
  0
VERTEX
  5
1C8
  8
LAYER_05
 10
11048.60522822812
 20
8645.421097259372
 30
0.0
  0
VERTEX
  5
1C9
  8
LAYER_05
 10
10954.80520626537
 20
8650.010270943785
 30
0.0
  0
VERTEX
  5
1CA
  8
LAYER_05
 10
10808.1321132042
 20
8550.539942259446
 30
0.0
  0
SEQEND
  5
1CB
  8
LAYER_05
  0
POLYLINE
  5
1CC
  8
LAYER_05
 66
     1
 10
0.0
 20
0.0
 30
0.0
 70
     1
  0
VERTEX
  5
1CD
  8
LAYER_05
 10
10735.58005883705
 20
8551.448353453476
 30
0.0
  0
VERTEX
  5
1CE
  8
LAYER_05
 10
10891.73430851337
 20
8659.595869110359
 30
0.0
  0
VERTEX
  5
1CF
  8
LAYER_05
 10
10735.58005883706
 20
8659.595869110359
 30
0.0
  0
SEQEND
  5
1D0
  8
LAYER_05
  0
POLYLINE
  5
1D1
  8
LAYER_05
 66
     1
 10
0.0
 20
0.0
 30
0.0
 70
     1
  0
VERTEX
  5
1D2
  8
LAYER_05
 10
11138.43004250625
 20
8528.614445585095
 30
0.0
  0
VERTEX
  5
1D3
  8
LAYER_05
 10
11119.13511841624
 20
8659.595869110359
 30
0.0
  0
VERTEX
  5
1D4
  8
LAYER_05
 10
11087.30795091528
 20
8659.595869110359
 30
0.0
  0
VERTEX
  5
1D5
  8
LAYER_05
 10
11000.36808162084
 20
8451.496628096957
 30
0.0
  0
VERTEX
  5
1D6
  8
LAYER_05
 10
11076.0351931349
 20
8412.511616295149
 30
0.0
  0
SEQEND
  5
1D7
  8
LAYER_05
  0
POLYLINE
  5
1D8
  8
LAYER_05
 66
     1
 10
0.0
 20
0.0
 30
0.0
 70
     1
  0
VERTEX
  5
1D9
  8
LAYER_05
 10
11335.06976373111
 20
8394.482961629972
 30
0.0
  0
VERTEX
  5
1DA
  8
LAYER_05
 10
11327.27208940375
 20
8405.103435546476
 30
0.0
  0
VERTEX
  5
1DB
  8
LAYER_05
 10
11217.88733019344
 20
8350.755033171541
 30
0.0
  0
VERTEX
  5
1DC
  8
LAYER_05
 10
11217.88733019344
 20
8554.086059503948
 30
0.0
  0
VERTEX
  5
1DD
  8
LAYER_05
 10
11216.12942939352
 20
8556.48032974525
 30
0.0
  0
VERTEX
  5
1DE
  8
LAYER_05
 10
11174.25405859383
 20
8479.43331686152
 30
0.0
  0
VERTEX
  5
1DF
  8
LAYER_05
 10
11202.5399957202
 20
8284.41242381594
 30
0.0
  0
VERTEX
  5
1E0
  8
LAYER_05
 10
11097.66133115508
 20
8338.509409918666
 30
0.0
  0
VERTEX
  5
1E1
  8
LAYER_05
 10
11011.87157274573
 20
8180.663771892561
 30
0.0
  0
VERTEX
  5
1E2
  8
LAYER_05
 10
11028.34737251288
 20
8158.600666151202
 30
0.0
  0
VERTEX
  5
1E3
  8
LAYER_05
 10
10999.88018334162
 20
8158.600666151202
 30
0.0
  0
VERTEX
  5
1E4
  8
LAYER_05
 10
10969.45679414724
 20
8102.624295925405
 30
0.0
  0
VERTEX
  5
1E5
  8
LAYER_05
 10
11055.46976526266
 20
8101.82831755118
 30
0.0
  0
VERTEX
  5
1E6
  8
LAYER_05
 10
11134.485955777
 20
8309.494955009766
 30
0.0
  0
VERTEX
  5
1E7
  8
LAYER_05
 10
11275.98183871689
 20
8099.787662061093
 30
0.0
  0
VERTEX
  5
1E8
  8
LAYER_05
 10
11407.13273515339
 20
8098.573969800844
 30
0.0
  0
VERTEX
  5
1E9
  8
LAYER_05
 10
11421.26927835797
 20
8132.129560485206
 30
0.0
  0
VERTEX
  5
1EA
  8
LAYER_05
 10
11371.47929236013
 20
8100.192742186374
 30
0.0
  0
SEQEND
  5
1EB
  8
LAYER_05
  0
POLYLINE
  5
1EC
  8
LAYER_05
 66
     1
 10
0.0
 20
0.0
 30
0.0
 70
     1
  0
VERTEX
  5
1ED
  8
LAYER_05
 10
11161.02318409889
 20
8570.655217986705
 30
0.0
  0
VERTEX
  5
1EE
  8
LAYER_05
 10
11200.40338220364
 20
8643.93293985037
 30
0.0
  0
VERTEX
  5
1EF
  8
LAYER_05
 10
11217.88733019344
 20
8620.356949769199
 30
0.0
  0
VERTEX
  5
1F0
  8
LAYER_05
 10
11217.88733019344
 20
8659.595869110359
 30
0.0
  0
VERTEX
  5
1F1
  8
LAYER_05
 10
11148.12318335346
 20
8659.595869110359
 30
0.0
  0
SEQEND
  5
1F2
  8
LAYER_05
  0
POLYLINE
  5
1F3
  8
LAYER_05
 66
     1
 10
0.0
 20
0.0
 30
0.0
 70
     1
  0
VERTEX
  5
1F4
  8
LAYER_05
 10
11631.01875971723
 20
8659.595869110359
 30
0.0
  0
VERTEX
  5
1F5
  8
LAYER_05
 10
11647.16339524867
 20
8623.03704035272
 30
0.0
  0
VERTEX
  5
1F6
  8
LAYER_05
 10
11571.81760737895
 20
8659.595869110359
 30
0.0
  0
SEQEND
  5
1F7
  8
LAYER_05
  0
POLYLINE
  5
1F8
  8
LAYER_05
 66
     1
 10
0.0
 20
0.0
 30
0.0
 70
     1
  0
VERTEX
  5
1F9
  8
LAYER_05
 10
11363.98993552385
 20
8423.346893681619
 30
0.0
  0
VERTEX
  5
1FA
  8
LAYER_05
 10
11472.40579725233
 20
8477.213894163066
 30
0.0
  0
VERTEX
  5
1FB
  8
LAYER_05
 10
11695.35313466975
 20
8356.785699824737
 30
0.0
  0
VERTEX
  5
1FC
  8
LAYER_05
 10
11541.77246761741
 20
8256.560398482306
 30
0.0
  0
VERTEX
  5
1FD
  8
LAYER_05
 10
11495.65049112158
 20
8308.686551397552
 30
0.0
  0
VERTEX
  5
1FE
  8
LAYER_05
 10
11478.75806445921
 20
8268.589382906988
 30
0.0
  0
SEQEND
  5
1FF
  8
LAYER_05
  0
POLYLINE
  5
200
  8
LAYER_05
 66
     1
 10
0.0
 20
0.0
 30
0.0
 70
     1
  0
VERTEX
  5
201
  8
LAYER_05
 10
11416.59555703246
 20
8507.360593976231
 30
0.0
  0
VERTEX
  5
202
  8
LAYER_05
 10
11354.5858600014
 20
8476.820486230741
 30
0.0
  0
VERTEX
  5
203
  8
LAYER_05
 10
11346.70468221771
 20
8545.113150037965
 30
0.0
  0
SEQEND
  5
204
  8
LAYER_05
  0
POLYLINE
  5
205
  8
LAYER_05
 66
     1
 10
0.0
 20
0.0
 30
0.0
 70
     1
  0
VERTEX
  5
206
  8
LAYER_05
 10
11324.99291857253
 20
8475.931886806511
 30
0.0
  0
VERTEX
  5
207
  8
LAYER_05
 10
11306.10087835871
 20
8628.632096603455
 30
0.0
  0
VERTEX
  5
208
  8
LAYER_05
 10
11476.58562621955
 20
8536.906024196855
 30
0.0
  0
VERTEX
  5
209
  8
LAYER_05
 10
11612.59653061989
 20
8603.89212272379
 30
0.0
  0
VERTEX
  5
20A
  8
LAYER_05
 10
11498.72331100368
 20
8659.595869110359
 30
0.0
  0
VERTEX
  5
20B
  8
LAYER_05
 10
11253.28035791199
 20
8659.595869110359
 30
0.0
  0
VERTEX
  5
20C
  8
LAYER_05
 10
11253.28035791199
 20
8572.63170653913
 30
0.0
  0
SEQEND
  5
20D
  8
LAYER_05
  0
POLYLINE
  5
20E
  8
LAYER_05
 66
     1
 10
0.0
 20
0.0
 30
0.0
 70
     1
  0
VERTEX
  5
20F
  8
LAYER_05
 10
11493.61958691925
 20
8178.537258982786
 30
0.0
  0
VERTEX
  5
210
  8
LAYER_05
 10
11461.97114588036
 20
8098.066486005673
 30
0.0
  0
VERTEX
  5
211
  8
LAYER_05
 10
11553.32284626453
 20
8097.221102140756
 30
0.0
  0
SEQEND
  5
212
  8
LAYER_05
  0
POLYLINE
  5
213
  8
LAYER_05
 66
     1
 10
0.0
 20
0.0
 30
0.0
 70
     1
  0
VERTEX
  5
214
  8
LAYER_05
 10
10857.73251700273
 20
7618.86880168319
 30
0.0
  0
VERTEX
  5
215
  8
LAYER_05
 10
10735.58005883706
 20
7748.931425736932
 30
0.0
  0
VERTEX
  5
216
  8
LAYER_05
 10
10735.58005883706
 20
7618.86880168319
 30
0.0
  0
SEQEND
  5
217
  8
LAYER_05
  0
POLYLINE
  5
218
  8
LAYER_05
 66
     1
 10
0.0
 20
0.0
 30
0.0
 70
     1
  0
VERTEX
  5
219
  8
LAYER_05
 10
11428.96974206334
 20
7624.783697599816
 30
0.0
  0
VERTEX
  5
21A
  8
LAYER_05
 10
11409.14040453079
 20
7618.86880168319
 30
0.0
  0
VERTEX
  5
21B
  8
LAYER_05
 10
11427.18414266511
 20
7618.86880168319
 30
0.0
  0
SEQEND
  5
21C
  8
LAYER_05
  0
POLYLINE
  5
21D
  8
LAYER_05
 66
     1
 10
0.0
 20
0.0
 30
0.0
 70
     1
  0
VERTEX
  5
21E
  8
LAYER_05
 10
11635.6960684509
 20
7780.336185697282
 30
0.0
  0
VERTEX
  5
21F
  8
LAYER_05
 10
11722.91008317817
 20
7618.86880168319
 30
0.0
  0
VERTEX
  5
220
  8
LAYER_05
 10
11449.03169063952
 20
7618.868801683189
 30
0.0
  0
VERTEX
  5
221
  8
LAYER_05
 10
11453.27492096849
 20
7632.03369287691
 30
0.0
  0
VERTEX
  5
222
  8
LAYER_05
 10
11551.60139010863
 20
7661.363509360113
 30
0.0
  0
VERTEX
  5
223
  8
LAYER_05
 10
11484.37435687212
 20
7728.52166503861
 30
0.0
  0
VERTEX
  5
224
  8
LAYER_05
 10
11497.65895756932
 20
7769.737981187325
 30
0.0
  0
SEQEND
  5
225
  8
LAYER_05
  0
POLYLINE
  5
226
  8
LAYER_05
 66
     1
 10
0.0
 20
0.0
 30
0.0
 70
     1
  0
VERTEX
  5
227
  8
LAYER_05
 10
11687.11700989418
 20
7784.284179465263
 30
0.0
  0
VERTEX
  5
228
  8
LAYER_05
 10
11721.9821368532
 20
7786.961051962939
 30
0.0
  0
VERTEX
  5
229
  8
LAYER_05
 10
11725.3122418073
 20
7712.787216236934
 30
0.0
  0
SEQEND
  5
22A
  8
LAYER_05
  0
POLYLINE
  5
22B
  8
LAYER_05
 66
     1
 10
0.0
 20
0.0
 30
0.0
 70
     1
  0
VERTEX
  5
22C
  8
LAYER_05
 10
11902.38510934305
 20
7800.812019897875
 30
0.0
  0
VERTEX
  5
22D
  8
LAYER_05
 10
11767.93905374588
 20
7790.489529201886
 30
0.0
  0
VERTEX
  5
22E
  8
LAYER_05
 10
11773.6701538197
 20
7671.732917393575
 30
0.0
  0
SEQEND
  5
22F
  8
LAYER_05
  0
POLYLINE
  5
230
  8
LAYER_05
 66
     1
 10
0.0
 20
0.0
 30
0.0
 70
     1
  0
VERTEX
  5
231
  8
LAYER_05
 10
11975.38958777367
 20
7874.023035014981
 30
0.0
  0
VERTEX
  5
232
  8
LAYER_05
 10
11947.02536748691
 20
7845.578569622729
 30
0.0
  0
VERTEX
  5
233
  8
LAYER_05
 10
11927.47074139894
 20
7893.725684204505
 30
0.0
  0
SEQEND
  5
234
  8
LAYER_05
  0
POLYLINE
  5
235
  8
LAYER_05
 66
     1
 10
0.0
 20
0.0
 30
0.0
 70
     1
  0
VERTEX
  5
236
  8
LAYER_05
 10
11964.81500839788
 20
7740.048046292323
 30
0.0
  0
VERTEX
  5
237
  8
LAYER_05
 10
11995.5692815999
 20
7664.025641191702
 30
0.0
  0
VERTEX
  5
238
  8
LAYER_05
 10
11844.27556873887
 20
7618.86880168319
 30
0.0
  0
SEQEND
  5
239
  8
LAYER_05
  0
POLYLINE
  5
23A
  8
LAYER_05
 66
     1
 10
0.0
 20
0.0
 30
0.0
 70
     1
  0
VERTEX
  5
23B
  8
LAYER_05
 10
12279.79879452605
 20
7748.860009098174
 30
0.0
  0
VERTEX
  5
23C
  8
LAYER_05
 10
12214.0614593361
 20
7729.239297577817
 30
0.0
  0
VERTEX
  5
23D
  8
LAYER_05
 10
12251.95704020407
 20
7760.307620210035
 30
0.0
  0
SEQEND
  5
23E
  8
LAYER_05
  0
POLYLINE
  5
23F
  8
LAYER_05
 66
     1
 10
0.0
 20
0.0
 30
0.0
 70
     1
  0
VERTEX
  5
240
  8
LAYER_05
 10
12202.92683651094
 20
7618.86880168319
 30
0.0
  0
VERTEX
  5
241
  8
LAYER_05
 10
12283.87896753338
 20
7703.177446511229
 30
0.0
  0
VERTEX
  5
242
  8
LAYER_05
 10
12359.65204917352
 20
7725.995306598238
 30
0.0
  0
VERTEX
  5
243
  8
LAYER_05
 10
12364.79788922618
 20
7618.86880168319
 30
0.0
  0
SEQEND
  5
244
  8
LAYER_05
  0
POLYLINE
  5
245
  8
LAYER_05
 66
     1
 10
0.0
 20
0.0
 30
0.0
 70
     1
  0
VERTEX
  5
246
  8
LAYER_05
 10
12453.32246748627
 20
7720.52345914428
 30
0.0
  0
VERTEX
  5
247
  8
LAYER_05
 10
12452.08884817638
 20
7753.831180511285
 30
0.0
  0
VERTEX
  5
248
  8
LAYER_05
 10
12402.96602776155
 20
7739.038623325505
 30
0.0
  0
VERTEX
  5
249
  8
LAYER_05
 10
12406.05595104105
 20
7672.86351105919
 30
0.0
  0
SEQEND
  5
24A
  8
LAYER_05
  0
POLYLINE
  5
24B
  8
LAYER_05
 66
     1
 10
0.0
 20
0.0
 30
0.0
 70
     1
  0
VERTEX
  5
24C
  8
LAYER_05
 10
12584.62634986272
 20
7852.920273804526
 30
0.0
  0
VERTEX
  5
24D
  8
LAYER_05
 10
12389.98167025161
 20
8017.117150914879
 30
0.0
  0
VERTEX
  5
24E
  8
LAYER_05
 10
12448.14142200831
 20
7921.147473556818
 30
0.0
  0
VERTEX
  5
24F
  8
LAYER_05
 10
12396.44189983481
 20
7878.762124182873
 30
0.0
  0
VERTEX
  5
250
  8
LAYER_05
 10
12400.82080567188
 20
7784.981612772013
 30
0.0
  0
VERTEX
  5
251
  8
LAYER_05
 10
12500.02747063196
 20
7814.591960505973
 30
0.0
  0
VERTEX
  5
252
  8
LAYER_05
 10
12502.85341068023
 20
7770.466682355283
 30
0.0
  0
SEQEND
  5
253
  8
LAYER_05
  0
POLYLINE
  5
254
  8
LAYER_05
 66
     1
 10
0.0
 20
0.0
 30
0.0
 70
     1
  0
VERTEX
  5
255
  8
LAYER_05
 10
12521.2836999711
 20
7618.86880168319
 30
0.0
  0
VERTEX
  5
256
  8
LAYER_05
 10
12545.95525629733
 20
7618.86880168319
 30
0.0
  0
VERTEX
  5
257
  8
LAYER_05
 10
12601.07074548048
 20
7747.609898677521
 30
0.0
  0
VERTEX
  5
258
  8
LAYER_05
 10
12517.75001391886
 20
7664.685152196781
 30
0.0
  0
SEQEND
  5
259
  8
LAYER_05
  0
POLYLINE
  5
25A
  8
LAYER_05
 66
     1
 10
0.0
 20
0.0
 30
0.0
 70
     1
  0
VERTEX
  5
25B
  8
LAYER_05
 10
12805.77439002896
 20
7699.20280643058
 30
0.0
  0
VERTEX
  5
25C
  8
LAYER_05
 10
12791.29695382468
 20
7618.86880168319
 30
0.0
  0
VERTEX
  5
25D
  8
LAYER_05
 10
12883.53426171381
 20
7618.86880168319
 30
0.0
  0
SEQEND
  5
25E
  8
LAYER_05
  0
POLYLINE
  5
25F
  8
LAYER_05
 66
     1
 10
0.0
 20
0.0
 30
0.0
 70
     1
  0
VERTEX
  5
260
  8
LAYER_05
 10
12781.47143150042
 20
7724.310280806566
 30
0.0
  0
VERTEX
  5
261
  8
LAYER_05
 10
12760.2531025952
 20
7746.231013159516
 30
0.0
  0
VERTEX
  5
262
  8
LAYER_05
 10
12767.22625150715
 20
7647.238206630938
 30
0.0
  0
SEQEND
  5
263
  8
LAYER_05
  0
POLYLINE
  5
264
  8
LAYER_05
 66
     1
 10
0.0
 20
0.0
 30
0.0
 70
     1
  0
VERTEX
  5
265
  8
LAYER_05
 10
12861.14472501296
 20
8006.447866308888
 30
0.0
  0
VERTEX
  5
266
  8
LAYER_05
 10
12811.63884791912
 20
7731.744161221673
 30
0.0
  0
VERTEX
  5
267
  8
LAYER_05
 10
12925.34928573799
 20
7618.86880168319
 30
0.0
  0
VERTEX
  5
268
  8
LAYER_05
 10
12925.34928573799
 20
8070.347292313003
 30
0.0
  0
SEQEND
  5
269
  8
LAYER_05
  0
POLYLINE
  5
26A
  8
LAYER_05
 66
     1
 10
0.0
 20
0.0
 30
0.0
 70
     1
  0
VERTEX
  5
26B
  8
LAYER_05
 10
12827.41392031915
 20
7972.877368602
 30
0.0
  0
VERTEX
  5
26C
  8
LAYER_05
 10
12749.73377370142
 20
7895.566399961524
 30
0.0
  0
VERTEX
  5
26D
  8
LAYER_05
 10
12757.48708100416
 20
7785.498242882202
 30
0.0
  0
VERTEX
  5
26E
  8
LAYER_05
 10
12787.30923289558
 20
7755.895101943484
 30
0.0
  0
SEQEND
  5
26F
  8
LAYER_05
  0
POLYLINE
  5
270
  8
LAYER_05
 66
     1
 10
0.0
 20
0.0
 30
0.0
 70
     1
  0
VERTEX
  5
271
  8
LAYER_05
 10
12715.91563189048
 20
8075.668089544582
 30
0.0
  0
VERTEX
  5
272
  8
LAYER_05
 10
12721.88169658959
 20
7991.318090935516
 30
0.0
  0
VERTEX
  5
273
  8
LAYER_05
 10
12659.08925384935
 20
7928.002983620503
 30
0.0
  0
SEQEND
  5
274
  8
LAYER_05
  0
POLYLINE
  5
275
  8
LAYER_05
 66
     1
 10
0.0
 20
0.0
 30
0.0
 70
     1
  0
VERTEX
  5
276
  8
LAYER_05
 10
12733.77770808631
 20
8122.083248567607
 30
0.0
  0
VERTEX
  5
277
  8
LAYER_05
 10
12741.58916400935
 20
8011.189597125381
 30
0.0
  0
VERTEX
  5
278
  8
LAYER_05
 10
12840.37209589522
 20
8110.794767115658
 30
0.0
  0
VERTEX
  5
279
  8
LAYER_05
 10
12752.5854044492
 20
8170.95563092504
 30
0.0
  0
SEQEND
  5
27A
  8
LAYER_05
  0
POLYLINE
  5
27B
  8
LAYER_05
 66
     1
 10
0.0
 20
0.0
 30
0.0
 70
     1
  0
VERTEX
  5
27C
  8
LAYER_05
 10
12724.47967150371
 20
8254.080822137408
 30
0.0
  0
VERTEX
  5
27D
  8
LAYER_05
 10
12760.44596468247
 20
8228.528641013236
 30
0.0
  0
VERTEX
  5
27E
  8
LAYER_05
 10
12840.41768773284
 20
8226.364318332575
 30
0.0
  0
VERTEX
  5
27F
  8
LAYER_05
 10
12717.53582845646
 20
8352.657594270331
 30
0.0
  0
SEQEND
  5
280
  8
LAYER_05
  0
POLYLINE
  5
281
  8
LAYER_05
 66
     1
 10
0.0
 20
0.0
 30
0.0
 70
     1
  0
VERTEX
  5
282
  8
LAYER_05
 10
12925.34928573799
 20
8111.373406064609
 30
0.0
  0
VERTEX
  5
283
  8
LAYER_05
 10
12925.34928573799
 20
8362.713258420416
 30
0.0
  0
VERTEX
  5
284
  8
LAYER_05
 10
12896.03527464245
 20
8200.052420321357
 30
0.0
  0
VERTEX
  5
285
  8
LAYER_05
 10
12914.79595253312
 20
8180.548442014612
 30
0.0
  0
VERTEX
  5
286
  8
LAYER_05
 10
12892.65410684648
 20
8181.290621205811
 30
0.0
  0
VERTEX
  5
287
  8
LAYER_05
 10
12885.19503783552
 20
8139.900911254243
 30
0.0
  0
SEQEND
  5
288
  8
LAYER_05
  0
POLYLINE
  5
289
  8
LAYER_05
 66
     1
 10
0.0
 20
0.0
 30
0.0
 70
     1
  0
VERTEX
  5
28A
  8
LAYER_05
 10
12692.1238914296
 20
8412.042798166902
 30
0.0
  0
VERTEX
  5
28B
  8
LAYER_05
 10
12612.35870034056
 20
8494.96829615264
 30
0.0
  0
VERTEX
  5
28C
  8
LAYER_05
 10
12684.66107093195
 20
8517.55437578872
 30
0.0
  0
SEQEND
  5
28D
  8
LAYER_05
  0
POLYLINE
  5
28E
  8
LAYER_05
 66
     1
 10
0.0
 20
0.0
 30
0.0
 70
     1
  0
VERTEX
  5
28F
  8
LAYER_05
 10
11928.07464976199
 20
8367.51287524041
 30
0.0
  0
VERTEX
  5
290
  8
LAYER_05
 10
11786.24593144721
 20
8466.046511122266
 30
0.0
  0
VERTEX
  5
291
  8
LAYER_05
 10
11710.07398048771
 20
8639.9339951308
 30
0.0
  0
VERTEX
  5
292
  8
LAYER_05
 10
11982.63788455582
 20
8626.76748866593
 30
0.0
  0
VERTEX
  5
293
  8
LAYER_05
 10
12017.08530841334
 20
8458.57172694018
 30
0.0
  0
VERTEX
  5
294
  8
LAYER_05
 10
11941.90086132165
 20
8375.005572508544
 30
0.0
  0
SEQEND
  5
295
  8
LAYER_05
  0
POLYLINE
  5
296
  8
LAYER_05
 66
     1
 10
0.0
 20
0.0
 30
0.0
 70
     1
  0
VERTEX
  5
297
  8
LAYER_05
 10
12457.56181965903
 20
8446.612278972381
 30
0.0
  0
VERTEX
  5
298
  8
LAYER_05
 10
12499.38628601788
 20
8426.033913086096
 30
0.0
  0
VERTEX
  5
299
  8
LAYER_05
 10
12515.71728003698
 20
8464.779094923586
 30
0.0
  0
SEQEND
  5
29A
  8
LAYER_05
  0
POLYLINE
  5
29B
  8
LAYER_05
 66
     1
 10
0.0
 20
0.0
 30
0.0
 70
     1
  0
VERTEX
  5
29C
  8
LAYER_05
 10
12371.1870742519
 20
8419.630219292252
 30
0.0
  0
VERTEX
  5
29D
  8
LAYER_05
 10
12376.39232605967
 20
8308.15233081558
 30
0.0
  0
VERTEX
  5
29E
  8
LAYER_05
 10
12459.44085188976
 20
8371.849743830928
 30
0.0
  0
VERTEX
  5
29F
  8
LAYER_05
 10
12383.91695342837
 20
8423.606825625982
 30
0.0
  0
SEQEND
  5
2A0
  8
LAYER_05
  0
POLYLINE
  5
2A1
  8
LAYER_05
 66
     1
 10
0.0
 20
0.0
 30
0.0
 70
     1
  0
VERTEX
  5
2A2
  8
LAYER_05
 10
12702.17575230867
 20
8269.9265969638
 30
0.0
  0
VERTEX
  5
2A3
  8
LAYER_05
 10
12569.87765060279
 20
8363.917518974342
 30
0.0
  0
VERTEX
  5
2A4
  8
LAYER_05
 10
12591.77106457705
 20
8380.578993011262
 30
0.0
  0
VERTEX
  5
2A5
  8
LAYER_05
 10
12531.54331375619
 20
8410.212095374503
 30
0.0
  0
VERTEX
  5
2A6
  8
LAYER_05
 10
12556.39343101225
 20
8477.485660112285
 30
0.0
  0
VERTEX
  5
2A7
  8
LAYER_05
 10
12586.82888027597
 20
8486.993197350796
 30
0.0
  0
VERTEX
  5
2A8
  8
LAYER_05
 10
12694.66137632087
 20
8376.167081451738
 30
0.0
  0
SEQEND
  5
2A9
  8
LAYER_05
  0
POLYLINE
  5
2AA
  8
LAYER_05
 66
     1
 10
0.0
 20
0.0
 30
0.0
 70
     1
  0
VERTEX
  5
2AB
  8
LAYER_05
 10
12709.34234935939
 20
8168.603114610238
 30
0.0
  0
VERTEX
  5
2AC
  8
LAYER_05
 10
12421.93864956212
 20
8039.716514505169
 30
0.0
  0
VERTEX
  5
2AD
  8
LAYER_05
 10
12602.66145051948
 20
7889.282451138424
 30
0.0
  0
SEQEND
  5
2AE
  8
LAYER_05
  0
POLYLINE
  5
2AF
  8
LAYER_05
 66
     1
 10
0.0
 20
0.0
 30
0.0
 70
     1
  0
VERTEX
  5
2B0
  8
LAYER_05
 10
12124.22239013552
 20
8164.418742469949
 30
0.0
  0
VERTEX
  5
2B1
  8
LAYER_05
 10
12158.5619677225
 20
8141.0785608288
 30
0.0
  0
VERTEX
  5
2B2
  8
LAYER_05
 10
12130.92933888298
 20
8119.884602786837
 30
0.0
  0
SEQEND
  5
2B3
  8
LAYER_05
  0
ENDSEC
  0
EOF
