  0
SECTION
  2
HEADER
  9
$ACADVER
  1
AC1009
  9
$DWGCODEPAGE
  3
ansi_1252
  9
$INSBASE
 10
0.0
 20
0.0
 30
0.0
  9
$EXTMIN
 10
1.000000000000000E+20
 20
1.000000000000000E+20
 30
1.000000000000000E+20
  9
$EXTMAX
 10
-1.000000000000000E+20
 20
-1.000000000000000E+20
 30
-1.000000000000000E+20
  9
$LIMMIN
 10
0.0
 20
0.0
  9
$LIMMAX
 10
12.0
 20
9.0
  9
$ORTHOMODE
 70
     0
  9
$REGENMODE
 70
     1
  9
$FILLMODE
 70
     1
  9
$QTEXTMODE
 70
     0
  9
$MIRRTEXT
 70
     1
  9
$DRAGMODE
 70
     2
  9
$LTSCALE
 40
1.0
  9
$OSMODE
 70
    37
  9
$ATTMODE
 70
     1
  9
$TEXTSIZE
 40
0.2
  9
$TRACEWID
 40
0.05
  9
$TEXTSTYLE
  7
STANDARD
  9
$CLAYER
  8
DEFAULT_LAYER
  9
$CELTYPE
  6
BYLAYER
  9
$CECOLOR
 62
   256
  9
$DIMSCALE
 40
1.0
  9
$DIMASZ
 40
0.18
  9
$DIMEXO
 40
0.0625
  9
$DIMDLI
 40
0.38
  9
$DIMRND
 40
0.0
  9
$DIMDLE
 40
0.0
  9
$DIMEXE
 40
0.18
  9
$DIMTP
 40
0.0
  9
$DIMTM
 40
0.0
  9
$DIMTXT
 40
0.18
  9
$DIMCEN
 40
0.09
  9
$DIMTSZ
 40
0.0
  9
$DIMTOL
 70
     0
  9
$DIMLIM
 70
     0
  9
$DIMTIH
 70
     1
  9
$DIMTOH
 70
     1
  9
$DIMSE1
 70
     0
  9
$DIMSE2
 70
     0
  9
$DIMTAD
 70
     0
  9
$DIMZIN
 70
     0
  9
$DIMBLK
  1

  9
$DIMASO
 70
     1
  9
$DIMSHO
 70
     1
  9
$DIMPOST
  1

  9
$DIMAPOST
  1

  9
$DIMALT
 70
     0
  9
$DIMALTD
 70
     2
  9
$DIMALTF
 40
25.4
  9
$DIMLFAC
 40
1.0
  9
$DIMTOFL
 70
     0
  9
$DIMTVP
 40
0.0
  9
$DIMTIX
 70
     0
  9
$DIMSOXD
 70
     0
  9
$DIMSAH
 70
     0
  9
$DIMBLK1
  1

  9
$DIMBLK2
  1

  9
$DIMSTYLE
  2
STANDARD_ACAD
  9
$DIMCLRD
 70
     0
  9
$DIMCLRE
 70
     0
  9
$DIMCLRT
 70
     0
  9
$DIMTFAC
 40
1.0
  9
$DIMGAP
 40
0.09
  9
$LUNITS
 70
     2
  9
$LUPREC
 70
     3
  9
$SKETCHINC
 40
0.1
  9
$FILLETRAD
 40
0.5
  9
$AUNITS
 70
     0
  9
$AUPREC
 70
     0
  9
$MENU
  1
.
  9
$ELEVATION
 40
0.0
  9
$PELEVATION
 40
0.0
  9
$THICKNESS
 40
0.0
  9
$LIMCHECK
 70
     0
  9
$CHAMFERA
 40
0.0
  9
$CHAMFERB
 40
0.0
  9
$SKPOLY
 70
     0
  9
$TDCREATE
 40
2459802.393207546
  9
$TDUPDATE
 40
2459802.39320757
  9
$TDINDWG
 40
0.0000000116
  9
$TDUSRTIMER
 40
0.0000000116
  9
$USRTIMER
 70
     1
  9
$ANGBASE
 50
0.0
  9
$ANGDIR
 70
     0
  9
$PDMODE
 70
     0
  9
$PDSIZE
 40
0.0
  9
$PLINEWID
 40
0.0
  9
$COORDS
 70
     1
  9
$SPLFRAME
 70
     0
  9
$SPLINETYPE
 70
     6
  9
$SPLINESEGS
 70
     8
  9
$ATTDIA
 70
     0
  9
$ATTREQ
 70
     1
  9
$HANDLING
 70
     1
  9
$HANDSEED
  5
19F
  9
$SURFTAB1
 70
     6
  9
$SURFTAB2
 70
     6
  9
$SURFTYPE
 70
     6
  9
$SURFU
 70
     6
  9
$SURFV
 70
     6
  9
$UCSNAME
  2

  9
$UCSORG
 10
0.0
 20
0.0
 30
0.0
  9
$UCSXDIR
 10
1.0
 20
0.0
 30
0.0
  9
$UCSYDIR
 10
0.0
 20
1.0
 30
0.0
  9
$PUCSNAME
  2

  9
$PUCSORG
 10
0.0
 20
0.0
 30
0.0
  9
$PUCSXDIR
 10
1.0
 20
0.0
 30
0.0
  9
$PUCSYDIR
 10
0.0
 20
1.0
 30
0.0
  9
$USERI1
 70
     0
  9
$USERI2
 70
     0
  9
$USERI3
 70
     0
  9
$USERI4
 70
     0
  9
$USERI5
 70
     0
  9
$USERR1
 40
0.0
  9
$USERR2
 40
0.0
  9
$USERR3
 40
0.0
  9
$USERR4
 40
0.0
  9
$USERR5
 40
0.0
  9
$WORLDVIEW
 70
     1
  9
$SHADEDGE
 70
     3
  9
$SHADEDIF
 70
    70
  9
$TILEMODE
 70
     1
  9
$MAXACTVP
 70
    64
  9
$PLIMCHECK
 70
     0
  9
$PEXTMIN
 10
1.000000000000000E+20
 20
1.000000000000000E+20
 30
1.000000000000000E+20
  9
$PEXTMAX
 10
-1.000000000000000E+20
 20
-1.000000000000000E+20
 30
-1.000000000000000E+20
  9
$PLIMMIN
 10
0.0
 20
0.0
  9
$PLIMMAX
 10
12.0
 20
9.0
  9
$UNITMODE
 70
     0
  9
$VISRETAIN
 70
     1
  9
$PLINEGEN
 70
     0
  9
$PSLTSCALE
 70
     1
  0
ENDSEC
  0
SECTION
  2
TABLES
  0
TABLE
  2
VPORT
 70
     1
  0
VPORT
  2
*ACTIVE
 70
     0
 10
0.0
 20
0.0
 11
1.0
 21
1.0
 12
10.42990654205607
 22
4.5
 13
0.0
 23
0.0
 14
0.5
 24
0.5
 15
0.5
 25
0.5
 16
0.0
 26
0.0
 36
1.0
 17
0.0
 27
0.0
 37
0.0
 40
9.0
 41
1.972972972850329
 42
50.0
 43
0.0
 44
0.0
 50
0.0
 51
0.0
 71
     0
 72
   100
 73
     1
 74
     3
 75
     0
 76
     0
 77
     0
 78
     0
  0
ENDTAB
  0
TABLE
  2
LTYPE
 70
     1
  0
LTYPE
  2
CONTINUOUS
 70
     0
  3
Solid line
 72
    65
 73
     0
 40
0.0
  0
ENDTAB
  0
TABLE
  2
LAYER
 70
     2
  0
LAYER
  2
0
 70
     0
 62
     7
  6
CONTINUOUS
  0
LAYER
  2
DEFAULT_LAYER
 70
     0
 62
     5
  6
CONTINUOUS
  0
ENDTAB
  0
TABLE
  2
STYLE
 70
     1
  0
STYLE
  2
STANDARD
 70
     0
 40
0.0
 41
1.0
 50
0.0
 71
     0
 42
0.2
  3
txt
  4

  0
ENDTAB
  0
TABLE
  2
VIEW
 70
     0
  0
ENDTAB
  0
TABLE
  2
UCS
 70
     0
  0
ENDTAB
  0
TABLE
  2
APPID
 70
     2
  0
APPID
  2
ACAD
 70
     0
  0
APPID
  2
RHINO
 70
     0
  0
ENDTAB
  0
TABLE
  2
DIMSTYLE
 70
     1
  0
DIMSTYLE
  2
STANDARD_ACAD
 70
     0
  3

  4

  5

  6

  7

 40
1.0
 41
0.18
 42
0.0625
 43
0.38
 44
0.18
 45
0.0
 46
0.0
 47
0.0
 48
0.0
140
0.18
141
0.09
142
0.0
143
25.4
144
1.0
145
0.0
146
1.0
147
0.09
 71
     0
 72
     0
 73
     1
 74
     1
 75
     0
 76
     0
 77
     0
 78
     0
170
     0
171
     2
172
     0
173
     0
174
     0
175
     0
176
     0
177
     0
178
     0
  0
ENDTAB
  0
ENDSEC
  0
SECTION
  2
BLOCKS
  0
BLOCK
  8
0
  2
$MODEL_SPACE
 70
     0
 10
0.0
 20
0.0
 30
0.0
  3
$MODEL_SPACE
  1

  0
ENDBLK
  5
21
  8
0
  0
BLOCK
 67
     1
  8
0
  2
$PAPER_SPACE
 70
     0
 10
0.0
 20
0.0
 30
0.0
  3
$PAPER_SPACE
  1

  0
ENDBLK
  5
1D
 67
     1
  8
0
  0
ENDSEC
  0
SECTION
  2
ENTITIES
  0
POLYLINE
  5
70
  8
DEFAULT_LAYER
 66
     1
 10
0.0
 20
0.0
 30
0.0
 70
     1
  0
VERTEX
  5
71
  8
DEFAULT_LAYER
 10
25093.91434147422
 20
3558.382485281878
 30
0.0
  0
VERTEX
  5
72
  8
DEFAULT_LAYER
 10
25836.55815951227
 20
3558.382485281878
 30
0.0
  0
VERTEX
  5
73
  8
DEFAULT_LAYER
 10
25836.55815951227
 20
6342.937394026043
 30
0.0
  0
VERTEX
  5
74
  8
DEFAULT_LAYER
 10
25093.91434147422
 20
6342.937394026043
 30
0.0
  0
SEQEND
  5
75
  8
DEFAULT_LAYER
  0
POLYLINE
  5
76
  8
DEFAULT_LAYER
 66
     1
 10
0.0
 20
0.0
 30
0.0
 70
     1
  0
VERTEX
  5
77
  8
DEFAULT_LAYER
 10
25465.23625049299
 20
5173.890093137807
 30
0.0
 42
-0.1836669435575166
  0
VERTEX
  5
78
  8
DEFAULT_LAYER
 10
25465.236250493
 20
4727.429786170114
 30
0.0
 42
-0.1836669435571109
  0
SEQEND
  5
79
  8
DEFAULT_LAYER
  0
POLYLINE
  5
7A
  8
DEFAULT_LAYER
 66
     1
 10
0.0
 20
0.0
 30
0.0
 70
     1
  0
VERTEX
  5
7B
  8
DEFAULT_LAYER
 10
25141.60275601492
 20
4489.457050723526
 30
0.0
 42
0.0900841028575753
  0
VERTEX
  5
7C
  8
DEFAULT_LAYER
 10
25286.96222614839
 20
4611.611439628033
 30
0.0
 42
-0.2115507829991526
  0
VERTEX
  5
7D
  8
DEFAULT_LAYER
 10
25286.96222614839
 20
5289.708439679888
 30
0.0
 42
0.0900841028575742
  0
VERTEX
  5
7E
  8
DEFAULT_LAYER
 10
25141.60275601492
 20
5411.862828584395
 30
0.0
  0
VERTEX
  5
7F
  8
DEFAULT_LAYER
 10
25108.91434147422
 20
5430.543742251351
 30
0.0
  0
VERTEX
  5
80
  8
DEFAULT_LAYER
 10
25108.91434147422
 20
4470.77613705657
 30
0.0
  0
SEQEND
  5
81
  8
DEFAULT_LAYER
  0
POLYLINE
  5
82
  8
DEFAULT_LAYER
 66
     1
 10
0.0
 20
0.0
 30
0.0
 70
     1
  0
VERTEX
  5
83
  8
DEFAULT_LAYER
 10
25327.23625049326
 20
4950.659939653966
 30
0.0
 42
0.0772673413963345
  0
VERTEX
  5
84
  8
DEFAULT_LAYER
 10
25361.46347272748
 20
4730.496563909489
 30
0.0
 42
0.2169878509706674
  0
VERTEX
  5
85
  8
DEFAULT_LAYER
 10
25361.46347272748
 20
5170.823315398431
 30
0.0
 42
0.077267341396089
  0
SEQEND
  5
86
  8
DEFAULT_LAYER
  0
POLYLINE
  5
87
  8
DEFAULT_LAYER
 66
     1
 10
0.0
 20
0.0
 30
0.0
 70
     1
  0
VERTEX
  5
88
  8
DEFAULT_LAYER
 10
25618.23625049325
 20
4950.659939653956
 30
0.0
 42
-0.0826133345570811
  0
VERTEX
  5
89
  8
DEFAULT_LAYER
 10
25578.36741240146
 20
4711.008950153973
 30
0.0
 42
0.0481164720471129
  0
VERTEX
  5
8A
  8
DEFAULT_LAYER
 10
25632.91296793238
 20
4624.815687876849
 30
0.0
 42
0.2066118465908446
  0
VERTEX
  5
8B
  8
DEFAULT_LAYER
 10
25632.91296793238
 20
5276.504191431072
 30
0.0
 42
0.0481164720471874
  0
VERTEX
  5
8C
  8
DEFAULT_LAYER
 10
25578.36741240146
 20
5190.310929153927
 30
0.0
 42
-0.0826133345572997
  0
SEQEND
  5
8D
  8
DEFAULT_LAYER
  0
POLYLINE
  5
8E
  8
DEFAULT_LAYER
 66
     1
 10
0.0
 20
0.0
 30
0.0
 70
     1
  0
VERTEX
  5
8F
  8
DEFAULT_LAYER
 10
25569.0090282585
 20
5170.823315398675
 30
0.0
 42
0.2169878509702344
  0
VERTEX
  5
90
  8
DEFAULT_LAYER
 10
25569.0090282585
 20
4730.496563909246
 30
0.0
 42
0.1554628335385962
  0
SEQEND
  5
91
  8
DEFAULT_LAYER
  0
POLYLINE
  5
92
  8
DEFAULT_LAYER
 66
     1
 10
0.0
 20
0.0
 30
0.0
 70
     1
  0
VERTEX
  5
93
  8
DEFAULT_LAYER
 10
25352.10508858449
 20
5190.31092915368
 30
0.0
 42
0.0481164720475487
  0
VERTEX
  5
94
  8
DEFAULT_LAYER
 10
25297.55953305337
 20
5276.504191430688
 30
0.0
 42
0.2066118465895394
  0
VERTEX
  5
95
  8
DEFAULT_LAYER
 10
25297.55953305337
 20
4624.815687877233
 30
0.0
 42
0.0481164720475506
  0
VERTEX
  5
96
  8
DEFAULT_LAYER
 10
25352.10508858449
 20
4711.008950154241
 30
0.0
 42
-0.1663620841897955
  0
SEQEND
  5
97
  8
DEFAULT_LAYER
  0
POLYLINE
  5
98
  8
DEFAULT_LAYER
 66
     1
 10
0.0
 20
0.0
 30
0.0
 70
     1
  0
VERTEX
  5
99
  8
DEFAULT_LAYER
 10
25788.86974497157
 20
5411.862828585729
 30
0.0
 42
0.090084102858143
  0
VERTEX
  5
9A
  8
DEFAULT_LAYER
 10
25643.51027483732
 20
5289.708439680295
 30
0.0
 42
-0.2115507830000247
  0
VERTEX
  5
9B
  8
DEFAULT_LAYER
 10
25643.51027483732
 20
4611.611439627625
 30
0.0
 42
0.0900841028581451
  0
VERTEX
  5
9C
  8
DEFAULT_LAYER
 10
25788.86974497157
 20
4489.457050722192
 30
0.0
  0
VERTEX
  5
9D
  8
DEFAULT_LAYER
 10
25821.55815951227
 20
4470.776137055238
 30
0.0
  0
VERTEX
  5
9E
  8
DEFAULT_LAYER
 10
25821.55815951227
 20
5430.543742252683
 30
0.0
  0
SEQEND
  5
9F
  8
DEFAULT_LAYER
  0
POLYLINE
  5
A0
  8
DEFAULT_LAYER
 66
     1
 10
0.0
 20
0.0
 30
0.0
 70
     1
  0
VERTEX
  5
A1
  8
DEFAULT_LAYER
 10
25521.12848963938
 20
5285.843494725794
 30
0.0
 42
-0.035552906943086
  0
VERTEX
  5
A2
  8
DEFAULT_LAYER
 10
25562.12848963948
 20
5191.353002612277
 30
0.0
 42
0.0710441801741487
  0
VERTEX
  5
A3
  8
DEFAULT_LAYER
 10
25514.35571187414
 20
5044.488686060939
 30
0.0
 42
0.0605454571189981
  0
VERTEX
  5
A4
  8
DEFAULT_LAYER
 10
25473.35571187396
 20
5194.178585572327
 30
0.0
 42
-0.0412057045949635
  0
SEQEND
  5
A5
  8
DEFAULT_LAYER
  0
POLYLINE
  5
A6
  8
DEFAULT_LAYER
 66
     1
 10
0.0
 20
0.0
 30
0.0
 70
     1
  0
VERTEX
  5
A7
  8
DEFAULT_LAYER
 10
25576.91296793226
 20
5383.770872869597
 30
0.0
 42
0.0255252613111446
  0
VERTEX
  5
A8
  8
DEFAULT_LAYER
 10
25529.14019016667
 20
5452.733398031714
 30
0.0
 42
0.028980936531095
  0
VERTEX
  5
A9
  8
DEFAULT_LAYER
 10
25474.59463463573
 20
5388.855318834433
 30
0.0
 42
-0.0297378222517283
  0
VERTEX
  5
AA
  8
DEFAULT_LAYER
 10
25522.36741240132
 20
5314.98685137418
 30
0.0
 42
-0.0341605958026352
  0
SEQEND
  5
AB
  8
DEFAULT_LAYER
  0
POLYLINE
  5
AC
  8
DEFAULT_LAYER
 66
     1
 10
0.0
 20
0.0
 30
0.0
 70
     1
  0
VERTEX
  5
AD
  8
DEFAULT_LAYER
 10
25455.87786634977
 20
5388.855318834413
 30
0.0
 42
0.0289809365325215
  0
VERTEX
  5
AE
  8
DEFAULT_LAYER
 10
25401.33231081869
 20
5452.733398031571
 30
0.0
 42
0.0255252613104015
  0
VERTEX
  5
AF
  8
DEFAULT_LAYER
 10
25353.55953305326
 20
5383.770872869342
 30
0.0
 42
-0.034160595803124
  0
VERTEX
  5
B0
  8
DEFAULT_LAYER
 10
25408.10508858434
 20
5314.986851374048
 30
0.0
 42
-0.029737822251674
  0
SEQEND
  5
B1
  8
DEFAULT_LAYER
  0
POLYLINE
  5
B2
  8
DEFAULT_LAYER
 66
     1
 10
0.0
 20
0.0
 30
0.0
 70
     1
  0
VERTEX
  5
B3
  8
DEFAULT_LAYER
 10
25465.2362504926
 20
5526.169042688902
 30
0.0
 42
-0.0250169329899327
  0
VERTEX
  5
B4
  8
DEFAULT_LAYER
 10
25519.78180602368
 20
5464.641270660893
 30
0.0
 42
0.02824992713479
  0
VERTEX
  5
B5
  8
DEFAULT_LAYER
 10
25465.23625049274
 20
5401.318707268068
 30
0.0
 42
0.0282499271337069
  0
VERTEX
  5
B6
  8
DEFAULT_LAYER
 10
25410.69069496165
 20
5464.641270660764
 30
0.0
 42
-0.0250169329891153
  0
SEQEND
  5
B7
  8
DEFAULT_LAYER
  0
POLYLINE
  5
B8
  8
DEFAULT_LAYER
 66
     1
 10
0.0
 20
0.0
 30
0.0
 70
     1
  0
VERTEX
  5
B9
  8
DEFAULT_LAYER
 10
25513.00902825836
 20
5300.981613020838
 30
0.0
 42
0.030756493126467
  0
VERTEX
  5
BA
  8
DEFAULT_LAYER
 10
25465.23625049277
 20
5376.232747232503
 30
0.0
 42
0.0307564931262214
  0
VERTEX
  5
BB
  8
DEFAULT_LAYER
 10
25417.46347272734
 20
5300.981613020728
 30
0.0
 42
-0.0389190921248976
  0
VERTEX
  5
BC
  8
DEFAULT_LAYER
 10
25465.23625049295
 20
5213.153390432511
 30
0.0
 42
-0.0389190921247851
  0
SEQEND
  5
BD
  8
DEFAULT_LAYER
  0
POLYLINE
  5
BE
  8
DEFAULT_LAYER
 66
     1
 10
0.0
 20
0.0
 30
0.0
 70
     1
  0
VERTEX
  5
BF
  8
DEFAULT_LAYER
 10
25197.17439766355
 20
5509.103728644382
 30
0.0
 42
-0.0723023563433741
  0
VERTEX
  5
C0
  8
DEFAULT_LAYER
 10
25342.96222614828
 20
5395.127472549157
 30
0.0
 42
-0.0249348087520871
  0
VERTEX
  5
C1
  8
DEFAULT_LAYER
 10
25390.73500391372
 20
5463.550367045495
 30
0.0
 42
0.0666049248477365
  0
VERTEX
  5
C2
  8
DEFAULT_LAYER
 10
25237.8607781563
 20
5580.297959045448
 30
0.0
  0
VERTEX
  5
C3
  8
DEFAULT_LAYER
 10
25188.98978922698
 20
5608.226958901664
 30
0.0
  0
VERTEX
  5
C4
  8
DEFAULT_LAYER
 10
25188.98978922698
 20
6327.937394026043
 30
0.0
  0
VERTEX
  5
C5
  8
DEFAULT_LAYER
 10
25108.91434147422
 20
6327.937394026043
 30
0.0
  0
VERTEX
  5
C6
  8
DEFAULT_LAYER
 10
25108.91434147422
 20
5559.54295957926
 30
0.0
  0
SEQEND
  5
C7
  8
DEFAULT_LAYER
  0
POLYLINE
  5
C8
  8
DEFAULT_LAYER
 66
     1
 10
0.0
 20
0.0
 30
0.0
 70
     1
  0
VERTEX
  5
C9
  8
DEFAULT_LAYER
 10
25457.11678911197
 20
5194.178585572309
 30
0.0
 42
0.0412057045949064
  0
VERTEX
  5
CA
  8
DEFAULT_LAYER
 10
25409.34401134636
 20
5285.843494725666
 30
0.0
 42
0.0355529069429296
  0
VERTEX
  5
CB
  8
DEFAULT_LAYER
 10
25368.34401134646
 20
5191.353002612062
 30
0.0
 42
-0.0710441801735493
  0
VERTEX
  5
CC
  8
DEFAULT_LAYER
 10
25416.11678911214
 20
5044.488686060855
 30
0.0
 42
-0.0605454571194805
  0
SEQEND
  5
CD
  8
DEFAULT_LAYER
  0
POLYLINE
  5
CE
  8
DEFAULT_LAYER
 66
     1
 10
0.0
 20
0.0
 30
0.0
 70
     1
  0
VERTEX
  5
CF
  8
DEFAULT_LAYER
 10
25626.03242931336
 20
5292.003025130723
 30
0.0
 42
0.0269162718898236
  0
VERTEX
  5
D0
  8
DEFAULT_LAYER
 10
25585.03242931327
 20
5370.386148140388
 30
0.0
 42
0.0354067774545455
  0
VERTEX
  5
D1
  8
DEFAULT_LAYER
 10
25530.48687378233
 20
5300.23807010028
 30
0.0
 42
-0.0336531594606151
  0
VERTEX
  5
D2
  8
DEFAULT_LAYER
 10
25571.48687378244
 20
5209.547206147092
 30
0.0
 42
-0.0453437639270887
  0
SEQEND
  5
D3
  8
DEFAULT_LAYER
  0
POLYLINE
  5
D4
  8
DEFAULT_LAYER
 66
     1
 10
0.0
 20
0.0
 30
0.0
 70
     1
  0
VERTEX
  5
D5
  8
DEFAULT_LAYER
 10
25400.09338805667
 20
5475.401770332571
 30
0.0
 42
0.0660078521787956
  0
VERTEX
  5
D6
  8
DEFAULT_LAYER
 10
25245.30340873424
 20
5593.321293874912
 30
0.0
  0
VERTEX
  5
D7
  8
DEFAULT_LAYER
 10
25203.98978922698
 20
5616.931376227588
 30
0.0
  0
VERTEX
  5
D8
  8
DEFAULT_LAYER
 10
25203.98978922698
 20
6327.937394026043
 30
0.0
  0
VERTEX
  5
D9
  8
DEFAULT_LAYER
 10
25285.98978922698
 20
6327.937394026043
 30
0.0
  0
VERTEX
  5
DA
  8
DEFAULT_LAYER
 10
25285.98978922698
 20
5664.515524275971
 30
0.0
 42
-0.0645953090671475
  0
VERTEX
  5
DB
  8
DEFAULT_LAYER
 10
25454.63894358763
 20
5536.78618876845
 30
0.0
 42
0.0245360898498697
  0
SEQEND
  5
DC
  8
DEFAULT_LAYER
  0
POLYLINE
  5
DD
  8
DEFAULT_LAYER
 66
     1
 10
0.0
 20
0.0
 30
0.0
 70
     1
  0
VERTEX
  5
DE
  8
DEFAULT_LAYER
 10
25345.44007167227
 20
5370.386148140115
 30
0.0
 42
0.0269162718900759
  0
VERTEX
  5
DF
  8
DEFAULT_LAYER
 10
25304.44007167236
 20
5292.003025130365
 30
0.0
 42
-0.0453437639287443
  0
VERTEX
  5
E0
  8
DEFAULT_LAYER
 10
25358.98562720347
 20
5209.547206146851
 30
0.0
 42
-0.0336531594607011
  0
VERTEX
  5
E1
  8
DEFAULT_LAYER
 10
25399.98562720337
 20
5300.238070100131
 30
0.0
 42
0.0354067774541382
  0
SEQEND
  5
E2
  8
DEFAULT_LAYER
  0
POLYLINE
  5
E3
  8
DEFAULT_LAYER
 66
     1
 10
0.0
 20
0.0
 30
0.0
 70
     1
  0
VERTEX
  5
E4
  8
DEFAULT_LAYER
 10
25740.74073390088
 20
5496.080393816255
 30
0.0
  0
VERTEX
  5
E5
  8
DEFAULT_LAYER
 10
25821.55815951227
 20
5542.266278688467
 30
0.0
  0
VERTEX
  5
E6
  8
DEFAULT_LAYER
 10
25821.55815951227
 20
5447.820423144818
 30
0.0
  0
VERTEX
  5
E7
  8
DEFAULT_LAYER
 10
25781.42711439363
 20
5424.886163415191
 30
0.0
 42
0.0867380990710774
  0
VERTEX
  5
E8
  8
DEFAULT_LAYER
 10
25636.6297362183
 20
5304.835519438272
 30
0.0
 42
0.026083214325616
  0
VERTEX
  5
E9
  8
DEFAULT_LAYER
 10
25595.6297362182
 20
5381.895731964107
 30
0.0
 42
-0.0738841615106
  0
SEQEND
  5
EA
  8
DEFAULT_LAYER
  0
POLYLINE
  5
EB
  8
DEFAULT_LAYER
 66
     1
 10
0.0
 20
0.0
 30
0.0
 70
     1
  0
VERTEX
  5
EC
  8
DEFAULT_LAYER
 10
25733.29810332294
 20
5509.103728645716
 30
0.0
 42
0.0723023563439495
  0
VERTEX
  5
ED
  8
DEFAULT_LAYER
 10
25587.5102748372
 20
5395.127472549434
 30
0.0
 42
0.0249348087527919
  0
VERTEX
  5
EE
  8
DEFAULT_LAYER
 10
25539.73749707161
 20
5463.550367045668
 30
0.0
 42
-0.0666049248483017
  0
VERTEX
  5
EF
  8
DEFAULT_LAYER
 10
25692.6117228302
 20
5580.297959046782
 30
0.0
  0
VERTEX
  5
F0
  8
DEFAULT_LAYER
 10
25741.48271175951
 20
5608.226958902998
 30
0.0
  0
VERTEX
  5
F1
  8
DEFAULT_LAYER
 10
25741.48271175951
 20
6327.937394026043
 30
0.0
  0
VERTEX
  5
F2
  8
DEFAULT_LAYER
 10
25821.55815951227
 20
6327.937394026043
 30
0.0
  0
VERTEX
  5
F3
  8
DEFAULT_LAYER
 10
25821.55815951227
 20
5559.542959580594
 30
0.0
  0
SEQEND
  5
F4
  8
DEFAULT_LAYER
  0
POLYLINE
  5
F5
  8
DEFAULT_LAYER
 66
     1
 10
0.0
 20
0.0
 30
0.0
 70
     1
  0
VERTEX
  5
F6
  8
DEFAULT_LAYER
 10
25149.04538659286
 20
5424.886163413858
 30
0.0
  0
VERTEX
  5
F7
  8
DEFAULT_LAYER
 10
25108.91434147422
 20
5447.820423143477
 30
0.0
  0
VERTEX
  5
F8
  8
DEFAULT_LAYER
 10
25108.91434147422
 20
5542.266278687131
 30
0.0
  0
VERTEX
  5
F9
  8
DEFAULT_LAYER
 10
25189.73176708561
 20
5496.080393814922
 30
0.0
 42
-0.073884161510716
  0
VERTEX
  5
FA
  8
DEFAULT_LAYER
 10
25334.84276476731
 20
5381.895731963792
 30
0.0
 42
0.0260832143249952
  0
VERTEX
  5
FB
  8
DEFAULT_LAYER
 10
25293.84276476739
 20
5304.835519437889
 30
0.0
 42
0.0867380990710708
  0
SEQEND
  5
FC
  8
DEFAULT_LAYER
  0
POLYLINE
  5
FD
  8
DEFAULT_LAYER
 66
     1
 10
0.0
 20
0.0
 30
0.0
 70
     1
  0
VERTEX
  5
FE
  8
DEFAULT_LAYER
 10
25398.23625049392
 20
6327.937394026043
 30
0.0
  0
VERTEX
  5
FF
  8
DEFAULT_LAYER
 10
25532.23625049392
 20
6327.937394026043
 30
0.0
  0
VERTEX
  5
100
  8
DEFAULT_LAYER
 10
25532.23625049392
 20
5794.696203604227
 30
0.0
  0
VERTEX
  5
101
  8
DEFAULT_LAYER
 10
25398.23625049392
 20
5794.696203604225
 30
0.0
  0
SEQEND
  5
102
  8
DEFAULT_LAYER
  0
POLYLINE
  5
103
  8
DEFAULT_LAYER
 66
     1
 10
0.0
 20
0.0
 30
0.0
 70
     1
  0
VERTEX
  5
104
  8
DEFAULT_LAYER
 10
25457.73625049391
 20
5554.691100348738
 30
0.0
 42
0.0588761981090254
  0
VERTEX
  5
105
  8
DEFAULT_LAYER
 10
25300.98978922698
 20
5673.167510226068
 30
0.0
  0
VERTEX
  5
106
  8
DEFAULT_LAYER
 10
25300.98978922698
 20
6327.937394026043
 30
0.0
  0
VERTEX
  5
107
  8
DEFAULT_LAYER
 10
25383.23625049392
 20
6327.937394026043
 30
0.0
  0
VERTEX
  5
108
  8
DEFAULT_LAYER
 10
25383.23625049392
 20
5779.696203604224
 30
0.0
  0
VERTEX
  5
109
  8
DEFAULT_LAYER
 10
25457.73625049392
 20
5779.696203604226
 30
0.0
  0
SEQEND
  5
10A
  8
DEFAULT_LAYER
  0
POLYLINE
  5
10B
  8
DEFAULT_LAYER
 66
     1
 10
0.0
 20
0.0
 30
0.0
 70
     1
  0
VERTEX
  5
10C
  8
DEFAULT_LAYER
 10
25644.48271175951
 20
5664.515524277305
 30
0.0
  0
VERTEX
  5
10D
  8
DEFAULT_LAYER
 10
25644.48271175951
 20
6327.937394026043
 30
0.0
  0
VERTEX
  5
10E
  8
DEFAULT_LAYER
 10
25726.48271175951
 20
6327.937394026043
 30
0.0
  0
VERTEX
  5
10F
  8
DEFAULT_LAYER
 10
25726.48271175951
 20
5616.931376228922
 30
0.0
  0
VERTEX
  5
110
  8
DEFAULT_LAYER
 10
25685.16909225225
 20
5593.321293876245
 30
0.0
 42
0.0660078521793382
  0
VERTEX
  5
111
  8
DEFAULT_LAYER
 10
25530.37911292862
 20
5475.401770332715
 30
0.0
 42
0.0245360898485571
  0
VERTEX
  5
112
  8
DEFAULT_LAYER
 10
25475.83355739753
 20
5536.786188768478
 30
0.0
 42
-0.0645953090677134
  0
SEQEND
  5
113
  8
DEFAULT_LAYER
  0
POLYLINE
  5
114
  8
DEFAULT_LAYER
 66
     1
 10
0.0
 20
0.0
 30
0.0
 70
     1
  0
VERTEX
  5
115
  8
DEFAULT_LAYER
 10
25629.48271175951
 20
5673.167510227402
 30
0.0
 42
0.0588761981084694
  0
VERTEX
  5
116
  8
DEFAULT_LAYER
 10
25472.73625049392
 20
5554.69110035136
 30
0.0
  0
VERTEX
  5
117
  8
DEFAULT_LAYER
 10
25472.73625049392
 20
5779.696203604226
 30
0.0
  0
VERTEX
  5
118
  8
DEFAULT_LAYER
 10
25547.23625049392
 20
5779.696203604227
 30
0.0
  0
VERTEX
  5
119
  8
DEFAULT_LAYER
 10
25547.23625049392
 20
6327.937394026043
 30
0.0
  0
VERTEX
  5
11A
  8
DEFAULT_LAYER
 10
25629.48271175951
 20
6327.937394026043
 30
0.0
  0
SEQEND
  5
11B
  8
DEFAULT_LAYER
  0
POLYLINE
  5
11C
  8
DEFAULT_LAYER
 66
     1
 10
0.0
 20
0.0
 30
0.0
 70
     1
  0
VERTEX
  5
11D
  8
DEFAULT_LAYER
 10
25521.12848963938
 20
4615.476384582127
 30
0.0
 42
0.035552906943086
  0
VERTEX
  5
11E
  8
DEFAULT_LAYER
 10
25562.12848963948
 20
4709.966876695644
 30
0.0
 42
-0.0710441801741483
  0
VERTEX
  5
11F
  8
DEFAULT_LAYER
 10
25514.35571187414
 20
4856.831193246982
 30
0.0
 42
-0.0605454571189981
  0
VERTEX
  5
120
  8
DEFAULT_LAYER
 10
25473.35571187396
 20
4707.141293735594
 30
0.0
 42
0.0412057045949635
  0
SEQEND
  5
121
  8
DEFAULT_LAYER
  0
POLYLINE
  5
122
  8
DEFAULT_LAYER
 66
     1
 10
0.0
 20
0.0
 30
0.0
 70
     1
  0
VERTEX
  5
123
  8
DEFAULT_LAYER
 10
25576.91296793226
 20
4517.549006438324
 30
0.0
 42
-0.0255252613111446
  0
VERTEX
  5
124
  8
DEFAULT_LAYER
 10
25529.14019016667
 20
4448.586481276207
 30
0.0
 42
-0.028980936531095
  0
VERTEX
  5
125
  8
DEFAULT_LAYER
 10
25474.59463463573
 20
4512.464560473487
 30
0.0
 42
0.0297378222517284
  0
VERTEX
  5
126
  8
DEFAULT_LAYER
 10
25522.36741240132
 20
4586.333027933741
 30
0.0
 42
0.0341605958026352
  0
SEQEND
  5
127
  8
DEFAULT_LAYER
  0
POLYLINE
  5
128
  8
DEFAULT_LAYER
 66
     1
 10
0.0
 20
0.0
 30
0.0
 70
     1
  0
VERTEX
  5
129
  8
DEFAULT_LAYER
 10
25455.87786634977
 20
4512.464560473508
 30
0.0
 42
-0.0289809365325215
  0
VERTEX
  5
12A
  8
DEFAULT_LAYER
 10
25401.33231081869
 20
4448.58648127635
 30
0.0
 42
-0.0255252613104134
  0
VERTEX
  5
12B
  8
DEFAULT_LAYER
 10
25353.55953305326
 20
4517.549006438578
 30
0.0
 42
0.0341605958031241
  0
VERTEX
  5
12C
  8
DEFAULT_LAYER
 10
25408.10508858434
 20
4586.333027933874
 30
0.0
 42
0.0297378222516747
  0
SEQEND
  5
12D
  8
DEFAULT_LAYER
  0
POLYLINE
  5
12E
  8
DEFAULT_LAYER
 66
     1
 10
0.0
 20
0.0
 30
0.0
 70
     1
  0
VERTEX
  5
12F
  8
DEFAULT_LAYER
 10
25465.2362504926
 20
4375.150836619019
 30
0.0
 42
0.0250169329899327
  0
VERTEX
  5
130
  8
DEFAULT_LAYER
 10
25519.78180602368
 20
4436.678608647028
 30
0.0
 42
-0.0282499271347902
  0
VERTEX
  5
131
  8
DEFAULT_LAYER
 10
25465.23625049274
 20
4500.001172039852
 30
0.0
 42
-0.0282499271337067
  0
VERTEX
  5
132
  8
DEFAULT_LAYER
 10
25410.69069496165
 20
4436.678608647157
 30
0.0
 42
0.0250169329891152
  0
SEQEND
  5
133
  8
DEFAULT_LAYER
  0
POLYLINE
  5
134
  8
DEFAULT_LAYER
 66
     1
 10
0.0
 20
0.0
 30
0.0
 70
     1
  0
VERTEX
  5
135
  8
DEFAULT_LAYER
 10
25513.00902825836
 20
4600.338266287083
 30
0.0
 42
-0.030756493126467
  0
VERTEX
  5
136
  8
DEFAULT_LAYER
 10
25465.23625049277
 20
4525.087132075418
 30
0.0
 42
-0.0307564931262215
  0
VERTEX
  5
137
  8
DEFAULT_LAYER
 10
25417.46347272734
 20
4600.338266287193
 30
0.0
 42
0.0389190921248976
  0
VERTEX
  5
138
  8
DEFAULT_LAYER
 10
25465.23625049295
 20
4688.16648887541
 30
0.0
 42
0.0389190921247844
  0
SEQEND
  5
139
  8
DEFAULT_LAYER
  0
POLYLINE
  5
13A
  8
DEFAULT_LAYER
 66
     1
 10
0.0
 20
0.0
 30
0.0
 70
     1
  0
VERTEX
  5
13B
  8
DEFAULT_LAYER
 10
25197.17439766355
 20
4392.216150663538
 30
0.0
 42
0.0723023563433741
  0
VERTEX
  5
13C
  8
DEFAULT_LAYER
 10
25342.96222614828
 20
4506.192406758764
 30
0.0
 42
0.0249348087520871
  0
VERTEX
  5
13D
  8
DEFAULT_LAYER
 10
25390.73500391372
 20
4437.769512262425
 30
0.0
 42
-0.0666049248477364
  0
VERTEX
  5
13E
  8
DEFAULT_LAYER
 10
25237.8607781563
 20
4321.021920262473
 30
0.0
  0
VERTEX
  5
13F
  8
DEFAULT_LAYER
 10
25188.98978922698
 20
4293.092920406257
 30
0.0
  0
VERTEX
  5
140
  8
DEFAULT_LAYER
 10
25188.98978922698
 20
3573.382485281878
 30
0.0
  0
VERTEX
  5
141
  8
DEFAULT_LAYER
 10
25108.91434147422
 20
3573.382485281878
 30
0.0
  0
VERTEX
  5
142
  8
DEFAULT_LAYER
 10
25108.91434147422
 20
4341.776919728661
 30
0.0
  0
SEQEND
  5
143
  8
DEFAULT_LAYER
  0
POLYLINE
  5
144
  8
DEFAULT_LAYER
 66
     1
 10
0.0
 20
0.0
 30
0.0
 70
     1
  0
VERTEX
  5
145
  8
DEFAULT_LAYER
 10
25457.11678911197
 20
4707.141293735612
 30
0.0
 42
-0.0412057045949064
  0
VERTEX
  5
146
  8
DEFAULT_LAYER
 10
25409.34401134636
 20
4615.476384582254
 30
0.0
 42
-0.0355529069429296
  0
VERTEX
  5
147
  8
DEFAULT_LAYER
 10
25368.34401134646
 20
4709.96687669586
 30
0.0
 42
0.0710441801735492
  0
VERTEX
  5
148
  8
DEFAULT_LAYER
 10
25416.11678911214
 20
4856.831193247065
 30
0.0
 42
0.0605454571194805
  0
SEQEND
  5
149
  8
DEFAULT_LAYER
  0
POLYLINE
  5
14A
  8
DEFAULT_LAYER
 66
     1
 10
0.0
 20
0.0
 30
0.0
 70
     1
  0
VERTEX
  5
14B
  8
DEFAULT_LAYER
 10
25626.03242931336
 20
4609.316854177198
 30
0.0
 42
-0.0269162718898236
  0
VERTEX
  5
14C
  8
DEFAULT_LAYER
 10
25585.03242931327
 20
4530.933731167532
 30
0.0
 42
-0.0354067774545461
  0
VERTEX
  5
14D
  8
DEFAULT_LAYER
 10
25530.48687378233
 20
4601.081809207642
 30
0.0
 42
0.0336531594606145
  0
VERTEX
  5
14E
  8
DEFAULT_LAYER
 10
25571.48687378244
 20
4691.772673160829
 30
0.0
 42
0.0453437639270887
  0
SEQEND
  5
14F
  8
DEFAULT_LAYER
  0
POLYLINE
  5
150
  8
DEFAULT_LAYER
 66
     1
 10
0.0
 20
0.0
 30
0.0
 70
     1
  0
VERTEX
  5
151
  8
DEFAULT_LAYER
 10
25400.09338805667
 20
4425.91810897535
 30
0.0
 42
-0.0660078521787956
  0
VERTEX
  5
152
  8
DEFAULT_LAYER
 10
25245.30340873424
 20
4307.998585433009
 30
0.0
  0
VERTEX
  5
153
  8
DEFAULT_LAYER
 10
25203.98978922698
 20
4284.388503080333
 30
0.0
  0
VERTEX
  5
154
  8
DEFAULT_LAYER
 10
25203.98978922698
 20
3573.382485281878
 30
0.0
  0
VERTEX
  5
155
  8
DEFAULT_LAYER
 10
25285.98978922698
 20
3573.382485281878
 30
0.0
  0
VERTEX
  5
156
  8
DEFAULT_LAYER
 10
25285.98978922698
 20
4236.80435503195
 30
0.0
 42
0.0645953090671475
  0
VERTEX
  5
157
  8
DEFAULT_LAYER
 10
25454.63894358763
 20
4364.533690539472
 30
0.0
 42
-0.0245360898498695
  0
SEQEND
  5
158
  8
DEFAULT_LAYER
  0
POLYLINE
  5
159
  8
DEFAULT_LAYER
 66
     1
 10
0.0
 20
0.0
 30
0.0
 70
     1
  0
VERTEX
  5
15A
  8
DEFAULT_LAYER
 10
25345.44007167227
 20
4530.933731167805
 30
0.0
 42
-0.0269162718900759
  0
VERTEX
  5
15B
  8
DEFAULT_LAYER
 10
25304.44007167236
 20
4609.316854177555
 30
0.0
 42
0.0453437639287452
  0
VERTEX
  5
15C
  8
DEFAULT_LAYER
 10
25358.98562720347
 20
4691.77267316107
 30
0.0
 42
0.0336531594607012
  0
VERTEX
  5
15D
  8
DEFAULT_LAYER
 10
25399.98562720337
 20
4601.08180920779
 30
0.0
 42
-0.0354067774541382
  0
SEQEND
  5
15E
  8
DEFAULT_LAYER
  0
POLYLINE
  5
15F
  8
DEFAULT_LAYER
 66
     1
 10
0.0
 20
0.0
 30
0.0
 70
     1
  0
VERTEX
  5
160
  8
DEFAULT_LAYER
 10
25740.74073390088
 20
4405.239485491666
 30
0.0
  0
VERTEX
  5
161
  8
DEFAULT_LAYER
 10
25821.55815951227
 20
4359.053600619454
 30
0.0
  0
VERTEX
  5
162
  8
DEFAULT_LAYER
 10
25821.55815951227
 20
4453.499456163103
 30
0.0
  0
VERTEX
  5
163
  8
DEFAULT_LAYER
 10
25781.42711439363
 20
4476.43371589273
 30
0.0
 42
-0.0867380990710774
  0
VERTEX
  5
164
  8
DEFAULT_LAYER
 10
25636.6297362183
 20
4596.484359869649
 30
0.0
 42
-0.0260832143256161
  0
VERTEX
  5
165
  8
DEFAULT_LAYER
 10
25595.6297362182
 20
4519.424147343814
 30
0.0
 42
0.0738841615106
  0
SEQEND
  5
166
  8
DEFAULT_LAYER
  0
POLYLINE
  5
167
  8
DEFAULT_LAYER
 66
     1
 10
0.0
 20
0.0
 30
0.0
 70
     1
  0
VERTEX
  5
168
  8
DEFAULT_LAYER
 10
25733.29810332294
 20
4392.216150662205
 30
0.0
 42
-0.0723023563439495
  0
VERTEX
  5
169
  8
DEFAULT_LAYER
 10
25587.5102748372
 20
4506.192406758487
 30
0.0
 42
-0.0249348087527919
  0
VERTEX
  5
16A
  8
DEFAULT_LAYER
 10
25539.73749707161
 20
4437.769512262252
 30
0.0
 42
0.0666049248483014
  0
VERTEX
  5
16B
  8
DEFAULT_LAYER
 10
25692.6117228302
 20
4321.021920261139
 30
0.0
  0
VERTEX
  5
16C
  8
DEFAULT_LAYER
 10
25741.48271175951
 20
4293.092920404923
 30
0.0
  0
VERTEX
  5
16D
  8
DEFAULT_LAYER
 10
25741.48271175951
 20
3573.382485281878
 30
0.0
  0
VERTEX
  5
16E
  8
DEFAULT_LAYER
 10
25821.55815951227
 20
3573.382485281878
 30
0.0
  0
VERTEX
  5
16F
  8
DEFAULT_LAYER
 10
25821.55815951227
 20
4341.776919727326
 30
0.0
  0
SEQEND
  5
170
  8
DEFAULT_LAYER
  0
POLYLINE
  5
171
  8
DEFAULT_LAYER
 66
     1
 10
0.0
 20
0.0
 30
0.0
 70
     1
  0
VERTEX
  5
172
  8
DEFAULT_LAYER
 10
25149.04538659286
 20
4476.433715894063
 30
0.0
  0
VERTEX
  5
173
  8
DEFAULT_LAYER
 10
25108.91434147422
 20
4453.499456164443
 30
0.0
  0
VERTEX
  5
174
  8
DEFAULT_LAYER
 10
25108.91434147422
 20
4359.053600620789
 30
0.0
  0
VERTEX
  5
175
  8
DEFAULT_LAYER
 10
25189.73176708561
 20
4405.239485492999
 30
0.0
 42
0.073884161510716
  0
VERTEX
  5
176
  8
DEFAULT_LAYER
 10
25334.84276476731
 20
4519.424147344129
 30
0.0
 42
-0.0260832143249951
  0
VERTEX
  5
177
  8
DEFAULT_LAYER
 10
25293.84276476739
 20
4596.484359870032
 30
0.0
 42
-0.0867380990710708
  0
SEQEND
  5
178
  8
DEFAULT_LAYER
  0
POLYLINE
  5
179
  8
DEFAULT_LAYER
 66
     1
 10
0.0
 20
0.0
 30
0.0
 70
     1
  0
VERTEX
  5
17A
  8
DEFAULT_LAYER
 10
25398.23625049392
 20
3573.382485281878
 30
0.0
  0
VERTEX
  5
17B
  8
DEFAULT_LAYER
 10
25532.23625049392
 20
3573.382485281878
 30
0.0
  0
VERTEX
  5
17C
  8
DEFAULT_LAYER
 10
25532.23625049392
 20
4106.623675703694
 30
0.0
  0
VERTEX
  5
17D
  8
DEFAULT_LAYER
 10
25398.23625049392
 20
4106.623675703696
 30
0.0
  0
SEQEND
  5
17E
  8
DEFAULT_LAYER
  0
POLYLINE
  5
17F
  8
DEFAULT_LAYER
 66
     1
 10
0.0
 20
0.0
 30
0.0
 70
     1
  0
VERTEX
  5
180
  8
DEFAULT_LAYER
 10
25457.73625049391
 20
4346.628778959183
 30
0.0
 42
-0.0588761981090254
  0
VERTEX
  5
181
  8
DEFAULT_LAYER
 10
25300.98978922698
 20
4228.152369081853
 30
0.0
  0
VERTEX
  5
182
  8
DEFAULT_LAYER
 10
25300.98978922698
 20
3573.382485281878
 30
0.0
  0
VERTEX
  5
183
  8
DEFAULT_LAYER
 10
25383.23625049392
 20
3573.382485281878
 30
0.0
  0
VERTEX
  5
184
  8
DEFAULT_LAYER
 10
25383.23625049392
 20
4121.623675703697
 30
0.0
  0
VERTEX
  5
185
  8
DEFAULT_LAYER
 10
25457.73625049392
 20
4121.623675703695
 30
0.0
  0
SEQEND
  5
186
  8
DEFAULT_LAYER
  0
POLYLINE
  5
187
  8
DEFAULT_LAYER
 66
     1
 10
0.0
 20
0.0
 30
0.0
 70
     1
  0
VERTEX
  5
188
  8
DEFAULT_LAYER
 10
25644.48271175951
 20
4236.804355030616
 30
0.0
  0
VERTEX
  5
189
  8
DEFAULT_LAYER
 10
25644.48271175951
 20
3573.382485281878
 30
0.0
  0
VERTEX
  5
18A
  8
DEFAULT_LAYER
 10
25726.48271175951
 20
3573.382485281878
 30
0.0
  0
VERTEX
  5
18B
  8
DEFAULT_LAYER
 10
25726.48271175951
 20
4284.388503078999
 30
0.0
  0
VERTEX
  5
18C
  8
DEFAULT_LAYER
 10
25685.16909225225
 20
4307.998585431676
 30
0.0
 42
-0.0660078521793382
  0
VERTEX
  5
18D
  8
DEFAULT_LAYER
 10
25530.37911292862
 20
4425.918108975206
 30
0.0
 42
-0.0245360898485565
  0
VERTEX
  5
18E
  8
DEFAULT_LAYER
 10
25475.83355739753
 20
4364.533690539443
 30
0.0
 42
0.0645953090677134
  0
SEQEND
  5
18F
  8
DEFAULT_LAYER
  0
POLYLINE
  5
190
  8
DEFAULT_LAYER
 66
     1
 10
0.0
 20
0.0
 30
0.0
 70
     1
  0
VERTEX
  5
191
  8
DEFAULT_LAYER
 10
25629.48271175951
 20
4228.152369080519
 30
0.0
 42
-0.0588761981084694
  0
VERTEX
  5
192
  8
DEFAULT_LAYER
 10
25472.73625049392
 20
4346.628778956561
 30
0.0
  0
VERTEX
  5
193
  8
DEFAULT_LAYER
 10
25472.73625049392
 20
4121.623675703695
 30
0.0
  0
VERTEX
  5
194
  8
DEFAULT_LAYER
 10
25547.23625049392
 20
4121.623675703694
 30
0.0
  0
VERTEX
  5
195
  8
DEFAULT_LAYER
 10
25547.23625049392
 20
3573.382485281878
 30
0.0
  0
VERTEX
  5
196
  8
DEFAULT_LAYER
 10
25629.48271175951
 20
3573.382485281878
 30
0.0
  0
SEQEND
  5
197
  8
DEFAULT_LAYER
  0
ENDSEC
  0
EOF
