  0
SECTION
  2
HEADER
  9
$ACADVER
  1
AC1009
  9
$DWGCODEPAGE
  3
ansi_1252
  9
$INSBASE
 10
0.0
 20
0.0
 30
0.0
  9
$EXTMIN
 10
1.000000000000000E+20
 20
1.000000000000000E+20
 30
1.000000000000000E+20
  9
$EXTMAX
 10
-1.000000000000000E+20
 20
-1.000000000000000E+20
 30
-1.000000000000000E+20
  9
$LIMMIN
 10
0.0
 20
0.0
  9
$LIMMAX
 10
12.0
 20
9.0
  9
$ORTHOMODE
 70
     0
  9
$REGENMODE
 70
     1
  9
$FILLMODE
 70
     1
  9
$QTEXTMODE
 70
     0
  9
$MIRRTEXT
 70
     1
  9
$DRAGMODE
 70
     2
  9
$LTSCALE
 40
1.0
  9
$OSMODE
 70
    37
  9
$ATTMODE
 70
     1
  9
$TEXTSIZE
 40
0.2
  9
$TRACEWID
 40
0.05
  9
$TEXTSTYLE
  7
STANDARD
  9
$CLAYER
  8
LAYER_01
  9
$CELTYPE
  6
BYLAYER
  9
$CECOLOR
 62
   256
  9
$DIMSCALE
 40
1.0
  9
$DIMASZ
 40
0.18
  9
$DIMEXO
 40
0.0625
  9
$DIMDLI
 40
0.38
  9
$DIMRND
 40
0.0
  9
$DIMDLE
 40
0.0
  9
$DIMEXE
 40
0.18
  9
$DIMTP
 40
0.0
  9
$DIMTM
 40
0.0
  9
$DIMTXT
 40
0.18
  9
$DIMCEN
 40
0.09
  9
$DIMTSZ
 40
0.0
  9
$DIMTOL
 70
     0
  9
$DIMLIM
 70
     0
  9
$DIMTIH
 70
     1
  9
$DIMTOH
 70
     1
  9
$DIMSE1
 70
     0
  9
$DIMSE2
 70
     0
  9
$DIMTAD
 70
     0
  9
$DIMZIN
 70
     0
  9
$DIMBLK
  1

  9
$DIMASO
 70
     1
  9
$DIMSHO
 70
     1
  9
$DIMPOST
  1

  9
$DIMAPOST
  1

  9
$DIMALT
 70
     0
  9
$DIMALTD
 70
     2
  9
$DIMALTF
 40
25.4
  9
$DIMLFAC
 40
1.0
  9
$DIMTOFL
 70
     0
  9
$DIMTVP
 40
0.0
  9
$DIMTIX
 70
     0
  9
$DIMSOXD
 70
     0
  9
$DIMSAH
 70
     0
  9
$DIMBLK1
  1

  9
$DIMBLK2
  1

  9
$DIMSTYLE
  2
STANDARD_ACAD
  9
$DIMCLRD
 70
     0
  9
$DIMCLRE
 70
     0
  9
$DIMCLRT
 70
     0
  9
$DIMTFAC
 40
1.0
  9
$DIMGAP
 40
0.09
  9
$LUNITS
 70
     2
  9
$LUPREC
 70
     3
  9
$SKETCHINC
 40
0.1
  9
$FILLETRAD
 40
0.5
  9
$AUNITS
 70
     0
  9
$AUPREC
 70
     0
  9
$MENU
  1
.
  9
$ELEVATION
 40
0.0
  9
$PELEVATION
 40
0.0
  9
$THICKNESS
 40
0.0
  9
$LIMCHECK
 70
     0
  9
$CHAMFERA
 40
0.0
  9
$CHAMFERB
 40
0.0
  9
$SKPOLY
 70
     0
  9
$TDCREATE
 40
2460029.635129849
  9
$TDUPDATE
 40
2460029.635129908
  9
$TDINDWG
 40
0.0000000116
  9
$TDUSRTIMER
 40
0.0000000116
  9
$USRTIMER
 70
     1
  9
$ANGBASE
 50
0.0
  9
$ANGDIR
 70
     0
  9
$PDMODE
 70
     0
  9
$PDSIZE
 40
0.0
  9
$PLINEWID
 40
0.0
  9
$COORDS
 70
     1
  9
$SPLFRAME
 70
     0
  9
$SPLINETYPE
 70
     6
  9
$SPLINESEGS
 70
     8
  9
$ATTDIA
 70
     0
  9
$ATTREQ
 70
     1
  9
$HANDLING
 70
     1
  9
$HANDSEED
  5
465
  9
$SURFTAB1
 70
     6
  9
$SURFTAB2
 70
     6
  9
$SURFTYPE
 70
     6
  9
$SURFU
 70
     6
  9
$SURFV
 70
     6
  9
$UCSNAME
  2

  9
$UCSORG
 10
0.0
 20
0.0
 30
0.0
  9
$UCSXDIR
 10
1.0
 20
0.0
 30
0.0
  9
$UCSYDIR
 10
0.0
 20
1.0
 30
0.0
  9
$PUCSNAME
  2

  9
$PUCSORG
 10
0.0
 20
0.0
 30
0.0
  9
$PUCSXDIR
 10
1.0
 20
0.0
 30
0.0
  9
$PUCSYDIR
 10
0.0
 20
1.0
 30
0.0
  9
$USERI1
 70
     0
  9
$USERI2
 70
     0
  9
$USERI3
 70
     0
  9
$USERI4
 70
     0
  9
$USERI5
 70
     0
  9
$USERR1
 40
0.0
  9
$USERR2
 40
0.0
  9
$USERR3
 40
0.0
  9
$USERR4
 40
0.0
  9
$USERR5
 40
0.0
  9
$WORLDVIEW
 70
     1
  9
$SHADEDGE
 70
     3
  9
$SHADEDIF
 70
    70
  9
$TILEMODE
 70
     1
  9
$MAXACTVP
 70
    64
  9
$PLIMCHECK
 70
     0
  9
$PEXTMIN
 10
1.000000000000000E+20
 20
1.000000000000000E+20
 30
1.000000000000000E+20
  9
$PEXTMAX
 10
-1.000000000000000E+20
 20
-1.000000000000000E+20
 30
-1.000000000000000E+20
  9
$PLIMMIN
 10
0.0
 20
0.0
  9
$PLIMMAX
 10
12.0
 20
9.0
  9
$UNITMODE
 70
     0
  9
$VISRETAIN
 70
     1
  9
$PLINEGEN
 70
     0
  9
$PSLTSCALE
 70
     1
  0
ENDSEC
  0
SECTION
  2
TABLES
  0
TABLE
  2
VPORT
 70
     1
  0
VPORT
  2
*ACTIVE
 70
     0
 10
0.0
 20
0.0
 11
1.0
 21
1.0
 12
10.42990654205607
 22
4.5
 13
0.0
 23
0.0
 14
0.5
 24
0.5
 15
0.5
 25
0.5
 16
0.0
 26
0.0
 36
1.0
 17
0.0
 27
0.0
 37
0.0
 40
9.0
 41
1.972972972850329
 42
50.0
 43
0.0
 44
0.0
 50
0.0
 51
0.0
 71
     0
 72
   100
 73
     1
 74
     3
 75
     0
 76
     0
 77
     0
 78
     0
  0
ENDTAB
  0
TABLE
  2
LTYPE
 70
     1
  0
LTYPE
  2
CONTINUOUS
 70
     0
  3
Solid line
 72
    65
 73
     0
 40
0.0
  0
ENDTAB
  0
TABLE
  2
LAYER
 70
     2
  0
LAYER
  2
0
 70
     0
 62
     7
  6
CONTINUOUS
  0
LAYER
  2
LAYER_01
 70
     0
 62
     7
  6
CONTINUOUS
  0
ENDTAB
  0
TABLE
  2
STYLE
 70
     1
  0
STYLE
  2
STANDARD
 70
     0
 40
0.0
 41
1.0
 50
0.0
 71
     0
 42
0.2
  3
txt
  4

  0
ENDTAB
  0
TABLE
  2
VIEW
 70
     0
  0
ENDTAB
  0
TABLE
  2
UCS
 70
     0
  0
ENDTAB
  0
TABLE
  2
APPID
 70
     2
  0
APPID
  2
ACAD
 70
     0
  0
APPID
  2
RHINO
 70
     0
  0
ENDTAB
  0
TABLE
  2
DIMSTYLE
 70
     1
  0
DIMSTYLE
  2
STANDARD_ACAD
 70
     0
  3

  4

  5

  6

  7

 40
1.0
 41
0.18
 42
0.0625
 43
0.38
 44
0.18
 45
0.0
 46
0.0
 47
0.0
 48
0.0
140
0.18
141
0.09
142
0.0
143
25.4
144
1.0
145
0.0
146
1.0
147
0.09
 71
     0
 72
     0
 73
     1
 74
     1
 75
     0
 76
     0
 77
     0
 78
     0
170
     0
171
     2
172
     0
173
     0
174
     0
175
     0
176
     0
177
     0
178
     0
  0
ENDTAB
  0
ENDSEC
  0
SECTION
  2
BLOCKS
  0
BLOCK
  8
0
  2
$MODEL_SPACE
 70
     0
 10
0.0
 20
0.0
 30
0.0
  3
$MODEL_SPACE
  1

  0
ENDBLK
  5
21
  8
0
  0
BLOCK
 67
     1
  8
0
  2
$PAPER_SPACE
 70
     0
 10
0.0
 20
0.0
 30
0.0
  3
$PAPER_SPACE
  1

  0
ENDBLK
  5
1D
 67
     1
  8
0
  0
ENDSEC
  0
SECTION
  2
ENTITIES
  0
POLYLINE
  5
70
  8
LAYER_01
 66
     1
 10
0.0
 20
0.0
 30
0.0
 70
     1
  0
VERTEX
  5
71
  8
LAYER_01
 10
452.4040611772735
 20
1184.890678265989
 30
0.0
  0
VERTEX
  5
72
  8
LAYER_01
 10
727.4040611772735
 20
1184.890678265989
 30
0.0
  0
VERTEX
  5
73
  8
LAYER_01
 10
727.4040611772735
 20
3835.811504576378
 30
0.0
  0
VERTEX
  5
74
  8
LAYER_01
 10
452.4040611772735
 20
3835.811504576378
 30
0.0
  0
SEQEND
  5
75
  8
LAYER_01
  0
POLYLINE
  5
76
  8
LAYER_01
 66
     1
 10
0.0
 20
0.0
 30
0.0
 70
     1
  0
VERTEX
  5
77
  8
LAYER_01
 10
518.1105907383383
 20
1204.890678265989
 30
0.0
  0
VERTEX
  5
78
  8
LAYER_01
 10
583.5013263238036
 20
1204.890678265989
 30
0.0
  0
VERTEX
  5
79
  8
LAYER_01
 10
583.5013263238035
 20
1239.749441412707
 30
0.0
  0
VERTEX
  5
7A
  8
LAYER_01
 10
518.1105907383383
 20
1239.749441412707
 30
0.0
  0
SEQEND
  5
7B
  8
LAYER_01
  0
POLYLINE
  5
7C
  8
LAYER_01
 66
     1
 10
0.0
 20
0.0
 30
0.0
 70
     1
  0
VERTEX
  5
7D
  8
LAYER_01
 10
518.1105907383383
 20
1294.325053963169
 30
0.0
  0
VERTEX
  5
7E
  8
LAYER_01
 10
518.1105907383383
 20
1255.212123170221
 30
0.0
  0
VERTEX
  5
7F
  8
LAYER_01
 10
544.2173087919188
 20
1255.212123170221
 30
0.0
  0
VERTEX
  5
80
  8
LAYER_01
 10
544.2173087919189
 20
1294.325053963169
 30
0.0
  0
SEQEND
  5
81
  8
LAYER_01
  0
POLYLINE
  5
82
  8
LAYER_01
 66
     1
 10
0.0
 20
0.0
 30
0.0
 70
     1
  0
VERTEX
  5
83
  8
LAYER_01
 10
670.777255695963
 20
1255.212123170221
 30
0.0
  0
VERTEX
  5
84
  8
LAYER_01
 10
640.5334078924125
 20
1255.212123170221
 30
0.0
  0
VERTEX
  5
85
  8
LAYER_01
 10
640.5334078924125
 20
1294.325053963168
 30
0.0
  0
VERTEX
  5
86
  8
LAYER_01
 10
670.777255695963
 20
1294.325053963168
 30
0.0
  0
SEQEND
  5
87
  8
LAYER_01
  0
POLYLINE
  5
88
  8
LAYER_01
 66
     1
 10
0.0
 20
0.0
 30
0.0
 70
     1
  0
VERTEX
  5
89
  8
LAYER_01
 10
625.0707261348982
 20
1204.890678265989
 30
0.0
  0
VERTEX
  5
8A
  8
LAYER_01
 10
598.9640080813178
 20
1204.890678265989
 30
0.0
  0
VERTEX
  5
8B
  8
LAYER_01
 10
598.9640080813177
 20
1294.325053963169
 30
0.0
  0
VERTEX
  5
8C
  8
LAYER_01
 10
625.0707261348982
 20
1294.325053963169
 30
0.0
  0
SEQEND
  5
8D
  8
LAYER_01
  0
POLYLINE
  5
8E
  8
LAYER_01
 66
     1
 10
0.0
 20
0.0
 30
0.0
 70
     1
  0
VERTEX
  5
8F
  8
LAYER_01
 10
472.4040611772735
 20
1294.325053963169
 30
0.0
  0
VERTEX
  5
90
  8
LAYER_01
 10
502.647908980824
 20
1294.325053963169
 30
0.0
  0
VERTEX
  5
91
  8
LAYER_01
 10
502.647908980824
 20
1204.890678265989
 30
0.0
  0
VERTEX
  5
92
  8
LAYER_01
 10
472.4040611772735
 20
1204.890678265989
 30
0.0
  0
SEQEND
  5
93
  8
LAYER_01
  0
POLYLINE
  5
94
  8
LAYER_01
 66
     1
 10
0.0
 20
0.0
 30
0.0
 70
     1
  0
VERTEX
  5
95
  8
LAYER_01
 10
707.4040611772734
 20
1204.890678265989
 30
0.0
  0
VERTEX
  5
96
  8
LAYER_01
 10
640.5334078924125
 20
1204.890678265989
 30
0.0
  0
VERTEX
  5
97
  8
LAYER_01
 10
640.5334078924125
 20
1239.749441412707
 30
0.0
  0
VERTEX
  5
98
  8
LAYER_01
 10
707.4040611772735
 20
1239.749441412707
 30
0.0
  0
SEQEND
  5
99
  8
LAYER_01
  0
POLYLINE
  5
9A
  8
LAYER_01
 66
     1
 10
0.0
 20
0.0
 30
0.0
 70
     1
  0
VERTEX
  5
9B
  8
LAYER_01
 10
518.1105907383383
 20
1452.066347315246
 30
0.0
  0
VERTEX
  5
9C
  8
LAYER_01
 10
583.5013263238036
 20
1452.066347315246
 30
0.0
  0
VERTEX
  5
9D
  8
LAYER_01
 10
583.5013263238035
 20
1417.207584168528
 30
0.0
  0
VERTEX
  5
9E
  8
LAYER_01
 10
518.1105907383383
 20
1417.207584168528
 30
0.0
  0
SEQEND
  5
9F
  8
LAYER_01
  0
POLYLINE
  5
A0
  8
LAYER_01
 66
     1
 10
0.0
 20
0.0
 30
0.0
 70
     1
  0
VERTEX
  5
A1
  8
LAYER_01
 10
518.1105907383383
 20
1362.631971618066
 30
0.0
  0
VERTEX
  5
A2
  8
LAYER_01
 10
518.1105907383383
 20
1401.744902411014
 30
0.0
  0
VERTEX
  5
A3
  8
LAYER_01
 10
544.2173087919188
 20
1401.744902411014
 30
0.0
  0
VERTEX
  5
A4
  8
LAYER_01
 10
544.2173087919189
 20
1362.631971618066
 30
0.0
  0
SEQEND
  5
A5
  8
LAYER_01
  0
POLYLINE
  5
A6
  8
LAYER_01
 66
     1
 10
0.0
 20
0.0
 30
0.0
 70
     1
  0
VERTEX
  5
A7
  8
LAYER_01
 10
670.777255695963
 20
1401.744902411014
 30
0.0
  0
VERTEX
  5
A8
  8
LAYER_01
 10
640.5334078924125
 20
1401.744902411014
 30
0.0
  0
VERTEX
  5
A9
  8
LAYER_01
 10
640.5334078924125
 20
1362.631971618067
 30
0.0
  0
VERTEX
  5
AA
  8
LAYER_01
 10
670.777255695963
 20
1362.631971618067
 30
0.0
  0
SEQEND
  5
AB
  8
LAYER_01
  0
POLYLINE
  5
AC
  8
LAYER_01
 66
     1
 10
0.0
 20
0.0
 30
0.0
 70
     1
  0
VERTEX
  5
AD
  8
LAYER_01
 10
625.0707261348982
 20
1452.066347315246
 30
0.0
  0
VERTEX
  5
AE
  8
LAYER_01
 10
598.9640080813178
 20
1452.066347315246
 30
0.0
  0
VERTEX
  5
AF
  8
LAYER_01
 10
598.9640080813177
 20
1362.631971618066
 30
0.0
  0
VERTEX
  5
B0
  8
LAYER_01
 10
625.0707261348982
 20
1362.631971618066
 30
0.0
  0
SEQEND
  5
B1
  8
LAYER_01
  0
POLYLINE
  5
B2
  8
LAYER_01
 66
     1
 10
0.0
 20
0.0
 30
0.0
 70
     1
  0
VERTEX
  5
B3
  8
LAYER_01
 10
472.4040611772735
 20
1362.631971618066
 30
0.0
  0
VERTEX
  5
B4
  8
LAYER_01
 10
502.647908980824
 20
1362.631971618066
 30
0.0
  0
VERTEX
  5
B5
  8
LAYER_01
 10
502.647908980824
 20
1452.066347315246
 30
0.0
  0
VERTEX
  5
B6
  8
LAYER_01
 10
472.4040611772735
 20
1452.066347315246
 30
0.0
  0
SEQEND
  5
B7
  8
LAYER_01
  0
POLYLINE
  5
B8
  8
LAYER_01
 66
     1
 10
0.0
 20
0.0
 30
0.0
 70
     1
  0
VERTEX
  5
B9
  8
LAYER_01
 10
707.4040611772734
 20
1452.066347315246
 30
0.0
  0
VERTEX
  5
BA
  8
LAYER_01
 10
640.5334078924125
 20
1452.066347315246
 30
0.0
  0
VERTEX
  5
BB
  8
LAYER_01
 10
640.5334078924125
 20
1417.207584168528
 30
0.0
  0
VERTEX
  5
BC
  8
LAYER_01
 10
707.4040611772735
 20
1417.207584168528
 30
0.0
  0
SEQEND
  5
BD
  8
LAYER_01
  0
POLYLINE
  5
BE
  8
LAYER_01
 66
     1
 10
0.0
 20
0.0
 30
0.0
 70
     1
  0
VERTEX
  5
BF
  8
LAYER_01
 10
472.4040611772735
 20
1328.478512790618
 30
0.0
  0
VERTEX
  5
C0
  8
LAYER_01
 10
472.4040611772735
 20
1347.169289860552
 30
0.0
  0
VERTEX
  5
C1
  8
LAYER_01
 10
544.2173087919188
 20
1347.169289860552
 30
0.0
  0
VERTEX
  5
C2
  8
LAYER_01
 10
544.2173087919188
 20
1309.787735720683
 30
0.0
  0
VERTEX
  5
C3
  8
LAYER_01
 10
472.4040611772735
 20
1309.787735720683
 30
0.0
  0
SEQEND
  5
C4
  8
LAYER_01
  0
POLYLINE
  5
C5
  8
LAYER_01
 66
     1
 10
0.0
 20
0.0
 30
0.0
 70
     1
  0
VERTEX
  5
C6
  8
LAYER_01
 10
559.679990549433
 20
1328.478512790618
 30
0.0
  0
VERTEX
  5
C7
  8
LAYER_01
 10
559.679990549433
 20
1401.744902411014
 30
0.0
  0
VERTEX
  5
C8
  8
LAYER_01
 10
583.5013263238035
 20
1401.744902411014
 30
0.0
  0
VERTEX
  5
C9
  8
LAYER_01
 10
583.5013263238035
 20
1255.212123170221
 30
0.0
  0
VERTEX
  5
CA
  8
LAYER_01
 10
559.679990549433
 20
1255.212123170221
 30
0.0
  0
SEQEND
  5
CB
  8
LAYER_01
  0
POLYLINE
  5
CC
  8
LAYER_01
 66
     1
 10
0.0
 20
0.0
 30
0.0
 70
     1
  0
VERTEX
  5
CD
  8
LAYER_01
 10
598.9640080813178
 20
1328.478512790618
 30
0.0
  0
VERTEX
  5
CE
  8
LAYER_01
 10
598.9640080813178
 20
1347.169289860552
 30
0.0
  0
VERTEX
  5
CF
  8
LAYER_01
 10
670.777255695963
 20
1347.169289860552
 30
0.0
  0
VERTEX
  5
D0
  8
LAYER_01
 10
670.777255695963
 20
1309.787735720683
 30
0.0
  0
VERTEX
  5
D1
  8
LAYER_01
 10
598.9640080813178
 20
1309.787735720683
 30
0.0
  0
SEQEND
  5
D2
  8
LAYER_01
  0
POLYLINE
  5
D3
  8
LAYER_01
 66
     1
 10
0.0
 20
0.0
 30
0.0
 70
     1
  0
VERTEX
  5
D4
  8
LAYER_01
 10
686.2399374534773
 20
1328.478512790617
 30
0.0
  0
VERTEX
  5
D5
  8
LAYER_01
 10
686.2399374534773
 20
1401.744902411014
 30
0.0
  0
VERTEX
  5
D6
  8
LAYER_01
 10
707.4040611772735
 20
1401.744902411014
 30
0.0
  0
VERTEX
  5
D7
  8
LAYER_01
 10
707.4040611772735
 20
1255.212123170221
 30
0.0
  0
VERTEX
  5
D8
  8
LAYER_01
 10
686.2399374534773
 20
1255.212123170221
 30
0.0
  0
SEQEND
  5
D9
  8
LAYER_01
  0
POLYLINE
  5
DA
  8
LAYER_01
 66
     1
 10
0.0
 20
0.0
 30
0.0
 70
     1
  0
VERTEX
  5
DB
  8
LAYER_01
 10
518.1105907383383
 20
1467.529029072781
 30
0.0
  0
VERTEX
  5
DC
  8
LAYER_01
 10
583.5013263238036
 20
1467.529029072781
 30
0.0
  0
VERTEX
  5
DD
  8
LAYER_01
 10
583.5013263238035
 20
1502.387792219499
 30
0.0
  0
VERTEX
  5
DE
  8
LAYER_01
 10
518.1105907383383
 20
1502.387792219499
 30
0.0
  0
SEQEND
  5
DF
  8
LAYER_01
  0
POLYLINE
  5
E0
  8
LAYER_01
 66
     1
 10
0.0
 20
0.0
 30
0.0
 70
     1
  0
VERTEX
  5
E1
  8
LAYER_01
 10
518.1105907383383
 20
1556.963404769961
 30
0.0
  0
VERTEX
  5
E2
  8
LAYER_01
 10
518.1105907383383
 20
1517.850473977014
 30
0.0
  0
VERTEX
  5
E3
  8
LAYER_01
 10
544.2173087919188
 20
1517.850473977014
 30
0.0
  0
VERTEX
  5
E4
  8
LAYER_01
 10
544.2173087919189
 20
1556.963404769961
 30
0.0
  0
SEQEND
  5
E5
  8
LAYER_01
  0
POLYLINE
  5
E6
  8
LAYER_01
 66
     1
 10
0.0
 20
0.0
 30
0.0
 70
     1
  0
VERTEX
  5
E7
  8
LAYER_01
 10
670.777255695963
 20
1517.850473977014
 30
0.0
  0
VERTEX
  5
E8
  8
LAYER_01
 10
640.5334078924125
 20
1517.850473977014
 30
0.0
  0
VERTEX
  5
E9
  8
LAYER_01
 10
640.5334078924125
 20
1556.963404769961
 30
0.0
  0
VERTEX
  5
EA
  8
LAYER_01
 10
670.777255695963
 20
1556.963404769961
 30
0.0
  0
SEQEND
  5
EB
  8
LAYER_01
  0
POLYLINE
  5
EC
  8
LAYER_01
 66
     1
 10
0.0
 20
0.0
 30
0.0
 70
     1
  0
VERTEX
  5
ED
  8
LAYER_01
 10
625.0707261348982
 20
1467.529029072781
 30
0.0
  0
VERTEX
  5
EE
  8
LAYER_01
 10
598.9640080813178
 20
1467.529029072781
 30
0.0
  0
VERTEX
  5
EF
  8
LAYER_01
 10
598.9640080813177
 20
1556.963404769961
 30
0.0
  0
VERTEX
  5
F0
  8
LAYER_01
 10
625.0707261348982
 20
1556.963404769961
 30
0.0
  0
SEQEND
  5
F1
  8
LAYER_01
  0
POLYLINE
  5
F2
  8
LAYER_01
 66
     1
 10
0.0
 20
0.0
 30
0.0
 70
     1
  0
VERTEX
  5
F3
  8
LAYER_01
 10
472.4040611772735
 20
1556.963404769961
 30
0.0
  0
VERTEX
  5
F4
  8
LAYER_01
 10
502.647908980824
 20
1556.963404769961
 30
0.0
  0
VERTEX
  5
F5
  8
LAYER_01
 10
502.647908980824
 20
1467.529029072781
 30
0.0
  0
VERTEX
  5
F6
  8
LAYER_01
 10
472.4040611772735
 20
1467.529029072781
 30
0.0
  0
SEQEND
  5
F7
  8
LAYER_01
  0
POLYLINE
  5
F8
  8
LAYER_01
 66
     1
 10
0.0
 20
0.0
 30
0.0
 70
     1
  0
VERTEX
  5
F9
  8
LAYER_01
 10
707.4040611772734
 20
1467.529029072781
 30
0.0
  0
VERTEX
  5
FA
  8
LAYER_01
 10
640.5334078924125
 20
1467.529029072781
 30
0.0
  0
VERTEX
  5
FB
  8
LAYER_01
 10
640.5334078924125
 20
1502.387792219499
 30
0.0
  0
VERTEX
  5
FC
  8
LAYER_01
 10
707.4040611772735
 20
1502.387792219499
 30
0.0
  0
SEQEND
  5
FD
  8
LAYER_01
  0
POLYLINE
  5
FE
  8
LAYER_01
 66
     1
 10
0.0
 20
0.0
 30
0.0
 70
     1
  0
VERTEX
  5
FF
  8
LAYER_01
 10
518.1105907383383
 20
1714.704698122039
 30
0.0
  0
VERTEX
  5
100
  8
LAYER_01
 10
583.5013263238036
 20
1714.704698122039
 30
0.0
  0
VERTEX
  5
101
  8
LAYER_01
 10
583.5013263238035
 20
1679.84593497532
 30
0.0
  0
VERTEX
  5
102
  8
LAYER_01
 10
518.1105907383383
 20
1679.84593497532
 30
0.0
  0
SEQEND
  5
103
  8
LAYER_01
  0
POLYLINE
  5
104
  8
LAYER_01
 66
     1
 10
0.0
 20
0.0
 30
0.0
 70
     1
  0
VERTEX
  5
105
  8
LAYER_01
 10
518.1105907383383
 20
1625.270322424858
 30
0.0
  0
VERTEX
  5
106
  8
LAYER_01
 10
518.1105907383383
 20
1664.383253217806
 30
0.0
  0
VERTEX
  5
107
  8
LAYER_01
 10
544.2173087919188
 20
1664.383253217806
 30
0.0
  0
VERTEX
  5
108
  8
LAYER_01
 10
544.2173087919189
 20
1625.270322424859
 30
0.0
  0
SEQEND
  5
109
  8
LAYER_01
  0
POLYLINE
  5
10A
  8
LAYER_01
 66
     1
 10
0.0
 20
0.0
 30
0.0
 70
     1
  0
VERTEX
  5
10B
  8
LAYER_01
 10
670.777255695963
 20
1664.383253217806
 30
0.0
  0
VERTEX
  5
10C
  8
LAYER_01
 10
640.5334078924125
 20
1664.383253217806
 30
0.0
  0
VERTEX
  5
10D
  8
LAYER_01
 10
640.5334078924125
 20
1625.270322424859
 30
0.0
  0
VERTEX
  5
10E
  8
LAYER_01
 10
670.777255695963
 20
1625.270322424859
 30
0.0
  0
SEQEND
  5
10F
  8
LAYER_01
  0
POLYLINE
  5
110
  8
LAYER_01
 66
     1
 10
0.0
 20
0.0
 30
0.0
 70
     1
  0
VERTEX
  5
111
  8
LAYER_01
 10
625.0707261348982
 20
1714.704698122039
 30
0.0
  0
VERTEX
  5
112
  8
LAYER_01
 10
598.9640080813178
 20
1714.704698122039
 30
0.0
  0
VERTEX
  5
113
  8
LAYER_01
 10
598.9640080813177
 20
1625.270322424859
 30
0.0
  0
VERTEX
  5
114
  8
LAYER_01
 10
625.0707261348982
 20
1625.270322424859
 30
0.0
  0
SEQEND
  5
115
  8
LAYER_01
  0
POLYLINE
  5
116
  8
LAYER_01
 66
     1
 10
0.0
 20
0.0
 30
0.0
 70
     1
  0
VERTEX
  5
117
  8
LAYER_01
 10
472.4040611772735
 20
1625.270322424859
 30
0.0
  0
VERTEX
  5
118
  8
LAYER_01
 10
502.647908980824
 20
1625.270322424859
 30
0.0
  0
VERTEX
  5
119
  8
LAYER_01
 10
502.647908980824
 20
1714.704698122039
 30
0.0
  0
VERTEX
  5
11A
  8
LAYER_01
 10
472.4040611772735
 20
1714.704698122039
 30
0.0
  0
SEQEND
  5
11B
  8
LAYER_01
  0
POLYLINE
  5
11C
  8
LAYER_01
 66
     1
 10
0.0
 20
0.0
 30
0.0
 70
     1
  0
VERTEX
  5
11D
  8
LAYER_01
 10
707.4040611772734
 20
1714.704698122039
 30
0.0
  0
VERTEX
  5
11E
  8
LAYER_01
 10
640.5334078924125
 20
1714.704698122039
 30
0.0
  0
VERTEX
  5
11F
  8
LAYER_01
 10
640.5334078924125
 20
1679.845934975321
 30
0.0
  0
VERTEX
  5
120
  8
LAYER_01
 10
707.4040611772735
 20
1679.84593497532
 30
0.0
  0
SEQEND
  5
121
  8
LAYER_01
  0
POLYLINE
  5
122
  8
LAYER_01
 66
     1
 10
0.0
 20
0.0
 30
0.0
 70
     1
  0
VERTEX
  5
123
  8
LAYER_01
 10
472.4040611772735
 20
1591.11686359741
 30
0.0
  0
VERTEX
  5
124
  8
LAYER_01
 10
472.4040611772735
 20
1609.807640667345
 30
0.0
  0
VERTEX
  5
125
  8
LAYER_01
 10
544.2173087919188
 20
1609.807640667345
 30
0.0
  0
VERTEX
  5
126
  8
LAYER_01
 10
544.2173087919188
 20
1572.426086527475
 30
0.0
  0
VERTEX
  5
127
  8
LAYER_01
 10
472.4040611772735
 20
1572.426086527475
 30
0.0
  0
SEQEND
  5
128
  8
LAYER_01
  0
POLYLINE
  5
129
  8
LAYER_01
 66
     1
 10
0.0
 20
0.0
 30
0.0
 70
     1
  0
VERTEX
  5
12A
  8
LAYER_01
 10
559.679990549433
 20
1591.11686359741
 30
0.0
  0
VERTEX
  5
12B
  8
LAYER_01
 10
559.679990549433
 20
1664.383253217806
 30
0.0
  0
VERTEX
  5
12C
  8
LAYER_01
 10
583.5013263238035
 20
1664.383253217806
 30
0.0
  0
VERTEX
  5
12D
  8
LAYER_01
 10
583.5013263238035
 20
1517.850473977014
 30
0.0
  0
VERTEX
  5
12E
  8
LAYER_01
 10
559.679990549433
 20
1517.850473977014
 30
0.0
  0
SEQEND
  5
12F
  8
LAYER_01
  0
POLYLINE
  5
130
  8
LAYER_01
 66
     1
 10
0.0
 20
0.0
 30
0.0
 70
     1
  0
VERTEX
  5
131
  8
LAYER_01
 10
598.9640080813178
 20
1591.11686359741
 30
0.0
  0
VERTEX
  5
132
  8
LAYER_01
 10
598.9640080813178
 20
1609.807640667345
 30
0.0
  0
VERTEX
  5
133
  8
LAYER_01
 10
670.777255695963
 20
1609.807640667345
 30
0.0
  0
VERTEX
  5
134
  8
LAYER_01
 10
670.777255695963
 20
1572.426086527475
 30
0.0
  0
VERTEX
  5
135
  8
LAYER_01
 10
598.9640080813178
 20
1572.426086527475
 30
0.0
  0
SEQEND
  5
136
  8
LAYER_01
  0
POLYLINE
  5
137
  8
LAYER_01
 66
     1
 10
0.0
 20
0.0
 30
0.0
 70
     1
  0
VERTEX
  5
138
  8
LAYER_01
 10
686.2399374534773
 20
1591.11686359741
 30
0.0
  0
VERTEX
  5
139
  8
LAYER_01
 10
686.2399374534773
 20
1664.383253217806
 30
0.0
  0
VERTEX
  5
13A
  8
LAYER_01
 10
707.4040611772735
 20
1664.383253217806
 30
0.0
  0
VERTEX
  5
13B
  8
LAYER_01
 10
707.4040611772735
 20
1517.850473977014
 30
0.0
  0
VERTEX
  5
13C
  8
LAYER_01
 10
686.2399374534773
 20
1517.850473977014
 30
0.0
  0
SEQEND
  5
13D
  8
LAYER_01
  0
POLYLINE
  5
13E
  8
LAYER_01
 66
     1
 10
0.0
 20
0.0
 30
0.0
 70
     1
  0
VERTEX
  5
13F
  8
LAYER_01
 10
518.1105907383383
 20
1730.167379879574
 30
0.0
  0
VERTEX
  5
140
  8
LAYER_01
 10
583.5013263238036
 20
1730.167379879574
 30
0.0
  0
VERTEX
  5
141
  8
LAYER_01
 10
583.5013263238035
 20
1765.026143026292
 30
0.0
  0
VERTEX
  5
142
  8
LAYER_01
 10
518.1105907383383
 20
1765.026143026292
 30
0.0
  0
SEQEND
  5
143
  8
LAYER_01
  0
POLYLINE
  5
144
  8
LAYER_01
 66
     1
 10
0.0
 20
0.0
 30
0.0
 70
     1
  0
VERTEX
  5
145
  8
LAYER_01
 10
518.1105907383383
 20
1819.601755576754
 30
0.0
  0
VERTEX
  5
146
  8
LAYER_01
 10
518.1105907383383
 20
1780.488824783806
 30
0.0
  0
VERTEX
  5
147
  8
LAYER_01
 10
544.2173087919188
 20
1780.488824783806
 30
0.0
  0
VERTEX
  5
148
  8
LAYER_01
 10
544.2173087919189
 20
1819.601755576753
 30
0.0
  0
SEQEND
  5
149
  8
LAYER_01
  0
POLYLINE
  5
14A
  8
LAYER_01
 66
     1
 10
0.0
 20
0.0
 30
0.0
 70
     1
  0
VERTEX
  5
14B
  8
LAYER_01
 10
670.777255695963
 20
1780.488824783806
 30
0.0
  0
VERTEX
  5
14C
  8
LAYER_01
 10
640.5334078924125
 20
1780.488824783806
 30
0.0
  0
VERTEX
  5
14D
  8
LAYER_01
 10
640.5334078924125
 20
1819.601755576753
 30
0.0
  0
VERTEX
  5
14E
  8
LAYER_01
 10
670.777255695963
 20
1819.601755576753
 30
0.0
  0
SEQEND
  5
14F
  8
LAYER_01
  0
POLYLINE
  5
150
  8
LAYER_01
 66
     1
 10
0.0
 20
0.0
 30
0.0
 70
     1
  0
VERTEX
  5
151
  8
LAYER_01
 10
625.0707261348982
 20
1730.167379879574
 30
0.0
  0
VERTEX
  5
152
  8
LAYER_01
 10
598.9640080813178
 20
1730.167379879574
 30
0.0
  0
VERTEX
  5
153
  8
LAYER_01
 10
598.9640080813177
 20
1819.601755576753
 30
0.0
  0
VERTEX
  5
154
  8
LAYER_01
 10
625.0707261348982
 20
1819.601755576753
 30
0.0
  0
SEQEND
  5
155
  8
LAYER_01
  0
POLYLINE
  5
156
  8
LAYER_01
 66
     1
 10
0.0
 20
0.0
 30
0.0
 70
     1
  0
VERTEX
  5
157
  8
LAYER_01
 10
472.4040611772735
 20
1819.601755576753
 30
0.0
  0
VERTEX
  5
158
  8
LAYER_01
 10
502.647908980824
 20
1819.601755576753
 30
0.0
  0
VERTEX
  5
159
  8
LAYER_01
 10
502.647908980824
 20
1730.167379879574
 30
0.0
  0
VERTEX
  5
15A
  8
LAYER_01
 10
472.4040611772735
 20
1730.167379879574
 30
0.0
  0
SEQEND
  5
15B
  8
LAYER_01
  0
POLYLINE
  5
15C
  8
LAYER_01
 66
     1
 10
0.0
 20
0.0
 30
0.0
 70
     1
  0
VERTEX
  5
15D
  8
LAYER_01
 10
707.4040611772734
 20
1730.167379879574
 30
0.0
  0
VERTEX
  5
15E
  8
LAYER_01
 10
640.5334078924125
 20
1730.167379879574
 30
0.0
  0
VERTEX
  5
15F
  8
LAYER_01
 10
640.5334078924125
 20
1765.026143026292
 30
0.0
  0
VERTEX
  5
160
  8
LAYER_01
 10
707.4040611772735
 20
1765.026143026292
 30
0.0
  0
SEQEND
  5
161
  8
LAYER_01
  0
POLYLINE
  5
162
  8
LAYER_01
 66
     1
 10
0.0
 20
0.0
 30
0.0
 70
     1
  0
VERTEX
  5
163
  8
LAYER_01
 10
518.1105907383383
 20
1977.343048928831
 30
0.0
  0
VERTEX
  5
164
  8
LAYER_01
 10
583.5013263238036
 20
1977.343048928831
 30
0.0
  0
VERTEX
  5
165
  8
LAYER_01
 10
583.5013263238035
 20
1942.484285782113
 30
0.0
  0
VERTEX
  5
166
  8
LAYER_01
 10
518.1105907383383
 20
1942.484285782113
 30
0.0
  0
SEQEND
  5
167
  8
LAYER_01
  0
POLYLINE
  5
168
  8
LAYER_01
 66
     1
 10
0.0
 20
0.0
 30
0.0
 70
     1
  0
VERTEX
  5
169
  8
LAYER_01
 10
518.1105907383383
 20
1887.908673231651
 30
0.0
  0
VERTEX
  5
16A
  8
LAYER_01
 10
518.1105907383383
 20
1927.021604024599
 30
0.0
  0
VERTEX
  5
16B
  8
LAYER_01
 10
544.2173087919188
 20
1927.021604024599
 30
0.0
  0
VERTEX
  5
16C
  8
LAYER_01
 10
544.2173087919189
 20
1887.908673231651
 30
0.0
  0
SEQEND
  5
16D
  8
LAYER_01
  0
POLYLINE
  5
16E
  8
LAYER_01
 66
     1
 10
0.0
 20
0.0
 30
0.0
 70
     1
  0
VERTEX
  5
16F
  8
LAYER_01
 10
670.777255695963
 20
1927.021604024599
 30
0.0
  0
VERTEX
  5
170
  8
LAYER_01
 10
640.5334078924125
 20
1927.021604024599
 30
0.0
  0
VERTEX
  5
171
  8
LAYER_01
 10
640.5334078924125
 20
1887.908673231652
 30
0.0
  0
VERTEX
  5
172
  8
LAYER_01
 10
670.777255695963
 20
1887.908673231652
 30
0.0
  0
SEQEND
  5
173
  8
LAYER_01
  0
POLYLINE
  5
174
  8
LAYER_01
 66
     1
 10
0.0
 20
0.0
 30
0.0
 70
     1
  0
VERTEX
  5
175
  8
LAYER_01
 10
625.0707261348982
 20
1977.343048928831
 30
0.0
  0
VERTEX
  5
176
  8
LAYER_01
 10
598.9640080813178
 20
1977.343048928831
 30
0.0
  0
VERTEX
  5
177
  8
LAYER_01
 10
598.9640080813177
 20
1887.908673231651
 30
0.0
  0
VERTEX
  5
178
  8
LAYER_01
 10
625.0707261348982
 20
1887.908673231651
 30
0.0
  0
SEQEND
  5
179
  8
LAYER_01
  0
POLYLINE
  5
17A
  8
LAYER_01
 66
     1
 10
0.0
 20
0.0
 30
0.0
 70
     1
  0
VERTEX
  5
17B
  8
LAYER_01
 10
472.4040611772735
 20
1887.908673231651
 30
0.0
  0
VERTEX
  5
17C
  8
LAYER_01
 10
502.647908980824
 20
1887.908673231651
 30
0.0
  0
VERTEX
  5
17D
  8
LAYER_01
 10
502.647908980824
 20
1977.343048928831
 30
0.0
  0
VERTEX
  5
17E
  8
LAYER_01
 10
472.4040611772735
 20
1977.343048928831
 30
0.0
  0
SEQEND
  5
17F
  8
LAYER_01
  0
POLYLINE
  5
180
  8
LAYER_01
 66
     1
 10
0.0
 20
0.0
 30
0.0
 70
     1
  0
VERTEX
  5
181
  8
LAYER_01
 10
707.4040611772734
 20
1977.343048928831
 30
0.0
  0
VERTEX
  5
182
  8
LAYER_01
 10
640.5334078924125
 20
1977.343048928831
 30
0.0
  0
VERTEX
  5
183
  8
LAYER_01
 10
640.5334078924125
 20
1942.484285782113
 30
0.0
  0
VERTEX
  5
184
  8
LAYER_01
 10
707.4040611772735
 20
1942.484285782113
 30
0.0
  0
SEQEND
  5
185
  8
LAYER_01
  0
POLYLINE
  5
186
  8
LAYER_01
 66
     1
 10
0.0
 20
0.0
 30
0.0
 70
     1
  0
VERTEX
  5
187
  8
LAYER_01
 10
472.4040611772735
 20
1853.755214404202
 30
0.0
  0
VERTEX
  5
188
  8
LAYER_01
 10
472.4040611772735
 20
1872.445991474137
 30
0.0
  0
VERTEX
  5
189
  8
LAYER_01
 10
544.2173087919188
 20
1872.445991474137
 30
0.0
  0
VERTEX
  5
18A
  8
LAYER_01
 10
544.2173087919188
 20
1835.064437334267
 30
0.0
  0
VERTEX
  5
18B
  8
LAYER_01
 10
472.4040611772735
 20
1835.064437334267
 30
0.0
  0
SEQEND
  5
18C
  8
LAYER_01
  0
POLYLINE
  5
18D
  8
LAYER_01
 66
     1
 10
0.0
 20
0.0
 30
0.0
 70
     1
  0
VERTEX
  5
18E
  8
LAYER_01
 10
559.679990549433
 20
1853.755214404202
 30
0.0
  0
VERTEX
  5
18F
  8
LAYER_01
 10
559.679990549433
 20
1927.021604024599
 30
0.0
  0
VERTEX
  5
190
  8
LAYER_01
 10
583.5013263238035
 20
1927.021604024599
 30
0.0
  0
VERTEX
  5
191
  8
LAYER_01
 10
583.5013263238035
 20
1780.488824783806
 30
0.0
  0
VERTEX
  5
192
  8
LAYER_01
 10
559.679990549433
 20
1780.488824783806
 30
0.0
  0
SEQEND
  5
193
  8
LAYER_01
  0
POLYLINE
  5
194
  8
LAYER_01
 66
     1
 10
0.0
 20
0.0
 30
0.0
 70
     1
  0
VERTEX
  5
195
  8
LAYER_01
 10
598.9640080813178
 20
1853.755214404202
 30
0.0
  0
VERTEX
  5
196
  8
LAYER_01
 10
598.9640080813178
 20
1872.445991474137
 30
0.0
  0
VERTEX
  5
197
  8
LAYER_01
 10
670.777255695963
 20
1872.445991474137
 30
0.0
  0
VERTEX
  5
198
  8
LAYER_01
 10
670.777255695963
 20
1835.064437334267
 30
0.0
  0
VERTEX
  5
199
  8
LAYER_01
 10
598.9640080813178
 20
1835.064437334267
 30
0.0
  0
SEQEND
  5
19A
  8
LAYER_01
  0
POLYLINE
  5
19B
  8
LAYER_01
 66
     1
 10
0.0
 20
0.0
 30
0.0
 70
     1
  0
VERTEX
  5
19C
  8
LAYER_01
 10
686.2399374534773
 20
1853.755214404202
 30
0.0
  0
VERTEX
  5
19D
  8
LAYER_01
 10
686.2399374534773
 20
1927.021604024599
 30
0.0
  0
VERTEX
  5
19E
  8
LAYER_01
 10
707.4040611772735
 20
1927.021604024599
 30
0.0
  0
VERTEX
  5
19F
  8
LAYER_01
 10
707.4040611772735
 20
1780.488824783806
 30
0.0
  0
VERTEX
  5
1A0
  8
LAYER_01
 10
686.2399374534773
 20
1780.488824783806
 30
0.0
  0
SEQEND
  5
1A1
  8
LAYER_01
  0
POLYLINE
  5
1A2
  8
LAYER_01
 66
     1
 10
0.0
 20
0.0
 30
0.0
 70
     1
  0
VERTEX
  5
1A3
  8
LAYER_01
 10
518.1105907383383
 20
1992.805730686366
 30
0.0
  0
VERTEX
  5
1A4
  8
LAYER_01
 10
583.5013263238036
 20
1992.805730686366
 30
0.0
  0
VERTEX
  5
1A5
  8
LAYER_01
 10
583.5013263238035
 20
2027.664493833084
 30
0.0
  0
VERTEX
  5
1A6
  8
LAYER_01
 10
518.1105907383383
 20
2027.664493833084
 30
0.0
  0
SEQEND
  5
1A7
  8
LAYER_01
  0
POLYLINE
  5
1A8
  8
LAYER_01
 66
     1
 10
0.0
 20
0.0
 30
0.0
 70
     1
  0
VERTEX
  5
1A9
  8
LAYER_01
 10
518.1105907383383
 20
2082.240106383546
 30
0.0
  0
VERTEX
  5
1AA
  8
LAYER_01
 10
518.1105907383383
 20
2043.127175590599
 30
0.0
  0
VERTEX
  5
1AB
  8
LAYER_01
 10
544.2173087919188
 20
2043.127175590599
 30
0.0
  0
VERTEX
  5
1AC
  8
LAYER_01
 10
544.2173087919189
 20
2082.240106383546
 30
0.0
  0
SEQEND
  5
1AD
  8
LAYER_01
  0
POLYLINE
  5
1AE
  8
LAYER_01
 66
     1
 10
0.0
 20
0.0
 30
0.0
 70
     1
  0
VERTEX
  5
1AF
  8
LAYER_01
 10
670.777255695963
 20
2043.127175590599
 30
0.0
  0
VERTEX
  5
1B0
  8
LAYER_01
 10
640.5334078924125
 20
2043.127175590599
 30
0.0
  0
VERTEX
  5
1B1
  8
LAYER_01
 10
640.5334078924125
 20
2082.240106383546
 30
0.0
  0
VERTEX
  5
1B2
  8
LAYER_01
 10
670.777255695963
 20
2082.240106383546
 30
0.0
  0
SEQEND
  5
1B3
  8
LAYER_01
  0
POLYLINE
  5
1B4
  8
LAYER_01
 66
     1
 10
0.0
 20
0.0
 30
0.0
 70
     1
  0
VERTEX
  5
1B5
  8
LAYER_01
 10
625.0707261348982
 20
1992.805730686366
 30
0.0
  0
VERTEX
  5
1B6
  8
LAYER_01
 10
598.9640080813178
 20
1992.805730686366
 30
0.0
  0
VERTEX
  5
1B7
  8
LAYER_01
 10
598.9640080813177
 20
2082.240106383546
 30
0.0
  0
VERTEX
  5
1B8
  8
LAYER_01
 10
625.0707261348982
 20
2082.240106383546
 30
0.0
  0
SEQEND
  5
1B9
  8
LAYER_01
  0
POLYLINE
  5
1BA
  8
LAYER_01
 66
     1
 10
0.0
 20
0.0
 30
0.0
 70
     1
  0
VERTEX
  5
1BB
  8
LAYER_01
 10
472.4040611772735
 20
2082.240106383546
 30
0.0
  0
VERTEX
  5
1BC
  8
LAYER_01
 10
502.647908980824
 20
2082.240106383546
 30
0.0
  0
VERTEX
  5
1BD
  8
LAYER_01
 10
502.647908980824
 20
1992.805730686366
 30
0.0
  0
VERTEX
  5
1BE
  8
LAYER_01
 10
472.4040611772735
 20
1992.805730686366
 30
0.0
  0
SEQEND
  5
1BF
  8
LAYER_01
  0
POLYLINE
  5
1C0
  8
LAYER_01
 66
     1
 10
0.0
 20
0.0
 30
0.0
 70
     1
  0
VERTEX
  5
1C1
  8
LAYER_01
 10
707.4040611772734
 20
1992.805730686366
 30
0.0
  0
VERTEX
  5
1C2
  8
LAYER_01
 10
640.5334078924125
 20
1992.805730686366
 30
0.0
  0
VERTEX
  5
1C3
  8
LAYER_01
 10
640.5334078924125
 20
2027.664493833084
 30
0.0
  0
VERTEX
  5
1C4
  8
LAYER_01
 10
707.4040611772735
 20
2027.664493833084
 30
0.0
  0
SEQEND
  5
1C5
  8
LAYER_01
  0
POLYLINE
  5
1C6
  8
LAYER_01
 66
     1
 10
0.0
 20
0.0
 30
0.0
 70
     1
  0
VERTEX
  5
1C7
  8
LAYER_01
 10
518.1105907383383
 20
2239.981399735623
 30
0.0
  0
VERTEX
  5
1C8
  8
LAYER_01
 10
583.5013263238036
 20
2239.981399735623
 30
0.0
  0
VERTEX
  5
1C9
  8
LAYER_01
 10
583.5013263238035
 20
2205.122636588905
 30
0.0
  0
VERTEX
  5
1CA
  8
LAYER_01
 10
518.1105907383383
 20
2205.122636588905
 30
0.0
  0
SEQEND
  5
1CB
  8
LAYER_01
  0
POLYLINE
  5
1CC
  8
LAYER_01
 66
     1
 10
0.0
 20
0.0
 30
0.0
 70
     1
  0
VERTEX
  5
1CD
  8
LAYER_01
 10
518.1105907383383
 20
2150.547024038443
 30
0.0
  0
VERTEX
  5
1CE
  8
LAYER_01
 10
518.1105907383383
 20
2189.659954831391
 30
0.0
  0
VERTEX
  5
1CF
  8
LAYER_01
 10
544.2173087919188
 20
2189.659954831391
 30
0.0
  0
VERTEX
  5
1D0
  8
LAYER_01
 10
544.2173087919189
 20
2150.547024038444
 30
0.0
  0
SEQEND
  5
1D1
  8
LAYER_01
  0
POLYLINE
  5
1D2
  8
LAYER_01
 66
     1
 10
0.0
 20
0.0
 30
0.0
 70
     1
  0
VERTEX
  5
1D3
  8
LAYER_01
 10
670.777255695963
 20
2189.659954831391
 30
0.0
  0
VERTEX
  5
1D4
  8
LAYER_01
 10
640.5334078924125
 20
2189.659954831391
 30
0.0
  0
VERTEX
  5
1D5
  8
LAYER_01
 10
640.5334078924125
 20
2150.547024038444
 30
0.0
  0
VERTEX
  5
1D6
  8
LAYER_01
 10
670.777255695963
 20
2150.547024038444
 30
0.0
  0
SEQEND
  5
1D7
  8
LAYER_01
  0
POLYLINE
  5
1D8
  8
LAYER_01
 66
     1
 10
0.0
 20
0.0
 30
0.0
 70
     1
  0
VERTEX
  5
1D9
  8
LAYER_01
 10
625.0707261348982
 20
2239.981399735623
 30
0.0
  0
VERTEX
  5
1DA
  8
LAYER_01
 10
598.9640080813178
 20
2239.981399735623
 30
0.0
  0
VERTEX
  5
1DB
  8
LAYER_01
 10
598.9640080813177
 20
2150.547024038444
 30
0.0
  0
VERTEX
  5
1DC
  8
LAYER_01
 10
625.0707261348982
 20
2150.547024038444
 30
0.0
  0
SEQEND
  5
1DD
  8
LAYER_01
  0
POLYLINE
  5
1DE
  8
LAYER_01
 66
     1
 10
0.0
 20
0.0
 30
0.0
 70
     1
  0
VERTEX
  5
1DF
  8
LAYER_01
 10
472.4040611772735
 20
2150.547024038444
 30
0.0
  0
VERTEX
  5
1E0
  8
LAYER_01
 10
502.647908980824
 20
2150.547024038444
 30
0.0
  0
VERTEX
  5
1E1
  8
LAYER_01
 10
502.647908980824
 20
2239.981399735623
 30
0.0
  0
VERTEX
  5
1E2
  8
LAYER_01
 10
472.4040611772735
 20
2239.981399735623
 30
0.0
  0
SEQEND
  5
1E3
  8
LAYER_01
  0
POLYLINE
  5
1E4
  8
LAYER_01
 66
     1
 10
0.0
 20
0.0
 30
0.0
 70
     1
  0
VERTEX
  5
1E5
  8
LAYER_01
 10
707.4040611772734
 20
2239.981399735623
 30
0.0
  0
VERTEX
  5
1E6
  8
LAYER_01
 10
640.5334078924125
 20
2239.981399735623
 30
0.0
  0
VERTEX
  5
1E7
  8
LAYER_01
 10
640.5334078924125
 20
2205.122636588906
 30
0.0
  0
VERTEX
  5
1E8
  8
LAYER_01
 10
707.4040611772735
 20
2205.122636588905
 30
0.0
  0
SEQEND
  5
1E9
  8
LAYER_01
  0
POLYLINE
  5
1EA
  8
LAYER_01
 66
     1
 10
0.0
 20
0.0
 30
0.0
 70
     1
  0
VERTEX
  5
1EB
  8
LAYER_01
 10
472.4040611772735
 20
2116.393565210995
 30
0.0
  0
VERTEX
  5
1EC
  8
LAYER_01
 10
472.4040611772735
 20
2135.08434228093
 30
0.0
  0
VERTEX
  5
1ED
  8
LAYER_01
 10
544.2173087919188
 20
2135.08434228093
 30
0.0
  0
VERTEX
  5
1EE
  8
LAYER_01
 10
544.2173087919188
 20
2097.70278814106
 30
0.0
  0
VERTEX
  5
1EF
  8
LAYER_01
 10
472.4040611772735
 20
2097.70278814106
 30
0.0
  0
SEQEND
  5
1F0
  8
LAYER_01
  0
POLYLINE
  5
1F1
  8
LAYER_01
 66
     1
 10
0.0
 20
0.0
 30
0.0
 70
     1
  0
VERTEX
  5
1F2
  8
LAYER_01
 10
559.679990549433
 20
2116.393565210995
 30
0.0
  0
VERTEX
  5
1F3
  8
LAYER_01
 10
559.679990549433
 20
2189.659954831391
 30
0.0
  0
VERTEX
  5
1F4
  8
LAYER_01
 10
583.5013263238035
 20
2189.659954831391
 30
0.0
  0
VERTEX
  5
1F5
  8
LAYER_01
 10
583.5013263238035
 20
2043.127175590599
 30
0.0
  0
VERTEX
  5
1F6
  8
LAYER_01
 10
559.679990549433
 20
2043.127175590599
 30
0.0
  0
SEQEND
  5
1F7
  8
LAYER_01
  0
POLYLINE
  5
1F8
  8
LAYER_01
 66
     1
 10
0.0
 20
0.0
 30
0.0
 70
     1
  0
VERTEX
  5
1F9
  8
LAYER_01
 10
598.9640080813178
 20
2116.393565210995
 30
0.0
  0
VERTEX
  5
1FA
  8
LAYER_01
 10
598.9640080813178
 20
2135.08434228093
 30
0.0
  0
VERTEX
  5
1FB
  8
LAYER_01
 10
670.777255695963
 20
2135.08434228093
 30
0.0
  0
VERTEX
  5
1FC
  8
LAYER_01
 10
670.777255695963
 20
2097.70278814106
 30
0.0
  0
VERTEX
  5
1FD
  8
LAYER_01
 10
598.9640080813178
 20
2097.70278814106
 30
0.0
  0
SEQEND
  5
1FE
  8
LAYER_01
  0
POLYLINE
  5
1FF
  8
LAYER_01
 66
     1
 10
0.0
 20
0.0
 30
0.0
 70
     1
  0
VERTEX
  5
200
  8
LAYER_01
 10
686.2399374534773
 20
2116.393565210994
 30
0.0
  0
VERTEX
  5
201
  8
LAYER_01
 10
686.2399374534773
 20
2189.659954831391
 30
0.0
  0
VERTEX
  5
202
  8
LAYER_01
 10
707.4040611772735
 20
2189.659954831391
 30
0.0
  0
VERTEX
  5
203
  8
LAYER_01
 10
707.4040611772735
 20
2043.127175590599
 30
0.0
  0
VERTEX
  5
204
  8
LAYER_01
 10
686.2399374534773
 20
2043.127175590599
 30
0.0
  0
SEQEND
  5
205
  8
LAYER_01
  0
POLYLINE
  5
206
  8
LAYER_01
 66
     1
 10
0.0
 20
0.0
 30
0.0
 70
     1
  0
VERTEX
  5
207
  8
LAYER_01
 10
518.1105907383383
 20
2255.444081493159
 30
0.0
  0
VERTEX
  5
208
  8
LAYER_01
 10
583.5013263238036
 20
2255.444081493159
 30
0.0
  0
VERTEX
  5
209
  8
LAYER_01
 10
583.5013263238035
 20
2290.302844639877
 30
0.0
  0
VERTEX
  5
20A
  8
LAYER_01
 10
518.1105907383383
 20
2290.302844639877
 30
0.0
  0
SEQEND
  5
20B
  8
LAYER_01
  0
POLYLINE
  5
20C
  8
LAYER_01
 66
     1
 10
0.0
 20
0.0
 30
0.0
 70
     1
  0
VERTEX
  5
20D
  8
LAYER_01
 10
518.1105907383383
 20
2344.878457190339
 30
0.0
  0
VERTEX
  5
20E
  8
LAYER_01
 10
518.1105907383383
 20
2305.765526397391
 30
0.0
  0
VERTEX
  5
20F
  8
LAYER_01
 10
544.2173087919188
 20
2305.765526397391
 30
0.0
  0
VERTEX
  5
210
  8
LAYER_01
 10
544.2173087919189
 20
2344.878457190338
 30
0.0
  0
SEQEND
  5
211
  8
LAYER_01
  0
POLYLINE
  5
212
  8
LAYER_01
 66
     1
 10
0.0
 20
0.0
 30
0.0
 70
     1
  0
VERTEX
  5
213
  8
LAYER_01
 10
670.777255695963
 20
2305.765526397391
 30
0.0
  0
VERTEX
  5
214
  8
LAYER_01
 10
640.5334078924125
 20
2305.765526397391
 30
0.0
  0
VERTEX
  5
215
  8
LAYER_01
 10
640.5334078924125
 20
2344.878457190338
 30
0.0
  0
VERTEX
  5
216
  8
LAYER_01
 10
670.777255695963
 20
2344.878457190338
 30
0.0
  0
SEQEND
  5
217
  8
LAYER_01
  0
POLYLINE
  5
218
  8
LAYER_01
 66
     1
 10
0.0
 20
0.0
 30
0.0
 70
     1
  0
VERTEX
  5
219
  8
LAYER_01
 10
625.0707261348982
 20
2255.444081493159
 30
0.0
  0
VERTEX
  5
21A
  8
LAYER_01
 10
598.9640080813178
 20
2255.444081493159
 30
0.0
  0
VERTEX
  5
21B
  8
LAYER_01
 10
598.9640080813177
 20
2344.878457190338
 30
0.0
  0
VERTEX
  5
21C
  8
LAYER_01
 10
625.0707261348982
 20
2344.878457190338
 30
0.0
  0
SEQEND
  5
21D
  8
LAYER_01
  0
POLYLINE
  5
21E
  8
LAYER_01
 66
     1
 10
0.0
 20
0.0
 30
0.0
 70
     1
  0
VERTEX
  5
21F
  8
LAYER_01
 10
472.4040611772735
 20
2344.878457190338
 30
0.0
  0
VERTEX
  5
220
  8
LAYER_01
 10
502.647908980824
 20
2344.878457190338
 30
0.0
  0
VERTEX
  5
221
  8
LAYER_01
 10
502.647908980824
 20
2255.444081493159
 30
0.0
  0
VERTEX
  5
222
  8
LAYER_01
 10
472.4040611772735
 20
2255.444081493159
 30
0.0
  0
SEQEND
  5
223
  8
LAYER_01
  0
POLYLINE
  5
224
  8
LAYER_01
 66
     1
 10
0.0
 20
0.0
 30
0.0
 70
     1
  0
VERTEX
  5
225
  8
LAYER_01
 10
707.4040611772734
 20
2255.444081493159
 30
0.0
  0
VERTEX
  5
226
  8
LAYER_01
 10
640.5334078924125
 20
2255.444081493159
 30
0.0
  0
VERTEX
  5
227
  8
LAYER_01
 10
640.5334078924125
 20
2290.302844639877
 30
0.0
  0
VERTEX
  5
228
  8
LAYER_01
 10
707.4040611772735
 20
2290.302844639877
 30
0.0
  0
SEQEND
  5
229
  8
LAYER_01
  0
POLYLINE
  5
22A
  8
LAYER_01
 66
     1
 10
0.0
 20
0.0
 30
0.0
 70
     1
  0
VERTEX
  5
22B
  8
LAYER_01
 10
518.1105907383383
 20
2502.619750542416
 30
0.0
  0
VERTEX
  5
22C
  8
LAYER_01
 10
583.5013263238036
 20
2502.619750542416
 30
0.0
  0
VERTEX
  5
22D
  8
LAYER_01
 10
583.5013263238035
 20
2467.760987395698
 30
0.0
  0
VERTEX
  5
22E
  8
LAYER_01
 10
518.1105907383383
 20
2467.760987395698
 30
0.0
  0
SEQEND
  5
22F
  8
LAYER_01
  0
POLYLINE
  5
230
  8
LAYER_01
 66
     1
 10
0.0
 20
0.0
 30
0.0
 70
     1
  0
VERTEX
  5
231
  8
LAYER_01
 10
518.1105907383383
 20
2413.185374845236
 30
0.0
  0
VERTEX
  5
232
  8
LAYER_01
 10
518.1105907383383
 20
2452.298305638184
 30
0.0
  0
VERTEX
  5
233
  8
LAYER_01
 10
544.2173087919188
 20
2452.298305638184
 30
0.0
  0
VERTEX
  5
234
  8
LAYER_01
 10
544.2173087919189
 20
2413.185374845236
 30
0.0
  0
SEQEND
  5
235
  8
LAYER_01
  0
POLYLINE
  5
236
  8
LAYER_01
 66
     1
 10
0.0
 20
0.0
 30
0.0
 70
     1
  0
VERTEX
  5
237
  8
LAYER_01
 10
670.777255695963
 20
2452.298305638184
 30
0.0
  0
VERTEX
  5
238
  8
LAYER_01
 10
640.5334078924125
 20
2452.298305638184
 30
0.0
  0
VERTEX
  5
239
  8
LAYER_01
 10
640.5334078924125
 20
2413.185374845237
 30
0.0
  0
VERTEX
  5
23A
  8
LAYER_01
 10
670.777255695963
 20
2413.185374845237
 30
0.0
  0
SEQEND
  5
23B
  8
LAYER_01
  0
POLYLINE
  5
23C
  8
LAYER_01
 66
     1
 10
0.0
 20
0.0
 30
0.0
 70
     1
  0
VERTEX
  5
23D
  8
LAYER_01
 10
625.0707261348982
 20
2502.619750542416
 30
0.0
  0
VERTEX
  5
23E
  8
LAYER_01
 10
598.9640080813178
 20
2502.619750542416
 30
0.0
  0
VERTEX
  5
23F
  8
LAYER_01
 10
598.9640080813177
 20
2413.185374845236
 30
0.0
  0
VERTEX
  5
240
  8
LAYER_01
 10
625.0707261348982
 20
2413.185374845236
 30
0.0
  0
SEQEND
  5
241
  8
LAYER_01
  0
POLYLINE
  5
242
  8
LAYER_01
 66
     1
 10
0.0
 20
0.0
 30
0.0
 70
     1
  0
VERTEX
  5
243
  8
LAYER_01
 10
472.4040611772735
 20
2413.185374845236
 30
0.0
  0
VERTEX
  5
244
  8
LAYER_01
 10
502.647908980824
 20
2413.185374845236
 30
0.0
  0
VERTEX
  5
245
  8
LAYER_01
 10
502.647908980824
 20
2502.619750542416
 30
0.0
  0
VERTEX
  5
246
  8
LAYER_01
 10
472.4040611772735
 20
2502.619750542416
 30
0.0
  0
SEQEND
  5
247
  8
LAYER_01
  0
POLYLINE
  5
248
  8
LAYER_01
 66
     1
 10
0.0
 20
0.0
 30
0.0
 70
     1
  0
VERTEX
  5
249
  8
LAYER_01
 10
707.4040611772734
 20
2502.619750542416
 30
0.0
  0
VERTEX
  5
24A
  8
LAYER_01
 10
640.5334078924125
 20
2502.619750542416
 30
0.0
  0
VERTEX
  5
24B
  8
LAYER_01
 10
640.5334078924125
 20
2467.760987395698
 30
0.0
  0
VERTEX
  5
24C
  8
LAYER_01
 10
707.4040611772735
 20
2467.760987395698
 30
0.0
  0
SEQEND
  5
24D
  8
LAYER_01
  0
POLYLINE
  5
24E
  8
LAYER_01
 66
     1
 10
0.0
 20
0.0
 30
0.0
 70
     1
  0
VERTEX
  5
24F
  8
LAYER_01
 10
472.4040611772735
 20
2379.031916017787
 30
0.0
  0
VERTEX
  5
250
  8
LAYER_01
 10
472.4040611772735
 20
2397.722693087722
 30
0.0
  0
VERTEX
  5
251
  8
LAYER_01
 10
544.2173087919188
 20
2397.722693087722
 30
0.0
  0
VERTEX
  5
252
  8
LAYER_01
 10
544.2173087919188
 20
2360.341138947852
 30
0.0
  0
VERTEX
  5
253
  8
LAYER_01
 10
472.4040611772735
 20
2360.341138947852
 30
0.0
  0
SEQEND
  5
254
  8
LAYER_01
  0
POLYLINE
  5
255
  8
LAYER_01
 66
     1
 10
0.0
 20
0.0
 30
0.0
 70
     1
  0
VERTEX
  5
256
  8
LAYER_01
 10
559.679990549433
 20
2379.031916017787
 30
0.0
  0
VERTEX
  5
257
  8
LAYER_01
 10
559.679990549433
 20
2452.298305638184
 30
0.0
  0
VERTEX
  5
258
  8
LAYER_01
 10
583.5013263238035
 20
2452.298305638184
 30
0.0
  0
VERTEX
  5
259
  8
LAYER_01
 10
583.5013263238035
 20
2305.765526397391
 30
0.0
  0
VERTEX
  5
25A
  8
LAYER_01
 10
559.679990549433
 20
2305.765526397391
 30
0.0
  0
SEQEND
  5
25B
  8
LAYER_01
  0
POLYLINE
  5
25C
  8
LAYER_01
 66
     1
 10
0.0
 20
0.0
 30
0.0
 70
     1
  0
VERTEX
  5
25D
  8
LAYER_01
 10
598.9640080813178
 20
2379.031916017787
 30
0.0
  0
VERTEX
  5
25E
  8
LAYER_01
 10
598.9640080813178
 20
2397.722693087722
 30
0.0
  0
VERTEX
  5
25F
  8
LAYER_01
 10
670.777255695963
 20
2397.722693087722
 30
0.0
  0
VERTEX
  5
260
  8
LAYER_01
 10
670.777255695963
 20
2360.341138947852
 30
0.0
  0
VERTEX
  5
261
  8
LAYER_01
 10
598.9640080813178
 20
2360.341138947852
 30
0.0
  0
SEQEND
  5
262
  8
LAYER_01
  0
POLYLINE
  5
263
  8
LAYER_01
 66
     1
 10
0.0
 20
0.0
 30
0.0
 70
     1
  0
VERTEX
  5
264
  8
LAYER_01
 10
686.2399374534773
 20
2379.031916017787
 30
0.0
  0
VERTEX
  5
265
  8
LAYER_01
 10
686.2399374534773
 20
2452.298305638184
 30
0.0
  0
VERTEX
  5
266
  8
LAYER_01
 10
707.4040611772735
 20
2452.298305638184
 30
0.0
  0
VERTEX
  5
267
  8
LAYER_01
 10
707.4040611772735
 20
2305.765526397391
 30
0.0
  0
VERTEX
  5
268
  8
LAYER_01
 10
686.2399374534773
 20
2305.765526397391
 30
0.0
  0
SEQEND
  5
269
  8
LAYER_01
  0
POLYLINE
  5
26A
  8
LAYER_01
 66
     1
 10
0.0
 20
0.0
 30
0.0
 70
     1
  0
VERTEX
  5
26B
  8
LAYER_01
 10
518.1105907383383
 20
2518.082432299952
 30
0.0
  0
VERTEX
  5
26C
  8
LAYER_01
 10
583.5013263238036
 20
2518.082432299952
 30
0.0
  0
VERTEX
  5
26D
  8
LAYER_01
 10
583.5013263238035
 20
2552.94119544667
 30
0.0
  0
VERTEX
  5
26E
  8
LAYER_01
 10
518.1105907383383
 20
2552.94119544667
 30
0.0
  0
SEQEND
  5
26F
  8
LAYER_01
  0
POLYLINE
  5
270
  8
LAYER_01
 66
     1
 10
0.0
 20
0.0
 30
0.0
 70
     1
  0
VERTEX
  5
271
  8
LAYER_01
 10
518.1105907383383
 20
2607.516807997131
 30
0.0
  0
VERTEX
  5
272
  8
LAYER_01
 10
518.1105907383383
 20
2568.403877204184
 30
0.0
  0
VERTEX
  5
273
  8
LAYER_01
 10
544.2173087919188
 20
2568.403877204184
 30
0.0
  0
VERTEX
  5
274
  8
LAYER_01
 10
544.2173087919189
 20
2607.516807997131
 30
0.0
  0
SEQEND
  5
275
  8
LAYER_01
  0
POLYLINE
  5
276
  8
LAYER_01
 66
     1
 10
0.0
 20
0.0
 30
0.0
 70
     1
  0
VERTEX
  5
277
  8
LAYER_01
 10
670.777255695963
 20
2568.403877204184
 30
0.0
  0
VERTEX
  5
278
  8
LAYER_01
 10
640.5334078924125
 20
2568.403877204184
 30
0.0
  0
VERTEX
  5
279
  8
LAYER_01
 10
640.5334078924125
 20
2607.516807997131
 30
0.0
  0
VERTEX
  5
27A
  8
LAYER_01
 10
670.777255695963
 20
2607.516807997131
 30
0.0
  0
SEQEND
  5
27B
  8
LAYER_01
  0
POLYLINE
  5
27C
  8
LAYER_01
 66
     1
 10
0.0
 20
0.0
 30
0.0
 70
     1
  0
VERTEX
  5
27D
  8
LAYER_01
 10
625.0707261348982
 20
2518.082432299952
 30
0.0
  0
VERTEX
  5
27E
  8
LAYER_01
 10
598.9640080813178
 20
2518.082432299952
 30
0.0
  0
VERTEX
  5
27F
  8
LAYER_01
 10
598.9640080813177
 20
2607.516807997131
 30
0.0
  0
VERTEX
  5
280
  8
LAYER_01
 10
625.0707261348982
 20
2607.516807997131
 30
0.0
  0
SEQEND
  5
281
  8
LAYER_01
  0
POLYLINE
  5
282
  8
LAYER_01
 66
     1
 10
0.0
 20
0.0
 30
0.0
 70
     1
  0
VERTEX
  5
283
  8
LAYER_01
 10
472.4040611772735
 20
2607.516807997131
 30
0.0
  0
VERTEX
  5
284
  8
LAYER_01
 10
502.647908980824
 20
2607.516807997131
 30
0.0
  0
VERTEX
  5
285
  8
LAYER_01
 10
502.647908980824
 20
2518.082432299952
 30
0.0
  0
VERTEX
  5
286
  8
LAYER_01
 10
472.4040611772735
 20
2518.082432299952
 30
0.0
  0
SEQEND
  5
287
  8
LAYER_01
  0
POLYLINE
  5
288
  8
LAYER_01
 66
     1
 10
0.0
 20
0.0
 30
0.0
 70
     1
  0
VERTEX
  5
289
  8
LAYER_01
 10
707.4040611772734
 20
2518.082432299952
 30
0.0
  0
VERTEX
  5
28A
  8
LAYER_01
 10
640.5334078924125
 20
2518.082432299952
 30
0.0
  0
VERTEX
  5
28B
  8
LAYER_01
 10
640.5334078924125
 20
2552.941195446669
 30
0.0
  0
VERTEX
  5
28C
  8
LAYER_01
 10
707.4040611772735
 20
2552.94119544667
 30
0.0
  0
SEQEND
  5
28D
  8
LAYER_01
  0
POLYLINE
  5
28E
  8
LAYER_01
 66
     1
 10
0.0
 20
0.0
 30
0.0
 70
     1
  0
VERTEX
  5
28F
  8
LAYER_01
 10
518.1105907383383
 20
2765.258101349208
 30
0.0
  0
VERTEX
  5
290
  8
LAYER_01
 10
583.5013263238036
 20
2765.258101349208
 30
0.0
  0
VERTEX
  5
291
  8
LAYER_01
 10
583.5013263238035
 20
2730.39933820249
 30
0.0
  0
VERTEX
  5
292
  8
LAYER_01
 10
518.1105907383383
 20
2730.39933820249
 30
0.0
  0
SEQEND
  5
293
  8
LAYER_01
  0
POLYLINE
  5
294
  8
LAYER_01
 66
     1
 10
0.0
 20
0.0
 30
0.0
 70
     1
  0
VERTEX
  5
295
  8
LAYER_01
 10
518.1105907383383
 20
2675.823725652028
 30
0.0
  0
VERTEX
  5
296
  8
LAYER_01
 10
518.1105907383383
 20
2714.936656444976
 30
0.0
  0
VERTEX
  5
297
  8
LAYER_01
 10
544.2173087919188
 20
2714.936656444976
 30
0.0
  0
VERTEX
  5
298
  8
LAYER_01
 10
544.2173087919189
 20
2675.823725652029
 30
0.0
  0
SEQEND
  5
299
  8
LAYER_01
  0
POLYLINE
  5
29A
  8
LAYER_01
 66
     1
 10
0.0
 20
0.0
 30
0.0
 70
     1
  0
VERTEX
  5
29B
  8
LAYER_01
 10
670.777255695963
 20
2714.936656444976
 30
0.0
  0
VERTEX
  5
29C
  8
LAYER_01
 10
640.5334078924125
 20
2714.936656444976
 30
0.0
  0
VERTEX
  5
29D
  8
LAYER_01
 10
640.5334078924125
 20
2675.823725652029
 30
0.0
  0
VERTEX
  5
29E
  8
LAYER_01
 10
670.777255695963
 20
2675.823725652029
 30
0.0
  0
SEQEND
  5
29F
  8
LAYER_01
  0
POLYLINE
  5
2A0
  8
LAYER_01
 66
     1
 10
0.0
 20
0.0
 30
0.0
 70
     1
  0
VERTEX
  5
2A1
  8
LAYER_01
 10
625.0707261348982
 20
2765.258101349208
 30
0.0
  0
VERTEX
  5
2A2
  8
LAYER_01
 10
598.9640080813178
 20
2765.258101349208
 30
0.0
  0
VERTEX
  5
2A3
  8
LAYER_01
 10
598.9640080813177
 20
2675.823725652029
 30
0.0
  0
VERTEX
  5
2A4
  8
LAYER_01
 10
625.0707261348982
 20
2675.823725652029
 30
0.0
  0
SEQEND
  5
2A5
  8
LAYER_01
  0
POLYLINE
  5
2A6
  8
LAYER_01
 66
     1
 10
0.0
 20
0.0
 30
0.0
 70
     1
  0
VERTEX
  5
2A7
  8
LAYER_01
 10
472.4040611772735
 20
2675.823725652029
 30
0.0
  0
VERTEX
  5
2A8
  8
LAYER_01
 10
502.647908980824
 20
2675.823725652029
 30
0.0
  0
VERTEX
  5
2A9
  8
LAYER_01
 10
502.647908980824
 20
2765.258101349208
 30
0.0
  0
VERTEX
  5
2AA
  8
LAYER_01
 10
472.4040611772735
 20
2765.258101349208
 30
0.0
  0
SEQEND
  5
2AB
  8
LAYER_01
  0
POLYLINE
  5
2AC
  8
LAYER_01
 66
     1
 10
0.0
 20
0.0
 30
0.0
 70
     1
  0
VERTEX
  5
2AD
  8
LAYER_01
 10
707.4040611772734
 20
2765.258101349208
 30
0.0
  0
VERTEX
  5
2AE
  8
LAYER_01
 10
640.5334078924125
 20
2765.258101349208
 30
0.0
  0
VERTEX
  5
2AF
  8
LAYER_01
 10
640.5334078924125
 20
2730.399338202491
 30
0.0
  0
VERTEX
  5
2B0
  8
LAYER_01
 10
707.4040611772735
 20
2730.39933820249
 30
0.0
  0
SEQEND
  5
2B1
  8
LAYER_01
  0
POLYLINE
  5
2B2
  8
LAYER_01
 66
     1
 10
0.0
 20
0.0
 30
0.0
 70
     1
  0
VERTEX
  5
2B3
  8
LAYER_01
 10
472.4040611772735
 20
2641.67026682458
 30
0.0
  0
VERTEX
  5
2B4
  8
LAYER_01
 10
472.4040611772735
 20
2660.361043894515
 30
0.0
  0
VERTEX
  5
2B5
  8
LAYER_01
 10
544.2173087919188
 20
2660.361043894515
 30
0.0
  0
VERTEX
  5
2B6
  8
LAYER_01
 10
544.2173087919188
 20
2622.979489754645
 30
0.0
  0
VERTEX
  5
2B7
  8
LAYER_01
 10
472.4040611772735
 20
2622.979489754645
 30
0.0
  0
SEQEND
  5
2B8
  8
LAYER_01
  0
POLYLINE
  5
2B9
  8
LAYER_01
 66
     1
 10
0.0
 20
0.0
 30
0.0
 70
     1
  0
VERTEX
  5
2BA
  8
LAYER_01
 10
559.679990549433
 20
2641.67026682458
 30
0.0
  0
VERTEX
  5
2BB
  8
LAYER_01
 10
559.679990549433
 20
2714.936656444976
 30
0.0
  0
VERTEX
  5
2BC
  8
LAYER_01
 10
583.5013263238035
 20
2714.936656444976
 30
0.0
  0
VERTEX
  5
2BD
  8
LAYER_01
 10
583.5013263238035
 20
2568.403877204184
 30
0.0
  0
VERTEX
  5
2BE
  8
LAYER_01
 10
559.679990549433
 20
2568.403877204184
 30
0.0
  0
SEQEND
  5
2BF
  8
LAYER_01
  0
POLYLINE
  5
2C0
  8
LAYER_01
 66
     1
 10
0.0
 20
0.0
 30
0.0
 70
     1
  0
VERTEX
  5
2C1
  8
LAYER_01
 10
598.9640080813178
 20
2641.67026682458
 30
0.0
  0
VERTEX
  5
2C2
  8
LAYER_01
 10
598.9640080813178
 20
2660.361043894515
 30
0.0
  0
VERTEX
  5
2C3
  8
LAYER_01
 10
670.777255695963
 20
2660.361043894515
 30
0.0
  0
VERTEX
  5
2C4
  8
LAYER_01
 10
670.777255695963
 20
2622.979489754645
 30
0.0
  0
VERTEX
  5
2C5
  8
LAYER_01
 10
598.9640080813178
 20
2622.979489754645
 30
0.0
  0
SEQEND
  5
2C6
  8
LAYER_01
  0
POLYLINE
  5
2C7
  8
LAYER_01
 66
     1
 10
0.0
 20
0.0
 30
0.0
 70
     1
  0
VERTEX
  5
2C8
  8
LAYER_01
 10
686.2399374534773
 20
2641.670266824579
 30
0.0
  0
VERTEX
  5
2C9
  8
LAYER_01
 10
686.2399374534773
 20
2714.936656444976
 30
0.0
  0
VERTEX
  5
2CA
  8
LAYER_01
 10
707.4040611772735
 20
2714.936656444976
 30
0.0
  0
VERTEX
  5
2CB
  8
LAYER_01
 10
707.4040611772735
 20
2568.403877204184
 30
0.0
  0
VERTEX
  5
2CC
  8
LAYER_01
 10
686.2399374534773
 20
2568.403877204184
 30
0.0
  0
SEQEND
  5
2CD
  8
LAYER_01
  0
POLYLINE
  5
2CE
  8
LAYER_01
 66
     1
 10
0.0
 20
0.0
 30
0.0
 70
     1
  0
VERTEX
  5
2CF
  8
LAYER_01
 10
518.1105907383383
 20
2780.720783106744
 30
0.0
  0
VERTEX
  5
2D0
  8
LAYER_01
 10
583.5013263238036
 20
2780.720783106744
 30
0.0
  0
VERTEX
  5
2D1
  8
LAYER_01
 10
583.5013263238035
 20
2815.579546253462
 30
0.0
  0
VERTEX
  5
2D2
  8
LAYER_01
 10
518.1105907383383
 20
2815.579546253462
 30
0.0
  0
SEQEND
  5
2D3
  8
LAYER_01
  0
POLYLINE
  5
2D4
  8
LAYER_01
 66
     1
 10
0.0
 20
0.0
 30
0.0
 70
     1
  0
VERTEX
  5
2D5
  8
LAYER_01
 10
518.1105907383383
 20
2870.155158803924
 30
0.0
  0
VERTEX
  5
2D6
  8
LAYER_01
 10
518.1105907383383
 20
2831.042228010976
 30
0.0
  0
VERTEX
  5
2D7
  8
LAYER_01
 10
544.2173087919188
 20
2831.042228010976
 30
0.0
  0
VERTEX
  5
2D8
  8
LAYER_01
 10
544.2173087919189
 20
2870.155158803923
 30
0.0
  0
SEQEND
  5
2D9
  8
LAYER_01
  0
POLYLINE
  5
2DA
  8
LAYER_01
 66
     1
 10
0.0
 20
0.0
 30
0.0
 70
     1
  0
VERTEX
  5
2DB
  8
LAYER_01
 10
670.777255695963
 20
2831.042228010976
 30
0.0
  0
VERTEX
  5
2DC
  8
LAYER_01
 10
640.5334078924125
 20
2831.042228010976
 30
0.0
  0
VERTEX
  5
2DD
  8
LAYER_01
 10
640.5334078924125
 20
2870.155158803923
 30
0.0
  0
VERTEX
  5
2DE
  8
LAYER_01
 10
670.777255695963
 20
2870.155158803923
 30
0.0
  0
SEQEND
  5
2DF
  8
LAYER_01
  0
POLYLINE
  5
2E0
  8
LAYER_01
 66
     1
 10
0.0
 20
0.0
 30
0.0
 70
     1
  0
VERTEX
  5
2E1
  8
LAYER_01
 10
625.0707261348982
 20
2780.720783106744
 30
0.0
  0
VERTEX
  5
2E2
  8
LAYER_01
 10
598.9640080813178
 20
2780.720783106744
 30
0.0
  0
VERTEX
  5
2E3
  8
LAYER_01
 10
598.9640080813177
 20
2870.155158803923
 30
0.0
  0
VERTEX
  5
2E4
  8
LAYER_01
 10
625.0707261348982
 20
2870.155158803923
 30
0.0
  0
SEQEND
  5
2E5
  8
LAYER_01
  0
POLYLINE
  5
2E6
  8
LAYER_01
 66
     1
 10
0.0
 20
0.0
 30
0.0
 70
     1
  0
VERTEX
  5
2E7
  8
LAYER_01
 10
472.4040611772735
 20
2870.155158803923
 30
0.0
  0
VERTEX
  5
2E8
  8
LAYER_01
 10
502.647908980824
 20
2870.155158803923
 30
0.0
  0
VERTEX
  5
2E9
  8
LAYER_01
 10
502.647908980824
 20
2780.720783106744
 30
0.0
  0
VERTEX
  5
2EA
  8
LAYER_01
 10
472.4040611772735
 20
2780.720783106744
 30
0.0
  0
SEQEND
  5
2EB
  8
LAYER_01
  0
POLYLINE
  5
2EC
  8
LAYER_01
 66
     1
 10
0.0
 20
0.0
 30
0.0
 70
     1
  0
VERTEX
  5
2ED
  8
LAYER_01
 10
707.4040611772734
 20
2780.720783106744
 30
0.0
  0
VERTEX
  5
2EE
  8
LAYER_01
 10
640.5334078924125
 20
2780.720783106744
 30
0.0
  0
VERTEX
  5
2EF
  8
LAYER_01
 10
640.5334078924125
 20
2815.579546253462
 30
0.0
  0
VERTEX
  5
2F0
  8
LAYER_01
 10
707.4040611772735
 20
2815.579546253462
 30
0.0
  0
SEQEND
  5
2F1
  8
LAYER_01
  0
POLYLINE
  5
2F2
  8
LAYER_01
 66
     1
 10
0.0
 20
0.0
 30
0.0
 70
     1
  0
VERTEX
  5
2F3
  8
LAYER_01
 10
518.1105907383383
 20
3027.896452156001
 30
0.0
  0
VERTEX
  5
2F4
  8
LAYER_01
 10
583.5013263238036
 20
3027.896452156001
 30
0.0
  0
VERTEX
  5
2F5
  8
LAYER_01
 10
583.5013263238035
 20
2993.037689009283
 30
0.0
  0
VERTEX
  5
2F6
  8
LAYER_01
 10
518.1105907383383
 20
2993.037689009283
 30
0.0
  0
SEQEND
  5
2F7
  8
LAYER_01
  0
POLYLINE
  5
2F8
  8
LAYER_01
 66
     1
 10
0.0
 20
0.0
 30
0.0
 70
     1
  0
VERTEX
  5
2F9
  8
LAYER_01
 10
518.1105907383383
 20
2938.462076458821
 30
0.0
  0
VERTEX
  5
2FA
  8
LAYER_01
 10
518.1105907383383
 20
2977.575007251769
 30
0.0
  0
VERTEX
  5
2FB
  8
LAYER_01
 10
544.2173087919188
 20
2977.575007251769
 30
0.0
  0
VERTEX
  5
2FC
  8
LAYER_01
 10
544.2173087919189
 20
2938.462076458821
 30
0.0
  0
SEQEND
  5
2FD
  8
LAYER_01
  0
POLYLINE
  5
2FE
  8
LAYER_01
 66
     1
 10
0.0
 20
0.0
 30
0.0
 70
     1
  0
VERTEX
  5
2FF
  8
LAYER_01
 10
670.777255695963
 20
2977.575007251769
 30
0.0
  0
VERTEX
  5
300
  8
LAYER_01
 10
640.5334078924125
 20
2977.575007251769
 30
0.0
  0
VERTEX
  5
301
  8
LAYER_01
 10
640.5334078924125
 20
2938.462076458822
 30
0.0
  0
VERTEX
  5
302
  8
LAYER_01
 10
670.777255695963
 20
2938.462076458822
 30
0.0
  0
SEQEND
  5
303
  8
LAYER_01
  0
POLYLINE
  5
304
  8
LAYER_01
 66
     1
 10
0.0
 20
0.0
 30
0.0
 70
     1
  0
VERTEX
  5
305
  8
LAYER_01
 10
625.0707261348982
 20
3027.896452156001
 30
0.0
  0
VERTEX
  5
306
  8
LAYER_01
 10
598.9640080813178
 20
3027.896452156001
 30
0.0
  0
VERTEX
  5
307
  8
LAYER_01
 10
598.9640080813177
 20
2938.462076458821
 30
0.0
  0
VERTEX
  5
308
  8
LAYER_01
 10
625.0707261348982
 20
2938.462076458821
 30
0.0
  0
SEQEND
  5
309
  8
LAYER_01
  0
POLYLINE
  5
30A
  8
LAYER_01
 66
     1
 10
0.0
 20
0.0
 30
0.0
 70
     1
  0
VERTEX
  5
30B
  8
LAYER_01
 10
472.4040611772735
 20
2938.462076458821
 30
0.0
  0
VERTEX
  5
30C
  8
LAYER_01
 10
502.647908980824
 20
2938.462076458821
 30
0.0
  0
VERTEX
  5
30D
  8
LAYER_01
 10
502.647908980824
 20
3027.896452156001
 30
0.0
  0
VERTEX
  5
30E
  8
LAYER_01
 10
472.4040611772735
 20
3027.896452156001
 30
0.0
  0
SEQEND
  5
30F
  8
LAYER_01
  0
POLYLINE
  5
310
  8
LAYER_01
 66
     1
 10
0.0
 20
0.0
 30
0.0
 70
     1
  0
VERTEX
  5
311
  8
LAYER_01
 10
707.4040611772734
 20
3027.896452156001
 30
0.0
  0
VERTEX
  5
312
  8
LAYER_01
 10
640.5334078924125
 20
3027.896452156001
 30
0.0
  0
VERTEX
  5
313
  8
LAYER_01
 10
640.5334078924125
 20
2993.037689009283
 30
0.0
  0
VERTEX
  5
314
  8
LAYER_01
 10
707.4040611772735
 20
2993.037689009283
 30
0.0
  0
SEQEND
  5
315
  8
LAYER_01
  0
POLYLINE
  5
316
  8
LAYER_01
 66
     1
 10
0.0
 20
0.0
 30
0.0
 70
     1
  0
VERTEX
  5
317
  8
LAYER_01
 10
472.4040611772735
 20
2904.308617631372
 30
0.0
  0
VERTEX
  5
318
  8
LAYER_01
 10
472.4040611772735
 20
2922.999394701307
 30
0.0
  0
VERTEX
  5
319
  8
LAYER_01
 10
544.2173087919188
 20
2922.999394701307
 30
0.0
  0
VERTEX
  5
31A
  8
LAYER_01
 10
544.2173087919188
 20
2885.617840561437
 30
0.0
  0
VERTEX
  5
31B
  8
LAYER_01
 10
472.4040611772735
 20
2885.617840561437
 30
0.0
  0
SEQEND
  5
31C
  8
LAYER_01
  0
POLYLINE
  5
31D
  8
LAYER_01
 66
     1
 10
0.0
 20
0.0
 30
0.0
 70
     1
  0
VERTEX
  5
31E
  8
LAYER_01
 10
559.679990549433
 20
2904.308617631372
 30
0.0
  0
VERTEX
  5
31F
  8
LAYER_01
 10
559.679990549433
 20
2977.575007251769
 30
0.0
  0
VERTEX
  5
320
  8
LAYER_01
 10
583.5013263238035
 20
2977.575007251769
 30
0.0
  0
VERTEX
  5
321
  8
LAYER_01
 10
583.5013263238035
 20
2831.042228010976
 30
0.0
  0
VERTEX
  5
322
  8
LAYER_01
 10
559.679990549433
 20
2831.042228010976
 30
0.0
  0
SEQEND
  5
323
  8
LAYER_01
  0
POLYLINE
  5
324
  8
LAYER_01
 66
     1
 10
0.0
 20
0.0
 30
0.0
 70
     1
  0
VERTEX
  5
325
  8
LAYER_01
 10
598.9640080813178
 20
2904.308617631372
 30
0.0
  0
VERTEX
  5
326
  8
LAYER_01
 10
598.9640080813178
 20
2922.999394701307
 30
0.0
  0
VERTEX
  5
327
  8
LAYER_01
 10
670.777255695963
 20
2922.999394701307
 30
0.0
  0
VERTEX
  5
328
  8
LAYER_01
 10
670.777255695963
 20
2885.617840561437
 30
0.0
  0
VERTEX
  5
329
  8
LAYER_01
 10
598.9640080813178
 20
2885.617840561437
 30
0.0
  0
SEQEND
  5
32A
  8
LAYER_01
  0
POLYLINE
  5
32B
  8
LAYER_01
 66
     1
 10
0.0
 20
0.0
 30
0.0
 70
     1
  0
VERTEX
  5
32C
  8
LAYER_01
 10
686.2399374534773
 20
2904.308617631372
 30
0.0
  0
VERTEX
  5
32D
  8
LAYER_01
 10
686.2399374534773
 20
2977.575007251769
 30
0.0
  0
VERTEX
  5
32E
  8
LAYER_01
 10
707.4040611772735
 20
2977.575007251769
 30
0.0
  0
VERTEX
  5
32F
  8
LAYER_01
 10
707.4040611772735
 20
2831.042228010976
 30
0.0
  0
VERTEX
  5
330
  8
LAYER_01
 10
686.2399374534773
 20
2831.042228010976
 30
0.0
  0
SEQEND
  5
331
  8
LAYER_01
  0
POLYLINE
  5
332
  8
LAYER_01
 66
     1
 10
0.0
 20
0.0
 30
0.0
 70
     1
  0
VERTEX
  5
333
  8
LAYER_01
 10
518.1105907383383
 20
3043.359133913536
 30
0.0
  0
VERTEX
  5
334
  8
LAYER_01
 10
583.5013263238036
 20
3043.359133913536
 30
0.0
  0
VERTEX
  5
335
  8
LAYER_01
 10
583.5013263238035
 20
3078.217897060254
 30
0.0
  0
VERTEX
  5
336
  8
LAYER_01
 10
518.1105907383383
 20
3078.217897060254
 30
0.0
  0
SEQEND
  5
337
  8
LAYER_01
  0
POLYLINE
  5
338
  8
LAYER_01
 66
     1
 10
0.0
 20
0.0
 30
0.0
 70
     1
  0
VERTEX
  5
339
  8
LAYER_01
 10
518.1105907383383
 20
3132.793509610716
 30
0.0
  0
VERTEX
  5
33A
  8
LAYER_01
 10
518.1105907383383
 20
3093.680578817768
 30
0.0
  0
VERTEX
  5
33B
  8
LAYER_01
 10
544.2173087919188
 20
3093.680578817768
 30
0.0
  0
VERTEX
  5
33C
  8
LAYER_01
 10
544.2173087919189
 20
3132.793509610716
 30
0.0
  0
SEQEND
  5
33D
  8
LAYER_01
  0
POLYLINE
  5
33E
  8
LAYER_01
 66
     1
 10
0.0
 20
0.0
 30
0.0
 70
     1
  0
VERTEX
  5
33F
  8
LAYER_01
 10
670.777255695963
 20
3093.680578817768
 30
0.0
  0
VERTEX
  5
340
  8
LAYER_01
 10
640.5334078924125
 20
3093.680578817768
 30
0.0
  0
VERTEX
  5
341
  8
LAYER_01
 10
640.5334078924125
 20
3132.793509610716
 30
0.0
  0
VERTEX
  5
342
  8
LAYER_01
 10
670.777255695963
 20
3132.793509610716
 30
0.0
  0
SEQEND
  5
343
  8
LAYER_01
  0
POLYLINE
  5
344
  8
LAYER_01
 66
     1
 10
0.0
 20
0.0
 30
0.0
 70
     1
  0
VERTEX
  5
345
  8
LAYER_01
 10
625.0707261348982
 20
3043.359133913536
 30
0.0
  0
VERTEX
  5
346
  8
LAYER_01
 10
598.9640080813178
 20
3043.359133913536
 30
0.0
  0
VERTEX
  5
347
  8
LAYER_01
 10
598.9640080813177
 20
3132.793509610716
 30
0.0
  0
VERTEX
  5
348
  8
LAYER_01
 10
625.0707261348982
 20
3132.793509610716
 30
0.0
  0
SEQEND
  5
349
  8
LAYER_01
  0
POLYLINE
  5
34A
  8
LAYER_01
 66
     1
 10
0.0
 20
0.0
 30
0.0
 70
     1
  0
VERTEX
  5
34B
  8
LAYER_01
 10
472.4040611772735
 20
3132.793509610716
 30
0.0
  0
VERTEX
  5
34C
  8
LAYER_01
 10
502.647908980824
 20
3132.793509610716
 30
0.0
  0
VERTEX
  5
34D
  8
LAYER_01
 10
502.647908980824
 20
3043.359133913536
 30
0.0
  0
VERTEX
  5
34E
  8
LAYER_01
 10
472.4040611772735
 20
3043.359133913536
 30
0.0
  0
SEQEND
  5
34F
  8
LAYER_01
  0
POLYLINE
  5
350
  8
LAYER_01
 66
     1
 10
0.0
 20
0.0
 30
0.0
 70
     1
  0
VERTEX
  5
351
  8
LAYER_01
 10
707.4040611772734
 20
3043.359133913536
 30
0.0
  0
VERTEX
  5
352
  8
LAYER_01
 10
640.5334078924125
 20
3043.359133913536
 30
0.0
  0
VERTEX
  5
353
  8
LAYER_01
 10
640.5334078924125
 20
3078.217897060254
 30
0.0
  0
VERTEX
  5
354
  8
LAYER_01
 10
707.4040611772735
 20
3078.217897060254
 30
0.0
  0
SEQEND
  5
355
  8
LAYER_01
  0
POLYLINE
  5
356
  8
LAYER_01
 66
     1
 10
0.0
 20
0.0
 30
0.0
 70
     1
  0
VERTEX
  5
357
  8
LAYER_01
 10
518.1105907383383
 20
3290.534802962793
 30
0.0
  0
VERTEX
  5
358
  8
LAYER_01
 10
583.5013263238036
 20
3290.534802962793
 30
0.0
  0
VERTEX
  5
359
  8
LAYER_01
 10
583.5013263238035
 20
3255.676039816075
 30
0.0
  0
VERTEX
  5
35A
  8
LAYER_01
 10
518.1105907383383
 20
3255.676039816075
 30
0.0
  0
SEQEND
  5
35B
  8
LAYER_01
  0
POLYLINE
  5
35C
  8
LAYER_01
 66
     1
 10
0.0
 20
0.0
 30
0.0
 70
     1
  0
VERTEX
  5
35D
  8
LAYER_01
 10
518.1105907383383
 20
3201.100427265613
 30
0.0
  0
VERTEX
  5
35E
  8
LAYER_01
 10
518.1105907383383
 20
3240.213358058561
 30
0.0
  0
VERTEX
  5
35F
  8
LAYER_01
 10
544.2173087919188
 20
3240.213358058561
 30
0.0
  0
VERTEX
  5
360
  8
LAYER_01
 10
544.2173087919189
 20
3201.100427265614
 30
0.0
  0
SEQEND
  5
361
  8
LAYER_01
  0
POLYLINE
  5
362
  8
LAYER_01
 66
     1
 10
0.0
 20
0.0
 30
0.0
 70
     1
  0
VERTEX
  5
363
  8
LAYER_01
 10
670.777255695963
 20
3240.213358058561
 30
0.0
  0
VERTEX
  5
364
  8
LAYER_01
 10
640.5334078924125
 20
3240.213358058561
 30
0.0
  0
VERTEX
  5
365
  8
LAYER_01
 10
640.5334078924125
 20
3201.100427265614
 30
0.0
  0
VERTEX
  5
366
  8
LAYER_01
 10
670.777255695963
 20
3201.100427265614
 30
0.0
  0
SEQEND
  5
367
  8
LAYER_01
  0
POLYLINE
  5
368
  8
LAYER_01
 66
     1
 10
0.0
 20
0.0
 30
0.0
 70
     1
  0
VERTEX
  5
369
  8
LAYER_01
 10
625.0707261348982
 20
3290.534802962793
 30
0.0
  0
VERTEX
  5
36A
  8
LAYER_01
 10
598.9640080813178
 20
3290.534802962793
 30
0.0
  0
VERTEX
  5
36B
  8
LAYER_01
 10
598.9640080813177
 20
3201.100427265614
 30
0.0
  0
VERTEX
  5
36C
  8
LAYER_01
 10
625.0707261348982
 20
3201.100427265614
 30
0.0
  0
SEQEND
  5
36D
  8
LAYER_01
  0
POLYLINE
  5
36E
  8
LAYER_01
 66
     1
 10
0.0
 20
0.0
 30
0.0
 70
     1
  0
VERTEX
  5
36F
  8
LAYER_01
 10
472.4040611772735
 20
3201.100427265614
 30
0.0
  0
VERTEX
  5
370
  8
LAYER_01
 10
502.647908980824
 20
3201.100427265614
 30
0.0
  0
VERTEX
  5
371
  8
LAYER_01
 10
502.647908980824
 20
3290.534802962793
 30
0.0
  0
VERTEX
  5
372
  8
LAYER_01
 10
472.4040611772735
 20
3290.534802962793
 30
0.0
  0
SEQEND
  5
373
  8
LAYER_01
  0
POLYLINE
  5
374
  8
LAYER_01
 66
     1
 10
0.0
 20
0.0
 30
0.0
 70
     1
  0
VERTEX
  5
375
  8
LAYER_01
 10
707.4040611772734
 20
3290.534802962793
 30
0.0
  0
VERTEX
  5
376
  8
LAYER_01
 10
640.5334078924125
 20
3290.534802962793
 30
0.0
  0
VERTEX
  5
377
  8
LAYER_01
 10
640.5334078924125
 20
3255.676039816075
 30
0.0
  0
VERTEX
  5
378
  8
LAYER_01
 10
707.4040611772735
 20
3255.676039816075
 30
0.0
  0
SEQEND
  5
379
  8
LAYER_01
  0
POLYLINE
  5
37A
  8
LAYER_01
 66
     1
 10
0.0
 20
0.0
 30
0.0
 70
     1
  0
VERTEX
  5
37B
  8
LAYER_01
 10
472.4040611772735
 20
3166.946968438165
 30
0.0
  0
VERTEX
  5
37C
  8
LAYER_01
 10
472.4040611772735
 20
3185.6377455081
 30
0.0
  0
VERTEX
  5
37D
  8
LAYER_01
 10
544.2173087919188
 20
3185.6377455081
 30
0.0
  0
VERTEX
  5
37E
  8
LAYER_01
 10
544.2173087919188
 20
3148.25619136823
 30
0.0
  0
VERTEX
  5
37F
  8
LAYER_01
 10
472.4040611772735
 20
3148.25619136823
 30
0.0
  0
SEQEND
  5
380
  8
LAYER_01
  0
POLYLINE
  5
381
  8
LAYER_01
 66
     1
 10
0.0
 20
0.0
 30
0.0
 70
     1
  0
VERTEX
  5
382
  8
LAYER_01
 10
559.679990549433
 20
3166.946968438165
 30
0.0
  0
VERTEX
  5
383
  8
LAYER_01
 10
559.679990549433
 20
3240.213358058561
 30
0.0
  0
VERTEX
  5
384
  8
LAYER_01
 10
583.5013263238035
 20
3240.213358058561
 30
0.0
  0
VERTEX
  5
385
  8
LAYER_01
 10
583.5013263238035
 20
3093.680578817768
 30
0.0
  0
VERTEX
  5
386
  8
LAYER_01
 10
559.679990549433
 20
3093.680578817768
 30
0.0
  0
SEQEND
  5
387
  8
LAYER_01
  0
POLYLINE
  5
388
  8
LAYER_01
 66
     1
 10
0.0
 20
0.0
 30
0.0
 70
     1
  0
VERTEX
  5
389
  8
LAYER_01
 10
598.9640080813178
 20
3166.946968438165
 30
0.0
  0
VERTEX
  5
38A
  8
LAYER_01
 10
598.9640080813178
 20
3185.6377455081
 30
0.0
  0
VERTEX
  5
38B
  8
LAYER_01
 10
670.777255695963
 20
3185.6377455081
 30
0.0
  0
VERTEX
  5
38C
  8
LAYER_01
 10
670.777255695963
 20
3148.25619136823
 30
0.0
  0
VERTEX
  5
38D
  8
LAYER_01
 10
598.9640080813178
 20
3148.25619136823
 30
0.0
  0
SEQEND
  5
38E
  8
LAYER_01
  0
POLYLINE
  5
38F
  8
LAYER_01
 66
     1
 10
0.0
 20
0.0
 30
0.0
 70
     1
  0
VERTEX
  5
390
  8
LAYER_01
 10
686.2399374534773
 20
3166.946968438164
 30
0.0
  0
VERTEX
  5
391
  8
LAYER_01
 10
686.2399374534773
 20
3240.213358058561
 30
0.0
  0
VERTEX
  5
392
  8
LAYER_01
 10
707.4040611772735
 20
3240.213358058561
 30
0.0
  0
VERTEX
  5
393
  8
LAYER_01
 10
707.4040611772735
 20
3093.680578817768
 30
0.0
  0
VERTEX
  5
394
  8
LAYER_01
 10
686.2399374534773
 20
3093.680578817768
 30
0.0
  0
SEQEND
  5
395
  8
LAYER_01
  0
POLYLINE
  5
396
  8
LAYER_01
 66
     1
 10
0.0
 20
0.0
 30
0.0
 70
     1
  0
VERTEX
  5
397
  8
LAYER_01
 10
518.1105907383383
 20
3305.997484720328
 30
0.0
  0
VERTEX
  5
398
  8
LAYER_01
 10
583.5013263238036
 20
3305.997484720328
 30
0.0
  0
VERTEX
  5
399
  8
LAYER_01
 10
583.5013263238035
 20
3340.856247867046
 30
0.0
  0
VERTEX
  5
39A
  8
LAYER_01
 10
518.1105907383383
 20
3340.856247867046
 30
0.0
  0
SEQEND
  5
39B
  8
LAYER_01
  0
POLYLINE
  5
39C
  8
LAYER_01
 66
     1
 10
0.0
 20
0.0
 30
0.0
 70
     1
  0
VERTEX
  5
39D
  8
LAYER_01
 10
518.1105907383383
 20
3395.431860417509
 30
0.0
  0
VERTEX
  5
39E
  8
LAYER_01
 10
518.1105907383383
 20
3356.318929624561
 30
0.0
  0
VERTEX
  5
39F
  8
LAYER_01
 10
544.2173087919188
 20
3356.318929624561
 30
0.0
  0
VERTEX
  5
3A0
  8
LAYER_01
 10
544.2173087919189
 20
3395.431860417508
 30
0.0
  0
SEQEND
  5
3A1
  8
LAYER_01
  0
POLYLINE
  5
3A2
  8
LAYER_01
 66
     1
 10
0.0
 20
0.0
 30
0.0
 70
     1
  0
VERTEX
  5
3A3
  8
LAYER_01
 10
670.777255695963
 20
3356.318929624561
 30
0.0
  0
VERTEX
  5
3A4
  8
LAYER_01
 10
640.5334078924125
 20
3356.318929624561
 30
0.0
  0
VERTEX
  5
3A5
  8
LAYER_01
 10
640.5334078924125
 20
3395.431860417508
 30
0.0
  0
VERTEX
  5
3A6
  8
LAYER_01
 10
670.777255695963
 20
3395.431860417508
 30
0.0
  0
SEQEND
  5
3A7
  8
LAYER_01
  0
POLYLINE
  5
3A8
  8
LAYER_01
 66
     1
 10
0.0
 20
0.0
 30
0.0
 70
     1
  0
VERTEX
  5
3A9
  8
LAYER_01
 10
625.0707261348982
 20
3305.997484720328
 30
0.0
  0
VERTEX
  5
3AA
  8
LAYER_01
 10
598.9640080813178
 20
3305.997484720328
 30
0.0
  0
VERTEX
  5
3AB
  8
LAYER_01
 10
598.9640080813177
 20
3395.431860417508
 30
0.0
  0
VERTEX
  5
3AC
  8
LAYER_01
 10
625.0707261348982
 20
3395.431860417508
 30
0.0
  0
SEQEND
  5
3AD
  8
LAYER_01
  0
POLYLINE
  5
3AE
  8
LAYER_01
 66
     1
 10
0.0
 20
0.0
 30
0.0
 70
     1
  0
VERTEX
  5
3AF
  8
LAYER_01
 10
472.4040611772735
 20
3395.431860417508
 30
0.0
  0
VERTEX
  5
3B0
  8
LAYER_01
 10
502.647908980824
 20
3395.431860417508
 30
0.0
  0
VERTEX
  5
3B1
  8
LAYER_01
 10
502.647908980824
 20
3305.997484720328
 30
0.0
  0
VERTEX
  5
3B2
  8
LAYER_01
 10
472.4040611772735
 20
3305.997484720328
 30
0.0
  0
SEQEND
  5
3B3
  8
LAYER_01
  0
POLYLINE
  5
3B4
  8
LAYER_01
 66
     1
 10
0.0
 20
0.0
 30
0.0
 70
     1
  0
VERTEX
  5
3B5
  8
LAYER_01
 10
707.4040611772734
 20
3305.997484720328
 30
0.0
  0
VERTEX
  5
3B6
  8
LAYER_01
 10
640.5334078924125
 20
3305.997484720328
 30
0.0
  0
VERTEX
  5
3B7
  8
LAYER_01
 10
640.5334078924125
 20
3340.856247867046
 30
0.0
  0
VERTEX
  5
3B8
  8
LAYER_01
 10
707.4040611772735
 20
3340.856247867046
 30
0.0
  0
SEQEND
  5
3B9
  8
LAYER_01
  0
POLYLINE
  5
3BA
  8
LAYER_01
 66
     1
 10
0.0
 20
0.0
 30
0.0
 70
     1
  0
VERTEX
  5
3BB
  8
LAYER_01
 10
518.1105907383383
 20
3553.173153769586
 30
0.0
  0
VERTEX
  5
3BC
  8
LAYER_01
 10
583.5013263238036
 20
3553.173153769586
 30
0.0
  0
VERTEX
  5
3BD
  8
LAYER_01
 10
583.5013263238035
 20
3518.314390622868
 30
0.0
  0
VERTEX
  5
3BE
  8
LAYER_01
 10
518.1105907383383
 20
3518.314390622868
 30
0.0
  0
SEQEND
  5
3BF
  8
LAYER_01
  0
POLYLINE
  5
3C0
  8
LAYER_01
 66
     1
 10
0.0
 20
0.0
 30
0.0
 70
     1
  0
VERTEX
  5
3C1
  8
LAYER_01
 10
518.1105907383383
 20
3463.738778072406
 30
0.0
  0
VERTEX
  5
3C2
  8
LAYER_01
 10
518.1105907383383
 20
3502.851708865353
 30
0.0
  0
VERTEX
  5
3C3
  8
LAYER_01
 10
544.2173087919188
 20
3502.851708865353
 30
0.0
  0
VERTEX
  5
3C4
  8
LAYER_01
 10
544.2173087919189
 20
3463.738778072406
 30
0.0
  0
SEQEND
  5
3C5
  8
LAYER_01
  0
POLYLINE
  5
3C6
  8
LAYER_01
 66
     1
 10
0.0
 20
0.0
 30
0.0
 70
     1
  0
VERTEX
  5
3C7
  8
LAYER_01
 10
670.777255695963
 20
3502.851708865353
 30
0.0
  0
VERTEX
  5
3C8
  8
LAYER_01
 10
640.5334078924125
 20
3502.851708865353
 30
0.0
  0
VERTEX
  5
3C9
  8
LAYER_01
 10
640.5334078924125
 20
3463.738778072407
 30
0.0
  0
VERTEX
  5
3CA
  8
LAYER_01
 10
670.777255695963
 20
3463.738778072407
 30
0.0
  0
SEQEND
  5
3CB
  8
LAYER_01
  0
POLYLINE
  5
3CC
  8
LAYER_01
 66
     1
 10
0.0
 20
0.0
 30
0.0
 70
     1
  0
VERTEX
  5
3CD
  8
LAYER_01
 10
625.0707261348982
 20
3553.173153769586
 30
0.0
  0
VERTEX
  5
3CE
  8
LAYER_01
 10
598.9640080813178
 20
3553.173153769586
 30
0.0
  0
VERTEX
  5
3CF
  8
LAYER_01
 10
598.9640080813177
 20
3463.738778072406
 30
0.0
  0
VERTEX
  5
3D0
  8
LAYER_01
 10
625.0707261348982
 20
3463.738778072406
 30
0.0
  0
SEQEND
  5
3D1
  8
LAYER_01
  0
POLYLINE
  5
3D2
  8
LAYER_01
 66
     1
 10
0.0
 20
0.0
 30
0.0
 70
     1
  0
VERTEX
  5
3D3
  8
LAYER_01
 10
472.4040611772735
 20
3463.738778072406
 30
0.0
  0
VERTEX
  5
3D4
  8
LAYER_01
 10
502.647908980824
 20
3463.738778072406
 30
0.0
  0
VERTEX
  5
3D5
  8
LAYER_01
 10
502.647908980824
 20
3553.173153769586
 30
0.0
  0
VERTEX
  5
3D6
  8
LAYER_01
 10
472.4040611772735
 20
3553.173153769586
 30
0.0
  0
SEQEND
  5
3D7
  8
LAYER_01
  0
POLYLINE
  5
3D8
  8
LAYER_01
 66
     1
 10
0.0
 20
0.0
 30
0.0
 70
     1
  0
VERTEX
  5
3D9
  8
LAYER_01
 10
707.4040611772734
 20
3553.173153769586
 30
0.0
  0
VERTEX
  5
3DA
  8
LAYER_01
 10
640.5334078924125
 20
3553.173153769586
 30
0.0
  0
VERTEX
  5
3DB
  8
LAYER_01
 10
640.5334078924125
 20
3518.314390622868
 30
0.0
  0
VERTEX
  5
3DC
  8
LAYER_01
 10
707.4040611772735
 20
3518.314390622868
 30
0.0
  0
SEQEND
  5
3DD
  8
LAYER_01
  0
POLYLINE
  5
3DE
  8
LAYER_01
 66
     1
 10
0.0
 20
0.0
 30
0.0
 70
     1
  0
VERTEX
  5
3DF
  8
LAYER_01
 10
472.4040611772735
 20
3429.585319244957
 30
0.0
  0
VERTEX
  5
3E0
  8
LAYER_01
 10
472.4040611772735
 20
3448.276096314892
 30
0.0
  0
VERTEX
  5
3E1
  8
LAYER_01
 10
544.2173087919188
 20
3448.276096314892
 30
0.0
  0
VERTEX
  5
3E2
  8
LAYER_01
 10
544.2173087919188
 20
3410.894542175022
 30
0.0
  0
VERTEX
  5
3E3
  8
LAYER_01
 10
472.4040611772735
 20
3410.894542175022
 30
0.0
  0
SEQEND
  5
3E4
  8
LAYER_01
  0
POLYLINE
  5
3E5
  8
LAYER_01
 66
     1
 10
0.0
 20
0.0
 30
0.0
 70
     1
  0
VERTEX
  5
3E6
  8
LAYER_01
 10
559.679990549433
 20
3429.585319244957
 30
0.0
  0
VERTEX
  5
3E7
  8
LAYER_01
 10
559.679990549433
 20
3502.851708865353
 30
0.0
  0
VERTEX
  5
3E8
  8
LAYER_01
 10
583.5013263238035
 20
3502.851708865353
 30
0.0
  0
VERTEX
  5
3E9
  8
LAYER_01
 10
583.5013263238035
 20
3356.318929624561
 30
0.0
  0
VERTEX
  5
3EA
  8
LAYER_01
 10
559.679990549433
 20
3356.318929624561
 30
0.0
  0
SEQEND
  5
3EB
  8
LAYER_01
  0
POLYLINE
  5
3EC
  8
LAYER_01
 66
     1
 10
0.0
 20
0.0
 30
0.0
 70
     1
  0
VERTEX
  5
3ED
  8
LAYER_01
 10
598.9640080813178
 20
3429.585319244957
 30
0.0
  0
VERTEX
  5
3EE
  8
LAYER_01
 10
598.9640080813178
 20
3448.276096314892
 30
0.0
  0
VERTEX
  5
3EF
  8
LAYER_01
 10
670.777255695963
 20
3448.276096314892
 30
0.0
  0
VERTEX
  5
3F0
  8
LAYER_01
 10
670.777255695963
 20
3410.894542175022
 30
0.0
  0
VERTEX
  5
3F1
  8
LAYER_01
 10
598.9640080813178
 20
3410.894542175022
 30
0.0
  0
SEQEND
  5
3F2
  8
LAYER_01
  0
POLYLINE
  5
3F3
  8
LAYER_01
 66
     1
 10
0.0
 20
0.0
 30
0.0
 70
     1
  0
VERTEX
  5
3F4
  8
LAYER_01
 10
686.2399374534773
 20
3429.585319244957
 30
0.0
  0
VERTEX
  5
3F5
  8
LAYER_01
 10
686.2399374534773
 20
3502.851708865353
 30
0.0
  0
VERTEX
  5
3F6
  8
LAYER_01
 10
707.4040611772735
 20
3502.851708865353
 30
0.0
  0
VERTEX
  5
3F7
  8
LAYER_01
 10
707.4040611772735
 20
3356.318929624561
 30
0.0
  0
VERTEX
  5
3F8
  8
LAYER_01
 10
686.2399374534773
 20
3356.318929624561
 30
0.0
  0
SEQEND
  5
3F9
  8
LAYER_01
  0
POLYLINE
  5
3FA
  8
LAYER_01
 66
     1
 10
0.0
 20
0.0
 30
0.0
 70
     1
  0
VERTEX
  5
3FB
  8
LAYER_01
 10
518.1105907383383
 20
3568.635835527121
 30
0.0
  0
VERTEX
  5
3FC
  8
LAYER_01
 10
583.5013263238036
 20
3568.635835527121
 30
0.0
  0
VERTEX
  5
3FD
  8
LAYER_01
 10
583.5013263238035
 20
3603.494598673839
 30
0.0
  0
VERTEX
  5
3FE
  8
LAYER_01
 10
518.1105907383383
 20
3603.494598673839
 30
0.0
  0
SEQEND
  5
3FF
  8
LAYER_01
  0
POLYLINE
  5
400
  8
LAYER_01
 66
     1
 10
0.0
 20
0.0
 30
0.0
 70
     1
  0
VERTEX
  5
401
  8
LAYER_01
 10
518.1105907383383
 20
3658.070211224301
 30
0.0
  0
VERTEX
  5
402
  8
LAYER_01
 10
518.1105907383383
 20
3618.957280431353
 30
0.0
  0
VERTEX
  5
403
  8
LAYER_01
 10
544.2173087919188
 20
3618.957280431353
 30
0.0
  0
VERTEX
  5
404
  8
LAYER_01
 10
544.2173087919189
 20
3658.070211224301
 30
0.0
  0
SEQEND
  5
405
  8
LAYER_01
  0
POLYLINE
  5
406
  8
LAYER_01
 66
     1
 10
0.0
 20
0.0
 30
0.0
 70
     1
  0
VERTEX
  5
407
  8
LAYER_01
 10
670.777255695963
 20
3618.957280431353
 30
0.0
  0
VERTEX
  5
408
  8
LAYER_01
 10
640.5334078924125
 20
3618.957280431353
 30
0.0
  0
VERTEX
  5
409
  8
LAYER_01
 10
640.5334078924125
 20
3658.070211224301
 30
0.0
  0
VERTEX
  5
40A
  8
LAYER_01
 10
670.777255695963
 20
3658.070211224301
 30
0.0
  0
SEQEND
  5
40B
  8
LAYER_01
  0
POLYLINE
  5
40C
  8
LAYER_01
 66
     1
 10
0.0
 20
0.0
 30
0.0
 70
     1
  0
VERTEX
  5
40D
  8
LAYER_01
 10
625.0707261348982
 20
3568.635835527121
 30
0.0
  0
VERTEX
  5
40E
  8
LAYER_01
 10
598.9640080813178
 20
3568.635835527121
 30
0.0
  0
VERTEX
  5
40F
  8
LAYER_01
 10
598.9640080813177
 20
3658.070211224301
 30
0.0
  0
VERTEX
  5
410
  8
LAYER_01
 10
625.0707261348982
 20
3658.070211224301
 30
0.0
  0
SEQEND
  5
411
  8
LAYER_01
  0
POLYLINE
  5
412
  8
LAYER_01
 66
     1
 10
0.0
 20
0.0
 30
0.0
 70
     1
  0
VERTEX
  5
413
  8
LAYER_01
 10
472.4040611772735
 20
3658.070211224301
 30
0.0
  0
VERTEX
  5
414
  8
LAYER_01
 10
502.647908980824
 20
3658.070211224301
 30
0.0
  0
VERTEX
  5
415
  8
LAYER_01
 10
502.647908980824
 20
3568.635835527121
 30
0.0
  0
VERTEX
  5
416
  8
LAYER_01
 10
472.4040611772735
 20
3568.635835527121
 30
0.0
  0
SEQEND
  5
417
  8
LAYER_01
  0
POLYLINE
  5
418
  8
LAYER_01
 66
     1
 10
0.0
 20
0.0
 30
0.0
 70
     1
  0
VERTEX
  5
419
  8
LAYER_01
 10
707.4040611772734
 20
3568.635835527121
 30
0.0
  0
VERTEX
  5
41A
  8
LAYER_01
 10
640.5334078924125
 20
3568.635835527121
 30
0.0
  0
VERTEX
  5
41B
  8
LAYER_01
 10
640.5334078924125
 20
3603.494598673839
 30
0.0
  0
VERTEX
  5
41C
  8
LAYER_01
 10
707.4040611772735
 20
3603.494598673839
 30
0.0
  0
SEQEND
  5
41D
  8
LAYER_01
  0
POLYLINE
  5
41E
  8
LAYER_01
 66
     1
 10
0.0
 20
0.0
 30
0.0
 70
     1
  0
VERTEX
  5
41F
  8
LAYER_01
 10
518.1105907383383
 20
3815.811504576378
 30
0.0
  0
VERTEX
  5
420
  8
LAYER_01
 10
583.5013263238036
 20
3815.811504576378
 30
0.0
  0
VERTEX
  5
421
  8
LAYER_01
 10
583.5013263238035
 20
3780.95274142966
 30
0.0
  0
VERTEX
  5
422
  8
LAYER_01
 10
518.1105907383383
 20
3780.95274142966
 30
0.0
  0
SEQEND
  5
423
  8
LAYER_01
  0
POLYLINE
  5
424
  8
LAYER_01
 66
     1
 10
0.0
 20
0.0
 30
0.0
 70
     1
  0
VERTEX
  5
425
  8
LAYER_01
 10
518.1105907383383
 20
3726.377128879198
 30
0.0
  0
VERTEX
  5
426
  8
LAYER_01
 10
518.1105907383383
 20
3765.490059672146
 30
0.0
  0
VERTEX
  5
427
  8
LAYER_01
 10
544.2173087919188
 20
3765.490059672146
 30
0.0
  0
VERTEX
  5
428
  8
LAYER_01
 10
544.2173087919189
 20
3726.377128879199
 30
0.0
  0
SEQEND
  5
429
  8
LAYER_01
  0
POLYLINE
  5
42A
  8
LAYER_01
 66
     1
 10
0.0
 20
0.0
 30
0.0
 70
     1
  0
VERTEX
  5
42B
  8
LAYER_01
 10
670.777255695963
 20
3765.490059672146
 30
0.0
  0
VERTEX
  5
42C
  8
LAYER_01
 10
640.5334078924125
 20
3765.490059672146
 30
0.0
  0
VERTEX
  5
42D
  8
LAYER_01
 10
640.5334078924125
 20
3726.377128879199
 30
0.0
  0
VERTEX
  5
42E
  8
LAYER_01
 10
670.777255695963
 20
3726.377128879199
 30
0.0
  0
SEQEND
  5
42F
  8
LAYER_01
  0
POLYLINE
  5
430
  8
LAYER_01
 66
     1
 10
0.0
 20
0.0
 30
0.0
 70
     1
  0
VERTEX
  5
431
  8
LAYER_01
 10
625.0707261348982
 20
3815.811504576378
 30
0.0
  0
VERTEX
  5
432
  8
LAYER_01
 10
598.9640080813178
 20
3815.811504576378
 30
0.0
  0
VERTEX
  5
433
  8
LAYER_01
 10
598.9640080813177
 20
3726.377128879199
 30
0.0
  0
VERTEX
  5
434
  8
LAYER_01
 10
625.0707261348982
 20
3726.377128879199
 30
0.0
  0
SEQEND
  5
435
  8
LAYER_01
  0
POLYLINE
  5
436
  8
LAYER_01
 66
     1
 10
0.0
 20
0.0
 30
0.0
 70
     1
  0
VERTEX
  5
437
  8
LAYER_01
 10
472.4040611772735
 20
3726.377128879199
 30
0.0
  0
VERTEX
  5
438
  8
LAYER_01
 10
502.647908980824
 20
3726.377128879199
 30
0.0
  0
VERTEX
  5
439
  8
LAYER_01
 10
502.647908980824
 20
3815.811504576378
 30
0.0
  0
VERTEX
  5
43A
  8
LAYER_01
 10
472.4040611772735
 20
3815.811504576378
 30
0.0
  0
SEQEND
  5
43B
  8
LAYER_01
  0
POLYLINE
  5
43C
  8
LAYER_01
 66
     1
 10
0.0
 20
0.0
 30
0.0
 70
     1
  0
VERTEX
  5
43D
  8
LAYER_01
 10
707.4040611772734
 20
3815.811504576378
 30
0.0
  0
VERTEX
  5
43E
  8
LAYER_01
 10
640.5334078924125
 20
3815.811504576378
 30
0.0
  0
VERTEX
  5
43F
  8
LAYER_01
 10
640.5334078924125
 20
3780.95274142966
 30
0.0
  0
VERTEX
  5
440
  8
LAYER_01
 10
707.4040611772735
 20
3780.95274142966
 30
0.0
  0
SEQEND
  5
441
  8
LAYER_01
  0
POLYLINE
  5
442
  8
LAYER_01
 66
     1
 10
0.0
 20
0.0
 30
0.0
 70
     1
  0
VERTEX
  5
443
  8
LAYER_01
 10
472.4040611772735
 20
3692.22367005175
 30
0.0
  0
VERTEX
  5
444
  8
LAYER_01
 10
472.4040611772735
 20
3710.914447121685
 30
0.0
  0
VERTEX
  5
445
  8
LAYER_01
 10
544.2173087919188
 20
3710.914447121685
 30
0.0
  0
VERTEX
  5
446
  8
LAYER_01
 10
544.2173087919188
 20
3673.532892981815
 30
0.0
  0
VERTEX
  5
447
  8
LAYER_01
 10
472.4040611772735
 20
3673.532892981815
 30
0.0
  0
SEQEND
  5
448
  8
LAYER_01
  0
POLYLINE
  5
449
  8
LAYER_01
 66
     1
 10
0.0
 20
0.0
 30
0.0
 70
     1
  0
VERTEX
  5
44A
  8
LAYER_01
 10
559.679990549433
 20
3692.22367005175
 30
0.0
  0
VERTEX
  5
44B
  8
LAYER_01
 10
559.679990549433
 20
3765.490059672146
 30
0.0
  0
VERTEX
  5
44C
  8
LAYER_01
 10
583.5013263238035
 20
3765.490059672146
 30
0.0
  0
VERTEX
  5
44D
  8
LAYER_01
 10
583.5013263238035
 20
3618.957280431353
 30
0.0
  0
VERTEX
  5
44E
  8
LAYER_01
 10
559.679990549433
 20
3618.957280431353
 30
0.0
  0
SEQEND
  5
44F
  8
LAYER_01
  0
POLYLINE
  5
450
  8
LAYER_01
 66
     1
 10
0.0
 20
0.0
 30
0.0
 70
     1
  0
VERTEX
  5
451
  8
LAYER_01
 10
598.9640080813178
 20
3692.22367005175
 30
0.0
  0
VERTEX
  5
452
  8
LAYER_01
 10
598.9640080813178
 20
3710.914447121685
 30
0.0
  0
VERTEX
  5
453
  8
LAYER_01
 10
670.777255695963
 20
3710.914447121685
 30
0.0
  0
VERTEX
  5
454
  8
LAYER_01
 10
670.777255695963
 20
3673.532892981815
 30
0.0
  0
VERTEX
  5
455
  8
LAYER_01
 10
598.9640080813178
 20
3673.532892981815
 30
0.0
  0
SEQEND
  5
456
  8
LAYER_01
  0
POLYLINE
  5
457
  8
LAYER_01
 66
     1
 10
0.0
 20
0.0
 30
0.0
 70
     1
  0
VERTEX
  5
458
  8
LAYER_01
 10
686.2399374534773
 20
3692.223670051749
 30
0.0
  0
VERTEX
  5
459
  8
LAYER_01
 10
686.2399374534773
 20
3765.490059672146
 30
0.0
  0
VERTEX
  5
45A
  8
LAYER_01
 10
707.4040611772735
 20
3765.490059672146
 30
0.0
  0
VERTEX
  5
45B
  8
LAYER_01
 10
707.4040611772735
 20
3618.957280431353
 30
0.0
  0
VERTEX
  5
45C
  8
LAYER_01
 10
686.2399374534773
 20
3618.957280431353
 30
0.0
  0
SEQEND
  5
45D
  8
LAYER_01
  0
ENDSEC
  0
EOF
