  0
SECTION
  2
HEADER
  9
$ACADVER
  1
AC1009
  9
$DWGCODEPAGE
  3
ansi_1252
  9
$INSBASE
 10
0.0
 20
0.0
 30
0.0
  9
$EXTMIN
 10
1.000000000000000E+20
 20
1.000000000000000E+20
 30
1.000000000000000E+20
  9
$EXTMAX
 10
-1.000000000000000E+20
 20
-1.000000000000000E+20
 30
-1.000000000000000E+20
  9
$LIMMIN
 10
0.0
 20
0.0
  9
$LIMMAX
 10
12.0
 20
9.0
  9
$ORTHOMODE
 70
     0
  9
$REGENMODE
 70
     1
  9
$FILLMODE
 70
     1
  9
$QTEXTMODE
 70
     0
  9
$MIRRTEXT
 70
     1
  9
$DRAGMODE
 70
     2
  9
$LTSCALE
 40
1.0
  9
$OSMODE
 70
    37
  9
$ATTMODE
 70
     1
  9
$TEXTSIZE
 40
0.2
  9
$TRACEWID
 40
0.05
  9
$TEXTSTYLE
  7
STANDARD
  9
$CLAYER
  8
LAYER_01
  9
$CELTYPE
  6
BYLAYER
  9
$CECOLOR
 62
   256
  9
$DIMSCALE
 40
1.0
  9
$DIMASZ
 40
0.18
  9
$DIMEXO
 40
0.0625
  9
$DIMDLI
 40
0.38
  9
$DIMRND
 40
0.0
  9
$DIMDLE
 40
0.0
  9
$DIMEXE
 40
0.18
  9
$DIMTP
 40
0.0
  9
$DIMTM
 40
0.0
  9
$DIMTXT
 40
0.18
  9
$DIMCEN
 40
0.09
  9
$DIMTSZ
 40
0.0
  9
$DIMTOL
 70
     0
  9
$DIMLIM
 70
     0
  9
$DIMTIH
 70
     1
  9
$DIMTOH
 70
     1
  9
$DIMSE1
 70
     0
  9
$DIMSE2
 70
     0
  9
$DIMTAD
 70
     0
  9
$DIMZIN
 70
     0
  9
$DIMBLK
  1

  9
$DIMASO
 70
     1
  9
$DIMSHO
 70
     1
  9
$DIMPOST
  1

  9
$DIMAPOST
  1

  9
$DIMALT
 70
     0
  9
$DIMALTD
 70
     2
  9
$DIMALTF
 40
25.4
  9
$DIMLFAC
 40
1.0
  9
$DIMTOFL
 70
     0
  9
$DIMTVP
 40
0.0
  9
$DIMTIX
 70
     0
  9
$DIMSOXD
 70
     0
  9
$DIMSAH
 70
     0
  9
$DIMBLK1
  1

  9
$DIMBLK2
  1

  9
$DIMSTYLE
  2
STANDARD_ACAD
  9
$DIMCLRD
 70
     0
  9
$DIMCLRE
 70
     0
  9
$DIMCLRT
 70
     0
  9
$DIMTFAC
 40
1.0
  9
$DIMGAP
 40
0.09
  9
$LUNITS
 70
     2
  9
$LUPREC
 70
     3
  9
$SKETCHINC
 40
0.1
  9
$FILLETRAD
 40
0.5
  9
$AUNITS
 70
     0
  9
$AUPREC
 70
     0
  9
$MENU
  1
.
  9
$ELEVATION
 40
0.0
  9
$PELEVATION
 40
0.0
  9
$THICKNESS
 40
0.0
  9
$LIMCHECK
 70
     0
  9
$CHAMFERA
 40
0.0
  9
$CHAMFERB
 40
0.0
  9
$SKPOLY
 70
     0
  9
$TDCREATE
 40
2459783.927495787
  9
$TDUPDATE
 40
2459783.927495961
  9
$TDINDWG
 40
0.0000000116
  9
$TDUSRTIMER
 40
0.0000000116
  9
$USRTIMER
 70
     1
  9
$ANGBASE
 50
0.0
  9
$ANGDIR
 70
     0
  9
$PDMODE
 70
     0
  9
$PDSIZE
 40
0.0
  9
$PLINEWID
 40
0.0
  9
$COORDS
 70
     1
  9
$SPLFRAME
 70
     0
  9
$SPLINETYPE
 70
     6
  9
$SPLINESEGS
 70
     8
  9
$ATTDIA
 70
     0
  9
$ATTREQ
 70
     1
  9
$HANDLING
 70
     1
  9
$HANDSEED
  5
483
  9
$SURFTAB1
 70
     6
  9
$SURFTAB2
 70
     6
  9
$SURFTYPE
 70
     6
  9
$SURFU
 70
     6
  9
$SURFV
 70
     6
  9
$UCSNAME
  2

  9
$UCSORG
 10
0.0
 20
0.0
 30
0.0
  9
$UCSXDIR
 10
1.0
 20
0.0
 30
0.0
  9
$UCSYDIR
 10
0.0
 20
1.0
 30
0.0
  9
$PUCSNAME
  2

  9
$PUCSORG
 10
0.0
 20
0.0
 30
0.0
  9
$PUCSXDIR
 10
1.0
 20
0.0
 30
0.0
  9
$PUCSYDIR
 10
0.0
 20
1.0
 30
0.0
  9
$USERI1
 70
     0
  9
$USERI2
 70
     0
  9
$USERI3
 70
     0
  9
$USERI4
 70
     0
  9
$USERI5
 70
     0
  9
$USERR1
 40
0.0
  9
$USERR2
 40
0.0
  9
$USERR3
 40
0.0
  9
$USERR4
 40
0.0
  9
$USERR5
 40
0.0
  9
$WORLDVIEW
 70
     1
  9
$SHADEDGE
 70
     3
  9
$SHADEDIF
 70
    70
  9
$TILEMODE
 70
     1
  9
$MAXACTVP
 70
    64
  9
$PLIMCHECK
 70
     0
  9
$PEXTMIN
 10
1.000000000000000E+20
 20
1.000000000000000E+20
 30
1.000000000000000E+20
  9
$PEXTMAX
 10
-1.000000000000000E+20
 20
-1.000000000000000E+20
 30
-1.000000000000000E+20
  9
$PLIMMIN
 10
0.0
 20
0.0
  9
$PLIMMAX
 10
12.0
 20
9.0
  9
$UNITMODE
 70
     0
  9
$VISRETAIN
 70
     1
  9
$PLINEGEN
 70
     0
  9
$PSLTSCALE
 70
     1
  0
ENDSEC
  0
SECTION
  2
TABLES
  0
TABLE
  2
VPORT
 70
     1
  0
VPORT
  2
*ACTIVE
 70
     0
 10
0.0
 20
0.0
 11
1.0
 21
1.0
 12
10.42990654205607
 22
4.5
 13
0.0
 23
0.0
 14
0.5
 24
0.5
 15
0.5
 25
0.5
 16
0.0
 26
0.0
 36
1.0
 17
0.0
 27
0.0
 37
0.0
 40
9.0
 41
1.972972972850329
 42
50.0
 43
0.0
 44
0.0
 50
0.0
 51
0.0
 71
     0
 72
   100
 73
     1
 74
     3
 75
     0
 76
     0
 77
     0
 78
     0
  0
ENDTAB
  0
TABLE
  2
LTYPE
 70
     1
  0
LTYPE
  2
CONTINUOUS
 70
     0
  3
Solid line
 72
    65
 73
     0
 40
0.0
  0
ENDTAB
  0
TABLE
  2
LAYER
 70
     2
  0
LAYER
  2
0
 70
     0
 62
     7
  6
CONTINUOUS
  0
LAYER
  2
LAYER_01
 70
     0
 62
     7
  6
CONTINUOUS
  0
ENDTAB
  0
TABLE
  2
STYLE
 70
     1
  0
STYLE
  2
STANDARD
 70
     0
 40
0.0
 41
1.0
 50
0.0
 71
     0
 42
0.2
  3
txt
  4

  0
ENDTAB
  0
TABLE
  2
VIEW
 70
     0
  0
ENDTAB
  0
TABLE
  2
UCS
 70
     0
  0
ENDTAB
  0
TABLE
  2
APPID
 70
     2
  0
APPID
  2
ACAD
 70
     0
  0
APPID
  2
RHINO
 70
     0
  0
ENDTAB
  0
TABLE
  2
DIMSTYLE
 70
     1
  0
DIMSTYLE
  2
STANDARD_ACAD
 70
     0
  3

  4

  5

  6

  7

 40
1.0
 41
0.18
 42
0.0625
 43
0.38
 44
0.18
 45
0.0
 46
0.0
 47
0.0
 48
0.0
140
0.18
141
0.09
142
0.0
143
25.4
144
1.0
145
0.0
146
1.0
147
0.09
 71
     0
 72
     0
 73
     1
 74
     1
 75
     0
 76
     0
 77
     0
 78
     0
170
     0
171
     2
172
     0
173
     0
174
     0
175
     0
176
     0
177
     0
178
     0
  0
ENDTAB
  0
ENDSEC
  0
SECTION
  2
BLOCKS
  0
BLOCK
  8
0
  2
$MODEL_SPACE
 70
     0
 10
0.0
 20
0.0
 30
0.0
  3
$MODEL_SPACE
  1

  0
ENDBLK
  5
21
  8
0
  0
BLOCK
 67
     1
  8
0
  2
$PAPER_SPACE
 70
     0
 10
0.0
 20
0.0
 30
0.0
  3
$PAPER_SPACE
  1

  0
ENDBLK
  5
1D
 67
     1
  8
0
  0
ENDSEC
  0
SECTION
  2
ENTITIES
  0
POLYLINE
  5
70
  8
LAYER_01
 66
     1
 10
0.0
 20
0.0
 30
0.0
 70
     1
  0
VERTEX
  5
71
  8
LAYER_01
 10
329.585727334006
 20
286.8469021517863
 30
0.0
  0
VERTEX
  5
72
  8
LAYER_01
 10
435.5080366231748
 20
286.8469021517863
 30
0.0
  0
VERTEX
  5
73
  8
LAYER_01
 10
435.5080366231748
 20
390.7692114409559
 30
0.0
  0
VERTEX
  5
74
  8
LAYER_01
 10
329.585727334006
 20
390.7692114409559
 30
0.0
  0
SEQEND
  5
75
  8
LAYER_01
  0
POLYLINE
  5
76
  8
LAYER_01
 66
     1
 10
0.0
 20
0.0
 30
0.0
 70
     1
  0
VERTEX
  5
77
  8
LAYER_01
 10
330.585727334006
 20
287.8469021517863
 30
0.0
  0
VERTEX
  5
78
  8
LAYER_01
 10
434.5080366231748
 20
287.8469021517863
 30
0.0
  0
VERTEX
  5
79
  8
LAYER_01
 10
434.5080366231748
 20
389.7692114409559
 30
0.0
  0
VERTEX
  5
7A
  8
LAYER_01
 10
330.585727334006
 20
389.7692114409559
 30
0.0
  0
SEQEND
  5
7B
  8
LAYER_01
  0
POLYLINE
  5
7C
  8
LAYER_01
 66
     1
 10
0.0
 20
0.0
 30
0.0
 70
     1
  0
VERTEX
  5
7D
  8
LAYER_01
 10
382.5468819785902
 20
328.5131249719623
 30
0.0
  0
VERTEX
  5
7E
  8
LAYER_01
 10
378.9471850930781
 20
330.5914109378137
 30
0.0
  0
VERTEX
  5
7F
  8
LAYER_01
 10
382.5468819785904
 20
336.4236134698173
 30
0.0
  0
VERTEX
  5
80
  8
LAYER_01
 10
386.1465788641028
 20
330.5914109378137
 30
0.0
  0
SEQEND
  5
81
  8
LAYER_01
  0
POLYLINE
  5
82
  8
LAYER_01
 66
     1
 10
0.0
 20
0.0
 30
0.0
 70
     1
  0
VERTEX
  5
83
  8
LAYER_01
 10
382.5468819785902
 20
349.1029886207799
 30
0.0
  0
VERTEX
  5
84
  8
LAYER_01
 10
378.9471850930781
 20
347.0247026549284
 30
0.0
  0
VERTEX
  5
85
  8
LAYER_01
 10
382.5468819785904
 20
341.1925001229249
 30
0.0
  0
VERTEX
  5
86
  8
LAYER_01
 10
386.1465788641028
 20
347.0247026549284
 30
0.0
  0
SEQEND
  5
87
  8
LAYER_01
  0
POLYLINE
  5
88
  8
LAYER_01
 66
     1
 10
0.0
 20
0.0
 30
0.0
 70
     1
  0
VERTEX
  5
89
  8
LAYER_01
 10
382.5468819785906
 20
326.2037238952038
 30
0.0
  0
VERTEX
  5
8A
  8
LAYER_01
 10
387.1974803179966
 20
328.8887480983527
 30
0.0
  0
VERTEX
  5
8B
  8
LAYER_01
 10
390.7436479128696
 20
323.1432733310281
 30
0.0
  0
VERTEX
  5
8C
  8
LAYER_01
 10
382.5468819785904
 20
320.7574072864759
 30
0.0
  0
VERTEX
  5
8D
  8
LAYER_01
 10
374.3501160443112
 20
323.1432733310281
 30
0.0
  0
VERTEX
  5
8E
  8
LAYER_01
 10
377.8962836391843
 20
328.8887480983527
 30
0.0
  0
SEQEND
  5
8F
  8
LAYER_01
  0
POLYLINE
  5
90
  8
LAYER_01
 66
     1
 10
0.0
 20
0.0
 30
0.0
 70
     1
  0
VERTEX
  5
91
  8
LAYER_01
 10
382.5468819785906
 20
351.4123896975384
 30
0.0
  0
VERTEX
  5
92
  8
LAYER_01
 10
387.1974803179966
 20
348.7273654943895
 30
0.0
  0
VERTEX
  5
93
  8
LAYER_01
 10
390.7436479128696
 20
354.4728402617141
 30
0.0
  0
VERTEX
  5
94
  8
LAYER_01
 10
382.5468819785904
 20
356.8587063062663
 30
0.0
  0
VERTEX
  5
95
  8
LAYER_01
 10
374.3501160443112
 20
354.4728402617141
 30
0.0
  0
VERTEX
  5
96
  8
LAYER_01
 10
377.8962836391843
 20
348.7273654943895
 30
0.0
  0
SEQEND
  5
97
  8
LAYER_01
  0
POLYLINE
  5
98
  8
LAYER_01
 66
     1
 10
0.0
 20
0.0
 30
0.0
 70
     1
  0
VERTEX
  5
99
  8
LAYER_01
 10
382.5468819785903
 20
289.2313454783406
 30
0.0
  0
VERTEX
  5
9A
  8
LAYER_01
 10
378.9471850930781
 20
295.063548010344
 30
0.0
  0
VERTEX
  5
9B
  8
LAYER_01
 10
382.5468819785904
 20
297.1418339761956
 30
0.0
  0
VERTEX
  5
9C
  8
LAYER_01
 10
386.1465788641027
 20
295.063548010344
 30
0.0
  0
SEQEND
  5
9D
  8
LAYER_01
  0
POLYLINE
  5
9E
  8
LAYER_01
 66
     1
 10
0.0
 20
0.0
 30
0.0
 70
     1
  0
VERTEX
  5
9F
  8
LAYER_01
 10
382.5468819785906
 20
304.8975516616821
 30
0.0
  0
VERTEX
  5
A0
  8
LAYER_01
 10
390.7436479128697
 20
302.51168561713
 30
0.0
  0
VERTEX
  5
A1
  8
LAYER_01
 10
387.1974803179966
 20
296.7662108498051
 30
0.0
  0
VERTEX
  5
A2
  8
LAYER_01
 10
382.5468819785904
 20
299.4512350529541
 30
0.0
  0
VERTEX
  5
A3
  8
LAYER_01
 10
377.8962836391843
 20
296.7662108498051
 30
0.0
  0
VERTEX
  5
A4
  8
LAYER_01
 10
374.3501160443111
 20
302.51168561713
 30
0.0
  0
SEQEND
  5
A5
  8
LAYER_01
  0
POLYLINE
  5
A6
  8
LAYER_01
 66
     1
 10
0.0
 20
0.0
 30
0.0
 70
     1
  0
VERTEX
  5
A7
  8
LAYER_01
 10
382.5468819785903
 20
388.3847681144016
 30
0.0
  0
VERTEX
  5
A8
  8
LAYER_01
 10
378.9471850930781
 20
382.5525655823981
 30
0.0
  0
VERTEX
  5
A9
  8
LAYER_01
 10
382.5468819785904
 20
380.4742796165465
 30
0.0
  0
VERTEX
  5
AA
  8
LAYER_01
 10
386.1465788641027
 20
382.5525655823981
 30
0.0
  0
SEQEND
  5
AB
  8
LAYER_01
  0
POLYLINE
  5
AC
  8
LAYER_01
 66
     1
 10
0.0
 20
0.0
 30
0.0
 70
     1
  0
VERTEX
  5
AD
  8
LAYER_01
 10
382.5468819785906
 20
372.7185619310601
 30
0.0
  0
VERTEX
  5
AE
  8
LAYER_01
 10
390.7436479128697
 20
375.1044279756122
 30
0.0
  0
VERTEX
  5
AF
  8
LAYER_01
 10
387.1974803179966
 20
380.849902742937
 30
0.0
  0
VERTEX
  5
B0
  8
LAYER_01
 10
382.5468819785904
 20
378.164878539788
 30
0.0
  0
VERTEX
  5
B1
  8
LAYER_01
 10
377.8962836391843
 20
380.849902742937
 30
0.0
  0
VERTEX
  5
B2
  8
LAYER_01
 10
374.3501160443111
 20
375.1044279756122
 30
0.0
  0
SEQEND
  5
B3
  8
LAYER_01
  0
POLYLINE
  5
B4
  8
LAYER_01
 66
     1
 10
0.0
 20
0.0
 30
0.0
 70
     1
  0
VERTEX
  5
B5
  8
LAYER_01
 10
407.5274593008826
 20
301.911806983912
 30
0.0
  0
VERTEX
  5
B6
  8
LAYER_01
 10
407.5274593008826
 20
295.0679040370169
 30
0.0
  0
VERTEX
  5
B7
  8
LAYER_01
 10
399.9175064934532
 20
297.2829639947449
 30
0.0
  0
VERTEX
  5
B8
  8
LAYER_01
 10
403.4882569344915
 20
301.911806983912
 30
0.0
  0
SEQEND
  5
B9
  8
LAYER_01
  0
POLYLINE
  5
BA
  8
LAYER_01
 66
     1
 10
0.0
 20
0.0
 30
0.0
 70
     1
  0
VERTEX
  5
BB
  8
LAYER_01
 10
413.5666616672738
 20
301.911806983912
 30
0.0
  0
VERTEX
  5
BC
  8
LAYER_01
 10
417.1374121083121
 20
297.282963994745
 30
0.0
  0
VERTEX
  5
BD
  8
LAYER_01
 10
409.5274593008826
 20
295.067904037017
 30
0.0
  0
VERTEX
  5
BE
  8
LAYER_01
 10
409.5274593008827
 20
301.9118069839119
 30
0.0
  0
SEQEND
  5
BF
  8
LAYER_01
  0
POLYLINE
  5
C0
  8
LAYER_01
 66
     1
 10
0.0
 20
0.0
 30
0.0
  0
VERTEX
  5
C1
  8
LAYER_01
 10
434.5080366231747
 20
326.2037238952038
 30
0.0
  0
VERTEX
  5
C2
  8
LAYER_01
 10
429.8574382837687
 20
328.8887480983527
 30
0.0
  0
VERTEX
  5
C3
  8
LAYER_01
 10
426.3112706888955
 20
323.1432733310279
 30
0.0
  0
VERTEX
  5
C4
  8
LAYER_01
 10
434.5080366231747
 20
320.7574072864758
 30
0.0
  0
SEQEND
  5
C5
  8
LAYER_01
  0
POLYLINE
  5
C6
  8
LAYER_01
 66
     1
 10
0.0
 20
0.0
 30
0.0
  0
VERTEX
  5
C7
  8
LAYER_01
 10
434.5080366231747
 20
336.4236134698173
 30
0.0
  0
VERTEX
  5
C8
  8
LAYER_01
 10
430.9083397376626
 20
330.5914109378138
 30
0.0
  0
VERTEX
  5
C9
  8
LAYER_01
 10
434.5080366231747
 20
328.5131249719623
 30
0.0
  0
SEQEND
  5
CA
  8
LAYER_01
  0
POLYLINE
  5
CB
  8
LAYER_01
 66
     1
 10
0.0
 20
0.0
 30
0.0
  0
VERTEX
  5
CC
  8
LAYER_01
 10
434.5080366231748
 20
304.897551661682
 30
0.0
  0
VERTEX
  5
CD
  8
LAYER_01
 10
426.3112706888957
 20
302.5116856171298
 30
0.0
  0
VERTEX
  5
CE
  8
LAYER_01
 10
429.8574382837687
 20
296.7662108498052
 30
0.0
  0
VERTEX
  5
CF
  8
LAYER_01
 10
434.5080366231747
 20
299.451235052954
 30
0.0
  0
SEQEND
  5
D0
  8
LAYER_01
  0
POLYLINE
  5
D1
  8
LAYER_01
 66
     1
 10
0.0
 20
0.0
 30
0.0
  0
VERTEX
  5
D2
  8
LAYER_01
 10
434.5080366231747
 20
297.1418339761956
 30
0.0
  0
VERTEX
  5
D3
  8
LAYER_01
 10
430.9083397376625
 20
295.0635480103441
 30
0.0
  0
VERTEX
  5
D4
  8
LAYER_01
 10
434.5080366231747
 20
289.2313454783406
 30
0.0
  0
SEQEND
  5
D5
  8
LAYER_01
  0
POLYLINE
  5
D6
  8
LAYER_01
 66
     1
 10
0.0
 20
0.0
 30
0.0
 70
     1
  0
VERTEX
  5
D7
  8
LAYER_01
 10
393.4625544687575
 20
337.8080567963711
 30
0.0
  0
VERTEX
  5
D8
  8
LAYER_01
 10
393.4625544687572
 20
333.7688544299797
 30
0.0
  0
VERTEX
  5
D9
  8
LAYER_01
 10
398.0913974579244
 20
330.1981039889415
 30
0.0
  0
VERTEX
  5
DA
  8
LAYER_01
 10
400.3064574156524
 20
337.808056796371
 30
0.0
  0
SEQEND
  5
DB
  8
LAYER_01
  0
POLYLINE
  5
DC
  8
LAYER_01
 66
     1
 10
0.0
 20
0.0
 30
0.0
 70
     1
  0
VERTEX
  5
DD
  8
LAYER_01
 10
392.5261678141109
 20
293.6896916894963
 30
0.0
  0
VERTEX
  5
DE
  8
LAYER_01
 10
396.8979815277962
 20
297.0621663625004
 30
0.0
  0
VERTEX
  5
DF
  8
LAYER_01
 10
392.4659310569232
 20
301.494216833373
 30
0.0
  0
VERTEX
  5
E0
  8
LAYER_01
 10
388.9302789092957
 20
295.7657791166672
 30
0.0
  0
SEQEND
  5
E1
  8
LAYER_01
  0
POLYLINE
  5
E2
  8
LAYER_01
 66
     1
 10
0.0
 20
0.0
 30
0.0
 70
     1
  0
VERTEX
  5
E3
  8
LAYER_01
 10
417.1374121083121
 20
328.3719949534129
 30
0.0
  0
VERTEX
  5
E4
  8
LAYER_01
 10
413.5666616672738
 20
323.7431519642458
 30
0.0
  0
VERTEX
  5
E5
  8
LAYER_01
 10
409.5274593008827
 20
323.7431519642458
 30
0.0
  0
VERTEX
  5
E6
  8
LAYER_01
 10
409.5274593008826
 20
330.5870549111409
 30
0.0
  0
SEQEND
  5
E7
  8
LAYER_01
  0
POLYLINE
  5
E8
  8
LAYER_01
 66
     1
 10
0.0
 20
0.0
 30
0.0
 70
     1
  0
VERTEX
  5
E9
  8
LAYER_01
 10
398.3121950901692
 20
327.1785790232844
 30
0.0
  0
VERTEX
  5
EA
  8
LAYER_01
 10
393.8801446192963
 20
322.7465285524119
 30
0.0
  0
VERTEX
  5
EB
  8
LAYER_01
 10
399.6085823360023
 20
319.2108764047841
 30
0.0
  0
VERTEX
  5
EC
  8
LAYER_01
 10
401.6846697631734
 20
322.8067653095995
 30
0.0
  0
SEQEND
  5
ED
  8
LAYER_01
  0
POLYLINE
  5
EE
  8
LAYER_01
 66
     1
 10
0.0
 20
0.0
 30
0.0
 70
     1
  0
VERTEX
  5
EF
  8
LAYER_01
 10
428.1246396924695
 20
329.8891798314907
 30
0.0
  0
VERTEX
  5
F0
  8
LAYER_01
 10
424.5287507876542
 20
331.9652672586615
 30
0.0
  0
VERTEX
  5
F1
  8
LAYER_01
 10
420.1569370739691
 20
328.5927925856575
 30
0.0
  0
VERTEX
  5
F2
  8
LAYER_01
 10
424.588987544842
 20
324.1607421147849
 30
0.0
  0
SEQEND
  5
F3
  8
LAYER_01
  0
POLYLINE
  5
F4
  8
LAYER_01
 66
     1
 10
0.0
 20
0.0
 30
0.0
 70
     1
  0
VERTEX
  5
F5
  8
LAYER_01
 10
418.8223911252915
 20
312.8274794740789
 30
0.0
  0
VERTEX
  5
F6
  8
LAYER_01
 10
416.7441051594399
 20
316.4271763595912
 30
0.0
  0
VERTEX
  5
F7
  8
LAYER_01
 10
410.9119026274364
 20
312.8274794740789
 30
0.0
  0
VERTEX
  5
F8
  8
LAYER_01
 10
416.7441051594399
 20
309.2277825885667
 30
0.0
  0
SEQEND
  5
F9
  8
LAYER_01
  0
POLYLINE
  5
FA
  8
LAYER_01
 66
     1
 10
0.0
 20
0.0
 30
0.0
 70
     1
  0
VERTEX
  5
FB
  8
LAYER_01
 10
424.1922427662256
 20
321.024245408358
 30
0.0
  0
VERTEX
  5
FC
  8
LAYER_01
 10
418.446767998901
 20
317.478077813485
 30
0.0
  0
VERTEX
  5
FD
  8
LAYER_01
 10
421.13179220205
 20
312.8274794740789
 30
0.0
  0
VERTEX
  5
FE
  8
LAYER_01
 10
418.446767998901
 20
308.1768811346728
 30
0.0
  0
VERTEX
  5
FF
  8
LAYER_01
 10
424.1922427662257
 20
304.6307135397998
 30
0.0
  0
VERTEX
  5
100
  8
LAYER_01
 10
426.5781088107778
 20
312.8274794740788
 30
0.0
  0
SEQEND
  5
101
  8
LAYER_01
  0
POLYLINE
  5
102
  8
LAYER_01
 66
     1
 10
0.0
 20
0.0
 30
0.0
 70
     1
  0
VERTEX
  5
103
  8
LAYER_01
 10
384.042664566204
 20
287.8469021517863
 30
0.0
  0
VERTEX
  5
104
  8
LAYER_01
 10
391.4625544687573
 20
287.8469021517865
 30
0.0
  0
VERTEX
  5
105
  8
LAYER_01
 10
391.4625544687573
 20
291.9943680639913
 30
0.0
  0
VERTEX
  5
106
  8
LAYER_01
 10
387.8793774554019
 20
294.0631162772061
 30
0.0
  0
SEQEND
  5
107
  8
LAYER_01
  0
POLYLINE
  5
108
  8
LAYER_01
 66
     1
 10
0.0
 20
0.0
 30
0.0
 70
     1
  0
VERTEX
  5
109
  8
LAYER_01
 10
399.6085823360022
 20
306.4440825433737
 30
0.0
  0
VERTEX
  5
10A
  8
LAYER_01
 10
401.6846697631732
 20
302.8481936385584
 30
0.0
  0
VERTEX
  5
10B
  8
LAYER_01
 10
398.3121950901692
 20
298.4763799248734
 30
0.0
  0
VERTEX
  5
10C
  8
LAYER_01
 10
393.8801446192962
 20
302.9084303957461
 30
0.0
  0
SEQEND
  5
10D
  8
LAYER_01
  0
POLYLINE
  5
10E
  8
LAYER_01
 66
     1
 10
0.0
 20
0.0
 30
0.0
 70
     1
  0
VERTEX
  5
10F
  8
LAYER_01
 10
398.6081506028642
 20
308.1768811346728
 30
0.0
  0
VERTEX
  5
110
  8
LAYER_01
 10
392.8626758355397
 20
304.6307135397998
 30
0.0
  0
VERTEX
  5
111
  8
LAYER_01
 10
390.4768097909874
 20
312.827479474079
 30
0.0
  0
VERTEX
  5
112
  8
LAYER_01
 10
392.8626758355396
 20
321.0242454083581
 30
0.0
  0
VERTEX
  5
113
  8
LAYER_01
 10
398.6081506028643
 20
317.478077813485
 30
0.0
  0
VERTEX
  5
114
  8
LAYER_01
 10
395.9231263997153
 20
312.8274794740789
 30
0.0
  0
SEQEND
  5
115
  8
LAYER_01
  0
POLYLINE
  5
116
  8
LAYER_01
 66
     1
 10
0.0
 20
0.0
 30
0.0
 70
     1
  0
VERTEX
  5
117
  8
LAYER_01
 10
400.3108134423254
 20
309.2277825885666
 30
0.0
  0
VERTEX
  5
118
  8
LAYER_01
 10
398.2325274764738
 20
312.8274794740789
 30
0.0
  0
VERTEX
  5
119
  8
LAYER_01
 10
400.3108134423254
 20
316.4271763595912
 30
0.0
  0
VERTEX
  5
11A
  8
LAYER_01
 10
406.1430159743289
 20
312.8274794740789
 30
0.0
  0
SEQEND
  5
11B
  8
LAYER_01
  0
POLYLINE
  5
11C
  8
LAYER_01
 66
     1
 10
0.0
 20
0.0
 30
0.0
 70
     1
  0
VERTEX
  5
11D
  8
LAYER_01
 10
401.3112451754633
 20
307.4949839972675
 30
0.0
  0
VERTEX
  5
11E
  8
LAYER_01
 10
407.5274593008826
 20
311.3316968864652
 30
0.0
  0
VERTEX
  5
11F
  8
LAYER_01
 10
407.5274593008826
 20
303.911806983912
 30
0.0
  0
VERTEX
  5
120
  8
LAYER_01
 10
403.3799933886782
 20
303.911806983912
 30
0.0
  0
SEQEND
  5
121
  8
LAYER_01
  0
POLYLINE
  5
122
  8
LAYER_01
 66
     1
 10
0.0
 20
0.0
 30
0.0
 70
     1
  0
VERTEX
  5
123
  8
LAYER_01
 10
401.3112451754633
 20
318.1599749508904
 30
0.0
  0
VERTEX
  5
124
  8
LAYER_01
 10
407.5274593008826
 20
314.3232620616928
 30
0.0
  0
VERTEX
  5
125
  8
LAYER_01
 10
407.5274593008826
 20
321.7431519642457
 30
0.0
  0
VERTEX
  5
126
  8
LAYER_01
 10
403.3799933886783
 20
321.7431519642458
 30
0.0
  0
SEQEND
  5
127
  8
LAYER_01
  0
POLYLINE
  5
128
  8
LAYER_01
 66
     1
 10
0.0
 20
0.0
 30
0.0
 70
     1
  0
VERTEX
  5
129
  8
LAYER_01
 10
409.5274593008826
 20
314.3232620616927
 30
0.0
  0
VERTEX
  5
12A
  8
LAYER_01
 10
409.5274593008826
 20
321.7431519642458
 30
0.0
  0
VERTEX
  5
12B
  8
LAYER_01
 10
413.6749252130871
 20
321.7431519642458
 30
0.0
  0
VERTEX
  5
12C
  8
LAYER_01
 10
415.7436734263019
 20
318.1599749508904
 30
0.0
  0
SEQEND
  5
12D
  8
LAYER_01
  0
POLYLINE
  5
12E
  8
LAYER_01
 66
     1
 10
0.0
 20
0.0
 30
0.0
 70
     1
  0
VERTEX
  5
12F
  8
LAYER_01
 10
407.5274593008826
 20
332.6700567026674
 30
0.0
  0
VERTEX
  5
130
  8
LAYER_01
 10
407.5274593008826
 20
337.808056796371
 30
0.0
  0
VERTEX
  5
131
  8
LAYER_01
 10
402.389459207179
 20
337.808056796371
 30
0.0
  0
VERTEX
  5
132
  8
LAYER_01
 10
400.2798754605815
 20
330.5604729560698
 30
0.0
  0
SEQEND
  5
133
  8
LAYER_01
  0
POLYLINE
  5
134
  8
LAYER_01
 66
     1
 10
0.0
 20
0.0
 30
0.0
 70
     1
  0
VERTEX
  5
135
  8
LAYER_01
 10
409.5274593008826
 20
332.6700567026674
 30
0.0
  0
VERTEX
  5
136
  8
LAYER_01
 10
416.7750431411839
 20
330.5604729560699
 30
0.0
  0
VERTEX
  5
137
  8
LAYER_01
 10
414.6654593945863
 20
337.8080567963711
 30
0.0
  0
VERTEX
  5
138
  8
LAYER_01
 10
409.5274593008827
 20
337.808056796371
 30
0.0
  0
SEQEND
  5
139
  8
LAYER_01
  0
POLYLINE
  5
13A
  8
LAYER_01
 66
     1
 10
0.0
 20
0.0
 30
0.0
 70
     1
  0
VERTEX
  5
13B
  8
LAYER_01
 10
429.1755411463633
 20
331.5918426709518
 30
0.0
  0
VERTEX
  5
13C
  8
LAYER_01
 10
433.0122540355612
 20
337.8080567963715
 30
0.0
  0
VERTEX
  5
13D
  8
LAYER_01
 10
425.5923641330078
 20
337.8080567963714
 30
0.0
  0
VERTEX
  5
13E
  8
LAYER_01
 10
425.5923641330078
 20
333.6605908841667
 30
0.0
  0
SEQEND
  5
13F
  8
LAYER_01
  0
POLYLINE
  5
140
  8
LAYER_01
 66
     1
 10
0.0
 20
0.0
 30
0.0
 70
     1
  0
VERTEX
  5
141
  8
LAYER_01
 10
409.5274593008826
 20
292.9849022454904
 30
0.0
  0
VERTEX
  5
142
  8
LAYER_01
 10
409.5274593008826
 20
287.8469021517868
 30
0.0
  0
VERTEX
  5
143
  8
LAYER_01
 10
414.6654593945862
 20
287.8469021517868
 30
0.0
  0
VERTEX
  5
144
  8
LAYER_01
 10
416.7750431411837
 20
295.094485992088
 30
0.0
  0
SEQEND
  5
145
  8
LAYER_01
  0
POLYLINE
  5
146
  8
LAYER_01
 66
     1
 10
0.0
 20
0.0
 30
0.0
 70
     1
  0
VERTEX
  5
147
  8
LAYER_01
 10
407.5274593008826
 20
292.9849022454904
 30
0.0
  0
VERTEX
  5
148
  8
LAYER_01
 10
400.2798754605814
 20
295.0944859920879
 30
0.0
  0
VERTEX
  5
149
  8
LAYER_01
 10
402.389459207179
 20
287.8469021517867
 30
0.0
  0
VERTEX
  5
14A
  8
LAYER_01
 10
407.5274593008825
 20
287.8469021517868
 30
0.0
  0
SEQEND
  5
14B
  8
LAYER_01
  0
POLYLINE
  5
14C
  8
LAYER_01
 66
     1
 10
0.0
 20
0.0
 30
0.0
 70
     1
  0
VERTEX
  5
14D
  8
LAYER_01
 10
390.7944658188916
 20
321.0750633143802
 30
0.0
  0
VERTEX
  5
14E
  8
LAYER_01
 10
383.5468819785905
 20
318.9654795677826
 30
0.0
  0
VERTEX
  5
14F
  8
LAYER_01
 10
383.5468819785906
 20
313.827479474079
 30
0.0
  0
VERTEX
  5
150
  8
LAYER_01
 10
388.6848820722942
 20
313.827479474079
 30
0.0
  0
SEQEND
  5
151
  8
LAYER_01
  0
POLYLINE
  5
152
  8
LAYER_01
 66
     1
 10
0.0
 20
0.0
 30
0.0
 70
     1
  0
VERTEX
  5
153
  8
LAYER_01
 10
390.7944658188918
 20
304.5798956337779
 30
0.0
  0
VERTEX
  5
154
  8
LAYER_01
 10
388.6848820722942
 20
311.827479474079
 30
0.0
  0
VERTEX
  5
155
  8
LAYER_01
 10
383.5468819785906
 20
311.8274794740789
 30
0.0
  0
VERTEX
  5
156
  8
LAYER_01
 10
383.5468819785905
 20
306.6894793803754
 30
0.0
  0
SEQEND
  5
157
  8
LAYER_01
  0
POLYLINE
  5
158
  8
LAYER_01
 66
     1
 10
0.0
 20
0.0
 30
0.0
 70
     1
  0
VERTEX
  5
159
  8
LAYER_01
 10
426.2604527828736
 20
304.5798956337777
 30
0.0
  0
VERTEX
  5
15A
  8
LAYER_01
 10
433.5080366231748
 20
306.6894793803752
 30
0.0
  0
VERTEX
  5
15B
  8
LAYER_01
 10
433.5080366231747
 20
311.8274794740788
 30
0.0
  0
VERTEX
  5
15C
  8
LAYER_01
 10
428.3700365294711
 20
311.8274794740789
 30
0.0
  0
SEQEND
  5
15D
  8
LAYER_01
  0
POLYLINE
  5
15E
  8
LAYER_01
 66
     1
 10
0.0
 20
0.0
 30
0.0
 70
     1
  0
VERTEX
  5
15F
  8
LAYER_01
 10
426.2604527828735
 20
321.07506331438
 30
0.0
  0
VERTEX
  5
160
  8
LAYER_01
 10
428.3700365294711
 20
313.8274794740789
 30
0.0
  0
VERTEX
  5
161
  8
LAYER_01
 10
433.5080366231747
 20
313.8274794740789
 30
0.0
  0
VERTEX
  5
162
  8
LAYER_01
 10
433.5080366231747
 20
318.9654795677825
 30
0.0
  0
SEQEND
  5
163
  8
LAYER_01
  0
POLYLINE
  5
164
  8
LAYER_01
 66
     1
 10
0.0
 20
0.0
 30
0.0
 70
     1
  0
VERTEX
  5
165
  8
LAYER_01
 10
413.674925213087
 20
303.911806983912
 30
0.0
  0
VERTEX
  5
166
  8
LAYER_01
 10
409.5274593008826
 20
303.911806983912
 30
0.0
  0
VERTEX
  5
167
  8
LAYER_01
 10
409.5274593008826
 20
311.3316968864651
 30
0.0
  0
VERTEX
  5
168
  8
LAYER_01
 10
415.7436734263019
 20
307.4949839972675
 30
0.0
  0
SEQEND
  5
169
  8
LAYER_01
  0
POLYLINE
  5
16A
  8
LAYER_01
 66
     1
 10
0.0
 20
0.0
 30
0.0
 70
     1
  0
VERTEX
  5
16B
  8
LAYER_01
 10
393.4625544687574
 20
287.8469021517865
 30
0.0
  0
VERTEX
  5
16C
  8
LAYER_01
 10
393.4625544687572
 20
291.8861045181781
 30
0.0
  0
VERTEX
  5
16D
  8
LAYER_01
 10
398.0913974579244
 20
295.4568549592162
 30
0.0
  0
VERTEX
  5
16E
  8
LAYER_01
 10
400.3064574156523
 20
287.8469021517867
 30
0.0
  0
SEQEND
  5
16F
  8
LAYER_01
  0
POLYLINE
  5
170
  8
LAYER_01
 66
     1
 10
0.0
 20
0.0
 30
0.0
 70
     1
  0
VERTEX
  5
171
  8
LAYER_01
 10
392.4659310569232
 20
324.1607421147849
 30
0.0
  0
VERTEX
  5
172
  8
LAYER_01
 10
396.8979815277959
 20
328.5927925856575
 30
0.0
  0
VERTEX
  5
173
  8
LAYER_01
 10
392.5261678141107
 20
331.9652672586615
 30
0.0
  0
VERTEX
  5
174
  8
LAYER_01
 10
388.9302789092958
 20
329.8891798314907
 30
0.0
  0
SEQEND
  5
175
  8
LAYER_01
  0
POLYLINE
  5
176
  8
LAYER_01
 66
     1
 10
0.0
 20
0.0
 30
0.0
 70
     1
  0
VERTEX
  5
177
  8
LAYER_01
 10
403.4882569344915
 20
323.7431519642458
 30
0.0
  0
VERTEX
  5
178
  8
LAYER_01
 10
399.9175064934532
 20
328.3719949534128
 30
0.0
  0
VERTEX
  5
179
  8
LAYER_01
 10
407.5274593008826
 20
330.5870549111408
 30
0.0
  0
VERTEX
  5
17A
  8
LAYER_01
 10
407.5274593008827
 20
323.7431519642458
 30
0.0
  0
SEQEND
  5
17B
  8
LAYER_01
  0
POLYLINE
  5
17C
  8
LAYER_01
 66
     1
 10
0.0
 20
0.0
 30
0.0
 70
     1
  0
VERTEX
  5
17D
  8
LAYER_01
 10
384.0426645662042
 20
337.8080567963712
 30
0.0
  0
VERTEX
  5
17E
  8
LAYER_01
 10
387.879377455402
 20
331.5918426709518
 30
0.0
  0
VERTEX
  5
17F
  8
LAYER_01
 10
391.4625544687575
 20
333.6605908841667
 30
0.0
  0
VERTEX
  5
180
  8
LAYER_01
 10
391.4625544687575
 20
337.8080567963711
 30
0.0
  0
SEQEND
  5
181
  8
LAYER_01
  0
POLYLINE
  5
182
  8
LAYER_01
 66
     1
 10
0.0
 20
0.0
 30
0.0
 70
     1
  0
VERTEX
  5
183
  8
LAYER_01
 10
423.5923641330078
 20
333.7688544299797
 30
0.0
  0
VERTEX
  5
184
  8
LAYER_01
 10
418.9635211438409
 20
330.1981039889416
 30
0.0
  0
VERTEX
  5
185
  8
LAYER_01
 10
416.7484611861129
 20
337.8080567963711
 30
0.0
  0
VERTEX
  5
186
  8
LAYER_01
 10
423.5923641330078
 20
337.8080567963713
 30
0.0
  0
SEQEND
  5
187
  8
LAYER_01
  0
POLYLINE
  5
188
  8
LAYER_01
 66
     1
 10
0.0
 20
0.0
 30
0.0
 70
     1
  0
VERTEX
  5
189
  8
LAYER_01
 10
423.174773982469
 20
322.7465285524118
 30
0.0
  0
VERTEX
  5
18A
  8
LAYER_01
 10
417.446336265763
 20
319.2108764047842
 30
0.0
  0
VERTEX
  5
18B
  8
LAYER_01
 10
415.3702488385919
 20
322.8067653095995
 30
0.0
  0
VERTEX
  5
18C
  8
LAYER_01
 10
418.7427235115961
 20
327.1785790232844
 30
0.0
  0
SEQEND
  5
18D
  8
LAYER_01
  0
POLYLINE
  5
18E
  8
LAYER_01
 66
     1
 10
0.0
 20
0.0
 30
0.0
 70
     1
  0
VERTEX
  5
18F
  8
LAYER_01
 10
428.1246396924696
 20
295.7657791166672
 30
0.0
  0
VERTEX
  5
190
  8
LAYER_01
 10
424.5287507876542
 20
293.6896916894963
 30
0.0
  0
VERTEX
  5
191
  8
LAYER_01
 10
420.1569370739691
 20
297.0621663625002
 30
0.0
  0
VERTEX
  5
192
  8
LAYER_01
 10
424.5889875448421
 20
301.494216833373
 30
0.0
  0
SEQEND
  5
193
  8
LAYER_01
  0
POLYLINE
  5
194
  8
LAYER_01
 66
     1
 10
0.0
 20
0.0
 30
0.0
 70
     1
  0
VERTEX
  5
195
  8
LAYER_01
 10
417.4463362657631
 20
306.4440825433737
 30
0.0
  0
VERTEX
  5
196
  8
LAYER_01
 10
415.370248838592
 20
302.8481936385584
 30
0.0
  0
VERTEX
  5
197
  8
LAYER_01
 10
418.7427235115961
 20
298.4763799248734
 30
0.0
  0
VERTEX
  5
198
  8
LAYER_01
 10
423.1747739824691
 20
302.9084303957461
 30
0.0
  0
SEQEND
  5
199
  8
LAYER_01
  0
POLYLINE
  5
19A
  8
LAYER_01
 66
     1
 10
0.0
 20
0.0
 30
0.0
 70
     1
  0
VERTEX
  5
19B
  8
LAYER_01
 10
423.5923641330079
 20
291.8861045181781
 30
0.0
  0
VERTEX
  5
19C
  8
LAYER_01
 10
423.592364133008
 20
287.8469021517867
 30
0.0
  0
VERTEX
  5
19D
  8
LAYER_01
 10
416.7484611861128
 20
287.8469021517867
 30
0.0
  0
VERTEX
  5
19E
  8
LAYER_01
 10
418.9635211438407
 20
295.4568549592162
 30
0.0
  0
SEQEND
  5
19F
  8
LAYER_01
  0
POLYLINE
  5
1A0
  8
LAYER_01
 66
     1
 10
0.0
 20
0.0
 30
0.0
 70
     1
  0
VERTEX
  5
1A1
  8
LAYER_01
 10
429.1755411463633
 20
294.0631162772061
 30
0.0
  0
VERTEX
  5
1A2
  8
LAYER_01
 10
425.5923641330079
 20
291.9943680639913
 30
0.0
  0
VERTEX
  5
1A3
  8
LAYER_01
 10
425.5923641330079
 20
287.8469021517867
 30
0.0
  0
VERTEX
  5
1A4
  8
LAYER_01
 10
433.0122540355611
 20
287.8469021517866
 30
0.0
  0
SEQEND
  5
1A5
  8
LAYER_01
  0
POLYLINE
  5
1A6
  8
LAYER_01
 66
     1
 10
0.0
 20
0.0
 30
0.0
 70
     1
  0
VERTEX
  5
1A7
  8
LAYER_01
 10
357.5663046562982
 20
301.911806983912
 30
0.0
  0
VERTEX
  5
1A8
  8
LAYER_01
 10
357.5663046562982
 20
295.0679040370169
 30
0.0
  0
VERTEX
  5
1A9
  8
LAYER_01
 10
365.1762574637277
 20
297.2829639947449
 30
0.0
  0
VERTEX
  5
1AA
  8
LAYER_01
 10
361.6055070226894
 20
301.911806983912
 30
0.0
  0
SEQEND
  5
1AB
  8
LAYER_01
  0
POLYLINE
  5
1AC
  8
LAYER_01
 66
     1
 10
0.0
 20
0.0
 30
0.0
 70
     1
  0
VERTEX
  5
1AD
  8
LAYER_01
 10
351.5271022899071
 20
301.911806983912
 30
0.0
  0
VERTEX
  5
1AE
  8
LAYER_01
 10
347.9563518488687
 20
297.282963994745
 30
0.0
  0
VERTEX
  5
1AF
  8
LAYER_01
 10
355.5663046562982
 20
295.067904037017
 30
0.0
  0
VERTEX
  5
1B0
  8
LAYER_01
 10
355.5663046562981
 20
301.9118069839119
 30
0.0
  0
SEQEND
  5
1B1
  8
LAYER_01
  0
POLYLINE
  5
1B2
  8
LAYER_01
 66
     1
 10
0.0
 20
0.0
 30
0.0
  0
VERTEX
  5
1B3
  8
LAYER_01
 10
330.5857273340062
 20
326.2037238952038
 30
0.0
  0
VERTEX
  5
1B4
  8
LAYER_01
 10
335.2363256734121
 20
328.8887480983527
 30
0.0
  0
VERTEX
  5
1B5
  8
LAYER_01
 10
338.7824932682853
 20
323.1432733310279
 30
0.0
  0
VERTEX
  5
1B6
  8
LAYER_01
 10
330.5857273340062
 20
320.7574072864758
 30
0.0
  0
SEQEND
  5
1B7
  8
LAYER_01
  0
POLYLINE
  5
1B8
  8
LAYER_01
 66
     1
 10
0.0
 20
0.0
 30
0.0
  0
VERTEX
  5
1B9
  8
LAYER_01
 10
330.5857273340061
 20
336.4236134698173
 30
0.0
  0
VERTEX
  5
1BA
  8
LAYER_01
 10
334.1854242195183
 20
330.5914109378138
 30
0.0
  0
VERTEX
  5
1BB
  8
LAYER_01
 10
330.5857273340062
 20
328.5131249719623
 30
0.0
  0
SEQEND
  5
1BC
  8
LAYER_01
  0
POLYLINE
  5
1BD
  8
LAYER_01
 66
     1
 10
0.0
 20
0.0
 30
0.0
  0
VERTEX
  5
1BE
  8
LAYER_01
 10
330.585727334006
 20
304.897551661682
 30
0.0
  0
VERTEX
  5
1BF
  8
LAYER_01
 10
338.7824932682852
 20
302.5116856171298
 30
0.0
  0
VERTEX
  5
1C0
  8
LAYER_01
 10
335.2363256734121
 20
296.7662108498052
 30
0.0
  0
VERTEX
  5
1C1
  8
LAYER_01
 10
330.5857273340062
 20
299.451235052954
 30
0.0
  0
SEQEND
  5
1C2
  8
LAYER_01
  0
POLYLINE
  5
1C3
  8
LAYER_01
 66
     1
 10
0.0
 20
0.0
 30
0.0
  0
VERTEX
  5
1C4
  8
LAYER_01
 10
330.5857273340062
 20
297.1418339761956
 30
0.0
  0
VERTEX
  5
1C5
  8
LAYER_01
 10
334.1854242195183
 20
295.0635480103441
 30
0.0
  0
VERTEX
  5
1C6
  8
LAYER_01
 10
330.5857273340062
 20
289.2313454783406
 30
0.0
  0
SEQEND
  5
1C7
  8
LAYER_01
  0
POLYLINE
  5
1C8
  8
LAYER_01
 66
     1
 10
0.0
 20
0.0
 30
0.0
 70
     1
  0
VERTEX
  5
1C9
  8
LAYER_01
 10
371.6312094884233
 20
337.8080567963711
 30
0.0
  0
VERTEX
  5
1CA
  8
LAYER_01
 10
371.6312094884237
 20
333.7688544299797
 30
0.0
  0
VERTEX
  5
1CB
  8
LAYER_01
 10
367.0023664992564
 20
330.1981039889415
 30
0.0
  0
VERTEX
  5
1CC
  8
LAYER_01
 10
364.7873065415284
 20
337.808056796371
 30
0.0
  0
SEQEND
  5
1CD
  8
LAYER_01
  0
POLYLINE
  5
1CE
  8
LAYER_01
 66
     1
 10
0.0
 20
0.0
 30
0.0
 70
     1
  0
VERTEX
  5
1CF
  8
LAYER_01
 10
372.56759614307
 20
293.6896916894963
 30
0.0
  0
VERTEX
  5
1D0
  8
LAYER_01
 10
368.1957824293847
 20
297.0621663625004
 30
0.0
  0
VERTEX
  5
1D1
  8
LAYER_01
 10
372.6278329002576
 20
301.494216833373
 30
0.0
  0
VERTEX
  5
1D2
  8
LAYER_01
 10
376.1634850478852
 20
295.7657791166672
 30
0.0
  0
SEQEND
  5
1D3
  8
LAYER_01
  0
POLYLINE
  5
1D4
  8
LAYER_01
 66
     1
 10
0.0
 20
0.0
 30
0.0
 70
     1
  0
VERTEX
  5
1D5
  8
LAYER_01
 10
347.9563518488687
 20
328.3719949534129
 30
0.0
  0
VERTEX
  5
1D6
  8
LAYER_01
 10
351.5271022899071
 20
323.7431519642458
 30
0.0
  0
VERTEX
  5
1D7
  8
LAYER_01
 10
355.5663046562981
 20
323.7431519642458
 30
0.0
  0
VERTEX
  5
1D8
  8
LAYER_01
 10
355.5663046562982
 20
330.5870549111409
 30
0.0
  0
SEQEND
  5
1D9
  8
LAYER_01
  0
POLYLINE
  5
1DA
  8
LAYER_01
 66
     1
 10
0.0
 20
0.0
 30
0.0
 70
     1
  0
VERTEX
  5
1DB
  8
LAYER_01
 10
366.7815688670116
 20
327.1785790232844
 30
0.0
  0
VERTEX
  5
1DC
  8
LAYER_01
 10
371.2136193378846
 20
322.7465285524119
 30
0.0
  0
VERTEX
  5
1DD
  8
LAYER_01
 10
365.4851816211785
 20
319.2108764047841
 30
0.0
  0
VERTEX
  5
1DE
  8
LAYER_01
 10
363.4090941940075
 20
322.8067653095995
 30
0.0
  0
SEQEND
  5
1DF
  8
LAYER_01
  0
POLYLINE
  5
1E0
  8
LAYER_01
 66
     1
 10
0.0
 20
0.0
 30
0.0
 70
     1
  0
VERTEX
  5
1E1
  8
LAYER_01
 10
336.9691242647114
 20
329.8891798314907
 30
0.0
  0
VERTEX
  5
1E2
  8
LAYER_01
 10
340.5650131695266
 20
331.9652672586615
 30
0.0
  0
VERTEX
  5
1E3
  8
LAYER_01
 10
344.9368268832117
 20
328.5927925856575
 30
0.0
  0
VERTEX
  5
1E4
  8
LAYER_01
 10
340.5047764123388
 20
324.1607421147849
 30
0.0
  0
SEQEND
  5
1E5
  8
LAYER_01
  0
POLYLINE
  5
1E6
  8
LAYER_01
 66
     1
 10
0.0
 20
0.0
 30
0.0
 70
     1
  0
VERTEX
  5
1E7
  8
LAYER_01
 10
346.2713728318894
 20
312.8274794740789
 30
0.0
  0
VERTEX
  5
1E8
  8
LAYER_01
 10
348.349658797741
 20
316.4271763595912
 30
0.0
  0
VERTEX
  5
1E9
  8
LAYER_01
 10
354.1818613297444
 20
312.8274794740789
 30
0.0
  0
VERTEX
  5
1EA
  8
LAYER_01
 10
348.3496587977409
 20
309.2277825885667
 30
0.0
  0
SEQEND
  5
1EB
  8
LAYER_01
  0
POLYLINE
  5
1EC
  8
LAYER_01
 66
     1
 10
0.0
 20
0.0
 30
0.0
 70
     1
  0
VERTEX
  5
1ED
  8
LAYER_01
 10
340.9015211909552
 20
321.024245408358
 30
0.0
  0
VERTEX
  5
1EE
  8
LAYER_01
 10
346.6469959582798
 20
317.478077813485
 30
0.0
  0
VERTEX
  5
1EF
  8
LAYER_01
 10
343.9619717551309
 20
312.8274794740789
 30
0.0
  0
VERTEX
  5
1F0
  8
LAYER_01
 10
346.6469959582798
 20
308.1768811346728
 30
0.0
  0
VERTEX
  5
1F1
  8
LAYER_01
 10
340.9015211909551
 20
304.6307135397998
 30
0.0
  0
VERTEX
  5
1F2
  8
LAYER_01
 10
338.515655146403
 20
312.8274794740788
 30
0.0
  0
SEQEND
  5
1F3
  8
LAYER_01
  0
POLYLINE
  5
1F4
  8
LAYER_01
 66
     1
 10
0.0
 20
0.0
 30
0.0
 70
     1
  0
VERTEX
  5
1F5
  8
LAYER_01
 10
381.0510993909768
 20
287.8469021517863
 30
0.0
  0
VERTEX
  5
1F6
  8
LAYER_01
 10
373.6312094884235
 20
287.8469021517865
 30
0.0
  0
VERTEX
  5
1F7
  8
LAYER_01
 10
373.6312094884235
 20
291.9943680639913
 30
0.0
  0
VERTEX
  5
1F8
  8
LAYER_01
 10
377.2143865017789
 20
294.0631162772061
 30
0.0
  0
SEQEND
  5
1F9
  8
LAYER_01
  0
POLYLINE
  5
1FA
  8
LAYER_01
 66
     1
 10
0.0
 20
0.0
 30
0.0
 70
     1
  0
VERTEX
  5
1FB
  8
LAYER_01
 10
365.4851816211786
 20
306.4440825433737
 30
0.0
  0
VERTEX
  5
1FC
  8
LAYER_01
 10
363.4090941940076
 20
302.8481936385584
 30
0.0
  0
VERTEX
  5
1FD
  8
LAYER_01
 10
366.7815688670116
 20
298.4763799248734
 30
0.0
  0
VERTEX
  5
1FE
  8
LAYER_01
 10
371.2136193378846
 20
302.9084303957461
 30
0.0
  0
SEQEND
  5
1FF
  8
LAYER_01
  0
POLYLINE
  5
200
  8
LAYER_01
 66
     1
 10
0.0
 20
0.0
 30
0.0
 70
     1
  0
VERTEX
  5
201
  8
LAYER_01
 10
366.4856133543167
 20
308.1768811346728
 30
0.0
  0
VERTEX
  5
202
  8
LAYER_01
 10
372.2310881216412
 20
304.6307135397998
 30
0.0
  0
VERTEX
  5
203
  8
LAYER_01
 10
374.6169541661934
 20
312.827479474079
 30
0.0
  0
VERTEX
  5
204
  8
LAYER_01
 10
372.2310881216413
 20
321.0242454083581
 30
0.0
  0
VERTEX
  5
205
  8
LAYER_01
 10
366.4856133543166
 20
317.478077813485
 30
0.0
  0
VERTEX
  5
206
  8
LAYER_01
 10
369.1706375574655
 20
312.8274794740789
 30
0.0
  0
SEQEND
  5
207
  8
LAYER_01
  0
POLYLINE
  5
208
  8
LAYER_01
 66
     1
 10
0.0
 20
0.0
 30
0.0
 70
     1
  0
VERTEX
  5
209
  8
LAYER_01
 10
364.7829505148555
 20
309.2277825885666
 30
0.0
  0
VERTEX
  5
20A
  8
LAYER_01
 10
366.861236480707
 20
312.8274794740789
 30
0.0
  0
VERTEX
  5
20B
  8
LAYER_01
 10
364.7829505148554
 20
316.4271763595912
 30
0.0
  0
VERTEX
  5
20C
  8
LAYER_01
 10
358.950747982852
 20
312.8274794740789
 30
0.0
  0
SEQEND
  5
20D
  8
LAYER_01
  0
POLYLINE
  5
20E
  8
LAYER_01
 66
     1
 10
0.0
 20
0.0
 30
0.0
 70
     1
  0
VERTEX
  5
20F
  8
LAYER_01
 10
363.7825187817176
 20
307.4949839972675
 30
0.0
  0
VERTEX
  5
210
  8
LAYER_01
 10
357.5663046562982
 20
311.3316968864652
 30
0.0
  0
VERTEX
  5
211
  8
LAYER_01
 10
357.5663046562983
 20
303.911806983912
 30
0.0
  0
VERTEX
  5
212
  8
LAYER_01
 10
361.7137705685026
 20
303.911806983912
 30
0.0
  0
SEQEND
  5
213
  8
LAYER_01
  0
POLYLINE
  5
214
  8
LAYER_01
 66
     1
 10
0.0
 20
0.0
 30
0.0
 70
     1
  0
VERTEX
  5
215
  8
LAYER_01
 10
363.7825187817175
 20
318.1599749508904
 30
0.0
  0
VERTEX
  5
216
  8
LAYER_01
 10
357.5663046562982
 20
314.3232620616928
 30
0.0
  0
VERTEX
  5
217
  8
LAYER_01
 10
357.5663046562982
 20
321.7431519642457
 30
0.0
  0
VERTEX
  5
218
  8
LAYER_01
 10
361.7137705685026
 20
321.7431519642458
 30
0.0
  0
SEQEND
  5
219
  8
LAYER_01
  0
POLYLINE
  5
21A
  8
LAYER_01
 66
     1
 10
0.0
 20
0.0
 30
0.0
 70
     1
  0
VERTEX
  5
21B
  8
LAYER_01
 10
355.5663046562982
 20
314.3232620616927
 30
0.0
  0
VERTEX
  5
21C
  8
LAYER_01
 10
355.5663046562982
 20
321.7431519642458
 30
0.0
  0
VERTEX
  5
21D
  8
LAYER_01
 10
351.4188387440938
 20
321.7431519642458
 30
0.0
  0
VERTEX
  5
21E
  8
LAYER_01
 10
349.3500905308789
 20
318.1599749508904
 30
0.0
  0
SEQEND
  5
21F
  8
LAYER_01
  0
POLYLINE
  5
220
  8
LAYER_01
 66
     1
 10
0.0
 20
0.0
 30
0.0
 70
     1
  0
VERTEX
  5
221
  8
LAYER_01
 10
357.5663046562982
 20
332.6700567026674
 30
0.0
  0
VERTEX
  5
222
  8
LAYER_01
 10
357.5663046562983
 20
337.808056796371
 30
0.0
  0
VERTEX
  5
223
  8
LAYER_01
 10
362.7043047500018
 20
337.808056796371
 30
0.0
  0
VERTEX
  5
224
  8
LAYER_01
 10
364.8138884965993
 20
330.5604729560698
 30
0.0
  0
SEQEND
  5
225
  8
LAYER_01
  0
POLYLINE
  5
226
  8
LAYER_01
 66
     1
 10
0.0
 20
0.0
 30
0.0
 70
     1
  0
VERTEX
  5
227
  8
LAYER_01
 10
355.5663046562982
 20
332.6700567026674
 30
0.0
  0
VERTEX
  5
228
  8
LAYER_01
 10
348.318720815997
 20
330.5604729560699
 30
0.0
  0
VERTEX
  5
229
  8
LAYER_01
 10
350.4283045625946
 20
337.8080567963711
 30
0.0
  0
VERTEX
  5
22A
  8
LAYER_01
 10
355.5663046562981
 20
337.808056796371
 30
0.0
  0
SEQEND
  5
22B
  8
LAYER_01
  0
POLYLINE
  5
22C
  8
LAYER_01
 66
     1
 10
0.0
 20
0.0
 30
0.0
 70
     1
  0
VERTEX
  5
22D
  8
LAYER_01
 10
335.9182228108175
 20
331.5918426709518
 30
0.0
  0
VERTEX
  5
22E
  8
LAYER_01
 10
332.0815099216196
 20
337.8080567963715
 30
0.0
  0
VERTEX
  5
22F
  8
LAYER_01
 10
339.5013998241731
 20
337.8080567963714
 30
0.0
  0
VERTEX
  5
230
  8
LAYER_01
 10
339.5013998241731
 20
333.6605908841667
 30
0.0
  0
SEQEND
  5
231
  8
LAYER_01
  0
POLYLINE
  5
232
  8
LAYER_01
 66
     1
 10
0.0
 20
0.0
 30
0.0
 70
     1
  0
VERTEX
  5
233
  8
LAYER_01
 10
355.5663046562983
 20
292.9849022454904
 30
0.0
  0
VERTEX
  5
234
  8
LAYER_01
 10
355.5663046562982
 20
287.8469021517868
 30
0.0
  0
VERTEX
  5
235
  8
LAYER_01
 10
350.4283045625946
 20
287.8469021517868
 30
0.0
  0
VERTEX
  5
236
  8
LAYER_01
 10
348.3187208159972
 20
295.094485992088
 30
0.0
  0
SEQEND
  5
237
  8
LAYER_01
  0
POLYLINE
  5
238
  8
LAYER_01
 66
     1
 10
0.0
 20
0.0
 30
0.0
 70
     1
  0
VERTEX
  5
239
  8
LAYER_01
 10
357.5663046562983
 20
292.9849022454904
 30
0.0
  0
VERTEX
  5
23A
  8
LAYER_01
 10
364.8138884965995
 20
295.0944859920879
 30
0.0
  0
VERTEX
  5
23B
  8
LAYER_01
 10
362.7043047500019
 20
287.8469021517867
 30
0.0
  0
VERTEX
  5
23C
  8
LAYER_01
 10
357.5663046562983
 20
287.8469021517868
 30
0.0
  0
SEQEND
  5
23D
  8
LAYER_01
  0
POLYLINE
  5
23E
  8
LAYER_01
 66
     1
 10
0.0
 20
0.0
 30
0.0
 70
     1
  0
VERTEX
  5
23F
  8
LAYER_01
 10
374.2992981382892
 20
321.0750633143802
 30
0.0
  0
VERTEX
  5
240
  8
LAYER_01
 10
381.5468819785904
 20
318.9654795677826
 30
0.0
  0
VERTEX
  5
241
  8
LAYER_01
 10
381.5468819785902
 20
313.827479474079
 30
0.0
  0
VERTEX
  5
242
  8
LAYER_01
 10
376.4088818848867
 20
313.827479474079
 30
0.0
  0
SEQEND
  5
243
  8
LAYER_01
  0
POLYLINE
  5
244
  8
LAYER_01
 66
     1
 10
0.0
 20
0.0
 30
0.0
 70
     1
  0
VERTEX
  5
245
  8
LAYER_01
 10
374.2992981382891
 20
304.5798956337779
 30
0.0
  0
VERTEX
  5
246
  8
LAYER_01
 10
376.4088818848867
 20
311.827479474079
 30
0.0
  0
VERTEX
  5
247
  8
LAYER_01
 10
381.5468819785902
 20
311.8274794740789
 30
0.0
  0
VERTEX
  5
248
  8
LAYER_01
 10
381.5468819785903
 20
306.6894793803754
 30
0.0
  0
SEQEND
  5
249
  8
LAYER_01
  0
POLYLINE
  5
24A
  8
LAYER_01
 66
     1
 10
0.0
 20
0.0
 30
0.0
 70
     1
  0
VERTEX
  5
24B
  8
LAYER_01
 10
338.8333111743072
 20
304.5798956337777
 30
0.0
  0
VERTEX
  5
24C
  8
LAYER_01
 10
331.585727334006
 20
306.6894793803752
 30
0.0
  0
VERTEX
  5
24D
  8
LAYER_01
 10
331.5857273340062
 20
311.8274794740788
 30
0.0
  0
VERTEX
  5
24E
  8
LAYER_01
 10
336.7237274277097
 20
311.8274794740789
 30
0.0
  0
SEQEND
  5
24F
  8
LAYER_01
  0
POLYLINE
  5
250
  8
LAYER_01
 66
     1
 10
0.0
 20
0.0
 30
0.0
 70
     1
  0
VERTEX
  5
251
  8
LAYER_01
 10
338.8333111743073
 20
321.07506331438
 30
0.0
  0
VERTEX
  5
252
  8
LAYER_01
 10
336.7237274277097
 20
313.8274794740789
 30
0.0
  0
VERTEX
  5
253
  8
LAYER_01
 10
331.5857273340062
 20
313.8274794740789
 30
0.0
  0
VERTEX
  5
254
  8
LAYER_01
 10
331.5857273340061
 20
318.9654795677825
 30
0.0
  0
SEQEND
  5
255
  8
LAYER_01
  0
POLYLINE
  5
256
  8
LAYER_01
 66
     1
 10
0.0
 20
0.0
 30
0.0
 70
     1
  0
VERTEX
  5
257
  8
LAYER_01
 10
351.4188387440938
 20
303.911806983912
 30
0.0
  0
VERTEX
  5
258
  8
LAYER_01
 10
355.5663046562982
 20
303.911806983912
 30
0.0
  0
VERTEX
  5
259
  8
LAYER_01
 10
355.5663046562982
 20
311.3316968864651
 30
0.0
  0
VERTEX
  5
25A
  8
LAYER_01
 10
349.3500905308789
 20
307.4949839972675
 30
0.0
  0
SEQEND
  5
25B
  8
LAYER_01
  0
POLYLINE
  5
25C
  8
LAYER_01
 66
     1
 10
0.0
 20
0.0
 30
0.0
 70
     1
  0
VERTEX
  5
25D
  8
LAYER_01
 10
371.6312094884235
 20
287.8469021517865
 30
0.0
  0
VERTEX
  5
25E
  8
LAYER_01
 10
371.6312094884237
 20
291.8861045181781
 30
0.0
  0
VERTEX
  5
25F
  8
LAYER_01
 10
367.0023664992565
 20
295.4568549592162
 30
0.0
  0
VERTEX
  5
260
  8
LAYER_01
 10
364.7873065415286
 20
287.8469021517867
 30
0.0
  0
SEQEND
  5
261
  8
LAYER_01
  0
POLYLINE
  5
262
  8
LAYER_01
 66
     1
 10
0.0
 20
0.0
 30
0.0
 70
     1
  0
VERTEX
  5
263
  8
LAYER_01
 10
372.6278329002577
 20
324.1607421147849
 30
0.0
  0
VERTEX
  5
264
  8
LAYER_01
 10
368.1957824293849
 20
328.5927925856575
 30
0.0
  0
VERTEX
  5
265
  8
LAYER_01
 10
372.5675961430701
 20
331.9652672586615
 30
0.0
  0
VERTEX
  5
266
  8
LAYER_01
 10
376.163485047885
 20
329.8891798314907
 30
0.0
  0
SEQEND
  5
267
  8
LAYER_01
  0
POLYLINE
  5
268
  8
LAYER_01
 66
     1
 10
0.0
 20
0.0
 30
0.0
 70
     1
  0
VERTEX
  5
269
  8
LAYER_01
 10
361.6055070226893
 20
323.7431519642458
 30
0.0
  0
VERTEX
  5
26A
  8
LAYER_01
 10
365.1762574637277
 20
328.3719949534128
 30
0.0
  0
VERTEX
  5
26B
  8
LAYER_01
 10
357.5663046562982
 20
330.5870549111408
 30
0.0
  0
VERTEX
  5
26C
  8
LAYER_01
 10
357.5663046562981
 20
323.7431519642458
 30
0.0
  0
SEQEND
  5
26D
  8
LAYER_01
  0
POLYLINE
  5
26E
  8
LAYER_01
 66
     1
 10
0.0
 20
0.0
 30
0.0
 70
     1
  0
VERTEX
  5
26F
  8
LAYER_01
 10
381.0510993909766
 20
337.8080567963712
 30
0.0
  0
VERTEX
  5
270
  8
LAYER_01
 10
377.2143865017788
 20
331.5918426709518
 30
0.0
  0
VERTEX
  5
271
  8
LAYER_01
 10
373.6312094884233
 20
333.6605908841667
 30
0.0
  0
VERTEX
  5
272
  8
LAYER_01
 10
373.6312094884233
 20
337.8080567963711
 30
0.0
  0
SEQEND
  5
273
  8
LAYER_01
  0
POLYLINE
  5
274
  8
LAYER_01
 66
     1
 10
0.0
 20
0.0
 30
0.0
 70
     1
  0
VERTEX
  5
275
  8
LAYER_01
 10
341.501399824173
 20
333.7688544299797
 30
0.0
  0
VERTEX
  5
276
  8
LAYER_01
 10
346.1302428133399
 20
330.1981039889416
 30
0.0
  0
VERTEX
  5
277
  8
LAYER_01
 10
348.345302771068
 20
337.8080567963711
 30
0.0
  0
VERTEX
  5
278
  8
LAYER_01
 10
341.5013998241731
 20
337.8080567963713
 30
0.0
  0
SEQEND
  5
279
  8
LAYER_01
  0
POLYLINE
  5
27A
  8
LAYER_01
 66
     1
 10
0.0
 20
0.0
 30
0.0
 70
     1
  0
VERTEX
  5
27B
  8
LAYER_01
 10
341.9189899747118
 20
322.7465285524118
 30
0.0
  0
VERTEX
  5
27C
  8
LAYER_01
 10
347.6474276914178
 20
319.2108764047842
 30
0.0
  0
VERTEX
  5
27D
  8
LAYER_01
 10
349.7235151185889
 20
322.8067653095995
 30
0.0
  0
VERTEX
  5
27E
  8
LAYER_01
 10
346.3510404455848
 20
327.1785790232844
 30
0.0
  0
SEQEND
  5
27F
  8
LAYER_01
  0
POLYLINE
  5
280
  8
LAYER_01
 66
     1
 10
0.0
 20
0.0
 30
0.0
 70
     1
  0
VERTEX
  5
281
  8
LAYER_01
 10
336.9691242647112
 20
295.7657791166672
 30
0.0
  0
VERTEX
  5
282
  8
LAYER_01
 10
340.5650131695266
 20
293.6896916894963
 30
0.0
  0
VERTEX
  5
283
  8
LAYER_01
 10
344.9368268832118
 20
297.0621663625002
 30
0.0
  0
VERTEX
  5
284
  8
LAYER_01
 10
340.5047764123387
 20
301.494216833373
 30
0.0
  0
SEQEND
  5
285
  8
LAYER_01
  0
POLYLINE
  5
286
  8
LAYER_01
 66
     1
 10
0.0
 20
0.0
 30
0.0
 70
     1
  0
VERTEX
  5
287
  8
LAYER_01
 10
347.6474276914178
 20
306.4440825433737
 30
0.0
  0
VERTEX
  5
288
  8
LAYER_01
 10
349.7235151185889
 20
302.8481936385584
 30
0.0
  0
VERTEX
  5
289
  8
LAYER_01
 10
346.3510404455848
 20
298.4763799248734
 30
0.0
  0
VERTEX
  5
28A
  8
LAYER_01
 10
341.9189899747117
 20
302.9084303957461
 30
0.0
  0
SEQEND
  5
28B
  8
LAYER_01
  0
POLYLINE
  5
28C
  8
LAYER_01
 66
     1
 10
0.0
 20
0.0
 30
0.0
 70
     1
  0
VERTEX
  5
28D
  8
LAYER_01
 10
341.5013998241729
 20
291.8861045181781
 30
0.0
  0
VERTEX
  5
28E
  8
LAYER_01
 10
341.5013998241728
 20
287.8469021517867
 30
0.0
  0
VERTEX
  5
28F
  8
LAYER_01
 10
348.3453027710681
 20
287.8469021517867
 30
0.0
  0
VERTEX
  5
290
  8
LAYER_01
 10
346.1302428133401
 20
295.4568549592162
 30
0.0
  0
SEQEND
  5
291
  8
LAYER_01
  0
POLYLINE
  5
292
  8
LAYER_01
 66
     1
 10
0.0
 20
0.0
 30
0.0
 70
     1
  0
VERTEX
  5
293
  8
LAYER_01
 10
335.9182228108175
 20
294.0631162772061
 30
0.0
  0
VERTEX
  5
294
  8
LAYER_01
 10
339.5013998241729
 20
291.9943680639913
 30
0.0
  0
VERTEX
  5
295
  8
LAYER_01
 10
339.5013998241729
 20
287.8469021517867
 30
0.0
  0
VERTEX
  5
296
  8
LAYER_01
 10
332.0815099216197
 20
287.8469021517866
 30
0.0
  0
SEQEND
  5
297
  8
LAYER_01
  0
POLYLINE
  5
298
  8
LAYER_01
 66
     1
 10
0.0
 20
0.0
 30
0.0
 70
     1
  0
VERTEX
  5
299
  8
LAYER_01
 10
407.5274593008826
 20
375.7043066088302
 30
0.0
  0
VERTEX
  5
29A
  8
LAYER_01
 10
407.5274593008826
 20
382.5482095557252
 30
0.0
  0
VERTEX
  5
29B
  8
LAYER_01
 10
399.9175064934532
 20
380.3331495979972
 30
0.0
  0
VERTEX
  5
29C
  8
LAYER_01
 10
403.4882569344915
 20
375.7043066088302
 30
0.0
  0
SEQEND
  5
29D
  8
LAYER_01
  0
POLYLINE
  5
29E
  8
LAYER_01
 66
     1
 10
0.0
 20
0.0
 30
0.0
 70
     1
  0
VERTEX
  5
29F
  8
LAYER_01
 10
413.5666616672738
 20
375.7043066088302
 30
0.0
  0
VERTEX
  5
2A0
  8
LAYER_01
 10
417.1374121083121
 20
380.3331495979972
 30
0.0
  0
VERTEX
  5
2A1
  8
LAYER_01
 10
409.5274593008826
 20
382.5482095557252
 30
0.0
  0
VERTEX
  5
2A2
  8
LAYER_01
 10
409.5274593008827
 20
375.7043066088303
 30
0.0
  0
SEQEND
  5
2A3
  8
LAYER_01
  0
POLYLINE
  5
2A4
  8
LAYER_01
 66
     1
 10
0.0
 20
0.0
 30
0.0
  0
VERTEX
  5
2A5
  8
LAYER_01
 10
434.5080366231747
 20
351.4123896975384
 30
0.0
  0
VERTEX
  5
2A6
  8
LAYER_01
 10
429.8574382837687
 20
348.7273654943895
 30
0.0
  0
VERTEX
  5
2A7
  8
LAYER_01
 10
426.3112706888955
 20
354.4728402617143
 30
0.0
  0
VERTEX
  5
2A8
  8
LAYER_01
 10
434.5080366231747
 20
356.8587063062664
 30
0.0
  0
SEQEND
  5
2A9
  8
LAYER_01
  0
POLYLINE
  5
2AA
  8
LAYER_01
 66
     1
 10
0.0
 20
0.0
 30
0.0
  0
VERTEX
  5
2AB
  8
LAYER_01
 10
434.5080366231747
 20
341.1925001229249
 30
0.0
  0
VERTEX
  5
2AC
  8
LAYER_01
 10
430.9083397376626
 20
347.0247026549284
 30
0.0
  0
VERTEX
  5
2AD
  8
LAYER_01
 10
434.5080366231747
 20
349.1029886207799
 30
0.0
  0
SEQEND
  5
2AE
  8
LAYER_01
  0
POLYLINE
  5
2AF
  8
LAYER_01
 66
     1
 10
0.0
 20
0.0
 30
0.0
  0
VERTEX
  5
2B0
  8
LAYER_01
 10
434.5080366231748
 20
372.7185619310602
 30
0.0
  0
VERTEX
  5
2B1
  8
LAYER_01
 10
426.3112706888957
 20
375.1044279756123
 30
0.0
  0
VERTEX
  5
2B2
  8
LAYER_01
 10
429.8574382837687
 20
380.849902742937
 30
0.0
  0
VERTEX
  5
2B3
  8
LAYER_01
 10
434.5080366231747
 20
378.1648785397882
 30
0.0
  0
SEQEND
  5
2B4
  8
LAYER_01
  0
POLYLINE
  5
2B5
  8
LAYER_01
 66
     1
 10
0.0
 20
0.0
 30
0.0
  0
VERTEX
  5
2B6
  8
LAYER_01
 10
434.5080366231747
 20
380.4742796165466
 30
0.0
  0
VERTEX
  5
2B7
  8
LAYER_01
 10
430.9083397376625
 20
382.5525655823981
 30
0.0
  0
VERTEX
  5
2B8
  8
LAYER_01
 10
434.5080366231747
 20
388.3847681144015
 30
0.0
  0
SEQEND
  5
2B9
  8
LAYER_01
  0
POLYLINE
  5
2BA
  8
LAYER_01
 66
     1
 10
0.0
 20
0.0
 30
0.0
 70
     1
  0
VERTEX
  5
2BB
  8
LAYER_01
 10
393.4625544687575
 20
339.8080567963711
 30
0.0
  0
VERTEX
  5
2BC
  8
LAYER_01
 10
393.4625544687572
 20
343.8472591627625
 30
0.0
  0
VERTEX
  5
2BD
  8
LAYER_01
 10
398.0913974579244
 20
347.4180096038007
 30
0.0
  0
VERTEX
  5
2BE
  8
LAYER_01
 10
400.3064574156524
 20
339.8080567963711
 30
0.0
  0
SEQEND
  5
2BF
  8
LAYER_01
  0
POLYLINE
  5
2C0
  8
LAYER_01
 66
     1
 10
0.0
 20
0.0
 30
0.0
 70
     1
  0
VERTEX
  5
2C1
  8
LAYER_01
 10
392.5261678141109
 20
383.9264219032459
 30
0.0
  0
VERTEX
  5
2C2
  8
LAYER_01
 10
396.8979815277962
 20
380.5539472302418
 30
0.0
  0
VERTEX
  5
2C3
  8
LAYER_01
 10
392.4659310569232
 20
376.1218967593692
 30
0.0
  0
VERTEX
  5
2C4
  8
LAYER_01
 10
388.9302789092957
 20
381.850334476075
 30
0.0
  0
SEQEND
  5
2C5
  8
LAYER_01
  0
POLYLINE
  5
2C6
  8
LAYER_01
 66
     1
 10
0.0
 20
0.0
 30
0.0
 70
     1
  0
VERTEX
  5
2C7
  8
LAYER_01
 10
417.1374121083121
 20
349.2441186393293
 30
0.0
  0
VERTEX
  5
2C8
  8
LAYER_01
 10
413.5666616672738
 20
353.8729616284964
 30
0.0
  0
VERTEX
  5
2C9
  8
LAYER_01
 10
409.5274593008827
 20
353.8729616284963
 30
0.0
  0
VERTEX
  5
2CA
  8
LAYER_01
 10
409.5274593008826
 20
347.0290586816013
 30
0.0
  0
SEQEND
  5
2CB
  8
LAYER_01
  0
POLYLINE
  5
2CC
  8
LAYER_01
 66
     1
 10
0.0
 20
0.0
 30
0.0
 70
     1
  0
VERTEX
  5
2CD
  8
LAYER_01
 10
398.3121950901692
 20
350.4375345694577
 30
0.0
  0
VERTEX
  5
2CE
  8
LAYER_01
 10
393.8801446192963
 20
354.8695850403303
 30
0.0
  0
VERTEX
  5
2CF
  8
LAYER_01
 10
399.6085823360023
 20
358.4052371879581
 30
0.0
  0
VERTEX
  5
2D0
  8
LAYER_01
 10
401.6846697631734
 20
354.8093482831427
 30
0.0
  0
SEQEND
  5
2D1
  8
LAYER_01
  0
POLYLINE
  5
2D2
  8
LAYER_01
 66
     1
 10
0.0
 20
0.0
 30
0.0
 70
     1
  0
VERTEX
  5
2D3
  8
LAYER_01
 10
428.1246396924695
 20
347.7269337612515
 30
0.0
  0
VERTEX
  5
2D4
  8
LAYER_01
 10
424.5287507876542
 20
345.6508463340807
 30
0.0
  0
VERTEX
  5
2D5
  8
LAYER_01
 10
420.1569370739691
 20
349.0233210070846
 30
0.0
  0
VERTEX
  5
2D6
  8
LAYER_01
 10
424.588987544842
 20
353.4553714779573
 30
0.0
  0
SEQEND
  5
2D7
  8
LAYER_01
  0
POLYLINE
  5
2D8
  8
LAYER_01
 66
     1
 10
0.0
 20
0.0
 30
0.0
 70
     1
  0
VERTEX
  5
2D9
  8
LAYER_01
 10
418.8223911252915
 20
364.7886341186633
 30
0.0
  0
VERTEX
  5
2DA
  8
LAYER_01
 10
416.7441051594399
 20
361.188937233151
 30
0.0
  0
VERTEX
  5
2DB
  8
LAYER_01
 10
410.9119026274364
 20
364.7886341186633
 30
0.0
  0
VERTEX
  5
2DC
  8
LAYER_01
 10
416.7441051594399
 20
368.3883310041755
 30
0.0
  0
SEQEND
  5
2DD
  8
LAYER_01
  0
POLYLINE
  5
2DE
  8
LAYER_01
 66
     1
 10
0.0
 20
0.0
 30
0.0
 70
     1
  0
VERTEX
  5
2DF
  8
LAYER_01
 10
424.1922427662256
 20
356.5918681843842
 30
0.0
  0
VERTEX
  5
2E0
  8
LAYER_01
 10
418.446767998901
 20
360.1380357792572
 30
0.0
  0
VERTEX
  5
2E1
  8
LAYER_01
 10
421.13179220205
 20
364.7886341186633
 30
0.0
  0
VERTEX
  5
2E2
  8
LAYER_01
 10
418.446767998901
 20
369.4392324580693
 30
0.0
  0
VERTEX
  5
2E3
  8
LAYER_01
 10
424.1922427662257
 20
372.9854000529424
 30
0.0
  0
VERTEX
  5
2E4
  8
LAYER_01
 10
426.5781088107778
 20
364.7886341186634
 30
0.0
  0
SEQEND
  5
2E5
  8
LAYER_01
  0
POLYLINE
  5
2E6
  8
LAYER_01
 66
     1
 10
0.0
 20
0.0
 30
0.0
 70
     1
  0
VERTEX
  5
2E7
  8
LAYER_01
 10
384.042664566204
 20
389.7692114409559
 30
0.0
  0
VERTEX
  5
2E8
  8
LAYER_01
 10
391.4625544687573
 20
389.7692114409557
 30
0.0
  0
VERTEX
  5
2E9
  8
LAYER_01
 10
391.4625544687573
 20
385.6217455287509
 30
0.0
  0
VERTEX
  5
2EA
  8
LAYER_01
 10
387.8793774554019
 20
383.5529973155361
 30
0.0
  0
SEQEND
  5
2EB
  8
LAYER_01
  0
POLYLINE
  5
2EC
  8
LAYER_01
 66
     1
 10
0.0
 20
0.0
 30
0.0
 70
     1
  0
VERTEX
  5
2ED
  8
LAYER_01
 10
399.6085823360022
 20
371.1720310493685
 30
0.0
  0
VERTEX
  5
2EE
  8
LAYER_01
 10
401.6846697631732
 20
374.7679199541838
 30
0.0
  0
VERTEX
  5
2EF
  8
LAYER_01
 10
398.3121950901692
 20
379.1397336678688
 30
0.0
  0
VERTEX
  5
2F0
  8
LAYER_01
 10
393.8801446192962
 20
374.7076831969961
 30
0.0
  0
SEQEND
  5
2F1
  8
LAYER_01
  0
POLYLINE
  5
2F2
  8
LAYER_01
 66
     1
 10
0.0
 20
0.0
 30
0.0
 70
     1
  0
VERTEX
  5
2F3
  8
LAYER_01
 10
398.6081506028642
 20
369.4392324580693
 30
0.0
  0
VERTEX
  5
2F4
  8
LAYER_01
 10
392.8626758355397
 20
372.9854000529423
 30
0.0
  0
VERTEX
  5
2F5
  8
LAYER_01
 10
390.4768097909874
 20
364.7886341186631
 30
0.0
  0
VERTEX
  5
2F6
  8
LAYER_01
 10
392.8626758355396
 20
356.5918681843841
 30
0.0
  0
VERTEX
  5
2F7
  8
LAYER_01
 10
398.6081506028643
 20
360.1380357792572
 30
0.0
  0
VERTEX
  5
2F8
  8
LAYER_01
 10
395.9231263997153
 20
364.7886341186633
 30
0.0
  0
SEQEND
  5
2F9
  8
LAYER_01
  0
POLYLINE
  5
2FA
  8
LAYER_01
 66
     1
 10
0.0
 20
0.0
 30
0.0
 70
     1
  0
VERTEX
  5
2FB
  8
LAYER_01
 10
400.3108134423254
 20
368.3883310041756
 30
0.0
  0
VERTEX
  5
2FC
  8
LAYER_01
 10
398.2325274764738
 20
364.7886341186633
 30
0.0
  0
VERTEX
  5
2FD
  8
LAYER_01
 10
400.3108134423254
 20
361.188937233151
 30
0.0
  0
VERTEX
  5
2FE
  8
LAYER_01
 10
406.1430159743289
 20
364.7886341186633
 30
0.0
  0
SEQEND
  5
2FF
  8
LAYER_01
  0
POLYLINE
  5
300
  8
LAYER_01
 66
     1
 10
0.0
 20
0.0
 30
0.0
 70
     1
  0
VERTEX
  5
301
  8
LAYER_01
 10
401.3112451754633
 20
370.1211295954747
 30
0.0
  0
VERTEX
  5
302
  8
LAYER_01
 10
407.5274593008826
 20
366.284416706277
 30
0.0
  0
VERTEX
  5
303
  8
LAYER_01
 10
407.5274593008826
 20
373.7043066088302
 30
0.0
  0
VERTEX
  5
304
  8
LAYER_01
 10
403.3799933886782
 20
373.7043066088302
 30
0.0
  0
SEQEND
  5
305
  8
LAYER_01
  0
POLYLINE
  5
306
  8
LAYER_01
 66
     1
 10
0.0
 20
0.0
 30
0.0
 70
     1
  0
VERTEX
  5
307
  8
LAYER_01
 10
401.3112451754633
 20
359.4561386418518
 30
0.0
  0
VERTEX
  5
308
  8
LAYER_01
 10
407.5274593008826
 20
363.2928515310494
 30
0.0
  0
VERTEX
  5
309
  8
LAYER_01
 10
407.5274593008826
 20
355.8729616284965
 30
0.0
  0
VERTEX
  5
30A
  8
LAYER_01
 10
403.3799933886783
 20
355.8729616284964
 30
0.0
  0
SEQEND
  5
30B
  8
LAYER_01
  0
POLYLINE
  5
30C
  8
LAYER_01
 66
     1
 10
0.0
 20
0.0
 30
0.0
 70
     1
  0
VERTEX
  5
30D
  8
LAYER_01
 10
409.5274593008826
 20
363.2928515310495
 30
0.0
  0
VERTEX
  5
30E
  8
LAYER_01
 10
409.5274593008826
 20
355.8729616284964
 30
0.0
  0
VERTEX
  5
30F
  8
LAYER_01
 10
413.6749252130871
 20
355.8729616284964
 30
0.0
  0
VERTEX
  5
310
  8
LAYER_01
 10
415.7436734263019
 20
359.4561386418518
 30
0.0
  0
SEQEND
  5
311
  8
LAYER_01
  0
POLYLINE
  5
312
  8
LAYER_01
 66
     1
 10
0.0
 20
0.0
 30
0.0
 70
     1
  0
VERTEX
  5
313
  8
LAYER_01
 10
407.5274593008826
 20
344.9460568900748
 30
0.0
  0
VERTEX
  5
314
  8
LAYER_01
 10
407.5274593008826
 20
339.8080567963712
 30
0.0
  0
VERTEX
  5
315
  8
LAYER_01
 10
402.389459207179
 20
339.8080567963711
 30
0.0
  0
VERTEX
  5
316
  8
LAYER_01
 10
400.2798754605815
 20
347.0556406366724
 30
0.0
  0
SEQEND
  5
317
  8
LAYER_01
  0
POLYLINE
  5
318
  8
LAYER_01
 66
     1
 10
0.0
 20
0.0
 30
0.0
 70
     1
  0
VERTEX
  5
319
  8
LAYER_01
 10
409.5274593008826
 20
344.9460568900748
 30
0.0
  0
VERTEX
  5
31A
  8
LAYER_01
 10
416.7750431411839
 20
347.0556406366723
 30
0.0
  0
VERTEX
  5
31B
  8
LAYER_01
 10
414.6654593945863
 20
339.8080567963711
 30
0.0
  0
VERTEX
  5
31C
  8
LAYER_01
 10
409.5274593008827
 20
339.8080567963712
 30
0.0
  0
SEQEND
  5
31D
  8
LAYER_01
  0
POLYLINE
  5
31E
  8
LAYER_01
 66
     1
 10
0.0
 20
0.0
 30
0.0
 70
     1
  0
VERTEX
  5
31F
  8
LAYER_01
 10
429.1755411463633
 20
346.0242709217904
 30
0.0
  0
VERTEX
  5
320
  8
LAYER_01
 10
433.0122540355612
 20
339.8080567963707
 30
0.0
  0
VERTEX
  5
321
  8
LAYER_01
 10
425.5923641330078
 20
339.8080567963708
 30
0.0
  0
VERTEX
  5
322
  8
LAYER_01
 10
425.5923641330078
 20
343.9555227085755
 30
0.0
  0
SEQEND
  5
323
  8
LAYER_01
  0
POLYLINE
  5
324
  8
LAYER_01
 66
     1
 10
0.0
 20
0.0
 30
0.0
 70
     1
  0
VERTEX
  5
325
  8
LAYER_01
 10
409.5274593008826
 20
384.6312113472518
 30
0.0
  0
VERTEX
  5
326
  8
LAYER_01
 10
409.5274593008826
 20
389.7692114409554
 30
0.0
  0
VERTEX
  5
327
  8
LAYER_01
 10
414.6654593945862
 20
389.7692114409554
 30
0.0
  0
VERTEX
  5
328
  8
LAYER_01
 10
416.7750431411837
 20
382.5216276006542
 30
0.0
  0
SEQEND
  5
329
  8
LAYER_01
  0
POLYLINE
  5
32A
  8
LAYER_01
 66
     1
 10
0.0
 20
0.0
 30
0.0
 70
     1
  0
VERTEX
  5
32B
  8
LAYER_01
 10
407.5274593008826
 20
384.6312113472518
 30
0.0
  0
VERTEX
  5
32C
  8
LAYER_01
 10
400.2798754605814
 20
382.5216276006543
 30
0.0
  0
VERTEX
  5
32D
  8
LAYER_01
 10
402.389459207179
 20
389.7692114409555
 30
0.0
  0
VERTEX
  5
32E
  8
LAYER_01
 10
407.5274593008825
 20
389.7692114409554
 30
0.0
  0
SEQEND
  5
32F
  8
LAYER_01
  0
POLYLINE
  5
330
  8
LAYER_01
 66
     1
 10
0.0
 20
0.0
 30
0.0
 70
     1
  0
VERTEX
  5
331
  8
LAYER_01
 10
390.7944658188916
 20
356.541050278362
 30
0.0
  0
VERTEX
  5
332
  8
LAYER_01
 10
383.5468819785905
 20
358.6506340249596
 30
0.0
  0
VERTEX
  5
333
  8
LAYER_01
 10
383.5468819785906
 20
363.7886341186631
 30
0.0
  0
VERTEX
  5
334
  8
LAYER_01
 10
388.6848820722942
 20
363.7886341186632
 30
0.0
  0
SEQEND
  5
335
  8
LAYER_01
  0
POLYLINE
  5
336
  8
LAYER_01
 66
     1
 10
0.0
 20
0.0
 30
0.0
 70
     1
  0
VERTEX
  5
337
  8
LAYER_01
 10
390.7944658188918
 20
373.0362179589643
 30
0.0
  0
VERTEX
  5
338
  8
LAYER_01
 10
388.6848820722942
 20
365.7886341186632
 30
0.0
  0
VERTEX
  5
339
  8
LAYER_01
 10
383.5468819785906
 20
365.7886341186633
 30
0.0
  0
VERTEX
  5
33A
  8
LAYER_01
 10
383.5468819785905
 20
370.9266342123668
 30
0.0
  0
SEQEND
  5
33B
  8
LAYER_01
  0
POLYLINE
  5
33C
  8
LAYER_01
 66
     1
 10
0.0
 20
0.0
 30
0.0
 70
     1
  0
VERTEX
  5
33D
  8
LAYER_01
 10
426.2604527828736
 20
373.0362179589645
 30
0.0
  0
VERTEX
  5
33E
  8
LAYER_01
 10
433.5080366231748
 20
370.9266342123669
 30
0.0
  0
VERTEX
  5
33F
  8
LAYER_01
 10
433.5080366231747
 20
365.7886341186634
 30
0.0
  0
VERTEX
  5
340
  8
LAYER_01
 10
428.3700365294711
 20
365.7886341186633
 30
0.0
  0
SEQEND
  5
341
  8
LAYER_01
  0
POLYLINE
  5
342
  8
LAYER_01
 66
     1
 10
0.0
 20
0.0
 30
0.0
 70
     1
  0
VERTEX
  5
343
  8
LAYER_01
 10
426.2604527828735
 20
356.5410502783622
 30
0.0
  0
VERTEX
  5
344
  8
LAYER_01
 10
428.3700365294711
 20
363.7886341186633
 30
0.0
  0
VERTEX
  5
345
  8
LAYER_01
 10
433.5080366231747
 20
363.7886341186633
 30
0.0
  0
VERTEX
  5
346
  8
LAYER_01
 10
433.5080366231747
 20
358.6506340249597
 30
0.0
  0
SEQEND
  5
347
  8
LAYER_01
  0
POLYLINE
  5
348
  8
LAYER_01
 66
     1
 10
0.0
 20
0.0
 30
0.0
 70
     1
  0
VERTEX
  5
349
  8
LAYER_01
 10
413.674925213087
 20
373.7043066088302
 30
0.0
  0
VERTEX
  5
34A
  8
LAYER_01
 10
409.5274593008826
 20
373.7043066088302
 30
0.0
  0
VERTEX
  5
34B
  8
LAYER_01
 10
409.5274593008826
 20
366.2844167062771
 30
0.0
  0
VERTEX
  5
34C
  8
LAYER_01
 10
415.7436734263019
 20
370.1211295954747
 30
0.0
  0
SEQEND
  5
34D
  8
LAYER_01
  0
POLYLINE
  5
34E
  8
LAYER_01
 66
     1
 10
0.0
 20
0.0
 30
0.0
 70
     1
  0
VERTEX
  5
34F
  8
LAYER_01
 10
393.4625544687574
 20
389.7692114409557
 30
0.0
  0
VERTEX
  5
350
  8
LAYER_01
 10
393.4625544687572
 20
385.7300090745641
 30
0.0
  0
VERTEX
  5
351
  8
LAYER_01
 10
398.0913974579244
 20
382.159258633526
 30
0.0
  0
VERTEX
  5
352
  8
LAYER_01
 10
400.3064574156523
 20
389.7692114409555
 30
0.0
  0
SEQEND
  5
353
  8
LAYER_01
  0
POLYLINE
  5
354
  8
LAYER_01
 66
     1
 10
0.0
 20
0.0
 30
0.0
 70
     1
  0
VERTEX
  5
355
  8
LAYER_01
 10
392.4659310569232
 20
353.4553714779573
 30
0.0
  0
VERTEX
  5
356
  8
LAYER_01
 10
396.8979815277959
 20
349.0233210070846
 30
0.0
  0
VERTEX
  5
357
  8
LAYER_01
 10
392.5261678141107
 20
345.6508463340807
 30
0.0
  0
VERTEX
  5
358
  8
LAYER_01
 10
388.9302789092958
 20
347.7269337612515
 30
0.0
  0
SEQEND
  5
359
  8
LAYER_01
  0
POLYLINE
  5
35A
  8
LAYER_01
 66
     1
 10
0.0
 20
0.0
 30
0.0
 70
     1
  0
VERTEX
  5
35B
  8
LAYER_01
 10
403.4882569344915
 20
353.8729616284963
 30
0.0
  0
VERTEX
  5
35C
  8
LAYER_01
 10
399.9175064934532
 20
349.2441186393294
 30
0.0
  0
VERTEX
  5
35D
  8
LAYER_01
 10
407.5274593008826
 20
347.0290586816014
 30
0.0
  0
VERTEX
  5
35E
  8
LAYER_01
 10
407.5274593008827
 20
353.8729616284964
 30
0.0
  0
SEQEND
  5
35F
  8
LAYER_01
  0
POLYLINE
  5
360
  8
LAYER_01
 66
     1
 10
0.0
 20
0.0
 30
0.0
 70
     1
  0
VERTEX
  5
361
  8
LAYER_01
 10
384.0426645662042
 20
339.808056796371
 30
0.0
  0
VERTEX
  5
362
  8
LAYER_01
 10
387.879377455402
 20
346.0242709217904
 30
0.0
  0
VERTEX
  5
363
  8
LAYER_01
 10
391.4625544687575
 20
343.9555227085755
 30
0.0
  0
VERTEX
  5
364
  8
LAYER_01
 10
391.4625544687575
 20
339.808056796371
 30
0.0
  0
SEQEND
  5
365
  8
LAYER_01
  0
POLYLINE
  5
366
  8
LAYER_01
 66
     1
 10
0.0
 20
0.0
 30
0.0
 70
     1
  0
VERTEX
  5
367
  8
LAYER_01
 10
423.5923641330078
 20
343.8472591627625
 30
0.0
  0
VERTEX
  5
368
  8
LAYER_01
 10
418.9635211438409
 20
347.4180096038006
 30
0.0
  0
VERTEX
  5
369
  8
LAYER_01
 10
416.7484611861129
 20
339.808056796371
 30
0.0
  0
VERTEX
  5
36A
  8
LAYER_01
 10
423.5923641330078
 20
339.8080567963709
 30
0.0
  0
SEQEND
  5
36B
  8
LAYER_01
  0
POLYLINE
  5
36C
  8
LAYER_01
 66
     1
 10
0.0
 20
0.0
 30
0.0
 70
     1
  0
VERTEX
  5
36D
  8
LAYER_01
 10
423.174773982469
 20
354.8695850403304
 30
0.0
  0
VERTEX
  5
36E
  8
LAYER_01
 10
417.446336265763
 20
358.405237187958
 30
0.0
  0
VERTEX
  5
36F
  8
LAYER_01
 10
415.3702488385919
 20
354.8093482831427
 30
0.0
  0
VERTEX
  5
370
  8
LAYER_01
 10
418.7427235115961
 20
350.4375345694577
 30
0.0
  0
SEQEND
  5
371
  8
LAYER_01
  0
POLYLINE
  5
372
  8
LAYER_01
 66
     1
 10
0.0
 20
0.0
 30
0.0
 70
     1
  0
VERTEX
  5
373
  8
LAYER_01
 10
428.1246396924696
 20
381.850334476075
 30
0.0
  0
VERTEX
  5
374
  8
LAYER_01
 10
424.5287507876542
 20
383.9264219032459
 30
0.0
  0
VERTEX
  5
375
  8
LAYER_01
 10
420.1569370739691
 20
380.553947230242
 30
0.0
  0
VERTEX
  5
376
  8
LAYER_01
 10
424.5889875448421
 20
376.1218967593692
 30
0.0
  0
SEQEND
  5
377
  8
LAYER_01
  0
POLYLINE
  5
378
  8
LAYER_01
 66
     1
 10
0.0
 20
0.0
 30
0.0
 70
     1
  0
VERTEX
  5
379
  8
LAYER_01
 10
417.4463362657631
 20
371.1720310493685
 30
0.0
  0
VERTEX
  5
37A
  8
LAYER_01
 10
415.370248838592
 20
374.7679199541838
 30
0.0
  0
VERTEX
  5
37B
  8
LAYER_01
 10
418.7427235115961
 20
379.1397336678688
 30
0.0
  0
VERTEX
  5
37C
  8
LAYER_01
 10
423.1747739824691
 20
374.7076831969961
 30
0.0
  0
SEQEND
  5
37D
  8
LAYER_01
  0
POLYLINE
  5
37E
  8
LAYER_01
 66
     1
 10
0.0
 20
0.0
 30
0.0
 70
     1
  0
VERTEX
  5
37F
  8
LAYER_01
 10
423.5923641330079
 20
385.7300090745641
 30
0.0
  0
VERTEX
  5
380
  8
LAYER_01
 10
423.592364133008
 20
389.7692114409555
 30
0.0
  0
VERTEX
  5
381
  8
LAYER_01
 10
416.7484611861128
 20
389.7692114409555
 30
0.0
  0
VERTEX
  5
382
  8
LAYER_01
 10
418.9635211438407
 20
382.159258633526
 30
0.0
  0
SEQEND
  5
383
  8
LAYER_01
  0
POLYLINE
  5
384
  8
LAYER_01
 66
     1
 10
0.0
 20
0.0
 30
0.0
 70
     1
  0
VERTEX
  5
385
  8
LAYER_01
 10
429.1755411463633
 20
383.5529973155361
 30
0.0
  0
VERTEX
  5
386
  8
LAYER_01
 10
425.5923641330079
 20
385.6217455287509
 30
0.0
  0
VERTEX
  5
387
  8
LAYER_01
 10
425.5923641330079
 20
389.7692114409555
 30
0.0
  0
VERTEX
  5
388
  8
LAYER_01
 10
433.0122540355611
 20
389.7692114409556
 30
0.0
  0
SEQEND
  5
389
  8
LAYER_01
  0
POLYLINE
  5
38A
  8
LAYER_01
 66
     1
 10
0.0
 20
0.0
 30
0.0
 70
     1
  0
VERTEX
  5
38B
  8
LAYER_01
 10
357.5663046562982
 20
375.7043066088302
 30
0.0
  0
VERTEX
  5
38C
  8
LAYER_01
 10
357.5663046562982
 20
382.5482095557252
 30
0.0
  0
VERTEX
  5
38D
  8
LAYER_01
 10
365.1762574637277
 20
380.3331495979972
 30
0.0
  0
VERTEX
  5
38E
  8
LAYER_01
 10
361.6055070226894
 20
375.7043066088302
 30
0.0
  0
SEQEND
  5
38F
  8
LAYER_01
  0
POLYLINE
  5
390
  8
LAYER_01
 66
     1
 10
0.0
 20
0.0
 30
0.0
 70
     1
  0
VERTEX
  5
391
  8
LAYER_01
 10
351.5271022899071
 20
375.7043066088302
 30
0.0
  0
VERTEX
  5
392
  8
LAYER_01
 10
347.9563518488687
 20
380.3331495979972
 30
0.0
  0
VERTEX
  5
393
  8
LAYER_01
 10
355.5663046562982
 20
382.5482095557252
 30
0.0
  0
VERTEX
  5
394
  8
LAYER_01
 10
355.5663046562981
 20
375.7043066088303
 30
0.0
  0
SEQEND
  5
395
  8
LAYER_01
  0
POLYLINE
  5
396
  8
LAYER_01
 66
     1
 10
0.0
 20
0.0
 30
0.0
  0
VERTEX
  5
397
  8
LAYER_01
 10
330.5857273340062
 20
351.4123896975384
 30
0.0
  0
VERTEX
  5
398
  8
LAYER_01
 10
335.2363256734121
 20
348.7273654943895
 30
0.0
  0
VERTEX
  5
399
  8
LAYER_01
 10
338.7824932682853
 20
354.4728402617143
 30
0.0
  0
VERTEX
  5
39A
  8
LAYER_01
 10
330.5857273340062
 20
356.8587063062664
 30
0.0
  0
SEQEND
  5
39B
  8
LAYER_01
  0
POLYLINE
  5
39C
  8
LAYER_01
 66
     1
 10
0.0
 20
0.0
 30
0.0
  0
VERTEX
  5
39D
  8
LAYER_01
 10
330.5857273340061
 20
341.1925001229249
 30
0.0
  0
VERTEX
  5
39E
  8
LAYER_01
 10
334.1854242195183
 20
347.0247026549284
 30
0.0
  0
VERTEX
  5
39F
  8
LAYER_01
 10
330.5857273340062
 20
349.1029886207799
 30
0.0
  0
SEQEND
  5
3A0
  8
LAYER_01
  0
POLYLINE
  5
3A1
  8
LAYER_01
 66
     1
 10
0.0
 20
0.0
 30
0.0
  0
VERTEX
  5
3A2
  8
LAYER_01
 10
330.585727334006
 20
372.7185619310602
 30
0.0
  0
VERTEX
  5
3A3
  8
LAYER_01
 10
338.7824932682852
 20
375.1044279756123
 30
0.0
  0
VERTEX
  5
3A4
  8
LAYER_01
 10
335.2363256734121
 20
380.849902742937
 30
0.0
  0
VERTEX
  5
3A5
  8
LAYER_01
 10
330.5857273340062
 20
378.1648785397882
 30
0.0
  0
SEQEND
  5
3A6
  8
LAYER_01
  0
POLYLINE
  5
3A7
  8
LAYER_01
 66
     1
 10
0.0
 20
0.0
 30
0.0
  0
VERTEX
  5
3A8
  8
LAYER_01
 10
330.5857273340062
 20
380.4742796165466
 30
0.0
  0
VERTEX
  5
3A9
  8
LAYER_01
 10
334.1854242195183
 20
382.5525655823981
 30
0.0
  0
VERTEX
  5
3AA
  8
LAYER_01
 10
330.5857273340062
 20
388.3847681144015
 30
0.0
  0
SEQEND
  5
3AB
  8
LAYER_01
  0
POLYLINE
  5
3AC
  8
LAYER_01
 66
     1
 10
0.0
 20
0.0
 30
0.0
 70
     1
  0
VERTEX
  5
3AD
  8
LAYER_01
 10
371.6312094884233
 20
339.8080567963711
 30
0.0
  0
VERTEX
  5
3AE
  8
LAYER_01
 10
371.6312094884237
 20
343.8472591627625
 30
0.0
  0
VERTEX
  5
3AF
  8
LAYER_01
 10
367.0023664992564
 20
347.4180096038007
 30
0.0
  0
VERTEX
  5
3B0
  8
LAYER_01
 10
364.7873065415284
 20
339.8080567963711
 30
0.0
  0
SEQEND
  5
3B1
  8
LAYER_01
  0
POLYLINE
  5
3B2
  8
LAYER_01
 66
     1
 10
0.0
 20
0.0
 30
0.0
 70
     1
  0
VERTEX
  5
3B3
  8
LAYER_01
 10
372.56759614307
 20
383.9264219032459
 30
0.0
  0
VERTEX
  5
3B4
  8
LAYER_01
 10
368.1957824293847
 20
380.5539472302418
 30
0.0
  0
VERTEX
  5
3B5
  8
LAYER_01
 10
372.6278329002576
 20
376.1218967593692
 30
0.0
  0
VERTEX
  5
3B6
  8
LAYER_01
 10
376.1634850478852
 20
381.850334476075
 30
0.0
  0
SEQEND
  5
3B7
  8
LAYER_01
  0
POLYLINE
  5
3B8
  8
LAYER_01
 66
     1
 10
0.0
 20
0.0
 30
0.0
 70
     1
  0
VERTEX
  5
3B9
  8
LAYER_01
 10
347.9563518488687
 20
349.2441186393293
 30
0.0
  0
VERTEX
  5
3BA
  8
LAYER_01
 10
351.5271022899071
 20
353.8729616284964
 30
0.0
  0
VERTEX
  5
3BB
  8
LAYER_01
 10
355.5663046562981
 20
353.8729616284963
 30
0.0
  0
VERTEX
  5
3BC
  8
LAYER_01
 10
355.5663046562982
 20
347.0290586816013
 30
0.0
  0
SEQEND
  5
3BD
  8
LAYER_01
  0
POLYLINE
  5
3BE
  8
LAYER_01
 66
     1
 10
0.0
 20
0.0
 30
0.0
 70
     1
  0
VERTEX
  5
3BF
  8
LAYER_01
 10
366.7815688670116
 20
350.4375345694577
 30
0.0
  0
VERTEX
  5
3C0
  8
LAYER_01
 10
371.2136193378846
 20
354.8695850403303
 30
0.0
  0
VERTEX
  5
3C1
  8
LAYER_01
 10
365.4851816211785
 20
358.4052371879581
 30
0.0
  0
VERTEX
  5
3C2
  8
LAYER_01
 10
363.4090941940075
 20
354.8093482831427
 30
0.0
  0
SEQEND
  5
3C3
  8
LAYER_01
  0
POLYLINE
  5
3C4
  8
LAYER_01
 66
     1
 10
0.0
 20
0.0
 30
0.0
 70
     1
  0
VERTEX
  5
3C5
  8
LAYER_01
 10
336.9691242647114
 20
347.7269337612515
 30
0.0
  0
VERTEX
  5
3C6
  8
LAYER_01
 10
340.5650131695266
 20
345.6508463340807
 30
0.0
  0
VERTEX
  5
3C7
  8
LAYER_01
 10
344.9368268832117
 20
349.0233210070846
 30
0.0
  0
VERTEX
  5
3C8
  8
LAYER_01
 10
340.5047764123388
 20
353.4553714779573
 30
0.0
  0
SEQEND
  5
3C9
  8
LAYER_01
  0
POLYLINE
  5
3CA
  8
LAYER_01
 66
     1
 10
0.0
 20
0.0
 30
0.0
 70
     1
  0
VERTEX
  5
3CB
  8
LAYER_01
 10
346.2713728318894
 20
364.7886341186633
 30
0.0
  0
VERTEX
  5
3CC
  8
LAYER_01
 10
348.349658797741
 20
361.188937233151
 30
0.0
  0
VERTEX
  5
3CD
  8
LAYER_01
 10
354.1818613297444
 20
364.7886341186633
 30
0.0
  0
VERTEX
  5
3CE
  8
LAYER_01
 10
348.3496587977409
 20
368.3883310041755
 30
0.0
  0
SEQEND
  5
3CF
  8
LAYER_01
  0
POLYLINE
  5
3D0
  8
LAYER_01
 66
     1
 10
0.0
 20
0.0
 30
0.0
 70
     1
  0
VERTEX
  5
3D1
  8
LAYER_01
 10
340.9015211909552
 20
356.5918681843842
 30
0.0
  0
VERTEX
  5
3D2
  8
LAYER_01
 10
346.6469959582798
 20
360.1380357792572
 30
0.0
  0
VERTEX
  5
3D3
  8
LAYER_01
 10
343.9619717551309
 20
364.7886341186633
 30
0.0
  0
VERTEX
  5
3D4
  8
LAYER_01
 10
346.6469959582798
 20
369.4392324580693
 30
0.0
  0
VERTEX
  5
3D5
  8
LAYER_01
 10
340.9015211909551
 20
372.9854000529424
 30
0.0
  0
VERTEX
  5
3D6
  8
LAYER_01
 10
338.515655146403
 20
364.7886341186634
 30
0.0
  0
SEQEND
  5
3D7
  8
LAYER_01
  0
POLYLINE
  5
3D8
  8
LAYER_01
 66
     1
 10
0.0
 20
0.0
 30
0.0
 70
     1
  0
VERTEX
  5
3D9
  8
LAYER_01
 10
381.0510993909768
 20
389.7692114409559
 30
0.0
  0
VERTEX
  5
3DA
  8
LAYER_01
 10
373.6312094884235
 20
389.7692114409557
 30
0.0
  0
VERTEX
  5
3DB
  8
LAYER_01
 10
373.6312094884235
 20
385.6217455287509
 30
0.0
  0
VERTEX
  5
3DC
  8
LAYER_01
 10
377.2143865017789
 20
383.5529973155361
 30
0.0
  0
SEQEND
  5
3DD
  8
LAYER_01
  0
POLYLINE
  5
3DE
  8
LAYER_01
 66
     1
 10
0.0
 20
0.0
 30
0.0
 70
     1
  0
VERTEX
  5
3DF
  8
LAYER_01
 10
365.4851816211786
 20
371.1720310493685
 30
0.0
  0
VERTEX
  5
3E0
  8
LAYER_01
 10
363.4090941940076
 20
374.7679199541838
 30
0.0
  0
VERTEX
  5
3E1
  8
LAYER_01
 10
366.7815688670116
 20
379.1397336678688
 30
0.0
  0
VERTEX
  5
3E2
  8
LAYER_01
 10
371.2136193378846
 20
374.7076831969961
 30
0.0
  0
SEQEND
  5
3E3
  8
LAYER_01
  0
POLYLINE
  5
3E4
  8
LAYER_01
 66
     1
 10
0.0
 20
0.0
 30
0.0
 70
     1
  0
VERTEX
  5
3E5
  8
LAYER_01
 10
366.4856133543167
 20
369.4392324580693
 30
0.0
  0
VERTEX
  5
3E6
  8
LAYER_01
 10
372.2310881216412
 20
372.9854000529423
 30
0.0
  0
VERTEX
  5
3E7
  8
LAYER_01
 10
374.6169541661934
 20
364.7886341186631
 30
0.0
  0
VERTEX
  5
3E8
  8
LAYER_01
 10
372.2310881216413
 20
356.5918681843841
 30
0.0
  0
VERTEX
  5
3E9
  8
LAYER_01
 10
366.4856133543166
 20
360.1380357792572
 30
0.0
  0
VERTEX
  5
3EA
  8
LAYER_01
 10
369.1706375574655
 20
364.7886341186633
 30
0.0
  0
SEQEND
  5
3EB
  8
LAYER_01
  0
POLYLINE
  5
3EC
  8
LAYER_01
 66
     1
 10
0.0
 20
0.0
 30
0.0
 70
     1
  0
VERTEX
  5
3ED
  8
LAYER_01
 10
364.7829505148555
 20
368.3883310041756
 30
0.0
  0
VERTEX
  5
3EE
  8
LAYER_01
 10
366.861236480707
 20
364.7886341186633
 30
0.0
  0
VERTEX
  5
3EF
  8
LAYER_01
 10
364.7829505148554
 20
361.188937233151
 30
0.0
  0
VERTEX
  5
3F0
  8
LAYER_01
 10
358.950747982852
 20
364.7886341186633
 30
0.0
  0
SEQEND
  5
3F1
  8
LAYER_01
  0
POLYLINE
  5
3F2
  8
LAYER_01
 66
     1
 10
0.0
 20
0.0
 30
0.0
 70
     1
  0
VERTEX
  5
3F3
  8
LAYER_01
 10
363.7825187817176
 20
370.1211295954747
 30
0.0
  0
VERTEX
  5
3F4
  8
LAYER_01
 10
357.5663046562982
 20
366.284416706277
 30
0.0
  0
VERTEX
  5
3F5
  8
LAYER_01
 10
357.5663046562983
 20
373.7043066088302
 30
0.0
  0
VERTEX
  5
3F6
  8
LAYER_01
 10
361.7137705685026
 20
373.7043066088302
 30
0.0
  0
SEQEND
  5
3F7
  8
LAYER_01
  0
POLYLINE
  5
3F8
  8
LAYER_01
 66
     1
 10
0.0
 20
0.0
 30
0.0
 70
     1
  0
VERTEX
  5
3F9
  8
LAYER_01
 10
363.7825187817175
 20
359.4561386418518
 30
0.0
  0
VERTEX
  5
3FA
  8
LAYER_01
 10
357.5663046562982
 20
363.2928515310494
 30
0.0
  0
VERTEX
  5
3FB
  8
LAYER_01
 10
357.5663046562982
 20
355.8729616284965
 30
0.0
  0
VERTEX
  5
3FC
  8
LAYER_01
 10
361.7137705685026
 20
355.8729616284964
 30
0.0
  0
SEQEND
  5
3FD
  8
LAYER_01
  0
POLYLINE
  5
3FE
  8
LAYER_01
 66
     1
 10
0.0
 20
0.0
 30
0.0
 70
     1
  0
VERTEX
  5
3FF
  8
LAYER_01
 10
355.5663046562982
 20
363.2928515310495
 30
0.0
  0
VERTEX
  5
400
  8
LAYER_01
 10
355.5663046562982
 20
355.8729616284964
 30
0.0
  0
VERTEX
  5
401
  8
LAYER_01
 10
351.4188387440938
 20
355.8729616284964
 30
0.0
  0
VERTEX
  5
402
  8
LAYER_01
 10
349.3500905308789
 20
359.4561386418518
 30
0.0
  0
SEQEND
  5
403
  8
LAYER_01
  0
POLYLINE
  5
404
  8
LAYER_01
 66
     1
 10
0.0
 20
0.0
 30
0.0
 70
     1
  0
VERTEX
  5
405
  8
LAYER_01
 10
357.5663046562982
 20
344.9460568900748
 30
0.0
  0
VERTEX
  5
406
  8
LAYER_01
 10
357.5663046562983
 20
339.8080567963712
 30
0.0
  0
VERTEX
  5
407
  8
LAYER_01
 10
362.7043047500018
 20
339.8080567963711
 30
0.0
  0
VERTEX
  5
408
  8
LAYER_01
 10
364.8138884965993
 20
347.0556406366724
 30
0.0
  0
SEQEND
  5
409
  8
LAYER_01
  0
POLYLINE
  5
40A
  8
LAYER_01
 66
     1
 10
0.0
 20
0.0
 30
0.0
 70
     1
  0
VERTEX
  5
40B
  8
LAYER_01
 10
355.5663046562982
 20
344.9460568900748
 30
0.0
  0
VERTEX
  5
40C
  8
LAYER_01
 10
348.318720815997
 20
347.0556406366723
 30
0.0
  0
VERTEX
  5
40D
  8
LAYER_01
 10
350.4283045625946
 20
339.8080567963711
 30
0.0
  0
VERTEX
  5
40E
  8
LAYER_01
 10
355.5663046562981
 20
339.8080567963712
 30
0.0
  0
SEQEND
  5
40F
  8
LAYER_01
  0
POLYLINE
  5
410
  8
LAYER_01
 66
     1
 10
0.0
 20
0.0
 30
0.0
 70
     1
  0
VERTEX
  5
411
  8
LAYER_01
 10
335.9182228108175
 20
346.0242709217904
 30
0.0
  0
VERTEX
  5
412
  8
LAYER_01
 10
332.0815099216196
 20
339.8080567963707
 30
0.0
  0
VERTEX
  5
413
  8
LAYER_01
 10
339.5013998241731
 20
339.8080567963708
 30
0.0
  0
VERTEX
  5
414
  8
LAYER_01
 10
339.5013998241731
 20
343.9555227085755
 30
0.0
  0
SEQEND
  5
415
  8
LAYER_01
  0
POLYLINE
  5
416
  8
LAYER_01
 66
     1
 10
0.0
 20
0.0
 30
0.0
 70
     1
  0
VERTEX
  5
417
  8
LAYER_01
 10
355.5663046562983
 20
384.6312113472518
 30
0.0
  0
VERTEX
  5
418
  8
LAYER_01
 10
355.5663046562982
 20
389.7692114409554
 30
0.0
  0
VERTEX
  5
419
  8
LAYER_01
 10
350.4283045625946
 20
389.7692114409554
 30
0.0
  0
VERTEX
  5
41A
  8
LAYER_01
 10
348.3187208159972
 20
382.5216276006542
 30
0.0
  0
SEQEND
  5
41B
  8
LAYER_01
  0
POLYLINE
  5
41C
  8
LAYER_01
 66
     1
 10
0.0
 20
0.0
 30
0.0
 70
     1
  0
VERTEX
  5
41D
  8
LAYER_01
 10
357.5663046562983
 20
384.6312113472518
 30
0.0
  0
VERTEX
  5
41E
  8
LAYER_01
 10
364.8138884965995
 20
382.5216276006543
 30
0.0
  0
VERTEX
  5
41F
  8
LAYER_01
 10
362.7043047500019
 20
389.7692114409555
 30
0.0
  0
VERTEX
  5
420
  8
LAYER_01
 10
357.5663046562983
 20
389.7692114409554
 30
0.0
  0
SEQEND
  5
421
  8
LAYER_01
  0
POLYLINE
  5
422
  8
LAYER_01
 66
     1
 10
0.0
 20
0.0
 30
0.0
 70
     1
  0
VERTEX
  5
423
  8
LAYER_01
 10
374.2992981382892
 20
356.541050278362
 30
0.0
  0
VERTEX
  5
424
  8
LAYER_01
 10
381.5468819785904
 20
358.6506340249596
 30
0.0
  0
VERTEX
  5
425
  8
LAYER_01
 10
381.5468819785902
 20
363.7886341186631
 30
0.0
  0
VERTEX
  5
426
  8
LAYER_01
 10
376.4088818848867
 20
363.7886341186632
 30
0.0
  0
SEQEND
  5
427
  8
LAYER_01
  0
POLYLINE
  5
428
  8
LAYER_01
 66
     1
 10
0.0
 20
0.0
 30
0.0
 70
     1
  0
VERTEX
  5
429
  8
LAYER_01
 10
374.2992981382891
 20
373.0362179589643
 30
0.0
  0
VERTEX
  5
42A
  8
LAYER_01
 10
376.4088818848867
 20
365.7886341186632
 30
0.0
  0
VERTEX
  5
42B
  8
LAYER_01
 10
381.5468819785902
 20
365.7886341186633
 30
0.0
  0
VERTEX
  5
42C
  8
LAYER_01
 10
381.5468819785903
 20
370.9266342123668
 30
0.0
  0
SEQEND
  5
42D
  8
LAYER_01
  0
POLYLINE
  5
42E
  8
LAYER_01
 66
     1
 10
0.0
 20
0.0
 30
0.0
 70
     1
  0
VERTEX
  5
42F
  8
LAYER_01
 10
338.8333111743072
 20
373.0362179589645
 30
0.0
  0
VERTEX
  5
430
  8
LAYER_01
 10
331.585727334006
 20
370.9266342123669
 30
0.0
  0
VERTEX
  5
431
  8
LAYER_01
 10
331.5857273340062
 20
365.7886341186634
 30
0.0
  0
VERTEX
  5
432
  8
LAYER_01
 10
336.7237274277097
 20
365.7886341186633
 30
0.0
  0
SEQEND
  5
433
  8
LAYER_01
  0
POLYLINE
  5
434
  8
LAYER_01
 66
     1
 10
0.0
 20
0.0
 30
0.0
 70
     1
  0
VERTEX
  5
435
  8
LAYER_01
 10
338.8333111743073
 20
356.5410502783622
 30
0.0
  0
VERTEX
  5
436
  8
LAYER_01
 10
336.7237274277097
 20
363.7886341186633
 30
0.0
  0
VERTEX
  5
437
  8
LAYER_01
 10
331.5857273340062
 20
363.7886341186633
 30
0.0
  0
VERTEX
  5
438
  8
LAYER_01
 10
331.5857273340061
 20
358.6506340249597
 30
0.0
  0
SEQEND
  5
439
  8
LAYER_01
  0
POLYLINE
  5
43A
  8
LAYER_01
 66
     1
 10
0.0
 20
0.0
 30
0.0
 70
     1
  0
VERTEX
  5
43B
  8
LAYER_01
 10
351.4188387440938
 20
373.7043066088302
 30
0.0
  0
VERTEX
  5
43C
  8
LAYER_01
 10
355.5663046562982
 20
373.7043066088302
 30
0.0
  0
VERTEX
  5
43D
  8
LAYER_01
 10
355.5663046562982
 20
366.2844167062771
 30
0.0
  0
VERTEX
  5
43E
  8
LAYER_01
 10
349.3500905308789
 20
370.1211295954747
 30
0.0
  0
SEQEND
  5
43F
  8
LAYER_01
  0
POLYLINE
  5
440
  8
LAYER_01
 66
     1
 10
0.0
 20
0.0
 30
0.0
 70
     1
  0
VERTEX
  5
441
  8
LAYER_01
 10
371.6312094884235
 20
389.7692114409557
 30
0.0
  0
VERTEX
  5
442
  8
LAYER_01
 10
371.6312094884237
 20
385.7300090745641
 30
0.0
  0
VERTEX
  5
443
  8
LAYER_01
 10
367.0023664992565
 20
382.159258633526
 30
0.0
  0
VERTEX
  5
444
  8
LAYER_01
 10
364.7873065415286
 20
389.7692114409555
 30
0.0
  0
SEQEND
  5
445
  8
LAYER_01
  0
POLYLINE
  5
446
  8
LAYER_01
 66
     1
 10
0.0
 20
0.0
 30
0.0
 70
     1
  0
VERTEX
  5
447
  8
LAYER_01
 10
372.6278329002577
 20
353.4553714779573
 30
0.0
  0
VERTEX
  5
448
  8
LAYER_01
 10
368.1957824293849
 20
349.0233210070846
 30
0.0
  0
VERTEX
  5
449
  8
LAYER_01
 10
372.5675961430701
 20
345.6508463340807
 30
0.0
  0
VERTEX
  5
44A
  8
LAYER_01
 10
376.163485047885
 20
347.7269337612515
 30
0.0
  0
SEQEND
  5
44B
  8
LAYER_01
  0
POLYLINE
  5
44C
  8
LAYER_01
 66
     1
 10
0.0
 20
0.0
 30
0.0
 70
     1
  0
VERTEX
  5
44D
  8
LAYER_01
 10
361.6055070226893
 20
353.8729616284963
 30
0.0
  0
VERTEX
  5
44E
  8
LAYER_01
 10
365.1762574637277
 20
349.2441186393294
 30
0.0
  0
VERTEX
  5
44F
  8
LAYER_01
 10
357.5663046562982
 20
347.0290586816014
 30
0.0
  0
VERTEX
  5
450
  8
LAYER_01
 10
357.5663046562981
 20
353.8729616284964
 30
0.0
  0
SEQEND
  5
451
  8
LAYER_01
  0
POLYLINE
  5
452
  8
LAYER_01
 66
     1
 10
0.0
 20
0.0
 30
0.0
 70
     1
  0
VERTEX
  5
453
  8
LAYER_01
 10
381.0510993909766
 20
339.808056796371
 30
0.0
  0
VERTEX
  5
454
  8
LAYER_01
 10
377.2143865017788
 20
346.0242709217904
 30
0.0
  0
VERTEX
  5
455
  8
LAYER_01
 10
373.6312094884233
 20
343.9555227085755
 30
0.0
  0
VERTEX
  5
456
  8
LAYER_01
 10
373.6312094884233
 20
339.808056796371
 30
0.0
  0
SEQEND
  5
457
  8
LAYER_01
  0
POLYLINE
  5
458
  8
LAYER_01
 66
     1
 10
0.0
 20
0.0
 30
0.0
 70
     1
  0
VERTEX
  5
459
  8
LAYER_01
 10
341.501399824173
 20
343.8472591627625
 30
0.0
  0
VERTEX
  5
45A
  8
LAYER_01
 10
346.1302428133399
 20
347.4180096038006
 30
0.0
  0
VERTEX
  5
45B
  8
LAYER_01
 10
348.345302771068
 20
339.808056796371
 30
0.0
  0
VERTEX
  5
45C
  8
LAYER_01
 10
341.5013998241731
 20
339.8080567963709
 30
0.0
  0
SEQEND
  5
45D
  8
LAYER_01
  0
POLYLINE
  5
45E
  8
LAYER_01
 66
     1
 10
0.0
 20
0.0
 30
0.0
 70
     1
  0
VERTEX
  5
45F
  8
LAYER_01
 10
341.9189899747118
 20
354.8695850403304
 30
0.0
  0
VERTEX
  5
460
  8
LAYER_01
 10
347.6474276914178
 20
358.405237187958
 30
0.0
  0
VERTEX
  5
461
  8
LAYER_01
 10
349.7235151185889
 20
354.8093482831427
 30
0.0
  0
VERTEX
  5
462
  8
LAYER_01
 10
346.3510404455848
 20
350.4375345694577
 30
0.0
  0
SEQEND
  5
463
  8
LAYER_01
  0
POLYLINE
  5
464
  8
LAYER_01
 66
     1
 10
0.0
 20
0.0
 30
0.0
 70
     1
  0
VERTEX
  5
465
  8
LAYER_01
 10
336.9691242647112
 20
381.850334476075
 30
0.0
  0
VERTEX
  5
466
  8
LAYER_01
 10
340.5650131695266
 20
383.9264219032459
 30
0.0
  0
VERTEX
  5
467
  8
LAYER_01
 10
344.9368268832118
 20
380.553947230242
 30
0.0
  0
VERTEX
  5
468
  8
LAYER_01
 10
340.5047764123387
 20
376.1218967593692
 30
0.0
  0
SEQEND
  5
469
  8
LAYER_01
  0
POLYLINE
  5
46A
  8
LAYER_01
 66
     1
 10
0.0
 20
0.0
 30
0.0
 70
     1
  0
VERTEX
  5
46B
  8
LAYER_01
 10
347.6474276914178
 20
371.1720310493685
 30
0.0
  0
VERTEX
  5
46C
  8
LAYER_01
 10
349.7235151185889
 20
374.7679199541838
 30
0.0
  0
VERTEX
  5
46D
  8
LAYER_01
 10
346.3510404455848
 20
379.1397336678688
 30
0.0
  0
VERTEX
  5
46E
  8
LAYER_01
 10
341.9189899747117
 20
374.7076831969961
 30
0.0
  0
SEQEND
  5
46F
  8
LAYER_01
  0
POLYLINE
  5
470
  8
LAYER_01
 66
     1
 10
0.0
 20
0.0
 30
0.0
 70
     1
  0
VERTEX
  5
471
  8
LAYER_01
 10
341.5013998241729
 20
385.7300090745641
 30
0.0
  0
VERTEX
  5
472
  8
LAYER_01
 10
341.5013998241728
 20
389.7692114409555
 30
0.0
  0
VERTEX
  5
473
  8
LAYER_01
 10
348.3453027710681
 20
389.7692114409555
 30
0.0
  0
VERTEX
  5
474
  8
LAYER_01
 10
346.1302428133401
 20
382.159258633526
 30
0.0
  0
SEQEND
  5
475
  8
LAYER_01
  0
POLYLINE
  5
476
  8
LAYER_01
 66
     1
 10
0.0
 20
0.0
 30
0.0
 70
     1
  0
VERTEX
  5
477
  8
LAYER_01
 10
335.9182228108175
 20
383.5529973155361
 30
0.0
  0
VERTEX
  5
478
  8
LAYER_01
 10
339.5013998241729
 20
385.6217455287509
 30
0.0
  0
VERTEX
  5
479
  8
LAYER_01
 10
339.5013998241729
 20
389.7692114409555
 30
0.0
  0
VERTEX
  5
47A
  8
LAYER_01
 10
332.0815099216197
 20
389.7692114409556
 30
0.0
  0
SEQEND
  5
47B
  8
LAYER_01
  0
ENDSEC
  0
EOF
