  0
SECTION
  2
HEADER
  9
$ACADVER
  1
AC1009
  9
$DWGCODEPAGE
  3
ansi_1252
  9
$INSBASE
 10
0.0
 20
0.0
 30
0.0
  9
$EXTMIN
 10
1.000000000000000E+20
 20
1.000000000000000E+20
 30
1.000000000000000E+20
  9
$EXTMAX
 10
-1.000000000000000E+20
 20
-1.000000000000000E+20
 30
-1.000000000000000E+20
  9
$LIMMIN
 10
0.0
 20
0.0
  9
$LIMMAX
 10
12.0
 20
9.0
  9
$ORTHOMODE
 70
     0
  9
$REGENMODE
 70
     1
  9
$FILLMODE
 70
     1
  9
$QTEXTMODE
 70
     0
  9
$MIRRTEXT
 70
     1
  9
$DRAGMODE
 70
     2
  9
$LTSCALE
 40
1.0
  9
$OSMODE
 70
    37
  9
$ATTMODE
 70
     1
  9
$TEXTSIZE
 40
0.2
  9
$TRACEWID
 40
0.05
  9
$TEXTSTYLE
  7
STANDARD
  9
$CLAYER
  8
DEFAULT
  9
$CELTYPE
  6
BYLAYER
  9
$CECOLOR
 62
   256
  9
$DIMSCALE
 40
1.0
  9
$DIMASZ
 40
0.18
  9
$DIMEXO
 40
0.0625
  9
$DIMDLI
 40
0.38
  9
$DIMRND
 40
0.0
  9
$DIMDLE
 40
0.0
  9
$DIMEXE
 40
0.18
  9
$DIMTP
 40
0.0
  9
$DIMTM
 40
0.0
  9
$DIMTXT
 40
0.18
  9
$DIMCEN
 40
0.09
  9
$DIMTSZ
 40
0.0
  9
$DIMTOL
 70
     0
  9
$DIMLIM
 70
     0
  9
$DIMTIH
 70
     1
  9
$DIMTOH
 70
     1
  9
$DIMSE1
 70
     0
  9
$DIMSE2
 70
     0
  9
$DIMTAD
 70
     0
  9
$DIMZIN
 70
     0
  9
$DIMBLK
  1

  9
$DIMASO
 70
     1
  9
$DIMSHO
 70
     1
  9
$DIMPOST
  1

  9
$DIMAPOST
  1

  9
$DIMALT
 70
     0
  9
$DIMALTD
 70
     2
  9
$DIMALTF
 40
25.4
  9
$DIMLFAC
 40
1.0
  9
$DIMTOFL
 70
     0
  9
$DIMTVP
 40
0.0
  9
$DIMTIX
 70
     0
  9
$DIMSOXD
 70
     0
  9
$DIMSAH
 70
     0
  9
$DIMBLK1
  1

  9
$DIMBLK2
  1

  9
$DIMSTYLE
  2
STANDARD_ACAD
  9
$DIMCLRD
 70
     0
  9
$DIMCLRE
 70
     0
  9
$DIMCLRT
 70
     0
  9
$DIMTFAC
 40
1.0
  9
$DIMGAP
 40
0.09
  9
$LUNITS
 70
     2
  9
$LUPREC
 70
     3
  9
$SKETCHINC
 40
0.1
  9
$FILLETRAD
 40
0.5
  9
$AUNITS
 70
     0
  9
$AUPREC
 70
     0
  9
$MENU
  1
.
  9
$ELEVATION
 40
0.0
  9
$PELEVATION
 40
0.0
  9
$THICKNESS
 40
0.0
  9
$LIMCHECK
 70
     0
  9
$CHAMFERA
 40
0.0
  9
$CHAMFERB
 40
0.0
  9
$SKPOLY
 70
     0
  9
$TDCREATE
 40
2460018.833659479
  9
$TDUPDATE
 40
2460018.833659607
  9
$TDINDWG
 40
0.0000000116
  9
$TDUSRTIMER
 40
0.0000000116
  9
$USRTIMER
 70
     1
  9
$ANGBASE
 50
0.0
  9
$ANGDIR
 70
     0
  9
$PDMODE
 70
     0
  9
$PDSIZE
 40
0.0
  9
$PLINEWID
 40
0.0
  9
$COORDS
 70
     1
  9
$SPLFRAME
 70
     0
  9
$SPLINETYPE
 70
     6
  9
$SPLINESEGS
 70
     8
  9
$ATTDIA
 70
     0
  9
$ATTREQ
 70
     1
  9
$HANDLING
 70
     1
  9
$HANDSEED
  5
725
  9
$SURFTAB1
 70
     6
  9
$SURFTAB2
 70
     6
  9
$SURFTYPE
 70
     6
  9
$SURFU
 70
     6
  9
$SURFV
 70
     6
  9
$UCSNAME
  2

  9
$UCSORG
 10
0.0
 20
0.0
 30
0.0
  9
$UCSXDIR
 10
1.0
 20
0.0
 30
0.0
  9
$UCSYDIR
 10
0.0
 20
1.0
 30
0.0
  9
$PUCSNAME
  2

  9
$PUCSORG
 10
0.0
 20
0.0
 30
0.0
  9
$PUCSXDIR
 10
1.0
 20
0.0
 30
0.0
  9
$PUCSYDIR
 10
0.0
 20
1.0
 30
0.0
  9
$USERI1
 70
     0
  9
$USERI2
 70
     0
  9
$USERI3
 70
     0
  9
$USERI4
 70
     0
  9
$USERI5
 70
     0
  9
$USERR1
 40
0.0
  9
$USERR2
 40
0.0
  9
$USERR3
 40
0.0
  9
$USERR4
 40
0.0
  9
$USERR5
 40
0.0
  9
$WORLDVIEW
 70
     1
  9
$SHADEDGE
 70
     3
  9
$SHADEDIF
 70
    70
  9
$TILEMODE
 70
     1
  9
$MAXACTVP
 70
    64
  9
$PLIMCHECK
 70
     0
  9
$PEXTMIN
 10
1.000000000000000E+20
 20
1.000000000000000E+20
 30
1.000000000000000E+20
  9
$PEXTMAX
 10
-1.000000000000000E+20
 20
-1.000000000000000E+20
 30
-1.000000000000000E+20
  9
$PLIMMIN
 10
0.0
 20
0.0
  9
$PLIMMAX
 10
12.0
 20
9.0
  9
$UNITMODE
 70
     0
  9
$VISRETAIN
 70
     1
  9
$PLINEGEN
 70
     0
  9
$PSLTSCALE
 70
     1
  0
ENDSEC
  0
SECTION
  2
TABLES
  0
TABLE
  2
VPORT
 70
     1
  0
VPORT
  2
*ACTIVE
 70
     0
 10
0.0
 20
0.0
 11
1.0
 21
1.0
 12
10.42990654205607
 22
4.5
 13
0.0
 23
0.0
 14
0.5
 24
0.5
 15
0.5
 25
0.5
 16
0.0
 26
0.0
 36
1.0
 17
0.0
 27
0.0
 37
0.0
 40
9.0
 41
1.972972972850329
 42
50.0
 43
0.0
 44
0.0
 50
0.0
 51
0.0
 71
     0
 72
   100
 73
     1
 74
     3
 75
     0
 76
     0
 77
     0
 78
     0
  0
ENDTAB
  0
TABLE
  2
LTYPE
 70
     1
  0
LTYPE
  2
CONTINUOUS
 70
     0
  3
Solid line
 72
    65
 73
     0
 40
0.0
  0
ENDTAB
  0
TABLE
  2
LAYER
 70
     2
  0
LAYER
  2
0
 70
     0
 62
     7
  6
CONTINUOUS
  0
LAYER
  2
DEFAULT
 70
     0
 62
     7
  6
CONTINUOUS
  0
ENDTAB
  0
TABLE
  2
STYLE
 70
     1
  0
STYLE
  2
STANDARD
 70
     0
 40
0.0
 41
1.0
 50
0.0
 71
     0
 42
0.2
  3
txt
  4

  0
ENDTAB
  0
TABLE
  2
VIEW
 70
     0
  0
ENDTAB
  0
TABLE
  2
UCS
 70
     0
  0
ENDTAB
  0
TABLE
  2
APPID
 70
     2
  0
APPID
  2
ACAD
 70
     0
  0
APPID
  2
RHINO
 70
     0
  0
ENDTAB
  0
TABLE
  2
DIMSTYLE
 70
     1
  0
DIMSTYLE
  2
STANDARD_ACAD
 70
     0
  3

  4

  5

  6

  7

 40
1.0
 41
0.18
 42
0.0625
 43
0.38
 44
0.18
 45
0.0
 46
0.0
 47
0.0
 48
0.0
140
0.18
141
0.09
142
0.0
143
25.4
144
1.0
145
0.0
146
1.0
147
0.09
 71
     0
 72
     0
 73
     1
 74
     1
 75
     0
 76
     0
 77
     0
 78
     0
170
     0
171
     2
172
     0
173
     0
174
     0
175
     0
176
     0
177
     0
178
     0
  0
ENDTAB
  0
ENDSEC
  0
SECTION
  2
BLOCKS
  0
BLOCK
  8
0
  2
$MODEL_SPACE
 70
     0
 10
0.0
 20
0.0
 30
0.0
  3
$MODEL_SPACE
  1

  0
ENDBLK
  5
21
  8
0
  0
BLOCK
 67
     1
  8
0
  2
$PAPER_SPACE
 70
     0
 10
0.0
 20
0.0
 30
0.0
  3
$PAPER_SPACE
  1

  0
ENDBLK
  5
1D
 67
     1
  8
0
  0
ENDSEC
  0
SECTION
  2
ENTITIES
  0
POLYLINE
  5
70
  8
DEFAULT
 66
     1
 10
0.0
 20
0.0
 30
0.0
 70
     1
  0
VERTEX
  5
71
  8
DEFAULT
 10
-1047.64252942949
 20
539.5412725942556
 30
0.0
  0
VERTEX
  5
72
  8
DEFAULT
 10
-550.9312851262239
 20
539.5412725942556
 30
0.0
  0
VERTEX
  5
73
  8
DEFAULT
 10
-550.9312851262239
 20
1036.25251689752
 30
0.0
  0
VERTEX
  5
74
  8
DEFAULT
 10
-1047.64252942949
 20
1036.25251689752
 30
0.0
  0
SEQEND
  5
75
  8
DEFAULT
  0
POLYLINE
  5
76
  8
DEFAULT
 66
     1
 10
0.0
 20
0.0
 30
0.0
  0
VERTEX
  5
77
  8
DEFAULT
 10
-654.5049383864398
 20
547.5489666536848
 30
0.0
  0
VERTEX
  5
78
  8
DEFAULT
 10
-661.7124561341618
 20
554.7564844014064
 30
0.0
  0
VERTEX
  5
79
  8
DEFAULT
 10
-661.712456134161
 20
564.949453751278
 30
0.0
  0
VERTEX
  5
7A
  8
DEFAULT
 10
-671.9054254840346
 20
564.949453751278
 30
0.0
  0
VERTEX
  5
7B
  8
DEFAULT
 10
-679.1129432317548
 20
572.1569714989995
 30
0.0
  0
VERTEX
  5
7C
  8
DEFAULT
 10
-686.3204609794752
 20
564.949453751278
 30
0.0
  0
VERTEX
  5
7D
  8
DEFAULT
 10
-696.5134303293482
 20
564.949453751278
 30
0.0
  0
VERTEX
  5
7E
  8
DEFAULT
 10
-696.513430329348
 20
554.7564844014041
 30
0.0
  0
VERTEX
  5
7F
  8
DEFAULT
 10
-703.7209480770688
 20
547.5489666536848
 30
0.0
  0
SEQEND
  5
80
  8
DEFAULT
  0
POLYLINE
  5
81
  8
DEFAULT
 66
     1
 10
0.0
 20
0.0
 30
0.0
  0
VERTEX
  5
82
  8
DEFAULT
 10
-558.9389791856526
 20
692.3309355451019
 30
0.0
  0
VERTEX
  5
83
  8
DEFAULT
 10
-566.1464969333726
 20
685.12341779738
 30
0.0
  0
VERTEX
  5
84
  8
DEFAULT
 10
-576.3394662832462
 20
685.1234177973809
 30
0.0
  0
VERTEX
  5
85
  8
DEFAULT
 10
-576.3394662832457
 20
674.9304484475089
 30
0.0
  0
VERTEX
  5
86
  8
DEFAULT
 10
-583.5469840309684
 20
667.7229306997855
 30
0.0
  0
VERTEX
  5
87
  8
DEFAULT
 10
-576.3394662832457
 20
660.5154129520633
 30
0.0
  0
VERTEX
  5
88
  8
DEFAULT
 10
-576.3394662832462
 20
650.3224436021917
 30
0.0
  0
VERTEX
  5
89
  8
DEFAULT
 10
-566.1464969333726
 20
650.3224436021922
 30
0.0
  0
VERTEX
  5
8A
  8
DEFAULT
 10
-558.9389791856531
 20
643.1149258544713
 30
0.0
  0
SEQEND
  5
8B
  8
DEFAULT
  0
POLYLINE
  5
8C
  8
DEFAULT
 66
     1
 10
0.0
 20
0.0
 30
0.0
  0
VERTEX
  5
8D
  8
DEFAULT
 10
-894.8528664786438
 20
547.5489666536848
 30
0.0
  0
VERTEX
  5
8E
  8
DEFAULT
 10
-902.0603842263658
 20
554.7564844014064
 30
0.0
  0
VERTEX
  5
8F
  8
DEFAULT
 10
-902.060384226365
 20
564.949453751278
 30
0.0
  0
VERTEX
  5
90
  8
DEFAULT
 10
-912.2533535762386
 20
564.949453751278
 30
0.0
  0
VERTEX
  5
91
  8
DEFAULT
 10
-919.4608713239588
 20
572.1569714989995
 30
0.0
  0
VERTEX
  5
92
  8
DEFAULT
 10
-926.6683890716793
 20
564.949453751278
 30
0.0
  0
VERTEX
  5
93
  8
DEFAULT
 10
-936.8613584215523
 20
564.949453751278
 30
0.0
  0
VERTEX
  5
94
  8
DEFAULT
 10
-936.861358421552
 20
554.7564844014041
 30
0.0
  0
VERTEX
  5
95
  8
DEFAULT
 10
-944.0688761692728
 20
547.5489666536848
 30
0.0
  0
SEQEND
  5
96
  8
DEFAULT
  0
POLYLINE
  5
97
  8
DEFAULT
 66
     1
 10
0.0
 20
0.0
 30
0.0
  0
VERTEX
  5
98
  8
DEFAULT
 10
-1039.634835370061
 20
643.1149258544707
 30
0.0
  0
VERTEX
  5
99
  8
DEFAULT
 10
-1032.427317622338
 20
650.3224436021931
 30
0.0
  0
VERTEX
  5
9A
  8
DEFAULT
 10
-1022.234348272467
 20
650.3224436021923
 30
0.0
  0
VERTEX
  5
9B
  8
DEFAULT
 10
-1022.234348272467
 20
660.5154129520656
 30
0.0
  0
VERTEX
  5
9C
  8
DEFAULT
 10
-1015.026830524746
 20
667.7229306997858
 30
0.0
  0
VERTEX
  5
9D
  8
DEFAULT
 10
-1022.234348272467
 20
674.930448447506
 30
0.0
  0
VERTEX
  5
9E
  8
DEFAULT
 10
-1022.234348272467
 20
685.12341779738
 30
0.0
  0
VERTEX
  5
9F
  8
DEFAULT
 10
-1032.427317622338
 20
685.123417797379
 30
0.0
  0
VERTEX
  5
A0
  8
DEFAULT
 10
-1039.634835370061
 20
692.3309355451019
 30
0.0
  0
SEQEND
  5
A1
  8
DEFAULT
  0
POLYLINE
  5
A2
  8
DEFAULT
 66
     1
 10
0.0
 20
0.0
 30
0.0
  0
VERTEX
  5
A3
  8
DEFAULT
 10
-558.9389791856526
 20
932.6788636373047
 30
0.0
  0
VERTEX
  5
A4
  8
DEFAULT
 10
-566.1464969333726
 20
925.4713458895828
 30
0.0
  0
VERTEX
  5
A5
  8
DEFAULT
 10
-576.3394662832462
 20
925.4713458895833
 30
0.0
  0
VERTEX
  5
A6
  8
DEFAULT
 10
-576.3394662832457
 20
915.2783765397118
 30
0.0
  0
VERTEX
  5
A7
  8
DEFAULT
 10
-583.5469840309684
 20
908.0708587919879
 30
0.0
  0
VERTEX
  5
A8
  8
DEFAULT
 10
-576.3394662832457
 20
900.8633410442658
 30
0.0
  0
VERTEX
  5
A9
  8
DEFAULT
 10
-576.3394662832462
 20
890.6703716943946
 30
0.0
  0
VERTEX
  5
AA
  8
DEFAULT
 10
-566.1464969333726
 20
890.6703716943946
 30
0.0
  0
VERTEX
  5
AB
  8
DEFAULT
 10
-558.9389791856531
 20
883.4628539466737
 30
0.0
  0
SEQEND
  5
AC
  8
DEFAULT
  0
POLYLINE
  5
AD
  8
DEFAULT
 66
     1
 10
0.0
 20
0.0
 30
0.0
  0
VERTEX
  5
AE
  8
DEFAULT
 10
-1039.634835370061
 20
883.4628539466731
 30
0.0
  0
VERTEX
  5
AF
  8
DEFAULT
 10
-1032.427317622338
 20
890.6703716943956
 30
0.0
  0
VERTEX
  5
B0
  8
DEFAULT
 10
-1022.234348272467
 20
890.6703716943947
 30
0.0
  0
VERTEX
  5
B1
  8
DEFAULT
 10
-1022.234348272467
 20
900.8633410442686
 30
0.0
  0
VERTEX
  5
B2
  8
DEFAULT
 10
-1015.026830524746
 20
908.0708587919887
 30
0.0
  0
VERTEX
  5
B3
  8
DEFAULT
 10
-1022.234348272467
 20
915.2783765397089
 30
0.0
  0
VERTEX
  5
B4
  8
DEFAULT
 10
-1022.234348272467
 20
925.4713458895828
 30
0.0
  0
VERTEX
  5
B5
  8
DEFAULT
 10
-1032.427317622338
 20
925.4713458895819
 30
0.0
  0
VERTEX
  5
B6
  8
DEFAULT
 10
-1039.634835370061
 20
932.6788636373047
 30
0.0
  0
SEQEND
  5
B7
  8
DEFAULT
  0
POLYLINE
  5
B8
  8
DEFAULT
 66
     1
 10
0.0
 20
0.0
 30
0.0
  0
VERTEX
  5
B9
  8
DEFAULT
 10
-703.7209480770688
 20
1028.24482283809
 30
0.0
  0
VERTEX
  5
BA
  8
DEFAULT
 10
-696.513430329348
 20
1021.037305090371
 30
0.0
  0
VERTEX
  5
BB
  8
DEFAULT
 10
-696.5134303293482
 20
1010.844335740497
 30
0.0
  0
VERTEX
  5
BC
  8
DEFAULT
 10
-686.3204609794752
 20
1010.844335740497
 30
0.0
  0
VERTEX
  5
BD
  8
DEFAULT
 10
-679.1129432317548
 20
1003.636817992775
 30
0.0
  0
VERTEX
  5
BE
  8
DEFAULT
 10
-671.9054254840346
 20
1010.844335740497
 30
0.0
  0
VERTEX
  5
BF
  8
DEFAULT
 10
-661.712456134161
 20
1010.844335740497
 30
0.0
  0
VERTEX
  5
C0
  8
DEFAULT
 10
-661.7124561341618
 20
1021.037305090369
 30
0.0
  0
VERTEX
  5
C1
  8
DEFAULT
 10
-654.5049383864398
 20
1028.24482283809
 30
0.0
  0
SEQEND
  5
C2
  8
DEFAULT
  0
POLYLINE
  5
C3
  8
DEFAULT
 66
     1
 10
0.0
 20
0.0
 30
0.0
  0
VERTEX
  5
C4
  8
DEFAULT
 10
-944.0688761692728
 20
1028.24482283809
 30
0.0
  0
VERTEX
  5
C5
  8
DEFAULT
 10
-936.861358421552
 20
1021.037305090371
 30
0.0
  0
VERTEX
  5
C6
  8
DEFAULT
 10
-936.8613584215523
 20
1010.844335740497
 30
0.0
  0
VERTEX
  5
C7
  8
DEFAULT
 10
-926.6683890716793
 20
1010.844335740497
 30
0.0
  0
VERTEX
  5
C8
  8
DEFAULT
 10
-919.4608713239588
 20
1003.636817992775
 30
0.0
  0
VERTEX
  5
C9
  8
DEFAULT
 10
-912.2533535762386
 20
1010.844335740497
 30
0.0
  0
VERTEX
  5
CA
  8
DEFAULT
 10
-902.060384226365
 20
1010.844335740497
 30
0.0
  0
VERTEX
  5
CB
  8
DEFAULT
 10
-902.0603842263658
 20
1021.037305090369
 30
0.0
  0
VERTEX
  5
CC
  8
DEFAULT
 10
-894.8528664786438
 20
1028.24482283809
 30
0.0
  0
SEQEND
  5
CD
  8
DEFAULT
  0
POLYLINE
  5
CE
  8
DEFAULT
 66
     1
 10
0.0
 20
0.0
 30
0.0
  0
VERTEX
  5
CF
  8
DEFAULT
 10
-558.938979185653
 20
572.1569714989989
 30
0.0
  0
VERTEX
  5
D0
  8
DEFAULT
 10
-566.1464969333749
 20
564.9494537512771
 30
0.0
  0
VERTEX
  5
D1
  8
DEFAULT
 10
-576.3394662832468
 20
564.9494537512779
 30
0.0
  0
VERTEX
  5
D2
  8
DEFAULT
 10
-576.3394662832466
 20
554.7564844014041
 30
0.0
  0
VERTEX
  5
D3
  8
DEFAULT
 10
-583.5469840309671
 20
547.5489666536848
 30
0.0
  0
SEQEND
  5
D4
  8
DEFAULT
  0
POLYLINE
  5
D5
  8
DEFAULT
 66
     1
 10
0.0
 20
0.0
 30
0.0
  0
VERTEX
  5
D6
  8
DEFAULT
 10
-638.4986790883006
 20
547.5489666536839
 30
0.0
  0
VERTEX
  5
D7
  8
DEFAULT
 10
-631.2911613405788
 20
564.949453751278
 30
0.0
  0
VERTEX
  5
D8
  8
DEFAULT
 10
-615.1004877954874
 20
564.949453751278
 30
0.0
  0
VERTEX
  5
D9
  8
DEFAULT
 10
-597.7000006978947
 20
547.5489666536848
 30
0.0
  0
SEQEND
  5
DA
  8
DEFAULT
  0
POLYLINE
  5
DB
  8
DEFAULT
 66
     1
 10
0.0
 20
0.0
 30
0.0
  0
VERTEX
  5
DC
  8
DEFAULT
 10
-558.9389791856529
 20
586.309988165925
 30
0.0
  0
VERTEX
  5
DD
  8
DEFAULT
 10
-576.3394662832466
 20
603.7104752635182
 30
0.0
  0
VERTEX
  5
DE
  8
DEFAULT
 10
-576.3394662832466
 20
619.9011488086103
 30
0.0
  0
VERTEX
  5
DF
  8
DEFAULT
 10
-558.9389791856527
 20
627.1086665563319
 30
0.0
  0
SEQEND
  5
E0
  8
DEFAULT
  0
POLYLINE
  5
E1
  8
DEFAULT
 66
     1
 10
0.0
 20
0.0
 30
0.0
  0
VERTEX
  5
E2
  8
DEFAULT
 10
-774.6789024325416
 20
547.5489666536848
 30
0.0
  0
VERTEX
  5
E3
  8
DEFAULT
 10
-781.886420180263
 20
554.756484401405
 30
0.0
  0
VERTEX
  5
E4
  8
DEFAULT
 10
-781.886420180263
 20
564.949453751278
 30
0.0
  0
VERTEX
  5
E5
  8
DEFAULT
 10
-792.0793895301367
 20
564.949453751278
 30
0.0
  0
VERTEX
  5
E6
  8
DEFAULT
 10
-799.2869072778569
 20
572.1569714989992
 30
0.0
  0
VERTEX
  5
E7
  8
DEFAULT
 10
-806.4944250255792
 20
564.9494537512771
 30
0.0
  0
VERTEX
  5
E8
  8
DEFAULT
 10
-816.6873943754508
 20
564.949453751278
 30
0.0
  0
VERTEX
  5
E9
  8
DEFAULT
 10
-816.6873943754504
 20
554.7564844014041
 30
0.0
  0
VERTEX
  5
EA
  8
DEFAULT
 10
-823.8949121231711
 20
547.5489666536848
 30
0.0
  0
SEQEND
  5
EB
  8
DEFAULT
  0
POLYLINE
  5
EC
  8
DEFAULT
 66
     1
 10
0.0
 20
0.0
 30
0.0
  0
VERTEX
  5
ED
  8
DEFAULT
 10
-760.5258857656156
 20
547.5489666536848
 30
0.0
  0
VERTEX
  5
EE
  8
DEFAULT
 10
-743.1253986680224
 20
564.949453751278
 30
0.0
  0
VERTEX
  5
EF
  8
DEFAULT
 10
-726.9347251229306
 20
564.949453751278
 30
0.0
  0
VERTEX
  5
F0
  8
DEFAULT
 10
-719.727207375209
 20
547.5489666536853
 30
0.0
  0
SEQEND
  5
F1
  8
DEFAULT
  0
POLYLINE
  5
F2
  8
DEFAULT
 66
     1
 10
0.0
 20
0.0
 30
0.0
  0
VERTEX
  5
F3
  8
DEFAULT
 10
-878.8466071805046
 20
547.5489666536839
 30
0.0
  0
VERTEX
  5
F4
  8
DEFAULT
 10
-871.6390894327828
 20
564.949453751278
 30
0.0
  0
VERTEX
  5
F5
  8
DEFAULT
 10
-855.4484158876915
 20
564.949453751278
 30
0.0
  0
VERTEX
  5
F6
  8
DEFAULT
 10
-838.0479287900987
 20
547.5489666536848
 30
0.0
  0
SEQEND
  5
F7
  8
DEFAULT
  0
POLYLINE
  5
F8
  8
DEFAULT
 66
     1
 10
0.0
 20
0.0
 30
0.0
  0
VERTEX
  5
F9
  8
DEFAULT
 10
-1015.026830524746
 20
547.5489666536848
 30
0.0
  0
VERTEX
  5
FA
  8
DEFAULT
 10
-1022.234348272467
 20
554.756484401405
 30
0.0
  0
VERTEX
  5
FB
  8
DEFAULT
 10
-1022.234348272467
 20
564.949453751278
 30
0.0
  0
VERTEX
  5
FC
  8
DEFAULT
 10
-1032.427317622341
 20
564.949453751278
 30
0.0
  0
VERTEX
  5
FD
  8
DEFAULT
 10
-1039.634835370061
 20
572.1569714989992
 30
0.0
  0
SEQEND
  5
FE
  8
DEFAULT
  0
POLYLINE
  5
FF
  8
DEFAULT
 66
     1
 10
0.0
 20
0.0
 30
0.0
  0
VERTEX
  5
100
  8
DEFAULT
 10
-1000.87381385782
 20
547.5489666536848
 30
0.0
  0
VERTEX
  5
101
  8
DEFAULT
 10
-983.4733267602264
 20
564.949453751278
 30
0.0
  0
VERTEX
  5
102
  8
DEFAULT
 10
-967.2826532151346
 20
564.949453751278
 30
0.0
  0
VERTEX
  5
103
  8
DEFAULT
 10
-960.075135467413
 20
547.5489666536853
 30
0.0
  0
SEQEND
  5
104
  8
DEFAULT
  0
POLYLINE
  5
105
  8
DEFAULT
 66
     1
 10
0.0
 20
0.0
 30
0.0
  0
VERTEX
  5
106
  8
DEFAULT
 10
-1039.634835370061
 20
627.1086665563319
 30
0.0
  0
VERTEX
  5
107
  8
DEFAULT
 10
-1022.234348272467
 20
619.9011488086098
 30
0.0
  0
VERTEX
  5
108
  8
DEFAULT
 10
-1022.234348272467
 20
603.7104752635187
 30
0.0
  0
VERTEX
  5
109
  8
DEFAULT
 10
-1039.634835370061
 20
586.309988165925
 30
0.0
  0
SEQEND
  5
10A
  8
DEFAULT
  0
POLYLINE
  5
10B
  8
DEFAULT
 66
     1
 10
0.0
 20
0.0
 30
0.0
  0
VERTEX
  5
10C
  8
DEFAULT
 10
-558.9389791856529
 20
749.1358732336475
 30
0.0
  0
VERTEX
  5
10D
  8
DEFAULT
 10
-576.3394662832466
 20
731.7353861360534
 30
0.0
  0
VERTEX
  5
10E
  8
DEFAULT
 10
-576.3394662832466
 20
715.5447125909619
 30
0.0
  0
VERTEX
  5
10F
  8
DEFAULT
 10
-558.9389791856527
 20
708.3371948432407
 30
0.0
  0
SEQEND
  5
110
  8
DEFAULT
  0
POLYLINE
  5
111
  8
DEFAULT
 66
     1
 10
0.0
 20
0.0
 30
0.0
  0
VERTEX
  5
112
  8
DEFAULT
 10
-558.938979185653
 20
812.5048995912018
 30
0.0
  0
VERTEX
  5
113
  8
DEFAULT
 10
-566.1464969333749
 20
805.2973818434796
 30
0.0
  0
VERTEX
  5
114
  8
DEFAULT
 10
-576.3394662832468
 20
805.2973818434805
 30
0.0
  0
VERTEX
  5
115
  8
DEFAULT
 10
-576.3394662832466
 20
795.104412493607
 30
0.0
  0
VERTEX
  5
116
  8
DEFAULT
 10
-583.5469840309671
 20
787.8968947458877
 30
0.0
  0
VERTEX
  5
117
  8
DEFAULT
 10
-576.3394662832466
 20
780.6893769981684
 30
0.0
  0
VERTEX
  5
118
  8
DEFAULT
 10
-576.3394662832468
 20
770.4964076482946
 30
0.0
  0
VERTEX
  5
119
  8
DEFAULT
 10
-566.1464969333749
 20
770.4964076482955
 30
0.0
  0
VERTEX
  5
11A
  8
DEFAULT
 10
-558.9389791856529
 20
763.2888899005726
 30
0.0
  0
SEQEND
  5
11B
  8
DEFAULT
  0
POLYLINE
  5
11C
  8
DEFAULT
 66
     1
 10
0.0
 20
0.0
 30
0.0
  0
VERTEX
  5
11D
  8
DEFAULT
 10
-558.9389791856529
 20
826.6579162581279
 30
0.0
  0
VERTEX
  5
11E
  8
DEFAULT
 10
-576.3394662832466
 20
844.0584033557211
 30
0.0
  0
VERTEX
  5
11F
  8
DEFAULT
 10
-576.3394662832466
 20
860.2490769008127
 30
0.0
  0
VERTEX
  5
120
  8
DEFAULT
 10
-558.9389791856527
 20
867.4565946485347
 30
0.0
  0
SEQEND
  5
121
  8
DEFAULT
  0
POLYLINE
  5
122
  8
DEFAULT
 66
     1
 10
0.0
 20
0.0
 30
0.0
  0
VERTEX
  5
123
  8
DEFAULT
 10
-1039.634835370061
 20
708.3371948432407
 30
0.0
  0
VERTEX
  5
124
  8
DEFAULT
 10
-1022.234348272467
 20
715.5447125909619
 30
0.0
  0
VERTEX
  5
125
  8
DEFAULT
 10
-1022.234348272467
 20
731.7353861360534
 30
0.0
  0
VERTEX
  5
126
  8
DEFAULT
 10
-1039.634835370061
 20
749.1358732336475
 30
0.0
  0
SEQEND
  5
127
  8
DEFAULT
  0
POLYLINE
  5
128
  8
DEFAULT
 66
     1
 10
0.0
 20
0.0
 30
0.0
  0
VERTEX
  5
129
  8
DEFAULT
 10
-1039.634835370061
 20
763.2888899005726
 30
0.0
  0
VERTEX
  5
12A
  8
DEFAULT
 10
-1032.427317622341
 20
770.4964076482945
 30
0.0
  0
VERTEX
  5
12B
  8
DEFAULT
 10
-1022.234348272467
 20
770.4964076482945
 30
0.0
  0
VERTEX
  5
12C
  8
DEFAULT
 10
-1022.234348272467
 20
780.6893769981676
 30
0.0
  0
VERTEX
  5
12D
  8
DEFAULT
 10
-1015.026830524746
 20
787.8968947458874
 30
0.0
  0
VERTEX
  5
12E
  8
DEFAULT
 10
-1022.234348272467
 20
795.1044124936079
 30
0.0
  0
VERTEX
  5
12F
  8
DEFAULT
 10
-1022.234348272467
 20
805.2973818434809
 30
0.0
  0
VERTEX
  5
130
  8
DEFAULT
 10
-1032.427317622341
 20
805.2973818434805
 30
0.0
  0
VERTEX
  5
131
  8
DEFAULT
 10
-1039.634835370061
 20
812.504899591202
 30
0.0
  0
SEQEND
  5
132
  8
DEFAULT
  0
POLYLINE
  5
133
  8
DEFAULT
 66
     1
 10
0.0
 20
0.0
 30
0.0
  0
VERTEX
  5
134
  8
DEFAULT
 10
-1039.634835370061
 20
867.4565946485347
 30
0.0
  0
VERTEX
  5
135
  8
DEFAULT
 10
-1022.234348272467
 20
860.2490769008127
 30
0.0
  0
VERTEX
  5
136
  8
DEFAULT
 10
-1022.234348272467
 20
844.0584033557211
 30
0.0
  0
VERTEX
  5
137
  8
DEFAULT
 10
-1039.634835370061
 20
826.6579162581279
 30
0.0
  0
SEQEND
  5
138
  8
DEFAULT
  0
POLYLINE
  5
139
  8
DEFAULT
 66
     1
 10
0.0
 20
0.0
 30
0.0
  0
VERTEX
  5
13A
  8
DEFAULT
 10
-558.9389791856529
 20
989.48380132585
 30
0.0
  0
VERTEX
  5
13B
  8
DEFAULT
 10
-576.3394662832466
 20
972.0833142282563
 30
0.0
  0
VERTEX
  5
13C
  8
DEFAULT
 10
-576.3394662832466
 20
955.8926406831648
 30
0.0
  0
VERTEX
  5
13D
  8
DEFAULT
 10
-558.9389791856527
 20
948.6851229354432
 30
0.0
  0
SEQEND
  5
13E
  8
DEFAULT
  0
POLYLINE
  5
13F
  8
DEFAULT
 66
     1
 10
0.0
 20
0.0
 30
0.0
  0
VERTEX
  5
140
  8
DEFAULT
 10
-583.5469840309671
 20
1028.24482283809
 30
0.0
  0
VERTEX
  5
141
  8
DEFAULT
 10
-576.3394662832466
 20
1021.037305090371
 30
0.0
  0
VERTEX
  5
142
  8
DEFAULT
 10
-576.3394662832468
 20
1010.844335740497
 30
0.0
  0
VERTEX
  5
143
  8
DEFAULT
 10
-566.1464969333749
 20
1010.844335740498
 30
0.0
  0
VERTEX
  5
144
  8
DEFAULT
 10
-558.9389791856529
 20
1003.636817992775
 30
0.0
  0
SEQEND
  5
145
  8
DEFAULT
  0
POLYLINE
  5
146
  8
DEFAULT
 66
     1
 10
0.0
 20
0.0
 30
0.0
  0
VERTEX
  5
147
  8
DEFAULT
 10
-597.7000006978947
 20
1028.24482283809
 30
0.0
  0
VERTEX
  5
148
  8
DEFAULT
 10
-615.1004877954874
 20
1010.844335740497
 30
0.0
  0
VERTEX
  5
149
  8
DEFAULT
 10
-631.2911613405788
 20
1010.844335740497
 30
0.0
  0
VERTEX
  5
14A
  8
DEFAULT
 10
-638.4986790883006
 20
1028.244822838089
 30
0.0
  0
SEQEND
  5
14B
  8
DEFAULT
  0
POLYLINE
  5
14C
  8
DEFAULT
 66
     1
 10
0.0
 20
0.0
 30
0.0
  0
VERTEX
  5
14D
  8
DEFAULT
 10
-823.8949121231711
 20
1028.24482283809
 30
0.0
  0
VERTEX
  5
14E
  8
DEFAULT
 10
-816.6873943754504
 20
1021.037305090371
 30
0.0
  0
VERTEX
  5
14F
  8
DEFAULT
 10
-816.6873943754508
 20
1010.844335740497
 30
0.0
  0
VERTEX
  5
150
  8
DEFAULT
 10
-806.4944250255792
 20
1010.844335740498
 30
0.0
  0
VERTEX
  5
151
  8
DEFAULT
 10
-799.2869072778569
 20
1003.636817992775
 30
0.0
  0
VERTEX
  5
152
  8
DEFAULT
 10
-792.0793895301367
 20
1010.844335740497
 30
0.0
  0
VERTEX
  5
153
  8
DEFAULT
 10
-781.886420180263
 20
1010.844335740497
 30
0.0
  0
VERTEX
  5
154
  8
DEFAULT
 10
-781.886420180263
 20
1021.03730509037
 30
0.0
  0
VERTEX
  5
155
  8
DEFAULT
 10
-774.6789024325416
 20
1028.24482283809
 30
0.0
  0
SEQEND
  5
156
  8
DEFAULT
  0
POLYLINE
  5
157
  8
DEFAULT
 66
     1
 10
0.0
 20
0.0
 30
0.0
  0
VERTEX
  5
158
  8
DEFAULT
 10
-719.727207375209
 20
1028.244822838091
 30
0.0
  0
VERTEX
  5
159
  8
DEFAULT
 10
-726.9347251229306
 20
1010.844335740497
 30
0.0
  0
VERTEX
  5
15A
  8
DEFAULT
 10
-743.1253986680224
 20
1010.844335740497
 30
0.0
  0
VERTEX
  5
15B
  8
DEFAULT
 10
-760.5258857656156
 20
1028.24482283809
 30
0.0
  0
SEQEND
  5
15C
  8
DEFAULT
  0
POLYLINE
  5
15D
  8
DEFAULT
 66
     1
 10
0.0
 20
0.0
 30
0.0
  0
VERTEX
  5
15E
  8
DEFAULT
 10
-838.0479287900987
 20
1028.24482283809
 30
0.0
  0
VERTEX
  5
15F
  8
DEFAULT
 10
-855.4484158876915
 20
1010.844335740497
 30
0.0
  0
VERTEX
  5
160
  8
DEFAULT
 10
-871.6390894327828
 20
1010.844335740497
 30
0.0
  0
VERTEX
  5
161
  8
DEFAULT
 10
-878.8466071805046
 20
1028.244822838089
 30
0.0
  0
SEQEND
  5
162
  8
DEFAULT
  0
POLYLINE
  5
163
  8
DEFAULT
 66
     1
 10
0.0
 20
0.0
 30
0.0
  0
VERTEX
  5
164
  8
DEFAULT
 10
-1039.634835370061
 20
948.6851229354431
 30
0.0
  0
VERTEX
  5
165
  8
DEFAULT
 10
-1022.234348272467
 20
955.8926406831647
 30
0.0
  0
VERTEX
  5
166
  8
DEFAULT
 10
-1022.234348272467
 20
972.0833142282563
 30
0.0
  0
VERTEX
  5
167
  8
DEFAULT
 10
-1039.634835370061
 20
989.48380132585
 30
0.0
  0
SEQEND
  5
168
  8
DEFAULT
  0
POLYLINE
  5
169
  8
DEFAULT
 66
     1
 10
0.0
 20
0.0
 30
0.0
  0
VERTEX
  5
16A
  8
DEFAULT
 10
-1039.634835370061
 20
1003.636817992775
 30
0.0
  0
VERTEX
  5
16B
  8
DEFAULT
 10
-1032.427317622341
 20
1010.844335740497
 30
0.0
  0
VERTEX
  5
16C
  8
DEFAULT
 10
-1022.234348272467
 20
1010.844335740497
 30
0.0
  0
VERTEX
  5
16D
  8
DEFAULT
 10
-1022.234348272467
 20
1021.03730509037
 30
0.0
  0
VERTEX
  5
16E
  8
DEFAULT
 10
-1015.026830524746
 20
1028.24482283809
 30
0.0
  0
SEQEND
  5
16F
  8
DEFAULT
  0
POLYLINE
  5
170
  8
DEFAULT
 66
     1
 10
0.0
 20
0.0
 30
0.0
  0
VERTEX
  5
171
  8
DEFAULT
 10
-960.075135467413
 20
1028.244822838091
 30
0.0
  0
VERTEX
  5
172
  8
DEFAULT
 10
-967.2826532151346
 20
1010.844335740497
 30
0.0
  0
VERTEX
  5
173
  8
DEFAULT
 10
-983.4733267602264
 20
1010.844335740497
 30
0.0
  0
VERTEX
  5
174
  8
DEFAULT
 10
-1000.87381385782
 20
1028.24482283809
 30
0.0
  0
SEQEND
  5
175
  8
DEFAULT
  0
POLYLINE
  5
176
  8
DEFAULT
 66
     1
 10
0.0
 20
0.0
 30
0.0
 70
     1
  0
VERTEX
  5
177
  8
DEFAULT
 10
-1039.634835370061
 20
547.5489666536848
 30
0.0
  0
VERTEX
  5
178
  8
DEFAULT
 10
-558.9389791856531
 20
547.5489666536848
 30
0.0
  0
VERTEX
  5
179
  8
DEFAULT
 10
-558.9389791856531
 20
1028.24482283809
 30
0.0
  0
VERTEX
  5
17A
  8
DEFAULT
 10
-1039.634835370061
 20
1028.24482283809
 30
0.0
  0
SEQEND
  5
17B
  8
DEFAULT
  0
POLYLINE
  5
17C
  8
DEFAULT
 66
     1
 10
0.0
 20
0.0
 30
0.0
 70
     1
  0
VERTEX
  5
17D
  8
DEFAULT
 10
-679.1129432317543
 20
706.4839522120278
 30
0.0
  0
VERTEX
  5
17E
  8
DEFAULT
 10
-661.7124561341607
 20
723.884439309621
 30
0.0
  0
VERTEX
  5
17F
  8
DEFAULT
 10
-661.7124561341607
 20
740.0751128547126
 30
0.0
  0
VERTEX
  5
180
  8
DEFAULT
 10
-679.1129432317548
 20
747.2826306024342
 30
0.0
  0
VERTEX
  5
181
  8
DEFAULT
 10
-696.5134303293489
 20
740.0751128547117
 30
0.0
  0
VERTEX
  5
182
  8
DEFAULT
 10
-696.5134303293487
 20
723.884439309621
 30
0.0
  0
SEQEND
  5
183
  8
DEFAULT
  0
POLYLINE
  5
184
  8
DEFAULT
 66
     1
 10
0.0
 20
0.0
 30
0.0
 70
     1
  0
VERTEX
  5
185
  8
DEFAULT
 10
-919.460871323959
 20
747.2826306024338
 30
0.0
  0
VERTEX
  5
186
  8
DEFAULT
 10
-936.8613584215528
 20
740.0751128547117
 30
0.0
  0
VERTEX
  5
187
  8
DEFAULT
 10
-936.8613584215527
 20
723.884439309621
 30
0.0
  0
VERTEX
  5
188
  8
DEFAULT
 10
-919.4608713239586
 20
706.4839522120274
 30
0.0
  0
VERTEX
  5
189
  8
DEFAULT
 10
-902.0603842263647
 20
723.884439309621
 30
0.0
  0
VERTEX
  5
18A
  8
DEFAULT
 10
-902.0603842263647
 20
740.0751128547126
 30
0.0
  0
SEQEND
  5
18B
  8
DEFAULT
  0
POLYLINE
  5
18C
  8
DEFAULT
 66
     1
 10
0.0
 20
0.0
 30
0.0
 70
     1
  0
VERTEX
  5
18D
  8
DEFAULT
 10
-640.351921719513
 20
667.7229306997867
 30
0.0
  0
VERTEX
  5
18E
  8
DEFAULT
 10
-622.95143462192
 20
685.12341779738
 30
0.0
  0
VERTEX
  5
18F
  8
DEFAULT
 10
-606.7607610768287
 20
685.12341779738
 30
0.0
  0
VERTEX
  5
190
  8
DEFAULT
 10
-599.5532433291069
 20
667.7229306997863
 30
0.0
  0
VERTEX
  5
191
  8
DEFAULT
 10
-606.7607610768287
 20
650.3224436021922
 30
0.0
  0
VERTEX
  5
192
  8
DEFAULT
 10
-622.95143462192
 20
650.3224436021922
 30
0.0
  0
SEQEND
  5
193
  8
DEFAULT
  0
POLYLINE
  5
194
  8
DEFAULT
 66
     1
 10
0.0
 20
0.0
 30
0.0
 70
     1
  0
VERTEX
  5
195
  8
DEFAULT
 10
-880.6998498117171
 20
667.7229306997867
 30
0.0
  0
VERTEX
  5
196
  8
DEFAULT
 10
-863.2993627141241
 20
685.12341779738
 30
0.0
  0
VERTEX
  5
197
  8
DEFAULT
 10
-847.1086891690327
 20
685.12341779738
 30
0.0
  0
VERTEX
  5
198
  8
DEFAULT
 10
-839.9011714213109
 20
667.7229306997863
 30
0.0
  0
VERTEX
  5
199
  8
DEFAULT
 10
-847.1086891690327
 20
650.3224436021922
 30
0.0
  0
VERTEX
  5
19A
  8
DEFAULT
 10
-863.2993627141241
 20
650.3224436021922
 30
0.0
  0
SEQEND
  5
19B
  8
DEFAULT
  0
POLYLINE
  5
19C
  8
DEFAULT
 66
     1
 10
0.0
 20
0.0
 30
0.0
 70
     1
  0
VERTEX
  5
19D
  8
DEFAULT
 10
-679.1129432317543
 20
628.9619091875447
 30
0.0
  0
VERTEX
  5
19E
  8
DEFAULT
 10
-661.7124561341607
 20
611.5614220899515
 30
0.0
  0
VERTEX
  5
19F
  8
DEFAULT
 10
-661.7124561341607
 20
595.3707485448595
 30
0.0
  0
VERTEX
  5
1A0
  8
DEFAULT
 10
-679.1129432317548
 20
588.1632307971379
 30
0.0
  0
VERTEX
  5
1A1
  8
DEFAULT
 10
-696.5134303293489
 20
595.3707485448599
 30
0.0
  0
VERTEX
  5
1A2
  8
DEFAULT
 10
-696.5134303293487
 20
611.5614220899515
 30
0.0
  0
SEQEND
  5
1A3
  8
DEFAULT
  0
POLYLINE
  5
1A4
  8
DEFAULT
 66
     1
 10
0.0
 20
0.0
 30
0.0
 70
     1
  0
VERTEX
  5
1A5
  8
DEFAULT
 10
-919.4608713239584
 20
628.9619091875447
 30
0.0
  0
VERTEX
  5
1A6
  8
DEFAULT
 10
-902.0603842263647
 20
611.5614220899515
 30
0.0
  0
VERTEX
  5
1A7
  8
DEFAULT
 10
-902.0603842263647
 20
595.3707485448595
 30
0.0
  0
VERTEX
  5
1A8
  8
DEFAULT
 10
-919.4608713239588
 20
588.1632307971379
 30
0.0
  0
VERTEX
  5
1A9
  8
DEFAULT
 10
-936.8613584215528
 20
595.3707485448599
 30
0.0
  0
VERTEX
  5
1AA
  8
DEFAULT
 10
-936.8613584215527
 20
611.5614220899515
 30
0.0
  0
SEQEND
  5
1AB
  8
DEFAULT
  0
POLYLINE
  5
1AC
  8
DEFAULT
 66
     1
 10
0.0
 20
0.0
 30
0.0
 70
     1
  0
VERTEX
  5
1AD
  8
DEFAULT
 10
-679.1129432317543
 20
946.8318803042303
 30
0.0
  0
VERTEX
  5
1AE
  8
DEFAULT
 10
-661.7124561341607
 20
964.2323674018239
 30
0.0
  0
VERTEX
  5
1AF
  8
DEFAULT
 10
-661.7124561341607
 20
980.4230409469155
 30
0.0
  0
VERTEX
  5
1B0
  8
DEFAULT
 10
-679.1129432317548
 20
987.6305586946366
 30
0.0
  0
VERTEX
  5
1B1
  8
DEFAULT
 10
-696.5134303293489
 20
980.4230409469146
 30
0.0
  0
VERTEX
  5
1B2
  8
DEFAULT
 10
-696.5134303293487
 20
964.2323674018235
 30
0.0
  0
SEQEND
  5
1B3
  8
DEFAULT
  0
POLYLINE
  5
1B4
  8
DEFAULT
 66
     1
 10
0.0
 20
0.0
 30
0.0
 70
     1
  0
VERTEX
  5
1B5
  8
DEFAULT
 10
-919.4608713239584
 20
946.8318803042303
 30
0.0
  0
VERTEX
  5
1B6
  8
DEFAULT
 10
-902.0603842263647
 20
964.2323674018239
 30
0.0
  0
VERTEX
  5
1B7
  8
DEFAULT
 10
-902.0603842263647
 20
980.4230409469155
 30
0.0
  0
VERTEX
  5
1B8
  8
DEFAULT
 10
-919.4608713239588
 20
987.6305586946366
 30
0.0
  0
VERTEX
  5
1B9
  8
DEFAULT
 10
-936.8613584215528
 20
980.4230409469146
 30
0.0
  0
VERTEX
  5
1BA
  8
DEFAULT
 10
-936.8613584215527
 20
964.2323674018235
 30
0.0
  0
SEQEND
  5
1BB
  8
DEFAULT
  0
POLYLINE
  5
1BC
  8
DEFAULT
 66
     1
 10
0.0
 20
0.0
 30
0.0
 70
     1
  0
VERTEX
  5
1BD
  8
DEFAULT
 10
-679.112943231755
 20
828.5111588893409
 30
0.0
  0
VERTEX
  5
1BE
  8
DEFAULT
 10
-696.5134303293489
 20
835.7186766370628
 30
0.0
  0
VERTEX
  5
1BF
  8
DEFAULT
 10
-696.5134303293487
 20
851.9093501821544
 30
0.0
  0
VERTEX
  5
1C0
  8
DEFAULT
 10
-679.1129432317546
 20
869.3098372797477
 30
0.0
  0
VERTEX
  5
1C1
  8
DEFAULT
 10
-661.7124561341607
 20
851.909350182154
 30
0.0
  0
VERTEX
  5
1C2
  8
DEFAULT
 10
-661.7124561341607
 20
835.718676637062
 30
0.0
  0
SEQEND
  5
1C3
  8
DEFAULT
  0
POLYLINE
  5
1C4
  8
DEFAULT
 66
     1
 10
0.0
 20
0.0
 30
0.0
 70
     1
  0
VERTEX
  5
1C5
  8
DEFAULT
 10
-640.351921719513
 20
908.0708587919896
 30
0.0
  0
VERTEX
  5
1C6
  8
DEFAULT
 10
-622.95143462192
 20
925.4713458895828
 30
0.0
  0
VERTEX
  5
1C7
  8
DEFAULT
 10
-606.7607610768287
 20
925.4713458895828
 30
0.0
  0
VERTEX
  5
1C8
  8
DEFAULT
 10
-599.5532433291069
 20
908.0708587919887
 30
0.0
  0
VERTEX
  5
1C9
  8
DEFAULT
 10
-606.7607610768287
 20
890.6703716943946
 30
0.0
  0
VERTEX
  5
1CA
  8
DEFAULT
 10
-622.95143462192
 20
890.6703716943946
 30
0.0
  0
SEQEND
  5
1CB
  8
DEFAULT
  0
POLYLINE
  5
1CC
  8
DEFAULT
 66
     1
 10
0.0
 20
0.0
 30
0.0
 70
     1
  0
VERTEX
  5
1CD
  8
DEFAULT
 10
-919.4608713239584
 20
869.3098372797477
 30
0.0
  0
VERTEX
  5
1CE
  8
DEFAULT
 10
-902.0603842263647
 20
851.909350182154
 30
0.0
  0
VERTEX
  5
1CF
  8
DEFAULT
 10
-902.0603842263647
 20
835.718676637062
 30
0.0
  0
VERTEX
  5
1D0
  8
DEFAULT
 10
-919.4608713239588
 20
828.5111588893409
 30
0.0
  0
VERTEX
  5
1D1
  8
DEFAULT
 10
-936.8613584215528
 20
835.7186766370628
 30
0.0
  0
VERTEX
  5
1D2
  8
DEFAULT
 10
-936.8613584215527
 20
851.9093501821544
 30
0.0
  0
SEQEND
  5
1D3
  8
DEFAULT
  0
POLYLINE
  5
1D4
  8
DEFAULT
 66
     1
 10
0.0
 20
0.0
 30
0.0
 70
     1
  0
VERTEX
  5
1D5
  8
DEFAULT
 10
-880.6998498117171
 20
908.0708587919896
 30
0.0
  0
VERTEX
  5
1D6
  8
DEFAULT
 10
-863.2993627141241
 20
925.4713458895828
 30
0.0
  0
VERTEX
  5
1D7
  8
DEFAULT
 10
-847.1086891690327
 20
925.4713458895828
 30
0.0
  0
VERTEX
  5
1D8
  8
DEFAULT
 10
-839.9011714213109
 20
908.0708587919887
 30
0.0
  0
VERTEX
  5
1D9
  8
DEFAULT
 10
-847.1086891690327
 20
890.6703716943946
 30
0.0
  0
VERTEX
  5
1DA
  8
DEFAULT
 10
-863.2993627141241
 20
890.6703716943946
 30
0.0
  0
SEQEND
  5
1DB
  8
DEFAULT
  0
POLYLINE
  5
1DC
  8
DEFAULT
 66
     1
 10
0.0
 20
0.0
 30
0.0
 70
     1
  0
VERTEX
  5
1DD
  8
DEFAULT
 10
-703.72094807707
 20
667.722930699785
 30
0.0
  0
VERTEX
  5
1DE
  8
DEFAULT
 10
-696.5134303293478
 20
660.5154129520638
 30
0.0
  0
VERTEX
  5
1DF
  8
DEFAULT
 10
-696.5134303293484
 20
650.3224436021922
 30
0.0
  0
VERTEX
  5
1E0
  8
DEFAULT
 10
-686.320460979475
 20
650.3224436021926
 30
0.0
  0
VERTEX
  5
1E1
  8
DEFAULT
 10
-679.1129432317545
 20
643.1149258544707
 30
0.0
  0
VERTEX
  5
1E2
  8
DEFAULT
 10
-671.9054254840323
 20
650.3224436021931
 30
0.0
  0
VERTEX
  5
1E3
  8
DEFAULT
 10
-661.7124561341607
 20
650.3224436021926
 30
0.0
  0
VERTEX
  5
1E4
  8
DEFAULT
 10
-661.7124561341611
 20
660.5154129520662
 30
0.0
  0
VERTEX
  5
1E5
  8
DEFAULT
 10
-654.5049383864394
 20
667.7229306997858
 30
0.0
  0
VERTEX
  5
1E6
  8
DEFAULT
 10
-661.7124561341611
 20
674.930448447506
 30
0.0
  0
VERTEX
  5
1E7
  8
DEFAULT
 10
-661.7124561341607
 20
685.12341779738
 30
0.0
  0
VERTEX
  5
1E8
  8
DEFAULT
 10
-671.9054254840323
 20
685.123417797379
 30
0.0
  0
VERTEX
  5
1E9
  8
DEFAULT
 10
-679.1129432317546
 20
692.3309355451015
 30
0.0
  0
VERTEX
  5
1EA
  8
DEFAULT
 10
-686.320460979475
 20
685.12341779738
 30
0.0
  0
VERTEX
  5
1EB
  8
DEFAULT
 10
-696.5134303293484
 20
685.12341779738
 30
0.0
  0
VERTEX
  5
1EC
  8
DEFAULT
 10
-696.5134303293478
 20
674.9304484475089
 30
0.0
  0
SEQEND
  5
1ED
  8
DEFAULT
  0
POLYLINE
  5
1EE
  8
DEFAULT
 66
     1
 10
0.0
 20
0.0
 30
0.0
 70
     1
  0
VERTEX
  5
1EF
  8
DEFAULT
 10
-823.8949121231724
 20
667.7229306997855
 30
0.0
  0
VERTEX
  5
1F0
  8
DEFAULT
 10
-816.6873943754497
 20
660.5154129520633
 30
0.0
  0
VERTEX
  5
1F1
  8
DEFAULT
 10
-816.6873943754503
 20
650.3224436021917
 30
0.0
  0
VERTEX
  5
1F2
  8
DEFAULT
 10
-806.4944250255769
 20
650.3224436021922
 30
0.0
  0
VERTEX
  5
1F3
  8
DEFAULT
 10
-799.2869072778567
 20
643.1149258544707
 30
0.0
  0
VERTEX
  5
1F4
  8
DEFAULT
 10
-792.0793895301347
 20
650.3224436021931
 30
0.0
  0
VERTEX
  5
1F5
  8
DEFAULT
 10
-781.886420180263
 20
650.3224436021923
 30
0.0
  0
VERTEX
  5
1F6
  8
DEFAULT
 10
-781.8864201802635
 20
660.5154129520656
 30
0.0
  0
VERTEX
  5
1F7
  8
DEFAULT
 10
-774.6789024325418
 20
667.7229306997858
 30
0.0
  0
VERTEX
  5
1F8
  8
DEFAULT
 10
-781.8864201802635
 20
674.930448447506
 30
0.0
  0
VERTEX
  5
1F9
  8
DEFAULT
 10
-781.886420180263
 20
685.12341779738
 30
0.0
  0
VERTEX
  5
1FA
  8
DEFAULT
 10
-792.0793895301347
 20
685.123417797379
 30
0.0
  0
VERTEX
  5
1FB
  8
DEFAULT
 10
-799.2869072778567
 20
692.3309355451019
 30
0.0
  0
VERTEX
  5
1FC
  8
DEFAULT
 10
-806.4944250255769
 20
685.12341779738
 30
0.0
  0
VERTEX
  5
1FD
  8
DEFAULT
 10
-816.6873943754503
 20
685.1234177973809
 30
0.0
  0
VERTEX
  5
1FE
  8
DEFAULT
 10
-816.6873943754497
 20
674.9304484475089
 30
0.0
  0
SEQEND
  5
1FF
  8
DEFAULT
  0
POLYLINE
  5
200
  8
DEFAULT
 66
     1
 10
0.0
 20
0.0
 30
0.0
 70
     1
  0
VERTEX
  5
201
  8
DEFAULT
 10
-944.0688761692741
 20
667.722930699785
 30
0.0
  0
VERTEX
  5
202
  8
DEFAULT
 10
-936.8613584215518
 20
660.5154129520638
 30
0.0
  0
VERTEX
  5
203
  8
DEFAULT
 10
-936.8613584215524
 20
650.3224436021922
 30
0.0
  0
VERTEX
  5
204
  8
DEFAULT
 10
-926.6683890716789
 20
650.3224436021926
 30
0.0
  0
VERTEX
  5
205
  8
DEFAULT
 10
-919.4608713239585
 20
643.1149258544707
 30
0.0
  0
VERTEX
  5
206
  8
DEFAULT
 10
-912.2533535762363
 20
650.3224436021931
 30
0.0
  0
VERTEX
  5
207
  8
DEFAULT
 10
-902.0603842263647
 20
650.3224436021926
 30
0.0
  0
VERTEX
  5
208
  8
DEFAULT
 10
-902.0603842263652
 20
660.5154129520662
 30
0.0
  0
VERTEX
  5
209
  8
DEFAULT
 10
-894.8528664786435
 20
667.7229306997858
 30
0.0
  0
VERTEX
  5
20A
  8
DEFAULT
 10
-902.0603842263652
 20
674.930448447506
 30
0.0
  0
VERTEX
  5
20B
  8
DEFAULT
 10
-902.0603842263647
 20
685.12341779738
 30
0.0
  0
VERTEX
  5
20C
  8
DEFAULT
 10
-912.2533535762363
 20
685.123417797379
 30
0.0
  0
VERTEX
  5
20D
  8
DEFAULT
 10
-919.4608713239586
 20
692.3309355451015
 30
0.0
  0
VERTEX
  5
20E
  8
DEFAULT
 10
-926.6683890716789
 20
685.12341779738
 30
0.0
  0
VERTEX
  5
20F
  8
DEFAULT
 10
-936.8613584215524
 20
685.12341779738
 30
0.0
  0
VERTEX
  5
210
  8
DEFAULT
 10
-936.8613584215518
 20
674.9304484475089
 30
0.0
  0
SEQEND
  5
211
  8
DEFAULT
  0
POLYLINE
  5
212
  8
DEFAULT
 66
     1
 10
0.0
 20
0.0
 30
0.0
 70
     1
  0
VERTEX
  5
213
  8
DEFAULT
 10
-717.8739647439966
 20
667.7229306997858
 30
0.0
  0
VERTEX
  5
214
  8
DEFAULT
 10
-735.2744518415896
 20
650.3224436021922
 30
0.0
  0
VERTEX
  5
215
  8
DEFAULT
 10
-751.4651253866814
 20
650.3224436021922
 30
0.0
  0
VERTEX
  5
216
  8
DEFAULT
 10
-758.672643134403
 20
667.7229306997858
 30
0.0
  0
VERTEX
  5
217
  8
DEFAULT
 10
-751.4651253866814
 20
685.12341779738
 30
0.0
  0
VERTEX
  5
218
  8
DEFAULT
 10
-735.2744518415896
 20
685.12341779738
 30
0.0
  0
SEQEND
  5
219
  8
DEFAULT
  0
POLYLINE
  5
21A
  8
DEFAULT
 66
     1
 10
0.0
 20
0.0
 30
0.0
 70
     1
  0
VERTEX
  5
21B
  8
DEFAULT
 10
-958.2218928362006
 20
667.7229306997858
 30
0.0
  0
VERTEX
  5
21C
  8
DEFAULT
 10
-975.6223799337936
 20
650.3224436021922
 30
0.0
  0
VERTEX
  5
21D
  8
DEFAULT
 10
-991.8130534788854
 20
650.3224436021922
 30
0.0
  0
VERTEX
  5
21E
  8
DEFAULT
 10
-999.020571226607
 20
667.7229306997858
 30
0.0
  0
VERTEX
  5
21F
  8
DEFAULT
 10
-991.8130534788854
 20
685.12341779738
 30
0.0
  0
VERTEX
  5
220
  8
DEFAULT
 10
-975.6223799337936
 20
685.12341779738
 30
0.0
  0
SEQEND
  5
221
  8
DEFAULT
  0
POLYLINE
  5
222
  8
DEFAULT
 66
     1
 10
0.0
 20
0.0
 30
0.0
 70
     1
  0
VERTEX
  5
223
  8
DEFAULT
 10
-679.1129432317548
 20
763.2888899005727
 30
0.0
  0
VERTEX
  5
224
  8
DEFAULT
 10
-671.9054254840346
 20
770.4964076482945
 30
0.0
  0
VERTEX
  5
225
  8
DEFAULT
 10
-661.712456134161
 20
770.4964076482942
 30
0.0
  0
VERTEX
  5
226
  8
DEFAULT
 10
-661.7124561341618
 20
780.6893769981657
 30
0.0
  0
VERTEX
  5
227
  8
DEFAULT
 10
-654.5049383864398
 20
787.8968947458877
 30
0.0
  0
VERTEX
  5
228
  8
DEFAULT
 10
-661.7124561341618
 20
795.1044124936088
 30
0.0
  0
VERTEX
  5
229
  8
DEFAULT
 10
-661.712456134161
 20
805.2973818434809
 30
0.0
  0
VERTEX
  5
22A
  8
DEFAULT
 10
-671.9054254840346
 20
805.2973818434809
 30
0.0
  0
VERTEX
  5
22B
  8
DEFAULT
 10
-679.1129432317548
 20
812.504899591202
 30
0.0
  0
VERTEX
  5
22C
  8
DEFAULT
 10
-686.3204609794752
 20
805.2973818434809
 30
0.0
  0
VERTEX
  5
22D
  8
DEFAULT
 10
-696.5134303293482
 20
805.2973818434809
 30
0.0
  0
VERTEX
  5
22E
  8
DEFAULT
 10
-696.513430329348
 20
795.104412493607
 30
0.0
  0
VERTEX
  5
22F
  8
DEFAULT
 10
-703.7209480770688
 20
787.8968947458877
 30
0.0
  0
VERTEX
  5
230
  8
DEFAULT
 10
-696.513430329348
 20
780.689376998168
 30
0.0
  0
VERTEX
  5
231
  8
DEFAULT
 10
-696.5134303293482
 20
770.4964076482945
 30
0.0
  0
VERTEX
  5
232
  8
DEFAULT
 10
-686.3204609794752
 20
770.4964076482945
 30
0.0
  0
SEQEND
  5
233
  8
DEFAULT
  0
POLYLINE
  5
234
  8
DEFAULT
 66
     1
 10
0.0
 20
0.0
 30
0.0
 70
     1
  0
VERTEX
  5
235
  8
DEFAULT
 10
-703.72094807707
 20
908.0708587919879
 30
0.0
  0
VERTEX
  5
236
  8
DEFAULT
 10
-696.5134303293478
 20
900.8633410442667
 30
0.0
  0
VERTEX
  5
237
  8
DEFAULT
 10
-696.5134303293484
 20
890.6703716943947
 30
0.0
  0
VERTEX
  5
238
  8
DEFAULT
 10
-686.320460979475
 20
890.6703716943956
 30
0.0
  0
VERTEX
  5
239
  8
DEFAULT
 10
-679.1129432317545
 20
883.4628539466736
 30
0.0
  0
VERTEX
  5
23A
  8
DEFAULT
 10
-671.9054254840323
 20
890.6703716943955
 30
0.0
  0
VERTEX
  5
23B
  8
DEFAULT
 10
-661.7124561341607
 20
890.6703716943952
 30
0.0
  0
VERTEX
  5
23C
  8
DEFAULT
 10
-661.7124561341611
 20
900.8633410442685
 30
0.0
  0
VERTEX
  5
23D
  8
DEFAULT
 10
-654.5049383864394
 20
908.0708587919887
 30
0.0
  0
VERTEX
  5
23E
  8
DEFAULT
 10
-661.7124561341611
 20
915.2783765397089
 30
0.0
  0
VERTEX
  5
23F
  8
DEFAULT
 10
-661.7124561341607
 20
925.4713458895828
 30
0.0
  0
VERTEX
  5
240
  8
DEFAULT
 10
-671.9054254840323
 20
925.4713458895819
 30
0.0
  0
VERTEX
  5
241
  8
DEFAULT
 10
-679.1129432317545
 20
932.6788636373044
 30
0.0
  0
VERTEX
  5
242
  8
DEFAULT
 10
-686.320460979475
 20
925.4713458895824
 30
0.0
  0
VERTEX
  5
243
  8
DEFAULT
 10
-696.5134303293485
 20
925.4713458895828
 30
0.0
  0
VERTEX
  5
244
  8
DEFAULT
 10
-696.5134303293478
 20
915.2783765397113
 30
0.0
  0
SEQEND
  5
245
  8
DEFAULT
  0
POLYLINE
  5
246
  8
DEFAULT
 66
     1
 10
0.0
 20
0.0
 30
0.0
 70
     1
  0
VERTEX
  5
247
  8
DEFAULT
 10
-919.4608713239588
 20
763.2888899005727
 30
0.0
  0
VERTEX
  5
248
  8
DEFAULT
 10
-912.2533535762386
 20
770.4964076482945
 30
0.0
  0
VERTEX
  5
249
  8
DEFAULT
 10
-902.060384226365
 20
770.4964076482942
 30
0.0
  0
VERTEX
  5
24A
  8
DEFAULT
 10
-902.0603842263658
 20
780.6893769981657
 30
0.0
  0
VERTEX
  5
24B
  8
DEFAULT
 10
-894.8528664786438
 20
787.8968947458877
 30
0.0
  0
VERTEX
  5
24C
  8
DEFAULT
 10
-902.0603842263658
 20
795.1044124936088
 30
0.0
  0
VERTEX
  5
24D
  8
DEFAULT
 10
-902.060384226365
 20
805.2973818434809
 30
0.0
  0
VERTEX
  5
24E
  8
DEFAULT
 10
-912.2533535762386
 20
805.2973818434809
 30
0.0
  0
VERTEX
  5
24F
  8
DEFAULT
 10
-919.4608713239588
 20
812.504899591202
 30
0.0
  0
VERTEX
  5
250
  8
DEFAULT
 10
-926.6683890716793
 20
805.2973818434809
 30
0.0
  0
VERTEX
  5
251
  8
DEFAULT
 10
-936.8613584215523
 20
805.2973818434809
 30
0.0
  0
VERTEX
  5
252
  8
DEFAULT
 10
-936.861358421552
 20
795.104412493607
 30
0.0
  0
VERTEX
  5
253
  8
DEFAULT
 10
-944.0688761692728
 20
787.8968947458877
 30
0.0
  0
VERTEX
  5
254
  8
DEFAULT
 10
-936.861358421552
 20
780.689376998168
 30
0.0
  0
VERTEX
  5
255
  8
DEFAULT
 10
-936.8613584215523
 20
770.4964076482945
 30
0.0
  0
VERTEX
  5
256
  8
DEFAULT
 10
-926.6683890716793
 20
770.4964076482945
 30
0.0
  0
SEQEND
  5
257
  8
DEFAULT
  0
POLYLINE
  5
258
  8
DEFAULT
 66
     1
 10
0.0
 20
0.0
 30
0.0
 70
     1
  0
VERTEX
  5
259
  8
DEFAULT
 10
-823.8949121231724
 20
908.0708587919879
 30
0.0
  0
VERTEX
  5
25A
  8
DEFAULT
 10
-816.6873943754497
 20
900.8633410442658
 30
0.0
  0
VERTEX
  5
25B
  8
DEFAULT
 10
-816.6873943754503
 20
890.6703716943946
 30
0.0
  0
VERTEX
  5
25C
  8
DEFAULT
 10
-806.4944250255769
 20
890.6703716943946
 30
0.0
  0
VERTEX
  5
25D
  8
DEFAULT
 10
-799.2869072778567
 20
883.4628539466731
 30
0.0
  0
VERTEX
  5
25E
  8
DEFAULT
 10
-792.0793895301347
 20
890.6703716943956
 30
0.0
  0
VERTEX
  5
25F
  8
DEFAULT
 10
-781.886420180263
 20
890.6703716943947
 30
0.0
  0
VERTEX
  5
260
  8
DEFAULT
 10
-781.8864201802635
 20
900.8633410442685
 30
0.0
  0
VERTEX
  5
261
  8
DEFAULT
 10
-774.6789024325418
 20
908.0708587919887
 30
0.0
  0
VERTEX
  5
262
  8
DEFAULT
 10
-781.8864201802635
 20
915.2783765397089
 30
0.0
  0
VERTEX
  5
263
  8
DEFAULT
 10
-781.886420180263
 20
925.4713458895828
 30
0.0
  0
VERTEX
  5
264
  8
DEFAULT
 10
-792.0793895301347
 20
925.4713458895819
 30
0.0
  0
VERTEX
  5
265
  8
DEFAULT
 10
-799.2869072778567
 20
932.6788636373047
 30
0.0
  0
VERTEX
  5
266
  8
DEFAULT
 10
-806.4944250255769
 20
925.4713458895828
 30
0.0
  0
VERTEX
  5
267
  8
DEFAULT
 10
-816.6873943754503
 20
925.4713458895833
 30
0.0
  0
VERTEX
  5
268
  8
DEFAULT
 10
-816.6873943754497
 20
915.2783765397118
 30
0.0
  0
SEQEND
  5
269
  8
DEFAULT
  0
POLYLINE
  5
26A
  8
DEFAULT
 66
     1
 10
0.0
 20
0.0
 30
0.0
 70
     1
  0
VERTEX
  5
26B
  8
DEFAULT
 10
-944.0688761692741
 20
908.0708587919879
 30
0.0
  0
VERTEX
  5
26C
  8
DEFAULT
 10
-936.8613584215518
 20
900.8633410442667
 30
0.0
  0
VERTEX
  5
26D
  8
DEFAULT
 10
-936.8613584215524
 20
890.6703716943947
 30
0.0
  0
VERTEX
  5
26E
  8
DEFAULT
 10
-926.6683890716789
 20
890.6703716943956
 30
0.0
  0
VERTEX
  5
26F
  8
DEFAULT
 10
-919.4608713239585
 20
883.4628539466736
 30
0.0
  0
VERTEX
  5
270
  8
DEFAULT
 10
-912.2533535762363
 20
890.6703716943955
 30
0.0
  0
VERTEX
  5
271
  8
DEFAULT
 10
-902.0603842263647
 20
890.6703716943952
 30
0.0
  0
VERTEX
  5
272
  8
DEFAULT
 10
-902.0603842263652
 20
900.8633410442685
 30
0.0
  0
VERTEX
  5
273
  8
DEFAULT
 10
-894.8528664786435
 20
908.0708587919887
 30
0.0
  0
VERTEX
  5
274
  8
DEFAULT
 10
-902.0603842263652
 20
915.2783765397089
 30
0.0
  0
VERTEX
  5
275
  8
DEFAULT
 10
-902.0603842263647
 20
925.4713458895828
 30
0.0
  0
VERTEX
  5
276
  8
DEFAULT
 10
-912.2533535762363
 20
925.4713458895819
 30
0.0
  0
VERTEX
  5
277
  8
DEFAULT
 10
-919.4608713239585
 20
932.6788636373044
 30
0.0
  0
VERTEX
  5
278
  8
DEFAULT
 10
-926.6683890716789
 20
925.4713458895824
 30
0.0
  0
VERTEX
  5
279
  8
DEFAULT
 10
-936.8613584215525
 20
925.4713458895828
 30
0.0
  0
VERTEX
  5
27A
  8
DEFAULT
 10
-936.8613584215518
 20
915.2783765397113
 30
0.0
  0
SEQEND
  5
27B
  8
DEFAULT
  0
POLYLINE
  5
27C
  8
DEFAULT
 66
     1
 10
0.0
 20
0.0
 30
0.0
 70
     1
  0
VERTEX
  5
27D
  8
DEFAULT
 10
-717.8739647439966
 20
908.0708587919883
 30
0.0
  0
VERTEX
  5
27E
  8
DEFAULT
 10
-735.2744518415896
 20
890.6703716943946
 30
0.0
  0
VERTEX
  5
27F
  8
DEFAULT
 10
-751.4651253866814
 20
890.6703716943946
 30
0.0
  0
VERTEX
  5
280
  8
DEFAULT
 10
-758.672643134403
 20
908.0708587919887
 30
0.0
  0
VERTEX
  5
281
  8
DEFAULT
 10
-751.4651253866814
 20
925.4713458895828
 30
0.0
  0
VERTEX
  5
282
  8
DEFAULT
 10
-735.2744518415896
 20
925.4713458895828
 30
0.0
  0
SEQEND
  5
283
  8
DEFAULT
  0
POLYLINE
  5
284
  8
DEFAULT
 66
     1
 10
0.0
 20
0.0
 30
0.0
 70
     1
  0
VERTEX
  5
285
  8
DEFAULT
 10
-958.2218928362006
 20
908.0708587919883
 30
0.0
  0
VERTEX
  5
286
  8
DEFAULT
 10
-975.6223799337936
 20
890.6703716943946
 30
0.0
  0
VERTEX
  5
287
  8
DEFAULT
 10
-991.8130534788854
 20
890.6703716943946
 30
0.0
  0
VERTEX
  5
288
  8
DEFAULT
 10
-999.020571226607
 20
908.0708587919887
 30
0.0
  0
VERTEX
  5
289
  8
DEFAULT
 10
-991.8130534788854
 20
925.4713458895828
 30
0.0
  0
VERTEX
  5
28A
  8
DEFAULT
 10
-975.6223799337936
 20
925.4713458895828
 30
0.0
  0
SEQEND
  5
28B
  8
DEFAULT
  0
POLYLINE
  5
28C
  8
DEFAULT
 66
     1
 10
0.0
 20
0.0
 30
0.0
 70
     1
  0
VERTEX
  5
28D
  8
DEFAULT
 10
-565.288096179382
 20
635.311026181274
 30
0.0
  0
VERTEX
  5
28E
  8
DEFAULT
 10
-570.2918195408695
 20
640.3147495427627
 30
0.0
  0
VERTEX
  5
28F
  8
DEFAULT
 10
-586.3471603426761
 20
640.3147495427622
 30
0.0
  0
VERTEX
  5
290
  8
DEFAULT
 10
-586.3471603426751
 20
656.370090344567
 30
0.0
  0
VERTEX
  5
291
  8
DEFAULT
 10
-591.3508837041646
 20
661.373813706056
 30
0.0
  0
VERTEX
  5
292
  8
DEFAULT
 10
-600.0738336914862
 20
640.3147495427627
 30
0.0
  0
VERTEX
  5
293
  8
DEFAULT
 10
-612.9437405624906
 20
640.3147495427627
 30
0.0
  0
VERTEX
  5
294
  8
DEFAULT
 10
-603.843342140764
 20
631.2143511210361
 30
0.0
  0
VERTEX
  5
295
  8
DEFAULT
 10
-609.7800574995622
 20
616.8818523858764
 30
0.0
  0
VERTEX
  5
296
  8
DEFAULT
 10
-595.4475587644024
 20
622.8185677446747
 30
0.0
  0
VERTEX
  5
297
  8
DEFAULT
 10
-586.3471603426758
 20
613.7181693229481
 30
0.0
  0
VERTEX
  5
298
  8
DEFAULT
 10
-586.3471603426758
 20
626.588076193953
 30
0.0
  0
SEQEND
  5
299
  8
DEFAULT
  0
POLYLINE
  5
29A
  8
DEFAULT
 66
     1
 10
0.0
 20
0.0
 30
0.0
 70
     1
  0
VERTEX
  5
29B
  8
DEFAULT
 10
-672.7638262380254
 20
579.9608711721958
 30
0.0
  0
VERTEX
  5
29C
  8
DEFAULT
 10
-667.760102876538
 20
574.957147810707
 30
0.0
  0
VERTEX
  5
29D
  8
DEFAULT
 10
-651.7047620747309
 20
574.957147810708
 30
0.0
  0
VERTEX
  5
29E
  8
DEFAULT
 10
-651.7047620747323
 20
558.9018070089028
 30
0.0
  0
VERTEX
  5
29F
  8
DEFAULT
 10
-646.701038713243
 20
553.898083647413
 30
0.0
  0
VERTEX
  5
2A0
  8
DEFAULT
 10
-637.9780887259212
 20
574.957147810707
 30
0.0
  0
VERTEX
  5
2A1
  8
DEFAULT
 10
-625.1081818549168
 20
574.9571478107075
 30
0.0
  0
VERTEX
  5
2A2
  8
DEFAULT
 10
-634.208580276643
 20
584.0575462324341
 30
0.0
  0
VERTEX
  5
2A3
  8
DEFAULT
 10
-628.2718649178448
 20
598.3900449675939
 30
0.0
  0
VERTEX
  5
2A4
  8
DEFAULT
 10
-642.6043636530051
 20
592.4533296087955
 30
0.0
  0
VERTEX
  5
2A5
  8
DEFAULT
 10
-651.7047620747317
 20
601.5537280305216
 30
0.0
  0
VERTEX
  5
2A6
  8
DEFAULT
 10
-651.7047620747314
 20
588.6838211595168
 30
0.0
  0
SEQEND
  5
2A7
  8
DEFAULT
  0
POLYLINE
  5
2A8
  8
DEFAULT
 66
     1
 10
0.0
 20
0.0
 30
0.0
 70
     1
  0
VERTEX
  5
2A9
  8
DEFAULT
 10
-661.7124561341607
 20
640.3147495427627
 30
0.0
  0
VERTEX
  5
2AA
  8
DEFAULT
 10
-661.7124561341607
 20
625.7144387568765
 30
0.0
  0
VERTEX
  5
2AB
  8
DEFAULT
 10
-672.0364348982916
 20
636.0384175210077
 30
0.0
  0
VERTEX
  5
2AC
  8
DEFAULT
 10
-667.7601028765371
 20
640.3147495427627
 30
0.0
  0
SEQEND
  5
2AD
  8
DEFAULT
  0
POLYLINE
  5
2AE
  8
DEFAULT
 66
     1
 10
0.0
 20
0.0
 30
0.0
 70
     1
  0
VERTEX
  5
2AF
  8
DEFAULT
 10
-651.7047620747317
 20
650.3224436021922
 30
0.0
  0
VERTEX
  5
2B0
  8
DEFAULT
 10
-651.7047620747319
 20
656.3700903445679
 30
0.0
  0
VERTEX
  5
2B1
  8
DEFAULT
 10
-647.4284300529766
 20
660.6464223663233
 30
0.0
  0
VERTEX
  5
2B2
  8
DEFAULT
 10
-637.1044512888457
 20
650.3224436021922
 30
0.0
  0
SEQEND
  5
2B3
  8
DEFAULT
  0
POLYLINE
  5
2B4
  8
DEFAULT
 66
     1
 10
0.0
 20
0.0
 30
0.0
 70
     1
  0
VERTEX
  5
2B5
  8
DEFAULT
 10
-622.8557399214258
 20
611.4657273894574
 30
0.0
  0
VERTEX
  5
2B6
  8
DEFAULT
 10
-640.2562270190199
 20
604.2582096417361
 30
0.0
  0
VERTEX
  5
2B7
  8
DEFAULT
 10
-651.7047620747317
 20
615.7067446974479
 30
0.0
  0
VERTEX
  5
2B8
  8
DEFAULT
 10
-651.7047620747312
 20
640.3147495427627
 30
0.0
  0
VERTEX
  5
2B9
  8
DEFAULT
 10
-627.0967572294164
 20
640.3147495427631
 30
0.0
  0
VERTEX
  5
2BA
  8
DEFAULT
 10
-615.6482221737042
 20
628.8662144870509
 30
0.0
  0
SEQEND
  5
2BB
  8
DEFAULT
  0
POLYLINE
  5
2BC
  8
DEFAULT
 66
     1
 10
0.0
 20
0.0
 30
0.0
 70
     1
  0
VERTEX
  5
2BD
  8
DEFAULT
 10
-576.3394662832468
 20
574.957147810707
 30
0.0
  0
VERTEX
  5
2BE
  8
DEFAULT
 10
-576.3394662832466
 20
589.5574585965933
 30
0.0
  0
VERTEX
  5
2BF
  8
DEFAULT
 10
-566.0154875191156
 20
579.2334798324621
 30
0.0
  0
VERTEX
  5
2C0
  8
DEFAULT
 10
-570.2918195408704
 20
574.957147810707
 30
0.0
  0
SEQEND
  5
2C1
  8
DEFAULT
  0
POLYLINE
  5
2C2
  8
DEFAULT
 66
     1
 10
0.0
 20
0.0
 30
0.0
 70
     1
  0
VERTEX
  5
2C3
  8
DEFAULT
 10
-590.6234923644308
 20
554.6254749871468
 30
0.0
  0
VERTEX
  5
2C4
  8
DEFAULT
 10
-600.947471128562
 20
564.949453751278
 30
0.0
  0
VERTEX
  5
2C5
  8
DEFAULT
 10
-586.3471603426758
 20
564.949453751278
 30
0.0
  0
VERTEX
  5
2C6
  8
DEFAULT
 10
-586.3471603426756
 20
558.9018070089019
 30
0.0
  0
SEQEND
  5
2C7
  8
DEFAULT
  0
POLYLINE
  5
2C8
  8
DEFAULT
 66
     1
 10
0.0
 20
0.0
 30
0.0
 70
     1
  0
VERTEX
  5
2C9
  8
DEFAULT
 10
-615.1961824959817
 20
603.8061699640134
 30
0.0
  0
VERTEX
  5
2CA
  8
DEFAULT
 10
-597.7956953983876
 20
611.0136877117341
 30
0.0
  0
VERTEX
  5
2CB
  8
DEFAULT
 10
-586.3471603426758
 20
599.5651526560223
 30
0.0
  0
VERTEX
  5
2CC
  8
DEFAULT
 10
-586.3471603426763
 20
574.957147810707
 30
0.0
  0
VERTEX
  5
2CD
  8
DEFAULT
 10
-610.9551651879906
 20
574.957147810707
 30
0.0
  0
VERTEX
  5
2CE
  8
DEFAULT
 10
-622.4037002437033
 20
586.4056828664193
 30
0.0
  0
SEQEND
  5
2CF
  8
DEFAULT
  0
POLYLINE
  5
2D0
  8
DEFAULT
 66
     1
 10
0.0
 20
0.0
 30
0.0
 70
     1
  0
VERTEX
  5
2D1
  8
DEFAULT
 10
-729.9540215456643
 20
598.3900449675934
 30
0.0
  0
VERTEX
  5
2D2
  8
DEFAULT
 10
-724.0173061868661
 20
584.0575462324341
 30
0.0
  0
VERTEX
  5
2D3
  8
DEFAULT
 10
-733.1177046085929
 20
574.9571478107075
 30
0.0
  0
VERTEX
  5
2D4
  8
DEFAULT
 10
-720.2477977375881
 20
574.9571478107075
 30
0.0
  0
VERTEX
  5
2D5
  8
DEFAULT
 10
-711.5248477502663
 20
553.8980836474128
 30
0.0
  0
VERTEX
  5
2D6
  8
DEFAULT
 10
-706.5211243887773
 20
558.901807008901
 30
0.0
  0
VERTEX
  5
2D7
  8
DEFAULT
 10
-706.5211243887777
 20
574.957147810707
 30
0.0
  0
VERTEX
  5
2D8
  8
DEFAULT
 10
-690.4657835869718
 20
574.957147810707
 30
0.0
  0
VERTEX
  5
2D9
  8
DEFAULT
 10
-685.4620602254842
 20
579.9608711721959
 30
0.0
  0
VERTEX
  5
2DA
  8
DEFAULT
 10
-706.5211243887782
 20
588.6838211595177
 30
0.0
  0
VERTEX
  5
2DB
  8
DEFAULT
 10
-706.5211243887779
 20
601.553728030522
 30
0.0
  0
VERTEX
  5
2DC
  8
DEFAULT
 10
-715.6215228105045
 20
592.4533296087955
 30
0.0
  0
SEQEND
  5
2DD
  8
DEFAULT
  0
POLYLINE
  5
2DE
  8
DEFAULT
 66
     1
 10
0.0
 20
0.0
 30
0.0
 70
     1
  0
VERTEX
  5
2DF
  8
DEFAULT
 10
-805.636024271586
 20
635.311026181274
 30
0.0
  0
VERTEX
  5
2E0
  8
DEFAULT
 10
-810.6397476330734
 20
640.3147495427627
 30
0.0
  0
VERTEX
  5
2E1
  8
DEFAULT
 10
-826.6950884348802
 20
640.3147495427622
 30
0.0
  0
VERTEX
  5
2E2
  8
DEFAULT
 10
-826.6950884348792
 20
656.370090344567
 30
0.0
  0
VERTEX
  5
2E3
  8
DEFAULT
 10
-831.6988117963687
 20
661.373813706056
 30
0.0
  0
VERTEX
  5
2E4
  8
DEFAULT
 10
-840.4217617836903
 20
640.3147495427627
 30
0.0
  0
VERTEX
  5
2E5
  8
DEFAULT
 10
-853.2916686546946
 20
640.3147495427627
 30
0.0
  0
VERTEX
  5
2E6
  8
DEFAULT
 10
-844.191270232968
 20
631.2143511210361
 30
0.0
  0
VERTEX
  5
2E7
  8
DEFAULT
 10
-850.1279855917662
 20
616.8818523858764
 30
0.0
  0
VERTEX
  5
2E8
  8
DEFAULT
 10
-835.7954868566064
 20
622.8185677446747
 30
0.0
  0
VERTEX
  5
2E9
  8
DEFAULT
 10
-826.6950884348798
 20
613.7181693229481
 30
0.0
  0
VERTEX
  5
2EA
  8
DEFAULT
 10
-826.6950884348798
 20
626.588076193953
 30
0.0
  0
SEQEND
  5
2EB
  8
DEFAULT
  0
POLYLINE
  5
2EC
  8
DEFAULT
 66
     1
 10
0.0
 20
0.0
 30
0.0
 70
     1
  0
VERTEX
  5
2ED
  8
DEFAULT
 10
-748.4458289639471
 20
616.8818523858761
 30
0.0
  0
VERTEX
  5
2EE
  8
DEFAULT
 10
-754.3825443227456
 20
631.2143511210365
 30
0.0
  0
VERTEX
  5
2EF
  8
DEFAULT
 10
-745.2821459010191
 20
640.3147495427631
 30
0.0
  0
VERTEX
  5
2F0
  8
DEFAULT
 10
-758.1520527720238
 20
640.3147495427627
 30
0.0
  0
VERTEX
  5
2F1
  8
DEFAULT
 10
-766.8750027593452
 20
661.3738137060569
 30
0.0
  0
VERTEX
  5
2F2
  8
DEFAULT
 10
-771.878726120834
 20
656.3700903445692
 30
0.0
  0
VERTEX
  5
2F3
  8
DEFAULT
 10
-771.8787261208336
 20
640.3147495427622
 30
0.0
  0
VERTEX
  5
2F4
  8
DEFAULT
 10
-787.9340669226383
 20
640.3147495427636
 30
0.0
  0
VERTEX
  5
2F5
  8
DEFAULT
 10
-792.9377902841275
 20
635.3110261812743
 30
0.0
  0
VERTEX
  5
2F6
  8
DEFAULT
 10
-771.8787261208336
 20
626.5880761939525
 30
0.0
  0
VERTEX
  5
2F7
  8
DEFAULT
 10
-771.8787261208336
 20
613.7181693229481
 30
0.0
  0
VERTEX
  5
2F8
  8
DEFAULT
 10
-762.778327699107
 20
622.8185677446747
 30
0.0
  0
SEQEND
  5
2F9
  8
DEFAULT
  0
POLYLINE
  5
2FA
  8
DEFAULT
 66
     1
 10
0.0
 20
0.0
 30
0.0
 70
     1
  0
VERTEX
  5
2FB
  8
DEFAULT
 10
-913.1117543302294
 20
579.9608711721958
 30
0.0
  0
VERTEX
  5
2FC
  8
DEFAULT
 10
-908.108030968742
 20
574.957147810707
 30
0.0
  0
VERTEX
  5
2FD
  8
DEFAULT
 10
-892.0526901669349
 20
574.957147810708
 30
0.0
  0
VERTEX
  5
2FE
  8
DEFAULT
 10
-892.0526901669364
 20
558.9018070089028
 30
0.0
  0
VERTEX
  5
2FF
  8
DEFAULT
 10
-887.048966805447
 20
553.898083647413
 30
0.0
  0
VERTEX
  5
300
  8
DEFAULT
 10
-878.3260168181253
 20
574.957147810707
 30
0.0
  0
VERTEX
  5
301
  8
DEFAULT
 10
-865.4561099471208
 20
574.9571478107075
 30
0.0
  0
VERTEX
  5
302
  8
DEFAULT
 10
-874.5565083688471
 20
584.0575462324341
 30
0.0
  0
VERTEX
  5
303
  8
DEFAULT
 10
-868.6197930100489
 20
598.3900449675939
 30
0.0
  0
VERTEX
  5
304
  8
DEFAULT
 10
-882.9522917452091
 20
592.4533296087955
 30
0.0
  0
VERTEX
  5
305
  8
DEFAULT
 10
-892.0526901669357
 20
601.5537280305216
 30
0.0
  0
VERTEX
  5
306
  8
DEFAULT
 10
-892.0526901669355
 20
588.6838211595168
 30
0.0
  0
SEQEND
  5
307
  8
DEFAULT
  0
POLYLINE
  5
308
  8
DEFAULT
 66
     1
 10
0.0
 20
0.0
 30
0.0
 70
     1
  0
VERTEX
  5
309
  8
DEFAULT
 10
-902.0603842263647
 20
640.3147495427627
 30
0.0
  0
VERTEX
  5
30A
  8
DEFAULT
 10
-902.0603842263647
 20
625.7144387568765
 30
0.0
  0
VERTEX
  5
30B
  8
DEFAULT
 10
-912.3843629904957
 20
636.0384175210077
 30
0.0
  0
VERTEX
  5
30C
  8
DEFAULT
 10
-908.1080309687411
 20
640.3147495427627
 30
0.0
  0
SEQEND
  5
30D
  8
DEFAULT
  0
POLYLINE
  5
30E
  8
DEFAULT
 66
     1
 10
0.0
 20
0.0
 30
0.0
 70
     1
  0
VERTEX
  5
30F
  8
DEFAULT
 10
-892.0526901669357
 20
650.3224436021922
 30
0.0
  0
VERTEX
  5
310
  8
DEFAULT
 10
-892.0526901669359
 20
656.3700903445679
 30
0.0
  0
VERTEX
  5
311
  8
DEFAULT
 10
-887.7763581451807
 20
660.6464223663233
 30
0.0
  0
VERTEX
  5
312
  8
DEFAULT
 10
-877.4523793810497
 20
650.3224436021922
 30
0.0
  0
SEQEND
  5
313
  8
DEFAULT
  0
POLYLINE
  5
314
  8
DEFAULT
 66
     1
 10
0.0
 20
0.0
 30
0.0
 70
     1
  0
VERTEX
  5
315
  8
DEFAULT
 10
-863.2036680136298
 20
611.4657273894574
 30
0.0
  0
VERTEX
  5
316
  8
DEFAULT
 10
-880.6041551112239
 20
604.2582096417361
 30
0.0
  0
VERTEX
  5
317
  8
DEFAULT
 10
-892.0526901669357
 20
615.7067446974479
 30
0.0
  0
VERTEX
  5
318
  8
DEFAULT
 10
-892.0526901669352
 20
640.3147495427627
 30
0.0
  0
VERTEX
  5
319
  8
DEFAULT
 10
-867.4446853216205
 20
640.3147495427631
 30
0.0
  0
VERTEX
  5
31A
  8
DEFAULT
 10
-855.9961502659082
 20
628.8662144870509
 30
0.0
  0
SEQEND
  5
31B
  8
DEFAULT
  0
POLYLINE
  5
31C
  8
DEFAULT
 66
     1
 10
0.0
 20
0.0
 30
0.0
 70
     1
  0
VERTEX
  5
31D
  8
DEFAULT
 10
-767.6023940990788
 20
554.6254749871473
 30
0.0
  0
VERTEX
  5
31E
  8
DEFAULT
 10
-771.8787261208338
 20
558.9018070089019
 30
0.0
  0
VERTEX
  5
31F
  8
DEFAULT
 10
-771.8787261208336
 20
564.949453751278
 30
0.0
  0
VERTEX
  5
320
  8
DEFAULT
 10
-757.2784153349478
 20
564.949453751278
 30
0.0
  0
SEQEND
  5
321
  8
DEFAULT
  0
POLYLINE
  5
322
  8
DEFAULT
 66
     1
 10
0.0
 20
0.0
 30
0.0
 70
     1
  0
VERTEX
  5
323
  8
DEFAULT
 10
-792.210398944394
 20
579.2334798324621
 30
0.0
  0
VERTEX
  5
324
  8
DEFAULT
 10
-781.8864201802628
 20
589.5574585965933
 30
0.0
  0
VERTEX
  5
325
  8
DEFAULT
 10
-781.886420180263
 20
574.9571478107075
 30
0.0
  0
VERTEX
  5
326
  8
DEFAULT
 10
-787.9340669226392
 20
574.957147810707
 30
0.0
  0
SEQEND
  5
327
  8
DEFAULT
  0
POLYLINE
  5
328
  8
DEFAULT
 66
     1
 10
0.0
 20
0.0
 30
0.0
 70
     1
  0
VERTEX
  5
329
  8
DEFAULT
 10
-816.6873943754508
 20
574.957147810707
 30
0.0
  0
VERTEX
  5
32A
  8
DEFAULT
 10
-816.6873943754506
 20
589.5574585965933
 30
0.0
  0
VERTEX
  5
32B
  8
DEFAULT
 10
-806.3634156113196
 20
579.2334798324621
 30
0.0
  0
VERTEX
  5
32C
  8
DEFAULT
 10
-810.6397476330744
 20
574.957147810707
 30
0.0
  0
SEQEND
  5
32D
  8
DEFAULT
  0
POLYLINE
  5
32E
  8
DEFAULT
 66
     1
 10
0.0
 20
0.0
 30
0.0
 70
     1
  0
VERTEX
  5
32F
  8
DEFAULT
 10
-830.9714204566349
 20
554.6254749871468
 30
0.0
  0
VERTEX
  5
330
  8
DEFAULT
 10
-841.2953992207661
 20
564.949453751278
 30
0.0
  0
VERTEX
  5
331
  8
DEFAULT
 10
-826.6950884348798
 20
564.949453751278
 30
0.0
  0
VERTEX
  5
332
  8
DEFAULT
 10
-826.6950884348798
 20
558.9018070089019
 30
0.0
  0
SEQEND
  5
333
  8
DEFAULT
  0
POLYLINE
  5
334
  8
DEFAULT
 66
     1
 10
0.0
 20
0.0
 30
0.0
 70
     1
  0
VERTEX
  5
335
  8
DEFAULT
 10
-743.0297039675277
 20
603.806169964013
 30
0.0
  0
VERTEX
  5
336
  8
DEFAULT
 10
-735.8221862198068
 20
586.4056828664193
 30
0.0
  0
VERTEX
  5
337
  8
DEFAULT
 10
-747.2707212755186
 20
574.957147810707
 30
0.0
  0
VERTEX
  5
338
  8
DEFAULT
 10
-771.8787261208336
 20
574.9571478107075
 30
0.0
  0
VERTEX
  5
339
  8
DEFAULT
 10
-771.8787261208336
 20
599.5651526560223
 30
0.0
  0
VERTEX
  5
33A
  8
DEFAULT
 10
-760.4301910651218
 20
611.0136877117345
 30
0.0
  0
SEQEND
  5
33B
  8
DEFAULT
  0
POLYLINE
  5
33C
  8
DEFAULT
 66
     1
 10
0.0
 20
0.0
 30
0.0
 70
     1
  0
VERTEX
  5
33D
  8
DEFAULT
 10
-799.2869072778567
 20
627.1086665563319
 30
0.0
  0
VERTEX
  5
33E
  8
DEFAULT
 10
-781.886420180263
 20
619.9011488086098
 30
0.0
  0
VERTEX
  5
33F
  8
DEFAULT
 10
-781.886420180263
 20
603.7104752635187
 30
0.0
  0
VERTEX
  5
340
  8
DEFAULT
 10
-799.2869072778569
 20
586.309988165925
 30
0.0
  0
VERTEX
  5
341
  8
DEFAULT
 10
-816.6873943754504
 20
603.7104752635182
 30
0.0
  0
VERTEX
  5
342
  8
DEFAULT
 10
-816.6873943754506
 20
619.9011488086103
 30
0.0
  0
SEQEND
  5
343
  8
DEFAULT
  0
POLYLINE
  5
344
  8
DEFAULT
 66
     1
 10
0.0
 20
0.0
 30
0.0
 70
     1
  0
VERTEX
  5
345
  8
DEFAULT
 10
-855.5441105881857
 20
603.8061699640134
 30
0.0
  0
VERTEX
  5
346
  8
DEFAULT
 10
-838.1436234905916
 20
611.0136877117341
 30
0.0
  0
VERTEX
  5
347
  8
DEFAULT
 10
-826.6950884348798
 20
599.5651526560223
 30
0.0
  0
VERTEX
  5
348
  8
DEFAULT
 10
-826.6950884348803
 20
574.957147810707
 30
0.0
  0
VERTEX
  5
349
  8
DEFAULT
 10
-851.3030932801946
 20
574.957147810707
 30
0.0
  0
VERTEX
  5
34A
  8
DEFAULT
 10
-862.7516283359073
 20
586.4056828664193
 30
0.0
  0
SEQEND
  5
34B
  8
DEFAULT
  0
POLYLINE
  5
34C
  8
DEFAULT
 66
     1
 10
0.0
 20
0.0
 30
0.0
 70
     1
  0
VERTEX
  5
34D
  8
DEFAULT
 10
-706.5211243887779
 20
650.3224436021922
 30
0.0
  0
VERTEX
  5
34E
  8
DEFAULT
 10
-721.1214351746644
 20
650.3224436021922
 30
0.0
  0
VERTEX
  5
34F
  8
DEFAULT
 10
-710.7974564105332
 20
660.6464223663235
 30
0.0
  0
VERTEX
  5
350
  8
DEFAULT
 10
-706.5211243887779
 20
656.3700903445688
 30
0.0
  0
SEQEND
  5
351
  8
DEFAULT
  0
POLYLINE
  5
352
  8
DEFAULT
 66
     1
 10
0.0
 20
0.0
 30
0.0
 70
     1
  0
VERTEX
  5
353
  8
DEFAULT
 10
-696.5134303293487
 20
640.3147495427633
 30
0.0
  0
VERTEX
  5
354
  8
DEFAULT
 10
-690.4657835869727
 20
640.3147495427636
 30
0.0
  0
VERTEX
  5
355
  8
DEFAULT
 10
-686.1894515652177
 20
636.0384175210081
 30
0.0
  0
VERTEX
  5
356
  8
DEFAULT
 10
-696.5134303293487
 20
625.7144387568774
 30
0.0
  0
SEQEND
  5
357
  8
DEFAULT
  0
POLYLINE
  5
358
  8
DEFAULT
 66
     1
 10
0.0
 20
0.0
 30
0.0
 70
     1
  0
VERTEX
  5
359
  8
DEFAULT
 10
-735.3701465420838
 20
611.4657273894574
 30
0.0
  0
VERTEX
  5
35A
  8
DEFAULT
 10
-742.5776642898049
 20
628.8662144870514
 30
0.0
  0
VERTEX
  5
35B
  8
DEFAULT
 10
-731.1291292340932
 20
640.3147495427631
 30
0.0
  0
VERTEX
  5
35C
  8
DEFAULT
 10
-706.5211243887779
 20
640.3147495427627
 30
0.0
  0
VERTEX
  5
35D
  8
DEFAULT
 10
-706.5211243887777
 20
615.7067446974479
 30
0.0
  0
VERTEX
  5
35E
  8
DEFAULT
 10
-717.9696594444897
 20
604.2582096417357
 30
0.0
  0
SEQEND
  5
35F
  8
DEFAULT
  0
POLYLINE
  5
360
  8
DEFAULT
 66
     1
 10
0.0
 20
0.0
 30
0.0
 70
     1
  0
VERTEX
  5
361
  8
DEFAULT
 10
-970.3019496378683
 20
598.3900449675934
 30
0.0
  0
VERTEX
  5
362
  8
DEFAULT
 10
-964.3652342790701
 20
584.0575462324341
 30
0.0
  0
VERTEX
  5
363
  8
DEFAULT
 10
-973.465632700797
 20
574.9571478107075
 30
0.0
  0
VERTEX
  5
364
  8
DEFAULT
 10
-960.5957258297922
 20
574.9571478107075
 30
0.0
  0
VERTEX
  5
365
  8
DEFAULT
 10
-951.8727758424703
 20
553.8980836474128
 30
0.0
  0
VERTEX
  5
366
  8
DEFAULT
 10
-946.8690524809813
 20
558.901807008901
 30
0.0
  0
VERTEX
  5
367
  8
DEFAULT
 10
-946.8690524809817
 20
574.957147810707
 30
0.0
  0
VERTEX
  5
368
  8
DEFAULT
 10
-930.8137116791759
 20
574.957147810707
 30
0.0
  0
VERTEX
  5
369
  8
DEFAULT
 10
-925.8099883176882
 20
579.9608711721959
 30
0.0
  0
VERTEX
  5
36A
  8
DEFAULT
 10
-946.8690524809822
 20
588.6838211595177
 30
0.0
  0
VERTEX
  5
36B
  8
DEFAULT
 10
-946.8690524809821
 20
601.553728030522
 30
0.0
  0
VERTEX
  5
36C
  8
DEFAULT
 10
-955.9694509027087
 20
592.4533296087955
 30
0.0
  0
SEQEND
  5
36D
  8
DEFAULT
  0
POLYLINE
  5
36E
  8
DEFAULT
 66
     1
 10
0.0
 20
0.0
 30
0.0
 70
     1
  0
VERTEX
  5
36F
  8
DEFAULT
 10
-988.7937570561511
 20
616.881852385876
 30
0.0
  0
VERTEX
  5
370
  8
DEFAULT
 10
-994.7304724149495
 20
631.2143511210365
 30
0.0
  0
VERTEX
  5
371
  8
DEFAULT
 10
-985.630073993223
 20
640.3147495427631
 30
0.0
  0
VERTEX
  5
372
  8
DEFAULT
 10
-998.4999808642278
 20
640.3147495427627
 30
0.0
  0
VERTEX
  5
373
  8
DEFAULT
 10
-1007.222930851549
 20
661.3738137060569
 30
0.0
  0
VERTEX
  5
374
  8
DEFAULT
 10
-1012.226654213038
 20
656.3700903445692
 30
0.0
  0
VERTEX
  5
375
  8
DEFAULT
 10
-1012.226654213038
 20
640.3147495427622
 30
0.0
  0
VERTEX
  5
376
  8
DEFAULT
 10
-1028.281995014843
 20
640.3147495427636
 30
0.0
  0
VERTEX
  5
377
  8
DEFAULT
 10
-1033.285718376331
 20
635.3110261812743
 30
0.0
  0
VERTEX
  5
378
  8
DEFAULT
 10
-1012.226654213038
 20
626.5880761939525
 30
0.0
  0
VERTEX
  5
379
  8
DEFAULT
 10
-1012.226654213038
 20
613.7181693229481
 30
0.0
  0
VERTEX
  5
37A
  8
DEFAULT
 10
-1003.126255791311
 20
622.8185677446747
 30
0.0
  0
SEQEND
  5
37B
  8
DEFAULT
  0
POLYLINE
  5
37C
  8
DEFAULT
 66
     1
 10
0.0
 20
0.0
 30
0.0
 70
     1
  0
VERTEX
  5
37D
  8
DEFAULT
 10
-1007.950322191283
 20
554.6254749871473
 30
0.0
  0
VERTEX
  5
37E
  8
DEFAULT
 10
-1012.226654213038
 20
558.9018070089019
 30
0.0
  0
VERTEX
  5
37F
  8
DEFAULT
 10
-1012.226654213038
 20
564.949453751278
 30
0.0
  0
VERTEX
  5
380
  8
DEFAULT
 10
-997.6263434271518
 20
564.949453751278
 30
0.0
  0
SEQEND
  5
381
  8
DEFAULT
  0
POLYLINE
  5
382
  8
DEFAULT
 66
     1
 10
0.0
 20
0.0
 30
0.0
 70
     1
  0
VERTEX
  5
383
  8
DEFAULT
 10
-1032.558327036598
 20
579.2334798324621
 30
0.0
  0
VERTEX
  5
384
  8
DEFAULT
 10
-1022.234348272467
 20
589.5574585965933
 30
0.0
  0
VERTEX
  5
385
  8
DEFAULT
 10
-1022.234348272467
 20
574.9571478107075
 30
0.0
  0
VERTEX
  5
386
  8
DEFAULT
 10
-1028.281995014843
 20
574.957147810707
 30
0.0
  0
SEQEND
  5
387
  8
DEFAULT
  0
POLYLINE
  5
388
  8
DEFAULT
 66
     1
 10
0.0
 20
0.0
 30
0.0
 70
     1
  0
VERTEX
  5
389
  8
DEFAULT
 10
-983.3776320597318
 20
603.806169964013
 30
0.0
  0
VERTEX
  5
38A
  8
DEFAULT
 10
-976.1701143120108
 20
586.4056828664193
 30
0.0
  0
VERTEX
  5
38B
  8
DEFAULT
 10
-987.6186493677226
 20
574.957147810707
 30
0.0
  0
VERTEX
  5
38C
  8
DEFAULT
 10
-1012.226654213038
 20
574.9571478107075
 30
0.0
  0
VERTEX
  5
38D
  8
DEFAULT
 10
-1012.226654213038
 20
599.5651526560223
 30
0.0
  0
VERTEX
  5
38E
  8
DEFAULT
 10
-1000.778119157326
 20
611.0136877117345
 30
0.0
  0
SEQEND
  5
38F
  8
DEFAULT
  0
POLYLINE
  5
390
  8
DEFAULT
 66
     1
 10
0.0
 20
0.0
 30
0.0
 70
     1
  0
VERTEX
  5
391
  8
DEFAULT
 10
-946.869052480982
 20
650.3224436021922
 30
0.0
  0
VERTEX
  5
392
  8
DEFAULT
 10
-961.4693632668684
 20
650.3224436021922
 30
0.0
  0
VERTEX
  5
393
  8
DEFAULT
 10
-951.1453845027372
 20
660.6464223663235
 30
0.0
  0
VERTEX
  5
394
  8
DEFAULT
 10
-946.869052480982
 20
656.3700903445688
 30
0.0
  0
SEQEND
  5
395
  8
DEFAULT
  0
POLYLINE
  5
396
  8
DEFAULT
 66
     1
 10
0.0
 20
0.0
 30
0.0
 70
     1
  0
VERTEX
  5
397
  8
DEFAULT
 10
-936.8613584215527
 20
640.3147495427633
 30
0.0
  0
VERTEX
  5
398
  8
DEFAULT
 10
-930.8137116791768
 20
640.3147495427636
 30
0.0
  0
VERTEX
  5
399
  8
DEFAULT
 10
-926.5373796574218
 20
636.0384175210081
 30
0.0
  0
VERTEX
  5
39A
  8
DEFAULT
 10
-936.8613584215527
 20
625.7144387568774
 30
0.0
  0
SEQEND
  5
39B
  8
DEFAULT
  0
POLYLINE
  5
39C
  8
DEFAULT
 66
     1
 10
0.0
 20
0.0
 30
0.0
 70
     1
  0
VERTEX
  5
39D
  8
DEFAULT
 10
-975.7180746342879
 20
611.4657273894572
 30
0.0
  0
VERTEX
  5
39E
  8
DEFAULT
 10
-982.9255923820089
 20
628.8662144870514
 30
0.0
  0
VERTEX
  5
39F
  8
DEFAULT
 10
-971.4770573262971
 20
640.3147495427631
 30
0.0
  0
VERTEX
  5
3A0
  8
DEFAULT
 10
-946.869052480982
 20
640.3147495427627
 30
0.0
  0
VERTEX
  5
3A1
  8
DEFAULT
 10
-946.8690524809817
 20
615.7067446974479
 30
0.0
  0
VERTEX
  5
3A2
  8
DEFAULT
 10
-958.3175875366938
 20
604.2582096417357
 30
0.0
  0
SEQEND
  5
3A3
  8
DEFAULT
  0
POLYLINE
  5
3A4
  8
DEFAULT
 66
     1
 10
0.0
 20
0.0
 30
0.0
 70
     1
  0
VERTEX
  5
3A5
  8
DEFAULT
 10
-565.288096179382
 20
700.1348352182987
 30
0.0
  0
VERTEX
  5
3A6
  8
DEFAULT
 10
-570.2918195408696
 20
695.1311118568099
 30
0.0
  0
VERTEX
  5
3A7
  8
DEFAULT
 10
-586.3471603426761
 20
695.1311118568099
 30
0.0
  0
VERTEX
  5
3A8
  8
DEFAULT
 10
-586.3471603426751
 20
679.0757710550047
 30
0.0
  0
VERTEX
  5
3A9
  8
DEFAULT
 10
-591.3508837041646
 20
674.0720476935157
 30
0.0
  0
VERTEX
  5
3AA
  8
DEFAULT
 10
-600.0738336914862
 20
695.1311118568099
 30
0.0
  0
VERTEX
  5
3AB
  8
DEFAULT
 10
-612.9437405624906
 20
695.1311118568099
 30
0.0
  0
VERTEX
  5
3AC
  8
DEFAULT
 10
-603.843342140764
 20
704.231510278536
 30
0.0
  0
VERTEX
  5
3AD
  8
DEFAULT
 10
-609.7800574995622
 20
718.5640090136958
 30
0.0
  0
VERTEX
  5
3AE
  8
DEFAULT
 10
-595.4475587644024
 20
712.6272936548974
 30
0.0
  0
VERTEX
  5
3AF
  8
DEFAULT
 10
-586.3471603426758
 20
721.7276920766244
 30
0.0
  0
VERTEX
  5
3B0
  8
DEFAULT
 10
-586.3471603426758
 20
708.8577852056196
 30
0.0
  0
SEQEND
  5
3B1
  8
DEFAULT
  0
POLYLINE
  5
3B2
  8
DEFAULT
 66
     1
 10
0.0
 20
0.0
 30
0.0
 70
     1
  0
VERTEX
  5
3B3
  8
DEFAULT
 10
-628.2718649178448
 20
737.0558164319787
 30
0.0
  0
VERTEX
  5
3B4
  8
DEFAULT
 10
-642.6043636530051
 20
742.9925317907771
 30
0.0
  0
VERTEX
  5
3B5
  8
DEFAULT
 10
-651.7047620747317
 20
733.8921333690502
 30
0.0
  0
VERTEX
  5
3B6
  8
DEFAULT
 10
-651.7047620747314
 20
746.7620402400548
 30
0.0
  0
VERTEX
  5
3B7
  8
DEFAULT
 10
-672.7638262380253
 20
755.4849902273767
 30
0.0
  0
VERTEX
  5
3B8
  8
DEFAULT
 10
-667.760102876538
 20
760.4887135888646
 30
0.0
  0
VERTEX
  5
3B9
  8
DEFAULT
 10
-651.7047620747309
 20
760.4887135888646
 30
0.0
  0
VERTEX
  5
3BA
  8
DEFAULT
 10
-651.7047620747323
 20
776.5440543906699
 30
0.0
  0
VERTEX
  5
3BB
  8
DEFAULT
 10
-646.701038713243
 20
781.5477777521592
 30
0.0
  0
VERTEX
  5
3BC
  8
DEFAULT
 10
-637.9780887259212
 20
760.4887135888646
 30
0.0
  0
VERTEX
  5
3BD
  8
DEFAULT
 10
-625.1081818549169
 20
760.4887135888646
 30
0.0
  0
VERTEX
  5
3BE
  8
DEFAULT
 10
-634.208580276643
 20
751.3883151671384
 30
0.0
  0
SEQEND
  5
3BF
  8
DEFAULT
  0
POLYLINE
  5
3C0
  8
DEFAULT
 66
     1
 10
0.0
 20
0.0
 30
0.0
 70
     1
  0
VERTEX
  5
3C1
  8
DEFAULT
 10
-661.7124561341607
 20
695.131111856809
 30
0.0
  0
VERTEX
  5
3C2
  8
DEFAULT
 10
-661.7124561341607
 20
709.7314226426961
 30
0.0
  0
VERTEX
  5
3C3
  8
DEFAULT
 10
-672.0364348982918
 20
699.4074438785644
 30
0.0
  0
VERTEX
  5
3C4
  8
DEFAULT
 10
-667.7601028765371
 20
695.131111856809
 30
0.0
  0
SEQEND
  5
3C5
  8
DEFAULT
  0
POLYLINE
  5
3C6
  8
DEFAULT
 66
     1
 10
0.0
 20
0.0
 30
0.0
 70
     1
  0
VERTEX
  5
3C7
  8
DEFAULT
 10
-651.7047620747317
 20
685.12341779738
 30
0.0
  0
VERTEX
  5
3C8
  8
DEFAULT
 10
-651.7047620747319
 20
679.0757710550038
 30
0.0
  0
VERTEX
  5
3C9
  8
DEFAULT
 10
-647.4284300529766
 20
674.7994390332492
 30
0.0
  0
VERTEX
  5
3CA
  8
DEFAULT
 10
-637.1044512888457
 20
685.12341779738
 30
0.0
  0
SEQEND
  5
3CB
  8
DEFAULT
  0
POLYLINE
  5
3CC
  8
DEFAULT
 66
     1
 10
0.0
 20
0.0
 30
0.0
 70
     1
  0
VERTEX
  5
3CD
  8
DEFAULT
 10
-622.8557399214258
 20
723.9801340101153
 30
0.0
  0
VERTEX
  5
3CE
  8
DEFAULT
 10
-640.2562270190199
 20
731.1876517578364
 30
0.0
  0
VERTEX
  5
3CF
  8
DEFAULT
 10
-651.7047620747317
 20
719.7391167021242
 30
0.0
  0
VERTEX
  5
3D0
  8
DEFAULT
 10
-651.7047620747312
 20
695.131111856809
 30
0.0
  0
VERTEX
  5
3D1
  8
DEFAULT
 10
-627.0967572294164
 20
695.131111856809
 30
0.0
  0
VERTEX
  5
3D2
  8
DEFAULT
 10
-615.6482221737042
 20
706.5796469125212
 30
0.0
  0
SEQEND
  5
3D3
  8
DEFAULT
  0
POLYLINE
  5
3D4
  8
DEFAULT
 66
     1
 10
0.0
 20
0.0
 30
0.0
 70
     1
  0
VERTEX
  5
3D5
  8
DEFAULT
 10
-576.3394662832468
 20
760.4887135888647
 30
0.0
  0
VERTEX
  5
3D6
  8
DEFAULT
 10
-576.3394662832466
 20
745.8884028029793
 30
0.0
  0
VERTEX
  5
3D7
  8
DEFAULT
 10
-566.0154875191156
 20
756.2123815671101
 30
0.0
  0
VERTEX
  5
3D8
  8
DEFAULT
 10
-570.2918195408704
 20
760.4887135888655
 30
0.0
  0
SEQEND
  5
3D9
  8
DEFAULT
  0
POLYLINE
  5
3DA
  8
DEFAULT
 66
     1
 10
0.0
 20
0.0
 30
0.0
 70
     1
  0
VERTEX
  5
3DB
  8
DEFAULT
 10
-590.6234923644308
 20
780.8203864124254
 30
0.0
  0
VERTEX
  5
3DC
  8
DEFAULT
 10
-600.947471128562
 20
770.4964076482945
 30
0.0
  0
VERTEX
  5
3DD
  8
DEFAULT
 10
-586.3471603426758
 20
770.4964076482945
 30
0.0
  0
VERTEX
  5
3DE
  8
DEFAULT
 10
-586.3471603426756
 20
776.5440543906707
 30
0.0
  0
SEQEND
  5
3DF
  8
DEFAULT
  0
POLYLINE
  5
3E0
  8
DEFAULT
 66
     1
 10
0.0
 20
0.0
 30
0.0
 70
     1
  0
VERTEX
  5
3E1
  8
DEFAULT
 10
-615.1961824959817
 20
731.6396914355593
 30
0.0
  0
VERTEX
  5
3E2
  8
DEFAULT
 10
-597.7956953983876
 20
724.432173687838
 30
0.0
  0
VERTEX
  5
3E3
  8
DEFAULT
 10
-586.3471603426758
 20
735.8807087435503
 30
0.0
  0
VERTEX
  5
3E4
  8
DEFAULT
 10
-586.3471603426763
 20
760.4887135888646
 30
0.0
  0
VERTEX
  5
3E5
  8
DEFAULT
 10
-610.9551651879906
 20
760.4887135888646
 30
0.0
  0
VERTEX
  5
3E6
  8
DEFAULT
 10
-622.4037002437033
 20
749.0401785331533
 30
0.0
  0
SEQEND
  5
3E7
  8
DEFAULT
  0
POLYLINE
  5
3E8
  8
DEFAULT
 66
     1
 10
0.0
 20
0.0
 30
0.0
 70
     1
  0
VERTEX
  5
3E9
  8
DEFAULT
 10
-565.288096179382
 20
875.6589542734768
 30
0.0
  0
VERTEX
  5
3EA
  8
DEFAULT
 10
-570.2918195408695
 20
880.6626776349656
 30
0.0
  0
VERTEX
  5
3EB
  8
DEFAULT
 10
-586.3471603426761
 20
880.6626776349647
 30
0.0
  0
VERTEX
  5
3EC
  8
DEFAULT
 10
-586.3471603426751
 20
896.7180184367699
 30
0.0
  0
VERTEX
  5
3ED
  8
DEFAULT
 10
-591.3508837041646
 20
901.7217417982589
 30
0.0
  0
VERTEX
  5
3EE
  8
DEFAULT
 10
-600.0738336914862
 20
880.6626776349656
 30
0.0
  0
VERTEX
  5
3EF
  8
DEFAULT
 10
-612.9437405624907
 20
880.6626776349656
 30
0.0
  0
VERTEX
  5
3F0
  8
DEFAULT
 10
-603.843342140764
 20
871.5622792132385
 30
0.0
  0
VERTEX
  5
3F1
  8
DEFAULT
 10
-609.7800574995622
 20
857.2297804780789
 30
0.0
  0
VERTEX
  5
3F2
  8
DEFAULT
 10
-595.4475587644024
 20
863.1664958368772
 30
0.0
  0
VERTEX
  5
3F3
  8
DEFAULT
 10
-586.3471603426758
 20
854.066097415151
 30
0.0
  0
VERTEX
  5
3F4
  8
DEFAULT
 10
-586.3471603426758
 20
866.9360042861555
 30
0.0
  0
SEQEND
  5
3F5
  8
DEFAULT
  0
POLYLINE
  5
3F6
  8
DEFAULT
 66
     1
 10
0.0
 20
0.0
 30
0.0
 70
     1
  0
VERTEX
  5
3F7
  8
DEFAULT
 10
-672.7638262380254
 20
820.3087992643983
 30
0.0
  0
VERTEX
  5
3F8
  8
DEFAULT
 10
-667.760102876538
 20
815.30507590291
 30
0.0
  0
VERTEX
  5
3F9
  8
DEFAULT
 10
-651.7047620747309
 20
815.3050759029104
 30
0.0
  0
VERTEX
  5
3FA
  8
DEFAULT
 10
-651.7047620747323
 20
799.2497351011052
 30
0.0
  0
VERTEX
  5
3FB
  8
DEFAULT
 10
-646.701038713243
 20
794.2460117396159
 30
0.0
  0
VERTEX
  5
3FC
  8
DEFAULT
 10
-637.9780887259212
 20
815.30507590291
 30
0.0
  0
VERTEX
  5
3FD
  8
DEFAULT
 10
-625.1081818549168
 20
815.30507590291
 30
0.0
  0
VERTEX
  5
3FE
  8
DEFAULT
 10
-634.208580276643
 20
824.4054743246371
 30
0.0
  0
VERTEX
  5
3FF
  8
DEFAULT
 10
-628.2718649178448
 20
838.7379730597968
 30
0.0
  0
VERTEX
  5
400
  8
DEFAULT
 10
-642.6043636530051
 20
832.8012577009983
 30
0.0
  0
VERTEX
  5
401
  8
DEFAULT
 10
-651.7047620747317
 20
841.9016561227246
 30
0.0
  0
VERTEX
  5
402
  8
DEFAULT
 10
-651.7047620747314
 20
829.0317492517197
 30
0.0
  0
SEQEND
  5
403
  8
DEFAULT
  0
POLYLINE
  5
404
  8
DEFAULT
 66
     1
 10
0.0
 20
0.0
 30
0.0
 70
     1
  0
VERTEX
  5
405
  8
DEFAULT
 10
-638.4986790883006
 20
787.8968947458868
 30
0.0
  0
VERTEX
  5
406
  8
DEFAULT
 10
-631.2911613405788
 20
805.2973818434809
 30
0.0
  0
VERTEX
  5
407
  8
DEFAULT
 10
-615.1004877954874
 20
805.2973818434805
 30
0.0
  0
VERTEX
  5
408
  8
DEFAULT
 10
-597.7000006978947
 20
787.8968947458877
 30
0.0
  0
VERTEX
  5
409
  8
DEFAULT
 10
-615.1004877954874
 20
770.4964076482945
 30
0.0
  0
VERTEX
  5
40A
  8
DEFAULT
 10
-631.2911613405788
 20
770.4964076482945
 30
0.0
  0
SEQEND
  5
40B
  8
DEFAULT
  0
POLYLINE
  5
40C
  8
DEFAULT
 66
     1
 10
0.0
 20
0.0
 30
0.0
 70
     1
  0
VERTEX
  5
40D
  8
DEFAULT
 10
-661.7124561341607
 20
880.6626776349656
 30
0.0
  0
VERTEX
  5
40E
  8
DEFAULT
 10
-661.7124561341607
 20
866.0623668490794
 30
0.0
  0
VERTEX
  5
40F
  8
DEFAULT
 10
-672.0364348982918
 20
876.3863456132102
 30
0.0
  0
VERTEX
  5
410
  8
DEFAULT
 10
-667.7601028765371
 20
880.6626776349656
 30
0.0
  0
SEQEND
  5
411
  8
DEFAULT
  0
POLYLINE
  5
412
  8
DEFAULT
 66
     1
 10
0.0
 20
0.0
 30
0.0
 70
     1
  0
VERTEX
  5
413
  8
DEFAULT
 10
-651.7047620747317
 20
890.6703716943946
 30
0.0
  0
VERTEX
  5
414
  8
DEFAULT
 10
-651.7047620747319
 20
896.7180184367708
 30
0.0
  0
VERTEX
  5
415
  8
DEFAULT
 10
-647.4284300529766
 20
900.9943504585258
 30
0.0
  0
VERTEX
  5
416
  8
DEFAULT
 10
-637.1044512888457
 20
890.6703716943946
 30
0.0
  0
SEQEND
  5
417
  8
DEFAULT
  0
POLYLINE
  5
418
  8
DEFAULT
 66
     1
 10
0.0
 20
0.0
 30
0.0
 70
     1
  0
VERTEX
  5
419
  8
DEFAULT
 10
-622.8557399214258
 20
851.8136554816598
 30
0.0
  0
VERTEX
  5
41A
  8
DEFAULT
 10
-640.2562270190199
 20
844.606137733939
 30
0.0
  0
VERTEX
  5
41B
  8
DEFAULT
 10
-651.7047620747317
 20
856.0546727896503
 30
0.0
  0
VERTEX
  5
41C
  8
DEFAULT
 10
-651.7047620747312
 20
880.6626776349656
 30
0.0
  0
VERTEX
  5
41D
  8
DEFAULT
 10
-627.0967572294164
 20
880.6626776349656
 30
0.0
  0
VERTEX
  5
41E
  8
DEFAULT
 10
-615.6482221737042
 20
869.2141425792535
 30
0.0
  0
SEQEND
  5
41F
  8
DEFAULT
  0
POLYLINE
  5
420
  8
DEFAULT
 66
     1
 10
0.0
 20
0.0
 30
0.0
 70
     1
  0
VERTEX
  5
421
  8
DEFAULT
 10
-576.3394662832468
 20
815.30507590291
 30
0.0
  0
VERTEX
  5
422
  8
DEFAULT
 10
-576.3394662832466
 20
829.9053866887962
 30
0.0
  0
VERTEX
  5
423
  8
DEFAULT
 10
-566.0154875191156
 20
819.5814079246646
 30
0.0
  0
VERTEX
  5
424
  8
DEFAULT
 10
-570.2918195408704
 20
815.30507590291
 30
0.0
  0
SEQEND
  5
425
  8
DEFAULT
  0
POLYLINE
  5
426
  8
DEFAULT
 66
     1
 10
0.0
 20
0.0
 30
0.0
 70
     1
  0
VERTEX
  5
427
  8
DEFAULT
 10
-590.6234923644308
 20
794.9734030793493
 30
0.0
  0
VERTEX
  5
428
  8
DEFAULT
 10
-600.9474711285621
 20
805.2973818434809
 30
0.0
  0
VERTEX
  5
429
  8
DEFAULT
 10
-586.3471603426758
 20
805.2973818434809
 30
0.0
  0
VERTEX
  5
42A
  8
DEFAULT
 10
-586.3471603426756
 20
799.2497351011048
 30
0.0
  0
SEQEND
  5
42B
  8
DEFAULT
  0
POLYLINE
  5
42C
  8
DEFAULT
 66
     1
 10
0.0
 20
0.0
 30
0.0
 70
     1
  0
VERTEX
  5
42D
  8
DEFAULT
 10
-615.1961824959817
 20
844.1540980562158
 30
0.0
  0
VERTEX
  5
42E
  8
DEFAULT
 10
-597.7956953983876
 20
851.3616158039365
 30
0.0
  0
VERTEX
  5
42F
  8
DEFAULT
 10
-586.3471603426758
 20
839.9130807482252
 30
0.0
  0
VERTEX
  5
430
  8
DEFAULT
 10
-586.3471603426763
 20
815.30507590291
 30
0.0
  0
VERTEX
  5
431
  8
DEFAULT
 10
-610.9551651879906
 20
815.30507590291
 30
0.0
  0
VERTEX
  5
432
  8
DEFAULT
 10
-622.4037002437033
 20
826.7536109586222
 30
0.0
  0
SEQEND
  5
433
  8
DEFAULT
  0
POLYLINE
  5
434
  8
DEFAULT
 66
     1
 10
0.0
 20
0.0
 30
0.0
 70
     1
  0
VERTEX
  5
435
  8
DEFAULT
 10
-729.9540215456643
 20
737.0558164319788
 30
0.0
  0
VERTEX
  5
436
  8
DEFAULT
 10
-724.0173061868661
 20
751.3883151671384
 30
0.0
  0
VERTEX
  5
437
  8
DEFAULT
 10
-733.1177046085928
 20
760.4887135888646
 30
0.0
  0
VERTEX
  5
438
  8
DEFAULT
 10
-720.2477977375881
 20
760.4887135888646
 30
0.0
  0
VERTEX
  5
439
  8
DEFAULT
 10
-711.5248477502663
 20
781.5477777521597
 30
0.0
  0
VERTEX
  5
43A
  8
DEFAULT
 10
-706.5211243887773
 20
776.5440543906716
 30
0.0
  0
VERTEX
  5
43B
  8
DEFAULT
 10
-706.5211243887777
 20
760.4887135888656
 30
0.0
  0
VERTEX
  5
43C
  8
DEFAULT
 10
-690.4657835869718
 20
760.4887135888646
 30
0.0
  0
VERTEX
  5
43D
  8
DEFAULT
 10
-685.4620602254843
 20
755.4849902273767
 30
0.0
  0
VERTEX
  5
43E
  8
DEFAULT
 10
-706.5211243887782
 20
746.7620402400548
 30
0.0
  0
VERTEX
  5
43F
  8
DEFAULT
 10
-706.5211243887779
 20
733.8921333690502
 30
0.0
  0
VERTEX
  5
440
  8
DEFAULT
 10
-715.6215228105045
 20
742.9925317907771
 30
0.0
  0
SEQEND
  5
441
  8
DEFAULT
  0
POLYLINE
  5
442
  8
DEFAULT
 66
     1
 10
0.0
 20
0.0
 30
0.0
 70
     1
  0
VERTEX
  5
443
  8
DEFAULT
 10
-805.636024271586
 20
700.1348352182987
 30
0.0
  0
VERTEX
  5
444
  8
DEFAULT
 10
-810.6397476330734
 20
695.1311118568099
 30
0.0
  0
VERTEX
  5
445
  8
DEFAULT
 10
-826.6950884348802
 20
695.1311118568099
 30
0.0
  0
VERTEX
  5
446
  8
DEFAULT
 10
-826.6950884348792
 20
679.0757710550047
 30
0.0
  0
VERTEX
  5
447
  8
DEFAULT
 10
-831.6988117963687
 20
674.0720476935157
 30
0.0
  0
VERTEX
  5
448
  8
DEFAULT
 10
-840.4217617836903
 20
695.1311118568099
 30
0.0
  0
VERTEX
  5
449
  8
DEFAULT
 10
-853.2916686546946
 20
695.1311118568099
 30
0.0
  0
VERTEX
  5
44A
  8
DEFAULT
 10
-844.191270232968
 20
704.231510278536
 30
0.0
  0
VERTEX
  5
44B
  8
DEFAULT
 10
-850.1279855917662
 20
718.5640090136958
 30
0.0
  0
VERTEX
  5
44C
  8
DEFAULT
 10
-835.7954868566064
 20
712.6272936548974
 30
0.0
  0
VERTEX
  5
44D
  8
DEFAULT
 10
-826.6950884348798
 20
721.7276920766244
 30
0.0
  0
VERTEX
  5
44E
  8
DEFAULT
 10
-826.6950884348798
 20
708.8577852056196
 30
0.0
  0
SEQEND
  5
44F
  8
DEFAULT
  0
POLYLINE
  5
450
  8
DEFAULT
 66
     1
 10
0.0
 20
0.0
 30
0.0
 70
     1
  0
VERTEX
  5
451
  8
DEFAULT
 10
-868.6197930100489
 20
737.0558164319787
 30
0.0
  0
VERTEX
  5
452
  8
DEFAULT
 10
-882.9522917452091
 20
742.9925317907771
 30
0.0
  0
VERTEX
  5
453
  8
DEFAULT
 10
-892.0526901669357
 20
733.8921333690502
 30
0.0
  0
VERTEX
  5
454
  8
DEFAULT
 10
-892.0526901669355
 20
746.7620402400548
 30
0.0
  0
VERTEX
  5
455
  8
DEFAULT
 10
-913.1117543302294
 20
755.4849902273767
 30
0.0
  0
VERTEX
  5
456
  8
DEFAULT
 10
-908.108030968742
 20
760.4887135888646
 30
0.0
  0
VERTEX
  5
457
  8
DEFAULT
 10
-892.0526901669349
 20
760.4887135888646
 30
0.0
  0
VERTEX
  5
458
  8
DEFAULT
 10
-892.0526901669364
 20
776.5440543906699
 30
0.0
  0
VERTEX
  5
459
  8
DEFAULT
 10
-887.048966805447
 20
781.5477777521592
 30
0.0
  0
VERTEX
  5
45A
  8
DEFAULT
 10
-878.3260168181253
 20
760.4887135888646
 30
0.0
  0
VERTEX
  5
45B
  8
DEFAULT
 10
-865.4561099471209
 20
760.4887135888646
 30
0.0
  0
VERTEX
  5
45C
  8
DEFAULT
 10
-874.5565083688471
 20
751.3883151671384
 30
0.0
  0
SEQEND
  5
45D
  8
DEFAULT
  0
POLYLINE
  5
45E
  8
DEFAULT
 66
     1
 10
0.0
 20
0.0
 30
0.0
 70
     1
  0
VERTEX
  5
45F
  8
DEFAULT
 10
-766.8750027593452
 20
674.0720476935156
 30
0.0
  0
VERTEX
  5
460
  8
DEFAULT
 10
-771.878726120834
 20
679.075771055003
 30
0.0
  0
VERTEX
  5
461
  8
DEFAULT
 10
-771.8787261208336
 20
695.13111185681
 30
0.0
  0
VERTEX
  5
462
  8
DEFAULT
 10
-787.9340669226383
 20
695.131111856809
 30
0.0
  0
VERTEX
  5
463
  8
DEFAULT
 10
-792.9377902841273
 20
700.1348352182979
 30
0.0
  0
VERTEX
  5
464
  8
DEFAULT
 10
-771.8787261208336
 20
708.8577852056196
 30
0.0
  0
VERTEX
  5
465
  8
DEFAULT
 10
-771.8787261208336
 20
721.7276920766244
 30
0.0
  0
VERTEX
  5
466
  8
DEFAULT
 10
-762.778327699107
 20
712.6272936548974
 30
0.0
  0
VERTEX
  5
467
  8
DEFAULT
 10
-748.4458289639473
 20
718.5640090136958
 30
0.0
  0
VERTEX
  5
468
  8
DEFAULT
 10
-754.3825443227456
 20
704.2315102785361
 30
0.0
  0
VERTEX
  5
469
  8
DEFAULT
 10
-745.2821459010189
 20
695.131111856809
 30
0.0
  0
VERTEX
  5
46A
  8
DEFAULT
 10
-758.1520527720238
 20
695.131111856809
 30
0.0
  0
SEQEND
  5
46B
  8
DEFAULT
  0
POLYLINE
  5
46C
  8
DEFAULT
 66
     1
 10
0.0
 20
0.0
 30
0.0
 70
     1
  0
VERTEX
  5
46D
  8
DEFAULT
 10
-902.0603842263647
 20
695.131111856809
 30
0.0
  0
VERTEX
  5
46E
  8
DEFAULT
 10
-902.0603842263647
 20
709.7314226426961
 30
0.0
  0
VERTEX
  5
46F
  8
DEFAULT
 10
-912.3843629904958
 20
699.4074438785644
 30
0.0
  0
VERTEX
  5
470
  8
DEFAULT
 10
-908.1080309687411
 20
695.131111856809
 30
0.0
  0
SEQEND
  5
471
  8
DEFAULT
  0
POLYLINE
  5
472
  8
DEFAULT
 66
     1
 10
0.0
 20
0.0
 30
0.0
 70
     1
  0
VERTEX
  5
473
  8
DEFAULT
 10
-892.0526901669357
 20
685.12341779738
 30
0.0
  0
VERTEX
  5
474
  8
DEFAULT
 10
-892.0526901669359
 20
679.0757710550038
 30
0.0
  0
VERTEX
  5
475
  8
DEFAULT
 10
-887.7763581451807
 20
674.7994390332492
 30
0.0
  0
VERTEX
  5
476
  8
DEFAULT
 10
-877.4523793810497
 20
685.12341779738
 30
0.0
  0
SEQEND
  5
477
  8
DEFAULT
  0
POLYLINE
  5
478
  8
DEFAULT
 66
     1
 10
0.0
 20
0.0
 30
0.0
 70
     1
  0
VERTEX
  5
479
  8
DEFAULT
 10
-863.2036680136298
 20
723.9801340101153
 30
0.0
  0
VERTEX
  5
47A
  8
DEFAULT
 10
-880.6041551112239
 20
731.1876517578364
 30
0.0
  0
VERTEX
  5
47B
  8
DEFAULT
 10
-892.0526901669357
 20
719.7391167021242
 30
0.0
  0
VERTEX
  5
47C
  8
DEFAULT
 10
-892.0526901669352
 20
695.131111856809
 30
0.0
  0
VERTEX
  5
47D
  8
DEFAULT
 10
-867.4446853216205
 20
695.131111856809
 30
0.0
  0
VERTEX
  5
47E
  8
DEFAULT
 10
-855.9961502659082
 20
706.5796469125212
 30
0.0
  0
SEQEND
  5
47F
  8
DEFAULT
  0
POLYLINE
  5
480
  8
DEFAULT
 66
     1
 10
0.0
 20
0.0
 30
0.0
 70
     1
  0
VERTEX
  5
481
  8
DEFAULT
 10
-767.6023940990788
 20
780.8203864124254
 30
0.0
  0
VERTEX
  5
482
  8
DEFAULT
 10
-771.8787261208338
 20
776.5440543906707
 30
0.0
  0
VERTEX
  5
483
  8
DEFAULT
 10
-771.8787261208336
 20
770.4964076482945
 30
0.0
  0
VERTEX
  5
484
  8
DEFAULT
 10
-757.2784153349478
 20
770.4964076482945
 30
0.0
  0
SEQEND
  5
485
  8
DEFAULT
  0
POLYLINE
  5
486
  8
DEFAULT
 66
     1
 10
0.0
 20
0.0
 30
0.0
 70
     1
  0
VERTEX
  5
487
  8
DEFAULT
 10
-792.210398944394
 20
756.2123815671101
 30
0.0
  0
VERTEX
  5
488
  8
DEFAULT
 10
-781.8864201802628
 20
745.8884028029793
 30
0.0
  0
VERTEX
  5
489
  8
DEFAULT
 10
-781.886420180263
 20
760.4887135888647
 30
0.0
  0
VERTEX
  5
48A
  8
DEFAULT
 10
-787.9340669226392
 20
760.4887135888655
 30
0.0
  0
SEQEND
  5
48B
  8
DEFAULT
  0
POLYLINE
  5
48C
  8
DEFAULT
 66
     1
 10
0.0
 20
0.0
 30
0.0
 70
     1
  0
VERTEX
  5
48D
  8
DEFAULT
 10
-816.6873943754508
 20
760.4887135888647
 30
0.0
  0
VERTEX
  5
48E
  8
DEFAULT
 10
-816.6873943754506
 20
745.8884028029793
 30
0.0
  0
VERTEX
  5
48F
  8
DEFAULT
 10
-806.3634156113196
 20
756.2123815671101
 30
0.0
  0
VERTEX
  5
490
  8
DEFAULT
 10
-810.6397476330744
 20
760.4887135888655
 30
0.0
  0
SEQEND
  5
491
  8
DEFAULT
  0
POLYLINE
  5
492
  8
DEFAULT
 66
     1
 10
0.0
 20
0.0
 30
0.0
 70
     1
  0
VERTEX
  5
493
  8
DEFAULT
 10
-830.9714204566349
 20
780.8203864124254
 30
0.0
  0
VERTEX
  5
494
  8
DEFAULT
 10
-841.2953992207661
 20
770.4964076482945
 30
0.0
  0
VERTEX
  5
495
  8
DEFAULT
 10
-826.6950884348798
 20
770.4964076482945
 30
0.0
  0
VERTEX
  5
496
  8
DEFAULT
 10
-826.6950884348798
 20
776.5440543906707
 30
0.0
  0
SEQEND
  5
497
  8
DEFAULT
  0
POLYLINE
  5
498
  8
DEFAULT
 66
     1
 10
0.0
 20
0.0
 30
0.0
 70
     1
  0
VERTEX
  5
499
  8
DEFAULT
 10
-743.0297039675277
 20
731.6396914355593
 30
0.0
  0
VERTEX
  5
49A
  8
DEFAULT
 10
-735.8221862198068
 20
749.0401785331534
 30
0.0
  0
VERTEX
  5
49B
  8
DEFAULT
 10
-747.2707212755186
 20
760.4887135888655
 30
0.0
  0
VERTEX
  5
49C
  8
DEFAULT
 10
-771.8787261208336
 20
760.4887135888646
 30
0.0
  0
VERTEX
  5
49D
  8
DEFAULT
 10
-771.8787261208336
 20
735.8807087435503
 30
0.0
  0
VERTEX
  5
49E
  8
DEFAULT
 10
-760.4301910651218
 20
724.432173687838
 30
0.0
  0
SEQEND
  5
49F
  8
DEFAULT
  0
POLYLINE
  5
4A0
  8
DEFAULT
 66
     1
 10
0.0
 20
0.0
 30
0.0
 70
     1
  0
VERTEX
  5
4A1
  8
DEFAULT
 10
-799.2869072778567
 20
708.3371948432407
 30
0.0
  0
VERTEX
  5
4A2
  8
DEFAULT
 10
-781.886420180263
 20
715.5447125909619
 30
0.0
  0
VERTEX
  5
4A3
  8
DEFAULT
 10
-781.886420180263
 20
731.7353861360534
 30
0.0
  0
VERTEX
  5
4A4
  8
DEFAULT
 10
-799.2869072778569
 20
749.1358732336475
 30
0.0
  0
VERTEX
  5
4A5
  8
DEFAULT
 10
-816.6873943754504
 20
731.7353861360534
 30
0.0
  0
VERTEX
  5
4A6
  8
DEFAULT
 10
-816.6873943754506
 20
715.5447125909619
 30
0.0
  0
SEQEND
  5
4A7
  8
DEFAULT
  0
POLYLINE
  5
4A8
  8
DEFAULT
 66
     1
 10
0.0
 20
0.0
 30
0.0
 70
     1
  0
VERTEX
  5
4A9
  8
DEFAULT
 10
-855.5441105881857
 20
731.6396914355593
 30
0.0
  0
VERTEX
  5
4AA
  8
DEFAULT
 10
-838.1436234905916
 20
724.432173687838
 30
0.0
  0
VERTEX
  5
4AB
  8
DEFAULT
 10
-826.6950884348798
 20
735.8807087435503
 30
0.0
  0
VERTEX
  5
4AC
  8
DEFAULT
 10
-826.6950884348803
 20
760.4887135888646
 30
0.0
  0
VERTEX
  5
4AD
  8
DEFAULT
 10
-851.3030932801946
 20
760.4887135888646
 30
0.0
  0
VERTEX
  5
4AE
  8
DEFAULT
 10
-862.7516283359073
 20
749.0401785331533
 30
0.0
  0
SEQEND
  5
4AF
  8
DEFAULT
  0
POLYLINE
  5
4B0
  8
DEFAULT
 66
     1
 10
0.0
 20
0.0
 30
0.0
 70
     1
  0
VERTEX
  5
4B1
  8
DEFAULT
 10
-706.5211243887779
 20
685.12341779738
 30
0.0
  0
VERTEX
  5
4B2
  8
DEFAULT
 10
-721.1214351746644
 20
685.12341779738
 30
0.0
  0
VERTEX
  5
4B3
  8
DEFAULT
 10
-710.7974564105332
 20
674.7994390332492
 30
0.0
  0
VERTEX
  5
4B4
  8
DEFAULT
 10
-706.5211243887779
 20
679.0757710550038
 30
0.0
  0
SEQEND
  5
4B5
  8
DEFAULT
  0
POLYLINE
  5
4B6
  8
DEFAULT
 66
     1
 10
0.0
 20
0.0
 30
0.0
 70
     1
  0
VERTEX
  5
4B7
  8
DEFAULT
 10
-696.5134303293487
 20
695.131111856809
 30
0.0
  0
VERTEX
  5
4B8
  8
DEFAULT
 10
-690.4657835869727
 20
695.131111856809
 30
0.0
  0
VERTEX
  5
4B9
  8
DEFAULT
 10
-686.1894515652177
 20
699.4074438785644
 30
0.0
  0
VERTEX
  5
4BA
  8
DEFAULT
 10
-696.5134303293487
 20
709.7314226426952
 30
0.0
  0
SEQEND
  5
4BB
  8
DEFAULT
  0
POLYLINE
  5
4BC
  8
DEFAULT
 66
     1
 10
0.0
 20
0.0
 30
0.0
 70
     1
  0
VERTEX
  5
4BD
  8
DEFAULT
 10
-735.3701465420838
 20
723.9801340101153
 30
0.0
  0
VERTEX
  5
4BE
  8
DEFAULT
 10
-742.5776642898049
 20
706.5796469125212
 30
0.0
  0
VERTEX
  5
4BF
  8
DEFAULT
 10
-731.1291292340932
 20
695.131111856809
 30
0.0
  0
VERTEX
  5
4C0
  8
DEFAULT
 10
-706.5211243887779
 20
695.1311118568099
 30
0.0
  0
VERTEX
  5
4C1
  8
DEFAULT
 10
-706.5211243887777
 20
719.7391167021242
 30
0.0
  0
VERTEX
  5
4C2
  8
DEFAULT
 10
-717.9696594444897
 20
731.1876517578364
 30
0.0
  0
SEQEND
  5
4C3
  8
DEFAULT
  0
POLYLINE
  5
4C4
  8
DEFAULT
 66
     1
 10
0.0
 20
0.0
 30
0.0
 70
     1
  0
VERTEX
  5
4C5
  8
DEFAULT
 10
-729.9540215456643
 20
838.737973059796
 30
0.0
  0
VERTEX
  5
4C6
  8
DEFAULT
 10
-724.0173061868661
 20
824.4054743246371
 30
0.0
  0
VERTEX
  5
4C7
  8
DEFAULT
 10
-733.1177046085929
 20
815.30507590291
 30
0.0
  0
VERTEX
  5
4C8
  8
DEFAULT
 10
-720.2477977375881
 20
815.30507590291
 30
0.0
  0
VERTEX
  5
4C9
  8
DEFAULT
 10
-711.5248477502663
 20
794.2460117396157
 30
0.0
  0
VERTEX
  5
4CA
  8
DEFAULT
 10
-706.5211243887773
 20
799.249735101104
 30
0.0
  0
VERTEX
  5
4CB
  8
DEFAULT
 10
-706.5211243887777
 20
815.30507590291
 30
0.0
  0
VERTEX
  5
4CC
  8
DEFAULT
 10
-690.4657835869718
 20
815.30507590291
 30
0.0
  0
VERTEX
  5
4CD
  8
DEFAULT
 10
-685.4620602254842
 20
820.3087992643988
 30
0.0
  0
VERTEX
  5
4CE
  8
DEFAULT
 10
-706.5211243887782
 20
829.0317492517206
 30
0.0
  0
VERTEX
  5
4CF
  8
DEFAULT
 10
-706.5211243887779
 20
841.9016561227246
 30
0.0
  0
VERTEX
  5
4D0
  8
DEFAULT
 10
-715.6215228105045
 20
832.8012577009983
 30
0.0
  0
SEQEND
  5
4D1
  8
DEFAULT
  0
POLYLINE
  5
4D2
  8
DEFAULT
 66
     1
 10
0.0
 20
0.0
 30
0.0
 70
     1
  0
VERTEX
  5
4D3
  8
DEFAULT
 10
-805.636024271586
 20
875.6589542734769
 30
0.0
  0
VERTEX
  5
4D4
  8
DEFAULT
 10
-810.6397476330733
 20
880.6626776349656
 30
0.0
  0
VERTEX
  5
4D5
  8
DEFAULT
 10
-826.6950884348802
 20
880.6626776349647
 30
0.0
  0
VERTEX
  5
4D6
  8
DEFAULT
 10
-826.6950884348792
 20
896.7180184367699
 30
0.0
  0
VERTEX
  5
4D7
  8
DEFAULT
 10
-831.6988117963687
 20
901.7217417982589
 30
0.0
  0
VERTEX
  5
4D8
  8
DEFAULT
 10
-840.4217617836903
 20
880.6626776349656
 30
0.0
  0
VERTEX
  5
4D9
  8
DEFAULT
 10
-853.2916686546947
 20
880.6626776349656
 30
0.0
  0
VERTEX
  5
4DA
  8
DEFAULT
 10
-844.191270232968
 20
871.5622792132385
 30
0.0
  0
VERTEX
  5
4DB
  8
DEFAULT
 10
-850.1279855917662
 20
857.2297804780789
 30
0.0
  0
VERTEX
  5
4DC
  8
DEFAULT
 10
-835.7954868566064
 20
863.1664958368772
 30
0.0
  0
VERTEX
  5
4DD
  8
DEFAULT
 10
-826.6950884348798
 20
854.066097415151
 30
0.0
  0
VERTEX
  5
4DE
  8
DEFAULT
 10
-826.6950884348798
 20
866.9360042861555
 30
0.0
  0
SEQEND
  5
4DF
  8
DEFAULT
  0
POLYLINE
  5
4E0
  8
DEFAULT
 66
     1
 10
0.0
 20
0.0
 30
0.0
 70
     1
  0
VERTEX
  5
4E1
  8
DEFAULT
 10
-774.6789024325416
 20
787.8968947458874
 30
0.0
  0
VERTEX
  5
4E2
  8
DEFAULT
 10
-781.886420180263
 20
795.1044124936079
 30
0.0
  0
VERTEX
  5
4E3
  8
DEFAULT
 10
-781.886420180263
 20
805.2973818434809
 30
0.0
  0
VERTEX
  5
4E4
  8
DEFAULT
 10
-792.0793895301367
 20
805.2973818434805
 30
0.0
  0
VERTEX
  5
4E5
  8
DEFAULT
 10
-799.2869072778569
 20
812.504899591202
 30
0.0
  0
VERTEX
  5
4E6
  8
DEFAULT
 10
-806.4944250255792
 20
805.2973818434796
 30
0.0
  0
VERTEX
  5
4E7
  8
DEFAULT
 10
-816.6873943754508
 20
805.2973818434805
 30
0.0
  0
VERTEX
  5
4E8
  8
DEFAULT
 10
-816.6873943754504
 20
795.104412493607
 30
0.0
  0
VERTEX
  5
4E9
  8
DEFAULT
 10
-823.8949121231711
 20
787.8968947458877
 30
0.0
  0
VERTEX
  5
4EA
  8
DEFAULT
 10
-816.6873943754504
 20
780.6893769981684
 30
0.0
  0
VERTEX
  5
4EB
  8
DEFAULT
 10
-816.6873943754508
 20
770.4964076482946
 30
0.0
  0
VERTEX
  5
4EC
  8
DEFAULT
 10
-806.4944250255792
 20
770.4964076482954
 30
0.0
  0
VERTEX
  5
4ED
  8
DEFAULT
 10
-799.2869072778569
 20
763.2888899005726
 30
0.0
  0
VERTEX
  5
4EE
  8
DEFAULT
 10
-792.0793895301367
 20
770.4964076482945
 30
0.0
  0
VERTEX
  5
4EF
  8
DEFAULT
 10
-781.886420180263
 20
770.4964076482945
 30
0.0
  0
VERTEX
  5
4F0
  8
DEFAULT
 10
-781.886420180263
 20
780.6893769981676
 30
0.0
  0
SEQEND
  5
4F1
  8
DEFAULT
  0
POLYLINE
  5
4F2
  8
DEFAULT
 66
     1
 10
0.0
 20
0.0
 30
0.0
 70
     1
  0
VERTEX
  5
4F3
  8
DEFAULT
 10
-748.445828963947
 20
857.2297804780789
 30
0.0
  0
VERTEX
  5
4F4
  8
DEFAULT
 10
-754.3825443227456
 20
871.5622792132394
 30
0.0
  0
VERTEX
  5
4F5
  8
DEFAULT
 10
-745.2821459010191
 20
880.6626776349656
 30
0.0
  0
VERTEX
  5
4F6
  8
DEFAULT
 10
-758.1520527720238
 20
880.6626776349656
 30
0.0
  0
VERTEX
  5
4F7
  8
DEFAULT
 10
-766.8750027593452
 20
901.7217417982598
 30
0.0
  0
VERTEX
  5
4F8
  8
DEFAULT
 10
-771.878726120834
 20
896.7180184367717
 30
0.0
  0
VERTEX
  5
4F9
  8
DEFAULT
 10
-771.8787261208336
 20
880.6626776349646
 30
0.0
  0
VERTEX
  5
4FA
  8
DEFAULT
 10
-787.9340669226383
 20
880.6626776349665
 30
0.0
  0
VERTEX
  5
4FB
  8
DEFAULT
 10
-792.9377902841275
 20
875.6589542734768
 30
0.0
  0
VERTEX
  5
4FC
  8
DEFAULT
 10
-771.8787261208336
 20
866.936004286155
 30
0.0
  0
VERTEX
  5
4FD
  8
DEFAULT
 10
-771.8787261208336
 20
854.0660974151509
 30
0.0
  0
VERTEX
  5
4FE
  8
DEFAULT
 10
-762.778327699107
 20
863.1664958368772
 30
0.0
  0
SEQEND
  5
4FF
  8
DEFAULT
  0
POLYLINE
  5
500
  8
DEFAULT
 66
     1
 10
0.0
 20
0.0
 30
0.0
 70
     1
  0
VERTEX
  5
501
  8
DEFAULT
 10
-913.1117543302294
 20
820.3087992643983
 30
0.0
  0
VERTEX
  5
502
  8
DEFAULT
 10
-908.108030968742
 20
815.30507590291
 30
0.0
  0
VERTEX
  5
503
  8
DEFAULT
 10
-892.0526901669349
 20
815.3050759029104
 30
0.0
  0
VERTEX
  5
504
  8
DEFAULT
 10
-892.0526901669364
 20
799.2497351011052
 30
0.0
  0
VERTEX
  5
505
  8
DEFAULT
 10
-887.048966805447
 20
794.2460117396159
 30
0.0
  0
VERTEX
  5
506
  8
DEFAULT
 10
-878.3260168181253
 20
815.30507590291
 30
0.0
  0
VERTEX
  5
507
  8
DEFAULT
 10
-865.4561099471208
 20
815.30507590291
 30
0.0
  0
VERTEX
  5
508
  8
DEFAULT
 10
-874.5565083688471
 20
824.4054743246371
 30
0.0
  0
VERTEX
  5
509
  8
DEFAULT
 10
-868.6197930100489
 20
838.7379730597968
 30
0.0
  0
VERTEX
  5
50A
  8
DEFAULT
 10
-882.9522917452091
 20
832.8012577009983
 30
0.0
  0
VERTEX
  5
50B
  8
DEFAULT
 10
-892.0526901669357
 20
841.9016561227246
 30
0.0
  0
VERTEX
  5
50C
  8
DEFAULT
 10
-892.0526901669355
 20
829.0317492517197
 30
0.0
  0
SEQEND
  5
50D
  8
DEFAULT
  0
POLYLINE
  5
50E
  8
DEFAULT
 66
     1
 10
0.0
 20
0.0
 30
0.0
 70
     1
  0
VERTEX
  5
50F
  8
DEFAULT
 10
-719.727207375209
 20
787.8968947458877
 30
0.0
  0
VERTEX
  5
510
  8
DEFAULT
 10
-726.9347251229306
 20
770.496407648294
 30
0.0
  0
VERTEX
  5
511
  8
DEFAULT
 10
-743.1253986680224
 20
770.4964076482945
 30
0.0
  0
VERTEX
  5
512
  8
DEFAULT
 10
-760.5258857656156
 20
787.8968947458877
 30
0.0
  0
VERTEX
  5
513
  8
DEFAULT
 10
-743.1253986680224
 20
805.2973818434809
 30
0.0
  0
VERTEX
  5
514
  8
DEFAULT
 10
-726.9347251229306
 20
805.2973818434809
 30
0.0
  0
SEQEND
  5
515
  8
DEFAULT
  0
POLYLINE
  5
516
  8
DEFAULT
 66
     1
 10
0.0
 20
0.0
 30
0.0
 70
     1
  0
VERTEX
  5
517
  8
DEFAULT
 10
-878.8466071805046
 20
787.8968947458868
 30
0.0
  0
VERTEX
  5
518
  8
DEFAULT
 10
-871.6390894327828
 20
805.2973818434809
 30
0.0
  0
VERTEX
  5
519
  8
DEFAULT
 10
-855.4484158876915
 20
805.2973818434805
 30
0.0
  0
VERTEX
  5
51A
  8
DEFAULT
 10
-838.0479287900987
 20
787.8968947458877
 30
0.0
  0
VERTEX
  5
51B
  8
DEFAULT
 10
-855.4484158876915
 20
770.4964076482945
 30
0.0
  0
VERTEX
  5
51C
  8
DEFAULT
 10
-871.6390894327828
 20
770.4964076482945
 30
0.0
  0
SEQEND
  5
51D
  8
DEFAULT
  0
POLYLINE
  5
51E
  8
DEFAULT
 66
     1
 10
0.0
 20
0.0
 30
0.0
 70
     1
  0
VERTEX
  5
51F
  8
DEFAULT
 10
-902.0603842263647
 20
880.6626776349656
 30
0.0
  0
VERTEX
  5
520
  8
DEFAULT
 10
-902.0603842263647
 20
866.0623668490794
 30
0.0
  0
VERTEX
  5
521
  8
DEFAULT
 10
-912.3843629904958
 20
876.3863456132102
 30
0.0
  0
VERTEX
  5
522
  8
DEFAULT
 10
-908.1080309687411
 20
880.6626776349656
 30
0.0
  0
SEQEND
  5
523
  8
DEFAULT
  0
POLYLINE
  5
524
  8
DEFAULT
 66
     1
 10
0.0
 20
0.0
 30
0.0
 70
     1
  0
VERTEX
  5
525
  8
DEFAULT
 10
-892.0526901669357
 20
890.6703716943946
 30
0.0
  0
VERTEX
  5
526
  8
DEFAULT
 10
-892.0526901669359
 20
896.7180184367708
 30
0.0
  0
VERTEX
  5
527
  8
DEFAULT
 10
-887.7763581451807
 20
900.9943504585258
 30
0.0
  0
VERTEX
  5
528
  8
DEFAULT
 10
-877.4523793810497
 20
890.6703716943946
 30
0.0
  0
SEQEND
  5
529
  8
DEFAULT
  0
POLYLINE
  5
52A
  8
DEFAULT
 66
     1
 10
0.0
 20
0.0
 30
0.0
 70
     1
  0
VERTEX
  5
52B
  8
DEFAULT
 10
-863.2036680136298
 20
851.8136554816598
 30
0.0
  0
VERTEX
  5
52C
  8
DEFAULT
 10
-880.6041551112239
 20
844.606137733939
 30
0.0
  0
VERTEX
  5
52D
  8
DEFAULT
 10
-892.0526901669357
 20
856.0546727896503
 30
0.0
  0
VERTEX
  5
52E
  8
DEFAULT
 10
-892.0526901669352
 20
880.6626776349656
 30
0.0
  0
VERTEX
  5
52F
  8
DEFAULT
 10
-867.4446853216205
 20
880.6626776349656
 30
0.0
  0
VERTEX
  5
530
  8
DEFAULT
 10
-855.9961502659082
 20
869.2141425792535
 30
0.0
  0
SEQEND
  5
531
  8
DEFAULT
  0
POLYLINE
  5
532
  8
DEFAULT
 66
     1
 10
0.0
 20
0.0
 30
0.0
 70
     1
  0
VERTEX
  5
533
  8
DEFAULT
 10
-767.6023940990788
 20
794.9734030793502
 30
0.0
  0
VERTEX
  5
534
  8
DEFAULT
 10
-771.8787261208338
 20
799.2497351011043
 30
0.0
  0
VERTEX
  5
535
  8
DEFAULT
 10
-771.8787261208336
 20
805.2973818434809
 30
0.0
  0
VERTEX
  5
536
  8
DEFAULT
 10
-757.2784153349478
 20
805.2973818434809
 30
0.0
  0
SEQEND
  5
537
  8
DEFAULT
  0
POLYLINE
  5
538
  8
DEFAULT
 66
     1
 10
0.0
 20
0.0
 30
0.0
 70
     1
  0
VERTEX
  5
539
  8
DEFAULT
 10
-792.210398944394
 20
819.5814079246645
 30
0.0
  0
VERTEX
  5
53A
  8
DEFAULT
 10
-781.8864201802628
 20
829.9053866887962
 30
0.0
  0
VERTEX
  5
53B
  8
DEFAULT
 10
-781.886420180263
 20
815.30507590291
 30
0.0
  0
VERTEX
  5
53C
  8
DEFAULT
 10
-787.9340669226392
 20
815.30507590291
 30
0.0
  0
SEQEND
  5
53D
  8
DEFAULT
  0
POLYLINE
  5
53E
  8
DEFAULT
 66
     1
 10
0.0
 20
0.0
 30
0.0
 70
     1
  0
VERTEX
  5
53F
  8
DEFAULT
 10
-816.6873943754508
 20
815.30507590291
 30
0.0
  0
VERTEX
  5
540
  8
DEFAULT
 10
-816.6873943754506
 20
829.9053866887962
 30
0.0
  0
VERTEX
  5
541
  8
DEFAULT
 10
-806.3634156113196
 20
819.5814079246646
 30
0.0
  0
VERTEX
  5
542
  8
DEFAULT
 10
-810.6397476330744
 20
815.30507590291
 30
0.0
  0
SEQEND
  5
543
  8
DEFAULT
  0
POLYLINE
  5
544
  8
DEFAULT
 66
     1
 10
0.0
 20
0.0
 30
0.0
 70
     1
  0
VERTEX
  5
545
  8
DEFAULT
 10
-830.9714204566349
 20
794.9734030793493
 30
0.0
  0
VERTEX
  5
546
  8
DEFAULT
 10
-841.2953992207662
 20
805.2973818434809
 30
0.0
  0
VERTEX
  5
547
  8
DEFAULT
 10
-826.6950884348798
 20
805.2973818434809
 30
0.0
  0
VERTEX
  5
548
  8
DEFAULT
 10
-826.6950884348798
 20
799.2497351011048
 30
0.0
  0
SEQEND
  5
549
  8
DEFAULT
  0
POLYLINE
  5
54A
  8
DEFAULT
 66
     1
 10
0.0
 20
0.0
 30
0.0
 70
     1
  0
VERTEX
  5
54B
  8
DEFAULT
 10
-743.0297039675277
 20
844.1540980562154
 30
0.0
  0
VERTEX
  5
54C
  8
DEFAULT
 10
-735.8221862198068
 20
826.7536109586222
 30
0.0
  0
VERTEX
  5
54D
  8
DEFAULT
 10
-747.2707212755186
 20
815.30507590291
 30
0.0
  0
VERTEX
  5
54E
  8
DEFAULT
 10
-771.8787261208336
 20
815.30507590291
 30
0.0
  0
VERTEX
  5
54F
  8
DEFAULT
 10
-771.8787261208336
 20
839.9130807482252
 30
0.0
  0
VERTEX
  5
550
  8
DEFAULT
 10
-760.4301910651218
 20
851.3616158039374
 30
0.0
  0
SEQEND
  5
551
  8
DEFAULT
  0
POLYLINE
  5
552
  8
DEFAULT
 66
     1
 10
0.0
 20
0.0
 30
0.0
 70
     1
  0
VERTEX
  5
553
  8
DEFAULT
 10
-799.2869072778567
 20
867.4565946485347
 30
0.0
  0
VERTEX
  5
554
  8
DEFAULT
 10
-781.886420180263
 20
860.2490769008127
 30
0.0
  0
VERTEX
  5
555
  8
DEFAULT
 10
-781.886420180263
 20
844.0584033557211
 30
0.0
  0
VERTEX
  5
556
  8
DEFAULT
 10
-799.2869072778569
 20
826.6579162581279
 30
0.0
  0
VERTEX
  5
557
  8
DEFAULT
 10
-816.6873943754504
 20
844.0584033557211
 30
0.0
  0
VERTEX
  5
558
  8
DEFAULT
 10
-816.6873943754506
 20
860.2490769008127
 30
0.0
  0
SEQEND
  5
559
  8
DEFAULT
  0
POLYLINE
  5
55A
  8
DEFAULT
 66
     1
 10
0.0
 20
0.0
 30
0.0
 70
     1
  0
VERTEX
  5
55B
  8
DEFAULT
 10
-855.5441105881857
 20
844.1540980562158
 30
0.0
  0
VERTEX
  5
55C
  8
DEFAULT
 10
-838.1436234905916
 20
851.3616158039365
 30
0.0
  0
VERTEX
  5
55D
  8
DEFAULT
 10
-826.6950884348798
 20
839.9130807482252
 30
0.0
  0
VERTEX
  5
55E
  8
DEFAULT
 10
-826.6950884348803
 20
815.30507590291
 30
0.0
  0
VERTEX
  5
55F
  8
DEFAULT
 10
-851.3030932801946
 20
815.30507590291
 30
0.0
  0
VERTEX
  5
560
  8
DEFAULT
 10
-862.7516283359073
 20
826.7536109586222
 30
0.0
  0
SEQEND
  5
561
  8
DEFAULT
  0
POLYLINE
  5
562
  8
DEFAULT
 66
     1
 10
0.0
 20
0.0
 30
0.0
 70
     1
  0
VERTEX
  5
563
  8
DEFAULT
 10
-706.5211243887779
 20
890.6703716943946
 30
0.0
  0
VERTEX
  5
564
  8
DEFAULT
 10
-721.1214351746644
 20
890.6703716943946
 30
0.0
  0
VERTEX
  5
565
  8
DEFAULT
 10
-710.7974564105332
 20
900.9943504585259
 30
0.0
  0
VERTEX
  5
566
  8
DEFAULT
 10
-706.5211243887779
 20
896.7180184367712
 30
0.0
  0
SEQEND
  5
567
  8
DEFAULT
  0
POLYLINE
  5
568
  8
DEFAULT
 66
     1
 10
0.0
 20
0.0
 30
0.0
 70
     1
  0
VERTEX
  5
569
  8
DEFAULT
 10
-696.5134303293487
 20
880.6626776349657
 30
0.0
  0
VERTEX
  5
56A
  8
DEFAULT
 10
-690.4657835869727
 20
880.662677634966
 30
0.0
  0
VERTEX
  5
56B
  8
DEFAULT
 10
-686.1894515652177
 20
876.386345613211
 30
0.0
  0
VERTEX
  5
56C
  8
DEFAULT
 10
-696.5134303293487
 20
866.0623668490798
 30
0.0
  0
SEQEND
  5
56D
  8
DEFAULT
  0
POLYLINE
  5
56E
  8
DEFAULT
 66
     1
 10
0.0
 20
0.0
 30
0.0
 70
     1
  0
VERTEX
  5
56F
  8
DEFAULT
 10
-735.3701465420837
 20
851.8136554816601
 30
0.0
  0
VERTEX
  5
570
  8
DEFAULT
 10
-742.5776642898049
 20
869.2141425792543
 30
0.0
  0
VERTEX
  5
571
  8
DEFAULT
 10
-731.1291292340932
 20
880.6626776349656
 30
0.0
  0
VERTEX
  5
572
  8
DEFAULT
 10
-706.5211243887779
 20
880.6626776349656
 30
0.0
  0
VERTEX
  5
573
  8
DEFAULT
 10
-706.5211243887777
 20
856.0546727896503
 30
0.0
  0
VERTEX
  5
574
  8
DEFAULT
 10
-717.9696594444897
 20
844.6061377339382
 30
0.0
  0
SEQEND
  5
575
  8
DEFAULT
  0
POLYLINE
  5
576
  8
DEFAULT
 66
     1
 10
0.0
 20
0.0
 30
0.0
 70
     1
  0
VERTEX
  5
577
  8
DEFAULT
 10
-970.3019496378683
 20
737.0558164319788
 30
0.0
  0
VERTEX
  5
578
  8
DEFAULT
 10
-964.3652342790701
 20
751.3883151671384
 30
0.0
  0
VERTEX
  5
579
  8
DEFAULT
 10
-973.4656327007968
 20
760.4887135888646
 30
0.0
  0
VERTEX
  5
57A
  8
DEFAULT
 10
-960.5957258297922
 20
760.4887135888646
 30
0.0
  0
VERTEX
  5
57B
  8
DEFAULT
 10
-951.8727758424703
 20
781.5477777521597
 30
0.0
  0
VERTEX
  5
57C
  8
DEFAULT
 10
-946.8690524809813
 20
776.5440543906716
 30
0.0
  0
VERTEX
  5
57D
  8
DEFAULT
 10
-946.8690524809817
 20
760.4887135888656
 30
0.0
  0
VERTEX
  5
57E
  8
DEFAULT
 10
-930.8137116791759
 20
760.4887135888646
 30
0.0
  0
VERTEX
  5
57F
  8
DEFAULT
 10
-925.8099883176883
 20
755.4849902273767
 30
0.0
  0
VERTEX
  5
580
  8
DEFAULT
 10
-946.8690524809822
 20
746.762040240055
 30
0.0
  0
VERTEX
  5
581
  8
DEFAULT
 10
-946.8690524809821
 20
733.8921333690502
 30
0.0
  0
VERTEX
  5
582
  8
DEFAULT
 10
-955.9694509027087
 20
742.9925317907772
 30
0.0
  0
SEQEND
  5
583
  8
DEFAULT
  0
POLYLINE
  5
584
  8
DEFAULT
 66
     1
 10
0.0
 20
0.0
 30
0.0
 70
     1
  0
VERTEX
  5
585
  8
DEFAULT
 10
-1007.222930851549
 20
674.0720476935156
 30
0.0
  0
VERTEX
  5
586
  8
DEFAULT
 10
-1012.226654213038
 20
679.075771055003
 30
0.0
  0
VERTEX
  5
587
  8
DEFAULT
 10
-1012.226654213038
 20
695.13111185681
 30
0.0
  0
VERTEX
  5
588
  8
DEFAULT
 10
-1028.281995014843
 20
695.131111856809
 30
0.0
  0
VERTEX
  5
589
  8
DEFAULT
 10
-1033.285718376331
 20
700.1348352182979
 30
0.0
  0
VERTEX
  5
58A
  8
DEFAULT
 10
-1012.226654213038
 20
708.8577852056196
 30
0.0
  0
VERTEX
  5
58B
  8
DEFAULT
 10
-1012.226654213038
 20
721.7276920766244
 30
0.0
  0
VERTEX
  5
58C
  8
DEFAULT
 10
-1003.126255791311
 20
712.6272936548974
 30
0.0
  0
VERTEX
  5
58D
  8
DEFAULT
 10
-988.7937570561512
 20
718.5640090136958
 30
0.0
  0
VERTEX
  5
58E
  8
DEFAULT
 10
-994.7304724149495
 20
704.2315102785361
 30
0.0
  0
VERTEX
  5
58F
  8
DEFAULT
 10
-985.6300739932229
 20
695.131111856809
 30
0.0
  0
VERTEX
  5
590
  8
DEFAULT
 10
-998.4999808642278
 20
695.131111856809
 30
0.0
  0
SEQEND
  5
591
  8
DEFAULT
  0
POLYLINE
  5
592
  8
DEFAULT
 66
     1
 10
0.0
 20
0.0
 30
0.0
 70
     1
  0
VERTEX
  5
593
  8
DEFAULT
 10
-1007.950322191283
 20
780.8203864124254
 30
0.0
  0
VERTEX
  5
594
  8
DEFAULT
 10
-1012.226654213038
 20
776.5440543906707
 30
0.0
  0
VERTEX
  5
595
  8
DEFAULT
 10
-1012.226654213038
 20
770.4964076482945
 30
0.0
  0
VERTEX
  5
596
  8
DEFAULT
 10
-997.6263434271518
 20
770.4964076482945
 30
0.0
  0
SEQEND
  5
597
  8
DEFAULT
  0
POLYLINE
  5
598
  8
DEFAULT
 66
     1
 10
0.0
 20
0.0
 30
0.0
 70
     1
  0
VERTEX
  5
599
  8
DEFAULT
 10
-1032.558327036598
 20
756.2123815671101
 30
0.0
  0
VERTEX
  5
59A
  8
DEFAULT
 10
-1022.234348272467
 20
745.8884028029793
 30
0.0
  0
VERTEX
  5
59B
  8
DEFAULT
 10
-1022.234348272467
 20
760.4887135888647
 30
0.0
  0
VERTEX
  5
59C
  8
DEFAULT
 10
-1028.281995014843
 20
760.4887135888655
 30
0.0
  0
SEQEND
  5
59D
  8
DEFAULT
  0
POLYLINE
  5
59E
  8
DEFAULT
 66
     1
 10
0.0
 20
0.0
 30
0.0
 70
     1
  0
VERTEX
  5
59F
  8
DEFAULT
 10
-983.3776320597318
 20
731.6396914355593
 30
0.0
  0
VERTEX
  5
5A0
  8
DEFAULT
 10
-976.1701143120108
 20
749.0401785331534
 30
0.0
  0
VERTEX
  5
5A1
  8
DEFAULT
 10
-987.6186493677226
 20
760.4887135888655
 30
0.0
  0
VERTEX
  5
5A2
  8
DEFAULT
 10
-1012.226654213038
 20
760.4887135888646
 30
0.0
  0
VERTEX
  5
5A3
  8
DEFAULT
 10
-1012.226654213038
 20
735.8807087435503
 30
0.0
  0
VERTEX
  5
5A4
  8
DEFAULT
 10
-1000.778119157326
 20
724.432173687838
 30
0.0
  0
SEQEND
  5
5A5
  8
DEFAULT
  0
POLYLINE
  5
5A6
  8
DEFAULT
 66
     1
 10
0.0
 20
0.0
 30
0.0
 70
     1
  0
VERTEX
  5
5A7
  8
DEFAULT
 10
-946.869052480982
 20
685.12341779738
 30
0.0
  0
VERTEX
  5
5A8
  8
DEFAULT
 10
-961.4693632668684
 20
685.12341779738
 30
0.0
  0
VERTEX
  5
5A9
  8
DEFAULT
 10
-951.1453845027372
 20
674.7994390332492
 30
0.0
  0
VERTEX
  5
5AA
  8
DEFAULT
 10
-946.869052480982
 20
679.0757710550038
 30
0.0
  0
SEQEND
  5
5AB
  8
DEFAULT
  0
POLYLINE
  5
5AC
  8
DEFAULT
 66
     1
 10
0.0
 20
0.0
 30
0.0
 70
     1
  0
VERTEX
  5
5AD
  8
DEFAULT
 10
-936.8613584215527
 20
695.131111856809
 30
0.0
  0
VERTEX
  5
5AE
  8
DEFAULT
 10
-930.8137116791768
 20
695.131111856809
 30
0.0
  0
VERTEX
  5
5AF
  8
DEFAULT
 10
-926.5373796574218
 20
699.4074438785644
 30
0.0
  0
VERTEX
  5
5B0
  8
DEFAULT
 10
-936.8613584215527
 20
709.7314226426952
 30
0.0
  0
SEQEND
  5
5B1
  8
DEFAULT
  0
POLYLINE
  5
5B2
  8
DEFAULT
 66
     1
 10
0.0
 20
0.0
 30
0.0
 70
     1
  0
VERTEX
  5
5B3
  8
DEFAULT
 10
-975.7180746342879
 20
723.9801340101153
 30
0.0
  0
VERTEX
  5
5B4
  8
DEFAULT
 10
-982.9255923820089
 20
706.5796469125212
 30
0.0
  0
VERTEX
  5
5B5
  8
DEFAULT
 10
-971.4770573262971
 20
695.131111856809
 30
0.0
  0
VERTEX
  5
5B6
  8
DEFAULT
 10
-946.869052480982
 20
695.1311118568099
 30
0.0
  0
VERTEX
  5
5B7
  8
DEFAULT
 10
-946.8690524809817
 20
719.7391167021242
 30
0.0
  0
VERTEX
  5
5B8
  8
DEFAULT
 10
-958.3175875366938
 20
731.1876517578364
 30
0.0
  0
SEQEND
  5
5B9
  8
DEFAULT
  0
POLYLINE
  5
5BA
  8
DEFAULT
 66
     1
 10
0.0
 20
0.0
 30
0.0
 70
     1
  0
VERTEX
  5
5BB
  8
DEFAULT
 10
-970.3019496378683
 20
838.737973059796
 30
0.0
  0
VERTEX
  5
5BC
  8
DEFAULT
 10
-964.3652342790701
 20
824.4054743246371
 30
0.0
  0
VERTEX
  5
5BD
  8
DEFAULT
 10
-973.465632700797
 20
815.30507590291
 30
0.0
  0
VERTEX
  5
5BE
  8
DEFAULT
 10
-960.5957258297922
 20
815.30507590291
 30
0.0
  0
VERTEX
  5
5BF
  8
DEFAULT
 10
-951.8727758424703
 20
794.2460117396157
 30
0.0
  0
VERTEX
  5
5C0
  8
DEFAULT
 10
-946.8690524809813
 20
799.249735101104
 30
0.0
  0
VERTEX
  5
5C1
  8
DEFAULT
 10
-946.8690524809817
 20
815.30507590291
 30
0.0
  0
VERTEX
  5
5C2
  8
DEFAULT
 10
-930.8137116791759
 20
815.30507590291
 30
0.0
  0
VERTEX
  5
5C3
  8
DEFAULT
 10
-925.8099883176882
 20
820.3087992643988
 30
0.0
  0
VERTEX
  5
5C4
  8
DEFAULT
 10
-946.8690524809822
 20
829.0317492517206
 30
0.0
  0
VERTEX
  5
5C5
  8
DEFAULT
 10
-946.8690524809821
 20
841.9016561227246
 30
0.0
  0
VERTEX
  5
5C6
  8
DEFAULT
 10
-955.9694509027087
 20
832.8012577009983
 30
0.0
  0
SEQEND
  5
5C7
  8
DEFAULT
  0
POLYLINE
  5
5C8
  8
DEFAULT
 66
     1
 10
0.0
 20
0.0
 30
0.0
 70
     1
  0
VERTEX
  5
5C9
  8
DEFAULT
 10
-988.793757056151
 20
857.2297804780789
 30
0.0
  0
VERTEX
  5
5CA
  8
DEFAULT
 10
-994.7304724149495
 20
871.5622792132394
 30
0.0
  0
VERTEX
  5
5CB
  8
DEFAULT
 10
-985.630073993223
 20
880.6626776349656
 30
0.0
  0
VERTEX
  5
5CC
  8
DEFAULT
 10
-998.4999808642278
 20
880.6626776349656
 30
0.0
  0
VERTEX
  5
5CD
  8
DEFAULT
 10
-1007.222930851549
 20
901.7217417982598
 30
0.0
  0
VERTEX
  5
5CE
  8
DEFAULT
 10
-1012.226654213038
 20
896.7180184367717
 30
0.0
  0
VERTEX
  5
5CF
  8
DEFAULT
 10
-1012.226654213038
 20
880.6626776349646
 30
0.0
  0
VERTEX
  5
5D0
  8
DEFAULT
 10
-1028.281995014843
 20
880.6626776349665
 30
0.0
  0
VERTEX
  5
5D1
  8
DEFAULT
 10
-1033.285718376331
 20
875.6589542734768
 30
0.0
  0
VERTEX
  5
5D2
  8
DEFAULT
 10
-1012.226654213038
 20
866.936004286155
 30
0.0
  0
VERTEX
  5
5D3
  8
DEFAULT
 10
-1012.226654213038
 20
854.0660974151509
 30
0.0
  0
VERTEX
  5
5D4
  8
DEFAULT
 10
-1003.126255791311
 20
863.1664958368772
 30
0.0
  0
SEQEND
  5
5D5
  8
DEFAULT
  0
POLYLINE
  5
5D6
  8
DEFAULT
 66
     1
 10
0.0
 20
0.0
 30
0.0
 70
     1
  0
VERTEX
  5
5D7
  8
DEFAULT
 10
-960.075135467413
 20
787.8968947458877
 30
0.0
  0
VERTEX
  5
5D8
  8
DEFAULT
 10
-967.2826532151346
 20
770.496407648294
 30
0.0
  0
VERTEX
  5
5D9
  8
DEFAULT
 10
-983.4733267602264
 20
770.4964076482945
 30
0.0
  0
VERTEX
  5
5DA
  8
DEFAULT
 10
-1000.87381385782
 20
787.8968947458877
 30
0.0
  0
VERTEX
  5
5DB
  8
DEFAULT
 10
-983.4733267602264
 20
805.2973818434809
 30
0.0
  0
VERTEX
  5
5DC
  8
DEFAULT
 10
-967.2826532151346
 20
805.2973818434809
 30
0.0
  0
SEQEND
  5
5DD
  8
DEFAULT
  0
POLYLINE
  5
5DE
  8
DEFAULT
 66
     1
 10
0.0
 20
0.0
 30
0.0
 70
     1
  0
VERTEX
  5
5DF
  8
DEFAULT
 10
-1007.950322191283
 20
794.9734030793502
 30
0.0
  0
VERTEX
  5
5E0
  8
DEFAULT
 10
-1012.226654213038
 20
799.2497351011043
 30
0.0
  0
VERTEX
  5
5E1
  8
DEFAULT
 10
-1012.226654213038
 20
805.2973818434809
 30
0.0
  0
VERTEX
  5
5E2
  8
DEFAULT
 10
-997.6263434271518
 20
805.2973818434809
 30
0.0
  0
SEQEND
  5
5E3
  8
DEFAULT
  0
POLYLINE
  5
5E4
  8
DEFAULT
 66
     1
 10
0.0
 20
0.0
 30
0.0
 70
     1
  0
VERTEX
  5
5E5
  8
DEFAULT
 10
-1032.558327036598
 20
819.5814079246645
 30
0.0
  0
VERTEX
  5
5E6
  8
DEFAULT
 10
-1022.234348272467
 20
829.9053866887962
 30
0.0
  0
VERTEX
  5
5E7
  8
DEFAULT
 10
-1022.234348272467
 20
815.30507590291
 30
0.0
  0
VERTEX
  5
5E8
  8
DEFAULT
 10
-1028.281995014843
 20
815.30507590291
 30
0.0
  0
SEQEND
  5
5E9
  8
DEFAULT
  0
POLYLINE
  5
5EA
  8
DEFAULT
 66
     1
 10
0.0
 20
0.0
 30
0.0
 70
     1
  0
VERTEX
  5
5EB
  8
DEFAULT
 10
-983.3776320597318
 20
844.1540980562154
 30
0.0
  0
VERTEX
  5
5EC
  8
DEFAULT
 10
-976.1701143120108
 20
826.7536109586222
 30
0.0
  0
VERTEX
  5
5ED
  8
DEFAULT
 10
-987.6186493677226
 20
815.30507590291
 30
0.0
  0
VERTEX
  5
5EE
  8
DEFAULT
 10
-1012.226654213038
 20
815.30507590291
 30
0.0
  0
VERTEX
  5
5EF
  8
DEFAULT
 10
-1012.226654213038
 20
839.9130807482252
 30
0.0
  0
VERTEX
  5
5F0
  8
DEFAULT
 10
-1000.778119157326
 20
851.3616158039374
 30
0.0
  0
SEQEND
  5
5F1
  8
DEFAULT
  0
POLYLINE
  5
5F2
  8
DEFAULT
 66
     1
 10
0.0
 20
0.0
 30
0.0
 70
     1
  0
VERTEX
  5
5F3
  8
DEFAULT
 10
-946.869052480982
 20
890.6703716943946
 30
0.0
  0
VERTEX
  5
5F4
  8
DEFAULT
 10
-961.4693632668684
 20
890.6703716943946
 30
0.0
  0
VERTEX
  5
5F5
  8
DEFAULT
 10
-951.1453845027372
 20
900.9943504585259
 30
0.0
  0
VERTEX
  5
5F6
  8
DEFAULT
 10
-946.869052480982
 20
896.7180184367712
 30
0.0
  0
SEQEND
  5
5F7
  8
DEFAULT
  0
POLYLINE
  5
5F8
  8
DEFAULT
 66
     1
 10
0.0
 20
0.0
 30
0.0
 70
     1
  0
VERTEX
  5
5F9
  8
DEFAULT
 10
-936.8613584215527
 20
880.6626776349657
 30
0.0
  0
VERTEX
  5
5FA
  8
DEFAULT
 10
-930.8137116791768
 20
880.662677634966
 30
0.0
  0
VERTEX
  5
5FB
  8
DEFAULT
 10
-926.5373796574218
 20
876.386345613211
 30
0.0
  0
VERTEX
  5
5FC
  8
DEFAULT
 10
-936.8613584215527
 20
866.0623668490798
 30
0.0
  0
SEQEND
  5
5FD
  8
DEFAULT
  0
POLYLINE
  5
5FE
  8
DEFAULT
 66
     1
 10
0.0
 20
0.0
 30
0.0
 70
     1
  0
VERTEX
  5
5FF
  8
DEFAULT
 10
-975.7180746342877
 20
851.8136554816601
 30
0.0
  0
VERTEX
  5
600
  8
DEFAULT
 10
-982.9255923820089
 20
869.2141425792543
 30
0.0
  0
VERTEX
  5
601
  8
DEFAULT
 10
-971.4770573262971
 20
880.6626776349656
 30
0.0
  0
VERTEX
  5
602
  8
DEFAULT
 10
-946.869052480982
 20
880.6626776349656
 30
0.0
  0
VERTEX
  5
603
  8
DEFAULT
 10
-946.8690524809817
 20
856.0546727896503
 30
0.0
  0
VERTEX
  5
604
  8
DEFAULT
 10
-958.3175875366938
 20
844.6061377339382
 30
0.0
  0
SEQEND
  5
605
  8
DEFAULT
  0
POLYLINE
  5
606
  8
DEFAULT
 66
     1
 10
0.0
 20
0.0
 30
0.0
 70
     1
  0
VERTEX
  5
607
  8
DEFAULT
 10
-565.288096179382
 20
940.4827633105011
 30
0.0
  0
VERTEX
  5
608
  8
DEFAULT
 10
-570.2918195408695
 20
935.4790399490123
 30
0.0
  0
VERTEX
  5
609
  8
DEFAULT
 10
-586.3471603426761
 20
935.4790399490128
 30
0.0
  0
VERTEX
  5
60A
  8
DEFAULT
 10
-586.3471603426751
 20
919.4236991472076
 30
0.0
  0
VERTEX
  5
60B
  8
DEFAULT
 10
-591.3508837041646
 20
914.4199757857186
 30
0.0
  0
VERTEX
  5
60C
  8
DEFAULT
 10
-600.0738336914862
 20
935.4790399490123
 30
0.0
  0
VERTEX
  5
60D
  8
DEFAULT
 10
-612.9437405624906
 20
935.4790399490123
 30
0.0
  0
VERTEX
  5
60E
  8
DEFAULT
 10
-603.843342140764
 20
944.5794383707389
 30
0.0
  0
VERTEX
  5
60F
  8
DEFAULT
 10
-609.7800574995622
 20
958.9119371058987
 30
0.0
  0
VERTEX
  5
610
  8
DEFAULT
 10
-595.4475587644024
 20
952.9752217471002
 30
0.0
  0
VERTEX
  5
611
  8
DEFAULT
 10
-586.3471603426758
 20
962.0756201688268
 30
0.0
  0
VERTEX
  5
612
  8
DEFAULT
 10
-586.3471603426758
 20
949.2057132978225
 30
0.0
  0
SEQEND
  5
613
  8
DEFAULT
  0
POLYLINE
  5
614
  8
DEFAULT
 66
     1
 10
0.0
 20
0.0
 30
0.0
 70
     1
  0
VERTEX
  5
615
  8
DEFAULT
 10
-628.2718649178448
 20
977.4037445241811
 30
0.0
  0
VERTEX
  5
616
  8
DEFAULT
 10
-642.6043636530051
 20
983.3404598829795
 30
0.0
  0
VERTEX
  5
617
  8
DEFAULT
 10
-651.7047620747317
 20
974.2400614612529
 30
0.0
  0
VERTEX
  5
618
  8
DEFAULT
 10
-651.7047620747314
 20
987.1099683322577
 30
0.0
  0
VERTEX
  5
619
  8
DEFAULT
 10
-672.7638262380253
 20
995.8329183195796
 30
0.0
  0
VERTEX
  5
61A
  8
DEFAULT
 10
-667.760102876538
 20
1000.836641681067
 30
0.0
  0
VERTEX
  5
61B
  8
DEFAULT
 10
-651.7047620747309
 20
1000.836641681067
 30
0.0
  0
VERTEX
  5
61C
  8
DEFAULT
 10
-651.7047620747323
 20
1016.891982482872
 30
0.0
  0
VERTEX
  5
61D
  8
DEFAULT
 10
-646.701038713243
 20
1021.895705844362
 30
0.0
  0
VERTEX
  5
61E
  8
DEFAULT
 10
-637.9780887259212
 20
1000.836641681067
 30
0.0
  0
VERTEX
  5
61F
  8
DEFAULT
 10
-625.1081818549168
 20
1000.836641681067
 30
0.0
  0
VERTEX
  5
620
  8
DEFAULT
 10
-634.208580276643
 20
991.7362432593409
 30
0.0
  0
SEQEND
  5
621
  8
DEFAULT
  0
POLYLINE
  5
622
  8
DEFAULT
 66
     1
 10
0.0
 20
0.0
 30
0.0
 70
     1
  0
VERTEX
  5
623
  8
DEFAULT
 10
-661.7124561341607
 20
935.4790399490118
 30
0.0
  0
VERTEX
  5
624
  8
DEFAULT
 10
-661.7124561341607
 20
950.0793507348985
 30
0.0
  0
VERTEX
  5
625
  8
DEFAULT
 10
-672.0364348982918
 20
939.7553719707673
 30
0.0
  0
VERTEX
  5
626
  8
DEFAULT
 10
-667.7601028765371
 20
935.4790399490118
 30
0.0
  0
SEQEND
  5
627
  8
DEFAULT
  0
POLYLINE
  5
628
  8
DEFAULT
 66
     1
 10
0.0
 20
0.0
 30
0.0
 70
     1
  0
VERTEX
  5
629
  8
DEFAULT
 10
-651.7047620747317
 20
925.4713458895828
 30
0.0
  0
VERTEX
  5
62A
  8
DEFAULT
 10
-651.7047620747319
 20
919.4236991472067
 30
0.0
  0
VERTEX
  5
62B
  8
DEFAULT
 10
-647.4284300529766
 20
915.1473671254521
 30
0.0
  0
VERTEX
  5
62C
  8
DEFAULT
 10
-637.1044512888457
 20
925.4713458895828
 30
0.0
  0
SEQEND
  5
62D
  8
DEFAULT
  0
POLYLINE
  5
62E
  8
DEFAULT
 66
     1
 10
0.0
 20
0.0
 30
0.0
 70
     1
  0
VERTEX
  5
62F
  8
DEFAULT
 10
-622.8557399214258
 20
964.3280621023182
 30
0.0
  0
VERTEX
  5
630
  8
DEFAULT
 10
-640.2562270190199
 20
971.5355798500389
 30
0.0
  0
VERTEX
  5
631
  8
DEFAULT
 10
-651.7047620747317
 20
960.0870447943271
 30
0.0
  0
VERTEX
  5
632
  8
DEFAULT
 10
-651.7047620747312
 20
935.4790399490118
 30
0.0
  0
VERTEX
  5
633
  8
DEFAULT
 10
-627.0967572294164
 20
935.4790399490118
 30
0.0
  0
VERTEX
  5
634
  8
DEFAULT
 10
-615.6482221737042
 20
946.9275750047241
 30
0.0
  0
SEQEND
  5
635
  8
DEFAULT
  0
POLYLINE
  5
636
  8
DEFAULT
 66
     1
 10
0.0
 20
0.0
 30
0.0
 70
     1
  0
VERTEX
  5
637
  8
DEFAULT
 10
-576.3394662832468
 20
1000.836641681068
 30
0.0
  0
VERTEX
  5
638
  8
DEFAULT
 10
-576.3394662832466
 20
986.2363308951817
 30
0.0
  0
VERTEX
  5
639
  8
DEFAULT
 10
-566.0154875191156
 20
996.5603096593129
 30
0.0
  0
VERTEX
  5
63A
  8
DEFAULT
 10
-570.2918195408704
 20
1000.836641681068
 30
0.0
  0
SEQEND
  5
63B
  8
DEFAULT
  0
POLYLINE
  5
63C
  8
DEFAULT
 66
     1
 10
0.0
 20
0.0
 30
0.0
 70
     1
  0
VERTEX
  5
63D
  8
DEFAULT
 10
-590.6234923644308
 20
1021.168314504628
 30
0.0
  0
VERTEX
  5
63E
  8
DEFAULT
 10
-600.947471128562
 20
1010.844335740497
 30
0.0
  0
VERTEX
  5
63F
  8
DEFAULT
 10
-586.3471603426758
 20
1010.844335740497
 30
0.0
  0
VERTEX
  5
640
  8
DEFAULT
 10
-586.3471603426756
 20
1016.891982482873
 30
0.0
  0
SEQEND
  5
641
  8
DEFAULT
  0
POLYLINE
  5
642
  8
DEFAULT
 66
     1
 10
0.0
 20
0.0
 30
0.0
 70
     1
  0
VERTEX
  5
643
  8
DEFAULT
 10
-615.1961824959817
 20
971.9876195277621
 30
0.0
  0
VERTEX
  5
644
  8
DEFAULT
 10
-597.7956953983876
 20
964.7801017800409
 30
0.0
  0
VERTEX
  5
645
  8
DEFAULT
 10
-586.3471603426758
 20
976.2286368357527
 30
0.0
  0
VERTEX
  5
646
  8
DEFAULT
 10
-586.3471603426763
 20
1000.836641681067
 30
0.0
  0
VERTEX
  5
647
  8
DEFAULT
 10
-610.9551651879906
 20
1000.836641681067
 30
0.0
  0
VERTEX
  5
648
  8
DEFAULT
 10
-622.4037002437033
 20
989.3881066253557
 30
0.0
  0
SEQEND
  5
649
  8
DEFAULT
  0
POLYLINE
  5
64A
  8
DEFAULT
 66
     1
 10
0.0
 20
0.0
 30
0.0
 70
     1
  0
VERTEX
  5
64B
  8
DEFAULT
 10
-729.9540215456643
 20
977.4037445241815
 30
0.0
  0
VERTEX
  5
64C
  8
DEFAULT
 10
-724.0173061868661
 20
991.7362432593409
 30
0.0
  0
VERTEX
  5
64D
  8
DEFAULT
 10
-733.1177046085929
 20
1000.836641681067
 30
0.0
  0
VERTEX
  5
64E
  8
DEFAULT
 10
-720.2477977375881
 20
1000.836641681067
 30
0.0
  0
VERTEX
  5
64F
  8
DEFAULT
 10
-711.5248477502663
 20
1021.895705844362
 30
0.0
  0
VERTEX
  5
650
  8
DEFAULT
 10
-706.5211243887773
 20
1016.891982482874
 30
0.0
  0
VERTEX
  5
651
  8
DEFAULT
 10
-706.5211243887777
 20
1000.836641681068
 30
0.0
  0
VERTEX
  5
652
  8
DEFAULT
 10
-690.4657835869718
 20
1000.836641681067
 30
0.0
  0
VERTEX
  5
653
  8
DEFAULT
 10
-685.4620602254842
 20
995.8329183195791
 30
0.0
  0
VERTEX
  5
654
  8
DEFAULT
 10
-706.5211243887782
 20
987.1099683322573
 30
0.0
  0
VERTEX
  5
655
  8
DEFAULT
 10
-706.5211243887779
 20
974.2400614612529
 30
0.0
  0
VERTEX
  5
656
  8
DEFAULT
 10
-715.6215228105045
 20
983.3404598829795
 30
0.0
  0
SEQEND
  5
657
  8
DEFAULT
  0
POLYLINE
  5
658
  8
DEFAULT
 66
     1
 10
0.0
 20
0.0
 30
0.0
 70
     1
  0
VERTEX
  5
659
  8
DEFAULT
 10
-805.636024271586
 20
940.4827633105011
 30
0.0
  0
VERTEX
  5
65A
  8
DEFAULT
 10
-810.6397476330734
 20
935.4790399490123
 30
0.0
  0
VERTEX
  5
65B
  8
DEFAULT
 10
-826.6950884348802
 20
935.4790399490128
 30
0.0
  0
VERTEX
  5
65C
  8
DEFAULT
 10
-826.6950884348792
 20
919.4236991472076
 30
0.0
  0
VERTEX
  5
65D
  8
DEFAULT
 10
-831.6988117963687
 20
914.4199757857186
 30
0.0
  0
VERTEX
  5
65E
  8
DEFAULT
 10
-840.4217617836903
 20
935.4790399490123
 30
0.0
  0
VERTEX
  5
65F
  8
DEFAULT
 10
-853.2916686546946
 20
935.4790399490123
 30
0.0
  0
VERTEX
  5
660
  8
DEFAULT
 10
-844.191270232968
 20
944.5794383707389
 30
0.0
  0
VERTEX
  5
661
  8
DEFAULT
 10
-850.1279855917662
 20
958.9119371058987
 30
0.0
  0
VERTEX
  5
662
  8
DEFAULT
 10
-835.7954868566064
 20
952.9752217471002
 30
0.0
  0
VERTEX
  5
663
  8
DEFAULT
 10
-826.6950884348798
 20
962.0756201688268
 30
0.0
  0
VERTEX
  5
664
  8
DEFAULT
 10
-826.6950884348798
 20
949.2057132978225
 30
0.0
  0
SEQEND
  5
665
  8
DEFAULT
  0
POLYLINE
  5
666
  8
DEFAULT
 66
     1
 10
0.0
 20
0.0
 30
0.0
 70
     1
  0
VERTEX
  5
667
  8
DEFAULT
 10
-868.6197930100489
 20
977.4037445241811
 30
0.0
  0
VERTEX
  5
668
  8
DEFAULT
 10
-882.9522917452091
 20
983.3404598829795
 30
0.0
  0
VERTEX
  5
669
  8
DEFAULT
 10
-892.0526901669357
 20
974.2400614612529
 30
0.0
  0
VERTEX
  5
66A
  8
DEFAULT
 10
-892.0526901669355
 20
987.1099683322577
 30
0.0
  0
VERTEX
  5
66B
  8
DEFAULT
 10
-913.1117543302294
 20
995.8329183195796
 30
0.0
  0
VERTEX
  5
66C
  8
DEFAULT
 10
-908.108030968742
 20
1000.836641681067
 30
0.0
  0
VERTEX
  5
66D
  8
DEFAULT
 10
-892.0526901669349
 20
1000.836641681067
 30
0.0
  0
VERTEX
  5
66E
  8
DEFAULT
 10
-892.0526901669364
 20
1016.891982482872
 30
0.0
  0
VERTEX
  5
66F
  8
DEFAULT
 10
-887.048966805447
 20
1021.895705844362
 30
0.0
  0
VERTEX
  5
670
  8
DEFAULT
 10
-878.3260168181253
 20
1000.836641681067
 30
0.0
  0
VERTEX
  5
671
  8
DEFAULT
 10
-865.4561099471208
 20
1000.836641681067
 30
0.0
  0
VERTEX
  5
672
  8
DEFAULT
 10
-874.5565083688471
 20
991.7362432593409
 30
0.0
  0
SEQEND
  5
673
  8
DEFAULT
  0
POLYLINE
  5
674
  8
DEFAULT
 66
     1
 10
0.0
 20
0.0
 30
0.0
 70
     1
  0
VERTEX
  5
675
  8
DEFAULT
 10
-766.8750027593452
 20
914.4199757857181
 30
0.0
  0
VERTEX
  5
676
  8
DEFAULT
 10
-771.878726120834
 20
919.4236991472059
 30
0.0
  0
VERTEX
  5
677
  8
DEFAULT
 10
-771.8787261208336
 20
935.4790399490129
 30
0.0
  0
VERTEX
  5
678
  8
DEFAULT
 10
-787.9340669226383
 20
935.4790399490114
 30
0.0
  0
VERTEX
  5
679
  8
DEFAULT
 10
-792.9377902841275
 20
940.4827633105008
 30
0.0
  0
VERTEX
  5
67A
  8
DEFAULT
 10
-771.8787261208336
 20
949.2057132978225
 30
0.0
  0
VERTEX
  5
67B
  8
DEFAULT
 10
-771.8787261208336
 20
962.0756201688268
 30
0.0
  0
VERTEX
  5
67C
  8
DEFAULT
 10
-762.778327699107
 20
952.9752217471002
 30
0.0
  0
VERTEX
  5
67D
  8
DEFAULT
 10
-748.4458289639472
 20
958.9119371058987
 30
0.0
  0
VERTEX
  5
67E
  8
DEFAULT
 10
-754.3825443227456
 20
944.5794383707384
 30
0.0
  0
VERTEX
  5
67F
  8
DEFAULT
 10
-745.282145901019
 20
935.4790399490118
 30
0.0
  0
VERTEX
  5
680
  8
DEFAULT
 10
-758.1520527720238
 20
935.4790399490118
 30
0.0
  0
SEQEND
  5
681
  8
DEFAULT
  0
POLYLINE
  5
682
  8
DEFAULT
 66
     1
 10
0.0
 20
0.0
 30
0.0
 70
     1
  0
VERTEX
  5
683
  8
DEFAULT
 10
-902.0603842263647
 20
935.4790399490118
 30
0.0
  0
VERTEX
  5
684
  8
DEFAULT
 10
-902.0603842263647
 20
950.0793507348985
 30
0.0
  0
VERTEX
  5
685
  8
DEFAULT
 10
-912.3843629904958
 20
939.7553719707673
 30
0.0
  0
VERTEX
  5
686
  8
DEFAULT
 10
-908.1080309687411
 20
935.4790399490118
 30
0.0
  0
SEQEND
  5
687
  8
DEFAULT
  0
POLYLINE
  5
688
  8
DEFAULT
 66
     1
 10
0.0
 20
0.0
 30
0.0
 70
     1
  0
VERTEX
  5
689
  8
DEFAULT
 10
-892.0526901669357
 20
925.4713458895828
 30
0.0
  0
VERTEX
  5
68A
  8
DEFAULT
 10
-892.0526901669359
 20
919.4236991472067
 30
0.0
  0
VERTEX
  5
68B
  8
DEFAULT
 10
-887.7763581451807
 20
915.1473671254521
 30
0.0
  0
VERTEX
  5
68C
  8
DEFAULT
 10
-877.4523793810497
 20
925.4713458895828
 30
0.0
  0
SEQEND
  5
68D
  8
DEFAULT
  0
POLYLINE
  5
68E
  8
DEFAULT
 66
     1
 10
0.0
 20
0.0
 30
0.0
 70
     1
  0
VERTEX
  5
68F
  8
DEFAULT
 10
-863.2036680136298
 20
964.3280621023182
 30
0.0
  0
VERTEX
  5
690
  8
DEFAULT
 10
-880.6041551112239
 20
971.5355798500389
 30
0.0
  0
VERTEX
  5
691
  8
DEFAULT
 10
-892.0526901669357
 20
960.0870447943271
 30
0.0
  0
VERTEX
  5
692
  8
DEFAULT
 10
-892.0526901669352
 20
935.4790399490118
 30
0.0
  0
VERTEX
  5
693
  8
DEFAULT
 10
-867.4446853216205
 20
935.4790399490118
 30
0.0
  0
VERTEX
  5
694
  8
DEFAULT
 10
-855.9961502659082
 20
946.9275750047241
 30
0.0
  0
SEQEND
  5
695
  8
DEFAULT
  0
POLYLINE
  5
696
  8
DEFAULT
 66
     1
 10
0.0
 20
0.0
 30
0.0
 70
     1
  0
VERTEX
  5
697
  8
DEFAULT
 10
-767.6023940990788
 20
1021.168314504628
 30
0.0
  0
VERTEX
  5
698
  8
DEFAULT
 10
-771.8787261208338
 20
1016.891982482873
 30
0.0
  0
VERTEX
  5
699
  8
DEFAULT
 10
-771.8787261208336
 20
1010.844335740497
 30
0.0
  0
VERTEX
  5
69A
  8
DEFAULT
 10
-757.2784153349478
 20
1010.844335740497
 30
0.0
  0
SEQEND
  5
69B
  8
DEFAULT
  0
POLYLINE
  5
69C
  8
DEFAULT
 66
     1
 10
0.0
 20
0.0
 30
0.0
 70
     1
  0
VERTEX
  5
69D
  8
DEFAULT
 10
-792.210398944394
 20
996.5603096593129
 30
0.0
  0
VERTEX
  5
69E
  8
DEFAULT
 10
-781.8864201802628
 20
986.2363308951817
 30
0.0
  0
VERTEX
  5
69F
  8
DEFAULT
 10
-781.886420180263
 20
1000.836641681068
 30
0.0
  0
VERTEX
  5
6A0
  8
DEFAULT
 10
-787.9340669226392
 20
1000.836641681068
 30
0.0
  0
SEQEND
  5
6A1
  8
DEFAULT
  0
POLYLINE
  5
6A2
  8
DEFAULT
 66
     1
 10
0.0
 20
0.0
 30
0.0
 70
     1
  0
VERTEX
  5
6A3
  8
DEFAULT
 10
-816.6873943754508
 20
1000.836641681068
 30
0.0
  0
VERTEX
  5
6A4
  8
DEFAULT
 10
-816.6873943754506
 20
986.2363308951817
 30
0.0
  0
VERTEX
  5
6A5
  8
DEFAULT
 10
-806.3634156113196
 20
996.5603096593129
 30
0.0
  0
VERTEX
  5
6A6
  8
DEFAULT
 10
-810.6397476330744
 20
1000.836641681068
 30
0.0
  0
SEQEND
  5
6A7
  8
DEFAULT
  0
POLYLINE
  5
6A8
  8
DEFAULT
 66
     1
 10
0.0
 20
0.0
 30
0.0
 70
     1
  0
VERTEX
  5
6A9
  8
DEFAULT
 10
-830.9714204566349
 20
1021.168314504628
 30
0.0
  0
VERTEX
  5
6AA
  8
DEFAULT
 10
-841.2953992207661
 20
1010.844335740497
 30
0.0
  0
VERTEX
  5
6AB
  8
DEFAULT
 10
-826.6950884348798
 20
1010.844335740497
 30
0.0
  0
VERTEX
  5
6AC
  8
DEFAULT
 10
-826.6950884348798
 20
1016.891982482873
 30
0.0
  0
SEQEND
  5
6AD
  8
DEFAULT
  0
POLYLINE
  5
6AE
  8
DEFAULT
 66
     1
 10
0.0
 20
0.0
 30
0.0
 70
     1
  0
VERTEX
  5
6AF
  8
DEFAULT
 10
-743.0297039675277
 20
971.9876195277621
 30
0.0
  0
VERTEX
  5
6B0
  8
DEFAULT
 10
-735.8221862198068
 20
989.3881066253557
 30
0.0
  0
VERTEX
  5
6B1
  8
DEFAULT
 10
-747.2707212755186
 20
1000.836641681068
 30
0.0
  0
VERTEX
  5
6B2
  8
DEFAULT
 10
-771.8787261208336
 20
1000.836641681067
 30
0.0
  0
VERTEX
  5
6B3
  8
DEFAULT
 10
-771.8787261208336
 20
976.2286368357527
 30
0.0
  0
VERTEX
  5
6B4
  8
DEFAULT
 10
-760.4301910651218
 20
964.7801017800405
 30
0.0
  0
SEQEND
  5
6B5
  8
DEFAULT
  0
POLYLINE
  5
6B6
  8
DEFAULT
 66
     1
 10
0.0
 20
0.0
 30
0.0
 70
     1
  0
VERTEX
  5
6B7
  8
DEFAULT
 10
-799.2869072778567
 20
948.6851229354431
 30
0.0
  0
VERTEX
  5
6B8
  8
DEFAULT
 10
-781.886420180263
 20
955.8926406831648
 30
0.0
  0
VERTEX
  5
6B9
  8
DEFAULT
 10
-781.886420180263
 20
972.0833142282563
 30
0.0
  0
VERTEX
  5
6BA
  8
DEFAULT
 10
-799.2869072778569
 20
989.48380132585
 30
0.0
  0
VERTEX
  5
6BB
  8
DEFAULT
 10
-816.6873943754504
 20
972.0833142282563
 30
0.0
  0
VERTEX
  5
6BC
  8
DEFAULT
 10
-816.6873943754506
 20
955.8926406831647
 30
0.0
  0
SEQEND
  5
6BD
  8
DEFAULT
  0
POLYLINE
  5
6BE
  8
DEFAULT
 66
     1
 10
0.0
 20
0.0
 30
0.0
 70
     1
  0
VERTEX
  5
6BF
  8
DEFAULT
 10
-855.5441105881857
 20
971.9876195277621
 30
0.0
  0
VERTEX
  5
6C0
  8
DEFAULT
 10
-838.1436234905916
 20
964.7801017800409
 30
0.0
  0
VERTEX
  5
6C1
  8
DEFAULT
 10
-826.6950884348798
 20
976.2286368357527
 30
0.0
  0
VERTEX
  5
6C2
  8
DEFAULT
 10
-826.6950884348803
 20
1000.836641681067
 30
0.0
  0
VERTEX
  5
6C3
  8
DEFAULT
 10
-851.3030932801946
 20
1000.836641681067
 30
0.0
  0
VERTEX
  5
6C4
  8
DEFAULT
 10
-862.7516283359073
 20
989.3881066253557
 30
0.0
  0
SEQEND
  5
6C5
  8
DEFAULT
  0
POLYLINE
  5
6C6
  8
DEFAULT
 66
     1
 10
0.0
 20
0.0
 30
0.0
 70
     1
  0
VERTEX
  5
6C7
  8
DEFAULT
 10
-706.5211243887779
 20
925.4713458895828
 30
0.0
  0
VERTEX
  5
6C8
  8
DEFAULT
 10
-721.1214351746644
 20
925.4713458895828
 30
0.0
  0
VERTEX
  5
6C9
  8
DEFAULT
 10
-710.7974564105332
 20
915.1473671254521
 30
0.0
  0
VERTEX
  5
6CA
  8
DEFAULT
 10
-706.5211243887779
 20
919.4236991472067
 30
0.0
  0
SEQEND
  5
6CB
  8
DEFAULT
  0
POLYLINE
  5
6CC
  8
DEFAULT
 66
     1
 10
0.0
 20
0.0
 30
0.0
 70
     1
  0
VERTEX
  5
6CD
  8
DEFAULT
 10
-696.5134303293487
 20
935.4790399490118
 30
0.0
  0
VERTEX
  5
6CE
  8
DEFAULT
 10
-690.4657835869727
 20
935.4790399490118
 30
0.0
  0
VERTEX
  5
6CF
  8
DEFAULT
 10
-686.1894515652177
 20
939.7553719707669
 30
0.0
  0
VERTEX
  5
6D0
  8
DEFAULT
 10
-696.5134303293487
 20
950.0793507348981
 30
0.0
  0
SEQEND
  5
6D1
  8
DEFAULT
  0
POLYLINE
  5
6D2
  8
DEFAULT
 66
     1
 10
0.0
 20
0.0
 30
0.0
 70
     1
  0
VERTEX
  5
6D3
  8
DEFAULT
 10
-735.3701465420838
 20
964.3280621023177
 30
0.0
  0
VERTEX
  5
6D4
  8
DEFAULT
 10
-742.5776642898049
 20
946.9275750047236
 30
0.0
  0
VERTEX
  5
6D5
  8
DEFAULT
 10
-731.1291292340932
 20
935.4790399490118
 30
0.0
  0
VERTEX
  5
6D6
  8
DEFAULT
 10
-706.5211243887779
 20
935.4790399490123
 30
0.0
  0
VERTEX
  5
6D7
  8
DEFAULT
 10
-706.5211243887777
 20
960.0870447943271
 30
0.0
  0
VERTEX
  5
6D8
  8
DEFAULT
 10
-717.9696594444897
 20
971.5355798500393
 30
0.0
  0
SEQEND
  5
6D9
  8
DEFAULT
  0
POLYLINE
  5
6DA
  8
DEFAULT
 66
     1
 10
0.0
 20
0.0
 30
0.0
 70
     1
  0
VERTEX
  5
6DB
  8
DEFAULT
 10
-970.3019496378683
 20
977.4037445241815
 30
0.0
  0
VERTEX
  5
6DC
  8
DEFAULT
 10
-964.3652342790701
 20
991.7362432593409
 30
0.0
  0
VERTEX
  5
6DD
  8
DEFAULT
 10
-973.465632700797
 20
1000.836641681067
 30
0.0
  0
VERTEX
  5
6DE
  8
DEFAULT
 10
-960.5957258297922
 20
1000.836641681067
 30
0.0
  0
VERTEX
  5
6DF
  8
DEFAULT
 10
-951.8727758424703
 20
1021.895705844362
 30
0.0
  0
VERTEX
  5
6E0
  8
DEFAULT
 10
-946.8690524809813
 20
1016.891982482874
 30
0.0
  0
VERTEX
  5
6E1
  8
DEFAULT
 10
-946.8690524809817
 20
1000.836641681068
 30
0.0
  0
VERTEX
  5
6E2
  8
DEFAULT
 10
-930.8137116791759
 20
1000.836641681067
 30
0.0
  0
VERTEX
  5
6E3
  8
DEFAULT
 10
-925.8099883176882
 20
995.8329183195791
 30
0.0
  0
VERTEX
  5
6E4
  8
DEFAULT
 10
-946.8690524809822
 20
987.1099683322573
 30
0.0
  0
VERTEX
  5
6E5
  8
DEFAULT
 10
-946.8690524809821
 20
974.2400614612529
 30
0.0
  0
VERTEX
  5
6E6
  8
DEFAULT
 10
-955.9694509027087
 20
983.3404598829795
 30
0.0
  0
SEQEND
  5
6E7
  8
DEFAULT
  0
POLYLINE
  5
6E8
  8
DEFAULT
 66
     1
 10
0.0
 20
0.0
 30
0.0
 70
     1
  0
VERTEX
  5
6E9
  8
DEFAULT
 10
-1007.222930851549
 20
914.4199757857181
 30
0.0
  0
VERTEX
  5
6EA
  8
DEFAULT
 10
-1012.226654213038
 20
919.4236991472059
 30
0.0
  0
VERTEX
  5
6EB
  8
DEFAULT
 10
-1012.226654213038
 20
935.4790399490129
 30
0.0
  0
VERTEX
  5
6EC
  8
DEFAULT
 10
-1028.281995014843
 20
935.4790399490114
 30
0.0
  0
VERTEX
  5
6ED
  8
DEFAULT
 10
-1033.285718376331
 20
940.4827633105008
 30
0.0
  0
VERTEX
  5
6EE
  8
DEFAULT
 10
-1012.226654213038
 20
949.2057132978225
 30
0.0
  0
VERTEX
  5
6EF
  8
DEFAULT
 10
-1012.226654213038
 20
962.0756201688268
 30
0.0
  0
VERTEX
  5
6F0
  8
DEFAULT
 10
-1003.126255791311
 20
952.9752217471002
 30
0.0
  0
VERTEX
  5
6F1
  8
DEFAULT
 10
-988.7937570561511
 20
958.9119371058987
 30
0.0
  0
VERTEX
  5
6F2
  8
DEFAULT
 10
-994.7304724149495
 20
944.5794383707386
 30
0.0
  0
VERTEX
  5
6F3
  8
DEFAULT
 10
-985.630073993223
 20
935.4790399490118
 30
0.0
  0
VERTEX
  5
6F4
  8
DEFAULT
 10
-998.4999808642278
 20
935.4790399490118
 30
0.0
  0
SEQEND
  5
6F5
  8
DEFAULT
  0
POLYLINE
  5
6F6
  8
DEFAULT
 66
     1
 10
0.0
 20
0.0
 30
0.0
 70
     1
  0
VERTEX
  5
6F7
  8
DEFAULT
 10
-1007.950322191283
 20
1021.168314504628
 30
0.0
  0
VERTEX
  5
6F8
  8
DEFAULT
 10
-1012.226654213038
 20
1016.891982482873
 30
0.0
  0
VERTEX
  5
6F9
  8
DEFAULT
 10
-1012.226654213038
 20
1010.844335740497
 30
0.0
  0
VERTEX
  5
6FA
  8
DEFAULT
 10
-997.6263434271518
 20
1010.844335740497
 30
0.0
  0
SEQEND
  5
6FB
  8
DEFAULT
  0
POLYLINE
  5
6FC
  8
DEFAULT
 66
     1
 10
0.0
 20
0.0
 30
0.0
 70
     1
  0
VERTEX
  5
6FD
  8
DEFAULT
 10
-1032.558327036598
 20
996.5603096593129
 30
0.0
  0
VERTEX
  5
6FE
  8
DEFAULT
 10
-1022.234348272467
 20
986.2363308951817
 30
0.0
  0
VERTEX
  5
6FF
  8
DEFAULT
 10
-1022.234348272467
 20
1000.836641681068
 30
0.0
  0
VERTEX
  5
700
  8
DEFAULT
 10
-1028.281995014843
 20
1000.836641681068
 30
0.0
  0
SEQEND
  5
701
  8
DEFAULT
  0
POLYLINE
  5
702
  8
DEFAULT
 66
     1
 10
0.0
 20
0.0
 30
0.0
 70
     1
  0
VERTEX
  5
703
  8
DEFAULT
 10
-983.3776320597318
 20
971.987619527762
 30
0.0
  0
VERTEX
  5
704
  8
DEFAULT
 10
-976.1701143120108
 20
989.3881066253557
 30
0.0
  0
VERTEX
  5
705
  8
DEFAULT
 10
-987.6186493677226
 20
1000.836641681068
 30
0.0
  0
VERTEX
  5
706
  8
DEFAULT
 10
-1012.226654213038
 20
1000.836641681067
 30
0.0
  0
VERTEX
  5
707
  8
DEFAULT
 10
-1012.226654213038
 20
976.2286368357527
 30
0.0
  0
VERTEX
  5
708
  8
DEFAULT
 10
-1000.778119157326
 20
964.7801017800405
 30
0.0
  0
SEQEND
  5
709
  8
DEFAULT
  0
POLYLINE
  5
70A
  8
DEFAULT
 66
     1
 10
0.0
 20
0.0
 30
0.0
 70
     1
  0
VERTEX
  5
70B
  8
DEFAULT
 10
-946.869052480982
 20
925.4713458895828
 30
0.0
  0
VERTEX
  5
70C
  8
DEFAULT
 10
-961.4693632668684
 20
925.4713458895828
 30
0.0
  0
VERTEX
  5
70D
  8
DEFAULT
 10
-951.1453845027372
 20
915.1473671254521
 30
0.0
  0
VERTEX
  5
70E
  8
DEFAULT
 10
-946.869052480982
 20
919.4236991472067
 30
0.0
  0
SEQEND
  5
70F
  8
DEFAULT
  0
POLYLINE
  5
710
  8
DEFAULT
 66
     1
 10
0.0
 20
0.0
 30
0.0
 70
     1
  0
VERTEX
  5
711
  8
DEFAULT
 10
-936.8613584215527
 20
935.4790399490118
 30
0.0
  0
VERTEX
  5
712
  8
DEFAULT
 10
-930.8137116791768
 20
935.4790399490118
 30
0.0
  0
VERTEX
  5
713
  8
DEFAULT
 10
-926.5373796574218
 20
939.7553719707669
 30
0.0
  0
VERTEX
  5
714
  8
DEFAULT
 10
-936.8613584215527
 20
950.0793507348981
 30
0.0
  0
SEQEND
  5
715
  8
DEFAULT
  0
POLYLINE
  5
716
  8
DEFAULT
 66
     1
 10
0.0
 20
0.0
 30
0.0
 70
     1
  0
VERTEX
  5
717
  8
DEFAULT
 10
-975.7180746342879
 20
964.3280621023177
 30
0.0
  0
VERTEX
  5
718
  8
DEFAULT
 10
-982.9255923820089
 20
946.9275750047236
 30
0.0
  0
VERTEX
  5
719
  8
DEFAULT
 10
-971.4770573262971
 20
935.4790399490118
 30
0.0
  0
VERTEX
  5
71A
  8
DEFAULT
 10
-946.869052480982
 20
935.4790399490123
 30
0.0
  0
VERTEX
  5
71B
  8
DEFAULT
 10
-946.8690524809817
 20
960.0870447943271
 30
0.0
  0
VERTEX
  5
71C
  8
DEFAULT
 10
-958.3175875366938
 20
971.5355798500393
 30
0.0
  0
SEQEND
  5
71D
  8
DEFAULT
  0
ENDSEC
  0
EOF
