  0
SECTION
  2
HEADER
  9
$ACADVER
  1
AC1009
  9
$DWGCODEPAGE
  3
ansi_1252
  9
$INSBASE
 10
0.0
 20
0.0
 30
0.0
  9
$EXTMIN
 10
1.000000000000000E+20
 20
1.000000000000000E+20
 30
1.000000000000000E+20
  9
$EXTMAX
 10
-1.000000000000000E+20
 20
-1.000000000000000E+20
 30
-1.000000000000000E+20
  9
$LIMMIN
 10
0.0
 20
0.0
  9
$LIMMAX
 10
12.0
 20
9.0
  9
$ORTHOMODE
 70
     0
  9
$REGENMODE
 70
     1
  9
$FILLMODE
 70
     1
  9
$QTEXTMODE
 70
     0
  9
$MIRRTEXT
 70
     1
  9
$DRAGMODE
 70
     2
  9
$LTSCALE
 40
1.0
  9
$OSMODE
 70
    37
  9
$ATTMODE
 70
     1
  9
$TEXTSIZE
 40
0.2
  9
$TRACEWID
 40
0.05
  9
$TEXTSTYLE
  7
STANDARD
  9
$CLAYER
  8
LAYER_05
  9
$CELTYPE
  6
BYLAYER
  9
$CECOLOR
 62
   256
  9
$DIMSCALE
 40
1.0
  9
$DIMASZ
 40
0.18
  9
$DIMEXO
 40
0.0625
  9
$DIMDLI
 40
0.38
  9
$DIMRND
 40
0.0
  9
$DIMDLE
 40
0.0
  9
$DIMEXE
 40
0.18
  9
$DIMTP
 40
0.0
  9
$DIMTM
 40
0.0
  9
$DIMTXT
 40
0.18
  9
$DIMCEN
 40
0.09
  9
$DIMTSZ
 40
0.0
  9
$DIMTOL
 70
     0
  9
$DIMLIM
 70
     0
  9
$DIMTIH
 70
     1
  9
$DIMTOH
 70
     1
  9
$DIMSE1
 70
     0
  9
$DIMSE2
 70
     0
  9
$DIMTAD
 70
     0
  9
$DIMZIN
 70
     0
  9
$DIMBLK
  1

  9
$DIMASO
 70
     1
  9
$DIMSHO
 70
     1
  9
$DIMPOST
  1

  9
$DIMAPOST
  1

  9
$DIMALT
 70
     0
  9
$DIMALTD
 70
     2
  9
$DIMALTF
 40
25.4
  9
$DIMLFAC
 40
1.0
  9
$DIMTOFL
 70
     0
  9
$DIMTVP
 40
0.0
  9
$DIMTIX
 70
     0
  9
$DIMSOXD
 70
     0
  9
$DIMSAH
 70
     0
  9
$DIMBLK1
  1

  9
$DIMBLK2
  1

  9
$DIMSTYLE
  2
STANDARD_ACAD
  9
$DIMCLRD
 70
     0
  9
$DIMCLRE
 70
     0
  9
$DIMCLRT
 70
     0
  9
$DIMTFAC
 40
1.0
  9
$DIMGAP
 40
0.09
  9
$LUNITS
 70
     2
  9
$LUPREC
 70
     3
  9
$SKETCHINC
 40
0.1
  9
$FILLETRAD
 40
0.5
  9
$AUNITS
 70
     0
  9
$AUPREC
 70
     0
  9
$MENU
  1
.
  9
$ELEVATION
 40
0.0
  9
$PELEVATION
 40
0.0
  9
$THICKNESS
 40
0.0
  9
$LIMCHECK
 70
     0
  9
$CHAMFERA
 40
0.0
  9
$CHAMFERB
 40
0.0
  9
$SKPOLY
 70
     0
  9
$TDCREATE
 40
2460234.762440278
  9
$TDUPDATE
 40
2460234.762440451
  9
$TDINDWG
 40
0.0000000116
  9
$TDUSRTIMER
 40
0.0000000116
  9
$USRTIMER
 70
     1
  9
$ANGBASE
 50
0.0
  9
$ANGDIR
 70
     0
  9
$PDMODE
 70
     0
  9
$PDSIZE
 40
0.0
  9
$PLINEWID
 40
0.0
  9
$COORDS
 70
     1
  9
$SPLFRAME
 70
     0
  9
$SPLINETYPE
 70
     6
  9
$SPLINESEGS
 70
     8
  9
$ATTDIA
 70
     0
  9
$ATTREQ
 70
     1
  9
$HANDLING
 70
     1
  9
$HANDSEED
  5
2A6
  9
$SURFTAB1
 70
     6
  9
$SURFTAB2
 70
     6
  9
$SURFTYPE
 70
     6
  9
$SURFU
 70
     6
  9
$SURFV
 70
     6
  9
$UCSNAME
  2

  9
$UCSORG
 10
0.0
 20
0.0
 30
0.0
  9
$UCSXDIR
 10
1.0
 20
0.0
 30
0.0
  9
$UCSYDIR
 10
0.0
 20
1.0
 30
0.0
  9
$PUCSNAME
  2

  9
$PUCSORG
 10
0.0
 20
0.0
 30
0.0
  9
$PUCSXDIR
 10
1.0
 20
0.0
 30
0.0
  9
$PUCSYDIR
 10
0.0
 20
1.0
 30
0.0
  9
$USERI1
 70
     0
  9
$USERI2
 70
     0
  9
$USERI3
 70
     0
  9
$USERI4
 70
     0
  9
$USERI5
 70
     0
  9
$USERR1
 40
0.0
  9
$USERR2
 40
0.0
  9
$USERR3
 40
0.0
  9
$USERR4
 40
0.0
  9
$USERR5
 40
0.0
  9
$WORLDVIEW
 70
     1
  9
$SHADEDGE
 70
     3
  9
$SHADEDIF
 70
    70
  9
$TILEMODE
 70
     1
  9
$MAXACTVP
 70
    64
  9
$PLIMCHECK
 70
     0
  9
$PEXTMIN
 10
1.000000000000000E+20
 20
1.000000000000000E+20
 30
1.000000000000000E+20
  9
$PEXTMAX
 10
-1.000000000000000E+20
 20
-1.000000000000000E+20
 30
-1.000000000000000E+20
  9
$PLIMMIN
 10
0.0
 20
0.0
  9
$PLIMMAX
 10
12.0
 20
9.0
  9
$UNITMODE
 70
     0
  9
$VISRETAIN
 70
     1
  9
$PLINEGEN
 70
     0
  9
$PSLTSCALE
 70
     1
  0
ENDSEC
  0
SECTION
  2
TABLES
  0
TABLE
  2
VPORT
 70
     1
  0
VPORT
  2
*ACTIVE
 70
     0
 10
0.0
 20
0.0
 11
1.0
 21
1.0
 12
10.42990654205607
 22
4.5
 13
0.0
 23
0.0
 14
0.5
 24
0.5
 15
0.5
 25
0.5
 16
0.0
 26
0.0
 36
1.0
 17
0.0
 27
0.0
 37
0.0
 40
9.0
 41
1.972972972850329
 42
50.0
 43
0.0
 44
0.0
 50
0.0
 51
0.0
 71
     0
 72
   100
 73
     1
 74
     3
 75
     0
 76
     0
 77
     0
 78
     0
  0
ENDTAB
  0
TABLE
  2
LTYPE
 70
     1
  0
LTYPE
  2
CONTINUOUS
 70
     0
  3
Solid line
 72
    65
 73
     0
 40
0.0
  0
ENDTAB
  0
TABLE
  2
LAYER
 70
     2
  0
LAYER
  2
0
 70
     0
 62
     7
  6
CONTINUOUS
  0
LAYER
  2
LAYER_05
 70
     0
 62
     5
  6
CONTINUOUS
  0
ENDTAB
  0
TABLE
  2
STYLE
 70
     1
  0
STYLE
  2
STANDARD
 70
     0
 40
0.0
 41
1.0
 50
0.0
 71
     0
 42
0.2
  3
txt
  4

  0
ENDTAB
  0
TABLE
  2
VIEW
 70
     0
  0
ENDTAB
  0
TABLE
  2
UCS
 70
     0
  0
ENDTAB
  0
TABLE
  2
APPID
 70
     2
  0
APPID
  2
ACAD
 70
     0
  0
APPID
  2
RHINO
 70
     0
  0
ENDTAB
  0
TABLE
  2
DIMSTYLE
 70
     1
  0
DIMSTYLE
  2
STANDARD_ACAD
 70
     0
  3

  4

  5

  6

  7

 40
1.0
 41
0.18
 42
0.0625
 43
0.38
 44
0.18
 45
0.0
 46
0.0
 47
0.0
 48
0.0
140
0.18
141
0.09
142
0.0
143
25.4
144
1.0
145
0.0
146
1.0
147
0.09
 71
     0
 72
     0
 73
     1
 74
     1
 75
     0
 76
     0
 77
     0
 78
     0
170
     0
171
     2
172
     0
173
     0
174
     0
175
     0
176
     0
177
     0
178
     0
  0
ENDTAB
  0
ENDSEC
  0
SECTION
  2
BLOCKS
  0
BLOCK
  8
0
  2
$MODEL_SPACE
 70
     0
 10
0.0
 20
0.0
 30
0.0
  3
$MODEL_SPACE
  1

  0
ENDBLK
  5
21
  8
0
  0
BLOCK
 67
     1
  8
0
  2
$PAPER_SPACE
 70
     0
 10
0.0
 20
0.0
 30
0.0
  3
$PAPER_SPACE
  1

  0
ENDBLK
  5
1D
 67
     1
  8
0
  0
ENDSEC
  0
SECTION
  2
ENTITIES
  0
CIRCLE
  5
70
  8
LAYER_05
 10
-2024.834834909011
 20
1945.700458582969
 30
0.0
 40
30.69154271196703
210
0.0
220
0.0
230
-1.0
  0
POLYLINE
  5
71
  8
LAYER_05
 66
     1
 10
0.0
 20
0.0
 30
0.0
 70
     1
  0
VERTEX
  5
72
  8
LAYER_05
 10
1254.274013441723
 20
1700.018901260566
 30
0.0
  0
VERTEX
  5
73
  8
LAYER_05
 10
2795.395656376299
 20
1700.018901260566
 30
0.0
  0
VERTEX
  5
74
  8
LAYER_05
 10
2795.395656376299
 20
2191.38201590537
 30
0.0
  0
VERTEX
  5
75
  8
LAYER_05
 10
1254.274013441723
 20
2191.38201590537
 30
0.0
  0
SEQEND
  5
76
  8
LAYER_05
  0
POLYLINE
  5
77
  8
LAYER_05
 66
     1
 10
0.0
 20
0.0
 30
0.0
 70
     1
  0
VERTEX
  5
78
  8
LAYER_05
 10
1266.774013441723
 20
1712.518901260566
 30
0.0
  0
VERTEX
  5
79
  8
LAYER_05
 10
2782.895656376299
 20
1712.518901260566
 30
0.0
  0
VERTEX
  5
7A
  8
LAYER_05
 10
2782.895656376299
 20
2178.88201590537
 30
0.0
  0
VERTEX
  5
7B
  8
LAYER_05
 10
1266.774013441723
 20
2178.88201590537
 30
0.0
  0
SEQEND
  5
7C
  8
LAYER_05
  0
POLYLINE
  5
7D
  8
LAYER_05
 66
     1
 10
0.0
 20
0.0
 30
0.0
 70
     1
  0
VERTEX
  5
7E
  8
LAYER_05
 10
2425.914469878165
 20
1712.518901260567
 30
0.0
  0
VERTEX
  5
7F
  8
LAYER_05
 10
2416.365245642655
 20
1739.371685518727
 30
0.0
  0
VERTEX
  5
80
  8
LAYER_05
 10
2416.365245642655
 20
1712.518901260567
 30
0.0
  0
SEQEND
  5
81
  8
LAYER_05
  0
POLYLINE
  5
82
  8
LAYER_05
 66
     1
 10
0.0
 20
0.0
 30
0.0
 70
     1
  0
VERTEX
  5
83
  8
LAYER_05
 10
2391.365245642655
 20
1712.518901260567
 30
0.0
  0
VERTEX
  5
84
  8
LAYER_05
 10
2391.365245642655
 20
1739.371685518727
 30
0.0
  0
VERTEX
  5
85
  8
LAYER_05
 10
2381.816021407144
 20
1712.518901260567
 30
0.0
  0
SEQEND
  5
86
  8
LAYER_05
  0
ARC
  5
87
  8
LAYER_05
 10
-2782.895656376299
 20
1945.700458582968
 30
0.0
 40
30.69154271196658
 50
270.0
 51
90.0
210
0.0
220
0.0
230
-1.0
  0
POLYLINE
  5
88
  8
LAYER_05
 66
     1
 10
0.0
 20
0.0
 30
0.0
 70
     1
  0
VERTEX
  5
89
  8
LAYER_05
 10
2317.490562835893
 20
1712.518901260566
 30
0.0
  0
VERTEX
  5
8A
  8
LAYER_05
 10
2246.070280784351
 20
1746.468268024993
 30
0.0
  0
VERTEX
  5
8B
  8
LAYER_05
 10
2388.306594599566
 20
1805.384478269211
 30
0.0
  0
VERTEX
  5
8C
  8
LAYER_05
 10
2355.28230147264
 20
1712.518901260567
 30
0.0
  0
SEQEND
  5
8D
  8
LAYER_05
  0
POLYLINE
  5
8E
  8
LAYER_05
 66
     1
 10
0.0
 20
0.0
 30
0.0
 70
     1
  0
VERTEX
  5
8F
  8
LAYER_05
 10
2490.239928449417
 20
1712.518901260566
 30
0.0
  0
VERTEX
  5
90
  8
LAYER_05
 10
2561.660210500958
 20
1746.468268024993
 30
0.0
  0
VERTEX
  5
91
  8
LAYER_05
 10
2419.423896685743
 20
1805.384478269211
 30
0.0
  0
VERTEX
  5
92
  8
LAYER_05
 10
2452.44818981267
 20
1712.518901260567
 30
0.0
  0
SEQEND
  5
93
  8
LAYER_05
  0
POLYLINE
  5
94
  8
LAYER_05
 66
     1
 10
0.0
 20
0.0
 30
0.0
 70
     1
  0
VERTEX
  5
95
  8
LAYER_05
 10
2317.490562835893
 20
2178.88201590537
 30
0.0
  0
VERTEX
  5
96
  8
LAYER_05
 10
2246.070280784351
 20
2144.932649140943
 30
0.0
  0
VERTEX
  5
97
  8
LAYER_05
 10
2388.306594599566
 20
2086.016438896725
 30
0.0
  0
VERTEX
  5
98
  8
LAYER_05
 10
2355.28230147264
 20
2178.88201590537
 30
0.0
  0
SEQEND
  5
99
  8
LAYER_05
  0
POLYLINE
  5
9A
  8
LAYER_05
 66
     1
 10
0.0
 20
0.0
 30
0.0
 70
     1
  0
VERTEX
  5
9B
  8
LAYER_05
 10
2490.239928449417
 20
2178.88201590537
 30
0.0
  0
VERTEX
  5
9C
  8
LAYER_05
 10
2561.660210500958
 20
2144.932649140943
 30
0.0
  0
VERTEX
  5
9D
  8
LAYER_05
 10
2419.423896685743
 20
2086.016438896725
 30
0.0
  0
VERTEX
  5
9E
  8
LAYER_05
 10
2452.44818981267
 20
2178.88201590537
 30
0.0
  0
SEQEND
  5
9F
  8
LAYER_05
  0
POLYLINE
  5
A0
  8
LAYER_05
 66
     1
 10
0.0
 20
0.0
 30
0.0
 70
     1
  0
VERTEX
  5
A1
  8
LAYER_05
 10
2153.00601879059
 20
1712.518901260567
 30
0.0
  0
VERTEX
  5
A2
  8
LAYER_05
 10
2176.995922597553
 20
1736.50880506753
 30
0.0
  0
VERTEX
  5
A3
  8
LAYER_05
 10
2119.079171466755
 20
1712.518901260567
 30
0.0
  0
SEQEND
  5
A4
  8
LAYER_05
  0
POLYLINE
  5
A5
  8
LAYER_05
 66
     1
 10
0.0
 20
0.0
 30
0.0
 70
     1
  0
VERTEX
  5
A6
  8
LAYER_05
 10
2042.361052717861
 20
1712.518901260567
 30
0.0
  0
VERTEX
  5
A7
  8
LAYER_05
 10
2078.882355120082
 20
1815.218202276767
 30
0.0
  0
VERTEX
  5
A8
  8
LAYER_05
 10
2182.629799767314
 20
1765.902238407299
 30
0.0
  0
VERTEX
  5
A9
  8
LAYER_05
 10
2053.751023222937
 20
1712.518901260567
 30
0.0
  0
SEQEND
  5
AA
  8
LAYER_05
  0
POLYLINE
  5
AB
  8
LAYER_05
 66
     1
 10
0.0
 20
0.0
 30
0.0
 70
     1
  0
VERTEX
  5
AC
  8
LAYER_05
 10
2219.118784087992
 20
1712.518901260567
 30
0.0
  0
VERTEX
  5
AD
  8
LAYER_05
 10
2224.067025466985
 20
1724.465012707627
 30
0.0
  0
VERTEX
  5
AE
  8
LAYER_05
 10
2229.745565333747
 20
1712.518901260567
 30
0.0
  0
SEQEND
  5
AF
  8
LAYER_05
  0
POLYLINE
  5
B0
  8
LAYER_05
 66
     1
 10
0.0
 20
0.0
 30
0.0
 70
     1
  0
VERTEX
  5
B1
  8
LAYER_05
 10
2654.72447249472
 20
1712.518901260567
 30
0.0
  0
VERTEX
  5
B2
  8
LAYER_05
 10
2630.734568687757
 20
1736.50880506753
 30
0.0
  0
VERTEX
  5
B3
  8
LAYER_05
 10
2688.651319818555
 20
1712.518901260567
 30
0.0
  0
SEQEND
  5
B4
  8
LAYER_05
  0
POLYLINE
  5
B5
  8
LAYER_05
 66
     1
 10
0.0
 20
0.0
 30
0.0
 70
     1
  0
VERTEX
  5
B6
  8
LAYER_05
 10
2765.369438567449
 20
1712.518901260567
 30
0.0
  0
VERTEX
  5
B7
  8
LAYER_05
 10
2728.848136165228
 20
1815.218202276767
 30
0.0
  0
VERTEX
  5
B8
  8
LAYER_05
 10
2625.100691517996
 20
1765.902238407299
 30
0.0
  0
VERTEX
  5
B9
  8
LAYER_05
 10
2753.979468062373
 20
1712.518901260567
 30
0.0
  0
SEQEND
  5
BA
  8
LAYER_05
  0
POLYLINE
  5
BB
  8
LAYER_05
 66
     1
 10
0.0
 20
0.0
 30
0.0
 70
     1
  0
VERTEX
  5
BC
  8
LAYER_05
 10
2588.611707197318
 20
1712.518901260567
 30
0.0
  0
VERTEX
  5
BD
  8
LAYER_05
 10
2583.663465818324
 20
1724.465012707627
 30
0.0
  0
VERTEX
  5
BE
  8
LAYER_05
 10
2577.984925951563
 20
1712.518901260567
 30
0.0
  0
SEQEND
  5
BF
  8
LAYER_05
  0
POLYLINE
  5
C0
  8
LAYER_05
 66
     1
 10
0.0
 20
0.0
 30
0.0
 70
     1
  0
VERTEX
  5
C1
  8
LAYER_05
 10
2153.00601879059
 20
2178.882015905369
 30
0.0
  0
VERTEX
  5
C2
  8
LAYER_05
 10
2176.995922597553
 20
2154.892112098406
 30
0.0
  0
VERTEX
  5
C3
  8
LAYER_05
 10
2119.079171466755
 20
2178.88201590537
 30
0.0
  0
SEQEND
  5
C4
  8
LAYER_05
  0
POLYLINE
  5
C5
  8
LAYER_05
 66
     1
 10
0.0
 20
0.0
 30
0.0
 70
     1
  0
VERTEX
  5
C6
  8
LAYER_05
 10
2042.361052717861
 20
2178.88201590537
 30
0.0
  0
VERTEX
  5
C7
  8
LAYER_05
 10
2078.882355120082
 20
2076.182714889169
 30
0.0
  0
VERTEX
  5
C8
  8
LAYER_05
 10
2182.629799767314
 20
2125.498678758637
 30
0.0
  0
VERTEX
  5
C9
  8
LAYER_05
 10
2053.751023222937
 20
2178.88201590537
 30
0.0
  0
SEQEND
  5
CA
  8
LAYER_05
  0
POLYLINE
  5
CB
  8
LAYER_05
 66
     1
 10
0.0
 20
0.0
 30
0.0
 70
     1
  0
VERTEX
  5
CC
  8
LAYER_05
 10
2381.816021407144
 20
2178.88201590537
 30
0.0
  0
VERTEX
  5
CD
  8
LAYER_05
 10
2391.365245642655
 20
2152.02923164721
 30
0.0
  0
VERTEX
  5
CE
  8
LAYER_05
 10
2391.365245642655
 20
2178.88201590537
 30
0.0
  0
SEQEND
  5
CF
  8
LAYER_05
  0
POLYLINE
  5
D0
  8
LAYER_05
 66
     1
 10
0.0
 20
0.0
 30
0.0
 70
     1
  0
VERTEX
  5
D1
  8
LAYER_05
 10
2219.118784087992
 20
2178.88201590537
 30
0.0
  0
VERTEX
  5
D2
  8
LAYER_05
 10
2224.067025466985
 20
2166.935904458309
 30
0.0
  0
VERTEX
  5
D3
  8
LAYER_05
 10
2229.745565333747
 20
2178.88201590537
 30
0.0
  0
SEQEND
  5
D4
  8
LAYER_05
  0
POLYLINE
  5
D5
  8
LAYER_05
 66
     1
 10
0.0
 20
0.0
 30
0.0
 70
     1
  0
VERTEX
  5
D6
  8
LAYER_05
 10
2654.72447249472
 20
2178.882015905369
 30
0.0
  0
VERTEX
  5
D7
  8
LAYER_05
 10
2630.734568687757
 20
2154.892112098406
 30
0.0
  0
VERTEX
  5
D8
  8
LAYER_05
 10
2688.651319818555
 20
2178.88201590537
 30
0.0
  0
SEQEND
  5
D9
  8
LAYER_05
  0
POLYLINE
  5
DA
  8
LAYER_05
 66
     1
 10
0.0
 20
0.0
 30
0.0
 70
     1
  0
VERTEX
  5
DB
  8
LAYER_05
 10
2765.369438567449
 20
2178.88201590537
 30
0.0
  0
VERTEX
  5
DC
  8
LAYER_05
 10
2728.848136165228
 20
2076.182714889169
 30
0.0
  0
VERTEX
  5
DD
  8
LAYER_05
 10
2625.100691517996
 20
2125.498678758637
 30
0.0
  0
VERTEX
  5
DE
  8
LAYER_05
 10
2753.979468062373
 20
2178.88201590537
 30
0.0
  0
SEQEND
  5
DF
  8
LAYER_05
  0
POLYLINE
  5
E0
  8
LAYER_05
 66
     1
 10
0.0
 20
0.0
 30
0.0
 70
     1
  0
VERTEX
  5
E1
  8
LAYER_05
 10
2425.914469878165
 20
2178.88201590537
 30
0.0
  0
VERTEX
  5
E2
  8
LAYER_05
 10
2416.365245642655
 20
2152.02923164721
 30
0.0
  0
VERTEX
  5
E3
  8
LAYER_05
 10
2416.365245642655
 20
2178.88201590537
 30
0.0
  0
SEQEND
  5
E4
  8
LAYER_05
  0
POLYLINE
  5
E5
  8
LAYER_05
 66
     1
 10
0.0
 20
0.0
 30
0.0
 70
     1
  0
VERTEX
  5
E6
  8
LAYER_05
 10
2588.611707197318
 20
2178.88201590537
 30
0.0
  0
VERTEX
  5
E7
  8
LAYER_05
 10
2583.663465818324
 20
2166.935904458309
 30
0.0
  0
VERTEX
  5
E8
  8
LAYER_05
 10
2577.984925951563
 20
2178.88201590537
 30
0.0
  0
SEQEND
  5
E9
  8
LAYER_05
  0
POLYLINE
  5
EA
  8
LAYER_05
 66
     1
 10
0.0
 20
0.0
 30
0.0
 70
     1
  0
VERTEX
  5
EB
  8
LAYER_05
 10
2373.68757611299
 20
1933.200458582968
 30
0.0
  0
VERTEX
  5
EC
  8
LAYER_05
 10
2291.876005080821
 20
1933.200458582969
 30
0.0
  0
VERTEX
  5
ED
  8
LAYER_05
 10
2234.026488424451
 20
1793.539370894428
 30
0.0
  0
SEQEND
  5
EE
  8
LAYER_05
  0
POLYLINE
  5
EF
  8
LAYER_05
 66
     1
 10
0.0
 20
0.0
 30
0.0
 70
     1
  0
VERTEX
  5
F0
  8
LAYER_05
 10
2211.377458123009
 20
1759.15783536897
 30
0.0
  0
VERTEX
  5
F1
  8
LAYER_05
 10
2221.526488424449
 20
1763.361701364762
 30
0.0
  0
VERTEX
  5
F2
  8
LAYER_05
 10
2217.322622428657
 20
1753.212671063322
 30
0.0
  0
VERTEX
  5
F3
  8
LAYER_05
 10
2207.173592127217
 20
1749.00880506753
 30
0.0
  0
SEQEND
  5
F4
  8
LAYER_05
  0
POLYLINE
  5
F5
  8
LAYER_05
 66
     1
 10
0.0
 20
0.0
 30
0.0
 70
     1
  0
VERTEX
  5
F6
  8
LAYER_05
 10
2391.365245642655
 20
1915.522789053305
 30
0.0
  0
VERTEX
  5
F7
  8
LAYER_05
 10
2391.365245642655
 20
1833.711218021135
 30
0.0
  0
VERTEX
  5
F8
  8
LAYER_05
 10
2251.704157954113
 20
1775.861701364763
 30
0.0
  0
SEQEND
  5
F9
  8
LAYER_05
  0
POLYLINE
  5
FA
  8
LAYER_05
 66
     1
 10
0.0
 20
0.0
 30
0.0
 70
     1
  0
VERTEX
  5
FB
  8
LAYER_05
 10
2204.633055084681
 20
1787.905493724665
 30
0.0
  0
VERTEX
  5
FC
  8
LAYER_05
 10
2155.317091215213
 20
1891.652938371897
 30
0.0
  0
VERTEX
  5
FD
  8
LAYER_05
 10
2263.549265328897
 20
1930.14180753988
 30
0.0
  0
SEQEND
  5
FE
  8
LAYER_05
  0
POLYLINE
  5
FF
  8
LAYER_05
 66
     1
 10
0.0
 20
0.0
 30
0.0
 70
     1
  0
VERTEX
  5
100
  8
LAYER_05
 10
2087.676578560585
 20
1933.200458582968
 30
0.0
  0
VERTEX
  5
101
  8
LAYER_05
 10
2197.536472578413
 20
1933.200458582968
 30
0.0
  0
VERTEX
  5
102
  8
LAYER_05
 10
2138.42523232405
 20
1912.179677921964
 30
0.0
  0
SEQEND
  5
103
  8
LAYER_05
  0
POLYLINE
  5
104
  8
LAYER_05
 66
     1
 10
0.0
 20
0.0
 30
0.0
 70
     1
  0
VERTEX
  5
105
  8
LAYER_05
 10
2078.109492751457
 20
1910.103470270186
 30
0.0
  0
VERTEX
  5
106
  8
LAYER_05
 10
2128.858146514923
 20
1889.082689609183
 30
0.0
  0
VERTEX
  5
107
  8
LAYER_05
 10
2155.792168791899
 20
1832.420794229744
 30
0.0
  0
SEQEND
  5
108
  8
LAYER_05
  0
POLYLINE
  5
109
  8
LAYER_05
 66
     1
 10
0.0
 20
0.0
 30
0.0
 70
     1
  0
VERTEX
  5
10A
  8
LAYER_05
 10
2138.114499262236
 20
1814.74312470008
 30
0.0
  0
VERTEX
  5
10B
  8
LAYER_05
 10
2081.452603882798
 20
1841.677146977057
 30
0.0
  0
VERTEX
  5
10C
  8
LAYER_05
 10
2060.431823221794
 20
1892.425800740521
 30
0.0
  0
SEQEND
  5
10D
  8
LAYER_05
  0
POLYLINE
  5
10E
  8
LAYER_05
 66
     1
 10
0.0
 20
0.0
 30
0.0
 70
     1
  0
VERTEX
  5
10F
  8
LAYER_05
 10
2037.334834909011
 20
1772.998820913566
 30
0.0
  0
VERTEX
  5
110
  8
LAYER_05
 10
2037.334834909011
 20
1882.858714931395
 30
0.0
  0
VERTEX
  5
111
  8
LAYER_05
 10
2058.355615570015
 20
1832.110061167929
 30
0.0
  0
SEQEND
  5
112
  8
LAYER_05
  0
POLYLINE
  5
113
  8
LAYER_05
 66
     1
 10
0.0
 20
0.0
 30
0.0
 70
     1
  0
VERTEX
  5
114
  8
LAYER_05
 10
2434.042915172319
 20
1933.200458582968
 30
0.0
  0
VERTEX
  5
115
  8
LAYER_05
 10
2515.854486204488
 20
1933.200458582969
 30
0.0
  0
VERTEX
  5
116
  8
LAYER_05
 10
2573.704002860859
 20
1793.539370894428
 30
0.0
  0
SEQEND
  5
117
  8
LAYER_05
  0
POLYLINE
  5
118
  8
LAYER_05
 66
     1
 10
0.0
 20
0.0
 30
0.0
 70
     1
  0
VERTEX
  5
119
  8
LAYER_05
 10
2596.353033162301
 20
1759.15783536897
 30
0.0
  0
VERTEX
  5
11A
  8
LAYER_05
 10
2586.204002860861
 20
1763.361701364762
 30
0.0
  0
VERTEX
  5
11B
  8
LAYER_05
 10
2590.407868856652
 20
1753.212671063322
 30
0.0
  0
VERTEX
  5
11C
  8
LAYER_05
 10
2600.556899158093
 20
1749.00880506753
 30
0.0
  0
SEQEND
  5
11D
  8
LAYER_05
  0
POLYLINE
  5
11E
  8
LAYER_05
 66
     1
 10
0.0
 20
0.0
 30
0.0
 70
     1
  0
VERTEX
  5
11F
  8
LAYER_05
 10
2416.365245642655
 20
1915.522789053305
 30
0.0
  0
VERTEX
  5
120
  8
LAYER_05
 10
2416.365245642655
 20
1833.711218021135
 30
0.0
  0
VERTEX
  5
121
  8
LAYER_05
 10
2556.026333331197
 20
1775.861701364763
 30
0.0
  0
SEQEND
  5
122
  8
LAYER_05
  0
POLYLINE
  5
123
  8
LAYER_05
 66
     1
 10
0.0
 20
0.0
 30
0.0
 70
     1
  0
VERTEX
  5
124
  8
LAYER_05
 10
2603.097436200629
 20
1787.905493724665
 30
0.0
  0
VERTEX
  5
125
  8
LAYER_05
 10
2652.413400070097
 20
1891.652938371897
 30
0.0
  0
VERTEX
  5
126
  8
LAYER_05
 10
2544.181225956412
 20
1930.14180753988
 30
0.0
  0
SEQEND
  5
127
  8
LAYER_05
  0
POLYLINE
  5
128
  8
LAYER_05
 66
     1
 10
0.0
 20
0.0
 30
0.0
 70
     1
  0
VERTEX
  5
129
  8
LAYER_05
 10
2720.053912724725
 20
1933.200458582968
 30
0.0
  0
VERTEX
  5
12A
  8
LAYER_05
 10
2610.194018706896
 20
1933.200458582968
 30
0.0
  0
VERTEX
  5
12B
  8
LAYER_05
 10
2669.30525896126
 20
1912.179677921964
 30
0.0
  0
SEQEND
  5
12C
  8
LAYER_05
  0
POLYLINE
  5
12D
  8
LAYER_05
 66
     1
 10
0.0
 20
0.0
 30
0.0
 70
     1
  0
VERTEX
  5
12E
  8
LAYER_05
 10
2729.620998533853
 20
1910.103470270186
 30
0.0
  0
VERTEX
  5
12F
  8
LAYER_05
 10
2678.872344770387
 20
1889.082689609183
 30
0.0
  0
VERTEX
  5
130
  8
LAYER_05
 10
2651.93832249341
 20
1832.420794229744
 30
0.0
  0
SEQEND
  5
131
  8
LAYER_05
  0
POLYLINE
  5
132
  8
LAYER_05
 66
     1
 10
0.0
 20
0.0
 30
0.0
 70
     1
  0
VERTEX
  5
133
  8
LAYER_05
 10
2669.615992023074
 20
1814.74312470008
 30
0.0
  0
VERTEX
  5
134
  8
LAYER_05
 10
2726.277887402512
 20
1841.677146977057
 30
0.0
  0
VERTEX
  5
135
  8
LAYER_05
 10
2747.298668063516
 20
1892.425800740521
 30
0.0
  0
SEQEND
  5
136
  8
LAYER_05
  0
POLYLINE
  5
137
  8
LAYER_05
 66
     1
 10
0.0
 20
0.0
 30
0.0
 70
     1
  0
VERTEX
  5
138
  8
LAYER_05
 10
2770.395656376299
 20
1772.998820913566
 30
0.0
  0
VERTEX
  5
139
  8
LAYER_05
 10
2770.395656376299
 20
1882.858714931395
 30
0.0
  0
VERTEX
  5
13A
  8
LAYER_05
 10
2749.374875715294
 20
1832.110061167929
 30
0.0
  0
SEQEND
  5
13B
  8
LAYER_05
  0
POLYLINE
  5
13C
  8
LAYER_05
 66
     1
 10
0.0
 20
0.0
 30
0.0
 70
     1
  0
VERTEX
  5
13D
  8
LAYER_05
 10
2373.68757611299
 20
1958.200458582968
 30
0.0
  0
VERTEX
  5
13E
  8
LAYER_05
 10
2291.876005080821
 20
1958.200458582968
 30
0.0
  0
VERTEX
  5
13F
  8
LAYER_05
 10
2234.026488424451
 20
2097.861546271508
 30
0.0
  0
SEQEND
  5
140
  8
LAYER_05
  0
POLYLINE
  5
141
  8
LAYER_05
 66
     1
 10
0.0
 20
0.0
 30
0.0
 70
     1
  0
VERTEX
  5
142
  8
LAYER_05
 10
2211.377458123009
 20
2132.243081796966
 30
0.0
  0
VERTEX
  5
143
  8
LAYER_05
 10
2221.526488424449
 20
2128.039215801175
 30
0.0
  0
VERTEX
  5
144
  8
LAYER_05
 10
2217.322622428657
 20
2138.188246102614
 30
0.0
  0
VERTEX
  5
145
  8
LAYER_05
 10
2207.173592127217
 20
2142.392112098406
 30
0.0
  0
SEQEND
  5
146
  8
LAYER_05
  0
POLYLINE
  5
147
  8
LAYER_05
 66
     1
 10
0.0
 20
0.0
 30
0.0
 70
     1
  0
VERTEX
  5
148
  8
LAYER_05
 10
2391.365245642655
 20
1975.878128112631
 30
0.0
  0
VERTEX
  5
149
  8
LAYER_05
 10
2391.365245642655
 20
2057.689699144802
 30
0.0
  0
VERTEX
  5
14A
  8
LAYER_05
 10
2251.704157954113
 20
2115.539215801174
 30
0.0
  0
SEQEND
  5
14B
  8
LAYER_05
  0
POLYLINE
  5
14C
  8
LAYER_05
 66
     1
 10
0.0
 20
0.0
 30
0.0
 70
     1
  0
VERTEX
  5
14D
  8
LAYER_05
 10
2204.633055084681
 20
2103.495423441271
 30
0.0
  0
VERTEX
  5
14E
  8
LAYER_05
 10
2155.317091215213
 20
1999.747978794039
 30
0.0
  0
VERTEX
  5
14F
  8
LAYER_05
 10
2263.549265328897
 20
1961.259109626057
 30
0.0
  0
SEQEND
  5
150
  8
LAYER_05
  0
POLYLINE
  5
151
  8
LAYER_05
 66
     1
 10
0.0
 20
0.0
 30
0.0
 70
     1
  0
VERTEX
  5
152
  8
LAYER_05
 10
2087.676578560585
 20
1958.200458582968
 30
0.0
  0
VERTEX
  5
153
  8
LAYER_05
 10
2197.536472578413
 20
1958.200458582968
 30
0.0
  0
VERTEX
  5
154
  8
LAYER_05
 10
2138.42523232405
 20
1979.221239243972
 30
0.0
  0
SEQEND
  5
155
  8
LAYER_05
  0
POLYLINE
  5
156
  8
LAYER_05
 66
     1
 10
0.0
 20
0.0
 30
0.0
 70
     1
  0
VERTEX
  5
157
  8
LAYER_05
 10
2078.109492751457
 20
1981.29744689575
 30
0.0
  0
VERTEX
  5
158
  8
LAYER_05
 10
2128.858146514923
 20
2002.318227556754
 30
0.0
  0
VERTEX
  5
159
  8
LAYER_05
 10
2155.792168791899
 20
2058.980122936192
 30
0.0
  0
SEQEND
  5
15A
  8
LAYER_05
  0
POLYLINE
  5
15B
  8
LAYER_05
 66
     1
 10
0.0
 20
0.0
 30
0.0
 70
     1
  0
VERTEX
  5
15C
  8
LAYER_05
 10
2138.114499262236
 20
2076.657792465856
 30
0.0
  0
VERTEX
  5
15D
  8
LAYER_05
 10
2081.452603882798
 20
2049.72377018888
 30
0.0
  0
VERTEX
  5
15E
  8
LAYER_05
 10
2060.431823221794
 20
1998.975116425415
 30
0.0
  0
SEQEND
  5
15F
  8
LAYER_05
  0
POLYLINE
  5
160
  8
LAYER_05
 66
     1
 10
0.0
 20
0.0
 30
0.0
 70
     1
  0
VERTEX
  5
161
  8
LAYER_05
 10
2037.334834909011
 20
2118.40209625237
 30
0.0
  0
VERTEX
  5
162
  8
LAYER_05
 10
2037.334834909011
 20
2008.542202234541
 30
0.0
  0
VERTEX
  5
163
  8
LAYER_05
 10
2058.355615570015
 20
2059.290855998007
 30
0.0
  0
SEQEND
  5
164
  8
LAYER_05
  0
POLYLINE
  5
165
  8
LAYER_05
 66
     1
 10
0.0
 20
0.0
 30
0.0
 70
     1
  0
VERTEX
  5
166
  8
LAYER_05
 10
2434.042915172319
 20
1958.200458582968
 30
0.0
  0
VERTEX
  5
167
  8
LAYER_05
 10
2515.854486204488
 20
1958.200458582968
 30
0.0
  0
VERTEX
  5
168
  8
LAYER_05
 10
2573.704002860859
 20
2097.861546271508
 30
0.0
  0
SEQEND
  5
169
  8
LAYER_05
  0
POLYLINE
  5
16A
  8
LAYER_05
 66
     1
 10
0.0
 20
0.0
 30
0.0
 70
     1
  0
VERTEX
  5
16B
  8
LAYER_05
 10
2596.353033162301
 20
2132.243081796966
 30
0.0
  0
VERTEX
  5
16C
  8
LAYER_05
 10
2586.204002860861
 20
2128.039215801175
 30
0.0
  0
VERTEX
  5
16D
  8
LAYER_05
 10
2590.407868856652
 20
2138.188246102614
 30
0.0
  0
VERTEX
  5
16E
  8
LAYER_05
 10
2600.556899158093
 20
2142.392112098406
 30
0.0
  0
SEQEND
  5
16F
  8
LAYER_05
  0
POLYLINE
  5
170
  8
LAYER_05
 66
     1
 10
0.0
 20
0.0
 30
0.0
 70
     1
  0
VERTEX
  5
171
  8
LAYER_05
 10
2416.365245642655
 20
1975.878128112631
 30
0.0
  0
VERTEX
  5
172
  8
LAYER_05
 10
2416.365245642655
 20
2057.689699144802
 30
0.0
  0
VERTEX
  5
173
  8
LAYER_05
 10
2556.026333331197
 20
2115.539215801174
 30
0.0
  0
SEQEND
  5
174
  8
LAYER_05
  0
POLYLINE
  5
175
  8
LAYER_05
 66
     1
 10
0.0
 20
0.0
 30
0.0
 70
     1
  0
VERTEX
  5
176
  8
LAYER_05
 10
2603.097436200629
 20
2103.495423441271
 30
0.0
  0
VERTEX
  5
177
  8
LAYER_05
 10
2652.413400070097
 20
1999.747978794039
 30
0.0
  0
VERTEX
  5
178
  8
LAYER_05
 10
2544.181225956412
 20
1961.259109626057
 30
0.0
  0
SEQEND
  5
179
  8
LAYER_05
  0
POLYLINE
  5
17A
  8
LAYER_05
 66
     1
 10
0.0
 20
0.0
 30
0.0
 70
     1
  0
VERTEX
  5
17B
  8
LAYER_05
 10
2720.053912724725
 20
1958.200458582968
 30
0.0
  0
VERTEX
  5
17C
  8
LAYER_05
 10
2610.194018706896
 20
1958.200458582968
 30
0.0
  0
VERTEX
  5
17D
  8
LAYER_05
 10
2669.30525896126
 20
1979.221239243972
 30
0.0
  0
SEQEND
  5
17E
  8
LAYER_05
  0
POLYLINE
  5
17F
  8
LAYER_05
 66
     1
 10
0.0
 20
0.0
 30
0.0
 70
     1
  0
VERTEX
  5
180
  8
LAYER_05
 10
2729.620998533853
 20
1981.29744689575
 30
0.0
  0
VERTEX
  5
181
  8
LAYER_05
 10
2678.872344770387
 20
2002.318227556754
 30
0.0
  0
VERTEX
  5
182
  8
LAYER_05
 10
2651.93832249341
 20
2058.980122936192
 30
0.0
  0
SEQEND
  5
183
  8
LAYER_05
  0
POLYLINE
  5
184
  8
LAYER_05
 66
     1
 10
0.0
 20
0.0
 30
0.0
 70
     1
  0
VERTEX
  5
185
  8
LAYER_05
 10
2669.615992023074
 20
2076.657792465856
 30
0.0
  0
VERTEX
  5
186
  8
LAYER_05
 10
2726.277887402512
 20
2049.72377018888
 30
0.0
  0
VERTEX
  5
187
  8
LAYER_05
 10
2747.298668063516
 20
1998.975116425415
 30
0.0
  0
SEQEND
  5
188
  8
LAYER_05
  0
POLYLINE
  5
189
  8
LAYER_05
 66
     1
 10
0.0
 20
0.0
 30
0.0
 70
     1
  0
VERTEX
  5
18A
  8
LAYER_05
 10
2770.395656376299
 20
2118.40209625237
 30
0.0
  0
VERTEX
  5
18B
  8
LAYER_05
 10
2770.395656376299
 20
2008.542202234541
 30
0.0
  0
VERTEX
  5
18C
  8
LAYER_05
 10
2749.374875715294
 20
2059.290855998007
 30
0.0
  0
SEQEND
  5
18D
  8
LAYER_05
  0
POLYLINE
  5
18E
  8
LAYER_05
 66
     1
 10
0.0
 20
0.0
 30
0.0
 70
     1
  0
VERTEX
  5
18F
  8
LAYER_05
 10
1623.755199939857
 20
1712.518901260567
 30
0.0
  0
VERTEX
  5
190
  8
LAYER_05
 10
1633.304424175367
 20
1739.371685518727
 30
0.0
  0
VERTEX
  5
191
  8
LAYER_05
 10
1633.304424175367
 20
1712.518901260567
 30
0.0
  0
SEQEND
  5
192
  8
LAYER_05
  0
POLYLINE
  5
193
  8
LAYER_05
 66
     1
 10
0.0
 20
0.0
 30
0.0
 70
     1
  0
VERTEX
  5
194
  8
LAYER_05
 10
1658.304424175367
 20
1712.518901260567
 30
0.0
  0
VERTEX
  5
195
  8
LAYER_05
 10
1658.304424175367
 20
1739.371685518727
 30
0.0
  0
VERTEX
  5
196
  8
LAYER_05
 10
1667.853648410877
 20
1712.518901260567
 30
0.0
  0
SEQEND
  5
197
  8
LAYER_05
  0
ARC
  5
198
  8
LAYER_05
 10
1266.774013441723
 20
1945.700458582968
 30
0.0
 40
30.69154271196658
 50
270.0
 51
90.0
  0
POLYLINE
  5
199
  8
LAYER_05
 66
     1
 10
0.0
 20
0.0
 30
0.0
 70
     1
  0
VERTEX
  5
19A
  8
LAYER_05
 10
1732.179106982129
 20
1712.518901260566
 30
0.0
  0
VERTEX
  5
19B
  8
LAYER_05
 10
1803.59938903367
 20
1746.468268024993
 30
0.0
  0
VERTEX
  5
19C
  8
LAYER_05
 10
1661.363075218455
 20
1805.384478269211
 30
0.0
  0
VERTEX
  5
19D
  8
LAYER_05
 10
1694.387368345382
 20
1712.518901260567
 30
0.0
  0
SEQEND
  5
19E
  8
LAYER_05
  0
POLYLINE
  5
19F
  8
LAYER_05
 66
     1
 10
0.0
 20
0.0
 30
0.0
 70
     1
  0
VERTEX
  5
1A0
  8
LAYER_05
 10
1559.429741368605
 20
1712.518901260566
 30
0.0
  0
VERTEX
  5
1A1
  8
LAYER_05
 10
1488.009459317063
 20
1746.468268024993
 30
0.0
  0
VERTEX
  5
1A2
  8
LAYER_05
 10
1630.245773132278
 20
1805.384478269211
 30
0.0
  0
VERTEX
  5
1A3
  8
LAYER_05
 10
1597.221480005352
 20
1712.518901260567
 30
0.0
  0
SEQEND
  5
1A4
  8
LAYER_05
  0
POLYLINE
  5
1A5
  8
LAYER_05
 66
     1
 10
0.0
 20
0.0
 30
0.0
 70
     1
  0
VERTEX
  5
1A6
  8
LAYER_05
 10
1732.179106982129
 20
2178.88201590537
 30
0.0
  0
VERTEX
  5
1A7
  8
LAYER_05
 10
1803.59938903367
 20
2144.932649140943
 30
0.0
  0
VERTEX
  5
1A8
  8
LAYER_05
 10
1661.363075218455
 20
2086.016438896725
 30
0.0
  0
VERTEX
  5
1A9
  8
LAYER_05
 10
1694.387368345382
 20
2178.88201590537
 30
0.0
  0
SEQEND
  5
1AA
  8
LAYER_05
  0
POLYLINE
  5
1AB
  8
LAYER_05
 66
     1
 10
0.0
 20
0.0
 30
0.0
 70
     1
  0
VERTEX
  5
1AC
  8
LAYER_05
 10
1559.429741368605
 20
2178.88201590537
 30
0.0
  0
VERTEX
  5
1AD
  8
LAYER_05
 10
1488.009459317063
 20
2144.932649140943
 30
0.0
  0
VERTEX
  5
1AE
  8
LAYER_05
 10
1630.245773132278
 20
2086.016438896725
 30
0.0
  0
VERTEX
  5
1AF
  8
LAYER_05
 10
1597.221480005352
 20
2178.88201590537
 30
0.0
  0
SEQEND
  5
1B0
  8
LAYER_05
  0
POLYLINE
  5
1B1
  8
LAYER_05
 66
     1
 10
0.0
 20
0.0
 30
0.0
 70
     1
  0
VERTEX
  5
1B2
  8
LAYER_05
 10
1896.663651027432
 20
1712.518901260567
 30
0.0
  0
VERTEX
  5
1B3
  8
LAYER_05
 10
1872.673747220469
 20
1736.50880506753
 30
0.0
  0
VERTEX
  5
1B4
  8
LAYER_05
 10
1930.590498351267
 20
1712.518901260567
 30
0.0
  0
SEQEND
  5
1B5
  8
LAYER_05
  0
POLYLINE
  5
1B6
  8
LAYER_05
 66
     1
 10
0.0
 20
0.0
 30
0.0
 70
     1
  0
VERTEX
  5
1B7
  8
LAYER_05
 10
2007.308617100161
 20
1712.518901260567
 30
0.0
  0
VERTEX
  5
1B8
  8
LAYER_05
 10
1970.78731469794
 20
1815.218202276767
 30
0.0
  0
VERTEX
  5
1B9
  8
LAYER_05
 10
1867.039870050708
 20
1765.902238407299
 30
0.0
  0
VERTEX
  5
1BA
  8
LAYER_05
 10
1995.918646595085
 20
1712.518901260567
 30
0.0
  0
SEQEND
  5
1BB
  8
LAYER_05
  0
POLYLINE
  5
1BC
  8
LAYER_05
 66
     1
 10
0.0
 20
0.0
 30
0.0
 70
     1
  0
VERTEX
  5
1BD
  8
LAYER_05
 10
1830.550885730029
 20
1712.518901260567
 30
0.0
  0
VERTEX
  5
1BE
  8
LAYER_05
 10
1825.602644351036
 20
1724.465012707627
 30
0.0
  0
VERTEX
  5
1BF
  8
LAYER_05
 10
1819.924104484275
 20
1712.518901260567
 30
0.0
  0
SEQEND
  5
1C0
  8
LAYER_05
  0
POLYLINE
  5
1C1
  8
LAYER_05
 66
     1
 10
0.0
 20
0.0
 30
0.0
 70
     1
  0
VERTEX
  5
1C2
  8
LAYER_05
 10
1394.945197323302
 20
1712.518901260567
 30
0.0
  0
VERTEX
  5
1C3
  8
LAYER_05
 10
1418.935101130265
 20
1736.50880506753
 30
0.0
  0
VERTEX
  5
1C4
  8
LAYER_05
 10
1361.018349999467
 20
1712.518901260567
 30
0.0
  0
SEQEND
  5
1C5
  8
LAYER_05
  0
POLYLINE
  5
1C6
  8
LAYER_05
 66
     1
 10
0.0
 20
0.0
 30
0.0
 70
     1
  0
VERTEX
  5
1C7
  8
LAYER_05
 10
1284.300231250573
 20
1712.518901260567
 30
0.0
  0
VERTEX
  5
1C8
  8
LAYER_05
 10
1320.821533652794
 20
1815.218202276767
 30
0.0
  0
VERTEX
  5
1C9
  8
LAYER_05
 10
1424.568978300026
 20
1765.902238407299
 30
0.0
  0
VERTEX
  5
1CA
  8
LAYER_05
 10
1295.690201755649
 20
1712.518901260567
 30
0.0
  0
SEQEND
  5
1CB
  8
LAYER_05
  0
POLYLINE
  5
1CC
  8
LAYER_05
 66
     1
 10
0.0
 20
0.0
 30
0.0
 70
     1
  0
VERTEX
  5
1CD
  8
LAYER_05
 10
1461.057962620704
 20
1712.518901260567
 30
0.0
  0
VERTEX
  5
1CE
  8
LAYER_05
 10
1466.006203999697
 20
1724.465012707627
 30
0.0
  0
VERTEX
  5
1CF
  8
LAYER_05
 10
1471.684743866458
 20
1712.518901260567
 30
0.0
  0
SEQEND
  5
1D0
  8
LAYER_05
  0
POLYLINE
  5
1D1
  8
LAYER_05
 66
     1
 10
0.0
 20
0.0
 30
0.0
 70
     1
  0
VERTEX
  5
1D2
  8
LAYER_05
 10
1896.663651027432
 20
2178.882015905369
 30
0.0
  0
VERTEX
  5
1D3
  8
LAYER_05
 10
1872.673747220469
 20
2154.892112098406
 30
0.0
  0
VERTEX
  5
1D4
  8
LAYER_05
 10
1930.590498351267
 20
2178.88201590537
 30
0.0
  0
SEQEND
  5
1D5
  8
LAYER_05
  0
POLYLINE
  5
1D6
  8
LAYER_05
 66
     1
 10
0.0
 20
0.0
 30
0.0
 70
     1
  0
VERTEX
  5
1D7
  8
LAYER_05
 10
2007.308617100161
 20
2178.88201590537
 30
0.0
  0
VERTEX
  5
1D8
  8
LAYER_05
 10
1970.78731469794
 20
2076.182714889169
 30
0.0
  0
VERTEX
  5
1D9
  8
LAYER_05
 10
1867.039870050708
 20
2125.498678758637
 30
0.0
  0
VERTEX
  5
1DA
  8
LAYER_05
 10
1995.918646595085
 20
2178.88201590537
 30
0.0
  0
SEQEND
  5
1DB
  8
LAYER_05
  0
POLYLINE
  5
1DC
  8
LAYER_05
 66
     1
 10
0.0
 20
0.0
 30
0.0
 70
     1
  0
VERTEX
  5
1DD
  8
LAYER_05
 10
1667.853648410877
 20
2178.88201590537
 30
0.0
  0
VERTEX
  5
1DE
  8
LAYER_05
 10
1658.304424175367
 20
2152.02923164721
 30
0.0
  0
VERTEX
  5
1DF
  8
LAYER_05
 10
1658.304424175367
 20
2178.88201590537
 30
0.0
  0
SEQEND
  5
1E0
  8
LAYER_05
  0
POLYLINE
  5
1E1
  8
LAYER_05
 66
     1
 10
0.0
 20
0.0
 30
0.0
 70
     1
  0
VERTEX
  5
1E2
  8
LAYER_05
 10
1830.550885730029
 20
2178.88201590537
 30
0.0
  0
VERTEX
  5
1E3
  8
LAYER_05
 10
1825.602644351036
 20
2166.935904458309
 30
0.0
  0
VERTEX
  5
1E4
  8
LAYER_05
 10
1819.924104484275
 20
2178.88201590537
 30
0.0
  0
SEQEND
  5
1E5
  8
LAYER_05
  0
POLYLINE
  5
1E6
  8
LAYER_05
 66
     1
 10
0.0
 20
0.0
 30
0.0
 70
     1
  0
VERTEX
  5
1E7
  8
LAYER_05
 10
1394.945197323302
 20
2178.882015905369
 30
0.0
  0
VERTEX
  5
1E8
  8
LAYER_05
 10
1418.935101130265
 20
2154.892112098406
 30
0.0
  0
VERTEX
  5
1E9
  8
LAYER_05
 10
1361.018349999467
 20
2178.88201590537
 30
0.0
  0
SEQEND
  5
1EA
  8
LAYER_05
  0
POLYLINE
  5
1EB
  8
LAYER_05
 66
     1
 10
0.0
 20
0.0
 30
0.0
 70
     1
  0
VERTEX
  5
1EC
  8
LAYER_05
 10
1284.300231250573
 20
2178.88201590537
 30
0.0
  0
VERTEX
  5
1ED
  8
LAYER_05
 10
1320.821533652794
 20
2076.182714889169
 30
0.0
  0
VERTEX
  5
1EE
  8
LAYER_05
 10
1424.568978300026
 20
2125.498678758637
 30
0.0
  0
VERTEX
  5
1EF
  8
LAYER_05
 10
1295.690201755649
 20
2178.88201590537
 30
0.0
  0
SEQEND
  5
1F0
  8
LAYER_05
  0
POLYLINE
  5
1F1
  8
LAYER_05
 66
     1
 10
0.0
 20
0.0
 30
0.0
 70
     1
  0
VERTEX
  5
1F2
  8
LAYER_05
 10
1623.755199939857
 20
2178.88201590537
 30
0.0
  0
VERTEX
  5
1F3
  8
LAYER_05
 10
1633.304424175367
 20
2152.02923164721
 30
0.0
  0
VERTEX
  5
1F4
  8
LAYER_05
 10
1633.304424175367
 20
2178.88201590537
 30
0.0
  0
SEQEND
  5
1F5
  8
LAYER_05
  0
POLYLINE
  5
1F6
  8
LAYER_05
 66
     1
 10
0.0
 20
0.0
 30
0.0
 70
     1
  0
VERTEX
  5
1F7
  8
LAYER_05
 10
1461.057962620704
 20
2178.88201590537
 30
0.0
  0
VERTEX
  5
1F8
  8
LAYER_05
 10
1466.006203999697
 20
2166.935904458309
 30
0.0
  0
VERTEX
  5
1F9
  8
LAYER_05
 10
1471.684743866458
 20
2178.88201590537
 30
0.0
  0
SEQEND
  5
1FA
  8
LAYER_05
  0
POLYLINE
  5
1FB
  8
LAYER_05
 66
     1
 10
0.0
 20
0.0
 30
0.0
 70
     1
  0
VERTEX
  5
1FC
  8
LAYER_05
 10
1675.982093705031
 20
1933.200458582968
 30
0.0
  0
VERTEX
  5
1FD
  8
LAYER_05
 10
1757.7936647372
 20
1933.200458582969
 30
0.0
  0
VERTEX
  5
1FE
  8
LAYER_05
 10
1815.643181393571
 20
1793.539370894428
 30
0.0
  0
SEQEND
  5
1FF
  8
LAYER_05
  0
POLYLINE
  5
200
  8
LAYER_05
 66
     1
 10
0.0
 20
0.0
 30
0.0
 70
     1
  0
VERTEX
  5
201
  8
LAYER_05
 10
1838.292211695013
 20
1759.15783536897
 30
0.0
  0
VERTEX
  5
202
  8
LAYER_05
 10
1828.143181393573
 20
1763.361701364762
 30
0.0
  0
VERTEX
  5
203
  8
LAYER_05
 10
1832.347047389365
 20
1753.212671063322
 30
0.0
  0
VERTEX
  5
204
  8
LAYER_05
 10
1842.496077690805
 20
1749.00880506753
 30
0.0
  0
SEQEND
  5
205
  8
LAYER_05
  0
POLYLINE
  5
206
  8
LAYER_05
 66
     1
 10
0.0
 20
0.0
 30
0.0
 70
     1
  0
VERTEX
  5
207
  8
LAYER_05
 10
1658.304424175367
 20
1915.522789053305
 30
0.0
  0
VERTEX
  5
208
  8
LAYER_05
 10
1658.304424175367
 20
1833.711218021135
 30
0.0
  0
VERTEX
  5
209
  8
LAYER_05
 10
1797.965511863909
 20
1775.861701364763
 30
0.0
  0
SEQEND
  5
20A
  8
LAYER_05
  0
POLYLINE
  5
20B
  8
LAYER_05
 66
     1
 10
0.0
 20
0.0
 30
0.0
 70
     1
  0
VERTEX
  5
20C
  8
LAYER_05
 10
1845.036614733341
 20
1787.905493724665
 30
0.0
  0
VERTEX
  5
20D
  8
LAYER_05
 10
1894.352578602809
 20
1891.652938371897
 30
0.0
  0
VERTEX
  5
20E
  8
LAYER_05
 10
1786.120404489124
 20
1930.14180753988
 30
0.0
  0
SEQEND
  5
20F
  8
LAYER_05
  0
POLYLINE
  5
210
  8
LAYER_05
 66
     1
 10
0.0
 20
0.0
 30
0.0
 70
     1
  0
VERTEX
  5
211
  8
LAYER_05
 10
1961.993091257437
 20
1933.200458582968
 30
0.0
  0
VERTEX
  5
212
  8
LAYER_05
 10
1852.133197239608
 20
1933.200458582968
 30
0.0
  0
VERTEX
  5
213
  8
LAYER_05
 10
1911.244437493972
 20
1912.179677921964
 30
0.0
  0
SEQEND
  5
214
  8
LAYER_05
  0
POLYLINE
  5
215
  8
LAYER_05
 66
     1
 10
0.0
 20
0.0
 30
0.0
 70
     1
  0
VERTEX
  5
216
  8
LAYER_05
 10
1971.560177066565
 20
1910.103470270186
 30
0.0
  0
VERTEX
  5
217
  8
LAYER_05
 10
1920.811523303099
 20
1889.082689609183
 30
0.0
  0
VERTEX
  5
218
  8
LAYER_05
 10
1893.877501026122
 20
1832.420794229744
 30
0.0
  0
SEQEND
  5
219
  8
LAYER_05
  0
POLYLINE
  5
21A
  8
LAYER_05
 66
     1
 10
0.0
 20
0.0
 30
0.0
 70
     1
  0
VERTEX
  5
21B
  8
LAYER_05
 10
1911.555170555786
 20
1814.74312470008
 30
0.0
  0
VERTEX
  5
21C
  8
LAYER_05
 10
1968.217065935224
 20
1841.677146977057
 30
0.0
  0
VERTEX
  5
21D
  8
LAYER_05
 10
1989.237846596228
 20
1892.425800740521
 30
0.0
  0
SEQEND
  5
21E
  8
LAYER_05
  0
POLYLINE
  5
21F
  8
LAYER_05
 66
     1
 10
0.0
 20
0.0
 30
0.0
 70
     1
  0
VERTEX
  5
220
  8
LAYER_05
 10
2012.33483490901
 20
1772.998820913566
 30
0.0
  0
VERTEX
  5
221
  8
LAYER_05
 10
2012.33483490901
 20
1882.858714931395
 30
0.0
  0
VERTEX
  5
222
  8
LAYER_05
 10
1991.314054248006
 20
1832.110061167929
 30
0.0
  0
SEQEND
  5
223
  8
LAYER_05
  0
POLYLINE
  5
224
  8
LAYER_05
 66
     1
 10
0.0
 20
0.0
 30
0.0
 70
     1
  0
VERTEX
  5
225
  8
LAYER_05
 10
1615.626754645702
 20
1933.200458582968
 30
0.0
  0
VERTEX
  5
226
  8
LAYER_05
 10
1533.815183613533
 20
1933.200458582969
 30
0.0
  0
VERTEX
  5
227
  8
LAYER_05
 10
1475.965666957163
 20
1793.539370894428
 30
0.0
  0
SEQEND
  5
228
  8
LAYER_05
  0
POLYLINE
  5
229
  8
LAYER_05
 66
     1
 10
0.0
 20
0.0
 30
0.0
 70
     1
  0
VERTEX
  5
22A
  8
LAYER_05
 10
1453.316636655721
 20
1759.15783536897
 30
0.0
  0
VERTEX
  5
22B
  8
LAYER_05
 10
1463.465666957161
 20
1763.361701364762
 30
0.0
  0
VERTEX
  5
22C
  8
LAYER_05
 10
1459.261800961369
 20
1753.212671063322
 30
0.0
  0
VERTEX
  5
22D
  8
LAYER_05
 10
1449.112770659929
 20
1749.00880506753
 30
0.0
  0
SEQEND
  5
22E
  8
LAYER_05
  0
POLYLINE
  5
22F
  8
LAYER_05
 66
     1
 10
0.0
 20
0.0
 30
0.0
 70
     1
  0
VERTEX
  5
230
  8
LAYER_05
 10
1633.304424175367
 20
1915.522789053305
 30
0.0
  0
VERTEX
  5
231
  8
LAYER_05
 10
1633.304424175367
 20
1833.711218021135
 30
0.0
  0
VERTEX
  5
232
  8
LAYER_05
 10
1493.643336486825
 20
1775.861701364763
 30
0.0
  0
SEQEND
  5
233
  8
LAYER_05
  0
POLYLINE
  5
234
  8
LAYER_05
 66
     1
 10
0.0
 20
0.0
 30
0.0
 70
     1
  0
VERTEX
  5
235
  8
LAYER_05
 10
1446.572233617392
 20
1787.905493724665
 30
0.0
  0
VERTEX
  5
236
  8
LAYER_05
 10
1397.256269747925
 20
1891.652938371897
 30
0.0
  0
VERTEX
  5
237
  8
LAYER_05
 10
1505.48844386161
 20
1930.14180753988
 30
0.0
  0
SEQEND
  5
238
  8
LAYER_05
  0
POLYLINE
  5
239
  8
LAYER_05
 66
     1
 10
0.0
 20
0.0
 30
0.0
 70
     1
  0
VERTEX
  5
23A
  8
LAYER_05
 10
1329.615757093297
 20
1933.200458582968
 30
0.0
  0
VERTEX
  5
23B
  8
LAYER_05
 10
1439.475651111125
 20
1933.200458582968
 30
0.0
  0
VERTEX
  5
23C
  8
LAYER_05
 10
1380.364410856762
 20
1912.179677921964
 30
0.0
  0
SEQEND
  5
23D
  8
LAYER_05
  0
POLYLINE
  5
23E
  8
LAYER_05
 66
     1
 10
0.0
 20
0.0
 30
0.0
 70
     1
  0
VERTEX
  5
23F
  8
LAYER_05
 10
1320.048671284169
 20
1910.103470270186
 30
0.0
  0
VERTEX
  5
240
  8
LAYER_05
 10
1370.797325047635
 20
1889.082689609183
 30
0.0
  0
VERTEX
  5
241
  8
LAYER_05
 10
1397.731347324611
 20
1832.420794229744
 30
0.0
  0
SEQEND
  5
242
  8
LAYER_05
  0
POLYLINE
  5
243
  8
LAYER_05
 66
     1
 10
0.0
 20
0.0
 30
0.0
 70
     1
  0
VERTEX
  5
244
  8
LAYER_05
 10
1380.053677794948
 20
1814.74312470008
 30
0.0
  0
VERTEX
  5
245
  8
LAYER_05
 10
1323.39178241551
 20
1841.677146977057
 30
0.0
  0
VERTEX
  5
246
  8
LAYER_05
 10
1302.371001754506
 20
1892.425800740521
 30
0.0
  0
SEQEND
  5
247
  8
LAYER_05
  0
POLYLINE
  5
248
  8
LAYER_05
 66
     1
 10
0.0
 20
0.0
 30
0.0
 70
     1
  0
VERTEX
  5
249
  8
LAYER_05
 10
1279.274013441723
 20
1772.998820913566
 30
0.0
  0
VERTEX
  5
24A
  8
LAYER_05
 10
1279.274013441723
 20
1882.858714931395
 30
0.0
  0
VERTEX
  5
24B
  8
LAYER_05
 10
1300.294794102728
 20
1832.110061167929
 30
0.0
  0
SEQEND
  5
24C
  8
LAYER_05
  0
POLYLINE
  5
24D
  8
LAYER_05
 66
     1
 10
0.0
 20
0.0
 30
0.0
 70
     1
  0
VERTEX
  5
24E
  8
LAYER_05
 10
1675.982093705031
 20
1958.200458582968
 30
0.0
  0
VERTEX
  5
24F
  8
LAYER_05
 10
1757.7936647372
 20
1958.200458582968
 30
0.0
  0
VERTEX
  5
250
  8
LAYER_05
 10
1815.643181393571
 20
2097.861546271508
 30
0.0
  0
SEQEND
  5
251
  8
LAYER_05
  0
POLYLINE
  5
252
  8
LAYER_05
 66
     1
 10
0.0
 20
0.0
 30
0.0
 70
     1
  0
VERTEX
  5
253
  8
LAYER_05
 10
1838.292211695013
 20
2132.243081796966
 30
0.0
  0
VERTEX
  5
254
  8
LAYER_05
 10
1828.143181393573
 20
2128.039215801175
 30
0.0
  0
VERTEX
  5
255
  8
LAYER_05
 10
1832.347047389365
 20
2138.188246102614
 30
0.0
  0
VERTEX
  5
256
  8
LAYER_05
 10
1842.496077690805
 20
2142.392112098406
 30
0.0
  0
SEQEND
  5
257
  8
LAYER_05
  0
POLYLINE
  5
258
  8
LAYER_05
 66
     1
 10
0.0
 20
0.0
 30
0.0
 70
     1
  0
VERTEX
  5
259
  8
LAYER_05
 10
1658.304424175367
 20
1975.878128112631
 30
0.0
  0
VERTEX
  5
25A
  8
LAYER_05
 10
1658.304424175367
 20
2057.689699144802
 30
0.0
  0
VERTEX
  5
25B
  8
LAYER_05
 10
1797.965511863909
 20
2115.539215801174
 30
0.0
  0
SEQEND
  5
25C
  8
LAYER_05
  0
POLYLINE
  5
25D
  8
LAYER_05
 66
     1
 10
0.0
 20
0.0
 30
0.0
 70
     1
  0
VERTEX
  5
25E
  8
LAYER_05
 10
1845.036614733341
 20
2103.495423441271
 30
0.0
  0
VERTEX
  5
25F
  8
LAYER_05
 10
1894.352578602809
 20
1999.747978794039
 30
0.0
  0
VERTEX
  5
260
  8
LAYER_05
 10
1786.120404489124
 20
1961.259109626057
 30
0.0
  0
SEQEND
  5
261
  8
LAYER_05
  0
POLYLINE
  5
262
  8
LAYER_05
 66
     1
 10
0.0
 20
0.0
 30
0.0
 70
     1
  0
VERTEX
  5
263
  8
LAYER_05
 10
1961.993091257437
 20
1958.200458582968
 30
0.0
  0
VERTEX
  5
264
  8
LAYER_05
 10
1852.133197239608
 20
1958.200458582968
 30
0.0
  0
VERTEX
  5
265
  8
LAYER_05
 10
1911.244437493972
 20
1979.221239243972
 30
0.0
  0
SEQEND
  5
266
  8
LAYER_05
  0
POLYLINE
  5
267
  8
LAYER_05
 66
     1
 10
0.0
 20
0.0
 30
0.0
 70
     1
  0
VERTEX
  5
268
  8
LAYER_05
 10
1971.560177066565
 20
1981.29744689575
 30
0.0
  0
VERTEX
  5
269
  8
LAYER_05
 10
1920.811523303099
 20
2002.318227556754
 30
0.0
  0
VERTEX
  5
26A
  8
LAYER_05
 10
1893.877501026122
 20
2058.980122936192
 30
0.0
  0
SEQEND
  5
26B
  8
LAYER_05
  0
POLYLINE
  5
26C
  8
LAYER_05
 66
     1
 10
0.0
 20
0.0
 30
0.0
 70
     1
  0
VERTEX
  5
26D
  8
LAYER_05
 10
1911.555170555786
 20
2076.657792465856
 30
0.0
  0
VERTEX
  5
26E
  8
LAYER_05
 10
1968.217065935224
 20
2049.72377018888
 30
0.0
  0
VERTEX
  5
26F
  8
LAYER_05
 10
1989.237846596228
 20
1998.975116425415
 30
0.0
  0
SEQEND
  5
270
  8
LAYER_05
  0
POLYLINE
  5
271
  8
LAYER_05
 66
     1
 10
0.0
 20
0.0
 30
0.0
 70
     1
  0
VERTEX
  5
272
  8
LAYER_05
 10
2012.33483490901
 20
2118.40209625237
 30
0.0
  0
VERTEX
  5
273
  8
LAYER_05
 10
2012.33483490901
 20
2008.542202234541
 30
0.0
  0
VERTEX
  5
274
  8
LAYER_05
 10
1991.314054248006
 20
2059.290855998007
 30
0.0
  0
SEQEND
  5
275
  8
LAYER_05
  0
POLYLINE
  5
276
  8
LAYER_05
 66
     1
 10
0.0
 20
0.0
 30
0.0
 70
     1
  0
VERTEX
  5
277
  8
LAYER_05
 10
1615.626754645702
 20
1958.200458582968
 30
0.0
  0
VERTEX
  5
278
  8
LAYER_05
 10
1533.815183613533
 20
1958.200458582968
 30
0.0
  0
VERTEX
  5
279
  8
LAYER_05
 10
1475.965666957163
 20
2097.861546271508
 30
0.0
  0
SEQEND
  5
27A
  8
LAYER_05
  0
POLYLINE
  5
27B
  8
LAYER_05
 66
     1
 10
0.0
 20
0.0
 30
0.0
 70
     1
  0
VERTEX
  5
27C
  8
LAYER_05
 10
1453.316636655721
 20
2132.243081796966
 30
0.0
  0
VERTEX
  5
27D
  8
LAYER_05
 10
1463.465666957161
 20
2128.039215801175
 30
0.0
  0
VERTEX
  5
27E
  8
LAYER_05
 10
1459.261800961369
 20
2138.188246102614
 30
0.0
  0
VERTEX
  5
27F
  8
LAYER_05
 10
1449.112770659929
 20
2142.392112098406
 30
0.0
  0
SEQEND
  5
280
  8
LAYER_05
  0
POLYLINE
  5
281
  8
LAYER_05
 66
     1
 10
0.0
 20
0.0
 30
0.0
 70
     1
  0
VERTEX
  5
282
  8
LAYER_05
 10
1633.304424175367
 20
1975.878128112631
 30
0.0
  0
VERTEX
  5
283
  8
LAYER_05
 10
1633.304424175367
 20
2057.689699144802
 30
0.0
  0
VERTEX
  5
284
  8
LAYER_05
 10
1493.643336486825
 20
2115.539215801174
 30
0.0
  0
SEQEND
  5
285
  8
LAYER_05
  0
POLYLINE
  5
286
  8
LAYER_05
 66
     1
 10
0.0
 20
0.0
 30
0.0
 70
     1
  0
VERTEX
  5
287
  8
LAYER_05
 10
1446.572233617392
 20
2103.495423441271
 30
0.0
  0
VERTEX
  5
288
  8
LAYER_05
 10
1397.256269747925
 20
1999.747978794039
 30
0.0
  0
VERTEX
  5
289
  8
LAYER_05
 10
1505.48844386161
 20
1961.259109626057
 30
0.0
  0
SEQEND
  5
28A
  8
LAYER_05
  0
POLYLINE
  5
28B
  8
LAYER_05
 66
     1
 10
0.0
 20
0.0
 30
0.0
 70
     1
  0
VERTEX
  5
28C
  8
LAYER_05
 10
1329.615757093297
 20
1958.200458582968
 30
0.0
  0
VERTEX
  5
28D
  8
LAYER_05
 10
1439.475651111125
 20
1958.200458582968
 30
0.0
  0
VERTEX
  5
28E
  8
LAYER_05
 10
1380.364410856762
 20
1979.221239243972
 30
0.0
  0
SEQEND
  5
28F
  8
LAYER_05
  0
POLYLINE
  5
290
  8
LAYER_05
 66
     1
 10
0.0
 20
0.0
 30
0.0
 70
     1
  0
VERTEX
  5
291
  8
LAYER_05
 10
1320.048671284169
 20
1981.29744689575
 30
0.0
  0
VERTEX
  5
292
  8
LAYER_05
 10
1370.797325047635
 20
2002.318227556754
 30
0.0
  0
VERTEX
  5
293
  8
LAYER_05
 10
1397.731347324611
 20
2058.980122936192
 30
0.0
  0
SEQEND
  5
294
  8
LAYER_05
  0
POLYLINE
  5
295
  8
LAYER_05
 66
     1
 10
0.0
 20
0.0
 30
0.0
 70
     1
  0
VERTEX
  5
296
  8
LAYER_05
 10
1380.053677794948
 20
2076.657792465856
 30
0.0
  0
VERTEX
  5
297
  8
LAYER_05
 10
1323.39178241551
 20
2049.72377018888
 30
0.0
  0
VERTEX
  5
298
  8
LAYER_05
 10
1302.371001754506
 20
1998.975116425415
 30
0.0
  0
SEQEND
  5
299
  8
LAYER_05
  0
POLYLINE
  5
29A
  8
LAYER_05
 66
     1
 10
0.0
 20
0.0
 30
0.0
 70
     1
  0
VERTEX
  5
29B
  8
LAYER_05
 10
1279.274013441723
 20
2118.40209625237
 30
0.0
  0
VERTEX
  5
29C
  8
LAYER_05
 10
1279.274013441723
 20
2008.542202234541
 30
0.0
  0
VERTEX
  5
29D
  8
LAYER_05
 10
1300.294794102728
 20
2059.290855998007
 30
0.0
  0
SEQEND
  5
29E
  8
LAYER_05
  0
ENDSEC
  0
EOF
