  0
SECTION
  2
HEADER
  9
$ACADVER
  1
AC1009
  9
$DWGCODEPAGE
  3
ansi_1252
  9
$INSBASE
 10
0.0
 20
0.0
 30
0.0
  9
$EXTMIN
 10
1.000000000000000E+20
 20
1.000000000000000E+20
 30
1.000000000000000E+20
  9
$EXTMAX
 10
-1.000000000000000E+20
 20
-1.000000000000000E+20
 30
-1.000000000000000E+20
  9
$LIMMIN
 10
0.0
 20
0.0
  9
$LIMMAX
 10
12.0
 20
9.0
  9
$ORTHOMODE
 70
     0
  9
$REGENMODE
 70
     1
  9
$FILLMODE
 70
     1
  9
$QTEXTMODE
 70
     0
  9
$MIRRTEXT
 70
     1
  9
$DRAGMODE
 70
     2
  9
$LTSCALE
 40
1.0
  9
$OSMODE
 70
    37
  9
$ATTMODE
 70
     1
  9
$TEXTSIZE
 40
0.2
  9
$TRACEWID
 40
0.05
  9
$TEXTSTYLE
  7
STANDARD
  9
$CLAYER
  8
LAYER_01
  9
$CELTYPE
  6
BYLAYER
  9
$CECOLOR
 62
   256
  9
$DIMSCALE
 40
1.0
  9
$DIMASZ
 40
0.18
  9
$DIMEXO
 40
0.0625
  9
$DIMDLI
 40
0.38
  9
$DIMRND
 40
0.0
  9
$DIMDLE
 40
0.0
  9
$DIMEXE
 40
0.18
  9
$DIMTP
 40
0.0
  9
$DIMTM
 40
0.0
  9
$DIMTXT
 40
0.18
  9
$DIMCEN
 40
0.09
  9
$DIMTSZ
 40
0.0
  9
$DIMTOL
 70
     0
  9
$DIMLIM
 70
     0
  9
$DIMTIH
 70
     1
  9
$DIMTOH
 70
     1
  9
$DIMSE1
 70
     0
  9
$DIMSE2
 70
     0
  9
$DIMTAD
 70
     0
  9
$DIMZIN
 70
     0
  9
$DIMBLK
  1

  9
$DIMASO
 70
     1
  9
$DIMSHO
 70
     1
  9
$DIMPOST
  1

  9
$DIMAPOST
  1

  9
$DIMALT
 70
     0
  9
$DIMALTD
 70
     2
  9
$DIMALTF
 40
25.4
  9
$DIMLFAC
 40
1.0
  9
$DIMTOFL
 70
     0
  9
$DIMTVP
 40
0.0
  9
$DIMTIX
 70
     0
  9
$DIMSOXD
 70
     0
  9
$DIMSAH
 70
     0
  9
$DIMBLK1
  1

  9
$DIMBLK2
  1

  9
$DIMSTYLE
  2
STANDARD_ACAD
  9
$DIMCLRD
 70
     0
  9
$DIMCLRE
 70
     0
  9
$DIMCLRT
 70
     0
  9
$DIMTFAC
 40
1.0
  9
$DIMGAP
 40
0.09
  9
$LUNITS
 70
     2
  9
$LUPREC
 70
     3
  9
$SKETCHINC
 40
0.1
  9
$FILLETRAD
 40
0.5
  9
$AUNITS
 70
     0
  9
$AUPREC
 70
     0
  9
$MENU
  1
.
  9
$ELEVATION
 40
0.0
  9
$PELEVATION
 40
0.0
  9
$THICKNESS
 40
0.0
  9
$LIMCHECK
 70
     0
  9
$CHAMFERA
 40
0.0
  9
$CHAMFERB
 40
0.0
  9
$SKPOLY
 70
     0
  9
$TDCREATE
 40
2460000.925157269
  9
$TDUPDATE
 40
2460000.92515735
  9
$TDINDWG
 40
0.0000000116
  9
$TDUSRTIMER
 40
0.0000000116
  9
$USRTIMER
 70
     1
  9
$ANGBASE
 50
0.0
  9
$ANGDIR
 70
     0
  9
$PDMODE
 70
     0
  9
$PDSIZE
 40
0.0
  9
$PLINEWID
 40
0.0
  9
$COORDS
 70
     1
  9
$SPLFRAME
 70
     0
  9
$SPLINETYPE
 70
     6
  9
$SPLINESEGS
 70
     8
  9
$ATTDIA
 70
     0
  9
$ATTREQ
 70
     1
  9
$HANDLING
 70
     1
  9
$HANDSEED
  5
467
  9
$SURFTAB1
 70
     6
  9
$SURFTAB2
 70
     6
  9
$SURFTYPE
 70
     6
  9
$SURFU
 70
     6
  9
$SURFV
 70
     6
  9
$UCSNAME
  2

  9
$UCSORG
 10
0.0
 20
0.0
 30
0.0
  9
$UCSXDIR
 10
1.0
 20
0.0
 30
0.0
  9
$UCSYDIR
 10
0.0
 20
1.0
 30
0.0
  9
$PUCSNAME
  2

  9
$PUCSORG
 10
0.0
 20
0.0
 30
0.0
  9
$PUCSXDIR
 10
1.0
 20
0.0
 30
0.0
  9
$PUCSYDIR
 10
0.0
 20
1.0
 30
0.0
  9
$USERI1
 70
     0
  9
$USERI2
 70
     0
  9
$USERI3
 70
     0
  9
$USERI4
 70
     0
  9
$USERI5
 70
     0
  9
$USERR1
 40
0.0
  9
$USERR2
 40
0.0
  9
$USERR3
 40
0.0
  9
$USERR4
 40
0.0
  9
$USERR5
 40
0.0
  9
$WORLDVIEW
 70
     1
  9
$SHADEDGE
 70
     3
  9
$SHADEDIF
 70
    70
  9
$TILEMODE
 70
     1
  9
$MAXACTVP
 70
    64
  9
$PLIMCHECK
 70
     0
  9
$PEXTMIN
 10
1.000000000000000E+20
 20
1.000000000000000E+20
 30
1.000000000000000E+20
  9
$PEXTMAX
 10
-1.000000000000000E+20
 20
-1.000000000000000E+20
 30
-1.000000000000000E+20
  9
$PLIMMIN
 10
0.0
 20
0.0
  9
$PLIMMAX
 10
12.0
 20
9.0
  9
$UNITMODE
 70
     0
  9
$VISRETAIN
 70
     1
  9
$PLINEGEN
 70
     0
  9
$PSLTSCALE
 70
     1
  0
ENDSEC
  0
SECTION
  2
TABLES
  0
TABLE
  2
VPORT
 70
     1
  0
VPORT
  2
*ACTIVE
 70
     0
 10
0.0
 20
0.0
 11
1.0
 21
1.0
 12
10.42990654205607
 22
4.5
 13
0.0
 23
0.0
 14
0.5
 24
0.5
 15
0.5
 25
0.5
 16
0.0
 26
0.0
 36
1.0
 17
0.0
 27
0.0
 37
0.0
 40
9.0
 41
1.972972972850329
 42
50.0
 43
0.0
 44
0.0
 50
0.0
 51
0.0
 71
     0
 72
   100
 73
     1
 74
     3
 75
     0
 76
     0
 77
     0
 78
     0
  0
ENDTAB
  0
TABLE
  2
LTYPE
 70
     1
  0
LTYPE
  2
CONTINUOUS
 70
     0
  3
Solid line
 72
    65
 73
     0
 40
0.0
  0
ENDTAB
  0
TABLE
  2
LAYER
 70
     2
  0
LAYER
  2
0
 70
     0
 62
     7
  6
CONTINUOUS
  0
LAYER
  2
LAYER_01
 70
     0
 62
     7
  6
CONTINUOUS
  0
ENDTAB
  0
TABLE
  2
STYLE
 70
     1
  0
STYLE
  2
STANDARD
 70
     0
 40
0.0
 41
1.0
 50
0.0
 71
     0
 42
0.2
  3
txt
  4

  0
ENDTAB
  0
TABLE
  2
VIEW
 70
     0
  0
ENDTAB
  0
TABLE
  2
UCS
 70
     0
  0
ENDTAB
  0
TABLE
  2
APPID
 70
     2
  0
APPID
  2
ACAD
 70
     0
  0
APPID
  2
RHINO
 70
     0
  0
ENDTAB
  0
TABLE
  2
DIMSTYLE
 70
     1
  0
DIMSTYLE
  2
STANDARD_ACAD
 70
     0
  3

  4

  5

  6

  7

 40
1.0
 41
0.18
 42
0.0625
 43
0.38
 44
0.18
 45
0.0
 46
0.0
 47
0.0
 48
0.0
140
0.18
141
0.09
142
0.0
143
25.4
144
1.0
145
0.0
146
1.0
147
0.09
 71
     0
 72
     0
 73
     1
 74
     1
 75
     0
 76
     0
 77
     0
 78
     0
170
     0
171
     2
172
     0
173
     0
174
     0
175
     0
176
     0
177
     0
178
     0
  0
ENDTAB
  0
ENDSEC
  0
SECTION
  2
BLOCKS
  0
BLOCK
  8
0
  2
$MODEL_SPACE
 70
     0
 10
0.0
 20
0.0
 30
0.0
  3
$MODEL_SPACE
  1

  0
ENDBLK
  5
21
  8
0
  0
BLOCK
 67
     1
  8
0
  2
$PAPER_SPACE
 70
     0
 10
0.0
 20
0.0
 30
0.0
  3
$PAPER_SPACE
  1

  0
ENDBLK
  5
1D
 67
     1
  8
0
  0
ENDSEC
  0
SECTION
  2
ENTITIES
  0
POLYLINE
  5
70
  8
LAYER_01
 66
     1
 10
0.0
 20
0.0
 30
0.0
 70
     1
  0
VERTEX
  5
71
  8
LAYER_01
 10
83.30031957898122
 20
370.54733729034
 30
0.0
  0
VERTEX
  5
72
  8
LAYER_01
 10
888.0085802447068
 20
370.54733729034
 30
0.0
  0
VERTEX
  5
73
  8
LAYER_01
 10
888.0085802447068
 20
1175.255597956065
 30
0.0
  0
VERTEX
  5
74
  8
LAYER_01
 10
83.30031957898122
 20
1175.255597956065
 30
0.0
  0
SEQEND
  5
75
  8
LAYER_01
  0
POLYLINE
  5
76
  8
LAYER_01
 66
     1
 10
0.0
 20
0.0
 30
0.0
 70
     1
  0
VERTEX
  5
77
  8
LAYER_01
 10
93.30031957898122
 20
380.54733729034
 30
0.0
  0
VERTEX
  5
78
  8
LAYER_01
 10
878.0085802447068
 20
380.54733729034
 30
0.0
  0
VERTEX
  5
79
  8
LAYER_01
 10
878.0085802447068
 20
1165.255597956065
 30
0.0
  0
VERTEX
  5
7A
  8
LAYER_01
 10
93.30031957898122
 20
1165.255597956065
 30
0.0
  0
SEQEND
  5
7B
  8
LAYER_01
  0
POLYLINE
  5
7C
  8
LAYER_01
 66
     1
 10
0.0
 20
0.0
 30
0.0
 70
     1
  0
VERTEX
  5
7D
  8
LAYER_01
 10
637.6359144056371
 20
907.0541998763581
 30
0.0
 42
-0.0789514303424789
  0
VERTEX
  5
7E
  8
LAYER_01
 10
637.6359144056374
 20
900.3181555919552
 30
0.0
  0
VERTEX
  5
7F
  8
LAYER_01
 10
707.7447497414219
 20
871.2781251536915
 30
0.0
  0
VERTEX
  5
80
  8
LAYER_01
 10
740.1528023218868
 20
903.6861777341568
 30
0.0
  0
VERTEX
  5
81
  8
LAYER_01
 10
707.7447497414216
 20
936.0942303146221
 30
0.0
  0
SEQEND
  5
82
  8
LAYER_01
  0
POLYLINE
  5
83
  8
LAYER_01
 66
     1
 10
0.0
 20
0.0
 30
0.0
 70
     1
  0
VERTEX
  5
84
  8
LAYER_01
 10
376.0664941837287
 20
907.0541998763581
 30
0.0
 42
-0.0789514303424786
  0
VERTEX
  5
85
  8
LAYER_01
 10
376.066494183729
 20
900.3181555919552
 30
0.0
  0
VERTEX
  5
86
  8
LAYER_01
 10
446.1753295195134
 20
871.2781251536915
 30
0.0
  0
VERTEX
  5
87
  8
LAYER_01
 10
478.5833820999785
 20
903.6861777341568
 30
0.0
  0
VERTEX
  5
88
  8
LAYER_01
 10
446.1753295195131
 20
936.0942303146221
 30
0.0
  0
SEQEND
  5
89
  8
LAYER_01
  0
POLYLINE
  5
8A
  8
LAYER_01
 66
     1
 10
0.0
 20
0.0
 30
0.0
 70
     1
  0
VERTEX
  5
8B
  8
LAYER_01
 10
637.6359144056371
 20
645.4847796544498
 30
0.0
 42
-0.0789514303424789
  0
VERTEX
  5
8C
  8
LAYER_01
 10
637.6359144056374
 20
638.7487353700469
 30
0.0
  0
VERTEX
  5
8D
  8
LAYER_01
 10
707.7447497414219
 20
609.7087049317831
 30
0.0
  0
VERTEX
  5
8E
  8
LAYER_01
 10
740.1528023218868
 20
642.1167575122485
 30
0.0
  0
VERTEX
  5
8F
  8
LAYER_01
 10
707.7447497414216
 20
674.5248100927138
 30
0.0
  0
SEQEND
  5
90
  8
LAYER_01
  0
POLYLINE
  5
91
  8
LAYER_01
 66
     1
 10
0.0
 20
0.0
 30
0.0
 70
     1
  0
VERTEX
  5
92
  8
LAYER_01
 10
376.0664941837287
 20
645.4847796544498
 30
0.0
 42
-0.0789514303424786
  0
VERTEX
  5
93
  8
LAYER_01
 10
376.066494183729
 20
638.7487353700469
 30
0.0
  0
VERTEX
  5
94
  8
LAYER_01
 10
446.1753295195134
 20
609.7087049317831
 30
0.0
  0
VERTEX
  5
95
  8
LAYER_01
 10
478.5833820999785
 20
642.1167575122485
 30
0.0
  0
VERTEX
  5
96
  8
LAYER_01
 10
446.1753295195131
 20
674.5248100927138
 30
0.0
  0
SEQEND
  5
97
  8
LAYER_01
  0
POLYLINE
  5
98
  8
LAYER_01
 66
     1
 10
0.0
 20
0.0
 30
0.0
 70
     1
  0
VERTEX
  5
99
  8
LAYER_01
 10
619.8071821649999
 20
1144.058843573226
 30
0.0
 42
-0.0789514303425365
  0
VERTEX
  5
9A
  8
LAYER_01
 10
613.0711378805967
 20
1144.058843573226
 30
0.0
  0
VERTEX
  5
9B
  8
LAYER_01
 10
584.0311074423329
 20
1073.950008237442
 30
0.0
  0
VERTEX
  5
9C
  8
LAYER_01
 10
616.4391600227985
 20
1041.541955656976
 30
0.0
  0
VERTEX
  5
9D
  8
LAYER_01
 10
648.8472126032639
 20
1073.950008237442
 30
0.0
  0
SEQEND
  5
9E
  8
LAYER_01
  0
POLYLINE
  5
9F
  8
LAYER_01
 66
     1
 10
0.0
 20
0.0
 30
0.0
 70
     1
  0
VERTEX
  5
A0
  8
LAYER_01
 10
358.2377619430914
 20
1144.058843573226
 30
0.0
 42
-0.0789514303425657
  0
VERTEX
  5
A1
  8
LAYER_01
 10
351.5017176586883
 20
1144.058843573226
 30
0.0
  0
VERTEX
  5
A2
  8
LAYER_01
 10
322.4616872204244
 20
1073.950008237442
 30
0.0
  0
VERTEX
  5
A3
  8
LAYER_01
 10
354.8697398008901
 20
1041.541955656976
 30
0.0
  0
VERTEX
  5
A4
  8
LAYER_01
 10
387.2777923813554
 20
1073.950008237442
 30
0.0
  0
SEQEND
  5
A5
  8
LAYER_01
  0
POLYLINE
  5
A6
  8
LAYER_01
 66
     1
 10
0.0
 20
0.0
 30
0.0
 70
     1
  0
VERTEX
  5
A7
  8
LAYER_01
 10
114.4970739618202
 20
907.0541998763581
 30
0.0
 42
-0.0789514303424787
  0
VERTEX
  5
A8
  8
LAYER_01
 10
114.4970739618205
 20
900.3181555919552
 30
0.0
  0
VERTEX
  5
A9
  8
LAYER_01
 10
184.6059092976049
 20
871.2781251536915
 30
0.0
  0
VERTEX
  5
AA
  8
LAYER_01
 10
217.01396187807
 20
903.6861777341568
 30
0.0
  0
VERTEX
  5
AB
  8
LAYER_01
 10
184.6059092976047
 20
936.0942303146221
 30
0.0
  0
SEQEND
  5
AC
  8
LAYER_01
  0
POLYLINE
  5
AD
  8
LAYER_01
 66
     1
 10
0.0
 20
0.0
 30
0.0
 70
     1
  0
VERTEX
  5
AE
  8
LAYER_01
 10
114.4970739618202
 20
645.4847796544498
 30
0.0
 42
-0.0789514303424787
  0
VERTEX
  5
AF
  8
LAYER_01
 10
114.4970739618205
 20
638.7487353700469
 30
0.0
  0
VERTEX
  5
B0
  8
LAYER_01
 10
184.6059092976049
 20
609.7087049317831
 30
0.0
  0
VERTEX
  5
B1
  8
LAYER_01
 10
217.01396187807
 20
642.1167575122485
 30
0.0
  0
VERTEX
  5
B2
  8
LAYER_01
 10
184.6059092976047
 20
674.5248100927138
 30
0.0
  0
SEQEND
  5
B3
  8
LAYER_01
  0
POLYLINE
  5
B4
  8
LAYER_01
 66
     1
 10
0.0
 20
0.0
 30
0.0
 70
     1
  0
VERTEX
  5
B5
  8
LAYER_01
 10
619.8071821649999
 20
882.4894233513176
 30
0.0
 42
-0.07895143034252
  0
VERTEX
  5
B6
  8
LAYER_01
 10
613.0711378805967
 20
882.4894233513178
 30
0.0
  0
VERTEX
  5
B7
  8
LAYER_01
 10
584.0311074423329
 20
812.3805880155335
 30
0.0
  0
VERTEX
  5
B8
  8
LAYER_01
 10
616.4391600227985
 20
779.9725354350678
 30
0.0
  0
VERTEX
  5
B9
  8
LAYER_01
 10
648.8472126032639
 20
812.3805880155332
 30
0.0
  0
SEQEND
  5
BA
  8
LAYER_01
  0
POLYLINE
  5
BB
  8
LAYER_01
 66
     1
 10
0.0
 20
0.0
 30
0.0
 70
     1
  0
VERTEX
  5
BC
  8
LAYER_01
 10
358.2377619430914
 20
882.4894233513176
 30
0.0
 42
-0.078951430342549
  0
VERTEX
  5
BD
  8
LAYER_01
 10
351.5017176586883
 20
882.4894233513179
 30
0.0
  0
VERTEX
  5
BE
  8
LAYER_01
 10
322.4616872204244
 20
812.3805880155335
 30
0.0
  0
VERTEX
  5
BF
  8
LAYER_01
 10
354.8697398008901
 20
779.9725354350678
 30
0.0
  0
VERTEX
  5
C0
  8
LAYER_01
 10
387.2777923813554
 20
812.3805880155332
 30
0.0
  0
SEQEND
  5
C1
  8
LAYER_01
  0
POLYLINE
  5
C2
  8
LAYER_01
 66
     1
 10
0.0
 20
0.0
 30
0.0
 70
     1
  0
VERTEX
  5
C3
  8
LAYER_01
 10
619.8071821649999
 20
620.9200031294092
 30
0.0
 42
-0.07895143034252
  0
VERTEX
  5
C4
  8
LAYER_01
 10
613.0711378805967
 20
620.9200031294095
 30
0.0
  0
VERTEX
  5
C5
  8
LAYER_01
 10
584.0311074423329
 20
550.8111677936251
 30
0.0
  0
VERTEX
  5
C6
  8
LAYER_01
 10
616.4391600227985
 20
518.4031152131595
 30
0.0
  0
VERTEX
  5
C7
  8
LAYER_01
 10
648.8472126032639
 20
550.8111677936249
 30
0.0
  0
SEQEND
  5
C8
  8
LAYER_01
  0
POLYLINE
  5
C9
  8
LAYER_01
 66
     1
 10
0.0
 20
0.0
 30
0.0
 70
     1
  0
VERTEX
  5
CA
  8
LAYER_01
 10
358.2377619430914
 20
620.9200031294092
 30
0.0
 42
-0.078951430342549
  0
VERTEX
  5
CB
  8
LAYER_01
 10
351.5017176586883
 20
620.9200031294096
 30
0.0
  0
VERTEX
  5
CC
  8
LAYER_01
 10
322.4616872204244
 20
550.8111677936251
 30
0.0
  0
VERTEX
  5
CD
  8
LAYER_01
 10
354.8697398008901
 20
518.4031152131595
 30
0.0
  0
VERTEX
  5
CE
  8
LAYER_01
 10
387.2777923813554
 20
550.8111677936249
 30
0.0
  0
SEQEND
  5
CF
  8
LAYER_01
  0
POLYLINE
  5
D0
  8
LAYER_01
 66
     1
 10
0.0
 20
0.0
 30
0.0
 70
     1
  0
VERTEX
  5
D1
  8
LAYER_01
 10
613.0711378805968
 20
924.8829321169957
 30
0.0
 42
-0.0789514303424864
  0
VERTEX
  5
D2
  8
LAYER_01
 10
619.8071821649994
 20
924.8829321169959
 30
0.0
  0
VERTEX
  5
D3
  8
LAYER_01
 10
648.8472126032633
 20
994.9917674527803
 30
0.0
  0
VERTEX
  5
D4
  8
LAYER_01
 10
616.4391600227982
 20
1027.399820033246
 30
0.0
  0
VERTEX
  5
D5
  8
LAYER_01
 10
584.0311074423329
 20
994.9917674527803
 30
0.0
  0
SEQEND
  5
D6
  8
LAYER_01
  0
POLYLINE
  5
D7
  8
LAYER_01
 66
     1
 10
0.0
 20
0.0
 30
0.0
 70
     1
  0
VERTEX
  5
D8
  8
LAYER_01
 10
856.8118258618675
 20
900.3181555919554
 30
0.0
 42
-0.0789514303425151
  0
VERTEX
  5
D9
  8
LAYER_01
 10
856.8118258618676
 20
907.0541998763581
 30
0.0
  0
VERTEX
  5
DA
  8
LAYER_01
 10
786.7029905260832
 20
936.0942303146221
 30
0.0
  0
VERTEX
  5
DB
  8
LAYER_01
 10
754.2949379456178
 20
903.6861777341568
 30
0.0
  0
VERTEX
  5
DC
  8
LAYER_01
 10
786.7029905260833
 20
871.2781251536915
 30
0.0
  0
SEQEND
  5
DD
  8
LAYER_01
  0
POLYLINE
  5
DE
  8
LAYER_01
 66
     1
 10
0.0
 20
0.0
 30
0.0
 70
     1
  0
VERTEX
  5
DF
  8
LAYER_01
 10
613.0711378805968
 20
663.3135118950873
 30
0.0
 42
-0.0789514303424872
  0
VERTEX
  5
E0
  8
LAYER_01
 10
619.8071821649994
 20
663.3135118950876
 30
0.0
  0
VERTEX
  5
E1
  8
LAYER_01
 10
648.8472126032633
 20
733.422347230872
 30
0.0
  0
VERTEX
  5
E2
  8
LAYER_01
 10
616.4391600227982
 20
765.8303998113372
 30
0.0
  0
VERTEX
  5
E3
  8
LAYER_01
 10
584.0311074423329
 20
733.422347230872
 30
0.0
  0
SEQEND
  5
E4
  8
LAYER_01
  0
POLYLINE
  5
E5
  8
LAYER_01
 66
     1
 10
0.0
 20
0.0
 30
0.0
 70
     1
  0
VERTEX
  5
E6
  8
LAYER_01
 10
595.2424056399591
 20
900.3181555919554
 30
0.0
 42
-0.0789514303425146
  0
VERTEX
  5
E7
  8
LAYER_01
 10
595.2424056399592
 20
907.0541998763581
 30
0.0
  0
VERTEX
  5
E8
  8
LAYER_01
 10
525.1335703041748
 20
936.0942303146221
 30
0.0
  0
VERTEX
  5
E9
  8
LAYER_01
 10
492.7255177237093
 20
903.6861777341568
 30
0.0
  0
VERTEX
  5
EA
  8
LAYER_01
 10
525.1335703041749
 20
871.2781251536915
 30
0.0
  0
SEQEND
  5
EB
  8
LAYER_01
  0
POLYLINE
  5
EC
  8
LAYER_01
 66
     1
 10
0.0
 20
0.0
 30
0.0
 70
     1
  0
VERTEX
  5
ED
  8
LAYER_01
 10
856.8118258618675
 20
638.748735370047
 30
0.0
 42
-0.0789514303425151
  0
VERTEX
  5
EE
  8
LAYER_01
 10
856.8118258618676
 20
645.4847796544498
 30
0.0
  0
VERTEX
  5
EF
  8
LAYER_01
 10
786.7029905260832
 20
674.5248100927138
 30
0.0
  0
VERTEX
  5
F0
  8
LAYER_01
 10
754.2949379456178
 20
642.1167575122485
 30
0.0
  0
VERTEX
  5
F1
  8
LAYER_01
 10
786.7029905260833
 20
609.7087049317831
 30
0.0
  0
SEQEND
  5
F2
  8
LAYER_01
  0
POLYLINE
  5
F3
  8
LAYER_01
 66
     1
 10
0.0
 20
0.0
 30
0.0
 70
     1
  0
VERTEX
  5
F4
  8
LAYER_01
 10
595.2424056399591
 20
638.748735370047
 30
0.0
 42
-0.0789514303425146
  0
VERTEX
  5
F5
  8
LAYER_01
 10
595.2424056399592
 20
645.4847796544498
 30
0.0
  0
VERTEX
  5
F6
  8
LAYER_01
 10
525.1335703041748
 20
674.5248100927138
 30
0.0
  0
VERTEX
  5
F7
  8
LAYER_01
 10
492.7255177237093
 20
642.1167575122485
 30
0.0
  0
VERTEX
  5
F8
  8
LAYER_01
 10
525.1335703041749
 20
609.7087049317831
 30
0.0
  0
SEQEND
  5
F9
  8
LAYER_01
  0
POLYLINE
  5
FA
  8
LAYER_01
 66
     1
 10
0.0
 20
0.0
 30
0.0
 70
     1
  0
VERTEX
  5
FB
  8
LAYER_01
 10
351.5017176586884
 20
924.8829321169957
 30
0.0
 42
-0.0789514303424859
  0
VERTEX
  5
FC
  8
LAYER_01
 10
358.237761943091
 20
924.8829321169959
 30
0.0
  0
VERTEX
  5
FD
  8
LAYER_01
 10
387.2777923813549
 20
994.9917674527803
 30
0.0
  0
VERTEX
  5
FE
  8
LAYER_01
 10
354.8697398008898
 20
1027.399820033246
 30
0.0
  0
VERTEX
  5
FF
  8
LAYER_01
 10
322.4616872204244
 20
994.9917674527803
 30
0.0
  0
SEQEND
  5
100
  8
LAYER_01
  0
POLYLINE
  5
101
  8
LAYER_01
 66
     1
 10
0.0
 20
0.0
 30
0.0
 70
     1
  0
VERTEX
  5
102
  8
LAYER_01
 10
351.5017176586884
 20
663.3135118950873
 30
0.0
 42
-0.0789514303424868
  0
VERTEX
  5
103
  8
LAYER_01
 10
358.237761943091
 20
663.3135118950876
 30
0.0
  0
VERTEX
  5
104
  8
LAYER_01
 10
387.2777923813549
 20
733.422347230872
 30
0.0
  0
VERTEX
  5
105
  8
LAYER_01
 10
354.8697398008898
 20
765.8303998113372
 30
0.0
  0
VERTEX
  5
106
  8
LAYER_01
 10
322.4616872204244
 20
733.422347230872
 30
0.0
  0
SEQEND
  5
107
  8
LAYER_01
  0
POLYLINE
  5
108
  8
LAYER_01
 66
     1
 10
0.0
 20
0.0
 30
0.0
 70
     1
  0
VERTEX
  5
109
  8
LAYER_01
 10
333.6729854180506
 20
900.3181555919554
 30
0.0
 42
-0.0789514303425143
  0
VERTEX
  5
10A
  8
LAYER_01
 10
333.6729854180508
 20
907.0541998763581
 30
0.0
  0
VERTEX
  5
10B
  8
LAYER_01
 10
263.5641500822663
 20
936.0942303146221
 30
0.0
  0
VERTEX
  5
10C
  8
LAYER_01
 10
231.1560975018009
 20
903.6861777341568
 30
0.0
  0
VERTEX
  5
10D
  8
LAYER_01
 10
263.5641500822665
 20
871.2781251536915
 30
0.0
  0
SEQEND
  5
10E
  8
LAYER_01
  0
POLYLINE
  5
10F
  8
LAYER_01
 66
     1
 10
0.0
 20
0.0
 30
0.0
 70
     1
  0
VERTEX
  5
110
  8
LAYER_01
 10
333.6729854180506
 20
638.748735370047
 30
0.0
 42
-0.0789514303425142
  0
VERTEX
  5
111
  8
LAYER_01
 10
333.6729854180508
 20
645.4847796544498
 30
0.0
  0
VERTEX
  5
112
  8
LAYER_01
 10
263.5641500822663
 20
674.5248100927138
 30
0.0
  0
VERTEX
  5
113
  8
LAYER_01
 10
231.1560975018009
 20
642.1167575122485
 30
0.0
  0
VERTEX
  5
114
  8
LAYER_01
 10
263.5641500822665
 20
609.7087049317831
 30
0.0
  0
SEQEND
  5
115
  8
LAYER_01
  0
POLYLINE
  5
116
  8
LAYER_01
 66
     1
 10
0.0
 20
0.0
 30
0.0
 70
     1
  0
VERTEX
  5
117
  8
LAYER_01
 10
613.0711378805968
 20
401.7440916731791
 30
0.0
 42
-0.0789514303424948
  0
VERTEX
  5
118
  8
LAYER_01
 10
619.8071821649994
 20
401.7440916731792
 30
0.0
  0
VERTEX
  5
119
  8
LAYER_01
 10
648.8472126032633
 20
471.8529270089637
 30
0.0
  0
VERTEX
  5
11A
  8
LAYER_01
 10
616.4391600227982
 20
504.2609795894288
 30
0.0
  0
VERTEX
  5
11B
  8
LAYER_01
 10
584.0311074423329
 20
471.8529270089636
 30
0.0
  0
SEQEND
  5
11C
  8
LAYER_01
  0
POLYLINE
  5
11D
  8
LAYER_01
 66
     1
 10
0.0
 20
0.0
 30
0.0
 70
     1
  0
VERTEX
  5
11E
  8
LAYER_01
 10
351.5017176586884
 20
401.7440916731791
 30
0.0
 42
-0.0789514303425015
  0
VERTEX
  5
11F
  8
LAYER_01
 10
358.237761943091
 20
401.7440916731791
 30
0.0
  0
VERTEX
  5
120
  8
LAYER_01
 10
387.2777923813549
 20
471.8529270089637
 30
0.0
  0
VERTEX
  5
121
  8
LAYER_01
 10
354.8697398008898
 20
504.2609795894288
 30
0.0
  0
VERTEX
  5
122
  8
LAYER_01
 10
322.4616872204244
 20
471.8529270089636
 30
0.0
  0
SEQEND
  5
123
  8
LAYER_01
  0
POLYLINE
  5
124
  8
LAYER_01
 66
     1
 10
0.0
 20
0.0
 30
0.0
  0
VERTEX
  5
125
  8
LAYER_01
 10
878.0085802447066
 20
1027.399820033246
 30
0.0
  0
VERTEX
  5
126
  8
LAYER_01
 10
845.6005276642413
 20
994.9917674527803
 30
0.0
  0
VERTEX
  5
127
  8
LAYER_01
 10
874.6405581025053
 20
924.8829321169958
 30
0.0
 42
-0.0394143898794684
  0
VERTEX
  5
128
  8
LAYER_01
 10
878.0085802447065
 20
925.1488422825478
 30
0.0
  0
SEQEND
  5
129
  8
LAYER_01
  0
POLYLINE
  5
12A
  8
LAYER_01
 66
     1
 10
0.0
 20
0.0
 30
0.0
  0
VERTEX
  5
12B
  8
LAYER_01
 10
637.9018245711895
 20
1165.255597956065
 30
0.0
 42
-0.0394143898794876
  0
VERTEX
  5
12C
  8
LAYER_01
 10
637.6359144056374
 20
1161.887575813863
 30
0.0
  0
VERTEX
  5
12D
  8
LAYER_01
 10
707.7447497414219
 20
1132.8475453756
 30
0.0
  0
VERTEX
  5
12E
  8
LAYER_01
 10
740.1528023218871
 20
1165.255597956065
 30
0.0
  0
SEQEND
  5
12F
  8
LAYER_01
  0
POLYLINE
  5
130
  8
LAYER_01
 66
     1
 10
0.0
 20
0.0
 30
0.0
  0
VERTEX
  5
131
  8
LAYER_01
 10
878.0085802447068
 20
1143.792933407674
 30
0.0
 42
-0.0394143898794849
  0
VERTEX
  5
132
  8
LAYER_01
 10
874.6405581025051
 20
1144.058843573226
 30
0.0
  0
VERTEX
  5
133
  8
LAYER_01
 10
845.6005276642413
 20
1073.950008237442
 30
0.0
  0
VERTEX
  5
134
  8
LAYER_01
 10
878.0085802447065
 20
1041.541955656976
 30
0.0
  0
SEQEND
  5
135
  8
LAYER_01
  0
POLYLINE
  5
136
  8
LAYER_01
 66
     1
 10
0.0
 20
0.0
 30
0.0
  0
VERTEX
  5
137
  8
LAYER_01
 10
754.2949379456178
 20
1165.255597956065
 30
0.0
  0
VERTEX
  5
138
  8
LAYER_01
 10
786.7029905260833
 20
1132.8475453756
 30
0.0
  0
VERTEX
  5
139
  8
LAYER_01
 10
856.8118258618675
 20
1161.887575813864
 30
0.0
 42
-0.0394143898794632
  0
VERTEX
  5
13A
  8
LAYER_01
 10
856.5459156963154
 20
1165.255597956065
 30
0.0
  0
SEQEND
  5
13B
  8
LAYER_01
  0
POLYLINE
  5
13C
  8
LAYER_01
 66
     1
 10
0.0
 20
0.0
 30
0.0
 70
     1
  0
VERTEX
  5
13D
  8
LAYER_01
 10
860.6386601855185
 20
916.2929952014708
 30
0.0
 42
-0.0789514303425205
  0
VERTEX
  5
13E
  8
LAYER_01
 10
865.4017627773926
 20
921.0560977933449
 30
0.0
  0
VERTEX
  5
13F
  8
LAYER_01
 10
837.9468590169396
 20
987.3380988054784
 30
0.0
  0
VERTEX
  5
140
  8
LAYER_01
 10
794.356659173385
 20
943.7478989619239
 30
0.0
  0
SEQEND
  5
141
  8
LAYER_01
  0
POLYLINE
  5
142
  8
LAYER_01
 66
     1
 10
0.0
 20
0.0
 30
0.0
 70
     1
  0
VERTEX
  5
143
  8
LAYER_01
 10
629.0459774901124
 20
921.0560977933449
 30
0.0
 42
-0.0789514303425171
  0
VERTEX
  5
144
  8
LAYER_01
 10
633.8090800819863
 20
916.2929952014708
 30
0.0
  0
VERTEX
  5
145
  8
LAYER_01
 10
700.0910810941198
 20
943.7478989619239
 30
0.0
  0
VERTEX
  5
146
  8
LAYER_01
 10
656.5008812505653
 20
987.3380988054785
 30
0.0
  0
SEQEND
  5
147
  8
LAYER_01
  0
POLYLINE
  5
148
  8
LAYER_01
 66
     1
 10
0.0
 20
0.0
 30
0.0
 70
     1
  0
VERTEX
  5
149
  8
LAYER_01
 10
633.8090800819866
 20
1152.648780488751
 30
0.0
 42
-0.0789514303425185
  0
VERTEX
  5
14A
  8
LAYER_01
 10
629.0459774901127
 20
1147.885677896877
 30
0.0
  0
VERTEX
  5
14B
  8
LAYER_01
 10
656.5008812505657
 20
1081.603676884743
 30
0.0
  0
VERTEX
  5
14C
  8
LAYER_01
 10
700.09108109412
 20
1125.193876728298
 30
0.0
  0
SEQEND
  5
14D
  8
LAYER_01
  0
POLYLINE
  5
14E
  8
LAYER_01
 66
     1
 10
0.0
 20
0.0
 30
0.0
 70
     1
  0
VERTEX
  5
14F
  8
LAYER_01
 10
865.4017627773924
 20
1147.885677896877
 30
0.0
 42
-0.0789514303425173
  0
VERTEX
  5
150
  8
LAYER_01
 10
860.6386601855185
 20
1152.648780488751
 30
0.0
  0
VERTEX
  5
151
  8
LAYER_01
 10
794.3566591733851
 20
1125.193876728298
 30
0.0
  0
VERTEX
  5
152
  8
LAYER_01
 10
837.9468590169396
 20
1081.603676884743
 30
0.0
  0
SEQEND
  5
153
  8
LAYER_01
  0
POLYLINE
  5
154
  8
LAYER_01
 66
     1
 10
0.0
 20
0.0
 30
0.0
 70
     1
  0
VERTEX
  5
155
  8
LAYER_01
 10
768.4206245165914
 20
1031.10286570291
 30
0.0
 42
0.078951430342521
  0
VERTEX
  5
156
  8
LAYER_01
 10
768.4206245165914
 20
1037.838909987312
 30
0.0
  0
VERTEX
  5
157
  8
LAYER_01
 10
838.5294598523758
 20
1066.878940425576
 30
0.0
  0
VERTEX
  5
158
  8
LAYER_01
 10
870.9375124328412
 20
1034.470887845111
 30
0.0
  0
VERTEX
  5
159
  8
LAYER_01
 10
838.529459852376
 20
1002.062835264646
 30
0.0
  0
SEQEND
  5
15A
  8
LAYER_01
  0
POLYLINE
  5
15B
  8
LAYER_01
 66
     1
 10
0.0
 20
0.0
 30
0.0
 70
     1
  0
VERTEX
  5
15C
  8
LAYER_01
 10
750.5918922759538
 20
1055.66764222795
 30
0.0
 42
0.0789514303425208
  0
VERTEX
  5
15D
  8
LAYER_01
 10
743.855847991551
 20
1055.66764222795
 30
0.0
  0
VERTEX
  5
15E
  8
LAYER_01
 10
714.8158175532872
 20
1125.776477563734
 30
0.0
  0
VERTEX
  5
15F
  8
LAYER_01
 10
747.2238701337524
 20
1158.1845301442
 30
0.0
  0
VERTEX
  5
160
  8
LAYER_01
 10
779.6319227142178
 20
1125.776477563734
 30
0.0
  0
SEQEND
  5
161
  8
LAYER_01
  0
POLYLINE
  5
162
  8
LAYER_01
 66
     1
 10
0.0
 20
0.0
 30
0.0
 70
     1
  0
VERTEX
  5
163
  8
LAYER_01
 10
743.855847991551
 20
1013.274133462272
 30
0.0
 42
0.078951430342521
  0
VERTEX
  5
164
  8
LAYER_01
 10
750.5918922759538
 20
1013.274133462272
 30
0.0
  0
VERTEX
  5
165
  8
LAYER_01
 10
779.6319227142178
 20
943.1652981264876
 30
0.0
  0
VERTEX
  5
166
  8
LAYER_01
 10
747.2238701337524
 20
910.7572455460222
 30
0.0
  0
VERTEX
  5
167
  8
LAYER_01
 10
714.815817553287
 20
943.1652981264875
 30
0.0
  0
SEQEND
  5
168
  8
LAYER_01
  0
POLYLINE
  5
169
  8
LAYER_01
 66
     1
 10
0.0
 20
0.0
 30
0.0
 70
     1
  0
VERTEX
  5
16A
  8
LAYER_01
 10
764.5937901929404
 20
1047.077705312425
 30
0.0
 42
0.0789514303425188
  0
VERTEX
  5
16B
  8
LAYER_01
 10
759.8306876010665
 20
1051.840807904299
 30
0.0
  0
VERTEX
  5
16C
  8
LAYER_01
 10
787.2855913615196
 20
1118.122808916432
 30
0.0
  0
VERTEX
  5
16D
  8
LAYER_01
 10
830.875791205074
 20
1074.532609072878
 30
0.0
  0
SEQEND
  5
16E
  8
LAYER_01
  0
POLYLINE
  5
16F
  8
LAYER_01
 66
     1
 10
0.0
 20
0.0
 30
0.0
 70
     1
  0
VERTEX
  5
170
  8
LAYER_01
 10
729.8539500745643
 20
1021.864070377797
 30
0.0
 42
0.0789514303425168
  0
VERTEX
  5
171
  8
LAYER_01
 10
734.6170526664383
 20
1017.100967785923
 30
0.0
  0
VERTEX
  5
172
  8
LAYER_01
 10
707.1621489059853
 20
950.8189667737893
 30
0.0
  0
VERTEX
  5
173
  8
LAYER_01
 10
663.5719490624307
 20
994.4091666173439
 30
0.0
  0
SEQEND
  5
174
  8
LAYER_01
  0
POLYLINE
  5
175
  8
LAYER_01
 66
     1
 10
0.0
 20
0.0
 30
0.0
 70
     1
  0
VERTEX
  5
176
  8
LAYER_01
 10
726.0271157509134
 20
1037.838909987312
 30
0.0
 42
0.078951430342521
  0
VERTEX
  5
177
  8
LAYER_01
 10
726.0271157509133
 20
1031.10286570291
 30
0.0
  0
VERTEX
  5
178
  8
LAYER_01
 10
655.9182804151288
 20
1002.062835264646
 30
0.0
  0
VERTEX
  5
179
  8
LAYER_01
 10
623.5102278346637
 20
1034.470887845111
 30
0.0
  0
VERTEX
  5
17A
  8
LAYER_01
 10
655.9182804151291
 20
1066.878940425576
 30
0.0
  0
SEQEND
  5
17B
  8
LAYER_01
  0
POLYLINE
  5
17C
  8
LAYER_01
 66
     1
 10
0.0
 20
0.0
 30
0.0
 70
     1
  0
VERTEX
  5
17D
  8
LAYER_01
 10
734.6170526664382
 20
1051.840807904299
 30
0.0
 42
0.0789514303425191
  0
VERTEX
  5
17E
  8
LAYER_01
 10
729.8539500745643
 20
1047.077705312425
 30
0.0
  0
VERTEX
  5
17F
  8
LAYER_01
 10
663.5719490624308
 20
1074.532609072878
 30
0.0
  0
VERTEX
  5
180
  8
LAYER_01
 10
707.1621489059854
 20
1118.122808916433
 30
0.0
  0
SEQEND
  5
181
  8
LAYER_01
  0
POLYLINE
  5
182
  8
LAYER_01
 66
     1
 10
0.0
 20
0.0
 30
0.0
 70
     1
  0
VERTEX
  5
183
  8
LAYER_01
 10
759.8306876010665
 20
1017.100967785923
 30
0.0
 42
0.0789514303425188
  0
VERTEX
  5
184
  8
LAYER_01
 10
764.5937901929406
 20
1021.864070377797
 30
0.0
  0
VERTEX
  5
185
  8
LAYER_01
 10
830.875791205074
 20
994.4091666173439
 30
0.0
  0
VERTEX
  5
186
  8
LAYER_01
 10
787.2855913615196
 20
950.8189667737893
 30
0.0
  0
SEQEND
  5
187
  8
LAYER_01
  0
POLYLINE
  5
188
  8
LAYER_01
 66
     1
 10
0.0
 20
0.0
 30
0.0
  0
VERTEX
  5
189
  8
LAYER_01
 10
376.332404349281
 20
1165.255597956065
 30
0.0
 42
-0.0394143898794876
  0
VERTEX
  5
18A
  8
LAYER_01
 10
376.066494183729
 20
1161.887575813863
 30
0.0
  0
VERTEX
  5
18B
  8
LAYER_01
 10
446.1753295195134
 20
1132.8475453756
 30
0.0
  0
VERTEX
  5
18C
  8
LAYER_01
 10
478.5833820999786
 20
1165.255597956065
 30
0.0
  0
SEQEND
  5
18D
  8
LAYER_01
  0
POLYLINE
  5
18E
  8
LAYER_01
 66
     1
 10
0.0
 20
0.0
 30
0.0
  0
VERTEX
  5
18F
  8
LAYER_01
 10
492.7255177237093
 20
1165.255597956065
 30
0.0
  0
VERTEX
  5
190
  8
LAYER_01
 10
525.1335703041749
 20
1132.8475453756
 30
0.0
  0
VERTEX
  5
191
  8
LAYER_01
 10
595.2424056399591
 20
1161.887575813864
 30
0.0
 42
-0.0394143898794647
  0
VERTEX
  5
192
  8
LAYER_01
 10
594.976495474407
 20
1165.255597956065
 30
0.0
  0
SEQEND
  5
193
  8
LAYER_01
  0
POLYLINE
  5
194
  8
LAYER_01
 66
     1
 10
0.0
 20
0.0
 30
0.0
 70
     1
  0
VERTEX
  5
195
  8
LAYER_01
 10
599.06923996361
 20
916.2929952014708
 30
0.0
 42
-0.0789514303425208
  0
VERTEX
  5
196
  8
LAYER_01
 10
603.8323425554842
 20
921.0560977933449
 30
0.0
  0
VERTEX
  5
197
  8
LAYER_01
 10
576.3774387950311
 20
987.3380988054784
 30
0.0
  0
VERTEX
  5
198
  8
LAYER_01
 10
532.7872389514765
 20
943.7478989619239
 30
0.0
  0
SEQEND
  5
199
  8
LAYER_01
  0
POLYLINE
  5
19A
  8
LAYER_01
 66
     1
 10
0.0
 20
0.0
 30
0.0
 70
     1
  0
VERTEX
  5
19B
  8
LAYER_01
 10
367.4765572682039
 20
921.0560977933449
 30
0.0
 42
-0.0789514303425178
  0
VERTEX
  5
19C
  8
LAYER_01
 10
372.2396598600778
 20
916.2929952014708
 30
0.0
  0
VERTEX
  5
19D
  8
LAYER_01
 10
438.5216608722113
 20
943.7478989619239
 30
0.0
  0
VERTEX
  5
19E
  8
LAYER_01
 10
394.9314610286568
 20
987.3380988054785
 30
0.0
  0
SEQEND
  5
19F
  8
LAYER_01
  0
POLYLINE
  5
1A0
  8
LAYER_01
 66
     1
 10
0.0
 20
0.0
 30
0.0
 70
     1
  0
VERTEX
  5
1A1
  8
LAYER_01
 10
372.2396598600781
 20
1152.648780488751
 30
0.0
 42
-0.0789514303425187
  0
VERTEX
  5
1A2
  8
LAYER_01
 10
367.4765572682041
 20
1147.885677896877
 30
0.0
  0
VERTEX
  5
1A3
  8
LAYER_01
 10
394.9314610286572
 20
1081.603676884743
 30
0.0
  0
VERTEX
  5
1A4
  8
LAYER_01
 10
438.5216608722116
 20
1125.193876728298
 30
0.0
  0
SEQEND
  5
1A5
  8
LAYER_01
  0
POLYLINE
  5
1A6
  8
LAYER_01
 66
     1
 10
0.0
 20
0.0
 30
0.0
 70
     1
  0
VERTEX
  5
1A7
  8
LAYER_01
 10
603.8323425554838
 20
1147.885677896877
 30
0.0
 42
-0.0789514303425171
  0
VERTEX
  5
1A8
  8
LAYER_01
 10
599.06923996361
 20
1152.648780488751
 30
0.0
  0
VERTEX
  5
1A9
  8
LAYER_01
 10
532.7872389514766
 20
1125.193876728298
 30
0.0
  0
VERTEX
  5
1AA
  8
LAYER_01
 10
576.3774387950311
 20
1081.603676884743
 30
0.0
  0
SEQEND
  5
1AB
  8
LAYER_01
  0
POLYLINE
  5
1AC
  8
LAYER_01
 66
     1
 10
0.0
 20
0.0
 30
0.0
 70
     1
  0
VERTEX
  5
1AD
  8
LAYER_01
 10
506.851204294683
 20
1031.10286570291
 30
0.0
 42
0.0789514303425208
  0
VERTEX
  5
1AE
  8
LAYER_01
 10
506.851204294683
 20
1037.838909987312
 30
0.0
  0
VERTEX
  5
1AF
  8
LAYER_01
 10
576.9600396304673
 20
1066.878940425576
 30
0.0
  0
VERTEX
  5
1B0
  8
LAYER_01
 10
609.3680922109327
 20
1034.470887845111
 30
0.0
  0
VERTEX
  5
1B1
  8
LAYER_01
 10
576.9600396304675
 20
1002.062835264646
 30
0.0
  0
SEQEND
  5
1B2
  8
LAYER_01
  0
POLYLINE
  5
1B3
  8
LAYER_01
 66
     1
 10
0.0
 20
0.0
 30
0.0
 70
     1
  0
VERTEX
  5
1B4
  8
LAYER_01
 10
489.0224720540454
 20
1055.66764222795
 30
0.0
 42
0.0789514303425195
  0
VERTEX
  5
1B5
  8
LAYER_01
 10
482.2864277696427
 20
1055.66764222795
 30
0.0
  0
VERTEX
  5
1B6
  8
LAYER_01
 10
453.2463973313787
 20
1125.776477563734
 30
0.0
  0
VERTEX
  5
1B7
  8
LAYER_01
 10
485.654449911844
 20
1158.1845301442
 30
0.0
  0
VERTEX
  5
1B8
  8
LAYER_01
 10
518.0625024923094
 20
1125.776477563734
 30
0.0
  0
SEQEND
  5
1B9
  8
LAYER_01
  0
POLYLINE
  5
1BA
  8
LAYER_01
 66
     1
 10
0.0
 20
0.0
 30
0.0
 70
     1
  0
VERTEX
  5
1BB
  8
LAYER_01
 10
482.2864277696427
 20
1013.274133462272
 30
0.0
 42
0.0789514303425197
  0
VERTEX
  5
1BC
  8
LAYER_01
 10
489.0224720540454
 20
1013.274133462272
 30
0.0
  0
VERTEX
  5
1BD
  8
LAYER_01
 10
518.0625024923094
 20
943.1652981264876
 30
0.0
  0
VERTEX
  5
1BE
  8
LAYER_01
 10
485.6544499118439
 20
910.7572455460222
 30
0.0
  0
VERTEX
  5
1BF
  8
LAYER_01
 10
453.2463973313786
 20
943.1652981264875
 30
0.0
  0
SEQEND
  5
1C0
  8
LAYER_01
  0
POLYLINE
  5
1C1
  8
LAYER_01
 66
     1
 10
0.0
 20
0.0
 30
0.0
 70
     1
  0
VERTEX
  5
1C2
  8
LAYER_01
 10
503.0243699710321
 20
1047.077705312425
 30
0.0
 42
0.0789514303425187
  0
VERTEX
  5
1C3
  8
LAYER_01
 10
498.2612673791581
 20
1051.840807904299
 30
0.0
  0
VERTEX
  5
1C4
  8
LAYER_01
 10
525.7161711396111
 20
1118.122808916432
 30
0.0
  0
VERTEX
  5
1C5
  8
LAYER_01
 10
569.3063709831656
 20
1074.532609072878
 30
0.0
  0
SEQEND
  5
1C6
  8
LAYER_01
  0
POLYLINE
  5
1C7
  8
LAYER_01
 66
     1
 10
0.0
 20
0.0
 30
0.0
 70
     1
  0
VERTEX
  5
1C8
  8
LAYER_01
 10
468.2845298526559
 20
1021.864070377797
 30
0.0
 42
0.0789514303425168
  0
VERTEX
  5
1C9
  8
LAYER_01
 10
473.0476324445299
 20
1017.100967785923
 30
0.0
  0
VERTEX
  5
1CA
  8
LAYER_01
 10
445.5927286840769
 20
950.8189667737893
 30
0.0
  0
VERTEX
  5
1CB
  8
LAYER_01
 10
402.0025288405222
 20
994.4091666173439
 30
0.0
  0
SEQEND
  5
1CC
  8
LAYER_01
  0
POLYLINE
  5
1CD
  8
LAYER_01
 66
     1
 10
0.0
 20
0.0
 30
0.0
 70
     1
  0
VERTEX
  5
1CE
  8
LAYER_01
 10
464.457695529005
 20
1037.838909987312
 30
0.0
 42
0.0789514303425208
  0
VERTEX
  5
1CF
  8
LAYER_01
 10
464.457695529005
 20
1031.10286570291
 30
0.0
  0
VERTEX
  5
1D0
  8
LAYER_01
 10
394.3488601932204
 20
1002.062835264646
 30
0.0
  0
VERTEX
  5
1D1
  8
LAYER_01
 10
361.9408076127552
 20
1034.470887845111
 30
0.0
  0
VERTEX
  5
1D2
  8
LAYER_01
 10
394.3488601932206
 20
1066.878940425576
 30
0.0
  0
SEQEND
  5
1D3
  8
LAYER_01
  0
POLYLINE
  5
1D4
  8
LAYER_01
 66
     1
 10
0.0
 20
0.0
 30
0.0
 70
     1
  0
VERTEX
  5
1D5
  8
LAYER_01
 10
473.0476324445298
 20
1051.840807904299
 30
0.0
 42
0.0789514303425182
  0
VERTEX
  5
1D6
  8
LAYER_01
 10
468.2845298526559
 20
1047.077705312425
 30
0.0
  0
VERTEX
  5
1D7
  8
LAYER_01
 10
402.0025288405224
 20
1074.532609072878
 30
0.0
  0
VERTEX
  5
1D8
  8
LAYER_01
 10
445.592728684077
 20
1118.122808916433
 30
0.0
  0
SEQEND
  5
1D9
  8
LAYER_01
  0
POLYLINE
  5
1DA
  8
LAYER_01
 66
     1
 10
0.0
 20
0.0
 30
0.0
 70
     1
  0
VERTEX
  5
1DB
  8
LAYER_01
 10
498.2612673791581
 20
1017.100967785923
 30
0.0
 42
0.0789514303425189
  0
VERTEX
  5
1DC
  8
LAYER_01
 10
503.0243699710322
 20
1021.864070377797
 30
0.0
  0
VERTEX
  5
1DD
  8
LAYER_01
 10
569.3063709831656
 20
994.4091666173439
 30
0.0
  0
VERTEX
  5
1DE
  8
LAYER_01
 10
525.7161711396111
 20
950.8189667737893
 30
0.0
  0
SEQEND
  5
1DF
  8
LAYER_01
  0
POLYLINE
  5
1E0
  8
LAYER_01
 66
     1
 10
0.0
 20
0.0
 30
0.0
  0
VERTEX
  5
1E1
  8
LAYER_01
 10
93.30031957898129
 20
925.1488422825479
 30
0.0
 42
-0.0394143898794786
  0
VERTEX
  5
1E2
  8
LAYER_01
 10
96.66834172118251
 20
924.8829321169959
 30
0.0
  0
VERTEX
  5
1E3
  8
LAYER_01
 10
125.7083721594464
 20
994.9917674527803
 30
0.0
  0
VERTEX
  5
1E4
  8
LAYER_01
 10
93.30031957898132
 20
1027.399820033246
 30
0.0
  0
SEQEND
  5
1E5
  8
LAYER_01
  0
POLYLINE
  5
1E6
  8
LAYER_01
 66
     1
 10
0.0
 20
0.0
 30
0.0
  0
VERTEX
  5
1E7
  8
LAYER_01
 10
114.7629841273726
 20
1165.255597956065
 30
0.0
 42
-0.0394143898794876
  0
VERTEX
  5
1E8
  8
LAYER_01
 10
114.4970739618205
 20
1161.887575813863
 30
0.0
  0
VERTEX
  5
1E9
  8
LAYER_01
 10
184.6059092976049
 20
1132.8475453756
 30
0.0
  0
VERTEX
  5
1EA
  8
LAYER_01
 10
217.0139618780701
 20
1165.255597956065
 30
0.0
  0
SEQEND
  5
1EB
  8
LAYER_01
  0
POLYLINE
  5
1EC
  8
LAYER_01
 66
     1
 10
0.0
 20
0.0
 30
0.0
  0
VERTEX
  5
1ED
  8
LAYER_01
 10
93.30031957898166
 20
1041.541955656976
 30
0.0
  0
VERTEX
  5
1EE
  8
LAYER_01
 10
125.7083721594469
 20
1073.950008237442
 30
0.0
  0
VERTEX
  5
1EF
  8
LAYER_01
 10
96.66834172118291
 20
1144.058843573226
 30
0.0
 42
-0.0394143898795045
  0
VERTEX
  5
1F0
  8
LAYER_01
 10
93.30031957898122
 20
1143.792933407674
 30
0.0
  0
SEQEND
  5
1F1
  8
LAYER_01
  0
POLYLINE
  5
1F2
  8
LAYER_01
 66
     1
 10
0.0
 20
0.0
 30
0.0
  0
VERTEX
  5
1F3
  8
LAYER_01
 10
231.1560975018009
 20
1165.255597956065
 30
0.0
  0
VERTEX
  5
1F4
  8
LAYER_01
 10
263.5641500822665
 20
1132.8475453756
 30
0.0
  0
VERTEX
  5
1F5
  8
LAYER_01
 10
333.6729854180506
 20
1161.887575813864
 30
0.0
 42
-0.0394143898794642
  0
VERTEX
  5
1F6
  8
LAYER_01
 10
333.4070752524986
 20
1165.255597956065
 30
0.0
  0
SEQEND
  5
1F7
  8
LAYER_01
  0
POLYLINE
  5
1F8
  8
LAYER_01
 66
     1
 10
0.0
 20
0.0
 30
0.0
 70
     1
  0
VERTEX
  5
1F9
  8
LAYER_01
 10
337.4998197417016
 20
916.2929952014708
 30
0.0
 42
-0.0789514303425197
  0
VERTEX
  5
1FA
  8
LAYER_01
 10
342.2629223335757
 20
921.0560977933449
 30
0.0
  0
VERTEX
  5
1FB
  8
LAYER_01
 10
314.8080185731227
 20
987.3380988054784
 30
0.0
  0
VERTEX
  5
1FC
  8
LAYER_01
 10
271.2178187295681
 20
943.7478989619239
 30
0.0
  0
SEQEND
  5
1FD
  8
LAYER_01
  0
POLYLINE
  5
1FE
  8
LAYER_01
 66
     1
 10
0.0
 20
0.0
 30
0.0
 70
     1
  0
VERTEX
  5
1FF
  8
LAYER_01
 10
105.9071370462954
 20
921.0560977933449
 30
0.0
 42
-0.0789514303425179
  0
VERTEX
  5
200
  8
LAYER_01
 10
110.6702396381694
 20
916.2929952014708
 30
0.0
  0
VERTEX
  5
201
  8
LAYER_01
 10
176.9522406503029
 20
943.7478989619239
 30
0.0
  0
VERTEX
  5
202
  8
LAYER_01
 10
133.3620408067483
 20
987.3380988054785
 30
0.0
  0
SEQEND
  5
203
  8
LAYER_01
  0
POLYLINE
  5
204
  8
LAYER_01
 66
     1
 10
0.0
 20
0.0
 30
0.0
 70
     1
  0
VERTEX
  5
205
  8
LAYER_01
 10
110.6702396381696
 20
1152.648780488751
 30
0.0
 42
-0.0789514303425186
  0
VERTEX
  5
206
  8
LAYER_01
 10
105.9071370462957
 20
1147.885677896877
 30
0.0
  0
VERTEX
  5
207
  8
LAYER_01
 10
133.3620408067488
 20
1081.603676884743
 30
0.0
  0
VERTEX
  5
208
  8
LAYER_01
 10
176.9522406503032
 20
1125.193876728298
 30
0.0
  0
SEQEND
  5
209
  8
LAYER_01
  0
POLYLINE
  5
20A
  8
LAYER_01
 66
     1
 10
0.0
 20
0.0
 30
0.0
 70
     1
  0
VERTEX
  5
20B
  8
LAYER_01
 10
342.2629223335754
 20
1147.885677896877
 30
0.0
 42
-0.0789514303425161
  0
VERTEX
  5
20C
  8
LAYER_01
 10
337.4998197417015
 20
1152.648780488751
 30
0.0
  0
VERTEX
  5
20D
  8
LAYER_01
 10
271.2178187295682
 20
1125.193876728298
 30
0.0
  0
VERTEX
  5
20E
  8
LAYER_01
 10
314.8080185731227
 20
1081.603676884743
 30
0.0
  0
SEQEND
  5
20F
  8
LAYER_01
  0
POLYLINE
  5
210
  8
LAYER_01
 66
     1
 10
0.0
 20
0.0
 30
0.0
 70
     1
  0
VERTEX
  5
211
  8
LAYER_01
 10
245.2817840727745
 20
1031.10286570291
 30
0.0
 42
0.0789514303425208
  0
VERTEX
  5
212
  8
LAYER_01
 10
245.2817840727745
 20
1037.838909987312
 30
0.0
  0
VERTEX
  5
213
  8
LAYER_01
 10
315.3906194085589
 20
1066.878940425576
 30
0.0
  0
VERTEX
  5
214
  8
LAYER_01
 10
347.7986719890243
 20
1034.470887845111
 30
0.0
  0
VERTEX
  5
215
  8
LAYER_01
 10
315.3906194085591
 20
1002.062835264646
 30
0.0
  0
SEQEND
  5
216
  8
LAYER_01
  0
POLYLINE
  5
217
  8
LAYER_01
 66
     1
 10
0.0
 20
0.0
 30
0.0
 70
     1
  0
VERTEX
  5
218
  8
LAYER_01
 10
227.4530518321369
 20
1055.66764222795
 30
0.0
 42
0.0789514303425195
  0
VERTEX
  5
219
  8
LAYER_01
 10
220.7170075477342
 20
1055.66764222795
 30
0.0
  0
VERTEX
  5
21A
  8
LAYER_01
 10
191.6769771094702
 20
1125.776477563734
 30
0.0
  0
VERTEX
  5
21B
  8
LAYER_01
 10
224.0850296899355
 20
1158.1845301442
 30
0.0
  0
VERTEX
  5
21C
  8
LAYER_01
 10
256.4930822704009
 20
1125.776477563734
 30
0.0
  0
SEQEND
  5
21D
  8
LAYER_01
  0
POLYLINE
  5
21E
  8
LAYER_01
 66
     1
 10
0.0
 20
0.0
 30
0.0
 70
     1
  0
VERTEX
  5
21F
  8
LAYER_01
 10
220.7170075477342
 20
1013.274133462272
 30
0.0
 42
0.0789514303425197
  0
VERTEX
  5
220
  8
LAYER_01
 10
227.453051832137
 20
1013.274133462272
 30
0.0
  0
VERTEX
  5
221
  8
LAYER_01
 10
256.4930822704009
 20
943.1652981264876
 30
0.0
  0
VERTEX
  5
222
  8
LAYER_01
 10
224.0850296899355
 20
910.7572455460222
 30
0.0
  0
VERTEX
  5
223
  8
LAYER_01
 10
191.6769771094702
 20
943.1652981264875
 30
0.0
  0
SEQEND
  5
224
  8
LAYER_01
  0
POLYLINE
  5
225
  8
LAYER_01
 66
     1
 10
0.0
 20
0.0
 30
0.0
 70
     1
  0
VERTEX
  5
226
  8
LAYER_01
 10
241.4549497491236
 20
1047.077705312425
 30
0.0
 42
0.0789514303425187
  0
VERTEX
  5
227
  8
LAYER_01
 10
236.6918471572497
 20
1051.840807904299
 30
0.0
  0
VERTEX
  5
228
  8
LAYER_01
 10
264.1467509177027
 20
1118.122808916432
 30
0.0
  0
VERTEX
  5
229
  8
LAYER_01
 10
307.7369507612572
 20
1074.532609072878
 30
0.0
  0
SEQEND
  5
22A
  8
LAYER_01
  0
POLYLINE
  5
22B
  8
LAYER_01
 66
     1
 10
0.0
 20
0.0
 30
0.0
 70
     1
  0
VERTEX
  5
22C
  8
LAYER_01
 10
206.7151096307475
 20
1021.864070377797
 30
0.0
 42
0.0789514303425169
  0
VERTEX
  5
22D
  8
LAYER_01
 10
211.4782122226214
 20
1017.100967785923
 30
0.0
  0
VERTEX
  5
22E
  8
LAYER_01
 10
184.0233084621684
 20
950.8189667737893
 30
0.0
  0
VERTEX
  5
22F
  8
LAYER_01
 10
140.4331086186138
 20
994.4091666173439
 30
0.0
  0
SEQEND
  5
230
  8
LAYER_01
  0
POLYLINE
  5
231
  8
LAYER_01
 66
     1
 10
0.0
 20
0.0
 30
0.0
 70
     1
  0
VERTEX
  5
232
  8
LAYER_01
 10
202.8882753070965
 20
1037.838909987312
 30
0.0
 42
0.0789514303425208
  0
VERTEX
  5
233
  8
LAYER_01
 10
202.8882753070965
 20
1031.10286570291
 30
0.0
  0
VERTEX
  5
234
  8
LAYER_01
 10
132.7794399713119
 20
1002.062835264646
 30
0.0
  0
VERTEX
  5
235
  8
LAYER_01
 10
100.3713873908468
 20
1034.470887845111
 30
0.0
  0
VERTEX
  5
236
  8
LAYER_01
 10
132.7794399713121
 20
1066.878940425576
 30
0.0
  0
SEQEND
  5
237
  8
LAYER_01
  0
POLYLINE
  5
238
  8
LAYER_01
 66
     1
 10
0.0
 20
0.0
 30
0.0
 70
     1
  0
VERTEX
  5
239
  8
LAYER_01
 10
211.4782122226214
 20
1051.840807904299
 30
0.0
 42
0.0789514303425181
  0
VERTEX
  5
23A
  8
LAYER_01
 10
206.7151096307474
 20
1047.077705312425
 30
0.0
  0
VERTEX
  5
23B
  8
LAYER_01
 10
140.4331086186139
 20
1074.532609072878
 30
0.0
  0
VERTEX
  5
23C
  8
LAYER_01
 10
184.0233084621685
 20
1118.122808916433
 30
0.0
  0
SEQEND
  5
23D
  8
LAYER_01
  0
POLYLINE
  5
23E
  8
LAYER_01
 66
     1
 10
0.0
 20
0.0
 30
0.0
 70
     1
  0
VERTEX
  5
23F
  8
LAYER_01
 10
236.6918471572496
 20
1017.100967785923
 30
0.0
 42
0.078951430342519
  0
VERTEX
  5
240
  8
LAYER_01
 10
241.4549497491237
 20
1021.864070377797
 30
0.0
  0
VERTEX
  5
241
  8
LAYER_01
 10
307.7369507612572
 20
994.4091666173439
 30
0.0
  0
VERTEX
  5
242
  8
LAYER_01
 10
264.1467509177027
 20
950.8189667737893
 30
0.0
  0
SEQEND
  5
243
  8
LAYER_01
  0
POLYLINE
  5
244
  8
LAYER_01
 66
     1
 10
0.0
 20
0.0
 30
0.0
  0
VERTEX
  5
245
  8
LAYER_01
 10
878.0085802447066
 20
765.8303998113372
 30
0.0
  0
VERTEX
  5
246
  8
LAYER_01
 10
845.6005276642413
 20
733.422347230872
 30
0.0
  0
VERTEX
  5
247
  8
LAYER_01
 10
874.6405581025053
 20
663.3135118950875
 30
0.0
 42
-0.0394143898794684
  0
VERTEX
  5
248
  8
LAYER_01
 10
878.0085802447065
 20
663.5794220606394
 30
0.0
  0
SEQEND
  5
249
  8
LAYER_01
  0
POLYLINE
  5
24A
  8
LAYER_01
 66
     1
 10
0.0
 20
0.0
 30
0.0
  0
VERTEX
  5
24B
  8
LAYER_01
 10
878.0085802447068
 20
882.2235131857657
 30
0.0
 42
-0.0394143898794849
  0
VERTEX
  5
24C
  8
LAYER_01
 10
874.6405581025051
 20
882.4894233513178
 30
0.0
  0
VERTEX
  5
24D
  8
LAYER_01
 10
845.6005276642413
 20
812.3805880155335
 30
0.0
  0
VERTEX
  5
24E
  8
LAYER_01
 10
878.0085802447065
 20
779.972535435068
 30
0.0
  0
SEQEND
  5
24F
  8
LAYER_01
  0
POLYLINE
  5
250
  8
LAYER_01
 66
     1
 10
0.0
 20
0.0
 30
0.0
 70
     1
  0
VERTEX
  5
251
  8
LAYER_01
 10
860.6386601855185
 20
654.7235749795625
 30
0.0
 42
-0.0789514303425205
  0
VERTEX
  5
252
  8
LAYER_01
 10
865.4017627773926
 20
659.4866775714365
 30
0.0
  0
VERTEX
  5
253
  8
LAYER_01
 10
837.9468590169396
 20
725.76867858357
 30
0.0
  0
VERTEX
  5
254
  8
LAYER_01
 10
794.356659173385
 20
682.1784787400155
 30
0.0
  0
SEQEND
  5
255
  8
LAYER_01
  0
POLYLINE
  5
256
  8
LAYER_01
 66
     1
 10
0.0
 20
0.0
 30
0.0
 70
     1
  0
VERTEX
  5
257
  8
LAYER_01
 10
629.0459774901124
 20
659.4866775714365
 30
0.0
 42
-0.0789514303425171
  0
VERTEX
  5
258
  8
LAYER_01
 10
633.8090800819863
 20
654.7235749795625
 30
0.0
  0
VERTEX
  5
259
  8
LAYER_01
 10
700.0910810941198
 20
682.1784787400155
 30
0.0
  0
VERTEX
  5
25A
  8
LAYER_01
 10
656.5008812505653
 20
725.7686785835701
 30
0.0
  0
SEQEND
  5
25B
  8
LAYER_01
  0
POLYLINE
  5
25C
  8
LAYER_01
 66
     1
 10
0.0
 20
0.0
 30
0.0
 70
     1
  0
VERTEX
  5
25D
  8
LAYER_01
 10
633.8090800819866
 20
891.0793602668424
 30
0.0
 42
-0.0789514303425168
  0
VERTEX
  5
25E
  8
LAYER_01
 10
629.0459774901127
 20
886.3162576749685
 30
0.0
  0
VERTEX
  5
25F
  8
LAYER_01
 10
656.5008812505657
 20
820.034256662835
 30
0.0
  0
VERTEX
  5
260
  8
LAYER_01
 10
700.09108109412
 20
863.6244565063897
 30
0.0
  0
SEQEND
  5
261
  8
LAYER_01
  0
POLYLINE
  5
262
  8
LAYER_01
 66
     1
 10
0.0
 20
0.0
 30
0.0
 70
     1
  0
VERTEX
  5
263
  8
LAYER_01
 10
865.4017627773924
 20
886.3162576749687
 30
0.0
 42
-0.0789514303425173
  0
VERTEX
  5
264
  8
LAYER_01
 10
860.6386601855185
 20
891.0793602668426
 30
0.0
  0
VERTEX
  5
265
  8
LAYER_01
 10
794.3566591733851
 20
863.6244565063896
 30
0.0
  0
VERTEX
  5
266
  8
LAYER_01
 10
837.9468590169396
 20
820.0342566628351
 30
0.0
  0
SEQEND
  5
267
  8
LAYER_01
  0
POLYLINE
  5
268
  8
LAYER_01
 66
     1
 10
0.0
 20
0.0
 30
0.0
 70
     1
  0
VERTEX
  5
269
  8
LAYER_01
 10
768.4206245165914
 20
769.5334454810013
 30
0.0
 42
0.078951430342521
  0
VERTEX
  5
26A
  8
LAYER_01
 10
768.4206245165914
 20
776.2694897654042
 30
0.0
  0
VERTEX
  5
26B
  8
LAYER_01
 10
838.5294598523758
 20
805.309520203668
 30
0.0
  0
VERTEX
  5
26C
  8
LAYER_01
 10
870.9375124328412
 20
772.9014676232026
 30
0.0
  0
VERTEX
  5
26D
  8
LAYER_01
 10
838.529459852376
 20
740.4934150427373
 30
0.0
  0
SEQEND
  5
26E
  8
LAYER_01
  0
POLYLINE
  5
26F
  8
LAYER_01
 66
     1
 10
0.0
 20
0.0
 30
0.0
 70
     1
  0
VERTEX
  5
270
  8
LAYER_01
 10
750.5918922759538
 20
794.0982220060417
 30
0.0
 42
0.078951430342521
  0
VERTEX
  5
271
  8
LAYER_01
 10
743.855847991551
 20
794.0982220060417
 30
0.0
  0
VERTEX
  5
272
  8
LAYER_01
 10
714.8158175532872
 20
864.207057341826
 30
0.0
  0
VERTEX
  5
273
  8
LAYER_01
 10
747.2238701337524
 20
896.6151099222914
 30
0.0
  0
VERTEX
  5
274
  8
LAYER_01
 10
779.6319227142178
 20
864.2070573418259
 30
0.0
  0
SEQEND
  5
275
  8
LAYER_01
  0
POLYLINE
  5
276
  8
LAYER_01
 66
     1
 10
0.0
 20
0.0
 30
0.0
 70
     1
  0
VERTEX
  5
277
  8
LAYER_01
 10
743.855847991551
 20
751.7047132403637
 30
0.0
 42
0.078951430342521
  0
VERTEX
  5
278
  8
LAYER_01
 10
750.5918922759538
 20
751.7047132403637
 30
0.0
  0
VERTEX
  5
279
  8
LAYER_01
 10
779.6319227142178
 20
681.5958779045793
 30
0.0
  0
VERTEX
  5
27A
  8
LAYER_01
 10
747.2238701337524
 20
649.1878253241139
 30
0.0
  0
VERTEX
  5
27B
  8
LAYER_01
 10
714.815817553287
 20
681.5958779045792
 30
0.0
  0
SEQEND
  5
27C
  8
LAYER_01
  0
POLYLINE
  5
27D
  8
LAYER_01
 66
     1
 10
0.0
 20
0.0
 30
0.0
 70
     1
  0
VERTEX
  5
27E
  8
LAYER_01
 10
764.5937901929404
 20
785.5082850905169
 30
0.0
 42
0.0789514303425173
  0
VERTEX
  5
27F
  8
LAYER_01
 10
759.8306876010665
 20
790.2713876823908
 30
0.0
  0
VERTEX
  5
280
  8
LAYER_01
 10
787.2855913615196
 20
856.5533886945242
 30
0.0
  0
VERTEX
  5
281
  8
LAYER_01
 10
830.875791205074
 20
812.9631888509697
 30
0.0
  0
SEQEND
  5
282
  8
LAYER_01
  0
POLYLINE
  5
283
  8
LAYER_01
 66
     1
 10
0.0
 20
0.0
 30
0.0
 70
     1
  0
VERTEX
  5
284
  8
LAYER_01
 10
729.8539500745643
 20
760.2946501558885
 30
0.0
 42
0.0789514303425168
  0
VERTEX
  5
285
  8
LAYER_01
 10
734.6170526664383
 20
755.5315475640145
 30
0.0
  0
VERTEX
  5
286
  8
LAYER_01
 10
707.1621489059853
 20
689.2495465518809
 30
0.0
  0
VERTEX
  5
287
  8
LAYER_01
 10
663.5719490624307
 20
732.8397463954356
 30
0.0
  0
SEQEND
  5
288
  8
LAYER_01
  0
POLYLINE
  5
289
  8
LAYER_01
 66
     1
 10
0.0
 20
0.0
 30
0.0
 70
     1
  0
VERTEX
  5
28A
  8
LAYER_01
 10
726.0271157509134
 20
776.2694897654042
 30
0.0
 42
0.0789514303425184
  0
VERTEX
  5
28B
  8
LAYER_01
 10
726.0271157509133
 20
769.5334454810014
 30
0.0
  0
VERTEX
  5
28C
  8
LAYER_01
 10
655.9182804151288
 20
740.4934150427375
 30
0.0
  0
VERTEX
  5
28D
  8
LAYER_01
 10
623.5102278346637
 20
772.9014676232026
 30
0.0
  0
VERTEX
  5
28E
  8
LAYER_01
 10
655.9182804151291
 20
805.309520203668
 30
0.0
  0
SEQEND
  5
28F
  8
LAYER_01
  0
POLYLINE
  5
290
  8
LAYER_01
 66
     1
 10
0.0
 20
0.0
 30
0.0
 70
     1
  0
VERTEX
  5
291
  8
LAYER_01
 10
734.6170526664382
 20
790.2713876823908
 30
0.0
 42
0.0789514303425173
  0
VERTEX
  5
292
  8
LAYER_01
 10
729.8539500745643
 20
785.5082850905169
 30
0.0
  0
VERTEX
  5
293
  8
LAYER_01
 10
663.5719490624308
 20
812.9631888509698
 30
0.0
  0
VERTEX
  5
294
  8
LAYER_01
 10
707.1621489059854
 20
856.5533886945243
 30
0.0
  0
SEQEND
  5
295
  8
LAYER_01
  0
POLYLINE
  5
296
  8
LAYER_01
 66
     1
 10
0.0
 20
0.0
 30
0.0
 70
     1
  0
VERTEX
  5
297
  8
LAYER_01
 10
759.8306876010665
 20
755.5315475640145
 30
0.0
 42
0.0789514303425208
  0
VERTEX
  5
298
  8
LAYER_01
 10
764.5937901929406
 20
760.2946501558887
 30
0.0
  0
VERTEX
  5
299
  8
LAYER_01
 10
830.875791205074
 20
732.8397463954356
 30
0.0
  0
VERTEX
  5
29A
  8
LAYER_01
 10
787.2855913615196
 20
689.2495465518809
 30
0.0
  0
SEQEND
  5
29B
  8
LAYER_01
  0
POLYLINE
  5
29C
  8
LAYER_01
 66
     1
 10
0.0
 20
0.0
 30
0.0
 70
     1
  0
VERTEX
  5
29D
  8
LAYER_01
 10
599.06923996361
 20
654.7235749795625
 30
0.0
 42
-0.0789514303425208
  0
VERTEX
  5
29E
  8
LAYER_01
 10
603.8323425554842
 20
659.4866775714365
 30
0.0
  0
VERTEX
  5
29F
  8
LAYER_01
 10
576.3774387950311
 20
725.76867858357
 30
0.0
  0
VERTEX
  5
2A0
  8
LAYER_01
 10
532.7872389514765
 20
682.1784787400155
 30
0.0
  0
SEQEND
  5
2A1
  8
LAYER_01
  0
POLYLINE
  5
2A2
  8
LAYER_01
 66
     1
 10
0.0
 20
0.0
 30
0.0
 70
     1
  0
VERTEX
  5
2A3
  8
LAYER_01
 10
367.4765572682039
 20
659.4866775714365
 30
0.0
 42
-0.0789514303425178
  0
VERTEX
  5
2A4
  8
LAYER_01
 10
372.2396598600778
 20
654.7235749795625
 30
0.0
  0
VERTEX
  5
2A5
  8
LAYER_01
 10
438.5216608722113
 20
682.1784787400155
 30
0.0
  0
VERTEX
  5
2A6
  8
LAYER_01
 10
394.9314610286568
 20
725.7686785835701
 30
0.0
  0
SEQEND
  5
2A7
  8
LAYER_01
  0
POLYLINE
  5
2A8
  8
LAYER_01
 66
     1
 10
0.0
 20
0.0
 30
0.0
 70
     1
  0
VERTEX
  5
2A9
  8
LAYER_01
 10
372.2396598600781
 20
891.0793602668424
 30
0.0
 42
-0.0789514303425169
  0
VERTEX
  5
2AA
  8
LAYER_01
 10
367.4765572682041
 20
886.3162576749685
 30
0.0
  0
VERTEX
  5
2AB
  8
LAYER_01
 10
394.9314610286572
 20
820.034256662835
 30
0.0
  0
VERTEX
  5
2AC
  8
LAYER_01
 10
438.5216608722116
 20
863.6244565063897
 30
0.0
  0
SEQEND
  5
2AD
  8
LAYER_01
  0
POLYLINE
  5
2AE
  8
LAYER_01
 66
     1
 10
0.0
 20
0.0
 30
0.0
 70
     1
  0
VERTEX
  5
2AF
  8
LAYER_01
 10
603.8323425554838
 20
886.3162576749687
 30
0.0
 42
-0.0789514303425171
  0
VERTEX
  5
2B0
  8
LAYER_01
 10
599.06923996361
 20
891.0793602668426
 30
0.0
  0
VERTEX
  5
2B1
  8
LAYER_01
 10
532.7872389514766
 20
863.6244565063896
 30
0.0
  0
VERTEX
  5
2B2
  8
LAYER_01
 10
576.3774387950311
 20
820.0342566628351
 30
0.0
  0
SEQEND
  5
2B3
  8
LAYER_01
  0
POLYLINE
  5
2B4
  8
LAYER_01
 66
     1
 10
0.0
 20
0.0
 30
0.0
 70
     1
  0
VERTEX
  5
2B5
  8
LAYER_01
 10
506.851204294683
 20
769.5334454810013
 30
0.0
 42
0.0789514303425208
  0
VERTEX
  5
2B6
  8
LAYER_01
 10
506.851204294683
 20
776.2694897654042
 30
0.0
  0
VERTEX
  5
2B7
  8
LAYER_01
 10
576.9600396304673
 20
805.309520203668
 30
0.0
  0
VERTEX
  5
2B8
  8
LAYER_01
 10
609.3680922109327
 20
772.9014676232026
 30
0.0
  0
VERTEX
  5
2B9
  8
LAYER_01
 10
576.9600396304675
 20
740.4934150427373
 30
0.0
  0
SEQEND
  5
2BA
  8
LAYER_01
  0
POLYLINE
  5
2BB
  8
LAYER_01
 66
     1
 10
0.0
 20
0.0
 30
0.0
 70
     1
  0
VERTEX
  5
2BC
  8
LAYER_01
 10
489.0224720540454
 20
794.0982220060417
 30
0.0
 42
0.0789514303425184
  0
VERTEX
  5
2BD
  8
LAYER_01
 10
482.2864277696427
 20
794.0982220060417
 30
0.0
  0
VERTEX
  5
2BE
  8
LAYER_01
 10
453.2463973313787
 20
864.207057341826
 30
0.0
  0
VERTEX
  5
2BF
  8
LAYER_01
 10
485.654449911844
 20
896.6151099222914
 30
0.0
  0
VERTEX
  5
2C0
  8
LAYER_01
 10
518.0625024923094
 20
864.2070573418259
 30
0.0
  0
SEQEND
  5
2C1
  8
LAYER_01
  0
POLYLINE
  5
2C2
  8
LAYER_01
 66
     1
 10
0.0
 20
0.0
 30
0.0
 70
     1
  0
VERTEX
  5
2C3
  8
LAYER_01
 10
482.2864277696427
 20
751.7047132403637
 30
0.0
 42
0.0789514303425197
  0
VERTEX
  5
2C4
  8
LAYER_01
 10
489.0224720540454
 20
751.7047132403637
 30
0.0
  0
VERTEX
  5
2C5
  8
LAYER_01
 10
518.0625024923094
 20
681.5958779045793
 30
0.0
  0
VERTEX
  5
2C6
  8
LAYER_01
 10
485.6544499118439
 20
649.1878253241139
 30
0.0
  0
VERTEX
  5
2C7
  8
LAYER_01
 10
453.2463973313786
 20
681.5958779045792
 30
0.0
  0
SEQEND
  5
2C8
  8
LAYER_01
  0
POLYLINE
  5
2C9
  8
LAYER_01
 66
     1
 10
0.0
 20
0.0
 30
0.0
 70
     1
  0
VERTEX
  5
2CA
  8
LAYER_01
 10
503.0243699710321
 20
785.5082850905169
 30
0.0
 42
0.0789514303425172
  0
VERTEX
  5
2CB
  8
LAYER_01
 10
498.2612673791581
 20
790.2713876823908
 30
0.0
  0
VERTEX
  5
2CC
  8
LAYER_01
 10
525.7161711396111
 20
856.5533886945242
 30
0.0
  0
VERTEX
  5
2CD
  8
LAYER_01
 10
569.3063709831656
 20
812.9631888509697
 30
0.0
  0
SEQEND
  5
2CE
  8
LAYER_01
  0
POLYLINE
  5
2CF
  8
LAYER_01
 66
     1
 10
0.0
 20
0.0
 30
0.0
 70
     1
  0
VERTEX
  5
2D0
  8
LAYER_01
 10
468.2845298526559
 20
760.2946501558885
 30
0.0
 42
0.0789514303425168
  0
VERTEX
  5
2D1
  8
LAYER_01
 10
473.0476324445299
 20
755.5315475640145
 30
0.0
  0
VERTEX
  5
2D2
  8
LAYER_01
 10
445.5927286840769
 20
689.2495465518809
 30
0.0
  0
VERTEX
  5
2D3
  8
LAYER_01
 10
402.0025288405222
 20
732.8397463954356
 30
0.0
  0
SEQEND
  5
2D4
  8
LAYER_01
  0
POLYLINE
  5
2D5
  8
LAYER_01
 66
     1
 10
0.0
 20
0.0
 30
0.0
 70
     1
  0
VERTEX
  5
2D6
  8
LAYER_01
 10
464.457695529005
 20
776.2694897654042
 30
0.0
 42
0.0789514303425182
  0
VERTEX
  5
2D7
  8
LAYER_01
 10
464.457695529005
 20
769.5334454810014
 30
0.0
  0
VERTEX
  5
2D8
  8
LAYER_01
 10
394.3488601932204
 20
740.4934150427375
 30
0.0
  0
VERTEX
  5
2D9
  8
LAYER_01
 10
361.9408076127552
 20
772.9014676232026
 30
0.0
  0
VERTEX
  5
2DA
  8
LAYER_01
 10
394.3488601932206
 20
805.309520203668
 30
0.0
  0
SEQEND
  5
2DB
  8
LAYER_01
  0
POLYLINE
  5
2DC
  8
LAYER_01
 66
     1
 10
0.0
 20
0.0
 30
0.0
 70
     1
  0
VERTEX
  5
2DD
  8
LAYER_01
 10
473.0476324445298
 20
790.2713876823908
 30
0.0
 42
0.0789514303425182
  0
VERTEX
  5
2DE
  8
LAYER_01
 10
468.2845298526559
 20
785.5082850905169
 30
0.0
  0
VERTEX
  5
2DF
  8
LAYER_01
 10
402.0025288405224
 20
812.9631888509698
 30
0.0
  0
VERTEX
  5
2E0
  8
LAYER_01
 10
445.592728684077
 20
856.5533886945243
 30
0.0
  0
SEQEND
  5
2E1
  8
LAYER_01
  0
POLYLINE
  5
2E2
  8
LAYER_01
 66
     1
 10
0.0
 20
0.0
 30
0.0
 70
     1
  0
VERTEX
  5
2E3
  8
LAYER_01
 10
498.2612673791581
 20
755.5315475640145
 30
0.0
 42
0.078951430342521
  0
VERTEX
  5
2E4
  8
LAYER_01
 10
503.0243699710322
 20
760.2946501558887
 30
0.0
  0
VERTEX
  5
2E5
  8
LAYER_01
 10
569.3063709831656
 20
732.8397463954356
 30
0.0
  0
VERTEX
  5
2E6
  8
LAYER_01
 10
525.7161711396111
 20
689.2495465518809
 30
0.0
  0
SEQEND
  5
2E7
  8
LAYER_01
  0
POLYLINE
  5
2E8
  8
LAYER_01
 66
     1
 10
0.0
 20
0.0
 30
0.0
  0
VERTEX
  5
2E9
  8
LAYER_01
 10
93.30031957898129
 20
663.5794220606396
 30
0.0
 42
-0.0394143898794786
  0
VERTEX
  5
2EA
  8
LAYER_01
 10
96.66834172118251
 20
663.3135118950876
 30
0.0
  0
VERTEX
  5
2EB
  8
LAYER_01
 10
125.7083721594464
 20
733.422347230872
 30
0.0
  0
VERTEX
  5
2EC
  8
LAYER_01
 10
93.30031957898132
 20
765.8303998113372
 30
0.0
  0
SEQEND
  5
2ED
  8
LAYER_01
  0
POLYLINE
  5
2EE
  8
LAYER_01
 66
     1
 10
0.0
 20
0.0
 30
0.0
  0
VERTEX
  5
2EF
  8
LAYER_01
 10
93.30031957898166
 20
779.9725354350678
 30
0.0
  0
VERTEX
  5
2F0
  8
LAYER_01
 10
125.7083721594469
 20
812.3805880155332
 30
0.0
  0
VERTEX
  5
2F1
  8
LAYER_01
 10
96.66834172118291
 20
882.4894233513177
 30
0.0
 42
-0.03941438987949
  0
VERTEX
  5
2F2
  8
LAYER_01
 10
93.30031957898122
 20
882.2235131857655
 30
0.0
  0
SEQEND
  5
2F3
  8
LAYER_01
  0
POLYLINE
  5
2F4
  8
LAYER_01
 66
     1
 10
0.0
 20
0.0
 30
0.0
 70
     1
  0
VERTEX
  5
2F5
  8
LAYER_01
 10
337.4998197417016
 20
654.7235749795625
 30
0.0
 42
-0.0789514303425197
  0
VERTEX
  5
2F6
  8
LAYER_01
 10
342.2629223335757
 20
659.4866775714365
 30
0.0
  0
VERTEX
  5
2F7
  8
LAYER_01
 10
314.8080185731227
 20
725.76867858357
 30
0.0
  0
VERTEX
  5
2F8
  8
LAYER_01
 10
271.2178187295681
 20
682.1784787400155
 30
0.0
  0
SEQEND
  5
2F9
  8
LAYER_01
  0
POLYLINE
  5
2FA
  8
LAYER_01
 66
     1
 10
0.0
 20
0.0
 30
0.0
 70
     1
  0
VERTEX
  5
2FB
  8
LAYER_01
 10
105.9071370462954
 20
659.4866775714365
 30
0.0
 42
-0.0789514303425179
  0
VERTEX
  5
2FC
  8
LAYER_01
 10
110.6702396381694
 20
654.7235749795625
 30
0.0
  0
VERTEX
  5
2FD
  8
LAYER_01
 10
176.9522406503029
 20
682.1784787400155
 30
0.0
  0
VERTEX
  5
2FE
  8
LAYER_01
 10
133.3620408067483
 20
725.7686785835701
 30
0.0
  0
SEQEND
  5
2FF
  8
LAYER_01
  0
POLYLINE
  5
300
  8
LAYER_01
 66
     1
 10
0.0
 20
0.0
 30
0.0
 70
     1
  0
VERTEX
  5
301
  8
LAYER_01
 10
110.6702396381696
 20
891.0793602668424
 30
0.0
 42
-0.0789514303425166
  0
VERTEX
  5
302
  8
LAYER_01
 10
105.9071370462957
 20
886.3162576749685
 30
0.0
  0
VERTEX
  5
303
  8
LAYER_01
 10
133.3620408067488
 20
820.034256662835
 30
0.0
  0
VERTEX
  5
304
  8
LAYER_01
 10
176.9522406503032
 20
863.6244565063897
 30
0.0
  0
SEQEND
  5
305
  8
LAYER_01
  0
POLYLINE
  5
306
  8
LAYER_01
 66
     1
 10
0.0
 20
0.0
 30
0.0
 70
     1
  0
VERTEX
  5
307
  8
LAYER_01
 10
342.2629223335754
 20
886.3162576749687
 30
0.0
 42
-0.0789514303425171
  0
VERTEX
  5
308
  8
LAYER_01
 10
337.4998197417015
 20
891.0793602668426
 30
0.0
  0
VERTEX
  5
309
  8
LAYER_01
 10
271.2178187295682
 20
863.6244565063896
 30
0.0
  0
VERTEX
  5
30A
  8
LAYER_01
 10
314.8080185731227
 20
820.0342566628351
 30
0.0
  0
SEQEND
  5
30B
  8
LAYER_01
  0
POLYLINE
  5
30C
  8
LAYER_01
 66
     1
 10
0.0
 20
0.0
 30
0.0
 70
     1
  0
VERTEX
  5
30D
  8
LAYER_01
 10
245.2817840727745
 20
769.5334454810013
 30
0.0
 42
0.0789514303425208
  0
VERTEX
  5
30E
  8
LAYER_01
 10
245.2817840727745
 20
776.2694897654042
 30
0.0
  0
VERTEX
  5
30F
  8
LAYER_01
 10
315.3906194085589
 20
805.309520203668
 30
0.0
  0
VERTEX
  5
310
  8
LAYER_01
 10
347.7986719890243
 20
772.9014676232026
 30
0.0
  0
VERTEX
  5
311
  8
LAYER_01
 10
315.3906194085591
 20
740.4934150427373
 30
0.0
  0
SEQEND
  5
312
  8
LAYER_01
  0
POLYLINE
  5
313
  8
LAYER_01
 66
     1
 10
0.0
 20
0.0
 30
0.0
 70
     1
  0
VERTEX
  5
314
  8
LAYER_01
 10
227.4530518321369
 20
794.0982220060417
 30
0.0
 42
0.078951430342519
  0
VERTEX
  5
315
  8
LAYER_01
 10
220.7170075477342
 20
794.0982220060417
 30
0.0
  0
VERTEX
  5
316
  8
LAYER_01
 10
191.6769771094702
 20
864.207057341826
 30
0.0
  0
VERTEX
  5
317
  8
LAYER_01
 10
224.0850296899355
 20
896.6151099222914
 30
0.0
  0
VERTEX
  5
318
  8
LAYER_01
 10
256.4930822704009
 20
864.2070573418259
 30
0.0
  0
SEQEND
  5
319
  8
LAYER_01
  0
POLYLINE
  5
31A
  8
LAYER_01
 66
     1
 10
0.0
 20
0.0
 30
0.0
 70
     1
  0
VERTEX
  5
31B
  8
LAYER_01
 10
220.7170075477342
 20
751.7047132403637
 30
0.0
 42
0.0789514303425197
  0
VERTEX
  5
31C
  8
LAYER_01
 10
227.453051832137
 20
751.7047132403637
 30
0.0
  0
VERTEX
  5
31D
  8
LAYER_01
 10
256.4930822704009
 20
681.5958779045793
 30
0.0
  0
VERTEX
  5
31E
  8
LAYER_01
 10
224.0850296899355
 20
649.1878253241139
 30
0.0
  0
VERTEX
  5
31F
  8
LAYER_01
 10
191.6769771094702
 20
681.5958779045792
 30
0.0
  0
SEQEND
  5
320
  8
LAYER_01
  0
POLYLINE
  5
321
  8
LAYER_01
 66
     1
 10
0.0
 20
0.0
 30
0.0
 70
     1
  0
VERTEX
  5
322
  8
LAYER_01
 10
241.4549497491236
 20
785.5082850905169
 30
0.0
 42
0.0789514303425168
  0
VERTEX
  5
323
  8
LAYER_01
 10
236.6918471572497
 20
790.2713876823908
 30
0.0
  0
VERTEX
  5
324
  8
LAYER_01
 10
264.1467509177027
 20
856.5533886945242
 30
0.0
  0
VERTEX
  5
325
  8
LAYER_01
 10
307.7369507612572
 20
812.9631888509697
 30
0.0
  0
SEQEND
  5
326
  8
LAYER_01
  0
POLYLINE
  5
327
  8
LAYER_01
 66
     1
 10
0.0
 20
0.0
 30
0.0
 70
     1
  0
VERTEX
  5
328
  8
LAYER_01
 10
206.7151096307475
 20
760.2946501558885
 30
0.0
 42
0.0789514303425169
  0
VERTEX
  5
329
  8
LAYER_01
 10
211.4782122226214
 20
755.5315475640145
 30
0.0
  0
VERTEX
  5
32A
  8
LAYER_01
 10
184.0233084621684
 20
689.2495465518809
 30
0.0
  0
VERTEX
  5
32B
  8
LAYER_01
 10
140.4331086186138
 20
732.8397463954356
 30
0.0
  0
SEQEND
  5
32C
  8
LAYER_01
  0
POLYLINE
  5
32D
  8
LAYER_01
 66
     1
 10
0.0
 20
0.0
 30
0.0
 70
     1
  0
VERTEX
  5
32E
  8
LAYER_01
 10
202.8882753070965
 20
776.2694897654042
 30
0.0
 42
0.0789514303425182
  0
VERTEX
  5
32F
  8
LAYER_01
 10
202.8882753070965
 20
769.5334454810014
 30
0.0
  0
VERTEX
  5
330
  8
LAYER_01
 10
132.7794399713119
 20
740.4934150427375
 30
0.0
  0
VERTEX
  5
331
  8
LAYER_01
 10
100.3713873908468
 20
772.9014676232026
 30
0.0
  0
VERTEX
  5
332
  8
LAYER_01
 10
132.7794399713121
 20
805.309520203668
 30
0.0
  0
SEQEND
  5
333
  8
LAYER_01
  0
POLYLINE
  5
334
  8
LAYER_01
 66
     1
 10
0.0
 20
0.0
 30
0.0
 70
     1
  0
VERTEX
  5
335
  8
LAYER_01
 10
211.4782122226214
 20
790.2713876823908
 30
0.0
 42
0.0789514303425176
  0
VERTEX
  5
336
  8
LAYER_01
 10
206.7151096307474
 20
785.5082850905169
 30
0.0
  0
VERTEX
  5
337
  8
LAYER_01
 10
140.4331086186139
 20
812.9631888509698
 30
0.0
  0
VERTEX
  5
338
  8
LAYER_01
 10
184.0233084621685
 20
856.5533886945243
 30
0.0
  0
SEQEND
  5
339
  8
LAYER_01
  0
POLYLINE
  5
33A
  8
LAYER_01
 66
     1
 10
0.0
 20
0.0
 30
0.0
 70
     1
  0
VERTEX
  5
33B
  8
LAYER_01
 10
236.6918471572496
 20
755.5315475640145
 30
0.0
 42
0.0789514303425215
  0
VERTEX
  5
33C
  8
LAYER_01
 10
241.4549497491237
 20
760.2946501558887
 30
0.0
  0
VERTEX
  5
33D
  8
LAYER_01
 10
307.7369507612572
 20
732.8397463954356
 30
0.0
  0
VERTEX
  5
33E
  8
LAYER_01
 10
264.1467509177027
 20
689.2495465518809
 30
0.0
  0
SEQEND
  5
33F
  8
LAYER_01
  0
POLYLINE
  5
340
  8
LAYER_01
 66
     1
 10
0.0
 20
0.0
 30
0.0
  0
VERTEX
  5
341
  8
LAYER_01
 10
878.0085802447066
 20
504.2609795894288
 30
0.0
  0
VERTEX
  5
342
  8
LAYER_01
 10
845.6005276642413
 20
471.8529270089636
 30
0.0
  0
VERTEX
  5
343
  8
LAYER_01
 10
874.6405581025053
 20
401.7440916731791
 30
0.0
 42
-0.0394143898794853
  0
VERTEX
  5
344
  8
LAYER_01
 10
878.0085802447065
 20
402.0100018387312
 30
0.0
  0
SEQEND
  5
345
  8
LAYER_01
  0
POLYLINE
  5
346
  8
LAYER_01
 66
     1
 10
0.0
 20
0.0
 30
0.0
  0
VERTEX
  5
347
  8
LAYER_01
 10
856.5459156963155
 20
380.5473372903401
 30
0.0
 42
-0.0394143898794809
  0
VERTEX
  5
348
  8
LAYER_01
 10
856.8118258618676
 20
383.9153594325415
 30
0.0
  0
VERTEX
  5
349
  8
LAYER_01
 10
786.7029905260832
 20
412.9553898708054
 30
0.0
  0
VERTEX
  5
34A
  8
LAYER_01
 10
754.2949379456179
 20
380.5473372903401
 30
0.0
  0
SEQEND
  5
34B
  8
LAYER_01
  0
POLYLINE
  5
34C
  8
LAYER_01
 66
     1
 10
0.0
 20
0.0
 30
0.0
  0
VERTEX
  5
34D
  8
LAYER_01
 10
740.1528023218868
 20
380.5473372903401
 30
0.0
  0
VERTEX
  5
34E
  8
LAYER_01
 10
707.7447497414216
 20
412.9553898708054
 30
0.0
  0
VERTEX
  5
34F
  8
LAYER_01
 10
637.6359144056371
 20
383.9153594325414
 30
0.0
 42
-0.0394143898794814
  0
VERTEX
  5
350
  8
LAYER_01
 10
637.9018245711892
 20
380.54733729034
 30
0.0
  0
SEQEND
  5
351
  8
LAYER_01
  0
POLYLINE
  5
352
  8
LAYER_01
 66
     1
 10
0.0
 20
0.0
 30
0.0
  0
VERTEX
  5
353
  8
LAYER_01
 10
878.0085802447068
 20
620.6540929638574
 30
0.0
 42
-0.0394143898794849
  0
VERTEX
  5
354
  8
LAYER_01
 10
874.6405581025051
 20
620.9200031294095
 30
0.0
  0
VERTEX
  5
355
  8
LAYER_01
 10
845.6005276642413
 20
550.8111677936251
 30
0.0
  0
VERTEX
  5
356
  8
LAYER_01
 10
878.0085802447065
 20
518.4031152131597
 30
0.0
  0
SEQEND
  5
357
  8
LAYER_01
  0
POLYLINE
  5
358
  8
LAYER_01
 66
     1
 10
0.0
 20
0.0
 30
0.0
 70
     1
  0
VERTEX
  5
359
  8
LAYER_01
 10
860.6386601855185
 20
393.1541547576542
 30
0.0
 42
-0.0789514303425206
  0
VERTEX
  5
35A
  8
LAYER_01
 10
865.4017627773926
 20
397.9172573495283
 30
0.0
  0
VERTEX
  5
35B
  8
LAYER_01
 10
837.9468590169396
 20
464.1992583616617
 30
0.0
  0
VERTEX
  5
35C
  8
LAYER_01
 10
794.356659173385
 20
420.6090585181072
 30
0.0
  0
SEQEND
  5
35D
  8
LAYER_01
  0
POLYLINE
  5
35E
  8
LAYER_01
 66
     1
 10
0.0
 20
0.0
 30
0.0
 70
     1
  0
VERTEX
  5
35F
  8
LAYER_01
 10
629.0459774901124
 20
397.9172573495282
 30
0.0
 42
-0.0789514303425171
  0
VERTEX
  5
360
  8
LAYER_01
 10
633.8090800819863
 20
393.1541547576542
 30
0.0
  0
VERTEX
  5
361
  8
LAYER_01
 10
700.0910810941198
 20
420.6090585181072
 30
0.0
  0
VERTEX
  5
362
  8
LAYER_01
 10
656.5008812505653
 20
464.1992583616618
 30
0.0
  0
SEQEND
  5
363
  8
LAYER_01
  0
POLYLINE
  5
364
  8
LAYER_01
 66
     1
 10
0.0
 20
0.0
 30
0.0
 70
     1
  0
VERTEX
  5
365
  8
LAYER_01
 10
633.8090800819866
 20
629.5099400449341
 30
0.0
 42
-0.0789514303425168
  0
VERTEX
  5
366
  8
LAYER_01
 10
629.0459774901127
 20
624.7468374530602
 30
0.0
  0
VERTEX
  5
367
  8
LAYER_01
 10
656.5008812505657
 20
558.4648364409267
 30
0.0
  0
VERTEX
  5
368
  8
LAYER_01
 10
700.09108109412
 20
602.0550362844814
 30
0.0
  0
SEQEND
  5
369
  8
LAYER_01
  0
POLYLINE
  5
36A
  8
LAYER_01
 66
     1
 10
0.0
 20
0.0
 30
0.0
 70
     1
  0
VERTEX
  5
36B
  8
LAYER_01
 10
865.4017627773924
 20
624.7468374530604
 30
0.0
 42
-0.0789514303425173
  0
VERTEX
  5
36C
  8
LAYER_01
 10
860.6386601855185
 20
629.5099400449343
 30
0.0
  0
VERTEX
  5
36D
  8
LAYER_01
 10
794.3566591733851
 20
602.0550362844813
 30
0.0
  0
VERTEX
  5
36E
  8
LAYER_01
 10
837.9468590169396
 20
558.4648364409268
 30
0.0
  0
SEQEND
  5
36F
  8
LAYER_01
  0
POLYLINE
  5
370
  8
LAYER_01
 66
     1
 10
0.0
 20
0.0
 30
0.0
 70
     1
  0
VERTEX
  5
371
  8
LAYER_01
 10
768.4206245165914
 20
507.964025259093
 30
0.0
 42
0.0789514303425197
  0
VERTEX
  5
372
  8
LAYER_01
 10
768.4206245165914
 20
514.7000695434957
 30
0.0
  0
VERTEX
  5
373
  8
LAYER_01
 10
838.5294598523758
 20
543.7400999817596
 30
0.0
  0
VERTEX
  5
374
  8
LAYER_01
 10
870.9375124328412
 20
511.3320474012943
 30
0.0
  0
VERTEX
  5
375
  8
LAYER_01
 10
838.529459852376
 20
478.923994820829
 30
0.0
  0
SEQEND
  5
376
  8
LAYER_01
  0
POLYLINE
  5
377
  8
LAYER_01
 66
     1
 10
0.0
 20
0.0
 30
0.0
 70
     1
  0
VERTEX
  5
378
  8
LAYER_01
 10
750.5918922759538
 20
532.5288017841334
 30
0.0
 42
0.0789514303425208
  0
VERTEX
  5
379
  8
LAYER_01
 10
743.855847991551
 20
532.5288017841334
 30
0.0
  0
VERTEX
  5
37A
  8
LAYER_01
 10
714.8158175532872
 20
602.6376371199177
 30
0.0
  0
VERTEX
  5
37B
  8
LAYER_01
 10
747.2238701337524
 20
635.045689700383
 30
0.0
  0
VERTEX
  5
37C
  8
LAYER_01
 10
779.6319227142178
 20
602.6376371199176
 30
0.0
  0
SEQEND
  5
37D
  8
LAYER_01
  0
POLYLINE
  5
37E
  8
LAYER_01
 66
     1
 10
0.0
 20
0.0
 30
0.0
 70
     1
  0
VERTEX
  5
37F
  8
LAYER_01
 10
743.855847991551
 20
490.1352930184553
 30
0.0
 42
0.0789514303425208
  0
VERTEX
  5
380
  8
LAYER_01
 10
750.5918922759538
 20
490.1352930184553
 30
0.0
  0
VERTEX
  5
381
  8
LAYER_01
 10
779.6319227142178
 20
420.0264576826709
 30
0.0
  0
VERTEX
  5
382
  8
LAYER_01
 10
747.2238701337524
 20
387.6184051022055
 30
0.0
  0
VERTEX
  5
383
  8
LAYER_01
 10
714.815817553287
 20
420.0264576826709
 30
0.0
  0
SEQEND
  5
384
  8
LAYER_01
  0
POLYLINE
  5
385
  8
LAYER_01
 66
     1
 10
0.0
 20
0.0
 30
0.0
 70
     1
  0
VERTEX
  5
386
  8
LAYER_01
 10
764.5937901929404
 20
523.9388648686086
 30
0.0
 42
0.0789514303425172
  0
VERTEX
  5
387
  8
LAYER_01
 10
759.8306876010665
 20
528.7019674604825
 30
0.0
  0
VERTEX
  5
388
  8
LAYER_01
 10
787.2855913615196
 20
594.9839684726159
 30
0.0
  0
VERTEX
  5
389
  8
LAYER_01
 10
830.875791205074
 20
551.3937686290614
 30
0.0
  0
SEQEND
  5
38A
  8
LAYER_01
  0
POLYLINE
  5
38B
  8
LAYER_01
 66
     1
 10
0.0
 20
0.0
 30
0.0
 70
     1
  0
VERTEX
  5
38C
  8
LAYER_01
 10
729.8539500745643
 20
498.7252299339801
 30
0.0
 42
0.0789514303425179
  0
VERTEX
  5
38D
  8
LAYER_01
 10
734.6170526664383
 20
493.9621273421062
 30
0.0
  0
VERTEX
  5
38E
  8
LAYER_01
 10
707.1621489059853
 20
427.6801263299727
 30
0.0
  0
VERTEX
  5
38F
  8
LAYER_01
 10
663.5719490624307
 20
471.2703261735272
 30
0.0
  0
SEQEND
  5
390
  8
LAYER_01
  0
POLYLINE
  5
391
  8
LAYER_01
 66
     1
 10
0.0
 20
0.0
 30
0.0
 70
     1
  0
VERTEX
  5
392
  8
LAYER_01
 10
726.0271157509134
 20
514.7000695434957
 30
0.0
 42
0.0789514303425184
  0
VERTEX
  5
393
  8
LAYER_01
 10
726.0271157509133
 20
507.964025259093
 30
0.0
  0
VERTEX
  5
394
  8
LAYER_01
 10
655.9182804151288
 20
478.9239948208291
 30
0.0
  0
VERTEX
  5
395
  8
LAYER_01
 10
623.5102278346637
 20
511.3320474012943
 30
0.0
  0
VERTEX
  5
396
  8
LAYER_01
 10
655.9182804151291
 20
543.7400999817596
 30
0.0
  0
SEQEND
  5
397
  8
LAYER_01
  0
POLYLINE
  5
398
  8
LAYER_01
 66
     1
 10
0.0
 20
0.0
 30
0.0
 70
     1
  0
VERTEX
  5
399
  8
LAYER_01
 10
734.6170526664382
 20
528.7019674604825
 30
0.0
 42
0.0789514303425189
  0
VERTEX
  5
39A
  8
LAYER_01
 10
729.8539500745643
 20
523.9388648686084
 30
0.0
  0
VERTEX
  5
39B
  8
LAYER_01
 10
663.5719490624308
 20
551.3937686290615
 30
0.0
  0
VERTEX
  5
39C
  8
LAYER_01
 10
707.1621489059854
 20
594.983968472616
 30
0.0
  0
SEQEND
  5
39D
  8
LAYER_01
  0
POLYLINE
  5
39E
  8
LAYER_01
 66
     1
 10
0.0
 20
0.0
 30
0.0
 70
     1
  0
VERTEX
  5
39F
  8
LAYER_01
 10
759.8306876010665
 20
493.9621273421062
 30
0.0
 42
0.0789514303425198
  0
VERTEX
  5
3A0
  8
LAYER_01
 10
764.5937901929406
 20
498.7252299339802
 30
0.0
  0
VERTEX
  5
3A1
  8
LAYER_01
 10
830.875791205074
 20
471.2703261735272
 30
0.0
  0
VERTEX
  5
3A2
  8
LAYER_01
 10
787.2855913615196
 20
427.6801263299727
 30
0.0
  0
SEQEND
  5
3A3
  8
LAYER_01
  0
POLYLINE
  5
3A4
  8
LAYER_01
 66
     1
 10
0.0
 20
0.0
 30
0.0
  0
VERTEX
  5
3A5
  8
LAYER_01
 10
594.9764954744071
 20
380.5473372903401
 30
0.0
 42
-0.0394143898794809
  0
VERTEX
  5
3A6
  8
LAYER_01
 10
595.2424056399592
 20
383.9153594325415
 30
0.0
  0
VERTEX
  5
3A7
  8
LAYER_01
 10
525.1335703041748
 20
412.9553898708054
 30
0.0
  0
VERTEX
  5
3A8
  8
LAYER_01
 10
492.7255177237095
 20
380.5473372903401
 30
0.0
  0
SEQEND
  5
3A9
  8
LAYER_01
  0
POLYLINE
  5
3AA
  8
LAYER_01
 66
     1
 10
0.0
 20
0.0
 30
0.0
  0
VERTEX
  5
3AB
  8
LAYER_01
 10
478.5833820999785
 20
380.5473372903401
 30
0.0
  0
VERTEX
  5
3AC
  8
LAYER_01
 10
446.1753295195131
 20
412.9553898708054
 30
0.0
  0
VERTEX
  5
3AD
  8
LAYER_01
 10
376.0664941837287
 20
383.9153594325414
 30
0.0
 42
-0.0394143898794814
  0
VERTEX
  5
3AE
  8
LAYER_01
 10
376.3324043492807
 20
380.54733729034
 30
0.0
  0
SEQEND
  5
3AF
  8
LAYER_01
  0
POLYLINE
  5
3B0
  8
LAYER_01
 66
     1
 10
0.0
 20
0.0
 30
0.0
 70
     1
  0
VERTEX
  5
3B1
  8
LAYER_01
 10
599.06923996361
 20
393.1541547576542
 30
0.0
 42
-0.078951430342521
  0
VERTEX
  5
3B2
  8
LAYER_01
 10
603.8323425554842
 20
397.9172573495283
 30
0.0
  0
VERTEX
  5
3B3
  8
LAYER_01
 10
576.3774387950311
 20
464.1992583616617
 30
0.0
  0
VERTEX
  5
3B4
  8
LAYER_01
 10
532.7872389514765
 20
420.6090585181072
 30
0.0
  0
SEQEND
  5
3B5
  8
LAYER_01
  0
POLYLINE
  5
3B6
  8
LAYER_01
 66
     1
 10
0.0
 20
0.0
 30
0.0
 70
     1
  0
VERTEX
  5
3B7
  8
LAYER_01
 10
367.4765572682039
 20
397.9172573495282
 30
0.0
 42
-0.0789514303425178
  0
VERTEX
  5
3B8
  8
LAYER_01
 10
372.2396598600778
 20
393.1541547576542
 30
0.0
  0
VERTEX
  5
3B9
  8
LAYER_01
 10
438.5216608722113
 20
420.6090585181072
 30
0.0
  0
VERTEX
  5
3BA
  8
LAYER_01
 10
394.9314610286568
 20
464.1992583616618
 30
0.0
  0
SEQEND
  5
3BB
  8
LAYER_01
  0
POLYLINE
  5
3BC
  8
LAYER_01
 66
     1
 10
0.0
 20
0.0
 30
0.0
 70
     1
  0
VERTEX
  5
3BD
  8
LAYER_01
 10
372.2396598600781
 20
629.5099400449341
 30
0.0
 42
-0.0789514303425169
  0
VERTEX
  5
3BE
  8
LAYER_01
 10
367.4765572682041
 20
624.7468374530602
 30
0.0
  0
VERTEX
  5
3BF
  8
LAYER_01
 10
394.9314610286572
 20
558.4648364409267
 30
0.0
  0
VERTEX
  5
3C0
  8
LAYER_01
 10
438.5216608722116
 20
602.0550362844814
 30
0.0
  0
SEQEND
  5
3C1
  8
LAYER_01
  0
POLYLINE
  5
3C2
  8
LAYER_01
 66
     1
 10
0.0
 20
0.0
 30
0.0
 70
     1
  0
VERTEX
  5
3C3
  8
LAYER_01
 10
603.8323425554838
 20
624.7468374530604
 30
0.0
 42
-0.0789514303425171
  0
VERTEX
  5
3C4
  8
LAYER_01
 10
599.06923996361
 20
629.5099400449343
 30
0.0
  0
VERTEX
  5
3C5
  8
LAYER_01
 10
532.7872389514766
 20
602.0550362844813
 30
0.0
  0
VERTEX
  5
3C6
  8
LAYER_01
 10
576.3774387950311
 20
558.4648364409268
 30
0.0
  0
SEQEND
  5
3C7
  8
LAYER_01
  0
POLYLINE
  5
3C8
  8
LAYER_01
 66
     1
 10
0.0
 20
0.0
 30
0.0
 70
     1
  0
VERTEX
  5
3C9
  8
LAYER_01
 10
506.851204294683
 20
507.964025259093
 30
0.0
 42
0.0789514303425195
  0
VERTEX
  5
3CA
  8
LAYER_01
 10
506.851204294683
 20
514.7000695434957
 30
0.0
  0
VERTEX
  5
3CB
  8
LAYER_01
 10
576.9600396304673
 20
543.7400999817596
 30
0.0
  0
VERTEX
  5
3CC
  8
LAYER_01
 10
609.3680922109327
 20
511.3320474012943
 30
0.0
  0
VERTEX
  5
3CD
  8
LAYER_01
 10
576.9600396304675
 20
478.923994820829
 30
0.0
  0
SEQEND
  5
3CE
  8
LAYER_01
  0
POLYLINE
  5
3CF
  8
LAYER_01
 66
     1
 10
0.0
 20
0.0
 30
0.0
 70
     1
  0
VERTEX
  5
3D0
  8
LAYER_01
 10
489.0224720540454
 20
532.5288017841334
 30
0.0
 42
0.0789514303425195
  0
VERTEX
  5
3D1
  8
LAYER_01
 10
482.2864277696427
 20
532.5288017841334
 30
0.0
  0
VERTEX
  5
3D2
  8
LAYER_01
 10
453.2463973313787
 20
602.6376371199177
 30
0.0
  0
VERTEX
  5
3D3
  8
LAYER_01
 10
485.654449911844
 20
635.045689700383
 30
0.0
  0
VERTEX
  5
3D4
  8
LAYER_01
 10
518.0625024923094
 20
602.6376371199176
 30
0.0
  0
SEQEND
  5
3D5
  8
LAYER_01
  0
POLYLINE
  5
3D6
  8
LAYER_01
 66
     1
 10
0.0
 20
0.0
 30
0.0
 70
     1
  0
VERTEX
  5
3D7
  8
LAYER_01
 10
482.2864277696427
 20
490.1352930184553
 30
0.0
 42
0.0789514303425194
  0
VERTEX
  5
3D8
  8
LAYER_01
 10
489.0224720540454
 20
490.1352930184553
 30
0.0
  0
VERTEX
  5
3D9
  8
LAYER_01
 10
518.0625024923094
 20
420.0264576826709
 30
0.0
  0
VERTEX
  5
3DA
  8
LAYER_01
 10
485.6544499118439
 20
387.6184051022055
 30
0.0
  0
VERTEX
  5
3DB
  8
LAYER_01
 10
453.2463973313786
 20
420.0264576826709
 30
0.0
  0
SEQEND
  5
3DC
  8
LAYER_01
  0
POLYLINE
  5
3DD
  8
LAYER_01
 66
     1
 10
0.0
 20
0.0
 30
0.0
 70
     1
  0
VERTEX
  5
3DE
  8
LAYER_01
 10
503.0243699710321
 20
523.9388648686086
 30
0.0
 42
0.078951430342517
  0
VERTEX
  5
3DF
  8
LAYER_01
 10
498.2612673791581
 20
528.7019674604825
 30
0.0
  0
VERTEX
  5
3E0
  8
LAYER_01
 10
525.7161711396111
 20
594.9839684726159
 30
0.0
  0
VERTEX
  5
3E1
  8
LAYER_01
 10
569.3063709831656
 20
551.3937686290614
 30
0.0
  0
SEQEND
  5
3E2
  8
LAYER_01
  0
POLYLINE
  5
3E3
  8
LAYER_01
 66
     1
 10
0.0
 20
0.0
 30
0.0
 70
     1
  0
VERTEX
  5
3E4
  8
LAYER_01
 10
468.2845298526559
 20
498.7252299339801
 30
0.0
 42
0.0789514303425169
  0
VERTEX
  5
3E5
  8
LAYER_01
 10
473.0476324445299
 20
493.9621273421062
 30
0.0
  0
VERTEX
  5
3E6
  8
LAYER_01
 10
445.5927286840769
 20
427.6801263299727
 30
0.0
  0
VERTEX
  5
3E7
  8
LAYER_01
 10
402.0025288405222
 20
471.2703261735272
 30
0.0
  0
SEQEND
  5
3E8
  8
LAYER_01
  0
POLYLINE
  5
3E9
  8
LAYER_01
 66
     1
 10
0.0
 20
0.0
 30
0.0
 70
     1
  0
VERTEX
  5
3EA
  8
LAYER_01
 10
464.457695529005
 20
514.7000695434957
 30
0.0
 42
0.0789514303425181
  0
VERTEX
  5
3EB
  8
LAYER_01
 10
464.457695529005
 20
507.964025259093
 30
0.0
  0
VERTEX
  5
3EC
  8
LAYER_01
 10
394.3488601932204
 20
478.9239948208291
 30
0.0
  0
VERTEX
  5
3ED
  8
LAYER_01
 10
361.9408076127552
 20
511.3320474012943
 30
0.0
  0
VERTEX
  5
3EE
  8
LAYER_01
 10
394.3488601932206
 20
543.7400999817596
 30
0.0
  0
SEQEND
  5
3EF
  8
LAYER_01
  0
POLYLINE
  5
3F0
  8
LAYER_01
 66
     1
 10
0.0
 20
0.0
 30
0.0
 70
     1
  0
VERTEX
  5
3F1
  8
LAYER_01
 10
473.0476324445298
 20
528.7019674604825
 30
0.0
 42
0.0789514303425181
  0
VERTEX
  5
3F2
  8
LAYER_01
 10
468.2845298526559
 20
523.9388648686084
 30
0.0
  0
VERTEX
  5
3F3
  8
LAYER_01
 10
402.0025288405224
 20
551.3937686290615
 30
0.0
  0
VERTEX
  5
3F4
  8
LAYER_01
 10
445.592728684077
 20
594.983968472616
 30
0.0
  0
SEQEND
  5
3F5
  8
LAYER_01
  0
POLYLINE
  5
3F6
  8
LAYER_01
 66
     1
 10
0.0
 20
0.0
 30
0.0
 70
     1
  0
VERTEX
  5
3F7
  8
LAYER_01
 10
498.2612673791581
 20
493.9621273421062
 30
0.0
 42
0.0789514303425199
  0
VERTEX
  5
3F8
  8
LAYER_01
 10
503.0243699710322
 20
498.7252299339802
 30
0.0
  0
VERTEX
  5
3F9
  8
LAYER_01
 10
569.3063709831656
 20
471.2703261735272
 30
0.0
  0
VERTEX
  5
3FA
  8
LAYER_01
 10
525.7161711396111
 20
427.6801263299727
 30
0.0
  0
SEQEND
  5
3FB
  8
LAYER_01
  0
POLYLINE
  5
3FC
  8
LAYER_01
 66
     1
 10
0.0
 20
0.0
 30
0.0
  0
VERTEX
  5
3FD
  8
LAYER_01
 10
333.4070752524987
 20
380.5473372903401
 30
0.0
 42
-0.0394143898794809
  0
VERTEX
  5
3FE
  8
LAYER_01
 10
333.6729854180508
 20
383.9153594325415
 30
0.0
  0
VERTEX
  5
3FF
  8
LAYER_01
 10
263.5641500822663
 20
412.9553898708054
 30
0.0
  0
VERTEX
  5
400
  8
LAYER_01
 10
231.156097501801
 20
380.5473372903401
 30
0.0
  0
SEQEND
  5
401
  8
LAYER_01
  0
POLYLINE
  5
402
  8
LAYER_01
 66
     1
 10
0.0
 20
0.0
 30
0.0
  0
VERTEX
  5
403
  8
LAYER_01
 10
217.01396187807
 20
380.5473372903401
 30
0.0
  0
VERTEX
  5
404
  8
LAYER_01
 10
184.6059092976047
 20
412.9553898708054
 30
0.0
  0
VERTEX
  5
405
  8
LAYER_01
 10
114.4970739618202
 20
383.9153594325414
 30
0.0
 42
-0.0394143898794841
  0
VERTEX
  5
406
  8
LAYER_01
 10
114.7629841273723
 20
380.54733729034
 30
0.0
  0
SEQEND
  5
407
  8
LAYER_01
  0
POLYLINE
  5
408
  8
LAYER_01
 66
     1
 10
0.0
 20
0.0
 30
0.0
  0
VERTEX
  5
409
  8
LAYER_01
 10
93.30031957898129
 20
402.0100018387312
 30
0.0
 42
-0.039414389879479
  0
VERTEX
  5
40A
  8
LAYER_01
 10
96.66834172118251
 20
401.7440916731791
 30
0.0
  0
VERTEX
  5
40B
  8
LAYER_01
 10
125.7083721594464
 20
471.8529270089637
 30
0.0
  0
VERTEX
  5
40C
  8
LAYER_01
 10
93.30031957898132
 20
504.2609795894289
 30
0.0
  0
SEQEND
  5
40D
  8
LAYER_01
  0
POLYLINE
  5
40E
  8
LAYER_01
 66
     1
 10
0.0
 20
0.0
 30
0.0
  0
VERTEX
  5
40F
  8
LAYER_01
 10
93.30031957898166
 20
518.4031152131595
 30
0.0
  0
VERTEX
  5
410
  8
LAYER_01
 10
125.7083721594469
 20
550.8111677936249
 30
0.0
  0
VERTEX
  5
411
  8
LAYER_01
 10
96.66834172118291
 20
620.9200031294093
 30
0.0
 42
-0.03941438987949
  0
VERTEX
  5
412
  8
LAYER_01
 10
93.30031957898122
 20
620.6540929638571
 30
0.0
  0
SEQEND
  5
413
  8
LAYER_01
  0
POLYLINE
  5
414
  8
LAYER_01
 66
     1
 10
0.0
 20
0.0
 30
0.0
 70
     1
  0
VERTEX
  5
415
  8
LAYER_01
 10
337.4998197417016
 20
393.1541547576542
 30
0.0
 42
-0.0789514303425198
  0
VERTEX
  5
416
  8
LAYER_01
 10
342.2629223335757
 20
397.9172573495283
 30
0.0
  0
VERTEX
  5
417
  8
LAYER_01
 10
314.8080185731227
 20
464.1992583616617
 30
0.0
  0
VERTEX
  5
418
  8
LAYER_01
 10
271.2178187295681
 20
420.6090585181072
 30
0.0
  0
SEQEND
  5
419
  8
LAYER_01
  0
POLYLINE
  5
41A
  8
LAYER_01
 66
     1
 10
0.0
 20
0.0
 30
0.0
 70
     1
  0
VERTEX
  5
41B
  8
LAYER_01
 10
105.9071370462954
 20
397.9172573495282
 30
0.0
 42
-0.0789514303425179
  0
VERTEX
  5
41C
  8
LAYER_01
 10
110.6702396381694
 20
393.1541547576542
 30
0.0
  0
VERTEX
  5
41D
  8
LAYER_01
 10
176.9522406503029
 20
420.6090585181072
 30
0.0
  0
VERTEX
  5
41E
  8
LAYER_01
 10
133.3620408067483
 20
464.1992583616618
 30
0.0
  0
SEQEND
  5
41F
  8
LAYER_01
  0
POLYLINE
  5
420
  8
LAYER_01
 66
     1
 10
0.0
 20
0.0
 30
0.0
 70
     1
  0
VERTEX
  5
421
  8
LAYER_01
 10
110.6702396381696
 20
629.5099400449341
 30
0.0
 42
-0.0789514303425166
  0
VERTEX
  5
422
  8
LAYER_01
 10
105.9071370462957
 20
624.7468374530602
 30
0.0
  0
VERTEX
  5
423
  8
LAYER_01
 10
133.3620408067488
 20
558.4648364409267
 30
0.0
  0
VERTEX
  5
424
  8
LAYER_01
 10
176.9522406503032
 20
602.0550362844814
 30
0.0
  0
SEQEND
  5
425
  8
LAYER_01
  0
POLYLINE
  5
426
  8
LAYER_01
 66
     1
 10
0.0
 20
0.0
 30
0.0
 70
     1
  0
VERTEX
  5
427
  8
LAYER_01
 10
342.2629223335754
 20
624.7468374530604
 30
0.0
 42
-0.0789514303425171
  0
VERTEX
  5
428
  8
LAYER_01
 10
337.4998197417015
 20
629.5099400449343
 30
0.0
  0
VERTEX
  5
429
  8
LAYER_01
 10
271.2178187295682
 20
602.0550362844813
 30
0.0
  0
VERTEX
  5
42A
  8
LAYER_01
 10
314.8080185731227
 20
558.4648364409268
 30
0.0
  0
SEQEND
  5
42B
  8
LAYER_01
  0
POLYLINE
  5
42C
  8
LAYER_01
 66
     1
 10
0.0
 20
0.0
 30
0.0
 70
     1
  0
VERTEX
  5
42D
  8
LAYER_01
 10
245.2817840727745
 20
507.964025259093
 30
0.0
 42
0.0789514303425194
  0
VERTEX
  5
42E
  8
LAYER_01
 10
245.2817840727745
 20
514.7000695434957
 30
0.0
  0
VERTEX
  5
42F
  8
LAYER_01
 10
315.3906194085589
 20
543.7400999817596
 30
0.0
  0
VERTEX
  5
430
  8
LAYER_01
 10
347.7986719890243
 20
511.3320474012943
 30
0.0
  0
VERTEX
  5
431
  8
LAYER_01
 10
315.3906194085591
 20
478.923994820829
 30
0.0
  0
SEQEND
  5
432
  8
LAYER_01
  0
POLYLINE
  5
433
  8
LAYER_01
 66
     1
 10
0.0
 20
0.0
 30
0.0
 70
     1
  0
VERTEX
  5
434
  8
LAYER_01
 10
227.4530518321369
 20
532.5288017841334
 30
0.0
 42
0.0789514303425195
  0
VERTEX
  5
435
  8
LAYER_01
 10
220.7170075477342
 20
532.5288017841334
 30
0.0
  0
VERTEX
  5
436
  8
LAYER_01
 10
191.6769771094702
 20
602.6376371199177
 30
0.0
  0
VERTEX
  5
437
  8
LAYER_01
 10
224.0850296899355
 20
635.045689700383
 30
0.0
  0
VERTEX
  5
438
  8
LAYER_01
 10
256.4930822704009
 20
602.6376371199176
 30
0.0
  0
SEQEND
  5
439
  8
LAYER_01
  0
POLYLINE
  5
43A
  8
LAYER_01
 66
     1
 10
0.0
 20
0.0
 30
0.0
 70
     1
  0
VERTEX
  5
43B
  8
LAYER_01
 10
220.7170075477342
 20
490.1352930184553
 30
0.0
 42
0.0789514303425194
  0
VERTEX
  5
43C
  8
LAYER_01
 10
227.453051832137
 20
490.1352930184553
 30
0.0
  0
VERTEX
  5
43D
  8
LAYER_01
 10
256.4930822704009
 20
420.0264576826709
 30
0.0
  0
VERTEX
  5
43E
  8
LAYER_01
 10
224.0850296899355
 20
387.6184051022055
 30
0.0
  0
VERTEX
  5
43F
  8
LAYER_01
 10
191.6769771094702
 20
420.0264576826709
 30
0.0
  0
SEQEND
  5
440
  8
LAYER_01
  0
POLYLINE
  5
441
  8
LAYER_01
 66
     1
 10
0.0
 20
0.0
 30
0.0
 70
     1
  0
VERTEX
  5
442
  8
LAYER_01
 10
241.4549497491236
 20
523.9388648686086
 30
0.0
 42
0.0789514303425168
  0
VERTEX
  5
443
  8
LAYER_01
 10
236.6918471572497
 20
528.7019674604825
 30
0.0
  0
VERTEX
  5
444
  8
LAYER_01
 10
264.1467509177027
 20
594.9839684726159
 30
0.0
  0
VERTEX
  5
445
  8
LAYER_01
 10
307.7369507612572
 20
551.3937686290614
 30
0.0
  0
SEQEND
  5
446
  8
LAYER_01
  0
POLYLINE
  5
447
  8
LAYER_01
 66
     1
 10
0.0
 20
0.0
 30
0.0
 70
     1
  0
VERTEX
  5
448
  8
LAYER_01
 10
206.7151096307475
 20
498.7252299339801
 30
0.0
 42
0.078951430342517
  0
VERTEX
  5
449
  8
LAYER_01
 10
211.4782122226214
 20
493.9621273421062
 30
0.0
  0
VERTEX
  5
44A
  8
LAYER_01
 10
184.0233084621684
 20
427.6801263299727
 30
0.0
  0
VERTEX
  5
44B
  8
LAYER_01
 10
140.4331086186138
 20
471.2703261735272
 30
0.0
  0
SEQEND
  5
44C
  8
LAYER_01
  0
POLYLINE
  5
44D
  8
LAYER_01
 66
     1
 10
0.0
 20
0.0
 30
0.0
 70
     1
  0
VERTEX
  5
44E
  8
LAYER_01
 10
202.8882753070965
 20
514.7000695434957
 30
0.0
 42
0.0789514303425181
  0
VERTEX
  5
44F
  8
LAYER_01
 10
202.8882753070965
 20
507.964025259093
 30
0.0
  0
VERTEX
  5
450
  8
LAYER_01
 10
132.7794399713119
 20
478.9239948208291
 30
0.0
  0
VERTEX
  5
451
  8
LAYER_01
 10
100.3713873908468
 20
511.3320474012943
 30
0.0
  0
VERTEX
  5
452
  8
LAYER_01
 10
132.7794399713121
 20
543.7400999817596
 30
0.0
  0
SEQEND
  5
453
  8
LAYER_01
  0
POLYLINE
  5
454
  8
LAYER_01
 66
     1
 10
0.0
 20
0.0
 30
0.0
 70
     1
  0
VERTEX
  5
455
  8
LAYER_01
 10
211.4782122226214
 20
528.7019674604825
 30
0.0
 42
0.0789514303425179
  0
VERTEX
  5
456
  8
LAYER_01
 10
206.7151096307474
 20
523.9388648686084
 30
0.0
  0
VERTEX
  5
457
  8
LAYER_01
 10
140.4331086186139
 20
551.3937686290615
 30
0.0
  0
VERTEX
  5
458
  8
LAYER_01
 10
184.0233084621685
 20
594.983968472616
 30
0.0
  0
SEQEND
  5
459
  8
LAYER_01
  0
POLYLINE
  5
45A
  8
LAYER_01
 66
     1
 10
0.0
 20
0.0
 30
0.0
 70
     1
  0
VERTEX
  5
45B
  8
LAYER_01
 10
236.6918471572496
 20
493.9621273421062
 30
0.0
 42
0.0789514303425204
  0
VERTEX
  5
45C
  8
LAYER_01
 10
241.4549497491237
 20
498.7252299339802
 30
0.0
  0
VERTEX
  5
45D
  8
LAYER_01
 10
307.7369507612572
 20
471.2703261735272
 30
0.0
  0
VERTEX
  5
45E
  8
LAYER_01
 10
264.1467509177027
 20
427.6801263299727
 30
0.0
  0
SEQEND
  5
45F
  8
LAYER_01
  0
ENDSEC
  0
EOF
