  0
SECTION
  2
HEADER
  9
$ACADVER
  1
AC1009
  9
$DWGCODEPAGE
  3
ansi_1252
  9
$INSBASE
 10
0.0
 20
0.0
 30
0.0
  9
$EXTMIN
 10
1.000000000000000E+20
 20
1.000000000000000E+20
 30
1.000000000000000E+20
  9
$EXTMAX
 10
-1.000000000000000E+20
 20
-1.000000000000000E+20
 30
-1.000000000000000E+20
  9
$LIMMIN
 10
0.0
 20
0.0
  9
$LIMMAX
 10
12.0
 20
9.0
  9
$ORTHOMODE
 70
     0
  9
$REGENMODE
 70
     1
  9
$FILLMODE
 70
     1
  9
$QTEXTMODE
 70
     0
  9
$MIRRTEXT
 70
     1
  9
$DRAGMODE
 70
     2
  9
$LTSCALE
 40
1.0
  9
$OSMODE
 70
    37
  9
$ATTMODE
 70
     1
  9
$TEXTSIZE
 40
0.2
  9
$TRACEWID
 40
0.05
  9
$TEXTSTYLE
  7
STANDARD
  9
$CLAYER
  8
LAYER_01
  9
$CELTYPE
  6
BYLAYER
  9
$CECOLOR
 62
   256
  9
$DIMSCALE
 40
1.0
  9
$DIMASZ
 40
0.18
  9
$DIMEXO
 40
0.0625
  9
$DIMDLI
 40
0.38
  9
$DIMRND
 40
0.0
  9
$DIMDLE
 40
0.0
  9
$DIMEXE
 40
0.18
  9
$DIMTP
 40
0.0
  9
$DIMTM
 40
0.0
  9
$DIMTXT
 40
0.18
  9
$DIMCEN
 40
0.09
  9
$DIMTSZ
 40
0.0
  9
$DIMTOL
 70
     0
  9
$DIMLIM
 70
     0
  9
$DIMTIH
 70
     1
  9
$DIMTOH
 70
     1
  9
$DIMSE1
 70
     0
  9
$DIMSE2
 70
     0
  9
$DIMTAD
 70
     0
  9
$DIMZIN
 70
     0
  9
$DIMBLK
  1

  9
$DIMASO
 70
     1
  9
$DIMSHO
 70
     1
  9
$DIMPOST
  1

  9
$DIMAPOST
  1

  9
$DIMALT
 70
     0
  9
$DIMALTD
 70
     2
  9
$DIMALTF
 40
25.4
  9
$DIMLFAC
 40
1.0
  9
$DIMTOFL
 70
     0
  9
$DIMTVP
 40
0.0
  9
$DIMTIX
 70
     0
  9
$DIMSOXD
 70
     0
  9
$DIMSAH
 70
     0
  9
$DIMBLK1
  1

  9
$DIMBLK2
  1

  9
$DIMSTYLE
  2
STANDARD_ACAD
  9
$DIMCLRD
 70
     0
  9
$DIMCLRE
 70
     0
  9
$DIMCLRT
 70
     0
  9
$DIMTFAC
 40
1.0
  9
$DIMGAP
 40
0.09
  9
$LUNITS
 70
     2
  9
$LUPREC
 70
     3
  9
$SKETCHINC
 40
0.1
  9
$FILLETRAD
 40
0.5
  9
$AUNITS
 70
     0
  9
$AUPREC
 70
     0
  9
$MENU
  1
.
  9
$ELEVATION
 40
0.0
  9
$PELEVATION
 40
0.0
  9
$THICKNESS
 40
0.0
  9
$LIMCHECK
 70
     0
  9
$CHAMFERA
 40
0.0
  9
$CHAMFERB
 40
0.0
  9
$SKPOLY
 70
     0
  9
$TDCREATE
 40
2459747.627091308
  9
$TDUPDATE
 40
2459747.627091308
  9
$TDINDWG
 40
0.0000000116
  9
$TDUSRTIMER
 40
0.0000000116
  9
$USRTIMER
 70
     1
  9
$ANGBASE
 50
0.0
  9
$ANGDIR
 70
     0
  9
$PDMODE
 70
     0
  9
$PDSIZE
 40
0.0
  9
$PLINEWID
 40
0.0
  9
$COORDS
 70
     1
  9
$SPLFRAME
 70
     0
  9
$SPLINETYPE
 70
     6
  9
$SPLINESEGS
 70
     8
  9
$ATTDIA
 70
     0
  9
$ATTREQ
 70
     1
  9
$HANDLING
 70
     1
  9
$HANDSEED
  5
1F3
  9
$SURFTAB1
 70
     6
  9
$SURFTAB2
 70
     6
  9
$SURFTYPE
 70
     6
  9
$SURFU
 70
     6
  9
$SURFV
 70
     6
  9
$UCSNAME
  2

  9
$UCSORG
 10
0.0
 20
0.0
 30
0.0
  9
$UCSXDIR
 10
1.0
 20
0.0
 30
0.0
  9
$UCSYDIR
 10
0.0
 20
1.0
 30
0.0
  9
$PUCSNAME
  2

  9
$PUCSORG
 10
0.0
 20
0.0
 30
0.0
  9
$PUCSXDIR
 10
1.0
 20
0.0
 30
0.0
  9
$PUCSYDIR
 10
0.0
 20
1.0
 30
0.0
  9
$USERI1
 70
     0
  9
$USERI2
 70
     0
  9
$USERI3
 70
     0
  9
$USERI4
 70
     0
  9
$USERI5
 70
     0
  9
$USERR1
 40
0.0
  9
$USERR2
 40
0.0
  9
$USERR3
 40
0.0
  9
$USERR4
 40
0.0
  9
$USERR5
 40
0.0
  9
$WORLDVIEW
 70
     1
  9
$SHADEDGE
 70
     3
  9
$SHADEDIF
 70
    70
  9
$TILEMODE
 70
     1
  9
$MAXACTVP
 70
    64
  9
$PLIMCHECK
 70
     0
  9
$PEXTMIN
 10
1.000000000000000E+20
 20
1.000000000000000E+20
 30
1.000000000000000E+20
  9
$PEXTMAX
 10
-1.000000000000000E+20
 20
-1.000000000000000E+20
 30
-1.000000000000000E+20
  9
$PLIMMIN
 10
0.0
 20
0.0
  9
$PLIMMAX
 10
12.0
 20
9.0
  9
$UNITMODE
 70
     0
  9
$VISRETAIN
 70
     1
  9
$PLINEGEN
 70
     0
  9
$PSLTSCALE
 70
     1
  0
ENDSEC
  0
SECTION
  2
TABLES
  0
TABLE
  2
VPORT
 70
     1
  0
VPORT
  2
*ACTIVE
 70
     0
 10
0.0
 20
0.0
 11
1.0
 21
1.0
 12
10.42990654205607
 22
4.5
 13
0.0
 23
0.0
 14
0.5
 24
0.5
 15
0.5
 25
0.5
 16
0.0
 26
0.0
 36
1.0
 17
0.0
 27
0.0
 37
0.0
 40
9.0
 41
1.972972972850329
 42
50.0
 43
0.0
 44
0.0
 50
0.0
 51
0.0
 71
     0
 72
   100
 73
     1
 74
     3
 75
     0
 76
     0
 77
     0
 78
     0
  0
ENDTAB
  0
TABLE
  2
LTYPE
 70
     1
  0
LTYPE
  2
CONTINUOUS
 70
     0
  3
Solid line
 72
    65
 73
     0
 40
0.0
  0
ENDTAB
  0
TABLE
  2
LAYER
 70
     2
  0
LAYER
  2
0
 70
     0
 62
     7
  6
CONTINUOUS
  0
LAYER
  2
LAYER_01
 70
     0
 62
     7
  6
CONTINUOUS
  0
ENDTAB
  0
TABLE
  2
STYLE
 70
     1
  0
STYLE
  2
STANDARD
 70
     0
 40
0.0
 41
1.0
 50
0.0
 71
     0
 42
0.2
  3
txt
  4

  0
ENDTAB
  0
TABLE
  2
VIEW
 70
     0
  0
ENDTAB
  0
TABLE
  2
UCS
 70
     0
  0
ENDTAB
  0
TABLE
  2
APPID
 70
     2
  0
APPID
  2
ACAD
 70
     0
  0
APPID
  2
RHINO
 70
     0
  0
ENDTAB
  0
TABLE
  2
DIMSTYLE
 70
     1
  0
DIMSTYLE
  2
STANDARD_ACAD
 70
     0
  3

  4

  5

  6

  7

 40
1.0
 41
0.18
 42
0.0625
 43
0.38
 44
0.18
 45
0.0
 46
0.0
 47
0.0
 48
0.0
140
0.18
141
0.09
142
0.0
143
25.4
144
1.0
145
0.0
146
1.0
147
0.09
 71
     0
 72
     0
 73
     1
 74
     1
 75
     0
 76
     0
 77
     0
 78
     0
170
     0
171
     2
172
     0
173
     0
174
     0
175
     0
176
     0
177
     0
178
     0
  0
ENDTAB
  0
ENDSEC
  0
SECTION
  2
BLOCKS
  0
BLOCK
  8
0
  2
$MODEL_SPACE
 70
     0
 10
0.0
 20
0.0
 30
0.0
  3
$MODEL_SPACE
  1

  0
ENDBLK
  5
21
  8
0
  0
BLOCK
 67
     1
  8
0
  2
$PAPER_SPACE
 70
     0
 10
0.0
 20
0.0
 30
0.0
  3
$PAPER_SPACE
  1

  0
ENDBLK
  5
1D
 67
     1
  8
0
  0
ENDSEC
  0
SECTION
  2
ENTITIES
  0
POLYLINE
  5
70
  8
LAYER_01
 66
     1
 10
0.0
 20
0.0
 30
0.0
 70
     1
  0
VERTEX
  5
71
  8
LAYER_01
 10
81.5508777473257
 20
267.7191357668136
 30
0.0
  0
VERTEX
  5
72
  8
LAYER_01
 10
205.5159831300763
 20
267.7191357668136
 30
0.0
  0
VERTEX
  5
73
  8
LAYER_01
 10
205.5159831300763
 20
802.5720020324158
 30
0.0
  0
VERTEX
  5
74
  8
LAYER_01
 10
81.5508777473257
 20
802.5720020324158
 30
0.0
  0
SEQEND
  5
75
  8
LAYER_01
  0
POLYLINE
  5
76
  8
LAYER_01
 66
     1
 10
0.0
 20
0.0
 30
0.0
 70
     1
  0
VERTEX
  5
77
  8
LAYER_01
 10
186.0350737000482
 20
667.6087854660161
 30
0.0
  0
VERTEX
  5
78
  8
LAYER_01
 10
199.5921433501185
 20
637.3896977026914
 30
0.0
  0
VERTEX
  5
79
  8
LAYER_01
 10
203.0159831300763
 20
643.8879365195965
 30
0.0
  0
VERTEX
  5
7A
  8
LAYER_01
 10
203.0159831300763
 20
691.3296344124321
 30
0.0
  0
VERTEX
  5
7B
  8
LAYER_01
 10
199.5921433501185
 20
697.8278732293372
 30
0.0
  0
SEQEND
  5
7C
  8
LAYER_01
  0
POLYLINE
  5
7D
  8
LAYER_01
 66
     1
 10
0.0
 20
0.0
 30
0.0
 70
     1
  0
VERTEX
  5
7E
  8
LAYER_01
 10
101.0317871773539
 20
667.6087854660125
 30
0.0
  0
VERTEX
  5
7F
  8
LAYER_01
 10
87.47471752728349
 20
697.8278732293372
 30
0.0
  0
VERTEX
  5
80
  8
LAYER_01
 10
84.0508777473257
 20
691.329634412432
 30
0.0
  0
VERTEX
  5
81
  8
LAYER_01
 10
84.05087774732573
 20
643.8879365195966
 30
0.0
  0
VERTEX
  5
82
  8
LAYER_01
 10
87.47471752728349
 20
637.3896977026914
 30
0.0
  0
SEQEND
  5
83
  8
LAYER_01
  0
POLYLINE
  5
84
  8
LAYER_01
 66
     1
 10
0.0
 20
0.0
 30
0.0
 70
     1
  0
VERTEX
  5
85
  8
LAYER_01
 10
186.0350737000482
 20
535.1455688996165
 30
0.0
  0
VERTEX
  5
86
  8
LAYER_01
 10
199.5921433501185
 20
504.9264811362917
 30
0.0
  0
VERTEX
  5
87
  8
LAYER_01
 10
203.0159831300763
 20
511.4247199531969
 30
0.0
  0
VERTEX
  5
88
  8
LAYER_01
 10
203.0159831300763
 20
558.8664178460324
 30
0.0
  0
VERTEX
  5
89
  8
LAYER_01
 10
199.5921433501185
 20
565.3646566629376
 30
0.0
  0
SEQEND
  5
8A
  8
LAYER_01
  0
POLYLINE
  5
8B
  8
LAYER_01
 66
     1
 10
0.0
 20
0.0
 30
0.0
 70
     1
  0
VERTEX
  5
8C
  8
LAYER_01
 10
101.0317871773539
 20
535.1455688996128
 30
0.0
  0
VERTEX
  5
8D
  8
LAYER_01
 10
87.47471752728349
 20
565.3646566629376
 30
0.0
  0
VERTEX
  5
8E
  8
LAYER_01
 10
84.0508777473257
 20
558.8664178460324
 30
0.0
  0
VERTEX
  5
8F
  8
LAYER_01
 10
84.05087774732573
 20
511.4247199531969
 30
0.0
  0
VERTEX
  5
90
  8
LAYER_01
 10
87.47471752728349
 20
504.9264811362917
 30
0.0
  0
SEQEND
  5
91
  8
LAYER_01
  0
POLYLINE
  5
92
  8
LAYER_01
 66
     1
 10
0.0
 20
0.0
 30
0.0
 70
     1
  0
VERTEX
  5
93
  8
LAYER_01
 10
186.0350737000482
 20
402.6823523332168
 30
0.0
  0
VERTEX
  5
94
  8
LAYER_01
 10
199.5921433501185
 20
372.4632645698921
 30
0.0
  0
VERTEX
  5
95
  8
LAYER_01
 10
203.0159831300763
 20
378.9615033867972
 30
0.0
  0
VERTEX
  5
96
  8
LAYER_01
 10
203.0159831300763
 20
426.4032012796328
 30
0.0
  0
VERTEX
  5
97
  8
LAYER_01
 10
199.5921433501185
 20
432.901440096538
 30
0.0
  0
SEQEND
  5
98
  8
LAYER_01
  0
POLYLINE
  5
99
  8
LAYER_01
 66
     1
 10
0.0
 20
0.0
 30
0.0
 70
     1
  0
VERTEX
  5
9A
  8
LAYER_01
 10
101.0317871773539
 20
402.6823523332132
 30
0.0
  0
VERTEX
  5
9B
  8
LAYER_01
 10
87.47471752728349
 20
432.901440096538
 30
0.0
  0
VERTEX
  5
9C
  8
LAYER_01
 10
84.0508777473257
 20
426.4032012796328
 30
0.0
  0
VERTEX
  5
9D
  8
LAYER_01
 10
84.05087774732573
 20
378.9615033867973
 30
0.0
  0
VERTEX
  5
9E
  8
LAYER_01
 10
87.47471752728349
 20
372.4632645698921
 30
0.0
  0
SEQEND
  5
9F
  8
LAYER_01
  0
POLYLINE
  5
A0
  8
LAYER_01
 66
     1
 10
0.0
 20
0.0
 30
0.0
  0
VERTEX
  5
A1
  8
LAYER_01
 10
186.0350737000482
 20
800.0720020324158
 30
0.0
  0
VERTEX
  5
A2
  8
LAYER_01
 10
199.5921433501185
 20
769.852914269091
 30
0.0
  0
VERTEX
  5
A3
  8
LAYER_01
 10
203.0159831300763
 20
776.3511530859962
 30
0.0
  0
VERTEX
  5
A4
  8
LAYER_01
 10
203.0159831300763
 20
800.0720020324158
 30
0.0
  0
SEQEND
  5
A5
  8
LAYER_01
  0
POLYLINE
  5
A6
  8
LAYER_01
 66
     1
 10
0.0
 20
0.0
 30
0.0
 70
     1
  0
VERTEX
  5
A7
  8
LAYER_01
 10
141.7278681915405
 20
731.3403937492142
 30
0.0
  0
VERTEX
  5
A8
  8
LAYER_01
 10
105.1320403982291
 20
731.3403937492142
 30
0.0
  0
VERTEX
  5
A9
  8
LAYER_01
 10
89.16185322089342
 20
701.0299537465912
 30
0.0
  0
VERTEX
  5
AA
  8
LAYER_01
 10
122.2826088080274
 20
704.4162882329229
 30
0.0
  0
SEQEND
  5
AB
  8
LAYER_01
  0
POLYLINE
  5
AC
  8
LAYER_01
 66
     1
 10
0.0
 20
0.0
 30
0.0
 70
     1
  0
VERTEX
  5
AD
  8
LAYER_01
 10
145.3389926858615
 20
731.3403937492142
 30
0.0
  0
VERTEX
  5
AE
  8
LAYER_01
 10
164.7842520693746
 20
704.4162882329229
 30
0.0
  0
VERTEX
  5
AF
  8
LAYER_01
 10
197.9050076565086
 20
701.0299537465913
 30
0.0
  0
VERTEX
  5
B0
  8
LAYER_01
 10
181.9348204791729
 20
731.3403937492142
 30
0.0
  0
SEQEND
  5
B1
  8
LAYER_01
  0
POLYLINE
  5
B2
  8
LAYER_01
 66
     1
 10
0.0
 20
0.0
 30
0.0
 70
     1
  0
VERTEX
  5
B3
  8
LAYER_01
 10
203.0159831300763
 20
702.055971381975
 30
0.0
  0
VERTEX
  5
B4
  8
LAYER_01
 10
203.0159831300763
 20
765.6248161164532
 30
0.0
  0
VERTEX
  5
B5
  8
LAYER_01
 10
186.2691733020309
 20
733.8403937492142
 30
0.0
  0
SEQEND
  5
B6
  8
LAYER_01
  0
POLYLINE
  5
B7
  8
LAYER_01
 66
     1
 10
0.0
 20
0.0
 30
0.0
 70
     1
  0
VERTEX
  5
B8
  8
LAYER_01
 10
189.2482098085544
 20
770.7918105113383
 30
0.0
  0
VERTEX
  5
B9
  8
LAYER_01
 10
162.0441958165238
 20
768.0104159110398
 30
0.0
  0
VERTEX
  5
BA
  8
LAYER_01
 10
146.033430438701
 20
745.8417460091831
 30
0.0
  0
VERTEX
  5
BB
  8
LAYER_01
 10
146.033430438701
 20
795.7418750134937
 30
0.0
  0
SEQEND
  5
BC
  8
LAYER_01
  0
POLYLINE
  5
BD
  8
LAYER_01
 66
     1
 10
0.0
 20
0.0
 30
0.0
 70
     1
  0
VERTEX
  5
BE
  8
LAYER_01
 10
197.9050076565086
 20
766.6508337518369
 30
0.0
  0
VERTEX
  5
BF
  8
LAYER_01
 10
181.9348204791729
 20
736.3403937492142
 30
0.0
  0
VERTEX
  5
C0
  8
LAYER_01
 10
145.3389926858615
 20
736.3403937492142
 30
0.0
  0
VERTEX
  5
C1
  8
LAYER_01
 10
164.7842520693746
 20
763.2644992655054
 30
0.0
  0
SEQEND
  5
C2
  8
LAYER_01
  0
POLYLINE
  5
C3
  8
LAYER_01
 66
     1
 10
0.0
 20
0.0
 30
0.0
 70
     1
  0
VERTEX
  5
C4
  8
LAYER_01
 10
89.16185322089342
 20
766.650833751837
 30
0.0
  0
VERTEX
  5
C5
  8
LAYER_01
 10
122.2826088080274
 20
763.2644992655054
 30
0.0
  0
VERTEX
  5
C6
  8
LAYER_01
 10
141.7278681915404
 20
736.3403937492142
 30
0.0
  0
VERTEX
  5
C7
  8
LAYER_01
 10
105.1320403982291
 20
736.3403937492141
 30
0.0
  0
SEQEND
  5
C8
  8
LAYER_01
  0
POLYLINE
  5
C9
  8
LAYER_01
 66
     1
 10
0.0
 20
0.0
 30
0.0
 70
     1
  0
VERTEX
  5
CA
  8
LAYER_01
 10
84.05087774732573
 20
702.055971381975
 30
0.0
  0
VERTEX
  5
CB
  8
LAYER_01
 10
84.05087774732573
 20
765.6248161164533
 30
0.0
  0
VERTEX
  5
CC
  8
LAYER_01
 10
100.7976875753711
 20
733.8403937492142
 30
0.0
  0
SEQEND
  5
CD
  8
LAYER_01
  0
POLYLINE
  5
CE
  8
LAYER_01
 66
     1
 10
0.0
 20
0.0
 30
0.0
 70
     1
  0
VERTEX
  5
CF
  8
LAYER_01
 10
105.3903345851736
 20
670.1087854660124
 30
0.0
  0
VERTEX
  5
D0
  8
LAYER_01
 10
95.31865106884743
 20
692.5588499681677
 30
0.0
  0
VERTEX
  5
D1
  8
LAYER_01
 10
134.2033034197788
 20
670.1087854660125
 30
0.0
  0
SEQEND
  5
D2
  8
LAYER_01
  0
POLYLINE
  5
D3
  8
LAYER_01
 66
     1
 10
0.0
 20
0.0
 30
0.0
 70
     1
  0
VERTEX
  5
D4
  8
LAYER_01
 10
152.8635574576233
 20
670.1087854660125
 30
0.0
  0
VERTEX
  5
D5
  8
LAYER_01
 10
181.6765262922285
 20
670.1087854660125
 30
0.0
  0
VERTEX
  5
D6
  8
LAYER_01
 10
191.7482098085545
 20
692.5588499681677
 30
0.0
  0
SEQEND
  5
D7
  8
LAYER_01
  0
POLYLINE
  5
D8
  8
LAYER_01
 66
     1
 10
0.0
 20
0.0
 30
0.0
  0
VERTEX
  5
D9
  8
LAYER_01
 10
141.033430438701
 20
721.8390414892452
 30
0.0
  0
VERTEX
  5
DA
  8
LAYER_01
 10
141.033430438701
 20
671.9389124849347
 30
0.0
  0
VERTEX
  5
DB
  8
LAYER_01
 10
97.81865106884743
 20
696.8889769870899
 30
0.0
  0
VERTEX
  5
DC
  8
LAYER_01
 10
125.0226650608782
 20
699.6703715873884
 30
0.0
  0
VERTEX
  5
DD
  8
LAYER_01
 10
143.533430438701
 20
725.3005671219553
 30
0.0
  0
VERTEX
  5
DE
  8
LAYER_01
 10
162.0441958165238
 20
699.6703715873884
 30
0.0
  0
VERTEX
  5
DF
  8
LAYER_01
 10
189.2482098085547
 20
696.8889769870899
 30
0.0
  0
VERTEX
  5
E0
  8
LAYER_01
 10
146.033430438701
 20
671.9389124849347
 30
0.0
  0
VERTEX
  5
E1
  8
LAYER_01
 10
146.033430438701
 20
721.8390414892451
 30
0.0
  0
SEQEND
  5
E2
  8
LAYER_01
  0
POLYLINE
  5
E3
  8
LAYER_01
 66
     1
 10
0.0
 20
0.0
 30
0.0
 70
     1
  0
VERTEX
  5
E4
  8
LAYER_01
 10
105.3903345851736
 20
797.5720020324159
 30
0.0
  0
VERTEX
  5
E5
  8
LAYER_01
 10
95.31865106884743
 20
775.1219375302605
 30
0.0
  0
VERTEX
  5
E6
  8
LAYER_01
 10
134.2033034197788
 20
797.5720020324158
 30
0.0
  0
SEQEND
  5
E7
  8
LAYER_01
  0
POLYLINE
  5
E8
  8
LAYER_01
 66
     1
 10
0.0
 20
0.0
 30
0.0
 70
     1
  0
VERTEX
  5
E9
  8
LAYER_01
 10
181.6765262922285
 20
797.5720020324159
 30
0.0
  0
VERTEX
  5
EA
  8
LAYER_01
 10
191.7482098085546
 20
775.1219375302605
 30
0.0
  0
VERTEX
  5
EB
  8
LAYER_01
 10
152.8635574576233
 20
797.5720020324158
 30
0.0
  0
SEQEND
  5
EC
  8
LAYER_01
  0
POLYLINE
  5
ED
  8
LAYER_01
 66
     1
 10
0.0
 20
0.0
 30
0.0
 70
     1
  0
VERTEX
  5
EE
  8
LAYER_01
 10
141.033430438701
 20
745.841746009183
 30
0.0
  0
VERTEX
  5
EF
  8
LAYER_01
 10
141.033430438701
 20
795.7418750134937
 30
0.0
  0
VERTEX
  5
F0
  8
LAYER_01
 10
97.81865106884743
 20
770.7918105113383
 30
0.0
  0
VERTEX
  5
F1
  8
LAYER_01
 10
125.0226650608782
 20
768.0104159110398
 30
0.0
  0
SEQEND
  5
F2
  8
LAYER_01
  0
POLYLINE
  5
F3
  8
LAYER_01
 66
     1
 10
0.0
 20
0.0
 30
0.0
  0
VERTEX
  5
F4
  8
LAYER_01
 10
101.0317871773539
 20
800.0720020324158
 30
0.0
  0
VERTEX
  5
F5
  8
LAYER_01
 10
87.47471752728349
 20
769.852914269091
 30
0.0
  0
VERTEX
  5
F6
  8
LAYER_01
 10
84.05087774732573
 20
776.3511530859962
 30
0.0
  0
VERTEX
  5
F7
  8
LAYER_01
 10
84.05087774732573
 20
800.0720020324158
 30
0.0
  0
SEQEND
  5
F8
  8
LAYER_01
  0
POLYLINE
  5
F9
  8
LAYER_01
 66
     1
 10
0.0
 20
0.0
 30
0.0
 70
     1
  0
VERTEX
  5
FA
  8
LAYER_01
 10
141.7278681915405
 20
598.8771771828144
 30
0.0
  0
VERTEX
  5
FB
  8
LAYER_01
 10
105.1320403982291
 20
598.8771771828145
 30
0.0
  0
VERTEX
  5
FC
  8
LAYER_01
 10
89.16185322089342
 20
568.5667371801916
 30
0.0
  0
VERTEX
  5
FD
  8
LAYER_01
 10
122.2826088080274
 20
571.9530716665232
 30
0.0
  0
SEQEND
  5
FE
  8
LAYER_01
  0
POLYLINE
  5
FF
  8
LAYER_01
 66
     1
 10
0.0
 20
0.0
 30
0.0
 70
     1
  0
VERTEX
  5
100
  8
LAYER_01
 10
145.3389926858615
 20
598.8771771828145
 30
0.0
  0
VERTEX
  5
101
  8
LAYER_01
 10
164.7842520693746
 20
571.9530716665232
 30
0.0
  0
VERTEX
  5
102
  8
LAYER_01
 10
197.9050076565086
 20
568.5667371801917
 30
0.0
  0
VERTEX
  5
103
  8
LAYER_01
 10
181.9348204791729
 20
598.8771771828144
 30
0.0
  0
SEQEND
  5
104
  8
LAYER_01
  0
POLYLINE
  5
105
  8
LAYER_01
 66
     1
 10
0.0
 20
0.0
 30
0.0
 70
     1
  0
VERTEX
  5
106
  8
LAYER_01
 10
203.0159831300763
 20
569.5927548155753
 30
0.0
  0
VERTEX
  5
107
  8
LAYER_01
 10
203.0159831300763
 20
633.1615995500536
 30
0.0
  0
VERTEX
  5
108
  8
LAYER_01
 10
186.2691733020309
 20
601.3771771828144
 30
0.0
  0
SEQEND
  5
109
  8
LAYER_01
  0
POLYLINE
  5
10A
  8
LAYER_01
 66
     1
 10
0.0
 20
0.0
 30
0.0
 70
     1
  0
VERTEX
  5
10B
  8
LAYER_01
 10
189.2482098085544
 20
638.3285939449386
 30
0.0
  0
VERTEX
  5
10C
  8
LAYER_01
 10
162.0441958165238
 20
635.5471993446401
 30
0.0
  0
VERTEX
  5
10D
  8
LAYER_01
 10
146.033430438701
 20
613.3785294427835
 30
0.0
  0
VERTEX
  5
10E
  8
LAYER_01
 10
146.033430438701
 20
663.2786584470939
 30
0.0
  0
SEQEND
  5
10F
  8
LAYER_01
  0
POLYLINE
  5
110
  8
LAYER_01
 66
     1
 10
0.0
 20
0.0
 30
0.0
 70
     1
  0
VERTEX
  5
111
  8
LAYER_01
 10
197.9050076565086
 20
634.1876171854373
 30
0.0
  0
VERTEX
  5
112
  8
LAYER_01
 10
181.9348204791729
 20
603.8771771828145
 30
0.0
  0
VERTEX
  5
113
  8
LAYER_01
 10
145.3389926858615
 20
603.8771771828144
 30
0.0
  0
VERTEX
  5
114
  8
LAYER_01
 10
164.7842520693746
 20
630.8012826991057
 30
0.0
  0
SEQEND
  5
115
  8
LAYER_01
  0
POLYLINE
  5
116
  8
LAYER_01
 66
     1
 10
0.0
 20
0.0
 30
0.0
 70
     1
  0
VERTEX
  5
117
  8
LAYER_01
 10
89.16185322089342
 20
634.1876171854374
 30
0.0
  0
VERTEX
  5
118
  8
LAYER_01
 10
122.2826088080274
 20
630.8012826991057
 30
0.0
  0
VERTEX
  5
119
  8
LAYER_01
 10
141.7278681915404
 20
603.8771771828144
 30
0.0
  0
VERTEX
  5
11A
  8
LAYER_01
 10
105.1320403982291
 20
603.8771771828144
 30
0.0
  0
SEQEND
  5
11B
  8
LAYER_01
  0
POLYLINE
  5
11C
  8
LAYER_01
 66
     1
 10
0.0
 20
0.0
 30
0.0
 70
     1
  0
VERTEX
  5
11D
  8
LAYER_01
 10
84.05087774732573
 20
569.5927548155754
 30
0.0
  0
VERTEX
  5
11E
  8
LAYER_01
 10
84.05087774732573
 20
633.1615995500537
 30
0.0
  0
VERTEX
  5
11F
  8
LAYER_01
 10
100.7976875753711
 20
601.3771771828144
 30
0.0
  0
SEQEND
  5
120
  8
LAYER_01
  0
POLYLINE
  5
121
  8
LAYER_01
 66
     1
 10
0.0
 20
0.0
 30
0.0
 70
     1
  0
VERTEX
  5
122
  8
LAYER_01
 10
105.3903345851736
 20
537.6455688996127
 30
0.0
  0
VERTEX
  5
123
  8
LAYER_01
 10
95.31865106884743
 20
560.095633401768
 30
0.0
  0
VERTEX
  5
124
  8
LAYER_01
 10
134.2033034197788
 20
537.6455688996128
 30
0.0
  0
SEQEND
  5
125
  8
LAYER_01
  0
POLYLINE
  5
126
  8
LAYER_01
 66
     1
 10
0.0
 20
0.0
 30
0.0
 70
     1
  0
VERTEX
  5
127
  8
LAYER_01
 10
152.8635574576233
 20
537.6455688996128
 30
0.0
  0
VERTEX
  5
128
  8
LAYER_01
 10
181.6765262922285
 20
537.6455688996128
 30
0.0
  0
VERTEX
  5
129
  8
LAYER_01
 10
191.7482098085545
 20
560.095633401768
 30
0.0
  0
SEQEND
  5
12A
  8
LAYER_01
  0
POLYLINE
  5
12B
  8
LAYER_01
 66
     1
 10
0.0
 20
0.0
 30
0.0
  0
VERTEX
  5
12C
  8
LAYER_01
 10
141.033430438701
 20
589.3758249228456
 30
0.0
  0
VERTEX
  5
12D
  8
LAYER_01
 10
141.033430438701
 20
539.4756959185349
 30
0.0
  0
VERTEX
  5
12E
  8
LAYER_01
 10
97.81865106884743
 20
564.4257604206903
 30
0.0
  0
VERTEX
  5
12F
  8
LAYER_01
 10
125.0226650608782
 20
567.2071550209888
 30
0.0
  0
VERTEX
  5
130
  8
LAYER_01
 10
143.533430438701
 20
592.8373505555558
 30
0.0
  0
VERTEX
  5
131
  8
LAYER_01
 10
162.0441958165238
 20
567.2071550209888
 30
0.0
  0
VERTEX
  5
132
  8
LAYER_01
 10
189.2482098085547
 20
564.4257604206903
 30
0.0
  0
VERTEX
  5
133
  8
LAYER_01
 10
146.033430438701
 20
539.4756959185349
 30
0.0
  0
VERTEX
  5
134
  8
LAYER_01
 10
146.033430438701
 20
589.3758249228455
 30
0.0
  0
SEQEND
  5
135
  8
LAYER_01
  0
POLYLINE
  5
136
  8
LAYER_01
 66
     1
 10
0.0
 20
0.0
 30
0.0
 70
     1
  0
VERTEX
  5
137
  8
LAYER_01
 10
105.3903345851736
 20
665.1087854660162
 30
0.0
  0
VERTEX
  5
138
  8
LAYER_01
 10
95.31865106884743
 20
642.6587209638609
 30
0.0
  0
VERTEX
  5
139
  8
LAYER_01
 10
134.2033034197788
 20
665.1087854660161
 30
0.0
  0
SEQEND
  5
13A
  8
LAYER_01
  0
POLYLINE
  5
13B
  8
LAYER_01
 66
     1
 10
0.0
 20
0.0
 30
0.0
 70
     1
  0
VERTEX
  5
13C
  8
LAYER_01
 10
181.6765262922285
 20
665.1087854660161
 30
0.0
  0
VERTEX
  5
13D
  8
LAYER_01
 10
191.7482098085546
 20
642.6587209638609
 30
0.0
  0
VERTEX
  5
13E
  8
LAYER_01
 10
152.8635574576233
 20
665.1087854660161
 30
0.0
  0
SEQEND
  5
13F
  8
LAYER_01
  0
POLYLINE
  5
140
  8
LAYER_01
 66
     1
 10
0.0
 20
0.0
 30
0.0
 70
     1
  0
VERTEX
  5
141
  8
LAYER_01
 10
141.033430438701
 20
613.3785294427834
 30
0.0
  0
VERTEX
  5
142
  8
LAYER_01
 10
141.033430438701
 20
663.2786584470939
 30
0.0
  0
VERTEX
  5
143
  8
LAYER_01
 10
97.81865106884743
 20
638.3285939449387
 30
0.0
  0
VERTEX
  5
144
  8
LAYER_01
 10
125.0226650608782
 20
635.5471993446401
 30
0.0
  0
SEQEND
  5
145
  8
LAYER_01
  0
POLYLINE
  5
146
  8
LAYER_01
 66
     1
 10
0.0
 20
0.0
 30
0.0
 70
     1
  0
VERTEX
  5
147
  8
LAYER_01
 10
141.7278681915405
 20
466.4139606164148
 30
0.0
  0
VERTEX
  5
148
  8
LAYER_01
 10
105.1320403982291
 20
466.4139606164149
 30
0.0
  0
VERTEX
  5
149
  8
LAYER_01
 10
89.16185322089342
 20
436.1035206137919
 30
0.0
  0
VERTEX
  5
14A
  8
LAYER_01
 10
122.2826088080274
 20
439.4898551001236
 30
0.0
  0
SEQEND
  5
14B
  8
LAYER_01
  0
POLYLINE
  5
14C
  8
LAYER_01
 66
     1
 10
0.0
 20
0.0
 30
0.0
 70
     1
  0
VERTEX
  5
14D
  8
LAYER_01
 10
145.3389926858615
 20
466.4139606164149
 30
0.0
  0
VERTEX
  5
14E
  8
LAYER_01
 10
164.7842520693746
 20
439.4898551001236
 30
0.0
  0
VERTEX
  5
14F
  8
LAYER_01
 10
197.9050076565086
 20
436.1035206137921
 30
0.0
  0
VERTEX
  5
150
  8
LAYER_01
 10
181.9348204791729
 20
466.4139606164148
 30
0.0
  0
SEQEND
  5
151
  8
LAYER_01
  0
POLYLINE
  5
152
  8
LAYER_01
 66
     1
 10
0.0
 20
0.0
 30
0.0
 70
     1
  0
VERTEX
  5
153
  8
LAYER_01
 10
203.0159831300763
 20
437.1295382491757
 30
0.0
  0
VERTEX
  5
154
  8
LAYER_01
 10
203.0159831300763
 20
500.6983829836539
 30
0.0
  0
VERTEX
  5
155
  8
LAYER_01
 10
186.2691733020309
 20
468.9139606164148
 30
0.0
  0
SEQEND
  5
156
  8
LAYER_01
  0
POLYLINE
  5
157
  8
LAYER_01
 66
     1
 10
0.0
 20
0.0
 30
0.0
 70
     1
  0
VERTEX
  5
158
  8
LAYER_01
 10
189.2482098085544
 20
505.865377378539
 30
0.0
  0
VERTEX
  5
159
  8
LAYER_01
 10
162.0441958165238
 20
503.0839827782405
 30
0.0
  0
VERTEX
  5
15A
  8
LAYER_01
 10
146.033430438701
 20
480.9153128763838
 30
0.0
  0
VERTEX
  5
15B
  8
LAYER_01
 10
146.033430438701
 20
530.8154418806944
 30
0.0
  0
SEQEND
  5
15C
  8
LAYER_01
  0
POLYLINE
  5
15D
  8
LAYER_01
 66
     1
 10
0.0
 20
0.0
 30
0.0
 70
     1
  0
VERTEX
  5
15E
  8
LAYER_01
 10
197.9050076565086
 20
501.7244006190376
 30
0.0
  0
VERTEX
  5
15F
  8
LAYER_01
 10
181.9348204791729
 20
471.4139606164149
 30
0.0
  0
VERTEX
  5
160
  8
LAYER_01
 10
145.3389926858615
 20
471.4139606164148
 30
0.0
  0
VERTEX
  5
161
  8
LAYER_01
 10
164.7842520693746
 20
498.3380661327061
 30
0.0
  0
SEQEND
  5
162
  8
LAYER_01
  0
POLYLINE
  5
163
  8
LAYER_01
 66
     1
 10
0.0
 20
0.0
 30
0.0
 70
     1
  0
VERTEX
  5
164
  8
LAYER_01
 10
89.16185322089342
 20
501.7244006190377
 30
0.0
  0
VERTEX
  5
165
  8
LAYER_01
 10
122.2826088080274
 20
498.3380661327061
 30
0.0
  0
VERTEX
  5
166
  8
LAYER_01
 10
141.7278681915404
 20
471.4139606164148
 30
0.0
  0
VERTEX
  5
167
  8
LAYER_01
 10
105.1320403982291
 20
471.4139606164148
 30
0.0
  0
SEQEND
  5
168
  8
LAYER_01
  0
POLYLINE
  5
169
  8
LAYER_01
 66
     1
 10
0.0
 20
0.0
 30
0.0
 70
     1
  0
VERTEX
  5
16A
  8
LAYER_01
 10
84.05087774732573
 20
437.1295382491758
 30
0.0
  0
VERTEX
  5
16B
  8
LAYER_01
 10
84.05087774732573
 20
500.698382983654
 30
0.0
  0
VERTEX
  5
16C
  8
LAYER_01
 10
100.7976875753711
 20
468.9139606164148
 30
0.0
  0
SEQEND
  5
16D
  8
LAYER_01
  0
POLYLINE
  5
16E
  8
LAYER_01
 66
     1
 10
0.0
 20
0.0
 30
0.0
 70
     1
  0
VERTEX
  5
16F
  8
LAYER_01
 10
105.3903345851736
 20
405.1823523332131
 30
0.0
  0
VERTEX
  5
170
  8
LAYER_01
 10
95.31865106884743
 20
427.6324168353684
 30
0.0
  0
VERTEX
  5
171
  8
LAYER_01
 10
134.2033034197788
 20
405.1823523332132
 30
0.0
  0
SEQEND
  5
172
  8
LAYER_01
  0
POLYLINE
  5
173
  8
LAYER_01
 66
     1
 10
0.0
 20
0.0
 30
0.0
 70
     1
  0
VERTEX
  5
174
  8
LAYER_01
 10
152.8635574576233
 20
405.1823523332132
 30
0.0
  0
VERTEX
  5
175
  8
LAYER_01
 10
181.6765262922285
 20
405.1823523332132
 30
0.0
  0
VERTEX
  5
176
  8
LAYER_01
 10
191.7482098085545
 20
427.6324168353684
 30
0.0
  0
SEQEND
  5
177
  8
LAYER_01
  0
POLYLINE
  5
178
  8
LAYER_01
 66
     1
 10
0.0
 20
0.0
 30
0.0
  0
VERTEX
  5
179
  8
LAYER_01
 10
141.033430438701
 20
456.912608356446
 30
0.0
  0
VERTEX
  5
17A
  8
LAYER_01
 10
141.033430438701
 20
407.0124793521354
 30
0.0
  0
VERTEX
  5
17B
  8
LAYER_01
 10
97.81865106884743
 20
431.9625438542906
 30
0.0
  0
VERTEX
  5
17C
  8
LAYER_01
 10
125.0226650608782
 20
434.7439384545892
 30
0.0
  0
VERTEX
  5
17D
  8
LAYER_01
 10
143.533430438701
 20
460.3741339891561
 30
0.0
  0
VERTEX
  5
17E
  8
LAYER_01
 10
162.0441958165238
 20
434.7439384545892
 30
0.0
  0
VERTEX
  5
17F
  8
LAYER_01
 10
189.2482098085547
 20
431.9625438542906
 30
0.0
  0
VERTEX
  5
180
  8
LAYER_01
 10
146.033430438701
 20
407.0124793521354
 30
0.0
  0
VERTEX
  5
181
  8
LAYER_01
 10
146.033430438701
 20
456.9126083564458
 30
0.0
  0
SEQEND
  5
182
  8
LAYER_01
  0
POLYLINE
  5
183
  8
LAYER_01
 66
     1
 10
0.0
 20
0.0
 30
0.0
 70
     1
  0
VERTEX
  5
184
  8
LAYER_01
 10
105.3903345851736
 20
532.6455688996166
 30
0.0
  0
VERTEX
  5
185
  8
LAYER_01
 10
95.31865106884743
 20
510.1955043974613
 30
0.0
  0
VERTEX
  5
186
  8
LAYER_01
 10
134.2033034197788
 20
532.6455688996165
 30
0.0
  0
SEQEND
  5
187
  8
LAYER_01
  0
POLYLINE
  5
188
  8
LAYER_01
 66
     1
 10
0.0
 20
0.0
 30
0.0
 70
     1
  0
VERTEX
  5
189
  8
LAYER_01
 10
181.6765262922285
 20
532.6455688996166
 30
0.0
  0
VERTEX
  5
18A
  8
LAYER_01
 10
191.7482098085546
 20
510.1955043974613
 30
0.0
  0
VERTEX
  5
18B
  8
LAYER_01
 10
152.8635574576233
 20
532.6455688996165
 30
0.0
  0
SEQEND
  5
18C
  8
LAYER_01
  0
POLYLINE
  5
18D
  8
LAYER_01
 66
     1
 10
0.0
 20
0.0
 30
0.0
 70
     1
  0
VERTEX
  5
18E
  8
LAYER_01
 10
141.033430438701
 20
480.9153128763837
 30
0.0
  0
VERTEX
  5
18F
  8
LAYER_01
 10
141.033430438701
 20
530.8154418806944
 30
0.0
  0
VERTEX
  5
190
  8
LAYER_01
 10
97.81865106884743
 20
505.8653773785391
 30
0.0
  0
VERTEX
  5
191
  8
LAYER_01
 10
125.0226650608782
 20
503.0839827782405
 30
0.0
  0
SEQEND
  5
192
  8
LAYER_01
  0
POLYLINE
  5
193
  8
LAYER_01
 66
     1
 10
0.0
 20
0.0
 30
0.0
  0
VERTEX
  5
194
  8
LAYER_01
 10
203.0159831300763
 20
270.2191357668136
 30
0.0
  0
VERTEX
  5
195
  8
LAYER_01
 10
203.0159831300763
 20
293.9399847132332
 30
0.0
  0
VERTEX
  5
196
  8
LAYER_01
 10
199.5921433501185
 20
300.4382235301383
 30
0.0
  0
VERTEX
  5
197
  8
LAYER_01
 10
186.0350737000482
 20
270.2191357668136
 30
0.0
  0
SEQEND
  5
198
  8
LAYER_01
  0
POLYLINE
  5
199
  8
LAYER_01
 66
     1
 10
0.0
 20
0.0
 30
0.0
 70
     1
  0
VERTEX
  5
19A
  8
LAYER_01
 10
141.7278681915405
 20
333.9507440500152
 30
0.0
  0
VERTEX
  5
19B
  8
LAYER_01
 10
105.1320403982291
 20
333.9507440500153
 30
0.0
  0
VERTEX
  5
19C
  8
LAYER_01
 10
89.16185322089342
 20
303.6403040473923
 30
0.0
  0
VERTEX
  5
19D
  8
LAYER_01
 10
122.2826088080274
 20
307.0266385337239
 30
0.0
  0
SEQEND
  5
19E
  8
LAYER_01
  0
POLYLINE
  5
19F
  8
LAYER_01
 66
     1
 10
0.0
 20
0.0
 30
0.0
 70
     1
  0
VERTEX
  5
1A0
  8
LAYER_01
 10
145.3389926858615
 20
333.9507440500153
 30
0.0
  0
VERTEX
  5
1A1
  8
LAYER_01
 10
164.7842520693746
 20
307.0266385337239
 30
0.0
  0
VERTEX
  5
1A2
  8
LAYER_01
 10
197.9050076565086
 20
303.6403040473924
 30
0.0
  0
VERTEX
  5
1A3
  8
LAYER_01
 10
181.9348204791729
 20
333.9507440500152
 30
0.0
  0
SEQEND
  5
1A4
  8
LAYER_01
  0
POLYLINE
  5
1A5
  8
LAYER_01
 66
     1
 10
0.0
 20
0.0
 30
0.0
 70
     1
  0
VERTEX
  5
1A6
  8
LAYER_01
 10
203.0159831300763
 20
304.6663216827761
 30
0.0
  0
VERTEX
  5
1A7
  8
LAYER_01
 10
203.0159831300763
 20
368.2351664172543
 30
0.0
  0
VERTEX
  5
1A8
  8
LAYER_01
 10
186.2691733020309
 20
336.4507440500152
 30
0.0
  0
SEQEND
  5
1A9
  8
LAYER_01
  0
POLYLINE
  5
1AA
  8
LAYER_01
 66
     1
 10
0.0
 20
0.0
 30
0.0
 70
     1
  0
VERTEX
  5
1AB
  8
LAYER_01
 10
189.2482098085544
 20
373.4021608121394
 30
0.0
  0
VERTEX
  5
1AC
  8
LAYER_01
 10
162.0441958165238
 20
370.6207662118409
 30
0.0
  0
VERTEX
  5
1AD
  8
LAYER_01
 10
146.033430438701
 20
348.4520963099842
 30
0.0
  0
VERTEX
  5
1AE
  8
LAYER_01
 10
146.033430438701
 20
398.3522253142947
 30
0.0
  0
SEQEND
  5
1AF
  8
LAYER_01
  0
POLYLINE
  5
1B0
  8
LAYER_01
 66
     1
 10
0.0
 20
0.0
 30
0.0
 70
     1
  0
VERTEX
  5
1B1
  8
LAYER_01
 10
197.9050076565086
 20
369.261184052638
 30
0.0
  0
VERTEX
  5
1B2
  8
LAYER_01
 10
181.9348204791729
 20
338.9507440500153
 30
0.0
  0
VERTEX
  5
1B3
  8
LAYER_01
 10
145.3389926858615
 20
338.9507440500152
 30
0.0
  0
VERTEX
  5
1B4
  8
LAYER_01
 10
164.7842520693746
 20
365.8748495663065
 30
0.0
  0
SEQEND
  5
1B5
  8
LAYER_01
  0
POLYLINE
  5
1B6
  8
LAYER_01
 66
     1
 10
0.0
 20
0.0
 30
0.0
 70
     1
  0
VERTEX
  5
1B7
  8
LAYER_01
 10
89.16185322089342
 20
369.2611840526381
 30
0.0
  0
VERTEX
  5
1B8
  8
LAYER_01
 10
122.2826088080274
 20
365.8748495663065
 30
0.0
  0
VERTEX
  5
1B9
  8
LAYER_01
 10
141.7278681915404
 20
338.9507440500152
 30
0.0
  0
VERTEX
  5
1BA
  8
LAYER_01
 10
105.1320403982291
 20
338.9507440500151
 30
0.0
  0
SEQEND
  5
1BB
  8
LAYER_01
  0
POLYLINE
  5
1BC
  8
LAYER_01
 66
     1
 10
0.0
 20
0.0
 30
0.0
 70
     1
  0
VERTEX
  5
1BD
  8
LAYER_01
 10
84.05087774732573
 20
304.6663216827761
 30
0.0
  0
VERTEX
  5
1BE
  8
LAYER_01
 10
84.05087774732573
 20
368.2351664172544
 30
0.0
  0
VERTEX
  5
1BF
  8
LAYER_01
 10
100.7976875753711
 20
336.4507440500152
 30
0.0
  0
SEQEND
  5
1C0
  8
LAYER_01
  0
POLYLINE
  5
1C1
  8
LAYER_01
 66
     1
 10
0.0
 20
0.0
 30
0.0
 70
     1
  0
VERTEX
  5
1C2
  8
LAYER_01
 10
105.3903345851736
 20
272.7191357668135
 30
0.0
  0
VERTEX
  5
1C3
  8
LAYER_01
 10
95.31865106884743
 20
295.1692002689688
 30
0.0
  0
VERTEX
  5
1C4
  8
LAYER_01
 10
134.2033034197788
 20
272.7191357668136
 30
0.0
  0
SEQEND
  5
1C5
  8
LAYER_01
  0
POLYLINE
  5
1C6
  8
LAYER_01
 66
     1
 10
0.0
 20
0.0
 30
0.0
 70
     1
  0
VERTEX
  5
1C7
  8
LAYER_01
 10
152.8635574576233
 20
272.7191357668136
 30
0.0
  0
VERTEX
  5
1C8
  8
LAYER_01
 10
181.6765262922285
 20
272.7191357668136
 30
0.0
  0
VERTEX
  5
1C9
  8
LAYER_01
 10
191.7482098085545
 20
295.1692002689688
 30
0.0
  0
SEQEND
  5
1CA
  8
LAYER_01
  0
POLYLINE
  5
1CB
  8
LAYER_01
 66
     1
 10
0.0
 20
0.0
 30
0.0
  0
VERTEX
  5
1CC
  8
LAYER_01
 10
141.033430438701
 20
324.4493917900463
 30
0.0
  0
VERTEX
  5
1CD
  8
LAYER_01
 10
141.033430438701
 20
274.5492627857357
 30
0.0
  0
VERTEX
  5
1CE
  8
LAYER_01
 10
97.81865106884743
 20
299.499327287891
 30
0.0
  0
VERTEX
  5
1CF
  8
LAYER_01
 10
125.0226650608782
 20
302.2807218881895
 30
0.0
  0
VERTEX
  5
1D0
  8
LAYER_01
 10
143.533430438701
 20
327.9109174227564
 30
0.0
  0
VERTEX
  5
1D1
  8
LAYER_01
 10
162.0441958165238
 20
302.2807218881895
 30
0.0
  0
VERTEX
  5
1D2
  8
LAYER_01
 10
189.2482098085547
 20
299.499327287891
 30
0.0
  0
VERTEX
  5
1D3
  8
LAYER_01
 10
146.033430438701
 20
274.5492627857357
 30
0.0
  0
VERTEX
  5
1D4
  8
LAYER_01
 10
146.033430438701
 20
324.4493917900462
 30
0.0
  0
SEQEND
  5
1D5
  8
LAYER_01
  0
POLYLINE
  5
1D6
  8
LAYER_01
 66
     1
 10
0.0
 20
0.0
 30
0.0
 70
     1
  0
VERTEX
  5
1D7
  8
LAYER_01
 10
105.3903345851736
 20
400.182352333217
 30
0.0
  0
VERTEX
  5
1D8
  8
LAYER_01
 10
95.31865106884743
 20
377.7322878310616
 30
0.0
  0
VERTEX
  5
1D9
  8
LAYER_01
 10
134.2033034197788
 20
400.1823523332168
 30
0.0
  0
SEQEND
  5
1DA
  8
LAYER_01
  0
POLYLINE
  5
1DB
  8
LAYER_01
 66
     1
 10
0.0
 20
0.0
 30
0.0
 70
     1
  0
VERTEX
  5
1DC
  8
LAYER_01
 10
181.6765262922285
 20
400.1823523332169
 30
0.0
  0
VERTEX
  5
1DD
  8
LAYER_01
 10
191.7482098085546
 20
377.7322878310616
 30
0.0
  0
VERTEX
  5
1DE
  8
LAYER_01
 10
152.8635574576233
 20
400.1823523332168
 30
0.0
  0
SEQEND
  5
1DF
  8
LAYER_01
  0
POLYLINE
  5
1E0
  8
LAYER_01
 66
     1
 10
0.0
 20
0.0
 30
0.0
 70
     1
  0
VERTEX
  5
1E1
  8
LAYER_01
 10
141.033430438701
 20
348.4520963099841
 30
0.0
  0
VERTEX
  5
1E2
  8
LAYER_01
 10
141.033430438701
 20
398.3522253142947
 30
0.0
  0
VERTEX
  5
1E3
  8
LAYER_01
 10
97.81865106884743
 20
373.4021608121394
 30
0.0
  0
VERTEX
  5
1E4
  8
LAYER_01
 10
125.0226650608782
 20
370.6207662118409
 30
0.0
  0
SEQEND
  5
1E5
  8
LAYER_01
  0
POLYLINE
  5
1E6
  8
LAYER_01
 66
     1
 10
0.0
 20
0.0
 30
0.0
  0
VERTEX
  5
1E7
  8
LAYER_01
 10
101.0317871773539
 20
270.2191357668136
 30
0.0
  0
VERTEX
  5
1E8
  8
LAYER_01
 10
87.47471752728349
 20
300.4382235301383
 30
0.0
  0
VERTEX
  5
1E9
  8
LAYER_01
 10
84.0508777473257
 20
293.9399847132331
 30
0.0
  0
VERTEX
  5
1EA
  8
LAYER_01
 10
84.05087774732573
 20
270.2191357668136
 30
0.0
  0
SEQEND
  5
1EB
  8
LAYER_01
  0
ENDSEC
  0
EOF
