  0
SECTION
  2
HEADER
  9
$ACADVER
  1
AC1009
  9
$DWGCODEPAGE
  3
ansi_1252
  9
$INSBASE
 10
0.0
 20
0.0
 30
0.0
  9
$EXTMIN
 10
1.000000000000000E+20
 20
1.000000000000000E+20
 30
1.000000000000000E+20
  9
$EXTMAX
 10
-1.000000000000000E+20
 20
-1.000000000000000E+20
 30
-1.000000000000000E+20
  9
$LIMMIN
 10
0.0
 20
0.0
  9
$LIMMAX
 10
12.0
 20
9.0
  9
$ORTHOMODE
 70
     0
  9
$REGENMODE
 70
     1
  9
$FILLMODE
 70
     1
  9
$QTEXTMODE
 70
     0
  9
$MIRRTEXT
 70
     1
  9
$DRAGMODE
 70
     2
  9
$LTSCALE
 40
1.0
  9
$OSMODE
 70
    37
  9
$ATTMODE
 70
     1
  9
$TEXTSIZE
 40
0.2
  9
$TRACEWID
 40
0.05
  9
$TEXTSTYLE
  7
STANDARD
  9
$CLAYER
  8
LAYER_05
  9
$CELTYPE
  6
BYLAYER
  9
$CECOLOR
 62
   256
  9
$DIMSCALE
 40
1.0
  9
$DIMASZ
 40
0.18
  9
$DIMEXO
 40
0.0625
  9
$DIMDLI
 40
0.38
  9
$DIMRND
 40
0.0
  9
$DIMDLE
 40
0.0
  9
$DIMEXE
 40
0.18
  9
$DIMTP
 40
0.0
  9
$DIMTM
 40
0.0
  9
$DIMTXT
 40
0.18
  9
$DIMCEN
 40
0.09
  9
$DIMTSZ
 40
0.0
  9
$DIMTOL
 70
     0
  9
$DIMLIM
 70
     0
  9
$DIMTIH
 70
     1
  9
$DIMTOH
 70
     1
  9
$DIMSE1
 70
     0
  9
$DIMSE2
 70
     0
  9
$DIMTAD
 70
     0
  9
$DIMZIN
 70
     0
  9
$DIMBLK
  1

  9
$DIMASO
 70
     1
  9
$DIMSHO
 70
     1
  9
$DIMPOST
  1

  9
$DIMAPOST
  1

  9
$DIMALT
 70
     0
  9
$DIMALTD
 70
     2
  9
$DIMALTF
 40
25.4
  9
$DIMLFAC
 40
1.0
  9
$DIMTOFL
 70
     0
  9
$DIMTVP
 40
0.0
  9
$DIMTIX
 70
     0
  9
$DIMSOXD
 70
     0
  9
$DIMSAH
 70
     0
  9
$DIMBLK1
  1

  9
$DIMBLK2
  1

  9
$DIMSTYLE
  2
STANDARD_ACAD
  9
$DIMCLRD
 70
     0
  9
$DIMCLRE
 70
     0
  9
$DIMCLRT
 70
     0
  9
$DIMTFAC
 40
1.0
  9
$DIMGAP
 40
0.09
  9
$LUNITS
 70
     2
  9
$LUPREC
 70
     3
  9
$SKETCHINC
 40
0.1
  9
$FILLETRAD
 40
0.5
  9
$AUNITS
 70
     0
  9
$AUPREC
 70
     0
  9
$MENU
  1
.
  9
$ELEVATION
 40
0.0
  9
$PELEVATION
 40
0.0
  9
$THICKNESS
 40
0.0
  9
$LIMCHECK
 70
     0
  9
$CHAMFERA
 40
0.0
  9
$CHAMFERB
 40
0.0
  9
$SKPOLY
 70
     0
  9
$TDCREATE
 40
2460248.429164352
  9
$TDUPDATE
 40
2460248.429164502
  9
$TDINDWG
 40
0.0000000116
  9
$TDUSRTIMER
 40
0.0000000116
  9
$USRTIMER
 70
     1
  9
$ANGBASE
 50
0.0
  9
$ANGDIR
 70
     0
  9
$PDMODE
 70
     0
  9
$PDSIZE
 40
0.0
  9
$PLINEWID
 40
0.0
  9
$COORDS
 70
     1
  9
$SPLFRAME
 70
     0
  9
$SPLINETYPE
 70
     6
  9
$SPLINESEGS
 70
     8
  9
$ATTDIA
 70
     0
  9
$ATTREQ
 70
     1
  9
$HANDLING
 70
     1
  9
$HANDSEED
  5
66B
  9
$SURFTAB1
 70
     6
  9
$SURFTAB2
 70
     6
  9
$SURFTYPE
 70
     6
  9
$SURFU
 70
     6
  9
$SURFV
 70
     6
  9
$UCSNAME
  2

  9
$UCSORG
 10
0.0
 20
0.0
 30
0.0
  9
$UCSXDIR
 10
1.0
 20
0.0
 30
0.0
  9
$UCSYDIR
 10
0.0
 20
1.0
 30
0.0
  9
$PUCSNAME
  2

  9
$PUCSORG
 10
0.0
 20
0.0
 30
0.0
  9
$PUCSXDIR
 10
1.0
 20
0.0
 30
0.0
  9
$PUCSYDIR
 10
0.0
 20
1.0
 30
0.0
  9
$USERI1
 70
     0
  9
$USERI2
 70
     0
  9
$USERI3
 70
     0
  9
$USERI4
 70
     0
  9
$USERI5
 70
     0
  9
$USERR1
 40
0.0
  9
$USERR2
 40
0.0
  9
$USERR3
 40
0.0
  9
$USERR4
 40
0.0
  9
$USERR5
 40
0.0
  9
$WORLDVIEW
 70
     1
  9
$SHADEDGE
 70
     3
  9
$SHADEDIF
 70
    70
  9
$TILEMODE
 70
     1
  9
$MAXACTVP
 70
    64
  9
$PLIMCHECK
 70
     0
  9
$PEXTMIN
 10
1.000000000000000E+20
 20
1.000000000000000E+20
 30
1.000000000000000E+20
  9
$PEXTMAX
 10
-1.000000000000000E+20
 20
-1.000000000000000E+20
 30
-1.000000000000000E+20
  9
$PLIMMIN
 10
0.0
 20
0.0
  9
$PLIMMAX
 10
12.0
 20
9.0
  9
$UNITMODE
 70
     0
  9
$VISRETAIN
 70
     1
  9
$PLINEGEN
 70
     0
  9
$PSLTSCALE
 70
     1
  0
ENDSEC
  0
SECTION
  2
TABLES
  0
TABLE
  2
VPORT
 70
     1
  0
VPORT
  2
*ACTIVE
 70
     0
 10
0.0
 20
0.0
 11
1.0
 21
1.0
 12
10.42990654205607
 22
4.5
 13
0.0
 23
0.0
 14
0.5
 24
0.5
 15
0.5
 25
0.5
 16
0.0
 26
0.0
 36
1.0
 17
0.0
 27
0.0
 37
0.0
 40
9.0
 41
1.972972972850329
 42
50.0
 43
0.0
 44
0.0
 50
0.0
 51
0.0
 71
     0
 72
   100
 73
     1
 74
     3
 75
     0
 76
     0
 77
     0
 78
     0
  0
ENDTAB
  0
TABLE
  2
LTYPE
 70
     1
  0
LTYPE
  2
CONTINUOUS
 70
     0
  3
Solid line
 72
    65
 73
     0
 40
0.0
  0
ENDTAB
  0
TABLE
  2
LAYER
 70
     2
  0
LAYER
  2
0
 70
     0
 62
     7
  6
CONTINUOUS
  0
LAYER
  2
LAYER_05
 70
     0
 62
     1
  6
CONTINUOUS
  0
ENDTAB
  0
TABLE
  2
STYLE
 70
     1
  0
STYLE
  2
STANDARD
 70
     0
 40
0.0
 41
1.0
 50
0.0
 71
     0
 42
0.2
  3
txt
  4

  0
ENDTAB
  0
TABLE
  2
VIEW
 70
     0
  0
ENDTAB
  0
TABLE
  2
UCS
 70
     0
  0
ENDTAB
  0
TABLE
  2
APPID
 70
     2
  0
APPID
  2
ACAD
 70
     0
  0
APPID
  2
RHINO
 70
     0
  0
ENDTAB
  0
TABLE
  2
DIMSTYLE
 70
     1
  0
DIMSTYLE
  2
STANDARD_ACAD
 70
     0
  3

  4

  5

  6

  7

 40
1.0
 41
0.18
 42
0.0625
 43
0.38
 44
0.18
 45
0.0
 46
0.0
 47
0.0
 48
0.0
140
0.18
141
0.09
142
0.0
143
25.4
144
1.0
145
0.0
146
1.0
147
0.09
 71
     0
 72
     0
 73
     1
 74
     1
 75
     0
 76
     0
 77
     0
 78
     0
170
     0
171
     2
172
     0
173
     0
174
     0
175
     0
176
     0
177
     0
178
     0
  0
ENDTAB
  0
ENDSEC
  0
SECTION
  2
BLOCKS
  0
BLOCK
  8
0
  2
$MODEL_SPACE
 70
     0
 10
0.0
 20
0.0
 30
0.0
  3
$MODEL_SPACE
  1

  0
ENDBLK
  5
21
  8
0
  0
BLOCK
 67
     1
  8
0
  2
$PAPER_SPACE
 70
     0
 10
0.0
 20
0.0
 30
0.0
  3
$PAPER_SPACE
  1

  0
ENDBLK
  5
1D
 67
     1
  8
0
  0
ENDSEC
  0
SECTION
  2
ENTITIES
  0
POLYLINE
  5
70
  8
LAYER_05
 66
     1
 10
0.0
 20
0.0
 30
0.0
 70
     1
  0
VERTEX
  5
71
  8
LAYER_05
 10
1144.060737333726
 20
1555.573423372143
 30
0.0
  0
VERTEX
  5
72
  8
LAYER_05
 10
1596.628360925588
 20
1555.573423372143
 30
0.0
  0
VERTEX
  5
73
  8
LAYER_05
 10
1596.628360925588
 20
1893.590088165352
 30
0.0
  0
VERTEX
  5
74
  8
LAYER_05
 10
1144.060737333726
 20
1893.590088165352
 30
0.0
  0
SEQEND
  5
75
  8
LAYER_05
  0
POLYLINE
  5
76
  8
LAYER_05
 66
     1
 10
0.0
 20
0.0
 30
0.0
 70
     1
  0
VERTEX
  5
77
  8
LAYER_05
 10
1459.530299455615
 20
1781.12488048176
 30
0.0
 42
-0.2953601962620615
  0
VERTEX
  5
78
  8
LAYER_05
 10
1546.552762022501
 20
1649.638622424644
 30
0.0
  0
VERTEX
  5
79
  8
LAYER_05
 10
1546.628360925588
 20
1642.272099778977
 30
0.0
  0
VERTEX
  5
7A
  8
LAYER_05
 10
1539.877179280823
 20
1645.220475176151
 30
0.0
 42
-0.2953601962620175
  0
VERTEX
  5
7B
  8
LAYER_05
 10
1452.854716713938
 20
1776.706733233266
 30
0.0
  0
VERTEX
  5
7C
  8
LAYER_05
 10
1452.77911781085
 20
1784.073255878934
 30
0.0
  0
SEQEND
  5
7D
  8
LAYER_05
  0
POLYLINE
  5
7E
  8
LAYER_05
 66
     1
 10
0.0
 20
0.0
 30
0.0
 70
     1
  0
VERTEX
  5
7F
  8
LAYER_05
 10
1457.622173574428
 20
1776.755659236282
 30
0.0
 42
-0.2953601962620575
  0
VERTEX
  5
80
  8
LAYER_05
 10
1541.785305162011
 20
1649.589696421629
 30
0.0
 42
-0.2953601962620569
  0
SEQEND
  5
81
  8
LAYER_05
  0
POLYLINE
  5
82
  8
LAYER_05
 66
     1
 10
0.0
 20
0.0
 30
0.0
 70
     1
  0
VERTEX
  5
83
  8
LAYER_05
 10
1194.060737333726
 20
1605.573423372143
 30
0.0
  0
VERTEX
  5
84
  8
LAYER_05
 10
1432.077402126936
 20
1605.573423372143
 30
0.0
  0
VERTEX
  5
85
  8
LAYER_05
 10
1432.077402126936
 20
1843.590088165352
 30
0.0
  0
VERTEX
  5
86
  8
LAYER_05
 10
1194.060737333726
 20
1843.590088165352
 30
0.0
  0
SEQEND
  5
87
  8
LAYER_05
  0
POLYLINE
  5
88
  8
LAYER_05
 66
     1
 10
0.0
 20
0.0
 30
0.0
 70
     1
  0
VERTEX
  5
89
  8
LAYER_05
 10
1198.828445239041
 20
1610.341131277458
 30
0.0
  0
VERTEX
  5
8A
  8
LAYER_05
 10
1427.309694221622
 20
1610.341131277458
 30
0.0
  0
VERTEX
  5
8B
  8
LAYER_05
 10
1427.309694221622
 20
1838.822380260037
 30
0.0
  0
VERTEX
  5
8C
  8
LAYER_05
 10
1198.828445239041
 20
1838.822380260037
 30
0.0
  0
SEQEND
  5
8D
  8
LAYER_05
  0
POLYLINE
  5
8E
  8
LAYER_05
 66
     1
 10
0.0
 20
0.0
 30
0.0
  0
VERTEX
  5
8F
  8
LAYER_05
 10
1364.342351648524
 20
1762.66196393251
 30
0.0
  0
VERTEX
  5
90
  8
LAYER_05
 10
1360.478189810546
 20
1771.990875848961
 30
0.0
  0
VERTEX
  5
91
  8
LAYER_05
 10
1351.149277894095
 20
1775.85503768694
 30
0.0
  0
SEQEND
  5
92
  8
LAYER_05
  0
POLYLINE
  5
93
  8
LAYER_05
 66
     1
 10
0.0
 20
0.0
 30
0.0
  0
VERTEX
  5
94
  8
LAYER_05
 10
1351.149277894095
 20
1825.629306505607
 30
0.0
  0
VERTEX
  5
95
  8
LAYER_05
 10
1360.478189810546
 20
1829.493468343586
 30
0.0
  0
VERTEX
  5
96
  8
LAYER_05
 10
1364.342351648524
 20
1838.822380260037
 30
0.0
  0
SEQEND
  5
97
  8
LAYER_05
  0
POLYLINE
  5
98
  8
LAYER_05
 66
     1
 10
0.0
 20
0.0
 30
0.0
  0
VERTEX
  5
99
  8
LAYER_05
 10
1414.116620467192
 20
1838.822380260037
 30
0.0
  0
VERTEX
  5
9A
  8
LAYER_05
 10
1417.98078230517
 20
1829.493468343586
 30
0.0
  0
VERTEX
  5
9B
  8
LAYER_05
 10
1427.309694221621
 20
1825.629306505607
 30
0.0
  0
SEQEND
  5
9C
  8
LAYER_05
  0
POLYLINE
  5
9D
  8
LAYER_05
 66
     1
 10
0.0
 20
0.0
 30
0.0
  0
VERTEX
  5
9E
  8
LAYER_05
 10
1427.309694221621
 20
1775.85503768694
 30
0.0
  0
VERTEX
  5
9F
  8
LAYER_05
 10
1417.98078230517
 20
1771.990875848961
 30
0.0
  0
VERTEX
  5
A0
  8
LAYER_05
 10
1414.116620467192
 20
1762.66196393251
 30
0.0
  0
SEQEND
  5
A1
  8
LAYER_05
  0
POLYLINE
  5
A2
  8
LAYER_05
 66
     1
 10
0.0
 20
0.0
 30
0.0
  0
VERTEX
  5
A3
  8
LAYER_05
 10
1369.502881498509
 20
1762.66196393251
 30
0.0
  0
VERTEX
  5
A4
  8
LAYER_05
 10
1366.707500386978
 20
1769.410610923969
 30
0.0
  0
VERTEX
  5
A5
  8
LAYER_05
 10
1371.466741646522
 20
1767.43926864766
 30
0.0
  0
VERTEX
  5
A6
  8
LAYER_05
 10
1380.779817418918
 20
1788.952694731378
 30
0.0
  0
VERTEX
  5
A7
  8
LAYER_05
 10
1384.346124640027
 20
1788.952694731378
 30
0.0
  0
VERTEX
  5
A8
  8
LAYER_05
 10
1386.867884659868
 20
1786.430934711538
 30
0.0
  0
VERTEX
  5
A9
  8
LAYER_05
 10
1378.24093422188
 20
1764.633306208819
 30
0.0
  0
VERTEX
  5
AA
  8
LAYER_05
 10
1383.000175481425
 20
1762.66196393251
 30
0.0
  0
SEQEND
  5
AB
  8
LAYER_05
  0
POLYLINE
  5
AC
  8
LAYER_05
 66
     1
 10
0.0
 20
0.0
 30
0.0
  0
VERTEX
  5
AD
  8
LAYER_05
 10
1351.149277894095
 20
1794.512861519842
 30
0.0
  0
VERTEX
  5
AE
  8
LAYER_05
 10
1353.120620170404
 20
1789.753620260297
 30
0.0
  0
VERTEX
  5
AF
  8
LAYER_05
 10
1374.918248673122
 20
1798.380570698284
 30
0.0
  0
VERTEX
  5
B0
  8
LAYER_05
 10
1377.440008692963
 20
1795.858810678443
 30
0.0
  0
VERTEX
  5
B1
  8
LAYER_05
 10
1377.440008692962
 20
1792.292503457335
 30
0.0
  0
VERTEX
  5
B2
  8
LAYER_05
 10
1355.926582609243
 20
1782.979427684939
 30
0.0
  0
VERTEX
  5
B3
  8
LAYER_05
 10
1357.897924885552
 20
1778.220186425394
 30
0.0
  0
VERTEX
  5
B4
  8
LAYER_05
 10
1351.149277894095
 20
1781.015567536925
 30
0.0
  0
SEQEND
  5
B5
  8
LAYER_05
  0
POLYLINE
  5
B6
  8
LAYER_05
 66
     1
 10
0.0
 20
0.0
 30
0.0
  0
VERTEX
  5
B7
  8
LAYER_05
 10
1351.149277894095
 20
1820.468776655622
 30
0.0
  0
VERTEX
  5
B8
  8
LAYER_05
 10
1357.897924885553
 20
1823.264157767153
 30
0.0
  0
VERTEX
  5
B9
  8
LAYER_05
 10
1355.926582609244
 20
1818.504916507609
 30
0.0
  0
VERTEX
  5
BA
  8
LAYER_05
 10
1377.440008692963
 20
1809.191840735213
 30
0.0
  0
VERTEX
  5
BB
  8
LAYER_05
 10
1377.440008692963
 20
1805.625533514103
 30
0.0
  0
VERTEX
  5
BC
  8
LAYER_05
 10
1374.918248673123
 20
1803.103773494263
 30
0.0
  0
VERTEX
  5
BD
  8
LAYER_05
 10
1353.120620170404
 20
1811.730723932252
 30
0.0
  0
VERTEX
  5
BE
  8
LAYER_05
 10
1351.149277894094
 20
1806.971482672705
 30
0.0
  0
SEQEND
  5
BF
  8
LAYER_05
  0
POLYLINE
  5
C0
  8
LAYER_05
 66
     1
 10
0.0
 20
0.0
 30
0.0
  0
VERTEX
  5
C1
  8
LAYER_05
 10
1383.000175481426
 20
1838.822380260037
 30
0.0
  0
VERTEX
  5
C2
  8
LAYER_05
 10
1378.240934221881
 20
1836.851037983728
 30
0.0
  0
VERTEX
  5
C3
  8
LAYER_05
 10
1386.867884659869
 20
1815.053409481009
 30
0.0
  0
VERTEX
  5
C4
  8
LAYER_05
 10
1384.346124640028
 20
1812.531649461168
 30
0.0
  0
VERTEX
  5
C5
  8
LAYER_05
 10
1380.779817418919
 20
1812.531649461169
 30
0.0
  0
VERTEX
  5
C6
  8
LAYER_05
 10
1371.466741646524
 20
1834.045075544888
 30
0.0
  0
VERTEX
  5
C7
  8
LAYER_05
 10
1366.707500386978
 20
1832.073733268578
 30
0.0
  0
VERTEX
  5
C8
  8
LAYER_05
 10
1369.502881498509
 20
1838.822380260037
 30
0.0
  0
SEQEND
  5
C9
  8
LAYER_05
  0
POLYLINE
  5
CA
  8
LAYER_05
 66
     1
 10
0.0
 20
0.0
 30
0.0
  0
VERTEX
  5
CB
  8
LAYER_05
 10
1408.956090617207
 20
1838.822380260037
 30
0.0
  0
VERTEX
  5
CC
  8
LAYER_05
 10
1411.751471728738
 20
1832.073733268578
 30
0.0
  0
VERTEX
  5
CD
  8
LAYER_05
 10
1406.992230469193
 20
1834.045075544887
 30
0.0
  0
VERTEX
  5
CE
  8
LAYER_05
 10
1397.679154696797
 20
1812.531649461168
 30
0.0
  0
VERTEX
  5
CF
  8
LAYER_05
 10
1394.112847475689
 20
1812.531649461168
 30
0.0
  0
VERTEX
  5
D0
  8
LAYER_05
 10
1391.591087455848
 20
1815.053409481009
 30
0.0
  0
VERTEX
  5
D1
  8
LAYER_05
 10
1400.218037893836
 20
1836.851037983727
 30
0.0
  0
VERTEX
  5
D2
  8
LAYER_05
 10
1395.45879663429
 20
1838.822380260037
 30
0.0
  0
SEQEND
  5
D3
  8
LAYER_05
  0
POLYLINE
  5
D4
  8
LAYER_05
 66
     1
 10
0.0
 20
0.0
 30
0.0
  0
VERTEX
  5
D5
  8
LAYER_05
 10
1427.309694221622
 20
1806.971482672705
 30
0.0
  0
VERTEX
  5
D6
  8
LAYER_05
 10
1425.338351945312
 20
1811.73072393225
 30
0.0
  0
VERTEX
  5
D7
  8
LAYER_05
 10
1403.540723442594
 20
1803.103773494262
 30
0.0
  0
VERTEX
  5
D8
  8
LAYER_05
 10
1401.018963422753
 20
1805.625533514104
 30
0.0
  0
VERTEX
  5
D9
  8
LAYER_05
 10
1401.018963422753
 20
1809.191840735212
 30
0.0
  0
VERTEX
  5
DA
  8
LAYER_05
 10
1422.532389506472
 20
1818.504916507608
 30
0.0
  0
VERTEX
  5
DB
  8
LAYER_05
 10
1420.561047230163
 20
1823.264157767153
 30
0.0
  0
VERTEX
  5
DC
  8
LAYER_05
 10
1427.309694221621
 20
1820.468776655622
 30
0.0
  0
SEQEND
  5
DD
  8
LAYER_05
  0
POLYLINE
  5
DE
  8
LAYER_05
 66
     1
 10
0.0
 20
0.0
 30
0.0
  0
VERTEX
  5
DF
  8
LAYER_05
 10
1427.309694221621
 20
1781.015567536924
 30
0.0
  0
VERTEX
  5
E0
  8
LAYER_05
 10
1420.561047230162
 20
1778.220186425394
 30
0.0
  0
VERTEX
  5
E1
  8
LAYER_05
 10
1422.532389506471
 20
1782.979427684938
 30
0.0
  0
VERTEX
  5
E2
  8
LAYER_05
 10
1401.018963422753
 20
1792.292503457334
 30
0.0
  0
VERTEX
  5
E3
  8
LAYER_05
 10
1401.018963422753
 20
1795.858810678443
 30
0.0
  0
VERTEX
  5
E4
  8
LAYER_05
 10
1403.540723442594
 20
1798.380570698283
 30
0.0
  0
VERTEX
  5
E5
  8
LAYER_05
 10
1425.338351945312
 20
1789.753620260296
 30
0.0
  0
VERTEX
  5
E6
  8
LAYER_05
 10
1427.309694221621
 20
1794.512861519842
 30
0.0
  0
SEQEND
  5
E7
  8
LAYER_05
  0
POLYLINE
  5
E8
  8
LAYER_05
 66
     1
 10
0.0
 20
0.0
 30
0.0
  0
VERTEX
  5
E9
  8
LAYER_05
 10
1395.45879663429
 20
1762.66196393251
 30
0.0
  0
VERTEX
  5
EA
  8
LAYER_05
 10
1400.218037893835
 20
1764.633306208819
 30
0.0
  0
VERTEX
  5
EB
  8
LAYER_05
 10
1391.591087455847
 20
1786.430934711537
 30
0.0
  0
VERTEX
  5
EC
  8
LAYER_05
 10
1394.112847475688
 20
1788.952694731378
 30
0.0
  0
VERTEX
  5
ED
  8
LAYER_05
 10
1397.679154696797
 20
1788.952694731378
 30
0.0
  0
VERTEX
  5
EE
  8
LAYER_05
 10
1406.992230469192
 20
1767.439268647659
 30
0.0
  0
VERTEX
  5
EF
  8
LAYER_05
 10
1411.751471728738
 20
1769.410610923969
 30
0.0
  0
VERTEX
  5
F0
  8
LAYER_05
 10
1408.956090617207
 20
1762.66196393251
 30
0.0
  0
SEQEND
  5
F1
  8
LAYER_05
  0
POLYLINE
  5
F2
  8
LAYER_05
 66
     1
 10
0.0
 20
0.0
 30
0.0
 70
     1
  0
VERTEX
  5
F3
  8
LAYER_05
 10
1409.503268284466
 20
1827.844439776185
 30
0.0
  0
VERTEX
  5
F4
  8
LAYER_05
 10
1404.29077841208
 20
1815.803464450495
 30
0.0
  0
VERTEX
  5
F5
  8
LAYER_05
 10
1416.331753737769
 20
1821.01595432288
 30
0.0
  0
VERTEX
  5
F6
  8
LAYER_05
 10
1414.33173665373
 20
1825.844422692146
 30
0.0
  0
SEQEND
  5
F7
  8
LAYER_05
  0
POLYLINE
  5
F8
  8
LAYER_05
 66
     1
 10
0.0
 20
0.0
 30
0.0
 70
     1
  0
VERTEX
  5
F9
  8
LAYER_05
 10
1424.729429296628
 20
1800.742172096274
 30
0.0
  0
VERTEX
  5
FA
  8
LAYER_05
 10
1422.72941221259
 20
1805.570640465538
 30
0.0
  0
VERTEX
  5
FB
  8
LAYER_05
 10
1410.529369972065
 20
1800.742172096273
 30
0.0
  0
VERTEX
  5
FC
  8
LAYER_05
 10
1422.729412212589
 20
1795.913703727008
 30
0.0
  0
SEQEND
  5
FD
  8
LAYER_05
  0
POLYLINE
  5
FE
  8
LAYER_05
 66
     1
 10
0.0
 20
0.0
 30
0.0
 70
     1
  0
VERTEX
  5
FF
  8
LAYER_05
 10
1414.33173665373
 20
1775.639921500401
 30
0.0
  0
VERTEX
  5
100
  8
LAYER_05
 10
1416.331753737769
 20
1780.468389869665
 30
0.0
  0
VERTEX
  5
101
  8
LAYER_05
 10
1404.290778412079
 20
1785.680879742051
 30
0.0
  0
VERTEX
  5
102
  8
LAYER_05
 10
1409.503268284464
 20
1773.639904416362
 30
0.0
  0
SEQEND
  5
103
  8
LAYER_05
  0
POLYLINE
  5
104
  8
LAYER_05
 66
     1
 10
0.0
 20
0.0
 30
0.0
 70
     1
  0
VERTEX
  5
105
  8
LAYER_05
 10
1389.229486057858
 20
1765.242228857503
 30
0.0
  0
VERTEX
  5
106
  8
LAYER_05
 10
1394.057954427122
 20
1767.242245941541
 30
0.0
  0
VERTEX
  5
107
  8
LAYER_05
 10
1389.229486057857
 20
1779.442288182066
 30
0.0
  0
VERTEX
  5
108
  8
LAYER_05
 10
1384.401017688592
 20
1767.242245941542
 30
0.0
  0
SEQEND
  5
109
  8
LAYER_05
  0
POLYLINE
  5
10A
  8
LAYER_05
 66
     1
 10
0.0
 20
0.0
 30
0.0
 70
     1
  0
VERTEX
  5
10B
  8
LAYER_05
 10
1353.729542819088
 20
1800.742172096273
 30
0.0
  0
VERTEX
  5
10C
  8
LAYER_05
 10
1355.729559903126
 20
1795.913703727009
 30
0.0
  0
VERTEX
  5
10D
  8
LAYER_05
 10
1367.929602143651
 20
1800.742172096274
 30
0.0
  0
VERTEX
  5
10E
  8
LAYER_05
 10
1355.729559903127
 20
1805.570640465539
 30
0.0
  0
SEQEND
  5
10F
  8
LAYER_05
  0
POLYLINE
  5
110
  8
LAYER_05
 66
     1
 10
0.0
 20
0.0
 30
0.0
 70
     1
  0
VERTEX
  5
111
  8
LAYER_05
 10
1389.229486057858
 20
1836.242115335044
 30
0.0
  0
VERTEX
  5
112
  8
LAYER_05
 10
1384.401017688594
 20
1834.242098251005
 30
0.0
  0
VERTEX
  5
113
  8
LAYER_05
 10
1389.229486057859
 20
1822.04205601048
 30
0.0
  0
VERTEX
  5
114
  8
LAYER_05
 10
1394.057954427124
 20
1834.242098251005
 30
0.0
  0
SEQEND
  5
115
  8
LAYER_05
  0
POLYLINE
  5
116
  8
LAYER_05
 66
     1
 10
0.0
 20
0.0
 30
0.0
 70
     1
  0
VERTEX
  5
117
  8
LAYER_05
 10
1368.95570383125
 20
1773.639904416362
 30
0.0
  0
VERTEX
  5
118
  8
LAYER_05
 10
1374.168193703635
 20
1785.680879742052
 30
0.0
  0
VERTEX
  5
119
  8
LAYER_05
 10
1362.127218377946
 20
1780.468389869667
 30
0.0
  0
VERTEX
  5
11A
  8
LAYER_05
 10
1364.127235461985
 20
1775.639921500401
 30
0.0
  0
SEQEND
  5
11B
  8
LAYER_05
  0
POLYLINE
  5
11C
  8
LAYER_05
 66
     1
 10
0.0
 20
0.0
 30
0.0
 70
     1
  0
VERTEX
  5
11D
  8
LAYER_05
 10
1362.127218377947
 20
1821.015954322881
 30
0.0
  0
VERTEX
  5
11E
  8
LAYER_05
 10
1374.168193703636
 20
1815.803464450496
 30
0.0
  0
VERTEX
  5
11F
  8
LAYER_05
 10
1368.955703831251
 20
1827.844439776185
 30
0.0
  0
VERTEX
  5
120
  8
LAYER_05
 10
1364.127235461986
 20
1825.844422692146
 30
0.0
  0
SEQEND
  5
121
  8
LAYER_05
  0
POLYLINE
  5
122
  8
LAYER_05
 66
     1
 10
0.0
 20
0.0
 30
0.0
 70
     1
  0
VERTEX
  5
123
  8
LAYER_05
 10
1379.299204456262
 20
1800.742172096273
 30
0.0
  0
VERTEX
  5
124
  8
LAYER_05
 10
1382.207716598278
 20
1797.833659954258
 30
0.0
  0
VERTEX
  5
125
  8
LAYER_05
 10
1382.207716598278
 20
1793.720402636693
 30
0.0
  0
VERTEX
  5
126
  8
LAYER_05
 10
1386.320973915842
 20
1793.720402636693
 30
0.0
  0
VERTEX
  5
127
  8
LAYER_05
 10
1389.229486057858
 20
1790.811890494677
 30
0.0
  0
VERTEX
  5
128
  8
LAYER_05
 10
1392.137998199873
 20
1793.720402636693
 30
0.0
  0
VERTEX
  5
129
  8
LAYER_05
 10
1396.251255517438
 20
1793.720402636693
 30
0.0
  0
VERTEX
  5
12A
  8
LAYER_05
 10
1396.251255517438
 20
1797.833659954258
 30
0.0
  0
VERTEX
  5
12B
  8
LAYER_05
 10
1399.159767659454
 20
1800.742172096273
 30
0.0
  0
VERTEX
  5
12C
  8
LAYER_05
 10
1396.251255517438
 20
1803.650684238289
 30
0.0
  0
VERTEX
  5
12D
  8
LAYER_05
 10
1396.251255517438
 20
1807.763941555854
 30
0.0
  0
VERTEX
  5
12E
  8
LAYER_05
 10
1392.137998199873
 20
1807.763941555854
 30
0.0
  0
VERTEX
  5
12F
  8
LAYER_05
 10
1389.229486057858
 20
1810.672453697869
 30
0.0
  0
VERTEX
  5
130
  8
LAYER_05
 10
1386.320973915843
 20
1807.763941555854
 30
0.0
  0
VERTEX
  5
131
  8
LAYER_05
 10
1382.207716598278
 20
1807.763941555854
 30
0.0
  0
VERTEX
  5
132
  8
LAYER_05
 10
1382.207716598277
 20
1803.650684238288
 30
0.0
  0
SEQEND
  5
133
  8
LAYER_05
  0
POLYLINE
  5
134
  8
LAYER_05
 66
     1
 10
0.0
 20
0.0
 30
0.0
  0
VERTEX
  5
135
  8
LAYER_05
 10
1288.181935320997
 20
1762.66196393251
 30
0.0
  0
VERTEX
  5
136
  8
LAYER_05
 10
1284.317773483019
 20
1771.990875848961
 30
0.0
  0
VERTEX
  5
137
  8
LAYER_05
 10
1274.988861566568
 20
1775.85503768694
 30
0.0
  0
SEQEND
  5
138
  8
LAYER_05
  0
POLYLINE
  5
139
  8
LAYER_05
 66
     1
 10
0.0
 20
0.0
 30
0.0
  0
VERTEX
  5
13A
  8
LAYER_05
 10
1274.988861566568
 20
1825.629306505607
 30
0.0
  0
VERTEX
  5
13B
  8
LAYER_05
 10
1284.317773483019
 20
1829.493468343586
 30
0.0
  0
VERTEX
  5
13C
  8
LAYER_05
 10
1288.181935320997
 20
1838.822380260037
 30
0.0
  0
SEQEND
  5
13D
  8
LAYER_05
  0
POLYLINE
  5
13E
  8
LAYER_05
 66
     1
 10
0.0
 20
0.0
 30
0.0
  0
VERTEX
  5
13F
  8
LAYER_05
 10
1337.956204139665
 20
1838.822380260037
 30
0.0
  0
VERTEX
  5
140
  8
LAYER_05
 10
1341.820365977644
 20
1829.493468343586
 30
0.0
  0
VERTEX
  5
141
  8
LAYER_05
 10
1351.149277894095
 20
1825.629306505607
 30
0.0
  0
SEQEND
  5
142
  8
LAYER_05
  0
POLYLINE
  5
143
  8
LAYER_05
 66
     1
 10
0.0
 20
0.0
 30
0.0
  0
VERTEX
  5
144
  8
LAYER_05
 10
1351.149277894094
 20
1775.85503768694
 30
0.0
  0
VERTEX
  5
145
  8
LAYER_05
 10
1341.820365977643
 20
1771.990875848961
 30
0.0
  0
VERTEX
  5
146
  8
LAYER_05
 10
1337.956204139665
 20
1762.66196393251
 30
0.0
  0
SEQEND
  5
147
  8
LAYER_05
  0
POLYLINE
  5
148
  8
LAYER_05
 66
     1
 10
0.0
 20
0.0
 30
0.0
  0
VERTEX
  5
149
  8
LAYER_05
 10
1293.342465170982
 20
1762.66196393251
 30
0.0
  0
VERTEX
  5
14A
  8
LAYER_05
 10
1290.547084059452
 20
1769.410610923969
 30
0.0
  0
VERTEX
  5
14B
  8
LAYER_05
 10
1295.306325318996
 20
1767.43926864766
 30
0.0
  0
VERTEX
  5
14C
  8
LAYER_05
 10
1304.619401091391
 20
1788.952694731378
 30
0.0
  0
VERTEX
  5
14D
  8
LAYER_05
 10
1308.185708312501
 20
1788.952694731378
 30
0.0
  0
VERTEX
  5
14E
  8
LAYER_05
 10
1310.707468332341
 20
1786.430934711538
 30
0.0
  0
VERTEX
  5
14F
  8
LAYER_05
 10
1302.080517894353
 20
1764.633306208819
 30
0.0
  0
VERTEX
  5
150
  8
LAYER_05
 10
1306.839759153898
 20
1762.66196393251
 30
0.0
  0
SEQEND
  5
151
  8
LAYER_05
  0
POLYLINE
  5
152
  8
LAYER_05
 66
     1
 10
0.0
 20
0.0
 30
0.0
  0
VERTEX
  5
153
  8
LAYER_05
 10
1274.988861566568
 20
1794.512861519842
 30
0.0
  0
VERTEX
  5
154
  8
LAYER_05
 10
1276.960203842877
 20
1789.753620260297
 30
0.0
  0
VERTEX
  5
155
  8
LAYER_05
 10
1298.757832345595
 20
1798.380570698284
 30
0.0
  0
VERTEX
  5
156
  8
LAYER_05
 10
1301.279592365436
 20
1795.858810678443
 30
0.0
  0
VERTEX
  5
157
  8
LAYER_05
 10
1301.279592365435
 20
1792.292503457335
 30
0.0
  0
VERTEX
  5
158
  8
LAYER_05
 10
1279.766166281717
 20
1782.979427684939
 30
0.0
  0
VERTEX
  5
159
  8
LAYER_05
 10
1281.737508558025
 20
1778.220186425394
 30
0.0
  0
VERTEX
  5
15A
  8
LAYER_05
 10
1274.988861566568
 20
1781.015567536925
 30
0.0
  0
SEQEND
  5
15B
  8
LAYER_05
  0
POLYLINE
  5
15C
  8
LAYER_05
 66
     1
 10
0.0
 20
0.0
 30
0.0
  0
VERTEX
  5
15D
  8
LAYER_05
 10
1274.988861566568
 20
1820.468776655622
 30
0.0
  0
VERTEX
  5
15E
  8
LAYER_05
 10
1281.737508558027
 20
1823.264157767153
 30
0.0
  0
VERTEX
  5
15F
  8
LAYER_05
 10
1279.766166281718
 20
1818.504916507609
 30
0.0
  0
VERTEX
  5
160
  8
LAYER_05
 10
1301.279592365436
 20
1809.191840735213
 30
0.0
  0
VERTEX
  5
161
  8
LAYER_05
 10
1301.279592365436
 20
1805.625533514103
 30
0.0
  0
VERTEX
  5
162
  8
LAYER_05
 10
1298.757832345596
 20
1803.103773494263
 30
0.0
  0
VERTEX
  5
163
  8
LAYER_05
 10
1276.960203842877
 20
1811.730723932252
 30
0.0
  0
VERTEX
  5
164
  8
LAYER_05
 10
1274.988861566568
 20
1806.971482672705
 30
0.0
  0
SEQEND
  5
165
  8
LAYER_05
  0
POLYLINE
  5
166
  8
LAYER_05
 66
     1
 10
0.0
 20
0.0
 30
0.0
  0
VERTEX
  5
167
  8
LAYER_05
 10
1306.839759153899
 20
1838.822380260037
 30
0.0
  0
VERTEX
  5
168
  8
LAYER_05
 10
1302.080517894354
 20
1836.851037983728
 30
0.0
  0
VERTEX
  5
169
  8
LAYER_05
 10
1310.707468332342
 20
1815.053409481009
 30
0.0
  0
VERTEX
  5
16A
  8
LAYER_05
 10
1308.185708312502
 20
1812.531649461168
 30
0.0
  0
VERTEX
  5
16B
  8
LAYER_05
 10
1304.619401091393
 20
1812.531649461169
 30
0.0
  0
VERTEX
  5
16C
  8
LAYER_05
 10
1295.306325318997
 20
1834.045075544888
 30
0.0
  0
VERTEX
  5
16D
  8
LAYER_05
 10
1290.547084059452
 20
1832.073733268578
 30
0.0
  0
VERTEX
  5
16E
  8
LAYER_05
 10
1293.342465170982
 20
1838.822380260037
 30
0.0
  0
SEQEND
  5
16F
  8
LAYER_05
  0
POLYLINE
  5
170
  8
LAYER_05
 66
     1
 10
0.0
 20
0.0
 30
0.0
  0
VERTEX
  5
171
  8
LAYER_05
 10
1332.79567428968
 20
1838.822380260037
 30
0.0
  0
VERTEX
  5
172
  8
LAYER_05
 10
1335.591055401211
 20
1832.073733268578
 30
0.0
  0
VERTEX
  5
173
  8
LAYER_05
 10
1330.831814141667
 20
1834.045075544887
 30
0.0
  0
VERTEX
  5
174
  8
LAYER_05
 10
1321.518738369271
 20
1812.531649461168
 30
0.0
  0
VERTEX
  5
175
  8
LAYER_05
 10
1317.952431148162
 20
1812.531649461168
 30
0.0
  0
VERTEX
  5
176
  8
LAYER_05
 10
1315.430671128321
 20
1815.053409481009
 30
0.0
  0
VERTEX
  5
177
  8
LAYER_05
 10
1324.057621566309
 20
1836.851037983727
 30
0.0
  0
VERTEX
  5
178
  8
LAYER_05
 10
1319.298380306763
 20
1838.822380260037
 30
0.0
  0
SEQEND
  5
179
  8
LAYER_05
  0
POLYLINE
  5
17A
  8
LAYER_05
 66
     1
 10
0.0
 20
0.0
 30
0.0
  0
VERTEX
  5
17B
  8
LAYER_05
 10
1351.149277894095
 20
1806.971482672705
 30
0.0
  0
VERTEX
  5
17C
  8
LAYER_05
 10
1349.177935617785
 20
1811.73072393225
 30
0.0
  0
VERTEX
  5
17D
  8
LAYER_05
 10
1327.380307115067
 20
1803.103773494262
 30
0.0
  0
VERTEX
  5
17E
  8
LAYER_05
 10
1324.858547095226
 20
1805.625533514104
 30
0.0
  0
VERTEX
  5
17F
  8
LAYER_05
 10
1324.858547095227
 20
1809.191840735212
 30
0.0
  0
VERTEX
  5
180
  8
LAYER_05
 10
1346.371973178946
 20
1818.504916507608
 30
0.0
  0
VERTEX
  5
181
  8
LAYER_05
 10
1344.400630902636
 20
1823.264157767153
 30
0.0
  0
VERTEX
  5
182
  8
LAYER_05
 10
1351.149277894095
 20
1820.468776655622
 30
0.0
  0
SEQEND
  5
183
  8
LAYER_05
  0
POLYLINE
  5
184
  8
LAYER_05
 66
     1
 10
0.0
 20
0.0
 30
0.0
  0
VERTEX
  5
185
  8
LAYER_05
 10
1351.149277894094
 20
1781.015567536924
 30
0.0
  0
VERTEX
  5
186
  8
LAYER_05
 10
1344.400630902636
 20
1778.220186425394
 30
0.0
  0
VERTEX
  5
187
  8
LAYER_05
 10
1346.371973178944
 20
1782.979427684938
 30
0.0
  0
VERTEX
  5
188
  8
LAYER_05
 10
1324.858547095226
 20
1792.292503457334
 30
0.0
  0
VERTEX
  5
189
  8
LAYER_05
 10
1324.858547095226
 20
1795.858810678443
 30
0.0
  0
VERTEX
  5
18A
  8
LAYER_05
 10
1327.380307115067
 20
1798.380570698283
 30
0.0
  0
VERTEX
  5
18B
  8
LAYER_05
 10
1349.177935617785
 20
1789.753620260296
 30
0.0
  0
VERTEX
  5
18C
  8
LAYER_05
 10
1351.149277894095
 20
1794.512861519842
 30
0.0
  0
SEQEND
  5
18D
  8
LAYER_05
  0
POLYLINE
  5
18E
  8
LAYER_05
 66
     1
 10
0.0
 20
0.0
 30
0.0
  0
VERTEX
  5
18F
  8
LAYER_05
 10
1319.298380306764
 20
1762.66196393251
 30
0.0
  0
VERTEX
  5
190
  8
LAYER_05
 10
1324.057621566308
 20
1764.633306208819
 30
0.0
  0
VERTEX
  5
191
  8
LAYER_05
 10
1315.43067112832
 20
1786.430934711537
 30
0.0
  0
VERTEX
  5
192
  8
LAYER_05
 10
1317.952431148162
 20
1788.952694731378
 30
0.0
  0
VERTEX
  5
193
  8
LAYER_05
 10
1321.51873836927
 20
1788.952694731378
 30
0.0
  0
VERTEX
  5
194
  8
LAYER_05
 10
1330.831814141666
 20
1767.439268647659
 30
0.0
  0
VERTEX
  5
195
  8
LAYER_05
 10
1335.591055401211
 20
1769.410610923969
 30
0.0
  0
VERTEX
  5
196
  8
LAYER_05
 10
1332.79567428968
 20
1762.66196393251
 30
0.0
  0
SEQEND
  5
197
  8
LAYER_05
  0
POLYLINE
  5
198
  8
LAYER_05
 66
     1
 10
0.0
 20
0.0
 30
0.0
 70
     1
  0
VERTEX
  5
199
  8
LAYER_05
 10
1333.342851956939
 20
1827.844439776185
 30
0.0
  0
VERTEX
  5
19A
  8
LAYER_05
 10
1328.130362084554
 20
1815.803464450495
 30
0.0
  0
VERTEX
  5
19B
  8
LAYER_05
 10
1340.171337410243
 20
1821.01595432288
 30
0.0
  0
VERTEX
  5
19C
  8
LAYER_05
 10
1338.171320326203
 20
1825.844422692146
 30
0.0
  0
SEQEND
  5
19D
  8
LAYER_05
  0
POLYLINE
  5
19E
  8
LAYER_05
 66
     1
 10
0.0
 20
0.0
 30
0.0
 70
     1
  0
VERTEX
  5
19F
  8
LAYER_05
 10
1348.569012969102
 20
1800.742172096274
 30
0.0
  0
VERTEX
  5
1A0
  8
LAYER_05
 10
1346.568995885063
 20
1805.570640465538
 30
0.0
  0
VERTEX
  5
1A1
  8
LAYER_05
 10
1334.368953644538
 20
1800.742172096273
 30
0.0
  0
VERTEX
  5
1A2
  8
LAYER_05
 10
1346.568995885062
 20
1795.913703727008
 30
0.0
  0
SEQEND
  5
1A3
  8
LAYER_05
  0
POLYLINE
  5
1A4
  8
LAYER_05
 66
     1
 10
0.0
 20
0.0
 30
0.0
 70
     1
  0
VERTEX
  5
1A5
  8
LAYER_05
 10
1338.171320326203
 20
1775.639921500401
 30
0.0
  0
VERTEX
  5
1A6
  8
LAYER_05
 10
1340.171337410242
 20
1780.468389869665
 30
0.0
  0
VERTEX
  5
1A7
  8
LAYER_05
 10
1328.130362084553
 20
1785.680879742051
 30
0.0
  0
VERTEX
  5
1A8
  8
LAYER_05
 10
1333.342851956938
 20
1773.639904416362
 30
0.0
  0
SEQEND
  5
1A9
  8
LAYER_05
  0
POLYLINE
  5
1AA
  8
LAYER_05
 66
     1
 10
0.0
 20
0.0
 30
0.0
 70
     1
  0
VERTEX
  5
1AB
  8
LAYER_05
 10
1313.069069730331
 20
1765.242228857503
 30
0.0
  0
VERTEX
  5
1AC
  8
LAYER_05
 10
1317.897538099596
 20
1767.242245941541
 30
0.0
  0
VERTEX
  5
1AD
  8
LAYER_05
 10
1313.069069730331
 20
1779.442288182066
 30
0.0
  0
VERTEX
  5
1AE
  8
LAYER_05
 10
1308.240601361066
 20
1767.242245941542
 30
0.0
  0
SEQEND
  5
1AF
  8
LAYER_05
  0
POLYLINE
  5
1B0
  8
LAYER_05
 66
     1
 10
0.0
 20
0.0
 30
0.0
 70
     1
  0
VERTEX
  5
1B1
  8
LAYER_05
 10
1277.569126491561
 20
1800.742172096273
 30
0.0
  0
VERTEX
  5
1B2
  8
LAYER_05
 10
1279.569143575599
 20
1795.913703727009
 30
0.0
  0
VERTEX
  5
1B3
  8
LAYER_05
 10
1291.769185816124
 20
1800.742172096274
 30
0.0
  0
VERTEX
  5
1B4
  8
LAYER_05
 10
1279.5691435756
 20
1805.570640465539
 30
0.0
  0
SEQEND
  5
1B5
  8
LAYER_05
  0
POLYLINE
  5
1B6
  8
LAYER_05
 66
     1
 10
0.0
 20
0.0
 30
0.0
 70
     1
  0
VERTEX
  5
1B7
  8
LAYER_05
 10
1313.069069730331
 20
1836.242115335044
 30
0.0
  0
VERTEX
  5
1B8
  8
LAYER_05
 10
1308.240601361067
 20
1834.242098251005
 30
0.0
  0
VERTEX
  5
1B9
  8
LAYER_05
 10
1313.069069730332
 20
1822.04205601048
 30
0.0
  0
VERTEX
  5
1BA
  8
LAYER_05
 10
1317.897538099597
 20
1834.242098251005
 30
0.0
  0
SEQEND
  5
1BB
  8
LAYER_05
  0
POLYLINE
  5
1BC
  8
LAYER_05
 66
     1
 10
0.0
 20
0.0
 30
0.0
 70
     1
  0
VERTEX
  5
1BD
  8
LAYER_05
 10
1292.795287503723
 20
1773.639904416362
 30
0.0
  0
VERTEX
  5
1BE
  8
LAYER_05
 10
1298.007777376108
 20
1785.680879742052
 30
0.0
  0
VERTEX
  5
1BF
  8
LAYER_05
 10
1285.966802050419
 20
1780.468389869667
 30
0.0
  0
VERTEX
  5
1C0
  8
LAYER_05
 10
1287.966819134459
 20
1775.639921500401
 30
0.0
  0
SEQEND
  5
1C1
  8
LAYER_05
  0
POLYLINE
  5
1C2
  8
LAYER_05
 66
     1
 10
0.0
 20
0.0
 30
0.0
 70
     1
  0
VERTEX
  5
1C3
  8
LAYER_05
 10
1285.96680205042
 20
1821.015954322881
 30
0.0
  0
VERTEX
  5
1C4
  8
LAYER_05
 10
1298.00777737611
 20
1815.803464450496
 30
0.0
  0
VERTEX
  5
1C5
  8
LAYER_05
 10
1292.795287503725
 20
1827.844439776185
 30
0.0
  0
VERTEX
  5
1C6
  8
LAYER_05
 10
1287.966819134459
 20
1825.844422692146
 30
0.0
  0
SEQEND
  5
1C7
  8
LAYER_05
  0
POLYLINE
  5
1C8
  8
LAYER_05
 66
     1
 10
0.0
 20
0.0
 30
0.0
 70
     1
  0
VERTEX
  5
1C9
  8
LAYER_05
 10
1303.138788128736
 20
1800.742172096273
 30
0.0
  0
VERTEX
  5
1CA
  8
LAYER_05
 10
1306.047300270751
 20
1797.833659954258
 30
0.0
  0
VERTEX
  5
1CB
  8
LAYER_05
 10
1306.047300270751
 20
1793.720402636693
 30
0.0
  0
VERTEX
  5
1CC
  8
LAYER_05
 10
1310.160557588316
 20
1793.720402636693
 30
0.0
  0
VERTEX
  5
1CD
  8
LAYER_05
 10
1313.069069730331
 20
1790.811890494677
 30
0.0
  0
VERTEX
  5
1CE
  8
LAYER_05
 10
1315.977581872347
 20
1793.720402636693
 30
0.0
  0
VERTEX
  5
1CF
  8
LAYER_05
 10
1320.090839189912
 20
1793.720402636693
 30
0.0
  0
VERTEX
  5
1D0
  8
LAYER_05
 10
1320.090839189912
 20
1797.833659954258
 30
0.0
  0
VERTEX
  5
1D1
  8
LAYER_05
 10
1322.999351331927
 20
1800.742172096273
 30
0.0
  0
VERTEX
  5
1D2
  8
LAYER_05
 10
1320.090839189912
 20
1803.650684238289
 30
0.0
  0
VERTEX
  5
1D3
  8
LAYER_05
 10
1320.090839189912
 20
1807.763941555854
 30
0.0
  0
VERTEX
  5
1D4
  8
LAYER_05
 10
1315.977581872347
 20
1807.763941555854
 30
0.0
  0
VERTEX
  5
1D5
  8
LAYER_05
 10
1313.069069730332
 20
1810.672453697869
 30
0.0
  0
VERTEX
  5
1D6
  8
LAYER_05
 10
1310.160557588316
 20
1807.763941555854
 30
0.0
  0
VERTEX
  5
1D7
  8
LAYER_05
 10
1306.047300270751
 20
1807.763941555854
 30
0.0
  0
VERTEX
  5
1D8
  8
LAYER_05
 10
1306.047300270751
 20
1803.650684238288
 30
0.0
  0
SEQEND
  5
1D9
  8
LAYER_05
  0
POLYLINE
  5
1DA
  8
LAYER_05
 66
     1
 10
0.0
 20
0.0
 30
0.0
  0
VERTEX
  5
1DB
  8
LAYER_05
 10
1212.021518993471
 20
1762.66196393251
 30
0.0
  0
VERTEX
  5
1DC
  8
LAYER_05
 10
1208.157357155492
 20
1771.990875848961
 30
0.0
  0
VERTEX
  5
1DD
  8
LAYER_05
 10
1198.828445239041
 20
1775.85503768694
 30
0.0
  0
SEQEND
  5
1DE
  8
LAYER_05
  0
POLYLINE
  5
1DF
  8
LAYER_05
 66
     1
 10
0.0
 20
0.0
 30
0.0
  0
VERTEX
  5
1E0
  8
LAYER_05
 10
1198.828445239041
 20
1825.629306505607
 30
0.0
  0
VERTEX
  5
1E1
  8
LAYER_05
 10
1208.157357155492
 20
1829.493468343586
 30
0.0
  0
VERTEX
  5
1E2
  8
LAYER_05
 10
1212.021518993471
 20
1838.822380260037
 30
0.0
  0
SEQEND
  5
1E3
  8
LAYER_05
  0
POLYLINE
  5
1E4
  8
LAYER_05
 66
     1
 10
0.0
 20
0.0
 30
0.0
  0
VERTEX
  5
1E5
  8
LAYER_05
 10
1261.795787812139
 20
1838.822380260037
 30
0.0
  0
VERTEX
  5
1E6
  8
LAYER_05
 10
1265.659949650117
 20
1829.493468343586
 30
0.0
  0
VERTEX
  5
1E7
  8
LAYER_05
 10
1274.988861566568
 20
1825.629306505607
 30
0.0
  0
SEQEND
  5
1E8
  8
LAYER_05
  0
POLYLINE
  5
1E9
  8
LAYER_05
 66
     1
 10
0.0
 20
0.0
 30
0.0
  0
VERTEX
  5
1EA
  8
LAYER_05
 10
1274.988861566568
 20
1775.85503768694
 30
0.0
  0
VERTEX
  5
1EB
  8
LAYER_05
 10
1265.659949650117
 20
1771.990875848961
 30
0.0
  0
VERTEX
  5
1EC
  8
LAYER_05
 10
1261.795787812138
 20
1762.66196393251
 30
0.0
  0
SEQEND
  5
1ED
  8
LAYER_05
  0
POLYLINE
  5
1EE
  8
LAYER_05
 66
     1
 10
0.0
 20
0.0
 30
0.0
  0
VERTEX
  5
1EF
  8
LAYER_05
 10
1217.182048843456
 20
1762.66196393251
 30
0.0
  0
VERTEX
  5
1F0
  8
LAYER_05
 10
1214.386667731925
 20
1769.410610923969
 30
0.0
  0
VERTEX
  5
1F1
  8
LAYER_05
 10
1219.145908991469
 20
1767.43926864766
 30
0.0
  0
VERTEX
  5
1F2
  8
LAYER_05
 10
1228.458984763864
 20
1788.952694731378
 30
0.0
  0
VERTEX
  5
1F3
  8
LAYER_05
 10
1232.025291984974
 20
1788.952694731378
 30
0.0
  0
VERTEX
  5
1F4
  8
LAYER_05
 10
1234.547052004814
 20
1786.430934711538
 30
0.0
  0
VERTEX
  5
1F5
  8
LAYER_05
 10
1225.920101566826
 20
1764.633306208819
 30
0.0
  0
VERTEX
  5
1F6
  8
LAYER_05
 10
1230.679342826372
 20
1762.66196393251
 30
0.0
  0
SEQEND
  5
1F7
  8
LAYER_05
  0
POLYLINE
  5
1F8
  8
LAYER_05
 66
     1
 10
0.0
 20
0.0
 30
0.0
  0
VERTEX
  5
1F9
  8
LAYER_05
 10
1198.828445239041
 20
1794.512861519842
 30
0.0
  0
VERTEX
  5
1FA
  8
LAYER_05
 10
1200.799787515351
 20
1789.753620260297
 30
0.0
  0
VERTEX
  5
1FB
  8
LAYER_05
 10
1222.597416018069
 20
1798.380570698284
 30
0.0
  0
VERTEX
  5
1FC
  8
LAYER_05
 10
1225.119176037909
 20
1795.858810678443
 30
0.0
  0
VERTEX
  5
1FD
  8
LAYER_05
 10
1225.119176037908
 20
1792.292503457335
 30
0.0
  0
VERTEX
  5
1FE
  8
LAYER_05
 10
1203.60574995419
 20
1782.979427684939
 30
0.0
  0
VERTEX
  5
1FF
  8
LAYER_05
 10
1205.577092230499
 20
1778.220186425394
 30
0.0
  0
VERTEX
  5
200
  8
LAYER_05
 10
1198.828445239041
 20
1781.015567536925
 30
0.0
  0
SEQEND
  5
201
  8
LAYER_05
  0
POLYLINE
  5
202
  8
LAYER_05
 66
     1
 10
0.0
 20
0.0
 30
0.0
  0
VERTEX
  5
203
  8
LAYER_05
 10
1198.828445239041
 20
1820.468776655622
 30
0.0
  0
VERTEX
  5
204
  8
LAYER_05
 10
1205.5770922305
 20
1823.264157767153
 30
0.0
  0
VERTEX
  5
205
  8
LAYER_05
 10
1203.605749954191
 20
1818.504916507609
 30
0.0
  0
VERTEX
  5
206
  8
LAYER_05
 10
1225.11917603791
 20
1809.191840735213
 30
0.0
  0
VERTEX
  5
207
  8
LAYER_05
 10
1225.119176037909
 20
1805.625533514103
 30
0.0
  0
VERTEX
  5
208
  8
LAYER_05
 10
1222.597416018069
 20
1803.103773494263
 30
0.0
  0
VERTEX
  5
209
  8
LAYER_05
 10
1200.799787515351
 20
1811.730723932252
 30
0.0
  0
VERTEX
  5
20A
  8
LAYER_05
 10
1198.828445239041
 20
1806.971482672705
 30
0.0
  0
SEQEND
  5
20B
  8
LAYER_05
  0
POLYLINE
  5
20C
  8
LAYER_05
 66
     1
 10
0.0
 20
0.0
 30
0.0
  0
VERTEX
  5
20D
  8
LAYER_05
 10
1230.679342826373
 20
1838.822380260037
 30
0.0
  0
VERTEX
  5
20E
  8
LAYER_05
 10
1225.920101566828
 20
1836.851037983728
 30
0.0
  0
VERTEX
  5
20F
  8
LAYER_05
 10
1234.547052004816
 20
1815.053409481009
 30
0.0
  0
VERTEX
  5
210
  8
LAYER_05
 10
1232.025291984975
 20
1812.531649461168
 30
0.0
  0
VERTEX
  5
211
  8
LAYER_05
 10
1228.458984763866
 20
1812.531649461169
 30
0.0
  0
VERTEX
  5
212
  8
LAYER_05
 10
1219.14590899147
 20
1834.045075544888
 30
0.0
  0
VERTEX
  5
213
  8
LAYER_05
 10
1214.386667731925
 20
1832.073733268578
 30
0.0
  0
VERTEX
  5
214
  8
LAYER_05
 10
1217.182048843456
 20
1838.822380260037
 30
0.0
  0
SEQEND
  5
215
  8
LAYER_05
  0
POLYLINE
  5
216
  8
LAYER_05
 66
     1
 10
0.0
 20
0.0
 30
0.0
  0
VERTEX
  5
217
  8
LAYER_05
 10
1256.635257962154
 20
1838.822380260037
 30
0.0
  0
VERTEX
  5
218
  8
LAYER_05
 10
1259.430639073684
 20
1832.073733268578
 30
0.0
  0
VERTEX
  5
219
  8
LAYER_05
 10
1254.67139781414
 20
1834.045075544887
 30
0.0
  0
VERTEX
  5
21A
  8
LAYER_05
 10
1245.358322041744
 20
1812.531649461168
 30
0.0
  0
VERTEX
  5
21B
  8
LAYER_05
 10
1241.792014820635
 20
1812.531649461168
 30
0.0
  0
VERTEX
  5
21C
  8
LAYER_05
 10
1239.270254800795
 20
1815.053409481009
 30
0.0
  0
VERTEX
  5
21D
  8
LAYER_05
 10
1247.897205238783
 20
1836.851037983727
 30
0.0
  0
VERTEX
  5
21E
  8
LAYER_05
 10
1243.137963979237
 20
1838.822380260037
 30
0.0
  0
SEQEND
  5
21F
  8
LAYER_05
  0
POLYLINE
  5
220
  8
LAYER_05
 66
     1
 10
0.0
 20
0.0
 30
0.0
  0
VERTEX
  5
221
  8
LAYER_05
 10
1274.988861566568
 20
1806.971482672705
 30
0.0
  0
VERTEX
  5
222
  8
LAYER_05
 10
1273.017519290259
 20
1811.73072393225
 30
0.0
  0
VERTEX
  5
223
  8
LAYER_05
 10
1251.21989078754
 20
1803.103773494262
 30
0.0
  0
VERTEX
  5
224
  8
LAYER_05
 10
1248.6981307677
 20
1805.625533514104
 30
0.0
  0
VERTEX
  5
225
  8
LAYER_05
 10
1248.6981307677
 20
1809.191840735212
 30
0.0
  0
VERTEX
  5
226
  8
LAYER_05
 10
1270.211556851419
 20
1818.504916507608
 30
0.0
  0
VERTEX
  5
227
  8
LAYER_05
 10
1268.240214575109
 20
1823.264157767153
 30
0.0
  0
VERTEX
  5
228
  8
LAYER_05
 10
1274.988861566568
 20
1820.468776655622
 30
0.0
  0
SEQEND
  5
229
  8
LAYER_05
  0
POLYLINE
  5
22A
  8
LAYER_05
 66
     1
 10
0.0
 20
0.0
 30
0.0
  0
VERTEX
  5
22B
  8
LAYER_05
 10
1274.988861566568
 20
1781.015567536924
 30
0.0
  0
VERTEX
  5
22C
  8
LAYER_05
 10
1268.240214575109
 20
1778.220186425394
 30
0.0
  0
VERTEX
  5
22D
  8
LAYER_05
 10
1270.211556851418
 20
1782.979427684938
 30
0.0
  0
VERTEX
  5
22E
  8
LAYER_05
 10
1248.698130767699
 20
1792.292503457334
 30
0.0
  0
VERTEX
  5
22F
  8
LAYER_05
 10
1248.6981307677
 20
1795.858810678443
 30
0.0
  0
VERTEX
  5
230
  8
LAYER_05
 10
1251.21989078754
 20
1798.380570698283
 30
0.0
  0
VERTEX
  5
231
  8
LAYER_05
 10
1273.017519290258
 20
1789.753620260296
 30
0.0
  0
VERTEX
  5
232
  8
LAYER_05
 10
1274.988861566568
 20
1794.512861519842
 30
0.0
  0
SEQEND
  5
233
  8
LAYER_05
  0
POLYLINE
  5
234
  8
LAYER_05
 66
     1
 10
0.0
 20
0.0
 30
0.0
  0
VERTEX
  5
235
  8
LAYER_05
 10
1243.137963979237
 20
1762.66196393251
 30
0.0
  0
VERTEX
  5
236
  8
LAYER_05
 10
1247.897205238781
 20
1764.633306208819
 30
0.0
  0
VERTEX
  5
237
  8
LAYER_05
 10
1239.270254800794
 20
1786.430934711537
 30
0.0
  0
VERTEX
  5
238
  8
LAYER_05
 10
1241.792014820635
 20
1788.952694731378
 30
0.0
  0
VERTEX
  5
239
  8
LAYER_05
 10
1245.358322041743
 20
1788.952694731378
 30
0.0
  0
VERTEX
  5
23A
  8
LAYER_05
 10
1254.671397814139
 20
1767.439268647659
 30
0.0
  0
VERTEX
  5
23B
  8
LAYER_05
 10
1259.430639073684
 20
1769.410610923969
 30
0.0
  0
VERTEX
  5
23C
  8
LAYER_05
 10
1256.635257962153
 20
1762.66196393251
 30
0.0
  0
SEQEND
  5
23D
  8
LAYER_05
  0
POLYLINE
  5
23E
  8
LAYER_05
 66
     1
 10
0.0
 20
0.0
 30
0.0
 70
     1
  0
VERTEX
  5
23F
  8
LAYER_05
 10
1257.182435629412
 20
1827.844439776185
 30
0.0
  0
VERTEX
  5
240
  8
LAYER_05
 10
1251.969945757027
 20
1815.803464450495
 30
0.0
  0
VERTEX
  5
241
  8
LAYER_05
 10
1264.010921082716
 20
1821.01595432288
 30
0.0
  0
VERTEX
  5
242
  8
LAYER_05
 10
1262.010903998677
 20
1825.844422692146
 30
0.0
  0
SEQEND
  5
243
  8
LAYER_05
  0
POLYLINE
  5
244
  8
LAYER_05
 66
     1
 10
0.0
 20
0.0
 30
0.0
 70
     1
  0
VERTEX
  5
245
  8
LAYER_05
 10
1272.408596641575
 20
1800.742172096274
 30
0.0
  0
VERTEX
  5
246
  8
LAYER_05
 10
1270.408579557537
 20
1805.570640465538
 30
0.0
  0
VERTEX
  5
247
  8
LAYER_05
 10
1258.208537317011
 20
1800.742172096273
 30
0.0
  0
VERTEX
  5
248
  8
LAYER_05
 10
1270.408579557536
 20
1795.913703727008
 30
0.0
  0
SEQEND
  5
249
  8
LAYER_05
  0
POLYLINE
  5
24A
  8
LAYER_05
 66
     1
 10
0.0
 20
0.0
 30
0.0
 70
     1
  0
VERTEX
  5
24B
  8
LAYER_05
 10
1262.010903998677
 20
1775.639921500401
 30
0.0
  0
VERTEX
  5
24C
  8
LAYER_05
 10
1264.010921082716
 20
1780.468389869665
 30
0.0
  0
VERTEX
  5
24D
  8
LAYER_05
 10
1251.969945757026
 20
1785.680879742051
 30
0.0
  0
VERTEX
  5
24E
  8
LAYER_05
 10
1257.182435629411
 20
1773.639904416362
 30
0.0
  0
SEQEND
  5
24F
  8
LAYER_05
  0
POLYLINE
  5
250
  8
LAYER_05
 66
     1
 10
0.0
 20
0.0
 30
0.0
 70
     1
  0
VERTEX
  5
251
  8
LAYER_05
 10
1236.908653402804
 20
1765.242228857503
 30
0.0
  0
VERTEX
  5
252
  8
LAYER_05
 10
1241.737121772069
 20
1767.242245941541
 30
0.0
  0
VERTEX
  5
253
  8
LAYER_05
 10
1236.908653402804
 20
1779.442288182066
 30
0.0
  0
VERTEX
  5
254
  8
LAYER_05
 10
1232.080185033539
 20
1767.242245941542
 30
0.0
  0
SEQEND
  5
255
  8
LAYER_05
  0
POLYLINE
  5
256
  8
LAYER_05
 66
     1
 10
0.0
 20
0.0
 30
0.0
 70
     1
  0
VERTEX
  5
257
  8
LAYER_05
 10
1201.408710164034
 20
1800.742172096273
 30
0.0
  0
VERTEX
  5
258
  8
LAYER_05
 10
1203.408727248073
 20
1795.913703727009
 30
0.0
  0
VERTEX
  5
259
  8
LAYER_05
 10
1215.608769488598
 20
1800.742172096274
 30
0.0
  0
VERTEX
  5
25A
  8
LAYER_05
 10
1203.408727248074
 20
1805.570640465539
 30
0.0
  0
SEQEND
  5
25B
  8
LAYER_05
  0
POLYLINE
  5
25C
  8
LAYER_05
 66
     1
 10
0.0
 20
0.0
 30
0.0
 70
     1
  0
VERTEX
  5
25D
  8
LAYER_05
 10
1236.908653402804
 20
1836.242115335044
 30
0.0
  0
VERTEX
  5
25E
  8
LAYER_05
 10
1232.08018503354
 20
1834.242098251005
 30
0.0
  0
VERTEX
  5
25F
  8
LAYER_05
 10
1236.908653402805
 20
1822.04205601048
 30
0.0
  0
VERTEX
  5
260
  8
LAYER_05
 10
1241.73712177207
 20
1834.242098251005
 30
0.0
  0
SEQEND
  5
261
  8
LAYER_05
  0
POLYLINE
  5
262
  8
LAYER_05
 66
     1
 10
0.0
 20
0.0
 30
0.0
 70
     1
  0
VERTEX
  5
263
  8
LAYER_05
 10
1216.634871176196
 20
1773.639904416362
 30
0.0
  0
VERTEX
  5
264
  8
LAYER_05
 10
1221.847361048582
 20
1785.680879742052
 30
0.0
  0
VERTEX
  5
265
  8
LAYER_05
 10
1209.806385722893
 20
1780.468389869667
 30
0.0
  0
VERTEX
  5
266
  8
LAYER_05
 10
1211.806402806932
 20
1775.639921500401
 30
0.0
  0
SEQEND
  5
267
  8
LAYER_05
  0
POLYLINE
  5
268
  8
LAYER_05
 66
     1
 10
0.0
 20
0.0
 30
0.0
 70
     1
  0
VERTEX
  5
269
  8
LAYER_05
 10
1209.806385722894
 20
1821.015954322881
 30
0.0
  0
VERTEX
  5
26A
  8
LAYER_05
 10
1221.847361048583
 20
1815.803464450496
 30
0.0
  0
VERTEX
  5
26B
  8
LAYER_05
 10
1216.634871176198
 20
1827.844439776185
 30
0.0
  0
VERTEX
  5
26C
  8
LAYER_05
 10
1211.806402806933
 20
1825.844422692146
 30
0.0
  0
SEQEND
  5
26D
  8
LAYER_05
  0
POLYLINE
  5
26E
  8
LAYER_05
 66
     1
 10
0.0
 20
0.0
 30
0.0
 70
     1
  0
VERTEX
  5
26F
  8
LAYER_05
 10
1226.978371801209
 20
1800.742172096273
 30
0.0
  0
VERTEX
  5
270
  8
LAYER_05
 10
1229.886883943224
 20
1797.833659954258
 30
0.0
  0
VERTEX
  5
271
  8
LAYER_05
 10
1229.886883943224
 20
1793.720402636693
 30
0.0
  0
VERTEX
  5
272
  8
LAYER_05
 10
1234.000141260789
 20
1793.720402636693
 30
0.0
  0
VERTEX
  5
273
  8
LAYER_05
 10
1236.908653402804
 20
1790.811890494677
 30
0.0
  0
VERTEX
  5
274
  8
LAYER_05
 10
1239.81716554482
 20
1793.720402636693
 30
0.0
  0
VERTEX
  5
275
  8
LAYER_05
 10
1243.930422862385
 20
1793.720402636693
 30
0.0
  0
VERTEX
  5
276
  8
LAYER_05
 10
1243.930422862385
 20
1797.833659954258
 30
0.0
  0
VERTEX
  5
277
  8
LAYER_05
 10
1246.838935004401
 20
1800.742172096273
 30
0.0
  0
VERTEX
  5
278
  8
LAYER_05
 10
1243.930422862385
 20
1803.650684238289
 30
0.0
  0
VERTEX
  5
279
  8
LAYER_05
 10
1243.930422862385
 20
1807.763941555854
 30
0.0
  0
VERTEX
  5
27A
  8
LAYER_05
 10
1239.81716554482
 20
1807.763941555854
 30
0.0
  0
VERTEX
  5
27B
  8
LAYER_05
 10
1236.908653402805
 20
1810.672453697869
 30
0.0
  0
VERTEX
  5
27C
  8
LAYER_05
 10
1234.000141260789
 20
1807.763941555854
 30
0.0
  0
VERTEX
  5
27D
  8
LAYER_05
 10
1229.886883943224
 20
1807.763941555854
 30
0.0
  0
VERTEX
  5
27E
  8
LAYER_05
 10
1229.886883943224
 20
1803.650684238288
 30
0.0
  0
SEQEND
  5
27F
  8
LAYER_05
  0
POLYLINE
  5
280
  8
LAYER_05
 66
     1
 10
0.0
 20
0.0
 30
0.0
  0
VERTEX
  5
281
  8
LAYER_05
 10
1364.342351648524
 20
1686.501547604984
 30
0.0
  0
VERTEX
  5
282
  8
LAYER_05
 10
1360.478189810546
 20
1695.830459521435
 30
0.0
  0
VERTEX
  5
283
  8
LAYER_05
 10
1351.149277894095
 20
1699.694621359414
 30
0.0
  0
SEQEND
  5
284
  8
LAYER_05
  0
POLYLINE
  5
285
  8
LAYER_05
 66
     1
 10
0.0
 20
0.0
 30
0.0
  0
VERTEX
  5
286
  8
LAYER_05
 10
1351.149277894095
 20
1749.468890178081
 30
0.0
  0
VERTEX
  5
287
  8
LAYER_05
 10
1360.478189810546
 20
1753.333052016059
 30
0.0
  0
VERTEX
  5
288
  8
LAYER_05
 10
1364.342351648524
 20
1762.66196393251
 30
0.0
  0
SEQEND
  5
289
  8
LAYER_05
  0
POLYLINE
  5
28A
  8
LAYER_05
 66
     1
 10
0.0
 20
0.0
 30
0.0
  0
VERTEX
  5
28B
  8
LAYER_05
 10
1414.116620467192
 20
1762.66196393251
 30
0.0
  0
VERTEX
  5
28C
  8
LAYER_05
 10
1417.98078230517
 20
1753.333052016059
 30
0.0
  0
VERTEX
  5
28D
  8
LAYER_05
 10
1427.309694221621
 20
1749.468890178081
 30
0.0
  0
SEQEND
  5
28E
  8
LAYER_05
  0
POLYLINE
  5
28F
  8
LAYER_05
 66
     1
 10
0.0
 20
0.0
 30
0.0
  0
VERTEX
  5
290
  8
LAYER_05
 10
1427.309694221621
 20
1699.694621359413
 30
0.0
  0
VERTEX
  5
291
  8
LAYER_05
 10
1417.98078230517
 20
1695.830459521435
 30
0.0
  0
VERTEX
  5
292
  8
LAYER_05
 10
1414.116620467192
 20
1686.501547604984
 30
0.0
  0
SEQEND
  5
293
  8
LAYER_05
  0
POLYLINE
  5
294
  8
LAYER_05
 66
     1
 10
0.0
 20
0.0
 30
0.0
  0
VERTEX
  5
295
  8
LAYER_05
 10
1369.502881498509
 20
1686.501547604984
 30
0.0
  0
VERTEX
  5
296
  8
LAYER_05
 10
1366.707500386978
 20
1693.250194596442
 30
0.0
  0
VERTEX
  5
297
  8
LAYER_05
 10
1371.466741646522
 20
1691.278852320134
 30
0.0
  0
VERTEX
  5
298
  8
LAYER_05
 10
1380.779817418918
 20
1712.792278403852
 30
0.0
  0
VERTEX
  5
299
  8
LAYER_05
 10
1384.346124640027
 20
1712.792278403852
 30
0.0
  0
VERTEX
  5
29A
  8
LAYER_05
 10
1386.867884659868
 20
1710.270518384011
 30
0.0
  0
VERTEX
  5
29B
  8
LAYER_05
 10
1378.24093422188
 20
1688.472889881293
 30
0.0
  0
VERTEX
  5
29C
  8
LAYER_05
 10
1383.000175481425
 20
1686.501547604984
 30
0.0
  0
SEQEND
  5
29D
  8
LAYER_05
  0
POLYLINE
  5
29E
  8
LAYER_05
 66
     1
 10
0.0
 20
0.0
 30
0.0
  0
VERTEX
  5
29F
  8
LAYER_05
 10
1351.149277894095
 20
1718.352445192316
 30
0.0
  0
VERTEX
  5
2A0
  8
LAYER_05
 10
1353.120620170404
 20
1713.59320393277
 30
0.0
  0
VERTEX
  5
2A1
  8
LAYER_05
 10
1374.918248673122
 20
1722.220154370758
 30
0.0
  0
VERTEX
  5
2A2
  8
LAYER_05
 10
1377.440008692963
 20
1719.698394350917
 30
0.0
  0
VERTEX
  5
2A3
  8
LAYER_05
 10
1377.440008692962
 20
1716.132087129808
 30
0.0
  0
VERTEX
  5
2A4
  8
LAYER_05
 10
1355.926582609243
 20
1706.819011357413
 30
0.0
  0
VERTEX
  5
2A5
  8
LAYER_05
 10
1357.897924885552
 20
1702.059770097868
 30
0.0
  0
VERTEX
  5
2A6
  8
LAYER_05
 10
1351.149277894095
 20
1704.855151209398
 30
0.0
  0
SEQEND
  5
2A7
  8
LAYER_05
  0
POLYLINE
  5
2A8
  8
LAYER_05
 66
     1
 10
0.0
 20
0.0
 30
0.0
  0
VERTEX
  5
2A9
  8
LAYER_05
 10
1351.149277894095
 20
1744.308360328096
 30
0.0
  0
VERTEX
  5
2AA
  8
LAYER_05
 10
1357.897924885553
 20
1747.103741439627
 30
0.0
  0
VERTEX
  5
2AB
  8
LAYER_05
 10
1355.926582609244
 20
1742.344500180082
 30
0.0
  0
VERTEX
  5
2AC
  8
LAYER_05
 10
1377.440008692963
 20
1733.031424407686
 30
0.0
  0
VERTEX
  5
2AD
  8
LAYER_05
 10
1377.440008692963
 20
1729.465117186577
 30
0.0
  0
VERTEX
  5
2AE
  8
LAYER_05
 10
1374.918248673123
 20
1726.943357166737
 30
0.0
  0
VERTEX
  5
2AF
  8
LAYER_05
 10
1353.120620170404
 20
1735.570307604725
 30
0.0
  0
VERTEX
  5
2B0
  8
LAYER_05
 10
1351.149277894094
 20
1730.811066345178
 30
0.0
  0
SEQEND
  5
2B1
  8
LAYER_05
  0
POLYLINE
  5
2B2
  8
LAYER_05
 66
     1
 10
0.0
 20
0.0
 30
0.0
  0
VERTEX
  5
2B3
  8
LAYER_05
 10
1383.000175481426
 20
1762.661963932511
 30
0.0
  0
VERTEX
  5
2B4
  8
LAYER_05
 10
1378.240934221881
 20
1760.690621656201
 30
0.0
  0
VERTEX
  5
2B5
  8
LAYER_05
 10
1386.867884659869
 20
1738.892993153483
 30
0.0
  0
VERTEX
  5
2B6
  8
LAYER_05
 10
1384.346124640028
 20
1736.371233133642
 30
0.0
  0
VERTEX
  5
2B7
  8
LAYER_05
 10
1380.779817418919
 20
1736.371233133642
 30
0.0
  0
VERTEX
  5
2B8
  8
LAYER_05
 10
1371.466741646524
 20
1757.884659217361
 30
0.0
  0
VERTEX
  5
2B9
  8
LAYER_05
 10
1366.707500386978
 20
1755.913316941052
 30
0.0
  0
VERTEX
  5
2BA
  8
LAYER_05
 10
1369.502881498509
 20
1762.66196393251
 30
0.0
  0
SEQEND
  5
2BB
  8
LAYER_05
  0
POLYLINE
  5
2BC
  8
LAYER_05
 66
     1
 10
0.0
 20
0.0
 30
0.0
  0
VERTEX
  5
2BD
  8
LAYER_05
 10
1408.956090617207
 20
1762.66196393251
 30
0.0
  0
VERTEX
  5
2BE
  8
LAYER_05
 10
1411.751471728738
 20
1755.913316941052
 30
0.0
  0
VERTEX
  5
2BF
  8
LAYER_05
 10
1406.992230469193
 20
1757.884659217361
 30
0.0
  0
VERTEX
  5
2C0
  8
LAYER_05
 10
1397.679154696797
 20
1736.371233133642
 30
0.0
  0
VERTEX
  5
2C1
  8
LAYER_05
 10
1394.112847475689
 20
1736.371233133642
 30
0.0
  0
VERTEX
  5
2C2
  8
LAYER_05
 10
1391.591087455848
 20
1738.892993153483
 30
0.0
  0
VERTEX
  5
2C3
  8
LAYER_05
 10
1400.218037893836
 20
1760.690621656201
 30
0.0
  0
VERTEX
  5
2C4
  8
LAYER_05
 10
1395.45879663429
 20
1762.661963932511
 30
0.0
  0
SEQEND
  5
2C5
  8
LAYER_05
  0
POLYLINE
  5
2C6
  8
LAYER_05
 66
     1
 10
0.0
 20
0.0
 30
0.0
  0
VERTEX
  5
2C7
  8
LAYER_05
 10
1427.309694221622
 20
1730.811066345178
 30
0.0
  0
VERTEX
  5
2C8
  8
LAYER_05
 10
1425.338351945312
 20
1735.570307604724
 30
0.0
  0
VERTEX
  5
2C9
  8
LAYER_05
 10
1403.540723442594
 20
1726.943357166736
 30
0.0
  0
VERTEX
  5
2CA
  8
LAYER_05
 10
1401.018963422753
 20
1729.465117186577
 30
0.0
  0
VERTEX
  5
2CB
  8
LAYER_05
 10
1401.018963422753
 20
1733.031424407686
 30
0.0
  0
VERTEX
  5
2CC
  8
LAYER_05
 10
1422.532389506472
 20
1742.344500180081
 30
0.0
  0
VERTEX
  5
2CD
  8
LAYER_05
 10
1420.561047230163
 20
1747.103741439627
 30
0.0
  0
VERTEX
  5
2CE
  8
LAYER_05
 10
1427.309694221621
 20
1744.308360328096
 30
0.0
  0
SEQEND
  5
2CF
  8
LAYER_05
  0
POLYLINE
  5
2D0
  8
LAYER_05
 66
     1
 10
0.0
 20
0.0
 30
0.0
  0
VERTEX
  5
2D1
  8
LAYER_05
 10
1427.309694221621
 20
1704.855151209398
 30
0.0
  0
VERTEX
  5
2D2
  8
LAYER_05
 10
1420.561047230162
 20
1702.059770097868
 30
0.0
  0
VERTEX
  5
2D3
  8
LAYER_05
 10
1422.532389506471
 20
1706.819011357412
 30
0.0
  0
VERTEX
  5
2D4
  8
LAYER_05
 10
1401.018963422753
 20
1716.132087129807
 30
0.0
  0
VERTEX
  5
2D5
  8
LAYER_05
 10
1401.018963422753
 20
1719.698394350916
 30
0.0
  0
VERTEX
  5
2D6
  8
LAYER_05
 10
1403.540723442594
 20
1722.220154370757
 30
0.0
  0
VERTEX
  5
2D7
  8
LAYER_05
 10
1425.338351945312
 20
1713.593203932769
 30
0.0
  0
VERTEX
  5
2D8
  8
LAYER_05
 10
1427.309694221621
 20
1718.352445192316
 30
0.0
  0
SEQEND
  5
2D9
  8
LAYER_05
  0
POLYLINE
  5
2DA
  8
LAYER_05
 66
     1
 10
0.0
 20
0.0
 30
0.0
  0
VERTEX
  5
2DB
  8
LAYER_05
 10
1395.45879663429
 20
1686.501547604984
 30
0.0
  0
VERTEX
  5
2DC
  8
LAYER_05
 10
1400.218037893835
 20
1688.472889881293
 30
0.0
  0
VERTEX
  5
2DD
  8
LAYER_05
 10
1391.591087455847
 20
1710.270518384011
 30
0.0
  0
VERTEX
  5
2DE
  8
LAYER_05
 10
1394.112847475688
 20
1712.792278403852
 30
0.0
  0
VERTEX
  5
2DF
  8
LAYER_05
 10
1397.679154696797
 20
1712.792278403852
 30
0.0
  0
VERTEX
  5
2E0
  8
LAYER_05
 10
1406.992230469192
 20
1691.278852320133
 30
0.0
  0
VERTEX
  5
2E1
  8
LAYER_05
 10
1411.751471728738
 20
1693.250194596442
 30
0.0
  0
VERTEX
  5
2E2
  8
LAYER_05
 10
1408.956090617207
 20
1686.501547604984
 30
0.0
  0
SEQEND
  5
2E3
  8
LAYER_05
  0
POLYLINE
  5
2E4
  8
LAYER_05
 66
     1
 10
0.0
 20
0.0
 30
0.0
 70
     1
  0
VERTEX
  5
2E5
  8
LAYER_05
 10
1409.503268284466
 20
1751.684023448658
 30
0.0
  0
VERTEX
  5
2E6
  8
LAYER_05
 10
1404.29077841208
 20
1739.643048122968
 30
0.0
  0
VERTEX
  5
2E7
  8
LAYER_05
 10
1416.331753737769
 20
1744.855537995354
 30
0.0
  0
VERTEX
  5
2E8
  8
LAYER_05
 10
1414.33173665373
 20
1749.684006364619
 30
0.0
  0
SEQEND
  5
2E9
  8
LAYER_05
  0
POLYLINE
  5
2EA
  8
LAYER_05
 66
     1
 10
0.0
 20
0.0
 30
0.0
 70
     1
  0
VERTEX
  5
2EB
  8
LAYER_05
 10
1424.729429296628
 20
1724.581755768747
 30
0.0
  0
VERTEX
  5
2EC
  8
LAYER_05
 10
1422.72941221259
 20
1729.410224138012
 30
0.0
  0
VERTEX
  5
2ED
  8
LAYER_05
 10
1410.529369972065
 20
1724.581755768747
 30
0.0
  0
VERTEX
  5
2EE
  8
LAYER_05
 10
1422.729412212589
 20
1719.753287399482
 30
0.0
  0
SEQEND
  5
2EF
  8
LAYER_05
  0
POLYLINE
  5
2F0
  8
LAYER_05
 66
     1
 10
0.0
 20
0.0
 30
0.0
 70
     1
  0
VERTEX
  5
2F1
  8
LAYER_05
 10
1414.33173665373
 20
1699.479505172875
 30
0.0
  0
VERTEX
  5
2F2
  8
LAYER_05
 10
1416.331753737769
 20
1704.307973542139
 30
0.0
  0
VERTEX
  5
2F3
  8
LAYER_05
 10
1404.290778412079
 20
1709.520463414525
 30
0.0
  0
VERTEX
  5
2F4
  8
LAYER_05
 10
1409.503268284464
 20
1697.479488088836
 30
0.0
  0
SEQEND
  5
2F5
  8
LAYER_05
  0
POLYLINE
  5
2F6
  8
LAYER_05
 66
     1
 10
0.0
 20
0.0
 30
0.0
 70
     1
  0
VERTEX
  5
2F7
  8
LAYER_05
 10
1389.229486057858
 20
1689.081812529977
 30
0.0
  0
VERTEX
  5
2F8
  8
LAYER_05
 10
1394.057954427122
 20
1691.081829614015
 30
0.0
  0
VERTEX
  5
2F9
  8
LAYER_05
 10
1389.229486057857
 20
1703.28187185454
 30
0.0
  0
VERTEX
  5
2FA
  8
LAYER_05
 10
1384.401017688592
 20
1691.081829614016
 30
0.0
  0
SEQEND
  5
2FB
  8
LAYER_05
  0
POLYLINE
  5
2FC
  8
LAYER_05
 66
     1
 10
0.0
 20
0.0
 30
0.0
 70
     1
  0
VERTEX
  5
2FD
  8
LAYER_05
 10
1353.729542819088
 20
1724.581755768747
 30
0.0
  0
VERTEX
  5
2FE
  8
LAYER_05
 10
1355.729559903126
 20
1719.753287399483
 30
0.0
  0
VERTEX
  5
2FF
  8
LAYER_05
 10
1367.929602143651
 20
1724.581755768748
 30
0.0
  0
VERTEX
  5
300
  8
LAYER_05
 10
1355.729559903127
 20
1729.410224138013
 30
0.0
  0
SEQEND
  5
301
  8
LAYER_05
  0
POLYLINE
  5
302
  8
LAYER_05
 66
     1
 10
0.0
 20
0.0
 30
0.0
 70
     1
  0
VERTEX
  5
303
  8
LAYER_05
 10
1389.229486057858
 20
1760.081699007518
 30
0.0
  0
VERTEX
  5
304
  8
LAYER_05
 10
1384.401017688594
 20
1758.081681923479
 30
0.0
  0
VERTEX
  5
305
  8
LAYER_05
 10
1389.229486057859
 20
1745.881639682954
 30
0.0
  0
VERTEX
  5
306
  8
LAYER_05
 10
1394.057954427124
 20
1758.081681923478
 30
0.0
  0
SEQEND
  5
307
  8
LAYER_05
  0
POLYLINE
  5
308
  8
LAYER_05
 66
     1
 10
0.0
 20
0.0
 30
0.0
 70
     1
  0
VERTEX
  5
309
  8
LAYER_05
 10
1368.95570383125
 20
1697.479488088836
 30
0.0
  0
VERTEX
  5
30A
  8
LAYER_05
 10
1374.168193703635
 20
1709.520463414526
 30
0.0
  0
VERTEX
  5
30B
  8
LAYER_05
 10
1362.127218377946
 20
1704.30797354214
 30
0.0
  0
VERTEX
  5
30C
  8
LAYER_05
 10
1364.127235461985
 20
1699.479505172875
 30
0.0
  0
SEQEND
  5
30D
  8
LAYER_05
  0
POLYLINE
  5
30E
  8
LAYER_05
 66
     1
 10
0.0
 20
0.0
 30
0.0
 70
     1
  0
VERTEX
  5
30F
  8
LAYER_05
 10
1362.127218377947
 20
1744.855537995355
 30
0.0
  0
VERTEX
  5
310
  8
LAYER_05
 10
1374.168193703636
 20
1739.643048122969
 30
0.0
  0
VERTEX
  5
311
  8
LAYER_05
 10
1368.955703831251
 20
1751.684023448658
 30
0.0
  0
VERTEX
  5
312
  8
LAYER_05
 10
1364.127235461986
 20
1749.684006364619
 30
0.0
  0
SEQEND
  5
313
  8
LAYER_05
  0
POLYLINE
  5
314
  8
LAYER_05
 66
     1
 10
0.0
 20
0.0
 30
0.0
 70
     1
  0
VERTEX
  5
315
  8
LAYER_05
 10
1379.299204456262
 20
1724.581755768747
 30
0.0
  0
VERTEX
  5
316
  8
LAYER_05
 10
1382.207716598278
 20
1721.673243626731
 30
0.0
  0
VERTEX
  5
317
  8
LAYER_05
 10
1382.207716598278
 20
1717.559986309167
 30
0.0
  0
VERTEX
  5
318
  8
LAYER_05
 10
1386.320973915842
 20
1717.559986309167
 30
0.0
  0
VERTEX
  5
319
  8
LAYER_05
 10
1389.229486057858
 20
1714.651474167151
 30
0.0
  0
VERTEX
  5
31A
  8
LAYER_05
 10
1392.137998199873
 20
1717.559986309167
 30
0.0
  0
VERTEX
  5
31B
  8
LAYER_05
 10
1396.251255517438
 20
1717.559986309167
 30
0.0
  0
VERTEX
  5
31C
  8
LAYER_05
 10
1396.251255517438
 20
1721.673243626731
 30
0.0
  0
VERTEX
  5
31D
  8
LAYER_05
 10
1399.159767659454
 20
1724.581755768747
 30
0.0
  0
VERTEX
  5
31E
  8
LAYER_05
 10
1396.251255517438
 20
1727.490267910762
 30
0.0
  0
VERTEX
  5
31F
  8
LAYER_05
 10
1396.251255517438
 20
1731.603525228327
 30
0.0
  0
VERTEX
  5
320
  8
LAYER_05
 10
1392.137998199873
 20
1731.603525228327
 30
0.0
  0
VERTEX
  5
321
  8
LAYER_05
 10
1389.229486057858
 20
1734.512037370343
 30
0.0
  0
VERTEX
  5
322
  8
LAYER_05
 10
1386.320973915843
 20
1731.603525228327
 30
0.0
  0
VERTEX
  5
323
  8
LAYER_05
 10
1382.207716598278
 20
1731.603525228327
 30
0.0
  0
VERTEX
  5
324
  8
LAYER_05
 10
1382.207716598277
 20
1727.490267910762
 30
0.0
  0
SEQEND
  5
325
  8
LAYER_05
  0
POLYLINE
  5
326
  8
LAYER_05
 66
     1
 10
0.0
 20
0.0
 30
0.0
  0
VERTEX
  5
327
  8
LAYER_05
 10
1288.181935320997
 20
1686.501547604984
 30
0.0
  0
VERTEX
  5
328
  8
LAYER_05
 10
1284.317773483019
 20
1695.830459521435
 30
0.0
  0
VERTEX
  5
329
  8
LAYER_05
 10
1274.988861566568
 20
1699.694621359414
 30
0.0
  0
SEQEND
  5
32A
  8
LAYER_05
  0
POLYLINE
  5
32B
  8
LAYER_05
 66
     1
 10
0.0
 20
0.0
 30
0.0
  0
VERTEX
  5
32C
  8
LAYER_05
 10
1274.988861566568
 20
1749.468890178081
 30
0.0
  0
VERTEX
  5
32D
  8
LAYER_05
 10
1284.317773483019
 20
1753.333052016059
 30
0.0
  0
VERTEX
  5
32E
  8
LAYER_05
 10
1288.181935320997
 20
1762.66196393251
 30
0.0
  0
SEQEND
  5
32F
  8
LAYER_05
  0
POLYLINE
  5
330
  8
LAYER_05
 66
     1
 10
0.0
 20
0.0
 30
0.0
  0
VERTEX
  5
331
  8
LAYER_05
 10
1337.956204139665
 20
1762.66196393251
 30
0.0
  0
VERTEX
  5
332
  8
LAYER_05
 10
1341.820365977644
 20
1753.333052016059
 30
0.0
  0
VERTEX
  5
333
  8
LAYER_05
 10
1351.149277894095
 20
1749.468890178081
 30
0.0
  0
SEQEND
  5
334
  8
LAYER_05
  0
POLYLINE
  5
335
  8
LAYER_05
 66
     1
 10
0.0
 20
0.0
 30
0.0
  0
VERTEX
  5
336
  8
LAYER_05
 10
1351.149277894094
 20
1699.694621359413
 30
0.0
  0
VERTEX
  5
337
  8
LAYER_05
 10
1341.820365977643
 20
1695.830459521435
 30
0.0
  0
VERTEX
  5
338
  8
LAYER_05
 10
1337.956204139665
 20
1686.501547604984
 30
0.0
  0
SEQEND
  5
339
  8
LAYER_05
  0
POLYLINE
  5
33A
  8
LAYER_05
 66
     1
 10
0.0
 20
0.0
 30
0.0
  0
VERTEX
  5
33B
  8
LAYER_05
 10
1293.342465170982
 20
1686.501547604984
 30
0.0
  0
VERTEX
  5
33C
  8
LAYER_05
 10
1290.547084059452
 20
1693.250194596442
 30
0.0
  0
VERTEX
  5
33D
  8
LAYER_05
 10
1295.306325318996
 20
1691.278852320134
 30
0.0
  0
VERTEX
  5
33E
  8
LAYER_05
 10
1304.619401091391
 20
1712.792278403852
 30
0.0
  0
VERTEX
  5
33F
  8
LAYER_05
 10
1308.185708312501
 20
1712.792278403852
 30
0.0
  0
VERTEX
  5
340
  8
LAYER_05
 10
1310.707468332341
 20
1710.270518384011
 30
0.0
  0
VERTEX
  5
341
  8
LAYER_05
 10
1302.080517894353
 20
1688.472889881293
 30
0.0
  0
VERTEX
  5
342
  8
LAYER_05
 10
1306.839759153898
 20
1686.501547604984
 30
0.0
  0
SEQEND
  5
343
  8
LAYER_05
  0
POLYLINE
  5
344
  8
LAYER_05
 66
     1
 10
0.0
 20
0.0
 30
0.0
  0
VERTEX
  5
345
  8
LAYER_05
 10
1274.988861566568
 20
1718.352445192316
 30
0.0
  0
VERTEX
  5
346
  8
LAYER_05
 10
1276.960203842877
 20
1713.59320393277
 30
0.0
  0
VERTEX
  5
347
  8
LAYER_05
 10
1298.757832345595
 20
1722.220154370758
 30
0.0
  0
VERTEX
  5
348
  8
LAYER_05
 10
1301.279592365436
 20
1719.698394350917
 30
0.0
  0
VERTEX
  5
349
  8
LAYER_05
 10
1301.279592365435
 20
1716.132087129808
 30
0.0
  0
VERTEX
  5
34A
  8
LAYER_05
 10
1279.766166281717
 20
1706.819011357413
 30
0.0
  0
VERTEX
  5
34B
  8
LAYER_05
 10
1281.737508558025
 20
1702.059770097868
 30
0.0
  0
VERTEX
  5
34C
  8
LAYER_05
 10
1274.988861566568
 20
1704.855151209398
 30
0.0
  0
SEQEND
  5
34D
  8
LAYER_05
  0
POLYLINE
  5
34E
  8
LAYER_05
 66
     1
 10
0.0
 20
0.0
 30
0.0
  0
VERTEX
  5
34F
  8
LAYER_05
 10
1274.988861566568
 20
1744.308360328096
 30
0.0
  0
VERTEX
  5
350
  8
LAYER_05
 10
1281.737508558027
 20
1747.103741439627
 30
0.0
  0
VERTEX
  5
351
  8
LAYER_05
 10
1279.766166281718
 20
1742.344500180082
 30
0.0
  0
VERTEX
  5
352
  8
LAYER_05
 10
1301.279592365436
 20
1733.031424407686
 30
0.0
  0
VERTEX
  5
353
  8
LAYER_05
 10
1301.279592365436
 20
1729.465117186577
 30
0.0
  0
VERTEX
  5
354
  8
LAYER_05
 10
1298.757832345596
 20
1726.943357166737
 30
0.0
  0
VERTEX
  5
355
  8
LAYER_05
 10
1276.960203842877
 20
1735.570307604725
 30
0.0
  0
VERTEX
  5
356
  8
LAYER_05
 10
1274.988861566568
 20
1730.811066345178
 30
0.0
  0
SEQEND
  5
357
  8
LAYER_05
  0
POLYLINE
  5
358
  8
LAYER_05
 66
     1
 10
0.0
 20
0.0
 30
0.0
  0
VERTEX
  5
359
  8
LAYER_05
 10
1306.839759153899
 20
1762.661963932511
 30
0.0
  0
VERTEX
  5
35A
  8
LAYER_05
 10
1302.080517894354
 20
1760.690621656201
 30
0.0
  0
VERTEX
  5
35B
  8
LAYER_05
 10
1310.707468332342
 20
1738.892993153483
 30
0.0
  0
VERTEX
  5
35C
  8
LAYER_05
 10
1308.185708312502
 20
1736.371233133642
 30
0.0
  0
VERTEX
  5
35D
  8
LAYER_05
 10
1304.619401091393
 20
1736.371233133642
 30
0.0
  0
VERTEX
  5
35E
  8
LAYER_05
 10
1295.306325318997
 20
1757.884659217361
 30
0.0
  0
VERTEX
  5
35F
  8
LAYER_05
 10
1290.547084059452
 20
1755.913316941052
 30
0.0
  0
VERTEX
  5
360
  8
LAYER_05
 10
1293.342465170982
 20
1762.66196393251
 30
0.0
  0
SEQEND
  5
361
  8
LAYER_05
  0
POLYLINE
  5
362
  8
LAYER_05
 66
     1
 10
0.0
 20
0.0
 30
0.0
  0
VERTEX
  5
363
  8
LAYER_05
 10
1332.79567428968
 20
1762.66196393251
 30
0.0
  0
VERTEX
  5
364
  8
LAYER_05
 10
1335.591055401211
 20
1755.913316941052
 30
0.0
  0
VERTEX
  5
365
  8
LAYER_05
 10
1330.831814141667
 20
1757.884659217361
 30
0.0
  0
VERTEX
  5
366
  8
LAYER_05
 10
1321.518738369271
 20
1736.371233133642
 30
0.0
  0
VERTEX
  5
367
  8
LAYER_05
 10
1317.952431148162
 20
1736.371233133642
 30
0.0
  0
VERTEX
  5
368
  8
LAYER_05
 10
1315.430671128321
 20
1738.892993153483
 30
0.0
  0
VERTEX
  5
369
  8
LAYER_05
 10
1324.057621566309
 20
1760.690621656201
 30
0.0
  0
VERTEX
  5
36A
  8
LAYER_05
 10
1319.298380306763
 20
1762.661963932511
 30
0.0
  0
SEQEND
  5
36B
  8
LAYER_05
  0
POLYLINE
  5
36C
  8
LAYER_05
 66
     1
 10
0.0
 20
0.0
 30
0.0
  0
VERTEX
  5
36D
  8
LAYER_05
 10
1351.149277894095
 20
1730.811066345178
 30
0.0
  0
VERTEX
  5
36E
  8
LAYER_05
 10
1349.177935617785
 20
1735.570307604724
 30
0.0
  0
VERTEX
  5
36F
  8
LAYER_05
 10
1327.380307115067
 20
1726.943357166736
 30
0.0
  0
VERTEX
  5
370
  8
LAYER_05
 10
1324.858547095226
 20
1729.465117186577
 30
0.0
  0
VERTEX
  5
371
  8
LAYER_05
 10
1324.858547095227
 20
1733.031424407686
 30
0.0
  0
VERTEX
  5
372
  8
LAYER_05
 10
1346.371973178946
 20
1742.344500180081
 30
0.0
  0
VERTEX
  5
373
  8
LAYER_05
 10
1344.400630902636
 20
1747.103741439627
 30
0.0
  0
VERTEX
  5
374
  8
LAYER_05
 10
1351.149277894095
 20
1744.308360328096
 30
0.0
  0
SEQEND
  5
375
  8
LAYER_05
  0
POLYLINE
  5
376
  8
LAYER_05
 66
     1
 10
0.0
 20
0.0
 30
0.0
  0
VERTEX
  5
377
  8
LAYER_05
 10
1351.149277894094
 20
1704.855151209398
 30
0.0
  0
VERTEX
  5
378
  8
LAYER_05
 10
1344.400630902636
 20
1702.059770097868
 30
0.0
  0
VERTEX
  5
379
  8
LAYER_05
 10
1346.371973178944
 20
1706.819011357412
 30
0.0
  0
VERTEX
  5
37A
  8
LAYER_05
 10
1324.858547095226
 20
1716.132087129807
 30
0.0
  0
VERTEX
  5
37B
  8
LAYER_05
 10
1324.858547095226
 20
1719.698394350916
 30
0.0
  0
VERTEX
  5
37C
  8
LAYER_05
 10
1327.380307115067
 20
1722.220154370757
 30
0.0
  0
VERTEX
  5
37D
  8
LAYER_05
 10
1349.177935617785
 20
1713.593203932769
 30
0.0
  0
VERTEX
  5
37E
  8
LAYER_05
 10
1351.149277894095
 20
1718.352445192316
 30
0.0
  0
SEQEND
  5
37F
  8
LAYER_05
  0
POLYLINE
  5
380
  8
LAYER_05
 66
     1
 10
0.0
 20
0.0
 30
0.0
  0
VERTEX
  5
381
  8
LAYER_05
 10
1319.298380306764
 20
1686.501547604984
 30
0.0
  0
VERTEX
  5
382
  8
LAYER_05
 10
1324.057621566308
 20
1688.472889881293
 30
0.0
  0
VERTEX
  5
383
  8
LAYER_05
 10
1315.43067112832
 20
1710.270518384011
 30
0.0
  0
VERTEX
  5
384
  8
LAYER_05
 10
1317.952431148162
 20
1712.792278403852
 30
0.0
  0
VERTEX
  5
385
  8
LAYER_05
 10
1321.51873836927
 20
1712.792278403852
 30
0.0
  0
VERTEX
  5
386
  8
LAYER_05
 10
1330.831814141666
 20
1691.278852320133
 30
0.0
  0
VERTEX
  5
387
  8
LAYER_05
 10
1335.591055401211
 20
1693.250194596442
 30
0.0
  0
VERTEX
  5
388
  8
LAYER_05
 10
1332.79567428968
 20
1686.501547604984
 30
0.0
  0
SEQEND
  5
389
  8
LAYER_05
  0
POLYLINE
  5
38A
  8
LAYER_05
 66
     1
 10
0.0
 20
0.0
 30
0.0
 70
     1
  0
VERTEX
  5
38B
  8
LAYER_05
 10
1333.342851956939
 20
1751.684023448658
 30
0.0
  0
VERTEX
  5
38C
  8
LAYER_05
 10
1328.130362084554
 20
1739.643048122968
 30
0.0
  0
VERTEX
  5
38D
  8
LAYER_05
 10
1340.171337410243
 20
1744.855537995354
 30
0.0
  0
VERTEX
  5
38E
  8
LAYER_05
 10
1338.171320326203
 20
1749.684006364619
 30
0.0
  0
SEQEND
  5
38F
  8
LAYER_05
  0
POLYLINE
  5
390
  8
LAYER_05
 66
     1
 10
0.0
 20
0.0
 30
0.0
 70
     1
  0
VERTEX
  5
391
  8
LAYER_05
 10
1348.569012969102
 20
1724.581755768747
 30
0.0
  0
VERTEX
  5
392
  8
LAYER_05
 10
1346.568995885063
 20
1729.410224138012
 30
0.0
  0
VERTEX
  5
393
  8
LAYER_05
 10
1334.368953644538
 20
1724.581755768747
 30
0.0
  0
VERTEX
  5
394
  8
LAYER_05
 10
1346.568995885062
 20
1719.753287399482
 30
0.0
  0
SEQEND
  5
395
  8
LAYER_05
  0
POLYLINE
  5
396
  8
LAYER_05
 66
     1
 10
0.0
 20
0.0
 30
0.0
 70
     1
  0
VERTEX
  5
397
  8
LAYER_05
 10
1338.171320326203
 20
1699.479505172875
 30
0.0
  0
VERTEX
  5
398
  8
LAYER_05
 10
1340.171337410242
 20
1704.307973542139
 30
0.0
  0
VERTEX
  5
399
  8
LAYER_05
 10
1328.130362084553
 20
1709.520463414525
 30
0.0
  0
VERTEX
  5
39A
  8
LAYER_05
 10
1333.342851956938
 20
1697.479488088836
 30
0.0
  0
SEQEND
  5
39B
  8
LAYER_05
  0
POLYLINE
  5
39C
  8
LAYER_05
 66
     1
 10
0.0
 20
0.0
 30
0.0
 70
     1
  0
VERTEX
  5
39D
  8
LAYER_05
 10
1313.069069730331
 20
1689.081812529977
 30
0.0
  0
VERTEX
  5
39E
  8
LAYER_05
 10
1317.897538099596
 20
1691.081829614015
 30
0.0
  0
VERTEX
  5
39F
  8
LAYER_05
 10
1313.069069730331
 20
1703.28187185454
 30
0.0
  0
VERTEX
  5
3A0
  8
LAYER_05
 10
1308.240601361066
 20
1691.081829614016
 30
0.0
  0
SEQEND
  5
3A1
  8
LAYER_05
  0
POLYLINE
  5
3A2
  8
LAYER_05
 66
     1
 10
0.0
 20
0.0
 30
0.0
 70
     1
  0
VERTEX
  5
3A3
  8
LAYER_05
 10
1277.569126491561
 20
1724.581755768747
 30
0.0
  0
VERTEX
  5
3A4
  8
LAYER_05
 10
1279.569143575599
 20
1719.753287399483
 30
0.0
  0
VERTEX
  5
3A5
  8
LAYER_05
 10
1291.769185816124
 20
1724.581755768748
 30
0.0
  0
VERTEX
  5
3A6
  8
LAYER_05
 10
1279.5691435756
 20
1729.410224138013
 30
0.0
  0
SEQEND
  5
3A7
  8
LAYER_05
  0
POLYLINE
  5
3A8
  8
LAYER_05
 66
     1
 10
0.0
 20
0.0
 30
0.0
 70
     1
  0
VERTEX
  5
3A9
  8
LAYER_05
 10
1313.069069730331
 20
1760.081699007518
 30
0.0
  0
VERTEX
  5
3AA
  8
LAYER_05
 10
1308.240601361067
 20
1758.081681923479
 30
0.0
  0
VERTEX
  5
3AB
  8
LAYER_05
 10
1313.069069730332
 20
1745.881639682954
 30
0.0
  0
VERTEX
  5
3AC
  8
LAYER_05
 10
1317.897538099597
 20
1758.081681923478
 30
0.0
  0
SEQEND
  5
3AD
  8
LAYER_05
  0
POLYLINE
  5
3AE
  8
LAYER_05
 66
     1
 10
0.0
 20
0.0
 30
0.0
 70
     1
  0
VERTEX
  5
3AF
  8
LAYER_05
 10
1292.795287503723
 20
1697.479488088836
 30
0.0
  0
VERTEX
  5
3B0
  8
LAYER_05
 10
1298.007777376108
 20
1709.520463414526
 30
0.0
  0
VERTEX
  5
3B1
  8
LAYER_05
 10
1285.966802050419
 20
1704.30797354214
 30
0.0
  0
VERTEX
  5
3B2
  8
LAYER_05
 10
1287.966819134459
 20
1699.479505172875
 30
0.0
  0
SEQEND
  5
3B3
  8
LAYER_05
  0
POLYLINE
  5
3B4
  8
LAYER_05
 66
     1
 10
0.0
 20
0.0
 30
0.0
 70
     1
  0
VERTEX
  5
3B5
  8
LAYER_05
 10
1285.96680205042
 20
1744.855537995355
 30
0.0
  0
VERTEX
  5
3B6
  8
LAYER_05
 10
1298.00777737611
 20
1739.643048122969
 30
0.0
  0
VERTEX
  5
3B7
  8
LAYER_05
 10
1292.795287503725
 20
1751.684023448658
 30
0.0
  0
VERTEX
  5
3B8
  8
LAYER_05
 10
1287.966819134459
 20
1749.684006364619
 30
0.0
  0
SEQEND
  5
3B9
  8
LAYER_05
  0
POLYLINE
  5
3BA
  8
LAYER_05
 66
     1
 10
0.0
 20
0.0
 30
0.0
 70
     1
  0
VERTEX
  5
3BB
  8
LAYER_05
 10
1303.138788128736
 20
1724.581755768747
 30
0.0
  0
VERTEX
  5
3BC
  8
LAYER_05
 10
1306.047300270751
 20
1721.673243626731
 30
0.0
  0
VERTEX
  5
3BD
  8
LAYER_05
 10
1306.047300270751
 20
1717.559986309167
 30
0.0
  0
VERTEX
  5
3BE
  8
LAYER_05
 10
1310.160557588316
 20
1717.559986309167
 30
0.0
  0
VERTEX
  5
3BF
  8
LAYER_05
 10
1313.069069730331
 20
1714.651474167151
 30
0.0
  0
VERTEX
  5
3C0
  8
LAYER_05
 10
1315.977581872347
 20
1717.559986309167
 30
0.0
  0
VERTEX
  5
3C1
  8
LAYER_05
 10
1320.090839189912
 20
1717.559986309167
 30
0.0
  0
VERTEX
  5
3C2
  8
LAYER_05
 10
1320.090839189912
 20
1721.673243626731
 30
0.0
  0
VERTEX
  5
3C3
  8
LAYER_05
 10
1322.999351331927
 20
1724.581755768747
 30
0.0
  0
VERTEX
  5
3C4
  8
LAYER_05
 10
1320.090839189912
 20
1727.490267910762
 30
0.0
  0
VERTEX
  5
3C5
  8
LAYER_05
 10
1320.090839189912
 20
1731.603525228327
 30
0.0
  0
VERTEX
  5
3C6
  8
LAYER_05
 10
1315.977581872347
 20
1731.603525228327
 30
0.0
  0
VERTEX
  5
3C7
  8
LAYER_05
 10
1313.069069730332
 20
1734.512037370343
 30
0.0
  0
VERTEX
  5
3C8
  8
LAYER_05
 10
1310.160557588316
 20
1731.603525228327
 30
0.0
  0
VERTEX
  5
3C9
  8
LAYER_05
 10
1306.047300270751
 20
1731.603525228327
 30
0.0
  0
VERTEX
  5
3CA
  8
LAYER_05
 10
1306.047300270751
 20
1727.490267910762
 30
0.0
  0
SEQEND
  5
3CB
  8
LAYER_05
  0
POLYLINE
  5
3CC
  8
LAYER_05
 66
     1
 10
0.0
 20
0.0
 30
0.0
  0
VERTEX
  5
3CD
  8
LAYER_05
 10
1212.021518993471
 20
1686.501547604984
 30
0.0
  0
VERTEX
  5
3CE
  8
LAYER_05
 10
1208.157357155492
 20
1695.830459521435
 30
0.0
  0
VERTEX
  5
3CF
  8
LAYER_05
 10
1198.828445239041
 20
1699.694621359414
 30
0.0
  0
SEQEND
  5
3D0
  8
LAYER_05
  0
POLYLINE
  5
3D1
  8
LAYER_05
 66
     1
 10
0.0
 20
0.0
 30
0.0
  0
VERTEX
  5
3D2
  8
LAYER_05
 10
1198.828445239041
 20
1749.468890178081
 30
0.0
  0
VERTEX
  5
3D3
  8
LAYER_05
 10
1208.157357155492
 20
1753.333052016059
 30
0.0
  0
VERTEX
  5
3D4
  8
LAYER_05
 10
1212.021518993471
 20
1762.66196393251
 30
0.0
  0
SEQEND
  5
3D5
  8
LAYER_05
  0
POLYLINE
  5
3D6
  8
LAYER_05
 66
     1
 10
0.0
 20
0.0
 30
0.0
  0
VERTEX
  5
3D7
  8
LAYER_05
 10
1261.795787812139
 20
1762.66196393251
 30
0.0
  0
VERTEX
  5
3D8
  8
LAYER_05
 10
1265.659949650117
 20
1753.333052016059
 30
0.0
  0
VERTEX
  5
3D9
  8
LAYER_05
 10
1274.988861566568
 20
1749.468890178081
 30
0.0
  0
SEQEND
  5
3DA
  8
LAYER_05
  0
POLYLINE
  5
3DB
  8
LAYER_05
 66
     1
 10
0.0
 20
0.0
 30
0.0
  0
VERTEX
  5
3DC
  8
LAYER_05
 10
1274.988861566568
 20
1699.694621359413
 30
0.0
  0
VERTEX
  5
3DD
  8
LAYER_05
 10
1265.659949650117
 20
1695.830459521435
 30
0.0
  0
VERTEX
  5
3DE
  8
LAYER_05
 10
1261.795787812138
 20
1686.501547604984
 30
0.0
  0
SEQEND
  5
3DF
  8
LAYER_05
  0
POLYLINE
  5
3E0
  8
LAYER_05
 66
     1
 10
0.0
 20
0.0
 30
0.0
  0
VERTEX
  5
3E1
  8
LAYER_05
 10
1217.182048843456
 20
1686.501547604984
 30
0.0
  0
VERTEX
  5
3E2
  8
LAYER_05
 10
1214.386667731925
 20
1693.250194596442
 30
0.0
  0
VERTEX
  5
3E3
  8
LAYER_05
 10
1219.145908991469
 20
1691.278852320134
 30
0.0
  0
VERTEX
  5
3E4
  8
LAYER_05
 10
1228.458984763864
 20
1712.792278403852
 30
0.0
  0
VERTEX
  5
3E5
  8
LAYER_05
 10
1232.025291984974
 20
1712.792278403852
 30
0.0
  0
VERTEX
  5
3E6
  8
LAYER_05
 10
1234.547052004814
 20
1710.270518384011
 30
0.0
  0
VERTEX
  5
3E7
  8
LAYER_05
 10
1225.920101566826
 20
1688.472889881293
 30
0.0
  0
VERTEX
  5
3E8
  8
LAYER_05
 10
1230.679342826372
 20
1686.501547604984
 30
0.0
  0
SEQEND
  5
3E9
  8
LAYER_05
  0
POLYLINE
  5
3EA
  8
LAYER_05
 66
     1
 10
0.0
 20
0.0
 30
0.0
  0
VERTEX
  5
3EB
  8
LAYER_05
 10
1198.828445239041
 20
1718.352445192316
 30
0.0
  0
VERTEX
  5
3EC
  8
LAYER_05
 10
1200.799787515351
 20
1713.59320393277
 30
0.0
  0
VERTEX
  5
3ED
  8
LAYER_05
 10
1222.597416018069
 20
1722.220154370758
 30
0.0
  0
VERTEX
  5
3EE
  8
LAYER_05
 10
1225.119176037909
 20
1719.698394350917
 30
0.0
  0
VERTEX
  5
3EF
  8
LAYER_05
 10
1225.119176037908
 20
1716.132087129808
 30
0.0
  0
VERTEX
  5
3F0
  8
LAYER_05
 10
1203.60574995419
 20
1706.819011357413
 30
0.0
  0
VERTEX
  5
3F1
  8
LAYER_05
 10
1205.577092230499
 20
1702.059770097868
 30
0.0
  0
VERTEX
  5
3F2
  8
LAYER_05
 10
1198.828445239041
 20
1704.855151209398
 30
0.0
  0
SEQEND
  5
3F3
  8
LAYER_05
  0
POLYLINE
  5
3F4
  8
LAYER_05
 66
     1
 10
0.0
 20
0.0
 30
0.0
  0
VERTEX
  5
3F5
  8
LAYER_05
 10
1198.828445239041
 20
1744.308360328096
 30
0.0
  0
VERTEX
  5
3F6
  8
LAYER_05
 10
1205.5770922305
 20
1747.103741439627
 30
0.0
  0
VERTEX
  5
3F7
  8
LAYER_05
 10
1203.605749954191
 20
1742.344500180082
 30
0.0
  0
VERTEX
  5
3F8
  8
LAYER_05
 10
1225.11917603791
 20
1733.031424407686
 30
0.0
  0
VERTEX
  5
3F9
  8
LAYER_05
 10
1225.119176037909
 20
1729.465117186577
 30
0.0
  0
VERTEX
  5
3FA
  8
LAYER_05
 10
1222.597416018069
 20
1726.943357166737
 30
0.0
  0
VERTEX
  5
3FB
  8
LAYER_05
 10
1200.799787515351
 20
1735.570307604725
 30
0.0
  0
VERTEX
  5
3FC
  8
LAYER_05
 10
1198.828445239041
 20
1730.811066345178
 30
0.0
  0
SEQEND
  5
3FD
  8
LAYER_05
  0
POLYLINE
  5
3FE
  8
LAYER_05
 66
     1
 10
0.0
 20
0.0
 30
0.0
  0
VERTEX
  5
3FF
  8
LAYER_05
 10
1230.679342826373
 20
1762.661963932511
 30
0.0
  0
VERTEX
  5
400
  8
LAYER_05
 10
1225.920101566828
 20
1760.690621656201
 30
0.0
  0
VERTEX
  5
401
  8
LAYER_05
 10
1234.547052004816
 20
1738.892993153483
 30
0.0
  0
VERTEX
  5
402
  8
LAYER_05
 10
1232.025291984975
 20
1736.371233133642
 30
0.0
  0
VERTEX
  5
403
  8
LAYER_05
 10
1228.458984763866
 20
1736.371233133642
 30
0.0
  0
VERTEX
  5
404
  8
LAYER_05
 10
1219.14590899147
 20
1757.884659217361
 30
0.0
  0
VERTEX
  5
405
  8
LAYER_05
 10
1214.386667731925
 20
1755.913316941052
 30
0.0
  0
VERTEX
  5
406
  8
LAYER_05
 10
1217.182048843456
 20
1762.66196393251
 30
0.0
  0
SEQEND
  5
407
  8
LAYER_05
  0
POLYLINE
  5
408
  8
LAYER_05
 66
     1
 10
0.0
 20
0.0
 30
0.0
  0
VERTEX
  5
409
  8
LAYER_05
 10
1256.635257962154
 20
1762.66196393251
 30
0.0
  0
VERTEX
  5
40A
  8
LAYER_05
 10
1259.430639073684
 20
1755.913316941052
 30
0.0
  0
VERTEX
  5
40B
  8
LAYER_05
 10
1254.67139781414
 20
1757.884659217361
 30
0.0
  0
VERTEX
  5
40C
  8
LAYER_05
 10
1245.358322041744
 20
1736.371233133642
 30
0.0
  0
VERTEX
  5
40D
  8
LAYER_05
 10
1241.792014820635
 20
1736.371233133642
 30
0.0
  0
VERTEX
  5
40E
  8
LAYER_05
 10
1239.270254800795
 20
1738.892993153483
 30
0.0
  0
VERTEX
  5
40F
  8
LAYER_05
 10
1247.897205238783
 20
1760.690621656201
 30
0.0
  0
VERTEX
  5
410
  8
LAYER_05
 10
1243.137963979237
 20
1762.661963932511
 30
0.0
  0
SEQEND
  5
411
  8
LAYER_05
  0
POLYLINE
  5
412
  8
LAYER_05
 66
     1
 10
0.0
 20
0.0
 30
0.0
  0
VERTEX
  5
413
  8
LAYER_05
 10
1274.988861566568
 20
1730.811066345178
 30
0.0
  0
VERTEX
  5
414
  8
LAYER_05
 10
1273.017519290259
 20
1735.570307604724
 30
0.0
  0
VERTEX
  5
415
  8
LAYER_05
 10
1251.21989078754
 20
1726.943357166736
 30
0.0
  0
VERTEX
  5
416
  8
LAYER_05
 10
1248.6981307677
 20
1729.465117186577
 30
0.0
  0
VERTEX
  5
417
  8
LAYER_05
 10
1248.6981307677
 20
1733.031424407686
 30
0.0
  0
VERTEX
  5
418
  8
LAYER_05
 10
1270.211556851419
 20
1742.344500180081
 30
0.0
  0
VERTEX
  5
419
  8
LAYER_05
 10
1268.240214575109
 20
1747.103741439627
 30
0.0
  0
VERTEX
  5
41A
  8
LAYER_05
 10
1274.988861566568
 20
1744.308360328096
 30
0.0
  0
SEQEND
  5
41B
  8
LAYER_05
  0
POLYLINE
  5
41C
  8
LAYER_05
 66
     1
 10
0.0
 20
0.0
 30
0.0
  0
VERTEX
  5
41D
  8
LAYER_05
 10
1274.988861566568
 20
1704.855151209398
 30
0.0
  0
VERTEX
  5
41E
  8
LAYER_05
 10
1268.240214575109
 20
1702.059770097868
 30
0.0
  0
VERTEX
  5
41F
  8
LAYER_05
 10
1270.211556851418
 20
1706.819011357412
 30
0.0
  0
VERTEX
  5
420
  8
LAYER_05
 10
1248.698130767699
 20
1716.132087129807
 30
0.0
  0
VERTEX
  5
421
  8
LAYER_05
 10
1248.6981307677
 20
1719.698394350916
 30
0.0
  0
VERTEX
  5
422
  8
LAYER_05
 10
1251.21989078754
 20
1722.220154370757
 30
0.0
  0
VERTEX
  5
423
  8
LAYER_05
 10
1273.017519290258
 20
1713.593203932769
 30
0.0
  0
VERTEX
  5
424
  8
LAYER_05
 10
1274.988861566568
 20
1718.352445192316
 30
0.0
  0
SEQEND
  5
425
  8
LAYER_05
  0
POLYLINE
  5
426
  8
LAYER_05
 66
     1
 10
0.0
 20
0.0
 30
0.0
  0
VERTEX
  5
427
  8
LAYER_05
 10
1243.137963979237
 20
1686.501547604984
 30
0.0
  0
VERTEX
  5
428
  8
LAYER_05
 10
1247.897205238781
 20
1688.472889881293
 30
0.0
  0
VERTEX
  5
429
  8
LAYER_05
 10
1239.270254800794
 20
1710.270518384011
 30
0.0
  0
VERTEX
  5
42A
  8
LAYER_05
 10
1241.792014820635
 20
1712.792278403852
 30
0.0
  0
VERTEX
  5
42B
  8
LAYER_05
 10
1245.358322041743
 20
1712.792278403852
 30
0.0
  0
VERTEX
  5
42C
  8
LAYER_05
 10
1254.671397814139
 20
1691.278852320133
 30
0.0
  0
VERTEX
  5
42D
  8
LAYER_05
 10
1259.430639073684
 20
1693.250194596442
 30
0.0
  0
VERTEX
  5
42E
  8
LAYER_05
 10
1256.635257962153
 20
1686.501547604984
 30
0.0
  0
SEQEND
  5
42F
  8
LAYER_05
  0
POLYLINE
  5
430
  8
LAYER_05
 66
     1
 10
0.0
 20
0.0
 30
0.0
 70
     1
  0
VERTEX
  5
431
  8
LAYER_05
 10
1257.182435629412
 20
1751.684023448658
 30
0.0
  0
VERTEX
  5
432
  8
LAYER_05
 10
1251.969945757027
 20
1739.643048122968
 30
0.0
  0
VERTEX
  5
433
  8
LAYER_05
 10
1264.010921082716
 20
1744.855537995354
 30
0.0
  0
VERTEX
  5
434
  8
LAYER_05
 10
1262.010903998677
 20
1749.684006364619
 30
0.0
  0
SEQEND
  5
435
  8
LAYER_05
  0
POLYLINE
  5
436
  8
LAYER_05
 66
     1
 10
0.0
 20
0.0
 30
0.0
 70
     1
  0
VERTEX
  5
437
  8
LAYER_05
 10
1272.408596641575
 20
1724.581755768747
 30
0.0
  0
VERTEX
  5
438
  8
LAYER_05
 10
1270.408579557537
 20
1729.410224138012
 30
0.0
  0
VERTEX
  5
439
  8
LAYER_05
 10
1258.208537317011
 20
1724.581755768747
 30
0.0
  0
VERTEX
  5
43A
  8
LAYER_05
 10
1270.408579557536
 20
1719.753287399482
 30
0.0
  0
SEQEND
  5
43B
  8
LAYER_05
  0
POLYLINE
  5
43C
  8
LAYER_05
 66
     1
 10
0.0
 20
0.0
 30
0.0
 70
     1
  0
VERTEX
  5
43D
  8
LAYER_05
 10
1262.010903998677
 20
1699.479505172875
 30
0.0
  0
VERTEX
  5
43E
  8
LAYER_05
 10
1264.010921082716
 20
1704.307973542139
 30
0.0
  0
VERTEX
  5
43F
  8
LAYER_05
 10
1251.969945757026
 20
1709.520463414525
 30
0.0
  0
VERTEX
  5
440
  8
LAYER_05
 10
1257.182435629411
 20
1697.479488088836
 30
0.0
  0
SEQEND
  5
441
  8
LAYER_05
  0
POLYLINE
  5
442
  8
LAYER_05
 66
     1
 10
0.0
 20
0.0
 30
0.0
 70
     1
  0
VERTEX
  5
443
  8
LAYER_05
 10
1236.908653402804
 20
1689.081812529977
 30
0.0
  0
VERTEX
  5
444
  8
LAYER_05
 10
1241.737121772069
 20
1691.081829614015
 30
0.0
  0
VERTEX
  5
445
  8
LAYER_05
 10
1236.908653402804
 20
1703.28187185454
 30
0.0
  0
VERTEX
  5
446
  8
LAYER_05
 10
1232.080185033539
 20
1691.081829614016
 30
0.0
  0
SEQEND
  5
447
  8
LAYER_05
  0
POLYLINE
  5
448
  8
LAYER_05
 66
     1
 10
0.0
 20
0.0
 30
0.0
 70
     1
  0
VERTEX
  5
449
  8
LAYER_05
 10
1201.408710164034
 20
1724.581755768747
 30
0.0
  0
VERTEX
  5
44A
  8
LAYER_05
 10
1203.408727248073
 20
1719.753287399483
 30
0.0
  0
VERTEX
  5
44B
  8
LAYER_05
 10
1215.608769488598
 20
1724.581755768748
 30
0.0
  0
VERTEX
  5
44C
  8
LAYER_05
 10
1203.408727248074
 20
1729.410224138013
 30
0.0
  0
SEQEND
  5
44D
  8
LAYER_05
  0
POLYLINE
  5
44E
  8
LAYER_05
 66
     1
 10
0.0
 20
0.0
 30
0.0
 70
     1
  0
VERTEX
  5
44F
  8
LAYER_05
 10
1236.908653402804
 20
1760.081699007518
 30
0.0
  0
VERTEX
  5
450
  8
LAYER_05
 10
1232.08018503354
 20
1758.081681923479
 30
0.0
  0
VERTEX
  5
451
  8
LAYER_05
 10
1236.908653402805
 20
1745.881639682954
 30
0.0
  0
VERTEX
  5
452
  8
LAYER_05
 10
1241.73712177207
 20
1758.081681923478
 30
0.0
  0
SEQEND
  5
453
  8
LAYER_05
  0
POLYLINE
  5
454
  8
LAYER_05
 66
     1
 10
0.0
 20
0.0
 30
0.0
 70
     1
  0
VERTEX
  5
455
  8
LAYER_05
 10
1216.634871176196
 20
1697.479488088836
 30
0.0
  0
VERTEX
  5
456
  8
LAYER_05
 10
1221.847361048582
 20
1709.520463414526
 30
0.0
  0
VERTEX
  5
457
  8
LAYER_05
 10
1209.806385722893
 20
1704.30797354214
 30
0.0
  0
VERTEX
  5
458
  8
LAYER_05
 10
1211.806402806932
 20
1699.479505172875
 30
0.0
  0
SEQEND
  5
459
  8
LAYER_05
  0
POLYLINE
  5
45A
  8
LAYER_05
 66
     1
 10
0.0
 20
0.0
 30
0.0
 70
     1
  0
VERTEX
  5
45B
  8
LAYER_05
 10
1209.806385722894
 20
1744.855537995355
 30
0.0
  0
VERTEX
  5
45C
  8
LAYER_05
 10
1221.847361048583
 20
1739.643048122969
 30
0.0
  0
VERTEX
  5
45D
  8
LAYER_05
 10
1216.634871176198
 20
1751.684023448658
 30
0.0
  0
VERTEX
  5
45E
  8
LAYER_05
 10
1211.806402806933
 20
1749.684006364619
 30
0.0
  0
SEQEND
  5
45F
  8
LAYER_05
  0
POLYLINE
  5
460
  8
LAYER_05
 66
     1
 10
0.0
 20
0.0
 30
0.0
 70
     1
  0
VERTEX
  5
461
  8
LAYER_05
 10
1226.978371801209
 20
1724.581755768747
 30
0.0
  0
VERTEX
  5
462
  8
LAYER_05
 10
1229.886883943224
 20
1721.673243626731
 30
0.0
  0
VERTEX
  5
463
  8
LAYER_05
 10
1229.886883943224
 20
1717.559986309167
 30
0.0
  0
VERTEX
  5
464
  8
LAYER_05
 10
1234.000141260789
 20
1717.559986309167
 30
0.0
  0
VERTEX
  5
465
  8
LAYER_05
 10
1236.908653402804
 20
1714.651474167151
 30
0.0
  0
VERTEX
  5
466
  8
LAYER_05
 10
1239.81716554482
 20
1717.559986309167
 30
0.0
  0
VERTEX
  5
467
  8
LAYER_05
 10
1243.930422862385
 20
1717.559986309167
 30
0.0
  0
VERTEX
  5
468
  8
LAYER_05
 10
1243.930422862385
 20
1721.673243626731
 30
0.0
  0
VERTEX
  5
469
  8
LAYER_05
 10
1246.838935004401
 20
1724.581755768747
 30
0.0
  0
VERTEX
  5
46A
  8
LAYER_05
 10
1243.930422862385
 20
1727.490267910762
 30
0.0
  0
VERTEX
  5
46B
  8
LAYER_05
 10
1243.930422862385
 20
1731.603525228327
 30
0.0
  0
VERTEX
  5
46C
  8
LAYER_05
 10
1239.81716554482
 20
1731.603525228327
 30
0.0
  0
VERTEX
  5
46D
  8
LAYER_05
 10
1236.908653402805
 20
1734.512037370343
 30
0.0
  0
VERTEX
  5
46E
  8
LAYER_05
 10
1234.000141260789
 20
1731.603525228327
 30
0.0
  0
VERTEX
  5
46F
  8
LAYER_05
 10
1229.886883943224
 20
1731.603525228327
 30
0.0
  0
VERTEX
  5
470
  8
LAYER_05
 10
1229.886883943224
 20
1727.490267910762
 30
0.0
  0
SEQEND
  5
471
  8
LAYER_05
  0
POLYLINE
  5
472
  8
LAYER_05
 66
     1
 10
0.0
 20
0.0
 30
0.0
  0
VERTEX
  5
473
  8
LAYER_05
 10
1364.342351648524
 20
1610.341131277458
 30
0.0
  0
VERTEX
  5
474
  8
LAYER_05
 10
1360.478189810546
 20
1619.670043193909
 30
0.0
  0
VERTEX
  5
475
  8
LAYER_05
 10
1351.149277894095
 20
1623.534205031887
 30
0.0
  0
SEQEND
  5
476
  8
LAYER_05
  0
POLYLINE
  5
477
  8
LAYER_05
 66
     1
 10
0.0
 20
0.0
 30
0.0
  0
VERTEX
  5
478
  8
LAYER_05
 10
1351.149277894095
 20
1673.308473850555
 30
0.0
  0
VERTEX
  5
479
  8
LAYER_05
 10
1360.478189810546
 20
1677.172635688533
 30
0.0
  0
VERTEX
  5
47A
  8
LAYER_05
 10
1364.342351648524
 20
1686.501547604984
 30
0.0
  0
SEQEND
  5
47B
  8
LAYER_05
  0
POLYLINE
  5
47C
  8
LAYER_05
 66
     1
 10
0.0
 20
0.0
 30
0.0
  0
VERTEX
  5
47D
  8
LAYER_05
 10
1414.116620467192
 20
1686.501547604984
 30
0.0
  0
VERTEX
  5
47E
  8
LAYER_05
 10
1417.98078230517
 20
1677.172635688533
 30
0.0
  0
VERTEX
  5
47F
  8
LAYER_05
 10
1427.309694221621
 20
1673.308473850555
 30
0.0
  0
SEQEND
  5
480
  8
LAYER_05
  0
POLYLINE
  5
481
  8
LAYER_05
 66
     1
 10
0.0
 20
0.0
 30
0.0
  0
VERTEX
  5
482
  8
LAYER_05
 10
1427.309694221621
 20
1623.534205031887
 30
0.0
  0
VERTEX
  5
483
  8
LAYER_05
 10
1417.98078230517
 20
1619.670043193909
 30
0.0
  0
VERTEX
  5
484
  8
LAYER_05
 10
1414.116620467192
 20
1610.341131277458
 30
0.0
  0
SEQEND
  5
485
  8
LAYER_05
  0
POLYLINE
  5
486
  8
LAYER_05
 66
     1
 10
0.0
 20
0.0
 30
0.0
  0
VERTEX
  5
487
  8
LAYER_05
 10
1369.502881498509
 20
1610.341131277458
 30
0.0
  0
VERTEX
  5
488
  8
LAYER_05
 10
1366.707500386978
 20
1617.089778268916
 30
0.0
  0
VERTEX
  5
489
  8
LAYER_05
 10
1371.466741646522
 20
1615.118435992607
 30
0.0
  0
VERTEX
  5
48A
  8
LAYER_05
 10
1380.779817418918
 20
1636.631862076326
 30
0.0
  0
VERTEX
  5
48B
  8
LAYER_05
 10
1384.346124640027
 20
1636.631862076325
 30
0.0
  0
VERTEX
  5
48C
  8
LAYER_05
 10
1386.867884659868
 20
1634.110102056485
 30
0.0
  0
VERTEX
  5
48D
  8
LAYER_05
 10
1378.24093422188
 20
1612.312473553767
 30
0.0
  0
VERTEX
  5
48E
  8
LAYER_05
 10
1383.000175481425
 20
1610.341131277458
 30
0.0
  0
SEQEND
  5
48F
  8
LAYER_05
  0
POLYLINE
  5
490
  8
LAYER_05
 66
     1
 10
0.0
 20
0.0
 30
0.0
  0
VERTEX
  5
491
  8
LAYER_05
 10
1351.149277894095
 20
1642.19202886479
 30
0.0
  0
VERTEX
  5
492
  8
LAYER_05
 10
1353.120620170404
 20
1637.432787605244
 30
0.0
  0
VERTEX
  5
493
  8
LAYER_05
 10
1374.918248673122
 20
1646.059738043232
 30
0.0
  0
VERTEX
  5
494
  8
LAYER_05
 10
1377.440008692963
 20
1643.537978023391
 30
0.0
  0
VERTEX
  5
495
  8
LAYER_05
 10
1377.440008692962
 20
1639.971670802282
 30
0.0
  0
VERTEX
  5
496
  8
LAYER_05
 10
1355.926582609243
 20
1630.658595029887
 30
0.0
  0
VERTEX
  5
497
  8
LAYER_05
 10
1357.897924885552
 20
1625.899353770342
 30
0.0
  0
VERTEX
  5
498
  8
LAYER_05
 10
1351.149277894095
 20
1628.694734881872
 30
0.0
  0
SEQEND
  5
499
  8
LAYER_05
  0
POLYLINE
  5
49A
  8
LAYER_05
 66
     1
 10
0.0
 20
0.0
 30
0.0
  0
VERTEX
  5
49B
  8
LAYER_05
 10
1351.149277894095
 20
1668.14794400057
 30
0.0
  0
VERTEX
  5
49C
  8
LAYER_05
 10
1357.897924885553
 20
1670.9433251121
 30
0.0
  0
VERTEX
  5
49D
  8
LAYER_05
 10
1355.926582609244
 20
1666.184083852556
 30
0.0
  0
VERTEX
  5
49E
  8
LAYER_05
 10
1377.440008692963
 20
1656.87100808016
 30
0.0
  0
VERTEX
  5
49F
  8
LAYER_05
 10
1377.440008692963
 20
1653.304700859051
 30
0.0
  0
VERTEX
  5
4A0
  8
LAYER_05
 10
1374.918248673123
 20
1650.782940839211
 30
0.0
  0
VERTEX
  5
4A1
  8
LAYER_05
 10
1353.120620170404
 20
1659.409891277199
 30
0.0
  0
VERTEX
  5
4A2
  8
LAYER_05
 10
1351.149277894094
 20
1654.650650017652
 30
0.0
  0
SEQEND
  5
4A3
  8
LAYER_05
  0
POLYLINE
  5
4A4
  8
LAYER_05
 66
     1
 10
0.0
 20
0.0
 30
0.0
  0
VERTEX
  5
4A5
  8
LAYER_05
 10
1383.000175481426
 20
1686.501547604984
 30
0.0
  0
VERTEX
  5
4A6
  8
LAYER_05
 10
1378.240934221881
 20
1684.530205328675
 30
0.0
  0
VERTEX
  5
4A7
  8
LAYER_05
 10
1386.867884659869
 20
1662.732576825957
 30
0.0
  0
VERTEX
  5
4A8
  8
LAYER_05
 10
1384.346124640028
 20
1660.210816806116
 30
0.0
  0
VERTEX
  5
4A9
  8
LAYER_05
 10
1380.779817418919
 20
1660.210816806116
 30
0.0
  0
VERTEX
  5
4AA
  8
LAYER_05
 10
1371.466741646524
 20
1681.724242889835
 30
0.0
  0
VERTEX
  5
4AB
  8
LAYER_05
 10
1366.707500386978
 20
1679.752900613526
 30
0.0
  0
VERTEX
  5
4AC
  8
LAYER_05
 10
1369.502881498509
 20
1686.501547604984
 30
0.0
  0
SEQEND
  5
4AD
  8
LAYER_05
  0
POLYLINE
  5
4AE
  8
LAYER_05
 66
     1
 10
0.0
 20
0.0
 30
0.0
  0
VERTEX
  5
4AF
  8
LAYER_05
 10
1408.956090617207
 20
1686.501547604984
 30
0.0
  0
VERTEX
  5
4B0
  8
LAYER_05
 10
1411.751471728738
 20
1679.752900613526
 30
0.0
  0
VERTEX
  5
4B1
  8
LAYER_05
 10
1406.992230469193
 20
1681.724242889834
 30
0.0
  0
VERTEX
  5
4B2
  8
LAYER_05
 10
1397.679154696797
 20
1660.210816806116
 30
0.0
  0
VERTEX
  5
4B3
  8
LAYER_05
 10
1394.112847475689
 20
1660.210816806116
 30
0.0
  0
VERTEX
  5
4B4
  8
LAYER_05
 10
1391.591087455848
 20
1662.732576825957
 30
0.0
  0
VERTEX
  5
4B5
  8
LAYER_05
 10
1400.218037893836
 20
1684.530205328675
 30
0.0
  0
VERTEX
  5
4B6
  8
LAYER_05
 10
1395.45879663429
 20
1686.501547604984
 30
0.0
  0
SEQEND
  5
4B7
  8
LAYER_05
  0
POLYLINE
  5
4B8
  8
LAYER_05
 66
     1
 10
0.0
 20
0.0
 30
0.0
  0
VERTEX
  5
4B9
  8
LAYER_05
 10
1427.309694221622
 20
1654.650650017652
 30
0.0
  0
VERTEX
  5
4BA
  8
LAYER_05
 10
1425.338351945312
 20
1659.409891277198
 30
0.0
  0
VERTEX
  5
4BB
  8
LAYER_05
 10
1403.540723442594
 20
1650.78294083921
 30
0.0
  0
VERTEX
  5
4BC
  8
LAYER_05
 10
1401.018963422753
 20
1653.304700859051
 30
0.0
  0
VERTEX
  5
4BD
  8
LAYER_05
 10
1401.018963422753
 20
1656.871008080159
 30
0.0
  0
VERTEX
  5
4BE
  8
LAYER_05
 10
1422.532389506472
 20
1666.184083852555
 30
0.0
  0
VERTEX
  5
4BF
  8
LAYER_05
 10
1420.561047230163
 20
1670.9433251121
 30
0.0
  0
VERTEX
  5
4C0
  8
LAYER_05
 10
1427.309694221621
 20
1668.14794400057
 30
0.0
  0
SEQEND
  5
4C1
  8
LAYER_05
  0
POLYLINE
  5
4C2
  8
LAYER_05
 66
     1
 10
0.0
 20
0.0
 30
0.0
  0
VERTEX
  5
4C3
  8
LAYER_05
 10
1427.309694221621
 20
1628.694734881872
 30
0.0
  0
VERTEX
  5
4C4
  8
LAYER_05
 10
1420.561047230162
 20
1625.899353770341
 30
0.0
  0
VERTEX
  5
4C5
  8
LAYER_05
 10
1422.532389506471
 20
1630.658595029885
 30
0.0
  0
VERTEX
  5
4C6
  8
LAYER_05
 10
1401.018963422753
 20
1639.971670802281
 30
0.0
  0
VERTEX
  5
4C7
  8
LAYER_05
 10
1401.018963422753
 20
1643.53797802339
 30
0.0
  0
VERTEX
  5
4C8
  8
LAYER_05
 10
1403.540723442594
 20
1646.059738043231
 30
0.0
  0
VERTEX
  5
4C9
  8
LAYER_05
 10
1425.338351945312
 20
1637.432787605243
 30
0.0
  0
VERTEX
  5
4CA
  8
LAYER_05
 10
1427.309694221621
 20
1642.192028864789
 30
0.0
  0
SEQEND
  5
4CB
  8
LAYER_05
  0
POLYLINE
  5
4CC
  8
LAYER_05
 66
     1
 10
0.0
 20
0.0
 30
0.0
  0
VERTEX
  5
4CD
  8
LAYER_05
 10
1395.45879663429
 20
1610.341131277458
 30
0.0
  0
VERTEX
  5
4CE
  8
LAYER_05
 10
1400.218037893835
 20
1612.312473553767
 30
0.0
  0
VERTEX
  5
4CF
  8
LAYER_05
 10
1391.591087455847
 20
1634.110102056485
 30
0.0
  0
VERTEX
  5
4D0
  8
LAYER_05
 10
1394.112847475688
 20
1636.631862076326
 30
0.0
  0
VERTEX
  5
4D1
  8
LAYER_05
 10
1397.679154696797
 20
1636.631862076325
 30
0.0
  0
VERTEX
  5
4D2
  8
LAYER_05
 10
1406.992230469192
 20
1615.118435992607
 30
0.0
  0
VERTEX
  5
4D3
  8
LAYER_05
 10
1411.751471728738
 20
1617.089778268916
 30
0.0
  0
VERTEX
  5
4D4
  8
LAYER_05
 10
1408.956090617207
 20
1610.341131277458
 30
0.0
  0
SEQEND
  5
4D5
  8
LAYER_05
  0
POLYLINE
  5
4D6
  8
LAYER_05
 66
     1
 10
0.0
 20
0.0
 30
0.0
 70
     1
  0
VERTEX
  5
4D7
  8
LAYER_05
 10
1409.503268284466
 20
1675.523607121132
 30
0.0
  0
VERTEX
  5
4D8
  8
LAYER_05
 10
1404.29077841208
 20
1663.482631795442
 30
0.0
  0
VERTEX
  5
4D9
  8
LAYER_05
 10
1416.331753737769
 20
1668.695121667828
 30
0.0
  0
VERTEX
  5
4DA
  8
LAYER_05
 10
1414.33173665373
 20
1673.523590037093
 30
0.0
  0
SEQEND
  5
4DB
  8
LAYER_05
  0
POLYLINE
  5
4DC
  8
LAYER_05
 66
     1
 10
0.0
 20
0.0
 30
0.0
 70
     1
  0
VERTEX
  5
4DD
  8
LAYER_05
 10
1424.729429296628
 20
1648.421339441221
 30
0.0
  0
VERTEX
  5
4DE
  8
LAYER_05
 10
1422.72941221259
 20
1653.249807810485
 30
0.0
  0
VERTEX
  5
4DF
  8
LAYER_05
 10
1410.529369972065
 20
1648.42133944122
 30
0.0
  0
VERTEX
  5
4E0
  8
LAYER_05
 10
1422.729412212589
 20
1643.592871071955
 30
0.0
  0
SEQEND
  5
4E1
  8
LAYER_05
  0
POLYLINE
  5
4E2
  8
LAYER_05
 66
     1
 10
0.0
 20
0.0
 30
0.0
 70
     1
  0
VERTEX
  5
4E3
  8
LAYER_05
 10
1414.33173665373
 20
1623.319088845349
 30
0.0
  0
VERTEX
  5
4E4
  8
LAYER_05
 10
1416.331753737769
 20
1628.147557214613
 30
0.0
  0
VERTEX
  5
4E5
  8
LAYER_05
 10
1404.290778412079
 20
1633.360047086998
 30
0.0
  0
VERTEX
  5
4E6
  8
LAYER_05
 10
1409.503268284464
 20
1621.31907176131
 30
0.0
  0
SEQEND
  5
4E7
  8
LAYER_05
  0
POLYLINE
  5
4E8
  8
LAYER_05
 66
     1
 10
0.0
 20
0.0
 30
0.0
 70
     1
  0
VERTEX
  5
4E9
  8
LAYER_05
 10
1389.229486057858
 20
1612.92139620245
 30
0.0
  0
VERTEX
  5
4EA
  8
LAYER_05
 10
1394.057954427122
 20
1614.921413286489
 30
0.0
  0
VERTEX
  5
4EB
  8
LAYER_05
 10
1389.229486057857
 20
1627.121455527014
 30
0.0
  0
VERTEX
  5
4EC
  8
LAYER_05
 10
1384.401017688592
 20
1614.92141328649
 30
0.0
  0
SEQEND
  5
4ED
  8
LAYER_05
  0
POLYLINE
  5
4EE
  8
LAYER_05
 66
     1
 10
0.0
 20
0.0
 30
0.0
 70
     1
  0
VERTEX
  5
4EF
  8
LAYER_05
 10
1353.729542819088
 20
1648.421339441221
 30
0.0
  0
VERTEX
  5
4F0
  8
LAYER_05
 10
1355.729559903126
 20
1643.592871071957
 30
0.0
  0
VERTEX
  5
4F1
  8
LAYER_05
 10
1367.929602143651
 20
1648.421339441222
 30
0.0
  0
VERTEX
  5
4F2
  8
LAYER_05
 10
1355.729559903127
 20
1653.249807810486
 30
0.0
  0
SEQEND
  5
4F3
  8
LAYER_05
  0
POLYLINE
  5
4F4
  8
LAYER_05
 66
     1
 10
0.0
 20
0.0
 30
0.0
 70
     1
  0
VERTEX
  5
4F5
  8
LAYER_05
 10
1389.229486057858
 20
1683.921282679991
 30
0.0
  0
VERTEX
  5
4F6
  8
LAYER_05
 10
1384.401017688594
 20
1681.921265595953
 30
0.0
  0
VERTEX
  5
4F7
  8
LAYER_05
 10
1389.229486057859
 20
1669.721223355428
 30
0.0
  0
VERTEX
  5
4F8
  8
LAYER_05
 10
1394.057954427124
 20
1681.921265595952
 30
0.0
  0
SEQEND
  5
4F9
  8
LAYER_05
  0
POLYLINE
  5
4FA
  8
LAYER_05
 66
     1
 10
0.0
 20
0.0
 30
0.0
 70
     1
  0
VERTEX
  5
4FB
  8
LAYER_05
 10
1368.95570383125
 20
1621.31907176131
 30
0.0
  0
VERTEX
  5
4FC
  8
LAYER_05
 10
1374.168193703635
 20
1633.360047087
 30
0.0
  0
VERTEX
  5
4FD
  8
LAYER_05
 10
1362.127218377946
 20
1628.147557214614
 30
0.0
  0
VERTEX
  5
4FE
  8
LAYER_05
 10
1364.127235461985
 20
1623.319088845349
 30
0.0
  0
SEQEND
  5
4FF
  8
LAYER_05
  0
POLYLINE
  5
500
  8
LAYER_05
 66
     1
 10
0.0
 20
0.0
 30
0.0
 70
     1
  0
VERTEX
  5
501
  8
LAYER_05
 10
1362.127218377947
 20
1668.695121667829
 30
0.0
  0
VERTEX
  5
502
  8
LAYER_05
 10
1374.168193703636
 20
1663.482631795443
 30
0.0
  0
VERTEX
  5
503
  8
LAYER_05
 10
1368.955703831251
 20
1675.523607121132
 30
0.0
  0
VERTEX
  5
504
  8
LAYER_05
 10
1364.127235461986
 20
1673.523590037093
 30
0.0
  0
SEQEND
  5
505
  8
LAYER_05
  0
POLYLINE
  5
506
  8
LAYER_05
 66
     1
 10
0.0
 20
0.0
 30
0.0
 70
     1
  0
VERTEX
  5
507
  8
LAYER_05
 10
1379.299204456262
 20
1648.421339441221
 30
0.0
  0
VERTEX
  5
508
  8
LAYER_05
 10
1382.207716598278
 20
1645.512827299205
 30
0.0
  0
VERTEX
  5
509
  8
LAYER_05
 10
1382.207716598278
 20
1641.39956998164
 30
0.0
  0
VERTEX
  5
50A
  8
LAYER_05
 10
1386.320973915842
 20
1641.399569981641
 30
0.0
  0
VERTEX
  5
50B
  8
LAYER_05
 10
1389.229486057858
 20
1638.491057839625
 30
0.0
  0
VERTEX
  5
50C
  8
LAYER_05
 10
1392.137998199873
 20
1641.39956998164
 30
0.0
  0
VERTEX
  5
50D
  8
LAYER_05
 10
1396.251255517438
 20
1641.39956998164
 30
0.0
  0
VERTEX
  5
50E
  8
LAYER_05
 10
1396.251255517438
 20
1645.512827299205
 30
0.0
  0
VERTEX
  5
50F
  8
LAYER_05
 10
1399.159767659454
 20
1648.42133944122
 30
0.0
  0
VERTEX
  5
510
  8
LAYER_05
 10
1396.251255517438
 20
1651.329851583236
 30
0.0
  0
VERTEX
  5
511
  8
LAYER_05
 10
1396.251255517438
 20
1655.443108900801
 30
0.0
  0
VERTEX
  5
512
  8
LAYER_05
 10
1392.137998199873
 20
1655.443108900801
 30
0.0
  0
VERTEX
  5
513
  8
LAYER_05
 10
1389.229486057858
 20
1658.351621042817
 30
0.0
  0
VERTEX
  5
514
  8
LAYER_05
 10
1386.320973915843
 20
1655.443108900801
 30
0.0
  0
VERTEX
  5
515
  8
LAYER_05
 10
1382.207716598278
 20
1655.443108900801
 30
0.0
  0
VERTEX
  5
516
  8
LAYER_05
 10
1382.207716598277
 20
1651.329851583236
 30
0.0
  0
SEQEND
  5
517
  8
LAYER_05
  0
POLYLINE
  5
518
  8
LAYER_05
 66
     1
 10
0.0
 20
0.0
 30
0.0
  0
VERTEX
  5
519
  8
LAYER_05
 10
1288.181935320997
 20
1610.341131277458
 30
0.0
  0
VERTEX
  5
51A
  8
LAYER_05
 10
1284.317773483019
 20
1619.670043193909
 30
0.0
  0
VERTEX
  5
51B
  8
LAYER_05
 10
1274.988861566568
 20
1623.534205031887
 30
0.0
  0
SEQEND
  5
51C
  8
LAYER_05
  0
POLYLINE
  5
51D
  8
LAYER_05
 66
     1
 10
0.0
 20
0.0
 30
0.0
  0
VERTEX
  5
51E
  8
LAYER_05
 10
1274.988861566568
 20
1673.308473850555
 30
0.0
  0
VERTEX
  5
51F
  8
LAYER_05
 10
1284.317773483019
 20
1677.172635688533
 30
0.0
  0
VERTEX
  5
520
  8
LAYER_05
 10
1288.181935320997
 20
1686.501547604984
 30
0.0
  0
SEQEND
  5
521
  8
LAYER_05
  0
POLYLINE
  5
522
  8
LAYER_05
 66
     1
 10
0.0
 20
0.0
 30
0.0
  0
VERTEX
  5
523
  8
LAYER_05
 10
1337.956204139665
 20
1686.501547604984
 30
0.0
  0
VERTEX
  5
524
  8
LAYER_05
 10
1341.820365977644
 20
1677.172635688533
 30
0.0
  0
VERTEX
  5
525
  8
LAYER_05
 10
1351.149277894095
 20
1673.308473850555
 30
0.0
  0
SEQEND
  5
526
  8
LAYER_05
  0
POLYLINE
  5
527
  8
LAYER_05
 66
     1
 10
0.0
 20
0.0
 30
0.0
  0
VERTEX
  5
528
  8
LAYER_05
 10
1351.149277894094
 20
1623.534205031887
 30
0.0
  0
VERTEX
  5
529
  8
LAYER_05
 10
1341.820365977643
 20
1619.670043193909
 30
0.0
  0
VERTEX
  5
52A
  8
LAYER_05
 10
1337.956204139665
 20
1610.341131277458
 30
0.0
  0
SEQEND
  5
52B
  8
LAYER_05
  0
POLYLINE
  5
52C
  8
LAYER_05
 66
     1
 10
0.0
 20
0.0
 30
0.0
  0
VERTEX
  5
52D
  8
LAYER_05
 10
1293.342465170982
 20
1610.341131277458
 30
0.0
  0
VERTEX
  5
52E
  8
LAYER_05
 10
1290.547084059452
 20
1617.089778268916
 30
0.0
  0
VERTEX
  5
52F
  8
LAYER_05
 10
1295.306325318996
 20
1615.118435992607
 30
0.0
  0
VERTEX
  5
530
  8
LAYER_05
 10
1304.619401091391
 20
1636.631862076326
 30
0.0
  0
VERTEX
  5
531
  8
LAYER_05
 10
1308.185708312501
 20
1636.631862076325
 30
0.0
  0
VERTEX
  5
532
  8
LAYER_05
 10
1310.707468332341
 20
1634.110102056485
 30
0.0
  0
VERTEX
  5
533
  8
LAYER_05
 10
1302.080517894353
 20
1612.312473553767
 30
0.0
  0
VERTEX
  5
534
  8
LAYER_05
 10
1306.839759153898
 20
1610.341131277458
 30
0.0
  0
SEQEND
  5
535
  8
LAYER_05
  0
POLYLINE
  5
536
  8
LAYER_05
 66
     1
 10
0.0
 20
0.0
 30
0.0
  0
VERTEX
  5
537
  8
LAYER_05
 10
1274.988861566568
 20
1642.19202886479
 30
0.0
  0
VERTEX
  5
538
  8
LAYER_05
 10
1276.960203842877
 20
1637.432787605244
 30
0.0
  0
VERTEX
  5
539
  8
LAYER_05
 10
1298.757832345595
 20
1646.059738043232
 30
0.0
  0
VERTEX
  5
53A
  8
LAYER_05
 10
1301.279592365436
 20
1643.537978023391
 30
0.0
  0
VERTEX
  5
53B
  8
LAYER_05
 10
1301.279592365435
 20
1639.971670802282
 30
0.0
  0
VERTEX
  5
53C
  8
LAYER_05
 10
1279.766166281717
 20
1630.658595029887
 30
0.0
  0
VERTEX
  5
53D
  8
LAYER_05
 10
1281.737508558025
 20
1625.899353770342
 30
0.0
  0
VERTEX
  5
53E
  8
LAYER_05
 10
1274.988861566568
 20
1628.694734881872
 30
0.0
  0
SEQEND
  5
53F
  8
LAYER_05
  0
POLYLINE
  5
540
  8
LAYER_05
 66
     1
 10
0.0
 20
0.0
 30
0.0
  0
VERTEX
  5
541
  8
LAYER_05
 10
1274.988861566568
 20
1668.14794400057
 30
0.0
  0
VERTEX
  5
542
  8
LAYER_05
 10
1281.737508558027
 20
1670.9433251121
 30
0.0
  0
VERTEX
  5
543
  8
LAYER_05
 10
1279.766166281718
 20
1666.184083852556
 30
0.0
  0
VERTEX
  5
544
  8
LAYER_05
 10
1301.279592365436
 20
1656.87100808016
 30
0.0
  0
VERTEX
  5
545
  8
LAYER_05
 10
1301.279592365436
 20
1653.304700859051
 30
0.0
  0
VERTEX
  5
546
  8
LAYER_05
 10
1298.757832345596
 20
1650.782940839211
 30
0.0
  0
VERTEX
  5
547
  8
LAYER_05
 10
1276.960203842877
 20
1659.409891277199
 30
0.0
  0
VERTEX
  5
548
  8
LAYER_05
 10
1274.988861566568
 20
1654.650650017652
 30
0.0
  0
SEQEND
  5
549
  8
LAYER_05
  0
POLYLINE
  5
54A
  8
LAYER_05
 66
     1
 10
0.0
 20
0.0
 30
0.0
  0
VERTEX
  5
54B
  8
LAYER_05
 10
1306.839759153899
 20
1686.501547604984
 30
0.0
  0
VERTEX
  5
54C
  8
LAYER_05
 10
1302.080517894354
 20
1684.530205328675
 30
0.0
  0
VERTEX
  5
54D
  8
LAYER_05
 10
1310.707468332342
 20
1662.732576825957
 30
0.0
  0
VERTEX
  5
54E
  8
LAYER_05
 10
1308.185708312502
 20
1660.210816806116
 30
0.0
  0
VERTEX
  5
54F
  8
LAYER_05
 10
1304.619401091393
 20
1660.210816806116
 30
0.0
  0
VERTEX
  5
550
  8
LAYER_05
 10
1295.306325318997
 20
1681.724242889835
 30
0.0
  0
VERTEX
  5
551
  8
LAYER_05
 10
1290.547084059452
 20
1679.752900613526
 30
0.0
  0
VERTEX
  5
552
  8
LAYER_05
 10
1293.342465170982
 20
1686.501547604984
 30
0.0
  0
SEQEND
  5
553
  8
LAYER_05
  0
POLYLINE
  5
554
  8
LAYER_05
 66
     1
 10
0.0
 20
0.0
 30
0.0
  0
VERTEX
  5
555
  8
LAYER_05
 10
1332.79567428968
 20
1686.501547604984
 30
0.0
  0
VERTEX
  5
556
  8
LAYER_05
 10
1335.591055401211
 20
1679.752900613526
 30
0.0
  0
VERTEX
  5
557
  8
LAYER_05
 10
1330.831814141667
 20
1681.724242889834
 30
0.0
  0
VERTEX
  5
558
  8
LAYER_05
 10
1321.518738369271
 20
1660.210816806116
 30
0.0
  0
VERTEX
  5
559
  8
LAYER_05
 10
1317.952431148162
 20
1660.210816806116
 30
0.0
  0
VERTEX
  5
55A
  8
LAYER_05
 10
1315.430671128321
 20
1662.732576825957
 30
0.0
  0
VERTEX
  5
55B
  8
LAYER_05
 10
1324.057621566309
 20
1684.530205328675
 30
0.0
  0
VERTEX
  5
55C
  8
LAYER_05
 10
1319.298380306763
 20
1686.501547604984
 30
0.0
  0
SEQEND
  5
55D
  8
LAYER_05
  0
POLYLINE
  5
55E
  8
LAYER_05
 66
     1
 10
0.0
 20
0.0
 30
0.0
  0
VERTEX
  5
55F
  8
LAYER_05
 10
1351.149277894095
 20
1654.650650017652
 30
0.0
  0
VERTEX
  5
560
  8
LAYER_05
 10
1349.177935617785
 20
1659.409891277198
 30
0.0
  0
VERTEX
  5
561
  8
LAYER_05
 10
1327.380307115067
 20
1650.78294083921
 30
0.0
  0
VERTEX
  5
562
  8
LAYER_05
 10
1324.858547095226
 20
1653.304700859051
 30
0.0
  0
VERTEX
  5
563
  8
LAYER_05
 10
1324.858547095227
 20
1656.871008080159
 30
0.0
  0
VERTEX
  5
564
  8
LAYER_05
 10
1346.371973178946
 20
1666.184083852555
 30
0.0
  0
VERTEX
  5
565
  8
LAYER_05
 10
1344.400630902636
 20
1670.9433251121
 30
0.0
  0
VERTEX
  5
566
  8
LAYER_05
 10
1351.149277894095
 20
1668.14794400057
 30
0.0
  0
SEQEND
  5
567
  8
LAYER_05
  0
POLYLINE
  5
568
  8
LAYER_05
 66
     1
 10
0.0
 20
0.0
 30
0.0
  0
VERTEX
  5
569
  8
LAYER_05
 10
1351.149277894094
 20
1628.694734881872
 30
0.0
  0
VERTEX
  5
56A
  8
LAYER_05
 10
1344.400630902636
 20
1625.899353770341
 30
0.0
  0
VERTEX
  5
56B
  8
LAYER_05
 10
1346.371973178944
 20
1630.658595029885
 30
0.0
  0
VERTEX
  5
56C
  8
LAYER_05
 10
1324.858547095226
 20
1639.971670802281
 30
0.0
  0
VERTEX
  5
56D
  8
LAYER_05
 10
1324.858547095226
 20
1643.53797802339
 30
0.0
  0
VERTEX
  5
56E
  8
LAYER_05
 10
1327.380307115067
 20
1646.059738043231
 30
0.0
  0
VERTEX
  5
56F
  8
LAYER_05
 10
1349.177935617785
 20
1637.432787605243
 30
0.0
  0
VERTEX
  5
570
  8
LAYER_05
 10
1351.149277894095
 20
1642.192028864789
 30
0.0
  0
SEQEND
  5
571
  8
LAYER_05
  0
POLYLINE
  5
572
  8
LAYER_05
 66
     1
 10
0.0
 20
0.0
 30
0.0
  0
VERTEX
  5
573
  8
LAYER_05
 10
1319.298380306764
 20
1610.341131277458
 30
0.0
  0
VERTEX
  5
574
  8
LAYER_05
 10
1324.057621566308
 20
1612.312473553767
 30
0.0
  0
VERTEX
  5
575
  8
LAYER_05
 10
1315.43067112832
 20
1634.110102056485
 30
0.0
  0
VERTEX
  5
576
  8
LAYER_05
 10
1317.952431148162
 20
1636.631862076326
 30
0.0
  0
VERTEX
  5
577
  8
LAYER_05
 10
1321.51873836927
 20
1636.631862076325
 30
0.0
  0
VERTEX
  5
578
  8
LAYER_05
 10
1330.831814141666
 20
1615.118435992607
 30
0.0
  0
VERTEX
  5
579
  8
LAYER_05
 10
1335.591055401211
 20
1617.089778268916
 30
0.0
  0
VERTEX
  5
57A
  8
LAYER_05
 10
1332.79567428968
 20
1610.341131277458
 30
0.0
  0
SEQEND
  5
57B
  8
LAYER_05
  0
POLYLINE
  5
57C
  8
LAYER_05
 66
     1
 10
0.0
 20
0.0
 30
0.0
 70
     1
  0
VERTEX
  5
57D
  8
LAYER_05
 10
1333.342851956939
 20
1675.523607121132
 30
0.0
  0
VERTEX
  5
57E
  8
LAYER_05
 10
1328.130362084554
 20
1663.482631795442
 30
0.0
  0
VERTEX
  5
57F
  8
LAYER_05
 10
1340.171337410243
 20
1668.695121667828
 30
0.0
  0
VERTEX
  5
580
  8
LAYER_05
 10
1338.171320326203
 20
1673.523590037093
 30
0.0
  0
SEQEND
  5
581
  8
LAYER_05
  0
POLYLINE
  5
582
  8
LAYER_05
 66
     1
 10
0.0
 20
0.0
 30
0.0
 70
     1
  0
VERTEX
  5
583
  8
LAYER_05
 10
1348.569012969102
 20
1648.421339441221
 30
0.0
  0
VERTEX
  5
584
  8
LAYER_05
 10
1346.568995885063
 20
1653.249807810485
 30
0.0
  0
VERTEX
  5
585
  8
LAYER_05
 10
1334.368953644538
 20
1648.42133944122
 30
0.0
  0
VERTEX
  5
586
  8
LAYER_05
 10
1346.568995885062
 20
1643.592871071955
 30
0.0
  0
SEQEND
  5
587
  8
LAYER_05
  0
POLYLINE
  5
588
  8
LAYER_05
 66
     1
 10
0.0
 20
0.0
 30
0.0
 70
     1
  0
VERTEX
  5
589
  8
LAYER_05
 10
1338.171320326203
 20
1623.319088845349
 30
0.0
  0
VERTEX
  5
58A
  8
LAYER_05
 10
1340.171337410242
 20
1628.147557214613
 30
0.0
  0
VERTEX
  5
58B
  8
LAYER_05
 10
1328.130362084553
 20
1633.360047086998
 30
0.0
  0
VERTEX
  5
58C
  8
LAYER_05
 10
1333.342851956938
 20
1621.31907176131
 30
0.0
  0
SEQEND
  5
58D
  8
LAYER_05
  0
POLYLINE
  5
58E
  8
LAYER_05
 66
     1
 10
0.0
 20
0.0
 30
0.0
 70
     1
  0
VERTEX
  5
58F
  8
LAYER_05
 10
1313.069069730331
 20
1612.92139620245
 30
0.0
  0
VERTEX
  5
590
  8
LAYER_05
 10
1317.897538099596
 20
1614.921413286489
 30
0.0
  0
VERTEX
  5
591
  8
LAYER_05
 10
1313.069069730331
 20
1627.121455527014
 30
0.0
  0
VERTEX
  5
592
  8
LAYER_05
 10
1308.240601361066
 20
1614.92141328649
 30
0.0
  0
SEQEND
  5
593
  8
LAYER_05
  0
POLYLINE
  5
594
  8
LAYER_05
 66
     1
 10
0.0
 20
0.0
 30
0.0
 70
     1
  0
VERTEX
  5
595
  8
LAYER_05
 10
1277.569126491561
 20
1648.421339441221
 30
0.0
  0
VERTEX
  5
596
  8
LAYER_05
 10
1279.569143575599
 20
1643.592871071957
 30
0.0
  0
VERTEX
  5
597
  8
LAYER_05
 10
1291.769185816124
 20
1648.421339441222
 30
0.0
  0
VERTEX
  5
598
  8
LAYER_05
 10
1279.5691435756
 20
1653.249807810486
 30
0.0
  0
SEQEND
  5
599
  8
LAYER_05
  0
POLYLINE
  5
59A
  8
LAYER_05
 66
     1
 10
0.0
 20
0.0
 30
0.0
 70
     1
  0
VERTEX
  5
59B
  8
LAYER_05
 10
1313.069069730331
 20
1683.921282679991
 30
0.0
  0
VERTEX
  5
59C
  8
LAYER_05
 10
1308.240601361067
 20
1681.921265595953
 30
0.0
  0
VERTEX
  5
59D
  8
LAYER_05
 10
1313.069069730332
 20
1669.721223355428
 30
0.0
  0
VERTEX
  5
59E
  8
LAYER_05
 10
1317.897538099597
 20
1681.921265595952
 30
0.0
  0
SEQEND
  5
59F
  8
LAYER_05
  0
POLYLINE
  5
5A0
  8
LAYER_05
 66
     1
 10
0.0
 20
0.0
 30
0.0
 70
     1
  0
VERTEX
  5
5A1
  8
LAYER_05
 10
1292.795287503723
 20
1621.31907176131
 30
0.0
  0
VERTEX
  5
5A2
  8
LAYER_05
 10
1298.007777376108
 20
1633.360047087
 30
0.0
  0
VERTEX
  5
5A3
  8
LAYER_05
 10
1285.966802050419
 20
1628.147557214614
 30
0.0
  0
VERTEX
  5
5A4
  8
LAYER_05
 10
1287.966819134459
 20
1623.319088845349
 30
0.0
  0
SEQEND
  5
5A5
  8
LAYER_05
  0
POLYLINE
  5
5A6
  8
LAYER_05
 66
     1
 10
0.0
 20
0.0
 30
0.0
 70
     1
  0
VERTEX
  5
5A7
  8
LAYER_05
 10
1285.96680205042
 20
1668.695121667829
 30
0.0
  0
VERTEX
  5
5A8
  8
LAYER_05
 10
1298.00777737611
 20
1663.482631795443
 30
0.0
  0
VERTEX
  5
5A9
  8
LAYER_05
 10
1292.795287503725
 20
1675.523607121132
 30
0.0
  0
VERTEX
  5
5AA
  8
LAYER_05
 10
1287.966819134459
 20
1673.523590037093
 30
0.0
  0
SEQEND
  5
5AB
  8
LAYER_05
  0
POLYLINE
  5
5AC
  8
LAYER_05
 66
     1
 10
0.0
 20
0.0
 30
0.0
 70
     1
  0
VERTEX
  5
5AD
  8
LAYER_05
 10
1303.138788128736
 20
1648.421339441221
 30
0.0
  0
VERTEX
  5
5AE
  8
LAYER_05
 10
1306.047300270751
 20
1645.512827299205
 30
0.0
  0
VERTEX
  5
5AF
  8
LAYER_05
 10
1306.047300270751
 20
1641.39956998164
 30
0.0
  0
VERTEX
  5
5B0
  8
LAYER_05
 10
1310.160557588316
 20
1641.399569981641
 30
0.0
  0
VERTEX
  5
5B1
  8
LAYER_05
 10
1313.069069730331
 20
1638.491057839625
 30
0.0
  0
VERTEX
  5
5B2
  8
LAYER_05
 10
1315.977581872347
 20
1641.39956998164
 30
0.0
  0
VERTEX
  5
5B3
  8
LAYER_05
 10
1320.090839189912
 20
1641.39956998164
 30
0.0
  0
VERTEX
  5
5B4
  8
LAYER_05
 10
1320.090839189912
 20
1645.512827299205
 30
0.0
  0
VERTEX
  5
5B5
  8
LAYER_05
 10
1322.999351331927
 20
1648.42133944122
 30
0.0
  0
VERTEX
  5
5B6
  8
LAYER_05
 10
1320.090839189912
 20
1651.329851583236
 30
0.0
  0
VERTEX
  5
5B7
  8
LAYER_05
 10
1320.090839189912
 20
1655.443108900801
 30
0.0
  0
VERTEX
  5
5B8
  8
LAYER_05
 10
1315.977581872347
 20
1655.443108900801
 30
0.0
  0
VERTEX
  5
5B9
  8
LAYER_05
 10
1313.069069730332
 20
1658.351621042817
 30
0.0
  0
VERTEX
  5
5BA
  8
LAYER_05
 10
1310.160557588316
 20
1655.443108900801
 30
0.0
  0
VERTEX
  5
5BB
  8
LAYER_05
 10
1306.047300270751
 20
1655.443108900801
 30
0.0
  0
VERTEX
  5
5BC
  8
LAYER_05
 10
1306.047300270751
 20
1651.329851583236
 30
0.0
  0
SEQEND
  5
5BD
  8
LAYER_05
  0
POLYLINE
  5
5BE
  8
LAYER_05
 66
     1
 10
0.0
 20
0.0
 30
0.0
  0
VERTEX
  5
5BF
  8
LAYER_05
 10
1212.021518993471
 20
1610.341131277458
 30
0.0
  0
VERTEX
  5
5C0
  8
LAYER_05
 10
1208.157357155492
 20
1619.670043193909
 30
0.0
  0
VERTEX
  5
5C1
  8
LAYER_05
 10
1198.828445239041
 20
1623.534205031887
 30
0.0
  0
SEQEND
  5
5C2
  8
LAYER_05
  0
POLYLINE
  5
5C3
  8
LAYER_05
 66
     1
 10
0.0
 20
0.0
 30
0.0
  0
VERTEX
  5
5C4
  8
LAYER_05
 10
1198.828445239041
 20
1673.308473850555
 30
0.0
  0
VERTEX
  5
5C5
  8
LAYER_05
 10
1208.157357155492
 20
1677.172635688533
 30
0.0
  0
VERTEX
  5
5C6
  8
LAYER_05
 10
1212.021518993471
 20
1686.501547604984
 30
0.0
  0
SEQEND
  5
5C7
  8
LAYER_05
  0
POLYLINE
  5
5C8
  8
LAYER_05
 66
     1
 10
0.0
 20
0.0
 30
0.0
  0
VERTEX
  5
5C9
  8
LAYER_05
 10
1261.795787812139
 20
1686.501547604984
 30
0.0
  0
VERTEX
  5
5CA
  8
LAYER_05
 10
1265.659949650117
 20
1677.172635688533
 30
0.0
  0
VERTEX
  5
5CB
  8
LAYER_05
 10
1274.988861566568
 20
1673.308473850555
 30
0.0
  0
SEQEND
  5
5CC
  8
LAYER_05
  0
POLYLINE
  5
5CD
  8
LAYER_05
 66
     1
 10
0.0
 20
0.0
 30
0.0
  0
VERTEX
  5
5CE
  8
LAYER_05
 10
1274.988861566568
 20
1623.534205031887
 30
0.0
  0
VERTEX
  5
5CF
  8
LAYER_05
 10
1265.659949650117
 20
1619.670043193909
 30
0.0
  0
VERTEX
  5
5D0
  8
LAYER_05
 10
1261.795787812138
 20
1610.341131277458
 30
0.0
  0
SEQEND
  5
5D1
  8
LAYER_05
  0
POLYLINE
  5
5D2
  8
LAYER_05
 66
     1
 10
0.0
 20
0.0
 30
0.0
  0
VERTEX
  5
5D3
  8
LAYER_05
 10
1217.182048843456
 20
1610.341131277458
 30
0.0
  0
VERTEX
  5
5D4
  8
LAYER_05
 10
1214.386667731925
 20
1617.089778268916
 30
0.0
  0
VERTEX
  5
5D5
  8
LAYER_05
 10
1219.145908991469
 20
1615.118435992607
 30
0.0
  0
VERTEX
  5
5D6
  8
LAYER_05
 10
1228.458984763864
 20
1636.631862076326
 30
0.0
  0
VERTEX
  5
5D7
  8
LAYER_05
 10
1232.025291984974
 20
1636.631862076325
 30
0.0
  0
VERTEX
  5
5D8
  8
LAYER_05
 10
1234.547052004814
 20
1634.110102056485
 30
0.0
  0
VERTEX
  5
5D9
  8
LAYER_05
 10
1225.920101566826
 20
1612.312473553767
 30
0.0
  0
VERTEX
  5
5DA
  8
LAYER_05
 10
1230.679342826372
 20
1610.341131277458
 30
0.0
  0
SEQEND
  5
5DB
  8
LAYER_05
  0
POLYLINE
  5
5DC
  8
LAYER_05
 66
     1
 10
0.0
 20
0.0
 30
0.0
  0
VERTEX
  5
5DD
  8
LAYER_05
 10
1198.828445239041
 20
1642.19202886479
 30
0.0
  0
VERTEX
  5
5DE
  8
LAYER_05
 10
1200.799787515351
 20
1637.432787605244
 30
0.0
  0
VERTEX
  5
5DF
  8
LAYER_05
 10
1222.597416018069
 20
1646.059738043232
 30
0.0
  0
VERTEX
  5
5E0
  8
LAYER_05
 10
1225.119176037909
 20
1643.537978023391
 30
0.0
  0
VERTEX
  5
5E1
  8
LAYER_05
 10
1225.119176037908
 20
1639.971670802282
 30
0.0
  0
VERTEX
  5
5E2
  8
LAYER_05
 10
1203.60574995419
 20
1630.658595029887
 30
0.0
  0
VERTEX
  5
5E3
  8
LAYER_05
 10
1205.577092230499
 20
1625.899353770342
 30
0.0
  0
VERTEX
  5
5E4
  8
LAYER_05
 10
1198.828445239041
 20
1628.694734881872
 30
0.0
  0
SEQEND
  5
5E5
  8
LAYER_05
  0
POLYLINE
  5
5E6
  8
LAYER_05
 66
     1
 10
0.0
 20
0.0
 30
0.0
  0
VERTEX
  5
5E7
  8
LAYER_05
 10
1198.828445239041
 20
1668.14794400057
 30
0.0
  0
VERTEX
  5
5E8
  8
LAYER_05
 10
1205.5770922305
 20
1670.9433251121
 30
0.0
  0
VERTEX
  5
5E9
  8
LAYER_05
 10
1203.605749954191
 20
1666.184083852556
 30
0.0
  0
VERTEX
  5
5EA
  8
LAYER_05
 10
1225.11917603791
 20
1656.87100808016
 30
0.0
  0
VERTEX
  5
5EB
  8
LAYER_05
 10
1225.119176037909
 20
1653.304700859051
 30
0.0
  0
VERTEX
  5
5EC
  8
LAYER_05
 10
1222.597416018069
 20
1650.782940839211
 30
0.0
  0
VERTEX
  5
5ED
  8
LAYER_05
 10
1200.799787515351
 20
1659.409891277199
 30
0.0
  0
VERTEX
  5
5EE
  8
LAYER_05
 10
1198.828445239041
 20
1654.650650017652
 30
0.0
  0
SEQEND
  5
5EF
  8
LAYER_05
  0
POLYLINE
  5
5F0
  8
LAYER_05
 66
     1
 10
0.0
 20
0.0
 30
0.0
  0
VERTEX
  5
5F1
  8
LAYER_05
 10
1230.679342826373
 20
1686.501547604984
 30
0.0
  0
VERTEX
  5
5F2
  8
LAYER_05
 10
1225.920101566828
 20
1684.530205328675
 30
0.0
  0
VERTEX
  5
5F3
  8
LAYER_05
 10
1234.547052004816
 20
1662.732576825957
 30
0.0
  0
VERTEX
  5
5F4
  8
LAYER_05
 10
1232.025291984975
 20
1660.210816806116
 30
0.0
  0
VERTEX
  5
5F5
  8
LAYER_05
 10
1228.458984763866
 20
1660.210816806116
 30
0.0
  0
VERTEX
  5
5F6
  8
LAYER_05
 10
1219.14590899147
 20
1681.724242889835
 30
0.0
  0
VERTEX
  5
5F7
  8
LAYER_05
 10
1214.386667731925
 20
1679.752900613526
 30
0.0
  0
VERTEX
  5
5F8
  8
LAYER_05
 10
1217.182048843456
 20
1686.501547604984
 30
0.0
  0
SEQEND
  5
5F9
  8
LAYER_05
  0
POLYLINE
  5
5FA
  8
LAYER_05
 66
     1
 10
0.0
 20
0.0
 30
0.0
  0
VERTEX
  5
5FB
  8
LAYER_05
 10
1256.635257962154
 20
1686.501547604984
 30
0.0
  0
VERTEX
  5
5FC
  8
LAYER_05
 10
1259.430639073684
 20
1679.752900613526
 30
0.0
  0
VERTEX
  5
5FD
  8
LAYER_05
 10
1254.67139781414
 20
1681.724242889834
 30
0.0
  0
VERTEX
  5
5FE
  8
LAYER_05
 10
1245.358322041744
 20
1660.210816806116
 30
0.0
  0
VERTEX
  5
5FF
  8
LAYER_05
 10
1241.792014820635
 20
1660.210816806116
 30
0.0
  0
VERTEX
  5
600
  8
LAYER_05
 10
1239.270254800795
 20
1662.732576825957
 30
0.0
  0
VERTEX
  5
601
  8
LAYER_05
 10
1247.897205238783
 20
1684.530205328675
 30
0.0
  0
VERTEX
  5
602
  8
LAYER_05
 10
1243.137963979237
 20
1686.501547604984
 30
0.0
  0
SEQEND
  5
603
  8
LAYER_05
  0
POLYLINE
  5
604
  8
LAYER_05
 66
     1
 10
0.0
 20
0.0
 30
0.0
  0
VERTEX
  5
605
  8
LAYER_05
 10
1274.988861566568
 20
1654.650650017652
 30
0.0
  0
VERTEX
  5
606
  8
LAYER_05
 10
1273.017519290259
 20
1659.409891277198
 30
0.0
  0
VERTEX
  5
607
  8
LAYER_05
 10
1251.21989078754
 20
1650.78294083921
 30
0.0
  0
VERTEX
  5
608
  8
LAYER_05
 10
1248.6981307677
 20
1653.304700859051
 30
0.0
  0
VERTEX
  5
609
  8
LAYER_05
 10
1248.6981307677
 20
1656.871008080159
 30
0.0
  0
VERTEX
  5
60A
  8
LAYER_05
 10
1270.211556851419
 20
1666.184083852555
 30
0.0
  0
VERTEX
  5
60B
  8
LAYER_05
 10
1268.240214575109
 20
1670.9433251121
 30
0.0
  0
VERTEX
  5
60C
  8
LAYER_05
 10
1274.988861566568
 20
1668.14794400057
 30
0.0
  0
SEQEND
  5
60D
  8
LAYER_05
  0
POLYLINE
  5
60E
  8
LAYER_05
 66
     1
 10
0.0
 20
0.0
 30
0.0
  0
VERTEX
  5
60F
  8
LAYER_05
 10
1274.988861566568
 20
1628.694734881872
 30
0.0
  0
VERTEX
  5
610
  8
LAYER_05
 10
1268.240214575109
 20
1625.899353770341
 30
0.0
  0
VERTEX
  5
611
  8
LAYER_05
 10
1270.211556851418
 20
1630.658595029885
 30
0.0
  0
VERTEX
  5
612
  8
LAYER_05
 10
1248.698130767699
 20
1639.971670802281
 30
0.0
  0
VERTEX
  5
613
  8
LAYER_05
 10
1248.6981307677
 20
1643.53797802339
 30
0.0
  0
VERTEX
  5
614
  8
LAYER_05
 10
1251.21989078754
 20
1646.059738043231
 30
0.0
  0
VERTEX
  5
615
  8
LAYER_05
 10
1273.017519290258
 20
1637.432787605243
 30
0.0
  0
VERTEX
  5
616
  8
LAYER_05
 10
1274.988861566568
 20
1642.192028864789
 30
0.0
  0
SEQEND
  5
617
  8
LAYER_05
  0
POLYLINE
  5
618
  8
LAYER_05
 66
     1
 10
0.0
 20
0.0
 30
0.0
  0
VERTEX
  5
619
  8
LAYER_05
 10
1243.137963979237
 20
1610.341131277458
 30
0.0
  0
VERTEX
  5
61A
  8
LAYER_05
 10
1247.897205238781
 20
1612.312473553767
 30
0.0
  0
VERTEX
  5
61B
  8
LAYER_05
 10
1239.270254800794
 20
1634.110102056485
 30
0.0
  0
VERTEX
  5
61C
  8
LAYER_05
 10
1241.792014820635
 20
1636.631862076326
 30
0.0
  0
VERTEX
  5
61D
  8
LAYER_05
 10
1245.358322041743
 20
1636.631862076325
 30
0.0
  0
VERTEX
  5
61E
  8
LAYER_05
 10
1254.671397814139
 20
1615.118435992607
 30
0.0
  0
VERTEX
  5
61F
  8
LAYER_05
 10
1259.430639073684
 20
1617.089778268916
 30
0.0
  0
VERTEX
  5
620
  8
LAYER_05
 10
1256.635257962153
 20
1610.341131277458
 30
0.0
  0
SEQEND
  5
621
  8
LAYER_05
  0
POLYLINE
  5
622
  8
LAYER_05
 66
     1
 10
0.0
 20
0.0
 30
0.0
 70
     1
  0
VERTEX
  5
623
  8
LAYER_05
 10
1257.182435629412
 20
1675.523607121132
 30
0.0
  0
VERTEX
  5
624
  8
LAYER_05
 10
1251.969945757027
 20
1663.482631795442
 30
0.0
  0
VERTEX
  5
625
  8
LAYER_05
 10
1264.010921082716
 20
1668.695121667828
 30
0.0
  0
VERTEX
  5
626
  8
LAYER_05
 10
1262.010903998677
 20
1673.523590037093
 30
0.0
  0
SEQEND
  5
627
  8
LAYER_05
  0
POLYLINE
  5
628
  8
LAYER_05
 66
     1
 10
0.0
 20
0.0
 30
0.0
 70
     1
  0
VERTEX
  5
629
  8
LAYER_05
 10
1272.408596641575
 20
1648.421339441221
 30
0.0
  0
VERTEX
  5
62A
  8
LAYER_05
 10
1270.408579557537
 20
1653.249807810485
 30
0.0
  0
VERTEX
  5
62B
  8
LAYER_05
 10
1258.208537317011
 20
1648.42133944122
 30
0.0
  0
VERTEX
  5
62C
  8
LAYER_05
 10
1270.408579557536
 20
1643.592871071955
 30
0.0
  0
SEQEND
  5
62D
  8
LAYER_05
  0
POLYLINE
  5
62E
  8
LAYER_05
 66
     1
 10
0.0
 20
0.0
 30
0.0
 70
     1
  0
VERTEX
  5
62F
  8
LAYER_05
 10
1262.010903998677
 20
1623.319088845349
 30
0.0
  0
VERTEX
  5
630
  8
LAYER_05
 10
1264.010921082716
 20
1628.147557214613
 30
0.0
  0
VERTEX
  5
631
  8
LAYER_05
 10
1251.969945757026
 20
1633.360047086998
 30
0.0
  0
VERTEX
  5
632
  8
LAYER_05
 10
1257.182435629411
 20
1621.31907176131
 30
0.0
  0
SEQEND
  5
633
  8
LAYER_05
  0
POLYLINE
  5
634
  8
LAYER_05
 66
     1
 10
0.0
 20
0.0
 30
0.0
 70
     1
  0
VERTEX
  5
635
  8
LAYER_05
 10
1236.908653402804
 20
1612.92139620245
 30
0.0
  0
VERTEX
  5
636
  8
LAYER_05
 10
1241.737121772069
 20
1614.921413286489
 30
0.0
  0
VERTEX
  5
637
  8
LAYER_05
 10
1236.908653402804
 20
1627.121455527014
 30
0.0
  0
VERTEX
  5
638
  8
LAYER_05
 10
1232.080185033539
 20
1614.92141328649
 30
0.0
  0
SEQEND
  5
639
  8
LAYER_05
  0
POLYLINE
  5
63A
  8
LAYER_05
 66
     1
 10
0.0
 20
0.0
 30
0.0
 70
     1
  0
VERTEX
  5
63B
  8
LAYER_05
 10
1201.408710164034
 20
1648.421339441221
 30
0.0
  0
VERTEX
  5
63C
  8
LAYER_05
 10
1203.408727248073
 20
1643.592871071957
 30
0.0
  0
VERTEX
  5
63D
  8
LAYER_05
 10
1215.608769488598
 20
1648.421339441222
 30
0.0
  0
VERTEX
  5
63E
  8
LAYER_05
 10
1203.408727248074
 20
1653.249807810486
 30
0.0
  0
SEQEND
  5
63F
  8
LAYER_05
  0
POLYLINE
  5
640
  8
LAYER_05
 66
     1
 10
0.0
 20
0.0
 30
0.0
 70
     1
  0
VERTEX
  5
641
  8
LAYER_05
 10
1236.908653402804
 20
1683.921282679991
 30
0.0
  0
VERTEX
  5
642
  8
LAYER_05
 10
1232.08018503354
 20
1681.921265595953
 30
0.0
  0
VERTEX
  5
643
  8
LAYER_05
 10
1236.908653402805
 20
1669.721223355428
 30
0.0
  0
VERTEX
  5
644
  8
LAYER_05
 10
1241.73712177207
 20
1681.921265595952
 30
0.0
  0
SEQEND
  5
645
  8
LAYER_05
  0
POLYLINE
  5
646
  8
LAYER_05
 66
     1
 10
0.0
 20
0.0
 30
0.0
 70
     1
  0
VERTEX
  5
647
  8
LAYER_05
 10
1216.634871176196
 20
1621.31907176131
 30
0.0
  0
VERTEX
  5
648
  8
LAYER_05
 10
1221.847361048582
 20
1633.360047087
 30
0.0
  0
VERTEX
  5
649
  8
LAYER_05
 10
1209.806385722893
 20
1628.147557214614
 30
0.0
  0
VERTEX
  5
64A
  8
LAYER_05
 10
1211.806402806932
 20
1623.319088845349
 30
0.0
  0
SEQEND
  5
64B
  8
LAYER_05
  0
POLYLINE
  5
64C
  8
LAYER_05
 66
     1
 10
0.0
 20
0.0
 30
0.0
 70
     1
  0
VERTEX
  5
64D
  8
LAYER_05
 10
1209.806385722894
 20
1668.695121667829
 30
0.0
  0
VERTEX
  5
64E
  8
LAYER_05
 10
1221.847361048583
 20
1663.482631795443
 30
0.0
  0
VERTEX
  5
64F
  8
LAYER_05
 10
1216.634871176198
 20
1675.523607121132
 30
0.0
  0
VERTEX
  5
650
  8
LAYER_05
 10
1211.806402806933
 20
1673.523590037093
 30
0.0
  0
SEQEND
  5
651
  8
LAYER_05
  0
POLYLINE
  5
652
  8
LAYER_05
 66
     1
 10
0.0
 20
0.0
 30
0.0
 70
     1
  0
VERTEX
  5
653
  8
LAYER_05
 10
1226.978371801209
 20
1648.421339441221
 30
0.0
  0
VERTEX
  5
654
  8
LAYER_05
 10
1229.886883943224
 20
1645.512827299205
 30
0.0
  0
VERTEX
  5
655
  8
LAYER_05
 10
1229.886883943224
 20
1641.39956998164
 30
0.0
  0
VERTEX
  5
656
  8
LAYER_05
 10
1234.000141260789
 20
1641.399569981641
 30
0.0
  0
VERTEX
  5
657
  8
LAYER_05
 10
1236.908653402804
 20
1638.491057839625
 30
0.0
  0
VERTEX
  5
658
  8
LAYER_05
 10
1239.81716554482
 20
1641.39956998164
 30
0.0
  0
VERTEX
  5
659
  8
LAYER_05
 10
1243.930422862385
 20
1641.39956998164
 30
0.0
  0
VERTEX
  5
65A
  8
LAYER_05
 10
1243.930422862385
 20
1645.512827299205
 30
0.0
  0
VERTEX
  5
65B
  8
LAYER_05
 10
1246.838935004401
 20
1648.42133944122
 30
0.0
  0
VERTEX
  5
65C
  8
LAYER_05
 10
1243.930422862385
 20
1651.329851583236
 30
0.0
  0
VERTEX
  5
65D
  8
LAYER_05
 10
1243.930422862385
 20
1655.443108900801
 30
0.0
  0
VERTEX
  5
65E
  8
LAYER_05
 10
1239.81716554482
 20
1655.443108900801
 30
0.0
  0
VERTEX
  5
65F
  8
LAYER_05
 10
1236.908653402805
 20
1658.351621042817
 30
0.0
  0
VERTEX
  5
660
  8
LAYER_05
 10
1234.000141260789
 20
1655.443108900801
 30
0.0
  0
VERTEX
  5
661
  8
LAYER_05
 10
1229.886883943224
 20
1655.443108900801
 30
0.0
  0
VERTEX
  5
662
  8
LAYER_05
 10
1229.886883943224
 20
1651.329851583236
 30
0.0
  0
SEQEND
  5
663
  8
LAYER_05
  0
ENDSEC
  0
EOF
