  0
SECTION
  2
HEADER
  9
$ACADVER
  1
AC1009
  9
$DWGCODEPAGE
  3
ansi_1252
  9
$INSBASE
 10
0.0
 20
0.0
 30
0.0
  9
$EXTMIN
 10
1.000000000000000E+20
 20
1.000000000000000E+20
 30
1.000000000000000E+20
  9
$EXTMAX
 10
-1.000000000000000E+20
 20
-1.000000000000000E+20
 30
-1.000000000000000E+20
  9
$LIMMIN
 10
0.0
 20
0.0
  9
$LIMMAX
 10
12.0
 20
9.0
  9
$ORTHOMODE
 70
     0
  9
$REGENMODE
 70
     1
  9
$FILLMODE
 70
     1
  9
$QTEXTMODE
 70
     0
  9
$MIRRTEXT
 70
     1
  9
$DRAGMODE
 70
     2
  9
$LTSCALE
 40
1.0
  9
$OSMODE
 70
    37
  9
$ATTMODE
 70
     1
  9
$TEXTSIZE
 40
0.2
  9
$TRACEWID
 40
0.05
  9
$TEXTSTYLE
  7
STANDARD
  9
$CLAYER
  8
LAYER_01
  9
$CELTYPE
  6
BYLAYER
  9
$CECOLOR
 62
   256
  9
$DIMSCALE
 40
1.0
  9
$DIMASZ
 40
0.18
  9
$DIMEXO
 40
0.0625
  9
$DIMDLI
 40
0.38
  9
$DIMRND
 40
0.0
  9
$DIMDLE
 40
0.0
  9
$DIMEXE
 40
0.18
  9
$DIMTP
 40
0.0
  9
$DIMTM
 40
0.0
  9
$DIMTXT
 40
0.18
  9
$DIMCEN
 40
0.09
  9
$DIMTSZ
 40
0.0
  9
$DIMTOL
 70
     0
  9
$DIMLIM
 70
     0
  9
$DIMTIH
 70
     1
  9
$DIMTOH
 70
     1
  9
$DIMSE1
 70
     0
  9
$DIMSE2
 70
     0
  9
$DIMTAD
 70
     0
  9
$DIMZIN
 70
     0
  9
$DIMBLK
  1

  9
$DIMASO
 70
     1
  9
$DIMSHO
 70
     1
  9
$DIMPOST
  1

  9
$DIMAPOST
  1

  9
$DIMALT
 70
     0
  9
$DIMALTD
 70
     2
  9
$DIMALTF
 40
25.4
  9
$DIMLFAC
 40
1.0
  9
$DIMTOFL
 70
     0
  9
$DIMTVP
 40
0.0
  9
$DIMTIX
 70
     0
  9
$DIMSOXD
 70
     0
  9
$DIMSAH
 70
     0
  9
$DIMBLK1
  1

  9
$DIMBLK2
  1

  9
$DIMSTYLE
  2
STANDARD_ACAD
  9
$DIMCLRD
 70
     0
  9
$DIMCLRE
 70
     0
  9
$DIMCLRT
 70
     0
  9
$DIMTFAC
 40
1.0
  9
$DIMGAP
 40
0.09
  9
$LUNITS
 70
     2
  9
$LUPREC
 70
     3
  9
$SKETCHINC
 40
0.1
  9
$FILLETRAD
 40
0.5
  9
$AUNITS
 70
     0
  9
$AUPREC
 70
     0
  9
$MENU
  1
.
  9
$ELEVATION
 40
0.0
  9
$PELEVATION
 40
0.0
  9
$THICKNESS
 40
0.0
  9
$LIMCHECK
 70
     0
  9
$CHAMFERA
 40
0.0
  9
$CHAMFERB
 40
0.0
  9
$SKPOLY
 70
     0
  9
$TDCREATE
 40
2459787.444146366
  9
$TDUPDATE
 40
2459787.444146551
  9
$TDINDWG
 40
0.0000000116
  9
$TDUSRTIMER
 40
0.0000000116
  9
$USRTIMER
 70
     1
  9
$ANGBASE
 50
0.0
  9
$ANGDIR
 70
     0
  9
$PDMODE
 70
     0
  9
$PDSIZE
 40
0.0
  9
$PLINEWID
 40
0.0
  9
$COORDS
 70
     1
  9
$SPLFRAME
 70
     0
  9
$SPLINETYPE
 70
     6
  9
$SPLINESEGS
 70
     8
  9
$ATTDIA
 70
     0
  9
$ATTREQ
 70
     1
  9
$HANDLING
 70
     1
  9
$HANDSEED
  5
172
  9
$SURFTAB1
 70
     6
  9
$SURFTAB2
 70
     6
  9
$SURFTYPE
 70
     6
  9
$SURFU
 70
     6
  9
$SURFV
 70
     6
  9
$UCSNAME
  2

  9
$UCSORG
 10
0.0
 20
0.0
 30
0.0
  9
$UCSXDIR
 10
1.0
 20
0.0
 30
0.0
  9
$UCSYDIR
 10
0.0
 20
1.0
 30
0.0
  9
$PUCSNAME
  2

  9
$PUCSORG
 10
0.0
 20
0.0
 30
0.0
  9
$PUCSXDIR
 10
1.0
 20
0.0
 30
0.0
  9
$PUCSYDIR
 10
0.0
 20
1.0
 30
0.0
  9
$USERI1
 70
     0
  9
$USERI2
 70
     0
  9
$USERI3
 70
     0
  9
$USERI4
 70
     0
  9
$USERI5
 70
     0
  9
$USERR1
 40
0.0
  9
$USERR2
 40
0.0
  9
$USERR3
 40
0.0
  9
$USERR4
 40
0.0
  9
$USERR5
 40
0.0
  9
$WORLDVIEW
 70
     1
  9
$SHADEDGE
 70
     3
  9
$SHADEDIF
 70
    70
  9
$TILEMODE
 70
     1
  9
$MAXACTVP
 70
    64
  9
$PLIMCHECK
 70
     0
  9
$PEXTMIN
 10
1.000000000000000E+20
 20
1.000000000000000E+20
 30
1.000000000000000E+20
  9
$PEXTMAX
 10
-1.000000000000000E+20
 20
-1.000000000000000E+20
 30
-1.000000000000000E+20
  9
$PLIMMIN
 10
0.0
 20
0.0
  9
$PLIMMAX
 10
12.0
 20
9.0
  9
$UNITMODE
 70
     0
  9
$VISRETAIN
 70
     1
  9
$PLINEGEN
 70
     0
  9
$PSLTSCALE
 70
     1
  0
ENDSEC
  0
SECTION
  2
TABLES
  0
TABLE
  2
VPORT
 70
     1
  0
VPORT
  2
*ACTIVE
 70
     0
 10
0.0
 20
0.0
 11
1.0
 21
1.0
 12
10.42990654205607
 22
4.5
 13
0.0
 23
0.0
 14
0.5
 24
0.5
 15
0.5
 25
0.5
 16
0.0
 26
0.0
 36
1.0
 17
0.0
 27
0.0
 37
0.0
 40
9.0
 41
1.972972972850329
 42
50.0
 43
0.0
 44
0.0
 50
0.0
 51
0.0
 71
     0
 72
   100
 73
     1
 74
     3
 75
     0
 76
     0
 77
     0
 78
     0
  0
ENDTAB
  0
TABLE
  2
LTYPE
 70
     1
  0
LTYPE
  2
CONTINUOUS
 70
     0
  3
Solid line
 72
    65
 73
     0
 40
0.0
  0
ENDTAB
  0
TABLE
  2
LAYER
 70
     2
  0
LAYER
  2
0
 70
     0
 62
     7
  6
CONTINUOUS
  0
LAYER
  2
LAYER_01
 70
     0
 62
     1
  6
CONTINUOUS
  0
ENDTAB
  0
TABLE
  2
STYLE
 70
     1
  0
STYLE
  2
STANDARD
 70
     0
 40
0.0
 41
1.0
 50
0.0
 71
     0
 42
0.2
  3
txt
  4

  0
ENDTAB
  0
TABLE
  2
VIEW
 70
     0
  0
ENDTAB
  0
TABLE
  2
UCS
 70
     0
  0
ENDTAB
  0
TABLE
  2
APPID
 70
     2
  0
APPID
  2
ACAD
 70
     0
  0
APPID
  2
RHINO
 70
     0
  0
ENDTAB
  0
TABLE
  2
DIMSTYLE
 70
     1
  0
DIMSTYLE
  2
STANDARD_ACAD
 70
     0
  3

  4

  5

  6

  7

 40
1.0
 41
0.18
 42
0.0625
 43
0.38
 44
0.18
 45
0.0
 46
0.0
 47
0.0
 48
0.0
140
0.18
141
0.09
142
0.0
143
25.4
144
1.0
145
0.0
146
1.0
147
0.09
 71
     0
 72
     0
 73
     1
 74
     1
 75
     0
 76
     0
 77
     0
 78
     0
170
     0
171
     2
172
     0
173
     0
174
     0
175
     0
176
     0
177
     0
178
     0
  0
ENDTAB
  0
ENDSEC
  0
SECTION
  2
BLOCKS
  0
BLOCK
  8
0
  2
$MODEL_SPACE
 70
     0
 10
0.0
 20
0.0
 30
0.0
  3
$MODEL_SPACE
  1

  0
ENDBLK
  5
21
  8
0
  0
BLOCK
 67
     1
  8
0
  2
$PAPER_SPACE
 70
     0
 10
0.0
 20
0.0
 30
0.0
  3
$PAPER_SPACE
  1

  0
ENDBLK
  5
1D
 67
     1
  8
0
  0
ENDSEC
  0
SECTION
  2
ENTITIES
  0
POLYLINE
  5
70
  8
LAYER_01
 66
     1
 10
0.0
 20
0.0
 30
0.0
 70
     1
  0
VERTEX
  5
71
  8
LAYER_01
 10
443.4723484139649
 20
577.0109492555855
 30
0.0
  0
VERTEX
  5
72
  8
LAYER_01
 10
541.697461007127
 20
577.0109492555855
 30
0.0
  0
VERTEX
  5
73
  8
LAYER_01
 10
541.697461007127
 20
675.2360618487475
 30
0.0
  0
VERTEX
  5
74
  8
LAYER_01
 10
443.4723484139649
 20
675.2360618487475
 30
0.0
  0
SEQEND
  5
75
  8
LAYER_01
  0
POLYLINE
  5
76
  8
LAYER_01
 66
     1
 10
0.0
 20
0.0
 30
0.0
 70
     1
  0
VERTEX
  5
77
  8
LAYER_01
 10
504.4333415639403
 20
614.2750686987724
 30
0.0
  0
VERTEX
  5
78
  8
LAYER_01
 10
504.5388869472374
 20
611.0869249769833
 30
0.0
  0
VERTEX
  5
79
  8
LAYER_01
 10
512.7014925351052
 20
606.0069177276073
 30
0.0
  0
VERTEX
  5
7A
  8
LAYER_01
 10
507.6214852857293
 20
614.1695233154751
 30
0.0
  0
SEQEND
  5
7B
  8
LAYER_01
  0
POLYLINE
  5
7C
  8
LAYER_01
 66
     1
 10
0.0
 20
0.0
 30
0.0
 70
     1
  0
VERTEX
  5
7D
  8
LAYER_01
 10
488.2480758270681
 20
609.9382398152942
 30
0.0
  0
VERTEX
  5
7E
  8
LAYER_01
 10
485.5398350647314
 20
608.2527629712122
 30
0.0
  0
VERTEX
  5
7F
  8
LAYER_01
 10
485.2217225292966
 20
598.6437355463577
 30
0.0
  0
VERTEX
  5
80
  8
LAYER_01
 10
489.750742704775
 20
607.1244536696604
 30
0.0
  0
SEQEND
  5
81
  8
LAYER_01
  0
POLYLINE
  5
82
  8
LAYER_01
 66
     1
 10
0.0
 20
0.0
 30
0.0
 70
     1
  0
VERTEX
  5
83
  8
LAYER_01
 10
472.4683168859868
 20
606.0069177276072
 30
0.0
  0
VERTEX
  5
84
  8
LAYER_01
 10
480.6309224738548
 20
611.0869249769831
 30
0.0
  0
VERTEX
  5
85
  8
LAYER_01
 10
480.7364678571518
 20
614.2750686987722
 30
0.0
  0
VERTEX
  5
86
  8
LAYER_01
 10
477.5483241353627
 20
614.1695233154752
 30
0.0
  0
SEQEND
  5
87
  8
LAYER_01
  0
POLYLINE
  5
88
  8
LAYER_01
 66
     1
 10
0.0
 20
0.0
 30
0.0
 70
     1
  0
VERTEX
  5
89
  8
LAYER_01
 10
504.4333415639402
 20
637.9719424055609
 30
0.0
  0
VERTEX
  5
8A
  8
LAYER_01
 10
507.6214852857294
 20
638.077487788858
 30
0.0
  0
VERTEX
  5
8B
  8
LAYER_01
 10
512.7014925351052
 20
646.2400933767258
 30
0.0
  0
VERTEX
  5
8C
  8
LAYER_01
 10
504.5388869472374
 20
641.16008612735
 30
0.0
  0
SEQEND
  5
8D
  8
LAYER_01
  0
POLYLINE
  5
8E
  8
LAYER_01
 66
     1
 10
0.0
 20
0.0
 30
0.0
 70
     1
  0
VERTEX
  5
8F
  8
LAYER_01
 10
508.7701704474183
 20
630.4603344356447
 30
0.0
  0
VERTEX
  5
90
  8
LAYER_01
 10
511.5839565930521
 20
628.9576675579375
 30
0.0
  0
VERTEX
  5
91
  8
LAYER_01
 10
520.0646747163548
 20
633.4866877334159
 30
0.0
  0
VERTEX
  5
92
  8
LAYER_01
 10
510.4556472915004
 20
633.1685751979812
 30
0.0
  0
SEQEND
  5
93
  8
LAYER_01
  0
POLYLINE
  5
94
  8
LAYER_01
 66
     1
 10
0.0
 20
0.0
 30
0.0
 70
     1
  0
VERTEX
  5
95
  8
LAYER_01
 10
496.9217335940241
 20
609.9382398152942
 30
0.0
  0
VERTEX
  5
96
  8
LAYER_01
 10
495.4190667163169
 20
607.1244536696604
 30
0.0
  0
VERTEX
  5
97
  8
LAYER_01
 10
499.9480868917954
 20
598.6437355463579
 30
0.0
  0
VERTEX
  5
98
  8
LAYER_01
 10
499.6299743563607
 20
608.2527629712123
 30
0.0
  0
SEQEND
  5
99
  8
LAYER_01
  0
POLYLINE
  5
9A
  8
LAYER_01
 66
     1
 10
0.0
 20
0.0
 30
0.0
 70
     1
  0
VERTEX
  5
9B
  8
LAYER_01
 10
476.3996389736736
 20
630.4603344356445
 30
0.0
  0
VERTEX
  5
9C
  8
LAYER_01
 10
474.7141621295916
 20
633.1685751979813
 30
0.0
  0
VERTEX
  5
9D
  8
LAYER_01
 10
465.1051347047372
 20
633.4866877334159
 30
0.0
  0
VERTEX
  5
9E
  8
LAYER_01
 10
473.5858528280398
 20
628.9576675579375
 30
0.0
  0
SEQEND
  5
9F
  8
LAYER_01
  0
POLYLINE
  5
A0
  8
LAYER_01
 66
     1
 10
0.0
 20
0.0
 30
0.0
 70
     1
  0
VERTEX
  5
A1
  8
LAYER_01
 10
480.7364678571516
 20
637.9719424055608
 30
0.0
  0
VERTEX
  5
A2
  8
LAYER_01
 10
480.6309224738546
 20
641.1600861273498
 30
0.0
  0
VERTEX
  5
A3
  8
LAYER_01
 10
472.4683168859867
 20
646.2400933767259
 30
0.0
  0
VERTEX
  5
A4
  8
LAYER_01
 10
477.5483241353626
 20
638.0774877888579
 30
0.0
  0
SEQEND
  5
A5
  8
LAYER_01
  0
POLYLINE
  5
A6
  8
LAYER_01
 66
     1
 10
0.0
 20
0.0
 30
0.0
 70
     1
  0
VERTEX
  5
A7
  8
LAYER_01
 10
499.9480868917954
 20
653.6032755579753
 30
0.0
  0
VERTEX
  5
A8
  8
LAYER_01
 10
499.6299743563608
 20
643.9942481331209
 30
0.0
  0
VERTEX
  5
A9
  8
LAYER_01
 10
496.9217335940241
 20
642.3087712890389
 30
0.0
  0
VERTEX
  5
AA
  8
LAYER_01
 10
495.4190667163169
 20
645.1225574346727
 30
0.0
  0
SEQEND
  5
AB
  8
LAYER_01
  0
POLYLINE
  5
AC
  8
LAYER_01
 66
     1
 10
0.0
 20
0.0
 30
0.0
 70
     1
  0
VERTEX
  5
AD
  8
LAYER_01
 10
488.2480758270679
 20
642.3087712890389
 30
0.0
  0
VERTEX
  5
AE
  8
LAYER_01
 10
489.750742704775
 20
645.1225574346727
 30
0.0
  0
VERTEX
  5
AF
  8
LAYER_01
 10
485.2217225292965
 20
653.6032755579753
 30
0.0
  0
VERTEX
  5
B0
  8
LAYER_01
 10
485.5398350647312
 20
643.9942481331208
 30
0.0
  0
SEQEND
  5
B1
  8
LAYER_01
  0
POLYLINE
  5
B2
  8
LAYER_01
 66
     1
 10
0.0
 20
0.0
 30
0.0
 70
     1
  0
VERTEX
  5
B3
  8
LAYER_01
 10
520.0646747163547
 20
618.7603233709171
 30
0.0
  0
VERTEX
  5
B4
  8
LAYER_01
 10
511.5839565930521
 20
623.2893435463956
 30
0.0
  0
VERTEX
  5
B5
  8
LAYER_01
 10
508.7701704474183
 20
621.7866766686884
 30
0.0
  0
VERTEX
  5
B6
  8
LAYER_01
 10
510.4556472915003
 20
619.0784359063517
 30
0.0
  0
SEQEND
  5
B7
  8
LAYER_01
  0
POLYLINE
  5
B8
  8
LAYER_01
 66
     1
 10
0.0
 20
0.0
 30
0.0
 70
     1
  0
VERTEX
  5
B9
  8
LAYER_01
 10
476.3996389736736
 20
621.7866766686884
 30
0.0
  0
VERTEX
  5
BA
  8
LAYER_01
 10
473.5858528280398
 20
623.2893435463956
 30
0.0
  0
VERTEX
  5
BB
  8
LAYER_01
 10
465.1051347047372
 20
618.7603233709171
 30
0.0
  0
VERTEX
  5
BC
  8
LAYER_01
 10
474.7141621295916
 20
619.0784359063518
 30
0.0
  0
SEQEND
  5
BD
  8
LAYER_01
  0
POLYLINE
  5
BE
  8
LAYER_01
 66
     1
 10
0.0
 20
0.0
 30
0.0
 70
     1
  0
VERTEX
  5
BF
  8
LAYER_01
 10
507.2694384889199
 20
667.7201651624144
 30
0.0
 42
0.2980600159569109
  0
VERTEX
  5
C0
  8
LAYER_01
 10
521.2664017564075
 20
659.6390146520929
 30
0.0
 42
0.0923786125987711
  0
SEQEND
  5
C1
  8
LAYER_01
  0
POLYLINE
  5
C2
  8
LAYER_01
 66
     1
 10
0.0
 20
0.0
 30
0.0
 70
     1
  0
VERTEX
  5
C3
  8
LAYER_01
 10
505.2731645839627
 20
663.339953824526
 30
0.0
  0
VERTEX
  5
C4
  8
LAYER_01
 10
504.7379548309199
 20
647.1732058275852
 30
0.0
  0
VERTEX
  5
C5
  8
LAYER_01
 10
518.4711644163305
 20
655.7200850685438
 30
0.0
 42
-0.2122289316010274
  0
SEQEND
  5
C6
  8
LAYER_01
  0
POLYLINE
  5
C7
  8
LAYER_01
 66
     1
 10
0.0
 20
0.0
 30
0.0
 70
     1
  0
VERTEX
  5
C8
  8
LAYER_01
 10
526.1004138104726
 20
654.8050025980283
 30
0.0
 42
0.2980600159569113
  0
VERTEX
  5
C9
  8
LAYER_01
 10
534.1815643207938
 20
640.8080393305405
 30
0.0
 42
0.0923786125987657
  0
SEQEND
  5
CA
  8
LAYER_01
  0
POLYLINE
  5
CB
  8
LAYER_01
 66
     1
 10
0.0
 20
0.0
 30
0.0
 70
     1
  0
VERTEX
  5
CC
  8
LAYER_01
 10
522.1814842269234
 20
652.0097652579509
 30
0.0
  0
VERTEX
  5
CD
  8
LAYER_01
 10
513.6346049859646
 20
638.2765556725404
 30
0.0
  0
VERTEX
  5
CE
  8
LAYER_01
 10
529.8013529829054
 20
638.8117654255831
 30
0.0
 42
-0.212228931601023
  0
SEQEND
  5
CF
  8
LAYER_01
  0
POLYLINE
  5
D0
  8
LAYER_01
 66
     1
 10
0.0
 20
0.0
 30
0.0
 70
     1
  0
VERTEX
  5
D1
  8
LAYER_01
 10
535.9509355347817
 20
634.204656062488
 30
0.0
 42
0.2980600159569123
  0
VERTEX
  5
D2
  8
LAYER_01
 10
535.9509355347816
 20
618.0423550418453
 30
0.0
 42
0.0923786125987657
  0
SEQEND
  5
D3
  8
LAYER_01
  0
POLYLINE
  5
D4
  8
LAYER_01
 66
     1
 10
0.0
 20
0.0
 30
0.0
 70
     1
  0
VERTEX
  5
D5
  8
LAYER_01
 10
531.1594242897471
 20
633.7433743081486
 30
0.0
  0
VERTEX
  5
D6
  8
LAYER_01
 10
516.8910049512938
 20
626.1235055521665
 30
0.0
  0
VERTEX
  5
D7
  8
LAYER_01
 10
531.159424289747
 20
618.5036367961843
 30
0.0
 42
-0.2122289316010267
  0
SEQEND
  5
D8
  8
LAYER_01
  0
POLYLINE
  5
D9
  8
LAYER_01
 66
     1
 10
0.0
 20
0.0
 30
0.0
 70
     1
  0
VERTEX
  5
DA
  8
LAYER_01
 10
534.1815643207938
 20
611.4389717737924
 30
0.0
 42
0.298060015956914
  0
VERTEX
  5
DB
  8
LAYER_01
 10
526.1004138104722
 20
597.4420085063049
 30
0.0
 42
0.0923786125987706
  0
SEQEND
  5
DC
  8
LAYER_01
  0
POLYLINE
  5
DD
  8
LAYER_01
 66
     1
 10
0.0
 20
0.0
 30
0.0
 70
     1
  0
VERTEX
  5
DE
  8
LAYER_01
 10
529.8013529829054
 20
613.4352456787497
 30
0.0
  0
VERTEX
  5
DF
  8
LAYER_01
 10
513.6346049859646
 20
613.9704554317925
 30
0.0
  0
VERTEX
  5
E0
  8
LAYER_01
 10
522.1814842269231
 20
600.2372458463819
 30
0.0
 42
-0.2122289316010233
  0
SEQEND
  5
E1
  8
LAYER_01
  0
POLYLINE
  5
E2
  8
LAYER_01
 66
     1
 10
0.0
 20
0.0
 30
0.0
 70
     1
  0
VERTEX
  5
E3
  8
LAYER_01
 10
521.2664017564077
 20
592.6079964522402
 30
0.0
 42
0.2980600159569113
  0
VERTEX
  5
E4
  8
LAYER_01
 10
507.2694384889201
 20
584.526845941919
 30
0.0
 42
0.0923786125987443
  0
SEQEND
  5
E5
  8
LAYER_01
  0
POLYLINE
  5
E6
  8
LAYER_01
 66
     1
 10
0.0
 20
0.0
 30
0.0
 70
     1
  0
VERTEX
  5
E7
  8
LAYER_01
 10
518.4711644163303
 20
596.5269260357893
 30
0.0
  0
VERTEX
  5
E8
  8
LAYER_01
 10
504.7379548309199
 20
605.0738052767481
 30
0.0
  0
VERTEX
  5
E9
  8
LAYER_01
 10
505.2731645839625
 20
588.9070572798073
 30
0.0
 42
-0.2122289316010241
  0
SEQEND
  5
EA
  8
LAYER_01
  0
POLYLINE
  5
EB
  8
LAYER_01
 66
     1
 10
0.0
 20
0.0
 30
0.0
 70
     1
  0
VERTEX
  5
EC
  8
LAYER_01
 10
500.6660552208674
 20
582.7574747279308
 30
0.0
 42
0.2980600159569123
  0
VERTEX
  5
ED
  8
LAYER_01
 10
484.5037542002247
 20
582.7574747279309
 30
0.0
 42
0.0923786125987732
  0
SEQEND
  5
EE
  8
LAYER_01
  0
POLYLINE
  5
EF
  8
LAYER_01
 66
     1
 10
0.0
 20
0.0
 30
0.0
 70
     1
  0
VERTEX
  5
F0
  8
LAYER_01
 10
500.2047734665281
 20
587.5489859729654
 30
0.0
  0
VERTEX
  5
F1
  8
LAYER_01
 10
492.584904710546
 20
601.8174053114187
 30
0.0
  0
VERTEX
  5
F2
  8
LAYER_01
 10
484.9650359545637
 20
587.5489859729655
 30
0.0
 42
-0.2122289316010251
  0
SEQEND
  5
F3
  8
LAYER_01
  0
POLYLINE
  5
F4
  8
LAYER_01
 66
     1
 10
0.0
 20
0.0
 30
0.0
 70
     1
  0
VERTEX
  5
F5
  8
LAYER_01
 10
477.9003709321722
 20
584.5268459419186
 30
0.0
 42
0.2980600159569123
  0
VERTEX
  5
F6
  8
LAYER_01
 10
463.9034076646845
 20
592.6079964522401
 30
0.0
 42
0.0923786125987615
  0
SEQEND
  5
F7
  8
LAYER_01
  0
POLYLINE
  5
F8
  8
LAYER_01
 66
     1
 10
0.0
 20
0.0
 30
0.0
 70
     1
  0
VERTEX
  5
F9
  8
LAYER_01
 10
479.8966448371293
 20
588.9070572798071
 30
0.0
  0
VERTEX
  5
FA
  8
LAYER_01
 10
480.4318545901722
 20
605.0738052767479
 30
0.0
  0
VERTEX
  5
FB
  8
LAYER_01
 10
466.6986450047616
 20
596.5269260357894
 30
0.0
 42
-0.2122289316010263
  0
SEQEND
  5
FC
  8
LAYER_01
  0
POLYLINE
  5
FD
  8
LAYER_01
 66
     1
 10
0.0
 20
0.0
 30
0.0
 70
     1
  0
VERTEX
  5
FE
  8
LAYER_01
 10
459.0693956106195
 20
597.4420085063049
 30
0.0
 42
0.298060015956912
  0
VERTEX
  5
FF
  8
LAYER_01
 10
450.9882451002985
 20
611.4389717737927
 30
0.0
 42
0.0923786125987662
  0
SEQEND
  5
100
  8
LAYER_01
  0
POLYLINE
  5
101
  8
LAYER_01
 66
     1
 10
0.0
 20
0.0
 30
0.0
 70
     1
  0
VERTEX
  5
102
  8
LAYER_01
 10
462.9883251941687
 20
600.2372458463822
 30
0.0
  0
VERTEX
  5
103
  8
LAYER_01
 10
471.5352044351273
 20
613.9704554317927
 30
0.0
  0
VERTEX
  5
104
  8
LAYER_01
 10
455.3684564381865
 20
613.4352456787501
 30
0.0
 42
-0.2122289316010385
  0
SEQEND
  5
105
  8
LAYER_01
  0
POLYLINE
  5
106
  8
LAYER_01
 66
     1
 10
0.0
 20
0.0
 30
0.0
 70
     1
  0
VERTEX
  5
107
  8
LAYER_01
 10
449.2188738863102
 20
618.0423550418451
 30
0.0
 42
0.2980600159569123
  0
VERTEX
  5
108
  8
LAYER_01
 10
449.2188738863104
 20
634.2046560624877
 30
0.0
 42
0.0923786125987452
  0
SEQEND
  5
109
  8
LAYER_01
  0
POLYLINE
  5
10A
  8
LAYER_01
 66
     1
 10
0.0
 20
0.0
 30
0.0
 70
     1
  0
VERTEX
  5
10B
  8
LAYER_01
 10
454.0103851313448
 20
618.5036367961844
 30
0.0
  0
VERTEX
  5
10C
  8
LAYER_01
 10
468.2788044697982
 20
626.1235055521665
 30
0.0
  0
VERTEX
  5
10D
  8
LAYER_01
 10
454.0103851313449
 20
633.7433743081488
 30
0.0
 42
-0.2122289316010267
  0
SEQEND
  5
10E
  8
LAYER_01
  0
POLYLINE
  5
10F
  8
LAYER_01
 66
     1
 10
0.0
 20
0.0
 30
0.0
 70
     1
  0
VERTEX
  5
110
  8
LAYER_01
 10
450.9882451002981
 20
640.8080393305405
 30
0.0
 42
0.2980600159569116
  0
VERTEX
  5
111
  8
LAYER_01
 10
459.0693956106196
 20
654.8050025980281
 30
0.0
 42
0.0923786125987651
  0
SEQEND
  5
112
  8
LAYER_01
  0
POLYLINE
  5
113
  8
LAYER_01
 66
     1
 10
0.0
 20
0.0
 30
0.0
 70
     1
  0
VERTEX
  5
114
  8
LAYER_01
 10
455.3684564381865
 20
638.8117654255833
 30
0.0
  0
VERTEX
  5
115
  8
LAYER_01
 10
471.5352044351274
 20
638.2765556725404
 30
0.0
  0
VERTEX
  5
116
  8
LAYER_01
 10
462.9883251941688
 20
652.009765257951
 30
0.0
 42
-0.2122289316010257
  0
SEQEND
  5
117
  8
LAYER_01
  0
POLYLINE
  5
118
  8
LAYER_01
 66
     1
 10
0.0
 20
0.0
 30
0.0
 70
     1
  0
VERTEX
  5
119
  8
LAYER_01
 10
463.9034076646842
 20
659.639014652093
 30
0.0
 42
0.298060015956912
  0
VERTEX
  5
11A
  8
LAYER_01
 10
477.9003709321719
 20
667.7201651624142
 30
0.0
 42
0.0923786125987658
  0
SEQEND
  5
11B
  8
LAYER_01
  0
POLYLINE
  5
11C
  8
LAYER_01
 66
     1
 10
0.0
 20
0.0
 30
0.0
 70
     1
  0
VERTEX
  5
11D
  8
LAYER_01
 10
466.6986450047616
 20
655.7200850685438
 30
0.0
  0
VERTEX
  5
11E
  8
LAYER_01
 10
480.4318545901721
 20
647.1732058275852
 30
0.0
  0
VERTEX
  5
11F
  8
LAYER_01
 10
479.8966448371294
 20
663.339953824526
 30
0.0
 42
-0.2122289316010192
  0
SEQEND
  5
120
  8
LAYER_01
  0
POLYLINE
  5
121
  8
LAYER_01
 66
     1
 10
0.0
 20
0.0
 30
0.0
 70
     1
  0
VERTEX
  5
122
  8
LAYER_01
 10
484.5037542002245
 20
669.4895363764023
 30
0.0
 42
0.2980600159569123
  0
VERTEX
  5
123
  8
LAYER_01
 10
500.6660552208672
 20
669.4895363764022
 30
0.0
 42
0.0923786125987732
  0
SEQEND
  5
124
  8
LAYER_01
  0
POLYLINE
  5
125
  8
LAYER_01
 66
     1
 10
0.0
 20
0.0
 30
0.0
 70
     1
  0
VERTEX
  5
126
  8
LAYER_01
 10
484.9650359545639
 20
664.6980251313677
 30
0.0
  0
VERTEX
  5
127
  8
LAYER_01
 10
492.584904710546
 20
650.4296057929143
 30
0.0
  0
VERTEX
  5
128
  8
LAYER_01
 10
500.2047734665282
 20
664.6980251313676
 30
0.0
 42
-0.2122289316010251
  0
SEQEND
  5
129
  8
LAYER_01
  0
POLYLINE
  5
12A
  8
LAYER_01
 66
     1
 10
0.0
 20
0.0
 30
0.0
 70
     1
  0
VERTEX
  5
12B
  8
LAYER_01
 10
501.2965768119592
 20
632.6513432402062
 30
0.0
  0
VERTEX
  5
12C
  8
LAYER_01
 10
499.6742335139716
 20
633.212834355592
 30
0.0
  0
VERTEX
  5
12D
  8
LAYER_01
 10
499.1127423985856
 20
634.8351776535796
 30
0.0
  0
VERTEX
  5
12E
  8
LAYER_01
 10
500.4332357005767
 20
637.9772841236934
 30
0.0
  0
VERTEX
  5
12F
  8
LAYER_01
 10
502.0720775194209
 20
635.6106783610414
 30
0.0
  0
VERTEX
  5
130
  8
LAYER_01
 10
504.4386832820728
 20
633.9718365421973
 30
0.0
  0
SEQEND
  5
131
  8
LAYER_01
  0
POLYLINE
  5
132
  8
LAYER_01
 66
     1
 10
0.0
 20
0.0
 30
0.0
 70
     1
  0
VERTEX
  5
133
  8
LAYER_01
 10
503.3608654246268
 20
624.5793014294816
 30
0.0
  0
VERTEX
  5
134
  8
LAYER_01
 10
502.6107296524725
 20
626.1235055521665
 30
0.0
  0
VERTEX
  5
135
  8
LAYER_01
 10
503.3608654246268
 20
627.6677096748515
 30
0.0
  0
VERTEX
  5
136
  8
LAYER_01
 10
506.5163999852036
 20
628.9557846987298
 30
0.0
  0
VERTEX
  5
137
  8
LAYER_01
 10
506.001793165434
 20
626.1235055521665
 30
0.0
  0
VERTEX
  5
138
  8
LAYER_01
 10
506.5163999852036
 20
623.2912264056033
 30
0.0
  0
SEQEND
  5
139
  8
LAYER_01
  0
POLYLINE
  5
13A
  8
LAYER_01
 66
     1
 10
0.0
 20
0.0
 30
0.0
 70
     1
  0
VERTEX
  5
13B
  8
LAYER_01
 10
499.1127423985855
 20
617.4118334507534
 30
0.0
  0
VERTEX
  5
13C
  8
LAYER_01
 10
499.6742335139714
 20
619.0341767487412
 30
0.0
  0
VERTEX
  5
13D
  8
LAYER_01
 10
501.2965768119591
 20
619.595667864127
 30
0.0
  0
VERTEX
  5
13E
  8
LAYER_01
 10
504.4386832820728
 20
618.275174562136
 30
0.0
  0
VERTEX
  5
13F
  8
LAYER_01
 10
502.0720775194208
 20
616.6363327432919
 30
0.0
  0
VERTEX
  5
140
  8
LAYER_01
 10
500.4332357005766
 20
614.2697269806398
 30
0.0
  0
SEQEND
  5
141
  8
LAYER_01
  0
POLYLINE
  5
142
  8
LAYER_01
 66
     1
 10
0.0
 20
0.0
 30
0.0
 70
     1
  0
VERTEX
  5
143
  8
LAYER_01
 10
491.040700587861
 20
615.3475448380857
 30
0.0
  0
VERTEX
  5
144
  8
LAYER_01
 10
492.584904710546
 20
616.09768061024
 30
0.0
  0
VERTEX
  5
145
  8
LAYER_01
 10
494.1291088332309
 20
615.3475448380857
 30
0.0
  0
VERTEX
  5
146
  8
LAYER_01
 10
495.4171838571093
 20
612.1920102775089
 30
0.0
  0
VERTEX
  5
147
  8
LAYER_01
 10
492.584904710546
 20
612.7066170972785
 30
0.0
  0
VERTEX
  5
148
  8
LAYER_01
 10
489.7526255639827
 20
612.1920102775089
 30
0.0
  0
SEQEND
  5
149
  8
LAYER_01
  0
POLYLINE
  5
14A
  8
LAYER_01
 66
     1
 10
0.0
 20
0.0
 30
0.0
 70
     1
  0
VERTEX
  5
14B
  8
LAYER_01
 10
483.8732326091329
 20
619.5956678641269
 30
0.0
  0
VERTEX
  5
14C
  8
LAYER_01
 10
485.4955759071205
 20
619.0341767487411
 30
0.0
  0
VERTEX
  5
14D
  8
LAYER_01
 10
486.0570670225063
 20
617.4118334507534
 30
0.0
  0
VERTEX
  5
14E
  8
LAYER_01
 10
484.7365737205153
 20
614.2697269806397
 30
0.0
  0
VERTEX
  5
14F
  8
LAYER_01
 10
483.0977319016711
 20
616.6363327432916
 30
0.0
  0
VERTEX
  5
150
  8
LAYER_01
 10
480.7311261390191
 20
618.2751745621358
 30
0.0
  0
SEQEND
  5
151
  8
LAYER_01
  0
POLYLINE
  5
152
  8
LAYER_01
 66
     1
 10
0.0
 20
0.0
 30
0.0
 70
     1
  0
VERTEX
  5
153
  8
LAYER_01
 10
481.8089439964651
 20
627.6677096748515
 30
0.0
  0
VERTEX
  5
154
  8
LAYER_01
 10
482.5590797686194
 20
626.1235055521665
 30
0.0
  0
VERTEX
  5
155
  8
LAYER_01
 10
481.8089439964651
 20
624.5793014294816
 30
0.0
  0
VERTEX
  5
156
  8
LAYER_01
 10
478.6534094358883
 20
623.2912264056033
 30
0.0
  0
VERTEX
  5
157
  8
LAYER_01
 10
479.1680162556579
 20
626.1235055521665
 30
0.0
  0
VERTEX
  5
158
  8
LAYER_01
 10
478.6534094358883
 20
628.9557846987298
 30
0.0
  0
SEQEND
  5
159
  8
LAYER_01
  0
POLYLINE
  5
15A
  8
LAYER_01
 66
     1
 10
0.0
 20
0.0
 30
0.0
 70
     1
  0
VERTEX
  5
15B
  8
LAYER_01
 10
486.0570670225063
 20
634.8351776535796
 30
0.0
  0
VERTEX
  5
15C
  8
LAYER_01
 10
485.4955759071204
 20
633.2128343555921
 30
0.0
  0
VERTEX
  5
15D
  8
LAYER_01
 10
483.8732326091328
 20
632.6513432402062
 30
0.0
  0
VERTEX
  5
15E
  8
LAYER_01
 10
480.731126139019
 20
633.9718365421973
 30
0.0
  0
VERTEX
  5
15F
  8
LAYER_01
 10
483.0977319016711
 20
635.6106783610414
 30
0.0
  0
VERTEX
  5
160
  8
LAYER_01
 10
484.7365737205153
 20
637.9772841236934
 30
0.0
  0
SEQEND
  5
161
  8
LAYER_01
  0
POLYLINE
  5
162
  8
LAYER_01
 66
     1
 10
0.0
 20
0.0
 30
0.0
 70
     1
  0
VERTEX
  5
163
  8
LAYER_01
 10
494.129108833231
 20
636.8994662662474
 30
0.0
  0
VERTEX
  5
164
  8
LAYER_01
 10
492.584904710546
 20
636.1493304940931
 30
0.0
  0
VERTEX
  5
165
  8
LAYER_01
 10
491.040700587861
 20
636.8994662662474
 30
0.0
  0
VERTEX
  5
166
  8
LAYER_01
 10
489.7526255639827
 20
640.0550008268242
 30
0.0
  0
VERTEX
  5
167
  8
LAYER_01
 10
492.584904710546
 20
639.5403940070546
 30
0.0
  0
VERTEX
  5
168
  8
LAYER_01
 10
495.4171838571092
 20
640.0550008268242
 30
0.0
  0
SEQEND
  5
169
  8
LAYER_01
  0
CIRCLE
  5
16A
  8
LAYER_01
 10
492.584904710546
 20
626.1235055521665
 30
0.0
 40
4.719109075181759
  0
ENDSEC
  0
EOF
