  0
SECTION
  2
HEADER
  9
$ACADVER
  1
AC1009
  9
$DWGCODEPAGE
  3
ansi_1252
  9
$INSBASE
 10
0.0
 20
0.0
 30
0.0
  9
$EXTMIN
 10
1.000000000000000E+20
 20
1.000000000000000E+20
 30
1.000000000000000E+20
  9
$EXTMAX
 10
-1.000000000000000E+20
 20
-1.000000000000000E+20
 30
-1.000000000000000E+20
  9
$LIMMIN
 10
0.0
 20
0.0
  9
$LIMMAX
 10
12.0
 20
9.0
  9
$ORTHOMODE
 70
     0
  9
$REGENMODE
 70
     1
  9
$FILLMODE
 70
     1
  9
$QTEXTMODE
 70
     0
  9
$MIRRTEXT
 70
     1
  9
$DRAGMODE
 70
     2
  9
$LTSCALE
 40
1.0
  9
$OSMODE
 70
    37
  9
$ATTMODE
 70
     1
  9
$TEXTSIZE
 40
0.2
  9
$TRACEWID
 40
0.05
  9
$TEXTSTYLE
  7
STANDARD
  9
$CLAYER
  8
LAYER_05
  9
$CELTYPE
  6
BYLAYER
  9
$CECOLOR
 62
   256
  9
$DIMSCALE
 40
1.0
  9
$DIMASZ
 40
0.18
  9
$DIMEXO
 40
0.0625
  9
$DIMDLI
 40
0.38
  9
$DIMRND
 40
0.0
  9
$DIMDLE
 40
0.0
  9
$DIMEXE
 40
0.18
  9
$DIMTP
 40
0.0
  9
$DIMTM
 40
0.0
  9
$DIMTXT
 40
0.18
  9
$DIMCEN
 40
0.09
  9
$DIMTSZ
 40
0.0
  9
$DIMTOL
 70
     0
  9
$DIMLIM
 70
     0
  9
$DIMTIH
 70
     1
  9
$DIMTOH
 70
     1
  9
$DIMSE1
 70
     0
  9
$DIMSE2
 70
     0
  9
$DIMTAD
 70
     0
  9
$DIMZIN
 70
     0
  9
$DIMBLK
  1

  9
$DIMASO
 70
     1
  9
$DIMSHO
 70
     1
  9
$DIMPOST
  1

  9
$DIMAPOST
  1

  9
$DIMALT
 70
     0
  9
$DIMALTD
 70
     2
  9
$DIMALTF
 40
25.4
  9
$DIMLFAC
 40
1.0
  9
$DIMTOFL
 70
     0
  9
$DIMTVP
 40
0.0
  9
$DIMTIX
 70
     0
  9
$DIMSOXD
 70
     0
  9
$DIMSAH
 70
     0
  9
$DIMBLK1
  1

  9
$DIMBLK2
  1

  9
$DIMSTYLE
  2
STANDARD_ACAD
  9
$DIMCLRD
 70
     0
  9
$DIMCLRE
 70
     0
  9
$DIMCLRT
 70
     0
  9
$DIMTFAC
 40
1.0
  9
$DIMGAP
 40
0.09
  9
$LUNITS
 70
     2
  9
$LUPREC
 70
     3
  9
$SKETCHINC
 40
0.1
  9
$FILLETRAD
 40
0.5
  9
$AUNITS
 70
     0
  9
$AUPREC
 70
     0
  9
$MENU
  1
.
  9
$ELEVATION
 40
0.0
  9
$PELEVATION
 40
0.0
  9
$THICKNESS
 40
0.0
  9
$LIMCHECK
 70
     0
  9
$CHAMFERA
 40
0.0
  9
$CHAMFERB
 40
0.0
  9
$SKPOLY
 70
     0
  9
$TDCREATE
 40
2460261.384614572
  9
$TDUPDATE
 40
2460261.384614687
  9
$TDINDWG
 40
0.0000000116
  9
$TDUSRTIMER
 40
0.0000000116
  9
$USRTIMER
 70
     1
  9
$ANGBASE
 50
0.0
  9
$ANGDIR
 70
     0
  9
$PDMODE
 70
     0
  9
$PDSIZE
 40
0.0
  9
$PLINEWID
 40
0.0
  9
$COORDS
 70
     1
  9
$SPLFRAME
 70
     0
  9
$SPLINETYPE
 70
     6
  9
$SPLINESEGS
 70
     8
  9
$ATTDIA
 70
     0
  9
$ATTREQ
 70
     1
  9
$HANDLING
 70
     1
  9
$HANDSEED
  5
1E1
  9
$SURFTAB1
 70
     6
  9
$SURFTAB2
 70
     6
  9
$SURFTYPE
 70
     6
  9
$SURFU
 70
     6
  9
$SURFV
 70
     6
  9
$UCSNAME
  2

  9
$UCSORG
 10
0.0
 20
0.0
 30
0.0
  9
$UCSXDIR
 10
1.0
 20
0.0
 30
0.0
  9
$UCSYDIR
 10
0.0
 20
1.0
 30
0.0
  9
$PUCSNAME
  2

  9
$PUCSORG
 10
0.0
 20
0.0
 30
0.0
  9
$PUCSXDIR
 10
1.0
 20
0.0
 30
0.0
  9
$PUCSYDIR
 10
0.0
 20
1.0
 30
0.0
  9
$USERI1
 70
     0
  9
$USERI2
 70
     0
  9
$USERI3
 70
     0
  9
$USERI4
 70
     0
  9
$USERI5
 70
     0
  9
$USERR1
 40
0.0
  9
$USERR2
 40
0.0
  9
$USERR3
 40
0.0
  9
$USERR4
 40
0.0
  9
$USERR5
 40
0.0
  9
$WORLDVIEW
 70
     1
  9
$SHADEDGE
 70
     3
  9
$SHADEDIF
 70
    70
  9
$TILEMODE
 70
     1
  9
$MAXACTVP
 70
    64
  9
$PLIMCHECK
 70
     0
  9
$PEXTMIN
 10
1.000000000000000E+20
 20
1.000000000000000E+20
 30
1.000000000000000E+20
  9
$PEXTMAX
 10
-1.000000000000000E+20
 20
-1.000000000000000E+20
 30
-1.000000000000000E+20
  9
$PLIMMIN
 10
0.0
 20
0.0
  9
$PLIMMAX
 10
12.0
 20
9.0
  9
$UNITMODE
 70
     0
  9
$VISRETAIN
 70
     1
  9
$PLINEGEN
 70
     0
  9
$PSLTSCALE
 70
     1
  0
ENDSEC
  0
SECTION
  2
TABLES
  0
TABLE
  2
VPORT
 70
     1
  0
VPORT
  2
*ACTIVE
 70
     0
 10
0.0
 20
0.0
 11
1.0
 21
1.0
 12
10.42990654205607
 22
4.5
 13
0.0
 23
0.0
 14
0.5
 24
0.5
 15
0.5
 25
0.5
 16
0.0
 26
0.0
 36
1.0
 17
0.0
 27
0.0
 37
0.0
 40
9.0
 41
1.972972972850329
 42
50.0
 43
0.0
 44
0.0
 50
0.0
 51
0.0
 71
     0
 72
   100
 73
     1
 74
     3
 75
     0
 76
     0
 77
     0
 78
     0
  0
ENDTAB
  0
TABLE
  2
LTYPE
 70
     1
  0
LTYPE
  2
CONTINUOUS
 70
     0
  3
Solid line
 72
    65
 73
     0
 40
0.0
  0
ENDTAB
  0
TABLE
  2
LAYER
 70
     2
  0
LAYER
  2
0
 70
     0
 62
     7
  6
CONTINUOUS
  0
LAYER
  2
LAYER_05
 70
     0
 62
     1
  6
CONTINUOUS
  0
ENDTAB
  0
TABLE
  2
STYLE
 70
     1
  0
STYLE
  2
STANDARD
 70
     0
 40
0.0
 41
1.0
 50
0.0
 71
     0
 42
0.2
  3
txt
  4

  0
ENDTAB
  0
TABLE
  2
VIEW
 70
     0
  0
ENDTAB
  0
TABLE
  2
UCS
 70
     0
  0
ENDTAB
  0
TABLE
  2
APPID
 70
     2
  0
APPID
  2
ACAD
 70
     0
  0
APPID
  2
RHINO
 70
     0
  0
ENDTAB
  0
TABLE
  2
DIMSTYLE
 70
     1
  0
DIMSTYLE
  2
STANDARD_ACAD
 70
     0
  3

  4

  5

  6

  7

 40
1.0
 41
0.18
 42
0.0625
 43
0.38
 44
0.18
 45
0.0
 46
0.0
 47
0.0
 48
0.0
140
0.18
141
0.09
142
0.0
143
25.4
144
1.0
145
0.0
146
1.0
147
0.09
 71
     0
 72
     0
 73
     1
 74
     1
 75
     0
 76
     0
 77
     0
 78
     0
170
     0
171
     2
172
     0
173
     0
174
     0
175
     0
176
     0
177
     0
178
     0
  0
ENDTAB
  0
ENDSEC
  0
SECTION
  2
BLOCKS
  0
BLOCK
  8
0
  2
$MODEL_SPACE
 70
     0
 10
0.0
 20
0.0
 30
0.0
  3
$MODEL_SPACE
  1

  0
ENDBLK
  5
21
  8
0
  0
BLOCK
 67
     1
  8
0
  2
$PAPER_SPACE
 70
     0
 10
0.0
 20
0.0
 30
0.0
  3
$PAPER_SPACE
  1

  0
ENDBLK
  5
1D
 67
     1
  8
0
  0
ENDSEC
  0
SECTION
  2
ENTITIES
  0
POLYLINE
  5
70
  8
LAYER_05
 66
     1
 10
0.0
 20
0.0
 30
0.0
 70
     1
  0
VERTEX
  5
71
  8
LAYER_05
 10
2747.832514268801
 20
260.7259724085865
 30
0.0
  0
VERTEX
  5
72
  8
LAYER_05
 10
3819.116676867589
 20
260.7259724085865
 30
0.0
  0
VERTEX
  5
73
  8
LAYER_05
 10
3819.116676867589
 20
2697.197848317955
 30
0.0
  0
VERTEX
  5
74
  8
LAYER_05
 10
2747.832514268801
 20
2697.197848317955
 30
0.0
  0
SEQEND
  5
75
  8
LAYER_05
  0
POLYLINE
  5
76
  8
LAYER_05
 66
     1
 10
0.0
 20
0.0
 30
0.0
 70
     1
  0
VERTEX
  5
77
  8
LAYER_05
 10
2783.474595568195
 20
1398.456971567052
 30
0.0
  0
VERTEX
  5
78
  8
LAYER_05
 10
2783.474595568196
 20
1760.99627814514
 30
0.0
  0
VERTEX
  5
79
  8
LAYER_05
 10
2909.317242034488
 20
1760.99627814514
 30
0.0
  0
VERTEX
  5
7A
  8
LAYER_05
 10
2909.317242034488
 20
1526.286574615303
 30
0.0
  0
VERTEX
  5
7B
  8
LAYER_05
 10
3112.372251570405
 20
1526.286574615303
 30
0.0
  0
VERTEX
  5
7C
  8
LAYER_05
 10
3112.372251570406
 20
1167.067732664952
 30
0.0
  0
VERTEX
  5
7D
  8
LAYER_05
 10
3021.712370343305
 20
1167.067732664952
 30
0.0
  0
VERTEX
  5
7E
  8
LAYER_05
 10
3021.712370343305
 20
1251.05179739196
 30
0.0
  0
VERTEX
  5
7F
  8
LAYER_05
 10
2903.788231003231
 20
1251.05179739196
 30
0.0
  0
VERTEX
  5
80
  8
LAYER_05
 10
2903.788231003231
 20
1398.456971567052
 30
0.0
  0
SEQEND
  5
81
  8
LAYER_05
  0
POLYLINE
  5
82
  8
LAYER_05
 66
     1
 10
0.0
 20
0.0
 30
0.0
 70
     1
  0
VERTEX
  5
83
  8
LAYER_05
 10
2783.474595568196
 20
1362.814890267658
 30
0.0
  0
VERTEX
  5
84
  8
LAYER_05
 10
2868.146149703837
 20
1362.814890267658
 30
0.0
  0
VERTEX
  5
85
  8
LAYER_05
 10
2868.146149703837
 20
1251.05179739196
 30
0.0
  0
VERTEX
  5
86
  8
LAYER_05
 10
2783.474595568195
 20
1251.05179739196
 30
0.0
  0
SEQEND
  5
87
  8
LAYER_05
  0
POLYLINE
  5
88
  8
LAYER_05
 66
     1
 10
0.0
 20
0.0
 30
0.0
 70
     1
  0
VERTEX
  5
89
  8
LAYER_05
 10
3783.474595568195
 20
1167.067732664952
 30
0.0
  0
VERTEX
  5
8A
  8
LAYER_05
 10
3783.474595568195
 20
1356.318953815258
 30
0.0
  0
VERTEX
  5
8B
  8
LAYER_05
 10
3709.883588038833
 20
1356.318953815257
 30
0.0
  0
VERTEX
  5
8C
  8
LAYER_05
 10
3709.883588038834
 20
1264.262353561237
 30
0.0
  0
VERTEX
  5
8D
  8
LAYER_05
 10
3617.350773780192
 20
1264.262353561237
 30
0.0
  0
VERTEX
  5
8E
  8
LAYER_05
 10
3617.350773780192
 20
1167.067732664952
 30
0.0
  0
SEQEND
  5
8F
  8
LAYER_05
  0
POLYLINE
  5
90
  8
LAYER_05
 66
     1
 10
0.0
 20
0.0
 30
0.0
 70
     1
  0
VERTEX
  5
91
  8
LAYER_05
 10
3783.474595568195
 20
1131.425651365558
 30
0.0
  0
VERTEX
  5
92
  8
LAYER_05
 10
3617.350773780192
 20
1131.425651365558
 30
0.0
  0
VERTEX
  5
93
  8
LAYER_05
 10
3617.350773780192
 20
923.7895720414389
 30
0.0
  0
VERTEX
  5
94
  8
LAYER_05
 10
3723.466453719452
 20
923.7895720414388
 30
0.0
  0
VERTEX
  5
95
  8
LAYER_05
 10
3723.466453719452
 20
594.43666152537
 30
0.0
  0
VERTEX
  5
96
  8
LAYER_05
 10
3617.350773780192
 20
594.43666152537
 30
0.0
  0
VERTEX
  5
97
  8
LAYER_05
 10
3617.350773780192
 20
296.3680537079803
 30
0.0
  0
VERTEX
  5
98
  8
LAYER_05
 10
3783.474595568195
 20
296.3680537079804
 30
0.0
  0
SEQEND
  5
99
  8
LAYER_05
  0
POLYLINE
  5
9A
  8
LAYER_05
 66
     1
 10
0.0
 20
0.0
 30
0.0
 70
     1
  0
VERTEX
  5
9B
  8
LAYER_05
 10
3674.24150673944
 20
1638.990231220959
 30
0.0
  0
VERTEX
  5
9C
  8
LAYER_05
 10
3674.24150673944
 20
1669.898071972097
 30
0.0
  0
VERTEX
  5
9D
  8
LAYER_05
 10
3631.048497800453
 20
1669.898071972097
 30
0.0
  0
VERTEX
  5
9E
  8
LAYER_05
 10
3631.048497800453
 20
1638.990231220959
 30
0.0
  0
SEQEND
  5
9F
  8
LAYER_05
  0
POLYLINE
  5
A0
  8
LAYER_05
 66
     1
 10
0.0
 20
0.0
 30
0.0
 70
     1
  0
VERTEX
  5
A1
  8
LAYER_05
 10
3674.24150673944
 20
1603.348149921565
 30
0.0
  0
VERTEX
  5
A2
  8
LAYER_05
 10
3595.40641650106
 20
1603.348149921565
 30
0.0
  0
VERTEX
  5
A3
  8
LAYER_05
 10
3595.40641650106
 20
1669.898071972097
 30
0.0
  0
VERTEX
  5
A4
  8
LAYER_05
 10
3281.829640656557
 20
1669.898071972097
 30
0.0
  0
VERTEX
  5
A5
  8
LAYER_05
 10
3281.829640656557
 20
1647.842817608529
 30
0.0
  0
VERTEX
  5
A6
  8
LAYER_05
 10
3380.951047085642
 20
1647.842817608529
 30
0.0
  0
VERTEX
  5
A7
  8
LAYER_05
 10
3380.951047085642
 20
1526.286574615303
 30
0.0
  0
VERTEX
  5
A8
  8
LAYER_05
 10
3281.829640656557
 20
1526.286574615303
 30
0.0
  0
VERTEX
  5
A9
  8
LAYER_05
 10
3281.829640656557
 20
1391.961035114651
 30
0.0
  0
VERTEX
  5
AA
  8
LAYER_05
 10
3380.95213469914
 20
1391.961035114651
 30
0.0
  0
VERTEX
  5
AB
  8
LAYER_05
 10
3380.95213469914
 20
1299.904434860631
 30
0.0
  0
VERTEX
  5
AC
  8
LAYER_05
 10
3581.708692480798
 20
1299.904434860631
 30
0.0
  0
VERTEX
  5
AD
  8
LAYER_05
 10
3581.708692480798
 20
1391.961035114651
 30
0.0
  0
VERTEX
  5
AE
  8
LAYER_05
 10
3674.24150673944
 20
1391.961035114651
 30
0.0
  0
SEQEND
  5
AF
  8
LAYER_05
  0
POLYLINE
  5
B0
  8
LAYER_05
 66
     1
 10
0.0
 20
0.0
 30
0.0
 70
     1
  0
VERTEX
  5
B1
  8
LAYER_05
 10
3023.636999145568
 20
2165.642119241833
 30
0.0
  0
VERTEX
  5
B2
  8
LAYER_05
 10
3023.636999145568
 20
1561.928655914697
 30
0.0
  0
VERTEX
  5
B3
  8
LAYER_05
 10
2944.959323333881
 20
1561.928655914697
 30
0.0
  0
VERTEX
  5
B4
  8
LAYER_05
 10
2944.959323333881
 20
2165.642119241833
 30
0.0
  0
SEQEND
  5
B5
  8
LAYER_05
  0
POLYLINE
  5
B6
  8
LAYER_05
 66
     1
 10
0.0
 20
0.0
 30
0.0
 70
     1
  0
VERTEX
  5
B7
  8
LAYER_05
 10
3225.665897350942
 20
2569.692639114178
 30
0.0
  0
VERTEX
  5
B8
  8
LAYER_05
 10
3225.665897350942
 20
2455.229966651972
 30
0.0
  0
VERTEX
  5
B9
  8
LAYER_05
 10
3279.886353036609
 20
2455.229966651972
 30
0.0
  0
VERTEX
  5
BA
  8
LAYER_05
 10
3279.886353036609
 20
2569.692639114177
 30
0.0
  0
SEQEND
  5
BB
  8
LAYER_05
  0
POLYLINE
  5
BC
  8
LAYER_05
 66
     1
 10
0.0
 20
0.0
 30
0.0
 70
     1
  0
VERTEX
  5
BD
  8
LAYER_05
 10
3408.328091472676
 20
2048.419427967644
 30
0.0
  0
VERTEX
  5
BE
  8
LAYER_05
 10
3408.328091472676
 20
1980.016361756029
 30
0.0
  0
VERTEX
  5
BF
  8
LAYER_05
 10
3059.279080444962
 20
1980.016361756029
 30
0.0
  0
VERTEX
  5
C0
  8
LAYER_05
 10
3059.279080444962
 20
2165.642119241833
 30
0.0
  0
VERTEX
  5
C1
  8
LAYER_05
 10
3171.917494470423
 20
2165.642119241834
 30
0.0
  0
VERTEX
  5
C2
  8
LAYER_05
 10
3171.917494470423
 20
2048.419427967646
 30
0.0
  0
SEQEND
  5
C3
  8
LAYER_05
  0
POLYLINE
  5
C4
  8
LAYER_05
 66
     1
 10
0.0
 20
0.0
 30
0.0
 70
     1
  0
VERTEX
  5
C5
  8
LAYER_05
 10
3499.410601219891
 20
2128.38799491377
 30
0.0
  0
VERTEX
  5
C6
  8
LAYER_05
 10
3443.970172772069
 20
2128.38799491377
 30
0.0
  0
VERTEX
  5
C7
  8
LAYER_05
 10
3443.970172772069
 20
2084.06150926704
 30
0.0
  0
VERTEX
  5
C8
  8
LAYER_05
 10
3499.410601219891
 20
2084.06150926704
 30
0.0
  0
SEQEND
  5
C9
  8
LAYER_05
  0
POLYLINE
  5
CA
  8
LAYER_05
 66
     1
 10
0.0
 20
0.0
 30
0.0
 70
     1
  0
VERTEX
  5
CB
  8
LAYER_05
 10
3535.052682519285
 20
2164.030076213163
 30
0.0
  0
VERTEX
  5
CC
  8
LAYER_05
 10
3535.052682519285
 20
2258.395557111544
 30
0.0
  0
VERTEX
  5
CD
  8
LAYER_05
 10
3315.528434336003
 20
2258.395557111545
 30
0.0
  0
VERTEX
  5
CE
  8
LAYER_05
 10
3315.528434336004
 20
2419.587885352578
 30
0.0
  0
VERTEX
  5
CF
  8
LAYER_05
 10
3595.631484487744
 20
2419.587885352578
 30
0.0
  0
VERTEX
  5
D0
  8
LAYER_05
 10
3595.631484487744
 20
2164.030076213164
 30
0.0
  0
SEQEND
  5
D1
  8
LAYER_05
  0
POLYLINE
  5
D2
  8
LAYER_05
 66
     1
 10
0.0
 20
0.0
 30
0.0
 70
     1
  0
VERTEX
  5
D3
  8
LAYER_05
 10
2878.727835951392
 20
2478.148618770124
 30
0.0
  0
VERTEX
  5
D4
  8
LAYER_05
 10
2878.727835951392
 20
2201.284200541227
 30
0.0
  0
VERTEX
  5
D5
  8
LAYER_05
 10
2909.317242034488
 20
2201.284200541227
 30
0.0
  0
VERTEX
  5
D6
  8
LAYER_05
 10
2909.317242034488
 20
2282.330425451737
 30
0.0
  0
VERTEX
  5
D7
  8
LAYER_05
 10
3059.279080444962
 20
2282.330425451737
 30
0.0
  0
VERTEX
  5
D8
  8
LAYER_05
 10
3059.279080444961
 20
2201.284200541227
 30
0.0
  0
VERTEX
  5
D9
  8
LAYER_05
 10
3171.917494470423
 20
2201.284200541227
 30
0.0
  0
VERTEX
  5
DA
  8
LAYER_05
 10
3171.917494470423
 20
2258.395557111544
 30
0.0
  0
VERTEX
  5
DB
  8
LAYER_05
 10
3279.88635303661
 20
2258.395557111544
 30
0.0
  0
VERTEX
  5
DC
  8
LAYER_05
 10
3279.886353036609
 20
2419.587885352578
 30
0.0
  0
VERTEX
  5
DD
  8
LAYER_05
 10
3190.023816051548
 20
2419.587885352578
 30
0.0
  0
VERTEX
  5
DE
  8
LAYER_05
 10
3190.023816051548
 20
2569.692639114177
 30
0.0
  0
VERTEX
  5
DF
  8
LAYER_05
 10
2984.905973313433
 20
2569.692639114177
 30
0.0
  0
VERTEX
  5
E0
  8
LAYER_05
 10
2984.905973313433
 20
2478.148618770125
 30
0.0
  0
SEQEND
  5
E1
  8
LAYER_05
  0
POLYLINE
  5
E2
  8
LAYER_05
 66
     1
 10
0.0
 20
0.0
 30
0.0
 70
     1
  0
VERTEX
  5
E3
  8
LAYER_05
 10
2783.474595568195
 20
2513.790700069519
 30
0.0
  0
VERTEX
  5
E4
  8
LAYER_05
 10
2843.085754651998
 20
2513.790700069519
 30
0.0
  0
VERTEX
  5
E5
  8
LAYER_05
 10
2843.085754651998
 20
2605.334720413571
 30
0.0
  0
VERTEX
  5
E6
  8
LAYER_05
 10
2949.263892014039
 20
2605.334720413572
 30
0.0
  0
VERTEX
  5
E7
  8
LAYER_05
 10
2949.263892014039
 20
2661.555767018561
 30
0.0
  0
VERTEX
  5
E8
  8
LAYER_05
 10
2783.474595568195
 20
2661.555767018561
 30
0.0
  0
SEQEND
  5
E9
  8
LAYER_05
  0
POLYLINE
  5
EA
  8
LAYER_05
 66
     1
 10
0.0
 20
0.0
 30
0.0
 70
     1
  0
VERTEX
  5
EB
  8
LAYER_05
 10
3190.023816051548
 20
2605.334720413572
 30
0.0
  0
VERTEX
  5
EC
  8
LAYER_05
 10
2984.905973313433
 20
2605.334720413572
 30
0.0
  0
VERTEX
  5
ED
  8
LAYER_05
 10
2984.905973313433
 20
2661.555767018561
 30
0.0
  0
VERTEX
  5
EE
  8
LAYER_05
 10
3190.023816051548
 20
2661.555767018561
 30
0.0
  0
SEQEND
  5
EF
  8
LAYER_05
  0
POLYLINE
  5
F0
  8
LAYER_05
 66
     1
 10
0.0
 20
0.0
 30
0.0
 70
     1
  0
VERTEX
  5
F1
  8
LAYER_05
 10
2909.317242034487
 20
1980.016361756029
 30
0.0
  0
VERTEX
  5
F2
  8
LAYER_05
 10
2783.474595568195
 20
1980.016361756029
 30
0.0
  0
VERTEX
  5
F3
  8
LAYER_05
 10
2783.474595568195
 20
2478.148618770125
 30
0.0
  0
VERTEX
  5
F4
  8
LAYER_05
 10
2843.085754651998
 20
2478.148618770125
 30
0.0
  0
VERTEX
  5
F5
  8
LAYER_05
 10
2843.085754651998
 20
2165.642119241833
 30
0.0
  0
VERTEX
  5
F6
  8
LAYER_05
 10
2909.317242034487
 20
2165.642119241833
 30
0.0
  0
SEQEND
  5
F7
  8
LAYER_05
  0
POLYLINE
  5
F8
  8
LAYER_05
 66
     1
 10
0.0
 20
0.0
 30
0.0
 70
     1
  0
VERTEX
  5
F9
  8
LAYER_05
 10
2783.474595568195
 20
911.5116030851972
 30
0.0
  0
VERTEX
  5
FA
  8
LAYER_05
 10
2783.474595568195
 20
667.2455074385157
 30
0.0
  0
VERTEX
  5
FB
  8
LAYER_05
 10
2838.728686831592
 20
667.2455074385158
 30
0.0
  0
VERTEX
  5
FC
  8
LAYER_05
 10
2838.728686831592
 20
911.5116030851965
 30
0.0
  0
SEQEND
  5
FD
  8
LAYER_05
  0
POLYLINE
  5
FE
  8
LAYER_05
 66
     1
 10
0.0
 20
0.0
 30
0.0
 70
     1
  0
VERTEX
  5
FF
  8
LAYER_05
 10
3439.693462125148
 20
667.2455074385164
 30
0.0
  0
VERTEX
  5
100
  8
LAYER_05
 10
3439.693462125148
 20
888.147490742045
 30
0.0
  0
VERTEX
  5
101
  8
LAYER_05
 10
3282.988400813993
 20
888.147490742045
 30
0.0
  0
VERTEX
  5
102
  8
LAYER_05
 10
3282.988400813992
 20
667.2455074385164
 30
0.0
  0
SEQEND
  5
103
  8
LAYER_05
  0
POLYLINE
  5
104
  8
LAYER_05
 66
     1
 10
0.0
 20
0.0
 30
0.0
 70
     1
  0
VERTEX
  5
105
  8
LAYER_05
 10
3617.350773780192
 20
630.0787428247639
 30
0.0
  0
VERTEX
  5
106
  8
LAYER_05
 10
3617.350773780192
 20
888.147490742045
 30
0.0
  0
VERTEX
  5
107
  8
LAYER_05
 10
3687.824372420058
 20
888.147490742045
 30
0.0
  0
VERTEX
  5
108
  8
LAYER_05
 10
3687.824372420058
 20
630.0787428247638
 30
0.0
  0
SEQEND
  5
109
  8
LAYER_05
  0
POLYLINE
  5
10A
  8
LAYER_05
 66
     1
 10
0.0
 20
0.0
 30
0.0
 70
     1
  0
VERTEX
  5
10B
  8
LAYER_05
 10
2838.728686831592
 20
631.6034261391221
 30
0.0
  0
VERTEX
  5
10C
  8
LAYER_05
 10
2838.728686831592
 20
453.55210274076
 30
0.0
  0
VERTEX
  5
10D
  8
LAYER_05
 10
2783.474595568195
 20
453.5521027407599
 30
0.0
  0
VERTEX
  5
10E
  8
LAYER_05
 10
2783.474595568195
 20
631.6034261391219
 30
0.0
  0
SEQEND
  5
10F
  8
LAYER_05
  0
POLYLINE
  5
110
  8
LAYER_05
 66
     1
 10
0.0
 20
0.0
 30
0.0
 70
     1
  0
VERTEX
  5
111
  8
LAYER_05
 10
3674.24150673944
 20
1356.318953815257
 30
0.0
  0
VERTEX
  5
112
  8
LAYER_05
 10
3617.350773780192
 20
1356.318953815257
 30
0.0
  0
VERTEX
  5
113
  8
LAYER_05
 10
3617.350773780192
 20
1299.904434860631
 30
0.0
  0
VERTEX
  5
114
  8
LAYER_05
 10
3674.24150673944
 20
1299.904434860631
 30
0.0
  0
SEQEND
  5
115
  8
LAYER_05
  0
POLYLINE
  5
116
  8
LAYER_05
 66
     1
 10
0.0
 20
0.0
 30
0.0
 70
     1
  0
VERTEX
  5
117
  8
LAYER_05
 10
3345.310053399746
 20
1264.262353561237
 30
0.0
  0
VERTEX
  5
118
  8
LAYER_05
 10
3345.310053399746
 20
1184.925559202174
 30
0.0
  0
VERTEX
  5
119
  8
LAYER_05
 10
3148.0143328698
 20
1184.925559202174
 30
0.0
  0
VERTEX
  5
11A
  8
LAYER_05
 10
3148.0143328698
 20
1356.318953815257
 30
0.0
  0
VERTEX
  5
11B
  8
LAYER_05
 10
3246.187559357163
 20
1356.318953815257
 30
0.0
  0
VERTEX
  5
11C
  8
LAYER_05
 10
3246.187559357163
 20
1264.262353561237
 30
0.0
  0
SEQEND
  5
11D
  8
LAYER_05
  0
POLYLINE
  5
11E
  8
LAYER_05
 66
     1
 10
0.0
 20
0.0
 30
0.0
 70
     1
  0
VERTEX
  5
11F
  8
LAYER_05
 10
3345.310053399746
 20
1299.904434860631
 30
0.0
  0
VERTEX
  5
120
  8
LAYER_05
 10
3345.310053399746
 20
1356.318953815257
 30
0.0
  0
VERTEX
  5
121
  8
LAYER_05
 10
3281.829640656557
 20
1356.318953815257
 30
0.0
  0
VERTEX
  5
122
  8
LAYER_05
 10
3281.829640656557
 20
1299.904434860631
 30
0.0
  0
SEQEND
  5
123
  8
LAYER_05
  0
POLYLINE
  5
124
  8
LAYER_05
 66
     1
 10
0.0
 20
0.0
 30
0.0
 70
     1
  0
VERTEX
  5
125
  8
LAYER_05
 10
3148.0143328698
 20
1391.961035114651
 30
0.0
  0
VERTEX
  5
126
  8
LAYER_05
 10
3148.014332869799
 20
1526.286574615303
 30
0.0
  0
VERTEX
  5
127
  8
LAYER_05
 10
3246.187559357163
 20
1526.286574615303
 30
0.0
  0
VERTEX
  5
128
  8
LAYER_05
 10
3246.187559357163
 20
1391.961035114651
 30
0.0
  0
SEQEND
  5
129
  8
LAYER_05
  0
POLYLINE
  5
12A
  8
LAYER_05
 66
     1
 10
0.0
 20
0.0
 30
0.0
 70
     1
  0
VERTEX
  5
12B
  8
LAYER_05
 10
3246.187559357163
 20
1561.928655914697
 30
0.0
  0
VERTEX
  5
12C
  8
LAYER_05
 10
3059.279080444962
 20
1561.928655914697
 30
0.0
  0
VERTEX
  5
12D
  8
LAYER_05
 10
3059.279080444962
 20
1612.200736309135
 30
0.0
  0
VERTEX
  5
12E
  8
LAYER_05
 10
3246.187559357163
 20
1612.200736309135
 30
0.0
  0
SEQEND
  5
12F
  8
LAYER_05
  0
POLYLINE
  5
130
  8
LAYER_05
 66
     1
 10
0.0
 20
0.0
 30
0.0
 70
     1
  0
VERTEX
  5
131
  8
LAYER_05
 10
3059.279080444961
 20
1760.99627814514
 30
0.0
  0
VERTEX
  5
132
  8
LAYER_05
 10
3408.328091472676
 20
1760.99627814514
 30
0.0
  0
VERTEX
  5
133
  8
LAYER_05
 10
3408.328091472676
 20
1705.540153271491
 30
0.0
  0
VERTEX
  5
134
  8
LAYER_05
 10
3246.187559357163
 20
1705.540153271491
 30
0.0
  0
VERTEX
  5
135
  8
LAYER_05
 10
3246.187559357163
 20
1647.842817608529
 30
0.0
  0
VERTEX
  5
136
  8
LAYER_05
 10
3059.279080444962
 20
1647.842817608529
 30
0.0
  0
SEQEND
  5
137
  8
LAYER_05
  0
POLYLINE
  5
138
  8
LAYER_05
 66
     1
 10
0.0
 20
0.0
 30
0.0
 70
     1
  0
VERTEX
  5
139
  8
LAYER_05
 10
3281.829640656557
 20
1561.928655914697
 30
0.0
  0
VERTEX
  5
13A
  8
LAYER_05
 10
3345.308965786248
 20
1561.928655914697
 30
0.0
  0
VERTEX
  5
13B
  8
LAYER_05
 10
3345.308965786248
 20
1612.200736309135
 30
0.0
  0
VERTEX
  5
13C
  8
LAYER_05
 10
3281.829640656557
 20
1612.200736309135
 30
0.0
  0
SEQEND
  5
13D
  8
LAYER_05
  0
POLYLINE
  5
13E
  8
LAYER_05
 66
     1
 10
0.0
 20
0.0
 30
0.0
 70
     1
  0
VERTEX
  5
13F
  8
LAYER_05
 10
3595.40641650106
 20
1944.374280456635
 30
0.0
  0
VERTEX
  5
140
  8
LAYER_05
 10
3595.40641650106
 20
1705.540153271491
 30
0.0
  0
VERTEX
  5
141
  8
LAYER_05
 10
3443.970172772069
 20
1705.540153271491
 30
0.0
  0
VERTEX
  5
142
  8
LAYER_05
 10
3443.970172772069
 20
1944.374280456635
 30
0.0
  0
SEQEND
  5
143
  8
LAYER_05
  0
POLYLINE
  5
144
  8
LAYER_05
 66
     1
 10
0.0
 20
0.0
 30
0.0
 70
     1
  0
VERTEX
  5
145
  8
LAYER_05
 10
3783.474595568195
 20
1733.505821855686
 30
0.0
  0
VERTEX
  5
146
  8
LAYER_05
 10
3783.474595568195
 20
1638.990231220958
 30
0.0
  0
VERTEX
  5
147
  8
LAYER_05
 10
3709.883588038834
 20
1638.990231220959
 30
0.0
  0
VERTEX
  5
148
  8
LAYER_05
 10
3709.883588038834
 20
1705.540153271491
 30
0.0
  0
VERTEX
  5
149
  8
LAYER_05
 10
3631.048497800453
 20
1705.540153271491
 30
0.0
  0
VERTEX
  5
14A
  8
LAYER_05
 10
3631.048497800453
 20
1944.374280456635
 30
0.0
  0
VERTEX
  5
14B
  8
LAYER_05
 10
3718.940420094644
 20
1944.374280456635
 30
0.0
  0
VERTEX
  5
14C
  8
LAYER_05
 10
3718.940420094644
 20
2128.38799491377
 30
0.0
  0
VERTEX
  5
14D
  8
LAYER_05
 10
3783.474595568196
 20
2128.38799491377
 30
0.0
  0
VERTEX
  5
14E
  8
LAYER_05
 10
3783.474595568195
 20
1917.132005381527
 30
0.0
  0
VERTEX
  5
14F
  8
LAYER_05
 10
3706.706222278684
 20
1917.132005381527
 30
0.0
  0
VERTEX
  5
150
  8
LAYER_05
 10
3706.706222278684
 20
1733.505821855686
 30
0.0
  0
SEQEND
  5
151
  8
LAYER_05
  0
POLYLINE
  5
152
  8
LAYER_05
 66
     1
 10
0.0
 20
0.0
 30
0.0
 70
     1
  0
VERTEX
  5
153
  8
LAYER_05
 10
3408.328091472676
 20
1796.638359444534
 30
0.0
  0
VERTEX
  5
154
  8
LAYER_05
 10
3059.279080444962
 20
1796.638359444534
 30
0.0
  0
VERTEX
  5
155
  8
LAYER_05
 10
3059.279080444962
 20
1944.374280456635
 30
0.0
  0
VERTEX
  5
156
  8
LAYER_05
 10
3408.328091472676
 20
1944.374280456635
 30
0.0
  0
SEQEND
  5
157
  8
LAYER_05
  0
POLYLINE
  5
158
  8
LAYER_05
 66
     1
 10
0.0
 20
0.0
 30
0.0
 70
     1
  0
VERTEX
  5
159
  8
LAYER_05
 10
2823.42477914071
 20
1796.638359444534
 30
0.0
  0
VERTEX
  5
15A
  8
LAYER_05
 10
2909.317242034488
 20
1796.638359444534
 30
0.0
  0
VERTEX
  5
15B
  8
LAYER_05
 10
2909.317242034488
 20
1944.374280456635
 30
0.0
  0
VERTEX
  5
15C
  8
LAYER_05
 10
2823.424779140711
 20
1944.374280456635
 30
0.0
  0
SEQEND
  5
15D
  8
LAYER_05
  0
POLYLINE
  5
15E
  8
LAYER_05
 66
     1
 10
0.0
 20
0.0
 30
0.0
 70
     1
  0
VERTEX
  5
15F
  8
LAYER_05
 10
2986.070289043911
 20
1010.215235222915
 30
0.0
  0
VERTEX
  5
160
  8
LAYER_05
 10
2986.070289043911
 20
1215.409716092566
 30
0.0
  0
VERTEX
  5
161
  8
LAYER_05
 10
2822.952701971815
 20
1215.409716092566
 30
0.0
  0
VERTEX
  5
162
  8
LAYER_05
 10
2822.952701971815
 20
947.1536843845902
 30
0.0
  0
VERTEX
  5
163
  8
LAYER_05
 10
2838.728686831592
 20
947.1536843845902
 30
0.0
  0
VERTEX
  5
164
  8
LAYER_05
 10
2838.728686831592
 20
1010.215235222915
 30
0.0
  0
SEQEND
  5
165
  8
LAYER_05
  0
POLYLINE
  5
166
  8
LAYER_05
 66
     1
 10
0.0
 20
0.0
 30
0.0
 70
     1
  0
VERTEX
  5
167
  8
LAYER_05
 10
2934.808740389178
 20
453.55210274076
 30
0.0
  0
VERTEX
  5
168
  8
LAYER_05
 10
2934.808740389178
 20
974.573153923521
 30
0.0
  0
VERTEX
  5
169
  8
LAYER_05
 10
2874.370768130986
 20
974.573153923521
 30
0.0
  0
VERTEX
  5
16A
  8
LAYER_05
 10
2874.370768130986
 20
453.5521027407601
 30
0.0
  0
SEQEND
  5
16B
  8
LAYER_05
  0
POLYLINE
  5
16C
  8
LAYER_05
 66
     1
 10
0.0
 20
0.0
 30
0.0
 70
     1
  0
VERTEX
  5
16D
  8
LAYER_05
 10
2970.450821688571
 20
923.7895720414388
 30
0.0
  0
VERTEX
  5
16E
  8
LAYER_05
 10
3439.693462125148
 20
923.7895720414388
 30
0.0
  0
VERTEX
  5
16F
  8
LAYER_05
 10
3439.693462125148
 20
974.573153923521
 30
0.0
  0
VERTEX
  5
170
  8
LAYER_05
 10
2970.450821688572
 20
974.573153923521
 30
0.0
  0
SEQEND
  5
171
  8
LAYER_05
  0
POLYLINE
  5
172
  8
LAYER_05
 66
     1
 10
0.0
 20
0.0
 30
0.0
 70
     1
  0
VERTEX
  5
173
  8
LAYER_05
 10
2970.450821688572
 20
667.2455074385159
 30
0.0
  0
VERTEX
  5
174
  8
LAYER_05
 10
2970.450821688572
 20
888.147490742045
 30
0.0
  0
VERTEX
  5
175
  8
LAYER_05
 10
3247.3463195146
 20
888.147490742045
 30
0.0
  0
VERTEX
  5
176
  8
LAYER_05
 10
3247.346319514599
 20
667.2455074385164
 30
0.0
  0
SEQEND
  5
177
  8
LAYER_05
  0
POLYLINE
  5
178
  8
LAYER_05
 66
     1
 10
0.0
 20
0.0
 30
0.0
 70
     1
  0
VERTEX
  5
179
  8
LAYER_05
 10
3439.693462125148
 20
529.6723080795036
 30
0.0
  0
VERTEX
  5
17A
  8
LAYER_05
 10
3439.693462125148
 20
631.6034261391228
 30
0.0
  0
VERTEX
  5
17B
  8
LAYER_05
 10
2970.450821688572
 20
631.6034261391221
 30
0.0
  0
VERTEX
  5
17C
  8
LAYER_05
 10
2970.450821688572
 20
453.55210274076
 30
0.0
  0
VERTEX
  5
17D
  8
LAYER_05
 10
3077.620388732686
 20
453.55210274076
 30
0.0
  0
VERTEX
  5
17E
  8
LAYER_05
 10
3077.620388732686
 20
529.6723080795038
 30
0.0
  0
SEQEND
  5
17F
  8
LAYER_05
  0
POLYLINE
  5
180
  8
LAYER_05
 66
     1
 10
0.0
 20
0.0
 30
0.0
 70
     1
  0
VERTEX
  5
181
  8
LAYER_05
 10
3280.660688817712
 20
369.5963884498025
 30
0.0
  0
VERTEX
  5
182
  8
LAYER_05
 10
3400.440159985918
 20
369.5963884498025
 30
0.0
  0
VERTEX
  5
183
  8
LAYER_05
 10
3400.440159985918
 20
494.03022678011
 30
0.0
  0
VERTEX
  5
184
  8
LAYER_05
 10
3475.335543424542
 20
494.03022678011
 30
0.0
  0
VERTEX
  5
185
  8
LAYER_05
 10
3475.335543424542
 20
888.147490742045
 30
0.0
  0
VERTEX
  5
186
  8
LAYER_05
 10
3581.708692480798
 20
888.1474907420449
 30
0.0
  0
VERTEX
  5
187
  8
LAYER_05
 10
3581.708692480798
 20
296.3680537079804
 30
0.0
  0
VERTEX
  5
188
  8
LAYER_05
 10
3280.660688817713
 20
296.3680537079804
 30
0.0
  0
SEQEND
  5
189
  8
LAYER_05
  0
POLYLINE
  5
18A
  8
LAYER_05
 66
     1
 10
0.0
 20
0.0
 30
0.0
 70
     1
  0
VERTEX
  5
18B
  8
LAYER_05
 10
3443.970172772069
 20
2048.419427967646
 30
0.0
  0
VERTEX
  5
18C
  8
LAYER_05
 10
3443.970172772069
 20
1980.016361756029
 30
0.0
  0
VERTEX
  5
18D
  8
LAYER_05
 10
3683.29833879525
 20
1980.016361756029
 30
0.0
  0
VERTEX
  5
18E
  8
LAYER_05
 10
3683.29833879525
 20
2128.38799491377
 30
0.0
  0
VERTEX
  5
18F
  8
LAYER_05
 10
3535.052682519285
 20
2128.38799491377
 30
0.0
  0
VERTEX
  5
190
  8
LAYER_05
 10
3535.052682519285
 20
2048.419427967646
 30
0.0
  0
SEQEND
  5
191
  8
LAYER_05
  0
POLYLINE
  5
192
  8
LAYER_05
 66
     1
 10
0.0
 20
0.0
 30
0.0
 70
     1
  0
VERTEX
  5
193
  8
LAYER_05
 10
3207.559575769817
 20
2165.642119241833
 30
0.0
  0
VERTEX
  5
194
  8
LAYER_05
 10
3315.528434336003
 20
2165.642119241833
 30
0.0
  0
VERTEX
  5
195
  8
LAYER_05
 10
3315.528434336003
 20
2222.753475812151
 30
0.0
  0
VERTEX
  5
196
  8
LAYER_05
 10
3499.410601219891
 20
2222.753475812151
 30
0.0
  0
VERTEX
  5
197
  8
LAYER_05
 10
3499.410601219891
 20
2164.030076213164
 30
0.0
  0
VERTEX
  5
198
  8
LAYER_05
 10
3408.328091472676
 20
2164.030076213164
 30
0.0
  0
VERTEX
  5
199
  8
LAYER_05
 10
3408.328091472676
 20
2084.06150926704
 30
0.0
  0
VERTEX
  5
19A
  8
LAYER_05
 10
3207.559575769817
 20
2084.06150926704
 30
0.0
  0
SEQEND
  5
19B
  8
LAYER_05
  0
POLYLINE
  5
19C
  8
LAYER_05
 66
     1
 10
0.0
 20
0.0
 30
0.0
 70
     1
  0
VERTEX
  5
19D
  8
LAYER_05
 10
3670.70650408101
 20
2661.555767018561
 30
0.0
  0
VERTEX
  5
19E
  8
LAYER_05
 10
3783.474595568195
 20
2661.555767018561
 30
0.0
  0
VERTEX
  5
19F
  8
LAYER_05
 10
3783.474595568195
 20
2164.030076213163
 30
0.0
  0
VERTEX
  5
1A0
  8
LAYER_05
 10
3631.273565787138
 20
2164.030076213164
 30
0.0
  0
VERTEX
  5
1A1
  8
LAYER_05
 10
3631.273565787138
 20
2419.587885352578
 30
0.0
  0
VERTEX
  5
1A2
  8
LAYER_05
 10
3670.706504081011
 20
2419.587885352578
 30
0.0
  0
SEQEND
  5
1A3
  8
LAYER_05
  0
POLYLINE
  5
1A4
  8
LAYER_05
 66
     1
 10
0.0
 20
0.0
 30
0.0
 70
     1
  0
VERTEX
  5
1A5
  8
LAYER_05
 10
3207.559575769817
 20
2201.284200541227
 30
0.0
  0
VERTEX
  5
1A6
  8
LAYER_05
 10
3279.886353036609
 20
2201.284200541227
 30
0.0
  0
VERTEX
  5
1A7
  8
LAYER_05
 10
3279.886353036609
 20
2222.753475812151
 30
0.0
  0
VERTEX
  5
1A8
  8
LAYER_05
 10
3207.559575769817
 20
2222.753475812151
 30
0.0
  0
SEQEND
  5
1A9
  8
LAYER_05
  0
POLYLINE
  5
1AA
  8
LAYER_05
 66
     1
 10
0.0
 20
0.0
 30
0.0
 70
     1
  0
VERTEX
  5
1AB
  8
LAYER_05
 10
2944.959323333881
 20
2201.284200541227
 30
0.0
  0
VERTEX
  5
1AC
  8
LAYER_05
 10
3023.636999145568
 20
2201.284200541227
 30
0.0
  0
VERTEX
  5
1AD
  8
LAYER_05
 10
3023.636999145568
 20
2246.688344152344
 30
0.0
  0
VERTEX
  5
1AE
  8
LAYER_05
 10
2944.959323333881
 20
2246.688344152344
 30
0.0
  0
SEQEND
  5
1AF
  8
LAYER_05
  0
POLYLINE
  5
1B0
  8
LAYER_05
 66
     1
 10
0.0
 20
0.0
 30
0.0
 70
     1
  0
VERTEX
  5
1B1
  8
LAYER_05
 10
2949.263892014039
 20
2569.692639114177
 30
0.0
  0
VERTEX
  5
1B2
  8
LAYER_05
 10
2878.727835951392
 20
2569.692639114177
 30
0.0
  0
VERTEX
  5
1B3
  8
LAYER_05
 10
2878.727835951392
 20
2513.790700069519
 30
0.0
  0
VERTEX
  5
1B4
  8
LAYER_05
 10
2949.263892014039
 20
2513.790700069519
 30
0.0
  0
SEQEND
  5
1B5
  8
LAYER_05
  0
POLYLINE
  5
1B6
  8
LAYER_05
 66
     1
 10
0.0
 20
0.0
 30
0.0
 70
     1
  0
VERTEX
  5
1B7
  8
LAYER_05
 10
3225.665897350942
 20
2605.334720413572
 30
0.0
  0
VERTEX
  5
1B8
  8
LAYER_05
 10
3315.528434336003
 20
2605.334720413571
 30
0.0
  0
VERTEX
  5
1B9
  8
LAYER_05
 10
3315.528434336003
 20
2455.229966651972
 30
0.0
  0
VERTEX
  5
1BA
  8
LAYER_05
 10
3635.064422781617
 20
2455.229966651972
 30
0.0
  0
VERTEX
  5
1BB
  8
LAYER_05
 10
3635.064422781617
 20
2661.55576701856
 30
0.0
  0
VERTEX
  5
1BC
  8
LAYER_05
 10
3225.665897350942
 20
2661.555767018561
 30
0.0
  0
SEQEND
  5
1BD
  8
LAYER_05
  0
POLYLINE
  5
1BE
  8
LAYER_05
 66
     1
 10
0.0
 20
0.0
 30
0.0
 70
     1
  0
VERTEX
  5
1BF
  8
LAYER_05
 10
3581.708692480798
 20
1264.262353561238
 30
0.0
  0
VERTEX
  5
1C0
  8
LAYER_05
 10
3581.708692480798
 20
923.7895720414386
 30
0.0
  0
VERTEX
  5
1C1
  8
LAYER_05
 10
3475.335543424542
 20
923.7895720414388
 30
0.0
  0
VERTEX
  5
1C2
  8
LAYER_05
 10
3475.335543424542
 20
1010.215235222915
 30
0.0
  0
VERTEX
  5
1C3
  8
LAYER_05
 10
3380.952134699141
 20
1010.215235222915
 30
0.0
  0
VERTEX
  5
1C4
  8
LAYER_05
 10
3380.95213469914
 20
1264.262353561237
 30
0.0
  0
SEQEND
  5
1C5
  8
LAYER_05
  0
POLYLINE
  5
1C6
  8
LAYER_05
 66
     1
 10
0.0
 20
0.0
 30
0.0
 70
     1
  0
VERTEX
  5
1C7
  8
LAYER_05
 10
3345.310053399746
 20
1131.425651365558
 30
0.0
  0
VERTEX
  5
1C8
  8
LAYER_05
 10
3345.310053399747
 20
1010.215235222915
 30
0.0
  0
VERTEX
  5
1C9
  8
LAYER_05
 10
3021.712370343304
 20
1010.215235222915
 30
0.0
  0
VERTEX
  5
1CA
  8
LAYER_05
 10
3021.712370343305
 20
1131.425651365558
 30
0.0
  0
SEQEND
  5
1CB
  8
LAYER_05
  0
POLYLINE
  5
1CC
  8
LAYER_05
 66
     1
 10
0.0
 20
0.0
 30
0.0
 70
     1
  0
VERTEX
  5
1CD
  8
LAYER_05
 10
3245.01860751832
 20
296.3680537079804
 30
0.0
  0
VERTEX
  5
1CE
  8
LAYER_05
 10
2783.474595568195
 20
296.3680537079804
 30
0.0
  0
VERTEX
  5
1CF
  8
LAYER_05
 10
2783.474595568195
 20
417.9100214413661
 30
0.0
  0
VERTEX
  5
1D0
  8
LAYER_05
 10
3077.620388732686
 20
417.9100214413662
 30
0.0
  0
VERTEX
  5
1D1
  8
LAYER_05
 10
3077.620388732686
 20
369.5963884498025
 30
0.0
  0
VERTEX
  5
1D2
  8
LAYER_05
 10
3245.018607518319
 20
369.5963884498024
 30
0.0
  0
SEQEND
  5
1D3
  8
LAYER_05
  0
POLYLINE
  5
1D4
  8
LAYER_05
 66
     1
 10
0.0
 20
0.0
 30
0.0
 70
     1
  0
VERTEX
  5
1D5
  8
LAYER_05
 10
3113.262470032079
 20
405.2384697491963
 30
0.0
  0
VERTEX
  5
1D6
  8
LAYER_05
 10
3364.798078686525
 20
405.2384697491963
 30
0.0
  0
VERTEX
  5
1D7
  8
LAYER_05
 10
3364.798078686525
 20
494.03022678011
 30
0.0
  0
VERTEX
  5
1D8
  8
LAYER_05
 10
3113.262470032079
 20
494.03022678011
 30
0.0
  0
SEQEND
  5
1D9
  8
LAYER_05
  0
ENDSEC
  0
EOF
