  0
SECTION
  2
HEADER
  9
$ACADVER
  1
AC1009
  9
$DWGCODEPAGE
  3
ansi_1252
  9
$INSBASE
 10
0.0
 20
0.0
 30
0.0
  9
$EXTMIN
 10
1.000000000000000E+20
 20
1.000000000000000E+20
 30
1.000000000000000E+20
  9
$EXTMAX
 10
-1.000000000000000E+20
 20
-1.000000000000000E+20
 30
-1.000000000000000E+20
  9
$LIMMIN
 10
0.0
 20
0.0
  9
$LIMMAX
 10
12.0
 20
9.0
  9
$ORTHOMODE
 70
     0
  9
$REGENMODE
 70
     1
  9
$FILLMODE
 70
     1
  9
$QTEXTMODE
 70
     0
  9
$MIRRTEXT
 70
     1
  9
$DRAGMODE
 70
     2
  9
$LTSCALE
 40
1.0
  9
$OSMODE
 70
    37
  9
$ATTMODE
 70
     1
  9
$TEXTSIZE
 40
0.2
  9
$TRACEWID
 40
0.05
  9
$TEXTSTYLE
  7
STANDARD
  9
$CLAYER
  8
LAYER_01
  9
$CELTYPE
  6
BYLAYER
  9
$CECOLOR
 62
   256
  9
$DIMSCALE
 40
1.0
  9
$DIMASZ
 40
0.18
  9
$DIMEXO
 40
0.0625
  9
$DIMDLI
 40
0.38
  9
$DIMRND
 40
0.0
  9
$DIMDLE
 40
0.0
  9
$DIMEXE
 40
0.18
  9
$DIMTP
 40
0.0
  9
$DIMTM
 40
0.0
  9
$DIMTXT
 40
0.18
  9
$DIMCEN
 40
0.09
  9
$DIMTSZ
 40
0.0
  9
$DIMTOL
 70
     0
  9
$DIMLIM
 70
     0
  9
$DIMTIH
 70
     1
  9
$DIMTOH
 70
     1
  9
$DIMSE1
 70
     0
  9
$DIMSE2
 70
     0
  9
$DIMTAD
 70
     0
  9
$DIMZIN
 70
     0
  9
$DIMBLK
  1

  9
$DIMASO
 70
     1
  9
$DIMSHO
 70
     1
  9
$DIMPOST
  1

  9
$DIMAPOST
  1

  9
$DIMALT
 70
     0
  9
$DIMALTD
 70
     2
  9
$DIMALTF
 40
25.4
  9
$DIMLFAC
 40
1.0
  9
$DIMTOFL
 70
     0
  9
$DIMTVP
 40
0.0
  9
$DIMTIX
 70
     0
  9
$DIMSOXD
 70
     0
  9
$DIMSAH
 70
     0
  9
$DIMBLK1
  1

  9
$DIMBLK2
  1

  9
$DIMSTYLE
  2
STANDARD_ACAD
  9
$DIMCLRD
 70
     0
  9
$DIMCLRE
 70
     0
  9
$DIMCLRT
 70
     0
  9
$DIMTFAC
 40
1.0
  9
$DIMGAP
 40
0.09
  9
$LUNITS
 70
     2
  9
$LUPREC
 70
     3
  9
$SKETCHINC
 40
0.1
  9
$FILLETRAD
 40
0.5
  9
$AUNITS
 70
     0
  9
$AUPREC
 70
     0
  9
$MENU
  1
.
  9
$ELEVATION
 40
0.0
  9
$PELEVATION
 40
0.0
  9
$THICKNESS
 40
0.0
  9
$LIMCHECK
 70
     0
  9
$CHAMFERA
 40
0.0
  9
$CHAMFERB
 40
0.0
  9
$SKPOLY
 70
     0
  9
$TDCREATE
 40
2460012.746115301
  9
$TDUPDATE
 40
2460012.746115359
  9
$TDINDWG
 40
0.0000000116
  9
$TDUSRTIMER
 40
0.0000000116
  9
$USRTIMER
 70
     1
  9
$ANGBASE
 50
0.0
  9
$ANGDIR
 70
     0
  9
$PDMODE
 70
     0
  9
$PDSIZE
 40
0.0
  9
$PLINEWID
 40
0.0
  9
$COORDS
 70
     1
  9
$SPLFRAME
 70
     0
  9
$SPLINETYPE
 70
     6
  9
$SPLINESEGS
 70
     8
  9
$ATTDIA
 70
     0
  9
$ATTREQ
 70
     1
  9
$HANDLING
 70
     1
  9
$HANDSEED
  5
21F
  9
$SURFTAB1
 70
     6
  9
$SURFTAB2
 70
     6
  9
$SURFTYPE
 70
     6
  9
$SURFU
 70
     6
  9
$SURFV
 70
     6
  9
$UCSNAME
  2

  9
$UCSORG
 10
0.0
 20
0.0
 30
0.0
  9
$UCSXDIR
 10
1.0
 20
0.0
 30
0.0
  9
$UCSYDIR
 10
0.0
 20
1.0
 30
0.0
  9
$PUCSNAME
  2

  9
$PUCSORG
 10
0.0
 20
0.0
 30
0.0
  9
$PUCSXDIR
 10
1.0
 20
0.0
 30
0.0
  9
$PUCSYDIR
 10
0.0
 20
1.0
 30
0.0
  9
$USERI1
 70
     0
  9
$USERI2
 70
     0
  9
$USERI3
 70
     0
  9
$USERI4
 70
     0
  9
$USERI5
 70
     0
  9
$USERR1
 40
0.0
  9
$USERR2
 40
0.0
  9
$USERR3
 40
0.0
  9
$USERR4
 40
0.0
  9
$USERR5
 40
0.0
  9
$WORLDVIEW
 70
     1
  9
$SHADEDGE
 70
     3
  9
$SHADEDIF
 70
    70
  9
$TILEMODE
 70
     1
  9
$MAXACTVP
 70
    64
  9
$PLIMCHECK
 70
     0
  9
$PEXTMIN
 10
1.000000000000000E+20
 20
1.000000000000000E+20
 30
1.000000000000000E+20
  9
$PEXTMAX
 10
-1.000000000000000E+20
 20
-1.000000000000000E+20
 30
-1.000000000000000E+20
  9
$PLIMMIN
 10
0.0
 20
0.0
  9
$PLIMMAX
 10
12.0
 20
9.0
  9
$UNITMODE
 70
     0
  9
$VISRETAIN
 70
     1
  9
$PLINEGEN
 70
     0
  9
$PSLTSCALE
 70
     1
  0
ENDSEC
  0
SECTION
  2
TABLES
  0
TABLE
  2
VPORT
 70
     1
  0
VPORT
  2
*ACTIVE
 70
     0
 10
0.0
 20
0.0
 11
1.0
 21
1.0
 12
10.42990654205607
 22
4.5
 13
0.0
 23
0.0
 14
0.5
 24
0.5
 15
0.5
 25
0.5
 16
0.0
 26
0.0
 36
1.0
 17
0.0
 27
0.0
 37
0.0
 40
9.0
 41
1.972972972850329
 42
50.0
 43
0.0
 44
0.0
 50
0.0
 51
0.0
 71
     0
 72
   100
 73
     1
 74
     3
 75
     0
 76
     0
 77
     0
 78
     0
  0
ENDTAB
  0
TABLE
  2
LTYPE
 70
     1
  0
LTYPE
  2
CONTINUOUS
 70
     0
  3
Solid line
 72
    65
 73
     0
 40
0.0
  0
ENDTAB
  0
TABLE
  2
LAYER
 70
     2
  0
LAYER
  2
0
 70
     0
 62
     7
  6
CONTINUOUS
  0
LAYER
  2
LAYER_01
 70
     0
 62
     7
  6
CONTINUOUS
  0
ENDTAB
  0
TABLE
  2
STYLE
 70
     1
  0
STYLE
  2
STANDARD
 70
     0
 40
0.0
 41
1.0
 50
0.0
 71
     0
 42
0.2
  3
txt
  4

  0
ENDTAB
  0
TABLE
  2
VIEW
 70
     0
  0
ENDTAB
  0
TABLE
  2
UCS
 70
     0
  0
ENDTAB
  0
TABLE
  2
APPID
 70
     2
  0
APPID
  2
ACAD
 70
     0
  0
APPID
  2
RHINO
 70
     0
  0
ENDTAB
  0
TABLE
  2
DIMSTYLE
 70
     1
  0
DIMSTYLE
  2
STANDARD_ACAD
 70
     0
  3

  4

  5

  6

  7

 40
1.0
 41
0.18
 42
0.0625
 43
0.38
 44
0.18
 45
0.0
 46
0.0
 47
0.0
 48
0.0
140
0.18
141
0.09
142
0.0
143
25.4
144
1.0
145
0.0
146
1.0
147
0.09
 71
     0
 72
     0
 73
     1
 74
     1
 75
     0
 76
     0
 77
     0
 78
     0
170
     0
171
     2
172
     0
173
     0
174
     0
175
     0
176
     0
177
     0
178
     0
  0
ENDTAB
  0
ENDSEC
  0
SECTION
  2
BLOCKS
  0
BLOCK
  8
0
  2
$MODEL_SPACE
 70
     0
 10
0.0
 20
0.0
 30
0.0
  3
$MODEL_SPACE
  1

  0
ENDBLK
  5
21
  8
0
  0
BLOCK
 67
     1
  8
0
  2
$PAPER_SPACE
 70
     0
 10
0.0
 20
0.0
 30
0.0
  3
$PAPER_SPACE
  1

  0
ENDBLK
  5
1D
 67
     1
  8
0
  0
ENDSEC
  0
SECTION
  2
ENTITIES
  0
POLYLINE
  5
70
  8
LAYER_01
 66
     1
 10
0.0
 20
0.0
 30
0.0
 70
     1
  0
VERTEX
  5
71
  8
LAYER_01
 10
9563.16939050706
 20
1546.892155122095
 30
0.0
  0
VERTEX
  5
72
  8
LAYER_01
 10
9814.052929197347
 20
1267.816632907229
 30
0.0
  0
VERTEX
  5
73
  8
LAYER_01
 10
9451.422533233754
 20
1267.816632907229
 30
0.0
  0
VERTEX
  5
74
  8
LAYER_01
 10
9408.58579801646
 20
1347.001641766715
 30
0.0
  0
SEQEND
  5
75
  8
LAYER_01
  0
POLYLINE
  5
76
  8
LAYER_01
 66
     1
 10
0.0
 20
0.0
 30
0.0
 70
     1
  0
VERTEX
  5
77
  8
LAYER_01
 10
9541.903214872666
 20
1570.548027889452
 30
0.0
  0
VERTEX
  5
78
  8
LAYER_01
 10
9392.302814964864
 20
1377.101231538416
 30
0.0
  0
VERTEX
  5
79
  8
LAYER_01
 10
9207.285437805795
 20
1719.111484541662
 30
0.0
  0
VERTEX
  5
7A
  8
LAYER_01
 10
9242.92671816744
 20
1837.172958779438
 30
0.0
  0
VERTEX
  5
7B
  8
LAYER_01
 10
9277.159433719346
 20
1865.041279077645
 30
0.0
  0
SEQEND
  5
7C
  8
LAYER_01
  0
POLYLINE
  5
7D
  8
LAYER_01
 66
     1
 10
0.0
 20
0.0
 30
0.0
 70
     1
  0
VERTEX
  5
7E
  8
LAYER_01
 10
9561.362787263639
 20
1595.711008334122
 30
0.0
  0
VERTEX
  5
7F
  8
LAYER_01
 10
9301.457553985409
 20
1884.822000159858
 30
0.0
  0
VERTEX
  5
80
  8
LAYER_01
 10
9433.543256557827
 20
1992.35091239356
 30
0.0
  0
VERTEX
  5
81
  8
LAYER_01
 10
9732.804851621873
 20
1817.401044793569
 30
0.0
  0
SEQEND
  5
82
  8
LAYER_01
  0
POLYLINE
  5
83
  8
LAYER_01
 66
     1
 10
0.0
 20
0.0
 30
0.0
 70
     1
  0
VERTEX
  5
84
  8
LAYER_01
 10
9582.628962898034
 20
1572.055135566766
 30
0.0
  0
VERTEX
  5
85
  8
LAYER_01
 10
9760.04833222539
 20
1801.474365917423
 30
0.0
  0
VERTEX
  5
86
  8
LAYER_01
 10
9890.612472810724
 20
1725.145897829752
 30
0.0
  0
VERTEX
  5
87
  8
LAYER_01
 10
9957.83184130217
 20
1570.970315453476
 30
0.0
  0
VERTEX
  5
88
  8
LAYER_01
 10
9852.846019118622
 20
1271.473573022643
 30
0.0
  0
SEQEND
  5
89
  8
LAYER_01
  0
POLYLINE
  5
8A
  8
LAYER_01
 66
     1
 10
0.0
 20
0.0
 30
0.0
 70
     1
  0
VERTEX
  5
8B
  8
LAYER_01
 10
7974.137609864079
 20
1236.522508361446
 30
0.0
  0
VERTEX
  5
8C
  8
LAYER_01
 10
12279.21575799106
 20
1236.522508361446
 30
0.0
  0
VERTEX
  5
8D
  8
LAYER_01
 10
12279.21575799106
 20
2322.648530297221
 30
0.0
  0
VERTEX
  5
8E
  8
LAYER_01
 10
7974.137609864079
 20
2322.648530297221
 30
0.0
  0
SEQEND
  5
8F
  8
LAYER_01
  0
POLYLINE
  5
90
  8
LAYER_01
 66
     1
 10
0.0
 20
0.0
 30
0.0
 70
     1
  0
VERTEX
  5
91
  8
LAYER_01
 10
8401.215789137426
 20
1414.983996708153
 30
0.0
  0
VERTEX
  5
92
  8
LAYER_01
 10
8422.8822219028
 20
1445.878392427047
 30
0.0
  0
VERTEX
  5
93
  8
LAYER_01
 10
8455.775552985753
 20
1848.778804759208
 30
0.0
  0
VERTEX
  5
94
  8
LAYER_01
 10
8183.148437806669
 20
1540.61950776291
 30
0.0
  0
SEQEND
  5
95
  8
LAYER_01
  0
POLYLINE
  5
96
  8
LAYER_01
 66
     1
 10
0.0
 20
0.0
 30
0.0
 70
     1
  0
VERTEX
  5
97
  8
LAYER_01
 10
8856.946867488612
 20
1563.305618434893
 30
0.0
  0
VERTEX
  5
98
  8
LAYER_01
 10
9133.985469350602
 20
1788.838427246145
 30
0.0
  0
VERTEX
  5
99
  8
LAYER_01
 10
8945.70682700998
 20
2136.877228199755
 30
0.0
  0
VERTEX
  5
9A
  8
LAYER_01
 10
8764.32023528588
 20
1878.236167924175
 30
0.0
  0
SEQEND
  5
9B
  8
LAYER_01
  0
POLYLINE
  5
9C
  8
LAYER_01
 66
     1
 10
0.0
 20
0.0
 30
0.0
 70
     1
  0
VERTEX
  5
9D
  8
LAYER_01
 10
8929.062062288393
 20
2167.645582399887
 30
0.0
  0
VERTEX
  5
9E
  8
LAYER_01
 10
8862.13926735183
 20
2291.354405751438
 30
0.0
  0
VERTEX
  5
9F
  8
LAYER_01
 10
8642.814871219038
 20
2291.354405751438
 30
0.0
  0
VERTEX
  5
A0
  8
LAYER_01
 10
8753.02655310576
 20
1916.634687336586
 30
0.0
  0
SEQEND
  5
A1
  8
LAYER_01
  0
POLYLINE
  5
A2
  8
LAYER_01
 66
     1
 10
0.0
 20
0.0
 30
0.0
 70
     1
  0
VERTEX
  5
A3
  8
LAYER_01
 10
8830.628775830126
 20
1541.880470118389
 30
0.0
  0
VERTEX
  5
A4
  8
LAYER_01
 10
8741.338736124537
 20
1845.466605117387
 30
0.0
  0
VERTEX
  5
A5
  8
LAYER_01
 10
8428.439140615146
 20
1399.29976128889
 30
0.0
  0
VERTEX
  5
A6
  8
LAYER_01
 10
8561.393726192284
 20
1322.700411573667
 30
0.0
  0
SEQEND
  5
A7
  8
LAYER_01
  0
POLYLINE
  5
A8
  8
LAYER_01
 66
     1
 10
0.0
 20
0.0
 30
0.0
 70
     1
  0
VERTEX
  5
A9
  8
LAYER_01
 10
8840.204483753801
 20
1509.323063177893
 30
0.0
  0
VERTEX
  5
AA
  8
LAYER_01
 10
8590.420034699839
 20
1305.97743547878
 30
0.0
  0
VERTEX
  5
AB
  8
LAYER_01
 10
8656.656284877601
 20
1267.816632907229
 30
0.0
  0
VERTEX
  5
AC
  8
LAYER_01
 10
8911.235786774585
 20
1267.816632907229
 30
0.0
  0
SEQEND
  5
AD
  8
LAYER_01
  0
POLYLINE
  5
AE
  8
LAYER_01
 66
     1
 10
0.0
 20
0.0
 30
0.0
 70
     1
  0
VERTEX
  5
AF
  8
LAYER_01
 10
8866.522575412286
 20
1530.748211494397
 30
0.0
  0
VERTEX
  5
B0
  8
LAYER_01
 10
8943.855392643805
 20
1267.816632907229
 30
0.0
  0
VERTEX
  5
B1
  8
LAYER_01
 10
9038.356127609713
 20
1267.816632907229
 30
0.0
  0
VERTEX
  5
B2
  8
LAYER_01
 10
9173.561018271916
 20
1715.681820514638
 30
0.0
  0
VERTEX
  5
B3
  8
LAYER_01
 10
9149.14081240885
 20
1760.823314323826
 30
0.0
  0
SEQEND
  5
B4
  8
LAYER_01
  0
POLYLINE
  5
B5
  8
LAYER_01
 66
     1
 10
0.0
 20
0.0
 30
0.0
 70
     1
  0
VERTEX
  5
B6
  8
LAYER_01
 10
8965.792783560473
 20
2165.518006161838
 30
0.0
  0
VERTEX
  5
B7
  8
LAYER_01
 10
9158.686856369812
 20
1808.947441508177
 30
0.0
  0
VERTEX
  5
B8
  8
LAYER_01
 10
9215.737652563099
 20
1855.39160569292
 30
0.0
  0
VERTEX
  5
B9
  8
LAYER_01
 10
9233.359319876523
 20
1913.763246678899
 30
0.0
  0
VERTEX
  5
BA
  8
LAYER_01
 10
8983.867392035547
 20
2191.290781622386
 30
0.0
  0
SEQEND
  5
BB
  8
LAYER_01
  0
POLYLINE
  5
BC
  8
LAYER_01
 66
     1
 10
0.0
 20
0.0
 30
0.0
 70
     1
  0
VERTEX
  5
BD
  8
LAYER_01
 10
9752.110110693278
 20
1842.364484212126
 30
0.0
  0
VERTEX
  5
BE
  8
LAYER_01
 10
9459.459938988895
 20
2013.449279712998
 30
0.0
  0
VERTEX
  5
BF
  8
LAYER_01
 10
9684.898486388938
 20
2196.975288246599
 30
0.0
  0
VERTEX
  5
C0
  8
LAYER_01
 10
9807.997836760187
 20
1914.632349603199
 30
0.0
  0
SEQEND
  5
C1
  8
LAYER_01
  0
POLYLINE
  5
C2
  8
LAYER_01
 66
     1
 10
0.0
 20
0.0
 30
0.0
 70
     1
  0
VERTEX
  5
C3
  8
LAYER_01
 10
9173.84219942806
 20
1780.932328585859
 30
0.0
  0
VERTEX
  5
C4
  8
LAYER_01
 10
9199.586231315701
 20
1801.890143788227
 30
0.0
  0
VERTEX
  5
C5
  8
LAYER_01
 10
9186.304670194779
 20
1757.89507205667
 30
0.0
  0
SEQEND
  5
C6
  8
LAYER_01
  0
POLYLINE
  5
C7
  8
LAYER_01
 66
     1
 10
0.0
 20
0.0
 30
0.0
 70
     1
  0
VERTEX
  5
C8
  8
LAYER_01
 10
9822.260203925052
 20
1881.919921428761
 30
0.0
  0
VERTEX
  5
C9
  8
LAYER_01
 10
9869.40175815281
 20
1773.795183867263
 30
0.0
  0
VERTEX
  5
CA
  8
LAYER_01
 10
9779.353591296796
 20
1826.43780533598
 30
0.0
  0
SEQEND
  5
CB
  8
LAYER_01
  0
POLYLINE
  5
CC
  8
LAYER_01
 66
     1
 10
0.0
 20
0.0
 30
0.0
 70
     1
  0
VERTEX
  5
CD
  8
LAYER_01
 10
11636.01503121676
 20
2245.051841565032
 30
0.0
  0
VERTEX
  5
CE
  8
LAYER_01
 10
11719.50267192632
 20
2291.354405751438
 30
0.0
  0
VERTEX
  5
CF
  8
LAYER_01
 10
11603.70745427641
 20
2291.354405751438
 30
0.0
  0
SEQEND
  5
D0
  8
LAYER_01
  0
POLYLINE
  5
D1
  8
LAYER_01
 66
     1
 10
0.0
 20
0.0
 30
0.0
 70
     1
  0
VERTEX
  5
D2
  8
LAYER_01
 10
11277.1113277884
 20
1267.816632907229
 30
0.0
  0
VERTEX
  5
D3
  8
LAYER_01
 10
11260.3812651486
 20
1289.744623873919
 30
0.0
  0
VERTEX
  5
D4
  8
LAYER_01
 10
11248.07815571309
 20
1267.816632907229
 30
0.0
  0
SEQEND
  5
D5
  8
LAYER_01
  0
POLYLINE
  5
D6
  8
LAYER_01
 66
     1
 10
0.0
 20
0.0
 30
0.0
 70
     1
  0
VERTEX
  5
D7
  8
LAYER_01
 10
11239.70388950431
 20
1316.846333897657
 30
0.0
  0
VERTEX
  5
D8
  8
LAYER_01
 10
11073.31869742249
 20
1534.926389394963
 30
0.0
  0
VERTEX
  5
D9
  8
LAYER_01
 10
10817.69122860284
 20
1267.816632907229
 30
0.0
  0
VERTEX
  5
DA
  8
LAYER_01
 10
11212.19485879594
 20
1267.816632907229
 30
0.0
  0
SEQEND
  5
DB
  8
LAYER_01
  0
POLYLINE
  5
DC
  8
LAYER_01
 66
     1
 10
0.0
 20
0.0
 30
0.0
 70
     1
  0
VERTEX
  5
DD
  8
LAYER_01
 10
10664.65335788018
 20
1572.938474667647
 30
0.0
  0
VERTEX
  5
DE
  8
LAYER_01
 10
10575.89052077755
 20
1360.778219710439
 30
0.0
  0
VERTEX
  5
DF
  8
LAYER_01
 10
10347.18815469322
 20
1494.478799157312
 30
0.0
  0
VERTEX
  5
E0
  8
LAYER_01
 10
10635.72714334509
 20
1654.50362353594
 30
0.0
  0
SEQEND
  5
E1
  8
LAYER_01
  0
POLYLINE
  5
E2
  8
LAYER_01
 66
     1
 10
0.0
 20
0.0
 30
0.0
 70
     1
  0
VERTEX
  5
E3
  8
LAYER_01
 10
11311.213131198
 20
2029.130730539523
 30
0.0
  0
VERTEX
  5
E4
  8
LAYER_01
 10
11352.69272440408
 20
1888.716702186508
 30
0.0
  0
VERTEX
  5
E5
  8
LAYER_01
 10
11241.20604175061
 20
1990.304531534595
 30
0.0
  0
SEQEND
  5
E6
  8
LAYER_01
  0
POLYLINE
  5
E7
  8
LAYER_01
 66
     1
 10
0.0
 20
0.0
 30
0.0
 70
     1
  0
VERTEX
  5
E8
  8
LAYER_01
 10
9280.510873669647
 20
1908.12247566457
 30
0.0
  0
VERTEX
  5
E9
  8
LAYER_01
 10
9404.692793463093
 20
2009.217041498906
 30
0.0
  0
VERTEX
  5
EA
  8
LAYER_01
 10
9311.340031371341
 20
2063.791546338226
 30
0.0
  0
VERTEX
  5
EB
  8
LAYER_01
 10
9268.409320926745
 20
1921.583889549942
 30
0.0
  0
SEQEND
  5
EC
  8
LAYER_01
  0
POLYLINE
  5
ED
  8
LAYER_01
 66
     1
 10
0.0
 20
0.0
 30
0.0
 70
     1
  0
VERTEX
  5
EE
  8
LAYER_01
 10
10517.34515101414
 20
1988.313110293504
 30
0.0
  0
VERTEX
  5
EF
  8
LAYER_01
 10
10195.25084956292
 20
1583.302129161808
 30
0.0
  0
VERTEX
  5
F0
  8
LAYER_01
 10
10315.77623742404
 20
1512.842367546801
 30
0.0
  0
VERTEX
  5
F1
  8
LAYER_01
 10
10625.12227717774
 20
1684.406861881179
 30
0.0
  0
SEQEND
  5
F2
  8
LAYER_01
  0
POLYLINE
  5
F3
  8
LAYER_01
 66
     1
 10
0.0
 20
0.0
 30
0.0
 70
     1
  0
VERTEX
  5
F4
  8
LAYER_01
 10
10762.00046554395
 20
1724.535289977244
 30
0.0
  0
VERTEX
  5
F5
  8
LAYER_01
 10
10698.18690318691
 20
1572.008600865858
 30
0.0
  0
VERTEX
  5
F6
  8
LAYER_01
 10
10797.49716114137
 20
1291.976937394084
 30
0.0
  0
VERTEX
  5
F7
  8
LAYER_01
 10
11054.10439084909
 20
1560.110463719378
 30
0.0
  0
VERTEX
  5
F8
  8
LAYER_01
 10
10879.10456318525
 20
1789.481669482574
 30
0.0
  0
SEQEND
  5
F9
  8
LAYER_01
  0
POLYLINE
  5
FA
  8
LAYER_01
 66
     1
 10
0.0
 20
0.0
 30
0.0
 70
     1
  0
VERTEX
  5
FB
  8
LAYER_01
 10
10937.38271220741
 20
2224.814093306102
 30
0.0
  0
VERTEX
  5
FC
  8
LAYER_01
 10
10813.05427679042
 20
1927.645217034124
 30
0.0
  0
VERTEX
  5
FD
  8
LAYER_01
 10
10535.5606605647
 20
2291.354405751438
 30
0.0
  0
VERTEX
  5
FE
  8
LAYER_01
 10
10864.35862315205
 20
2291.354405751438
 30
0.0
  0
SEQEND
  5
FF
  8
LAYER_01
  0
POLYLINE
  5
100
  8
LAYER_01
 66
     1
 10
0.0
 20
0.0
 30
0.0
 70
     1
  0
VERTEX
  5
101
  8
LAYER_01
 10
11719.85454722456
 20
2255.764819537402
 30
0.0
  0
VERTEX
  5
102
  8
LAYER_01
 10
11654.01736239285
 20
2219.251265547687
 30
0.0
  0
VERTEX
  5
103
  8
LAYER_01
 10
11667.04384956271
 20
2200.581968267386
 30
0.0
  0
SEQEND
  5
104
  8
LAYER_01
  0
POLYLINE
  5
105
  8
LAYER_01
 66
     1
 10
0.0
 20
0.0
 30
0.0
 70
     1
  0
VERTEX
  5
106
  8
LAYER_01
 10
10138.8928065119
 20
2291.354405751437
 30
0.0
  0
VERTEX
  5
107
  8
LAYER_01
 10
9844.091406765336
 20
1910.149633732639
 30
0.0
  0
VERTEX
  5
108
  8
LAYER_01
 10
9915.218933539305
 20
1747.010227495037
 30
0.0
  0
VERTEX
  5
109
  8
LAYER_01
 10
10001.79844782749
 20
1696.395398157021
 30
0.0
  0
VERTEX
  5
10A
  8
LAYER_01
 10
10210.3558433799
 20
2291.354405751437
 30
0.0
  0
SEQEND
  5
10B
  8
LAYER_01
  0
POLYLINE
  5
10C
  8
LAYER_01
 66
     1
 10
0.0
 20
0.0
 30
0.0
 70
     1
  0
VERTEX
  5
10D
  8
LAYER_01
 10
11513.98487307389
 20
1741.745612148922
 30
0.0
  0
VERTEX
  5
10E
  8
LAYER_01
 10
11765.18816771932
 20
1512.846547070116
 30
0.0
  0
VERTEX
  5
10F
  8
LAYER_01
 10
11855.98313833325
 20
1875.109308610549
 30
0.0
  0
VERTEX
  5
110
  8
LAYER_01
 10
11707.89253943467
 20
2087.349752193305
 30
0.0
  0
SEQEND
  5
111
  8
LAYER_01
  0
POLYLINE
  5
112
  8
LAYER_01
 66
     1
 10
0.0
 20
0.0
 30
0.0
 70
     1
  0
VERTEX
  5
113
  8
LAYER_01
 10
12034.09412285378
 20
1267.816632907229
 30
0.0
  0
VERTEX
  5
114
  8
LAYER_01
 10
12184.23093323906
 20
1267.816632907229
 30
0.0
  0
VERTEX
  5
115
  8
LAYER_01
 10
12170.21952689141
 20
1424.752088142409
 30
0.0
  0
VERTEX
  5
116
  8
LAYER_01
 10
11879.71916474046
 20
1841.091316847224
 30
0.0
  0
VERTEX
  5
117
  8
LAYER_01
 10
11791.4520863984
 20
1488.914590128898
 30
0.0
  0
SEQEND
  5
118
  8
LAYER_01
  0
POLYLINE
  5
119
  8
LAYER_01
 66
     1
 10
0.0
 20
0.0
 30
0.0
 70
     1
  0
VERTEX
  5
11A
  8
LAYER_01
 10
8005.431734409862
 20
1520.132189203337
 30
0.0
  0
VERTEX
  5
11B
  8
LAYER_01
 10
8005.431734409862
 20
1386.969287210448
 30
0.0
  0
VERTEX
  5
11C
  8
LAYER_01
 10
8134.307659322838
 20
1532.64193754401
 30
0.0
  0
VERTEX
  5
11D
  8
LAYER_01
 10
8037.13245102514
 20
1588.627654258733
 30
0.0
  0
SEQEND
  5
11E
  8
LAYER_01
  0
POLYLINE
  5
11F
  8
LAYER_01
 66
     1
 10
0.0
 20
0.0
 30
0.0
 70
     1
  0
VERTEX
  5
120
  8
LAYER_01
 10
9283.554681164278
 20
2080.035004971485
 30
0.0
  0
VERTEX
  5
121
  8
LAYER_01
 10
9243.938006100372
 20
1948.805065558963
 30
0.0
  0
VERTEX
  5
122
  8
LAYER_01
 10
9002.308704694287
 20
2217.586444458286
 30
0.0
  0
VERTEX
  5
123
  8
LAYER_01
 10
9015.671646607218
 20
2236.640804716724
 30
0.0
  0
SEQEND
  5
124
  8
LAYER_01
  0
POLYLINE
  5
125
  8
LAYER_01
 66
     1
 10
0.0
 20
0.0
 30
0.0
 70
     1
  0
VERTEX
  5
126
  8
LAYER_01
 10
10018.77393128361
 20
1650.2220500622
 30
0.0
  0
VERTEX
  5
127
  8
LAYER_01
 10
9991.428846576702
 20
1572.213766458944
 30
0.0
  0
VERTEX
  5
128
  8
LAYER_01
 10
10046.32156487849
 20
1446.310816128892
 30
0.0
  0
VERTEX
  5
129
  8
LAYER_01
 10
10148.27768889411
 20
1574.513487315253
 30
0.0
  0
SEQEND
  5
12A
  8
LAYER_01
  0
POLYLINE
  5
12B
  8
LAYER_01
 66
     1
 10
0.0
 20
0.0
 30
0.0
 70
     1
  0
VERTEX
  5
12C
  8
LAYER_01
 10
10060.47986624623
 20
1413.83707518461
 30
0.0
  0
VERTEX
  5
12D
  8
LAYER_01
 10
10175.57185660847
 20
1558.557176493422
 30
0.0
  0
VERTEX
  5
12E
  8
LAYER_01
 10
10283.95644453317
 20
1495.194988962313
 30
0.0
  0
VERTEX
  5
12F
  8
LAYER_01
 10
10075.43061299623
 20
1379.545766907373
 30
0.0
  0
SEQEND
  5
130
  8
LAYER_01
  0
POLYLINE
  5
131
  8
LAYER_01
 66
     1
 10
0.0
 20
0.0
 30
0.0
 70
     1
  0
VERTEX
  5
132
  8
LAYER_01
 10
10663.47362067899
 20
1669.891925765836
 30
0.0
  0
VERTEX
  5
133
  8
LAYER_01
 10
10717.82853065641
 20
1700.037366296742
 30
0.0
  0
VERTEX
  5
134
  8
LAYER_01
 10
10682.62411056147
 20
1615.89203040208
 30
0.0
  0
SEQEND
  5
135
  8
LAYER_01
  0
POLYLINE
  5
136
  8
LAYER_01
 66
     1
 10
0.0
 20
0.0
 30
0.0
 70
     1
  0
VERTEX
  5
137
  8
LAYER_01
 10
11644.97502621691
 20
2177.521856390186
 30
0.0
  0
VERTEX
  5
138
  8
LAYER_01
 10
11626.50495930099
 20
2203.99278178582
 30
0.0
  0
VERTEX
  5
139
  8
LAYER_01
 10
11339.25063795537
 20
2044.680438798449
 30
0.0
  0
VERTEX
  5
13A
  8
LAYER_01
 10
11381.37553047448
 20
1902.081985068199
 30
0.0
  0
SEQEND
  5
13B
  8
LAYER_01
  0
POLYLINE
  5
13C
  8
LAYER_01
 66
     1
 10
0.0
 20
0.0
 30
0.0
 70
     1
  0
VERTEX
  5
13D
  8
LAYER_01
 10
11369.80619138368
 20
1830.785303829902
 30
0.0
  0
VERTEX
  5
13E
  8
LAYER_01
 10
11424.38941165152
 20
1646.013727112409
 30
0.0
  0
VERTEX
  5
13F
  8
LAYER_01
 10
11256.38404684047
 20
1346.575593911768
 30
0.0
  0
VERTEX
  5
140
  8
LAYER_01
 10
11095.22036950837
 20
1557.811841903431
 30
0.0
  0
VERTEX
  5
141
  8
LAYER_01
 10
11362.67669046513
 20
1837.281779511231
 30
0.0
  0
SEQEND
  5
142
  8
LAYER_01
  0
POLYLINE
  5
143
  8
LAYER_01
 66
     1
 10
0.0
 20
0.0
 30
0.0
 70
     1
  0
VERTEX
  5
144
  8
LAYER_01
 10
11397.34261119308
 20
1848.031259122148
 30
0.0
  0
VERTEX
  5
145
  8
LAYER_01
 10
11391.59243943657
 20
1867.496367568162
 30
0.0
  0
VERTEX
  5
146
  8
LAYER_01
 10
11663.23962036088
 20
2151.345410405045
 30
0.0
  0
VERTEX
  5
147
  8
LAYER_01
 10
11688.00281463012
 20
2115.855302489229
 30
0.0
  0
VERTEX
  5
148
  8
LAYER_01
 10
11490.2407820892
 20
1763.381475783646
 30
0.0
  0
SEQEND
  5
149
  8
LAYER_01
  0
POLYLINE
  5
14A
  8
LAYER_01
 66
     1
 10
0.0
 20
0.0
 30
0.0
 70
     1
  0
VERTEX
  5
14B
  8
LAYER_01
 10
11724.90041598526
 20
2117.663110399119
 30
0.0
  0
VERTEX
  5
14C
  8
LAYER_01
 10
11866.06757651092
 20
1915.345198309348
 30
0.0
  0
VERTEX
  5
14D
  8
LAYER_01
 10
11960.30785888248
 20
2291.354405751438
 30
0.0
  0
VERTEX
  5
14E
  8
LAYER_01
 10
11822.35316566767
 20
2291.354405751438
 30
0.0
  0
SEQEND
  5
14F
  8
LAYER_01
  0
POLYLINE
  5
150
  8
LAYER_01
 66
     1
 10
0.0
 20
0.0
 30
0.0
 70
     1
  0
VERTEX
  5
151
  8
LAYER_01
 10
8458.417209331099
 20
1496.548106974165
 30
0.0
  0
VERTEX
  5
152
  8
LAYER_01
 10
8730.045053944417
 20
1883.865124529798
 30
0.0
  0
VERTEX
  5
153
  8
LAYER_01
 10
8610.195265349816
 20
2291.354405751437
 30
0.0
  0
VERTEX
  5
154
  8
LAYER_01
 10
8523.30626362907
 20
2291.354405751437
 30
0.0
  0
SEQEND
  5
155
  8
LAYER_01
  0
POLYLINE
  5
156
  8
LAYER_01
 66
     1
 10
0.0
 20
0.0
 30
0.0
 70
     1
  0
VERTEX
  5
157
  8
LAYER_01
 10
8130.798972547407
 20
2291.354405751438
 30
0.0
  0
VERTEX
  5
158
  8
LAYER_01
 10
8005.431734409862
 20
2291.354405751438
 30
0.0
  0
VERTEX
  5
159
  8
LAYER_01
 10
8005.431734409862
 20
2134.241815467478
 30
0.0
  0
SEQEND
  5
15A
  8
LAYER_01
  0
POLYLINE
  5
15B
  8
LAYER_01
 66
     1
 10
0.0
 20
0.0
 30
0.0
 70
     1
  0
VERTEX
  5
15C
  8
LAYER_01
 10
8897.719033142857
 20
2291.354405751438
 30
0.0
  0
VERTEX
  5
15D
  8
LAYER_01
 10
8949.148018838885
 20
2196.28636036197
 30
0.0
  0
VERTEX
  5
15E
  8
LAYER_01
 10
9015.819833115762
 20
2291.354405751438
 30
0.0
  0
SEQEND
  5
15F
  8
LAYER_01
  0
POLYLINE
  5
160
  8
LAYER_01
 66
     1
 10
0.0
 20
0.0
 30
0.0
 70
     1
  0
VERTEX
  5
161
  8
LAYER_01
 10
11771.22229275788
 20
2264.17845398225
 30
0.0
  0
VERTEX
  5
162
  8
LAYER_01
 10
11705.01069118071
 20
2146.168660695044
 30
0.0
  0
VERTEX
  5
163
  8
LAYER_01
 10
11685.30844370668
 20
2174.405522282245
 30
0.0
  0
SEQEND
  5
164
  8
LAYER_01
  0
POLYLINE
  5
165
  8
LAYER_01
 66
     1
 10
0.0
 20
0.0
 30
0.0
 70
     1
  0
VERTEX
  5
166
  8
LAYER_01
 10
9973.04691750437
 20
1614.374897744881
 30
0.0
  0
VERTEX
  5
167
  8
LAYER_01
 10
9936.42964819722
 20
1698.360941457528
 30
0.0
  0
VERTEX
  5
168
  8
LAYER_01
 10
9991.252679778054
 20
1666.311115236278
 30
0.0
  0
SEQEND
  5
169
  8
LAYER_01
  0
POLYLINE
  5
16A
  8
LAYER_01
 66
     1
 10
0.0
 20
0.0
 30
0.0
 70
     1
  0
VERTEX
  5
16B
  8
LAYER_01
 10
10029.31969933305
 20
1680.306332982943
 30
0.0
  0
VERTEX
  5
16C
  8
LAYER_01
 10
10167.95668184857
 20
1599.258439983638
 30
0.0
  0
VERTEX
  5
16D
  8
LAYER_01
 10
10505.01392713813
 20
2023.084272968607
 30
0.0
  0
VERTEX
  5
16E
  8
LAYER_01
 10
10409.87477123755
 20
2291.354405751438
 30
0.0
  0
VERTEX
  5
16F
  8
LAYER_01
 10
10243.51696836708
 20
2291.354405751438
 30
0.0
  0
SEQEND
  5
170
  8
LAYER_01
  0
POLYLINE
  5
171
  8
LAYER_01
 66
     1
 10
0.0
 20
0.0
 30
0.0
 70
     1
  0
VERTEX
  5
172
  8
LAYER_01
 10
10734.90654707156
 20
1267.816632907229
 30
0.0
  0
VERTEX
  5
173
  8
LAYER_01
 10
10772.86158132567
 20
1267.816632907229
 30
0.0
  0
VERTEX
  5
174
  8
LAYER_01
 10
10680.21615050562
 20
1529.055045131426
 30
0.0
  0
VERTEX
  5
175
  8
LAYER_01
 10
10603.14666090273
 20
1344.84414001282
 30
0.0
  0
SEQEND
  5
176
  8
LAYER_01
  0
POLYLINE
  5
177
  8
LAYER_01
 66
     1
 10
0.0
 20
0.0
 30
0.0
 70
     1
  0
VERTEX
  5
178
  8
LAYER_01
 10
11076.00606293496
 20
1582.995916227848
 30
0.0
  0
VERTEX
  5
179
  8
LAYER_01
 10
10906.76333319123
 20
1804.821328893647
 30
0.0
  0
VERTEX
  5
17A
  8
LAYER_01
 10
11212.3228266322
 20
1974.285790190801
 30
0.0
  0
VERTEX
  5
17B
  8
LAYER_01
 10
11339.53840979045
 20
1858.36562246577
 30
0.0
  0
SEQEND
  5
17C
  8
LAYER_01
  0
POLYLINE
  5
17D
  8
LAYER_01
 66
     1
 10
0.0
 20
0.0
 30
0.0
 70
     1
  0
VERTEX
  5
17E
  8
LAYER_01
 10
11414.45607817267
 20
1790.099860765547
 30
0.0
  0
VERTEX
  5
17F
  8
LAYER_01
 10
11474.52254883726
 20
1735.366665497884
 30
0.0
  0
VERTEX
  5
180
  8
LAYER_01
 10
11445.76562215152
 20
1684.112823377708
 30
0.0
  0
SEQEND
  5
181
  8
LAYER_01
  0
POLYLINE
  5
182
  8
LAYER_01
 66
     1
 10
0.0
 20
0.0
 30
0.0
 70
     1
  0
VERTEX
  5
183
  8
LAYER_01
 10
9976.213770374497
 20
1528.809184167535
 30
0.0
  0
VERTEX
  5
184
  8
LAYER_01
 10
9884.725237459408
 20
1267.816632907229
 30
0.0
  0
VERTEX
  5
185
  8
LAYER_01
 10
9904.36995878317
 20
1267.816632907229
 30
0.0
  0
VERTEX
  5
186
  8
LAYER_01
 10
10024.27112910205
 20
1418.583940527681
 30
0.0
  0
SEQEND
  5
187
  8
LAYER_01
  0
POLYLINE
  5
188
  8
LAYER_01
 66
     1
 10
0.0
 20
0.0
 30
0.0
 70
     1
  0
VERTEX
  5
189
  8
LAYER_01
 10
8543.544303199498
 20
1267.816632907229
 30
0.0
  0
VERTEX
  5
18A
  8
LAYER_01
 10
8564.441130980611
 20
1284.828414778216
 30
0.0
  0
VERTEX
  5
18B
  8
LAYER_01
 10
8593.968723799537
 20
1267.816632907229
 30
0.0
  0
SEQEND
  5
18C
  8
LAYER_01
  0
POLYLINE
  5
18D
  8
LAYER_01
 66
     1
 10
0.0
 20
0.0
 30
0.0
 70
     1
  0
VERTEX
  5
18E
  8
LAYER_01
 10
9751.262950317583
 20
2291.354405751438
 30
0.0
  0
VERTEX
  5
18F
  8
LAYER_01
 10
9380.03840842116
 20
2291.354405751438
 30
0.0
  0
VERTEX
  5
190
  8
LAYER_01
 10
9320.641669767121
 20
2094.603153853151
 30
0.0
  0
VERTEX
  5
191
  8
LAYER_01
 10
9430.609475894162
 20
2030.315408818344
 30
0.0
  0
SEQEND
  5
192
  8
LAYER_01
  0
POLYLINE
  5
193
  8
LAYER_01
 66
     1
 10
0.0
 20
0.0
 30
0.0
 70
     1
  0
VERTEX
  5
194
  8
LAYER_01
 10
9800.831325146743
 20
2291.354405751438
 30
0.0
  0
VERTEX
  5
195
  8
LAYER_01
 10
9710.0946410193
 20
2217.487085111132
 30
0.0
  0
VERTEX
  5
196
  8
LAYER_01
 10
9829.82903960047
 20
1942.862061907075
 30
0.0
  0
VERTEX
  5
197
  8
LAYER_01
 10
10099.33256711983
 20
2291.354405751437
 30
0.0
  0
SEQEND
  5
198
  8
LAYER_01
  0
POLYLINE
  5
199
  8
LAYER_01
 66
     1
 10
0.0
 20
0.0
 30
0.0
 70
     1
  0
VERTEX
  5
19A
  8
LAYER_01
 10
10781.49543229923
 20
1771.132010543984
 30
0.0
  0
VERTEX
  5
19B
  8
LAYER_01
 10
10859.92009875867
 20
1814.626629887327
 30
0.0
  0
VERTEX
  5
19C
  8
LAYER_01
 10
10821.02254577286
 20
1865.609415120312
 30
0.0
  0
SEQEND
  5
19D
  8
LAYER_01
  0
POLYLINE
  5
19E
  8
LAYER_01
 66
     1
 10
0.0
 20
0.0
 30
0.0
 70
     1
  0
VERTEX
  5
19F
  8
LAYER_01
 10
11187.90995345192
 20
1996.531055145386
 30
0.0
  0
VERTEX
  5
1A0
  8
LAYER_01
 10
10961.94242286773
 20
2202.435028506462
 30
0.0
  0
VERTEX
  5
1A1
  8
LAYER_01
 10
10834.96294730625
 20
1898.929656339183
 30
0.0
  0
VERTEX
  5
1A2
  8
LAYER_01
 10
10887.57886876465
 20
1829.9662892984
 30
0.0
  0
SEQEND
  5
1A3
  8
LAYER_01
  0
POLYLINE
  5
1A4
  8
LAYER_01
 66
     1
 10
0.0
 20
0.0
 30
0.0
 70
     1
  0
VERTEX
  5
1A5
  8
LAYER_01
 10
10799.11387525702
 20
1894.324975815253
 30
0.0
  0
VERTEX
  5
1A6
  8
LAYER_01
 10
10496.19842610499
 20
2291.354405751438
 30
0.0
  0
VERTEX
  5
1A7
  8
LAYER_01
 10
10443.07854666763
 20
2291.354405751438
 30
0.0
  0
VERTEX
  5
1A8
  8
LAYER_01
 10
10652.86875451164
 20
1699.795164111076
 30
0.0
  0
VERTEX
  5
1A9
  8
LAYER_01
 10
10737.32349741169
 20
1746.634086863484
 30
0.0
  0
SEQEND
  5
1AA
  8
LAYER_01
  0
POLYLINE
  5
1AB
  8
LAYER_01
 66
     1
 10
0.0
 20
0.0
 30
0.0
 70
     1
  0
VERTEX
  5
1AC
  8
LAYER_01
 10
11277.06142248476
 20
1319.47388388803
 30
0.0
  0
VERTEX
  5
1AD
  8
LAYER_01
 10
11436.7659780237
 20
1604.117377433616
 30
0.0
  0
VERTEX
  5
1AE
  8
LAYER_01
 10
11536.11230574806
 20
1267.816632907229
 30
0.0
  0
VERTEX
  5
1AF
  8
LAYER_01
 10
11316.47356224811
 20
1267.816632907229
 30
0.0
  0
SEQEND
  5
1B0
  8
LAYER_01
  0
POLYLINE
  5
1B1
  8
LAYER_01
 66
     1
 10
0.0
 20
0.0
 30
0.0
 70
     1
  0
VERTEX
  5
1B2
  8
LAYER_01
 10
12092.84811839969
 20
2291.354405751438
 30
0.0
  0
VERTEX
  5
1B3
  8
LAYER_01
 10
11992.56991360506
 20
2291.354405751438
 30
0.0
  0
VERTEX
  5
1B4
  8
LAYER_01
 10
11889.80360291813
 20
1881.327206546022
 30
0.0
  0
VERTEX
  5
1B5
  8
LAYER_01
 10
12164.62040437206
 20
1487.465339024492
 30
0.0
  0
SEQEND
  5
1B6
  8
LAYER_01
  0
POLYLINE
  5
1B7
  8
LAYER_01
 66
     1
 10
0.0
 20
0.0
 30
0.0
 70
     1
  0
VERTEX
  5
1B8
  8
LAYER_01
 10
11782.81375070295
 20
1454.448503263251
 30
0.0
  0
VERTEX
  5
1B9
  8
LAYER_01
 10
11736.03766167702
 20
1267.816632907229
 30
0.0
  0
VERTEX
  5
1BA
  8
LAYER_01
 10
11987.63127891405
 20
1267.816632907229
 30
0.0
  0
SEQEND
  5
1BB
  8
LAYER_01
  0
POLYLINE
  5
1BC
  8
LAYER_01
 66
     1
 10
0.0
 20
0.0
 30
0.0
 70
     1
  0
VERTEX
  5
1BD
  8
LAYER_01
 10
11498.26663982196
 20
1713.730801863161
 30
0.0
  0
VERTEX
  5
1BE
  8
LAYER_01
 10
11458.1421885237
 20
1642.216473698916
 30
0.0
  0
VERTEX
  5
1BF
  8
LAYER_01
 10
11568.74333909689
 20
1267.816632907229
 30
0.0
  0
VERTEX
  5
1C0
  8
LAYER_01
 10
11703.77560695444
 20
1267.816632907229
 30
0.0
  0
VERTEX
  5
1C1
  8
LAYER_01
 10
11756.54983202388
 20
1478.380460204471
 30
0.0
  0
SEQEND
  5
1C2
  8
LAYER_01
  0
POLYLINE
  5
1C3
  8
LAYER_01
 66
     1
 10
0.0
 20
0.0
 30
0.0
 70
     1
  0
VERTEX
  5
1C4
  8
LAYER_01
 10
12206.24822398399
 20
1373.116490005112
 30
0.0
  0
VERTEX
  5
1C5
  8
LAYER_01
 10
12215.64953539534
 20
1267.816632907229
 30
0.0
  0
VERTEX
  5
1C6
  8
LAYER_01
 10
12247.92163344528
 20
1267.816632907229
 30
0.0
  0
VERTEX
  5
1C7
  8
LAYER_01
 10
12247.92163344528
 20
1313.391004555984
 30
0.0
  0
SEQEND
  5
1C8
  8
LAYER_01
  0
POLYLINE
  5
1C9
  8
LAYER_01
 66
     1
 10
0.0
 20
0.0
 30
0.0
 70
     1
  0
VERTEX
  5
1CA
  8
LAYER_01
 10
12247.92163344528
 20
1368.079706573934
 30
0.0
  0
VERTEX
  5
1CB
  8
LAYER_01
 10
12247.92163344528
 20
2291.354405751438
 30
0.0
  0
VERTEX
  5
1CC
  8
LAYER_01
 10
12124.26672055597
 20
2291.354405751438
 30
0.0
  0
VERTEX
  5
1CD
  8
LAYER_01
 10
12200.64910146465
 20
1435.829740887191
 30
0.0
  0
SEQEND
  5
1CE
  8
LAYER_01
  0
POLYLINE
  5
1CF
  8
LAYER_01
 66
     1
 10
0.0
 20
0.0
 30
0.0
 70
     1
  0
VERTEX
  5
1D0
  8
LAYER_01
 10
10315.36836180236
 20
1476.831420572824
 30
0.0
  0
VERTEX
  5
1D1
  8
LAYER_01
 10
10563.70502138087
 20
1331.652532168564
 30
0.0
  0
VERTEX
  5
1D2
  8
LAYER_01
 10
10536.99758963982
 20
1267.816632907229
 30
0.0
  0
VERTEX
  5
1D3
  8
LAYER_01
 10
10124.14365635776
 20
1267.816632907229
 30
0.0
  0
VERTEX
  5
1D4
  8
LAYER_01
 10
10087.99449829267
 20
1350.729008048151
 30
0.0
  0
SEQEND
  5
1D5
  8
LAYER_01
  0
POLYLINE
  5
1D6
  8
LAYER_01
 66
     1
 10
0.0
 20
0.0
 30
0.0
 70
     1
  0
VERTEX
  5
1D7
  8
LAYER_01
 10
10570.92017217131
 20
1267.816632907229
 30
0.0
  0
VERTEX
  5
1D8
  8
LAYER_01
 10
10672.89991988158
 20
1267.816632907229
 30
0.0
  0
VERTEX
  5
1D9
  8
LAYER_01
 10
10590.96116150605
 20
1315.718452470944
 30
0.0
  0
SEQEND
  5
1DA
  8
LAYER_01
  0
POLYLINE
  5
1DB
  8
LAYER_01
 66
     1
 10
0.0
 20
0.0
 30
0.0
 70
     1
  0
VERTEX
  5
1DC
  8
LAYER_01
 10
9944.353749809801
 20
1267.816632907229
 30
0.0
  0
VERTEX
  5
1DD
  8
LAYER_01
 10
10038.42943046979
 20
1386.1101995834
 30
0.0
  0
VERTEX
  5
1DE
  8
LAYER_01
 10
10090.00451600549
 20
1267.816632907229
 30
0.0
  0
SEQEND
  5
1DF
  8
LAYER_01
  0
POLYLINE
  5
1E0
  8
LAYER_01
 66
     1
 10
0.0
 20
0.0
 30
0.0
 70
     1
  0
VERTEX
  5
1E1
  8
LAYER_01
 10
9387.65065349815
 20
1319.930613609644
 30
0.0
  0
VERTEX
  5
1E2
  8
LAYER_01
 10
9415.842767442722
 20
1267.816632907229
 30
0.0
  0
VERTEX
  5
1E3
  8
LAYER_01
 10
9347.34875912239
 20
1267.816632907229
 30
0.0
  0
SEQEND
  5
1E4
  8
LAYER_01
  0
POLYLINE
  5
1E5
  8
LAYER_01
 66
     1
 10
0.0
 20
0.0
 30
0.0
 70
     1
  0
VERTEX
  5
1E6
  8
LAYER_01
 10
9071.045174530105
 20
1267.816632907229
 30
0.0
  0
VERTEX
  5
1E7
  8
LAYER_01
 10
9307.788519730315
 20
1267.816632907229
 30
0.0
  0
VERTEX
  5
1E8
  8
LAYER_01
 10
9371.367670446554
 20
1350.030203381346
 30
0.0
  0
VERTEX
  5
1E9
  8
LAYER_01
 10
9194.541785882931
 20
1676.898232999629
 30
0.0
  0
SEQEND
  5
1EA
  8
LAYER_01
  0
POLYLINE
  5
1EB
  8
LAYER_01
 66
     1
 10
0.0
 20
0.0
 30
0.0
 70
     1
  0
VERTEX
  5
1EC
  8
LAYER_01
 10
8161.984038368042
 20
1516.696698587925
 30
0.0
  0
VERTEX
  5
1ED
  8
LAYER_01
 10
8005.431734409862
 20
1339.740536691799
 30
0.0
  0
VERTEX
  5
1EE
  8
LAYER_01
 10
8005.431734409862
 20
1267.816632907229
 30
0.0
  0
VERTEX
  5
1EF
  8
LAYER_01
 10
8493.975928370335
 20
1267.816632907229
 30
0.0
  0
VERTEX
  5
1F0
  8
LAYER_01
 10
8535.414822473056
 20
1301.551390873104
 30
0.0
  0
SEQEND
  5
1F1
  8
LAYER_01
  0
POLYLINE
  5
1F2
  8
LAYER_01
 66
     1
 10
0.0
 20
0.0
 30
0.0
 70
     1
  0
VERTEX
  5
1F3
  8
LAYER_01
 10
8460.023367937734
 20
1900.808998701832
 30
0.0
  0
VERTEX
  5
1F4
  8
LAYER_01
 10
8491.908019786686
 20
2291.354405751438
 30
0.0
  0
VERTEX
  5
1F5
  8
LAYER_01
 10
8362.364808948794
 20
2291.354405751438
 30
0.0
  0
VERTEX
  5
1F6
  8
LAYER_01
 10
8050.328879686007
 20
1617.14106388181
 30
0.0
  0
VERTEX
  5
1F7
  8
LAYER_01
 10
8155.472058761464
 20
1556.564746718995
 30
0.0
  0
SEQEND
  5
1F8
  8
LAYER_01
  0
POLYLINE
  5
1F9
  8
LAYER_01
 66
     1
 10
0.0
 20
0.0
 30
0.0
 70
     1
  0
VERTEX
  5
1FA
  8
LAYER_01
 10
8005.431734409862
 20
2084.068075562284
 30
0.0
  0
VERTEX
  5
1FB
  8
LAYER_01
 10
8005.431734409862
 20
1643.007731942141
 30
0.0
  0
VERTEX
  5
1FC
  8
LAYER_01
 10
8023.104781499545
 20
1632.82572950364
 30
0.0
  0
VERTEX
  5
1FD
  8
LAYER_01
 10
8327.881615000579
 20
2291.354405751438
 30
0.0
  0
VERTEX
  5
1FE
  8
LAYER_01
 10
8170.834867745727
 20
2291.354405751437
 30
0.0
  0
SEQEND
  5
1FF
  8
LAYER_01
  0
POLYLINE
  5
200
  8
LAYER_01
 66
     1
 10
0.0
 20
0.0
 30
0.0
 70
     1
  0
VERTEX
  5
201
  8
LAYER_01
 10
9347.349361500766
 20
2291.354405751438
 30
0.0
  0
VERTEX
  5
202
  8
LAYER_01
 10
9054.042636898026
 20
2291.354405751438
 30
0.0
  0
VERTEX
  5
203
  8
LAYER_01
 10
9033.701544477448
 20
2262.349826852772
 30
0.0
  0
VERTEX
  5
204
  8
LAYER_01
 10
9292.856319560055
 20
2110.846612486409
 30
0.0
  0
SEQEND
  5
205
  8
LAYER_01
  0
POLYLINE
  5
206
  8
LAYER_01
 66
     1
 10
0.0
 20
0.0
 30
0.0
 70
     1
  0
VERTEX
  5
207
  8
LAYER_01
 10
11302.13010868439
 20
2059.877989183576
 30
0.0
  0
VERTEX
  5
208
  8
LAYER_01
 10
11233.74984989787
 20
2291.354405751438
 30
0.0
  0
VERTEX
  5
209
  8
LAYER_01
 10
10999.144189048
 20
2291.354405751438
 30
0.0
  0
VERTEX
  5
20A
  8
LAYER_01
 10
10974.7664952736
 20
2233.087028375215
 30
0.0
  0
VERTEX
  5
20B
  8
LAYER_01
 10
11216.79316857034
 20
2012.54979648918
 30
0.0
  0
SEQEND
  5
20C
  8
LAYER_01
  0
POLYLINE
  5
20D
  8
LAYER_01
 66
     1
 10
0.0
 20
0.0
 30
0.0
 70
     1
  0
VERTEX
  5
20E
  8
LAYER_01
 10
10950.20678461329
 20
2255.466093174854
 30
0.0
  0
VERTEX
  5
20F
  8
LAYER_01
 10
10965.22160651651
 20
2291.354405751438
 30
0.0
  0
VERTEX
  5
210
  8
LAYER_01
 10
10910.82146709179
 20
2291.354405751438
 30
0.0
  0
SEQEND
  5
211
  8
LAYER_01
  0
POLYLINE
  5
212
  8
LAYER_01
 66
     1
 10
0.0
 20
0.0
 30
0.0
 70
     1
  0
VERTEX
  5
213
  8
LAYER_01
 10
11330.16761544175
 20
2075.427697442501
 30
0.0
  0
VERTEX
  5
214
  8
LAYER_01
 10
11608.5026281249
 20
2229.793357803165
 30
0.0
  0
VERTEX
  5
215
  8
LAYER_01
 10
11565.54845640536
 20
2291.354405751438
 30
0.0
  0
VERTEX
  5
216
  8
LAYER_01
 10
11266.3808832467
 20
2291.354405751437
 30
0.0
  0
SEQEND
  5
217
  8
LAYER_01
  0
ENDSEC
  0
EOF
