  0
SECTION
  2
HEADER
  9
$ACADVER
  1
AC1009
  9
$DWGCODEPAGE
  3
ansi_1252
  9
$INSBASE
 10
0.0
 20
0.0
 30
0.0
  9
$EXTMIN
 10
1.000000000000000E+20
 20
1.000000000000000E+20
 30
1.000000000000000E+20
  9
$EXTMAX
 10
-1.000000000000000E+20
 20
-1.000000000000000E+20
 30
-1.000000000000000E+20
  9
$LIMMIN
 10
0.0
 20
0.0
  9
$LIMMAX
 10
12.0
 20
9.0
  9
$ORTHOMODE
 70
     0
  9
$REGENMODE
 70
     1
  9
$FILLMODE
 70
     1
  9
$QTEXTMODE
 70
     0
  9
$MIRRTEXT
 70
     1
  9
$DRAGMODE
 70
     2
  9
$LTSCALE
 40
1.0
  9
$OSMODE
 70
    37
  9
$ATTMODE
 70
     1
  9
$TEXTSIZE
 40
0.2
  9
$TRACEWID
 40
0.05
  9
$TEXTSTYLE
  7
STANDARD
  9
$CLAYER
  8
LAYER_01
  9
$CELTYPE
  6
BYLAYER
  9
$CECOLOR
 62
   256
  9
$DIMSCALE
 40
1.0
  9
$DIMASZ
 40
0.18
  9
$DIMEXO
 40
0.0625
  9
$DIMDLI
 40
0.38
  9
$DIMRND
 40
0.0
  9
$DIMDLE
 40
0.0
  9
$DIMEXE
 40
0.18
  9
$DIMTP
 40
0.0
  9
$DIMTM
 40
0.0
  9
$DIMTXT
 40
0.18
  9
$DIMCEN
 40
0.09
  9
$DIMTSZ
 40
0.0
  9
$DIMTOL
 70
     0
  9
$DIMLIM
 70
     0
  9
$DIMTIH
 70
     1
  9
$DIMTOH
 70
     1
  9
$DIMSE1
 70
     0
  9
$DIMSE2
 70
     0
  9
$DIMTAD
 70
     0
  9
$DIMZIN
 70
     0
  9
$DIMBLK
  1

  9
$DIMASO
 70
     1
  9
$DIMSHO
 70
     1
  9
$DIMPOST
  1

  9
$DIMAPOST
  1

  9
$DIMALT
 70
     0
  9
$DIMALTD
 70
     2
  9
$DIMALTF
 40
25.4
  9
$DIMLFAC
 40
1.0
  9
$DIMTOFL
 70
     0
  9
$DIMTVP
 40
0.0
  9
$DIMTIX
 70
     0
  9
$DIMSOXD
 70
     0
  9
$DIMSAH
 70
     0
  9
$DIMBLK1
  1

  9
$DIMBLK2
  1

  9
$DIMSTYLE
  2
STANDARD_ACAD
  9
$DIMCLRD
 70
     0
  9
$DIMCLRE
 70
     0
  9
$DIMCLRT
 70
     0
  9
$DIMTFAC
 40
1.0
  9
$DIMGAP
 40
0.09
  9
$LUNITS
 70
     2
  9
$LUPREC
 70
     3
  9
$SKETCHINC
 40
0.1
  9
$FILLETRAD
 40
0.5
  9
$AUNITS
 70
     0
  9
$AUPREC
 70
     0
  9
$MENU
  1
.
  9
$ELEVATION
 40
0.0
  9
$PELEVATION
 40
0.0
  9
$THICKNESS
 40
0.0
  9
$LIMCHECK
 70
     0
  9
$CHAMFERA
 40
0.0
  9
$CHAMFERB
 40
0.0
  9
$SKPOLY
 70
     0
  9
$TDCREATE
 40
2460051.436567905
  9
$TDUPDATE
 40
2460051.43656794
  9
$TDINDWG
 40
0.0000000116
  9
$TDUSRTIMER
 40
0.0000000116
  9
$USRTIMER
 70
     1
  9
$ANGBASE
 50
0.0
  9
$ANGDIR
 70
     0
  9
$PDMODE
 70
     0
  9
$PDSIZE
 40
0.0
  9
$PLINEWID
 40
0.0
  9
$COORDS
 70
     1
  9
$SPLFRAME
 70
     0
  9
$SPLINETYPE
 70
     6
  9
$SPLINESEGS
 70
     8
  9
$ATTDIA
 70
     0
  9
$ATTREQ
 70
     1
  9
$HANDLING
 70
     1
  9
$HANDSEED
  5
2AE
  9
$SURFTAB1
 70
     6
  9
$SURFTAB2
 70
     6
  9
$SURFTYPE
 70
     6
  9
$SURFU
 70
     6
  9
$SURFV
 70
     6
  9
$UCSNAME
  2

  9
$UCSORG
 10
0.0
 20
0.0
 30
0.0
  9
$UCSXDIR
 10
1.0
 20
0.0
 30
0.0
  9
$UCSYDIR
 10
0.0
 20
1.0
 30
0.0
  9
$PUCSNAME
  2

  9
$PUCSORG
 10
0.0
 20
0.0
 30
0.0
  9
$PUCSXDIR
 10
1.0
 20
0.0
 30
0.0
  9
$PUCSYDIR
 10
0.0
 20
1.0
 30
0.0
  9
$USERI1
 70
     0
  9
$USERI2
 70
     0
  9
$USERI3
 70
     0
  9
$USERI4
 70
     0
  9
$USERI5
 70
     0
  9
$USERR1
 40
0.0
  9
$USERR2
 40
0.0
  9
$USERR3
 40
0.0
  9
$USERR4
 40
0.0
  9
$USERR5
 40
0.0
  9
$WORLDVIEW
 70
     1
  9
$SHADEDGE
 70
     3
  9
$SHADEDIF
 70
    70
  9
$TILEMODE
 70
     1
  9
$MAXACTVP
 70
    64
  9
$PLIMCHECK
 70
     0
  9
$PEXTMIN
 10
1.000000000000000E+20
 20
1.000000000000000E+20
 30
1.000000000000000E+20
  9
$PEXTMAX
 10
-1.000000000000000E+20
 20
-1.000000000000000E+20
 30
-1.000000000000000E+20
  9
$PLIMMIN
 10
0.0
 20
0.0
  9
$PLIMMAX
 10
12.0
 20
9.0
  9
$UNITMODE
 70
     0
  9
$VISRETAIN
 70
     1
  9
$PLINEGEN
 70
     0
  9
$PSLTSCALE
 70
     1
  0
ENDSEC
  0
SECTION
  2
TABLES
  0
TABLE
  2
VPORT
 70
     1
  0
VPORT
  2
*ACTIVE
 70
     0
 10
0.0
 20
0.0
 11
1.0
 21
1.0
 12
10.42990654205607
 22
4.5
 13
0.0
 23
0.0
 14
0.5
 24
0.5
 15
0.5
 25
0.5
 16
0.0
 26
0.0
 36
1.0
 17
0.0
 27
0.0
 37
0.0
 40
9.0
 41
1.972972972850329
 42
50.0
 43
0.0
 44
0.0
 50
0.0
 51
0.0
 71
     0
 72
   100
 73
     1
 74
     3
 75
     0
 76
     0
 77
     0
 78
     0
  0
ENDTAB
  0
TABLE
  2
LTYPE
 70
     1
  0
LTYPE
  2
CONTINUOUS
 70
     0
  3
Solid line
 72
    65
 73
     0
 40
0.0
  0
ENDTAB
  0
TABLE
  2
LAYER
 70
     2
  0
LAYER
  2
0
 70
     0
 62
     7
  6
CONTINUOUS
  0
LAYER
  2
LAYER_01
 70
     0
 62
     7
  6
CONTINUOUS
  0
ENDTAB
  0
TABLE
  2
STYLE
 70
     1
  0
STYLE
  2
STANDARD
 70
     0
 40
0.0
 41
1.0
 50
0.0
 71
     0
 42
0.2
  3
txt
  4

  0
ENDTAB
  0
TABLE
  2
VIEW
 70
     0
  0
ENDTAB
  0
TABLE
  2
UCS
 70
     0
  0
ENDTAB
  0
TABLE
  2
APPID
 70
     2
  0
APPID
  2
ACAD
 70
     0
  0
APPID
  2
RHINO
 70
     0
  0
ENDTAB
  0
TABLE
  2
DIMSTYLE
 70
     1
  0
DIMSTYLE
  2
STANDARD_ACAD
 70
     0
  3

  4

  5

  6

  7

 40
1.0
 41
0.18
 42
0.0625
 43
0.38
 44
0.18
 45
0.0
 46
0.0
 47
0.0
 48
0.0
140
0.18
141
0.09
142
0.0
143
25.4
144
1.0
145
0.0
146
1.0
147
0.09
 71
     0
 72
     0
 73
     1
 74
     1
 75
     0
 76
     0
 77
     0
 78
     0
170
     0
171
     2
172
     0
173
     0
174
     0
175
     0
176
     0
177
     0
178
     0
  0
ENDTAB
  0
ENDSEC
  0
SECTION
  2
BLOCKS
  0
BLOCK
  8
0
  2
$MODEL_SPACE
 70
     0
 10
0.0
 20
0.0
 30
0.0
  3
$MODEL_SPACE
  1

  0
ENDBLK
  5
21
  8
0
  0
BLOCK
 67
     1
  8
0
  2
$PAPER_SPACE
 70
     0
 10
0.0
 20
0.0
 30
0.0
  3
$PAPER_SPACE
  1

  0
ENDBLK
  5
1D
 67
     1
  8
0
  0
ENDSEC
  0
SECTION
  2
ENTITIES
  0
POLYLINE
  5
70
  8
LAYER_01
 66
     1
 10
0.0
 20
0.0
 30
0.0
 70
     1
  0
VERTEX
  5
71
  8
LAYER_01
 10
5294.089772017031
 20
5147.552954423725
 30
0.0
  0
VERTEX
  5
72
  8
LAYER_01
 10
5294.089772017031
 20
2971.480248586126
 30
0.0
  0
VERTEX
  5
73
  8
LAYER_01
 10
5781.093302242731
 20
2971.480248586126
 30
0.0
  0
VERTEX
  5
74
  8
LAYER_01
 10
5781.093302242731
 20
5147.552954423725
 30
0.0
  0
SEQEND
  5
75
  8
LAYER_01
  0
POLYLINE
  5
76
  8
LAYER_01
 66
     1
 10
0.0
 20
0.0
 30
0.0
 70
     1
  0
VERTEX
  5
77
  8
LAYER_01
 10
5311.884063220679
 20
3546.097659315707
 30
0.0
  0
VERTEX
  5
78
  8
LAYER_01
 10
5311.884063220679
 20
3661.918156540905
 30
0.0
  0
VERTEX
  5
79
  8
LAYER_01
 10
5332.817433356842
 20
3684.698910125453
 30
0.0
  0
VERTEX
  5
7A
  8
LAYER_01
 10
5400.573493586669
 20
3615.322793170715
 30
0.0
  0
SEQEND
  5
7B
  8
LAYER_01
  0
POLYLINE
  5
7C
  8
LAYER_01
 66
     1
 10
0.0
 20
0.0
 30
0.0
 70
     1
  0
VERTEX
  5
7D
  8
LAYER_01
 10
5311.884063220679
 20
3523.524609233238
 30
0.0
  0
VERTEX
  5
7E
  8
LAYER_01
 10
5357.829388680738
 20
3559.38650722784
 30
0.0
  0
VERTEX
  5
7F
  8
LAYER_01
 10
5439.468122786974
 20
3437.090602198805
 30
0.0
  0
VERTEX
  5
80
  8
LAYER_01
 10
5346.866459905351
 20
3365.290861716556
 30
0.0
  0
VERTEX
  5
81
  8
LAYER_01
 10
5311.884063220679
 20
3399.538085897646
 30
0.0
  0
SEQEND
  5
82
  8
LAYER_01
  0
POLYLINE
  5
83
  8
LAYER_01
 66
     1
 10
0.0
 20
0.0
 30
0.0
 70
     1
  0
VERTEX
  5
84
  8
LAYER_01
 10
5763.29901103908
 20
3552.481953081146
 30
0.0
  0
VERTEX
  5
85
  8
LAYER_01
 10
5763.29901103908
 20
3665.659992646752
 30
0.0
  0
VERTEX
  5
86
  8
LAYER_01
 10
5697.391925928492
 20
3614.558193179815
 30
0.0
  0
SEQEND
  5
87
  8
LAYER_01
  0
POLYLINE
  5
88
  8
LAYER_01
 66
     1
 10
0.0
 20
0.0
 30
0.0
 70
     1
  0
VERTEX
  5
89
  8
LAYER_01
 10
5610.114399084059
 20
4469.584393977421
 30
0.0
  0
VERTEX
  5
8A
  8
LAYER_01
 10
5555.191670289958
 20
4412.713876206124
 30
0.0
  0
VERTEX
  5
8B
  8
LAYER_01
 10
5623.646113608181
 20
4308.054531859192
 30
0.0
  0
VERTEX
  5
8C
  8
LAYER_01
 10
5679.231091373935
 20
4396.990496284401
 30
0.0
  0
SEQEND
  5
8D
  8
LAYER_01
  0
POLYLINE
  5
8E
  8
LAYER_01
 66
     1
 10
0.0
 20
0.0
 30
0.0
 70
     1
  0
VERTEX
  5
8F
  8
LAYER_01
 10
5493.284492029385
 20
3221.949877520839
 30
0.0
  0
VERTEX
  5
90
  8
LAYER_01
 10
5545.030916505268
 20
3278.956138987111
 30
0.0
  0
VERTEX
  5
91
  8
LAYER_01
 10
5612.044668250554
 20
3178.568651248555
 30
0.0
  0
VERTEX
  5
92
  8
LAYER_01
 10
5583.885231441542
 20
3133.253157808087
 30
0.0
  0
SEQEND
  5
93
  8
LAYER_01
  0
POLYLINE
  5
94
  8
LAYER_01
 66
     1
 10
0.0
 20
0.0
 30
0.0
 70
     1
  0
VERTEX
  5
95
  8
LAYER_01
 10
5369.750272878019
 20
3724.89109661224
 30
0.0
  0
VERTEX
  5
96
  8
LAYER_01
 10
5472.483145323597
 20
3671.450735885126
 30
0.0
  0
VERTEX
  5
97
  8
LAYER_01
 10
5414.687286319519
 20
3626.339091134312
 30
0.0
  0
VERTEX
  5
98
  8
LAYER_01
 10
5344.875016100661
 20
3697.820582341898
 30
0.0
  0
SEQEND
  5
99
  8
LAYER_01
  0
POLYLINE
  5
9A
  8
LAYER_01
 66
     1
 10
0.0
 20
0.0
 30
0.0
 70
     1
  0
VERTEX
  5
9B
  8
LAYER_01
 10
5763.29901103908
 20
4179.469556708429
 30
0.0
  0
VERTEX
  5
9C
  8
LAYER_01
 10
5730.847949961195
 20
4144.15466851012
 30
0.0
  0
VERTEX
  5
9D
  8
LAYER_01
 10
5634.37649937228
 20
4291.648947587042
 30
0.0
  0
VERTEX
  5
9E
  8
LAYER_01
 10
5691.899123281943
 20
4383.685145842502
 30
0.0
  0
VERTEX
  5
9F
  8
LAYER_01
 10
5763.29901103908
 20
4308.693186947878
 30
0.0
  0
SEQEND
  5
A0
  8
LAYER_01
  0
POLYLINE
  5
A1
  8
LAYER_01
 66
     1
 10
0.0
 20
0.0
 30
0.0
 70
     1
  0
VERTEX
  5
A2
  8
LAYER_01
 10
5736.053962288113
 20
3854.60372338514
 30
0.0
  0
VERTEX
  5
A3
  8
LAYER_01
 10
5763.29901103908
 20
3828.146388367486
 30
0.0
  0
VERTEX
  5
A4
  8
LAYER_01
 10
5763.29901103908
 20
3875.869415800674
 30
0.0
  0
SEQEND
  5
A5
  8
LAYER_01
  0
POLYLINE
  5
A6
  8
LAYER_01
 66
     1
 10
0.0
 20
0.0
 30
0.0
 70
     1
  0
VERTEX
  5
A7
  8
LAYER_01
 10
5417.761306686763
 20
4697.420323023181
 30
0.0
  0
VERTEX
  5
A8
  8
LAYER_01
 10
5460.675696876836
 20
4716.038397182469
 30
0.0
  0
VERTEX
  5
A9
  8
LAYER_01
 10
5550.366334867691
 20
4658.2334226889
 30
0.0
  0
VERTEX
  5
AA
  8
LAYER_01
 10
5491.040428770738
 20
4620.454587028642
 30
0.0
  0
SEQEND
  5
AB
  8
LAYER_01
  0
POLYLINE
  5
AC
  8
LAYER_01
 66
     1
 10
0.0
 20
0.0
 30
0.0
 70
     1
  0
VERTEX
  5
AD
  8
LAYER_01
 10
5542.514753527816
 20
4399.587383115999
 30
0.0
  0
VERTEX
  5
AE
  8
LAYER_01
 10
5492.484047767788
 20
4347.782379914088
 30
0.0
  0
VERTEX
  5
AF
  8
LAYER_01
 10
5587.264646371455
 20
4249.844184280431
 30
0.0
  0
VERTEX
  5
B0
  8
LAYER_01
 10
5613.256452936901
 20
4291.431074785145
 30
0.0
  0
SEQEND
  5
B1
  8
LAYER_01
  0
POLYLINE
  5
B2
  8
LAYER_01
 66
     1
 10
0.0
 20
0.0
 30
0.0
 70
     1
  0
VERTEX
  5
B3
  8
LAYER_01
 10
5685.241273932841
 20
4094.523173836577
 30
0.0
  0
VERTEX
  5
B4
  8
LAYER_01
 10
5557.589942556458
 20
4168.790456681727
 30
0.0
  0
VERTEX
  5
B5
  8
LAYER_01
 10
5590.297575591581
 20
4221.122669537923
 30
0.0
  0
VERTEX
  5
B6
  8
LAYER_01
 10
5698.671341193975
 20
4109.138453216329
 30
0.0
  0
SEQEND
  5
B7
  8
LAYER_01
  0
POLYLINE
  5
B8
  8
LAYER_01
 66
     1
 10
0.0
 20
0.0
 30
0.0
 70
     1
  0
VERTEX
  5
B9
  8
LAYER_01
 10
5566.830877878492
 20
4647.622142513987
 30
0.0
  0
VERTEX
  5
BA
  8
LAYER_01
 10
5684.239383253665
 20
4571.953200798666
 30
0.0
  0
VERTEX
  5
BB
  8
LAYER_01
 10
5610.205811258964
 20
4495.294089639403
 30
0.0
  0
VERTEX
  5
BC
  8
LAYER_01
 10
5503.544603229008
 20
4607.321337573469
 30
0.0
  0
SEQEND
  5
BD
  8
LAYER_01
  0
POLYLINE
  5
BE
  8
LAYER_01
 66
     1
 10
0.0
 20
0.0
 30
0.0
 70
     1
  0
VERTEX
  5
BF
  8
LAYER_01
 10
5311.884063220679
 20
4534.399017481152
 30
0.0
  0
VERTEX
  5
C0
  8
LAYER_01
 10
5328.668223205043
 20
4517.05569650289
 30
0.0
  0
VERTEX
  5
C1
  8
LAYER_01
 10
5425.394624347904
 20
4578.651229604608
 30
0.0
  0
VERTEX
  5
C2
  8
LAYER_01
 10
5363.195247310466
 20
4673.747262878359
 30
0.0
  0
VERTEX
  5
C3
  8
LAYER_01
 10
5311.884063220679
 20
4651.486305042228
 30
0.0
  0
SEQEND
  5
C4
  8
LAYER_01
  0
POLYLINE
  5
C5
  8
LAYER_01
 66
     1
 10
0.0
 20
0.0
 30
0.0
 70
     1
  0
VERTEX
  5
C6
  8
LAYER_01
 10
5547.99366763899
 20
4753.920619157147
 30
0.0
  0
VERTEX
  5
C7
  8
LAYER_01
 10
5480.307587139273
 20
4724.555539967772
 30
0.0
  0
VERTEX
  5
C8
  8
LAYER_01
 10
5566.888496995916
 20
4668.754763008156
 30
0.0
  0
VERTEX
  5
C9
  8
LAYER_01
 10
5605.445126682924
 20
4693.307688911696
 30
0.0
  0
SEQEND
  5
CA
  8
LAYER_01
  0
POLYLINE
  5
CB
  8
LAYER_01
 66
     1
 10
0.0
 20
0.0
 30
0.0
 70
     1
  0
VERTEX
  5
CC
  8
LAYER_01
 10
5699.486821966449
 20
4562.126335636054
 30
0.0
  0
VERTEX
  5
CD
  8
LAYER_01
 10
5758.621191973307
 20
4524.014657243397
 30
0.0
  0
VERTEX
  5
CE
  8
LAYER_01
 10
5688.967957820763
 20
4412.569482599327
 30
0.0
  0
VERTEX
  5
CF
  8
LAYER_01
 10
5622.486647719011
 20
4482.395414138176
 30
0.0
  0
SEQEND
  5
D0
  8
LAYER_01
  0
POLYLINE
  5
D1
  8
LAYER_01
 66
     1
 10
0.0
 20
0.0
 30
0.0
 70
     1
  0
VERTEX
  5
D2
  8
LAYER_01
 10
5616.779570102473
 20
4783.762847545024
 30
0.0
  0
VERTEX
  5
D3
  8
LAYER_01
 10
5654.661174762166
 20
4724.648550173797
 30
0.0
  0
VERTEX
  5
D4
  8
LAYER_01
 10
5620.734244418238
 20
4703.043824511022
 30
0.0
  0
VERTEX
  5
D5
  8
LAYER_01
 10
5565.366962803804
 20
4761.457888039148
 30
0.0
  0
SEQEND
  5
D6
  8
LAYER_01
  0
POLYLINE
  5
D7
  8
LAYER_01
 66
     1
 10
0.0
 20
0.0
 30
0.0
 70
     1
  0
VERTEX
  5
D8
  8
LAYER_01
 10
5607.053688834831
 20
4798.940098947589
 30
0.0
  0
VERTEX
  5
D9
  8
LAYER_01
 10
5552.339136908176
 20
4775.202616465587
 30
0.0
  0
VERTEX
  5
DA
  8
LAYER_01
 10
5470.546458447425
 20
4861.496228440505
 30
0.0
  0
VERTEX
  5
DB
  8
LAYER_01
 10
5530.37478612525
 20
4918.59763451383
 30
0.0
  0
SEQEND
  5
DC
  8
LAYER_01
  0
POLYLINE
  5
DD
  8
LAYER_01
 66
     1
 10
0.0
 20
0.0
 30
0.0
 70
     1
  0
VERTEX
  5
DE
  8
LAYER_01
 10
5509.392853850253
 20
5061.117368449374
 30
0.0
  0
VERTEX
  5
DF
  8
LAYER_01
 10
5577.107494576716
 20
4987.798424836576
 30
0.0
  0
VERTEX
  5
E0
  8
LAYER_01
 10
5533.707761164744
 20
4946.376812412844
 30
0.0
  0
VERTEX
  5
E1
  8
LAYER_01
 10
5473.804267605457
 20
5039.856298396893
 30
0.0
  0
SEQEND
  5
E2
  8
LAYER_01
  0
POLYLINE
  5
E3
  8
LAYER_01
 66
     1
 10
0.0
 20
0.0
 30
0.0
 70
     1
  0
VERTEX
  5
E4
  8
LAYER_01
 10
5763.299011039081
 20
4993.026936773394
 30
0.0
  0
VERTEX
  5
E5
  8
LAYER_01
 10
5673.560858799277
 20
5055.257414206023
 30
0.0
  0
VERTEX
  5
E6
  8
LAYER_01
 10
5602.056191301703
 20
4987.01186542679
 30
0.0
  0
VERTEX
  5
E7
  8
LAYER_01
 10
5727.494125306479
 20
4851.192244861219
 30
0.0
  0
VERTEX
  5
E8
  8
LAYER_01
 10
5763.29901103908
 20
4866.725915848547
 30
0.0
  0
SEQEND
  5
E9
  8
LAYER_01
  0
POLYLINE
  5
EA
  8
LAYER_01
 66
     1
 10
0.0
 20
0.0
 30
0.0
 70
     1
  0
VERTEX
  5
EB
  8
LAYER_01
 10
5624.290487547506
 20
5129.758663220075
 30
0.0
  0
VERTEX
  5
EC
  8
LAYER_01
 10
5725.847153427218
 20
5129.758663220076
 30
0.0
  0
VERTEX
  5
ED
  8
LAYER_01
 10
5671.77440962388
 20
5078.150506661863
 30
0.0
  0
VERTEX
  5
EE
  8
LAYER_01
 10
5609.820042262141
 20
5121.113836792115
 30
0.0
  0
SEQEND
  5
EF
  8
LAYER_01
  0
POLYLINE
  5
F0
  8
LAYER_01
 66
     1
 10
0.0
 20
0.0
 30
0.0
 70
     1
  0
VERTEX
  5
F1
  8
LAYER_01
 10
5748.345821268661
 20
4057.809077592756
 30
0.0
  0
VERTEX
  5
F2
  8
LAYER_01
 10
5711.067278049451
 20
4096.329548158758
 30
0.0
  0
VERTEX
  5
F3
  8
LAYER_01
 10
5700.988594949431
 20
4085.361414759078
 30
0.0
  0
SEQEND
  5
F4
  8
LAYER_01
  0
POLYLINE
  5
F5
  8
LAYER_01
 66
     1
 10
0.0
 20
0.0
 30
0.0
 70
     1
  0
VERTEX
  5
F6
  8
LAYER_01
 10
5763.29901103908
 20
4094.540551279113
 30
0.0
  0
VERTEX
  5
F7
  8
LAYER_01
 10
5763.29901103908
 20
4153.170765353649
 30
0.0
  0
VERTEX
  5
F8
  8
LAYER_01
 10
5740.896621557131
 20
4128.791350516295
 30
0.0
  0
SEQEND
  5
F9
  8
LAYER_01
  0
POLYLINE
  5
FA
  8
LAYER_01
 66
     1
 10
0.0
 20
0.0
 30
0.0
 70
     1
  0
VERTEX
  5
FB
  8
LAYER_01
 10
5493.14783935526
 20
4065.683091559808
 30
0.0
  0
VERTEX
  5
FC
  8
LAYER_01
 10
5580.654446432842
 20
3980.706491192094
 30
0.0
  0
VERTEX
  5
FD
  8
LAYER_01
 10
5526.48396692493
 20
3921.755431845242
 30
0.0
  0
VERTEX
  5
FE
  8
LAYER_01
 10
5462.810979342984
 20
4017.144115540166
 30
0.0
  0
SEQEND
  5
FF
  8
LAYER_01
  0
POLYLINE
  5
100
  8
LAYER_01
 66
     1
 10
0.0
 20
0.0
 30
0.0
 70
     1
  0
VERTEX
  5
101
  8
LAYER_01
 10
5321.674417171538
 20
4196.530169213291
 30
0.0
  0
VERTEX
  5
102
  8
LAYER_01
 10
5311.884063220679
 20
4211.197126297374
 30
0.0
  0
VERTEX
  5
103
  8
LAYER_01
 10
5311.884063220679
 20
4186.392608487986
 30
0.0
  0
SEQEND
  5
104
  8
LAYER_01
  0
POLYLINE
  5
105
  8
LAYER_01
 66
     1
 10
0.0
 20
0.0
 30
0.0
 70
     1
  0
VERTEX
  5
106
  8
LAYER_01
 10
5575.546036973979
 20
3729.321797807213
 30
0.0
  0
VERTEX
  5
107
  8
LAYER_01
 10
5684.279851815641
 20
3626.908128842348
 30
0.0
  0
VERTEX
  5
108
  8
LAYER_01
 10
5695.892882406511
 20
3635.912422682111
 30
0.0
  0
VERTEX
  5
109
  8
LAYER_01
 10
5613.675223138542
 20
3759.082931745408
 30
0.0
  0
SEQEND
  5
10A
  8
LAYER_01
  0
POLYLINE
  5
10B
  8
LAYER_01
 66
     1
 10
0.0
 20
0.0
 30
0.0
 70
     1
  0
VERTEX
  5
10C
  8
LAYER_01
 10
5332.672048541708
 20
3354.285065270862
 30
0.0
  0
VERTEX
  5
10D
  8
LAYER_01
 10
5311.884063220679
 20
3374.636180718433
 30
0.0
  0
VERTEX
  5
10E
  8
LAYER_01
 10
5311.884063220679
 20
3338.166867122449
 30
0.0
  0
SEQEND
  5
10F
  8
LAYER_01
  0
POLYLINE
  5
110
  8
LAYER_01
 66
     1
 10
0.0
 20
0.0
 30
0.0
 70
     1
  0
VERTEX
  5
111
  8
LAYER_01
 10
5735.989197161196
 20
3489.32463857872
 30
0.0
  0
VERTEX
  5
112
  8
LAYER_01
 10
5715.2124958206
 20
3466.436060652322
 30
0.0
  0
VERTEX
  5
113
  8
LAYER_01
 10
5763.29901103908
 20
3440.396017894598
 30
0.0
  0
VERTEX
  5
114
  8
LAYER_01
 10
5763.29901103908
 20
3460.534084211235
 30
0.0
  0
SEQEND
  5
115
  8
LAYER_01
  0
POLYLINE
  5
116
  8
LAYER_01
 66
     1
 10
0.0
 20
0.0
 30
0.0
 70
     1
  0
VERTEX
  5
117
  8
LAYER_01
 10
5747.982589361301
 20
3502.537115741182
 30
0.0
  0
VERTEX
  5
118
  8
LAYER_01
 10
5763.29901103908
 20
3519.410396315345
 30
0.0
  0
VERTEX
  5
119
  8
LAYER_01
 10
5763.29901103908
 20
3486.390236344594
 30
0.0
  0
SEQEND
  5
11A
  8
LAYER_01
  0
POLYLINE
  5
11B
  8
LAYER_01
 66
     1
 10
0.0
 20
0.0
 30
0.0
 70
     1
  0
VERTEX
  5
11C
  8
LAYER_01
 10
5494.415681666878
 20
2989.274539789777
 30
0.0
  0
VERTEX
  5
11D
  8
LAYER_01
 10
5522.112466171551
 20
3033.845511327882
 30
0.0
  0
VERTEX
  5
11E
  8
LAYER_01
 10
5392.265036145847
 20
3110.662159120865
 30
0.0
  0
VERTEX
  5
11F
  8
LAYER_01
 10
5379.036100617897
 20
3096.088550117633
 30
0.0
  0
VERTEX
  5
120
  8
LAYER_01
 10
5483.114468880084
 20
2989.274539789777
 30
0.0
  0
SEQEND
  5
121
  8
LAYER_01
  0
POLYLINE
  5
122
  8
LAYER_01
 66
     1
 10
0.0
 20
0.0
 30
0.0
 70
     1
  0
VERTEX
  5
123
  8
LAYER_01
 10
5759.802919005545
 20
2989.274539789777
 30
0.0
  0
VERTEX
  5
124
  8
LAYER_01
 10
5763.29901103908
 20
2989.274539789777
 30
0.0
  0
VERTEX
  5
125
  8
LAYER_01
 10
5763.29901103908
 20
3019.282998876241
 30
0.0
  0
VERTEX
  5
126
  8
LAYER_01
 10
5749.942352142651
 20
3004.045799557569
 30
0.0
  0
SEQEND
  5
127
  8
LAYER_01
  0
POLYLINE
  5
128
  8
LAYER_01
 66
     1
 10
0.0
 20
0.0
 30
0.0
 70
     1
  0
VERTEX
  5
129
  8
LAYER_01
 10
5462.319904115007
 20
4736.148472984059
 30
0.0
  0
VERTEX
  5
12A
  8
LAYER_01
 10
5534.96584174336
 20
4767.665347583586
 30
0.0
  0
VERTEX
  5
12B
  8
LAYER_01
 10
5457.673981658562
 20
4849.210467617499
 30
0.0
  0
VERTEX
  5
12C
  8
LAYER_01
 10
5388.834914213583
 20
4783.509023227276
 30
0.0
  0
SEQEND
  5
12D
  8
LAYER_01
  0
POLYLINE
  5
12E
  8
LAYER_01
 66
     1
 10
0.0
 20
0.0
 30
0.0
 70
     1
  0
VERTEX
  5
12F
  8
LAYER_01
 10
5341.940314178813
 20
4738.751837072063
 30
0.0
  0
VERTEX
  5
130
  8
LAYER_01
 10
5348.174702119891
 20
4744.702067193137
 30
0.0
  0
VERTEX
  5
131
  8
LAYER_01
 10
5387.304538234559
 20
4703.603640379837
 30
0.0
  0
VERTEX
  5
132
  8
LAYER_01
 10
5369.875403488417
 20
4696.042145930103
 30
0.0
  0
SEQEND
  5
133
  8
LAYER_01
  0
POLYLINE
  5
134
  8
LAYER_01
 66
     1
 10
0.0
 20
0.0
 30
0.0
 70
     1
  0
VERTEX
  5
135
  8
LAYER_01
 10
5311.884063220679
 20
4710.065523119849
 30
0.0
  0
VERTEX
  5
136
  8
LAYER_01
 10
5311.884063220679
 20
4670.883054331245
 30
0.0
  0
VERTEX
  5
137
  8
LAYER_01
 10
5353.312725017006
 20
4688.85655679109
 30
0.0
  0
VERTEX
  5
138
  8
LAYER_01
 10
5328.849684151657
 20
4726.257866240026
 30
0.0
  0
SEQEND
  5
139
  8
LAYER_01
  0
POLYLINE
  5
13A
  8
LAYER_01
 66
     1
 10
0.0
 20
0.0
 30
0.0
 70
     1
  0
VERTEX
  5
13B
  8
LAYER_01
 10
5311.88406322068
 20
5028.88958719055
 30
0.0
  0
VERTEX
  5
13C
  8
LAYER_01
 10
5351.243152257807
 20
4987.364624064592
 30
0.0
  0
VERTEX
  5
13D
  8
LAYER_01
 10
5448.915337464583
 20
5045.715218763018
 30
0.0
  0
VERTEX
  5
13E
  8
LAYER_01
 10
5395.05864494284
 20
5129.758663220075
 30
0.0
  0
VERTEX
  5
13F
  8
LAYER_01
 10
5311.884063220679
 20
5129.758663220075
 30
0.0
  0
SEQEND
  5
140
  8
LAYER_01
  0
POLYLINE
  5
141
  8
LAYER_01
 66
     1
 10
0.0
 20
0.0
 30
0.0
 70
     1
  0
VERTEX
  5
142
  8
LAYER_01
 10
5335.589589517685
 20
4978.012988354778
 30
0.0
  0
VERTEX
  5
143
  8
LAYER_01
 10
5311.884063220679
 20
5003.022995685893
 30
0.0
  0
VERTEX
  5
144
  8
LAYER_01
 10
5311.884063220679
 20
4963.851008113002
 30
0.0
  0
SEQEND
  5
145
  8
LAYER_01
  0
POLYLINE
  5
146
  8
LAYER_01
 66
     1
 10
0.0
 20
0.0
 30
0.0
 70
     1
  0
VERTEX
  5
147
  8
LAYER_01
 10
5489.736679287425
 20
4093.799436945983
 30
0.0
  0
VERTEX
  5
148
  8
LAYER_01
 10
5364.577629068424
 20
4215.339866269604
 30
0.0
  0
VERTEX
  5
149
  8
LAYER_01
 10
5392.500125181174
 20
4244.252610524394
 30
0.0
  0
VERTEX
  5
14A
  8
LAYER_01
 10
5532.765936788146
 20
4162.646248947137
 30
0.0
  0
SEQEND
  5
14B
  8
LAYER_01
  0
POLYLINE
  5
14C
  8
LAYER_01
 66
     1
 10
0.0
 20
0.0
 30
0.0
 70
     1
  0
VERTEX
  5
14D
  8
LAYER_01
 10
5352.216220289998
 20
4202.540070391886
 30
0.0
  0
VERTEX
  5
14E
  8
LAYER_01
 10
5344.435241204486
 20
4194.48314534325
 30
0.0
  0
VERTEX
  5
14F
  8
LAYER_01
 10
5451.973959657005
 20
4033.379085537311
 30
0.0
  0
VERTEX
  5
150
  8
LAYER_01
 10
5480.089475022536
 20
4078.363910122161
 30
0.0
  0
SEQEND
  5
151
  8
LAYER_01
  0
POLYLINE
  5
152
  8
LAYER_01
 66
     1
 10
0.0
 20
0.0
 30
0.0
 70
     1
  0
VERTEX
  5
153
  8
LAYER_01
 10
5365.870144916582
 20
3746.967336204402
 30
0.0
  0
VERTEX
  5
154
  8
LAYER_01
 10
5311.884063220679
 20
3775.050223515869
 30
0.0
  0
VERTEX
  5
155
  8
LAYER_01
 10
5311.884063220679
 20
3775.661049744478
 30
0.0
  0
VERTEX
  5
156
  8
LAYER_01
 10
5381.735203054368
 20
3887.422873478379
 30
0.0
  0
VERTEX
  5
157
  8
LAYER_01
 10
5442.416360272964
 20
3830.268804554742
 30
0.0
  0
SEQEND
  5
158
  8
LAYER_01
  0
POLYLINE
  5
159
  8
LAYER_01
 66
     1
 10
0.0
 20
0.0
 30
0.0
 70
     1
  0
VERTEX
  5
15A
  8
LAYER_01
 10
5548.248479335572
 20
3730.588170491535
 30
0.0
  0
VERTEX
  5
15B
  8
LAYER_01
 10
5455.370627686251
 20
3818.067503087681
 30
0.0
  0
VERTEX
  5
15C
  8
LAYER_01
 10
5382.220659030467
 20
3738.462002405012
 30
0.0
  0
VERTEX
  5
15D
  8
LAYER_01
 10
5487.903695782767
 20
3683.487002949294
 30
0.0
  0
SEQEND
  5
15E
  8
LAYER_01
  0
POLYLINE
  5
15F
  8
LAYER_01
 66
     1
 10
0.0
 20
0.0
 30
0.0
 70
     1
  0
VERTEX
  5
160
  8
LAYER_01
 10
5633.620700760542
 20
3587.628986485511
 30
0.0
  0
VERTEX
  5
161
  8
LAYER_01
 10
5489.837395079228
 20
3662.423271306243
 30
0.0
  0
VERTEX
  5
162
  8
LAYER_01
 10
5433.908732945923
 20
3618.769037577007
 30
0.0
  0
VERTEX
  5
163
  8
LAYER_01
 10
5575.142642434113
 20
3542.287366463947
 30
0.0
  0
SEQEND
  5
164
  8
LAYER_01
  0
POLYLINE
  5
165
  8
LAYER_01
 66
     1
 10
0.0
 20
0.0
 30
0.0
 70
     1
  0
VERTEX
  5
166
  8
LAYER_01
 10
5371.8952380931
 20
3570.365383789986
 30
0.0
  0
VERTEX
  5
167
  8
LAYER_01
 10
5453.565978395948
 20
3448.021533054491
 30
0.0
  0
VERTEX
  5
168
  8
LAYER_01
 10
5488.675361299006
 20
3475.243987840794
 30
0.0
  0
VERTEX
  5
169
  8
LAYER_01
 10
5382.158195120444
 20
3578.375972774877
 30
0.0
  0
SEQEND
  5
16A
  8
LAYER_01
  0
POLYLINE
  5
16B
  8
LAYER_01
 66
     1
 10
0.0
 20
0.0
 30
0.0
 70
     1
  0
VERTEX
  5
16C
  8
LAYER_01
 10
5418.602407516783
 20
3606.821927055629
 30
0.0
  0
VERTEX
  5
16D
  8
LAYER_01
 10
5559.776191073192
 20
3530.372815628531
 30
0.0
  0
VERTEX
  5
16E
  8
LAYER_01
 10
5502.880771300479
 20
3486.25831220399
 30
0.0
  0
VERTEX
  5
16F
  8
LAYER_01
 10
5396.321584329089
 20
3589.430982484186
 30
0.0
  0
SEQEND
  5
170
  8
LAYER_01
  0
POLYLINE
  5
171
  8
LAYER_01
 66
     1
 10
0.0
 20
0.0
 30
0.0
 70
     1
  0
VERTEX
  5
172
  8
LAYER_01
 10
5311.884063220679
 20
3315.650337370888
 30
0.0
  0
VERTEX
  5
173
  8
LAYER_01
 10
5311.884063220679
 20
3178.889816405279
 30
0.0
  0
VERTEX
  5
174
  8
LAYER_01
 10
5388.839734478534
 20
3133.363488363846
 30
0.0
  0
VERTEX
  5
175
  8
LAYER_01
 10
5468.591642398304
 20
3221.221889429364
 30
0.0
  0
VERTEX
  5
176
  8
LAYER_01
 10
5345.506764740137
 20
3341.72007703091
 30
0.0
  0
SEQEND
  5
177
  8
LAYER_01
  0
POLYLINE
  5
178
  8
LAYER_01
 66
     1
 10
0.0
 20
0.0
 30
0.0
 70
     1
  0
VERTEX
  5
179
  8
LAYER_01
 10
5376.629430987588
 20
3119.912051661939
 30
0.0
  0
VERTEX
  5
17A
  8
LAYER_01
 10
5327.506069950152
 20
3148.973019002402
 30
0.0
  0
VERTEX
  5
17B
  8
LAYER_01
 10
5366.594530582959
 20
3108.857139906231
 30
0.0
  0
SEQEND
  5
17C
  8
LAYER_01
  0
POLYLINE
  5
17D
  8
LAYER_01
 66
     1
 10
0.0
 20
0.0
 30
0.0
 70
     1
  0
VERTEX
  5
17E
  8
LAYER_01
 10
5361.203102935832
 20
3076.442892685493
 30
0.0
  0
VERTEX
  5
17F
  8
LAYER_01
 10
5367.053664153568
 20
3082.888142301883
 30
0.0
  0
VERTEX
  5
180
  8
LAYER_01
 10
5458.269703760165
 20
2989.274539789777
 30
0.0
  0
VERTEX
  5
181
  8
LAYER_01
 10
5414.16862678054
 20
2989.274539789777
 30
0.0
  0
SEQEND
  5
182
  8
LAYER_01
  0
POLYLINE
  5
183
  8
LAYER_01
 66
     1
 10
0.0
 20
0.0
 30
0.0
 70
     1
  0
VERTEX
  5
184
  8
LAYER_01
 10
5311.884063220679
 20
3123.342658693414
 30
0.0
  0
VERTEX
  5
185
  8
LAYER_01
 10
5311.884063220679
 20
3048.585551308845
 30
0.0
  0
VERTEX
  5
186
  8
LAYER_01
 10
5339.094163692063
 20
3078.561460131651
 30
0.0
  0
SEQEND
  5
187
  8
LAYER_01
  0
POLYLINE
  5
188
  8
LAYER_01
 66
     1
 10
0.0
 20
0.0
 30
0.0
 70
     1
  0
VERTEX
  5
189
  8
LAYER_01
 10
5311.88406322068
 20
3022.110750866153
 30
0.0
  0
VERTEX
  5
18A
  8
LAYER_01
 10
5348.730464576469
 20
3062.702455724106
 30
0.0
  0
VERTEX
  5
18B
  8
LAYER_01
 10
5393.346978518628
 20
2989.274539789777
 30
0.0
  0
VERTEX
  5
18C
  8
LAYER_01
 10
5311.884063220679
 20
2989.274539789777
 30
0.0
  0
SEQEND
  5
18D
  8
LAYER_01
  0
POLYLINE
  5
18E
  8
LAYER_01
 66
     1
 10
0.0
 20
0.0
 30
0.0
 70
     1
  0
VERTEX
  5
18F
  8
LAYER_01
 10
5542.201624173231
 20
4177.743348763272
 30
0.0
  0
VERTEX
  5
190
  8
LAYER_01
 10
5577.547789106316
 20
4234.29721265621
 30
0.0
  0
VERTEX
  5
191
  8
LAYER_01
 10
5480.115619622354
 20
4334.975315733338
 30
0.0
  0
VERTEX
  5
192
  8
LAYER_01
 10
5405.229517123178
 20
4257.43343978307
 30
0.0
  0
SEQEND
  5
193
  8
LAYER_01
  0
POLYLINE
  5
194
  8
LAYER_01
 66
     1
 10
0.0
 20
0.0
 30
0.0
 70
     1
  0
VERTEX
  5
195
  8
LAYER_01
 10
5467.733899796399
 20
4347.76953012384
 30
0.0
  0
VERTEX
  5
196
  8
LAYER_01
 10
5325.978820623579
 20
4494.24715192222
 30
0.0
  0
VERTEX
  5
197
  8
LAYER_01
 10
5311.884063220679
 20
4485.271586968772
 30
0.0
  0
VERTEX
  5
198
  8
LAYER_01
 10
5311.884063220679
 20
4311.741633458269
 30
0.0
  0
VERTEX
  5
199
  8
LAYER_01
 10
5389.39099513881
 20
4266.648259396615
 30
0.0
  0
SEQEND
  5
19A
  8
LAYER_01
  0
POLYLINE
  5
19B
  8
LAYER_01
 66
     1
 10
0.0
 20
0.0
 30
0.0
 70
     1
  0
VERTEX
  5
19C
  8
LAYER_01
 10
5435.135588200049
 20
4563.758363040293
 30
0.0
  0
VERTEX
  5
19D
  8
LAYER_01
 10
5341.299634825857
 20
4504.003471884416
 30
0.0
  0
VERTEX
  5
19E
  8
LAYER_01
 10
5480.102327941833
 20
4360.576594304591
 30
0.0
  0
VERTEX
  5
19F
  8
LAYER_01
 10
5532.525869199178
 20
4414.859292928085
 30
0.0
  0
SEQEND
  5
1A0
  8
LAYER_01
  0
POLYLINE
  5
1A1
  8
LAYER_01
 66
     1
 10
0.0
 20
0.0
 30
0.0
 70
     1
  0
VERTEX
  5
1A2
  8
LAYER_01
 10
5623.986838701001
 20
4275.025490512995
 30
0.0
  0
VERTEX
  5
1A3
  8
LAYER_01
 10
5600.014432856719
 20
4236.669641162144
 30
0.0
  0
VERTEX
  5
1A4
  8
LAYER_01
 10
5710.732031605026
 20
4122.263507353649
 30
0.0
  0
VERTEX
  5
1A5
  8
LAYER_01
 10
5718.426720511514
 20
4130.637257530915
 30
0.0
  0
SEQEND
  5
1A6
  8
LAYER_01
  0
POLYLINE
  5
1A7
  8
LAYER_01
 66
     1
 10
0.0
 20
0.0
 30
0.0
 70
     1
  0
VERTEX
  5
1A8
  8
LAYER_01
 10
5488.24880536716
 20
4597.580948058459
 30
0.0
  0
VERTEX
  5
1A9
  8
LAYER_01
 10
5597.833562624013
 20
4482.483069478648
 30
0.0
  0
VERTEX
  5
1AA
  8
LAYER_01
 10
5545.202785961321
 20
4427.985786018212
 30
0.0
  0
VERTEX
  5
1AB
  8
LAYER_01
 10
5450.146082941523
 20
4573.317071053797
 30
0.0
  0
SEQEND
  5
1AC
  8
LAYER_01
  0
POLYLINE
  5
1AD
  8
LAYER_01
 66
     1
 10
0.0
 20
0.0
 30
0.0
 70
     1
  0
VERTEX
  5
1AE
  8
LAYER_01
 10
5400.373790529874
 20
4689.876884474457
 30
0.0
  0
VERTEX
  5
1AF
  8
LAYER_01
 10
5475.74463090889
 20
4610.714197513631
 30
0.0
  0
VERTEX
  5
1B0
  8
LAYER_01
 10
5440.405119089378
 20
4588.20993761811
 30
0.0
  0
VERTEX
  5
1B1
  8
LAYER_01
 10
5379.757925781876
 20
4680.932852017372
 30
0.0
  0
SEQEND
  5
1B2
  8
LAYER_01
  0
POLYLINE
  5
1B3
  8
LAYER_01
 66
     1
 10
0.0
 20
0.0
 30
0.0
 70
     1
  0
VERTEX
  5
1B4
  8
LAYER_01
 10
5583.353040006717
 20
4658.143482833244
 30
0.0
  0
VERTEX
  5
1B5
  8
LAYER_01
 10
5696.840750676105
 20
4585.001465254482
 30
0.0
  0
VERTEX
  5
1B6
  8
LAYER_01
 10
5702.524209737693
 20
4590.886483473009
 30
0.0
  0
VERTEX
  5
1B7
  8
LAYER_01
 10
5617.914420721632
 20
4680.152227547342
 30
0.0
  0
SEQEND
  5
1B8
  8
LAYER_01
  0
POLYLINE
  5
1B9
  8
LAYER_01
 66
     1
 10
0.0
 20
0.0
 30
0.0
 70
     1
  0
VERTEX
  5
1BA
  8
LAYER_01
 10
5664.26200262816
 20
4709.66644478046
 30
0.0
  0
VERTEX
  5
1BB
  8
LAYER_01
 10
5725.279416434782
 20
4614.448684683145
 30
0.0
  0
VERTEX
  5
1BC
  8
LAYER_01
 10
5714.897652183237
 20
4603.698739781858
 30
0.0
  0
VERTEX
  5
1BD
  8
LAYER_01
 10
5633.203538456946
 20
4689.888363146667
 30
0.0
  0
SEQEND
  5
1BE
  8
LAYER_01
  0
POLYLINE
  5
1BF
  8
LAYER_01
 66
     1
 10
0.0
 20
0.0
 30
0.0
 70
     1
  0
VERTEX
  5
1C0
  8
LAYER_01
 10
5758.860526069127
 20
4791.002870367371
 30
0.0
  0
VERTEX
  5
1C1
  8
LAYER_01
 10
5669.67061546615
 20
4734.206586974475
 30
0.0
  0
VERTEX
  5
1C2
  8
LAYER_01
 10
5633.316484678826
 20
4790.9372592187
 30
0.0
  0
VERTEX
  5
1C3
  8
LAYER_01
 10
5722.990495863982
 20
4829.841630992628
 30
0.0
  0
SEQEND
  5
1C4
  8
LAYER_01
  0
POLYLINE
  5
1C5
  8
LAYER_01
 66
     1
 10
0.0
 20
0.0
 30
0.0
 70
     1
  0
VERTEX
  5
1C6
  8
LAYER_01
 10
5763.299011039081
 20
4653.816612644391
 30
0.0
  0
VERTEX
  5
1C7
  8
LAYER_01
 10
5737.983856906914
 20
4627.603677588784
 30
0.0
  0
VERTEX
  5
1C8
  8
LAYER_01
 10
5679.271443332143
 20
4719.224481581137
 30
0.0
  0
VERTEX
  5
1C9
  8
LAYER_01
 10
5763.29901103908
 20
4772.733376432969
 30
0.0
  0
SEQEND
  5
1CA
  8
LAYER_01
  0
POLYLINE
  5
1CB
  8
LAYER_01
 66
     1
 10
0.0
 20
0.0
 30
0.0
 70
     1
  0
VERTEX
  5
1CC
  8
LAYER_01
 10
5442.68801385257
 20
4727.631330198757
 30
0.0
  0
VERTEX
  5
1CD
  8
LAYER_01
 10
5404.692054391448
 20
4711.147078928559
 30
0.0
  0
VERTEX
  5
1CE
  8
LAYER_01
 10
5361.047111621025
 20
4756.98776379533
 30
0.0
  0
VERTEX
  5
1CF
  8
LAYER_01
 10
5375.594828109246
 20
4770.872408392231
 30
0.0
  0
SEQEND
  5
1D0
  8
LAYER_01
  0
POLYLINE
  5
1D1
  8
LAYER_01
 66
     1
 10
0.0
 20
0.0
 30
0.0
 70
     1
  0
VERTEX
  5
1D2
  8
LAYER_01
 10
5311.88406322068
 20
4833.103296147452
 30
0.0
  0
VERTEX
  5
1D3
  8
LAYER_01
 10
5373.450646602395
 20
4793.424073635967
 30
0.0
  0
VERTEX
  5
1D4
  8
LAYER_01
 10
5445.432759675471
 20
4862.125306448881
 30
0.0
  0
VERTEX
  5
1D5
  8
LAYER_01
 10
5348.133383135278
 20
4964.77892780681
 30
0.0
  0
VERTEX
  5
1D6
  8
LAYER_01
 10
5311.884063220679
 20
4943.12312713078
 30
0.0
  0
SEQEND
  5
1D7
  8
LAYER_01
  0
POLYLINE
  5
1D8
  8
LAYER_01
 66
     1
 10
0.0
 20
0.0
 30
0.0
 70
     1
  0
VERTEX
  5
1D9
  8
LAYER_01
 10
5520.59392058768
 20
4933.860688946981
 30
0.0
  0
VERTEX
  5
1DA
  8
LAYER_01
 10
5458.520855041848
 20
5030.725795068642
 30
0.0
  0
VERTEX
  5
1DB
  8
LAYER_01
 10
5363.786945875399
 20
4974.130563516625
 30
0.0
  0
VERTEX
  5
1DC
  8
LAYER_01
 10
5458.305236464334
 20
4874.411067271888
 30
0.0
  0
SEQEND
  5
1DD
  8
LAYER_01
  0
POLYLINE
  5
1DE
  8
LAYER_01
 66
     1
 10
0.0
 20
0.0
 30
0.0
 70
     1
  0
VERTEX
  5
1DF
  8
LAYER_01
 10
5623.590603411182
 20
4806.114510621265
 30
0.0
  0
VERTEX
  5
1E0
  8
LAYER_01
 10
5543.488626702316
 20
4931.113757979692
 30
0.0
  0
VERTEX
  5
1E1
  8
LAYER_01
 10
5589.182060108051
 20
4974.724525605283
 30
0.0
  0
VERTEX
  5
1E2
  8
LAYER_01
 10
5710.200916701044
 20
4843.68972090965
 30
0.0
  0
SEQEND
  5
1E3
  8
LAYER_01
  0
POLYLINE
  5
1E4
  8
LAYER_01
 66
     1
 10
0.0
 20
0.0
 30
0.0
 70
     1
  0
VERTEX
  5
1E5
  8
LAYER_01
 10
5416.193063655652
 20
5129.758663220075
 30
0.0
  0
VERTEX
  5
1E6
  8
LAYER_01
 10
5464.198750028192
 20
5054.84572209127
 30
0.0
  0
VERTEX
  5
1E7
  8
LAYER_01
 10
5497.056122894513
 20
5074.475130841764
 30
0.0
  0
VERTEX
  5
1E8
  8
LAYER_01
 10
5445.998315067157
 20
5129.758663220075
 30
0.0
  0
SEQEND
  5
1E9
  8
LAYER_01
  0
POLYLINE
  5
1EA
  8
LAYER_01
 66
     1
 10
0.0
 20
0.0
 30
0.0
 70
     1
  0
VERTEX
  5
1EB
  8
LAYER_01
 10
5470.220574868488
 20
5129.758663220076
 30
0.0
  0
VERTEX
  5
1EC
  8
LAYER_01
 10
5512.665783684753
 20
5083.800538973291
 30
0.0
  0
VERTEX
  5
1ED
  8
LAYER_01
 10
5576.988074017236
 20
5122.227486064927
 30
0.0
  0
VERTEX
  5
1EE
  8
LAYER_01
 10
5566.127898264522
 20
5129.758663220075
 30
0.0
  0
SEQEND
  5
1EF
  8
LAYER_01
  0
POLYLINE
  5
1F0
  8
LAYER_01
 66
     1
 10
0.0
 20
0.0
 30
0.0
 70
     1
  0
VERTEX
  5
1F1
  8
LAYER_01
 10
5525.002514640493
 20
5070.4427765809
 30
0.0
  0
VERTEX
  5
1F2
  8
LAYER_01
 10
5589.981625770366
 20
5000.085764658084
 30
0.0
  0
VERTEX
  5
1F3
  8
LAYER_01
 10
5658.633804646981
 20
5065.608838693545
 30
0.0
  0
VERTEX
  5
1F4
  8
LAYER_01
 10
5593.045245793473
 20
5111.092361918591
 30
0.0
  0
SEQEND
  5
1F5
  8
LAYER_01
  0
POLYLINE
  5
1F6
  8
LAYER_01
 66
     1
 10
0.0
 20
0.0
 30
0.0
 70
     1
  0
VERTEX
  5
1F7
  8
LAYER_01
 10
5763.29901103908
 20
5014.681185077452
 30
0.0
  0
VERTEX
  5
1F8
  8
LAYER_01
 10
5686.701463776176
 20
5067.799082174341
 30
0.0
  0
VERTEX
  5
1F9
  8
LAYER_01
 10
5751.61997231211
 20
5129.758663220075
 30
0.0
  0
VERTEX
  5
1FA
  8
LAYER_01
 10
5763.29901103908
 20
5129.758663220075
 30
0.0
  0
SEQEND
  5
1FB
  8
LAYER_01
  0
POLYLINE
  5
1FC
  8
LAYER_01
 66
     1
 10
0.0
 20
0.0
 30
0.0
 70
     1
  0
VERTEX
  5
1FD
  8
LAYER_01
 10
5763.29901103908
 20
4812.424020295191
 30
0.0
  0
VERTEX
  5
1FE
  8
LAYER_01
 10
5763.29901103908
 20
4847.329166559529
 30
0.0
  0
VERTEX
  5
1FF
  8
LAYER_01
 10
5740.283704469417
 20
4837.344154944198
 30
0.0
  0
SEQEND
  5
200
  8
LAYER_01
  0
POLYLINE
  5
201
  8
LAYER_01
 66
     1
 10
0.0
 20
0.0
 30
0.0
 70
     1
  0
VERTEX
  5
202
  8
LAYER_01
 10
5763.29901103908
 20
4588.099343946878
 30
0.0
  0
VERTEX
  5
203
  8
LAYER_01
 10
5763.29901103908
 20
4628.201571014203
 30
0.0
  0
VERTEX
  5
204
  8
LAYER_01
 10
5747.851107019738
 20
4612.205819904408
 30
0.0
  0
SEQEND
  5
205
  8
LAYER_01
  0
POLYLINE
  5
206
  8
LAYER_01
 66
     1
 10
0.0
 20
0.0
 30
0.0
 70
     1
  0
VERTEX
  5
207
  8
LAYER_01
 10
5701.63598972877
 20
4399.264132157427
 30
0.0
  0
VERTEX
  5
208
  8
LAYER_01
 10
5763.29901103908
 20
4497.924966253924
 30
0.0
  0
VERTEX
  5
209
  8
LAYER_01
 10
5763.29901103908
 20
4334.498893658032
 30
0.0
  0
SEQEND
  5
20A
  8
LAYER_01
  0
POLYLINE
  5
20B
  8
LAYER_01
 66
     1
 10
0.0
 20
0.0
 30
0.0
 70
     1
  0
VERTEX
  5
20C
  8
LAYER_01
 10
5672.914229415717
 20
4081.108259671121
 30
0.0
  0
VERTEX
  5
20D
  8
LAYER_01
 10
5592.69899849845
 20
3993.81398276455
 30
0.0
  0
VERTEX
  5
20E
  8
LAYER_01
 10
5502.79504362015
 20
4081.118618383631
 30
0.0
  0
VERTEX
  5
20F
  8
LAYER_01
 10
5548.154255171374
 20
4153.693356865591
 30
0.0
  0
SEQEND
  5
210
  8
LAYER_01
  0
POLYLINE
  5
211
  8
LAYER_01
 66
     1
 10
0.0
 20
0.0
 30
0.0
 70
     1
  0
VERTEX
  5
212
  8
LAYER_01
 10
5763.29901103908
 20
4028.522579057051
 30
0.0
  0
VERTEX
  5
213
  8
LAYER_01
 10
5763.29901103908
 20
3898.442465883143
 30
0.0
  0
VERTEX
  5
214
  8
LAYER_01
 10
5723.167021055897
 20
3867.118075062395
 30
0.0
  0
VERTEX
  5
215
  8
LAYER_01
 10
5605.469503091461
 20
3981.412701289516
 30
0.0
  0
VERTEX
  5
216
  8
LAYER_01
 10
5688.661550432307
 20
4071.946500593622
 30
0.0
  0
SEQEND
  5
217
  8
LAYER_01
  0
POLYLINE
  5
218
  8
LAYER_01
 66
     1
 10
0.0
 20
0.0
 30
0.0
 70
     1
  0
VERTEX
  5
219
  8
LAYER_01
 10
5452.465605757177
 20
4000.591517802876
 30
0.0
  0
VERTEX
  5
21A
  8
LAYER_01
 10
5514.091603913183
 20
3908.26943478578
 30
0.0
  0
VERTEX
  5
21B
  8
LAYER_01
 10
5454.457248213068
 20
3843.372308640251
 30
0.0
  0
VERTEX
  5
21C
  8
LAYER_01
 10
5391.351929121789
 20
3902.809635186253
 30
0.0
  0
SEQEND
  5
21D
  8
LAYER_01
  0
POLYLINE
  5
21E
  8
LAYER_01
 66
     1
 10
0.0
 20
0.0
 30
0.0
 70
     1
  0
VERTEX
  5
21F
  8
LAYER_01
 10
5467.411515626356
 20
3831.17100717319
 30
0.0
  0
VERTEX
  5
220
  8
LAYER_01
 10
5562.440528024858
 20
3741.665549905728
 30
0.0
  0
VERTEX
  5
221
  8
LAYER_01
 10
5603.768840669811
 20
3773.923711481943
 30
0.0
  0
VERTEX
  5
222
  8
LAYER_01
 10
5524.259893539927
 20
3893.03629119132
 30
0.0
  0
SEQEND
  5
223
  8
LAYER_01
  0
POLYLINE
  5
224
  8
LAYER_01
 66
     1
 10
0.0
 20
0.0
 30
0.0
 70
     1
  0
VERTEX
  5
225
  8
LAYER_01
 10
5536.652256551677
 20
3906.522288250782
 30
0.0
  0
VERTEX
  5
226
  8
LAYER_01
 10
5617.834718943051
 20
3784.902610570989
 30
0.0
  0
VERTEX
  5
227
  8
LAYER_01
 10
5709.006540625816
 20
3856.065335754246
 30
0.0
  0
VERTEX
  5
228
  8
LAYER_01
 10
5593.424951025853
 20
3968.305209717059
 30
0.0
  0
SEQEND
  5
229
  8
LAYER_01
  0
POLYLINE
  5
22A
  8
LAYER_01
 66
     1
 10
0.0
 20
0.0
 30
0.0
 70
     1
  0
VERTEX
  5
22B
  8
LAYER_01
 10
5441.6285860712
 20
4016.826487800021
 30
0.0
  0
VERTEX
  5
22C
  8
LAYER_01
 10
5331.784685226441
 20
4181.383947900542
 30
0.0
  0
VERTEX
  5
22D
  8
LAYER_01
 10
5311.884063220679
 20
4160.7775668578
 30
0.0
  0
VERTEX
  5
22E
  8
LAYER_01
 10
5311.884063220679
 20
3977.658436578829
 30
0.0
  0
VERTEX
  5
22F
  8
LAYER_01
 10
5378.14349022101
 20
3915.250334439718
 30
0.0
  0
SEQEND
  5
230
  8
LAYER_01
  0
POLYLINE
  5
231
  8
LAYER_01
 66
     1
 10
0.0
 20
0.0
 30
0.0
 70
     1
  0
VERTEX
  5
232
  8
LAYER_01
 10
5351.811928627316
 20
4227.736482491237
 30
0.0
  0
VERTEX
  5
233
  8
LAYER_01
 10
5311.884063220679
 20
4266.509946295946
 30
0.0
  0
VERTEX
  5
234
  8
LAYER_01
 10
5311.884063220679
 20
4291.154870069412
 30
0.0
  0
VERTEX
  5
235
  8
LAYER_01
 10
5376.661603196806
 20
4253.46743013794
 30
0.0
  0
SEQEND
  5
236
  8
LAYER_01
  0
POLYLINE
  5
237
  8
LAYER_01
 66
     1
 10
0.0
 20
0.0
 30
0.0
 70
     1
  0
VERTEX
  5
238
  8
LAYER_01
 10
5339.450519848891
 20
4214.936686613519
 30
0.0
  0
VERTEX
  5
239
  8
LAYER_01
 10
5334.324973149584
 20
4209.629366655998
 30
0.0
  0
VERTEX
  5
23A
  8
LAYER_01
 10
5314.810015311794
 20
4238.864780466492
 30
0.0
  0
SEQEND
  5
23B
  8
LAYER_01
  0
POLYLINE
  5
23C
  8
LAYER_01
 66
     1
 10
0.0
 20
0.0
 30
0.0
 70
     1
  0
VERTEX
  5
23D
  8
LAYER_01
 10
5311.884063220679
 20
3953.213920377296
 30
0.0
  0
VERTEX
  5
23E
  8
LAYER_01
 10
5311.884063220679
 20
3809.235251239188
 30
0.0
  0
VERTEX
  5
23F
  8
LAYER_01
 10
5368.526764153589
 20
3899.863572731843
 30
0.0
  0
SEQEND
  5
240
  8
LAYER_01
  0
POLYLINE
  5
241
  8
LAYER_01
 66
     1
 10
0.0
 20
0.0
 30
0.0
 70
     1
  0
VERTEX
  5
242
  8
LAYER_01
 10
5561.353988284693
 20
3718.244418393021
 30
0.0
  0
VERTEX
  5
243
  8
LAYER_01
 10
5505.257945538399
 20
3674.459538370411
 30
0.0
  0
VERTEX
  5
244
  8
LAYER_01
 10
5649.102823493453
 20
3599.63322441975
 30
0.0
  0
VERTEX
  5
245
  8
LAYER_01
 10
5670.045051354658
 20
3615.871016255917
 30
0.0
  0
SEQEND
  5
246
  8
LAYER_01
  0
POLYLINE
  5
247
  8
LAYER_01
 66
     1
 10
0.0
 20
0.0
 30
0.0
 70
     1
  0
VERTEX
  5
248
  8
LAYER_01
 10
5627.741101411782
 20
3770.061830834455
 30
0.0
  0
VERTEX
  5
249
  8
LAYER_01
 10
5709.990765680668
 20
3646.843374988307
 30
0.0
  0
VERTEX
  5
24A
  8
LAYER_01
 10
5763.29901103908
 20
3688.176522398316
 30
0.0
  0
VERTEX
  5
24B
  8
LAYER_01
 10
5763.29901103908
 20
3803.342578977795
 30
0.0
  0
VERTEX
  5
24C
  8
LAYER_01
 10
5721.893481858033
 20
3843.550984076991
 30
0.0
  0
SEQEND
  5
24D
  8
LAYER_01
  0
POLYLINE
  5
24E
  8
LAYER_01
 66
     1
 10
0.0
 20
0.0
 30
0.0
 70
     1
  0
VERTEX
  5
24F
  8
LAYER_01
 10
5592.2409548301
 20
3533.028205473522
 30
0.0
  0
VERTEX
  5
250
  8
LAYER_01
 10
5699.100480262941
 20
3475.16111739907
 30
0.0
  0
VERTEX
  5
251
  8
LAYER_01
 10
5723.708844559192
 20
3502.270832969527
 30
0.0
  0
VERTEX
  5
252
  8
LAYER_01
 10
5651.624430005362
 20
3578.263670765499
 30
0.0
  0
VERTEX
  5
253
  8
LAYER_01
 10
5651.00061724706
 20
3578.588170392894
 30
0.0
  0
SEQEND
  5
254
  8
LAYER_01
  0
POLYLINE
  5
255
  8
LAYER_01
 66
     1
 10
0.0
 20
0.0
 30
0.0
 70
     1
  0
VERTEX
  5
256
  8
LAYER_01
 10
5665.314978684333
 20
3589.686971476835
 30
0.0
  0
VERTEX
  5
257
  8
LAYER_01
 10
5735.702236759296
 20
3515.483310131989
 30
0.0
  0
VERTEX
  5
258
  8
LAYER_01
 10
5754.565185478314
 20
3536.263609400828
 30
0.0
  0
VERTEX
  5
259
  8
LAYER_01
 10
5683.157125467509
 20
3603.521080593384
 30
0.0
  0
SEQEND
  5
25A
  8
LAYER_01
  0
POLYLINE
  5
25B
  8
LAYER_01
 66
     1
 10
0.0
 20
0.0
 30
0.0
 70
     1
  0
VERTEX
  5
25C
  8
LAYER_01
 10
5576.874503469178
 20
3521.113654638105
 30
0.0
  0
VERTEX
  5
25D
  8
LAYER_01
 10
5515.794730888676
 20
3473.754766217266
 30
0.0
  0
VERTEX
  5
25E
  8
LAYER_01
 10
5612.676262077659
 20
3379.952189849213
 30
0.0
  0
VERTEX
  5
25F
  8
LAYER_01
 10
5686.785351042283
 20
3461.594199810957
 30
0.0
  0
SEQEND
  5
260
  8
LAYER_01
  0
POLYLINE
  5
261
  8
LAYER_01
 66
     1
 10
0.0
 20
0.0
 30
0.0
 70
     1
  0
VERTEX
  5
262
  8
LAYER_01
 10
5600.710134586666
 20
3366.769748754984
 30
0.0
  0
VERTEX
  5
263
  8
LAYER_01
 10
5501.589320887203
 20
3462.74044185407
 30
0.0
  0
VERTEX
  5
264
  8
LAYER_01
 10
5463.470430944993
 20
3433.184531947561
 30
0.0
  0
VERTEX
  5
265
  8
LAYER_01
 10
5547.175391413279
 20
3307.793392460177
 30
0.0
  0
SEQEND
  5
266
  8
LAYER_01
  0
POLYLINE
  5
267
  8
LAYER_01
 66
     1
 10
0.0
 20
0.0
 30
0.0
 70
     1
  0
VERTEX
  5
268
  8
LAYER_01
 10
5359.701176103779
 20
3352.725873476603
 30
0.0
  0
VERTEX
  5
269
  8
LAYER_01
 10
5449.372575336019
 20
3422.253601091876
 30
0.0
  0
VERTEX
  5
26A
  8
LAYER_01
 10
5534.846967755997
 20
3294.211829104017
 30
0.0
  0
VERTEX
  5
26B
  8
LAYER_01
 10
5480.560082037913
 20
3234.406877693757
 30
0.0
  0
SEQEND
  5
26C
  8
LAYER_01
  0
POLYLINE
  5
26D
  8
LAYER_01
 66
     1
 10
0.0
 20
0.0
 30
0.0
 70
     1
  0
VERTEX
  5
26E
  8
LAYER_01
 10
5353.399758764133
 20
3733.396430411631
 30
0.0
  0
VERTEX
  5
26F
  8
LAYER_01
 10
5332.423884751097
 20
3710.569421955595
 30
0.0
  0
VERTEX
  5
270
  8
LAYER_01
 10
5311.884063220679
 20
3731.600353445563
 30
0.0
  0
VERTEX
  5
271
  8
LAYER_01
 10
5311.884063220679
 20
3754.992378162966
 30
0.0
  0
SEQEND
  5
272
  8
LAYER_01
  0
POLYLINE
  5
273
  8
LAYER_01
 66
     1
 10
0.0
 20
0.0
 30
0.0
 70
     1
  0
VERTEX
  5
274
  8
LAYER_01
 10
5320.366302007278
 20
3697.44774973915
 30
0.0
  0
VERTEX
  5
275
  8
LAYER_01
 10
5311.884063220679
 20
3706.13280002249
 30
0.0
  0
VERTEX
  5
276
  8
LAYER_01
 10
5311.884063220679
 20
3688.216947895687
 30
0.0
  0
SEQEND
  5
277
  8
LAYER_01
  0
POLYLINE
  5
278
  8
LAYER_01
 66
     1
 10
0.0
 20
0.0
 30
0.0
 70
     1
  0
VERTEX
  5
279
  8
LAYER_01
 10
5613.500722676213
 20
3354.385653444581
 30
0.0
  0
VERTEX
  5
27A
  8
LAYER_01
 10
5557.359340162548
 20
3292.537702343272
 30
0.0
  0
VERTEX
  5
27B
  8
LAYER_01
 10
5622.359125749344
 20
3195.167162585928
 30
0.0
  0
VERTEX
  5
27C
  8
LAYER_01
 10
5680.804739432477
 20
3289.220599856184
 30
0.0
  0
SEQEND
  5
27D
  8
LAYER_01
  0
POLYLINE
  5
27E
  8
LAYER_01
 66
     1
 10
0.0
 20
0.0
 30
0.0
 70
     1
  0
VERTEX
  5
27F
  8
LAYER_01
 10
5625.466850167206
 20
3367.568094538811
 30
0.0
  0
VERTEX
  5
280
  8
LAYER_01
 10
5702.897366599942
 20
3452.869143064209
 30
0.0
  0
VERTEX
  5
281
  8
LAYER_01
 10
5762.455537387234
 20
3420.616913788986
 30
0.0
  0
VERTEX
  5
282
  8
LAYER_01
 10
5690.414283281189
 20
3304.684730910924
 30
0.0
  0
SEQEND
  5
283
  8
LAYER_01
  0
POLYLINE
  5
284
  8
LAYER_01
 66
     1
 10
0.0
 20
0.0
 30
0.0
 70
     1
  0
VERTEX
  5
285
  8
LAYER_01
 10
5763.29901103908
 20
3234.116324758897
 30
0.0
  0
VERTEX
  5
286
  8
LAYER_01
 10
5763.29901103908
 20
3388.260421928742
 30
0.0
  0
VERTEX
  5
287
  8
LAYER_01
 10
5703.494511091103
 20
3292.020200809128
 30
0.0
  0
SEQEND
  5
288
  8
LAYER_01
  0
POLYLINE
  5
289
  8
LAYER_01
 66
     1
 10
0.0
 20
0.0
 30
0.0
 70
     1
  0
VERTEX
  5
28A
  8
LAYER_01
 10
5693.884967242389
 20
3276.556069754388
 30
0.0
  0
VERTEX
  5
28B
  8
LAYER_01
 10
5633.2091496086
 20
3178.91368313183
 30
0.0
  0
VERTEX
  5
28C
  8
LAYER_01
 10
5739.712481911187
 20
3019.370280663052
 30
0.0
  0
VERTEX
  5
28D
  8
LAYER_01
 10
5763.29901103908
 20
3046.277656852273
 30
0.0
  0
VERTEX
  5
28E
  8
LAYER_01
 10
5763.29901103908
 20
3209.348047086443
 30
0.0
  0
SEQEND
  5
28F
  8
LAYER_01
  0
POLYLINE
  5
290
  8
LAYER_01
 66
     1
 10
0.0
 20
0.0
 30
0.0
 70
     1
  0
VERTEX
  5
291
  8
LAYER_01
 10
5721.470207130392
 20
2998.559598963661
 30
0.0
  0
VERTEX
  5
292
  8
LAYER_01
 10
5596.911055233699
 20
3120.501078195748
 30
0.0
  0
VERTEX
  5
293
  8
LAYER_01
 10
5622.89469210981
 20
3162.315171794457
 30
0.0
  0
VERTEX
  5
294
  8
LAYER_01
 10
5727.566955697763
 20
3005.514734513443
 30
0.0
  0
SEQEND
  5
295
  8
LAYER_01
  0
POLYLINE
  5
296
  8
LAYER_01
 66
     1
 10
0.0
 20
0.0
 30
0.0
 70
     1
  0
VERTEX
  5
297
  8
LAYER_01
 10
5481.316052389775
 20
3208.764889256446
 30
0.0
  0
VERTEX
  5
298
  8
LAYER_01
 10
5574.264027264948
 20
3117.770262403932
 30
0.0
  0
VERTEX
  5
299
  8
LAYER_01
 10
5531.506589050203
 20
3048.962976800426
 30
0.0
  0
VERTEX
  5
29A
  8
LAYER_01
 10
5404.475339636793
 20
3124.113595822773
 30
0.0
  0
SEQEND
  5
29B
  8
LAYER_01
  0
POLYLINE
  5
29C
  8
LAYER_01
 66
     1
 10
0.0
 20
0.0
 30
0.0
 70
     1
  0
VERTEX
  5
29D
  8
LAYER_01
 10
5597.453245472005
 20
2989.274539789776
 30
0.0
  0
VERTEX
  5
29E
  8
LAYER_01
 10
5537.431103011375
 20
3024.783134578797
 30
0.0
  0
VERTEX
  5
29F
  8
LAYER_01
 10
5515.365757249404
 20
2989.274539789777
 30
0.0
  0
SEQEND
  5
2A0
  8
LAYER_01
  0
POLYLINE
  5
2A1
  8
LAYER_01
 66
     1
 10
0.0
 20
0.0
 30
0.0
 70
     1
  0
VERTEX
  5
2A2
  8
LAYER_01
 10
5705.518120063917
 20
2989.274539789776
 30
0.0
  0
VERTEX
  5
2A3
  8
LAYER_01
 10
5587.289851057104
 20
3105.018182791592
 30
0.0
  0
VERTEX
  5
2A4
  8
LAYER_01
 10
5546.825225890027
 20
3039.900600051342
 30
0.0
  0
VERTEX
  5
2A5
  8
LAYER_01
 10
5632.401256687494
 20
2989.274539789777
 30
0.0
  0
SEQEND
  5
2A6
  8
LAYER_01
  0
ENDSEC
  0
EOF
