  0
SECTION
  2
HEADER
  9
$ACADVER
  1
AC1009
  9
$DWGCODEPAGE
  3
ansi_1252
  9
$INSBASE
 10
0.0
 20
0.0
 30
0.0
  9
$EXTMIN
 10
1.000000000000000E+20
 20
1.000000000000000E+20
 30
1.000000000000000E+20
  9
$EXTMAX
 10
-1.000000000000000E+20
 20
-1.000000000000000E+20
 30
-1.000000000000000E+20
  9
$LIMMIN
 10
0.0
 20
0.0
  9
$LIMMAX
 10
12.0
 20
9.0
  9
$ORTHOMODE
 70
     0
  9
$REGENMODE
 70
     1
  9
$FILLMODE
 70
     1
  9
$QTEXTMODE
 70
     0
  9
$MIRRTEXT
 70
     1
  9
$DRAGMODE
 70
     2
  9
$LTSCALE
 40
1.0
  9
$OSMODE
 70
    37
  9
$ATTMODE
 70
     1
  9
$TEXTSIZE
 40
0.2
  9
$TRACEWID
 40
0.05
  9
$TEXTSTYLE
  7
STANDARD
  9
$CLAYER
  8
LAYER_01
  9
$CELTYPE
  6
BYLAYER
  9
$CECOLOR
 62
   256
  9
$DIMSCALE
 40
1.0
  9
$DIMASZ
 40
0.18
  9
$DIMEXO
 40
0.0625
  9
$DIMDLI
 40
0.38
  9
$DIMRND
 40
0.0
  9
$DIMDLE
 40
0.0
  9
$DIMEXE
 40
0.18
  9
$DIMTP
 40
0.0
  9
$DIMTM
 40
0.0
  9
$DIMTXT
 40
0.18
  9
$DIMCEN
 40
0.09
  9
$DIMTSZ
 40
0.0
  9
$DIMTOL
 70
     0
  9
$DIMLIM
 70
     0
  9
$DIMTIH
 70
     1
  9
$DIMTOH
 70
     1
  9
$DIMSE1
 70
     0
  9
$DIMSE2
 70
     0
  9
$DIMTAD
 70
     0
  9
$DIMZIN
 70
     0
  9
$DIMBLK
  1

  9
$DIMASO
 70
     1
  9
$DIMSHO
 70
     1
  9
$DIMPOST
  1

  9
$DIMAPOST
  1

  9
$DIMALT
 70
     0
  9
$DIMALTD
 70
     2
  9
$DIMALTF
 40
25.4
  9
$DIMLFAC
 40
1.0
  9
$DIMTOFL
 70
     0
  9
$DIMTVP
 40
0.0
  9
$DIMTIX
 70
     0
  9
$DIMSOXD
 70
     0
  9
$DIMSAH
 70
     0
  9
$DIMBLK1
  1

  9
$DIMBLK2
  1

  9
$DIMSTYLE
  2
STANDARD_ACAD
  9
$DIMCLRD
 70
     0
  9
$DIMCLRE
 70
     0
  9
$DIMCLRT
 70
     0
  9
$DIMTFAC
 40
1.0
  9
$DIMGAP
 40
0.09
  9
$LUNITS
 70
     2
  9
$LUPREC
 70
     3
  9
$SKETCHINC
 40
0.1
  9
$FILLETRAD
 40
0.5
  9
$AUNITS
 70
     0
  9
$AUPREC
 70
     0
  9
$MENU
  1
.
  9
$ELEVATION
 40
0.0
  9
$PELEVATION
 40
0.0
  9
$THICKNESS
 40
0.0
  9
$LIMCHECK
 70
     0
  9
$CHAMFERA
 40
0.0
  9
$CHAMFERB
 40
0.0
  9
$SKPOLY
 70
     0
  9
$TDCREATE
 40
2460063.84286338
  9
$TDUPDATE
 40
2460063.842863472
  9
$TDINDWG
 40
0.0000000116
  9
$TDUSRTIMER
 40
0.0000000116
  9
$USRTIMER
 70
     1
  9
$ANGBASE
 50
0.0
  9
$ANGDIR
 70
     0
  9
$PDMODE
 70
     0
  9
$PDSIZE
 40
0.0
  9
$PLINEWID
 40
0.0
  9
$COORDS
 70
     1
  9
$SPLFRAME
 70
     0
  9
$SPLINETYPE
 70
     6
  9
$SPLINESEGS
 70
     8
  9
$ATTDIA
 70
     0
  9
$ATTREQ
 70
     1
  9
$HANDLING
 70
     1
  9
$HANDSEED
  5
265
  9
$SURFTAB1
 70
     6
  9
$SURFTAB2
 70
     6
  9
$SURFTYPE
 70
     6
  9
$SURFU
 70
     6
  9
$SURFV
 70
     6
  9
$UCSNAME
  2

  9
$UCSORG
 10
0.0
 20
0.0
 30
0.0
  9
$UCSXDIR
 10
1.0
 20
0.0
 30
0.0
  9
$UCSYDIR
 10
0.0
 20
1.0
 30
0.0
  9
$PUCSNAME
  2

  9
$PUCSORG
 10
0.0
 20
0.0
 30
0.0
  9
$PUCSXDIR
 10
1.0
 20
0.0
 30
0.0
  9
$PUCSYDIR
 10
0.0
 20
1.0
 30
0.0
  9
$USERI1
 70
     0
  9
$USERI2
 70
     0
  9
$USERI3
 70
     0
  9
$USERI4
 70
     0
  9
$USERI5
 70
     0
  9
$USERR1
 40
0.0
  9
$USERR2
 40
0.0
  9
$USERR3
 40
0.0
  9
$USERR4
 40
0.0
  9
$USERR5
 40
0.0
  9
$WORLDVIEW
 70
     1
  9
$SHADEDGE
 70
     3
  9
$SHADEDIF
 70
    70
  9
$TILEMODE
 70
     1
  9
$MAXACTVP
 70
    64
  9
$PLIMCHECK
 70
     0
  9
$PEXTMIN
 10
1.000000000000000E+20
 20
1.000000000000000E+20
 30
1.000000000000000E+20
  9
$PEXTMAX
 10
-1.000000000000000E+20
 20
-1.000000000000000E+20
 30
-1.000000000000000E+20
  9
$PLIMMIN
 10
0.0
 20
0.0
  9
$PLIMMAX
 10
12.0
 20
9.0
  9
$UNITMODE
 70
     0
  9
$VISRETAIN
 70
     1
  9
$PLINEGEN
 70
     0
  9
$PSLTSCALE
 70
     1
  0
ENDSEC
  0
SECTION
  2
TABLES
  0
TABLE
  2
VPORT
 70
     1
  0
VPORT
  2
*ACTIVE
 70
     0
 10
0.0
 20
0.0
 11
1.0
 21
1.0
 12
10.42990654205607
 22
4.5
 13
0.0
 23
0.0
 14
0.5
 24
0.5
 15
0.5
 25
0.5
 16
0.0
 26
0.0
 36
1.0
 17
0.0
 27
0.0
 37
0.0
 40
9.0
 41
1.972972972850329
 42
50.0
 43
0.0
 44
0.0
 50
0.0
 51
0.0
 71
     0
 72
   100
 73
     1
 74
     3
 75
     0
 76
     0
 77
     0
 78
     0
  0
ENDTAB
  0
TABLE
  2
LTYPE
 70
     1
  0
LTYPE
  2
CONTINUOUS
 70
     0
  3
Solid line
 72
    65
 73
     0
 40
0.0
  0
ENDTAB
  0
TABLE
  2
LAYER
 70
     2
  0
LAYER
  2
0
 70
     0
 62
     7
  6
CONTINUOUS
  0
LAYER
  2
LAYER_01
 70
     0
 62
     7
  6
CONTINUOUS
  0
ENDTAB
  0
TABLE
  2
STYLE
 70
     1
  0
STYLE
  2
STANDARD
 70
     0
 40
0.0
 41
1.0
 50
0.0
 71
     0
 42
0.2
  3
txt
  4

  0
ENDTAB
  0
TABLE
  2
VIEW
 70
     0
  0
ENDTAB
  0
TABLE
  2
UCS
 70
     0
  0
ENDTAB
  0
TABLE
  2
APPID
 70
     2
  0
APPID
  2
ACAD
 70
     0
  0
APPID
  2
RHINO
 70
     0
  0
ENDTAB
  0
TABLE
  2
DIMSTYLE
 70
     1
  0
DIMSTYLE
  2
STANDARD_ACAD
 70
     0
  3

  4

  5

  6

  7

 40
1.0
 41
0.18
 42
0.0625
 43
0.38
 44
0.18
 45
0.0
 46
0.0
 47
0.0
 48
0.0
140
0.18
141
0.09
142
0.0
143
25.4
144
1.0
145
0.0
146
1.0
147
0.09
 71
     0
 72
     0
 73
     1
 74
     1
 75
     0
 76
     0
 77
     0
 78
     0
170
     0
171
     2
172
     0
173
     0
174
     0
175
     0
176
     0
177
     0
178
     0
  0
ENDTAB
  0
ENDSEC
  0
SECTION
  2
BLOCKS
  0
BLOCK
  8
0
  2
$MODEL_SPACE
 70
     0
 10
0.0
 20
0.0
 30
0.0
  3
$MODEL_SPACE
  1

  0
ENDBLK
  5
21
  8
0
  0
BLOCK
 67
     1
  8
0
  2
$PAPER_SPACE
 70
     0
 10
0.0
 20
0.0
 30
0.0
  3
$PAPER_SPACE
  1

  0
ENDBLK
  5
1D
 67
     1
  8
0
  0
ENDSEC
  0
SECTION
  2
ENTITIES
  0
POLYLINE
  5
70
  8
LAYER_01
 66
     1
 10
0.0
 20
0.0
 30
0.0
 70
     1
  0
VERTEX
  5
71
  8
LAYER_01
 10
461.1526652724618
 20
1581.905325800834
 30
0.0
  0
VERTEX
  5
72
  8
LAYER_01
 10
944.7488585066179
 20
1581.905325800834
 30
0.0
  0
VERTEX
  5
73
  8
LAYER_01
 10
944.7488585066179
 20
2065.501519034998
 30
0.0
  0
VERTEX
  5
74
  8
LAYER_01
 10
461.1526652724618
 20
2065.501519034998
 30
0.0
  0
SEQEND
  5
75
  8
LAYER_01
  0
POLYLINE
  5
76
  8
LAYER_01
 66
     1
 10
0.0
 20
0.0
 30
0.0
 70
     1
  0
VERTEX
  5
77
  8
LAYER_01
 10
476.7123470037898
 20
1597.465007532162
 30
0.0
  0
VERTEX
  5
78
  8
LAYER_01
 10
929.18917677529
 20
1597.465007532162
 30
0.0
  0
VERTEX
  5
79
  8
LAYER_01
 10
929.18917677529
 20
2049.94183730367
 30
0.0
  0
VERTEX
  5
7A
  8
LAYER_01
 10
476.7123470037898
 20
2049.94183730367
 30
0.0
  0
SEQEND
  5
7B
  8
LAYER_01
  0
POLYLINE
  5
7C
  8
LAYER_01
 66
     1
 10
0.0
 20
0.0
 30
0.0
  0
VERTEX
  5
7D
  8
LAYER_01
 10
929.1891767752849
 20
1834.690771012816
 30
0.0
  0
VERTEX
  5
7E
  8
LAYER_01
 10
910.4325994816696
 20
1842.459999711531
 30
0.0
  0
VERTEX
  5
7F
  8
LAYER_01
 10
918.2018281803878
 20
1823.703422417915
 30
0.0
  0
VERTEX
  5
80
  8
LAYER_01
 10
910.432599481679
 20
1804.946845124315
 30
0.0
  0
VERTEX
  5
81
  8
LAYER_01
 10
929.1891767752857
 20
1812.716073823026
 30
0.0
  0
SEQEND
  5
82
  8
LAYER_01
  0
POLYLINE
  5
83
  8
LAYER_01
 66
     1
 10
0.0
 20
0.0
 30
0.0
  0
VERTEX
  5
84
  8
LAYER_01
 10
713.9381104844327
 20
1597.465007532174
 30
0.0
  0
VERTEX
  5
85
  8
LAYER_01
 10
721.707339183143
 20
1616.221584825778
 30
0.0
  0
VERTEX
  5
86
  8
LAYER_01
 10
702.9507618895398
 20
1608.452356127069
 30
0.0
  0
VERTEX
  5
87
  8
LAYER_01
 10
684.1941845959227
 20
1616.221584825784
 30
0.0
  0
VERTEX
  5
88
  8
LAYER_01
 10
691.9634132946388
 20
1597.465007532162
 30
0.0
  0
SEQEND
  5
89
  8
LAYER_01
  0
POLYLINE
  5
8A
  8
LAYER_01
 66
     1
 10
0.0
 20
0.0
 30
0.0
  0
VERTEX
  5
8B
  8
LAYER_01
 10
476.712347003791
 20
1812.716073823025
 30
0.0
  0
VERTEX
  5
8C
  8
LAYER_01
 10
495.4689242973969
 20
1804.946845124314
 30
0.0
  0
VERTEX
  5
8D
  8
LAYER_01
 10
487.6996955986855
 20
1823.703422417922
 30
0.0
  0
VERTEX
  5
8E
  8
LAYER_01
 10
495.468924297396
 20
1842.459999711525
 30
0.0
  0
VERTEX
  5
8F
  8
LAYER_01
 10
476.7123470037945
 20
1834.690771012815
 30
0.0
  0
SEQEND
  5
90
  8
LAYER_01
  0
POLYLINE
  5
91
  8
LAYER_01
 66
     1
 10
0.0
 20
0.0
 30
0.0
  0
VERTEX
  5
92
  8
LAYER_01
 10
691.9634132946428
 20
2049.941837303667
 30
0.0
  0
VERTEX
  5
93
  8
LAYER_01
 10
684.194184595932
 20
2031.185260010062
 30
0.0
  0
VERTEX
  5
94
  8
LAYER_01
 10
702.9507618895384
 20
2038.954488708772
 30
0.0
  0
VERTEX
  5
95
  8
LAYER_01
 10
721.7073391831439
 20
2031.185260010061
 30
0.0
  0
VERTEX
  5
96
  8
LAYER_01
 10
713.938110484432
 20
2049.941837303669
 30
0.0
  0
SEQEND
  5
97
  8
LAYER_01
  0
POLYLINE
  5
98
  8
LAYER_01
 66
     1
 10
0.0
 20
0.0
 30
0.0
 70
     1
  0
VERTEX
  5
99
  8
LAYER_01
 10
691.9634132946428
 20
1823.70342241792
 30
0.0
  0
VERTEX
  5
9A
  8
LAYER_01
 10
684.194184595932
 20
1804.946845124315
 30
0.0
  0
VERTEX
  5
9B
  8
LAYER_01
 10
702.9507618895384
 20
1812.716073823025
 30
0.0
  0
VERTEX
  5
9C
  8
LAYER_01
 10
721.7073391831439
 20
1804.946845124314
 30
0.0
  0
VERTEX
  5
9D
  8
LAYER_01
 10
713.9381104844324
 20
1823.703422417922
 30
0.0
  0
VERTEX
  5
9E
  8
LAYER_01
 10
721.707339183143
 20
1842.459999711525
 30
0.0
  0
VERTEX
  5
9F
  8
LAYER_01
 10
702.9507618895398
 20
1834.690771012816
 30
0.0
  0
VERTEX
  5
A0
  8
LAYER_01
 10
684.1941845959227
 20
1842.459999711531
 30
0.0
  0
SEQEND
  5
A1
  8
LAYER_01
  0
POLYLINE
  5
A2
  8
LAYER_01
 66
     1
 10
0.0
 20
0.0
 30
0.0
 70
     1
  0
VERTEX
  5
A3
  8
LAYER_01
 10
702.9507618895407
 20
2022.112810563749
 30
0.0
  0
VERTEX
  5
A4
  8
LAYER_01
 10
730.1281782556549
 20
2010.855556114644
 30
0.0
  0
VERTEX
  5
A5
  8
LAYER_01
 10
749.3455136632662
 20
1964.460804340916
 30
0.0
  0
VERTEX
  5
A6
  8
LAYER_01
 10
702.950761889538
 20
1945.243468933305
 30
0.0
  0
VERTEX
  5
A7
  8
LAYER_01
 10
656.5560101158092
 20
1964.460804340916
 30
0.0
  0
VERTEX
  5
A8
  8
LAYER_01
 10
675.7733455234205
 20
2010.855556114643
 30
0.0
  0
SEQEND
  5
A9
  8
LAYER_01
  0
POLYLINE
  5
AA
  8
LAYER_01
 66
     1
 10
0.0
 20
0.0
 30
0.0
 70
     1
  0
VERTEX
  5
AB
  8
LAYER_01
 10
702.9507618895378
 20
1851.532449157839
 30
0.0
  0
VERTEX
  5
AC
  8
LAYER_01
 10
675.7733455234131
 20
1862.789703606948
 30
0.0
  0
VERTEX
  5
AD
  8
LAYER_01
 10
656.5560101158073
 20
1909.184455380671
 30
0.0
  0
VERTEX
  5
AE
  8
LAYER_01
 10
702.950761889538
 20
1928.401790788283
 30
0.0
  0
VERTEX
  5
AF
  8
LAYER_01
 10
749.3455136632664
 20
1909.184455380672
 30
0.0
  0
VERTEX
  5
B0
  8
LAYER_01
 10
730.1281782556543
 20
1862.789703606943
 30
0.0
  0
SEQEND
  5
B1
  8
LAYER_01
  0
POLYLINE
  5
B2
  8
LAYER_01
 66
     1
 10
0.0
 20
0.0
 30
0.0
 70
     1
  0
VERTEX
  5
B3
  8
LAYER_01
 10
702.9507618895407
 20
1795.874395678002
 30
0.0
  0
VERTEX
  5
B4
  8
LAYER_01
 10
730.1281782556549
 20
1784.617141228897
 30
0.0
  0
VERTEX
  5
B5
  8
LAYER_01
 10
749.3455136632662
 20
1738.222389455169
 30
0.0
  0
VERTEX
  5
B6
  8
LAYER_01
 10
702.950761889538
 20
1719.005054047558
 30
0.0
  0
VERTEX
  5
B7
  8
LAYER_01
 10
656.5560101158092
 20
1738.222389455169
 30
0.0
  0
VERTEX
  5
B8
  8
LAYER_01
 10
675.7733455234205
 20
1784.617141228896
 30
0.0
  0
SEQEND
  5
B9
  8
LAYER_01
  0
POLYLINE
  5
BA
  8
LAYER_01
 66
     1
 10
0.0
 20
0.0
 30
0.0
 70
     1
  0
VERTEX
  5
BB
  8
LAYER_01
 10
702.9507618895378
 20
1625.294034272092
 30
0.0
  0
VERTEX
  5
BC
  8
LAYER_01
 10
675.7733455234131
 20
1636.551288721201
 30
0.0
  0
VERTEX
  5
BD
  8
LAYER_01
 10
656.5560101158073
 20
1682.946040494924
 30
0.0
  0
VERTEX
  5
BE
  8
LAYER_01
 10
702.950761889538
 20
1702.163375902536
 30
0.0
  0
VERTEX
  5
BF
  8
LAYER_01
 10
749.3455136632664
 20
1682.946040494925
 30
0.0
  0
VERTEX
  5
C0
  8
LAYER_01
 10
730.1281782556543
 20
1636.551288721196
 30
0.0
  0
SEQEND
  5
C1
  8
LAYER_01
  0
POLYLINE
  5
C2
  8
LAYER_01
 66
     1
 10
0.0
 20
0.0
 30
0.0
 70
     1
  0
VERTEX
  5
C3
  8
LAYER_01
 10
901.3601500353664
 20
1823.703422417918
 30
0.0
  0
VERTEX
  5
C4
  8
LAYER_01
 10
890.1028955862611
 20
1796.526006051804
 30
0.0
  0
VERTEX
  5
C5
  8
LAYER_01
 10
843.7081438125335
 20
1777.308670644192
 30
0.0
  0
VERTEX
  5
C6
  8
LAYER_01
 10
824.4908084049221
 20
1823.703422417921
 30
0.0
  0
VERTEX
  5
C7
  8
LAYER_01
 10
843.7081438125336
 20
1870.098174191649
 30
0.0
  0
VERTEX
  5
C8
  8
LAYER_01
 10
890.1028955862615
 20
1850.880838784038
 30
0.0
  0
SEQEND
  5
C9
  8
LAYER_01
  0
POLYLINE
  5
CA
  8
LAYER_01
 66
     1
 10
0.0
 20
0.0
 30
0.0
 70
     1
  0
VERTEX
  5
CB
  8
LAYER_01
 10
730.779788629456
 20
1823.703422417921
 30
0.0
  0
VERTEX
  5
CC
  8
LAYER_01
 10
742.0370430785614
 20
1850.880838784036
 30
0.0
  0
VERTEX
  5
CD
  8
LAYER_01
 10
788.4317948522893
 20
1870.098174191648
 30
0.0
  0
VERTEX
  5
CE
  8
LAYER_01
 10
807.6491302599006
 20
1823.703422417921
 30
0.0
  0
VERTEX
  5
CF
  8
LAYER_01
 10
788.431794852289
 20
1777.308670644192
 30
0.0
  0
VERTEX
  5
D0
  8
LAYER_01
 10
742.0370430785603
 20
1796.526006051804
 30
0.0
  0
SEQEND
  5
D1
  8
LAYER_01
  0
POLYLINE
  5
D2
  8
LAYER_01
 66
     1
 10
0.0
 20
0.0
 30
0.0
 70
     1
  0
VERTEX
  5
D3
  8
LAYER_01
 10
675.1217351496194
 20
1823.703422417918
 30
0.0
  0
VERTEX
  5
D4
  8
LAYER_01
 10
663.8644807005142
 20
1796.526006051804
 30
0.0
  0
VERTEX
  5
D5
  8
LAYER_01
 10
617.4697289267866
 20
1777.308670644192
 30
0.0
  0
VERTEX
  5
D6
  8
LAYER_01
 10
598.2523935191751
 20
1823.703422417921
 30
0.0
  0
VERTEX
  5
D7
  8
LAYER_01
 10
617.4697289267867
 20
1870.098174191649
 30
0.0
  0
VERTEX
  5
D8
  8
LAYER_01
 10
663.8644807005146
 20
1850.880838784038
 30
0.0
  0
SEQEND
  5
D9
  8
LAYER_01
  0
POLYLINE
  5
DA
  8
LAYER_01
 66
     1
 10
0.0
 20
0.0
 30
0.0
 70
     1
  0
VERTEX
  5
DB
  8
LAYER_01
 10
504.5413737437091
 20
1823.703422417921
 30
0.0
  0
VERTEX
  5
DC
  8
LAYER_01
 10
515.7986281928145
 20
1850.880838784036
 30
0.0
  0
VERTEX
  5
DD
  8
LAYER_01
 10
562.1933799665424
 20
1870.098174191648
 30
0.0
  0
VERTEX
  5
DE
  8
LAYER_01
 10
581.4107153741537
 20
1823.703422417921
 30
0.0
  0
VERTEX
  5
DF
  8
LAYER_01
 10
562.1933799665421
 20
1777.308670644192
 30
0.0
  0
VERTEX
  5
E0
  8
LAYER_01
 10
515.7986281928133
 20
1796.526006051804
 30
0.0
  0
SEQEND
  5
E1
  8
LAYER_01
  0
POLYLINE
  5
E2
  8
LAYER_01
 66
     1
 10
0.0
 20
0.0
 30
0.0
  0
VERTEX
  5
E3
  8
LAYER_01
 10
929.1891767752847
 20
1945.243468933305
 30
0.0
  0
VERTEX
  5
E4
  8
LAYER_01
 10
882.7944250015561
 20
1964.460804340916
 30
0.0
  0
VERTEX
  5
E5
  8
LAYER_01
 10
902.0117604091674
 20
2010.855556114643
 30
0.0
  0
VERTEX
  5
E6
  8
LAYER_01
 10
929.18917677529
 20
2022.112810563751
 30
0.0
  0
SEQEND
  5
E7
  8
LAYER_01
  0
POLYLINE
  5
E8
  8
LAYER_01
 66
     1
 10
0.0
 20
0.0
 30
0.0
 70
     1
  0
VERTEX
  5
E9
  8
LAYER_01
 10
723.2804657849547
 20
1936.822629860794
 30
0.0
  0
VERTEX
  5
EA
  8
LAYER_01
 10
755.2999460747194
 20
1923.559726864635
 30
0.0
  0
VERTEX
  5
EB
  8
LAYER_01
 10
760.7936203721671
 20
1936.822629860794
 30
0.0
  0
VERTEX
  5
EC
  8
LAYER_01
 10
755.2999460747193
 20
1950.085532856953
 30
0.0
  0
SEQEND
  5
ED
  8
LAYER_01
  0
POLYLINE
  5
EE
  8
LAYER_01
 66
     1
 10
0.0
 20
0.0
 30
0.0
 70
     1
  0
VERTEX
  5
EF
  8
LAYER_01
 10
782.4773624408361
 20
1884.473445675612
 30
0.0
  0
VERTEX
  5
F0
  8
LAYER_01
 10
750.4578821510723
 20
1871.210542679454
 30
0.0
  0
VERTEX
  5
F1
  8
LAYER_01
 10
763.7207851472305
 20
1903.230022969219
 30
0.0
  0
VERTEX
  5
F2
  8
LAYER_01
 10
776.9836881433886
 20
1897.736348671771
 30
0.0
  0
SEQEND
  5
F3
  8
LAYER_01
  0
POLYLINE
  5
F4
  8
LAYER_01
 66
     1
 10
0.0
 20
0.0
 30
0.0
 70
     1
  0
VERTEX
  5
F5
  8
LAYER_01
 10
802.8070663362529
 20
1876.052606603102
 30
0.0
  0
VERTEX
  5
F6
  8
LAYER_01
 10
816.0699693324115
 20
1844.033126313337
 30
0.0
  0
VERTEX
  5
F7
  8
LAYER_01
 10
829.3328723285699
 20
1876.052606603102
 30
0.0
  0
VERTEX
  5
F8
  8
LAYER_01
 10
816.0699693324116
 20
1881.54628090055
 30
0.0
  0
SEQEND
  5
F9
  8
LAYER_01
  0
POLYLINE
  5
FA
  8
LAYER_01
 66
     1
 10
0.0
 20
0.0
 30
0.0
 70
     1
  0
VERTEX
  5
FB
  8
LAYER_01
 10
849.6625762239868
 20
1884.473445675613
 30
0.0
  0
VERTEX
  5
FC
  8
LAYER_01
 10
855.1562505214341
 20
1897.736348671771
 30
0.0
  0
VERTEX
  5
FD
  8
LAYER_01
 10
868.4191535175925
 20
1903.230022969219
 30
0.0
  0
VERTEX
  5
FE
  8
LAYER_01
 10
881.6820565137501
 20
1871.210542679456
 30
0.0
  0
SEQEND
  5
FF
  8
LAYER_01
  0
POLYLINE
  5
100
  8
LAYER_01
 66
     1
 10
0.0
 20
0.0
 30
0.0
  0
VERTEX
  5
101
  8
LAYER_01
 10
929.1891767752847
 20
1851.532449157839
 30
0.0
  0
VERTEX
  5
102
  8
LAYER_01
 10
902.01176040916
 20
1862.789703606948
 30
0.0
  0
VERTEX
  5
103
  8
LAYER_01
 10
882.7944250015543
 20
1909.184455380671
 30
0.0
  0
VERTEX
  5
104
  8
LAYER_01
 10
929.1891767752847
 20
1928.401790788283
 30
0.0
  0
SEQEND
  5
105
  8
LAYER_01
  0
POLYLINE
  5
106
  8
LAYER_01
 66
     1
 10
0.0
 20
0.0
 30
0.0
 70
     1
  0
VERTEX
  5
107
  8
LAYER_01
 10
908.8594728798681
 20
1936.822629860794
 30
0.0
  0
VERTEX
  5
108
  8
LAYER_01
 10
876.839992590103
 20
1950.085532856953
 30
0.0
  0
VERTEX
  5
109
  8
LAYER_01
 10
871.3463182926554
 20
1936.822629860794
 30
0.0
  0
VERTEX
  5
10A
  8
LAYER_01
 10
876.8399925901023
 20
1923.559726864635
 30
0.0
  0
SEQEND
  5
10B
  8
LAYER_01
  0
POLYLINE
  5
10C
  8
LAYER_01
 66
     1
 10
0.0
 20
0.0
 30
0.0
 70
     1
  0
VERTEX
  5
10D
  8
LAYER_01
 10
849.6625762239868
 20
1989.171814045975
 30
0.0
  0
VERTEX
  5
10E
  8
LAYER_01
 10
881.6820565137499
 20
2002.434717042132
 30
0.0
  0
VERTEX
  5
10F
  8
LAYER_01
 10
868.4191535175922
 20
1970.415236752369
 30
0.0
  0
VERTEX
  5
110
  8
LAYER_01
 10
855.1562505214341
 20
1975.908911049817
 30
0.0
  0
SEQEND
  5
111
  8
LAYER_01
  0
POLYLINE
  5
112
  8
LAYER_01
 66
     1
 10
0.0
 20
0.0
 30
0.0
 70
     1
  0
VERTEX
  5
113
  8
LAYER_01
 10
862.4647211061397
 20
1917.605294453183
 30
0.0
  0
VERTEX
  5
114
  8
LAYER_01
 10
843.2473856985282
 20
1909.645213494677
 30
0.0
  0
VERTEX
  5
115
  8
LAYER_01
 10
835.287304740023
 20
1890.427878087066
 30
0.0
  0
VERTEX
  5
116
  8
LAYER_01
 10
816.0699693324115
 20
1898.387959045571
 30
0.0
  0
VERTEX
  5
117
  8
LAYER_01
 10
796.8526339247998
 20
1890.427878087065
 30
0.0
  0
VERTEX
  5
118
  8
LAYER_01
 10
788.8925529662945
 20
1909.645213494677
 30
0.0
  0
VERTEX
  5
119
  8
LAYER_01
 10
769.6752175586834
 20
1917.605294453182
 30
0.0
  0
VERTEX
  5
11A
  8
LAYER_01
 10
777.6352985171885
 20
1936.822629860794
 30
0.0
  0
VERTEX
  5
11B
  8
LAYER_01
 10
769.6752175586829
 20
1956.039965268405
 30
0.0
  0
VERTEX
  5
11C
  8
LAYER_01
 10
788.8925529662945
 20
1964.000046226911
 30
0.0
  0
VERTEX
  5
11D
  8
LAYER_01
 10
796.8526339247998
 20
1983.217381634522
 30
0.0
  0
VERTEX
  5
11E
  8
LAYER_01
 10
816.069969332411
 20
1975.257300676017
 30
0.0
  0
VERTEX
  5
11F
  8
LAYER_01
 10
835.2873047400229
 20
1983.217381634522
 30
0.0
  0
VERTEX
  5
120
  8
LAYER_01
 10
843.2473856985282
 20
1964.000046226911
 30
0.0
  0
VERTEX
  5
121
  8
LAYER_01
 10
862.4647211061391
 20
1956.039965268405
 30
0.0
  0
VERTEX
  5
122
  8
LAYER_01
 10
854.504640147634
 20
1936.822629860794
 30
0.0
  0
SEQEND
  5
123
  8
LAYER_01
  0
POLYLINE
  5
124
  8
LAYER_01
 66
     1
 10
0.0
 20
0.0
 30
0.0
 70
     1
  0
VERTEX
  5
125
  8
LAYER_01
 10
750.4578821510714
 20
2002.434717042133
 30
0.0
  0
VERTEX
  5
126
  8
LAYER_01
 10
782.477362440836
 20
1989.171814045975
 30
0.0
  0
VERTEX
  5
127
  8
LAYER_01
 10
776.9836881433886
 20
1975.908911049817
 30
0.0
  0
VERTEX
  5
128
  8
LAYER_01
 10
763.7207851472299
 20
1970.415236752369
 30
0.0
  0
SEQEND
  5
129
  8
LAYER_01
  0
POLYLINE
  5
12A
  8
LAYER_01
 66
     1
 10
0.0
 20
0.0
 30
0.0
  0
VERTEX
  5
12B
  8
LAYER_01
 10
807.6491302599006
 20
2049.941837303667
 30
0.0
  0
VERTEX
  5
12C
  8
LAYER_01
 10
788.431794852289
 20
2003.547085529939
 30
0.0
  0
VERTEX
  5
12D
  8
LAYER_01
 10
742.0370430785603
 20
2022.764420937551
 30
0.0
  0
VERTEX
  5
12E
  8
LAYER_01
 10
730.779788629453
 20
2049.94183730367
 30
0.0
  0
SEQEND
  5
12F
  8
LAYER_01
  0
POLYLINE
  5
130
  8
LAYER_01
 66
     1
 10
0.0
 20
0.0
 30
0.0
 70
     1
  0
VERTEX
  5
131
  8
LAYER_01
 10
829.3328723285698
 20
1997.592653118486
 30
0.0
  0
VERTEX
  5
132
  8
LAYER_01
 10
816.0699693324112
 20
2029.612133408251
 30
0.0
  0
VERTEX
  5
133
  8
LAYER_01
 10
802.8070663362527
 20
1997.592653118486
 30
0.0
  0
VERTEX
  5
134
  8
LAYER_01
 10
816.0699693324109
 20
1992.098978821038
 30
0.0
  0
SEQEND
  5
135
  8
LAYER_01
  0
POLYLINE
  5
136
  8
LAYER_01
 66
     1
 10
0.0
 20
0.0
 30
0.0
  0
VERTEX
  5
137
  8
LAYER_01
 10
901.3601500353664
 20
2049.941837303665
 30
0.0
  0
VERTEX
  5
138
  8
LAYER_01
 10
890.1028955862611
 20
2022.76442093755
 30
0.0
  0
VERTEX
  5
139
  8
LAYER_01
 10
843.7081438125335
 20
2003.547085529939
 30
0.0
  0
VERTEX
  5
13A
  8
LAYER_01
 10
824.4908084049221
 20
2049.941837303667
 30
0.0
  0
SEQEND
  5
13B
  8
LAYER_01
  0
POLYLINE
  5
13C
  8
LAYER_01
 66
     1
 10
0.0
 20
0.0
 30
0.0
  0
VERTEX
  5
13D
  8
LAYER_01
 10
918.2018281803897
 20
2049.941837303667
 30
0.0
  0
VERTEX
  5
13E
  8
LAYER_01
 10
910.432599481679
 20
2031.185260010062
 30
0.0
  0
VERTEX
  5
13F
  8
LAYER_01
 10
929.1891767752857
 20
2038.954488708773
 30
0.0
  0
SEQEND
  5
140
  8
LAYER_01
  0
POLYLINE
  5
141
  8
LAYER_01
 66
     1
 10
0.0
 20
0.0
 30
0.0
  0
VERTEX
  5
142
  8
LAYER_01
 10
476.7123470037937
 20
2022.112810563749
 30
0.0
  0
VERTEX
  5
143
  8
LAYER_01
 10
503.889763369908
 20
2010.855556114644
 30
0.0
  0
VERTEX
  5
144
  8
LAYER_01
 10
523.1070987775192
 20
1964.460804340916
 30
0.0
  0
VERTEX
  5
145
  8
LAYER_01
 10
476.712347003791
 20
1945.243468933305
 30
0.0
  0
SEQEND
  5
146
  8
LAYER_01
  0
POLYLINE
  5
147
  8
LAYER_01
 66
     1
 10
0.0
 20
0.0
 30
0.0
  0
VERTEX
  5
148
  8
LAYER_01
 10
476.712347003791
 20
1928.401790788283
 30
0.0
  0
VERTEX
  5
149
  8
LAYER_01
 10
523.1070987775195
 20
1909.184455380672
 30
0.0
  0
VERTEX
  5
14A
  8
LAYER_01
 10
503.8897633699074
 20
1862.789703606943
 30
0.0
  0
VERTEX
  5
14B
  8
LAYER_01
 10
476.7123470037898
 20
1851.532449157836
 30
0.0
  0
SEQEND
  5
14C
  8
LAYER_01
  0
POLYLINE
  5
14D
  8
LAYER_01
 66
     1
 10
0.0
 20
0.0
 30
0.0
  0
VERTEX
  5
14E
  8
LAYER_01
 10
476.712347003791
 20
2038.954488708772
 30
0.0
  0
VERTEX
  5
14F
  8
LAYER_01
 10
495.4689242973969
 20
2031.185260010061
 30
0.0
  0
VERTEX
  5
150
  8
LAYER_01
 10
487.6996955986851
 20
2049.941837303669
 30
0.0
  0
SEQEND
  5
151
  8
LAYER_01
  0
POLYLINE
  5
152
  8
LAYER_01
 66
     1
 10
0.0
 20
0.0
 30
0.0
 70
     1
  0
VERTEX
  5
153
  8
LAYER_01
 10
497.0420508992078
 20
1936.822629860794
 30
0.0
  0
VERTEX
  5
154
  8
LAYER_01
 10
529.0615311889725
 20
1923.559726864635
 30
0.0
  0
VERTEX
  5
155
  8
LAYER_01
 10
534.5552054864202
 20
1936.822629860794
 30
0.0
  0
VERTEX
  5
156
  8
LAYER_01
 10
529.0615311889724
 20
1950.085532856953
 30
0.0
  0
SEQEND
  5
157
  8
LAYER_01
  0
POLYLINE
  5
158
  8
LAYER_01
 66
     1
 10
0.0
 20
0.0
 30
0.0
 70
     1
  0
VERTEX
  5
159
  8
LAYER_01
 10
556.2389475550892
 20
1884.473445675612
 30
0.0
  0
VERTEX
  5
15A
  8
LAYER_01
 10
524.2194672653254
 20
1871.210542679454
 30
0.0
  0
VERTEX
  5
15B
  8
LAYER_01
 10
537.4823702614835
 20
1903.230022969219
 30
0.0
  0
VERTEX
  5
15C
  8
LAYER_01
 10
550.7452732576417
 20
1897.736348671771
 30
0.0
  0
SEQEND
  5
15D
  8
LAYER_01
  0
POLYLINE
  5
15E
  8
LAYER_01
 66
     1
 10
0.0
 20
0.0
 30
0.0
 70
     1
  0
VERTEX
  5
15F
  8
LAYER_01
 10
576.568651450506
 20
1876.052606603102
 30
0.0
  0
VERTEX
  5
160
  8
LAYER_01
 10
589.8315544466645
 20
1844.033126313337
 30
0.0
  0
VERTEX
  5
161
  8
LAYER_01
 10
603.094457442823
 20
1876.052606603102
 30
0.0
  0
VERTEX
  5
162
  8
LAYER_01
 10
589.8315544466647
 20
1881.54628090055
 30
0.0
  0
SEQEND
  5
163
  8
LAYER_01
  0
POLYLINE
  5
164
  8
LAYER_01
 66
     1
 10
0.0
 20
0.0
 30
0.0
 70
     1
  0
VERTEX
  5
165
  8
LAYER_01
 10
623.4241613382399
 20
1884.473445675613
 30
0.0
  0
VERTEX
  5
166
  8
LAYER_01
 10
628.9178356356872
 20
1897.736348671771
 30
0.0
  0
VERTEX
  5
167
  8
LAYER_01
 10
642.1807386318455
 20
1903.230022969219
 30
0.0
  0
VERTEX
  5
168
  8
LAYER_01
 10
655.4436416280032
 20
1871.210542679456
 30
0.0
  0
SEQEND
  5
169
  8
LAYER_01
  0
POLYLINE
  5
16A
  8
LAYER_01
 66
     1
 10
0.0
 20
0.0
 30
0.0
 70
     1
  0
VERTEX
  5
16B
  8
LAYER_01
 10
682.6210579941212
 20
1936.822629860794
 30
0.0
  0
VERTEX
  5
16C
  8
LAYER_01
 10
650.601577704356
 20
1950.085532856953
 30
0.0
  0
VERTEX
  5
16D
  8
LAYER_01
 10
645.1079034069085
 20
1936.822629860794
 30
0.0
  0
VERTEX
  5
16E
  8
LAYER_01
 10
650.6015777043553
 20
1923.559726864635
 30
0.0
  0
SEQEND
  5
16F
  8
LAYER_01
  0
POLYLINE
  5
170
  8
LAYER_01
 66
     1
 10
0.0
 20
0.0
 30
0.0
 70
     1
  0
VERTEX
  5
171
  8
LAYER_01
 10
623.4241613382399
 20
1989.171814045975
 30
0.0
  0
VERTEX
  5
172
  8
LAYER_01
 10
655.443641628003
 20
2002.434717042132
 30
0.0
  0
VERTEX
  5
173
  8
LAYER_01
 10
642.1807386318453
 20
1970.415236752369
 30
0.0
  0
VERTEX
  5
174
  8
LAYER_01
 10
628.9178356356872
 20
1975.908911049817
 30
0.0
  0
SEQEND
  5
175
  8
LAYER_01
  0
POLYLINE
  5
176
  8
LAYER_01
 66
     1
 10
0.0
 20
0.0
 30
0.0
 70
     1
  0
VERTEX
  5
177
  8
LAYER_01
 10
636.2263062203928
 20
1917.605294453183
 30
0.0
  0
VERTEX
  5
178
  8
LAYER_01
 10
617.0089708127813
 20
1909.645213494677
 30
0.0
  0
VERTEX
  5
179
  8
LAYER_01
 10
609.0488898542761
 20
1890.427878087066
 30
0.0
  0
VERTEX
  5
17A
  8
LAYER_01
 10
589.8315544466645
 20
1898.387959045571
 30
0.0
  0
VERTEX
  5
17B
  8
LAYER_01
 10
570.6142190390528
 20
1890.427878087065
 30
0.0
  0
VERTEX
  5
17C
  8
LAYER_01
 10
562.6541380805476
 20
1909.645213494677
 30
0.0
  0
VERTEX
  5
17D
  8
LAYER_01
 10
543.4368026729364
 20
1917.605294453182
 30
0.0
  0
VERTEX
  5
17E
  8
LAYER_01
 10
551.3968836314416
 20
1936.822629860794
 30
0.0
  0
VERTEX
  5
17F
  8
LAYER_01
 10
543.436802672936
 20
1956.039965268405
 30
0.0
  0
VERTEX
  5
180
  8
LAYER_01
 10
562.6541380805476
 20
1964.000046226911
 30
0.0
  0
VERTEX
  5
181
  8
LAYER_01
 10
570.6142190390528
 20
1983.217381634522
 30
0.0
  0
VERTEX
  5
182
  8
LAYER_01
 10
589.8315544466641
 20
1975.257300676017
 30
0.0
  0
VERTEX
  5
183
  8
LAYER_01
 10
609.048889854276
 20
1983.217381634522
 30
0.0
  0
VERTEX
  5
184
  8
LAYER_01
 10
617.0089708127813
 20
1964.000046226911
 30
0.0
  0
VERTEX
  5
185
  8
LAYER_01
 10
636.2263062203922
 20
1956.039965268405
 30
0.0
  0
VERTEX
  5
186
  8
LAYER_01
 10
628.266225261887
 20
1936.822629860794
 30
0.0
  0
SEQEND
  5
187
  8
LAYER_01
  0
POLYLINE
  5
188
  8
LAYER_01
 66
     1
 10
0.0
 20
0.0
 30
0.0
 70
     1
  0
VERTEX
  5
189
  8
LAYER_01
 10
524.2194672653245
 20
2002.434717042133
 30
0.0
  0
VERTEX
  5
18A
  8
LAYER_01
 10
556.2389475550891
 20
1989.171814045975
 30
0.0
  0
VERTEX
  5
18B
  8
LAYER_01
 10
550.7452732576417
 20
1975.908911049817
 30
0.0
  0
VERTEX
  5
18C
  8
LAYER_01
 10
537.482370261483
 20
1970.415236752369
 30
0.0
  0
SEQEND
  5
18D
  8
LAYER_01
  0
POLYLINE
  5
18E
  8
LAYER_01
 66
     1
 10
0.0
 20
0.0
 30
0.0
  0
VERTEX
  5
18F
  8
LAYER_01
 10
581.4107153741537
 20
2049.941837303667
 30
0.0
  0
VERTEX
  5
190
  8
LAYER_01
 10
562.1933799665421
 20
2003.547085529939
 30
0.0
  0
VERTEX
  5
191
  8
LAYER_01
 10
515.7986281928133
 20
2022.764420937551
 30
0.0
  0
VERTEX
  5
192
  8
LAYER_01
 10
504.5413737437061
 20
2049.94183730367
 30
0.0
  0
SEQEND
  5
193
  8
LAYER_01
  0
POLYLINE
  5
194
  8
LAYER_01
 66
     1
 10
0.0
 20
0.0
 30
0.0
 70
     1
  0
VERTEX
  5
195
  8
LAYER_01
 10
603.0944574428229
 20
1997.592653118486
 30
0.0
  0
VERTEX
  5
196
  8
LAYER_01
 10
589.8315544466643
 20
2029.612133408251
 30
0.0
  0
VERTEX
  5
197
  8
LAYER_01
 10
576.5686514505057
 20
1997.592653118486
 30
0.0
  0
VERTEX
  5
198
  8
LAYER_01
 10
589.831554446664
 20
1992.098978821038
 30
0.0
  0
SEQEND
  5
199
  8
LAYER_01
  0
POLYLINE
  5
19A
  8
LAYER_01
 66
     1
 10
0.0
 20
0.0
 30
0.0
  0
VERTEX
  5
19B
  8
LAYER_01
 10
675.1217351496194
 20
2049.941837303665
 30
0.0
  0
VERTEX
  5
19C
  8
LAYER_01
 10
663.8644807005142
 20
2022.76442093755
 30
0.0
  0
VERTEX
  5
19D
  8
LAYER_01
 10
617.4697289267866
 20
2003.547085529939
 30
0.0
  0
VERTEX
  5
19E
  8
LAYER_01
 10
598.2523935191751
 20
2049.941837303667
 30
0.0
  0
SEQEND
  5
19F
  8
LAYER_01
  0
POLYLINE
  5
1A0
  8
LAYER_01
 66
     1
 10
0.0
 20
0.0
 30
0.0
  0
VERTEX
  5
1A1
  8
LAYER_01
 10
929.1891767752847
 20
1719.005054047558
 30
0.0
  0
VERTEX
  5
1A2
  8
LAYER_01
 10
882.7944250015561
 20
1738.222389455169
 30
0.0
  0
VERTEX
  5
1A3
  8
LAYER_01
 10
902.0117604091674
 20
1784.617141228896
 30
0.0
  0
VERTEX
  5
1A4
  8
LAYER_01
 10
929.18917677529
 20
1795.874395678004
 30
0.0
  0
SEQEND
  5
1A5
  8
LAYER_01
  0
POLYLINE
  5
1A6
  8
LAYER_01
 66
     1
 10
0.0
 20
0.0
 30
0.0
  0
VERTEX
  5
1A7
  8
LAYER_01
 10
824.4908084049221
 20
1597.465007532174
 30
0.0
  0
VERTEX
  5
1A8
  8
LAYER_01
 10
843.7081438125336
 20
1643.859759305902
 30
0.0
  0
VERTEX
  5
1A9
  8
LAYER_01
 10
890.1028955862615
 20
1624.642423898291
 30
0.0
  0
VERTEX
  5
1AA
  8
LAYER_01
 10
901.3601500353683
 20
1597.465007532172
 30
0.0
  0
SEQEND
  5
1AB
  8
LAYER_01
  0
POLYLINE
  5
1AC
  8
LAYER_01
 66
     1
 10
0.0
 20
0.0
 30
0.0
 70
     1
  0
VERTEX
  5
1AD
  8
LAYER_01
 10
723.2804657849547
 20
1710.584214975047
 30
0.0
  0
VERTEX
  5
1AE
  8
LAYER_01
 10
755.2999460747194
 20
1697.321311978888
 30
0.0
  0
VERTEX
  5
1AF
  8
LAYER_01
 10
760.7936203721671
 20
1710.584214975047
 30
0.0
  0
VERTEX
  5
1B0
  8
LAYER_01
 10
755.2999460747193
 20
1723.847117971206
 30
0.0
  0
SEQEND
  5
1B1
  8
LAYER_01
  0
POLYLINE
  5
1B2
  8
LAYER_01
 66
     1
 10
0.0
 20
0.0
 30
0.0
 70
     1
  0
VERTEX
  5
1B3
  8
LAYER_01
 10
782.4773624408361
 20
1658.235030789866
 30
0.0
  0
VERTEX
  5
1B4
  8
LAYER_01
 10
750.4578821510723
 20
1644.972127793707
 30
0.0
  0
VERTEX
  5
1B5
  8
LAYER_01
 10
763.7207851472305
 20
1676.991608083472
 30
0.0
  0
VERTEX
  5
1B6
  8
LAYER_01
 10
776.9836881433886
 20
1671.497933786024
 30
0.0
  0
SEQEND
  5
1B7
  8
LAYER_01
  0
POLYLINE
  5
1B8
  8
LAYER_01
 66
     1
 10
0.0
 20
0.0
 30
0.0
  0
VERTEX
  5
1B9
  8
LAYER_01
 10
730.779788629456
 20
1597.465007532174
 30
0.0
  0
VERTEX
  5
1BA
  8
LAYER_01
 10
742.0370430785614
 20
1624.64242389829
 30
0.0
  0
VERTEX
  5
1BB
  8
LAYER_01
 10
788.4317948522893
 20
1643.859759305902
 30
0.0
  0
VERTEX
  5
1BC
  8
LAYER_01
 10
807.6491302599006
 20
1597.465007532174
 30
0.0
  0
SEQEND
  5
1BD
  8
LAYER_01
  0
POLYLINE
  5
1BE
  8
LAYER_01
 66
     1
 10
0.0
 20
0.0
 30
0.0
 70
     1
  0
VERTEX
  5
1BF
  8
LAYER_01
 10
802.8070663362529
 20
1649.814191717355
 30
0.0
  0
VERTEX
  5
1C0
  8
LAYER_01
 10
816.0699693324115
 20
1617.794711427591
 30
0.0
  0
VERTEX
  5
1C1
  8
LAYER_01
 10
829.3328723285699
 20
1649.814191717355
 30
0.0
  0
VERTEX
  5
1C2
  8
LAYER_01
 10
816.0699693324116
 20
1655.307866014803
 30
0.0
  0
SEQEND
  5
1C3
  8
LAYER_01
  0
POLYLINE
  5
1C4
  8
LAYER_01
 66
     1
 10
0.0
 20
0.0
 30
0.0
 70
     1
  0
VERTEX
  5
1C5
  8
LAYER_01
 10
849.6625762239868
 20
1658.235030789866
 30
0.0
  0
VERTEX
  5
1C6
  8
LAYER_01
 10
855.1562505214341
 20
1671.497933786024
 30
0.0
  0
VERTEX
  5
1C7
  8
LAYER_01
 10
868.4191535175925
 20
1676.991608083472
 30
0.0
  0
VERTEX
  5
1C8
  8
LAYER_01
 10
881.6820565137501
 20
1644.972127793709
 30
0.0
  0
SEQEND
  5
1C9
  8
LAYER_01
  0
POLYLINE
  5
1CA
  8
LAYER_01
 66
     1
 10
0.0
 20
0.0
 30
0.0
  0
VERTEX
  5
1CB
  8
LAYER_01
 10
929.1891767752847
 20
1625.294034272092
 30
0.0
  0
VERTEX
  5
1CC
  8
LAYER_01
 10
902.01176040916
 20
1636.551288721201
 30
0.0
  0
VERTEX
  5
1CD
  8
LAYER_01
 10
882.7944250015543
 20
1682.946040494924
 30
0.0
  0
VERTEX
  5
1CE
  8
LAYER_01
 10
929.1891767752847
 20
1702.163375902536
 30
0.0
  0
SEQEND
  5
1CF
  8
LAYER_01
  0
POLYLINE
  5
1D0
  8
LAYER_01
 66
     1
 10
0.0
 20
0.0
 30
0.0
  0
VERTEX
  5
1D1
  8
LAYER_01
 10
929.1891767752849
 20
1608.452356127069
 30
0.0
  0
VERTEX
  5
1D2
  8
LAYER_01
 10
910.4325994816696
 20
1616.221584825784
 30
0.0
  0
VERTEX
  5
1D3
  8
LAYER_01
 10
918.2018281803857
 20
1597.465007532162
 30
0.0
  0
SEQEND
  5
1D4
  8
LAYER_01
  0
POLYLINE
  5
1D5
  8
LAYER_01
 66
     1
 10
0.0
 20
0.0
 30
0.0
 70
     1
  0
VERTEX
  5
1D6
  8
LAYER_01
 10
908.8594728798681
 20
1710.584214975047
 30
0.0
  0
VERTEX
  5
1D7
  8
LAYER_01
 10
876.839992590103
 20
1723.847117971206
 30
0.0
  0
VERTEX
  5
1D8
  8
LAYER_01
 10
871.3463182926554
 20
1710.584214975047
 30
0.0
  0
VERTEX
  5
1D9
  8
LAYER_01
 10
876.8399925901023
 20
1697.321311978888
 30
0.0
  0
SEQEND
  5
1DA
  8
LAYER_01
  0
POLYLINE
  5
1DB
  8
LAYER_01
 66
     1
 10
0.0
 20
0.0
 30
0.0
 70
     1
  0
VERTEX
  5
1DC
  8
LAYER_01
 10
849.6625762239868
 20
1762.933399160228
 30
0.0
  0
VERTEX
  5
1DD
  8
LAYER_01
 10
881.6820565137499
 20
1776.196302156386
 30
0.0
  0
VERTEX
  5
1DE
  8
LAYER_01
 10
868.4191535175922
 20
1744.176821866623
 30
0.0
  0
VERTEX
  5
1DF
  8
LAYER_01
 10
855.1562505214341
 20
1749.67049616407
 30
0.0
  0
SEQEND
  5
1E0
  8
LAYER_01
  0
POLYLINE
  5
1E1
  8
LAYER_01
 66
     1
 10
0.0
 20
0.0
 30
0.0
 70
     1
  0
VERTEX
  5
1E2
  8
LAYER_01
 10
862.4647211061397
 20
1691.366879567436
 30
0.0
  0
VERTEX
  5
1E3
  8
LAYER_01
 10
843.2473856985282
 20
1683.40679860893
 30
0.0
  0
VERTEX
  5
1E4
  8
LAYER_01
 10
835.287304740023
 20
1664.189463201319
 30
0.0
  0
VERTEX
  5
1E5
  8
LAYER_01
 10
816.0699693324115
 20
1672.149544159824
 30
0.0
  0
VERTEX
  5
1E6
  8
LAYER_01
 10
796.8526339247998
 20
1664.189463201319
 30
0.0
  0
VERTEX
  5
1E7
  8
LAYER_01
 10
788.8925529662945
 20
1683.40679860893
 30
0.0
  0
VERTEX
  5
1E8
  8
LAYER_01
 10
769.6752175586834
 20
1691.366879567435
 30
0.0
  0
VERTEX
  5
1E9
  8
LAYER_01
 10
777.6352985171885
 20
1710.584214975047
 30
0.0
  0
VERTEX
  5
1EA
  8
LAYER_01
 10
769.6752175586829
 20
1729.801550382659
 30
0.0
  0
VERTEX
  5
1EB
  8
LAYER_01
 10
788.8925529662945
 20
1737.761631341164
 30
0.0
  0
VERTEX
  5
1EC
  8
LAYER_01
 10
796.8526339247998
 20
1756.978966748775
 30
0.0
  0
VERTEX
  5
1ED
  8
LAYER_01
 10
816.069969332411
 20
1749.01888579027
 30
0.0
  0
VERTEX
  5
1EE
  8
LAYER_01
 10
835.2873047400229
 20
1756.978966748775
 30
0.0
  0
VERTEX
  5
1EF
  8
LAYER_01
 10
843.2473856985282
 20
1737.761631341164
 30
0.0
  0
VERTEX
  5
1F0
  8
LAYER_01
 10
862.4647211061391
 20
1729.801550382659
 30
0.0
  0
VERTEX
  5
1F1
  8
LAYER_01
 10
854.504640147634
 20
1710.584214975047
 30
0.0
  0
SEQEND
  5
1F2
  8
LAYER_01
  0
POLYLINE
  5
1F3
  8
LAYER_01
 66
     1
 10
0.0
 20
0.0
 30
0.0
 70
     1
  0
VERTEX
  5
1F4
  8
LAYER_01
 10
750.4578821510714
 20
1776.196302156387
 30
0.0
  0
VERTEX
  5
1F5
  8
LAYER_01
 10
782.477362440836
 20
1762.933399160228
 30
0.0
  0
VERTEX
  5
1F6
  8
LAYER_01
 10
776.9836881433886
 20
1749.67049616407
 30
0.0
  0
VERTEX
  5
1F7
  8
LAYER_01
 10
763.7207851472299
 20
1744.176821866623
 30
0.0
  0
SEQEND
  5
1F8
  8
LAYER_01
  0
POLYLINE
  5
1F9
  8
LAYER_01
 66
     1
 10
0.0
 20
0.0
 30
0.0
 70
     1
  0
VERTEX
  5
1FA
  8
LAYER_01
 10
829.3328723285698
 20
1771.354238232739
 30
0.0
  0
VERTEX
  5
1FB
  8
LAYER_01
 10
816.0699693324112
 20
1803.373718522504
 30
0.0
  0
VERTEX
  5
1FC
  8
LAYER_01
 10
802.8070663362527
 20
1771.354238232739
 30
0.0
  0
VERTEX
  5
1FD
  8
LAYER_01
 10
816.0699693324109
 20
1765.860563935292
 30
0.0
  0
SEQEND
  5
1FE
  8
LAYER_01
  0
POLYLINE
  5
1FF
  8
LAYER_01
 66
     1
 10
0.0
 20
0.0
 30
0.0
  0
VERTEX
  5
200
  8
LAYER_01
 10
476.7123470037937
 20
1795.874395678002
 30
0.0
  0
VERTEX
  5
201
  8
LAYER_01
 10
503.889763369908
 20
1784.617141228897
 30
0.0
  0
VERTEX
  5
202
  8
LAYER_01
 10
523.1070987775192
 20
1738.222389455169
 30
0.0
  0
VERTEX
  5
203
  8
LAYER_01
 10
476.712347003791
 20
1719.005054047558
 30
0.0
  0
SEQEND
  5
204
  8
LAYER_01
  0
POLYLINE
  5
205
  8
LAYER_01
 66
     1
 10
0.0
 20
0.0
 30
0.0
  0
VERTEX
  5
206
  8
LAYER_01
 10
487.6996955986858
 20
1597.465007532174
 30
0.0
  0
VERTEX
  5
207
  8
LAYER_01
 10
495.468924297396
 20
1616.221584825778
 30
0.0
  0
VERTEX
  5
208
  8
LAYER_01
 10
476.7123470037945
 20
1608.452356127068
 30
0.0
  0
SEQEND
  5
209
  8
LAYER_01
  0
POLYLINE
  5
20A
  8
LAYER_01
 66
     1
 10
0.0
 20
0.0
 30
0.0
  0
VERTEX
  5
20B
  8
LAYER_01
 10
476.712347003791
 20
1702.163375902536
 30
0.0
  0
VERTEX
  5
20C
  8
LAYER_01
 10
523.1070987775195
 20
1682.946040494925
 30
0.0
  0
VERTEX
  5
20D
  8
LAYER_01
 10
503.8897633699074
 20
1636.551288721196
 30
0.0
  0
VERTEX
  5
20E
  8
LAYER_01
 10
476.7123470037898
 20
1625.294034272089
 30
0.0
  0
SEQEND
  5
20F
  8
LAYER_01
  0
POLYLINE
  5
210
  8
LAYER_01
 66
     1
 10
0.0
 20
0.0
 30
0.0
  0
VERTEX
  5
211
  8
LAYER_01
 10
598.2523935191751
 20
1597.465007532174
 30
0.0
  0
VERTEX
  5
212
  8
LAYER_01
 10
617.4697289267867
 20
1643.859759305902
 30
0.0
  0
VERTEX
  5
213
  8
LAYER_01
 10
663.8644807005146
 20
1624.642423898291
 30
0.0
  0
VERTEX
  5
214
  8
LAYER_01
 10
675.1217351496214
 20
1597.465007532172
 30
0.0
  0
SEQEND
  5
215
  8
LAYER_01
  0
POLYLINE
  5
216
  8
LAYER_01
 66
     1
 10
0.0
 20
0.0
 30
0.0
 70
     1
  0
VERTEX
  5
217
  8
LAYER_01
 10
497.0420508992078
 20
1710.584214975047
 30
0.0
  0
VERTEX
  5
218
  8
LAYER_01
 10
529.0615311889725
 20
1697.321311978888
 30
0.0
  0
VERTEX
  5
219
  8
LAYER_01
 10
534.5552054864202
 20
1710.584214975047
 30
0.0
  0
VERTEX
  5
21A
  8
LAYER_01
 10
529.0615311889724
 20
1723.847117971206
 30
0.0
  0
SEQEND
  5
21B
  8
LAYER_01
  0
POLYLINE
  5
21C
  8
LAYER_01
 66
     1
 10
0.0
 20
0.0
 30
0.0
 70
     1
  0
VERTEX
  5
21D
  8
LAYER_01
 10
556.2389475550892
 20
1658.235030789866
 30
0.0
  0
VERTEX
  5
21E
  8
LAYER_01
 10
524.2194672653254
 20
1644.972127793707
 30
0.0
  0
VERTEX
  5
21F
  8
LAYER_01
 10
537.4823702614835
 20
1676.991608083472
 30
0.0
  0
VERTEX
  5
220
  8
LAYER_01
 10
550.7452732576417
 20
1671.497933786024
 30
0.0
  0
SEQEND
  5
221
  8
LAYER_01
  0
POLYLINE
  5
222
  8
LAYER_01
 66
     1
 10
0.0
 20
0.0
 30
0.0
  0
VERTEX
  5
223
  8
LAYER_01
 10
504.5413737437091
 20
1597.465007532174
 30
0.0
  0
VERTEX
  5
224
  8
LAYER_01
 10
515.7986281928145
 20
1624.64242389829
 30
0.0
  0
VERTEX
  5
225
  8
LAYER_01
 10
562.1933799665424
 20
1643.859759305902
 30
0.0
  0
VERTEX
  5
226
  8
LAYER_01
 10
581.4107153741537
 20
1597.465007532174
 30
0.0
  0
SEQEND
  5
227
  8
LAYER_01
  0
POLYLINE
  5
228
  8
LAYER_01
 66
     1
 10
0.0
 20
0.0
 30
0.0
 70
     1
  0
VERTEX
  5
229
  8
LAYER_01
 10
576.568651450506
 20
1649.814191717355
 30
0.0
  0
VERTEX
  5
22A
  8
LAYER_01
 10
589.8315544466645
 20
1617.794711427591
 30
0.0
  0
VERTEX
  5
22B
  8
LAYER_01
 10
603.094457442823
 20
1649.814191717355
 30
0.0
  0
VERTEX
  5
22C
  8
LAYER_01
 10
589.8315544466647
 20
1655.307866014803
 30
0.0
  0
SEQEND
  5
22D
  8
LAYER_01
  0
POLYLINE
  5
22E
  8
LAYER_01
 66
     1
 10
0.0
 20
0.0
 30
0.0
 70
     1
  0
VERTEX
  5
22F
  8
LAYER_01
 10
623.4241613382399
 20
1658.235030789866
 30
0.0
  0
VERTEX
  5
230
  8
LAYER_01
 10
628.9178356356872
 20
1671.497933786024
 30
0.0
  0
VERTEX
  5
231
  8
LAYER_01
 10
642.1807386318455
 20
1676.991608083472
 30
0.0
  0
VERTEX
  5
232
  8
LAYER_01
 10
655.4436416280032
 20
1644.972127793709
 30
0.0
  0
SEQEND
  5
233
  8
LAYER_01
  0
POLYLINE
  5
234
  8
LAYER_01
 66
     1
 10
0.0
 20
0.0
 30
0.0
 70
     1
  0
VERTEX
  5
235
  8
LAYER_01
 10
682.6210579941212
 20
1710.584214975047
 30
0.0
  0
VERTEX
  5
236
  8
LAYER_01
 10
650.601577704356
 20
1723.847117971206
 30
0.0
  0
VERTEX
  5
237
  8
LAYER_01
 10
645.1079034069085
 20
1710.584214975047
 30
0.0
  0
VERTEX
  5
238
  8
LAYER_01
 10
650.6015777043553
 20
1697.321311978888
 30
0.0
  0
SEQEND
  5
239
  8
LAYER_01
  0
POLYLINE
  5
23A
  8
LAYER_01
 66
     1
 10
0.0
 20
0.0
 30
0.0
 70
     1
  0
VERTEX
  5
23B
  8
LAYER_01
 10
623.4241613382399
 20
1762.933399160228
 30
0.0
  0
VERTEX
  5
23C
  8
LAYER_01
 10
655.443641628003
 20
1776.196302156386
 30
0.0
  0
VERTEX
  5
23D
  8
LAYER_01
 10
642.1807386318453
 20
1744.176821866623
 30
0.0
  0
VERTEX
  5
23E
  8
LAYER_01
 10
628.9178356356872
 20
1749.67049616407
 30
0.0
  0
SEQEND
  5
23F
  8
LAYER_01
  0
POLYLINE
  5
240
  8
LAYER_01
 66
     1
 10
0.0
 20
0.0
 30
0.0
 70
     1
  0
VERTEX
  5
241
  8
LAYER_01
 10
636.2263062203928
 20
1691.366879567436
 30
0.0
  0
VERTEX
  5
242
  8
LAYER_01
 10
617.0089708127813
 20
1683.40679860893
 30
0.0
  0
VERTEX
  5
243
  8
LAYER_01
 10
609.0488898542761
 20
1664.189463201319
 30
0.0
  0
VERTEX
  5
244
  8
LAYER_01
 10
589.8315544466645
 20
1672.149544159824
 30
0.0
  0
VERTEX
  5
245
  8
LAYER_01
 10
570.6142190390528
 20
1664.189463201319
 30
0.0
  0
VERTEX
  5
246
  8
LAYER_01
 10
562.6541380805476
 20
1683.40679860893
 30
0.0
  0
VERTEX
  5
247
  8
LAYER_01
 10
543.4368026729364
 20
1691.366879567435
 30
0.0
  0
VERTEX
  5
248
  8
LAYER_01
 10
551.3968836314416
 20
1710.584214975047
 30
0.0
  0
VERTEX
  5
249
  8
LAYER_01
 10
543.436802672936
 20
1729.801550382659
 30
0.0
  0
VERTEX
  5
24A
  8
LAYER_01
 10
562.6541380805476
 20
1737.761631341164
 30
0.0
  0
VERTEX
  5
24B
  8
LAYER_01
 10
570.6142190390528
 20
1756.978966748775
 30
0.0
  0
VERTEX
  5
24C
  8
LAYER_01
 10
589.8315544466641
 20
1749.01888579027
 30
0.0
  0
VERTEX
  5
24D
  8
LAYER_01
 10
609.048889854276
 20
1756.978966748775
 30
0.0
  0
VERTEX
  5
24E
  8
LAYER_01
 10
617.0089708127813
 20
1737.761631341164
 30
0.0
  0
VERTEX
  5
24F
  8
LAYER_01
 10
636.2263062203922
 20
1729.801550382659
 30
0.0
  0
VERTEX
  5
250
  8
LAYER_01
 10
628.266225261887
 20
1710.584214975047
 30
0.0
  0
SEQEND
  5
251
  8
LAYER_01
  0
POLYLINE
  5
252
  8
LAYER_01
 66
     1
 10
0.0
 20
0.0
 30
0.0
 70
     1
  0
VERTEX
  5
253
  8
LAYER_01
 10
524.2194672653245
 20
1776.196302156387
 30
0.0
  0
VERTEX
  5
254
  8
LAYER_01
 10
556.2389475550891
 20
1762.933399160228
 30
0.0
  0
VERTEX
  5
255
  8
LAYER_01
 10
550.7452732576417
 20
1749.67049616407
 30
0.0
  0
VERTEX
  5
256
  8
LAYER_01
 10
537.482370261483
 20
1744.176821866623
 30
0.0
  0
SEQEND
  5
257
  8
LAYER_01
  0
POLYLINE
  5
258
  8
LAYER_01
 66
     1
 10
0.0
 20
0.0
 30
0.0
 70
     1
  0
VERTEX
  5
259
  8
LAYER_01
 10
603.0944574428229
 20
1771.354238232739
 30
0.0
  0
VERTEX
  5
25A
  8
LAYER_01
 10
589.8315544466643
 20
1803.373718522504
 30
0.0
  0
VERTEX
  5
25B
  8
LAYER_01
 10
576.5686514505057
 20
1771.354238232739
 30
0.0
  0
VERTEX
  5
25C
  8
LAYER_01
 10
589.831554446664
 20
1765.860563935292
 30
0.0
  0
SEQEND
  5
25D
  8
LAYER_01
  0
ENDSEC
  0
EOF
