  0
SECTION
  2
HEADER
  9
$ACADVER
  1
AC1009
  9
$DWGCODEPAGE
  3
ansi_1252
  9
$INSBASE
 10
0.0
 20
0.0
 30
0.0
  9
$EXTMIN
 10
1.000000000000000E+20
 20
1.000000000000000E+20
 30
1.000000000000000E+20
  9
$EXTMAX
 10
-1.000000000000000E+20
 20
-1.000000000000000E+20
 30
-1.000000000000000E+20
  9
$LIMMIN
 10
0.0
 20
0.0
  9
$LIMMAX
 10
12.0
 20
9.0
  9
$ORTHOMODE
 70
     0
  9
$REGENMODE
 70
     1
  9
$FILLMODE
 70
     1
  9
$QTEXTMODE
 70
     0
  9
$MIRRTEXT
 70
     1
  9
$DRAGMODE
 70
     2
  9
$LTSCALE
 40
1.0
  9
$OSMODE
 70
    37
  9
$ATTMODE
 70
     1
  9
$TEXTSIZE
 40
0.2
  9
$TRACEWID
 40
0.05
  9
$TEXTSTYLE
  7
STANDARD
  9
$CLAYER
  8
0
  9
$CELTYPE
  6
BYLAYER
  9
$CECOLOR
 62
   256
  9
$DIMSCALE
 40
1.0
  9
$DIMASZ
 40
0.18
  9
$DIMEXO
 40
0.0625
  9
$DIMDLI
 40
0.38
  9
$DIMRND
 40
0.0
  9
$DIMDLE
 40
0.0
  9
$DIMEXE
 40
0.18
  9
$DIMTP
 40
0.0
  9
$DIMTM
 40
0.0
  9
$DIMTXT
 40
0.18
  9
$DIMCEN
 40
0.09
  9
$DIMTSZ
 40
0.0
  9
$DIMTOL
 70
     0
  9
$DIMLIM
 70
     0
  9
$DIMTIH
 70
     1
  9
$DIMTOH
 70
     1
  9
$DIMSE1
 70
     0
  9
$DIMSE2
 70
     0
  9
$DIMTAD
 70
     0
  9
$DIMZIN
 70
     0
  9
$DIMBLK
  1

  9
$DIMASO
 70
     1
  9
$DIMSHO
 70
     1
  9
$DIMPOST
  1

  9
$DIMAPOST
  1

  9
$DIMALT
 70
     0
  9
$DIMALTD
 70
     2
  9
$DIMALTF
 40
25.4
  9
$DIMLFAC
 40
1.0
  9
$DIMTOFL
 70
     0
  9
$DIMTVP
 40
0.0
  9
$DIMTIX
 70
     0
  9
$DIMSOXD
 70
     0
  9
$DIMSAH
 70
     0
  9
$DIMBLK1
  1

  9
$DIMBLK2
  1

  9
$DIMSTYLE
  2
STANDARD_ACAD
  9
$DIMCLRD
 70
     0
  9
$DIMCLRE
 70
     0
  9
$DIMCLRT
 70
     0
  9
$DIMTFAC
 40
1.0
  9
$DIMGAP
 40
0.09
  9
$LUNITS
 70
     2
  9
$LUPREC
 70
     3
  9
$SKETCHINC
 40
0.1
  9
$FILLETRAD
 40
0.5
  9
$AUNITS
 70
     0
  9
$AUPREC
 70
     0
  9
$MENU
  1
.
  9
$ELEVATION
 40
0.0
  9
$PELEVATION
 40
0.0
  9
$THICKNESS
 40
0.0
  9
$LIMCHECK
 70
     0
  9
$CHAMFERA
 40
0.0
  9
$CHAMFERB
 40
0.0
  9
$SKPOLY
 70
     0
  9
$TDCREATE
 40
2460044.374948461
  9
$TDUPDATE
 40
2460044.374948542
  9
$TDINDWG
 40
0.0000000116
  9
$TDUSRTIMER
 40
0.0000000116
  9
$USRTIMER
 70
     1
  9
$ANGBASE
 50
0.0
  9
$ANGDIR
 70
     0
  9
$PDMODE
 70
     0
  9
$PDSIZE
 40
0.0
  9
$PLINEWID
 40
0.0
  9
$COORDS
 70
     1
  9
$SPLFRAME
 70
     0
  9
$SPLINETYPE
 70
     6
  9
$SPLINESEGS
 70
     8
  9
$ATTDIA
 70
     0
  9
$ATTREQ
 70
     1
  9
$HANDLING
 70
     1
  9
$HANDSEED
  5
504
  9
$SURFTAB1
 70
     6
  9
$SURFTAB2
 70
     6
  9
$SURFTYPE
 70
     6
  9
$SURFU
 70
     6
  9
$SURFV
 70
     6
  9
$UCSNAME
  2

  9
$UCSORG
 10
0.0
 20
0.0
 30
0.0
  9
$UCSXDIR
 10
1.0
 20
0.0
 30
0.0
  9
$UCSYDIR
 10
0.0
 20
1.0
 30
0.0
  9
$PUCSNAME
  2

  9
$PUCSORG
 10
0.0
 20
0.0
 30
0.0
  9
$PUCSXDIR
 10
1.0
 20
0.0
 30
0.0
  9
$PUCSYDIR
 10
0.0
 20
1.0
 30
0.0
  9
$USERI1
 70
     0
  9
$USERI2
 70
     0
  9
$USERI3
 70
     0
  9
$USERI4
 70
     0
  9
$USERI5
 70
     0
  9
$USERR1
 40
0.0
  9
$USERR2
 40
0.0
  9
$USERR3
 40
0.0
  9
$USERR4
 40
0.0
  9
$USERR5
 40
0.0
  9
$WORLDVIEW
 70
     1
  9
$SHADEDGE
 70
     3
  9
$SHADEDIF
 70
    70
  9
$TILEMODE
 70
     1
  9
$MAXACTVP
 70
    64
  9
$PLIMCHECK
 70
     0
  9
$PEXTMIN
 10
1.000000000000000E+20
 20
1.000000000000000E+20
 30
1.000000000000000E+20
  9
$PEXTMAX
 10
-1.000000000000000E+20
 20
-1.000000000000000E+20
 30
-1.000000000000000E+20
  9
$PLIMMIN
 10
0.0
 20
0.0
  9
$PLIMMAX
 10
12.0
 20
9.0
  9
$UNITMODE
 70
     0
  9
$VISRETAIN
 70
     1
  9
$PLINEGEN
 70
     0
  9
$PSLTSCALE
 70
     1
  0
ENDSEC
  0
SECTION
  2
TABLES
  0
TABLE
  2
VPORT
 70
     1
  0
VPORT
  2
*ACTIVE
 70
     0
 10
0.0
 20
0.0
 11
1.0
 21
1.0
 12
10.42990654205607
 22
4.5
 13
0.0
 23
0.0
 14
0.5
 24
0.5
 15
0.5
 25
0.5
 16
0.0
 26
0.0
 36
1.0
 17
0.0
 27
0.0
 37
0.0
 40
9.0
 41
1.972972972850329
 42
50.0
 43
0.0
 44
0.0
 50
0.0
 51
0.0
 71
     0
 72
   100
 73
     1
 74
     3
 75
     0
 76
     0
 77
     0
 78
     0
  0
ENDTAB
  0
TABLE
  2
LTYPE
 70
     1
  0
LTYPE
  2
CONTINUOUS
 70
     0
  3
Solid line
 72
    65
 73
     0
 40
0.0
  0
ENDTAB
  0
TABLE
  2
LAYER
 70
     1
  0
LAYER
  2
0
 70
     0
 62
     7
  6
CONTINUOUS
  0
ENDTAB
  0
TABLE
  2
STYLE
 70
     1
  0
STYLE
  2
STANDARD
 70
     0
 40
0.0
 41
1.0
 50
0.0
 71
     0
 42
0.2
  3
txt
  4

  0
ENDTAB
  0
TABLE
  2
VIEW
 70
     0
  0
ENDTAB
  0
TABLE
  2
UCS
 70
     0
  0
ENDTAB
  0
TABLE
  2
APPID
 70
     2
  0
APPID
  2
ACAD
 70
     0
  0
APPID
  2
RHINO
 70
     0
  0
ENDTAB
  0
TABLE
  2
DIMSTYLE
 70
     1
  0
DIMSTYLE
  2
STANDARD_ACAD
 70
     0
  3

  4

  5

  6

  7

 40
1.0
 41
0.18
 42
0.0625
 43
0.38
 44
0.18
 45
0.0
 46
0.0
 47
0.0
 48
0.0
140
0.18
141
0.09
142
0.0
143
25.4
144
1.0
145
0.0
146
1.0
147
0.09
 71
     0
 72
     0
 73
     1
 74
     1
 75
     0
 76
     0
 77
     0
 78
     0
170
     0
171
     2
172
     0
173
     0
174
     0
175
     0
176
     0
177
     0
178
     0
  0
ENDTAB
  0
ENDSEC
  0
SECTION
  2
BLOCKS
  0
BLOCK
  8
0
  2
$MODEL_SPACE
 70
     0
 10
0.0
 20
0.0
 30
0.0
  3
$MODEL_SPACE
  1

  0
ENDBLK
  5
21
  8
0
  0
BLOCK
 67
     1
  8
0
  2
$PAPER_SPACE
 70
     0
 10
0.0
 20
0.0
 30
0.0
  3
$PAPER_SPACE
  1

  0
ENDBLK
  5
1D
 67
     1
  8
0
  0
ENDSEC
  0
SECTION
  2
ENTITIES
  0
POLYLINE
  5
6F
  8
0
 66
     1
 10
0.0
 20
0.0
 30
0.0
 70
     1
  0
VERTEX
  5
70
  8
0
 10
1031.296881459876
 20
153.4293464725648
 30
0.0
  0
VERTEX
  5
71
  8
0
 10
1104.930490659351
 20
45.0707965710634
 30
0.0
  0
VERTEX
  5
72
  8
0
 10
1012.051733600922
 20
38.37683209838394
 30
0.0
  0
VERTEX
  5
73
  8
0
 10
986.530994048831
 20
107.8267135024349
 30
0.0
  0
SEQEND
  5
74
  8
0
  0
POLYLINE
  5
75
  8
0
 66
     1
 10
0.0
 20
0.0
 30
0.0
 70
     1
  0
VERTEX
  5
76
  8
0
 10
1037.990845932555
 20
194.8482516472701
 30
0.0
  0
VERTEX
  5
77
  8
0
 10
997.408686316935
 20
229.1548195697532
 30
0.0
  0
VERTEX
  5
78
  8
0
 10
1005.776141907785
 20
276.430943658053
 30
0.0
  0
VERTEX
  5
79
  8
0
 10
1106.185608997979
 20
282.7065353511902
 30
0.0
  0
VERTEX
  5
7A
  8
0
 10
1102.001881202554
 20
219.1138728607335
 30
0.0
  0
SEQEND
  5
7B
  8
0
  0
POLYLINE
  5
7C
  8
0
 66
     1
 10
0.0
 20
0.0
 30
0.0
 70
     1
  0
VERTEX
  5
7D
  8
0
 10
1125.849129636475
 20
322.0335766281829
 30
0.0
  0
VERTEX
  5
7E
  8
0
 10
1125.430756856932
 20
205.7259439153744
 30
0.0
  0
VERTEX
  5
7F
  8
0
 10
1160.155697558958
 20
102.3878673683827
 30
0.0
  0
VERTEX
  5
80
  8
0
 10
1190.696910465558
 20
260.9511508149814
 30
0.0
  0
VERTEX
  5
81
  8
0
 10
1148.859632511311
 20
326.2173044236077
 30
0.0
  0
SEQEND
  5
82
  8
0
  0
POLYLINE
  5
83
  8
0
 66
     1
 10
0.0
 20
0.0
 30
0.0
 70
     1
  0
VERTEX
  5
84
  8
0
 10
1209.105312765427
 20
229.5731923492957
 30
0.0
  0
VERTEX
  5
85
  8
0
 10
1230.023951742551
 20
186.899168835963
 30
0.0
  0
VERTEX
  5
86
  8
0
 10
1195.717383820068
 20
136.2760625113234
 30
0.0
  0
SEQEND
  5
87
  8
0
  0
POLYLINE
  5
88
  8
0
 66
     1
 10
0.0
 20
0.0
 30
0.0
 70
     1
  0
VERTEX
  5
89
  8
0
 10
1222.074868931244
 20
-58.68565275547064
 30
0.0
  0
VERTEX
  5
8A
  8
0
 10
1247.177235703792
 20
20.80517535759975
 30
0.0
  0
VERTEX
  5
8B
  8
0
 10
1188.605046567846
 20
83.97946506851383
 30
0.0
  0
VERTEX
  5
8C
  8
0
 10
1170.61501704752
 20
60.96896219367761
 30
0.0
  0
SEQEND
  5
8D
  8
0
  0
POLYLINE
  5
8E
  8
0
 66
     1
 10
0.0
 20
0.0
 30
0.0
 70
     1
  0
VERTEX
  5
8F
  8
0
 10
1199.48273883595
 20
109.5002046206049
 30
0.0
  0
VERTEX
  5
90
  8
0
 10
1251.77933627876
 20
58.04035273688021
 30
0.0
  0
VERTEX
  5
91
  8
0
 10
1278.973566949021
 20
160.9600565043294
 30
0.0
  0
VERTEX
  5
92
  8
0
 10
1253.452827396929
 20
170.5826304338065
 30
0.0
  0
SEQEND
  5
93
  8
0
  0
POLYLINE
  5
94
  8
0
 66
     1
 10
0.0
 20
0.0
 30
0.0
 70
     1
  0
VERTEX
  5
95
  8
0
 10
1256.381436853727
 20
-23.54233927390271
 30
0.0
  0
VERTEX
  5
96
  8
0
 10
1294.871732571634
 20
0.723281939560934
 30
0.0
  0
VERTEX
  5
97
  8
0
 10
1299.892205926144
 20
28.75425816890686
 30
0.0
  0
VERTEX
  5
98
  8
0
 10
1268.095874680916
 20
21.2235481371423
 30
0.0
  0
SEQEND
  5
99
  8
0
  0
POLYLINE
  5
9A
  8
0
 66
     1
 10
0.0
 20
0.0
 30
0.0
 70
     1
  0
VERTEX
  5
9B
  8
0
 10
1367.250223432482
 20
-42.3691143533141
 30
0.0
  0
VERTEX
  5
9C
  8
0
 10
1394.026081323201
 20
5.325382514528087
 30
0.0
  0
VERTEX
  5
9D
  8
0
 10
1381.474897936927
 20
53.43825216191306
 30
0.0
  0
VERTEX
  5
9E
  8
0
 10
1324.994572698693
 20
35.02984986204399
 30
0.0
  0
VERTEX
  5
9F
  8
0
 10
1320.810844903268
 20
-5.970682533118747
 30
0.0
  0
SEQEND
  5
A0
  8
0
  0
POLYLINE
  5
A1
  8
0
 66
     1
 10
0.0
 20
0.0
 30
0.0
 70
     1
  0
VERTEX
  5
A2
  8
0
 10
1389.842353527776
 20
-57.84890719638599
 30
0.0
  0
VERTEX
  5
A3
  8
0
 10
1437.955223175161
 20
-89.64523844161397
 30
0.0
  0
VERTEX
  5
A4
  8
0
 10
1473.098536656729
 20
-32.32816764429492
 30
0.0
  0
VERTEX
  5
A5
  8
0
 10
1473.516909436271
 20
27.08076705073688
 30
0.0
  0
VERTEX
  5
A6
  8
0
 10
1407.832383048103
 20
-8.89929198991615
 30
0.0
  0
SEQEND
  5
A7
  8
0
  0
POLYLINE
  5
A8
  8
0
 66
     1
 10
0.0
 20
0.0
 30
0.0
 70
     1
  0
VERTEX
  5
A9
  8
0
 10
1463.894335506794
 20
-92.15547511886882
 30
0.0
  0
VERTEX
  5
AA
  8
0
 10
1491.92531173614
 20
-40.69562323514435
 30
0.0
  0
VERTEX
  5
AB
  8
0
 10
1536.272826367642
 20
-69.98171780311748
 30
0.0
  0
SEQEND
  5
AC
  8
0
  0
POLYLINE
  5
AD
  8
0
 66
     1
 10
0.0
 20
0.0
 30
0.0
 70
     1
  0
VERTEX
  5
AE
  8
0
 10
1554.681228667511
 20
-45.71609658965406
 30
0.0
  0
VERTEX
  5
AF
  8
0
 10
1491.92531173614
 20
-0.1134636195239409
 30
0.0
  0
VERTEX
  5
B0
  8
0
 10
1488.5783294998
 20
31.26449484616171
 30
0.0
  0
VERTEX
  5
B1
  8
0
 10
1554.262855887969
 20
24.98890315302458
 30
0.0
  0
SEQEND
  5
B2
  8
0
  0
POLYLINE
  5
B3
  8
0
 66
     1
 10
0.0
 20
0.0
 30
0.0
 70
     1
  0
VERTEX
  5
B4
  8
0
 10
1603.212471094438
 20
99.04088513204272
 30
0.0
  0
VERTEX
  5
B5
  8
0
 10
1553.007737549341
 20
165.9805298588391
 30
0.0
  0
VERTEX
  5
B6
  8
0
 10
1503.221376783787
 20
124.5616246841338
 30
0.0
  0
VERTEX
  5
B7
  8
0
 10
1491.088566177055
 20
59.29547107550763
 30
0.0
  0
VERTEX
  5
B8
  8
0
 10
1556.773092565224
 20
50.50964270511543
 30
0.0
  0
SEQEND
  5
B9
  8
0
  0
POLYLINE
  5
BA
  8
0
 66
     1
 10
0.0
 20
0.0
 30
0.0
 70
     1
  0
VERTEX
  5
BB
  8
0
 10
1536.179051651815
 20
186.238021584763
 30
0.0
  0
VERTEX
  5
BC
  8
0
 10
1499.78061983162
 20
149.4212169850251
 30
0.0
  0
VERTEX
  5
BD
  8
0
 10
1452.922868522863
 20
154.0233175599923
 30
0.0
  0
VERTEX
  5
BE
  8
0
 10
1508.148075422469
 20
212.1771339163967
 30
0.0
  0
SEQEND
  5
BF
  8
0
  0
POLYLINE
  5
C0
  8
0
 66
     1
 10
0.0
 20
0.0
 30
0.0
 70
     1
  0
VERTEX
  5
C1
  8
0
 10
1482.208963090836
 20
123.4821046533915
 30
0.0
  0
VERTEX
  5
C2
  8
0
 10
1472.586389161359
 20
65.32828829698735
 30
0.0
  0
VERTEX
  5
C3
  8
0
 10
1413.59582724587
 20
27.67473813816434
 30
0.0
  0
VERTEX
  5
C4
  8
0
 10
1400.207898300511
 20
60.30781494247742
 30
0.0
  0
VERTEX
  5
C5
  8
0
 10
1437.443075679791
 20
130.5944419056135
 30
0.0
  0
SEQEND
  5
C6
  8
0
  0
POLYLINE
  5
C7
  8
0
 66
     1
 10
0.0
 20
0.0
 30
0.0
 70
     1
  0
VERTEX
  5
C8
  8
0
 10
1409.851390868965
 20
132.7908989982114
 30
0.0
  0
VERTEX
  5
C9
  8
0
 10
1393.246175248924
 20
115.1690375238824
 30
0.0
  0
VERTEX
  5
CA
  8
0
 10
1383.757480608901
 20
147.0239409582465
 30
0.0
  0
SEQEND
  5
CB
  8
0
  0
POLYLINE
  5
CC
  8
0
 66
     1
 10
0.0
 20
0.0
 30
0.0
 70
     1
  0
VERTEX
  5
CD
  8
0
 10
1372.235494260301
 20
88.73624531238863
 30
0.0
  0
VERTEX
  5
CE
  8
0
 10
1362.069035717419
 20
151.7682882782582
 30
0.0
  0
VERTEX
  5
CF
  8
0
 10
1304.79798592585
 20
154.1404619382641
 30
0.0
  0
VERTEX
  5
D0
  8
0
 10
1277.687429811497
 20
58.57575163517151
 30
0.0
  0
SEQEND
  5
D1
  8
0
  0
POLYLINE
  5
D2
  8
0
 66
     1
 10
0.0
 20
0.0
 30
0.0
 70
     1
  0
VERTEX
  5
D3
  8
0
 10
1538.051357414791
 20
353.8729316430509
 30
0.0
  0
VERTEX
  5
D4
  8
0
 10
1582.783775003472
 20
290.502006725752
 30
0.0
  0
VERTEX
  5
D5
  8
0
 10
1554.656573034832
 20
211.5425120427007
 30
0.0
  0
VERTEX
  5
D6
  8
0
 10
1524.157197406185
 20
248.1417627970765
 30
0.0
  0
SEQEND
  5
D7
  8
0
  0
POLYLINE
  5
D8
  8
0
 66
     1
 10
0.0
 20
0.0
 30
0.0
 70
     1
  0
VERTEX
  5
D9
  8
0
 10
1499.079933000409
 20
255.9360476799526
 30
0.0
  0
VERTEX
  5
DA
  8
0
 10
1512.296329106156
 20
383.0167794659798
 30
0.0
  0
VERTEX
  5
DB
  8
0
 10
1499.079933000409
 20
401.3164048431678
 30
0.0
  0
VERTEX
  5
DC
  8
0
 10
1443.842174917416
 20
300.6684652686341
 30
0.0
  0
SEQEND
  5
DD
  8
0
  0
POLYLINE
  5
DE
  8
0
 66
     1
 10
0.0
 20
0.0
 30
0.0
 70
     1
  0
VERTEX
  5
DF
  8
0
 10
1485.185772991804
 20
232.8920749827529
 30
0.0
  0
VERTEX
  5
E0
  8
0
 10
1423.848139783081
 20
275.2523189114287
 30
0.0
  0
VERTEX
  5
E1
  8
0
 10
1378.776840242971
 20
181.3820183654833
 30
0.0
  0
VERTEX
  5
E2
  8
0
 10
1423.848139783081
 20
159.0158095711425
 30
0.0
  0
SEQEND
  5
E3
  8
0
  0
POLYLINE
  5
E4
  8
0
 66
     1
 10
0.0
 20
0.0
 30
0.0
 70
     1
  0
VERTEX
  5
E5
  8
0
 10
1346.672432061718
 20
180.554168887251
 30
0.0
  0
VERTEX
  5
E6
  8
0
 10
1330.067216441677
 20
267.9857123560377
 30
0.0
  0
VERTEX
  5
E7
  8
0
 10
1245.346728584326
 20
223.9310586702151
 30
0.0
  0
VERTEX
  5
E8
  8
0
 10
1260.25753444722
 20
191.0595093815626
 30
0.0
  0
SEQEND
  5
E9
  8
0
  0
POLYLINE
  5
EA
  8
0
 66
     1
 10
0.0
 20
0.0
 30
0.0
 70
     1
  0
VERTEX
  5
EB
  8
0
 10
1368.125311588967
 20
219.5877676670096
 30
0.0
  0
VERTEX
  5
EC
  8
0
 10
1407.435617954778
 20
294.4806789329083
 30
0.0
  0
VERTEX
  5
ED
  8
0
 10
1373.547422811837
 20
350.0573189673308
 30
0.0
  0
VERTEX
  5
EE
  8
0
 10
1358.297734997514
 20
260.5924837899678
 30
0.0
  0
SEQEND
  5
EF
  8
0
  0
POLYLINE
  5
F0
  8
0
 66
     1
 10
0.0
 20
0.0
 30
0.0
 70
     1
  0
VERTEX
  5
F1
  8
0
 10
1359.607039305057
 20
372.5583011137552
 30
0.0
  0
VERTEX
  5
F2
  8
0
 10
1346.044271956754
 20
304.5221239239082
 30
0.0
  0
VERTEX
  5
F3
  8
0
 10
1304.466608118515
 20
287.8465902989457
 30
0.0
  0
VERTEX
  5
F4
  8
0
 10
1306.022991256845
 20
349.8795753838061
 30
0.0
  0
SEQEND
  5
F5
  8
0
  0
POLYLINE
  5
F6
  8
0
 66
     1
 10
0.0
 20
0.0
 30
0.0
 70
     1
  0
VERTEX
  5
F7
  8
0
 10
1229.326674920527
 20
245.4628660347636
 30
0.0
  0
VERTEX
  5
F8
  8
0
 10
1167.407503548241
 20
337.5048775341085
 30
0.0
  0
VERTEX
  5
F9
  8
0
 10
1241.459485527259
 20
371.8114454565915
 30
0.0
  0
VERTEX
  5
FA
  8
0
 10
1285.388627379219
 20
337.0865047545659
 30
0.0
  0
VERTEX
  5
FB
  8
0
 10
1281.623272363336
 20
276.8408245004492
 30
0.0
  0
SEQEND
  5
FC
  8
0
  0
POLYLINE
  5
FD
  8
0
 66
     1
 10
0.0
 20
0.0
 30
0.0
 70
     1
  0
VERTEX
  5
FE
  8
0
 10
1098.14506528843
 20
313.5008987935352
 30
0.0
  0
VERTEX
  5
FF
  8
0
 10
1097.467301385571
 20
336.883753442164
 30
0.0
  0
VERTEX
  5
100
  8
0
 10
1046.973890622589
 20
383.6494627394221
 30
0.0
  0
VERTEX
  5
101
  8
0
 10
1010.035757916784
 20
309.7731973278115
 30
0.0
  0
SEQEND
  5
102
  8
0
  0
POLYLINE
  5
103
  8
0
 66
     1
 10
0.0
 20
0.0
 30
0.0
 70
     1
  0
VERTEX
  5
104
  8
0
 10
1057.479231116901
 20
404.9990256794746
 30
0.0
  0
VERTEX
  5
105
  8
0
 10
1091.367426259842
 20
464.6422491310501
 30
0.0
  0
VERTEX
  5
106
  8
0
 10
1133.049906285658
 20
463.2867213253325
 30
0.0
  0
VERTEX
  5
107
  8
0
 10
1139.149781411387
 20
445.3259778995738
 30
0.0
  0
VERTEX
  5
108
  8
0
 10
1104.244940414159
 20
369.7553027308164
 30
0.0
  0
SEQEND
  5
109
  8
0
  0
POLYLINE
  5
10A
  8
0
 66
     1
 10
0.0
 20
0.0
 30
0.0
 70
     1
  0
VERTEX
  5
10B
  8
0
 10
1128.305558965646
 20
352.1334412564873
 30
0.0
  0
VERTEX
  5
10C
  8
0
 10
1232.819263023152
 20
398.5728197857023
 30
0.0
  0
VERTEX
  5
10D
  8
0
 10
1231.982517464067
 20
456.3082633625639
 30
0.0
  0
VERTEX
  5
10E
  8
0
 10
1171.318464430409
 20
458.8185000398188
 30
0.0
  0
SEQEND
  5
10F
  8
0
  0
POLYLINE
  5
110
  8
0
 66
     1
 10
0.0
 20
0.0
 30
0.0
 70
     1
  0
VERTEX
  5
111
  8
0
 10
1288.881215481844
 20
366.7764885404739
 30
0.0
  0
VERTEX
  5
112
  8
0
 10
1254.574647559361
 20
390.6237369743952
 30
0.0
  0
VERTEX
  5
113
  8
0
 10
1252.901156441191
 20
455.0531450239365
 30
0.0
  0
VERTEX
  5
114
  8
0
 10
1286.370978804589
 20
489.7780857259621
 30
0.0
  0
VERTEX
  5
115
  8
0
 10
1362.096451901777
 20
441.6652160785771
 30
0.0
  0
VERTEX
  5
116
  8
0
 10
1362.096451901777
 20
398.9911925652447
 30
0.0
  0
SEQEND
  5
117
  8
0
  0
POLYLINE
  5
118
  8
0
 66
     1
 10
0.0
 20
0.0
 30
0.0
 70
     1
  0
VERTEX
  5
119
  8
0
 10
1425.031116227901
 20
317.0582783477186
 30
0.0
  0
VERTEX
  5
11A
  8
0
 10
1437.23086647936
 20
341.1188968992063
 30
0.0
  0
VERTEX
  5
11B
  8
0
 10
1432.825401110778
 20
498.3601223624506
 30
0.0
  0
VERTEX
  5
11C
  8
0
 10
1386.05969181352
 20
468.8773925880924
 30
0.0
  0
VERTEX
  5
11D
  8
0
 10
1378.943170833502
 20
396.3566549821995
 30
0.0
  0
SEQEND
  5
11E
  8
0
  0
POLYLINE
  5
11F
  8
0
 66
     1
 10
0.0
 20
0.0
 30
0.0
 70
     1
  0
VERTEX
  5
120
  8
0
 10
1456.844853846797
 20
376.0841695201469
 30
0.0
  0
VERTEX
  5
121
  8
0
 10
1450.406096769639
 20
500.4538456947388
 30
0.0
  0
VERTEX
  5
122
  8
0
 10
1474.466715321127
 20
521.1256447319325
 30
0.0
  0
VERTEX
  5
123
  8
0
 10
1490.055285086879
 20
429.9663997974225
 30
0.0
  0
SEQEND
  5
124
  8
0
  0
POLYLINE
  5
125
  8
0
 66
     1
 10
0.0
 20
0.0
 30
0.0
 70
     1
  0
VERTEX
  5
126
  8
0
 10
1506.069665370477
 20
438.0250342958169
 30
0.0
  0
VERTEX
  5
127
  8
0
 10
1560.96854150204
 20
472.252111390187
 30
0.0
  0
VERTEX
  5
128
  8
0
 10
1594.517854693551
 20
531.8953348417625
 30
0.0
  0
VERTEX
  5
129
  8
0
 10
1563.679597113476
 20
542.400675336074
 30
0.0
  0
VERTEX
  5
12A
  8
0
 10
1498.275380487601
 20
523.7621680074566
 30
0.0
  0
SEQEND
  5
12B
  8
0
  0
POLYLINE
  5
12C
  8
0
 66
     1
 10
0.0
 20
0.0
 30
0.0
 70
     1
  0
VERTEX
  5
12D
  8
0
 10
1557.756854528328
 20
559.9137983681206
 30
0.0
  0
VERTEX
  5
12E
  8
0
 10
1557.756854528328
 20
604.6796857791654
 30
0.0
  0
VERTEX
  5
12F
  8
0
 10
1496.674428715127
 20
605.9348041177929
 30
0.0
  0
VERTEX
  5
130
  8
0
 10
1497.929547053755
 20
554.8933250136109
 30
0.0
  0
SEQEND
  5
131
  8
0
  0
POLYLINE
  5
132
  8
0
 66
     1
 10
0.0
 20
0.0
 30
0.0
 70
     1
  0
VERTEX
  5
133
  8
0
 10
1472.964860698748
 20
539.9519430574702
 30
0.0
  0
VERTEX
  5
134
  8
0
 10
1451.954179710125
 20
531.4798942717349
 30
0.0
  0
VERTEX
  5
135
  8
0
 10
1394.683129918555
 20
673.4714319206561
 30
0.0
  0
VERTEX
  5
136
  8
0
 10
1445.854304584395
 20
664.999383134921
 30
0.0
  0
VERTEX
  5
137
  8
0
 10
1472.287096795889
 20
627.3834865262569
 30
0.0
  0
SEQEND
  5
138
  8
0
  0
POLYLINE
  5
139
  8
0
 66
     1
 10
0.0
 20
0.0
 30
0.0
 70
     1
  0
VERTEX
  5
13A
  8
0
 10
1569.9428259779
 20
771.1467088410056
 30
0.0
  0
VERTEX
  5
13B
  8
0
 10
1545.677204764436
 20
874.0664126084549
 30
0.0
  0
VERTEX
  5
13C
  8
0
 10
1479.155932817182
 20
856.4947558676708
 30
0.0
  0
VERTEX
  5
13D
  8
0
 10
1478.319187258098
 20
813.8207323543382
 30
0.0
  0
VERTEX
  5
13E
  8
0
 10
1513.462500739666
 20
733.9115314617253
 30
0.0
  0
SEQEND
  5
13F
  8
0
  0
POLYLINE
  5
140
  8
0
 66
     1
 10
0.0
 20
0.0
 30
0.0
 70
     1
  0
VERTEX
  5
141
  8
0
 10
1497.001403414903
 20
727.4337995900866
 30
0.0
  0
VERTEX
  5
142
  8
0
 10
1456.837616578825
 20
691.4537405494335
 30
0.0
  0
VERTEX
  5
143
  8
0
 10
1392.408208529284
 20
709.8621428493026
 30
0.0
  0
VERTEX
  5
144
  8
0
 10
1463.113208271962
 20
797.3020537736801
 30
0.0
  0
SEQEND
  5
145
  8
0
  0
POLYLINE
  5
146
  8
0
 66
     1
 10
0.0
 20
0.0
 30
0.0
 70
     1
  0
VERTEX
  5
147
  8
0
 10
1394.204497652786
 20
608.7950690588303
 30
0.0
  0
VERTEX
  5
148
  8
0
 10
1421.992817669997
 20
531.8688660843551
 30
0.0
  0
VERTEX
  5
149
  8
0
 10
1346.76102445267
 20
483.7476289813795
 30
0.0
  0
VERTEX
  5
14A
  8
0
 10
1306.772954183999
 20
515.941414367173
 30
0.0
  0
SEQEND
  5
14B
  8
0
  0
POLYLINE
  5
14C
  8
0
 66
     1
 10
0.0
 20
0.0
 30
0.0
 70
     1
  0
VERTEX
  5
14D
  8
0
 10
1336.255683958358
 20
585.0733324587717
 30
0.0
  0
VERTEX
  5
14E
  8
0
 10
1385.732448867051
 20
633.1945695617475
 30
0.0
  0
VERTEX
  5
14F
  8
0
 10
1367.432823489863
 20
684.3657442275877
 30
0.0
  0
VERTEX
  5
150
  8
0
 10
1353.199781529828
 20
680.9769247132937
 30
0.0
  0
VERTEX
  5
151
  8
0
 10
1333.544628346923
 20
646.7498476189236
 30
0.0
  0
SEQEND
  5
152
  8
0
  0
POLYLINE
  5
153
  8
0
 66
     1
 10
0.0
 20
0.0
 30
0.0
 70
     1
  0
VERTEX
  5
154
  8
0
 10
1318.633822484029
 20
563.3848875672899
 30
0.0
  0
VERTEX
  5
155
  8
0
 10
1303.723016621135
 20
552.2017831701195
 30
0.0
  0
VERTEX
  5
156
  8
0
 10
1270.851467332483
 20
654.2052505503706
 30
0.0
  0
VERTEX
  5
157
  8
0
 10
1279.662398069647
 20
674.538167636135
 30
0.0
  0
VERTEX
  5
158
  8
0
 10
1317.278294678311
 20
636.2445071246121
 30
0.0
  0
SEQEND
  5
159
  8
0
  0
POLYLINE
  5
15A
  8
0
 66
     1
 10
0.0
 20
0.0
 30
0.0
 70
     1
  0
VERTEX
  5
15B
  8
0
 10
1324.232389539009
 20
662.7481256639545
 30
0.0
  0
VERTEX
  5
15C
  8
0
 10
1333.348347920655
 20
682.9811064622423
 30
0.0
  0
VERTEX
  5
15D
  8
0
 10
1307.11217501738
 20
686.093872738902
 30
0.0
  0
SEQEND
  5
15E
  8
0
  0
POLYLINE
  5
15F
  8
0
 66
     1
 10
0.0
 20
0.0
 30
0.0
 70
     1
  0
VERTEX
  5
160
  8
0
 10
1273.280547540023
 20
525.6990153076628
 30
0.0
  0
VERTEX
  5
161
  8
0
 10
1286.15806169434
 20
548.4041060534331
 30
0.0
  0
VERTEX
  5
162
  8
0
 10
1255.997568017123
 20
650.4075734336842
 30
0.0
  0
VERTEX
  5
163
  8
0
 10
1234.648005077071
 20
654.8130388022665
 30
0.0
  0
VERTEX
  5
164
  8
0
 10
1205.504157254142
 20
574.8368982649266
 30
0.0
  0
SEQEND
  5
165
  8
0
  0
POLYLINE
  5
166
  8
0
 66
     1
 10
0.0
 20
0.0
 30
0.0
 70
     1
  0
VERTEX
  5
167
  8
0
 10
1264.469616802858
 20
503.6716884647516
 30
0.0
  0
VERTEX
  5
168
  8
0
 10
1198.726518225553
 20
549.7596338591508
 30
0.0
  0
VERTEX
  5
169
  8
0
 10
1181.443538702654
 20
494.5218757761576
 30
0.0
  0
VERTEX
  5
16A
  8
0
 10
1242.442289959947
 20
477.9166601561168
 30
0.0
  0
SEQEND
  5
16B
  8
0
  0
POLYLINE
  5
16C
  8
0
 66
     1
 10
0.0
 20
0.0
 30
0.0
 70
     1
  0
VERTEX
  5
16D
  8
0
 10
1154.628472631634
 20
487.5996166090096
 30
0.0
  0
VERTEX
  5
16E
  8
0
 10
1171.911452154534
 20
548.2594859148734
 30
0.0
  0
VERTEX
  5
16F
  8
0
 10
1125.145742857276
 20
538.0930273719911
 30
0.0
  0
VERTEX
  5
170
  8
0
 10
1104.473943820082
 20
500.1382488118976
 30
0.0
  0
SEQEND
  5
171
  8
0
  0
POLYLINE
  5
172
  8
0
 66
     1
 10
0.0
 20
0.0
 30
0.0
 70
     1
  0
VERTEX
  5
173
  8
0
 10
1015.539230507
 20
380.8820215465997
 30
0.0
  0
VERTEX
  5
174
  8
0
 10
992.1103548526207
 20
410.1681161145731
 30
0.0
  0
VERTEX
  5
175
  8
0
 10
999.6410648843853
 20
535.2615771977736
 30
0.0
  0
VERTEX
  5
176
  8
0
 10
1039.386478940921
 20
554.5067250567275
 30
0.0
  0
VERTEX
  5
177
  8
0
 10
1074.111419642946
 20
484.2200980935914
 30
0.0
  0
SEQEND
  5
178
  8
0
  0
POLYLINE
  5
179
  8
0
 66
     1
 10
0.0
 20
0.0
 30
0.0
 70
     1
  0
VERTEX
  5
17A
  8
0
 10
1084.68788350978
 20
513.4225181056564
 30
0.0
  0
VERTEX
  5
17B
  8
0
 10
1097.565397664097
 20
537.1442547057148
 30
0.0
  0
VERTEX
  5
17C
  8
0
 10
1062.999438618298
 20
556.4605259371909
 30
0.0
  0
SEQEND
  5
17D
  8
0
  0
POLYLINE
  5
17E
  8
0
 66
     1
 10
0.0
 20
0.0
 30
0.0
 70
     1
  0
VERTEX
  5
17F
  8
0
 10
1067.066022035451
 20
584.5877279058317
 30
0.0
  0
VERTEX
  5
180
  8
0
 10
1061.305028861151
 20
610.6816381658958
 30
0.0
  0
VERTEX
  5
181
  8
0
 10
1104.004154741256
 20
620.1703328059192
 30
0.0
  0
VERTEX
  5
182
  8
0
 10
1158.225266969961
 20
572.387977654373
 30
0.0
  0
VERTEX
  5
183
  8
0
 10
1108.070738158409
 20
555.4438800829026
 30
0.0
  0
SEQEND
  5
184
  8
0
  0
POLYLINE
  5
185
  8
0
 66
     1
 10
0.0
 20
0.0
 30
0.0
 70
     1
  0
VERTEX
  5
186
  8
0
 10
1054.255172039883
 20
641.5099422215864
 30
0.0
  0
VERTEX
  5
187
  8
0
 10
1048.833060817013
 20
734.3635969132436
 30
0.0
  0
VERTEX
  5
188
  8
0
 10
1076.282498882795
 20
751.3076944847138
 30
0.0
  0
VERTEX
  5
189
  8
0
 10
1105.426346705724
 20
681.1591305388268
 30
0.0
  0
VERTEX
  5
18A
  8
0
 10
1104.070818900006
 20
642.865470027304
 30
0.0
  0
SEQEND
  5
18B
  8
0
  0
POLYLINE
  5
18C
  8
0
 66
     1
 10
0.0
 20
0.0
 30
0.0
 70
     1
  0
VERTEX
  5
18D
  8
0
 10
1215.120383840293
 20
651.6461333016524
 30
0.0
  0
VERTEX
  5
18E
  8
0
 10
1188.261884412875
 20
586.0494135462271
 30
0.0
  0
VERTEX
  5
18F
  8
0
 10
1124.731203074943
 20
636.6673547748231
 30
0.0
  0
VERTEX
  5
190
  8
0
 10
1128.346770305557
 20
667.1414214328553
 30
0.0
  0
SEQEND
  5
191
  8
0
  0
POLYLINE
  5
192
  8
0
 66
     1
 10
0.0
 20
0.0
 30
0.0
 70
     1
  0
VERTEX
  5
193
  8
0
 10
1360.00665317952
 20
709.9668291887014
 30
0.0
  0
VERTEX
  5
194
  8
0
 10
1291.393517334554
 20
705.364728613734
 30
0.0
  0
VERTEX
  5
195
  8
0
 10
1249.974612159849
 20
748.8754976861517
 30
0.0
  0
VERTEX
  5
196
  8
0
 10
1258.342067750698
 20
784.8555567268046
 30
0.0
  0
VERTEX
  5
197
  8
0
 10
1305.618191838998
 20
796.1516217744514
 30
0.0
  0
VERTEX
  5
198
  8
0
 10
1330.720558611546
 20
781.0902017109223
 30
0.0
  0
SEQEND
  5
199
  8
0
  0
POLYLINE
  5
19A
  8
0
 66
     1
 10
0.0
 20
0.0
 30
0.0
 70
     1
  0
VERTEX
  5
19B
  8
0
 10
1229.89271874181
 20
762.6817994110535
 30
0.0
  0
VERTEX
  5
19C
  8
0
 10
1172.994020724033
 20
817.9070063106603
 30
0.0
  0
VERTEX
  5
19D
  8
0
 10
1217.759908135078
 20
851.7952014536008
 30
0.0
  0
VERTEX
  5
19E
  8
0
 10
1239.096919891744
 20
809.5395507198108
 30
0.0
  0
SEQEND
  5
19F
  8
0
  0
POLYLINE
  5
1A0
  8
0
 66
     1
 10
0.0
 20
0.0
 30
0.0
 70
     1
  0
VERTEX
  5
1A1
  8
0
 10
1155.704395444224
 20
831.214576564238
 30
0.0
  0
VERTEX
  5
1A2
  8
0
 10
1213.992091090082
 20
878.3191678129253
 30
0.0
  0
VERTEX
  5
1A3
  8
0
 10
1185.526007170012
 20
956.2620166416887
 30
0.0
  0
VERTEX
  5
1A4
  8
0
 10
1119.105144689848
 20
952.1954332245358
 30
0.0
  0
VERTEX
  5
1A5
  8
0
 10
1094.027880284072
 20
892.2133278215309
 30
0.0
  0
SEQEND
  5
1A6
  8
0
  0
POLYLINE
  5
1A7
  8
0
 66
     1
 10
0.0
 20
0.0
 30
0.0
 70
     1
  0
VERTEX
  5
1A8
  8
0
 10
1134.323650547932
 20
818.9229592516127
 30
0.0
  0
VERTEX
  5
1A9
  8
0
 10
1082.135830027804
 20
867.0441963545884
 30
0.0
  0
VERTEX
  5
1AA
  8
0
 10
1103.146511016427
 20
800.6233338744248
 30
0.0
  0
SEQEND
  5
1AB
  8
0
  0
POLYLINE
  5
1AC
  8
0
 66
     1
 10
0.0
 20
0.0
 30
0.0
 70
     1
  0
VERTEX
  5
1AD
  8
0
 10
1077.730364659221
 20
781.6459445943781
 30
0.0
  0
VERTEX
  5
1AE
  8
0
 10
1042.486641710563
 20
759.9574997028961
 30
0.0
  0
VERTEX
  5
1AF
  8
0
 10
1021.137078770511
 20
886.0215856346351
 30
0.0
  0
VERTEX
  5
1B0
  8
0
 10
1066.88614221348
 20
866.3664324517296
 30
0.0
  0
SEQEND
  5
1B1
  8
0
  0
POLYLINE
  5
1B2
  8
0
 66
     1
 10
0.0
 20
0.0
 30
0.0
 70
     1
  0
VERTEX
  5
1B3
  8
0
 10
1071.686477899274
 20
903.2962786855487
 30
0.0
  0
VERTEX
  5
1B4
  8
0
 10
1101.846971576491
 20
964.2950299428418
 30
0.0
  0
VERTEX
  5
1B5
  8
0
 10
1093.036040839326
 20
1009.705211434382
 30
0.0
  0
VERTEX
  5
1B6
  8
0
 10
1019.159775427716
 20
1010.044093385811
 30
0.0
  0
VERTEX
  5
1B7
  8
0
 10
1018.820893476287
 20
917.1904386941543
 30
0.0
  0
SEQEND
  5
1B8
  8
0
  0
POLYLINE
  5
1B9
  8
0
 66
     1
 10
0.0
 20
0.0
 30
0.0
 70
     1
  0
VERTEX
  5
1BA
  8
0
 10
1147.668170437699
 20
1049.841630416488
 30
0.0
  0
VERTEX
  5
1BB
  8
0
 10
1172.745434843475
 20
984.098531839183
 30
0.0
  0
VERTEX
  5
1BC
  8
0
 10
1119.540968469058
 20
981.3874762277478
 30
0.0
  0
VERTEX
  5
1BD
  8
0
 10
1108.696746023317
 20
1013.920143564971
 30
0.0
  0
SEQEND
  5
1BE
  8
0
  0
POLYLINE
  5
1BF
  8
0
 66
     1
 10
0.0
 20
0.0
 30
0.0
 70
     1
  0
VERTEX
  5
1C0
  8
0
 10
1098.869169431865
 20
1032.897532845017
 30
0.0
  0
VERTEX
  5
1C1
  8
0
 10
1021.60408450596
 20
1031.20312308787
 30
0.0
  0
VERTEX
  5
1C2
  8
0
 10
996.1879381487549
 20
1113.890319236646
 30
0.0
  0
VERTEX
  5
1C3
  8
0
 10
1025.331785971684
 20
1142.017521205286
 30
0.0
  0
VERTEX
  5
1C4
  8
0
 10
1100.563579189012
 20
1052.552686027923
 30
0.0
  0
SEQEND
  5
1C5
  8
0
  0
POLYLINE
  5
1C6
  8
0
 66
     1
 10
0.0
 20
0.0
 30
0.0
 70
     1
  0
VERTEX
  5
1C7
  8
0
 10
1138.445422129305
 20
1083.438960508887
 30
0.0
  0
VERTEX
  5
1C8
  8
0
 10
1107.607164549229
 20
1081.74455075174
 30
0.0
  0
VERTEX
  5
1C9
  8
0
 10
1046.947295243365
 20
1160.704045434791
 30
0.0
  0
VERTEX
  5
1CA
  8
0
 10
1100.490643569211
 20
1183.748018131991
 30
0.0
  0
VERTEX
  5
1CB
  8
0
 10
1137.428776275017
 20
1117.327155651827
 30
0.0
  0
SEQEND
  5
1CC
  8
0
  0
POLYLINE
  5
1CD
  8
0
 66
     1
 10
0.0
 20
0.0
 30
0.0
 70
     1
  0
VERTEX
  5
1CE
  8
0
 10
1001.179481777494
 20
1233.013038987617
 30
0.0
  0
VERTEX
  5
1CF
  8
0
 10
1034.230931361349
 20
1192.849252151539
 30
0.0
  0
VERTEX
  5
1D0
  8
0
 10
1107.864540560825
 20
1216.278127805918
 30
0.0
  0
VERTEX
  5
1D1
  8
0
 10
1103.262439985858
 20
1293.258719241733
 30
0.0
  0
VERTEX
  5
1D2
  8
0
 10
1008.710191809258
 20
1266.901234130557
 30
0.0
  0
SEQEND
  5
1D3
  8
0
  0
POLYLINE
  5
1D4
  8
0
 66
     1
 10
0.0
 20
0.0
 30
0.0
 70
     1
  0
VERTEX
  5
1D5
  8
0
 10
1166.903044341261
 20
1139.431087312596
 30
0.0
  0
VERTEX
  5
1D6
  8
0
 10
1130.981557489743
 20
1186.196796609854
 30
0.0
  0
VERTEX
  5
1D7
  8
0
 10
1126.914974072591
 20
1319.377403521611
 30
0.0
  0
VERTEX
  5
1D8
  8
0
 10
1151.992238478367
 20
1318.699639618752
 30
0.0
  0
VERTEX
  5
1D9
  8
0
 10
1191.641426795607
 20
1260.411943972894
 30
0.0
  0
SEQEND
  5
1DA
  8
0
  0
POLYLINE
  5
1DB
  8
0
 66
     1
 10
0.0
 20
0.0
 30
0.0
 70
     1
  0
VERTEX
  5
1DC
  8
0
 10
1236.061149469801
 20
1191.300221406826
 30
0.0
  0
VERTEX
  5
1DD
  8
0
 10
1210.983885064025
 20
1227.221708258343
 30
0.0
  0
VERTEX
  5
1DE
  8
0
 10
1203.867364084007
 20
1169.272894563915
 30
0.0
  0
SEQEND
  5
1DF
  8
0
  0
POLYLINE
  5
1E0
  8
0
 66
     1
 10
0.0
 20
0.0
 30
0.0
 70
     1
  0
VERTEX
  5
1E1
  8
0
 10
1257.071830458424
 20
1173.678359932497
 30
0.0
  0
VERTEX
  5
1E2
  8
0
 10
1278.082511447047
 20
1159.445317972462
 30
0.0
  0
VERTEX
  5
1E3
  8
0
 10
1260.460649972718
 20
1050.664211563623
 30
0.0
  0
VERTEX
  5
1E4
  8
0
 10
1163.201529912479
 20
1068.963836940811
 30
0.0
  0
VERTEX
  5
1E5
  8
0
 10
1160.490474301044
 20
1102.174268180892
 30
0.0
  0
SEQEND
  5
1E6
  8
0
  0
POLYLINE
  5
1E7
  8
0
 66
     1
 10
0.0
 20
0.0
 30
0.0
 70
     1
  0
VERTEX
  5
1E8
  8
0
 10
1225.140328649732
 20
921.7068454320255
 30
0.0
  0
VERTEX
  5
1E9
  8
0
 10
1175.324681789609
 20
1044.043229898041
 30
0.0
  0
VERTEX
  5
1EA
  8
0
 10
1249.539829152649
 20
1026.082486472282
 30
0.0
  0
SEQEND
  5
1EB
  8
0
  0
POLYLINE
  5
1EC
  8
0
 66
     1
 10
0.0
 20
0.0
 30
0.0
 70
     1
  0
VERTEX
  5
1ED
  8
0
 10
1285.187458148264
 20
815.8728242198317
 30
0.0
  0
VERTEX
  5
1EE
  8
0
 10
1344.178020063753
 20
929.2518474758429
 30
0.0
  0
VERTEX
  5
1EF
  8
0
 10
1307.779588243558
 20
965.6502792960383
 30
0.0
  0
VERTEX
  5
1F0
  8
0
 10
1250.044144666696
 20
927.9967291372154
 30
0.0
  0
VERTEX
  5
1F1
  8
0
 10
1232.054115146369
 20
887.8329423011377
 30
0.0
  0
VERTEX
  5
1F2
  8
0
 10
1245.860416871271
 20
858.5468477331643
 30
0.0
  0
VERTEX
  5
1F3
  8
0
 10
1255.901363580291
 20
814.6177058812043
 30
0.0
  0
SEQEND
  5
1F4
  8
0
  0
POLYLINE
  5
1F5
  8
0
 66
     1
 10
0.0
 20
0.0
 30
0.0
 70
     1
  0
VERTEX
  5
1F6
  8
0
 10
1256.240228631501
 20
959.3489620852703
 30
0.0
  0
VERTEX
  5
1F7
  8
0
 10
1301.257307059383
 20
990.092332718946
 30
0.0
  0
VERTEX
  5
1F8
  8
0
 10
1303.727756485303
 20
1024.129635920515
 30
0.0
  0
VERTEX
  5
1F9
  8
0
 10
1277.376295942153
 20
1020.835703352622
 30
0.0
  0
SEQEND
  5
1FA
  8
0
  0
POLYLINE
  5
1FB
  8
0
 66
     1
 10
0.0
 20
0.0
 30
0.0
 70
     1
  0
VERTEX
  5
1FC
  8
0
 10
1309.338496500393
 20
815.6511900866471
 30
0.0
  0
VERTEX
  5
1FD
  8
0
 10
1362.753069684696
 20
907.2950362117014
 30
0.0
  0
VERTEX
  5
1FE
  8
0
 10
1389.18586189619
 20
893.4008762030958
 30
0.0
  0
VERTEX
  5
1FF
  8
0
 10
1390.880271653337
 20
825.963367868644
 30
0.0
  0
VERTEX
  5
200
  8
0
 10
1343.43679845322
 20
804.9526868800208
 30
0.0
  0
SEQEND
  5
201
  8
0
  0
POLYLINE
  5
202
  8
0
 66
     1
 10
0.0
 20
0.0
 30
0.0
 70
     1
  0
VERTEX
  5
203
  8
0
 10
1375.029421678126
 20
724.9997564403623
 30
0.0
  0
VERTEX
  5
204
  8
0
 10
1433.282619141329
 20
799.2614661835286
 30
0.0
  0
VERTEX
  5
205
  8
0
 10
1396.818785614744
 20
806.8210414268449
 30
0.0
  0
VERTEX
  5
206
  8
0
 10
1360.799632984825
 20
777.4721022469108
 30
0.0
  0
SEQEND
  5
207
  8
0
  0
POLYLINE
  5
208
  8
0
 66
     1
 10
0.0
 20
0.0
 30
0.0
 70
     1
  0
VERTEX
  5
209
  8
0
 10
1456.358382767083
 20
829.158128004785
 30
0.0
  0
VERTEX
  5
20A
  8
0
 10
1408.870854913281
 20
828.3346448628115
 30
0.0
  0
VERTEX
  5
20B
  8
0
 10
1406.949394248676
 20
886.801947942927
 30
0.0
  0
VERTEX
  5
20C
  8
0
 10
1459.377820954319
 20
857.9800379738559
 30
0.0
  0
SEQEND
  5
20D
  8
0
  0
POLYLINE
  5
20E
  8
0
 66
     1
 10
0.0
 20
0.0
 30
0.0
 70
     1
  0
VERTEX
  5
20F
  8
0
 10
1443.571034903695
 20
895.2195054819102
 30
0.0
  0
VERTEX
  5
210
  8
0
 10
1472.667439253424
 20
949.5693928521583
 30
0.0
  0
VERTEX
  5
211
  8
0
 10
1477.608338105264
 20
1017.36950487464
 30
0.0
  0
VERTEX
  5
212
  8
0
 10
1425.179911399621
 20
987.4496173829374
 30
0.0
  0
VERTEX
  5
213
  8
0
 10
1394.162046385287
 20
927.6098423995329
 30
0.0
  0
SEQEND
  5
214
  8
0
  0
POLYLINE
  5
215
  8
0
 66
     1
 10
0.0
 20
0.0
 30
0.0
 70
     1
  0
VERTEX
  5
216
  8
0
 10
1368.987098628306
 20
936.9891246669413
 30
0.0
  0
VERTEX
  5
217
  8
0
 10
1392.044626603563
 20
990.515528895216
 30
0.0
  0
VERTEX
  5
218
  8
0
 10
1385.182267087117
 20
1053.649236446514
 30
0.0
  0
VERTEX
  5
219
  8
0
 10
1333.028334762132
 20
1033.336652277836
 30
0.0
  0
VERTEX
  5
21A
  8
0
 10
1323.421031439108
 20
990.515528895216
 30
0.0
  0
SEQEND
  5
21B
  8
0
  0
POLYLINE
  5
21C
  8
0
 66
     1
 10
0.0
 20
0.0
 30
0.0
 70
     1
  0
VERTEX
  5
21D
  8
0
 10
1379.489067379803
 20
1075.088540857912
 30
0.0
  0
VERTEX
  5
21E
  8
0
 10
1361.921427017703
 20
1150.84898991947
 30
0.0
  0
VERTEX
  5
21F
  8
0
 10
1305.375584602192
 20
1154.691911248679
 30
0.0
  0
VERTEX
  5
220
  8
0
 10
1286.160977956145
 20
1063.010788108968
 30
0.0
  0
VERTEX
  5
221
  8
0
 10
1307.022550886139
 20
1046.815619650157
 30
0.0
  0
SEQEND
  5
222
  8
0
  0
POLYLINE
  5
223
  8
0
 66
     1
 10
0.0
 20
0.0
 30
0.0
 70
     1
  0
VERTEX
  5
224
  8
0
 10
1351.093933176095
 20
1182.426524114275
 30
0.0
  0
VERTEX
  5
225
  8
0
 10
1334.898764717283
 20
1263.951355169648
 30
0.0
  0
VERTEX
  5
226
  8
0
 10
1249.256517952044
 20
1220.032254264397
 30
0.0
  0
VERTEX
  5
227
  8
0
 10
1267.098652694802
 20
1189.563378011379
 30
0.0
  0
SEQEND
  5
228
  8
0
  0
POLYLINE
  5
229
  8
0
 66
     1
 10
0.0
 20
0.0
 30
0.0
 70
     1
  0
VERTEX
  5
22A
  8
0
 10
1234.867162107889
 20
1242.144572246198
 30
0.0
  0
VERTEX
  5
22B
  8
0
 10
1285.021690919442
 20
1270.271774214839
 30
0.0
  0
VERTEX
  5
22C
  8
0
 10
1289.427156288024
 20
1326.865060103549
 30
0.0
  0
VERTEX
  5
22D
  8
0
 10
1246.05026650506
 20
1378.375116720819
 30
0.0
  0
VERTEX
  5
22E
  8
0
 10
1175.901702559173
 20
1346.520213286455
 30
0.0
  0
SEQEND
  5
22F
  8
0
  0
POLYLINE
  5
230
  8
0
 66
     1
 10
0.0
 20
0.0
 30
0.0
 70
     1
  0
VERTEX
  5
231
  8
0
 10
1306.680807879078
 20
1284.814395503428
 30
0.0
  0
VERTEX
  5
232
  8
0
 10
1347.305976216435
 20
1308.146417859342
 30
0.0
  0
VERTEX
  5
233
  8
0
 10
1356.913279539459
 20
1364.417765894195
 30
0.0
  0
VERTEX
  5
234
  8
0
 10
1312.994178634208
 20
1346.850125532095
 30
0.0
  0
SEQEND
  5
235
  8
0
  0
POLYLINE
  5
236
  8
0
 66
     1
 10
0.0
 20
0.0
 30
0.0
 70
     1
  0
VERTEX
  5
237
  8
0
 10
1367.886816409256
 20
1209.788078127689
 30
0.0
  0
VERTEX
  5
238
  8
0
 10
1413.021927420821
 20
1288.718937285845
 30
0.0
  0
VERTEX
  5
239
  8
0
 10
1374.557029859241
 20
1351.418943715704
 30
0.0
  0
SEQEND
  5
23A
  8
0
  0
POLYLINE
  5
23B
  8
0
 66
     1
 10
0.0
 20
0.0
 30
0.0
 70
     1
  0
VERTEX
  5
23C
  8
0
 10
1396.192349229402
 20
1110.92575982584
 30
0.0
  0
VERTEX
  5
23D
  8
0
 10
1389.919613798902
 20
1140.393028592376
 30
0.0
  0
VERTEX
  5
23E
  8
0
 10
1413.989412543845
 20
1128.868700708434
 30
0.0
  0
SEQEND
  5
23F
  8
0
  0
POLYLINE
  5
240
  8
0
 66
     1
 10
0.0
 20
0.0
 30
0.0
 70
     1
  0
VERTEX
  5
241
  8
0
 10
1415.006058398134
 20
1013.277417039227
 30
0.0
  0
VERTEX
  5
242
  8
0
 10
1487.526796004026
 20
1045.471202425021
 30
0.0
  0
VERTEX
  5
243
  8
0
 10
1492.610025275467
 20
1119.347467836631
 30
0.0
  0
VERTEX
  5
244
  8
0
 10
1436.355621338186
 20
1123.414051253784
 30
0.0
  0
VERTEX
  5
245
  8
0
 10
1404.839599855251
 20
1067.159647316503
 30
0.0
  0
SEQEND
  5
246
  8
0
  0
POLYLINE
  5
247
  8
0
 66
     1
 10
0.0
 20
0.0
 30
0.0
 70
     1
  0
VERTEX
  5
248
  8
0
 10
1542.574714528459
 20
906.0259337018297
 30
0.0
  0
VERTEX
  5
249
  8
0
 10
1499.482318235584
 20
945.3529749788224
 30
0.0
  0
VERTEX
  5
24A
  8
0
 10
1474.379951463035
 20
891.8012591973854
 30
0.0
  0
SEQEND
  5
24B
  8
0
  0
POLYLINE
  5
24C
  8
0
 66
     1
 10
0.0
 20
0.0
 30
0.0
 70
     1
  0
VERTEX
  5
24D
  8
0
 10
1555.544270694275
 20
944.93460219928
 30
0.0
  0
VERTEX
  5
24E
  8
0
 10
1502.410927692381
 20
977.5676790035932
 30
0.0
  0
VERTEX
  5
24F
  8
0
 10
1504.921164369636
 20
1020.241702516926
 30
0.0
  0
VERTEX
  5
250
  8
0
 10
1559.7279984897
 20
1018.568211398756
 30
0.0
  0
SEQEND
  5
251
  8
0
  0
POLYLINE
  5
252
  8
0
 66
     1
 10
0.0
 20
0.0
 30
0.0
 70
     1
  0
VERTEX
  5
253
  8
0
 10
1540.838127522815
 20
1184.652776864587
 30
0.0
  0
VERTEX
  5
254
  8
0
 10
1504.021322923077
 20
1144.907362808052
 30
0.0
  0
VERTEX
  5
255
  8
0
 10
1460.928926630202
 20
1153.274818398902
 30
0.0
  0
VERTEX
  5
256
  8
0
 10
1513.225524073012
 20
1210.173516416678
 30
0.0
  0
SEQEND
  5
257
  8
0
  0
POLYLINE
  5
258
  8
0
 66
     1
 10
0.0
 20
0.0
 30
0.0
 70
     1
  0
VERTEX
  5
259
  8
0
 10
1497.74573122994
 20
1226.071682039293
 30
0.0
  0
VERTEX
  5
25A
  8
0
 10
1430.806086503144
 20
1271.674315009423
 30
0.0
  0
VERTEX
  5
25B
  8
0
 10
1380.182980178504
 20
1176.70369405328
 30
0.0
  0
VERTEX
  5
25C
  8
0
 10
1426.203985928176
 20
1159.968782871581
 30
0.0
  0
SEQEND
  5
25D
  8
0
  0
POLYLINE
  5
25E
  8
0
 66
     1
 10
0.0
 20
0.0
 30
0.0
 70
     1
  0
VERTEX
  5
25F
  8
0
 10
1505.103749808567
 20
1255.412642581375
 30
0.0
  0
VERTEX
  5
260
  8
0
 10
1522.257033769808
 20
1379.669358105491
 30
0.0
  0
VERTEX
  5
261
  8
0
 10
1507.613986485822
 20
1399.751251523529
 30
0.0
  0
VERTEX
  5
262
  8
0
 10
1446.53156067262
 20
1298.50503887425
 30
0.0
  0
SEQEND
  5
263
  8
0
  0
POLYLINE
  5
264
  8
0
 66
     1
 10
0.0
 20
0.0
 30
0.0
 70
     1
  0
VERTEX
  5
265
  8
0
 10
1427.286412813666
 20
1309.801103921897
 30
0.0
  0
VERTEX
  5
266
  8
0
 10
1493.80768476092
 20
1424.435245516535
 30
0.0
  0
VERTEX
  5
267
  8
0
 10
1456.572507381639
 20
1507.691428645488
 30
0.0
  0
VERTEX
  5
268
  8
0
 10
1417.245466104647
 20
1488.864653566077
 30
0.0
  0
VERTEX
  5
269
  8
0
 10
1382.520525402621
 20
1401.006369862157
 30
0.0
  0
SEQEND
  5
26A
  8
0
  0
POLYLINE
  5
26B
  8
0
 66
     1
 10
0.0
 20
0.0
 30
0.0
 70
     1
  0
VERTEX
  5
26C
  8
0
 10
1292.988750580531
 20
1367.118174719216
 30
0.0
  0
VERTEX
  5
26D
  8
0
 10
1361.183513645955
 20
1399.332878743987
 30
0.0
  0
VERTEX
  5
26E
  8
0
 10
1363.275377543667
 20
1446.609002832287
 30
0.0
  0
VERTEX
  5
26F
  8
0
 10
1294.662241698701
 20
1498.068854716011
 30
0.0
  0
VERTEX
  5
270
  8
0
 10
1259.10055543759
 20
1466.272523470783
 30
0.0
  0
VERTEX
  5
271
  8
0
 10
1255.335200421708
 20
1398.077760405359
 30
0.0
  0
SEQEND
  5
272
  8
0
  0
POLYLINE
  5
273
  8
0
 66
     1
 10
0.0
 20
0.0
 30
0.0
 70
     1
  0
VERTEX
  5
274
  8
0
 10
1235.253307003669
 20
1400.169624303072
 30
0.0
  0
VERTEX
  5
275
  8
0
 10
1236.926798121839
 20
1463.762286793528
 30
0.0
  0
VERTEX
  5
276
  8
0
 10
1171.660644513212
 20
1462.925541234443
 30
0.0
  0
VERTEX
  5
277
  8
0
 10
1119.782419849945
 20
1358.332346348824
 30
0.0
  0
SEQEND
  5
278
  8
0
  0
POLYLINE
  5
279
  8
0
 66
     1
 10
0.0
 20
0.0
 30
0.0
 70
     1
  0
VERTEX
  5
27A
  8
0
 10
1103.884254227331
 20
1321.515541749086
 30
0.0
  0
VERTEX
  5
27B
  8
0
 10
1047.403928989097
 20
1388.873559255425
 30
0.0
  0
VERTEX
  5
27C
  8
0
 10
1007.240142153019
 20
1300.17852999242
 30
0.0
  0
SEQEND
  5
27D
  8
0
  0
POLYLINE
  5
27E
  8
0
 66
     1
 10
0.0
 20
0.0
 30
0.0
 70
     1
  0
VERTEX
  5
27F
  8
0
 10
1014.770852184783
 20
1384.271458680458
 30
0.0
  0
VERTEX
  5
280
  8
0
 10
993.8522132076594
 20
1416.067789925686
 30
0.0
  0
VERTEX
  5
281
  8
0
 10
1002.219668798509
 20
1541.579623788429
 30
0.0
  0
VERTEX
  5
282
  8
0
 10
1040.709964516417
 20
1560.824771647383
 30
0.0
  0
VERTEX
  5
283
  8
0
 10
1069.159313525305
 20
1492.211635802417
 30
0.0
  0
SEQEND
  5
284
  8
0
  0
POLYLINE
  5
285
  8
0
 66
     1
 10
0.0
 20
0.0
 30
0.0
 70
     1
  0
VERTEX
  5
286
  8
0
 10
1056.608130139031
 20
1415.649417146144
 30
0.0
  0
VERTEX
  5
287
  8
0
 10
1099.282153652364
 20
1370.046784176013
 30
0.0
  0
VERTEX
  5
288
  8
0
 10
1138.609194929356
 20
1446.190630052744
 30
0.0
  0
VERTEX
  5
289
  8
0
 10
1130.241739338507
 20
1472.54811516392
 30
0.0
  0
VERTEX
  5
28A
  8
0
 10
1087.986088604717
 20
1475.476724620718
 30
0.0
  0
SEQEND
  5
28B
  8
0
  0
POLYLINE
  5
28C
  8
0
 66
     1
 10
0.0
 20
0.0
 30
0.0
 70
     1
  0
VERTEX
  5
28D
  8
0
 10
1083.166434184387
 20
1515.201220038276
 30
0.0
  0
VERTEX
  5
28E
  8
0
 10
1103.499351270152
 20
1551.122706889793
 30
0.0
  0
VERTEX
  5
28F
  8
0
 10
1057.411405875753
 20
1566.033512752687
 30
0.0
  0
SEQEND
  5
290
  8
0
  0
POLYLINE
  5
291
  8
0
 66
     1
 10
0.0
 20
0.0
 30
0.0
 70
     1
  0
VERTEX
  5
292
  8
0
 10
1102.821587367293
 20
1499.273768321094
 30
0.0
  0
VERTEX
  5
293
  8
0
 10
1158.398227401716
 20
1496.562712709658
 30
0.0
  0
VERTEX
  5
294
  8
0
 10
1184.49213766178
 20
1562.983575189822
 30
0.0
  0
VERTEX
  5
295
  8
0
 10
1137.387546413092
 20
1552.81711664694
 30
0.0
  0
VERTEX
  5
296
  8
0
 10
1103.838233221581
 20
1512.151282475411
 30
0.0
  0
SEQEND
  5
297
  8
0
  0
POLYLINE
  5
298
  8
0
 66
     1
 10
0.0
 20
0.0
 30
0.0
 70
     1
  0
VERTEX
  5
299
  8
0
 10
1157.913518382844
 20
1585.401155418514
 30
0.0
  0
VERTEX
  5
29A
  8
0
 10
1108.775635425581
 20
1628.439163250049
 30
0.0
  0
VERTEX
  5
29B
  8
0
 10
1060.315516371175
 20
1626.405871541472
 30
0.0
  0
VERTEX
  5
29C
  8
0
 10
1061.671044176893
 20
1594.550968107108
 30
0.0
  0
VERTEX
  5
29D
  8
0
 10
1114.53662859988
 20
1567.779293944185
 30
0.0
  0
SEQEND
  5
29E
  8
0
  0
POLYLINE
  5
29F
  8
0
 66
     1
 10
0.0
 20
0.0
 30
0.0
 70
     1
  0
VERTEX
  5
2A0
  8
0
 10
1058.959988565458
 20
1648.094316432954
 30
0.0
  0
VERTEX
  5
2A1
  8
0
 10
1048.115766119717
 20
1743.997908687476
 30
0.0
  0
VERTEX
  5
2A2
  8
0
 10
1077.937377845504
 20
1760.942006258946
 30
0.0
  0
VERTEX
  5
2A3
  8
0
 10
1105.725697862716
 20
1696.554435487359
 30
0.0
  0
VERTEX
  5
2A4
  8
0
 10
1105.047933959857
 20
1653.855309607254
 30
0.0
  0
SEQEND
  5
2A5
  8
0
  0
POLYLINE
  5
2A6
  8
0
 66
     1
 10
0.0
 20
0.0
 30
0.0
 70
     1
  0
VERTEX
  5
2A7
  8
0
 10
1045.249885183822
 20
1771.123006511361
 30
0.0
  0
VERTEX
  5
2A8
  8
0
 10
1074.73261495818
 20
1792.133687499984
 30
0.0
  0
VERTEX
  5
2A9
  8
0
 10
1065.921684221016
 20
1889.392807560224
 30
0.0
  0
VERTEX
  5
2AA
  8
0
 10
1024.916968098058
 20
1877.531939260195
 30
0.0
  0
SEQEND
  5
2AB
  8
0
  0
POLYLINE
  5
2AC
  8
0
 66
     1
 10
0.0
 20
0.0
 30
0.0
 70
     1
  0
VERTEX
  5
2AD
  8
0
 10
1019.52001089292
 20
2007.388083754362
 30
0.0
  0
VERTEX
  5
2AE
  8
0
 10
1090.643383415141
 20
2008.224829313447
 30
0.0
  0
VERTEX
  5
2AF
  8
0
 10
1102.776194021873
 20
1976.010125288677
 30
0.0
  0
VERTEX
  5
2B0
  8
0
 10
1070.979862776645
 20
1917.437936152729
 30
0.0
  0
VERTEX
  5
2B1
  8
0
 10
1040.438649870044
 20
1912.41746279822
 30
0.0
  0
VERTEX
  5
2B2
  8
0
 10
1011.989300861156
 20
1930.825865098089
 30
0.0
  0
SEQEND
  5
2B3
  8
0
  0
POLYLINE
  5
2B4
  8
0
 66
     1
 10
0.0
 20
0.0
 30
0.0
 70
     1
  0
VERTEX
  5
2B5
  8
0
 10
1129.658872806079
 20
1830.851561876222
 30
0.0
  0
VERTEX
  5
2B6
  8
0
 10
1084.056239835949
 20
1871.015348712299
 30
0.0
  0
VERTEX
  5
2B7
  8
0
 10
1097.025796001766
 20
1805.330822324131
 30
0.0
  0
SEQEND
  5
2B8
  8
0
  0
POLYLINE
  5
2B9
  8
0
 66
     1
 10
0.0
 20
0.0
 30
0.0
 70
     1
  0
VERTEX
  5
2BA
  8
0
 10
1097.862541560851
 20
1777.299846094785
 30
0.0
  0
VERTEX
  5
2BB
  8
0
 10
1145.557038428694
 20
1816.626887371777
 30
0.0
  0
VERTEX
  5
2BC
  8
0
 10
1182.373843028432
 20
1783.157065008379
 30
0.0
  0
VERTEX
  5
2BD
  8
0
 10
1157.689849035426
 20
1694.880408524917
 30
0.0
  0
VERTEX
  5
2BE
  8
0
 10
1122.9649083334
 20
1702.411118556681
 30
0.0
  0
SEQEND
  5
2BF
  8
0
  0
POLYLINE
  5
2C0
  8
0
 66
     1
 10
0.0
 20
0.0
 30
0.0
 70
     1
  0
VERTEX
  5
2C1
  8
0
 10
1175.679878555752
 20
1692.788544627204
 30
0.0
  0
VERTEX
  5
2C2
  8
0
 10
1256.844197786993
 20
1689.441562390864
 30
0.0
  0
VERTEX
  5
2C3
  8
0
 10
1268.977008393725
 20
1708.268337470276
 30
0.0
  0
VERTEX
  5
2C4
  8
0
 10
1197.016890312418
 20
1768.514017724392
 30
0.0
  0
SEQEND
  5
2C5
  8
0
  0
POLYLINE
  5
2C6
  8
0
 66
     1
 10
0.0
 20
0.0
 30
0.0
 70
     1
  0
VERTEX
  5
2C7
  8
0
 10
1218.772274848627
 20
1666.012686736486
 30
0.0
  0
VERTEX
  5
2C8
  8
0
 10
1192.414789737451
 20
1594.470941434722
 30
0.0
  0
VERTEX
  5
2C9
  8
0
 10
1120.873044435687
 20
1647.604284436617
 30
0.0
  0
VERTEX
  5
2CA
  8
0
 10
1122.546535553857
 20
1668.104550634198
 30
0.0
  0
SEQEND
  5
2CB
  8
0
  0
POLYLINE
  5
2CC
  8
0
 66
     1
 10
0.0
 20
0.0
 30
0.0
 70
     1
  0
VERTEX
  5
2CD
  8
0
 10
1182.792215807974
 20
1498.245202139952
 30
0.0
  0
VERTEX
  5
2CE
  8
0
 10
1243.874641621176
 20
1488.204255430933
 30
0.0
  0
VERTEX
  5
2CF
  8
0
 10
1268.977008393725
 20
1505.357539392175
 30
0.0
  0
VERTEX
  5
2D0
  8
0
 10
1206.221091462353
 20
1554.725527378187
 30
0.0
  0
SEQEND
  5
2D1
  8
0
  0
POLYLINE
  5
2D2
  8
0
 66
     1
 10
0.0
 20
0.0
 30
0.0
 70
     1
  0
VERTEX
  5
2D3
  8
0
 10
1212.078310375948
 20
1579.409521371193
 30
0.0
  0
VERTEX
  5
2D4
  8
0
 10
1237.180677148496
 20
1658.900349484264
 30
0.0
  0
VERTEX
  5
2D5
  8
0
 10
1252.242097212026
 20
1654.298248909296
 30
0.0
  0
VERTEX
  5
2D6
  8
0
 10
1298.263102961698
 20
1548.031562905507
 30
0.0
  0
VERTEX
  5
2D7
  8
0
 10
1281.946564559541
 20
1528.368042267011
 30
0.0
  0
SEQEND
  5
2D8
  8
0
  0
POLYLINE
  5
2D9
  8
0
 66
     1
 10
0.0
 20
0.0
 30
0.0
 70
     1
  0
VERTEX
  5
2DA
  8
0
 10
1313.742895804769
 20
1560.582746291781
 30
0.0
  0
VERTEX
  5
2DB
  8
0
 10
1327.130824750129
 20
1578.154403032565
 30
0.0
  0
VERTEX
  5
2DC
  8
0
 10
1317.089878041109
 20
1643.002183861649
 30
0.0
  0
VERTEX
  5
2DD
  8
0
 10
1283.620055677711
 20
1690.696680729492
 30
0.0
  0
VERTEX
  5
2DE
  8
0
 10
1273.160736189149
 20
1658.900349484264
 30
0.0
  0
SEQEND
  5
2DF
  8
0
  0
POLYLINE
  5
2E0
  8
0
 66
     1
 10
0.0
 20
0.0
 30
0.0
 70
     1
  0
VERTEX
  5
2E1
  8
0
 10
1324.541013570205
 20
1672.104780128515
 30
0.0
  0
VERTEX
  5
2E2
  8
0
 10
1332.226856228624
 20
1697.083768768377
 30
0.0
  0
VERTEX
  5
2E3
  8
0
 10
1306.698878827447
 20
1699.27972381364
 30
0.0
  0
SEQEND
  5
2E4
  8
0
  0
POLYLINE
  5
2E5
  8
0
 66
     1
 10
0.0
 20
0.0
 30
0.0
 70
     1
  0
VERTEX
  5
2E6
  8
0
 10
1343.481125835594
 20
1588.932982789196
 30
0.0
  0
VERTEX
  5
2E7
  8
0
 10
1390.968653689397
 20
1631.479611791158
 30
0.0
  0
VERTEX
  5
2E8
  8
0
 10
1362.695732481642
 20
1694.613319342457
 30
0.0
  0
VERTEX
  5
2E9
  8
0
 10
1335.24629441586
 20
1649.596240914574
 30
0.0
  0
SEQEND
  5
2EA
  8
0
  0
POLYLINE
  5
2EB
  8
0
 66
     1
 10
0.0
 20
0.0
 30
0.0
 70
     1
  0
VERTEX
  5
2EC
  8
0
 10
1388.498204263477
 20
1587.011522124591
 30
0.0
  0
VERTEX
  5
2ED
  8
0
 10
1312.463260821261
 20
1517.015455056848
 30
0.0
  0
VERTEX
  5
2EE
  8
0
 10
1373.950002088612
 20
1465.13601711252
 30
0.0
  0
VERTEX
  5
2EF
  8
0
 10
1396.458541302554
 20
1501.918264120668
 30
0.0
  0
SEQEND
  5
2F0
  8
0
  0
POLYLINE
  5
2F1
  8
0
 66
     1
 10
0.0
 20
0.0
 30
0.0
 70
     1
  0
VERTEX
  5
2F2
  8
0
 10
1475.222742671172
 20
1546.752913422324
 30
0.0
  0
VERTEX
  5
2F3
  8
0
 10
1420.323866539609
 20
1515.914655842248
 30
0.0
  0
VERTEX
  5
2F4
  8
0
 10
1410.835171899585
 20
1600.974025651029
 30
0.0
  0
SEQEND
  5
2F5
  8
0
  0
POLYLINE
  5
2F6
  8
0
 66
     1
 10
0.0
 20
0.0
 30
0.0
 70
     1
  0
VERTEX
  5
2F7
  8
0
 10
1559.829837878893
 20
1573.18563149922
 30
0.0
  0
VERTEX
  5
2F8
  8
0
 10
1498.329039286149
 20
1558.542584215233
 30
0.0
  0
VERTEX
  5
2F9
  8
0
 10
1497.910666506606
 20
1608.328944980788
 30
0.0
  0
VERTEX
  5
2FA
  8
0
 10
1548.115400051704
 20
1598.287998271769
 30
0.0
  0
SEQEND
  5
2FB
  8
0
  0
POLYLINE
  5
2FC
  8
0
 66
     1
 10
0.0
 20
0.0
 30
0.0
 70
     1
  0
VERTEX
  5
2FD
  8
0
 10
1474.90016363177
 20
1585.736814885494
 30
0.0
  0
VERTEX
  5
2FE
  8
0
 10
1473.645045293143
 20
1634.686430091964
 30
0.0
  0
VERTEX
  5
2FF
  8
0
 10
1447.705932961509
 20
1671.08486191216
 30
0.0
  0
VERTEX
  5
300
  8
0
 10
1391.643980502817
 20
1696.187228684708
 30
0.0
  0
VERTEX
  5
301
  8
0
 10
1423.021938968503
 20
1633.012938973794
 30
0.0
  0
SEQEND
  5
302
  8
0
  0
POLYLINE
  5
303
  8
0
 66
     1
 10
0.0
 20
0.0
 30
0.0
 70
     1
  0
VERTEX
  5
304
  8
0
 10
1559.131358815547
 20
1614.838744376013
 30
0.0
  0
VERTEX
  5
305
  8
0
 10
1565.845983672402
 20
1658.742060747754
 30
0.0
  0
VERTEX
  5
306
  8
0
 10
1561.713906837414
 20
1734.668972590648
 30
0.0
  0
VERTEX
  5
307
  8
0
 10
1479.072370137666
 20
1680.951973735811
 30
0.0
  0
VERTEX
  5
308
  8
0
 10
1496.633696686362
 20
1641.180734199057
 30
0.0
  0
SEQEND
  5
309
  8
0
  0
POLYLINE
  5
30A
  8
0
 66
     1
 10
0.0
 20
0.0
 30
0.0
 70
     1
  0
VERTEX
  5
30B
  8
0
 10
1495.27345394174
 20
1734.540680298019
 30
0.0
  0
VERTEX
  5
30C
  8
0
 10
1465.832406492455
 20
1699.418027200626
 30
0.0
  0
VERTEX
  5
30D
  8
0
 10
1398.169648319535
 20
1716.979353749323
 30
0.0
  0
VERTEX
  5
30E
  8
0
 10
1462.733348866214
 20
1803.236457679685
 30
0.0
  0
SEQEND
  5
30F
  8
0
  0
POLYLINE
  5
310
  8
0
 66
     1
 10
0.0
 20
0.0
 30
0.0
 70
     1
  0
VERTEX
  5
311
  8
0
 10
1435.874849438796
 20
1809.434572932166
 30
0.0
  0
VERTEX
  5
312
  8
0
 10
1380.091812166465
 20
1727.826055441164
 30
0.0
  0
VERTEX
  5
313
  8
0
 10
1366.146052848383
 20
1783.609092713495
 30
0.0
  0
VERTEX
  5
314
  8
0
 10
1397.136629110789
 20
1812.017120954034
 30
0.0
  0
SEQEND
  5
315
  8
0
  0
POLYLINE
  5
316
  8
0
 66
     1
 10
0.0
 20
0.0
 30
0.0
 70
     1
  0
VERTEX
  5
317
  8
0
 10
1358.914918387155
 20
1719.045392166816
 30
0.0
  0
VERTEX
  5
318
  8
0
 10
1286.087064170501
 20
1722.144449793057
 30
0.0
  0
VERTEX
  5
319
  8
0
 10
1254.063468699349
 20
1753.135026055463
 30
0.0
  0
VERTEX
  5
31A
  8
0
 10
1256.646016721216
 20
1800.137400053445
 30
0.0
  0
VERTEX
  5
31B
  8
0
 10
1336.188495794724
 20
1789.290698361603
 30
0.0
  0
SEQEND
  5
31C
  8
0
  0
POLYLINE
  5
31D
  8
0
 66
     1
 10
0.0
 20
0.0
 30
0.0
 70
     1
  0
VERTEX
  5
31E
  8
0
 10
1232.814263575426
 20
1771.698381236644
 30
0.0
  0
VERTEX
  5
31F
  8
0
 10
1242.01846472536
 20
1823.158233120368
 30
0.0
  0
VERTEX
  5
320
  8
0
 10
1219.844707409609
 20
1865.832256633701
 30
0.0
  0
VERTEX
  5
321
  8
0
 10
1173.405328880394
 20
1831.107315931675
 30
0.0
  0
SEQEND
  5
322
  8
0
  0
POLYLINE
  5
323
  8
0
 66
     1
 10
0.0
 20
0.0
 30
0.0
 70
     1
  0
VERTEX
  5
324
  8
0
 10
1154.996926580525
 20
1847.005481554289
 30
0.0
  0
VERTEX
  5
325
  8
0
 10
1088.475654633271
 20
1905.996043469779
 30
0.0
  0
VERTEX
  5
326
  8
0
 10
1119.435240319415
 20
1966.241723723896
 30
0.0
  0
VERTEX
  5
327
  8
0
 10
1187.211630605296
 20
1970.007078739778
 30
0.0
  0
VERTEX
  5
328
  8
0
 10
1216.916097952812
 20
1892.189741744877
 30
0.0
  0
SEQEND
  5
329
  8
0
  0
POLYLINE
  5
32A
  8
0
 66
     1
 10
0.0
 20
0.0
 30
0.0
 70
     1
  0
VERTEX
  5
32B
  8
0
 10
1178.905054027897
 20
2000.08674178139
 30
0.0
  0
VERTEX
  5
32C
  8
0
 10
1124.934965466918
 20
1996.321386765508
 30
0.0
  0
VERTEX
  5
32D
  8
0
 10
1112.383782080644
 20
2023.515617435768
 30
0.0
  0
VERTEX
  5
32E
  8
0
 10
1127.445202144173
 20
2066.189640949101
 30
0.0
  0
VERTEX
  5
32F
  8
0
 10
1151.710823357636
 20
2066.189640949101
 30
0.0
  0
SEQEND
  5
330
  8
0
  0
POLYLINE
  5
331
  8
0
 66
     1
 10
0.0
 20
0.0
 30
0.0
 70
     1
  0
VERTEX
  5
332
  8
0
 10
1223.304255536839
 20
1946.899140472907
 30
0.0
  0
VERTEX
  5
333
  8
0
 10
1244.641267293505
 20
2033.083933058657
 30
0.0
  0
VERTEX
  5
334
  8
0
 10
1178.956740905336
 20
2050.237217019899
 30
0.0
  0
SEQEND
  5
335
  8
0
  0
POLYLINE
  5
336
  8
0
 66
     1
 10
0.0
 20
0.0
 30
0.0
 70
     1
  0
VERTEX
  5
337
  8
0
 10
1248.82499508893
 20
1964.889169993233
 30
0.0
  0
VERTEX
  5
338
  8
0
 10
1266.396651829714
 20
2034.757424176827
 30
0.0
  0
VERTEX
  5
339
  8
0
 10
1300.284846972655
 20
2035.17579695637
 30
0.0
  0
VERTEX
  5
33A
  8
0
 10
1300.703219752197
 20
2000.450856254344
 30
0.0
  0
SEQEND
  5
33B
  8
0
  0
POLYLINE
  5
33C
  8
0
 66
     1
 10
0.0
 20
0.0
 30
0.0
 70
     1
  0
VERTEX
  5
33D
  8
0
 10
1308.652302563504
 20
1977.85872615905
 30
0.0
  0
VERTEX
  5
33E
  8
0
 10
1338.35676991102
 20
1938.9500576616
 30
0.0
  0
VERTEX
  5
33F
  8
0
 10
1296.519491956773
 20
1842.305945587288
 30
0.0
  0
VERTEX
  5
340
  8
0
 10
1263.049669593374
 20
1824.734288846503
 30
0.0
  0
VERTEX
  5
341
  8
0
 10
1237.528930041283
 20
1879.122750187025
 30
0.0
  0
VERTEX
  5
342
  8
0
 10
1247.15150397076
 20
1932.674465968462
 30
0.0
  0
SEQEND
  5
343
  8
0
  0
POLYLINE
  5
344
  8
0
 66
     1
 10
0.0
 20
0.0
 30
0.0
 70
     1
  0
VERTEX
  5
345
  8
0
 10
1387.08596113666
 20
2058.050384473645
 30
0.0
  0
VERTEX
  5
346
  8
0
 10
1397.252419679542
 20
2010.268029322099
 30
0.0
  0
VERTEX
  5
347
  8
0
 10
1379.291676253783
 20
1952.6580975791
 30
0.0
  0
VERTEX
  5
348
  8
0
 10
1360.653168925166
 20
1951.980333676241
 30
0.0
  0
VERTEX
  5
349
  8
0
 10
1321.342862559355
 20
1995.018341507775
 30
0.0
  0
VERTEX
  5
34A
  8
0
 10
1326.426091830796
 20
2038.05634933931
 30
0.0
  0
SEQEND
  5
34B
  8
0
  0
POLYLINE
  5
34C
  8
0
 66
     1
 10
0.0
 20
0.0
 30
0.0
 70
     1
  0
VERTEX
  5
34D
  8
0
 10
1310.498640113614
 20
1830.321713113084
 30
0.0
  0
VERTEX
  5
34E
  8
0
 10
1358.28099526516
 20
1922.158721950453
 30
0.0
  0
VERTEX
  5
34F
  8
0
 10
1371.497391370907
 20
1920.464312193306
 30
0.0
  0
VERTEX
  5
350
  8
0
 10
1383.358259670936
 20
1908.264561941847
 30
0.0
  0
VERTEX
  5
351
  8
0
 10
1390.135898699524
 20
1837.777116044531
 30
0.0
  0
VERTEX
  5
352
  8
0
 10
1354.553293799437
 20
1807.955504318743
 30
0.0
  0
VERTEX
  5
353
  8
0
 10
1316.259633287914
 20
1812.360969687325
 30
0.0
  0
SEQEND
  5
354
  8
0
  0
POLYLINE
  5
355
  8
0
 66
     1
 10
0.0
 20
0.0
 30
0.0
 70
     1
  0
VERTEX
  5
356
  8
0
 10
1456.15319564647
 20
1839.844699527174
 30
0.0
  0
VERTEX
  5
357
  8
0
 10
1412.776305863506
 20
1841.539109284322
 30
0.0
  0
VERTEX
  5
358
  8
0
 10
1408.031958543495
 20
1889.660346387297
 30
0.0
  0
VERTEX
  5
359
  8
0
 10
1456.830959549329
 20
1872.716248815827
 30
0.0
  0
SEQEND
  5
35A
  8
0
  0
POLYLINE
  5
35B
  8
0
 66
     1
 10
0.0
 20
0.0
 30
0.0
 70
     1
  0
VERTEX
  5
35C
  8
0
 10
1442.597917589294
 20
1908.298853715914
 30
0.0
  0
VERTEX
  5
35D
  8
0
 10
1477.502758586523
 20
1962.519965944619
 30
0.0
  0
VERTEX
  5
35E
  8
0
 10
1476.147230780805
 20
2018.435487930471
 30
0.0
  0
VERTEX
  5
35F
  8
0
 10
1425.653820017824
 20
1998.441452796137
 30
0.0
  0
VERTEX
  5
360
  8
0
 10
1395.832208292036
 20
1929.648416655967
 30
0.0
  0
SEQEND
  5
361
  8
0
  0
POLYLINE
  5
362
  8
0
 66
     1
 10
0.0
 20
0.0
 30
0.0
 70
     1
  0
VERTEX
  5
363
  8
0
 10
1505.368058233335
 20
2031.294940342782
 30
0.0
  0
VERTEX
  5
364
  8
0
 10
1533.156378250546
 20
1998.42339105413
 30
0.0
  0
VERTEX
  5
365
  8
0
 10
1497.234891399029
 20
1981.818175434089
 30
0.0
  0
SEQEND
  5
366
  8
0
  0
POLYLINE
  5
367
  8
0
 66
     1
 10
0.0
 20
0.0
 30
0.0
 70
     1
  0
VERTEX
  5
368
  8
0
 10
1501.97923871904
 20
1955.046501271166
 30
0.0
  0
VERTEX
  5
369
  8
0
 10
1547.728302162011
 20
1926.580417351096
 30
0.0
  0
VERTEX
  5
36A
  8
0
 10
1542.645072890569
 20
1909.636319779625
 30
0.0
  0
VERTEX
  5
36B
  8
0
 10
1466.396633818953
 20
1898.792097333884
 30
0.0
  0
SEQEND
  5
36C
  8
0
  0
POLYLINE
  5
36D
  8
0
 66
     1
 10
0.0
 20
0.0
 30
0.0
 70
     1
  0
VERTEX
  5
36E
  8
0
 10
1478.935266021841
 20
1865.581666093802
 30
0.0
  0
VERTEX
  5
36F
  8
0
 10
1477.918620167552
 20
1820.510366553691
 30
0.0
  0
VERTEX
  5
370
  8
0
 10
1516.551162630505
 20
1739.517580162063
 30
0.0
  0
VERTEX
  5
371
  8
0
 10
1560.605816316327
 20
1765.950372373557
 30
0.0
  0
VERTEX
  5
372
  8
0
 10
1555.522587044887
 20
1885.575701228137
 30
0.0
  0
SEQEND
  5
373
  8
0
  0
POLYLINE
  5
374
  8
0
 66
     1
 10
0.0
 20
0.0
 30
0.0
 70
     1
  0
VERTEX
  5
375
  8
0
 10
1614.168392561411
 20
-89.5895054675126
 30
0.0
  0
VERTEX
  5
376
  8
0
 10
1577.982541989534
 20
-114.3278879218593
 30
0.0
  0
VERTEX
  5
377
  8
0
 10
1580.015833698111
 20
-166.2206271616129
 30
0.0
  0
VERTEX
  5
378
  8
0
 10
1614.168392561411
 20
-166.2206271616129
 30
0.0
  0
SEQEND
  5
379
  8
0
  0
POLYLINE
  5
37A
  8
0
 66
     1
 10
0.0
 20
0.0
 30
0.0
 70
     1
  0
VERTEX
  5
37B
  8
0
 10
1614.168392561411
 20
2037.722909348179
 30
0.0
  0
VERTEX
  5
37C
  8
0
 10
1614.168392561411
 20
2131.647402772124
 30
0.0
  0
VERTEX
  5
37D
  8
0
 10
1601.677948865936
 20
2131.647402772124
 30
0.0
  0
VERTEX
  5
37E
  8
0
 10
1556.606649325824
 20
2029.250860562444
 30
0.0
  0
VERTEX
  5
37F
  8
0
 10
1567.450871771565
 20
2009.595707379538
 30
0.0
  0
SEQEND
  5
380
  8
0
  0
POLYLINE
  5
381
  8
0
 66
     1
 10
0.0
 20
0.0
 30
0.0
 70
     1
  0
VERTEX
  5
382
  8
0
 10
1014.183514913866
 20
-67.14504214233386
 30
0.0
  0
VERTEX
  5
383
  8
0
 10
1049.362154549839
 20
-83.4194749465197
 30
0.0
  0
VERTEX
  5
384
  8
0
 10
1072.605086746643
 20
-76.18834048529186
 30
0.0
  0
VERTEX
  5
385
  8
0
 10
1103.595663009048
 20
-16.78973598234768
 30
0.0
  0
VERTEX
  5
386
  8
0
 10
1092.748961317206
 20
9.035744236323694
 30
0.0
  0
VERTEX
  5
387
  8
0
 10
1014.183514913866
 20
9.035744236323694
 30
0.0
  0
SEQEND
  5
388
  8
0
  0
POLYLINE
  5
389
  8
0
 66
     1
 10
0.0
 20
0.0
 30
0.0
 70
     1
  0
VERTEX
  5
38A
  8
0
 10
1181.239099074515
 20
-32.33224263583418
 30
0.0
  0
VERTEX
  5
38B
  8
0
 10
1155.246623446391
 20
-37.45012015728469
 30
0.0
  0
VERTEX
  5
38C
  8
0
 10
1149.04850819391
 20
-139.2025122188498
 30
0.0
  0
VERTEX
  5
38D
  8
0
 10
1206.426014559257
 20
-102.5822627233366
 30
0.0
  0
SEQEND
  5
38E
  8
0
  0
POLYLINE
  5
38F
  8
0
 66
     1
 10
0.0
 20
0.0
 30
0.0
 70
     1
  0
VERTEX
  5
390
  8
0
 10
1173.152023997292
 20
-9.776198130574699
 30
0.0
  0
VERTEX
  5
391
  8
0
 10
1148.123180610931
 20
60.03293557315544
 30
0.0
  0
VERTEX
  5
392
  8
0
 10
1113.205292315107
 20
19.1810131321032
 30
0.0
  0
VERTEX
  5
393
  8
0
 10
1124.683283523405
 20
-8.876298710404058
 30
0.0
  0
SEQEND
  5
394
  8
0
  0
POLYLINE
  5
395
  8
0
 66
     1
 10
0.0
 20
0.0
 30
0.0
 70
     1
  0
VERTEX
  5
396
  8
0
 10
1138.234679456438
 20
87.61342295595011
 30
0.0
  0
VERTEX
  5
397
  8
0
 10
1101.727301106809
 20
189.4378827218626
 30
0.0
  0
VERTEX
  5
398
  8
0
 10
1048.16334213475
 20
172.8585620876539
 30
0.0
  0
VERTEX
  5
399
  8
0
 10
1115.755957028062
 20
63.17997943058037
 30
0.0
  0
SEQEND
  5
39A
  8
0
  0
POLYLINE
  5
39B
  8
0
 66
     1
 10
0.0
 20
0.0
 30
0.0
 70
     1
  0
VERTEX
  5
39C
  8
0
 10
953.3447344954543
 20
2051.163427751927
 30
0.0
  0
VERTEX
  5
39D
  8
0
 10
967.2300625506623
 20
2051.163427751927
 30
0.0
  0
VERTEX
  5
39E
  8
0
 10
987.686776141893
 20
2131.647402772124
 30
0.0
  0
VERTEX
  5
39F
  8
0
 10
953.3447344954543
 20
2131.647402772124
 30
0.0
  0
SEQEND
  5
3A0
  8
0
  0
POLYLINE
  5
3A1
  8
0
 66
     1
 10
0.0
 20
0.0
 30
0.0
 70
     1
  0
VERTEX
  5
3A2
  8
0
 10
953.3447344954543
 20
-135.5869449882344
 30
0.0
  0
VERTEX
  5
3A3
  8
0
 10
953.3447344954543
 20
-166.2206271616129
 30
0.0
  0
VERTEX
  5
3A4
  8
0
 10
1070.53904832915
 20
-166.2206271616129
 30
0.0
  0
VERTEX
  5
3A5
  8
0
 10
1059.692346637307
 20
-111.3109935826848
 30
0.0
  0
SEQEND
  5
3A6
  8
0
  0
POLYLINE
  5
3A7
  8
0
 66
     1
 10
0.0
 20
0.0
 30
0.0
 70
     1
  0
VERTEX
  5
3A8
  8
0
 10
1184.793309842343
 20
765.888294744363
 30
0.0
  0
VERTEX
  5
3A9
  8
0
 10
1155.913249209552
 20
684.8088463363109
 30
0.0
  0
VERTEX
  5
3AA
  8
0
 10
1124.21469347057
 20
687.2852960034189
 30
0.0
  0
VERTEX
  5
3AB
  8
0
 10
1100.455251669392
 20
762.6956982419393
 30
0.0
  0
VERTEX
  5
3AC
  8
0
 10
1151.073192897988
 20
796.7853321305856
 30
0.0
  0
SEQEND
  5
3AD
  8
0
  0
POLYLINE
  5
3AE
  8
0
 66
     1
 10
0.0
 20
0.0
 30
0.0
 70
     1
  0
VERTEX
  5
3AF
  8
0
 10
1176.485957552382
 20
683.2016034970273
 30
0.0
  0
VERTEX
  5
3B0
  8
0
 10
1199.789535604888
 20
752.1475669526357
 30
0.0
  0
VERTEX
  5
3B1
  8
0
 10
1262.122757838275
 20
695.0329400690204
 30
0.0
  0
VERTEX
  5
3B2
  8
0
 10
1256.441152190167
 20
676.9551039159504
 30
0.0
  0
SEQEND
  5
3B3
  8
0
  0
POLYLINE
  5
3B4
  8
0
 66
     1
 10
0.0
 20
0.0
 30
0.0
 70
     1
  0
VERTEX
  5
3B5
  8
0
 10
1614.16839256141
 20
-8.596719075884835
 30
0.0
  0
VERTEX
  5
3B6
  8
0
 10
1574.254840523811
 20
-35.70727519023728
 30
0.0
  0
VERTEX
  5
3B7
  8
0
 10
1570.866021009517
 20
25.2914760670559
 30
0.0
  0
VERTEX
  5
3B8
  8
0
 10
1614.168392561411
 20
63.5851365785785
 30
0.0
  0
SEQEND
  5
3B9
  8
0
  0
POLYLINE
  5
3BA
  8
0
 66
     1
 10
0.0
 20
0.0
 30
0.0
 70
     1
  0
VERTEX
  5
3BB
  8
0
 10
1453.490246434865
 20
-166.2206271616129
 30
0.0
  0
VERTEX
  5
3BC
  8
0
 10
1451.398382537152
 20
-122.771528679354
 30
0.0
  0
VERTEX
  5
3BD
  8
0
 10
1406.632495126108
 20
-103.9447535999426
 30
0.0
  0
VERTEX
  5
3BE
  8
0
 10
1406.632495126108
 20
-166.2206271616129
 30
0.0
  0
SEQEND
  5
3BF
  8
0
  0
POLYLINE
  5
3C0
  8
0
 66
     1
 10
0.0
 20
0.0
 30
0.0
 70
     1
  0
VERTEX
  5
3C1
  8
0
 10
1384.458737810357
 20
-166.2206271616129
 30
0.0
  0
VERTEX
  5
3C2
  8
0
 10
1389.060838385324
 20
-95.9956707886355
 30
0.0
  0
VERTEX
  5
3C3
  8
0
 10
1364.376844392318
 20
-78.42401404785153
 30
0.0
  0
VERTEX
  5
3C4
  8
0
 10
1307.478146374541
 20
-166.2206271616129
 30
0.0
  0
SEQEND
  5
3C5
  8
0
  0
POLYLINE
  5
3C6
  8
0
 66
     1
 10
0.0
 20
0.0
 30
0.0
 70
     1
  0
VERTEX
  5
3C7
  8
0
 10
1276.93693346794
 20
-166.2206271616129
 30
0.0
  0
VERTEX
  5
3C8
  8
0
 10
1343.876578194736
 20
-60.85235730706756
 30
0.0
  0
VERTEX
  5
3C9
  8
0
 10
1303.294418579116
 20
-25.70904382549941
 30
0.0
  0
VERTEX
  5
3CA
  8
0
 10
1248.487584459052
 20
-65.87283066157727
 30
0.0
  0
VERTEX
  5
3CB
  8
0
 10
1233.844537175066
 20
-105.19987193857
 30
0.0
  0
VERTEX
  5
3CC
  8
0
 10
1255.181548931732
 20
-166.2206271616129
 30
0.0
  0
SEQEND
  5
3CD
  8
0
  0
POLYLINE
  5
3CE
  8
0
 66
     1
 10
0.0
 20
0.0
 30
0.0
 70
     1
  0
VERTEX
  5
3CF
  8
0
 10
953.3447344954543
 20
37.95845931884162
 30
0.0
  0
VERTEX
  5
3D0
  8
0
 10
993.2249585215104
 20
38.79520487792627
 30
0.0
  0
VERTEX
  5
3D1
  8
0
 10
966.0307278512496
 20
104.0613584865526
 30
0.0
  0
VERTEX
  5
3D2
  8
0
 10
953.3447344954543
 20
104.0613584865526
 30
0.0
  0
SEQEND
  5
3D3
  8
0
  0
POLYLINE
  5
3D4
  8
0
 66
     1
 10
0.0
 20
0.0
 30
0.0
 70
     1
  0
VERTEX
  5
3D5
  8
0
 10
1614.168392561411
 20
137.7159162520865
 30
0.0
  0
VERTEX
  5
3D6
  8
0
 10
1569.646866556184
 20
196.2881053880332
 30
0.0
  0
VERTEX
  5
3D7
  8
0
 10
1599.769706683242
 20
279.1259157374435
 30
0.0
  0
VERTEX
  5
3D8
  8
0
 10
1614.168392561411
 20
279.1259157374435
 30
0.0
  0
SEQEND
  5
3D9
  8
0
  0
POLYLINE
  5
3DA
  8
0
 66
     1
 10
0.0
 20
0.0
 30
0.0
 70
     1
  0
VERTEX
  5
3DB
  8
0
 10
1614.168392561411
 20
318.0345842348942
 30
0.0
  0
VERTEX
  5
3DC
  8
0
 10
1593.912487769647
 20
320.9631936916913
 30
0.0
  0
VERTEX
  5
3DD
  8
0
 10
1526.136097483766
 20
413.8419507501213
 30
0.0
  0
VERTEX
  5
3DE
  8
0
 10
1568.810120997099
 20
442.7096725385521
 30
0.0
  0
VERTEX
  5
3DF
  8
0
 10
1614.168392561411
 20
393.3416845525393
 30
0.0
  0
SEQEND
  5
3E0
  8
0
  0
POLYLINE
  5
3E1
  8
0
 66
     1
 10
0.0
 20
0.0
 30
0.0
 70
     1
  0
VERTEX
  5
3E2
  8
0
 10
1614.168392561411
 20
440.6178086408401
 30
0.0
  0
VERTEX
  5
3E3
  8
0
 10
1590.98387831285
 20
468.2304120906432
 30
0.0
  0
VERTEX
  5
3E4
  8
0
 10
1614.168392561411
 20
497.0981338790745
 30
0.0
  0
SEQEND
  5
3E5
  8
0
  0
POLYLINE
  5
3E6
  8
0
 66
     1
 10
0.0
 20
0.0
 30
0.0
 70
     1
  0
VERTEX
  5
3E7
  8
0
 10
1614.168392561411
 20
543.1191396287464
 30
0.0
  0
VERTEX
  5
3E8
  8
0
 10
1577.052064754085
 20
567.2676164639385
 30
0.0
  0
VERTEX
  5
3E9
  8
0
 10
1578.746474511232
 20
603.1891033154556
 30
0.0
  0
VERTEX
  5
3EA
  8
0
 10
1614.168392561411
 20
633.3495969926727
 30
0.0
  0
SEQEND
  5
3EB
  8
0
  0
POLYLINE
  5
3EC
  8
0
 66
     1
 10
0.0
 20
0.0
 30
0.0
 70
     1
  0
VERTEX
  5
3ED
  8
0
 10
1614.168392561411
 20
663.5100906698896
 30
0.0
  0
VERTEX
  5
3EE
  8
0
 10
1551.97480034831
 20
625.2164301583667
 30
0.0
  0
VERTEX
  5
3EF
  8
0
 10
1493.009340799593
 20
636.3995345555371
 30
0.0
  0
VERTEX
  5
3F0
  8
0
 10
1476.743007130981
 20
669.2710838441895
 30
0.0
  0
VERTEX
  5
3F1
  8
0
 10
1586.20187744268
 20
746.5361687700943
 30
0.0
  0
VERTEX
  5
3F2
  8
0
 10
1614.168392561411
 20
724.5088419271825
 30
0.0
  0
SEQEND
  5
3F3
  8
0
  0
POLYLINE
  5
3F4
  8
0
 66
     1
 10
0.0
 20
0.0
 30
0.0
 70
     1
  0
VERTEX
  5
3F5
  8
0
 10
1614.168392561411
 20
758.7824246535978
 30
0.0
  0
VERTEX
  5
3F6
  8
0
 10
1564.73981616013
 20
891.9630315653549
 30
0.0
  0
VERTEX
  5
3F7
  8
0
 10
1614.168392561411
 20
868.2412949652969
 30
0.0
  0
SEQEND
  5
3F8
  8
0
  0
POLYLINE
  5
3F9
  8
0
 66
     1
 10
0.0
 20
0.0
 30
0.0
 70
     1
  0
VERTEX
  5
3FA
  8
0
 10
1614.168392561411
 20
901.7906081568078
 30
0.0
  0
VERTEX
  5
3FB
  8
0
 10
1575.584038605871
 20
933.9843935426013
 30
0.0
  0
VERTEX
  5
3FC
  8
0
 10
1582.700559585889
 20
1018.704881399953
 30
0.0
  0
VERTEX
  5
3FD
  8
0
 10
1614.168392561411
 20
1042.426618000012
 30
0.0
  0
SEQEND
  5
3FE
  8
0
  0
POLYLINE
  5
3FF
  8
0
 66
     1
 10
0.0
 20
0.0
 30
0.0
 70
     1
  0
VERTEX
  5
400
  8
0
 10
1614.168392561411
 20
1074.959285337235
 30
0.0
  0
VERTEX
  5
401
  8
0
 10
1581.683913731601
 20
1047.848729222882
 30
0.0
  0
VERTEX
  5
402
  8
0
 10
1508.485412222849
 20
1052.931958494323
 30
0.0
  0
VERTEX
  5
403
  8
0
 10
1515.601933202866
 20
1119.691702925916
 30
0.0
  0
VERTEX
  5
404
  8
0
 10
1554.573357617248
 20
1162.729710757451
 30
0.0
  0
VERTEX
  5
405
  8
0
 10
1614.168392561411
 20
1118.675057071628
 30
0.0
  0
SEQEND
  5
406
  8
0
  0
POLYLINE
  5
407
  8
0
 66
     1
 10
0.0
 20
0.0
 30
0.0
 70
     1
  0
VERTEX
  5
408
  8
0
 10
1614.168392561411
 20
1148.835550748845
 30
0.0
  0
VERTEX
  5
409
  8
0
 10
1576.26180250873
 20
1179.673808328921
 30
0.0
  0
VERTEX
  5
40A
  8
0
 10
1614.168392561411
 20
1214.57864932615
 30
0.0
  0
SEQEND
  5
40B
  8
0
  0
POLYLINE
  5
40C
  8
0
 66
     1
 10
0.0
 20
0.0
 30
0.0
 70
     1
  0
VERTEX
  5
40D
  8
0
 10
1614.168392561411
 20
1246.094670809085
 30
0.0
  0
VERTEX
  5
40E
  8
0
 10
1565.07869811156
 20
1207.123246394703
 30
0.0
  0
VERTEX
  5
40F
  8
0
 10
1527.462801502896
 20
1240.333677634785
 30
0.0
  0
VERTEX
  5
410
  8
0
 10
1543.051371268648
 20
1359.959006489365
 30
0.0
  0
VERTEX
  5
411
  8
0
 10
1614.168392561411
 20
1324.037519637849
 30
0.0
  0
SEQEND
  5
412
  8
0
  0
POLYLINE
  5
413
  8
0
 66
     1
 10
0.0
 20
0.0
 30
0.0
 70
     1
  0
VERTEX
  5
414
  8
0
 10
1614.168392561411
 20
1358.942360635077
 30
0.0
  0
VERTEX
  5
415
  8
0
 10
1554.912239568678
 20
1387.069562603718
 30
0.0
  0
VERTEX
  5
416
  8
0
 10
1543.051371268648
 20
1404.013660175188
 30
0.0
  0
VERTEX
  5
417
  8
0
 10
1614.168392561411
 20
1437.901855318129
 30
0.0
  0
SEQEND
  5
418
  8
0
  0
POLYLINE
  5
419
  8
0
 66
     1
 10
0.0
 20
0.0
 30
0.0
 70
     1
  0
VERTEX
  5
41A
  8
0
 10
1614.168392561411
 20
1463.318001675335
 30
0.0
  0
VERTEX
  5
41B
  8
0
 10
1525.42950979432
 20
1420.957757746659
 30
0.0
  0
VERTEX
  5
41C
  8
0
 10
1480.019328302779
 20
1510.761474875452
 30
0.0
  0
VERTEX
  5
41D
  8
0
 10
1504.079946854267
 20
1530.416628058357
 30
0.0
  0
VERTEX
  5
41E
  8
0
 10
1571.178573237289
 20
1552.105072949839
 30
0.0
  0
VERTEX
  5
41F
  8
0
 10
1614.168392561411
 20
1491.445203643975
 30
0.0
  0
SEQEND
  5
420
  8
0
  0
POLYLINE
  5
421
  8
0
 66
     1
 10
0.0
 20
0.0
 30
0.0
 70
     1
  0
VERTEX
  5
422
  8
0
 10
1614.168392561411
 20
1530.755510009786
 30
0.0
  0
VERTEX
  5
423
  8
0
 10
1581.006149828742
 20
1589.382087607074
 30
0.0
  0
VERTEX
  5
424
  8
0
 10
1590.494844468765
 20
1635.808914952903
 30
0.0
  0
VERTEX
  5
425
  8
0
 10
1614.168392561411
 20
1628.014630070026
 30
0.0
  0
SEQEND
  5
426
  8
0
  0
POLYLINE
  5
427
  8
0
 66
     1
 10
0.0
 20
0.0
 30
0.0
 70
     1
  0
VERTEX
  5
428
  8
0
 10
1614.168392561411
 20
1656.141832038667
 30
0.0
  0
VERTEX
  5
429
  8
0
 10
1591.511490323053
 20
1665.63052667869
 30
0.0
  0
VERTEX
  5
42A
  8
0
 10
1587.78378885733
 20
1751.028778438901
 30
0.0
  0
VERTEX
  5
42B
  8
0
 10
1614.168392561411
 20
1769.328403816089
 30
0.0
  0
SEQEND
  5
42C
  8
0
  0
POLYLINE
  5
42D
  8
0
 66
     1
 10
0.0
 20
0.0
 30
0.0
 70
     1
  0
VERTEX
  5
42E
  8
0
 10
1614.168392561411
 20
1797.45560578473
 30
0.0
  0
VERTEX
  5
42F
  8
0
 10
1579.311740071595
 20
1781.189272116118
 30
0.0
  0
VERTEX
  5
430
  8
0
 10
1579.989503974454
 20
1889.970378524958
 30
0.0
  0
VERTEX
  5
431
  8
0
 10
1614.168392561411
 20
1889.970378524958
 30
0.0
  0
SEQEND
  5
432
  8
0
  0
POLYLINE
  5
433
  8
0
 66
     1
 10
0.0
 20
0.0
 30
0.0
 70
     1
  0
VERTEX
  5
434
  8
0
 10
1498.996717582825
 20
2131.647402772124
 30
0.0
  0
VERTEX
  5
435
  8
0
 10
1487.813613185655
 20
2050.261541551067
 30
0.0
  0
VERTEX
  5
436
  8
0
 10
1422.729242549739
 20
2023.126050419054
 30
0.0
  0
VERTEX
  5
437
  8
0
 10
1410.10250103948
 20
2067.59414008562
 30
0.0
  0
VERTEX
  5
438
  8
0
 10
1441.120366053813
 20
2131.647402772124
 30
0.0
  0
SEQEND
  5
439
  8
0
  0
POLYLINE
  5
43A
  8
0
 66
     1
 10
0.0
 20
0.0
 30
0.0
 70
     1
  0
VERTEX
  5
43B
  8
0
 10
1410.651489800795
 20
2131.647402772124
 30
0.0
  0
VERTEX
  5
43C
  8
0
 10
1384.84901801896
 20
2082.142342260485
 30
0.0
  0
VERTEX
  5
43D
  8
0
 10
1292.20873344487
 20
2055.445975197879
 30
0.0
  0
VERTEX
  5
43E
  8
0
 10
1279.657550058595
 20
2077.619732513631
 30
0.0
  0
VERTEX
  5
43F
  8
0
 10
1295.555715681209
 20
2131.647402772124
 30
0.0
  0
SEQEND
  5
440
  8
0
  0
POLYLINE
  5
441
  8
0
 66
     1
 10
0.0
 20
0.0
 30
0.0
 70
     1
  0
VERTEX
  5
442
  8
0
 10
1274.218703924543
 20
2131.647402772124
 30
0.0
  0
VERTEX
  5
443
  8
0
 10
1252.044946608792
 20
2060.048075772846
 30
0.0
  0
VERTEX
  5
444
  8
0
 10
1165.023408463956
 20
2092.68115257716
 30
0.0
  0
VERTEX
  5
445
  8
0
 10
1163.349917345786
 20
2115.691655451996
 30
0.0
  0
VERTEX
  5
446
  8
0
 10
1190.544148016048
 20
2131.647402772124
 30
0.0
  0
SEQEND
  5
447
  8
0
  0
POLYLINE
  5
448
  8
0
 66
     1
 10
0.0
 20
0.0
 30
0.0
 70
     1
  0
VERTEX
  5
449
  8
0
 10
1128.206603864218
 20
2131.647402772124
 30
0.0
  0
VERTEX
  5
44A
  8
0
 10
1140.507809514716
 20
2120.804965726286
 30
0.0
  0
VERTEX
  5
44B
  8
0
 10
1139.9588207534
 20
2094.179010802478
 30
0.0
  0
VERTEX
  5
44C
  8
0
 10
1116.626798397486
 20
2088.689123189321
 30
0.0
  0
VERTEX
  5
44D
  8
0
 10
1078.746573866707
 20
2131.647402772124
 30
0.0
  0
SEQEND
  5
44E
  8
0
  0
POLYLINE
  5
44F
  8
0
 66
     1
 10
0.0
 20
0.0
 30
0.0
 70
     1
  0
VERTEX
  5
450
  8
0
 10
953.3447344954543
 20
1927.640956455908
 30
0.0
  0
VERTEX
  5
451
  8
0
 10
999.3459050876272
 20
1906.504889145256
 30
0.0
  0
VERTEX
  5
452
  8
0
 10
953.3447344954543
 20
1886.192304976577
 30
0.0
  0
SEQEND
  5
453
  8
0
  0
POLYLINE
  5
454
  8
0
 66
     1
 10
0.0
 20
0.0
 30
0.0
 70
     1
  0
VERTEX
  5
455
  8
0
 10
953.3447344954543
 20
1864.232754523951
 30
0.0
  0
VERTEX
  5
456
  8
0
 10
1005.110287081442
 20
1874.938035369606
 30
0.0
  0
VERTEX
  5
457
  8
0
 10
1025.148376869462
 20
1771.453653861608
 30
0.0
  0
VERTEX
  5
458
  8
0
 10
953.3447344954541
 20
1793.96219307555
 30
0.0
  0
SEQEND
  5
459
  8
0
  0
POLYLINE
  5
45A
  8
0
 66
     1
 10
0.0
 20
0.0
 30
0.0
 70
     1
  0
VERTEX
  5
45B
  8
0
 10
953.3447344954543
 20
1764.316799964505
 30
0.0
  0
VERTEX
  5
45C
  8
0
 10
1012.247140978545
 20
1747.572642744378
 30
0.0
  0
VERTEX
  5
45D
  8
0
 10
953.3447344954543
 20
1700.634103651891
 30
0.0
  0
SEQEND
  5
45E
  8
0
  0
POLYLINE
  5
45F
  8
0
 66
     1
 10
0.0
 20
0.0
 30
0.0
 70
     1
  0
VERTEX
  5
460
  8
0
 10
953.3447344954543
 20
1666.596800450322
 30
0.0
  0
VERTEX
  5
461
  8
0
 10
1028.716803818014
 20
1725.338597911095
 30
0.0
  0
VERTEX
  5
462
  8
0
 10
1042.441522850905
 20
1599.345677189156
 30
0.0
  0
VERTEX
  5
463
  8
0
 10
953.3447344954543
 20
1629.540059061516
 30
0.0
  0
SEQEND
  5
464
  8
0
  0
POLYLINE
  5
465
  8
0
 66
     1
 10
0.0
 20
0.0
 30
0.0
 70
     1
  0
VERTEX
  5
466
  8
0
 10
953.3447344954543
 20
1605.933542324944
 30
0.0
  0
VERTEX
  5
467
  8
0
 10
1018.286017353017
 20
1578.484104259162
 30
0.0
  0
VERTEX
  5
468
  8
0
 10
953.3447344954543
 20
1543.897812296276
 30
0.0
  0
SEQEND
  5
469
  8
0
  0
POLYLINE
  5
46A
  8
0
 66
     1
 10
0.0
 20
0.0
 30
0.0
 70
     1
  0
VERTEX
  5
46B
  8
0
 10
953.3447344954543
 20
1523.036239366282
 30
0.0
  0
VERTEX
  5
46C
  8
0
 10
983.6997253901316
 20
1533.467025831279
 30
0.0
  0
VERTEX
  5
46D
  8
0
 10
970.5239951185563
 20
1423.120284806836
 30
0.0
  0
VERTEX
  5
46E
  8
0
 10
953.3447344954545
 20
1397.043318644342
 30
0.0
  0
SEQEND
  5
46F
  8
0
  0
POLYLINE
  5
470
  8
0
 66
     1
 10
0.0
 20
0.0
 30
0.0
 70
     1
  0
VERTEX
  5
471
  8
0
 10
953.3447344954543
 20
1355.86916154567
 30
0.0
  0
VERTEX
  5
472
  8
0
 10
981.2292759642112
 20
1390.455453508555
 30
0.0
  0
VERTEX
  5
473
  8
0
 10
991.3855680485506
 20
1378.377700759611
 30
0.0
  0
VERTEX
  5
474
  8
0
 10
982.0527591061846
 20
1241.679499192017
 30
0.0
  0
VERTEX
  5
475
  8
0
 10
953.3447344954543
 20
1254.031746321619
 30
0.0
  0
SEQEND
  5
476
  8
0
  0
POLYLINE
  5
477
  8
0
 66
     1
 10
0.0
 20
0.0
 30
0.0
 70
     1
  0
VERTEX
  5
478
  8
0
 10
953.3447344954543
 20
1224.189801678745
 30
0.0
  0
VERTEX
  5
479
  8
0
 10
1004.781571588555
 20
1174.374154818622
 30
0.0
  0
VERTEX
  5
47A
  8
0
 10
971.5711403484731
 20
1130.997265035658
 30
0.0
  0
VERTEX
  5
47B
  8
0
 10
953.3447344954543
 20
1130.997265035658
 30
0.0
  0
SEQEND
  5
47C
  8
0
  0
POLYLINE
  5
47D
  8
0
 66
     1
 10
0.0
 20
0.0
 30
0.0
 70
     1
  0
VERTEX
  5
47E
  8
0
 10
953.3447344954543
 20
1106.936646484171
 30
0.0
  0
VERTEX
  5
47F
  8
0
 10
972.5877862027612
 20
1106.258882581312
 30
0.0
  0
VERTEX
  5
480
  8
0
 10
992.9207032885256
 20
1031.704853266842
 30
0.0
  0
VERTEX
  5
481
  8
0
 10
953.3447344954543
 20
1031.704853266842
 30
0.0
  0
SEQEND
  5
482
  8
0
  0
POLYLINE
  5
483
  8
0
 66
     1
 10
0.0
 20
0.0
 30
0.0
 70
     1
  0
VERTEX
  5
484
  8
0
 10
953.3447344954543
 20
1011.033054229648
 30
0.0
  0
VERTEX
  5
485
  8
0
 10
993.5984671913843
 20
1009.338644472501
 30
0.0
  0
VERTEX
  5
486
  8
0
 10
990.5485296285196
 20
926.6514483237261
 30
0.0
  0
VERTEX
  5
487
  8
0
 10
953.3447344954543
 20
947.6280562179014
 30
0.0
  0
SEQEND
  5
488
  8
0
  0
POLYLINE
  5
489
  8
0
 66
     1
 10
0.0
 20
0.0
 30
0.0
 70
     1
  0
VERTEX
  5
48A
  8
0
 10
953.3447344954543
 20
917.501635635132
 30
0.0
  0
VERTEX
  5
48B
  8
0
 10
990.8874115799492
 20
893.1021351322148
 30
0.0
  0
VERTEX
  5
48C
  8
0
 10
953.3447344954543
 20
874.8025097550268
 30
0.0
  0
SEQEND
  5
48D
  8
0
  0
POLYLINE
  5
48E
  8
0
 66
     1
 10
0.0
 20
0.0
 30
0.0
 70
     1
  0
VERTEX
  5
48F
  8
0
 10
953.3447344954543
 20
852.4363009606858
 30
0.0
  0
VERTEX
  5
490
  8
0
 10
1002.748279879978
 20
865.6526970664329
 30
0.0
  0
VERTEX
  5
491
  8
0
 10
1018.67573159716
 20
753.4827711432991
 30
0.0
  0
VERTEX
  5
492
  8
0
 10
953.3447344954543
 20
784.9987926262337
 30
0.0
  0
SEQEND
  5
493
  8
0
  0
POLYLINE
  5
494
  8
0
 66
     1
 10
0.0
 20
0.0
 30
0.0
 70
     1
  0
VERTEX
  5
495
  8
0
 10
953.3447344954543
 20
750.4328335804346
 30
0.0
  0
VERTEX
  5
496
  8
0
 10
990.2096476770905
 20
729.4221525918113
 30
0.0
  0
VERTEX
  5
497
  8
0
 10
953.3447344954543
 20
698.9227769631647
 30
0.0
  0
SEQEND
  5
498
  8
0
  0
POLYLINE
  5
499
  8
0
 66
     1
 10
0.0
 20
0.0
 30
0.0
 70
     1
  0
VERTEX
  5
49A
  8
0
 10
953.3447344954543
 20
592.8527261657601
 30
0.0
  0
VERTEX
  5
49B
  8
0
 10
1016.981321840014
 20
572.519809079996
 30
0.0
  0
VERTEX
  5
49C
  8
0
 10
953.3447344954543
 20
546.764780771361
 30
0.0
  0
SEQEND
  5
49D
  8
0
  0
POLYLINE
  5
49E
  8
0
 66
     1
 10
0.0
 20
0.0
 30
0.0
 70
     1
  0
VERTEX
  5
49F
  8
0
 10
953.3447344954543
 20
520.5793723844107
 30
0.0
  0
VERTEX
  5
4A0
  8
0
 10
977.6947372108023
 20
526.8927431395406
 30
0.0
  0
VERTEX
  5
4A1
  8
0
 10
970.557883313699
 20
453.6027435039028
 30
0.0
  0
VERTEX
  5
4A2
  8
0
 10
953.3447344954543
 20
475.2877995758703
 30
0.0
  0
SEQEND
  5
4A3
  8
0
  0
POLYLINE
  5
4A4
  8
0
 66
     1
 10
0.0
 20
0.0
 30
0.0
 70
     1
  0
VERTEX
  5
4A5
  8
0
 10
953.3447344954543
 20
435.1024665416463
 30
0.0
  0
VERTEX
  5
4A6
  8
0
 10
986.0565029318502
 20
386.2424667845545
 30
0.0
  0
VERTEX
  5
4A7
  8
0
 10
953.3447344954543
 20
369.7728039450852
 30
0.0
  0
SEQEND
  5
4A8
  8
0
  0
POLYLINE
  5
4A9
  8
0
 66
     1
 10
0.0
 20
0.0
 30
0.0
 70
     1
  0
VERTEX
  5
4AA
  8
0
 10
953.3447344954543
 20
253.6616809268274
 30
0.0
  0
VERTEX
  5
4AB
  8
0
 10
978.0961658927733
 20
238.0155012293318
 30
0.0
  0
VERTEX
  5
4AC
  8
0
 10
992.3698736869801
 20
364.0084219512711
 30
0.0
  0
VERTEX
  5
4AD
  8
0
 10
953.3447344954543
 20
344.7938153052236
 30
0.0
  0
SEQEND
  5
4AE
  8
0
  0
POLYLINE
  5
4AF
  8
0
 66
     1
 10
0.0
 20
0.0
 30
0.0
 70
     1
  0
VERTEX
  5
4B0
  8
0
 10
953.3447344954543
 20
222.8554288643869
 30
0.0
  0
VERTEX
  5
4B1
  8
0
 10
1014.337749757918
 20
175.0730737128403
 30
0.0
  0
VERTEX
  5
4B2
  8
0
 10
970.6219780235249
 20
127.9684824641528
 30
0.0
  0
VERTEX
  5
4B3
  8
0
 10
953.3447344954543
 20
127.968482464153
 30
0.0
  0
SEQEND
  5
4B4
  8
0
  0
POLYLINE
  5
4B5
  8
0
 66
     1
 10
0.0
 20
0.0
 30
0.0
 70
     1
  0
VERTEX
  5
4B6
  8
0
 10
953.3447344954543
 20
666.0512276745122
 30
0.0
  0
VERTEX
  5
4B7
  8
0
 10
1022.742315014314
 20
719.5945760003585
 30
0.0
  0
VERTEX
  5
4B8
  8
0
 10
1039.347530634354
 20
596.2415456800544
 30
0.0
  0
VERTEX
  5
4B9
  8
0
 10
953.3447344954543
 20
618.6077544743952
 30
0.0
  0
SEQEND
  5
4BA
  8
0
  0
POLYLINE
  5
4BB
  8
0
 66
     1
 10
0.0
 20
0.0
 30
0.0
 70
     1
  0
VERTEX
  5
4BC
  8
0
 10
953.3447344954543
 20
-38.99964897040479
 30
0.0
  0
VERTEX
  5
4BD
  8
0
 10
994.6614242339156
 20
-58.1136823098974
 30
0.0
  0
VERTEX
  5
4BE
  8
0
 10
994.5146990154285
 20
9.035744236323694
 30
0.0
  0
VERTEX
  5
4BF
  8
0
 10
953.3447344954543
 20
9.035744236323922
 30
0.0
  0
SEQEND
  5
4C0
  8
0
  0
POLYLINE
  5
4C1
  8
0
 66
     1
 10
0.0
 20
0.0
 30
0.0
 70
     1
  0
VERTEX
  5
4C2
  8
0
 10
1229.242436600098
 20
-166.2206271616129
 30
0.0
  0
VERTEX
  5
4C3
  8
0
 10
1216.089027080101
 20
-129.5338290676292
 30
0.0
  0
VERTEX
  5
4C4
  8
0
 10
1162.994267511992
 20
-166.2206271616129
 30
0.0
  0
SEQEND
  5
4C5
  8
0
  0
POLYLINE
  5
4C6
  8
0
 66
     1
 10
0.0
 20
0.0
 30
0.0
 70
     1
  0
VERTEX
  5
4C7
  8
0
 10
953.3447344954543
 20
1953.992416999059
 30
0.0
  0
VERTEX
  5
4C8
  8
0
 10
995.2284893777601
 20
1938.895226062878
 30
0.0
  0
VERTEX
  5
4C9
  8
0
 10
997.1499500423647
 20
2014.381180743779
 30
0.0
  0
VERTEX
  5
4CA
  8
0
 10
953.3447344954543
 20
2034.693764912458
 30
0.0
  0
SEQEND
  5
4CB
  8
0
  0
POLYLINE
  5
4CC
  8
0
 66
     1
 10
0.0
 20
0.0
 30
0.0
 70
     1
  0
VERTEX
  5
4CD
  8
0
 10
953.3447344954543
 20
-110.277974373938
 30
0.0
  0
VERTEX
  5
4CE
  8
0
 10
1019.921107100553
 20
-97.36523426460224
 30
0.0
  0
VERTEX
  5
4CF
  8
0
 10
953.3447344954543
 20
-73.60579246342434
 30
0.0
  0
SEQEND
  5
4D0
  8
0
  0
POLYLINE
  5
4D1
  8
0
 66
     1
 10
0.0
 20
0.0
 30
0.0
 70
     1
  0
VERTEX
  5
4D2
  8
0
 10
1127.871614414599
 20
-166.2206271616129
 30
0.0
  0
VERTEX
  5
4D3
  8
0
 10
1133.036710458334
 20
-40.54917778352535
 30
0.0
  0
VERTEX
  5
4D4
  8
0
 10
1112.89283588777
 20
-42.61521620101905
 30
0.0
  0
VERTEX
  5
4D5
  8
0
 10
1078.803201999124
 20
-106.1458975389506
 30
0.0
  0
VERTEX
  5
4D6
  8
0
 10
1088.100374877845
 20
-166.2206271616129
 30
0.0
  0
SEQEND
  5
4D7
  8
0
  0
POLYLINE
  5
4D8
  8
0
 66
     1
 10
0.0
 20
0.0
 30
0.0
 70
     1
  0
VERTEX
  5
4D9
  8
0
 10
1562.267169115908
 20
-166.2206271616129
 30
0.0
  0
VERTEX
  5
4DA
  8
0
 10
1553.481340745516
 20
-99.34265302497545
 30
0.0
  0
VERTEX
  5
4DB
  8
0
 10
1472.317021514276
 20
-122.3531558998117
 30
0.0
  0
VERTEX
  5
4DC
  8
0
 10
1472.317021514276
 20
-166.2206271616129
 30
0.0
  0
SEQEND
  5
4DD
  8
0
  0
POLYLINE
  5
4DE
  8
0
 66
     1
 10
0.0
 20
0.0
 30
0.0
 70
     1
  0
VERTEX
  5
4DF
  8
0
 10
1614.168392561411
 20
1921.486400007892
 30
0.0
  0
VERTEX
  5
4E0
  8
0
 10
1539.662551754354
 20
1975.029748333739
 30
0.0
  0
VERTEX
  5
4E1
  8
0
 10
1614.168392561411
 20
2010.273471282398
 30
0.0
  0
SEQEND
  5
4E2
  8
0
  0
POLYLINE
  5
4E3
  8
0
 66
     1
 10
0.0
 20
0.0
 30
0.0
 70
     1
  0
VERTEX
  5
4E4
  8
0
 10
1614.16839256141
 20
-72.64540789604246
 30
0.0
  0
VERTEX
  5
4E5
  8
0
 10
1575.949250280958
 20
-95.01161669038322
 30
0.0
  0
VERTEX
  5
4E6
  8
0
 10
1575.271486378099
 20
-69.93435228460714
 30
0.0
  0
VERTEX
  5
4E7
  8
0
 10
1614.168392561411
 20
-33.67398348166091
 30
0.0
  0
SEQEND
  5
4E8
  8
0
  0
POLYLINE
  5
4E9
  8
0
 66
     1
 10
0.0
 20
0.0
 30
0.0
 70
     1
  0
VERTEX
  5
4EA
  8
0
 10
1054.042079607503
 20
2131.647402772124
 30
0.0
  0
VERTEX
  5
4EB
  8
0
 10
1106.745000693804
 20
2069.200022162616
 30
0.0
  0
VERTEX
  5
4EC
  8
0
 10
1094.941742325518
 20
2035.437213341705
 30
0.0
  0
VERTEX
  5
4ED
  8
0
 10
1010.278906237187
 20
2038.206841142276
 30
0.0
  0
VERTEX
  5
4EE
  8
0
 10
990.1970128191481
 20
2048.666160630838
 30
0.0
  0
VERTEX
  5
4EF
  8
0
 10
1009.442160678102
 20
2131.647402772124
 30
0.0
  0
SEQEND
  5
4F0
  8
0
  0
POLYLINE
  5
4F1
  8
0
 66
     1
 10
0.0
 20
0.0
 30
0.0
 70
     1
  0
VERTEX
  5
4F2
  8
0
 10
1578.295094217307
 20
2131.647402772124
 30
0.0
  0
VERTEX
  5
4F3
  8
0
 10
1541.356961511501
 20
2040.095083008185
 30
0.0
  0
VERTEX
  5
4F4
  8
0
 10
1510.518703931425
 20
2065.51122936539
 30
0.0
  0
VERTEX
  5
4F5
  8
0
 10
1517.635224911442
 20
2131.647402772124
 30
0.0
  0
SEQEND
  5
4F6
  8
0
  0
POLYLINE
  5
4F7
  8
0
 66
     1
 10
0.0
 20
0.0
 30
0.0
 70
     1
  0
VERTEX
  5
4F8
  8
0
 10
923.3447344954541
 20
2161.647402772124
 30
0.0
  0
VERTEX
  5
4F9
  8
0
 10
923.3447344954541
 20
-196.2206271616129
 30
0.0
  0
VERTEX
  5
4FA
  8
0
 10
1644.168392561411
 20
-196.2206271616129
 30
0.0
  0
VERTEX
  5
4FB
  8
0
 10
1644.168392561411
 20
2161.647402772124
 30
0.0
  0
SEQEND
  5
4FC
  8
0
  0
ENDSEC
  0
EOF
