  0
SECTION
  2
HEADER
  9
$ACADVER
  1
AC1009
  9
$DWGCODEPAGE
  3
ansi_1252
  9
$INSBASE
 10
0.0
 20
0.0
 30
0.0
  9
$EXTMIN
 10
1.000000000000000E+20
 20
1.000000000000000E+20
 30
1.000000000000000E+20
  9
$EXTMAX
 10
-1.000000000000000E+20
 20
-1.000000000000000E+20
 30
-1.000000000000000E+20
  9
$LIMMIN
 10
0.0
 20
0.0
  9
$LIMMAX
 10
12.0
 20
9.0
  9
$ORTHOMODE
 70
     0
  9
$REGENMODE
 70
     1
  9
$FILLMODE
 70
     1
  9
$QTEXTMODE
 70
     0
  9
$MIRRTEXT
 70
     1
  9
$DRAGMODE
 70
     2
  9
$LTSCALE
 40
1.0
  9
$OSMODE
 70
    37
  9
$ATTMODE
 70
     1
  9
$TEXTSIZE
 40
0.2
  9
$TRACEWID
 40
0.05
  9
$TEXTSTYLE
  7
STANDARD
  9
$CLAYER
  8
LAYER_05
  9
$CELTYPE
  6
BYLAYER
  9
$CECOLOR
 62
   256
  9
$DIMSCALE
 40
1.0
  9
$DIMASZ
 40
0.18
  9
$DIMEXO
 40
0.0625
  9
$DIMDLI
 40
0.38
  9
$DIMRND
 40
0.0
  9
$DIMDLE
 40
0.0
  9
$DIMEXE
 40
0.18
  9
$DIMTP
 40
0.0
  9
$DIMTM
 40
0.0
  9
$DIMTXT
 40
0.18
  9
$DIMCEN
 40
0.09
  9
$DIMTSZ
 40
0.0
  9
$DIMTOL
 70
     0
  9
$DIMLIM
 70
     0
  9
$DIMTIH
 70
     1
  9
$DIMTOH
 70
     1
  9
$DIMSE1
 70
     0
  9
$DIMSE2
 70
     0
  9
$DIMTAD
 70
     0
  9
$DIMZIN
 70
     0
  9
$DIMBLK
  1

  9
$DIMASO
 70
     1
  9
$DIMSHO
 70
     1
  9
$DIMPOST
  1

  9
$DIMAPOST
  1

  9
$DIMALT
 70
     0
  9
$DIMALTD
 70
     2
  9
$DIMALTF
 40
25.4
  9
$DIMLFAC
 40
1.0
  9
$DIMTOFL
 70
     0
  9
$DIMTVP
 40
0.0
  9
$DIMTIX
 70
     0
  9
$DIMSOXD
 70
     0
  9
$DIMSAH
 70
     0
  9
$DIMBLK1
  1

  9
$DIMBLK2
  1

  9
$DIMSTYLE
  2
STANDARD_ACAD
  9
$DIMCLRD
 70
     0
  9
$DIMCLRE
 70
     0
  9
$DIMCLRT
 70
     0
  9
$DIMTFAC
 40
1.0
  9
$DIMGAP
 40
0.09
  9
$LUNITS
 70
     2
  9
$LUPREC
 70
     3
  9
$SKETCHINC
 40
0.1
  9
$FILLETRAD
 40
0.5
  9
$AUNITS
 70
     0
  9
$AUPREC
 70
     0
  9
$MENU
  1
.
  9
$ELEVATION
 40
0.0
  9
$PELEVATION
 40
0.0
  9
$THICKNESS
 40
0.0
  9
$LIMCHECK
 70
     0
  9
$CHAMFERA
 40
0.0
  9
$CHAMFERB
 40
0.0
  9
$SKPOLY
 70
     0
  9
$TDCREATE
 40
2460213.489612349
  9
$TDUPDATE
 40
2460213.489612408
  9
$TDINDWG
 40
0.0000000116
  9
$TDUSRTIMER
 40
0.0000000116
  9
$USRTIMER
 70
     1
  9
$ANGBASE
 50
0.0
  9
$ANGDIR
 70
     0
  9
$PDMODE
 70
     0
  9
$PDSIZE
 40
0.0
  9
$PLINEWID
 40
0.0
  9
$COORDS
 70
     1
  9
$SPLFRAME
 70
     0
  9
$SPLINETYPE
 70
     6
  9
$SPLINESEGS
 70
     8
  9
$ATTDIA
 70
     0
  9
$ATTREQ
 70
     1
  9
$HANDLING
 70
     1
  9
$HANDSEED
  5
253
  9
$SURFTAB1
 70
     6
  9
$SURFTAB2
 70
     6
  9
$SURFTYPE
 70
     6
  9
$SURFU
 70
     6
  9
$SURFV
 70
     6
  9
$UCSNAME
  2

  9
$UCSORG
 10
0.0
 20
0.0
 30
0.0
  9
$UCSXDIR
 10
1.0
 20
0.0
 30
0.0
  9
$UCSYDIR
 10
0.0
 20
1.0
 30
0.0
  9
$PUCSNAME
  2

  9
$PUCSORG
 10
0.0
 20
0.0
 30
0.0
  9
$PUCSXDIR
 10
1.0
 20
0.0
 30
0.0
  9
$PUCSYDIR
 10
0.0
 20
1.0
 30
0.0
  9
$USERI1
 70
     0
  9
$USERI2
 70
     0
  9
$USERI3
 70
     0
  9
$USERI4
 70
     0
  9
$USERI5
 70
     0
  9
$USERR1
 40
0.0
  9
$USERR2
 40
0.0
  9
$USERR3
 40
0.0
  9
$USERR4
 40
0.0
  9
$USERR5
 40
0.0
  9
$WORLDVIEW
 70
     1
  9
$SHADEDGE
 70
     3
  9
$SHADEDIF
 70
    70
  9
$TILEMODE
 70
     1
  9
$MAXACTVP
 70
    64
  9
$PLIMCHECK
 70
     0
  9
$PEXTMIN
 10
1.000000000000000E+20
 20
1.000000000000000E+20
 30
1.000000000000000E+20
  9
$PEXTMAX
 10
-1.000000000000000E+20
 20
-1.000000000000000E+20
 30
-1.000000000000000E+20
  9
$PLIMMIN
 10
0.0
 20
0.0
  9
$PLIMMAX
 10
12.0
 20
9.0
  9
$UNITMODE
 70
     0
  9
$VISRETAIN
 70
     1
  9
$PLINEGEN
 70
     0
  9
$PSLTSCALE
 70
     1
  0
ENDSEC
  0
SECTION
  2
TABLES
  0
TABLE
  2
VPORT
 70
     1
  0
VPORT
  2
*ACTIVE
 70
     0
 10
0.0
 20
0.0
 11
1.0
 21
1.0
 12
10.42990654205607
 22
4.5
 13
0.0
 23
0.0
 14
0.5
 24
0.5
 15
0.5
 25
0.5
 16
0.0
 26
0.0
 36
1.0
 17
0.0
 27
0.0
 37
0.0
 40
9.0
 41
1.972972972850329
 42
50.0
 43
0.0
 44
0.0
 50
0.0
 51
0.0
 71
     0
 72
   100
 73
     1
 74
     3
 75
     0
 76
     0
 77
     0
 78
     0
  0
ENDTAB
  0
TABLE
  2
LTYPE
 70
     1
  0
LTYPE
  2
CONTINUOUS
 70
     0
  3
Solid line
 72
    65
 73
     0
 40
0.0
  0
ENDTAB
  0
TABLE
  2
LAYER
 70
     2
  0
LAYER
  2
0
 70
     0
 62
     7
  6
CONTINUOUS
  0
LAYER
  2
LAYER_05
 70
     0
 62
     1
  6
CONTINUOUS
  0
ENDTAB
  0
TABLE
  2
STYLE
 70
     1
  0
STYLE
  2
STANDARD
 70
     0
 40
0.0
 41
1.0
 50
0.0
 71
     0
 42
0.2
  3
txt
  4

  0
ENDTAB
  0
TABLE
  2
VIEW
 70
     0
  0
ENDTAB
  0
TABLE
  2
UCS
 70
     0
  0
ENDTAB
  0
TABLE
  2
APPID
 70
     2
  0
APPID
  2
ACAD
 70
     0
  0
APPID
  2
RHINO
 70
     0
  0
ENDTAB
  0
TABLE
  2
DIMSTYLE
 70
     1
  0
DIMSTYLE
  2
STANDARD_ACAD
 70
     0
  3

  4

  5

  6

  7

 40
1.0
 41
0.18
 42
0.0625
 43
0.38
 44
0.18
 45
0.0
 46
0.0
 47
0.0
 48
0.0
140
0.18
141
0.09
142
0.0
143
25.4
144
1.0
145
0.0
146
1.0
147
0.09
 71
     0
 72
     0
 73
     1
 74
     1
 75
     0
 76
     0
 77
     0
 78
     0
170
     0
171
     2
172
     0
173
     0
174
     0
175
     0
176
     0
177
     0
178
     0
  0
ENDTAB
  0
ENDSEC
  0
SECTION
  2
BLOCKS
  0
BLOCK
  8
0
  2
$MODEL_SPACE
 70
     0
 10
0.0
 20
0.0
 30
0.0
  3
$MODEL_SPACE
  1

  0
ENDBLK
  5
21
  8
0
  0
BLOCK
 67
     1
  8
0
  2
$PAPER_SPACE
 70
     0
 10
0.0
 20
0.0
 30
0.0
  3
$PAPER_SPACE
  1

  0
ENDBLK
  5
1D
 67
     1
  8
0
  0
ENDSEC
  0
SECTION
  2
ENTITIES
  0
POLYLINE
  5
70
  8
LAYER_05
 66
     1
 10
0.0
 20
0.0
 30
0.0
 70
     1
  0
VERTEX
  5
71
  8
LAYER_05
 10
-1842.080042052128
 20
8413.45944205068
 30
0.0
 42
-0.1181206491691492
  0
VERTEX
  5
72
  8
LAYER_05
 10
-1810.672506856396
 20
8544.555353651032
 30
0.0
  0
VERTEX
  5
73
  8
LAYER_05
 10
-1426.978098624535
 20
9299.342825985883
 30
0.0
 42
-0.7887130218201195
  0
VERTEX
  5
74
  8
LAYER_05
 10
-1386.824343697192
 20
9289.722611493788
 30
0.0
  0
VERTEX
  5
75
  8
LAYER_05
 10
-1386.824343697192
 20
8553.235056381278
 30
0.0
 42
-0.1181178677125255
  0
VERTEX
  5
76
  8
LAYER_05
 10
-1424.244934219545
 20
8397.045260358074
 30
0.0
  0
VERTEX
  5
77
  8
LAYER_05
 10
-1711.434464133157
 20
7832.098118273219
 30
0.0
 42
-0.6134443686125977
  0
VERTEX
  5
78
  8
LAYER_05
 10
-1768.007842562867
 20
7832.098117845556
 30
0.0
  0
VERTEX
  5
79
  8
LAYER_05
 10
-1822.626567891945
 20
7939.541772871085
 30
0.0
 42
-0.1181206490549092
  0
VERTEX
  5
7A
  8
LAYER_05
 10
-1842.08134912296
 20
8020.741196188308
 30
0.0
  0
SEQEND
  5
7B
  8
LAYER_05
  0
POLYLINE
  5
7C
  8
LAYER_05
 66
     1
 10
0.0
 20
0.0
 30
0.0
 70
     1
  0
VERTEX
  5
7D
  8
LAYER_05
 10
-1386.825805490897
 20
8049.577972966504
 30
0.0
  0
VERTEX
  5
7E
  8
LAYER_05
 10
-1386.825805490897
 20
8260.073538090392
 30
0.0
 42
0.7887104678266117
  0
VERTEX
  5
7F
  8
LAYER_05
 10
-1438.253858552144
 20
8272.394881506967
 30
0.0
  0
VERTEX
  5
80
  8
LAYER_05
 10
-1695.44533762712
 20
7766.458641019049
 30
0.0
 42
0.2395813306266178
  0
VERTEX
  5
81
  8
LAYER_05
 10
-1695.445337627119
 20
7689.356502816115
 30
0.0
  0
VERTEX
  5
82
  8
LAYER_05
 10
-1629.766164215572
 20
7560.155200371314
 30
0.0
 42
0.6134471466433555
  0
VERTEX
  5
83
  8
LAYER_05
 10
-1590.675555049128
 20
7560.15521455244
 30
0.0
  0
VERTEX
  5
84
  8
LAYER_05
 10
-1426.892960887938
 20
7882.341432561301
 30
0.0
 42
0.1372881068618534
  0
SEQEND
  5
85
  8
LAYER_05
  0
POLYLINE
  5
86
  8
LAYER_05
 66
     1
 10
0.0
 20
0.0
 30
0.0
 70
     1
  0
VERTEX
  5
87
  8
LAYER_05
 10
-1317.28148632255
 20
7015.954899550645
 30
0.0
  0
VERTEX
  5
88
  8
LAYER_05
 10
-919.2886262677712
 20
7798.869683824848
 30
0.0
 42
-0.7887145837624868
  0
VERTEX
  5
89
  8
LAYER_05
 10
-880.1340007439034
 20
7789.488859737638
 30
0.0
  0
VERTEX
  5
8A
  8
LAYER_05
 10
-880.1340007439039
 20
7278.383442861453
 30
0.0
 42
-0.1181207008872452
  0
VERTEX
  5
8B
  8
LAYER_05
 10
-908.6524303342574
 20
7159.350383684462
 30
0.0
  0
VERTEX
  5
8C
  8
LAYER_05
 10
-1270.726529182876
 20
6447.093472964189
 30
0.0
  0
VERTEX
  5
8D
  8
LAYER_05
 10
-1342.824896712412
 20
6447.093472964189
 30
0.0
  0
VERTEX
  5
8E
  8
LAYER_05
 10
-1342.824896712411
 20
6909.339263478831
 30
0.0
 42
-0.1181157168169915
  0
SEQEND
  5
8F
  8
LAYER_05
  0
POLYLINE
  5
90
  8
LAYER_05
 66
     1
 10
0.0
 20
0.0
 30
0.0
 70
     1
  0
VERTEX
  5
91
  8
LAYER_05
 10
-808.8182152426543
 20
8016.18242155715
 30
0.0
 42
0.1181176060719174
  0
VERTEX
  5
92
  8
LAYER_05
 10
-836.1330919654165
 20
7902.172862389845
 30
0.0
  0
VERTEX
  5
93
  8
LAYER_05
 10
-836.1330919654165
 20
7405.849998305277
 30
0.0
 42
0.7887157381473733
  0
VERTEX
  5
94
  8
LAYER_05
 10
-789.0761048011098
 20
7394.575892745609
 30
0.0
  0
VERTEX
  5
95
  8
LAYER_05
 10
-567.09842306259
 20
7831.241034899365
 30
0.0
  0
VERTEX
  5
96
  8
LAYER_05
 10
-567.0984230625891
 20
8339.762129030285
 30
0.0
 42
0.7887158876912265
  0
VERTEX
  5
97
  8
LAYER_05
 10
-635.9425768040494
 20
8356.25609311949
 30
0.0
  0
SEQEND
  5
98
  8
LAYER_05
  0
POLYLINE
  5
99
  8
LAYER_05
 66
     1
 10
0.0
 20
0.0
 30
0.0
 70
     1
  0
VERTEX
  5
9A
  8
LAYER_05
 10
-880.134000743903
 20
8056.007392961191
 30
0.0
  0
VERTEX
  5
9B
  8
LAYER_05
 10
-880.1340007439021
 20
8781.501280524257
 30
0.0
 42
0.7887157354990629
  0
VERTEX
  5
9C
  8
LAYER_05
 10
-916.0705488357974
 20
8790.11110578318
 30
0.0
  0
VERTEX
  5
9D
  8
LAYER_05
 10
-1311.139147392464
 20
8012.948805509928
 30
0.0
 42
0.1181171708011409
  0
VERTEX
  5
9E
  8
LAYER_05
 10
-1342.824896712411
 20
7880.695662145758
 30
0.0
  0
VERTEX
  5
9F
  8
LAYER_05
 10
-1342.824896712412
 20
7129.90243985896
 30
0.0
 42
0.7887171596581356
  0
VERTEX
  5
A0
  8
LAYER_05
 10
-1312.419524816186
 20
7122.617796859216
 30
0.0
  0
VERTEX
  5
A1
  8
LAYER_05
 10
-917.7531377842333
 20
7898.988883568834
 30
0.0
 42
0.1181178695091925
  0
SEQEND
  5
A2
  8
LAYER_05
  0
POLYLINE
  5
A3
  8
LAYER_05
 66
     1
 10
0.0
 20
0.0
 30
0.0
 70
     1
  0
VERTEX
  5
A4
  8
LAYER_05
 10
-897.0589328759796
 20
10007.12243858544
 30
0.0
 42
-0.1181176175741365
  0
VERTEX
  5
A5
  8
LAYER_05
 10
-880.1340007439018
 20
9936.479467250154
 30
0.0
  0
VERTEX
  5
A6
  8
LAYER_05
 10
-880.1340007439039
 20
9654.757553096268
 30
0.0
 42
-0.788716107768825
  0
VERTEX
  5
A7
  8
LAYER_05
 10
-933.2709142571887
 20
9642.026794632055
 30
0.0
  0
VERTEX
  5
A8
  8
LAYER_05
 10
-1080.172639302926
 20
9931.005678217702
 30
0.0
 42
-0.1988364212310766
  0
VERTEX
  5
A9
  8
LAYER_05
 10
-1075.520217744684
 20
9990.721998356488
 30
0.0
  0
VERTEX
  5
AA
  8
LAYER_05
 10
-1007.184261017514
 20
10125.14961299224
 30
0.0
 42
-0.6134443214983353
  0
VERTEX
  5
AB
  8
LAYER_05
 10
-957.0577667186709
 20
10125.14961638001
 30
0.0
  0
SEQEND
  5
AC
  8
LAYER_05
  0
POLYLINE
  5
AD
  8
LAYER_05
 66
     1
 10
0.0
 20
0.0
 30
0.0
 70
     1
  0
VERTEX
  5
AE
  8
LAYER_05
 10
-809.5837298326942
 20
11016.24695294572
 30
0.0
 42
0.239587582919938
  0
VERTEX
  5
AF
  8
LAYER_05
 10
-809.5839358576324
 20
10891.77263291734
 30
0.0
  0
VERTEX
  5
B0
  8
LAYER_05
 10
-762.8342845727776
 20
10799.80868877639
 30
0.0
 42
0.6134443915092301
  0
VERTEX
  5
B1
  8
LAYER_05
 10
-713.5827992323701
 20
10799.80868877769
 30
0.0
  0
VERTEX
  5
B2
  8
LAYER_05
 10
-567.09842306259
 20
11087.96658124018
 30
0.0
  0
VERTEX
  5
B3
  8
LAYER_05
 10
-567.0984230625908
 20
11338.06499474728
 30
0.0
 42
0.7887159372824514
  0
VERTEX
  5
B4
  8
LAYER_05
 10
-637.4232908960921
 20
11354.91371418372
 30
0.0
  0
SEQEND
  5
B5
  8
LAYER_05
  0
POLYLINE
  5
B6
  8
LAYER_05
 66
     1
 10
0.0
 20
0.0
 30
0.0
 70
     1
  0
VERTEX
  5
B7
  8
LAYER_05
 10
-1914.463209316885
 20
8535.247511558557
 30
0.0
  0
VERTEX
  5
B8
  8
LAYER_05
 10
-2084.385524718077
 20
8869.511530484395
 30
0.0
 42
0.7887157541442055
  0
VERTEX
  5
B9
  8
LAYER_05
 10
-2157.09842306259
 20
8852.090676734151
 30
0.0
  0
VERTEX
  5
BA
  8
LAYER_05
 10
-2157.09842306259
 20
8597.50100004022
 30
0.0
  0
VERTEX
  5
BB
  8
LAYER_05
 10
-1925.94567129724
 20
8142.787046735008
 30
0.0
 42
0.7887132191662137
  0
VERTEX
  5
BC
  8
LAYER_05
 10
-1886.082412624321
 20
8152.337642858805
 30
0.0
  0
VERTEX
  5
BD
  8
LAYER_05
 10
-1886.082412624321
 20
8416.788909464114
 30
0.0
 42
0.1181169955934184
  0
SEQEND
  5
BE
  8
LAYER_05
  0
POLYLINE
  5
BF
  8
LAYER_05
 66
     1
 10
0.0
 20
0.0
 30
0.0
 70
     1
  0
VERTEX
  5
C0
  8
LAYER_05
 10
-888.7206663682691
 20
10860.57210594635
 30
0.0
 42
-0.6134443902040906
  0
VERTEX
  5
C1
  8
LAYER_05
 10
-843.0830900184483
 20
10860.57210594616
 30
0.0
  0
VERTEX
  5
C2
  8
LAYER_05
 10
-797.3881272943534
 20
10770.68290070105
 30
0.0
 42
-0.2395840925008054
  0
VERTEX
  5
C3
  8
LAYER_05
 10
-797.3881273019589
 20
10634.95037866228
 30
0.0
  0
VERTEX
  5
C4
  8
LAYER_05
 10
-958.9479569422557
 20
10317.13668935941
 30
0.0
 42
-0.6134443902423103
  0
VERTEX
  5
C5
  8
LAYER_05
 10
-1005.294069071636
 20
10317.13668935916
 30
0.0
  0
VERTEX
  5
C6
  8
LAYER_05
 10
-1053.388577283375
 20
10411.74617937912
 30
0.0
 42
-0.2395842453660225
  0
VERTEX
  5
C7
  8
LAYER_05
 10
-1053.388579573607
 20
10536.64432561809
 30
0.0
  0
SEQEND
  5
C8
  8
LAYER_05
  0
POLYLINE
  5
C9
  8
LAYER_05
 66
     1
 10
0.0
 20
0.0
 30
0.0
 70
     1
  0
VERTEX
  5
CA
  8
LAYER_05
 10
-917.5723131904788
 20
7044.704914483054
 30
0.0
 42
-0.7887157367419795
  0
VERTEX
  5
CB
  8
LAYER_05
 10
-880.1340007439002
 20
7035.735290374529
 30
0.0
  0
VERTEX
  5
CC
  8
LAYER_05
 10
-880.1340007439021
 20
6447.093472964189
 30
0.0
  0
VERTEX
  5
CD
  8
LAYER_05
 10
-1168.876641247582
 20
6447.093472964189
 30
0.0
 42
-0.5597198934873812
  0
VERTEX
  5
CE
  8
LAYER_05
 10
-1197.580455414538
 20
6493.884695662549
 30
0.0
  0
SEQEND
  5
CF
  8
LAYER_05
  0
POLYLINE
  5
D0
  8
LAYER_05
 66
     1
 10
0.0
 20
0.0
 30
0.0
 70
     1
  0
VERTEX
  5
D1
  8
LAYER_05
 10
-1927.337677386477
 20
8657.672274159337
 30
0.0
 42
0.788715736386574
  0
VERTEX
  5
D2
  8
LAYER_05
 10
-1886.082412624321
 20
8667.556379324147
 30
0.0
  0
VERTEX
  5
D3
  8
LAYER_05
 10
-1886.082412624319
 20
8895.096079612864
 30
0.0
 42
0.1181168380267102
  0
VERTEX
  5
D4
  8
LAYER_05
 10
-1922.582927771959
 20
9047.445573195759
 30
0.0
  0
VERTEX
  5
D5
  8
LAYER_05
 10
-2090.659056851953
 20
9378.077852182505
 30
0.0
 42
0.7887182600540181
  0
VERTEX
  5
D6
  8
LAYER_05
 10
-2157.09842306259
 20
9362.160036961877
 30
0.0
  0
VERTEX
  5
D7
  8
LAYER_05
 10
-2157.098423062589
 20
9109.647931740063
 30
0.0
  0
SEQEND
  5
D8
  8
LAYER_05
  0
POLYLINE
  5
D9
  8
LAYER_05
 66
     1
 10
0.0
 20
0.0
 30
0.0
 70
     1
  0
VERTEX
  5
DA
  8
LAYER_05
 10
-1411.164855046486
 20
9929.940563446617
 30
0.0
 42
0.2395812387670232
  0
VERTEX
  5
DB
  8
LAYER_05
 10
-1411.164855046487
 20
10016.61923753793
 30
0.0
  0
VERTEX
  5
DC
  8
LAYER_05
 10
-1591.794217453296
 20
10371.94570817574
 30
0.0
 42
0.6134443879947615
  0
VERTEX
  5
DD
  8
LAYER_05
 10
-1646.621903540901
 20
10371.94570800335
 30
0.0
  0
VERTEX
  5
DE
  8
LAYER_05
 10
-1684.055483382072
 20
10298.30794705978
 30
0.0
 42
0.239585046117751
  0
VERTEX
  5
DF
  8
LAYER_05
 10
-1684.055534944286
 20
10151.52478104633
 30
0.0
  0
VERTEX
  5
E0
  8
LAYER_05
 10
-1512.56070373784
 20
9814.167375288704
 30
0.0
 42
0.6134441263742522
  0
VERTEX
  5
E1
  8
LAYER_05
 10
-1470.01788533461
 20
9814.16736212444
 30
0.0
  0
SEQEND
  5
E2
  8
LAYER_05
  0
POLYLINE
  5
E3
  8
LAYER_05
 66
     1
 10
0.0
 20
0.0
 30
0.0
 70
     1
  0
VERTEX
  5
E4
  8
LAYER_05
 10
-1494.304479070712
 20
12345.72492831689
 30
0.0
 42
0.2395849275302623
  0
VERTEX
  5
E5
  8
LAYER_05
 10
-1494.304489018977
 20
12238.72605336976
 30
0.0
  0
VERTEX
  5
E6
  8
LAYER_05
 10
-1268.645658948429
 20
11794.81951132794
 30
0.0
 42
0.6134445657131218
  0
VERTEX
  5
E7
  8
LAYER_05
 10
-1223.305718645598
 20
11794.81951099047
 30
0.0
  0
VERTEX
  5
E8
  8
LAYER_05
 10
-768.7202620894675
 20
12689.06086648828
 30
0.0
 42
0.5597197176431532
  0
VERTEX
  5
E9
  8
LAYER_05
 10
-804.3200389909007
 20
12747.09347296419
 30
0.0
  0
VERTEX
  5
EA
  8
LAYER_05
 10
-1290.269738344376
 20
12747.09347296419
 30
0.0
  0
SEQEND
  5
EB
  8
LAYER_05
  0
POLYLINE
  5
EC
  8
LAYER_05
 66
     1
 10
0.0
 20
0.0
 30
0.0
 70
     1
  0
VERTEX
  5
ED
  8
LAYER_05
 10
-2099.786431293234
 20
10872.2344314004
 30
0.0
 42
0.7887159227252939
  0
VERTEX
  5
EE
  8
LAYER_05
 10
-2157.09842306259
 20
10858.50338989458
 30
0.0
  0
VERTEX
  5
EF
  8
LAYER_05
 10
-2157.098423062591
 20
10590.93316450759
 30
0.0
  0
VERTEX
  5
F0
  8
LAYER_05
 10
-2021.780983186529
 20
10324.7423985865
 30
0.0
 42
0.6134457681566355
  0
VERTEX
  5
F1
  8
LAYER_05
 10
-1970.615904748207
 20
10324.74240192397
 30
0.0
  0
VERTEX
  5
F2
  8
LAYER_05
 10
-1917.907414079267
 20
10428.42832381667
 30
0.0
 42
0.239584096487706
  0
VERTEX
  5
F3
  8
LAYER_05
 10
-1917.907414233136
 20
10514.4496927847
 30
0.0
  0
SEQEND
  5
F4
  8
LAYER_05
  0
POLYLINE
  5
F5
  8
LAYER_05
 66
     1
 10
0.0
 20
0.0
 30
0.0
 70
     1
  0
VERTEX
  5
F6
  8
LAYER_05
 10
-1886.082412624322
 20
6482.94086017119
 30
0.0
 42
-0.4142135627654893
  0
VERTEX
  5
F7
  8
LAYER_05
 10
-1921.929799824183
 20
6447.093472964189
 30
0.0
  0
VERTEX
  5
F8
  8
LAYER_05
 10
-2157.09842306259
 20
6447.093472964189
 30
0.0
  0
VERTEX
  5
F9
  8
LAYER_05
 10
-2157.09842306259
 20
7342.784529925822
 30
0.0
 42
-0.788719843298846
  0
VERTEX
  5
FA
  8
LAYER_05
 10
-2090.967415765386
 20
7358.628468411871
 30
0.0
  0
VERTEX
  5
FB
  8
LAYER_05
 10
-1886.082412624321
 20
6955.587323369404
 30
0.0
  0
SEQEND
  5
FC
  8
LAYER_05
  0
POLYLINE
  5
FD
  8
LAYER_05
 66
     1
 10
0.0
 20
0.0
 30
0.0
 70
     1
  0
VERTEX
  5
FE
  8
LAYER_05
 10
-1804.254255773727
 20
9156.671657746941
 30
0.0
 42
-0.78871574874127
  0
VERTEX
  5
FF
  8
LAYER_05
 10
-1842.081503845835
 20
9165.734464629968
 30
0.0
  0
VERTEX
  5
100
  8
LAYER_05
 10
-1842.081503845836
 20
9916.212610989847
 30
0.0
 42
-0.1181171814653049
  0
VERTEX
  5
101
  8
LAYER_05
 10
-1809.801695558194
 20
10050.945296972
 30
0.0
  0
VERTEX
  5
102
  8
LAYER_05
 10
-1766.226773559775
 20
10136.66404743265
 30
0.0
 42
-0.6134443903899814
  0
VERTEX
  5
103
  8
LAYER_05
 10
-1725.860984019607
 20
10136.66404743278
 30
0.0
  0
VERTEX
  5
104
  8
LAYER_05
 10
-1544.873705356111
 20
9780.633499016152
 30
0.0
 42
-0.2395844448372585
  0
VERTEX
  5
105
  8
LAYER_05
 10
-1544.873680999145
 20
9666.914195054293
 30
0.0
  0
SEQEND
  5
106
  8
LAYER_05
  0
POLYLINE
  5
107
  8
LAYER_05
 66
     1
 10
0.0
 20
0.0
 30
0.0
 70
     1
  0
VERTEX
  5
108
  8
LAYER_05
 10
-1211.727601070032
 20
10322.26512588154
 30
0.0
 42
-0.6134443578617774
  0
VERTEX
  5
109
  8
LAYER_05
 10
-1279.068446285305
 20
10322.26512894056
 30
0.0
  0
VERTEX
  5
10A
  8
LAYER_05
 10
-1440.545616628726
 20
10639.91621435759
 30
0.0
 42
-0.2395842877666831
  0
VERTEX
  5
10B
  8
LAYER_05
 10
-1440.545614875053
 20
10777.33029973357
 30
0.0
  0
VERTEX
  5
10C
  8
LAYER_05
 10
-1397.029293727188
 20
10862.93377307025
 30
0.0
 42
-0.6134434669319299
  0
VERTEX
  5
10D
  8
LAYER_05
 10
-1332.108491211439
 20
10862.93359827788
 30
0.0
  0
VERTEX
  5
10E
  8
LAYER_05
 10
-1168.166432424465
 20
10540.43368817647
 30
0.0
 42
-0.2395846775328593
  0
VERTEX
  5
10F
  8
LAYER_05
 10
-1168.166481340212
 20
10407.95672510098
 30
0.0
  0
SEQEND
  5
110
  8
LAYER_05
  0
POLYLINE
  5
111
  8
LAYER_05
 66
     1
 10
0.0
 20
0.0
 30
0.0
 70
     1
  0
VERTEX
  5
112
  8
LAYER_05
 10
-1886.082412624321
 20
7144.848247229477
 30
0.0
 42
-0.7887157366878472
  0
VERTEX
  5
113
  8
LAYER_05
 10
-1927.846367904361
 20
7134.842267908737
 30
0.0
  0
VERTEX
  5
114
  8
LAYER_05
 10
-2157.09842306259
 20
7585.817250937119
 30
0.0
  0
VERTEX
  5
115
  8
LAYER_05
 10
-2157.09842306259
 20
7840.397301527602
 30
0.0
 42
-0.7887157363849104
  0
VERTEX
  5
116
  8
LAYER_05
 10
-2087.87649666066
 20
7856.981773938792
 30
0.0
  0
VERTEX
  5
117
  8
LAYER_05
 10
-1886.082412624321
 20
7460.020954718626
 30
0.0
  0
SEQEND
  5
118
  8
LAYER_05
  0
POLYLINE
  5
119
  8
LAYER_05
 66
     1
 10
0.0
 20
0.0
 30
0.0
 70
     1
  0
VERTEX
  5
11A
  8
LAYER_05
 10
-1568.525759704658
 20
12384.73100963817
 30
0.0
 42
0.6134443901164911
  0
VERTEX
  5
11B
  8
LAYER_05
 10
-1523.83569832577
 20
12384.73100963979
 30
0.0
  0
VERTEX
  5
11C
  8
LAYER_05
 10
-1364.636594251481
 20
12697.90077908193
 30
0.0
 42
0.559719717834953
  0
VERTEX
  5
11D
  8
LAYER_05
 10
-1394.813576309023
 20
12747.09347296419
 30
0.0
  0
VERTEX
  5
11E
  8
LAYER_05
 10
-1697.148824702092
 20
12747.09347296419
 30
0.0
 42
0.5597197381339791
  0
VERTEX
  5
11F
  8
LAYER_05
 10
-1727.544028508962
 20
12697.54504755695
 30
0.0
  0
SEQEND
  5
120
  8
LAYER_05
  0
POLYLINE
  5
121
  8
LAYER_05
 66
     1
 10
0.0
 20
0.0
 30
0.0
 70
     1
  0
VERTEX
  5
122
  8
LAYER_05
 10
-1766.31731606772
 20
11717.09090249566
 30
0.0
 42
0.6134444229770782
  0
VERTEX
  5
123
  8
LAYER_05
 10
-1813.869084082231
 20
11717.09090267173
 30
0.0
  0
VERTEX
  5
124
  8
LAYER_05
 10
-2001.634303862644
 20
11347.72707408861
 30
0.0
 42
0.2395842989492919
  0
VERTEX
  5
125
  8
LAYER_05
 10
-2001.63430891876
 20
11275.26451837948
 30
0.0
  0
VERTEX
  5
126
  8
LAYER_05
 10
-1767.96019101176
 20
10815.59063984195
 30
0.0
 42
0.6134444317448935
  0
VERTEX
  5
127
  8
LAYER_05
 10
-1721.094375706817
 20
10815.59063989065
 30
0.0
  0
VERTEX
  5
128
  8
LAYER_05
 10
-1543.291898407933
 20
11165.3561812592
 30
0.0
 42
0.239584124221361
  0
VERTEX
  5
129
  8
LAYER_05
 10
-1543.291897135879
 20
11278.36469588317
 30
0.0
  0
SEQEND
  5
12A
  8
LAYER_05
  0
POLYLINE
  5
12B
  8
LAYER_05
 66
     1
 10
0.0
 20
0.0
 30
0.0
 70
     1
  0
VERTEX
  5
12C
  8
LAYER_05
 10
-567.0984230625911
 20
12306.67882953877
 30
0.0
 42
0.788716156246107
  0
VERTEX
  5
12D
  8
LAYER_05
 10
-652.681597598792
 20
12327.18319668843
 30
0.0
  0
VERTEX
  5
12E
  8
LAYER_05
 10
-1068.001578104368
 20
11510.18323116761
 30
0.0
 42
0.239584322252501
  0
VERTEX
  5
12F
  8
LAYER_05
 10
-1068.001572668004
 20
11400.12091923633
 30
0.0
  0
VERTEX
  5
130
  8
LAYER_05
 10
-890.2946212568932
 20
11050.54329236909
 30
0.0
 42
0.6134466406584759
  0
VERTEX
  5
131
  8
LAYER_05
 10
-841.5091326905191
 20
11050.54329716777
 30
0.0
  0
VERTEX
  5
132
  8
LAYER_05
 10
-567.09842306259
 20
11590.35248244138
 30
0.0
  0
SEQEND
  5
133
  8
LAYER_05
  0
POLYLINE
  5
134
  8
LAYER_05
 66
     1
 10
0.0
 20
0.0
 30
0.0
 70
     1
  0
VERTEX
  5
135
  8
LAYER_05
 10
-1524.46258077025
 20
10612.25238039165
 30
0.0
 42
-0.613444295110963
  0
VERTEX
  5
136
  8
LAYER_05
 10
-1475.842639666947
 20
10612.25237928614
 30
0.0
  0
VERTEX
  5
137
  8
LAYER_05
 10
-1290.324903636554
 20
10247.30970603496
 30
0.0
 42
-0.2395840926921575
  0
VERTEX
  5
138
  8
LAYER_05
 10
-1290.325313126984
 20
10167.65101855548
 30
0.0
  0
VERTEX
  5
139
  8
LAYER_05
 10
-1347.383453327275
 20
10055.40864938371
 30
0.0
 42
-0.6134427927705632
  0
VERTEX
  5
13A
  8
LAYER_05
 10
-1381.523526622772
 20
10055.40871674387
 30
0.0
  0
VERTEX
  5
13B
  8
LAYER_05
 10
-1562.23639647493
 20
10410.89945970946
 30
0.0
 42
-0.2395841174209621
  0
VERTEX
  5
13C
  8
LAYER_05
 10
-1562.236395778323
 20
10537.94532316407
 30
0.0
  0
SEQEND
  5
13D
  8
LAYER_05
  0
POLYLINE
  5
13E
  8
LAYER_05
 66
     1
 10
0.0
 20
0.0
 30
0.0
 70
     1
  0
VERTEX
  5
13F
  8
LAYER_05
 10
-1785.220580190255
 20
7768.859925672659
 30
0.0
 42
-0.2346351777912459
  0
VERTEX
  5
140
  8
LAYER_05
 10
-1784.466886913717
 20
7688.437851818117
 30
0.0
  0
VERTEX
  5
141
  8
LAYER_05
 10
-1806.802093612142
 20
7644.500974328379
 30
0.0
 42
-0.7887085278797534
  0
VERTEX
  5
142
  8
LAYER_05
 10
-1842.081503845835
 20
7652.953344852325
 30
0.0
  0
VERTEX
  5
143
  8
LAYER_05
 10
-1842.081503845835
 20
7803.662928260983
 30
0.0
 42
-0.788715700548142
  0
VERTEX
  5
144
  8
LAYER_05
 10
-1807.165137562695
 20
7812.028334268916
 30
0.0
  0
SEQEND
  5
145
  8
LAYER_05
  0
POLYLINE
  5
146
  8
LAYER_05
 66
     1
 10
0.0
 20
0.0
 30
0.0
 70
     1
  0
VERTEX
  5
147
  8
LAYER_05
 10
-908.5916446206011
 20
9496.380123801682
 30
0.0
 42
-0.2395795985282216
  0
VERTEX
  5
148
  8
LAYER_05
 10
-908.591644620602
 20
9411.422722141286
 30
0.0
  0
VERTEX
  5
149
  8
LAYER_05
 10
-957.8628294456885
 20
9314.498523468577
 30
0.0
 42
-0.6134443936793607
  0
VERTEX
  5
14A
  8
LAYER_05
 10
-1004.883600043575
 20
9314.498523464983
 30
0.0
  0
VERTEX
  5
14B
  8
LAYER_05
 10
-1212.080202811999
 20
9722.08694989168
 30
0.0
  0
VERTEX
  5
14C
  8
LAYER_05
 10
-1140.355169478919
 20
9863.181413222754
 30
0.0
 42
-0.6134420460038776
  0
VERTEX
  5
14D
  8
LAYER_05
 10
-1095.054161658704
 20
9863.181330441463
 30
0.0
  0
SEQEND
  5
14E
  8
LAYER_05
  0
POLYLINE
  5
14F
  8
LAYER_05
 66
     1
 10
0.0
 20
0.0
 30
0.0
 70
     1
  0
VERTEX
  5
150
  8
LAYER_05
 10
-1694.679852057981
 20
10671.43664482897
 30
0.0
 42
-0.2395840929030361
  0
VERTEX
  5
151
  8
LAYER_05
 10
-1694.679852090047
 20
10770.45352623475
 30
0.0
  0
VERTEX
  5
152
  8
LAYER_05
 10
-1509.671158078347
 20
11134.394833476
 30
0.0
 42
-0.6134463399047148
  0
VERTEX
  5
153
  8
LAYER_05
 10
-1470.105157718028
 20
11134.39482593331
 30
0.0
  0
VERTEX
  5
154
  8
LAYER_05
 10
-1414.213880756373
 20
11024.44786095706
 30
0.0
 42
-0.2395811653471316
  0
VERTEX
  5
155
  8
LAYER_05
 10
-1414.213880756374
 20
10926.22762906404
 30
0.0
  0
VERTEX
  5
156
  8
LAYER_05
 10
-1595.70123238615
 20
10569.21335817947
 30
0.0
 42
-0.6134443899281341
  0
VERTEX
  5
157
  8
LAYER_05
 10
-1642.714888517626
 20
10569.21335817399
 30
0.0
  0
SEQEND
  5
158
  8
LAYER_05
  0
POLYLINE
  5
159
  8
LAYER_05
 66
     1
 10
0.0
 20
0.0
 30
0.0
 70
     1
  0
VERTEX
  5
15A
  8
LAYER_05
 10
-880.1340007439029
 20
9292.47578740643
 30
0.0
 42
0.7887102926710722
  0
VERTEX
  5
15B
  8
LAYER_05
 10
-915.4027193886959
 20
9300.925611353054
 30
0.0
  0
VERTEX
  5
15C
  8
LAYER_05
 10
-942.3211950595814
 20
9247.972720263599
 30
0.0
 42
0.2395841086032744
  0
VERTEX
  5
15D
  8
LAYER_05
 10
-942.3211948163095
 20
9191.4283960626
 30
0.0
  0
VERTEX
  5
15E
  8
LAYER_05
 10
-912.6237824265954
 20
9133.008897754527
 30
0.0
 42
0.7887157374569307
  0
VERTEX
  5
15F
  8
LAYER_05
 10
-880.1340007439036
 20
9140.79293261162
 30
0.0
  0
SEQEND
  5
160
  8
LAYER_05
  0
POLYLINE
  5
161
  8
LAYER_05
 66
     1
 10
0.0
 20
0.0
 30
0.0
 70
     1
  0
VERTEX
  5
162
  8
LAYER_05
 10
-1849.730629697109
 20
10069.49743169867
 30
0.0
 42
-0.613444390215281
  0
VERTEX
  5
163
  8
LAYER_05
 10
-1892.027814097319
 20
10069.49743169843
 30
0.0
  0
VERTEX
  5
164
  8
LAYER_05
 10
-1942.660245430568
 20
10169.09941714383
 30
0.0
 42
-0.2395840973995398
  0
VERTEX
  5
165
  8
LAYER_05
 10
-1942.660245463566
 20
10282.63694541584
 30
0.0
  0
VERTEX
  5
166
  8
LAYER_05
 10
-1887.21776935078
 20
10391.7010482731
 30
0.0
 42
-0.6134443921530295
  0
VERTEX
  5
167
  8
LAYER_05
 10
-1855.508434064225
 20
10391.70104827096
 30
0.0
  0
VERTEX
  5
168
  8
LAYER_05
 10
-1792.357813514181
 20
10267.47380847095
 30
0.0
 42
-0.2395841250387648
  0
VERTEX
  5
169
  8
LAYER_05
 10
-1792.357814070657
 20
10182.35881710947
 30
0.0
  0
SEQEND
  5
16A
  8
LAYER_05
  0
POLYLINE
  5
16B
  8
LAYER_05
 66
     1
 10
0.0
 20
0.0
 30
0.0
 70
     1
  0
VERTEX
  5
16C
  8
LAYER_05
 10
-1930.005013518736
 20
7643.522295952793
 30
0.0
 42
0.78871590224017
  0
VERTEX
  5
16D
  8
LAYER_05
 10
-1886.082412624321
 20
7654.045452500255
 30
0.0
  0
VERTEX
  5
16E
  8
LAYER_05
 10
-1886.082412624321
 20
7888.411511350168
 30
0.0
 42
0.1181207386832921
  0
VERTEX
  5
16F
  8
LAYER_05
 10
-1921.818149720137
 20
8037.568908708563
 30
0.0
  0
VERTEX
  5
170
  8
LAYER_05
 10
-2094.698298447183
 20
8377.651452720274
 30
0.0
 42
0.7887148775565067
  0
VERTEX
  5
171
  8
LAYER_05
 10
-2157.09842306259
 20
8362.701379255519
 30
0.0
  0
VERTEX
  5
172
  8
LAYER_05
 10
-2157.09842306259
 20
8090.250882286346
 30
0.0
  0
SEQEND
  5
173
  8
LAYER_05
  0
POLYLINE
  5
174
  8
LAYER_05
 66
     1
 10
0.0
 20
0.0
 30
0.0
 70
     1
  0
VERTEX
  5
175
  8
LAYER_05
 10
-922.700853825706
 20
9055.733436499078
 30
0.0
 42
-0.2395841219337977
  0
VERTEX
  5
176
  8
LAYER_05
 10
-922.7008559304169
 20
8874.166896543853
 30
0.0
  0
VERTEX
  5
177
  8
LAYER_05
 10
-1296.116524488205
 20
8139.599327785733
 30
0.0
 42
-0.7887157485130328
  0
VERTEX
  5
178
  8
LAYER_05
 10
-1342.824896712411
 20
8150.789910748593
 30
0.0
  0
VERTEX
  5
179
  8
LAYER_05
 10
-1342.82489671241
 20
8376.884892068756
 30
0.0
 42
-0.1181156278462081
  0
VERTEX
  5
17A
  8
LAYER_05
 10
-1305.106928870979
 20
8534.315911230351
 30
0.0
  0
VERTEX
  5
17B
  8
LAYER_05
 10
-1001.094784147341
 20
9132.355792323404
 30
0.0
 42
-0.6134443925288411
  0
VERTEX
  5
17C
  8
LAYER_05
 10
-961.6516453438305
 20
9132.35579232356
 30
0.0
  0
SEQEND
  5
17D
  8
LAYER_05
  0
POLYLINE
  5
17E
  8
LAYER_05
 66
     1
 10
0.0
 20
0.0
 30
0.0
 70
     1
  0
VERTEX
  5
17F
  8
LAYER_05
 10
-1669.346751236688
 20
7540.917811872625
 30
0.0
 42
-0.2395844615641633
  0
VERTEX
  5
180
  8
LAYER_05
 10
-1669.346763958521
 20
7405.396527315162
 30
0.0
  0
VERTEX
  5
181
  8
LAYER_05
 10
-1811.398532476913
 20
7125.958273849916
 30
0.0
 42
-0.7887161465933968
  0
VERTEX
  5
182
  8
LAYER_05
 10
-1842.081503845835
 20
7133.309426188587
 30
0.0
  0
VERTEX
  5
183
  8
LAYER_05
 10
-1842.081503845834
 20
7478.002153568198
 30
0.0
  0
VERTEX
  5
184
  8
LAYER_05
 10
-1768.087147369037
 20
7623.560733766262
 30
0.0
 42
-0.6134472320552782
  0
VERTEX
  5
185
  8
LAYER_05
 10
-1711.358084592616
 20
7623.560736639922
 30
0.0
  0
SEQEND
  5
186
  8
LAYER_05
  0
POLYLINE
  5
187
  8
LAYER_05
 66
     1
 10
0.0
 20
0.0
 30
0.0
 70
     1
  0
VERTEX
  5
188
  8
LAYER_05
 10
-1410.998074621979
 20
7129.803832644081
 30
0.0
 42
0.7887107070246329
  0
VERTEX
  5
189
  8
LAYER_05
 10
-1386.825805490899
 20
7135.595123805098
 30
0.0
  0
VERTEX
  5
18A
  8
LAYER_05
 10
-1386.825805490897
 20
7864.061200869445
 30
0.0
  0
VERTEX
  5
18B
  8
LAYER_05
 10
-1555.337684958621
 20
7532.571732081098
 30
0.0
 42
0.239584092585147
  0
VERTEX
  5
18C
  8
LAYER_05
 10
-1555.33768495912
 20
7413.742632133526
 30
0.0
  0
SEQEND
  5
18D
  8
LAYER_05
  0
POLYLINE
  5
18E
  8
LAYER_05
 66
     1
 10
0.0
 20
0.0
 30
0.0
 70
     1
  0
VERTEX
  5
18F
  8
LAYER_05
 10
-626.2791256121864
 20
9360.1765827528
 30
0.0
 42
-0.7887157401217135
  0
VERTEX
  5
190
  8
LAYER_05
 10
-567.098423062589
 20
9345.997827844854
 30
0.0
  0
VERTEX
  5
191
  8
LAYER_05
 10
-567.09842306259
 20
8588.782063007384
 30
0.0
  0
VERTEX
  5
192
  8
LAYER_05
 10
-798.1904685608071
 20
8134.187528512922
 30
0.0
 42
-0.7887157371176565
  0
VERTEX
  5
193
  8
LAYER_05
 10
-836.1330919654174
 20
8143.277977503766
 30
0.0
  0
VERTEX
  5
194
  8
LAYER_05
 10
-836.1330919654165
 20
8947.360702654065
 30
0.0
  0
SEQEND
  5
195
  8
LAYER_05
  0
POLYLINE
  5
196
  8
LAYER_05
 66
     1
 10
0.0
 20
0.0
 30
0.0
 70
     1
  0
VERTEX
  5
197
  8
LAYER_05
 10
-567.098423062591
 20
10859.2162557855
 30
0.0
 42
0.7887162252473607
  0
VERTEX
  5
198
  8
LAYER_05
 10
-626.7572669471301
 20
10873.50956586603
 30
0.0
  0
VERTEX
  5
199
  8
LAYER_05
 10
-938.6609339062261
 20
10259.9458147525
 30
0.0
 42
0.2395875902182125
  0
VERTEX
  5
19A
  8
LAYER_05
 10
-938.6608972535394
 20
10186.05872144715
 30
0.0
  0
VERTEX
  5
19B
  8
LAYER_05
 10
-880.6675432624543
 20
10071.97663911276
 30
0.0
 42
0.613442562798509
  0
VERTEX
  5
19C
  8
LAYER_05
 10
-836.0465633767577
 20
10071.97669777612
 30
0.0
  0
VERTEX
  5
19D
  8
LAYER_05
 10
-567.09842306259
 20
10601.04014686924
 30
0.0
  0
SEQEND
  5
19E
  8
LAYER_05
  0
POLYLINE
  5
19F
  8
LAYER_05
 66
     1
 10
0.0
 20
0.0
 30
0.0
 70
     1
  0
VERTEX
  5
1A0
  8
LAYER_05
 10
-637.9734399978452
 20
10364.51914847997
 30
0.0
 42
-0.7887200279758336
  0
VERTEX
  5
1A1
  8
LAYER_05
 10
-567.0984230625911
 20
10347.53862197729
 30
0.0
  0
VERTEX
  5
1A2
  8
LAYER_05
 10
-567.0984230625882
 20
10083.19379826158
 30
0.0
  0
VERTEX
  5
1A3
  8
LAYER_05
 10
-793.9335756836043
 20
9636.973244064598
 30
0.0
 42
-0.7887157491047347
  0
VERTEX
  5
1A4
  8
LAYER_05
 10
-836.1330919654165
 20
9647.083576877998
 30
0.0
  0
VERTEX
  5
1A5
  8
LAYER_05
 10
-836.1330919654165
 20
9974.707830883244
 30
0.0
  0
SEQEND
  5
1A6
  8
LAYER_05
  0
POLYLINE
  5
1A7
  8
LAYER_05
 66
     1
 10
0.0
 20
0.0
 30
0.0
 70
     1
  0
VERTEX
  5
1A8
  8
LAYER_05
 10
-1642.647464715431
 20
7360.819612271911
 30
0.0
 42
-0.6134444690231577
  0
VERTEX
  5
1A9
  8
LAYER_05
 10
-1577.794261594945
 20
7360.819611950735
 30
0.0
  0
VERTEX
  5
1AA
  8
LAYER_05
 10
-1420.471462399641
 20
7051.340830405627
 30
0.0
 42
-0.1181162805672204
  0
VERTEX
  5
1AB
  8
LAYER_05
 10
-1386.825805490897
 20
6910.907229110532
 30
0.0
  0
VERTEX
  5
1AC
  8
LAYER_05
 10
-1386.825805490897
 20
6447.093472964189
 30
0.0
  0
VERTEX
  5
1AD
  8
LAYER_05
 10
-1801.543937697647
 20
6447.093472964189
 30
0.0
 42
-0.4142135631483748
  0
VERTEX
  5
1AE
  8
LAYER_05
 10
-1842.081503845834
 20
6487.631039097098
 30
0.0
  0
VERTEX
  5
1AF
  8
LAYER_05
 10
-1842.081503845836
 20
6968.501373946673
 30
0.0
  0
SEQEND
  5
1B0
  8
LAYER_05
  0
POLYLINE
  5
1B1
  8
LAYER_05
 66
     1
 10
0.0
 20
0.0
 30
0.0
 70
     1
  0
VERTEX
  5
1B2
  8
LAYER_05
 10
-630.067031935625
 20
9862.225952663963
 30
0.0
 42
-0.7887179333865466
  0
VERTEX
  5
1B3
  8
LAYER_05
 10
-567.0984230625886
 20
9847.139675458911
 30
0.0
  0
VERTEX
  5
1B4
  8
LAYER_05
 10
-567.09842306259
 20
9573.693018640053
 30
0.0
  0
VERTEX
  5
1B5
  8
LAYER_05
 10
-787.4623687423818
 20
9140.202350063839
 30
0.0
 42
-0.7887157376704647
  0
VERTEX
  5
1B6
  8
LAYER_05
 10
-836.1330919654152
 20
9151.86308111355
 30
0.0
  0
VERTEX
  5
1B7
  8
LAYER_05
 10
-836.1330919654165
 20
9456.861482275588
 30
0.0
  0
SEQEND
  5
1B8
  8
LAYER_05
  0
POLYLINE
  5
1B9
  8
LAYER_05
 66
     1
 10
0.0
 20
0.0
 30
0.0
 70
     1
  0
VERTEX
  5
1BA
  8
LAYER_05
 10
-1806.080206878145
 20
8650.69382247232
 30
0.0
 42
-0.7887180051301793
  0
VERTEX
  5
1BB
  8
LAYER_05
 10
-1842.081503845834
 20
8659.319160337793
 30
0.0
  0
VERTEX
  5
1BC
  8
LAYER_05
 10
-1842.081503845834
 20
8907.071682244485
 30
0.0
 42
-0.1181160348697176
  0
VERTEX
  5
1BD
  8
LAYER_05
 10
-1806.694876381448
 20
9054.771920227357
 30
0.0
  0
VERTEX
  5
1BE
  8
LAYER_05
 10
-1518.320907921471
 20
9622.049039912532
 30
0.0
 42
-0.613444409211663
  0
VERTEX
  5
1BF
  8
LAYER_05
 10
-1464.257674579001
 20
9622.049040148679
 30
0.0
  0
VERTEX
  5
1C0
  8
LAYER_05
 10
-1420.120528905393
 20
9535.224306964328
 30
0.0
 42
-0.2395848358880312
  0
VERTEX
  5
1C1
  8
LAYER_05
 10
-1420.120528372961
 20
9409.9374390383
 30
0.0
  0
SEQEND
  5
1C2
  8
LAYER_05
  0
POLYLINE
  5
1C3
  8
LAYER_05
 66
     1
 10
0.0
 20
0.0
 30
0.0
 70
     1
  0
VERTEX
  5
1C4
  8
LAYER_05
 10
-1930.74410332372
 20
9160.598545357063
 30
0.0
 42
0.7887164120631027
  0
VERTEX
  5
1C5
  8
LAYER_05
 10
-1886.082412624322
 20
9171.298776954349
 30
0.0
  0
VERTEX
  5
1C6
  8
LAYER_05
 10
-1886.082412624322
 20
9892.501281305094
 30
0.0
 42
0.1181179239534742
  0
VERTEX
  5
1C7
  8
LAYER_05
 10
-1916.988588787051
 20
10021.50056440914
 30
0.0
  0
VERTEX
  5
1C8
  8
LAYER_05
 10
-2092.789018681795
 20
10367.32776248353
 30
0.0
 42
0.7887158353464293
  0
VERTEX
  5
1C9
  8
LAYER_05
 10
-2157.09842306259
 20
10351.92025220461
 30
0.0
  0
VERTEX
  5
1CA
  8
LAYER_05
 10
-2157.09842306259
 20
9605.873225368912
 30
0.0
  0
SEQEND
  5
1CB
  8
LAYER_05
  0
POLYLINE
  5
1CC
  8
LAYER_05
 66
     1
 10
0.0
 20
0.0
 30
0.0
 70
     1
  0
VERTEX
  5
1CD
  8
LAYER_05
 10
-1097.885350143499
 20
11361.8083755891
 30
0.0
 42
0.613448574979847
  0
VERTEX
  5
1CE
  8
LAYER_05
 10
-1143.427571189574
 20
11361.80839575764
 30
0.0
  0
VERTEX
  5
1CF
  8
LAYER_05
 10
-1307.560073667953
 20
11038.93385285112
 30
0.0
 42
0.2395840927381371
  0
VERTEX
  5
1D0
  8
LAYER_05
 10
-1307.560073655631
 20
10911.74163714574
 30
0.0
  0
VERTEX
  5
1D1
  8
LAYER_05
 10
-1142.782485155895
 20
10587.59810819967
 30
0.0
 42
0.6134449813272206
  0
VERTEX
  5
1D2
  8
LAYER_05
 10
-1076.846212328968
 20
10587.59811038352
 30
0.0
  0
VERTEX
  5
1D3
  8
LAYER_05
 10
-929.388969399301
 20
10877.66978534287
 30
0.0
 42
0.2395840925718333
  0
VERTEX
  5
1D4
  8
LAYER_05
 10
-929.3889694050904
 20
11030.349395248
 30
0.0
  0
SEQEND
  5
1D5
  8
LAYER_05
  0
POLYLINE
  5
1D6
  8
LAYER_05
 66
     1
 10
0.0
 20
0.0
 30
0.0
 70
     1
  0
VERTEX
  5
1D7
  8
LAYER_05
 10
-1049.558447926282
 20
10138.89154950445
 30
0.0
 42
0.2395842071734008
  0
VERTEX
  5
1D8
  8
LAYER_05
 10
-1049.558439006375
 20
10307.11304124994
 30
0.0
  0
VERTEX
  5
1D9
  8
LAYER_05
 10
-1086.492809699146
 20
10379.76877899171
 30
0.0
 42
0.613443748558197
  0
VERTEX
  5
1DA
  8
LAYER_05
 10
-1133.13589653609
 20
10379.76876396219
 30
0.0
  0
VERTEX
  5
1DB
  8
LAYER_05
 10
-1189.448098974853
 20
10268.99377212369
 30
0.0
 42
0.2395841536385928
  0
VERTEX
  5
1DC
  8
LAYER_05
 10
-1189.44809435052
 20
10145.96774890228
 30
0.0
  0
VERTEX
  5
1DD
  8
LAYER_05
 10
-1149.933504293139
 20
10068.23631234787
 30
0.0
 42
0.6134437922676891
  0
VERTEX
  5
1DE
  8
LAYER_05
 10
-1085.475856439162
 20
10068.23633691175
 30
0.0
  0
SEQEND
  5
1DF
  8
LAYER_05
  0
POLYLINE
  5
1E0
  8
LAYER_05
 66
     1
 10
0.0
 20
0.0
 30
0.0
 70
     1
  0
VERTEX
  5
1E1
  8
LAYER_05
 10
-1178.191511237336
 20
10026.72562141574
 30
0.0
 42
-0.239584092480473
  0
VERTEX
  5
1E2
  8
LAYER_05
 10
-1178.191511243993
 20
9885.850007492736
 30
0.0
  0
VERTEX
  5
1E3
  8
LAYER_05
 10
-1215.508482428021
 20
9812.441634186018
 30
0.0
 42
-0.6134443664051491
  0
VERTEX
  5
1E4
  8
LAYER_05
 10
-1258.011791059903
 20
9812.441634896659
 30
0.0
  0
VERTEX
  5
1E5
  8
LAYER_05
 10
-1315.053758436145
 20
9924.65218957043
 30
0.0
 42
-0.2395793339382044
  0
VERTEX
  5
1E6
  8
LAYER_05
 10
-1315.053758436146
 20
10021.90761141412
 30
0.0
  0
VERTEX
  5
1E7
  8
LAYER_05
 10
-1265.131304258277
 20
10120.11295971541
 30
0.0
 42
-0.6134443874779799
  0
VERTEX
  5
1E8
  8
LAYER_05
 10
-1225.66474161925
 20
10120.11295986734
 30
0.0
  0
SEQEND
  5
1E9
  8
LAYER_05
  0
POLYLINE
  5
1EA
  8
LAYER_05
 66
     1
 10
0.0
 20
0.0
 30
0.0
 70
     1
  0
VERTEX
  5
1EB
  8
LAYER_05
 10
-1294.983569491558
 20
9788.072308066847
 30
0.0
 42
-0.2395840926013003
  0
VERTEX
  5
1EC
  8
LAYER_05
 10
-1294.983569502243
 20
9656.101591695498
 30
0.0
  0
VERTEX
  5
1ED
  8
LAYER_05
 10
-1337.126264906487
 20
9573.200257041884
 30
0.0
 42
-0.6134458722137942
  0
VERTEX
  5
1EE
  8
LAYER_05
 10
-1390.065643887297
 20
9573.200255063624
 30
0.0
  0
VERTEX
  5
1EF
  8
LAYER_05
 10
-1439.831486373673
 20
9671.097523444476
 30
0.0
 42
-0.2395844528527015
  0
VERTEX
  5
1F0
  8
LAYER_05
 10
-1439.831505483341
 20
9776.450085120232
 30
0.0
  0
VERTEX
  5
1F1
  8
LAYER_05
 10
-1393.227383738652
 20
9868.127749681875
 30
0.0
 42
-0.6134443900773926
  0
VERTEX
  5
1F2
  8
LAYER_05
 10
-1335.679561971415
 20
9868.127749686595
 30
0.0
  0
SEQEND
  5
1F3
  8
LAYER_05
  0
POLYLINE
  5
1F4
  8
LAYER_05
 66
     1
 10
0.0
 20
0.0
 30
0.0
 70
     1
  0
VERTEX
  5
1F5
  8
LAYER_05
 10
-1045.721876366199
 20
9297.7352083656
 30
0.0
 42
-0.2395843930239501
  0
VERTEX
  5
1F6
  8
LAYER_05
 10
-1045.721892178452
 20
9141.665877333951
 30
0.0
  0
VERTEX
  5
1F7
  8
LAYER_05
 10
-1294.853254368982
 20
8651.585159156017
 30
0.0
 42
-0.7887157294407829
  0
VERTEX
  5
1F8
  8
LAYER_05
 10
-1342.824896712411
 20
8663.078401575529
 30
0.0
  0
VERTEX
  5
1F9
  8
LAYER_05
 10
-1342.824896712412
 20
9464.891497174389
 30
0.0
  0
VERTEX
  5
1FA
  8
LAYER_05
 10
-1265.549285492463
 20
9616.904823442594
 30
0.0
 42
-0.61343884126683
  0
VERTEX
  5
1FB
  8
LAYER_05
 10
-1207.970975223484
 20
9616.904799028742
 30
0.0
  0
SEQEND
  5
1FC
  8
LAYER_05
  0
POLYLINE
  5
1FD
  8
LAYER_05
 66
     1
 10
0.0
 20
0.0
 30
0.0
 70
     1
  0
VERTEX
  5
1FE
  8
LAYER_05
 10
-1192.302614901457
 20
11758.70885881443
 30
0.0
 42
0.2395865669225991
  0
VERTEX
  5
1FF
  8
LAYER_05
 10
-1192.302435419446
 20
11644.64033883785
 30
0.0
  0
VERTEX
  5
200
  8
LAYER_05
 10
-1138.117128295815
 20
11538.04928584335
 30
0.0
 42
0.6134446934347743
  0
VERTEX
  5
201
  8
LAYER_05
 10
-1103.195802969054
 20
11538.04928647448
 30
0.0
  0
VERTEX
  5
202
  8
LAYER_05
 10
-567.09842306259
 20
12592.63746296003
 30
0.0
  0
VERTEX
  5
203
  8
LAYER_05
 10
-567.09842306259
 20
12747.09347296419
 30
0.0
  0
VERTEX
  5
204
  8
LAYER_05
 10
-689.8596577355993
 20
12747.09347296419
 30
0.0
  0
SEQEND
  5
205
  8
LAYER_05
  0
POLYLINE
  5
206
  8
LAYER_05
 66
     1
 10
0.0
 20
0.0
 30
0.0
 70
     1
  0
VERTEX
  5
207
  8
LAYER_05
 10
-1445.552049239414
 20
11183.19363701548
 30
0.0
 42
-0.2395840936782556
  0
VERTEX
  5
208
  8
LAYER_05
 10
-1445.552049196194
 20
11260.52724271423
 30
0.0
  0
VERTEX
  5
209
  8
LAYER_05
 10
-1271.116778016837
 20
11603.66895808672
 30
0.0
 42
-0.6134471074903509
  0
VERTEX
  5
20A
  8
LAYER_05
 10
-1220.834590248932
 20
11603.66894007403
 30
0.0
  0
VERTEX
  5
20B
  8
LAYER_05
 10
-1171.604963833735
 20
11506.82649335414
 30
0.0
 42
-0.2395840935877481
  0
VERTEX
  5
20C
  8
LAYER_05
 10
-1171.604963876788
 20
11403.4776676593
 30
0.0
  0
VERTEX
  5
20D
  8
LAYER_05
 10
-1343.93040089212
 20
11064.48632915326
 30
0.0
 42
-0.613444236720357
  0
VERTEX
  5
20E
  8
LAYER_05
 10
-1385.207471273538
 20
11064.48632595023
 30
0.0
  0
SEQEND
  5
20F
  8
LAYER_05
  0
POLYLINE
  5
210
  8
LAYER_05
 66
     1
 10
0.0
 20
0.0
 30
0.0
 70
     1
  0
VERTEX
  5
211
  8
LAYER_05
 10
-1816.175629152008
 20
10531.45215300509
 30
0.0
 42
0.2395840933955299
  0
VERTEX
  5
212
  8
LAYER_05
 10
-1816.175629116989
 20
10411.42586322471
 30
0.0
  0
VERTEX
  5
213
  8
LAYER_05
 10
-1772.998333276954
 20
10326.48930618826
 30
0.0
 42
0.6134462487167955
  0
VERTEX
  5
214
  8
LAYER_05
 10
-1719.089424106955
 20
10326.48930657266
 30
0.0
  0
VERTEX
  5
215
  8
LAYER_05
 10
-1668.979654339906
 20
10425.06313420816
 30
0.0
 42
0.2395841034185036
  0
VERTEX
  5
216
  8
LAYER_05
 10
-1668.979653877517
 20
10523.78164638545
 30
0.0
  0
VERTEX
  5
217
  8
LAYER_05
 10
-1725.973857844417
 20
10635.89824289294
 30
0.0
 42
0.6134441158835519
  0
VERTEX
  5
218
  8
LAYER_05
 10
-1763.080703694533
 20
10635.89825313078
 30
0.0
  0
SEQEND
  5
219
  8
LAYER_05
  0
POLYLINE
  5
21A
  8
LAYER_05
 66
     1
 10
0.0
 20
0.0
 30
0.0
 70
     1
  0
VERTEX
  5
21B
  8
LAYER_05
 10
-623.4572925443235
 20
7623.275590121038
 30
0.0
 42
-0.7887159256491899
  0
VERTEX
  5
21C
  8
LAYER_05
 10
-567.0984230625902
 20
7609.772901454269
 30
0.0
  0
VERTEX
  5
21D
  8
LAYER_05
 10
-567.09842306259
 20
6447.093472964189
 30
0.0
  0
VERTEX
  5
21E
  8
LAYER_05
 10
-836.1330919654165
 20
6447.093472964189
 30
0.0
  0
VERTEX
  5
21F
  8
LAYER_05
 10
-836.1330919654165
 20
7204.908718913372
 30
0.0
  0
SEQEND
  5
220
  8
LAYER_05
  0
POLYLINE
  5
221
  8
LAYER_05
 66
     1
 10
0.0
 20
0.0
 30
0.0
 70
     1
  0
VERTEX
  5
222
  8
LAYER_05
 10
-1739.218026765971
 20
11863.94131709011
 30
0.0
 42
0.2395843769407543
  0
VERTEX
  5
223
  8
LAYER_05
 10
-1739.218022282922
 20
11760.88096513083
 30
0.0
  0
VERTEX
  5
224
  8
LAYER_05
 10
-1510.129684541611
 20
11310.22804010653
 30
0.0
 42
0.6134443902830329
  0
VERTEX
  5
225
  8
LAYER_05
 10
-1469.646635089063
 20
11310.22804010655
 30
0.0
  0
VERTEX
  5
226
  8
LAYER_05
 10
-1301.426346953492
 20
11641.14390271292
 30
0.0
 42
0.2395840936352384
  0
VERTEX
  5
227
  8
LAYER_05
 10
-1301.42634690233
 20
11762.20564790817
 30
0.0
  0
VERTEX
  5
228
  8
LAYER_05
 10
-1530.772072301254
 20
12213.36489508711
 30
0.0
 42
0.6134486978636006
  0
VERTEX
  5
229
  8
LAYER_05
 10
-1561.589387211604
 20
12213.36489217256
 30
0.0
  0
SEQEND
  5
22A
  8
LAYER_05
  0
POLYLINE
  5
22B
  8
LAYER_05
 66
     1
 10
0.0
 20
0.0
 30
0.0
 70
     1
  0
VERTEX
  5
22C
  8
LAYER_05
 10
-1811.139367647174
 20
11902.36160521773
 30
0.0
 42
0.6134444047132708
  0
VERTEX
  5
22D
  8
LAYER_05
 10
-1769.047032594854
 20
11902.36160521268
 30
0.0
  0
VERTEX
  5
22E
  8
LAYER_05
 10
-1600.887876970644
 20
12233.15721051861
 30
0.0
 42
0.239584092494499
  0
VERTEX
  5
22F
  8
LAYER_05
 10
-1600.887876968305
 20
12351.29375159363
 30
0.0
  0
VERTEX
  5
230
  8
LAYER_05
 10
-1802.091719686875
 20
12747.09347296419
 30
0.0
  0
VERTEX
  5
231
  8
LAYER_05
 10
-2157.09842306259
 20
12747.09347296419
 30
0.0
  0
VERTEX
  5
232
  8
LAYER_05
 10
-2157.09842306259
 20
12582.91768152771
 30
0.0
  0
SEQEND
  5
233
  8
LAYER_05
  0
POLYLINE
  5
234
  8
LAYER_05
 66
     1
 10
0.0
 20
0.0
 30
0.0
 70
     1
  0
VERTEX
  5
235
  8
LAYER_05
 10
-2087.900291142582
 20
12349.69538068237
 30
0.0
 42
0.7887157688887881
  0
VERTEX
  5
236
  8
LAYER_05
 10
-2157.09842306259
 20
12333.11660905922
 30
0.0
  0
VERTEX
  5
237
  8
LAYER_05
 10
-2157.09842306259
 20
11581.08697300981
 30
0.0
  0
VERTEX
  5
238
  8
LAYER_05
 10
-2071.508988165077
 20
11412.71904311852
 30
0.0
 42
0.6134443929310516
  0
VERTEX
  5
239
  8
LAYER_05
 10
-2017.955659183086
 20
11412.71904312628
 30
0.0
  0
VERTEX
  5
23A
  8
LAYER_05
 10
-1858.396229080536
 20
11726.59763074833
 30
0.0
 42
0.2395795725367763
  0
VERTEX
  5
23B
  8
LAYER_05
 10
-1858.396229080537
 20
11898.22466029149
 30
0.0
  0
SEQEND
  5
23C
  8
LAYER_05
  0
POLYLINE
  5
23D
  8
LAYER_05
 66
     1
 10
0.0
 20
0.0
 30
0.0
 70
     1
  0
VERTEX
  5
23E
  8
LAYER_05
 10
-2095.567032588497
 20
11362.94636288724
 30
0.0
 42
0.7887158287876457
  0
VERTEX
  5
23F
  8
LAYER_05
 10
-2157.09842306259
 20
11348.20442065939
 30
0.0
  0
VERTEX
  5
240
  8
LAYER_05
 10
-2157.09842306259
 20
11082.0748181817
 30
0.0
  0
VERTEX
  5
241
  8
LAYER_05
 10
-1898.094945661368
 20
10572.57409093766
 30
0.0
 42
0.6134443961266439
  0
VERTEX
  5
242
  8
LAYER_05
 10
-1844.631257755516
 20
10572.5740909361
 30
0.0
  0
VERTEX
  5
243
  8
LAYER_05
 10
-1791.843029219807
 20
10676.41686980043
 30
0.0
 42
0.2395844817397929
  0
VERTEX
  5
244
  8
LAYER_05
 10
-1791.843011945559
 20
10765.4732673452
 30
0.0
  0
SEQEND
  5
245
  8
LAYER_05
  0
POLYLINE
  5
246
  8
LAYER_05
 66
     1
 10
0.0
 20
0.0
 30
0.0
 70
     1
  0
VERTEX
  5
247
  8
LAYER_05
 10
-2177.09842306259
 20
6427.093472964189
 30
0.0
  0
VERTEX
  5
248
  8
LAYER_05
 10
-547.09842306259
 20
6427.093472964189
 30
0.0
  0
VERTEX
  5
249
  8
LAYER_05
 10
-547.09842306259
 20
12767.09347296419
 30
0.0
  0
VERTEX
  5
24A
  8
LAYER_05
 10
-2177.09842306259
 20
12767.09347296419
 30
0.0
  0
SEQEND
  5
24B
  8
LAYER_05
  0
ENDSEC
  0
EOF
