  0
SECTION
  2
HEADER
  9
$ACADVER
  1
AC1009
  9
$DWGCODEPAGE
  3
ansi_1252
  9
$INSBASE
 10
0.0
 20
0.0
 30
0.0
  9
$EXTMIN
 10
1.000000000000000E+20
 20
1.000000000000000E+20
 30
1.000000000000000E+20
  9
$EXTMAX
 10
-1.000000000000000E+20
 20
-1.000000000000000E+20
 30
-1.000000000000000E+20
  9
$LIMMIN
 10
0.0
 20
0.0
  9
$LIMMAX
 10
12.0
 20
9.0
  9
$ORTHOMODE
 70
     0
  9
$REGENMODE
 70
     1
  9
$FILLMODE
 70
     1
  9
$QTEXTMODE
 70
     0
  9
$MIRRTEXT
 70
     1
  9
$DRAGMODE
 70
     2
  9
$LTSCALE
 40
1.0
  9
$OSMODE
 70
    37
  9
$ATTMODE
 70
     1
  9
$TEXTSIZE
 40
0.2
  9
$TRACEWID
 40
0.05
  9
$TEXTSTYLE
  7
STANDARD
  9
$CLAYER
  8
LAYER_01
  9
$CELTYPE
  6
BYLAYER
  9
$CECOLOR
 62
   256
  9
$DIMSCALE
 40
1.0
  9
$DIMASZ
 40
0.18
  9
$DIMEXO
 40
0.0625
  9
$DIMDLI
 40
0.38
  9
$DIMRND
 40
0.0
  9
$DIMDLE
 40
0.0
  9
$DIMEXE
 40
0.18
  9
$DIMTP
 40
0.0
  9
$DIMTM
 40
0.0
  9
$DIMTXT
 40
0.18
  9
$DIMCEN
 40
0.09
  9
$DIMTSZ
 40
0.0
  9
$DIMTOL
 70
     0
  9
$DIMLIM
 70
     0
  9
$DIMTIH
 70
     1
  9
$DIMTOH
 70
     1
  9
$DIMSE1
 70
     0
  9
$DIMSE2
 70
     0
  9
$DIMTAD
 70
     0
  9
$DIMZIN
 70
     0
  9
$DIMBLK
  1

  9
$DIMASO
 70
     1
  9
$DIMSHO
 70
     1
  9
$DIMPOST
  1

  9
$DIMAPOST
  1

  9
$DIMALT
 70
     0
  9
$DIMALTD
 70
     2
  9
$DIMALTF
 40
25.4
  9
$DIMLFAC
 40
1.0
  9
$DIMTOFL
 70
     0
  9
$DIMTVP
 40
0.0
  9
$DIMTIX
 70
     0
  9
$DIMSOXD
 70
     0
  9
$DIMSAH
 70
     0
  9
$DIMBLK1
  1

  9
$DIMBLK2
  1

  9
$DIMSTYLE
  2
STANDARD_ACAD
  9
$DIMCLRD
 70
     0
  9
$DIMCLRE
 70
     0
  9
$DIMCLRT
 70
     0
  9
$DIMTFAC
 40
1.0
  9
$DIMGAP
 40
0.09
  9
$LUNITS
 70
     2
  9
$LUPREC
 70
     3
  9
$SKETCHINC
 40
0.1
  9
$FILLETRAD
 40
0.5
  9
$AUNITS
 70
     0
  9
$AUPREC
 70
     0
  9
$MENU
  1
.
  9
$ELEVATION
 40
0.0
  9
$PELEVATION
 40
0.0
  9
$THICKNESS
 40
0.0
  9
$LIMCHECK
 70
     0
  9
$CHAMFERA
 40
0.0
  9
$CHAMFERB
 40
0.0
  9
$SKPOLY
 70
     0
  9
$TDCREATE
 40
2459900.922647974
  9
$TDUPDATE
 40
2459900.922648032
  9
$TDINDWG
 40
0.0000000116
  9
$TDUSRTIMER
 40
0.0000000116
  9
$USRTIMER
 70
     1
  9
$ANGBASE
 50
0.0
  9
$ANGDIR
 70
     0
  9
$PDMODE
 70
     0
  9
$PDSIZE
 40
0.0
  9
$PLINEWID
 40
0.0
  9
$COORDS
 70
     1
  9
$SPLFRAME
 70
     0
  9
$SPLINETYPE
 70
     6
  9
$SPLINESEGS
 70
     8
  9
$ATTDIA
 70
     0
  9
$ATTREQ
 70
     1
  9
$HANDLING
 70
     1
  9
$HANDSEED
  5
376
  9
$SURFTAB1
 70
     6
  9
$SURFTAB2
 70
     6
  9
$SURFTYPE
 70
     6
  9
$SURFU
 70
     6
  9
$SURFV
 70
     6
  9
$UCSNAME
  2

  9
$UCSORG
 10
0.0
 20
0.0
 30
0.0
  9
$UCSXDIR
 10
1.0
 20
0.0
 30
0.0
  9
$UCSYDIR
 10
0.0
 20
1.0
 30
0.0
  9
$PUCSNAME
  2

  9
$PUCSORG
 10
0.0
 20
0.0
 30
0.0
  9
$PUCSXDIR
 10
1.0
 20
0.0
 30
0.0
  9
$PUCSYDIR
 10
0.0
 20
1.0
 30
0.0
  9
$USERI1
 70
     0
  9
$USERI2
 70
     0
  9
$USERI3
 70
     0
  9
$USERI4
 70
     0
  9
$USERI5
 70
     0
  9
$USERR1
 40
0.0
  9
$USERR2
 40
0.0
  9
$USERR3
 40
0.0
  9
$USERR4
 40
0.0
  9
$USERR5
 40
0.0
  9
$WORLDVIEW
 70
     1
  9
$SHADEDGE
 70
     3
  9
$SHADEDIF
 70
    70
  9
$TILEMODE
 70
     1
  9
$MAXACTVP
 70
    64
  9
$PLIMCHECK
 70
     0
  9
$PEXTMIN
 10
1.000000000000000E+20
 20
1.000000000000000E+20
 30
1.000000000000000E+20
  9
$PEXTMAX
 10
-1.000000000000000E+20
 20
-1.000000000000000E+20
 30
-1.000000000000000E+20
  9
$PLIMMIN
 10
0.0
 20
0.0
  9
$PLIMMAX
 10
12.0
 20
9.0
  9
$UNITMODE
 70
     0
  9
$VISRETAIN
 70
     1
  9
$PLINEGEN
 70
     0
  9
$PSLTSCALE
 70
     1
  0
ENDSEC
  0
SECTION
  2
TABLES
  0
TABLE
  2
VPORT
 70
     1
  0
VPORT
  2
*ACTIVE
 70
     0
 10
0.0
 20
0.0
 11
1.0
 21
1.0
 12
10.42990654205607
 22
4.5
 13
0.0
 23
0.0
 14
0.5
 24
0.5
 15
0.5
 25
0.5
 16
0.0
 26
0.0
 36
1.0
 17
0.0
 27
0.0
 37
0.0
 40
9.0
 41
1.972972972850329
 42
50.0
 43
0.0
 44
0.0
 50
0.0
 51
0.0
 71
     0
 72
   100
 73
     1
 74
     3
 75
     0
 76
     0
 77
     0
 78
     0
  0
ENDTAB
  0
TABLE
  2
LTYPE
 70
     1
  0
LTYPE
  2
CONTINUOUS
 70
     0
  3
Solid line
 72
    65
 73
     0
 40
0.0
  0
ENDTAB
  0
TABLE
  2
LAYER
 70
     2
  0
LAYER
  2
0
 70
     0
 62
     7
  6
CONTINUOUS
  0
LAYER
  2
LAYER_01
 70
     0
 62
     7
  6
CONTINUOUS
  0
ENDTAB
  0
TABLE
  2
STYLE
 70
     1
  0
STYLE
  2
STANDARD
 70
     0
 40
0.0
 41
1.0
 50
0.0
 71
     0
 42
0.2
  3
txt
  4

  0
ENDTAB
  0
TABLE
  2
VIEW
 70
     0
  0
ENDTAB
  0
TABLE
  2
UCS
 70
     0
  0
ENDTAB
  0
TABLE
  2
APPID
 70
     2
  0
APPID
  2
ACAD
 70
     0
  0
APPID
  2
RHINO
 70
     0
  0
ENDTAB
  0
TABLE
  2
DIMSTYLE
 70
     1
  0
DIMSTYLE
  2
STANDARD_ACAD
 70
     0
  3

  4

  5

  6

  7

 40
1.0
 41
0.18
 42
0.0625
 43
0.38
 44
0.18
 45
0.0
 46
0.0
 47
0.0
 48
0.0
140
0.18
141
0.09
142
0.0
143
25.4
144
1.0
145
0.0
146
1.0
147
0.09
 71
     0
 72
     0
 73
     1
 74
     1
 75
     0
 76
     0
 77
     0
 78
     0
170
     0
171
     2
172
     0
173
     0
174
     0
175
     0
176
     0
177
     0
178
     0
  0
ENDTAB
  0
ENDSEC
  0
SECTION
  2
BLOCKS
  0
BLOCK
  8
0
  2
$MODEL_SPACE
 70
     0
 10
0.0
 20
0.0
 30
0.0
  3
$MODEL_SPACE
  1

  0
ENDBLK
  5
21
  8
0
  0
BLOCK
 67
     1
  8
0
  2
$PAPER_SPACE
 70
     0
 10
0.0
 20
0.0
 30
0.0
  3
$PAPER_SPACE
  1

  0
ENDBLK
  5
1D
 67
     1
  8
0
  0
ENDSEC
  0
SECTION
  2
ENTITIES
  0
POLYLINE
  5
70
  8
LAYER_01
 66
     1
 10
0.0
 20
0.0
 30
0.0
 70
     1
  0
VERTEX
  5
71
  8
LAYER_01
 10
1620.024269669567
 20
121.9497865863079
 30
0.0
  0
VERTEX
  5
72
  8
LAYER_01
 10
2188.827063130977
 20
121.9497865863079
 30
0.0
  0
VERTEX
  5
73
  8
LAYER_01
 10
2188.827063130977
 20
1944.824877152497
 30
0.0
  0
VERTEX
  5
74
  8
LAYER_01
 10
1620.024269669567
 20
1944.824877152497
 30
0.0
  0
SEQEND
  5
75
  8
LAYER_01
  0
POLYLINE
  5
76
  8
LAYER_01
 66
     1
 10
0.0
 20
0.0
 30
0.0
 70
     1
  0
VERTEX
  5
77
  8
LAYER_01
 10
1640.821017263613
 20
142.7465341803536
 30
0.0
  0
VERTEX
  5
78
  8
LAYER_01
 10
2168.030315536931
 20
142.7465341803536
 30
0.0
  0
VERTEX
  5
79
  8
LAYER_01
 10
2168.030315536931
 20
1924.028129558451
 30
0.0
  0
VERTEX
  5
7A
  8
LAYER_01
 10
1640.821017263613
 20
1924.028129558451
 30
0.0
  0
SEQEND
  5
7B
  8
LAYER_01
  0
POLYLINE
  5
7C
  8
LAYER_01
 66
     1
 10
0.0
 20
0.0
 30
0.0
 70
     1
  0
VERTEX
  5
7D
  8
LAYER_01
 10
1784.850979444288
 20
736.5070659730527
 30
0.0
  0
VERTEX
  5
7E
  8
LAYER_01
 10
1748.124282354818
 20
699.7803688835817
 30
0.0
  0
VERTEX
  5
7F
  8
LAYER_01
 10
1711.397585265347
 20
736.5070659730527
 30
0.0
  0
VERTEX
  5
80
  8
LAYER_01
 10
1748.124282354818
 20
773.2337630625237
 30
0.0
  0
SEQEND
  5
81
  8
LAYER_01
  0
POLYLINE
  5
82
  8
LAYER_01
 66
     1
 10
0.0
 20
0.0
 30
0.0
 70
     1
  0
VERTEX
  5
83
  8
LAYER_01
 10
2024.000353356255
 20
736.5070659730527
 30
0.0
  0
VERTEX
  5
84
  8
LAYER_01
 10
2060.727050445726
 20
699.7803688835817
 30
0.0
  0
VERTEX
  5
85
  8
LAYER_01
 10
2097.453747535197
 20
736.5070659730527
 30
0.0
  0
VERTEX
  5
86
  8
LAYER_01
 10
2060.727050445726
 20
773.2337630625237
 30
0.0
  0
SEQEND
  5
87
  8
LAYER_01
  0
POLYLINE
  5
88
  8
LAYER_01
 66
     1
 10
0.0
 20
0.0
 30
0.0
 70
     1
  0
VERTEX
  5
89
  8
LAYER_01
 10
1784.850979444288
 20
1330.267597765752
 30
0.0
  0
VERTEX
  5
8A
  8
LAYER_01
 10
1748.124282354818
 20
1366.994294855223
 30
0.0
  0
VERTEX
  5
8B
  8
LAYER_01
 10
1711.397585265347
 20
1330.267597765752
 30
0.0
  0
VERTEX
  5
8C
  8
LAYER_01
 10
1748.124282354818
 20
1293.540900676281
 30
0.0
  0
SEQEND
  5
8D
  8
LAYER_01
  0
POLYLINE
  5
8E
  8
LAYER_01
 66
     1
 10
0.0
 20
0.0
 30
0.0
 70
     1
  0
VERTEX
  5
8F
  8
LAYER_01
 10
2024.000353356255
 20
1330.267597765752
 30
0.0
  0
VERTEX
  5
90
  8
LAYER_01
 10
2060.727050445726
 20
1366.994294855223
 30
0.0
  0
VERTEX
  5
91
  8
LAYER_01
 10
2097.453747535197
 20
1330.267597765752
 30
0.0
  0
VERTEX
  5
92
  8
LAYER_01
 10
2060.727050445726
 20
1293.540900676281
 30
0.0
  0
SEQEND
  5
93
  8
LAYER_01
  0
POLYLINE
  5
94
  8
LAYER_01
 66
     1
 10
0.0
 20
0.0
 30
0.0
  0
VERTEX
  5
95
  8
LAYER_01
 10
1784.850979444288
 20
142.7465341803536
 30
0.0
  0
VERTEX
  5
96
  8
LAYER_01
 10
1748.124282354818
 20
179.4732312698247
 30
0.0
  0
VERTEX
  5
97
  8
LAYER_01
 10
1711.397585265347
 20
142.7465341803536
 30
0.0
  0
SEQEND
  5
98
  8
LAYER_01
  0
POLYLINE
  5
99
  8
LAYER_01
 66
     1
 10
0.0
 20
0.0
 30
0.0
  0
VERTEX
  5
9A
  8
LAYER_01
 10
2024.000353356255
 20
142.7465341803536
 30
0.0
  0
VERTEX
  5
9B
  8
LAYER_01
 10
2060.727050445726
 20
179.4732312698247
 30
0.0
  0
VERTEX
  5
9C
  8
LAYER_01
 10
2097.453747535197
 20
142.7465341803536
 30
0.0
  0
SEQEND
  5
9D
  8
LAYER_01
  0
POLYLINE
  5
9E
  8
LAYER_01
 66
     1
 10
0.0
 20
0.0
 30
0.0
 70
     1
  0
VERTEX
  5
9F
  8
LAYER_01
 10
1879.699306022989
 20
477.8073283630594
 30
0.0
 42
0.1057414670405533
  0
VERTEX
  5
A0
  8
LAYER_01
 10
1866.245138113915
 20
464.3531604539855
 30
0.0
  0
VERTEX
  5
A1
  8
LAYER_01
 10
1809.486844953626
 20
485.1288505288766
 30
0.0
  0
VERTEX
  5
A2
  8
LAYER_01
 10
1809.486844953626
 20
534.5656215233489
 30
0.0
  0
VERTEX
  5
A3
  8
LAYER_01
 10
1858.923615948098
 20
534.5656215233489
 30
0.0
  0
SEQEND
  5
A4
  8
LAYER_01
  0
POLYLINE
  5
A5
  8
LAYER_01
 66
     1
 10
0.0
 20
0.0
 30
0.0
 70
     1
  0
VERTEX
  5
A6
  8
LAYER_01
 10
1929.152026777555
 20
477.8073283630594
 30
0.0
 42
-0.1057414670405533
  0
VERTEX
  5
A7
  8
LAYER_01
 10
1942.606194686628
 20
464.3531604539855
 30
0.0
  0
VERTEX
  5
A8
  8
LAYER_01
 10
1999.364487846918
 20
485.1288505288766
 30
0.0
  0
VERTEX
  5
A9
  8
LAYER_01
 10
1999.364487846918
 20
534.5656215233489
 30
0.0
  0
VERTEX
  5
AA
  8
LAYER_01
 10
1949.927716852446
 20
534.5656215233489
 30
0.0
  0
SEQEND
  5
AB
  8
LAYER_01
  0
POLYLINE
  5
AC
  8
LAYER_01
 66
     1
 10
0.0
 20
0.0
 30
0.0
 70
     1
  0
VERTEX
  5
AD
  8
LAYER_01
 10
1879.699306022989
 20
401.4462717903469
 30
0.0
 42
-0.1057414670405533
  0
VERTEX
  5
AE
  8
LAYER_01
 10
1866.245138113915
 20
414.9004396994208
 30
0.0
  0
VERTEX
  5
AF
  8
LAYER_01
 10
1809.486844953626
 20
394.1247496245296
 30
0.0
  0
VERTEX
  5
B0
  8
LAYER_01
 10
1809.486844953626
 20
344.6879786300574
 30
0.0
  0
VERTEX
  5
B1
  8
LAYER_01
 10
1858.923615948098
 20
344.6879786300574
 30
0.0
  0
SEQEND
  5
B2
  8
LAYER_01
  0
POLYLINE
  5
B3
  8
LAYER_01
 66
     1
 10
0.0
 20
0.0
 30
0.0
 70
     1
  0
VERTEX
  5
B4
  8
LAYER_01
 10
1859.230046584912
 20
434.478830842336
 30
0.0
 42
-0.0567685437425456
  0
VERTEX
  5
B5
  8
LAYER_01
 10
1859.230046584912
 20
444.77476931107
 30
0.0
  0
VERTEX
  5
B6
  8
LAYER_01
 10
1797.796776031292
 20
467.2616785932871
 30
0.0
  0
VERTEX
  5
B7
  8
LAYER_01
 10
1770.161897514708
 20
439.6268000767036
 30
0.0
  0
VERTEX
  5
B8
  8
LAYER_01
 10
1797.796776031292
 20
411.9919215601192
 30
0.0
  0
SEQEND
  5
B9
  8
LAYER_01
  0
POLYLINE
  5
BA
  8
LAYER_01
 66
     1
 10
0.0
 20
0.0
 30
0.0
 70
     1
  0
VERTEX
  5
BB
  8
LAYER_01
 10
1929.152026777555
 20
401.4462717903469
 30
0.0
 42
0.1057414670405533
  0
VERTEX
  5
BC
  8
LAYER_01
 10
1942.606194686628
 20
414.9004396994208
 30
0.0
  0
VERTEX
  5
BD
  8
LAYER_01
 10
1999.364487846918
 20
394.1247496245296
 30
0.0
  0
VERTEX
  5
BE
  8
LAYER_01
 10
1999.364487846918
 20
344.6879786300574
 30
0.0
  0
VERTEX
  5
BF
  8
LAYER_01
 10
1949.927716852446
 20
344.6879786300574
 30
0.0
  0
SEQEND
  5
C0
  8
LAYER_01
  0
POLYLINE
  5
C1
  8
LAYER_01
 66
     1
 10
0.0
 20
0.0
 30
0.0
 70
     1
  0
VERTEX
  5
C2
  8
LAYER_01
 10
1949.621286215632
 20
434.478830842336
 30
0.0
  0
VERTEX
  5
C3
  8
LAYER_01
 10
2011.054556769252
 20
411.9919215601192
 30
0.0
  0
VERTEX
  5
C4
  8
LAYER_01
 10
2038.689435285836
 20
439.6268000767031
 30
0.0
  0
VERTEX
  5
C5
  8
LAYER_01
 10
2011.054556769252
 20
467.2616785932871
 30
0.0
  0
VERTEX
  5
C6
  8
LAYER_01
 10
1949.621286215632
 20
444.77476931107
 30
0.0
 42
-0.0567685437425733
  0
SEQEND
  5
C7
  8
LAYER_01
  0
POLYLINE
  5
C8
  8
LAYER_01
 66
     1
 10
0.0
 20
0.0
 30
0.0
 70
     1
  0
VERTEX
  5
C9
  8
LAYER_01
 10
1691.116583353967
 20
727.3770253836833
 30
0.0
  0
VERTEX
  5
CA
  8
LAYER_01
 10
1640.821017263613
 20
727.3770253836826
 30
0.0
  0
VERTEX
  5
CB
  8
LAYER_01
 10
1640.821017263613
 20
628.7903069526869
 30
0.0
  0
VERTEX
  5
CC
  8
LAYER_01
 10
1658.977618843768
 20
610.633705372532
 30
0.0
  0
VERTEX
  5
CD
  8
LAYER_01
 10
1733.418761104444
 20
685.0748476332076
 30
0.0
  0
SEQEND
  5
CE
  8
LAYER_01
  0
POLYLINE
  5
CF
  8
LAYER_01
 66
     1
 10
0.0
 20
0.0
 30
0.0
 70
     1
  0
VERTEX
  5
D0
  8
LAYER_01
 10
1663.37027239783
 20
576.8300093177195
 30
0.0
  0
VERTEX
  5
D1
  8
LAYER_01
 10
1705.634660192202
 20
534.5656215233482
 30
0.0
  0
VERTEX
  5
D2
  8
LAYER_01
 10
1788.69009735958
 20
534.565621523349
 30
0.0
  0
VERTEX
  5
D3
  8
LAYER_01
 10
1788.69009735958
 20
487.5660424223247
 30
0.0
  0
VERTEX
  5
D4
  8
LAYER_01
 10
1751.149228810981
 20
450.0251738737259
 30
0.0
  0
VERTEX
  5
D5
  8
LAYER_01
 10
1730.352481216936
 20
450.0251738737259
 30
0.0
  0
VERTEX
  5
D6
  8
LAYER_01
 10
1667.316270928118
 20
513.0613841625448
 30
0.0
  0
VERTEX
  5
D7
  8
LAYER_01
 10
1658.096348636893
 20
513.0613841625448
 30
0.0
  0
VERTEX
  5
D8
  8
LAYER_01
 10
1658.096348636893
 20
580.3413926649073
 30
0.0
  0
VERTEX
  5
D9
  8
LAYER_01
 10
1658.977618843768
 20
581.2226628717822
 30
0.0
  0
SEQEND
  5
DA
  8
LAYER_01
  0
POLYLINE
  5
DB
  8
LAYER_01
 66
     1
 10
0.0
 20
0.0
 30
0.0
 70
     1
  0
VERTEX
  5
DC
  8
LAYER_01
 10
1957.063502892067
 20
726.1086921760308
 30
0.0
  0
VERTEX
  5
DD
  8
LAYER_01
 10
1957.063502892067
 20
685.3504904555609
 30
0.0
  0
VERTEX
  5
DE
  8
LAYER_01
 10
1904.425666400272
 20
632.7126539637659
 30
0.0
  0
VERTEX
  5
DF
  8
LAYER_01
 10
1851.787829908476
 20
685.3504904555609
 30
0.0
  0
VERTEX
  5
E0
  8
LAYER_01
 10
1851.787829908476
 20
726.1086921760308
 30
0.0
  0
SEQEND
  5
E1
  8
LAYER_01
  0
POLYLINE
  5
E2
  8
LAYER_01
 66
     1
 10
0.0
 20
0.0
 30
0.0
 70
     1
  0
VERTEX
  5
E3
  8
LAYER_01
 10
1714.248955098906
 20
555.3623691173941
 30
0.0
  0
VERTEX
  5
E4
  8
LAYER_01
 10
1788.69009735958
 20
555.3623691173948
 30
0.0
  0
VERTEX
  5
E5
  8
LAYER_01
 10
1788.690097359581
 20
629.8035113780693
 30
0.0
  0
VERTEX
  5
E6
  8
LAYER_01
 10
1752.516935908881
 20
665.9766728287698
 30
0.0
  0
VERTEX
  5
E7
  8
LAYER_01
 10
1748.124282354818
 20
670.3693263828327
 30
0.0
  0
VERTEX
  5
E8
  8
LAYER_01
 10
1673.683140094143
 20
595.9281841221573
 30
0.0
  0
SEQEND
  5
E9
  8
LAYER_01
  0
POLYLINE
  5
EA
  8
LAYER_01
 66
     1
 10
0.0
 20
0.0
 30
0.0
 70
     1
  0
VERTEX
  5
EB
  8
LAYER_01
 10
1909.573635634639
 20
484.8224198920626
 30
0.0
 42
0.0567685437425675
  0
VERTEX
  5
EC
  8
LAYER_01
 10
1899.277697165905
 20
484.8224198920626
 30
0.0
  0
VERTEX
  5
ED
  8
LAYER_01
 10
1876.790787883687
 20
546.2556904456828
 30
0.0
  0
VERTEX
  5
EE
  8
LAYER_01
 10
1904.425666400272
 20
573.8905689622675
 30
0.0
  0
VERTEX
  5
EF
  8
LAYER_01
 10
1932.060544916857
 20
546.2556904456828
 30
0.0
  0
SEQEND
  5
F0
  8
LAYER_01
  0
POLYLINE
  5
F1
  8
LAYER_01
 66
     1
 10
0.0
 20
0.0
 30
0.0
 70
     1
  0
VERTEX
  5
F2
  8
LAYER_01
 10
2117.734749446577
 20
727.3770253836833
 30
0.0
  0
VERTEX
  5
F3
  8
LAYER_01
 10
2168.030315536931
 20
727.3770253836826
 30
0.0
  0
VERTEX
  5
F4
  8
LAYER_01
 10
2168.030315536931
 20
628.7903069526869
 30
0.0
  0
VERTEX
  5
F5
  8
LAYER_01
 10
2149.873713956776
 20
610.633705372532
 30
0.0
  0
VERTEX
  5
F6
  8
LAYER_01
 10
2075.4325716961
 20
685.0748476332076
 30
0.0
  0
SEQEND
  5
F7
  8
LAYER_01
  0
POLYLINE
  5
F8
  8
LAYER_01
 66
     1
 10
0.0
 20
0.0
 30
0.0
 70
     1
  0
VERTEX
  5
F9
  8
LAYER_01
 10
2145.481060402713
 20
576.8300093177195
 30
0.0
  0
VERTEX
  5
FA
  8
LAYER_01
 10
2103.216672608341
 20
534.5656215233482
 30
0.0
  0
VERTEX
  5
FB
  8
LAYER_01
 10
2020.161235440964
 20
534.565621523349
 30
0.0
  0
VERTEX
  5
FC
  8
LAYER_01
 10
2020.161235440964
 20
487.5660424223247
 30
0.0
  0
VERTEX
  5
FD
  8
LAYER_01
 10
2057.702103989563
 20
450.0251738737259
 30
0.0
  0
VERTEX
  5
FE
  8
LAYER_01
 10
2078.498851583608
 20
450.0251738737259
 30
0.0
  0
VERTEX
  5
FF
  8
LAYER_01
 10
2141.535061872426
 20
513.0613841625448
 30
0.0
  0
VERTEX
  5
100
  8
LAYER_01
 10
2150.754984163651
 20
513.0613841625448
 30
0.0
  0
VERTEX
  5
101
  8
LAYER_01
 10
2150.754984163651
 20
580.3413926649073
 30
0.0
  0
VERTEX
  5
102
  8
LAYER_01
 10
2149.873713956776
 20
581.2226628717822
 30
0.0
  0
SEQEND
  5
103
  8
LAYER_01
  0
POLYLINE
  5
104
  8
LAYER_01
 66
     1
 10
0.0
 20
0.0
 30
0.0
 70
     1
  0
VERTEX
  5
105
  8
LAYER_01
 10
2094.602377701638
 20
555.3623691173941
 30
0.0
  0
VERTEX
  5
106
  8
LAYER_01
 10
2020.161235440963
 20
555.3623691173948
 30
0.0
  0
VERTEX
  5
107
  8
LAYER_01
 10
2020.161235440962
 20
629.8035113780693
 30
0.0
  0
VERTEX
  5
108
  8
LAYER_01
 10
2056.334396891662
 20
665.9766728287698
 30
0.0
  0
VERTEX
  5
109
  8
LAYER_01
 10
2060.727050445726
 20
670.3693263828327
 30
0.0
  0
VERTEX
  5
10A
  8
LAYER_01
 10
2135.168192706401
 20
595.9281841221573
 30
0.0
  0
SEQEND
  5
10B
  8
LAYER_01
  0
POLYLINE
  5
10C
  8
LAYER_01
 66
     1
 10
0.0
 20
0.0
 30
0.0
 70
     1
  0
VERTEX
  5
10D
  8
LAYER_01
 10
1691.116583353967
 20
151.876574769723
 30
0.0
  0
VERTEX
  5
10E
  8
LAYER_01
 10
1640.821017263613
 20
151.8765747697237
 30
0.0
  0
VERTEX
  5
10F
  8
LAYER_01
 10
1640.821017263613
 20
250.4632932007194
 30
0.0
  0
VERTEX
  5
110
  8
LAYER_01
 10
1658.977618843768
 20
268.6198947808743
 30
0.0
  0
VERTEX
  5
111
  8
LAYER_01
 10
1733.418761104444
 20
194.1787525201987
 30
0.0
  0
SEQEND
  5
112
  8
LAYER_01
  0
POLYLINE
  5
113
  8
LAYER_01
 66
     1
 10
0.0
 20
0.0
 30
0.0
 70
     1
  0
VERTEX
  5
114
  8
LAYER_01
 10
1663.37027239783
 20
302.4235908356868
 30
0.0
  0
VERTEX
  5
115
  8
LAYER_01
 10
1705.634660192202
 20
344.6879786300581
 30
0.0
  0
VERTEX
  5
116
  8
LAYER_01
 10
1788.69009735958
 20
344.6879786300574
 30
0.0
  0
VERTEX
  5
117
  8
LAYER_01
 10
1788.69009735958
 20
391.6875577310816
 30
0.0
  0
VERTEX
  5
118
  8
LAYER_01
 10
1751.149228810981
 20
429.2284262796804
 30
0.0
  0
VERTEX
  5
119
  8
LAYER_01
 10
1730.352481216936
 20
429.2284262796804
 30
0.0
  0
VERTEX
  5
11A
  8
LAYER_01
 10
1667.316270928118
 20
366.1922159908615
 30
0.0
  0
VERTEX
  5
11B
  8
LAYER_01
 10
1658.096348636893
 20
366.1922159908615
 30
0.0
  0
VERTEX
  5
11C
  8
LAYER_01
 10
1658.096348636893
 20
298.912207488499
 30
0.0
  0
VERTEX
  5
11D
  8
LAYER_01
 10
1658.977618843768
 20
298.0309372816241
 30
0.0
  0
SEQEND
  5
11E
  8
LAYER_01
  0
POLYLINE
  5
11F
  8
LAYER_01
 66
     1
 10
0.0
 20
0.0
 30
0.0
 70
     1
  0
VERTEX
  5
120
  8
LAYER_01
 10
1957.063502892067
 20
153.1449079773756
 30
0.0
  0
VERTEX
  5
121
  8
LAYER_01
 10
1957.063502892067
 20
193.9031096978454
 30
0.0
  0
VERTEX
  5
122
  8
LAYER_01
 10
1904.425666400272
 20
246.5409461896404
 30
0.0
  0
VERTEX
  5
123
  8
LAYER_01
 10
1851.787829908476
 20
193.9031096978454
 30
0.0
  0
VERTEX
  5
124
  8
LAYER_01
 10
1851.787829908476
 20
153.1449079773756
 30
0.0
  0
SEQEND
  5
125
  8
LAYER_01
  0
POLYLINE
  5
126
  8
LAYER_01
 66
     1
 10
0.0
 20
0.0
 30
0.0
 70
     1
  0
VERTEX
  5
127
  8
LAYER_01
 10
1714.248955098906
 20
323.8912310360122
 30
0.0
  0
VERTEX
  5
128
  8
LAYER_01
 10
1788.69009735958
 20
323.8912310360115
 30
0.0
  0
VERTEX
  5
129
  8
LAYER_01
 10
1788.690097359581
 20
249.450088775337
 30
0.0
  0
VERTEX
  5
12A
  8
LAYER_01
 10
1752.516935908881
 20
213.2769273246365
 30
0.0
  0
VERTEX
  5
12B
  8
LAYER_01
 10
1748.124282354818
 20
208.8842737705736
 30
0.0
  0
VERTEX
  5
12C
  8
LAYER_01
 10
1673.683140094143
 20
283.325416031249
 30
0.0
  0
SEQEND
  5
12D
  8
LAYER_01
  0
POLYLINE
  5
12E
  8
LAYER_01
 66
     1
 10
0.0
 20
0.0
 30
0.0
 70
     1
  0
VERTEX
  5
12F
  8
LAYER_01
 10
1711.339812513209
 20
439.6268000767031
 30
0.0
  0
VERTEX
  5
130
  8
LAYER_01
 10
1658.701976021414
 20
386.9889635849072
 30
0.0
  0
VERTEX
  5
131
  8
LAYER_01
 10
1658.096348636893
 20
386.9889635849072
 30
0.0
  0
VERTEX
  5
132
  8
LAYER_01
 10
1658.096348636892
 20
492.2646365684991
 30
0.0
  0
VERTEX
  5
133
  8
LAYER_01
 10
1658.701976021414
 20
492.2646365684991
 30
0.0
  0
SEQEND
  5
134
  8
LAYER_01
  0
POLYLINE
  5
135
  8
LAYER_01
 66
     1
 10
0.0
 20
0.0
 30
0.0
 70
     1
  0
VERTEX
  5
136
  8
LAYER_01
 10
2117.734749446577
 20
151.876574769723
 30
0.0
  0
VERTEX
  5
137
  8
LAYER_01
 10
2168.030315536931
 20
151.8765747697237
 30
0.0
  0
VERTEX
  5
138
  8
LAYER_01
 10
2168.030315536931
 20
250.4632932007194
 30
0.0
  0
VERTEX
  5
139
  8
LAYER_01
 10
2149.873713956776
 20
268.6198947808743
 30
0.0
  0
VERTEX
  5
13A
  8
LAYER_01
 10
2075.4325716961
 20
194.1787525201987
 30
0.0
  0
SEQEND
  5
13B
  8
LAYER_01
  0
POLYLINE
  5
13C
  8
LAYER_01
 66
     1
 10
0.0
 20
0.0
 30
0.0
 70
     1
  0
VERTEX
  5
13D
  8
LAYER_01
 10
2145.481060402713
 20
302.4235908356868
 30
0.0
  0
VERTEX
  5
13E
  8
LAYER_01
 10
2103.216672608341
 20
344.6879786300581
 30
0.0
  0
VERTEX
  5
13F
  8
LAYER_01
 10
2020.161235440964
 20
344.6879786300574
 30
0.0
  0
VERTEX
  5
140
  8
LAYER_01
 10
2020.161235440964
 20
391.6875577310816
 30
0.0
  0
VERTEX
  5
141
  8
LAYER_01
 10
2057.702103989563
 20
429.2284262796804
 30
0.0
  0
VERTEX
  5
142
  8
LAYER_01
 10
2078.498851583608
 20
429.2284262796804
 30
0.0
  0
VERTEX
  5
143
  8
LAYER_01
 10
2141.535061872426
 20
366.1922159908615
 30
0.0
  0
VERTEX
  5
144
  8
LAYER_01
 10
2150.754984163651
 20
366.1922159908615
 30
0.0
  0
VERTEX
  5
145
  8
LAYER_01
 10
2150.754984163651
 20
298.912207488499
 30
0.0
  0
VERTEX
  5
146
  8
LAYER_01
 10
2149.873713956776
 20
298.0309372816241
 30
0.0
  0
SEQEND
  5
147
  8
LAYER_01
  0
POLYLINE
  5
148
  8
LAYER_01
 66
     1
 10
0.0
 20
0.0
 30
0.0
 70
     1
  0
VERTEX
  5
149
  8
LAYER_01
 10
2094.602377701638
 20
323.8912310360122
 30
0.0
  0
VERTEX
  5
14A
  8
LAYER_01
 10
2020.161235440963
 20
323.8912310360115
 30
0.0
  0
VERTEX
  5
14B
  8
LAYER_01
 10
2020.161235440962
 20
249.450088775337
 30
0.0
  0
VERTEX
  5
14C
  8
LAYER_01
 10
2056.334396891662
 20
213.2769273246365
 30
0.0
  0
VERTEX
  5
14D
  8
LAYER_01
 10
2060.727050445726
 20
208.8842737705736
 30
0.0
  0
VERTEX
  5
14E
  8
LAYER_01
 10
2135.168192706401
 20
283.325416031249
 30
0.0
  0
SEQEND
  5
14F
  8
LAYER_01
  0
POLYLINE
  5
150
  8
LAYER_01
 66
     1
 10
0.0
 20
0.0
 30
0.0
 70
     1
  0
VERTEX
  5
151
  8
LAYER_01
 10
2097.511520287335
 20
439.6268000767031
 30
0.0
  0
VERTEX
  5
152
  8
LAYER_01
 10
2150.14935677913
 20
386.9889635849072
 30
0.0
  0
VERTEX
  5
153
  8
LAYER_01
 10
2150.754984163651
 20
386.9889635849072
 30
0.0
  0
VERTEX
  5
154
  8
LAYER_01
 10
2150.754984163651
 20
492.2646365684991
 30
0.0
  0
VERTEX
  5
155
  8
LAYER_01
 10
2150.14935677913
 20
492.2646365684991
 30
0.0
  0
SEQEND
  5
156
  8
LAYER_01
  0
CIRCLE
  5
157
  8
LAYER_01
 10
-1904.425666400272
 20
439.6268000767031
 30
0.0
 40
24.69111493798027
210
0.0
220
0.0
230
-1.0
  0
POLYLINE
  5
158
  8
LAYER_01
 66
     1
 10
0.0
 20
0.0
 30
0.0
 70
     1
  0
VERTEX
  5
159
  8
LAYER_01
 10
1909.573635634639
 20
394.4311802613437
 30
0.0
 42
-0.0567685437425675
  0
VERTEX
  5
15A
  8
LAYER_01
 10
1899.277697165905
 20
394.4311802613437
 30
0.0
  0
VERTEX
  5
15B
  8
LAYER_01
 10
1876.790787883687
 20
332.9979097077235
 30
0.0
  0
VERTEX
  5
15C
  8
LAYER_01
 10
1904.425666400272
 20
305.3630311911388
 30
0.0
  0
VERTEX
  5
15D
  8
LAYER_01
 10
1932.060544916857
 20
332.9979097077235
 30
0.0
  0
SEQEND
  5
15E
  8
LAYER_01
  0
POLYLINE
  5
15F
  8
LAYER_01
 66
     1
 10
0.0
 20
0.0
 30
0.0
 70
     1
  0
VERTEX
  5
160
  8
LAYER_01
 10
1809.486844953627
 20
638.417806284773
 30
0.0
  0
VERTEX
  5
161
  8
LAYER_01
 10
1762.829803605193
 20
685.0748476332076
 30
0.0
  0
VERTEX
  5
162
  8
LAYER_01
 10
1803.863648148016
 20
726.1086921760308
 30
0.0
  0
VERTEX
  5
163
  8
LAYER_01
 10
1830.991082314431
 20
726.1086921760308
 30
0.0
  0
VERTEX
  5
164
  8
LAYER_01
 10
1830.991082314431
 20
676.736195548857
 30
0.0
  0
VERTEX
  5
165
  8
LAYER_01
 10
1894.027292603249
 20
613.6999852600397
 30
0.0
  0
VERTEX
  5
166
  8
LAYER_01
 10
1894.027292603249
 20
592.9032376659943
 30
0.0
  0
VERTEX
  5
167
  8
LAYER_01
 10
1856.486424054649
 20
555.3623691173946
 30
0.0
  0
VERTEX
  5
168
  8
LAYER_01
 10
1809.486844953626
 20
555.3623691173946
 30
0.0
  0
SEQEND
  5
169
  8
LAYER_01
  0
POLYLINE
  5
16A
  8
LAYER_01
 66
     1
 10
0.0
 20
0.0
 30
0.0
 70
     1
  0
VERTEX
  5
16B
  8
LAYER_01
 10
1999.364487846917
 20
638.417806284773
 30
0.0
  0
VERTEX
  5
16C
  8
LAYER_01
 10
2046.021529195351
 20
685.0748476332076
 30
0.0
  0
VERTEX
  5
16D
  8
LAYER_01
 10
2004.987684652528
 20
726.1086921760308
 30
0.0
  0
VERTEX
  5
16E
  8
LAYER_01
 10
1977.860250486113
 20
726.1086921760308
 30
0.0
  0
VERTEX
  5
16F
  8
LAYER_01
 10
1977.860250486113
 20
676.736195548857
 30
0.0
  0
VERTEX
  5
170
  8
LAYER_01
 10
1914.824040197294
 20
613.6999852600397
 30
0.0
  0
VERTEX
  5
171
  8
LAYER_01
 10
1914.824040197294
 20
592.9032376659943
 30
0.0
  0
VERTEX
  5
172
  8
LAYER_01
 10
1952.364908745895
 20
555.3623691173946
 30
0.0
  0
VERTEX
  5
173
  8
LAYER_01
 10
1999.364487846918
 20
555.3623691173946
 30
0.0
  0
SEQEND
  5
174
  8
LAYER_01
  0
POLYLINE
  5
175
  8
LAYER_01
 66
     1
 10
0.0
 20
0.0
 30
0.0
 70
     1
  0
VERTEX
  5
176
  8
LAYER_01
 10
1809.486844953627
 20
240.8357938686333
 30
0.0
  0
VERTEX
  5
177
  8
LAYER_01
 10
1762.829803605193
 20
194.1787525201987
 30
0.0
  0
VERTEX
  5
178
  8
LAYER_01
 10
1803.863648148016
 20
153.1449079773756
 30
0.0
  0
VERTEX
  5
179
  8
LAYER_01
 10
1830.991082314431
 20
153.1449079773756
 30
0.0
  0
VERTEX
  5
17A
  8
LAYER_01
 10
1830.991082314431
 20
202.5174046045493
 30
0.0
  0
VERTEX
  5
17B
  8
LAYER_01
 10
1894.027292603249
 20
265.5536148933666
 30
0.0
  0
VERTEX
  5
17C
  8
LAYER_01
 10
1894.027292603249
 20
286.350362487412
 30
0.0
  0
VERTEX
  5
17D
  8
LAYER_01
 10
1856.486424054649
 20
323.8912310360117
 30
0.0
  0
VERTEX
  5
17E
  8
LAYER_01
 10
1809.486844953626
 20
323.8912310360117
 30
0.0
  0
SEQEND
  5
17F
  8
LAYER_01
  0
POLYLINE
  5
180
  8
LAYER_01
 66
     1
 10
0.0
 20
0.0
 30
0.0
 70
     1
  0
VERTEX
  5
181
  8
LAYER_01
 10
1999.364487846917
 20
240.8357938686333
 30
0.0
  0
VERTEX
  5
182
  8
LAYER_01
 10
2046.021529195351
 20
194.1787525201987
 30
0.0
  0
VERTEX
  5
183
  8
LAYER_01
 10
2004.987684652528
 20
153.1449079773756
 30
0.0
  0
VERTEX
  5
184
  8
LAYER_01
 10
1977.860250486113
 20
153.1449079773756
 30
0.0
  0
VERTEX
  5
185
  8
LAYER_01
 10
1977.860250486113
 20
202.5174046045493
 30
0.0
  0
VERTEX
  5
186
  8
LAYER_01
 10
1914.824040197294
 20
265.5536148933666
 30
0.0
  0
VERTEX
  5
187
  8
LAYER_01
 10
1914.824040197294
 20
286.350362487412
 30
0.0
  0
VERTEX
  5
188
  8
LAYER_01
 10
1952.364908745895
 20
323.8912310360117
 30
0.0
  0
VERTEX
  5
189
  8
LAYER_01
 10
1999.364487846918
 20
323.8912310360117
 30
0.0
  0
SEQEND
  5
18A
  8
LAYER_01
  0
POLYLINE
  5
18B
  8
LAYER_01
 66
     1
 10
0.0
 20
0.0
 30
0.0
  0
VERTEX
  5
18C
  8
LAYER_01
 10
1784.850979444288
 20
1924.028129558451
 30
0.0
  0
VERTEX
  5
18D
  8
LAYER_01
 10
1748.124282354818
 20
1887.30143246898
 30
0.0
  0
VERTEX
  5
18E
  8
LAYER_01
 10
1711.397585265347
 20
1924.028129558451
 30
0.0
  0
SEQEND
  5
18F
  8
LAYER_01
  0
POLYLINE
  5
190
  8
LAYER_01
 66
     1
 10
0.0
 20
0.0
 30
0.0
  0
VERTEX
  5
191
  8
LAYER_01
 10
2024.000353356255
 20
1924.028129558451
 30
0.0
  0
VERTEX
  5
192
  8
LAYER_01
 10
2060.727050445726
 20
1887.30143246898
 30
0.0
  0
VERTEX
  5
193
  8
LAYER_01
 10
2097.453747535197
 20
1924.028129558451
 30
0.0
  0
SEQEND
  5
194
  8
LAYER_01
  0
POLYLINE
  5
195
  8
LAYER_01
 66
     1
 10
0.0
 20
0.0
 30
0.0
 70
     1
  0
VERTEX
  5
196
  8
LAYER_01
 10
1879.699306022989
 20
1665.328391948458
 30
0.0
 42
0.1057414670405537
  0
VERTEX
  5
197
  8
LAYER_01
 10
1866.245138113915
 20
1651.874224039384
 30
0.0
  0
VERTEX
  5
198
  8
LAYER_01
 10
1809.486844953626
 20
1672.649914114275
 30
0.0
  0
VERTEX
  5
199
  8
LAYER_01
 10
1809.486844953626
 20
1722.086685108747
 30
0.0
  0
VERTEX
  5
19A
  8
LAYER_01
 10
1858.923615948098
 20
1722.086685108747
 30
0.0
  0
SEQEND
  5
19B
  8
LAYER_01
  0
POLYLINE
  5
19C
  8
LAYER_01
 66
     1
 10
0.0
 20
0.0
 30
0.0
 70
     1
  0
VERTEX
  5
19D
  8
LAYER_01
 10
1929.152026777555
 20
1665.328391948458
 30
0.0
 42
-0.1057414670405537
  0
VERTEX
  5
19E
  8
LAYER_01
 10
1942.606194686628
 20
1651.874224039384
 30
0.0
  0
VERTEX
  5
19F
  8
LAYER_01
 10
1999.364487846918
 20
1672.649914114275
 30
0.0
  0
VERTEX
  5
1A0
  8
LAYER_01
 10
1999.364487846918
 20
1722.086685108747
 30
0.0
  0
VERTEX
  5
1A1
  8
LAYER_01
 10
1949.927716852446
 20
1722.086685108747
 30
0.0
  0
SEQEND
  5
1A2
  8
LAYER_01
  0
POLYLINE
  5
1A3
  8
LAYER_01
 66
     1
 10
0.0
 20
0.0
 30
0.0
 70
     1
  0
VERTEX
  5
1A4
  8
LAYER_01
 10
1879.699306022989
 20
1588.967335375745
 30
0.0
 42
-0.1057414670405537
  0
VERTEX
  5
1A5
  8
LAYER_01
 10
1866.245138113915
 20
1602.421503284819
 30
0.0
  0
VERTEX
  5
1A6
  8
LAYER_01
 10
1809.486844953626
 20
1581.645813209928
 30
0.0
  0
VERTEX
  5
1A7
  8
LAYER_01
 10
1809.486844953626
 20
1532.209042215456
 30
0.0
  0
VERTEX
  5
1A8
  8
LAYER_01
 10
1858.923615948098
 20
1532.209042215456
 30
0.0
  0
SEQEND
  5
1A9
  8
LAYER_01
  0
POLYLINE
  5
1AA
  8
LAYER_01
 66
     1
 10
0.0
 20
0.0
 30
0.0
 70
     1
  0
VERTEX
  5
1AB
  8
LAYER_01
 10
1859.230046584912
 20
1621.999894427734
 30
0.0
 42
-0.0567685437425751
  0
VERTEX
  5
1AC
  8
LAYER_01
 10
1859.230046584912
 20
1632.295832896468
 30
0.0
  0
VERTEX
  5
1AD
  8
LAYER_01
 10
1797.796776031292
 20
1654.782742178685
 30
0.0
  0
VERTEX
  5
1AE
  8
LAYER_01
 10
1770.161897514708
 20
1627.147863662102
 30
0.0
  0
VERTEX
  5
1AF
  8
LAYER_01
 10
1797.796776031292
 20
1599.512985145517
 30
0.0
  0
SEQEND
  5
1B0
  8
LAYER_01
  0
POLYLINE
  5
1B1
  8
LAYER_01
 66
     1
 10
0.0
 20
0.0
 30
0.0
 70
     1
  0
VERTEX
  5
1B2
  8
LAYER_01
 10
1929.152026777555
 20
1588.967335375745
 30
0.0
 42
0.1057414670405537
  0
VERTEX
  5
1B3
  8
LAYER_01
 10
1942.606194686628
 20
1602.421503284819
 30
0.0
  0
VERTEX
  5
1B4
  8
LAYER_01
 10
1999.364487846918
 20
1581.645813209928
 30
0.0
  0
VERTEX
  5
1B5
  8
LAYER_01
 10
1999.364487846918
 20
1532.209042215456
 30
0.0
  0
VERTEX
  5
1B6
  8
LAYER_01
 10
1949.927716852446
 20
1532.209042215456
 30
0.0
  0
SEQEND
  5
1B7
  8
LAYER_01
  0
POLYLINE
  5
1B8
  8
LAYER_01
 66
     1
 10
0.0
 20
0.0
 30
0.0
 70
     1
  0
VERTEX
  5
1B9
  8
LAYER_01
 10
1949.621286215632
 20
1621.999894427734
 30
0.0
  0
VERTEX
  5
1BA
  8
LAYER_01
 10
2011.054556769252
 20
1599.512985145517
 30
0.0
  0
VERTEX
  5
1BB
  8
LAYER_01
 10
2038.689435285836
 20
1627.147863662101
 30
0.0
  0
VERTEX
  5
1BC
  8
LAYER_01
 10
2011.054556769252
 20
1654.782742178685
 30
0.0
  0
VERTEX
  5
1BD
  8
LAYER_01
 10
1949.621286215632
 20
1632.295832896468
 30
0.0
 42
-0.0567685437425533
  0
SEQEND
  5
1BE
  8
LAYER_01
  0
POLYLINE
  5
1BF
  8
LAYER_01
 66
     1
 10
0.0
 20
0.0
 30
0.0
 70
     1
  0
VERTEX
  5
1C0
  8
LAYER_01
 10
1691.116583353967
 20
1914.898088969082
 30
0.0
  0
VERTEX
  5
1C1
  8
LAYER_01
 10
1640.821017263613
 20
1914.898088969081
 30
0.0
  0
VERTEX
  5
1C2
  8
LAYER_01
 10
1640.821017263613
 20
1816.311370538085
 30
0.0
  0
VERTEX
  5
1C3
  8
LAYER_01
 10
1658.977618843768
 20
1798.15476895793
 30
0.0
  0
VERTEX
  5
1C4
  8
LAYER_01
 10
1733.418761104444
 20
1872.595911218606
 30
0.0
  0
SEQEND
  5
1C5
  8
LAYER_01
  0
POLYLINE
  5
1C6
  8
LAYER_01
 66
     1
 10
0.0
 20
0.0
 30
0.0
 70
     1
  0
VERTEX
  5
1C7
  8
LAYER_01
 10
1663.37027239783
 20
1764.351072903118
 30
0.0
  0
VERTEX
  5
1C8
  8
LAYER_01
 10
1705.634660192202
 20
1722.086685108746
 30
0.0
  0
VERTEX
  5
1C9
  8
LAYER_01
 10
1788.69009735958
 20
1722.086685108747
 30
0.0
  0
VERTEX
  5
1CA
  8
LAYER_01
 10
1788.69009735958
 20
1675.087106007723
 30
0.0
  0
VERTEX
  5
1CB
  8
LAYER_01
 10
1751.149228810981
 20
1637.546237459124
 30
0.0
  0
VERTEX
  5
1CC
  8
LAYER_01
 10
1730.352481216936
 20
1637.546237459124
 30
0.0
  0
VERTEX
  5
1CD
  8
LAYER_01
 10
1667.316270928118
 20
1700.582447747943
 30
0.0
  0
VERTEX
  5
1CE
  8
LAYER_01
 10
1658.096348636893
 20
1700.582447747943
 30
0.0
  0
VERTEX
  5
1CF
  8
LAYER_01
 10
1658.096348636893
 20
1767.862456250306
 30
0.0
  0
VERTEX
  5
1D0
  8
LAYER_01
 10
1658.977618843768
 20
1768.74372645718
 30
0.0
  0
SEQEND
  5
1D1
  8
LAYER_01
  0
POLYLINE
  5
1D2
  8
LAYER_01
 66
     1
 10
0.0
 20
0.0
 30
0.0
 70
     1
  0
VERTEX
  5
1D3
  8
LAYER_01
 10
1957.063502892067
 20
1913.629755761429
 30
0.0
  0
VERTEX
  5
1D4
  8
LAYER_01
 10
1957.063502892067
 20
1872.871554040959
 30
0.0
  0
VERTEX
  5
1D5
  8
LAYER_01
 10
1904.425666400272
 20
1820.233717549164
 30
0.0
  0
VERTEX
  5
1D6
  8
LAYER_01
 10
1851.787829908476
 20
1872.871554040959
 30
0.0
  0
VERTEX
  5
1D7
  8
LAYER_01
 10
1851.787829908476
 20
1913.629755761429
 30
0.0
  0
SEQEND
  5
1D8
  8
LAYER_01
  0
POLYLINE
  5
1D9
  8
LAYER_01
 66
     1
 10
0.0
 20
0.0
 30
0.0
 70
     1
  0
VERTEX
  5
1DA
  8
LAYER_01
 10
1714.248955098906
 20
1742.883432702792
 30
0.0
  0
VERTEX
  5
1DB
  8
LAYER_01
 10
1788.69009735958
 20
1742.883432702793
 30
0.0
  0
VERTEX
  5
1DC
  8
LAYER_01
 10
1788.690097359581
 20
1817.324574963468
 30
0.0
  0
VERTEX
  5
1DD
  8
LAYER_01
 10
1752.516935908881
 20
1853.497736414168
 30
0.0
  0
VERTEX
  5
1DE
  8
LAYER_01
 10
1748.124282354818
 20
1857.890389968231
 30
0.0
  0
VERTEX
  5
1DF
  8
LAYER_01
 10
1673.683140094143
 20
1783.449247707556
 30
0.0
  0
SEQEND
  5
1E0
  8
LAYER_01
  0
POLYLINE
  5
1E1
  8
LAYER_01
 66
     1
 10
0.0
 20
0.0
 30
0.0
 70
     1
  0
VERTEX
  5
1E2
  8
LAYER_01
 10
1909.573635634639
 20
1672.343483477461
 30
0.0
 42
0.0567685437425749
  0
VERTEX
  5
1E3
  8
LAYER_01
 10
1899.277697165905
 20
1672.343483477461
 30
0.0
  0
VERTEX
  5
1E4
  8
LAYER_01
 10
1876.790787883687
 20
1733.776754031081
 30
0.0
  0
VERTEX
  5
1E5
  8
LAYER_01
 10
1904.425666400272
 20
1761.411632547666
 30
0.0
  0
VERTEX
  5
1E6
  8
LAYER_01
 10
1932.060544916857
 20
1733.776754031081
 30
0.0
  0
SEQEND
  5
1E7
  8
LAYER_01
  0
POLYLINE
  5
1E8
  8
LAYER_01
 66
     1
 10
0.0
 20
0.0
 30
0.0
 70
     1
  0
VERTEX
  5
1E9
  8
LAYER_01
 10
2117.734749446577
 20
1914.898088969082
 30
0.0
  0
VERTEX
  5
1EA
  8
LAYER_01
 10
2168.030315536931
 20
1914.898088969081
 30
0.0
  0
VERTEX
  5
1EB
  8
LAYER_01
 10
2168.030315536931
 20
1816.311370538085
 30
0.0
  0
VERTEX
  5
1EC
  8
LAYER_01
 10
2149.873713956776
 20
1798.15476895793
 30
0.0
  0
VERTEX
  5
1ED
  8
LAYER_01
 10
2075.4325716961
 20
1872.595911218606
 30
0.0
  0
SEQEND
  5
1EE
  8
LAYER_01
  0
POLYLINE
  5
1EF
  8
LAYER_01
 66
     1
 10
0.0
 20
0.0
 30
0.0
 70
     1
  0
VERTEX
  5
1F0
  8
LAYER_01
 10
2145.481060402713
 20
1764.351072903118
 30
0.0
  0
VERTEX
  5
1F1
  8
LAYER_01
 10
2103.216672608341
 20
1722.086685108746
 30
0.0
  0
VERTEX
  5
1F2
  8
LAYER_01
 10
2020.161235440964
 20
1722.086685108747
 30
0.0
  0
VERTEX
  5
1F3
  8
LAYER_01
 10
2020.161235440964
 20
1675.087106007723
 30
0.0
  0
VERTEX
  5
1F4
  8
LAYER_01
 10
2057.702103989563
 20
1637.546237459124
 30
0.0
  0
VERTEX
  5
1F5
  8
LAYER_01
 10
2078.498851583608
 20
1637.546237459124
 30
0.0
  0
VERTEX
  5
1F6
  8
LAYER_01
 10
2141.535061872426
 20
1700.582447747943
 30
0.0
  0
VERTEX
  5
1F7
  8
LAYER_01
 10
2150.754984163651
 20
1700.582447747943
 30
0.0
  0
VERTEX
  5
1F8
  8
LAYER_01
 10
2150.754984163651
 20
1767.862456250306
 30
0.0
  0
VERTEX
  5
1F9
  8
LAYER_01
 10
2149.873713956776
 20
1768.74372645718
 30
0.0
  0
SEQEND
  5
1FA
  8
LAYER_01
  0
POLYLINE
  5
1FB
  8
LAYER_01
 66
     1
 10
0.0
 20
0.0
 30
0.0
 70
     1
  0
VERTEX
  5
1FC
  8
LAYER_01
 10
2094.602377701638
 20
1742.883432702792
 30
0.0
  0
VERTEX
  5
1FD
  8
LAYER_01
 10
2020.161235440963
 20
1742.883432702793
 30
0.0
  0
VERTEX
  5
1FE
  8
LAYER_01
 10
2020.161235440962
 20
1817.324574963468
 30
0.0
  0
VERTEX
  5
1FF
  8
LAYER_01
 10
2056.334396891662
 20
1853.497736414168
 30
0.0
  0
VERTEX
  5
200
  8
LAYER_01
 10
2060.727050445726
 20
1857.890389968231
 30
0.0
  0
VERTEX
  5
201
  8
LAYER_01
 10
2135.168192706401
 20
1783.449247707556
 30
0.0
  0
SEQEND
  5
202
  8
LAYER_01
  0
POLYLINE
  5
203
  8
LAYER_01
 66
     1
 10
0.0
 20
0.0
 30
0.0
 70
     1
  0
VERTEX
  5
204
  8
LAYER_01
 10
1691.116583353967
 20
1339.397638355121
 30
0.0
  0
VERTEX
  5
205
  8
LAYER_01
 10
1640.821017263613
 20
1339.397638355122
 30
0.0
  0
VERTEX
  5
206
  8
LAYER_01
 10
1640.821017263613
 20
1437.984356786118
 30
0.0
  0
VERTEX
  5
207
  8
LAYER_01
 10
1658.977618843768
 20
1456.140958366273
 30
0.0
  0
VERTEX
  5
208
  8
LAYER_01
 10
1733.418761104444
 20
1381.699816105597
 30
0.0
  0
SEQEND
  5
209
  8
LAYER_01
  0
POLYLINE
  5
20A
  8
LAYER_01
 66
     1
 10
0.0
 20
0.0
 30
0.0
 70
     1
  0
VERTEX
  5
20B
  8
LAYER_01
 10
1663.37027239783
 20
1489.944654421085
 30
0.0
  0
VERTEX
  5
20C
  8
LAYER_01
 10
1705.634660192202
 20
1532.209042215456
 30
0.0
  0
VERTEX
  5
20D
  8
LAYER_01
 10
1788.69009735958
 20
1532.209042215456
 30
0.0
  0
VERTEX
  5
20E
  8
LAYER_01
 10
1788.69009735958
 20
1579.20862131648
 30
0.0
  0
VERTEX
  5
20F
  8
LAYER_01
 10
1751.149228810981
 20
1616.749489865079
 30
0.0
  0
VERTEX
  5
210
  8
LAYER_01
 10
1730.352481216936
 20
1616.749489865079
 30
0.0
  0
VERTEX
  5
211
  8
LAYER_01
 10
1667.316270928118
 20
1553.71327957626
 30
0.0
  0
VERTEX
  5
212
  8
LAYER_01
 10
1658.096348636893
 20
1553.71327957626
 30
0.0
  0
VERTEX
  5
213
  8
LAYER_01
 10
1658.096348636893
 20
1486.433271073897
 30
0.0
  0
VERTEX
  5
214
  8
LAYER_01
 10
1658.977618843768
 20
1485.552000867022
 30
0.0
  0
SEQEND
  5
215
  8
LAYER_01
  0
POLYLINE
  5
216
  8
LAYER_01
 66
     1
 10
0.0
 20
0.0
 30
0.0
 70
     1
  0
VERTEX
  5
217
  8
LAYER_01
 10
1957.063502892067
 20
1340.665971562774
 30
0.0
  0
VERTEX
  5
218
  8
LAYER_01
 10
1957.063502892067
 20
1381.424173283244
 30
0.0
  0
VERTEX
  5
219
  8
LAYER_01
 10
1904.425666400272
 20
1434.062009775039
 30
0.0
  0
VERTEX
  5
21A
  8
LAYER_01
 10
1851.787829908476
 20
1381.424173283244
 30
0.0
  0
VERTEX
  5
21B
  8
LAYER_01
 10
1851.787829908476
 20
1340.665971562774
 30
0.0
  0
SEQEND
  5
21C
  8
LAYER_01
  0
POLYLINE
  5
21D
  8
LAYER_01
 66
     1
 10
0.0
 20
0.0
 30
0.0
 70
     1
  0
VERTEX
  5
21E
  8
LAYER_01
 10
1714.248955098906
 20
1511.41229462141
 30
0.0
  0
VERTEX
  5
21F
  8
LAYER_01
 10
1788.69009735958
 20
1511.41229462141
 30
0.0
  0
VERTEX
  5
220
  8
LAYER_01
 10
1788.690097359581
 20
1436.971152360735
 30
0.0
  0
VERTEX
  5
221
  8
LAYER_01
 10
1752.516935908881
 20
1400.797990910035
 30
0.0
  0
VERTEX
  5
222
  8
LAYER_01
 10
1748.124282354818
 20
1396.405337355972
 30
0.0
  0
VERTEX
  5
223
  8
LAYER_01
 10
1673.683140094143
 20
1470.846479616647
 30
0.0
  0
SEQEND
  5
224
  8
LAYER_01
  0
POLYLINE
  5
225
  8
LAYER_01
 66
     1
 10
0.0
 20
0.0
 30
0.0
 70
     1
  0
VERTEX
  5
226
  8
LAYER_01
 10
1711.339812513209
 20
1627.147863662101
 30
0.0
  0
VERTEX
  5
227
  8
LAYER_01
 10
1658.701976021414
 20
1574.510027170305
 30
0.0
  0
VERTEX
  5
228
  8
LAYER_01
 10
1658.096348636893
 20
1574.510027170305
 30
0.0
  0
VERTEX
  5
229
  8
LAYER_01
 10
1658.096348636892
 20
1679.785700153897
 30
0.0
  0
VERTEX
  5
22A
  8
LAYER_01
 10
1658.701976021414
 20
1679.785700153897
 30
0.0
  0
SEQEND
  5
22B
  8
LAYER_01
  0
POLYLINE
  5
22C
  8
LAYER_01
 66
     1
 10
0.0
 20
0.0
 30
0.0
 70
     1
  0
VERTEX
  5
22D
  8
LAYER_01
 10
2117.734749446577
 20
1339.397638355121
 30
0.0
  0
VERTEX
  5
22E
  8
LAYER_01
 10
2168.030315536931
 20
1339.397638355122
 30
0.0
  0
VERTEX
  5
22F
  8
LAYER_01
 10
2168.030315536931
 20
1437.984356786118
 30
0.0
  0
VERTEX
  5
230
  8
LAYER_01
 10
2149.873713956776
 20
1456.140958366273
 30
0.0
  0
VERTEX
  5
231
  8
LAYER_01
 10
2075.4325716961
 20
1381.699816105597
 30
0.0
  0
SEQEND
  5
232
  8
LAYER_01
  0
POLYLINE
  5
233
  8
LAYER_01
 66
     1
 10
0.0
 20
0.0
 30
0.0
 70
     1
  0
VERTEX
  5
234
  8
LAYER_01
 10
2145.481060402713
 20
1489.944654421085
 30
0.0
  0
VERTEX
  5
235
  8
LAYER_01
 10
2103.216672608341
 20
1532.209042215456
 30
0.0
  0
VERTEX
  5
236
  8
LAYER_01
 10
2020.161235440964
 20
1532.209042215456
 30
0.0
  0
VERTEX
  5
237
  8
LAYER_01
 10
2020.161235440964
 20
1579.20862131648
 30
0.0
  0
VERTEX
  5
238
  8
LAYER_01
 10
2057.702103989563
 20
1616.749489865079
 30
0.0
  0
VERTEX
  5
239
  8
LAYER_01
 10
2078.498851583608
 20
1616.749489865079
 30
0.0
  0
VERTEX
  5
23A
  8
LAYER_01
 10
2141.535061872426
 20
1553.71327957626
 30
0.0
  0
VERTEX
  5
23B
  8
LAYER_01
 10
2150.754984163651
 20
1553.71327957626
 30
0.0
  0
VERTEX
  5
23C
  8
LAYER_01
 10
2150.754984163651
 20
1486.433271073897
 30
0.0
  0
VERTEX
  5
23D
  8
LAYER_01
 10
2149.873713956776
 20
1485.552000867022
 30
0.0
  0
SEQEND
  5
23E
  8
LAYER_01
  0
POLYLINE
  5
23F
  8
LAYER_01
 66
     1
 10
0.0
 20
0.0
 30
0.0
 70
     1
  0
VERTEX
  5
240
  8
LAYER_01
 10
2094.602377701638
 20
1511.41229462141
 30
0.0
  0
VERTEX
  5
241
  8
LAYER_01
 10
2020.161235440963
 20
1511.41229462141
 30
0.0
  0
VERTEX
  5
242
  8
LAYER_01
 10
2020.161235440962
 20
1436.971152360735
 30
0.0
  0
VERTEX
  5
243
  8
LAYER_01
 10
2056.334396891662
 20
1400.797990910035
 30
0.0
  0
VERTEX
  5
244
  8
LAYER_01
 10
2060.727050445726
 20
1396.405337355972
 30
0.0
  0
VERTEX
  5
245
  8
LAYER_01
 10
2135.168192706401
 20
1470.846479616647
 30
0.0
  0
SEQEND
  5
246
  8
LAYER_01
  0
POLYLINE
  5
247
  8
LAYER_01
 66
     1
 10
0.0
 20
0.0
 30
0.0
 70
     1
  0
VERTEX
  5
248
  8
LAYER_01
 10
2097.511520287335
 20
1627.147863662101
 30
0.0
  0
VERTEX
  5
249
  8
LAYER_01
 10
2150.14935677913
 20
1574.510027170305
 30
0.0
  0
VERTEX
  5
24A
  8
LAYER_01
 10
2150.754984163651
 20
1574.510027170305
 30
0.0
  0
VERTEX
  5
24B
  8
LAYER_01
 10
2150.754984163651
 20
1679.785700153897
 30
0.0
  0
VERTEX
  5
24C
  8
LAYER_01
 10
2150.14935677913
 20
1679.785700153897
 30
0.0
  0
SEQEND
  5
24D
  8
LAYER_01
  0
CIRCLE
  5
24E
  8
LAYER_01
 10
-1904.425666400272
 20
1627.147863662101
 30
0.0
 40
24.69111493798073
210
0.0
220
0.0
230
-1.0
  0
POLYLINE
  5
24F
  8
LAYER_01
 66
     1
 10
0.0
 20
0.0
 30
0.0
 70
     1
  0
VERTEX
  5
250
  8
LAYER_01
 10
1909.573635634639
 20
1581.952243846742
 30
0.0
 42
-0.0567685437425738
  0
VERTEX
  5
251
  8
LAYER_01
 10
1899.277697165905
 20
1581.952243846742
 30
0.0
  0
VERTEX
  5
252
  8
LAYER_01
 10
1876.790787883687
 20
1520.518973293122
 30
0.0
  0
VERTEX
  5
253
  8
LAYER_01
 10
1904.425666400272
 20
1492.884094776537
 30
0.0
  0
VERTEX
  5
254
  8
LAYER_01
 10
1932.060544916857
 20
1520.518973293122
 30
0.0
  0
SEQEND
  5
255
  8
LAYER_01
  0
POLYLINE
  5
256
  8
LAYER_01
 66
     1
 10
0.0
 20
0.0
 30
0.0
 70
     1
  0
VERTEX
  5
257
  8
LAYER_01
 10
1809.486844953627
 20
1825.938869870171
 30
0.0
  0
VERTEX
  5
258
  8
LAYER_01
 10
1762.829803605193
 20
1872.595911218606
 30
0.0
  0
VERTEX
  5
259
  8
LAYER_01
 10
1803.863648148016
 20
1913.629755761429
 30
0.0
  0
VERTEX
  5
25A
  8
LAYER_01
 10
1830.991082314431
 20
1913.629755761429
 30
0.0
  0
VERTEX
  5
25B
  8
LAYER_01
 10
1830.991082314431
 20
1864.257259134255
 30
0.0
  0
VERTEX
  5
25C
  8
LAYER_01
 10
1894.027292603249
 20
1801.221048845438
 30
0.0
  0
VERTEX
  5
25D
  8
LAYER_01
 10
1894.027292603249
 20
1780.424301251393
 30
0.0
  0
VERTEX
  5
25E
  8
LAYER_01
 10
1856.486424054649
 20
1742.883432702793
 30
0.0
  0
VERTEX
  5
25F
  8
LAYER_01
 10
1809.486844953626
 20
1742.883432702793
 30
0.0
  0
SEQEND
  5
260
  8
LAYER_01
  0
POLYLINE
  5
261
  8
LAYER_01
 66
     1
 10
0.0
 20
0.0
 30
0.0
 70
     1
  0
VERTEX
  5
262
  8
LAYER_01
 10
1999.364487846917
 20
1825.938869870171
 30
0.0
  0
VERTEX
  5
263
  8
LAYER_01
 10
2046.021529195351
 20
1872.595911218606
 30
0.0
  0
VERTEX
  5
264
  8
LAYER_01
 10
2004.987684652528
 20
1913.629755761429
 30
0.0
  0
VERTEX
  5
265
  8
LAYER_01
 10
1977.860250486113
 20
1913.629755761429
 30
0.0
  0
VERTEX
  5
266
  8
LAYER_01
 10
1977.860250486113
 20
1864.257259134255
 30
0.0
  0
VERTEX
  5
267
  8
LAYER_01
 10
1914.824040197294
 20
1801.221048845438
 30
0.0
  0
VERTEX
  5
268
  8
LAYER_01
 10
1914.824040197294
 20
1780.424301251393
 30
0.0
  0
VERTEX
  5
269
  8
LAYER_01
 10
1952.364908745895
 20
1742.883432702793
 30
0.0
  0
VERTEX
  5
26A
  8
LAYER_01
 10
1999.364487846918
 20
1742.883432702793
 30
0.0
  0
SEQEND
  5
26B
  8
LAYER_01
  0
POLYLINE
  5
26C
  8
LAYER_01
 66
     1
 10
0.0
 20
0.0
 30
0.0
 70
     1
  0
VERTEX
  5
26D
  8
LAYER_01
 10
1809.486844953627
 20
1428.356857454032
 30
0.0
  0
VERTEX
  5
26E
  8
LAYER_01
 10
1762.829803605193
 20
1381.699816105597
 30
0.0
  0
VERTEX
  5
26F
  8
LAYER_01
 10
1803.863648148016
 20
1340.665971562774
 30
0.0
  0
VERTEX
  5
270
  8
LAYER_01
 10
1830.991082314431
 20
1340.665971562774
 30
0.0
  0
VERTEX
  5
271
  8
LAYER_01
 10
1830.991082314431
 20
1390.038468189947
 30
0.0
  0
VERTEX
  5
272
  8
LAYER_01
 10
1894.027292603249
 20
1453.074678478765
 30
0.0
  0
VERTEX
  5
273
  8
LAYER_01
 10
1894.027292603249
 20
1473.87142607281
 30
0.0
  0
VERTEX
  5
274
  8
LAYER_01
 10
1856.486424054649
 20
1511.41229462141
 30
0.0
  0
VERTEX
  5
275
  8
LAYER_01
 10
1809.486844953626
 20
1511.41229462141
 30
0.0
  0
SEQEND
  5
276
  8
LAYER_01
  0
POLYLINE
  5
277
  8
LAYER_01
 66
     1
 10
0.0
 20
0.0
 30
0.0
 70
     1
  0
VERTEX
  5
278
  8
LAYER_01
 10
1999.364487846917
 20
1428.356857454032
 30
0.0
  0
VERTEX
  5
279
  8
LAYER_01
 10
2046.021529195351
 20
1381.699816105597
 30
0.0
  0
VERTEX
  5
27A
  8
LAYER_01
 10
2004.987684652528
 20
1340.665971562774
 30
0.0
  0
VERTEX
  5
27B
  8
LAYER_01
 10
1977.860250486113
 20
1340.665971562774
 30
0.0
  0
VERTEX
  5
27C
  8
LAYER_01
 10
1977.860250486113
 20
1390.038468189947
 30
0.0
  0
VERTEX
  5
27D
  8
LAYER_01
 10
1914.824040197294
 20
1453.074678478765
 30
0.0
  0
VERTEX
  5
27E
  8
LAYER_01
 10
1914.824040197294
 20
1473.87142607281
 30
0.0
  0
VERTEX
  5
27F
  8
LAYER_01
 10
1952.364908745895
 20
1511.41229462141
 30
0.0
  0
VERTEX
  5
280
  8
LAYER_01
 10
1999.364487846918
 20
1511.41229462141
 30
0.0
  0
SEQEND
  5
281
  8
LAYER_01
  0
POLYLINE
  5
282
  8
LAYER_01
 66
     1
 10
0.0
 20
0.0
 30
0.0
 70
     1
  0
VERTEX
  5
283
  8
LAYER_01
 10
1879.699306022989
 20
995.206803583046
 30
0.0
 42
-0.105741467040553
  0
VERTEX
  5
284
  8
LAYER_01
 10
1866.245138113915
 20
1008.66097149212
 30
0.0
  0
VERTEX
  5
285
  8
LAYER_01
 10
1809.486844953626
 20
987.8852814172288
 30
0.0
  0
VERTEX
  5
286
  8
LAYER_01
 10
1809.486844953626
 20
938.4485104227565
 30
0.0
  0
VERTEX
  5
287
  8
LAYER_01
 10
1858.923615948098
 20
938.4485104227565
 30
0.0
  0
SEQEND
  5
288
  8
LAYER_01
  0
POLYLINE
  5
289
  8
LAYER_01
 66
     1
 10
0.0
 20
0.0
 30
0.0
 70
     1
  0
VERTEX
  5
28A
  8
LAYER_01
 10
1929.152026777555
 20
995.206803583046
 30
0.0
 42
0.105741467040553
  0
VERTEX
  5
28B
  8
LAYER_01
 10
1942.606194686628
 20
1008.66097149212
 30
0.0
  0
VERTEX
  5
28C
  8
LAYER_01
 10
1999.364487846918
 20
987.8852814172288
 30
0.0
  0
VERTEX
  5
28D
  8
LAYER_01
 10
1999.364487846918
 20
938.4485104227565
 30
0.0
  0
VERTEX
  5
28E
  8
LAYER_01
 10
1949.927716852446
 20
938.4485104227565
 30
0.0
  0
SEQEND
  5
28F
  8
LAYER_01
  0
POLYLINE
  5
290
  8
LAYER_01
 66
     1
 10
0.0
 20
0.0
 30
0.0
 70
     1
  0
VERTEX
  5
291
  8
LAYER_01
 10
1879.699306022989
 20
1071.567860155759
 30
0.0
 42
0.1057414670405537
  0
VERTEX
  5
292
  8
LAYER_01
 10
1866.245138113915
 20
1058.113692246685
 30
0.0
  0
VERTEX
  5
293
  8
LAYER_01
 10
1809.486844953626
 20
1078.889382321576
 30
0.0
  0
VERTEX
  5
294
  8
LAYER_01
 10
1809.486844953626
 20
1128.326153316048
 30
0.0
  0
VERTEX
  5
295
  8
LAYER_01
 10
1858.923615948098
 20
1128.326153316048
 30
0.0
  0
SEQEND
  5
296
  8
LAYER_01
  0
POLYLINE
  5
297
  8
LAYER_01
 66
     1
 10
0.0
 20
0.0
 30
0.0
 70
     1
  0
VERTEX
  5
298
  8
LAYER_01
 10
1859.230046584912
 20
1038.535301103769
 30
0.0
 42
0.0567685437425751
  0
VERTEX
  5
299
  8
LAYER_01
 10
1859.230046584912
 20
1028.239362635035
 30
0.0
  0
VERTEX
  5
29A
  8
LAYER_01
 10
1797.796776031292
 20
1005.752453352818
 30
0.0
  0
VERTEX
  5
29B
  8
LAYER_01
 10
1770.161897514708
 20
1033.387331869402
 30
0.0
  0
VERTEX
  5
29C
  8
LAYER_01
 10
1797.796776031292
 20
1061.022210385986
 30
0.0
  0
SEQEND
  5
29D
  8
LAYER_01
  0
POLYLINE
  5
29E
  8
LAYER_01
 66
     1
 10
0.0
 20
0.0
 30
0.0
 70
     1
  0
VERTEX
  5
29F
  8
LAYER_01
 10
1929.152026777555
 20
1071.567860155759
 30
0.0
 42
-0.1057414670405537
  0
VERTEX
  5
2A0
  8
LAYER_01
 10
1942.606194686628
 20
1058.113692246685
 30
0.0
  0
VERTEX
  5
2A1
  8
LAYER_01
 10
1999.364487846918
 20
1078.889382321576
 30
0.0
  0
VERTEX
  5
2A2
  8
LAYER_01
 10
1999.364487846918
 20
1128.326153316048
 30
0.0
  0
VERTEX
  5
2A3
  8
LAYER_01
 10
1949.927716852446
 20
1128.326153316048
 30
0.0
  0
SEQEND
  5
2A4
  8
LAYER_01
  0
POLYLINE
  5
2A5
  8
LAYER_01
 66
     1
 10
0.0
 20
0.0
 30
0.0
 70
     1
  0
VERTEX
  5
2A6
  8
LAYER_01
 10
1949.621286215632
 20
1038.535301103769
 30
0.0
  0
VERTEX
  5
2A7
  8
LAYER_01
 10
2011.054556769252
 20
1061.022210385986
 30
0.0
  0
VERTEX
  5
2A8
  8
LAYER_01
 10
2038.689435285836
 20
1033.387331869402
 30
0.0
  0
VERTEX
  5
2A9
  8
LAYER_01
 10
2011.054556769252
 20
1005.752453352818
 30
0.0
  0
VERTEX
  5
2AA
  8
LAYER_01
 10
1949.621286215632
 20
1028.239362635035
 30
0.0
 42
0.0567685437425726
  0
SEQEND
  5
2AB
  8
LAYER_01
  0
POLYLINE
  5
2AC
  8
LAYER_01
 66
     1
 10
0.0
 20
0.0
 30
0.0
 70
     1
  0
VERTEX
  5
2AD
  8
LAYER_01
 10
1691.116583353967
 20
745.6371065624221
 30
0.0
  0
VERTEX
  5
2AE
  8
LAYER_01
 10
1640.821017263613
 20
745.6371065624228
 30
0.0
  0
VERTEX
  5
2AF
  8
LAYER_01
 10
1640.821017263613
 20
844.2238249934185
 30
0.0
  0
VERTEX
  5
2B0
  8
LAYER_01
 10
1658.977618843768
 20
862.3804265735735
 30
0.0
  0
VERTEX
  5
2B1
  8
LAYER_01
 10
1733.418761104444
 20
787.9392843128978
 30
0.0
  0
SEQEND
  5
2B2
  8
LAYER_01
  0
POLYLINE
  5
2B3
  8
LAYER_01
 66
     1
 10
0.0
 20
0.0
 30
0.0
 70
     1
  0
VERTEX
  5
2B4
  8
LAYER_01
 10
1663.37027239783
 20
896.1841226283859
 30
0.0
  0
VERTEX
  5
2B5
  8
LAYER_01
 10
1705.634660192202
 20
938.4485104227572
 30
0.0
  0
VERTEX
  5
2B6
  8
LAYER_01
 10
1788.69009735958
 20
938.4485104227564
 30
0.0
  0
VERTEX
  5
2B7
  8
LAYER_01
 10
1788.69009735958
 20
985.4480895237807
 30
0.0
  0
VERTEX
  5
2B8
  8
LAYER_01
 10
1751.149228810981
 20
1022.98895807238
 30
0.0
  0
VERTEX
  5
2B9
  8
LAYER_01
 10
1730.352481216936
 20
1022.98895807238
 30
0.0
  0
VERTEX
  5
2BA
  8
LAYER_01
 10
1667.316270928118
 20
959.9527477835607
 30
0.0
  0
VERTEX
  5
2BB
  8
LAYER_01
 10
1658.096348636893
 20
959.9527477835607
 30
0.0
  0
VERTEX
  5
2BC
  8
LAYER_01
 10
1658.096348636893
 20
892.6727392811981
 30
0.0
  0
VERTEX
  5
2BD
  8
LAYER_01
 10
1658.977618843768
 20
891.7914690743232
 30
0.0
  0
SEQEND
  5
2BE
  8
LAYER_01
  0
POLYLINE
  5
2BF
  8
LAYER_01
 66
     1
 10
0.0
 20
0.0
 30
0.0
 70
     1
  0
VERTEX
  5
2C0
  8
LAYER_01
 10
1957.063502892067
 20
746.9054397700746
 30
0.0
  0
VERTEX
  5
2C1
  8
LAYER_01
 10
1957.063502892067
 20
787.6636414905445
 30
0.0
  0
VERTEX
  5
2C2
  8
LAYER_01
 10
1904.425666400272
 20
840.3014779823395
 30
0.0
  0
VERTEX
  5
2C3
  8
LAYER_01
 10
1851.787829908476
 20
787.6636414905445
 30
0.0
  0
VERTEX
  5
2C4
  8
LAYER_01
 10
1851.787829908476
 20
746.9054397700746
 30
0.0
  0
SEQEND
  5
2C5
  8
LAYER_01
  0
POLYLINE
  5
2C6
  8
LAYER_01
 66
     1
 10
0.0
 20
0.0
 30
0.0
 70
     1
  0
VERTEX
  5
2C7
  8
LAYER_01
 10
1714.248955098906
 20
917.6517628287113
 30
0.0
  0
VERTEX
  5
2C8
  8
LAYER_01
 10
1788.69009735958
 20
917.6517628287106
 30
0.0
  0
VERTEX
  5
2C9
  8
LAYER_01
 10
1788.690097359581
 20
843.2106205680361
 30
0.0
  0
VERTEX
  5
2CA
  8
LAYER_01
 10
1752.516935908881
 20
807.0374591173356
 30
0.0
  0
VERTEX
  5
2CB
  8
LAYER_01
 10
1748.124282354818
 20
802.6448055632727
 30
0.0
  0
VERTEX
  5
2CC
  8
LAYER_01
 10
1673.683140094143
 20
877.0859478239481
 30
0.0
  0
SEQEND
  5
2CD
  8
LAYER_01
  0
POLYLINE
  5
2CE
  8
LAYER_01
 66
     1
 10
0.0
 20
0.0
 30
0.0
 70
     1
  0
VERTEX
  5
2CF
  8
LAYER_01
 10
1909.573635634639
 20
988.1917120540428
 30
0.0
 42
-0.0567685437425675
  0
VERTEX
  5
2D0
  8
LAYER_01
 10
1899.277697165905
 20
988.1917120540428
 30
0.0
  0
VERTEX
  5
2D1
  8
LAYER_01
 10
1876.790787883687
 20
926.7584415004226
 30
0.0
  0
VERTEX
  5
2D2
  8
LAYER_01
 10
1904.425666400272
 20
899.1235629838379
 30
0.0
  0
VERTEX
  5
2D3
  8
LAYER_01
 10
1932.060544916857
 20
926.7584415004226
 30
0.0
  0
SEQEND
  5
2D4
  8
LAYER_01
  0
POLYLINE
  5
2D5
  8
LAYER_01
 66
     1
 10
0.0
 20
0.0
 30
0.0
 70
     1
  0
VERTEX
  5
2D6
  8
LAYER_01
 10
2117.734749446577
 20
745.6371065624221
 30
0.0
  0
VERTEX
  5
2D7
  8
LAYER_01
 10
2168.030315536931
 20
745.6371065624228
 30
0.0
  0
VERTEX
  5
2D8
  8
LAYER_01
 10
2168.030315536931
 20
844.2238249934185
 30
0.0
  0
VERTEX
  5
2D9
  8
LAYER_01
 10
2149.873713956776
 20
862.3804265735735
 30
0.0
  0
VERTEX
  5
2DA
  8
LAYER_01
 10
2075.4325716961
 20
787.9392843128978
 30
0.0
  0
SEQEND
  5
2DB
  8
LAYER_01
  0
POLYLINE
  5
2DC
  8
LAYER_01
 66
     1
 10
0.0
 20
0.0
 30
0.0
 70
     1
  0
VERTEX
  5
2DD
  8
LAYER_01
 10
2145.481060402713
 20
896.1841226283859
 30
0.0
  0
VERTEX
  5
2DE
  8
LAYER_01
 10
2103.216672608341
 20
938.4485104227572
 30
0.0
  0
VERTEX
  5
2DF
  8
LAYER_01
 10
2020.161235440964
 20
938.4485104227564
 30
0.0
  0
VERTEX
  5
2E0
  8
LAYER_01
 10
2020.161235440964
 20
985.4480895237807
 30
0.0
  0
VERTEX
  5
2E1
  8
LAYER_01
 10
2057.702103989563
 20
1022.98895807238
 30
0.0
  0
VERTEX
  5
2E2
  8
LAYER_01
 10
2078.498851583608
 20
1022.98895807238
 30
0.0
  0
VERTEX
  5
2E3
  8
LAYER_01
 10
2141.535061872426
 20
959.9527477835607
 30
0.0
  0
VERTEX
  5
2E4
  8
LAYER_01
 10
2150.754984163651
 20
959.9527477835607
 30
0.0
  0
VERTEX
  5
2E5
  8
LAYER_01
 10
2150.754984163651
 20
892.6727392811981
 30
0.0
  0
VERTEX
  5
2E6
  8
LAYER_01
 10
2149.873713956776
 20
891.7914690743232
 30
0.0
  0
SEQEND
  5
2E7
  8
LAYER_01
  0
POLYLINE
  5
2E8
  8
LAYER_01
 66
     1
 10
0.0
 20
0.0
 30
0.0
 70
     1
  0
VERTEX
  5
2E9
  8
LAYER_01
 10
2094.602377701638
 20
917.6517628287113
 30
0.0
  0
VERTEX
  5
2EA
  8
LAYER_01
 10
2020.161235440963
 20
917.6517628287106
 30
0.0
  0
VERTEX
  5
2EB
  8
LAYER_01
 10
2020.161235440962
 20
843.2106205680361
 30
0.0
  0
VERTEX
  5
2EC
  8
LAYER_01
 10
2056.334396891662
 20
807.0374591173356
 30
0.0
  0
VERTEX
  5
2ED
  8
LAYER_01
 10
2060.727050445726
 20
802.6448055632727
 30
0.0
  0
VERTEX
  5
2EE
  8
LAYER_01
 10
2135.168192706401
 20
877.0859478239481
 30
0.0
  0
SEQEND
  5
2EF
  8
LAYER_01
  0
POLYLINE
  5
2F0
  8
LAYER_01
 66
     1
 10
0.0
 20
0.0
 30
0.0
 70
     1
  0
VERTEX
  5
2F1
  8
LAYER_01
 10
1691.116583353967
 20
1321.137557176382
 30
0.0
  0
VERTEX
  5
2F2
  8
LAYER_01
 10
1640.821017263613
 20
1321.137557176382
 30
0.0
  0
VERTEX
  5
2F3
  8
LAYER_01
 10
1640.821017263613
 20
1222.550838745386
 30
0.0
  0
VERTEX
  5
2F4
  8
LAYER_01
 10
1658.977618843768
 20
1204.394237165231
 30
0.0
  0
VERTEX
  5
2F5
  8
LAYER_01
 10
1733.418761104444
 20
1278.835379425907
 30
0.0
  0
SEQEND
  5
2F6
  8
LAYER_01
  0
POLYLINE
  5
2F7
  8
LAYER_01
 66
     1
 10
0.0
 20
0.0
 30
0.0
 70
     1
  0
VERTEX
  5
2F8
  8
LAYER_01
 10
1663.37027239783
 20
1170.590541110419
 30
0.0
  0
VERTEX
  5
2F9
  8
LAYER_01
 10
1705.634660192202
 20
1128.326153316047
 30
0.0
  0
VERTEX
  5
2FA
  8
LAYER_01
 10
1788.69009735958
 20
1128.326153316048
 30
0.0
  0
VERTEX
  5
2FB
  8
LAYER_01
 10
1788.69009735958
 20
1081.326574215024
 30
0.0
  0
VERTEX
  5
2FC
  8
LAYER_01
 10
1751.149228810981
 20
1043.785705666425
 30
0.0
  0
VERTEX
  5
2FD
  8
LAYER_01
 10
1730.352481216936
 20
1043.785705666425
 30
0.0
  0
VERTEX
  5
2FE
  8
LAYER_01
 10
1667.316270928118
 20
1106.821915955244
 30
0.0
  0
VERTEX
  5
2FF
  8
LAYER_01
 10
1658.096348636893
 20
1106.821915955244
 30
0.0
  0
VERTEX
  5
300
  8
LAYER_01
 10
1658.096348636893
 20
1174.101924457606
 30
0.0
  0
VERTEX
  5
301
  8
LAYER_01
 10
1658.977618843768
 20
1174.983194664481
 30
0.0
  0
SEQEND
  5
302
  8
LAYER_01
  0
POLYLINE
  5
303
  8
LAYER_01
 66
     1
 10
0.0
 20
0.0
 30
0.0
 70
     1
  0
VERTEX
  5
304
  8
LAYER_01
 10
1957.063502892067
 20
1319.86922396873
 30
0.0
  0
VERTEX
  5
305
  8
LAYER_01
 10
1957.063502892067
 20
1279.11102224826
 30
0.0
  0
VERTEX
  5
306
  8
LAYER_01
 10
1904.425666400272
 20
1226.473185756465
 30
0.0
  0
VERTEX
  5
307
  8
LAYER_01
 10
1851.787829908476
 20
1279.11102224826
 30
0.0
  0
VERTEX
  5
308
  8
LAYER_01
 10
1851.787829908476
 20
1319.86922396873
 30
0.0
  0
SEQEND
  5
309
  8
LAYER_01
  0
POLYLINE
  5
30A
  8
LAYER_01
 66
     1
 10
0.0
 20
0.0
 30
0.0
 70
     1
  0
VERTEX
  5
30B
  8
LAYER_01
 10
1714.248955098906
 20
1149.122900910093
 30
0.0
  0
VERTEX
  5
30C
  8
LAYER_01
 10
1788.69009735958
 20
1149.122900910094
 30
0.0
  0
VERTEX
  5
30D
  8
LAYER_01
 10
1788.690097359581
 20
1223.564043170768
 30
0.0
  0
VERTEX
  5
30E
  8
LAYER_01
 10
1752.516935908881
 20
1259.737204621469
 30
0.0
  0
VERTEX
  5
30F
  8
LAYER_01
 10
1748.124282354818
 20
1264.129858175532
 30
0.0
  0
VERTEX
  5
310
  8
LAYER_01
 10
1673.683140094143
 20
1189.688715914856
 30
0.0
  0
SEQEND
  5
311
  8
LAYER_01
  0
POLYLINE
  5
312
  8
LAYER_01
 66
     1
 10
0.0
 20
0.0
 30
0.0
 70
     1
  0
VERTEX
  5
313
  8
LAYER_01
 10
1711.339812513209
 20
1033.387331869402
 30
0.0
  0
VERTEX
  5
314
  8
LAYER_01
 10
1658.701976021414
 20
1086.025168361198
 30
0.0
  0
VERTEX
  5
315
  8
LAYER_01
 10
1658.096348636893
 20
1086.025168361198
 30
0.0
  0
VERTEX
  5
316
  8
LAYER_01
 10
1658.096348636892
 20
980.7494953776063
 30
0.0
  0
VERTEX
  5
317
  8
LAYER_01
 10
1658.701976021414
 20
980.7494953776063
 30
0.0
  0
SEQEND
  5
318
  8
LAYER_01
  0
POLYLINE
  5
319
  8
LAYER_01
 66
     1
 10
0.0
 20
0.0
 30
0.0
 70
     1
  0
VERTEX
  5
31A
  8
LAYER_01
 10
2117.734749446577
 20
1321.137557176382
 30
0.0
  0
VERTEX
  5
31B
  8
LAYER_01
 10
2168.030315536931
 20
1321.137557176382
 30
0.0
  0
VERTEX
  5
31C
  8
LAYER_01
 10
2168.030315536931
 20
1222.550838745386
 30
0.0
  0
VERTEX
  5
31D
  8
LAYER_01
 10
2149.873713956776
 20
1204.394237165231
 30
0.0
  0
VERTEX
  5
31E
  8
LAYER_01
 10
2075.4325716961
 20
1278.835379425907
 30
0.0
  0
SEQEND
  5
31F
  8
LAYER_01
  0
POLYLINE
  5
320
  8
LAYER_01
 66
     1
 10
0.0
 20
0.0
 30
0.0
 70
     1
  0
VERTEX
  5
321
  8
LAYER_01
 10
2145.481060402713
 20
1170.590541110419
 30
0.0
  0
VERTEX
  5
322
  8
LAYER_01
 10
2103.216672608341
 20
1128.326153316047
 30
0.0
  0
VERTEX
  5
323
  8
LAYER_01
 10
2020.161235440964
 20
1128.326153316048
 30
0.0
  0
VERTEX
  5
324
  8
LAYER_01
 10
2020.161235440964
 20
1081.326574215024
 30
0.0
  0
VERTEX
  5
325
  8
LAYER_01
 10
2057.702103989563
 20
1043.785705666425
 30
0.0
  0
VERTEX
  5
326
  8
LAYER_01
 10
2078.498851583608
 20
1043.785705666425
 30
0.0
  0
VERTEX
  5
327
  8
LAYER_01
 10
2141.535061872426
 20
1106.821915955244
 30
0.0
  0
VERTEX
  5
328
  8
LAYER_01
 10
2150.754984163651
 20
1106.821915955244
 30
0.0
  0
VERTEX
  5
329
  8
LAYER_01
 10
2150.754984163651
 20
1174.101924457606
 30
0.0
  0
VERTEX
  5
32A
  8
LAYER_01
 10
2149.873713956776
 20
1174.983194664481
 30
0.0
  0
SEQEND
  5
32B
  8
LAYER_01
  0
POLYLINE
  5
32C
  8
LAYER_01
 66
     1
 10
0.0
 20
0.0
 30
0.0
 70
     1
  0
VERTEX
  5
32D
  8
LAYER_01
 10
2094.602377701638
 20
1149.122900910093
 30
0.0
  0
VERTEX
  5
32E
  8
LAYER_01
 10
2020.161235440963
 20
1149.122900910094
 30
0.0
  0
VERTEX
  5
32F
  8
LAYER_01
 10
2020.161235440962
 20
1223.564043170768
 30
0.0
  0
VERTEX
  5
330
  8
LAYER_01
 10
2056.334396891662
 20
1259.737204621469
 30
0.0
  0
VERTEX
  5
331
  8
LAYER_01
 10
2060.727050445726
 20
1264.129858175532
 30
0.0
  0
VERTEX
  5
332
  8
LAYER_01
 10
2135.168192706401
 20
1189.688715914856
 30
0.0
  0
SEQEND
  5
333
  8
LAYER_01
  0
POLYLINE
  5
334
  8
LAYER_01
 66
     1
 10
0.0
 20
0.0
 30
0.0
 70
     1
  0
VERTEX
  5
335
  8
LAYER_01
 10
2097.511520287335
 20
1033.387331869402
 30
0.0
  0
VERTEX
  5
336
  8
LAYER_01
 10
2150.14935677913
 20
1086.025168361198
 30
0.0
  0
VERTEX
  5
337
  8
LAYER_01
 10
2150.754984163651
 20
1086.025168361198
 30
0.0
  0
VERTEX
  5
338
  8
LAYER_01
 10
2150.754984163651
 20
980.7494953776063
 30
0.0
  0
VERTEX
  5
339
  8
LAYER_01
 10
2150.14935677913
 20
980.7494953776063
 30
0.0
  0
SEQEND
  5
33A
  8
LAYER_01
  0
CIRCLE
  5
33B
  8
LAYER_01
 10
1904.425666400272
 20
1033.387331869402
 30
0.0
 40
24.69111493798073
  0
POLYLINE
  5
33C
  8
LAYER_01
 66
     1
 10
0.0
 20
0.0
 30
0.0
 70
     1
  0
VERTEX
  5
33D
  8
LAYER_01
 10
1909.573635634639
 20
1078.582951684762
 30
0.0
 42
0.0567685437425846
  0
VERTEX
  5
33E
  8
LAYER_01
 10
1899.277697165905
 20
1078.582951684761
 30
0.0
  0
VERTEX
  5
33F
  8
LAYER_01
 10
1876.790787883687
 20
1140.016222238382
 30
0.0
  0
VERTEX
  5
340
  8
LAYER_01
 10
1904.425666400272
 20
1167.651100754967
 30
0.0
  0
VERTEX
  5
341
  8
LAYER_01
 10
1932.060544916857
 20
1140.016222238382
 30
0.0
  0
SEQEND
  5
342
  8
LAYER_01
  0
POLYLINE
  5
343
  8
LAYER_01
 66
     1
 10
0.0
 20
0.0
 30
0.0
 70
     1
  0
VERTEX
  5
344
  8
LAYER_01
 10
1809.486844953627
 20
834.5963256613325
 30
0.0
  0
VERTEX
  5
345
  8
LAYER_01
 10
1762.829803605193
 20
787.9392843128978
 30
0.0
  0
VERTEX
  5
346
  8
LAYER_01
 10
1803.863648148016
 20
746.9054397700746
 30
0.0
  0
VERTEX
  5
347
  8
LAYER_01
 10
1830.991082314431
 20
746.9054397700746
 30
0.0
  0
VERTEX
  5
348
  8
LAYER_01
 10
1830.991082314431
 20
796.2779363972484
 30
0.0
  0
VERTEX
  5
349
  8
LAYER_01
 10
1894.027292603249
 20
859.3141466860657
 30
0.0
  0
VERTEX
  5
34A
  8
LAYER_01
 10
1894.027292603249
 20
880.1108942801111
 30
0.0
  0
VERTEX
  5
34B
  8
LAYER_01
 10
1856.486424054649
 20
917.6517628287108
 30
0.0
  0
VERTEX
  5
34C
  8
LAYER_01
 10
1809.486844953626
 20
917.6517628287108
 30
0.0
  0
SEQEND
  5
34D
  8
LAYER_01
  0
POLYLINE
  5
34E
  8
LAYER_01
 66
     1
 10
0.0
 20
0.0
 30
0.0
 70
     1
  0
VERTEX
  5
34F
  8
LAYER_01
 10
1999.364487846917
 20
834.5963256613325
 30
0.0
  0
VERTEX
  5
350
  8
LAYER_01
 10
2046.021529195351
 20
787.9392843128978
 30
0.0
  0
VERTEX
  5
351
  8
LAYER_01
 10
2004.987684652528
 20
746.9054397700746
 30
0.0
  0
VERTEX
  5
352
  8
LAYER_01
 10
1977.860250486113
 20
746.9054397700746
 30
0.0
  0
VERTEX
  5
353
  8
LAYER_01
 10
1977.860250486113
 20
796.2779363972484
 30
0.0
  0
VERTEX
  5
354
  8
LAYER_01
 10
1914.824040197294
 20
859.3141466860657
 30
0.0
  0
VERTEX
  5
355
  8
LAYER_01
 10
1914.824040197294
 20
880.1108942801111
 30
0.0
  0
VERTEX
  5
356
  8
LAYER_01
 10
1952.364908745895
 20
917.6517628287108
 30
0.0
  0
VERTEX
  5
357
  8
LAYER_01
 10
1999.364487846918
 20
917.6517628287108
 30
0.0
  0
SEQEND
  5
358
  8
LAYER_01
  0
POLYLINE
  5
359
  8
LAYER_01
 66
     1
 10
0.0
 20
0.0
 30
0.0
 70
     1
  0
VERTEX
  5
35A
  8
LAYER_01
 10
1809.486844953627
 20
1232.178338077472
 30
0.0
  0
VERTEX
  5
35B
  8
LAYER_01
 10
1762.829803605193
 20
1278.835379425907
 30
0.0
  0
VERTEX
  5
35C
  8
LAYER_01
 10
1803.863648148016
 20
1319.86922396873
 30
0.0
  0
VERTEX
  5
35D
  8
LAYER_01
 10
1830.991082314431
 20
1319.86922396873
 30
0.0
  0
VERTEX
  5
35E
  8
LAYER_01
 10
1830.991082314431
 20
1270.496727341556
 30
0.0
  0
VERTEX
  5
35F
  8
LAYER_01
 10
1894.027292603249
 20
1207.460517052739
 30
0.0
  0
VERTEX
  5
360
  8
LAYER_01
 10
1894.027292603249
 20
1186.663769458693
 30
0.0
  0
VERTEX
  5
361
  8
LAYER_01
 10
1856.486424054649
 20
1149.122900910094
 30
0.0
  0
VERTEX
  5
362
  8
LAYER_01
 10
1809.486844953626
 20
1149.122900910094
 30
0.0
  0
SEQEND
  5
363
  8
LAYER_01
  0
POLYLINE
  5
364
  8
LAYER_01
 66
     1
 10
0.0
 20
0.0
 30
0.0
 70
     1
  0
VERTEX
  5
365
  8
LAYER_01
 10
1999.364487846917
 20
1232.178338077472
 30
0.0
  0
VERTEX
  5
366
  8
LAYER_01
 10
2046.021529195351
 20
1278.835379425907
 30
0.0
  0
VERTEX
  5
367
  8
LAYER_01
 10
2004.987684652528
 20
1319.86922396873
 30
0.0
  0
VERTEX
  5
368
  8
LAYER_01
 10
1977.860250486113
 20
1319.86922396873
 30
0.0
  0
VERTEX
  5
369
  8
LAYER_01
 10
1977.860250486113
 20
1270.496727341556
 30
0.0
  0
VERTEX
  5
36A
  8
LAYER_01
 10
1914.824040197294
 20
1207.460517052739
 30
0.0
  0
VERTEX
  5
36B
  8
LAYER_01
 10
1914.824040197294
 20
1186.663769458693
 30
0.0
  0
VERTEX
  5
36C
  8
LAYER_01
 10
1952.364908745895
 20
1149.122900910094
 30
0.0
  0
VERTEX
  5
36D
  8
LAYER_01
 10
1999.364487846918
 20
1149.122900910094
 30
0.0
  0
SEQEND
  5
36E
  8
LAYER_01
  0
ENDSEC
  0
EOF
