  0
SECTION
  2
HEADER
  9
$ACADVER
  1
AC1009
  9
$DWGCODEPAGE
  3
ansi_1252
  9
$INSBASE
 10
0.0
 20
0.0
 30
0.0
  9
$EXTMIN
 10
1.000000000000000E+20
 20
1.000000000000000E+20
 30
1.000000000000000E+20
  9
$EXTMAX
 10
-1.000000000000000E+20
 20
-1.000000000000000E+20
 30
-1.000000000000000E+20
  9
$LIMMIN
 10
0.0
 20
0.0
  9
$LIMMAX
 10
12.0
 20
9.0
  9
$ORTHOMODE
 70
     0
  9
$REGENMODE
 70
     1
  9
$FILLMODE
 70
     1
  9
$QTEXTMODE
 70
     0
  9
$MIRRTEXT
 70
     1
  9
$DRAGMODE
 70
     2
  9
$LTSCALE
 40
1.0
  9
$OSMODE
 70
    37
  9
$ATTMODE
 70
     1
  9
$TEXTSIZE
 40
0.2
  9
$TRACEWID
 40
0.05
  9
$TEXTSTYLE
  7
STANDARD
  9
$CLAYER
  8
LAYER_05
  9
$CELTYPE
  6
BYLAYER
  9
$CECOLOR
 62
   256
  9
$DIMSCALE
 40
1.0
  9
$DIMASZ
 40
0.18
  9
$DIMEXO
 40
0.0625
  9
$DIMDLI
 40
0.38
  9
$DIMRND
 40
0.0
  9
$DIMDLE
 40
0.0
  9
$DIMEXE
 40
0.18
  9
$DIMTP
 40
0.0
  9
$DIMTM
 40
0.0
  9
$DIMTXT
 40
0.18
  9
$DIMCEN
 40
0.09
  9
$DIMTSZ
 40
0.0
  9
$DIMTOL
 70
     0
  9
$DIMLIM
 70
     0
  9
$DIMTIH
 70
     1
  9
$DIMTOH
 70
     1
  9
$DIMSE1
 70
     0
  9
$DIMSE2
 70
     0
  9
$DIMTAD
 70
     0
  9
$DIMZIN
 70
     0
  9
$DIMBLK
  1

  9
$DIMASO
 70
     1
  9
$DIMSHO
 70
     1
  9
$DIMPOST
  1

  9
$DIMAPOST
  1

  9
$DIMALT
 70
     0
  9
$DIMALTD
 70
     2
  9
$DIMALTF
 40
25.4
  9
$DIMLFAC
 40
1.0
  9
$DIMTOFL
 70
     0
  9
$DIMTVP
 40
0.0
  9
$DIMTIX
 70
     0
  9
$DIMSOXD
 70
     0
  9
$DIMSAH
 70
     0
  9
$DIMBLK1
  1

  9
$DIMBLK2
  1

  9
$DIMSTYLE
  2
STANDARD_ACAD
  9
$DIMCLRD
 70
     0
  9
$DIMCLRE
 70
     0
  9
$DIMCLRT
 70
     0
  9
$DIMTFAC
 40
1.0
  9
$DIMGAP
 40
0.09
  9
$LUNITS
 70
     2
  9
$LUPREC
 70
     3
  9
$SKETCHINC
 40
0.1
  9
$FILLETRAD
 40
0.5
  9
$AUNITS
 70
     0
  9
$AUPREC
 70
     0
  9
$MENU
  1
.
  9
$ELEVATION
 40
0.0
  9
$PELEVATION
 40
0.0
  9
$THICKNESS
 40
0.0
  9
$LIMCHECK
 70
     0
  9
$CHAMFERA
 40
0.0
  9
$CHAMFERB
 40
0.0
  9
$SKPOLY
 70
     0
  9
$TDCREATE
 40
2460169.896178877
  9
$TDUPDATE
 40
2460169.896178935
  9
$TDINDWG
 40
0.0000000116
  9
$TDUSRTIMER
 40
0.0000000116
  9
$USRTIMER
 70
     1
  9
$ANGBASE
 50
0.0
  9
$ANGDIR
 70
     0
  9
$PDMODE
 70
     0
  9
$PDSIZE
 40
0.0
  9
$PLINEWID
 40
0.0
  9
$COORDS
 70
     1
  9
$SPLFRAME
 70
     0
  9
$SPLINETYPE
 70
     6
  9
$SPLINESEGS
 70
     8
  9
$ATTDIA
 70
     0
  9
$ATTREQ
 70
     1
  9
$HANDLING
 70
     1
  9
$HANDSEED
  5
413
  9
$SURFTAB1
 70
     6
  9
$SURFTAB2
 70
     6
  9
$SURFTYPE
 70
     6
  9
$SURFU
 70
     6
  9
$SURFV
 70
     6
  9
$UCSNAME
  2

  9
$UCSORG
 10
0.0
 20
0.0
 30
0.0
  9
$UCSXDIR
 10
1.0
 20
0.0
 30
0.0
  9
$UCSYDIR
 10
0.0
 20
1.0
 30
0.0
  9
$PUCSNAME
  2

  9
$PUCSORG
 10
0.0
 20
0.0
 30
0.0
  9
$PUCSXDIR
 10
1.0
 20
0.0
 30
0.0
  9
$PUCSYDIR
 10
0.0
 20
1.0
 30
0.0
  9
$USERI1
 70
     0
  9
$USERI2
 70
     0
  9
$USERI3
 70
     0
  9
$USERI4
 70
     0
  9
$USERI5
 70
     0
  9
$USERR1
 40
0.0
  9
$USERR2
 40
0.0
  9
$USERR3
 40
0.0
  9
$USERR4
 40
0.0
  9
$USERR5
 40
0.0
  9
$WORLDVIEW
 70
     1
  9
$SHADEDGE
 70
     3
  9
$SHADEDIF
 70
    70
  9
$TILEMODE
 70
     1
  9
$MAXACTVP
 70
    64
  9
$PLIMCHECK
 70
     0
  9
$PEXTMIN
 10
1.000000000000000E+20
 20
1.000000000000000E+20
 30
1.000000000000000E+20
  9
$PEXTMAX
 10
-1.000000000000000E+20
 20
-1.000000000000000E+20
 30
-1.000000000000000E+20
  9
$PLIMMIN
 10
0.0
 20
0.0
  9
$PLIMMAX
 10
12.0
 20
9.0
  9
$UNITMODE
 70
     0
  9
$VISRETAIN
 70
     1
  9
$PLINEGEN
 70
     0
  9
$PSLTSCALE
 70
     1
  0
ENDSEC
  0
SECTION
  2
TABLES
  0
TABLE
  2
VPORT
 70
     1
  0
VPORT
  2
*ACTIVE
 70
     0
 10
0.0
 20
0.0
 11
1.0
 21
1.0
 12
10.42990654205607
 22
4.5
 13
0.0
 23
0.0
 14
0.5
 24
0.5
 15
0.5
 25
0.5
 16
0.0
 26
0.0
 36
1.0
 17
0.0
 27
0.0
 37
0.0
 40
9.0
 41
1.972972972850329
 42
50.0
 43
0.0
 44
0.0
 50
0.0
 51
0.0
 71
     0
 72
   100
 73
     1
 74
     3
 75
     0
 76
     0
 77
     0
 78
     0
  0
ENDTAB
  0
TABLE
  2
LTYPE
 70
     1
  0
LTYPE
  2
CONTINUOUS
 70
     0
  3
Solid line
 72
    65
 73
     0
 40
0.0
  0
ENDTAB
  0
TABLE
  2
LAYER
 70
     2
  0
LAYER
  2
0
 70
     0
 62
     7
  6
CONTINUOUS
  0
LAYER
  2
LAYER_05
 70
     0
 62
     7
  6
CONTINUOUS
  0
ENDTAB
  0
TABLE
  2
STYLE
 70
     1
  0
STYLE
  2
STANDARD
 70
     0
 40
0.0
 41
1.0
 50
0.0
 71
     0
 42
0.2
  3
txt
  4

  0
ENDTAB
  0
TABLE
  2
VIEW
 70
     0
  0
ENDTAB
  0
TABLE
  2
UCS
 70
     0
  0
ENDTAB
  0
TABLE
  2
APPID
 70
     2
  0
APPID
  2
ACAD
 70
     0
  0
APPID
  2
RHINO
 70
     0
  0
ENDTAB
  0
TABLE
  2
DIMSTYLE
 70
     1
  0
DIMSTYLE
  2
STANDARD_ACAD
 70
     0
  3

  4

  5

  6

  7

 40
1.0
 41
0.18
 42
0.0625
 43
0.38
 44
0.18
 45
0.0
 46
0.0
 47
0.0
 48
0.0
140
0.18
141
0.09
142
0.0
143
25.4
144
1.0
145
0.0
146
1.0
147
0.09
 71
     0
 72
     0
 73
     1
 74
     1
 75
     0
 76
     0
 77
     0
 78
     0
170
     0
171
     2
172
     0
173
     0
174
     0
175
     0
176
     0
177
     0
178
     0
  0
ENDTAB
  0
ENDSEC
  0
SECTION
  2
BLOCKS
  0
BLOCK
  8
0
  2
$MODEL_SPACE
 70
     0
 10
0.0
 20
0.0
 30
0.0
  3
$MODEL_SPACE
  1

  0
ENDBLK
  5
21
  8
0
  0
BLOCK
 67
     1
  8
0
  2
$PAPER_SPACE
 70
     0
 10
0.0
 20
0.0
 30
0.0
  3
$PAPER_SPACE
  1

  0
ENDBLK
  5
1D
 67
     1
  8
0
  0
ENDSEC
  0
SECTION
  2
ENTITIES
  0
POLYLINE
  5
70
  8
LAYER_05
 66
     1
 10
0.0
 20
0.0
 30
0.0
  0
VERTEX
  5
71
  8
LAYER_05
 10
-1735.012578689906
 20
887.3506296867608
 30
0.0
  0
VERTEX
  5
72
  8
LAYER_05
 10
-1708.02838700424
 20
902.9299600203435
 30
0.0
  0
VERTEX
  5
73
  8
LAYER_05
 10
-1708.028387004238
 20
1064.922474539819
 30
0.0
  0
VERTEX
  5
74
  8
LAYER_05
 10
-1735.012578689906
 20
1111.660465540574
 30
0.0
  0
SEQEND
  5
75
  8
LAYER_05
  0
POLYLINE
  5
76
  8
LAYER_05
 66
     1
 10
0.0
 20
0.0
 30
0.0
  0
VERTEX
  5
77
  8
LAYER_05
 10
-1735.012578689906
 20
1299.597232283226
 30
0.0
  0
VERTEX
  5
78
  8
LAYER_05
 10
-1708.028387004243
 20
1346.335223283972
 30
0.0
  0
VERTEX
  5
79
  8
LAYER_05
 10
-1708.02838700424
 20
1508.327737803456
 30
0.0
  0
VERTEX
  5
7A
  8
LAYER_05
 10
-1735.012578689906
 20
1523.90706813704
 30
0.0
  0
SEQEND
  5
7B
  8
LAYER_05
  0
POLYLINE
  5
7C
  8
LAYER_05
 66
     1
 10
0.0
 20
0.0
 30
0.0
  0
VERTEX
  5
7D
  8
LAYER_05
 10
-1735.012578689904
 20
1151.660465540568
 30
0.0
  0
VERTEX
  5
7E
  8
LAYER_05
 10
-1708.028387004237
 20
1104.922474539821
 30
0.0
  0
VERTEX
  5
7F
  8
LAYER_05
 10
-1708.028387004239
 20
1158.890857911149
 30
0.0
  0
VERTEX
  5
80
  8
LAYER_05
 10
-1661.290396003489
 20
1131.906666225488
 30
0.0
  0
VERTEX
  5
81
  8
LAYER_05
 10
-1688.274587689159
 20
1178.644657226239
 30
0.0
  0
VERTEX
  5
82
  8
LAYER_05
 10
-1634.306204317825
 20
1178.644657226238
 30
0.0
  0
VERTEX
  5
83
  8
LAYER_05
 10
-1681.044195318574
 20
1205.628848911901
 30
0.0
  0
VERTEX
  5
84
  8
LAYER_05
 10
-1634.306204317827
 20
1232.613040597568
 30
0.0
  0
VERTEX
  5
85
  8
LAYER_05
 10
-1688.274587689155
 20
1232.613040597567
 30
0.0
  0
VERTEX
  5
86
  8
LAYER_05
 10
-1661.290396003493
 20
1279.351031598317
 30
0.0
  0
VERTEX
  5
87
  8
LAYER_05
 10
-1708.02838700424
 20
1252.366839912652
 30
0.0
  0
VERTEX
  5
88
  8
LAYER_05
 10
-1708.028387004244
 20
1306.335223283981
 30
0.0
  0
VERTEX
  5
89
  8
LAYER_05
 10
-1735.012578689906
 20
1259.597232283233
 30
0.0
  0
SEQEND
  5
8A
  8
LAYER_05
  0
POLYLINE
  5
8B
  8
LAYER_05
 66
     1
 10
0.0
 20
0.0
 30
0.0
  0
VERTEX
  5
8C
  8
LAYER_05
 10
-1735.012578689906
 20
864.2566189191766
 30
0.0
  0
VERTEX
  5
8D
  8
LAYER_05
 10
-1708.02838700424
 20
848.6772885855935
 30
0.0
  0
VERTEX
  5
8E
  8
LAYER_05
 10
-1708.028387004238
 20
686.6847740661183
 30
0.0
  0
VERTEX
  5
8F
  8
LAYER_05
 10
-1735.012578689906
 20
639.946783065363
 30
0.0
  0
SEQEND
  5
90
  8
LAYER_05
  0
POLYLINE
  5
91
  8
LAYER_05
 66
     1
 10
0.0
 20
0.0
 30
0.0
  0
VERTEX
  5
92
  8
LAYER_05
 10
-1641.044195318579
 20
545.978399694037
 30
0.0
  0
VERTEX
  5
93
  8
LAYER_05
 10
-1594.306204317834
 20
572.9625913796995
 30
0.0
  0
VERTEX
  5
94
  8
LAYER_05
 10
-1432.31368979835
 20
572.9625913797017
 30
0.0
  0
VERTEX
  5
95
  8
LAYER_05
 10
-1416.734359464766
 20
545.9783996940369
 30
0.0
  0
SEQEND
  5
96
  8
LAYER_05
  0
POLYLINE
  5
97
  8
LAYER_05
 66
     1
 10
0.0
 20
0.0
 30
0.0
  0
VERTEX
  5
98
  8
LAYER_05
 10
-1735.012578689904
 20
599.9467830653693
 30
0.0
  0
VERTEX
  5
99
  8
LAYER_05
 10
-1708.028387004237
 20
646.6847740661156
 30
0.0
  0
VERTEX
  5
9A
  8
LAYER_05
 10
-1708.028387004239
 20
592.7163906947876
 30
0.0
  0
VERTEX
  5
9B
  8
LAYER_05
 10
-1661.290396003489
 20
619.7005823804489
 30
0.0
  0
VERTEX
  5
9C
  8
LAYER_05
 10
-1688.274587689159
 20
572.9625913796981
 30
0.0
  0
VERTEX
  5
9D
  8
LAYER_05
 10
-1634.306204317825
 20
572.9625913796986
 30
0.0
  0
VERTEX
  5
9E
  8
LAYER_05
 10
-1681.044195318572
 20
545.978399694037
 30
0.0
  0
SEQEND
  5
9F
  8
LAYER_05
  0
POLYLINE
  5
A0
  8
LAYER_05
 66
     1
 10
0.0
 20
0.0
 30
0.0
  0
VERTEX
  5
A1
  8
LAYER_05
 10
-1393.640348697182
 20
545.9783996940373
 30
0.0
  0
VERTEX
  5
A2
  8
LAYER_05
 10
-1373.901781480049
 20
580.1666009827263
 30
0.0
  0
VERTEX
  5
A3
  8
LAYER_05
 10
-1334.424647045782
 20
580.1666009827263
 30
0.0
  0
VERTEX
  5
A4
  8
LAYER_05
 10
-1314.686079828648
 20
545.9783996940373
 30
0.0
  0
SEQEND
  5
A5
  8
LAYER_05
  0
POLYLINE
  5
A6
  8
LAYER_05
 66
     1
 10
0.0
 20
0.0
 30
0.0
  0
VERTEX
  5
A7
  8
LAYER_05
 10
-1291.592069061064
 20
545.9783996940373
 30
0.0
  0
VERTEX
  5
A8
  8
LAYER_05
 10
-1311.330636278197
 20
580.1666009827259
 30
0.0
  0
VERTEX
  5
A9
  8
LAYER_05
 10
-1280.17197561103
 20
580.1666009827259
 30
0.0
  0
VERTEX
  5
AA
  8
LAYER_05
 10
-1210.722723735083
 20
700.4562337795164
 30
0.0
  0
VERTEX
  5
AB
  8
LAYER_05
 10
-1210.722723735084
 20
561.55773002762
 30
0.0
  0
VERTEX
  5
AC
  8
LAYER_05
 10
-1183.738532049419
 20
545.9783996940369
 30
0.0
  0
SEQEND
  5
AD
  8
LAYER_05
  0
POLYLINE
  5
AE
  8
LAYER_05
 66
     1
 10
0.0
 20
0.0
 30
0.0
  0
VERTEX
  5
AF
  8
LAYER_05
 10
-1416.734359464766
 20
1865.279298129763
 30
0.0
  0
VERTEX
  5
B0
  8
LAYER_05
 10
-1432.313689798349
 20
1838.295106444098
 30
0.0
  0
VERTEX
  5
B1
  8
LAYER_05
 10
-1594.306204317824
 20
1838.295106444095
 30
0.0
  0
VERTEX
  5
B2
  8
LAYER_05
 10
-1641.04419531858
 20
1865.279298129763
 30
0.0
  0
SEQEND
  5
B3
  8
LAYER_05
  0
POLYLINE
  5
B4
  8
LAYER_05
 66
     1
 10
0.0
 20
0.0
 30
0.0
  0
VERTEX
  5
B5
  8
LAYER_05
 10
-1735.012578689906
 20
1771.310914758436
 30
0.0
  0
VERTEX
  5
B6
  8
LAYER_05
 10
-1708.028387004243
 20
1724.572923757691
 30
0.0
  0
VERTEX
  5
B7
  8
LAYER_05
 10
-1708.02838700424
 20
1562.580409238208
 30
0.0
  0
VERTEX
  5
B8
  8
LAYER_05
 10
-1735.012578689906
 20
1547.001078904623
 30
0.0
  0
SEQEND
  5
B9
  8
LAYER_05
  0
POLYLINE
  5
BA
  8
LAYER_05
 66
     1
 10
0.0
 20
0.0
 30
0.0
  0
VERTEX
  5
BB
  8
LAYER_05
 10
-1681.044195318574
 20
1865.279298129762
 30
0.0
  0
VERTEX
  5
BC
  8
LAYER_05
 10
-1634.306204317827
 20
1838.295106444095
 30
0.0
  0
VERTEX
  5
BD
  8
LAYER_05
 10
-1688.274587689155
 20
1838.295106444096
 30
0.0
  0
VERTEX
  5
BE
  8
LAYER_05
 10
-1661.290396003493
 20
1791.557115443346
 30
0.0
  0
VERTEX
  5
BF
  8
LAYER_05
 10
-1708.02838700424
 20
1818.541307129011
 30
0.0
  0
VERTEX
  5
C0
  8
LAYER_05
 10
-1708.028387004244
 20
1764.572923757682
 30
0.0
  0
VERTEX
  5
C1
  8
LAYER_05
 10
-1735.012578689907
 20
1811.310914758431
 30
0.0
  0
SEQEND
  5
C2
  8
LAYER_05
  0
POLYLINE
  5
C3
  8
LAYER_05
 66
     1
 10
0.0
 20
0.0
 30
0.0
  0
VERTEX
  5
C4
  8
LAYER_05
 10
-1314.686079828648
 20
1865.279298129763
 30
0.0
  0
VERTEX
  5
C5
  8
LAYER_05
 10
-1334.424647045781
 20
1831.091096841074
 30
0.0
  0
VERTEX
  5
C6
  8
LAYER_05
 10
-1373.901781480049
 20
1831.091096841074
 30
0.0
  0
VERTEX
  5
C7
  8
LAYER_05
 10
-1393.640348697182
 20
1865.279298129763
 30
0.0
  0
SEQEND
  5
C8
  8
LAYER_05
  0
POLYLINE
  5
C9
  8
LAYER_05
 66
     1
 10
0.0
 20
0.0
 30
0.0
  0
VERTEX
  5
CA
  8
LAYER_05
 10
-1183.738532049419
 20
1865.279298129763
 30
0.0
  0
VERTEX
  5
CB
  8
LAYER_05
 10
-1210.722723735084
 20
1849.69996779618
 30
0.0
  0
VERTEX
  5
CC
  8
LAYER_05
 10
-1210.722723735083
 20
1710.801464044284
 30
0.0
  0
VERTEX
  5
CD
  8
LAYER_05
 10
-1280.171975611031
 20
1831.091096841074
 30
0.0
  0
VERTEX
  5
CE
  8
LAYER_05
 10
-1311.330636278197
 20
1831.091096841074
 30
0.0
  0
VERTEX
  5
CF
  8
LAYER_05
 10
-1291.592069061064
 20
1865.279298129763
 30
0.0
  0
SEQEND
  5
D0
  8
LAYER_05
  0
POLYLINE
  5
D1
  8
LAYER_05
 66
     1
 10
0.0
 20
0.0
 30
0.0
  0
VERTEX
  5
D2
  8
LAYER_05
 10
-592.4644854089356
 20
887.3506296867608
 30
0.0
  0
VERTEX
  5
D3
  8
LAYER_05
 10
-619.448677094601
 20
902.9299600203435
 30
0.0
  0
VERTEX
  5
D4
  8
LAYER_05
 10
-619.4486770946032
 20
1064.922474539819
 30
0.0
  0
VERTEX
  5
D5
  8
LAYER_05
 10
-592.4644854089356
 20
1111.660465540574
 30
0.0
  0
SEQEND
  5
D6
  8
LAYER_05
  0
POLYLINE
  5
D7
  8
LAYER_05
 66
     1
 10
0.0
 20
0.0
 30
0.0
  0
VERTEX
  5
D8
  8
LAYER_05
 10
-592.4644854089356
 20
1299.597232283226
 30
0.0
  0
VERTEX
  5
D9
  8
LAYER_05
 10
-619.4486770945982
 20
1346.335223283972
 30
0.0
  0
VERTEX
  5
DA
  8
LAYER_05
 10
-619.448677094601
 20
1508.327737803456
 30
0.0
  0
VERTEX
  5
DB
  8
LAYER_05
 10
-592.4644854089356
 20
1523.90706813704
 30
0.0
  0
SEQEND
  5
DC
  8
LAYER_05
  0
POLYLINE
  5
DD
  8
LAYER_05
 66
     1
 10
0.0
 20
0.0
 30
0.0
  0
VERTEX
  5
DE
  8
LAYER_05
 10
-592.464485408937
 20
1151.660465540568
 30
0.0
  0
VERTEX
  5
DF
  8
LAYER_05
 10
-619.4486770946039
 20
1104.922474539821
 30
0.0
  0
VERTEX
  5
E0
  8
LAYER_05
 10
-619.4486770946028
 20
1158.890857911149
 30
0.0
  0
VERTEX
  5
E1
  8
LAYER_05
 10
-666.1866680953524
 20
1131.906666225488
 30
0.0
  0
VERTEX
  5
E2
  8
LAYER_05
 10
-639.2024764096825
 20
1178.644657226239
 30
0.0
  0
VERTEX
  5
E3
  8
LAYER_05
 10
-693.1708597810159
 20
1178.644657226238
 30
0.0
  0
VERTEX
  5
E4
  8
LAYER_05
 10
-646.4328687802677
 20
1205.628848911901
 30
0.0
  0
VERTEX
  5
E5
  8
LAYER_05
 10
-693.1708597810143
 20
1232.613040597568
 30
0.0
  0
VERTEX
  5
E6
  8
LAYER_05
 10
-639.2024764096864
 20
1232.613040597567
 30
0.0
  0
VERTEX
  5
E7
  8
LAYER_05
 10
-666.1866680953481
 20
1279.351031598317
 30
0.0
  0
VERTEX
  5
E8
  8
LAYER_05
 10
-619.448677094601
 20
1252.366839912652
 30
0.0
  0
VERTEX
  5
E9
  8
LAYER_05
 10
-619.4486770945973
 20
1306.335223283981
 30
0.0
  0
VERTEX
  5
EA
  8
LAYER_05
 10
-592.4644854089354
 20
1259.597232283234
 30
0.0
  0
SEQEND
  5
EB
  8
LAYER_05
  0
POLYLINE
  5
EC
  8
LAYER_05
 66
     1
 10
0.0
 20
0.0
 30
0.0
  0
VERTEX
  5
ED
  8
LAYER_05
 10
-592.4644854089356
 20
864.2566189191766
 30
0.0
  0
VERTEX
  5
EE
  8
LAYER_05
 10
-619.448677094601
 20
848.6772885855935
 30
0.0
  0
VERTEX
  5
EF
  8
LAYER_05
 10
-619.4486770946032
 20
686.6847740661183
 30
0.0
  0
VERTEX
  5
F0
  8
LAYER_05
 10
-592.4644854089356
 20
639.946783065363
 30
0.0
  0
SEQEND
  5
F1
  8
LAYER_05
  0
POLYLINE
  5
F2
  8
LAYER_05
 66
     1
 10
0.0
 20
0.0
 30
0.0
  0
VERTEX
  5
F3
  8
LAYER_05
 10
-686.432868780262
 20
545.978399694037
 30
0.0
  0
VERTEX
  5
F4
  8
LAYER_05
 10
-733.1708597810075
 20
572.9625913796995
 30
0.0
  0
VERTEX
  5
F5
  8
LAYER_05
 10
-895.1633743004911
 20
572.9625913797017
 30
0.0
  0
VERTEX
  5
F6
  8
LAYER_05
 10
-910.7427046340752
 20
545.9783996940369
 30
0.0
  0
SEQEND
  5
F7
  8
LAYER_05
  0
POLYLINE
  5
F8
  8
LAYER_05
 66
     1
 10
0.0
 20
0.0
 30
0.0
  0
VERTEX
  5
F9
  8
LAYER_05
 10
-592.464485408937
 20
599.9467830653693
 30
0.0
  0
VERTEX
  5
FA
  8
LAYER_05
 10
-619.4486770946039
 20
646.6847740661156
 30
0.0
  0
VERTEX
  5
FB
  8
LAYER_05
 10
-619.4486770946028
 20
592.7163906947876
 30
0.0
  0
VERTEX
  5
FC
  8
LAYER_05
 10
-666.1866680953524
 20
619.7005823804489
 30
0.0
  0
VERTEX
  5
FD
  8
LAYER_05
 10
-639.2024764096825
 20
572.9625913796981
 30
0.0
  0
VERTEX
  5
FE
  8
LAYER_05
 10
-693.1708597810159
 20
572.9625913796986
 30
0.0
  0
VERTEX
  5
FF
  8
LAYER_05
 10
-646.4328687802695
 20
545.978399694037
 30
0.0
  0
SEQEND
  5
100
  8
LAYER_05
  0
POLYLINE
  5
101
  8
LAYER_05
 66
     1
 10
0.0
 20
0.0
 30
0.0
  0
VERTEX
  5
102
  8
LAYER_05
 10
-933.8367154016589
 20
545.9783996940373
 30
0.0
  0
VERTEX
  5
103
  8
LAYER_05
 10
-953.5752826187927
 20
580.1666009827263
 30
0.0
  0
VERTEX
  5
104
  8
LAYER_05
 10
-993.0524170530598
 20
580.1666009827263
 30
0.0
  0
VERTEX
  5
105
  8
LAYER_05
 10
-1012.790984270193
 20
545.9783996940373
 30
0.0
  0
SEQEND
  5
106
  8
LAYER_05
  0
POLYLINE
  5
107
  8
LAYER_05
 66
     1
 10
0.0
 20
0.0
 30
0.0
  0
VERTEX
  5
108
  8
LAYER_05
 10
-1035.884995037778
 20
545.9783996940373
 30
0.0
  0
VERTEX
  5
109
  8
LAYER_05
 10
-1016.146427820644
 20
580.1666009827259
 30
0.0
  0
VERTEX
  5
10A
  8
LAYER_05
 10
-1047.305088487811
 20
580.1666009827259
 30
0.0
  0
VERTEX
  5
10B
  8
LAYER_05
 10
-1116.754340363758
 20
700.4562337795164
 30
0.0
  0
VERTEX
  5
10C
  8
LAYER_05
 10
-1116.754340363757
 20
561.55773002762
 30
0.0
  0
VERTEX
  5
10D
  8
LAYER_05
 10
-1143.738532049423
 20
545.9783996940369
 30
0.0
  0
SEQEND
  5
10E
  8
LAYER_05
  0
POLYLINE
  5
10F
  8
LAYER_05
 66
     1
 10
0.0
 20
0.0
 30
0.0
  0
VERTEX
  5
110
  8
LAYER_05
 10
-910.7427046340752
 20
1865.279298129763
 30
0.0
  0
VERTEX
  5
111
  8
LAYER_05
 10
-895.1633743004923
 20
1838.295106444098
 30
0.0
  0
VERTEX
  5
112
  8
LAYER_05
 10
-733.1708597810168
 20
1838.295106444095
 30
0.0
  0
VERTEX
  5
113
  8
LAYER_05
 10
-686.4328687802617
 20
1865.279298129763
 30
0.0
  0
SEQEND
  5
114
  8
LAYER_05
  0
POLYLINE
  5
115
  8
LAYER_05
 66
     1
 10
0.0
 20
0.0
 30
0.0
  0
VERTEX
  5
116
  8
LAYER_05
 10
-592.4644854089356
 20
1771.310914758436
 30
0.0
  0
VERTEX
  5
117
  8
LAYER_05
 10
-619.4486770945982
 20
1724.572923757691
 30
0.0
  0
VERTEX
  5
118
  8
LAYER_05
 10
-619.448677094601
 20
1562.580409238208
 30
0.0
  0
VERTEX
  5
119
  8
LAYER_05
 10
-592.4644854089356
 20
1547.001078904623
 30
0.0
  0
SEQEND
  5
11A
  8
LAYER_05
  0
POLYLINE
  5
11B
  8
LAYER_05
 66
     1
 10
0.0
 20
0.0
 30
0.0
  0
VERTEX
  5
11C
  8
LAYER_05
 10
-646.4328687802677
 20
1865.279298129762
 30
0.0
  0
VERTEX
  5
11D
  8
LAYER_05
 10
-693.1708597810143
 20
1838.295106444095
 30
0.0
  0
VERTEX
  5
11E
  8
LAYER_05
 10
-639.2024764096864
 20
1838.295106444096
 30
0.0
  0
VERTEX
  5
11F
  8
LAYER_05
 10
-666.1866680953481
 20
1791.557115443346
 30
0.0
  0
VERTEX
  5
120
  8
LAYER_05
 10
-619.448677094601
 20
1818.541307129011
 30
0.0
  0
VERTEX
  5
121
  8
LAYER_05
 10
-619.4486770945973
 20
1764.572923757682
 30
0.0
  0
VERTEX
  5
122
  8
LAYER_05
 10
-592.4644854089345
 20
1811.310914758431
 30
0.0
  0
SEQEND
  5
123
  8
LAYER_05
  0
POLYLINE
  5
124
  8
LAYER_05
 66
     1
 10
0.0
 20
0.0
 30
0.0
  0
VERTEX
  5
125
  8
LAYER_05
 10
-1012.790984270193
 20
1865.279298129763
 30
0.0
  0
VERTEX
  5
126
  8
LAYER_05
 10
-993.05241705306
 20
1831.091096841074
 30
0.0
  0
VERTEX
  5
127
  8
LAYER_05
 10
-953.5752826187927
 20
1831.091096841074
 30
0.0
  0
VERTEX
  5
128
  8
LAYER_05
 10
-933.8367154016589
 20
1865.279298129763
 30
0.0
  0
SEQEND
  5
129
  8
LAYER_05
  0
POLYLINE
  5
12A
  8
LAYER_05
 66
     1
 10
0.0
 20
0.0
 30
0.0
  0
VERTEX
  5
12B
  8
LAYER_05
 10
-1143.738532049423
 20
1865.279298129763
 30
0.0
  0
VERTEX
  5
12C
  8
LAYER_05
 10
-1116.754340363757
 20
1849.69996779618
 30
0.0
  0
VERTEX
  5
12D
  8
LAYER_05
 10
-1116.754340363758
 20
1710.801464044284
 30
0.0
  0
VERTEX
  5
12E
  8
LAYER_05
 10
-1047.30508848781
 20
1831.091096841074
 30
0.0
  0
VERTEX
  5
12F
  8
LAYER_05
 10
-1016.146427820644
 20
1831.091096841074
 30
0.0
  0
VERTEX
  5
130
  8
LAYER_05
 10
-1035.884995037777
 20
1865.279298129763
 30
0.0
  0
SEQEND
  5
131
  8
LAYER_05
  0
POLYLINE
  5
132
  8
LAYER_05
 66
     1
 10
0.0
 20
0.0
 30
0.0
 70
     1
  0
VERTEX
  5
133
  8
LAYER_05
 10
-1735.012578689906
 20
545.978399694037
 30
0.0
  0
VERTEX
  5
134
  8
LAYER_05
 10
-592.4644854089354
 20
545.978399694037
 30
0.0
  0
VERTEX
  5
135
  8
LAYER_05
 10
-592.4644854089354
 20
1865.279298129763
 30
0.0
  0
VERTEX
  5
136
  8
LAYER_05
 10
-1735.012578689906
 20
1865.279298129763
 30
0.0
  0
SEQEND
  5
137
  8
LAYER_05
  0
POLYLINE
  5
138
  8
LAYER_05
 66
     1
 10
0.0
 20
0.0
 30
0.0
 70
     1
  0
VERTEX
  5
139
  8
LAYER_05
 10
-1626.649379852113
 20
1299.351031598318
 30
0.0
  0
VERTEX
  5
13A
  8
LAYER_05
 10
-1653.633571537782
 20
1252.613040597563
 30
0.0
  0
VERTEX
  5
13B
  8
LAYER_05
 10
-1599.665188166456
 20
1252.613040597563
 30
0.0
  0
VERTEX
  5
13C
  8
LAYER_05
 10
-1459.375555369663
 20
1333.609297857303
 30
0.0
  0
VERTEX
  5
13D
  8
LAYER_05
 10
-1459.375555369662
 20
1364.76795852447
 30
0.0
  0
VERTEX
  5
13E
  8
LAYER_05
 10
-1486.359747055327
 20
1380.347288858053
 30
0.0
  0
SEQEND
  5
13F
  8
LAYER_05
  0
POLYLINE
  5
140
  8
LAYER_05
 66
     1
 10
0.0
 20
0.0
 30
0.0
 70
     1
  0
VERTEX
  5
141
  8
LAYER_05
 10
-1688.028387004242
 20
1340.97623943536
 30
0.0
  0
VERTEX
  5
142
  8
LAYER_05
 10
-1688.028387004242
 20
1287.007856064024
 30
0.0
  0
VERTEX
  5
143
  8
LAYER_05
 10
-1641.290396003497
 20
1313.992047749687
 30
0.0
  0
VERTEX
  5
144
  8
LAYER_05
 10
-1560.294138743753
 20
1454.281680546478
 30
0.0
  0
VERTEX
  5
145
  8
LAYER_05
 10
-1575.873469077336
 20
1481.265872232143
 30
0.0
  0
VERTEX
  5
146
  8
LAYER_05
 10
-1607.032129744502
 20
1481.265872232144
 30
0.0
  0
SEQEND
  5
147
  8
LAYER_05
  0
POLYLINE
  5
148
  8
LAYER_05
 66
     1
 10
0.0
 20
0.0
 30
0.0
 70
     1
  0
VERTEX
  5
149
  8
LAYER_05
 10
-1641.290396003488
 20
1097.265650074108
 30
0.0
  0
VERTEX
  5
14A
  8
LAYER_05
 10
-1688.028387004243
 20
1124.249841759776
 30
0.0
  0
VERTEX
  5
14B
  8
LAYER_05
 10
-1688.028387004242
 20
1070.281458388451
 30
0.0
  0
VERTEX
  5
14C
  8
LAYER_05
 10
-1607.032129744503
 20
929.9918255916568
 30
0.0
  0
VERTEX
  5
14D
  8
LAYER_05
 10
-1575.873469077336
 20
929.9918255916568
 30
0.0
  0
VERTEX
  5
14E
  8
LAYER_05
 10
-1560.294138743753
 20
956.9760172773208
 30
0.0
  0
SEQEND
  5
14F
  8
LAYER_05
  0
POLYLINE
  5
150
  8
LAYER_05
 66
     1
 10
0.0
 20
0.0
 30
0.0
 70
     1
  0
VERTEX
  5
151
  8
LAYER_05
 10
-1599.665188166446
 20
1158.644657226237
 30
0.0
  0
VERTEX
  5
152
  8
LAYER_05
 10
-1653.633571537782
 20
1158.644657226237
 30
0.0
  0
VERTEX
  5
153
  8
LAYER_05
 10
-1626.649379852119
 20
1111.906666225491
 30
0.0
  0
VERTEX
  5
154
  8
LAYER_05
 10
-1486.359747055328
 20
1030.910408965747
 30
0.0
  0
VERTEX
  5
155
  8
LAYER_05
 10
-1459.375555369662
 20
1046.48973929933
 30
0.0
  0
VERTEX
  5
156
  8
LAYER_05
 10
-1459.375555369662
 20
1077.648399966497
 30
0.0
  0
SEQEND
  5
157
  8
LAYER_05
  0
POLYLINE
  5
158
  8
LAYER_05
 66
     1
 10
0.0
 20
0.0
 30
0.0
 70
     1
  0
VERTEX
  5
159
  8
LAYER_05
 10
-1594.306204317824
 20
1232.613040597567
 30
0.0
  0
VERTEX
  5
15A
  8
LAYER_05
 10
-1641.04419531858
 20
1205.6288489119
 30
0.0
  0
VERTEX
  5
15B
  8
LAYER_05
 10
-1594.306204317834
 20
1178.644657226238
 30
0.0
  0
VERTEX
  5
15C
  8
LAYER_05
 10
-1432.31368979835
 20
1178.644657226235
 30
0.0
  0
VERTEX
  5
15D
  8
LAYER_05
 10
-1416.734359464766
 20
1205.6288489119
 30
0.0
  0
VERTEX
  5
15E
  8
LAYER_05
 10
-1432.313689798349
 20
1232.613040597565
 30
0.0
  0
SEQEND
  5
15F
  8
LAYER_05
  0
POLYLINE
  5
160
  8
LAYER_05
 66
     1
 10
0.0
 20
0.0
 30
0.0
 70
     1
  0
VERTEX
  5
161
  8
LAYER_05
 10
-1257.460714735837
 20
984.1668231407607
 30
0.0
  0
VERTEX
  5
162
  8
LAYER_05
 10
-1210.722723735082
 20
957.1826314550926
 30
0.0
  0
VERTEX
  5
163
  8
LAYER_05
 10
-1210.722723735083
 20
1011.151014826418
 30
0.0
  0
VERTEX
  5
164
  8
LAYER_05
 10
-1291.718980994822
 20
1151.440647623212
 30
0.0
  0
VERTEX
  5
165
  8
LAYER_05
 10
-1322.877641661989
 20
1151.440647623212
 30
0.0
  0
VERTEX
  5
166
  8
LAYER_05
 10
-1338.456971995572
 20
1124.456455937548
 30
0.0
  0
SEQEND
  5
167
  8
LAYER_05
  0
POLYLINE
  5
168
  8
LAYER_05
 66
     1
 10
0.0
 20
0.0
 30
0.0
 70
     1
  0
VERTEX
  5
169
  8
LAYER_05
 10
-1299.085922572879
 20
922.7878159886322
 30
0.0
  0
VERTEX
  5
16A
  8
LAYER_05
 10
-1245.117539201543
 20
922.7878159886318
 30
0.0
  0
VERTEX
  5
16B
  8
LAYER_05
 10
-1272.101730887206
 20
969.5258069893775
 30
0.0
  0
VERTEX
  5
16C
  8
LAYER_05
 10
-1412.391363683997
 20
1050.522064249121
 30
0.0
  0
VERTEX
  5
16D
  8
LAYER_05
 10
-1439.375555369663
 20
1034.942733915538
 30
0.0
  0
VERTEX
  5
16E
  8
LAYER_05
 10
-1439.375555369663
 20
1003.784073248372
 30
0.0
  0
SEQEND
  5
16F
  8
LAYER_05
  0
POLYLINE
  5
170
  8
LAYER_05
 66
     1
 10
0.0
 20
0.0
 30
0.0
 70
     1
  0
VERTEX
  5
171
  8
LAYER_05
 10
-1272.101730887211
 20
1441.731890834414
 30
0.0
  0
VERTEX
  5
172
  8
LAYER_05
 10
-1245.117539201543
 20
1488.469881835168
 30
0.0
  0
VERTEX
  5
173
  8
LAYER_05
 10
-1299.085922572869
 20
1488.469881835169
 30
0.0
  0
VERTEX
  5
174
  8
LAYER_05
 10
-1439.375555369663
 20
1407.473624575428
 30
0.0
  0
VERTEX
  5
175
  8
LAYER_05
 10
-1439.375555369663
 20
1376.314963908262
 30
0.0
  0
VERTEX
  5
176
  8
LAYER_05
 10
-1412.391363683998
 20
1360.735633574678
 30
0.0
  0
SEQEND
  5
177
  8
LAYER_05
  0
POLYLINE
  5
178
  8
LAYER_05
 66
     1
 10
0.0
 20
0.0
 30
0.0
 70
     1
  0
VERTEX
  5
179
  8
LAYER_05
 10
-1210.722723735083
 20
1400.106682997372
 30
0.0
  0
VERTEX
  5
17A
  8
LAYER_05
 10
-1210.722723735082
 20
1454.075066368708
 30
0.0
  0
VERTEX
  5
17B
  8
LAYER_05
 10
-1257.460714735828
 20
1427.090874683045
 30
0.0
  0
VERTEX
  5
17C
  8
LAYER_05
 10
-1338.456971995572
 20
1286.801241886254
 30
0.0
  0
VERTEX
  5
17D
  8
LAYER_05
 10
-1322.877641661989
 20
1259.817050200588
 30
0.0
  0
VERTEX
  5
17E
  8
LAYER_05
 10
-1291.718980994823
 20
1259.817050200587
 30
0.0
  0
SEQEND
  5
17F
  8
LAYER_05
  0
POLYLINE
  5
180
  8
LAYER_05
 66
     1
 10
0.0
 20
0.0
 30
0.0
 70
     1
  0
VERTEX
  5
181
  8
LAYER_05
 10
-1314.686079828648
 20
1205.6288489119
 30
0.0
  0
VERTEX
  5
182
  8
LAYER_05
 10
-1334.424647045781
 20
1239.817050200588
 30
0.0
  0
VERTEX
  5
183
  8
LAYER_05
 10
-1373.901781480049
 20
1239.817050200588
 30
0.0
  0
VERTEX
  5
184
  8
LAYER_05
 10
-1393.640348697182
 20
1205.6288489119
 30
0.0
  0
VERTEX
  5
185
  8
LAYER_05
 10
-1373.901781480049
 20
1171.440647623211
 30
0.0
  0
VERTEX
  5
186
  8
LAYER_05
 10
-1334.424647045782
 20
1171.440647623211
 30
0.0
  0
SEQEND
  5
187
  8
LAYER_05
  0
POLYLINE
  5
188
  8
LAYER_05
 66
     1
 10
0.0
 20
0.0
 30
0.0
  0
VERTEX
  5
189
  8
LAYER_05
 10
-1163.73853204942
 20
1194.081843528108
 30
0.0
  0
VERTEX
  5
18A
  8
LAYER_05
 10
-1190.722723735085
 20
1178.502513194525
 30
0.0
  0
VERTEX
  5
18B
  8
LAYER_05
 10
-1190.722723735087
 20
1016.50999867505
 30
0.0
  0
VERTEX
  5
18C
  8
LAYER_05
 10
-1163.738532049419
 20
969.7720076742944
 30
0.0
  0
SEQEND
  5
18D
  8
LAYER_05
  0
POLYLINE
  5
18E
  8
LAYER_05
 66
     1
 10
0.0
 20
0.0
 30
0.0
 70
     1
  0
VERTEX
  5
18F
  8
LAYER_05
 10
-1439.375555369663
 20
1058.036744683122
 30
0.0
  0
VERTEX
  5
190
  8
LAYER_05
 10
-1412.391363683997
 20
1073.616075016706
 30
0.0
  0
VERTEX
  5
191
  8
LAYER_05
 10
-1292.101730887208
 20
1004.166823140757
 30
0.0
  0
VERTEX
  5
192
  8
LAYER_05
 10
-1361.550982763157
 20
1124.456455937548
 30
0.0
  0
VERTEX
  5
193
  8
LAYER_05
 10
-1345.971652429574
 20
1151.440647623212
 30
0.0
  0
VERTEX
  5
194
  8
LAYER_05
 10
-1385.448786863841
 20
1151.440647623212
 30
0.0
  0
VERTEX
  5
195
  8
LAYER_05
 10
-1405.187354080974
 20
1185.628848911901
 30
0.0
  0
VERTEX
  5
196
  8
LAYER_05
 10
-1420.766684414558
 20
1158.644657226236
 30
0.0
  0
VERTEX
  5
197
  8
LAYER_05
 10
-1559.665188166454
 20
1158.644657226237
 30
0.0
  0
VERTEX
  5
198
  8
LAYER_05
 10
-1439.375555369663
 20
1089.195405350289
 30
0.0
  0
SEQEND
  5
199
  8
LAYER_05
  0
POLYLINE
  5
19A
  8
LAYER_05
 66
     1
 10
0.0
 20
0.0
 30
0.0
 70
     1
  0
VERTEX
  5
19B
  8
LAYER_05
 10
-1311.330636278197
 20
1239.817050200588
 30
0.0
  0
VERTEX
  5
19C
  8
LAYER_05
 10
-1291.592069061064
 20
1205.6288489119
 30
0.0
  0
VERTEX
  5
19D
  8
LAYER_05
 10
-1311.330636278197
 20
1171.440647623211
 30
0.0
  0
VERTEX
  5
19E
  8
LAYER_05
 10
-1280.17197561103
 20
1171.440647623211
 30
0.0
  0
VERTEX
  5
19F
  8
LAYER_05
 10
-1210.722723735083
 20
1051.151014826421
 30
0.0
  0
VERTEX
  5
1A0
  8
LAYER_05
 10
-1210.722723735084
 20
1190.049518578317
 30
0.0
  0
VERTEX
  5
1A1
  8
LAYER_05
 10
-1183.738532049419
 20
1205.6288489119
 30
0.0
  0
VERTEX
  5
1A2
  8
LAYER_05
 10
-1210.722723735084
 20
1221.208179245483
 30
0.0
  0
VERTEX
  5
1A3
  8
LAYER_05
 10
-1210.722723735083
 20
1360.106682997379
 30
0.0
  0
VERTEX
  5
1A4
  8
LAYER_05
 10
-1280.171975611031
 20
1239.817050200588
 30
0.0
  0
SEQEND
  5
1A5
  8
LAYER_05
  0
POLYLINE
  5
1A6
  8
LAYER_05
 66
     1
 10
0.0
 20
0.0
 30
0.0
  0
VERTEX
  5
1A7
  8
LAYER_05
 10
-1163.73853204942
 20
1441.485690149505
 30
0.0
  0
VERTEX
  5
1A8
  8
LAYER_05
 10
-1190.722723735082
 20
1394.747699148759
 30
0.0
  0
VERTEX
  5
1A9
  8
LAYER_05
 10
-1190.722723735085
 20
1232.755184629276
 30
0.0
  0
VERTEX
  5
1AA
  8
LAYER_05
 10
-1163.73853204942
 20
1217.175854295692
 30
0.0
  0
SEQEND
  5
1AB
  8
LAYER_05
  0
POLYLINE
  5
1AC
  8
LAYER_05
 66
     1
 10
0.0
 20
0.0
 30
0.0
 70
     1
  0
VERTEX
  5
1AD
  8
LAYER_05
 10
-1459.375555369663
 20
1023.395728531746
 30
0.0
  0
VERTEX
  5
1AE
  8
LAYER_05
 10
-1486.359747055328
 20
1007.816398198162
 30
0.0
  0
VERTEX
  5
1AF
  8
LAYER_05
 10
-1606.649379852117
 20
1077.265650074111
 30
0.0
  0
VERTEX
  5
1B0
  8
LAYER_05
 10
-1537.200127976168
 20
956.9760172773208
 30
0.0
  0
VERTEX
  5
1B1
  8
LAYER_05
 10
-1552.779458309752
 20
929.9918255916568
 30
0.0
  0
VERTEX
  5
1B2
  8
LAYER_05
 10
-1513.302323875485
 20
929.9918255916568
 30
0.0
  0
VERTEX
  5
1B3
  8
LAYER_05
 10
-1493.563756658351
 20
895.8036243029678
 30
0.0
  0
VERTEX
  5
1B4
  8
LAYER_05
 10
-1477.984426324767
 20
922.7878159886327
 30
0.0
  0
VERTEX
  5
1B5
  8
LAYER_05
 10
-1339.085922572871
 20
922.7878159886322
 30
0.0
  0
VERTEX
  5
1B6
  8
LAYER_05
 10
-1459.375555369663
 20
992.2370678645798
 30
0.0
  0
SEQEND
  5
1B7
  8
LAYER_05
  0
POLYLINE
  5
1B8
  8
LAYER_05
 66
     1
 10
0.0
 20
0.0
 30
0.0
 70
     1
  0
VERTEX
  5
1B9
  8
LAYER_05
 10
-1459.375555369662
 20
1387.861969292054
 30
0.0
  0
VERTEX
  5
1BA
  8
LAYER_05
 10
-1459.375555369662
 20
1419.020629959221
 30
0.0
  0
VERTEX
  5
1BB
  8
LAYER_05
 10
-1339.085922572872
 20
1488.469881835167
 30
0.0
  0
VERTEX
  5
1BC
  8
LAYER_05
 10
-1477.984426324768
 20
1488.469881835167
 30
0.0
  0
VERTEX
  5
1BD
  8
LAYER_05
 10
-1493.563756658351
 20
1515.454073520832
 30
0.0
  0
VERTEX
  5
1BE
  8
LAYER_05
 10
-1513.302323875484
 20
1481.265872232143
 30
0.0
  0
VERTEX
  5
1BF
  8
LAYER_05
 10
-1552.779458309752
 20
1481.265872232143
 30
0.0
  0
VERTEX
  5
1C0
  8
LAYER_05
 10
-1537.200127976168
 20
1454.281680546478
 30
0.0
  0
VERTEX
  5
1C1
  8
LAYER_05
 10
-1606.649379852117
 20
1333.992047749688
 30
0.0
  0
VERTEX
  5
1C2
  8
LAYER_05
 10
-1486.359747055327
 20
1403.441299625637
 30
0.0
  0
SEQEND
  5
1C3
  8
LAYER_05
  0
POLYLINE
  5
1C4
  8
LAYER_05
 66
     1
 10
0.0
 20
0.0
 30
0.0
 70
     1
  0
VERTEX
  5
1C5
  8
LAYER_05
 10
-1345.971652429573
 20
1259.817050200588
 30
0.0
  0
VERTEX
  5
1C6
  8
LAYER_05
 10
-1361.550982763157
 20
1286.801241886253
 30
0.0
  0
VERTEX
  5
1C7
  8
LAYER_05
 10
-1292.101730887208
 20
1407.090874683043
 30
0.0
  0
VERTEX
  5
1C8
  8
LAYER_05
 10
-1412.391363683998
 20
1337.641622807094
 30
0.0
  0
VERTEX
  5
1C9
  8
LAYER_05
 10
-1439.375555369663
 20
1353.220953140677
 30
0.0
  0
VERTEX
  5
1CA
  8
LAYER_05
 10
-1439.375555369663
 20
1322.062292473511
 30
0.0
  0
VERTEX
  5
1CB
  8
LAYER_05
 10
-1559.665188166453
 20
1252.613040597564
 30
0.0
  0
VERTEX
  5
1CC
  8
LAYER_05
 10
-1420.766684414557
 20
1252.613040597565
 30
0.0
  0
VERTEX
  5
1CD
  8
LAYER_05
 10
-1405.187354080974
 20
1225.6288489119
 30
0.0
  0
VERTEX
  5
1CE
  8
LAYER_05
 10
-1385.448786863841
 20
1259.817050200588
 30
0.0
  0
SEQEND
  5
1CF
  8
LAYER_05
  0
POLYLINE
  5
1D0
  8
LAYER_05
 66
     1
 10
0.0
 20
0.0
 30
0.0
 70
     1
  0
VERTEX
  5
1D1
  8
LAYER_05
 10
-1641.290396003488
 20
654.3415985318293
 30
0.0
  0
VERTEX
  5
1D2
  8
LAYER_05
 10
-1688.028387004243
 20
627.3574068461608
 30
0.0
  0
VERTEX
  5
1D3
  8
LAYER_05
 10
-1688.028387004242
 20
681.3257902174864
 30
0.0
  0
VERTEX
  5
1D4
  8
LAYER_05
 10
-1607.032129744503
 20
821.6154230142802
 30
0.0
  0
VERTEX
  5
1D5
  8
LAYER_05
 10
-1575.873469077336
 20
821.6154230142806
 30
0.0
  0
VERTEX
  5
1D6
  8
LAYER_05
 10
-1560.294138743753
 20
794.6312313286162
 30
0.0
  0
SEQEND
  5
1D7
  8
LAYER_05
  0
POLYLINE
  5
1D8
  8
LAYER_05
 66
     1
 10
0.0
 20
0.0
 30
0.0
 70
     1
  0
VERTEX
  5
1D9
  8
LAYER_05
 10
-1599.665188166446
 20
592.9625913797008
 30
0.0
  0
VERTEX
  5
1DA
  8
LAYER_05
 10
-1653.633571537782
 20
592.9625913797004
 30
0.0
  0
VERTEX
  5
1DB
  8
LAYER_05
 10
-1626.649379852119
 20
639.7005823804461
 30
0.0
  0
VERTEX
  5
1DC
  8
LAYER_05
 10
-1486.359747055328
 20
720.6968396401899
 30
0.0
  0
VERTEX
  5
1DD
  8
LAYER_05
 10
-1459.375555369662
 20
705.1175093066067
 30
0.0
  0
VERTEX
  5
1DE
  8
LAYER_05
 10
-1459.375555369662
 20
673.9588486394405
 30
0.0
  0
SEQEND
  5
1DF
  8
LAYER_05
  0
POLYLINE
  5
1E0
  8
LAYER_05
 66
     1
 10
0.0
 20
0.0
 30
0.0
 70
     1
  0
VERTEX
  5
1E1
  8
LAYER_05
 10
-1257.460714735837
 20
767.4404254651763
 30
0.0
  0
VERTEX
  5
1E2
  8
LAYER_05
 10
-1210.722723735082
 20
794.4246171508448
 30
0.0
  0
VERTEX
  5
1E3
  8
LAYER_05
 10
-1210.722723735083
 20
740.4562337795192
 30
0.0
  0
VERTEX
  5
1E4
  8
LAYER_05
 10
-1291.718980994822
 20
600.1666009827254
 30
0.0
  0
VERTEX
  5
1E5
  8
LAYER_05
 10
-1322.877641661989
 20
600.166600982725
 30
0.0
  0
VERTEX
  5
1E6
  8
LAYER_05
 10
-1338.456971995572
 20
627.1507926683894
 30
0.0
  0
SEQEND
  5
1E7
  8
LAYER_05
  0
POLYLINE
  5
1E8
  8
LAYER_05
 66
     1
 10
0.0
 20
0.0
 30
0.0
 70
     1
  0
VERTEX
  5
1E9
  8
LAYER_05
 10
-1299.085922572879
 20
828.8194326173048
 30
0.0
  0
VERTEX
  5
1EA
  8
LAYER_05
 10
-1245.117539201543
 20
828.8194326173052
 30
0.0
  0
VERTEX
  5
1EB
  8
LAYER_05
 10
-1272.101730887206
 20
782.0814416165595
 30
0.0
  0
VERTEX
  5
1EC
  8
LAYER_05
 10
-1412.391363683997
 20
701.0851843568157
 30
0.0
  0
VERTEX
  5
1ED
  8
LAYER_05
 10
-1439.375555369663
 20
716.6645146903988
 30
0.0
  0
VERTEX
  5
1EE
  8
LAYER_05
 10
-1439.375555369663
 20
747.8231753575651
 30
0.0
  0
SEQEND
  5
1EF
  8
LAYER_05
  0
POLYLINE
  5
1F0
  8
LAYER_05
 66
     1
 10
0.0
 20
0.0
 30
0.0
  0
VERTEX
  5
1F1
  8
LAYER_05
 10
-1163.73853204942
 20
557.525405077829
 30
0.0
  0
VERTEX
  5
1F2
  8
LAYER_05
 10
-1190.722723735085
 20
573.1047354114121
 30
0.0
  0
VERTEX
  5
1F3
  8
LAYER_05
 10
-1190.722723735087
 20
735.0972499308873
 30
0.0
  0
VERTEX
  5
1F4
  8
LAYER_05
 10
-1163.738532049419
 20
781.8352409316426
 30
0.0
  0
SEQEND
  5
1F5
  8
LAYER_05
  0
POLYLINE
  5
1F6
  8
LAYER_05
 66
     1
 10
0.0
 20
0.0
 30
0.0
 70
     1
  0
VERTEX
  5
1F7
  8
LAYER_05
 10
-1439.375555369663
 20
693.5705039228146
 30
0.0
  0
VERTEX
  5
1F8
  8
LAYER_05
 10
-1412.391363683997
 20
677.991173589231
 30
0.0
  0
VERTEX
  5
1F9
  8
LAYER_05
 10
-1292.101730887208
 20
747.4404254651799
 30
0.0
  0
VERTEX
  5
1FA
  8
LAYER_05
 10
-1361.550982763157
 20
627.1507926683894
 30
0.0
  0
VERTEX
  5
1FB
  8
LAYER_05
 10
-1345.971652429574
 20
600.166600982725
 30
0.0
  0
VERTEX
  5
1FC
  8
LAYER_05
 10
-1385.448786863841
 20
600.166600982725
 30
0.0
  0
VERTEX
  5
1FD
  8
LAYER_05
 10
-1405.187354080974
 20
565.9783996940364
 30
0.0
  0
VERTEX
  5
1FE
  8
LAYER_05
 10
-1420.766684414558
 20
592.9625913797013
 30
0.0
  0
VERTEX
  5
1FF
  8
LAYER_05
 10
-1559.665188166454
 20
592.9625913797008
 30
0.0
  0
VERTEX
  5
200
  8
LAYER_05
 10
-1439.375555369663
 20
662.4118432556484
 30
0.0
  0
SEQEND
  5
201
  8
LAYER_05
  0
POLYLINE
  5
202
  8
LAYER_05
 66
     1
 10
0.0
 20
0.0
 30
0.0
 70
     1
  0
VERTEX
  5
203
  8
LAYER_05
 10
-1459.375555369663
 20
728.211520074191
 30
0.0
  0
VERTEX
  5
204
  8
LAYER_05
 10
-1486.359747055328
 20
743.7908504077745
 30
0.0
  0
VERTEX
  5
205
  8
LAYER_05
 10
-1606.649379852117
 20
674.3415985318256
 30
0.0
  0
VERTEX
  5
206
  8
LAYER_05
 10
-1537.200127976168
 20
794.6312313286162
 30
0.0
  0
VERTEX
  5
207
  8
LAYER_05
 10
-1552.779458309752
 20
821.6154230142806
 30
0.0
  0
VERTEX
  5
208
  8
LAYER_05
 10
-1513.302323875485
 20
821.6154230142806
 30
0.0
  0
VERTEX
  5
209
  8
LAYER_05
 10
-1493.563756658351
 20
855.8036243029692
 30
0.0
  0
VERTEX
  5
20A
  8
LAYER_05
 10
-1477.984426324767
 20
828.8194326173043
 30
0.0
  0
VERTEX
  5
20B
  8
LAYER_05
 10
-1339.085922572871
 20
828.8194326173048
 30
0.0
  0
VERTEX
  5
20C
  8
LAYER_05
 10
-1459.375555369663
 20
759.3701807413572
 30
0.0
  0
SEQEND
  5
20D
  8
LAYER_05
  0
POLYLINE
  5
20E
  8
LAYER_05
 66
     1
 10
0.0
 20
0.0
 30
0.0
 70
     1
  0
VERTEX
  5
20F
  8
LAYER_05
 10
-1626.649379852113
 20
1771.557115443346
 30
0.0
  0
VERTEX
  5
210
  8
LAYER_05
 10
-1653.633571537782
 20
1818.2951064441
 30
0.0
  0
VERTEX
  5
211
  8
LAYER_05
 10
-1599.665188166456
 20
1818.295106444099
 30
0.0
  0
VERTEX
  5
212
  8
LAYER_05
 10
-1459.375555369663
 20
1737.29884918436
 30
0.0
  0
VERTEX
  5
213
  8
LAYER_05
 10
-1459.375555369662
 20
1706.140188517193
 30
0.0
  0
VERTEX
  5
214
  8
LAYER_05
 10
-1486.359747055327
 20
1690.56085818361
 30
0.0
  0
SEQEND
  5
215
  8
LAYER_05
  0
POLYLINE
  5
216
  8
LAYER_05
 66
     1
 10
0.0
 20
0.0
 30
0.0
 70
     1
  0
VERTEX
  5
217
  8
LAYER_05
 10
-1688.028387004242
 20
1729.931907606303
 30
0.0
  0
VERTEX
  5
218
  8
LAYER_05
 10
-1688.028387004242
 20
1783.90029097764
 30
0.0
  0
VERTEX
  5
219
  8
LAYER_05
 10
-1641.290396003497
 20
1756.916099291976
 30
0.0
  0
VERTEX
  5
21A
  8
LAYER_05
 10
-1560.294138743753
 20
1616.626466495185
 30
0.0
  0
VERTEX
  5
21B
  8
LAYER_05
 10
-1575.873469077336
 20
1589.64227480952
 30
0.0
  0
VERTEX
  5
21C
  8
LAYER_05
 10
-1607.032129744502
 20
1589.642274809519
 30
0.0
  0
SEQEND
  5
21D
  8
LAYER_05
  0
POLYLINE
  5
21E
  8
LAYER_05
 66
     1
 10
0.0
 20
0.0
 30
0.0
 70
     1
  0
VERTEX
  5
21F
  8
LAYER_05
 10
-1272.101730887211
 20
1629.176256207249
 30
0.0
  0
VERTEX
  5
220
  8
LAYER_05
 10
-1245.117539201543
 20
1582.438265206495
 30
0.0
  0
VERTEX
  5
221
  8
LAYER_05
 10
-1299.085922572869
 20
1582.438265206495
 30
0.0
  0
VERTEX
  5
222
  8
LAYER_05
 10
-1439.375555369663
 20
1663.434522466235
 30
0.0
  0
VERTEX
  5
223
  8
LAYER_05
 10
-1439.375555369663
 20
1694.593183133401
 30
0.0
  0
VERTEX
  5
224
  8
LAYER_05
 10
-1412.391363683998
 20
1710.172513466985
 30
0.0
  0
SEQEND
  5
225
  8
LAYER_05
  0
POLYLINE
  5
226
  8
LAYER_05
 66
     1
 10
0.0
 20
0.0
 30
0.0
 70
     1
  0
VERTEX
  5
227
  8
LAYER_05
 10
-1210.722723735083
 20
1670.801464044292
 30
0.0
  0
VERTEX
  5
228
  8
LAYER_05
 10
-1210.722723735082
 20
1616.833080672955
 30
0.0
  0
VERTEX
  5
229
  8
LAYER_05
 10
-1257.460714735828
 20
1643.817272358619
 30
0.0
  0
VERTEX
  5
22A
  8
LAYER_05
 10
-1338.456971995572
 20
1784.10690515541
 30
0.0
  0
VERTEX
  5
22B
  8
LAYER_05
 10
-1322.877641661989
 20
1811.091096841075
 30
0.0
  0
VERTEX
  5
22C
  8
LAYER_05
 10
-1291.718980994823
 20
1811.091096841076
 30
0.0
  0
SEQEND
  5
22D
  8
LAYER_05
  0
POLYLINE
  5
22E
  8
LAYER_05
 66
     1
 10
0.0
 20
0.0
 30
0.0
  0
VERTEX
  5
22F
  8
LAYER_05
 10
-1163.73853204942
 20
1629.422456892158
 30
0.0
  0
VERTEX
  5
230
  8
LAYER_05
 10
-1190.722723735082
 20
1676.160447892904
 30
0.0
  0
VERTEX
  5
231
  8
LAYER_05
 10
-1190.722723735085
 20
1838.152962412387
 30
0.0
  0
VERTEX
  5
232
  8
LAYER_05
 10
-1163.73853204942
 20
1853.732292745971
 30
0.0
  0
SEQEND
  5
233
  8
LAYER_05
  0
POLYLINE
  5
234
  8
LAYER_05
 66
     1
 10
0.0
 20
0.0
 30
0.0
 70
     1
  0
VERTEX
  5
235
  8
LAYER_05
 10
-1459.375555369662
 20
1683.046177749608
 30
0.0
  0
VERTEX
  5
236
  8
LAYER_05
 10
-1459.375555369662
 20
1651.887517082443
 30
0.0
  0
VERTEX
  5
237
  8
LAYER_05
 10
-1339.085922572872
 20
1582.438265206495
 30
0.0
  0
VERTEX
  5
238
  8
LAYER_05
 10
-1477.984426324768
 20
1582.438265206496
 30
0.0
  0
VERTEX
  5
239
  8
LAYER_05
 10
-1493.563756658351
 20
1555.454073520831
 30
0.0
  0
VERTEX
  5
23A
  8
LAYER_05
 10
-1513.302323875484
 20
1589.64227480952
 30
0.0
  0
VERTEX
  5
23B
  8
LAYER_05
 10
-1552.779458309752
 20
1589.64227480952
 30
0.0
  0
VERTEX
  5
23C
  8
LAYER_05
 10
-1537.200127976168
 20
1616.626466495185
 30
0.0
  0
VERTEX
  5
23D
  8
LAYER_05
 10
-1606.649379852117
 20
1736.916099291975
 30
0.0
  0
VERTEX
  5
23E
  8
LAYER_05
 10
-1486.359747055327
 20
1667.466847416026
 30
0.0
  0
SEQEND
  5
23F
  8
LAYER_05
  0
POLYLINE
  5
240
  8
LAYER_05
 66
     1
 10
0.0
 20
0.0
 30
0.0
 70
     1
  0
VERTEX
  5
241
  8
LAYER_05
 10
-1345.971652429573
 20
1811.091096841075
 30
0.0
  0
VERTEX
  5
242
  8
LAYER_05
 10
-1361.550982763157
 20
1784.10690515541
 30
0.0
  0
VERTEX
  5
243
  8
LAYER_05
 10
-1292.101730887208
 20
1663.81727235862
 30
0.0
  0
VERTEX
  5
244
  8
LAYER_05
 10
-1412.391363683998
 20
1733.266524234569
 30
0.0
  0
VERTEX
  5
245
  8
LAYER_05
 10
-1439.375555369663
 20
1717.687193900986
 30
0.0
  0
VERTEX
  5
246
  8
LAYER_05
 10
-1439.375555369663
 20
1748.845854568152
 30
0.0
  0
VERTEX
  5
247
  8
LAYER_05
 10
-1559.665188166453
 20
1818.295106444099
 30
0.0
  0
VERTEX
  5
248
  8
LAYER_05
 10
-1420.766684414557
 20
1818.295106444099
 30
0.0
  0
VERTEX
  5
249
  8
LAYER_05
 10
-1405.187354080974
 20
1845.279298129764
 30
0.0
  0
VERTEX
  5
24A
  8
LAYER_05
 10
-1385.448786863841
 20
1811.091096841075
 30
0.0
  0
SEQEND
  5
24B
  8
LAYER_05
  0
POLYLINE
  5
24C
  8
LAYER_05
 66
     1
 10
0.0
 20
0.0
 30
0.0
 70
     1
  0
VERTEX
  5
24D
  8
LAYER_05
 10
-1715.012578689906
 20
875.8036243029687
 30
0.0
  0
VERTEX
  5
24E
  8
LAYER_05
 10
-1688.028387004241
 20
891.3829546365514
 30
0.0
  0
VERTEX
  5
24F
  8
LAYER_05
 10
-1688.028387004242
 20
1030.281458388448
 30
0.0
  0
VERTEX
  5
250
  8
LAYER_05
 10
-1618.579135128295
 20
909.9918255916573
 30
0.0
  0
VERTEX
  5
251
  8
LAYER_05
 10
-1587.420474461128
 20
909.9918255916573
 30
0.0
  0
VERTEX
  5
252
  8
LAYER_05
 10
-1607.159041678262
 20
875.8036243029687
 30
0.0
  0
VERTEX
  5
253
  8
LAYER_05
 10
-1587.420474461128
 20
841.6154230142797
 30
0.0
  0
VERTEX
  5
254
  8
LAYER_05
 10
-1618.579135128295
 20
841.6154230142797
 30
0.0
  0
VERTEX
  5
255
  8
LAYER_05
 10
-1688.028387004242
 20
721.3257902174892
 30
0.0
  0
VERTEX
  5
256
  8
LAYER_05
 10
-1688.028387004241
 20
860.2242939693856
 30
0.0
  0
SEQEND
  5
257
  8
LAYER_05
  0
POLYLINE
  5
258
  8
LAYER_05
 66
     1
 10
0.0
 20
0.0
 30
0.0
 70
     1
  0
VERTEX
  5
259
  8
LAYER_05
 10
-1257.706915420746
 20
875.8036243029687
 30
0.0
  0
VERTEX
  5
25A
  8
LAYER_05
 10
-1304.444906421491
 20
848.8194326173061
 30
0.0
  0
VERTEX
  5
25B
  8
LAYER_05
 10
-1466.437420940975
 20
848.8194326173038
 30
0.0
  0
VERTEX
  5
25C
  8
LAYER_05
 10
-1482.016751274559
 20
875.8036243029687
 30
0.0
  0
VERTEX
  5
25D
  8
LAYER_05
 10
-1466.437420940975
 20
902.7878159886332
 30
0.0
  0
VERTEX
  5
25E
  8
LAYER_05
 10
-1304.444906421491
 20
902.7878159886309
 30
0.0
  0
SEQEND
  5
25F
  8
LAYER_05
  0
POLYLINE
  5
260
  8
LAYER_05
 66
     1
 10
0.0
 20
0.0
 30
0.0
  0
VERTEX
  5
261
  8
LAYER_05
 10
-1163.738532049421
 20
821.8352409316362
 30
0.0
  0
VERTEX
  5
262
  8
LAYER_05
 10
-1190.722723735088
 20
775.09724993089
 30
0.0
  0
VERTEX
  5
263
  8
LAYER_05
 10
-1190.722723735087
 20
829.065633302218
 30
0.0
  0
VERTEX
  5
264
  8
LAYER_05
 10
-1237.460714735836
 20
802.0814416165567
 30
0.0
  0
VERTEX
  5
265
  8
LAYER_05
 10
-1210.476523050166
 20
848.8194326173075
 30
0.0
  0
VERTEX
  5
266
  8
LAYER_05
 10
-1264.4449064215
 20
848.819432617307
 30
0.0
  0
VERTEX
  5
267
  8
LAYER_05
 10
-1217.706915420754
 20
875.8036243029687
 30
0.0
  0
VERTEX
  5
268
  8
LAYER_05
 10
-1264.4449064215
 20
902.7878159886304
 30
0.0
  0
VERTEX
  5
269
  8
LAYER_05
 10
-1210.476523050166
 20
902.7878159886295
 30
0.0
  0
VERTEX
  5
26A
  8
LAYER_05
 10
-1237.460714735836
 20
949.5258069893807
 30
0.0
  0
VERTEX
  5
26B
  8
LAYER_05
 10
-1190.722723735087
 20
922.541615303719
 30
0.0
  0
VERTEX
  5
26C
  8
LAYER_05
 10
-1190.722723735088
 20
976.5099986750474
 30
0.0
  0
VERTEX
  5
26D
  8
LAYER_05
 10
-1163.738532049421
 20
929.7720076743008
 30
0.0
  0
SEQEND
  5
26E
  8
LAYER_05
  0
POLYLINE
  5
26F
  8
LAYER_05
 66
     1
 10
0.0
 20
0.0
 30
0.0
 70
     1
  0
VERTEX
  5
270
  8
LAYER_05
 10
-1584.065030910678
 20
875.8036243029687
 30
0.0
  0
VERTEX
  5
271
  8
LAYER_05
 10
-1564.326463693544
 20
909.9918255916573
 30
0.0
  0
VERTEX
  5
272
  8
LAYER_05
 10
-1524.849329259277
 20
909.9918255916573
 30
0.0
  0
VERTEX
  5
273
  8
LAYER_05
 10
-1505.110762042143
 20
875.8036243029687
 30
0.0
  0
VERTEX
  5
274
  8
LAYER_05
 10
-1524.849329259277
 20
841.6154230142797
 30
0.0
  0
VERTEX
  5
275
  8
LAYER_05
 10
-1564.326463693544
 20
841.6154230142797
 30
0.0
  0
SEQEND
  5
276
  8
LAYER_05
  0
POLYLINE
  5
277
  8
LAYER_05
 66
     1
 10
0.0
 20
0.0
 30
0.0
 70
     1
  0
VERTEX
  5
278
  8
LAYER_05
 10
-1715.012578689907
 20
1535.454073520831
 30
0.0
  0
VERTEX
  5
279
  8
LAYER_05
 10
-1688.028387004241
 20
1551.033403854415
 30
0.0
  0
VERTEX
  5
27A
  8
LAYER_05
 10
-1688.028387004242
 20
1689.931907606311
 30
0.0
  0
VERTEX
  5
27B
  8
LAYER_05
 10
-1618.579135128294
 20
1569.64227480952
 30
0.0
  0
VERTEX
  5
27C
  8
LAYER_05
 10
-1587.420474461128
 20
1569.64227480952
 30
0.0
  0
VERTEX
  5
27D
  8
LAYER_05
 10
-1607.159041678262
 20
1535.454073520832
 30
0.0
  0
VERTEX
  5
27E
  8
LAYER_05
 10
-1587.420474461128
 20
1501.265872232143
 30
0.0
  0
VERTEX
  5
27F
  8
LAYER_05
 10
-1618.579135128294
 20
1501.265872232143
 30
0.0
  0
VERTEX
  5
280
  8
LAYER_05
 10
-1688.028387004242
 20
1380.976239435352
 30
0.0
  0
VERTEX
  5
281
  8
LAYER_05
 10
-1688.028387004241
 20
1519.874743187248
 30
0.0
  0
SEQEND
  5
282
  8
LAYER_05
  0
POLYLINE
  5
283
  8
LAYER_05
 66
     1
 10
0.0
 20
0.0
 30
0.0
 70
     1
  0
VERTEX
  5
284
  8
LAYER_05
 10
-1257.706915420746
 20
1535.454073520832
 30
0.0
  0
VERTEX
  5
285
  8
LAYER_05
 10
-1304.4449064215
 20
1508.469881835164
 30
0.0
  0
VERTEX
  5
286
  8
LAYER_05
 10
-1466.437420940976
 20
1508.469881835167
 30
0.0
  0
VERTEX
  5
287
  8
LAYER_05
 10
-1482.016751274559
 20
1535.454073520832
 30
0.0
  0
VERTEX
  5
288
  8
LAYER_05
 10
-1466.437420940976
 20
1562.438265206496
 30
0.0
  0
VERTEX
  5
289
  8
LAYER_05
 10
-1304.4449064215
 20
1562.438265206499
 30
0.0
  0
SEQEND
  5
28A
  8
LAYER_05
  0
POLYLINE
  5
28B
  8
LAYER_05
 66
     1
 10
0.0
 20
0.0
 30
0.0
 70
     1
  0
VERTEX
  5
28C
  8
LAYER_05
 10
-1505.110762042143
 20
1535.454073520832
 30
0.0
  0
VERTEX
  5
28D
  8
LAYER_05
 10
-1524.849329259277
 20
1501.265872232142
 30
0.0
  0
VERTEX
  5
28E
  8
LAYER_05
 10
-1564.326463693544
 20
1501.265872232142
 30
0.0
  0
VERTEX
  5
28F
  8
LAYER_05
 10
-1584.065030910677
 20
1535.454073520832
 30
0.0
  0
VERTEX
  5
290
  8
LAYER_05
 10
-1564.326463693544
 20
1569.64227480952
 30
0.0
  0
VERTEX
  5
291
  8
LAYER_05
 10
-1524.849329259277
 20
1569.64227480952
 30
0.0
  0
SEQEND
  5
292
  8
LAYER_05
  0
POLYLINE
  5
293
  8
LAYER_05
 66
     1
 10
0.0
 20
0.0
 30
0.0
  0
VERTEX
  5
294
  8
LAYER_05
 10
-1163.738532049419
 20
1481.485690149498
 30
0.0
  0
VERTEX
  5
295
  8
LAYER_05
 10
-1190.722723735081
 20
1434.747699148751
 30
0.0
  0
VERTEX
  5
296
  8
LAYER_05
 10
-1190.722723735085
 20
1488.716082520079
 30
0.0
  0
VERTEX
  5
297
  8
LAYER_05
 10
-1237.460714735832
 20
1461.731890834415
 30
0.0
  0
VERTEX
  5
298
  8
LAYER_05
 10
-1210.476523050164
 20
1508.469881835166
 30
0.0
  0
VERTEX
  5
299
  8
LAYER_05
 10
-1264.444906421498
 20
1508.469881835163
 30
0.0
  0
VERTEX
  5
29A
  8
LAYER_05
 10
-1217.706915420752
 20
1535.454073520832
 30
0.0
  0
VERTEX
  5
29B
  8
LAYER_05
 10
-1264.444906421498
 20
1562.438265206499
 30
0.0
  0
VERTEX
  5
29C
  8
LAYER_05
 10
-1210.476523050164
 20
1562.438265206496
 30
0.0
  0
VERTEX
  5
29D
  8
LAYER_05
 10
-1237.460714735832
 20
1609.176256207249
 30
0.0
  0
VERTEX
  5
29E
  8
LAYER_05
 10
-1190.722723735085
 20
1582.192064521584
 30
0.0
  0
VERTEX
  5
29F
  8
LAYER_05
 10
-1190.722723735081
 20
1636.160447892912
 30
0.0
  0
VERTEX
  5
2A0
  8
LAYER_05
 10
-1163.738532049419
 20
1589.422456892165
 30
0.0
  0
SEQEND
  5
2A1
  8
LAYER_05
  0
POLYLINE
  5
2A2
  8
LAYER_05
 66
     1
 10
0.0
 20
0.0
 30
0.0
 70
     1
  0
VERTEX
  5
2A3
  8
LAYER_05
 10
-700.8276842467283
 20
1299.351031598318
 30
0.0
  0
VERTEX
  5
2A4
  8
LAYER_05
 10
-673.8434925610595
 20
1252.613040597563
 30
0.0
  0
VERTEX
  5
2A5
  8
LAYER_05
 10
-727.8118759323852
 20
1252.613040597563
 30
0.0
  0
VERTEX
  5
2A6
  8
LAYER_05
 10
-868.1015087291787
 20
1333.609297857303
 30
0.0
  0
VERTEX
  5
2A7
  8
LAYER_05
 10
-868.1015087291792
 20
1364.76795852447
 30
0.0
  0
VERTEX
  5
2A8
  8
LAYER_05
 10
-841.1173170435143
 20
1380.347288858053
 30
0.0
  0
SEQEND
  5
2A9
  8
LAYER_05
  0
POLYLINE
  5
2AA
  8
LAYER_05
 66
     1
 10
0.0
 20
0.0
 30
0.0
 70
     1
  0
VERTEX
  5
2AB
  8
LAYER_05
 10
-639.4486770945994
 20
1340.97623943536
 30
0.0
  0
VERTEX
  5
2AC
  8
LAYER_05
 10
-639.4486770945991
 20
1287.007856064024
 30
0.0
  0
VERTEX
  5
2AD
  8
LAYER_05
 10
-686.1866680953447
 20
1313.992047749687
 30
0.0
  0
VERTEX
  5
2AE
  8
LAYER_05
 10
-767.1829253550884
 20
1454.281680546478
 30
0.0
  0
VERTEX
  5
2AF
  8
LAYER_05
 10
-751.6035950215055
 20
1481.265872232143
 30
0.0
  0
VERTEX
  5
2B0
  8
LAYER_05
 10
-720.444934354339
 20
1481.265872232144
 30
0.0
  0
SEQEND
  5
2B1
  8
LAYER_05
  0
POLYLINE
  5
2B2
  8
LAYER_05
 66
     1
 10
0.0
 20
0.0
 30
0.0
 70
     1
  0
VERTEX
  5
2B3
  8
LAYER_05
 10
-686.1866680953531
 20
1097.265650074108
 30
0.0
  0
VERTEX
  5
2B4
  8
LAYER_05
 10
-639.4486770945987
 20
1124.249841759776
 30
0.0
  0
VERTEX
  5
2B5
  8
LAYER_05
 10
-639.4486770945989
 20
1070.281458388451
 30
0.0
  0
VERTEX
  5
2B6
  8
LAYER_05
 10
-720.4449343543388
 20
929.9918255916568
 30
0.0
  0
VERTEX
  5
2B7
  8
LAYER_05
 10
-751.6035950215055
 20
929.9918255916568
 30
0.0
  0
VERTEX
  5
2B8
  8
LAYER_05
 10
-767.1829253550886
 20
956.9760172773208
 30
0.0
  0
SEQEND
  5
2B9
  8
LAYER_05
  0
POLYLINE
  5
2BA
  8
LAYER_05
 66
     1
 10
0.0
 20
0.0
 30
0.0
 70
     1
  0
VERTEX
  5
2BB
  8
LAYER_05
 10
-727.8118759323952
 20
1158.644657226237
 30
0.0
  0
VERTEX
  5
2BC
  8
LAYER_05
 10
-673.8434925610595
 20
1158.644657226237
 30
0.0
  0
VERTEX
  5
2BD
  8
LAYER_05
 10
-700.8276842467226
 20
1111.906666225491
 30
0.0
  0
VERTEX
  5
2BE
  8
LAYER_05
 10
-841.1173170435136
 20
1030.910408965747
 30
0.0
  0
VERTEX
  5
2BF
  8
LAYER_05
 10
-868.1015087291792
 20
1046.48973929933
 30
0.0
  0
VERTEX
  5
2C0
  8
LAYER_05
 10
-868.1015087291796
 20
1077.648399966497
 30
0.0
  0
SEQEND
  5
2C1
  8
LAYER_05
  0
POLYLINE
  5
2C2
  8
LAYER_05
 66
     1
 10
0.0
 20
0.0
 30
0.0
 70
     1
  0
VERTEX
  5
2C3
  8
LAYER_05
 10
-733.1708597810168
 20
1232.613040597567
 30
0.0
  0
VERTEX
  5
2C4
  8
LAYER_05
 10
-686.4328687802617
 20
1205.6288489119
 30
0.0
  0
VERTEX
  5
2C5
  8
LAYER_05
 10
-733.1708597810075
 20
1178.644657226238
 30
0.0
  0
VERTEX
  5
2C6
  8
LAYER_05
 10
-895.1633743004911
 20
1178.644657226235
 30
0.0
  0
VERTEX
  5
2C7
  8
LAYER_05
 10
-910.7427046340752
 20
1205.6288489119
 30
0.0
  0
VERTEX
  5
2C8
  8
LAYER_05
 10
-895.1633743004923
 20
1232.613040597565
 30
0.0
  0
SEQEND
  5
2C9
  8
LAYER_05
  0
POLYLINE
  5
2CA
  8
LAYER_05
 66
     1
 10
0.0
 20
0.0
 30
0.0
 70
     1
  0
VERTEX
  5
2CB
  8
LAYER_05
 10
-1070.016349363004
 20
984.1668231407607
 30
0.0
  0
VERTEX
  5
2CC
  8
LAYER_05
 10
-1116.754340363759
 20
957.1826314550926
 30
0.0
  0
VERTEX
  5
2CD
  8
LAYER_05
 10
-1116.754340363759
 20
1011.151014826418
 30
0.0
  0
VERTEX
  5
2CE
  8
LAYER_05
 10
-1035.758083104019
 20
1151.440647623212
 30
0.0
  0
VERTEX
  5
2CF
  8
LAYER_05
 10
-1004.599422436852
 20
1151.440647623212
 30
0.0
  0
VERTEX
  5
2D0
  8
LAYER_05
 10
-989.020092103269
 20
1124.456455937548
 30
0.0
  0
SEQEND
  5
2D1
  8
LAYER_05
  0
POLYLINE
  5
2D2
  8
LAYER_05
 66
     1
 10
0.0
 20
0.0
 30
0.0
 70
     1
  0
VERTEX
  5
2D3
  8
LAYER_05
 10
-1028.391141525962
 20
922.7878159886322
 30
0.0
  0
VERTEX
  5
2D4
  8
LAYER_05
 10
-1082.359524897298
 20
922.7878159886318
 30
0.0
  0
VERTEX
  5
2D5
  8
LAYER_05
 10
-1055.375333211635
 20
969.5258069893775
 30
0.0
  0
VERTEX
  5
2D6
  8
LAYER_05
 10
-915.0857004148438
 20
1050.522064249121
 30
0.0
  0
VERTEX
  5
2D7
  8
LAYER_05
 10
-888.1015087291785
 20
1034.942733915538
 30
0.0
  0
VERTEX
  5
2D8
  8
LAYER_05
 10
-888.101508729178
 20
1003.784073248372
 30
0.0
  0
SEQEND
  5
2D9
  8
LAYER_05
  0
POLYLINE
  5
2DA
  8
LAYER_05
 66
     1
 10
0.0
 20
0.0
 30
0.0
 70
     1
  0
VERTEX
  5
2DB
  8
LAYER_05
 10
-1055.37533321163
 20
1441.731890834414
 30
0.0
  0
VERTEX
  5
2DC
  8
LAYER_05
 10
-1082.359524897298
 20
1488.469881835168
 30
0.0
  0
VERTEX
  5
2DD
  8
LAYER_05
 10
-1028.391141525972
 20
1488.469881835169
 30
0.0
  0
VERTEX
  5
2DE
  8
LAYER_05
 10
-888.1015087291785
 20
1407.473624575428
 30
0.0
  0
VERTEX
  5
2DF
  8
LAYER_05
 10
-888.1015087291782
 20
1376.314963908262
 30
0.0
  0
VERTEX
  5
2E0
  8
LAYER_05
 10
-915.0857004148431
 20
1360.735633574678
 30
0.0
  0
SEQEND
  5
2E1
  8
LAYER_05
  0
POLYLINE
  5
2E2
  8
LAYER_05
 66
     1
 10
0.0
 20
0.0
 30
0.0
 70
     1
  0
VERTEX
  5
2E3
  8
LAYER_05
 10
-1116.754340363758
 20
1400.106682997372
 30
0.0
  0
VERTEX
  5
2E4
  8
LAYER_05
 10
-1116.754340363759
 20
1454.075066368708
 30
0.0
  0
VERTEX
  5
2E5
  8
LAYER_05
 10
-1070.016349363013
 20
1427.090874683045
 30
0.0
  0
VERTEX
  5
2E6
  8
LAYER_05
 10
-989.0200921032692
 20
1286.801241886254
 30
0.0
  0
VERTEX
  5
2E7
  8
LAYER_05
 10
-1004.599422436852
 20
1259.817050200588
 30
0.0
  0
VERTEX
  5
2E8
  8
LAYER_05
 10
-1035.758083104018
 20
1259.817050200587
 30
0.0
  0
SEQEND
  5
2E9
  8
LAYER_05
  0
POLYLINE
  5
2EA
  8
LAYER_05
 66
     1
 10
0.0
 20
0.0
 30
0.0
 70
     1
  0
VERTEX
  5
2EB
  8
LAYER_05
 10
-1012.790984270193
 20
1205.6288489119
 30
0.0
  0
VERTEX
  5
2EC
  8
LAYER_05
 10
-993.05241705306
 20
1239.817050200588
 30
0.0
  0
VERTEX
  5
2ED
  8
LAYER_05
 10
-953.5752826187927
 20
1239.817050200588
 30
0.0
  0
VERTEX
  5
2EE
  8
LAYER_05
 10
-933.8367154016589
 20
1205.6288489119
 30
0.0
  0
VERTEX
  5
2EF
  8
LAYER_05
 10
-953.5752826187927
 20
1171.440647623211
 30
0.0
  0
VERTEX
  5
2F0
  8
LAYER_05
 10
-993.0524170530598
 20
1171.440647623211
 30
0.0
  0
SEQEND
  5
2F1
  8
LAYER_05
  0
POLYLINE
  5
2F2
  8
LAYER_05
 66
     1
 10
0.0
 20
0.0
 30
0.0
  0
VERTEX
  5
2F3
  8
LAYER_05
 10
-1163.738532049422
 20
1194.081843528108
 30
0.0
  0
VERTEX
  5
2F4
  8
LAYER_05
 10
-1136.754340363757
 20
1178.502513194525
 30
0.0
  0
VERTEX
  5
2F5
  8
LAYER_05
 10
-1136.754340363754
 20
1016.50999867505
 30
0.0
  0
VERTEX
  5
2F6
  8
LAYER_05
 10
-1163.738532049422
 20
969.7720076742944
 30
0.0
  0
SEQEND
  5
2F7
  8
LAYER_05
  0
POLYLINE
  5
2F8
  8
LAYER_05
 66
     1
 10
0.0
 20
0.0
 30
0.0
 70
     1
  0
VERTEX
  5
2F9
  8
LAYER_05
 10
-888.1015087291787
 20
1058.036744683122
 30
0.0
  0
VERTEX
  5
2FA
  8
LAYER_05
 10
-915.0857004148438
 20
1073.616075016706
 30
0.0
  0
VERTEX
  5
2FB
  8
LAYER_05
 10
-1035.375333211633
 20
1004.166823140757
 30
0.0
  0
VERTEX
  5
2FC
  8
LAYER_05
 10
-965.9260813356848
 20
1124.456455937548
 30
0.0
  0
VERTEX
  5
2FD
  8
LAYER_05
 10
-981.5054116692677
 20
1151.440647623212
 30
0.0
  0
VERTEX
  5
2FE
  8
LAYER_05
 10
-942.0282772350004
 20
1151.440647623212
 30
0.0
  0
VERTEX
  5
2FF
  8
LAYER_05
 10
-922.2897100178673
 20
1185.628848911901
 30
0.0
  0
VERTEX
  5
300
  8
LAYER_05
 10
-906.7103796842837
 20
1158.644657226236
 30
0.0
  0
VERTEX
  5
301
  8
LAYER_05
 10
-767.8118759323877
 20
1158.644657226237
 30
0.0
  0
VERTEX
  5
302
  8
LAYER_05
 10
-888.1015087291787
 20
1089.195405350289
 30
0.0
  0
SEQEND
  5
303
  8
LAYER_05
  0
POLYLINE
  5
304
  8
LAYER_05
 66
     1
 10
0.0
 20
0.0
 30
0.0
 70
     1
  0
VERTEX
  5
305
  8
LAYER_05
 10
-1016.146427820644
 20
1239.817050200588
 30
0.0
  0
VERTEX
  5
306
  8
LAYER_05
 10
-1035.884995037778
 20
1205.6288489119
 30
0.0
  0
VERTEX
  5
307
  8
LAYER_05
 10
-1016.146427820644
 20
1171.440647623211
 30
0.0
  0
VERTEX
  5
308
  8
LAYER_05
 10
-1047.305088487811
 20
1171.440647623211
 30
0.0
  0
VERTEX
  5
309
  8
LAYER_05
 10
-1116.754340363758
 20
1051.151014826421
 30
0.0
  0
VERTEX
  5
30A
  8
LAYER_05
 10
-1116.754340363757
 20
1190.049518578317
 30
0.0
  0
VERTEX
  5
30B
  8
LAYER_05
 10
-1143.738532049423
 20
1205.6288489119
 30
0.0
  0
VERTEX
  5
30C
  8
LAYER_05
 10
-1116.754340363757
 20
1221.208179245483
 30
0.0
  0
VERTEX
  5
30D
  8
LAYER_05
 10
-1116.754340363758
 20
1360.106682997379
 30
0.0
  0
VERTEX
  5
30E
  8
LAYER_05
 10
-1047.30508848781
 20
1239.817050200588
 30
0.0
  0
SEQEND
  5
30F
  8
LAYER_05
  0
POLYLINE
  5
310
  8
LAYER_05
 66
     1
 10
0.0
 20
0.0
 30
0.0
  0
VERTEX
  5
311
  8
LAYER_05
 10
-1163.738532049422
 20
1441.485690149505
 30
0.0
  0
VERTEX
  5
312
  8
LAYER_05
 10
-1136.754340363759
 20
1394.747699148759
 30
0.0
  0
VERTEX
  5
313
  8
LAYER_05
 10
-1136.754340363756
 20
1232.755184629276
 30
0.0
  0
VERTEX
  5
314
  8
LAYER_05
 10
-1163.738532049422
 20
1217.175854295692
 30
0.0
  0
SEQEND
  5
315
  8
LAYER_05
  0
POLYLINE
  5
316
  8
LAYER_05
 66
     1
 10
0.0
 20
0.0
 30
0.0
 70
     1
  0
VERTEX
  5
317
  8
LAYER_05
 10
-868.1015087291787
 20
1023.395728531746
 30
0.0
  0
VERTEX
  5
318
  8
LAYER_05
 10
-841.1173170435136
 20
1007.816398198162
 30
0.0
  0
VERTEX
  5
319
  8
LAYER_05
 10
-720.8276842467244
 20
1077.265650074111
 30
0.0
  0
VERTEX
  5
31A
  8
LAYER_05
 10
-790.2769361226729
 20
956.9760172773208
 30
0.0
  0
VERTEX
  5
31B
  8
LAYER_05
 10
-774.6976057890895
 20
929.9918255916568
 30
0.0
  0
VERTEX
  5
31C
  8
LAYER_05
 10
-814.1747402233566
 20
929.9918255916568
 30
0.0
  0
VERTEX
  5
31D
  8
LAYER_05
 10
-833.9133074404906
 20
895.8036243029678
 30
0.0
  0
VERTEX
  5
31E
  8
LAYER_05
 10
-849.492637774074
 20
922.7878159886327
 30
0.0
  0
VERTEX
  5
31F
  8
LAYER_05
 10
-988.3911415259699
 20
922.7878159886322
 30
0.0
  0
VERTEX
  5
320
  8
LAYER_05
 10
-868.1015087291787
 20
992.2370678645798
 30
0.0
  0
SEQEND
  5
321
  8
LAYER_05
  0
POLYLINE
  5
322
  8
LAYER_05
 66
     1
 10
0.0
 20
0.0
 30
0.0
 70
     1
  0
VERTEX
  5
323
  8
LAYER_05
 10
-868.1015087291792
 20
1387.861969292054
 30
0.0
  0
VERTEX
  5
324
  8
LAYER_05
 10
-868.1015087291792
 20
1419.020629959221
 30
0.0
  0
VERTEX
  5
325
  8
LAYER_05
 10
-988.3911415259693
 20
1488.469881835167
 30
0.0
  0
VERTEX
  5
326
  8
LAYER_05
 10
-849.4926377740728
 20
1488.469881835167
 30
0.0
  0
VERTEX
  5
327
  8
LAYER_05
 10
-833.9133074404904
 20
1515.454073520832
 30
0.0
  0
VERTEX
  5
328
  8
LAYER_05
 10
-814.1747402233568
 20
1481.265872232143
 30
0.0
  0
VERTEX
  5
329
  8
LAYER_05
 10
-774.6976057890895
 20
1481.265872232143
 30
0.0
  0
VERTEX
  5
32A
  8
LAYER_05
 10
-790.2769361226729
 20
1454.281680546478
 30
0.0
  0
VERTEX
  5
32B
  8
LAYER_05
 10
-720.8276842467244
 20
1333.992047749688
 30
0.0
  0
VERTEX
  5
32C
  8
LAYER_05
 10
-841.1173170435143
 20
1403.441299625637
 30
0.0
  0
SEQEND
  5
32D
  8
LAYER_05
  0
POLYLINE
  5
32E
  8
LAYER_05
 66
     1
 10
0.0
 20
0.0
 30
0.0
 70
     1
  0
VERTEX
  5
32F
  8
LAYER_05
 10
-981.5054116692681
 20
1259.817050200588
 30
0.0
  0
VERTEX
  5
330
  8
LAYER_05
 10
-965.9260813356848
 20
1286.801241886253
 30
0.0
  0
VERTEX
  5
331
  8
LAYER_05
 10
-1035.375333211633
 20
1407.090874683043
 30
0.0
  0
VERTEX
  5
332
  8
LAYER_05
 10
-915.0857004148431
 20
1337.641622807094
 30
0.0
  0
VERTEX
  5
333
  8
LAYER_05
 10
-888.1015087291785
 20
1353.220953140677
 30
0.0
  0
VERTEX
  5
334
  8
LAYER_05
 10
-888.1015087291785
 20
1322.062292473511
 30
0.0
  0
VERTEX
  5
335
  8
LAYER_05
 10
-767.8118759323879
 20
1252.613040597564
 30
0.0
  0
VERTEX
  5
336
  8
LAYER_05
 10
-906.7103796842844
 20
1252.613040597565
 30
0.0
  0
VERTEX
  5
337
  8
LAYER_05
 10
-922.2897100178673
 20
1225.6288489119
 30
0.0
  0
VERTEX
  5
338
  8
LAYER_05
 10
-942.0282772350006
 20
1259.817050200588
 30
0.0
  0
SEQEND
  5
339
  8
LAYER_05
  0
POLYLINE
  5
33A
  8
LAYER_05
 66
     1
 10
0.0
 20
0.0
 30
0.0
 70
     1
  0
VERTEX
  5
33B
  8
LAYER_05
 10
-686.1866680953531
 20
654.3415985318293
 30
0.0
  0
VERTEX
  5
33C
  8
LAYER_05
 10
-639.4486770945987
 20
627.3574068461608
 30
0.0
  0
VERTEX
  5
33D
  8
LAYER_05
 10
-639.4486770945989
 20
681.3257902174864
 30
0.0
  0
VERTEX
  5
33E
  8
LAYER_05
 10
-720.4449343543388
 20
821.6154230142802
 30
0.0
  0
VERTEX
  5
33F
  8
LAYER_05
 10
-751.6035950215055
 20
821.6154230142806
 30
0.0
  0
VERTEX
  5
340
  8
LAYER_05
 10
-767.1829253550886
 20
794.6312313286162
 30
0.0
  0
SEQEND
  5
341
  8
LAYER_05
  0
POLYLINE
  5
342
  8
LAYER_05
 66
     1
 10
0.0
 20
0.0
 30
0.0
 70
     1
  0
VERTEX
  5
343
  8
LAYER_05
 10
-727.8118759323952
 20
592.9625913797008
 30
0.0
  0
VERTEX
  5
344
  8
LAYER_05
 10
-673.8434925610595
 20
592.9625913797004
 30
0.0
  0
VERTEX
  5
345
  8
LAYER_05
 10
-700.8276842467226
 20
639.7005823804461
 30
0.0
  0
VERTEX
  5
346
  8
LAYER_05
 10
-841.1173170435136
 20
720.6968396401899
 30
0.0
  0
VERTEX
  5
347
  8
LAYER_05
 10
-868.1015087291792
 20
705.1175093066067
 30
0.0
  0
VERTEX
  5
348
  8
LAYER_05
 10
-868.1015087291796
 20
673.9588486394405
 30
0.0
  0
SEQEND
  5
349
  8
LAYER_05
  0
POLYLINE
  5
34A
  8
LAYER_05
 66
     1
 10
0.0
 20
0.0
 30
0.0
 70
     1
  0
VERTEX
  5
34B
  8
LAYER_05
 10
-1070.016349363004
 20
767.4404254651763
 30
0.0
  0
VERTEX
  5
34C
  8
LAYER_05
 10
-1116.754340363759
 20
794.4246171508448
 30
0.0
  0
VERTEX
  5
34D
  8
LAYER_05
 10
-1116.754340363759
 20
740.4562337795192
 30
0.0
  0
VERTEX
  5
34E
  8
LAYER_05
 10
-1035.758083104019
 20
600.1666009827254
 30
0.0
  0
VERTEX
  5
34F
  8
LAYER_05
 10
-1004.599422436852
 20
600.166600982725
 30
0.0
  0
VERTEX
  5
350
  8
LAYER_05
 10
-989.020092103269
 20
627.1507926683894
 30
0.0
  0
SEQEND
  5
351
  8
LAYER_05
  0
POLYLINE
  5
352
  8
LAYER_05
 66
     1
 10
0.0
 20
0.0
 30
0.0
 70
     1
  0
VERTEX
  5
353
  8
LAYER_05
 10
-1028.391141525962
 20
828.8194326173048
 30
0.0
  0
VERTEX
  5
354
  8
LAYER_05
 10
-1082.359524897298
 20
828.8194326173052
 30
0.0
  0
VERTEX
  5
355
  8
LAYER_05
 10
-1055.375333211635
 20
782.0814416165595
 30
0.0
  0
VERTEX
  5
356
  8
LAYER_05
 10
-915.0857004148438
 20
701.0851843568157
 30
0.0
  0
VERTEX
  5
357
  8
LAYER_05
 10
-888.1015087291785
 20
716.6645146903988
 30
0.0
  0
VERTEX
  5
358
  8
LAYER_05
 10
-888.101508729178
 20
747.8231753575651
 30
0.0
  0
SEQEND
  5
359
  8
LAYER_05
  0
POLYLINE
  5
35A
  8
LAYER_05
 66
     1
 10
0.0
 20
0.0
 30
0.0
  0
VERTEX
  5
35B
  8
LAYER_05
 10
-1163.738532049422
 20
557.525405077829
 30
0.0
  0
VERTEX
  5
35C
  8
LAYER_05
 10
-1136.754340363757
 20
573.1047354114121
 30
0.0
  0
VERTEX
  5
35D
  8
LAYER_05
 10
-1136.754340363754
 20
735.0972499308873
 30
0.0
  0
VERTEX
  5
35E
  8
LAYER_05
 10
-1163.738532049422
 20
781.8352409316426
 30
0.0
  0
SEQEND
  5
35F
  8
LAYER_05
  0
POLYLINE
  5
360
  8
LAYER_05
 66
     1
 10
0.0
 20
0.0
 30
0.0
 70
     1
  0
VERTEX
  5
361
  8
LAYER_05
 10
-888.1015087291787
 20
693.5705039228146
 30
0.0
  0
VERTEX
  5
362
  8
LAYER_05
 10
-915.0857004148438
 20
677.991173589231
 30
0.0
  0
VERTEX
  5
363
  8
LAYER_05
 10
-1035.375333211633
 20
747.4404254651799
 30
0.0
  0
VERTEX
  5
364
  8
LAYER_05
 10
-965.9260813356848
 20
627.1507926683894
 30
0.0
  0
VERTEX
  5
365
  8
LAYER_05
 10
-981.5054116692677
 20
600.166600982725
 30
0.0
  0
VERTEX
  5
366
  8
LAYER_05
 10
-942.0282772350004
 20
600.166600982725
 30
0.0
  0
VERTEX
  5
367
  8
LAYER_05
 10
-922.2897100178673
 20
565.9783996940364
 30
0.0
  0
VERTEX
  5
368
  8
LAYER_05
 10
-906.7103796842837
 20
592.9625913797013
 30
0.0
  0
VERTEX
  5
369
  8
LAYER_05
 10
-767.8118759323877
 20
592.9625913797008
 30
0.0
  0
VERTEX
  5
36A
  8
LAYER_05
 10
-888.1015087291787
 20
662.4118432556484
 30
0.0
  0
SEQEND
  5
36B
  8
LAYER_05
  0
POLYLINE
  5
36C
  8
LAYER_05
 66
     1
 10
0.0
 20
0.0
 30
0.0
 70
     1
  0
VERTEX
  5
36D
  8
LAYER_05
 10
-868.1015087291787
 20
728.211520074191
 30
0.0
  0
VERTEX
  5
36E
  8
LAYER_05
 10
-841.1173170435136
 20
743.7908504077745
 30
0.0
  0
VERTEX
  5
36F
  8
LAYER_05
 10
-720.8276842467244
 20
674.3415985318256
 30
0.0
  0
VERTEX
  5
370
  8
LAYER_05
 10
-790.2769361226729
 20
794.6312313286162
 30
0.0
  0
VERTEX
  5
371
  8
LAYER_05
 10
-774.6976057890895
 20
821.6154230142806
 30
0.0
  0
VERTEX
  5
372
  8
LAYER_05
 10
-814.1747402233566
 20
821.6154230142806
 30
0.0
  0
VERTEX
  5
373
  8
LAYER_05
 10
-833.9133074404906
 20
855.8036243029692
 30
0.0
  0
VERTEX
  5
374
  8
LAYER_05
 10
-849.492637774074
 20
828.8194326173043
 30
0.0
  0
VERTEX
  5
375
  8
LAYER_05
 10
-988.3911415259699
 20
828.8194326173048
 30
0.0
  0
VERTEX
  5
376
  8
LAYER_05
 10
-868.1015087291787
 20
759.3701807413572
 30
0.0
  0
SEQEND
  5
377
  8
LAYER_05
  0
POLYLINE
  5
378
  8
LAYER_05
 66
     1
 10
0.0
 20
0.0
 30
0.0
 70
     1
  0
VERTEX
  5
379
  8
LAYER_05
 10
-700.8276842467283
 20
1771.557115443346
 30
0.0
  0
VERTEX
  5
37A
  8
LAYER_05
 10
-673.8434925610595
 20
1818.2951064441
 30
0.0
  0
VERTEX
  5
37B
  8
LAYER_05
 10
-727.8118759323852
 20
1818.295106444099
 30
0.0
  0
VERTEX
  5
37C
  8
LAYER_05
 10
-868.1015087291787
 20
1737.29884918436
 30
0.0
  0
VERTEX
  5
37D
  8
LAYER_05
 10
-868.1015087291792
 20
1706.140188517193
 30
0.0
  0
VERTEX
  5
37E
  8
LAYER_05
 10
-841.1173170435143
 20
1690.56085818361
 30
0.0
  0
SEQEND
  5
37F
  8
LAYER_05
  0
POLYLINE
  5
380
  8
LAYER_05
 66
     1
 10
0.0
 20
0.0
 30
0.0
 70
     1
  0
VERTEX
  5
381
  8
LAYER_05
 10
-639.4486770945994
 20
1729.931907606303
 30
0.0
  0
VERTEX
  5
382
  8
LAYER_05
 10
-639.4486770945991
 20
1783.90029097764
 30
0.0
  0
VERTEX
  5
383
  8
LAYER_05
 10
-686.1866680953447
 20
1756.916099291976
 30
0.0
  0
VERTEX
  5
384
  8
LAYER_05
 10
-767.1829253550884
 20
1616.626466495185
 30
0.0
  0
VERTEX
  5
385
  8
LAYER_05
 10
-751.6035950215055
 20
1589.64227480952
 30
0.0
  0
VERTEX
  5
386
  8
LAYER_05
 10
-720.444934354339
 20
1589.642274809519
 30
0.0
  0
SEQEND
  5
387
  8
LAYER_05
  0
POLYLINE
  5
388
  8
LAYER_05
 66
     1
 10
0.0
 20
0.0
 30
0.0
 70
     1
  0
VERTEX
  5
389
  8
LAYER_05
 10
-1055.37533321163
 20
1629.176256207249
 30
0.0
  0
VERTEX
  5
38A
  8
LAYER_05
 10
-1082.359524897298
 20
1582.438265206495
 30
0.0
  0
VERTEX
  5
38B
  8
LAYER_05
 10
-1028.391141525972
 20
1582.438265206495
 30
0.0
  0
VERTEX
  5
38C
  8
LAYER_05
 10
-888.1015087291785
 20
1663.434522466235
 30
0.0
  0
VERTEX
  5
38D
  8
LAYER_05
 10
-888.1015087291782
 20
1694.593183133401
 30
0.0
  0
VERTEX
  5
38E
  8
LAYER_05
 10
-915.0857004148431
 20
1710.172513466985
 30
0.0
  0
SEQEND
  5
38F
  8
LAYER_05
  0
POLYLINE
  5
390
  8
LAYER_05
 66
     1
 10
0.0
 20
0.0
 30
0.0
 70
     1
  0
VERTEX
  5
391
  8
LAYER_05
 10
-1116.754340363758
 20
1670.801464044292
 30
0.0
  0
VERTEX
  5
392
  8
LAYER_05
 10
-1116.754340363759
 20
1616.833080672955
 30
0.0
  0
VERTEX
  5
393
  8
LAYER_05
 10
-1070.016349363013
 20
1643.817272358619
 30
0.0
  0
VERTEX
  5
394
  8
LAYER_05
 10
-989.0200921032692
 20
1784.10690515541
 30
0.0
  0
VERTEX
  5
395
  8
LAYER_05
 10
-1004.599422436852
 20
1811.091096841075
 30
0.0
  0
VERTEX
  5
396
  8
LAYER_05
 10
-1035.758083104018
 20
1811.091096841076
 30
0.0
  0
SEQEND
  5
397
  8
LAYER_05
  0
POLYLINE
  5
398
  8
LAYER_05
 66
     1
 10
0.0
 20
0.0
 30
0.0
  0
VERTEX
  5
399
  8
LAYER_05
 10
-1163.738532049422
 20
1629.422456892158
 30
0.0
  0
VERTEX
  5
39A
  8
LAYER_05
 10
-1136.754340363759
 20
1676.160447892904
 30
0.0
  0
VERTEX
  5
39B
  8
LAYER_05
 10
-1136.754340363756
 20
1838.152962412387
 30
0.0
  0
VERTEX
  5
39C
  8
LAYER_05
 10
-1163.738532049422
 20
1853.732292745971
 30
0.0
  0
SEQEND
  5
39D
  8
LAYER_05
  0
POLYLINE
  5
39E
  8
LAYER_05
 66
     1
 10
0.0
 20
0.0
 30
0.0
 70
     1
  0
VERTEX
  5
39F
  8
LAYER_05
 10
-868.1015087291792
 20
1683.046177749608
 30
0.0
  0
VERTEX
  5
3A0
  8
LAYER_05
 10
-868.1015087291792
 20
1651.887517082443
 30
0.0
  0
VERTEX
  5
3A1
  8
LAYER_05
 10
-988.3911415259693
 20
1582.438265206495
 30
0.0
  0
VERTEX
  5
3A2
  8
LAYER_05
 10
-849.4926377740728
 20
1582.438265206496
 30
0.0
  0
VERTEX
  5
3A3
  8
LAYER_05
 10
-833.9133074404904
 20
1555.454073520831
 30
0.0
  0
VERTEX
  5
3A4
  8
LAYER_05
 10
-814.1747402233568
 20
1589.64227480952
 30
0.0
  0
VERTEX
  5
3A5
  8
LAYER_05
 10
-774.6976057890895
 20
1589.64227480952
 30
0.0
  0
VERTEX
  5
3A6
  8
LAYER_05
 10
-790.2769361226729
 20
1616.626466495185
 30
0.0
  0
VERTEX
  5
3A7
  8
LAYER_05
 10
-720.8276842467244
 20
1736.916099291975
 30
0.0
  0
VERTEX
  5
3A8
  8
LAYER_05
 10
-841.1173170435143
 20
1667.466847416026
 30
0.0
  0
SEQEND
  5
3A9
  8
LAYER_05
  0
POLYLINE
  5
3AA
  8
LAYER_05
 66
     1
 10
0.0
 20
0.0
 30
0.0
 70
     1
  0
VERTEX
  5
3AB
  8
LAYER_05
 10
-981.5054116692681
 20
1811.091096841075
 30
0.0
  0
VERTEX
  5
3AC
  8
LAYER_05
 10
-965.9260813356848
 20
1784.10690515541
 30
0.0
  0
VERTEX
  5
3AD
  8
LAYER_05
 10
-1035.375333211633
 20
1663.81727235862
 30
0.0
  0
VERTEX
  5
3AE
  8
LAYER_05
 10
-915.0857004148431
 20
1733.266524234569
 30
0.0
  0
VERTEX
  5
3AF
  8
LAYER_05
 10
-888.1015087291785
 20
1717.687193900986
 30
0.0
  0
VERTEX
  5
3B0
  8
LAYER_05
 10
-888.1015087291785
 20
1748.845854568152
 30
0.0
  0
VERTEX
  5
3B1
  8
LAYER_05
 10
-767.8118759323879
 20
1818.295106444099
 30
0.0
  0
VERTEX
  5
3B2
  8
LAYER_05
 10
-906.7103796842844
 20
1818.295106444099
 30
0.0
  0
VERTEX
  5
3B3
  8
LAYER_05
 10
-922.2897100178673
 20
1845.279298129764
 30
0.0
  0
VERTEX
  5
3B4
  8
LAYER_05
 10
-942.0282772350006
 20
1811.091096841075
 30
0.0
  0
SEQEND
  5
3B5
  8
LAYER_05
  0
POLYLINE
  5
3B6
  8
LAYER_05
 66
     1
 10
0.0
 20
0.0
 30
0.0
 70
     1
  0
VERTEX
  5
3B7
  8
LAYER_05
 10
-612.4644854089354
 20
875.8036243029687
 30
0.0
  0
VERTEX
  5
3B8
  8
LAYER_05
 10
-639.4486770946
 20
891.3829546365514
 30
0.0
  0
VERTEX
  5
3B9
  8
LAYER_05
 10
-639.4486770945994
 20
1030.281458388448
 30
0.0
  0
VERTEX
  5
3BA
  8
LAYER_05
 10
-708.8979289705467
 20
909.9918255916573
 30
0.0
  0
VERTEX
  5
3BB
  8
LAYER_05
 10
-740.0565896377129
 20
909.9918255916573
 30
0.0
  0
VERTEX
  5
3BC
  8
LAYER_05
 10
-720.3180224205796
 20
875.8036243029687
 30
0.0
  0
VERTEX
  5
3BD
  8
LAYER_05
 10
-740.0565896377129
 20
841.6154230142797
 30
0.0
  0
VERTEX
  5
3BE
  8
LAYER_05
 10
-708.8979289705467
 20
841.6154230142797
 30
0.0
  0
VERTEX
  5
3BF
  8
LAYER_05
 10
-639.4486770945994
 20
721.3257902174892
 30
0.0
  0
VERTEX
  5
3C0
  8
LAYER_05
 10
-639.4486770946
 20
860.2242939693856
 30
0.0
  0
SEQEND
  5
3C1
  8
LAYER_05
  0
POLYLINE
  5
3C2
  8
LAYER_05
 66
     1
 10
0.0
 20
0.0
 30
0.0
 70
     1
  0
VERTEX
  5
3C3
  8
LAYER_05
 10
-1069.770148678096
 20
875.8036243029687
 30
0.0
  0
VERTEX
  5
3C4
  8
LAYER_05
 10
-1023.03215767735
 20
848.8194326173061
 30
0.0
  0
VERTEX
  5
3C5
  8
LAYER_05
 10
-861.0396431578663
 20
848.8194326173038
 30
0.0
  0
VERTEX
  5
3C6
  8
LAYER_05
 10
-845.4603128242825
 20
875.8036243029687
 30
0.0
  0
VERTEX
  5
3C7
  8
LAYER_05
 10
-861.0396431578663
 20
902.7878159886332
 30
0.0
  0
VERTEX
  5
3C8
  8
LAYER_05
 10
-1023.03215767735
 20
902.7878159886309
 30
0.0
  0
SEQEND
  5
3C9
  8
LAYER_05
  0
POLYLINE
  5
3CA
  8
LAYER_05
 66
     1
 10
0.0
 20
0.0
 30
0.0
  0
VERTEX
  5
3CB
  8
LAYER_05
 10
-1163.738532049421
 20
821.8352409316362
 30
0.0
  0
VERTEX
  5
3CC
  8
LAYER_05
 10
-1136.754340363754
 20
775.09724993089
 30
0.0
  0
VERTEX
  5
3CD
  8
LAYER_05
 10
-1136.754340363755
 20
829.065633302218
 30
0.0
  0
VERTEX
  5
3CE
  8
LAYER_05
 10
-1090.016349363005
 20
802.0814416165567
 30
0.0
  0
VERTEX
  5
3CF
  8
LAYER_05
 10
-1117.000541048675
 20
848.8194326173075
 30
0.0
  0
VERTEX
  5
3D0
  8
LAYER_05
 10
-1063.032157677342
 20
848.819432617307
 30
0.0
  0
VERTEX
  5
3D1
  8
LAYER_05
 10
-1109.770148678087
 20
875.8036243029687
 30
0.0
  0
VERTEX
  5
3D2
  8
LAYER_05
 10
-1063.032157677342
 20
902.7878159886304
 30
0.0
  0
VERTEX
  5
3D3
  8
LAYER_05
 10
-1117.000541048675
 20
902.7878159886295
 30
0.0
  0
VERTEX
  5
3D4
  8
LAYER_05
 10
-1090.016349363005
 20
949.5258069893807
 30
0.0
  0
VERTEX
  5
3D5
  8
LAYER_05
 10
-1136.754340363755
 20
922.541615303719
 30
0.0
  0
VERTEX
  5
3D6
  8
LAYER_05
 10
-1136.754340363754
 20
976.5099986750474
 30
0.0
  0
VERTEX
  5
3D7
  8
LAYER_05
 10
-1163.738532049421
 20
929.7720076743008
 30
0.0
  0
SEQEND
  5
3D8
  8
LAYER_05
  0
POLYLINE
  5
3D9
  8
LAYER_05
 66
     1
 10
0.0
 20
0.0
 30
0.0
 70
     1
  0
VERTEX
  5
3DA
  8
LAYER_05
 10
-743.4120331881636
 20
875.8036243029687
 30
0.0
  0
VERTEX
  5
3DB
  8
LAYER_05
 10
-763.1506004052974
 20
909.9918255916573
 30
0.0
  0
VERTEX
  5
3DC
  8
LAYER_05
 10
-802.6277348395645
 20
909.9918255916573
 30
0.0
  0
VERTEX
  5
3DD
  8
LAYER_05
 10
-822.3663020566983
 20
875.8036243029687
 30
0.0
  0
VERTEX
  5
3DE
  8
LAYER_05
 10
-802.6277348395645
 20
841.6154230142797
 30
0.0
  0
VERTEX
  5
3DF
  8
LAYER_05
 10
-763.1506004052974
 20
841.6154230142797
 30
0.0
  0
SEQEND
  5
3E0
  8
LAYER_05
  0
POLYLINE
  5
3E1
  8
LAYER_05
 66
     1
 10
0.0
 20
0.0
 30
0.0
 70
     1
  0
VERTEX
  5
3E2
  8
LAYER_05
 10
-612.4644854089345
 20
1535.454073520831
 30
0.0
  0
VERTEX
  5
3E3
  8
LAYER_05
 10
-639.4486770946003
 20
1551.033403854415
 30
0.0
  0
VERTEX
  5
3E4
  8
LAYER_05
 10
-639.4486770945996
 20
1689.931907606311
 30
0.0
  0
VERTEX
  5
3E5
  8
LAYER_05
 10
-708.8979289705469
 20
1569.64227480952
 30
0.0
  0
VERTEX
  5
3E6
  8
LAYER_05
 10
-740.0565896377134
 20
1569.64227480952
 30
0.0
  0
VERTEX
  5
3E7
  8
LAYER_05
 10
-720.3180224205796
 20
1535.454073520832
 30
0.0
  0
VERTEX
  5
3E8
  8
LAYER_05
 10
-740.0565896377134
 20
1501.265872232143
 30
0.0
  0
VERTEX
  5
3E9
  8
LAYER_05
 10
-708.8979289705469
 20
1501.265872232143
 30
0.0
  0
VERTEX
  5
3EA
  8
LAYER_05
 10
-639.4486770945996
 20
1380.976239435352
 30
0.0
  0
VERTEX
  5
3EB
  8
LAYER_05
 10
-639.4486770946003
 20
1519.874743187248
 30
0.0
  0
SEQEND
  5
3EC
  8
LAYER_05
  0
POLYLINE
  5
3ED
  8
LAYER_05
 66
     1
 10
0.0
 20
0.0
 30
0.0
 70
     1
  0
VERTEX
  5
3EE
  8
LAYER_05
 10
-1069.770148678096
 20
1535.454073520832
 30
0.0
  0
VERTEX
  5
3EF
  8
LAYER_05
 10
-1023.032157677341
 20
1508.469881835164
 30
0.0
  0
VERTEX
  5
3F0
  8
LAYER_05
 10
-861.0396431578649
 20
1508.469881835167
 30
0.0
  0
VERTEX
  5
3F1
  8
LAYER_05
 10
-845.4603128242825
 20
1535.454073520832
 30
0.0
  0
VERTEX
  5
3F2
  8
LAYER_05
 10
-861.0396431578649
 20
1562.438265206496
 30
0.0
  0
VERTEX
  5
3F3
  8
LAYER_05
 10
-1023.032157677341
 20
1562.438265206499
 30
0.0
  0
SEQEND
  5
3F4
  8
LAYER_05
  0
POLYLINE
  5
3F5
  8
LAYER_05
 66
     1
 10
0.0
 20
0.0
 30
0.0
 70
     1
  0
VERTEX
  5
3F6
  8
LAYER_05
 10
-822.3663020566983
 20
1535.454073520832
 30
0.0
  0
VERTEX
  5
3F7
  8
LAYER_05
 10
-802.6277348395647
 20
1501.265872232142
 30
0.0
  0
VERTEX
  5
3F8
  8
LAYER_05
 10
-763.1506004052976
 20
1501.265872232142
 30
0.0
  0
VERTEX
  5
3F9
  8
LAYER_05
 10
-743.4120331881638
 20
1535.454073520832
 30
0.0
  0
VERTEX
  5
3FA
  8
LAYER_05
 10
-763.1506004052976
 20
1569.64227480952
 30
0.0
  0
VERTEX
  5
3FB
  8
LAYER_05
 10
-802.6277348395647
 20
1569.64227480952
 30
0.0
  0
SEQEND
  5
3FC
  8
LAYER_05
  0
POLYLINE
  5
3FD
  8
LAYER_05
 66
     1
 10
0.0
 20
0.0
 30
0.0
  0
VERTEX
  5
3FE
  8
LAYER_05
 10
-1163.738532049422
 20
1481.485690149498
 30
0.0
  0
VERTEX
  5
3FF
  8
LAYER_05
 10
-1136.75434036376
 20
1434.747699148751
 30
0.0
  0
VERTEX
  5
400
  8
LAYER_05
 10
-1136.754340363757
 20
1488.716082520079
 30
0.0
  0
VERTEX
  5
401
  8
LAYER_05
 10
-1090.01634936301
 20
1461.731890834415
 30
0.0
  0
VERTEX
  5
402
  8
LAYER_05
 10
-1117.000541048677
 20
1508.469881835166
 30
0.0
  0
VERTEX
  5
403
  8
LAYER_05
 10
-1063.032157677344
 20
1508.469881835163
 30
0.0
  0
VERTEX
  5
404
  8
LAYER_05
 10
-1109.77014867809
 20
1535.454073520832
 30
0.0
  0
VERTEX
  5
405
  8
LAYER_05
 10
-1063.032157677344
 20
1562.438265206499
 30
0.0
  0
VERTEX
  5
406
  8
LAYER_05
 10
-1117.000541048677
 20
1562.438265206496
 30
0.0
  0
VERTEX
  5
407
  8
LAYER_05
 10
-1090.01634936301
 20
1609.176256207249
 30
0.0
  0
VERTEX
  5
408
  8
LAYER_05
 10
-1136.754340363757
 20
1582.192064521584
 30
0.0
  0
VERTEX
  5
409
  8
LAYER_05
 10
-1136.75434036376
 20
1636.160447892912
 30
0.0
  0
VERTEX
  5
40A
  8
LAYER_05
 10
-1163.738532049422
 20
1589.422456892165
 30
0.0
  0
SEQEND
  5
40B
  8
LAYER_05
  0
ENDSEC
  0
EOF
