  0
SECTION
  2
HEADER
  9
$ACADVER
  1
AC1009
  9
$DWGCODEPAGE
  3
ansi_1252
  9
$INSBASE
 10
0.0
 20
0.0
 30
0.0
  9
$EXTMIN
 10
1.000000000000000E+20
 20
1.000000000000000E+20
 30
1.000000000000000E+20
  9
$EXTMAX
 10
-1.000000000000000E+20
 20
-1.000000000000000E+20
 30
-1.000000000000000E+20
  9
$LIMMIN
 10
0.0
 20
0.0
  9
$LIMMAX
 10
12.0
 20
9.0
  9
$ORTHOMODE
 70
     0
  9
$REGENMODE
 70
     1
  9
$FILLMODE
 70
     1
  9
$QTEXTMODE
 70
     0
  9
$MIRRTEXT
 70
     1
  9
$DRAGMODE
 70
     2
  9
$LTSCALE
 40
1.0
  9
$OSMODE
 70
    37
  9
$ATTMODE
 70
     1
  9
$TEXTSIZE
 40
0.2
  9
$TRACEWID
 40
0.05
  9
$TEXTSTYLE
  7
STANDARD
  9
$CLAYER
  8
0
  9
$CELTYPE
  6
BYLAYER
  9
$CECOLOR
 62
   256
  9
$DIMSCALE
 40
1.0
  9
$DIMASZ
 40
0.18
  9
$DIMEXO
 40
0.0625
  9
$DIMDLI
 40
0.38
  9
$DIMRND
 40
0.0
  9
$DIMDLE
 40
0.0
  9
$DIMEXE
 40
0.18
  9
$DIMTP
 40
0.0
  9
$DIMTM
 40
0.0
  9
$DIMTXT
 40
0.18
  9
$DIMCEN
 40
0.09
  9
$DIMTSZ
 40
0.0
  9
$DIMTOL
 70
     0
  9
$DIMLIM
 70
     0
  9
$DIMTIH
 70
     1
  9
$DIMTOH
 70
     1
  9
$DIMSE1
 70
     0
  9
$DIMSE2
 70
     0
  9
$DIMTAD
 70
     0
  9
$DIMZIN
 70
     0
  9
$DIMBLK
  1

  9
$DIMASO
 70
     1
  9
$DIMSHO
 70
     1
  9
$DIMPOST
  1

  9
$DIMAPOST
  1

  9
$DIMALT
 70
     0
  9
$DIMALTD
 70
     2
  9
$DIMALTF
 40
25.4
  9
$DIMLFAC
 40
1.0
  9
$DIMTOFL
 70
     0
  9
$DIMTVP
 40
0.0
  9
$DIMTIX
 70
     0
  9
$DIMSOXD
 70
     0
  9
$DIMSAH
 70
     0
  9
$DIMBLK1
  1

  9
$DIMBLK2
  1

  9
$DIMSTYLE
  2
STANDARD_ACAD
  9
$DIMCLRD
 70
     0
  9
$DIMCLRE
 70
     0
  9
$DIMCLRT
 70
     0
  9
$DIMTFAC
 40
1.0
  9
$DIMGAP
 40
0.09
  9
$LUNITS
 70
     2
  9
$LUPREC
 70
     3
  9
$SKETCHINC
 40
0.1
  9
$FILLETRAD
 40
0.5
  9
$AUNITS
 70
     0
  9
$AUPREC
 70
     0
  9
$MENU
  1
.
  9
$ELEVATION
 40
0.0
  9
$PELEVATION
 40
0.0
  9
$THICKNESS
 40
0.0
  9
$LIMCHECK
 70
     0
  9
$CHAMFERA
 40
0.0
  9
$CHAMFERB
 40
0.0
  9
$SKPOLY
 70
     0
  9
$TDCREATE
 40
2459893.641272789
  9
$TDUPDATE
 40
2459893.641272859
  9
$TDINDWG
 40
0.0000000116
  9
$TDUSRTIMER
 40
0.0000000116
  9
$USRTIMER
 70
     1
  9
$ANGBASE
 50
0.0
  9
$ANGDIR
 70
     0
  9
$PDMODE
 70
     0
  9
$PDSIZE
 40
0.0
  9
$PLINEWID
 40
0.0
  9
$COORDS
 70
     1
  9
$SPLFRAME
 70
     0
  9
$SPLINETYPE
 70
     6
  9
$SPLINESEGS
 70
     8
  9
$ATTDIA
 70
     0
  9
$ATTREQ
 70
     1
  9
$HANDLING
 70
     1
  9
$HANDSEED
  5
47A
  9
$SURFTAB1
 70
     6
  9
$SURFTAB2
 70
     6
  9
$SURFTYPE
 70
     6
  9
$SURFU
 70
     6
  9
$SURFV
 70
     6
  9
$UCSNAME
  2

  9
$UCSORG
 10
0.0
 20
0.0
 30
0.0
  9
$UCSXDIR
 10
1.0
 20
0.0
 30
0.0
  9
$UCSYDIR
 10
0.0
 20
1.0
 30
0.0
  9
$PUCSNAME
  2

  9
$PUCSORG
 10
0.0
 20
0.0
 30
0.0
  9
$PUCSXDIR
 10
1.0
 20
0.0
 30
0.0
  9
$PUCSYDIR
 10
0.0
 20
1.0
 30
0.0
  9
$USERI1
 70
     0
  9
$USERI2
 70
     0
  9
$USERI3
 70
     0
  9
$USERI4
 70
     0
  9
$USERI5
 70
     0
  9
$USERR1
 40
0.0
  9
$USERR2
 40
0.0
  9
$USERR3
 40
0.0
  9
$USERR4
 40
0.0
  9
$USERR5
 40
0.0
  9
$WORLDVIEW
 70
     1
  9
$SHADEDGE
 70
     3
  9
$SHADEDIF
 70
    70
  9
$TILEMODE
 70
     1
  9
$MAXACTVP
 70
    64
  9
$PLIMCHECK
 70
     0
  9
$PEXTMIN
 10
1.000000000000000E+20
 20
1.000000000000000E+20
 30
1.000000000000000E+20
  9
$PEXTMAX
 10
-1.000000000000000E+20
 20
-1.000000000000000E+20
 30
-1.000000000000000E+20
  9
$PLIMMIN
 10
0.0
 20
0.0
  9
$PLIMMAX
 10
12.0
 20
9.0
  9
$UNITMODE
 70
     0
  9
$VISRETAIN
 70
     1
  9
$PLINEGEN
 70
     0
  9
$PSLTSCALE
 70
     1
  0
ENDSEC
  0
SECTION
  2
TABLES
  0
TABLE
  2
VPORT
 70
     1
  0
VPORT
  2
*ACTIVE
 70
     0
 10
0.0
 20
0.0
 11
1.0
 21
1.0
 12
10.42990654205607
 22
4.5
 13
0.0
 23
0.0
 14
0.5
 24
0.5
 15
0.5
 25
0.5
 16
0.0
 26
0.0
 36
1.0
 17
0.0
 27
0.0
 37
0.0
 40
9.0
 41
1.972972972850329
 42
50.0
 43
0.0
 44
0.0
 50
0.0
 51
0.0
 71
     0
 72
   100
 73
     1
 74
     3
 75
     0
 76
     0
 77
     0
 78
     0
  0
ENDTAB
  0
TABLE
  2
LTYPE
 70
     1
  0
LTYPE
  2
CONTINUOUS
 70
     0
  3
Solid line
 72
    65
 73
     0
 40
0.0
  0
ENDTAB
  0
TABLE
  2
LAYER
 70
     1
  0
LAYER
  2
0
 70
     0
 62
     5
  6
CONTINUOUS
  0
ENDTAB
  0
TABLE
  2
STYLE
 70
     1
  0
STYLE
  2
STANDARD
 70
     0
 40
0.0
 41
1.0
 50
0.0
 71
     0
 42
0.2
  3
txt
  4

  0
ENDTAB
  0
TABLE
  2
VIEW
 70
     0
  0
ENDTAB
  0
TABLE
  2
UCS
 70
     0
  0
ENDTAB
  0
TABLE
  2
APPID
 70
     2
  0
APPID
  2
ACAD
 70
     0
  0
APPID
  2
RHINO
 70
     0
  0
ENDTAB
  0
TABLE
  2
DIMSTYLE
 70
     1
  0
DIMSTYLE
  2
STANDARD_ACAD
 70
     0
  3

  4

  5

  6

  7

 40
1.0
 41
0.18
 42
0.0625
 43
0.38
 44
0.18
 45
0.0
 46
0.0
 47
0.0
 48
0.0
140
0.18
141
0.09
142
0.0
143
25.4
144
1.0
145
0.0
146
1.0
147
0.09
 71
     0
 72
     0
 73
     1
 74
     1
 75
     0
 76
     0
 77
     0
 78
     0
170
     0
171
     2
172
     0
173
     0
174
     0
175
     0
176
     0
177
     0
178
     0
  0
ENDTAB
  0
ENDSEC
  0
SECTION
  2
BLOCKS
  0
BLOCK
  8
0
  2
$MODEL_SPACE
 70
     0
 10
0.0
 20
0.0
 30
0.0
  3
$MODEL_SPACE
  1

  0
ENDBLK
  5
21
  8
0
  0
BLOCK
 67
     1
  8
0
  2
$PAPER_SPACE
 70
     0
 10
0.0
 20
0.0
 30
0.0
  3
$PAPER_SPACE
  1

  0
ENDBLK
  5
1D
 67
     1
  8
0
  0
ENDSEC
  0
SECTION
  2
ENTITIES
  0
POLYLINE
  5
6F
  8
0
 66
     1
 10
0.0
 20
0.0
 30
0.0
 70
     1
  0
VERTEX
  5
70
  8
0
 10
14795.13827501912
 20
5861.212447813757
 30
0.0
  0
VERTEX
  5
71
  8
0
 10
14757.18833603696
 20
5861.212447813757
 30
0.0
  0
VERTEX
  5
72
  8
0
 10
14790.05394726758
 20
5880.187417304842
 30
0.0
  0
VERTEX
  5
73
  8
0
 10
14757.18833603694
 20
5899.162386795928
 30
0.0
  0
VERTEX
  5
74
  8
0
 10
14795.13827501913
 20
5899.162386795932
 30
0.0
  0
VERTEX
  5
75
  8
0
 10
14776.16330552803
 20
5932.02799802657
 30
0.0
  0
VERTEX
  5
76
  8
0
 10
14809.02891675867
 20
5913.053028535475
 30
0.0
  0
VERTEX
  5
77
  8
0
 10
14809.02891675867
 20
5951.002967517642
 30
0.0
  0
VERTEX
  5
78
  8
0
 10
14828.00388624974
 20
5918.137356287028
 30
0.0
  0
VERTEX
  5
79
  8
0
 10
14846.97885574081
 20
5951.002967517642
 30
0.0
  0
VERTEX
  5
7A
  8
0
 10
14846.97885574081
 20
5913.053028535475
 30
0.0
  0
VERTEX
  5
7B
  8
0
 10
14879.84446697145
 20
5932.02799802657
 30
0.0
  0
VERTEX
  5
7C
  8
0
 10
14860.86949748036
 20
5899.162386795932
 30
0.0
  0
VERTEX
  5
7D
  8
0
 10
14898.81943646254
 20
5899.16238679593
 30
0.0
  0
VERTEX
  5
7E
  8
0
 10
14865.9538252319
 20
5880.187417304839
 30
0.0
  0
VERTEX
  5
7F
  8
0
 10
14898.81943646252
 20
5861.212447813759
 30
0.0
  0
VERTEX
  5
80
  8
0
 10
14860.86949748037
 20
5861.212447813768
 30
0.0
  0
VERTEX
  5
81
  8
0
 10
14879.84446697145
 20
5828.346836583159
 30
0.0
  0
VERTEX
  5
82
  8
0
 10
14846.97885574082
 20
5847.321806074239
 30
0.0
  0
VERTEX
  5
83
  8
0
 10
14846.97885574082
 20
5809.371867092059
 30
0.0
  0
VERTEX
  5
84
  8
0
 10
14828.00388624974
 20
5842.237478322695
 30
0.0
  0
VERTEX
  5
85
  8
0
 10
14809.02891675865
 20
5809.371867092051
 30
0.0
  0
VERTEX
  5
86
  8
0
 10
14809.02891675865
 20
5847.321806074238
 30
0.0
  0
VERTEX
  5
87
  8
0
 10
14776.16330552803
 20
5828.346836583152
 30
0.0
  0
SEQEND
  5
88
  8
0
  0
POLYLINE
  5
89
  8
0
 66
     1
 10
0.0
 20
0.0
 30
0.0
 70
     1
  0
VERTEX
  5
8A
  8
0
 10
14828.00388624973
 20
5674.577756068995
 30
0.0
  0
VERTEX
  5
8B
  8
0
 10
14846.97885574082
 20
5656.11683611094
 30
0.0
  0
VERTEX
  5
8C
  8
0
 10
14846.97885574081
 20
5589.119378308331
 30
0.0
  0
VERTEX
  5
8D
  8
0
 10
14828.00388624974
 20
5556.253767077694
 30
0.0
  0
VERTEX
  5
8E
  8
0
 10
14809.02891675866
 20
5589.119378308333
 30
0.0
  0
VERTEX
  5
8F
  8
0
 10
14809.02891675865
 20
5656.116836110947
 30
0.0
  0
SEQEND
  5
90
  8
0
  0
POLYLINE
  5
91
  8
0
 66
     1
 10
0.0
 20
0.0
 30
0.0
 70
     1
  0
VERTEX
  5
92
  8
0
 10
14769.15751290559
 20
5454.328858604453
 30
0.0
  0
VERTEX
  5
93
  8
0
 10
14750.18254341451
 20
5421.463247373824
 30
0.0
  0
VERTEX
  5
94
  8
0
 10
14692.16104296847
 20
5387.96451847251
 30
0.0
  0
VERTEX
  5
95
  8
0
 10
14666.68593256201
 20
5395.166864108811
 30
0.0
  0
VERTEX
  5
96
  8
0
 10
14673.18607347737
 20
5420.830129703163
 30
0.0
  0
VERTEX
  5
97
  8
0
 10
14731.20757392341
 20
5454.328858604462
 30
0.0
  0
SEQEND
  5
98
  8
0
  0
POLYLINE
  5
99
  8
0
 66
     1
 10
0.0
 20
0.0
 30
0.0
 70
     1
  0
VERTEX
  5
9A
  8
0
 10
14795.13827501912
 20
5507.278797586634
 30
0.0
  0
VERTEX
  5
9B
  8
0
 10
14757.18833603696
 20
5507.278797586634
 30
0.0
  0
VERTEX
  5
9C
  8
0
 10
14790.05394726758
 20
5488.303828095548
 30
0.0
  0
VERTEX
  5
9D
  8
0
 10
14757.18833603694
 20
5469.328858604462
 30
0.0
  0
VERTEX
  5
9E
  8
0
 10
14795.13827501913
 20
5469.328858604458
 30
0.0
  0
VERTEX
  5
9F
  8
0
 10
14776.16330552803
 20
5436.463247373819
 30
0.0
  0
VERTEX
  5
A0
  8
0
 10
14809.02891675867
 20
5455.438216864914
 30
0.0
  0
VERTEX
  5
A1
  8
0
 10
14809.02891675867
 20
5417.488277882749
 30
0.0
  0
VERTEX
  5
A2
  8
0
 10
14828.00388624974
 20
5450.353889113362
 30
0.0
  0
VERTEX
  5
A3
  8
0
 10
14846.97885574081
 20
5417.488277882749
 30
0.0
  0
VERTEX
  5
A4
  8
0
 10
14846.97885574081
 20
5455.438216864914
 30
0.0
  0
VERTEX
  5
A5
  8
0
 10
14879.84446697145
 20
5436.463247373819
 30
0.0
  0
VERTEX
  5
A6
  8
0
 10
14860.86949748036
 20
5469.328858604458
 30
0.0
  0
VERTEX
  5
A7
  8
0
 10
14898.81943646254
 20
5469.32885860446
 30
0.0
  0
VERTEX
  5
A8
  8
0
 10
14865.9538252319
 20
5488.30382809555
 30
0.0
  0
VERTEX
  5
A9
  8
0
 10
14898.81943646252
 20
5507.27879758663
 30
0.0
  0
VERTEX
  5
AA
  8
0
 10
14860.86949748037
 20
5507.278797586621
 30
0.0
  0
VERTEX
  5
AB
  8
0
 10
14879.84446697145
 20
5540.144408817231
 30
0.0
  0
VERTEX
  5
AC
  8
0
 10
14846.97885574082
 20
5521.16943932615
 30
0.0
  0
VERTEX
  5
AD
  8
0
 10
14846.97885574082
 20
5559.119378308331
 30
0.0
  0
VERTEX
  5
AE
  8
0
 10
14828.00388624974
 20
5526.253767077695
 30
0.0
  0
VERTEX
  5
AF
  8
0
 10
14809.02891675865
 20
5559.119378308339
 30
0.0
  0
VERTEX
  5
B0
  8
0
 10
14809.02891675865
 20
5521.169439326151
 30
0.0
  0
VERTEX
  5
B1
  8
0
 10
14776.16330552803
 20
5540.144408817237
 30
0.0
  0
SEQEND
  5
B2
  8
0
  0
POLYLINE
  5
B3
  8
0
 66
     1
 10
0.0
 20
0.0
 30
0.0
 70
     1
  0
VERTEX
  5
B4
  8
0
 10
14649.94069635602
 20
5385.498997477635
 30
0.0
  0
VERTEX
  5
B5
  8
0
 10
14643.44055544066
 20
5359.835731883293
 30
0.0
  0
VERTEX
  5
B6
  8
0
 10
14585.41905499462
 20
5326.337002981994
 30
0.0
  0
VERTEX
  5
B7
  8
0
 10
14547.46911601245
 20
5326.337002981991
 30
0.0
  0
VERTEX
  5
B8
  8
0
 10
14566.44408550354
 20
5359.20261421262
 30
0.0
  0
VERTEX
  5
B9
  8
0
 10
14624.46558594958
 20
5392.70134311393
 30
0.0
  0
SEQEND
  5
BA
  8
0
  0
POLYLINE
  5
BB
  8
0
 66
     1
 10
0.0
 20
0.0
 30
0.0
 70
     1
  0
VERTEX
  5
BC
  8
0
 10
14547.46911601245
 20
5650.270653209091
 30
0.0
  0
VERTEX
  5
BD
  8
0
 10
14566.44408550353
 20
5617.405041978465
 30
0.0
  0
VERTEX
  5
BE
  8
0
 10
14624.46558594957
 20
5583.906313077147
 30
0.0
  0
VERTEX
  5
BF
  8
0
 10
14649.94069635602
 20
5591.108658713449
 30
0.0
  0
VERTEX
  5
C0
  8
0
 10
14643.44055544067
 20
5616.771924307805
 30
0.0
  0
VERTEX
  5
C1
  8
0
 10
14585.41905499463
 20
5650.270653209104
 30
0.0
  0
SEQEND
  5
C2
  8
0
  0
POLYLINE
  5
C3
  8
0
 66
     1
 10
0.0
 20
0.0
 30
0.0
 70
     1
  0
VERTEX
  5
C4
  8
0
 10
14769.15751290558
 20
5522.278797586623
 30
0.0
  0
VERTEX
  5
C5
  8
0
 10
14750.1825434145
 20
5555.144408817252
 30
0.0
  0
VERTEX
  5
C6
  8
0
 10
14692.16104296846
 20
5588.643137718566
 30
0.0
  0
VERTEX
  5
C7
  8
0
 10
14666.68593256201
 20
5581.44079208228
 30
0.0
  0
VERTEX
  5
C8
  8
0
 10
14673.18607347737
 20
5555.777526487937
 30
0.0
  0
VERTEX
  5
C9
  8
0
 10
14731.20757392341
 20
5522.278797586632
 30
0.0
  0
SEQEND
  5
CA
  8
0
  0
POLYLINE
  5
CB
  8
0
 66
     1
 10
0.0
 20
0.0
 30
0.0
 70
     1
  0
VERTEX
  5
CC
  8
0
 10
14828.00388624974
 20
5420.35388911337
 30
0.0
  0
VERTEX
  5
CD
  8
0
 10
14846.97885574082
 20
5387.488277882739
 30
0.0
  0
VERTEX
  5
CE
  8
0
 10
14846.97885574083
 20
5320.490820080126
 30
0.0
  0
VERTEX
  5
CF
  8
0
 10
14828.00388624974
 20
5302.029900122068
 30
0.0
  0
VERTEX
  5
D0
  8
0
 10
14809.02891675866
 20
5320.490820080126
 30
0.0
  0
VERTEX
  5
D1
  8
0
 10
14809.02891675866
 20
5387.488277882739
 30
0.0
  0
SEQEND
  5
D2
  8
0
  0
POLYLINE
  5
D3
  8
0
 66
     1
 10
0.0
 20
0.0
 30
0.0
 70
     1
  0
VERTEX
  5
D4
  8
0
 10
14664.10006636102
 20
5596.297673702927
 30
0.0
  0
VERTEX
  5
D5
  8
0
 10
14656.4261312991
 20
5626.595206666047
 30
0.0
  0
VERTEX
  5
D6
  8
0
 10
14615.41905499463
 20
5650.2706532091
 30
0.0
  0
VERTEX
  5
D7
  8
0
 10
14662.76994808075
 20
5650.270653209094
 30
0.0
  0
VERTEX
  5
D8
  8
0
 10
14683.8613174106
 20
5671.949317678049
 30
0.0
  0
VERTEX
  5
D9
  8
0
 10
14697.54306407423
 20
5654.222644899598
 30
0.0
  0
VERTEX
  5
DA
  8
0
 10
14719.73568635675
 20
5651.237241109973
 30
0.0
  0
VERTEX
  5
DB
  8
0
 10
14711.50709687143
 20
5622.132247235246
 30
0.0
  0
VERTEX
  5
DC
  8
0
 10
14735.18254341448
 20
5581.125170930793
 30
0.0
  0
VERTEX
  5
DD
  8
0
 10
14694.17546711003
 20
5604.800617473853
 30
0.0
  0
SEQEND
  5
DE
  8
0
  0
POLYLINE
  5
DF
  8
0
 66
     1
 10
0.0
 20
0.0
 30
0.0
 70
     1
  0
VERTEX
  5
E0
  8
0
 10
14734.86692226301
 20
5649.621781783269
 30
0.0
  0
VERTEX
  5
E1
  8
0
 10
14727.66457662672
 20
5624.146671376814
 30
0.0
  0
VERTEX
  5
E2
  8
0
 10
14761.16330552803
 20
5566.125170930779
 30
0.0
  0
VERTEX
  5
E3
  8
0
 10
14794.02891675866
 20
5547.150201439693
 30
0.0
  0
VERTEX
  5
E4
  8
0
 10
14794.02891675866
 20
5585.100140421869
 30
0.0
  0
VERTEX
  5
E5
  8
0
 10
14760.53018785736
 20
5643.121640867904
 30
0.0
  0
SEQEND
  5
E6
  8
0
  0
POLYLINE
  5
E7
  8
0
 66
     1
 10
0.0
 20
0.0
 30
0.0
 70
     1
  0
VERTEX
  5
E8
  8
0
 10
14500.19624647228
 20
5488.303828095557
 30
0.0
  0
VERTEX
  5
E9
  8
0
 10
14522.59771215937
 20
5510.098417287732
 30
0.0
  0
VERTEX
  5
EA
  8
0
 10
14522.59771215937
 20
5557.44931037385
 30
0.0
  0
VERTEX
  5
EB
  8
0
 10
14546.27315870243
 20
5516.442234069386
 30
0.0
  0
VERTEX
  5
EC
  8
0
 10
14576.29414012929
 20
5508.838345586262
 30
0.0
  0
VERTEX
  5
ED
  8
0
 10
14547.94565834963
 20
5478.829665787858
 30
0.0
  0
VERTEX
  5
EE
  8
0
 10
14569.9054838201
 20
5466.151154641126
 30
0.0
  0
VERTEX
  5
EF
  8
0
 10
14546.27315870244
 20
5460.165422121705
 30
0.0
  0
VERTEX
  5
F0
  8
0
 10
14522.59771215938
 20
5419.15834581725
 30
0.0
  0
VERTEX
  5
F1
  8
0
 10
14522.59771215938
 20
5466.509238903364
 30
0.0
  0
SEQEND
  5
F2
  8
0
  0
POLYLINE
  5
F3
  8
0
 66
     1
 10
0.0
 20
0.0
 30
0.0
 70
     1
  0
VERTEX
  5
F4
  8
0
 10
14632.26102952994
 20
5476.525846925102
 30
0.0
  0
VERTEX
  5
F5
  8
0
 10
14620.4469913803
 20
5436.971001645989
 30
0.0
  0
VERTEX
  5
F6
  8
0
 10
14598.48716590985
 20
5449.649512792723
 30
0.0
  0
VERTEX
  5
F7
  8
0
 10
14605.11953204661
 20
5426.19045263061
 30
0.0
  0
VERTEX
  5
F8
  8
0
 10
14581.44408550355
 20
5385.18337632616
 30
0.0
  0
VERTEX
  5
F9
  8
0
 10
14622.451161808
 20
5408.858822869221
 30
0.0
  0
VERTEX
  5
FA
  8
0
 10
14652.52656255702
 20
5400.355879098294
 30
0.0
  0
VERTEX
  5
FB
  8
0
 10
14660.20049761894
 20
5430.653412061406
 30
0.0
  0
VERTEX
  5
FC
  8
0
 10
14701.20757392342
 20
5454.328858604462
 30
0.0
  0
VERTEX
  5
FD
  8
0
 10
14653.85668083729
 20
5454.328858604462
 30
0.0
  0
SEQEND
  5
FE
  8
0
  0
POLYLINE
  5
FF
  8
0
 66
     1
 10
0.0
 20
0.0
 30
0.0
 70
     1
  0
VERTEX
  5
100
  8
0
 10
14652.52656255702
 20
5576.251777092797
 30
0.0
  0
VERTEX
  5
101
  8
0
 10
14622.451161808
 20
5567.748833321859
 30
0.0
  0
VERTEX
  5
102
  8
0
 10
14581.44408550354
 20
5591.42427986493
 30
0.0
  0
VERTEX
  5
103
  8
0
 10
14605.1195320466
 20
5550.417203560472
 30
0.0
  0
VERTEX
  5
104
  8
0
 10
14596.89094256128
 20
5521.31220968575
 30
0.0
  0
VERTEX
  5
105
  8
0
 10
14619.08356484382
 20
5518.326805896126
 30
0.0
  0
VERTEX
  5
106
  8
0
 10
14632.76531150745
 20
5500.600133117674
 30
0.0
  0
VERTEX
  5
107
  8
0
 10
14653.85668083729
 20
5522.278797586648
 30
0.0
  0
VERTEX
  5
108
  8
0
 10
14701.2075739234
 20
5522.278797586642
 30
0.0
  0
VERTEX
  5
109
  8
0
 10
14660.20049761895
 20
5545.954244129694
 30
0.0
  0
SEQEND
  5
10A
  8
0
  0
POLYLINE
  5
10B
  8
0
 66
     1
 10
0.0
 20
0.0
 30
0.0
 70
     1
  0
VERTEX
  5
10C
  8
0
 10
14611.50703782129
 20
5459.452994315517
 30
0.0
  0
VERTEX
  5
10D
  8
0
 10
14571.88561190865
 20
5482.328435231866
 30
0.0
  0
VERTEX
  5
10E
  8
0
 10
14594.69405224829
 20
5506.47262708572
 30
0.0
  0
VERTEX
  5
10F
  8
0
 10
14610.97506217788
 20
5504.282467305415
 30
0.0
  0
VERTEX
  5
110
  8
0
 10
14621.01230115076
 20
5491.277778997272
 30
0.0
  0
SEQEND
  5
111
  8
0
  0
POLYLINE
  5
112
  8
0
 66
     1
 10
0.0
 20
0.0
 30
0.0
 70
     1
  0
VERTEX
  5
113
  8
0
 10
14581.75970665502
 20
5522.92766901245
 30
0.0
  0
VERTEX
  5
114
  8
0
 10
14556.09644106067
 20
5529.427809927804
 30
0.0
  0
VERTEX
  5
115
  8
0
 10
14522.59771215938
 20
5587.44931037385
 30
0.0
  0
VERTEX
  5
116
  8
0
 10
14522.59771215937
 20
5625.399249356021
 30
0.0
  0
VERTEX
  5
117
  8
0
 10
14555.46332339001
 20
5606.424279864931
 30
0.0
  0
VERTEX
  5
118
  8
0
 10
14588.96205229131
 20
5548.40277941889
 30
0.0
  0
SEQEND
  5
119
  8
0
  0
POLYLINE
  5
11A
  8
0
 66
     1
 10
0.0
 20
0.0
 30
0.0
 70
     1
  0
VERTEX
  5
11B
  8
0
 10
14641.72995827628
 20
5488.303828095548
 30
0.0
  0
VERTEX
  5
11C
  8
0
 10
14660.19087823434
 20
5507.278797586643
 30
0.0
  0
VERTEX
  5
11D
  8
0
 10
14727.18833603695
 20
5507.278797586634
 30
0.0
  0
VERTEX
  5
11E
  8
0
 10
14760.05394726758
 20
5488.303828095553
 30
0.0
  0
VERTEX
  5
11F
  8
0
 10
14727.18833603696
 20
5469.328858604467
 30
0.0
  0
VERTEX
  5
120
  8
0
 10
14660.19087823433
 20
5469.328858604462
 30
0.0
  0
SEQEND
  5
121
  8
0
  0
POLYLINE
  5
122
  8
0
 66
     1
 10
0.0
 20
0.0
 30
0.0
 70
     1
  0
VERTEX
  5
123
  8
0
 10
14581.75970665502
 20
5453.679987178642
 30
0.0
  0
VERTEX
  5
124
  8
0
 10
14588.96205229132
 20
5428.204876772192
 30
0.0
  0
VERTEX
  5
125
  8
0
 10
14555.46332339001
 20
5370.183376326157
 30
0.0
  0
VERTEX
  5
126
  8
0
 10
14522.59771215938
 20
5351.20840683507
 30
0.0
  0
VERTEX
  5
127
  8
0
 10
14522.59771215938
 20
5389.158345817242
 30
0.0
  0
VERTEX
  5
128
  8
0
 10
14556.09644106068
 20
5447.179846263281
 30
0.0
  0
SEQEND
  5
129
  8
0
  0
POLYLINE
  5
12A
  8
0
 66
     1
 10
0.0
 20
0.0
 30
0.0
 70
     1
  0
VERTEX
  5
12B
  8
0
 10
14719.93242699094
 20
5324.674532152075
 30
0.0
  0
VERTEX
  5
12C
  8
0
 10
14679.76990706165
 20
5334.220697632767
 30
0.0
  0
VERTEX
  5
12D
  8
0
 10
14679.76990706165
 20
5308.863675339314
 30
0.0
  0
VERTEX
  5
12E
  8
0
 10
14662.76994808074
 20
5326.337002981998
 30
0.0
  0
VERTEX
  5
12F
  8
0
 10
14615.41905499463
 20
5326.337002981996
 30
0.0
  0
VERTEX
  5
130
  8
0
 10
14656.42613129909
 20
5350.01244952505
 30
0.0
  0
VERTEX
  5
131
  8
0
 10
14664.10006636102
 20
5380.309982488162
 30
0.0
  0
VERTEX
  5
132
  8
0
 10
14694.17546711004
 20
5371.807038717223
 30
0.0
  0
VERTEX
  5
133
  8
0
 10
14735.1825434145
 20
5395.482485260294
 30
0.0
  0
VERTEX
  5
134
  8
0
 10
14711.50709687144
 20
5354.47540895583
 30
0.0
  0
SEQEND
  5
135
  8
0
  0
POLYLINE
  5
136
  8
0
 66
     1
 10
0.0
 20
0.0
 30
0.0
 70
     1
  0
VERTEX
  5
137
  8
0
 10
14734.86692226302
 20
5326.985874407808
 30
0.0
  0
VERTEX
  5
138
  8
0
 10
14760.53018785737
 20
5333.486015323167
 30
0.0
  0
VERTEX
  5
139
  8
0
 10
14794.02891675867
 20
5391.507515769207
 30
0.0
  0
VERTEX
  5
13A
  8
0
 10
14794.02891675867
 20
5429.457454751379
 30
0.0
  0
VERTEX
  5
13B
  8
0
 10
14761.16330552804
 20
5410.482485260293
 30
0.0
  0
VERTEX
  5
13C
  8
0
 10
14727.66457662673
 20
5352.460984814257
 30
0.0
  0
SEQEND
  5
13D
  8
0
  0
POLYLINE
  5
13E
  8
0
 66
     1
 10
0.0
 20
0.0
 30
0.0
 70
     1
  0
VERTEX
  5
13F
  8
0
 10
14149.24159908685
 20
5674.577756068995
 30
0.0
  0
VERTEX
  5
140
  8
0
 10
14130.26662959575
 20
5656.11683611094
 30
0.0
  0
VERTEX
  5
141
  8
0
 10
14130.26662959576
 20
5589.119378308331
 30
0.0
  0
VERTEX
  5
142
  8
0
 10
14149.24159908683
 20
5556.253767077694
 30
0.0
  0
VERTEX
  5
143
  8
0
 10
14168.21656857792
 20
5589.119378308333
 30
0.0
  0
VERTEX
  5
144
  8
0
 10
14168.21656857792
 20
5656.116836110947
 30
0.0
  0
SEQEND
  5
145
  8
0
  0
POLYLINE
  5
146
  8
0
 66
     1
 10
0.0
 20
0.0
 30
0.0
 70
     1
  0
VERTEX
  5
147
  8
0
 10
14208.08797243098
 20
5454.328858604453
 30
0.0
  0
VERTEX
  5
148
  8
0
 10
14227.06294192207
 20
5421.463247373824
 30
0.0
  0
VERTEX
  5
149
  8
0
 10
14285.0844423681
 20
5387.96451847251
 30
0.0
  0
VERTEX
  5
14A
  8
0
 10
14310.55955277456
 20
5395.166864108811
 30
0.0
  0
VERTEX
  5
14B
  8
0
 10
14304.0594118592
 20
5420.830129703163
 30
0.0
  0
VERTEX
  5
14C
  8
0
 10
14246.03791141316
 20
5454.328858604462
 30
0.0
  0
SEQEND
  5
14D
  8
0
  0
POLYLINE
  5
14E
  8
0
 66
     1
 10
0.0
 20
0.0
 30
0.0
 70
     1
  0
VERTEX
  5
14F
  8
0
 10
14182.10721031746
 20
5507.278797586634
 30
0.0
  0
VERTEX
  5
150
  8
0
 10
14220.05714929962
 20
5507.278797586634
 30
0.0
  0
VERTEX
  5
151
  8
0
 10
14187.19153806899
 20
5488.303828095548
 30
0.0
  0
VERTEX
  5
152
  8
0
 10
14220.05714929963
 20
5469.328858604462
 30
0.0
  0
VERTEX
  5
153
  8
0
 10
14182.10721031745
 20
5469.328858604458
 30
0.0
  0
VERTEX
  5
154
  8
0
 10
14201.08217980854
 20
5436.463247373819
 30
0.0
  0
VERTEX
  5
155
  8
0
 10
14168.2165685779
 20
5455.438216864914
 30
0.0
  0
VERTEX
  5
156
  8
0
 10
14168.2165685779
 20
5417.488277882749
 30
0.0
  0
VERTEX
  5
157
  8
0
 10
14149.24159908683
 20
5450.353889113362
 30
0.0
  0
VERTEX
  5
158
  8
0
 10
14130.26662959576
 20
5417.488277882749
 30
0.0
  0
VERTEX
  5
159
  8
0
 10
14130.26662959576
 20
5455.438216864914
 30
0.0
  0
VERTEX
  5
15A
  8
0
 10
14097.40101836512
 20
5436.463247373819
 30
0.0
  0
VERTEX
  5
15B
  8
0
 10
14116.37598785621
 20
5469.328858604458
 30
0.0
  0
VERTEX
  5
15C
  8
0
 10
14078.42604887403
 20
5469.32885860446
 30
0.0
  0
VERTEX
  5
15D
  8
0
 10
14111.29166010468
 20
5488.30382809555
 30
0.0
  0
VERTEX
  5
15E
  8
0
 10
14078.42604887405
 20
5507.27879758663
 30
0.0
  0
VERTEX
  5
15F
  8
0
 10
14116.3759878562
 20
5507.278797586621
 30
0.0
  0
VERTEX
  5
160
  8
0
 10
14097.40101836512
 20
5540.144408817231
 30
0.0
  0
VERTEX
  5
161
  8
0
 10
14130.26662959575
 20
5521.16943932615
 30
0.0
  0
VERTEX
  5
162
  8
0
 10
14130.26662959575
 20
5559.119378308331
 30
0.0
  0
VERTEX
  5
163
  8
0
 10
14149.24159908683
 20
5526.253767077695
 30
0.0
  0
VERTEX
  5
164
  8
0
 10
14168.21656857792
 20
5559.119378308339
 30
0.0
  0
VERTEX
  5
165
  8
0
 10
14168.21656857792
 20
5521.169439326151
 30
0.0
  0
VERTEX
  5
166
  8
0
 10
14201.08217980854
 20
5540.144408817237
 30
0.0
  0
SEQEND
  5
167
  8
0
  0
POLYLINE
  5
168
  8
0
 66
     1
 10
0.0
 20
0.0
 30
0.0
 70
     1
  0
VERTEX
  5
169
  8
0
 10
14327.30478898055
 20
5385.498997477635
 30
0.0
  0
VERTEX
  5
16A
  8
0
 10
14333.80492989591
 20
5359.835731883293
 30
0.0
  0
VERTEX
  5
16B
  8
0
 10
14391.82643034195
 20
5326.337002981994
 30
0.0
  0
VERTEX
  5
16C
  8
0
 10
14429.77636932412
 20
5326.337002981991
 30
0.0
  0
VERTEX
  5
16D
  8
0
 10
14410.80139983303
 20
5359.20261421262
 30
0.0
  0
VERTEX
  5
16E
  8
0
 10
14352.779899387
 20
5392.70134311393
 30
0.0
  0
SEQEND
  5
16F
  8
0
  0
POLYLINE
  5
170
  8
0
 66
     1
 10
0.0
 20
0.0
 30
0.0
 70
     1
  0
VERTEX
  5
171
  8
0
 10
14429.77636932412
 20
5650.270653209091
 30
0.0
  0
VERTEX
  5
172
  8
0
 10
14410.80139983304
 20
5617.405041978465
 30
0.0
  0
VERTEX
  5
173
  8
0
 10
14352.77989938701
 20
5583.906313077147
 30
0.0
  0
VERTEX
  5
174
  8
0
 10
14327.30478898055
 20
5591.108658713449
 30
0.0
  0
VERTEX
  5
175
  8
0
 10
14333.80492989591
 20
5616.771924307805
 30
0.0
  0
VERTEX
  5
176
  8
0
 10
14391.82643034195
 20
5650.270653209104
 30
0.0
  0
SEQEND
  5
177
  8
0
  0
POLYLINE
  5
178
  8
0
 66
     1
 10
0.0
 20
0.0
 30
0.0
 70
     1
  0
VERTEX
  5
179
  8
0
 10
14208.08797243099
 20
5522.278797586623
 30
0.0
  0
VERTEX
  5
17A
  8
0
 10
14227.06294192208
 20
5555.144408817252
 30
0.0
  0
VERTEX
  5
17B
  8
0
 10
14285.08444236811
 20
5588.643137718566
 30
0.0
  0
VERTEX
  5
17C
  8
0
 10
14310.55955277456
 20
5581.44079208228
 30
0.0
  0
VERTEX
  5
17D
  8
0
 10
14304.0594118592
 20
5555.777526487937
 30
0.0
  0
VERTEX
  5
17E
  8
0
 10
14246.03791141316
 20
5522.278797586632
 30
0.0
  0
SEQEND
  5
17F
  8
0
  0
POLYLINE
  5
180
  8
0
 66
     1
 10
0.0
 20
0.0
 30
0.0
 70
     1
  0
VERTEX
  5
181
  8
0
 10
14149.24159908683
 20
5420.35388911337
 30
0.0
  0
VERTEX
  5
182
  8
0
 10
14130.26662959575
 20
5387.488277882739
 30
0.0
  0
VERTEX
  5
183
  8
0
 10
14130.26662959574
 20
5320.490820080126
 30
0.0
  0
VERTEX
  5
184
  8
0
 10
14149.24159908683
 20
5302.029900122068
 30
0.0
  0
VERTEX
  5
185
  8
0
 10
14168.21656857792
 20
5320.490820080126
 30
0.0
  0
VERTEX
  5
186
  8
0
 10
14168.21656857791
 20
5387.488277882739
 30
0.0
  0
SEQEND
  5
187
  8
0
  0
POLYLINE
  5
188
  8
0
 66
     1
 10
0.0
 20
0.0
 30
0.0
 70
     1
  0
VERTEX
  5
189
  8
0
 10
14313.14541897554
 20
5596.297673702927
 30
0.0
  0
VERTEX
  5
18A
  8
0
 10
14320.81935403747
 20
5626.595206666047
 30
0.0
  0
VERTEX
  5
18B
  8
0
 10
14361.82643034194
 20
5650.2706532091
 30
0.0
  0
VERTEX
  5
18C
  8
0
 10
14314.47553725582
 20
5650.270653209094
 30
0.0
  0
VERTEX
  5
18D
  8
0
 10
14293.38416792598
 20
5671.949317678049
 30
0.0
  0
VERTEX
  5
18E
  8
0
 10
14279.70242126235
 20
5654.222644899598
 30
0.0
  0
VERTEX
  5
18F
  8
0
 10
14257.50979897982
 20
5651.237241109973
 30
0.0
  0
VERTEX
  5
190
  8
0
 10
14265.73838846514
 20
5622.132247235246
 30
0.0
  0
VERTEX
  5
191
  8
0
 10
14242.06294192209
 20
5581.125170930793
 30
0.0
  0
VERTEX
  5
192
  8
0
 10
14283.07001822654
 20
5604.800617473853
 30
0.0
  0
SEQEND
  5
193
  8
0
  0
POLYLINE
  5
194
  8
0
 66
     1
 10
0.0
 20
0.0
 30
0.0
 70
     1
  0
VERTEX
  5
195
  8
0
 10
14242.37856307356
 20
5649.621781783269
 30
0.0
  0
VERTEX
  5
196
  8
0
 10
14249.58090870985
 20
5624.146671376814
 30
0.0
  0
VERTEX
  5
197
  8
0
 10
14216.08217980855
 20
5566.125170930779
 30
0.0
  0
VERTEX
  5
198
  8
0
 10
14183.21656857792
 20
5547.150201439693
 30
0.0
  0
VERTEX
  5
199
  8
0
 10
14183.21656857791
 20
5585.100140421869
 30
0.0
  0
VERTEX
  5
19A
  8
0
 10
14216.71529747921
 20
5643.121640867904
 30
0.0
  0
SEQEND
  5
19B
  8
0
  0
POLYLINE
  5
19C
  8
0
 66
     1
 10
0.0
 20
0.0
 30
0.0
 70
     1
  0
VERTEX
  5
19D
  8
0
 10
14477.04923886429
 20
5488.303828095557
 30
0.0
  0
VERTEX
  5
19E
  8
0
 10
14454.6477731772
 20
5510.098417287732
 30
0.0
  0
VERTEX
  5
19F
  8
0
 10
14454.6477731772
 20
5557.44931037385
 30
0.0
  0
VERTEX
  5
1A0
  8
0
 10
14430.97232663415
 20
5516.442234069386
 30
0.0
  0
VERTEX
  5
1A1
  8
0
 10
14400.95134520729
 20
5508.838345586262
 30
0.0
  0
VERTEX
  5
1A2
  8
0
 10
14429.29982698694
 20
5478.829665787858
 30
0.0
  0
VERTEX
  5
1A3
  8
0
 10
14407.34000151647
 20
5466.151154641126
 30
0.0
  0
VERTEX
  5
1A4
  8
0
 10
14430.97232663414
 20
5460.165422121705
 30
0.0
  0
VERTEX
  5
1A5
  8
0
 10
14454.64777317719
 20
5419.15834581725
 30
0.0
  0
VERTEX
  5
1A6
  8
0
 10
14454.64777317719
 20
5466.509238903364
 30
0.0
  0
SEQEND
  5
1A7
  8
0
  0
POLYLINE
  5
1A8
  8
0
 66
     1
 10
0.0
 20
0.0
 30
0.0
 70
     1
  0
VERTEX
  5
1A9
  8
0
 10
14344.98445580663
 20
5476.525846925102
 30
0.0
  0
VERTEX
  5
1AA
  8
0
 10
14356.79849395627
 20
5436.971001645989
 30
0.0
  0
VERTEX
  5
1AB
  8
0
 10
14378.75831942673
 20
5449.649512792723
 30
0.0
  0
VERTEX
  5
1AC
  8
0
 10
14372.12595328997
 20
5426.19045263061
 30
0.0
  0
VERTEX
  5
1AD
  8
0
 10
14395.80139983303
 20
5385.18337632616
 30
0.0
  0
VERTEX
  5
1AE
  8
0
 10
14354.79432352857
 20
5408.858822869221
 30
0.0
  0
VERTEX
  5
1AF
  8
0
 10
14324.71892277955
 20
5400.355879098294
 30
0.0
  0
VERTEX
  5
1B0
  8
0
 10
14317.04498771763
 20
5430.653412061406
 30
0.0
  0
VERTEX
  5
1B1
  8
0
 10
14276.03791141316
 20
5454.328858604462
 30
0.0
  0
VERTEX
  5
1B2
  8
0
 10
14323.38880449927
 20
5454.328858604462
 30
0.0
  0
SEQEND
  5
1B3
  8
0
  0
POLYLINE
  5
1B4
  8
0
 66
     1
 10
0.0
 20
0.0
 30
0.0
 70
     1
  0
VERTEX
  5
1B5
  8
0
 10
14324.71892277956
 20
5576.251777092797
 30
0.0
  0
VERTEX
  5
1B6
  8
0
 10
14354.79432352857
 20
5567.748833321859
 30
0.0
  0
VERTEX
  5
1B7
  8
0
 10
14395.80139983303
 20
5591.42427986493
 30
0.0
  0
VERTEX
  5
1B8
  8
0
 10
14372.12595328998
 20
5550.417203560472
 30
0.0
  0
VERTEX
  5
1B9
  8
0
 10
14380.35454277529
 20
5521.31220968575
 30
0.0
  0
VERTEX
  5
1BA
  8
0
 10
14358.16192049276
 20
5518.326805896126
 30
0.0
  0
VERTEX
  5
1BB
  8
0
 10
14344.48017382912
 20
5500.600133117674
 30
0.0
  0
VERTEX
  5
1BC
  8
0
 10
14323.38880449927
 20
5522.278797586648
 30
0.0
  0
VERTEX
  5
1BD
  8
0
 10
14276.03791141317
 20
5522.278797586642
 30
0.0
  0
VERTEX
  5
1BE
  8
0
 10
14317.04498771762
 20
5545.954244129694
 30
0.0
  0
SEQEND
  5
1BF
  8
0
  0
POLYLINE
  5
1C0
  8
0
 66
     1
 10
0.0
 20
0.0
 30
0.0
 70
     1
  0
VERTEX
  5
1C1
  8
0
 10
14365.73844751527
 20
5459.452994315517
 30
0.0
  0
VERTEX
  5
1C2
  8
0
 10
14405.35987342793
 20
5482.328435231866
 30
0.0
  0
VERTEX
  5
1C3
  8
0
 10
14382.55143308829
 20
5506.47262708572
 30
0.0
  0
VERTEX
  5
1C4
  8
0
 10
14366.2704231587
 20
5504.282467305415
 30
0.0
  0
VERTEX
  5
1C5
  8
0
 10
14356.23318418581
 20
5491.277778997272
 30
0.0
  0
SEQEND
  5
1C6
  8
0
  0
POLYLINE
  5
1C7
  8
0
 66
     1
 10
0.0
 20
0.0
 30
0.0
 70
     1
  0
VERTEX
  5
1C8
  8
0
 10
14395.48577868155
 20
5522.92766901245
 30
0.0
  0
VERTEX
  5
1C9
  8
0
 10
14421.1490442759
 20
5529.427809927804
 30
0.0
  0
VERTEX
  5
1CA
  8
0
 10
14454.64777317719
 20
5587.44931037385
 30
0.0
  0
VERTEX
  5
1CB
  8
0
 10
14454.6477731772
 20
5625.399249356021
 30
0.0
  0
VERTEX
  5
1CC
  8
0
 10
14421.78216194656
 20
5606.424279864931
 30
0.0
  0
VERTEX
  5
1CD
  8
0
 10
14388.28343304526
 20
5548.40277941889
 30
0.0
  0
SEQEND
  5
1CE
  8
0
  0
POLYLINE
  5
1CF
  8
0
 66
     1
 10
0.0
 20
0.0
 30
0.0
 70
     1
  0
VERTEX
  5
1D0
  8
0
 10
14335.51552706029
 20
5488.303828095548
 30
0.0
  0
VERTEX
  5
1D1
  8
0
 10
14317.05460710223
 20
5507.278797586643
 30
0.0
  0
VERTEX
  5
1D2
  8
0
 10
14250.05714929962
 20
5507.278797586634
 30
0.0
  0
VERTEX
  5
1D3
  8
0
 10
14217.19153806899
 20
5488.303828095553
 30
0.0
  0
VERTEX
  5
1D4
  8
0
 10
14250.05714929962
 20
5469.328858604467
 30
0.0
  0
VERTEX
  5
1D5
  8
0
 10
14317.05460710224
 20
5469.328858604462
 30
0.0
  0
SEQEND
  5
1D6
  8
0
  0
POLYLINE
  5
1D7
  8
0
 66
     1
 10
0.0
 20
0.0
 30
0.0
 70
     1
  0
VERTEX
  5
1D8
  8
0
 10
14395.48577868155
 20
5453.679987178642
 30
0.0
  0
VERTEX
  5
1D9
  8
0
 10
14388.28343304525
 20
5428.204876772192
 30
0.0
  0
VERTEX
  5
1DA
  8
0
 10
14421.78216194656
 20
5370.183376326157
 30
0.0
  0
VERTEX
  5
1DB
  8
0
 10
14454.6477731772
 20
5351.20840683507
 30
0.0
  0
VERTEX
  5
1DC
  8
0
 10
14454.6477731772
 20
5389.158345817242
 30
0.0
  0
VERTEX
  5
1DD
  8
0
 10
14421.14904427589
 20
5447.179846263281
 30
0.0
  0
SEQEND
  5
1DE
  8
0
  0
POLYLINE
  5
1DF
  8
0
 66
     1
 10
0.0
 20
0.0
 30
0.0
 70
     1
  0
VERTEX
  5
1E0
  8
0
 10
14257.31305834563
 20
5324.674532152075
 30
0.0
  0
VERTEX
  5
1E1
  8
0
 10
14297.47557827492
 20
5334.220697632767
 30
0.0
  0
VERTEX
  5
1E2
  8
0
 10
14297.47557827492
 20
5308.863675339314
 30
0.0
  0
VERTEX
  5
1E3
  8
0
 10
14314.47553725583
 20
5326.337002981998
 30
0.0
  0
VERTEX
  5
1E4
  8
0
 10
14361.82643034194
 20
5326.337002981996
 30
0.0
  0
VERTEX
  5
1E5
  8
0
 10
14320.81935403748
 20
5350.01244952505
 30
0.0
  0
VERTEX
  5
1E6
  8
0
 10
14313.14541897554
 20
5380.309982488162
 30
0.0
  0
VERTEX
  5
1E7
  8
0
 10
14283.07001822654
 20
5371.807038717223
 30
0.0
  0
VERTEX
  5
1E8
  8
0
 10
14242.06294192207
 20
5395.482485260294
 30
0.0
  0
VERTEX
  5
1E9
  8
0
 10
14265.73838846513
 20
5354.47540895583
 30
0.0
  0
SEQEND
  5
1EA
  8
0
  0
POLYLINE
  5
1EB
  8
0
 66
     1
 10
0.0
 20
0.0
 30
0.0
 70
     1
  0
VERTEX
  5
1EC
  8
0
 10
14242.37856307356
 20
5326.985874407808
 30
0.0
  0
VERTEX
  5
1ED
  8
0
 10
14216.71529747921
 20
5333.486015323167
 30
0.0
  0
VERTEX
  5
1EE
  8
0
 10
14183.2165685779
 20
5391.507515769207
 30
0.0
  0
VERTEX
  5
1EF
  8
0
 10
14183.2165685779
 20
5429.457454751379
 30
0.0
  0
VERTEX
  5
1F0
  8
0
 10
14216.08217980853
 20
5410.482485260293
 30
0.0
  0
VERTEX
  5
1F1
  8
0
 10
14249.58090870984
 20
5352.460984814257
 30
0.0
  0
SEQEND
  5
1F2
  8
0
  0
POLYLINE
  5
1F3
  8
0
 66
     1
 10
0.0
 20
0.0
 30
0.0
 70
     1
  0
VERTEX
  5
1F4
  8
0
 10
14828.00388624973
 20
5693.913489331395
 30
0.0
  0
VERTEX
  5
1F5
  8
0
 10
14846.97885574082
 20
5712.374409289449
 30
0.0
  0
VERTEX
  5
1F6
  8
0
 10
14846.97885574081
 20
5779.371867092059
 30
0.0
  0
VERTEX
  5
1F7
  8
0
 10
14828.00388624974
 20
5812.237478322695
 30
0.0
  0
VERTEX
  5
1F8
  8
0
 10
14809.02891675866
 20
5779.371867092058
 30
0.0
  0
VERTEX
  5
1F9
  8
0
 10
14809.02891675865
 20
5712.374409289443
 30
0.0
  0
SEQEND
  5
1FA
  8
0
  0
POLYLINE
  5
1FB
  8
0
 66
     1
 10
0.0
 20
0.0
 30
0.0
 70
     1
  0
VERTEX
  5
1FC
  8
0
 10
14547.46911601245
 20
5718.220592191299
 30
0.0
  0
VERTEX
  5
1FD
  8
0
 10
14566.44408550353
 20
5751.086203421923
 30
0.0
  0
VERTEX
  5
1FE
  8
0
 10
14624.46558594957
 20
5784.584932323242
 30
0.0
  0
VERTEX
  5
1FF
  8
0
 10
14649.94069635602
 20
5777.382586686941
 30
0.0
  0
VERTEX
  5
200
  8
0
 10
14643.44055544067
 20
5751.719321092585
 30
0.0
  0
VERTEX
  5
201
  8
0
 10
14585.41905499463
 20
5718.220592191286
 30
0.0
  0
SEQEND
  5
202
  8
0
  0
POLYLINE
  5
203
  8
0
 66
     1
 10
0.0
 20
0.0
 30
0.0
 70
     1
  0
VERTEX
  5
204
  8
0
 10
14769.15751290558
 20
5846.212447813767
 30
0.0
  0
VERTEX
  5
205
  8
0
 10
14750.1825434145
 20
5813.346836583138
 30
0.0
  0
VERTEX
  5
206
  8
0
 10
14692.16104296846
 20
5779.848107681823
 30
0.0
  0
VERTEX
  5
207
  8
0
 10
14666.68593256201
 20
5787.050453318109
 30
0.0
  0
VERTEX
  5
208
  8
0
 10
14673.18607347737
 20
5812.713718912452
 30
0.0
  0
VERTEX
  5
209
  8
0
 10
14731.20757392341
 20
5846.212447813757
 30
0.0
  0
SEQEND
  5
20A
  8
0
  0
POLYLINE
  5
20B
  8
0
 66
     1
 10
0.0
 20
0.0
 30
0.0
 70
     1
  0
VERTEX
  5
20C
  8
0
 10
14664.10006636102
 20
5772.193571697463
 30
0.0
  0
VERTEX
  5
20D
  8
0
 10
14656.4261312991
 20
5741.896038734342
 30
0.0
  0
VERTEX
  5
20E
  8
0
 10
14615.41905499463
 20
5718.22059219129
 30
0.0
  0
VERTEX
  5
20F
  8
0
 10
14662.76994808075
 20
5718.220592191296
 30
0.0
  0
VERTEX
  5
210
  8
0
 10
14683.8613174106
 20
5696.541927722341
 30
0.0
  0
VERTEX
  5
211
  8
0
 10
14697.54306407423
 20
5714.268600500792
 30
0.0
  0
VERTEX
  5
212
  8
0
 10
14719.73568635675
 20
5717.254004290417
 30
0.0
  0
VERTEX
  5
213
  8
0
 10
14711.50709687143
 20
5746.358998165143
 30
0.0
  0
VERTEX
  5
214
  8
0
 10
14735.18254341448
 20
5787.366074469597
 30
0.0
  0
VERTEX
  5
215
  8
0
 10
14694.17546711003
 20
5763.690627926536
 30
0.0
  0
SEQEND
  5
216
  8
0
  0
POLYLINE
  5
217
  8
0
 66
     1
 10
0.0
 20
0.0
 30
0.0
 70
     1
  0
VERTEX
  5
218
  8
0
 10
14734.86692226301
 20
5718.86946361712
 30
0.0
  0
VERTEX
  5
219
  8
0
 10
14727.66457662672
 20
5744.344574023576
 30
0.0
  0
VERTEX
  5
21A
  8
0
 10
14761.16330552803
 20
5802.366074469611
 30
0.0
  0
VERTEX
  5
21B
  8
0
 10
14794.02891675866
 20
5821.341043960697
 30
0.0
  0
VERTEX
  5
21C
  8
0
 10
14794.02891675866
 20
5783.391104978521
 30
0.0
  0
VERTEX
  5
21D
  8
0
 10
14760.53018785736
 20
5725.369604532486
 30
0.0
  0
SEQEND
  5
21E
  8
0
  0
POLYLINE
  5
21F
  8
0
 66
     1
 10
0.0
 20
0.0
 30
0.0
 70
     1
  0
VERTEX
  5
220
  8
0
 10
14500.19624647228
 20
5880.187417304833
 30
0.0
  0
VERTEX
  5
221
  8
0
 10
14522.59771215937
 20
5858.392828112657
 30
0.0
  0
VERTEX
  5
222
  8
0
 10
14522.59771215937
 20
5811.041935026539
 30
0.0
  0
VERTEX
  5
223
  8
0
 10
14546.27315870243
 20
5852.049011331003
 30
0.0
  0
VERTEX
  5
224
  8
0
 10
14576.29414012929
 20
5859.652899814128
 30
0.0
  0
VERTEX
  5
225
  8
0
 10
14547.94565834963
 20
5889.661579612532
 30
0.0
  0
VERTEX
  5
226
  8
0
 10
14569.9054838201
 20
5902.340090759265
 30
0.0
  0
VERTEX
  5
227
  8
0
 10
14546.27315870244
 20
5908.325823278685
 30
0.0
  0
VERTEX
  5
228
  8
0
 10
14522.59771215938
 20
5949.33289958314
 30
0.0
  0
VERTEX
  5
229
  8
0
 10
14522.59771215938
 20
5901.982006497025
 30
0.0
  0
SEQEND
  5
22A
  8
0
  0
POLYLINE
  5
22B
  8
0
 66
     1
 10
0.0
 20
0.0
 30
0.0
 70
     1
  0
VERTEX
  5
22C
  8
0
 10
14652.52656255702
 20
5792.239468307593
 30
0.0
  0
VERTEX
  5
22D
  8
0
 10
14622.451161808
 20
5800.742412078531
 30
0.0
  0
VERTEX
  5
22E
  8
0
 10
14581.44408550354
 20
5777.06696553546
 30
0.0
  0
VERTEX
  5
22F
  8
0
 10
14605.1195320466
 20
5818.074041839918
 30
0.0
  0
VERTEX
  5
230
  8
0
 10
14596.89094256128
 20
5847.179035714639
 30
0.0
  0
VERTEX
  5
231
  8
0
 10
14619.08356484382
 20
5850.164439504264
 30
0.0
  0
VERTEX
  5
232
  8
0
 10
14632.76531150745
 20
5867.891112282716
 30
0.0
  0
VERTEX
  5
233
  8
0
 10
14653.85668083729
 20
5846.212447813742
 30
0.0
  0
VERTEX
  5
234
  8
0
 10
14701.2075739234
 20
5846.212447813748
 30
0.0
  0
VERTEX
  5
235
  8
0
 10
14660.20049761895
 20
5822.537001270695
 30
0.0
  0
SEQEND
  5
236
  8
0
  0
POLYLINE
  5
237
  8
0
 66
     1
 10
0.0
 20
0.0
 30
0.0
 70
     1
  0
VERTEX
  5
238
  8
0
 10
14611.50703782129
 20
5909.038251084873
 30
0.0
  0
VERTEX
  5
239
  8
0
 10
14571.88561190865
 20
5886.162810168524
 30
0.0
  0
VERTEX
  5
23A
  8
0
 10
14594.69405224829
 20
5862.01861831467
 30
0.0
  0
VERTEX
  5
23B
  8
0
 10
14610.97506217788
 20
5864.208778094975
 30
0.0
  0
VERTEX
  5
23C
  8
0
 10
14621.01230115076
 20
5877.213466403117
 30
0.0
  0
SEQEND
  5
23D
  8
0
  0
POLYLINE
  5
23E
  8
0
 66
     1
 10
0.0
 20
0.0
 30
0.0
 70
     1
  0
VERTEX
  5
23F
  8
0
 10
14581.75970665502
 20
5845.56357638794
 30
0.0
  0
VERTEX
  5
240
  8
0
 10
14556.09644106067
 20
5839.063435472585
 30
0.0
  0
VERTEX
  5
241
  8
0
 10
14522.59771215938
 20
5781.041935026541
 30
0.0
  0
VERTEX
  5
242
  8
0
 10
14522.59771215937
 20
5743.091996044369
 30
0.0
  0
VERTEX
  5
243
  8
0
 10
14555.46332339001
 20
5762.066965535459
 30
0.0
  0
VERTEX
  5
244
  8
0
 10
14588.96205229131
 20
5820.088465981499
 30
0.0
  0
SEQEND
  5
245
  8
0
  0
POLYLINE
  5
246
  8
0
 66
     1
 10
0.0
 20
0.0
 30
0.0
 70
     1
  0
VERTEX
  5
247
  8
0
 10
14641.72995827628
 20
5880.187417304842
 30
0.0
  0
VERTEX
  5
248
  8
0
 10
14660.19087823434
 20
5861.212447813747
 30
0.0
  0
VERTEX
  5
249
  8
0
 10
14727.18833603695
 20
5861.212447813757
 30
0.0
  0
VERTEX
  5
24A
  8
0
 10
14760.05394726758
 20
5880.187417304836
 30
0.0
  0
VERTEX
  5
24B
  8
0
 10
14727.18833603696
 20
5899.162386795922
 30
0.0
  0
VERTEX
  5
24C
  8
0
 10
14660.19087823433
 20
5899.162386795928
 30
0.0
  0
SEQEND
  5
24D
  8
0
  0
POLYLINE
  5
24E
  8
0
 66
     1
 10
0.0
 20
0.0
 30
0.0
 70
     1
  0
VERTEX
  5
24F
  8
0
 10
14149.24159908685
 20
5693.913489331395
 30
0.0
  0
VERTEX
  5
250
  8
0
 10
14130.26662959575
 20
5712.374409289449
 30
0.0
  0
VERTEX
  5
251
  8
0
 10
14130.26662959576
 20
5779.371867092059
 30
0.0
  0
VERTEX
  5
252
  8
0
 10
14149.24159908683
 20
5812.237478322695
 30
0.0
  0
VERTEX
  5
253
  8
0
 10
14168.21656857792
 20
5779.371867092058
 30
0.0
  0
VERTEX
  5
254
  8
0
 10
14168.21656857792
 20
5712.374409289443
 30
0.0
  0
SEQEND
  5
255
  8
0
  0
POLYLINE
  5
256
  8
0
 66
     1
 10
0.0
 20
0.0
 30
0.0
 70
     1
  0
VERTEX
  5
257
  8
0
 10
14182.10721031746
 20
5861.212447813757
 30
0.0
  0
VERTEX
  5
258
  8
0
 10
14220.05714929962
 20
5861.212447813757
 30
0.0
  0
VERTEX
  5
259
  8
0
 10
14187.19153806899
 20
5880.187417304842
 30
0.0
  0
VERTEX
  5
25A
  8
0
 10
14220.05714929963
 20
5899.162386795928
 30
0.0
  0
VERTEX
  5
25B
  8
0
 10
14182.10721031745
 20
5899.162386795932
 30
0.0
  0
VERTEX
  5
25C
  8
0
 10
14201.08217980854
 20
5932.02799802657
 30
0.0
  0
VERTEX
  5
25D
  8
0
 10
14168.2165685779
 20
5913.053028535475
 30
0.0
  0
VERTEX
  5
25E
  8
0
 10
14168.2165685779
 20
5951.002967517642
 30
0.0
  0
VERTEX
  5
25F
  8
0
 10
14149.24159908683
 20
5918.137356287028
 30
0.0
  0
VERTEX
  5
260
  8
0
 10
14130.26662959576
 20
5951.002967517642
 30
0.0
  0
VERTEX
  5
261
  8
0
 10
14130.26662959576
 20
5913.053028535475
 30
0.0
  0
VERTEX
  5
262
  8
0
 10
14097.40101836512
 20
5932.02799802657
 30
0.0
  0
VERTEX
  5
263
  8
0
 10
14116.37598785621
 20
5899.162386795932
 30
0.0
  0
VERTEX
  5
264
  8
0
 10
14078.42604887403
 20
5899.16238679593
 30
0.0
  0
VERTEX
  5
265
  8
0
 10
14111.29166010468
 20
5880.187417304839
 30
0.0
  0
VERTEX
  5
266
  8
0
 10
14078.42604887405
 20
5861.212447813759
 30
0.0
  0
VERTEX
  5
267
  8
0
 10
14116.3759878562
 20
5861.212447813768
 30
0.0
  0
VERTEX
  5
268
  8
0
 10
14097.40101836512
 20
5828.346836583159
 30
0.0
  0
VERTEX
  5
269
  8
0
 10
14130.26662959575
 20
5847.321806074239
 30
0.0
  0
VERTEX
  5
26A
  8
0
 10
14130.26662959575
 20
5809.371867092059
 30
0.0
  0
VERTEX
  5
26B
  8
0
 10
14149.24159908683
 20
5842.237478322695
 30
0.0
  0
VERTEX
  5
26C
  8
0
 10
14168.21656857792
 20
5809.371867092051
 30
0.0
  0
VERTEX
  5
26D
  8
0
 10
14168.21656857792
 20
5847.321806074238
 30
0.0
  0
VERTEX
  5
26E
  8
0
 10
14201.08217980854
 20
5828.346836583152
 30
0.0
  0
SEQEND
  5
26F
  8
0
  0
POLYLINE
  5
270
  8
0
 66
     1
 10
0.0
 20
0.0
 30
0.0
 70
     1
  0
VERTEX
  5
271
  8
0
 10
14429.77636932412
 20
5718.220592191299
 30
0.0
  0
VERTEX
  5
272
  8
0
 10
14410.80139983304
 20
5751.086203421923
 30
0.0
  0
VERTEX
  5
273
  8
0
 10
14352.77989938701
 20
5784.584932323242
 30
0.0
  0
VERTEX
  5
274
  8
0
 10
14327.30478898055
 20
5777.382586686941
 30
0.0
  0
VERTEX
  5
275
  8
0
 10
14333.80492989591
 20
5751.719321092585
 30
0.0
  0
VERTEX
  5
276
  8
0
 10
14391.82643034195
 20
5718.220592191286
 30
0.0
  0
SEQEND
  5
277
  8
0
  0
POLYLINE
  5
278
  8
0
 66
     1
 10
0.0
 20
0.0
 30
0.0
 70
     1
  0
VERTEX
  5
279
  8
0
 10
14208.08797243099
 20
5846.212447813767
 30
0.0
  0
VERTEX
  5
27A
  8
0
 10
14227.06294192208
 20
5813.346836583138
 30
0.0
  0
VERTEX
  5
27B
  8
0
 10
14285.08444236811
 20
5779.848107681823
 30
0.0
  0
VERTEX
  5
27C
  8
0
 10
14310.55955277456
 20
5787.050453318109
 30
0.0
  0
VERTEX
  5
27D
  8
0
 10
14304.0594118592
 20
5812.713718912452
 30
0.0
  0
VERTEX
  5
27E
  8
0
 10
14246.03791141316
 20
5846.212447813757
 30
0.0
  0
SEQEND
  5
27F
  8
0
  0
POLYLINE
  5
280
  8
0
 66
     1
 10
0.0
 20
0.0
 30
0.0
 70
     1
  0
VERTEX
  5
281
  8
0
 10
14313.14541897554
 20
5772.193571697463
 30
0.0
  0
VERTEX
  5
282
  8
0
 10
14320.81935403747
 20
5741.896038734342
 30
0.0
  0
VERTEX
  5
283
  8
0
 10
14361.82643034194
 20
5718.22059219129
 30
0.0
  0
VERTEX
  5
284
  8
0
 10
14314.47553725582
 20
5718.220592191296
 30
0.0
  0
VERTEX
  5
285
  8
0
 10
14293.38416792598
 20
5696.541927722341
 30
0.0
  0
VERTEX
  5
286
  8
0
 10
14279.70242126235
 20
5714.268600500792
 30
0.0
  0
VERTEX
  5
287
  8
0
 10
14257.50979897982
 20
5717.254004290417
 30
0.0
  0
VERTEX
  5
288
  8
0
 10
14265.73838846514
 20
5746.358998165143
 30
0.0
  0
VERTEX
  5
289
  8
0
 10
14242.06294192209
 20
5787.366074469597
 30
0.0
  0
VERTEX
  5
28A
  8
0
 10
14283.07001822654
 20
5763.690627926536
 30
0.0
  0
SEQEND
  5
28B
  8
0
  0
POLYLINE
  5
28C
  8
0
 66
     1
 10
0.0
 20
0.0
 30
0.0
 70
     1
  0
VERTEX
  5
28D
  8
0
 10
14242.37856307356
 20
5718.86946361712
 30
0.0
  0
VERTEX
  5
28E
  8
0
 10
14249.58090870985
 20
5744.344574023576
 30
0.0
  0
VERTEX
  5
28F
  8
0
 10
14216.08217980855
 20
5802.366074469611
 30
0.0
  0
VERTEX
  5
290
  8
0
 10
14183.21656857792
 20
5821.341043960697
 30
0.0
  0
VERTEX
  5
291
  8
0
 10
14183.21656857791
 20
5783.391104978521
 30
0.0
  0
VERTEX
  5
292
  8
0
 10
14216.71529747921
 20
5725.369604532486
 30
0.0
  0
SEQEND
  5
293
  8
0
  0
POLYLINE
  5
294
  8
0
 66
     1
 10
0.0
 20
0.0
 30
0.0
 70
     1
  0
VERTEX
  5
295
  8
0
 10
14477.04923886429
 20
5880.187417304833
 30
0.0
  0
VERTEX
  5
296
  8
0
 10
14454.6477731772
 20
5858.392828112657
 30
0.0
  0
VERTEX
  5
297
  8
0
 10
14454.6477731772
 20
5811.041935026539
 30
0.0
  0
VERTEX
  5
298
  8
0
 10
14430.97232663415
 20
5852.049011331003
 30
0.0
  0
VERTEX
  5
299
  8
0
 10
14400.95134520729
 20
5859.652899814128
 30
0.0
  0
VERTEX
  5
29A
  8
0
 10
14429.29982698694
 20
5889.661579612532
 30
0.0
  0
VERTEX
  5
29B
  8
0
 10
14407.34000151647
 20
5902.340090759265
 30
0.0
  0
VERTEX
  5
29C
  8
0
 10
14430.97232663414
 20
5908.325823278685
 30
0.0
  0
VERTEX
  5
29D
  8
0
 10
14454.64777317719
 20
5949.33289958314
 30
0.0
  0
VERTEX
  5
29E
  8
0
 10
14454.64777317719
 20
5901.982006497025
 30
0.0
  0
SEQEND
  5
29F
  8
0
  0
POLYLINE
  5
2A0
  8
0
 66
     1
 10
0.0
 20
0.0
 30
0.0
 70
     1
  0
VERTEX
  5
2A1
  8
0
 10
14324.71892277956
 20
5792.239468307593
 30
0.0
  0
VERTEX
  5
2A2
  8
0
 10
14354.79432352857
 20
5800.742412078531
 30
0.0
  0
VERTEX
  5
2A3
  8
0
 10
14395.80139983303
 20
5777.06696553546
 30
0.0
  0
VERTEX
  5
2A4
  8
0
 10
14372.12595328998
 20
5818.074041839918
 30
0.0
  0
VERTEX
  5
2A5
  8
0
 10
14380.35454277529
 20
5847.179035714639
 30
0.0
  0
VERTEX
  5
2A6
  8
0
 10
14358.16192049276
 20
5850.164439504264
 30
0.0
  0
VERTEX
  5
2A7
  8
0
 10
14344.48017382912
 20
5867.891112282716
 30
0.0
  0
VERTEX
  5
2A8
  8
0
 10
14323.38880449927
 20
5846.212447813742
 30
0.0
  0
VERTEX
  5
2A9
  8
0
 10
14276.03791141317
 20
5846.212447813748
 30
0.0
  0
VERTEX
  5
2AA
  8
0
 10
14317.04498771762
 20
5822.537001270695
 30
0.0
  0
SEQEND
  5
2AB
  8
0
  0
POLYLINE
  5
2AC
  8
0
 66
     1
 10
0.0
 20
0.0
 30
0.0
 70
     1
  0
VERTEX
  5
2AD
  8
0
 10
14365.73844751527
 20
5909.038251084873
 30
0.0
  0
VERTEX
  5
2AE
  8
0
 10
14405.35987342793
 20
5886.162810168524
 30
0.0
  0
VERTEX
  5
2AF
  8
0
 10
14382.55143308829
 20
5862.01861831467
 30
0.0
  0
VERTEX
  5
2B0
  8
0
 10
14366.2704231587
 20
5864.208778094975
 30
0.0
  0
VERTEX
  5
2B1
  8
0
 10
14356.23318418581
 20
5877.213466403117
 30
0.0
  0
SEQEND
  5
2B2
  8
0
  0
POLYLINE
  5
2B3
  8
0
 66
     1
 10
0.0
 20
0.0
 30
0.0
 70
     1
  0
VERTEX
  5
2B4
  8
0
 10
14395.48577868155
 20
5845.56357638794
 30
0.0
  0
VERTEX
  5
2B5
  8
0
 10
14421.1490442759
 20
5839.063435472585
 30
0.0
  0
VERTEX
  5
2B6
  8
0
 10
14454.64777317719
 20
5781.041935026541
 30
0.0
  0
VERTEX
  5
2B7
  8
0
 10
14454.6477731772
 20
5743.091996044369
 30
0.0
  0
VERTEX
  5
2B8
  8
0
 10
14421.78216194656
 20
5762.066965535459
 30
0.0
  0
VERTEX
  5
2B9
  8
0
 10
14388.28343304526
 20
5820.088465981499
 30
0.0
  0
SEQEND
  5
2BA
  8
0
  0
POLYLINE
  5
2BB
  8
0
 66
     1
 10
0.0
 20
0.0
 30
0.0
 70
     1
  0
VERTEX
  5
2BC
  8
0
 10
14335.51552706029
 20
5880.187417304842
 30
0.0
  0
VERTEX
  5
2BD
  8
0
 10
14317.05460710223
 20
5861.212447813747
 30
0.0
  0
VERTEX
  5
2BE
  8
0
 10
14250.05714929962
 20
5861.212447813757
 30
0.0
  0
VERTEX
  5
2BF
  8
0
 10
14217.19153806899
 20
5880.187417304836
 30
0.0
  0
VERTEX
  5
2C0
  8
0
 10
14250.05714929962
 20
5899.162386795922
 30
0.0
  0
VERTEX
  5
2C1
  8
0
 10
14317.05460710224
 20
5899.162386795928
 30
0.0
  0
SEQEND
  5
2C2
  8
0
  0
POLYLINE
  5
2C3
  8
0
 66
     1
 10
0.0
 20
0.0
 30
0.0
 70
     1
  0
VERTEX
  5
2C4
  8
0
 10
14488.62274266828
 20
5478.63596146436
 30
0.0
  0
VERTEX
  5
2C5
  8
0
 10
14469.64777317719
 20
5460.175041506314
 30
0.0
  0
VERTEX
  5
2C6
  8
0
 10
14469.64777317719
 20
5393.177583703706
 30
0.0
  0
VERTEX
  5
2C7
  8
0
 10
14488.62274266829
 20
5360.311972473045
 30
0.0
  0
VERTEX
  5
2C8
  8
0
 10
14507.59771215938
 20
5393.177583703706
 30
0.0
  0
VERTEX
  5
2C9
  8
0
 10
14507.59771215938
 20
5460.175041506314
 30
0.0
  0
SEQEND
  5
2CA
  8
0
  0
POLYLINE
  5
2CB
  8
0
 66
     1
 10
0.0
 20
0.0
 30
0.0
 70
     1
  0
VERTEX
  5
2CC
  8
0
 10
14488.62274266828
 20
5722.195561682386
 30
0.0
  0
VERTEX
  5
2CD
  8
0
 10
14469.64777317719
 20
5755.06117291301
 30
0.0
  0
VERTEX
  5
2CE
  8
0
 10
14469.6477731772
 20
5717.111233930833
 30
0.0
  0
VERTEX
  5
2CF
  8
0
 10
14436.78216194658
 20
5736.086203421919
 30
0.0
  0
VERTEX
  5
2D0
  8
0
 10
14455.75713143765
 20
5703.22059219129
 30
0.0
  0
VERTEX
  5
2D1
  8
0
 10
14417.80719245548
 20
5703.220592191281
 30
0.0
  0
VERTEX
  5
2D2
  8
0
 10
14450.67280368612
 20
5684.245622700195
 30
0.0
  0
VERTEX
  5
2D3
  8
0
 10
14417.80719245548
 20
5665.270653209109
 30
0.0
  0
VERTEX
  5
2D4
  8
0
 10
14455.75713143765
 20
5665.2706532091
 30
0.0
  0
VERTEX
  5
2D5
  8
0
 10
14436.78216194658
 20
5632.405041978471
 30
0.0
  0
VERTEX
  5
2D6
  8
0
 10
14469.6477731772
 20
5651.380011469557
 30
0.0
  0
VERTEX
  5
2D7
  8
0
 10
14469.64777317719
 20
5613.430072487381
 30
0.0
  0
VERTEX
  5
2D8
  8
0
 10
14488.62274266829
 20
5646.295683718004
 30
0.0
  0
VERTEX
  5
2D9
  8
0
 10
14507.59771215938
 20
5613.430072487381
 30
0.0
  0
VERTEX
  5
2DA
  8
0
 10
14507.59771215936
 20
5651.380011469557
 30
0.0
  0
VERTEX
  5
2DB
  8
0
 10
14540.46332339
 20
5632.405041978471
 30
0.0
  0
VERTEX
  5
2DC
  8
0
 10
14521.48835389892
 20
5665.2706532091
 30
0.0
  0
VERTEX
  5
2DD
  8
0
 10
14559.43829288108
 20
5665.270653209109
 30
0.0
  0
VERTEX
  5
2DE
  8
0
 10
14526.57268165046
 20
5684.245622700195
 30
0.0
  0
VERTEX
  5
2DF
  8
0
 10
14559.43829288108
 20
5703.220592191281
 30
0.0
  0
VERTEX
  5
2E0
  8
0
 10
14521.48835389892
 20
5703.22059219129
 30
0.0
  0
VERTEX
  5
2E1
  8
0
 10
14540.46332339
 20
5736.086203421919
 30
0.0
  0
VERTEX
  5
2E2
  8
0
 10
14507.59771215936
 20
5717.111233930833
 30
0.0
  0
VERTEX
  5
2E3
  8
0
 10
14507.59771215938
 20
5755.06117291301
 30
0.0
  0
SEQEND
  5
2E4
  8
0
  0
POLYLINE
  5
2E5
  8
0
 66
     1
 10
0.0
 20
0.0
 30
0.0
 70
     1
  0
VERTEX
  5
2E6
  8
0
 10
14488.62274266828
 20
5616.29568371801
 30
0.0
  0
VERTEX
  5
2E7
  8
0
 10
14469.6477731772
 20
5583.430072487386
 30
0.0
  0
VERTEX
  5
2E8
  8
0
 10
14469.6477731772
 20
5516.432614684767
 30
0.0
  0
VERTEX
  5
2E9
  8
0
 10
14488.62274266829
 20
5497.971694726694
 30
0.0
  0
VERTEX
  5
2EA
  8
0
 10
14507.59771215937
 20
5516.432614684767
 30
0.0
  0
VERTEX
  5
2EB
  8
0
 10
14507.59771215937
 20
5583.430072487386
 30
0.0
  0
SEQEND
  5
2EC
  8
0
  0
POLYLINE
  5
2ED
  8
0
 66
     1
 10
0.0
 20
0.0
 30
0.0
 70
     1
  0
VERTEX
  5
2EE
  8
0
 10
14674.89667064176
 20
5684.24562270018
 30
0.0
  0
VERTEX
  5
2EF
  8
0
 10
14656.43575068371
 20
5665.270653209094
 30
0.0
  0
VERTEX
  5
2F0
  8
0
 10
14589.4382928811
 20
5665.2706532091
 30
0.0
  0
VERTEX
  5
2F1
  8
0
 10
14556.57268165046
 20
5684.245622700195
 30
0.0
  0
VERTEX
  5
2F2
  8
0
 10
14589.4382928811
 20
5703.22059219129
 30
0.0
  0
VERTEX
  5
2F3
  8
0
 10
14656.43575068371
 20
5703.220592191295
 30
0.0
  0
SEQEND
  5
2F4
  8
0
  0
POLYLINE
  5
2F5
  8
0
 66
     1
 10
0.0
 20
0.0
 30
0.0
 70
     1
  0
VERTEX
  5
2F6
  8
0
 10
14302.34881469481
 20
5684.24562270018
 30
0.0
  0
VERTEX
  5
2F7
  8
0
 10
14320.80973465286
 20
5665.270653209094
 30
0.0
  0
VERTEX
  5
2F8
  8
0
 10
14387.80719245547
 20
5665.2706532091
 30
0.0
  0
VERTEX
  5
2F9
  8
0
 10
14420.67280368611
 20
5684.245622700195
 30
0.0
  0
VERTEX
  5
2FA
  8
0
 10
14387.80719245547
 20
5703.22059219129
 30
0.0
  0
VERTEX
  5
2FB
  8
0
 10
14320.80973465286
 20
5703.220592191295
 30
0.0
  0
SEQEND
  5
2FC
  8
0
  0
POLYLINE
  5
2FD
  8
0
 66
     1
 10
0.0
 20
0.0
 30
0.0
 70
     1
  0
VERTEX
  5
2FE
  8
0
 10
14488.62274266828
 20
5752.195561682381
 30
0.0
  0
VERTEX
  5
2FF
  8
0
 10
14469.6477731772
 20
5785.061172913004
 30
0.0
  0
VERTEX
  5
300
  8
0
 10
14469.6477731772
 20
5852.058630715623
 30
0.0
  0
VERTEX
  5
301
  8
0
 10
14488.62274266829
 20
5870.519550673695
 30
0.0
  0
VERTEX
  5
302
  8
0
 10
14507.59771215937
 20
5852.058630715623
 30
0.0
  0
VERTEX
  5
303
  8
0
 10
14507.59771215937
 20
5785.061172913004
 30
0.0
  0
SEQEND
  5
304
  8
0
  0
POLYLINE
  5
305
  8
0
 66
     1
 10
0.0
 20
0.0
 30
0.0
 70
     1
  0
VERTEX
  5
306
  8
0
 10
14739.09620634593
 20
5684.24562270017
 30
0.0
  0
VERTEX
  5
307
  8
0
 10
14721.93257666975
 20
5666.076823710004
 30
0.0
  0
VERTEX
  5
308
  8
0
 10
14705.65156674017
 20
5668.266983490309
 30
0.0
  0
VERTEX
  5
309
  8
0
 10
14695.61432776728
 20
5681.271671798451
 30
0.0
  0
VERTEX
  5
30A
  8
0
 10
14696.50257215707
 20
5684.245622700195
 30
0.0
  0
VERTEX
  5
30B
  8
0
 10
14695.61432776728
 20
5687.219573601938
 30
0.0
  0
VERTEX
  5
30C
  8
0
 10
14705.65156674017
 20
5700.224261910081
 30
0.0
  0
VERTEX
  5
30D
  8
0
 10
14721.93257666975
 20
5702.414421690386
 30
0.0
  0
SEQEND
  5
30E
  8
0
  0
POLYLINE
  5
30F
  8
0
 66
     1
 10
0.0
 20
0.0
 30
0.0
 70
     1
  0
VERTEX
  5
310
  8
0
 10
14816.43038244574
 20
5684.245622700224
 30
0.0
  0
VERTEX
  5
311
  8
0
 10
14794.02891675866
 20
5706.040211892393
 30
0.0
  0
VERTEX
  5
312
  8
0
 10
14794.02891675866
 20
5753.391104978527
 30
0.0
  0
VERTEX
  5
313
  8
0
 10
14770.3534702156
 20
5712.384028674062
 30
0.0
  0
VERTEX
  5
314
  8
0
 10
14740.33248878875
 20
5704.780140190933
 30
0.0
  0
VERTEX
  5
315
  8
0
 10
14759.7309561272
 20
5684.245622700195
 30
0.0
  0
VERTEX
  5
316
  8
0
 10
14740.33248878875
 20
5663.711105209457
 30
0.0
  0
VERTEX
  5
317
  8
0
 10
14770.3534702156
 20
5656.107216726327
 30
0.0
  0
VERTEX
  5
318
  8
0
 10
14794.02891675866
 20
5615.100140421863
 30
0.0
  0
VERTEX
  5
319
  8
0
 10
14794.02891675866
 20
5662.451033507997
 30
0.0
  0
SEQEND
  5
31A
  8
0
  0
POLYLINE
  5
31B
  8
0
 66
     1
 10
0.0
 20
0.0
 30
0.0
 70
     1
  0
VERTEX
  5
31C
  8
0
 10
14238.14927899064
 20
5684.24562270017
 30
0.0
  0
VERTEX
  5
31D
  8
0
 10
14255.31290866682
 20
5666.076823710004
 30
0.0
  0
VERTEX
  5
31E
  8
0
 10
14271.59391859641
 20
5668.266983490309
 30
0.0
  0
VERTEX
  5
31F
  8
0
 10
14281.63115756929
 20
5681.271671798451
 30
0.0
  0
VERTEX
  5
320
  8
0
 10
14280.7429131795
 20
5684.245622700195
 30
0.0
  0
VERTEX
  5
321
  8
0
 10
14281.63115756929
 20
5687.219573601938
 30
0.0
  0
VERTEX
  5
322
  8
0
 10
14271.59391859641
 20
5700.224261910081
 30
0.0
  0
VERTEX
  5
323
  8
0
 10
14255.31290866682
 20
5702.414421690386
 30
0.0
  0
SEQEND
  5
324
  8
0
  0
POLYLINE
  5
325
  8
0
 66
     1
 10
0.0
 20
0.0
 30
0.0
 70
     1
  0
VERTEX
  5
326
  8
0
 10
14160.81510289083
 20
5684.245622700224
 30
0.0
  0
VERTEX
  5
327
  8
0
 10
14183.21656857792
 20
5706.040211892393
 30
0.0
  0
VERTEX
  5
328
  8
0
 10
14183.21656857791
 20
5753.391104978527
 30
0.0
  0
VERTEX
  5
329
  8
0
 10
14206.89201512097
 20
5712.384028674062
 30
0.0
  0
VERTEX
  5
32A
  8
0
 10
14236.91299654782
 20
5704.780140190933
 30
0.0
  0
VERTEX
  5
32B
  8
0
 10
14217.51452920938
 20
5684.245622700195
 30
0.0
  0
VERTEX
  5
32C
  8
0
 10
14236.91299654782
 20
5663.711105209457
 30
0.0
  0
VERTEX
  5
32D
  8
0
 10
14206.89201512097
 20
5656.107216726327
 30
0.0
  0
VERTEX
  5
32E
  8
0
 10
14183.21656857791
 20
5615.100140421863
 30
0.0
  0
VERTEX
  5
32F
  8
0
 10
14183.21656857792
 20
5662.451033507997
 30
0.0
  0
SEQEND
  5
330
  8
0
  0
POLYLINE
  5
331
  8
0
 66
     1
 10
0.0
 20
0.0
 30
0.0
 70
     1
  0
VERTEX
  5
332
  8
0
 10
14769.15751290559
 20
5130.395208377364
 30
0.0
  0
VERTEX
  5
333
  8
0
 10
14750.18254341451
 20
5163.260819607992
 30
0.0
  0
VERTEX
  5
334
  8
0
 10
14692.16104296847
 20
5196.759548509308
 30
0.0
  0
VERTEX
  5
335
  8
0
 10
14666.68593256201
 20
5189.557202873006
 30
0.0
  0
VERTEX
  5
336
  8
0
 10
14673.18607347737
 20
5163.893937278654
 30
0.0
  0
VERTEX
  5
337
  8
0
 10
14731.20757392341
 20
5130.395208377355
 30
0.0
  0
SEQEND
  5
338
  8
0
  0
POLYLINE
  5
339
  8
0
 66
     1
 10
0.0
 20
0.0
 30
0.0
 70
     1
  0
VERTEX
  5
33A
  8
0
 10
14795.13827501912
 20
5077.445269395183
 30
0.0
  0
VERTEX
  5
33B
  8
0
 10
14757.18833603696
 20
5077.445269395183
 30
0.0
  0
VERTEX
  5
33C
  8
0
 10
14790.05394726758
 20
5096.420238886269
 30
0.0
  0
VERTEX
  5
33D
  8
0
 10
14757.18833603694
 20
5115.395208377354
 30
0.0
  0
VERTEX
  5
33E
  8
0
 10
14795.13827501913
 20
5115.395208377359
 30
0.0
  0
VERTEX
  5
33F
  8
0
 10
14776.16330552803
 20
5148.260819607998
 30
0.0
  0
VERTEX
  5
340
  8
0
 10
14809.02891675867
 20
5129.285850116902
 30
0.0
  0
VERTEX
  5
341
  8
0
 10
14809.02891675867
 20
5167.235789099069
 30
0.0
  0
VERTEX
  5
342
  8
0
 10
14828.00388624974
 20
5134.370177868455
 30
0.0
  0
VERTEX
  5
343
  8
0
 10
14846.97885574081
 20
5167.235789099069
 30
0.0
  0
VERTEX
  5
344
  8
0
 10
14846.97885574081
 20
5129.285850116902
 30
0.0
  0
VERTEX
  5
345
  8
0
 10
14879.84446697145
 20
5148.260819607998
 30
0.0
  0
VERTEX
  5
346
  8
0
 10
14860.86949748036
 20
5115.395208377359
 30
0.0
  0
VERTEX
  5
347
  8
0
 10
14898.81943646254
 20
5115.395208377357
 30
0.0
  0
VERTEX
  5
348
  8
0
 10
14865.9538252319
 20
5096.420238886267
 30
0.0
  0
VERTEX
  5
349
  8
0
 10
14898.81943646252
 20
5077.445269395184
 30
0.0
  0
VERTEX
  5
34A
  8
0
 10
14860.86949748037
 20
5077.445269395195
 30
0.0
  0
VERTEX
  5
34B
  8
0
 10
14879.84446697145
 20
5044.579658164586
 30
0.0
  0
VERTEX
  5
34C
  8
0
 10
14846.97885574082
 20
5063.554627655667
 30
0.0
  0
VERTEX
  5
34D
  8
0
 10
14846.97885574082
 20
5025.604688673486
 30
0.0
  0
VERTEX
  5
34E
  8
0
 10
14828.00388624974
 20
5058.470299904122
 30
0.0
  0
VERTEX
  5
34F
  8
0
 10
14809.02891675865
 20
5025.604688673478
 30
0.0
  0
VERTEX
  5
350
  8
0
 10
14809.02891675865
 20
5063.554627655663
 30
0.0
  0
VERTEX
  5
351
  8
0
 10
14776.16330552803
 20
5044.579658164579
 30
0.0
  0
SEQEND
  5
352
  8
0
  0
POLYLINE
  5
353
  8
0
 66
     1
 10
0.0
 20
0.0
 30
0.0
 70
     1
  0
VERTEX
  5
354
  8
0
 10
14649.94069635602
 20
5199.225069504181
 30
0.0
  0
VERTEX
  5
355
  8
0
 10
14643.44055544066
 20
5224.888335098522
 30
0.0
  0
VERTEX
  5
356
  8
0
 10
14585.41905499462
 20
5258.387063999823
 30
0.0
  0
VERTEX
  5
357
  8
0
 10
14547.46911601245
 20
5258.387063999826
 30
0.0
  0
VERTEX
  5
358
  8
0
 10
14566.44408550354
 20
5225.521452769197
 30
0.0
  0
VERTEX
  5
359
  8
0
 10
14624.46558594958
 20
5192.022723867887
 30
0.0
  0
SEQEND
  5
35A
  8
0
  0
POLYLINE
  5
35B
  8
0
 66
     1
 10
0.0
 20
0.0
 30
0.0
 70
     1
  0
VERTEX
  5
35C
  8
0
 10
14828.00388624974
 20
5164.370177868446
 30
0.0
  0
VERTEX
  5
35D
  8
0
 10
14846.97885574082
 20
5197.235789099077
 30
0.0
  0
VERTEX
  5
35E
  8
0
 10
14846.97885574083
 20
5264.233246901692
 30
0.0
  0
VERTEX
  5
35F
  8
0
 10
14828.00388624974
 20
5282.694166859746
 30
0.0
  0
VERTEX
  5
360
  8
0
 10
14809.02891675866
 20
5264.233246901692
 30
0.0
  0
VERTEX
  5
361
  8
0
 10
14809.02891675866
 20
5197.235789099077
 30
0.0
  0
SEQEND
  5
362
  8
0
  0
POLYLINE
  5
363
  8
0
 66
     1
 10
0.0
 20
0.0
 30
0.0
 70
     1
  0
VERTEX
  5
364
  8
0
 10
14500.19624647228
 20
5096.420238886259
 30
0.0
  0
VERTEX
  5
365
  8
0
 10
14522.59771215937
 20
5074.625649694084
 30
0.0
  0
VERTEX
  5
366
  8
0
 10
14522.59771215937
 20
5027.274756607967
 30
0.0
  0
VERTEX
  5
367
  8
0
 10
14546.27315870243
 20
5068.281832912431
 30
0.0
  0
VERTEX
  5
368
  8
0
 10
14576.29414012929
 20
5075.885721395554
 30
0.0
  0
VERTEX
  5
369
  8
0
 10
14547.94565834963
 20
5105.894401193958
 30
0.0
  0
VERTEX
  5
36A
  8
0
 10
14569.9054838201
 20
5118.572912340692
 30
0.0
  0
VERTEX
  5
36B
  8
0
 10
14546.27315870244
 20
5124.558644860112
 30
0.0
  0
VERTEX
  5
36C
  8
0
 10
14522.59771215938
 20
5165.565721164567
 30
0.0
  0
VERTEX
  5
36D
  8
0
 10
14522.59771215938
 20
5118.214828078453
 30
0.0
  0
SEQEND
  5
36E
  8
0
  0
POLYLINE
  5
36F
  8
0
 66
     1
 10
0.0
 20
0.0
 30
0.0
 70
     1
  0
VERTEX
  5
370
  8
0
 10
14632.26102952994
 20
5108.198220056714
 30
0.0
  0
VERTEX
  5
371
  8
0
 10
14620.4469913803
 20
5147.753065335828
 30
0.0
  0
VERTEX
  5
372
  8
0
 10
14598.48716590985
 20
5135.074554189095
 30
0.0
  0
VERTEX
  5
373
  8
0
 10
14605.11953204661
 20
5158.533614351207
 30
0.0
  0
VERTEX
  5
374
  8
0
 10
14581.44408550355
 20
5199.540690655656
 30
0.0
  0
VERTEX
  5
375
  8
0
 10
14622.451161808
 20
5175.865244112594
 30
0.0
  0
VERTEX
  5
376
  8
0
 10
14652.52656255702
 20
5184.368187883523
 30
0.0
  0
VERTEX
  5
377
  8
0
 10
14660.20049761894
 20
5154.070654920411
 30
0.0
  0
VERTEX
  5
378
  8
0
 10
14701.20757392342
 20
5130.395208377355
 30
0.0
  0
VERTEX
  5
379
  8
0
 10
14653.85668083729
 20
5130.395208377355
 30
0.0
  0
SEQEND
  5
37A
  8
0
  0
POLYLINE
  5
37B
  8
0
 66
     1
 10
0.0
 20
0.0
 30
0.0
 70
     1
  0
VERTEX
  5
37C
  8
0
 10
14611.50703782129
 20
5125.271072666301
 30
0.0
  0
VERTEX
  5
37D
  8
0
 10
14571.88561190865
 20
5102.395631749951
 30
0.0
  0
VERTEX
  5
37E
  8
0
 10
14594.69405224829
 20
5078.251439896098
 30
0.0
  0
VERTEX
  5
37F
  8
0
 10
14610.97506217788
 20
5080.441599676401
 30
0.0
  0
VERTEX
  5
380
  8
0
 10
14621.01230115076
 20
5093.446287984545
 30
0.0
  0
SEQEND
  5
381
  8
0
  0
POLYLINE
  5
382
  8
0
 66
     1
 10
0.0
 20
0.0
 30
0.0
 70
     1
  0
VERTEX
  5
383
  8
0
 10
14641.72995827628
 20
5096.420238886269
 30
0.0
  0
VERTEX
  5
384
  8
0
 10
14660.19087823434
 20
5077.445269395173
 30
0.0
  0
VERTEX
  5
385
  8
0
 10
14727.18833603695
 20
5077.445269395183
 30
0.0
  0
VERTEX
  5
386
  8
0
 10
14760.05394726758
 20
5096.420238886264
 30
0.0
  0
VERTEX
  5
387
  8
0
 10
14727.18833603696
 20
5115.395208377349
 30
0.0
  0
VERTEX
  5
388
  8
0
 10
14660.19087823433
 20
5115.395208377354
 30
0.0
  0
SEQEND
  5
389
  8
0
  0
POLYLINE
  5
38A
  8
0
 66
     1
 10
0.0
 20
0.0
 30
0.0
 70
     1
  0
VERTEX
  5
38B
  8
0
 10
14581.75970665502
 20
5131.044079803176
 30
0.0
  0
VERTEX
  5
38C
  8
0
 10
14588.96205229132
 20
5156.519190209626
 30
0.0
  0
VERTEX
  5
38D
  8
0
 10
14555.46332339001
 20
5214.540690655661
 30
0.0
  0
VERTEX
  5
38E
  8
0
 10
14522.59771215938
 20
5233.515660146747
 30
0.0
  0
VERTEX
  5
38F
  8
0
 10
14522.59771215938
 20
5195.565721164575
 30
0.0
  0
VERTEX
  5
390
  8
0
 10
14556.09644106068
 20
5137.544220718534
 30
0.0
  0
SEQEND
  5
391
  8
0
  0
POLYLINE
  5
392
  8
0
 66
     1
 10
0.0
 20
0.0
 30
0.0
 70
     1
  0
VERTEX
  5
393
  8
0
 10
14719.93242699094
 20
5260.049534829741
 30
0.0
  0
VERTEX
  5
394
  8
0
 10
14679.76990706165
 20
5250.50336934905
 30
0.0
  0
VERTEX
  5
395
  8
0
 10
14679.76990706165
 20
5275.860391642503
 30
0.0
  0
VERTEX
  5
396
  8
0
 10
14662.76994808074
 20
5258.387063999818
 30
0.0
  0
VERTEX
  5
397
  8
0
 10
14615.41905499463
 20
5258.38706399982
 30
0.0
  0
VERTEX
  5
398
  8
0
 10
14656.42613129909
 20
5234.711617456767
 30
0.0
  0
VERTEX
  5
399
  8
0
 10
14664.10006636102
 20
5204.414084493656
 30
0.0
  0
VERTEX
  5
39A
  8
0
 10
14694.17546711004
 20
5212.917028264595
 30
0.0
  0
VERTEX
  5
39B
  8
0
 10
14735.1825434145
 20
5189.241581721522
 30
0.0
  0
VERTEX
  5
39C
  8
0
 10
14711.50709687144
 20
5230.248658025987
 30
0.0
  0
SEQEND
  5
39D
  8
0
  0
POLYLINE
  5
39E
  8
0
 66
     1
 10
0.0
 20
0.0
 30
0.0
 70
     1
  0
VERTEX
  5
39F
  8
0
 10
14734.86692226302
 20
5257.738192574009
 30
0.0
  0
VERTEX
  5
3A0
  8
0
 10
14760.53018785737
 20
5251.238051658649
 30
0.0
  0
VERTEX
  5
3A1
  8
0
 10
14794.02891675867
 20
5193.21655121261
 30
0.0
  0
VERTEX
  5
3A2
  8
0
 10
14794.02891675867
 20
5155.266612230438
 30
0.0
  0
VERTEX
  5
3A3
  8
0
 10
14761.16330552804
 20
5174.241581721524
 30
0.0
  0
VERTEX
  5
3A4
  8
0
 10
14727.66457662673
 20
5232.263082167559
 30
0.0
  0
SEQEND
  5
3A5
  8
0
  0
POLYLINE
  5
3A6
  8
0
 66
     1
 10
0.0
 20
0.0
 30
0.0
 70
     1
  0
VERTEX
  5
3A7
  8
0
 10
14208.08797243098
 20
5130.395208377364
 30
0.0
  0
VERTEX
  5
3A8
  8
0
 10
14227.06294192207
 20
5163.260819607992
 30
0.0
  0
VERTEX
  5
3A9
  8
0
 10
14285.0844423681
 20
5196.759548509308
 30
0.0
  0
VERTEX
  5
3AA
  8
0
 10
14310.55955277456
 20
5189.557202873006
 30
0.0
  0
VERTEX
  5
3AB
  8
0
 10
14304.0594118592
 20
5163.893937278654
 30
0.0
  0
VERTEX
  5
3AC
  8
0
 10
14246.03791141316
 20
5130.395208377355
 30
0.0
  0
SEQEND
  5
3AD
  8
0
  0
POLYLINE
  5
3AE
  8
0
 66
     1
 10
0.0
 20
0.0
 30
0.0
 70
     1
  0
VERTEX
  5
3AF
  8
0
 10
14182.10721031746
 20
5077.445269395183
 30
0.0
  0
VERTEX
  5
3B0
  8
0
 10
14220.05714929962
 20
5077.445269395183
 30
0.0
  0
VERTEX
  5
3B1
  8
0
 10
14187.19153806899
 20
5096.420238886269
 30
0.0
  0
VERTEX
  5
3B2
  8
0
 10
14220.05714929963
 20
5115.395208377354
 30
0.0
  0
VERTEX
  5
3B3
  8
0
 10
14182.10721031745
 20
5115.395208377359
 30
0.0
  0
VERTEX
  5
3B4
  8
0
 10
14201.08217980854
 20
5148.260819607998
 30
0.0
  0
VERTEX
  5
3B5
  8
0
 10
14168.2165685779
 20
5129.285850116902
 30
0.0
  0
VERTEX
  5
3B6
  8
0
 10
14168.2165685779
 20
5167.235789099069
 30
0.0
  0
VERTEX
  5
3B7
  8
0
 10
14149.24159908683
 20
5134.370177868455
 30
0.0
  0
VERTEX
  5
3B8
  8
0
 10
14130.26662959576
 20
5167.235789099069
 30
0.0
  0
VERTEX
  5
3B9
  8
0
 10
14130.26662959576
 20
5129.285850116902
 30
0.0
  0
VERTEX
  5
3BA
  8
0
 10
14097.40101836512
 20
5148.260819607998
 30
0.0
  0
VERTEX
  5
3BB
  8
0
 10
14116.37598785621
 20
5115.395208377359
 30
0.0
  0
VERTEX
  5
3BC
  8
0
 10
14078.42604887403
 20
5115.395208377357
 30
0.0
  0
VERTEX
  5
3BD
  8
0
 10
14111.29166010468
 20
5096.420238886267
 30
0.0
  0
VERTEX
  5
3BE
  8
0
 10
14078.42604887405
 20
5077.445269395184
 30
0.0
  0
VERTEX
  5
3BF
  8
0
 10
14116.3759878562
 20
5077.445269395195
 30
0.0
  0
VERTEX
  5
3C0
  8
0
 10
14097.40101836512
 20
5044.579658164586
 30
0.0
  0
VERTEX
  5
3C1
  8
0
 10
14130.26662959575
 20
5063.554627655667
 30
0.0
  0
VERTEX
  5
3C2
  8
0
 10
14130.26662959575
 20
5025.604688673486
 30
0.0
  0
VERTEX
  5
3C3
  8
0
 10
14149.24159908683
 20
5058.470299904122
 30
0.0
  0
VERTEX
  5
3C4
  8
0
 10
14168.21656857792
 20
5025.604688673478
 30
0.0
  0
VERTEX
  5
3C5
  8
0
 10
14168.21656857792
 20
5063.554627655663
 30
0.0
  0
VERTEX
  5
3C6
  8
0
 10
14201.08217980854
 20
5044.579658164579
 30
0.0
  0
SEQEND
  5
3C7
  8
0
  0
POLYLINE
  5
3C8
  8
0
 66
     1
 10
0.0
 20
0.0
 30
0.0
 70
     1
  0
VERTEX
  5
3C9
  8
0
 10
14327.30478898055
 20
5199.225069504181
 30
0.0
  0
VERTEX
  5
3CA
  8
0
 10
14333.80492989591
 20
5224.888335098522
 30
0.0
  0
VERTEX
  5
3CB
  8
0
 10
14391.82643034195
 20
5258.387063999823
 30
0.0
  0
VERTEX
  5
3CC
  8
0
 10
14429.77636932412
 20
5258.387063999826
 30
0.0
  0
VERTEX
  5
3CD
  8
0
 10
14410.80139983303
 20
5225.521452769197
 30
0.0
  0
VERTEX
  5
3CE
  8
0
 10
14352.779899387
 20
5192.022723867887
 30
0.0
  0
SEQEND
  5
3CF
  8
0
  0
POLYLINE
  5
3D0
  8
0
 66
     1
 10
0.0
 20
0.0
 30
0.0
 70
     1
  0
VERTEX
  5
3D1
  8
0
 10
14149.24159908683
 20
5164.370177868446
 30
0.0
  0
VERTEX
  5
3D2
  8
0
 10
14130.26662959575
 20
5197.235789099077
 30
0.0
  0
VERTEX
  5
3D3
  8
0
 10
14130.26662959574
 20
5264.233246901692
 30
0.0
  0
VERTEX
  5
3D4
  8
0
 10
14149.24159908683
 20
5282.694166859746
 30
0.0
  0
VERTEX
  5
3D5
  8
0
 10
14168.21656857792
 20
5264.233246901692
 30
0.0
  0
VERTEX
  5
3D6
  8
0
 10
14168.21656857791
 20
5197.235789099077
 30
0.0
  0
SEQEND
  5
3D7
  8
0
  0
POLYLINE
  5
3D8
  8
0
 66
     1
 10
0.0
 20
0.0
 30
0.0
 70
     1
  0
VERTEX
  5
3D9
  8
0
 10
14477.04923886429
 20
5096.420238886259
 30
0.0
  0
VERTEX
  5
3DA
  8
0
 10
14454.6477731772
 20
5074.625649694084
 30
0.0
  0
VERTEX
  5
3DB
  8
0
 10
14454.6477731772
 20
5027.274756607967
 30
0.0
  0
VERTEX
  5
3DC
  8
0
 10
14430.97232663415
 20
5068.281832912431
 30
0.0
  0
VERTEX
  5
3DD
  8
0
 10
14400.95134520729
 20
5075.885721395554
 30
0.0
  0
VERTEX
  5
3DE
  8
0
 10
14429.29982698694
 20
5105.894401193958
 30
0.0
  0
VERTEX
  5
3DF
  8
0
 10
14407.34000151647
 20
5118.572912340692
 30
0.0
  0
VERTEX
  5
3E0
  8
0
 10
14430.97232663414
 20
5124.558644860112
 30
0.0
  0
VERTEX
  5
3E1
  8
0
 10
14454.64777317719
 20
5165.565721164567
 30
0.0
  0
VERTEX
  5
3E2
  8
0
 10
14454.64777317719
 20
5118.214828078453
 30
0.0
  0
SEQEND
  5
3E3
  8
0
  0
POLYLINE
  5
3E4
  8
0
 66
     1
 10
0.0
 20
0.0
 30
0.0
 70
     1
  0
VERTEX
  5
3E5
  8
0
 10
14344.98445580663
 20
5108.198220056714
 30
0.0
  0
VERTEX
  5
3E6
  8
0
 10
14356.79849395627
 20
5147.753065335828
 30
0.0
  0
VERTEX
  5
3E7
  8
0
 10
14378.75831942673
 20
5135.074554189095
 30
0.0
  0
VERTEX
  5
3E8
  8
0
 10
14372.12595328997
 20
5158.533614351207
 30
0.0
  0
VERTEX
  5
3E9
  8
0
 10
14395.80139983303
 20
5199.540690655656
 30
0.0
  0
VERTEX
  5
3EA
  8
0
 10
14354.79432352857
 20
5175.865244112594
 30
0.0
  0
VERTEX
  5
3EB
  8
0
 10
14324.71892277955
 20
5184.368187883523
 30
0.0
  0
VERTEX
  5
3EC
  8
0
 10
14317.04498771763
 20
5154.070654920411
 30
0.0
  0
VERTEX
  5
3ED
  8
0
 10
14276.03791141316
 20
5130.395208377355
 30
0.0
  0
VERTEX
  5
3EE
  8
0
 10
14323.38880449927
 20
5130.395208377355
 30
0.0
  0
SEQEND
  5
3EF
  8
0
  0
POLYLINE
  5
3F0
  8
0
 66
     1
 10
0.0
 20
0.0
 30
0.0
 70
     1
  0
VERTEX
  5
3F1
  8
0
 10
14365.73844751527
 20
5125.271072666301
 30
0.0
  0
VERTEX
  5
3F2
  8
0
 10
14405.35987342793
 20
5102.395631749951
 30
0.0
  0
VERTEX
  5
3F3
  8
0
 10
14382.55143308829
 20
5078.251439896098
 30
0.0
  0
VERTEX
  5
3F4
  8
0
 10
14366.2704231587
 20
5080.441599676401
 30
0.0
  0
VERTEX
  5
3F5
  8
0
 10
14356.23318418581
 20
5093.446287984545
 30
0.0
  0
SEQEND
  5
3F6
  8
0
  0
POLYLINE
  5
3F7
  8
0
 66
     1
 10
0.0
 20
0.0
 30
0.0
 70
     1
  0
VERTEX
  5
3F8
  8
0
 10
14335.51552706029
 20
5096.420238886269
 30
0.0
  0
VERTEX
  5
3F9
  8
0
 10
14317.05460710223
 20
5077.445269395173
 30
0.0
  0
VERTEX
  5
3FA
  8
0
 10
14250.05714929962
 20
5077.445269395183
 30
0.0
  0
VERTEX
  5
3FB
  8
0
 10
14217.19153806899
 20
5096.420238886264
 30
0.0
  0
VERTEX
  5
3FC
  8
0
 10
14250.05714929962
 20
5115.395208377349
 30
0.0
  0
VERTEX
  5
3FD
  8
0
 10
14317.05460710224
 20
5115.395208377354
 30
0.0
  0
SEQEND
  5
3FE
  8
0
  0
POLYLINE
  5
3FF
  8
0
 66
     1
 10
0.0
 20
0.0
 30
0.0
 70
     1
  0
VERTEX
  5
400
  8
0
 10
14395.48577868155
 20
5131.044079803176
 30
0.0
  0
VERTEX
  5
401
  8
0
 10
14388.28343304525
 20
5156.519190209626
 30
0.0
  0
VERTEX
  5
402
  8
0
 10
14421.78216194656
 20
5214.540690655661
 30
0.0
  0
VERTEX
  5
403
  8
0
 10
14454.6477731772
 20
5233.515660146747
 30
0.0
  0
VERTEX
  5
404
  8
0
 10
14454.6477731772
 20
5195.565721164575
 30
0.0
  0
VERTEX
  5
405
  8
0
 10
14421.14904427589
 20
5137.544220718534
 30
0.0
  0
SEQEND
  5
406
  8
0
  0
POLYLINE
  5
407
  8
0
 66
     1
 10
0.0
 20
0.0
 30
0.0
 70
     1
  0
VERTEX
  5
408
  8
0
 10
14257.31305834563
 20
5260.049534829741
 30
0.0
  0
VERTEX
  5
409
  8
0
 10
14297.47557827492
 20
5250.50336934905
 30
0.0
  0
VERTEX
  5
40A
  8
0
 10
14297.47557827492
 20
5275.860391642503
 30
0.0
  0
VERTEX
  5
40B
  8
0
 10
14314.47553725583
 20
5258.387063999818
 30
0.0
  0
VERTEX
  5
40C
  8
0
 10
14361.82643034194
 20
5258.38706399982
 30
0.0
  0
VERTEX
  5
40D
  8
0
 10
14320.81935403748
 20
5234.711617456767
 30
0.0
  0
VERTEX
  5
40E
  8
0
 10
14313.14541897554
 20
5204.414084493656
 30
0.0
  0
VERTEX
  5
40F
  8
0
 10
14283.07001822654
 20
5212.917028264595
 30
0.0
  0
VERTEX
  5
410
  8
0
 10
14242.06294192207
 20
5189.241581721522
 30
0.0
  0
VERTEX
  5
411
  8
0
 10
14265.73838846513
 20
5230.248658025987
 30
0.0
  0
SEQEND
  5
412
  8
0
  0
POLYLINE
  5
413
  8
0
 66
     1
 10
0.0
 20
0.0
 30
0.0
 70
     1
  0
VERTEX
  5
414
  8
0
 10
14242.37856307356
 20
5257.738192574009
 30
0.0
  0
VERTEX
  5
415
  8
0
 10
14216.71529747921
 20
5251.238051658649
 30
0.0
  0
VERTEX
  5
416
  8
0
 10
14183.2165685779
 20
5193.21655121261
 30
0.0
  0
VERTEX
  5
417
  8
0
 10
14183.2165685779
 20
5155.266612230438
 30
0.0
  0
VERTEX
  5
418
  8
0
 10
14216.08217980853
 20
5174.241581721524
 30
0.0
  0
VERTEX
  5
419
  8
0
 10
14249.58090870984
 20
5232.263082167559
 30
0.0
  0
SEQEND
  5
41A
  8
0
  0
POLYLINE
  5
41B
  8
0
 66
     1
 10
0.0
 20
0.0
 30
0.0
 70
     1
  0
VERTEX
  5
41C
  8
0
 10
14488.62274266828
 20
5106.088105517458
 30
0.0
  0
VERTEX
  5
41D
  8
0
 10
14469.64777317719
 20
5124.549025475502
 30
0.0
  0
VERTEX
  5
41E
  8
0
 10
14469.64777317719
 20
5191.546483278112
 30
0.0
  0
VERTEX
  5
41F
  8
0
 10
14488.62274266829
 20
5224.412094508772
 30
0.0
  0
VERTEX
  5
420
  8
0
 10
14507.59771215938
 20
5191.546483278112
 30
0.0
  0
VERTEX
  5
421
  8
0
 10
14507.59771215938
 20
5124.549025475502
 30
0.0
  0
SEQEND
  5
422
  8
0
  0
POLYLINE
  5
423
  8
0
 66
     1
 10
0.0
 20
0.0
 30
0.0
 70
     1
  0
VERTEX
  5
424
  8
0
 10
14733.32738168746
 20
5292.362033490911
 30
0.0
  0
VERTEX
  5
425
  8
0
 10
14727.08361073076
 20
5277.167185402468
 30
0.0
  0
VERTEX
  5
426
  8
0
 10
14694.76990706165
 20
5269.486592574565
 30
0.0
  0
VERTEX
  5
427
  8
0
 10
14694.76990706165
 20
5315.237474407251
 30
0.0
  0
VERTEX
  5
428
  8
0
 10
14727.08361073076
 20
5307.556881579349
 30
0.0
  0
SEQEND
  5
429
  8
0
  0
POLYLINE
  5
42A
  8
0
 66
     1
 10
0.0
 20
0.0
 30
0.0
 70
     1
  0
VERTEX
  5
42B
  8
0
 10
14243.91810364911
 20
5292.362033490911
 30
0.0
  0
VERTEX
  5
42C
  8
0
 10
14250.16187460581
 20
5277.167185402468
 30
0.0
  0
VERTEX
  5
42D
  8
0
 10
14282.47557827492
 20
5269.486592574565
 30
0.0
  0
VERTEX
  5
42E
  8
0
 10
14282.47557827492
 20
5315.237474407251
 30
0.0
  0
VERTEX
  5
42F
  8
0
 10
14250.16187460581
 20
5307.556881579349
 30
0.0
  0
SEQEND
  5
430
  8
0
  0
POLYLINE
  5
431
  8
0
 66
     1
 10
0.0
 20
0.0
 30
0.0
 70
     1
  0
VERTEX
  5
432
  8
0
 10
14674.89667064175
 20
5292.362033490912
 30
0.0
  0
VERTEX
  5
433
  8
0
 10
14656.4357506837
 20
5273.387063999819
 30
0.0
  0
VERTEX
  5
434
  8
0
 10
14589.43829288109
 20
5273.387063999822
 30
0.0
  0
VERTEX
  5
435
  8
0
 10
14556.57268165046
 20
5292.362033490908
 30
0.0
  0
VERTEX
  5
436
  8
0
 10
14589.43829288109
 20
5311.337002981994
 30
0.0
  0
VERTEX
  5
437
  8
0
 10
14656.4357506837
 20
5311.337002981998
 30
0.0
  0
SEQEND
  5
438
  8
0
  0
POLYLINE
  5
439
  8
0
 66
     1
 10
0.0
 20
0.0
 30
0.0
 70
     1
  0
VERTEX
  5
43A
  8
0
 10
14302.34881469482
 20
5292.362033490912
 30
0.0
  0
VERTEX
  5
43B
  8
0
 10
14320.80973465287
 20
5273.387063999819
 30
0.0
  0
VERTEX
  5
43C
  8
0
 10
14387.80719245548
 20
5273.387063999822
 30
0.0
  0
VERTEX
  5
43D
  8
0
 10
14420.67280368612
 20
5292.362033490908
 30
0.0
  0
VERTEX
  5
43E
  8
0
 10
14387.80719245548
 20
5311.337002981994
 30
0.0
  0
VERTEX
  5
43F
  8
0
 10
14320.80973465287
 20
5311.337002981998
 30
0.0
  0
SEQEND
  5
440
  8
0
  0
POLYLINE
  5
441
  8
0
 66
     1
 10
0.0
 20
0.0
 30
0.0
 70
     1
  0
VERTEX
  5
442
  8
0
 10
14450.67280368612
 20
5292.362033490908
 30
0.0
  0
VERTEX
  5
443
  8
0
 10
14417.80719245549
 20
5273.387063999822
 30
0.0
  0
VERTEX
  5
444
  8
0
 10
14455.75713143765
 20
5273.38706399982
 30
0.0
  0
VERTEX
  5
445
  8
0
 10
14436.78216194657
 20
5240.521452769202
 30
0.0
  0
VERTEX
  5
446
  8
0
 10
14469.6477731772
 20
5259.496422260283
 30
0.0
  0
VERTEX
  5
447
  8
0
 10
14469.64777317719
 20
5221.546483278116
 30
0.0
  0
VERTEX
  5
448
  8
0
 10
14488.62274266829
 20
5254.412094508754
 30
0.0
  0
VERTEX
  5
449
  8
0
 10
14507.59771215938
 20
5221.546483278116
 30
0.0
  0
VERTEX
  5
44A
  8
0
 10
14507.59771215937
 20
5259.496422260283
 30
0.0
  0
VERTEX
  5
44B
  8
0
 10
14540.46332339
 20
5240.521452769202
 30
0.0
  0
VERTEX
  5
44C
  8
0
 10
14521.48835389892
 20
5273.38706399982
 30
0.0
  0
VERTEX
  5
44D
  8
0
 10
14559.43829288108
 20
5273.387063999822
 30
0.0
  0
VERTEX
  5
44E
  8
0
 10
14526.57268165045
 20
5292.362033490908
 30
0.0
  0
VERTEX
  5
44F
  8
0
 10
14559.43829288108
 20
5311.337002981994
 30
0.0
  0
VERTEX
  5
450
  8
0
 10
14521.48835389892
 20
5311.337002981996
 30
0.0
  0
VERTEX
  5
451
  8
0
 10
14540.46332339
 20
5344.202614212615
 30
0.0
  0
VERTEX
  5
452
  8
0
 10
14507.59771215937
 20
5325.227644721534
 30
0.0
  0
VERTEX
  5
453
  8
0
 10
14507.59771215938
 20
5363.177583703701
 30
0.0
  0
VERTEX
  5
454
  8
0
 10
14488.62274266829
 20
5330.311972473062
 30
0.0
  0
VERTEX
  5
455
  8
0
 10
14469.64777317719
 20
5363.177583703701
 30
0.0
  0
VERTEX
  5
456
  8
0
 10
14469.6477731772
 20
5325.227644721534
 30
0.0
  0
VERTEX
  5
457
  8
0
 10
14436.78216194657
 20
5344.202614212615
 30
0.0
  0
VERTEX
  5
458
  8
0
 10
14455.75713143765
 20
5311.337002981996
 30
0.0
  0
VERTEX
  5
459
  8
0
 10
14417.80719245549
 20
5311.337002981994
 30
0.0
  0
SEQEND
  5
45A
  8
0
  0
POLYLINE
  5
45B
  8
0
 66
     1
 10
0.0
 20
0.0
 30
0.0
 70
     1
  0
VERTEX
  5
45C
  8
0
 10
14749.54438701934
 20
5292.362033490911
 30
0.0
  0
VERTEX
  5
45D
  8
0
 10
14741.03351140044
 20
5271.649956922838
 30
0.0
  0
VERTEX
  5
45E
  8
0
 10
14770.35347021561
 20
5264.223627517076
 30
0.0
  0
VERTEX
  5
45F
  8
0
 10
14794.02891675866
 20
5223.216551212628
 30
0.0
  0
VERTEX
  5
460
  8
0
 10
14794.02891675866
 20
5270.567444298737
 30
0.0
  0
VERTEX
  5
461
  8
0
 10
14816.43038244574
 20
5292.362033490908
 30
0.0
  0
VERTEX
  5
462
  8
0
 10
14794.02891675866
 20
5314.156622683081
 30
0.0
  0
VERTEX
  5
463
  8
0
 10
14794.02891675866
 20
5361.507515769188
 30
0.0
  0
VERTEX
  5
464
  8
0
 10
14770.35347021561
 20
5320.500439464739
 30
0.0
  0
VERTEX
  5
465
  8
0
 10
14741.03351140044
 20
5313.074110058978
 30
0.0
  0
SEQEND
  5
466
  8
0
  0
POLYLINE
  5
467
  8
0
 66
     1
 10
0.0
 20
0.0
 30
0.0
 70
     1
  0
VERTEX
  5
468
  8
0
 10
14227.70109831723
 20
5292.362033490911
 30
0.0
  0
VERTEX
  5
469
  8
0
 10
14236.21197393613
 20
5271.649956922838
 30
0.0
  0
VERTEX
  5
46A
  8
0
 10
14206.89201512096
 20
5264.223627517076
 30
0.0
  0
VERTEX
  5
46B
  8
0
 10
14183.21656857791
 20
5223.216551212628
 30
0.0
  0
VERTEX
  5
46C
  8
0
 10
14183.21656857791
 20
5270.567444298737
 30
0.0
  0
VERTEX
  5
46D
  8
0
 10
14160.81510289083
 20
5292.362033490908
 30
0.0
  0
VERTEX
  5
46E
  8
0
 10
14183.21656857791
 20
5314.156622683081
 30
0.0
  0
VERTEX
  5
46F
  8
0
 10
14183.21656857791
 20
5361.507515769188
 30
0.0
  0
VERTEX
  5
470
  8
0
 10
14206.89201512096
 20
5320.500439464739
 30
0.0
  0
VERTEX
  5
471
  8
0
 10
14236.21197393613
 20
5313.074110058978
 30
0.0
  0
SEQEND
  5
472
  8
0
  0
ENDSEC
  0
EOF
