  0
SECTION
  2
HEADER
  9
$ACADVER
  1
AC1009
  9
$DWGCODEPAGE
  3
ansi_1252
  9
$INSBASE
 10
0.0
 20
0.0
 30
0.0
  9
$EXTMIN
 10
1.000000000000000E+20
 20
1.000000000000000E+20
 30
1.000000000000000E+20
  9
$EXTMAX
 10
-1.000000000000000E+20
 20
-1.000000000000000E+20
 30
-1.000000000000000E+20
  9
$LIMMIN
 10
0.0
 20
0.0
  9
$LIMMAX
 10
12.0
 20
9.0
  9
$ORTHOMODE
 70
     0
  9
$REGENMODE
 70
     1
  9
$FILLMODE
 70
     1
  9
$QTEXTMODE
 70
     0
  9
$MIRRTEXT
 70
     1
  9
$DRAGMODE
 70
     2
  9
$LTSCALE
 40
1.0
  9
$OSMODE
 70
    37
  9
$ATTMODE
 70
     1
  9
$TEXTSIZE
 40
0.2
  9
$TRACEWID
 40
0.05
  9
$TEXTSTYLE
  7
STANDARD
  9
$CLAYER
  8
LAYER_05
  9
$CELTYPE
  6
BYLAYER
  9
$CECOLOR
 62
   256
  9
$DIMSCALE
 40
1.0
  9
$DIMASZ
 40
0.18
  9
$DIMEXO
 40
0.0625
  9
$DIMDLI
 40
0.38
  9
$DIMRND
 40
0.0
  9
$DIMDLE
 40
0.0
  9
$DIMEXE
 40
0.18
  9
$DIMTP
 40
0.0
  9
$DIMTM
 40
0.0
  9
$DIMTXT
 40
0.18
  9
$DIMCEN
 40
0.09
  9
$DIMTSZ
 40
0.0
  9
$DIMTOL
 70
     0
  9
$DIMLIM
 70
     0
  9
$DIMTIH
 70
     1
  9
$DIMTOH
 70
     1
  9
$DIMSE1
 70
     0
  9
$DIMSE2
 70
     0
  9
$DIMTAD
 70
     0
  9
$DIMZIN
 70
     0
  9
$DIMBLK
  1

  9
$DIMASO
 70
     1
  9
$DIMSHO
 70
     1
  9
$DIMPOST
  1

  9
$DIMAPOST
  1

  9
$DIMALT
 70
     0
  9
$DIMALTD
 70
     2
  9
$DIMALTF
 40
25.4
  9
$DIMLFAC
 40
1.0
  9
$DIMTOFL
 70
     0
  9
$DIMTVP
 40
0.0
  9
$DIMTIX
 70
     0
  9
$DIMSOXD
 70
     0
  9
$DIMSAH
 70
     0
  9
$DIMBLK1
  1

  9
$DIMBLK2
  1

  9
$DIMSTYLE
  2
STANDARD_ACAD
  9
$DIMCLRD
 70
     0
  9
$DIMCLRE
 70
     0
  9
$DIMCLRT
 70
     0
  9
$DIMTFAC
 40
1.0
  9
$DIMGAP
 40
0.09
  9
$LUNITS
 70
     2
  9
$LUPREC
 70
     3
  9
$SKETCHINC
 40
0.1
  9
$FILLETRAD
 40
0.5
  9
$AUNITS
 70
     0
  9
$AUPREC
 70
     0
  9
$MENU
  1
.
  9
$ELEVATION
 40
0.0
  9
$PELEVATION
 40
0.0
  9
$THICKNESS
 40
0.0
  9
$LIMCHECK
 70
     0
  9
$CHAMFERA
 40
0.0
  9
$CHAMFERB
 40
0.0
  9
$SKPOLY
 70
     0
  9
$TDCREATE
 40
2460210.435507662
  9
$TDUPDATE
 40
2460210.435507662
  9
$TDINDWG
 40
0.0000000116
  9
$TDUSRTIMER
 40
0.0000000116
  9
$USRTIMER
 70
     1
  9
$ANGBASE
 50
0.0
  9
$ANGDIR
 70
     0
  9
$PDMODE
 70
     0
  9
$PDSIZE
 40
0.0
  9
$PLINEWID
 40
0.0
  9
$COORDS
 70
     1
  9
$SPLFRAME
 70
     0
  9
$SPLINETYPE
 70
     6
  9
$SPLINESEGS
 70
     8
  9
$ATTDIA
 70
     0
  9
$ATTREQ
 70
     1
  9
$HANDLING
 70
     1
  9
$HANDSEED
  5
2AD
  9
$SURFTAB1
 70
     6
  9
$SURFTAB2
 70
     6
  9
$SURFTYPE
 70
     6
  9
$SURFU
 70
     6
  9
$SURFV
 70
     6
  9
$UCSNAME
  2

  9
$UCSORG
 10
0.0
 20
0.0
 30
0.0
  9
$UCSXDIR
 10
1.0
 20
0.0
 30
0.0
  9
$UCSYDIR
 10
0.0
 20
1.0
 30
0.0
  9
$PUCSNAME
  2

  9
$PUCSORG
 10
0.0
 20
0.0
 30
0.0
  9
$PUCSXDIR
 10
1.0
 20
0.0
 30
0.0
  9
$PUCSYDIR
 10
0.0
 20
1.0
 30
0.0
  9
$USERI1
 70
     0
  9
$USERI2
 70
     0
  9
$USERI3
 70
     0
  9
$USERI4
 70
     0
  9
$USERI5
 70
     0
  9
$USERR1
 40
0.0
  9
$USERR2
 40
0.0
  9
$USERR3
 40
0.0
  9
$USERR4
 40
0.0
  9
$USERR5
 40
0.0
  9
$WORLDVIEW
 70
     1
  9
$SHADEDGE
 70
     3
  9
$SHADEDIF
 70
    70
  9
$TILEMODE
 70
     1
  9
$MAXACTVP
 70
    64
  9
$PLIMCHECK
 70
     0
  9
$PEXTMIN
 10
1.000000000000000E+20
 20
1.000000000000000E+20
 30
1.000000000000000E+20
  9
$PEXTMAX
 10
-1.000000000000000E+20
 20
-1.000000000000000E+20
 30
-1.000000000000000E+20
  9
$PLIMMIN
 10
0.0
 20
0.0
  9
$PLIMMAX
 10
12.0
 20
9.0
  9
$UNITMODE
 70
     0
  9
$VISRETAIN
 70
     1
  9
$PLINEGEN
 70
     0
  9
$PSLTSCALE
 70
     1
  0
ENDSEC
  0
SECTION
  2
TABLES
  0
TABLE
  2
VPORT
 70
     1
  0
VPORT
  2
*ACTIVE
 70
     0
 10
0.0
 20
0.0
 11
1.0
 21
1.0
 12
10.42990654205607
 22
4.5
 13
0.0
 23
0.0
 14
0.5
 24
0.5
 15
0.5
 25
0.5
 16
0.0
 26
0.0
 36
1.0
 17
0.0
 27
0.0
 37
0.0
 40
9.0
 41
1.972972972850329
 42
50.0
 43
0.0
 44
0.0
 50
0.0
 51
0.0
 71
     0
 72
   100
 73
     1
 74
     3
 75
     0
 76
     0
 77
     0
 78
     0
  0
ENDTAB
  0
TABLE
  2
LTYPE
 70
     1
  0
LTYPE
  2
CONTINUOUS
 70
     0
  3
Solid line
 72
    65
 73
     0
 40
0.0
  0
ENDTAB
  0
TABLE
  2
LAYER
 70
     2
  0
LAYER
  2
0
 70
     0
 62
     7
  6
CONTINUOUS
  0
LAYER
  2
LAYER_05
 70
     0
 62
     1
  6
CONTINUOUS
  0
ENDTAB
  0
TABLE
  2
STYLE
 70
     1
  0
STYLE
  2
STANDARD
 70
     0
 40
0.0
 41
1.0
 50
0.0
 71
     0
 42
0.2
  3
txt
  4

  0
ENDTAB
  0
TABLE
  2
VIEW
 70
     0
  0
ENDTAB
  0
TABLE
  2
UCS
 70
     0
  0
ENDTAB
  0
TABLE
  2
APPID
 70
     2
  0
APPID
  2
ACAD
 70
     0
  0
APPID
  2
RHINO
 70
     0
  0
ENDTAB
  0
TABLE
  2
DIMSTYLE
 70
     1
  0
DIMSTYLE
  2
STANDARD_ACAD
 70
     0
  3

  4

  5

  6

  7

 40
1.0
 41
0.18
 42
0.0625
 43
0.38
 44
0.18
 45
0.0
 46
0.0
 47
0.0
 48
0.0
140
0.18
141
0.09
142
0.0
143
25.4
144
1.0
145
0.0
146
1.0
147
0.09
 71
     0
 72
     0
 73
     1
 74
     1
 75
     0
 76
     0
 77
     0
 78
     0
170
     0
171
     2
172
     0
173
     0
174
     0
175
     0
176
     0
177
     0
178
     0
  0
ENDTAB
  0
ENDSEC
  0
SECTION
  2
BLOCKS
  0
BLOCK
  8
0
  2
$MODEL_SPACE
 70
     0
 10
0.0
 20
0.0
 30
0.0
  3
$MODEL_SPACE
  1

  0
ENDBLK
  5
21
  8
0
  0
BLOCK
 67
     1
  8
0
  2
$PAPER_SPACE
 70
     0
 10
0.0
 20
0.0
 30
0.0
  3
$PAPER_SPACE
  1

  0
ENDBLK
  5
1D
 67
     1
  8
0
  0
ENDSEC
  0
SECTION
  2
ENTITIES
  0
POLYLINE
  5
70
  8
LAYER_05
 66
     1
 10
0.0
 20
0.0
 30
0.0
 70
     1
  0
VERTEX
  5
71
  8
LAYER_05
 10
554.1211600921162
 20
965.0029436032378
 30
0.0
  0
VERTEX
  5
72
  8
LAYER_05
 10
1983.882303849272
 20
965.0029436032378
 30
0.0
  0
VERTEX
  5
73
  8
LAYER_05
 10
1983.882303849272
 20
1338.068300995749
 30
0.0
  0
VERTEX
  5
74
  8
LAYER_05
 10
554.1211600921162
 20
1338.068300995749
 30
0.0
  0
SEQEND
  5
75
  8
LAYER_05
  0
POLYLINE
  5
76
  8
LAYER_05
 66
     1
 10
0.0
 20
0.0
 30
0.0
 70
     1
  0
VERTEX
  5
77
  8
LAYER_05
 10
1479.045368215838
 20
1323.068300995749
 30
0.0
 42
-0.3337590028549355
  0
VERTEX
  5
78
  8
LAYER_05
 10
1549.786974337289
 20
1235.402757735973
 30
0.0
 42
0.0441908159783229
  0
VERTEX
  5
79
  8
LAYER_05
 10
1567.924591507477
 20
1231.080616925588
 30
0.0
 42
-0.1295762821347913
  0
VERTEX
  5
7A
  8
LAYER_05
 10
1594.351414601482
 20
1257.738492585108
 30
0.0
 42
-0.1890587123973708
  0
VERTEX
  5
7B
  8
LAYER_05
 10
1582.044574298476
 20
1323.068300995749
 30
0.0
  0
SEQEND
  5
7C
  8
LAYER_05
  0
POLYLINE
  5
7D
  8
LAYER_05
 66
     1
 10
0.0
 20
0.0
 30
0.0
 70
     1
  0
VERTEX
  5
7E
  8
LAYER_05
 10
1058.95809572555
 20
1323.068300995749
 30
0.0
 42
0.3337590028549809
  0
VERTEX
  5
7F
  8
LAYER_05
 10
988.2164896040998
 20
1235.402757735973
 30
0.0
 42
-0.0441908159783218
  0
VERTEX
  5
80
  8
LAYER_05
 10
970.0788724339118
 20
1231.080616925588
 30
0.0
 42
0.1295762821347611
  0
VERTEX
  5
81
  8
LAYER_05
 10
943.6520493399066
 20
1257.738492585108
 30
0.0
 42
0.1890587123973845
  0
VERTEX
  5
82
  8
LAYER_05
 10
955.958889642912
 20
1323.068300995749
 30
0.0
  0
SEQEND
  5
83
  8
LAYER_05
  0
POLYLINE
  5
84
  8
LAYER_05
 66
     1
 10
0.0
 20
0.0
 30
0.0
 70
     1
  0
VERTEX
  5
85
  8
LAYER_05
 10
899.4921578070962
 20
1107.273488776095
 30
0.0
 42
-0.2596644851699045
  0
VERTEX
  5
86
  8
LAYER_05
 10
973.2187271935389
 20
1058.576316330831
 30
0.0
 42
-0.6117579530908
  0
VERTEX
  5
87
  8
LAYER_05
 10
1032.474141957628
 20
1081.858453672414
 30
0.0
 42
-0.1531979244429209
  0
VERTEX
  5
88
  8
LAYER_05
 10
1051.923995299108
 20
1143.304627087818
 30
0.0
 42
-0.2294590414160331
  0
VERTEX
  5
89
  8
LAYER_05
 10
993.6160855533334
 20
1200.629160108407
 30
0.0
 42
0.0333761653858691
  0
VERTEX
  5
8A
  8
LAYER_05
 10
979.8218402405255
 20
1198.352517824045
 30
0.0
 42
-0.4486808589468492
  0
VERTEX
  5
8B
  8
LAYER_05
 10
901.8160418812546
 20
1120.776660680953
 30
0.0
 42
0.0327082602718012
  0
SEQEND
  5
8C
  8
LAYER_05
  0
POLYLINE
  5
8D
  8
LAYER_05
 66
     1
 10
0.0
 20
0.0
 30
0.0
 70
     1
  0
VERTEX
  5
8E
  8
LAYER_05
 10
1638.511306134292
 20
1107.273488776095
 30
0.0
 42
0.2596644851699138
  0
VERTEX
  5
8F
  8
LAYER_05
 10
1564.784736747849
 20
1058.576316330831
 30
0.0
 42
0.6117579530907594
  0
VERTEX
  5
90
  8
LAYER_05
 10
1505.52932198376
 20
1081.858453672414
 30
0.0
 42
0.1531979244429767
  0
VERTEX
  5
91
  8
LAYER_05
 10
1486.079468642281
 20
1143.304627087818
 30
0.0
 42
0.2294590414160361
  0
VERTEX
  5
92
  8
LAYER_05
 10
1544.387378388056
 20
1200.629160108407
 30
0.0
 42
-0.0333761653858741
  0
VERTEX
  5
93
  8
LAYER_05
 10
1558.181623700863
 20
1198.352517824045
 30
0.0
 42
0.4486808589468507
  0
VERTEX
  5
94
  8
LAYER_05
 10
1636.187422060134
 20
1120.776660680953
 30
0.0
 42
-0.0327082602718011
  0
SEQEND
  5
95
  8
LAYER_05
  0
POLYLINE
  5
96
  8
LAYER_05
 66
     1
 10
0.0
 20
0.0
 30
0.0
 70
     1
  0
VERTEX
  5
97
  8
LAYER_05
 10
1631.420417624178
 20
1135.640947306214
 30
0.0
 42
-0.4097366423866531
  0
VERTEX
  5
98
  8
LAYER_05
 10
1573.072029801805
 20
1193.667738819721
 30
0.0
 42
-0.2044312517933807
  0
SEQEND
  5
99
  8
LAYER_05
  0
POLYLINE
  5
9A
  8
LAYER_05
 66
     1
 10
0.0
 20
0.0
 30
0.0
 70
     1
  0
VERTEX
  5
9B
  8
LAYER_05
 10
906.5830463172106
 20
1135.640947306214
 30
0.0
 42
0.4097366423866519
  0
VERTEX
  5
9C
  8
LAYER_05
 10
964.9314341395836
 20
1193.667738819721
 30
0.0
 42
0.2044312517933799
  0
SEQEND
  5
9D
  8
LAYER_05
  0
POLYLINE
  5
9E
  8
LAYER_05
 66
     1
 10
0.0
 20
0.0
 30
0.0
 70
     1
  0
VERTEX
  5
9F
  8
LAYER_05
 10
1120.258730318421
 20
1323.068300995749
 30
0.0
 42
0.0186651405850953
  0
VERTEX
  5
A0
  8
LAYER_05
 10
1118.148642157798
 20
1318.654235112552
 30
0.0
 42
-0.0523265081766596
  0
VERTEX
  5
A1
  8
LAYER_05
 10
1135.31766867492
 20
1309.252555403208
 30
0.0
 42
-0.057757592686189
  0
VERTEX
  5
A2
  8
LAYER_05
 10
1138.695076635805
 20
1323.068300995749
 30
0.0
  0
SEQEND
  5
A3
  8
LAYER_05
  0
POLYLINE
  5
A4
  8
LAYER_05
 66
     1
 10
0.0
 20
0.0
 30
0.0
 70
     1
  0
VERTEX
  5
A5
  8
LAYER_05
 10
1155.064260628178
 20
1323.068300995749
 30
0.0
 42
1.642745356320095
  0
VERTEX
  5
A6
  8
LAYER_05
 10
1238.150622968725
 20
1323.068300995749
 30
0.0
  0
SEQEND
  5
A7
  8
LAYER_05
  0
POLYLINE
  5
A8
  8
LAYER_05
 66
     1
 10
0.0
 20
0.0
 30
0.0
 70
     1
  0
VERTEX
  5
A9
  8
LAYER_05
 10
1866.498528332961
 20
1072.205604566285
 30
0.0
 42
-0.2252744956491581
  0
VERTEX
  5
AA
  8
LAYER_05
 10
1769.989608831793
 20
1130.56929105693
 30
0.0
 42
-0.3388369202182462
  0
SEQEND
  5
AB
  8
LAYER_05
  0
POLYLINE
  5
AC
  8
LAYER_05
 66
     1
 10
0.0
 20
0.0
 30
0.0
 70
     1
  0
VERTEX
  5
AD
  8
LAYER_05
 10
898.9913172645215
 20
1092.265781430256
 30
0.0
 42
-0.4619395674349917
  0
VERTEX
  5
AE
  8
LAYER_05
 10
966.1884766708455
 20
998.4042468378684
 30
0.0
 42
-0.3000540430659803
  0
SEQEND
  5
AF
  8
LAYER_05
  0
POLYLINE
  5
B0
  8
LAYER_05
 66
     1
 10
0.0
 20
0.0
 30
0.0
 70
     1
  0
VERTEX
  5
B1
  8
LAYER_05
 10
671.5049356084278
 20
1072.205604566285
 30
0.0
 42
0.2252744956491329
  0
VERTEX
  5
B2
  8
LAYER_05
 10
768.0138551095949
 20
1130.56929105693
 30
0.0
 42
0.3388369202181975
  0
SEQEND
  5
B3
  8
LAYER_05
  0
POLYLINE
  5
B4
  8
LAYER_05
 66
     1
 10
0.0
 20
0.0
 30
0.0
 70
     1
  0
VERTEX
  5
B5
  8
LAYER_05
 10
1639.012146676867
 20
1092.265781430256
 30
0.0
 42
0.4619395674349932
  0
VERTEX
  5
B6
  8
LAYER_05
 10
1571.814987270543
 20
998.4042468378682
 30
0.0
 42
0.3000540430659773
  0
SEQEND
  5
B7
  8
LAYER_05
  0
POLYLINE
  5
B8
  8
LAYER_05
 66
     1
 10
0.0
 20
0.0
 30
0.0
 70
     1
  0
VERTEX
  5
B9
  8
LAYER_05
 10
1101.400492768486
 20
1165.752790593702
 30
0.0
 42
-0.0947752422987102
  0
VERTEX
  5
BA
  8
LAYER_05
 10
1135.193728953716
 20
1174.100181442536
 30
0.0
 42
-0.1056076304149708
  0
VERTEX
  5
BB
  8
LAYER_05
 10
1106.829868121505
 20
1157.407965687895
 30
0.0
 42
0.0207777759973843
  0
SEQEND
  5
BC
  8
LAYER_05
  0
POLYLINE
  5
BD
  8
LAYER_05
 66
     1
 10
0.0
 20
0.0
 30
0.0
 70
     1
  0
VERTEX
  5
BE
  8
LAYER_05
 10
1436.602971172902
 20
1165.752790593702
 30
0.0
 42
0.0947752422987102
  0
VERTEX
  5
BF
  8
LAYER_05
 10
1402.809734987672
 20
1174.100181442536
 30
0.0
 42
0.1056076304149708
  0
VERTEX
  5
C0
  8
LAYER_05
 10
1431.173595819884
 20
1157.407965687895
 30
0.0
 42
-0.020777775997429
  0
SEQEND
  5
C1
  8
LAYER_05
  0
POLYLINE
  5
C2
  8
LAYER_05
 66
     1
 10
0.0
 20
0.0
 30
0.0
 70
     1
  0
VERTEX
  5
C3
  8
LAYER_05
 10
1194.728833634951
 20
1156.424376466327
 30
0.0
 42
0.1751620011982444
  0
VERTEX
  5
C4
  8
LAYER_05
 10
1226.785215365838
 20
1114.325501707795
 30
0.0
 42
0.1458251453567627
  0
SEQEND
  5
C5
  8
LAYER_05
  0
POLYLINE
  5
C6
  8
LAYER_05
 66
     1
 10
0.0
 20
0.0
 30
0.0
 70
     1
  0
VERTEX
  5
C7
  8
LAYER_05
 10
1091.317376554672
 20
1153.932274515933
 30
0.0
 42
-0.0310640317681336
  0
VERTEX
  5
C8
  8
LAYER_05
 10
1081.554209677097
 20
1153.372831946348
 30
0.0
 42
-0.0225106984238798
  0
VERTEX
  5
C9
  8
LAYER_05
 10
1088.245383927105
 20
1158.347375709085
 30
0.0
 42
-0.0128282318359971
  0
SEQEND
  5
CA
  8
LAYER_05
  0
POLYLINE
  5
CB
  8
LAYER_05
 66
     1
 10
0.0
 20
0.0
 30
0.0
 70
     1
  0
VERTEX
  5
CC
  8
LAYER_05
 10
1056.380565789603
 20
1306.666513079622
 30
0.0
 42
-0.205445989036685
  0
VERTEX
  5
CD
  8
LAYER_05
 10
1003.781752521211
 20
1242.027224414375
 30
0.0
 42
-0.2861147748105401
  0
SEQEND
  5
CE
  8
LAYER_05
  0
POLYLINE
  5
CF
  8
LAYER_05
 66
     1
 10
0.0
 20
0.0
 30
0.0
 70
     1
  0
VERTEX
  5
D0
  8
LAYER_05
 10
792.3733534729402
 20
1323.068300995749
 30
0.0
  0
VERTEX
  5
D1
  8
LAYER_05
 10
834.712772846819
 20
1323.068300995749
 30
0.0
 42
0.1577623483197013
  0
VERTEX
  5
D2
  8
LAYER_05
 10
864.8368420935668
 20
1255.136907284647
 30
0.0
 42
0.1032656943279758
  0
VERTEX
  5
D3
  8
LAYER_05
 10
843.9513531042929
 20
1233.466982808823
 30
0.0
 42
-0.3921196347373697
  0
SEQEND
  5
D4
  8
LAYER_05
  0
POLYLINE
  5
D5
  8
LAYER_05
 66
     1
 10
0.0
 20
0.0
 30
0.0
 70
     1
  0
VERTEX
  5
D6
  8
LAYER_05
 10
1534.221711420178
 20
1242.027224414374
 30
0.0
 42
-0.2054459890366865
  0
VERTEX
  5
D7
  8
LAYER_05
 10
1481.622898151785
 20
1306.666513079622
 30
0.0
 42
-0.2861147748105393
  0
SEQEND
  5
D8
  8
LAYER_05
  0
POLYLINE
  5
D9
  8
LAYER_05
 66
     1
 10
0.0
 20
0.0
 30
0.0
 70
     1
  0
VERTEX
  5
DA
  8
LAYER_05
 10
1686.085157789447
 20
1216.221754992976
 30
0.0
 42
-0.1575980229405732
  0
VERTEX
  5
DB
  8
LAYER_05
 10
1630.722509580999
 20
1224.686747697881
 30
0.0
 42
-0.1147218335939767
  0
VERTEX
  5
DC
  8
LAYER_05
 10
1576.901305302615
 20
1215.129779242068
 30
0.0
 42
0.0274560438995388
  0
VERTEX
  5
DD
  8
LAYER_05
 10
1574.9465360287
 20
1208.998801559521
 30
0.0
 42
-0.2216010716903791
  0
VERTEX
  5
DE
  8
LAYER_05
 10
1646.740886103227
 20
1137.600157327829
 30
0.0
 42
0.4510983901619833
  0
SEQEND
  5
DF
  8
LAYER_05
  0
POLYLINE
  5
E0
  8
LAYER_05
 66
     1
 10
0.0
 20
0.0
 30
0.0
 70
     1
  0
VERTEX
  5
E1
  8
LAYER_05
 10
1739.514751471366
 20
1245.565767384729
 30
0.0
 42
-0.1298355361525918
  0
VERTEX
  5
E2
  8
LAYER_05
 10
1700.754258737987
 20
1219.873923215468
 30
0.0
 42
-0.4407028466975074
  0
VERTEX
  5
E3
  8
LAYER_05
 10
1651.022511572169
 20
1123.218574427131
 30
0.0
 42
-0.0339666696103633
  0
VERTEX
  5
E4
  8
LAYER_05
 10
1653.59436183347
 20
1107.159919863772
 30
0.0
 42
-0.1036992485063608
  0
VERTEX
  5
E5
  8
LAYER_05
 10
1689.223899644089
 20
1096.242183045129
 30
0.0
 42
-0.1746698452665259
  0
VERTEX
  5
E6
  8
LAYER_05
 10
1747.038917230317
 20
1140.919779799521
 30
0.0
 42
-0.1851567581820692
  0
SEQEND
  5
E7
  8
LAYER_05
  0
POLYLINE
  5
E8
  8
LAYER_05
 66
     1
 10
0.0
 20
0.0
 30
0.0
 70
     1
  0
VERTEX
  5
E9
  8
LAYER_05
 10
1745.630110468448
 20
1323.068300995749
 30
0.0
  0
VERTEX
  5
EA
  8
LAYER_05
 10
1703.290691094569
 20
1323.068300995748
 30
0.0
 42
-0.1577623483197396
  0
VERTEX
  5
EB
  8
LAYER_05
 10
1673.166621847822
 20
1255.136907284647
 30
0.0
 42
-0.1032656943279484
  0
VERTEX
  5
EC
  8
LAYER_05
 10
1694.052110837096
 20
1233.466982808823
 30
0.0
 42
0.392119634737349
  0
SEQEND
  5
ED
  8
LAYER_05
  0
POLYLINE
  5
EE
  8
LAYER_05
 66
     1
 10
0.0
 20
0.0
 30
0.0
 70
     1
  0
VERTEX
  5
EF
  8
LAYER_05
 10
1424.217741329664
 20
1304.202723195715
 30
0.0
 42
0.3062156151954134
  0
VERTEX
  5
F0
  8
LAYER_05
 10
1377.333401143111
 20
1229.472682237241
 30
0.0
 42
0.3867777316128353
  0
SEQEND
  5
F1
  8
LAYER_05
  0
POLYLINE
  5
F2
  8
LAYER_05
 66
     1
 10
0.0
 20
0.0
 30
0.0
 70
     1
  0
VERTEX
  5
F3
  8
LAYER_05
 10
829.9936418655841
 20
980.0029436032382
 30
0.0
  0
VERTEX
  5
F4
  8
LAYER_05
 10
826.3177543707094
 20
980.0029436032386
 30
0.0
 42
-0.3563552345028528
  0
VERTEX
  5
F5
  8
LAYER_05
 10
843.3777391729164
 20
1074.350945584063
 30
0.0
 42
-0.2764257830356021
  0
SEQEND
  5
F6
  8
LAYER_05
  0
POLYLINE
  5
F7
  8
LAYER_05
 66
     1
 10
0.0
 20
0.0
 30
0.0
 70
     1
  0
VERTEX
  5
F8
  8
LAYER_05
 10
1446.686087386717
 20
1153.932274515932
 30
0.0
 42
0.0310640317681334
  0
VERTEX
  5
F9
  8
LAYER_05
 10
1456.449254264291
 20
1153.372831946348
 30
0.0
 42
0.0225106984238797
  0
VERTEX
  5
FA
  8
LAYER_05
 10
1449.758080014283
 20
1158.347375709085
 30
0.0
 42
0.0128282318359297
  0
SEQEND
  5
FB
  8
LAYER_05
  0
POLYLINE
  5
FC
  8
LAYER_05
 66
     1
 10
0.0
 20
0.0
 30
0.0
 70
     1
  0
VERTEX
  5
FD
  8
LAYER_05
 10
665.3119820204886
 20
1032.224589359656
 30
0.0
 42
-0.2021592947015929
  0
VERTEX
  5
FE
  8
LAYER_05
 10
748.1624702452777
 20
1025.296978650677
 30
0.0
 42
-0.809143664088453
  0
VERTEX
  5
FF
  8
LAYER_05
 10
806.9493363390302
 20
1046.794331106207
 30
0.0
 42
-0.1419179491065086
  0
VERTEX
  5
100
  8
LAYER_05
 10
836.2852332987688
 20
1087.935985665421
 30
0.0
 42
0.1830188628425785
  0
VERTEX
  5
101
  8
LAYER_05
 10
783.7713064727103
 20
1127.437621437966
 30
0.0
 42
-0.2471576800486029
  0
VERTEX
  5
102
  8
LAYER_05
 10
666.9601854457659
 20
1056.79619594615
 30
0.0
 42
0.0666615148124304
  0
SEQEND
  5
103
  8
LAYER_05
  0
POLYLINE
  5
104
  8
LAYER_05
 66
     1
 10
0.0
 20
0.0
 30
0.0
 70
     1
  0
VERTEX
  5
105
  8
LAYER_05
 10
1708.009822075804
 20
980.0029436032382
 30
0.0
  0
VERTEX
  5
106
  8
LAYER_05
 10
1711.685709570679
 20
980.0029436032386
 30
0.0
 42
0.3563552345028558
  0
VERTEX
  5
107
  8
LAYER_05
 10
1694.625724768472
 20
1074.350945584063
 30
0.0
 42
0.2764257830356233
  0
SEQEND
  5
108
  8
LAYER_05
  0
POLYLINE
  5
109
  8
LAYER_05
 66
     1
 10
0.0
 20
0.0
 30
0.0
 70
     1
  0
VERTEX
  5
10A
  8
LAYER_05
 10
709.9938259322588
 20
1255.915543349149
 30
0.0
 42
-1.035201757313368
  0
VERTEX
  5
10B
  8
LAYER_05
 10
634.2393809343934
 20
1146.385949624137
 30
0.0
 42
0.3532862415946847
  0
SEQEND
  5
10C
  8
LAYER_05
  0
POLYLINE
  5
10D
  8
LAYER_05
 66
     1
 10
0.0
 20
0.0
 30
0.0
 70
     1
  0
VERTEX
  5
10E
  8
LAYER_05
 10
1092.546939523056
 20
1002.08851197821
 30
0.0
 42
-0.0266591534375179
  0
VERTEX
  5
10F
  8
LAYER_05
 10
1084.357665490012
 20
1007.601911165905
 30
0.0
 42
0.1799611030241276
  0
VERTEX
  5
110
  8
LAYER_05
 10
1122.717443319344
 20
1081.835486164221
 30
0.0
 42
0.8754072981821188
  0
VERTEX
  5
111
  8
LAYER_05
 10
1200.703891183152
 20
1116.835913232322
 30
0.0
 42
0.1040669143185331
  0
VERTEX
  5
112
  8
LAYER_05
 10
1231.837569558852
 20
1094.646479815224
 30
0.0
 42
-0.1754215932492617
  0
VERTEX
  5
113
  8
LAYER_05
 10
1218.945455626813
 20
1032.911637385754
 30
0.0
 42
0.3160545551766901
  0
SEQEND
  5
114
  8
LAYER_05
  0
POLYLINE
  5
115
  8
LAYER_05
 66
     1
 10
0.0
 20
0.0
 30
0.0
 70
     1
  0
VERTEX
  5
116
  8
LAYER_05
 10
1445.456524418332
 20
1002.08851197821
 30
0.0
 42
0.0266591534375159
  0
VERTEX
  5
117
  8
LAYER_05
 10
1453.645798451377
 20
1007.601911165905
 30
0.0
 42
-0.1799611030241268
  0
VERTEX
  5
118
  8
LAYER_05
 10
1415.286020622044
 20
1081.835486164221
 30
0.0
 42
-0.8754968577768427
  0
VERTEX
  5
119
  8
LAYER_05
 10
1337.302067344145
 20
1116.844294671141
 30
0.0
 42
-0.1040813846906979
  0
VERTEX
  5
11A
  8
LAYER_05
 10
1306.166240790534
 20
1094.648912422954
 30
0.0
 42
0.1754284278865575
  0
VERTEX
  5
11B
  8
LAYER_05
 10
1319.058008314575
 20
1032.911637385754
 30
0.0
 42
-0.3160545551766898
  0
SEQEND
  5
11C
  8
LAYER_05
  0
POLYLINE
  5
11D
  8
LAYER_05
 66
     1
 10
0.0
 20
0.0
 30
0.0
 70
     1
  0
VERTEX
  5
11E
  8
LAYER_05
 10
1078.466759335367
 20
1169.827410581283
 30
0.0
 42
0.1864906315773016
  0
VERTEX
  5
11F
  8
LAYER_05
 10
1009.598533424981
 20
1200.957271171016
 30
0.0
 42
0.2316969637064279
  0
VERTEX
  5
120
  8
LAYER_05
 10
1062.221141941657
 20
1155.879161165432
 30
0.0
 42
-0.0498521182663167
  0
SEQEND
  5
121
  8
LAYER_05
  0
POLYLINE
  5
122
  8
LAYER_05
 66
     1
 10
0.0
 20
0.0
 30
0.0
 70
     1
  0
VERTEX
  5
123
  8
LAYER_05
 10
798.488712470022
 20
1245.565767384729
 30
0.0
 42
0.1298355361525934
  0
VERTEX
  5
124
  8
LAYER_05
 10
837.2492052034015
 20
1219.873923215468
 30
0.0
 42
0.4407028466974071
  0
VERTEX
  5
125
  8
LAYER_05
 10
886.9809523692197
 20
1123.218574427131
 30
0.0
 42
0.0339666696103712
  0
VERTEX
  5
126
  8
LAYER_05
 10
884.4091021079186
 20
1107.159919863772
 30
0.0
 42
0.1036992485062685
  0
VERTEX
  5
127
  8
LAYER_05
 10
848.7795642972997
 20
1096.242183045129
 30
0.0
 42
0.1746698452664702
  0
VERTEX
  5
128
  8
LAYER_05
 10
790.9645467110718
 20
1140.919779799522
 30
0.0
 42
0.185156758182041
  0
SEQEND
  5
129
  8
LAYER_05
  0
POLYLINE
  5
12A
  8
LAYER_05
 66
     1
 10
0.0
 20
0.0
 30
0.0
 70
     1
  0
VERTEX
  5
12B
  8
LAYER_05
 10
646.8202799599983
 20
980.0029436032381
 30
0.0
 42
0.076608233429392
  0
VERTEX
  5
12C
  8
LAYER_05
 10
641.5326814993344
 20
1002.736620463935
 30
0.0
 42
-0.0397406381605024
  0
VERTEX
  5
12D
  8
LAYER_05
 10
653.6804892505462
 20
1010.842800968641
 30
0.0
 42
0.0786681512885393
  0
VERTEX
  5
12E
  8
LAYER_05
 10
667.2746936688513
 20
980.0029436032382
 30
0.0
  0
SEQEND
  5
12F
  8
LAYER_05
  0
POLYLINE
  5
130
  8
LAYER_05
 66
     1
 10
0.0
 20
0.0
 30
0.0
 70
     1
  0
VERTEX
  5
131
  8
LAYER_05
 10
1916.419853224961
 20
1158.72465578345
 30
0.0
 42
-0.40780157411707
  0
VERTEX
  5
132
  8
LAYER_05
 10
1844.020322196997
 20
1263.403545841951
 30
0.0
 42
-0.7369070774656736
  0
SEQEND
  5
133
  8
LAYER_05
  0
POLYLINE
  5
134
  8
LAYER_05
 66
     1
 10
0.0
 20
0.0
 30
0.0
 70
     1
  0
VERTEX
  5
135
  8
LAYER_05
 10
1459.536704606021
 20
1169.827410581283
 30
0.0
 42
-0.1864906315773016
  0
VERTEX
  5
136
  8
LAYER_05
 10
1528.404930516408
 20
1200.957271171015
 30
0.0
 42
-0.2316969637064255
  0
VERTEX
  5
137
  8
LAYER_05
 10
1475.782321999731
 20
1155.879161165432
 30
0.0
 42
0.0498521182664676
  0
SEQEND
  5
138
  8
LAYER_05
  0
POLYLINE
  5
139
  8
LAYER_05
 66
     1
 10
0.0
 20
0.0
 30
0.0
 70
     1
  0
VERTEX
  5
13A
  8
LAYER_05
 10
1560.541508894773
 20
1213.200876839283
 30
0.0
 42
-0.0131474956221312
  0
VERTEX
  5
13B
  8
LAYER_05
 10
1561.634491461007
 20
1216.915382967069
 30
0.0
 42
-0.0268338861359533
  0
VERTEX
  5
13C
  8
LAYER_05
 10
1549.041832347012
 20
1219.914506517595
 30
0.0
 42
-0.0124757701056229
  0
VERTEX
  5
13D
  8
LAYER_05
 10
1548.315811780737
 20
1215.29210499298
 30
0.0
 42
-0.0258922980397015
  0
SEQEND
  5
13E
  8
LAYER_05
  0
POLYLINE
  5
13F
  8
LAYER_05
 66
     1
 10
0.0
 20
0.0
 30
0.0
 70
     1
  0
VERTEX
  5
140
  8
LAYER_05
 10
1438.573959564397
 20
1308.960949508508
 30
0.0
 42
-0.4021591612639222
  0
VERTEX
  5
141
  8
LAYER_05
 10
1379.295946449133
 20
1214.476344832097
 30
0.0
 42
0.0887484553849441
  0
VERTEX
  5
142
  8
LAYER_05
 10
1390.185515571388
 20
1188.95542557877
 30
0.0
 42
-0.1354194491313793
  0
VERTEX
  5
143
  8
LAYER_05
 10
1446.329743452808
 20
1177.713994968047
 30
0.0
 42
-0.2065860702332306
  0
VERTEX
  5
144
  8
LAYER_05
 10
1533.194433262065
 20
1216.11571723858
 30
0.0
 42
0.029271956996258
  0
VERTEX
  5
145
  8
LAYER_05
 10
1534.539197160439
 20
1225.233097714216
 30
0.0
 42
-0.2405859443497551
  0
VERTEX
  5
146
  8
LAYER_05
 10
1465.243877599141
 20
1310.390915656186
 30
0.0
 42
0.0853759522590398
  0
SEQEND
  5
147
  8
LAYER_05
  0
POLYLINE
  5
148
  8
LAYER_05
 66
     1
 10
0.0
 20
0.0
 30
0.0
 70
     1
  0
VERTEX
  5
149
  8
LAYER_05
 10
1872.6914819209
 20
1032.224589359656
 30
0.0
 42
0.2021592947015929
  0
VERTEX
  5
14A
  8
LAYER_05
 10
1789.84099369611
 20
1025.296978650678
 30
0.0
 42
0.8091436640885453
  0
VERTEX
  5
14B
  8
LAYER_05
 10
1731.054127602358
 20
1046.794331106207
 30
0.0
 42
0.1419179491065992
  0
VERTEX
  5
14C
  8
LAYER_05
 10
1701.71823064262
 20
1087.935985665421
 30
0.0
 42
-0.1830188628426173
  0
VERTEX
  5
14D
  8
LAYER_05
 10
1754.232157468678
 20
1127.437621437966
 30
0.0
 42
0.2471576800485429
  0
VERTEX
  5
14E
  8
LAYER_05
 10
1871.043278495622
 20
1056.79619594615
 30
0.0
 42
-0.0666615148124307
  0
SEQEND
  5
14F
  8
LAYER_05
  0
POLYLINE
  5
150
  8
LAYER_05
 66
     1
 10
0.0
 20
0.0
 30
0.0
 70
     1
  0
VERTEX
  5
151
  8
LAYER_05
 10
621.5836107164274
 20
1158.72465578345
 30
0.0
 42
0.4078015741171456
  0
VERTEX
  5
152
  8
LAYER_05
 10
693.9831417443914
 20
1263.403545841952
 30
0.0
 42
0.7369070774656065
  0
SEQEND
  5
153
  8
LAYER_05
  0
POLYLINE
  5
154
  8
LAYER_05
 66
     1
 10
0.0
 20
0.0
 30
0.0
 70
     1
  0
VERTEX
  5
155
  8
LAYER_05
 10
851.9183061519414
 20
1216.221754992976
 30
0.0
 42
0.1575980229405147
  0
VERTEX
  5
156
  8
LAYER_05
 10
907.2809543603894
 20
1224.686747697881
 30
0.0
 42
0.1147218335940299
  0
VERTEX
  5
157
  8
LAYER_05
 10
961.1021586387731
 20
1215.129779242068
 30
0.0
 42
-0.0274560438995052
  0
VERTEX
  5
158
  8
LAYER_05
 10
963.0569279126885
 20
1208.998801559521
 30
0.0
 42
0.2216010716903788
  0
VERTEX
  5
159
  8
LAYER_05
 10
891.2625778381614
 20
1137.600157327829
 30
0.0
 42
-0.4510983901619849
  0
SEQEND
  5
15A
  8
LAYER_05
  0
POLYLINE
  5
15B
  8
LAYER_05
 66
     1
 10
0.0
 20
0.0
 30
0.0
 70
     1
  0
VERTEX
  5
15C
  8
LAYER_05
 10
977.4619550466156
 20
1213.200876839283
 30
0.0
 42
0.0131474956221476
  0
VERTEX
  5
15D
  8
LAYER_05
 10
976.3689724803817
 20
1216.915382967069
 30
0.0
 42
0.0268338861359535
  0
VERTEX
  5
15E
  8
LAYER_05
 10
988.9616315943764
 20
1219.914506517595
 30
0.0
 42
0.0124757701057381
  0
VERTEX
  5
15F
  8
LAYER_05
 10
989.6876521606515
 20
1215.29210499298
 30
0.0
 42
0.0258922980397015
  0
SEQEND
  5
160
  8
LAYER_05
  0
POLYLINE
  5
161
  8
LAYER_05
 66
     1
 10
0.0
 20
0.0
 30
0.0
 70
     1
  0
VERTEX
  5
162
  8
LAYER_05
 10
860.0423633237914
 20
1230.320815931168
 30
0.0
 42
0.100239528366922
  0
VERTEX
  5
163
  8
LAYER_05
 10
890.0333431236054
 20
1233.776855747161
 30
0.0
 42
-0.0367945056483377
  0
VERTEX
  5
164
  8
LAYER_05
 10
875.7994386023603
 20
1244.362610865742
 30
0.0
 42
0.0907237706490834
  0
SEQEND
  5
165
  8
LAYER_05
  0
POLYLINE
  5
166
  8
LAYER_05
 66
     1
 10
0.0
 20
0.0
 30
0.0
 70
     1
  0
VERTEX
  5
167
  8
LAYER_05
 10
934.5877878184423
 20
1245.640558115359
 30
0.0
 42
-0.0433819693541298
  0
VERTEX
  5
168
  8
LAYER_05
 10
923.1350013791275
 20
1234.799583986296
 30
0.0
 42
0.0714865214445423
  0
VERTEX
  5
169
  8
LAYER_05
 10
952.8138258098962
 20
1229.979797958307
 30
0.0
 42
0.1035490974709324
  0
SEQEND
  5
16A
  8
LAYER_05
  0
POLYLINE
  5
16B
  8
LAYER_05
 66
     1
 10
0.0
 20
0.0
 30
0.0
 70
     1
  0
VERTEX
  5
16C
  8
LAYER_05
 10
1032.743894444613
 20
980.0029436032381
 30
0.0
 42
0.0914171561442953
  0
VERTEX
  5
16D
  8
LAYER_05
 10
1072.305852716829
 20
997.9876343886269
 30
0.0
 42
0.0316125001477724
  0
VERTEX
  5
16E
  8
LAYER_05
 10
1083.386380856132
 20
990.1054471442353
 30
0.0
 42
0.0259414102642487
  0
VERTEX
  5
16F
  8
LAYER_05
 10
1077.410804745395
 20
980.0029436032379
 30
0.0
  0
SEQEND
  5
170
  8
LAYER_05
  0
POLYLINE
  5
171
  8
LAYER_05
 66
     1
 10
0.0
 20
0.0
 30
0.0
 70
     1
  0
VERTEX
  5
172
  8
LAYER_05
 10
961.1387477612841
 20
984.2760460890132
 30
0.0
 42
-0.0158433407909868
  0
VERTEX
  5
173
  8
LAYER_05
 10
958.9461812316816
 20
980.0029436032385
 30
0.0
  0
VERTEX
  5
174
  8
LAYER_05
 10
848.4797753386691
 20
980.0029436032382
 30
0.0
 42
0.2553199135659233
  0
VERTEX
  5
175
  8
LAYER_05
 10
855.9366165278373
 20
1083.059299630707
 30
0.0
 42
-0.0980754806937703
  0
VERTEX
  5
176
  8
LAYER_05
 10
883.9895085630029
 20
1092.038726055875
 30
0.0
 42
0.3016364607655972
  0
SEQEND
  5
177
  8
LAYER_05
  0
POLYLINE
  5
178
  8
LAYER_05
 66
     1
 10
0.0
 20
0.0
 30
0.0
 70
     1
  0
VERTEX
  5
179
  8
LAYER_05
 10
629.5829977536171
 20
991.4390424993668
 30
0.0
 42
-0.0473454501260128
  0
VERTEX
  5
17A
  8
LAYER_05
 10
631.7667803341614
 20
980.0029436032382
 30
0.0
  0
VERTEX
  5
17B
  8
LAYER_05
 10
620.9601278550138
 20
980.0029436032382
 30
0.0
 42
-0.0389724296587445
  0
SEQEND
  5
17C
  8
LAYER_05
  0
POLYLINE
  5
17D
  8
LAYER_05
 66
     1
 10
0.0
 20
0.0
 30
0.0
 70
     1
  0
VERTEX
  5
17E
  8
LAYER_05
 10
1505.259569496776
 20
980.0029436032381
 30
0.0
 42
-0.0914171561442953
  0
VERTEX
  5
17F
  8
LAYER_05
 10
1465.69761122456
 20
997.9876343886267
 30
0.0
 42
-0.0316125001477607
  0
VERTEX
  5
180
  8
LAYER_05
 10
1454.617083085256
 20
990.1054471442353
 30
0.0
 42
-0.0259414102642487
  0
VERTEX
  5
181
  8
LAYER_05
 10
1460.592659195994
 20
980.0029436032379
 30
0.0
  0
SEQEND
  5
182
  8
LAYER_05
  0
POLYLINE
  5
183
  8
LAYER_05
 66
     1
 10
0.0
 20
0.0
 30
0.0
 70
     1
  0
VERTEX
  5
184
  8
LAYER_05
 10
1852.242636799451
 20
980.0029436032384
 30
0.0
 42
0.1128775714015895
  0
VERTEX
  5
185
  8
LAYER_05
 10
1870.436752469751
 20
1017.144896952811
 30
0.0
 42
0.3497269814283341
  0
VERTEX
  5
186
  8
LAYER_05
 10
1761.922938651352
 20
980.0029436032385
 30
0.0
  0
SEQEND
  5
187
  8
LAYER_05
  0
POLYLINE
  5
188
  8
LAYER_05
 66
     1
 10
0.0
 20
0.0
 30
0.0
 70
     1
  0
VERTEX
  5
189
  8
LAYER_05
 10
1374.108473790308
 20
1186.572388899105
 30
0.0
 42
0.0298382606690448
  0
VERTEX
  5
18A
  8
LAYER_05
 10
1361.780582983543
 20
1182.995691526188
 30
0.0
 42
0.0805347776236612
  0
VERTEX
  5
18B
  8
LAYER_05
 10
1355.994532063396
 20
1212.141306665249
 30
0.0
 42
0.0262153988803276
  0
VERTEX
  5
18C
  8
LAYER_05
 10
1364.435430645228
 20
1212.19549376394
 30
0.0
 42
0.073406913579498
  0
SEQEND
  5
18D
  8
LAYER_05
  0
POLYLINE
  5
18E
  8
LAYER_05
 66
     1
 10
0.0
 20
0.0
 30
0.0
 70
     1
  0
VERTEX
  5
18F
  8
LAYER_05
 10
1163.89499015108
 20
1186.572388899105
 30
0.0
 42
-0.0298255348501316
  0
VERTEX
  5
190
  8
LAYER_05
 10
1176.217723451799
 20
1182.997527605343
 30
0.0
 42
-0.1688650838306277
  0
VERTEX
  5
191
  8
LAYER_05
 10
1198.256812258516
 20
1239.845458667783
 30
0.0
 42
-0.0963260432319522
  0
VERTEX
  5
192
  8
LAYER_05
 10
1174.998200991428
 20
1243.726783005441
 30
0.0
 42
-0.1591463325032978
  0
SEQEND
  5
193
  8
LAYER_05
  0
POLYLINE
  5
194
  8
LAYER_05
 66
     1
 10
0.0
 20
0.0
 30
0.0
 70
     1
  0
VERTEX
  5
195
  8
LAYER_05
 10
1305.409513543512
 20
1026.49071312287
 30
0.0
 42
0.1084513630760439
  0
VERTEX
  5
196
  8
LAYER_05
 10
1269.001731970694
 20
994.3995212015136
 30
0.0
 42
0.108451363076044
  0
VERTEX
  5
197
  8
LAYER_05
 10
1232.593950397876
 20
1026.49071312287
 30
0.0
 42
0.1537164434795408
  0
VERTEX
  5
198
  8
LAYER_05
 10
1247.477770829038
 20
1089.413422106284
 30
0.0
 42
0.1175220086053806
  0
VERTEX
  5
199
  8
LAYER_05
 10
1290.52578546212
 20
1089.414688771628
 30
0.0
 42
0.1537194627647113
  0
SEQEND
  5
19A
  8
LAYER_05
  0
POLYLINE
  5
19B
  8
LAYER_05
 66
     1
 10
0.0
 20
0.0
 30
0.0
 70
     1
  0
VERTEX
  5
19C
  8
LAYER_05
 10
1311.219933011451
 20
1114.329960443402
 30
0.0
 42
0.1751176389462505
  0
VERTEX
  5
19D
  8
LAYER_05
 10
1343.267857203214
 20
1156.419433522962
 30
0.0
 42
0.1457889023329845
  0
SEQEND
  5
19E
  8
LAYER_05
  0
POLYLINE
  5
19F
  8
LAYER_05
 66
     1
 10
0.0
 20
0.0
 30
0.0
 70
     1
  0
VERTEX
  5
1A0
  8
LAYER_05
 10
1346.763699338242
 20
1176.31746717824
 30
0.0
 42
0.0451595389769202
  0
VERTEX
  5
1A1
  8
LAYER_05
 10
1330.586709271289
 20
1165.600021664909
 30
0.0
 42
0.2970430472588775
  0
VERTEX
  5
1A2
  8
LAYER_05
 10
1325.622443166315
 20
1219.618716393358
 30
0.0
 42
0.0424183339984275
  0
VERTEX
  5
1A3
  8
LAYER_05
 10
1338.428994961532
 20
1214.914904810274
 30
0.0
 42
-0.1289308970076672
  0
SEQEND
  5
1A4
  8
LAYER_05
  0
POLYLINE
  5
1A5
  8
LAYER_05
 66
     1
 10
0.0
 20
0.0
 30
0.0
 70
     1
  0
VERTEX
  5
1A6
  8
LAYER_05
 10
634.4875086546632
 20
1016.236626705548
 30
0.0
 42
0.2572791398189901
  0
VERTEX
  5
1A7
  8
LAYER_05
 10
569.1211600921172
 20
1050.820041177022
 30
0.0
  0
VERTEX
  5
1A8
  8
LAYER_05
 10
569.1211600921167
 20
1086.787101698756
 30
0.0
 42
0.1534723117995403
  0
VERTEX
  5
1A9
  8
LAYER_05
 10
651.6794971980452
 20
1056.687265285525
 30
0.0
 42
0.0709401701856185
  0
VERTEX
  5
1AA
  8
LAYER_05
 10
650.7886737026882
 20
1026.273073055607
 30
0.0
 42
0.0448098303918678
  0
SEQEND
  5
1AB
  8
LAYER_05
  0
POLYLINE
  5
1AC
  8
LAYER_05
 66
     1
 10
0.0
 20
0.0
 30
0.0
 70
     1
  0
VERTEX
  5
1AD
  8
LAYER_05
 10
1067.765311959354
 20
1139.449017601773
 30
0.0
 42
0.375372704349172
  0
VERTEX
  5
1AE
  8
LAYER_05
 10
1073.082325367123
 20
1017.640026693985
 30
0.0
 42
0.3307962450808821
  0
VERTEX
  5
1AF
  8
LAYER_05
 10
1099.064398756207
 20
1139.949072312994
 30
0.0
 42
-0.0840395559917159
  0
SEQEND
  5
1B0
  8
LAYER_05
  0
POLYLINE
  5
1B1
  8
LAYER_05
 66
     1
 10
0.0
 20
0.0
 30
0.0
 70
     1
  0
VERTEX
  5
1B2
  8
LAYER_05
 10
906.6799436557599
 20
1241.523492156062
 30
0.0
 42
0.053122600049912
  0
VERTEX
  5
1B3
  8
LAYER_05
 10
919.3833734382301
 20
1251.437937491003
 30
0.0
 42
0.1208274583574378
  0
VERTEX
  5
1B4
  8
LAYER_05
 10
891.453980339454
 20
1251.007521697086
 30
0.0
 42
0.0425081769317404
  0
SEQEND
  5
1B5
  8
LAYER_05
  0
POLYLINE
  5
1B6
  8
LAYER_05
 66
     1
 10
0.0
 20
0.0
 30
0.0
 70
     1
  0
VERTEX
  5
1B7
  8
LAYER_05
 10
1828.00963800913
 20
1255.915543349149
 30
0.0
 42
1.035201757313493
  0
VERTEX
  5
1B8
  8
LAYER_05
 10
1903.764083006995
 20
1146.385949624137
 30
0.0
 42
-0.3532862415946977
  0
SEQEND
  5
1B9
  8
LAYER_05
  0
POLYLINE
  5
1BA
  8
LAYER_05
 66
     1
 10
0.0
 20
0.0
 30
0.0
 70
     1
  0
VERTEX
  5
1BB
  8
LAYER_05
 10
1903.515955286725
 20
1016.236626705548
 30
0.0
 42
-0.2572791398189909
  0
VERTEX
  5
1BC
  8
LAYER_05
 10
1968.882303849271
 20
1050.820041177022
 30
0.0
  0
VERTEX
  5
1BD
  8
LAYER_05
 10
1968.882303849272
 20
1086.787101698756
 30
0.0
 42
-0.1534723117995397
  0
VERTEX
  5
1BE
  8
LAYER_05
 10
1886.323966743343
 20
1056.687265285525
 30
0.0
 42
-0.0709401701856227
  0
VERTEX
  5
1BF
  8
LAYER_05
 10
1887.2147902387
 20
1026.273073055607
 30
0.0
 42
-0.0448098303918645
  0
SEQEND
  5
1C0
  8
LAYER_05
  0
POLYLINE
  5
1C1
  8
LAYER_05
 66
     1
 10
0.0
 20
0.0
 30
0.0
 70
     1
  0
VERTEX
  5
1C2
  8
LAYER_05
 10
1470.238151982034
 20
1139.449017601773
 30
0.0
 42
-0.375372704349172
  0
VERTEX
  5
1C3
  8
LAYER_05
 10
1464.921138574266
 20
1017.640026693985
 30
0.0
 42
-0.3307962450808828
  0
VERTEX
  5
1C4
  8
LAYER_05
 10
1438.939065185182
 20
1139.949072312995
 30
0.0
 42
0.0840395559917508
  0
SEQEND
  5
1C5
  8
LAYER_05
  0
POLYLINE
  5
1C6
  8
LAYER_05
 66
     1
 10
0.0
 20
0.0
 30
0.0
 70
     1
  0
VERTEX
  5
1C7
  8
LAYER_05
 10
1677.961100617597
 20
1230.320815931168
 30
0.0
 42
-0.1002395283669222
  0
VERTEX
  5
1C8
  8
LAYER_05
 10
1647.970120817783
 20
1233.776855747162
 30
0.0
 42
0.0367945056483871
  0
VERTEX
  5
1C9
  8
LAYER_05
 10
1662.204025339028
 20
1244.362610865741
 30
0.0
 42
-0.0907237706490475
  0
SEQEND
  5
1CA
  8
LAYER_05
  0
POLYLINE
  5
1CB
  8
LAYER_05
 66
     1
 10
0.0
 20
0.0
 30
0.0
 70
     1
  0
VERTEX
  5
1CC
  8
LAYER_05
 10
1603.415676122946
 20
1245.640558115359
 30
0.0
 42
0.0433819693541351
  0
VERTEX
  5
1CD
  8
LAYER_05
 10
1614.868462562261
 20
1234.799583986296
 30
0.0
 42
-0.0714865214445712
  0
VERTEX
  5
1CE
  8
LAYER_05
 10
1585.189638131492
 20
1229.979797958307
 30
0.0
 42
-0.1035490974708703
  0
SEQEND
  5
1CF
  8
LAYER_05
  0
POLYLINE
  5
1D0
  8
LAYER_05
 66
     1
 10
0.0
 20
0.0
 30
0.0
 70
     1
  0
VERTEX
  5
1D1
  8
LAYER_05
 10
1858.812542036677
 20
1323.068300995749
 30
0.0
  0
VERTEX
  5
1D2
  8
LAYER_05
 10
1825.942924411432
 20
1323.068300995749
 30
0.0
 42
0.4258196123621683
  0
VERTEX
  5
1D3
  8
LAYER_05
 10
1761.927312048602
 20
1144.577010620364
 30
0.0
 42
-0.1016122684279974
  0
VERTEX
  5
1D4
  8
LAYER_05
 10
1805.258550263035
 20
1143.153272749055
 30
0.0
 42
-0.5216962607984317
  0
VERTEX
  5
1D5
  8
LAYER_05
 10
1831.076741532196
 20
1274.536710217552
 30
0.0
 42
-0.1342069418104623
  0
SEQEND
  5
1D6
  8
LAYER_05
  0
POLYLINE
  5
1D7
  8
LAYER_05
 66
     1
 10
0.0
 20
0.0
 30
0.0
 70
     1
  0
VERTEX
  5
1D8
  8
LAYER_05
 10
1576.864716180104
 20
984.2760460890132
 30
0.0
 42
0.0158433407909647
  0
VERTEX
  5
1D9
  8
LAYER_05
 10
1579.057282709707
 20
980.0029436032385
 30
0.0
  0
VERTEX
  5
1DA
  8
LAYER_05
 10
1689.523688602719
 20
980.0029436032382
 30
0.0
 42
-0.2553199135659031
  0
VERTEX
  5
1DB
  8
LAYER_05
 10
1682.066847413551
 20
1083.059299630706
 30
0.0
 42
0.0980754806937754
  0
VERTEX
  5
1DC
  8
LAYER_05
 10
1654.013955378386
 20
1092.038726055875
 30
0.0
 42
-0.301636460765654
  0
SEQEND
  5
1DD
  8
LAYER_05
  0
POLYLINE
  5
1DE
  8
LAYER_05
 66
     1
 10
0.0
 20
0.0
 30
0.0
 70
     1
  0
VERTEX
  5
1DF
  8
LAYER_05
 10
1891.18318398139
 20
980.0029436032381
 30
0.0
 42
-0.0766082334293912
  0
VERTEX
  5
1E0
  8
LAYER_05
 10
1896.470782442054
 20
1002.736620463934
 30
0.0
 42
0.0397406381604394
  0
VERTEX
  5
1E1
  8
LAYER_05
 10
1884.322974690842
 20
1010.842800968641
 30
0.0
 42
-0.078668151288539
  0
VERTEX
  5
1E2
  8
LAYER_05
 10
1870.728770272537
 20
980.0029436032382
 30
0.0
  0
SEQEND
  5
1E3
  8
LAYER_05
  0
POLYLINE
  5
1E4
  8
LAYER_05
 66
     1
 10
0.0
 20
0.0
 30
0.0
 70
     1
  0
VERTEX
  5
1E5
  8
LAYER_05
 10
1908.420466187772
 20
991.4390424993667
 30
0.0
 42
0.0473454501260295
  0
VERTEX
  5
1E6
  8
LAYER_05
 10
1906.236683607227
 20
980.0029436032382
 30
0.0
  0
VERTEX
  5
1E7
  8
LAYER_05
 10
1917.043336086375
 20
980.002943603238
 30
0.0
 42
0.0389724296587766
  0
SEQEND
  5
1E8
  8
LAYER_05
  0
POLYLINE
  5
1E9
  8
LAYER_05
 66
     1
 10
0.0
 20
0.0
 30
0.0
 70
     1
  0
VERTEX
  5
1EA
  8
LAYER_05
 10
980.5568478923838
 20
994.0416754095108
 30
0.0
 42
0.2031477823270933
  0
VERTEX
  5
1EB
  8
LAYER_05
 10
1061.082364905773
 20
1008.506919418852
 30
0.0
 42
-0.0865059479758708
  0
VERTEX
  5
1EC
  8
LAYER_05
 10
1041.017259284168
 20
1039.559087060084
 30
0.0
 42
-0.5324727489712027
  0
VERTEX
  5
1ED
  8
LAYER_05
 10
982.2976639165945
 20
1031.064927813625
 30
0.0
 42
-0.1031290308147881
  0
SEQEND
  5
1EE
  8
LAYER_05
  0
POLYLINE
  5
1EF
  8
LAYER_05
 66
     1
 10
0.0
 20
0.0
 30
0.0
 70
     1
  0
VERTEX
  5
1F0
  8
LAYER_05
 10
781.6979058119884
 20
997.8259911426253
 30
0.0
 42
-0.0499254859463163
  0
VERTEX
  5
1F1
  8
LAYER_05
 10
793.3943205061034
 20
980.0029436032384
 30
0.0
  0
VERTEX
  5
1F2
  8
LAYER_05
 10
809.5855202226705
 20
980.002943603238
 30
0.0
 42
-0.07745824979576
  0
VERTEX
  5
1F3
  8
LAYER_05
 10
802.3482161134017
 20
1007.016728123635
 30
0.0
 42
-0.1824573812641983
  0
SEQEND
  5
1F4
  8
LAYER_05
  0
POLYLINE
  5
1F5
  8
LAYER_05
 66
     1
 10
0.0
 20
0.0
 30
0.0
 70
     1
  0
VERTEX
  5
1F6
  8
LAYER_05
 10
685.760827141937
 20
980.0029436032384
 30
0.0
 42
-0.1128775714015895
  0
VERTEX
  5
1F7
  8
LAYER_05
 10
667.5667114716374
 20
1017.14489695281
 30
0.0
 42
-0.3497269814283345
  0
VERTEX
  5
1F8
  8
LAYER_05
 10
776.0805252900362
 20
980.0029436032385
 30
0.0
  0
SEQEND
  5
1F9
  8
LAYER_05
  0
POLYLINE
  5
1FA
  8
LAYER_05
 66
     1
 10
0.0
 20
0.0
 30
0.0
 70
     1
  0
VERTEX
  5
1FB
  8
LAYER_05
 10
689.5042644058303
 20
1279.983498990852
 30
0.0
 42
0.1537944256018541
  0
VERTEX
  5
1FC
  8
LAYER_05
 10
655.8208258734396
 20
1323.068300995749
 30
0.0
  0
VERTEX
  5
1FD
  8
LAYER_05
 10
569.1211600921167
 20
1323.068300995749
 30
0.0
  0
VERTEX
  5
1FE
  8
LAYER_05
 10
569.1211600921168
 20
1164.132279482552
 30
0.0
 42
0.1000772263946011
  0
VERTEX
  5
1FF
  8
LAYER_05
 10
604.489713537094
 20
1157.065177595592
 30
0.0
 42
-0.65278614522468
  0
SEQEND
  5
200
  8
LAYER_05
  0
POLYLINE
  5
201
  8
LAYER_05
 66
     1
 10
0.0
 20
0.0
 30
0.0
 70
     1
  0
VERTEX
  5
202
  8
LAYER_05
 10
849.8067453437158
 20
1323.068300995749
 30
0.0
  0
VERTEX
  5
203
  8
LAYER_05
 10
940.6366618675023
 20
1323.068300995749
 30
0.0
 42
-0.2055761636676093
  0
VERTEX
  5
204
  8
LAYER_05
 10
929.8695442306524
 20
1264.041873305589
 30
0.0
 42
0.1801676553611075
  0
VERTEX
  5
205
  8
LAYER_05
 10
878.4931510482522
 20
1262.466602873712
 30
0.0
 42
-0.1628020152493405
  0
SEQEND
  5
206
  8
LAYER_05
  0
POLYLINE
  5
207
  8
LAYER_05
 66
     1
 10
0.0
 20
0.0
 30
0.0
 70
     1
  0
VERTEX
  5
208
  8
LAYER_05
 10
679.1909219047117
 20
1323.068300995749
 30
0.0
  0
VERTEX
  5
209
  8
LAYER_05
 10
712.0605395299568
 20
1323.068300995749
 30
0.0
 42
-0.4258196123621675
  0
VERTEX
  5
20A
  8
LAYER_05
 10
776.076151892787
 20
1144.577010620364
 30
0.0
 42
0.1016122684280534
  0
VERTEX
  5
20B
  8
LAYER_05
 10
732.7449136783537
 20
1143.153272749055
 30
0.0
 42
0.5216962607984401
  0
VERTEX
  5
20C
  8
LAYER_05
 10
706.926722409193
 20
1274.536710217552
 30
0.0
 42
0.1342069418104797
  0
SEQEND
  5
20D
  8
LAYER_05
  0
POLYLINE
  5
20E
  8
LAYER_05
 66
     1
 10
0.0
 20
0.0
 30
0.0
 70
     1
  0
VERTEX
  5
20F
  8
LAYER_05
 10
1209.641653310182
 20
1020.353650924358
 30
0.0
 42
0.2933039605685276
  0
VERTEX
  5
210
  8
LAYER_05
 10
1106.587256645152
 20
995.2231455187608
 30
0.0
 42
0.314563831615573
  0
SEQEND
  5
211
  8
LAYER_05
  0
POLYLINE
  5
212
  8
LAYER_05
 66
     1
 10
0.0
 20
0.0
 30
0.0
 70
     1
  0
VERTEX
  5
213
  8
LAYER_05
 10
1104.508357989119
 20
980.0029436032382
 30
0.0
 42
-0.0194156166397084
  0
VERTEX
  5
214
  8
LAYER_05
 10
1096.735337092797
 20
983.0714876986458
 30
0.0
 42
0.0093581560892398
  0
VERTEX
  5
215
  8
LAYER_05
 10
1094.712619140435
 20
980.0029436032381
 30
0.0
  0
SEQEND
  5
216
  8
LAYER_05
  0
POLYLINE
  5
217
  8
LAYER_05
 66
     1
 10
0.0
 20
0.0
 30
0.0
 70
     1
  0
VERTEX
  5
218
  8
LAYER_05
 10
623.0110585660075
 20
1006.325443388283
 30
0.0
 42
0.0767894850016996
  0
VERTEX
  5
219
  8
LAYER_05
 10
603.6463326389467
 20
980.0029436032378
 30
0.0
  0
VERTEX
  5
21A
  8
LAYER_05
 10
569.1211600921167
 20
980.0029436032382
 30
0.0
  0
VERTEX
  5
21B
  8
LAYER_05
 10
569.121160092117
 20
1035.817344621554
 30
0.0
 42
-0.2670291040874564
  0
SEQEND
  5
21C
  8
LAYER_05
  0
POLYLINE
  5
21D
  8
LAYER_05
 66
     1
 10
0.0
 20
0.0
 30
0.0
 70
     1
  0
VERTEX
  5
21E
  8
LAYER_05
 10
1328.361810631207
 20
1020.353650924358
 30
0.0
 42
-0.2933039605685276
  0
VERTEX
  5
21F
  8
LAYER_05
 10
1431.416207296236
 20
995.2231455187605
 30
0.0
 42
-0.3145638316155718
  0
SEQEND
  5
220
  8
LAYER_05
  0
POLYLINE
  5
221
  8
LAYER_05
 66
     1
 10
0.0
 20
0.0
 30
0.0
 70
     1
  0
VERTEX
  5
222
  8
LAYER_05
 10
1433.49510595227
 20
980.0029436032382
 30
0.0
 42
0.0194156166397084
  0
VERTEX
  5
223
  8
LAYER_05
 10
1441.268126848591
 20
983.0714876986458
 30
0.0
 42
-0.0093581560892396
  0
VERTEX
  5
224
  8
LAYER_05
 10
1443.290844800953
 20
980.0029436032381
 30
0.0
  0
SEQEND
  5
225
  8
LAYER_05
  0
POLYLINE
  5
226
  8
LAYER_05
 66
     1
 10
0.0
 20
0.0
 30
0.0
 70
     1
  0
VERTEX
  5
227
  8
LAYER_05
 10
1557.446616049005
 20
994.0416754095108
 30
0.0
 42
-0.2031477823270955
  0
VERTEX
  5
228
  8
LAYER_05
 10
1476.921099035615
 20
1008.506919418852
 30
0.0
 42
0.0865059479758604
  0
VERTEX
  5
229
  8
LAYER_05
 10
1496.986204657219
 20
1039.559087060084
 30
0.0
 42
0.5324727489712054
  0
VERTEX
  5
22A
  8
LAYER_05
 10
1555.705800024794
 20
1031.064927813625
 30
0.0
 42
0.1031290308147412
  0
SEQEND
  5
22B
  8
LAYER_05
  0
POLYLINE
  5
22C
  8
LAYER_05
 66
     1
 10
0.0
 20
0.0
 30
0.0
 70
     1
  0
VERTEX
  5
22D
  8
LAYER_05
 10
1756.3055581294
 20
997.8259911426254
 30
0.0
 42
0.0499254859462935
  0
VERTEX
  5
22E
  8
LAYER_05
 10
1744.609143435285
 20
980.0029436032384
 30
0.0
  0
VERTEX
  5
22F
  8
LAYER_05
 10
1728.417943718718
 20
980.002943603238
 30
0.0
 42
0.0774582497957701
  0
VERTEX
  5
230
  8
LAYER_05
 10
1735.655247827987
 20
1007.016728123635
 30
0.0
 42
0.1824573812641323
  0
SEQEND
  5
231
  8
LAYER_05
  0
POLYLINE
  5
232
  8
LAYER_05
 66
     1
 10
0.0
 20
0.0
 30
0.0
 70
     1
  0
VERTEX
  5
233
  8
LAYER_05
 10
1072.759586342248
 20
1310.390915656186
 30
0.0
 42
-0.0757814692296433
  0
VERTEX
  5
234
  8
LAYER_05
 10
1096.488679763625
 20
1309.571916395674
 30
0.0
 42
0.1772972357562208
  0
VERTEX
  5
235
  8
LAYER_05
 10
1067.721521764035
 20
1293.202997978971
 30
0.0
 42
0.0371529926106666
  0
SEQEND
  5
236
  8
LAYER_05
  0
POLYLINE
  5
237
  8
LAYER_05
 66
     1
 10
0.0
 20
0.0
 30
0.0
 70
     1
  0
VERTEX
  5
238
  8
LAYER_05
 10
1292.968750804045
 20
1105.666993075825
 30
0.0
 42
-0.1036107214182708
  0
VERTEX
  5
239
  8
LAYER_05
 10
1311.452902951116
 20
1145.748851780513
 30
0.0
 42
-1.547959649654739
  0
VERTEX
  5
23A
  8
LAYER_05
 10
1302.502055787406
 20
1235.887646692355
 30
0.0
 42
-0.0743657961596534
  0
VERTEX
  5
23B
  8
LAYER_05
 10
1288.409739903933
 20
1255.103752099549
 30
0.0
 42
0.503746236059227
  0
VERTEX
  5
23C
  8
LAYER_05
 10
1191.234415961977
 20
1176.320353381535
 30
0.0
 42
-0.2158610928853445
  0
VERTEX
  5
23D
  8
LAYER_05
 10
1245.035132142117
 20
1105.665167421955
 30
0.0
 42
0.1577835962444649
  0
SEQEND
  5
23E
  8
LAYER_05
  0
POLYLINE
  5
23F
  8
LAYER_05
 66
     1
 10
0.0
 20
0.0
 30
0.0
 70
     1
  0
VERTEX
  5
240
  8
LAYER_05
 10
655.3551908158765
 20
1071.57111270378
 30
0.0
 42
-0.1826675437601846
  0
VERTEX
  5
241
  8
LAYER_05
 10
569.1211600921162
 20
1106.371383712388
 30
0.0
  0
VERTEX
  5
242
  8
LAYER_05
 10
569.121160092117
 20
1148.066504619163
 30
0.0
 42
0.1120527724218442
  0
VERTEX
  5
243
  8
LAYER_05
 10
615.7337099395634
 20
1142.685257716777
 30
0.0
 42
0.2420705542565494
  0
VERTEX
  5
244
  8
LAYER_05
 10
686.6035618053934
 20
1119.190001435064
 30
0.0
 42
0.1345177674535032
  0
SEQEND
  5
245
  8
LAYER_05
  0
POLYLINE
  5
246
  8
LAYER_05
 66
     1
 10
0.0
 20
0.0
 30
0.0
 70
     1
  0
VERTEX
  5
247
  8
LAYER_05
 10
1113.715820970064
 20
1143.920264667948
 30
0.0
 42
0.1367143733070307
  0
VERTEX
  5
248
  8
LAYER_05
 10
1154.762521809993
 20
1173.066425029832
 30
0.0
 42
-0.0630621002847613
  0
VERTEX
  5
249
  8
LAYER_05
 10
1177.10242561868
 20
1166.528827267036
 30
0.0
 42
0.0790395418528541
  0
VERTEX
  5
24A
  8
LAYER_05
 10
1185.732660743973
 20
1138.665124684702
 30
0.0
 42
0.4768904114190227
  0
VERTEX
  5
24B
  8
LAYER_05
 10
1120.520542569738
 20
1123.236981658818
 30
0.0
 42
0.0455175184950637
  0
SEQEND
  5
24C
  8
LAYER_05
  0
POLYLINE
  5
24D
  8
LAYER_05
 66
     1
 10
0.0
 20
0.0
 30
0.0
 70
     1
  0
VERTEX
  5
24E
  8
LAYER_05
 10
742.3193079680017
 20
1323.068300995749
 30
0.0
  0
VERTEX
  5
24F
  8
LAYER_05
 10
777.0511256975308
 20
1323.068300995749
 30
0.0
 42
0.0951163222196554
  0
VERTEX
  5
250
  8
LAYER_05
 10
777.1250583732293
 20
1288.737675247431
 30
0.0
 42
0.0840066865168141
  0
SEQEND
  5
251
  8
LAYER_05
  0
POLYLINE
  5
252
  8
LAYER_05
 66
     1
 10
0.0
 20
0.0
 30
0.0
 70
     1
  0
VERTEX
  5
253
  8
LAYER_05
 10
1175.728124574518
 20
980.0029436032382
 30
0.0
  0
VERTEX
  5
254
  8
LAYER_05
 10
1260.671230987858
 20
980.0029436032382
 30
0.0
 42
0.1296716513110122
  0
VERTEX
  5
255
  8
LAYER_05
 10
1223.981508966675
 20
1014.101319647613
 30
0.0
 42
-0.1399097173712493
  0
SEQEND
  5
256
  8
LAYER_05
  0
POLYLINE
  5
257
  8
LAYER_05
 66
     1
 10
0.0
 20
0.0
 30
0.0
 70
     1
  0
VERTEX
  5
258
  8
LAYER_05
 10
1285.126924914818
 20
1323.068300995749
 30
0.0
  0
VERTEX
  5
259
  8
LAYER_05
 10
1254.519806961097
 20
1323.068300995749
 30
0.0
 42
-0.2237824512987927
  0
VERTEX
  5
25A
  8
LAYER_05
 10
1250.041066754693
 20
1270.606532619982
 30
0.0
 42
-0.0865284092891552
  0
VERTEX
  5
25B
  8
LAYER_05
 10
1281.917774031166
 20
1271.659576435833
 30
0.0
 42
-0.1641692391597633
  0
SEQEND
  5
25C
  8
LAYER_05
  0
POLYLINE
  5
25D
  8
LAYER_05
 66
     1
 10
0.0
 20
0.0
 30
0.0
 70
     1
  0
VERTEX
  5
25E
  8
LAYER_05
 10
1882.648273125512
 20
1071.57111270378
 30
0.0
 42
0.1826675437601366
  0
VERTEX
  5
25F
  8
LAYER_05
 10
1968.882303849272
 20
1106.371383712388
 30
0.0
  0
VERTEX
  5
260
  8
LAYER_05
 10
1968.882303849271
 20
1148.066504619163
 30
0.0
 42
-0.1120527724218441
  0
VERTEX
  5
261
  8
LAYER_05
 10
1922.269754001825
 20
1142.685257716777
 30
0.0
 42
-0.2420705542564761
  0
VERTEX
  5
262
  8
LAYER_05
 10
1851.399902135995
 20
1119.190001435064
 30
0.0
 42
-0.1345177674535023
  0
SEQEND
  5
263
  8
LAYER_05
  0
POLYLINE
  5
264
  8
LAYER_05
 66
     1
 10
0.0
 20
0.0
 30
0.0
 70
     1
  0
VERTEX
  5
265
  8
LAYER_05
 10
1848.499199535558
 20
1279.983498990852
 30
0.0
 42
-0.1537944256017988
  0
VERTEX
  5
266
  8
LAYER_05
 10
1882.182638067949
 20
1323.068300995749
 30
0.0
  0
VERTEX
  5
267
  8
LAYER_05
 10
1968.882303849272
 20
1323.068300995749
 30
0.0
  0
VERTEX
  5
268
  8
LAYER_05
 10
1968.882303849271
 20
1164.132279482552
 30
0.0
 42
-0.1000772263945998
  0
VERTEX
  5
269
  8
LAYER_05
 10
1933.513750404294
 20
1157.065177595592
 30
0.0
 42
0.652786145224675
  0
SEQEND
  5
26A
  8
LAYER_05
  0
POLYLINE
  5
26B
  8
LAYER_05
 66
     1
 10
0.0
 20
0.0
 30
0.0
 70
     1
  0
VERTEX
  5
26C
  8
LAYER_05
 10
1424.287642971324
 20
1143.920264667948
 30
0.0
 42
-0.1367143733070307
  0
VERTEX
  5
26D
  8
LAYER_05
 10
1383.240942131396
 20
1173.066425029832
 30
0.0
 42
0.0630785610068775
  0
VERTEX
  5
26E
  8
LAYER_05
 10
1360.895467727507
 20
1166.526401587161
 30
0.0
 42
-0.079052593409338
  0
VERTEX
  5
26F
  8
LAYER_05
 10
1352.262366694491
 20
1138.658606892929
 30
0.0
 42
-0.4769662820049695
  0
VERTEX
  5
270
  8
LAYER_05
 10
1417.48292137165
 20
1123.236981658818
 30
0.0
 42
-0.0455175184950638
  0
SEQEND
  5
271
  8
LAYER_05
  0
POLYLINE
  5
272
  8
LAYER_05
 66
     1
 10
0.0
 20
0.0
 30
0.0
 70
     1
  0
VERTEX
  5
273
  8
LAYER_05
 10
1631.323520285629
 20
1241.523492156062
 30
0.0
 42
-0.0531226000499116
  0
VERTEX
  5
274
  8
LAYER_05
 10
1618.620090503158
 20
1251.437937491003
 30
0.0
 42
-0.1208274583574377
  0
VERTEX
  5
275
  8
LAYER_05
 10
1646.549483601934
 20
1251.007521697086
 30
0.0
 42
-0.0425081769317404
  0
SEQEND
  5
276
  8
LAYER_05
  0
POLYLINE
  5
277
  8
LAYER_05
 66
     1
 10
0.0
 20
0.0
 30
0.0
 70
     1
  0
VERTEX
  5
278
  8
LAYER_05
 10
1688.196718597673
 20
1323.068300995749
 30
0.0
  0
VERTEX
  5
279
  8
LAYER_05
 10
1597.366802073886
 20
1323.068300995749
 30
0.0
 42
0.2055761636675915
  0
VERTEX
  5
27A
  8
LAYER_05
 10
1608.133919710736
 20
1264.041873305589
 30
0.0
 42
-0.1801676553611611
  0
VERTEX
  5
27B
  8
LAYER_05
 10
1659.510312893136
 20
1262.466602873712
 30
0.0
 42
0.1628020152493417
  0
SEQEND
  5
27C
  8
LAYER_05
  0
POLYLINE
  5
27D
  8
LAYER_05
 66
     1
 10
0.0
 20
0.0
 30
0.0
 70
     1
  0
VERTEX
  5
27E
  8
LAYER_05
 10
1795.684155973387
 20
1323.068300995749
 30
0.0
  0
VERTEX
  5
27F
  8
LAYER_05
 10
1760.952338243858
 20
1323.068300995749
 30
0.0
 42
-0.0951163222196554
  0
VERTEX
  5
280
  8
LAYER_05
 10
1760.878405568159
 20
1288.737675247431
 30
0.0
 42
-0.0840066865167649
  0
SEQEND
  5
281
  8
LAYER_05
  0
POLYLINE
  5
282
  8
LAYER_05
 66
     1
 10
0.0
 20
0.0
 30
0.0
 70
     1
  0
VERTEX
  5
283
  8
LAYER_05
 10
1417.744733622968
 20
1323.068300995749
 30
0.0
 42
-0.0186651405850951
  0
VERTEX
  5
284
  8
LAYER_05
 10
1419.854821783591
 20
1318.654235112552
 30
0.0
 42
0.3170491803245131
  0
VERTEX
  5
285
  8
LAYER_05
 10
1362.423270965896
 20
1227.112749664793
 30
0.0
 42
-0.0542889823023483
  0
VERTEX
  5
286
  8
LAYER_05
 10
1348.261713100195
 20
1228.061497914477
 30
0.0
 42
0.1749106904600712
  0
VERTEX
  5
287
  8
LAYER_05
 10
1299.129867207625
 20
1267.537340754257
 30
0.0
 42
-0.2224931858079489
  0
VERTEX
  5
288
  8
LAYER_05
 10
1301.652441848483
 20
1323.068300995749
 30
0.0
  0
SEQEND
  5
289
  8
LAYER_05
  0
POLYLINE
  5
28A
  8
LAYER_05
 66
     1
 10
0.0
 20
0.0
 30
0.0
 70
     1
  0
VERTEX
  5
28B
  8
LAYER_05
 10
1362.27533936687
 20
980.0029436032382
 30
0.0
  0
VERTEX
  5
28C
  8
LAYER_05
 10
1277.332232953531
 20
980.0029436032382
 30
0.0
 42
-0.1296716513110122
  0
VERTEX
  5
28D
  8
LAYER_05
 10
1314.021954974713
 20
1014.101319647613
 30
0.0
 42
0.1399097173712493
  0
SEQEND
  5
28E
  8
LAYER_05
  0
POLYLINE
  5
28F
  8
LAYER_05
 66
     1
 10
0.0
 20
0.0
 30
0.0
 70
     1
  0
VERTEX
  5
290
  8
LAYER_05
 10
1914.992405375381
 20
1006.325443388283
 30
0.0
 42
-0.0767894850016736
  0
VERTEX
  5
291
  8
LAYER_05
 10
1934.357131302442
 20
980.0029436032378
 30
0.0
  0
VERTEX
  5
292
  8
LAYER_05
 10
1968.882303849272
 20
980.0029436032382
 30
0.0
  0
VERTEX
  5
293
  8
LAYER_05
 10
1968.882303849271
 20
1035.817344621554
 30
0.0
 42
0.2670291040874564
  0
SEQEND
  5
294
  8
LAYER_05
  0
POLYLINE
  5
295
  8
LAYER_05
 66
     1
 10
0.0
 20
0.0
 30
0.0
 70
     1
  0
VERTEX
  5
296
  8
LAYER_05
 10
1004.809030679324
 20
1216.11571723858
 30
0.0
 42
-0.0292719569961964
  0
VERTEX
  5
297
  8
LAYER_05
 10
1003.464266780949
 20
1225.233097714216
 30
0.0
 42
0.1514860734832938
  0
VERTEX
  5
298
  8
LAYER_05
 10
1057.388354833729
 20
1272.169550735746
 30
0.0
 42
1.069216104616041
  0
VERTEX
  5
299
  8
LAYER_05
 10
1152.455633218264
 20
1258.395811789864
 30
0.0
 42
0.02896816465076
  0
VERTEX
  5
29A
  8
LAYER_05
 10
1157.744016147784
 20
1253.582174456696
 30
0.0
 42
-0.2172943139708354
  0
VERTEX
  5
29B
  8
LAYER_05
 10
1147.817948370001
 20
1188.95542557877
 30
0.0
 42
0.1354194491313776
  0
VERTEX
  5
29C
  8
LAYER_05
 10
1091.673720488581
 20
1177.713994968046
 30
0.0
 42
0.2065860702331717
  0
SEQEND
  5
29D
  8
LAYER_05
  0
CIRCLE
  5
29E
  8
LAYER_05
 10
1104.460740850895
 20
1262.099080631525
 30
0.0
 40
33.13755180177949
  0
CIRCLE
  5
29F
  8
LAYER_05
 10
779.8492989465963
 20
1029.774113137821
 30
0.0
 40
17.00156006138904
  0
CIRCLE
  5
2A0
  8
LAYER_05
 10
1008.80011639844
 20
1055.064657371385
 30
0.0
 40
20.75425857709935
  0
CIRCLE
  5
2A1
  8
LAYER_05
 10
1159.375105282914
 20
1104.539698532966
 30
0.0
 40
28.11920036271999
  0
CIRCLE
  5
2A2
  8
LAYER_05
 10
-1758.154164994792
 20
1029.774113137821
 30
0.0
 40
17.00156006138904
210
0.0
220
0.0
230
-1.0
  0
CIRCLE
  5
2A3
  8
LAYER_05
 10
-1529.203347542948
 20
1055.064657371385
 30
0.0
 40
20.75425857709935
210
0.0
220
0.0
230
-1.0
  0
CIRCLE
  5
2A4
  8
LAYER_05
 10
-1378.628358658474
 20
1104.539698532966
 30
0.0
 40
28.11920036271999
210
0.0
220
0.0
230
-1.0
  0
CIRCLE
  5
2A5
  8
LAYER_05
 10
1286.652353403249
 20
1188.799949609921
 30
0.0
 40
34.68364199807986
  0
ENDSEC
  0
EOF
