  0
SECTION
  2
HEADER
  9
$ACADVER
  1
AC1009
  9
$DWGCODEPAGE
  3
ansi_1252
  9
$INSBASE
 10
0.0
 20
0.0
 30
0.0
  9
$EXTMIN
 10
1.000000000000000E+20
 20
1.000000000000000E+20
 30
1.000000000000000E+20
  9
$EXTMAX
 10
-1.000000000000000E+20
 20
-1.000000000000000E+20
 30
-1.000000000000000E+20
  9
$LIMMIN
 10
0.0
 20
0.0
  9
$LIMMAX
 10
12.0
 20
9.0
  9
$ORTHOMODE
 70
     0
  9
$REGENMODE
 70
     1
  9
$FILLMODE
 70
     1
  9
$QTEXTMODE
 70
     0
  9
$MIRRTEXT
 70
     1
  9
$DRAGMODE
 70
     2
  9
$LTSCALE
 40
1.0
  9
$OSMODE
 70
    37
  9
$ATTMODE
 70
     1
  9
$TEXTSIZE
 40
0.2
  9
$TRACEWID
 40
0.05
  9
$TEXTSTYLE
  7
STANDARD
  9
$CLAYER
  8
LAYER_01
  9
$CELTYPE
  6
BYLAYER
  9
$CECOLOR
 62
   256
  9
$DIMSCALE
 40
1.0
  9
$DIMASZ
 40
0.18
  9
$DIMEXO
 40
0.0625
  9
$DIMDLI
 40
0.38
  9
$DIMRND
 40
0.0
  9
$DIMDLE
 40
0.0
  9
$DIMEXE
 40
0.18
  9
$DIMTP
 40
0.0
  9
$DIMTM
 40
0.0
  9
$DIMTXT
 40
0.18
  9
$DIMCEN
 40
0.09
  9
$DIMTSZ
 40
0.0
  9
$DIMTOL
 70
     0
  9
$DIMLIM
 70
     0
  9
$DIMTIH
 70
     1
  9
$DIMTOH
 70
     1
  9
$DIMSE1
 70
     0
  9
$DIMSE2
 70
     0
  9
$DIMTAD
 70
     0
  9
$DIMZIN
 70
     0
  9
$DIMBLK
  1

  9
$DIMASO
 70
     1
  9
$DIMSHO
 70
     1
  9
$DIMPOST
  1

  9
$DIMAPOST
  1

  9
$DIMALT
 70
     0
  9
$DIMALTD
 70
     2
  9
$DIMALTF
 40
25.4
  9
$DIMLFAC
 40
1.0
  9
$DIMTOFL
 70
     0
  9
$DIMTVP
 40
0.0
  9
$DIMTIX
 70
     0
  9
$DIMSOXD
 70
     0
  9
$DIMSAH
 70
     0
  9
$DIMBLK1
  1

  9
$DIMBLK2
  1

  9
$DIMSTYLE
  2
STANDARD_ACAD
  9
$DIMCLRD
 70
     0
  9
$DIMCLRE
 70
     0
  9
$DIMCLRT
 70
     0
  9
$DIMTFAC
 40
1.0
  9
$DIMGAP
 40
0.09
  9
$LUNITS
 70
     2
  9
$LUPREC
 70
     3
  9
$SKETCHINC
 40
0.1
  9
$FILLETRAD
 40
0.5
  9
$AUNITS
 70
     0
  9
$AUPREC
 70
     0
  9
$MENU
  1
.
  9
$ELEVATION
 40
0.0
  9
$PELEVATION
 40
0.0
  9
$THICKNESS
 40
0.0
  9
$LIMCHECK
 70
     0
  9
$CHAMFERA
 40
0.0
  9
$CHAMFERB
 40
0.0
  9
$SKPOLY
 70
     0
  9
$TDCREATE
 40
2459929.955177801
  9
$TDUPDATE
 40
2459929.955177882
  9
$TDINDWG
 40
0.0000000116
  9
$TDUSRTIMER
 40
0.0000000116
  9
$USRTIMER
 70
     1
  9
$ANGBASE
 50
0.0
  9
$ANGDIR
 70
     0
  9
$PDMODE
 70
     0
  9
$PDSIZE
 40
0.0
  9
$PLINEWID
 40
0.0
  9
$COORDS
 70
     1
  9
$SPLFRAME
 70
     0
  9
$SPLINETYPE
 70
     6
  9
$SPLINESEGS
 70
     8
  9
$ATTDIA
 70
     0
  9
$ATTREQ
 70
     1
  9
$HANDLING
 70
     1
  9
$HANDSEED
  5
1A0
  9
$SURFTAB1
 70
     6
  9
$SURFTAB2
 70
     6
  9
$SURFTYPE
 70
     6
  9
$SURFU
 70
     6
  9
$SURFV
 70
     6
  9
$UCSNAME
  2

  9
$UCSORG
 10
0.0
 20
0.0
 30
0.0
  9
$UCSXDIR
 10
1.0
 20
0.0
 30
0.0
  9
$UCSYDIR
 10
0.0
 20
1.0
 30
0.0
  9
$PUCSNAME
  2

  9
$PUCSORG
 10
0.0
 20
0.0
 30
0.0
  9
$PUCSXDIR
 10
1.0
 20
0.0
 30
0.0
  9
$PUCSYDIR
 10
0.0
 20
1.0
 30
0.0
  9
$USERI1
 70
     0
  9
$USERI2
 70
     0
  9
$USERI3
 70
     0
  9
$USERI4
 70
     0
  9
$USERI5
 70
     0
  9
$USERR1
 40
0.0
  9
$USERR2
 40
0.0
  9
$USERR3
 40
0.0
  9
$USERR4
 40
0.0
  9
$USERR5
 40
0.0
  9
$WORLDVIEW
 70
     1
  9
$SHADEDGE
 70
     3
  9
$SHADEDIF
 70
    70
  9
$TILEMODE
 70
     1
  9
$MAXACTVP
 70
    64
  9
$PLIMCHECK
 70
     0
  9
$PEXTMIN
 10
1.000000000000000E+20
 20
1.000000000000000E+20
 30
1.000000000000000E+20
  9
$PEXTMAX
 10
-1.000000000000000E+20
 20
-1.000000000000000E+20
 30
-1.000000000000000E+20
  9
$PLIMMIN
 10
0.0
 20
0.0
  9
$PLIMMAX
 10
12.0
 20
9.0
  9
$UNITMODE
 70
     0
  9
$VISRETAIN
 70
     1
  9
$PLINEGEN
 70
     0
  9
$PSLTSCALE
 70
     1
  0
ENDSEC
  0
SECTION
  2
TABLES
  0
TABLE
  2
VPORT
 70
     1
  0
VPORT
  2
*ACTIVE
 70
     0
 10
0.0
 20
0.0
 11
1.0
 21
1.0
 12
10.42990654205607
 22
4.5
 13
0.0
 23
0.0
 14
0.5
 24
0.5
 15
0.5
 25
0.5
 16
0.0
 26
0.0
 36
1.0
 17
0.0
 27
0.0
 37
0.0
 40
9.0
 41
1.972972972850329
 42
50.0
 43
0.0
 44
0.0
 50
0.0
 51
0.0
 71
     0
 72
   100
 73
     1
 74
     3
 75
     0
 76
     0
 77
     0
 78
     0
  0
ENDTAB
  0
TABLE
  2
LTYPE
 70
     1
  0
LTYPE
  2
CONTINUOUS
 70
     0
  3
Solid line
 72
    65
 73
     0
 40
0.0
  0
ENDTAB
  0
TABLE
  2
LAYER
 70
     2
  0
LAYER
  2
0
 70
     0
 62
     7
  6
CONTINUOUS
  0
LAYER
  2
LAYER_01
 70
     0
 62
     1
  6
CONTINUOUS
  0
ENDTAB
  0
TABLE
  2
STYLE
 70
     1
  0
STYLE
  2
STANDARD
 70
     0
 40
0.0
 41
1.0
 50
0.0
 71
     0
 42
0.2
  3
txt
  4

  0
ENDTAB
  0
TABLE
  2
VIEW
 70
     0
  0
ENDTAB
  0
TABLE
  2
UCS
 70
     0
  0
ENDTAB
  0
TABLE
  2
APPID
 70
     2
  0
APPID
  2
ACAD
 70
     0
  0
APPID
  2
RHINO
 70
     0
  0
ENDTAB
  0
TABLE
  2
DIMSTYLE
 70
     1
  0
DIMSTYLE
  2
STANDARD_ACAD
 70
     0
  3

  4

  5

  6

  7

 40
1.0
 41
0.18
 42
0.0625
 43
0.38
 44
0.18
 45
0.0
 46
0.0
 47
0.0
 48
0.0
140
0.18
141
0.09
142
0.0
143
25.4
144
1.0
145
0.0
146
1.0
147
0.09
 71
     0
 72
     0
 73
     1
 74
     1
 75
     0
 76
     0
 77
     0
 78
     0
170
     0
171
     2
172
     0
173
     0
174
     0
175
     0
176
     0
177
     0
178
     0
  0
ENDTAB
  0
ENDSEC
  0
SECTION
  2
BLOCKS
  0
BLOCK
  8
0
  2
$MODEL_SPACE
 70
     0
 10
0.0
 20
0.0
 30
0.0
  3
$MODEL_SPACE
  1

  0
ENDBLK
  5
21
  8
0
  0
BLOCK
 67
     1
  8
0
  2
$PAPER_SPACE
 70
     0
 10
0.0
 20
0.0
 30
0.0
  3
$PAPER_SPACE
  1

  0
ENDBLK
  5
1D
 67
     1
  8
0
  0
ENDSEC
  0
SECTION
  2
ENTITIES
  0
POLYLINE
  5
70
  8
LAYER_01
 66
     1
 10
0.0
 20
0.0
 30
0.0
 70
     1
  0
VERTEX
  5
71
  8
LAYER_01
 10
15207.89282383996
 20
23225.86065297551
 30
0.0
  0
VERTEX
  5
72
  8
LAYER_01
 10
15207.89282383996
 20
11378.43581597391
 30
0.0
  0
VERTEX
  5
73
  8
LAYER_01
 10
19350.60549626014
 20
11378.43581597391
 30
0.0
  0
VERTEX
  5
74
  8
LAYER_01
 10
19350.60549626014
 20
23225.86065297551
 30
0.0
  0
SEQEND
  5
75
  8
LAYER_01
  0
POLYLINE
  5
76
  8
LAYER_01
 66
     1
 10
0.0
 20
0.0
 30
0.0
 70
     1
  0
VERTEX
  5
77
  8
LAYER_01
 10
16783.27758417412
 20
20321.90396169854
 30
0.0
 42
-0.1215649993154727
  0
VERTEX
  5
78
  8
LAYER_01
 10
16405.8015053716
 20
20430.55115009069
 30
0.0
 42
-0.1001920887753593
  0
VERTEX
  5
79
  8
LAYER_01
 10
16462.58359027387
 20
19957.97419483525
 30
0.0
 42
-0.1392042492979507
  0
SEQEND
  5
7A
  8
LAYER_01
  0
POLYLINE
  5
7B
  8
LAYER_01
 66
     1
 10
0.0
 20
0.0
 30
0.0
 70
     1
  0
VERTEX
  5
7C
  8
LAYER_01
 10
18013.59090821892
 20
18353.24973171693
 30
0.0
 42
-0.3331048901553344
  0
VERTEX
  5
7D
  8
LAYER_01
 10
18444.00180410964
 20
18744.43644778769
 30
0.0
 42
-0.1409159545830493
  0
VERTEX
  5
7E
  8
LAYER_01
 10
18108.50180510631
 20
19301.01259940473
 30
0.0
 42
-0.2403036411732509
  0
VERTEX
  5
7F
  8
LAYER_01
 10
17537.81926071668
 20
18730.45249076771
 30
0.0
 42
-0.1357886308168189
  0
SEQEND
  5
80
  8
LAYER_01
  0
POLYLINE
  5
81
  8
LAYER_01
 66
     1
 10
0.0
 20
0.0
 30
0.0
 70
     1
  0
VERTEX
  5
82
  8
LAYER_01
 10
15991.89789632203
 20
17396.8620638899
 30
0.0
 42
-0.2026844074119226
  0
VERTEX
  5
83
  8
LAYER_01
 10
15399.91784803527
 20
16675.06043183368
 30
0.0
 42
-0.1908560359596712
  0
VERTEX
  5
84
  8
LAYER_01
 10
16168.06680211552
 20
16334.68996783473
 30
0.0
 42
-0.2941154204942577
  0
VERTEX
  5
85
  8
LAYER_01
 10
16506.2104195705
 20
16707.11691116402
 30
0.0
 42
-0.1962126902854642
  0
SEQEND
  5
86
  8
LAYER_01
  0
POLYLINE
  5
87
  8
LAYER_01
 66
     1
 10
0.0
 20
0.0
 30
0.0
 70
     1
  0
VERTEX
  5
88
  8
LAYER_01
 10
16027.01855693032
 20
21368.13390991126
 30
0.0
 42
-0.1172193363526316
  0
VERTEX
  5
89
  8
LAYER_01
 10
15693.70863937829
 20
21175.0675654196
 30
0.0
 42
-0.0755796182552805
  0
VERTEX
  5
8A
  8
LAYER_01
 10
16007.58874148997
 20
20997.56117977293
 30
0.0
 42
-0.1146587273593973
  0
SEQEND
  5
8B
  8
LAYER_01
  0
POLYLINE
  5
8C
  8
LAYER_01
 66
     1
 10
0.0
 20
0.0
 30
0.0
 70
     1
  0
VERTEX
  5
8D
  8
LAYER_01
 10
16644.48761852554
 20
21942.91710235423
 30
0.0
 42
-0.1103176537144867
  0
VERTEX
  5
8E
  8
LAYER_01
 10
16269.5876538742
 20
22142.38906273353
 30
0.0
 42
-0.1231676638783887
  0
VERTEX
  5
8F
  8
LAYER_01
 10
16253.46246773767
 20
21738.54604440629
 30
0.0
 42
-0.1370877657440612
  0
SEQEND
  5
90
  8
LAYER_01
  0
POLYLINE
  5
91
  8
LAYER_01
 66
     1
 10
0.0
 20
0.0
 30
0.0
 70
     1
  0
VERTEX
  5
92
  8
LAYER_01
 10
18224.68489564842
 20
17548.97326625752
 30
0.0
 42
-0.0994660381096348
  0
VERTEX
  5
93
  8
LAYER_01
 10
18426.90501828379
 20
17780.80544300042
 30
0.0
 42
-0.1164036279537988
  0
VERTEX
  5
94
  8
LAYER_01
 10
18218.55093952428
 20
17859.67034868664
 30
0.0
 42
-0.0685623267583121
  0
SEQEND
  5
95
  8
LAYER_01
  0
POLYLINE
  5
96
  8
LAYER_01
 66
     1
 10
0.0
 20
0.0
 30
0.0
 70
     1
  0
VERTEX
  5
97
  8
LAYER_01
 10
18184.76751608733
 20
22131.19391475032
 30
0.0
 42
-0.1741358307800804
  0
VERTEX
  5
98
  8
LAYER_01
 10
17855.50871448962
 20
22675.38467001426
 30
0.0
 42
-0.3065945142445319
  0
VERTEX
  5
99
  8
LAYER_01
 10
17065.66007177706
 20
21921.4082309025
 30
0.0
 42
-0.207334994559553
  0
VERTEX
  5
9A
  8
LAYER_01
 10
17555.6787222862
 20
21491.58038629038
 30
0.0
 42
-0.2969257163506014
  0
SEQEND
  5
9B
  8
LAYER_01
  0
POLYLINE
  5
9C
  8
LAYER_01
 66
     1
 10
0.0
 20
0.0
 30
0.0
 70
     1
  0
VERTEX
  5
9D
  8
LAYER_01
 10
18338.63894121463
 20
16621.68963675733
 30
0.0
 42
-0.203979043084073
  0
VERTEX
  5
9E
  8
LAYER_01
 10
18122.52302220982
 20
17193.90885983122
 30
0.0
 42
-0.3147949165342754
  0
VERTEX
  5
9F
  8
LAYER_01
 10
16989.16978838029
 20
16548.4538643887
 30
0.0
 42
-0.1644629728680153
  0
VERTEX
  5
A0
  8
LAYER_01
 10
17090.77219716071
 20
16268.76766140418
 30
0.0
 42
-0.3105927851522933
  0
SEQEND
  5
A1
  8
LAYER_01
  0
POLYLINE
  5
A2
  8
LAYER_01
 66
     1
 10
0.0
 20
0.0
 30
0.0
 70
     1
  0
VERTEX
  5
A3
  8
LAYER_01
 10
18099.51870943329
 20
19875.57474084585
 30
0.0
 42
-0.1658105581451777
  0
VERTEX
  5
A4
  8
LAYER_01
 10
18502.59063517985
 20
20518.70391333931
 30
0.0
 42
-0.3376761861173844
  0
VERTEX
  5
A5
  8
LAYER_01
 10
17617.94994583455
 20
20977.59576670551
 30
0.0
 42
-0.1957044164676423
  0
VERTEX
  5
A6
  8
LAYER_01
 10
17275.51081631822
 20
20463.10413872266
 30
0.0
 42
-0.3127806783263082
  0
SEQEND
  5
A7
  8
LAYER_01
  0
POLYLINE
  5
A8
  8
LAYER_01
 66
     1
 10
0.0
 20
0.0
 30
0.0
 70
     1
  0
VERTEX
  5
A9
  8
LAYER_01
 10
19249.19850329613
 20
13618.69215066683
 30
0.0
  0
VERTEX
  5
AA
  8
LAYER_01
 10
19249.17062824775
 20
13430.3381299505
 30
0.0
 42
0.1844825518349397
  0
VERTEX
  5
AB
  8
LAYER_01
 10
18810.51576243502
 20
13659.9553400078
 30
0.0
 42
-0.1135295924515045
  0
SEQEND
  5
AC
  8
LAYER_01
  0
POLYLINE
  5
AD
  8
LAYER_01
 66
     1
 10
0.0
 20
0.0
 30
0.0
 70
     1
  0
VERTEX
  5
AE
  8
LAYER_01
 10
18853.59156791102
 20
17940.97184119917
 30
0.0
 42
-0.1316501194350345
  0
VERTEX
  5
AF
  8
LAYER_01
 10
19249.8263539733
 20
17861.13140574102
 30
0.0
  0
VERTEX
  5
B0
  8
LAYER_01
 10
19249.91058547754
 20
18430.29068694443
 30
0.0
 42
-0.0699000519708407
  0
VERTEX
  5
B1
  8
LAYER_01
 10
18925.70292748347
 20
18474.19642122156
 30
0.0
 42
-0.3028274491229079
  0
SEQEND
  5
B2
  8
LAYER_01
  0
POLYLINE
  5
B3
  8
LAYER_01
 66
     1
 10
0.0
 20
0.0
 30
0.0
 70
     1
  0
VERTEX
  5
B4
  8
LAYER_01
 10
16612.63982183006
 20
13324.3929675192
 30
0.0
 42
-0.0323620741876826
  0
VERTEX
  5
B5
  8
LAYER_01
 10
16748.96024834171
 20
13353.7789520666
 30
0.0
 42
-0.0588452157797788
  0
VERTEX
  5
B6
  8
LAYER_01
 10
16639.14248362376
 20
13526.56569093687
 30
0.0
 42
-0.0796578352367046
  0
SEQEND
  5
B7
  8
LAYER_01
  0
POLYLINE
  5
B8
  8
LAYER_01
 66
     1
 10
0.0
 20
0.0
 30
0.0
 70
     1
  0
VERTEX
  5
B9
  8
LAYER_01
 10
15308.92995384315
 20
18486.40952399414
 30
0.0
 42
-0.4439745401331418
  0
VERTEX
  5
BA
  8
LAYER_01
 10
15308.71048550616
 20
17003.44371391861
 30
0.0
  0
VERTEX
  5
BB
  8
LAYER_01
 10
15308.6915458124
 20
16875.46662766641
 30
0.0
 42
0.5953209390138652
  0
VERTEX
  5
BC
  8
LAYER_01
 10
15308.9462722632
 20
18596.67444581091
 30
0.0
  0
SEQEND
  5
BD
  8
LAYER_01
  0
POLYLINE
  5
BE
  8
LAYER_01
 66
     1
 10
0.0
 20
0.0
 30
0.0
 70
     1
  0
VERTEX
  5
BF
  8
LAYER_01
 10
17144.24489991712
 20
23125.54013499509
 30
0.0
 42
-0.8749460752190628
  0
VERTEX
  5
C0
  8
LAYER_01
 10
16562.07076191278
 20
23125.45154746678
 30
0.0
  0
SEQEND
  5
C1
  8
LAYER_01
  0
POLYLINE
  5
C2
  8
LAYER_01
 66
     1
 10
0.0
 20
0.0
 30
0.0
 70
     1
  0
VERTEX
  5
C3
  8
LAYER_01
 10
15308.98452643036
 20
18855.16103552763
 30
0.0
  0
VERTEX
  5
C4
  8
LAYER_01
 10
15308.98231945655
 20
18840.24832996549
 30
0.0
 42
-0.237276060408678
  0
VERTEX
  5
C5
  8
LAYER_01
 10
16006.85876334029
 20
18019.8363755408
 30
0.0
 42
-0.2681807066847903
  0
VERTEX
  5
C6
  8
LAYER_01
 10
16843.93289682744
 20
18792.69440901387
 30
0.0
 42
-0.2830193247379335
  0
VERTEX
  5
C7
  8
LAYER_01
 10
16376.10946074117
 20
19597.33661242832
 30
0.0
 42
-0.2943679503850058
  0
SEQEND
  5
C8
  8
LAYER_01
  0
POLYLINE
  5
C9
  8
LAYER_01
 66
     1
 10
0.0
 20
0.0
 30
0.0
 70
     1
  0
VERTEX
  5
CA
  8
LAYER_01
 10
16553.15668127326
 20
13930.74391944332
 30
0.0
 42
-0.3166876845088747
  0
VERTEX
  5
CB
  8
LAYER_01
 10
17155.47184345957
 20
14735.06451766714
 30
0.0
 42
-0.2735389435395415
  0
VERTEX
  5
CC
  8
LAYER_01
 10
16874.9182722345
 20
15865.88419783193
 30
0.0
 42
-0.2385218673061195
  0
VERTEX
  5
CD
  8
LAYER_01
 10
16457.483254089
 20
15825.53890177312
 30
0.0
 42
-0.3629489545885605
  0
VERTEX
  5
CE
  8
LAYER_01
 10
15835.46395187621
 20
14501.12071893858
 30
0.0
 42
-0.2561481868179476
  0
SEQEND
  5
CF
  8
LAYER_01
  0
POLYLINE
  5
D0
  8
LAYER_01
 66
     1
 10
0.0
 20
0.0
 30
0.0
 70
     1
  0
VERTEX
  5
D1
  8
LAYER_01
 10
15992.4934472638
 20
11478.53998940442
 30
0.0
  0
VERTEX
  5
D2
  8
LAYER_01
 10
16193.96257439855
 20
11478.57064630042
 30
0.0
 42
-0.0777548498291545
  0
VERTEX
  5
D3
  8
LAYER_01
 10
15981.11058294055
 20
11735.16882925801
 30
0.0
 42
-0.0542815721469539
  0
SEQEND
  5
D4
  8
LAYER_01
  0
POLYLINE
  5
D5
  8
LAYER_01
 66
     1
 10
0.0
 20
0.0
 30
0.0
 70
     1
  0
VERTEX
  5
D6
  8
LAYER_01
 10
18149.91449196747
 20
12589.24030487026
 30
0.0
 42
0.4881580854296121
  0
VERTEX
  5
D7
  8
LAYER_01
 10
19248.98254247877
 20
12159.4269424678
 30
0.0
  0
VERTEX
  5
D8
  8
LAYER_01
 10
19249.034629689
 20
12511.38455501189
 30
0.0
 42
-0.4939055704353721
  0
SEQEND
  5
D9
  8
LAYER_01
  0
POLYLINE
  5
DA
  8
LAYER_01
 66
     1
 10
0.0
 20
0.0
 30
0.0
 70
     1
  0
VERTEX
  5
DB
  8
LAYER_01
 10
15309.18765696523
 20
20227.73095765069
 30
0.0
 42
-0.374048570413247
  0
VERTEX
  5
DC
  8
LAYER_01
 10
15309.08178387183
 20
19512.33765821793
 30
0.0
  0
SEQEND
  5
DD
  8
LAYER_01
  0
POLYLINE
  5
DE
  8
LAYER_01
 66
     1
 10
0.0
 20
0.0
 30
0.0
 70
     1
  0
VERTEX
  5
DF
  8
LAYER_01
 10
19124.4385148659
 20
13834.57895243299
 30
0.0
 42
-0.470114311761143
  0
VERTEX
  5
E0
  8
LAYER_01
 10
19249.43726838721
 20
15232.04773338664
 30
0.0
  0
VERTEX
  5
E1
  8
LAYER_01
 10
19249.61930335081
 20
16462.0731255074
 30
0.0
 42
-0.1753951908679182
  0
VERTEX
  5
E2
  8
LAYER_01
 10
18721.52390410407
 20
16402.10245679433
 30
0.0
 42
-0.6404411719537074
  0
VERTEX
  5
E3
  8
LAYER_01
 10
18140.52428623462
 20
14405.7518484698
 30
0.0
 42
-0.2450418921055087
  0
VERTEX
  5
E4
  8
LAYER_01
 10
18245.37027285846
 20
13605.55765414895
 30
0.0
 42
-0.2026217536129387
  0
SEQEND
  5
E5
  8
LAYER_01
  0
POLYLINE
  5
E6
  8
LAYER_01
 66
     1
 10
0.0
 20
0.0
 30
0.0
 70
     1
  0
VERTEX
  5
E7
  8
LAYER_01
 10
17296.68168167391
 20
11478.73844344866
 30
0.0
  0
VERTEX
  5
E8
  8
LAYER_01
 10
16465.34056474953
 20
11478.61194099875
 30
0.0
 42
-0.3676409393797829
  0
VERTEX
  5
E9
  8
LAYER_01
 10
15989.68909851182
 20
12589.59307363321
 30
0.0
 42
1.114700570205429
  0
VERTEX
  5
EA
  8
LAYER_01
 10
17804.95351132176
 20
12441.76838016093
 30
0.0
 42
-0.3220923389414394
  0
SEQEND
  5
EB
  8
LAYER_01
  0
POLYLINE
  5
EC
  8
LAYER_01
 66
     1
 10
0.0
 20
0.0
 30
0.0
 70
     1
  0
VERTEX
  5
ED
  8
LAYER_01
 10
19248.89243051867
 20
11550.53293181776
 30
0.0
 42
-0.3289521455911836
  0
VERTEX
  5
EE
  8
LAYER_01
 10
17963.21214735999
 20
12066.68623110192
 30
0.0
 42
-0.161772879741036
  0
VERTEX
  5
EF
  8
LAYER_01
 10
17621.42689737395
 20
11478.78785886256
 30
0.0
  0
VERTEX
  5
F0
  8
LAYER_01
 10
19248.88184941044
 20
11479.0355033425
 30
0.0
  0
SEQEND
  5
F1
  8
LAYER_01
  0
POLYLINE
  5
F2
  8
LAYER_01
 66
     1
 10
0.0
 20
0.0
 30
0.0
 70
     1
  0
VERTEX
  5
F3
  8
LAYER_01
 10
17897.2587459411
 20
13170.73616736088
 30
0.0
 42
-0.0760301285567372
  0
VERTEX
  5
F4
  8
LAYER_01
 10
17656.19408590189
 20
13063.32518866749
 30
0.0
 42
-0.0547160792457182
  0
VERTEX
  5
F5
  8
LAYER_01
 10
17806.74036260585
 20
12882.4623861001
 30
0.0
 42
-0.0650107872717121
  0
SEQEND
  5
F6
  8
LAYER_01
  0
POLYLINE
  5
F7
  8
LAYER_01
 66
     1
 10
0.0
 20
0.0
 30
0.0
 70
     1
  0
VERTEX
  5
F8
  8
LAYER_01
 10
17974.04798472903
 20
12505.5549392494
 30
0.0
 42
0.4506692945074368
  0
VERTEX
  5
F9
  8
LAYER_01
 10
19248.95549506973
 20
11976.66534959979
 30
0.0
  0
VERTEX
  5
FA
  8
LAYER_01
 10
19248.92235664967
 20
11752.74628848357
 30
0.0
 42
-0.4543813707192226
  0
SEQEND
  5
FB
  8
LAYER_01
  0
POLYLINE
  5
FC
  8
LAYER_01
 66
     1
 10
0.0
 20
0.0
 30
0.0
 70
     1
  0
VERTEX
  5
FD
  8
LAYER_01
 10
15632.88487275112
 20
11478.4852689476
 30
0.0
 42
0.2593539772393013
  0
VERTEX
  5
FE
  8
LAYER_01
 10
15308.00181287962
 20
12214.88382351512
 30
0.0
  0
VERTEX
  5
FF
  8
LAYER_01
 10
15307.89282383996
 20
11478.43581597391
 30
0.0
  0
SEQEND
  5
100
  8
LAYER_01
  0
POLYLINE
  5
101
  8
LAYER_01
 66
     1
 10
0.0
 20
0.0
 30
0.0
 70
     1
  0
VERTEX
  5
102
  8
LAYER_01
 10
19250.43649254497
 20
21983.8884904985
 30
0.0
 42
0.074710434891219
  0
VERTEX
  5
103
  8
LAYER_01
 10
19116.60706740526
 20
21652.57240824398
 30
0.0
 42
0.1050230867703001
  0
VERTEX
  5
104
  8
LAYER_01
 10
18919.65277778222
 20
21931.59024180524
 30
0.0
 42
0.094024905206466
  0
VERTEX
  5
105
  8
LAYER_01
 10
19250.44601128616
 20
22048.2074165772
 30
0.0
  0
SEQEND
  5
106
  8
LAYER_01
  0
POLYLINE
  5
107
  8
LAYER_01
 66
     1
 10
0.0
 20
0.0
 30
0.0
 70
     1
  0
VERTEX
  5
108
  8
LAYER_01
 10
15308.55575124997
 20
15957.89147282754
 30
0.0
 42
-3.302217510048823
  0
VERTEX
  5
109
  8
LAYER_01
 10
15308.48060136442
 20
15450.09744461726
 30
0.0
  0
SEQEND
  5
10A
  8
LAYER_01
  0
POLYLINE
  5
10B
  8
LAYER_01
 66
     1
 10
0.0
 20
0.0
 30
0.0
 70
     1
  0
VERTEX
  5
10C
  8
LAYER_01
 10
15308.28737708372
 20
14144.46490599179
 30
0.0
 42
-0.2590350912247689
  0
VERTEX
  5
10D
  8
LAYER_01
 10
16179.51446766701
 20
14125.24524795159
 30
0.0
 42
-0.0455739381266069
  0
VERTEX
  5
10E
  8
LAYER_01
 10
16288.26742486327
 20
14081.68138526429
 30
0.0
 42
0.3545706822022762
  0
VERTEX
  5
10F
  8
LAYER_01
 10
15308.30186315892
 20
14242.3485212529
 30
0.0
  0
SEQEND
  5
110
  8
LAYER_01
  0
POLYLINE
  5
111
  8
LAYER_01
 66
     1
 10
0.0
 20
0.0
 30
0.0
 70
     1
  0
VERTEX
  5
112
  8
LAYER_01
 10
15738.16517902985
 20
14098.50918617316
 30
0.0
 42
0.1159518281590515
  0
VERTEX
  5
113
  8
LAYER_01
 10
15308.26025549357
 20
13961.20206524219
 30
0.0
  0
VERTEX
  5
114
  8
LAYER_01
 10
15308.09930205203
 20
12873.62627140529
 30
0.0
 42
0.2633660616136857
  0
VERTEX
  5
115
  8
LAYER_01
 10
16084.57827841518
 20
12870.33792613226
 30
0.0
 42
-0.8724643376309009
  0
SEQEND
  5
116
  8
LAYER_01
  0
POLYLINE
  5
117
  8
LAYER_01
 66
     1
 10
0.0
 20
0.0
 30
0.0
 70
     1
  0
VERTEX
  5
118
  8
LAYER_01
 10
19250.06376923863
 20
19465.36610361888
 30
0.0
 42
-1.581736869499822
  0
VERTEX
  5
119
  8
LAYER_01
 10
19250.19254587473
 20
20335.52054635163
 30
0.0
  0
SEQEND
  5
11A
  8
LAYER_01
  0
POLYLINE
  5
11B
  8
LAYER_01
 66
     1
 10
0.0
 20
0.0
 30
0.0
 70
     1
  0
VERTEX
  5
11C
  8
LAYER_01
 10
19250.52721124947
 20
22596.88232355346
 30
0.0
 42
-0.5390917104642102
  0
VERTEX
  5
11D
  8
LAYER_01
 10
18879.04878747266
 20
23125.8041144103
 30
0.0
  0
VERTEX
  5
11E
  8
LAYER_01
 10
19250.60549626014
 20
23125.86065297551
 30
0.0
  0
SEQEND
  5
11F
  8
LAYER_01
  0
POLYLINE
  5
120
  8
LAYER_01
 66
     1
 10
0.0
 20
0.0
 30
0.0
 70
     1
  0
VERTEX
  5
121
  8
LAYER_01
 10
15309.03770622208
 20
19214.50131211199
 30
0.0
 42
0.5845209210796966
  0
VERTEX
  5
122
  8
LAYER_01
 10
15309.22957387566
 20
20510.96700836782
 30
0.0
  0
VERTEX
  5
123
  8
LAYER_01
 10
15309.26717039463
 20
20765.00981460363
 30
0.0
 42
-0.8348164108205615
  0
VERTEX
  5
124
  8
LAYER_01
 10
15309.03042371798
 20
19165.29282607484
 30
0.0
  0
SEQEND
  5
125
  8
LAYER_01
  0
POLYLINE
  5
126
  8
LAYER_01
 66
     1
 10
0.0
 20
0.0
 30
0.0
 70
     1
  0
VERTEX
  5
127
  8
LAYER_01
 10
15961.85623636359
 20
22632.92858461866
 30
0.0
 42
-0.1284705772048276
  0
VERTEX
  5
128
  8
LAYER_01
 10
15960.41347830754
 20
23125.35999525213
 30
0.0
  0
VERTEX
  5
129
  8
LAYER_01
 10
15777.72975398588
 20
23125.33219686923
 30
0.0
 42
-0.1030184427477548
  0
VERTEX
  5
12A
  8
LAYER_01
 10
15496.81687370126
 20
22804.41302509826
 30
0.0
 42
-0.1522385523443549
  0
SEQEND
  5
12B
  8
LAYER_01
  0
POLYLINE
  5
12C
  8
LAYER_01
 66
     1
 10
0.0
 20
0.0
 30
0.0
 70
     1
  0
VERTEX
  5
12D
  8
LAYER_01
 10
17466.90453479218
 20
23125.589233053
 30
0.0
 42
-0.8625189635264618
  0
VERTEX
  5
12E
  8
LAYER_01
 10
16316.93944992348
 20
23125.41424663938
 30
0.0
  0
VERTEX
  5
12F
  8
LAYER_01
 10
16277.11245782185
 20
23125.40818629667
 30
0.0
 42
1.189489152846629
  0
VERTEX
  5
130
  8
LAYER_01
 10
17544.57361351049
 20
23125.60105170185
 30
0.0
  0
SEQEND
  5
131
  8
LAYER_01
  0
POLYLINE
  5
132
  8
LAYER_01
 66
     1
 10
0.0
 20
0.0
 30
0.0
 70
     1
  0
VERTEX
  5
133
  8
LAYER_01
 10
19130.77688273773
 20
21039.50472166423
 30
0.0
 42
0.0582744813865542
  0
VERTEX
  5
134
  8
LAYER_01
 10
19238.87631684646
 20
20781.9486269819
 30
0.0
 42
0.0652343257218543
  0
VERTEX
  5
135
  8
LAYER_01
 10
18936.12298817152
 20
20740.9190041115
 30
0.0
 42
0.1097150821624414
  0
SEQEND
  5
136
  8
LAYER_01
  0
POLYLINE
  5
137
  8
LAYER_01
 66
     1
 10
0.0
 20
0.0
 30
0.0
 70
     1
  0
VERTEX
  5
138
  8
LAYER_01
 10
16467.84462720258
 20
12894.78215636267
 30
0.0
 42
1.325547450935135
  0
VERTEX
  5
139
  8
LAYER_01
 10
17602.96760866334
 20
12592.67424420817
 30
0.0
 42
-1.83855784694068
  0
SEQEND
  5
13A
  8
LAYER_01
  0
POLYLINE
  5
13B
  8
LAYER_01
 66
     1
 10
0.0
 20
0.0
 30
0.0
 70
     1
  0
VERTEX
  5
13C
  8
LAYER_01
 10
19249.26564687671
 20
14072.38691019326
 30
0.0
 42
-0.2581498739439626
  0
VERTEX
  5
13D
  8
LAYER_01
 10
19081.84826152213
 20
14866.78691222243
 30
0.0
 42
0.3306888905951523
  0
VERTEX
  5
13E
  8
LAYER_01
 10
19249.24738637908
 20
13948.99920861483
 30
0.0
  0
SEQEND
  5
13F
  8
LAYER_01
  0
POLYLINE
  5
140
  8
LAYER_01
 66
     1
 10
0.0
 20
0.0
 30
0.0
 70
     1
  0
VERTEX
  5
141
  8
LAYER_01
 10
15308.60452824233
 20
16287.48166782792
 30
0.0
 42
-0.0670585243753013
  0
VERTEX
  5
142
  8
LAYER_01
 10
15477.12217604445
 20
16377.59891132813
 30
0.0
 42
0.1121305638815229
  0
VERTEX
  5
143
  8
LAYER_01
 10
15308.61825559363
 20
16380.23852252759
 30
0.0
  0
SEQEND
  5
144
  8
LAYER_01
  0
POLYLINE
  5
145
  8
LAYER_01
 66
     1
 10
0.0
 20
0.0
 30
0.0
 70
     1
  0
VERTEX
  5
146
  8
LAYER_01
 10
15308.38912036334
 20
14831.95271026541
 30
0.0
 42
0.2541201736958556
  0
VERTEX
  5
147
  8
LAYER_01
 10
16084.47650070181
 20
15086.97097143123
 30
0.0
 42
-0.2950980693800019
  0
VERTEX
  5
148
  8
LAYER_01
 10
15308.43276694646
 20
15126.87630325647
 30
0.0
  0
SEQEND
  5
149
  8
LAYER_01
  0
POLYLINE
  5
14A
  8
LAYER_01
 66
     1
 10
0.0
 20
0.0
 30
0.0
 70
     1
  0
VERTEX
  5
14B
  8
LAYER_01
 10
15308.34410820524
 20
14527.80181348188
 30
0.0
 42
0.2090502527903968
  0
VERTEX
  5
14C
  8
LAYER_01
 10
16169.15570942808
 20
14940.97233569629
 30
0.0
 42
-0.1674341821950702
  0
VERTEX
  5
14D
  8
LAYER_01
 10
15308.3620423304
 20
14648.98418910173
 30
0.0
  0
SEQEND
  5
14E
  8
LAYER_01
  0
POLYLINE
  5
14F
  8
LAYER_01
 66
     1
 10
0.0
 20
0.0
 30
0.0
 70
     1
  0
VERTEX
  5
150
  8
LAYER_01
 10
15885.72373109377
 20
12631.75459059058
 30
0.0
 42
-0.1557013462552037
  0
VERTEX
  5
151
  8
LAYER_01
 10
15308.07080404879
 20
12681.06289279002
 30
0.0
  0
VERTEX
  5
152
  8
LAYER_01
 10
15308.06336702387
 20
12630.81029672475
 30
0.0
 42
-0.1555897244966743
  0
VERTEX
  5
153
  8
LAYER_01
 10
15838.86064545641
 20
12142.82341536448
 30
0.0
 42
-0.1153811288703285
  0
SEQEND
  5
154
  8
LAYER_01
  0
POLYLINE
  5
155
  8
LAYER_01
 66
     1
 10
0.0
 20
0.0
 30
0.0
 70
     1
  0
VERTEX
  5
156
  8
LAYER_01
 10
15309.37009031094
 20
21460.44825085245
 30
0.0
 42
1.321873042459821
  0
VERTEX
  5
157
  8
LAYER_01
 10
15309.52171619677
 20
22484.99697477806
 30
0.0
  0
SEQEND
  5
158
  8
LAYER_01
  0
POLYLINE
  5
159
  8
LAYER_01
 66
     1
 10
0.0
 20
0.0
 30
0.0
 70
     1
  0
VERTEX
  5
15A
  8
LAYER_01
 10
19249.77077889182
 20
17485.60595705573
 30
0.0
 42
2.536240975644025
  0
VERTEX
  5
15B
  8
LAYER_01
 10
19249.67487843228
 20
16837.59857419269
 30
0.0
  0
SEQEND
  5
15C
  8
LAYER_01
  0
POLYLINE
  5
15D
  8
LAYER_01
 66
     1
 10
0.0
 20
0.0
 30
0.0
 70
     1
  0
VERTEX
  5
15E
  8
LAYER_01
 10
18692.04486502147
 20
14806.99615243968
 30
0.0
 42
1.038412035408046
  0
VERTEX
  5
15F
  8
LAYER_01
 10
17101.0625276921
 20
15871.72578762654
 30
0.0
 42
-1.213499753210033
  0
SEQEND
  5
160
  8
LAYER_01
  0
POLYLINE
  5
161
  8
LAYER_01
 66
     1
 10
0.0
 20
0.0
 30
0.0
 70
     1
  0
VERTEX
  5
162
  8
LAYER_01
 10
18267.28282539556
 20
14705.74265819459
 30
0.0
 42
1.395489822560331
  0
VERTEX
  5
163
  8
LAYER_01
 10
17231.13715758876
 20
15720.75165053326
 30
0.0
 42
-1.050694521583763
  0
SEQEND
  5
164
  8
LAYER_01
  0
POLYLINE
  5
165
  8
LAYER_01
 66
     1
 10
0.0
 20
0.0
 30
0.0
 70
     1
  0
VERTEX
  5
166
  8
LAYER_01
 10
17272.64112744933
 20
16809.3474908468
 30
0.0
 42
1.525465537193765
  0
VERTEX
  5
167
  8
LAYER_01
 10
16191.16975163493
 20
17788.45737841538
 30
0.0
 42
-1.067282741324186
  0
SEQEND
  5
168
  8
LAYER_01
  0
POLYLINE
  5
169
  8
LAYER_01
 66
     1
 10
0.0
 20
0.0
 30
0.0
 70
     1
  0
VERTEX
  5
16A
  8
LAYER_01
 10
17719.60687044226
 20
16927.20295526774
 30
0.0
 42
1.272615311059234
  0
VERTEX
  5
16B
  8
LAYER_01
 10
16075.45676492226
 20
17989.57545032095
 30
0.0
 42
-1.083416753064736
  0
SEQEND
  5
16C
  8
LAYER_01
  0
POLYLINE
  5
16D
  8
LAYER_01
 66
     1
 10
0.0
 20
0.0
 30
0.0
 70
     1
  0
VERTEX
  5
16E
  8
LAYER_01
 10
19249.96135335374
 20
18773.33344966224
 30
0.0
 42
-0.2654166830948178
  0
VERTEX
  5
16F
  8
LAYER_01
 10
18371.32885182121
 20
19196.73031623148
 30
0.0
 42
0.3249967284500541
  0
VERTEX
  5
170
  8
LAYER_01
 10
19249.9375856688
 20
18612.73322533091
 30
0.0
  0
SEQEND
  5
171
  8
LAYER_01
  0
POLYLINE
  5
172
  8
LAYER_01
 66
     1
 10
0.0
 20
0.0
 30
0.0
 70
     1
  0
VERTEX
  5
173
  8
LAYER_01
 10
19250.01709852261
 20
19150.00819306817
 30
0.0
 42
-0.3013824575364427
  0
VERTEX
  5
174
  8
LAYER_01
 10
18508.56756941206
 20
19351.48887011051
 30
0.0
 42
0.299042749899622
  0
VERTEX
  5
175
  8
LAYER_01
 10
19249.98987369312
 20
18966.0477553958
 30
0.0
  0
SEQEND
  5
176
  8
LAYER_01
  0
POLYLINE
  5
177
  8
LAYER_01
 66
     1
 10
0.0
 20
0.0
 30
0.0
 70
     1
  0
VERTEX
  5
178
  8
LAYER_01
 10
18565.42632448753
 20
22196.74007351563
 30
0.0
 42
-0.3308635118389943
  0
VERTEX
  5
179
  8
LAYER_01
 10
18171.0191427777
 20
23125.69637586251
 30
0.0
  0
VERTEX
  5
17A
  8
LAYER_01
 10
18007.82115172927
 20
23125.67154255971
 30
0.0
 42
0.3604503104986239
  0
SEQEND
  5
17B
  8
LAYER_01
  0
POLYLINE
  5
17C
  8
LAYER_01
 66
     1
 10
0.0
 20
0.0
 30
0.0
 70
     1
  0
VERTEX
  5
17D
  8
LAYER_01
 10
18569.03084007642
 20
23125.75693999651
 30
0.0
 42
0.4587057650445106
  0
VERTEX
  5
17E
  8
LAYER_01
 10
19142.21105825521
 20
22322.9117340273
 30
0.0
 42
-0.5849624734384349
  0
VERTEX
  5
17F
  8
LAYER_01
 10
18385.17522498007
 20
23125.72896329084
 30
0.0
  0
SEQEND
  5
180
  8
LAYER_01
  0
POLYLINE
  5
181
  8
LAYER_01
 66
     1
 10
0.0
 20
0.0
 30
0.0
 70
     1
  0
VERTEX
  5
182
  8
LAYER_01
 10
16126.27325894905
 20
22745.23543777712
 30
0.0
 42
0.776706765764305
  0
VERTEX
  5
183
  8
LAYER_01
 10
17722.71482430155
 20
22956.91002480635
 30
0.0
 42
-0.9440435928347537
  0
SEQEND
  5
184
  8
LAYER_01
  0
POLYLINE
  5
185
  8
LAYER_01
 66
     1
 10
0.0
 20
0.0
 30
0.0
 70
     1
  0
VERTEX
  5
186
  8
LAYER_01
 10
15309.29785166519
 20
20972.32571213121
 30
0.0
 42
-0.6755416692277076
  0
VERTEX
  5
187
  8
LAYER_01
 10
15677.43737338292
 20
19094.78235931323
 30
0.0
 42
0.8260718146370825
  0
VERTEX
  5
188
  8
LAYER_01
 10
15309.31200861063
 20
21067.98537013137
 30
0.0
  0
SEQEND
  5
189
  8
LAYER_01
  0
POLYLINE
  5
18A
  8
LAYER_01
 66
     1
 10
0.0
 20
0.0
 30
0.0
 70
     1
  0
VERTEX
  5
18B
  8
LAYER_01
 10
15308.75464726481
 20
17301.84839079041
 30
0.0
 42
0.3127506581246799
  0
VERTEX
  5
18C
  8
LAYER_01
 10
15308.88304974669
 20
18169.47464239394
 30
0.0
  0
SEQEND
  5
18D
  8
LAYER_01
  0
CIRCLE
  5
18E
  8
LAYER_01
 10
-17774.31702665299
 20
15238.87702159636
 30
0.0
 40
462.1113900963046
210
0.0
220
0.0
230
-1.0
  0
CIRCLE
  5
18F
  8
LAYER_01
 10
16763.80579446567
 20
17334.13782666028
 30
0.0
 40
509.0697620369045
  0
CIRCLE
  5
190
  8
LAYER_01
 10
15928.10140767121
 20
13496.28092953596
 30
0.0
 40
371.585059463735
  0
CIRCLE
  5
191
  8
LAYER_01
 10
-16975.34399214943
 20
12632.19645199284
 30
0.0
 40
375.7563673655135
210
0.0
220
0.0
230
-1.0
  0
CIRCLE
  5
192
  8
LAYER_01
 10
-18722.77563727999
 20
13054.55685195793
 30
0.0
 40
502.9938111237619
210
0.0
220
0.0
230
-1.0
  0
CIRCLE
  5
193
  8
LAYER_01
 10
16814.67197498445
 20
21141.04004486231
 30
0.0
 40
499.4975296761411
  0
CIRCLE
  5
194
  8
LAYER_01
 10
17263.85498796881
 20
19575.1581106793
 30
0.0
 40
584.1211387761216
  0
CIRCLE
  5
195
  8
LAYER_01
 10
16626.31978241302
 20
16258.3425018282
 30
0.0
 40
225.4811566872098
  0
CIRCLE
  5
196
  8
LAYER_01
 10
17425.58245852858
 20
13905.11025557189
 30
0.0
 40
564.7982446761121
  0
CIRCLE
  5
197
  8
LAYER_01
 10
18489.81104794592
 20
18261.65652969044
 30
0.0
 40
237.5664875960636
  0
CIRCLE
  5
198
  8
LAYER_01
 10
18361.27361237458
 20
21328.41681185573
 30
0.0
 40
485.2901772519613
  0
ENDSEC
  0
EOF
