  0
SECTION
  2
HEADER
  9
$ACADVER
  1
AC1015
  9
$ACADMAINTVER
 70
    20
  9
$DWGCODEPAGE
  3
ANSI_1252
  9
$INSBASE
 10
0.0
 20
0.0
 30
0.0
  9
$EXTMIN
 10
-585.0
 20
-71.00000000000003
 30
0.0
  9
$EXTMAX
 10
585.0
 20
71.00000000000003
 30
0.0
  9
$LIMMIN
 10
0.0
 20
0.0
  9
$LIMMAX
 10
12.0
 20
9.0
  9
$ORTHOMODE
 70
     1
  9
$REGENMODE
 70
     1
  9
$FILLMODE
 70
     1
  9
$QTEXTMODE
 70
     0
  9
$MIRRTEXT
 70
     1
  9
$LTSCALE
 40
1.0
  9
$ATTMODE
 70
     1
  9
$TEXTSIZE
 40
0.2
  9
$TRACEWID
 40
0.05
  9
$TEXTSTYLE
  7
STANDARD
  9
$CLAYER
  8
0
  9
$CELTYPE
  6
ByLayer
  9
$CECOLOR
 62
   256
  9
$CELTSCALE
 40
1.0
  9
$DISPSILH
 70
     0
  9
$DIMSCALE
 40
1.0
  9
$DIMASZ
 40
0.18
  9
$DIMEXO
 40
0.0625
  9
$DIMDLI
 40
0.38
  9
$DIMRND
 40
0.0
  9
$DIMDLE
 40
0.0
  9
$DIMEXE
 40
0.18
  9
$DIMTP
 40
0.0
  9
$DIMTM
 40
0.0
  9
$DIMTXT
 40
0.18
  9
$DIMCEN
 40
0.09
  9
$DIMTSZ
 40
0.0
  9
$DIMTOL
 70
     0
  9
$DIMLIM
 70
     0
  9
$DIMTIH
 70
     1
  9
$DIMTOH
 70
     1
  9
$DIMSE1
 70
     0
  9
$DIMSE2
 70
     0
  9
$DIMTAD
 70
     0
  9
$DIMZIN
 70
     0
  9
$DIMBLK
  1

  9
$DIMASO
 70
     1
  9
$DIMSHO
 70
     1
  9
$DIMPOST
  1

  9
$DIMAPOST
  1

  9
$DIMALT
 70
     0
  9
$DIMALTD
 70
     2
  9
$DIMALTF
 40
25.4
  9
$DIMLFAC
 40
1.0
  9
$DIMTOFL
 70
     0
  9
$DIMTVP
 40
0.0
  9
$DIMTIX
 70
     0
  9
$DIMSOXD
 70
     0
  9
$DIMSAH
 70
     0
  9
$DIMBLK1
  1

  9
$DIMBLK2
  1

  9
$DIMSTYLE
  2
STANDARD
  9
$DIMCLRD
 70
     0
  9
$DIMCLRE
 70
     0
  9
$DIMCLRT
 70
     0
  9
$DIMTFAC
 40
1.0
  9
$DIMGAP
 40
0.09
  9
$DIMJUST
 70
     0
  9
$DIMSD1
 70
     0
  9
$DIMSD2
 70
     0
  9
$DIMTOLJ
 70
     1
  9
$DIMTZIN
 70
     0
  9
$DIMALTZ
 70
     0
  9
$DIMALTTZ
 70
     0
  9
$DIMUPT
 70
     0
  9
$DIMDEC
 70
     4
  9
$DIMTDEC
 70
     4
  9
$DIMALTU
 70
     2
  9
$DIMALTTD
 70
     2
  9
$DIMTXSTY
  7
STANDARD
  9
$DIMAUNIT
 70
     0
  9
$DIMADEC
 70
     0
  9
$DIMALTRND
 40
0.0
  9
$DIMAZIN
 70
     0
  9
$DIMDSEP
 70
    46
  9
$DIMATFIT
 70
     3
  9
$DIMFRAC
 70
     0
  9
$DIMLDRBLK
  1

  9
$DIMLUNIT
 70
     2
  9
$DIMLWD
 70
    -2
  9
$DIMLWE
 70
    -2
  9
$DIMTMOVE
 70
     0
  9
$LUNITS
 70
     2
  9
$LUPREC
 70
     4
  9
$SKETCHINC
 40
0.1
  9
$FILLETRAD
 40
0.5
  9
$AUNITS
 70
     0
  9
$AUPREC
 70
     0
  9
$MENU
  1
.
  9
$ELEVATION
 40
0.0
  9
$PELEVATION
 40
0.0
  9
$THICKNESS
 40
0.0
  9
$LIMCHECK
 70
     0
  9
$CHAMFERA
 40
0.5
  9
$CHAMFERB
 40
0.5
  9
$CHAMFERC
 40
0.0
  9
$CHAMFERD
 40
0.0
  9
$SKPOLY
 70
     0
  9
$TDCREATE
 40
2454910.500000000
  9
$TDUCREATE
 40
2454910.458333334
  9
$TDUPDATE
 40
2457347.678080637
  9
$TDUUPDATE
 40
2457347.636413970
  9
$TDINDWG
 40
0.0009998495
  9
$TDUSRTIMER
 40
0.0009998495
  9
$USRTIMER
 70
     1
  9
$ANGBASE
 50
0.0
  9
$ANGDIR
 70
     0
  9
$PDMODE
 70
     0
  9
$PDSIZE
 40
0.0
  9
$PLINEWID
 40
0.0
  9
$SPLFRAME
 70
     0
  9
$SPLINETYPE
 70
     6
  9
$SPLINESEGS
 70
     8
  9
$HANDSEED
  5
99F
  9
$SURFTAB1
 70
     6
  9
$SURFTAB2
 70
     6
  9
$SURFTYPE
 70
     6
  9
$SURFU
 70
     6
  9
$SURFV
 70
     6
  9
$UCSBASE
  2

  9
$UCSNAME
  2

  9
$UCSORG
 10
0.0
 20
0.0
 30
0.0
  9
$UCSXDIR
 10
1.0
 20
0.0
 30
0.0
  9
$UCSYDIR
 10
0.0
 20
1.0
 30
0.0
  9
$UCSORTHOREF
  2

  9
$UCSORTHOVIEW
 70
     0
  9
$UCSORGTOP
 10
0.0
 20
0.0
 30
0.0
  9
$UCSORGBOTTOM
 10
0.0
 20
0.0
 30
0.0
  9
$UCSORGLEFT
 10
0.0
 20
0.0
 30
0.0
  9
$UCSORGRIGHT
 10
0.0
 20
0.0
 30
0.0
  9
$UCSORGFRONT
 10
0.0
 20
0.0
 30
0.0
  9
$UCSORGBACK
 10
0.0
 20
0.0
 30
0.0
  9
$PUCSBASE
  2

  9
$PUCSNAME
  2

  9
$PUCSORG
 10
0.0
 20
0.0
 30
0.0
  9
$PUCSXDIR
 10
1.0
 20
0.0
 30
0.0
  9
$PUCSYDIR
 10
0.0
 20
1.0
 30
0.0
  9
$PUCSORTHOREF
  2

  9
$PUCSORTHOVIEW
 70
     0
  9
$PUCSORGTOP
 10
0.0
 20
0.0
 30
0.0
  9
$PUCSORGBOTTOM
 10
0.0
 20
0.0
 30
0.0
  9
$PUCSORGLEFT
 10
0.0
 20
0.0
 30
0.0
  9
$PUCSORGRIGHT
 10
0.0
 20
0.0
 30
0.0
  9
$PUCSORGFRONT
 10
0.0
 20
0.0
 30
0.0
  9
$PUCSORGBACK
 10
0.0
 20
0.0
 30
0.0
  9
$USERI1
 70
     0
  9
$USERI2
 70
     0
  9
$USERI3
 70
     0
  9
$USERI4
 70
     0
  9
$USERI5
 70
     0
  9
$USERR1
 40
0.0
  9
$USERR2
 40
0.0
  9
$USERR3
 40
0.0
  9
$USERR4
 40
0.0
  9
$USERR5
 40
0.0
  9
$WORLDVIEW
 70
     1
  9
$SHADEDGE
 70
     3
  9
$SHADEDIF
 70
    70
  9
$TILEMODE
 70
     1
  9
$MAXACTVP
 70
    64
  9
$PINSBASE
 10
0.0
 20
0.0
 30
0.0
  9
$PLIMCHECK
 70
     0
  9
$PEXTMIN
 10
1.000000000000000E+20
 20
1.000000000000000E+20
 30
1.000000000000000E+20
  9
$PEXTMAX
 10
-1.000000000000000E+20
 20
-1.000000000000000E+20
 30
-1.000000000000000E+20
  9
$PLIMMIN
 10
0.0
 20
0.0
  9
$PLIMMAX
 10
12.0
 20
9.0
  9
$UNITMODE
 70
     0
  9
$VISRETAIN
 70
     1
  9
$PLINEGEN
 70
     0
  9
$PSLTSCALE
 70
     1
  9
$TREEDEPTH
 70
  3020
  9
$CMLSTYLE
  2
Standard
  9
$CMLJUST
 70
     0
  9
$CMLSCALE
 40
1.0
  9
$PROXYGRAPHICS
 70
     1
  9
$MEASUREMENT
 70
     0
  9
$CELWEIGHT
370
    -1
  9
$ENDCAPS
280
     0
  9
$JOINSTYLE
280
     0
  9
$LWDISPLAY
290
     0
  9
$INSUNITS
 70
     0
  9
$HYPERLINKBASE
  1

  9
$STYLESHEET
  1

  9
$XEDIT
290
     1
  9
$CEPSNTYPE
380
     0
  9
$PSTYLEMODE
290
     1
  9
$FINGERPRINTGUID
  2
{51A664C5-406C-4497-8F23-658FB7B44ADD}
  9
$VERSIONGUID
  2
{61F0E2BE-CF69-4F58-8720-BC345B910828}
  9
$EXTNAMES
290
     1
  9
$PSVPSCALE
 40
0.0
  9
$OLESTARTUP
290
     0
  0
ENDSEC
  0
SECTION
  2
CLASSES
  0
CLASS
  1
ACDBDICTIONARYWDFLT
  2
AcDbDictionaryWithDefault
  3
ObjectDBX Classes
 90
        0
280
     0
281
     0
  0
CLASS
  1
MATERIAL
  2
AcDbMaterial
  3
ObjectDBX Classes
 90
     1153
280
     0
281
     0
  0
CLASS
  1
VISUALSTYLE
  2
AcDbVisualStyle
  3
ObjectDBX Classes
 90
     4095
280
     0
281
     0
  0
CLASS
  1
SCALE
  2
AcDbScale
  3
ObjectDBX Classes
 90
     1153
280
     0
281
     0
  0
CLASS
  1
TABLESTYLE
  2
AcDbTableStyle
  3
ObjectDBX Classes
 90
     4095
280
     0
281
     0
  0
CLASS
  1
MLEADERSTYLE
  2
AcDbMLeaderStyle
  3
ACDB_MLEADERSTYLE_CLASS
 90
     4095
280
     0
281
     0
  0
CLASS
  1
SORTENTSTABLE
  2
AcDbSortentsTable
  3
ObjectDBX Classes
 90
        0
280
     0
281
     0
  0
CLASS
  1
DICTIONARYVAR
  2
AcDbDictionaryVar
  3
ObjectDBX Classes
 90
        0
280
     0
281
     0
  0
CLASS
  1
CELLSTYLEMAP
  2
AcDbCellStyleMap
  3
ObjectDBX Classes
 90
     1152
280
     0
281
     0
  0
CLASS
  1
ACDBPLACEHOLDER
  2
AcDbPlaceHolder
  3
ObjectDBX Classes
 90
        0
280
     0
281
     0
  0
CLASS
  1
LAYOUT
  2
AcDbLayout
  3
ObjectDBX Classes
 90
        0
280
     0
281
     0
  0
ENDSEC
  0
SECTION
  2
TABLES
  0
TABLE
  2
VPORT
  5
903
330
0
100
AcDbSymbolTable
 70
     1
  0
VPORT
  5
973
330
903
100
AcDbSymbolTableRecord
100
AcDbViewportTableRecord
  2
*ACTIVE
 70
     0
 10
0.0
 20
0.0
 11
1.0
 21
1.0
 12
-1.702804271320474
 22
50.27554157395016
 13
0.0
 23
0.0
 14
0.5
 24
0.5
 15
0.5
 25
0.5
 16
0.0
 26
0.0
 36
1.0
 17
0.0
 27
0.0
 37
0.0
 40
330.7349232448949
 41
2.513944223107569
 42
50.0
 43
0.0
 44
0.0
 50
0.0
 51
0.0
 71
     0
 72
   100
 73
     1
 74
     3
 75
     0
 76
     0
 77
     0
 78
     0
281
     0
 65
     1
110
0.0
120
0.0
130
0.0
111
1.0
121
0.0
131
0.0
112
0.0
122
1.0
132
0.0
 79
     0
146
0.0
  0
ENDTAB
  0
TABLE
  2
LTYPE
  5
900
330
0
100
AcDbSymbolTable
 70
     3
  0
LTYPE
  5
95D
330
900
100
AcDbSymbolTableRecord
100
AcDbLinetypeTableRecord
  2
ByBlock
 70
     0
  3

 72
    65
 73
     0
 40
0.0
  0
LTYPE
  5
95E
330
900
100
AcDbSymbolTableRecord
100
AcDbLinetypeTableRecord
  2
ByLayer
 70
     0
  3

 72
    65
 73
     0
 40
0.0
  0
LTYPE
  5
95F
330
900
100
AcDbSymbolTableRecord
100
AcDbLinetypeTableRecord
  2
CONTINUOUS
 70
     0
  3
Solid line
 72
    65
 73
     0
 40
0.0
  0
LTYPE
  5
974
330
900
100
AcDbSymbolTableRecord
100
AcDbLinetypeTableRecord
  2
CONTINUOUS2
 70
     0
  3
Solid Line
 72
    65
 73
     0
 40
0.0
  0
ENDTAB
  0
TABLE
  2
LAYER
  5
8FD
330
0
100
AcDbSymbolTable
 70
     2
  0
LAYER
  5
957
102
{ACAD_XDICTIONARY
360
988
102
}
330
8FD
100
AcDbSymbolTableRecord
100
AcDbLayerTableRecord
  2
0
 70
     0
 62
     7
  6
CONTINUOUS
370
    -3
390
90A
  0
LAYER
  5
975
102
{ACAD_XDICTIONARY
360
98A
102
}
330
8FD
100
AcDbSymbolTableRecord
100
AcDbLayerTableRecord
  2
LAYER_1
 70
     0
 62
    18
  6
CONTINUOUS
370
    -3
390
90A
  0
ENDTAB
  0
TABLE
  2
STYLE
  5
8FE
330
0
100
AcDbSymbolTable
 70
     2
  0
STYLE
  5
958
330
8FE
100
AcDbSymbolTableRecord
100
AcDbTextStyleTableRecord
  2
STANDARD
 70
     0
 40
0.0
 41
1.0
 50
0.0
 71
     0
 42
0.2
  3
txt
  4

  0
STYLE
  5
95C
330
8FE
100
AcDbSymbolTableRecord
100
AcDbTextStyleTableRecord
  2
Annotative
 70
     0
 40
0.0
 41
1.0
 50
0.0
 71
     0
 42
0.2
  3
txt
  4

1001
AcadAnnotative
1000
AnnotativeData
1002
{
1070
     1
1070
     1
1002
}
  0
ENDTAB
  0
TABLE
  2
VIEW
  5
901
330
0
100
AcDbSymbolTable
 70
     0
  0
ENDTAB
  0
TABLE
  2
UCS
  5
902
330
0
100
AcDbSymbolTable
 70
     0
  0
ENDTAB
  0
TABLE
  2
APPID
  5
904
330
0
100
AcDbSymbolTable
 70
     4
  0
APPID
  5
959
330
904
100
AcDbSymbolTableRecord
100
AcDbRegAppTableRecord
  2
ACAD
 70
     0
  0
APPID
  5
960
330
904
100
AcDbSymbolTableRecord
100
AcDbRegAppTableRecord
  2
AcadAnnotative
 70
     0
  0
APPID
  5
96A
330
904
100
AcDbSymbolTableRecord
100
AcDbRegAppTableRecord
  2
ACAD_MLEADERVER
 70
     0
  0
APPID
  5
97D
330
904
100
AcDbSymbolTableRecord
100
AcDbRegAppTableRecord
  2
ACAD_EXEMPT_FROM_CAD_STANDARDS
 70
     0
  0
ENDTAB
  0
TABLE
  2
DIMSTYLE
  5
905
330
0
100
AcDbSymbolTable
 70
     3
100
AcDbDimStyleTable
 71
     1
340
95A
  0
DIMSTYLE
105
95A
330
905
100
AcDbSymbolTableRecord
100
AcDbDimStyleTableRecord
  2
STANDARD
 70
     0
279
     2
340
958
  0
DIMSTYLE
105
95B
330
905
100
AcDbSymbolTableRecord
100
AcDbDimStyleTableRecord
  2
Annotative
 70
     0
340
958
1001
AcadAnnotative
1000
AnnotativeData
1002
{
1070
     1
1070
     1
1002
}
  0
ENDTAB
  0
TABLE
  2
BLOCK_RECORD
  5
8FC
330
0
100
AcDbSymbolTable
 70
     3
  0
BLOCK_RECORD
  5
96F
102
{ACAD_XDICTIONARY
360
986
102
}
330
8FC
100
AcDbSymbolTableRecord
100
AcDbBlockTableRecord
  2
*Model_Space
340
972
  0
BLOCK_RECORD
  5
96B
330
8FC
100
AcDbSymbolTableRecord
100
AcDbBlockTableRecord
  2
*Paper_Space
340
96E
  0
BLOCK_RECORD
  5
977
330
8FC
100
AcDbSymbolTableRecord
100
AcDbBlockTableRecord
  2
$MODEL_SPACE
340
0
  0
BLOCK_RECORD
  5
979
330
8FC
100
AcDbSymbolTableRecord
100
AcDbBlockTableRecord
  2
$PAPER_SPACE
340
0
  0
ENDTAB
  0
ENDSEC
  0
SECTION
  2
BLOCKS
  0
BLOCK
  5
970
330
96F
100
AcDbEntity
  8
0
100
AcDbBlockBegin
  2
*Model_Space
 70
     0
 10
0.0
 20
0.0
 30
0.0
  3
*Model_Space
  1

  0
ENDBLK
  5
971
330
96F
100
AcDbEntity
  8
0
100
AcDbBlockEnd
  0
BLOCK
  5
96C
330
96B
100
AcDbEntity
 67
     1
  8
0
100
AcDbBlockBegin
  2
*Paper_Space
 70
     0
 10
0.0
 20
0.0
 30
0.0
  3
*Paper_Space
  1

  0
ENDBLK
  5
96D
330
96B
100
AcDbEntity
 67
     1
  8
0
100
AcDbBlockEnd
  0
BLOCK
  5
978
330
977
100
AcDbEntity
  8
0
100
AcDbBlockBegin
  2
$MODEL_SPACE
 70
     0
 10
0.0
 20
0.0
 30
0.0
  3
$MODEL_SPACE
  1

  0
ENDBLK
  5
21
330
977
100
AcDbEntity
  8
0
100
AcDbBlockEnd
  0
BLOCK
  5
97A
330
979
100
AcDbEntity
  8
0
100
AcDbBlockBegin
  2
$PAPER_SPACE
 70
     0
 10
0.0
 20
0.0
 30
0.0
  3
$PAPER_SPACE
  1

  0
ENDBLK
  5
1D
330
979
100
AcDbEntity
  8
0
100
AcDbBlockEnd
  0
ENDSEC
  0
SECTION
  2
ENTITIES
  0
LWPOLYLINE
  5
41
330
96F
100
AcDbEntity
  8
LAYER_1
100
AcDbPolyline
 90
        2
 70
     0
 43
0.0
 10
291.8753254901048
 20
70.99999999999998
 10
-291.8753254901051
 20
71.00000000000001
  0
LWPOLYLINE
  5
44
330
96F
100
AcDbEntity
  8
LAYER_1
100
AcDbPolyline
 90
        3
 70
     1
 43
0.0
 10
200.4780941214183
 20
55.99999999999631
 42
-0.4142135623730835
 10
194.4417692787395
 20
49.96467515732085
 42
-0.4142135623730835
 10
188.4054444360606
 20
55.99999999999631
  0
LWPOLYLINE
  5
45
330
96F
100
AcDbEntity
  8
LAYER_1
100
AcDbPolyline
 90
        3
 70
     1
 43
0.0
 10
70.85024793559194
 20
55.99999999999631
 42
-0.4142135623730835
 10
64.81392309291315
 20
49.96467515732085
 42
-0.4142135623730835
 10
58.77759825023439
 20
55.99999999999631
  0
LWPOLYLINE
  5
46
330
96F
100
AcDbEntity
  8
LAYER_1
100
AcDbPolyline
 90
        3
 70
     1
 43
0.0
 10
-58.77759825023439
 20
55.99999999999631
 42
-0.4142135623730835
 10
-64.81392309291315
 20
49.96467515732085
 42
-0.4142135623730835
 10
-70.85024793559194
 20
55.99999999999631
  0
LWPOLYLINE
  5
47
330
96F
100
AcDbEntity
  8
LAYER_1
100
AcDbPolyline
 90
        3
 70
     1
 43
0.0
 10
-188.4054444360606
 20
55.99999999999631
 42
-0.4142135623730835
 10
-194.4417692787395
 20
49.96467515732085
 42
-0.4142135623730835
 10
-200.4780941214183
 20
55.99999999999631
  0
LWPOLYLINE
  5
4C
330
96F
100
AcDbEntity
  8
LAYER_1
100
AcDbPolyline
 90
        3
 70
     1
 43
0.0
 10
267.5976537868852
 20
56.00000000000001
 42
-0.4142135623731001
 10
259.2556923716529
 20
48.09278295686819
 42
-0.4142135623731001
 10
250.9137309564201
 20
55.99999999999999
  0
LWPOLYLINE
  5
4D
330
96F
100
AcDbEntity
  8
LAYER_1
100
AcDbPolyline
 90
        3
 70
     1
 43
0.0
 10
137.9698076010589
 20
56.00000000000001
 42
-0.4142135623731001
 10
129.6278461858261
 20
48.09278295686819
 42
-0.4142135623731001
 10
121.2858847705938
 20
55.99999999999999
  0
LWPOLYLINE
  5
4E
330
96F
100
AcDbEntity
  8
LAYER_1
100
AcDbPolyline
 90
        3
 70
     1
 43
0.0
 10
8.341961415232553
 20
56.00000000000001
 42
-0.4142135623731001
 10
0.0000000000002132
 20
48.09278295686819
 42
-0.4142135623731001
 10
-8.341961415232551
 20
56.0
  0
LWPOLYLINE
  5
4F
330
96F
100
AcDbEntity
  8
LAYER_1
100
AcDbPolyline
 90
        3
 70
     1
 43
0.0
 10
-121.2858847705938
 20
56.00000000000001
 42
-0.4142135623731001
 10
-129.6278461858261
 20
48.09278295686819
 42
-0.4142135623731001
 10
-137.9698076010589
 20
56.0
  0
LWPOLYLINE
  5
50
330
96F
100
AcDbEntity
  8
LAYER_1
100
AcDbPolyline
 90
        3
 70
     1
 43
0.0
 10
-250.9137309564201
 20
56.00000000000001
 42
-0.4142135623731001
 10
-259.2556923716529
 20
48.09278295686819
 42
-0.4142135623731001
 10
-267.5976537868852
 20
56.00000000000001
  0
LWPOLYLINE
  5
57
330
96F
100
AcDbEntity
  8
LAYER_1
100
AcDbPolyline
 90
        5
 70
     0
 43
0.0
 10
291.875325490105
 20
41.0704700924749
 10
291.7820326725593
 20
41.017569617049
 10
272.8273666673748
 20
52.02139086241914
 10
272.7035691752165
 20
52.39278333889506
 10
291.875325490105
 20
52.39278333889506
  0
LWPOLYLINE
  5
58
330
96F
100
AcDbEntity
  8
LAYER_1
100
AcDbPolyline
 90
        5
 70
     1
 43
0.0
 10
245.6840180759304
 20
52.02139086241914
 10
226.7293520707458
 20
41.017569617049
 10
207.4750483303114
 20
51.93547143049797
 10
207.4643029383118
 20
52.39278333889506
 10
245.8078155680892
 20
52.39278333889506
  0
LWPOLYLINE
  5
59
330
96F
100
AcDbEntity
  8
LAYER_1
100
AcDbPolyline
 90
        5
 70
     1
 43
0.0
 10
181.4084902271676
 20
51.93547143049797
 10
162.1541864867332
 20
41.017569617049
 10
143.1995204815486
 20
52.02139086241914
 10
143.0757229893898
 20
52.39278333889506
 10
181.4192356191672
 20
52.39278333889506
  0
LWPOLYLINE
  5
5A
330
96F
100
AcDbEntity
  8
LAYER_1
100
AcDbPolyline
 90
        5
 70
     1
 43
0.0
 10
116.0561718901042
 20
52.02139086241914
 10
97.10150588491959
 20
41.017569617049
 10
77.84720214448508
 20
51.93547143049797
 10
77.83645675248546
 20
52.39278333889506
 10
116.1799693822625
 20
52.39278333889506
  0
LWPOLYLINE
  5
5B
330
96F
100
AcDbEntity
  8
LAYER_1
100
AcDbPolyline
 90
        5
 70
     1
 43
0.0
 10
51.78064404134122
 20
51.93547143049797
 10
32.52634030090673
 20
41.017569617049
 10
13.57167429572216
 20
52.02139086241914
 10
13.44787680356383
 20
52.39278333889506
 10
51.79138943334085
 20
52.39278333889506
  0
LWPOLYLINE
  5
5C
330
96F
100
AcDbEntity
  8
LAYER_1
100
AcDbPolyline
 90
        5
 70
     1
 43
0.0
 10
-13.57167429572227
 20
52.02139086241914
 10
-32.52634030090684
 20
41.017569617049
 10
-51.78064404134125
 20
51.93547143049797
 10
-51.79138943334085
 20
52.39278333889506
 10
-13.44787680356352
 20
52.39278333889506
  0
LWPOLYLINE
  5
5D
330
96F
100
AcDbEntity
  8
LAYER_1
100
AcDbPolyline
 90
        5
 70
     1
 43
0.0
 10
-77.84720214448508
 20
51.93547143049797
 10
-97.10150588491959
 20
41.017569617049
 10
-116.0561718901042
 20
52.02139086241914
 10
-116.1799693822625
 20
52.39278333889506
 10
-77.83645675248546
 20
52.39278333889506
  0
LWPOLYLINE
  5
5E
330
96F
100
AcDbEntity
  8
LAYER_1
100
AcDbPolyline
 90
        5
 70
     1
 43
0.0
 10
-143.1995204815486
 20
52.02139086241914
 10
-162.1541864867332
 20
41.017569617049
 10
-181.4084902271676
 20
51.93547143049797
 10
-181.4192356191672
 20
52.39278333889506
 10
-143.0757229893898
 20
52.39278333889506
  0
LWPOLYLINE
  5
5F
330
96F
100
AcDbEntity
  8
LAYER_1
100
AcDbPolyline
 90
        5
 70
     1
 43
0.0
 10
-207.4750483303114
 20
51.93547143049797
 10
-226.7293520707458
 20
41.017569617049
 10
-245.6840180759304
 20
52.02139086241914
 10
-245.8078155680892
 20
52.39278333889506
 10
-207.4643029383118
 20
52.39278333889506
  0
LWPOLYLINE
  5
60
330
96F
100
AcDbEntity
  8
LAYER_1
100
AcDbPolyline
 90
        5
 70
     0
 43
0.0
 10
-291.875325490105
 20
52.39278333889506
 10
-272.7035691752165
 20
52.39278333889506
 10
-272.8273666673748
 20
52.02139086241914
 10
-291.7820326725593
 20
41.017569617049
 10
-291.875325490105
 20
41.0704700924749
  0
LWPOLYLINE
  5
6E
330
96F
100
AcDbEntity
  8
LAYER_1
100
AcDbPolyline
 90
       10
 70
     1
 43
0.0
 10
269.2341921545575
 20
46.65428327399065
 10
288.4992167271944
 20
35.47721244364222
 10
288.4992167271944
 20
13.01584430859249
 10
287.9950269189031
 20
13.01584430859249
 10
268.6693531405726
 20
46.35271829933949
 10
268.859760988182
 20
46.66080466849599
 10
268.888269000086
 20
46.70381138154372
 10
268.9099080913038
 20
46.73237020278018
 10
268.9324330853481
 20
46.75853293748658
 10
268.9502997298508
 20
46.77684049493787
  0
LWPOLYLINE
  5
6F
330
96F
100
AcDbEntity
  8
LAYER_1
100
AcDbPolyline
 90
       10
 70
     1
 43
0.0
 10
249.5789516579572
 20
46.75853293748658
 10
249.6014766520014
 20
46.73237020278018
 10
249.6231157432192
 20
46.70381138154372
 10
249.6516237551237
 20
46.66080466849599
 10
249.8420316027331
 20
46.35271829933949
 10
230.5163578244021
 20
13.01584430859249
 10
230.0121680161108
 20
13.01584430859249
 10
230.0121680161108
 20
35.47721244364222
 10
249.2771925887478
 20
46.65428327399065
 10
249.5610850134545
 20
46.77684049493787
  0
LWPOLYLINE
  5
70
330
96F
100
AcDbEntity
  8
LAYER_1
100
AcDbPolyline
 90
        5
 70
     1
 43
0.0
 10
223.4705968084029
 20
35.48991103953223
 10
223.4705968084029
 20
13.01584430859249
 10
222.8115762409478
 20
13.01584430859249
 10
203.6105983494805
 20
46.30778600150806
 10
203.9803691243747
 20
46.67755677640208
  0
LWPOLYLINE
  5
71
330
96F
100
AcDbEntity
  8
LAYER_1
100
AcDbPolyline
 90
        5
 70
     1
 43
0.0
 10
185.2729402079985
 20
46.30778600150806
 10
166.0719623165311
 20
13.01584430859249
 10
165.4129417490761
 20
13.01584430859249
 10
165.4129417490761
 20
35.48991103953223
 10
184.9031694331043
 20
46.67755677640208
  0
LWPOLYLINE
  5
72
330
96F
100
AcDbEntity
  8
LAYER_1
100
AcDbPolyline
 90
       10
 70
     1
 43
0.0
 10
139.6063459687311
 20
46.65428327399065
 10
158.8713705413681
 20
35.47721244364222
 10
158.8713705413681
 20
13.01584430859249
 10
158.3671807330769
 20
13.01584430859249
 10
139.0415069547459
 20
46.35271829933949
 10
139.2319148023553
 20
46.66080466849599
 10
139.2604228142598
 20
46.70381138154372
 10
139.2820619054775
 20
46.73237020278018
 10
139.3045868995217
 20
46.75853293748658
 10
139.3224535440244
 20
46.77684049493787
  0
LWPOLYLINE
  5
73
330
96F
100
AcDbEntity
  8
LAYER_1
100
AcDbPolyline
 90
       10
 70
     1
 43
0.0
 10
119.9511054721309
 20
46.75853293748658
 10
119.9736304661752
 20
46.73237020278018
 10
119.995269557393
 20
46.70381138154372
 10
120.0237775692969
 20
46.66080466849599
 10
120.2141854169063
 20
46.35271829933949
 10
100.8885116385758
 20
13.01584430859249
 10
100.3843218302845
 20
13.01584430859249
 10
100.3843218302845
 20
35.47721244364222
 10
119.6493464029215
 20
46.65428327399065
 10
119.9332388276282
 20
46.77684049493787
  0
LWPOLYLINE
  5
74
330
96F
100
AcDbEntity
  8
LAYER_1
100
AcDbPolyline
 90
        5
 70
     1
 43
0.0
 10
93.84275062257666
 20
35.48991103953223
 10
93.84275062257666
 20
13.01584430859249
 10
93.18373005512144
 20
13.01584430859249
 10
73.98275216365423
 20
46.30778600150806
 10
74.35252293854849
 20
46.67755677640208
  0
LWPOLYLINE
  5
75
330
96F
100
AcDbEntity
  8
LAYER_1
100
AcDbPolyline
 90
        5
 70
     1
 43
0.0
 10
55.64509402217207
 20
46.30778600150806
 10
36.44411613070489
 20
13.01584430859249
 10
35.78509556324965
 20
13.01584430859249
 10
35.78509556324965
 20
35.48991103953223
 10
55.27532324727783
 20
46.67755677640208
  0
LWPOLYLINE
  5
76
330
96F
100
AcDbEntity
  8
LAYER_1
100
AcDbPolyline
 90
       10
 70
     1
 43
0.0
 10
9.978499782904838
 20
46.65428327399065
 10
29.24352435554177
 20
35.47721244364222
 10
29.24352435554177
 20
13.01584430859249
 10
28.7393345472505
 20
13.01584430859249
 10
9.413660768920017
 20
46.35271829933949
 10
9.604068616529376
 20
46.66080466849599
 10
9.632576628433355
 20
46.70381138154372
 10
9.654215719651119
 20
46.73237020278018
 10
9.676740713695396
 20
46.75853293748658
 10
9.694607358198103
 20
46.77684049493787
  0
LWPOLYLINE
  5
77
330
96F
100
AcDbEntity
  8
LAYER_1
100
AcDbPolyline
 90
       10
 70
     1
 43
0.0
 10
-9.676740713695396
 20
46.75853293748658
 10
-9.654215719651226
 20
46.73237020278018
 10
-9.632576628433461
 20
46.70381138154372
 10
-9.604068616528946
 20
46.66080466849599
 10
-9.413660768919598
 20
46.35271829933949
 10
-28.73933454725061
 20
13.01584430859249
 10
-29.24352435554188
 20
13.01584430859249
 10
-29.24352435554188
 20
35.47721244364222
 10
-9.978499782904838
 20
46.65428327399065
 10
-9.694607358198103
 20
46.77684049493787
  0
LWPOLYLINE
  5
78
330
96F
100
AcDbEntity
  8
LAYER_1
100
AcDbPolyline
 90
        5
 70
     1
 43
0.0
 10
-35.78509556324975
 20
35.48991103953223
 10
-35.78509556324975
 20
13.01584430859249
 10
-36.4441161307049
 20
13.01584430859249
 10
-55.64509402217218
 20
46.30778600150806
 10
-55.27532324727793
 20
46.67755677640208
  0
LWPOLYLINE
  5
79
330
96F
100
AcDbEntity
  8
LAYER_1
100
AcDbPolyline
 90
        5
 70
     1
 43
0.0
 10
-73.98275216365423
 20
46.30778600150806
 10
-93.18373005512144
 20
13.01584430859249
 10
-93.84275062257666
 20
13.01584430859249
 10
-93.84275062257666
 20
35.48991103953223
 10
-74.35252293854849
 20
46.67755677640208
  0
LWPOLYLINE
  5
7A
330
96F
100
AcDbEntity
  8
LAYER_1
100
AcDbPolyline
 90
       10
 70
     1
 43
0.0
 10
-119.6493464029215
 20
46.65428327399065
 10
-100.3843218302845
 20
35.47721244364222
 10
-100.3843218302845
 20
13.01584430859249
 10
-100.8885116385758
 20
13.01584430859249
 10
-120.2141854169063
 20
46.35271829933949
 10
-120.0237775692969
 20
46.66080466849599
 10
-119.995269557393
 20
46.70381138154372
 10
-119.9736304661752
 20
46.73237020278018
 10
-119.9511054721309
 20
46.75853293748658
 10
-119.9332388276282
 20
46.77684049493787
  0
LWPOLYLINE
  5
7B
330
96F
100
AcDbEntity
  8
LAYER_1
100
AcDbPolyline
 90
       10
 70
     1
 43
0.0
 10
-139.3045868995217
 20
46.75853293748658
 10
-139.2820619054775
 20
46.73237020278018
 10
-139.2604228142598
 20
46.70381138154372
 10
-139.2319148023553
 20
46.66080466849599
 10
-139.0415069547459
 20
46.35271829933949
 10
-158.3671807330769
 20
13.01584430859249
 10
-158.8713705413681
 20
13.01584430859249
 10
-158.8713705413681
 20
35.47721244364222
 10
-139.6063459687311
 20
46.65428327399065
 10
-139.3224535440244
 20
46.77684049493787
  0
LWPOLYLINE
  5
7C
330
96F
100
AcDbEntity
  8
LAYER_1
100
AcDbPolyline
 90
        5
 70
     1
 43
0.0
 10
-165.4129417490761
 20
35.48991103953223
 10
-165.4129417490761
 20
13.01584430859249
 10
-166.0719623165311
 20
13.01584430859249
 10
-185.2729402079985
 20
46.30778600150806
 10
-184.9031694331043
 20
46.67755677640208
  0
LWPOLYLINE
  5
7D
330
96F
100
AcDbEntity
  8
LAYER_1
100
AcDbPolyline
 90
        5
 70
     1
 43
0.0
 10
-203.6105983494805
 20
46.30778600150806
 10
-222.8115762409478
 20
13.01584430859249
 10
-223.4705968084029
 20
13.01584430859249
 10
-223.4705968084029
 20
35.48991103953223
 10
-203.9803691243747
 20
46.67755677640208
  0
LWPOLYLINE
  5
7E
330
96F
100
AcDbEntity
  8
LAYER_1
100
AcDbPolyline
 90
       10
 70
     1
 43
0.0
 10
-249.2771925887478
 20
46.65428327399065
 10
-230.0121680161108
 20
35.47721244364222
 10
-230.0121680161108
 20
13.01584430859249
 10
-230.5163578244021
 20
13.01584430859249
 10
-249.8420316027331
 20
46.35271829933949
 10
-249.6516237551237
 20
46.66080466849599
 10
-249.6231157432192
 20
46.70381138154372
 10
-249.6014766520014
 20
46.73237020278018
 10
-249.5789516579572
 20
46.75853293748658
 10
-249.5610850134545
 20
46.77684049493787
  0
LWPOLYLINE
  5
7F
330
96F
100
AcDbEntity
  8
LAYER_1
100
AcDbPolyline
 90
       10
 70
     1
 43
0.0
 10
-268.9324330853481
 20
46.75853293748658
 10
-268.9099080913038
 20
46.73237020278018
 10
-268.888269000086
 20
46.70381138154372
 10
-268.859760988182
 20
46.66080466849599
 10
-268.6693531405726
 20
46.35271829933949
 10
-287.9950269189031
 20
13.01584430859249
 10
-288.4992167271944
 20
13.01584430859249
 10
-288.4992167271944
 20
35.47721244364222
 10
-269.2341921545575
 20
46.65428327399065
 10
-268.9502997298508
 20
46.77684049493787
  0
LWPOLYLINE
  5
8E
330
96F
100
AcDbEntity
  8
LAYER_1
100
AcDbPolyline
 90
        9
 70
     1
 43
0.0
 10
204.7526382279024
 20
31.45662959176843
 10
217.2443581320624
 20
9.927530256003892
 10
217.2443581320624
 20
9.199698937395183
 10
217.24253948006
 20
9.145681237091279
 10
217.2403811504757
 20
9.12444513587981
 10
217.1150674349452
 20
9.12444513587981
 10
197.3244149653239
 20
20.55639195416599
 10
197.3244149653239
 20
43.05342532438444
 10
198.0358669526274
 20
43.05342532438444
  0
LWPOLYLINE
  5
8F
330
96F
100
AcDbEntity
  8
LAYER_1
100
AcDbPolyline
 90
        9
 70
     1
 43
0.0
 10
191.5591235921551
 20
20.55639195416599
 10
171.7684711225338
 20
9.12444513587981
 10
171.6431574070033
 20
9.12444513587981
 10
171.640999077419
 20
9.145681237091279
 10
171.6391804254166
 20
9.199698937395183
 10
171.6391804254166
 20
9.927530256003892
 10
184.1309003295765
 20
31.45662959176843
 10
190.8476716048516
 20
43.05342532438444
 10
191.5591235921551
 20
43.05342532438444
  0
LWPOLYLINE
  5
90
330
96F
100
AcDbEntity
  8
LAYER_1
100
AcDbPolyline
 90
        9
 70
     1
 43
0.0
 10
75.12479204207598
 20
31.45662959176843
 10
87.61651194623619
 20
9.927530256003892
 10
87.61651194623619
 20
9.199698937395183
 10
87.61469329423322
 20
9.145681237091279
 10
87.61253496464879
 20
9.12444513587981
 10
87.48722124911896
 20
9.12444513587981
 10
67.69656877949717
 20
20.55639195416599
 10
67.69656877949717
 20
43.05342532438444
 10
68.40802076680049
 20
43.05342532438444
  0
LWPOLYLINE
  5
91
330
96F
100
AcDbEntity
  8
LAYER_1
100
AcDbPolyline
 90
        9
 70
     1
 43
0.0
 10
61.93127740632913
 20
20.55639195416599
 10
42.14062493670735
 20
9.12444513587981
 10
42.0153112211775
 20
9.12444513587981
 10
42.01315289159308
 20
9.145681237091279
 10
42.01133423959013
 20
9.199698937395183
 10
42.01133423959013
 20
9.927530256003892
 10
54.50305414375033
 20
31.45662959176843
 10
61.21982541902582
 20
43.05342532438444
 10
61.93127740632913
 20
43.05342532438444
  0
LWPOLYLINE
  5
92
330
96F
100
AcDbEntity
  8
LAYER_1
100
AcDbPolyline
 90
        9
 70
     1
 43
0.0
 10
-54.50305414375023
 20
31.45662959176843
 10
-42.01133423959024
 20
9.927530256003892
 10
-42.01133423959024
 20
9.199698937395183
 10
-42.01315289159265
 20
9.145681237091279
 10
-42.01531122117696
 20
9.12444513587981
 10
-42.14062493670747
 20
9.12444513587981
 10
-61.93127740632872
 20
20.55639195416599
 10
-61.93127740632872
 20
43.05342532438444
 10
-61.21982541902529
 20
43.05342532438444
  0
LWPOLYLINE
  5
93
330
96F
100
AcDbEntity
  8
LAYER_1
100
AcDbPolyline
 90
        9
 70
     1
 43
0.0
 10
-67.69656877949717
 20
20.55639195416599
 10
-87.48722124911896
 20
9.12444513587981
 10
-87.61253496464879
 20
9.12444513587981
 10
-87.61469329423322
 20
9.145681237091279
 10
-87.61651194623619
 20
9.199698937395183
 10
-87.61651194623619
 20
9.927530256003892
 10
-75.12479204207598
 20
31.45662959176843
 10
-68.40802076680049
 20
43.05342532438444
 10
-67.69656877949717
 20
43.05342532438444
  0
LWPOLYLINE
  5
94
330
96F
100
AcDbEntity
  8
LAYER_1
100
AcDbPolyline
 90
        9
 70
     1
 43
0.0
 10
-184.1309003295765
 20
31.45662959176843
 10
-171.6391804254166
 20
9.927530256003892
 10
-171.6391804254166
 20
9.199698937395183
 10
-171.640999077419
 20
9.145681237091279
 10
-171.6431574070033
 20
9.12444513587981
 10
-171.7684711225338
 20
9.12444513587981
 10
-191.5591235921551
 20
20.55639195416599
 10
-191.5591235921551
 20
43.05342532438444
 10
-190.8476716048516
 20
43.05342532438444
  0
LWPOLYLINE
  5
95
330
96F
100
AcDbEntity
  8
LAYER_1
100
AcDbPolyline
 90
        9
 70
     1
 43
0.0
 10
-197.3244149653239
 20
20.55639195416599
 10
-217.1150674349452
 20
9.12444513587981
 10
-217.2403811504757
 20
9.12444513587981
 10
-217.24253948006
 20
9.145681237091279
 10
-217.2443581320624
 20
9.199698937395183
 10
-217.2443581320624
 20
9.927530256003892
 10
-204.7526382279024
 20
31.45662959176843
 10
-198.0358669526274
 20
43.05342532438444
 10
-197.3244149653239
 20
43.05342532438444
  0
LWPOLYLINE
  5
9F
330
96F
100
AcDbEntity
  8
LAYER_1
100
AcDbPolyline
 90
        7
 70
     1
 43
0.0
 10
263.3501840191765
 20
42.74757244883035
 10
282.6642758119517
 20
9.488744074691609
 10
282.3159501869125
 20
9.118010752729688
 10
263.1031231245632
 20
20.10725351566386
 10
263.0495275296339
 20
20.14817517649669
 10
263.0837639144278
 20
42.80410470301932
 10
263.0849321319174
 20
42.83598974458352
  0
LWPOLYLINE
  5
A0
330
96F
100
AcDbEntity
  8
LAYER_1
100
AcDbPolyline
 90
        7
 70
     1
 43
0.0
 10
255.427620828878
 20
42.80410470301932
 10
255.4618572136714
 20
20.14817517649669
 10
255.4082616187425
 20
20.10725351566386
 10
236.1954345563933
 20
9.118010752729688
 10
235.8471089313542
 20
9.488744074691609
 10
255.1612007241287
 20
42.74757244883035
 10
255.4264526113884
 20
42.83598974458352
  0
LWPOLYLINE
  5
A1
330
96F
100
AcDbEntity
  8
LAYER_1
100
AcDbPolyline
 90
        7
 70
     1
 43
0.0
 10
133.7223378333503
 20
42.74757244883035
 10
153.0364296261248
 20
9.488744074691609
 10
152.6881040010857
 20
9.118010752729688
 10
133.4752769387365
 20
20.10725351566386
 10
133.4216813438076
 20
20.14817517649669
 10
133.455917728601
 20
42.80410470301932
 10
133.4570859460906
 20
42.83598974458352
  0
LWPOLYLINE
  5
A2
330
96F
100
AcDbEntity
  8
LAYER_1
100
AcDbPolyline
 90
        7
 70
     1
 43
0.0
 10
125.7997746430512
 20
42.80410470301932
 10
125.8340110278451
 20
20.14817517649669
 10
125.7804154329157
 20
20.10725351566386
 10
106.5675883705665
 20
9.118010752729688
 10
106.2192627455274
 20
9.488744074691609
 10
125.5333545383025
 20
42.74757244883035
 10
125.7986064255616
 20
42.83598974458352
  0
LWPOLYLINE
  5
A3
330
96F
100
AcDbEntity
  8
LAYER_1
100
AcDbPolyline
 90
        7
 70
     1
 43
0.0
 10
4.094491647523823
 20
42.74757244883035
 10
23.40858344029891
 20
9.488744074691609
 10
23.06025781525977
 20
9.118010752729688
 10
3.847430752910608
 20
20.10725351566386
 10
3.793835157981238
 20
20.14817517649669
 10
3.828071542775127
 20
42.80410470301932
 10
3.82923976026468
 20
42.83598974458352
  0
LWPOLYLINE
  5
A4
330
96F
100
AcDbEntity
  8
LAYER_1
100
AcDbPolyline
 90
        7
 70
     1
 43
0.0
 10
-3.828071542774705
 20
42.80410470301932
 10
-3.793835157981238
 20
20.14817517649669
 10
-3.847430752910181
 20
20.10725351566386
 10
-23.06025781525935
 20
9.118010752729688
 10
-23.40858344029849
 20
9.488744074691609
 10
-4.094491647523931
 20
42.74757244883035
 10
-3.829239760264258
 20
42.83598974458352
  0
LWPOLYLINE
  5
A5
330
96F
100
AcDbEntity
  8
LAYER_1
100
AcDbPolyline
 90
        7
 70
     1
 43
0.0
 10
-125.5333545383025
 20
42.74757244883035
 10
-106.2192627455274
 20
9.488744074691609
 10
-106.5675883705665
 20
9.118010752729688
 10
-125.7804154329157
 20
20.10725351566386
 10
-125.8340110278451
 20
20.14817517649669
 10
-125.7997746430512
 20
42.80410470301932
 10
-125.7986064255616
 20
42.83598974458352
  0
LWPOLYLINE
  5
A6
330
96F
100
AcDbEntity
  8
LAYER_1
100
AcDbPolyline
 90
        7
 70
     1
 43
0.0
 10
-133.455917728601
 20
42.80410470301932
 10
-133.4216813438076
 20
20.14817517649669
 10
-133.4752769387365
 20
20.10725351566386
 10
-152.6881040010857
 20
9.118010752729688
 10
-153.0364296261248
 20
9.488744074691609
 10
-133.7223378333503
 20
42.74757244883035
 10
-133.4570859460906
 20
42.83598974458352
  0
LWPOLYLINE
  5
A7
330
96F
100
AcDbEntity
  8
LAYER_1
100
AcDbPolyline
 90
        7
 70
     1
 43
0.0
 10
-255.1612007241287
 20
42.74757244883035
 10
-235.8471089313542
 20
9.488744074691609
 10
-236.1954345563933
 20
9.118010752729688
 10
-255.4082616187425
 20
20.10725351566386
 10
-255.4618572136714
 20
20.14817517649669
 10
-255.427620828878
 20
42.80410470301932
 10
-255.4264526113884
 20
42.83598974458352
  0
LWPOLYLINE
  5
A8
330
96F
100
AcDbEntity
  8
LAYER_1
100
AcDbPolyline
 90
        7
 70
     1
 43
0.0
 10
-263.0837639144278
 20
42.80410470301932
 10
-263.0495275296339
 20
20.14817517649669
 10
-263.1031231245632
 20
20.10725351566386
 10
-282.3159501869125
 20
9.118010752729688
 10
-282.6642758119517
 20
9.488744074691609
 10
-263.3501840191765
 20
42.74757244883035
 10
-263.0849321319174
 20
42.83598974458352
  0
LWPOLYLINE
  5
B2
330
96F
100
AcDbEntity
  8
LAYER_1
100
AcDbPolyline
 90
        7
 70
     1
 43
0.0
 10
259.8001502799546
 20
14.60552185426697
 10
279.0142342896082
 20
3.622969819630143
 10
278.9023598086683
 20
3.287346376810646
 10
239.6090249346376
 20
3.287346376810646
 10
239.4971504536975
 20
3.622969819630143
 10
258.7112344633506
 20
14.60552185426697
 10
259.2556923716526
 20
14.89046132242045
  0
LWPOLYLINE
  5
B3
330
96F
100
AcDbEntity
  8
LAYER_1
100
AcDbPolyline
 90
        5
 70
     1
 43
0.0
 10
213.9658996523232
 20
3.563825664149661
 10
213.8737398898767
 20
3.287346376810646
 10
175.0097986676022
 20
3.287346376810646
 10
174.9176389051558
 20
3.563825664149661
 10
194.4417692787395
 20
14.85783870072923
  0
LWPOLYLINE
  5
B4
330
96F
100
AcDbEntity
  8
LAYER_1
100
AcDbPolyline
 90
        7
 70
     1
 43
0.0
 10
130.1723040941284
 20
14.60552185426697
 10
149.3863881037815
 20
3.622969819630143
 10
149.2745136228414
 20
3.287346376810646
 10
109.9811787488107
 20
3.287346376810646
 10
109.8693042678707
 20
3.622969819630143
 10
129.0833882775244
 20
14.60552185426697
 10
129.6278461858264
 20
14.89046132242045
  0
LWPOLYLINE
  5
B5
330
96F
100
AcDbEntity
  8
LAYER_1
100
AcDbPolyline
 90
        5
 70
     1
 43
0.0
 10
84.33805346649629
 20
3.563825664149661
 10
84.24589370405
 20
3.287346376810646
 10
45.38195248177634
 20
3.287346376810646
 10
45.28979271933002
 20
3.563825664149661
 10
64.81392309291315
 20
14.85783870072875
  0
LWPOLYLINE
  5
B6
330
96F
100
AcDbEntity
  8
LAYER_1
100
AcDbPolyline
 90
        7
 70
     1
 43
0.0
 10
0.5444579083019257
 20
14.60552185426697
 10
19.75854191795557
 20
3.622969819630143
 10
19.64666743701562
 20
3.287346376810646
 10
-19.64666743701508
 20
3.287346376810646
 10
-19.75854191795516
 20
3.622969819630143
 10
-0.5444579083020358
 20
14.60552185426697
 10
-0.0000000000000533
 20
14.89046132242045
  0
LWPOLYLINE
  5
B7
330
96F
100
AcDbEntity
  8
LAYER_1
100
AcDbPolyline
 90
        5
 70
     1
 43
0.0
 10
-45.28979271932949
 20
3.563825664149661
 10
-45.3819524817759
 20
3.287346376810646
 10
-84.24589370405
 20
3.287346376810646
 10
-84.33805346649629
 20
3.563825664149661
 10
-64.81392309291364
 20
14.85783870072899
  0
LWPOLYLINE
  5
B8
330
96F
100
AcDbEntity
  8
LAYER_1
100
AcDbPolyline
 90
        7
 70
     1
 43
0.0
 10
-129.0833882775244
 20
14.60552185426697
 10
-109.8693042678707
 20
3.622969819630143
 10
-109.9811787488107
 20
3.287346376810646
 10
-149.2745136228414
 20
3.287346376810646
 10
-149.3863881037815
 20
3.622969819630143
 10
-130.1723040941284
 20
14.60552185426697
 10
-129.6278461858264
 20
14.89046132242045
  0
LWPOLYLINE
  5
B9
330
96F
100
AcDbEntity
  8
LAYER_1
100
AcDbPolyline
 90
        5
 70
     1
 43
0.0
 10
-174.9176389051558
 20
3.563825664149661
 10
-175.0097986676022
 20
3.287346376810646
 10
-213.8737398898767
 20
3.287346376810646
 10
-213.9658996523232
 20
3.563825664149661
 10
-194.4417692787395
 20
14.85783870072923
  0
LWPOLYLINE
  5
BA
330
96F
100
AcDbEntity
  8
LAYER_1
100
AcDbPolyline
 90
        7
 70
     1
 43
0.0
 10
-258.7112344633506
 20
14.60552185426697
 10
-239.4971504536975
 20
3.622969819630143
 10
-239.6090249346376
 20
3.287346376810646
 10
-278.9023598086683
 20
3.287346376810646
 10
-279.0142342896082
 20
3.622969819630143
 10
-259.8001502799546
 20
14.60552185426697
 10
-259.2556923716526
 20
14.89046132242045
  0
LWPOLYLINE
  5
C4
330
96F
100
AcDbEntity
  8
LAYER_1
100
AcDbPolyline
 90
        3
 70
     0
 43
0.0
 10
291.8753254901051
 20
-6.035732998913108
 42
-0.4129214579142727
 10
285.8666387088219
 20
-0.0000000000000142
 42
-0.4129214579142456
 10
291.875325490105
 20
6.035732998913053
 42
-0.4129214579142456
  0
LWPOLYLINE
  5
C5
330
96F
100
AcDbEntity
  8
LAYER_1
100
AcDbPolyline
 90
        4
 70
     1
 43
0.0
 10
226.6094211918052
 20
6.035792815726067
 42
-0.4142135623731182
 10
232.6447460344835
 20
-0.0000000000000142
 42
-0.4142135623731182
 10
226.6094211918052
 20
-6.035792815726111
 42
-0.4142135623730931
 10
220.5740963491292
 20
-0.0000000000000142
 42
-0.4142135623730931
  0
LWPOLYLINE
  5
C6
330
96F
100
AcDbEntity
  8
LAYER_1
100
AcDbPolyline
 90
        4
 70
     1
 43
0.0
 10
162.2741173656738
 20
6.035792815726067
 42
-0.4142135623730931
 10
168.3094422083498
 20
-0.0000000000000142
 42
-0.4142135623730931
 10
162.2741173656738
 20
-6.035792815726111
 42
-0.4142135623731182
 10
156.2387925229954
 20
-0.0000000000000142
 42
-0.4142135623731182
  0
LWPOLYLINE
  5
C7
330
96F
100
AcDbEntity
  8
LAYER_1
100
AcDbPolyline
 90
        4
 70
     1
 43
0.0
 10
96.98157500597844
 20
6.035792815726067
 42
-0.4142135623731182
 10
103.0168998486571
 20
-0.0000000000000142
 42
-0.4142135623731182
 10
96.98157500597886
 20
-6.035792815726111
 42
-0.4142135623730931
 10
90.94625016330283
 20
-0.0000000000000142
 42
-0.4142135623730931
  0
LWPOLYLINE
  5
C8
330
96F
100
AcDbEntity
  8
LAYER_1
100
AcDbPolyline
 90
        4
 70
     1
 43
0.0
 10
32.64627117984787
 20
6.035792815726067
 42
-0.4142135623730931
 10
38.68159602252346
 20
-0.0000000000000142
 42
-0.4142135623730931
 10
32.64627117984745
 20
-6.035792815726111
 42
-0.4142135623731182
 10
26.61094633716925
 20
-0.0000000000000142
 42
-0.4142135623731182
  0
LWPOLYLINE
  5
C9
330
96F
100
AcDbEntity
  8
LAYER_1
100
AcDbPolyline
 90
        4
 70
     1
 43
0.0
 10
-32.64627117984745
 20
6.035792815726067
 42
-0.4142135623731182
 10
-26.6109463371691
 20
-0.0000000000000142
 42
-0.4142135623731182
 10
-32.64627117984745
 20
-6.035792815726111
 42
-0.4142135623730931
 10
-38.68159602252346
 20
-0.0000000000000142
 42
-0.4142135623730931
  0
LWPOLYLINE
  5
CA
330
96F
100
AcDbEntity
  8
LAYER_1
100
AcDbPolyline
 90
        4
 70
     1
 43
0.0
 10
-96.98157500597844
 20
6.035792815726067
 42
-0.4142135623730931
 10
-90.94625016330283
 20
-0.0000000000000142
 42
-0.4142135623730931
 10
-96.98157500597886
 20
-6.035792815726111
 42
-0.4142135623731182
 10
-103.0168998486571
 20
-0.0000000000000142
 42
-0.4142135623731182
  0
LWPOLYLINE
  5
CB
330
96F
100
AcDbEntity
  8
LAYER_1
100
AcDbPolyline
 90
        4
 70
     1
 43
0.0
 10
-162.2741173656738
 20
6.035792815726067
 42
-0.4142135623731182
 10
-156.2387925229954
 20
-0.0000000000000142
 42
-0.4142135623731182
 10
-162.2741173656738
 20
-6.035792815726111
 42
-0.4142135623730931
 10
-168.3094422083498
 20
-0.0000000000000142
 42
-0.4142135623730931
  0
LWPOLYLINE
  5
CC
330
96F
100
AcDbEntity
  8
LAYER_1
100
AcDbPolyline
 90
        4
 70
     1
 43
0.0
 10
-226.6094211918052
 20
6.035792815726067
 42
-0.4142135623730931
 10
-220.5740963491292
 20
-0.0000000000000142
 42
-0.4142135623730931
 10
-226.6094211918052
 20
-6.035792815726111
 42
-0.4142135623731182
 10
-232.6447460344835
 20
-0.0000000000000142
 42
-0.4142135623731182
  0
LWPOLYLINE
  5
CD
330
96F
100
AcDbEntity
  8
LAYER_1
100
AcDbPolyline
 90
        3
 70
     0
 43
0.0
 10
-291.875325490105
 20
6.035732998913063
 42
-0.4129214579142453
 10
-285.8666387088219
 20
-0.0000000000000142
 42
-0.4129214579142723
 10
-291.8753254901051
 20
-6.035732998913119
 42
-0.4129214579142723
  0
LWPOLYLINE
  5
D5
330
96F
100
AcDbEntity
  8
LAYER_1
100
AcDbPolyline
 90
        5
 70
     1
 43
0.0
 10
213.9658996523232
 20
-3.563825664149703
 10
194.4417692787395
 20
-14.85783870072877
 10
174.9176389051558
 20
-3.563825664149703
 10
175.0097986676022
 20
-3.287346376810688
 10
213.8737398898767
 20
-3.287346376810688
  0
LWPOLYLINE
  5
D6
330
96F
100
AcDbEntity
  8
LAYER_1
100
AcDbPolyline
 90
        5
 70
     1
 43
0.0
 10
-174.9176389051558
 20
-3.563825664149703
 10
-194.4417692787395
 20
-14.85783870072877
 10
-213.9658996523232
 20
-3.563825664149703
 10
-213.8737398898767
 20
-3.287346376810688
 10
-175.0097986676022
 20
-3.287346376810688
  0
LWPOLYLINE
  5
D8
330
96F
100
AcDbEntity
  8
LAYER_1
100
AcDbPolyline
 90
        5
 70
     1
 43
0.0
 10
-45.28979271932949
 20
-3.563825664149703
 10
-64.81392309291321
 20
-14.85783870072889
 10
-84.33805346649682
 20
-3.563825664149703
 10
-84.2458937040504
 20
-3.287346376810688
 10
-45.3819524817759
 20
-3.287346376810688
  0
LWPOLYLINE
  5
DA
330
96F
100
AcDbEntity
  8
LAYER_1
100
AcDbPolyline
 90
        5
 70
     1
 43
0.0
 10
84.33805346649682
 20
-3.563825664149703
 10
64.81392309291315
 20
-14.857838700729
 10
45.28979271932949
 20
-3.563825664149703
 10
45.3819524817759
 20
-3.287346376810688
 10
84.2458937040504
 20
-3.287346376810688
  0
LWPOLYLINE
  5
DE
330
96F
100
AcDbEntity
  8
LAYER_1
100
AcDbPolyline
 90
        7
 70
     1
 43
0.0
 10
279.0142342896077
 20
-3.622969819630143
 10
259.8001502799546
 20
-14.60552185426701
 10
259.2556923716526
 20
-14.8904613224205
 10
258.7112344633506
 20
-14.60552185426701
 10
239.4971504536975
 20
-3.622969819630143
 10
239.6090249346376
 20
-3.287346376810688
 10
278.9023598086676
 20
-3.287346376810688
  0
LWPOLYLINE
  5
DF
330
96F
100
AcDbEntity
  8
LAYER_1
100
AcDbPolyline
 90
        7
 70
     1
 43
0.0
 10
149.3863881037815
 20
-3.622969819630143
 10
130.1723040941284
 20
-14.60552185426701
 10
129.6278461858264
 20
-14.8904613224205
 10
129.0833882775244
 20
-14.60552185426701
 10
109.8693042678713
 20
-3.622969819630143
 10
109.9811787488112
 20
-3.287346376810688
 10
149.2745136228414
 20
-3.287346376810688
  0
LWPOLYLINE
  5
E0
330
96F
100
AcDbEntity
  8
LAYER_1
100
AcDbPolyline
 90
        7
 70
     1
 43
0.0
 10
19.75854191795505
 20
-3.622969819630143
 10
0.5444579083019257
 20
-14.60552185426701
 10
-0.0000000000000533
 20
-14.8904613224205
 10
-0.5444579083020358
 20
-14.60552185426701
 10
-19.75854191795516
 20
-3.622969819630143
 10
-19.64666743701508
 20
-3.287346376810688
 10
19.64666743701509
 20
-3.287346376810688
  0
LWPOLYLINE
  5
E1
330
96F
100
AcDbEntity
  8
LAYER_1
100
AcDbPolyline
 90
        7
 70
     1
 43
0.0
 10
-109.8693042678713
 20
-3.622969819630143
 10
-129.0833882775244
 20
-14.60552185426701
 10
-129.6278461858264
 20
-14.8904613224205
 10
-130.1723040941284
 20
-14.60552185426701
 10
-149.3863881037815
 20
-3.622969819630143
 10
-149.2745136228414
 20
-3.287346376810688
 10
-109.9811787488112
 20
-3.287346376810688
  0
LWPOLYLINE
  5
E2
330
96F
100
AcDbEntity
  8
LAYER_1
100
AcDbPolyline
 90
        7
 70
     1
 43
0.0
 10
-239.4971504536975
 20
-3.622969819630143
 10
-258.7112344633506
 20
-14.60552185426701
 10
-259.2556923716526
 20
-14.8904613224205
 10
-259.8001502799546
 20
-14.60552185426701
 10
-279.0142342896077
 20
-3.622969819630143
 10
-278.9023598086676
 20
-3.287346376810688
 10
-239.6090249346376
 20
-3.287346376810688
  0
LWPOLYLINE
  5
EB
330
96F
100
AcDbEntity
  8
LAYER_1
100
AcDbPolyline
 90
        7
 70
     1
 43
0.0
 10
282.6642758119511
 20
-9.488744074691652
 10
263.3501840191765
 20
-42.74757244883033
 10
263.0849321319169
 20
-42.8359897445835
 10
263.0837639144274
 20
-42.80410470301932
 10
263.0495275296333
 20
-20.14817517649668
 10
263.1031231245628
 20
-20.10725351566389
 10
282.3159501869119
 20
-9.118010752729732
  0
LWPOLYLINE
  5
EC
330
96F
100
AcDbEntity
  8
LAYER_1
100
AcDbPolyline
 90
        7
 70
     1
 43
0.0
 10
255.4082616187425
 20
-20.10725351566389
 10
255.4618572136718
 20
-20.14817517649668
 10
255.427620828878
 20
-42.80410470301932
 10
255.4264526113884
 20
-42.8359897445835
 10
255.1612007241287
 20
-42.74757244883033
 10
235.8471089313542
 20
-9.488744074691652
 10
236.1954345563933
 20
-9.118010752729732
  0
LWPOLYLINE
  5
ED
330
96F
100
AcDbEntity
  8
LAYER_1
100
AcDbPolyline
 90
        7
 70
     1
 43
0.0
 10
153.0364296261248
 20
-9.488744074691652
 10
133.7223378333503
 20
-42.74757244883033
 10
133.4570859460906
 20
-42.8359897445835
 10
133.455917728601
 20
-42.80410470301932
 10
133.421681343807
 20
-20.14817517649668
 10
133.4752769387365
 20
-20.10725351566389
 10
152.6881040010857
 20
-9.118010752729732
  0
LWPOLYLINE
  5
EE
330
96F
100
AcDbEntity
  8
LAYER_1
100
AcDbPolyline
 90
        7
 70
     1
 43
0.0
 10
125.7804154329161
 20
-20.10725351566389
 10
125.8340110278456
 20
-20.14817517649668
 10
125.7997746430516
 20
-42.80410470301932
 10
125.7986064255621
 20
-42.8359897445835
 10
125.5333545383025
 20
-42.74757244883033
 10
106.2192627455278
 20
-9.488744074691652
 10
106.5675883705671
 20
-9.118010752729732
  0
LWPOLYLINE
  5
EF
330
96F
100
AcDbEntity
  8
LAYER_1
100
AcDbPolyline
 90
        7
 70
     1
 43
0.0
 10
23.40858344029849
 20
-9.488744074691652
 10
4.094491647523823
 20
-42.74757244883033
 10
3.829239760264258
 20
-42.8359897445835
 10
3.828071542774705
 20
-42.80410470301932
 10
3.793835157980705
 20
-20.14817517649668
 10
3.847430752910181
 20
-20.10725351566389
 10
23.06025781525924
 20
-9.118010752729732
  0
LWPOLYLINE
  5
F0
330
96F
100
AcDbEntity
  8
LAYER_1
100
AcDbPolyline
 90
        7
 70
     1
 43
0.0
 10
-3.847430752910181
 20
-20.10725351566389
 10
-3.793835157980812
 20
-20.14817517649668
 10
-3.828071542774705
 20
-42.80410470301932
 10
-3.829239760264258
 20
-42.8359897445835
 10
-4.094491647523931
 20
-42.74757244883033
 10
-23.40858344029849
 20
-9.488744074691652
 10
-23.06025781525935
 20
-9.118010752729732
  0
LWPOLYLINE
  5
F1
330
96F
100
AcDbEntity
  8
LAYER_1
100
AcDbPolyline
 90
        7
 70
     1
 43
0.0
 10
-106.2192627455278
 20
-9.488744074691652
 10
-125.5333545383025
 20
-42.74757244883033
 10
-125.7986064255621
 20
-42.8359897445835
 10
-125.7997746430516
 20
-42.80410470301932
 10
-125.8340110278456
 20
-20.14817517649668
 10
-125.7804154329161
 20
-20.10725351566389
 10
-106.5675883705671
 20
-9.118010752729732
  0
LWPOLYLINE
  5
F2
330
96F
100
AcDbEntity
  8
LAYER_1
100
AcDbPolyline
 90
        7
 70
     1
 43
0.0
 10
-133.4752769387365
 20
-20.10725351566389
 10
-133.421681343807
 20
-20.14817517649668
 10
-133.455917728601
 20
-42.80410470301932
 10
-133.4570859460906
 20
-42.8359897445835
 10
-133.7223378333503
 20
-42.74757244883033
 10
-153.0364296261248
 20
-9.488744074691652
 10
-152.6881040010857
 20
-9.118010752729732
  0
LWPOLYLINE
  5
F3
330
96F
100
AcDbEntity
  8
LAYER_1
100
AcDbPolyline
 90
        7
 70
     1
 43
0.0
 10
-235.8471089313542
 20
-9.488744074691652
 10
-255.1612007241287
 20
-42.74757244883033
 10
-255.4264526113884
 20
-42.8359897445835
 10
-255.427620828878
 20
-42.80410470301932
 10
-255.4618572136718
 20
-20.14817517649668
 10
-255.4082616187425
 20
-20.10725351566389
 10
-236.1954345563933
 20
-9.118010752729732
  0
LWPOLYLINE
  5
F4
330
96F
100
AcDbEntity
  8
LAYER_1
100
AcDbPolyline
 90
        7
 70
     1
 43
0.0
 10
-263.1031231245628
 20
-20.10725351566389
 10
-263.0495275296333
 20
-20.14817517649668
 10
-263.0837639144274
 20
-42.80410470301932
 10
-263.0849321319169
 20
-42.8359897445835
 10
-263.3501840191765
 20
-42.74757244883033
 10
-282.6642758119511
 20
-9.488744074691652
 10
-282.3159501869119
 20
-9.118010752729732
  0
LWPOLYLINE
  5
FD
330
96F
100
AcDbEntity
  8
LAYER_1
100
AcDbPolyline
 90
        9
 70
     1
 43
0.0
 10
217.2403811504757
 20
-9.124445135879851
 10
217.24253948006
 20
-9.145681237091297
 10
217.2443581320624
 20
-9.199698937395197
 10
217.2443581320624
 20
-9.927530256003898
 10
204.7526382279024
 20
-31.45662959176845
 10
198.0358669526274
 20
-43.05342532438447
 10
197.3244149653239
 20
-43.05342532438447
 10
197.3244149653239
 20
-20.55639195416605
 10
217.1150674349452
 20
-9.124445135879824
  0
LWPOLYLINE
  5
FE
330
96F
100
AcDbEntity
  8
LAYER_1
100
AcDbPolyline
 90
        9
 70
     1
 43
0.0
 10
191.5591235921551
 20
-20.55639195416605
 10
191.5591235921551
 20
-43.05342532438447
 10
190.8476716048516
 20
-43.05342532438447
 10
184.1309003295765
 20
-31.45662959176845
 10
171.6391804254166
 20
-9.927530256003898
 10
171.6391804254166
 20
-9.199698937395197
 10
171.640999077419
 20
-9.145681237091297
 10
171.6431574070033
 20
-9.124445135879851
 10
171.7684711225338
 20
-9.124445135879824
  0
LWPOLYLINE
  5
FF
330
96F
100
AcDbEntity
  8
LAYER_1
100
AcDbPolyline
 90
        9
 70
     1
 43
0.0
 10
87.61253496464936
 20
-9.124445135879851
 10
87.61469329423366
 20
-9.145681237091297
 10
87.61651194623619
 20
-9.199698937395197
 10
87.61651194623619
 20
-9.927530256003898
 10
75.12479204207598
 20
-31.45662959176845
 10
68.40802076680103
 20
-43.05342532438447
 10
67.69656877949761
 20
-43.05342532438447
 10
67.69656877949761
 20
-20.55639195416605
 10
87.48722124911896
 20
-9.124445135879824
  0
LWPOLYLINE
  5
100
330
96F
100
AcDbEntity
  8
LAYER_1
100
AcDbPolyline
 90
        9
 70
     1
 43
0.0
 10
61.93127740632871
 20
-20.55639195416605
 10
61.93127740632871
 20
-43.05342532438447
 10
61.21982541902528
 20
-43.05342532438447
 10
54.50305414375033
 20
-31.45662959176845
 10
42.01133423959013
 20
-9.927530256003898
 10
42.01133423959013
 20
-9.199698937395197
 10
42.01315289159265
 20
-9.145681237091297
 10
42.01531122117696
 20
-9.124445135879851
 10
42.14062493670735
 20
-9.124445135879824
  0
LWPOLYLINE
  5
101
330
96F
100
AcDbEntity
  8
LAYER_1
100
AcDbPolyline
 90
        9
 70
     1
 43
0.0
 10
-42.01531122117696
 20
-9.124445135879851
 10
-42.01315289159265
 20
-9.145681237091297
 10
-42.01133423959024
 20
-9.199698937395197
 10
-42.01133423959024
 20
-9.927530256003898
 10
-54.50305414375023
 20
-31.45662959176845
 10
-61.21982541902529
 20
-43.05342532438447
 10
-61.93127740632872
 20
-43.05342532438447
 10
-61.93127740632872
 20
-20.55639195416605
 10
-42.14062493670747
 20
-9.124445135879824
  0
LWPOLYLINE
  5
102
330
96F
100
AcDbEntity
  8
LAYER_1
100
AcDbPolyline
 90
        9
 70
     1
 43
0.0
 10
-67.69656877949761
 20
-20.55639195416605
 10
-67.69656877949761
 20
-43.05342532438447
 10
-68.40802076680103
 20
-43.05342532438447
 10
-75.12479204207598
 20
-31.45662959176845
 10
-87.61651194623619
 20
-9.927530256003898
 10
-87.61651194623619
 20
-9.199698937395197
 10
-87.61469329423366
 20
-9.145681237091297
 10
-87.61253496464936
 20
-9.124445135879851
 10
-87.48722124911896
 20
-9.124445135879824
  0
LWPOLYLINE
  5
103
330
96F
100
AcDbEntity
  8
LAYER_1
100
AcDbPolyline
 90
        9
 70
     1
 43
0.0
 10
-171.6431574070033
 20
-9.124445135879851
 10
-171.640999077419
 20
-9.145681237091297
 10
-171.6391804254166
 20
-9.199698937395197
 10
-171.6391804254166
 20
-9.927530256003898
 10
-184.1309003295765
 20
-31.45662959176845
 10
-190.8476716048516
 20
-43.05342532438447
 10
-191.5591235921551
 20
-43.05342532438447
 10
-191.5591235921551
 20
-20.55639195416605
 10
-171.7684711225338
 20
-9.124445135879824
  0
LWPOLYLINE
  5
104
330
96F
100
AcDbEntity
  8
LAYER_1
100
AcDbPolyline
 90
        9
 70
     1
 43
0.0
 10
-197.3244149653239
 20
-20.55639195416605
 10
-197.3244149653239
 20
-43.05342532438447
 10
-198.0358669526274
 20
-43.05342532438447
 10
-204.7526382279024
 20
-31.45662959176845
 10
-217.2443581320624
 20
-9.927530256003898
 10
-217.2443581320624
 20
-9.199698937395197
 10
-217.24253948006
 20
-9.145681237091297
 10
-217.2403811504757
 20
-9.124445135879851
 10
-217.1150674349452
 20
-9.124445135879824
  0
LWPOLYLINE
  5
10F
330
96F
100
AcDbEntity
  8
LAYER_1
100
AcDbPolyline
 90
        5
 70
     1
 43
0.0
 10
223.4705968084029
 20
-35.48991103953228
 10
203.9803691243747
 20
-46.67755677640212
 10
203.6105983494805
 20
-46.30778600150806
 10
222.8115762409478
 20
-13.01584430859252
 10
223.4705968084029
 20
-13.01584430859252
  0
LWPOLYLINE
  5
110
330
96F
100
AcDbEntity
  8
LAYER_1
100
AcDbPolyline
 90
        5
 70
     1
 43
0.0
 10
185.2729402079985
 20
-46.30778600150806
 10
184.9031694331043
 20
-46.67755677640212
 10
165.4129417490761
 20
-35.48991103953228
 10
165.4129417490761
 20
-13.01584430859252
 10
166.0719623165311
 20
-13.01584430859252
  0
LWPOLYLINE
  5
111
330
96F
100
AcDbEntity
  8
LAYER_1
100
AcDbPolyline
 90
        5
 70
     1
 43
0.0
 10
93.84275062257666
 20
-35.48991103953228
 10
74.35252293854849
 20
-46.67755677640212
 10
73.98275216365466
 20
-46.30778600150806
 10
93.18373005512144
 20
-13.01584430859252
 10
93.84275062257666
 20
-13.01584430859252
  0
LWPOLYLINE
  5
112
330
96F
100
AcDbEntity
  8
LAYER_1
100
AcDbPolyline
 90
        5
 70
     1
 43
0.0
 10
55.64509402217165
 20
-46.30778600150806
 10
55.27532324727783
 20
-46.67755677640212
 10
35.78509556324965
 20
-35.48991103953228
 10
35.78509556324965
 20
-13.01584430859252
 10
36.44411613070489
 20
-13.01584430859252
  0
LWPOLYLINE
  5
113
330
96F
100
AcDbEntity
  8
LAYER_1
100
AcDbPolyline
 90
        5
 70
     1
 43
0.0
 10
-35.78509556324975
 20
-35.48991103953228
 10
-55.27532324727793
 20
-46.67755677640212
 10
-55.64509402217218
 20
-46.30778600150806
 10
-36.4441161307049
 20
-13.01584430859252
 10
-35.78509556324975
 20
-13.01584430859252
  0
LWPOLYLINE
  5
114
330
96F
100
AcDbEntity
  8
LAYER_1
100
AcDbPolyline
 90
        5
 70
     1
 43
0.0
 10
-73.98275216365466
 20
-46.30778600150806
 10
-74.35252293854849
 20
-46.67755677640212
 10
-93.84275062257666
 20
-35.48991103953228
 10
-93.84275062257666
 20
-13.01584430859252
 10
-93.18373005512144
 20
-13.01584430859252
  0
LWPOLYLINE
  5
115
330
96F
100
AcDbEntity
  8
LAYER_1
100
AcDbPolyline
 90
        5
 70
     1
 43
0.0
 10
-165.4129417490761
 20
-35.48991103953228
 10
-184.9031694331043
 20
-46.67755677640212
 10
-185.2729402079985
 20
-46.30778600150806
 10
-166.0719623165311
 20
-13.01584430859252
 10
-165.4129417490761
 20
-13.01584430859252
  0
LWPOLYLINE
  5
116
330
96F
100
AcDbEntity
  8
LAYER_1
100
AcDbPolyline
 90
        5
 70
     1
 43
0.0
 10
-203.6105983494805
 20
-46.30778600150806
 10
-203.9803691243747
 20
-46.67755677640212
 10
-223.4705968084029
 20
-35.48991103953228
 10
-223.4705968084029
 20
-13.01584430859252
 10
-222.8115762409478
 20
-13.01584430859252
  0
LWPOLYLINE
  5
11F
330
96F
100
AcDbEntity
  8
LAYER_1
100
AcDbPolyline
 90
       10
 70
     1
 43
0.0
 10
288.4992167271944
 20
-35.47721244364228
 10
269.2341921545575
 20
-46.6542832739907
 10
268.9502997298503
 20
-46.77684049493788
 10
268.9324330853481
 20
-46.75853293748661
 10
268.9099080913038
 20
-46.73237020278016
 10
268.8882690000856
 20
-46.70381138154372
 10
268.8597609881816
 20
-46.66080466849603
 10
268.6693531405722
 20
-46.35271829933945
 10
287.9950269189031
 20
-13.01584430859252
 10
288.4992167271944
 20
-13.01584430859252
  0
LWPOLYLINE
  5
120
330
96F
100
AcDbEntity
  8
LAYER_1
100
AcDbPolyline
 90
       10
 70
     1
 43
0.0
 10
249.8420316027331
 20
-46.35271829933945
 10
249.6516237551237
 20
-46.66080466849603
 10
249.6231157432192
 20
-46.70381138154372
 10
249.6014766520014
 20
-46.73237020278016
 10
249.5789516579572
 20
-46.75853293748661
 10
249.5610850134545
 20
-46.77684049493788
 10
249.2771925887478
 20
-46.6542832739907
 10
230.0121680161108
 20
-35.47721244364228
 10
230.0121680161108
 20
-13.01584430859252
 10
230.5163578244021
 20
-13.01584430859252
  0
LWPOLYLINE
  5
121
330
96F
100
AcDbEntity
  8
LAYER_1
100
AcDbPolyline
 90
       10
 70
     1
 43
0.0
 10
158.8713705413681
 20
-35.47721244364228
 10
139.6063459687311
 20
-46.6542832739907
 10
139.3224535440244
 20
-46.77684049493788
 10
139.3045868995217
 20
-46.75853293748661
 10
139.2820619054775
 20
-46.73237020278016
 10
139.2604228142598
 20
-46.70381138154372
 10
139.2319148023553
 20
-46.66080466849603
 10
139.0415069547459
 20
-46.35271829933945
 10
158.3671807330769
 20
-13.01584430859252
 10
158.8713705413681
 20
-13.01584430859252
  0
LWPOLYLINE
  5
122
330
96F
100
AcDbEntity
  8
LAYER_1
100
AcDbPolyline
 90
       10
 70
     1
 43
0.0
 10
120.2141854169067
 20
-46.35271829933945
 10
120.0237775692974
 20
-46.66080466849603
 10
119.9952695573934
 20
-46.70381138154372
 10
119.9736304661752
 20
-46.73237020278016
 10
119.9511054721309
 20
-46.75853293748661
 10
119.9332388276287
 20
-46.77684049493788
 10
119.6493464029215
 20
-46.6542832739907
 10
100.3843218302845
 20
-35.47721244364228
 10
100.3843218302845
 20
-13.01584430859252
 10
100.8885116385758
 20
-13.01584430859252
  0
LWPOLYLINE
  5
123
330
96F
100
AcDbEntity
  8
LAYER_1
100
AcDbPolyline
 90
       10
 70
     1
 43
0.0
 10
29.24352435554177
 20
-35.47721244364228
 10
9.978499782904838
 20
-46.6542832739907
 10
9.694607358197572
 20
-46.77684049493788
 10
9.676740713695396
 20
-46.75853293748661
 10
9.654215719651119
 20
-46.73237020278016
 10
9.632576628432929
 20
-46.70381138154372
 10
9.604068616528946
 20
-46.66080466849603
 10
9.413660768919594
 20
-46.35271829933945
 10
28.7393345472505
 20
-13.01584430859252
 10
29.24352435554177
 20
-13.01584430859252
  0
LWPOLYLINE
  5
124
330
96F
100
AcDbEntity
  8
LAYER_1
100
AcDbPolyline
 90
       10
 70
     1
 43
0.0
 10
-9.413660768919598
 20
-46.35271829933945
 10
-9.604068616528946
 20
-46.66080466849603
 10
-9.632576628433461
 20
-46.70381138154372
 10
-9.654215719651226
 20
-46.73237020278016
 10
-9.676740713695396
 20
-46.75853293748661
 10
-9.694607358198103
 20
-46.77684049493788
 10
-9.978499782904838
 20
-46.6542832739907
 10
-29.24352435554188
 20
-35.47721244364228
 10
-29.24352435554188
 20
-13.01584430859252
 10
-28.73933454725061
 20
-13.01584430859252
  0
LWPOLYLINE
  5
125
330
96F
100
AcDbEntity
  8
LAYER_1
100
AcDbPolyline
 90
       10
 70
     1
 43
0.0
 10
-100.3843218302845
 20
-35.47721244364228
 10
-119.6493464029215
 20
-46.6542832739907
 10
-119.9332388276287
 20
-46.77684049493788
 10
-119.9511054721309
 20
-46.75853293748661
 10
-119.9736304661752
 20
-46.73237020278016
 10
-119.9952695573934
 20
-46.70381138154372
 10
-120.0237775692974
 20
-46.66080466849603
 10
-120.2141854169067
 20
-46.35271829933945
 10
-100.8885116385758
 20
-13.01584430859252
 10
-100.3843218302845
 20
-13.01584430859252
  0
LWPOLYLINE
  5
126
330
96F
100
AcDbEntity
  8
LAYER_1
100
AcDbPolyline
 90
       10
 70
     1
 43
0.0
 10
-139.0415069547459
 20
-46.35271829933945
 10
-139.2319148023553
 20
-46.66080466849603
 10
-139.2604228142598
 20
-46.70381138154372
 10
-139.2820619054775
 20
-46.73237020278016
 10
-139.3045868995217
 20
-46.75853293748661
 10
-139.3224535440244
 20
-46.77684049493788
 10
-139.6063459687311
 20
-46.6542832739907
 10
-158.8713705413681
 20
-35.47721244364228
 10
-158.8713705413681
 20
-13.01584430859252
 10
-158.3671807330769
 20
-13.01584430859252
  0
LWPOLYLINE
  5
127
330
96F
100
AcDbEntity
  8
LAYER_1
100
AcDbPolyline
 90
       10
 70
     1
 43
0.0
 10
-230.0121680161108
 20
-35.47721244364228
 10
-249.2771925887478
 20
-46.6542832739907
 10
-249.5610850134545
 20
-46.77684049493788
 10
-249.5789516579572
 20
-46.75853293748661
 10
-249.6014766520014
 20
-46.73237020278016
 10
-249.6231157432192
 20
-46.70381138154372
 10
-249.6516237551237
 20
-46.66080466849603
 10
-249.8420316027331
 20
-46.35271829933945
 10
-230.5163578244021
 20
-13.01584430859252
 10
-230.0121680161108
 20
-13.01584430859252
  0
LWPOLYLINE
  5
128
330
96F
100
AcDbEntity
  8
LAYER_1
100
AcDbPolyline
 90
       10
 70
     1
 43
0.0
 10
-268.6693531405722
 20
-46.35271829933945
 10
-268.8597609881816
 20
-46.66080466849603
 10
-268.8882690000856
 20
-46.70381138154372
 10
-268.9099080913038
 20
-46.73237020278016
 10
-268.9324330853481
 20
-46.75853293748661
 10
-268.9502997298503
 20
-46.77684049493788
 10
-269.2341921545575
 20
-46.6542832739907
 10
-288.4992167271944
 20
-35.47721244364228
 10
-288.4992167271944
 20
-13.01584430859252
 10
-287.9950269189031
 20
-13.01584430859252
  0
LWPOLYLINE
  5
131
330
96F
100
AcDbEntity
  8
LAYER_1
100
AcDbPolyline
 90
        5
 70
     0
 43
0.0
 10
291.8753254901051
 20
-52.3927833388951
 10
272.7035691752161
 20
-52.3927833388951
 10
272.8273666673748
 20
-52.02139086241913
 10
291.782032672559
 20
-41.017569617049
 10
291.8753254901051
 20
-41.07047009247511
  0
LWPOLYLINE
  5
132
330
96F
100
AcDbEntity
  8
LAYER_1
100
AcDbPolyline
 90
        5
 70
     1
 43
0.0
 10
245.6840180759304
 20
-52.02139086241913
 10
245.8078155680892
 20
-52.3927833388951
 10
207.4643029383118
 20
-52.3927833388951
 10
207.4750483303114
 20
-51.93547143049799
 10
226.7293520707458
 20
-41.017569617049
  0
LWPOLYLINE
  5
133
330
96F
100
AcDbEntity
  8
LAYER_1
100
AcDbPolyline
 90
        5
 70
     1
 43
0.0
 10
181.4084902271676
 20
-51.93547143049799
 10
181.4192356191672
 20
-52.3927833388951
 10
143.0757229893898
 20
-52.3927833388951
 10
143.1995204815486
 20
-52.02139086241913
 10
162.1541864867332
 20
-41.017569617049
  0
LWPOLYLINE
  5
134
330
96F
100
AcDbEntity
  8
LAYER_1
100
AcDbPolyline
 90
        5
 70
     1
 43
0.0
 10
116.0561718901042
 20
-52.02139086241913
 10
116.1799693822629
 20
-52.3927833388951
 10
77.836456752486
 20
-52.3927833388951
 10
77.84720214448508
 20
-51.93547143049799
 10
97.10150588492004
 20
-41.017569617049
  0
LWPOLYLINE
  5
135
330
96F
100
AcDbEntity
  8
LAYER_1
100
AcDbPolyline
 90
        5
 70
     1
 43
0.0
 10
51.78064404134122
 20
-51.93547143049799
 10
51.79138943334031
 20
-52.3927833388951
 10
13.44787680356341
 20
-52.3927833388951
 10
13.57167429572216
 20
-52.02139086241913
 10
32.52634030090631
 20
-41.017569617049
  0
LWPOLYLINE
  5
136
330
96F
100
AcDbEntity
  8
LAYER_1
100
AcDbPolyline
 90
        5
 70
     1
 43
0.0
 10
-13.57167429572227
 20
-52.02139086241913
 10
-13.44787680356352
 20
-52.3927833388951
 10
-51.79138943334085
 20
-52.3927833388951
 10
-51.78064404134125
 20
-51.93547143049799
 10
-32.52634030090684
 20
-41.017569617049
  0
LWPOLYLINE
  5
137
330
96F
100
AcDbEntity
  8
LAYER_1
100
AcDbPolyline
 90
        5
 70
     1
 43
0.0
 10
-77.84720214448508
 20
-51.93547143049799
 10
-77.836456752486
 20
-52.3927833388951
 10
-116.1799693822629
 20
-52.3927833388951
 10
-116.0561718901042
 20
-52.02139086241913
 10
-97.10150588492004
 20
-41.017569617049
  0
LWPOLYLINE
  5
138
330
96F
100
AcDbEntity
  8
LAYER_1
100
AcDbPolyline
 90
        5
 70
     1
 43
0.0
 10
-143.1995204815486
 20
-52.02139086241913
 10
-143.0757229893898
 20
-52.3927833388951
 10
-181.4192356191672
 20
-52.3927833388951
 10
-181.4084902271676
 20
-51.93547143049799
 10
-162.1541864867332
 20
-41.017569617049
  0
LWPOLYLINE
  5
139
330
96F
100
AcDbEntity
  8
LAYER_1
100
AcDbPolyline
 90
        5
 70
     1
 43
0.0
 10
-207.4750483303114
 20
-51.93547143049799
 10
-207.4643029383118
 20
-52.3927833388951
 10
-245.8078155680892
 20
-52.3927833388951
 10
-245.6840180759304
 20
-52.02139086241913
 10
-226.7293520707458
 20
-41.017569617049
  0
LWPOLYLINE
  5
13A
330
96F
100
AcDbEntity
  8
LAYER_1
100
AcDbPolyline
 90
        5
 70
     0
 43
0.0
 10
-291.8753254901051
 20
-41.07047009247511
 10
-291.782032672559
 20
-41.017569617049
 10
-272.8273666673748
 20
-52.02139086241913
 10
-272.7035691752161
 20
-52.3927833388951
 10
-291.8753254901051
 20
-52.3927833388951
  0
LWPOLYLINE
  5
141
330
96F
100
AcDbEntity
  8
LAYER_1
100
AcDbPolyline
 90
        3
 70
     1
 43
0.0
 10
194.4417692787395
 20
-49.96467515732089
 42
-0.4142135623730835
 10
200.4780941214183
 20
-55.99999999999635
 10
188.4054444360606
 20
-55.99999999999635
 42
-0.4142135623730835
  0
LWPOLYLINE
  5
142
330
96F
100
AcDbEntity
  8
LAYER_1
100
AcDbPolyline
 90
        3
 70
     1
 43
0.0
 10
64.81392309291315
 20
-49.96467515732089
 42
-0.4142135623730835
 10
70.85024793559194
 20
-55.99999999999635
 10
58.77759825023439
 20
-55.99999999999635
 42
-0.4142135623730835
  0
LWPOLYLINE
  5
143
330
96F
100
AcDbEntity
  8
LAYER_1
100
AcDbPolyline
 90
        3
 70
     1
 43
0.0
 10
-64.81392309291315
 20
-49.96467515732089
 42
-0.4142135623730835
 10
-58.77759825023439
 20
-55.99999999999635
 10
-70.85024793559194
 20
-55.99999999999635
 42
-0.4142135623730835
  0
LWPOLYLINE
  5
144
330
96F
100
AcDbEntity
  8
LAYER_1
100
AcDbPolyline
 90
        3
 70
     1
 43
0.0
 10
-194.4417692787395
 20
-49.96467515732089
 42
-0.4142135623730835
 10
-188.4054444360606
 20
-55.99999999999635
 10
-200.4780941214183
 20
-55.99999999999635
 42
-0.4142135623730835
  0
LWPOLYLINE
  5
149
330
96F
100
AcDbEntity
  8
LAYER_1
100
AcDbPolyline
 90
        3
 70
     1
 43
0.0
 10
-259.2556923716527
 20
-48.09278295686823
 42
-0.4142135623731001
 10
-250.9137309564201
 20
-55.99999999999997
 10
-267.5976537868852
 20
-56.0
 42
-0.4142135623731001
  0
LWPOLYLINE
  5
14A
330
96F
100
AcDbEntity
  8
LAYER_1
100
AcDbPolyline
 90
        3
 70
     1
 43
0.0
 10
-129.6278461858263
 20
-48.09278295686823
 42
-0.4142135623731001
 10
-121.2858847705938
 20
-55.99999999999999
 10
-137.9698076010589
 20
-56.0
 42
-0.4142135623731001
  0
LWPOLYLINE
  5
14B
330
96F
100
AcDbEntity
  8
LAYER_1
100
AcDbPolyline
 90
        3
 70
     1
 43
0.0
 10
0.0
 20
-48.09278295686823
 42
-0.4142135623731001
 10
8.341961415232553
 20
-55.99999999999999
 10
-8.341961415232553
 20
-56.0
 42
-0.4142135623731001
  0
LWPOLYLINE
  5
14E
330
96F
100
AcDbEntity
  8
LAYER_1
100
AcDbPolyline
 90
        3
 70
     1
 43
0.0
 10
259.2556923716527
 20
-48.09278295686823
 42
-0.4142135623731001
 10
267.5976537868852
 20
-56.0
 10
250.9137309564201
 20
-56.0
 42
-0.4142135623731001
  0
LWPOLYLINE
  5
14F
330
96F
100
AcDbEntity
  8
LAYER_1
100
AcDbPolyline
 90
        3
 70
     1
 43
0.0
 10
129.6278461858263
 20
-48.09278295686823
 42
-0.4142135623731001
 10
137.9698076010589
 20
-56.0
 10
121.2858847705938
 20
-56.0
 42
-0.4142135623731001
  0
LINE
  5
983
330
96F
100
AcDbEntity
  8
0
100
AcDbLine
 10
291.875325490105
 20
70.99999999999998
 30
0.0
 11
291.8753254901051
 21
-71.00000000000001
 31
0.0
  0
LINE
  5
984
330
96F
100
AcDbEntity
  8
0
100
AcDbLine
 10
-291.875325490105
 20
70.99999999999998
 30
0.0
 11
-291.8753254901051
 21
-71.00000000000001
 31
0.0
  0
LWPOLYLINE
  5
985
330
96F
100
AcDbEntity
  8
LAYER_1
100
AcDbPolyline
 90
        2
 70
     0
 43
0.0
 10
-291.8753254901051
 20
-70.99999999999997
 10
291.8753254901048
 20
-71.00000000000001
  0
ENDSEC
  0
SECTION
  2
OBJECTS
  0
DICTIONARY
  5
907
330
0
100
AcDbDictionary
281
     1
  3
ACAD_COLOR
350
965
  3
ACAD_GROUP
350
908
  3
ACAD_LAYOUT
350
964
  3
ACAD_MATERIAL
350
90B
  3
ACAD_MLEADERSTYLE
350
968
  3
ACAD_MLINESTYLE
350
961
  3
ACAD_PLOTSETTINGS
350
963
  3
ACAD_PLOTSTYLENAME
350
909
  3
ACAD_SCALELIST
350
935
  3
ACAD_TABLESTYLE
350
966
  3
ACAD_VISUALSTYLE
350
924
  3
ACDB_RECOMPOSE_DATA
350
995
  3
AcDbVariableDictionary
350
98C
  3
DWGPROPS
350
996
  0
DICTIONARY
  5
988
330
957
100
AcDbDictionary
280
     1
281
     1
  3
ADSK_XREC_LAYER_RECONCILED
360
989
  0
DICTIONARY
  5
98A
330
975
100
AcDbDictionary
280
     1
281
     1
  3
ADSK_XREC_LAYER_RECONCILED
360
98B
  0
DICTIONARY
  5
986
330
96F
100
AcDbDictionary
280
     1
281
     1
  3
ACAD_SORTENTS
360
987
  0
DICTIONARY
  5
965
102
{ACAD_REACTORS
330
907
102
}
330
907
100
AcDbDictionary
281
     1
  0
DICTIONARY
  5
908
102
{ACAD_REACTORS
330
907
102
}
330
907
100
AcDbDictionary
281
     1
  0
DICTIONARY
  5
964
102
{ACAD_REACTORS
330
907
102
}
330
907
100
AcDbDictionary
281
     1
  3
Model
350
972
  3
Présentation1
350
96E
  0
DICTIONARY
  5
90B
102
{ACAD_REACTORS
330
907
102
}
330
907
100
AcDbDictionary
281
     1
  3
ByBlock
350
914
  3
ByLayer
350
90C
  3
Global
350
91C
  0
DICTIONARY
  5
968
102
{ACAD_REACTORS
330
907
102
}
330
907
100
AcDbDictionary
281
     1
  3
Standard
350
969
  0
DICTIONARY
  5
961
102
{ACAD_REACTORS
330
907
102
}
330
907
100
AcDbDictionary
281
     1
  3
Standard
350
962
  0
DICTIONARY
  5
963
102
{ACAD_REACTORS
330
907
102
}
330
907
100
AcDbDictionary
281
     1
  0
ACDBDICTIONARYWDFLT
  5
909
102
{ACAD_REACTORS
330
907
102
}
330
907
100
AcDbDictionary
281
     1
  3
Normal
350
90A
100
AcDbDictionaryWithDefault
340
90A
  0
DICTIONARY
  5
935
102
{ACAD_REACTORS
330
907
102
}
330
907
100
AcDbDictionary
281
     1
  3
A0
350
936
  3
A1
350
937
  3
A2
350
938
  3
A3
350
939
  3
A4
350
93A
  3
A5
350
93B
  3
A6
350
93C
  3
A7
350
93D
  3
A8
350
93E
  3
A9
350
93F
  3
B0
350
940
  3
B1
350
941
  3
B2
350
942
  3
B3
350
943
  3
B4
350
944
  3
B5
350
945
  3
B6
350
946
  3
B7
350
947
  3
B8
350
948
  3
B9
350
949
  3
C0
350
94A
  3
C1
350
94B
  3
C2
350
94C
  3
C3
350
94D
  3
C4
350
94E
  3
C5
350
94F
  3
C6
350
950
  3
C7
350
951
  3
C8
350
952
  3
C9
350
953
  3
D0
350
954
  3
D1
350
955
  3
D2
350
956
  0
DICTIONARY
  5
966
102
{ACAD_REACTORS
330
907
102
}
330
907
100
AcDbDictionary
281
     1
  3
Standard
350
967
  0
DICTIONARY
  5
924
102
{ACAD_REACTORS
330
907
102
}
330
907
100
AcDbDictionary
281
     1
  3
2dWireframe
350
92A
  3
3D Hidden
350
92C
  3
3dWireframe
350
92B
  3
Basic
350
929
  3
Brighten
350
930
  3
ColorChange
350
934
  3
Conceptual
350
92D
  3
Dim
350
92F
  3
Facepattern
350
933
  3
Flat
350
925
  3
FlatWithEdges
350
926
  3
Gouraud
350
927
  3
GouraudWithEdges
350
928
  3
Linepattern
350
932
  3
Realistic
350
92E
  3
Thicken
350
931
  0
XRECORD
  5
995
102
{ACAD_REACTORS
330
907
102
}
330
907
100
AcDbXrecord
280
     1
 90
        1
330
967
  0
DICTIONARY
  5
98C
102
{ACAD_REACTORS
330
907
102
}
330
907
100
AcDbDictionary
281
     1
  3
CANNOSCALE
350
98F
  3
CMLEADERSTYLE
350
98E
  3
CTABLESTYLE
350
98D
  3
DIMASSOC
350
992
  3
INDEXCTL
350
991
  3
SORTENTS
350
990
  0
XRECORD
  5
996
102
{ACAD_REACTORS
330
907
102
}
330
907
100
AcDbXrecord
280
     1
  1
DWGPROPS COOKIE
  2

  3

  4

  6

  7

  8
user
  9

300
=
301
=
302
=
303
=
304
=
305
=
306
=
307
=
308
=
309
=
 40
0.000999849537037
 41
2454910.5
 42
2457347.678080637
  1

 90
        0
  0
XRECORD
  5
989
102
{ACAD_REACTORS
330
988
102
}
330
988
100
AcDbXrecord
280
     1
290
     1
  0
XRECORD
  5
98B
102
{ACAD_REACTORS
330
98A
102
}
330
98A
100
AcDbXrecord
280
     1
290
     1
  0
SORTENTSTABLE
  5
987
102
{ACAD_REACTORS
330
986
102
}
330
986
100
AcDbSortentsTable
330
96F
331
121
  5
122
331
133
  5
134
331
72
  5
73
331
95
  5
96
331
5D
  5
5E
331
A6
  5
A7
331
C7
  5
C8
331
60
  5
61
331
7E
  5
7F
331
DF
  5
E0
331
4D
  5
4E
331
100
  5
101
331
122
  5
123
331
50
  5
51
331
134
  5
135
331
73
  5
74
331
5E
  5
5F
331
A7
  5
A8
331
7F
  5
80
331
4E
  5
4F
331
101
  5
102
331
123
  5
124
331
135
  5
136
331
74
  5
75
331
138
  5
139
331
5F
  5
60
331
EB
  5
EC
331
FD
  5
FE
331
44
  5
45
331
4F
  5
50
331
102
  5
103
331
124
  5
125
331
136
  5
137
331
75
  5
76
331
139
  5
13A
331
EC
  5
ED
331
11F
  5
120
331
FE
  5
FF
331
45
  5
46
331
103
  5
104
331
125
  5
126
331
137
  5
138
331
76
  5
77
331
13A
  5
13B
331
ED
  5
EE
331
FF
  5
100
331
46
  5
47
331
149
  5
14A
331
983
  5
984
331
B2
  5
B3
331
126
  5
127
331
104
  5
105
331
77
  5
78
331
EE
  5
EF
331
47
  5
48
331
14A
  5
14B
331
984
  5
985
331
B3
  5
B4
331
127
  5
128
331
8E
  5
8F
331
EF
  5
F0
331
9F
  5
A0
331
C8
  5
C9
331
A8
  5
A9
331
14B
  5
14C
331
B4
  5
B5
331
8F
  5
90
331
985
  5
42
331
141
  5
142
331
110
  5
111
331
C9
  5
CA
331
B5
  5
B6
331
57
  5
58
331
142
  5
143
331
111
  5
112
331
CA
  5
CB
331
B6
  5
B7
331
6E
  5
6F
331
128
  5
129
331
F0
  5
F1
331
143
  5
144
331
112
  5
113
331
CB
  5
CC
331
14E
  5
14F
331
D5
  5
D6
331
D8
  5
D9
331
B7
  5
B8
331
6F
  5
70
331
F1
  5
F2
331
A0
  5
A1
331
78
  5
79
331
144
  5
145
331
113
  5
114
331
CC
  5
CD
331
14F
  5
983
331
D6
  5
D7
331
10F
  5
110
331
E0
  5
E1
331
90
  5
91
331
58
  5
59
331
F2
  5
F3
331
A1
  5
A2
331
114
  5
115
331
CD
  5
CE
331
DA
  5
DB
331
79
  5
7A
331
E1
  5
E2
331
91
  5
92
331
59
  5
5A
331
F3
  5
F4
331
A2
  5
A3
331
115
  5
116
331
7A
  5
7B
331
E2
  5
E3
331
B8
  5
B9
331
92
  5
93
331
5A
  5
5B
331
F4
  5
F5
331
A3
  5
A4
331
116
  5
117
331
C4
  5
C5
331
7B
  5
7C
331
131
  5
132
331
70
  5
71
331
B9
  5
BA
331
93
  5
94
331
5B
  5
5C
331
A4
  5
A5
331
C5
  5
C6
331
7C
  5
7D
331
120
  5
121
331
132
  5
133
331
71
  5
72
331
94
  5
95
331
5C
  5
5D
331
BA
  5
BB
331
A5
  5
A6
331
C6
  5
C7
331
7D
  5
7E
331
DE
  5
DF
331
4C
  5
4D
331
41
  5
41
  0
LAYOUT
  5
972
102
{ACAD_XDICTIONARY
360
99D
102
}
102
{ACAD_REACTORS
330
964
102
}
330
964
100
AcDbPlotSettings
  1

  2
CutePDF Writer
  4

  6

 40
0.0
 41
0.0
 42
0.0
 43
0.0
 44
0.0
 45
0.0
 46
0.0
 47
0.0
 48
0.0
 49
0.0
140
0.0
141
0.0
142
1.0
143
1.0
 70
  1712
 72
     0
 73
     0
 74
     0
  7

 75
     0
147
1.0
148
0.0
149
0.0
100
AcDbLayout
  1
Model
 70
     1
 71
     0
 10
0.0
 20
0.0
 11
12.0
 21
9.0
 12
0.0
 22
0.0
 32
0.0
 14
0.0
 24
0.0
 34
0.0
 15
0.0
 25
0.0
 35
0.0
146
0.0
 13
0.0
 23
0.0
 33
0.0
 16
1.0
 26
0.0
 36
0.0
 17
0.0
 27
1.0
 37
0.0
 76
     0
330
96F
331
973
  0
LAYOUT
  5
96E
102
{ACAD_XDICTIONARY
360
99B
102
}
102
{ACAD_REACTORS
330
964
102
}
330
964
100
AcDbPlotSettings
  1

  2
CutePDF Writer
  4

  6

 40
0.0
 41
0.0
 42
0.0
 43
0.0
 44
0.0
 45
0.0
 46
0.0
 47
0.0
 48
0.0
 49
0.0
140
0.0
141
0.0
142
1.0
143
1.0
 70
   688
 72
     0
 73
     0
 74
     5
  7

 75
    16
147
1.0
148
0.0
149
0.0
100
AcDbLayout
  1
Présentation1
 70
     1
 71
     1
 10
0.0
 20
0.0
 11
12.0
 21
9.0
 12
0.0
 22
0.0
 32
0.0
 14
1.000000000000000E+20
 24
1.000000000000000E+20
 34
1.000000000000000E+20
 15
-1.000000000000000E+20
 25
-1.000000000000000E+20
 35
-1.000000000000000E+20
146
0.0
 13
0.0
 23
0.0
 33
0.0
 16
1.0
 26
0.0
 36
0.0
 17
0.0
 27
1.0
 37
0.0
 76
     0
330
96B
  0
MATERIAL
  5
914
102
{ACAD_XDICTIONARY
360
915
102
}
102
{ACAD_REACTORS
330
90B
102
}
330
90B
100
AcDbMaterial
  1
ByBlock
 72
     0
 43
0.0208333333333333
 43
0.0
 43
0.0
 43
0.0
 43
0.0
 43
0.0208333333333333
 43
0.0
 43
0.0
 43
0.0
 43
0.0
 43
1.0
 43
0.0
 43
0.0
 43
0.0
 43
0.0
 43
1.0
 77
     0
 47
0.0208333333333333
 47
0.0
 47
0.0
 47
0.0
 47
0.0
 47
0.0208333333333333
 47
0.0
 47
0.0
 47
0.0
 47
0.0
 47
1.0
 47
0.0
 47
0.0
 47
0.0
 47
0.0
 47
1.0
171
     0
 49
0.0208333333333333
 49
0.0
 49
0.0
 49
0.0
 49
0.0
 49
0.0208333333333333
 49
0.0
 49
0.0
 49
0.0
 49
0.0
 49
1.0
 49
0.0
 49
0.0
 49
0.0
 49
0.0
 49
1.0
175
     0
142
0.0208333333333333
142
0.0
142
0.0
142
0.0
142
0.0
142
0.0208333333333333
142
0.0
142
0.0
142
0.0
142
0.0
142
1.0
142
0.0
142
0.0
142
0.0
142
0.0
142
1.0
179
     0
144
0.0208333333333333
144
0.0
144
0.0
144
0.0
144
0.0
144
0.0208333333333333
144
0.0
144
0.0
144
0.0
144
0.0
144
1.0
144
0.0
144
0.0
144
0.0
144
0.0
144
1.0
147
0.0208333333333333
147
0.0
147
0.0
147
0.0
147
0.0
147
0.0208333333333333
147
0.0
147
0.0
147
0.0
147
0.0
147
1.0
147
0.0
147
0.0
147
0.0
147
0.0
147
1.0
  0
MATERIAL
  5
90C
102
{ACAD_XDICTIONARY
360
90D
102
}
102
{ACAD_REACTORS
330
90B
102
}
330
90B
100
AcDbMaterial
  1
ByLayer
 72
     0
 43
0.0208333333333333
 43
0.0
 43
0.0
 43
0.0
 43
0.0
 43
0.0208333333333333
 43
0.0
 43
0.0
 43
0.0
 43
0.0
 43
1.0
 43
0.0
 43
0.0
 43
0.0
 43
0.0
 43
1.0
 77
     0
 47
0.0208333333333333
 47
0.0
 47
0.0
 47
0.0
 47
0.0
 47
0.0208333333333333
 47
0.0
 47
0.0
 47
0.0
 47
0.0
 47
1.0
 47
0.0
 47
0.0
 47
0.0
 47
0.0
 47
1.0
171
     0
 49
0.0208333333333333
 49
0.0
 49
0.0
 49
0.0
 49
0.0
 49
0.0208333333333333
 49
0.0
 49
0.0
 49
0.0
 49
0.0
 49
1.0
 49
0.0
 49
0.0
 49
0.0
 49
0.0
 49
1.0
175
     0
142
0.0208333333333333
142
0.0
142
0.0
142
0.0
142
0.0
142
0.0208333333333333
142
0.0
142
0.0
142
0.0
142
0.0
142
1.0
142
0.0
142
0.0
142
0.0
142
0.0
142
1.0
179
     0
144
0.0208333333333333
144
0.0
144
0.0
144
0.0
144
0.0
144
0.0208333333333333
144
0.0
144
0.0
144
0.0
144
0.0
144
1.0
144
0.0
144
0.0
144
0.0
144
0.0
144
1.0
147
0.0208333333333333
147
0.0
147
0.0
147
0.0
147
0.0
147
0.0208333333333333
147
0.0
147
0.0
147
0.0
147
0.0
147
1.0
147
0.0
147
0.0
147
0.0
147
0.0
147
1.0
  0
MATERIAL
  5
91C
102
{ACAD_XDICTIONARY
360
91D
102
}
102
{ACAD_REACTORS
330
90B
102
}
330
90B
100
AcDbMaterial
  1
Global
 72
     0
 43
0.0208333333333333
 43
0.0
 43
0.0
 43
0.0
 43
0.0
 43
0.0208333333333333
 43
0.0
 43
0.0
 43
0.0
 43
0.0
 43
1.0
 43
0.0
 43
0.0
 43
0.0
 43
0.0
 43
1.0
 77
     0
 47
0.0208333333333333
 47
0.0
 47
0.0
 47
0.0
 47
0.0
 47
0.0208333333333333
 47
0.0
 47
0.0
 47
0.0
 47
0.0
 47
1.0
 47
0.0
 47
0.0
 47
0.0
 47
0.0
 47
1.0
171
     0
 49
0.0208333333333333
 49
0.0
 49
0.0
 49
0.0
 49
0.0
 49
0.0208333333333333
 49
0.0
 49
0.0
 49
0.0
 49
0.0
 49
1.0
 49
0.0
 49
0.0
 49
0.0
 49
0.0
 49
1.0
175
     0
142
0.0208333333333333
142
0.0
142
0.0
142
0.0
142
0.0
142
0.0208333333333333
142
0.0
142
0.0
142
0.0
142
0.0
142
1.0
142
0.0
142
0.0
142
0.0
142
0.0
142
1.0
179
     0
144
0.0208333333333333
144
0.0
144
0.0
144
0.0
144
0.0
144
0.0208333333333333
144
0.0
144
0.0
144
0.0
144
0.0
144
1.0
144
0.0
144
0.0
144
0.0
144
0.0
144
1.0
147
0.0208333333333333
147
0.0
147
0.0
147
0.0
147
0.0
147
0.0208333333333333
147
0.0
147
0.0
147
0.0
147
0.0
147
1.0
147
0.0
147
0.0
147
0.0
147
0.0
147
1.0
  0
MLEADERSTYLE
  5
969
102
{ACAD_REACTORS
330
968
102
}
330
968
100
AcDbMLeaderStyle
170
     2
171
     1
172
     0
 90
        2
 40
0.0
 41
0.0
173
     1
 91
-1056964608
340
95D
 92
       -2
290
     1
 42
0.09
291
     1
 43
0.36
  3
Standard
 44
0.18
300

342
958
174
     1
178
     6
175
     1
176
     0
 93
-1056964608
 45
0.18
292
     0
297
     0
 46
0.18
 94
-1056964608
 47
1.0
 49
1.0
140
1.0
293
     1
141
0.0
294
     1
177
     0
142
1.0
295
     0
296
     0
143
0.125
1001
ACAD_MLEADERVER
1070
     2
  0
MLINESTYLE
  5
962
102
{ACAD_REACTORS
330
961
102
}
330
961
100
AcDbMlineStyle
  2
STANDARD
 70
     0
  3

 62
   256
 51
90.0
 52
90.0
 71
     2
 49
0.5
 62
   256
  6
BYLAYER
 49
-0.5
 62
   256
  6
BYLAYER
  0
ACDBPLACEHOLDER
  5
90A
102
{ACAD_REACTORS
330
909
102
}
330
909
  0
SCALE
  5
936
102
{ACAD_REACTORS
330
935
102
}
330
935
100
AcDbScale
 70
     0
300
1:1
140
1.0
141
1.0
290
     1
  0
SCALE
  5
937
102
{ACAD_REACTORS
330
935
102
}
330
935
100
AcDbScale
 70
     0
300
1:2
140
1.0
141
2.0
290
     0
  0
SCALE
  5
938
102
{ACAD_REACTORS
330
935
102
}
330
935
100
AcDbScale
 70
     0
300
1:4
140
1.0
141
4.0
290
     0
  0
SCALE
  5
939
102
{ACAD_REACTORS
330
935
102
}
330
935
100
AcDbScale
 70
     0
300
1:5
140
1.0
141
5.0
290
     0
  0
SCALE
  5
93A
102
{ACAD_REACTORS
330
935
102
}
330
935
100
AcDbScale
 70
     0
300
1:8
140
1.0
141
8.0
290
     0
  0
SCALE
  5
93B
102
{ACAD_REACTORS
330
935
102
}
330
935
100
AcDbScale
 70
     0
300
1:10
140
1.0
141
10.0
290
     0
  0
SCALE
  5
93C
102
{ACAD_REACTORS
330
935
102
}
330
935
100
AcDbScale
 70
     0
300
1:16
140
1.0
141
16.0
290
     0
  0
SCALE
  5
93D
102
{ACAD_REACTORS
330
935
102
}
330
935
100
AcDbScale
 70
     0
300
1:20
140
1.0
141
20.0
290
     0
  0
SCALE
  5
93E
102
{ACAD_REACTORS
330
935
102
}
330
935
100
AcDbScale
 70
     0
300
1:30
140
1.0
141
30.0
290
     0
  0
SCALE
  5
93F
102
{ACAD_REACTORS
330
935
102
}
330
935
100
AcDbScale
 70
     0
300
1:40
140
1.0
141
40.0
290
     0
  0
SCALE
  5
940
102
{ACAD_REACTORS
330
935
102
}
330
935
100
AcDbScale
 70
     0
300
1:50
140
1.0
141
50.0
290
     0
  0
SCALE
  5
941
102
{ACAD_REACTORS
330
935
102
}
330
935
100
AcDbScale
 70
     0
300
1:100
140
1.0
141
100.0
290
     0
  0
SCALE
  5
942
102
{ACAD_REACTORS
330
935
102
}
330
935
100
AcDbScale
 70
     0
300
2:1
140
2.0
141
1.0
290
     0
  0
SCALE
  5
943
102
{ACAD_REACTORS
330
935
102
}
330
935
100
AcDbScale
 70
     0
300
4:1
140
4.0
141
1.0
290
     0
  0
SCALE
  5
944
102
{ACAD_REACTORS
330
935
102
}
330
935
100
AcDbScale
 70
     0
300
8:1
140
8.0
141
1.0
290
     0
  0
SCALE
  5
945
102
{ACAD_REACTORS
330
935
102
}
330
935
100
AcDbScale
 70
     0
300
10:1
140
10.0
141
1.0
290
     0
  0
SCALE
  5
946
102
{ACAD_REACTORS
330
935
102
}
330
935
100
AcDbScale
 70
     0
300
100:1
140
100.0
141
1.0
290
     0
  0
SCALE
  5
947
102
{ACAD_REACTORS
330
935
102
}
330
935
100
AcDbScale
 70
     0
300
1/128" = 1'-0"
140
0.0078125
141
12.0
290
     0
  0
SCALE
  5
948
102
{ACAD_REACTORS
330
935
102
}
330
935
100
AcDbScale
 70
     0
300
1/64" = 1'-0"
140
0.015625
141
12.0
290
     0
  0
SCALE
  5
949
102
{ACAD_REACTORS
330
935
102
}
330
935
100
AcDbScale
 70
     0
300
1/32" = 1'-0"
140
0.03125
141
12.0
290
     0
  0
SCALE
  5
94A
102
{ACAD_REACTORS
330
935
102
}
330
935
100
AcDbScale
 70
     0
300
1/16" = 1'-0"
140
0.0625
141
12.0
290
     0
  0
SCALE
  5
94B
102
{ACAD_REACTORS
330
935
102
}
330
935
100
AcDbScale
 70
     0
300
3/32" = 1'-0"
140
0.09375
141
12.0
290
     0
  0
SCALE
  5
94C
102
{ACAD_REACTORS
330
935
102
}
330
935
100
AcDbScale
 70
     0
300
1/8" = 1'-0"
140
0.125
141
12.0
290
     0
  0
SCALE
  5
94D
102
{ACAD_REACTORS
330
935
102
}
330
935
100
AcDbScale
 70
     0
300
3/16" = 1'-0"
140
0.1875
141
12.0
290
     0
  0
SCALE
  5
94E
102
{ACAD_REACTORS
330
935
102
}
330
935
100
AcDbScale
 70
     0
300
1/4" = 1'-0"
140
0.25
141
12.0
290
     0
  0
SCALE
  5
94F
102
{ACAD_REACTORS
330
935
102
}
330
935
100
AcDbScale
 70
     0
300
3/8" = 1'-0"
140
0.375
141
12.0
290
     0
  0
SCALE
  5
950
102
{ACAD_REACTORS
330
935
102
}
330
935
100
AcDbScale
 70
     0
300
1/2" = 1'-0"
140
0.5
141
12.0
290
     0
  0
SCALE
  5
951
102
{ACAD_REACTORS
330
935
102
}
330
935
100
AcDbScale
 70
     0
300
3/4" = 1'-0"
140
0.75
141
12.0
290
     0
  0
SCALE
  5
952
102
{ACAD_REACTORS
330
935
102
}
330
935
100
AcDbScale
 70
     0
300
1" = 1'-0"
140
1.0
141
12.0
290
     0
  0
SCALE
  5
953
102
{ACAD_REACTORS
330
935
102
}
330
935
100
AcDbScale
 70
     0
300
1-1/2" = 1'-0"
140
1.5
141
12.0
290
     0
  0
SCALE
  5
954
102
{ACAD_REACTORS
330
935
102
}
330
935
100
AcDbScale
 70
     0
300
3" = 1'-0"
140
3.0
141
12.0
290
     0
  0
SCALE
  5
955
102
{ACAD_REACTORS
330
935
102
}
330
935
100
AcDbScale
 70
     0
300
6" = 1'-0"
140
6.0
141
12.0
290
     0
  0
SCALE
  5
956
102
{ACAD_REACTORS
330
935
102
}
330
935
100
AcDbScale
 70
     0
300
1'-0" = 1'-0"
140
12.0
141
12.0
290
     0
  0
TABLESTYLE
  5
967
102
{ACAD_XDICTIONARY
360
993
102
}
102
{ACAD_REACTORS
330
966
102
}
330
966
100
AcDbTableStyle
  3
Standard
 70
     0
 71
     0
 40
0.06
 41
0.06
280
     0
281
     0
  7
STANDARD
140
0.18
170
     2
 62
     0
 63
     7
283
     0
274
    -2
284
     1
 64
     0
275
    -2
285
     1
 65
     0
276
    -2
286
     1
 66
     0
277
    -2
287
     1
 67
     0
278
    -2
288
     1
 68
     0
279
    -2
289
     1
 69
     0
  7
STANDARD
140
0.25
170
     5
 62
     0
 63
     7
283
     0
274
    -2
284
     1
 64
     0
275
    -2
285
     1
 65
     0
276
    -2
286
     1
 66
     0
277
    -2
287
     1
 67
     0
278
    -2
288
     1
 68
     0
279
    -2
289
     1
 69
     0
  7
STANDARD
140
0.18
170
     5
 62
     0
 63
     7
283
     0
274
    -2
284
     1
 64
     0
275
    -2
285
     1
 65
     0
276
    -2
286
     1
 66
     0
277
    -2
287
     1
 67
     0
278
    -2
288
     1
 68
     0
279
    -2
289
     1
 69
     0
  0
VISUALSTYLE
  5
92A
102
{ACAD_REACTORS
330
924
102
}
330
924
100
AcDbVisualStyle
  2
2dWireframe
 70
     4
 71
     0
 72
     2
 73
     0
 90
        0
 40
-0.6
 41
-30.0
 62
     5
 63
     7
 74
     1
 91
        4
 64
     7
 65
   257
 75
     1
175
     1
 42
1.0
 92
        0
 66
   257
 43
1.0
 76
     1
 77
     6
 78
     2
 67
     7
 79
     5
170
     0
171
     0
290
     0
174
     0
 93
        1
 44
0.0
173
     0
291
     0
 45
0.0
1001
ACAD
1000
AcDbSavedByObjectVersion
1070
     0
  0
VISUALSTYLE
  5
92C
102
{ACAD_REACTORS
330
924
102
}
330
924
100
AcDbVisualStyle
  2
3D Hidden
 70
     6
 71
     1
 72
     2
 73
     2
 90
        0
 40
-0.6
 41
-30.0
 62
     5
 63
     7
 74
     2
 91
        2
 64
     7
 65
   257
 75
     2
175
     1
 42
40.0
 92
        0
 66
   257
 43
1.0
 76
     1
 77
     6
 78
     2
 67
     7
 79
     3
170
     0
171
     0
290
     0
174
     0
 93
        1
 44
0.0
173
     0
291
     0
 45
0.0
1001
ACAD
1000
AcDbSavedByObjectVersion
1070
     0
  0
VISUALSTYLE
  5
92B
102
{ACAD_REACTORS
330
924
102
}
330
924
100
AcDbVisualStyle
  2
3dWireframe
 70
     5
 71
     0
 72
     2
 73
     0
 90
        0
 40
-0.6
 41
-30.0
 62
     5
 63
     7
 74
     1
 91
        4
 64
     7
 65
   257
 75
     1
175
     1
 42
1.0
 92
        0
 66
   257
 43
1.0
 76
     1
 77
     6
 78
     2
 67
     7
 79
     5
170
     0
171
     0
290
     0
174
     0
 93
        1
 44
0.0
173
     0
291
     0
 45
0.0
1001
ACAD
1000
AcDbSavedByObjectVersion
1070
     0
  0
VISUALSTYLE
  5
929
102
{ACAD_REACTORS
330
924
102
}
330
924
100
AcDbVisualStyle
  2
Basic
 70
     7
 71
     1
 72
     0
 73
     1
 90
        0
 40
-0.6
 41
-30.0
 62
     5
 63
     7
 74
     0
 91
        4
 64
     7
 65
   257
 75
     1
175
     1
 42
1.0
 92
        8
 66
     7
 43
1.0
 76
     1
 77
     6
 78
     2
 67
     7
 79
     5
170
     0
171
     0
290
     0
174
     0
 93
        1
 44
0.0
173
     0
291
     1
 45
0.0
1001
ACAD
1000
AcDbSavedByObjectVersion
1070
     0
  0
VISUALSTYLE
  5
930
102
{ACAD_REACTORS
330
924
102
}
330
924
100
AcDbVisualStyle
  2
Brighten
 70
    12
 71
     2
 72
     2
 73
     0
 90
        0
 40
-0.6
 41
-30.0
 62
     5
 63
     7
 74
     1
 91
        4
 64
     7
 65
   257
 75
     1
175
     1
 42
1.0
 92
        8
 66
     7
 43
1.0
 76
     1
 77
     6
 78
     2
 67
     7
 79
     5
170
     0
171
     0
290
     0
174
     0
 93
        1
 44
50.0
173
     0
291
     1
 45
0.0
1001
ACAD
1000
AcDbSavedByObjectVersion
1070
     0
  0
VISUALSTYLE
  5
934
102
{ACAD_REACTORS
330
924
102
}
330
924
100
AcDbVisualStyle
  2
ColorChange
 70
    16
 71
     2
 72
     2
 73
     3
 90
        0
 40
-0.6
 41
-30.0
 62
     5
 63
     8
 74
     1
 91
        4
 64
     7
 65
   257
 75
     1
175
     1
 42
1.0
 92
        8
 66
     8
 43
1.0
 76
     1
 77
     6
 78
     2
 67
     7
 79
     5
170
     0
171
     0
290
     0
174
     0
 93
        1
 44
0.0
173
     0
291
     1
 45
0.0
1001
ACAD
1000
AcDbSavedByObjectVersion
1070
     0
  0
VISUALSTYLE
  5
92D
102
{ACAD_REACTORS
330
924
102
}
330
924
100
AcDbVisualStyle
  2
Conceptual
 70
     9
 71
     3
 72
     2
 73
     0
 90
        0
 40
-0.6
 41
-30.0
 62
     5
 63
     7
 74
     2
 91
        2
 64
     7
 65
   257
 75
     1
175
     1
 42
40.0
 92
        8
 66
     7
 43
1.0
 76
     1
 77
     6
 78
     2
 67
     7
 79
     3
170
     0
171
     0
290
     0
174
     0
 93
        1
 44
0.0
173
     0
291
     0
 45
0.0
1001
ACAD
1000
AcDbSavedByObjectVersion
1070
     0
  0
VISUALSTYLE
  5
92F
102
{ACAD_REACTORS
330
924
102
}
330
924
100
AcDbVisualStyle
  2
Dim
 70
    11
 71
     2
 72
     2
 73
     0
 90
        0
 40
-0.6
 41
-30.0
 62
     5
 63
     7
 74
     1
 91
        4
 64
     7
 65
   257
 75
     1
175
     1
 42
1.0
 92
        8
 66
     7
 43
1.0
 76
     1
 77
     6
 78
     2
 67
     7
 79
     5
170
     0
171
     0
290
     0
174
     0
 93
        1
 44
-50.0
173
     0
291
     1
 45
0.0
1001
ACAD
1000
AcDbSavedByObjectVersion
1070
     0
  0
VISUALSTYLE
  5
933
102
{ACAD_REACTORS
330
924
102
}
330
924
100
AcDbVisualStyle
  2
Facepattern
 70
    15
 71
     2
 72
     2
 73
     0
 90
        0
 40
-0.6
 41
-30.0
 62
     5
 63
     7
 74
     1
 91
        4
 64
     7
 65
   257
 75
     1
175
     1
 42
1.0
 92
        8
 66
     7
 43
1.0
 76
     1
 77
     6
 78
     2
 67
     7
 79
     5
170
     0
171
     0
290
     0
174
     0
 93
        1
 44
0.0
173
     0
291
     1
 45
0.0
1001
ACAD
1000
AcDbSavedByObjectVersion
1070
     0
  0
VISUALSTYLE
  5
925
102
{ACAD_REACTORS
330
924
102
}
330
924
100
AcDbVisualStyle
  2
Flat
 70
     0
 71
     2
 72
     1
 73
     1
 90
        2
 40
-0.6
 41
30.0
 62
     5
 63
     7
 74
     0
 91
        4
 64
     7
 65
   257
 75
     1
175
     1
 42
1.0
 92
        8
 66
     7
 43
1.0
 76
     1
 77
     6
 78
     2
 67
     7
 79
     5
170
     0
171
     0
290
     0
174
     0
 93
       13
 44
0.0
173
     0
291
     1
 45
0.0
1001
ACAD
1000
AcDbSavedByObjectVersion
1070
     0
  0
VISUALSTYLE
  5
926
102
{ACAD_REACTORS
330
924
102
}
330
924
100
AcDbVisualStyle
  2
FlatWithEdges
 70
     1
 71
     2
 72
     1
 73
     1
 90
        2
 40
-0.6
 41
30.0
 62
     5
 63
     7
 74
     1
 91
        4
 64
     7
 65
   257
 75
     1
175
     1
 42
1.0
 92
        0
 66
   257
 43
1.0
 76
     1
 77
     6
 78
     2
 67
     7
 79
     5
170
     0
171
     0
290
     0
174
     0
 93
       13
 44
0.0
173
     0
291
     1
 45
0.0
1001
ACAD
1000
AcDbSavedByObjectVersion
1070
     0
  0
VISUALSTYLE
  5
927
102
{ACAD_REACTORS
330
924
102
}
330
924
100
AcDbVisualStyle
  2
Gouraud
 70
     2
 71
     2
 72
     2
 73
     1
 90
        2
 40
-0.6
 41
30.0
 62
     5
 63
     7
 74
     0
 91
        4
 64
     7
 65
   257
 75
     1
175
     1
 42
1.0
 92
        0
 66
     7
 43
1.0
 76
     1
 77
     6
 78
     2
 67
     7
 79
     5
170
     0
171
     0
290
     0
174
     0
 93
       13
 44
0.0
173
     0
291
     1
 45
0.0
1001
ACAD
1000
AcDbSavedByObjectVersion
1070
     0
  0
VISUALSTYLE
  5
928
102
{ACAD_REACTORS
330
924
102
}
330
924
100
AcDbVisualStyle
  2
GouraudWithEdges
 70
     3
 71
     2
 72
     2
 73
     1
 90
        2
 40
-0.6
 41
30.0
 62
     5
 63
     7
 74
     1
 91
        4
 64
     7
 65
   257
 75
     1
175
     1
 42
1.0
 92
        0
 66
   257
 43
1.0
 76
     1
 77
     6
 78
     2
 67
     7
 79
     5
170
     0
171
     0
290
     0
174
     0
 93
       13
 44
0.0
173
     0
291
     1
 45
0.0
1001
ACAD
1000
AcDbSavedByObjectVersion
1070
     0
  0
VISUALSTYLE
  5
932
102
{ACAD_REACTORS
330
924
102
}
330
924
100
AcDbVisualStyle
  2
Linepattern
 70
    14
 71
     2
 72
     2
 73
     0
 90
        0
 40
-0.6
 41
-30.0
 62
     5
 63
     7
 74
     1
 91
        4
 64
     7
 65
   257
 75
     7
175
     7
 42
1.0
 92
        8
 66
     7
 43
1.0
 76
     1
 77
     6
 78
     2
 67
     7
 79
     5
170
     0
171
     0
290
     0
174
     0
 93
        1
 44
0.0
173
     0
291
     1
 45
0.0
1001
ACAD
1000
AcDbSavedByObjectVersion
1070
     0
  0
VISUALSTYLE
  5
92E
102
{ACAD_REACTORS
330
924
102
}
330
924
100
AcDbVisualStyle
  2
Realistic
 70
     8
 71
     2
 72
     2
 73
     0
 90
        0
 40
-0.6
 41
-30.0
 62
     5
 63
     7
 74
     1
 91
        0
 64
     7
 65
   257
 75
     1
175
     1
 42
1.0
 92
        8
 66
     8
 43
1.0
 76
     1
 77
     6
 78
     2
 67
     7
 79
     5
170
     0
171
     0
290
     0
174
     0
 93
       13
 44
0.0
173
     0
291
     0
 45
0.0
1001
ACAD
1000
AcDbSavedByObjectVersion
1070
     0
  0
VISUALSTYLE
  5
931
102
{ACAD_REACTORS
330
924
102
}
330
924
100
AcDbVisualStyle
  2
Thicken
 70
    13
 71
     2
 72
     2
 73
     0
 90
        0
 40
-0.6
 41
-30.0
 62
     5
 63
     7
 74
     1
 91
        4
 64
     7
 65
   257
 75
     1
175
     1
 42
1.0
 92
       12
 66
     7
 43
1.0
 76
     1
 77
     6
 78
     2
 67
     7
 79
     5
170
     0
171
     0
290
     0
174
     0
 93
        1
 44
0.0
173
     0
291
     1
 45
0.0
1001
ACAD
1000
AcDbSavedByObjectVersion
1070
     0
  0
DICTIONARYVAR
  5
98F
102
{ACAD_REACTORS
330
98C
102
}
330
98C
100
DictionaryVariables
280
     0
  1
1:1
  0
DICTIONARYVAR
  5
98E
102
{ACAD_REACTORS
330
98C
102
}
330
98C
100
DictionaryVariables
280
     0
  1
STANDARD
  0
DICTIONARYVAR
  5
98D
102
{ACAD_REACTORS
330
98C
102
}
330
98C
100
DictionaryVariables
280
     0
  1
STANDARD
  0
DICTIONARYVAR
  5
992
102
{ACAD_REACTORS
330
98C
102
}
330
98C
100
DictionaryVariables
280
     0
  1
1
  0
DICTIONARYVAR
  5
991
102
{ACAD_REACTORS
330
98C
102
}
330
98C
100
DictionaryVariables
280
     0
  1
0
  0
DICTIONARYVAR
  5
990
102
{ACAD_REACTORS
330
98C
102
}
330
98C
100
DictionaryVariables
280
     0
  1
127
  0
DICTIONARY
  5
99D
330
972
100
AcDbDictionary
280
     1
281
     1
  3
ACAD_XREC_ROUNDTRIP
360
99E
  0
DICTIONARY
  5
99B
330
96E
100
AcDbDictionary
280
     1
281
     1
  3
ACAD_XREC_ROUNDTRIP
360
99C
  0
DICTIONARY
  5
915
330
914
100
AcDbDictionary
280
     1
281
     1
  3
ACAD_XREC_ROUNDTRIP
360
998
  3
BUMPTILE
360
917
  3
DIFFUSETILE
360
916
  3
OPACITYTILE
360
91A
  3
REFLECTIONTILE
360
919
  3
REFRACTIONTILE
360
91B
  3
SPECULARTILE
360
918
  0
DICTIONARY
  5
90D
330
90C
100
AcDbDictionary
280
     1
281
     1
  3
ACAD_XREC_ROUNDTRIP
360
997
  3
BUMPTILE
360
90F
  3
DIFFUSETILE
360
90E
  3
OPACITYTILE
360
912
  3
REFLECTIONTILE
360
911
  3
REFRACTIONTILE
360
913
  3
SPECULARTILE
360
910
  0
DICTIONARY
  5
91D
330
91C
100
AcDbDictionary
280
     1
281
     1
  3
ACAD_XREC_ROUNDTRIP
360
999
  3
BUMPTILE
360
91F
  3
DIFFUSETILE
360
91E
  3
OPACITYTILE
360
922
  3
REFLECTIONTILE
360
921
  3
REFRACTIONTILE
360
923
  3
SPECULARTILE
360
920
  0
DICTIONARY
  5
993
330
967
100
AcDbDictionary
280
     1
281
     1
  3
ACAD_ROUNDTRIP_2008_TABLESTYLE_CELLSTYLEMAP
360
994
  3
ACAD_XREC_ROUNDTRIP
360
99A
  0
XRECORD
  5
99E
102
{ACAD_REACTORS
330
99D
102
}
330
99D
100
AcDbXrecord
280
     1
102
SHADEPLOT
 70
     0
102
SHADEPLOTRESLEVEL
 70
     2
102
SHADEPLOTCUSTOMDPI
 70
   300
  0
XRECORD
  5
99C
102
{ACAD_REACTORS
330
99B
102
}
330
99B
100
AcDbXrecord
280
     1
102
SHADEPLOT
 70
     0
102
SHADEPLOTRESLEVEL
 70
     2
102
SHADEPLOTCUSTOMDPI
 70
   300
  0
XRECORD
  5
998
102
{ACAD_REACTORS
330
915
102
}
330
915
100
AcDbXrecord
280
     1
102
MATERIAL
148
0.0
149
0.0
149
0.0
 93
        0
 94
      127
282
     0
 72
     0
 77
     0
171
     0
175
     0
179
     0
273
     0
  0
XRECORD
  5
917
102
{ACAD_REACTORS
330
915
102
}
330
915
100
AcDbXrecord
280
     1
270
     1
271
     1
  0
XRECORD
  5
916
102
{ACAD_REACTORS
330
915
102
}
330
915
100
AcDbXrecord
280
     1
270
     1
271
     1
  0
XRECORD
  5
91A
102
{ACAD_REACTORS
330
915
102
}
330
915
100
AcDbXrecord
280
     1
270
     1
271
     1
  0
XRECORD
  5
919
102
{ACAD_REACTORS
330
915
102
}
330
915
100
AcDbXrecord
280
     1
270
     1
271
     1
  0
XRECORD
  5
91B
102
{ACAD_REACTORS
330
915
102
}
330
915
100
AcDbXrecord
280
     1
270
     1
271
     1
  0
XRECORD
  5
918
102
{ACAD_REACTORS
330
915
102
}
330
915
100
AcDbXrecord
280
     1
270
     1
271
     1
  0
XRECORD
  5
997
102
{ACAD_REACTORS
330
90D
102
}
330
90D
100
AcDbXrecord
280
     1
102
MATERIAL
148
0.0
149
0.0
149
0.0
 93
        0
 94
      127
282
     0
 72
     0
 77
     0
171
     0
175
     0
179
     0
273
     0
  0
XRECORD
  5
90F
102
{ACAD_REACTORS
330
90D
102
}
330
90D
100
AcDbXrecord
280
     1
270
     1
271
     1
  0
XRECORD
  5
90E
102
{ACAD_REACTORS
330
90D
102
}
330
90D
100
AcDbXrecord
280
     1
270
     1
271
     1
  0
XRECORD
  5
912
102
{ACAD_REACTORS
330
90D
102
}
330
90D
100
AcDbXrecord
280
     1
270
     1
271
     1
  0
XRECORD
  5
911
102
{ACAD_REACTORS
330
90D
102
}
330
90D
100
AcDbXrecord
280
     1
270
     1
271
     1
  0
XRECORD
  5
913
102
{ACAD_REACTORS
330
90D
102
}
330
90D
100
AcDbXrecord
280
     1
270
     1
271
     1
  0
XRECORD
  5
910
102
{ACAD_REACTORS
330
90D
102
}
330
90D
100
AcDbXrecord
280
     1
270
     1
271
     1
  0
XRECORD
  5
999
102
{ACAD_REACTORS
330
91D
102
}
330
91D
100
AcDbXrecord
280
     1
102
MATERIAL
148
0.0
149
0.0
149
0.0
 93
        0
 94
      127
282
     0
 72
     0
 77
     0
171
     0
175
     0
179
     0
273
     0
  0
XRECORD
  5
91F
102
{ACAD_REACTORS
330
91D
102
}
330
91D
100
AcDbXrecord
280
     1
270
     1
271
     1
  0
XRECORD
  5
91E
102
{ACAD_REACTORS
330
91D
102
}
330
91D
100
AcDbXrecord
280
     1
270
     1
271
     1
  0
XRECORD
  5
922
102
{ACAD_REACTORS
330
91D
102
}
330
91D
100
AcDbXrecord
280
     1
270
     1
271
     1
  0
XRECORD
  5
921
102
{ACAD_REACTORS
330
91D
102
}
330
91D
100
AcDbXrecord
280
     1
270
     1
271
     1
  0
XRECORD
  5
923
102
{ACAD_REACTORS
330
91D
102
}
330
91D
100
AcDbXrecord
280
     1
270
     1
271
     1
  0
XRECORD
  5
920
102
{ACAD_REACTORS
330
91D
102
}
330
91D
100
AcDbXrecord
280
     1
270
     1
271
     1
  0
CELLSTYLEMAP
  5
994
102
{ACAD_REACTORS
330
993
102
}
330
993
100
AcDbCellStyleMap
 90
        3
300
CELLSTYLE
  1
TABLEFORMAT_BEGIN
 90
        5
170
     1
 91
        0
 92
    32768
 62
   257
 93
        1
300
CONTENTFORMAT
  1
CONTENTFORMAT_BEGIN
 90
        0
 91
        0
 92
      512
 93
        0
300

 40
0.0
140
1.0
 94
        5
 62
     0
340
958
144
0.25
309
CONTENTFORMAT_END
171
     0
 94
        0
309
TABLEFORMAT_END
  1
CELLSTYLE_BEGIN
 90
        1
 91
        1
300
_TITLE
309
CELLSTYLE_END
300
CELLSTYLE
  1
TABLEFORMAT_BEGIN
 90
        5
170
     1
 91
        0
 92
        0
 62
   257
 93
        1
300
CONTENTFORMAT
  1
CONTENTFORMAT_BEGIN
 90
        0
 91
        0
 92
      512
 93
        0
300

 40
0.0
140
1.0
 94
        5
 62
     0
340
958
144
0.18
309
CONTENTFORMAT_END
171
     0
 94
        0
309
TABLEFORMAT_END
  1
CELLSTYLE_BEGIN
 90
        2
 91
        1
300
_HEADER
309
CELLSTYLE_END
300
CELLSTYLE
  1
TABLEFORMAT_BEGIN
 90
        5
170
     1
 91
        0
 92
        0
 62
   257
 93
        1
300
CONTENTFORMAT
  1
CONTENTFORMAT_BEGIN
 90
        0
 91
        0
 92
      512
 93
        0
300

 40
0.0
140
1.0
 94
        2
 62
     0
340
958
144
0.18
309
CONTENTFORMAT_END
171
     0
 94
        0
309
TABLEFORMAT_END
  1
CELLSTYLE_BEGIN
 90
        3
 91
        2
300
_DATA
309
CELLSTYLE_END
  0
XRECORD
  5
99A
102
{ACAD_REACTORS
330
993
102
}
330
993
100
AcDbXrecord
280
     1
102
ACAD_ROUNDTRIP_PRE2007_TABLESTYLE
 90
      512
 91
        0
  1

 92
      512
 93
        0
  2

 94
      512
 95
        0
  3

  0
ENDSEC
  0
EOF
