  0
SECTION
  2
HEADER
  9
$ACADVER
  1
AC1015
  9
$ACADMAINTVER
 70
    20
  9
$DWGCODEPAGE
  3
ANSI_1252
  9
$INSBASE
 10
0.0
 20
0.0
 30
0.0
  9
$EXTMIN
 10
-101.5301305128041
 20
-101.7862285464472
 30
0.0
  9
$EXTMAX
 10
101.4698694871959
 20
101.2137714535528
 30
0.0
  9
$LIMMIN
 10
0.0
 20
0.0
  9
$LIMMAX
 10
12.0
 20
9.0
  9
$ORTHOMODE
 70
     0
  9
$REGENMODE
 70
     1
  9
$FILLMODE
 70
     1
  9
$QTEXTMODE
 70
     0
  9
$MIRRTEXT
 70
     1
  9
$LTSCALE
 40
1.0
  9
$ATTMODE
 70
     1
  9
$TEXTSIZE
 40
0.2
  9
$TRACEWID
 40
0.05
  9
$TEXTSTYLE
  7
STANDARD
  9
$CLAYER
  8
0
  9
$CELTYPE
  6
ByLayer
  9
$CECOLOR
 62
   256
  9
$CELTSCALE
 40
1.0
  9
$DISPSILH
 70
     0
  9
$DIMSCALE
 40
1.0
  9
$DIMASZ
 40
0.18
  9
$DIMEXO
 40
0.0625
  9
$DIMDLI
 40
0.38
  9
$DIMRND
 40
0.0
  9
$DIMDLE
 40
0.0
  9
$DIMEXE
 40
0.18
  9
$DIMTP
 40
0.0
  9
$DIMTM
 40
0.0
  9
$DIMTXT
 40
0.18
  9
$DIMCEN
 40
0.09
  9
$DIMTSZ
 40
0.0
  9
$DIMTOL
 70
     0
  9
$DIMLIM
 70
     0
  9
$DIMTIH
 70
     1
  9
$DIMTOH
 70
     1
  9
$DIMSE1
 70
     0
  9
$DIMSE2
 70
     0
  9
$DIMTAD
 70
     0
  9
$DIMZIN
 70
     0
  9
$DIMBLK
  1

  9
$DIMASO
 70
     1
  9
$DIMSHO
 70
     1
  9
$DIMPOST
  1

  9
$DIMAPOST
  1

  9
$DIMALT
 70
     0
  9
$DIMALTD
 70
     2
  9
$DIMALTF
 40
25.4
  9
$DIMLFAC
 40
1.0
  9
$DIMTOFL
 70
     0
  9
$DIMTVP
 40
0.0
  9
$DIMTIX
 70
     0
  9
$DIMSOXD
 70
     0
  9
$DIMSAH
 70
     0
  9
$DIMBLK1
  1

  9
$DIMBLK2
  1

  9
$DIMSTYLE
  2
STANDARD
  9
$DIMCLRD
 70
     0
  9
$DIMCLRE
 70
     0
  9
$DIMCLRT
 70
     0
  9
$DIMTFAC
 40
1.0
  9
$DIMGAP
 40
0.09
  9
$DIMJUST
 70
     0
  9
$DIMSD1
 70
     0
  9
$DIMSD2
 70
     0
  9
$DIMTOLJ
 70
     1
  9
$DIMTZIN
 70
     0
  9
$DIMALTZ
 70
     0
  9
$DIMALTTZ
 70
     0
  9
$DIMUPT
 70
     0
  9
$DIMDEC
 70
     4
  9
$DIMTDEC
 70
     4
  9
$DIMALTU
 70
     2
  9
$DIMALTTD
 70
     2
  9
$DIMTXSTY
  7
STANDARD
  9
$DIMAUNIT
 70
     0
  9
$DIMADEC
 70
     0
  9
$DIMALTRND
 40
0.0
  9
$DIMAZIN
 70
     0
  9
$DIMDSEP
 70
    46
  9
$DIMATFIT
 70
     3
  9
$DIMFRAC
 70
     0
  9
$DIMLDRBLK
  1

  9
$DIMLUNIT
 70
     2
  9
$DIMLWD
 70
    -2
  9
$DIMLWE
 70
    -2
  9
$DIMTMOVE
 70
     0
  9
$LUNITS
 70
     2
  9
$LUPREC
 70
     4
  9
$SKETCHINC
 40
0.1
  9
$FILLETRAD
 40
0.5
  9
$AUNITS
 70
     0
  9
$AUPREC
 70
     0
  9
$MENU
  1
.
  9
$ELEVATION
 40
0.0
  9
$PELEVATION
 40
0.0
  9
$THICKNESS
 40
0.0
  9
$LIMCHECK
 70
     0
  9
$CHAMFERA
 40
0.0
  9
$CHAMFERB
 40
0.0
  9
$CHAMFERC
 40
0.0
  9
$CHAMFERD
 40
0.0
  9
$SKPOLY
 70
     0
  9
$TDCREATE
 40
2454910.500000000
  9
$TDUCREATE
 40
2454910.458333334
  9
$TDUPDATE
 40
2457347.907787245
  9
$TDUUPDATE
 40
2457347.866120579
  9
$TDINDWG
 40
0.0004062731
  9
$TDUSRTIMER
 40
0.0004061574
  9
$USRTIMER
 70
     1
  9
$ANGBASE
 50
0.0
  9
$ANGDIR
 70
     0
  9
$PDMODE
 70
     0
  9
$PDSIZE
 40
0.0
  9
$PLINEWID
 40
0.0
  9
$SPLFRAME
 70
     0
  9
$SPLINETYPE
 70
     6
  9
$SPLINESEGS
 70
     8
  9
$HANDSEED
  5
28C
  9
$SURFTAB1
 70
     6
  9
$SURFTAB2
 70
     6
  9
$SURFTYPE
 70
     6
  9
$SURFU
 70
     6
  9
$SURFV
 70
     6
  9
$UCSBASE
  2

  9
$UCSNAME
  2

  9
$UCSORG
 10
0.0
 20
0.0
 30
0.0
  9
$UCSXDIR
 10
1.0
 20
0.0
 30
0.0
  9
$UCSYDIR
 10
0.0
 20
1.0
 30
0.0
  9
$UCSORTHOREF
  2

  9
$UCSORTHOVIEW
 70
     0
  9
$UCSORGTOP
 10
0.0
 20
0.0
 30
0.0
  9
$UCSORGBOTTOM
 10
0.0
 20
0.0
 30
0.0
  9
$UCSORGLEFT
 10
0.0
 20
0.0
 30
0.0
  9
$UCSORGRIGHT
 10
0.0
 20
0.0
 30
0.0
  9
$UCSORGFRONT
 10
0.0
 20
0.0
 30
0.0
  9
$UCSORGBACK
 10
0.0
 20
0.0
 30
0.0
  9
$PUCSBASE
  2

  9
$PUCSNAME
  2

  9
$PUCSORG
 10
0.0
 20
0.0
 30
0.0
  9
$PUCSXDIR
 10
1.0
 20
0.0
 30
0.0
  9
$PUCSYDIR
 10
0.0
 20
1.0
 30
0.0
  9
$PUCSORTHOREF
  2

  9
$PUCSORTHOVIEW
 70
     0
  9
$PUCSORGTOP
 10
0.0
 20
0.0
 30
0.0
  9
$PUCSORGBOTTOM
 10
0.0
 20
0.0
 30
0.0
  9
$PUCSORGLEFT
 10
0.0
 20
0.0
 30
0.0
  9
$PUCSORGRIGHT
 10
0.0
 20
0.0
 30
0.0
  9
$PUCSORGFRONT
 10
0.0
 20
0.0
 30
0.0
  9
$PUCSORGBACK
 10
0.0
 20
0.0
 30
0.0
  9
$USERI1
 70
     0
  9
$USERI2
 70
     0
  9
$USERI3
 70
     0
  9
$USERI4
 70
     0
  9
$USERI5
 70
     0
  9
$USERR1
 40
0.0
  9
$USERR2
 40
0.0
  9
$USERR3
 40
0.0
  9
$USERR4
 40
0.0
  9
$USERR5
 40
0.0
  9
$WORLDVIEW
 70
     1
  9
$SHADEDGE
 70
     3
  9
$SHADEDIF
 70
    70
  9
$TILEMODE
 70
     1
  9
$MAXACTVP
 70
    64
  9
$PINSBASE
 10
0.0
 20
0.0
 30
0.0
  9
$PLIMCHECK
 70
     0
  9
$PEXTMIN
 10
1.000000000000000E+20
 20
1.000000000000000E+20
 30
1.000000000000000E+20
  9
$PEXTMAX
 10
-1.000000000000000E+20
 20
-1.000000000000000E+20
 30
-1.000000000000000E+20
  9
$PLIMMIN
 10
0.0
 20
0.0
  9
$PLIMMAX
 10
12.0
 20
9.0
  9
$UNITMODE
 70
     0
  9
$VISRETAIN
 70
     1
  9
$PLINEGEN
 70
     0
  9
$PSLTSCALE
 70
     1
  9
$TREEDEPTH
 70
  3020
  9
$CMLSTYLE
  2
Standard
  9
$CMLJUST
 70
     0
  9
$CMLSCALE
 40
1.0
  9
$PROXYGRAPHICS
 70
     1
  9
$MEASUREMENT
 70
     0
  9
$CELWEIGHT
370
    -1
  9
$ENDCAPS
280
     0
  9
$JOINSTYLE
280
     0
  9
$LWDISPLAY
290
     0
  9
$INSUNITS
 70
     0
  9
$HYPERLINKBASE
  1

  9
$STYLESHEET
  1

  9
$XEDIT
290
     1
  9
$CEPSNTYPE
380
     0
  9
$PSTYLEMODE
290
     1
  9
$FINGERPRINTGUID
  2
{4460C17D-0426-48F0-BBAF-7A61C810975C}
  9
$VERSIONGUID
  2
{0FCA0EDF-5C53-4FD3-B1FA-97CB0B52307A}
  9
$EXTNAMES
290
     1
  9
$PSVPSCALE
 40
0.0
  9
$OLESTARTUP
290
     0
  0
ENDSEC
  0
SECTION
  2
CLASSES
  0
CLASS
  1
ACDBDICTIONARYWDFLT
  2
AcDbDictionaryWithDefault
  3
ObjectDBX Classes
 90
        0
280
     0
281
     0
  0
CLASS
  1
MATERIAL
  2
AcDbMaterial
  3
ObjectDBX Classes
 90
     1153
280
     0
281
     0
  0
CLASS
  1
VISUALSTYLE
  2
AcDbVisualStyle
  3
ObjectDBX Classes
 90
     4095
280
     0
281
     0
  0
CLASS
  1
SCALE
  2
AcDbScale
  3
ObjectDBX Classes
 90
     1153
280
     0
281
     0
  0
CLASS
  1
TABLESTYLE
  2
AcDbTableStyle
  3
ObjectDBX Classes
 90
     4095
280
     0
281
     0
  0
CLASS
  1
MLEADERSTYLE
  2
AcDbMLeaderStyle
  3
ACDB_MLEADERSTYLE_CLASS
 90
     4095
280
     0
281
     0
  0
CLASS
  1
DICTIONARYVAR
  2
AcDbDictionaryVar
  3
ObjectDBX Classes
 90
        0
280
     0
281
     0
  0
CLASS
  1
CELLSTYLEMAP
  2
AcDbCellStyleMap
  3
ObjectDBX Classes
 90
     1152
280
     0
281
     0
  0
CLASS
  1
ACDBPLACEHOLDER
  2
AcDbPlaceHolder
  3
ObjectDBX Classes
 90
        0
280
     0
281
     0
  0
CLASS
  1
LAYOUT
  2
AcDbLayout
  3
ObjectDBX Classes
 90
        0
280
     0
281
     0
  0
ENDSEC
  0
SECTION
  2
TABLES
  0
TABLE
  2
VPORT
  5
1F9
330
0
100
AcDbSymbolTable
 70
     1
  0
VPORT
  5
269
330
1F9
100
AcDbSymbolTableRecord
100
AcDbViewportTableRecord
  2
*ACTIVE
 70
     0
 10
0.0
 20
0.0
 11
1.0
 21
1.0
 12
-18.31691505745431
 22
-3.800195232086878
 13
0.0
 23
0.0
 14
0.5
 24
0.5
 15
0.5
 25
0.5
 16
0.0
 26
0.0
 36
1.0
 17
0.0
 27
0.0
 37
0.0
 40
337.4275082954462
 41
2.515936254980079
 42
50.0
 43
0.0
 44
0.0
 50
0.0
 51
0.0
 71
     0
 72
   100
 73
     1
 74
     3
 75
     0
 76
     0
 77
     0
 78
     0
281
     0
 65
     1
110
0.0
120
0.0
130
0.0
111
1.0
121
0.0
131
0.0
112
0.0
122
1.0
132
0.0
 79
     0
146
0.0
  0
ENDTAB
  0
TABLE
  2
LTYPE
  5
1F6
330
0
100
AcDbSymbolTable
 70
     2
  0
LTYPE
  5
253
330
1F6
100
AcDbSymbolTableRecord
100
AcDbLinetypeTableRecord
  2
ByBlock
 70
     0
  3

 72
    65
 73
     0
 40
0.0
  0
LTYPE
  5
254
330
1F6
100
AcDbSymbolTableRecord
100
AcDbLinetypeTableRecord
  2
ByLayer
 70
     0
  3

 72
    65
 73
     0
 40
0.0
  0
LTYPE
  5
255
330
1F6
100
AcDbSymbolTableRecord
100
AcDbLinetypeTableRecord
  2
CONTINUOUS
 70
     0
  3
Solid line
 72
    65
 73
     0
 40
0.0
  0
LTYPE
  5
26A
330
1F6
100
AcDbSymbolTableRecord
100
AcDbLinetypeTableRecord
  2
CONTINUOUS2
 70
     0
  3
Solid Line
 72
    65
 73
     0
 40
0.0
  0
ENDTAB
  0
TABLE
  2
LAYER
  5
1F3
330
0
100
AcDbSymbolTable
 70
     3
  0
LAYER
  5
24D
102
{ACAD_XDICTIONARY
360
273
102
}
330
1F3
100
AcDbSymbolTableRecord
100
AcDbLayerTableRecord
  2
0
 70
     0
 62
     7
  6
CONTINUOUS
370
    -3
390
200
  0
LAYER
  5
26B
102
{ACAD_XDICTIONARY
360
275
102
}
330
1F3
100
AcDbSymbolTableRecord
100
AcDbLayerTableRecord
  2
COUCHE_BITMAP
 70
     0
 62
    18
  6
CONTINUOUS
370
    -3
390
200
  0
LAYER
  5
26C
102
{ACAD_XDICTIONARY
360
277
102
}
330
1F3
100
AcDbSymbolTableRecord
100
AcDbLayerTableRecord
  2
COUCHE_1
 70
     0
 62
    18
  6
CONTINUOUS
370
    -3
390
200
  0
ENDTAB
  0
TABLE
  2
STYLE
  5
1F4
330
0
100
AcDbSymbolTable
 70
     2
  0
STYLE
  5
24E
330
1F4
100
AcDbSymbolTableRecord
100
AcDbTextStyleTableRecord
  2
STANDARD
 70
     0
 40
0.0
 41
1.0
 50
0.0
 71
     0
 42
0.2
  3
txt
  4

  0
STYLE
  5
252
330
1F4
100
AcDbSymbolTableRecord
100
AcDbTextStyleTableRecord
  2
Annotative
 70
     0
 40
0.0
 41
1.0
 50
0.0
 71
     0
 42
0.2
  3
txt
  4

1001
AcadAnnotative
1000
AnnotativeData
1002
{
1070
     1
1070
     1
1002
}
  0
ENDTAB
  0
TABLE
  2
VIEW
  5
1F7
330
0
100
AcDbSymbolTable
 70
     0
  0
ENDTAB
  0
TABLE
  2
UCS
  5
1F8
330
0
100
AcDbSymbolTable
 70
     0
  0
ENDTAB
  0
TABLE
  2
APPID
  5
1FA
330
0
100
AcDbSymbolTable
 70
     3
  0
APPID
  5
24F
330
1FA
100
AcDbSymbolTableRecord
100
AcDbRegAppTableRecord
  2
ACAD
 70
     0
  0
APPID
  5
256
330
1FA
100
AcDbSymbolTableRecord
100
AcDbRegAppTableRecord
  2
AcadAnnotative
 70
     0
  0
APPID
  5
260
330
1FA
100
AcDbSymbolTableRecord
100
AcDbRegAppTableRecord
  2
ACAD_MLEADERVER
 70
     0
  0
ENDTAB
  0
TABLE
  2
DIMSTYLE
  5
1FB
330
0
100
AcDbSymbolTable
 70
     2
100
AcDbDimStyleTable
 71
     0
  0
DIMSTYLE
105
250
330
1FB
100
AcDbSymbolTableRecord
100
AcDbDimStyleTableRecord
  2
STANDARD
 70
     0
279
     2
340
24E
  0
DIMSTYLE
105
251
330
1FB
100
AcDbSymbolTableRecord
100
AcDbDimStyleTableRecord
  2
Annotative
 70
     0
340
24E
1001
AcadAnnotative
1000
AnnotativeData
1002
{
1070
     1
1070
     1
1002
}
  0
ENDTAB
  0
TABLE
  2
BLOCK_RECORD
  5
1F2
330
0
100
AcDbSymbolTable
 70
     2
  0
BLOCK_RECORD
  5
265
330
1F2
100
AcDbSymbolTableRecord
100
AcDbBlockTableRecord
  2
*Model_Space
340
268
  0
BLOCK_RECORD
  5
261
330
1F2
100
AcDbSymbolTableRecord
100
AcDbBlockTableRecord
  2
*Paper_Space
340
264
  0
BLOCK_RECORD
  5
26E
330
1F2
100
AcDbSymbolTableRecord
100
AcDbBlockTableRecord
  2
$MODEL_SPACE
340
0
  0
BLOCK_RECORD
  5
270
330
1F2
100
AcDbSymbolTableRecord
100
AcDbBlockTableRecord
  2
$PAPER_SPACE
340
0
  0
ENDTAB
  0
ENDSEC
  0
SECTION
  2
BLOCKS
  0
BLOCK
  5
266
330
265
100
AcDbEntity
  8
0
100
AcDbBlockBegin
  2
*Model_Space
 70
     0
 10
0.0
 20
0.0
 30
0.0
  3
*Model_Space
  1

  0
ENDBLK
  5
267
330
265
100
AcDbEntity
  8
0
100
AcDbBlockEnd
  0
BLOCK
  5
262
330
261
100
AcDbEntity
 67
     1
  8
0
100
AcDbBlockBegin
  2
*Paper_Space
 70
     0
 10
0.0
 20
0.0
 30
0.0
  3
*Paper_Space
  1

  0
ENDBLK
  5
263
330
261
100
AcDbEntity
 67
     1
  8
0
100
AcDbBlockEnd
  0
BLOCK
  5
26F
330
26E
100
AcDbEntity
  8
0
100
AcDbBlockBegin
  2
$MODEL_SPACE
 70
     0
 10
0.0
 20
0.0
 30
0.0
  3
$MODEL_SPACE
  1

  0
ENDBLK
  5
21
330
26E
100
AcDbEntity
  8
0
100
AcDbBlockEnd
  0
BLOCK
  5
271
330
270
100
AcDbEntity
  8
0
100
AcDbBlockBegin
  2
$PAPER_SPACE
 70
     0
 10
0.0
 20
0.0
 30
0.0
  3
$PAPER_SPACE
  1

  0
ENDBLK
  5
1D
330
270
100
AcDbEntity
  8
0
100
AcDbBlockEnd
  0
ENDSEC
  0
SECTION
  2
ENTITIES
  0
LWPOLYLINE
  5
6C
330
265
100
AcDbEntity
  8
COUCHE_BITMAP
100
AcDbPolyline
 90
        6
 70
     1
 43
0.0
 10
44.40453753997796
 20
86.26628383897722
 10
44.39204868462097
 20
79.26800810518709
 10
32.79079550533993
 20
79.26800810518709
 10
25.5281404254615
 20
86.54024742639029
 10
28.32623780431217
 20
92.37746720975327
 10
38.30140822980391
 20
92.37746720975327
  0
LWPOLYLINE
  5
6D
330
265
100
AcDbEntity
  8
COUCHE_BITMAP
100
AcDbPolyline
 90
        6
 70
     1
 43
0.0
 10
-24.58747090259898
 20
87.48215850480454
 10
-32.7907956959306
 20
79.26800810518709
 10
-43.06174100873252
 20
79.26800810518709
 10
-45.24366649168145
 20
85.4860897057317
 10
-38.36137128296689
 20
92.37746720975327
 10
-29.45888717811815
 20
92.37746720975327
  0
LWPOLYLINE
  5
6E
330
265
100
AcDbEntity
  8
COUCHE_BITMAP
100
AcDbPolyline
 90
        9
 70
     1
 43
0.0
 10
15.96253467437954
 20
86.54024742639027
 10
22.08391538456279
 20
79.26800810518709
 10
2.829410842829659
 20
79.26800810518709
 10
-0.0000000952953254
 20
76.55118798414022
 10
-2.82941103342031
 20
79.26800810518709
 10
-22.08391557515344
 20
79.26800810518709
 10
-15.96253486497019
 20
86.54024742639027
 10
-21.78554926458613
 20
92.37746720975327
 10
21.76303601334178
 20
92.37746720975327
  0
LWPOLYLINE
  5
6F
330
265
100
AcDbEntity
  8
COUCHE_BITMAP
100
AcDbPolyline
 90
       12
 70
     1
 43
0.0
 10
-7.58485940754549
 20
63.27951747602088
 10
-9.22583017225028
 20
55.26233308330096
 10
-16.64274873568975
 20
54.81882581134652
 10
-15.63885992038858
 20
37.28356298071297
 10
-28.08314692663657
 20
49.69908611184339
 10
-33.33704364962635
 20
44.4382560272201
 10
-40.41511133130206
 20
48.5301731345433
 10
-45.13402258079132
 20
56.71435328291115
 10
-30.78118506243792
 20
71.08613167852741
 10
-30.80485170597052
 20
71.06014204208863
 10
-30.82851834950311
 20
71.03415240564984
 10
-10.56663795088581
 20
72.24574603761367
  0
LWPOLYLINE
  5
70
330
265
100
AcDbEntity
  8
COUCHE_BITMAP
100
AcDbPolyline
 90
        8
 70
     1
 43
0.0
 10
2.719798259335377
 20
48.71658110344245
 10
8.506166551979806
 20
48.53172560035327
 10
8.427414470382222
 20
30.32814203441201
 10
0.3200510173988579
 20
21.61232181851937
 10
-8.519305729878089
 20
30.29313156275968
 10
-8.414391489638472
 20
48.5889221366154
 10
-2.741564309443726
 20
48.56713500627692
 10
-0.0000038167498378
 20
51.95060826306139
  0
LWPOLYLINE
  5
71
330
265
100
AcDbEntity
  8
COUCHE_BITMAP
100
AcDbPolyline
 90
       10
 70
     1
 43
0.0
 10
28.64661927665592
 20
71.99519747824052
 10
43.60732446888138
 20
58.25224960984884
 10
39.24470640467204
 20
49.87221158123586
 10
32.349153718615
 20
45.47893073108518
 10
26.87391526486756
 20
50.50836964798857
 10
14.98537982898152
 20
37.59382972352022
 10
15.24467495522084
 20
55.18209507164769
 10
7.815563859664572
 20
55.30542368220849
 10
5.831378557084306
 20
63.24442571616808
 10
8.424847032499441
 20
72.33089350457142
  0
LWPOLYLINE
  5
72
330
265
100
AcDbEntity
  8
COUCHE_BITMAP
100
AcDbPolyline
 90
        9
 70
     1
 43
0.0
 10
80.71118564394723
 20
49.91172327416641
 10
72.40007867201524
 20
49.89095359645884
 10
71.59307582600938
 20
40.41452193563011
 10
57.97808509616269
 20
54.04747983524506
 10
54.0588393395782
 20
54.12973380516786
 10
53.97669377393954
 20
58.05415163680325
 10
40.36170304409288
 20
71.6871095364182
 10
49.82564551088894
 20
72.49517735245785
 10
49.83029942345204
 20
80.83336179015176
  0
LWPOLYLINE
  5
73
330
265
100
AcDbEntity
  8
COUCHE_BITMAP
100
AcDbPolyline
 90
        9
 70
     1
 43
0.0
 10
-49.82564570147961
 20
72.49517735245785
 10
-40.36170323468354
 20
71.68710953641819
 10
-53.97669396453022
 20
58.05415163680322
 10
-54.05883953016889
 20
54.12973380516785
 10
-57.97808528675336
 20
54.04747983524504
 10
-71.59307601660002
 20
40.41452193563009
 10
-72.40007886260588
 20
49.89095359645883
 10
-80.78720359605261
 20
49.89564718820299
 10
-49.84653728512213
 20
80.87714468406655
  0
LWPOLYLINE
  5
74
330
265
100
AcDbEntity
  8
COUCHE_BITMAP
100
AcDbPolyline
 90
        8
 70
     1
 43
0.0
 10
-15.45820408381172
 20
27.4120505212729
 10
-15.03608255208788
 20
15.50869795372053
 10
-27.41662134102324
 20
15.38833992555694
 10
-40.26246329818657
 20
28.39970097800647
 10
-36.23578320663963
 20
32.40088326627651
 10
-36.68653097808146
 20
36.73449442833436
 10
-32.47955177795778
 20
36.37342034384364
 10
-28.25743120894511
 20
40.3396875203811
  0
LWPOLYLINE
  5
75
330
265
100
AcDbEntity
  8
COUCHE_BITMAP
100
AcDbPolyline
 90
        6
 70
     1
 43
0.0
 10
92.49998072702519
 20
38.1073709801565
 10
92.4985853003309
 20
29.73919187770903
 10
87.36730815809394
 20
24.61947296724377
 10
79.16398336476233
 20
32.83362336686121
 10
79.16398336476233
 20
43.11812284372962
 10
85.32949789110086
 20
45.28731642130693
  0
LWPOLYLINE
  5
76
330
265
100
AcDbEntity
  8
COUCHE_BITMAP
100
AcDbPolyline
 90
        6
 70
     1
 43
0.0
 10
-79.16398355535299
 20
44.45018626537252
 10
-79.16398355535297
 20
32.83362336686118
 10
-86.42663863523145
 20
25.56138404565802
 10
-92.48061207169589
 20
28.47104761952711
 10
-92.48060159922264
 20
38.18681786588923
 10
-86.21289201540006
 20
44.46279870045191
  0
LWPOLYLINE
  5
77
330
265
100
AcDbEntity
  8
COUCHE_BITMAP
100
AcDbPolyline
 90
       12
 70
     1
 43
0.0
 10
70.99289000982219
 20
30.82136072896128
 10
70.96693462568677
 20
30.84505860443599
 10
70.94097924155139
 20
30.86875647991068
 10
72.15097608809007
 20
10.58013727168488
 10
63.19656431284207
 20
7.594423792040702
 10
55.18994594065184
 20
9.2375600815629
 10
54.74702317651349
 20
16.6642664618016
 10
37.23487044762962
 20
15.65905285376785
 10
49.63403089257693
 20
28.11976209795365
 10
44.38013416958717
 20
33.38059218257693
 10
48.46665845094506
 20
40.46800051282096
 10
56.64005249146877
 20
45.19313912457753
  0
LWPOLYLINE
  5
78
330
265
100
AcDbEntity
  8
COUCHE_BITMAP
100
AcDbPolyline
 90
       12
 70
     1
 43
0.0
 10
-50.05002479001972
 20
39.37486239311637
 10
-45.54883220012285
 20
32.54398413026632
 10
-50.48019192177516
 20
26.97890268741361
 10
-37.38737338515009
 20
15.29039278876585
 10
-54.95434354594195
 20
15.25844138180895
 10
-54.95434354594195
 20
7.818504126794301
 10
-62.84890223218384
 20
5.700371970082191
 10
-71.96513872787919
 20
8.146283697025969
 10
-71.96513872787919
 20
28.47104761952712
 10
-71.9635203438786
 20
28.4359132429128
 10
-71.96190195987795
 20
28.40077886629849
 10
-58.49018590582674
 20
43.60372516255065
  0
LWPOLYLINE
  5
79
330
265
100
AcDbEntity
  8
COUCHE_BITMAP
100
AcDbPolyline
 90
        9
 70
     1
 43
0.0
 10
-79.16398355535296
 20
2.832699839036493
 10
-76.45074399024297
 20
-0.0004449618342142
 10
-79.16398355535296
 20
-2.833589762704923
 10
-79.16398355535297
 20
-22.11350371960183
 10
-86.42663863523139
 20
-15.98404486315917
 10
-92.48058533661295
 20
-22.03920870210738
 10
-92.48061207169589
 20
22.01493481381728
 10
-86.42663863523139
 20
15.98315493949074
 10
-79.16398355535297
 20
22.1126137959334
  0
LWPOLYLINE
  5
7A
330
265
100
AcDbEntity
  8
COUCHE_BITMAP
100
AcDbPolyline
 90
        8
 70
     1
 43
0.0
 10
32.35862572228356
 20
36.28315709259768
 10
36.68652552455935
 20
36.7344996982111
 10
36.32592730740589
 20
32.52196871248581
 10
40.28696725473661
 20
28.29427637640029
 10
27.37636786774282
 20
15.47815861276239
 10
15.48870298572193
 20
15.05548002379379
 10
15.36850358000411
 20
27.45235692464252
 10
28.36271667860038
 20
40.31515103607761
  0
LWPOLYLINE
  5
7B
330
265
100
AcDbEntity
  8
COUCHE_BITMAP
100
AcDbPolyline
 90
       16
 70
     1
 43
0.0
 10
-0.0733735654181702
 20
11.46237794579269
 10
8.043535755398625
 20
19.54744584484001
 10
8.236763881409565
 20
7.781336624012713
 10
19.83480903511368
 20
7.535742713222367
 10
11.60890178685806
 20
-0.5351463969312729
 10
19.90429811891795
 20
-8.841489838478841
 10
8.000515936794032
 20
-8.793476436697595
 10
8.136506040598298
 20
-20.57214377594127
 10
-0.2268853433637227
 20
-12.06154598747041
 10
-7.986999095504863
 20
-19.93770972171702
 10
-8.326974355015513
 20
-8.618614663050758
 10
-19.47462699146313
 20
-8.572496199058365
 10
-11.79118612652241
 20
-0.2661527575108028
 10
-19.91743729681623
 20
8.047292804902429
 10
-8.443272288331757
 20
7.994101568724486
 10
-8.509240333645866
 20
19.76906576881362
  0
LWPOLYLINE
  5
7C
330
265
100
AcDbEntity
  8
COUCHE_BITMAP
100
AcDbPolyline
 90
        8
 70
     1
 43
0.0
 10
48.525330026438
 20
8.42505057511755
 10
48.50357160982932
 20
2.744737187180536
 10
51.88258571410568
 20
-0.0004412354686252
 10
48.65282074875449
 20
-2.723832527779308
 10
48.46820887072678
 20
-8.517836863923047
 10
30.28861620087197
 20
-8.43898085628925
 10
21.58428275275505
 20
-0.3209184334407299
 10
30.25365187027667
 20
8.530103266568989
  0
LWPOLYLINE
  5
7D
330
265
100
AcDbEntity
  8
COUCHE_BITMAP
100
AcDbPolyline
 90
        8
 70
     1
 43
0.0
 10
-30.28861639146262
 20
8.438090932620847
 10
-21.5842829433457
 20
0.3200285097723287
 10
-30.25365206086731
 20
-8.530993190237392
 10
-48.52533021702864
 20
-8.425940498785957
 10
-48.50357180041998
 20
-2.745627110848941
 10
-51.88258590469633
 20
-0.0004486881997798
 10
-48.65282093934514
 20
2.722942604110905
 10
-48.46820906131743
 20
8.516946940254642
  0
LWPOLYLINE
  5
7E
330
265
100
AcDbEntity
  8
COUCHE_BITMAP
100
AcDbPolyline
 90
        9
 70
     1
 43
0.0
 10
86.42663844464077
 20
15.98315493949076
 10
92.48058514602233
 20
22.03831877843898
 10
92.48061188110524
 20
-22.01582473748569
 10
86.42663844464077
 20
-15.98404486315915
 10
79.16398336476233
 20
-22.11350371960181
 10
79.16398336476231
 20
-2.833589762704901
 10
76.45074379965233
 20
-0.0004449618341938
 10
79.16398336476231
 20
2.832699839036515
 10
79.16398336476233
 20
22.11261379593342
  0
LWPOLYLINE
  5
7F
330
265
100
AcDbEntity
  8
COUCHE_BITMAP
100
AcDbPolyline
 90
       12
 70
     1
 43
0.0
 10
71.96513853728855
 20
-8.147173620694376
 10
71.96513853728855
 20
-28.47193754319552
 10
71.96352015328793
 20
-28.43680316658121
 10
71.9619017692873
 20
-28.40166878996689
 10
58.49018571523608
 20
-43.60461508621906
 10
50.05002459942907
 20
-39.37575231678478
 10
45.54883200953217
 20
-32.54487405393472
 10
50.48019173118451
 20
-26.97979261108201
 10
37.38737319455944
 20
-15.29128271243425
 10
54.95434335535128
 20
-15.25933130547735
 10
54.95434335535128
 20
-7.819394050462706
 10
62.84890204159317
 20
-5.701261893750599
  0
LWPOLYLINE
  5
80
330
265
100
AcDbEntity
  8
COUCHE_BITMAP
100
AcDbPolyline
 90
       12
 70
     1
 43
0.0
 10
-55.18994613124249
 20
-9.2384500052313
 10
-54.74702336710414
 20
-16.66515638547
 10
-37.23487063822028
 20
-15.65994277743625
 10
-49.63403108316761
 20
-28.12065202162206
 10
-44.38013436017784
 20
-33.38148210624535
 10
-48.46665864153572
 20
-40.46889043648935
 10
-56.64005268205944
 20
-45.19402904824594
 10
-70.99289020041283
 20
-30.82225065262969
 10
-70.96693481627744
 20
-30.84594852810438
 10
-70.94097943214203
 20
-30.86964640357908
 10
-72.15097627868073
 20
-10.58102719535328
 10
-63.19656450343273
 20
-7.595313715709101
  0
LWPOLYLINE
  5
81
330
265
100
AcDbEntity
  8
COUCHE_BITMAP
100
AcDbPolyline
 90
        6
 70
     1
 43
0.0
 10
-79.16398355535297
 20
-32.83451329052961
 10
-79.16398355535297
 20
-43.11901276739802
 10
-85.49952052107746
 20
-45.3480248048921
 10
-92.5000192729748
 20
-38.33827263777865
 10
-92.49858549092156
 20
-29.74008180137743
 10
-87.3673083486846
 20
-24.62036289091218
  0
LWPOLYLINE
  5
82
330
265
100
AcDbEntity
  8
COUCHE_BITMAP
100
AcDbPolyline
 90
        8
 70
     1
 43
0.0
 10
40.2624631075959
 20
-28.40059090167486
 10
36.23578301604897
 20
-32.40177318994491
 10
36.68653078749079
 20
-36.73538435200278
 10
32.47955158736713
 20
-36.37431026751203
 10
28.25743101835446
 20
-40.34057744404949
 10
15.45820389322107
 20
-27.41294044494129
 10
15.03608236149723
 20
-15.50958787738893
 10
27.41662115043259
 20
-15.38922984922535
  0
LWPOLYLINE
  5
83
330
265
100
AcDbEntity
  8
COUCHE_BITMAP
100
AcDbPolyline
 90
        8
 70
     1
 43
0.0
 10
-15.36850377059476
 20
-27.45324684831092
 10
-28.36271686919103
 20
-40.31604095974602
 10
-32.35862591287421
 20
-36.28404701626608
 10
-36.68652571515
 20
-36.73538962187951
 10
-36.32592749799655
 20
-32.5228586361542
 10
-40.28696744532727
 20
-28.2951663000687
 10
-27.37636805833347
 20
-15.47904853643079
 10
-15.48870317631258
 20
-15.05636994746219
  0
LWPOLYLINE
  5
84
330
265
100
AcDbEntity
  8
COUCHE_BITMAP
100
AcDbPolyline
 90
        6
 70
     1
 43
0.0
 10
92.48061188110524
 20
-28.47193754319552
 10
92.48060119574384
 20
-38.38521342733907
 10
86.40776106361554
 20
-44.46403729876085
 10
79.16398336476233
 20
-44.45107618904092
 10
79.16398336476233
 20
-32.83451329052959
 10
86.42663844464079
 20
-25.56227396932643
  0
LWPOLYLINE
  5
85
330
265
100
AcDbEntity
  8
COUCHE_BITMAP
100
AcDbPolyline
 90
        8
 70
     1
 43
0.0
 10
8.519305539287442
 20
-30.29402148642808
 10
8.414391299047828
 20
-48.5898120602838
 10
2.741564118853085
 20
-48.56802492994532
 10
0.000003626159195
 20
-51.95149818672979
 10
-2.719798449926019
 20
-48.71747102711086
 10
-8.506166742570449
 20
-48.53261552402167
 10
-8.427414660972871
 20
-30.32903195808041
 10
-0.3200512079895045
 20
-21.61321174218779
  0
LWPOLYLINE
  5
86
330
265
100
AcDbEntity
  8
COUCHE_BITMAP
100
AcDbPolyline
 90
       12
 70
     1
 43
0.0
 10
-15.23877642294415
 20
-55.02730950616897
 10
-7.808644421984456
 20
-55.02730950616897
 10
-5.693303797405842
 20
-62.93228633216403
 10
-8.135992004438543
 20
-72.06055316794674
 10
-28.43396948143132
 20
-72.06055316794674
 10
-28.39888140917106
 20
-72.05893264822819
 10
-28.36379333691079
 20
-72.0573121285096
 10
-43.54670334176572
 20
-58.56781797866557
 10
-39.32341388194367
 20
-50.11651871295829
 10
-32.50153818114354
 20
-45.60938607557793
 10
-26.94379107936298
 20
-50.54725351942161
 10
-15.27068572045148
 20
-37.43715690321053
  0
LWPOLYLINE
  5
87
330
265
100
AcDbEntity
  8
COUCHE_BITMAP
100
AcDbPolyline
 90
       12
 70
     1
 43
0.0
 10
28.08314673604592
 20
-49.69997603551179
 10
33.33704345903568
 20
-44.43914595088851
 10
40.4151111407114
 20
-48.53106305821171
 10
45.13402239020066
 20
-56.71524320657957
 10
30.78118487184727
 20
-71.08702160219582
 10
30.80485151537986
 20
-71.06103196575705
 10
30.82851815891245
 20
-71.03504232931827
 10
10.56663776029515
 20
-72.24663596128208
 10
7.584859216954837
 20
-63.28040739968927
 10
9.225829981659627
 20
-55.26322300696935
 10
16.6427485450991
 20
-54.81971573501493
 10
15.63885972979793
 20
-37.28445290438135
  0
LWPOLYLINE
  5
88
330
265
100
AcDbEntity
  8
COUCHE_BITMAP
100
AcDbPolyline
 90
        9
 70
     1
 43
0.0
 10
72.40007867201524
 20
-49.89184352012723
 10
80.95686997358717
 20
-49.89663206045373
 10
49.84695981302715
 20
-81.0476346094355
 10
49.82564551088895
 20
-72.49606727612626
 10
40.36170304409288
 20
-71.68799946008661
 10
53.97669377393954
 20
-58.05504156047163
 10
54.05883933957822
 20
-54.13062372883625
 10
57.97808509616269
 20
-54.04836975891345
 10
71.59307582600938
 20
-40.41541185929849
  0
LWPOLYLINE
  5
89
330
265
100
AcDbEntity
  8
COUCHE_BITMAP
100
AcDbPolyline
 90
        9
 70
     1
 43
0.0
 10
-57.97808528675334
 20
-54.04836975891345
 10
-54.05883953016886
 20
-54.13062372883626
 10
-53.97669396453022
 20
-58.05504156047163
 10
-40.36170323468353
 20
-71.68799946008661
 10
-49.82564570147959
 20
-72.49606727612627
 10
-49.83042793088532
 20
-81.06415063988448
 10
-80.9403759005622
 20
-49.9131859499148
 10
-72.40007886260588
 20
-49.89184352012724
 10
-71.59307601660002
 20
-40.41541185929852
  0
LWPOLYLINE
  5
8A
330
265
100
AcDbEntity
  8
COUCHE_BITMAP
100
AcDbPolyline
 90
        9
 70
     1
 43
0.0
 10
2.829410842829671
 20
-79.26889802885549
 10
22.08391538456281
 20
-79.26889802885551
 10
15.96253467437955
 20
-86.5411373500587
 10
22.00971828207712
 20
-92.6030732076806
 10
-21.98636532627829
 20
-92.60309997804474
 10
-15.96253486497018
 20
-86.5411373500587
 10
-22.08391557515343
 20
-79.26889802885551
 10
-2.829411033420298
 20
-79.26889802885549
 10
-0.0000000952953144
 20
-76.55207790780863
  0
LWPOLYLINE
  5
8B
330
265
100
AcDbEntity
  8
COUCHE_BITMAP
100
AcDbPolyline
 90
        6
 70
     1
 43
0.0
 10
-25.52814061605213
 20
-86.5411373500587
 10
-28.43396948143131
 20
-92.60309997804474
 10
-38.33418044510187
 20
-92.60308927858231
 10
-44.404992903205
 20
-86.52223505729342
 10
-44.39204887521163
 20
-79.26889802885551
 10
-32.79079569593058
 20
-79.26889802885551
  0
LWPOLYLINE
  5
8C
330
265
100
AcDbEntity
  8
COUCHE_BITMAP
100
AcDbPolyline
 90
        6
 70
     1
 43
0.0
 10
32.79079550533993
 20
-79.26889802885551
 10
43.06174081814186
 20
-79.26889802885551
 10
45.28781519251189
 20
-85.61279575445821
 10
38.28730132923155
 20
-92.62253279024674
 10
29.70044223430531
 20
-92.62109711608749
 10
24.58747071200831
 20
-87.48304842847295
  0
LWPOLYLINE
  5
8E
330
265
100
AcDbEntity
  8
COUCHE_1
100
AcDbPolyline
 90
        8
 70
     1
 43
0.0
 10
42.01254606806505
 20
-101.7862285464472
 10
101.4698694871959
 20
-42.32890512731632
 10
101.4698694871959
 20
41.75644803442197
 10
42.01254606806505
 20
101.2137714535528
 10
-42.07280709367324
 20
101.2137714535528
 10
-101.5301305128041
 20
41.75644803442199
 10
-101.5301305128041
 20
-42.32890512731631
 10
-42.07280709367323
 20
-101.7862285464472
  0
ENDSEC
  0
SECTION
  2
OBJECTS
  0
DICTIONARY
  5
1FD
330
0
100
AcDbDictionary
281
     1
  3
ACAD_COLOR
350
25B
  3
ACAD_GROUP
350
1FE
  3
ACAD_LAYOUT
350
25A
  3
ACAD_MATERIAL
350
201
  3
ACAD_MLEADERSTYLE
350
25E
  3
ACAD_MLINESTYLE
350
257
  3
ACAD_PLOTSETTINGS
350
259
  3
ACAD_PLOTSTYLENAME
350
1FF
  3
ACAD_SCALELIST
350
22B
  3
ACAD_TABLESTYLE
350
25C
  3
ACAD_VISUALSTYLE
350
21A
  3
ACDB_RECOMPOSE_DATA
350
282
  3
AcDbVariableDictionary
350
279
  3
DWGPROPS
350
283
  0
DICTIONARY
  5
273
330
24D
100
AcDbDictionary
280
     1
281
     1
  3
ADSK_XREC_LAYER_RECONCILED
360
274
  0
DICTIONARY
  5
275
330
26B
100
AcDbDictionary
280
     1
281
     1
  3
ADSK_XREC_LAYER_RECONCILED
360
276
  0
DICTIONARY
  5
277
330
26C
100
AcDbDictionary
280
     1
281
     1
  3
ADSK_XREC_LAYER_RECONCILED
360
278
  0
DICTIONARY
  5
25B
102
{ACAD_REACTORS
330
1FD
102
}
330
1FD
100
AcDbDictionary
281
     1
  0
DICTIONARY
  5
1FE
102
{ACAD_REACTORS
330
1FD
102
}
330
1FD
100
AcDbDictionary
281
     1
  0
DICTIONARY
  5
25A
102
{ACAD_REACTORS
330
1FD
102
}
330
1FD
100
AcDbDictionary
281
     1
  3
Model
350
268
  3
Présentation1
350
264
  0
DICTIONARY
  5
201
102
{ACAD_REACTORS
330
1FD
102
}
330
1FD
100
AcDbDictionary
281
     1
  3
ByBlock
350
20A
  3
ByLayer
350
202
  3
Global
350
212
  0
DICTIONARY
  5
25E
102
{ACAD_REACTORS
330
1FD
102
}
330
1FD
100
AcDbDictionary
281
     1
  3
Standard
350
25F
  0
DICTIONARY
  5
257
102
{ACAD_REACTORS
330
1FD
102
}
330
1FD
100
AcDbDictionary
281
     1
  3
Standard
350
258
  0
DICTIONARY
  5
259
102
{ACAD_REACTORS
330
1FD
102
}
330
1FD
100
AcDbDictionary
281
     1
  0
ACDBDICTIONARYWDFLT
  5
1FF
102
{ACAD_REACTORS
330
1FD
102
}
330
1FD
100
AcDbDictionary
281
     1
  3
Normal
350
200
100
AcDbDictionaryWithDefault
340
200
  0
DICTIONARY
  5
22B
102
{ACAD_REACTORS
330
1FD
102
}
330
1FD
100
AcDbDictionary
281
     1
  3
A0
350
22C
  3
A1
350
22D
  3
A2
350
22E
  3
A3
350
22F
  3
A4
350
230
  3
A5
350
231
  3
A6
350
232
  3
A7
350
233
  3
A8
350
234
  3
A9
350
235
  3
B0
350
236
  3
B1
350
237
  3
B2
350
238
  3
B3
350
239
  3
B4
350
23A
  3
B5
350
23B
  3
B6
350
23C
  3
B7
350
23D
  3
B8
350
23E
  3
B9
350
23F
  3
C0
350
240
  3
C1
350
241
  3
C2
350
242
  3
C3
350
243
  3
C4
350
244
  3
C5
350
245
  3
C6
350
246
  3
C7
350
247
  3
C8
350
248
  3
C9
350
249
  3
D0
350
24A
  3
D1
350
24B
  3
D2
350
24C
  0
DICTIONARY
  5
25C
102
{ACAD_REACTORS
330
1FD
102
}
330
1FD
100
AcDbDictionary
281
     1
  3
Standard
350
25D
  0
DICTIONARY
  5
21A
102
{ACAD_REACTORS
330
1FD
102
}
330
1FD
100
AcDbDictionary
281
     1
  3
2dWireframe
350
220
  3
3D Hidden
350
222
  3
3dWireframe
350
221
  3
Basic
350
21F
  3
Brighten
350
226
  3
ColorChange
350
22A
  3
Conceptual
350
223
  3
Dim
350
225
  3
Facepattern
350
229
  3
Flat
350
21B
  3
FlatWithEdges
350
21C
  3
Gouraud
350
21D
  3
GouraudWithEdges
350
21E
  3
Linepattern
350
228
  3
Realistic
350
224
  3
Thicken
350
227
  0
XRECORD
  5
282
102
{ACAD_REACTORS
330
1FD
102
}
330
1FD
100
AcDbXrecord
280
     1
 90
        1
330
25D
  0
DICTIONARY
  5
279
102
{ACAD_REACTORS
330
1FD
102
}
330
1FD
100
AcDbDictionary
281
     1
  3
CANNOSCALE
350
27C
  3
CMLEADERSTYLE
350
27B
  3
CTABLESTYLE
350
27A
  3
DIMASSOC
350
27F
  3
INDEXCTL
350
27E
  3
SORTENTS
350
27D
  0
XRECORD
  5
283
102
{ACAD_REACTORS
330
1FD
102
}
330
1FD
100
AcDbXrecord
280
     1
  1
DWGPROPS COOKIE
  2

  3

  4

  6

  7

  8
user
  9

300
=
301
=
302
=
303
=
304
=
305
=
306
=
307
=
308
=
309
=
 40
0.0004061574074074
 41
2454910.5
 42
2457347.907787245
  1

 90
        0
  0
XRECORD
  5
274
102
{ACAD_REACTORS
330
273
102
}
330
273
100
AcDbXrecord
280
     1
290
     1
  0
XRECORD
  5
276
102
{ACAD_REACTORS
330
275
102
}
330
275
100
AcDbXrecord
280
     1
290
     1
  0
XRECORD
  5
278
102
{ACAD_REACTORS
330
277
102
}
330
277
100
AcDbXrecord
280
     1
290
     1
  0
LAYOUT
  5
268
102
{ACAD_XDICTIONARY
360
28A
102
}
102
{ACAD_REACTORS
330
25A
102
}
330
25A
100
AcDbPlotSettings
  1

  2
CutePDF Writer
  4

  6

 40
0.0
 41
0.0
 42
0.0
 43
0.0
 44
0.0
 45
0.0
 46
0.0
 47
0.0
 48
0.0
 49
0.0
140
0.0
141
0.0
142
1.0
143
1.0
 70
  1712
 72
     0
 73
     0
 74
     0
  7

 75
     0
147
1.0
148
0.0
149
0.0
100
AcDbLayout
  1
Model
 70
     1
 71
     0
 10
0.0
 20
0.0
 11
12.0
 21
9.0
 12
0.0
 22
0.0
 32
0.0
 14
0.0
 24
0.0
 34
0.0
 15
0.0
 25
0.0
 35
0.0
146
0.0
 13
0.0
 23
0.0
 33
0.0
 16
1.0
 26
0.0
 36
0.0
 17
0.0
 27
1.0
 37
0.0
 76
     0
330
265
331
269
  0
LAYOUT
  5
264
102
{ACAD_XDICTIONARY
360
288
102
}
102
{ACAD_REACTORS
330
25A
102
}
330
25A
100
AcDbPlotSettings
  1

  2
CutePDF Writer
  4

  6

 40
0.0
 41
0.0
 42
0.0
 43
0.0
 44
0.0
 45
0.0
 46
0.0
 47
0.0
 48
0.0
 49
0.0
140
0.0
141
0.0
142
1.0
143
1.0
 70
   688
 72
     0
 73
     0
 74
     5
  7

 75
    16
147
1.0
148
0.0
149
0.0
100
AcDbLayout
  1
Présentation1
 70
     1
 71
     1
 10
0.0
 20
0.0
 11
12.0
 21
9.0
 12
0.0
 22
0.0
 32
0.0
 14
1.000000000000000E+20
 24
1.000000000000000E+20
 34
1.000000000000000E+20
 15
-1.000000000000000E+20
 25
-1.000000000000000E+20
 35
-1.000000000000000E+20
146
0.0
 13
0.0
 23
0.0
 33
0.0
 16
1.0
 26
0.0
 36
0.0
 17
0.0
 27
1.0
 37
0.0
 76
     0
330
261
  0
MATERIAL
  5
20A
102
{ACAD_XDICTIONARY
360
20B
102
}
102
{ACAD_REACTORS
330
201
102
}
330
201
100
AcDbMaterial
  1
ByBlock
 72
     0
 43
0.0208333333333333
 43
0.0
 43
0.0
 43
0.0
 43
0.0
 43
0.0208333333333333
 43
0.0
 43
0.0
 43
0.0
 43
0.0
 43
1.0
 43
0.0
 43
0.0
 43
0.0
 43
0.0
 43
1.0
 77
     0
 47
0.0208333333333333
 47
0.0
 47
0.0
 47
0.0
 47
0.0
 47
0.0208333333333333
 47
0.0
 47
0.0
 47
0.0
 47
0.0
 47
1.0
 47
0.0
 47
0.0
 47
0.0
 47
0.0
 47
1.0
171
     0
 49
0.0208333333333333
 49
0.0
 49
0.0
 49
0.0
 49
0.0
 49
0.0208333333333333
 49
0.0
 49
0.0
 49
0.0
 49
0.0
 49
1.0
 49
0.0
 49
0.0
 49
0.0
 49
0.0
 49
1.0
175
     0
142
0.0208333333333333
142
0.0
142
0.0
142
0.0
142
0.0
142
0.0208333333333333
142
0.0
142
0.0
142
0.0
142
0.0
142
1.0
142
0.0
142
0.0
142
0.0
142
0.0
142
1.0
179
     0
144
0.0208333333333333
144
0.0
144
0.0
144
0.0
144
0.0
144
0.0208333333333333
144
0.0
144
0.0
144
0.0
144
0.0
144
1.0
144
0.0
144
0.0
144
0.0
144
0.0
144
1.0
147
0.0208333333333333
147
0.0
147
0.0
147
0.0
147
0.0
147
0.0208333333333333
147
0.0
147
0.0
147
0.0
147
0.0
147
1.0
147
0.0
147
0.0
147
0.0
147
0.0
147
1.0
  0
MATERIAL
  5
202
102
{ACAD_XDICTIONARY
360
203
102
}
102
{ACAD_REACTORS
330
201
102
}
330
201
100
AcDbMaterial
  1
ByLayer
 72
     0
 43
0.0208333333333333
 43
0.0
 43
0.0
 43
0.0
 43
0.0
 43
0.0208333333333333
 43
0.0
 43
0.0
 43
0.0
 43
0.0
 43
1.0
 43
0.0
 43
0.0
 43
0.0
 43
0.0
 43
1.0
 77
     0
 47
0.0208333333333333
 47
0.0
 47
0.0
 47
0.0
 47
0.0
 47
0.0208333333333333
 47
0.0
 47
0.0
 47
0.0
 47
0.0
 47
1.0
 47
0.0
 47
0.0
 47
0.0
 47
0.0
 47
1.0
171
     0
 49
0.0208333333333333
 49
0.0
 49
0.0
 49
0.0
 49
0.0
 49
0.0208333333333333
 49
0.0
 49
0.0
 49
0.0
 49
0.0
 49
1.0
 49
0.0
 49
0.0
 49
0.0
 49
0.0
 49
1.0
175
     0
142
0.0208333333333333
142
0.0
142
0.0
142
0.0
142
0.0
142
0.0208333333333333
142
0.0
142
0.0
142
0.0
142
0.0
142
1.0
142
0.0
142
0.0
142
0.0
142
0.0
142
1.0
179
     0
144
0.0208333333333333
144
0.0
144
0.0
144
0.0
144
0.0
144
0.0208333333333333
144
0.0
144
0.0
144
0.0
144
0.0
144
1.0
144
0.0
144
0.0
144
0.0
144
0.0
144
1.0
147
0.0208333333333333
147
0.0
147
0.0
147
0.0
147
0.0
147
0.0208333333333333
147
0.0
147
0.0
147
0.0
147
0.0
147
1.0
147
0.0
147
0.0
147
0.0
147
0.0
147
1.0
  0
MATERIAL
  5
212
102
{ACAD_XDICTIONARY
360
213
102
}
102
{ACAD_REACTORS
330
201
102
}
330
201
100
AcDbMaterial
  1
Global
 72
     0
 43
0.0208333333333333
 43
0.0
 43
0.0
 43
0.0
 43
0.0
 43
0.0208333333333333
 43
0.0
 43
0.0
 43
0.0
 43
0.0
 43
1.0
 43
0.0
 43
0.0
 43
0.0
 43
0.0
 43
1.0
 77
     0
 47
0.0208333333333333
 47
0.0
 47
0.0
 47
0.0
 47
0.0
 47
0.0208333333333333
 47
0.0
 47
0.0
 47
0.0
 47
0.0
 47
1.0
 47
0.0
 47
0.0
 47
0.0
 47
0.0
 47
1.0
171
     0
 49
0.0208333333333333
 49
0.0
 49
0.0
 49
0.0
 49
0.0
 49
0.0208333333333333
 49
0.0
 49
0.0
 49
0.0
 49
0.0
 49
1.0
 49
0.0
 49
0.0
 49
0.0
 49
0.0
 49
1.0
175
     0
142
0.0208333333333333
142
0.0
142
0.0
142
0.0
142
0.0
142
0.0208333333333333
142
0.0
142
0.0
142
0.0
142
0.0
142
1.0
142
0.0
142
0.0
142
0.0
142
0.0
142
1.0
179
     0
144
0.0208333333333333
144
0.0
144
0.0
144
0.0
144
0.0
144
0.0208333333333333
144
0.0
144
0.0
144
0.0
144
0.0
144
1.0
144
0.0
144
0.0
144
0.0
144
0.0
144
1.0
147
0.0208333333333333
147
0.0
147
0.0
147
0.0
147
0.0
147
0.0208333333333333
147
0.0
147
0.0
147
0.0
147
0.0
147
1.0
147
0.0
147
0.0
147
0.0
147
0.0
147
1.0
  0
MLEADERSTYLE
  5
25F
102
{ACAD_REACTORS
330
25E
102
}
330
25E
100
AcDbMLeaderStyle
170
     2
171
     1
172
     0
 90
        2
 40
0.0
 41
0.0
173
     1
 91
-1056964608
340
253
 92
       -2
290
     1
 42
0.09
291
     1
 43
0.36
  3
Standard
 44
0.18
300

342
24E
174
     1
178
     6
175
     1
176
     0
 93
-1056964608
 45
0.18
292
     0
297
     0
 46
0.18
 94
-1056964608
 47
1.0
 49
1.0
140
1.0
293
     1
141
0.0
294
     1
177
     0
142
1.0
295
     0
296
     0
143
0.125
1001
ACAD_MLEADERVER
1070
     2
  0
MLINESTYLE
  5
258
102
{ACAD_REACTORS
330
257
102
}
330
257
100
AcDbMlineStyle
  2
STANDARD
 70
     0
  3

 62
   256
 51
90.0
 52
90.0
 71
     2
 49
0.5
 62
   256
  6
BYLAYER
 49
-0.5
 62
   256
  6
BYLAYER
  0
ACDBPLACEHOLDER
  5
200
102
{ACAD_REACTORS
330
1FF
102
}
330
1FF
  0
SCALE
  5
22C
102
{ACAD_REACTORS
330
22B
102
}
330
22B
100
AcDbScale
 70
     0
300
1:1
140
1.0
141
1.0
290
     1
  0
SCALE
  5
22D
102
{ACAD_REACTORS
330
22B
102
}
330
22B
100
AcDbScale
 70
     0
300
1:2
140
1.0
141
2.0
290
     0
  0
SCALE
  5
22E
102
{ACAD_REACTORS
330
22B
102
}
330
22B
100
AcDbScale
 70
     0
300
1:4
140
1.0
141
4.0
290
     0
  0
SCALE
  5
22F
102
{ACAD_REACTORS
330
22B
102
}
330
22B
100
AcDbScale
 70
     0
300
1:5
140
1.0
141
5.0
290
     0
  0
SCALE
  5
230
102
{ACAD_REACTORS
330
22B
102
}
330
22B
100
AcDbScale
 70
     0
300
1:8
140
1.0
141
8.0
290
     0
  0
SCALE
  5
231
102
{ACAD_REACTORS
330
22B
102
}
330
22B
100
AcDbScale
 70
     0
300
1:10
140
1.0
141
10.0
290
     0
  0
SCALE
  5
232
102
{ACAD_REACTORS
330
22B
102
}
330
22B
100
AcDbScale
 70
     0
300
1:16
140
1.0
141
16.0
290
     0
  0
SCALE
  5
233
102
{ACAD_REACTORS
330
22B
102
}
330
22B
100
AcDbScale
 70
     0
300
1:20
140
1.0
141
20.0
290
     0
  0
SCALE
  5
234
102
{ACAD_REACTORS
330
22B
102
}
330
22B
100
AcDbScale
 70
     0
300
1:30
140
1.0
141
30.0
290
     0
  0
SCALE
  5
235
102
{ACAD_REACTORS
330
22B
102
}
330
22B
100
AcDbScale
 70
     0
300
1:40
140
1.0
141
40.0
290
     0
  0
SCALE
  5
236
102
{ACAD_REACTORS
330
22B
102
}
330
22B
100
AcDbScale
 70
     0
300
1:50
140
1.0
141
50.0
290
     0
  0
SCALE
  5
237
102
{ACAD_REACTORS
330
22B
102
}
330
22B
100
AcDbScale
 70
     0
300
1:100
140
1.0
141
100.0
290
     0
  0
SCALE
  5
238
102
{ACAD_REACTORS
330
22B
102
}
330
22B
100
AcDbScale
 70
     0
300
2:1
140
2.0
141
1.0
290
     0
  0
SCALE
  5
239
102
{ACAD_REACTORS
330
22B
102
}
330
22B
100
AcDbScale
 70
     0
300
4:1
140
4.0
141
1.0
290
     0
  0
SCALE
  5
23A
102
{ACAD_REACTORS
330
22B
102
}
330
22B
100
AcDbScale
 70
     0
300
8:1
140
8.0
141
1.0
290
     0
  0
SCALE
  5
23B
102
{ACAD_REACTORS
330
22B
102
}
330
22B
100
AcDbScale
 70
     0
300
10:1
140
10.0
141
1.0
290
     0
  0
SCALE
  5
23C
102
{ACAD_REACTORS
330
22B
102
}
330
22B
100
AcDbScale
 70
     0
300
100:1
140
100.0
141
1.0
290
     0
  0
SCALE
  5
23D
102
{ACAD_REACTORS
330
22B
102
}
330
22B
100
AcDbScale
 70
     0
300
1/128" = 1'-0"
140
0.0078125
141
12.0
290
     0
  0
SCALE
  5
23E
102
{ACAD_REACTORS
330
22B
102
}
330
22B
100
AcDbScale
 70
     0
300
1/64" = 1'-0"
140
0.015625
141
12.0
290
     0
  0
SCALE
  5
23F
102
{ACAD_REACTORS
330
22B
102
}
330
22B
100
AcDbScale
 70
     0
300
1/32" = 1'-0"
140
0.03125
141
12.0
290
     0
  0
SCALE
  5
240
102
{ACAD_REACTORS
330
22B
102
}
330
22B
100
AcDbScale
 70
     0
300
1/16" = 1'-0"
140
0.0625
141
12.0
290
     0
  0
SCALE
  5
241
102
{ACAD_REACTORS
330
22B
102
}
330
22B
100
AcDbScale
 70
     0
300
3/32" = 1'-0"
140
0.09375
141
12.0
290
     0
  0
SCALE
  5
242
102
{ACAD_REACTORS
330
22B
102
}
330
22B
100
AcDbScale
 70
     0
300
1/8" = 1'-0"
140
0.125
141
12.0
290
     0
  0
SCALE
  5
243
102
{ACAD_REACTORS
330
22B
102
}
330
22B
100
AcDbScale
 70
     0
300
3/16" = 1'-0"
140
0.1875
141
12.0
290
     0
  0
SCALE
  5
244
102
{ACAD_REACTORS
330
22B
102
}
330
22B
100
AcDbScale
 70
     0
300
1/4" = 1'-0"
140
0.25
141
12.0
290
     0
  0
SCALE
  5
245
102
{ACAD_REACTORS
330
22B
102
}
330
22B
100
AcDbScale
 70
     0
300
3/8" = 1'-0"
140
0.375
141
12.0
290
     0
  0
SCALE
  5
246
102
{ACAD_REACTORS
330
22B
102
}
330
22B
100
AcDbScale
 70
     0
300
1/2" = 1'-0"
140
0.5
141
12.0
290
     0
  0
SCALE
  5
247
102
{ACAD_REACTORS
330
22B
102
}
330
22B
100
AcDbScale
 70
     0
300
3/4" = 1'-0"
140
0.75
141
12.0
290
     0
  0
SCALE
  5
248
102
{ACAD_REACTORS
330
22B
102
}
330
22B
100
AcDbScale
 70
     0
300
1" = 1'-0"
140
1.0
141
12.0
290
     0
  0
SCALE
  5
249
102
{ACAD_REACTORS
330
22B
102
}
330
22B
100
AcDbScale
 70
     0
300
1-1/2" = 1'-0"
140
1.5
141
12.0
290
     0
  0
SCALE
  5
24A
102
{ACAD_REACTORS
330
22B
102
}
330
22B
100
AcDbScale
 70
     0
300
3" = 1'-0"
140
3.0
141
12.0
290
     0
  0
SCALE
  5
24B
102
{ACAD_REACTORS
330
22B
102
}
330
22B
100
AcDbScale
 70
     0
300
6" = 1'-0"
140
6.0
141
12.0
290
     0
  0
SCALE
  5
24C
102
{ACAD_REACTORS
330
22B
102
}
330
22B
100
AcDbScale
 70
     0
300
1'-0" = 1'-0"
140
12.0
141
12.0
290
     0
  0
TABLESTYLE
  5
25D
102
{ACAD_XDICTIONARY
360
280
102
}
102
{ACAD_REACTORS
330
25C
102
}
330
25C
100
AcDbTableStyle
  3
Standard
 70
     0
 71
     0
 40
0.06
 41
0.06
280
     0
281
     0
  7
STANDARD
140
0.18
170
     2
 62
     0
 63
     7
283
     0
274
    -2
284
     1
 64
     0
275
    -2
285
     1
 65
     0
276
    -2
286
     1
 66
     0
277
    -2
287
     1
 67
     0
278
    -2
288
     1
 68
     0
279
    -2
289
     1
 69
     0
  7
STANDARD
140
0.25
170
     5
 62
     0
 63
     7
283
     0
274
    -2
284
     1
 64
     0
275
    -2
285
     1
 65
     0
276
    -2
286
     1
 66
     0
277
    -2
287
     1
 67
     0
278
    -2
288
     1
 68
     0
279
    -2
289
     1
 69
     0
  7
STANDARD
140
0.18
170
     5
 62
     0
 63
     7
283
     0
274
    -2
284
     1
 64
     0
275
    -2
285
     1
 65
     0
276
    -2
286
     1
 66
     0
277
    -2
287
     1
 67
     0
278
    -2
288
     1
 68
     0
279
    -2
289
     1
 69
     0
  0
VISUALSTYLE
  5
220
102
{ACAD_REACTORS
330
21A
102
}
330
21A
100
AcDbVisualStyle
  2
2dWireframe
 70
     4
 71
     0
 72
     2
 73
     0
 90
        0
 40
-0.6
 41
-30.0
 62
     5
 63
     7
 74
     1
 91
        4
 64
     7
 65
   257
 75
     1
175
     1
 42
1.0
 92
        0
 66
   257
 43
1.0
 76
     1
 77
     6
 78
     2
 67
     7
 79
     5
170
     0
171
     0
290
     0
174
     0
 93
        1
 44
0.0
173
     0
291
     0
 45
0.0
1001
ACAD
1000
AcDbSavedByObjectVersion
1070
     0
  0
VISUALSTYLE
  5
222
102
{ACAD_REACTORS
330
21A
102
}
330
21A
100
AcDbVisualStyle
  2
3D Hidden
 70
     6
 71
     1
 72
     2
 73
     2
 90
        0
 40
-0.6
 41
-30.0
 62
     5
 63
     7
 74
     2
 91
        2
 64
     7
 65
   257
 75
     2
175
     1
 42
40.0
 92
        0
 66
   257
 43
1.0
 76
     1
 77
     6
 78
     2
 67
     7
 79
     3
170
     0
171
     0
290
     0
174
     0
 93
        1
 44
0.0
173
     0
291
     0
 45
0.0
1001
ACAD
1000
AcDbSavedByObjectVersion
1070
     0
  0
VISUALSTYLE
  5
221
102
{ACAD_REACTORS
330
21A
102
}
330
21A
100
AcDbVisualStyle
  2
3dWireframe
 70
     5
 71
     0
 72
     2
 73
     0
 90
        0
 40
-0.6
 41
-30.0
 62
     5
 63
     7
 74
     1
 91
        4
 64
     7
 65
   257
 75
     1
175
     1
 42
1.0
 92
        0
 66
   257
 43
1.0
 76
     1
 77
     6
 78
     2
 67
     7
 79
     5
170
     0
171
     0
290
     0
174
     0
 93
        1
 44
0.0
173
     0
291
     0
 45
0.0
1001
ACAD
1000
AcDbSavedByObjectVersion
1070
     0
  0
VISUALSTYLE
  5
21F
102
{ACAD_REACTORS
330
21A
102
}
330
21A
100
AcDbVisualStyle
  2
Basic
 70
     7
 71
     1
 72
     0
 73
     1
 90
        0
 40
-0.6
 41
-30.0
 62
     5
 63
     7
 74
     0
 91
        4
 64
     7
 65
   257
 75
     1
175
     1
 42
1.0
 92
        8
 66
     7
 43
1.0
 76
     1
 77
     6
 78
     2
 67
     7
 79
     5
170
     0
171
     0
290
     0
174
     0
 93
        1
 44
0.0
173
     0
291
     1
 45
0.0
1001
ACAD
1000
AcDbSavedByObjectVersion
1070
     0
  0
VISUALSTYLE
  5
226
102
{ACAD_REACTORS
330
21A
102
}
330
21A
100
AcDbVisualStyle
  2
Brighten
 70
    12
 71
     2
 72
     2
 73
     0
 90
        0
 40
-0.6
 41
-30.0
 62
     5
 63
     7
 74
     1
 91
        4
 64
     7
 65
   257
 75
     1
175
     1
 42
1.0
 92
        8
 66
     7
 43
1.0
 76
     1
 77
     6
 78
     2
 67
     7
 79
     5
170
     0
171
     0
290
     0
174
     0
 93
        1
 44
50.0
173
     0
291
     1
 45
0.0
1001
ACAD
1000
AcDbSavedByObjectVersion
1070
     0
  0
VISUALSTYLE
  5
22A
102
{ACAD_REACTORS
330
21A
102
}
330
21A
100
AcDbVisualStyle
  2
ColorChange
 70
    16
 71
     2
 72
     2
 73
     3
 90
        0
 40
-0.6
 41
-30.0
 62
     5
 63
     8
 74
     1
 91
        4
 64
     7
 65
   257
 75
     1
175
     1
 42
1.0
 92
        8
 66
     8
 43
1.0
 76
     1
 77
     6
 78
     2
 67
     7
 79
     5
170
     0
171
     0
290
     0
174
     0
 93
        1
 44
0.0
173
     0
291
     1
 45
0.0
1001
ACAD
1000
AcDbSavedByObjectVersion
1070
     0
  0
VISUALSTYLE
  5
223
102
{ACAD_REACTORS
330
21A
102
}
330
21A
100
AcDbVisualStyle
  2
Conceptual
 70
     9
 71
     3
 72
     2
 73
     0
 90
        0
 40
-0.6
 41
-30.0
 62
     5
 63
     7
 74
     2
 91
        2
 64
     7
 65
   257
 75
     1
175
     1
 42
40.0
 92
        8
 66
     7
 43
1.0
 76
     1
 77
     6
 78
     2
 67
     7
 79
     3
170
     0
171
     0
290
     0
174
     0
 93
        1
 44
0.0
173
     0
291
     0
 45
0.0
1001
ACAD
1000
AcDbSavedByObjectVersion
1070
     0
  0
VISUALSTYLE
  5
225
102
{ACAD_REACTORS
330
21A
102
}
330
21A
100
AcDbVisualStyle
  2
Dim
 70
    11
 71
     2
 72
     2
 73
     0
 90
        0
 40
-0.6
 41
-30.0
 62
     5
 63
     7
 74
     1
 91
        4
 64
     7
 65
   257
 75
     1
175
     1
 42
1.0
 92
        8
 66
     7
 43
1.0
 76
     1
 77
     6
 78
     2
 67
     7
 79
     5
170
     0
171
     0
290
     0
174
     0
 93
        1
 44
-50.0
173
     0
291
     1
 45
0.0
1001
ACAD
1000
AcDbSavedByObjectVersion
1070
     0
  0
VISUALSTYLE
  5
229
102
{ACAD_REACTORS
330
21A
102
}
330
21A
100
AcDbVisualStyle
  2
Facepattern
 70
    15
 71
     2
 72
     2
 73
     0
 90
        0
 40
-0.6
 41
-30.0
 62
     5
 63
     7
 74
     1
 91
        4
 64
     7
 65
   257
 75
     1
175
     1
 42
1.0
 92
        8
 66
     7
 43
1.0
 76
     1
 77
     6
 78
     2
 67
     7
 79
     5
170
     0
171
     0
290
     0
174
     0
 93
        1
 44
0.0
173
     0
291
     1
 45
0.0
1001
ACAD
1000
AcDbSavedByObjectVersion
1070
     0
  0
VISUALSTYLE
  5
21B
102
{ACAD_REACTORS
330
21A
102
}
330
21A
100
AcDbVisualStyle
  2
Flat
 70
     0
 71
     2
 72
     1
 73
     1
 90
        2
 40
-0.6
 41
30.0
 62
     5
 63
     7
 74
     0
 91
        4
 64
     7
 65
   257
 75
     1
175
     1
 42
1.0
 92
        8
 66
     7
 43
1.0
 76
     1
 77
     6
 78
     2
 67
     7
 79
     5
170
     0
171
     0
290
     0
174
     0
 93
       13
 44
0.0
173
     0
291
     1
 45
0.0
1001
ACAD
1000
AcDbSavedByObjectVersion
1070
     0
  0
VISUALSTYLE
  5
21C
102
{ACAD_REACTORS
330
21A
102
}
330
21A
100
AcDbVisualStyle
  2
FlatWithEdges
 70
     1
 71
     2
 72
     1
 73
     1
 90
        2
 40
-0.6
 41
30.0
 62
     5
 63
     7
 74
     1
 91
        4
 64
     7
 65
   257
 75
     1
175
     1
 42
1.0
 92
        0
 66
   257
 43
1.0
 76
     1
 77
     6
 78
     2
 67
     7
 79
     5
170
     0
171
     0
290
     0
174
     0
 93
       13
 44
0.0
173
     0
291
     1
 45
0.0
1001
ACAD
1000
AcDbSavedByObjectVersion
1070
     0
  0
VISUALSTYLE
  5
21D
102
{ACAD_REACTORS
330
21A
102
}
330
21A
100
AcDbVisualStyle
  2
Gouraud
 70
     2
 71
     2
 72
     2
 73
     1
 90
        2
 40
-0.6
 41
30.0
 62
     5
 63
     7
 74
     0
 91
        4
 64
     7
 65
   257
 75
     1
175
     1
 42
1.0
 92
        0
 66
     7
 43
1.0
 76
     1
 77
     6
 78
     2
 67
     7
 79
     5
170
     0
171
     0
290
     0
174
     0
 93
       13
 44
0.0
173
     0
291
     1
 45
0.0
1001
ACAD
1000
AcDbSavedByObjectVersion
1070
     0
  0
VISUALSTYLE
  5
21E
102
{ACAD_REACTORS
330
21A
102
}
330
21A
100
AcDbVisualStyle
  2
GouraudWithEdges
 70
     3
 71
     2
 72
     2
 73
     1
 90
        2
 40
-0.6
 41
30.0
 62
     5
 63
     7
 74
     1
 91
        4
 64
     7
 65
   257
 75
     1
175
     1
 42
1.0
 92
        0
 66
   257
 43
1.0
 76
     1
 77
     6
 78
     2
 67
     7
 79
     5
170
     0
171
     0
290
     0
174
     0
 93
       13
 44
0.0
173
     0
291
     1
 45
0.0
1001
ACAD
1000
AcDbSavedByObjectVersion
1070
     0
  0
VISUALSTYLE
  5
228
102
{ACAD_REACTORS
330
21A
102
}
330
21A
100
AcDbVisualStyle
  2
Linepattern
 70
    14
 71
     2
 72
     2
 73
     0
 90
        0
 40
-0.6
 41
-30.0
 62
     5
 63
     7
 74
     1
 91
        4
 64
     7
 65
   257
 75
     7
175
     7
 42
1.0
 92
        8
 66
     7
 43
1.0
 76
     1
 77
     6
 78
     2
 67
     7
 79
     5
170
     0
171
     0
290
     0
174
     0
 93
        1
 44
0.0
173
     0
291
     1
 45
0.0
1001
ACAD
1000
AcDbSavedByObjectVersion
1070
     0
  0
VISUALSTYLE
  5
224
102
{ACAD_REACTORS
330
21A
102
}
330
21A
100
AcDbVisualStyle
  2
Realistic
 70
     8
 71
     2
 72
     2
 73
     0
 90
        0
 40
-0.6
 41
-30.0
 62
     5
 63
     7
 74
     1
 91
        0
 64
     7
 65
   257
 75
     1
175
     1
 42
1.0
 92
        8
 66
     8
 43
1.0
 76
     1
 77
     6
 78
     2
 67
     7
 79
     5
170
     0
171
     0
290
     0
174
     0
 93
       13
 44
0.0
173
     0
291
     0
 45
0.0
1001
ACAD
1000
AcDbSavedByObjectVersion
1070
     0
  0
VISUALSTYLE
  5
227
102
{ACAD_REACTORS
330
21A
102
}
330
21A
100
AcDbVisualStyle
  2
Thicken
 70
    13
 71
     2
 72
     2
 73
     0
 90
        0
 40
-0.6
 41
-30.0
 62
     5
 63
     7
 74
     1
 91
        4
 64
     7
 65
   257
 75
     1
175
     1
 42
1.0
 92
       12
 66
     7
 43
1.0
 76
     1
 77
     6
 78
     2
 67
     7
 79
     5
170
     0
171
     0
290
     0
174
     0
 93
        1
 44
0.0
173
     0
291
     1
 45
0.0
1001
ACAD
1000
AcDbSavedByObjectVersion
1070
     0
  0
DICTIONARYVAR
  5
27C
102
{ACAD_REACTORS
330
279
102
}
330
279
100
DictionaryVariables
280
     0
  1
1:1
  0
DICTIONARYVAR
  5
27B
102
{ACAD_REACTORS
330
279
102
}
330
279
100
DictionaryVariables
280
     0
  1
STANDARD
  0
DICTIONARYVAR
  5
27A
102
{ACAD_REACTORS
330
279
102
}
330
279
100
DictionaryVariables
280
     0
  1
STANDARD
  0
DICTIONARYVAR
  5
27F
102
{ACAD_REACTORS
330
279
102
}
330
279
100
DictionaryVariables
280
     0
  1
1
  0
DICTIONARYVAR
  5
27E
102
{ACAD_REACTORS
330
279
102
}
330
279
100
DictionaryVariables
280
     0
  1
0
  0
DICTIONARYVAR
  5
27D
102
{ACAD_REACTORS
330
279
102
}
330
279
100
DictionaryVariables
280
     0
  1
127
  0
DICTIONARY
  5
28A
330
268
100
AcDbDictionary
280
     1
281
     1
  3
ACAD_XREC_ROUNDTRIP
360
28B
  0
DICTIONARY
  5
288
330
264
100
AcDbDictionary
280
     1
281
     1
  3
ACAD_XREC_ROUNDTRIP
360
289
  0
DICTIONARY
  5
20B
330
20A
100
AcDbDictionary
280
     1
281
     1
  3
ACAD_XREC_ROUNDTRIP
360
285
  3
BUMPTILE
360
20D
  3
DIFFUSETILE
360
20C
  3
OPACITYTILE
360
210
  3
REFLECTIONTILE
360
20F
  3
REFRACTIONTILE
360
211
  3
SPECULARTILE
360
20E
  0
DICTIONARY
  5
203
330
202
100
AcDbDictionary
280
     1
281
     1
  3
ACAD_XREC_ROUNDTRIP
360
284
  3
BUMPTILE
360
205
  3
DIFFUSETILE
360
204
  3
OPACITYTILE
360
208
  3
REFLECTIONTILE
360
207
  3
REFRACTIONTILE
360
209
  3
SPECULARTILE
360
206
  0
DICTIONARY
  5
213
330
212
100
AcDbDictionary
280
     1
281
     1
  3
ACAD_XREC_ROUNDTRIP
360
286
  3
BUMPTILE
360
215
  3
DIFFUSETILE
360
214
  3
OPACITYTILE
360
218
  3
REFLECTIONTILE
360
217
  3
REFRACTIONTILE
360
219
  3
SPECULARTILE
360
216
  0
DICTIONARY
  5
280
330
25D
100
AcDbDictionary
280
     1
281
     1
  3
ACAD_ROUNDTRIP_2008_TABLESTYLE_CELLSTYLEMAP
360
281
  3
ACAD_XREC_ROUNDTRIP
360
287
  0
XRECORD
  5
28B
102
{ACAD_REACTORS
330
28A
102
}
330
28A
100
AcDbXrecord
280
     1
102
SHADEPLOT
 70
     0
102
SHADEPLOTRESLEVEL
 70
     2
102
SHADEPLOTCUSTOMDPI
 70
   300
  0
XRECORD
  5
289
102
{ACAD_REACTORS
330
288
102
}
330
288
100
AcDbXrecord
280
     1
102
SHADEPLOT
 70
     0
102
SHADEPLOTRESLEVEL
 70
     2
102
SHADEPLOTCUSTOMDPI
 70
   300
  0
XRECORD
  5
285
102
{ACAD_REACTORS
330
20B
102
}
330
20B
100
AcDbXrecord
280
     1
102
MATERIAL
148
0.0
149
0.0
149
0.0
 93
        0
 94
      127
282
     0
 72
     0
 77
     0
171
     0
175
     0
179
     0
273
     0
  0
XRECORD
  5
20D
102
{ACAD_REACTORS
330
20B
102
}
330
20B
100
AcDbXrecord
280
     1
270
     1
271
     1
  0
XRECORD
  5
20C
102
{ACAD_REACTORS
330
20B
102
}
330
20B
100
AcDbXrecord
280
     1
270
     1
271
     1
  0
XRECORD
  5
210
102
{ACAD_REACTORS
330
20B
102
}
330
20B
100
AcDbXrecord
280
     1
270
     1
271
     1
  0
XRECORD
  5
20F
102
{ACAD_REACTORS
330
20B
102
}
330
20B
100
AcDbXrecord
280
     1
270
     1
271
     1
  0
XRECORD
  5
211
102
{ACAD_REACTORS
330
20B
102
}
330
20B
100
AcDbXrecord
280
     1
270
     1
271
     1
  0
XRECORD
  5
20E
102
{ACAD_REACTORS
330
20B
102
}
330
20B
100
AcDbXrecord
280
     1
270
     1
271
     1
  0
XRECORD
  5
284
102
{ACAD_REACTORS
330
203
102
}
330
203
100
AcDbXrecord
280
     1
102
MATERIAL
148
0.0
149
0.0
149
0.0
 93
        0
 94
      127
282
     0
 72
     0
 77
     0
171
     0
175
     0
179
     0
273
     0
  0
XRECORD
  5
205
102
{ACAD_REACTORS
330
203
102
}
330
203
100
AcDbXrecord
280
     1
270
     1
271
     1
  0
XRECORD
  5
204
102
{ACAD_REACTORS
330
203
102
}
330
203
100
AcDbXrecord
280
     1
270
     1
271
     1
  0
XRECORD
  5
208
102
{ACAD_REACTORS
330
203
102
}
330
203
100
AcDbXrecord
280
     1
270
     1
271
     1
  0
XRECORD
  5
207
102
{ACAD_REACTORS
330
203
102
}
330
203
100
AcDbXrecord
280
     1
270
     1
271
     1
  0
XRECORD
  5
209
102
{ACAD_REACTORS
330
203
102
}
330
203
100
AcDbXrecord
280
     1
270
     1
271
     1
  0
XRECORD
  5
206
102
{ACAD_REACTORS
330
203
102
}
330
203
100
AcDbXrecord
280
     1
270
     1
271
     1
  0
XRECORD
  5
286
102
{ACAD_REACTORS
330
213
102
}
330
213
100
AcDbXrecord
280
     1
102
MATERIAL
148
0.0
149
0.0
149
0.0
 93
        0
 94
      127
282
     0
 72
     0
 77
     0
171
     0
175
     0
179
     0
273
     0
  0
XRECORD
  5
215
102
{ACAD_REACTORS
330
213
102
}
330
213
100
AcDbXrecord
280
     1
270
     1
271
     1
  0
XRECORD
  5
214
102
{ACAD_REACTORS
330
213
102
}
330
213
100
AcDbXrecord
280
     1
270
     1
271
     1
  0
XRECORD
  5
218
102
{ACAD_REACTORS
330
213
102
}
330
213
100
AcDbXrecord
280
     1
270
     1
271
     1
  0
XRECORD
  5
217
102
{ACAD_REACTORS
330
213
102
}
330
213
100
AcDbXrecord
280
     1
270
     1
271
     1
  0
XRECORD
  5
219
102
{ACAD_REACTORS
330
213
102
}
330
213
100
AcDbXrecord
280
     1
270
     1
271
     1
  0
XRECORD
  5
216
102
{ACAD_REACTORS
330
213
102
}
330
213
100
AcDbXrecord
280
     1
270
     1
271
     1
  0
CELLSTYLEMAP
  5
281
102
{ACAD_REACTORS
330
280
102
}
330
280
100
AcDbCellStyleMap
 90
        3
300
CELLSTYLE
  1
TABLEFORMAT_BEGIN
 90
        5
170
     1
 91
        0
 92
    32768
 62
   257
 93
        1
300
CONTENTFORMAT
  1
CONTENTFORMAT_BEGIN
 90
        0
 91
        0
 92
      512
 93
        0
300

 40
0.0
140
1.0
 94
        5
 62
     0
340
24E
144
0.25
309
CONTENTFORMAT_END
171
     0
 94
        0
309
TABLEFORMAT_END
  1
CELLSTYLE_BEGIN
 90
        1
 91
        1
300
_TITLE
309
CELLSTYLE_END
300
CELLSTYLE
  1
TABLEFORMAT_BEGIN
 90
        5
170
     1
 91
        0
 92
        0
 62
   257
 93
        1
300
CONTENTFORMAT
  1
CONTENTFORMAT_BEGIN
 90
        0
 91
        0
 92
      512
 93
        0
300

 40
0.0
140
1.0
 94
        5
 62
     0
340
24E
144
0.18
309
CONTENTFORMAT_END
171
     0
 94
        0
309
TABLEFORMAT_END
  1
CELLSTYLE_BEGIN
 90
        2
 91
        1
300
_HEADER
309
CELLSTYLE_END
300
CELLSTYLE
  1
TABLEFORMAT_BEGIN
 90
        5
170
     1
 91
        0
 92
        0
 62
   257
 93
        1
300
CONTENTFORMAT
  1
CONTENTFORMAT_BEGIN
 90
        0
 91
        0
 92
      512
 93
        0
300

 40
0.0
140
1.0
 94
        2
 62
     0
340
24E
144
0.18
309
CONTENTFORMAT_END
171
     0
 94
        0
309
TABLEFORMAT_END
  1
CELLSTYLE_BEGIN
 90
        3
 91
        2
300
_DATA
309
CELLSTYLE_END
  0
XRECORD
  5
287
102
{ACAD_REACTORS
330
280
102
}
330
280
100
AcDbXrecord
280
     1
102
ACAD_ROUNDTRIP_PRE2007_TABLESTYLE
 90
      512
 91
        0
  1

 92
      512
 93
        0
  2

 94
      512
 95
        0
  3

  0
ENDSEC
  0
EOF
