  0
SECTION
  2
HEADER
  9
$ACADVER
  1
AC1015
  9
$ACADMAINTVER
 70
    20
  9
$DWGCODEPAGE
  3
ANSI_1252
  9
$INSBASE
 10
0.0
 20
0.0
 30
0.0
  9
$EXTMIN
 10
-2900.176988449154
 20
-1707.534132439989
 30
-0.0015258207003583
  9
$EXTMAX
 10
2900.17701545751
 20
1707.534148341668
 30
0.0000000349246037
  9
$LIMMIN
 10
0.0
 20
0.0
  9
$LIMMAX
 10
12.0
 20
9.0
  9
$ORTHOMODE
 70
     0
  9
$REGENMODE
 70
     1
  9
$FILLMODE
 70
     1
  9
$QTEXTMODE
 70
     0
  9
$MIRRTEXT
 70
     1
  9
$LTSCALE
 40
1.0
  9
$ATTMODE
 70
     1
  9
$TEXTSIZE
 40
0.2
  9
$TRACEWID
 40
0.05
  9
$TEXTSTYLE
  7
STANDARD
  9
$CLAYER
  8
0
  9
$CELTYPE
  6
ByLayer
  9
$CECOLOR
 62
   256
  9
$CELTSCALE
 40
1.0
  9
$DISPSILH
 70
     0
  9
$DIMSCALE
 40
1.0
  9
$DIMASZ
 40
0.18
  9
$DIMEXO
 40
0.0625
  9
$DIMDLI
 40
0.38
  9
$DIMRND
 40
0.0
  9
$DIMDLE
 40
0.0
  9
$DIMEXE
 40
0.18
  9
$DIMTP
 40
0.0
  9
$DIMTM
 40
0.0
  9
$DIMTXT
 40
0.18
  9
$DIMCEN
 40
0.09
  9
$DIMTSZ
 40
0.0
  9
$DIMTOL
 70
     0
  9
$DIMLIM
 70
     0
  9
$DIMTIH
 70
     1
  9
$DIMTOH
 70
     1
  9
$DIMSE1
 70
     0
  9
$DIMSE2
 70
     0
  9
$DIMTAD
 70
     0
  9
$DIMZIN
 70
     0
  9
$DIMBLK
  1

  9
$DIMASO
 70
     1
  9
$DIMSHO
 70
     1
  9
$DIMPOST
  1

  9
$DIMAPOST
  1

  9
$DIMALT
 70
     0
  9
$DIMALTD
 70
     2
  9
$DIMALTF
 40
25.4
  9
$DIMLFAC
 40
1.0
  9
$DIMTOFL
 70
     0
  9
$DIMTVP
 40
0.0
  9
$DIMTIX
 70
     0
  9
$DIMSOXD
 70
     0
  9
$DIMSAH
 70
     0
  9
$DIMBLK1
  1

  9
$DIMBLK2
  1

  9
$DIMSTYLE
  2
STANDARD
  9
$DIMCLRD
 70
     0
  9
$DIMCLRE
 70
     0
  9
$DIMCLRT
 70
     0
  9
$DIMTFAC
 40
1.0
  9
$DIMGAP
 40
0.09
  9
$DIMJUST
 70
     0
  9
$DIMSD1
 70
     0
  9
$DIMSD2
 70
     0
  9
$DIMTOLJ
 70
     1
  9
$DIMTZIN
 70
     0
  9
$DIMALTZ
 70
     0
  9
$DIMALTTZ
 70
     0
  9
$DIMUPT
 70
     0
  9
$DIMDEC
 70
     4
  9
$DIMTDEC
 70
     4
  9
$DIMALTU
 70
     2
  9
$DIMALTTD
 70
     2
  9
$DIMTXSTY
  7
STANDARD
  9
$DIMAUNIT
 70
     0
  9
$DIMADEC
 70
     0
  9
$DIMALTRND
 40
0.0
  9
$DIMAZIN
 70
     0
  9
$DIMDSEP
 70
    46
  9
$DIMATFIT
 70
     3
  9
$DIMFRAC
 70
     0
  9
$DIMLDRBLK
  1

  9
$DIMLUNIT
 70
     2
  9
$DIMLWD
 70
    -2
  9
$DIMLWE
 70
    -2
  9
$DIMTMOVE
 70
     0
  9
$LUNITS
 70
     2
  9
$LUPREC
 70
     4
  9
$SKETCHINC
 40
0.1
  9
$FILLETRAD
 40
0.5
  9
$AUNITS
 70
     0
  9
$AUPREC
 70
     0
  9
$MENU
  1
.
  9
$ELEVATION
 40
0.0
  9
$PELEVATION
 40
0.0
  9
$THICKNESS
 40
0.0
  9
$LIMCHECK
 70
     0
  9
$CHAMFERA
 40
0.5
  9
$CHAMFERB
 40
0.5
  9
$CHAMFERC
 40
0.0
  9
$CHAMFERD
 40
0.0
  9
$SKPOLY
 70
     0
  9
$TDCREATE
 40
2454910.500000000
  9
$TDUCREATE
 40
2454910.458333334
  9
$TDUPDATE
 40
2457347.934954861
  9
$TDUUPDATE
 40
2457347.893288195
  9
$TDINDWG
 40
0.0007461690
  9
$TDUSRTIMER
 40
0.0007460532
  9
$USRTIMER
 70
     1
  9
$ANGBASE
 50
0.0
  9
$ANGDIR
 70
     0
  9
$PDMODE
 70
     0
  9
$PDSIZE
 40
0.0
  9
$PLINEWID
 40
0.0
  9
$SPLFRAME
 70
     0
  9
$SPLINETYPE
 70
     6
  9
$SPLINESEGS
 70
     8
  9
$HANDSEED
  5
1145
  9
$SURFTAB1
 70
     6
  9
$SURFTAB2
 70
     6
  9
$SURFTYPE
 70
     6
  9
$SURFU
 70
     6
  9
$SURFV
 70
     6
  9
$UCSBASE
  2

  9
$UCSNAME
  2

  9
$UCSORG
 10
0.0
 20
0.0
 30
0.0
  9
$UCSXDIR
 10
1.0
 20
0.0
 30
0.0
  9
$UCSYDIR
 10
0.0
 20
1.0
 30
0.0
  9
$UCSORTHOREF
  2

  9
$UCSORTHOVIEW
 70
     0
  9
$UCSORGTOP
 10
0.0
 20
0.0
 30
0.0
  9
$UCSORGBOTTOM
 10
0.0
 20
0.0
 30
0.0
  9
$UCSORGLEFT
 10
0.0
 20
0.0
 30
0.0
  9
$UCSORGRIGHT
 10
0.0
 20
0.0
 30
0.0
  9
$UCSORGFRONT
 10
0.0
 20
0.0
 30
0.0
  9
$UCSORGBACK
 10
0.0
 20
0.0
 30
0.0
  9
$PUCSBASE
  2

  9
$PUCSNAME
  2

  9
$PUCSORG
 10
0.0
 20
0.0
 30
0.0
  9
$PUCSXDIR
 10
1.0
 20
0.0
 30
0.0
  9
$PUCSYDIR
 10
0.0
 20
1.0
 30
0.0
  9
$PUCSORTHOREF
  2

  9
$PUCSORTHOVIEW
 70
     0
  9
$PUCSORGTOP
 10
0.0
 20
0.0
 30
0.0
  9
$PUCSORGBOTTOM
 10
0.0
 20
0.0
 30
0.0
  9
$PUCSORGLEFT
 10
0.0
 20
0.0
 30
0.0
  9
$PUCSORGRIGHT
 10
0.0
 20
0.0
 30
0.0
  9
$PUCSORGFRONT
 10
0.0
 20
0.0
 30
0.0
  9
$PUCSORGBACK
 10
0.0
 20
0.0
 30
0.0
  9
$USERI1
 70
     0
  9
$USERI2
 70
     0
  9
$USERI3
 70
     0
  9
$USERI4
 70
     0
  9
$USERI5
 70
     0
  9
$USERR1
 40
0.0
  9
$USERR2
 40
0.0
  9
$USERR3
 40
0.0
  9
$USERR4
 40
0.0
  9
$USERR5
 40
0.0
  9
$WORLDVIEW
 70
     1
  9
$SHADEDGE
 70
     3
  9
$SHADEDIF
 70
    70
  9
$TILEMODE
 70
     1
  9
$MAXACTVP
 70
    64
  9
$PINSBASE
 10
0.0
 20
0.0
 30
0.0
  9
$PLIMCHECK
 70
     0
  9
$PEXTMIN
 10
1.000000000000000E+20
 20
1.000000000000000E+20
 30
1.000000000000000E+20
  9
$PEXTMAX
 10
-1.000000000000000E+20
 20
-1.000000000000000E+20
 30
-1.000000000000000E+20
  9
$PLIMMIN
 10
0.0
 20
0.0
  9
$PLIMMAX
 10
12.0
 20
9.0
  9
$UNITMODE
 70
     0
  9
$VISRETAIN
 70
     1
  9
$PLINEGEN
 70
     0
  9
$PSLTSCALE
 70
     1
  9
$TREEDEPTH
 70
  3020
  9
$CMLSTYLE
  2
Standard
  9
$CMLJUST
 70
     0
  9
$CMLSCALE
 40
1.0
  9
$PROXYGRAPHICS
 70
     1
  9
$MEASUREMENT
 70
     0
  9
$CELWEIGHT
370
    -1
  9
$ENDCAPS
280
     0
  9
$JOINSTYLE
280
     0
  9
$LWDISPLAY
290
     0
  9
$INSUNITS
 70
     0
  9
$HYPERLINKBASE
  1

  9
$STYLESHEET
  1

  9
$XEDIT
290
     1
  9
$CEPSNTYPE
380
     0
  9
$PSTYLEMODE
290
     1
  9
$FINGERPRINTGUID
  2
{F9614801-08AE-4FDE-8542-532643F79C86}
  9
$VERSIONGUID
  2
{E362F7F4-B52E-4FA4-B878-1335C13CA2F9}
  9
$EXTNAMES
290
     1
  9
$PSVPSCALE
 40
0.0
  9
$OLESTARTUP
290
     0
  0
ENDSEC
  0
SECTION
  2
CLASSES
  0
CLASS
  1
ACDBDICTIONARYWDFLT
  2
AcDbDictionaryWithDefault
  3
ObjectDBX Classes
 90
        0
280
     0
281
     0
  0
CLASS
  1
MATERIAL
  2
AcDbMaterial
  3
ObjectDBX Classes
 90
     1153
280
     0
281
     0
  0
CLASS
  1
VISUALSTYLE
  2
AcDbVisualStyle
  3
ObjectDBX Classes
 90
     4095
280
     0
281
     0
  0
CLASS
  1
SCALE
  2
AcDbScale
  3
ObjectDBX Classes
 90
     1153
280
     0
281
     0
  0
CLASS
  1
TABLESTYLE
  2
AcDbTableStyle
  3
ObjectDBX Classes
 90
     4095
280
     0
281
     0
  0
CLASS
  1
MLEADERSTYLE
  2
AcDbMLeaderStyle
  3
ACDB_MLEADERSTYLE_CLASS
 90
     4095
280
     0
281
     0
  0
CLASS
  1
DICTIONARYVAR
  2
AcDbDictionaryVar
  3
ObjectDBX Classes
 90
        0
280
     0
281
     0
  0
CLASS
  1
CELLSTYLEMAP
  2
AcDbCellStyleMap
  3
ObjectDBX Classes
 90
     1152
280
     0
281
     0
  0
CLASS
  1
ACDBPLACEHOLDER
  2
AcDbPlaceHolder
  3
ObjectDBX Classes
 90
        0
280
     0
281
     0
  0
CLASS
  1
LAYOUT
  2
AcDbLayout
  3
ObjectDBX Classes
 90
        0
280
     0
281
     0
  0
ENDSEC
  0
SECTION
  2
TABLES
  0
TABLE
  2
VPORT
  5
10B5
330
0
100
AcDbSymbolTable
 70
     1
  0
VPORT
  5
1125
330
10B5
100
AcDbSymbolTableRecord
100
AcDbViewportTableRecord
  2
*ACTIVE
 70
     0
 10
0.0
 20
0.0
 11
1.0
 21
1.0
 12
618.0992613899052
 22
-699.4426265139083
 13
0.0
 23
0.0
 14
0.5
 24
0.5
 15
0.5
 25
0.5
 16
0.0
 26
0.0
 36
1.0
 17
0.0
 27
0.0
 37
0.0
 40
3873.656479248643
 41
2.515936254980079
 42
50.0
 43
0.0
 44
0.0
 50
0.0
 51
0.0
 71
     0
 72
   100
 73
     1
 74
     3
 75
     0
 76
     0
 77
     0
 78
     0
281
     0
 65
     1
110
0.0
120
0.0
130
0.0
111
1.0
121
0.0
131
0.0
112
0.0
122
1.0
132
0.0
 79
     0
146
0.0
  0
ENDTAB
  0
TABLE
  2
LTYPE
  5
10B2
330
0
100
AcDbSymbolTable
 70
     2
  0
LTYPE
  5
110F
330
10B2
100
AcDbSymbolTableRecord
100
AcDbLinetypeTableRecord
  2
ByBlock
 70
     0
  3

 72
    65
 73
     0
 40
0.0
  0
LTYPE
  5
1110
330
10B2
100
AcDbSymbolTableRecord
100
AcDbLinetypeTableRecord
  2
ByLayer
 70
     0
  3

 72
    65
 73
     0
 40
0.0
  0
LTYPE
  5
1111
330
10B2
100
AcDbSymbolTableRecord
100
AcDbLinetypeTableRecord
  2
CONTINUOUS
 70
     0
  3
Solid line
 72
    65
 73
     0
 40
0.0
  0
LTYPE
  5
1126
330
10B2
100
AcDbSymbolTableRecord
100
AcDbLinetypeTableRecord
  2
CONTINUOUS2
 70
     0
  3
Solid Line
 72
    65
 73
     0
 40
0.0
  0
ENDTAB
  0
TABLE
  2
LAYER
  5
10AF
330
0
100
AcDbSymbolTable
 70
     2
  0
LAYER
  5
1109
102
{ACAD_XDICTIONARY
360
112E
102
}
330
10AF
100
AcDbSymbolTableRecord
100
AcDbLayerTableRecord
  2
0
 70
     0
 62
     7
  6
CONTINUOUS
370
    -3
390
10BC
  0
LAYER
  5
1127
102
{ACAD_XDICTIONARY
360
1130
102
}
330
10AF
100
AcDbSymbolTableRecord
100
AcDbLayerTableRecord
  2
LAYER_1
 70
     0
 62
    18
  6
CONTINUOUS
370
    -3
390
10BC
  0
ENDTAB
  0
TABLE
  2
STYLE
  5
10B0
330
0
100
AcDbSymbolTable
 70
     2
  0
STYLE
  5
110A
330
10B0
100
AcDbSymbolTableRecord
100
AcDbTextStyleTableRecord
  2
STANDARD
 70
     0
 40
0.0
 41
1.0
 50
0.0
 71
     0
 42
0.2
  3
txt
  4

  0
STYLE
  5
110E
330
10B0
100
AcDbSymbolTableRecord
100
AcDbTextStyleTableRecord
  2
Annotative
 70
     0
 40
0.0
 41
1.0
 50
0.0
 71
     0
 42
0.2
  3
txt
  4

1001
AcadAnnotative
1000
AnnotativeData
1002
{
1070
     1
1070
     1
1002
}
  0
ENDTAB
  0
TABLE
  2
VIEW
  5
10B3
330
0
100
AcDbSymbolTable
 70
     0
  0
ENDTAB
  0
TABLE
  2
UCS
  5
10B4
330
0
100
AcDbSymbolTable
 70
     0
  0
ENDTAB
  0
TABLE
  2
APPID
  5
10B6
330
0
100
AcDbSymbolTable
 70
     3
  0
APPID
  5
110B
330
10B6
100
AcDbSymbolTableRecord
100
AcDbRegAppTableRecord
  2
ACAD
 70
     0
  0
APPID
  5
1112
330
10B6
100
AcDbSymbolTableRecord
100
AcDbRegAppTableRecord
  2
AcadAnnotative
 70
     0
  0
APPID
  5
111C
330
10B6
100
AcDbSymbolTableRecord
100
AcDbRegAppTableRecord
  2
ACAD_MLEADERVER
 70
     0
  0
ENDTAB
  0
TABLE
  2
DIMSTYLE
  5
10B7
330
0
100
AcDbSymbolTable
 70
     2
100
AcDbDimStyleTable
 71
     0
  0
DIMSTYLE
105
110C
330
10B7
100
AcDbSymbolTableRecord
100
AcDbDimStyleTableRecord
  2
STANDARD
 70
     0
279
     2
340
110A
  0
DIMSTYLE
105
110D
330
10B7
100
AcDbSymbolTableRecord
100
AcDbDimStyleTableRecord
  2
Annotative
 70
     0
340
110A
1001
AcadAnnotative
1000
AnnotativeData
1002
{
1070
     1
1070
     1
1002
}
  0
ENDTAB
  0
TABLE
  2
BLOCK_RECORD
  5
10AE
330
0
100
AcDbSymbolTable
 70
     2
  0
BLOCK_RECORD
  5
1121
330
10AE
100
AcDbSymbolTableRecord
100
AcDbBlockTableRecord
  2
*Model_Space
340
1124
  0
BLOCK_RECORD
  5
111D
330
10AE
100
AcDbSymbolTableRecord
100
AcDbBlockTableRecord
  2
*Paper_Space
340
1120
  0
BLOCK_RECORD
  5
1129
330
10AE
100
AcDbSymbolTableRecord
100
AcDbBlockTableRecord
  2
$MODEL_SPACE
340
0
  0
BLOCK_RECORD
  5
112B
330
10AE
100
AcDbSymbolTableRecord
100
AcDbBlockTableRecord
  2
$PAPER_SPACE
340
0
  0
ENDTAB
  0
ENDSEC
  0
SECTION
  2
BLOCKS
  0
BLOCK
  5
1122
330
1121
100
AcDbEntity
  8
0
100
AcDbBlockBegin
  2
*Model_Space
 70
     0
 10
0.0
 20
0.0
 30
0.0
  3
*Model_Space
  1

  0
ENDBLK
  5
1123
330
1121
100
AcDbEntity
  8
0
100
AcDbBlockEnd
  0
BLOCK
  5
111E
330
111D
100
AcDbEntity
 67
     1
  8
0
100
AcDbBlockBegin
  2
*Paper_Space
 70
     0
 10
0.0
 20
0.0
 30
0.0
  3
*Paper_Space
  1

  0
ENDBLK
  5
111F
330
111D
100
AcDbEntity
 67
     1
  8
0
100
AcDbBlockEnd
  0
BLOCK
  5
112A
330
1129
100
AcDbEntity
  8
0
100
AcDbBlockBegin
  2
$MODEL_SPACE
 70
     0
 10
0.0
 20
0.0
 30
0.0
  3
$MODEL_SPACE
  1

  0
ENDBLK
  5
21
330
1129
100
AcDbEntity
  8
0
100
AcDbBlockEnd
  0
BLOCK
  5
112C
330
112B
100
AcDbEntity
  8
0
100
AcDbBlockBegin
  2
$PAPER_SPACE
 70
     0
 10
0.0
 20
0.0
 30
0.0
  3
$PAPER_SPACE
  1

  0
ENDBLK
  5
1D
330
112B
100
AcDbEntity
  8
0
100
AcDbBlockEnd
  0
ENDSEC
  0
SECTION
  2
ENTITIES
  0
LWPOLYLINE
  5
41
330
1121
100
AcDbEntity
  8
LAYER_1
100
AcDbPolyline
 90
        4
 70
     1
 43
0.0
 10
-2900.0
 20
-605.0
 10
2900.0
 20
-605.0
 10
2900.0
 20
605.0
 10
-2900.0
 20
605.0
  0
LWPOLYLINE
  5
42
330
1121
100
AcDbEntity
  8
LAYER_1
100
AcDbPolyline
 90
       13
 70
     1
 43
0.0
 10
-2879.850198966466
 20
-431.9589871955
 10
-2868.314123599369
 20
-433.1528261418366
 10
-2843.000315252909
 20
-459.7753233937113
 10
-2728.113969248876
 20
-417.5610385355378
 10
-2691.154917303996
 20
-277.6709008208178
 10
-2732.607988714143
 20
-208.8800195195022
 10
-2706.077131604437
 20
-139.2743347455592
 10
-2806.826783235253
 20
-139.2743347455593
 10
-2806.826783235253
 20
-80.79643955399985
 10
-2855.691047699889
 20
-15.98671583674518
 10
-2870.798920303529
 20
-15.98671583674548
 10
-2879.850198966466
 20
-27.99162117728012
 10
-2879.850198966466
 20
-418.7176258609881
  0
LWPOLYLINE
  5
43
330
1121
100
AcDbEntity
  8
LAYER_1
100
AcDbPolyline
 90
       13
 70
     1
 43
0.0
 10
-2870.798920303529
 20
18.70569243666147
 10
-2855.691047699889
 20
18.70569243666089
 10
-2806.826783235253
 20
83.51541615391637
 10
-2806.826783235253
 20
141.9933113454741
 10
-2706.077131604437
 20
141.993311345474
 10
-2732.607988714143
 20
211.5989961194171
 10
-2691.154917303997
 20
280.3898774207336
 10
-2728.113969248877
 20
420.2800151354533
 10
-2843.000315252909
 20
462.4942999936263
 10
-2868.314123599367
 20
435.8718027417526
 10
-2879.850198966466
 20
434.6779637954163
 10
-2879.850198966466
 20
421.4366024609038
 10
-2879.850198966466
 20
30.71059777719591
  0
LWPOLYLINE
  5
44
330
1121
100
AcDbEntity
  8
LAYER_1
100
AcDbPolyline
 90
        8
 70
     1
 43
0.0
 10
-2794.83273910347
 20
1.22159009424116
 10
-2749.042818381898
 20
-50.80983709264307
 10
-2749.042818381898
 20
-100.6611552454239
 10
-2568.283208119334
 20
-100.7432032716093
 10
-2473.546477833081
 20
1.221590094240597
 10
-2568.283208119334
 20
103.1863834600869
 10
-2749.042818381898
 20
103.1043354339049
 10
-2749.042818381898
 20
53.25301728111997
  0
LWPOLYLINE
  5
45
330
1121
100
AcDbEntity
  8
LAYER_1
100
AcDbPolyline
 90
        8
 70
     1
 43
0.0
 10
-2386.397042066892
 20
-490.8860307784029
 10
-2340.055129892418
 20
-490.8860307784001
 10
-2290.59653194966
 20
-541.3175850279197
 10
-2241.137934006906
 20
-490.8860307784001
 10
-2194.796021832431
 20
-490.886030778403
 10
-2194.72087485807
 20
-299.0585677447133
 10
-2290.596531949661
 20
-195.8448554482144
 10
-2386.472189041251
 20
-299.0585677447136
  0
LWPOLYLINE
  5
46
330
1121
100
AcDbEntity
  8
LAYER_1
100
AcDbPolyline
 90
        5
 70
     1
 43
0.0
 10
-1830.344570160206
 20
-495.2723395627808
 10
-1808.287525758195
 20
-584.9998885542472
 10
-1627.608634037029
 20
-584.9998885542471
 10
-1605.551589635019
 20
-495.2723395627816
 10
-1717.948079897613
 20
-527.2863651816904
  0
LWPOLYLINE
  5
47
330
1121
100
AcDbEntity
  8
LAYER_1
100
AcDbPolyline
 90
        8
 70
     1
 43
0.0
 10
-1241.100137962794
 20
-490.8860307784022
 10
-1194.758133036062
 20
-490.8860307784001
 10
-1145.298719931742
 20
-541.317354286238
 10
-1095.839306827422
 20
-490.8860307784001
 10
-1049.49730190069
 20
-490.8860307784023
 10
-1049.422154907807
 20
-299.0585204660034
 10
-1145.298719931741
 20
-195.8449885729138
 10
-1241.175284955678
 20
-299.0585204660032
  0
LWPOLYLINE
  5
48
330
1121
100
AcDbEntity
  8
LAYER_1
100
AcDbPolyline
 90
        5
 70
     1
 43
0.0
 10
-685.0458502284652
 20
-495.2723395627813
 10
-662.9888058264551
 20
-584.9998885542471
 10
-482.3099141052877
 20
-584.9998885542476
 10
-460.2528697032767
 20
-495.2723395627796
 10
-572.6493599658708
 20
-527.2863651816903
  0
LWPOLYLINE
  5
49
330
1121
100
AcDbEntity
  8
LAYER_1
100
AcDbPolyline
 90
        8
 70
     1
 43
0.0
 10
-95.80141803105325
 20
-490.8860307784017
 10
-49.45941310432172
 20
-490.8860307783999
 10
0.0000000000000017
 20
-541.3173542862439
 10
49.45941310432172
 20
-490.8860307784001
 10
95.80141803105354
 20
-490.886030778402
 10
95.8765650239342
 20
-299.0585204660034
 10
0.000000000000198
 20
-195.8449885729125
 10
-95.87656502393558
 20
-299.0585204660037
  0
LWPOLYLINE
  5
4A
330
1121
100
AcDbEntity
  8
LAYER_1
100
AcDbPolyline
 90
        5
 70
     1
 43
0.0
 10
460.2528697032778
 20
-495.2723395627808
 10
482.3099141052896
 20
-584.9998885542464
 10
662.9888058264549
 20
-584.9998885542464
 10
685.0458502284649
 20
-495.2723395627814
 10
572.6493599658708
 20
-527.2863651816903
  0
LWPOLYLINE
  5
4B
330
1121
100
AcDbEntity
  8
LAYER_1
100
AcDbPolyline
 90
        8
 70
     1
 43
0.0
 10
1049.497301900691
 20
-490.8860307784011
 10
1095.839306827422
 20
-490.8860307784001
 10
1145.298719931742
 20
-541.3173542862377
 10
1194.758133036062
 20
-490.8860307784001
 10
1241.100137962792
 20
-490.8860307784008
 10
1241.175284955678
 20
-299.0585204660034
 10
1145.298719931741
 20
-195.8449885729127
 10
1049.422154907807
 20
-299.0585204660032
  0
LWPOLYLINE
  5
4C
330
1121
100
AcDbEntity
  8
LAYER_1
100
AcDbPolyline
 90
        5
 70
     1
 43
0.0
 10
1605.551589635019
 20
-495.2723395627829
 10
1627.608634037028
 20
-584.9998885542471
 10
1808.287525758196
 20
-584.9998885542471
 10
1830.344570160203
 20
-495.2723395627823
 10
1717.948079897614
 20
-527.2863651816904
  0
LWPOLYLINE
  5
4D
330
1121
100
AcDbEntity
  8
LAYER_1
100
AcDbPolyline
 90
        8
 70
     1
 43
0.0
 10
2194.796021832431
 20
-490.8860307784011
 10
2241.137934006904
 20
-490.8860307784001
 10
2290.596531949661
 20
-541.3175850279217
 10
2340.055129892417
 20
-490.8860307783999
 10
2386.39704206689
 20
-490.8860307784005
 10
2386.472189041251
 20
-299.0585677447133
 10
2290.596531949661
 20
-195.8448554482145
 10
2194.720874858072
 20
-299.058567744714
  0
LWPOLYLINE
  5
4E
330
1121
100
AcDbEntity
  8
LAYER_1
100
AcDbPolyline
 90
        6
 70
     1
 43
0.0
 10
2750.848493739117
 20
-495.2723395627823
 10
2772.905538141126
 20
-584.9998885542472
 10
2879.850198966466
 20
-584.9998885542471
 10
2879.850198966466
 20
-542.1209382177417
 10
2879.850198966465
 20
-524.982735718579
 10
2863.721778550283
 20
-527.4221711384187
  0
LWPOLYLINE
  5
4F
330
1121
100
AcDbEntity
  8
LAYER_1
100
AcDbPolyline
 90
       13
 70
     1
 43
0.0
 10
2843.000315252908
 20
-459.7753233937101
 10
2868.314123599369
 20
-433.1528261418362
 10
2879.850198966466
 20
-431.9589871954992
 10
2879.850198966466
 20
-418.7176258609881
 10
2879.850198966467
 20
-27.99162117727973
 10
2870.798920303529
 20
-15.98671583674529
 10
2855.691047699888
 20
-15.98671583674506
 10
2806.826783235254
 20
-80.79643955400007
 10
2806.826783235252
 20
-139.2743347455593
 10
2706.077131604435
 20
-139.2743347455588
 10
2732.607988714145
 20
-208.8800195195017
 10
2691.154917303997
 20
-277.6709008208178
 10
2728.113969248877
 20
-417.5610385355368
  0
LWPOLYLINE
  5
50
330
1121
100
AcDbEntity
  8
LAYER_1
100
AcDbPolyline
 90
       13
 70
     1
 43
0.0
 10
2855.691047699888
 20
18.705692436661
 10
2870.798920303529
 20
18.70569243666056
 10
2879.850198966466
 20
30.71059777719558
 10
2879.850198966466
 20
421.4366024609038
 10
2879.850198966466
 20
434.6779637954166
 10
2868.314123599367
 20
435.8718027417526
 10
2843.000315252908
 20
462.4942999936254
 10
2728.113969248877
 20
420.2800151354534
 10
2691.154917303997
 20
280.3898774207336
 10
2732.607988714145
 20
211.5989961194175
 10
2706.077131604437
 20
141.9933113454757
 10
2806.826783235252
 20
141.9933113454741
 10
2806.826783235251
 20
83.51541615391591
  0
LWPOLYLINE
  5
51
330
1121
100
AcDbEntity
  8
LAYER_1
100
AcDbPolyline
 90
        6
 70
     1
 43
0.0
 10
2750.848493739112
 20
497.851516977589
 10
2863.721778550284
 20
530.0013485532351
 10
2879.850198966468
 20
527.5619131333932
 10
2879.850198966466
 20
544.700115632558
 10
2879.850198966466
 20
585.0001114457502
 10
2772.271573265561
 20
585.0001114457486
  0
LWPOLYLINE
  5
52
330
1121
100
AcDbEntity
  8
LAYER_1
100
AcDbPolyline
 90
        8
 70
     1
 43
0.0
 10
2386.523383860584
 20
493.4652081932173
 10
2340.181471971367
 20
493.4652081932147
 10
2290.596531949661
 20
544.0255932147049
 10
2241.011591927955
 20
493.4652081932147
 10
2194.669680038736
 20
493.4652081932173
 10
2194.594533064409
 20
301.6377452370951
 10
2290.596531949661
 20
198.2880193965904
 10
2386.598530834915
 20
301.6377452370943
  0
LWPOLYLINE
  5
53
330
1121
100
AcDbEntity
  8
LAYER_1
100
AcDbPolyline
 90
        5
 70
     1
 43
0.0
 10
1830.344570160204
 20
497.8515169775922
 10
1808.921490633764
 20
585.0001114457513
 10
1626.974669161462
 20
585.0001114457509
 10
1605.551589635013
 20
497.8515169775883
 10
1717.948079897614
 20
529.8655425965063
  0
LWPOLYLINE
  5
54
330
1121
100
AcDbEntity
  8
LAYER_1
100
AcDbPolyline
 90
        8
 70
     1
 43
0.0
 10
1241.226479756486
 20
493.4652081932171
 10
1194.884475386003
 20
493.4652081932145
 10
1145.298719931741
 20
544.0253631471413
 10
1095.712964477483
 20
493.4652081932145
 10
1049.370960106997
 20
493.4652081932173
 10
1049.295813114175
 20
301.6376980320732
 10
1145.298719931742
 20
198.2881523138063
 10
1241.301626749308
 20
301.6376980320733
  0
LWPOLYLINE
  5
55
330
1121
100
AcDbEntity
  8
LAYER_1
100
AcDbPolyline
 90
        5
 70
     1
 43
0.0
 10
685.0458502284657
 20
497.851516977591
 10
663.6227707020229
 20
585.0001114457502
 10
481.6759492297208
 20
585.0001114457502
 10
460.2528697032797
 20
497.8515169775932
 10
572.6493599658708
 20
529.865542596506
  0
LWPOLYLINE
  5
56
330
1121
100
AcDbEntity
  8
LAYER_1
100
AcDbPolyline
 90
        8
 70
     1
 43
0.0
 10
95.92775982474458
 20
493.4652081932157
 10
49.58575545426043
 20
493.4652081932145
 10
0.0000000000000017
 20
544.0253631471429
 10
-49.58575545426043
 20
493.4652081932147
 10
-95.9277598247468
 20
493.4652081932179
 10
-96.00290681756669
 20
301.6376980320736
 10
0.0000000000002287
 20
198.2881523138063
 10
96.00290681756691
 20
301.6376980320736
  0
LWPOLYLINE
  5
57
330
1121
100
AcDbEntity
  8
LAYER_1
100
AcDbPolyline
 90
        5
 70
     1
 43
0.0
 10
-460.2528697032793
 20
497.8515169775932
 10
-481.6759492297206
 20
585.0001114457509
 10
-663.6227707020228
 20
585.0001114457507
 10
-685.0458502284667
 20
497.8515169775912
 10
-572.6493599658708
 20
529.8655425965063
  0
LWPOLYLINE
  5
58
330
1121
100
AcDbEntity
  8
LAYER_1
100
AcDbPolyline
 90
        8
 70
     1
 43
0.0
 10
-1049.370960106998
 20
493.465208193217
 10
-1095.712964477483
 20
493.4652081932145
 10
-1145.298719931742
 20
544.025363147142
 10
-1194.884475386003
 20
493.4652081932145
 10
-1241.226479756489
 20
493.4652081932171
 10
-1241.301626749307
 20
301.6376980320736
 10
-1145.298719931742
 20
198.2881523138068
 10
-1049.295813114177
 20
301.6376980320734
  0
LWPOLYLINE
  5
59
330
1121
100
AcDbEntity
  8
LAYER_1
100
AcDbPolyline
 90
        5
 70
     1
 43
0.0
 10
-1605.55158963502
 20
497.851516977593
 10
-1626.974669161461
 20
585.0001114457502
 10
-1808.921490633764
 20
585.0001114457499
 10
-1830.344570160205
 20
497.8515169775917
 10
-1717.948079897613
 20
529.8655425965063
  0
LWPOLYLINE
  5
5A
330
1121
100
AcDbEntity
  8
LAYER_1
100
AcDbPolyline
 90
        8
 70
     1
 43
0.0
 10
-2194.669680038738
 20
493.4652081932178
 10
-2241.011591927954
 20
493.4652081932147
 10
-2290.59653194966
 20
544.0255932147068
 10
-2340.181471971367
 20
493.4652081932145
 10
-2386.523383860584
 20
493.465208193217
 10
-2386.598530834913
 20
301.6377452370953
 10
-2290.59653194966
 20
198.2880193965894
 10
-2194.594533064409
 20
301.6377452370951
  0
LWPOLYLINE
  5
5B
330
1121
100
AcDbEntity
  8
LAYER_1
100
AcDbPolyline
 90
       16
 70
     1
 43
0.0
 10
-2506.211107903378
 20
102.6022212474708
 10
-2413.094567712429
 20
1.309021792333812
 10
-2506.211107903378
 20
-99.98417766280141
 10
-2377.548481164806
 20
-93.59615439306748
 10
-2378.578347920103
 20
-235.8878366856116
 10
-2290.596531949661
 20
-132.050299569293
 10
-2202.614715979221
 20
-235.8878366856138
 10
-2203.644582734516
 20
-93.59615439306741
 10
-2074.981955995944
 20
-99.98417766280024
 10
-2168.098496186892
 20
1.309021792333812
 10
-2074.981955995944
 20
102.6022212474708
 10
-2203.644582734516
 20
96.21419797773597
 10
-2202.614715979221
 20
238.5058802702846
 10
-2290.59653194966
 20
134.6683431539622
 10
-2378.578347920101
 20
238.5058802702843
 10
-2377.548481164806
 20
96.21419797773597
  0
LWPOLYLINE
  5
5C
330
1121
100
AcDbEntity
  8
LAYER_1
100
AcDbPolyline
 90
       17
 70
     1
 43
0.0
 10
-1890.038146595326
 20
-277.6709008208176
 10
-1853.079094650446
 20
-417.5610385355376
 10
-1738.192748646413
 20
-459.775323393711
 10
-1717.948079897612
 20
-438.484033250659
 10
-1697.70341114881
 20
-459.7753233937111
 10
-1582.81706514478
 20
-417.5610385355376
 10
-1545.858013199901
 20
-277.670900820818
 10
-1587.311084610046
 20
-208.8800195195021
 10
-1560.780227500339
 20
-139.2743347455592
 10
-1661.529879131157
 20
-139.2743347455593
 10
-1661.529879131156
 20
-80.79643955399959
 10
-1710.394143595793
 20
-15.98671583674549
 10
-1725.502016199433
 20
-15.98671583674552
 10
-1774.366280664069
 20
-80.79643955399969
 10
-1774.366280664069
 20
-139.2743347455593
 10
-1875.115932294887
 20
-139.2743347455596
 10
-1848.585075185178
 20
-208.8800195195022
  0
LWPOLYLINE
  5
5D
330
1121
100
AcDbEntity
  8
LAYER_1
100
AcDbPolyline
 90
       16
 70
     1
 43
0.0
 10
-1233.281440944413
 20
-235.8874399322567
 10
-1145.298719931742
 20
-132.0501306052433
 10
-1057.315998919069
 20
-235.8874399322535
 10
-1058.345862802774
 20
-93.59615439306748
 10
-929.6832360642046
 20
-99.98417766280091
 10
-1022.799776255152
 20
1.309021792333812
 10
-929.6832360642053
 20
102.6022212474712
 10
-1058.345862802774
 20
96.21419797773597
 10
-1057.315998919072
 20
238.5054835169301
 10
-1145.298719931742
 20
134.6681741899006
 10
-1233.281440944412
 20
238.5054835169301
 10
-1232.251577060708
 20
96.21419797773597
 10
-1360.914203799281
 20
102.6022212474723
 10
-1267.797663608332
 20
1.309021792333926
 10
-1360.914203799281
 20
-99.98417766280077
 10
-1232.251577060708
 20
-93.59615439306741
  0
LWPOLYLINE
  5
5E
330
1121
100
AcDbEntity
  8
LAYER_1
100
AcDbPolyline
 90
       17
 70
     1
 43
0.0
 10
-1545.858013199901
 20
280.3898774207336
 10
-1582.81706514478
 20
420.2800151354532
 10
-1697.70341114881
 20
462.4942999936261
 10
-1717.948079897612
 20
441.2030098505741
 10
-1738.192748646413
 20
462.494299993626
 10
-1853.079094650446
 20
420.280015135453
 10
-1890.038146595326
 20
280.3898774207336
 10
-1848.585075185178
 20
211.5989961194171
 10
-1875.115932294886
 20
141.9933113454745
 10
-1774.366280664069
 20
141.9933113454741
 10
-1774.366280664068
 20
83.51541615391644
 10
-1725.502016199434
 20
18.7056924366611
 10
-1710.394143595793
 20
18.70569243666102
 10
-1661.529879131156
 20
83.51541615391615
 10
-1661.529879131157
 20
141.9933113454741
 10
-1560.780227500339
 20
141.9933113454739
 10
-1587.311084610046
 20
211.5989961194173
  0
LWPOLYLINE
  5
5F
330
1121
100
AcDbEntity
  8
LAYER_1
100
AcDbPolyline
 90
        8
 70
     1
 43
0.0
 10
-1649.535834999371
 20
1.221590094240765
 10
-1603.745914277802
 20
-50.80983709264272
 10
-1603.745914277802
 20
-100.6611552454238
 10
-1422.986304015237
 20
-100.7432032716096
 10
-1328.249573728984
 20
1.221590094240541
 10
-1422.986304015237
 20
103.1863834600862
 10
-1603.745914277802
 20
103.104335433905
 10
-1603.745914277802
 20
53.25301728111974
  0
LWPOLYLINE
  5
60
330
1121
100
AcDbEntity
  8
LAYER_1
100
AcDbPolyline
 90
        8
 70
     1
 43
0.0
 10
-2012.909855779988
 20
103.1863834600865
 10
-2107.64658606624
 20
1.221590094240485
 10
-2012.909855779988
 20
-100.743203271609
 10
-1832.150245517425
 20
-100.661155245424
 10
-1832.150245517424
 20
-50.80983709264296
 10
-1786.360324795852
 20
1.221590094240654
 10
-1832.150245517424
 20
53.25301728111997
 10
-1832.150245517424
 20
103.1043354339046
  0
LWPOLYLINE
  5
61
330
1121
100
AcDbEntity
  8
LAYER_1
100
AcDbPolyline
 90
       17
 70
     1
 43
0.0
 10
-744.739426663584
 20
-277.6709008208178
 10
-707.7803747187049
 20
-417.561038535537
 10
-592.8940287146731
 20
-459.7753233937116
 10
-572.6493599658717
 20
-438.4840332506593
 10
-552.4046912170708
 20
-459.775323393711
 10
-437.5183452130388
 20
-417.5610385355382
 10
-400.5592932681596
 20
-277.6709008208178
 10
-442.012364678306
 20
-208.8800195195021
 10
-415.481507568596
 20
-139.2743347455581
 10
-516.2311591994146
 20
-139.2743347455592
 10
-516.2311591994138
 20
-80.79643955399955
 10
-565.0954236640507
 20
-15.98671583674566
 10
-580.2032962676917
 20
-15.98671583674503
 10
-629.0675607323274
 20
-80.79643955399978
 10
-629.0675607323274
 20
-139.2743347455592
 10
-729.8172123631468
 20
-139.2743347455585
 10
-703.2863552534377
 20
-208.8800195195025
  0
LWPOLYLINE
  5
62
330
1121
100
AcDbEntity
  8
LAYER_1
100
AcDbPolyline
 90
       16
 70
     1
 43
0.0
 10
-87.98272101267221
 20
-235.8874399322551
 10
0.0000000000000017
 20
-132.0501306052385
 10
87.98272101267306
 20
-235.8874399322568
 10
86.95285712896716
 20
-93.59615439306741
 10
215.6154838675358
 20
-99.98417766279951
 10
122.4989436765923
 20
1.309021792333587
 10
215.6154838675344
 20
102.6022212474695
 10
86.9528571289676
 20
96.21419797773597
 10
87.98272101267359
 20
238.5054835169275
 10
0.0000000000000017
 20
134.6681741899077
 10
-87.98272101267246
 20
238.5054835169269
 10
-86.95285712896714
 20
96.21419797773597
 10
-215.615483867541
 20
102.6022212474725
 10
-122.4989436765922
 20
1.309021792333587
 10
-215.6154838675391
 20
-99.98417766280141
 10
-86.95285712896714
 20
-93.59615439306736
  0
LWPOLYLINE
  5
63
330
1121
100
AcDbEntity
  8
LAYER_1
100
AcDbPolyline
 90
       17
 70
     1
 43
0.0
 10
-400.5592932681601
 20
280.3898774207337
 10
-437.5183452130398
 20
420.2800151354533
 10
-552.4046912170708
 20
462.4942999936258
 10
-572.6493599658717
 20
441.2030098505741
 10
-592.8940287146732
 20
462.4942999936261
 10
-707.7803747187053
 20
420.280015135453
 10
-744.739426663584
 20
280.3898774207336
 10
-703.2863552534377
 20
211.5989961194173
 10
-729.8172123631465
 20
141.9933113454732
 10
-629.0675607323274
 20
141.9933113454741
 10
-629.0675607323277
 20
83.51541615391637
 10
-580.2032962676914
 20
18.70569243666117
 10
-565.0954236640505
 20
18.705692436661
 10
-516.2311591994146
 20
83.5154161539164
 10
-516.2311591994146
 20
141.9933113454741
 10
-415.4815075685966
 20
141.9933113454732
 10
-442.012364678306
 20
211.5989961194173
  0
LWPOLYLINE
  5
64
330
1121
100
AcDbEntity
  8
LAYER_1
100
AcDbPolyline
 90
        8
 70
     1
 43
0.0
 10
-504.2371150676307
 20
1.221590094240682
 10
-458.4471943460616
 20
-50.80983709264272
 10
-458.4471943460611
 20
-100.6611552454235
 10
-277.6875840834963
 20
-100.7432032716095
 10
-182.9508537972426
 20
1.221590094240541
 10
-277.6875840834962
 20
103.1863834600863
 10
-458.4471943460614
 20
103.1043354339048
 10
-458.4471943460616
 20
53.25301728111964
  0
LWPOLYLINE
  5
65
330
1121
100
AcDbEntity
  8
LAYER_1
100
AcDbPolyline
 90
        8
 70
     1
 43
0.0
 10
-867.6111358482481
 20
103.1863834600867
 10
-962.3478661344998
 20
1.221590094240654
 10
-867.6111358482479
 20
-100.7432032716093
 10
-686.8515255856842
 20
-100.6611552454237
 10
-686.8515255856839
 20
-50.80983709264296
 10
-641.0616048641113
 20
1.22159009424071
 10
-686.8515255856839
 20
53.25301728111997
 10
-686.8515255856843
 20
103.104335433904
  0
LWPOLYLINE
  5
66
330
1121
100
AcDbEntity
  8
LAYER_1
100
AcDbPolyline
 90
       17
 70
     1
 43
0.0
 10
400.5592932681617
 20
-277.6709008208182
 10
437.5183452130398
 20
-417.5610385355376
 10
552.4046912170704
 20
-459.7753233937113
 10
572.6493599658717
 20
-438.4840332506591
 10
592.8940287146738
 20
-459.7753233937107
 10
707.7803747187033
 20
-417.5610385355372
 10
744.7394266635849
 20
-277.6709008208178
 10
703.2863552534379
 20
-208.8800195195022
 10
729.8172123631457
 20
-139.2743347455591
 10
629.0675607323274
 20
-139.2743347455593
 10
629.0675607323277
 20
-80.79643955399964
 10
580.2032962676909
 20
-15.98671583674566
 10
565.0954236640505
 20
-15.98671583674528
 10
516.2311591994152
 20
-80.79643955399978
 10
516.2311591994152
 20
-139.2743347455593
 10
415.4815075685987
 20
-139.2743347455595
 10
442.0123646783054
 20
-208.8800195195023
  0
LWPOLYLINE
  5
67
330
1121
100
AcDbEntity
  8
LAYER_1
100
AcDbPolyline
 90
       16
 70
     1
 43
0.0
 10
1057.315998919073
 20
-235.8874399322526
 10
1145.298719931742
 20
-132.0501306052434
 10
1233.281440944411
 20
-235.8874399322509
 10
1232.251577060709
 20
-93.59615439306741
 10
1360.914203799281
 20
-99.98417766280224
 10
1267.797663608332
 20
1.309021792333926
 10
1360.914203799278
 20
102.6022212474719
 10
1232.251577060709
 20
96.21419797773597
 10
1233.281440944411
 20
238.5054835169224
 10
1145.298719931742
 20
134.6681741899005
 10
1057.315998919072
 20
238.5054835169295
 10
1058.345862802775
 20
96.21419797773597
 10
929.6832360642067
 20
102.6022212474704
 10
1022.799776255152
 20
1.3090217923337
 10
929.6832360642039
 20
-99.98417766280105
 10
1058.345862802775
 20
-93.59615439306741
  0
LWPOLYLINE
  5
68
330
1121
100
AcDbEntity
  8
LAYER_1
100
AcDbPolyline
 90
       17
 70
     1
 43
0.0
 10
744.7394266635837
 20
280.3898774207338
 10
707.7803747187037
 20
420.2800151354532
 10
592.8940287146738
 20
462.4942999936254
 10
572.6493599658717
 20
441.2030098505741
 10
552.4046912170706
 20
462.4942999936266
 10
437.5183452130415
 20
420.2800151354521
 10
400.5592932681596
 20
280.3898774207337
 10
442.0123646783054
 20
211.5989961194173
 10
415.481507568598
 20
141.993311345474
 10
516.2311591994152
 20
141.9933113454741
 10
516.2311591994149
 20
83.51541615391637
 10
565.0954236640507
 20
18.70569243666117
 10
580.2032962676911
 20
18.705692436661
 10
629.0675607323274
 20
83.5154161539164
 10
629.0675607323274
 20
141.9933113454741
 10
729.8172123631472
 20
141.993311345473
 10
703.2863552534379
 20
211.5989961194173
  0
LWPOLYLINE
  5
69
330
1121
100
AcDbEntity
  8
LAYER_1
100
AcDbPolyline
 90
        8
 70
     1
 43
0.0
 10
641.0616048641132
 20
1.221590094240822
 10
686.8515255856839
 20
-50.80983709264296
 10
686.8515255856842
 20
-100.6611552454242
 10
867.6111358482472
 20
-100.7432032716095
 10
962.3478661345007
 20
1.221590094240654
 10
867.6111358482472
 20
103.1863834600863
 10
686.8515255856842
 20
103.1043354339049
 10
686.8515255856839
 20
53.25301728111997
  0
LWPOLYLINE
  5
6A
330
1121
100
AcDbEntity
  8
LAYER_1
100
AcDbPolyline
 90
        8
 70
     1
 43
0.0
 10
277.6875840834962
 20
103.1863834600869
 10
182.9508537972436
 20
1.221590094240597
 10
277.6875840834962
 20
-100.7432032716095
 10
458.4471943460606
 20
-100.6611552454244
 10
458.44719434606
 20
-50.80983709264296
 10
504.2371150676319
 20
1.221590094240879
 10
458.44719434606
 20
53.25301728111988
 10
458.4471943460604
 20
103.1043354339054
  0
LWPOLYLINE
  5
6B
330
1121
100
AcDbEntity
  8
LAYER_1
100
AcDbPolyline
 90
       17
 70
     1
 43
0.0
 10
1545.858013199902
 20
-277.6709008208184
 10
1582.81706514478
 20
-417.5610385355378
 10
1697.70341114881
 20
-459.7753233937099
 10
1717.948079897612
 20
-438.484033250659
 10
1738.192748646414
 20
-459.7753233937106
 10
1853.079094650447
 20
-417.5610385355388
 10
1890.038146595327
 20
-277.6709008208175
 10
1848.585075185179
 20
-208.8800195195022
 10
1875.115932294885
 20
-139.2743347455603
 10
1774.366280664068
 20
-139.2743347455593
 10
1774.366280664068
 20
-80.79643955399982
 10
1725.502016199434
 20
-15.98671583674493
 10
1710.394143595792
 20
-15.98671583674573
 10
1661.529879131156
 20
-80.79643955399944
 10
1661.529879131157
 20
-139.2743347455593
 10
1560.780227500338
 20
-139.2743347455587
 10
1587.311084610046
 20
-208.8800195195025
  0
LWPOLYLINE
  5
6C
330
1121
100
AcDbEntity
  8
LAYER_1
100
AcDbPolyline
 90
       16
 70
     1
 43
0.0
 10
2202.614715979224
 20
-235.8878366856153
 10
2290.596531949661
 20
-132.0502995692935
 10
2378.578347920099
 20
-235.8878366856119
 10
2377.548481164806
 20
-93.59615439306748
 10
2506.211107903377
 20
-99.98417766280148
 10
2413.09456771243
 20
1.309021792333812
 10
2506.211107903377
 20
102.6022212474708
 10
2377.548481164806
 20
96.21419797773585
 10
2378.578347920099
 20
238.5058802702856
 10
2290.596531949661
 20
134.6683431539624
 10
2202.614715979223
 20
238.5058802702917
 10
2203.644582734516
 20
96.21419797773597
 10
2074.981955995946
 20
102.6022212474712
 10
2168.098496186892
 20
1.309021792333587
 10
2074.981955995946
 20
-99.98417766280123
 10
2203.644582734516
 20
-93.59615439306715
  0
LWPOLYLINE
  5
6D
330
1121
100
AcDbEntity
  8
LAYER_1
100
AcDbPolyline
 90
       17
 70
     1
 43
0.0
 10
1890.038146595328
 20
280.3898774207334
 10
1853.079094650445
 20
420.2800151354534
 10
1738.192748646413
 20
462.4942999936266
 10
1717.948079897612
 20
441.2030098505736
 10
1697.703411148811
 20
462.4942999936257
 10
1582.81706514478
 20
420.2800151354534
 10
1545.8580131999
 20
280.3898774207337
 10
1587.311084610046
 20
211.5989961194171
 10
1560.780227500337
 20
141.9933113454732
 10
1661.529879131157
 20
141.9933113454741
 10
1661.529879131156
 20
83.51541615391608
 10
1710.394143595792
 20
18.70569243666156
 10
1725.502016199434
 20
18.70569243666054
 10
1774.366280664068
 20
83.51541615391669
 10
1774.366280664068
 20
141.9933113454741
 10
1875.115932294887
 20
141.9933113454735
 10
1848.585075185179
 20
211.5989961194171
  0
LWPOLYLINE
  5
6E
330
1121
100
AcDbEntity
  8
LAYER_1
100
AcDbPolyline
 90
        8
 70
     1
 43
0.0
 10
1786.360324795852
 20
1.22159009424071
 10
1832.150245517425
 20
-50.80983709264307
 10
1832.150245517426
 20
-100.6611552454226
 10
2012.909855779987
 20
-100.7432032716102
 10
2107.64658606624
 20
1.221590094240541
 10
2012.909855779987
 20
103.1863834600872
 10
1832.150245517426
 20
103.1043354339031
 10
1832.150245517425
 20
53.25301728112009
  0
LWPOLYLINE
  5
6F
330
1121
100
AcDbEntity
  8
LAYER_1
100
AcDbPolyline
 90
        8
 70
     1
 43
0.0
 10
1422.986304015237
 20
103.1863834600875
 10
1328.249573728984
 20
1.221590094240541
 10
1422.986304015237
 20
-100.7432032716097
 10
1603.745914277801
 20
-100.6611552454226
 10
1603.745914277802
 20
-50.80983709264296
 10
1649.535834999372
 20
1.221590094240991
 10
1603.745914277802
 20
53.25301728111974
 10
1603.7459142778
 20
103.1043354339031
  0
LWPOLYLINE
  5
70
330
1121
100
AcDbEntity
  8
LAYER_1
100
AcDbPolyline
 90
        8
 70
     1
 43
0.0
 10
2568.283208119335
 20
-100.7432032716098
 10
2749.042818381898
 20
-100.6611552454226
 10
2749.042818381899
 20
-50.80983709264296
 10
2794.832739103469
 20
1.221590094241105
 10
2749.042818381899
 20
53.25301728111988
 10
2749.042818381898
 20
103.1043354339031
 10
2568.283208119335
 20
103.1863834600877
 10
2473.546477833082
 20
1.221590094240541
  0
LWPOLYLINE
  5
71
330
1121
100
AcDbEntity
  8
LAYER_1
100
AcDbPolyline
 90
        6
 70
     1
 43
0.0
 10
-2750.848493739117
 20
497.8515169775938
 10
-2772.271573265558
 20
585.0001114457502
 10
-2879.850198966466
 20
585.0001114457502
 10
-2879.850198966466
 20
544.7001156325576
 10
-2879.850198966466
 20
527.5619131333932
 10
-2863.721778550284
 20
530.0013485532351
  0
LWPOLYLINE
  5
72
330
1121
100
AcDbEntity
  8
LAYER_1
100
AcDbPolyline
 90
        6
 70
     1
 43
0.0
 10
-2750.848493739117
 20
-495.2723395627822
 10
-2863.721778550284
 20
-527.4221711384187
 10
-2879.850198966465
 20
-524.9827357185759
 10
-2879.850198966466
 20
-542.1209382177416
 10
-2879.850198966466
 20
-584.9998885542471
 10
-2772.905538141127
 20
-584.9998885542483
  0
LWPOLYLINE
  5
73
330
1121
100
AcDbEntity
  8
LAYER_1
100
AcDbPolyline
 90
        8
 70
     1
 43
0.0
 10
1004.063905011682
 20
-145.2737633326226
 10
1004.206655659974
 20
-388.5804954728005
 10
923.5508626356303
 20
-388.5804954728007
 10
923.5508626356303
 20
-354.2180208935538
 10
780.4602920890164
 20
-393.9389051442112
 10
815.9211104967038
 20
-232.9189756249877
 10
784.9034142709347
 20
-232.9189756249877
 10
784.9034142709345
 20
-145.1116849858907
  0
LWPOLYLINE
  5
74
330
1121
100
AcDbEntity
  8
LAYER_1
100
AcDbPolyline
 90
        8
 70
     1
 43
0.0
 10
1004.063905011682
 20
145.2739862241267
 10
1004.206655659974
 20
388.5807183643046
 10
923.5508626356303
 20
388.5807183643049
 10
923.5508626356303
 20
354.218243785058
 10
780.4602920890164
 20
393.9391280357154
 10
815.9211104967038
 20
232.9191985164918
 10
784.9034142709347
 20
232.9191985164918
 10
784.9034142709345
 20
145.1119078773948
  0
LWPOLYLINE
  5
75
330
1121
100
AcDbEntity
  8
LAYER_1
100
AcDbPolyline
 90
        6
 70
     1
 43
0.0
 10
1003.790401231699
 20
-447.4431897485888
 10
1003.790401231699
 20
-584.9998885542471
 10
718.6760625550136
 20
-584.9998885542467
 10
753.1762042723583
 20
-472.2164546832768
 10
879.8078100879193
 20
-432.0289267000588
 10
940.8896030311312
 20
-476.2422409944993
  0
LWPOLYLINE
  5
76
330
1121
100
AcDbEntity
  8
LAYER_1
100
AcDbPolyline
 90
        6
 70
     1
 43
0.0
 10
753.1762042723584
 20
474.7956320980908
 10
719.4649576390022
 20
585.0001114457507
 10
1003.790401231699
 20
585.0001114457502
 10
1003.790401231699
 20
450.0223671634051
 10
940.8896030311312
 20
478.8214184093122
 10
879.8078100879193
 20
434.6081041148758
  0
LWPOLYLINE
  5
77
330
1121
100
AcDbEntity
  8
LAYER_1
100
AcDbPolyline
 90
        8
 70
     1
 43
0.0
 10
2149.361716889335
 20
145.2739862241267
 10
2149.504467537627
 20
388.5807183643046
 10
2068.848674513284
 20
388.5807183643049
 10
2068.848674513284
 20
354.218243785058
 10
1925.75810396667
 20
393.9391280357154
 10
1961.218922374358
 20
232.9191985164918
 10
1930.201226148589
 20
232.9191985164918
 10
1930.201226148589
 20
145.1119078773948
  0
LWPOLYLINE
  5
78
330
1121
100
AcDbEntity
  8
LAYER_1
100
AcDbPolyline
 90
        8
 70
     1
 43
0.0
 10
2149.361716889335
 20
-145.2737633326226
 10
2149.504467537627
 20
-388.5804954728005
 10
2068.848674513284
 20
-388.5804954728007
 10
2068.848674513284
 20
-354.2180208935538
 10
1925.75810396667
 20
-393.9389051442112
 10
1961.218922374358
 20
-232.9189756249877
 10
1930.201226148589
 20
-232.9189756249877
 10
1930.201226148589
 20
-145.1116849858907
  0
LWPOLYLINE
  5
79
330
1121
100
AcDbEntity
  8
LAYER_1
100
AcDbPolyline
 90
        6
 70
     1
 43
0.0
 10
2149.088213109352
 20
-447.4431897485888
 10
2149.088213109352
 20
-584.9998885542471
 10
1863.973874432668
 20
-584.9998885542467
 10
1898.474016150012
 20
-472.2164546832768
 10
2025.105621965574
 20
-432.0289267000588
 10
2086.187414908785
 20
-476.2422409944993
  0
LWPOLYLINE
  5
7A
330
1121
100
AcDbEntity
  8
LAYER_1
100
AcDbPolyline
 90
        6
 70
     1
 43
0.0
 10
1898.474016150012
 20
474.7956320980908
 10
1864.762769516656
 20
585.0001114457507
 10
2149.088213109352
 20
585.0001114457502
 10
2149.088213109352
 20
450.0223671634051
 10
2086.187414908785
 20
478.8214184093122
 10
2025.105621965574
 20
434.6081041148758
  0
LWPOLYLINE
  5
7B
330
1121
100
AcDbEntity
  8
LAYER_1
100
AcDbPolyline
 90
        8
 70
     1
 43
0.0
 10
-2149.361716889335
 20
145.2739862241267
 10
-2149.504467537627
 20
388.5807183643046
 10
-2068.848674513284
 20
388.5807183643049
 10
-2068.848674513284
 20
354.218243785058
 10
-1925.75810396667
 20
393.9391280357154
 10
-1961.218922374358
 20
232.9191985164918
 10
-1930.201226148589
 20
232.9191985164918
 10
-1930.201226148589
 20
145.1119078773948
  0
LWPOLYLINE
  5
7C
330
1121
100
AcDbEntity
  8
LAYER_1
100
AcDbPolyline
 90
        8
 70
     1
 43
0.0
 10
-2149.361716889335
 20
-145.2737633326226
 10
-2149.504467537627
 20
-388.5804954728005
 10
-2068.848674513284
 20
-388.5804954728007
 10
-2068.848674513284
 20
-354.2180208935538
 10
-1925.75810396667
 20
-393.9389051442112
 10
-1961.218922374358
 20
-232.9189756249877
 10
-1930.201226148589
 20
-232.9189756249877
 10
-1930.201226148589
 20
-145.1116849858907
  0
LWPOLYLINE
  5
7D
330
1121
100
AcDbEntity
  8
LAYER_1
100
AcDbPolyline
 90
        6
 70
     1
 43
0.0
 10
-2149.088213109352
 20
-447.4431897485888
 10
-2149.088213109352
 20
-584.9998885542471
 10
-1863.973874432668
 20
-584.9998885542467
 10
-1898.474016150012
 20
-472.2164546832768
 10
-2025.105621965574
 20
-432.0289267000588
 10
-2086.187414908785
 20
-476.2422409944993
  0
LWPOLYLINE
  5
7E
330
1121
100
AcDbEntity
  8
LAYER_1
100
AcDbPolyline
 90
        6
 70
     1
 43
0.0
 10
-1898.474016150012
 20
474.7956320980908
 10
-1864.762769516656
 20
585.0001114457507
 10
-2149.088213109352
 20
585.0001114457502
 10
-2149.088213109352
 20
450.0223671634051
 10
-2086.187414908785
 20
478.8214184093122
 10
-2025.105621965574
 20
434.6081041148758
  0
LWPOLYLINE
  5
7F
330
1121
100
AcDbEntity
  8
LAYER_1
100
AcDbPolyline
 90
        8
 70
     1
 43
0.0
 10
-1004.063905011682
 20
-145.2737633326226
 10
-1004.206655659974
 20
-388.5804954728005
 10
-923.5508626356303
 20
-388.5804954728007
 10
-923.5508626356303
 20
-354.2180208935538
 10
-780.4602920890164
 20
-393.9389051442112
 10
-815.9211104967038
 20
-232.9189756249877
 10
-784.9034142709347
 20
-232.9189756249877
 10
-784.9034142709345
 20
-145.1116849858907
  0
LWPOLYLINE
  5
80
330
1121
100
AcDbEntity
  8
LAYER_1
100
AcDbPolyline
 90
        6
 70
     1
 43
0.0
 10
-753.1762042723584
 20
474.7956320980908
 10
-719.4649576390022
 20
585.0001114457507
 10
-1003.790401231699
 20
585.0001114457502
 10
-1003.790401231699
 20
450.0223671634051
 10
-940.8896030311312
 20
478.8214184093122
 10
-879.8078100879193
 20
434.6081041148758
  0
LWPOLYLINE
  5
81
330
1121
100
AcDbEntity
  8
LAYER_1
100
AcDbPolyline
 90
        8
 70
     1
 43
0.0
 10
141.2348150603308
 20
145.2739862241267
 10
141.0920644120388
 20
388.5807183643046
 10
221.7478574363824
 20
388.5807183643049
 10
221.7478574363824
 20
354.218243785058
 10
364.8384279829962
 20
393.9391280357154
 10
329.3776095753087
 20
232.9191985164918
 10
360.3953058010778
 20
232.9191985164918
 10
360.3953058010782
 20
145.1119078773948
  0
LWPOLYLINE
  5
82
330
1121
100
AcDbEntity
  8
LAYER_1
100
AcDbPolyline
 90
        8
 70
     1
 43
0.0
 10
141.2348150603308
 20
-145.2737633326226
 10
141.0920644120388
 20
-388.5804954728005
 10
221.7478574363824
 20
-388.5804954728007
 10
221.7478574363824
 20
-354.2180208935538
 10
364.8384279829962
 20
-393.9389051442112
 10
329.3776095753087
 20
-232.9189756249877
 10
360.3953058010778
 20
-232.9189756249877
 10
360.3953058010782
 20
-145.1116849858907
  0
LWPOLYLINE
  5
83
330
1121
100
AcDbEntity
  8
LAYER_1
100
AcDbPolyline
 90
        6
 70
     1
 43
0.0
 10
141.5083188403132
 20
-447.4431897485888
 10
141.5083188403134
 20
-584.9998885542471
 10
426.6226575169989
 20
-584.9998885542467
 10
392.1225157996545
 20
-472.2164546832768
 10
265.4909099840934
 20
-432.0289267000588
 10
204.4091170408815
 20
-476.2422409944993
  0
LWPOLYLINE
  5
84
330
1121
100
AcDbEntity
  8
LAYER_1
100
AcDbPolyline
 90
        6
 70
     1
 43
0.0
 10
392.1225157996543
 20
474.7956320980908
 10
425.8337624330104
 20
585.0001114457507
 10
141.5083188403134
 20
585.0001114457502
 10
141.5083188403134
 20
450.0223671634051
 10
204.4091170408815
 20
478.8214184093122
 10
265.4909099840935
 20
434.6081041148758
  0
LWPOLYLINE
  5
85
330
1121
100
AcDbEntity
  8
LAYER_1
100
AcDbPolyline
 90
        8
 70
     1
 43
0.0
 10
1286.533535132344
 20
145.2739862241267
 10
1286.390784484051
 20
388.5807183643046
 10
1367.046577508395
 20
388.5807183643049
 10
1367.046577508395
 20
354.218243785058
 10
1510.137148055008
 20
393.9391280357154
 10
1474.676329647321
 20
232.9191985164918
 10
1505.694025873091
 20
232.9191985164918
 10
1505.694025873091
 20
145.1119078773948
  0
LWPOLYLINE
  5
86
330
1121
100
AcDbEntity
  8
LAYER_1
100
AcDbPolyline
 90
        8
 70
     1
 43
0.0
 10
1286.533535132344
 20
-145.2737633326226
 10
1286.390784484051
 20
-388.5804954728005
 10
1367.046577508395
 20
-388.5804954728007
 10
1367.046577508395
 20
-354.2180208935538
 10
1510.137148055008
 20
-393.9389051442112
 10
1474.676329647321
 20
-232.9189756249877
 10
1505.694025873091
 20
-232.9189756249877
 10
1505.694025873091
 20
-145.1116849858907
  0
LWPOLYLINE
  5
87
330
1121
100
AcDbEntity
  8
LAYER_1
100
AcDbPolyline
 90
        6
 70
     1
 43
0.0
 10
1286.807038912326
 20
-447.4431897485888
 10
1286.807038912326
 20
-584.9998885542471
 10
1571.921377589012
 20
-584.9998885542467
 10
1537.421235871667
 20
-472.2164546832768
 10
1410.789630056106
 20
-432.0289267000588
 10
1349.707837112894
 20
-476.2422409944993
  0
LWPOLYLINE
  5
88
330
1121
100
AcDbEntity
  8
LAYER_1
100
AcDbPolyline
 90
        6
 70
     1
 43
0.0
 10
1537.421235871667
 20
474.7956320980908
 10
1571.132482505023
 20
585.0001114457507
 10
1286.807038912326
 20
585.0001114457502
 10
1286.807038912326
 20
450.0223671634051
 10
1349.707837112894
 20
478.8214184093122
 10
1410.789630056106
 20
434.6081041148758
  0
LWPOLYLINE
  5
89
330
1121
100
AcDbEntity
  8
LAYER_1
100
AcDbPolyline
 90
        8
 70
     1
 43
0.0
 10
2431.831347009992
 20
145.2739862241267
 10
2431.688596361701
 20
388.5807183643046
 10
2512.344389386043
 20
388.5807183643049
 10
2512.344389386043
 20
354.218243785058
 10
2655.434959932656
 20
393.9391280357154
 10
2619.974141524968
 20
232.9191985164918
 10
2650.991837750737
 20
232.9191985164918
 10
2650.991837750737
 20
145.1119078773948
  0
LWPOLYLINE
  5
8A
330
1121
100
AcDbEntity
  8
LAYER_1
100
AcDbPolyline
 90
        8
 70
     1
 43
0.0
 10
2431.831347009992
 20
-145.2737633326226
 10
2431.688596361701
 20
-388.5804954728005
 10
2512.344389386043
 20
-388.5804954728007
 10
2512.344389386043
 20
-354.2180208935538
 10
2655.434959932656
 20
-393.9389051442112
 10
2619.974141524968
 20
-232.9189756249877
 10
2650.991837750737
 20
-232.9189756249877
 10
2650.991837750737
 20
-145.1116849858907
  0
LWPOLYLINE
  5
8B
330
1121
100
AcDbEntity
  8
LAYER_1
100
AcDbPolyline
 90
        6
 70
     1
 43
0.0
 10
2432.104850789975
 20
-447.4431897485888
 10
2432.104850789975
 20
-584.9998885542471
 10
2717.219189466657
 20
-584.9998885542467
 10
2682.719047749313
 20
-472.2164546832768
 10
2556.087441933753
 20
-432.0289267000588
 10
2495.005648990542
 20
-476.2422409944993
  0
LWPOLYLINE
  5
8C
330
1121
100
AcDbEntity
  8
LAYER_1
100
AcDbPolyline
 90
        6
 70
     1
 43
0.0
 10
2682.719047749313
 20
474.7956320980908
 10
2716.430294382668
 20
585.0001114457507
 10
2432.104850789975
 20
585.0001114457502
 10
2432.104850789975
 20
450.0223671634051
 10
2495.005648990542
 20
478.8214184093122
 10
2556.087441933754
 20
434.6081041148758
  0
LWPOLYLINE
  5
8D
330
1121
100
AcDbEntity
  8
LAYER_1
100
AcDbPolyline
 90
        8
 70
     1
 43
0.0
 10
-2431.831347009992
 20
145.2739862241267
 10
-2431.688596361701
 20
388.5807183643046
 10
-2512.344389386043
 20
388.5807183643049
 10
-2512.344389386043
 20
354.218243785058
 10
-2655.434959932656
 20
393.9391280357154
 10
-2619.974141524968
 20
232.9191985164918
 10
-2650.991837750737
 20
232.9191985164918
 10
-2650.991837750737
 20
145.1119078773948
  0
LWPOLYLINE
  5
8E
330
1121
100
AcDbEntity
  8
LAYER_1
100
AcDbPolyline
 90
        8
 70
     1
 43
0.0
 10
-2431.831347009992
 20
-145.2737633326226
 10
-2431.688596361701
 20
-388.5804954728005
 10
-2512.344389386043
 20
-388.5804954728007
 10
-2512.344389386043
 20
-354.2180208935538
 10
-2655.434959932656
 20
-393.9389051442112
 10
-2619.974141524968
 20
-232.9189756249877
 10
-2650.991837750737
 20
-232.9189756249877
 10
-2650.991837750737
 20
-145.1116849858907
  0
LWPOLYLINE
  5
8F
330
1121
100
AcDbEntity
  8
LAYER_1
100
AcDbPolyline
 90
        6
 70
     1
 43
0.0
 10
-2432.104850789975
 20
-447.4431897485888
 10
-2432.104850789975
 20
-584.9998885542471
 10
-2717.219189466657
 20
-584.9998885542467
 10
-2682.719047749313
 20
-472.2164546832768
 10
-2556.087441933753
 20
-432.0289267000588
 10
-2495.005648990542
 20
-476.2422409944993
  0
LWPOLYLINE
  5
90
330
1121
100
AcDbEntity
  8
LAYER_1
100
AcDbPolyline
 90
        6
 70
     1
 43
0.0
 10
-2682.719047749313
 20
474.7956320980908
 10
-2716.430294382668
 20
585.0001114457507
 10
-2432.104850789975
 20
585.0001114457502
 10
-2432.104850789975
 20
450.0223671634051
 10
-2495.005648990542
 20
478.8214184093122
 10
-2556.087441933754
 20
434.6081041148758
  0
LWPOLYLINE
  5
91
330
1121
100
AcDbEntity
  8
LAYER_1
100
AcDbPolyline
 90
        8
 70
     1
 43
0.0
 10
-1286.533535132344
 20
145.2739862241267
 10
-1286.390784484051
 20
388.5807183643046
 10
-1367.046577508395
 20
388.5807183643049
 10
-1367.046577508395
 20
354.218243785058
 10
-1510.137148055008
 20
393.9391280357154
 10
-1474.676329647321
 20
232.9191985164918
 10
-1505.694025873091
 20
232.9191985164918
 10
-1505.694025873091
 20
145.1119078773948
  0
LWPOLYLINE
  5
92
330
1121
100
AcDbEntity
  8
LAYER_1
100
AcDbPolyline
 90
        8
 70
     1
 43
0.0
 10
-1286.533535132344
 20
-145.2737633326226
 10
-1286.390784484051
 20
-388.5804954728005
 10
-1367.046577508395
 20
-388.5804954728007
 10
-1367.046577508395
 20
-354.2180208935538
 10
-1510.137148055008
 20
-393.9389051442112
 10
-1474.676329647321
 20
-232.9189756249877
 10
-1505.694025873091
 20
-232.9189756249877
 10
-1505.694025873091
 20
-145.1116849858907
  0
LWPOLYLINE
  5
93
330
1121
100
AcDbEntity
  8
LAYER_1
100
AcDbPolyline
 90
        6
 70
     1
 43
0.0
 10
-1286.807038912326
 20
-447.4431897485888
 10
-1286.807038912326
 20
-584.9998885542471
 10
-1571.921377589012
 20
-584.9998885542467
 10
-1537.421235871667
 20
-472.2164546832768
 10
-1410.789630056106
 20
-432.0289267000588
 10
-1349.707837112894
 20
-476.2422409944993
  0
LWPOLYLINE
  5
94
330
1121
100
AcDbEntity
  8
LAYER_1
100
AcDbPolyline
 90
        6
 70
     1
 43
0.0
 10
-1537.421235871667
 20
474.7956320980908
 10
-1571.132482505023
 20
585.0001114457507
 10
-1286.807038912326
 20
585.0001114457502
 10
-1286.807038912326
 20
450.0223671634051
 10
-1349.707837112894
 20
478.8214184093122
 10
-1410.789630056106
 20
434.6081041148758
  0
LWPOLYLINE
  5
95
330
1121
100
AcDbEntity
  8
LAYER_1
100
AcDbPolyline
 90
        8
 70
     1
 43
0.0
 10
-141.2348150603309
 20
145.2739862241267
 10
-141.0920644120388
 20
388.5807183643046
 10
-221.7478574363824
 20
388.5807183643049
 10
-221.7478574363824
 20
354.218243785058
 10
-364.8384279829963
 20
393.9391280357154
 10
-329.3776095753087
 20
232.9191985164918
 10
-360.3953058010779
 20
232.9191985164918
 10
-360.3953058010782
 20
145.1119078773948
  0
LWPOLYLINE
  5
96
330
1121
100
AcDbEntity
  8
LAYER_1
100
AcDbPolyline
 90
        8
 70
     1
 43
0.0
 10
-141.2348150603309
 20
-145.2737633326226
 10
-141.0920644120388
 20
-388.5804954728005
 10
-221.7478574363824
 20
-388.5804954728007
 10
-221.7478574363824
 20
-354.2180208935538
 10
-364.8384279829963
 20
-393.9389051442112
 10
-329.3776095753087
 20
-232.9189756249877
 10
-360.3953058010779
 20
-232.9189756249877
 10
-360.3953058010782
 20
-145.1116849858907
  0
LWPOLYLINE
  5
97
330
1121
100
AcDbEntity
  8
LAYER_1
100
AcDbPolyline
 90
        6
 70
     1
 43
0.0
 10
-141.5083188403132
 20
-447.4431897485888
 10
-141.5083188403134
 20
-584.9998885542471
 10
-426.6226575169989
 20
-584.9998885542467
 10
-392.1225157996546
 20
-472.2164546832768
 10
-265.4909099840934
 20
-432.0289267000588
 10
-204.4091170408815
 20
-476.2422409944993
  0
LWPOLYLINE
  5
98
330
1121
100
AcDbEntity
  8
LAYER_1
100
AcDbPolyline
 90
        6
 70
     1
 43
0.0
 10
-392.1225157996543
 20
474.7956320980908
 10
-425.8337624330104
 20
585.0001114457507
 10
-141.5083188403134
 20
585.0001114457502
 10
-141.5083188403134
 20
450.0223671634051
 10
-204.4091170408815
 20
478.8214184093122
 10
-265.4909099840936
 20
434.6081041148758
  0
LWPOLYLINE
  5
99
330
1121
100
AcDbEntity
  8
LAYER_1
100
AcDbPolyline
 90
        8
 70
     1
 43
0.0
 10
-1004.063905011682
 20
145.2739862241267
 10
-1004.206655659974
 20
388.5807183643046
 10
-923.5508626356303
 20
388.5807183643049
 10
-923.5508626356303
 20
354.218243785058
 10
-780.4602920890164
 20
393.9391280357154
 10
-815.9211104967038
 20
232.9191985164918
 10
-784.9034142709347
 20
232.9191985164918
 10
-784.9034142709345
 20
145.1119078773948
  0
LWPOLYLINE
  5
9A
330
1121
100
AcDbEntity
  8
LAYER_1
100
AcDbPolyline
 90
        6
 70
     1
 43
0.0
 10
-1003.790401231699
 20
-447.4431897485888
 10
-1003.790401231699
 20
-584.9998885542471
 10
-718.6760625550136
 20
-584.9998885542467
 10
-753.1762042723583
 20
-472.2164546832768
 10
-879.8078100879193
 20
-432.0289267000588
 10
-940.8896030311312
 20
-476.2422409944993
  0
ENDSEC
  0
SECTION
  2
OBJECTS
  0
DICTIONARY
  5
10B9
330
0
100
AcDbDictionary
281
     1
  3
ACAD_COLOR
350
1117
  3
ACAD_GROUP
350
10BA
  3
ACAD_LAYOUT
350
1116
  3
ACAD_MATERIAL
350
10BD
  3
ACAD_MLEADERSTYLE
350
111A
  3
ACAD_MLINESTYLE
350
1113
  3
ACAD_PLOTSETTINGS
350
1115
  3
ACAD_PLOTSTYLENAME
350
10BB
  3
ACAD_SCALELIST
350
10E7
  3
ACAD_TABLESTYLE
350
1118
  3
ACAD_VISUALSTYLE
350
10D6
  3
ACDB_RECOMPOSE_DATA
350
113B
  3
AcDbVariableDictionary
350
1132
  3
DWGPROPS
350
113C
  0
DICTIONARY
  5
112E
330
1109
100
AcDbDictionary
280
     1
281
     1
  3
ADSK_XREC_LAYER_RECONCILED
360
112F
  0
DICTIONARY
  5
1130
330
1127
100
AcDbDictionary
280
     1
281
     1
  3
ADSK_XREC_LAYER_RECONCILED
360
1131
  0
DICTIONARY
  5
1117
102
{ACAD_REACTORS
330
10B9
102
}
330
10B9
100
AcDbDictionary
281
     1
  0
DICTIONARY
  5
10BA
102
{ACAD_REACTORS
330
10B9
102
}
330
10B9
100
AcDbDictionary
281
     1
  0
DICTIONARY
  5
1116
102
{ACAD_REACTORS
330
10B9
102
}
330
10B9
100
AcDbDictionary
281
     1
  3
Model
350
1124
  3
Présentation1
350
1120
  0
DICTIONARY
  5
10BD
102
{ACAD_REACTORS
330
10B9
102
}
330
10B9
100
AcDbDictionary
281
     1
  3
ByBlock
350
10C6
  3
ByLayer
350
10BE
  3
Global
350
10CE
  0
DICTIONARY
  5
111A
102
{ACAD_REACTORS
330
10B9
102
}
330
10B9
100
AcDbDictionary
281
     1
  3
Standard
350
111B
  0
DICTIONARY
  5
1113
102
{ACAD_REACTORS
330
10B9
102
}
330
10B9
100
AcDbDictionary
281
     1
  3
Standard
350
1114
  0
DICTIONARY
  5
1115
102
{ACAD_REACTORS
330
10B9
102
}
330
10B9
100
AcDbDictionary
281
     1
  0
ACDBDICTIONARYWDFLT
  5
10BB
102
{ACAD_REACTORS
330
10B9
102
}
330
10B9
100
AcDbDictionary
281
     1
  3
Normal
350
10BC
100
AcDbDictionaryWithDefault
340
10BC
  0
DICTIONARY
  5
10E7
102
{ACAD_REACTORS
330
10B9
102
}
330
10B9
100
AcDbDictionary
281
     1
  3
A0
350
10E8
  3
A1
350
10E9
  3
A2
350
10EA
  3
A3
350
10EB
  3
A4
350
10EC
  3
A5
350
10ED
  3
A6
350
10EE
  3
A7
350
10EF
  3
A8
350
10F0
  3
A9
350
10F1
  3
B0
350
10F2
  3
B1
350
10F3
  3
B2
350
10F4
  3
B3
350
10F5
  3
B4
350
10F6
  3
B5
350
10F7
  3
B6
350
10F8
  3
B7
350
10F9
  3
B8
350
10FA
  3
B9
350
10FB
  3
C0
350
10FC
  3
C1
350
10FD
  3
C2
350
10FE
  3
C3
350
10FF
  3
C4
350
1100
  3
C5
350
1101
  3
C6
350
1102
  3
C7
350
1103
  3
C8
350
1104
  3
C9
350
1105
  3
D0
350
1106
  3
D1
350
1107
  3
D2
350
1108
  0
DICTIONARY
  5
1118
102
{ACAD_REACTORS
330
10B9
102
}
330
10B9
100
AcDbDictionary
281
     1
  3
Standard
350
1119
  0
DICTIONARY
  5
10D6
102
{ACAD_REACTORS
330
10B9
102
}
330
10B9
100
AcDbDictionary
281
     1
  3
2dWireframe
350
10DC
  3
3D Hidden
350
10DE
  3
3dWireframe
350
10DD
  3
Basic
350
10DB
  3
Brighten
350
10E2
  3
ColorChange
350
10E6
  3
Conceptual
350
10DF
  3
Dim
350
10E1
  3
Facepattern
350
10E5
  3
Flat
350
10D7
  3
FlatWithEdges
350
10D8
  3
Gouraud
350
10D9
  3
GouraudWithEdges
350
10DA
  3
Linepattern
350
10E4
  3
Realistic
350
10E0
  3
Thicken
350
10E3
  0
XRECORD
  5
113B
102
{ACAD_REACTORS
330
10B9
102
}
330
10B9
100
AcDbXrecord
280
     1
 90
        1
330
1119
  0
DICTIONARY
  5
1132
102
{ACAD_REACTORS
330
10B9
102
}
330
10B9
100
AcDbDictionary
281
     1
  3
CANNOSCALE
350
1135
  3
CMLEADERSTYLE
350
1134
  3
CTABLESTYLE
350
1133
  3
DIMASSOC
350
1138
  3
INDEXCTL
350
1137
  3
SORTENTS
350
1136
  0
XRECORD
  5
113C
102
{ACAD_REACTORS
330
10B9
102
}
330
10B9
100
AcDbXrecord
280
     1
  1
DWGPROPS COOKIE
  2

  3

  4

  6

  7

  8
user
  9

300
=
301
=
302
=
303
=
304
=
305
=
306
=
307
=
308
=
309
=
 40
0.0007461689814815
 41
2454910.5
 42
2457347.934954861
  1

 90
        0
  0
XRECORD
  5
112F
102
{ACAD_REACTORS
330
112E
102
}
330
112E
100
AcDbXrecord
280
     1
290
     1
  0
XRECORD
  5
1131
102
{ACAD_REACTORS
330
1130
102
}
330
1130
100
AcDbXrecord
280
     1
290
     1
  0
LAYOUT
  5
1124
102
{ACAD_XDICTIONARY
360
1143
102
}
102
{ACAD_REACTORS
330
1116
102
}
330
1116
100
AcDbPlotSettings
  1

  2
CutePDF Writer
  4

  6

 40
0.0
 41
0.0
 42
0.0
 43
0.0
 44
0.0
 45
0.0
 46
0.0
 47
0.0
 48
0.0
 49
0.0
140
0.0
141
0.0
142
1.0
143
1.0
 70
  1712
 72
     0
 73
     0
 74
     0
  7

 75
     0
147
1.0
148
0.0
149
0.0
100
AcDbLayout
  1
Model
 70
     1
 71
     0
 10
0.0
 20
0.0
 11
12.0
 21
9.0
 12
0.0
 22
0.0
 32
0.0
 14
0.0
 24
0.0
 34
0.0
 15
0.0
 25
0.0
 35
0.0
146
0.0
 13
0.0
 23
0.0
 33
0.0
 16
1.0
 26
0.0
 36
0.0
 17
0.0
 27
1.0
 37
0.0
 76
     0
330
1121
331
1125
  0
LAYOUT
  5
1120
102
{ACAD_XDICTIONARY
360
1141
102
}
102
{ACAD_REACTORS
330
1116
102
}
330
1116
100
AcDbPlotSettings
  1

  2
CutePDF Writer
  4

  6

 40
0.0
 41
0.0
 42
0.0
 43
0.0
 44
0.0
 45
0.0
 46
0.0
 47
0.0
 48
0.0
 49
0.0
140
0.0
141
0.0
142
1.0
143
1.0
 70
   688
 72
     0
 73
     0
 74
     5
  7

 75
    16
147
1.0
148
0.0
149
0.0
100
AcDbLayout
  1
Présentation1
 70
     1
 71
     1
 10
0.0
 20
0.0
 11
12.0
 21
9.0
 12
0.0
 22
0.0
 32
0.0
 14
1.000000000000000E+20
 24
1.000000000000000E+20
 34
1.000000000000000E+20
 15
-1.000000000000000E+20
 25
-1.000000000000000E+20
 35
-1.000000000000000E+20
146
0.0
 13
0.0
 23
0.0
 33
0.0
 16
1.0
 26
0.0
 36
0.0
 17
0.0
 27
1.0
 37
0.0
 76
     0
330
111D
  0
MATERIAL
  5
10C6
102
{ACAD_XDICTIONARY
360
10C7
102
}
102
{ACAD_REACTORS
330
10BD
102
}
330
10BD
100
AcDbMaterial
  1
ByBlock
 72
     0
 43
0.0208333333333333
 43
0.0
 43
0.0
 43
0.0
 43
0.0
 43
0.0208333333333333
 43
0.0
 43
0.0
 43
0.0
 43
0.0
 43
1.0
 43
0.0
 43
0.0
 43
0.0
 43
0.0
 43
1.0
 77
     0
 47
0.0208333333333333
 47
0.0
 47
0.0
 47
0.0
 47
0.0
 47
0.0208333333333333
 47
0.0
 47
0.0
 47
0.0
 47
0.0
 47
1.0
 47
0.0
 47
0.0
 47
0.0
 47
0.0
 47
1.0
171
     0
 49
0.0208333333333333
 49
0.0
 49
0.0
 49
0.0
 49
0.0
 49
0.0208333333333333
 49
0.0
 49
0.0
 49
0.0
 49
0.0
 49
1.0
 49
0.0
 49
0.0
 49
0.0
 49
0.0
 49
1.0
175
     0
142
0.0208333333333333
142
0.0
142
0.0
142
0.0
142
0.0
142
0.0208333333333333
142
0.0
142
0.0
142
0.0
142
0.0
142
1.0
142
0.0
142
0.0
142
0.0
142
0.0
142
1.0
179
     0
144
0.0208333333333333
144
0.0
144
0.0
144
0.0
144
0.0
144
0.0208333333333333
144
0.0
144
0.0
144
0.0
144
0.0
144
1.0
144
0.0
144
0.0
144
0.0
144
0.0
144
1.0
147
0.0208333333333333
147
0.0
147
0.0
147
0.0
147
0.0
147
0.0208333333333333
147
0.0
147
0.0
147
0.0
147
0.0
147
1.0
147
0.0
147
0.0
147
0.0
147
0.0
147
1.0
  0
MATERIAL
  5
10BE
102
{ACAD_XDICTIONARY
360
10BF
102
}
102
{ACAD_REACTORS
330
10BD
102
}
330
10BD
100
AcDbMaterial
  1
ByLayer
 72
     0
 43
0.0208333333333333
 43
0.0
 43
0.0
 43
0.0
 43
0.0
 43
0.0208333333333333
 43
0.0
 43
0.0
 43
0.0
 43
0.0
 43
1.0
 43
0.0
 43
0.0
 43
0.0
 43
0.0
 43
1.0
 77
     0
 47
0.0208333333333333
 47
0.0
 47
0.0
 47
0.0
 47
0.0
 47
0.0208333333333333
 47
0.0
 47
0.0
 47
0.0
 47
0.0
 47
1.0
 47
0.0
 47
0.0
 47
0.0
 47
0.0
 47
1.0
171
     0
 49
0.0208333333333333
 49
0.0
 49
0.0
 49
0.0
 49
0.0
 49
0.0208333333333333
 49
0.0
 49
0.0
 49
0.0
 49
0.0
 49
1.0
 49
0.0
 49
0.0
 49
0.0
 49
0.0
 49
1.0
175
     0
142
0.0208333333333333
142
0.0
142
0.0
142
0.0
142
0.0
142
0.0208333333333333
142
0.0
142
0.0
142
0.0
142
0.0
142
1.0
142
0.0
142
0.0
142
0.0
142
0.0
142
1.0
179
     0
144
0.0208333333333333
144
0.0
144
0.0
144
0.0
144
0.0
144
0.0208333333333333
144
0.0
144
0.0
144
0.0
144
0.0
144
1.0
144
0.0
144
0.0
144
0.0
144
0.0
144
1.0
147
0.0208333333333333
147
0.0
147
0.0
147
0.0
147
0.0
147
0.0208333333333333
147
0.0
147
0.0
147
0.0
147
0.0
147
1.0
147
0.0
147
0.0
147
0.0
147
0.0
147
1.0
  0
MATERIAL
  5
10CE
102
{ACAD_XDICTIONARY
360
10CF
102
}
102
{ACAD_REACTORS
330
10BD
102
}
330
10BD
100
AcDbMaterial
  1
Global
 72
     0
 43
0.0208333333333333
 43
0.0
 43
0.0
 43
0.0
 43
0.0
 43
0.0208333333333333
 43
0.0
 43
0.0
 43
0.0
 43
0.0
 43
1.0
 43
0.0
 43
0.0
 43
0.0
 43
0.0
 43
1.0
 77
     0
 47
0.0208333333333333
 47
0.0
 47
0.0
 47
0.0
 47
0.0
 47
0.0208333333333333
 47
0.0
 47
0.0
 47
0.0
 47
0.0
 47
1.0
 47
0.0
 47
0.0
 47
0.0
 47
0.0
 47
1.0
171
     0
 49
0.0208333333333333
 49
0.0
 49
0.0
 49
0.0
 49
0.0
 49
0.0208333333333333
 49
0.0
 49
0.0
 49
0.0
 49
0.0
 49
1.0
 49
0.0
 49
0.0
 49
0.0
 49
0.0
 49
1.0
175
     0
142
0.0208333333333333
142
0.0
142
0.0
142
0.0
142
0.0
142
0.0208333333333333
142
0.0
142
0.0
142
0.0
142
0.0
142
1.0
142
0.0
142
0.0
142
0.0
142
0.0
142
1.0
179
     0
144
0.0208333333333333
144
0.0
144
0.0
144
0.0
144
0.0
144
0.0208333333333333
144
0.0
144
0.0
144
0.0
144
0.0
144
1.0
144
0.0
144
0.0
144
0.0
144
0.0
144
1.0
147
0.0208333333333333
147
0.0
147
0.0
147
0.0
147
0.0
147
0.0208333333333333
147
0.0
147
0.0
147
0.0
147
0.0
147
1.0
147
0.0
147
0.0
147
0.0
147
0.0
147
1.0
  0
MLEADERSTYLE
  5
111B
102
{ACAD_REACTORS
330
111A
102
}
330
111A
100
AcDbMLeaderStyle
170
     2
171
     1
172
     0
 90
        2
 40
0.0
 41
0.0
173
     1
 91
-1056964608
340
110F
 92
       -2
290
     1
 42
0.09
291
     1
 43
0.36
  3
Standard
 44
0.18
300

342
110A
174
     1
178
     6
175
     1
176
     0
 93
-1056964608
 45
0.18
292
     0
297
     0
 46
0.18
 94
-1056964608
 47
1.0
 49
1.0
140
1.0
293
     1
141
0.0
294
     1
177
     0
142
1.0
295
     0
296
     0
143
0.125
1001
ACAD_MLEADERVER
1070
     2
  0
MLINESTYLE
  5
1114
102
{ACAD_REACTORS
330
1113
102
}
330
1113
100
AcDbMlineStyle
  2
STANDARD
 70
     0
  3

 62
   256
 51
90.0
 52
90.0
 71
     2
 49
0.5
 62
   256
  6
BYLAYER
 49
-0.5
 62
   256
  6
BYLAYER
  0
ACDBPLACEHOLDER
  5
10BC
102
{ACAD_REACTORS
330
10BB
102
}
330
10BB
  0
SCALE
  5
10E8
102
{ACAD_REACTORS
330
10E7
102
}
330
10E7
100
AcDbScale
 70
     0
300
1:1
140
1.0
141
1.0
290
     1
  0
SCALE
  5
10E9
102
{ACAD_REACTORS
330
10E7
102
}
330
10E7
100
AcDbScale
 70
     0
300
1:2
140
1.0
141
2.0
290
     0
  0
SCALE
  5
10EA
102
{ACAD_REACTORS
330
10E7
102
}
330
10E7
100
AcDbScale
 70
     0
300
1:4
140
1.0
141
4.0
290
     0
  0
SCALE
  5
10EB
102
{ACAD_REACTORS
330
10E7
102
}
330
10E7
100
AcDbScale
 70
     0
300
1:5
140
1.0
141
5.0
290
     0
  0
SCALE
  5
10EC
102
{ACAD_REACTORS
330
10E7
102
}
330
10E7
100
AcDbScale
 70
     0
300
1:8
140
1.0
141
8.0
290
     0
  0
SCALE
  5
10ED
102
{ACAD_REACTORS
330
10E7
102
}
330
10E7
100
AcDbScale
 70
     0
300
1:10
140
1.0
141
10.0
290
     0
  0
SCALE
  5
10EE
102
{ACAD_REACTORS
330
10E7
102
}
330
10E7
100
AcDbScale
 70
     0
300
1:16
140
1.0
141
16.0
290
     0
  0
SCALE
  5
10EF
102
{ACAD_REACTORS
330
10E7
102
}
330
10E7
100
AcDbScale
 70
     0
300
1:20
140
1.0
141
20.0
290
     0
  0
SCALE
  5
10F0
102
{ACAD_REACTORS
330
10E7
102
}
330
10E7
100
AcDbScale
 70
     0
300
1:30
140
1.0
141
30.0
290
     0
  0
SCALE
  5
10F1
102
{ACAD_REACTORS
330
10E7
102
}
330
10E7
100
AcDbScale
 70
     0
300
1:40
140
1.0
141
40.0
290
     0
  0
SCALE
  5
10F2
102
{ACAD_REACTORS
330
10E7
102
}
330
10E7
100
AcDbScale
 70
     0
300
1:50
140
1.0
141
50.0
290
     0
  0
SCALE
  5
10F3
102
{ACAD_REACTORS
330
10E7
102
}
330
10E7
100
AcDbScale
 70
     0
300
1:100
140
1.0
141
100.0
290
     0
  0
SCALE
  5
10F4
102
{ACAD_REACTORS
330
10E7
102
}
330
10E7
100
AcDbScale
 70
     0
300
2:1
140
2.0
141
1.0
290
     0
  0
SCALE
  5
10F5
102
{ACAD_REACTORS
330
10E7
102
}
330
10E7
100
AcDbScale
 70
     0
300
4:1
140
4.0
141
1.0
290
     0
  0
SCALE
  5
10F6
102
{ACAD_REACTORS
330
10E7
102
}
330
10E7
100
AcDbScale
 70
     0
300
8:1
140
8.0
141
1.0
290
     0
  0
SCALE
  5
10F7
102
{ACAD_REACTORS
330
10E7
102
}
330
10E7
100
AcDbScale
 70
     0
300
10:1
140
10.0
141
1.0
290
     0
  0
SCALE
  5
10F8
102
{ACAD_REACTORS
330
10E7
102
}
330
10E7
100
AcDbScale
 70
     0
300
100:1
140
100.0
141
1.0
290
     0
  0
SCALE
  5
10F9
102
{ACAD_REACTORS
330
10E7
102
}
330
10E7
100
AcDbScale
 70
     0
300
1/128" = 1'-0"
140
0.0078125
141
12.0
290
     0
  0
SCALE
  5
10FA
102
{ACAD_REACTORS
330
10E7
102
}
330
10E7
100
AcDbScale
 70
     0
300
1/64" = 1'-0"
140
0.015625
141
12.0
290
     0
  0
SCALE
  5
10FB
102
{ACAD_REACTORS
330
10E7
102
}
330
10E7
100
AcDbScale
 70
     0
300
1/32" = 1'-0"
140
0.03125
141
12.0
290
     0
  0
SCALE
  5
10FC
102
{ACAD_REACTORS
330
10E7
102
}
330
10E7
100
AcDbScale
 70
     0
300
1/16" = 1'-0"
140
0.0625
141
12.0
290
     0
  0
SCALE
  5
10FD
102
{ACAD_REACTORS
330
10E7
102
}
330
10E7
100
AcDbScale
 70
     0
300
3/32" = 1'-0"
140
0.09375
141
12.0
290
     0
  0
SCALE
  5
10FE
102
{ACAD_REACTORS
330
10E7
102
}
330
10E7
100
AcDbScale
 70
     0
300
1/8" = 1'-0"
140
0.125
141
12.0
290
     0
  0
SCALE
  5
10FF
102
{ACAD_REACTORS
330
10E7
102
}
330
10E7
100
AcDbScale
 70
     0
300
3/16" = 1'-0"
140
0.1875
141
12.0
290
     0
  0
SCALE
  5
1100
102
{ACAD_REACTORS
330
10E7
102
}
330
10E7
100
AcDbScale
 70
     0
300
1/4" = 1'-0"
140
0.25
141
12.0
290
     0
  0
SCALE
  5
1101
102
{ACAD_REACTORS
330
10E7
102
}
330
10E7
100
AcDbScale
 70
     0
300
3/8" = 1'-0"
140
0.375
141
12.0
290
     0
  0
SCALE
  5
1102
102
{ACAD_REACTORS
330
10E7
102
}
330
10E7
100
AcDbScale
 70
     0
300
1/2" = 1'-0"
140
0.5
141
12.0
290
     0
  0
SCALE
  5
1103
102
{ACAD_REACTORS
330
10E7
102
}
330
10E7
100
AcDbScale
 70
     0
300
3/4" = 1'-0"
140
0.75
141
12.0
290
     0
  0
SCALE
  5
1104
102
{ACAD_REACTORS
330
10E7
102
}
330
10E7
100
AcDbScale
 70
     0
300
1" = 1'-0"
140
1.0
141
12.0
290
     0
  0
SCALE
  5
1105
102
{ACAD_REACTORS
330
10E7
102
}
330
10E7
100
AcDbScale
 70
     0
300
1-1/2" = 1'-0"
140
1.5
141
12.0
290
     0
  0
SCALE
  5
1106
102
{ACAD_REACTORS
330
10E7
102
}
330
10E7
100
AcDbScale
 70
     0
300
3" = 1'-0"
140
3.0
141
12.0
290
     0
  0
SCALE
  5
1107
102
{ACAD_REACTORS
330
10E7
102
}
330
10E7
100
AcDbScale
 70
     0
300
6" = 1'-0"
140
6.0
141
12.0
290
     0
  0
SCALE
  5
1108
102
{ACAD_REACTORS
330
10E7
102
}
330
10E7
100
AcDbScale
 70
     0
300
1'-0" = 1'-0"
140
12.0
141
12.0
290
     0
  0
TABLESTYLE
  5
1119
102
{ACAD_XDICTIONARY
360
1139
102
}
102
{ACAD_REACTORS
330
1118
102
}
330
1118
100
AcDbTableStyle
  3
Standard
 70
     0
 71
     0
 40
0.06
 41
0.06
280
     0
281
     0
  7
STANDARD
140
0.18
170
     2
 62
     0
 63
     7
283
     0
274
    -2
284
     1
 64
     0
275
    -2
285
     1
 65
     0
276
    -2
286
     1
 66
     0
277
    -2
287
     1
 67
     0
278
    -2
288
     1
 68
     0
279
    -2
289
     1
 69
     0
  7
STANDARD
140
0.25
170
     5
 62
     0
 63
     7
283
     0
274
    -2
284
     1
 64
     0
275
    -2
285
     1
 65
     0
276
    -2
286
     1
 66
     0
277
    -2
287
     1
 67
     0
278
    -2
288
     1
 68
     0
279
    -2
289
     1
 69
     0
  7
STANDARD
140
0.18
170
     5
 62
     0
 63
     7
283
     0
274
    -2
284
     1
 64
     0
275
    -2
285
     1
 65
     0
276
    -2
286
     1
 66
     0
277
    -2
287
     1
 67
     0
278
    -2
288
     1
 68
     0
279
    -2
289
     1
 69
     0
  0
VISUALSTYLE
  5
10DC
102
{ACAD_REACTORS
330
10D6
102
}
330
10D6
100
AcDbVisualStyle
  2
2dWireframe
 70
     4
 71
     0
 72
     2
 73
     0
 90
        0
 40
-0.6
 41
-30.0
 62
     5
 63
     7
 74
     1
 91
        4
 64
     7
 65
   257
 75
     1
175
     1
 42
1.0
 92
        0
 66
   257
 43
1.0
 76
     1
 77
     6
 78
     2
 67
     7
 79
     5
170
     0
171
     0
290
     0
174
     0
 93
        1
 44
0.0
173
     0
291
     0
 45
0.0
1001
ACAD
1000
AcDbSavedByObjectVersion
1070
     0
  0
VISUALSTYLE
  5
10DE
102
{ACAD_REACTORS
330
10D6
102
}
330
10D6
100
AcDbVisualStyle
  2
3D Hidden
 70
     6
 71
     1
 72
     2
 73
     2
 90
        0
 40
-0.6
 41
-30.0
 62
     5
 63
     7
 74
     2
 91
        2
 64
     7
 65
   257
 75
     2
175
     1
 42
40.0
 92
        0
 66
   257
 43
1.0
 76
     1
 77
     6
 78
     2
 67
     7
 79
     3
170
     0
171
     0
290
     0
174
     0
 93
        1
 44
0.0
173
     0
291
     0
 45
0.0
1001
ACAD
1000
AcDbSavedByObjectVersion
1070
     0
  0
VISUALSTYLE
  5
10DD
102
{ACAD_REACTORS
330
10D6
102
}
330
10D6
100
AcDbVisualStyle
  2
3dWireframe
 70
     5
 71
     0
 72
     2
 73
     0
 90
        0
 40
-0.6
 41
-30.0
 62
     5
 63
     7
 74
     1
 91
        4
 64
     7
 65
   257
 75
     1
175
     1
 42
1.0
 92
        0
 66
   257
 43
1.0
 76
     1
 77
     6
 78
     2
 67
     7
 79
     5
170
     0
171
     0
290
     0
174
     0
 93
        1
 44
0.0
173
     0
291
     0
 45
0.0
1001
ACAD
1000
AcDbSavedByObjectVersion
1070
     0
  0
VISUALSTYLE
  5
10DB
102
{ACAD_REACTORS
330
10D6
102
}
330
10D6
100
AcDbVisualStyle
  2
Basic
 70
     7
 71
     1
 72
     0
 73
     1
 90
        0
 40
-0.6
 41
-30.0
 62
     5
 63
     7
 74
     0
 91
        4
 64
     7
 65
   257
 75
     1
175
     1
 42
1.0
 92
        8
 66
     7
 43
1.0
 76
     1
 77
     6
 78
     2
 67
     7
 79
     5
170
     0
171
     0
290
     0
174
     0
 93
        1
 44
0.0
173
     0
291
     1
 45
0.0
1001
ACAD
1000
AcDbSavedByObjectVersion
1070
     0
  0
VISUALSTYLE
  5
10E2
102
{ACAD_REACTORS
330
10D6
102
}
330
10D6
100
AcDbVisualStyle
  2
Brighten
 70
    12
 71
     2
 72
     2
 73
     0
 90
        0
 40
-0.6
 41
-30.0
 62
     5
 63
     7
 74
     1
 91
        4
 64
     7
 65
   257
 75
     1
175
     1
 42
1.0
 92
        8
 66
     7
 43
1.0
 76
     1
 77
     6
 78
     2
 67
     7
 79
     5
170
     0
171
     0
290
     0
174
     0
 93
        1
 44
50.0
173
     0
291
     1
 45
0.0
1001
ACAD
1000
AcDbSavedByObjectVersion
1070
     0
  0
VISUALSTYLE
  5
10E6
102
{ACAD_REACTORS
330
10D6
102
}
330
10D6
100
AcDbVisualStyle
  2
ColorChange
 70
    16
 71
     2
 72
     2
 73
     3
 90
        0
 40
-0.6
 41
-30.0
 62
     5
 63
     8
 74
     1
 91
        4
 64
     7
 65
   257
 75
     1
175
     1
 42
1.0
 92
        8
 66
     8
 43
1.0
 76
     1
 77
     6
 78
     2
 67
     7
 79
     5
170
     0
171
     0
290
     0
174
     0
 93
        1
 44
0.0
173
     0
291
     1
 45
0.0
1001
ACAD
1000
AcDbSavedByObjectVersion
1070
     0
  0
VISUALSTYLE
  5
10DF
102
{ACAD_REACTORS
330
10D6
102
}
330
10D6
100
AcDbVisualStyle
  2
Conceptual
 70
     9
 71
     3
 72
     2
 73
     0
 90
        0
 40
-0.6
 41
-30.0
 62
     5
 63
     7
 74
     2
 91
        2
 64
     7
 65
   257
 75
     1
175
     1
 42
40.0
 92
        8
 66
     7
 43
1.0
 76
     1
 77
     6
 78
     2
 67
     7
 79
     3
170
     0
171
     0
290
     0
174
     0
 93
        1
 44
0.0
173
     0
291
     0
 45
0.0
1001
ACAD
1000
AcDbSavedByObjectVersion
1070
     0
  0
VISUALSTYLE
  5
10E1
102
{ACAD_REACTORS
330
10D6
102
}
330
10D6
100
AcDbVisualStyle
  2
Dim
 70
    11
 71
     2
 72
     2
 73
     0
 90
        0
 40
-0.6
 41
-30.0
 62
     5
 63
     7
 74
     1
 91
        4
 64
     7
 65
   257
 75
     1
175
     1
 42
1.0
 92
        8
 66
     7
 43
1.0
 76
     1
 77
     6
 78
     2
 67
     7
 79
     5
170
     0
171
     0
290
     0
174
     0
 93
        1
 44
-50.0
173
     0
291
     1
 45
0.0
1001
ACAD
1000
AcDbSavedByObjectVersion
1070
     0
  0
VISUALSTYLE
  5
10E5
102
{ACAD_REACTORS
330
10D6
102
}
330
10D6
100
AcDbVisualStyle
  2
Facepattern
 70
    15
 71
     2
 72
     2
 73
     0
 90
        0
 40
-0.6
 41
-30.0
 62
     5
 63
     7
 74
     1
 91
        4
 64
     7
 65
   257
 75
     1
175
     1
 42
1.0
 92
        8
 66
     7
 43
1.0
 76
     1
 77
     6
 78
     2
 67
     7
 79
     5
170
     0
171
     0
290
     0
174
     0
 93
        1
 44
0.0
173
     0
291
     1
 45
0.0
1001
ACAD
1000
AcDbSavedByObjectVersion
1070
     0
  0
VISUALSTYLE
  5
10D7
102
{ACAD_REACTORS
330
10D6
102
}
330
10D6
100
AcDbVisualStyle
  2
Flat
 70
     0
 71
     2
 72
     1
 73
     1
 90
        2
 40
-0.6
 41
30.0
 62
     5
 63
     7
 74
     0
 91
        4
 64
     7
 65
   257
 75
     1
175
     1
 42
1.0
 92
        8
 66
     7
 43
1.0
 76
     1
 77
     6
 78
     2
 67
     7
 79
     5
170
     0
171
     0
290
     0
174
     0
 93
       13
 44
0.0
173
     0
291
     1
 45
0.0
1001
ACAD
1000
AcDbSavedByObjectVersion
1070
     0
  0
VISUALSTYLE
  5
10D8
102
{ACAD_REACTORS
330
10D6
102
}
330
10D6
100
AcDbVisualStyle
  2
FlatWithEdges
 70
     1
 71
     2
 72
     1
 73
     1
 90
        2
 40
-0.6
 41
30.0
 62
     5
 63
     7
 74
     1
 91
        4
 64
     7
 65
   257
 75
     1
175
     1
 42
1.0
 92
        0
 66
   257
 43
1.0
 76
     1
 77
     6
 78
     2
 67
     7
 79
     5
170
     0
171
     0
290
     0
174
     0
 93
       13
 44
0.0
173
     0
291
     1
 45
0.0
1001
ACAD
1000
AcDbSavedByObjectVersion
1070
     0
  0
VISUALSTYLE
  5
10D9
102
{ACAD_REACTORS
330
10D6
102
}
330
10D6
100
AcDbVisualStyle
  2
Gouraud
 70
     2
 71
     2
 72
     2
 73
     1
 90
        2
 40
-0.6
 41
30.0
 62
     5
 63
     7
 74
     0
 91
        4
 64
     7
 65
   257
 75
     1
175
     1
 42
1.0
 92
        0
 66
     7
 43
1.0
 76
     1
 77
     6
 78
     2
 67
     7
 79
     5
170
     0
171
     0
290
     0
174
     0
 93
       13
 44
0.0
173
     0
291
     1
 45
0.0
1001
ACAD
1000
AcDbSavedByObjectVersion
1070
     0
  0
VISUALSTYLE
  5
10DA
102
{ACAD_REACTORS
330
10D6
102
}
330
10D6
100
AcDbVisualStyle
  2
GouraudWithEdges
 70
     3
 71
     2
 72
     2
 73
     1
 90
        2
 40
-0.6
 41
30.0
 62
     5
 63
     7
 74
     1
 91
        4
 64
     7
 65
   257
 75
     1
175
     1
 42
1.0
 92
        0
 66
   257
 43
1.0
 76
     1
 77
     6
 78
     2
 67
     7
 79
     5
170
     0
171
     0
290
     0
174
     0
 93
       13
 44
0.0
173
     0
291
     1
 45
0.0
1001
ACAD
1000
AcDbSavedByObjectVersion
1070
     0
  0
VISUALSTYLE
  5
10E4
102
{ACAD_REACTORS
330
10D6
102
}
330
10D6
100
AcDbVisualStyle
  2
Linepattern
 70
    14
 71
     2
 72
     2
 73
     0
 90
        0
 40
-0.6
 41
-30.0
 62
     5
 63
     7
 74
     1
 91
        4
 64
     7
 65
   257
 75
     7
175
     7
 42
1.0
 92
        8
 66
     7
 43
1.0
 76
     1
 77
     6
 78
     2
 67
     7
 79
     5
170
     0
171
     0
290
     0
174
     0
 93
        1
 44
0.0
173
     0
291
     1
 45
0.0
1001
ACAD
1000
AcDbSavedByObjectVersion
1070
     0
  0
VISUALSTYLE
  5
10E0
102
{ACAD_REACTORS
330
10D6
102
}
330
10D6
100
AcDbVisualStyle
  2
Realistic
 70
     8
 71
     2
 72
     2
 73
     0
 90
        0
 40
-0.6
 41
-30.0
 62
     5
 63
     7
 74
     1
 91
        0
 64
     7
 65
   257
 75
     1
175
     1
 42
1.0
 92
        8
 66
     8
 43
1.0
 76
     1
 77
     6
 78
     2
 67
     7
 79
     5
170
     0
171
     0
290
     0
174
     0
 93
       13
 44
0.0
173
     0
291
     0
 45
0.0
1001
ACAD
1000
AcDbSavedByObjectVersion
1070
     0
  0
VISUALSTYLE
  5
10E3
102
{ACAD_REACTORS
330
10D6
102
}
330
10D6
100
AcDbVisualStyle
  2
Thicken
 70
    13
 71
     2
 72
     2
 73
     0
 90
        0
 40
-0.6
 41
-30.0
 62
     5
 63
     7
 74
     1
 91
        4
 64
     7
 65
   257
 75
     1
175
     1
 42
1.0
 92
       12
 66
     7
 43
1.0
 76
     1
 77
     6
 78
     2
 67
     7
 79
     5
170
     0
171
     0
290
     0
174
     0
 93
        1
 44
0.0
173
     0
291
     1
 45
0.0
1001
ACAD
1000
AcDbSavedByObjectVersion
1070
     0
  0
DICTIONARYVAR
  5
1135
102
{ACAD_REACTORS
330
1132
102
}
330
1132
100
DictionaryVariables
280
     0
  1
1:1
  0
DICTIONARYVAR
  5
1134
102
{ACAD_REACTORS
330
1132
102
}
330
1132
100
DictionaryVariables
280
     0
  1
STANDARD
  0
DICTIONARYVAR
  5
1133
102
{ACAD_REACTORS
330
1132
102
}
330
1132
100
DictionaryVariables
280
     0
  1
STANDARD
  0
DICTIONARYVAR
  5
1138
102
{ACAD_REACTORS
330
1132
102
}
330
1132
100
DictionaryVariables
280
     0
  1
1
  0
DICTIONARYVAR
  5
1137
102
{ACAD_REACTORS
330
1132
102
}
330
1132
100
DictionaryVariables
280
     0
  1
0
  0
DICTIONARYVAR
  5
1136
102
{ACAD_REACTORS
330
1132
102
}
330
1132
100
DictionaryVariables
280
     0
  1
127
  0
DICTIONARY
  5
1143
330
1124
100
AcDbDictionary
280
     1
281
     1
  3
ACAD_XREC_ROUNDTRIP
360
1144
  0
DICTIONARY
  5
1141
330
1120
100
AcDbDictionary
280
     1
281
     1
  3
ACAD_XREC_ROUNDTRIP
360
1142
  0
DICTIONARY
  5
10C7
330
10C6
100
AcDbDictionary
280
     1
281
     1
  3
ACAD_XREC_ROUNDTRIP
360
113E
  3
BUMPTILE
360
10C9
  3
DIFFUSETILE
360
10C8
  3
OPACITYTILE
360
10CC
  3
REFLECTIONTILE
360
10CB
  3
REFRACTIONTILE
360
10CD
  3
SPECULARTILE
360
10CA
  0
DICTIONARY
  5
10BF
330
10BE
100
AcDbDictionary
280
     1
281
     1
  3
ACAD_XREC_ROUNDTRIP
360
113D
  3
BUMPTILE
360
10C1
  3
DIFFUSETILE
360
10C0
  3
OPACITYTILE
360
10C4
  3
REFLECTIONTILE
360
10C3
  3
REFRACTIONTILE
360
10C5
  3
SPECULARTILE
360
10C2
  0
DICTIONARY
  5
10CF
330
10CE
100
AcDbDictionary
280
     1
281
     1
  3
ACAD_XREC_ROUNDTRIP
360
113F
  3
BUMPTILE
360
10D1
  3
DIFFUSETILE
360
10D0
  3
OPACITYTILE
360
10D4
  3
REFLECTIONTILE
360
10D3
  3
REFRACTIONTILE
360
10D5
  3
SPECULARTILE
360
10D2
  0
DICTIONARY
  5
1139
330
1119
100
AcDbDictionary
280
     1
281
     1
  3
ACAD_ROUNDTRIP_2008_TABLESTYLE_CELLSTYLEMAP
360
113A
  3
ACAD_XREC_ROUNDTRIP
360
1140
  0
XRECORD
  5
1144
102
{ACAD_REACTORS
330
1143
102
}
330
1143
100
AcDbXrecord
280
     1
102
SHADEPLOT
 70
     0
102
SHADEPLOTRESLEVEL
 70
     2
102
SHADEPLOTCUSTOMDPI
 70
   300
  0
XRECORD
  5
1142
102
{ACAD_REACTORS
330
1141
102
}
330
1141
100
AcDbXrecord
280
     1
102
SHADEPLOT
 70
     0
102
SHADEPLOTRESLEVEL
 70
     2
102
SHADEPLOTCUSTOMDPI
 70
   300
  0
XRECORD
  5
113E
102
{ACAD_REACTORS
330
10C7
102
}
330
10C7
100
AcDbXrecord
280
     1
102
MATERIAL
148
0.0
149
0.0
149
0.0
 93
        0
 94
      127
282
     0
 72
     0
 77
     0
171
     0
175
     0
179
     0
273
     0
  0
XRECORD
  5
10C9
102
{ACAD_REACTORS
330
10C7
102
}
330
10C7
100
AcDbXrecord
280
     1
270
     1
271
     1
  0
XRECORD
  5
10C8
102
{ACAD_REACTORS
330
10C7
102
}
330
10C7
100
AcDbXrecord
280
     1
270
     1
271
     1
  0
XRECORD
  5
10CC
102
{ACAD_REACTORS
330
10C7
102
}
330
10C7
100
AcDbXrecord
280
     1
270
     1
271
     1
  0
XRECORD
  5
10CB
102
{ACAD_REACTORS
330
10C7
102
}
330
10C7
100
AcDbXrecord
280
     1
270
     1
271
     1
  0
XRECORD
  5
10CD
102
{ACAD_REACTORS
330
10C7
102
}
330
10C7
100
AcDbXrecord
280
     1
270
     1
271
     1
  0
XRECORD
  5
10CA
102
{ACAD_REACTORS
330
10C7
102
}
330
10C7
100
AcDbXrecord
280
     1
270
     1
271
     1
  0
XRECORD
  5
113D
102
{ACAD_REACTORS
330
10BF
102
}
330
10BF
100
AcDbXrecord
280
     1
102
MATERIAL
148
0.0
149
0.0
149
0.0
 93
        0
 94
      127
282
     0
 72
     0
 77
     0
171
     0
175
     0
179
     0
273
     0
  0
XRECORD
  5
10C1
102
{ACAD_REACTORS
330
10BF
102
}
330
10BF
100
AcDbXrecord
280
     1
270
     1
271
     1
  0
XRECORD
  5
10C0
102
{ACAD_REACTORS
330
10BF
102
}
330
10BF
100
AcDbXrecord
280
     1
270
     1
271
     1
  0
XRECORD
  5
10C4
102
{ACAD_REACTORS
330
10BF
102
}
330
10BF
100
AcDbXrecord
280
     1
270
     1
271
     1
  0
XRECORD
  5
10C3
102
{ACAD_REACTORS
330
10BF
102
}
330
10BF
100
AcDbXrecord
280
     1
270
     1
271
     1
  0
XRECORD
  5
10C5
102
{ACAD_REACTORS
330
10BF
102
}
330
10BF
100
AcDbXrecord
280
     1
270
     1
271
     1
  0
XRECORD
  5
10C2
102
{ACAD_REACTORS
330
10BF
102
}
330
10BF
100
AcDbXrecord
280
     1
270
     1
271
     1
  0
XRECORD
  5
113F
102
{ACAD_REACTORS
330
10CF
102
}
330
10CF
100
AcDbXrecord
280
     1
102
MATERIAL
148
0.0
149
0.0
149
0.0
 93
        0
 94
      127
282
     0
 72
     0
 77
     0
171
     0
175
     0
179
     0
273
     0
  0
XRECORD
  5
10D1
102
{ACAD_REACTORS
330
10CF
102
}
330
10CF
100
AcDbXrecord
280
     1
270
     1
271
     1
  0
XRECORD
  5
10D0
102
{ACAD_REACTORS
330
10CF
102
}
330
10CF
100
AcDbXrecord
280
     1
270
     1
271
     1
  0
XRECORD
  5
10D4
102
{ACAD_REACTORS
330
10CF
102
}
330
10CF
100
AcDbXrecord
280
     1
270
     1
271
     1
  0
XRECORD
  5
10D3
102
{ACAD_REACTORS
330
10CF
102
}
330
10CF
100
AcDbXrecord
280
     1
270
     1
271
     1
  0
XRECORD
  5
10D5
102
{ACAD_REACTORS
330
10CF
102
}
330
10CF
100
AcDbXrecord
280
     1
270
     1
271
     1
  0
XRECORD
  5
10D2
102
{ACAD_REACTORS
330
10CF
102
}
330
10CF
100
AcDbXrecord
280
     1
270
     1
271
     1
  0
CELLSTYLEMAP
  5
113A
102
{ACAD_REACTORS
330
1139
102
}
330
1139
100
AcDbCellStyleMap
 90
        3
300
CELLSTYLE
  1
TABLEFORMAT_BEGIN
 90
        5
170
     1
 91
        0
 92
    32768
 62
   257
 93
        1
300
CONTENTFORMAT
  1
CONTENTFORMAT_BEGIN
 90
        0
 91
        0
 92
      512
 93
        0
300

 40
0.0
140
1.0
 94
        5
 62
     0
340
110A
144
0.25
309
CONTENTFORMAT_END
171
     0
 94
        0
309
TABLEFORMAT_END
  1
CELLSTYLE_BEGIN
 90
        1
 91
        1
300
_TITLE
309
CELLSTYLE_END
300
CELLSTYLE
  1
TABLEFORMAT_BEGIN
 90
        5
170
     1
 91
        0
 92
        0
 62
   257
 93
        1
300
CONTENTFORMAT
  1
CONTENTFORMAT_BEGIN
 90
        0
 91
        0
 92
      512
 93
        0
300

 40
0.0
140
1.0
 94
        5
 62
     0
340
110A
144
0.18
309
CONTENTFORMAT_END
171
     0
 94
        0
309
TABLEFORMAT_END
  1
CELLSTYLE_BEGIN
 90
        2
 91
        1
300
_HEADER
309
CELLSTYLE_END
300
CELLSTYLE
  1
TABLEFORMAT_BEGIN
 90
        5
170
     1
 91
        0
 92
        0
 62
   257
 93
        1
300
CONTENTFORMAT
  1
CONTENTFORMAT_BEGIN
 90
        0
 91
        0
 92
      512
 93
        0
300

 40
0.0
140
1.0
 94
        2
 62
     0
340
110A
144
0.18
309
CONTENTFORMAT_END
171
     0
 94
        0
309
TABLEFORMAT_END
  1
CELLSTYLE_BEGIN
 90
        3
 91
        2
300
_DATA
309
CELLSTYLE_END
  0
XRECORD
  5
1140
102
{ACAD_REACTORS
330
1139
102
}
330
1139
100
AcDbXrecord
280
     1
102
ACAD_ROUNDTRIP_PRE2007_TABLESTYLE
 90
      512
 91
        0
  1

 92
      512
 93
        0
  2

 94
      512
 95
        0
  3

  0
ENDSEC
  0
EOF
