  0
SECTION
  2
HEADER
  9
$ACADVER
  1
AC1015
  9
$ACADMAINTVER
 70
    20
  9
$DWGCODEPAGE
  3
ANSI_1252
  9
$INSBASE
 10
0.0
 20
0.0
 30
0.0
  9
$EXTMIN
 10
1132.587963843244
 20
-327.4320184137314
 30
-0.0015258207003583
  9
$EXTMAX
 10
1637.745731987467
 20
362.6100958441329
 30
0.0000000349246037
  9
$LIMMIN
 10
0.0
 20
0.0
  9
$LIMMAX
 10
12.0
 20
9.0
  9
$ORTHOMODE
 70
     0
  9
$REGENMODE
 70
     1
  9
$FILLMODE
 70
     1
  9
$QTEXTMODE
 70
     0
  9
$MIRRTEXT
 70
     1
  9
$LTSCALE
 40
1.0
  9
$ATTMODE
 70
     1
  9
$TEXTSIZE
 40
0.2
  9
$TRACEWID
 40
0.05
  9
$TEXTSTYLE
  7
STANDARD
  9
$CLAYER
  8
0
  9
$CELTYPE
  6
ByLayer
  9
$CECOLOR
 62
   256
  9
$CELTSCALE
 40
1.0
  9
$DISPSILH
 70
     0
  9
$DIMSCALE
 40
1.0
  9
$DIMASZ
 40
0.18
  9
$DIMEXO
 40
0.0625
  9
$DIMDLI
 40
0.38
  9
$DIMRND
 40
0.0
  9
$DIMDLE
 40
0.0
  9
$DIMEXE
 40
0.18
  9
$DIMTP
 40
0.0
  9
$DIMTM
 40
0.0
  9
$DIMTXT
 40
0.18
  9
$DIMCEN
 40
0.09
  9
$DIMTSZ
 40
0.0
  9
$DIMTOL
 70
     0
  9
$DIMLIM
 70
     0
  9
$DIMTIH
 70
     1
  9
$DIMTOH
 70
     1
  9
$DIMSE1
 70
     0
  9
$DIMSE2
 70
     0
  9
$DIMTAD
 70
     0
  9
$DIMZIN
 70
     0
  9
$DIMBLK
  1

  9
$DIMASO
 70
     1
  9
$DIMSHO
 70
     1
  9
$DIMPOST
  1

  9
$DIMAPOST
  1

  9
$DIMALT
 70
     0
  9
$DIMALTD
 70
     2
  9
$DIMALTF
 40
25.4
  9
$DIMLFAC
 40
1.0
  9
$DIMTOFL
 70
     0
  9
$DIMTVP
 40
0.0
  9
$DIMTIX
 70
     0
  9
$DIMSOXD
 70
     0
  9
$DIMSAH
 70
     0
  9
$DIMBLK1
  1

  9
$DIMBLK2
  1

  9
$DIMSTYLE
  2
STANDARD
  9
$DIMCLRD
 70
     0
  9
$DIMCLRE
 70
     0
  9
$DIMCLRT
 70
     0
  9
$DIMTFAC
 40
1.0
  9
$DIMGAP
 40
0.09
  9
$DIMJUST
 70
     0
  9
$DIMSD1
 70
     0
  9
$DIMSD2
 70
     0
  9
$DIMTOLJ
 70
     1
  9
$DIMTZIN
 70
     0
  9
$DIMALTZ
 70
     0
  9
$DIMALTTZ
 70
     0
  9
$DIMUPT
 70
     0
  9
$DIMDEC
 70
     4
  9
$DIMTDEC
 70
     4
  9
$DIMALTU
 70
     2
  9
$DIMALTTD
 70
     2
  9
$DIMTXSTY
  7
STANDARD
  9
$DIMAUNIT
 70
     0
  9
$DIMADEC
 70
     0
  9
$DIMALTRND
 40
0.0
  9
$DIMAZIN
 70
     0
  9
$DIMDSEP
 70
    46
  9
$DIMATFIT
 70
     3
  9
$DIMFRAC
 70
     0
  9
$DIMLDRBLK
  1

  9
$DIMLUNIT
 70
     2
  9
$DIMLWD
 70
    -2
  9
$DIMLWE
 70
    -2
  9
$DIMTMOVE
 70
     0
  9
$LUNITS
 70
     2
  9
$LUPREC
 70
     4
  9
$SKETCHINC
 40
0.1
  9
$FILLETRAD
 40
0.5
  9
$AUNITS
 70
     0
  9
$AUPREC
 70
     0
  9
$MENU
  1
.
  9
$ELEVATION
 40
0.0
  9
$PELEVATION
 40
0.0
  9
$THICKNESS
 40
0.0
  9
$LIMCHECK
 70
     0
  9
$CHAMFERA
 40
0.5
  9
$CHAMFERB
 40
0.5
  9
$CHAMFERC
 40
0.0
  9
$CHAMFERD
 40
0.0
  9
$SKPOLY
 70
     0
  9
$TDCREATE
 40
2454910.500000000
  9
$TDUCREATE
 40
2454910.458333334
  9
$TDUPDATE
 40
2457348.475156054
  9
$TDUUPDATE
 40
2457348.433489387
  9
$TDINDWG
 40
0.0004669329
  9
$TDUSRTIMER
 40
0.0004669329
  9
$USRTIMER
 70
     1
  9
$ANGBASE
 50
0.0
  9
$ANGDIR
 70
     0
  9
$PDMODE
 70
     0
  9
$PDSIZE
 40
0.0
  9
$PLINEWID
 40
0.0
  9
$SPLFRAME
 70
     0
  9
$SPLINETYPE
 70
     6
  9
$SPLINESEGS
 70
     8
  9
$HANDSEED
  5
620
  9
$SURFTAB1
 70
     6
  9
$SURFTAB2
 70
     6
  9
$SURFTYPE
 70
     6
  9
$SURFU
 70
     6
  9
$SURFV
 70
     6
  9
$UCSBASE
  2

  9
$UCSNAME
  2

  9
$UCSORG
 10
0.0
 20
0.0
 30
0.0
  9
$UCSXDIR
 10
1.0
 20
0.0
 30
0.0
  9
$UCSYDIR
 10
0.0
 20
1.0
 30
0.0
  9
$UCSORTHOREF
  2

  9
$UCSORTHOVIEW
 70
     0
  9
$UCSORGTOP
 10
0.0
 20
0.0
 30
0.0
  9
$UCSORGBOTTOM
 10
0.0
 20
0.0
 30
0.0
  9
$UCSORGLEFT
 10
0.0
 20
0.0
 30
0.0
  9
$UCSORGRIGHT
 10
0.0
 20
0.0
 30
0.0
  9
$UCSORGFRONT
 10
0.0
 20
0.0
 30
0.0
  9
$UCSORGBACK
 10
0.0
 20
0.0
 30
0.0
  9
$PUCSBASE
  2

  9
$PUCSNAME
  2

  9
$PUCSORG
 10
0.0
 20
0.0
 30
0.0
  9
$PUCSXDIR
 10
1.0
 20
0.0
 30
0.0
  9
$PUCSYDIR
 10
0.0
 20
1.0
 30
0.0
  9
$PUCSORTHOREF
  2

  9
$PUCSORTHOVIEW
 70
     0
  9
$PUCSORGTOP
 10
0.0
 20
0.0
 30
0.0
  9
$PUCSORGBOTTOM
 10
0.0
 20
0.0
 30
0.0
  9
$PUCSORGLEFT
 10
0.0
 20
0.0
 30
0.0
  9
$PUCSORGRIGHT
 10
0.0
 20
0.0
 30
0.0
  9
$PUCSORGFRONT
 10
0.0
 20
0.0
 30
0.0
  9
$PUCSORGBACK
 10
0.0
 20
0.0
 30
0.0
  9
$USERI1
 70
     0
  9
$USERI2
 70
     0
  9
$USERI3
 70
     0
  9
$USERI4
 70
     0
  9
$USERI5
 70
     0
  9
$USERR1
 40
0.0
  9
$USERR2
 40
0.0
  9
$USERR3
 40
0.0
  9
$USERR4
 40
0.0
  9
$USERR5
 40
0.0
  9
$WORLDVIEW
 70
     1
  9
$SHADEDGE
 70
     3
  9
$SHADEDIF
 70
    70
  9
$TILEMODE
 70
     1
  9
$MAXACTVP
 70
    64
  9
$PINSBASE
 10
0.0
 20
0.0
 30
0.0
  9
$PLIMCHECK
 70
     0
  9
$PEXTMIN
 10
1.000000000000000E+20
 20
1.000000000000000E+20
 30
1.000000000000000E+20
  9
$PEXTMAX
 10
-1.000000000000000E+20
 20
-1.000000000000000E+20
 30
-1.000000000000000E+20
  9
$PLIMMIN
 10
0.0
 20
0.0
  9
$PLIMMAX
 10
12.0
 20
9.0
  9
$UNITMODE
 70
     0
  9
$VISRETAIN
 70
     1
  9
$PLINEGEN
 70
     0
  9
$PSLTSCALE
 70
     1
  9
$TREEDEPTH
 70
  3020
  9
$CMLSTYLE
  2
Standard
  9
$CMLJUST
 70
     0
  9
$CMLSCALE
 40
1.0
  9
$PROXYGRAPHICS
 70
     1
  9
$MEASUREMENT
 70
     0
  9
$CELWEIGHT
370
    -1
  9
$ENDCAPS
280
     0
  9
$JOINSTYLE
280
     0
  9
$LWDISPLAY
290
     0
  9
$INSUNITS
 70
     0
  9
$HYPERLINKBASE
  1

  9
$STYLESHEET
  1

  9
$XEDIT
290
     1
  9
$CEPSNTYPE
380
     0
  9
$PSTYLEMODE
290
     1
  9
$FINGERPRINTGUID
  2
{82C30DA6-7FA9-4C0B-A482-AF0158B80311}
  9
$VERSIONGUID
  2
{F2E26ADD-401E-451B-A6F3-EF4751D53904}
  9
$EXTNAMES
290
     1
  9
$PSVPSCALE
 40
0.0
  9
$OLESTARTUP
290
     0
  0
ENDSEC
  0
SECTION
  2
CLASSES
  0
CLASS
  1
ACDBDICTIONARYWDFLT
  2
AcDbDictionaryWithDefault
  3
ObjectDBX Classes
 90
        0
280
     0
281
     0
  0
CLASS
  1
MATERIAL
  2
AcDbMaterial
  3
ObjectDBX Classes
 90
     1153
280
     0
281
     0
  0
CLASS
  1
VISUALSTYLE
  2
AcDbVisualStyle
  3
ObjectDBX Classes
 90
     4095
280
     0
281
     0
  0
CLASS
  1
SCALE
  2
AcDbScale
  3
ObjectDBX Classes
 90
     1153
280
     0
281
     0
  0
CLASS
  1
TABLESTYLE
  2
AcDbTableStyle
  3
ObjectDBX Classes
 90
     4095
280
     0
281
     0
  0
CLASS
  1
MLEADERSTYLE
  2
AcDbMLeaderStyle
  3
ACDB_MLEADERSTYLE_CLASS
 90
     4095
280
     0
281
     0
  0
CLASS
  1
DICTIONARYVAR
  2
AcDbDictionaryVar
  3
ObjectDBX Classes
 90
        0
280
     0
281
     0
  0
CLASS
  1
CELLSTYLEMAP
  2
AcDbCellStyleMap
  3
ObjectDBX Classes
 90
     1152
280
     0
281
     0
  0
CLASS
  1
ACDBPLACEHOLDER
  2
AcDbPlaceHolder
  3
ObjectDBX Classes
 90
        0
280
     0
281
     0
  0
CLASS
  1
LAYOUT
  2
AcDbLayout
  3
ObjectDBX Classes
 90
        0
280
     0
281
     0
  0
ENDSEC
  0
SECTION
  2
TABLES
  0
TABLE
  2
VPORT
  5
58A
330
0
100
AcDbSymbolTable
 70
     1
  0
VPORT
  5
5FA
330
58A
100
AcDbSymbolTableRecord
100
AcDbViewportTableRecord
  2
*ACTIVE
 70
     0
 10
0.0
 20
0.0
 11
1.0
 21
1.0
 12
1467.182290544503
 22
56.02719330232492
 13
0.0
 23
0.0
 14
0.5
 24
0.5
 15
0.5
 25
0.5
 16
0.0
 26
0.0
 36
1.0
 17
0.0
 27
0.0
 37
0.0
 40
981.8377410173555
 41
2.520958083832335
 42
50.0
 43
0.0
 44
0.0
 50
0.0
 51
0.0
 71
     0
 72
   100
 73
     1
 74
     3
 75
     0
 76
     0
 77
     0
 78
     0
281
     0
 65
     1
110
0.0
120
0.0
130
0.0
111
1.0
121
0.0
131
0.0
112
0.0
122
1.0
132
0.0
 79
     0
146
0.0
  0
ENDTAB
  0
TABLE
  2
LTYPE
  5
587
330
0
100
AcDbSymbolTable
 70
     2
  0
LTYPE
  5
5E4
330
587
100
AcDbSymbolTableRecord
100
AcDbLinetypeTableRecord
  2
ByBlock
 70
     0
  3

 72
    65
 73
     0
 40
0.0
  0
LTYPE
  5
5E5
330
587
100
AcDbSymbolTableRecord
100
AcDbLinetypeTableRecord
  2
ByLayer
 70
     0
  3

 72
    65
 73
     0
 40
0.0
  0
LTYPE
  5
5E6
330
587
100
AcDbSymbolTableRecord
100
AcDbLinetypeTableRecord
  2
CONTINUOUS
 70
     0
  3
Solid line
 72
    65
 73
     0
 40
0.0
  0
LTYPE
  5
5FB
330
587
100
AcDbSymbolTableRecord
100
AcDbLinetypeTableRecord
  2
CONTINUOUS2
 70
     0
  3
Solid Line
 72
    65
 73
     0
 40
0.0
  0
ENDTAB
  0
TABLE
  2
LAYER
  5
584
330
0
100
AcDbSymbolTable
 70
     4
  0
LAYER
  5
5DE
102
{ACAD_XDICTIONARY
360
605
102
}
330
584
100
AcDbSymbolTableRecord
100
AcDbLayerTableRecord
  2
0
 70
     0
 62
     7
  6
CONTINUOUS
370
    -3
390
591
  0
LAYER
  5
5FC
102
{ACAD_XDICTIONARY
360
607
102
}
330
584
100
AcDbSymbolTableRecord
100
AcDbLayerTableRecord
  2
LAYER_1
 70
     0
 62
    18
  6
CONTINUOUS
370
    -3
390
591
  0
LAYER
  5
5FD
102
{ACAD_XDICTIONARY
360
609
102
}
330
584
100
AcDbSymbolTableRecord
100
AcDbLayerTableRecord
  2
LAYER_2
 70
     0
 62
     5
  6
CONTINUOUS
370
    -3
390
591
  0
LAYER
  5
5FE
102
{ACAD_XDICTIONARY
360
60B
102
}
330
584
100
AcDbSymbolTableRecord
100
AcDbLayerTableRecord
  2
LAYER_3
 70
     0
 62
     1
  6
CONTINUOUS
370
    -3
390
591
  0
ENDTAB
  0
TABLE
  2
STYLE
  5
585
330
0
100
AcDbSymbolTable
 70
     2
  0
STYLE
  5
5DF
330
585
100
AcDbSymbolTableRecord
100
AcDbTextStyleTableRecord
  2
STANDARD
 70
     0
 40
0.0
 41
1.0
 50
0.0
 71
     0
 42
0.2
  3
txt
  4

  0
STYLE
  5
5E3
330
585
100
AcDbSymbolTableRecord
100
AcDbTextStyleTableRecord
  2
Annotative
 70
     0
 40
0.0
 41
1.0
 50
0.0
 71
     0
 42
0.2
  3
txt
  4

1001
AcadAnnotative
1000
AnnotativeData
1002
{
1070
     1
1070
     1
1002
}
  0
ENDTAB
  0
TABLE
  2
VIEW
  5
588
330
0
100
AcDbSymbolTable
 70
     0
  0
ENDTAB
  0
TABLE
  2
UCS
  5
589
330
0
100
AcDbSymbolTable
 70
     0
  0
ENDTAB
  0
TABLE
  2
APPID
  5
58B
330
0
100
AcDbSymbolTable
 70
     3
  0
APPID
  5
5E0
330
58B
100
AcDbSymbolTableRecord
100
AcDbRegAppTableRecord
  2
ACAD
 70
     0
  0
APPID
  5
5E7
330
58B
100
AcDbSymbolTableRecord
100
AcDbRegAppTableRecord
  2
AcadAnnotative
 70
     0
  0
APPID
  5
5F1
330
58B
100
AcDbSymbolTableRecord
100
AcDbRegAppTableRecord
  2
ACAD_MLEADERVER
 70
     0
  0
ENDTAB
  0
TABLE
  2
DIMSTYLE
  5
58C
330
0
100
AcDbSymbolTable
 70
     2
100
AcDbDimStyleTable
 71
     0
  0
DIMSTYLE
105
5E1
330
58C
100
AcDbSymbolTableRecord
100
AcDbDimStyleTableRecord
  2
STANDARD
 70
     0
279
     2
340
5DF
  0
DIMSTYLE
105
5E2
330
58C
100
AcDbSymbolTableRecord
100
AcDbDimStyleTableRecord
  2
Annotative
 70
     0
340
5DF
1001
AcadAnnotative
1000
AnnotativeData
1002
{
1070
     1
1070
     1
1002
}
  0
ENDTAB
  0
TABLE
  2
BLOCK_RECORD
  5
583
330
0
100
AcDbSymbolTable
 70
     2
  0
BLOCK_RECORD
  5
5F6
330
583
100
AcDbSymbolTableRecord
100
AcDbBlockTableRecord
  2
*Model_Space
340
5F9
  0
BLOCK_RECORD
  5
5F2
330
583
100
AcDbSymbolTableRecord
100
AcDbBlockTableRecord
  2
*Paper_Space
340
5F5
  0
BLOCK_RECORD
  5
600
330
583
100
AcDbSymbolTableRecord
100
AcDbBlockTableRecord
  2
$MODEL_SPACE
340
0
  0
BLOCK_RECORD
  5
602
330
583
100
AcDbSymbolTableRecord
100
AcDbBlockTableRecord
  2
$PAPER_SPACE
340
0
  0
ENDTAB
  0
ENDSEC
  0
SECTION
  2
BLOCKS
  0
BLOCK
  5
5F7
330
5F6
100
AcDbEntity
  8
0
100
AcDbBlockBegin
  2
*Model_Space
 70
     0
 10
0.0
 20
0.0
 30
0.0
  3
*Model_Space
  1

  0
ENDBLK
  5
5F8
330
5F6
100
AcDbEntity
  8
0
100
AcDbBlockEnd
  0
BLOCK
  5
5F3
330
5F2
100
AcDbEntity
 67
     1
  8
0
100
AcDbBlockBegin
  2
*Paper_Space
 70
     0
 10
0.0
 20
0.0
 30
0.0
  3
*Paper_Space
  1

  0
ENDBLK
  5
5F4
330
5F2
100
AcDbEntity
 67
     1
  8
0
100
AcDbBlockEnd
  0
BLOCK
  5
601
330
600
100
AcDbEntity
  8
0
100
AcDbBlockBegin
  2
$MODEL_SPACE
 70
     0
 10
0.0
 20
0.0
 30
0.0
  3
$MODEL_SPACE
  1

  0
ENDBLK
  5
21
330
600
100
AcDbEntity
  8
0
100
AcDbBlockEnd
  0
BLOCK
  5
603
330
602
100
AcDbEntity
  8
0
100
AcDbBlockBegin
  2
$PAPER_SPACE
 70
     0
 10
0.0
 20
0.0
 30
0.0
  3
$PAPER_SPACE
  1

  0
ENDBLK
  5
1D
330
602
100
AcDbEntity
  8
0
100
AcDbBlockEnd
  0
ENDSEC
  0
SECTION
  2
ENTITIES
  0
LWPOLYLINE
  5
41
330
5F6
100
AcDbEntity
  8
LAYER_1
100
AcDbPolyline
 90
       16
 70
     1
 43
0.0
 10
1543.673653730646
 20
74.49489986999151
 10
1538.993929575533
 20
79.17610236153723
 10
1538.993933689432
 20
85.79387909193725
 10
1532.376134361462
 20
85.79388979951318
 10
1527.695769515063
 20
90.47351743447279
 10
1523.015404427995
 20
85.7938895588818
 10
1516.397584776138
 20
85.79388334646841
 10
1516.397568458648
 20
79.17612390026352
 10
1511.717842808711
 20
74.49489986999151
 10
1516.397568458648
 20
69.81367583971951
 10
1516.397584776138
 20
63.19591639351461
 10
1523.015404427995
 20
63.19591018110145
 10
1527.695769515063
 20
58.51628230551022
 10
1532.376134361462
 20
63.19590994046985
 10
1538.993933689432
 20
63.19592064804578
 10
1538.993929575533
 20
69.81369737844602
  0
LWPOLYLINE
  5
42
330
5F6
100
AcDbEntity
  8
LAYER_1
100
AcDbPolyline
 90
       16
 70
     1
 43
0.0
 10
1544.232601341924
 20
46.66345292213554
 10
1535.330024384132
 20
55.56783212631967
 10
1547.862793847866
 20
55.56783212631967
 10
1547.863975688192
 20
55.5678375949476
 10
1547.863975688192
 20
67.77347340670963
 10
1552.779866401597
 20
72.35061134097691
 10
1557.695749666366
 20
67.78693714400606
 10
1557.695749666366
 20
46.8024840091648
 10
1557.695749666366
 20
46.66345292213554
 10
1557.695749666366
 20
46.52442183510629
 10
1557.695749666366
 20
25.53996870026504
 10
1552.779866401597
 20
20.97629450329396
 10
1547.863975688192
 20
25.55343243756147
 10
1547.863975688192
 20
37.75906824932349
 10
1547.862793847866
 20
37.75907371795121
 10
1535.330024384132
 20
37.75907371795121
  0
LWPOLYLINE
  5
43
330
5F6
100
AcDbEntity
  8
LAYER_1
100
AcDbPolyline
 90
       16
 70
     1
 43
0.0
 10
1544.938820694301
 20
-40.5645637490361
 10
1539.888545316781
 20
-45.61643452103657
 10
1539.888549756429
 20
-52.75822189304427
 10
1532.746737997523
 20
-52.75823344847048
 10
1527.695771197321
 20
-57.80840466315179
 10
1522.644804137392
 20
-52.75823318878519
 10
1515.50297044531
 20
-52.7582264844591
 10
1515.502952835764
 20
-45.61645776524824
 10
1510.452675845055
 20
-40.5645637490361
 10
1515.502952835764
 20
-35.51266973282395
 10
1515.50297044531
 20
-28.37090101361332
 10
1522.644804137392
 20
-28.370894309287
 10
1527.695771197321
 20
-23.32072283492062
 10
1532.746737997523
 20
-28.3708940496017
 10
1539.888549756429
 20
-28.37090560502793
 10
1539.888545316781
 20
-35.51269297703584
  0
LWPOLYLINE
  5
44
330
5F6
100
AcDbEntity
  8
LAYER_1
100
AcDbPolyline
 90
       16
 70
     1
 43
0.0
 10
1544.938820694301
 20
-98.71154922212507
 10
1539.888545316781
 20
-93.65967845012482
 10
1539.888549756429
 20
-86.51789107811692
 10
1532.746737997523
 20
-86.51787952269069
 10
1527.695771197321
 20
-81.46770830800958
 10
1522.644804137392
 20
-86.51787978237598
 10
1515.50297044531
 20
-86.51788648670232
 10
1515.502952835764
 20
-93.65965520591293
 10
1510.452675845055
 20
-98.71154922212507
 10
1515.502952835764
 20
-103.7634432383372
 10
1515.50297044531
 20
-110.9052119575479
 10
1522.644804137392
 20
-110.9052186618742
 10
1527.695771197321
 20
-115.9553901362408
 10
1532.746737997523
 20
-110.9052189215595
 10
1539.888549756429
 20
-110.9052073661333
 10
1539.888545316781
 20
-103.7634199941253
  0
LWPOLYLINE
  5
45
330
5F6
100
AcDbEntity
  8
LAYER_1
100
AcDbPolyline
 90
       16
 70
     1
 43
0.0
 10
1544.938820694301
 20
-156.8622270029061
 10
1539.888545316781
 20
-161.9140977749064
 10
1539.888549756429
 20
-169.0558851469143
 10
1532.746737997523
 20
-169.0558967023405
 10
1527.695771197321
 20
-174.1060679170216
 10
1522.644804137392
 20
-169.0558964426552
 10
1515.50297044531
 20
-169.0558897383291
 10
1515.502952835764
 20
-161.9141210191185
 10
1510.452675845055
 20
-156.8622270029061
 10
1515.502952835764
 20
-151.8103329866942
 10
1515.50297044531
 20
-144.6685642674834
 10
1522.644804137392
 20
-144.668557563157
 10
1527.695771197321
 20
-139.6183860887907
 10
1532.746737997523
 20
-144.6685573034717
 10
1539.888549756429
 20
-144.668568858898
 10
1539.888545316781
 20
-151.8103562309059
  0
LWPOLYLINE
  5
46
330
5F6
100
AcDbEntity
  8
LAYER_1
100
AcDbPolyline
 90
       16
 70
     1
 43
0.0
 10
1544.232601341924
 20
-185.9357966625275
 10
1535.330024384132
 20
-194.8402527897888
 10
1547.862793847866
 20
-194.8402527897888
 10
1547.863975688192
 20
-194.8402582584164
 10
1547.863975688192
 20
-207.0458940701785
 10
1552.779866401597
 20
-211.623032004446
 10
1557.695749666366
 20
-207.0593578074752
 10
1557.695749666366
 20
-186.0749046726337
 10
1557.695749666366
 20
-185.9357966625275
 10
1557.695749666366
 20
-185.7966886524216
 10
1557.695749666366
 20
-164.8122355175801
 10
1552.779866401597
 20
-160.2485613206093
 10
1547.863975688192
 20
-164.8256992548765
 10
1547.863975688192
 20
-177.0313350666386
 10
1547.862793847866
 20
-177.0313405352665
 10
1535.330024384132
 20
-177.0313405352665
  0
LWPOLYLINE
  5
47
330
5F6
100
AcDbEntity
  8
LAYER_1
100
AcDbPolyline
 90
       16
 70
     1
 43
0.0
 10
1528.622256929821
 20
-200.1717352238677
 10
1533.675074022957
 20
-205.2220122145761
 10
1540.816842742167
 20
-205.222029824122
 10
1540.816849446494
 20
-212.3638635162049
 10
1545.86702092086
 20
-217.4148305761332
 10
1540.816849706179
 20
-222.4657973763353
 10
1540.816838150752
 20
-229.6076091352409
 10
1533.675050778745
 20
-229.6076046955934
 10
1528.622256929821
 20
-234.6578800731133
 10
1523.569463080898
 20
-229.6076046955934
 10
1516.42767570889
 20
-229.6076091352409
 10
1516.427664153464
 20
-222.4657973763353
 10
1511.377492938783
 20
-217.4148305761332
 10
1516.427664413149
 20
-212.3638635162049
 10
1516.427671117475
 20
-205.222029824122
 10
1523.569439836686
 20
-205.2220122145761
  0
LWPOLYLINE
  5
48
330
5F6
100
AcDbEntity
  8
LAYER_1
100
AcDbPolyline
 90
       16
 70
     1
 43
0.0
 10
1499.547841116354
 20
-233.9516607207358
 10
1508.452220320538
 20
-225.0490837629443
 10
1508.452220320538
 20
-237.5818532266783
 10
1508.452225789166
 20
-237.5830350670044
 10
1520.657861600928
 20
-237.5830350670044
 10
1525.234999535195
 20
-242.4989257804089
 10
1520.671325338224
 20
-247.4148090451781
 10
1499.686872203383
 20
-247.4148090451781
 10
1499.547841116354
 20
-247.4148090451781
 10
1499.408810029325
 20
-247.4148090451781
 10
1478.424356894483
 20
-247.4148090451781
 10
1473.860682697512
 20
-242.4989257804089
 10
1478.43782063178
 20
-237.5830350670044
 10
1490.643456443542
 20
-237.5830350670044
 10
1490.643461912169
 20
-237.5818532266783
 10
1490.643461912169
 20
-225.0490837629443
  0
LWPOLYLINE
  5
49
330
5F6
100
AcDbEntity
  8
LAYER_1
100
AcDbPolyline
 90
       23
 70
     1
 43
0.0
 10
1497.695749666366
 20
-185.9357966625275
 10
1497.695749666366
 20
-185.7966886524216
 10
1497.695749666366
 20
-164.8122355175801
 10
1502.611632931135
 20
-160.2485613206093
 10
1507.52752364454
 20
-164.8256992548765
 10
1507.52752364454
 20
-177.0313350666386
 10
1507.528705484865
 20
-177.0313405352665
 10
1520.0614749486
 20
-177.0313405352665
 10
1511.158897990808
 20
-185.9357966625275
 10
1520.0614749486
 20
-194.8402527897888
 10
1507.528705484865
 20
-194.8402527897888
 10
1507.52752364454
 20
-194.8402582584164
 10
1507.52752364454
 20
-207.0458940701785
 10
1506.590165330088
 20
-207.9186592615158
 10
1499.547841116354
 20
-200.8779573696204
 10
1490.643461912169
 20
-209.7805343274119
 10
1490.643461912169
 20
-197.247764863678
 10
1490.643456443542
 20
-197.2465830233518
 10
1478.43782063178
 20
-197.2465830233518
 10
1473.860682697512
 20
-192.3306923099474
 10
1478.424356894483
 20
-187.4148090451781
 10
1497.695749666366
 20
-187.4148090451781
 10
1497.695749666366
 20
-186.0749046726337
  0
LWPOLYLINE
  5
4A
330
5F6
100
AcDbEntity
  8
LAYER_1
100
AcDbPolyline
 90
       16
 70
     1
 43
0.0
 10
1544.232601341924
 20
-127.7868881125157
 10
1535.330024384132
 20
-136.6912673167001
 10
1547.862793847866
 20
-136.6912673167001
 10
1547.863975688192
 20
-136.6912727853277
 10
1547.863975688192
 20
-148.8969085970898
 10
1552.779866401597
 20
-153.4740465313571
 10
1557.695749666366
 20
-148.9103723343862
 10
1557.695749666366
 20
-127.925919199545
 10
1557.695749666366
 20
-127.7868881125157
 10
1557.695749666366
 20
-127.6478570254865
 10
1557.695749666366
 20
-106.6634038906452
 10
1552.779866401597
 20
-102.0997296936741
 10
1547.863975688192
 20
-106.6768676279416
 10
1547.863975688192
 20
-118.8825034397037
 10
1547.862793847866
 20
-118.8825089083314
 10
1535.330024384132
 20
-118.8825089083314
  0
LWPOLYLINE
  5
4B
330
5F6
100
AcDbEntity
  8
LAYER_1
100
AcDbPolyline
 90
       16
 70
     1
 43
0.0
 10
1470.473425302886
 20
-200.1717352238677
 10
1475.526242396021
 20
-205.2220122145761
 10
1482.668011115232
 20
-205.222029824122
 10
1482.668017819558
 20
-212.3638635162049
 10
1487.718189293925
 20
-217.4148305761332
 10
1482.668018079244
 20
-222.4657973763353
 10
1482.668006523817
 20
-229.6076091352409
 10
1475.52621915181
 20
-229.6076046955934
 10
1470.473425302886
 20
-234.6578800731133
 10
1465.544935965032
 20
-229.6076046955934
 10
1458.57887683856
 20
-229.6076091352409
 10
1458.578865567463
 20
-222.4657973763353
 10
1453.652957045156
 20
-217.4148305761332
 10
1458.578865820758
 20
-212.3638635162049
 10
1458.57887236012
 20
-205.222029824122
 10
1465.544913292759
 20
-205.2220122145761
  0
LWPOLYLINE
  5
4C
330
5F6
100
AcDbEntity
  8
LAYER_1
100
AcDbPolyline
 90
       16
 70
     1
 43
0.0
 10
1442.114381371004
 20
-233.9516607207358
 10
1450.799662630426
 20
-225.0490837629443
 10
1450.799662630426
 20
-237.5818532266783
 10
1450.799667964494
 20
-237.5830350670044
 10
1462.704976301476
 20
-237.5830350670044
 10
1467.169490829743
 20
-242.4989257804089
 10
1462.718108754906
 20
-247.4148090451781
 10
1442.249991509225
 20
-247.4148090451781
 10
1442.114381371004
 20
-247.4148090451781
 10
1441.978771232783
 20
-247.4148090451781
 10
1421.510653987102
 20
-247.4148090451781
 10
1417.059271912265
 20
-242.4989257804089
 10
1421.523786440532
 20
-237.5830350670044
 10
1433.429094777514
 20
-237.5830350670044
 10
1433.429100111582
 20
-237.5818532266783
 10
1433.429100111582
 20
-225.0490837629443
  0
LWPOLYLINE
  5
4D
330
5F6
100
AcDbEntity
  8
LAYER_1
100
AcDbPolyline
 90
       16
 70
     1
 43
0.0
 10
1497.695749666366
 20
-127.7868881125157
 10
1497.695749666366
 20
-127.925919199545
 10
1497.695749666366
 20
-148.9103723343862
 10
1502.611632931135
 20
-153.4740465313571
 10
1507.52752364454
 20
-148.8969085970898
 10
1507.52752364454
 20
-136.6912727853277
 10
1507.528705484865
 20
-136.6912673167001
 10
1520.0614749486
 20
-136.6912673167001
 10
1511.158897990808
 20
-127.7868881125157
 10
1520.0614749486
 20
-118.8825089083314
 10
1507.528705484865
 20
-118.8825089083314
 10
1507.52752364454
 20
-118.8825034397037
 10
1507.52752364454
 20
-106.6768676279416
 10
1502.611632931135
 20
-102.0997296936741
 10
1497.695749666366
 20
-106.6634038906452
 10
1497.695749666366
 20
-127.6478570254865
  0
LWPOLYLINE
  5
4E
330
5F6
100
AcDbEntity
  8
LAYER_1
100
AcDbPolyline
 90
       16
 70
     1
 43
0.0
 10
1442.114381371004
 20
-187.4148090451781
 10
1442.249991509225
 20
-187.4148090451781
 10
1462.718108754906
 20
-187.4148090451781
 10
1467.169490829743
 20
-192.3306923099474
 10
1462.704976301476
 20
-197.2465830233518
 10
1450.799667964494
 20
-197.2465830233518
 10
1450.799662630426
 20
-197.247764863678
 10
1450.799662630426
 20
-209.7805343274119
 10
1442.114381371004
 20
-200.8779573696204
 10
1433.429100111582
 20
-209.7805343274119
 10
1433.429100111582
 20
-197.247764863678
 10
1433.429094777514
 20
-197.2465830233518
 10
1421.523786440532
 20
-197.2465830233518
 10
1417.059271912265
 20
-192.3306923099474
 10
1421.510653987102
 20
-187.4148090451781
 10
1441.978771232783
 20
-187.4148090451781
  0
LWPOLYLINE
  5
4F
330
5F6
100
AcDbEntity
  8
LAYER_1
100
AcDbPolyline
 90
       16
 70
     1
 43
0.0
 10
1544.232601341924
 20
-69.63805648558059
 10
1535.330024384132
 20
-78.54243568976494
 10
1547.862793847866
 20
-78.54243568976494
 10
1547.863975688192
 20
-78.54244115839266
 10
1547.863975688192
 20
-90.74807697015492
 10
1552.779866401597
 20
-95.32521490442219
 10
1557.695749666366
 20
-90.76154070745131
 10
1557.695749666366
 20
-69.77708757260984
 10
1557.695749666366
 20
-69.63805648558059
 10
1557.695749666366
 20
-69.49902539855134
 10
1557.695749666366
 20
-48.51457226371008
 10
1552.779866401597
 20
-43.95089806673922
 10
1547.863975688192
 20
-48.5280360010065
 10
1547.863975688192
 20
-60.73367181276854
 10
1547.862793847866
 20
-60.73367728139647
 10
1535.330024384132
 20
-60.73367728139647
  0
LWPOLYLINE
  5
50
330
5F6
100
AcDbEntity
  8
LAYER_1
100
AcDbPolyline
 90
       16
 70
     1
 43
0.0
 10
1413.75536015202
 20
-200.1717352238677
 10
1418.683849449249
 20
-205.2220122145761
 10
1425.649890381888
 20
-205.222029824122
 10
1425.64989692125
 20
-212.3638635162049
 10
1430.575805696852
 20
-217.414830576133
 10
1425.649897174545
 20
-222.4657973763353
 10
1425.649885903448
 20
-229.6076091352409
 10
1418.683826776976
 20
-229.6076046955934
 10
1413.75536015202
 20
-234.6578800731133
 10
1408.826893527064
 20
-229.6076046955934
 10
1401.860834400592
 20
-229.6076091352409
 10
1401.860823129495
 20
-222.4657973763353
 10
1396.934914607188
 20
-217.414830576133
 10
1401.86082338279
 20
-212.3638635162049
 10
1401.860829922152
 20
-205.222029824122
 10
1408.826870854791
 20
-205.2220122145761
  0
LWPOLYLINE
  5
51
330
5F6
100
AcDbEntity
  8
LAYER_1
100
AcDbPolyline
 90
       16
 70
     1
 43
0.0
 10
1497.695749666366
 20
-69.63805648558059
 10
1497.695749666366
 20
-69.77708757260984
 10
1497.695749666366
 20
-90.76154070745131
 10
1502.611632931135
 20
-95.32521490442219
 10
1507.52752364454
 20
-90.74807697015492
 10
1507.52752364454
 20
-78.54244115839266
 10
1507.528705484865
 20
-78.54243568976494
 10
1520.0614749486
 20
-78.54243568976494
 10
1511.158897990808
 20
-69.63805648558059
 10
1520.0614749486
 20
-60.73367728139647
 10
1507.528705484865
 20
-60.73367728139647
 10
1507.52752364454
 20
-60.73367181276854
 10
1507.52752364454
 20
-48.5280360010065
 10
1502.611632931135
 20
-43.95089806673922
 10
1497.695749666366
 20
-48.51457226371008
 10
1497.695749666366
 20
-69.49902539855134
  0
LWPOLYLINE
  5
52
330
5F6
100
AcDbEntity
  8
LAYER_1
100
AcDbPolyline
 90
       16
 70
     1
 43
0.0
 10
1544.232601341924
 20
-11.48922485864568
 10
1535.330024384132
 20
-20.39360406282981
 10
1547.862793847866
 20
-20.39360406282981
 10
1547.863975688192
 20
-20.39360953145774
 10
1547.863975688192
 20
-32.59924534321977
 10
1552.779866401597
 20
-37.17638327748705
 10
1557.695749666366
 20
-32.6127090805162
 10
1557.695749666366
 20
-11.62825594567494
 10
1557.695749666366
 20
-11.48922485864568
 10
1557.695749666366
 20
-11.35019377161643
 10
1557.695749666366
 20
9.634259363224828
 10
1552.779866401597
 20
14.19793356019591
 10
1547.863975688192
 20
9.620795625928396
 10
1547.863975688192
 20
-2.584840185833626
 10
1547.862793847866
 20
-2.584845654461333
 10
1535.330024384132
 20
-2.584845654461333
  0
LWPOLYLINE
  5
53
330
5F6
100
AcDbEntity
  8
LAYER_1
100
AcDbPolyline
 90
       16
 70
     1
 43
0.0
 10
1497.695749666366
 20
-11.48922485864568
 10
1497.695749666366
 20
-11.62825594567494
 10
1497.695749666366
 20
-32.6127090805162
 10
1502.611632931135
 20
-37.17638327748705
 10
1507.52752364454
 20
-32.59924534321977
 10
1507.52752364454
 20
-20.39360953145774
 10
1507.528705484865
 20
-20.39360406282981
 10
1520.0614749486
 20
-20.39360406282981
 10
1511.158897990808
 20
-11.48922485864568
 10
1520.0614749486
 20
-2.584845654461333
 10
1507.528705484865
 20
-2.584845654461333
 10
1507.52752364454
 20
-2.584840185833626
 10
1507.52752364454
 20
9.620795625928396
 10
1502.611632931135
 20
14.19793356019591
 10
1497.695749666366
 20
9.634259363224828
 10
1497.695749666366
 20
-11.35019377161643
  0
LWPOLYLINE
  5
54
330
5F6
100
AcDbEntity
  8
LAYER_1
100
AcDbPolyline
 90
       16
 70
     1
 43
0.0
 10
1225.853657899821
 20
75.73879181252594
 10
1230.903933277341
 20
80.79066258452643
 10
1230.903928837693
 20
87.93244995653411
 10
1238.045740596599
 20
87.93246151196035
 10
1243.096707396801
 20
92.9826327266417
 10
1248.14767445673
 20
87.93246125227506
 10
1255.289508148812
 20
87.93245454794895
 10
1255.289525758358
 20
80.79068582873809
 10
1260.339802749067
 20
75.73879181252594
 10
1255.289525758358
 20
70.68689779631381
 10
1255.289508148812
 20
63.54512907710318
 10
1248.14767445673
 20
63.54512237277686
 10
1243.096707396801
 20
58.49495089841047
 10
1238.045740596599
 20
63.54512211309157
 10
1230.903928837693
 20
63.54513366851779
 10
1230.903933277341
 20
70.6869210405257
  0
LWPOLYLINE
  5
55
330
5F6
100
AcDbEntity
  8
LAYER_1
100
AcDbPolyline
 90
       16
 70
     1
 43
0.0
 10
1225.853657899821
 20
133.8857772856149
 10
1230.903933277341
 20
128.8339065136147
 10
1230.903928837693
 20
121.6921191416068
 10
1238.045740596599
 20
121.6921075861806
 10
1243.096707396801
 20
116.6419363714995
 10
1248.14767445673
 20
121.6921078458658
 10
1255.289508148812
 20
121.6921145501922
 10
1255.289525758358
 20
128.8338832694028
 10
1260.339802749067
 20
133.8857772856149
 10
1255.289525758358
 20
138.9376713018271
 10
1255.289508148812
 20
146.0794400210377
 10
1248.14767445673
 20
146.0794467253641
 10
1243.096707396801
 20
151.1296181997307
 10
1238.045740596599
 20
146.0794469850493
 10
1230.903928837693
 20
146.0794354296231
 10
1230.903933277341
 20
138.9376480576152
  0
LWPOLYLINE
  5
56
330
5F6
100
AcDbEntity
  8
LAYER_1
100
AcDbPolyline
 90
       16
 70
     1
 43
0.0
 10
1225.853657899821
 20
192.036455066396
 10
1230.903933277341
 20
197.0883258383965
 10
1230.903928837693
 20
204.2301132104042
 10
1238.045740596599
 20
204.2301247658304
 10
1243.096707396801
 20
209.2802959805115
 10
1248.14767445673
 20
204.2301245061451
 10
1255.289508148812
 20
204.230117801819
 10
1255.289525758358
 20
197.0883490826084
 10
1260.339802749067
 20
192.036455066396
 10
1255.289525758358
 20
186.9845610501841
 10
1255.289508148812
 20
179.8427923309732
 10
1248.14767445673
 20
179.8427856266469
 10
1243.096707396801
 20
174.7926141522805
 10
1238.045740596599
 20
179.8427853669616
 10
1230.903928837693
 20
179.8427969223878
 10
1230.903933277341
 20
186.9845842943957
  0
LWPOLYLINE
  5
57
330
5F6
100
AcDbEntity
  8
LAYER_1
100
AcDbPolyline
 90
       16
 70
     1
 43
0.0
 10
1226.158897990808
 20
162.9611161760056
 10
1235.0614749486
 20
171.8654953801899
 10
1222.528705484865
 20
171.8654953801899
 10
1222.52752364454
 20
171.8655008488176
 10
1222.52752364454
 20
184.0711366605797
 10
1217.611632931135
 20
188.648274594847
 10
1212.695749666366
 20
184.0846003978761
 10
1212.695749666366
 20
163.1001472630348
 10
1212.695749666366
 20
162.9611161760056
 10
1212.695749666366
 20
162.8220850889763
 10
1212.695749666366
 20
141.8376319541351
 10
1217.611632931135
 20
137.273957757164
 10
1222.52752364454
 20
141.8510956914313
 10
1222.52752364454
 20
154.0567315031935
 10
1222.528705484865
 20
154.0567369718212
 10
1235.0614749486
 20
154.0567369718212
  0
LWPOLYLINE
  5
58
330
5F6
100
AcDbEntity
  8
LAYER_1
100
AcDbPolyline
 90
       16
 70
     1
 43
0.0
 10
1273.096728927756
 20
162.9611161760056
 10
1273.096728927756
 20
163.1001472630348
 10
1273.096728927756
 20
184.0846003978761
 10
1268.180845662987
 20
188.648274594847
 10
1263.264954949583
 20
184.0711366605797
 10
1263.264954949583
 20
171.8655008488176
 10
1263.263773109257
 20
171.8654953801899
 10
1250.731003645522
 20
171.8654953801899
 10
1259.633580603314
 20
162.9611161760056
 10
1250.731003645522
 20
154.0567369718212
 10
1263.263773109257
 20
154.0567369718212
 10
1263.264954949583
 20
154.0567315031935
 10
1263.264954949583
 20
141.8510956914313
 10
1268.180845662987
 20
137.273957757164
 10
1273.096728927756
 20
141.8376319541351
 10
1273.096728927756
 20
162.8220850889763
  0
LWPOLYLINE
  5
59
330
5F6
100
AcDbEntity
  8
LAYER_1
100
AcDbPolyline
 90
       16
 70
     1
 43
0.0
 10
1226.158897990808
 20
104.8122845490705
 10
1235.0614749486
 20
113.7166637532548
 10
1222.528705484865
 20
113.7166637532548
 10
1222.52752364454
 20
113.7166692218825
 10
1222.52752364454
 20
125.9223050336448
 10
1217.611632931135
 20
130.499442967912
 10
1212.695749666366
 20
125.935768770941
 10
1212.695749666366
 20
104.9513156360997
 10
1212.695749666366
 20
104.8122845490705
 10
1212.695749666366
 20
104.6732534620412
 10
1212.695749666366
 20
83.68880032719994
 10
1217.611632931135
 20
79.12512613022909
 10
1222.52752364454
 20
83.70226406449637
 10
1222.52752364454
 20
95.90789987625841
 10
1222.528705484865
 20
95.90790534488631
 10
1235.0614749486
 20
95.90790534488631
  0
LWPOLYLINE
  5
5A
330
5F6
100
AcDbEntity
  8
LAYER_1
100
AcDbPolyline
 90
       16
 70
     1
 43
0.0
 10
1273.096728927756
 20
104.8122845490705
 10
1273.096728927756
 20
104.9513156360997
 10
1273.096728927756
 20
125.935768770941
 10
1268.180845662987
 20
130.499442967912
 10
1263.264954949582
 20
125.9223050336448
 10
1263.264954949582
 20
113.7166692218825
 10
1263.263773109257
 20
113.7166637532548
 10
1250.731003645522
 20
113.7166637532548
 10
1259.633580603314
 20
104.8122845490705
 10
1250.731003645522
 20
95.90790534488631
 10
1263.263773109257
 20
95.90790534488631
 10
1263.264954949582
 20
95.90789987625841
 10
1263.264954949582
 20
83.70226406449637
 10
1268.180845662987
 20
79.12512613022909
 10
1273.096728927756
 20
83.68880032719994
 10
1273.096728927756
 20
104.6732534620412
  0
LWPOLYLINE
  5
5B
330
5F6
100
AcDbEntity
  8
LAYER_1
100
AcDbPolyline
 90
       16
 70
     1
 43
0.0
 10
1226.158897990808
 20
46.66345292213554
 10
1235.0614749486
 20
55.56783212631967
 10
1222.528705484865
 20
55.56783212631967
 10
1222.52752364454
 20
55.5678375949476
 10
1222.52752364454
 20
67.77347340670963
 10
1217.611632931135
 20
72.35061134097691
 10
1212.695749666366
 20
67.78693714400606
 10
1212.695749666366
 20
46.8024840091648
 10
1212.695749666366
 20
46.66345292213554
 10
1212.695749666366
 20
46.52442183510629
 10
1212.695749666366
 20
25.53996870026504
 10
1217.611632931135
 20
20.97629450329396
 10
1222.52752364454
 20
25.55343243756147
 10
1222.52752364454
 20
37.75906824932349
 10
1222.528705484865
 20
37.75907371795121
 10
1235.0614749486
 20
37.75907371795121
  0
LWPOLYLINE
  5
5C
330
5F6
100
AcDbEntity
  8
LAYER_1
100
AcDbPolyline
 90
       16
 70
     1
 43
0.0
 10
1273.096728927756
 20
46.66345292213554
 10
1273.096728927756
 20
46.8024840091648
 10
1273.096728927756
 20
67.78693714400606
 10
1268.180845662987
 20
72.35061134097691
 10
1263.264954949582
 20
67.77347340670963
 10
1263.264954949582
 20
55.5678375949476
 10
1263.263773109257
 20
55.56783212631967
 10
1250.731003645522
 20
55.56783212631967
 10
1259.633580603314
 20
46.66345292213554
 10
1250.731003645522
 20
37.75907371795121
 10
1263.263773109257
 20
37.75907371795121
 10
1263.264954949582
 20
37.75906824932349
 10
1263.264954949582
 20
25.55343243756147
 10
1268.180845662987
 20
20.97629450329396
 10
1273.096728927756
 20
25.53996870026504
 10
1273.096728927756
 20
46.52442183510629
  0
LWPOLYLINE
  5
5D
330
5F6
100
AcDbEntity
  8
LAYER_1
100
AcDbPolyline
 90
       16
 70
     1
 43
0.0
 10
1225.853657899821
 20
-40.5645637490361
 10
1230.903933277341
 20
-45.61643452103657
 10
1230.903928837693
 20
-52.75822189304427
 10
1238.045740596599
 20
-52.75823344847048
 10
1243.096707396801
 20
-57.80840466315179
 10
1248.14767445673
 20
-52.75823318878519
 10
1255.289508148812
 20
-52.7582264844591
 10
1255.289525758358
 20
-45.61645776524824
 10
1260.339802749067
 20
-40.5645637490361
 10
1255.289525758358
 20
-35.51266973282395
 10
1255.289508148812
 20
-28.37090101361332
 10
1248.14767445673
 20
-28.370894309287
 10
1243.096707396801
 20
-23.32072283492062
 10
1238.045740596599
 20
-28.3708940496017
 10
1230.903928837693
 20
-28.37090560502793
 10
1230.903933277341
 20
-35.51269297703584
  0
LWPOLYLINE
  5
5E
330
5F6
100
AcDbEntity
  8
LAYER_1
100
AcDbPolyline
 90
       16
 70
     1
 43
0.0
 10
1225.853657899821
 20
-98.71154922212507
 10
1230.903933277341
 20
-93.65967845012482
 10
1230.903928837693
 20
-86.51789107811692
 10
1238.045740596599
 20
-86.51787952269069
 10
1243.096707396801
 20
-81.46770830800958
 10
1248.14767445673
 20
-86.51787978237598
 10
1255.289508148812
 20
-86.51788648670232
 10
1255.289525758358
 20
-93.65965520591293
 10
1260.339802749067
 20
-98.71154922212507
 10
1255.289525758358
 20
-103.7634432383372
 10
1255.289508148812
 20
-110.9052119575479
 10
1248.14767445673
 20
-110.9052186618742
 10
1243.096707396801
 20
-115.9553901362408
 10
1238.045740596599
 20
-110.9052189215595
 10
1230.903928837693
 20
-110.9052073661333
 10
1230.903933277341
 20
-103.7634199941253
  0
LWPOLYLINE
  5
5F
330
5F6
100
AcDbEntity
  8
LAYER_1
100
AcDbPolyline
 90
       16
 70
     1
 43
0.0
 10
1225.853657899821
 20
-156.8622270029061
 10
1230.903933277341
 20
-161.9140977749064
 10
1230.903928837693
 20
-169.0558851469143
 10
1238.045740596599
 20
-169.0558967023405
 10
1243.096707396801
 20
-174.1060679170216
 10
1248.14767445673
 20
-169.0558964426552
 10
1255.289508148812
 20
-169.0558897383291
 10
1255.289525758358
 20
-161.9141210191185
 10
1260.339802749067
 20
-156.8622270029061
 10
1255.289525758358
 20
-151.8103329866942
 10
1255.289508148812
 20
-144.6685642674834
 10
1248.14767445673
 20
-144.668557563157
 10
1243.096707396801
 20
-139.6183860887907
 10
1238.045740596599
 20
-144.6685573034717
 10
1230.903928837693
 20
-144.668568858898
 10
1230.903933277341
 20
-151.8103562309059
  0
LWPOLYLINE
  5
60
330
5F6
100
AcDbEntity
  8
LAYER_1
100
AcDbPolyline
 90
       16
 70
     1
 43
0.0
 10
1226.158897990808
 20
-185.9357966625275
 10
1235.0614749486
 20
-194.8402527897888
 10
1222.528705484865
 20
-194.8402527897888
 10
1222.52752364454
 20
-194.8402582584164
 10
1222.52752364454
 20
-207.0458940701785
 10
1217.611632931135
 20
-211.623032004446
 10
1212.695749666366
 20
-207.0593578074752
 10
1212.695749666366
 20
-186.0749046726337
 10
1212.695749666366
 20
-185.9357966625275
 10
1212.695749666366
 20
-185.7966886524216
 10
1212.695749666366
 20
-164.8122355175801
 10
1217.611632931135
 20
-160.2485613206093
 10
1222.52752364454
 20
-164.8256992548765
 10
1222.52752364454
 20
-177.0313350666386
 10
1222.528705484865
 20
-177.0313405352665
 10
1235.0614749486
 20
-177.0313405352665
  0
LWPOLYLINE
  5
61
330
5F6
100
AcDbEntity
  8
LAYER_1
100
AcDbPolyline
 90
       16
 70
     1
 43
0.0
 10
1242.170221664301
 20
-200.1717352238677
 10
1237.117404571165
 20
-205.2220122145761
 10
1229.975635851955
 20
-205.222029824122
 10
1229.975629147629
 20
-212.3638635162049
 10
1224.925457673262
 20
-217.4148305761332
 10
1229.975628887943
 20
-222.4657973763353
 10
1229.975640443369
 20
-229.6076091352409
 10
1237.117427815377
 20
-229.6076046955934
 10
1242.170221664301
 20
-234.6578800731133
 10
1247.223015513224
 20
-229.6076046955934
 10
1254.364802885232
 20
-229.6076091352409
 10
1254.364814440658
 20
-222.4657973763353
 10
1259.414985655339
 20
-217.4148305761332
 10
1254.364814180973
 20
-212.3638635162049
 10
1254.364807476647
 20
-205.222029824122
 10
1247.223038757436
 20
-205.2220122145761
  0
LWPOLYLINE
  5
62
330
5F6
100
AcDbEntity
  8
LAYER_1
100
AcDbPolyline
 90
       16
 70
     1
 43
0.0
 10
1271.244637477768
 20
-233.9516607207358
 10
1262.340258273584
 20
-225.0490837629443
 10
1262.340258273584
 20
-237.5818532266783
 10
1262.340252804956
 20
-237.5830350670044
 10
1250.134616993194
 20
-237.5830350670044
 10
1245.557479058927
 20
-242.4989257804089
 10
1250.121153255898
 20
-247.4148090451781
 10
1271.105606390739
 20
-247.4148090451781
 10
1271.244637477768
 20
-247.4148090451781
 10
1271.383668564798
 20
-247.4148090451781
 10
1292.368121699639
 20
-247.4148090451781
 10
1296.93179589661
 20
-242.4989257804089
 10
1292.354657962342
 20
-237.5830350670044
 10
1280.14902215058
 20
-237.5830350670044
 10
1280.149016681953
 20
-237.5818532266783
 10
1280.149016681953
 20
-225.0490837629443
  0
LWPOLYLINE
  5
63
330
5F6
100
AcDbEntity
  8
LAYER_1
100
AcDbPolyline
 90
       23
 70
     1
 43
0.0
 10
1273.096728927756
 20
-185.9357966625275
 10
1273.096728927756
 20
-185.7966886524216
 10
1273.096728927756
 20
-164.8122355175801
 10
1268.180845662987
 20
-160.2485613206093
 10
1263.264954949582
 20
-164.8256992548765
 10
1263.264954949582
 20
-177.0313350666386
 10
1263.263773109257
 20
-177.0313405352665
 10
1250.731003645522
 20
-177.0313405352665
 10
1259.633580603314
 20
-185.9357966625275
 10
1250.731003645522
 20
-194.8402527897888
 10
1263.263773109257
 20
-194.8402527897888
 10
1263.264954949582
 20
-194.8402582584164
 10
1263.264954949582
 20
-207.0458940701785
 10
1264.202313264034
 20
-207.9186592615158
 10
1271.244637477768
 20
-200.8779573696204
 10
1280.149016681953
 20
-209.7805343274119
 10
1280.149016681953
 20
-197.247764863678
 10
1280.14902215058
 20
-197.2465830233518
 10
1292.354657962342
 20
-197.2465830233518
 10
1296.93179589661
 20
-192.3306923099474
 10
1292.368121699639
 20
-187.4148090451781
 10
1273.096728927756
 20
-187.4148090451781
 10
1273.096728927756
 20
-186.0749046726337
  0
LWPOLYLINE
  5
64
330
5F6
100
AcDbEntity
  8
LAYER_1
100
AcDbPolyline
 90
       16
 70
     1
 43
0.0
 10
1226.158897990808
 20
-127.7868881125157
 10
1235.0614749486
 20
-136.6912673167001
 10
1222.528705484865
 20
-136.6912673167001
 10
1222.52752364454
 20
-136.6912727853277
 10
1222.52752364454
 20
-148.8969085970898
 10
1217.611632931135
 20
-153.4740465313571
 10
1212.695749666366
 20
-148.9103723343862
 10
1212.695749666366
 20
-127.925919199545
 10
1212.695749666366
 20
-127.7868881125157
 10
1212.695749666366
 20
-127.6478570254865
 10
1212.695749666366
 20
-106.6634038906452
 10
1217.611632931135
 20
-102.0997296936741
 10
1222.52752364454
 20
-106.6768676279416
 10
1222.52752364454
 20
-118.8825034397037
 10
1222.528705484865
 20
-118.8825089083314
 10
1235.0614749486
 20
-118.8825089083314
  0
LWPOLYLINE
  5
65
330
5F6
100
AcDbEntity
  8
LAYER_1
100
AcDbPolyline
 90
       16
 70
     1
 43
0.0
 10
1300.319053291236
 20
-200.1717352238677
 10
1295.266236198101
 20
-205.2220122145761
 10
1288.12446747889
 20
-205.222029824122
 10
1288.124460774564
 20
-212.3638635162049
 10
1283.074289300197
 20
-217.4148305761332
 10
1288.124460514878
 20
-222.4657973763353
 10
1288.124472070305
 20
-229.6076091352409
 10
1295.266259442313
 20
-229.6076046955934
 10
1300.319053291236
 20
-234.6578800731133
 10
1305.24754262909
 20
-229.6076046955934
 10
1312.213601755562
 20
-229.6076091352409
 10
1312.213613026659
 20
-222.4657973763353
 10
1317.139521548966
 20
-217.4148305761332
 10
1312.213612773364
 20
-212.3638635162049
 10
1312.213606234002
 20
-205.222029824122
 10
1305.247565301363
 20
-205.2220122145761
  0
LWPOLYLINE
  5
66
330
5F6
100
AcDbEntity
  8
LAYER_1
100
AcDbPolyline
 90
       16
 70
     1
 43
0.0
 10
1328.678097223118
 20
-233.9516607207358
 10
1319.992815963696
 20
-225.0490837629443
 10
1319.992815963696
 20
-237.5818532266783
 10
1319.992810629628
 20
-237.5830350670044
 10
1308.087502292646
 20
-237.5830350670044
 10
1303.622987764379
 20
-242.4989257804089
 10
1308.074369839216
 20
-247.4148090451781
 10
1328.542487084897
 20
-247.4148090451781
 10
1328.678097223118
 20
-247.4148090451781
 10
1328.813707361339
 20
-247.4148090451781
 10
1349.28182460702
 20
-247.4148090451781
 10
1353.733206681857
 20
-242.4989257804089
 10
1349.26869215359
 20
-237.5830350670044
 10
1337.363383816608
 20
-237.5830350670044
 10
1337.363378482539
 20
-237.5818532266783
 10
1337.363378482539
 20
-225.0490837629443
  0
LWPOLYLINE
  5
67
330
5F6
100
AcDbEntity
  8
LAYER_1
100
AcDbPolyline
 90
       16
 70
     1
 43
0.0
 10
1273.096728927756
 20
-127.7868881125157
 10
1273.096728927756
 20
-127.925919199545
 10
1273.096728927756
 20
-148.9103723343862
 10
1268.180845662987
 20
-153.4740465313571
 10
1263.264954949582
 20
-148.8969085970898
 10
1263.264954949582
 20
-136.6912727853277
 10
1263.263773109257
 20
-136.6912673167001
 10
1250.731003645522
 20
-136.6912673167001
 10
1259.633580603314
 20
-127.7868881125157
 10
1250.731003645522
 20
-118.8825089083314
 10
1263.263773109257
 20
-118.8825089083314
 10
1263.264954949582
 20
-118.8825034397037
 10
1263.264954949582
 20
-106.6768676279416
 10
1268.180845662987
 20
-102.0997296936741
 10
1273.096728927756
 20
-106.6634038906452
 10
1273.096728927756
 20
-127.6478570254865
  0
LWPOLYLINE
  5
68
330
5F6
100
AcDbEntity
  8
LAYER_1
100
AcDbPolyline
 90
       16
 70
     1
 43
0.0
 10
1328.678097223118
 20
-187.4148090451781
 10
1328.542487084897
 20
-187.4148090451781
 10
1308.074369839216
 20
-187.4148090451781
 10
1303.622987764379
 20
-192.3306923099474
 10
1308.087502292646
 20
-197.2465830233518
 10
1319.992810629628
 20
-197.2465830233518
 10
1319.992815963696
 20
-197.247764863678
 10
1319.992815963696
 20
-209.7805343274119
 10
1328.678097223118
 20
-200.8779573696204
 10
1337.363378482539
 20
-209.7805343274119
 10
1337.363378482539
 20
-197.247764863678
 10
1337.363383816608
 20
-197.2465830233518
 10
1349.26869215359
 20
-197.2465830233518
 10
1353.733206681857
 20
-192.3306923099474
 10
1349.28182460702
 20
-187.4148090451781
 10
1328.813707361339
 20
-187.4148090451781
  0
LWPOLYLINE
  5
69
330
5F6
100
AcDbEntity
  8
LAYER_1
100
AcDbPolyline
 90
       16
 70
     1
 43
0.0
 10
1226.158897990808
 20
-69.63805648558059
 10
1235.0614749486
 20
-78.54243568976494
 10
1222.528705484865
 20
-78.54243568976494
 10
1222.52752364454
 20
-78.54244115839266
 10
1222.52752364454
 20
-90.74807697015492
 10
1217.611632931135
 20
-95.32521490442219
 10
1212.695749666366
 20
-90.76154070745131
 10
1212.695749666366
 20
-69.77708757260984
 10
1212.695749666366
 20
-69.63805648558059
 10
1212.695749666366
 20
-69.49902539855134
 10
1212.695749666366
 20
-48.51457226371008
 10
1217.611632931135
 20
-43.95089806673922
 10
1222.52752364454
 20
-48.5280360010065
 10
1222.52752364454
 20
-60.73367181276854
 10
1222.528705484865
 20
-60.73367728139647
 10
1235.0614749486
 20
-60.73367728139647
  0
LWPOLYLINE
  5
6A
330
5F6
100
AcDbEntity
  8
LAYER_1
100
AcDbPolyline
 90
       16
 70
     1
 43
0.0
 10
1357.037118442102
 20
-200.1717352238677
 10
1352.108629144873
 20
-205.2220122145761
 10
1345.142588212234
 20
-205.222029824122
 10
1345.142581672872
 20
-212.3638635162049
 10
1340.21667289727
 20
-217.414830576133
 10
1345.142581419577
 20
-222.4657973763353
 10
1345.142592690674
 20
-229.6076091352409
 10
1352.108651817146
 20
-229.6076046955934
 10
1357.037118442102
 20
-234.6578800731133
 10
1361.965585067058
 20
-229.6076046955934
 10
1368.93164419353
 20
-229.6076091352409
 10
1368.931655464628
 20
-222.4657973763353
 10
1373.857563986934
 20
-217.414830576133
 10
1368.931655211332
 20
-212.3638635162049
 10
1368.93164867197
 20
-205.222029824122
 10
1361.965607739331
 20
-205.2220122145761
  0
LWPOLYLINE
  5
6B
330
5F6
100
AcDbEntity
  8
LAYER_1
100
AcDbPolyline
 90
       16
 70
     1
 43
0.0
 10
1273.096728927756
 20
-69.63805648558059
 10
1273.096728927756
 20
-69.77708757260984
 10
1273.096728927756
 20
-90.76154070745131
 10
1268.180845662987
 20
-95.32521490442219
 10
1263.264954949582
 20
-90.74807697015492
 10
1263.264954949582
 20
-78.54244115839266
 10
1263.263773109257
 20
-78.54243568976494
 10
1250.731003645522
 20
-78.54243568976494
 10
1259.633580603314
 20
-69.63805648558059
 10
1250.731003645522
 20
-60.73367728139647
 10
1263.263773109257
 20
-60.73367728139647
 10
1263.264954949582
 20
-60.73367181276854
 10
1263.264954949582
 20
-48.5280360010065
 10
1268.180845662987
 20
-43.95089806673922
 10
1273.096728927756
 20
-48.51457226371008
 10
1273.096728927756
 20
-69.49902539855134
  0
LWPOLYLINE
  5
6C
330
5F6
100
AcDbEntity
  8
LAYER_1
100
AcDbPolyline
 90
       16
 70
     1
 43
0.0
 10
1226.158897990808
 20
-11.48922485864568
 10
1235.0614749486
 20
-20.39360406282981
 10
1222.528705484865
 20
-20.39360406282981
 10
1222.52752364454
 20
-20.39360953145774
 10
1222.52752364454
 20
-32.59924534321977
 10
1217.611632931135
 20
-37.17638327748705
 10
1212.695749666366
 20
-32.6127090805162
 10
1212.695749666366
 20
-11.62825594567494
 10
1212.695749666366
 20
-11.48922485864568
 10
1212.695749666366
 20
-11.35019377161643
 10
1212.695749666366
 20
9.634259363224828
 10
1217.611632931135
 20
14.19793356019591
 10
1222.52752364454
 20
9.620795625928396
 10
1222.52752364454
 20
-2.584840185833626
 10
1222.528705484865
 20
-2.584845654461333
 10
1235.0614749486
 20
-2.584845654461333
  0
LWPOLYLINE
  5
6D
330
5F6
100
AcDbEntity
  8
LAYER_1
100
AcDbPolyline
 90
       16
 70
     1
 43
0.0
 10
1273.096728927756
 20
-11.48922485864568
 10
1273.096728927756
 20
-11.62825594567494
 10
1273.096728927756
 20
-32.6127090805162
 10
1268.180845662987
 20
-37.17638327748705
 10
1263.264954949582
 20
-32.59924534321977
 10
1263.264954949582
 20
-20.39360953145774
 10
1263.263773109257
 20
-20.39360406282981
 10
1250.731003645522
 20
-20.39360406282981
 10
1259.633580603314
 20
-11.48922485864568
 10
1250.731003645522
 20
-2.584845654461333
 10
1263.263773109257
 20
-2.584845654461333
 10
1263.264954949582
 20
-2.584840185833626
 10
1263.264954949582
 20
9.620795625928396
 10
1268.180845662987
 20
14.19793356019591
 10
1273.096728927756
 20
9.634259363224828
 10
1273.096728927756
 20
-11.35019377161643
  0
LWPOLYLINE
  5
6E
330
5F6
100
AcDbEntity
  8
LAYER_1
100
AcDbPolyline
 90
       16
 70
     1
 43
0.0
 10
1385.396239297061
 20
-233.9516607207358
 10
1394.081620192458
 20
-225.0490837629443
 10
1394.081620192458
 20
-237.5818532266783
 10
1394.081625526526
 20
-237.5830350670044
 10
1405.986933863508
 20
-237.5830350670044
 10
1410.451448391775
 20
-242.4989257804089
 10
1406.000066316938
 20
-247.4148090451781
 10
1385.531949071257
 20
-247.4148090451781
 10
1385.396239297061
 20
-247.4148090451781
 10
1385.260529522865
 20
-247.4148090451781
 10
1364.792412277184
 20
-247.4148090451781
 10
1360.341030202347
 20
-242.4989257804089
 10
1364.805544730614
 20
-237.5830350670044
 10
1376.710853067596
 20
-237.5830350670044
 10
1376.710858401664
 20
-237.5818532266783
 10
1376.710858401664
 20
-225.0490837629443
  0
LWPOLYLINE
  5
6F
330
5F6
100
AcDbEntity
  8
LAYER_1
100
AcDbPolyline
 90
       16
 70
     1
 43
0.0
 10
1385.396239297061
 20
-187.4148090451781
 10
1385.531949071257
 20
-187.4148090451781
 10
1406.000066316938
 20
-187.4148090451781
 10
1410.451448391775
 20
-192.3306923099474
 10
1405.986933863508
 20
-197.2465830233518
 10
1394.081625526526
 20
-197.2465830233518
 10
1394.081620192458
 20
-197.247764863678
 10
1394.081620192458
 20
-209.7805343274119
 10
1385.396239297061
 20
-200.8779573696204
 10
1376.710858401664
 20
-209.7805343274119
 10
1376.710858401664
 20
-197.247764863678
 10
1376.710853067596
 20
-197.2465830233518
 10
1364.805544730614
 20
-197.2465830233518
 10
1360.341030202347
 20
-192.3306923099474
 10
1364.792412277184
 20
-187.4148090451781
 10
1385.260529522865
 20
-187.4148090451781
  0
LWPOLYLINE
  5
70
330
5F6
100
AcDbEntity
  8
LAYER_1
100
AcDbPolyline
 90
       16
 70
     1
 43
0.0
 10
1510.452675845055
 20
17.58711403174493
 10
1515.502952835764
 20
12.53422001553281
 10
1515.50297044531
 20
5.392451296321951
 10
1522.644804137392
 20
5.392444591995853
 10
1527.695771197321
 20
0.3422731176292473
 10
1532.746737997523
 20
5.39244433231056
 10
1539.888549756429
 20
5.392455887736786
 10
1539.888545316781
 20
12.5342432597447
 10
1544.938820694301
 20
17.58711403174493
 10
1539.888545316781
 20
22.63998480374516
 10
1539.888549756429
 20
29.78177217575308
 10
1532.746737997523
 20
29.7817837311793
 10
1527.695771197321
 20
34.83195494586062
 10
1522.644804137392
 20
29.78178347149401
 10
1515.50297044531
 20
29.78177676716791
 10
1515.502952835764
 20
22.64000804795705
  0
LWPOLYLINE
  5
71
330
5F6
100
AcDbEntity
  8
LAYER_1
100
AcDbPolyline
 90
       16
 70
     1
 43
0.0
 10
1225.853657899821
 20
17.58711403174493
 10
1230.903933277341
 20
12.5342432597447
 10
1230.903928837693
 20
5.392455887736786
 10
1238.045740596599
 20
5.39244433231056
 10
1243.096707396801
 20
0.3422731176292473
 10
1248.14767445673
 20
5.392444591995853
 10
1255.289508148812
 20
5.392451296321951
 10
1255.289525758358
 20
12.53422001553281
 10
1260.339802749067
 20
17.58711403174493
 10
1255.289525758358
 20
22.64000804795705
 10
1255.289508148812
 20
29.78177676716791
 10
1248.14767445673
 20
29.78178347149401
 10
1243.096707396801
 20
34.83195494586062
 10
1238.045740596599
 20
29.7817837311793
 10
1230.903928837693
 20
29.78177217575308
 10
1230.903933277341
 20
22.63998480374516
  0
LWPOLYLINE
  5
72
330
5F6
100
AcDbEntity
  8
LAYER_1
100
AcDbPolyline
 90
        9
 70
     1
 43
0.0
 10
1557.695749666366
 20
-247.4148090451781
 10
1557.55764165626
 20
-247.4148090451781
 10
1536.573188521418
 20
-247.4148090451781
 10
1532.009514324447
 20
-242.4989257804089
 10
1536.586652258715
 20
-237.5830350670044
 10
1548.792288070477
 20
-237.5830350670044
 10
1548.792293539105
 20
-237.5818532266783
 10
1548.792293539105
 20
-225.0490837629443
 10
1557.69573080821
 20
-233.9516607207358
  0
LWPOLYLINE
  5
73
330
5F6
100
AcDbEntity
  8
LAYER_1
100
AcDbPolyline
 90
        9
 70
     1
 43
0.0
 10
1212.695749666366
 20
-247.4148090451781
 10
1212.833857676472
 20
-247.4148090451781
 10
1233.818310811313
 20
-247.4148090451781
 10
1238.381985008284
 20
-242.4989257804089
 10
1233.804847074017
 20
-237.5830350670044
 10
1221.599211262255
 20
-237.5830350670044
 10
1221.599205793627
 20
-237.5818532266783
 10
1221.599205793627
 20
-225.0490837629443
 10
1212.695768524521
 20
-233.9516607207358
  0
LWPOLYLINE
  5
74
330
5F6
100
AcDbEntity
  8
LAYER_1
100
AcDbPolyline
 90
       16
 70
     1
 43
0.0
 10
1452.340420210222
 20
150.6513331813694
 10
1459.446948015494
 20
149.9274946367495
 10
1463.96010835508
 20
144.3924688358904
 10
1469.495157552983
 20
148.9056390716075
 10
1476.601147210045
 20
148.1835546526704
 10
1477.324351020681
 20
155.2894308413796
 10
1482.859405678196
 20
159.8026290891562
 10
1478.346267332939
 20
165.3376487562914
 10
1479.067847787702
 20
172.4444238674951
 10
1471.961304043288
 20
173.1682794073931
 10
1467.448138402555
 20
178.703276818261
 10
1461.913075271608
 20
174.190088962449
 10
1454.807085249149
 20
174.9121734185163
 10
1454.083881475701
 20
167.8062975951989
 10
1448.548846882413
 20
163.2931094481253
 10
1453.062014103625
 20
157.758089258426
  0
LWPOLYLINE
  5
75
330
5F6
100
AcDbEntity
  8
LAYER_1
100
AcDbPolyline
 90
       16
 70
     1
 43
0.0
 10
1489.871974039127
 20
106.8493703044064
 10
1490.551111050181
 20
113.5379816197049
 10
1486.303487941083
 20
118.7473342793164
 10
1491.51285415681
 20
122.9949770830483
 10
1492.193506326366
 20
129.6827599366607
 10
1498.881396659912
 20
129.0031612264916
 10
1504.090789734209
 20
133.250803756099
 10
1508.33841135582
 20
128.0414725350661
 10
1515.026822831628
 20
127.3602069474607
 10
1514.347698468515
 20
120.6715777179397
 10
1518.595294400652
 20
115.4622255501454
 10
1513.38590930123
 20
111.2145732400124
 10
1512.705257096674
 20
104.5267900425067
 10
1506.017367107026
 20
105.2063887177303
 10
1500.807987145984
 20
100.9587627714927
 10
1496.560370513613
 20
106.1681207121173
  0
LWPOLYLINE
  5
76
330
5F6
100
AcDbEntity
  8
LAYER_1
100
AcDbPolyline
 90
       16
 70
     1
 43
0.0
 10
1471.268055952111
 20
128.6789049978831
 10
1483.79473663159
 20
127.4037122063105
 10
1474.081598510425
 20
119.4837842855345
 10
1474.080686017203
 20
119.4830331979347
 10
1481.79388589183
 20
110.0234299682309
 10
1480.876441188305
 20
103.3695237176573
 10
1474.182579622041
 20
103.7999279237554
 10
1460.921715232429
 20
120.063283943
 10
1460.833856264688
 20
120.1710357176858
 10
1460.745997296947
 20
120.278787492372
 10
1447.485132907336
 20
136.5421435116161
 10
1448.411080079498
 20
143.1856103989651
 10
1455.113455660072
 20
142.7447762437871
 10
1462.826655534699
 20
133.2851730140831
 10
1462.827574939583
 20
133.2859156250984
 10
1472.540713060748
 20
141.2058435458741
  0
LWPOLYLINE
  5
77
330
5F6
100
AcDbEntity
  8
LAYER_1
100
AcDbPolyline
 90
       16
 70
     1
 43
0.0
 10
1433.948439000447
 20
174.0001204071089
 10
1446.475119679926
 20
172.724927615536
 10
1436.761981558761
 20
164.80499969476
 10
1436.761069065539
 20
164.8042486071606
 10
1444.474268940166
 20
155.3446453774561
 10
1443.556824236641
 20
148.6907391268828
 10
1436.862962670377
 20
149.1211433329813
 10
1423.602098280765
 20
165.3844993522255
 10
1423.514239313024
 20
165.4922511269115
 10
1423.426380345283
 20
165.6000029015977
 10
1410.165515955672
 20
181.8633589208418
 10
1411.091463127833
 20
188.5068258081906
 10
1417.793838708408
 20
188.0659916530128
 10
1425.507038583035
 20
178.6063884233085
 10
1425.507957987919
 20
178.6071310343241
 10
1435.221096109084
 20
186.5270589550998
  0
LWPOLYLINE
  5
78
330
5F6
100
AcDbEntity
  8
LAYER_1
100
AcDbPolyline
 90
       16
 70
     1
 43
0.0
 10
1470.580912588208
 20
202.6667858281039
 10
1470.668771555949
 20
202.5590340534177
 10
1483.929635945561
 20
186.2956780341735
 10
1483.003688773398
 20
179.6522111468248
 10
1476.301313192824
 20
180.0930453020028
 10
1468.588113318198
 20
189.5526485317068
 10
1468.587193913313
 20
189.5519059206913
 10
1458.874055792149
 20
181.6319779999155
 10
1460.146712900786
 20
194.1589165479065
 10
1447.620032221307
 20
195.4341093394794
 10
1457.333170342471
 20
203.3540372602554
 10
1457.334082835693
 20
203.354788347855
 10
1449.620882961067
 20
212.8143915775593
 10
1450.538327664592
 20
219.4682978281326
 10
1457.232189230856
 20
219.0378936220343
 10
1470.493053620467
 20
202.7745376027901
  0
LWPOLYLINE
  5
79
330
5F6
100
AcDbEntity
  8
LAYER_1
100
AcDbPolyline
 90
       16
 70
     1
 43
0.0
 10
1416.444019071964
 20
198.1466680014214
 10
1423.285855434118
 20
196.7527039995455
 10
1427.370793264701
 20
191.7428584399133
 10
1432.380660001394
 20
195.8278052276521
 10
1438.81241154349
 20
195.1742343952758
 10
1439.466995556245
 20
201.605883235246
 10
1444.476867234525
 20
205.6908553771739
 10
1440.391949311381
 20
210.7006953850687
 10
1441.196932396343
 20
217.140246426321
 10
1434.966523085159
 20
218.1813510109889
 10
1431.184643792147
 20
223.4237207381843
 10
1425.942213496729
 20
219.6418248867838
 10
1419.560298967459
 20
220.6741784945843
 10
1418.526940121299
 20
214.2924269930561
 10
1413.284535595123
 20
210.5105293527149
 10
1417.066415098277
 20
205.2681389595143
  0
LWPOLYLINE
  5
7A
330
5F6
100
AcDbEntity
  8
LAYER_1
100
AcDbPolyline
 90
       16
 70
     1
 43
0.0
 10
1328.678097223118
 20
269.1258887842266
 10
1319.992815963696
 20
260.2233118264351
 10
1319.992815963696
 20
272.7560812901695
 10
1319.992810629628
 20
272.7572631304954
 10
1308.087502292646
 20
272.7572631304954
 10
1303.622987764379
 20
277.6731538439001
 10
1308.074369839216
 20
282.5890371086694
 10
1328.542487084897
 20
282.5890371086694
 10
1328.678097223118
 20
282.5890371086694
 10
1328.813707361339
 20
282.5890371086694
 10
1349.28182460702
 20
282.5890371086694
 10
1353.733206681857
 20
277.6731538439001
 10
1349.26869215359
 20
272.7572631304954
 10
1337.363383816608
 20
272.7572631304954
 10
1337.36337848254
 20
272.7560812901695
 10
1337.36337848254
 20
260.2233118264351
  0
LWPOLYLINE
  5
7B
330
5F6
100
AcDbEntity
  8
LAYER_1
100
AcDbPolyline
 90
       16
 70
     1
 43
0.0
 10
1328.678097223118
 20
222.589037108668
 10
1328.542487084897
 20
222.589037108668
 10
1308.074369839216
 20
222.589037108668
 10
1303.622987764379
 20
227.5049203734372
 10
1308.087502292646
 20
232.4208110868419
 10
1319.992810629628
 20
232.4208110868419
 10
1319.992815963696
 20
232.421992927168
 10
1319.992815963696
 20
244.9547623909023
 10
1328.678097223118
 20
236.0521854331107
 10
1337.36337848254
 20
244.9547623909023
 10
1337.36337848254
 20
232.421992927168
 10
1337.363383816608
 20
232.4208110868419
 10
1349.26869215359
 20
232.4208110868419
 10
1353.733206681857
 20
227.5049203734372
 10
1349.28182460702
 20
222.589037108668
 10
1328.813707361339
 20
222.589037108668
  0
LWPOLYLINE
  5
7C
330
5F6
100
AcDbEntity
  8
LAYER_1
100
AcDbPolyline
 90
       16
 70
     1
 43
0.0
 10
1226.158897990808
 20
221.1100247260174
 10
1235.0614749486
 20
230.0144808532789
 10
1222.528705484865
 20
230.0144808532789
 10
1222.52752364454
 20
230.0144863219066
 10
1222.52752364454
 20
242.2201221336691
 10
1217.611632931135
 20
246.7972600679366
 10
1212.695749666366
 20
242.2335858709655
 10
1212.695749666366
 20
221.2491327361236
 10
1212.695749666366
 20
221.1100247260174
 10
1212.695749666366
 20
220.9709167159115
 10
1212.695749666366
 20
199.98646358107
 10
1217.611632931135
 20
195.422789384099
 10
1222.52752364454
 20
199.9999273183664
 10
1222.52752364454
 20
212.2055631301284
 10
1222.528705484865
 20
212.2055685987564
 10
1235.0614749486
 20
212.2055685987564
  0
LWPOLYLINE
  5
7D
330
5F6
100
AcDbEntity
  8
LAYER_1
100
AcDbPolyline
 90
       16
 70
     1
 43
0.0
 10
1242.170221664301
 20
235.345963287358
 10
1237.117404571165
 20
240.3962402780667
 10
1229.975635851955
 20
240.3962578876124
 10
1229.975629147629
 20
247.5380915796954
 10
1224.925457673262
 20
252.5890586396238
 10
1229.975628887943
 20
257.6400254398259
 10
1229.97564044337
 20
264.7818371987316
 10
1237.117427815377
 20
264.7818327590842
 10
1242.170221664301
 20
269.8321081366043
 10
1247.223015513224
 20
264.7818327590842
 10
1254.364802885232
 20
264.7818371987316
 10
1254.364814440658
 20
257.6400254398259
 10
1259.414985655339
 20
252.5890586396238
 10
1254.364814180973
 20
247.5380915796954
 10
1254.364807476647
 20
240.3962578876124
 10
1247.223038757436
 20
240.3962402780667
  0
LWPOLYLINE
  5
7E
330
5F6
100
AcDbEntity
  8
LAYER_1
100
AcDbPolyline
 90
       16
 70
     1
 43
0.0
 10
1271.244637477768
 20
269.1258887842266
 10
1262.340258273584
 20
260.2233118264351
 10
1262.340258273584
 20
272.7560812901695
 10
1262.340252804956
 20
272.7572631304954
 10
1250.134616993194
 20
272.7572631304954
 10
1245.557479058927
 20
277.6731538439001
 10
1250.121153255898
 20
282.5890371086694
 10
1271.105606390739
 20
282.5890371086694
 10
1271.244637477768
 20
282.5890371086694
 10
1271.383668564798
 20
282.5890371086694
 10
1292.368121699639
 20
282.5890371086694
 10
1296.93179589661
 20
277.6731538439001
 10
1292.354657962343
 20
272.7572631304954
 10
1280.14902215058
 20
272.7572631304954
 10
1280.149016681953
 20
272.7560812901695
 10
1280.149016681953
 20
260.2233118264351
  0
LWPOLYLINE
  5
7F
330
5F6
100
AcDbEntity
  8
LAYER_1
100
AcDbPolyline
 90
       23
 70
     1
 43
0.0
 10
1273.096728927756
 20
221.1100247260174
 10
1273.096728927756
 20
220.9709167159115
 10
1273.096728927756
 20
199.98646358107
 10
1268.180845662987
 20
195.422789384099
 10
1263.264954949583
 20
199.9999273183664
 10
1263.264954949583
 20
212.2055631301284
 10
1263.263773109257
 20
212.2055685987564
 10
1250.731003645522
 20
212.2055685987564
 10
1259.633580603314
 20
221.1100247260174
 10
1250.731003645522
 20
230.0144808532789
 10
1263.263773109257
 20
230.0144808532789
 10
1263.264954949583
 20
230.0144863219066
 10
1263.264954949583
 20
242.2201221336691
 10
1264.202313264034
 20
243.0928873250061
 10
1271.244637477768
 20
236.0521854331107
 10
1280.149016681953
 20
244.9547623909023
 10
1280.149016681953
 20
232.421992927168
 10
1280.14902215058
 20
232.4208110868419
 10
1292.354657962343
 20
232.4208110868419
 10
1296.93179589661
 20
227.5049203734372
 10
1292.368121699639
 20
222.589037108668
 10
1273.096728927756
 20
222.589037108668
 10
1273.096728927756
 20
221.2491327361236
  0
LWPOLYLINE
  5
80
330
5F6
100
AcDbEntity
  8
LAYER_1
100
AcDbPolyline
 90
       16
 70
     1
 43
0.0
 10
1300.319053291236
 20
235.345963287358
 10
1295.266236198101
 20
240.3962402780667
 10
1288.12446747889
 20
240.3962578876124
 10
1288.124460774564
 20
247.5380915796954
 10
1283.074289300197
 20
252.5890586396238
 10
1288.124460514879
 20
257.6400254398259
 10
1288.124472070305
 20
264.7818371987316
 10
1295.266259442313
 20
264.7818327590842
 10
1300.319053291236
 20
269.8321081366043
 10
1305.24754262909
 20
264.7818327590842
 10
1312.213601755562
 20
264.7818371987316
 10
1312.213613026659
 20
257.6400254398259
 10
1317.139521548966
 20
252.5890586396238
 10
1312.213612773364
 20
247.5380915796954
 10
1312.213606234002
 20
240.3962578876124
 10
1305.247565301363
 20
240.3962402780667
  0
LWPOLYLINE
  5
81
330
5F6
100
AcDbEntity
  8
LAYER_1
100
AcDbPolyline
 90
        9
 70
     1
 43
0.0
 10
1212.695749666366
 20
282.5890371086694
 10
1212.833857676472
 20
282.5890371086694
 10
1233.818310811313
 20
282.5890371086694
 10
1238.381985008284
 20
277.6731538439001
 10
1233.804847074017
 20
272.7572631304954
 10
1221.599211262255
 20
272.7572631304954
 10
1221.599205793627
 20
272.7560812901695
 10
1221.599205793627
 20
260.2233118264351
 10
1212.695768524521
 20
269.1258887842266
  0
LWPOLYLINE
  5
82
330
5F6
100
AcDbEntity
  8
LAYER_1
100
AcDbPolyline
 90
       19
 70
     1
 43
0.0
 10
1367.206138664843
 20
222.589037108668
 10
1363.30362351906
 20
227.831489173559
 10
1367.880761453327
 20
232.7473798869639
 10
1380.086397265089
 20
232.7473798869639
 10
1380.086402733717
 20
232.7485617272898
 10
1380.086402733717
 20
245.2813311910243
 10
1388.990781937901
 20
236.3787542332325
 10
1396.033106151635
 20
243.4194561251281
 10
1396.970464466087
 20
242.5466909337911
 10
1396.970464466087
 20
230.3410551220286
 10
1396.971646306413
 20
230.3410496534009
 10
1409.504415770147
 20
230.3410496534009
 10
1400.601838812355
 20
221.4365935261394
 10
1409.504415770147
 20
212.5321373988784
 10
1396.971646306413
 20
212.5321373988784
 10
1396.970464466087
 20
212.5321319302504
 10
1396.970464466087
 20
200.3264961184884
 10
1395.911285687987
 20
199.3403050806789
 10
1376.819018253622
 20
222.589037108668
  0
LWPOLYLINE
  5
83
330
5F6
100
AcDbEntity
  8
LAYER_1
100
AcDbPolyline
 90
       11
 70
     1
 43
0.0
 10
1497.701044776373
 20
75.36507840304055
 10
1496.923688475224
 20
76.31844176669005
 10
1496.835829507484
 20
76.42619354137628
 10
1496.747970539743
 20
76.5339453160625
 10
1483.487106150131
 20
92.79730133530668
 10
1484.413053322294
 20
99.44076822265538
 10
1491.115428902868
 20
98.99993406747762
 10
1498.828628777494
 20
89.54033083777334
 10
1498.829548182379
 20
89.5410734487889
 10
1508.542686303543
 20
97.46100136956464
 10
1507.270029194906
 20
84.93406282157366
  0
LWPOLYLINE
  5
84
330
5F6
100
AcDbEntity
  8
LAYER_1
100
AcDbPolyline
 90
       16
 70
     1
 43
0.0
 10
1497.695749666366
 20
46.66345292213554
 10
1497.695749666366
 20
46.80248400916457
 10
1497.695749666366
 20
67.78693714400583
 10
1502.611632931135
 20
72.35061134097691
 10
1507.52752364454
 20
67.7734734067094
 10
1507.52752364454
 20
55.5678375949476
 10
1507.528705484865
 20
55.56783212631967
 10
1520.0614749486
 20
55.56783212631967
 10
1511.158897990808
 20
46.66345292213554
 10
1520.0614749486
 20
37.75907371795121
 10
1507.528705484865
 20
37.75907371795121
 10
1507.52752364454
 20
37.75906824932326
 10
1507.52752364454
 20
25.55343243756147
 10
1502.611632931135
 20
20.97629450329396
 10
1497.695749666366
 20
25.53996870026504
 10
1497.695749666366
 20
46.52442183510629
  0
LWPOLYLINE
  5
85
330
5F6
100
AcDbEntity
  8
LAYER_1
100
AcDbPolyline
 90
       16
 70
     1
 43
0.0
 10
1507.144126521263
 20
158.3483743945922
 10
1507.231985489004
 20
158.2406226199059
 10
1520.522222515079
 20
142.0859749365773
 10
1519.431683980653
 20
135.2624220241692
 10
1512.729308400079
 20
135.7032561793469
 10
1505.016108525453
 20
145.1628594090512
 10
1505.015189120568
 20
145.1621167980356
 10
1495.302050999404
 20
137.2421888772599
 10
1496.574708108041
 20
149.7691274252509
 10
1484.048027428562
 20
151.0443202168237
 10
1493.761165549727
 20
158.9642481375996
 10
1493.762078042948
 20
158.9649992251993
 10
1486.048878168322
 20
168.4246024549034
 10
1486.966322871847
 20
175.0785087054769
 10
1493.735973370809
 20
174.6407900845236
 10
1507.056267553523
 20
158.4561261692784
  0
LWPOLYLINE
  5
86
330
5F6
100
AcDbEntity
  8
LAYER_1
100
AcDbPolyline
 90
       16
 70
     1
 43
0.0
 10
1431.643530186071
 20
250.1176385335855
 10
1431.554251063979
 20
250.2242165872317
 10
1418.19037490392
 20
266.4005233645205
 10
1411.491397603005
 20
266.7421863135676
 10
1410.662207454453
 20
260.0767068204634
 10
1418.500083667123
 20
250.7201453770579
 10
1418.499181207033
 20
250.7193822635359
 10
1408.891846582935
 20
242.6714364478803
 10
1421.434325534812
 20
241.5623524821481
 10
1418.304193630393
 20
229.8765186480186
 10
1429.935115070604
 20
237.0675951015683
 10
1429.936024554077
 20
237.0683498308399
 10
1437.773900766748
 20
227.7117883874344
 10
1444.4815295465
 20
227.3598092282582
 10
1445.260809780841
 20
233.5609108036676
 10
1431.732809308163
 20
250.0110604799393
  0
LWPOLYLINE
  5
87
330
5F6
100
AcDbEntity
  8
LAYER_1
100
AcDbPolyline
 90
       16
 70
     1
 43
0.0
 10
1404.920083715102
 20
282.5890371086694
 10
1390.08901814355
 20
282.5890371086694
 10
1389.953408005329
 20
282.5890371086694
 10
1389.817797867107
 20
282.5890371086694
 10
1369.349680621426
 20
282.5890371086694
 10
1364.898298546589
 20
277.4896506525436
 10
1369.362813074856
 20
272.3902564697353
 10
1381.268121411838
 20
272.3902564697353
 10
1381.268126745907
 20
272.389030512928
 10
1381.268126745907
 20
259.38842992521
 10
1389.953408005329
 20
268.6233278912646
 10
1398.63868926475
 20
259.38842992521
 10
1398.63868926475
 20
272.389030512928
 10
1398.638694598819
 20
272.3902564697353
 10
1405.988734591558
 20
272.3902564697353
 10
1409.763757988417
 20
276.7021099149474
  0
LWPOLYLINE
  5
88
330
5F6
100
AcDbEntity
  8
LAYER_1
100
AcDbPolyline
 90
       16
 70
     1
 43
0.0
 10
1358.93614691887
 20
269.8321081366043
 10
1363.865613543826
 20
264.7818327590842
 10
1370.831672670298
 20
264.7818371987316
 10
1370.831683941395
 20
257.6400254398259
 10
1375.757592463702
 20
252.5890586396238
 10
1370.8316836881
 20
247.5380915796952
 10
1370.831677148738
 20
240.3962578876124
 10
1363.865636216099
 20
240.3962402780664
 10
1358.93614691887
 20
235.345963287358
 10
1354.00665762164
 20
240.3962402780664
 10
1347.040616689002
 20
240.3962578876124
 10
1347.04061014964
 20
247.5380915796952
 10
1342.114701374038
 20
252.5890586396238
 10
1347.040609896344
 20
257.6400254398259
 10
1347.040621167442
 20
264.7818371987316
 10
1354.006680293914
 20
264.7818327590842
  0
LWPOLYLINE
  5
89
330
5F6
100
AcDbEntity
  8
LAYER_1
100
AcDbPolyline
 90
       14
 70
     0
 43
0.0
 10
1531.258273346011
 20
129.9230054799509
 10
1524.921045895885
 20
130.3304787033715
 10
1524.027852004296
 20
123.8524551283494
 10
1531.537168899523
 20
114.6428975504834
 10
1531.536280526231
 20
114.642166316379
 10
1522.079889743609
 20
106.9315858165651
 10
1534.275452726097
 20
105.6901001906149
 10
1533.036435757385
 20
93.49428615585223
 10
1542.492826540008
 20
101.2048666556661
 10
1542.493721642267
 20
101.2055896372481
 10
1548.493721642267
 20
90.81328479183479
 10
1556.186432771139
 20
88.75202905724746
 10
1556.186432771138
 20
96.32524737693323
 10
1556.095127268489
 20
96.5060257306591
  0
LWPOLYLINE
  5
8A
330
5F6
100
AcDbEntity
  8
LAYER_1
100
AcDbPolyline
 90
        2
 70
     0
 43
0.0
 10
1556.095127268503
 20
96.50602573066953
 10
1531.258273346011
 20
129.9230054799509
  0
LWPOLYLINE
  5
8B
330
5F6
100
AcDbEntity
  8
LAYER_1
100
AcDbPolyline
 90
        2
 70
     0
 43
0.0
 10
1563.695749666365
 20
86.27969652070145
 10
1564.051565231451
 20
85.80096110718839
  0
LWPOLYLINE
  5
8D
330
5F6
100
AcDbEntity
  8
LAYER_2
100
AcDbPolyline
 90
        5
 70
     1
 43
0.0
 10
1563.695749666366
 20
-253.410962891332
 10
1563.695749666366
 20
99.05893265653505
 10
1407.753258661447
 20
288.5890371086696
 10
1206.695749666366
 20
288.5890371086694
 10
1206.695749666366
 20
-253.410962891332
  0
LWPOLYLINE
  5
8E
330
5F6
100
AcDbEntity
  8
LAYER_2
100
AcDbPolyline
 90
        5
 70
     1
 43
0.0
 10
1491.695749666366
 20
73.24585805446054
 10
1373.755159305309
 20
216.5890371086693
 10
1278.695749666366
 20
216.5890371086693
 10
1278.695749666366
 20
-181.410962891332
 10
1491.695749666366
 20
-181.410962891332
  0
LWPOLYLINE
  5
90
330
5F6
100
AcDbEntity
  8
LAYER_3
100
AcDbPolyline
 90
        5
 70
     1
 43
0.0
 10
1442.695749666366
 20
362.5890371086707
 10
1132.695749666366
 20
362.5890371086707
 10
1132.695749666366
 20
-327.410962891332
 10
1637.695749666366
 20
-327.410962891332
 10
1637.695749666366
 20
125.589037108668
  0
ENDSEC
  0
SECTION
  2
OBJECTS
  0
DICTIONARY
  5
58E
330
0
100
AcDbDictionary
281
     1
  3
ACAD_COLOR
350
5EC
  3
ACAD_GROUP
350
58F
  3
ACAD_LAYOUT
350
5EB
  3
ACAD_MATERIAL
350
592
  3
ACAD_MLEADERSTYLE
350
5EF
  3
ACAD_MLINESTYLE
350
5E8
  3
ACAD_PLOTSETTINGS
350
5EA
  3
ACAD_PLOTSTYLENAME
350
590
  3
ACAD_SCALELIST
350
5BC
  3
ACAD_TABLESTYLE
350
5ED
  3
ACAD_VISUALSTYLE
350
5AB
  3
ACDB_RECOMPOSE_DATA
350
616
  3
AcDbVariableDictionary
350
60D
  3
DWGPROPS
350
617
  0
DICTIONARY
  5
605
330
5DE
100
AcDbDictionary
280
     1
281
     1
  3
ADSK_XREC_LAYER_RECONCILED
360
606
  0
DICTIONARY
  5
607
330
5FC
100
AcDbDictionary
280
     1
281
     1
  3
ADSK_XREC_LAYER_RECONCILED
360
608
  0
DICTIONARY
  5
609
330
5FD
100
AcDbDictionary
280
     1
281
     1
  3
ADSK_XREC_LAYER_RECONCILED
360
60A
  0
DICTIONARY
  5
60B
330
5FE
100
AcDbDictionary
280
     1
281
     1
  3
ADSK_XREC_LAYER_RECONCILED
360
60C
  0
DICTIONARY
  5
5EC
102
{ACAD_REACTORS
330
58E
102
}
330
58E
100
AcDbDictionary
281
     1
  0
DICTIONARY
  5
58F
102
{ACAD_REACTORS
330
58E
102
}
330
58E
100
AcDbDictionary
281
     1
  0
DICTIONARY
  5
5EB
102
{ACAD_REACTORS
330
58E
102
}
330
58E
100
AcDbDictionary
281
     1
  3
Model
350
5F9
  3
Présentation1
350
5F5
  0
DICTIONARY
  5
592
102
{ACAD_REACTORS
330
58E
102
}
330
58E
100
AcDbDictionary
281
     1
  3
ByBlock
350
59B
  3
ByLayer
350
593
  3
Global
350
5A3
  0
DICTIONARY
  5
5EF
102
{ACAD_REACTORS
330
58E
102
}
330
58E
100
AcDbDictionary
281
     1
  3
Standard
350
5F0
  0
DICTIONARY
  5
5E8
102
{ACAD_REACTORS
330
58E
102
}
330
58E
100
AcDbDictionary
281
     1
  3
Standard
350
5E9
  0
DICTIONARY
  5
5EA
102
{ACAD_REACTORS
330
58E
102
}
330
58E
100
AcDbDictionary
281
     1
  0
ACDBDICTIONARYWDFLT
  5
590
102
{ACAD_REACTORS
330
58E
102
}
330
58E
100
AcDbDictionary
281
     1
  3
Normal
350
591
100
AcDbDictionaryWithDefault
340
591
  0
DICTIONARY
  5
5BC
102
{ACAD_REACTORS
330
58E
102
}
330
58E
100
AcDbDictionary
281
     1
  3
A0
350
5BD
  3
A1
350
5BE
  3
A2
350
5BF
  3
A3
350
5C0
  3
A4
350
5C1
  3
A5
350
5C2
  3
A6
350
5C3
  3
A7
350
5C4
  3
A8
350
5C5
  3
A9
350
5C6
  3
B0
350
5C7
  3
B1
350
5C8
  3
B2
350
5C9
  3
B3
350
5CA
  3
B4
350
5CB
  3
B5
350
5CC
  3
B6
350
5CD
  3
B7
350
5CE
  3
B8
350
5CF
  3
B9
350
5D0
  3
C0
350
5D1
  3
C1
350
5D2
  3
C2
350
5D3
  3
C3
350
5D4
  3
C4
350
5D5
  3
C5
350
5D6
  3
C6
350
5D7
  3
C7
350
5D8
  3
C8
350
5D9
  3
C9
350
5DA
  3
D0
350
5DB
  3
D1
350
5DC
  3
D2
350
5DD
  0
DICTIONARY
  5
5ED
102
{ACAD_REACTORS
330
58E
102
}
330
58E
100
AcDbDictionary
281
     1
  3
Standard
350
5EE
  0
DICTIONARY
  5
5AB
102
{ACAD_REACTORS
330
58E
102
}
330
58E
100
AcDbDictionary
281
     1
  3
2dWireframe
350
5B1
  3
3D Hidden
350
5B3
  3
3dWireframe
350
5B2
  3
Basic
350
5B0
  3
Brighten
350
5B7
  3
ColorChange
350
5BB
  3
Conceptual
350
5B4
  3
Dim
350
5B6
  3
Facepattern
350
5BA
  3
Flat
350
5AC
  3
FlatWithEdges
350
5AD
  3
Gouraud
350
5AE
  3
GouraudWithEdges
350
5AF
  3
Linepattern
350
5B9
  3
Realistic
350
5B5
  3
Thicken
350
5B8
  0
XRECORD
  5
616
102
{ACAD_REACTORS
330
58E
102
}
330
58E
100
AcDbXrecord
280
     1
 90
        1
330
5EE
  0
DICTIONARY
  5
60D
102
{ACAD_REACTORS
330
58E
102
}
330
58E
100
AcDbDictionary
281
     1
  3
CANNOSCALE
350
610
  3
CMLEADERSTYLE
350
60F
  3
CTABLESTYLE
350
60E
  3
DIMASSOC
350
613
  3
INDEXCTL
350
612
  3
SORTENTS
350
611
  0
XRECORD
  5
617
102
{ACAD_REACTORS
330
58E
102
}
330
58E
100
AcDbXrecord
280
     1
  1
DWGPROPS COOKIE
  2

  3

  4

  6

  7

  8
user
  9

300
=
301
=
302
=
303
=
304
=
305
=
306
=
307
=
308
=
309
=
 40
0.0004668171296296
 41
2454910.5
 42
2457348.475156054
  1

 90
        0
  0
XRECORD
  5
606
102
{ACAD_REACTORS
330
605
102
}
330
605
100
AcDbXrecord
280
     1
290
     1
  0
XRECORD
  5
608
102
{ACAD_REACTORS
330
607
102
}
330
607
100
AcDbXrecord
280
     1
290
     1
  0
XRECORD
  5
60A
102
{ACAD_REACTORS
330
609
102
}
330
609
100
AcDbXrecord
280
     1
290
     1
  0
XRECORD
  5
60C
102
{ACAD_REACTORS
330
60B
102
}
330
60B
100
AcDbXrecord
280
     1
290
     1
  0
LAYOUT
  5
5F9
102
{ACAD_XDICTIONARY
360
61E
102
}
102
{ACAD_REACTORS
330
5EB
102
}
330
5EB
100
AcDbPlotSettings
  1

  2
CutePDF Writer
  4

  6

 40
0.0
 41
0.0
 42
0.0
 43
0.0
 44
0.0
 45
0.0
 46
0.0
 47
0.0
 48
0.0
 49
0.0
140
0.0
141
0.0
142
1.0
143
1.0
 70
  1712
 72
     0
 73
     0
 74
     0
  7

 75
     0
147
1.0
148
0.0
149
0.0
100
AcDbLayout
  1
Model
 70
     1
 71
     0
 10
0.0
 20
0.0
 11
12.0
 21
9.0
 12
0.0
 22
0.0
 32
0.0
 14
0.0
 24
0.0
 34
0.0
 15
0.0
 25
0.0
 35
0.0
146
0.0
 13
0.0
 23
0.0
 33
0.0
 16
1.0
 26
0.0
 36
0.0
 17
0.0
 27
1.0
 37
0.0
 76
     0
330
5F6
331
5FA
  0
LAYOUT
  5
5F5
102
{ACAD_XDICTIONARY
360
61C
102
}
102
{ACAD_REACTORS
330
5EB
102
}
330
5EB
100
AcDbPlotSettings
  1

  2
CutePDF Writer
  4

  6

 40
0.0
 41
0.0
 42
0.0
 43
0.0
 44
0.0
 45
0.0
 46
0.0
 47
0.0
 48
0.0
 49
0.0
140
0.0
141
0.0
142
1.0
143
1.0
 70
   688
 72
     0
 73
     0
 74
     5
  7

 75
    16
147
1.0
148
0.0
149
0.0
100
AcDbLayout
  1
Présentation1
 70
     1
 71
     1
 10
0.0
 20
0.0
 11
12.0
 21
9.0
 12
0.0
 22
0.0
 32
0.0
 14
1.000000000000000E+20
 24
1.000000000000000E+20
 34
1.000000000000000E+20
 15
-1.000000000000000E+20
 25
-1.000000000000000E+20
 35
-1.000000000000000E+20
146
0.0
 13
0.0
 23
0.0
 33
0.0
 16
1.0
 26
0.0
 36
0.0
 17
0.0
 27
1.0
 37
0.0
 76
     0
330
5F2
  0
MATERIAL
  5
59B
102
{ACAD_XDICTIONARY
360
59C
102
}
102
{ACAD_REACTORS
330
592
102
}
330
592
100
AcDbMaterial
  1
ByBlock
 72
     0
 43
0.0208333333333333
 43
0.0
 43
0.0
 43
0.0
 43
0.0
 43
0.0208333333333333
 43
0.0
 43
0.0
 43
0.0
 43
0.0
 43
1.0
 43
0.0
 43
0.0
 43
0.0
 43
0.0
 43
1.0
 77
     0
 47
0.0208333333333333
 47
0.0
 47
0.0
 47
0.0
 47
0.0
 47
0.0208333333333333
 47
0.0
 47
0.0
 47
0.0
 47
0.0
 47
1.0
 47
0.0
 47
0.0
 47
0.0
 47
0.0
 47
1.0
171
     0
 49
0.0208333333333333
 49
0.0
 49
0.0
 49
0.0
 49
0.0
 49
0.0208333333333333
 49
0.0
 49
0.0
 49
0.0
 49
0.0
 49
1.0
 49
0.0
 49
0.0
 49
0.0
 49
0.0
 49
1.0
175
     0
142
0.0208333333333333
142
0.0
142
0.0
142
0.0
142
0.0
142
0.0208333333333333
142
0.0
142
0.0
142
0.0
142
0.0
142
1.0
142
0.0
142
0.0
142
0.0
142
0.0
142
1.0
179
     0
144
0.0208333333333333
144
0.0
144
0.0
144
0.0
144
0.0
144
0.0208333333333333
144
0.0
144
0.0
144
0.0
144
0.0
144
1.0
144
0.0
144
0.0
144
0.0
144
0.0
144
1.0
147
0.0208333333333333
147
0.0
147
0.0
147
0.0
147
0.0
147
0.0208333333333333
147
0.0
147
0.0
147
0.0
147
0.0
147
1.0
147
0.0
147
0.0
147
0.0
147
0.0
147
1.0
  0
MATERIAL
  5
593
102
{ACAD_XDICTIONARY
360
594
102
}
102
{ACAD_REACTORS
330
592
102
}
330
592
100
AcDbMaterial
  1
ByLayer
 72
     0
 43
0.0208333333333333
 43
0.0
 43
0.0
 43
0.0
 43
0.0
 43
0.0208333333333333
 43
0.0
 43
0.0
 43
0.0
 43
0.0
 43
1.0
 43
0.0
 43
0.0
 43
0.0
 43
0.0
 43
1.0
 77
     0
 47
0.0208333333333333
 47
0.0
 47
0.0
 47
0.0
 47
0.0
 47
0.0208333333333333
 47
0.0
 47
0.0
 47
0.0
 47
0.0
 47
1.0
 47
0.0
 47
0.0
 47
0.0
 47
0.0
 47
1.0
171
     0
 49
0.0208333333333333
 49
0.0
 49
0.0
 49
0.0
 49
0.0
 49
0.0208333333333333
 49
0.0
 49
0.0
 49
0.0
 49
0.0
 49
1.0
 49
0.0
 49
0.0
 49
0.0
 49
0.0
 49
1.0
175
     0
142
0.0208333333333333
142
0.0
142
0.0
142
0.0
142
0.0
142
0.0208333333333333
142
0.0
142
0.0
142
0.0
142
0.0
142
1.0
142
0.0
142
0.0
142
0.0
142
0.0
142
1.0
179
     0
144
0.0208333333333333
144
0.0
144
0.0
144
0.0
144
0.0
144
0.0208333333333333
144
0.0
144
0.0
144
0.0
144
0.0
144
1.0
144
0.0
144
0.0
144
0.0
144
0.0
144
1.0
147
0.0208333333333333
147
0.0
147
0.0
147
0.0
147
0.0
147
0.0208333333333333
147
0.0
147
0.0
147
0.0
147
0.0
147
1.0
147
0.0
147
0.0
147
0.0
147
0.0
147
1.0
  0
MATERIAL
  5
5A3
102
{ACAD_XDICTIONARY
360
5A4
102
}
102
{ACAD_REACTORS
330
592
102
}
330
592
100
AcDbMaterial
  1
Global
 72
     0
 43
0.0208333333333333
 43
0.0
 43
0.0
 43
0.0
 43
0.0
 43
0.0208333333333333
 43
0.0
 43
0.0
 43
0.0
 43
0.0
 43
1.0
 43
0.0
 43
0.0
 43
0.0
 43
0.0
 43
1.0
 77
     0
 47
0.0208333333333333
 47
0.0
 47
0.0
 47
0.0
 47
0.0
 47
0.0208333333333333
 47
0.0
 47
0.0
 47
0.0
 47
0.0
 47
1.0
 47
0.0
 47
0.0
 47
0.0
 47
0.0
 47
1.0
171
     0
 49
0.0208333333333333
 49
0.0
 49
0.0
 49
0.0
 49
0.0
 49
0.0208333333333333
 49
0.0
 49
0.0
 49
0.0
 49
0.0
 49
1.0
 49
0.0
 49
0.0
 49
0.0
 49
0.0
 49
1.0
175
     0
142
0.0208333333333333
142
0.0
142
0.0
142
0.0
142
0.0
142
0.0208333333333333
142
0.0
142
0.0
142
0.0
142
0.0
142
1.0
142
0.0
142
0.0
142
0.0
142
0.0
142
1.0
179
     0
144
0.0208333333333333
144
0.0
144
0.0
144
0.0
144
0.0
144
0.0208333333333333
144
0.0
144
0.0
144
0.0
144
0.0
144
1.0
144
0.0
144
0.0
144
0.0
144
0.0
144
1.0
147
0.0208333333333333
147
0.0
147
0.0
147
0.0
147
0.0
147
0.0208333333333333
147
0.0
147
0.0
147
0.0
147
0.0
147
1.0
147
0.0
147
0.0
147
0.0
147
0.0
147
1.0
  0
MLEADERSTYLE
  5
5F0
102
{ACAD_REACTORS
330
5EF
102
}
330
5EF
100
AcDbMLeaderStyle
170
     2
171
     1
172
     0
 90
        2
 40
0.0
 41
0.0
173
     1
 91
-1056964608
340
5E4
 92
       -2
290
     1
 42
0.09
291
     1
 43
0.36
  3
Standard
 44
0.18
300

342
5DF
174
     1
178
     6
175
     1
176
     0
 93
-1056964608
 45
0.18
292
     0
297
     0
 46
0.18
 94
-1056964608
 47
1.0
 49
1.0
140
1.0
293
     1
141
0.0
294
     1
177
     0
142
1.0
295
     0
296
     0
143
0.125
1001
ACAD_MLEADERVER
1070
     2
  0
MLINESTYLE
  5
5E9
102
{ACAD_REACTORS
330
5E8
102
}
330
5E8
100
AcDbMlineStyle
  2
STANDARD
 70
     0
  3

 62
   256
 51
90.0
 52
90.0
 71
     2
 49
0.5
 62
   256
  6
BYLAYER
 49
-0.5
 62
   256
  6
BYLAYER
  0
ACDBPLACEHOLDER
  5
591
102
{ACAD_REACTORS
330
590
102
}
330
590
  0
SCALE
  5
5BD
102
{ACAD_REACTORS
330
5BC
102
}
330
5BC
100
AcDbScale
 70
     0
300
1:1
140
1.0
141
1.0
290
     1
  0
SCALE
  5
5BE
102
{ACAD_REACTORS
330
5BC
102
}
330
5BC
100
AcDbScale
 70
     0
300
1:2
140
1.0
141
2.0
290
     0
  0
SCALE
  5
5BF
102
{ACAD_REACTORS
330
5BC
102
}
330
5BC
100
AcDbScale
 70
     0
300
1:4
140
1.0
141
4.0
290
     0
  0
SCALE
  5
5C0
102
{ACAD_REACTORS
330
5BC
102
}
330
5BC
100
AcDbScale
 70
     0
300
1:5
140
1.0
141
5.0
290
     0
  0
SCALE
  5
5C1
102
{ACAD_REACTORS
330
5BC
102
}
330
5BC
100
AcDbScale
 70
     0
300
1:8
140
1.0
141
8.0
290
     0
  0
SCALE
  5
5C2
102
{ACAD_REACTORS
330
5BC
102
}
330
5BC
100
AcDbScale
 70
     0
300
1:10
140
1.0
141
10.0
290
     0
  0
SCALE
  5
5C3
102
{ACAD_REACTORS
330
5BC
102
}
330
5BC
100
AcDbScale
 70
     0
300
1:16
140
1.0
141
16.0
290
     0
  0
SCALE
  5
5C4
102
{ACAD_REACTORS
330
5BC
102
}
330
5BC
100
AcDbScale
 70
     0
300
1:20
140
1.0
141
20.0
290
     0
  0
SCALE
  5
5C5
102
{ACAD_REACTORS
330
5BC
102
}
330
5BC
100
AcDbScale
 70
     0
300
1:30
140
1.0
141
30.0
290
     0
  0
SCALE
  5
5C6
102
{ACAD_REACTORS
330
5BC
102
}
330
5BC
100
AcDbScale
 70
     0
300
1:40
140
1.0
141
40.0
290
     0
  0
SCALE
  5
5C7
102
{ACAD_REACTORS
330
5BC
102
}
330
5BC
100
AcDbScale
 70
     0
300
1:50
140
1.0
141
50.0
290
     0
  0
SCALE
  5
5C8
102
{ACAD_REACTORS
330
5BC
102
}
330
5BC
100
AcDbScale
 70
     0
300
1:100
140
1.0
141
100.0
290
     0
  0
SCALE
  5
5C9
102
{ACAD_REACTORS
330
5BC
102
}
330
5BC
100
AcDbScale
 70
     0
300
2:1
140
2.0
141
1.0
290
     0
  0
SCALE
  5
5CA
102
{ACAD_REACTORS
330
5BC
102
}
330
5BC
100
AcDbScale
 70
     0
300
4:1
140
4.0
141
1.0
290
     0
  0
SCALE
  5
5CB
102
{ACAD_REACTORS
330
5BC
102
}
330
5BC
100
AcDbScale
 70
     0
300
8:1
140
8.0
141
1.0
290
     0
  0
SCALE
  5
5CC
102
{ACAD_REACTORS
330
5BC
102
}
330
5BC
100
AcDbScale
 70
     0
300
10:1
140
10.0
141
1.0
290
     0
  0
SCALE
  5
5CD
102
{ACAD_REACTORS
330
5BC
102
}
330
5BC
100
AcDbScale
 70
     0
300
100:1
140
100.0
141
1.0
290
     0
  0
SCALE
  5
5CE
102
{ACAD_REACTORS
330
5BC
102
}
330
5BC
100
AcDbScale
 70
     0
300
1/128" = 1'-0"
140
0.0078125
141
12.0
290
     0
  0
SCALE
  5
5CF
102
{ACAD_REACTORS
330
5BC
102
}
330
5BC
100
AcDbScale
 70
     0
300
1/64" = 1'-0"
140
0.015625
141
12.0
290
     0
  0
SCALE
  5
5D0
102
{ACAD_REACTORS
330
5BC
102
}
330
5BC
100
AcDbScale
 70
     0
300
1/32" = 1'-0"
140
0.03125
141
12.0
290
     0
  0
SCALE
  5
5D1
102
{ACAD_REACTORS
330
5BC
102
}
330
5BC
100
AcDbScale
 70
     0
300
1/16" = 1'-0"
140
0.0625
141
12.0
290
     0
  0
SCALE
  5
5D2
102
{ACAD_REACTORS
330
5BC
102
}
330
5BC
100
AcDbScale
 70
     0
300
3/32" = 1'-0"
140
0.09375
141
12.0
290
     0
  0
SCALE
  5
5D3
102
{ACAD_REACTORS
330
5BC
102
}
330
5BC
100
AcDbScale
 70
     0
300
1/8" = 1'-0"
140
0.125
141
12.0
290
     0
  0
SCALE
  5
5D4
102
{ACAD_REACTORS
330
5BC
102
}
330
5BC
100
AcDbScale
 70
     0
300
3/16" = 1'-0"
140
0.1875
141
12.0
290
     0
  0
SCALE
  5
5D5
102
{ACAD_REACTORS
330
5BC
102
}
330
5BC
100
AcDbScale
 70
     0
300
1/4" = 1'-0"
140
0.25
141
12.0
290
     0
  0
SCALE
  5
5D6
102
{ACAD_REACTORS
330
5BC
102
}
330
5BC
100
AcDbScale
 70
     0
300
3/8" = 1'-0"
140
0.375
141
12.0
290
     0
  0
SCALE
  5
5D7
102
{ACAD_REACTORS
330
5BC
102
}
330
5BC
100
AcDbScale
 70
     0
300
1/2" = 1'-0"
140
0.5
141
12.0
290
     0
  0
SCALE
  5
5D8
102
{ACAD_REACTORS
330
5BC
102
}
330
5BC
100
AcDbScale
 70
     0
300
3/4" = 1'-0"
140
0.75
141
12.0
290
     0
  0
SCALE
  5
5D9
102
{ACAD_REACTORS
330
5BC
102
}
330
5BC
100
AcDbScale
 70
     0
300
1" = 1'-0"
140
1.0
141
12.0
290
     0
  0
SCALE
  5
5DA
102
{ACAD_REACTORS
330
5BC
102
}
330
5BC
100
AcDbScale
 70
     0
300
1-1/2" = 1'-0"
140
1.5
141
12.0
290
     0
  0
SCALE
  5
5DB
102
{ACAD_REACTORS
330
5BC
102
}
330
5BC
100
AcDbScale
 70
     0
300
3" = 1'-0"
140
3.0
141
12.0
290
     0
  0
SCALE
  5
5DC
102
{ACAD_REACTORS
330
5BC
102
}
330
5BC
100
AcDbScale
 70
     0
300
6" = 1'-0"
140
6.0
141
12.0
290
     0
  0
SCALE
  5
5DD
102
{ACAD_REACTORS
330
5BC
102
}
330
5BC
100
AcDbScale
 70
     0
300
1'-0" = 1'-0"
140
12.0
141
12.0
290
     0
  0
TABLESTYLE
  5
5EE
102
{ACAD_XDICTIONARY
360
614
102
}
102
{ACAD_REACTORS
330
5ED
102
}
330
5ED
100
AcDbTableStyle
  3
Standard
 70
     0
 71
     0
 40
0.06
 41
0.06
280
     0
281
     0
  7
STANDARD
140
0.18
170
     2
 62
     0
 63
     7
283
     0
274
    -2
284
     1
 64
     0
275
    -2
285
     1
 65
     0
276
    -2
286
     1
 66
     0
277
    -2
287
     1
 67
     0
278
    -2
288
     1
 68
     0
279
    -2
289
     1
 69
     0
  7
STANDARD
140
0.25
170
     5
 62
     0
 63
     7
283
     0
274
    -2
284
     1
 64
     0
275
    -2
285
     1
 65
     0
276
    -2
286
     1
 66
     0
277
    -2
287
     1
 67
     0
278
    -2
288
     1
 68
     0
279
    -2
289
     1
 69
     0
  7
STANDARD
140
0.18
170
     5
 62
     0
 63
     7
283
     0
274
    -2
284
     1
 64
     0
275
    -2
285
     1
 65
     0
276
    -2
286
     1
 66
     0
277
    -2
287
     1
 67
     0
278
    -2
288
     1
 68
     0
279
    -2
289
     1
 69
     0
  0
VISUALSTYLE
  5
5B1
102
{ACAD_REACTORS
330
5AB
102
}
330
5AB
100
AcDbVisualStyle
  2
2dWireframe
 70
     4
 71
     0
 72
     2
 73
     0
 90
        0
 40
-0.6
 41
-30.0
 62
     5
 63
     7
 74
     1
 91
        4
 64
     7
 65
   257
 75
     1
175
     1
 42
1.0
 92
        0
 66
   257
 43
1.0
 76
     1
 77
     6
 78
     2
 67
     7
 79
     5
170
     0
171
     0
290
     0
174
     0
 93
        1
 44
0.0
173
     0
291
     0
 45
0.0
1001
ACAD
1000
AcDbSavedByObjectVersion
1070
     0
  0
VISUALSTYLE
  5
5B3
102
{ACAD_REACTORS
330
5AB
102
}
330
5AB
100
AcDbVisualStyle
  2
3D Hidden
 70
     6
 71
     1
 72
     2
 73
     2
 90
        0
 40
-0.6
 41
-30.0
 62
     5
 63
     7
 74
     2
 91
        2
 64
     7
 65
   257
 75
     2
175
     1
 42
40.0
 92
        0
 66
   257
 43
1.0
 76
     1
 77
     6
 78
     2
 67
     7
 79
     3
170
     0
171
     0
290
     0
174
     0
 93
        1
 44
0.0
173
     0
291
     0
 45
0.0
1001
ACAD
1000
AcDbSavedByObjectVersion
1070
     0
  0
VISUALSTYLE
  5
5B2
102
{ACAD_REACTORS
330
5AB
102
}
330
5AB
100
AcDbVisualStyle
  2
3dWireframe
 70
     5
 71
     0
 72
     2
 73
     0
 90
        0
 40
-0.6
 41
-30.0
 62
     5
 63
     7
 74
     1
 91
        4
 64
     7
 65
   257
 75
     1
175
     1
 42
1.0
 92
        0
 66
   257
 43
1.0
 76
     1
 77
     6
 78
     2
 67
     7
 79
     5
170
     0
171
     0
290
     0
174
     0
 93
        1
 44
0.0
173
     0
291
     0
 45
0.0
1001
ACAD
1000
AcDbSavedByObjectVersion
1070
     0
  0
VISUALSTYLE
  5
5B0
102
{ACAD_REACTORS
330
5AB
102
}
330
5AB
100
AcDbVisualStyle
  2
Basic
 70
     7
 71
     1
 72
     0
 73
     1
 90
        0
 40
-0.6
 41
-30.0
 62
     5
 63
     7
 74
     0
 91
        4
 64
     7
 65
   257
 75
     1
175
     1
 42
1.0
 92
        8
 66
     7
 43
1.0
 76
     1
 77
     6
 78
     2
 67
     7
 79
     5
170
     0
171
     0
290
     0
174
     0
 93
        1
 44
0.0
173
     0
291
     1
 45
0.0
1001
ACAD
1000
AcDbSavedByObjectVersion
1070
     0
  0
VISUALSTYLE
  5
5B7
102
{ACAD_REACTORS
330
5AB
102
}
330
5AB
100
AcDbVisualStyle
  2
Brighten
 70
    12
 71
     2
 72
     2
 73
     0
 90
        0
 40
-0.6
 41
-30.0
 62
     5
 63
     7
 74
     1
 91
        4
 64
     7
 65
   257
 75
     1
175
     1
 42
1.0
 92
        8
 66
     7
 43
1.0
 76
     1
 77
     6
 78
     2
 67
     7
 79
     5
170
     0
171
     0
290
     0
174
     0
 93
        1
 44
50.0
173
     0
291
     1
 45
0.0
1001
ACAD
1000
AcDbSavedByObjectVersion
1070
     0
  0
VISUALSTYLE
  5
5BB
102
{ACAD_REACTORS
330
5AB
102
}
330
5AB
100
AcDbVisualStyle
  2
ColorChange
 70
    16
 71
     2
 72
     2
 73
     3
 90
        0
 40
-0.6
 41
-30.0
 62
     5
 63
     8
 74
     1
 91
        4
 64
     7
 65
   257
 75
     1
175
     1
 42
1.0
 92
        8
 66
     8
 43
1.0
 76
     1
 77
     6
 78
     2
 67
     7
 79
     5
170
     0
171
     0
290
     0
174
     0
 93
        1
 44
0.0
173
     0
291
     1
 45
0.0
1001
ACAD
1000
AcDbSavedByObjectVersion
1070
     0
  0
VISUALSTYLE
  5
5B4
102
{ACAD_REACTORS
330
5AB
102
}
330
5AB
100
AcDbVisualStyle
  2
Conceptual
 70
     9
 71
     3
 72
     2
 73
     0
 90
        0
 40
-0.6
 41
-30.0
 62
     5
 63
     7
 74
     2
 91
        2
 64
     7
 65
   257
 75
     1
175
     1
 42
40.0
 92
        8
 66
     7
 43
1.0
 76
     1
 77
     6
 78
     2
 67
     7
 79
     3
170
     0
171
     0
290
     0
174
     0
 93
        1
 44
0.0
173
     0
291
     0
 45
0.0
1001
ACAD
1000
AcDbSavedByObjectVersion
1070
     0
  0
VISUALSTYLE
  5
5B6
102
{ACAD_REACTORS
330
5AB
102
}
330
5AB
100
AcDbVisualStyle
  2
Dim
 70
    11
 71
     2
 72
     2
 73
     0
 90
        0
 40
-0.6
 41
-30.0
 62
     5
 63
     7
 74
     1
 91
        4
 64
     7
 65
   257
 75
     1
175
     1
 42
1.0
 92
        8
 66
     7
 43
1.0
 76
     1
 77
     6
 78
     2
 67
     7
 79
     5
170
     0
171
     0
290
     0
174
     0
 93
        1
 44
-50.0
173
     0
291
     1
 45
0.0
1001
ACAD
1000
AcDbSavedByObjectVersion
1070
     0
  0
VISUALSTYLE
  5
5BA
102
{ACAD_REACTORS
330
5AB
102
}
330
5AB
100
AcDbVisualStyle
  2
Facepattern
 70
    15
 71
     2
 72
     2
 73
     0
 90
        0
 40
-0.6
 41
-30.0
 62
     5
 63
     7
 74
     1
 91
        4
 64
     7
 65
   257
 75
     1
175
     1
 42
1.0
 92
        8
 66
     7
 43
1.0
 76
     1
 77
     6
 78
     2
 67
     7
 79
     5
170
     0
171
     0
290
     0
174
     0
 93
        1
 44
0.0
173
     0
291
     1
 45
0.0
1001
ACAD
1000
AcDbSavedByObjectVersion
1070
     0
  0
VISUALSTYLE
  5
5AC
102
{ACAD_REACTORS
330
5AB
102
}
330
5AB
100
AcDbVisualStyle
  2
Flat
 70
     0
 71
     2
 72
     1
 73
     1
 90
        2
 40
-0.6
 41
30.0
 62
     5
 63
     7
 74
     0
 91
        4
 64
     7
 65
   257
 75
     1
175
     1
 42
1.0
 92
        8
 66
     7
 43
1.0
 76
     1
 77
     6
 78
     2
 67
     7
 79
     5
170
     0
171
     0
290
     0
174
     0
 93
       13
 44
0.0
173
     0
291
     1
 45
0.0
1001
ACAD
1000
AcDbSavedByObjectVersion
1070
     0
  0
VISUALSTYLE
  5
5AD
102
{ACAD_REACTORS
330
5AB
102
}
330
5AB
100
AcDbVisualStyle
  2
FlatWithEdges
 70
     1
 71
     2
 72
     1
 73
     1
 90
        2
 40
-0.6
 41
30.0
 62
     5
 63
     7
 74
     1
 91
        4
 64
     7
 65
   257
 75
     1
175
     1
 42
1.0
 92
        0
 66
   257
 43
1.0
 76
     1
 77
     6
 78
     2
 67
     7
 79
     5
170
     0
171
     0
290
     0
174
     0
 93
       13
 44
0.0
173
     0
291
     1
 45
0.0
1001
ACAD
1000
AcDbSavedByObjectVersion
1070
     0
  0
VISUALSTYLE
  5
5AE
102
{ACAD_REACTORS
330
5AB
102
}
330
5AB
100
AcDbVisualStyle
  2
Gouraud
 70
     2
 71
     2
 72
     2
 73
     1
 90
        2
 40
-0.6
 41
30.0
 62
     5
 63
     7
 74
     0
 91
        4
 64
     7
 65
   257
 75
     1
175
     1
 42
1.0
 92
        0
 66
     7
 43
1.0
 76
     1
 77
     6
 78
     2
 67
     7
 79
     5
170
     0
171
     0
290
     0
174
     0
 93
       13
 44
0.0
173
     0
291
     1
 45
0.0
1001
ACAD
1000
AcDbSavedByObjectVersion
1070
     0
  0
VISUALSTYLE
  5
5AF
102
{ACAD_REACTORS
330
5AB
102
}
330
5AB
100
AcDbVisualStyle
  2
GouraudWithEdges
 70
     3
 71
     2
 72
     2
 73
     1
 90
        2
 40
-0.6
 41
30.0
 62
     5
 63
     7
 74
     1
 91
        4
 64
     7
 65
   257
 75
     1
175
     1
 42
1.0
 92
        0
 66
   257
 43
1.0
 76
     1
 77
     6
 78
     2
 67
     7
 79
     5
170
     0
171
     0
290
     0
174
     0
 93
       13
 44
0.0
173
     0
291
     1
 45
0.0
1001
ACAD
1000
AcDbSavedByObjectVersion
1070
     0
  0
VISUALSTYLE
  5
5B9
102
{ACAD_REACTORS
330
5AB
102
}
330
5AB
100
AcDbVisualStyle
  2
Linepattern
 70
    14
 71
     2
 72
     2
 73
     0
 90
        0
 40
-0.6
 41
-30.0
 62
     5
 63
     7
 74
     1
 91
        4
 64
     7
 65
   257
 75
     7
175
     7
 42
1.0
 92
        8
 66
     7
 43
1.0
 76
     1
 77
     6
 78
     2
 67
     7
 79
     5
170
     0
171
     0
290
     0
174
     0
 93
        1
 44
0.0
173
     0
291
     1
 45
0.0
1001
ACAD
1000
AcDbSavedByObjectVersion
1070
     0
  0
VISUALSTYLE
  5
5B5
102
{ACAD_REACTORS
330
5AB
102
}
330
5AB
100
AcDbVisualStyle
  2
Realistic
 70
     8
 71
     2
 72
     2
 73
     0
 90
        0
 40
-0.6
 41
-30.0
 62
     5
 63
     7
 74
     1
 91
        0
 64
     7
 65
   257
 75
     1
175
     1
 42
1.0
 92
        8
 66
     8
 43
1.0
 76
     1
 77
     6
 78
     2
 67
     7
 79
     5
170
     0
171
     0
290
     0
174
     0
 93
       13
 44
0.0
173
     0
291
     0
 45
0.0
1001
ACAD
1000
AcDbSavedByObjectVersion
1070
     0
  0
VISUALSTYLE
  5
5B8
102
{ACAD_REACTORS
330
5AB
102
}
330
5AB
100
AcDbVisualStyle
  2
Thicken
 70
    13
 71
     2
 72
     2
 73
     0
 90
        0
 40
-0.6
 41
-30.0
 62
     5
 63
     7
 74
     1
 91
        4
 64
     7
 65
   257
 75
     1
175
     1
 42
1.0
 92
       12
 66
     7
 43
1.0
 76
     1
 77
     6
 78
     2
 67
     7
 79
     5
170
     0
171
     0
290
     0
174
     0
 93
        1
 44
0.0
173
     0
291
     1
 45
0.0
1001
ACAD
1000
AcDbSavedByObjectVersion
1070
     0
  0
DICTIONARYVAR
  5
610
102
{ACAD_REACTORS
330
60D
102
}
330
60D
100
DictionaryVariables
280
     0
  1
1:1
  0
DICTIONARYVAR
  5
60F
102
{ACAD_REACTORS
330
60D
102
}
330
60D
100
DictionaryVariables
280
     0
  1
STANDARD
  0
DICTIONARYVAR
  5
60E
102
{ACAD_REACTORS
330
60D
102
}
330
60D
100
DictionaryVariables
280
     0
  1
STANDARD
  0
DICTIONARYVAR
  5
613
102
{ACAD_REACTORS
330
60D
102
}
330
60D
100
DictionaryVariables
280
     0
  1
1
  0
DICTIONARYVAR
  5
612
102
{ACAD_REACTORS
330
60D
102
}
330
60D
100
DictionaryVariables
280
     0
  1
0
  0
DICTIONARYVAR
  5
611
102
{ACAD_REACTORS
330
60D
102
}
330
60D
100
DictionaryVariables
280
     0
  1
127
  0
DICTIONARY
  5
61E
330
5F9
100
AcDbDictionary
280
     1
281
     1
  3
ACAD_XREC_ROUNDTRIP
360
61F
  0
DICTIONARY
  5
61C
330
5F5
100
AcDbDictionary
280
     1
281
     1
  3
ACAD_XREC_ROUNDTRIP
360
61D
  0
DICTIONARY
  5
59C
330
59B
100
AcDbDictionary
280
     1
281
     1
  3
ACAD_XREC_ROUNDTRIP
360
619
  3
BUMPTILE
360
59E
  3
DIFFUSETILE
360
59D
  3
OPACITYTILE
360
5A1
  3
REFLECTIONTILE
360
5A0
  3
REFRACTIONTILE
360
5A2
  3
SPECULARTILE
360
59F
  0
DICTIONARY
  5
594
330
593
100
AcDbDictionary
280
     1
281
     1
  3
ACAD_XREC_ROUNDTRIP
360
618
  3
BUMPTILE
360
596
  3
DIFFUSETILE
360
595
  3
OPACITYTILE
360
599
  3
REFLECTIONTILE
360
598
  3
REFRACTIONTILE
360
59A
  3
SPECULARTILE
360
597
  0
DICTIONARY
  5
5A4
330
5A3
100
AcDbDictionary
280
     1
281
     1
  3
ACAD_XREC_ROUNDTRIP
360
61A
  3
BUMPTILE
360
5A6
  3
DIFFUSETILE
360
5A5
  3
OPACITYTILE
360
5A9
  3
REFLECTIONTILE
360
5A8
  3
REFRACTIONTILE
360
5AA
  3
SPECULARTILE
360
5A7
  0
DICTIONARY
  5
614
330
5EE
100
AcDbDictionary
280
     1
281
     1
  3
ACAD_ROUNDTRIP_2008_TABLESTYLE_CELLSTYLEMAP
360
615
  3
ACAD_XREC_ROUNDTRIP
360
61B
  0
XRECORD
  5
61F
102
{ACAD_REACTORS
330
61E
102
}
330
61E
100
AcDbXrecord
280
     1
102
SHADEPLOT
 70
     0
102
SHADEPLOTRESLEVEL
 70
     2
102
SHADEPLOTCUSTOMDPI
 70
   300
  0
XRECORD
  5
61D
102
{ACAD_REACTORS
330
61C
102
}
330
61C
100
AcDbXrecord
280
     1
102
SHADEPLOT
 70
     0
102
SHADEPLOTRESLEVEL
 70
     2
102
SHADEPLOTCUSTOMDPI
 70
   300
  0
XRECORD
  5
619
102
{ACAD_REACTORS
330
59C
102
}
330
59C
100
AcDbXrecord
280
     1
102
MATERIAL
148
0.0
149
0.0
149
0.0
 93
        0
 94
      127
282
     0
 72
     0
 77
     0
171
     0
175
     0
179
     0
273
     0
  0
XRECORD
  5
59E
102
{ACAD_REACTORS
330
59C
102
}
330
59C
100
AcDbXrecord
280
     1
270
     1
271
     1
  0
XRECORD
  5
59D
102
{ACAD_REACTORS
330
59C
102
}
330
59C
100
AcDbXrecord
280
     1
270
     1
271
     1
  0
XRECORD
  5
5A1
102
{ACAD_REACTORS
330
59C
102
}
330
59C
100
AcDbXrecord
280
     1
270
     1
271
     1
  0
XRECORD
  5
5A0
102
{ACAD_REACTORS
330
59C
102
}
330
59C
100
AcDbXrecord
280
     1
270
     1
271
     1
  0
XRECORD
  5
5A2
102
{ACAD_REACTORS
330
59C
102
}
330
59C
100
AcDbXrecord
280
     1
270
     1
271
     1
  0
XRECORD
  5
59F
102
{ACAD_REACTORS
330
59C
102
}
330
59C
100
AcDbXrecord
280
     1
270
     1
271
     1
  0
XRECORD
  5
618
102
{ACAD_REACTORS
330
594
102
}
330
594
100
AcDbXrecord
280
     1
102
MATERIAL
148
0.0
149
0.0
149
0.0
 93
        0
 94
      127
282
     0
 72
     0
 77
     0
171
     0
175
     0
179
     0
273
     0
  0
XRECORD
  5
596
102
{ACAD_REACTORS
330
594
102
}
330
594
100
AcDbXrecord
280
     1
270
     1
271
     1
  0
XRECORD
  5
595
102
{ACAD_REACTORS
330
594
102
}
330
594
100
AcDbXrecord
280
     1
270
     1
271
     1
  0
XRECORD
  5
599
102
{ACAD_REACTORS
330
594
102
}
330
594
100
AcDbXrecord
280
     1
270
     1
271
     1
  0
XRECORD
  5
598
102
{ACAD_REACTORS
330
594
102
}
330
594
100
AcDbXrecord
280
     1
270
     1
271
     1
  0
XRECORD
  5
59A
102
{ACAD_REACTORS
330
594
102
}
330
594
100
AcDbXrecord
280
     1
270
     1
271
     1
  0
XRECORD
  5
597
102
{ACAD_REACTORS
330
594
102
}
330
594
100
AcDbXrecord
280
     1
270
     1
271
     1
  0
XRECORD
  5
61A
102
{ACAD_REACTORS
330
5A4
102
}
330
5A4
100
AcDbXrecord
280
     1
102
MATERIAL
148
0.0
149
0.0
149
0.0
 93
        0
 94
      127
282
     0
 72
     0
 77
     0
171
     0
175
     0
179
     0
273
     0
  0
XRECORD
  5
5A6
102
{ACAD_REACTORS
330
5A4
102
}
330
5A4
100
AcDbXrecord
280
     1
270
     1
271
     1
  0
XRECORD
  5
5A5
102
{ACAD_REACTORS
330
5A4
102
}
330
5A4
100
AcDbXrecord
280
     1
270
     1
271
     1
  0
XRECORD
  5
5A9
102
{ACAD_REACTORS
330
5A4
102
}
330
5A4
100
AcDbXrecord
280
     1
270
     1
271
     1
  0
XRECORD
  5
5A8
102
{ACAD_REACTORS
330
5A4
102
}
330
5A4
100
AcDbXrecord
280
     1
270
     1
271
     1
  0
XRECORD
  5
5AA
102
{ACAD_REACTORS
330
5A4
102
}
330
5A4
100
AcDbXrecord
280
     1
270
     1
271
     1
  0
XRECORD
  5
5A7
102
{ACAD_REACTORS
330
5A4
102
}
330
5A4
100
AcDbXrecord
280
     1
270
     1
271
     1
  0
CELLSTYLEMAP
  5
615
102
{ACAD_REACTORS
330
614
102
}
330
614
100
AcDbCellStyleMap
 90
        3
300
CELLSTYLE
  1
TABLEFORMAT_BEGIN
 90
        5
170
     1
 91
        0
 92
    32768
 62
   257
 93
        1
300
CONTENTFORMAT
  1
CONTENTFORMAT_BEGIN
 90
        0
 91
        0
 92
      512
 93
        0
300

 40
0.0
140
1.0
 94
        5
 62
     0
340
5DF
144
0.25
309
CONTENTFORMAT_END
171
     0
 94
        0
309
TABLEFORMAT_END
  1
CELLSTYLE_BEGIN
 90
        1
 91
        1
300
_TITLE
309
CELLSTYLE_END
300
CELLSTYLE
  1
TABLEFORMAT_BEGIN
 90
        5
170
     1
 91
        0
 92
        0
 62
   257
 93
        1
300
CONTENTFORMAT
  1
CONTENTFORMAT_BEGIN
 90
        0
 91
        0
 92
      512
 93
        0
300

 40
0.0
140
1.0
 94
        5
 62
     0
340
5DF
144
0.18
309
CONTENTFORMAT_END
171
     0
 94
        0
309
TABLEFORMAT_END
  1
CELLSTYLE_BEGIN
 90
        2
 91
        1
300
_HEADER
309
CELLSTYLE_END
300
CELLSTYLE
  1
TABLEFORMAT_BEGIN
 90
        5
170
     1
 91
        0
 92
        0
 62
   257
 93
        1
300
CONTENTFORMAT
  1
CONTENTFORMAT_BEGIN
 90
        0
 91
        0
 92
      512
 93
        0
300

 40
0.0
140
1.0
 94
        2
 62
     0
340
5DF
144
0.18
309
CONTENTFORMAT_END
171
     0
 94
        0
309
TABLEFORMAT_END
  1
CELLSTYLE_BEGIN
 90
        3
 91
        2
300
_DATA
309
CELLSTYLE_END
  0
XRECORD
  5
61B
102
{ACAD_REACTORS
330
614
102
}
330
614
100
AcDbXrecord
280
     1
102
ACAD_ROUNDTRIP_PRE2007_TABLESTYLE
 90
      512
 91
        0
  1

 92
      512
 93
        0
  2

 94
      512
 95
        0
  3

  0
ENDSEC
  0
EOF
