  0
SECTION
  2
HEADER
  9
$ACADVER
  1
AC1009
  9
$DWGCODEPAGE
  3
ansi_1252
  9
$INSBASE
 10
0.0
 20
0.0
 30
0.0
  9
$EXTMIN
 10
-100.0
 20
-25.0
 30
0.0
  9
$EXTMAX
 10
100.0
 20
25.0
 30
0.0
  9
$LIMMIN
 10
0.0
 20
0.0
  9
$LIMMAX
 10
12.0
 20
9.0
  9
$ORTHOMODE
 70
     0
  9
$REGENMODE
 70
     1
  9
$FILLMODE
 70
     1
  9
$QTEXTMODE
 70
     0
  9
$MIRRTEXT
 70
     1
  9
$DRAGMODE
 70
     2
  9
$LTSCALE
 40
1.0
  9
$OSMODE
 70
    37
  9
$ATTMODE
 70
     1
  9
$TEXTSIZE
 40
0.2
  9
$TRACEWID
 40
0.05
  9
$TEXTSTYLE
  7
STANDARD
  9
$CLAYER
  8
0
  9
$CELTYPE
  6
BYLAYER
  9
$CECOLOR
 62
   256
  9
$DIMSCALE
 40
1.0
  9
$DIMASZ
 40
0.18
  9
$DIMEXO
 40
0.0625
  9
$DIMDLI
 40
0.38
  9
$DIMRND
 40
0.0
  9
$DIMDLE
 40
0.0
  9
$DIMEXE
 40
0.18
  9
$DIMTP
 40
0.0
  9
$DIMTM
 40
0.0
  9
$DIMTXT
 40
0.18
  9
$DIMCEN
 40
0.09
  9
$DIMTSZ
 40
0.0
  9
$DIMTOL
 70
     0
  9
$DIMLIM
 70
     0
  9
$DIMTIH
 70
     1
  9
$DIMTOH
 70
     1
  9
$DIMSE1
 70
     0
  9
$DIMSE2
 70
     0
  9
$DIMTAD
 70
     0
  9
$DIMZIN
 70
     0
  9
$DIMBLK
  1

  9
$DIMASO
 70
     1
  9
$DIMSHO
 70
     1
  9
$DIMPOST
  1

  9
$DIMAPOST
  1

  9
$DIMALT
 70
     0
  9
$DIMALTD
 70
     2
  9
$DIMALTF
 40
25.4
  9
$DIMLFAC
 40
1.0
  9
$DIMTOFL
 70
     0
  9
$DIMTVP
 40
0.0
  9
$DIMTIX
 70
     0
  9
$DIMSOXD
 70
     0
  9
$DIMSAH
 70
     0
  9
$DIMBLK1
  1

  9
$DIMBLK2
  1

  9
$DIMSTYLE
  2
STANDARD
  9
$DIMCLRD
 70
     0
  9
$DIMCLRE
 70
     0
  9
$DIMCLRT
 70
     0
  9
$DIMTFAC
 40
1.0
  9
$DIMGAP
 40
0.09
  9
$LUNITS
 70
     2
  9
$LUPREC
 70
     4
  9
$SKETCHINC
 40
0.1
  9
$FILLETRAD
 40
0.5
  9
$AUNITS
 70
     0
  9
$AUPREC
 70
     0
  9
$MENU
  1
.
  9
$ELEVATION
 40
0.0
  9
$PELEVATION
 40
0.0
  9
$THICKNESS
 40
0.0
  9
$LIMCHECK
 70
     0
  9
$CHAMFERA
 40
0.5
  9
$CHAMFERB
 40
0.5
  9
$SKPOLY
 70
     0
  9
$TDCREATE
 40
2454910.5
  9
$TDUPDATE
 40
2457348.506573009
  9
$TDINDWG
 40
0.0000000116
  9
$TDUSRTIMER
 40
0.0000000116
  9
$USRTIMER
 70
     1
  9
$ANGBASE
 50
0.0
  9
$ANGDIR
 70
     0
  9
$PDMODE
 70
     0
  9
$PDSIZE
 40
0.0
  9
$PLINEWID
 40
0.0
  9
$COORDS
 70
     1
  9
$SPLFRAME
 70
     0
  9
$SPLINETYPE
 70
     6
  9
$SPLINESEGS
 70
     8
  9
$ATTDIA
 70
     0
  9
$ATTREQ
 70
     1
  9
$HANDLING
 70
     1
  9
$HANDSEED
  5
128
  9
$SURFTAB1
 70
     6
  9
$SURFTAB2
 70
     6
  9
$SURFTYPE
 70
     6
  9
$SURFU
 70
     6
  9
$SURFV
 70
     6
  9
$UCSNAME
  2

  9
$UCSORG
 10
0.0
 20
0.0
 30
0.0
  9
$UCSXDIR
 10
1.0
 20
0.0
 30
0.0
  9
$UCSYDIR
 10
0.0
 20
1.0
 30
0.0
  9
$PUCSNAME
  2

  9
$PUCSORG
 10
0.0
 20
0.0
 30
0.0
  9
$PUCSXDIR
 10
1.0
 20
0.0
 30
0.0
  9
$PUCSYDIR
 10
0.0
 20
1.0
 30
0.0
  9
$USERI1
 70
     0
  9
$USERI2
 70
     0
  9
$USERI3
 70
     0
  9
$USERI4
 70
     0
  9
$USERI5
 70
     0
  9
$USERR1
 40
0.0
  9
$USERR2
 40
0.0
  9
$USERR3
 40
0.0
  9
$USERR4
 40
0.0
  9
$USERR5
 40
0.0
  9
$WORLDVIEW
 70
     1
  9
$SHADEDGE
 70
     3
  9
$SHADEDIF
 70
    70
  9
$TILEMODE
 70
     1
  9
$MAXACTVP
 70
    64
  9
$PLIMCHECK
 70
     0
  9
$PEXTMIN
 10
1.000000000000000E+20
 20
1.000000000000000E+20
 30
1.000000000000000E+20
  9
$PEXTMAX
 10
-1.000000000000000E+20
 20
-1.000000000000000E+20
 30
-1.000000000000000E+20
  9
$PLIMMIN
 10
0.0
 20
0.0
  9
$PLIMMAX
 10
12.0
 20
9.0
  9
$UNITMODE
 70
     0
  9
$VISRETAIN
 70
     1
  9
$PLINEGEN
 70
     0
  9
$PSLTSCALE
 70
     1
  0
ENDSEC
  0
SECTION
  2
TABLES
  0
TABLE
  2
VPORT
 70
     1
  0
VPORT
  2
*ACTIVE
 70
     0
 10
0.0
 20
0.0
 11
1.0
 21
1.0
 12
10.42990654205607
 22
4.5
 13
0.0
 23
0.0
 14
0.5
 24
0.5
 15
0.5
 25
0.5
 16
0.0
 26
0.0
 36
1.0
 17
0.0
 27
0.0
 37
0.0
 40
9.0
 41
1.972972972850329
 42
50.0
 43
0.0
 44
0.0
 50
0.0
 51
0.0
 71
     0
 72
   100
 73
     1
 74
     3
 75
     0
 76
     0
 77
     0
 78
     0
  0
ENDTAB
  0
TABLE
  2
LTYPE
 70
     2
  0
LTYPE
  2
CONTINUOUS
 70
     0
  3
Solid line
 72
    65
 73
     0
 40
0.0
  0
LTYPE
  2
CONTINUOUS2
 70
     0
  3
Solid Line
 72
    65
 73
     0
 40
0.0
  0
ENDTAB
  0
TABLE
  2
LAYER
 70
     2
  0
LAYER
  2
0
 70
     0
 62
     7
  6
CONTINUOUS
  0
LAYER
  2
LAYER_1
 70
     0
 62
    18
  6
CONTINUOUS
  0
ENDTAB
  0
TABLE
  2
STYLE
 70
     1
  0
STYLE
  2
STANDARD
 70
     0
 40
0.0
 41
1.0
 50
0.0
 71
     0
 42
0.2
  3
txt
  4

  0
ENDTAB
  0
TABLE
  2
VIEW
 70
     0
  0
ENDTAB
  0
TABLE
  2
UCS
 70
     0
  0
ENDTAB
  0
TABLE
  2
APPID
 70
     1
  0
APPID
  2
ACAD
 70
     0
  0
ENDTAB
  0
TABLE
  2
DIMSTYLE
 70
     1
  0
DIMSTYLE
  2
STANDARD
 70
     0
  3

  4

  5

  6

  7

 40
1.0
 41
0.18
 42
0.0625
 43
0.38
 44
0.18
 45
0.0
 46
0.0
 47
0.0
 48
0.0
140
0.18
141
0.09
142
0.0
143
25.4
144
1.0
145
0.0
146
1.0
147
0.09
 71
     0
 72
     0
 73
     1
 74
     1
 75
     0
 76
     0
 77
     0
 78
     0
170
     0
171
     2
172
     0
173
     0
174
     0
175
     0
176
     0
177
     0
178
     0
  0
ENDTAB
  0
ENDSEC
  0
SECTION
  2
BLOCKS
  0
BLOCK
  8
0
  2
$MODEL_SPACE
 70
     0
 10
0.0
 20
0.0
 30
0.0
  3
$MODEL_SPACE
  1

  0
ENDBLK
  5
21
  8
0
  0
BLOCK
 67
     1
  8
0
  2
$PAPER_SPACE
 70
     0
 10
0.0
 20
0.0
 30
0.0
  3
$PAPER_SPACE
  1

  0
ENDBLK
  5
1D
 67
     1
  8
0
  0
ENDSEC
  0
SECTION
  2
ENTITIES
  0
POLYLINE
  5
41
  8
LAYER_1
 66
     1
 10
0.0
 20
0.0
 30
0.0
 70
     1
  0
VERTEX
  5
6C
  8
LAYER_1
 10
-100.0
 20
-25.0
 30
0.0
  0
VERTEX
  5
6D
  8
LAYER_1
 10
100.0
 20
-25.0
 30
0.0
  0
VERTEX
  5
6E
  8
LAYER_1
 10
100.0
 20
25.0
 30
0.0
  0
VERTEX
  5
6F
  8
LAYER_1
 10
-100.0
 20
25.0
 30
0.0
  0
SEQEND
  5
70
  8
LAYER_1
  0
POLYLINE
  5
42
  8
LAYER_1
 66
     1
 10
0.0
 20
0.0
 30
0.0
 70
     1
  0
VERTEX
  5
71
  8
LAYER_1
 10
82.84242320383521
 20
17.25816371827744
 30
0.0
  0
VERTEX
  5
72
  8
LAYER_1
 10
80.10058692211265
 20
20.0
 30
0.0
  0
VERTEX
  5
73
  8
LAYER_1
 10
85.58425948555777
 20
20.0
 30
0.0
  0
SEQEND
  5
74
  8
LAYER_1
  0
POLYLINE
  5
43
  8
LAYER_1
 66
     1
 10
0.0
 20
0.0
 30
0.0
 70
     1
  0
VERTEX
  5
75
  8
LAYER_1
 10
55.22707044997085
 20
17.25816371827744
 30
0.0
  0
VERTEX
  5
76
  8
LAYER_1
 10
52.4852341682483
 20
20.0
 30
0.0
  0
VERTEX
  5
77
  8
LAYER_1
 10
57.96890673169341
 20
20.0
 30
0.0
  0
SEQEND
  5
78
  8
LAYER_1
  0
POLYLINE
  5
44
  8
LAYER_1
 66
     1
 10
0.0
 20
0.0
 30
0.0
 70
     1
  0
VERTEX
  5
79
  8
LAYER_1
 10
27.61462574231282
 20
17.25816371827744
 30
0.0
  0
VERTEX
  5
7A
  8
LAYER_1
 10
24.87278946059027
 20
20.0
 30
0.0
  0
VERTEX
  5
7B
  8
LAYER_1
 10
30.35646202403539
 20
20.0
 30
0.0
  0
SEQEND
  5
7C
  8
LAYER_1
  0
POLYLINE
  5
45
  8
LAYER_1
 66
     1
 10
0.0
 20
0.0
 30
0.0
 70
     1
  0
VERTEX
  5
7D
  8
LAYER_1
 10
-0.0007270115515148
 20
17.25816371827744
 30
0.0
  0
VERTEX
  5
7E
  8
LAYER_1
 10
-2.742563293274081
 20
20.0
 30
0.0
  0
VERTEX
  5
7F
  8
LAYER_1
 10
2.74110927017103
 20
20.0
 30
0.0
  0
SEQEND
  5
80
  8
LAYER_1
  0
POLYLINE
  5
46
  8
LAYER_1
 66
     1
 10
0.0
 20
0.0
 30
0.0
 70
     1
  0
VERTEX
  5
81
  8
LAYER_1
 10
-27.61317171920955
 20
17.25816371827744
 30
0.0
  0
VERTEX
  5
82
  8
LAYER_1
 10
-30.3550080009321
 20
20.0
 30
0.0
  0
VERTEX
  5
83
  8
LAYER_1
 10
-24.87133543748698
 20
20.0
 30
0.0
  0
SEQEND
  5
84
  8
LAYER_1
  0
POLYLINE
  5
47
  8
LAYER_1
 66
     1
 10
0.0
 20
0.0
 30
0.0
 70
     1
  0
VERTEX
  5
85
  8
LAYER_1
 10
-55.22852447307388
 20
17.25816371827744
 30
0.0
  0
VERTEX
  5
86
  8
LAYER_1
 10
-57.97036075479645
 20
20.0
 30
0.0
  0
VERTEX
  5
87
  8
LAYER_1
 10
-52.48668819135133
 20
20.0
 30
0.0
  0
SEQEND
  5
88
  8
LAYER_1
  0
POLYLINE
  5
48
  8
LAYER_1
 66
     1
 10
0.0
 20
0.0
 30
0.0
 70
     1
  0
VERTEX
  5
89
  8
LAYER_1
 10
-82.84096918073192
 20
17.25816371827744
 30
0.0
  0
VERTEX
  5
8A
  8
LAYER_1
 10
-85.58280546245447
 20
20.0
 30
0.0
  0
VERTEX
  5
8B
  8
LAYER_1
 10
-80.09913289900936
 20
20.0
 30
0.0
  0
SEQEND
  5
8C
  8
LAYER_1
  0
POLYLINE
  5
49
  8
LAYER_1
 66
     1
 10
0.0
 20
0.0
 30
0.0
 70
     1
  0
VERTEX
  5
8D
  8
LAYER_1
 10
51.77594661440151
 20
13.8070398827081
 30
0.0
  0
VERTEX
  5
8E
  8
LAYER_1
 10
41.42084809614184
 20
3.45294136444835
 30
0.0
  0
VERTEX
  5
8F
  8
LAYER_1
 10
31.06574957788217
 20
13.8070398827081
 30
0.0
  0
VERTEX
  5
90
  8
LAYER_1
 10
37.25870969517412
 20
20.0
 30
0.0
  0
VERTEX
  5
91
  8
LAYER_1
 10
45.58298649710956
 20
20.0
 30
0.0
  0
SEQEND
  5
92
  8
LAYER_1
  0
POLYLINE
  5
4A
  8
LAYER_1
 66
     1
 10
0.0
 20
0.0
 30
0.0
 70
     1
  0
VERTEX
  5
93
  8
LAYER_1
 10
-3.451850847120866
 20
13.8070398827081
 30
0.0
  0
VERTEX
  5
94
  8
LAYER_1
 10
-13.80694936538053
 20
3.45294136444835
 30
0.0
  0
VERTEX
  5
95
  8
LAYER_1
 10
-24.1620478836402
 20
13.8070398827081
 30
0.0
  0
VERTEX
  5
96
  8
LAYER_1
 10
-17.96908776634825
 20
20.0
 30
0.0
  0
VERTEX
  5
97
  8
LAYER_1
 10
-9.644810964412812
 20
20.0
 30
0.0
  0
SEQEND
  5
98
  8
LAYER_1
  0
POLYLINE
  5
4B
  8
LAYER_1
 66
     1
 10
0.0
 20
0.0
 30
0.0
 70
     1
  0
VERTEX
  5
99
  8
LAYER_1
 10
-58.67964830864324
 20
13.8070398827081
 30
0.0
  0
VERTEX
  5
9A
  8
LAYER_1
 10
-69.0347468269029
 20
3.45294136444835
 30
0.0
  0
VERTEX
  5
9B
  8
LAYER_1
 10
-79.38984534516257
 20
13.8070398827081
 30
0.0
  0
VERTEX
  5
9C
  8
LAYER_1
 10
-73.19688522787061
 20
20.0
 30
0.0
  0
VERTEX
  5
9D
  8
LAYER_1
 10
-64.87260842593518
 20
20.0
 30
0.0
  0
SEQEND
  5
9E
  8
LAYER_1
  0
POLYLINE
  5
4C
  8
LAYER_1
 66
     1
 10
0.0
 20
0.0
 30
0.0
 70
     1
  0
VERTEX
  5
9F
  8
LAYER_1
 10
79.39057235671424
 20
13.80631287115639
 30
0.0
  0
VERTEX
  5
A0
  8
LAYER_1
 10
69.03474682690305
 20
3.452214352896817
 30
0.0
  0
VERTEX
  5
A1
  8
LAYER_1
 10
58.67892129709183
 20
13.80631287115639
 30
0.0
  0
VERTEX
  5
A2
  8
LAYER_1
 10
64.87260842593543
 20
20.0
 30
0.0
  0
VERTEX
  5
A3
  8
LAYER_1
 10
73.19688522787064
 20
20.0
 30
0.0
  0
SEQEND
  5
A4
  8
LAYER_1
  0
POLYLINE
  5
4D
  8
LAYER_1
 66
     1
 10
0.0
 20
0.0
 30
0.0
 70
     1
  0
VERTEX
  5
A5
  8
LAYER_1
 10
24.16277489519184
 20
13.80631287115639
 30
0.0
  0
VERTEX
  5
A6
  8
LAYER_1
 10
13.80694936538065
 20
3.452214352896817
 30
0.0
  0
VERTEX
  5
A7
  8
LAYER_1
 10
3.451123835569458
 20
13.80631287115639
 30
0.0
  0
VERTEX
  5
A8
  8
LAYER_1
 10
9.644810964413054
 20
20.0
 30
0.0
  0
VERTEX
  5
A9
  8
LAYER_1
 10
17.96908776634825
 20
20.0
 30
0.0
  0
SEQEND
  5
AA
  8
LAYER_1
  0
POLYLINE
  5
4E
  8
LAYER_1
 66
     1
 10
0.0
 20
0.0
 30
0.0
 70
     1
  0
VERTEX
  5
AB
  8
LAYER_1
 10
-31.06502256633052
 20
13.80631287115639
 30
0.0
  0
VERTEX
  5
AC
  8
LAYER_1
 10
-41.42084809614172
 20
3.452214352896817
 30
0.0
  0
VERTEX
  5
AD
  8
LAYER_1
 10
-51.77667362595291
 20
13.80631287115639
 30
0.0
  0
VERTEX
  5
AE
  8
LAYER_1
 10
-45.58298649710932
 20
20.0
 30
0.0
  0
VERTEX
  5
AF
  8
LAYER_1
 10
-37.25870969517412
 20
20.0
 30
0.0
  0
SEQEND
  5
B0
  8
LAYER_1
  0
POLYLINE
  5
4F
  8
LAYER_1
 66
     1
 10
0.0
 20
0.0
 30
0.0
 70
     1
  0
VERTEX
  5
B1
  8
LAYER_1
 10
93.19579471054317
 20
0.0010905173274693
 30
0.0
  0
VERTEX
  5
B2
  8
LAYER_1
 10
82.84169619228359
 20
-10.35300800093211
 30
0.0
  0
VERTEX
  5
B3
  8
LAYER_1
 10
72.48759767402402
 20
0.0010905173274693
 30
0.0
  0
VERTEX
  5
B4
  8
LAYER_1
 10
82.84169619228359
 20
10.35518903558722
 30
0.0
  0
SEQEND
  5
B5
  8
LAYER_1
  0
POLYLINE
  5
50
  8
LAYER_1
 66
     1
 10
0.0
 20
0.0
 30
0.0
 70
     1
  0
VERTEX
  5
B6
  8
LAYER_1
 10
65.58189597978208
 20
0.0010905173274693
 30
0.0
  0
VERTEX
  5
B7
  8
LAYER_1
 10
55.22779746152247
 20
-10.35300800093211
 30
0.0
  0
VERTEX
  5
B8
  8
LAYER_1
 10
44.87369894326289
 20
0.0010905173274693
 30
0.0
  0
VERTEX
  5
B9
  8
LAYER_1
 10
55.22779746152247
 20
10.35518903558722
 30
0.0
  0
SEQEND
  5
BA
  8
LAYER_1
  0
POLYLINE
  5
51
  8
LAYER_1
 66
     1
 10
0.0
 20
0.0
 30
0.0
 70
     1
  0
VERTEX
  5
BB
  8
LAYER_1
 10
37.96799724902079
 20
0.0010905173274693
 30
0.0
  0
VERTEX
  5
BC
  8
LAYER_1
 10
27.61389873076121
 20
-10.35300800093211
 30
0.0
  0
VERTEX
  5
BD
  8
LAYER_1
 10
17.25980021250162
 20
0.0010905173274693
 30
0.0
  0
VERTEX
  5
BE
  8
LAYER_1
 10
27.61389873076121
 20
10.35518903558722
 30
0.0
  0
SEQEND
  5
BF
  8
LAYER_1
  0
POLYLINE
  5
52
  8
LAYER_1
 66
     1
 10
0.0
 20
0.0
 30
0.0
 70
     1
  0
VERTEX
  5
C0
  8
LAYER_1
 10
10.35409851825969
 20
0.0010905173274693
 30
0.0
  0
VERTEX
  5
C1
  8
LAYER_1
 10
0.0000000000000995
 20
-10.35300800093211
 30
0.0
  0
VERTEX
  5
C2
  8
LAYER_1
 10
-10.35409851825948
 20
0.0010905173274693
 30
0.0
  0
VERTEX
  5
C3
  8
LAYER_1
 10
0.0000000000000995
 20
10.35518903558722
 30
0.0
  0
SEQEND
  5
C4
  8
LAYER_1
  0
POLYLINE
  5
53
  8
LAYER_1
 66
     1
 10
0.0
 20
0.0
 30
0.0
 70
     1
  0
VERTEX
  5
C5
  8
LAYER_1
 10
-17.25980021250158
 20
0.0010905173274693
 30
0.0
  0
VERTEX
  5
C6
  8
LAYER_1
 10
-27.61389873076117
 20
-10.35300800093211
 30
0.0
  0
VERTEX
  5
C7
  8
LAYER_1
 10
-37.96799724902075
 20
0.0010905173274693
 30
0.0
  0
VERTEX
  5
C8
  8
LAYER_1
 10
-27.61389873076117
 20
10.35518903558722
 30
0.0
  0
SEQEND
  5
C9
  8
LAYER_1
  0
POLYLINE
  5
54
  8
LAYER_1
 66
     1
 10
0.0
 20
0.0
 30
0.0
 70
     1
  0
VERTEX
  5
CA
  8
LAYER_1
 10
-44.87369894326268
 20
0.0010905173274693
 30
0.0
  0
VERTEX
  5
CB
  8
LAYER_1
 10
-55.22779746152227
 20
-10.35300800093211
 30
0.0
  0
VERTEX
  5
CC
  8
LAYER_1
 10
-65.58189597978185
 20
0.0010905173274693
 30
0.0
  0
VERTEX
  5
CD
  8
LAYER_1
 10
-55.22779746152227
 20
10.35518903558722
 30
0.0
  0
SEQEND
  5
CE
  8
LAYER_1
  0
POLYLINE
  5
55
  8
LAYER_1
 66
     1
 10
0.0
 20
0.0
 30
0.0
 70
     1
  0
VERTEX
  5
CF
  8
LAYER_1
 10
-72.48759767402396
 20
0.0010905173274693
 30
0.0
  0
VERTEX
  5
D0
  8
LAYER_1
 10
-82.84169619228354
 20
-10.35300800093211
 30
0.0
  0
VERTEX
  5
D1
  8
LAYER_1
 10
-93.19579471054311
 20
0.0010905173274693
 30
0.0
  0
VERTEX
  5
D2
  8
LAYER_1
 10
-82.84169619228354
 20
10.35518903558722
 30
0.0
  0
SEQEND
  5
D3
  8
LAYER_1
  0
POLYLINE
  5
56
  8
LAYER_1
 66
     1
 10
0.0
 20
0.0
 30
0.0
 70
     1
  0
VERTEX
  5
D4
  8
LAYER_1
 10
85.58498649710961
 20
-20.0
 30
0.0
  0
VERTEX
  5
D5
  8
LAYER_1
 10
80.09840588745777
 20
-20.0
 30
0.0
  0
VERTEX
  5
D6
  8
LAYER_1
 10
82.84169619228368
 20
-17.25670969517407
 30
0.0
  0
SEQEND
  5
D7
  8
LAYER_1
  0
POLYLINE
  5
57
  8
LAYER_1
 66
     1
 10
0.0
 20
0.0
 30
0.0
 70
     1
  0
VERTEX
  5
D8
  8
LAYER_1
 10
79.38984534516263
 20
-13.80485884805316
 30
0.0
  0
VERTEX
  5
D9
  8
LAYER_1
 10
73.19470419321584
 20
-20.0
 30
0.0
  0
VERTEX
  5
DA
  8
LAYER_1
 10
64.87478946059022
 20
-20.0
 30
0.0
  0
VERTEX
  5
DB
  8
LAYER_1
 10
58.67964830864344
 20
-13.80485884805316
 30
0.0
  0
VERTEX
  5
DC
  8
LAYER_1
 10
69.03474682690305
 20
-3.450760329793411
 30
0.0
  0
SEQEND
  5
DD
  8
LAYER_1
  0
POLYLINE
  5
58
  8
LAYER_1
 66
     1
 10
0.0
 20
0.0
 30
0.0
 70
     1
  0
VERTEX
  5
DE
  8
LAYER_1
 10
57.9710877663483
 20
-20.0
 30
0.0
  0
VERTEX
  5
DF
  8
LAYER_1
 10
52.48450715669645
 20
-20.0
 30
0.0
  0
VERTEX
  5
E0
  8
LAYER_1
 10
55.22779746152239
 20
-17.25670969517407
 30
0.0
  0
SEQEND
  5
E1
  8
LAYER_1
  0
POLYLINE
  5
59
  8
LAYER_1
 66
     1
 10
0.0
 20
0.0
 30
0.0
 70
     1
  0
VERTEX
  5
E2
  8
LAYER_1
 10
51.77594661440142
 20
-13.80485884805316
 30
0.0
  0
VERTEX
  5
E3
  8
LAYER_1
 10
45.58080546245461
 20
-20.0
 30
0.0
  0
VERTEX
  5
E4
  8
LAYER_1
 10
37.26089072982908
 20
-20.0
 30
0.0
  0
VERTEX
  5
E5
  8
LAYER_1
 10
31.06574957788226
 20
-13.80485884805316
 30
0.0
  0
VERTEX
  5
E6
  8
LAYER_1
 10
41.42084809614184
 20
-3.450760329793582
 30
0.0
  0
SEQEND
  5
E7
  8
LAYER_1
  0
POLYLINE
  5
5A
  8
LAYER_1
 66
     1
 10
0.0
 20
0.0
 30
0.0
 70
     1
  0
VERTEX
  5
E8
  8
LAYER_1
 10
30.35718903558723
 20
-20.0
 30
0.0
  0
VERTEX
  5
E9
  8
LAYER_1
 10
24.87060842593537
 20
-20.0
 30
0.0
  0
VERTEX
  5
EA
  8
LAYER_1
 10
27.61389873076129
 20
-17.25670969517407
 30
0.0
  0
SEQEND
  5
EB
  8
LAYER_1
  0
POLYLINE
  5
5B
  8
LAYER_1
 66
     1
 10
0.0
 20
0.0
 30
0.0
 70
     1
  0
VERTEX
  5
EC
  8
LAYER_1
 10
24.16204788364023
 20
-13.80485884805316
 30
0.0
  0
VERTEX
  5
ED
  8
LAYER_1
 10
17.96690673169346
 20
-20.0
 30
0.0
  0
VERTEX
  5
EE
  8
LAYER_1
 10
9.646991999067843
 20
-20.0
 30
0.0
  0
VERTEX
  5
EF
  8
LAYER_1
 10
3.451850847121072
 20
-13.80485884805316
 30
0.0
  0
VERTEX
  5
F0
  8
LAYER_1
 10
13.80694936538065
 20
-3.450760329793411
 30
0.0
  0
SEQEND
  5
F1
  8
LAYER_1
  0
POLYLINE
  5
5C
  8
LAYER_1
 66
     1
 10
0.0
 20
0.0
 30
0.0
 70
     1
  0
VERTEX
  5
F2
  8
LAYER_1
 10
2.743290304825937
 20
-20.0
 30
0.0
  0
VERTEX
  5
F3
  8
LAYER_1
 10
-2.743290304825923
 20
-20.0
 30
0.0
  0
VERTEX
  5
F4
  8
LAYER_1
 10
0.0000000000000178
 20
-17.25670969517407
 30
0.0
  0
SEQEND
  5
F5
  8
LAYER_1
  0
POLYLINE
  5
5D
  8
LAYER_1
 66
     1
 10
0.0
 20
0.0
 30
0.0
 70
     1
  0
VERTEX
  5
F6
  8
LAYER_1
 10
-3.451850847120948
 20
-13.80485884805316
 30
0.0
  0
VERTEX
  5
F7
  8
LAYER_1
 10
-9.646991999067772
 20
-20.0
 30
0.0
  0
VERTEX
  5
F8
  8
LAYER_1
 10
-17.96690673169329
 20
-20.0
 30
0.0
  0
VERTEX
  5
F9
  8
LAYER_1
 10
-24.16204788364012
 20
-13.80485884805316
 30
0.0
  0
VERTEX
  5
FA
  8
LAYER_1
 10
-13.80694936538053
 20
-3.450760329793582
 30
0.0
  0
SEQEND
  5
FB
  8
LAYER_1
  0
POLYLINE
  5
5E
  8
LAYER_1
 66
     1
 10
0.0
 20
0.0
 30
0.0
 70
     1
  0
VERTEX
  5
FC
  8
LAYER_1
 10
-24.87060842593514
 20
-20.0
 30
0.0
  0
VERTEX
  5
FD
  8
LAYER_1
 10
-30.357189035587
 20
-20.0
 30
0.0
  0
VERTEX
  5
FE
  8
LAYER_1
 10
-27.61389873076109
 20
-17.25670969517407
 30
0.0
  0
SEQEND
  5
FF
  8
LAYER_1
  0
POLYLINE
  5
5F
  8
LAYER_1
 66
     1
 10
0.0
 20
0.0
 30
0.0
 70
     1
  0
VERTEX
  5
100
  8
LAYER_1
 10
-31.06574957788214
 20
-13.80485884805316
 30
0.0
  0
VERTEX
  5
101
  8
LAYER_1
 10
-37.26089072982891
 20
-20.0
 30
0.0
  0
VERTEX
  5
102
  8
LAYER_1
 10
-45.58080546245453
 20
-20.0
 30
0.0
  0
VERTEX
  5
103
  8
LAYER_1
 10
-51.7759466144013
 20
-13.80485884805316
 30
0.0
  0
VERTEX
  5
104
  8
LAYER_1
 10
-41.42084809614172
 20
-3.450760329793411
 30
0.0
  0
SEQEND
  5
105
  8
LAYER_1
  0
POLYLINE
  5
60
  8
LAYER_1
 66
     1
 10
0.0
 20
0.0
 30
0.0
 70
     1
  0
VERTEX
  5
106
  8
LAYER_1
 10
-52.48450715669644
 20
-20.0
 30
0.0
  0
VERTEX
  5
107
  8
LAYER_1
 10
-57.97108776634829
 20
-20.0
 30
0.0
  0
VERTEX
  5
108
  8
LAYER_1
 10
-55.22779746152235
 20
-17.25670969517407
 30
0.0
  0
SEQEND
  5
109
  8
LAYER_1
  0
POLYLINE
  5
61
  8
LAYER_1
 66
     1
 10
0.0
 20
0.0
 30
0.0
 70
     1
  0
VERTEX
  5
10A
  8
LAYER_1
 10
-58.67964830864332
 20
-13.80485884805316
 30
0.0
  0
VERTEX
  5
10B
  8
LAYER_1
 10
-64.87478946059014
 20
-20.0
 30
0.0
  0
VERTEX
  5
10C
  8
LAYER_1
 10
-73.19470419321567
 20
-20.0
 30
0.0
  0
VERTEX
  5
10D
  8
LAYER_1
 10
-79.38984534516248
 20
-13.80485884805316
 30
0.0
  0
VERTEX
  5
10E
  8
LAYER_1
 10
-69.0347468269029
 20
-3.450760329793582
 30
0.0
  0
SEQEND
  5
10F
  8
LAYER_1
  0
POLYLINE
  5
62
  8
LAYER_1
 66
     1
 10
0.0
 20
0.0
 30
0.0
 70
     1
  0
VERTEX
  5
110
  8
LAYER_1
 10
-80.09840588745752
 20
-20.0
 30
0.0
  0
VERTEX
  5
111
  8
LAYER_1
 10
-85.58498649710936
 20
-20.0
 30
0.0
  0
VERTEX
  5
112
  8
LAYER_1
 10
-82.84169619228345
 20
-17.25670969517407
 30
0.0
  0
SEQEND
  5
113
  8
LAYER_1
  0
POLYLINE
  5
63
  8
LAYER_1
 66
     1
 10
0.0
 20
0.0
 30
0.0
 70
     1
  0
VERTEX
  5
114
  8
LAYER_1
 10
95.0
 20
-20.0
 30
0.0
  0
VERTEX
  5
115
  8
LAYER_1
 10
92.48868819135146
 20
-20.0
 30
0.0
  0
VERTEX
  5
116
  8
LAYER_1
 10
86.29354703940464
 20
-13.80485884805316
 30
0.0
  0
VERTEX
  5
117
  8
LAYER_1
 10
95.0
 20
-5.09924667646095
 30
0.0
  0
SEQEND
  5
118
  8
LAYER_1
  0
POLYLINE
  5
64
  8
LAYER_1
 66
     1
 10
0.0
 20
0.0
 30
0.0
 70
     1
  0
VERTEX
  5
119
  8
LAYER_1
 10
95.00000000000003
 20
5.101427711115718
 30
0.0
  0
VERTEX
  5
11A
  8
LAYER_1
 10
86.29354703940456
 20
13.8070398827081
 30
0.0
  0
VERTEX
  5
11B
  8
LAYER_1
 10
92.48650715669652
 20
20.0
 30
0.0
  0
VERTEX
  5
11C
  8
LAYER_1
 10
95.0
 20
20.0
 30
0.0
  0
SEQEND
  5
11D
  8
LAYER_1
  0
POLYLINE
  5
65
  8
LAYER_1
 66
     1
 10
0.0
 20
0.0
 30
0.0
 70
     1
  0
VERTEX
  5
11E
  8
LAYER_1
 10
-95.0
 20
20.0
 30
0.0
  0
VERTEX
  5
11F
  8
LAYER_1
 10
-92.48650715669649
 20
20.0
 30
0.0
  0
VERTEX
  5
120
  8
LAYER_1
 10
-86.29282002785288
 20
13.80631287115639
 30
0.0
  0
VERTEX
  5
121
  8
LAYER_1
 10
-95.0
 20
5.100584970633207
 30
0.0
  0
SEQEND
  5
122
  8
LAYER_1
  0
POLYLINE
  5
66
  8
LAYER_1
 66
     1
 10
0.0
 20
0.0
 30
0.0
 70
     1
  0
VERTEX
  5
123
  8
LAYER_1
 10
-95.0
 20
-20.0
 30
0.0
  0
VERTEX
  5
124
  8
LAYER_1
 10
-92.48868819135129
 20
-20.0
 30
0.0
  0
VERTEX
  5
125
  8
LAYER_1
 10
-86.2935470394045
 20
-13.80485884805316
 30
0.0
  0
VERTEX
  5
126
  8
LAYER_1
 10
-95.0
 20
-5.099246676460695
 30
0.0
  0
SEQEND
  5
127
  8
LAYER_1
  0
ENDSEC
  0
EOF
