  0
SECTION
  2
HEADER
  9
$ACADVER
  1
AC1009
  9
$DWGCODEPAGE
  3
ansi_1252
  9
$INSBASE
 10
0.0
 20
0.0
 30
0.0
  9
$EXTMIN
 10
-165.0
 20
-50.00000000000006
 30
0.0
  9
$EXTMAX
 10
165.0
 20
50.00000000000006
 30
0.0
  9
$LIMMIN
 10
0.0
 20
0.0
  9
$LIMMAX
 10
12.0
 20
9.0
  9
$ORTHOMODE
 70
     0
  9
$REGENMODE
 70
     1
  9
$FILLMODE
 70
     1
  9
$QTEXTMODE
 70
     0
  9
$MIRRTEXT
 70
     1
  9
$DRAGMODE
 70
     2
  9
$LTSCALE
 40
1.0
  9
$OSMODE
 70
    37
  9
$ATTMODE
 70
     1
  9
$TEXTSIZE
 40
0.2
  9
$TRACEWID
 40
0.05
  9
$TEXTSTYLE
  7
STANDARD
  9
$CLAYER
  8
0
  9
$CELTYPE
  6
BYLAYER
  9
$CECOLOR
 62
   256
  9
$DIMSCALE
 40
1.0
  9
$DIMASZ
 40
0.18
  9
$DIMEXO
 40
0.0625
  9
$DIMDLI
 40
0.38
  9
$DIMRND
 40
0.0
  9
$DIMDLE
 40
0.0
  9
$DIMEXE
 40
0.18
  9
$DIMTP
 40
0.0
  9
$DIMTM
 40
0.0
  9
$DIMTXT
 40
0.18
  9
$DIMCEN
 40
0.09
  9
$DIMTSZ
 40
0.0
  9
$DIMTOL
 70
     0
  9
$DIMLIM
 70
     0
  9
$DIMTIH
 70
     1
  9
$DIMTOH
 70
     1
  9
$DIMSE1
 70
     0
  9
$DIMSE2
 70
     0
  9
$DIMTAD
 70
     0
  9
$DIMZIN
 70
     0
  9
$DIMBLK
  1

  9
$DIMASO
 70
     1
  9
$DIMSHO
 70
     1
  9
$DIMPOST
  1

  9
$DIMAPOST
  1

  9
$DIMALT
 70
     0
  9
$DIMALTD
 70
     2
  9
$DIMALTF
 40
25.4
  9
$DIMLFAC
 40
1.0
  9
$DIMTOFL
 70
     0
  9
$DIMTVP
 40
0.0
  9
$DIMTIX
 70
     0
  9
$DIMSOXD
 70
     0
  9
$DIMSAH
 70
     0
  9
$DIMBLK1
  1

  9
$DIMBLK2
  1

  9
$DIMSTYLE
  2
STANDARD
  9
$DIMCLRD
 70
     0
  9
$DIMCLRE
 70
     0
  9
$DIMCLRT
 70
     0
  9
$DIMTFAC
 40
1.0
  9
$DIMGAP
 40
0.09
  9
$LUNITS
 70
     2
  9
$LUPREC
 70
     4
  9
$SKETCHINC
 40
0.1
  9
$FILLETRAD
 40
0.5
  9
$AUNITS
 70
     0
  9
$AUPREC
 70
     0
  9
$MENU
  1
.
  9
$ELEVATION
 40
0.0
  9
$PELEVATION
 40
0.0
  9
$THICKNESS
 40
0.0
  9
$LIMCHECK
 70
     0
  9
$CHAMFERA
 40
0.5
  9
$CHAMFERB
 40
0.5
  9
$SKPOLY
 70
     0
  9
$TDCREATE
 40
2454910.5
  9
$TDUPDATE
 40
2457348.515785035
  9
$TDINDWG
 40
0.0000000116
  9
$TDUSRTIMER
 40
0.0000000116
  9
$USRTIMER
 70
     1
  9
$ANGBASE
 50
0.0
  9
$ANGDIR
 70
     0
  9
$PDMODE
 70
     0
  9
$PDSIZE
 40
0.0
  9
$PLINEWID
 40
0.0
  9
$COORDS
 70
     1
  9
$SPLFRAME
 70
     0
  9
$SPLINETYPE
 70
     6
  9
$SPLINESEGS
 70
     8
  9
$ATTDIA
 70
     0
  9
$ATTREQ
 70
     1
  9
$HANDLING
 70
     1
  9
$HANDSEED
  5
878
  9
$SURFTAB1
 70
     6
  9
$SURFTAB2
 70
     6
  9
$SURFTYPE
 70
     6
  9
$SURFU
 70
     6
  9
$SURFV
 70
     6
  9
$UCSNAME
  2

  9
$UCSORG
 10
0.0
 20
0.0
 30
0.0
  9
$UCSXDIR
 10
1.0
 20
0.0
 30
0.0
  9
$UCSYDIR
 10
0.0
 20
1.0
 30
0.0
  9
$PUCSNAME
  2

  9
$PUCSORG
 10
0.0
 20
0.0
 30
0.0
  9
$PUCSXDIR
 10
1.0
 20
0.0
 30
0.0
  9
$PUCSYDIR
 10
0.0
 20
1.0
 30
0.0
  9
$USERI1
 70
     0
  9
$USERI2
 70
     0
  9
$USERI3
 70
     0
  9
$USERI4
 70
     0
  9
$USERI5
 70
     0
  9
$USERR1
 40
0.0
  9
$USERR2
 40
0.0
  9
$USERR3
 40
0.0
  9
$USERR4
 40
0.0
  9
$USERR5
 40
0.0
  9
$WORLDVIEW
 70
     1
  9
$SHADEDGE
 70
     3
  9
$SHADEDIF
 70
    70
  9
$TILEMODE
 70
     1
  9
$MAXACTVP
 70
    64
  9
$PLIMCHECK
 70
     0
  9
$PEXTMIN
 10
1.000000000000000E+20
 20
1.000000000000000E+20
 30
1.000000000000000E+20
  9
$PEXTMAX
 10
-1.000000000000000E+20
 20
-1.000000000000000E+20
 30
-1.000000000000000E+20
  9
$PLIMMIN
 10
0.0
 20
0.0
  9
$PLIMMAX
 10
12.0
 20
9.0
  9
$UNITMODE
 70
     0
  9
$VISRETAIN
 70
     1
  9
$PLINEGEN
 70
     0
  9
$PSLTSCALE
 70
     1
  0
ENDSEC
  0
SECTION
  2
TABLES
  0
TABLE
  2
VPORT
 70
     1
  0
VPORT
  2
*ACTIVE
 70
     0
 10
0.0
 20
0.0
 11
1.0
 21
1.0
 12
10.42990654205607
 22
4.5
 13
0.0
 23
0.0
 14
0.5
 24
0.5
 15
0.5
 25
0.5
 16
0.0
 26
0.0
 36
1.0
 17
0.0
 27
0.0
 37
0.0
 40
9.0
 41
1.972972972850329
 42
50.0
 43
0.0
 44
0.0
 50
0.0
 51
0.0
 71
     0
 72
   100
 73
     1
 74
     3
 75
     0
 76
     0
 77
     0
 78
     0
  0
ENDTAB
  0
TABLE
  2
LTYPE
 70
     2
  0
LTYPE
  2
CONTINUOUS
 70
     0
  3
Solid line
 72
    65
 73
     0
 40
0.0
  0
LTYPE
  2
CONTINUOUS2
 70
     0
  3
Solid Line
 72
    65
 73
     0
 40
0.0
  0
ENDTAB
  0
TABLE
  2
LAYER
 70
     2
  0
LAYER
  2
0
 70
     0
 62
     7
  6
CONTINUOUS
  0
LAYER
  2
LAYER_1
 70
     0
 62
    18
  6
CONTINUOUS
  0
ENDTAB
  0
TABLE
  2
STYLE
 70
     1
  0
STYLE
  2
STANDARD
 70
     0
 40
0.0
 41
1.0
 50
0.0
 71
     0
 42
0.2
  3
txt
  4

  0
ENDTAB
  0
TABLE
  2
VIEW
 70
     0
  0
ENDTAB
  0
TABLE
  2
UCS
 70
     0
  0
ENDTAB
  0
TABLE
  2
APPID
 70
     1
  0
APPID
  2
ACAD
 70
     0
  0
ENDTAB
  0
TABLE
  2
DIMSTYLE
 70
     1
  0
DIMSTYLE
  2
STANDARD
 70
     0
  3

  4

  5

  6

  7

 40
1.0
 41
0.18
 42
0.0625
 43
0.38
 44
0.18
 45
0.0
 46
0.0
 47
0.0
 48
0.0
140
0.18
141
0.09
142
0.0
143
25.4
144
1.0
145
0.0
146
1.0
147
0.09
 71
     0
 72
     0
 73
     1
 74
     1
 75
     0
 76
     0
 77
     0
 78
     0
170
     0
171
     2
172
     0
173
     0
174
     0
175
     0
176
     0
177
     0
178
     0
  0
ENDTAB
  0
ENDSEC
  0
SECTION
  2
BLOCKS
  0
BLOCK
  8
0
  2
$MODEL_SPACE
 70
     0
 10
0.0
 20
0.0
 30
0.0
  3
$MODEL_SPACE
  1

  0
ENDBLK
  5
21
  8
0
  0
BLOCK
 67
     1
  8
0
  2
$PAPER_SPACE
 70
     0
 10
0.0
 20
0.0
 30
0.0
  3
$PAPER_SPACE
  1

  0
ENDBLK
  5
1D
 67
     1
  8
0
  0
ENDSEC
  0
SECTION
  2
ENTITIES
  0
POLYLINE
  5
41
  8
LAYER_1
 66
     1
 10
0.0
 20
0.0
 30
0.0
 70
     1
  0
VERTEX
  5
10E
  8
LAYER_1
 10
-165.0
 20
-50.00000000000006
 30
0.0
  0
VERTEX
  5
10F
  8
LAYER_1
 10
165.0
 20
-50.00000000000006
 30
0.0
  0
VERTEX
  5
110
  8
LAYER_1
 10
165.0
 20
50.00000000000006
 30
0.0
  0
VERTEX
  5
111
  8
LAYER_1
 10
-165.0
 20
50.00000000000006
 30
0.0
  0
SEQEND
  5
112
  8
LAYER_1
  0
POLYLINE
  5
42
  8
LAYER_1
 66
     1
 10
0.0
 20
0.0
 30
0.0
 70
     1
  0
VERTEX
  5
113
  8
LAYER_1
 10
15.39400215591559
 20
42.66129583825779
 30
0.0
  0
VERTEX
  5
114
  8
LAYER_1
 10
16.65727262241489
 20
40.24560727615022
 30
0.0
  0
VERTEX
  5
115
  8
LAYER_1
 10
14.13740305363035
 20
40.2471912188193
 30
0.0
  0
VERTEX
  5
116
  8
LAYER_1
 10
14.14153294576272
 20
37.32956882463299
 30
0.0
  0
VERTEX
  5
117
  8
LAYER_1
 10
11.9229866606388
 20
38.74350164613605
 30
0.0
  0
VERTEX
  5
118
  8
LAYER_1
 10
10.64684999172732
 20
36.2853986192568
 30
0.0
  0
VERTEX
  5
119
  8
LAYER_1
 10
9.395969201625576
 20
38.67715204771599
 30
0.0
  0
VERTEX
  5
11A
  8
LAYER_1
 10
7.14930788160018
 20
37.24139601612177
 30
0.0
  0
VERTEX
  5
11B
  8
LAYER_1
 10
7.145177989467811
 20
40.11537199012554
 30
0.0
  0
VERTEX
  5
11C
  8
LAYER_1
 10
4.650405457487977
 20
40.1166039455365
 30
0.0
  0
VERTEX
  5
11D
  8
LAYER_1
 10
5.931148544547341
 20
42.57189107433777
 30
0.0
  0
VERTEX
  5
11E
  8
LAYER_1
 10
3.71546141551471
 20
43.99831944355429
 30
0.0
  0
VERTEX
  5
11F
  8
LAYER_1
 10
17.48658673100135
 20
43.99831944355429
 30
0.0
  0
SEQEND
  5
120
  8
LAYER_1
  0
POLYLINE
  5
43
  8
LAYER_1
 66
     1
 10
0.0
 20
0.0
 30
0.0
 70
     1
  0
VERTEX
  5
121
  8
LAYER_1
 10
94.84375510498512
 20
42.66129583825779
 30
0.0
  0
VERTEX
  5
122
  8
LAYER_1
 10
96.10702557148397
 20
40.24543128251997
 30
0.0
  0
VERTEX
  5
123
  8
LAYER_1
 10
93.5873148447049
 20
40.247015225187
 30
0.0
  0
VERTEX
  5
124
  8
LAYER_1
 10
93.59144473683773
 20
37.32939283100285
 30
0.0
  0
VERTEX
  5
125
  8
LAYER_1
 10
91.37273960970833
 20
38.7433256525058
 30
0.0
  0
VERTEX
  5
126
  8
LAYER_1
 10
90.09660294079686
 20
36.28522262562677
 30
0.0
  0
VERTEX
  5
127
  8
LAYER_1
 10
88.84588099270013
 20
38.67697605408574
 30
0.0
  0
VERTEX
  5
128
  8
LAYER_1
 10
86.59921967267474
 20
37.24122002249152
 30
0.0
  0
VERTEX
  5
129
  8
LAYER_1
 10
86.59508978054237
 20
40.11519599649756
 30
0.0
  0
VERTEX
  5
12A
  8
LAYER_1
 10
84.10015840655751
 20
40.1166039455365
 30
0.0
  0
VERTEX
  5
12B
  8
LAYER_1
 10
85.38090149361688
 20
42.57171508070763
 30
0.0
  0
VERTEX
  5
12C
  8
LAYER_1
 10
83.16521436458424
 20
43.99814344992416
 30
0.0
  0
VERTEX
  5
12D
  8
LAYER_1
 10
96.93633968007089
 20
43.99814344992416
 30
0.0
  0
SEQEND
  5
12E
  8
LAYER_1
  0
POLYLINE
  5
44
  8
LAYER_1
 66
     1
 10
0.0
 20
0.0
 30
0.0
 70
     1
  0
VERTEX
  5
12F
  8
LAYER_1
 10
-63.97072245023628
 20
42.61377755822099
 30
0.0
  0
VERTEX
  5
130
  8
LAYER_1
 10
-62.66027590822478
 20
40.08316515588234
 30
0.0
  0
VERTEX
  5
131
  8
LAYER_1
 10
-65.21985597828188
 20
40.09090887558881
 30
0.0
  0
VERTEX
  5
132
  8
LAYER_1
 10
-65.226845026506
 20
37.255299512872
 30
0.0
  0
VERTEX
  5
133
  8
LAYER_1
 10
-67.38391945565945
 20
38.64406524532211
 30
0.0
  0
VERTEX
  5
134
  8
LAYER_1
 10
-68.69150684157921
 20
36.16237907205476
 30
0.0
  0
VERTEX
  5
135
  8
LAYER_1
 10
-69.98209813295398
 20
38.65480085673647
 30
0.0
  0
VERTEX
  5
136
  8
LAYER_1
 10
-72.14886192441782
 20
37.28433846178353
 30
0.0
  0
VERTEX
  5
137
  8
LAYER_1
 10
-72.13647224802071
 20
40.12029981175846
 30
0.0
  0
VERTEX
  5
138
  8
LAYER_1
 10
-74.69573463406778
 20
40.13402731488299
 30
0.0
  0
VERTEX
  5
139
  8
LAYER_1
 10
-73.36829199751173
 20
42.653552118547
 30
0.0
  0
VERTEX
  5
13A
  8
LAYER_1
 10
-75.45706436447517
 20
43.99814344992416
 30
0.0
  0
VERTEX
  5
13B
  8
LAYER_1
 10
-61.78235614607956
 20
43.99814344992416
 30
0.0
  0
SEQEND
  5
13C
  8
LAYER_1
  0
POLYLINE
  5
45
  8
LAYER_1
 66
     1
 10
0.0
 20
0.0
 30
0.0
 70
     1
  0
VERTEX
  5
13D
  8
LAYER_1
 10
-143.495289983704
 20
42.61377755822099
 30
0.0
  0
VERTEX
  5
13E
  8
LAYER_1
 10
-142.1848434416925
 20
40.08316515588234
 30
0.0
  0
VERTEX
  5
13F
  8
LAYER_1
 10
-144.744582353755
 20
40.09090887558881
 30
0.0
  0
VERTEX
  5
140
  8
LAYER_1
 10
-144.7515714019792
 20
37.255299512872
 30
0.0
  0
VERTEX
  5
141
  8
LAYER_1
 10
-146.9086458311322
 20
38.64406524532211
 30
0.0
  0
VERTEX
  5
142
  8
LAYER_1
 10
-148.2162332170519
 20
36.16237907205476
 30
0.0
  0
VERTEX
  5
143
  8
LAYER_1
 10
-149.5068245084271
 20
38.65480085673647
 30
0.0
  0
VERTEX
  5
144
  8
LAYER_1
 10
-151.673588299891
 20
37.28433846178353
 30
0.0
  0
VERTEX
  5
145
  8
LAYER_1
 10
-151.6611986234939
 20
40.12029981175846
 30
0.0
  0
VERTEX
  5
146
  8
LAYER_1
 10
-154.2204610095409
 20
40.13402731488299
 30
0.0
  0
VERTEX
  5
147
  8
LAYER_1
 10
-152.8928595309799
 20
42.653552118547
 30
0.0
  0
VERTEX
  5
148
  8
LAYER_1
 10
-154.9816318979433
 20
43.99814344992416
 30
0.0
  0
VERTEX
  5
149
  8
LAYER_1
 10
-141.3070825215527
 20
43.99814344992416
 30
0.0
  0
SEQEND
  5
14A
  8
LAYER_1
  0
POLYLINE
  5
46
  8
LAYER_1
 66
     1
 10
0.0
 20
0.0
 30
0.0
 70
     1
  0
VERTEX
  5
14B
  8
LAYER_1
 10
119.244469098855
 20
38.50718726023473
 30
0.0
  0
VERTEX
  5
14C
  8
LAYER_1
 10
114.4119783663223
 20
43.9984954371842
 30
0.0
  0
VERTEX
  5
14D
  8
LAYER_1
 10
124.2006166741312
 20
43.9984954371842
 30
0.0
  0
SEQEND
  5
14E
  8
LAYER_1
  0
POLYLINE
  5
47
  8
LAYER_1
 66
     1
 10
0.0
 20
0.0
 30
0.0
 70
     1
  0
VERTEX
  5
14F
  8
LAYER_1
 10
39.75730885758594
 20
38.50718726023473
 30
0.0
  0
VERTEX
  5
150
  8
LAYER_1
 10
34.92481812505366
 20
43.9984954371842
 30
0.0
  0
VERTEX
  5
151
  8
LAYER_1
 10
44.71345643286213
 20
43.9984954371842
 30
0.0
  0
SEQEND
  5
152
  8
LAYER_1
  0
POLYLINE
  5
48
  8
LAYER_1
 66
     1
 10
0.0
 20
0.0
 30
0.0
 70
     1
  0
VERTEX
  5
153
  8
LAYER_1
 10
-34.86522835414962
 20
43.99849543718386
 30
0.0
  0
VERTEX
  5
154
  8
LAYER_1
 10
-39.69771908668145
 20
38.50718726023473
 30
0.0
  0
VERTEX
  5
155
  8
LAYER_1
 10
-44.65386666195764
 20
43.9984954371842
 30
0.0
  0
SEQEND
  5
156
  8
LAYER_1
  0
POLYLINE
  5
49
  8
LAYER_1
 66
     1
 10
0.0
 20
0.0
 30
0.0
 70
     1
  0
VERTEX
  5
157
  8
LAYER_1
 10
-114.3523885954182
 20
43.99849543718386
 30
0.0
  0
VERTEX
  5
158
  8
LAYER_1
 10
-119.1848793279501
 20
38.50718726023473
 30
0.0
  0
VERTEX
  5
159
  8
LAYER_1
 10
-124.1410269032262
 20
43.9984954371842
 30
0.0
  0
SEQEND
  5
15A
  8
LAYER_1
  0
POLYLINE
  5
4A
  8
LAYER_1
 66
     1
 10
0.0
 20
0.0
 30
0.0
 70
     1
  0
VERTEX
  5
15B
  8
LAYER_1
 10
131.0521078497841
 20
37.42583734011095
 30
0.0
  0
VERTEX
  5
15C
  8
LAYER_1
 10
133.265253506735
 20
38.85015378577231
 30
0.0
  0
VERTEX
  5
15D
  8
LAYER_1
 10
133.2720837129541
 20
35.93235539795597
 30
0.0
  0
VERTEX
  5
15E
  8
LAYER_1
 10
135.7919532817382
 20
35.94573091381807
 30
0.0
  0
VERTEX
  5
15F
  8
LAYER_1
 10
134.5377368095296
 20
33.52423456192906
 30
0.0
  0
VERTEX
  5
160
  8
LAYER_1
 10
136.8244263148381
 20
32.07721493802995
 30
0.0
  0
VERTEX
  5
161
  8
LAYER_1
 10
134.6138221299684
 20
30.64779467710758
 30
0.0
  0
VERTEX
  5
162
  8
LAYER_1
 10
135.9039368953281
 20
28.19866732534814
 30
0.0
  0
VERTEX
  5
163
  8
LAYER_1
 10
133.4093232053538
 20
28.18564379674621
 30
0.0
  0
VERTEX
  5
164
  8
LAYER_1
 10
133.4159945695678
 20
25.31201980999839
 30
0.0
  0
VERTEX
  5
165
  8
LAYER_1
 10
131.163932621369
 20
26.73721622380839
 30
0.0
  0
VERTEX
  5
166
  8
LAYER_1
 10
129.9221058255575
 20
24.33965500556786
 30
0.0
  0
VERTEX
  5
167
  8
LAYER_1
 10
128.6365974783457
 20
26.79177424903531
 30
0.0
  0
VERTEX
  5
168
  8
LAYER_1
 10
126.4234518213948
 20
25.36763379700625
 30
0.0
  0
VERTEX
  5
169
  8
LAYER_1
 10
126.4164627731707
 20
28.28508019756015
 30
0.0
  0
VERTEX
  5
16A
  8
LAYER_1
 10
123.8967520463916
 20
28.27188067532819
 30
0.0
  0
VERTEX
  5
16B
  8
LAYER_1
 10
125.1509685186002
 20
30.69337702721731
 30
0.0
  0
VERTEX
  5
16C
  8
LAYER_1
 10
122.8642790132917
 20
32.1403966511163
 30
0.0
  0
VERTEX
  5
16D
  8
LAYER_1
 10
125.0747243561559
 20
33.56981691203868
 30
0.0
  0
VERTEX
  5
16E
  8
LAYER_1
 10
123.7846095907962
 20
36.01876827017026
 30
0.0
  0
VERTEX
  5
16F
  8
LAYER_1
 10
126.279382122776
 20
36.0317917987698
 30
0.0
  0
VERTEX
  5
170
  8
LAYER_1
 10
126.272710758562
 20
38.90541578551557
 30
0.0
  0
VERTEX
  5
171
  8
LAYER_1
 10
128.5247727067608
 20
37.48039536533787
 30
0.0
  0
VERTEX
  5
172
  8
LAYER_1
 10
129.7665995025723
 20
39.8779565835784
 30
0.0
  0
SEQEND
  5
173
  8
LAYER_1
  0
POLYLINE
  5
4B
  8
LAYER_1
 66
     1
 10
0.0
 20
0.0
 30
0.0
 70
     1
  0
VERTEX
  5
174
  8
LAYER_1
 10
51.52738147431091
 20
37.42583734011095
 30
0.0
  0
VERTEX
  5
175
  8
LAYER_1
 10
53.74068597326732
 20
38.85015378577231
 30
0.0
  0
VERTEX
  5
176
  8
LAYER_1
 10
53.74751617948596
 20
35.93235539795597
 30
0.0
  0
VERTEX
  5
177
  8
LAYER_1
 10
56.26722690626502
 20
35.94573091381807
 30
0.0
  0
VERTEX
  5
178
  8
LAYER_1
 10
55.01301043405647
 20
33.52423456192906
 30
0.0
  0
VERTEX
  5
179
  8
LAYER_1
 10
57.29969993936493
 20
32.07721493802995
 30
0.0
  0
VERTEX
  5
17A
  8
LAYER_1
 10
55.0890957544957
 20
30.64779467710758
 30
0.0
  0
VERTEX
  5
17B
  8
LAYER_1
 10
56.37921051985541
 20
28.19866732534814
 30
0.0
  0
VERTEX
  5
17C
  8
LAYER_1
 10
53.88459682988059
 20
28.18564379674621
 30
0.0
  0
VERTEX
  5
17D
  8
LAYER_1
 10
53.89142703609969
 20
25.31219580363069
 30
0.0
  0
VERTEX
  5
17E
  8
LAYER_1
 10
51.63920624589582
 20
26.73721622380839
 30
0.0
  0
VERTEX
  5
17F
  8
LAYER_1
 10
50.39753829208939
 20
24.33965500556786
 30
0.0
  0
VERTEX
  5
180
  8
LAYER_1
 10
49.11187110287256
 20
26.79159825540302
 30
0.0
  0
VERTEX
  5
181
  8
LAYER_1
 10
46.89872544592163
 20
25.36763379700625
 30
0.0
  0
VERTEX
  5
182
  8
LAYER_1
 10
46.89173639769751
 20
28.28508019756015
 30
0.0
  0
VERTEX
  5
183
  8
LAYER_1
 10
44.37202567091845
 20
28.27170468169805
 30
0.0
  0
VERTEX
  5
184
  8
LAYER_1
 10
45.626242143127
 20
30.69337702721731
 30
0.0
  0
VERTEX
  5
185
  8
LAYER_1
 10
43.33971147982356
 20
32.1403966511163
 30
0.0
  0
VERTEX
  5
186
  8
LAYER_1
 10
45.54999798068275
 20
33.56981691203868
 30
0.0
  0
VERTEX
  5
187
  8
LAYER_1
 10
44.2598832153235
 20
36.01876827017026
 30
0.0
  0
VERTEX
  5
188
  8
LAYER_1
 10
46.75465574730288
 20
36.0319677924021
 30
0.0
  0
VERTEX
  5
189
  8
LAYER_1
 10
46.74798438308881
 20
38.90541578551557
 30
0.0
  0
VERTEX
  5
18A
  8
LAYER_1
 10
49.00020517329267
 20
37.48039536533787
 30
0.0
  0
VERTEX
  5
18B
  8
LAYER_1
 10
50.24203196910412
 20
39.8779565835784
 30
0.0
  0
SEQEND
  5
18C
  8
LAYER_1
  0
POLYLINE
  5
4C
  8
LAYER_1
 66
     1
 10
0.0
 20
0.0
 30
0.0
 70
     1
  0
VERTEX
  5
18D
  8
LAYER_1
 10
-48.94061540238772
 20
37.48039536533787
 30
0.0
  0
VERTEX
  5
18E
  8
LAYER_1
 10
-46.68839461218431
 20
38.90541578551557
 30
0.0
  0
VERTEX
  5
18F
  8
LAYER_1
 10
-46.69506597639793
 20
36.0319677924021
 30
0.0
  0
VERTEX
  5
190
  8
LAYER_1
 10
-44.20029344441855
 20
36.01876827017026
 30
0.0
  0
VERTEX
  5
191
  8
LAYER_1
 10
-45.49040820977825
 20
33.56981691203868
 30
0.0
  0
VERTEX
  5
192
  8
LAYER_1
 10
-43.28012170891861
 20
32.1403966511163
 30
0.0
  0
VERTEX
  5
193
  8
LAYER_1
 10
-45.56665237222251
 20
30.69337702721731
 30
0.0
  0
VERTEX
  5
194
  8
LAYER_1
 10
-44.3124359000135
 20
28.27170468169805
 30
0.0
  0
VERTEX
  5
195
  8
LAYER_1
 10
-46.83214662679256
 20
28.28508019756015
 30
0.0
  0
VERTEX
  5
196
  8
LAYER_1
 10
-46.83913567501668
 20
25.36763379700625
 30
0.0
  0
VERTEX
  5
197
  8
LAYER_1
 10
-49.05228133196761
 20
26.79159825540302
 30
0.0
  0
VERTEX
  5
198
  8
LAYER_1
 10
-50.33794852118444
 20
24.33965500556786
 30
0.0
  0
VERTEX
  5
199
  8
LAYER_1
 10
-51.57961647499133
 20
26.73721622380839
 30
0.0
  0
VERTEX
  5
19A
  8
LAYER_1
 10
-53.83183726519474
 20
25.31219580363069
 30
0.0
  0
VERTEX
  5
19B
  8
LAYER_1
 10
-53.82500705897564
 20
28.18564379674621
 30
0.0
  0
VERTEX
  5
19C
  8
LAYER_1
 10
-56.31962074895046
 20
28.19866732534814
 30
0.0
  0
VERTEX
  5
19D
  8
LAYER_1
 10
-55.02950598359075
 20
30.64779467710758
 30
0.0
  0
VERTEX
  5
19E
  8
LAYER_1
 10
-57.24011016846043
 20
32.07721493802995
 30
0.0
  0
VERTEX
  5
19F
  8
LAYER_1
 10
-54.95342066315152
 20
33.52423456192906
 30
0.0
  0
VERTEX
  5
1A0
  8
LAYER_1
 10
-56.20763713536053
 20
35.94573091381807
 30
0.0
  0
VERTEX
  5
1A1
  8
LAYER_1
 10
-53.68792640858146
 20
35.93235539795597
 30
0.0
  0
VERTEX
  5
1A2
  8
LAYER_1
 10
-53.68109620236237
 20
38.85015378577231
 30
0.0
  0
VERTEX
  5
1A3
  8
LAYER_1
 10
-51.46779170340642
 20
37.42583734011095
 30
0.0
  0
VERTEX
  5
1A4
  8
LAYER_1
 10
-50.18244219819917
 20
39.8779565835784
 30
0.0
  0
SEQEND
  5
1A5
  8
LAYER_1
  0
POLYLINE
  5
4D
  8
LAYER_1
 66
     1
 10
0.0
 20
0.0
 30
0.0
 70
     1
  0
VERTEX
  5
1A6
  8
LAYER_1
 10
-128.4651829358559
 20
37.48039536533787
 30
0.0
  0
VERTEX
  5
1A7
  8
LAYER_1
 10
-126.2131209876575
 20
38.90541578551557
 30
0.0
  0
VERTEX
  5
1A8
  8
LAYER_1
 10
-126.2197923518711
 20
36.0317917987698
 30
0.0
  0
VERTEX
  5
1A9
  8
LAYER_1
 10
-123.7250198198917
 20
36.01876827017026
 30
0.0
  0
VERTEX
  5
1AA
  8
LAYER_1
 10
-125.0151345852514
 20
33.56981691203868
 30
0.0
  0
VERTEX
  5
1AB
  8
LAYER_1
 10
-122.8046892423868
 20
32.1403966511163
 30
0.0
  0
VERTEX
  5
1AC
  8
LAYER_1
 10
-125.0913787476952
 20
30.69337702721731
 30
0.0
  0
VERTEX
  5
1AD
  8
LAYER_1
 10
-123.8371622754867
 20
28.27188067532819
 30
0.0
  0
VERTEX
  5
1AE
  8
LAYER_1
 10
-126.3568730022657
 20
28.28508019756015
 30
0.0
  0
VERTEX
  5
1AF
  8
LAYER_1
 10
-126.3638620504898
 20
25.36763379700625
 30
0.0
  0
VERTEX
  5
1B0
  8
LAYER_1
 10
-128.5770077074408
 20
26.79177424903531
 30
0.0
  0
VERTEX
  5
1B1
  8
LAYER_1
 10
-129.8625160546526
 20
24.33965500556786
 30
0.0
  0
VERTEX
  5
1B2
  8
LAYER_1
 10
-131.1043428504645
 20
26.73721622380839
 30
0.0
  0
VERTEX
  5
1B3
  8
LAYER_1
 10
-133.3564047986629
 20
25.31201980999839
 30
0.0
  0
VERTEX
  5
1B4
  8
LAYER_1
 10
-133.3497334344488
 20
28.18564379674621
 30
0.0
  0
VERTEX
  5
1B5
  8
LAYER_1
 10
-135.8443471244236
 20
28.19866732534814
 30
0.0
  0
VERTEX
  5
1B6
  8
LAYER_1
 10
-134.5542323590639
 20
30.64779467710758
 30
0.0
  0
VERTEX
  5
1B7
  8
LAYER_1
 10
-136.7648365439331
 20
32.07721493802995
 30
0.0
  0
VERTEX
  5
1B8
  8
LAYER_1
 10
-134.4781470386247
 20
33.52423456192906
 30
0.0
  0
VERTEX
  5
1B9
  8
LAYER_1
 10
-135.7323635108332
 20
35.94573091381807
 30
0.0
  0
VERTEX
  5
1BA
  8
LAYER_1
 10
-133.2124939420492
 20
35.93235539795597
 30
0.0
  0
VERTEX
  5
1BB
  8
LAYER_1
 10
-133.2056637358301
 20
38.85015378577231
 30
0.0
  0
VERTEX
  5
1BC
  8
LAYER_1
 10
-130.9925180788791
 20
37.42583734011095
 30
0.0
  0
VERTEX
  5
1BD
  8
LAYER_1
 10
-129.7070097316673
 20
39.8779565835784
 30
0.0
  0
SEQEND
  5
1BE
  8
LAYER_1
  0
POLYLINE
  5
4E
  8
LAYER_1
 66
     1
 10
0.0
 20
0.0
 30
0.0
 70
     1
  0
VERTEX
  5
1BF
  8
LAYER_1
 10
-27.91676413438699
 20
37.35385594553958
 30
0.0
  0
VERTEX
  5
1C0
  8
LAYER_1
 10
-25.7390402445717
 20
38.75898908555536
 30
0.0
  0
VERTEX
  5
1C1
  8
LAYER_1
 10
-25.73491035243933
 20
35.96702614302097
 30
0.0
  0
VERTEX
  5
1C2
  8
LAYER_1
 10
-23.10178643402423
 20
35.97811374169572
 30
0.0
  0
VERTEX
  5
1C3
  8
LAYER_1
 10
-24.37284015877276
 20
33.51684282948071
 30
0.0
  0
VERTEX
  5
1C4
  8
LAYER_1
 10
-22.15175240156714
 20
32.10836581049892
 30
0.0
  0
VERTEX
  5
1C5
  8
LAYER_1
 10
-24.30755609467951
 20
30.71713616723349
 30
0.0
  0
VERTEX
  5
1C6
  8
LAYER_1
 10
-23.00695775698387
 20
28.23087415959566
 30
0.0
  0
VERTEX
  5
1C7
  8
LAYER_1
 10
-25.60053001613096
 20
28.21996255454889
 30
0.0
  0
VERTEX
  5
1C8
  8
LAYER_1
 10
-25.59608243998855
 20
25.45580660551531
 30
0.0
  0
VERTEX
  5
1C9
  8
LAYER_1
 10
-27.81494640912251
 20
26.86956343339028
 30
0.0
  0
VERTEX
  5
1CA
  8
LAYER_1
 10
-29.09092423602897
 20
24.41128441288112
 30
0.0
  0
VERTEX
  5
1CB
  8
LAYER_1
 10
-30.41137782436135
 20
26.93573703817805
 30
0.0
  0
VERTEX
  5
1CC
  8
LAYER_1
 10
-32.58878403016661
 20
25.53060389816227
 30
0.0
  0
VERTEX
  5
1CD
  8
LAYER_1
 10
-32.59323160630902
 20
28.32239084707072
 30
0.0
  0
VERTEX
  5
1CE
  8
LAYER_1
 10
-35.22635552472411
 20
28.31147924202406
 30
0.0
  0
VERTEX
  5
1CF
  8
LAYER_1
 10
-33.95498411596554
 20
30.77257416060894
 30
0.0
  0
VERTEX
  5
1D0
  8
LAYER_1
 10
-36.17638955718121
 20
32.1812271732187
 30
0.0
  0
VERTEX
  5
1D1
  8
LAYER_1
 10
-34.02058586406838
 20
33.57228082285627
 30
0.0
  0
VERTEX
  5
1D2
  8
LAYER_1
 10
-35.32118420176403
 20
36.05854283049399
 30
0.0
  0
VERTEX
  5
1D3
  8
LAYER_1
 10
-32.72761194261739
 20
36.06927844191051
 30
0.0
  0
VERTEX
  5
1D4
  8
LAYER_1
 10
-32.73174183474976
 20
38.83361038457434
 30
0.0
  0
VERTEX
  5
1D5
  8
LAYER_1
 10
-30.51303670762036
 20
37.41985355670153
 30
0.0
  0
VERTEX
  5
1D6
  8
LAYER_1
 10
-29.2370588807139
 20
39.8779565835784
 30
0.0
  0
SEQEND
  5
1D7
  8
LAYER_1
  0
POLYLINE
  5
4F
  8
LAYER_1
 66
     1
 10
0.0
 20
0.0
 30
0.0
 70
     1
  0
VERTEX
  5
1D8
  8
LAYER_1
 10
-107.3665170834561
 20
37.35385594553958
 30
0.0
  0
VERTEX
  5
1D9
  8
LAYER_1
 10
-105.1889520356463
 20
38.75881309192522
 30
0.0
  0
VERTEX
  5
1DA
  8
LAYER_1
 10
-105.1848221435134
 20
35.96685014938868
 30
0.0
  0
VERTEX
  5
1DB
  8
LAYER_1
 10
-102.5515393830938
 20
35.97793774806331
 30
0.0
  0
VERTEX
  5
1DC
  8
LAYER_1
 10
-103.8227519498473
 20
33.51666683585057
 30
0.0
  0
VERTEX
  5
1DD
  8
LAYER_1
 10
-101.6015053506367
 20
32.10818981686879
 30
0.0
  0
VERTEX
  5
1DE
  8
LAYER_1
 10
-103.757309043749
 20
30.71678417997526
 30
0.0
  0
VERTEX
  5
1DF
  8
LAYER_1
 10
-102.4568695480584
 20
28.23069816596336
 30
0.0
  0
VERTEX
  5
1E0
  8
LAYER_1
 10
-105.0502829652005
 20
28.21978656091886
 30
0.0
  0
VERTEX
  5
1E1
  8
LAYER_1
 10
-105.0459942310631
 20
25.45563061188506
 30
0.0
  0
VERTEX
  5
1E2
  8
LAYER_1
 10
-107.2648582001971
 20
26.86938743976015
 30
0.0
  0
VERTEX
  5
1E3
  8
LAYER_1
 10
-108.5406771850985
 20
24.41110841925087
 30
0.0
  0
VERTEX
  5
1E4
  8
LAYER_1
 10
-109.8611307734309
 20
26.93556104455007
 30
0.0
  0
VERTEX
  5
1E5
  8
LAYER_1
 10
-112.0385369792361
 20
25.53042790453429
 30
0.0
  0
VERTEX
  5
1E6
  8
LAYER_1
 10
-112.0429845553786
 20
28.32221485344058
 30
0.0
  0
VERTEX
  5
1E7
  8
LAYER_1
 10
-114.6761084737936
 20
28.31130324839393
 30
0.0
  0
VERTEX
  5
1E8
  8
LAYER_1
 10
-113.4047370650346
 20
30.77239816698096
 30
0.0
  0
VERTEX
  5
1E9
  8
LAYER_1
 10
-115.6263013482558
 20
32.18105117959084
 30
0.0
  0
VERTEX
  5
1EA
  8
LAYER_1
 10
-113.4703388131379
 20
33.57210482922613
 30
0.0
  0
VERTEX
  5
1EB
  8
LAYER_1
 10
-114.7709371508336
 20
36.05836683686601
 30
0.0
  0
VERTEX
  5
1EC
  8
LAYER_1
 10
-112.1773648916869
 20
36.06927844191051
 30
0.0
  0
VERTEX
  5
1ED
  8
LAYER_1
 10
-112.1814947838193
 20
38.83343439094432
 30
0.0
  0
VERTEX
  5
1EE
  8
LAYER_1
 10
-109.9629484986949
 20
37.41967756307139
 30
0.0
  0
VERTEX
  5
1EF
  8
LAYER_1
 10
-108.6869706717885
 20
39.8779565835784
 30
0.0
  0
SEQEND
  5
1F0
  8
LAYER_1
  0
POLYLINE
  5
50
  8
LAYER_1
 66
     1
 10
0.0
 20
0.0
 30
0.0
 70
     1
  0
VERTEX
  5
1F1
  8
LAYER_1
 10
110.0225382695999
 20
37.41967756307139
 30
0.0
  0
VERTEX
  5
1F2
  8
LAYER_1
 10
112.2410845547238
 20
38.83343439094432
 30
0.0
  0
VERTEX
  5
1F3
  8
LAYER_1
 10
112.2369546625914
 20
36.06927844191051
 30
0.0
  0
VERTEX
  5
1F4
  8
LAYER_1
 10
114.8305269217385
 20
36.05836683686601
 30
0.0
  0
VERTEX
  5
1F5
  8
LAYER_1
 10
113.5299285840429
 20
33.57210482922613
 30
0.0
  0
VERTEX
  5
1F6
  8
LAYER_1
 10
115.6858911191603
 20
32.18105117959084
 30
0.0
  0
VERTEX
  5
1F7
  8
LAYER_1
 10
113.4643268359396
 20
30.77239816698096
 30
0.0
  0
VERTEX
  5
1F8
  8
LAYER_1
 10
114.7356982446986
 20
28.31130324839393
 30
0.0
  0
VERTEX
  5
1F9
  8
LAYER_1
 10
112.1025743262835
 20
28.32221485344058
 30
0.0
  0
VERTEX
  5
1FA
  8
LAYER_1
 10
112.0981267501406
 20
25.53042790453429
 30
0.0
  0
VERTEX
  5
1FB
  8
LAYER_1
 10
109.9207205443354
 20
26.93556104455007
 30
0.0
  0
VERTEX
  5
1FC
  8
LAYER_1
 10
108.6002669560035
 20
24.41110841925087
 30
0.0
  0
VERTEX
  5
1FD
  8
LAYER_1
 10
107.324447971102
 20
26.86938743976015
 30
0.0
  0
VERTEX
  5
1FE
  8
LAYER_1
 10
105.1055840019676
 20
25.45563061188506
 30
0.0
  0
VERTEX
  5
1FF
  8
LAYER_1
 10
105.1098727361054
 20
28.21978656091886
 30
0.0
  0
VERTEX
  5
200
  8
LAYER_1
 10
102.5164593189634
 20
28.23069816596336
 30
0.0
  0
VERTEX
  5
201
  8
LAYER_1
 10
103.816898814654
 20
30.71678417997526
 30
0.0
  0
VERTEX
  5
202
  8
LAYER_1
 10
101.6610951215416
 20
32.10818981686879
 30
0.0
  0
VERTEX
  5
203
  8
LAYER_1
 10
103.8823417207523
 20
33.51666683585057
 30
0.0
  0
VERTEX
  5
204
  8
LAYER_1
 10
102.6111291539983
 20
35.97793774806331
 30
0.0
  0
VERTEX
  5
205
  8
LAYER_1
 10
105.2444119144184
 20
35.96685014938868
 30
0.0
  0
VERTEX
  5
206
  8
LAYER_1
 10
105.2485418065507
 20
38.75881309192522
 30
0.0
  0
VERTEX
  5
207
  8
LAYER_1
 10
107.426106854361
 20
37.35385594553958
 30
0.0
  0
VERTEX
  5
208
  8
LAYER_1
 10
108.7465604426934
 20
39.8779565835784
 30
0.0
  0
SEQEND
  5
209
  8
LAYER_1
  0
POLYLINE
  5
51
  8
LAYER_1
 66
     1
 10
0.0
 20
0.0
 30
0.0
 70
     1
  0
VERTEX
  5
20A
  8
LAYER_1
 10
30.57262647852531
 20
37.41985355670153
 30
0.0
  0
VERTEX
  5
20B
  8
LAYER_1
 10
32.79133160565425
 20
38.83361038457434
 30
0.0
  0
VERTEX
  5
20C
  8
LAYER_1
 10
32.78720171352188
 20
36.06927844191051
 30
0.0
  0
VERTEX
  5
20D
  8
LAYER_1
 10
35.38077397266898
 20
36.05854283049399
 30
0.0
  0
VERTEX
  5
20E
  8
LAYER_1
 10
34.08017563497333
 20
33.57228082285627
 30
0.0
  0
VERTEX
  5
20F
  8
LAYER_1
 10
36.23597932808616
 20
32.1812271732187
 30
0.0
  0
VERTEX
  5
210
  8
LAYER_1
 10
34.01457388687004
 20
30.77257416060894
 30
0.0
  0
VERTEX
  5
211
  8
LAYER_1
 10
35.28594529562906
 20
28.31147924202406
 30
0.0
  0
VERTEX
  5
212
  8
LAYER_1
 10
32.65282137721397
 20
28.32239084707072
 30
0.0
  0
VERTEX
  5
213
  8
LAYER_1
 10
32.64837380107156
 20
25.53060389816227
 30
0.0
  0
VERTEX
  5
214
  8
LAYER_1
 10
30.4709675952663
 20
26.93573703817805
 30
0.0
  0
VERTEX
  5
215
  8
LAYER_1
 10
29.15051400693392
 20
24.41128441288112
 30
0.0
  0
VERTEX
  5
216
  8
LAYER_1
 10
27.87453618002746
 20
26.86956343339028
 30
0.0
  0
VERTEX
  5
217
  8
LAYER_1
 10
25.65567221089304
 20
25.45580660551531
 30
0.0
  0
VERTEX
  5
218
  8
LAYER_1
 10
25.66011978703591
 20
28.21996255454889
 30
0.0
  0
VERTEX
  5
219
  8
LAYER_1
 10
23.06654752788882
 20
28.23087415959566
 30
0.0
  0
VERTEX
  5
21A
  8
LAYER_1
 10
24.36714586558446
 20
30.71713616723349
 30
0.0
  0
VERTEX
  5
21B
  8
LAYER_1
 10
22.21134217247209
 20
32.10836581049892
 30
0.0
  0
VERTEX
  5
21C
  8
LAYER_1
 10
24.43242992967771
 20
33.51684282948071
 30
0.0
  0
VERTEX
  5
21D
  8
LAYER_1
 10
23.16137620492873
 20
35.97811374169572
 30
0.0
  0
VERTEX
  5
21E
  8
LAYER_1
 10
25.79450012334382
 20
35.96702614302097
 30
0.0
  0
VERTEX
  5
21F
  8
LAYER_1
 10
25.79863001547619
 20
38.75898908555536
 30
0.0
  0
VERTEX
  5
220
  8
LAYER_1
 10
27.97635390529149
 20
37.35385594553958
 30
0.0
  0
VERTEX
  5
221
  8
LAYER_1
 10
29.29664865161885
 20
39.8779565835784
 30
0.0
  0
SEQEND
  5
222
  8
LAYER_1
  0
POLYLINE
  5
52
  8
LAYER_1
 66
     1
 10
0.0
 20
0.0
 30
0.0
 70
     1
  0
VERTEX
  5
223
  8
LAYER_1
 10
152.9524493018844
 20
42.653552118547
 30
0.0
  0
VERTEX
  5
224
  8
LAYER_1
 10
154.2800507804459
 20
40.13402731488299
 30
0.0
  0
VERTEX
  5
225
  8
LAYER_1
 10
151.7207883943984
 20
40.12029981175846
 30
0.0
  0
VERTEX
  5
226
  8
LAYER_1
 10
151.7331780707959
 20
37.28433846178353
 30
0.0
  0
VERTEX
  5
227
  8
LAYER_1
 10
149.5664142793316
 20
38.65480085673647
 30
0.0
  0
VERTEX
  5
228
  8
LAYER_1
 10
148.2758229879569
 20
36.16237907205476
 30
0.0
  0
VERTEX
  5
229
  8
LAYER_1
 10
146.9682356020371
 20
38.64406524532211
 30
0.0
  0
VERTEX
  5
22A
  8
LAYER_1
 10
144.8111611728837
 20
37.255299512872
 30
0.0
  0
VERTEX
  5
22B
  8
LAYER_1
 10
144.8041721246595
 20
40.09090887558881
 30
0.0
  0
VERTEX
  5
22C
  8
LAYER_1
 10
142.2444332125974
 20
40.08316515588234
 30
0.0
  0
VERTEX
  5
22D
  8
LAYER_1
 10
143.5548797546089
 20
42.61377755822099
 30
0.0
  0
VERTEX
  5
22E
  8
LAYER_1
 10
141.3666722924572
 20
43.99814344992416
 30
0.0
  0
VERTEX
  5
22F
  8
LAYER_1
 10
155.0412216688478
 20
43.99814344992416
 30
0.0
  0
SEQEND
  5
230
  8
LAYER_1
  0
POLYLINE
  5
53
  8
LAYER_1
 66
     1
 10
0.0
 20
0.0
 30
0.0
 70
     1
  0
VERTEX
  5
231
  8
LAYER_1
 10
73.42788176841623
 20
42.653552118547
 30
0.0
  0
VERTEX
  5
232
  8
LAYER_1
 10
74.75532440497273
 20
40.13402731488299
 30
0.0
  0
VERTEX
  5
233
  8
LAYER_1
 10
72.19606201892566
 20
40.12029981175846
 30
0.0
  0
VERTEX
  5
234
  8
LAYER_1
 10
72.20845169532276
 20
37.28433846178353
 30
0.0
  0
VERTEX
  5
235
  8
LAYER_1
 10
70.04168790385893
 20
38.65480085673647
 30
0.0
  0
VERTEX
  5
236
  8
LAYER_1
 10
68.75109661248416
 20
36.16237907205476
 30
0.0
  0
VERTEX
  5
237
  8
LAYER_1
 10
67.44350922656395
 20
38.64406524532211
 30
0.0
  0
VERTEX
  5
238
  8
LAYER_1
 10
65.2864347974105
 20
37.255299512872
 30
0.0
  0
VERTEX
  5
239
  8
LAYER_1
 10
65.27944574918683
 20
40.09090887558881
 30
0.0
  0
VERTEX
  5
23A
  8
LAYER_1
 10
62.71986567912973
 20
40.08316515588234
 30
0.0
  0
VERTEX
  5
23B
  8
LAYER_1
 10
64.03031222114078
 20
42.61377755822099
 30
0.0
  0
VERTEX
  5
23C
  8
LAYER_1
 10
61.84194591698451
 20
43.99814344992416
 30
0.0
  0
VERTEX
  5
23D
  8
LAYER_1
 10
75.51665413538012
 20
43.99814344992416
 30
0.0
  0
SEQEND
  5
23E
  8
LAYER_1
  0
POLYLINE
  5
54
  8
LAYER_1
 66
     1
 10
0.0
 20
0.0
 30
0.0
 70
     1
  0
VERTEX
  5
23F
  8
LAYER_1
 10
-5.871558773642391
 20
42.57189107433777
 30
0.0
  0
VERTEX
  5
240
  8
LAYER_1
 10
-4.590815686583028
 20
40.1166039455365
 30
0.0
  0
VERTEX
  5
241
  8
LAYER_1
 10
-7.085588218562862
 20
40.11537199012554
 30
0.0
  0
VERTEX
  5
242
  8
LAYER_1
 10
-7.08971811069523
 20
37.24139601612177
 30
0.0
  0
VERTEX
  5
243
  8
LAYER_1
 10
-9.336379430720626
 20
38.67715204771599
 30
0.0
  0
VERTEX
  5
244
  8
LAYER_1
 10
-10.58726022082237
 20
36.2853986192568
 30
0.0
  0
VERTEX
  5
245
  8
LAYER_1
 10
-11.86339688973385
 20
38.74350164613605
 30
0.0
  0
VERTEX
  5
246
  8
LAYER_1
 10
-14.08194317485822
 20
37.32956882463299
 30
0.0
  0
VERTEX
  5
247
  8
LAYER_1
 10
-14.07781328272586
 20
40.2471912188193
 30
0.0
  0
VERTEX
  5
248
  8
LAYER_1
 10
-16.59768285150994
 20
40.24560727615022
 30
0.0
  0
VERTEX
  5
249
  8
LAYER_1
 10
-15.33441238501064
 20
42.66129583825779
 30
0.0
  0
VERTEX
  5
24A
  8
LAYER_1
 10
-17.42699696009686
 20
43.99831944355429
 30
0.0
  0
VERTEX
  5
24B
  8
LAYER_1
 10
-3.655871644610215
 20
43.99831944355429
 30
0.0
  0
SEQEND
  5
24C
  8
LAYER_1
  0
POLYLINE
  5
55
  8
LAYER_1
 66
     1
 10
0.0
 20
0.0
 30
0.0
 70
     1
  0
VERTEX
  5
24D
  8
LAYER_1
 10
-85.32131172271193
 20
42.57171508070763
 30
0.0
  0
VERTEX
  5
24E
  8
LAYER_1
 10
-84.04056863565302
 20
40.1166039455365
 30
0.0
  0
VERTEX
  5
24F
  8
LAYER_1
 10
-86.53550000963742
 20
40.11519599649756
 30
0.0
  0
VERTEX
  5
250
  8
LAYER_1
 10
-86.53962990176979
 20
37.24122002249152
 30
0.0
  0
VERTEX
  5
251
  8
LAYER_1
 10
-88.78629122179518
 20
38.67697605408574
 30
0.0
  0
VERTEX
  5
252
  8
LAYER_1
 10
-90.0370131698919
 20
36.28522262562677
 30
0.0
  0
VERTEX
  5
253
  8
LAYER_1
 10
-91.31314983880338
 20
38.7433256525058
 30
0.0
  0
VERTEX
  5
254
  8
LAYER_1
 10
-93.53185496593278
 20
37.32939283100285
 30
0.0
  0
VERTEX
  5
255
  8
LAYER_1
 10
-93.52772507380041
 20
40.247015225187
 30
0.0
  0
VERTEX
  5
256
  8
LAYER_1
 10
-96.04743580057948
 20
40.24543128251997
 30
0.0
  0
VERTEX
  5
257
  8
LAYER_1
 10
-94.78416533408017
 20
42.66129583825779
 30
0.0
  0
VERTEX
  5
258
  8
LAYER_1
 10
-96.87674990916639
 20
43.99814344992416
 30
0.0
  0
VERTEX
  5
259
  8
LAYER_1
 10
-83.1056245936793
 20
43.99814344992416
 30
0.0
  0
SEQEND
  5
25A
  8
LAYER_1
  0
POLYLINE
  5
56
  8
LAYER_1
 66
     1
 10
0.0
 20
0.0
 30
0.0
 70
     1
  0
VERTEX
  5
25B
  8
LAYER_1
 10
1.231013613866253
 20
28.85969939873081
 30
0.0
  0
VERTEX
  5
25C
  8
LAYER_1
 10
3.543276681994939
 20
30.3595171115598
 30
0.0
  0
VERTEX
  5
25D
  8
LAYER_1
 10
3.554554464356443
 20
22.53783222407077
 30
0.0
  0
VERTEX
  5
25E
  8
LAYER_1
 10
0.0678136105752856
 20
15.82244329326119
 30
0.0
  0
VERTEX
  5
25F
  8
LAYER_1
 10
0.0297948854522474
 20
15.8946661847105
 30
0.0
  0
VERTEX
  5
260
  8
LAYER_1
 10
-0.008223839670336
 20
15.82244329326119
 30
0.0
  0
VERTEX
  5
261
  8
LAYER_1
 10
-3.494964693451493
 20
22.53783222407077
 30
0.0
  0
VERTEX
  5
262
  8
LAYER_1
 10
-3.48368691108999
 20
30.3595171115598
 30
0.0
  0
VERTEX
  5
263
  8
LAYER_1
 10
-1.171423842961303
 20
28.85969939873081
 30
0.0
  0
VERTEX
  5
264
  8
LAYER_1
 10
0.0133786730220891
 20
31.04202040777346
 30
0.0
  0
VERTEX
  5
265
  8
LAYER_1
 10
0.0297948854522474
 20
31.01358353733968
 30
0.0
  0
VERTEX
  5
266
  8
LAYER_1
 10
0.0462110978828605
 20
31.04202040777346
 30
0.0
  0
SEQEND
  5
267
  8
LAYER_1
  0
POLYLINE
  5
57
  8
LAYER_1
 66
     1
 10
0.0
 20
0.0
 30
0.0
 70
     1
  0
VERTEX
  5
268
  8
LAYER_1
 10
151.7924261386952
 20
32.65517801816674
 30
0.0
  0
VERTEX
  5
269
  8
LAYER_1
 10
151.8049746570978
 20
29.77345832445206
 30
0.0
  0
VERTEX
  5
26A
  8
LAYER_1
 10
150.4363919412222
 20
32.42973017844275
 30
0.0
  0
VERTEX
  5
26B
  8
LAYER_1
 10
150.8608177788292
 20
33.26218004721505
 30
0.0
  0
SEQEND
  5
26C
  8
LAYER_1
  0
POLYLINE
  5
58
  8
LAYER_1
 66
     1
 10
0.0
 20
0.0
 30
0.0
 70
     1
  0
VERTEX
  5
26D
  8
LAYER_1
 10
-150.3768021703177
 20
32.42973017844275
 30
0.0
  0
VERTEX
  5
26E
  8
LAYER_1
 10
-151.7453848861928
 20
29.77345832445206
 30
0.0
  0
VERTEX
  5
26F
  8
LAYER_1
 10
-151.7328363677902
 20
32.65517801816674
 30
0.0
  0
VERTEX
  5
270
  8
LAYER_1
 10
-150.8012280079242
 20
33.26218004721505
 30
0.0
  0
SEQEND
  5
271
  8
LAYER_1
  0
POLYLINE
  5
59
  8
LAYER_1
 66
     1
 10
0.0
 20
0.0
 30
0.0
 70
     1
  0
VERTEX
  5
272
  8
LAYER_1
 10
72.26769976322248
 20
32.65517801816674
 30
0.0
  0
VERTEX
  5
273
  8
LAYER_1
 10
72.28040712362963
 20
29.7732823308242
 30
0.0
  0
VERTEX
  5
274
  8
LAYER_1
 10
70.91182440775447
 20
32.42973017844275
 30
0.0
  0
VERTEX
  5
275
  8
LAYER_1
 10
71.33625024536104
 20
33.26218004721505
 30
0.0
  0
SEQEND
  5
276
  8
LAYER_1
  0
POLYLINE
  5
5A
  8
LAYER_1
 66
     1
 10
0.0
 20
0.0
 30
0.0
 70
     1
  0
VERTEX
  5
277
  8
LAYER_1
 10
-70.85223463684952
 20
32.42973017844275
 30
0.0
  0
VERTEX
  5
278
  8
LAYER_1
 10
-72.22081735272468
 20
29.7732823308242
 30
0.0
  0
VERTEX
  5
279
  8
LAYER_1
 10
-72.20810999231753
 20
32.65517801816674
 30
0.0
  0
VERTEX
  5
27A
  8
LAYER_1
 10
-71.2766604744561
 20
33.26218004721505
 30
0.0
  0
SEQEND
  5
27B
  8
LAYER_1
  0
POLYLINE
  5
5B
  8
LAYER_1
 66
     1
 10
0.0
 20
0.0
 30
0.0
 70
     1
  0
VERTEX
  5
27C
  8
LAYER_1
 10
8.597470442026406
 20
32.25092065060488
 30
0.0
  0
VERTEX
  5
27D
  8
LAYER_1
 10
7.300366628443044
 20
29.75304306339984
 30
0.0
  0
VERTEX
  5
27E
  8
LAYER_1
 10
7.32292219316605
 20
32.81146036139711
 30
0.0
  0
VERTEX
  5
27F
  8
LAYER_1
 10
8.067573513038496
 20
33.2943868814603
 30
0.0
  0
SEQEND
  5
280
  8
LAYER_1
  0
POLYLINE
  5
5C
  8
LAYER_1
 66
     1
 10
0.0
 20
0.0
 30
0.0
 70
     1
  0
VERTEX
  5
281
  8
LAYER_1
 10
-7.263332422261101
 20
32.81146036139711
 30
0.0
  0
VERTEX
  5
282
  8
LAYER_1
 10
-7.240776857538094
 20
29.75304306339984
 30
0.0
  0
VERTEX
  5
283
  8
LAYER_1
 10
-8.537880671121457
 20
32.25092065060488
 30
0.0
  0
VERTEX
  5
284
  8
LAYER_1
 10
-8.007983742134002
 20
33.2943868814603
 30
0.0
  0
SEQEND
  5
285
  8
LAYER_1
  0
POLYLINE
  5
5D
  8
LAYER_1
 66
     1
 10
0.0
 20
0.0
 30
0.0
 70
     1
  0
VERTEX
  5
286
  8
LAYER_1
 10
88.04722339109594
 20
32.25092065060488
 30
0.0
  0
VERTEX
  5
287
  8
LAYER_1
 10
86.75011957751212
 20
29.75286706977187
 30
0.0
  0
VERTEX
  5
288
  8
LAYER_1
 10
86.7728339842406
 20
32.81128436776481
 30
0.0
  0
VERTEX
  5
289
  8
LAYER_1
 10
87.51748530411305
 20
33.29421088783232
 30
0.0
  0
SEQEND
  5
28A
  8
LAYER_1
  0
POLYLINE
  5
5E
  8
LAYER_1
 66
     1
 10
0.0
 20
0.0
 30
0.0
 70
     1
  0
VERTEX
  5
28B
  8
LAYER_1
 10
-86.71324421333566
 20
32.81128436776481
 30
0.0
  0
VERTEX
  5
28C
  8
LAYER_1
 10
-86.69052980660763
 20
29.75286706977187
 30
0.0
  0
VERTEX
  5
28D
  8
LAYER_1
 10
-87.98763362019099
 20
32.25092065060488
 30
0.0
  0
VERTEX
  5
28E
  8
LAYER_1
 10
-87.45789553320856
 20
33.29421088783232
 30
0.0
  0
SEQEND
  5
28F
  8
LAYER_1
  0
POLYLINE
  5
5F
  8
LAYER_1
 66
     1
 10
0.0
 20
0.0
 30
0.0
 70
     1
  0
VERTEX
  5
290
  8
LAYER_1
 10
-78.25792544026763
 20
28.85547555161844
 30
0.0
  0
VERTEX
  5
291
  8
LAYER_1
 10
-75.94137363800155
 20
30.34737355110434
 30
0.0
  0
VERTEX
  5
292
  8
LAYER_1
 10
-75.95217489434799
 20
22.67862712787763
 30
0.0
  0
VERTEX
  5
293
  8
LAYER_1
 10
-79.45797678873987
 20
15.82226729963105
 30
0.0
  0
VERTEX
  5
294
  8
LAYER_1
 10
-82.94471764252103
 20
22.53765623044075
 30
0.0
  0
VERTEX
  5
295
  8
LAYER_1
 10
-82.93343986015952
 20
30.3595171115598
 30
0.0
  0
VERTEX
  5
296
  8
LAYER_1
 10
-80.62117679203084
 20
28.85952340510283
 30
0.0
  0
VERTEX
  5
297
  8
LAYER_1
 10
-79.43637427604745
 20
31.04184441414549
 30
0.0
  0
SEQEND
  5
298
  8
LAYER_1
  0
POLYLINE
  5
60
  8
LAYER_1
 66
     1
 10
0.0
 20
0.0
 30
0.0
 70
     1
  0
VERTEX
  5
299
  8
LAYER_1
 10
159.0
 20
15.90497660619889
 30
0.0
  0
VERTEX
  5
29A
  8
LAYER_1
 10
155.5363321987206
 20
22.67862712787763
 30
0.0
  0
VERTEX
  5
29B
  8
LAYER_1
 10
155.5255309423742
 20
30.34737355110434
 30
0.0
  0
VERTEX
  5
29C
  8
LAYER_1
 10
157.8420827446403
 20
28.85547555161844
 30
0.0
  0
VERTEX
  5
29D
  8
LAYER_1
 10
159.0
 20
31.003462774355
 30
0.0
  0
SEQEND
  5
29E
  8
LAYER_1
  0
POLYLINE
  5
61
  8
LAYER_1
 66
     1
 10
0.0
 20
0.0
 30
0.0
 70
     1
  0
VERTEX
  5
29F
  8
LAYER_1
 10
80.68076656293579
 20
28.85952340510283
 30
0.0
  0
VERTEX
  5
2A0
  8
LAYER_1
 10
82.99302963106402
 20
30.3595171115598
 30
0.0
  0
VERTEX
  5
2A1
  8
LAYER_1
 10
83.00430741342598
 20
22.53765623044075
 30
0.0
  0
VERTEX
  5
2A2
  8
LAYER_1
 10
79.51756655964482
 20
15.82226729963105
 30
0.0
  0
VERTEX
  5
2A3
  8
LAYER_1
 10
76.01176466525294
 20
22.67862712787763
 30
0.0
  0
VERTEX
  5
2A4
  8
LAYER_1
 10
76.0009634089065
 20
30.34737355110434
 30
0.0
  0
VERTEX
  5
2A5
  8
LAYER_1
 10
78.31751521117258
 20
28.85547555161844
 30
0.0
  0
VERTEX
  5
2A6
  8
LAYER_1
 10
79.4959640469524
 20
31.04184441414549
 30
0.0
  0
SEQEND
  5
2A7
  8
LAYER_1
  0
POLYLINE
  5
62
  8
LAYER_1
 66
     1
 10
0.0
 20
0.0
 30
0.0
 70
     1
  0
VERTEX
  5
2A8
  8
LAYER_1
 10
151.8413494762635
 20
21.44966361125427
 30
0.0
  0
VERTEX
  5
2A9
  8
LAYER_1
 10
151.8753416653535
 20
13.70260002278422
 30
0.0
  0
VERTEX
  5
2AA
  8
LAYER_1
 10
145.7332390124448
 20
17.67583220827947
 30
0.0
  0
VERTEX
  5
2AB
  8
LAYER_1
 10
142.2436390025719
 20
24.29864848983306
 30
0.0
  0
VERTEX
  5
2AC
  8
LAYER_1
 10
144.9233036284791
 20
24.29970445161172
 30
0.0
  0
VERTEX
  5
2AD
  8
LAYER_1
 10
144.9496714013244
 20
26.84615628063005
 30
0.0
  0
VERTEX
  5
2AE
  8
LAYER_1
 10
146.9641057099047
 20
25.61983266845215
 30
0.0
  0
VERTEX
  5
2AF
  8
LAYER_1
 10
148.2821766681609
 20
28.20465110875961
 30
0.0
  0
SEQEND
  5
2B0
  8
LAYER_1
  0
POLYLINE
  5
63
  8
LAYER_1
 66
     1
 10
0.0
 20
0.0
 30
0.0
 70
     1
  0
VERTEX
  5
2B1
  8
LAYER_1
 10
72.31678194279584
 20
21.44966361125427
 30
0.0
  0
VERTEX
  5
2B2
  8
LAYER_1
 10
72.35077413188537
 20
13.70260002278422
 30
0.0
  0
VERTEX
  5
2B3
  8
LAYER_1
 10
66.20867147897661
 20
17.67583220827947
 30
0.0
  0
VERTEX
  5
2B4
  8
LAYER_1
 10
62.71891262709914
 20
24.29864848983306
 30
0.0
  0
VERTEX
  5
2B5
  8
LAYER_1
 10
65.3985772530059
 20
24.29970445161172
 30
0.0
  0
VERTEX
  5
2B6
  8
LAYER_1
 10
65.42494502585123
 20
26.84633227426235
 30
0.0
  0
VERTEX
  5
2B7
  8
LAYER_1
 10
67.43937933443158
 20
25.61965667482417
 30
0.0
  0
VERTEX
  5
2B8
  8
LAYER_1
 10
68.75745029268774
 20
28.20465110875961
 30
0.0
  0
SEQEND
  5
2B9
  8
LAYER_1
  0
POLYLINE
  5
64
  8
LAYER_1
 66
     1
 10
0.0
 20
0.0
 30
0.0
 70
     1
  0
VERTEX
  5
2BA
  8
LAYER_1
 10
-7.246336327716108
 20
21.54135629235947
 30
0.0
  0
VERTEX
  5
2BB
  8
LAYER_1
 10
-7.1653269051194
 20
13.66159350704953
 30
0.0
  0
VERTEX
  5
2BC
  8
LAYER_1
 10
-13.22673781944104
 20
17.52394970579581
 30
0.0
  0
VERTEX
  5
2BD
  8
LAYER_1
 10
-16.76684958693295
 20
24.29143275101495
 30
0.0
  0
VERTEX
  5
2BE
  8
LAYER_1
 10
-14.0871849610262
 20
24.28298505678566
 30
0.0
  0
VERTEX
  5
2BF
  8
LAYER_1
 10
-14.05366929795173
 20
26.82943688580184
 30
0.0
  0
VERTEX
  5
2C0
  8
LAYER_1
 10
-12.04272951348321
 20
25.59607352843597
 30
0.0
  0
VERTEX
  5
2C1
  8
LAYER_1
 10
-10.71719298098787
 20
28.17631613436873
 30
0.0
  0
SEQEND
  5
2C2
  8
LAYER_1
  0
POLYLINE
  5
65
  8
LAYER_1
 66
     1
 10
0.0
 20
0.0
 30
0.0
 70
     1
  0
VERTEX
  5
2C3
  8
LAYER_1
 10
-86.69624811879066
 20
21.54118029872933
 30
0.0
  0
VERTEX
  5
2C4
  8
LAYER_1
 10
-86.61507985418848
 20
13.66159350704953
 30
0.0
  0
VERTEX
  5
2C5
  8
LAYER_1
 10
-92.67649076851058
 20
17.52377371216579
 30
0.0
  0
VERTEX
  5
2C6
  8
LAYER_1
 10
-96.21660253600248
 20
24.29125675738254
 30
0.0
  0
VERTEX
  5
2C7
  8
LAYER_1
 10
-93.53709675210075
 20
24.28280906315564
 30
0.0
  0
VERTEX
  5
2C8
  8
LAYER_1
 10
-93.50342224702126
 20
26.82926089217398
 30
0.0
  0
VERTEX
  5
2C9
  8
LAYER_1
 10
-91.49248246255274
 20
25.59589753480583
 30
0.0
  0
VERTEX
  5
2CA
  8
LAYER_1
 10
-90.16694593005741
 20
28.17614014073848
 30
0.0
  0
SEQEND
  5
2CB
  8
LAYER_1
  0
POLYLINE
  5
66
  8
LAYER_1
 66
     1
 10
0.0
 20
0.0
 30
0.0
 70
     1
  0
VERTEX
  5
2CC
  8
LAYER_1
 10
138.0438563879316
 20
24.29319268731189
 30
0.0
  0
VERTEX
  5
2CD
  8
LAYER_1
 10
139.3549382979636
 20
21.80411478159402
 30
0.0
  0
VERTEX
  5
2CE
  8
LAYER_1
 10
136.9711963275436
 20
23.3466989464527
 30
0.0
  0
VERTEX
  5
2CF
  8
LAYER_1
 10
136.9634130692939
 20
24.3028723369477
 30
0.0
  0
SEQEND
  5
2D0
  8
LAYER_1
  0
POLYLINE
  5
67
  8
LAYER_1
 66
     1
 10
0.0
 20
0.0
 30
0.0
 70
     1
  0
VERTEX
  5
2D1
  8
LAYER_1
 10
58.51928885446387
 20
24.29319268731189
 30
0.0
  0
VERTEX
  5
2D2
  8
LAYER_1
 10
59.83021192249043
 20
21.80411478159402
 30
0.0
  0
VERTEX
  5
2D3
  8
LAYER_1
 10
57.44662879407542
 20
23.3466989464527
 30
0.0
  0
VERTEX
  5
2D4
  8
LAYER_1
 10
57.43868669382073
 20
24.3028723369477
 30
0.0
  0
SEQEND
  5
2D5
  8
LAYER_1
  0
POLYLINE
  5
68
  8
LAYER_1
 66
     1
 10
0.0
 20
0.0
 30
0.0
 70
     1
  0
VERTEX
  5
2D6
  8
LAYER_1
 10
-57.38703902317047
 20
23.3466989464527
 30
0.0
  0
VERTEX
  5
2D7
  8
LAYER_1
 10
-59.77062215158548
 20
21.80411478159402
 30
0.0
  0
VERTEX
  5
2D8
  8
LAYER_1
 10
-58.45969908355892
 20
24.29319268731189
 30
0.0
  0
VERTEX
  5
2D9
  8
LAYER_1
 10
-57.37909692291578
 20
24.3028723369477
 30
0.0
  0
SEQEND
  5
2DA
  8
LAYER_1
  0
POLYLINE
  5
69
  8
LAYER_1
 66
     1
 10
0.0
 20
0.0
 30
0.0
 70
     1
  0
VERTEX
  5
2DB
  8
LAYER_1
 10
-136.9116065566386
 20
23.3466989464527
 30
0.0
  0
VERTEX
  5
2DC
  8
LAYER_1
 10
-139.2953485270586
 20
21.80411478159402
 30
0.0
  0
VERTEX
  5
2DD
  8
LAYER_1
 10
-137.9842666170271
 20
24.29319268731189
 30
0.0
  0
VERTEX
  5
2DE
  8
LAYER_1
 10
-136.9038232983889
 20
24.3028723369477
 30
0.0
  0
SEQEND
  5
2DF
  8
LAYER_1
  0
POLYLINE
  5
6A
  8
LAYER_1
 66
     1
 10
0.0
 20
0.0
 30
0.0
 70
     1
  0
VERTEX
  5
2E0
  8
LAYER_1
 10
22.05329437740511
 20
23.11033950168422
 30
0.0
  0
VERTEX
  5
2E1
  8
LAYER_1
 10
19.79853211512
 20
21.67370350193931
 30
0.0
  0
VERTEX
  5
2E2
  8
LAYER_1
 10
21.20603112224262
 20
24.30480826687477
 30
0.0
  0
VERTEX
  5
2E3
  8
LAYER_1
 10
22.06901973590902
 20
24.30762416495048
 30
0.0
  0
SEQEND
  5
2E4
  8
LAYER_1
  0
POLYLINE
  5
6B
  8
LAYER_1
 66
     1
 10
0.0
 20
0.0
 30
0.0
 70
     1
  0
VERTEX
  5
2E5
  8
LAYER_1
 10
-21.14644135133767
 20
24.30480826687477
 30
0.0
  0
VERTEX
  5
2E6
  8
LAYER_1
 10
-19.73894234421505
 20
21.67370350193931
 30
0.0
  0
VERTEX
  5
2E7
  8
LAYER_1
 10
-21.99370460650016
 20
23.11033950168422
 30
0.0
  0
VERTEX
  5
2E8
  8
LAYER_1
 10
-22.00942996500453
 20
24.30762416495048
 30
0.0
  0
SEQEND
  5
2E9
  8
LAYER_1
  0
POLYLINE
  5
6C
  8
LAYER_1
 66
     1
 10
0.0
 20
0.0
 30
0.0
 70
     1
  0
VERTEX
  5
2EA
  8
LAYER_1
 10
101.5032061684797
 20
23.11016350805409
 30
0.0
  0
VERTEX
  5
2EB
  8
LAYER_1
 10
99.24844390619455
 20
21.67352750831122
 30
0.0
  0
VERTEX
  5
2EC
  8
LAYER_1
 10
100.6559429133172
 20
24.30480826687477
 30
0.0
  0
VERTEX
  5
2ED
  8
LAYER_1
 10
101.5187726849786
 20
24.30744817132239
 30
0.0
  0
SEQEND
  5
2EE
  8
LAYER_1
  0
POLYLINE
  5
6D
  8
LAYER_1
 66
     1
 10
0.0
 20
0.0
 30
0.0
 70
     1
  0
VERTEX
  5
2EF
  8
LAYER_1
 10
-100.5963531424127
 20
24.30480826687477
 30
0.0
  0
VERTEX
  5
2F0
  8
LAYER_1
 10
-99.1888541352896
 20
21.67352750831122
 30
0.0
  0
VERTEX
  5
2F1
  8
LAYER_1
 10
-101.4436163975747
 20
23.11016350805409
 30
0.0
  0
VERTEX
  5
2F2
  8
LAYER_1
 10
-101.4591829140736
 20
24.30744817132239
 30
0.0
  0
SEQEND
  5
2F3
  8
LAYER_1
  0
POLYLINE
  5
6E
  8
LAYER_1
 66
     1
 10
0.0
 20
0.0
 30
0.0
 70
     1
  0
VERTEX
  5
2F4
  8
LAYER_1
 10
120.6015746507519
 20
16.79991191295488
 30
0.0
  0
VERTEX
  5
2F5
  8
LAYER_1
 10
122.884134263928
 20
18.25467525656467
 30
0.0
  0
VERTEX
  5
2F6
  8
LAYER_1
 10
122.8801632138006
 20
15.41888990021772
 30
0.0
  0
VERTEX
  5
2F7
  8
LAYER_1
 10
125.4394255998477
 20
15.41449005947294
 30
0.0
  0
VERTEX
  5
2F8
  8
LAYER_1
 10
124.1888624937565
 20
13.02291262464411
 30
0.0
  0
VERTEX
  5
2F9
  8
LAYER_1
 10
126.4301231856084
 20
11.57694896252593
 30
0.0
  0
VERTEX
  5
2FA
  8
LAYER_1
 10
124.1820322875374
 20
10.14383283537717
 30
0.0
  0
VERTEX
  5
2FB
  8
LAYER_1
 10
125.4216352952776
 20
7.745039661727844
 30
0.0
  0
VERTEX
  5
2FC
  8
LAYER_1
 10
122.86205522522
 20
7.755423285884206
 30
0.0
  0
VERTEX
  5
2FD
  8
LAYER_1
 10
122.8530012309297
 20
4.919637929537259
 30
0.0
  0
VERTEX
  5
2FE
  8
LAYER_1
 10
120.5772718239728
 20
6.387600795376841
 30
0.0
  0
VERTEX
  5
2FF
  8
LAYER_1
 10
119.3546649107775
 20
3.955192838445498
 30
0.0
  0
VERTEX
  5
300
  8
LAYER_1
 10
119.3171781975757
 20
4.072580589496226
 30
0.0
  0
VERTEX
  5
301
  8
LAYER_1
 10
118.1403177818465
 20
6.394816534199379
 30
0.0
  0
VERTEX
  5
302
  8
LAYER_1
 10
115.8579170106755
 20
4.940053190589595
 30
0.0
  0
VERTEX
  5
303
  8
LAYER_1
 10
115.8618880608028
 20
7.775838546936427
 30
0.0
  0
VERTEX
  5
304
  8
LAYER_1
 10
113.3024668327507
 20
7.780062394051072
 30
0.0
  0
VERTEX
  5
305
  8
LAYER_1
 10
114.5531887808474
 20
10.17199181614029
 30
0.0
  0
VERTEX
  5
306
  8
LAYER_1
 10
112.31176924699
 20
11.61777948462833
 30
0.0
  0
VERTEX
  5
307
  8
LAYER_1
 10
114.5598601450611
 20
13.05089561177925
 30
0.0
  0
VERTEX
  5
308
  8
LAYER_1
 10
113.3202571373208
 20
15.4496887854263
 30
0.0
  0
VERTEX
  5
309
  8
LAYER_1
 10
115.8796783653729
 20
15.43930516127006
 30
0.0
  0
VERTEX
  5
30A
  8
LAYER_1
 10
115.8890500436737
 20
18.27491452398903
 30
0.0
  0
VERTEX
  5
30B
  8
LAYER_1
 10
118.1647794506307
 20
16.80712765177515
 30
0.0
  0
VERTEX
  5
30C
  8
LAYER_1
 10
119.3171781975757
 20
19.07621352029236
 30
0.0
  0
SEQEND
  5
30D
  8
LAYER_1
  0
POLYLINE
  5
6F
  8
LAYER_1
 66
     1
 10
0.0
 20
0.0
 30
0.0
 70
     1
  0
VERTEX
  5
30E
  8
LAYER_1
 10
41.07700711728376
 20
16.79991191295488
 30
0.0
  0
VERTEX
  5
30F
  8
LAYER_1
 10
43.35940788845483
 20
18.25467525656467
 30
0.0
  0
VERTEX
  5
310
  8
LAYER_1
 10
43.35543683832748
 20
15.41888990021772
 30
0.0
  0
VERTEX
  5
311
  8
LAYER_1
 10
45.91485806638002
 20
15.41449005947294
 30
0.0
  0
VERTEX
  5
312
  8
LAYER_1
 10
44.6641361182833
 20
13.02291262464411
 30
0.0
  0
VERTEX
  5
313
  8
LAYER_1
 10
46.90555565214072
 20
11.57694896252593
 30
0.0
  0
VERTEX
  5
314
  8
LAYER_1
 10
44.65746475406922
 20
10.14383283537717
 30
0.0
  0
VERTEX
  5
315
  8
LAYER_1
 10
45.89706776180947
 20
7.745039661727844
 30
0.0
  0
VERTEX
  5
316
  8
LAYER_1
 10
43.33732884974734
 20
7.755423285884206
 30
0.0
  0
VERTEX
  5
317
  8
LAYER_1
 10
43.32827485545704
 20
4.919637929537259
 30
0.0
  0
VERTEX
  5
318
  8
LAYER_1
 10
41.05254544849959
 20
6.387600795376841
 30
0.0
  0
VERTEX
  5
319
  8
LAYER_1
 10
39.82993853530434
 20
4.072580589496226
 30
0.0
  0
VERTEX
  5
31A
  8
LAYER_1
 10
38.690564832777
 20
6.394992527829515
 30
0.0
  0
VERTEX
  5
31B
  8
LAYER_1
 10
36.40816406160593
 20
4.940229184219731
 30
0.0
  0
VERTEX
  5
31C
  8
LAYER_1
 10
36.41197626972826
 20
7.775838546936427
 30
0.0
  0
VERTEX
  5
31D
  8
LAYER_1
 10
33.85271388368119
 20
7.780238387681209
 30
0.0
  0
VERTEX
  5
31E
  8
LAYER_1
 10
35.10327698977289
 20
10.17199181614029
 30
0.0
  0
VERTEX
  5
31F
  8
LAYER_1
 10
32.86185745591547
 20
11.61795547825847
 30
0.0
  0
VERTEX
  5
320
  8
LAYER_1
 10
35.11010719599199
 20
13.05107160540723
 30
0.0
  0
VERTEX
  5
321
  8
LAYER_1
 10
33.87050418825129
 20
15.44986477905644
 30
0.0
  0
VERTEX
  5
322
  8
LAYER_1
 10
36.42976657429836
 20
15.43948115490019
 30
0.0
  0
VERTEX
  5
323
  8
LAYER_1
 10
36.43913825259915
 20
18.27509051761689
 30
0.0
  0
VERTEX
  5
324
  8
LAYER_1
 10
38.71486765955615
 20
16.80712765177515
 30
0.0
  0
VERTEX
  5
325
  8
LAYER_1
 10
39.82993853530434
 20
19.07638951392033
 30
0.0
  0
SEQEND
  5
326
  8
LAYER_1
  0
POLYLINE
  5
70
  8
LAYER_1
 66
     1
 10
0.0
 20
0.0
 30
0.0
 70
     1
  0
VERTEX
  5
327
  8
LAYER_1
 10
-38.65527788865165
 20
16.80712765177515
 30
0.0
  0
VERTEX
  5
328
  8
LAYER_1
 10
-36.3795484816942
 20
18.27509051761689
 30
0.0
  0
VERTEX
  5
329
  8
LAYER_1
 10
-36.37017680339386
 20
15.43948115490019
 30
0.0
  0
VERTEX
  5
32A
  8
LAYER_1
 10
-33.81091441734679
 20
15.44986477905644
 30
0.0
  0
VERTEX
  5
32B
  8
LAYER_1
 10
-35.05051742508704
 20
13.05107160540723
 30
0.0
  0
VERTEX
  5
32C
  8
LAYER_1
 10
-32.80226768501052
 20
11.61795547825847
 30
0.0
  0
VERTEX
  5
32D
  8
LAYER_1
 10
-35.04368721886794
 20
10.17199181614029
 30
0.0
  0
VERTEX
  5
32E
  8
LAYER_1
 10
-33.79312411277624
 20
7.780238387681209
 30
0.0
  0
VERTEX
  5
32F
  8
LAYER_1
 10
-36.35238649882331
 20
7.775838546936427
 30
0.0
  0
VERTEX
  5
330
  8
LAYER_1
 10
-36.34857429070098
 20
4.940229184219731
 30
0.0
  0
VERTEX
  5
331
  8
LAYER_1
 10
-38.6309750618725
 20
6.394992527829515
 30
0.0
  0
VERTEX
  5
332
  8
LAYER_1
 10
-39.77034876439939
 20
4.072580589496226
 30
0.0
  0
VERTEX
  5
333
  8
LAYER_1
 10
-40.99295567759464
 20
6.387600795376841
 30
0.0
  0
VERTEX
  5
334
  8
LAYER_1
 10
-43.26868508455209
 20
4.919637929537259
 30
0.0
  0
VERTEX
  5
335
  8
LAYER_1
 10
-43.27773907884239
 20
7.755423285884206
 30
0.0
  0
VERTEX
  5
336
  8
LAYER_1
 10
-45.83747799090452
 20
7.745039661727844
 30
0.0
  0
VERTEX
  5
337
  8
LAYER_1
 10
-44.59787498316427
 20
10.14383283537717
 30
0.0
  0
VERTEX
  5
338
  8
LAYER_1
 10
-46.84596588123577
 20
11.57694896252593
 30
0.0
  0
VERTEX
  5
339
  8
LAYER_1
 10
-44.60454634737835
 20
13.02291262464411
 30
0.0
  0
VERTEX
  5
33A
  8
LAYER_1
 10
-45.85526829547507
 20
15.41449005947294
 30
0.0
  0
VERTEX
  5
33B
  8
LAYER_1
 10
-43.29584706742298
 20
15.41888990021772
 30
0.0
  0
VERTEX
  5
33C
  8
LAYER_1
 10
-43.29981811755033
 20
18.25467525656467
 30
0.0
  0
VERTEX
  5
33D
  8
LAYER_1
 10
-41.01741734637926
 20
16.79991191295488
 30
0.0
  0
VERTEX
  5
33E
  8
LAYER_1
 10
-39.77034876439939
 20
19.07638951392033
 30
0.0
  0
SEQEND
  5
33F
  8
LAYER_1
  0
POLYLINE
  5
71
  8
LAYER_1
 66
     1
 10
0.0
 20
0.0
 30
0.0
 70
     1
  0
VERTEX
  5
340
  8
LAYER_1
 10
-118.1051896797262
 20
16.80712765177515
 30
0.0
  0
VERTEX
  5
341
  8
LAYER_1
 10
-115.8294602727688
 20
18.27491452398903
 30
0.0
  0
VERTEX
  5
342
  8
LAYER_1
 10
-115.8200885944684
 20
15.43930516127006
 30
0.0
  0
VERTEX
  5
343
  8
LAYER_1
 10
-113.2606673664159
 20
15.4496887854263
 30
0.0
  0
VERTEX
  5
344
  8
LAYER_1
 10
-114.5002703741566
 20
13.05089561177925
 30
0.0
  0
VERTEX
  5
345
  8
LAYER_1
 10
-112.2521794760851
 20
11.61777948462833
 30
0.0
  0
VERTEX
  5
346
  8
LAYER_1
 10
-114.4935990099425
 20
10.17199181614029
 30
0.0
  0
VERTEX
  5
347
  8
LAYER_1
 10
-113.2428770618458
 20
7.780062394051072
 30
0.0
  0
VERTEX
  5
348
  8
LAYER_1
 10
-115.8022982898979
 20
7.775838546936427
 30
0.0
  0
VERTEX
  5
349
  8
LAYER_1
 10
-115.7983272397705
 20
4.940053190589595
 30
0.0
  0
VERTEX
  5
34A
  8
LAYER_1
 10
-118.080728010942
 20
6.394816534199379
 30
0.0
  0
VERTEX
  5
34B
  8
LAYER_1
 10
-119.2575884266707
 20
4.072580589496226
 30
0.0
  0
VERTEX
  5
34C
  8
LAYER_1
 10
-119.2950751398726
 20
3.955192838445498
 30
0.0
  0
VERTEX
  5
34D
  8
LAYER_1
 10
-120.5176820530678
 20
6.387600795376841
 30
0.0
  0
VERTEX
  5
34E
  8
LAYER_1
 10
-122.7934114600253
 20
4.919637929537259
 30
0.0
  0
VERTEX
  5
34F
  8
LAYER_1
 10
-122.8024654543156
 20
7.755423285884206
 30
0.0
  0
VERTEX
  5
350
  8
LAYER_1
 10
-125.3620455243727
 20
7.745039661727844
 30
0.0
  0
VERTEX
  5
351
  8
LAYER_1
 10
-124.1224425166324
 20
10.14383283537717
 30
0.0
  0
VERTEX
  5
352
  8
LAYER_1
 10
-126.3705334147039
 20
11.57694896252593
 30
0.0
  0
VERTEX
  5
353
  8
LAYER_1
 10
-124.1292727228515
 20
13.02291262464411
 30
0.0
  0
VERTEX
  5
354
  8
LAYER_1
 10
-125.3798358289432
 20
15.41449005947294
 30
0.0
  0
VERTEX
  5
355
  8
LAYER_1
 10
-122.8205734428957
 20
15.41888990021772
 30
0.0
  0
VERTEX
  5
356
  8
LAYER_1
 10
-122.824544493023
 20
18.25467525656467
 30
0.0
  0
VERTEX
  5
357
  8
LAYER_1
 10
-120.541984879847
 20
16.79991191295488
 30
0.0
  0
VERTEX
  5
358
  8
LAYER_1
 10
-119.2575884266707
 20
19.07621352029236
 30
0.0
  0
SEQEND
  5
359
  8
LAYER_1
  0
POLYLINE
  5
72
  8
LAYER_1
 66
     1
 10
0.0
 20
0.0
 30
0.0
 70
     1
  0
VERTEX
  5
35A
  8
LAYER_1
 10
-157.7824929737358
 20
28.85547555161844
 30
0.0
  0
VERTEX
  5
35B
  8
LAYER_1
 10
-155.4659411714697
 20
30.34737355110434
 30
0.0
  0
VERTEX
  5
35C
  8
LAYER_1
 10
-155.4767424278161
 20
22.67862712787763
 30
0.0
  0
VERTEX
  5
35D
  8
LAYER_1
 10
-158.982703164213
 20
15.82226729963105
 30
0.0
  0
VERTEX
  5
35E
  8
LAYER_1
 10
-159.0
 20
15.85558063849174
 30
0.0
  0
VERTEX
  5
35F
  8
LAYER_1
 10
-159.0
 20
30.9701946123601
 30
0.0
  0
VERTEX
  5
360
  8
LAYER_1
 10
-158.9611006515206
 20
31.04184441414549
 30
0.0
  0
SEQEND
  5
361
  8
LAYER_1
  0
POLYLINE
  5
73
  8
LAYER_1
 66
     1
 10
0.0
 20
0.0
 30
0.0
 70
     1
  0
VERTEX
  5
362
  8
LAYER_1
 10
-67.37978956352708
 20
25.61965667482417
 30
0.0
  0
VERTEX
  5
363
  8
LAYER_1
 10
-65.36535525494628
 20
26.84633227426235
 30
0.0
  0
VERTEX
  5
364
  8
LAYER_1
 10
-65.33898748210095
 20
24.29970445161172
 30
0.0
  0
VERTEX
  5
365
  8
LAYER_1
 10
-62.65932285619419
 20
24.29864848983306
 30
0.0
  0
VERTEX
  5
366
  8
LAYER_1
 10
-66.14908170807166
 20
17.67583220827947
 30
0.0
  0
VERTEX
  5
367
  8
LAYER_1
 10
-72.29118436098088
 20
13.70260002278422
 30
0.0
  0
VERTEX
  5
368
  8
LAYER_1
 10
-72.25719217189089
 20
21.44966361125427
 30
0.0
  0
VERTEX
  5
369
  8
LAYER_1
 10
-68.69786052178279
 20
28.20465110875961
 30
0.0
  0
SEQEND
  5
36A
  8
LAYER_1
  0
POLYLINE
  5
74
  8
LAYER_1
 66
     1
 10
0.0
 20
0.0
 30
0.0
 70
     1
  0
VERTEX
  5
36B
  8
LAYER_1
 10
-146.9045159389998
 20
25.61983266845215
 30
0.0
  0
VERTEX
  5
36C
  8
LAYER_1
 10
-144.8900816304194
 20
26.84615628063005
 30
0.0
  0
VERTEX
  5
36D
  8
LAYER_1
 10
-144.8637138575741
 20
24.29970445161172
 30
0.0
  0
VERTEX
  5
36E
  8
LAYER_1
 10
-142.1840492316674
 20
24.29864848983306
 30
0.0
  0
VERTEX
  5
36F
  8
LAYER_1
 10
-145.6736492415398
 20
17.67583220827947
 30
0.0
  0
VERTEX
  5
370
  8
LAYER_1
 10
-151.8157518944486
 20
13.70260002278422
 30
0.0
  0
VERTEX
  5
371
  8
LAYER_1
 10
-151.781759705359
 20
21.44966361125427
 30
0.0
  0
VERTEX
  5
372
  8
LAYER_1
 10
-148.222586897256
 20
28.20465110875961
 30
0.0
  0
SEQEND
  5
373
  8
LAYER_1
  0
POLYLINE
  5
75
  8
LAYER_1
 66
     1
 10
0.0
 20
0.0
 30
0.0
 70
     1
  0
VERTEX
  5
374
  8
LAYER_1
 10
91.5520722334577
 20
25.59589753480583
 30
0.0
  0
VERTEX
  5
375
  8
LAYER_1
 10
93.56301201792576
 20
26.82926089217398
 30
0.0
  0
VERTEX
  5
376
  8
LAYER_1
 10
93.5966865230057
 20
24.28280906315564
 30
0.0
  0
VERTEX
  5
377
  8
LAYER_1
 10
96.27619230690743
 20
24.29125675738254
 30
0.0
  0
VERTEX
  5
378
  8
LAYER_1
 10
92.73608053941552
 20
17.52377371216579
 30
0.0
  0
VERTEX
  5
379
  8
LAYER_1
 10
86.67466962509343
 20
13.66159350704953
 30
0.0
  0
VERTEX
  5
37A
  8
LAYER_1
 10
86.75583788969561
 20
21.54118029872933
 30
0.0
  0
VERTEX
  5
37B
  8
LAYER_1
 10
90.22653570096236
 20
28.17614014073848
 30
0.0
  0
SEQEND
  5
37C
  8
LAYER_1
  0
POLYLINE
  5
76
  8
LAYER_1
 66
     1
 10
0.0
 20
0.0
 30
0.0
 70
     1
  0
VERTEX
  5
37D
  8
LAYER_1
 10
12.10231928438816
 20
25.59607352843597
 30
0.0
  0
VERTEX
  5
37E
  8
LAYER_1
 10
14.11325906885668
 20
26.82943688580184
 30
0.0
  0
VERTEX
  5
37F
  8
LAYER_1
 10
14.14677473193115
 20
24.28298505678566
 30
0.0
  0
VERTEX
  5
380
  8
LAYER_1
 10
16.8264393578379
 20
24.29143275101495
 30
0.0
  0
VERTEX
  5
381
  8
LAYER_1
 10
13.28632759034599
 20
17.52394970579581
 30
0.0
  0
VERTEX
  5
382
  8
LAYER_1
 10
7.224916676023895
 20
13.66159350704953
 30
0.0
  0
VERTEX
  5
383
  8
LAYER_1
 10
7.305926098621057
 20
21.54135629235947
 30
0.0
  0
VERTEX
  5
384
  8
LAYER_1
 10
10.77678275189282
 20
28.17631613436873
 30
0.0
  0
SEQEND
  5
385
  8
LAYER_1
  0
POLYLINE
  5
77
  8
LAYER_1
 66
     1
 10
0.0
 20
0.0
 30
0.0
 70
     1
  0
VERTEX
  5
386
  8
LAYER_1
 10
156.8860127159901
 20
11.77159791704122
 30
0.0
  0
VERTEX
  5
387
  8
LAYER_1
 10
156.393284816194
 20
10.80574487690836
 30
0.0
  0
VERTEX
  5
388
  8
LAYER_1
 10
155.4535755140678
 20
11.41802671484987
 30
0.0
  0
VERTEX
  5
389
  8
LAYER_1
 10
155.4546874081034
 20
14.52097040117604
 30
0.0
  0
SEQEND
  5
38A
  8
LAYER_1
  0
POLYLINE
  5
78
  8
LAYER_1
 66
     1
 10
0.0
 20
0.0
 30
0.0
 70
     1
  0
VERTEX
  5
38B
  8
LAYER_1
 10
77.36128634051693
 20
11.77159791704122
 30
0.0
  0
VERTEX
  5
38C
  8
LAYER_1
 10
76.86871728272581
 20
10.80574487690836
 30
0.0
  0
VERTEX
  5
38D
  8
LAYER_1
 10
75.92884913859461
 20
11.41802671484987
 30
0.0
  0
VERTEX
  5
38E
  8
LAYER_1
 10
75.93011987463524
 20
14.52097040117604
 30
0.0
  0
SEQEND
  5
38F
  8
LAYER_1
  0
POLYLINE
  5
79
  8
LAYER_1
 66
     1
 10
0.0
 20
0.0
 30
0.0
 70
     1
  0
VERTEX
  5
390
  8
LAYER_1
 10
-75.86925936768966
 20
11.41802671484987
 30
0.0
  0
VERTEX
  5
391
  8
LAYER_1
 10
-76.80912751182086
 20
10.80574487690836
 30
0.0
  0
VERTEX
  5
392
  8
LAYER_1
 10
-77.30169656961198
 20
11.77159791704122
 30
0.0
  0
VERTEX
  5
393
  8
LAYER_1
 10
-75.87053010373074
 20
14.52097040117604
 30
0.0
  0
SEQEND
  5
394
  8
LAYER_1
  0
POLYLINE
  5
7A
  8
LAYER_1
 66
     1
 10
0.0
 20
0.0
 30
0.0
 70
     1
  0
VERTEX
  5
395
  8
LAYER_1
 10
-155.3939857431628
 20
11.41802671484987
 30
0.0
  0
VERTEX
  5
396
  8
LAYER_1
 10
-156.333695045289
 20
10.80574487690836
 30
0.0
  0
VERTEX
  5
397
  8
LAYER_1
 10
-156.8264229450851
 20
11.77159791704122
 30
0.0
  0
VERTEX
  5
398
  8
LAYER_1
 10
-155.3950976371984
 20
14.52097040117604
 30
0.0
  0
SEQEND
  5
399
  8
LAYER_1
  0
POLYLINE
  5
7B
  8
LAYER_1
 66
     1
 10
0.0
 20
0.0
 30
0.0
 70
     1
  0
VERTEX
  5
39A
  8
LAYER_1
 10
82.9725390124072
 20
11.36153275969792
 30
0.0
  0
VERTEX
  5
39B
  8
LAYER_1
 10
82.10827966270017
 20
10.80099304890774
 30
0.0
  0
VERTEX
  5
39C
  8
LAYER_1
 10
81.57393515756985
 20
11.8537869421387
 30
0.0
  0
VERTEX
  5
39D
  8
LAYER_1
 10
82.98302258474314
 20
14.53557787244478
 30
0.0
  0
SEQEND
  5
39E
  8
LAYER_1
  0
POLYLINE
  5
7C
  8
LAYER_1
 66
     1
 10
0.0
 20
0.0
 30
0.0
 70
     1
  0
VERTEX
  5
39F
  8
LAYER_1
 10
3.522786063337662
 20
11.3617087533259
 30
0.0
  0
VERTEX
  5
3A0
  8
LAYER_1
 10
2.658526713630636
 20
10.80099304890774
 30
0.0
  0
VERTEX
  5
3A1
  8
LAYER_1
 10
2.124182208500315
 20
11.85396293576895
 30
0.0
  0
VERTEX
  5
3A2
  8
LAYER_1
 10
3.53326963567406
 20
14.53557787244478
 30
0.0
  0
SEQEND
  5
3A3
  8
LAYER_1
  0
POLYLINE
  5
7D
  8
LAYER_1
 66
     1
 10
0.0
 20
0.0
 30
0.0
 70
     1
  0
VERTEX
  5
3A4
  8
LAYER_1
 10
-2.064592437595365
 20
11.85396293576895
 30
0.0
  0
VERTEX
  5
3A5
  8
LAYER_1
 10
-2.598936942725686
 20
10.80099304890774
 30
0.0
  0
VERTEX
  5
3A6
  8
LAYER_1
 10
-3.463196292433167
 20
11.3617087533259
 30
0.0
  0
VERTEX
  5
3A7
  8
LAYER_1
 10
-3.47367986476911
 20
14.53557787244478
 30
0.0
  0
SEQEND
  5
3A8
  8
LAYER_1
  0
POLYLINE
  5
7E
  8
LAYER_1
 66
     1
 10
0.0
 20
0.0
 30
0.0
 70
     1
  0
VERTEX
  5
3A9
  8
LAYER_1
 10
-81.5143453866649
 20
11.8537869421387
 30
0.0
  0
VERTEX
  5
3AA
  8
LAYER_1
 10
-82.04868989179522
 20
10.80099304890774
 30
0.0
  0
VERTEX
  5
3AB
  8
LAYER_1
 10
-82.9129492415027
 20
11.36153275969792
 30
0.0
  0
VERTEX
  5
3AC
  8
LAYER_1
 10
-82.92343281383864
 20
14.53557787244478
 30
0.0
  0
SEQEND
  5
3AD
  8
LAYER_1
  0
POLYLINE
  5
7F
  8
LAYER_1
 66
     1
 10
0.0
 20
0.0
 30
0.0
 70
     1
  0
VERTEX
  5
3AE
  8
LAYER_1
 10
132.1890989222347
 20
8.095090991323048
 30
0.0
  0
VERTEX
  5
3AF
  8
LAYER_1
 10
129.4284248737308
 20
8.11990609312005
 30
0.0
  0
VERTEX
  5
3B0
  8
LAYER_1
 10
128.9925624117573
 20
8.944964229441837
 30
0.0
  0
VERTEX
  5
3B1
  8
LAYER_1
 10
129.9344955019546
 20
9.53207897832607
 30
0.0
  0
SEQEND
  5
3B2
  8
LAYER_1
  0
POLYLINE
  5
80
  8
LAYER_1
 66
     1
 10
0.0
 20
0.0
 30
0.0
 70
     1
  0
VERTEX
  5
3B3
  8
LAYER_1
 10
52.66453138876705
 20
8.095090991323048
 30
0.0
  0
VERTEX
  5
3B4
  8
LAYER_1
 10
49.90385734026268
 20
8.120082086750188
 30
0.0
  0
VERTEX
  5
3B5
  8
LAYER_1
 10
49.46783603628455
 20
8.944964229441837
 30
0.0
  0
VERTEX
  5
3B6
  8
LAYER_1
 10
50.40976912648148
 20
9.531902984695932
 30
0.0
  0
SEQEND
  5
3B7
  8
LAYER_1
  0
POLYLINE
  5
81
  8
LAYER_1
 66
     1
 10
0.0
 20
0.0
 30
0.0
 70
     1
  0
VERTEX
  5
3B8
  8
LAYER_1
 10
-49.4082462653796
 20
8.944964229441837
 30
0.0
  0
VERTEX
  5
3B9
  8
LAYER_1
 10
-49.84426756935773
 20
8.120082086750188
 30
0.0
  0
VERTEX
  5
3BA
  8
LAYER_1
 10
-52.6049416178621
 20
8.095090991323048
 30
0.0
  0
VERTEX
  5
3BB
  8
LAYER_1
 10
-50.35017935557698
 20
9.531902984695932
 30
0.0
  0
SEQEND
  5
3BC
  8
LAYER_1
  0
POLYLINE
  5
82
  8
LAYER_1
 66
     1
 10
0.0
 20
0.0
 30
0.0
 70
     1
  0
VERTEX
  5
3BD
  8
LAYER_1
 10
-128.9329726408523
 20
8.944964229441837
 30
0.0
  0
VERTEX
  5
3BE
  8
LAYER_1
 10
-129.3688351028259
 20
8.11990609312005
 30
0.0
  0
VERTEX
  5
3BF
  8
LAYER_1
 10
-132.1295091513298
 20
8.095090991323048
 30
0.0
  0
VERTEX
  5
3C0
  8
LAYER_1
 10
-129.8749057310497
 20
9.53207897832607
 30
0.0
  0
SEQEND
  5
3C1
  8
LAYER_1
  0
POLYLINE
  5
83
  8
LAYER_1
 66
     1
 10
0.0
 20
0.0
 30
0.0
 70
     1
  0
VERTEX
  5
3C2
  8
LAYER_1
 10
143.1418905413689
 20
14.61547898035707
 30
0.0
  0
VERTEX
  5
3C3
  8
LAYER_1
 10
146.6665946343669
 20
7.924201176823829
 30
0.0
  0
VERTEX
  5
3C4
  8
LAYER_1
 10
139.5542850143543
 20
7.963799743521975
 30
0.0
  0
VERTEX
  5
3C5
  8
LAYER_1
 10
133.5438623836667
 20
11.76684608903628
 30
0.0
  0
VERTEX
  5
3C6
  8
LAYER_1
 10
135.8642263940555
 20
13.25188033696423
 30
0.0
  0
VERTEX
  5
3C7
  8
LAYER_1
 10
134.7381954199559
 20
15.47203997640582
 30
0.0
  0
VERTEX
  5
3C8
  8
LAYER_1
 10
137.0361627076263
 20
15.52536604622395
 30
0.0
  0
VERTEX
  5
3C9
  8
LAYER_1
 10
137.0115421968367
 20
18.49437858030132
 30
0.0
  0
SEQEND
  5
3CA
  8
LAYER_1
  0
POLYLINE
  5
84
  8
LAYER_1
 66
     1
 10
0.0
 20
0.0
 30
0.0
 70
     1
  0
VERTEX
  5
3CB
  8
LAYER_1
 10
63.6171641658957
 20
14.61547898035707
 30
0.0
  0
VERTEX
  5
3CC
  8
LAYER_1
 10
67.14186825889374
 20
7.924201176823829
 30
0.0
  0
VERTEX
  5
3CD
  8
LAYER_1
 10
60.02971748088612
 20
7.963799743521975
 30
0.0
  0
VERTEX
  5
3CE
  8
LAYER_1
 10
54.019294850199
 20
11.76702208266641
 30
0.0
  0
VERTEX
  5
3CF
  8
LAYER_1
 10
56.33965886058741
 20
13.25188033696423
 30
0.0
  0
VERTEX
  5
3D0
  8
LAYER_1
 10
55.21346904448274
 20
15.47203997640582
 30
0.0
  0
VERTEX
  5
3D1
  8
LAYER_1
 10
57.51143633215315
 20
15.52536604622395
 30
0.0
  0
VERTEX
  5
3D2
  8
LAYER_1
 10
57.48681582136396
 20
18.49437858030132
 30
0.0
  0
SEQEND
  5
3D3
  8
LAYER_1
  0
POLYLINE
  5
85
  8
LAYER_1
 66
     1
 10
0.0
 20
0.0
 30
0.0
 70
     1
  0
VERTEX
  5
3D4
  8
LAYER_1
 10
-57.4518465612482
 20
15.52536604622395
 30
0.0
  0
VERTEX
  5
3D5
  8
LAYER_1
 10
-55.15387927357779
 20
15.47203997640582
 30
0.0
  0
VERTEX
  5
3D6
  8
LAYER_1
 10
-56.28006908968246
 20
13.25188033696423
 30
0.0
  0
VERTEX
  5
3D7
  8
LAYER_1
 10
-53.95970507929405
 20
11.76702208266641
 30
0.0
  0
VERTEX
  5
3D8
  8
LAYER_1
 10
-59.97012770998163
 20
7.963799743521975
 30
0.0
  0
VERTEX
  5
3D9
  8
LAYER_1
 10
-67.08227848798924
 20
7.924201176823829
 30
0.0
  0
VERTEX
  5
3DA
  8
LAYER_1
 10
-63.55757439499121
 20
14.61547898035707
 30
0.0
  0
VERTEX
  5
3DB
  8
LAYER_1
 10
-57.42722605045901
 20
18.49437858030132
 30
0.0
  0
SEQEND
  5
3DC
  8
LAYER_1
  0
POLYLINE
  5
86
  8
LAYER_1
 66
     1
 10
0.0
 20
0.0
 30
0.0
 70
     1
  0
VERTEX
  5
3DD
  8
LAYER_1
 10
-136.9765729367214
 20
15.52536604622395
 30
0.0
  0
VERTEX
  5
3DE
  8
LAYER_1
 10
-134.678605649051
 20
15.47203997640582
 30
0.0
  0
VERTEX
  5
3DF
  8
LAYER_1
 10
-135.8046366231506
 20
13.25188033696423
 30
0.0
  0
VERTEX
  5
3E0
  8
LAYER_1
 10
-133.4842726127617
 20
11.76684608903628
 30
0.0
  0
VERTEX
  5
3E1
  8
LAYER_1
 10
-139.4946952434493
 20
7.963799743521975
 30
0.0
  0
VERTEX
  5
3E2
  8
LAYER_1
 10
-146.607004863462
 20
7.924201176823829
 30
0.0
  0
VERTEX
  5
3E3
  8
LAYER_1
 10
-143.0823007704639
 20
14.61547898035707
 30
0.0
  0
VERTEX
  5
3E4
  8
LAYER_1
 10
-136.9519524259322
 20
18.49437858030132
 30
0.0
  0
SEQEND
  5
3E5
  8
LAYER_1
  0
POLYLINE
  5
87
  8
LAYER_1
 66
     1
 10
0.0
 20
0.0
 30
0.0
 70
     1
  0
VERTEX
  5
3E6
  8
LAYER_1
 10
151.8772477694147
 20
9.026977260911451
 30
0.0
  0
VERTEX
  5
3E7
  8
LAYER_1
 10
151.88646060571
 20
7.917689412524112
 30
0.0
  0
VERTEX
  5
3E8
  8
LAYER_1
 10
150.7961690827565
 20
7.927369062159812
 30
0.0
  0
VERTEX
  5
3E9
  8
LAYER_1
 10
149.3969298598986
 20
10.61549576313774
 30
0.0
  0
SEQEND
  5
3EA
  8
LAYER_1
  0
POLYLINE
  5
88
  8
LAYER_1
 66
     1
 10
0.0
 20
0.0
 30
0.0
 70
     1
  0
VERTEX
  5
3EB
  8
LAYER_1
 10
72.35268023594654
 20
9.026977260911451
 30
0.0
  0
VERTEX
  5
3EC
  8
LAYER_1
 10
72.36173423023683
 20
7.917689412524112
 30
0.0
  0
VERTEX
  5
3ED
  8
LAYER_1
 10
71.27144270728331
 20
7.927369062159812
 30
0.0
  0
VERTEX
  5
3EE
  8
LAYER_1
 10
69.87236232643045
 20
10.61549576313774
 30
0.0
  0
SEQEND
  5
3EF
  8
LAYER_1
  0
POLYLINE
  5
89
  8
LAYER_1
 66
     1
 10
0.0
 20
0.0
 30
0.0
 70
     1
  0
VERTEX
  5
3F0
  8
LAYER_1
 10
-71.21185293637836
 20
7.927369062159812
 30
0.0
  0
VERTEX
  5
3F1
  8
LAYER_1
 10
-72.30214445933188
 20
7.917689412524112
 30
0.0
  0
VERTEX
  5
3F2
  8
LAYER_1
 10
-72.29309046504204
 20
9.026977260911451
 30
0.0
  0
VERTEX
  5
3F3
  8
LAYER_1
 10
-69.8127725555255
 20
10.61549576313774
 30
0.0
  0
SEQEND
  5
3F4
  8
LAYER_1
  0
POLYLINE
  5
8A
  8
LAYER_1
 66
     1
 10
0.0
 20
0.0
 30
0.0
 70
     1
  0
VERTEX
  5
3F5
  8
LAYER_1
 10
-150.7365793118515
 20
7.927369062159812
 30
0.0
  0
VERTEX
  5
3F6
  8
LAYER_1
 10
-151.826870834805
 20
7.917689412524112
 30
0.0
  0
VERTEX
  5
3F7
  8
LAYER_1
 10
-151.8176579985097
 20
9.026977260911451
 30
0.0
  0
VERTEX
  5
3F8
  8
LAYER_1
 10
-149.3373400889936
 20
10.61549576313774
 30
0.0
  0
SEQEND
  5
3F9
  8
LAYER_1
  0
POLYLINE
  5
8B
  8
LAYER_1
 66
     1
 10
0.0
 20
0.0
 30
0.0
 70
     1
  0
VERTEX
  5
3FA
  8
LAYER_1
 10
8.187022700868056
 20
7.881258731164223
 30
0.0
  0
VERTEX
  5
3FB
  8
LAYER_1
 10
7.185523858761371
 20
7.877914852198103
 30
0.0
  0
VERTEX
  5
3FC
  8
LAYER_1
 10
7.201408059270307
 20
9.085935126880884
 30
0.0
  0
VERTEX
  5
3FD
  8
LAYER_1
 10
9.63645599733536
 20
10.61883964210375
 30
0.0
  0
SEQEND
  5
3FE
  8
LAYER_1
  0
POLYLINE
  5
8C
  8
LAYER_1
 66
     1
 10
0.0
 20
0.0
 30
0.0
 70
     1
  0
VERTEX
  5
3FF
  8
LAYER_1
 10
-7.141818288365357
 20
9.085935126880884
 30
0.0
  0
VERTEX
  5
400
  8
LAYER_1
 10
-7.125934087856422
 20
7.877914852198103
 30
0.0
  0
VERTEX
  5
401
  8
LAYER_1
 10
-8.127432929963106
 20
7.881258731164223
 30
0.0
  0
VERTEX
  5
402
  8
LAYER_1
 10
-9.576866226430411
 20
10.61883964210375
 30
0.0
  0
SEQEND
  5
403
  8
LAYER_1
  0
POLYLINE
  5
8D
  8
LAYER_1
 66
     1
 10
0.0
 20
0.0
 30
0.0
 70
     1
  0
VERTEX
  5
404
  8
LAYER_1
 10
87.63677564993759
 20
7.881082737533973
 30
0.0
  0
VERTEX
  5
405
  8
LAYER_1
 10
86.63527680783045
 20
7.877738858567852
 30
0.0
  0
VERTEX
  5
406
  8
LAYER_1
 10
86.65116100833984
 20
9.085759133250747
 30
0.0
  0
VERTEX
  5
407
  8
LAYER_1
 10
89.08620894640444
 20
10.61866364847373
 30
0.0
  0
SEQEND
  5
408
  8
LAYER_1
  0
POLYLINE
  5
8E
  8
LAYER_1
 66
     1
 10
0.0
 20
0.0
 30
0.0
 70
     1
  0
VERTEX
  5
409
  8
LAYER_1
 10
-86.59157123743489
 20
9.085759133250747
 30
0.0
  0
VERTEX
  5
40A
  8
LAYER_1
 10
-86.57568703692596
 20
7.877738858567852
 30
0.0
  0
VERTEX
  5
40B
  8
LAYER_1
 10
-87.57718587903264
 20
7.881082737533973
 30
0.0
  0
VERTEX
  5
40C
  8
LAYER_1
 10
-89.02661917549995
 20
10.61866364847373
 30
0.0
  0
SEQEND
  5
40D
  8
LAYER_1
  0
POLYLINE
  5
8F
  8
LAYER_1
 66
     1
 10
0.0
 20
0.0
 30
0.0
 70
     1
  0
VERTEX
  5
40E
  8
LAYER_1
 10
22.01517229618275
 20
15.48840738397365
 30
0.0
  0
VERTEX
  5
40F
  8
LAYER_1
 10
24.31329842585819
 20
15.4428250338662
 30
0.0
  0
VERTEX
  5
410
  8
LAYER_1
 10
23.19362113196257
 20
13.21879353456819
 30
0.0
  0
VERTEX
  5
411
  8
LAYER_1
 10
25.51827387648837
 20
11.74203098724144
 30
0.0
  0
VERTEX
  5
412
  8
LAYER_1
 10
19.39904447231265
 20
7.841308177207964
 30
0.0
  0
VERTEX
  5
413
  8
LAYER_1
 10
12.40681940815011
 20
7.853451737661373
 30
0.0
  0
VERTEX
  5
414
  8
LAYER_1
 10
16.03207049037155
 20
14.63325433696167
 30
0.0
  0
VERTEX
  5
415
  8
LAYER_1
 10
22.03153302270721
 20
18.45724392442088
 30
0.0
  0
SEQEND
  5
416
  8
LAYER_1
  0
POLYLINE
  5
90
  8
LAYER_1
 66
     1
 10
0.0
 20
0.0
 30
0.0
 70
     1
  0
VERTEX
  5
417
  8
LAYER_1
 10
-15.9724807194666
 20
14.63325433696167
 30
0.0
  0
VERTEX
  5
418
  8
LAYER_1
 10
-12.34722963724516
 20
7.853451737661373
 30
0.0
  0
VERTEX
  5
419
  8
LAYER_1
 10
-19.33945470140816
 20
7.841308177207964
 30
0.0
  0
VERTEX
  5
41A
  8
LAYER_1
 10
-25.45868410558342
 20
11.74203098724144
 30
0.0
  0
VERTEX
  5
41B
  8
LAYER_1
 10
-23.13403136105762
 20
13.21879353456819
 30
0.0
  0
VERTEX
  5
41C
  8
LAYER_1
 10
-24.25370865495324
 20
15.4428250338662
 30
0.0
  0
VERTEX
  5
41D
  8
LAYER_1
 10
-21.95558252527826
 20
15.48840738397365
 30
0.0
  0
VERTEX
  5
41E
  8
LAYER_1
 10
-21.97194325180271
 20
18.45724392442088
 30
0.0
  0
SEQEND
  5
41F
  8
LAYER_1
  0
POLYLINE
  5
91
  8
LAYER_1
 66
     1
 10
0.0
 20
0.0
 30
0.0
 70
     1
  0
VERTEX
  5
420
  8
LAYER_1
 10
101.4650840872573
 20
15.48823139034351
 30
0.0
  0
VERTEX
  5
421
  8
LAYER_1
 10
103.7632102169327
 20
15.44264904023606
 30
0.0
  0
VERTEX
  5
422
  8
LAYER_1
 10
102.6433740810321
 20
13.21844154731008
 30
0.0
  0
VERTEX
  5
423
  8
LAYER_1
 10
104.9681856675629
 20
11.7418549936113
 30
0.0
  0
VERTEX
  5
424
  8
LAYER_1
 10
98.84879742138219
 20
7.841132183577827
 30
0.0
  0
VERTEX
  5
425
  8
LAYER_1
 10
91.85673119922467
 20
7.853275744031123
 30
0.0
  0
VERTEX
  5
426
  8
LAYER_1
 10
95.48182343944109
 20
14.63290234970356
 30
0.0
  0
VERTEX
  5
427
  8
LAYER_1
 10
101.4812859717772
 20
18.45706793078858
 30
0.0
  0
SEQEND
  5
428
  8
LAYER_1
  0
POLYLINE
  5
92
  8
LAYER_1
 66
     1
 10
0.0
 20
0.0
 30
0.0
 70
     1
  0
VERTEX
  5
429
  8
LAYER_1
 10
-95.42223366853614
 20
14.63290234970356
 30
0.0
  0
VERTEX
  5
42A
  8
LAYER_1
 10
-91.79714142831972
 20
7.853275744031123
 30
0.0
  0
VERTEX
  5
42B
  8
LAYER_1
 10
-98.78920765047724
 20
7.841132183577827
 30
0.0
  0
VERTEX
  5
42C
  8
LAYER_1
 10
-104.908595896658
 20
11.7418549936113
 30
0.0
  0
VERTEX
  5
42D
  8
LAYER_1
 10
-102.5837843101272
 20
13.21844154731008
 30
0.0
  0
VERTEX
  5
42E
  8
LAYER_1
 10
-103.7036204460278
 20
15.44264904023606
 30
0.0
  0
VERTEX
  5
42F
  8
LAYER_1
 10
-101.4054943163528
 20
15.48823139034351
 30
0.0
  0
VERTEX
  5
430
  8
LAYER_1
 10
-101.4216962008722
 20
18.45706793078858
 30
0.0
  0
SEQEND
  5
431
  8
LAYER_1
  0
POLYLINE
  5
93
  8
LAYER_1
 66
     1
 10
0.0
 20
0.0
 30
0.0
 70
     1
  0
VERTEX
  5
432
  8
LAYER_1
 10
30.06623816629099
 20
8.852391580188112
 30
0.0
  0
VERTEX
  5
433
  8
LAYER_1
 10
29.51235609453397
 20
7.824236795119589
 30
0.0
  0
VERTEX
  5
434
  8
LAYER_1
 10
26.91147710315272
 20
7.828460642236394
 30
0.0
  0
VERTEX
  5
435
  8
LAYER_1
 10
29.31761579629119
 20
9.327926367802945
 30
0.0
  0
SEQEND
  5
436
  8
LAYER_1
  0
POLYLINE
  5
94
  8
LAYER_1
 66
     1
 10
0.0
 20
0.0
 30
0.0
 70
     1
  0
VERTEX
  5
437
  8
LAYER_1
 10
-26.85188733224822
 20
7.828460642236394
 30
0.0
  0
VERTEX
  5
438
  8
LAYER_1
 10
-29.45276632362948
 20
7.824236795119589
 30
0.0
  0
VERTEX
  5
439
  8
LAYER_1
 10
-30.00664839538604
 20
8.852391580188112
 30
0.0
  0
VERTEX
  5
43A
  8
LAYER_1
 10
-29.25802602538624
 20
9.327926367802945
 30
0.0
  0
SEQEND
  5
43B
  8
LAYER_1
  0
POLYLINE
  5
95
  8
LAYER_1
 66
     1
 10
0.0
 20
0.0
 30
0.0
 70
     1
  0
VERTEX
  5
43C
  8
LAYER_1
 10
109.5159911153605
 20
8.852391580188112
 30
0.0
  0
VERTEX
  5
43D
  8
LAYER_1
 10
108.9622678856085
 20
7.824060801491612
 30
0.0
  0
VERTEX
  5
43E
  8
LAYER_1
 10
106.3612300522227
 20
7.828460642236394
 30
0.0
  0
VERTEX
  5
43F
  8
LAYER_1
 10
108.7673687453607
 20
9.327926367802945
 30
0.0
  0
SEQEND
  5
440
  8
LAYER_1
  0
POLYLINE
  5
96
  8
LAYER_1
 66
     1
 10
0.0
 20
0.0
 30
0.0
 70
     1
  0
VERTEX
  5
441
  8
LAYER_1
 10
-106.3016402813178
 20
7.828460642236394
 30
0.0
  0
VERTEX
  5
442
  8
LAYER_1
 10
-108.902678114704
 20
7.824060801491612
 30
0.0
  0
VERTEX
  5
443
  8
LAYER_1
 10
-109.4564013444556
 20
8.852391580188112
 30
0.0
  0
VERTEX
  5
444
  8
LAYER_1
 10
-108.7077789744558
 20
9.327926367802945
 30
0.0
  0
SEQEND
  5
445
  8
LAYER_1
  0
POLYLINE
  5
97
  8
LAYER_1
 66
     1
 10
0.0
 20
0.0
 30
0.0
 70
     1
  0
VERTEX
  5
446
  8
LAYER_1
 10
1.300904096106933
 20
5.243466208298685
 30
0.0
  0
VERTEX
  5
447
  8
LAYER_1
 10
3.583304867278002
 20
6.698229551906309
 30
0.0
  0
VERTEX
  5
448
  8
LAYER_1
 10
3.579492659155676
 20
3.862444195559362
 30
0.0
  0
VERTEX
  5
449
  8
LAYER_1
 10
6.138755045202743
 20
3.858044354814695
 30
0.0
  0
VERTEX
  5
44A
  8
LAYER_1
 10
4.888033097106018
 20
1.466290926357772
 30
0.0
  0
VERTEX
  5
44B
  8
LAYER_1
 10
7.129293788958421
 20
0.0205032578675741
 30
0.0
  0
VERTEX
  5
44C
  8
LAYER_1
 10
4.881361732892401
 20
-1.41261286927903
 30
0.0
  0
VERTEX
  5
44D
  8
LAYER_1
 10
6.120964740632644
 20
-3.81140604292824
 30
0.0
  0
VERTEX
  5
44E
  8
LAYER_1
 10
3.56138467057508
 20
-3.801022418771993
 30
0.0
  0
VERTEX
  5
44F
  8
LAYER_1
 10
3.552171834279761
 20
-6.636983768751236
 30
0.0
  0
VERTEX
  5
450
  8
LAYER_1
 10
1.276442427322763
 20
-5.168844909279244
 30
0.0
  0
VERTEX
  5
451
  8
LAYER_1
 10
0.0297948854522474
 20
-7.550665839716487
 30
0.0
  0
VERTEX
  5
452
  8
LAYER_1
 10
-1.216852656417814
 20
-5.168844909279244
 30
0.0
  0
VERTEX
  5
453
  8
LAYER_1
 10
-3.492582063375266
 20
-6.636983768751236
 30
0.0
  0
VERTEX
  5
454
  8
LAYER_1
 10
-3.501794899670585
 20
-3.801022418771993
 30
0.0
  0
VERTEX
  5
455
  8
LAYER_1
 10
-6.061374969727694
 20
-3.81140604292824
 30
0.0
  0
VERTEX
  5
456
  8
LAYER_1
 10
-4.821771961987452
 20
-1.41261286927903
 30
0.0
  0
VERTEX
  5
457
  8
LAYER_1
 10
-7.069704018053471
 20
0.0205032578675741
 30
0.0
  0
VERTEX
  5
458
  8
LAYER_1
 10
-4.828443326201523
 20
1.466290926357772
 30
0.0
  0
VERTEX
  5
459
  8
LAYER_1
 10
-6.079165274298248
 20
3.858044354814695
 30
0.0
  0
VERTEX
  5
45A
  8
LAYER_1
 10
-3.519902888251181
 20
3.862444195559362
 30
0.0
  0
VERTEX
  5
45B
  8
LAYER_1
 10
-3.523715096373053
 20
6.698229551906309
 30
0.0
  0
VERTEX
  5
45C
  8
LAYER_1
 10
-1.241314325201984
 20
5.243466208298685
 30
0.0
  0
VERTEX
  5
45D
  8
LAYER_1
 10
0.0106783589353654
 20
7.666370509224464
 30
0.0
  0
VERTEX
  5
45E
  8
LAYER_1
 10
0.0297948854522474
 20
7.631895386403073
 30
0.0
  0
VERTEX
  5
45F
  8
LAYER_1
 10
0.0489114119695842
 20
7.666370509224464
 30
0.0
  0
SEQEND
  5
460
  8
LAYER_1
  0
POLYLINE
  5
98
  8
LAYER_1
 66
     1
 10
0.0
 20
0.0
 30
0.0
 70
     1
  0
VERTEX
  5
461
  8
LAYER_1
 10
159.0
 20
-7.561095639243661
 30
0.0
  0
VERTEX
  5
462
  8
LAYER_1
 10
158.9876512853662
 20
-7.584709465014896
 30
0.0
  0
VERTEX
  5
463
  8
LAYER_1
 10
157.7354997592233
 20
-5.161805164089003
 30
0.0
  0
VERTEX
  5
464
  8
LAYER_1
 10
155.4530989880523
 20
-6.616568507696741
 30
0.0
  0
VERTEX
  5
465
  8
LAYER_1
 10
155.4570700381796
 20
-3.780783151351955
 30
0.0
  0
VERTEX
  5
466
  8
LAYER_1
 10
152.8976488101275
 20
-3.77655930423515
 30
0.0
  0
VERTEX
  5
467
  8
LAYER_1
 10
154.1483707582242
 20
-1.384629882148204
 30
0.0
  0
VERTEX
  5
468
  8
LAYER_1
 10
151.9069512243668
 20
0.0611577863421076
 30
0.0
  0
VERTEX
  5
469
  8
LAYER_1
 10
154.1552009644433
 20
1.494097919858461
 30
0.0
  0
VERTEX
  5
46A
  8
LAYER_1
 10
152.9155979567031
 20
3.893067087140082
 30
0.0
  0
VERTEX
  5
46B
  8
LAYER_1
 10
155.4748603427502
 20
3.882683462983721
 30
0.0
  0
VERTEX
  5
46C
  8
LAYER_1
 10
155.4842320210505
 20
6.71829282570053
 30
0.0
  0
VERTEX
  5
46D
  8
LAYER_1
 10
157.759961428008
 20
5.250505953491086
 30
0.0
  0
VERTEX
  5
46E
  8
LAYER_1
 10
159.0
 20
7.621769332451152
 30
0.0
  0
SEQEND
  5
46F
  8
LAYER_1
  0
POLYLINE
  5
99
  8
LAYER_1
 66
     1
 10
0.0
 20
0.0
 30
0.0
 70
     1
  0
VERTEX
  5
470
  8
LAYER_1
 10
80.75065704517647
 20
5.243290214668548
 30
0.0
  0
VERTEX
  5
471
  8
LAYER_1
 10
83.03305781634754
 20
6.698053558276172
 30
0.0
  0
VERTEX
  5
472
  8
LAYER_1
 10
83.02924560822521
 20
3.862268201931386
 30
0.0
  0
VERTEX
  5
473
  8
LAYER_1
 10
85.58850799427228
 20
3.858044354814695
 30
0.0
  0
VERTEX
  5
474
  8
LAYER_1
 10
84.33778604617555
 20
1.466114932727635
 30
0.0
  0
VERTEX
  5
475
  8
LAYER_1
 10
86.57904673802796
 20
0.0203272642374372
 30
0.0
  0
VERTEX
  5
476
  8
LAYER_1
 10
84.33111468196194
 20
-1.412788862911327
 30
0.0
  0
VERTEX
  5
477
  8
LAYER_1
 10
85.57071768970218
 20
-3.811582036560651
 30
0.0
  0
VERTEX
  5
478
  8
LAYER_1
 10
83.01113761964461
 20
-3.80119841240213
 30
0.0
  0
VERTEX
  5
479
  8
LAYER_1
 10
83.0019247833493
 20
-6.636983768751236
 30
0.0
  0
VERTEX
  5
47A
  8
LAYER_1
 10
80.7261953763923
 20
-5.169020902909494
 30
0.0
  0
VERTEX
  5
47B
  8
LAYER_1
 10
79.46292490989299
 20
-7.584709465014896
 30
0.0
  0
VERTEX
  5
47C
  8
LAYER_1
 10
78.21093222575564
 20
-5.161805164089003
 30
0.0
  0
VERTEX
  5
47D
  8
LAYER_1
 10
75.92853145458457
 20
-6.616568507696741
 30
0.0
  0
VERTEX
  5
47E
  8
LAYER_1
 10
75.93234366270644
 20
-3.780783151351955
 30
0.0
  0
VERTEX
  5
47F
  8
LAYER_1
 10
73.37308127665938
 20
-3.77655930423515
 30
0.0
  0
VERTEX
  5
480
  8
LAYER_1
 10
74.6238032247561
 20
-1.384629882148204
 30
0.0
  0
VERTEX
  5
481
  8
LAYER_1
 10
72.38222484889366
 20
0.0611577863421076
 30
0.0
  0
VERTEX
  5
482
  8
LAYER_1
 10
74.63047458897017
 20
1.494097919858461
 30
0.0
  0
VERTEX
  5
483
  8
LAYER_1
 10
73.39087158122993
 20
3.893067087140082
 30
0.0
  0
VERTEX
  5
484
  8
LAYER_1
 10
75.95029280928202
 20
3.882683462983721
 30
0.0
  0
VERTEX
  5
485
  8
LAYER_1
 10
75.95966448758236
 20
6.71829282570053
 30
0.0
  0
VERTEX
  5
486
  8
LAYER_1
 10
78.23539389453981
 20
5.250505953491086
 30
0.0
  0
VERTEX
  5
487
  8
LAYER_1
 10
79.49866436103912
 20
7.666194515596487
 30
0.0
  0
SEQEND
  5
488
  8
LAYER_1
  0
POLYLINE
  5
9A
  8
LAYER_1
 66
     1
 10
0.0
 20
0.0
 30
0.0
 70
     1
  0
VERTEX
  5
489
  8
LAYER_1
 10
-78.17580412363486
 20
5.250505953491086
 30
0.0
  0
VERTEX
  5
48A
  8
LAYER_1
 10
-75.90007471667786
 20
6.71829282570053
 30
0.0
  0
VERTEX
  5
48B
  8
LAYER_1
 10
-75.89070303837707
 20
3.882683462983721
 30
0.0
  0
VERTEX
  5
48C
  8
LAYER_1
 10
-73.33128181032498
 20
3.893067087140082
 30
0.0
  0
VERTEX
  5
48D
  8
LAYER_1
 10
-74.57088481806522
 20
1.494097919858461
 30
0.0
  0
VERTEX
  5
48E
  8
LAYER_1
 10
-72.32263507798916
 20
0.0611577863421076
 30
0.0
  0
VERTEX
  5
48F
  8
LAYER_1
 10
-74.56421345385161
 20
-1.384629882148204
 30
0.0
  0
VERTEX
  5
490
  8
LAYER_1
 10
-73.31349150575488
 20
-3.77655930423515
 30
0.0
  0
VERTEX
  5
491
  8
LAYER_1
 10
-75.8727538918015
 20
-3.780783151351955
 30
0.0
  0
VERTEX
  5
492
  8
LAYER_1
 10
-75.86894168367962
 20
-6.616568507696741
 30
0.0
  0
VERTEX
  5
493
  8
LAYER_1
 10
-78.15134245485069
 20
-5.161805164089003
 30
0.0
  0
VERTEX
  5
494
  8
LAYER_1
 10
-79.4033351389885
 20
-7.584709465014896
 30
0.0
  0
VERTEX
  5
495
  8
LAYER_1
 10
-80.66660560548735
 20
-5.169020902909494
 30
0.0
  0
VERTEX
  5
496
  8
LAYER_1
 10
-82.94233501244435
 20
-6.636983768751236
 30
0.0
  0
VERTEX
  5
497
  8
LAYER_1
 10
-82.95154784873966
 20
-3.80119841240213
 30
0.0
  0
VERTEX
  5
498
  8
LAYER_1
 10
-85.51112791879723
 20
-3.811582036560651
 30
0.0
  0
VERTEX
  5
499
  8
LAYER_1
 10
-84.27152491105699
 20
-1.412788862911327
 30
0.0
  0
VERTEX
  5
49A
  8
LAYER_1
 10
-86.519456967123
 20
0.0203272642374372
 30
0.0
  0
VERTEX
  5
49B
  8
LAYER_1
 10
-84.2781962752706
 20
1.466114932727635
 30
0.0
  0
VERTEX
  5
49C
  8
LAYER_1
 10
-85.52891822336778
 20
3.858044354814695
 30
0.0
  0
VERTEX
  5
49D
  8
LAYER_1
 10
-82.96965583732026
 20
3.862268201931386
 30
0.0
  0
VERTEX
  5
49E
  8
LAYER_1
 10
-82.97346804544259
 20
6.698053558276172
 30
0.0
  0
VERTEX
  5
49F
  8
LAYER_1
 10
-80.69106727427152
 20
5.243290214668548
 30
0.0
  0
VERTEX
  5
4A0
  8
LAYER_1
 10
-79.43907459013417
 20
7.666194515596487
 30
0.0
  0
SEQEND
  5
4A1
  8
LAYER_1
  0
POLYLINE
  5
9B
  8
LAYER_1
 66
     1
 10
0.0
 20
0.0
 30
0.0
 70
     1
  0
VERTEX
  5
4A2
  8
LAYER_1
 10
148.7877707703692
 20
3.909610488338046
 30
0.0
  0
VERTEX
  5
4A3
  8
LAYER_1
 10
149.2936825565885
 20
2.952029148804229
 30
0.0
  0
VERTEX
  5
4A4
  8
LAYER_1
 10
148.3434896821263
 20
2.359986578287078
 30
0.0
  0
VERTEX
  5
4A5
  8
LAYER_1
 10
145.9230552085301
 20
3.921226067900932
 30
0.0
  0
SEQEND
  5
4A6
  8
LAYER_1
  0
POLYLINE
  5
9C
  8
LAYER_1
 66
     1
 10
0.0
 20
0.0
 30
0.0
 70
     1
  0
VERTEX
  5
4A7
  8
LAYER_1
 10
69.2630443948965
 20
3.909610488338046
 30
0.0
  0
VERTEX
  5
4A8
  8
LAYER_1
 10
69.76911502312032
 20
2.952029148804229
 30
0.0
  0
VERTEX
  5
4A9
  8
LAYER_1
 10
68.81876330665318
 20
2.359986578287078
 30
0.0
  0
VERTEX
  5
4AA
  8
LAYER_1
 10
66.39848767506192
 20
3.921226067900932
 30
0.0
  0
SEQEND
  5
4AB
  8
LAYER_1
  0
POLYLINE
  5
9D
  8
LAYER_1
 66
     1
 10
0.0
 20
0.0
 30
0.0
 70
     1
  0
VERTEX
  5
4AC
  8
LAYER_1
 10
-68.75917353574823
 20
2.359986578287078
 30
0.0
  0
VERTEX
  5
4AD
  8
LAYER_1
 10
-69.70952525221583
 20
2.952029148804229
 30
0.0
  0
VERTEX
  5
4AE
  8
LAYER_1
 10
-69.20345462399155
 20
3.909610488338046
 30
0.0
  0
VERTEX
  5
4AF
  8
LAYER_1
 10
-66.33889790415697
 20
3.921226067900932
 30
0.0
  0
SEQEND
  5
4B0
  8
LAYER_1
  0
POLYLINE
  5
9E
  8
LAYER_1
 66
     1
 10
0.0
 20
0.0
 30
0.0
 70
     1
  0
VERTEX
  5
4B1
  8
LAYER_1
 10
-148.2838999112214
 20
2.359986578287078
 30
0.0
  0
VERTEX
  5
4B2
  8
LAYER_1
 10
-149.2340927856835
 20
2.952029148804229
 30
0.0
  0
VERTEX
  5
4B3
  8
LAYER_1
 10
-148.7281809994647
 20
3.909610488338046
 30
0.0
  0
VERTEX
  5
4B4
  8
LAYER_1
 10
-145.8634654376251
 20
3.921226067900932
 30
0.0
  0
SEQEND
  5
4B5
  8
LAYER_1
  0
POLYLINE
  5
9F
  8
LAYER_1
 66
     1
 10
0.0
 20
0.0
 30
0.0
 70
     1
  0
VERTEX
  5
4B6
  8
LAYER_1
 10
13.12240264109096
 20
3.882507469353584
 30
0.0
  0
VERTEX
  5
4B7
  8
LAYER_1
 10
10.63223652725901
 20
2.314052240919352
 30
0.0
  0
VERTEX
  5
4B8
  8
LAYER_1
 10
9.763529601409118
 20
2.866144257480357
 30
0.0
  0
VERTEX
  5
4B9
  8
LAYER_1
 10
10.32185924930855
 20
3.90345071129633
 30
0.0
  0
SEQEND
  5
4BA
  8
LAYER_1
  0
POLYLINE
  5
A0
  8
LAYER_1
 66
     1
 10
0.0
 20
0.0
 30
0.0
 70
     1
  0
VERTEX
  5
4BB
  8
LAYER_1
 10
-9.703939830504169
 20
2.866144257480357
 30
0.0
  0
VERTEX
  5
4BC
  8
LAYER_1
 10
-10.57264675635406
 20
2.314052240919352
 30
0.0
  0
VERTEX
  5
4BD
  8
LAYER_1
 10
-13.06281287018601
 20
3.882507469353584
 30
0.0
  0
VERTEX
  5
4BE
  8
LAYER_1
 10
-10.2622694784036
 20
3.90345071129633
 30
0.0
  0
SEQEND
  5
4BF
  8
LAYER_1
  0
POLYLINE
  5
A1
  8
LAYER_1
 66
     1
 10
0.0
 20
0.0
 30
0.0
 70
     1
  0
VERTEX
  5
4C0
  8
LAYER_1
 10
92.57215559016004
 20
3.882331475723447
 30
0.0
  0
VERTEX
  5
4C1
  8
LAYER_1
 10
90.08198947632854
 20
2.313876247289215
 30
0.0
  0
VERTEX
  5
4C2
  8
LAYER_1
 10
89.21328255047865
 20
2.86596826385238
 30
0.0
  0
VERTEX
  5
4C3
  8
LAYER_1
 10
89.77161219837808
 20
3.903274717666193
 30
0.0
  0
SEQEND
  5
4C4
  8
LAYER_1
  0
POLYLINE
  5
A2
  8
LAYER_1
 66
     1
 10
0.0
 20
0.0
 30
0.0
 70
     1
  0
VERTEX
  5
4C5
  8
LAYER_1
 10
-89.1536927795737
 20
2.86596826385238
 30
0.0
  0
VERTEX
  5
4C6
  8
LAYER_1
 10
-90.0223997054236
 20
2.313876247289215
 30
0.0
  0
VERTEX
  5
4C7
  8
LAYER_1
 10
-92.51256581925554
 20
3.882331475723447
 30
0.0
  0
VERTEX
  5
4C8
  8
LAYER_1
 10
-89.71202242747313
 20
3.903274717666193
 30
0.0
  0
SEQEND
  5
4C9
  8
LAYER_1
  0
POLYLINE
  5
A3
  8
LAYER_1
 66
     1
 10
0.0
 20
0.0
 30
0.0
 70
     1
  0
VERTEX
  5
4CA
  8
LAYER_1
 10
144.7620789933103
 20
0.081573047394329
 30
0.0
  0
VERTEX
  5
4CB
  8
LAYER_1
 10
138.5737533169195
 20
-3.802782355069041
 30
0.0
  0
VERTEX
  5
4CC
  8
LAYER_1
 10
131.6525306290328
 20
-3.814925915524498
 30
0.0
  0
VERTEX
  5
4CD
  8
LAYER_1
 10
132.9990343062004
 20
-1.248058825453825
 30
0.0
  0
VERTEX
  5
4CE
  8
LAYER_1
 10
131.0255812349337
 20
0.0574619201178734
 30
0.0
  0
VERTEX
  5
4CF
  8
LAYER_1
 10
132.9953809400831
 20
1.370198404507789
 30
0.0
  0
VERTEX
  5
4D0
  8
LAYER_1
 10
131.6414116886763
 20
3.932313666575567
 30
0.0
  0
VERTEX
  5
4D1
  8
LAYER_1
 10
138.7009857629987
 20
3.944633220659
 30
0.0
  0
SEQEND
  5
4D2
  8
LAYER_1
  0
POLYLINE
  5
A4
  8
LAYER_1
 66
     1
 10
0.0
 20
0.0
 30
0.0
 70
     1
  0
VERTEX
  5
4D3
  8
LAYER_1
 10
65.23735261783713
 20
0.0817490410245796
 30
0.0
  0
VERTEX
  5
4D4
  8
LAYER_1
 10
59.04918578345178
 20
-3.802782355069041
 30
0.0
  0
VERTEX
  5
4D5
  8
LAYER_1
 10
52.12780425356004
 20
-3.814925915524498
 30
0.0
  0
VERTEX
  5
4D6
  8
LAYER_1
 10
53.47446677273228
 20
-1.248058825453825
 30
0.0
  0
VERTEX
  5
4D7
  8
LAYER_1
 10
51.50085485946056
 20
0.0574619201178734
 30
0.0
  0
VERTEX
  5
4D8
  8
LAYER_1
 10
53.47065456461041
 20
1.370198404507789
 30
0.0
  0
VERTEX
  5
4D9
  8
LAYER_1
 10
52.11668531320356
 20
3.932313666575567
 30
0.0
  0
VERTEX
  5
4DA
  8
LAYER_1
 10
59.17625938752553
 20
3.944633220659
 30
0.0
  0
SEQEND
  5
4DB
  8
LAYER_1
  0
POLYLINE
  5
A5
  8
LAYER_1
 66
     1
 10
0.0
 20
0.0
 30
0.0
 70
     1
  0
VERTEX
  5
4DC
  8
LAYER_1
 10
-52.05709554229861
 20
3.932313666575567
 30
0.0
  0
VERTEX
  5
4DD
  8
LAYER_1
 10
-53.41106479370546
 20
1.370198404507789
 30
0.0
  0
VERTEX
  5
4DE
  8
LAYER_1
 10
-51.44126508855561
 20
0.0574619201178734
 30
0.0
  0
VERTEX
  5
4DF
  8
LAYER_1
 10
-53.41487700182779
 20
-1.248058825453825
 30
0.0
  0
VERTEX
  5
4E0
  8
LAYER_1
 10
-52.06821448265509
 20
-3.814925915524498
 30
0.0
  0
VERTEX
  5
4E1
  8
LAYER_1
 10
-58.98959601254683
 20
-3.802782355069041
 30
0.0
  0
VERTEX
  5
4E2
  8
LAYER_1
 10
-65.17776284693264
 20
0.0817490410245796
 30
0.0
  0
VERTEX
  5
4E3
  8
LAYER_1
 10
-59.11666961662058
 20
3.944633220659
 30
0.0
  0
SEQEND
  5
4E4
  8
LAYER_1
  0
POLYLINE
  5
A6
  8
LAYER_1
 66
     1
 10
0.0
 20
0.0
 30
0.0
 70
     1
  0
VERTEX
  5
4E5
  8
LAYER_1
 10
-131.5818219177718
 20
3.932313666575567
 30
0.0
  0
VERTEX
  5
4E6
  8
LAYER_1
 10
-132.9357911691786
 20
1.370198404507789
 30
0.0
  0
VERTEX
  5
4E7
  8
LAYER_1
 10
-130.9659914640288
 20
0.0574619201178734
 30
0.0
  0
VERTEX
  5
4E8
  8
LAYER_1
 10
-132.9394445352955
 20
-1.248058825453825
 30
0.0
  0
VERTEX
  5
4E9
  8
LAYER_1
 10
-131.5929408581283
 20
-3.814925915524498
 30
0.0
  0
VERTEX
  5
4EA
  8
LAYER_1
 10
-138.5141635460145
 20
-3.802782355069041
 30
0.0
  0
VERTEX
  5
4EB
  8
LAYER_1
 10
-144.7024892224053
 20
0.081573047394329
 30
0.0
  0
VERTEX
  5
4EC
  8
LAYER_1
 10
-138.6413959920937
 20
3.944633220659
 30
0.0
  0
SEQEND
  5
4ED
  8
LAYER_1
  0
POLYLINE
  5
A7
  8
LAYER_1
 66
     1
 10
0.0
 20
0.0
 30
0.0
 70
     1
  0
VERTEX
  5
4EE
  8
LAYER_1
 10
149.2730330959266
 20
-2.784483213272949
 30
0.0
  0
VERTEX
  5
4EF
  8
LAYER_1
 10
148.7142269220117
 20
-3.821965660714739
 30
0.0
  0
VERTEX
  5
4F0
  8
LAYER_1
 10
145.9136835302293
 20
-3.800846425144016
 30
0.0
  0
VERTEX
  5
4F1
  8
LAYER_1
 10
148.4041673280717
 20
-2.232391196709784
 30
0.0
  0
SEQEND
  5
4F2
  8
LAYER_1
  0
POLYLINE
  5
A8
  8
LAYER_1
 66
     1
 10
0.0
 20
0.0
 30
0.0
 70
     1
  0
VERTEX
  5
4F3
  8
LAYER_1
 10
69.74846556245848
 20
-2.784483213272949
 30
0.0
  0
VERTEX
  5
4F4
  8
LAYER_1
 10
69.18965938854353
 20
-3.821965660714739
 30
0.0
  0
VERTEX
  5
4F5
  8
LAYER_1
 10
66.38911599676157
 20
-3.800846425144016
 30
0.0
  0
VERTEX
  5
4F6
  8
LAYER_1
 10
68.87959979460356
 20
-2.232391196709784
 30
0.0
  0
SEQEND
  5
4F7
  8
LAYER_1
  0
POLYLINE
  5
A9
  8
LAYER_1
 66
     1
 10
0.0
 20
0.0
 30
0.0
 70
     1
  0
VERTEX
  5
4F8
  8
LAYER_1
 10
-66.32952622585663
 20
-3.800846425144016
 30
0.0
  0
VERTEX
  5
4F9
  8
LAYER_1
 10
-69.13006961763904
 20
-3.821965660714739
 30
0.0
  0
VERTEX
  5
4FA
  8
LAYER_1
 10
-69.68887579155353
 20
-2.784483213272949
 30
0.0
  0
VERTEX
  5
4FB
  8
LAYER_1
 10
-68.82001002369861
 20
-2.232391196709784
 30
0.0
  0
SEQEND
  5
4FC
  8
LAYER_1
  0
POLYLINE
  5
AA
  8
LAYER_1
 66
     1
 10
0.0
 20
0.0
 30
0.0
 70
     1
  0
VERTEX
  5
4FD
  8
LAYER_1
 10
-145.8540937593248
 20
-3.800846425144016
 30
0.0
  0
VERTEX
  5
4FE
  8
LAYER_1
 10
-148.6546371511067
 20
-3.821965660714739
 30
0.0
  0
VERTEX
  5
4FF
  8
LAYER_1
 10
-149.2134433250217
 20
-2.784483213272949
 30
0.0
  0
VERTEX
  5
500
  8
LAYER_1
 10
-148.3445775571668
 20
-2.232391196709784
 30
0.0
  0
SEQEND
  5
501
  8
LAYER_1
  0
POLYLINE
  5
AB
  8
LAYER_1
 66
     1
 10
0.0
 20
0.0
 30
0.0
 70
     1
  0
VERTEX
  5
502
  8
LAYER_1
 10
13.11334864680066
 20
-3.839565023691364
 30
0.0
  0
VERTEX
  5
503
  8
LAYER_1
 10
10.24863308496106
 20
-3.827949444126318
 30
0.0
  0
VERTEX
  5
504
  8
LAYER_1
 10
9.742721298741799
 20
-2.870544098224684
 30
0.0
  0
VERTEX
  5
505
  8
LAYER_1
 10
10.69291417320392
 20
-2.278325534077396
 30
0.0
  0
SEQEND
  5
506
  8
LAYER_1
  0
POLYLINE
  5
AC
  8
LAYER_1
 66
     1
 10
0.0
 20
0.0
 30
0.0
 70
     1
  0
VERTEX
  5
507
  8
LAYER_1
 10
-9.683131527837304
 20
-2.870544098224684
 30
0.0
  0
VERTEX
  5
508
  8
LAYER_1
 10
-10.18904331405611
 20
-3.827949444126318
 30
0.0
  0
VERTEX
  5
509
  8
LAYER_1
 10
-13.05375887589571
 20
-3.839565023691364
 30
0.0
  0
VERTEX
  5
50A
  8
LAYER_1
 10
-10.63332440229942
 20
-2.278325534077396
 30
0.0
  0
SEQEND
  5
50B
  8
LAYER_1
  0
POLYLINE
  5
AD
  8
LAYER_1
 66
     1
 10
0.0
 20
0.0
 30
0.0
 70
     1
  0
VERTEX
  5
50C
  8
LAYER_1
 10
92.5631015958702
 20
-3.839741017321501
 30
0.0
  0
VERTEX
  5
50D
  8
LAYER_1
 10
89.69838603403014
 20
-3.828125437756455
 30
0.0
  0
VERTEX
  5
50E
  8
LAYER_1
 10
89.19247424781133
 20
-2.870720091852661
 30
0.0
  0
VERTEX
  5
50F
  8
LAYER_1
 10
90.14266712227345
 20
-2.278501527707533
 30
0.0
  0
SEQEND
  5
510
  8
LAYER_1
  0
POLYLINE
  5
AE
  8
LAYER_1
 66
     1
 10
0.0
 20
0.0
 30
0.0
 70
     1
  0
VERTEX
  5
511
  8
LAYER_1
 10
-89.13288447690638
 20
-2.870720091852661
 30
0.0
  0
VERTEX
  5
512
  8
LAYER_1
 10
-89.63879626312564
 20
-3.828125437756455
 30
0.0
  0
VERTEX
  5
513
  8
LAYER_1
 10
-92.50351182496524
 20
-3.839741017321501
 30
0.0
  0
VERTEX
  5
514
  8
LAYER_1
 10
-90.0830773513685
 20
-2.278501527707533
 30
0.0
  0
SEQEND
  5
515
  8
LAYER_1
  0
POLYLINE
  5
AF
  8
LAYER_1
 66
     1
 10
0.0
 20
0.0
 30
0.0
 70
     1
  0
VERTEX
  5
516
  8
LAYER_1
 10
26.03736954912983
 20
1.329719869663506
 30
0.0
  0
VERTEX
  5
517
  8
LAYER_1
 10
28.01098146240201
 20
0.0240231304615577
 30
0.0
  0
VERTEX
  5
518
  8
LAYER_1
 10
26.04118175725216
 20
-1.288537360298221
 30
0.0
  0
VERTEX
  5
519
  8
LAYER_1
 10
27.39515100865901
 20
-3.850652622365999
 30
0.0
  0
VERTEX
  5
51A
  8
LAYER_1
 10
20.33557693433704
 20
-3.862972176449432
 30
0.0
  0
VERTEX
  5
51B
  8
LAYER_1
 10
14.27448370402499
 20
-0.0000879968148979
 30
0.0
  0
VERTEX
  5
51C
  8
LAYER_1
 10
20.46249169640578
 20
3.884443399280769
 30
0.0
  0
VERTEX
  5
51D
  8
LAYER_1
 10
27.38403206830253
 20
3.896586959734066
 30
0.0
  0
SEQEND
  5
51E
  8
LAYER_1
  0
POLYLINE
  5
B0
  8
LAYER_1
 66
     1
 10
0.0
 20
0.0
 30
0.0
 70
     1
  0
VERTEX
  5
51F
  8
LAYER_1
 10
-20.40290192550083
 20
3.884443399280769
 30
0.0
  0
VERTEX
  5
520
  8
LAYER_1
 10
-14.21489393312049
 20
-0.0000879968148979
 30
0.0
  0
VERTEX
  5
521
  8
LAYER_1
 10
-20.27598716343209
 20
-3.862972176449432
 30
0.0
  0
VERTEX
  5
522
  8
LAYER_1
 10
-27.33556123775406
 20
-3.850652622365999
 30
0.0
  0
VERTEX
  5
523
  8
LAYER_1
 10
-25.98159198634721
 20
-1.288537360298221
 30
0.0
  0
VERTEX
  5
524
  8
LAYER_1
 10
-27.95139169149707
 20
0.0240231304615577
 30
0.0
  0
VERTEX
  5
525
  8
LAYER_1
 10
-25.97777977822534
 20
1.329719869663506
 30
0.0
  0
VERTEX
  5
526
  8
LAYER_1
 10
-27.32444229739758
 20
3.896586959734066
 30
0.0
  0
SEQEND
  5
527
  8
LAYER_1
  0
POLYLINE
  5
B1
  8
LAYER_1
 66
     1
 10
0.0
 20
0.0
 30
0.0
 70
     1
  0
VERTEX
  5
528
  8
LAYER_1
 10
105.4872813402044
 20
1.329543876033256
 30
0.0
  0
VERTEX
  5
529
  8
LAYER_1
 10
107.4607344114711
 20
0.0240231304615577
 30
0.0
  0
VERTEX
  5
52A
  8
LAYER_1
 10
105.4909347063217
 20
-1.288713353928358
 30
0.0
  0
VERTEX
  5
52B
  8
LAYER_1
 10
106.8449039577285
 20
-3.850828615996136
 30
0.0
  0
VERTEX
  5
52C
  8
LAYER_1
 10
99.7854887254116
 20
-3.863148170079569
 30
0.0
  0
VERTEX
  5
52D
  8
LAYER_1
 10
93.72423665309452
 20
-0.0002639904450348
 30
0.0
  0
VERTEX
  5
52E
  8
LAYER_1
 10
99.91240348748033
 20
3.884267405652793
 30
0.0
  0
VERTEX
  5
52F
  8
LAYER_1
 10
106.8337850173721
 20
3.896410966103929
 30
0.0
  0
SEQEND
  5
530
  8
LAYER_1
  0
POLYLINE
  5
B2
  8
LAYER_1
 66
     1
 10
0.0
 20
0.0
 30
0.0
 70
     1
  0
VERTEX
  5
531
  8
LAYER_1
 10
-99.85281371657538
 20
3.884267405652793
 30
0.0
  0
VERTEX
  5
532
  8
LAYER_1
 10
-93.66464688219003
 20
-0.0002639904450348
 30
0.0
  0
VERTEX
  5
533
  8
LAYER_1
 10
-99.72589895450665
 20
-3.863148170079569
 30
0.0
  0
VERTEX
  5
534
  8
LAYER_1
 10
-106.7853141868236
 20
-3.850828615996136
 30
0.0
  0
VERTEX
  5
535
  8
LAYER_1
 10
-105.4313449354167
 20
-1.288713353928358
 30
0.0
  0
VERTEX
  5
536
  8
LAYER_1
 10
-107.4011446405666
 20
0.0240231304615577
 30
0.0
  0
VERTEX
  5
537
  8
LAYER_1
 10
-105.4276915692999
 20
1.329543876033256
 30
0.0
  0
VERTEX
  5
538
  8
LAYER_1
 10
-106.7741952464671
 20
3.896410966103929
 30
0.0
  0
SEQEND
  5
539
  8
LAYER_1
  0
POLYLINE
  5
B3
  8
LAYER_1
 66
     1
 10
0.0
 20
0.0
 30
0.0
 70
     1
  0
VERTEX
  5
53A
  8
LAYER_1
 10
-157.700371657103
 20
5.250505953491086
 30
0.0
  0
VERTEX
  5
53B
  8
LAYER_1
 10
-155.4246422501456
 20
6.71829282570053
 30
0.0
  0
VERTEX
  5
53C
  8
LAYER_1
 10
-155.4152705718452
 20
3.882683462983721
 30
0.0
  0
VERTEX
  5
53D
  8
LAYER_1
 10
-152.8560081857981
 20
3.893067087140082
 30
0.0
  0
VERTEX
  5
53E
  8
LAYER_1
 10
-154.0956111935384
 20
1.494097919858461
 30
0.0
  0
VERTEX
  5
53F
  8
LAYER_1
 10
-151.8473614534619
 20
0.0611577863421076
 30
0.0
  0
VERTEX
  5
540
  8
LAYER_1
 10
-154.0887809873193
 20
-1.384629882148204
 30
0.0
  0
VERTEX
  5
541
  8
LAYER_1
 10
-152.8380590392226
 20
-3.77655930423515
 30
0.0
  0
VERTEX
  5
542
  8
LAYER_1
 10
-155.3974802672747
 20
-3.780783151351955
 30
0.0
  0
VERTEX
  5
543
  8
LAYER_1
 10
-155.3935092171478
 20
-6.616568507696741
 30
0.0
  0
VERTEX
  5
544
  8
LAYER_1
 10
-157.6759099883188
 20
-5.161805164089003
 30
0.0
  0
VERTEX
  5
545
  8
LAYER_1
 10
-158.9280615144612
 20
-7.584709465014896
 30
0.0
  0
VERTEX
  5
546
  8
LAYER_1
 10
-159.0
 20
-7.447145118107585
 30
0.0
  0
VERTEX
  5
547
  8
LAYER_1
 10
-159.0
 20
7.595842283252239
 30
0.0
  0
VERTEX
  5
548
  8
LAYER_1
 10
-158.9636421236019
 20
7.666194515596487
 30
0.0
  0
SEQEND
  5
549
  8
LAYER_1
  0
POLYLINE
  5
B4
  8
LAYER_1
 66
     1
 10
0.0
 20
0.0
 30
0.0
 70
     1
  0
VERTEX
  5
54A
  8
LAYER_1
 10
120.6015746507519
 20
-6.644023513941477
 30
0.0
  0
VERTEX
  5
54B
  8
LAYER_1
 10
122.884134263928
 20
-5.189260170331579
 30
0.0
  0
VERTEX
  5
54C
  8
LAYER_1
 10
122.8801632138006
 20
-8.025045526678525
 30
0.0
  0
VERTEX
  5
54D
  8
LAYER_1
 10
125.4394255998477
 20
-8.029445367423307
 30
0.0
  0
VERTEX
  5
54E
  8
LAYER_1
 10
124.1888624937565
 20
-10.42102280225214
 30
0.0
  0
VERTEX
  5
54F
  8
LAYER_1
 10
126.4301231856084
 20
-11.86698646437031
 30
0.0
  0
VERTEX
  5
550
  8
LAYER_1
 10
124.1820322875374
 20
-13.30010259151908
 30
0.0
  0
VERTEX
  5
551
  8
LAYER_1
 10
125.4216352952776
 20
-15.6988957651684
 30
0.0
  0
VERTEX
  5
552
  8
LAYER_1
 10
122.86205522522
 20
-15.68851214101204
 30
0.0
  0
VERTEX
  5
553
  8
LAYER_1
 10
122.8530012309297
 20
-18.52429749735899
 30
0.0
  0
VERTEX
  5
554
  8
LAYER_1
 10
120.5772718239728
 20
-17.05633463151941
 30
0.0
  0
VERTEX
  5
555
  8
LAYER_1
 10
119.3171781975757
 20
-19.45600777331714
 30
0.0
  0
VERTEX
  5
556
  8
LAYER_1
 10
118.0111792317066
 20
-17.04911889269903
 30
0.0
  0
VERTEX
  5
557
  8
LAYER_1
 10
115.7287784605355
 20
-18.50388223630665
 30
0.0
  0
VERTEX
  5
558
  8
LAYER_1
 10
115.7325906686578
 20
-15.66809687995971
 30
0.0
  0
VERTEX
  5
559
  8
LAYER_1
 10
113.1733282826108
 20
-15.66387303284733
 30
0.0
  0
VERTEX
  5
55A
  8
LAYER_1
 10
114.423891388702
 20
-13.27194361075595
 30
0.0
  0
VERTEX
  5
55B
  8
LAYER_1
 10
112.1824718548446
 20
-11.82615594226792
 30
0.0
  0
VERTEX
  5
55C
  8
LAYER_1
 10
114.4307215949211
 20
-10.39303981511927
 30
0.0
  0
VERTEX
  5
55D
  8
LAYER_1
 10
113.1911185871809
 20
-7.994246641472103
 30
0.0
  0
VERTEX
  5
55E
  8
LAYER_1
 10
115.7503809732279
 20
-8.00463026562619
 30
0.0
  0
VERTEX
  5
55F
  8
LAYER_1
 10
115.7597526515283
 20
-5.169020902909494
 30
0.0
  0
VERTEX
  5
560
  8
LAYER_1
 10
118.0354820584857
 20
-6.636807775121099
 30
0.0
  0
VERTEX
  5
561
  8
LAYER_1
 10
119.3171781975757
 20
-4.244174378511332
 30
0.0
  0
SEQEND
  5
562
  8
LAYER_1
  0
POLYLINE
  5
B5
  8
LAYER_1
 66
     1
 10
0.0
 20
0.0
 30
0.0
 70
     1
  0
VERTEX
  5
563
  8
LAYER_1
 10
41.07700711728376
 20
-6.644023513941477
 30
0.0
  0
VERTEX
  5
564
  8
LAYER_1
 10
43.35940788845483
 20
-5.189260170331579
 30
0.0
  0
VERTEX
  5
565
  8
LAYER_1
 10
43.35543683832748
 20
-8.025045526678525
 30
0.0
  0
VERTEX
  5
566
  8
LAYER_1
 10
45.91485806638002
 20
-8.029445367423307
 30
0.0
  0
VERTEX
  5
567
  8
LAYER_1
 10
44.6641361182833
 20
-10.42102280225214
 30
0.0
  0
VERTEX
  5
568
  8
LAYER_1
 10
46.90555565214072
 20
-11.86698646437031
 30
0.0
  0
VERTEX
  5
569
  8
LAYER_1
 10
44.65746475406922
 20
-13.30010259151908
 30
0.0
  0
VERTEX
  5
56A
  8
LAYER_1
 10
45.89706776180947
 20
-15.6988957651684
 30
0.0
  0
VERTEX
  5
56B
  8
LAYER_1
 10
43.33732884974734
 20
-15.68851214101204
 30
0.0
  0
VERTEX
  5
56C
  8
LAYER_1
 10
43.32827485545704
 20
-18.52429749735899
 30
0.0
  0
VERTEX
  5
56D
  8
LAYER_1
 10
41.05254544849959
 20
-17.05633463151941
 30
0.0
  0
VERTEX
  5
56E
  8
LAYER_1
 10
39.8216787510396
 20
-19.47184719999467
 30
0.0
  0
VERTEX
  5
56F
  8
LAYER_1
 10
38.56126744063204
 20
-17.04894289906889
 30
0.0
  0
VERTEX
  5
570
  8
LAYER_1
 10
36.27886666946097
 20
-18.50370624267663
 30
0.0
  0
VERTEX
  5
571
  8
LAYER_1
 10
36.28283771958831
 20
-15.66809687995971
 30
0.0
  0
VERTEX
  5
572
  8
LAYER_1
 10
33.72341649153623
 20
-15.66369703921504
 30
0.0
  0
VERTEX
  5
573
  8
LAYER_1
 10
34.9741384396325
 20
-13.27194361075595
 30
0.0
  0
VERTEX
  5
574
  8
LAYER_1
 10
32.73271890577553
 20
-11.82597994863778
 30
0.0
  0
VERTEX
  5
575
  8
LAYER_1
 10
34.98080980384657
 20
-10.39286382148902
 30
0.0
  0
VERTEX
  5
576
  8
LAYER_1
 10
33.74120679610633
 20
-7.994070647839806
 30
0.0
  0
VERTEX
  5
577
  8
LAYER_1
 10
36.30062802415841
 20
-8.004454271996053
 30
0.0
  0
VERTEX
  5
578
  8
LAYER_1
 10
36.30999970245875
 20
-5.169020902909494
 30
0.0
  0
VERTEX
  5
579
  8
LAYER_1
 10
38.58572910941621
 20
-6.636807775121099
 30
0.0
  0
VERTEX
  5
57A
  8
LAYER_1
 10
39.82993853530434
 20
-4.243998384883355
 30
0.0
  0
SEQEND
  5
57B
  8
LAYER_1
  0
POLYLINE
  5
B6
  8
LAYER_1
 66
     1
 10
0.0
 20
0.0
 30
0.0
 70
     1
  0
VERTEX
  5
57C
  8
LAYER_1
 10
-38.52613933851126
 20
-6.636807775121099
 30
0.0
  0
VERTEX
  5
57D
  8
LAYER_1
 10
-36.25040993155426
 20
-5.169020902909494
 30
0.0
  0
VERTEX
  5
57E
  8
LAYER_1
 10
-36.24103825325392
 20
-8.004454271996053
 30
0.0
  0
VERTEX
  5
57F
  8
LAYER_1
 10
-33.68161702520138
 20
-7.994070647839806
 30
0.0
  0
VERTEX
  5
580
  8
LAYER_1
 10
-34.92122003294207
 20
-10.39286382148902
 30
0.0
  0
VERTEX
  5
581
  8
LAYER_1
 10
-32.67312913487058
 20
-11.82597994863778
 30
0.0
  0
VERTEX
  5
582
  8
LAYER_1
 10
-34.914548668728
 20
-13.27194361075595
 30
0.0
  0
VERTEX
  5
583
  8
LAYER_1
 10
-33.66382672063128
 20
-15.66369703921504
 30
0.0
  0
VERTEX
  5
584
  8
LAYER_1
 10
-36.22324794868337
 20
-15.66809687995971
 30
0.0
  0
VERTEX
  5
585
  8
LAYER_1
 10
-36.21927689855602
 20
-18.50370624267663
 30
0.0
  0
VERTEX
  5
586
  8
LAYER_1
 10
-38.50167766972709
 20
-17.04894289906889
 30
0.0
  0
VERTEX
  5
587
  8
LAYER_1
 10
-39.76208898013465
 20
-19.47184719999467
 30
0.0
  0
VERTEX
  5
588
  8
LAYER_1
 10
-40.99295567759464
 20
-17.05633463151941
 30
0.0
  0
VERTEX
  5
589
  8
LAYER_1
 10
-43.26868508455209
 20
-18.52429749735899
 30
0.0
  0
VERTEX
  5
58A
  8
LAYER_1
 10
-43.27773907884239
 20
-15.68851214101204
 30
0.0
  0
VERTEX
  5
58B
  8
LAYER_1
 10
-45.83747799090452
 20
-15.6988957651684
 30
0.0
  0
VERTEX
  5
58C
  8
LAYER_1
 10
-44.59787498316427
 20
-13.30010259151908
 30
0.0
  0
VERTEX
  5
58D
  8
LAYER_1
 10
-46.84596588123577
 20
-11.86698646437031
 30
0.0
  0
VERTEX
  5
58E
  8
LAYER_1
 10
-44.60454634737835
 20
-10.42102280225214
 30
0.0
  0
VERTEX
  5
58F
  8
LAYER_1
 10
-45.85526829547507
 20
-8.029445367423307
 30
0.0
  0
VERTEX
  5
590
  8
LAYER_1
 10
-43.29584706742298
 20
-8.025045526678525
 30
0.0
  0
VERTEX
  5
591
  8
LAYER_1
 10
-43.29981811755033
 20
-5.189260170331579
 30
0.0
  0
VERTEX
  5
592
  8
LAYER_1
 10
-41.01741734637926
 20
-6.644023513941477
 30
0.0
  0
VERTEX
  5
593
  8
LAYER_1
 10
-39.77034876439939
 20
-4.243998384883355
 30
0.0
  0
SEQEND
  5
594
  8
LAYER_1
  0
POLYLINE
  5
B7
  8
LAYER_1
 66
     1
 10
0.0
 20
0.0
 30
0.0
 70
     1
  0
VERTEX
  5
595
  8
LAYER_1
 10
-117.9758922875808
 20
-6.636807775121099
 30
0.0
  0
VERTEX
  5
596
  8
LAYER_1
 10
-115.7001628806238
 20
-5.169020902909494
 30
0.0
  0
VERTEX
  5
597
  8
LAYER_1
 10
-115.690791202323
 20
-8.00463026562619
 30
0.0
  0
VERTEX
  5
598
  8
LAYER_1
 10
-113.1315288162759
 20
-7.994246641472103
 30
0.0
  0
VERTEX
  5
599
  8
LAYER_1
 10
-114.3711318240162
 20
-10.39303981511927
 30
0.0
  0
VERTEX
  5
59A
  8
LAYER_1
 10
-112.1228820839401
 20
-11.82615594226792
 30
0.0
  0
VERTEX
  5
59B
  8
LAYER_1
 10
-114.3643016177975
 20
-13.27194361075595
 30
0.0
  0
VERTEX
  5
59C
  8
LAYER_1
 10
-113.1137385117058
 20
-15.66387303284733
 30
0.0
  0
VERTEX
  5
59D
  8
LAYER_1
 10
-115.6730008977529
 20
-15.66809687995971
 30
0.0
  0
VERTEX
  5
59E
  8
LAYER_1
 10
-115.6691886896306
 20
-18.50388223630665
 30
0.0
  0
VERTEX
  5
59F
  8
LAYER_1
 10
-117.9515894608016
 20
-17.04911889269903
 30
0.0
  0
VERTEX
  5
5A0
  8
LAYER_1
 10
-119.2575884266707
 20
-19.45600777331714
 30
0.0
  0
VERTEX
  5
5A1
  8
LAYER_1
 10
-120.5176820530678
 20
-17.05633463151941
 30
0.0
  0
VERTEX
  5
5A2
  8
LAYER_1
 10
-122.7934114600253
 20
-18.52429749735899
 30
0.0
  0
VERTEX
  5
5A3
  8
LAYER_1
 10
-122.8024654543156
 20
-15.68851214101204
 30
0.0
  0
VERTEX
  5
5A4
  8
LAYER_1
 10
-125.3620455243727
 20
-15.6988957651684
 30
0.0
  0
VERTEX
  5
5A5
  8
LAYER_1
 10
-124.1224425166324
 20
-13.30010259151908
 30
0.0
  0
VERTEX
  5
5A6
  8
LAYER_1
 10
-126.3705334147039
 20
-11.86698646437031
 30
0.0
  0
VERTEX
  5
5A7
  8
LAYER_1
 10
-124.1292727228515
 20
-10.42102280225214
 30
0.0
  0
VERTEX
  5
5A8
  8
LAYER_1
 10
-125.3798358289432
 20
-8.029445367423307
 30
0.0
  0
VERTEX
  5
5A9
  8
LAYER_1
 10
-122.8205734428957
 20
-8.025045526678525
 30
0.0
  0
VERTEX
  5
5AA
  8
LAYER_1
 10
-122.824544493023
 20
-5.189260170331579
 30
0.0
  0
VERTEX
  5
5AB
  8
LAYER_1
 10
-120.541984879847
 20
-6.644023513941477
 30
0.0
  0
VERTEX
  5
5AC
  8
LAYER_1
 10
-119.2575884266707
 20
-4.244174378511332
 30
0.0
  0
SEQEND
  5
5AD
  8
LAYER_1
  0
POLYLINE
  5
B8
  8
LAYER_1
 66
     1
 10
0.0
 20
0.0
 30
0.0
 70
     1
  0
VERTEX
  5
5AE
  8
LAYER_1
 10
132.1247679101725
 20
-7.746975591656962
 30
0.0
  0
VERTEX
  5
5AF
  8
LAYER_1
 10
129.7189469010445
 20
-9.246265323593377
 30
0.0
  0
VERTEX
  5
5B0
  8
LAYER_1
 10
128.9703245310443
 20
-8.77090652960868
 30
0.0
  0
VERTEX
  5
5B1
  8
LAYER_1
 10
129.5238889187913
 20
-7.742575750912181
 30
0.0
  0
SEQEND
  5
5B2
  8
LAYER_1
  0
POLYLINE
  5
B9
  8
LAYER_1
 66
     1
 10
0.0
 20
0.0
 30
0.0
 70
     1
  0
VERTEX
  5
5B3
  8
LAYER_1
 10
-128.9107347601398
 20
-8.77090652960868
 30
0.0
  0
VERTEX
  5
5B4
  8
LAYER_1
 10
-129.6593571301396
 20
-9.246265323593377
 30
0.0
  0
VERTEX
  5
5B5
  8
LAYER_1
 10
-132.0651781392676
 20
-7.746975591656962
 30
0.0
  0
VERTEX
  5
5B6
  8
LAYER_1
 10
-129.4642991478863
 20
-7.742575750912181
 30
0.0
  0
SEQEND
  5
5B7
  8
LAYER_1
  0
POLYLINE
  5
BA
  8
LAYER_1
 66
     1
 10
0.0
 20
0.0
 30
0.0
 70
     1
  0
VERTEX
  5
5B8
  8
LAYER_1
 10
52.60020037670438
 20
-7.746975591656962
 30
0.0
  0
VERTEX
  5
5B9
  8
LAYER_1
 10
50.19422052557138
 20
-9.2464413172234
 30
0.0
  0
VERTEX
  5
5BA
  8
LAYER_1
 10
49.44559815557159
 20
-8.77090652960868
 30
0.0
  0
VERTEX
  5
5BB
  8
LAYER_1
 10
49.99932138532313
 20
-7.742575750912181
 30
0.0
  0
SEQEND
  5
5BC
  8
LAYER_1
  0
POLYLINE
  5
BB
  8
LAYER_1
 66
     1
 10
0.0
 20
0.0
 30
0.0
 70
     1
  0
VERTEX
  5
5BD
  8
LAYER_1
 10
-49.38600838466664
 20
-8.77090652960868
 30
0.0
  0
VERTEX
  5
5BE
  8
LAYER_1
 10
-50.13463075466643
 20
-9.2464413172234
 30
0.0
  0
VERTEX
  5
5BF
  8
LAYER_1
 10
-52.54061060579943
 20
-7.746975591656962
 30
0.0
  0
VERTEX
  5
5C0
  8
LAYER_1
 10
-49.93973161441818
 20
-7.742575750912181
 30
0.0
  0
SEQEND
  5
5C1
  8
LAYER_1
  0
POLYLINE
  5
BC
  8
LAYER_1
 66
     1
 10
0.0
 20
0.0
 30
0.0
 70
     1
  0
VERTEX
  5
5C2
  8
LAYER_1
 10
109.0577319306694
 20
-8.03842104254062
 30
0.0
  0
VERTEX
  5
5C3
  8
LAYER_1
 10
109.4937532346476
 20
-8.86383116612268
 30
0.0
  0
VERTEX
  5
5C4
  8
LAYER_1
 10
108.5518201444502
 20
-9.450417934116501
 30
0.0
  0
VERTEX
  5
5C5
  8
LAYER_1
 10
106.2972167241701
 20
-8.013605940743616
 30
0.0
  0
SEQEND
  5
5C6
  8
LAYER_1
  0
POLYLINE
  5
BD
  8
LAYER_1
 66
     1
 10
0.0
 20
0.0
 30
0.0
 70
     1
  0
VERTEX
  5
5C7
  8
LAYER_1
 10
29.60782013959442
 20
-8.03842104254062
 30
0.0
  0
VERTEX
  5
5C8
  8
LAYER_1
 10
30.04400028557802
 20
-8.863655172492543
 30
0.0
  0
VERTEX
  5
5C9
  8
LAYER_1
 10
29.10190835337562
 20
-9.450417934116501
 30
0.0
  0
VERTEX
  5
5CA
  8
LAYER_1
 10
26.84746377510055
 20
-8.01342994711564
 30
0.0
  0
SEQEND
  5
5CB
  8
LAYER_1
  0
POLYLINE
  5
BE
  8
LAYER_1
 66
     1
 10
0.0
 20
0.0
 30
0.0
 70
     1
  0
VERTEX
  5
5CC
  8
LAYER_1
 10
-29.04231858247067
 20
-9.450417934116501
 30
0.0
  0
VERTEX
  5
5CD
  8
LAYER_1
 10
-29.98441051467353
 20
-8.863655172492543
 30
0.0
  0
VERTEX
  5
5CE
  8
LAYER_1
 10
-29.54823036868993
 20
-8.03842104254062
 30
0.0
  0
VERTEX
  5
5CF
  8
LAYER_1
 10
-26.78787400419606
 20
-8.01342994711564
 30
0.0
  0
SEQEND
  5
5D0
  8
LAYER_1
  0
POLYLINE
  5
BF
  8
LAYER_1
 66
     1
 10
0.0
 20
0.0
 30
0.0
 70
     1
  0
VERTEX
  5
5D1
  8
LAYER_1
 10
-108.4922303735452
 20
-9.450417934116501
 30
0.0
  0
VERTEX
  5
5D2
  8
LAYER_1
 10
-109.4341634637426
 20
-8.86383116612268
 30
0.0
  0
VERTEX
  5
5D3
  8
LAYER_1
 10
-108.9981421597645
 20
-8.03842104254062
 30
0.0
  0
VERTEX
  5
5D4
  8
LAYER_1
 10
-106.2376269532656
 20
-8.013605940743616
 30
0.0
  0
SEQEND
  5
5D5
  8
LAYER_1
  0
POLYLINE
  5
C0
  8
LAYER_1
 66
     1
 10
0.0
 20
0.0
 30
0.0
 70
     1
  0
VERTEX
  5
5D6
  8
LAYER_1
 10
8.240234772573785
 20
-7.845708017952404
 30
0.0
  0
VERTEX
  5
5D7
  8
LAYER_1
 10
9.63915631142163
 20
-10.53383471892818
 30
0.0
  0
VERTEX
  5
5D8
  8
LAYER_1
 10
7.159314927921059
 20
-8.94531621670177
 30
0.0
  0
VERTEX
  5
5D9
  8
LAYER_1
 10
7.149943249620264
 20
-7.83602836831443
 30
0.0
  0
SEQEND
  5
5DA
  8
LAYER_1
  0
POLYLINE
  5
C1
  8
LAYER_1
 66
     1
 10
0.0
 20
0.0
 30
0.0
 70
     1
  0
VERTEX
  5
5DB
  8
LAYER_1
 10
-7.09972515701611
 20
-8.94531621670177
 30
0.0
  0
VERTEX
  5
5DC
  8
LAYER_1
 10
-9.579566540517135
 20
-10.53383471892818
 30
0.0
  0
VERTEX
  5
5DD
  8
LAYER_1
 10
-8.18064500166929
 20
-7.845708017952404
 30
0.0
  0
VERTEX
  5
5DE
  8
LAYER_1
 10
-7.09035347871577
 20
-7.83602836831443
 30
0.0
  0
SEQEND
  5
5DF
  8
LAYER_1
  0
POLYLINE
  5
C2
  8
LAYER_1
 66
     1
 10
0.0
 20
0.0
 30
0.0
 70
     1
  0
VERTEX
  5
5E0
  8
LAYER_1
 10
87.68998772164332
 20
-7.845884011580381
 30
0.0
  0
VERTEX
  5
5E1
  8
LAYER_1
 10
89.08890926049116
 20
-10.5340107125582
 30
0.0
  0
VERTEX
  5
5E2
  8
LAYER_1
 10
86.6090678769906
 20
-8.945492210331906
 30
0.0
  0
VERTEX
  5
5E3
  8
LAYER_1
 10
86.5996961986898
 20
-7.836204361944681
 30
0.0
  0
SEQEND
  5
5E4
  8
LAYER_1
  0
POLYLINE
  5
C3
  8
LAYER_1
 66
     1
 10
0.0
 20
0.0
 30
0.0
 70
     1
  0
VERTEX
  5
5E5
  8
LAYER_1
 10
-86.54947810608564
 20
-8.945492210331906
 30
0.0
  0
VERTEX
  5
5E6
  8
LAYER_1
 10
-89.02931948958667
 20
-10.5340107125582
 30
0.0
  0
VERTEX
  5
5E7
  8
LAYER_1
 10
-87.63039795073882
 20
-7.845884011580381
 30
0.0
  0
VERTEX
  5
5E8
  8
LAYER_1
 10
-86.54010642778485
 20
-7.836204361944681
 30
0.0
  0
SEQEND
  5
5E9
  8
LAYER_1
  0
POLYLINE
  5
C4
  8
LAYER_1
 66
     1
 10
0.0
 20
0.0
 30
0.0
 70
     1
  0
VERTEX
  5
5EA
  8
LAYER_1
 10
151.8743886133229
 20
-9.04264069395839
 30
0.0
  0
VERTEX
  5
5EB
  8
LAYER_1
 10
149.446170881477
 20
-10.5883927441551
 30
0.0
  0
VERTEX
  5
5EC
  8
LAYER_1
 10
150.8836910275622
 20
-7.842892119876808
 30
0.0
  0
VERTEX
  5
5ED
  8
LAYER_1
 10
151.8851898696694
 20
-7.834620419275609
 30
0.0
  0
SEQEND
  5
5EE
  8
LAYER_1
  0
POLYLINE
  5
C5
  8
LAYER_1
 66
     1
 10
0.0
 20
0.0
 30
0.0
 70
     1
  0
VERTEX
  5
5EF
  8
LAYER_1
 10
72.34982107985525
 20
-9.04264069395839
 30
0.0
  0
VERTEX
  5
5F0
  8
LAYER_1
 10
69.92160334800928
 20
-10.5883927441551
 30
0.0
  0
VERTEX
  5
5F1
  8
LAYER_1
 10
71.35896465208907
 20
-7.842892119876808
 30
0.0
  0
VERTEX
  5
5F2
  8
LAYER_1
 10
72.36046349419621
 20
-7.834620419275609
 30
0.0
  0
SEQEND
  5
5F3
  8
LAYER_1
  0
POLYLINE
  5
C6
  8
LAYER_1
 66
     1
 10
0.0
 20
0.0
 30
0.0
 70
     1
  0
VERTEX
  5
5F4
  8
LAYER_1
 10
-71.29937488118412
 20
-7.842892119876808
 30
0.0
  0
VERTEX
  5
5F5
  8
LAYER_1
 10
-69.86201357710434
 20
-10.5883927441551
 30
0.0
  0
VERTEX
  5
5F6
  8
LAYER_1
 10
-72.2902313089503
 20
-9.04264069395839
 30
0.0
  0
VERTEX
  5
5F7
  8
LAYER_1
 10
-72.30087372329126
 20
-7.834620419275609
 30
0.0
  0
SEQEND
  5
5F8
  8
LAYER_1
  0
POLYLINE
  5
C7
  8
LAYER_1
 66
     1
 10
0.0
 20
0.0
 30
0.0
 70
     1
  0
VERTEX
  5
5F9
  8
LAYER_1
 10
-150.8241012566577
 20
-7.842892119876808
 30
0.0
  0
VERTEX
  5
5FA
  8
LAYER_1
 10
-149.3865811105725
 20
-10.5883927441551
 30
0.0
  0
VERTEX
  5
5FB
  8
LAYER_1
 10
-151.814798842418
 20
-9.04264069395839
 30
0.0
  0
VERTEX
  5
5FC
  8
LAYER_1
 10
-151.8256000987644
 20
-7.834620419275609
 30
0.0
  0
SEQEND
  5
5FD
  8
LAYER_1
  0
POLYLINE
  5
C8
  8
LAYER_1
 66
     1
 10
0.0
 20
0.0
 30
0.0
 70
     1
  0
VERTEX
  5
5FE
  8
LAYER_1
 10
3.633022414871903
 20
-11.31683037773649
 30
0.0
  0
VERTEX
  5
5FF
  8
LAYER_1
 10
3.645888617284527
 20
-14.42012605132078
 30
0.0
  0
VERTEX
  5
600
  8
LAYER_1
 10
2.202173633000712
 20
-11.6784972868989
 30
0.0
  0
VERTEX
  5
601
  8
LAYER_1
 10
2.690612798659458
 20
-10.70982834869034
 30
0.0
  0
SEQEND
  5
602
  8
LAYER_1
  0
POLYLINE
  5
C9
  8
LAYER_1
 66
     1
 10
0.0
 20
0.0
 30
0.0
 70
     1
  0
VERTEX
  5
603
  8
LAYER_1
 10
-2.142583862095762
 20
-11.6784972868989
 30
0.0
  0
VERTEX
  5
604
  8
LAYER_1
 10
-3.586298846379577
 20
-14.42012605132078
 30
0.0
  0
VERTEX
  5
605
  8
LAYER_1
 10
-3.573432643966953
 20
-11.31683037773649
 30
0.0
  0
VERTEX
  5
606
  8
LAYER_1
 10
-2.631023027754509
 20
-10.70982834869034
 30
0.0
  0
SEQEND
  5
607
  8
LAYER_1
  0
POLYLINE
  5
CA
  8
LAYER_1
 66
     1
 10
0.0
 20
0.0
 30
0.0
 70
     1
  0
VERTEX
  5
608
  8
LAYER_1
 10
83.08277536394144
 20
-11.31700637136663
 30
0.0
  0
VERTEX
  5
609
  8
LAYER_1
 10
83.09564156635406
 20
-14.42030204495092
 30
0.0
  0
VERTEX
  5
60A
  8
LAYER_1
 10
81.65192658206979
 20
-11.67867328052688
 30
0.0
  0
VERTEX
  5
60B
  8
LAYER_1
 10
82.14036574772899
 20
-10.71000434231831
 30
0.0
  0
SEQEND
  5
60C
  8
LAYER_1
  0
POLYLINE
  5
CB
  8
LAYER_1
 66
     1
 10
0.0
 20
0.0
 30
0.0
 70
     1
  0
VERTEX
  5
60D
  8
LAYER_1
 10
-81.5923368111653
 20
-11.67867328052688
 30
0.0
  0
VERTEX
  5
60E
  8
LAYER_1
 10
-83.03605179544911
 20
-14.42030204495092
 30
0.0
  0
VERTEX
  5
60F
  8
LAYER_1
 10
-83.02318559303649
 20
-11.31700637136663
 30
0.0
  0
VERTEX
  5
610
  8
LAYER_1
 10
-82.08077597682404
 20
-10.71000434231831
 30
0.0
  0
SEQEND
  5
611
  8
LAYER_1
  0
POLYLINE
  5
CC
  8
LAYER_1
 66
     1
 10
0.0
 20
0.0
 30
0.0
 70
     1
  0
VERTEX
  5
612
  8
LAYER_1
 10
156.9400189977214
 20
-11.77828567497085
 30
0.0
  0
VERTEX
  5
613
  8
LAYER_1
 10
155.5369675667412
 20
-14.46412445876359
 30
0.0
  0
VERTEX
  5
614
  8
LAYER_1
 10
155.540144406843
 20
-11.29007934601231
 30
0.0
  0
VERTEX
  5
615
  8
LAYER_1
 10
156.4029741785043
 20
-10.72725171803683
 30
0.0
  0
SEQEND
  5
616
  8
LAYER_1
  0
POLYLINE
  5
CD
  8
LAYER_1
 66
     1
 10
0.0
 20
0.0
 30
0.0
 70
     1
  0
VERTEX
  5
617
  8
LAYER_1
 10
77.41529262224822
 20
-11.77828567497085
 30
0.0
  0
VERTEX
  5
618
  8
LAYER_1
 10
76.01240003327302
 20
-14.46412445876359
 30
0.0
  0
VERTEX
  5
619
  8
LAYER_1
 10
76.01541803136979
 20
-11.29007934601231
 30
0.0
  0
VERTEX
  5
61A
  8
LAYER_1
 10
76.8784066450362
 20
-10.72725171803683
 30
0.0
  0
SEQEND
  5
61B
  8
LAYER_1
  0
POLYLINE
  5
CE
  8
LAYER_1
 66
     1
 10
0.0
 20
0.0
 30
0.0
 70
     1
  0
VERTEX
  5
61C
  8
LAYER_1
 10
-75.9558282604653
 20
-11.29007934601231
 30
0.0
  0
VERTEX
  5
61D
  8
LAYER_1
 10
-75.95281026236808
 20
-14.46412445876359
 30
0.0
  0
VERTEX
  5
61E
  8
LAYER_1
 10
-77.35570285134372
 20
-11.77828567497085
 30
0.0
  0
VERTEX
  5
61F
  8
LAYER_1
 10
-76.8188168741317
 20
-10.72725171803683
 30
0.0
  0
SEQEND
  5
620
  8
LAYER_1
  0
POLYLINE
  5
CF
  8
LAYER_1
 66
     1
 10
0.0
 20
0.0
 30
0.0
 70
     1
  0
VERTEX
  5
621
  8
LAYER_1
 10
-155.480554635938
 20
-11.29007934601231
 30
0.0
  0
VERTEX
  5
622
  8
LAYER_1
 10
-155.4773777958362
 20
-14.46412445876359
 30
0.0
  0
VERTEX
  5
623
  8
LAYER_1
 10
-156.8804292268164
 20
-11.77828567497085
 30
0.0
  0
VERTEX
  5
624
  8
LAYER_1
 10
-156.3433844075994
 20
-10.72725171803683
 30
0.0
  0
SEQEND
  5
625
  8
LAYER_1
  0
POLYLINE
  5
D0
  8
LAYER_1
 66
     1
 10
0.0
 20
0.0
 30
0.0
 70
     1
  0
VERTEX
  5
626
  8
LAYER_1
 10
67.10501691371246
 20
-7.771790693451806
 30
0.0
  0
VERTEX
  5
627
  8
LAYER_1
 10
63.47976583149102
 20
-14.55141729912413
 30
0.0
  0
VERTEX
  5
628
  8
LAYER_1
 10
57.48030329915491
 20
-18.37558288020915
 30
0.0
  0
VERTEX
  5
629
  8
LAYER_1
 10
57.49650518367434
 20
-15.40674633976408
 30
0.0
  0
VERTEX
  5
62A
  8
LAYER_1
 10
55.19822021199388
 20
-15.36116398965663
 30
0.0
  0
VERTEX
  5
62B
  8
LAYER_1
 10
56.31805634789453
 20
-13.13713249036078
 30
0.0
  0
VERTEX
  5
62C
  8
LAYER_1
 10
53.99356244537421
 20
-11.66036994303187
 30
0.0
  0
VERTEX
  5
62D
  8
LAYER_1
 10
60.11279184954947
 20
-7.759647132998509
 30
0.0
  0
SEQEND
  5
62E
  8
LAYER_1
  0
POLYLINE
  5
D1
  8
LAYER_1
 66
     1
 10
0.0
 20
0.0
 30
0.0
 70
     1
  0
VERTEX
  5
62F
  8
LAYER_1
 10
-53.93397267446926
 20
-11.66036994303187
 30
0.0
  0
VERTEX
  5
630
  8
LAYER_1
 10
-56.25846657699003
 20
-13.13713249036078
 30
0.0
  0
VERTEX
  5
631
  8
LAYER_1
 10
-55.13863044108939
 20
-15.36116398965663
 30
0.0
  0
VERTEX
  5
632
  8
LAYER_1
 10
-57.43691541276939
 20
-15.40674633976408
 30
0.0
  0
VERTEX
  5
633
  8
LAYER_1
 10
-57.42071352824996
 20
-18.37558288020915
 30
0.0
  0
VERTEX
  5
634
  8
LAYER_1
 10
-63.42017606058607
 20
-14.55141729912413
 30
0.0
  0
VERTEX
  5
635
  8
LAYER_1
 10
-67.04542714280751
 20
-7.771790693451806
 30
0.0
  0
VERTEX
  5
636
  8
LAYER_1
 10
-60.05320207864497
 20
-7.759647132998509
 30
0.0
  0
SEQEND
  5
637
  8
LAYER_1
  0
POLYLINE
  5
D2
  8
LAYER_1
 66
     1
 10
0.0
 20
0.0
 30
0.0
 70
     1
  0
VERTEX
  5
638
  8
LAYER_1
 10
146.6297432891856
 20
-7.771790693451806
 30
0.0
  0
VERTEX
  5
639
  8
LAYER_1
 10
143.0044922069642
 20
-14.55159329275426
 30
0.0
  0
VERTEX
  5
63A
  8
LAYER_1
 10
137.0050296746281
 20
-18.37575887384145
 30
0.0
  0
VERTEX
  5
63B
  8
LAYER_1
 10
137.0210727171425
 20
-15.40674633976408
 30
0.0
  0
VERTEX
  5
63C
  8
LAYER_1
 10
134.722946587467
 20
-15.36116398965663
 30
0.0
  0
VERTEX
  5
63D
  8
LAYER_1
 10
135.8427827233677
 20
-13.13713249036078
 30
0.0
  0
VERTEX
  5
63E
  8
LAYER_1
 10
133.5182888208469
 20
-11.66036994303187
 30
0.0
  0
VERTEX
  5
63F
  8
LAYER_1
 10
139.6375182250226
 20
-7.759647132998509
 30
0.0
  0
SEQEND
  5
640
  8
LAYER_1
  0
POLYLINE
  5
D3
  8
LAYER_1
 66
     1
 10
0.0
 20
0.0
 30
0.0
 70
     1
  0
VERTEX
  5
641
  8
LAYER_1
 10
-133.458699049942
 20
-11.66036994303187
 30
0.0
  0
VERTEX
  5
642
  8
LAYER_1
 10
-135.7831929524627
 20
-13.13713249036078
 30
0.0
  0
VERTEX
  5
643
  8
LAYER_1
 10
-134.6633568165621
 20
-15.36116398965663
 30
0.0
  0
VERTEX
  5
644
  8
LAYER_1
 10
-136.9614829462375
 20
-15.40674633976408
 30
0.0
  0
VERTEX
  5
645
  8
LAYER_1
 10
-136.9454399037231
 20
-18.37575887384145
 30
0.0
  0
VERTEX
  5
646
  8
LAYER_1
 10
-142.9449024360592
 20
-14.55159329275426
 30
0.0
  0
VERTEX
  5
647
  8
LAYER_1
 10
-146.5701535182807
 20
-7.771790693451806
 30
0.0
  0
VERTEX
  5
648
  8
LAYER_1
 10
-139.5779284541177
 20
-7.759647132998509
 30
0.0
  0
SEQEND
  5
649
  8
LAYER_1
  0
POLYLINE
  5
D4
  8
LAYER_1
 66
     1
 10
0.0
 20
0.0
 30
0.0
 70
     1
  0
VERTEX
  5
64A
  8
LAYER_1
 10
19.48227768298102
 20
-7.882138699312407
 30
0.0
  0
VERTEX
  5
64B
  8
LAYER_1
 10
25.49254147166357
 20
-11.68536103845685
 30
0.0
  0
VERTEX
  5
64C
  8
LAYER_1
 10
23.17217746127517
 20
-13.17021929275467
 30
0.0
  0
VERTEX
  5
64D
  8
LAYER_1
 10
24.29836727737938
 20
-15.39037893219626
 30
0.0
  0
VERTEX
  5
64E
  8
LAYER_1
 10
22.0002411477044
 20
-15.4437050020145
 30
0.0
  0
VERTEX
  5
64F
  8
LAYER_1
 10
22.02502050049861
 20
-18.41271753608959
 30
0.0
  0
VERTEX
  5
650
  8
LAYER_1
 10
15.89467215596642
 20
-14.5338179361475
 30
0.0
  0
VERTEX
  5
651
  8
LAYER_1
 10
12.36996806296838
 20
-7.842540132616534
 30
0.0
  0
SEQEND
  5
652
  8
LAYER_1
  0
POLYLINE
  5
D5
  8
LAYER_1
 66
     1
 10
0.0
 20
0.0
 30
0.0
 70
     1
  0
VERTEX
  5
653
  8
LAYER_1
 10
-15.83508238506192
 20
-14.5338179361475
 30
0.0
  0
VERTEX
  5
654
  8
LAYER_1
 10
-21.96543072959366
 20
-18.41271753608959
 30
0.0
  0
VERTEX
  5
655
  8
LAYER_1
 10
-21.94065137679945
 20
-15.4437050020145
 30
0.0
  0
VERTEX
  5
656
  8
LAYER_1
 10
-24.23877750647489
 20
-15.39037893219626
 30
0.0
  0
VERTEX
  5
657
  8
LAYER_1
 10
-23.11258769037022
 20
-13.17021929275467
 30
0.0
  0
VERTEX
  5
658
  8
LAYER_1
 10
-25.43295170075862
 20
-11.68536103845685
 30
0.0
  0
VERTEX
  5
659
  8
LAYER_1
 10
-19.42268791207653
 20
-7.882138699312407
 30
0.0
  0
VERTEX
  5
65A
  8
LAYER_1
 10
-12.31037829206389
 20
-7.842540132616534
 30
0.0
  0
SEQEND
  5
65B
  8
LAYER_1
  0
POLYLINE
  5
D6
  8
LAYER_1
 66
     1
 10
0.0
 20
0.0
 30
0.0
 70
     1
  0
VERTEX
  5
65C
  8
LAYER_1
 10
98.93218947405558
 20
-7.88231469294243
 30
0.0
  0
VERTEX
  5
65D
  8
LAYER_1
 10
104.9424532627381
 20
-11.68553703208687
 30
0.0
  0
VERTEX
  5
65E
  8
LAYER_1
 10
102.6220892523497
 20
-13.1703952863848
 30
0.0
  0
VERTEX
  5
65F
  8
LAYER_1
 10
103.7481202264489
 20
-15.39055492582639
 30
0.0
  0
VERTEX
  5
660
  8
LAYER_1
 10
101.4499940967739
 20
-15.44388099564463
 30
0.0
  0
VERTEX
  5
661
  8
LAYER_1
 10
101.4749322915732
 20
-18.41289352971972
 30
0.0
  0
VERTEX
  5
662
  8
LAYER_1
 10
95.34442510503595
 20
-14.53399392977764
 30
0.0
  0
VERTEX
  5
663
  8
LAYER_1
 10
91.81972101203792
 20
-7.842716126244397
 30
0.0
  0
SEQEND
  5
664
  8
LAYER_1
  0
POLYLINE
  5
D7
  8
LAYER_1
 66
     1
 10
0.0
 20
0.0
 30
0.0
 70
     1
  0
VERTEX
  5
665
  8
LAYER_1
 10
-95.28483533413146
 20
-14.53399392977764
 30
0.0
  0
VERTEX
  5
666
  8
LAYER_1
 10
-101.4153425206682
 20
-18.41289352971972
 30
0.0
  0
VERTEX
  5
667
  8
LAYER_1
 10
-101.390404325869
 20
-15.44388099564463
 30
0.0
  0
VERTEX
  5
668
  8
LAYER_1
 10
-103.688530455544
 20
-15.39055492582639
 30
0.0
  0
VERTEX
  5
669
  8
LAYER_1
 10
-102.5624994814448
 20
-13.1703952863848
 30
0.0
  0
VERTEX
  5
66A
  8
LAYER_1
 10
-104.8828634918332
 20
-11.68553703208687
 30
0.0
  0
VERTEX
  5
66B
  8
LAYER_1
 10
-98.87259970315108
 20
-7.88231469294243
 30
0.0
  0
VERTEX
  5
66C
  8
LAYER_1
 10
-91.76013124113297
 20
-7.842716126244397
 30
0.0
  0
SEQEND
  5
66D
  8
LAYER_1
  0
POLYLINE
  5
D8
  8
LAYER_1
 66
     1
 10
0.0
 20
0.0
 30
0.0
 70
     1
  0
VERTEX
  5
66E
  8
LAYER_1
 10
22.06536636979217
 20
-23.26503790224314
 30
0.0
  0
VERTEX
  5
66F
  8
LAYER_1
 10
22.07314962804139
 20
-24.22121129273802
 30
0.0
  0
VERTEX
  5
670
  8
LAYER_1
 10
20.99238862539369
 20
-24.21153164310232
 30
0.0
  0
VERTEX
  5
671
  8
LAYER_1
 10
19.68130671536164
 20
-21.72245373738446
 30
0.0
  0
SEQEND
  5
672
  8
LAYER_1
  0
POLYLINE
  5
D9
  8
LAYER_1
 66
     1
 10
0.0
 20
0.0
 30
0.0
 70
     1
  0
VERTEX
  5
673
  8
LAYER_1
 10
-20.93279885448874
 20
-24.21153164310232
 30
0.0
  0
VERTEX
  5
674
  8
LAYER_1
 10
-22.0135598571369
 20
-24.22121129273802
 30
0.0
  0
VERTEX
  5
675
  8
LAYER_1
 10
-22.00577659888722
 20
-23.26503790224314
 30
0.0
  0
VERTEX
  5
676
  8
LAYER_1
 10
-19.62171694445715
 20
-21.72245373738446
 30
0.0
  0
SEQEND
  5
677
  8
LAYER_1
  0
POLYLINE
  5
DA
  8
LAYER_1
 66
     1
 10
0.0
 20
0.0
 30
0.0
 70
     1
  0
VERTEX
  5
678
  8
LAYER_1
 10
101.5151193188617
 20
-23.26521389587327
 30
0.0
  0
VERTEX
  5
679
  8
LAYER_1
 10
101.5230614191159
 20
-24.22138728636827
 30
0.0
  0
VERTEX
  5
67A
  8
LAYER_1
 10
100.4421415744632
 20
-24.21170763673246
 30
0.0
  0
VERTEX
  5
67B
  8
LAYER_1
 10
99.1312185064362
 20
-21.72262973101471
 30
0.0
  0
SEQEND
  5
67C
  8
LAYER_1
  0
POLYLINE
  5
DB
  8
LAYER_1
 66
     1
 10
0.0
 20
0.0
 30
0.0
 70
     1
  0
VERTEX
  5
67D
  8
LAYER_1
 10
-100.3825518035583
 20
-24.21170763673246
 30
0.0
  0
VERTEX
  5
67E
  8
LAYER_1
 10
-101.4634716482115
 20
-24.22138728636827
 30
0.0
  0
VERTEX
  5
67F
  8
LAYER_1
 10
-101.4555295479568
 20
-23.26521389587327
 30
0.0
  0
VERTEX
  5
680
  8
LAYER_1
 10
-99.0716287355317
 20
-21.72262973101471
 30
0.0
  0
SEQEND
  5
681
  8
LAYER_1
  0
POLYLINE
  5
DC
  8
LAYER_1
 66
     1
 10
0.0
 20
0.0
 30
0.0
 70
     1
  0
VERTEX
  5
682
  8
LAYER_1
 10
-145.7668894985291
 20
-17.51303810074882
 30
0.0
  0
VERTEX
  5
683
  8
LAYER_1
 10
-142.2561635019792
 20
-24.29900047709299
 30
0.0
  0
VERTEX
  5
684
  8
LAYER_1
 10
-144.935828127886
 20
-24.27664928611358
 30
0.0
  0
VERTEX
  5
685
  8
LAYER_1
 10
-144.9804627313169
 20
-26.8225731342414
 30
0.0
  0
VERTEX
  5
686
  8
LAYER_1
 10
-146.9860018876125
 20
-25.57865015908914
 30
0.0
  0
VERTEX
  5
687
  8
LAYER_1
 10
-148.3228162024689
 20
-28.15167702619925
 30
0.0
  0
VERTEX
  5
688
  8
LAYER_1
 10
-151.764604768809
 20
-21.49841384669725
 30
0.0
  0
VERTEX
  5
689
  8
LAYER_1
 10
-151.8114631603112
 20
-13.61829907412704
 30
0.0
  0
SEQEND
  5
68A
  8
LAYER_1
  0
POLYLINE
  5
DD
  8
LAYER_1
 66
     1
 10
0.0
 20
0.0
 30
0.0
 70
     1
  0
VERTEX
  5
68B
  8
LAYER_1
 10
-66.24216312305589
 20
-17.51286210712084
 30
0.0
  0
VERTEX
  5
68C
  8
LAYER_1
 10
-62.7315959685111
 20
-24.29917647072313
 30
0.0
  0
VERTEX
  5
68D
  8
LAYER_1
 10
-65.41110175241283
 20
-24.27664928611358
 30
0.0
  0
VERTEX
  5
68E
  8
LAYER_1
 10
-65.4558951978488
 20
-26.82274912787381
 30
0.0
  0
VERTEX
  5
68F
  8
LAYER_1
 10
-67.46127551213931
 20
-25.57865015908914
 30
0.0
  0
VERTEX
  5
690
  8
LAYER_1
 10
-68.79808982699615
 20
-28.15167702619925
 30
0.0
  0
VERTEX
  5
691
  8
LAYER_1
 10
-72.23987839333586
 20
-21.49841384669725
 30
0.0
  0
VERTEX
  5
692
  8
LAYER_1
 10
-72.28673678483801
 20
-13.61847506775933
 30
0.0
  0
SEQEND
  5
693
  8
LAYER_1
  0
POLYLINE
  5
DE
  8
LAYER_1
 66
     1
 10
0.0
 20
0.0
 30
0.0
 70
     1
  0
VERTEX
  5
694
  8
LAYER_1
 10
137.936320350484
 20
-24.33631112660152
 30
0.0
  0
VERTEX
  5
695
  8
LAYER_1
 10
137.0733317368176
 20
-24.34352686542178
 30
0.0
  0
VERTEX
  5
696
  8
LAYER_1
 10
137.083815309154
 20
-23.14624220215336
 30
0.0
  0
VERTEX
  5
697
  8
LAYER_1
 10
139.3322238912351
 20
-21.69746264195732
 30
0.0
  0
SEQEND
  5
698
  8
LAYER_1
  0
POLYLINE
  5
DF
  8
LAYER_1
 66
     1
 10
0.0
 20
0.0
 30
0.0
 70
     1
  0
VERTEX
  5
699
  8
LAYER_1
 10
58.41175281701635
 20
-24.33631112660152
 30
0.0
  0
VERTEX
  5
69A
  8
LAYER_1
 10
57.54876420334995
 20
-24.34352686542178
 30
0.0
  0
VERTEX
  5
69B
  8
LAYER_1
 10
57.55924777568589
 20
-23.14624220215336
 30
0.0
  0
VERTEX
  5
69C
  8
LAYER_1
 10
59.80765635776743
 20
-21.69746264195732
 30
0.0
  0
SEQEND
  5
69D
  8
LAYER_1
  0
POLYLINE
  5
E0
  8
LAYER_1
 66
     1
 10
0.0
 20
0.0
 30
0.0
 70
     1
  0
VERTEX
  5
69E
  8
LAYER_1
 10
-57.49965800478094
 20
-23.14624220215336
 30
0.0
  0
VERTEX
  5
69F
  8
LAYER_1
 10
-57.489174432445
 20
-24.34352686542178
 30
0.0
  0
VERTEX
  5
6A0
  8
LAYER_1
 10
-58.3521630461114
 20
-24.33631112660152
 30
0.0
  0
VERTEX
  5
6A1
  8
LAYER_1
 10
-59.74806658686248
 20
-21.69746264195732
 30
0.0
  0
SEQEND
  5
6A2
  8
LAYER_1
  0
POLYLINE
  5
E1
  8
LAYER_1
 66
     1
 10
0.0
 20
0.0
 30
0.0
 70
     1
  0
VERTEX
  5
6A3
  8
LAYER_1
 10
-137.0242255382491
 20
-23.14624220215336
 30
0.0
  0
VERTEX
  5
6A4
  8
LAYER_1
 10
-137.0137419659127
 20
-24.34352686542178
 30
0.0
  0
VERTEX
  5
6A5
  8
LAYER_1
 10
-137.8767305795795
 20
-24.33631112660152
 30
0.0
  0
VERTEX
  5
6A6
  8
LAYER_1
 10
-139.2726341203306
 20
-21.69746264195732
 30
0.0
  0
SEQEND
  5
6A7
  8
LAYER_1
  0
POLYLINE
  5
E2
  8
LAYER_1
 66
     1
 10
0.0
 20
0.0
 30
0.0
 70
     1
  0
VERTEX
  5
6A8
  8
LAYER_1
 10
13.38099742538088
 20
-17.52201377586613
 30
0.0
  0
VERTEX
  5
6A9
  8
LAYER_1
 10
16.89982436419086
 20
-24.12564675177629
 30
0.0
  0
VERTEX
  5
6AA
  8
LAYER_1
 10
14.22015973828366
 20
-24.14131018482584
 30
0.0
  0
VERTEX
  5
6AB
  8
LAYER_1
 10
14.20522858980485
 20
-26.68811400110434
 30
0.0
  0
VERTEX
  5
6AC
  8
LAYER_1
 10
12.18539365305151
 20
-25.47252600034307
 30
0.0
  0
VERTEX
  5
6AD
  8
LAYER_1
 10
10.87875931916187
 20
-28.06456017947102
 30
0.0
  0
VERTEX
  5
6AE
  8
LAYER_1
 10
7.289406530091583
 20
-21.32893198123708
 30
0.0
  0
VERTEX
  5
6AF
  8
LAYER_1
 10
7.221422151912066
 20
-13.58204438639729
 30
0.0
  0
SEQEND
  5
6B0
  8
LAYER_1
  0
POLYLINE
  5
E3
  8
LAYER_1
 66
     1
 10
0.0
 20
0.0
 30
0.0
 70
     1
  0
VERTEX
  5
6B1
  8
LAYER_1
 10
92.83090921645544
 20
-17.52218976949638
 30
0.0
  0
VERTEX
  5
6B2
  8
LAYER_1
 10
96.34973615526542
 20
-24.12564675177629
 30
0.0
  0
VERTEX
  5
6B3
  8
LAYER_1
 10
93.67007152935821
 20
-24.14148617845598
 30
0.0
  0
VERTEX
  5
6B4
  8
LAYER_1
 10
93.65498153887438
 20
-26.68828999473459
 30
0.0
  0
VERTEX
  5
6B5
  8
LAYER_1
 10
91.63530544412606
 20
-25.47252600034307
 30
0.0
  0
VERTEX
  5
6B6
  8
LAYER_1
 10
90.32867111023643
 20
-28.06491216672913
 30
0.0
  0
VERTEX
  5
6B7
  8
LAYER_1
 10
86.73915947916112
 20
-21.3291079748671
 30
0.0
  0
VERTEX
  5
6B8
  8
LAYER_1
 10
86.6711751009816
 20
-13.58222038002731
 30
0.0
  0
SEQEND
  5
6B9
  8
LAYER_1
  0
POLYLINE
  5
E4
  8
LAYER_1
 66
     1
 10
0.0
 20
0.0
 30
0.0
 70
     1
  0
VERTEX
  5
6BA
  8
LAYER_1
 10
30.39996521899002
 20
-26.78103863761845
 30
0.0
  0
VERTEX
  5
6BB
  8
LAYER_1
 10
32.61311087594095
 20
-25.35689818558927
 30
0.0
  0
VERTEX
  5
6BC
  8
LAYER_1
 10
32.61978224015456
 20
-28.27434458614329
 30
0.0
  0
VERTEX
  5
6BD
  8
LAYER_1
 10
35.13981065094413
 20
-28.26114506391349
 30
0.0
  0
VERTEX
  5
6BE
  8
LAYER_1
 10
33.88559417873512
 20
-30.68281740943047
 30
0.0
  0
VERTEX
  5
6BF
  8
LAYER_1
 10
36.17212484203901
 20
-32.12966103969933
 30
0.0
  0
VERTEX
  5
6C0
  8
LAYER_1
 10
33.96167949917435
 20
-33.5590813006217
 30
0.0
  0
VERTEX
  5
6C1
  8
LAYER_1
 10
35.25179426453406
 20
-36.00838464601355
 30
0.0
  0
VERTEX
  5
6C2
  8
LAYER_1
 10
32.75702173255468
 20
-36.02105618735737
 30
0.0
  0
VERTEX
  5
6C3
  8
LAYER_1
 10
32.76385193877331
 20
-38.89503216136114
 30
0.0
  0
VERTEX
  5
6C4
  8
LAYER_1
 10
30.5116311485699
 20
-37.46965975392317
 30
0.0
  0
VERTEX
  5
6C5
  8
LAYER_1
 10
29.26996319476348
 20
-39.86722097216369
 30
0.0
  0
VERTEX
  5
6C6
  8
LAYER_1
 10
27.98445484755121
 20
-37.41510172869624
 30
0.0
  0
VERTEX
  5
6C7
  8
LAYER_1
 10
25.77115034859526
 20
-38.83941817435556
 30
0.0
  0
VERTEX
  5
6C8
  8
LAYER_1
 10
25.76416130037114
 20
-35.92161978654127
 30
0.0
  0
VERTEX
  5
6C9
  8
LAYER_1
 10
23.2446094155971
 20
-35.93499530240337
 30
0.0
  0
VERTEX
  5
6CA
  8
LAYER_1
 10
24.49866704580108
 20
-33.51349895051436
 30
0.0
  0
VERTEX
  5
6CB
  8
LAYER_1
 10
22.21213638249719
 20
-32.06647932661537
 30
0.0
  0
VERTEX
  5
6CC
  8
LAYER_1
 10
24.42242288335683
 20
-30.63705906569288
 30
0.0
  0
VERTEX
  5
6CD
  8
LAYER_1
 10
23.13230811799713
 20
-28.18793171393116
 30
0.0
  0
VERTEX
  5
6CE
  8
LAYER_1
 10
25.62723949198153
 20
-28.17490818532946
 30
0.0
  0
VERTEX
  5
6CF
  8
LAYER_1
 10
25.62040928576289
 20
-25.30128419858585
 30
0.0
  0
VERTEX
  5
6D0
  8
LAYER_1
 10
27.8726300759663
 20
-26.72648061239369
 30
0.0
  0
VERTEX
  5
6D1
  8
LAYER_1
 10
29.1144568717782
 20
-24.32891939415316
 30
0.0
  0
SEQEND
  5
6D2
  8
LAYER_1
  0
POLYLINE
  5
E5
  8
LAYER_1
 66
     1
 10
0.0
 20
0.0
 30
0.0
 70
     1
  0
VERTEX
  5
6D3
  8
LAYER_1
 10
109.8497181680596
 20
-26.78103863761845
 30
0.0
  0
VERTEX
  5
6D4
  8
LAYER_1
 10
112.0628638250105
 20
-25.35707417921941
 30
0.0
  0
VERTEX
  5
6D5
  8
LAYER_1
 10
112.0696940312291
 20
-28.27452057977342
 30
0.0
  0
VERTEX
  5
6D6
  8
LAYER_1
 10
114.5895636000137
 20
-28.26114506391349
 30
0.0
  0
VERTEX
  5
6D7
  8
LAYER_1
 10
113.3353471278047
 20
-30.68299340306061
 30
0.0
  0
VERTEX
  5
6D8
  8
LAYER_1
 10
115.6220366331136
 20
-32.12983703332958
 30
0.0
  0
VERTEX
  5
6D9
  8
LAYER_1
 10
113.4114324482439
 20
-33.55925729425195
 30
0.0
  0
VERTEX
  5
6DA
  8
LAYER_1
 10
114.7015472136036
 20
-36.00838464601355
 30
0.0
  0
VERTEX
  5
6DB
  8
LAYER_1
 10
112.2069335236292
 20
-36.02123218098524
 30
0.0
  0
VERTEX
  5
6DC
  8
LAYER_1
 10
112.2136048878428
 20
-38.89520815498912
 30
0.0
  0
VERTEX
  5
6DD
  8
LAYER_1
 10
109.9615429396445
 20
-37.46983574755342
 30
0.0
  0
VERTEX
  5
6DE
  8
LAYER_1
 10
108.719874985838
 20
-39.86722097216369
 30
0.0
  0
VERTEX
  5
6DF
  8
LAYER_1
 10
107.4342077966207
 20
-37.41510172869624
 30
0.0
  0
VERTEX
  5
6E0
  8
LAYER_1
 10
105.2210621396698
 20
-38.83959416798558
 30
0.0
  0
VERTEX
  5
6E1
  8
LAYER_1
 10
105.2140730914457
 20
-35.92179578016925
 30
0.0
  0
VERTEX
  5
6E2
  8
LAYER_1
 10
102.6943623646666
 20
-35.93499530240337
 30
0.0
  0
VERTEX
  5
6E3
  8
LAYER_1
 10
103.9485788368756
 20
-33.5136749441445
 30
0.0
  0
VERTEX
  5
6E4
  8
LAYER_1
 10
101.6618893315667
 20
-32.06647932661537
 30
0.0
  0
VERTEX
  5
6E5
  8
LAYER_1
 10
103.8723346744309
 20
-30.63723505932302
 30
0.0
  0
VERTEX
  5
6E6
  8
LAYER_1
 10
102.5820610670667
 20
-28.18810770756141
 30
0.0
  0
VERTEX
  5
6E7
  8
LAYER_1
 10
105.0769924410511
 20
-28.17508417895959
 30
0.0
  0
VERTEX
  5
6E8
  8
LAYER_1
 10
105.0703210768374
 20
-25.30146019221371
 30
0.0
  0
VERTEX
  5
6E9
  8
LAYER_1
 10
107.3223830250358
 20
-26.72665660602155
 30
0.0
  0
VERTEX
  5
6EA
  8
LAYER_1
 10
108.5642098208473
 20
-24.32891939415316
 30
0.0
  0
SEQEND
  5
6EB
  8
LAYER_1
  0
POLYLINE
  5
E6
  8
LAYER_1
 66
     1
 10
0.0
 20
0.0
 30
0.0
 70
     1
  0
VERTEX
  5
6EC
  8
LAYER_1
 10
-27.8130403050618
 20
-26.72648061239369
 30
0.0
  0
VERTEX
  5
6ED
  8
LAYER_1
 10
-25.56081951485794
 20
-25.30128419858585
 30
0.0
  0
VERTEX
  5
6EE
  8
LAYER_1
 10
-25.56764972107703
 20
-28.17490818532946
 30
0.0
  0
VERTEX
  5
6EF
  8
LAYER_1
 10
-23.07271834709218
 20
-28.18793171393116
 30
0.0
  0
VERTEX
  5
6F0
  8
LAYER_1
 10
-24.36283311245188
 20
-30.63705906569288
 30
0.0
  0
VERTEX
  5
6F1
  8
LAYER_1
 10
-22.1525466115927
 20
-32.06647932661537
 30
0.0
  0
VERTEX
  5
6F2
  8
LAYER_1
 10
-24.43907727489614
 20
-33.51349895051436
 30
0.0
  0
VERTEX
  5
6F3
  8
LAYER_1
 10
-23.1850196446926
 20
-35.93499530240337
 30
0.0
  0
VERTEX
  5
6F4
  8
LAYER_1
 10
-25.70457152946619
 20
-35.92161978654127
 30
0.0
  0
VERTEX
  5
6F5
  8
LAYER_1
 10
-25.71156057769031
 20
-38.83941817435556
 30
0.0
  0
VERTEX
  5
6F6
  8
LAYER_1
 10
-27.92486507664671
 20
-37.41510172869624
 30
0.0
  0
VERTEX
  5
6F7
  8
LAYER_1
 10
-29.21037342385853
 20
-39.86722097216369
 30
0.0
  0
VERTEX
  5
6F8
  8
LAYER_1
 10
-30.45204137766495
 20
-37.46965975392317
 30
0.0
  0
VERTEX
  5
6F9
  8
LAYER_1
 10
-32.70426216786836
 20
-38.89503216136114
 30
0.0
  0
VERTEX
  5
6FA
  8
LAYER_1
 10
-32.69743196164973
 20
-36.02105618735737
 30
0.0
  0
VERTEX
  5
6FB
  8
LAYER_1
 10
-35.19220449362911
 20
-36.00838464601355
 30
0.0
  0
VERTEX
  5
6FC
  8
LAYER_1
 10
-33.90208972826986
 20
-33.5590813006217
 30
0.0
  0
VERTEX
  5
6FD
  8
LAYER_1
 10
-36.11253507113406
 20
-32.12966103969933
 30
0.0
  0
VERTEX
  5
6FE
  8
LAYER_1
 10
-33.82600440783062
 20
-30.68281740943047
 30
0.0
  0
VERTEX
  5
6FF
  8
LAYER_1
 10
-35.08022088003918
 20
-28.26114506391349
 30
0.0
  0
VERTEX
  5
700
  8
LAYER_1
 10
-32.56019246925007
 20
-28.27434458614329
 30
0.0
  0
VERTEX
  5
701
  8
LAYER_1
 10
-32.553521105036
 20
-25.35689818558927
 30
0.0
  0
VERTEX
  5
702
  8
LAYER_1
 10
-30.34037544808507
 20
-26.78103863761845
 30
0.0
  0
VERTEX
  5
703
  8
LAYER_1
 10
-29.05486710087325
 20
-24.32891939415316
 30
0.0
  0
SEQEND
  5
704
  8
LAYER_1
  0
POLYLINE
  5
E7
  8
LAYER_1
 66
     1
 10
0.0
 20
0.0
 30
0.0
 70
     1
  0
VERTEX
  5
705
  8
LAYER_1
 10
-107.2627932541309
 20
-26.72665660602155
 30
0.0
  0
VERTEX
  5
706
  8
LAYER_1
 10
-105.0107313059325
 20
-25.30146019221371
 30
0.0
  0
VERTEX
  5
707
  8
LAYER_1
 10
-105.0174026701461
 20
-28.17508417895959
 30
0.0
  0
VERTEX
  5
708
  8
LAYER_1
 10
-102.5224712961617
 20
-28.18810770756141
 30
0.0
  0
VERTEX
  5
709
  8
LAYER_1
 10
-103.8127449035264
 20
-30.63723505932302
 30
0.0
  0
VERTEX
  5
70A
  8
LAYER_1
 10
-101.6022995606622
 20
-32.06647932661537
 30
0.0
  0
VERTEX
  5
70B
  8
LAYER_1
 10
-103.8889890659707
 20
-33.5136749441445
 30
0.0
  0
VERTEX
  5
70C
  8
LAYER_1
 10
-102.6347725937621
 20
-35.93499530240337
 30
0.0
  0
VERTEX
  5
70D
  8
LAYER_1
 10
-105.1544833205407
 20
-35.92179578016925
 30
0.0
  0
VERTEX
  5
70E
  8
LAYER_1
 10
-105.1614723687649
 20
-38.83959416798558
 30
0.0
  0
VERTEX
  5
70F
  8
LAYER_1
 10
-107.3746180257162
 20
-37.41510172869624
 30
0.0
  0
VERTEX
  5
710
  8
LAYER_1
 10
-108.6602852149331
 20
-39.86722097216369
 30
0.0
  0
VERTEX
  5
711
  8
LAYER_1
 10
-109.9019531687395
 20
-37.46983574755342
 30
0.0
  0
VERTEX
  5
712
  8
LAYER_1
 10
-112.1540151169379
 20
-38.89520815498912
 30
0.0
  0
VERTEX
  5
713
  8
LAYER_1
 10
-112.1473437527243
 20
-36.02123218098524
 30
0.0
  0
VERTEX
  5
714
  8
LAYER_1
 10
-114.6419574426986
 20
-36.00838464601355
 30
0.0
  0
VERTEX
  5
715
  8
LAYER_1
 10
-113.3518426773389
 20
-33.55925729425195
 30
0.0
  0
VERTEX
  5
716
  8
LAYER_1
 10
-115.5624468622086
 20
-32.12983703332958
 30
0.0
  0
VERTEX
  5
717
  8
LAYER_1
 10
-113.2757573568997
 20
-30.68299340306061
 30
0.0
  0
VERTEX
  5
718
  8
LAYER_1
 10
-114.5299738291087
 20
-28.26114506391349
 30
0.0
  0
VERTEX
  5
719
  8
LAYER_1
 10
-112.0101042603246
 20
-28.27452057977342
 30
0.0
  0
VERTEX
  5
71A
  8
LAYER_1
 10
-112.0032740541055
 20
-25.35707417921941
 30
0.0
  0
VERTEX
  5
71B
  8
LAYER_1
 10
-109.7901283971546
 20
-26.78103863761845
 30
0.0
  0
VERTEX
  5
71C
  8
LAYER_1
 10
-108.5046200499428
 20
-24.32891939415316
 30
0.0
  0
SEQEND
  5
71D
  8
LAYER_1
  0
POLYLINE
  5
E8
  8
LAYER_1
 66
     1
 10
0.0
 20
0.0
 30
0.0
 70
     1
  0
VERTEX
  5
71E
  8
LAYER_1
 10
-49.0986631974547
 20
-27.01634212061055
 30
0.0
  0
VERTEX
  5
71F
  8
LAYER_1
 10
-46.91522099545591
 20
-25.62300055378995
 30
0.0
  0
VERTEX
  5
720
  8
LAYER_1
 10
-46.92316309571061
 20
-28.41478750269408
 30
0.0
  0
VERTEX
  5
721
  8
LAYER_1
 10
-44.28988033529049
 20
-28.41795538803007
 30
0.0
  0
VERTEX
  5
722
  8
LAYER_1
 10
-45.57189415839048
 20
-30.87218655505268
 30
0.0
  0
VERTEX
  5
723
  8
LAYER_1
 10
-43.35652471336834
 20
-32.29280713448776
 30
0.0
  0
VERTEX
  5
724
  8
LAYER_1
 10
-45.51852324467927
 20
-33.67242119818815
 30
0.0
  0
VERTEX
  5
725
  8
LAYER_1
 10
-44.22872616333007
 20
-36.16537096376027
 30
0.0
  0
VERTEX
  5
726
  8
LAYER_1
 10
-46.82245726448218
 20
-36.16255506568456
 30
0.0
  0
VERTEX
  5
727
  8
LAYER_1
 10
-46.8302405227314
 20
-38.92671101471825
 30
0.0
  0
VERTEX
  5
728
  8
LAYER_1
 10
-49.04275081166224
 20
-37.50116261365014
 30
0.0
  0
VERTEX
  5
729
  8
LAYER_1
 10
-50.32937105290966
 20
-39.95257788259931
 30
0.0
  0
VERTEX
  5
72A
  8
LAYER_1
 10
-51.63886454289059
 20
-37.42126150573796
 30
0.0
  0
VERTEX
  5
72B
  8
LAYER_1
 10
-53.8224655868944
 20
-38.81477906619074
 30
0.0
  0
VERTEX
  5
72C
  8
LAYER_1
 10
-53.81436464463468
 20
-36.02264013002417
 30
0.0
  0
VERTEX
  5
72D
  8
LAYER_1
 10
-56.44780624705982
 20
-36.01982423194858
 30
0.0
  0
VERTEX
  5
72E
  8
LAYER_1
 10
-55.16579242395983
 20
-33.56524107766569
 30
0.0
  0
VERTEX
  5
72F
  8
LAYER_1
 10
-57.38084418497192
 20
-32.14497248548861
 30
0.0
  0
VERTEX
  5
730
  8
LAYER_1
 10
-55.21916333767103
 20
-30.76518242815808
 30
0.0
  0
VERTEX
  5
731
  8
LAYER_1
 10
-56.50880157701522
 20
-28.27205666895799
 30
0.0
  0
VERTEX
  5
732
  8
LAYER_1
 10
-53.91522931786812
 20
-28.27522455429397
 30
0.0
  0
VERTEX
  5
733
  8
LAYER_1
 10
-53.90728721761388
 20
-25.51106860525812
 30
0.0
  0
VERTEX
  5
734
  8
LAYER_1
 10
-51.69477692868304
 20
-26.93661700632839
 30
0.0
  0
VERTEX
  5
735
  8
LAYER_1
 10
-50.40831552944064
 20
-24.48520173738149
 30
0.0
  0
SEQEND
  5
736
  8
LAYER_1
  0
POLYLINE
  5
E9
  8
LAYER_1
 66
     1
 10
0.0
 20
0.0
 30
0.0
 70
     1
  0
VERTEX
  5
737
  8
LAYER_1
 10
-128.6233895729279
 20
-27.01651811423841
 30
0.0
  0
VERTEX
  5
738
  8
LAYER_1
 10
-126.4397885289241
 20
-25.62300055378995
 30
0.0
  0
VERTEX
  5
739
  8
LAYER_1
 10
-126.4477306291783
 20
-28.41478750269408
 30
0.0
  0
VERTEX
  5
73A
  8
LAYER_1
 10
-123.8144478687582
 20
-28.41795538803007
 30
0.0
  0
VERTEX
  5
73B
  8
LAYER_1
 10
-125.0966205338636
 20
-30.87218655505268
 30
0.0
  0
VERTEX
  5
73C
  8
LAYER_1
 10
-122.8812510888411
 20
-32.29263114085978
 30
0.0
  0
VERTEX
  5
73D
  8
LAYER_1
 10
-125.0432496201524
 20
-33.67242119818815
 30
0.0
  0
VERTEX
  5
73E
  8
LAYER_1
 10
-123.7534525388028
 20
-36.16537096376027
 30
0.0
  0
VERTEX
  5
73F
  8
LAYER_1
 10
-126.3470247979499
 20
-36.16237907205442
 30
0.0
  0
VERTEX
  5
740
  8
LAYER_1
 10
-126.3549668982046
 20
-38.92671101471825
 30
0.0
  0
VERTEX
  5
741
  8
LAYER_1
 10
-128.567477187135
 20
-37.50116261365014
 30
0.0
  0
VERTEX
  5
742
  8
LAYER_1
 10
-129.8540974283828
 20
-39.95257788259931
 30
0.0
  0
VERTEX
  5
743
  8
LAYER_1
 10
-131.1635909183638
 20
-37.42126150573796
 30
0.0
  0
VERTEX
  5
744
  8
LAYER_1
 10
-133.3470331203625
 20
-38.81477906619074
 30
0.0
  0
VERTEX
  5
745
  8
LAYER_1
 10
-133.3390910201078
 20
-36.02264013002417
 30
0.0
  0
VERTEX
  5
746
  8
LAYER_1
 10
-135.972373780528
 20
-36.01982423194858
 30
0.0
  0
VERTEX
  5
747
  8
LAYER_1
 10
-134.690359957428
 20
-33.56524107766569
 30
0.0
  0
VERTEX
  5
748
  8
LAYER_1
 10
-136.9055705604451
 20
-32.14497248548861
 30
0.0
  0
VERTEX
  5
749
  8
LAYER_1
 10
-134.7437308711387
 20
-30.76535842179049
 30
0.0
  0
VERTEX
  5
74A
  8
LAYER_1
 10
-136.0333691104834
 20
-28.27205666895799
 30
0.0
  0
VERTEX
  5
74B
  8
LAYER_1
 10
-133.4399556933413
 20
-28.27522455429397
 30
0.0
  0
VERTEX
  5
74C
  8
LAYER_1
 10
-133.4320135930866
 20
-25.51106860525812
 30
0.0
  0
VERTEX
  5
74D
  8
LAYER_1
 10
-131.2195033041562
 20
-26.93661700632839
 30
0.0
  0
VERTEX
  5
74E
  8
LAYER_1
 10
-129.9328830629083
 20
-24.48520173738149
 30
0.0
  0
SEQEND
  5
74F
  8
LAYER_1
  0
POLYLINE
  5
EA
  8
LAYER_1
 66
     1
 10
0.0
 20
0.0
 30
0.0
 70
     1
  0
VERTEX
  5
750
  8
LAYER_1
 10
51.75436669958799
 20
-26.93661700632839
 30
0.0
  0
VERTEX
  5
751
  8
LAYER_1
 10
53.96687698851838
 20
-25.51106860525812
 30
0.0
  0
VERTEX
  5
752
  8
LAYER_1
 10
53.97481908877307
 20
-28.27522455429397
 30
0.0
  0
VERTEX
  5
753
  8
LAYER_1
 10
56.56839134792017
 20
-28.27205666895799
 30
0.0
  0
VERTEX
  5
754
  8
LAYER_1
 10
55.27875310857598
 20
-30.76518242815808
 30
0.0
  0
VERTEX
  5
755
  8
LAYER_1
 10
57.44043395587687
 20
-32.14497248548861
 30
0.0
  0
VERTEX
  5
756
  8
LAYER_1
 10
55.22538219486478
 20
-33.56524107766569
 30
0.0
  0
VERTEX
  5
757
  8
LAYER_1
 10
56.50739601796477
 20
-36.01982423194858
 30
0.0
  0
VERTEX
  5
758
  8
LAYER_1
 10
53.87395441553963
 20
-36.02264013002417
 30
0.0
  0
VERTEX
  5
759
  8
LAYER_1
 10
53.88205535779935
 20
-38.81477906619074
 30
0.0
  0
VERTEX
  5
75A
  8
LAYER_1
 10
51.69845431379554
 20
-37.42126150573796
 30
0.0
  0
VERTEX
  5
75B
  8
LAYER_1
 10
50.38896082381461
 20
-39.95257788259931
 30
0.0
  0
VERTEX
  5
75C
  8
LAYER_1
 10
49.10234058256719
 20
-37.50116261365014
 30
0.0
  0
VERTEX
  5
75D
  8
LAYER_1
 10
46.88983029363635
 20
-38.92671101471825
 30
0.0
  0
VERTEX
  5
75E
  8
LAYER_1
 10
46.88204703538668
 20
-36.16255506568456
 30
0.0
  0
VERTEX
  5
75F
  8
LAYER_1
 10
44.28831593423502
 20
-36.16537096376027
 30
0.0
  0
VERTEX
  5
760
  8
LAYER_1
 10
45.57811301558422
 20
-33.67242119818815
 30
0.0
  0
VERTEX
  5
761
  8
LAYER_1
 10
43.41611448427284
 20
-32.29280713448776
 30
0.0
  0
VERTEX
  5
762
  8
LAYER_1
 10
45.63148392929543
 20
-30.87218655505268
 30
0.0
  0
VERTEX
  5
763
  8
LAYER_1
 10
44.34947010619544
 20
-28.41795538803007
 30
0.0
  0
VERTEX
  5
764
  8
LAYER_1
 10
46.98275286661556
 20
-28.41478750269408
 30
0.0
  0
VERTEX
  5
765
  8
LAYER_1
 10
46.97481076636086
 20
-25.62300055378995
 30
0.0
  0
VERTEX
  5
766
  8
LAYER_1
 10
49.15825296835965
 20
-27.01634212061055
 30
0.0
  0
VERTEX
  5
767
  8
LAYER_1
 10
50.46790530034559
 20
-24.48520173738149
 30
0.0
  0
SEQEND
  5
768
  8
LAYER_1
  0
POLYLINE
  5
EB
  8
LAYER_1
 66
     1
 10
0.0
 20
0.0
 30
0.0
 70
     1
  0
VERTEX
  5
769
  8
LAYER_1
 10
131.2790930750612
 20
-26.93661700632839
 30
0.0
  0
VERTEX
  5
76A
  8
LAYER_1
 10
133.4916033639915
 20
-25.51106860525812
 30
0.0
  0
VERTEX
  5
76B
  8
LAYER_1
 10
133.4995454642462
 20
-28.27522455429397
 30
0.0
  0
VERTEX
  5
76C
  8
LAYER_1
 10
136.0929588813879
 20
-28.27205666895799
 30
0.0
  0
VERTEX
  5
76D
  8
LAYER_1
 10
134.8033206420437
 20
-30.76535842179049
 30
0.0
  0
VERTEX
  5
76E
  8
LAYER_1
 10
136.96516033135
 20
-32.14497248548861
 30
0.0
  0
VERTEX
  5
76F
  8
LAYER_1
 10
134.7499497283329
 20
-33.56524107766569
 30
0.0
  0
VERTEX
  5
770
  8
LAYER_1
 10
136.0319635514325
 20
-36.01982423194858
 30
0.0
  0
VERTEX
  5
771
  8
LAYER_1
 10
133.3986807910123
 20
-36.02264013002417
 30
0.0
  0
VERTEX
  5
772
  8
LAYER_1
 10
133.406622891267
 20
-38.81477906619074
 30
0.0
  0
VERTEX
  5
773
  8
LAYER_1
 10
131.2231806892687
 20
-37.42126150573796
 30
0.0
  0
VERTEX
  5
774
  8
LAYER_1
 10
129.9136871992878
 20
-39.95257788259931
 30
0.0
  0
VERTEX
  5
775
  8
LAYER_1
 10
128.6270669580399
 20
-37.50116261365014
 30
0.0
  0
VERTEX
  5
776
  8
LAYER_1
 10
126.4145566691095
 20
-38.92671101471825
 30
0.0
  0
VERTEX
  5
777
  8
LAYER_1
 10
126.4066145688548
 20
-36.16237907205442
 30
0.0
  0
VERTEX
  5
778
  8
LAYER_1
 10
123.8130423097077
 20
-36.16537096376027
 30
0.0
  0
VERTEX
  5
779
  8
LAYER_1
 10
125.1028393910574
 20
-33.67242119818815
 30
0.0
  0
VERTEX
  5
77A
  8
LAYER_1
 10
122.940840859746
 20
-32.29263114085978
 30
0.0
  0
VERTEX
  5
77B
  8
LAYER_1
 10
125.1562103047681
 20
-30.87218655505268
 30
0.0
  0
VERTEX
  5
77C
  8
LAYER_1
 10
123.8740376396631
 20
-28.41795538803007
 30
0.0
  0
VERTEX
  5
77D
  8
LAYER_1
 10
126.5073204000832
 20
-28.41478750269408
 30
0.0
  0
VERTEX
  5
77E
  8
LAYER_1
 10
126.4993782998285
 20
-25.62300055378995
 30
0.0
  0
VERTEX
  5
77F
  8
LAYER_1
 10
128.6829793438324
 20
-27.01651811423841
 30
0.0
  0
VERTEX
  5
780
  8
LAYER_1
 10
129.9924728338133
 20
-24.48520173738149
 30
0.0
  0
SEQEND
  5
781
  8
LAYER_1
  0
POLYLINE
  5
EC
  8
LAYER_1
 66
     1
 10
0.0
 20
0.0
 30
0.0
 70
     1
  0
VERTEX
  5
782
  8
LAYER_1
 10
-7.229816759186633
 20
-21.32893198123708
 30
0.0
  0
VERTEX
  5
783
  8
LAYER_1
 10
-10.81916954825738
 20
-28.06456017947102
 30
0.0
  0
VERTEX
  5
784
  8
LAYER_1
 10
-12.12580388214656
 20
-25.47252600034307
 30
0.0
  0
VERTEX
  5
785
  8
LAYER_1
 10
-14.14563881890035
 20
-26.68811400110434
 30
0.0
  0
VERTEX
  5
786
  8
LAYER_1
 10
-14.16056996737871
 20
-24.14131018482584
 30
0.0
  0
VERTEX
  5
787
  8
LAYER_1
 10
-16.84023459328591
 20
-24.12564675177629
 30
0.0
  0
VERTEX
  5
788
  8
LAYER_1
 10
-13.32140765447639
 20
-17.52201377586613
 30
0.0
  0
VERTEX
  5
789
  8
LAYER_1
 10
-7.161832381007116
 20
-13.58204438639729
 30
0.0
  0
SEQEND
  5
78A
  8
LAYER_1
  0
POLYLINE
  5
ED
  8
LAYER_1
 66
     1
 10
0.0
 20
0.0
 30
0.0
 70
     1
  0
VERTEX
  5
78B
  8
LAYER_1
 10
-86.67956970825617
 20
-21.3291079748671
 30
0.0
  0
VERTEX
  5
78C
  8
LAYER_1
 10
-90.26908133933193
 20
-28.06491216672913
 30
0.0
  0
VERTEX
  5
78D
  8
LAYER_1
 10
-91.57571567322111
 20
-25.47252600034307
 30
0.0
  0
VERTEX
  5
78E
  8
LAYER_1
 10
-93.59539176796943
 20
-26.68828999473459
 30
0.0
  0
VERTEX
  5
78F
  8
LAYER_1
 10
-93.61048175845326
 20
-24.14148617845598
 30
0.0
  0
VERTEX
  5
790
  8
LAYER_1
 10
-96.29014638436047
 20
-24.12564675177629
 30
0.0
  0
VERTEX
  5
791
  8
LAYER_1
 10
-92.77131944555049
 20
-17.52218976949638
 30
0.0
  0
VERTEX
  5
792
  8
LAYER_1
 10
-86.61158533007665
 20
-13.58222038002731
 30
0.0
  0
SEQEND
  5
793
  8
LAYER_1
  0
POLYLINE
  5
EE
  8
LAYER_1
 66
     1
 10
0.0
 20
0.0
 30
0.0
 70
     1
  0
VERTEX
  5
794
  8
LAYER_1
 10
151.824194539714
 20
-21.49841384669725
 30
0.0
  0
VERTEX
  5
795
  8
LAYER_1
 10
148.3824059733738
 20
-28.15167702619925
 30
0.0
  0
VERTEX
  5
796
  8
LAYER_1
 10
147.045591658517
 20
-25.57865015908914
 30
0.0
  0
VERTEX
  5
797
  8
LAYER_1
 10
145.0400525022219
 20
-26.8225731342414
 30
0.0
  0
VERTEX
  5
798
  8
LAYER_1
 10
144.9954178987909
 20
-24.27664928611358
 30
0.0
  0
VERTEX
  5
799
  8
LAYER_1
 10
142.3157532728842
 20
-24.29900047709299
 30
0.0
  0
VERTEX
  5
79A
  8
LAYER_1
 10
145.8264792694335
 20
-17.51303810074882
 30
0.0
  0
VERTEX
  5
79B
  8
LAYER_1
 10
151.8710529312161
 20
-13.61829907412704
 30
0.0
  0
SEQEND
  5
79C
  8
LAYER_1
  0
POLYLINE
  5
EF
  8
LAYER_1
 66
     1
 10
0.0
 20
0.0
 30
0.0
 70
     1
  0
VERTEX
  5
79D
  8
LAYER_1
 10
72.2994681642408
 20
-21.49841384669725
 30
0.0
  0
VERTEX
  5
79E
  8
LAYER_1
 10
68.8576795979011
 20
-28.15167702619925
 30
0.0
  0
VERTEX
  5
79F
  8
LAYER_1
 10
67.52086528304426
 20
-25.57865015908914
 30
0.0
  0
VERTEX
  5
7A0
  8
LAYER_1
 10
65.51548496875375
 20
-26.82274912787381
 30
0.0
  0
VERTEX
  5
7A1
  8
LAYER_1
 10
65.47069152331778
 20
-24.27664928611358
 30
0.0
  0
VERTEX
  5
7A2
  8
LAYER_1
 10
62.79118573941605
 20
-24.29917647072313
 30
0.0
  0
VERTEX
  5
7A3
  8
LAYER_1
 10
66.30175289396084
 20
-17.51286210712084
 30
0.0
  0
VERTEX
  5
7A4
  8
LAYER_1
 10
72.34632655574296
 20
-13.61847506775933
 30
0.0
  0
SEQEND
  5
7A5
  8
LAYER_1
  0
POLYLINE
  5
F0
  8
LAYER_1
 66
     1
 10
0.0
 20
0.0
 30
0.0
 70
     1
  0
VERTEX
  5
7A6
  8
LAYER_1
 10
83.00287783537988
 20
-22.58693444677425
 30
0.0
  0
VERTEX
  5
7A7
  8
LAYER_1
 10
83.03162823830189
 20
-30.25568086999868
 30
0.0
  0
VERTEX
  5
7A8
  8
LAYER_1
 10
80.71158191192353
 20
-28.77029463481261
 30
0.0
  0
VERTEX
  5
7A9
  8
LAYER_1
 10
79.53821602030666
 20
-30.96035936356606
 30
0.0
  0
VERTEX
  5
7AA
  8
LAYER_1
 10
78.3481717181553
 20
-28.78138223348725
 30
0.0
  0
VERTEX
  5
7AB
  8
LAYER_1
 10
76.0394031741389
 20
-30.28806369787418
 30
0.0
  0
VERTEX
  5
7AC
  8
LAYER_1
 10
76.0100174031968
 20
-22.46620281675729
 30
0.0
  0
VERTEX
  5
7AD
  8
LAYER_1
 10
79.48087405646856
 20
-15.74078224905162
 30
0.0
  0
SEQEND
  5
7AE
  8
LAYER_1
  0
POLYLINE
  5
F1
  8
LAYER_1
 66
     1
 10
0.0
 20
0.0
 30
0.0
 70
     1
  0
VERTEX
  5
7AF
  8
LAYER_1
 10
3.552966044305322
 20
-22.58675845314184
 30
0.0
  0
VERTEX
  5
7B0
  8
LAYER_1
 10
3.581875289232357
 20
-30.25568086999868
 30
0.0
  0
VERTEX
  5
7B1
  8
LAYER_1
 10
1.261670120848976
 20
-28.77011864118248
 30
0.0
  0
VERTEX
  5
7B2
  8
LAYER_1
 10
0.0883042292321079
 20
-30.96018336993376
 30
0.0
  0
VERTEX
  5
7B3
  8
LAYER_1
 10
0.0297948854522474
 20
-30.85503048880668
 30
0.0
  0
VERTEX
  5
7B4
  8
LAYER_1
 10
-0.0287144583276131
 20
-30.96018336993376
 30
0.0
  0
VERTEX
  5
7B5
  8
LAYER_1
 10
-1.202080349944026
 20
-28.77011864118248
 30
0.0
  0
VERTEX
  5
7B6
  8
LAYER_1
 10
-3.522285518327408
 20
-30.25568086999868
 30
0.0
  0
VERTEX
  5
7B7
  8
LAYER_1
 10
-3.493376273400372
 20
-22.58675845314184
 30
0.0
  0
VERTEX
  5
7B8
  8
LAYER_1
 10
0.0297948854522474
 20
-15.74060625542148
 30
0.0
  0
SEQEND
  5
7B9
  8
LAYER_1
  0
POLYLINE
  5
F2
  8
LAYER_1
 66
     1
 10
0.0
 20
0.0
 30
0.0
 70
     1
  0
VERTEX
  5
7BA
  8
LAYER_1
 10
-75.95042763229185
 20
-22.46620281675729
 30
0.0
  0
VERTEX
  5
7BB
  8
LAYER_1
 10
-75.97981340323395
 20
-30.28806369787418
 30
0.0
  0
VERTEX
  5
7BC
  8
LAYER_1
 10
-78.28858194725035
 20
-28.78138223348725
 30
0.0
  0
VERTEX
  5
7BD
  8
LAYER_1
 10
-79.47862624940171
 20
-30.96035936356606
 30
0.0
  0
VERTEX
  5
7BE
  8
LAYER_1
 10
-80.65199214101858
 20
-28.77029463481261
 30
0.0
  0
VERTEX
  5
7BF
  8
LAYER_1
 10
-82.97203846739694
 20
-30.25568086999868
 30
0.0
  0
VERTEX
  5
7C0
  8
LAYER_1
 10
-82.94328806447538
 20
-22.58693444677425
 30
0.0
  0
VERTEX
  5
7C1
  8
LAYER_1
 10
-79.42128428556362
 20
-15.74078224905162
 30
0.0
  0
SEQEND
  5
7C2
  8
LAYER_1
  0
POLYLINE
  5
F3
  8
LAYER_1
 66
     1
 10
0.0
 20
0.0
 30
0.0
 70
     1
  0
VERTEX
  5
7C3
  8
LAYER_1
 10
-155.47499516576
 20
-22.46620281675729
 30
0.0
  0
VERTEX
  5
7C4
  8
LAYER_1
 10
-155.5045397787071
 20
-30.28806369787418
 30
0.0
  0
VERTEX
  5
7C5
  8
LAYER_1
 10
-157.8133083227235
 20
-28.78138223348725
 30
0.0
  0
VERTEX
  5
7C6
  8
LAYER_1
 10
-159.0
 20
-30.95451075034663
 30
0.0
  0
VERTEX
  5
7C7
  8
LAYER_1
 10
-159.0
 20
-15.84603673241094
 30
0.0
  0
VERTEX
  5
7C8
  8
LAYER_1
 10
-158.9458518190318
 20
-15.74078224905162
 30
0.0
  0
SEQEND
  5
7C9
  8
LAYER_1
  0
POLYLINE
  5
F4
  8
LAYER_1
 66
     1
 10
0.0
 20
0.0
 30
0.0
 70
     1
  0
VERTEX
  5
7CA
  8
LAYER_1
 10
159.0
 20
-30.84538701336766
 30
0.0
  0
VERTEX
  5
7CB
  8
LAYER_1
 10
157.8728980936285
 20
-28.78138223348725
 30
0.0
  0
VERTEX
  5
7CC
  8
LAYER_1
 10
155.5641295496121
 20
-30.28806369787418
 30
0.0
  0
VERTEX
  5
7CD
  8
LAYER_1
 10
155.5345849366645
 20
-22.46620281675729
 30
0.0
  0
VERTEX
  5
7CE
  8
LAYER_1
 10
159.0
 20
-15.75132632636058
 30
0.0
  0
SEQEND
  5
7CF
  8
LAYER_1
  0
POLYLINE
  5
F5
  8
LAYER_1
 66
     1
 10
0.0
 20
0.0
 30
0.0
 70
     1
  0
VERTEX
  5
7D0
  8
LAYER_1
 10
8.743128560696277
 20
-32.30125482871694
 30
0.0
  0
VERTEX
  5
7D1
  8
LAYER_1
 10
8.32235608920655
 20
-33.1359926146767
 30
0.0
  0
VERTEX
  5
7D2
  8
LAYER_1
 10
7.388047415253823
 20
-32.53391840726118
 30
0.0
  0
VERTEX
  5
7D3
  8
LAYER_1
 10
7.362791536444092
 20
-29.65237470717676
 30
0.0
  0
SEQEND
  5
7D4
  8
LAYER_1
  0
POLYLINE
  5
F6
  8
LAYER_1
 66
     1
 10
0.0
 20
0.0
 30
0.0
 70
     1
  0
VERTEX
  5
7D5
  8
LAYER_1
 10
-7.328457644348873
 20
-32.53391840726118
 30
0.0
  0
VERTEX
  5
7D6
  8
LAYER_1
 10
-8.262766318301601
 20
-33.1359926146767
 30
0.0
  0
VERTEX
  5
7D7
  8
LAYER_1
 10
-8.683538789791328
 20
-32.30125482871694
 30
0.0
  0
VERTEX
  5
7D8
  8
LAYER_1
 10
-7.303201765539143
 20
-29.65237470717676
 30
0.0
  0
SEQEND
  5
7D9
  8
LAYER_1
  0
POLYLINE
  5
F7
  8
LAYER_1
 66
     1
 10
0.0
 20
0.0
 30
0.0
 70
     1
  0
VERTEX
  5
7DA
  8
LAYER_1
 10
88.19288150976581
 20
-32.30143082234707
 30
0.0
  0
VERTEX
  5
7DB
  8
LAYER_1
 10
87.77210903827608
 20
-33.13616860830456
 30
0.0
  0
VERTEX
  5
7DC
  8
LAYER_1
 10
86.83795920632838
 20
-32.53409440089143
 30
0.0
  0
VERTEX
  5
7DD
  8
LAYER_1
 10
86.81270332751865
 20
-29.6525507008069
 30
0.0
  0
SEQEND
  5
7DE
  8
LAYER_1
  0
POLYLINE
  5
F8
  8
LAYER_1
 66
     1
 10
0.0
 20
0.0
 30
0.0
 70
     1
  0
VERTEX
  5
7DF
  8
LAYER_1
 10
-86.77836943542343
 20
-32.53409440089143
 30
0.0
  0
VERTEX
  5
7E0
  8
LAYER_1
 10
-87.71251926737114
 20
-33.13616860830456
 30
0.0
  0
VERTEX
  5
7E1
  8
LAYER_1
 10
-88.13329173886086
 20
-32.30143082234707
 30
0.0
  0
VERTEX
  5
7E2
  8
LAYER_1
 10
-86.7531135566137
 20
-29.6525507008069
 30
0.0
  0
SEQEND
  5
7E3
  8
LAYER_1
  0
POLYLINE
  5
F9
  8
LAYER_1
 66
     1
 10
0.0
 20
0.0
 30
0.0
 70
     1
  0
VERTEX
  5
7E4
  8
LAYER_1
 10
151.790202350624
 20
-32.75056656549799
 30
0.0
  0
VERTEX
  5
7E5
  8
LAYER_1
 10
151.0466629247867
 20
-33.23595699638093
 30
0.0
  0
VERTEX
  5
7E6
  8
LAYER_1
 10
150.5143833657226
 20
-32.19372272093193
 30
0.0
  0
VERTEX
  5
7E7
  8
LAYER_1
 10
151.8054511831128
 20
-29.69214926750277
 30
0.0
  0
SEQEND
  5
7E8
  8
LAYER_1
  0
POLYLINE
  5
FA
  8
LAYER_1
 66
     1
 10
0.0
 20
0.0
 30
0.0
 70
     1
  0
VERTEX
  5
7E9
  8
LAYER_1
 10
72.26563481715584
 20
-32.75056656549799
 30
0.0
  0
VERTEX
  5
7EA
  8
LAYER_1
 10
71.52193654931398
 20
-33.23595699638093
 30
0.0
  0
VERTEX
  5
7EB
  8
LAYER_1
 10
70.98981583225486
 20
-32.19389871456207
 30
0.0
  0
VERTEX
  5
7EC
  8
LAYER_1
 10
72.28072480763967
 20
-29.69214926750277
 30
0.0
  0
SEQEND
  5
7ED
  8
LAYER_1
  0
POLYLINE
  5
FB
  8
LAYER_1
 66
     1
 10
0.0
 20
0.0
 30
0.0
 70
     1
  0
VERTEX
  5
7EE
  8
LAYER_1
 10
-70.93022606134991
 20
-32.19389871456207
 30
0.0
  0
VERTEX
  5
7EF
  8
LAYER_1
 10
-71.46234677840903
 20
-33.23595699638093
 30
0.0
  0
VERTEX
  5
7F0
  8
LAYER_1
 10
-72.20604504625135
 20
-32.75056656549799
 30
0.0
  0
VERTEX
  5
7F1
  8
LAYER_1
 10
-72.22113503673518
 20
-29.69214926750277
 30
0.0
  0
SEQEND
  5
7F2
  8
LAYER_1
  0
POLYLINE
  5
FC
  8
LAYER_1
 66
     1
 10
0.0
 20
0.0
 30
0.0
 70
     1
  0
VERTEX
  5
7F3
  8
LAYER_1
 10
-150.4547935948176
 20
-32.19372272093193
 30
0.0
  0
VERTEX
  5
7F4
  8
LAYER_1
 10
-150.9870731538822
 20
-33.23595699638093
 30
0.0
  0
VERTEX
  5
7F5
  8
LAYER_1
 10
-151.730612579719
 20
-32.75056656549799
 30
0.0
  0
VERTEX
  5
7F6
  8
LAYER_1
 10
-151.7458614122079
 20
-29.69214926750277
 30
0.0
  0
SEQEND
  5
7F7
  8
LAYER_1
  0
POLYLINE
  5
FD
  8
LAYER_1
 66
     1
 10
0.0
 20
0.0
 30
0.0
 70
     1
  0
VERTEX
  5
7F8
  8
LAYER_1
 10
149.5664142793316
 20
-38.65515284399424
 30
0.0
  0
VERTEX
  5
7F9
  8
LAYER_1
 10
151.7331780707959
 20
-37.28451445541344
 30
0.0
  0
VERTEX
  5
7FA
  8
LAYER_1
 10
151.7207883943984
 20
-40.12065179902066
 30
0.0
  0
VERTEX
  5
7FB
  8
LAYER_1
 10
154.2800507804459
 20
-40.13420330851062
 30
0.0
  0
VERTEX
  5
7FC
  8
LAYER_1
 10
152.9524493018844
 20
-42.65372811217679
 30
0.0
  0
VERTEX
  5
7FD
  8
LAYER_1
 10
155.0412216688478
 20
-43.99849543718409
 30
0.0
  0
VERTEX
  5
7FE
  8
LAYER_1
 10
141.3666722924572
 20
-43.99849543718409
 30
0.0
  0
VERTEX
  5
7FF
  8
LAYER_1
 10
143.5548797546089
 20
-42.61412954548092
 30
0.0
  0
VERTEX
  5
800
  8
LAYER_1
 10
142.2444332125974
 20
-40.08351714314023
 30
0.0
  0
VERTEX
  5
801
  8
LAYER_1
 10
144.8041721246595
 20
-40.09126086285102
 30
0.0
  0
VERTEX
  5
802
  8
LAYER_1
 10
144.8111611728837
 20
-37.25565150013205
 30
0.0
  0
VERTEX
  5
803
  8
LAYER_1
 10
146.9682356020371
 20
-38.64441723257988
 30
0.0
  0
VERTEX
  5
804
  8
LAYER_1
 10
148.2758229879569
 20
-36.16273105931253
 30
0.0
  0
SEQEND
  5
805
  8
LAYER_1
  0
POLYLINE
  5
FE
  8
LAYER_1
 66
     1
 10
0.0
 20
0.0
 30
0.0
 70
     1
  0
VERTEX
  5
806
  8
LAYER_1
 10
70.04168790385893
 20
-38.65515284399424
 30
0.0
  0
VERTEX
  5
807
  8
LAYER_1
 10
72.20845169532276
 20
-37.28451445541344
 30
0.0
  0
VERTEX
  5
808
  8
LAYER_1
 10
72.19606201892566
 20
-40.12065179902066
 30
0.0
  0
VERTEX
  5
809
  8
LAYER_1
 10
74.75532440497273
 20
-40.13420330851062
 30
0.0
  0
VERTEX
  5
80A
  8
LAYER_1
 10
73.42788176841623
 20
-42.65372811217679
 30
0.0
  0
VERTEX
  5
80B
  8
LAYER_1
 10
75.51665413538012
 20
-43.99849543718409
 30
0.0
  0
VERTEX
  5
80C
  8
LAYER_1
 10
61.84194591698451
 20
-43.99849543718409
 30
0.0
  0
VERTEX
  5
80D
  8
LAYER_1
 10
64.03031222114078
 20
-42.61412954548092
 30
0.0
  0
VERTEX
  5
80E
  8
LAYER_1
 10
62.71986567912973
 20
-40.08351714314023
 30
0.0
  0
VERTEX
  5
80F
  8
LAYER_1
 10
65.27944574918683
 20
-40.09126086285102
 30
0.0
  0
VERTEX
  5
810
  8
LAYER_1
 10
65.2864347974105
 20
-37.25565150013205
 30
0.0
  0
VERTEX
  5
811
  8
LAYER_1
 10
67.44350922656395
 20
-38.64441723257988
 30
0.0
  0
VERTEX
  5
812
  8
LAYER_1
 10
68.75109661248416
 20
-36.16273105931253
 30
0.0
  0
SEQEND
  5
813
  8
LAYER_1
  0
POLYLINE
  5
FF
  8
LAYER_1
 66
     1
 10
0.0
 20
0.0
 30
0.0
 70
     1
  0
VERTEX
  5
814
  8
LAYER_1
 10
-67.38391945565945
 20
-38.64441723257988
 30
0.0
  0
VERTEX
  5
815
  8
LAYER_1
 10
-65.226845026506
 20
-37.25565150013205
 30
0.0
  0
VERTEX
  5
816
  8
LAYER_1
 10
-65.21985597828188
 20
-40.09126086285102
 30
0.0
  0
VERTEX
  5
817
  8
LAYER_1
 10
-62.66027590822478
 20
-40.08351714314023
 30
0.0
  0
VERTEX
  5
818
  8
LAYER_1
 10
-63.97072245023628
 20
-42.61412954548092
 30
0.0
  0
VERTEX
  5
819
  8
LAYER_1
 10
-61.78235614607956
 20
-43.99849543718409
 30
0.0
  0
VERTEX
  5
81A
  8
LAYER_1
 10
-75.45706436447517
 20
-43.99849543718409
 30
0.0
  0
VERTEX
  5
81B
  8
LAYER_1
 10
-73.36829199751173
 20
-42.65372811217679
 30
0.0
  0
VERTEX
  5
81C
  8
LAYER_1
 10
-74.69573463406778
 20
-40.13420330851062
 30
0.0
  0
VERTEX
  5
81D
  8
LAYER_1
 10
-72.13647224802071
 20
-40.12065179902066
 30
0.0
  0
VERTEX
  5
81E
  8
LAYER_1
 10
-72.14886192441782
 20
-37.28451445541344
 30
0.0
  0
VERTEX
  5
81F
  8
LAYER_1
 10
-69.98209813295398
 20
-38.65515284399424
 30
0.0
  0
VERTEX
  5
820
  8
LAYER_1
 10
-68.69150684157921
 20
-36.16273105931253
 30
0.0
  0
SEQEND
  5
821
  8
LAYER_1
  0
POLYLINE
  5
100
  8
LAYER_1
 66
     1
 10
0.0
 20
0.0
 30
0.0
 70
     1
  0
VERTEX
  5
822
  8
LAYER_1
 10
-146.9086458311322
 20
-38.64441723257988
 30
0.0
  0
VERTEX
  5
823
  8
LAYER_1
 10
-144.7515714019792
 20
-37.25565150013205
 30
0.0
  0
VERTEX
  5
824
  8
LAYER_1
 10
-144.744582353755
 20
-40.09126086285102
 30
0.0
  0
VERTEX
  5
825
  8
LAYER_1
 10
-142.1848434416925
 20
-40.08351714314023
 30
0.0
  0
VERTEX
  5
826
  8
LAYER_1
 10
-143.495289983704
 20
-42.61412954548092
 30
0.0
  0
VERTEX
  5
827
  8
LAYER_1
 10
-141.3070825215527
 20
-43.99849543718409
 30
0.0
  0
VERTEX
  5
828
  8
LAYER_1
 10
-154.9816318979433
 20
-43.99849543718409
 30
0.0
  0
VERTEX
  5
829
  8
LAYER_1
 10
-152.8928595309799
 20
-42.65372811217679
 30
0.0
  0
VERTEX
  5
82A
  8
LAYER_1
 10
-154.2204610095409
 20
-40.13420330851062
 30
0.0
  0
VERTEX
  5
82B
  8
LAYER_1
 10
-151.6611986234939
 20
-40.12065179902066
 30
0.0
  0
VERTEX
  5
82C
  8
LAYER_1
 10
-151.673588299891
 20
-37.28451445541344
 30
0.0
  0
VERTEX
  5
82D
  8
LAYER_1
 10
-149.5068245084271
 20
-38.65515284399424
 30
0.0
  0
VERTEX
  5
82E
  8
LAYER_1
 10
-148.2162332170519
 20
-36.16273105931253
 30
0.0
  0
SEQEND
  5
82F
  8
LAYER_1
  0
POLYLINE
  5
101
  8
LAYER_1
 66
     1
 10
0.0
 20
0.0
 30
0.0
 70
     1
  0
VERTEX
  5
830
  8
LAYER_1
 10
11.9229866606388
 20
-38.74350164613571
 30
0.0
  0
VERTEX
  5
831
  8
LAYER_1
 10
14.14153294576272
 20
-37.32956882463264
 30
0.0
  0
VERTEX
  5
832
  8
LAYER_1
 10
14.13740305363035
 20
-40.24719121881679
 30
0.0
  0
VERTEX
  5
833
  8
LAYER_1
 10
16.65727262241489
 20
-40.24560727614988
 30
0.0
  0
VERTEX
  5
834
  8
LAYER_1
 10
15.39400215591559
 20
-42.66147183188542
 30
0.0
  0
VERTEX
  5
835
  8
LAYER_1
 10
17.48658673100135
 20
-43.99831944355407
 30
0.0
  0
VERTEX
  5
836
  8
LAYER_1
 10
3.71546141551471
 20
-43.99831944355407
 30
0.0
  0
VERTEX
  5
837
  8
LAYER_1
 10
5.931148544547341
 20
-42.57189107433743
 30
0.0
  0
VERTEX
  5
838
  8
LAYER_1
 10
4.650405457487977
 20
-40.11677993916629
 30
0.0
  0
VERTEX
  5
839
  8
LAYER_1
 10
7.145177989467811
 20
-40.11537199012747
 30
0.0
  0
VERTEX
  5
83A
  8
LAYER_1
 10
7.14930788160018
 20
-37.24139601612143
 30
0.0
  0
VERTEX
  5
83B
  8
LAYER_1
 10
9.395969201625576
 20
-38.67715204771554
 30
0.0
  0
VERTEX
  5
83C
  8
LAYER_1
 10
10.64684999172732
 20
-36.28539861925657
 30
0.0
  0
SEQEND
  5
83D
  8
LAYER_1
  0
POLYLINE
  5
102
  8
LAYER_1
 66
     1
 10
0.0
 20
0.0
 30
0.0
 70
     1
  0
VERTEX
  5
83E
  8
LAYER_1
 10
91.37273960970833
 20
-38.74367763976585
 30
0.0
  0
VERTEX
  5
83F
  8
LAYER_1
 10
93.59144473683773
 20
-37.32974481826278
 30
0.0
  0
VERTEX
  5
840
  8
LAYER_1
 10
93.5873148447049
 20
-40.24736721244909
 30
0.0
  0
VERTEX
  5
841
  8
LAYER_1
 10
96.10702557148397
 20
-40.24578326978002
 30
0.0
  0
VERTEX
  5
842
  8
LAYER_1
 10
94.84375510498512
 20
-42.66147183188542
 30
0.0
  0
VERTEX
  5
843
  8
LAYER_1
 10
96.93633968007089
 20
-43.99849543718409
 30
0.0
  0
VERTEX
  5
844
  8
LAYER_1
 10
83.16521436458424
 20
-43.99849543718409
 30
0.0
  0
VERTEX
  5
845
  8
LAYER_1
 10
85.38090149361688
 20
-42.57206706796757
 30
0.0
  0
VERTEX
  5
846
  8
LAYER_1
 10
84.10015840655751
 20
-40.11677993916629
 30
0.0
  0
VERTEX
  5
847
  8
LAYER_1
 10
86.59508978054237
 20
-40.11554798375533
 30
0.0
  0
VERTEX
  5
848
  8
LAYER_1
 10
86.59921967267474
 20
-37.24157200975156
 30
0.0
  0
VERTEX
  5
849
  8
LAYER_1
 10
88.84588099270013
 20
-38.67732804134579
 30
0.0
  0
VERTEX
  5
84A
  8
LAYER_1
 10
90.09660294079686
 20
-36.28557461288671
 30
0.0
  0
SEQEND
  5
84B
  8
LAYER_1
  0
POLYLINE
  5
103
  8
LAYER_1
 66
     1
 10
0.0
 20
0.0
 30
0.0
 70
     1
  0
VERTEX
  5
84C
  8
LAYER_1
 10
-9.336379430720626
 20
-38.67715204771554
 30
0.0
  0
VERTEX
  5
84D
  8
LAYER_1
 10
-7.08971811069523
 20
-37.24139601612143
 30
0.0
  0
VERTEX
  5
84E
  8
LAYER_1
 10
-7.085588218562862
 20
-40.11537199012747
 30
0.0
  0
VERTEX
  5
84F
  8
LAYER_1
 10
-4.590815686583028
 20
-40.11677993916629
 30
0.0
  0
VERTEX
  5
850
  8
LAYER_1
 10
-5.871558773642391
 20
-42.57189107433743
 30
0.0
  0
VERTEX
  5
851
  8
LAYER_1
 10
-3.655871644610215
 20
-43.99831944355407
 30
0.0
  0
VERTEX
  5
852
  8
LAYER_1
 10
-17.42699696009686
 20
-43.99831944355407
 30
0.0
  0
VERTEX
  5
853
  8
LAYER_1
 10
-15.33441238501064
 20
-42.66147183188542
 30
0.0
  0
VERTEX
  5
854
  8
LAYER_1
 10
-16.59768285150994
 20
-40.24560727614988
 30
0.0
  0
VERTEX
  5
855
  8
LAYER_1
 10
-14.07781328272586
 20
-40.24719121881679
 30
0.0
  0
VERTEX
  5
856
  8
LAYER_1
 10
-14.08194317485822
 20
-37.32956882463264
 30
0.0
  0
VERTEX
  5
857
  8
LAYER_1
 10
-11.86339688973385
 20
-38.74350164613571
 30
0.0
  0
VERTEX
  5
858
  8
LAYER_1
 10
-10.58726022082237
 20
-36.28539861925657
 30
0.0
  0
SEQEND
  5
859
  8
LAYER_1
  0
POLYLINE
  5
104
  8
LAYER_1
 66
     1
 10
0.0
 20
0.0
 30
0.0
 70
     1
  0
VERTEX
  5
85A
  8
LAYER_1
 10
-88.78629122179518
 20
-38.67732804134579
 30
0.0
  0
VERTEX
  5
85B
  8
LAYER_1
 10
-86.53962990176979
 20
-37.24157200975156
 30
0.0
  0
VERTEX
  5
85C
  8
LAYER_1
 10
-86.53550000963742
 20
-40.11554798375533
 30
0.0
  0
VERTEX
  5
85D
  8
LAYER_1
 10
-84.04056863565302
 20
-40.11677993916629
 30
0.0
  0
VERTEX
  5
85E
  8
LAYER_1
 10
-85.32131172271193
 20
-42.57206706796757
 30
0.0
  0
VERTEX
  5
85F
  8
LAYER_1
 10
-83.1056245936793
 20
-43.99849543718409
 30
0.0
  0
VERTEX
  5
860
  8
LAYER_1
 10
-96.87674990916639
 20
-43.99849543718409
 30
0.0
  0
VERTEX
  5
861
  8
LAYER_1
 10
-94.78416533408017
 20
-42.66147183188542
 30
0.0
  0
VERTEX
  5
862
  8
LAYER_1
 10
-96.04743580057948
 20
-40.24578326978002
 30
0.0
  0
VERTEX
  5
863
  8
LAYER_1
 10
-93.52772507380041
 20
-40.24736721244909
 30
0.0
  0
VERTEX
  5
864
  8
LAYER_1
 10
-93.53185496593278
 20
-37.32974481826278
 30
0.0
  0
VERTEX
  5
865
  8
LAYER_1
 10
-91.31314983880338
 20
-38.74367763976585
 30
0.0
  0
VERTEX
  5
866
  8
LAYER_1
 10
-90.0370131698919
 20
-36.28557461288671
 30
0.0
  0
SEQEND
  5
867
  8
LAYER_1
  0
POLYLINE
  5
105
  8
LAYER_1
 66
     1
 10
0.0
 20
0.0
 30
0.0
 70
     1
  0
VERTEX
  5
868
  8
LAYER_1
 10
124.2006166741312
 20
-43.99831944355407
 30
0.0
  0
VERTEX
  5
869
  8
LAYER_1
 10
114.4119783663232
 20
-43.99831944355361
 30
0.0
  0
VERTEX
  5
86A
  8
LAYER_1
 10
119.244469098855
 20
-38.50701126660471
 30
0.0
  0
SEQEND
  5
86B
  8
LAYER_1
  0
POLYLINE
  5
106
  8
LAYER_1
 66
     1
 10
0.0
 20
0.0
 30
0.0
 70
     1
  0
VERTEX
  5
86C
  8
LAYER_1
 10
44.71345643286213
 20
-43.99831944355407
 30
0.0
  0
VERTEX
  5
86D
  8
LAYER_1
 10
34.92481812505457
 20
-43.99831944355361
 30
0.0
  0
VERTEX
  5
86E
  8
LAYER_1
 10
39.75730885758594
 20
-38.50701126660471
 30
0.0
  0
SEQEND
  5
86F
  8
LAYER_1
  0
POLYLINE
  5
107
  8
LAYER_1
 66
     1
 10
0.0
 20
0.0
 30
0.0
 70
     1
  0
VERTEX
  5
870
  8
LAYER_1
 10
-34.86522835414871
 20
-43.99831944355407
 30
0.0
  0
VERTEX
  5
871
  8
LAYER_1
 10
-44.65386666195764
 20
-43.99831944355407
 30
0.0
  0
VERTEX
  5
872
  8
LAYER_1
 10
-39.69771908668145
 20
-38.50701126660471
 30
0.0
  0
SEQEND
  5
873
  8
LAYER_1
  0
POLYLINE
  5
108
  8
LAYER_1
 66
     1
 10
0.0
 20
0.0
 30
0.0
 70
     1
  0
VERTEX
  5
874
  8
LAYER_1
 10
-114.3523885954173
 20
-43.99831944355407
 30
0.0
  0
VERTEX
  5
875
  8
LAYER_1
 10
-124.1410269032262
 20
-43.99831944355407
 30
0.0
  0
VERTEX
  5
876
  8
LAYER_1
 10
-119.1848793279501
 20
-38.50701126660471
 30
0.0
  0
SEQEND
  5
877
  8
LAYER_1
  0
ENDSEC
  0
EOF
