  0
SECTION
  2
HEADER
  9
$ACADVER
  1
AC1009
  9
$DWGCODEPAGE
  3
ansi_1252
  9
$INSBASE
 10
0.0
 20
0.0
 30
0.0
  9
$EXTMIN
 10
-201.5
 20
-396.5
 30
0.0
  9
$EXTMAX
 10
201.5
 20
396.5
 30
0.0
  9
$LIMMIN
 10
0.0
 20
0.0
  9
$LIMMAX
 10
12.0
 20
9.0
  9
$ORTHOMODE
 70
     0
  9
$REGENMODE
 70
     1
  9
$FILLMODE
 70
     1
  9
$QTEXTMODE
 70
     0
  9
$MIRRTEXT
 70
     1
  9
$DRAGMODE
 70
     2
  9
$LTSCALE
 40
1.0
  9
$OSMODE
 70
    37
  9
$ATTMODE
 70
     1
  9
$TEXTSIZE
 40
0.2
  9
$TRACEWID
 40
0.05
  9
$TEXTSTYLE
  7
STANDARD
  9
$CLAYER
  8
0
  9
$CELTYPE
  6
BYLAYER
  9
$CECOLOR
 62
   256
  9
$DIMSCALE
 40
1.0
  9
$DIMASZ
 40
0.18
  9
$DIMEXO
 40
0.0625
  9
$DIMDLI
 40
0.38
  9
$DIMRND
 40
0.0
  9
$DIMDLE
 40
0.0
  9
$DIMEXE
 40
0.18
  9
$DIMTP
 40
0.0
  9
$DIMTM
 40
0.0
  9
$DIMTXT
 40
0.18
  9
$DIMCEN
 40
0.09
  9
$DIMTSZ
 40
0.0
  9
$DIMTOL
 70
     0
  9
$DIMLIM
 70
     0
  9
$DIMTIH
 70
     1
  9
$DIMTOH
 70
     1
  9
$DIMSE1
 70
     0
  9
$DIMSE2
 70
     0
  9
$DIMTAD
 70
     0
  9
$DIMZIN
 70
     0
  9
$DIMBLK
  1

  9
$DIMASO
 70
     1
  9
$DIMSHO
 70
     1
  9
$DIMPOST
  1

  9
$DIMAPOST
  1

  9
$DIMALT
 70
     0
  9
$DIMALTD
 70
     2
  9
$DIMALTF
 40
25.4
  9
$DIMLFAC
 40
1.0
  9
$DIMTOFL
 70
     0
  9
$DIMTVP
 40
0.0
  9
$DIMTIX
 70
     0
  9
$DIMSOXD
 70
     0
  9
$DIMSAH
 70
     0
  9
$DIMBLK1
  1

  9
$DIMBLK2
  1

  9
$DIMSTYLE
  2
STANDARD
  9
$DIMCLRD
 70
     0
  9
$DIMCLRE
 70
     0
  9
$DIMCLRT
 70
     0
  9
$DIMTFAC
 40
1.0
  9
$DIMGAP
 40
0.09
  9
$LUNITS
 70
     2
  9
$LUPREC
 70
     4
  9
$SKETCHINC
 40
0.1
  9
$FILLETRAD
 40
0.5
  9
$AUNITS
 70
     0
  9
$AUPREC
 70
     0
  9
$MENU
  1
.
  9
$ELEVATION
 40
0.0
  9
$PELEVATION
 40
0.0
  9
$THICKNESS
 40
0.0
  9
$LIMCHECK
 70
     0
  9
$CHAMFERA
 40
0.5
  9
$CHAMFERB
 40
0.5
  9
$SKPOLY
 70
     0
  9
$TDCREATE
 40
2454910.5
  9
$TDUPDATE
 40
2457348.647839248
  9
$TDINDWG
 40
0.0000000116
  9
$TDUSRTIMER
 40
0.0000000116
  9
$USRTIMER
 70
     1
  9
$ANGBASE
 50
0.0
  9
$ANGDIR
 70
     0
  9
$PDMODE
 70
     0
  9
$PDSIZE
 40
0.0
  9
$PLINEWID
 40
0.0
  9
$COORDS
 70
     1
  9
$SPLFRAME
 70
     0
  9
$SPLINETYPE
 70
     6
  9
$SPLINESEGS
 70
     8
  9
$ATTDIA
 70
     0
  9
$ATTREQ
 70
     1
  9
$HANDLING
 70
     1
  9
$HANDSEED
  5
442
  9
$SURFTAB1
 70
     6
  9
$SURFTAB2
 70
     6
  9
$SURFTYPE
 70
     6
  9
$SURFU
 70
     6
  9
$SURFV
 70
     6
  9
$UCSNAME
  2

  9
$UCSORG
 10
0.0
 20
0.0
 30
0.0
  9
$UCSXDIR
 10
1.0
 20
0.0
 30
0.0
  9
$UCSYDIR
 10
0.0
 20
1.0
 30
0.0
  9
$PUCSNAME
  2

  9
$PUCSORG
 10
0.0
 20
0.0
 30
0.0
  9
$PUCSXDIR
 10
1.0
 20
0.0
 30
0.0
  9
$PUCSYDIR
 10
0.0
 20
1.0
 30
0.0
  9
$USERI1
 70
     0
  9
$USERI2
 70
     0
  9
$USERI3
 70
     0
  9
$USERI4
 70
     0
  9
$USERI5
 70
     0
  9
$USERR1
 40
0.0
  9
$USERR2
 40
0.0
  9
$USERR3
 40
0.0
  9
$USERR4
 40
0.0
  9
$USERR5
 40
0.0
  9
$WORLDVIEW
 70
     1
  9
$SHADEDGE
 70
     3
  9
$SHADEDIF
 70
    70
  9
$TILEMODE
 70
     1
  9
$MAXACTVP
 70
    64
  9
$PLIMCHECK
 70
     0
  9
$PEXTMIN
 10
1.000000000000000E+20
 20
1.000000000000000E+20
 30
1.000000000000000E+20
  9
$PEXTMAX
 10
-1.000000000000000E+20
 20
-1.000000000000000E+20
 30
-1.000000000000000E+20
  9
$PLIMMIN
 10
0.0
 20
0.0
  9
$PLIMMAX
 10
12.0
 20
9.0
  9
$UNITMODE
 70
     0
  9
$VISRETAIN
 70
     1
  9
$PLINEGEN
 70
     0
  9
$PSLTSCALE
 70
     1
  0
ENDSEC
  0
SECTION
  2
TABLES
  0
TABLE
  2
VPORT
 70
     1
  0
VPORT
  2
*ACTIVE
 70
     0
 10
0.0
 20
0.0
 11
1.0
 21
1.0
 12
10.42990654205607
 22
4.5
 13
0.0
 23
0.0
 14
0.5
 24
0.5
 15
0.5
 25
0.5
 16
0.0
 26
0.0
 36
1.0
 17
0.0
 27
0.0
 37
0.0
 40
9.0
 41
1.972972972850329
 42
50.0
 43
0.0
 44
0.0
 50
0.0
 51
0.0
 71
     0
 72
   100
 73
     1
 74
     3
 75
     0
 76
     0
 77
     0
 78
     0
  0
ENDTAB
  0
TABLE
  2
LTYPE
 70
     2
  0
LTYPE
  2
CONTINUOUS
 70
     0
  3
Solid line
 72
    65
 73
     0
 40
0.0
  0
LTYPE
  2
CONTINUOUS2
 70
     0
  3
Solid Line
 72
    65
 73
     0
 40
0.0
  0
ENDTAB
  0
TABLE
  2
LAYER
 70
     2
  0
LAYER
  2
0
 70
     0
 62
     7
  6
CONTINUOUS
  0
LAYER
  2
LAYER_3
 70
     0
 62
    18
  6
CONTINUOUS
  0
ENDTAB
  0
TABLE
  2
STYLE
 70
     1
  0
STYLE
  2
STANDARD
 70
     0
 40
0.0
 41
1.0
 50
0.0
 71
     0
 42
0.2
  3
txt
  4

  0
ENDTAB
  0
TABLE
  2
VIEW
 70
     0
  0
ENDTAB
  0
TABLE
  2
UCS
 70
     0
  0
ENDTAB
  0
TABLE
  2
APPID
 70
     1
  0
APPID
  2
ACAD
 70
     0
  0
ENDTAB
  0
TABLE
  2
DIMSTYLE
 70
     1
  0
DIMSTYLE
  2
STANDARD
 70
     0
  3

  4

  5

  6

  7

 40
1.0
 41
0.18
 42
0.0625
 43
0.38
 44
0.18
 45
0.0
 46
0.0
 47
0.0
 48
0.0
140
0.18
141
0.09
142
0.0
143
25.4
144
1.0
145
0.0
146
1.0
147
0.09
 71
     0
 72
     0
 73
     1
 74
     1
 75
     0
 76
     0
 77
     0
 78
     0
170
     0
171
     2
172
     0
173
     0
174
     0
175
     0
176
     0
177
     0
178
     0
  0
ENDTAB
  0
ENDSEC
  0
SECTION
  2
BLOCKS
  0
BLOCK
  8
0
  2
$MODEL_SPACE
 70
     0
 10
0.0
 20
0.0
 30
0.0
  3
$MODEL_SPACE
  1

  0
ENDBLK
  5
21
  8
0
  0
BLOCK
 67
     1
  8
0
  2
$PAPER_SPACE
 70
     0
 10
0.0
 20
0.0
 30
0.0
  3
$PAPER_SPACE
  1

  0
ENDBLK
  5
1D
 67
     1
  8
0
  0
ENDSEC
  0
SECTION
  2
ENTITIES
  0
POLYLINE
  5
41
  8
LAYER_3
 66
     1
 10
0.0
 20
0.0
 30
0.0
 70
     1
  0
VERTEX
  5
B8
  8
LAYER_3
 10
-201.5
 20
-396.5
 30
0.0
  0
VERTEX
  5
B9
  8
LAYER_3
 10
201.5
 20
-396.5
 30
0.0
  0
VERTEX
  5
BA
  8
LAYER_3
 10
201.5
 20
396.5
 30
0.0
  0
VERTEX
  5
BB
  8
LAYER_3
 10
-201.5
 20
396.5
 30
0.0
  0
SEQEND
  5
BC
  8
LAYER_3
  0
POLYLINE
  5
42
  8
LAYER_3
 66
     1
 10
0.0
 20
0.0
 30
0.0
 70
     1
  0
VERTEX
  5
BD
  8
LAYER_3
 10
78.69310475387192
 20
363.0154641241457
 30
0.0
  0
VERTEX
  5
BE
  8
LAYER_3
 10
39.26245783990385
 20
363.0154641241457
 30
0.0
  0
VERTEX
  5
BF
  8
LAYER_3
 10
18.1461183094234
 20
376.5
 30
0.0
  0
VERTEX
  5
C0
  8
LAYER_3
 10
56.73211164217219
 20
376.5
 30
0.0
  0
SEQEND
  5
C1
  8
LAYER_3
  0
POLYLINE
  5
43
  8
LAYER_3
 66
     1
 10
0.0
 20
0.0
 30
0.0
 70
     1
  0
VERTEX
  5
C2
  8
LAYER_3
 10
10.37581476805394
 20
364.5308424587524
 30
0.0
  0
VERTEX
  5
C3
  8
LAYER_3
 10
-10.19669666532036
 20
364.5308424587524
 30
0.0
  0
VERTEX
  5
C4
  8
LAYER_3
 10
-3.420866995787264
 20
350.7300881693157
 30
0.0
  0
VERTEX
  5
C5
  8
LAYER_3
 10
-16.18149605358894
 20
358.2413371766496
 30
0.0
  0
VERTEX
  5
C6
  8
LAYER_3
 10
-16.18149605358894
 20
336.0707268989605
 30
0.0
  0
VERTEX
  5
C7
  8
LAYER_3
 10
-25.6105637938856
 20
352.7213344944581
 30
0.0
  0
VERTEX
  5
C8
  8
LAYER_3
 10
-35.03963153418249
 20
336.0707268989605
 30
0.0
  0
VERTEX
  5
C9
  8
LAYER_3
 10
-35.03963153418249
 20
358.7929134637983
 30
0.0
  0
VERTEX
  5
CA
  8
LAYER_3
 10
-48.40186967489331
 20
350.9275411913544
 30
0.0
  0
VERTEX
  5
CB
  8
LAYER_3
 10
-41.55827948279784
 20
365.1810703050817
 30
0.0
  0
VERTEX
  5
CC
  8
LAYER_3
 10
-62.23039239682771
 20
365.4215105047946
 30
0.0
  0
VERTEX
  5
CD
  8
LAYER_3
 10
-45.93101158566697
 20
376.5
 30
0.0
  0
VERTEX
  5
CE
  8
LAYER_3
 10
-7.837971238359387
 20
376.5
 30
0.0
  0
SEQEND
  5
CF
  8
LAYER_3
  0
POLYLINE
  5
44
  8
LAYER_3
 66
     1
 10
0.0
 20
0.0
 30
0.0
 70
     1
  0
VERTEX
  5
D0
  8
LAYER_3
 10
-161.5866987660654
 20
369.8992538238046
 30
0.0
  0
VERTEX
  5
D1
  8
LAYER_3
 10
-141.4605448565198
 20
348.2155286201649
 30
0.0
  0
VERTEX
  5
D2
  8
LAYER_3
 10
-166.2999449879244
 20
355.0012224232641
 30
0.0
  0
VERTEX
  5
D3
  8
LAYER_3
 10
-159.2005346351955
 20
327.9883647829745
 30
0.0
  0
VERTEX
  5
D4
  8
LAYER_3
 10
-179.8087312843461
 20
348.9990730489365
 30
0.0
  0
VERTEX
  5
D5
  8
LAYER_3
 10
-181.5
 20
343.2566604892679
 30
0.0
  0
VERTEX
  5
D6
  8
LAYER_3
 10
-181.5
 20
376.5
 30
0.0
  0
VERTEX
  5
D7
  8
LAYER_3
 10
-141.3742727636343
 20
376.5
 30
0.0
  0
SEQEND
  5
D8
  8
LAYER_3
  0
POLYLINE
  5
45
  8
LAYER_3
 66
     1
 10
0.0
 20
0.0
 30
0.0
 70
     1
  0
VERTEX
  5
D9
  8
LAYER_3
 10
106.582881366324
 20
364.7571458553847
 30
0.0
  0
VERTEX
  5
DA
  8
LAYER_3
 10
83.64264399955982
 20
335.2314936496189
 30
0.0
  0
VERTEX
  5
DB
  8
LAYER_3
 10
20.2107337466548
 20
335.2314936496189
 30
0.0
  0
VERTEX
  5
DC
  8
LAYER_3
 10
13.35322993552995
 20
347.3410264463444
 30
0.0
  0
VERTEX
  5
DD
  8
LAYER_3
 10
79.3567041176068
 20
347.3410264463444
 30
0.0
  0
VERTEX
  5
DE
  8
LAYER_3
 10
92.52232586149535
 20
364.4668655668449
 30
0.0
  0
VERTEX
  5
DF
  8
LAYER_3
 10
84.09066136560841
 20
376.5
 30
0.0
  0
VERTEX
  5
E0
  8
LAYER_3
 10
97.7844924154665
 20
376.5
 30
0.0
  0
SEQEND
  5
E1
  8
LAYER_3
  0
POLYLINE
  5
46
  8
LAYER_3
 66
     1
 10
0.0
 20
0.0
 30
0.0
 70
     1
  0
VERTEX
  5
E2
  8
LAYER_3
 10
181.5
 20
330.6556426382854
 30
0.0
  0
VERTEX
  5
E3
  8
LAYER_3
 10
174.8897711591651
 20
337.3949800053788
 30
0.0
  0
VERTEX
  5
E4
  8
LAYER_3
 10
174.8897711591651
 20
347.6576322636397
 30
0.0
  0
VERTEX
  5
E5
  8
LAYER_3
 10
181.5
 20
347.6576322636402
 30
0.0
  0
SEQEND
  5
E6
  8
LAYER_3
  0
POLYLINE
  5
47
  8
LAYER_3
 66
     1
 10
0.0
 20
0.0
 30
0.0
 70
     1
  0
VERTEX
  5
E7
  8
LAYER_3
 10
142.1860140335391
 20
313.6527792944182
 30
0.0
  0
VERTEX
  5
E8
  8
LAYER_3
 10
130.6696688472487
 20
313.6527792944182
 30
0.0
  0
VERTEX
  5
E9
  8
LAYER_3
 10
125.2145579695327
 20
319.21443736482
 30
0.0
  0
VERTEX
  5
EA
  8
LAYER_3
 10
142.1860140335391
 20
336.5173735838474
 30
0.0
  0
SEQEND
  5
EB
  8
LAYER_3
  0
POLYLINE
  5
48
  8
LAYER_3
 66
     1
 10
0.0
 20
0.0
 30
0.0
 70
     1
  0
VERTEX
  5
EC
  8
LAYER_3
 10
-129.5735329856684
 20
335.525493992524
 30
0.0
  0
VERTEX
  5
ED
  8
LAYER_3
 10
-101.0668241074493
 20
305.1220919700982
 30
0.0
  0
VERTEX
  5
EE
  8
LAYER_3
 10
-124.2502642300935
 20
311.455406186324
 30
0.0
  0
VERTEX
  5
EF
  8
LAYER_3
 10
-118.0035525463159
 20
287.0500705778609
 30
0.0
  0
VERTEX
  5
F0
  8
LAYER_3
 10
-146.1012759026294
 20
316.5342541709787
 30
0.0
  0
VERTEX
  5
F1
  8
LAYER_3
 10
-152.7569731083129
 20
341.8588082087501
 30
0.0
  0
SEQEND
  5
F2
  8
LAYER_3
  0
POLYLINE
  5
49
  8
LAYER_3
 66
     1
 10
0.0
 20
0.0
 30
0.0
 70
     1
  0
VERTEX
  5
F3
  8
LAYER_3
 10
181.5
 20
315.8455330013898
 30
0.0
  0
VERTEX
  5
F4
  8
LAYER_3
 10
181.5
 20
297.4929976990209
 30
0.0
  0
VERTEX
  5
F5
  8
LAYER_3
 10
175.6389863202176
 20
303.4684865137493
 30
0.0
  0
VERTEX
  5
F6
  8
LAYER_3
 10
175.6389863202176
 20
321.8210218161183
 30
0.0
  0
SEQEND
  5
F7
  8
LAYER_3
  0
POLYLINE
  5
4A
  8
LAYER_3
 66
     1
 10
0.0
 20
0.0
 30
0.0
 70
     1
  0
VERTEX
  5
F8
  8
LAYER_3
 10
181.5
 20
371.1761133060472
 30
0.0
  0
VERTEX
  5
F9
  8
LAYER_3
 10
181.5
 20
358.0594839891817
 30
0.0
  0
VERTEX
  5
FA
  8
LAYER_3
 10
163.4366543898282
 20
358.0594839891817
 30
0.0
  0
VERTEX
  5
FB
  8
LAYER_3
 10
163.4366543898282
 20
289.8929242946685
 30
0.0
  0
VERTEX
  5
FC
  8
LAYER_3
 10
154.8647746259221
 20
289.8929242946685
 30
0.0
  0
VERTEX
  5
FD
  8
LAYER_3
 10
143.4525759744731
 20
302.0375880693726
 30
0.0
  0
VERTEX
  5
FE
  8
LAYER_3
 10
152.0244557383794
 20
302.0375880693726
 30
0.0
  0
VERTEX
  5
FF
  8
LAYER_3
 10
152.0244557383794
 20
371.1761133060473
 30
0.0
  0
SEQEND
  5
100
  8
LAYER_3
  0
POLYLINE
  5
4B
  8
LAYER_3
 66
     1
 10
0.0
 20
0.0
 30
0.0
 70
     1
  0
VERTEX
  5
101
  8
LAYER_3
 10
181.0353559848634
 20
283.0138656110055
 30
0.0
  0
VERTEX
  5
102
  8
LAYER_3
 10
181.5
 20
282.540146342126
 30
0.0
  0
VERTEX
  5
103
  8
LAYER_3
 10
181.5
 20
260.5822130697138
 30
0.0
  0
VERTEX
  5
104
  8
LAYER_3
 10
180.3689502241948
 20
259.4290720512006
 30
0.0
  0
VERTEX
  5
105
  8
LAYER_3
 10
172.4893456230493
 20
251.3955659495091
 30
0.0
  0
VERTEX
  5
106
  8
LAYER_3
 10
172.4893456230493
 20
262.5955196577613
 30
0.0
  0
VERTEX
  5
107
  8
LAYER_3
 10
160.8340860131445
 20
262.5955196577611
 30
0.0
  0
VERTEX
  5
108
  8
LAYER_3
 10
168.9964525213989
 20
270.6932546367372
 30
0.0
  0
VERTEX
  5
109
  8
LAYER_3
 10
161.5004917738129
 20
279.8474180044451
 30
0.0
  0
VERTEX
  5
10A
  8
LAYER_3
 10
173.1557513837174
 20
279.8474180044449
 30
0.0
  0
VERTEX
  5
10B
  8
LAYER_3
 10
173.1557513837174
 20
291.0473717126968
 30
0.0
  0
SEQEND
  5
10C
  8
LAYER_3
  0
POLYLINE
  5
4C
  8
LAYER_3
 66
     1
 10
0.0
 20
0.0
 30
0.0
 70
     1
  0
VERTEX
  5
10D
  8
LAYER_3
 10
-85.61042680828905
 20
362.6348896928319
 30
0.0
  0
VERTEX
  5
10E
  8
LAYER_3
 10
-111.2778069440737
 20
355.6230060962962
 30
0.0
  0
VERTEX
  5
10F
  8
LAYER_3
 10
-112.1349949204644
 20
355.6230060962962
 30
0.0
  0
VERTEX
  5
110
  8
LAYER_3
 10
-80.14672071961604
 20
321.0908901235084
 30
0.0
  0
VERTEX
  5
111
  8
LAYER_3
 10
-82.90176086215024
 20
282.7071534877688
 30
0.0
  0
VERTEX
  5
112
  8
LAYER_3
 10
-96.2428918130347
 20
281.8777812347979
 30
0.0
  0
VERTEX
  5
113
  8
LAYER_3
 10
-96.2428918130347
 20
267.0209669424039
 30
0.0
  0
VERTEX
  5
114
  8
LAYER_3
 10
-132.5580196998578
 20
264.0013880227301
 30
0.0
  0
VERTEX
  5
115
  8
LAYER_3
 10
-163.2409939197023
 20
297.6340916252085
 30
0.0
  0
VERTEX
  5
116
  8
LAYER_3
 10
-170.3404042724317
 20
270.6212339849189
 30
0.0
  0
VERTEX
  5
117
  8
LAYER_3
 10
-176.3305317575462
 20
293.4133326189133
 30
0.0
  0
VERTEX
  5
118
  8
LAYER_3
 10
-170.1556044735146
 20
320.6491716451526
 30
0.0
  0
VERTEX
  5
119
  8
LAYER_3
 10
-128.6679411506427
 20
276.2777561112063
 30
0.0
  0
VERTEX
  5
11A
  8
LAYER_3
 10
-106.907254995999
 20
277.5218144906627
 30
0.0
  0
VERTEX
  5
11B
  8
LAYER_3
 10
-106.907254995999
 20
291.504698530563
 30
0.0
  0
VERTEX
  5
11C
  8
LAYER_3
 10
-92.06117939516753
 20
292.8652011706255
 30
0.0
  0
VERTEX
  5
11D
  8
LAYER_3
 10
-91.04432490195973
 20
316.2949673170551
 30
0.0
  0
VERTEX
  5
11E
  8
LAYER_3
 10
-133.6332670623381
 20
361.7301305190854
 30
0.0
  0
VERTEX
  5
11F
  8
LAYER_3
 10
-107.9658869265534
 20
368.7420141156212
 30
0.0
  0
SEQEND
  5
120
  8
LAYER_3
  0
POLYLINE
  5
4D
  8
LAYER_3
 66
     1
 10
0.0
 20
0.0
 30
0.0
 70
     1
  0
VERTEX
  5
121
  8
LAYER_3
 10
140.9149016989704
 20
350.7739565958145
 30
0.0
  0
VERTEX
  5
122
  8
LAYER_3
 10
111.2007610188919
 20
318.720144502047
 30
0.0
  0
VERTEX
  5
123
  8
LAYER_3
 10
155.010106520655
 20
271.2999565661798
 30
0.0
  0
VERTEX
  5
124
  8
LAYER_3
 10
149.30193237448
 20
264.7180583666022
 30
0.0
  0
VERTEX
  5
125
  8
LAYER_3
 10
133.8725487994493
 20
264.7180583666022
 30
0.0
  0
VERTEX
  5
126
  8
LAYER_3
 10
139.3164349075737
 20
271.0591410755227
 30
0.0
  0
VERTEX
  5
127
  8
LAYER_3
 10
95.83723358782936
 20
319.3137936099939
 30
0.0
  0
VERTEX
  5
128
  8
LAYER_3
 10
140.9149016989704
 20
367.3786313931959
 30
0.0
  0
SEQEND
  5
129
  8
LAYER_3
  0
POLYLINE
  5
4E
  8
LAYER_3
 66
     1
 10
0.0
 20
0.0
 30
0.0
 70
     1
  0
VERTEX
  5
12A
  8
LAYER_3
 10
125.0578185182671
 20
271.6688717114544
 30
0.0
  0
VERTEX
  5
12B
  8
LAYER_3
 10
117.5975812860515
 20
263.0375811750661
 30
0.0
  0
VERTEX
  5
12C
  8
LAYER_3
 10
109.8828894985361
 20
263.0375811750661
 30
0.0
  0
VERTEX
  5
12D
  8
LAYER_3
 10
109.8050011201528
 20
288.0489737076306
 30
0.0
  0
SEQEND
  5
12E
  8
LAYER_3
  0
POLYLINE
  5
4F
  8
LAYER_3
 66
     1
 10
0.0
 20
0.0
 30
0.0
 70
     1
  0
VERTEX
  5
12F
  8
LAYER_3
 10
75.70251784635957
 20
256.3372775898338
 30
0.0
  0
VERTEX
  5
130
  8
LAYER_3
 10
29.64725357675206
 20
305.3605099200369
 30
0.0
  0
VERTEX
  5
131
  8
LAYER_3
 10
-46.64247632201227
 20
305.3605099200369
 30
0.0
  0
VERTEX
  5
132
  8
LAYER_3
 10
-56.03951557512983
 20
294.960181867781
 30
0.0
  0
VERTEX
  5
133
  8
LAYER_3
 10
-62.78164218553161
 20
302.1693705873165
 30
0.0
  0
VERTEX
  5
134
  8
LAYER_3
 10
-49.44692670666927
 20
315.7645347594096
 30
0.0
  0
VERTEX
  5
135
  8
LAYER_3
 10
75.70251784635957
 20
315.7645347594096
 30
0.0
  0
SEQEND
  5
136
  8
LAYER_3
  0
POLYLINE
  5
50
  8
LAYER_3
 66
     1
 10
0.0
 20
0.0
 30
0.0
 70
     1
  0
VERTEX
  5
137
  8
LAYER_3
 10
-8.68872008714743
 20
247.0741199866898
 30
0.0
  0
VERTEX
  5
138
  8
LAYER_3
 10
-17.17444811915061
 20
255.7255880962036
 30
0.0
  0
VERTEX
  5
139
  8
LAYER_3
 10
-17.43529569592238
 20
263.316546188873
 30
0.0
  0
VERTEX
  5
13A
  8
LAYER_3
 10
5.708779666624196
 20
263.316546188873
 30
0.0
  0
SEQEND
  5
13B
  8
LAYER_3
  0
POLYLINE
  5
51
  8
LAYER_3
 66
     1
 10
0.0
 20
0.0
 30
0.0
 70
     1
  0
VERTEX
  5
13C
  8
LAYER_3
 10
99.60542437967842
 20
295.9330427545669
 30
0.0
  0
VERTEX
  5
13D
  8
LAYER_3
 10
99.60542437967842
 20
252.2365301298788
 30
0.0
  0
VERTEX
  5
13E
  8
LAYER_3
 10
162.1801466561928
 20
252.2365301298788
 30
0.0
  0
VERTEX
  5
13F
  8
LAYER_3
 10
162.1801466561928
 20
242.6232973524475
 30
0.0
  0
VERTEX
  5
140
  8
LAYER_3
 10
151.2699249007599
 20
231.4999812116441
 30
0.0
  0
VERTEX
  5
141
  8
LAYER_3
 10
151.2699249007601
 20
240.8980147785572
 30
0.0
  0
VERTEX
  5
142
  8
LAYER_3
 10
89.1893717974242
 20
240.8980147785573
 30
0.0
  0
VERTEX
  5
143
  8
LAYER_3
 10
89.1893717974242
 20
307.3167139680832
 30
0.0
  0
SEQEND
  5
144
  8
LAYER_3
  0
POLYLINE
  5
52
  8
LAYER_3
 66
     1
 10
0.0
 20
0.0
 30
0.0
 70
     1
  0
VERTEX
  5
145
  8
LAYER_3
 10
79.2301865996701
 20
231.285775093008
 30
0.0
  0
VERTEX
  5
146
  8
LAYER_3
 10
63.80080302463875
 20
231.285775093008
 30
0.0
  0
VERTEX
  5
147
  8
LAYER_3
 10
35.54038294941211
 20
262.3727205649922
 30
0.0
  0
VERTEX
  5
148
  8
LAYER_3
 10
-8.381223288401316
 20
215.5231407391686
 30
0.0
  0
VERTEX
  5
149
  8
LAYER_3
 10
-15.25353269529614
 20
220.7627004426739
 30
0.0
  0
VERTEX
  5
14A
  8
LAYER_3
 10
-15.25353269529614
 20
238.241305492549
 30
0.0
  0
VERTEX
  5
14B
  8
LAYER_3
 10
-8.86931344514096
 20
231.7522969853043
 30
0.0
  0
VERTEX
  5
14C
  8
LAYER_3
 10
35.50784360562943
 20
279.026515404649
 30
0.0
  0
SEQEND
  5
14D
  8
LAYER_3
  0
POLYLINE
  5
53
  8
LAYER_3
 66
     1
 10
0.0
 20
0.0
 30
0.0
 70
     1
  0
VERTEX
  5
14E
  8
LAYER_3
 10
51.58156702877159
 20
229.5825351124471
 30
0.0
  0
VERTEX
  5
14F
  8
LAYER_3
 10
30.15186761900623
 20
229.5825351124471
 30
0.0
  0
VERTEX
  5
150
  8
LAYER_3
 10
30.15186761900623
 20
241.8175586473598
 30
0.0
  0
VERTEX
  5
151
  8
LAYER_3
 10
35.04578492391602
 20
247.3378603631344
 30
0.0
  0
SEQEND
  5
152
  8
LAYER_3
  0
POLYLINE
  5
54
  8
LAYER_3
 66
     1
 10
0.0
 20
0.0
 30
0.0
 70
     1
  0
VERTEX
  5
153
  8
LAYER_3
 10
-47.99033609446906
 20
229.7969120894141
 30
0.0
  0
VERTEX
  5
154
  8
LAYER_3
 10
-59.09124333336194
 20
229.5432364380265
 30
0.0
  0
VERTEX
  5
155
  8
LAYER_3
 10
-64.54635421107855
 20
235.1048945084282
 30
0.0
  0
VERTEX
  5
156
  8
LAYER_3
 10
-47.99033609446906
 20
253.3930289067456
 30
0.0
  0
SEQEND
  5
157
  8
LAYER_3
  0
POLYLINE
  5
55
  8
LAYER_3
 66
     1
 10
0.0
 20
0.0
 30
0.0
 70
     1
  0
VERTEX
  5
158
  8
LAYER_3
 10
140.9514383911805
 20
218.40968298086
 30
0.0
  0
VERTEX
  5
159
  8
LAYER_3
 10
135.5571275975026
 20
212.1482746321523
 30
0.0
  0
VERTEX
  5
15A
  8
LAYER_3
 10
119.5217389814156
 20
229.7707762632789
 30
0.0
  0
VERTEX
  5
15B
  8
LAYER_3
 10
140.9514383911805
 20
229.7707762632789
 30
0.0
  0
SEQEND
  5
15C
  8
LAYER_3
  0
POLYLINE
  5
56
  8
LAYER_3
 66
     1
 10
0.0
 20
0.0
 30
0.0
 70
     1
  0
VERTEX
  5
15D
  8
LAYER_3
 10
14.00752304397179
 20
273.9262648171213
 30
0.0
  0
VERTEX
  5
15E
  8
LAYER_3
 10
-27.1374998227775
 20
273.9262648171213
 30
0.0
  0
VERTEX
  5
15F
  8
LAYER_3
 10
-27.1374998227775
 20
207.5075656275954
 30
0.0
  0
VERTEX
  5
160
  8
LAYER_3
 10
-34.85219161029272
 20
207.5075656275954
 30
0.0
  0
VERTEX
  5
161
  8
LAYER_3
 10
-46.36853679658293
 20
219.2488437762212
 30
0.0
  0
VERTEX
  5
162
  8
LAYER_3
 10
-37.79665703267665
 20
219.2488437762212
 30
0.0
  0
VERTEX
  5
163
  8
LAYER_3
 10
-38.38082044608586
 20
285.7033508093089
 30
0.0
  0
VERTEX
  5
164
  8
LAYER_3
 10
24.19390183042833
 20
285.7033508093089
 30
0.0
  0
SEQEND
  5
165
  8
LAYER_3
  0
POLYLINE
  5
57
  8
LAYER_3
 66
     1
 10
0.0
 20
0.0
 30
0.0
 70
     1
  0
VERTEX
  5
166
  8
LAYER_3
 10
-0.9482353043047169
 20
197.4043458412388
 30
0.0
  0
VERTEX
  5
167
  8
LAYER_3
 10
10.19520838877315
 20
197.4043458412388
 30
0.0
  0
VERTEX
  5
168
  8
LAYER_3
 10
2.495851730909408
 20
188.6562730187093
 30
0.0
  0
VERTEX
  5
169
  8
LAYER_3
 10
10.37545633205514
 20
180.6227669170181
 30
0.0
  0
VERTEX
  5
16A
  8
LAYER_3
 10
-0.7679873610227332
 20
180.6227669170181
 30
0.0
  0
VERTEX
  5
16B
  8
LAYER_3
 10
-0.7679873610227332
 20
168.3877433821053
 30
0.0
  0
VERTEX
  5
16C
  8
LAYER_3
 10
-8.647591962168235
 20
176.4212494837966
 30
0.0
  0
VERTEX
  5
16D
  8
LAYER_3
 10
-17.13331999417187
 20
167.7697813742829
 30
0.0
  0
VERTEX
  5
16E
  8
LAYER_3
 10
-17.13331999417187
 20
180.0048049091956
 30
0.0
  0
VERTEX
  5
16F
  8
LAYER_3
 10
-28.27676368724929
 20
180.0048049091956
 30
0.0
  0
VERTEX
  5
170
  8
LAYER_3
 10
-20.39715908610378
 20
188.0383110108868
 30
0.0
  0
VERTEX
  5
171
  8
LAYER_3
 10
-27.96097404964553
 20
197.0163453286565
 30
0.0
  0
VERTEX
  5
172
  8
LAYER_3
 10
-16.81753035656743
 20
197.0163453286565
 30
0.0
  0
VERTEX
  5
173
  8
LAYER_3
 10
-16.81753035656743
 20
208.3774386110753
 30
0.0
  0
VERTEX
  5
174
  8
LAYER_3
 10
-8.827839905450674
 20
200.7319330219663
 30
0.0
  0
VERTEX
  5
175
  8
LAYER_3
 10
-0.9482353043047169
 20
208.7654391236576
 30
0.0
  0
SEQEND
  5
176
  8
LAYER_3
  0
POLYLINE
  5
58
  8
LAYER_3
 66
     1
 10
0.0
 20
0.0
 30
0.0
 70
     1
  0
VERTEX
  5
177
  8
LAYER_3
 10
181.5
 20
229.019785138344
 30
0.0
  0
VERTEX
  5
178
  8
LAYER_3
 10
177.5970111275437
 20
225.0405645417737
 30
0.0
  0
VERTEX
  5
179
  8
LAYER_3
 10
135.1683709675276
 20
181.7832239942051
 30
0.0
  0
VERTEX
  5
17A
  8
LAYER_3
 10
92.17210867387416
 20
227.3233740604138
 30
0.0
  0
VERTEX
  5
17B
  8
LAYER_3
 10
106.7443042725145
 20
227.3233740604138
 30
0.0
  0
VERTEX
  5
17C
  8
LAYER_3
 10
135.8382289536685
 20
197.661197684938
 30
0.0
  0
VERTEX
  5
17D
  8
LAYER_3
 10
178.2668691136846
 20
240.9185382325067
 30
0.0
  0
VERTEX
  5
17E
  8
LAYER_3
 10
181.5
 20
244.2148174263899
 30
0.0
  0
SEQEND
  5
17F
  8
LAYER_3
  0
POLYLINE
  5
59
  8
LAYER_3
 66
     1
 10
0.0
 20
0.0
 30
0.0
 70
     1
  0
VERTEX
  5
180
  8
LAYER_3
 10
181.5
 20
196.7863442898771
 30
0.0
  0
VERTEX
  5
181
  8
LAYER_3
 10
178.6643313296161
 20
196.7863442898771
 30
0.0
  0
VERTEX
  5
182
  8
LAYER_3
 10
163.9565479398611
 20
196.7863442898762
 30
0.0
  0
VERTEX
  5
183
  8
LAYER_3
 10
179.9659050809219
 20
213.1083902283441
 30
0.0
  0
VERTEX
  5
184
  8
LAYER_3
 10
181.5
 20
214.6724485176644
 30
0.0
  0
SEQEND
  5
185
  8
LAYER_3
  0
POLYLINE
  5
5A
  8
LAYER_3
 66
     1
 10
0.0
 20
0.0
 30
0.0
 70
     1
  0
VERTEX
  5
186
  8
LAYER_3
 10
-171.5068093646478
 20
223.0180830606193
 30
0.0
  0
VERTEX
  5
187
  8
LAYER_3
 10
-158.8869177873094
 20
230.4464902068163
 30
0.0
  0
VERTEX
  5
188
  8
LAYER_3
 10
-165.8488725032794
 20
217.0677205196912
 30
0.0
  0
VERTEX
  5
189
  8
LAYER_3
 10
-145.2763610699049
 20
217.0677205196912
 30
0.0
  0
VERTEX
  5
18A
  8
LAYER_3
 10
-160.081762491008
 20
206.7835045828515
 30
0.0
  0
VERTEX
  5
18B
  8
LAYER_3
 10
-144.9670801060743
 20
196.7037642452507
 30
0.0
  0
VERTEX
  5
18C
  8
LAYER_3
 10
-165.5395915394486
 20
196.7037642452507
 30
0.0
  0
VERTEX
  5
18D
  8
LAYER_3
 10
-158.2534937401285
 20
183.8373856487299
 30
0.0
  0
VERTEX
  5
18E
  8
LAYER_3
 10
-170.873385317467
 20
191.2657927949268
 30
0.0
  0
VERTEX
  5
18F
  8
LAYER_3
 10
-170.873385317467
 20
169.4175364825829
 30
0.0
  0
VERTEX
  5
190
  8
LAYER_3
 10
-181.5
 20
188.1828689651604
 30
0.0
  0
VERTEX
  5
191
  8
LAYER_3
 10
-181.5
 20
227.6193542896686
 30
0.0
  0
VERTEX
  5
192
  8
LAYER_3
 10
-172.3398165654835
 20
244.8663393729634
 30
0.0
  0
SEQEND
  5
193
  8
LAYER_3
  0
POLYLINE
  5
5B
  8
LAYER_3
 66
     1
 10
0.0
 20
0.0
 30
0.0
 70
     1
  0
VERTEX
  5
194
  8
LAYER_3
 10
-50.13437379339734
 20
265.9533954576829
 30
0.0
  0
VERTEX
  5
195
  8
LAYER_3
 10
-78.4105551132684
 20
235.5659736453142
 30
0.0
  0
VERTEX
  5
196
  8
LAYER_3
 10
-34.05775637196825
 20
188.8010368899907
 30
0.0
  0
VERTEX
  5
197
  8
LAYER_3
 10
-40.94825800974968
 20
181.7641832764966
 30
0.0
  0
VERTEX
  5
198
  8
LAYER_3
 10
-56.08030101343866
 20
181.7641832764966
 30
0.0
  0
VERTEX
  5
199
  8
LAYER_3
 10
-49.58527236706527
 20
188.282683966953
 30
0.0
  0
VERTEX
  5
19A
  8
LAYER_3
 10
-93.7370944621407
 20
234.9348731965692
 30
0.0
  0
VERTEX
  5
19B
  8
LAYER_3
 10
-50.13437379339734
 20
282.5580702550643
 30
0.0
  0
SEQEND
  5
19C
  8
LAYER_3
  0
POLYLINE
  5
5C
  8
LAYER_3
 66
     1
 10
0.0
 20
0.0
 30
0.0
 70
     1
  0
VERTEX
  5
19D
  8
LAYER_3
 10
-63.41660961739717
 20
189.0395792372565
 30
0.0
  0
VERTEX
  5
19E
  8
LAYER_3
 10
-71.29621421854313
 20
181.0060731355651
 30
0.0
  0
VERTEX
  5
19F
  8
LAYER_3
 10
-79.01090600605858
 20
181.0060731355651
 30
0.0
  0
VERTEX
  5
1A0
  8
LAYER_3
 10
-79.01090600605858
 20
204.6021899528967
 30
0.0
  0
SEQEND
  5
1A1
  8
LAYER_3
  0
POLYLINE
  5
5D
  8
LAYER_3
 66
     1
 10
0.0
 20
0.0
 30
0.0
 70
     1
  0
VERTEX
  5
1A2
  8
LAYER_3
 10
181.5
 20
174.9672942046255
 30
0.0
  0
VERTEX
  5
1A3
  8
LAYER_3
 10
146.0921222619859
 20
174.9672942046255
 30
0.0
  0
VERTEX
  5
1A4
  8
LAYER_3
 10
156.8170899727452
 20
186.5386958780761
 30
0.0
  0
VERTEX
  5
1A5
  8
LAYER_3
 10
181.5
 20
186.5386958780761
 30
0.0
  0
SEQEND
  5
1A6
  8
LAYER_3
  0
POLYLINE
  5
5E
  8
LAYER_3
 66
     1
 10
0.0
 20
0.0
 30
0.0
 70
     1
  0
VERTEX
  5
1A7
  8
LAYER_3
 10
60.81170285916028
 20
173.2025776210136
 30
0.0
  0
VERTEX
  5
1A8
  8
LAYER_3
 10
45.9216991442222
 20
188.4895669877743
 30
0.0
  0
VERTEX
  5
1A9
  8
LAYER_3
 10
53.95419904803543
 20
197.6726246908389
 30
0.0
  0
VERTEX
  5
1AA
  8
LAYER_3
 10
60.81170285916028
 20
197.6726246908389
 30
0.0
  0
SEQEND
  5
1AB
  8
LAYER_3
  0
POLYLINE
  5
5F
  8
LAYER_3
 66
     1
 10
0.0
 20
0.0
 30
0.0
 70
     1
  0
VERTEX
  5
1AC
  8
LAYER_3
 10
19.96946396621865
 20
219.3256176340283
 30
0.0
  0
VERTEX
  5
1AD
  8
LAYER_3
 10
82.54418624273285
 20
219.3256176340283
 30
0.0
  0
VERTEX
  5
1AE
  8
LAYER_3
 10
82.54418624273285
 20
154.65477894949
 30
0.0
  0
VERTEX
  5
1AF
  8
LAYER_3
 10
71.02784105644287
 20
166.3960570981158
 30
0.0
  0
VERTEX
  5
1B0
  8
LAYER_3
 10
71.02784105644287
 20
207.4707789653225
 30
0.0
  0
VERTEX
  5
1B1
  8
LAYER_3
 10
9.310306756318823
 20
207.4707789653225
 30
0.0
  0
VERTEX
  5
1B2
  8
LAYER_3
 10
9.310306756318823
 20
217.5772176593119
 30
0.0
  0
VERTEX
  5
1B3
  8
LAYER_3
 10
19.96946396621865
 20
228.4758034693188
 30
0.0
  0
SEQEND
  5
1B4
  8
LAYER_3
  0
POLYLINE
  5
60
  8
LAYER_3
 66
     1
 10
0.0
 20
0.0
 30
0.0
 70
     1
  0
VERTEX
  5
1B5
  8
LAYER_3
 10
-88.8502071260632
 20
212.8428400968102
 30
0.0
  0
VERTEX
  5
1B6
  8
LAYER_3
 10
-88.8502071260632
 20
170.020257724616
 30
0.0
  0
VERTEX
  5
1B7
  8
LAYER_3
 10
-27.13267282593961
 20
170.020257724616
 30
0.0
  0
VERTEX
  5
1B8
  8
LAYER_3
 10
-27.13267282593961
 20
160.4070249471847
 30
0.0
  0
VERTEX
  5
1B9
  8
LAYER_3
 10
-37.43677115051469
 20
149.9016708142037
 30
0.0
  0
VERTEX
  5
1BA
  8
LAYER_3
 10
-37.43677115051469
 20
157.7670430866475
 30
0.0
  0
VERTEX
  5
1BB
  8
LAYER_3
 10
-100.0114934270291
 20
157.7670430866475
 30
0.0
  0
VERTEX
  5
1BC
  8
LAYER_3
 10
-100.0114934270291
 20
224.1857422761732
 30
0.0
  0
SEQEND
  5
1BD
  8
LAYER_3
  0
POLYLINE
  5
61
  8
LAYER_3
 66
     1
 10
0.0
 20
0.0
 30
0.0
 70
     1
  0
VERTEX
  5
1BE
  8
LAYER_3
 10
-47.48264235059037
 20
137.2144590902951
 30
0.0
  0
VERTEX
  5
1BF
  8
LAYER_3
 10
-52.67119092403914
 20
131.6528010198933
 30
0.0
  0
VERTEX
  5
1C0
  8
LAYER_3
 10
-69.03652355718827
 20
148.3377752310984
 30
0.0
  0
VERTEX
  5
1C1
  8
LAYER_3
 10
-47.60682414742314
 20
148.3377752310984
 30
0.0
  0
SEQEND
  5
1C2
  8
LAYER_3
  0
POLYLINE
  5
62
  8
LAYER_3
 66
     1
 10
0.0
 20
0.0
 30
0.0
 70
     1
  0
VERTEX
  5
1C3
  8
LAYER_3
 10
45.76400877803781
 20
142.7201265612898
 30
0.0
  0
VERTEX
  5
1C4
  8
LAYER_3
 10
29.47953152798368
 20
126.1175869703897
 30
0.0
  0
VERTEX
  5
1C5
  8
LAYER_3
 10
29.47953152798368
 20
147.9615728697711
 30
0.0
  0
VERTEX
  5
1C6
  8
LAYER_3
 10
40.62297522106132
 20
147.9615728697711
 30
0.0
  0
SEQEND
  5
1C7
  8
LAYER_3
  0
POLYLINE
  5
63
  8
LAYER_3
 66
     1
 10
0.0
 20
0.0
 30
0.0
 70
     1
  0
VERTEX
  5
1C8
  8
LAYER_3
 10
-3.109901974442664
 20
156.3466083919124
 30
0.0
  0
VERTEX
  5
1C9
  8
LAYER_3
 10
-3.109901974442664
 20
140.6158638470248
 30
0.0
  0
VERTEX
  5
1CA
  8
LAYER_3
 10
-8.565012852159043
 20
146.1775219174264
 30
0.0
  0
VERTEX
  5
1CB
  8
LAYER_3
 10
-52.20589987388985
 20
101.684257354213
 30
0.0
  0
VERTEX
  5
1CC
  8
LAYER_3
 10
-96.45291032647788
 20
146.7954839252488
 30
0.0
  0
VERTEX
  5
1CD
  8
LAYER_3
 10
-81.0235267514472
 20
146.7954839252488
 30
0.0
  0
VERTEX
  5
1CE
  8
LAYER_3
 10
-52.53572550115064
 20
117.7512695575956
 30
0.0
  0
VERTEX
  5
1CF
  8
LAYER_3
 10
-8.873160878152476
 20
162.2666351209056
 30
0.0
  0
SEQEND
  5
1D0
  8
LAYER_3
  0
POLYLINE
  5
64
  8
LAYER_3
 66
     1
 10
0.0
 20
0.0
 30
0.0
 70
     1
  0
VERTEX
  5
1D1
  8
LAYER_3
 10
-1.289125403367052
 20
123.6955484489607
 30
0.0
  0
VERTEX
  5
1D2
  8
LAYER_3
 10
-1.289125403367052
 20
115.8301761765169
 30
0.0
  0
VERTEX
  5
1D3
  8
LAYER_3
 10
-24.76302639317441
 20
115.8301761765169
 30
0.0
  0
VERTEX
  5
1D4
  8
LAYER_3
 10
-9.168730004513009
 20
131.7290545506521
 30
0.0
  0
SEQEND
  5
1D5
  8
LAYER_3
  0
POLYLINE
  5
65
  8
LAYER_3
 66
     1
 10
0.0
 20
0.0
 30
0.0
 70
     1
  0
VERTEX
  5
1D6
  8
LAYER_3
 10
132.443359809246
 20
164.2266047337513
 30
0.0
  0
VERTEX
  5
1D7
  8
LAYER_3
 10
132.443359809246
 20
110.0429290791382
 30
0.0
  0
VERTEX
  5
1D8
  8
LAYER_3
 10
95.58238443046912
 20
149.4228107128104
 30
0.0
  0
VERTEX
  5
1D9
  8
LAYER_3
 10
95.58238443046912
 20
203.6064863674235
 30
0.0
  0
SEQEND
  5
1DA
  8
LAYER_3
  0
POLYLINE
  5
66
  8
LAYER_3
 66
     1
 10
0.0
 20
0.0
 30
0.0
 70
     1
  0
VERTEX
  5
1DB
  8
LAYER_3
 10
-107.9111944100721
 20
238.7268351443225
 30
0.0
  0
VERTEX
  5
1DC
  8
LAYER_3
 10
-117.4465752775329
 20
228.3739385912839
 30
0.0
  0
VERTEX
  5
1DD
  8
LAYER_3
 10
-116.9277679802626
 20
149.7520366510674
 30
0.0
  0
VERTEX
  5
1DE
  8
LAYER_3
 10
-71.51531222627204
 20
102.5109931218423
 30
0.0
  0
VERTEX
  5
1DF
  8
LAYER_3
 10
-125.5181547388806
 20
102.5109931218423
 30
0.0
  0
VERTEX
  5
1E0
  8
LAYER_3
 10
-126.9941190357715
 20
231.7752678075053
 30
0.0
  0
VERTEX
  5
1E1
  8
LAYER_3
 10
-115.0043086867345
 20
245.9584894856172
 30
0.0
  0
SEQEND
  5
1E2
  8
LAYER_3
  0
POLYLINE
  5
67
  8
LAYER_3
 66
     1
 10
0.0
 20
0.0
 30
0.0
 70
     1
  0
VERTEX
  5
1E3
  8
LAYER_3
 10
-169.1590093646857
 20
140.0898457424198
 30
0.0
  0
VERTEX
  5
1E4
  8
LAYER_3
 10
-169.1590093646857
 20
101.6369146326944
 30
0.0
  0
VERTEX
  5
1E5
  8
LAYER_3
 10
-181.5
 20
123.4296303144533
 30
0.0
  0
VERTEX
  5
1E6
  8
LAYER_3
 10
-181.5
 20
162.7502876493675
 30
0.0
  0
SEQEND
  5
1E7
  8
LAYER_3
  0
POLYLINE
  5
68
  8
LAYER_3
 66
     1
 10
0.0
 20
0.0
 30
0.0
 70
     1
  0
VERTEX
  5
1E8
  8
LAYER_3
 10
32.04110146332914
 20
188.9226288932396
 30
0.0
  0
VERTEX
  5
1E9
  8
LAYER_3
 10
75.46294740565304
 20
143.0212638591894
 30
0.0
  0
VERTEX
  5
1EA
  8
LAYER_3
 10
31.21593695306478
 20
97.91003728815357
 30
0.0
  0
VERTEX
  5
1EB
  8
LAYER_3
 10
31.21593695306478
 20
113.6407818330413
 30
0.0
  0
VERTEX
  5
1EC
  8
LAYER_3
 10
59.70373820336135
 20
142.6849962006945
 30
0.0
  0
VERTEX
  5
1ED
  8
LAYER_3
 10
16.54893682767897
 20
188.5691396233629
 30
0.0
  0
VERTEX
  5
1EE
  8
LAYER_3
 10
23.21629456711003
 20
195.3667217094094
 30
0.0
  0
VERTEX
  5
1EF
  8
LAYER_3
 10
37.78849016575055
 20
195.3667217094094
 30
0.0
  0
SEQEND
  5
1F0
  8
LAYER_3
  0
POLYLINE
  5
69
  8
LAYER_3
 66
     1
 10
0.0
 20
0.0
 30
0.0
 70
     1
  0
VERTEX
  5
1F1
  8
LAYER_3
 10
28.20710135900663
 20
158.8769609328079
 30
0.0
  0
VERTEX
  5
1F2
  8
LAYER_3
 10
19.63522159510035
 20
158.8769609328079
 30
0.0
  0
VERTEX
  5
1F3
  8
LAYER_3
 10
19.63522159510035
 20
94.20612224826968
 30
0.0
  0
VERTEX
  5
1F4
  8
LAYER_3
 10
-42.08231270502347
 20
94.20612224826968
 30
0.0
  0
VERTEX
  5
1F5
  8
LAYER_3
 10
-31.17209094959048
 20
105.3294383890731
 30
0.0
  0
VERTEX
  5
1F6
  8
LAYER_3
 10
8.94380983968108
 20
105.3294383890731
 30
0.0
  0
VERTEX
  5
1F7
  8
LAYER_3
 10
8.94380983968108
 20
169.9175643643572
 30
0.0
  0
VERTEX
  5
1F8
  8
LAYER_3
 10
16.65850162719676
 20
169.9175643643572
 30
0.0
  0
SEQEND
  5
1F9
  8
LAYER_3
  0
POLYLINE
  5
6A
  8
LAYER_3
 66
     1
 10
0.0
 20
0.0
 30
0.0
 70
     1
  0
VERTEX
  5
1FA
  8
LAYER_3
 10
-144.1571793774074
 20
160.0003265587921
 30
0.0
  0
VERTEX
  5
1FB
  8
LAYER_3
 10
-144.1571793774074
 20
95.32948787425389
 30
0.0
  0
VERTEX
  5
1FC
  8
LAYER_3
 10
-171.0454876367728
 20
72.51228368811898
 30
0.0
  0
VERTEX
  5
1FD
  8
LAYER_3
 10
-181.5
 20
82.24986694973583
 30
0.0
  0
VERTEX
  5
1FE
  8
LAYER_3
 10
-181.5
 20
95.37667229822725
 30
0.0
  0
VERTEX
  5
1FF
  8
LAYER_3
 10
-170.5248581362503
 20
87.37463446135845
 30
0.0
  0
VERTEX
  5
200
  8
LAYER_3
 10
-155.2923778280001
 20
100.9099896298444
 30
0.0
  0
VERTEX
  5
201
  8
LAYER_3
 10
-155.2923778280001
 20
166.5548034524953
 30
0.0
  0
SEQEND
  5
202
  8
LAYER_3
  0
POLYLINE
  5
6B
  8
LAYER_3
 66
     1
 10
0.0
 20
0.0
 30
0.0
 70
     1
  0
VERTEX
  5
203
  8
LAYER_3
 10
132.4622272266006
 20
91.94316533762527
 30
0.0
  0
VERTEX
  5
204
  8
LAYER_3
 10
132.4622272266006
 20
74.46456028775009
 30
0.0
  0
VERTEX
  5
205
  8
LAYER_3
 10
89.99974909929779
 20
115.7298138410074
 30
0.0
  0
VERTEX
  5
206
  8
LAYER_3
 10
59.69357755642909
 20
84.83171344988699
 30
0.0
  0
VERTEX
  5
207
  8
LAYER_3
 10
144.9441161307238
 20
-4.507228924827665
 30
0.0
  0
VERTEX
  5
208
  8
LAYER_3
 10
140.6902269193513
 20
-10.93486388535255
 30
0.0
  0
VERTEX
  5
209
  8
LAYER_3
 10
124.4036553679298
 20
-10.93486388535255
 30
0.0
  0
VERTEX
  5
20A
  8
LAYER_3
 10
128.7763033467356
 20
-4.630208457631021
 30
0.0
  0
VERTEX
  5
20B
  8
LAYER_3
 10
129.6334913231262
 20
-4.630208457631021
 30
0.0
  0
VERTEX
  5
20C
  8
LAYER_3
 10
42.3517172796644
 20
84.35632066879595
 30
0.0
  0
VERTEX
  5
20D
  8
LAYER_3
 10
90.84159174825436
 20
133.7932812945886
 30
0.0
  0
SEQEND
  5
20E
  8
LAYER_3
  0
POLYLINE
  5
6C
  8
LAYER_3
 66
     1
 10
0.0
 20
0.0
 30
0.0
 70
     1
  0
VERTEX
  5
20F
  8
LAYER_3
 10
181.5
 20
131.4705499274722
 30
0.0
  0
VERTEX
  5
210
  8
LAYER_3
 10
181.3904904112262
 20
131.3917373217285
 30
0.0
  0
VERTEX
  5
211
  8
LAYER_3
 10
181.5
 20
106.270898396627
 30
0.0
  0
VERTEX
  5
212
  8
LAYER_3
 10
181.5
 20
60.54160050573517
 30
0.0
  0
VERTEX
  5
213
  8
LAYER_3
 10
179.4332009508933
 20
62.60721936461907
 30
0.0
  0
VERTEX
  5
214
  8
LAYER_3
 10
170.3413494880326
 20
71.87664948195524
 30
0.0
  0
VERTEX
  5
215
  8
LAYER_3
 10
170.3413494880326
 20
123.6982729601071
 30
0.0
  0
VERTEX
  5
216
  8
LAYER_3
 10
181.5
 20
131.471596198826
 30
0.0
  0
SEQEND
  5
217
  8
LAYER_3
  0
POLYLINE
  5
6D
  8
LAYER_3
 66
     1
 10
0.0
 20
0.0
 30
0.0
 70
     1
  0
VERTEX
  5
218
  8
LAYER_3
 10
-85.89206240216845
 20
51.58618784187576
 30
0.0
  0
VERTEX
  5
219
  8
LAYER_3
 10
-93.9097567102117
 20
59.01736322849541
 30
0.0
  0
VERTEX
  5
21A
  8
LAYER_3
 10
-93.9097567102117
 20
67.40397545053764
 30
0.0
  0
VERTEX
  5
21B
  8
LAYER_3
 10
-71.62286932405596
 20
67.40397545053764
 30
0.0
  0
SEQEND
  5
21C
  8
LAYER_3
  0
POLYLINE
  5
6E
  8
LAYER_3
 66
     1
 10
0.0
 20
0.0
 30
0.0
 70
     1
  0
VERTEX
  5
21D
  8
LAYER_3
 10
67.66908256202328
 20
42.71348086561923
 30
0.0
  0
VERTEX
  5
21E
  8
LAYER_3
 10
14.52342802580552
 20
42.71348086561923
 30
0.0
  0
VERTEX
  5
21F
  8
LAYER_3
 10
-23.05622468735146
 20
81.02712535060867
 30
0.0
  0
VERTEX
  5
220
  8
LAYER_3
 10
30.08942984886608
 20
81.02712535060867
 30
0.0
  0
SEQEND
  5
221
  8
LAYER_3
  0
POLYLINE
  5
6F
  8
LAYER_3
 66
     1
 10
0.0
 20
0.0
 30
0.0
 70
     1
  0
VERTEX
  5
222
  8
LAYER_3
 10
132.7446925538925
 20
56.24188329759213
 30
0.0
  0
VERTEX
  5
223
  8
LAYER_3
 10
132.7446925538925
 20
42.25899925769198
 30
0.0
  0
VERTEX
  5
224
  8
LAYER_3
 10
117.3153089788616
 20
42.25899925769198
 30
0.0
  0
VERTEX
  5
225
  8
LAYER_3
 10
81.55402655827652
 20
78.71875771921417
 30
0.0
  0
VERTEX
  5
226
  8
LAYER_3
 10
82.55205485989381
 20
91.6049563132784
 30
0.0
  0
VERTEX
  5
227
  8
LAYER_3
 10
95.77116327159297
 20
93.93756577475915
 30
0.0
  0
SEQEND
  5
228
  8
LAYER_3
  0
POLYLINE
  5
70
  8
LAYER_3
 66
     1
 10
0.0
 20
0.0
 30
0.0
 70
     1
  0
VERTEX
  5
229
  8
LAYER_3
 10
1.765237661463743
 20
36.5624459348958
 30
0.0
  0
VERTEX
  5
22A
  8
LAYER_3
 10
-13.9792492212066
 20
36.5624459348958
 30
0.0
  0
VERTEX
  5
22B
  8
LAYER_3
 10
-42.20963777939073
 20
66.33435300787495
 30
0.0
  0
VERTEX
  5
22C
  8
LAYER_3
 10
-85.85052480112154
 20
21.84108844466149
 30
0.0
  0
VERTEX
  5
22D
  8
LAYER_3
 10
-91.87030340091087
 20
26.96596667511883
 30
0.0
  0
VERTEX
  5
22E
  8
LAYER_3
 10
-91.87030340091087
 20
43.57064147250027
 30
0.0
  0
VERTEX
  5
22F
  8
LAYER_3
 10
-85.80906909233704
 20
37.39102139427618
 30
0.0
  0
VERTEX
  5
230
  8
LAYER_3
 10
-43.01117713751933
 20
82.21341698072507
 30
0.0
  0
SEQEND
  5
231
  8
LAYER_3
  0
POLYLINE
  5
71
  8
LAYER_3
 66
     1
 10
0.0
 20
0.0
 30
0.0
 70
     1
  0
VERTEX
  5
232
  8
LAYER_3
 10
-124.5123638351854
 20
35.84015191945028
 30
0.0
  0
VERTEX
  5
233
  8
LAYER_3
 10
-135.6558075282635
 20
35.84015191945028
 30
0.0
  0
VERTEX
  5
234
  8
LAYER_3
 10
-140.5047949751222
 20
40.78384798202957
 30
0.0
  0
VERTEX
  5
235
  8
LAYER_3
 10
-124.5123638351854
 20
57.68840823179428
 30
0.0
  0
SEQEND
  5
236
  8
LAYER_3
  0
POLYLINE
  5
72
  8
LAYER_3
 66
     1
 10
0.0
 20
0.0
 30
0.0
 70
     1
  0
VERTEX
  5
237
  8
LAYER_3
 10
-26.6656927753404
 20
35.60899944826247
 30
0.0
  0
VERTEX
  5
238
  8
LAYER_3
 10
-48.09539218510577
 20
35.60899944826247
 30
0.0
  0
VERTEX
  5
239
  8
LAYER_3
 10
-48.09539218510577
 20
46.09616247818757
 30
0.0
  0
VERTEX
  5
23A
  8
LAYER_3
 10
-43.03102540848954
 20
52.29397365946752
 30
0.0
  0
SEQEND
  5
23B
  8
LAYER_3
  0
POLYLINE
  5
73
  8
LAYER_3
 66
     1
 10
0.0
 20
0.0
 30
0.0
 70
     1
  0
VERTEX
  5
23C
  8
LAYER_3
 10
181.5
 20
145.9247626234536
 30
0.0
  0
VERTEX
  5
23D
  8
LAYER_3
 10
156.1815412972073
 20
145.9247626234536
 30
0.0
  0
VERTEX
  5
23E
  8
LAYER_3
 10
154.7362534628983
 20
17.743740538683
 30
0.0
  0
VERTEX
  5
23F
  8
LAYER_3
 10
146.1643736989922
 20
17.743740538683
 30
0.0
  0
VERTEX
  5
240
  8
LAYER_3
 10
134.7419951304998
 20
29.39610204313103
 30
0.0
  0
VERTEX
  5
241
  8
LAYER_3
 10
143.5927222625007
 20
29.39610204313102
 30
0.0
  0
VERTEX
  5
242
  8
LAYER_3
 10
145.117876571881
 20
157.1243533984083
 30
0.0
  0
VERTEX
  5
243
  8
LAYER_3
 10
181.5
 20
157.1243533984083
 30
0.0
  0
SEQEND
  5
244
  8
LAYER_3
  0
POLYLINE
  5
74
  8
LAYER_3
 66
     1
 10
0.0
 20
0.0
 30
0.0
 70
     1
  0
VERTEX
  5
245
  8
LAYER_3
 10
179.4332009508933
 20
44.25468406225012
 30
0.0
  0
VERTEX
  5
246
  8
LAYER_3
 10
181.5
 20
42.14751706435857
 30
0.0
  0
VERTEX
  5
247
  8
LAYER_3
 10
181.5
 20
26.41677251947082
 30
0.0
  0
VERTEX
  5
248
  8
LAYER_3
 10
180.0393243817505
 20
27.90597750954004
 30
0.0
  0
VERTEX
  5
249
  8
LAYER_3
 10
174.5842135040341
 20
33.46763557994171
 30
0.0
  0
VERTEX
  5
24A
  8
LAYER_3
 10
174.5842135040341
 20
49.19838012482939
 30
0.0
  0
SEQEND
  5
24B
  8
LAYER_3
  0
POLYLINE
  5
75
  8
LAYER_3
 66
     1
 10
0.0
 20
0.0
 30
0.0
 70
     1
  0
VERTEX
  5
24C
  8
LAYER_3
 10
-62.99461427247866
 20
77.2445187006506
 30
0.0
  0
VERTEX
  5
24D
  8
LAYER_3
 10
-103.8030786633597
 20
77.2445187006506
 30
0.0
  0
VERTEX
  5
24E
  8
LAYER_3
 10
-103.7582771961859
 20
14.36980820292321
 30
0.0
  0
VERTEX
  5
24F
  8
LAYER_3
 10
-112.4772719698969
 20
14.36980820292321
 30
0.0
  0
VERTEX
  5
250
  8
LAYER_3
 10
-123.1748677068354
 20
25.27634539307925
 30
0.0
  0
VERTEX
  5
251
  8
LAYER_3
 10
-114.6029879429295
 20
25.27634539307925
 30
0.0
  0
VERTEX
  5
252
  8
LAYER_3
 10
-114.6029879429295
 20
88.62396216615107
 30
0.0
  0
VERTEX
  5
253
  8
LAYER_3
 10
-53.30195724322334
 20
88.62396216615107
 30
0.0
  0
SEQEND
  5
254
  8
LAYER_3
  0
POLYLINE
  5
76
  8
LAYER_3
 66
     1
 10
0.0
 20
0.0
 30
0.0
 70
     1
  0
VERTEX
  5
255
  8
LAYER_3
 10
-78.39759131974029
 20
3.956954420327911
 30
0.0
  0
VERTEX
  5
256
  8
LAYER_3
 10
-67.25414762666219
 20
3.956954420327911
 30
0.0
  0
VERTEX
  5
257
  8
LAYER_3
 10
-74.80361370285596
 20
-3.740838944028496
 30
0.0
  0
VERTEX
  5
258
  8
LAYER_3
 10
-67.25414762666219
 20
-11.4386323083849
 30
0.0
  0
VERTEX
  5
259
  8
LAYER_3
 10
-78.39759131974029
 20
-11.4386323083849
 30
0.0
  0
VERTEX
  5
25A
  8
LAYER_3
 10
-78.39759131974029
 20
-22.79972559080379
 30
0.0
  0
VERTEX
  5
25B
  8
LAYER_3
 10
-85.9741342054574
 20
-15.07520049302366
 30
0.0
  0
VERTEX
  5
25C
  8
LAYER_3
 10
-85.97499139343381
 20
-15.07520049302367
 30
0.0
  0
VERTEX
  5
25D
  8
LAYER_3
 10
-85.97584858141022
 20
-15.07520049302366
 30
0.0
  0
VERTEX
  5
25E
  8
LAYER_3
 10
-93.55239146712734
 20
-22.79972559080379
 30
0.0
  0
VERTEX
  5
25F
  8
LAYER_3
 10
-93.55239146712734
 20
-11.4386323083849
 30
0.0
  0
VERTEX
  5
260
  8
LAYER_3
 10
-104.6958351602052
 20
-11.4386323083849
 30
0.0
  0
VERTEX
  5
261
  8
LAYER_3
 10
-97.14636908401167
 20
-3.740838944028496
 30
0.0
  0
VERTEX
  5
262
  8
LAYER_3
 10
-104.6958351602052
 20
3.956954420327911
 30
0.0
  0
VERTEX
  5
263
  8
LAYER_3
 10
-93.55239146712734
 20
3.956954420327911
 30
0.0
  0
VERTEX
  5
264
  8
LAYER_3
 10
-93.55239146712734
 20
15.31804770274678
 30
0.0
  0
VERTEX
  5
265
  8
LAYER_3
 10
-85.97584858141022
 20
7.59352260496668
 30
0.0
  0
VERTEX
  5
266
  8
LAYER_3
 10
-85.9741342054574
 20
7.59352260496668
 30
0.0
  0
VERTEX
  5
267
  8
LAYER_3
 10
-78.39759131974029
 20
15.31804770274678
 30
0.0
  0
SEQEND
  5
268
  8
LAYER_3
  0
POLYLINE
  5
77
  8
LAYER_3
 66
     1
 10
0.0
 20
0.0
 30
0.0
 70
     1
  0
VERTEX
  5
269
  8
LAYER_3
 10
-126.7426307951378
 20
69.85852381333639
 30
0.0
  0
VERTEX
  5
26A
  8
LAYER_3
 10
-154.6243086145769
 20
41.43227145350556
 30
0.0
  0
VERTEX
  5
26B
  8
LAYER_3
 10
-111.2635632722847
 20
-4.033474834303426
 30
0.0
  0
VERTEX
  5
26C
  8
LAYER_3
 10
-117.3247975808583
 20
-10.2130949125275
 30
0.0
  0
VERTEX
  5
26D
  8
LAYER_3
 10
-132.7541811558892
 20
-10.2130949125275
 30
0.0
  0
VERTEX
  5
26E
  8
LAYER_3
 10
-126.6929468473156
 20
-4.033474834303426
 30
0.0
  0
VERTEX
  5
26F
  8
LAYER_3
 10
-169.9161371822979
 20
40.8786914085792
 30
0.0
  0
VERTEX
  5
270
  8
LAYER_3
 10
-126.7426307951378
 20
85.58926835822407
 30
0.0
  0
SEQEND
  5
271
  8
LAYER_3
  0
POLYLINE
  5
78
  8
LAYER_3
 66
     1
 10
0.0
 20
0.0
 30
0.0
 70
     1
  0
VERTEX
  5
272
  8
LAYER_3
 10
-140.3858901561143
 20
-3.859497848046153
 30
0.0
  0
VERTEX
  5
273
  8
LAYER_3
 10
-148.0067446590888
 20
-11.62920004107779
 30
0.0
  0
VERTEX
  5
274
  8
LAYER_3
 10
-155.9710201599069
 20
-11.62920004107779
 30
0.0
  0
VERTEX
  5
275
  8
LAYER_3
 10
-155.9710201599069
 20
12.03003510680711
 30
0.0
  0
SEQEND
  5
276
  8
LAYER_3
  0
POLYLINE
  5
79
  8
LAYER_3
 66
     1
 10
0.0
 20
0.0
 30
0.0
 70
     1
  0
VERTEX
  5
277
  8
LAYER_3
 10
112.374614282975
 20
-3.746660101247407
 30
0.0
  0
VERTEX
  5
278
  8
LAYER_3
 10
101.4119405451002
 20
-14.85135118017322
 30
0.0
  0
VERTEX
  5
279
  8
LAYER_3
 10
52.31422622358832
 20
-14.85135118017317
 30
0.0
  0
VERTEX
  5
27A
  8
LAYER_3
 10
44.22833578655059
 20
-5.452237994215409
 30
0.0
  0
VERTEX
  5
27B
  8
LAYER_3
 10
52.33870419382629
 20
5.286337920202477
 30
0.0
  0
VERTEX
  5
27C
  8
LAYER_3
 10
103.5985193686063
 20
5.286337920202477
 30
0.0
  0
SEQEND
  5
27D
  8
LAYER_3
  0
POLYLINE
  5
7A
  8
LAYER_3
 66
     1
 10
0.0
 20
0.0
 30
0.0
 70
     1
  0
VERTEX
  5
27E
  8
LAYER_3
 10
-17.03089705542629
 20
-19.53315318582433
 30
0.0
  0
VERTEX
  5
27F
  8
LAYER_3
 10
-32.18398282686076
 20
-4.084102990264107
 30
0.0
  0
VERTEX
  5
280
  8
LAYER_3
 10
-23.7990805622162
 20
4.062963631507181
 30
0.0
  0
VERTEX
  5
281
  8
LAYER_3
 10
-17.03089705542629
 20
4.062963631507181
 30
0.0
  0
SEQEND
  5
282
  8
LAYER_3
  0
POLYLINE
  5
7B
  8
LAYER_3
 66
     1
 10
0.0
 20
0.0
 30
0.0
 70
     1
  0
VERTEX
  5
283
  8
LAYER_3
 10
181.5
 20
12.70100505857715
 30
0.0
  0
VERTEX
  5
284
  8
LAYER_3
 10
181.5
 20
-22.23423898494482
 30
0.0
  0
VERTEX
  5
285
  8
LAYER_3
 10
169.7117102541815
 20
-34.25277321288904
 30
0.0
  0
VERTEX
  5
286
  8
LAYER_3
 10
169.7117102541827
 20
-16.50876904206213
 30
0.0
  0
VERTEX
  5
287
  8
LAYER_3
 10
153.4251387027612
 20
-16.50876904206213
 30
0.0
  0
VERTEX
  5
288
  8
LAYER_3
 10
164.9414838890514
 20
-4.766616963183857
 30
0.0
  0
VERTEX
  5
289
  8
LAYER_3
 10
153.4251387027612
 20
6.975535115694427
 30
0.0
  0
VERTEX
  5
28A
  8
LAYER_3
 10
169.7117102541827
 20
6.975535115694427
 30
0.0
  0
VERTEX
  5
28B
  8
LAYER_3
 10
169.7117102541815
 20
24.71953928652132
 30
0.0
  0
SEQEND
  5
28C
  8
LAYER_3
  0
POLYLINE
  5
7C
  8
LAYER_3
 66
     1
 10
0.0
 20
0.0
 30
0.0
 70
     1
  0
VERTEX
  5
28D
  8
LAYER_3
 10
-57.59156911858508
 20
24.93155856366878
 30
0.0
  0
VERTEX
  5
28E
  8
LAYER_3
 10
3.268777205147899
 20
24.93155856366878
 30
0.0
  0
VERTEX
  5
28F
  8
LAYER_3
 10
3.268777205147899
 20
-37.99141961588192
 30
0.0
  0
VERTEX
  5
290
  8
LAYER_3
 10
-7.035321119427181
 20
-27.48606548290097
 30
0.0
  0
VERTEX
  5
291
  8
LAYER_3
 10
-7.035321119427181
 20
14.4625866367995
 30
0.0
  0
VERTEX
  5
292
  8
LAYER_3
 10
-68.752855419551
 20
14.4625866367995
 30
0.0
  0
VERTEX
  5
293
  8
LAYER_3
 10
-68.752855419551
 20
22.32795890924334
 30
0.0
  0
VERTEX
  5
294
  8
LAYER_3
 10
-57.75713973378311
 20
34.06923705786912
 30
0.0
  0
SEQEND
  5
295
  8
LAYER_3
  0
POLYLINE
  5
7D
  8
LAYER_3
 66
     1
 10
0.0
 20
0.0
 30
0.0
 70
     1
  0
VERTEX
  5
296
  8
LAYER_3
 10
-165.2334318580624
 20
19.46875841631822
 30
0.0
  0
VERTEX
  5
297
  8
LAYER_3
 10
-165.2334318580624
 20
-22.00218273821235
 30
0.0
  0
VERTEX
  5
298
  8
LAYER_3
 10
-104.070585291056
 20
-22.00218273821235
 30
0.0
  0
VERTEX
  5
299
  8
LAYER_3
 10
-104.070585291056
 20
-31.75284739118997
 30
0.0
  0
VERTEX
  5
29A
  8
LAYER_3
 10
-114.4837090273984
 20
-42.3693563796498
 30
0.0
  0
VERTEX
  5
29B
  8
LAYER_3
 10
-114.4837090273984
 20
-33.07202707406549
 30
0.0
  0
VERTEX
  5
29C
  8
LAYER_3
 10
-176.1794843905022
 20
-33.07202707406549
 30
0.0
  0
VERTEX
  5
29D
  8
LAYER_3
 10
-176.1733655375112
 20
30.59578024798013
 30
0.0
  0
SEQEND
  5
29E
  8
LAYER_3
  0
POLYLINE
  5
7E
  8
LAYER_3
 66
     1
 10
0.0
 20
0.0
 30
0.0
 70
     1
  0
VERTEX
  5
29F
  8
LAYER_3
 10
90.88415583634469
 20
18.41207843851544
 30
0.0
  0
VERTEX
  5
2A0
  8
LAYER_3
 10
31.13206203453547
 20
18.41207843851544
 30
0.0
  0
VERTEX
  5
2A1
  8
LAYER_3
 10
31.13206203453547
 20
-27.33917862554132
 30
0.0
  0
VERTEX
  5
2A2
  8
LAYER_3
 10
154.3005683305155
 20
-27.33917862554132
 30
0.0
  0
VERTEX
  5
2A3
  8
LAYER_3
 10
154.3005683305155
 20
-36.50311974400005
 30
0.0
  0
VERTEX
  5
2A4
  8
LAYER_3
 10
143.6569088793501
 20
-47.6264358848034
 30
0.0
  0
VERTEX
  5
2A5
  8
LAYER_3
 10
143.6569088793501
 20
-38.69946712855678
 30
0.0
  0
VERTEX
  5
2A6
  8
LAYER_3
 10
21.07902825549331
 20
-38.69946712855678
 30
0.0
  0
VERTEX
  5
2A7
  8
LAYER_3
 10
21.07902825549331
 20
30.15335658714121
 30
0.0
  0
VERTEX
  5
2A8
  8
LAYER_3
 10
79.36781065005471
 20
30.15335658714121
 30
0.0
  0
SEQEND
  5
2A9
  8
LAYER_3
  0
POLYLINE
  5
7F
  8
LAYER_3
 66
     1
 10
0.0
 20
0.0
 30
0.0
 70
     1
  0
VERTEX
  5
2AA
  8
LAYER_3
 10
-124.0440101006627
 20
-54.282539363374
 30
0.0
  0
VERTEX
  5
2AB
  8
LAYER_3
 10
-129.4991209783791
 20
-59.84419743377568
 30
0.0
  0
VERTEX
  5
2AC
  8
LAYER_3
 10
-145.9068933334513
 20
-43.1159545838151
 30
0.0
  0
VERTEX
  5
2AD
  8
LAYER_3
 10
-124.0440101006627
 20
-43.1159545838151
 30
0.0
  0
SEQEND
  5
2AE
  8
LAYER_3
  0
POLYLINE
  5
80
  8
LAYER_3
 66
     1
 10
0.0
 20
0.0
 30
0.0
 70
     1
  0
VERTEX
  5
2AF
  8
LAYER_3
 10
-31.56823893251817
 20
-48.82393193945317
 30
0.0
  0
VERTEX
  5
2B0
  8
LAYER_3
 10
-47.93357156566753
 20
-65.5089061506582
 30
0.0
  0
VERTEX
  5
2B1
  8
LAYER_3
 10
-47.93357156566753
 20
-43.66064983831423
 30
0.0
  0
VERTEX
  5
2B2
  8
LAYER_3
 10
-47.30960552692181
 20
-43.2622738690515
 30
0.0
  0
VERTEX
  5
2B3
  8
LAYER_3
 10
-37.02334981023455
 20
-43.2622738690515
 30
0.0
  0
SEQEND
  5
2B4
  8
LAYER_3
  0
POLYLINE
  5
81
  8
LAYER_3
 66
     1
 10
0.0
 20
0.0
 30
0.0
 70
     1
  0
VERTEX
  5
2B5
  8
LAYER_3
 10
-80.17480568420501
 20
-36.13675944384353
 30
0.0
  0
VERTEX
  5
2B6
  8
LAYER_3
 10
-80.17480568420501
 20
-51.59828281646342
 30
0.0
  0
VERTEX
  5
2B7
  8
LAYER_3
 10
-86.23339488588385
 20
-45.40147652285971
 30
0.0
  0
VERTEX
  5
2B8
  8
LAYER_3
 10
-129.7835372710549
 20
-89.80222405909024
 30
0.0
  0
VERTEX
  5
2B9
  8
LAYER_3
 10
-173.8285262292472
 20
-44.89570792194141
 30
0.0
  0
VERTEX
  5
2BA
  8
LAYER_3
 10
-158.7383829623252
 20
-44.89570792194144
 30
0.0
  0
VERTEX
  5
2BB
  8
LAYER_3
 10
-129.8769270145096
 20
-74.45040392883287
 30
0.0
  0
VERTEX
  5
2BC
  8
LAYER_3
 10
-86.23603999277861
 20
-29.95713936561944
 30
0.0
  0
SEQEND
  5
2BD
  8
LAYER_3
  0
POLYLINE
  5
82
  8
LAYER_3
 66
     1
 10
0.0
 20
0.0
 30
0.0
 70
     1
  0
VERTEX
  5
2BE
  8
LAYER_3
 10
-78.28016356711123
 20
-67.89418142569708
 30
0.0
  0
VERTEX
  5
2BF
  8
LAYER_3
 10
-78.28016356711123
 20
-74.8856234456472
 30
0.0
  0
VERTEX
  5
2C0
  8
LAYER_3
 10
-101.4242389296576
 20
-74.8856234456472
 30
0.0
  0
VERTEX
  5
2C1
  8
LAYER_3
 10
-86.42454210803817
 20
-59.5929581357056
 30
0.0
  0
SEQEND
  5
2C2
  8
LAYER_3
  0
POLYLINE
  5
83
  8
LAYER_3
 66
     1
 10
0.0
 20
0.0
 30
0.0
 70
     1
  0
VERTEX
  5
2C3
  8
LAYER_3
 10
28.55986390528301
 20
-88.986372187987
 30
0.0
  0
VERTEX
  5
2C4
  8
LAYER_3
 10
-23.04550162500323
 20
-88.986372187987
 30
0.0
  0
VERTEX
  5
2C5
  8
LAYER_3
 10
13.92802765729652
 20
-50.25397439460643
 30
0.0
  0
VERTEX
  5
2C6
  8
LAYER_3
 10
64.50211826434247
 20
-50.25397439460643
 30
0.0
  0
SEQEND
  5
2C7
  8
LAYER_3
  0
POLYLINE
  5
84
  8
LAYER_3
 66
     1
 10
0.0
 20
0.0
 30
0.0
 70
     1
  0
VERTEX
  5
2C8
  8
LAYER_3
 10
-45.75914211964619
 20
-4.361061268072227
 30
0.0
  0
VERTEX
  5
2C9
  8
LAYER_3
 10
-3.107952290195726
 20
-48.75313814795295
 30
0.0
  0
VERTEX
  5
2CA
  8
LAYER_3
 10
-3.714075721052723
 20
-49.37110015577534
 30
0.0
  0
VERTEX
  5
2CB
  8
LAYER_3
 10
-46.14271588106908
 20
-92.62844070334393
 30
0.0
  0
VERTEX
  5
2CC
  8
LAYER_3
 10
-46.14271588106908
 20
-77.77162641095009
 30
0.0
  0
VERTEX
  5
2CD
  8
LAYER_3
 10
-17.65491463077251
 20
-48.72741204329684
 30
0.0
  0
VERTEX
  5
2CE
  8
LAYER_3
 10
-61.29580165250331
 20
-4.234147480083351
 30
0.0
  0
VERTEX
  5
2CF
  8
LAYER_3
 10
-55.23456734392994
 20
1.945472598140739
 30
0.0
  0
VERTEX
  5
2D0
  8
LAYER_3
 10
-39.80518376889859
 20
1.945472598140739
 30
0.0
  0
SEQEND
  5
2D1
  8
LAYER_3
  0
POLYLINE
  5
85
  8
LAYER_3
 66
     1
 10
0.0
 20
0.0
 30
0.0
 70
     1
  0
VERTEX
  5
2D2
  8
LAYER_3
 10
-49.01602947790775
 20
-32.9907835561466
 30
0.0
  0
VERTEX
  5
2D3
  8
LAYER_3
 10
-57.35423632221023
 20
-32.9907835561466
 30
0.0
  0
VERTEX
  5
2D4
  8
LAYER_3
 10
-57.35423632221023
 20
-96.09652070606444
 30
0.0
  0
VERTEX
  5
2D5
  8
LAYER_3
 10
-119.1618709833901
 20
-96.09652070606444
 30
0.0
  0
VERTEX
  5
2D6
  8
LAYER_3
 10
-108.8577726588146
 20
-85.59116657308346
 30
0.0
  0
VERTEX
  5
2D7
  8
LAYER_3
 10
-68.56993776845593
 20
-85.59116657308346
 30
0.0
  0
VERTEX
  5
2D8
  8
LAYER_3
 10
-68.56993776845593
 20
-21.79425814103905
 30
0.0
  0
VERTEX
  5
2D9
  8
LAYER_3
 10
-59.99805800454988
 20
-21.79425814103905
 30
0.0
  0
SEQEND
  5
2DA
  8
LAYER_3
  0
POLYLINE
  5
86
  8
LAYER_3
 66
     1
 10
0.0
 20
0.0
 30
0.0
 70
     1
  0
VERTEX
  5
2DB
  8
LAYER_3
 10
130.1366680297408
 20
-51.10353049928568
 30
0.0
  0
VERTEX
  5
2DC
  8
LAYER_3
 10
130.1366680297408
 20
-66.80924918226471
 30
0.0
  0
VERTEX
  5
2DD
  8
LAYER_3
 10
95.14365435498667
 20
-102.4857333591258
 30
0.0
  0
VERTEX
  5
2DE
  8
LAYER_3
 10
83.14477133513697
 20
-101.2416749796694
 30
0.0
  0
VERTEX
  5
2DF
  8
LAYER_3
 10
81.26592190222686
 20
-88.81167321139793
 30
0.0
  0
VERTEX
  5
2E0
  8
LAYER_3
 10
118.2516727131299
 20
-51.10353049928565
 30
0.0
  0
SEQEND
  5
2E1
  8
LAYER_3
  0
POLYLINE
  5
87
  8
LAYER_3
 66
     1
 10
0.0
 20
0.0
 30
0.0
 70
     1
  0
VERTEX
  5
2E2
  8
LAYER_3
 10
181.5
 20
-48.25559485432966
 30
0.0
  0
VERTEX
  5
2E3
  8
LAYER_3
 10
177.1488241596317
 20
-52.69175623964186
 30
0.0
  0
VERTEX
  5
2E4
  8
LAYER_3
 10
89.38838717987369
 20
-142.1662973684515
 30
0.0
  0
VERTEX
  5
2E5
  8
LAYER_3
 10
41.97754643406847
 20
-93.82944574998879
 30
0.0
  0
VERTEX
  5
2E6
  8
LAYER_3
 10
83.9875435277047
 20
-50.97655881624286
 30
0.0
  0
VERTEX
  5
2E7
  8
LAYER_3
 10
100.2521773262279
 20
-50.97655881624286
 30
0.0
  0
VERTEX
  5
2E8
  8
LAYER_3
 10
58.42966059706941
 20
-93.61593735598905
 30
0.0
  0
VERTEX
  5
2E9
  8
LAYER_3
 10
89.45662003812754
 20
-126.656776899841
 30
0.0
  0
VERTEX
  5
2EA
  8
LAYER_3
 10
176.1322706507317
 20
-38.28820978123653
 30
0.0
  0
VERTEX
  5
2EB
  8
LAYER_3
 10
181.5
 20
-32.81563994273199
 30
0.0
  0
SEQEND
  5
2EC
  8
LAYER_3
  0
POLYLINE
  5
88
  8
LAYER_3
 66
     1
 10
0.0
 20
0.0
 30
0.0
 70
     1
  0
VERTEX
  5
2ED
  8
LAYER_3
 10
-9.594076603008261
 20
-139.4901480114195
 30
0.0
  0
VERTEX
  5
2EE
  8
LAYER_3
 10
-17.58506619412015
 20
-131.896911796
 30
0.0
  0
VERTEX
  5
2EF
  8
LAYER_3
 10
-17.58506619412015
 20
-124.0410978158592
 30
0.0
  0
VERTEX
  5
2F0
  8
LAYER_3
 10
5.559009168425973
 20
-124.0410978158592
 30
0.0
  0
SEQEND
  5
2F1
  8
LAYER_3
  0
POLYLINE
  5
89
  8
LAYER_3
 66
     1
 10
0.0
 20
0.0
 30
0.0
 70
     1
  0
VERTEX
  5
2F2
  8
LAYER_3
 10
181.5
 20
-143.8799341837539
 30
0.0
  0
VERTEX
  5
2F3
  8
LAYER_3
 10
172.0022457350731
 20
-134.196673322091
 30
0.0
  0
VERTEX
  5
2F4
  8
LAYER_3
 10
172.0022457350731
 20
-81.76085817246548
 30
0.0
  0
VERTEX
  5
2F5
  8
LAYER_3
 10
181.5
 20
-72.0775973108026
 30
0.0
  0
SEQEND
  5
2F6
  8
LAYER_3
  0
POLYLINE
  5
8A
  8
LAYER_3
 66
     1
 10
0.0
 20
0.0
 30
0.0
 70
     1
  0
VERTEX
  5
2F7
  8
LAYER_3
 10
78.73201754593492
 20
-154.4159172207354
 30
0.0
  0
VERTEX
  5
2F8
  8
LAYER_3
 10
62.44544599451319
 20
-154.4159172207354
 30
0.0
  0
VERTEX
  5
2F9
  8
LAYER_3
 10
33.95764474421662
 20
-125.3717028530821
 30
0.0
  0
VERTEX
  5
2FA
  8
LAYER_3
 10
-9.68324227751441
 20
-169.8649674162957
 30
0.0
  0
VERTEX
  5
2FB
  8
LAYER_3
 10
-15.74447658608801
 20
-163.6853473380716
 30
0.0
  0
VERTEX
  5
2FC
  8
LAYER_3
 10
-15.74447658608801
 20
-147.9546027931839
 30
0.0
  0
VERTEX
  5
2FD
  8
LAYER_3
 10
-9.762003359241817
 20
-154.4159172207354
 30
0.0
  0
VERTEX
  5
2FE
  8
LAYER_3
 10
34.48500709334667
 20
-109.3046906496995
 30
0.0
  0
SEQEND
  5
2FF
  8
LAYER_3
  0
POLYLINE
  5
8B
  8
LAYER_3
 66
     1
 10
0.0
 20
0.0
 30
0.0
 70
     1
  0
VERTEX
  5
300
  8
LAYER_3
 10
-48.14804539369698
 20
-155.4795178465664
 30
0.0
  0
VERTEX
  5
301
  8
LAYER_3
 10
-60.14867706316545
 20
-155.4795178465664
 30
0.0
  0
VERTEX
  5
302
  8
LAYER_3
 10
-64.45048830892733
 20
-150.9765247307172
 30
0.0
  0
VERTEX
  5
303
  8
LAYER_3
 10
-48.14804539369698
 20
-133.9743935448147
 30
0.0
  0
SEQEND
  5
304
  8
LAYER_3
  0
POLYLINE
  5
8C
  8
LAYER_3
 66
     1
 10
0.0
 20
0.0
 30
0.0
 70
     1
  0
VERTEX
  5
305
  8
LAYER_3
 10
50.03375785789513
 20
-155.8280715404241
 30
0.0
  0
VERTEX
  5
306
  8
LAYER_3
 10
28.60405844813022
 20
-155.8280715404241
 30
0.0
  0
VERTEX
  5
307
  8
LAYER_3
 10
28.60405844813022
 20
-144.4669782580052
 30
0.0
  0
VERTEX
  5
308
  8
LAYER_3
 10
33.66842522474599
 20
-139.1430973292191
 30
0.0
  0
SEQEND
  5
309
  8
LAYER_3
  0
POLYLINE
  5
8D
  8
LAYER_3
 66
     1
 10
0.0
 20
0.0
 30
0.0
 70
     1
  0
VERTEX
  5
30A
  8
LAYER_3
 10
154.0683910907685
 20
-154.6229900786672
 30
0.0
  0
VERTEX
  5
30B
  8
LAYER_3
 10
181.5
 20
-154.6229900786672
 30
0.0
  0
VERTEX
  5
30C
  8
LAYER_3
 10
181.5
 20
-165.1658872459756
 30
0.0
  0
VERTEX
  5
30D
  8
LAYER_3
 10
143.6964752600516
 20
-165.1658872459756
 30
0.0
  0
VERTEX
  5
30E
  8
LAYER_3
 10
143.6964752600511
 20
-104.8962988819767
 30
0.0
  0
VERTEX
  5
30F
  8
LAYER_3
 10
154.0683910907685
 20
-94.32180265659775
 30
0.0
  0
SEQEND
  5
310
  8
LAYER_3
  0
POLYLINE
  5
8E
  8
LAYER_3
 66
     1
 10
0.0
 20
0.0
 30
0.0
 70
     1
  0
VERTEX
  5
311
  8
LAYER_3
 10
-168.9100932010381
 20
-145.4293724696648
 30
0.0
  0
VERTEX
  5
312
  8
LAYER_3
 10
-181.5
 20
-167.7005963241008
 30
0.0
  0
VERTEX
  5
313
  8
LAYER_3
 10
-181.5
 20
-129.2087132607463
 30
0.0
  0
VERTEX
  5
314
  8
LAYER_3
 10
-168.9100932010381
 20
-106.9764413599394
 30
0.0
  0
SEQEND
  5
315
  8
LAYER_3
  0
POLYLINE
  5
8F
  8
LAYER_3
 66
     1
 10
0.0
 20
0.0
 30
0.0
 70
     1
  0
VERTEX
  5
316
  8
LAYER_3
 10
-144.7609995264468
 20
-101.7505399416557
 30
0.0
  0
VERTEX
  5
317
  8
LAYER_3
 10
-144.7609995264468
 20
-164.6735181212065
 30
0.0
  0
VERTEX
  5
318
  8
LAYER_3
 10
-156.6385445404121
 20
-171.6649601411565
 30
0.0
  0
VERTEX
  5
319
  8
LAYER_3
 10
-155.3917048256853
 20
-106.9593087049078
 30
0.0
  0
VERTEX
  5
31A
  8
LAYER_3
 10
-171.0058260814235
 20
-93.54966779203477
 30
0.0
  0
VERTEX
  5
31B
  8
LAYER_3
 10
-181.5
 20
-102.4634597540767
 30
0.0
  0
VERTEX
  5
31C
  8
LAYER_3
 10
-181.5
 20
-87.82457074196907
 30
0.0
  0
VERTEX
  5
31D
  8
LAYER_3
 10
-171.1829466779518
 20
-78.92621553989693
 30
0.0
  0
SEQEND
  5
31E
  8
LAYER_3
  0
POLYLINE
  5
90
  8
LAYER_3
 66
     1
 10
0.0
 20
0.0
 30
0.0
 70
     1
  0
VERTEX
  5
31F
  8
LAYER_3
 10
12.02544587447733
 20
-113.4894098332762
 30
0.0
  0
VERTEX
  5
320
  8
LAYER_3
 10
-27.61845088290465
 20
-113.4894098332762
 30
0.0
  0
VERTEX
  5
321
  8
LAYER_3
 10
-27.61845088290465
 20
-177.6294502759131
 30
0.0
  0
VERTEX
  5
322
  8
LAYER_3
 10
-36.39939188748963
 20
-177.6294502759131
 30
0.0
  0
VERTEX
  5
323
  8
LAYER_3
 10
-47.49388832126965
 20
-166.4179321492657
 30
0.0
  0
VERTEX
  5
324
  8
LAYER_3
 10
-38.57662020516636
 20
-166.4179321492657
 30
0.0
  0
VERTEX
  5
325
  8
LAYER_3
 10
-38.5019827599715
 20
-102.8552773522091
 30
0.0
  0
VERTEX
  5
326
  8
LAYER_3
 10
22.72241778649595
 20
-102.8552773522091
 30
0.0
  0
SEQEND
  5
327
  8
LAYER_3
  0
POLYLINE
  5
91
  8
LAYER_3
 66
     1
 10
0.0
 20
0.0
 30
0.0
 70
     1
  0
VERTEX
  5
328
  8
LAYER_3
 10
-2.213859585022874
 20
-188.0723537186486
 30
0.0
  0
VERTEX
  5
329
  8
LAYER_3
 10
8.929584108054996
 20
-188.0723537186486
 30
0.0
  0
VERTEX
  5
32A
  8
LAYER_3
 10
1.656102937766491
 20
-195.4878978125175
 30
0.0
  0
VERTEX
  5
32B
  8
LAYER_3
 10
10.14183096976967
 20
-204.1393659220312
 30
0.0
  0
VERTEX
  5
32C
  8
LAYER_3
 10
-1.858800699698804
 20
-204.1393659220312
 30
0.0
  0
VERTEX
  5
32D
  8
LAYER_3
 10
-1.858800699698804
 20
-216.3743894569438
 30
0.0
  0
VERTEX
  5
32E
  8
LAYER_3
 10
-9.424780671435428
 20
-207.8612580748646
 30
0.0
  0
VERTEX
  5
32F
  8
LAYER_3
 10
-17.91050870343884
 20
-216.5127261843782
 30
0.0
  0
VERTEX
  5
330
  8
LAYER_3
 10
-17.91050870343884
 20
-204.2777026494656
 30
0.0
  0
VERTEX
  5
331
  8
LAYER_3
 10
-29.05395239651671
 20
-204.2777026494656
 30
0.0
  0
VERTEX
  5
332
  8
LAYER_3
 10
-21.17434779537075
 20
-196.2441965477744
 30
0.0
  0
VERTEX
  5
333
  8
LAYER_3
 10
-29.67665064703033
 20
-187.5381343409717
 30
0.0
  0
VERTEX
  5
334
  8
LAYER_3
 10
-17.97306878731456
 20
-187.5381343409717
 30
0.0
  0
VERTEX
  5
335
  8
LAYER_3
 10
-17.97306878731456
 20
-175.8373301837359
 30
0.0
  0
VERTEX
  5
336
  8
LAYER_3
 10
-10.09346418616906
 20
-183.8708362854272
 30
0.0
  0
VERTEX
  5
337
  8
LAYER_3
 10
-2.213859585022874
 20
-175.8373301837359
 30
0.0
  0
SEQEND
  5
338
  8
LAYER_3
  0
POLYLINE
  5
92
  8
LAYER_3
 66
     1
 10
0.0
 20
0.0
 30
0.0
 70
     1
  0
VERTEX
  5
339
  8
LAYER_3
 10
-50.01480514800892
 20
-121.0490750223418
 30
0.0
  0
VERTEX
  5
33A
  8
LAYER_3
 10
-78.69932937885483
 20
-149.9606662644667
 30
0.0
  0
VERTEX
  5
33B
  8
LAYER_3
 10
-34.58879882605174
 20
-194.9327472611775
 30
0.0
  0
VERTEX
  5
33C
  8
LAYER_3
 10
-40.6989559390679
 20
-202.1967212015982
 30
0.0
  0
VERTEX
  5
33D
  8
LAYER_3
 10
-56.46825358550154
 20
-202.1967212015982
 30
0.0
  0
VERTEX
  5
33E
  8
LAYER_3
 10
-50.10423226103558
 20
-196.287089398681
 30
0.0
  0
VERTEX
  5
33F
  8
LAYER_3
 10
-51.86232022379636
 20
-193.8152413673914
 30
0.0
  0
VERTEX
  5
340
  8
LAYER_3
 10
-94.29096038381249
 20
-150.5579008198227
 30
0.0
  0
VERTEX
  5
341
  8
LAYER_3
 10
-50.04394993122423
 20
-105.4466742487868
 30
0.0
  0
SEQEND
  5
342
  8
LAYER_3
  0
POLYLINE
  5
93
  8
LAYER_3
 66
     1
 10
0.0
 20
0.0
 30
0.0
 70
     1
  0
VERTEX
  5
343
  8
LAYER_3
 10
-64.21778694541581
 20
-195.4153740389442
 30
0.0
  0
VERTEX
  5
344
  8
LAYER_3
 10
-71.85623666368679
 20
-204.1076913828605
 30
0.0
  0
VERTEX
  5
345
  8
LAYER_3
 10
-79.57092845120224
 20
-204.1076913828605
 30
0.0
  0
VERTEX
  5
346
  8
LAYER_3
 10
-79.57092845120201
 20
-179.7670036283553
 30
0.0
  0
SEQEND
  5
347
  8
LAYER_3
  0
POLYLINE
  5
94
  8
LAYER_3
 66
     1
 10
0.0
 20
0.0
 30
0.0
 70
     1
  0
VERTEX
  5
348
  8
LAYER_3
 10
130.2479864720897
 20
-174.1841084092036
 30
0.0
  0
VERTEX
  5
349
  8
LAYER_3
 10
93.89543833991752
 20
-211.2466809638427
 30
0.0
  0
VERTEX
  5
34A
  8
LAYER_3
 10
93.89543833991752
 20
-155.2640538883043
 30
0.0
  0
VERTEX
  5
34B
  8
LAYER_3
 10
130.2479864720895
 20
-118.2014813336654
 30
0.0
  0
SEQEND
  5
34C
  8
LAYER_3
  0
POLYLINE
  5
95
  8
LAYER_3
 66
     1
 10
0.0
 20
0.0
 30
0.0
 70
     1
  0
VERTEX
  5
34D
  8
LAYER_3
 10
59.64968245867635
 20
-212.1976865807646
 30
0.0
  0
VERTEX
  5
34E
  8
LAYER_3
 10
44.49659668724235
 20
-196.7486363852043
 30
0.0
  0
VERTEX
  5
34F
  8
LAYER_3
 10
52.98232471924553
 20
-188.0971682756906
 30
0.0
  0
VERTEX
  5
350
  8
LAYER_3
 10
59.64968245867635
 20
-188.0971682756906
 30
0.0
  0
SEQEND
  5
351
  8
LAYER_3
  0
POLYLINE
  5
96
  8
LAYER_3
 66
     1
 10
0.0
 20
0.0
 30
0.0
 70
     1
  0
VERTEX
  5
352
  8
LAYER_3
 10
181.5
 20
-221.834000559101
 30
0.0
  0
VERTEX
  5
353
  8
LAYER_3
 10
180.0230320717553
 20
-220.6285980771872
 30
0.0
  0
VERTEX
  5
354
  8
LAYER_3
 10
172.2477428591558
 20
-214.2165553150189
 30
0.0
  0
VERTEX
  5
355
  8
LAYER_3
 10
172.3083402842399
 20
-205.5552019229692
 30
0.0
  0
VERTEX
  5
356
  8
LAYER_3
 10
181.5
 20
-205.5552019229692
 30
0.0
  0
SEQEND
  5
357
  8
LAYER_3
  0
POLYLINE
  5
97
  8
LAYER_3
 66
     1
 10
0.0
 20
0.0
 30
0.0
 70
     1
  0
VERTEX
  5
358
  8
LAYER_3
 10
18.81503353284552
 20
-166.2783441892337
 30
0.0
  0
VERTEX
  5
359
  8
LAYER_3
 10
80.86857898084031
 20
-166.2783441892337
 30
0.0
  0
VERTEX
  5
35A
  8
LAYER_3
 10
80.86857898084031
 20
-231.4359018132633
 30
0.0
  0
VERTEX
  5
35B
  8
LAYER_3
 10
69.68317955555653
 20
-220.032033334913
 30
0.0
  0
VERTEX
  5
35C
  8
LAYER_3
 10
69.68317955555653
 20
-177.6044590188682
 30
0.0
  0
VERTEX
  5
35D
  8
LAYER_3
 10
7.833005006203166
 20
-177.6822126675842
 30
0.0
  0
VERTEX
  5
35E
  8
LAYER_3
 10
7.833005006203166
 20
-169.1811470746321
 30
0.0
  0
VERTEX
  5
35F
  8
LAYER_3
 10
18.81503353284552
 20
-157.9846216595244
 30
0.0
  0
SEQEND
  5
360
  8
LAYER_3
  0
POLYLINE
  5
98
  8
LAYER_3
 66
     1
 10
0.0
 20
0.0
 30
0.0
 70
     1
  0
VERTEX
  5
361
  8
LAYER_3
 10
-89.48132373487397
 20
-172.3272490920834
 30
0.0
  0
VERTEX
  5
362
  8
LAYER_3
 10
-89.48132373487397
 20
-213.4019709592901
 30
0.0
  0
VERTEX
  5
363
  8
LAYER_3
 10
-28.12611327863851
 20
-213.9684541064709
 30
0.0
  0
VERTEX
  5
364
  8
LAYER_3
 10
-28.12611327863851
 20
-223.5816868839023
 30
0.0
  0
VERTEX
  5
365
  8
LAYER_3
 10
-39.03633503407104
 20
-234.7050030247057
 30
0.0
  0
VERTEX
  5
366
  8
LAYER_3
 10
-39.03633503407104
 20
-225.9657004997681
 30
0.0
  0
VERTEX
  5
367
  8
LAYER_3
 10
-100.7538693341949
 20
-225.9657004997681
 30
0.0
  0
VERTEX
  5
368
  8
LAYER_3
 10
-100.2141008881406
 20
-161.4598185869553
 30
0.0
  0
SEQEND
  5
369
  8
LAYER_3
  0
POLYLINE
  5
99
  8
LAYER_3
 66
     1
 10
0.0
 20
0.0
 30
0.0
 70
     1
  0
VERTEX
  5
36A
  8
LAYER_3
 10
-170.4272401049027
 20
-197.2821309751927
 30
0.0
  0
VERTEX
  5
36B
  8
LAYER_3
 10
-157.7238802921586
 20
-189.1284693039048
 30
0.0
  0
VERTEX
  5
36C
  8
LAYER_3
 10
-165.0099780914788
 20
-202.4194864939467
 30
0.0
  0
VERTEX
  5
36D
  8
LAYER_3
 10
-143.5802786817135
 20
-202.4057621746041
 30
0.0
  0
VERTEX
  5
36E
  8
LAYER_3
 10
-159.9105241943523
 20
-212.4835919475663
 30
0.0
  0
VERTEX
  5
36F
  8
LAYER_3
 10
-144.2656077036572
 20
-222.2502795985521
 30
0.0
  0
VERTEX
  5
370
  8
LAYER_3
 10
-165.3587486375541
 20
-222.2502795985521
 30
0.0
  0
VERTEX
  5
371
  8
LAYER_3
 10
-158.4853009366725
 20
-235.0823270965186
 30
0.0
  0
VERTEX
  5
372
  8
LAYER_3
 10
-170.8834754511604
 20
-228.0908850765684
 30
0.0
  0
VERTEX
  5
373
  8
LAYER_3
 10
-171.4041049516825
 20
-249.9391413889123
 30
0.0
  0
VERTEX
  5
374
  8
LAYER_3
 10
-181.5
 20
-231.7578624288187
 30
0.0
  0
VERTEX
  5
375
  8
LAYER_3
 10
-181.5
 20
-192.1389849825124
 30
0.0
  0
VERTEX
  5
376
  8
LAYER_3
 10
-170.4272401049027
 20
-175.4338746628487
 30
0.0
  0
SEQEND
  5
377
  8
LAYER_3
  0
POLYLINE
  5
9A
  8
LAYER_3
 66
     1
 10
0.0
 20
0.0
 30
0.0
 70
     1
  0
VERTEX
  5
378
  8
LAYER_3
 10
139.2450558288524
 20
-237.8419883793993
 30
0.0
  0
VERTEX
  5
379
  8
LAYER_3
 10
127.1225872117052
 20
-237.8419883793993
 30
0.0
  0
VERTEX
  5
37A
  8
LAYER_3
 10
122.273599764846
 20
-232.8982923168201
 30
0.0
  0
VERTEX
  5
37B
  8
LAYER_3
 10
139.2450558288529
 20
-215.5953560977927
 30
0.0
  0
SEQEND
  5
37C
  8
LAYER_3
  0
POLYLINE
  5
9B
  8
LAYER_3
 66
     1
 10
0.0
 20
0.0
 30
0.0
 70
     1
  0
VERTEX
  5
37D
  8
LAYER_3
 10
-72.2062204583599
 20
-109.6257734965523
 30
0.0
  0
VERTEX
  5
37E
  8
LAYER_3
 10
-117.8920143279609
 20
-156.6387151858697
 30
0.0
  0
VERTEX
  5
37F
  8
LAYER_3
 10
-118.4856031383706
 20
-233.5848217633353
 30
0.0
  0
VERTEX
  5
380
  8
LAYER_3
 10
-108.908192904275
 20
-244.1646005044317
 30
0.0
  0
VERTEX
  5
381
  8
LAYER_3
 10
-116.1480037734684
 20
-250.5072724164615
 30
0.0
  0
VERTEX
  5
382
  8
LAYER_3
 10
-128.2247100808752
 20
-237.1755557576829
 30
0.0
  0
VERTEX
  5
383
  8
LAYER_3
 10
-126.519217789174
 20
-109.2860626217354
 30
0.0
  0
SEQEND
  5
384
  8
LAYER_3
  0
POLYLINE
  5
9C
  8
LAYER_3
 66
     1
 10
0.0
 20
0.0
 30
0.0
 70
     1
  0
VERTEX
  5
385
  8
LAYER_3
 10
180.0618743372713
 20
-234.1426642966535
 30
0.0
  0
VERTEX
  5
386
  8
LAYER_3
 10
181.5
 20
-235.6088788938746
 30
0.0
  0
VERTEX
  5
387
  8
LAYER_3
 10
181.5
 20
-252.6899981931866
 30
0.0
  0
VERTEX
  5
388
  8
LAYER_3
 10
180.3081911881627
 20
-251.4749114157926
 30
0.0
  0
VERTEX
  5
389
  8
LAYER_3
 10
174.8530803104463
 20
-245.9132533453909
 30
0.0
  0
VERTEX
  5
38A
  8
LAYER_3
 10
174.8530803104463
 20
-229.3085785480095
 30
0.0
  0
SEQEND
  5
38B
  8
LAYER_3
  0
POLYLINE
  5
9D
  8
LAYER_3
 66
     1
 10
0.0
 20
0.0
 30
0.0
 70
     1
  0
VERTEX
  5
38C
  8
LAYER_3
 10
-48.88746785319017
 20
-247.4634186859873
 30
0.0
  0
VERTEX
  5
38D
  8
LAYER_3
 10
-53.24051964582395
 20
-253.7248270346949
 30
0.0
  0
VERTEX
  5
38E
  8
LAYER_3
 10
-70.31716726295531
 20
-236.1023254035684
 30
0.0
  0
VERTEX
  5
38F
  8
LAYER_3
 10
-48.88746785319017
 20
-236.1023254035684
 30
0.0
  0
SEQEND
  5
390
  8
LAYER_3
  0
POLYLINE
  5
9E
  8
LAYER_3
 66
     1
 10
0.0
 20
0.0
 30
0.0
 70
     1
  0
VERTEX
  5
391
  8
LAYER_3
 10
45.03210731541435
 20
-241.659851701774
 30
0.0
  0
VERTEX
  5
392
  8
LAYER_3
 10
28.66677468226521
 20
-258.3448259129791
 30
0.0
  0
VERTEX
  5
393
  8
LAYER_3
 10
28.66677468226521
 20
-236.7161556391948
 30
0.0
  0
VERTEX
  5
394
  8
LAYER_3
 10
40.1831198685552
 20
-236.7161556391948
 30
0.0
  0
SEQEND
  5
395
  8
LAYER_3
  0
POLYLINE
  5
9F
  8
LAYER_3
 66
     1
 10
0.0
 20
0.0
 30
0.0
 70
     1
  0
VERTEX
  5
396
  8
LAYER_3
 10
181.5
 20
-195.2010772250733
 30
0.0
  0
VERTEX
  5
397
  8
LAYER_3
 10
160.4730591048501
 20
-195.2010772250733
 30
0.0
  0
VERTEX
  5
398
  8
LAYER_3
 10
160.4730591048501
 20
-259.8719159096114
 30
0.0
  0
VERTEX
  5
399
  8
LAYER_3
 10
151.9011793409441
 20
-259.8719159096114
 30
0.0
  0
VERTEX
  5
39A
  8
LAYER_3
 10
140.3848341546538
 20
-248.1306377609858
 30
0.0
  0
VERTEX
  5
39B
  8
LAYER_3
 10
148.9567139185601
 20
-248.1306377609858
 30
0.0
  0
VERTEX
  5
39C
  8
LAYER_3
 10
147.847094425344
 20
-183.2495672521919
 30
0.0
  0
VERTEX
  5
39D
  8
LAYER_3
 10
181.5
 20
-183.2495672521919
 30
0.0
  0
SEQEND
  5
39E
  8
LAYER_3
  0
POLYLINE
  5
A0
  8
LAYER_3
 66
     1
 10
0.0
 20
0.0
 30
0.0
 70
     1
  0
VERTEX
  5
39F
  8
LAYER_3
 10
-4.085469228318971
 20
-228.5939748313194
 30
0.0
  0
VERTEX
  5
3A0
  8
LAYER_3
 10
-4.085469228318971
 20
-244.324719376207
 30
0.0
  0
VERTEX
  5
3A1
  8
LAYER_3
 10
-10.14670353689257
 20
-238.145099297983
 30
0.0
  0
VERTEX
  5
3A2
  8
LAYER_3
 10
-53.96663510233361
 20
-284.317777658502
 30
0.0
  0
VERTEX
  5
3A3
  8
LAYER_3
 10
-97.65672390913255
 20
-238.1273206964222
 30
0.0
  0
VERTEX
  5
3A4
  8
LAYER_3
 10
-81.81453813262624
 20
-238.1273206964222
 30
0.0
  0
VERTEX
  5
3A5
  8
LAYER_3
 10
-54.39371398948083
 20
-267.5255813241311
 30
0.0
  0
VERTEX
  5
3A6
  8
LAYER_3
 10
-10.14670353689257
 20
-222.4143547530953
 30
0.0
  0
SEQEND
  5
3A7
  8
LAYER_3
  0
POLYLINE
  5
A1
  8
LAYER_3
 66
     1
 10
0.0
 20
0.0
 30
0.0
 70
     1
  0
VERTEX
  5
3A8
  8
LAYER_3
 10
-2.627077352238757
 20
-260.9866809884614
 30
0.0
  0
VERTEX
  5
3A9
  8
LAYER_3
 10
-2.627077352238757
 20
-269.367082892173
 30
0.0
  0
VERTEX
  5
3AA
  8
LAYER_3
 10
-26.06386637662445
 20
-269.367082892173
 30
0.0
  0
VERTEX
  5
3AB
  8
LAYER_3
 10
-10.50668195338471
 20
-252.9531748867702
 30
0.0
  0
SEQEND
  5
3AC
  8
LAYER_3
  0
POLYLINE
  5
A2
  8
LAYER_3
 66
     1
 10
0.0
 20
0.0
 30
0.0
 70
     1
  0
VERTEX
  5
3AD
  8
LAYER_3
 10
137.0579631993887
 20
-202.3355111781446
 30
0.0
  0
VERTEX
  5
3AE
  8
LAYER_3
 10
108.312780668665
 20
-232.3011376345362
 30
0.0
  0
VERTEX
  5
3AF
  8
LAYER_3
 10
153.1659145521107
 20
-278.0303262133943
 30
0.0
  0
VERTEX
  5
3B0
  8
LAYER_3
 10
147.4599890789762
 20
-284.9530638302803
 30
0.0
  0
VERTEX
  5
3B1
  8
LAYER_3
 10
131.1734175275546
 20
-284.9530638302803
 30
0.0
  0
VERTEX
  5
3B2
  8
LAYER_3
 10
137.2346518361285
 20
-278.7734437520562
 30
0.0
  0
VERTEX
  5
3B3
  8
LAYER_3
 10
93.13733314188971
 20
-232.8262209374668
 30
0.0
  0
VERTEX
  5
3B4
  8
LAYER_3
 10
137.0579631993887
 20
-185.7308363807632
 30
0.0
  0
SEQEND
  5
3B5
  8
LAYER_3
  0
POLYLINE
  5
A3
  8
LAYER_3
 66
     1
 10
0.0
 20
0.0
 30
0.0
 70
     1
  0
VERTEX
  5
3B6
  8
LAYER_3
 10
108.1565776009002
 20
-262.8730491764293
 30
0.0
  0
VERTEX
  5
3B7
  8
LAYER_3
 10
123.3096633723346
 20
-278.3220993719893
 30
0.0
  0
VERTEX
  5
3B8
  8
LAYER_3
 10
115.2805190640559
 20
-287.1654462002376
 30
0.0
  0
VERTEX
  5
3B9
  8
LAYER_3
 10
107.5658272765402
 20
-287.1654462002376
 30
0.0
  0
VERTEX
  5
3BA
  8
LAYER_3
 10
107.5658272765402
 20
-262.6953991304123
 30
0.0
  0
SEQEND
  5
3BB
  8
LAYER_3
  0
POLYLINE
  5
A4
  8
LAYER_3
 66
     1
 10
0.0
 20
0.0
 30
0.0
 70
     1
  0
VERTEX
  5
3BC
  8
LAYER_3
 10
30.3826149541037
 20
-195.9945744327202
 30
0.0
  0
VERTEX
  5
3BD
  8
LAYER_3
 10
75.23574883754941
 20
-241.7237630115785
 30
0.0
  0
VERTEX
  5
3BE
  8
LAYER_3
 10
30.3826149541037
 20
-287.7926624652534
 30
0.0
  0
VERTEX
  5
3BF
  8
LAYER_3
 10
30.3826149541037
 20
-272.5961372980427
 30
0.0
  0
VERTEX
  5
3C0
  8
LAYER_3
 10
59.04062513617396
 20
-242.3453027285862
 30
0.0
  0
VERTEX
  5
3C1
  8
LAYER_3
 10
14.9532313790728
 20
-195.9945744327202
 30
0.0
  0
VERTEX
  5
3C2
  8
LAYER_3
 10
21.01446568764641
 20
-189.8149543544961
 30
0.0
  0
VERTEX
  5
3C3
  8
LAYER_3
 10
36.44384926267753
 20
-189.8149543544961
 30
0.0
  0
SEQEND
  5
3C4
  8
LAYER_3
  0
POLYLINE
  5
A5
  8
LAYER_3
 66
     1
 10
0.0
 20
0.0
 30
0.0
 70
     1
  0
VERTEX
  5
3C5
  8
LAYER_3
 10
27.5838159082889
 20
-225.6933833952673
 30
0.0
  0
VERTEX
  5
3C6
  8
LAYER_3
 10
19.01193614438262
 20
-225.6933833952673
 30
0.0
  0
VERTEX
  5
3C7
  8
LAYER_3
 10
19.01193614438262
 20
-291.2381523322992
 30
0.0
  0
VERTEX
  5
3C8
  8
LAYER_3
 10
-43.56278613213158
 20
-291.2381523322992
 30
0.0
  0
VERTEX
  5
3C9
  8
LAYER_3
 10
-32.65256437669905
 20
-279.8974212316131
 30
0.0
  0
VERTEX
  5
3CA
  8
LAYER_3
 10
7.635270513659634
 20
-279.8974212316131
 30
0.0
  0
VERTEX
  5
3CB
  8
LAYER_3
 10
7.635270513659634
 20
-214.5700672544639
 30
0.0
  0
VERTEX
  5
3CC
  8
LAYER_3
 10
16.20715027756569
 20
-214.5700672544639
 30
0.0
  0
SEQEND
  5
3CD
  8
LAYER_3
  0
POLYLINE
  5
A6
  8
LAYER_3
 66
     1
 10
0.0
 20
0.0
 30
0.0
 70
     1
  0
VERTEX
  5
3CE
  8
LAYER_3
 10
179.5301827814317
 20
-266.3313400444549
 30
0.0
  0
VERTEX
  5
3CF
  8
LAYER_3
 10
181.5
 20
-268.3396309988365
 30
0.0
  0
VERTEX
  5
3D0
  8
LAYER_3
 10
181.5
 20
-290.0489683950592
 30
0.0
  0
VERTEX
  5
3D1
  8
LAYER_3
 10
180.743770703298
 20
-290.8199680805574
 30
0.0
  0
VERTEX
  5
3D2
  8
LAYER_3
 10
172.864166102152
 20
-298.8534741822487
 30
0.0
  0
VERTEX
  5
3D3
  8
LAYER_3
 10
172.864166102152
 20
-287.4923808998299
 30
0.0
  0
VERTEX
  5
3D4
  8
LAYER_3
 10
161.7207224090741
 20
-287.4923808998299
 30
0.0
  0
VERTEX
  5
3D5
  8
LAYER_3
 10
168.7417979736781
 20
-278.9283573425186
 30
0.0
  0
VERTEX
  5
3D6
  8
LAYER_3
 10
160.2560699416749
 20
-270.2768892330047
 30
0.0
  0
VERTEX
  5
3D7
  8
LAYER_3
 10
172.2567016111432
 20
-270.2768892330047
 30
0.0
  0
VERTEX
  5
3D8
  8
LAYER_3
 10
172.2567016111432
 20
-258.915795950586
 30
0.0
  0
SEQEND
  5
3D9
  8
LAYER_3
  0
POLYLINE
  5
A7
  8
LAYER_3
 66
     1
 10
0.0
 20
0.0
 30
0.0
 70
     1
  0
VERTEX
  5
3DA
  8
LAYER_3
 10
-96.32484420087644
 20
-269.5703389174024
 30
0.0
  0
VERTEX
  5
3DB
  8
LAYER_3
 10
-96.32484420087644
 20
-284.4271532097963
 30
0.0
  0
VERTEX
  5
3DC
  8
LAYER_3
 10
-82.98371324999243
 20
-285.2565254627673
 30
0.0
  0
VERTEX
  5
3DD
  8
LAYER_3
 10
-80.22867310745755
 20
-323.6402620985067
 30
0.0
  0
VERTEX
  5
3DE
  8
LAYER_3
 10
-111.4360692691814
 20
-354.7619500894442
 30
0.0
  0
VERTEX
  5
3DF
  8
LAYER_3
 10
-87.47930280264904
 20
-362.2368632511961
 30
0.0
  0
VERTEX
  5
3E0
  8
LAYER_3
 10
-107.8010861594848
 20
-368.738610916246
 30
0.0
  0
VERTEX
  5
3E1
  8
LAYER_3
 10
-132.5309874342931
 20
-361.274260639508
 30
0.0
  0
VERTEX
  5
3E2
  8
LAYER_3
 10
-91.12627728980192
 20
-318.8443392920535
 30
0.0
  0
VERTEX
  5
3E3
  8
LAYER_3
 10
-92.78999541149665
 20
-296.6119875375111
 30
0.0
  0
VERTEX
  5
3E4
  8
LAYER_3
 10
-106.9177975376692
 20
-295.5928549130605
 30
0.0
  0
VERTEX
  5
3E5
  8
LAYER_3
 10
-106.9892073838409
 20
-280.0711864656611
 30
0.0
  0
VERTEX
  5
3E6
  8
LAYER_3
 10
-128.7498935384845
 20
-278.8271280862047
 30
0.0
  0
VERTEX
  5
3E7
  8
LAYER_3
 10
-169.0975046946137
 20
-321.7450049615583
 30
0.0
  0
VERTEX
  5
3E8
  8
LAYER_3
 10
-175.605373451142
 20
-293.680640315749
 30
0.0
  0
VERTEX
  5
3E9
  8
LAYER_3
 10
-169.4560231844107
 20
-272.4284076069413
 30
0.0
  0
VERTEX
  5
3EA
  8
LAYER_3
 10
-163.3229463075443
 20
-300.1834636002069
 30
0.0
  0
VERTEX
  5
3EB
  8
LAYER_3
 10
-132.6399720876998
 20
-266.5507599977286
 30
0.0
  0
SEQEND
  5
3EC
  8
LAYER_3
  0
POLYLINE
  5
A8
  8
LAYER_3
 66
     1
 10
0.0
 20
0.0
 30
0.0
 70
     1
  0
VERTEX
  5
3ED
  8
LAYER_3
 10
73.49131116683748
 20
-320.3224513772608
 30
0.0
  0
VERTEX
  5
3EE
  8
LAYER_3
 10
-50.80094540980053
 20
-320.3224513772608
 30
0.0
  0
VERTEX
  5
3EF
  8
LAYER_3
 10
-64.7417843195201
 20
-306.1093251973454
 30
0.0
  0
VERTEX
  5
3F0
  8
LAYER_3
 10
-58.07442658008904
 20
-299.3117431112988
 30
0.0
  0
VERTEX
  5
3F1
  8
LAYER_3
 10
-48.37645168637118
 20
-309.1991352364574
 30
0.0
  0
VERTEX
  5
3F2
  8
LAYER_3
 10
27.91327821239292
 20
-309.1991352364574
 30
0.0
  0
VERTEX
  5
3F3
  8
LAYER_3
 10
73.49131116683748
 20
-262.6430547126726
 30
0.0
  0
SEQEND
  5
3F4
  8
LAYER_3
  0
POLYLINE
  5
A9
  8
LAYER_3
 66
     1
 10
0.0
 20
0.0
 30
0.0
 70
     1
  0
VERTEX
  5
3F5
  8
LAYER_3
 10
97.6260208064241
 20
-254.282128460561
 30
0.0
  0
VERTEX
  5
3F6
  8
LAYER_3
 10
97.6260208064241
 20
-297.1047108327551
 30
0.0
  0
VERTEX
  5
3F7
  8
LAYER_3
 10
161.0579310593291
 20
-297.1047108327551
 30
0.0
  0
VERTEX
  5
3F8
  8
LAYER_3
 10
161.0579310593291
 20
-306.7179436101865
 30
0.0
  0
VERTEX
  5
3F9
  8
LAYER_3
 10
149.5415858730389
 20
-318.4592217588122
 30
0.0
  0
VERTEX
  5
3FA
  8
LAYER_3
 10
149.5415858730389
 20
-308.8459889813809
 30
0.0
  0
VERTEX
  5
3FB
  8
LAYER_3
 10
86.10967562013388
 20
-308.8459889813809
 30
0.0
  0
VERTEX
  5
3FC
  8
LAYER_3
 10
86.10967562013388
 20
-242.4272897918553
 30
0.0
  0
SEQEND
  5
3FD
  8
LAYER_3
  0
POLYLINE
  5
AA
  8
LAYER_3
 66
     1
 10
0.0
 20
0.0
 30
0.0
 70
     1
  0
VERTEX
  5
3FE
  8
LAYER_3
 10
139.8276635048765
 20
-330.4350605983024
 30
0.0
  0
VERTEX
  5
3FF
  8
LAYER_3
 10
135.1122047708616
 20
-337.434278478483
 30
0.0
  0
VERTEX
  5
400
  8
LAYER_3
 10
118.3979640951113
 20
-319.9478975683773
 30
0.0
  0
VERTEX
  5
401
  8
LAYER_3
 10
139.8276635048765
 20
-319.9478975683773
 30
0.0
  0
SEQEND
  5
402
  8
LAYER_3
  0
POLYLINE
  5
AB
  8
LAYER_3
 66
     1
 10
0.0
 20
0.0
 30
0.0
 70
     1
  0
VERTEX
  5
403
  8
LAYER_3
 10
-123.5838117109347
 20
-312.4626641284547
 30
0.0
  0
VERTEX
  5
404
  8
LAYER_3
 10
-100.4003715882905
 20
-306.1293499122287
 30
0.0
  0
VERTEX
  5
405
  8
LAYER_3
 10
-128.9070804665098
 20
-336.5327519346548
 30
0.0
  0
VERTEX
  5
406
  8
LAYER_3
 10
-152.090520589154
 20
-342.8660661508807
 30
0.0
  0
VERTEX
  5
407
  8
LAYER_3
 10
-145.4348233834705
 20
-317.5415121131091
 30
0.0
  0
VERTEX
  5
408
  8
LAYER_3
 10
-117.337100027157
 20
-288.0573285199915
 30
0.0
  0
SEQEND
  5
409
  8
LAYER_3
  0
POLYLINE
  5
AC
  8
LAYER_3
 66
     1
 10
0.0
 20
0.0
 30
0.0
 70
     1
  0
VERTEX
  5
40A
  8
LAYER_3
 10
-164.1185108860764
 20
-355.0012224232639
 30
0.0
  0
VERTEX
  5
40B
  8
LAYER_3
 10
-139.2791107546716
 20
-348.2155286201648
 30
0.0
  0
VERTEX
  5
40C
  8
LAYER_3
 10
-159.4052646642169
 20
-369.8992538238045
 30
0.0
  0
VERTEX
  5
40D
  8
LAYER_3
 10
-139.192838661786
 20
-376.5000000000001
 30
0.0
  0
VERTEX
  5
40E
  8
LAYER_3
 10
-181.5
 20
-376.5000000000001
 30
0.0
  0
VERTEX
  5
40F
  8
LAYER_3
 10
-181.5
 20
-335.8499755144915
 30
0.0
  0
VERTEX
  5
410
  8
LAYER_3
 10
-177.6272971824981
 20
-348.9990730489363
 30
0.0
  0
VERTEX
  5
411
  8
LAYER_3
 10
-157.0191005333475
 20
-327.9883647829744
 30
0.0
  0
SEQEND
  5
412
  8
LAYER_3
  0
POLYLINE
  5
AD
  8
LAYER_3
 66
     1
 10
0.0
 20
0.0
 30
0.0
 70
     1
  0
VERTEX
  5
413
  8
LAYER_3
 10
181.5
 20
-317.9118216693288
 30
0.0
  0
VERTEX
  5
414
  8
LAYER_3
 10
176.7596306562716
 20
-322.7447781404662
 30
0.0
  0
VERTEX
  5
415
  8
LAYER_3
 10
135.1063373970776
 20
-368.534891529173
 30
0.0
  0
VERTEX
  5
416
  8
LAYER_3
 10
91.08998606383489
 20
-321.756388905433
 30
0.0
  0
VERTEX
  5
417
  8
LAYER_3
 10
105.7339665964407
 20
-321.7563889054329
 30
0.0
  0
VERTEX
  5
418
  8
LAYER_3
 10
134.8278912775945
 20
-351.4185652809085
 30
0.0
  0
VERTEX
  5
419
  8
LAYER_3
 10
176.7596306562716
 20
-308.6678307955581
 30
0.0
  0
VERTEX
  5
41A
  8
LAYER_3
 10
181.5
 20
-303.8348743244206
 30
0.0
  0
SEQEND
  5
41B
  8
LAYER_3
  0
POLYLINE
  5
AE
  8
LAYER_3
 66
     1
 10
0.0
 20
0.0
 30
0.0
 70
     1
  0
VERTEX
  5
41C
  8
LAYER_3
 10
181.5
 20
-352.6685026227288
 30
0.0
  0
VERTEX
  5
41D
  8
LAYER_3
 10
165.7384400392696
 20
-352.6685026227288
 30
0.0
  0
VERTEX
  5
41E
  8
LAYER_3
 10
178.6539488818394
 20
-338.684026857097
 30
0.0
  0
VERTEX
  5
41F
  8
LAYER_3
 10
181.5
 20
-335.7823877291457
 30
0.0
  0
SEQEND
  5
420
  8
LAYER_3
  0
POLYLINE
  5
AF
  8
LAYER_3
 66
     1
 10
0.0
 20
0.0
 30
0.0
 70
     1
  0
VERTEX
  5
421
  8
LAYER_3
 10
-18.13385668054752
 20
-360.4531056201301
 30
0.0
  0
VERTEX
  5
422
  8
LAYER_3
 10
-5.373227622745844
 20
-352.9418566127962
 30
0.0
  0
VERTEX
  5
423
  8
LAYER_3
 10
-11.85494349568853
 20
-366.1435710151875
 30
0.0
  0
VERTEX
  5
424
  8
LAYER_3
 10
8.508030110794152
 20
-366.1435710151875
 30
0.0
  0
VERTEX
  5
425
  8
LAYER_3
 10
-9.105408393839753
 20
-376.5000000000001
 30
0.0
  0
VERTEX
  5
426
  8
LAYER_3
 10
-48.34529167039477
 20
-376.5000000000001
 30
0.0
  0
VERTEX
  5
427
  8
LAYER_3
 10
-63.81957823959965
 20
-365.5068679080621
 30
0.0
  0
VERTEX
  5
428
  8
LAYER_3
 10
-43.27603832211025
 20
-365.506867908062
 30
0.0
  0
VERTEX
  5
429
  8
LAYER_3
 10
-50.24968529216699
 20
-353.2580818998349
 30
0.0
  0
VERTEX
  5
42A
  8
LAYER_3
 10
-36.99199216114107
 20
-361.0046819072788
 30
0.0
  0
VERTEX
  5
42B
  8
LAYER_3
 10
-36.99199216114107
 20
-338.282495342441
 30
0.0
  0
VERTEX
  5
42C
  8
LAYER_3
 10
-27.56292442084418
 20
-354.9331029379385
 30
0.0
  0
VERTEX
  5
42D
  8
LAYER_3
 10
-18.13385668054752
 20
-338.282495342441
 30
0.0
  0
SEQEND
  5
42E
  8
LAYER_3
  0
POLYLINE
  5
B0
  8
LAYER_3
 66
     1
 10
0.0
 20
0.0
 30
0.0
 70
     1
  0
VERTEX
  5
42F
  8
LAYER_3
 10
181.5
 20
-376.5000000000001
 30
0.0
  0
VERTEX
  5
430
  8
LAYER_3
 10
151.2858205156338
 20
-376.5000000000001
 30
0.0
  0
VERTEX
  5
431
  8
LAYER_3
 10
162.6058929303854
 20
-364.9588281495406
 30
0.0
  0
VERTEX
  5
432
  8
LAYER_3
 10
181.5
 20
-364.9588281495406
 30
0.0
  0
SEQEND
  5
433
  8
LAYER_3
  0
POLYLINE
  5
B1
  8
LAYER_3
 66
     1
 10
0.0
 20
0.0
 30
0.0
 70
     1
  0
VERTEX
  5
434
  8
LAYER_3
 10
81.10729222703503
 20
-338.3051442770433
 30
0.0
  0
VERTEX
  5
435
  8
LAYER_3
 10
102.9510838656979
 20
-366.4446168740816
 30
0.0
  0
VERTEX
  5
436
  8
LAYER_3
 10
95.16470416957418
 20
-376.5000000000001
 30
0.0
  0
VERTEX
  5
437
  8
LAYER_3
 10
81.24893214064241
 20
-376.5000000000001
 30
0.0
  0
VERTEX
  5
438
  8
LAYER_3
 10
90.4886168750802
 20
-366.7313023641369
 30
0.0
  0
VERTEX
  5
439
  8
LAYER_3
 10
77.32299513119165
 20
-349.6054632436363
 30
0.0
  0
VERTEX
  5
43A
  8
LAYER_3
 10
11.31952094911503
 20
-349.6054632436363
 30
0.0
  0
VERTEX
  5
43B
  8
LAYER_3
 10
18.17702476023987
 20
-337.4959304469109
 30
0.0
  0
SEQEND
  5
43C
  8
LAYER_3
  0
POLYLINE
  5
B2
  8
LAYER_3
 66
     1
 10
0.0
 20
0.0
 30
0.0
 70
     1
  0
VERTEX
  5
43D
  8
LAYER_3
 10
75.67105534582515
 20
-364.0654534342843
 30
0.0
  0
VERTEX
  5
43E
  8
LAYER_3
 10
55.1262465430716
 20
-376.5000000000001
 30
0.0
  0
VERTEX
  5
43F
  8
LAYER_3
 10
16.33382680977434
 20
-376.5000000000001
 30
0.0
  0
VERTEX
  5
440
  8
LAYER_3
 10
37.62678347646056
 20
-363.7393309944601
 30
0.0
  0
SEQEND
  5
441
  8
LAYER_3
  0
ENDSEC
  0
EOF
