  0
SECTION
  2
HEADER
  9
$ACADVER
  1
AC1009
  9
$DWGCODEPAGE
  3
ansi_1252
  9
$INSBASE
 10
0.0
 20
0.0
 30
0.0
  9
$EXTMIN
 10
-350.0000000000001
 20
-349.9999999999999
 30
0.0
  9
$EXTMAX
 10
349.9999999999999
 20
349.9999999999999
 30
0.0
  9
$LIMMIN
 10
0.0
 20
0.0
  9
$LIMMAX
 10
12.0
 20
9.0
  9
$ORTHOMODE
 70
     0
  9
$REGENMODE
 70
     1
  9
$FILLMODE
 70
     1
  9
$QTEXTMODE
 70
     0
  9
$MIRRTEXT
 70
     1
  9
$DRAGMODE
 70
     2
  9
$LTSCALE
 40
1.0
  9
$OSMODE
 70
    37
  9
$ATTMODE
 70
     1
  9
$TEXTSIZE
 40
0.2
  9
$TRACEWID
 40
0.05
  9
$TEXTSTYLE
  7
STANDARD
  9
$CLAYER
  8
0
  9
$CELTYPE
  6
BYLAYER
  9
$CECOLOR
 62
   256
  9
$DIMSCALE
 40
1.0
  9
$DIMASZ
 40
0.18
  9
$DIMEXO
 40
0.0625
  9
$DIMDLI
 40
0.38
  9
$DIMRND
 40
0.0
  9
$DIMDLE
 40
0.0
  9
$DIMEXE
 40
0.18
  9
$DIMTP
 40
0.0
  9
$DIMTM
 40
0.0
  9
$DIMTXT
 40
0.18
  9
$DIMCEN
 40
0.09
  9
$DIMTSZ
 40
0.0
  9
$DIMTOL
 70
     0
  9
$DIMLIM
 70
     0
  9
$DIMTIH
 70
     1
  9
$DIMTOH
 70
     1
  9
$DIMSE1
 70
     0
  9
$DIMSE2
 70
     0
  9
$DIMTAD
 70
     0
  9
$DIMZIN
 70
     0
  9
$DIMBLK
  1

  9
$DIMASO
 70
     1
  9
$DIMSHO
 70
     1
  9
$DIMPOST
  1

  9
$DIMAPOST
  1

  9
$DIMALT
 70
     0
  9
$DIMALTD
 70
     2
  9
$DIMALTF
 40
25.4
  9
$DIMLFAC
 40
1.0
  9
$DIMTOFL
 70
     0
  9
$DIMTVP
 40
0.0
  9
$DIMTIX
 70
     0
  9
$DIMSOXD
 70
     0
  9
$DIMSAH
 70
     0
  9
$DIMBLK1
  1

  9
$DIMBLK2
  1

  9
$DIMSTYLE
  2
STANDARD
  9
$DIMCLRD
 70
     0
  9
$DIMCLRE
 70
     0
  9
$DIMCLRT
 70
     0
  9
$DIMTFAC
 40
1.0
  9
$DIMGAP
 40
0.09
  9
$LUNITS
 70
     2
  9
$LUPREC
 70
     4
  9
$SKETCHINC
 40
0.1
  9
$FILLETRAD
 40
0.5
  9
$AUNITS
 70
     0
  9
$AUPREC
 70
     0
  9
$MENU
  1
.
  9
$ELEVATION
 40
0.0
  9
$PELEVATION
 40
0.0
  9
$THICKNESS
 40
0.0
  9
$LIMCHECK
 70
     0
  9
$CHAMFERA
 40
0.5
  9
$CHAMFERB
 40
0.5
  9
$SKPOLY
 70
     0
  9
$TDCREATE
 40
2454910.5
  9
$TDUPDATE
 40
2457351.488943947
  9
$TDINDWG
 40
0.0000000116
  9
$TDUSRTIMER
 40
0.0000000116
  9
$USRTIMER
 70
     1
  9
$ANGBASE
 50
0.0
  9
$ANGDIR
 70
     0
  9
$PDMODE
 70
     0
  9
$PDSIZE
 40
0.0
  9
$PLINEWID
 40
0.0
  9
$COORDS
 70
     1
  9
$SPLFRAME
 70
     0
  9
$SPLINETYPE
 70
     6
  9
$SPLINESEGS
 70
     8
  9
$ATTDIA
 70
     0
  9
$ATTREQ
 70
     1
  9
$HANDLING
 70
     1
  9
$HANDSEED
  5
28A
  9
$SURFTAB1
 70
     6
  9
$SURFTAB2
 70
     6
  9
$SURFTYPE
 70
     6
  9
$SURFU
 70
     6
  9
$SURFV
 70
     6
  9
$UCSNAME
  2

  9
$UCSORG
 10
0.0
 20
0.0
 30
0.0
  9
$UCSXDIR
 10
1.0
 20
0.0
 30
0.0
  9
$UCSYDIR
 10
0.0
 20
1.0
 30
0.0
  9
$PUCSNAME
  2

  9
$PUCSORG
 10
0.0
 20
0.0
 30
0.0
  9
$PUCSXDIR
 10
1.0
 20
0.0
 30
0.0
  9
$PUCSYDIR
 10
0.0
 20
1.0
 30
0.0
  9
$USERI1
 70
     0
  9
$USERI2
 70
     0
  9
$USERI3
 70
     0
  9
$USERI4
 70
     0
  9
$USERI5
 70
     0
  9
$USERR1
 40
0.0
  9
$USERR2
 40
0.0
  9
$USERR3
 40
0.0
  9
$USERR4
 40
0.0
  9
$USERR5
 40
0.0
  9
$WORLDVIEW
 70
     1
  9
$SHADEDGE
 70
     3
  9
$SHADEDIF
 70
    70
  9
$TILEMODE
 70
     1
  9
$MAXACTVP
 70
    64
  9
$PLIMCHECK
 70
     0
  9
$PEXTMIN
 10
1.000000000000000E+20
 20
1.000000000000000E+20
 30
1.000000000000000E+20
  9
$PEXTMAX
 10
-1.000000000000000E+20
 20
-1.000000000000000E+20
 30
-1.000000000000000E+20
  9
$PLIMMIN
 10
0.0
 20
0.0
  9
$PLIMMAX
 10
12.0
 20
9.0
  9
$UNITMODE
 70
     0
  9
$VISRETAIN
 70
     1
  9
$PLINEGEN
 70
     0
  9
$PSLTSCALE
 70
     1
  0
ENDSEC
  0
SECTION
  2
TABLES
  0
TABLE
  2
VPORT
 70
     1
  0
VPORT
  2
*ACTIVE
 70
     0
 10
0.0
 20
0.0
 11
1.0
 21
1.0
 12
10.42990654205607
 22
4.5
 13
0.0
 23
0.0
 14
0.5
 24
0.5
 15
0.5
 25
0.5
 16
0.0
 26
0.0
 36
1.0
 17
0.0
 27
0.0
 37
0.0
 40
9.0
 41
1.972972972850329
 42
50.0
 43
0.0
 44
0.0
 50
0.0
 51
0.0
 71
     0
 72
   100
 73
     1
 74
     3
 75
     0
 76
     0
 77
     0
 78
     0
  0
ENDTAB
  0
TABLE
  2
LTYPE
 70
     2
  0
LTYPE
  2
CONTINUOUS
 70
     0
  3
Solid line
 72
    65
 73
     0
 40
0.0
  0
LTYPE
  2
CONTINUOUS2
 70
     0
  3
Solid Line
 72
    65
 73
     0
 40
0.0
  0
ENDTAB
  0
TABLE
  2
LAYER
 70
     2
  0
LAYER
  2
0
 70
     0
 62
     7
  6
CONTINUOUS
  0
LAYER
  2
PLAN_1
 70
     0
 62
    18
  6
CONTINUOUS
  0
ENDTAB
  0
TABLE
  2
STYLE
 70
     1
  0
STYLE
  2
STANDARD
 70
     0
 40
0.0
 41
1.0
 50
0.0
 71
     0
 42
0.2
  3
txt
  4

  0
ENDTAB
  0
TABLE
  2
VIEW
 70
     0
  0
ENDTAB
  0
TABLE
  2
UCS
 70
     0
  0
ENDTAB
  0
TABLE
  2
APPID
 70
     1
  0
APPID
  2
ACAD
 70
     0
  0
ENDTAB
  0
TABLE
  2
DIMSTYLE
 70
     1
  0
DIMSTYLE
  2
STANDARD
 70
     0
  3

  4

  5

  6

  7

 40
1.0
 41
0.18
 42
0.0625
 43
0.38
 44
0.18
 45
0.0
 46
0.0
 47
0.0
 48
0.0
140
0.18
141
0.09
142
0.0
143
25.4
144
1.0
145
0.0
146
1.0
147
0.09
 71
     0
 72
     0
 73
     1
 74
     1
 75
     0
 76
     0
 77
     0
 78
     0
170
     0
171
     2
172
     0
173
     0
174
     0
175
     0
176
     0
177
     0
178
     0
  0
ENDTAB
  0
ENDSEC
  0
SECTION
  2
BLOCKS
  0
BLOCK
  8
0
  2
$MODEL_SPACE
 70
     0
 10
0.0
 20
0.0
 30
0.0
  3
$MODEL_SPACE
  1

  0
ENDBLK
  5
21
  8
0
  0
BLOCK
 67
     1
  8
0
  2
$PAPER_SPACE
 70
     0
 10
0.0
 20
0.0
 30
0.0
  3
$PAPER_SPACE
  1

  0
ENDBLK
  5
1D
 67
     1
  8
0
  0
ENDSEC
  0
SECTION
  2
ENTITIES
  0
POLYLINE
  5
41
  8
PLAN_1
 66
     1
 10
0.0
 20
0.0
 30
0.0
 70
     1
  0
VERTEX
  5
96
  8
PLAN_1
 10
-350.0000000000001
 20
349.9999999999999
 30
0.0
  0
VERTEX
  5
97
  8
PLAN_1
 10
349.9999999999999
 20
349.9999999999999
 30
0.0
  0
VERTEX
  5
98
  8
PLAN_1
 10
349.9999999999999
 20
-349.9999999999999
 30
0.0
  0
VERTEX
  5
99
  8
PLAN_1
 10
-350.0000000000001
 20
-349.9999999999999
 30
0.0
  0
SEQEND
  5
9A
  8
PLAN_1
  0
POLYLINE
  5
42
  8
PLAN_1
 66
     1
 10
0.0
 20
0.0
 30
0.0
 70
     1
  0
VERTEX
  5
9B
  8
PLAN_1
 10
267.3824424657049
 20
289.7080901918883
 30
0.0
  0
VERTEX
  5
9C
  8
PLAN_1
 10
233.1496797913593
 20
324.9999999999999
 30
0.0
  0
VERTEX
  5
9D
  8
PLAN_1
 10
279.9129524618162
 20
324.9999999999999
 30
0.0
  0
SEQEND
  5
9E
  8
PLAN_1
  0
POLYLINE
  5
43
  8
PLAN_1
 66
     1
 10
0.0
 20
0.0
 30
0.0
 70
     1
  0
VERTEX
  5
9F
  8
PLAN_1
 10
-208.9434589109885
 20
287.4802670945588
 30
0.0
  0
VERTEX
  5
A0
  8
PLAN_1
 10
-275.8601383004683
 20
324.9999999999999
 30
0.0
  0
VERTEX
  5
A1
  8
PLAN_1
 10
-215.0574530998194
 20
324.9999999999999
 30
0.0
  0
SEQEND
  5
A2
  8
PLAN_1
  0
POLYLINE
  5
44
  8
PLAN_1
 66
     1
 10
0.0
 20
0.0
 30
0.0
 70
     1
  0
VERTEX
  5
A3
  8
PLAN_1
 10
10.76397010418264
 20
275.8249216058953
 30
0.0
  0
VERTEX
  5
A4
  8
PLAN_1
 10
-42.31011811574297
 20
324.9999999999999
 30
0.0
  0
VERTEX
  5
A5
  8
PLAN_1
 10
138.1388498949513
 20
324.9999999999999
 30
0.0
  0
SEQEND
  5
A6
  8
PLAN_1
  0
POLYLINE
  5
45
  8
PLAN_1
 66
     1
 10
0.0
 20
0.0
 30
0.0
 70
     1
  0
VERTEX
  5
A7
  8
PLAN_1
 10
270.0550419206917
 20
265.7486709015635
 30
0.0
  0
VERTEX
  5
A8
  8
PLAN_1
 10
270.0539032316412
 20
265.7582486875713
 30
0.0
  0
VERTEX
  5
A9
  8
PLAN_1
 10
270.0525909023744
 20
265.788049093622
 30
0.0
  0
VERTEX
  5
AA
  8
PLAN_1
 10
270.053935532943
 20
265.8144142684758
 30
0.0
  0
VERTEX
  5
AB
  8
PLAN_1
 10
270.0579584639824
 20
265.8373157138797
 30
0.0
  0
VERTEX
  5
AC
  8
PLAN_1
 10
270.0646810361291
 20
265.8567249315801
 30
0.0
  0
VERTEX
  5
AD
  8
PLAN_1
 10
270.0741245900213
 20
265.8726134233237
 30
0.0
  0
VERTEX
  5
AE
  8
PLAN_1
 10
270.0863104662944
 20
265.8849526908567
 30
0.0
  0
VERTEX
  5
AF
  8
PLAN_1
 10
270.1012600055847
 20
265.8937142359255
 30
0.0
  0
VERTEX
  5
B0
  8
PLAN_1
 10
270.118994549265
 20
265.8988695604057
 30
0.0
  0
SEQEND
  5
B1
  8
PLAN_1
  0
POLYLINE
  5
46
  8
PLAN_1
 66
     1
 10
0.0
 20
0.0
 30
0.0
 70
     1
  0
VERTEX
  5
B2
  8
PLAN_1
 10
-22.02121266635054
 20
266.1551011187643
 30
0.0
  0
VERTEX
  5
B3
  8
PLAN_1
 10
-66.33932458230467
 20
249.0664518575473
 30
0.0
  0
VERTEX
  5
B4
  8
PLAN_1
 10
-120.395988917087
 20
324.9999999999999
 30
0.0
  0
VERTEX
  5
B5
  8
PLAN_1
 10
-76.31671929655441
 20
324.9999999999999
 30
0.0
  0
SEQEND
  5
B6
  8
PLAN_1
  0
POLYLINE
  5
47
  8
PLAN_1
 66
     1
 10
0.0
 20
0.0
 30
0.0
 70
     1
  0
VERTEX
  5
B7
  8
PLAN_1
 10
324.9999999999999
 20
236.7554517598225
 30
0.0
  0
VERTEX
  5
B8
  8
PLAN_1
 10
296.8022124373674
 20
265.6392718072938
 30
0.0
  0
VERTEX
  5
B9
  8
PLAN_1
 10
296.8022124373674
 20
295.8304344058637
 30
0.0
  0
VERTEX
  5
BA
  8
PLAN_1
 10
307.7058973066508
 20
324.9999999999999
 30
0.0
  0
VERTEX
  5
BB
  8
PLAN_1
 10
324.9999999999999
 20
324.9999999999999
 30
0.0
  0
SEQEND
  5
BC
  8
PLAN_1
  0
POLYLINE
  5
48
  8
PLAN_1
 66
     1
 10
0.0
 20
0.0
 30
0.0
 70
     1
  0
VERTEX
  5
BD
  8
PLAN_1
 10
270.0578511801064
 20
265.7250415485776
 30
0.0
  0
VERTEX
  5
BE
  8
PLAN_1
 10
270.0644134071333
 20
265.6884561748949
 30
0.0
  0
VERTEX
  5
BF
  8
PLAN_1
 10
270.0852953343241
 20
265.6052647164747
 30
0.0
  0
VERTEX
  5
C0
  8
PLAN_1
 10
270.116378288123
 20
265.5089022983402
 30
0.0
  0
VERTEX
  5
C1
  8
PLAN_1
 10
270.1574915434352
 20
265.3995969065169
 30
0.0
  0
VERTEX
  5
C2
  8
PLAN_1
 10
270.20846437517
 20
265.2775765270342
 30
0.0
  0
VERTEX
  5
C3
  8
PLAN_1
 10
270.2691260582325
 20
265.1430691459211
 30
0.0
  0
VERTEX
  5
C4
  8
PLAN_1
 10
270.3393058675319
 20
264.9963027492044
 30
0.0
  0
VERTEX
  5
C5
  8
PLAN_1
 10
270.4188330779727
 20
264.8375053229129
 30
0.0
  0
VERTEX
  5
C6
  8
PLAN_1
 10
270.5075369644649
 20
264.6669048530753
 30
0.0
  0
VERTEX
  5
C7
  8
PLAN_1
 10
270.6052468019147
 20
264.4847293257179
 30
0.0
  0
VERTEX
  5
C8
  8
PLAN_1
 10
270.7117918652274
 20
264.2912067268698
 30
0.0
  0
VERTEX
  5
C9
  8
PLAN_1
 10
270.8270014293132
 20
264.0865650425596
 30
0.0
  0
VERTEX
  5
CA
  8
PLAN_1
 10
270.9507047690774
 20
263.8710322588153
 30
0.0
  0
VERTEX
  5
CB
  8
PLAN_1
 10
271.0827311594271
 20
263.644836361664
 30
0.0
  0
VERTEX
  5
CC
  8
PLAN_1
 10
271.371070191516
 20
263.1613671712565
 30
0.0
  0
VERTEX
  5
CD
  8
PLAN_1
 10
271.6906527248337
 20
262.6379813595604
 30
0.0
  0
VERTEX
  5
CE
  8
PLAN_1
 10
272.0401129586402
 20
262.076502814802
 30
0.0
  0
VERTEX
  5
CF
  8
PLAN_1
 10
272.4180850921921
 20
261.4787554252058
 30
0.0
  0
VERTEX
  5
D0
  8
PLAN_1
 10
272.8232033247463
 20
260.8465630789961
 30
0.0
  0
VERTEX
  5
D1
  8
PLAN_1
 10
273.2541018555614
 20
260.1817496643994
 30
0.0
  0
VERTEX
  5
D2
  8
PLAN_1
 10
273.7094148838944
 20
259.4861390696392
 30
0.0
  0
VERTEX
  5
D3
  8
PLAN_1
 10
274.1877766090039
 20
258.7615551829416
 30
0.0
  0
VERTEX
  5
D4
  8
PLAN_1
 10
274.687821230144
 20
258.0098218925301
 30
0.0
  0
VERTEX
  5
D5
  8
PLAN_1
 10
275.2081829465761
 20
257.2327630866303
 30
0.0
  0
VERTEX
  5
D6
  8
PLAN_1
 10
275.7474959575552
 20
256.4322026534678
 30
0.0
  0
VERTEX
  5
D7
  8
PLAN_1
 10
276.30439446234
 20
255.6099644812671
 30
0.0
  0
VERTEX
  5
D8
  8
PLAN_1
 10
276.8775126601874
 20
254.767872458253
 30
0.0
  0
VERTEX
  5
D9
  8
PLAN_1
 10
277.4654847503551
 20
253.9077504726498
 30
0.0
  0
VERTEX
  5
DA
  8
PLAN_1
 10
278.0669449320999
 20
253.0314224126838
 30
0.0
  0
VERTEX
  5
DB
  8
PLAN_1
 10
278.6805274046797
 20
252.1407121665783
 30
0.0
  0
VERTEX
  5
DC
  8
PLAN_1
 10
279.304866367353
 20
251.2374436225603
 30
0.0
  0
VERTEX
  5
DD
  8
PLAN_1
 10
280.580350560006
 20
249.4005271936814
 30
0.0
  0
VERTEX
  5
DE
  8
PLAN_1
 10
281.8824711041191
 20
247.5352642318485
 30
0.0
  0
VERTEX
  5
DF
  8
PLAN_1
 10
283.2003015937518
 20
245.6562458428585
 30
0.0
  0
VERTEX
  5
E0
  8
PLAN_1
 10
284.5229156229641
 20
243.7780631325132
 30
0.0
  0
VERTEX
  5
E1
  8
PLAN_1
 10
285.8393867858155
 20
241.9153072066112
 30
0.0
  0
VERTEX
  5
E2
  8
PLAN_1
 10
287.1387886763663
 20
240.0825691709516
 30
0.0
  0
VERTEX
  5
E3
  8
PLAN_1
 10
288.4101948886756
 20
238.2944401313339
 30
0.0
  0
VERTEX
  5
E4
  8
PLAN_1
 10
289.642679016803
 20
236.565511193558
 30
0.0
  0
VERTEX
  5
E5
  8
PLAN_1
 10
290.8253146548095
 20
234.9103734634227
 30
0.0
  0
VERTEX
  5
E6
  8
PLAN_1
 10
291.9471753967536
 20
233.3436180467285
 30
0.0
  0
VERTEX
  5
E7
  8
PLAN_1
 10
292.9973348366955
 20
231.8798360492746
 30
0.0
  0
VERTEX
  5
E8
  8
PLAN_1
 10
294.8388441868119
 20
229.3195567352854
 30
0.0
  0
VERTEX
  5
E9
  8
PLAN_1
 10
296.262431457636
 20
227.3462643678501
 30
0.0
  0
VERTEX
  5
EA
  8
PLAN_1
 10
297.5061947713231
 20
225.6275558582269
 30
0.0
  0
VERTEX
  5
EB
  8
PLAN_1
 10
252.0528174547949
 20
223.4687829395727
 30
0.0
  0
VERTEX
  5
EC
  8
PLAN_1
 10
270.0550419206917
 20
265.7486709015635
 30
0.0
  0
SEQEND
  5
ED
  8
PLAN_1
  0
POLYLINE
  5
49
  8
PLAN_1
 66
     1
 10
0.0
 20
0.0
 30
0.0
 70
     1
  0
VERTEX
  5
EE
  8
PLAN_1
 10
253.2730079793117
 20
267.9527294013891
 30
0.0
  0
VERTEX
  5
EF
  8
PLAN_1
 10
226.1782233103811
 20
218.1724758294737
 30
0.0
  0
VERTEX
  5
F0
  8
PLAN_1
 10
178.3777545533306
 20
215.3705192214858
 30
0.0
  0
VERTEX
  5
F1
  8
PLAN_1
 10
170.4890213818802
 20
232.5062952128371
 30
0.0
  0
VERTEX
  5
F2
  8
PLAN_1
 10
246.7563063328773
 20
275.47008403782
 30
0.0
  0
SEQEND
  5
F3
  8
PLAN_1
  0
POLYLINE
  5
4A
  8
PLAN_1
 66
     1
 10
0.0
 20
0.0
 30
0.0
 70
     1
  0
VERTEX
  5
F4
  8
PLAN_1
 10
150.2634416376619
 20
211.2502163822395
 30
0.0
  0
VERTEX
  5
F5
  8
PLAN_1
 10
123.9764271928516
 20
210.9709824914436
 30
0.0
  0
VERTEX
  5
F6
  8
PLAN_1
 10
130.6715996273932
 20
239.3260460072791
 30
0.0
  0
SEQEND
  5
F7
  8
PLAN_1
  0
POLYLINE
  5
4B
  8
PLAN_1
 66
     1
 10
0.0
 20
0.0
 30
0.0
 70
     1
  0
VERTEX
  5
F8
  8
PLAN_1
 10
-204.0725122795048
 20
265.8861261079974
 30
0.0
  0
VERTEX
  5
F9
  8
PLAN_1
 10
-163.5307090909395
 20
211.8566123689683
 30
0.0
  0
VERTEX
  5
FA
  8
PLAN_1
 10
-174.4808436147543
 20
209.5073288422708
 30
0.0
  0
VERTEX
  5
FB
  8
PLAN_1
 10
-325.0000000000001
 20
302.9138936041215
 30
0.0
  0
VERTEX
  5
FC
  8
PLAN_1
 10
-325.0000000000001
 20
324.9999999999999
 30
0.0
  0
VERTEX
  5
FD
  8
PLAN_1
 10
-315.8956663015634
 20
324.9999999999999
 30
0.0
  0
SEQEND
  5
FE
  8
PLAN_1
  0
POLYLINE
  5
4C
  8
PLAN_1
 66
     1
 10
0.0
 20
0.0
 30
0.0
 70
     1
  0
VERTEX
  5
FF
  8
PLAN_1
 10
-11.70857135935368
 20
191.7827893142411
 30
0.0
  0
VERTEX
  5
100
  8
PLAN_1
 10
-46.45760907876578
 20
188.6782570265664
 30
0.0
  0
VERTEX
  5
101
  8
PLAN_1
 10
-80.51488867182466
 20
222.7355366196253
 30
0.0
  0
VERTEX
  5
102
  8
PLAN_1
 10
-7.554665899979125
 20
248.8844368845286
 30
0.0
  0
SEQEND
  5
103
  8
PLAN_1
  0
POLYLINE
  5
4D
  8
PLAN_1
 66
     1
 10
0.0
 20
0.0
 30
0.0
 70
     1
  0
VERTEX
  5
104
  8
PLAN_1
 10
-72.1497003613896
 20
186.3828862146077
 30
0.0
  0
VERTEX
  5
105
  8
PLAN_1
 10
-129.7989619719187
 20
181.2324128266638
 30
0.0
  0
VERTEX
  5
106
  8
PLAN_1
 10
-155.037940640949
 20
196.0265193038392
 30
0.0
  0
VERTEX
  5
107
  8
PLAN_1
 10
-92.97405478516711
 20
218.2701789260169
 30
0.0
  0
SEQEND
  5
108
  8
PLAN_1
  0
POLYLINE
  5
4E
  8
PLAN_1
 66
     1
 10
0.0
 20
0.0
 30
0.0
 70
     1
  0
VERTEX
  5
109
  8
PLAN_1
 10
-269.6923204850825
 20
240.6377399960184
 30
0.0
  0
VERTEX
  5
10A
  8
PLAN_1
 10
-270.3186326051795
 20
220.3141773305794
 30
0.0
  0
VERTEX
  5
10B
  8
PLAN_1
 10
-325.0000000000001
 20
161.5650401086118
 30
0.0
  0
VERTEX
  5
10C
  8
PLAN_1
 10
-325.0000000000001
 20
276.7795584070337
 30
0.0
  0
SEQEND
  5
10D
  8
PLAN_1
  0
POLYLINE
  5
4F
  8
PLAN_1
 66
     1
 10
0.0
 20
0.0
 30
0.0
 70
     1
  0
VERTEX
  5
10E
  8
PLAN_1
 10
-205.8914462657942
 20
202.0768540960877
 30
0.0
  0
VERTEX
  5
10F
  8
PLAN_1
 10
-237.3112669202369
 20
123.9134853832567
 30
0.0
  0
VERTEX
  5
110
  8
PLAN_1
 10
-252.9859695955722
 20
234.4439411783611
 30
0.0
  0
SEQEND
  5
111
  8
PLAN_1
  0
POLYLINE
  5
50
  8
PLAN_1
 66
     1
 10
0.0
 20
0.0
 30
0.0
 70
     1
  0
VERTEX
  5
112
  8
PLAN_1
 10
163.8492201302066
 20
118.9934661120834
 30
0.0
  0
VERTEX
  5
113
  8
PLAN_1
 10
147.6929793200881
 20
102.640225595122
 30
0.0
  0
VERTEX
  5
114
  8
PLAN_1
 10
85.85996715370692
 20
160.7029321416018
 30
0.0
  0
VERTEX
  5
115
  8
PLAN_1
 10
92.9258643909664
 20
181.5232856165392
 30
0.0
  0
VERTEX
  5
116
  8
PLAN_1
 10
164.9051431802441
 20
186.421184741422
 30
0.0
  0
SEQEND
  5
117
  8
PLAN_1
  0
POLYLINE
  5
51
  8
PLAN_1
 66
     1
 10
0.0
 20
0.0
 30
0.0
 70
     1
  0
VERTEX
  5
118
  8
PLAN_1
 10
324.9999999999999
 20
95.54950627356217
 30
0.0
  0
VERTEX
  5
119
  8
PLAN_1
 10
317.31380497403
 20
93.1436647410433
 30
0.0
  0
VERTEX
  5
11A
  8
PLAN_1
 10
280.3303987857147
 20
184.3054962758646
 30
0.0
  0
VERTEX
  5
11B
  8
PLAN_1
 10
284.3311955134018
 20
199.3327457125534
 30
0.0
  0
VERTEX
  5
11C
  8
PLAN_1
 10
324.9999999999999
 20
204.7883369623084
 30
0.0
  0
SEQEND
  5
11D
  8
PLAN_1
  0
POLYLINE
  5
52
  8
PLAN_1
 66
     1
 10
0.0
 20
0.0
 30
0.0
 70
     1
  0
VERTEX
  5
11E
  8
PLAN_1
 10
-148.5415527427536
 20
169.1249307046471
 30
0.0
  0
VERTEX
  5
11F
  8
PLAN_1
 10
-124.2351287513172
 20
114.9741537977724
 30
0.0
  0
VERTEX
  5
120
  8
PLAN_1
 10
-146.7051216203753
 20
75.72496116587946
 30
0.0
  0
VERTEX
  5
121
  8
PLAN_1
 10
-184.2049836859825
 20
184.2042019876358
 30
0.0
  0
SEQEND
  5
122
  8
PLAN_1
  0
POLYLINE
  5
53
  8
PLAN_1
 66
     1
 10
0.0
 20
0.0
 30
0.0
 70
     1
  0
VERTEX
  5
123
  8
PLAN_1
 10
253.6907625349341
 20
164.8095086659786
 30
0.0
  0
VERTEX
  5
124
  8
PLAN_1
 10
228.7250122971761
 20
73.9659467070383
 30
0.0
  0
VERTEX
  5
125
  8
PLAN_1
 10
195.6491522747529
 20
118.3359488190529
 30
0.0
  0
VERTEX
  5
126
  8
PLAN_1
 10
198.9006082820019
 20
192.6304209457988
 30
0.0
  0
VERTEX
  5
127
  8
PLAN_1
 10
244.8056805860446
 20
193.547527937394
 30
0.0
  0
SEQEND
  5
128
  8
PLAN_1
  0
POLYLINE
  5
54
  8
PLAN_1
 66
     1
 10
0.0
 20
0.0
 30
0.0
 70
     1
  0
VERTEX
  5
129
  8
PLAN_1
 10
36.29036256896786
 20
90.94321590116932
 30
0.0
  0
VERTEX
  5
12A
  8
PLAN_1
 10
18.30176110040027
 20
72.71792023121986
 30
0.0
  0
VERTEX
  5
12B
  8
PLAN_1
 10
-3.860044403214658
 20
150.383673618717
 30
0.0
  0
VERTEX
  5
12C
  8
PLAN_1
 10
5.186296390344282
 20
169.0124867684119
 30
0.0
  0
VERTEX
  5
12D
  8
PLAN_1
 10
64.50527449968973
 20
184.2038735375377
 30
0.0
  0
SEQEND
  5
12E
  8
PLAN_1
  0
POLYLINE
  5
55
  8
PLAN_1
 66
     1
 10
0.0
 20
0.0
 30
0.0
 70
     1
  0
VERTEX
  5
12F
  8
PLAN_1
 10
292.6614511680303
 20
84.78146839669809
 30
0.0
  0
VERTEX
  5
130
  8
PLAN_1
 10
254.2007829514371
 20
71.23806366058784
 30
0.0
  0
VERTEX
  5
131
  8
PLAN_1
 10
269.825469423124
 20
134.4402183582666
 30
0.0
  0
SEQEND
  5
132
  8
PLAN_1
  0
POLYLINE
  5
56
  8
PLAN_1
 66
     1
 10
0.0
 20
0.0
 30
0.0
 70
     1
  0
VERTEX
  5
133
  8
PLAN_1
 10
130.1017000632215
 20
80.38150457237249
 30
0.0
  0
VERTEX
  5
134
  8
PLAN_1
 10
78.69439430218361
 20
28.34736833241728
 30
0.0
  0
VERTEX
  5
135
  8
PLAN_1
 10
56.81316432023348
 20
84.85186096759902
 30
0.0
  0
VERTEX
  5
136
  8
PLAN_1
 10
73.37405776281688
 20
133.650144293483
 30
0.0
  0
SEQEND
  5
137
  8
PLAN_1
  0
POLYLINE
  5
57
  8
PLAN_1
 66
     1
 10
0.0
 20
0.0
 30
0.0
 70
     1
  0
VERTEX
  5
138
  8
PLAN_1
 10
-159.274125315883
 20
57.26915584576463
 30
0.0
  0
VERTEX
  5
139
  8
PLAN_1
 10
-161.1993223969556
 20
43.87634826258408
 30
0.0
  0
VERTEX
  5
13A
  8
PLAN_1
 10
-201.1241168207098
 20
26.91577470673234
 30
0.0
  0
VERTEX
  5
13B
  8
PLAN_1
 10
-226.8506254474931
 20
95.36967450438298
 30
0.0
  0
VERTEX
  5
13C
  8
PLAN_1
 10
-199.8030403700606
 20
158.0584043155984
 30
0.0
  0
SEQEND
  5
13D
  8
PLAN_1
  0
POLYLINE
  5
58
  8
PLAN_1
 66
     1
 10
0.0
 20
0.0
 30
0.0
 70
     1
  0
VERTEX
  5
13E
  8
PLAN_1
 10
206.1250543705507
 20
54.30906821982612
 30
0.0
  0
VERTEX
  5
13F
  8
PLAN_1
 10
111.1753517264876
 20
19.32211965008418
 30
0.0
  0
VERTEX
  5
140
  8
PLAN_1
 10
178.4814570916131
 20
91.55313069100278
 30
0.0
  0
SEQEND
  5
141
  8
PLAN_1
  0
POLYLINE
  5
59
  8
PLAN_1
 66
     1
 10
0.0
 20
0.0
 30
0.0
 70
     1
  0
VERTEX
  5
142
  8
PLAN_1
 10
-264.7476602107783
 20
113.8869986362547
 30
0.0
  0
VERTEX
  5
143
  8
PLAN_1
 10
-319.0453171058454
 20
18.6924883993304
 30
0.0
  0
VERTEX
  5
144
  8
PLAN_1
 10
-325.0000000000001
 20
22.75449123391039
 30
0.0
  0
VERTEX
  5
145
  8
PLAN_1
 10
-325.0000000000001
 20
121.433719314243
 30
0.0
  0
VERTEX
  5
146
  8
PLAN_1
 10
-267.950978197736
 20
180.2963100849811
 30
0.0
  0
SEQEND
  5
147
  8
PLAN_1
  0
POLYLINE
  5
5A
  8
PLAN_1
 66
     1
 10
0.0
 20
0.0
 30
0.0
 70
     1
  0
VERTEX
  5
148
  8
PLAN_1
 10
63.09953779371715
 20
14.80765140471409
 30
0.0
  0
VERTEX
  5
149
  8
PLAN_1
 10
37.85970560585348
 20
4.650157963256803
 30
0.0
  0
VERTEX
  5
14A
  8
PLAN_1
 10
49.87861641310455
 20
50.92315692517339
 30
0.0
  0
SEQEND
  5
14B
  8
PLAN_1
  0
POLYLINE
  5
5B
  8
PLAN_1
 66
     1
 10
0.0
 20
0.0
 30
0.0
 70
     1
  0
VERTEX
  5
14C
  8
PLAN_1
 10
2.763534480326926
 20
52.52014942604281
 30
0.0
  0
VERTEX
  5
14D
  8
PLAN_1
 10
-52.28238150417879
 20
-3.25006128176549
 30
0.0
  0
VERTEX
  5
14E
  8
PLAN_1
 10
-65.5033028847914
 20
30.60817004225882
 30
0.0
  0
VERTEX
  5
14F
  8
PLAN_1
 10
-18.56515451373431
 20
127.2662570579907
 30
0.0
  0
SEQEND
  5
150
  8
PLAN_1
  0
POLYLINE
  5
5C
  8
PLAN_1
 66
     1
 10
0.0
 20
0.0
 30
0.0
 70
     1
  0
VERTEX
  5
151
  8
PLAN_1
 10
324.9999999999999
 20
51.36541975808361
 30
0.0
  0
VERTEX
  5
152
  8
PLAN_1
 10
263.7750797683491
 20
-9.85950047356716
 30
0.0
  0
VERTEX
  5
153
  8
PLAN_1
 10
244.3997203015681
 20
21.97994364742366
 30
0.0
  0
VERTEX
  5
154
  8
PLAN_1
 10
251.8690702759083
 20
45.02575315382784
 30
0.0
  0
VERTEX
  5
155
  8
PLAN_1
 10
324.9999999999999
 20
67.57471809487082
 30
0.0
  0
SEQEND
  5
156
  8
PLAN_1
  0
POLYLINE
  5
5D
  8
PLAN_1
 66
     1
 10
0.0
 20
0.0
 30
0.0
 70
     1
  0
VERTEX
  5
157
  8
PLAN_1
 10
18.62941417349892
 20
-3.25006128176549
 30
0.0
  0
VERTEX
  5
158
  8
PLAN_1
 10
-23.43694435564647
 20
-11.15036067428792
 30
0.0
  0
VERTEX
  5
159
  8
PLAN_1
 10
30.6483249807495
 20
48.66596287623854
 30
0.0
  0
SEQEND
  5
15A
  8
PLAN_1
  0
POLYLINE
  5
5E
  8
PLAN_1
 66
     1
 10
0.0
 20
0.0
 30
0.0
 70
     1
  0
VERTEX
  5
15B
  8
PLAN_1
 10
-73.50946883113957
 20
3.619410754458148
 30
0.0
  0
VERTEX
  5
15C
  8
PLAN_1
 10
-120.1040403299788
 20
-21.64164908234104
 30
0.0
  0
VERTEX
  5
15D
  8
PLAN_1
 10
-123.1916166253554
 20
66.25240826137438
 30
0.0
  0
VERTEX
  5
15E
  8
PLAN_1
 10
-111.8072117190042
 20
86.94561119786769
 30
0.0
  0
SEQEND
  5
15F
  8
PLAN_1
  0
POLYLINE
  5
5F
  8
PLAN_1
 66
     1
 10
0.0
 20
0.0
 30
0.0
 70
     1
  0
VERTEX
  5
160
  8
PLAN_1
 10
313.9841380099634
 20
-23.14787898827284
 30
0.0
  0
VERTEX
  5
161
  8
PLAN_1
 10
285.9682893374752
 20
-21.02630114820422
 30
0.0
  0
VERTEX
  5
162
  8
PLAN_1
 10
297.2650025118658
 20
3.15968622857628
 30
0.0
  0
VERTEX
  5
163
  8
PLAN_1
 10
313.9841380099634
 20
3.15968622857628
 30
0.0
  0
SEQEND
  5
164
  8
PLAN_1
  0
POLYLINE
  5
60
  8
PLAN_1
 66
     1
 10
0.0
 20
0.0
 30
0.0
 70
     1
  0
VERTEX
  5
165
  8
PLAN_1
 10
152.0908543823964
 20
-13.44474026993453
 30
0.0
  0
VERTEX
  5
166
  8
PLAN_1
 10
114.2996481958847
 20
-51.23594645644626
 30
0.0
  0
VERTEX
  5
167
  8
PLAN_1
 10
112.3772769479665
 20
3.521601012539211
 30
0.0
  0
VERTEX
  5
168
  8
PLAN_1
 10
152.0908543823964
 20
14.53970197867325
 30
0.0
  0
SEQEND
  5
169
  8
PLAN_1
  0
POLYLINE
  5
61
  8
PLAN_1
 66
     1
 10
0.0
 20
0.0
 30
0.0
 70
     1
  0
VERTEX
  5
16A
  8
PLAN_1
 10
250.5951779907685
 20
-39.3655668022248
 30
0.0
  0
VERTEX
  5
16B
  8
PLAN_1
 10
228.9610361154571
 20
-51.78025429261717
 30
0.0
  0
VERTEX
  5
16C
  8
PLAN_1
 10
232.5667264280088
 20
-19.05066006681036
 30
0.0
  0
SEQEND
  5
16D
  8
PLAN_1
  0
POLYLINE
  5
62
  8
PLAN_1
 66
     1
 10
0.0
 20
0.0
 30
0.0
 70
     1
  0
VERTEX
  5
16E
  8
PLAN_1
 10
152.0908543823964
 20
-85.89424553064461
 30
0.0
  0
VERTEX
  5
16F
  8
PLAN_1
 10
115.9828819086347
 20
-99.18181020525113
 30
0.0
  0
VERTEX
  5
170
  8
PLAN_1
 10
114.7687519335075
 20
-64.59807419768075
 30
0.0
  0
VERTEX
  5
171
  8
PLAN_1
 10
152.0908543823964
 20
-54.59764698666934
 30
0.0
  0
SEQEND
  5
172
  8
PLAN_1
  0
POLYLINE
  5
63
  8
PLAN_1
 66
     1
 10
0.0
 20
0.0
 30
0.0
 70
     1
  0
VERTEX
  5
173
  8
PLAN_1
 10
-184.4909124952391
 20
-68.70941002837964
 30
0.0
  0
VERTEX
  5
174
  8
PLAN_1
 10
-255.4027081729168
 20
-24.69360511539766
 30
0.0
  0
VERTEX
  5
175
  8
PLAN_1
 10
-249.3932527692913
 20
19.32211965008418
 30
0.0
  0
VERTEX
  5
176
  8
PLAN_1
 10
-222.9515807118322
 20
44.15149463086846
 30
0.0
  0
SEQEND
  5
177
  8
PLAN_1
  0
POLYLINE
  5
64
  8
PLAN_1
 66
     1
 10
0.0
 20
0.0
 30
0.0
 70
     1
  0
VERTEX
  5
178
  8
PLAN_1
 10
-66.79600194431424
 20
-18.48130804704534
 30
0.0
  0
VERTEX
  5
179
  8
PLAN_1
 10
-62.52975354030043
 20
-44.10343259475169
 30
0.0
  0
VERTEX
  5
17A
  8
PLAN_1
 10
-115.2994478587535
 20
-69.26960166877384
 30
0.0
  0
VERTEX
  5
17B
  8
PLAN_1
 10
-116.4178904675954
 20
-37.43088761192741
 30
0.0
  0
VERTEX
  5
17C
  8
PLAN_1
 10
-69.72206562323736
 20
-12.11493368044028
 30
0.0
  0
SEQEND
  5
17D
  8
PLAN_1
  0
POLYLINE
  5
65
  8
PLAN_1
 66
     1
 10
0.0
 20
0.0
 30
0.0
 70
     1
  0
VERTEX
  5
17E
  8
PLAN_1
 10
202.0701068014171
 20
-64.16736765100933
 30
0.0
  0
VERTEX
  5
17F
  8
PLAN_1
 10
177.6678113342566
 20
-73.14729803797263
 30
0.0
  0
VERTEX
  5
180
  8
PLAN_1
 10
168.474397719044
 20
15.83735644773776
 30
0.0
  0
VERTEX
  5
181
  8
PLAN_1
 10
214.4168864680873
 20
28.5836012429389
 30
0.0
  0
SEQEND
  5
182
  8
PLAN_1
  0
POLYLINE
  5
66
  8
PLAN_1
 66
     1
 10
0.0
 20
0.0
 30
0.0
 70
     1
  0
VERTEX
  5
183
  8
PLAN_1
 10
30.52813922404127
 20
-70.3774224533352
 30
0.0
  0
VERTEX
  5
184
  8
PLAN_1
 10
-26.78662419800277
 20
-84.79843747949913
 30
0.0
  0
VERTEX
  5
185
  8
PLAN_1
 10
-35.10417195848656
 20
-38.96374985315407
 30
0.0
  0
VERTEX
  5
186
  8
PLAN_1
 10
53.0122749520644
 20
-12.91486843324713
 30
0.0
  0
SEQEND
  5
187
  8
PLAN_1
  0
POLYLINE
  5
67
  8
PLAN_1
 66
     1
 10
0.0
 20
0.0
 30
0.0
 70
     1
  0
VERTEX
  5
188
  8
PLAN_1
 10
-140.0208742269039
 20
-102.5676413524037
 30
0.0
  0
VERTEX
  5
189
  8
PLAN_1
 10
-152.039785034155
 20
-90.15295386201133
 30
0.0
  0
VERTEX
  5
18A
  8
PLAN_1
 10
-176.0776066486567
 20
-16.79338587037537
 30
0.0
  0
VERTEX
  5
18B
  8
PLAN_1
 10
-146.0302442786464
 20
26.09370179688873
 30
0.0
  0
SEQEND
  5
18C
  8
PLAN_1
  0
POLYLINE
  5
68
  8
PLAN_1
 66
     1
 10
0.0
 20
0.0
 30
0.0
 70
     1
  0
VERTEX
  5
18D
  8
PLAN_1
 10
-285.4501558948106
 20
-20.17921701752772
 30
0.0
  0
VERTEX
  5
18E
  8
PLAN_1
 10
-266.2198644624556
 20
-104.8248354013388
 30
0.0
  0
VERTEX
  5
18F
  8
PLAN_1
 10
-325.0000000000001
 20
-62.67514016371346
 30
0.0
  0
VERTEX
  5
190
  8
PLAN_1
 10
-325.0000000000001
 20
-3.115716157276
 30
0.0
  0
SEQEND
  5
191
  8
PLAN_1
  0
POLYLINE
  5
69
  8
PLAN_1
 66
     1
 10
0.0
 20
0.0
 30
0.0
 70
     1
  0
VERTEX
  5
192
  8
PLAN_1
 10
175.5434745625883
 20
-138.4654662622422
 30
0.0
  0
VERTEX
  5
193
  8
PLAN_1
 10
111.514284055311
 20
-126.6652696561017
 30
0.0
  0
VERTEX
  5
194
  8
PLAN_1
 10
115.1046963807416
 20
-117.1127295463692
 30
0.0
  0
VERTEX
  5
195
  8
PLAN_1
 10
201.2748482467234
 20
-85.08354432505953
 30
0.0
  0
SEQEND
  5
196
  8
PLAN_1
  0
POLYLINE
  5
6A
  8
PLAN_1
 66
     1
 10
0.0
 20
0.0
 30
0.0
 70
     1
  0
VERTEX
  5
197
  8
PLAN_1
 10
324.9999999999999
 20
-106.2287588002682
 30
0.0
  0
VERTEX
  5
198
  8
PLAN_1
 10
293.8633763895092
 20
-142.0689780200154
 30
0.0
  0
VERTEX
  5
199
  8
PLAN_1
 10
319.1032085773724
 20
-35.9796555075723
 30
0.0
  0
VERTEX
  5
19A
  8
PLAN_1
 10
324.9999999999999
 20
-35.36441314875479
 30
0.0
  0
SEQEND
  5
19B
  8
PLAN_1
  0
POLYLINE
  5
6B
  8
PLAN_1
 66
     1
 10
0.0
 20
0.0
 30
0.0
 70
     1
  0
VERTEX
  5
19C
  8
PLAN_1
 10
-230.1629613369362
 20
-66.45221597944455
 30
0.0
  0
VERTEX
  5
19D
  8
PLAN_1
 10
-203.7212039275941
 20
-147.7120032161026
 30
0.0
  0
VERTEX
  5
19E
  8
PLAN_1
 10
-238.5762671835186
 20
-125.1398222842534
 30
0.0
  0
VERTEX
  5
19F
  8
PLAN_1
 10
-262.6140887980202
 20
-46.13722909652973
 30
0.0
  0
SEQEND
  5
1A0
  8
PLAN_1
  0
POLYLINE
  5
6C
  8
PLAN_1
 66
     1
 10
0.0
 20
0.0
 30
0.0
 70
     1
  0
VERTEX
  5
1A1
  8
PLAN_1
 10
264.2146275002647
 20
-148.1229421186885
 30
0.0
  0
VERTEX
  5
1A2
  8
PLAN_1
 10
231.8250510479654
 20
-72.92305333169612
 30
0.0
  0
VERTEX
  5
1A3
  8
PLAN_1
 10
291.7577146004335
 20
-52.85855005068623
 30
0.0
  0
SEQEND
  5
1A4
  8
PLAN_1
  0
POLYLINE
  5
6D
  8
PLAN_1
 66
     1
 10
0.0
 20
0.0
 30
0.0
 70
     1
  0
VERTEX
  5
1A5
  8
PLAN_1
 10
0.2112459113161479
 20
-156.4467983810044
 30
0.0
  0
VERTEX
  5
1A6
  8
PLAN_1
 10
-15.94569490500418
 20
-162.0659396220237
 30
0.0
  0
VERTEX
  5
1A7
  8
PLAN_1
 10
-27.06573286158694
 20
-100.7878465097041
 30
0.0
  0
VERTEX
  5
1A8
  8
PLAN_1
 10
27.34661845972029
 20
-87.09710979261438
 30
0.0
  0
SEQEND
  5
1A9
  8
PLAN_1
  0
POLYLINE
  5
6E
  8
PLAN_1
 66
     1
 10
0.0
 20
0.0
 30
0.0
 70
     1
  0
VERTEX
  5
1AA
  8
PLAN_1
 10
254.4508566504643
 20
-175.661335564025
 30
0.0
  0
VERTEX
  5
1AB
  8
PLAN_1
 10
206.6604667348694
 20
-203.0857508289644
 30
0.0
  0
VERTEX
  5
1AC
  8
PLAN_1
 10
189.3068071619545
 20
-146.3322639996696
 30
0.0
  0
VERTEX
  5
1AD
  8
PLAN_1
 10
212.4628238180344
 20
-100.8056821209873
 30
0.0
  0
SEQEND
  5
1AE
  8
PLAN_1
  0
POLYLINE
  5
6F
  8
PLAN_1
 66
     1
 10
0.0
 20
0.0
 30
0.0
 70
     1
  0
VERTEX
  5
1AF
  8
PLAN_1
 10
173.1498663456345
 20
-159.8182831256161
 30
0.0
  0
VERTEX
  5
1B0
  8
PLAN_1
 10
92.88859498135902
 20
-180.0128879927813
 30
0.0
  0
VERTEX
  5
1B1
  8
PLAN_1
 10
85.78291037117623
 20
-144.0846075032616
 30
0.0
  0
VERTEX
  5
1B2
  8
PLAN_1
 10
97.75103680782766
 20
-137.9035521381408
 30
0.0
  0
SEQEND
  5
1B3
  8
PLAN_1
  0
POLYLINE
  5
70
  8
PLAN_1
 66
     1
 10
0.0
 20
0.0
 30
0.0
 70
     1
  0
VERTEX
  5
1B4
  8
PLAN_1
 10
-275.0701899453121
 20
-122.8107075388604
 30
0.0
  0
VERTEX
  5
1B5
  8
PLAN_1
 10
-307.5072042828028
 20
-186.8798770469748
 30
0.0
  0
VERTEX
  5
1B6
  8
PLAN_1
 10
-325.0000000000001
 20
-181.8807016133015
 30
0.0
  0
VERTEX
  5
1B7
  8
PLAN_1
 10
-325.0000000000001
 20
-89.32124051037043
 30
0.0
  0
SEQEND
  5
1B8
  8
PLAN_1
  0
POLYLINE
  5
71
  8
PLAN_1
 66
     1
 10
0.0
 20
0.0
 30
0.0
 70
     1
  0
VERTEX
  5
1B9
  8
PLAN_1
 10
324.9999999999999
 20
-201.0204836900211
 30
0.0
  0
VERTEX
  5
1BA
  8
PLAN_1
 10
318.762178130835
 20
-208.8298402546646
 30
0.0
  0
VERTEX
  5
1BB
  8
PLAN_1
 10
289.7886075503674
 20
-175.2410878503274
 30
0.0
  0
VERTEX
  5
1BC
  8
PLAN_1
 10
324.9999999999999
 20
-131.774514608553
 30
0.0
  0
SEQEND
  5
1BD
  8
PLAN_1
  0
POLYLINE
  5
72
  8
PLAN_1
 66
     1
 10
0.0
 20
0.0
 30
0.0
 70
     1
  0
VERTEX
  5
1BE
  8
PLAN_1
 10
-189.2985280292697
 20
-182.698951785845
 30
0.0
  0
VERTEX
  5
1BF
  8
PLAN_1
 10
-188.0966881596744
 20
-212.0427148644994
 30
0.0
  0
VERTEX
  5
1C0
  8
PLAN_1
 10
-278.2387752697067
 20
-190.5990908833669
 30
0.0
  0
VERTEX
  5
1C1
  8
PLAN_1
 10
-248.1914128996959
 20
-144.3261720689505
 30
0.0
  0
SEQEND
  5
1C2
  8
PLAN_1
  0
POLYLINE
  5
73
  8
PLAN_1
 66
     1
 10
0.0
 20
0.0
 30
0.0
 70
     1
  0
VERTEX
  5
1C3
  8
PLAN_1
 10
-17.14249901348088
 20
-216.0098558308091
 30
0.0
  0
VERTEX
  5
1C4
  8
PLAN_1
 10
-40.48017912877921
 20
-197.4666095879451
 30
0.0
  0
VERTEX
  5
1C5
  8
PLAN_1
 10
20.55700110730585
 20
-167.6850808630425
 30
0.0
  0
SEQEND
  5
1C6
  8
PLAN_1
  0
POLYLINE
  5
74
  8
PLAN_1
 66
     1
 10
0.0
 20
0.0
 30
0.0
 70
     1
  0
VERTEX
  5
1C7
  8
PLAN_1
 10
299.9238124920459
 20
-223.5049386807167
 30
0.0
  0
VERTEX
  5
1C8
  8
PLAN_1
 10
248.5765940295408
 20
-241.7764200426875
 30
0.0
  0
VERTEX
  5
1C9
  8
PLAN_1
 10
234.2148593759354
 20
-231.0999715372509
 30
0.0
  0
VERTEX
  5
1CA
  8
PLAN_1
 10
238.4037591074879
 20
-208.0614123015718
 30
0.0
  0
VERTEX
  5
1CB
  8
PLAN_1
 10
277.2999779848682
 20
-186.7086755856983
 30
0.0
  0
SEQEND
  5
1CC
  8
PLAN_1
  0
POLYLINE
  5
75
  8
PLAN_1
 66
     1
 10
0.0
 20
0.0
 30
0.0
 70
     1
  0
VERTEX
  5
1CD
  8
PLAN_1
 10
-127.4778441855883
 20
-147.0988618920458
 30
0.0
  0
VERTEX
  5
1CE
  8
PLAN_1
 10
-125.1558273497662
 20
-224.5050329833553
 30
0.0
  0
VERTEX
  5
1CF
  8
PLAN_1
 10
-141.9910962107234
 20
-244.9633714266593
 30
0.0
  0
VERTEX
  5
1D0
  8
PLAN_1
 10
-152.7931914225144
 20
-226.5206984073646
 30
0.0
  0
VERTEX
  5
1D1
  8
PLAN_1
 10
-198.679176167558
 20
-96.20564275220616
 30
0.0
  0
SEQEND
  5
1D2
  8
PLAN_1
  0
POLYLINE
  5
76
  8
PLAN_1
 66
     1
 10
0.0
 20
0.0
 30
0.0
 70
     1
  0
VERTEX
  5
1D3
  8
PLAN_1
 10
-45.99580513995774
 20
-224.1600622457107
 30
0.0
  0
VERTEX
  5
1D4
  8
PLAN_1
 10
-90.34594469042952
 20
-248.2043123142569
 30
0.0
  0
VERTEX
  5
1D5
  8
PLAN_1
 10
-102.9983338296986
 20
-203.8641824230871
 30
0.0
  0
VERTEX
  5
1D6
  8
PLAN_1
 10
-102.9983338296984
 20
-183.6651182537591
 30
0.0
  0
SEQEND
  5
1D7
  8
PLAN_1
  0
POLYLINE
  5
77
  8
PLAN_1
 66
     1
 10
0.0
 20
0.0
 30
0.0
 70
     1
  0
VERTEX
  5
1D8
  8
PLAN_1
 10
182.2059769015573
 20
-211.9462023617993
 30
0.0
  0
VERTEX
  5
1D9
  8
PLAN_1
 10
131.0563352841569
 20
-251.1017278316309
 30
0.0
  0
VERTEX
  5
1DA
  8
PLAN_1
 10
104.2443608270223
 20
-221.3002783942037
 30
0.0
  0
VERTEX
  5
1DB
  8
PLAN_1
 10
99.89419660707324
 20
-199.3046609633627
 30
0.0
  0
VERTEX
  5
1DC
  8
PLAN_1
 10
173.3684426143384
 20
-174.4045313793854
 30
0.0
  0
SEQEND
  5
1DD
  8
PLAN_1
  0
POLYLINE
  5
78
  8
PLAN_1
 66
     1
 10
0.0
 20
0.0
 30
0.0
 70
     1
  0
VERTEX
  5
1DE
  8
PLAN_1
 10
70.62201514854313
 20
-232.901749392008
 30
0.0
  0
VERTEX
  5
1DF
  8
PLAN_1
 10
43.1581769988431
 20
-264.7589966165523
 30
0.0
  0
VERTEX
  5
1E0
  8
PLAN_1
 10
3.728901901171735
 20
-224.1836051903566
 30
0.0
  0
VERTEX
  5
1E1
  8
PLAN_1
 10
57.24271923057026
 20
-153.4003118374946
 30
0.0
  0
VERTEX
  5
1E2
  8
PLAN_1
 10
66.13939222865642
 20
-149.7680022307155
 30
0.0
  0
SEQEND
  5
1E3
  8
PLAN_1
  0
POLYLINE
  5
79
  8
PLAN_1
 66
     1
 10
0.0
 20
0.0
 30
0.0
 70
     1
  0
VERTEX
  5
1E4
  8
PLAN_1
 10
299.8874699749513
 20
-244.1649065630043
 30
0.0
  0
VERTEX
  5
1E5
  8
PLAN_1
 10
299.0556093072332
 20
-245.5227742381348
 30
0.0
  0
VERTEX
  5
1E6
  8
PLAN_1
 10
297.973050904009
 20
-247.2839689455335
 30
0.0
  0
VERTEX
  5
1E7
  8
PLAN_1
 10
296.6871293027307
 20
-249.3678252787836
 30
0.0
  0
VERTEX
  5
1E8
  8
PLAN_1
 10
295.2451790408473
 20
-251.6936778314732
 30
0.0
  0
VERTEX
  5
1E9
  8
PLAN_1
 10
294.4804852051337
 20
-252.9221447506014
 30
0.0
  0
VERTEX
  5
1EA
  8
PLAN_1
 10
293.6945346558119
 20
-254.1808611971842
 30
0.0
  0
VERTEX
  5
1EB
  8
PLAN_1
 10
292.8932442100647
 20
-255.4597439954181
 30
0.0
  0
VERTEX
  5
1EC
  8
PLAN_1
 10
292.0825306850743
 20
-256.7487099695027
 30
0.0
  0
VERTEX
  5
1ED
  8
PLAN_1
 10
291.2683108980196
 20
-258.0376759436368
 30
0.0
  0
VERTEX
  5
1EE
  8
PLAN_1
 10
290.456501666084
 20
-259.3165587420168
 30
0.0
  0
VERTEX
  5
1EF
  8
PLAN_1
 10
289.653019806449
 20
-260.5752751888414
 30
0.0
  0
VERTEX
  5
1F0
  8
PLAN_1
 10
288.8637821362943
 20
-261.8037421083088
 30
0.0
  0
VERTEX
  5
1F1
  8
PLAN_1
 10
288.0947054728024
 20
-262.9918763246171
 30
0.0
  0
VERTEX
  5
1F2
  8
PLAN_1
 10
287.3517066331549
 20
-264.1295946619649
 30
0.0
  0
VERTEX
  5
1F3
  8
PLAN_1
 10
286.9918354026415
 20
-264.6763968835907
 30
0.0
  0
VERTEX
  5
1F4
  8
PLAN_1
 10
286.6407024345323
 20
-265.2068139445506
 30
0.0
  0
VERTEX
  5
1F5
  8
PLAN_1
 10
286.2990473309745
 20
-265.719585447869
 30
0.0
  0
VERTEX
  5
1F6
  8
PLAN_1
 10
285.9676096941162
 20
-266.2134509965707
 30
0.0
  0
VERTEX
  5
1F7
  8
PLAN_1
 10
285.6471291261044
 20
-266.687150193682
 30
0.0
  0
VERTEX
  5
1F8
  8
PLAN_1
 10
285.3383452290881
 20
-267.139422642225
 30
0.0
  0
VERTEX
  5
1F9
  8
PLAN_1
 10
285.0419976052136
 20
-267.569007945227
 30
0.0
  0
VERTEX
  5
1FA
  8
PLAN_1
 10
284.7588258566288
 20
-267.9746457057123
 30
0.0
  0
VERTEX
  5
1FB
  8
PLAN_1
 10
284.4895695854827
 20
-268.3550755267039
 30
0.0
  0
VERTEX
  5
1FC
  8
PLAN_1
 10
284.2349683939215
 20
-268.7090370112282
 30
0.0
  0
VERTEX
  5
1FD
  8
PLAN_1
 10
283.9957618840933
 20
-269.035269762309
 30
0.0
  0
VERTEX
  5
1FE
  8
PLAN_1
 10
283.7726896581461
 20
-269.3325133829723
 30
0.0
  0
VERTEX
  5
1FF
  8
PLAN_1
 10
283.5664913182269
 20
-269.5995074762423
 30
0.0
  0
VERTEX
  5
200
  8
PLAN_1
 10
283.3779064664839
 20
-269.8349916451431
 30
0.0
  0
VERTEX
  5
201
  8
PLAN_1
 10
283.2904502243491
 20
-269.9405236339005
 30
0.0
  0
VERTEX
  5
202
  8
PLAN_1
 10
283.2076747050641
 20
-270.0377054927009
 30
0.0
  0
VERTEX
  5
203
  8
PLAN_1
 10
283.1296723588975
 20
-270.1263796719205
 30
0.0
  0
VERTEX
  5
204
  8
PLAN_1
 10
283.0565356361166
 20
-270.2063886219389
 30
0.0
  0
VERTEX
  5
205
  8
PLAN_1
 10
282.9883569869908
 20
-270.2775747931341
 30
0.0
  0
VERTEX
  5
206
  8
PLAN_1
 10
282.9252288617875
 20
-270.3397806358826
 30
0.0
  0
VERTEX
  5
207
  8
PLAN_1
 10
282.867243710776
 20
-270.3928486005646
 30
0.0
  0
VERTEX
  5
208
  8
PLAN_1
 10
282.8144939842248
 20
-270.4366211375567
 30
0.0
  0
VERTEX
  5
209
  8
PLAN_1
 10
282.7670721324022
 20
-270.4709406972381
 30
0.0
  0
VERTEX
  5
20A
  8
PLAN_1
 10
282.7250706055775
 20
-270.4956497299858
 30
0.0
  0
VERTEX
  5
20B
  8
PLAN_1
 10
282.7061313547468
 20
-270.5043510645034
 30
0.0
  0
VERTEX
  5
20C
  8
PLAN_1
 10
282.6885818540173
 20
-270.5105906861796
 30
0.0
  0
VERTEX
  5
20D
  8
PLAN_1
 10
282.6724336596702
 20
-270.5143489013112
 30
0.0
  0
VERTEX
  5
20E
  8
PLAN_1
 10
282.657698327453
 20
-270.5156060161956
 30
0.0
  0
VERTEX
  5
20F
  8
PLAN_1
 10
264.9820060980825
 20
-253.9176998988778
 30
0.0
  0
VERTEX
  5
210
  8
PLAN_1
 10
300.6097599540664
 20
-242.9818139352014
 30
0.0
  0
SEQEND
  5
211
  8
PLAN_1
  0
POLYLINE
  5
7A
  8
PLAN_1
 66
     1
 10
0.0
 20
0.0
 30
0.0
 70
     1
  0
VERTEX
  5
212
  8
PLAN_1
 10
113.3094902180266
 20
-264.8964647751763
 30
0.0
  0
VERTEX
  5
213
  8
PLAN_1
 10
68.4292507982623
 20
-289.6206862356611
 30
0.0
  0
VERTEX
  5
214
  8
PLAN_1
 10
61.24842614740121
 20
-282.8777968939384
 30
0.0
  0
VERTEX
  5
215
  8
PLAN_1
 10
92.36541831968208
 20
-238.4864207948854
 30
0.0
  0
SEQEND
  5
216
  8
PLAN_1
  0
POLYLINE
  5
7B
  8
PLAN_1
 66
     1
 10
0.0
 20
0.0
 30
0.0
 70
     1
  0
VERTEX
  5
217
  8
PLAN_1
 10
-185.6928377167175
 20
-227.8433136495438
 30
0.0
  0
VERTEX
  5
218
  8
PLAN_1
 10
-160.4530908807374
 20
-270.7304013168082
 30
0.0
  0
VERTEX
  5
219
  8
PLAN_1
 10
-172.4720016879885
 20
-285.4022828561352
 30
0.0
  0
VERTEX
  5
21A
  8
PLAN_1
 10
-211.4330999063544
 20
-293.3795708517804
 30
0.0
  0
VERTEX
  5
21B
  8
PLAN_1
 10
-264.6867600517862
 20
-216.8990632397598
 30
0.0
  0
SEQEND
  5
21C
  8
PLAN_1
  0
POLYLINE
  5
7C
  8
PLAN_1
 66
     1
 10
0.0
 20
0.0
 30
0.0
 70
     1
  0
VERTEX
  5
21D
  8
PLAN_1
 10
-284.6863949159203
 20
-217.2876664405401
 30
0.0
  0
VERTEX
  5
21E
  8
PLAN_1
 10
-236.6869402285551
 20
-295.3558012889209
 30
0.0
  0
VERTEX
  5
21F
  8
PLAN_1
 10
-325.0000000000001
 20
-313.4379073842081
 30
0.0
  0
VERTEX
  5
220
  8
PLAN_1
 10
-325.0000000000001
 20
-211.7023989171757
 30
0.0
  0
SEQEND
  5
221
  8
PLAN_1
  0
POLYLINE
  5
7D
  8
PLAN_1
 66
     1
 10
0.0
 20
0.0
 30
0.0
 70
     1
  0
VERTEX
  5
222
  8
PLAN_1
 10
324.9999999999999
 20
-324.9999999999999
 30
0.0
  0
VERTEX
  5
223
  8
PLAN_1
 10
277.9920652410507
 20
-324.9999999999999
 30
0.0
  0
VERTEX
  5
224
  8
PLAN_1
 10
324.9999999999999
 20
-245.1024922199312
 30
0.0
  0
SEQEND
  5
225
  8
PLAN_1
  0
POLYLINE
  5
7E
  8
PLAN_1
 66
     1
 10
0.0
 20
0.0
 30
0.0
 70
     1
  0
VERTEX
  5
226
  8
PLAN_1
 10
267.6975616190704
 20
-284.0016251421422
 30
0.0
  0
VERTEX
  5
227
  8
PLAN_1
 10
245.86729735027
 20
-324.9999999999999
 30
0.0
  0
VERTEX
  5
228
  8
PLAN_1
 10
235.0559424846536
 20
-324.9999999999999
 30
0.0
  0
VERTEX
  5
229
  8
PLAN_1
 10
240.1710671241037
 20
-258.7154094100555
 30
0.0
  0
SEQEND
  5
22A
  8
PLAN_1
  0
POLYLINE
  5
7F
  8
PLAN_1
 66
     1
 10
0.0
 20
0.0
 30
0.0
 70
     1
  0
VERTEX
  5
22B
  8
PLAN_1
 10
213.2428893314912
 20
-324.9999999999999
 30
0.0
  0
VERTEX
  5
22C
  8
PLAN_1
 10
173.7510471349478
 20
-324.9999999999999
 30
0.0
  0
VERTEX
  5
22D
  8
PLAN_1
 10
213.2428893314912
 20
-236.8006784225803
 30
0.0
  0
SEQEND
  5
22E
  8
PLAN_1
  0
POLYLINE
  5
80
  8
PLAN_1
 66
     1
 10
0.0
 20
0.0
 30
0.0
 70
     1
  0
VERTEX
  5
22F
  8
PLAN_1
 10
150.866426872179
 20
-324.9999999999999
 30
0.0
  0
VERTEX
  5
230
  8
PLAN_1
 10
97.32363173899687
 20
-324.9999999999999
 30
0.0
  0
VERTEX
  5
231
  8
PLAN_1
 10
81.35626539196008
 20
-301.9327028982082
 30
0.0
  0
VERTEX
  5
232
  8
PLAN_1
 10
177.6455101081702
 20
-249.1042926776787
 30
0.0
  0
SEQEND
  5
233
  8
PLAN_1
  0
POLYLINE
  5
81
  8
PLAN_1
 66
     1
 10
0.0
 20
0.0
 30
0.0
 70
     1
  0
VERTEX
  5
234
  8
PLAN_1
 10
67.77491408623284
 20
-324.9999999999999
 30
0.0
  0
VERTEX
  5
235
  8
PLAN_1
 10
20.63300377509088
 20
-324.9999999999999
 30
0.0
  0
VERTEX
  5
236
  8
PLAN_1
 10
23.54901137849758
 20
-273.8870907608074
 30
0.0
  0
SEQEND
  5
237
  8
PLAN_1
  0
POLYLINE
  5
82
  8
PLAN_1
 66
     1
 10
0.0
 20
0.0
 30
0.0
 70
     1
  0
VERTEX
  5
238
  8
PLAN_1
 10
-4.13539997426286
 20
-324.9999999999999
 30
0.0
  0
VERTEX
  5
239
  8
PLAN_1
 10
-31.90369616939354
 20
-324.9999999999999
 30
0.0
  0
VERTEX
  5
23A
  8
PLAN_1
 10
0.8096479655544937
 20
-305.3543618580157
 30
0.0
  0
SEQEND
  5
23B
  8
PLAN_1
  0
POLYLINE
  5
83
  8
PLAN_1
 66
     1
 10
0.0
 20
0.0
 30
0.0
 70
     1
  0
VERTEX
  5
23C
  8
PLAN_1
 10
-1.680919038520141
 20
-257.9603288175572
 30
0.0
  0
VERTEX
  5
23D
  8
PLAN_1
 10
-1.172716363389856
 20
-276.0945557552258
 30
0.0
  0
VERTEX
  5
23E
  8
PLAN_1
 10
-81.29755805690719
 20
-324.9999999999999
 30
0.0
  0
VERTEX
  5
23F
  8
PLAN_1
 10
-101.4616282441838
 20
-324.9999999999999
 30
0.0
  0
VERTEX
  5
240
  8
PLAN_1
 10
-97.9987438791548
 20
-271.4423106549365
 30
0.0
  0
VERTEX
  5
241
  8
PLAN_1
 10
-29.70970839062821
 20
-234.4196842806188
 30
0.0
  0
SEQEND
  5
242
  8
PLAN_1
  0
POLYLINE
  5
84
  8
PLAN_1
 66
     1
 10
0.0
 20
0.0
 30
0.0
 70
     1
  0
VERTEX
  5
243
  8
PLAN_1
 10
-132.9748892242078
 20
-324.9999999999999
 30
0.0
  0
VERTEX
  5
244
  8
PLAN_1
 10
-184.247457283426
 20
-324.9999999999999
 30
0.0
  0
VERTEX
  5
245
  8
PLAN_1
 10
-179.683382313092
 20
-321.5177883765947
 30
0.0
  0
VERTEX
  5
246
  8
PLAN_1
 10
-128.0017927158862
 20
-270.7304013168082
 30
0.0
  0
SEQEND
  5
247
  8
PLAN_1
  0
POLYLINE
  5
85
  8
PLAN_1
 66
     1
 10
0.0
 20
0.0
 30
0.0
 70
     1
  0
VERTEX
  5
248
  8
PLAN_1
 10
-214.579708832206
 20
-324.9999999999999
 30
0.0
  0
VERTEX
  5
249
  8
PLAN_1
 10
-259.7027400938097
 20
-324.9999999999999
 30
0.0
  0
VERTEX
  5
24A
  8
PLAN_1
 10
-199.6348118079574
 20
-308.4259346567717
 30
0.0
  0
SEQEND
  5
24B
  8
PLAN_1
  0
POLYLINE
  5
86
  8
PLAN_1
 66
     1
 10
0.0
 20
0.0
 30
0.0
 70
     1
  0
VERTEX
  5
24C
  8
PLAN_1
 10
-26.01517046555979
 20
-170.3852940394324
 30
0.0
  0
VERTEX
  5
24D
  8
PLAN_1
 10
-69.8897510925102
 20
-190.6929570724781
 30
0.0
  0
VERTEX
  5
24E
  8
PLAN_1
 10
-80.16973578720047
 20
-141.1571003551258
 30
0.0
  0
VERTEX
  5
24F
  8
PLAN_1
 10
-59.61183989725566
 20
-134.7222462461202
 30
0.0
  0
SEQEND
  5
250
  8
PLAN_1
  0
POLYLINE
  5
87
  8
PLAN_1
 66
     1
 10
0.0
 20
0.0
 30
0.0
 70
     1
  0
VERTEX
  5
251
  8
PLAN_1
 10
122.7278212221255
 20
281.740010868103
 30
0.0
  0
VERTEX
  5
252
  8
PLAN_1
 10
97.86762676467562
 20
274.2690767100016
 30
0.0
  0
VERTEX
  5
253
  8
PLAN_1
 10
102.2175356804124
 20
293.5816297467671
 30
0.0
  0
SEQEND
  5
254
  8
PLAN_1
  0
POLYLINE
  5
88
  8
PLAN_1
 66
     1
 10
0.0
 20
0.0
 30
0.0
 70
     1
  0
VERTEX
  5
255
  8
PLAN_1
 10
68.12292481825679
 20
269.4903488237653
 30
0.0
  0
VERTEX
  5
256
  8
PLAN_1
 10
105.1466201333986
 20
248.1147083671734
 30
0.0
  0
VERTEX
  5
257
  8
PLAN_1
 10
97.57818770943305
 20
214.5126823421634
 30
0.0
  0
VERTEX
  5
258
  8
PLAN_1
 10
10.309242402998
 20
203.1423613845636
 30
0.0
  0
VERTEX
  5
259
  8
PLAN_1
 10
16.02653749431218
 20
253.8344503858711
 30
0.0
  0
SEQEND
  5
25A
  8
PLAN_1
  0
POLYLINE
  5
89
  8
PLAN_1
 66
     1
 10
0.0
 20
0.0
 30
0.0
 70
     1
  0
VERTEX
  5
25B
  8
PLAN_1
 10
-99.40555107298363
 20
123.8087157579481
 30
0.0
  0
VERTEX
  5
25C
  8
PLAN_1
 10
-42.40177976951092
 20
123.8087157579481
 30
0.0
  0
VERTEX
  5
25D
  8
PLAN_1
 10
-26.06637518638173
 20
160.2391585156991
 30
0.0
  0
VERTEX
  5
25E
  8
PLAN_1
 10
-103.8690503932681
 20
161.0623993036309
 30
0.0
  0
VERTEX
  5
25F
  8
PLAN_1
 10
-110.9896927901706
 20
147.0816258170308
 30
0.0
  0
SEQEND
  5
260
  8
PLAN_1
  0
POLYLINE
  5
8A
  8
PLAN_1
 66
     1
 10
0.0
 20
0.0
 30
0.0
 70
     1
  0
VERTEX
  5
261
  8
PLAN_1
 10
-92.18361050464603
 20
109.299606891506
 30
0.0
  0
VERTEX
  5
262
  8
PLAN_1
 10
-48.90766181574473
 20
109.299606891506
 30
0.0
  0
VERTEX
  5
263
  8
PLAN_1
 10
-69.41697531095329
 20
63.56071089503855
 30
0.0
  0
SEQEND
  5
264
  8
PLAN_1
  0
POLYLINE
  5
8B
  8
PLAN_1
 66
     1
 10
0.0
 20
0.0
 30
0.0
 70
     1
  0
VERTEX
  5
265
  8
PLAN_1
 10
-168.9804561073092
 20
255.649552748775
 30
0.0
  0
VERTEX
  5
266
  8
PLAN_1
 10
-141.6473397162162
 20
219.0690859145298
 30
0.0
  0
VERTEX
  5
267
  8
PLAN_1
 10
-92.93923903151317
 20
246.9425431014926
 30
0.0
  0
VERTEX
  5
268
  8
PLAN_1
 10
-120.618885042646
 20
283.5711188213915
 30
0.0
  0
SEQEND
  5
269
  8
PLAN_1
  0
POLYLINE
  5
8C
  8
PLAN_1
 66
     1
 10
0.0
 20
0.0
 30
0.0
 70
     1
  0
VERTEX
  5
26A
  8
PLAN_1
 10
-177.0872762486287
 20
266.4990753962314
 30
0.0
  0
VERTEX
  5
26B
  8
PLAN_1
 10
-128.7897558889948
 20
294.3836617770574
 30
0.0
  0
VERTEX
  5
26C
  8
PLAN_1
 10
-151.9260473639532
 20
324.9999999999999
 30
0.0
  0
VERTEX
  5
26D
  8
PLAN_1
 10
-193.67809930283
 20
324.9999999999999
 30
0.0
  0
VERTEX
  5
26E
  8
PLAN_1
 10
-186.9573258686992
 20
279.7083639974024
 30
0.0
  0
SEQEND
  5
26F
  8
PLAN_1
  0
POLYLINE
  5
8D
  8
PLAN_1
 66
     1
 10
0.0
 20
0.0
 30
0.0
 70
     1
  0
VERTEX
  5
270
  8
PLAN_1
 10
-96.3962930447508
 20
-135.7461205532908
 30
0.0
  0
VERTEX
  5
271
  8
PLAN_1
 10
-49.76091039017205
 20
-108.8211698239086
 30
0.0
  0
VERTEX
  5
272
  8
PLAN_1
 10
-58.24317755149698
 20
-67.94792115470396
 30
0.0
  0
VERTEX
  5
273
  8
PLAN_1
 10
-106.4160004803614
 20
-94.37765573364722
 30
0.0
  0
VERTEX
  5
274
  8
PLAN_1
 10
-110.1770376948866
 20
-121.1177849653124
 30
0.0
  0
SEQEND
  5
275
  8
PLAN_1
  0
POLYLINE
  5
8E
  8
PLAN_1
 66
     1
 10
0.0
 20
0.0
 30
0.0
 70
     1
  0
VERTEX
  5
276
  8
PLAN_1
 10
170.3764434083054
 20
301.5974511885851
 30
0.0
  0
VERTEX
  5
277
  8
PLAN_1
 10
170.3764434083053
 20
324.9999999999999
 30
0.0
  0
VERTEX
  5
278
  8
PLAN_1
 10
199.893574273106
 20
324.9999999999998
 30
0.0
  0
VERTEX
  5
279
  8
PLAN_1
 10
210.9757726056777
 20
313.917801667428
 30
0.0
  0
VERTEX
  5
27A
  8
PLAN_1
 10
229.2821299006587
 20
294.9678870084048
 30
0.0
  0
VERTEX
  5
27B
  8
PLAN_1
 10
163.9547372474724
 20
252.4283990496318
 30
0.0
  0
VERTEX
  5
27C
  8
PLAN_1
 10
140.4375621214683
 20
274.6238867304073
 30
0.0
  0
VERTEX
  5
27D
  8
PLAN_1
 10
150.7279265869082
 20
295.6348745053063
 30
0.0
  0
SEQEND
  5
27E
  8
PLAN_1
  0
POLYLINE
  5
8F
  8
PLAN_1
 66
     1
 10
0.0
 20
0.0
 30
0.0
 70
     1
  0
VERTEX
  5
27F
  8
PLAN_1
 10
74.73702896505897
 20
-31.59672573902864
 30
0.0
  0
VERTEX
  5
280
  8
PLAN_1
 10
27.73782575816647
 20
-143.5226933791597
 30
0.0
  0
VERTEX
  5
281
  8
PLAN_1
 10
93.56222242815878
 20
-111.4935081578495
 30
0.0
  0
VERTEX
  5
282
  8
PLAN_1
 10
87.47499983236422
 20
-28.39171435430742
 30
0.0
  0
VERTEX
  5
283
  8
PLAN_1
 10
87.47499983236422
 20
2.560666598073525
 30
0.0
  0
SEQEND
  5
284
  8
PLAN_1
  0
POLYLINE
  5
90
  8
PLAN_1
 66
     1
 10
0.0
 20
0.0
 30
0.0
 70
     1
  0
VERTEX
  5
285
  8
PLAN_1
 10
-297.1659970610568
 20
9.774190489139922
 30
0.0
  0
VERTEX
  5
286
  8
PLAN_1
 10
-256.6047187462783
 20
87.03866244563294
 30
0.0
  0
VERTEX
  5
287
  8
PLAN_1
 10
-256.6047187462783
 20
33.99400118941117
 30
0.0
  0
VERTEX
  5
288
  8
PLAN_1
 10
-278.7912934644592
 20
0.8493344565068868
 30
0.0
  0
SEQEND
  5
289
  8
PLAN_1
  0
ENDSEC
  0
EOF
