  0
SECTION
  2
HEADER
  9
$ACADVER
  1
AC1009
  9
$DWGCODEPAGE
  3
ansi_1252
  9
$INSBASE
 10
0.0
 20
0.0
 30
0.0
  9
$EXTMIN
 10
-67.64830844050141
 20
-67.64005489950195
 30
0.0
  9
$EXTMAX
 10
67.61358651754296
 20
67.62184005854242
 30
0.0
  9
$LIMMIN
 10
0.0
 20
0.0
  9
$LIMMAX
 10
12.0
 20
9.0
  9
$ORTHOMODE
 70
     0
  9
$REGENMODE
 70
     1
  9
$FILLMODE
 70
     1
  9
$QTEXTMODE
 70
     0
  9
$MIRRTEXT
 70
     1
  9
$DRAGMODE
 70
     2
  9
$LTSCALE
 40
1.0
  9
$OSMODE
 70
    37
  9
$ATTMODE
 70
     1
  9
$TEXTSIZE
 40
0.2
  9
$TRACEWID
 40
0.05
  9
$TEXTSTYLE
  7
STANDARD
  9
$CLAYER
  8
0
  9
$CELTYPE
  6
BYLAYER
  9
$CECOLOR
 62
   256
  9
$DIMSCALE
 40
1.0
  9
$DIMASZ
 40
0.18
  9
$DIMEXO
 40
0.0625
  9
$DIMDLI
 40
0.38
  9
$DIMRND
 40
0.0
  9
$DIMDLE
 40
0.0
  9
$DIMEXE
 40
0.18
  9
$DIMTP
 40
0.0
  9
$DIMTM
 40
0.0
  9
$DIMTXT
 40
0.18
  9
$DIMCEN
 40
0.09
  9
$DIMTSZ
 40
0.0
  9
$DIMTOL
 70
     0
  9
$DIMLIM
 70
     0
  9
$DIMTIH
 70
     1
  9
$DIMTOH
 70
     1
  9
$DIMSE1
 70
     0
  9
$DIMSE2
 70
     0
  9
$DIMTAD
 70
     0
  9
$DIMZIN
 70
     0
  9
$DIMBLK
  1

  9
$DIMASO
 70
     1
  9
$DIMSHO
 70
     1
  9
$DIMPOST
  1

  9
$DIMAPOST
  1

  9
$DIMALT
 70
     0
  9
$DIMALTD
 70
     2
  9
$DIMALTF
 40
25.4
  9
$DIMLFAC
 40
1.0
  9
$DIMTOFL
 70
     0
  9
$DIMTVP
 40
0.0
  9
$DIMTIX
 70
     0
  9
$DIMSOXD
 70
     0
  9
$DIMSAH
 70
     0
  9
$DIMBLK1
  1

  9
$DIMBLK2
  1

  9
$DIMSTYLE
  2
STANDARD
  9
$DIMCLRD
 70
     0
  9
$DIMCLRE
 70
     0
  9
$DIMCLRT
 70
     0
  9
$DIMTFAC
 40
1.0
  9
$DIMGAP
 40
0.09
  9
$LUNITS
 70
     2
  9
$LUPREC
 70
     4
  9
$SKETCHINC
 40
0.1
  9
$FILLETRAD
 40
0.5
  9
$AUNITS
 70
     0
  9
$AUPREC
 70
     0
  9
$MENU
  1
.
  9
$ELEVATION
 40
0.0
  9
$PELEVATION
 40
0.0
  9
$THICKNESS
 40
0.0
  9
$LIMCHECK
 70
     0
  9
$CHAMFERA
 40
0.5
  9
$CHAMFERB
 40
0.5
  9
$SKPOLY
 70
     0
  9
$TDCREATE
 40
2454910.5
  9
$TDUPDATE
 40
2457368.964474687
  9
$TDINDWG
 40
0.0000000116
  9
$TDUSRTIMER
 40
0.0000000116
  9
$USRTIMER
 70
     1
  9
$ANGBASE
 50
0.0
  9
$ANGDIR
 70
     0
  9
$PDMODE
 70
     0
  9
$PDSIZE
 40
0.0
  9
$PLINEWID
 40
0.0
  9
$COORDS
 70
     1
  9
$SPLFRAME
 70
     0
  9
$SPLINETYPE
 70
     6
  9
$SPLINESEGS
 70
     8
  9
$ATTDIA
 70
     0
  9
$ATTREQ
 70
     1
  9
$HANDLING
 70
     1
  9
$HANDSEED
  5
17D
  9
$SURFTAB1
 70
     6
  9
$SURFTAB2
 70
     6
  9
$SURFTYPE
 70
     6
  9
$SURFU
 70
     6
  9
$SURFV
 70
     6
  9
$UCSNAME
  2

  9
$UCSORG
 10
0.0
 20
0.0
 30
0.0
  9
$UCSXDIR
 10
1.0
 20
0.0
 30
0.0
  9
$UCSYDIR
 10
0.0
 20
1.0
 30
0.0
  9
$PUCSNAME
  2

  9
$PUCSORG
 10
0.0
 20
0.0
 30
0.0
  9
$PUCSXDIR
 10
1.0
 20
0.0
 30
0.0
  9
$PUCSYDIR
 10
0.0
 20
1.0
 30
0.0
  9
$USERI1
 70
     0
  9
$USERI2
 70
     0
  9
$USERI3
 70
     0
  9
$USERI4
 70
     0
  9
$USERI5
 70
     0
  9
$USERR1
 40
0.0
  9
$USERR2
 40
0.0
  9
$USERR3
 40
0.0
  9
$USERR4
 40
0.0
  9
$USERR5
 40
0.0
  9
$WORLDVIEW
 70
     1
  9
$SHADEDGE
 70
     3
  9
$SHADEDIF
 70
    70
  9
$TILEMODE
 70
     1
  9
$MAXACTVP
 70
    64
  9
$PLIMCHECK
 70
     0
  9
$PEXTMIN
 10
1.000000000000000E+20
 20
1.000000000000000E+20
 30
1.000000000000000E+20
  9
$PEXTMAX
 10
-1.000000000000000E+20
 20
-1.000000000000000E+20
 30
-1.000000000000000E+20
  9
$PLIMMIN
 10
0.0
 20
0.0
  9
$PLIMMAX
 10
12.0
 20
9.0
  9
$UNITMODE
 70
     0
  9
$VISRETAIN
 70
     1
  9
$PLINEGEN
 70
     0
  9
$PSLTSCALE
 70
     1
  0
ENDSEC
  0
SECTION
  2
TABLES
  0
TABLE
  2
VPORT
 70
     1
  0
VPORT
  2
*ACTIVE
 70
     0
 10
0.0
 20
0.0
 11
1.0
 21
1.0
 12
10.42990654205607
 22
4.5
 13
0.0
 23
0.0
 14
0.5
 24
0.5
 15
0.5
 25
0.5
 16
0.0
 26
0.0
 36
1.0
 17
0.0
 27
0.0
 37
0.0
 40
9.0
 41
1.972972972850329
 42
50.0
 43
0.0
 44
0.0
 50
0.0
 51
0.0
 71
     0
 72
   100
 73
     1
 74
     3
 75
     0
 76
     0
 77
     0
 78
     0
  0
ENDTAB
  0
TABLE
  2
LTYPE
 70
     2
  0
LTYPE
  2
CONTINUOUS
 70
     0
  3
Solid line
 72
    65
 73
     0
 40
0.0
  0
LTYPE
  2
CONTINUOUS2
 70
     0
  3
Solid Line
 72
    65
 73
     0
 40
0.0
  0
ENDTAB
  0
TABLE
  2
LAYER
 70
     1
  0
LAYER
  2
0
 70
     0
 62
     7
  6
CONTINUOUS
  0
ENDTAB
  0
TABLE
  2
STYLE
 70
     1
  0
STYLE
  2
STANDARD
 70
     0
 40
0.0
 41
1.0
 50
0.0
 71
     0
 42
0.2
  3
txt
  4

  0
ENDTAB
  0
TABLE
  2
VIEW
 70
     0
  0
ENDTAB
  0
TABLE
  2
UCS
 70
     0
  0
ENDTAB
  0
TABLE
  2
APPID
 70
     1
  0
APPID
  2
ACAD
 70
     0
  0
ENDTAB
  0
TABLE
  2
DIMSTYLE
 70
     1
  0
DIMSTYLE
  2
STANDARD
 70
     0
  3

  4

  5

  6

  7

 40
1.0
 41
0.18
 42
0.0625
 43
0.38
 44
0.18
 45
0.0
 46
0.0
 47
0.0
 48
0.0
140
0.18
141
0.09
142
0.0
143
25.4
144
1.0
145
0.0
146
1.0
147
0.09
 71
     0
 72
     0
 73
     1
 74
     1
 75
     0
 76
     0
 77
     0
 78
     0
170
     0
171
     2
172
     0
173
     0
174
     0
175
     0
176
     0
177
     0
178
     0
  0
ENDTAB
  0
ENDSEC
  0
SECTION
  2
BLOCKS
  0
BLOCK
  8
0
  2
$MODEL_SPACE
 70
     0
 10
0.0
 20
0.0
 30
0.0
  3
$MODEL_SPACE
  1

  0
ENDBLK
  5
21
  8
0
  0
BLOCK
 67
     1
  8
0
  2
$PAPER_SPACE
 70
     0
 10
0.0
 20
0.0
 30
0.0
  3
$PAPER_SPACE
  1

  0
ENDBLK
  5
1D
 67
     1
  8
0
  0
ENDSEC
  0
SECTION
  2
ENTITIES
  0
POLYLINE
  5
40
  8
0
 66
     1
 10
0.0
 20
0.0
 30
0.0
 70
     1
  0
VERTEX
  5
6F
  8
0
 10
0.1369485148535752
 20
-50.87703826634324
 30
0.0
 42
-0.0519793892255391
  0
VERTEX
  5
70
  8
0
 10
-5.365280986658856
 20
-45.99624183434261
 30
0.0
 42
0.20052994634865
  0
VERTEX
  5
71
  8
0
 10
0.103105269588557
 20
-36.49587078455473
 30
0.0
 42
0.20052994634865
  0
VERTEX
  5
72
  8
0
 10
5.616145214601974
 20
-45.97039921060731
 30
0.0
 42
-0.0519793892255391
  0
SEQEND
  5
73
  8
0
  0
POLYLINE
  5
41
  8
0
 66
     1
 10
0.0
 20
0.0
 30
0.0
 70
     1
  0
VERTEX
  5
74
  8
0
 10
40.09787258053544
 20
-39.6088636570196
 30
0.0
 42
0.0737580766271154
  0
VERTEX
  5
75
  8
0
 10
40.65647429449788
 20
-27.29507232667512
 30
0.0
 42
0.0078653475712975
  0
VERTEX
  5
76
  8
0
 10
41.05692340798794
 20
-27.0959747423212
 30
0.0
 42
-0.2207329410276832
  0
VERTEX
  5
77
  8
0
 10
58.88181115027828
 20
-24.36362677560893
 30
0.0
 42
-0.1978996051737219
  0
VERTEX
  5
78
  8
0
 10
24.64863457203646
 20
-58.75830549480033
 30
0.0
 42
-0.2207329410276319
  0
VERTEX
  5
79
  8
0
 10
27.29705801458897
 20
-40.92075516676234
 30
0.0
 42
0.0102436016901021
  0
VERTEX
  5
7A
  8
0
 10
27.55139935316555
 20
-40.39681407609415
 30
0.0
 42
0.0738464169491702
  0
VERTEX
  5
7B
  8
0
 10
39.87139073166956
 20
-39.67602660059814
 30
0.0
 42
0.0412351022523918
  0
SEQEND
  5
7C
  8
0
  0
POLYLINE
  5
42
  8
0
 66
     1
 10
0.0
 20
0.0
 30
0.0
 70
     1
  0
VERTEX
  5
7D
  8
0
 10
0.1671547671975624
 20
-63.71272145136
 30
0.0
 42
-0.0979994984106507
  0
VERTEX
  5
7E
  8
0
 10
-24.10775615648304
 20
-58.96806205783976
 30
0.0
 42
-0.2207329410276748
  0
VERTEX
  5
7F
  8
0
 10
-9.621985184089361
 20
-48.22772743680578
 30
0.0
 42
0.0102436016900027
  0
VERTEX
  5
80
  8
0
 10
-9.071656400696067
 20
-48.03709162389539
 30
0.0
 42
0.073846416949171
  0
VERTEX
  5
81
  8
0
 10
0.1495667589148617
 20
-56.23896736007551
 30
0.0
 42
0.073846416949171
  0
VERTEX
  5
82
  8
0
 10
9.332084999651759
 20
-47.99378204318954
 30
0.0
 42
0.0102436016900027
  0
VERTEX
  5
83
  8
0
 10
9.883304930308558
 20
-48.18182557815626
 30
0.0
 42
-0.2207329410276748
  0
VERTEX
  5
84
  8
0
 10
24.41946570259089
 20
-58.85386279879733
 30
0.0
 42
-0.0979994984106507
  0
SEQEND
  5
85
  8
0
  0
POLYLINE
  5
43
  8
0
 66
     1
 10
0.0
 20
0.0
 30
0.0
 70
     1
  0
VERTEX
  5
86
  8
0
 10
6.530976122164137
 20
-15.63048221819243
 30
0.0
 42
0.106706294177685
  0
VERTEX
  5
87
  8
0
 10
14.61116060547815
 20
-18.37534226024458
 30
0.0
 42
-0.0979158220212613
  0
VERTEX
  5
88
  8
0
 10
13.39066695585158
 20
-32.08163275722436
 30
0.0
 42
-0.0979158220212677
  0
VERTEX
  5
89
  8
0
 10
2.794400155569608
 20
-23.30261607916738
 30
0.0
 42
0.1067062941776849
  0
SEQEND
  5
8A
  8
0
  0
POLYLINE
  5
44
  8
0
 66
     1
 10
0.0
 20
0.0
 30
0.0
 70
     1
  0
VERTEX
  5
8B
  8
0
 10
36.07101186329956
 20
-35.89349262414688
 30
0.0
 42
-0.0519793892255391
  0
VERTEX
  5
8C
  8
0
 10
28.72910381647884
 20
-36.3329121616459
 30
0.0
 42
0.20052994634865
  0
VERTEX
  5
8D
  8
0
 10
25.87806002734906
 20
-25.74840236459524
 30
0.0
 42
0.20052994634865
  0
VERTEX
  5
8E
  8
0
 10
36.47587125602359
 20
-28.54959773314803
 30
0.0
 42
-0.0519793892255391
  0
SEQEND
  5
8F
  8
0
  0
POLYLINE
  5
45
  8
0
 66
     1
 10
0.0
 20
0.0
 30
0.0
 70
     1
  0
VERTEX
  5
90
  8
0
 10
-0.0326150199885511
 20
21.17638260180687
 30
0.0
 42
0.1657487627769204
  0
VERTEX
  5
91
  8
0
 10
-4.07673226351255
 20
9.809295135932222
 30
0.0
 42
0.1657487627769226
  0
VERTEX
  5
92
  8
0
 10
-14.99835016556843
 20
14.9360703541041
 30
0.0
 42
0.1657487627769226
  0
VERTEX
  5
93
  8
0
 10
-9.820228262914862
 20
4.038702997837652
 30
0.0
 42
0.1657487627769236
  0
VERTEX
  5
94
  8
0
 10
-21.16815586537736
 20
-0.0588695598493914
 30
0.0
 42
0.1657487627769236
  0
VERTEX
  5
95
  8
0
 10
-9.80106839950155
 20
-4.102986803374357
 30
0.0
 42
0.1657487627769226
  0
VERTEX
  5
96
  8
0
 10
-14.92784361767385
 20
-15.02460470543015
 30
0.0
 42
0.1657487627769226
  0
VERTEX
  5
97
  8
0
 10
-4.030476261406558
 20
-9.846482802776242
 30
0.0
 42
0.1657487627769204
  0
VERTEX
  5
98
  8
0
 10
0.0670962962641433
 20
-21.19441040523664
 30
0.0
 42
0.1657487627769204
  0
VERTEX
  5
99
  8
0
 10
4.11121353978746
 20
-9.827322939362851
 30
0.0
 42
0.1657487627769226
  0
VERTEX
  5
9A
  8
0
 10
15.03283144184315
 20
-14.95409815753523
 30
0.0
 42
0.1657487627769226
  0
VERTEX
  5
9B
  8
0
 10
9.854709539190882
 20
-4.056730801268792
 30
0.0
 42
0.1657487627769236
  0
VERTEX
  5
9C
  8
0
 10
21.20263714165197
 20
0.0408417564199581
 30
0.0
 42
0.1657487627769236
  0
VERTEX
  5
9D
  8
0
 10
9.835549675776836
 20
4.084958999941455
 30
0.0
 42
0.1657487627769226
  0
VERTEX
  5
9E
  8
0
 10
14.96232489394865
 20
15.00657690199919
 30
0.0
 42
0.1657487627769226
  0
VERTEX
  5
9F
  8
0
 10
4.064957537681838
 20
9.82845499934539
 30
0.0
 42
0.1657487627769204
  0
SEQEND
  5
A0
  8
0
  0
POLYLINE
  5
46
  8
0
 66
     1
 10
0.0
 20
0.0
 30
0.0
 70
     1
  0
VERTEX
  5
A1
  8
0
 10
22.58896630300925
 20
-54.14131604772231
 30
0.0
 42
-0.119981781904593
  0
VERTEX
  5
A2
  8
0
 10
22.17892714060955
 20
-39.56427118817091
 30
0.0
 42
-0.0405941338144821
  0
VERTEX
  5
A3
  8
0
 10
15.67257337894168
 20
-37.55418057196962
 30
0.0
 42
-0.0405941338144518
  0
VERTEX
  5
A4
  8
0
 10
12.52161362553844
 20
-43.59111325253391
 30
0.0
 42
-0.1199817819045527
  0
SEQEND
  5
A5
  8
0
  0
POLYLINE
  5
47
  8
0
 66
     1
 10
0.0
 20
0.0
 30
0.0
 70
     1
  0
VERTEX
  5
A6
  8
0
 10
50.88526500276672
 20
0.1106939749674112
 30
0.0
 42
0.0519793892255391
  0
VERTEX
  5
A7
  8
0
 10
45.97862594703344
 20
5.589890674730079
 30
0.0
 42
-0.20052994634865
  0
VERTEX
  5
A8
  8
0
 10
36.50409752097823
 20
0.0768507297423539
 30
0.0
 42
-0.20052994634865
  0
VERTEX
  5
A9
  8
0
 10
46.00446857076332
 20
-5.391535526530923
 30
0.0
 42
0.0519793892255391
  0
SEQEND
  5
AA
  8
0
  0
POLYLINE
  5
48
  8
0
 66
     1
 10
0.0
 20
0.0
 30
0.0
 70
     1
  0
VERTEX
  5
AB
  8
0
 10
63.72094818778383
 20
0.1409002273051456
 30
0.0
 42
0.0979994984106507
  0
VERTEX
  5
AC
  8
0
 10
58.86208953523185
 20
24.39321116271257
 30
0.0
 42
0.2207329410276748
  0
VERTEX
  5
AD
  8
0
 10
48.19005231458331
 20
9.857050390434587
 30
0.0
 42
-0.0102436016900027
  0
VERTEX
  5
AE
  8
0
 10
48.00200877961754
 20
9.305830459778612
 30
0.0
 42
-0.073846416949171
  0
VERTEX
  5
AF
  8
0
 10
56.24719409649845
 20
0.1233122190468307
 30
0.0
 42
-0.073846416949171
  0
VERTEX
  5
B0
  8
0
 10
48.04531836031416
 20
-9.097910940569781
 30
0.0
 42
-0.0102436016900027
  0
VERTEX
  5
B1
  8
0
 10
48.23595417322588
 20
-9.648239723963648
 30
0.0
 42
0.2207329410276748
  0
VERTEX
  5
B2
  8
0
 10
58.97628879425245
 20
-24.13401069636179
 30
0.0
 42
0.0979994984106507
  0
SEQEND
  5
B3
  8
0
  0
POLYLINE
  5
49
  8
0
 66
     1
 10
0.0
 20
0.0
 30
0.0
 70
     1
  0
VERTEX
  5
B4
  8
0
 10
15.66919334842365
 20
-6.449153548769138
 30
0.0
 42
-0.106706294177685
  0
VERTEX
  5
B5
  8
0
 10
18.45205302328847
 20
-14.51632963243369
 30
0.0
 42
0.0979158220212613
  0
VERTEX
  5
B6
  8
0
 10
32.15244735823476
 20
-13.23133974790229
 30
0.0
 42
0.0979158220212677
  0
VERTEX
  5
B7
  8
0
 10
23.32365573895834
 20
-2.676509456525558
 30
0.0
 42
-0.1067062941776849
  0
SEQEND
  5
B8
  8
0
  0
POLYLINE
  5
4A
  8
0
 66
     1
 10
0.0
 20
0.0
 30
0.0
 70
     1
  0
VERTEX
  5
B9
  8
0
 10
54.2551788474733
 20
-22.32571154982488
 30
0.0
 42
0.119981781904593
  0
VERTEX
  5
BA
  8
0
 10
39.67636556127161
 20
-21.9842849572183
 30
0.0
 42
0.0405941338144821
  0
VERTEX
  5
BB
  8
0
 10
37.63567453418602
 20
-15.48746391233171
 30
0.0
 42
0.0405941338144518
  0
VERTEX
  5
BC
  8
0
 10
43.65771010538643
 20
-12.30812575220576
 30
0.0
 42
0.1199817819045527
  0
SEQEND
  5
BD
  8
0
  0
POLYLINE
  5
4B
  8
0
 66
     1
 10
0.0
 20
0.0
 30
0.0
 70
     1
  0
VERTEX
  5
BE
  8
0
 10
15.63411298475114
 20
6.530452741094599
 30
0.0
 42
0.106706294177685
  0
VERTEX
  5
BF
  8
0
 10
18.37332553413728
 20
14.61255349177347
 30
0.0
 42
-0.0979158220212613
  0
VERTEX
  5
C0
  8
0
 10
32.08046562390805
 20
13.40163875663539
 30
0.0
 42
-0.0979158220212677
  0
VERTEX
  5
C1
  8
0
 10
23.30885627162425
 20
2.799239343894135
 30
0.0
 42
0.1067062941776849
  0
SEQEND
  5
C2
  8
0
  0
POLYLINE
  5
4C
  8
0
 66
     1
 10
0.0
 20
0.0
 30
0.0
 70
     1
  0
VERTEX
  5
C3
  8
0
 10
54.13371531260705
 20
22.61535222759191
 30
0.0
 42
-0.119981781904593
  0
VERTEX
  5
C4
  8
0
 10
39.5569605678196
 20
22.19512602375174
 30
0.0
 42
-0.0405941338144821
  0
VERTEX
  5
C5
  8
0
 10
37.55141739609024
 20
15.68736910268942
 30
0.0
 42
-0.0405941338144518
  0
VERTEX
  5
C6
  8
0
 10
43.59055064502297
 20
12.54062901827346
 30
0.0
 42
-0.1199817819045527
  0
SEQEND
  5
C7
  8
0
  0
POLYLINE
  5
4D
  8
0
 66
     1
 10
0.0
 20
0.0
 30
0.0
 70
     1
  0
VERTEX
  5
C8
  8
0
 10
0.1870477578874592
 20
56.35220243892858
 30
0.0
 42
-0.0737580766271154
  0
VERTEX
  5
C9
  8
0
 10
9.313173248014014
 20
48.06635146630229
 30
0.0
 42
-0.0078653475712975
  0
VERTEX
  5
CA
  8
0
 10
9.736703805258859
 20
48.20995232866259
 30
0.0
 42
0.2207329410276832
  0
VERTEX
  5
CB
  8
0
 10
24.24198120359046
 20
58.92392806290278
 30
0.0
 42
0.1978996051737219
  0
VERTEX
  5
CC
  8
0
 10
-24.28536808620916
 20
58.89797157523859
 30
0.0
 42
0.2207329410276319
  0
VERTEX
  5
CD
  8
0
 10
-9.76863752933794
 20
48.1995192397113
 30
0.0
 42
-0.0102436016901021
  0
VERTEX
  5
CE
  8
0
 10
-9.21776045102646
 20
48.01047366956849
 30
0.0
 42
-0.0738464169491702
  0
VERTEX
  5
CF
  8
0
 10
-0.020264230982857
 20
56.23894773427336
 30
0.0
 42
-0.0412351022523918
  0
SEQEND
  5
D0
  8
0
  0
POLYLINE
  5
4E
  8
0
 66
     1
 10
0.0
 20
0.0
 30
0.0
 70
     1
  0
VERTEX
  5
D1
  8
0
 10
-0.0173962150446663
 20
50.87700456032557
 30
0.0
 42
0.0519793892255391
  0
VERTEX
  5
D2
  8
0
 10
-5.505506157406554
 20
45.98033706513511
 30
0.0
 42
-0.20052994634865
  0
VERTEX
  5
D3
  8
0
 10
-0.0097039428948414
 20
36.49579931412295
 30
0.0
 42
-0.20052994634865
  0
VERTEX
  5
D4
  8
0
 10
5.475948880689347
 20
45.98621086634378
 30
0.0
 42
0.0519793892255391
  0
SEQEND
  5
D5
  8
0
  0
POLYLINE
  5
4F
  8
0
 66
     1
 10
0.0
 20
0.0
 30
0.0
 70
     1
  0
VERTEX
  5
D6
  8
0
 10
35.95979241156201
 20
35.99730539436096
 30
0.0
 42
-0.0519793892255391
  0
VERTEX
  5
D7
  8
0
 10
36.38586059374406
 20
28.6546104393689
 30
0.0
 42
0.20052994634865
  0
VERTEX
  5
D8
  8
0
 10
25.79618391813924
 20
25.82281838533133
 30
0.0
 42
0.20052994634865
  0
VERTEX
  5
D9
  8
0
 10
28.61664586436189
 20
36.41551835943174
 30
0.0
 42
-0.0519793892255391
  0
SEQEND
  5
DA
  8
0
  0
POLYLINE
  5
50
  8
0
 66
     1
 10
0.0
 20
0.0
 30
0.0
 70
     1
  0
VERTEX
  5
DB
  8
0
 10
45.03116014324874
 20
45.07838257277567
 30
0.0
 42
-0.0979994984106507
  0
VERTEX
  5
DC
  8
0
 10
58.80379686800083
 20
24.53336929068801
 30
0.0
 42
-0.2207329410276748
  0
VERTEX
  5
DD
  8
0
 10
40.97109196149754
 20
27.21422440687836
 30
0.0
 42
0.0102436016900027
  0
VERTEX
  5
DE
  8
0
 10
40.44761423493881
 20
27.46951806679145
 30
0.0
 42
0.073846416949171
  0
VERTEX
  5
DF
  8
0
 10
39.74923079668375
 20
39.79079976652785
 30
0.0
 42
0.073846416949171
  0
VERTEX
  5
E0
  8
0
 10
27.42720903958216
 20
40.47600190368585
 30
0.0
 42
0.0102436016900027
  0
VERTEX
  5
E1
  8
0
 10
27.17135552651226
 20
40.99920622595957
 30
0.0
 42
-0.2207329410276748
  0
VERTEX
  5
E2
  8
0
 10
24.47142510373775
 20
58.82903303803401
 30
0.0
 42
-0.0979994984106507
  0
SEQEND
  5
E3
  8
0
  0
POLYLINE
  5
51
  8
0
 66
     1
 10
0.0
 20
0.0
 30
0.0
 70
     1
  0
VERTEX
  5
E4
  8
0
 10
6.478403063373551
 20
15.6490626103018
 30
0.0
 42
0.106706294177685
  0
VERTEX
  5
E5
  8
0
 10
2.719684190537837
 20
23.31037257465037
 30
0.0
 42
-0.0979158220212613
  0
VERTEX
  5
E6
  8
0
 10
13.29055143025733
 20
32.11995654533852
 30
0.0
 42
-0.0979158220212677
  0
VERTEX
  5
E7
  8
0
 10
14.55062620060596
 20
18.41724821780341
 30
0.0
 42
0.1067062941776849
  0
SEQEND
  5
E8
  8
0
  0
POLYLINE
  5
52
  8
0
 66
     1
 10
0.0
 20
0.0
 30
0.0
 70
     1
  0
VERTEX
  5
E9
  8
0
 10
22.42510011388175
 20
54.20611415827532
 30
0.0
 42
-0.119981781904593
  0
VERTEX
  5
EA
  8
0
 10
12.38826029238734
 20
43.62687905597548
 30
0.0
 42
-0.0405941338144821
  0
VERTEX
  5
EB
  8
0
 10
15.55664264193874
 20
37.59907208790148
 30
0.0
 42
-0.0405941338144518
  0
VERTEX
  5
EC
  8
0
 10
22.05716376676754
 20
39.62794583037309
 30
0.0
 42
-0.1199817819045527
  0
SEQEND
  5
ED
  8
0
  0
POLYLINE
  5
53
  8
0
 66
     1
 10
0.0
 20
0.0
 30
0.0
 70
     1
  0
VERTEX
  5
EE
  8
0
 10
-39.88335355676979
 20
-39.82503126928841
 30
0.0
 42
-0.0737580766271154
  0
VERTEX
  5
EF
  8
0
 10
-40.50850831568836
 20
-27.51443931237954
 30
0.0
 42
-0.0078653475712975
  0
VERTEX
  5
F0
  8
0
 10
-40.91002778479593
 20
-27.31750923210111
 30
0.0
 42
0.2207329410276832
  0
VERTEX
  5
F1
  8
0
 10
-58.74942460296177
 20
-24.68155217621935
 30
0.0
 42
0.1978996051737219
  0
VERTEX
  5
F2
  8
0
 10
-24.33083048892255
 20
-58.89068373559225
 30
0.0
 42
0.2207329410276319
  0
VERTEX
  5
F3
  8
0
 10
-27.07563467912527
 20
-41.06770984250149
 30
0.0
 42
-0.0102436016901021
  0
VERTEX
  5
F4
  8
0
 10
-27.33280442323497
 20
-40.54515122788077
 30
0.0
 42
-0.0738464169491702
  0
VERTEX
  5
F5
  8
0
 10
-39.65651197279036
 20
-39.89096900229204
 30
0.0
 42
-0.0412351022523918
  0
SEQEND
  5
F6
  8
0
  0
POLYLINE
  5
54
  8
0
 66
     1
 10
0.0
 20
0.0
 30
0.0
 70
     1
  0
VERTEX
  5
F7
  8
0
 10
-6.446560696869848
 20
-15.66555698864524
 30
0.0
 42
-0.106706294177685
  0
VERTEX
  5
F8
  8
0
 10
-14.51179001409886
 20
-18.45405371544083
 30
0.0
 42
0.0979158220212613
  0
VERTEX
  5
F9
  8
0
 10
-13.21722594742655
 20
-32.15354669195872
 30
0.0
 42
0.0979158220212677
  0
VERTEX
  5
FA
  8
0
 10
-2.668568218616965
 20
-23.3173810044677
 30
0.0
 42
-0.1067062941776849
  0
SEQEND
  5
FB
  8
0
  0
POLYLINE
  5
55
  8
0
 66
     1
 10
0.0
 20
0.0
 30
0.0
 70
     1
  0
VERTEX
  5
FC
  8
0
 10
-35.87663480792556
 20
-36.0879476449111
 30
0.0
 42
0.0519793892255391
  0
VERTEX
  5
FD
  8
0
 10
-28.53245877500686
 20
-36.48767467102456
 30
0.0
 42
-0.20052994634865
  0
VERTEX
  5
FE
  8
0
 10
-25.73867035181855
 20
-25.88790841992922
 30
0.0
 42
-0.20052994634865
  0
VERTEX
  5
FF
  8
0
 10
-36.32118511736472
 20
-28.74634847849702
 30
0.0
 42
0.0519793892255391
  0
SEQEND
  5
100
  8
0
  0
POLYLINE
  5
56
  8
0
 66
     1
 10
0.0
 20
0.0
 30
0.0
 70
     1
  0
VERTEX
  5
101
  8
0
 10
-22.29614907442525
 20
-54.26262836920263
 30
0.0
 42
0.119981781904593
  0
VERTEX
  5
102
  8
0
 10
-21.96491094262465
 20
-39.68358003770575
 30
0.0
 42
0.0405941338144821
  0
VERTEX
  5
103
  8
0
 10
-15.46951761747786
 20
-37.63834921724909
 30
0.0
 42
0.0405941338144518
  0
VERTEX
  5
104
  8
0
 10
-12.28597174500566
 20
-43.65816144314921
 30
0.0
 42
0.1199817819045527
  0
SEQEND
  5
105
  8
0
  0
POLYLINE
  5
57
  8
0
 66
     1
 10
0.0
 20
0.0
 30
0.0
 70
     1
  0
VERTEX
  5
106
  8
0
 10
-50.88528924675425
 20
-0.164364295252561
 30
0.0
 42
-0.0519793892255391
  0
VERTEX
  5
107
  8
0
 10
-46.0083392298037
 20
5.341274798449469
 30
0.0
 42
0.20052994634865
  0
VERTEX
  5
108
  8
0
 10
-36.50414892805826
 20
-0.1204708052354349
 30
0.0
 42
0.20052994634865
  0
VERTEX
  5
109
  8
0
 10
-45.97482226243856
 20
-5.640130661137412
 30
0.0
 42
-0.0519793892255391
  0
SEQEND
  5
10A
  8
0
  0
POLYLINE
  5
58
  8
0
 66
     1
 10
0.0
 20
0.0
 30
0.0
 70
     1
  0
VERTEX
  5
10B
  8
0
 10
-63.72094818778383
 20
-0.2035407343177198
 30
0.0
 42
-0.0979994984106507
  0
VERTEX
  5
10C
  8
0
 10
-58.9932544307015
 20
24.07468005824442
 30
0.0
 42
-0.2207329410276748
  0
VERTEX
  5
10D
  8
0
 10
-48.24279907741933
 20
9.596418486718767
 30
0.0
 42
0.0102436016900027
  0
VERTEX
  5
10E
  8
0
 10
-48.05177871478109
 20
9.046223063207755
 30
0.0
 42
0.073846416949171
  0
VERTEX
  5
10F
  8
0
 10
-56.2472082128962
 20
-0.1807297107315193
 30
0.0
 42
0.073846416949171
  0
VERTEX
  5
110
  8
0
 10
-47.99560772308935
 20
-9.35748357622682
 30
0.0
 42
0.0102436016900027
  0
VERTEX
  5
111
  8
0
 10
-48.18326599308043
 20
-9.908834786164526
 30
0.0
 42
-0.2207329410276748
  0
VERTEX
  5
112
  8
0
 10
-58.84514203787067
 20
-24.45245014280581
 30
0.0
 42
-0.0979994984106507
  0
SEQEND
  5
113
  8
0
  0
POLYLINE
  5
59
  8
0
 66
     1
 10
0.0
 20
0.0
 30
0.0
 70
     1
  0
VERTEX
  5
114
  8
0
 10
-15.63427335092876
 20
-6.533758348907064
 30
0.0
 42
0.106706294177685
  0
VERTEX
  5
115
  8
0
 10
-18.37348590031464
 20
-14.61585909958582
 30
0.0
 42
-0.0979158220212613
  0
VERTEX
  5
116
  8
0
 10
-32.08062599008565
 20
-13.40494436444773
 30
0.0
 42
-0.0979158220212677
  0
VERTEX
  5
117
  8
0
 10
-23.30901663780184
 20
-2.802544951706543
 30
0.0
 42
0.1067062941776849
  0
SEQEND
  5
118
  8
0
  0
POLYLINE
  5
5A
  8
0
 66
     1
 10
0.0
 20
0.0
 30
0.0
 70
     1
  0
VERTEX
  5
119
  8
0
 10
-54.13387567878441
 20
-22.61865783540448
 30
0.0
 42
-0.119981781904593
  0
VERTEX
  5
11A
  8
0
 10
-39.55712093399745
 20
-22.19843163156448
 30
0.0
 42
-0.0405941338144821
  0
VERTEX
  5
11B
  8
0
 10
-37.55157776226785
 20
-15.69067471050171
 30
0.0
 42
-0.0405941338144518
  0
VERTEX
  5
11C
  8
0
 10
-43.59071101120033
 20
-12.54393462608592
 30
0.0
 42
-0.1199817819045527
  0
SEQEND
  5
11D
  8
0
  0
POLYLINE
  5
5B
  8
0
 66
     1
 10
0.0
 20
0.0
 30
0.0
 70
     1
  0
VERTEX
  5
11E
  8
0
 10
-15.66935371460144
 20
6.44584794095656
 30
0.0
 42
-0.106706294177685
  0
VERTEX
  5
11F
  8
0
 10
-18.45221338946576
 20
14.51302402462111
 30
0.0
 42
0.0979158220212613
  0
VERTEX
  5
120
  8
0
 10
-32.15260772441246
 20
13.22803414008988
 30
0.0
 42
0.0979158220212677
  0
VERTEX
  5
121
  8
0
 10
-23.32381610513599
 20
2.673203848713093
 30
0.0
 42
-0.1067062941776849
  0
SEQEND
  5
122
  8
0
  0
POLYLINE
  5
5C
  8
0
 66
     1
 10
0.0
 20
0.0
 30
0.0
 70
     1
  0
VERTEX
  5
123
  8
0
 10
-54.25533921365091
 20
22.32240594201242
 30
0.0
 42
0.119981781904593
  0
VERTEX
  5
124
  8
0
 10
-39.67652592744945
 20
21.98097934940595
 30
0.0
 42
0.0405941338144821
  0
VERTEX
  5
125
  8
0
 10
-37.63583490036365
 20
15.48415830451942
 30
0.0
 42
0.0405941338144518
  0
VERTEX
  5
126
  8
0
 10
-43.65787047156375
 20
12.3048201443933
 30
0.0
 42
0.1199817819045527
  0
SEQEND
  5
127
  8
0
  0
POLYLINE
  5
5D
  8
0
 66
     1
 10
0.0
 20
0.0
 30
0.0
 70
     1
  0
VERTEX
  5
128
  8
0
 10
-36.15401689088945
 20
35.80240128096606
 30
0.0
 42
0.0519793892255391
  0
VERTEX
  5
129
  8
0
 10
-36.54038850317205
 20
28.45751052104621
 30
0.0
 42
-0.20052994634865
  0
VERTEX
  5
12A
  8
0
 10
-25.93555951270845
 20
25.68300148083987
 30
0.0
 42
-0.20052994634865
  0
VERTEX
  5
12B
  8
0
 10
-28.81323823899885
 20
36.26030092255227
 30
0.0
 42
0.0519793892255391
  0
SEQEND
  5
12C
  8
0
  0
POLYLINE
  5
5E
  8
0
 66
     1
 10
0.0
 20
0.0
 30
0.0
 70
     1
  0
VERTEX
  5
12D
  8
0
 10
-45.27433912565733
 20
44.83431124385917
 30
0.0
 42
0.0979994984106507
  0
VERTEX
  5
12E
  8
0
 10
-58.93572022854538
 20
24.21515123490626
 30
0.0
 42
0.2207329410276748
  0
VERTEX
  5
12F
  8
0
 10
-41.11776699299654
 20
26.99236043340538
 30
0.0
 42
-0.0102436016900027
  0
VERTEX
  5
130
  8
0
 10
-40.59567688341227
 20
27.25047998026108
 30
0.0
 42
-0.073846416949171
  0
VERTEX
  5
131
  8
0
 10
-39.96390534248265
 20
39.57535672898187
 30
0.0
 42
-0.073846416949171
  0
VERTEX
  5
132
  8
0
 10
-27.64576740743365
 20
40.32715455045023
 30
0.0
 42
-0.0102436016900027
  0
VERTEX
  5
133
  8
0
 10
-27.39274577098775
 20
40.85173422455743
 30
0.0
 42
0.2207329410276748
  0
VERTEX
  5
134
  8
0
 10
-24.78923248318692
 20
58.69589480993185
 30
0.0
 42
0.0979994984106507
  0
SEQEND
  5
135
  8
0
  0
POLYLINE
  5
5F
  8
0
 66
     1
 10
0.0
 20
0.0
 30
0.0
 70
     1
  0
VERTEX
  5
136
  8
0
 10
-6.563067462647861
 20
15.61381504433874
 30
0.0
 42
-0.106706294177685
  0
VERTEX
  5
137
  8
0
 10
-2.845816095424023
 20
23.29533053333658
 30
0.0
 42
0.0979158220212613
  0
VERTEX
  5
138
  8
0
 10
-13.46414839682265
 20
32.04764583121344
 30
0.0
 42
0.0979158220212677
  0
VERTEX
  5
139
  8
0
 10
-14.65013587367263
 20
18.33832645929991
 30
0.0
 42
-0.1067062941776849
  0
SEQEND
  5
13A
  8
0
  0
POLYLINE
  5
60
  8
0
 66
     1
 10
0.0
 20
0.0
 30
0.0
 70
     1
  0
VERTEX
  5
13B
  8
0
 10
-22.71794857377055
 20
54.08410471285143
 30
0.0
 42
0.119981781904593
  0
VERTEX
  5
13C
  8
0
 10
-12.62407018233545
 20
43.55927749474509
 30
0.0
 42
0.0405941338144821
  0
VERTEX
  5
13D
  8
0
 10
-15.75982341941414
 20
37.51443215400534
 30
0.0
 42
0.0405941338144518
  0
VERTEX
  5
13E
  8
0
 10
-22.27121648898385
 20
39.50813821328078
 30
0.0
 42
0.1199817819045527
  0
SEQEND
  5
13F
  8
0
  0
POLYLINE
  5
61
  8
0
 66
     1
 10
0.0
 20
0.0
 30
0.0
 70
     1
  0
VERTEX
  5
140
  8
0
 10
18.9197880393757
 20
-18.82280333259083
 30
0.0
 42
-0.0907910673370903
  0
VERTEX
  5
141
  8
0
 10
17.04115328790485
 20
-33.83655622815305
 30
0.0
 42
0.0460855044298907
  0
VERTEX
  5
142
  8
0
 10
23.27670215442698
 20
-35.75783036418593
 30
0.0
 42
0.1590021230671486
  0
VERTEX
  5
143
  8
0
 10
21.66390105357744
 20
-21.55403121035933
 30
0.0
 42
0.1590021230671486
  0
VERTEX
  5
144
  8
0
 10
35.87513366341398
 20
-23.09996313042418
 30
0.0
 42
0.0460855044298907
  0
VERTEX
  5
145
  8
0
 10
33.92453269767324
 20
-16.87352595937456
 30
0.0
 42
-0.0907910673370903
  0
SEQEND
  5
146
  8
0
  0
POLYLINE
  5
62
  8
0
 66
     1
 10
0.0
 20
0.0
 30
0.0
 70
     1
  0
VERTEX
  5
147
  8
0
 10
0.0800020008618709
 20
-26.67849143722221
 30
0.0
 42
0.0907910673370903
  0
VERTEX
  5
148
  8
0
 10
12.06830594772905
 20
-35.91010088606512
 30
0.0
 42
-0.0460855044298907
  0
VERTEX
  5
149
  8
0
 10
9.044833171710682
 20
-41.69214000260981
 30
0.0
 42
-0.1590021230671486
  0
VERTEX
  5
14A
  8
0
 10
0.0891131681647472
 20
-30.55014211124225
 30
0.0
 42
-0.1590021230671486
  0
VERTEX
  5
14B
  8
0
 10
-8.814066936960554
 20
-41.73416740663824
 30
0.0
 42
-0.0460855044298907
  0
VERTEX
  5
14C
  8
0
 10
-11.86471985478996
 20
-35.96642254859247
 30
0.0
 42
0.0907910673370903
  0
SEQEND
  5
14D
  8
0
  0
POLYLINE
  5
63
  8
0
 66
     1
 10
0.0
 20
0.0
 30
0.0
 70
     1
  0
VERTEX
  5
14E
  8
0
 10
-26.58930139497295
 20
0.0726084017098074
 30
0.0
 42
0.0907910673370903
  0
VERTEX
  5
14F
  8
0
 10
-35.89734358952177
 20
-11.85644835240739
 30
0.0
 42
-0.0460855044298907
  0
VERTEX
  5
150
  8
0
 10
-41.65994057334517
 20
-8.79608236537134
 30
0.0
 42
-0.1590021230671486
  0
VERTEX
  5
151
  8
0
 10
-30.46093122382005
 20
0.0882424476016936
 30
0.0
 42
-0.1590021230671486
  0
VERTEX
  5
152
  8
0
 10
-41.58782485656486
 20
9.062721590033084
 30
0.0
 42
-0.0460855044298907
  0
VERTEX
  5
153
  8
0
 10
-35.80070005044814
 20
12.07644859342978
 30
0.0
 42
0.0907910673370903
  0
SEQEND
  5
154
  8
0
  0
POLYLINE
  5
64
  8
0
 66
     1
 10
0.0
 20
0.0
 30
0.0
 70
     1
  0
VERTEX
  5
155
  8
0
 10
-18.85418517693791
 20
-18.81700119371919
 30
0.0
 42
-0.0907910673370903
  0
VERTEX
  5
156
  8
0
 10
-33.85562443028186
 20
-16.84244684737702
 30
0.0
 42
0.0460855044298907
  0
VERTEX
  5
157
  8
0
 10
-35.81671282351144
 20
-23.06558884210252
 30
0.0
 42
0.1590021230671486
  0
VERTEX
  5
158
  8
0
 10
-21.60289582299506
 20
-21.5436019601058
 30
0.0
 42
0.1590021230671486
  0
VERTEX
  5
159
  8
0
 10
-23.23962495512604
 20
-35.74466373521224
 30
0.0
 42
0.0460855044298907
  0
VERTEX
  5
15A
  8
0
 10
-17.00084800827411
 20
-33.83389787304977
 30
0.0
 42
-0.0907910673370903
  0
SEQEND
  5
15B
  8
0
  0
POLYLINE
  5
65
  8
0
 66
     1
 10
0.0
 20
0.0
 30
0.0
 70
     1
  0
VERTEX
  5
15C
  8
0
 10
26.68704794209376
 20
0.0545489216584727
 30
0.0
 42
0.0907910673370903
  0
VERTEX
  5
15D
  8
0
 10
35.91865739105936
 20
12.04285286843149
 30
0.0
 42
-0.0460855044298907
  0
VERTEX
  5
15E
  8
0
 10
41.70069650757264
 20
9.019380092353721
 30
0.0
 42
-0.1590021230671486
  0
VERTEX
  5
15F
  8
0
 10
30.55869861611399
 20
0.0636600889218144
 30
0.0
 42
-0.1590021230671486
  0
VERTEX
  5
160
  8
0
 10
41.74272391141895
 20
-8.83952001631743
 30
0.0
 42
-0.0460855044298907
  0
VERTEX
  5
161
  8
0
 10
35.97497905334161
 20
-11.89017293408803
 30
0.0
 42
0.0907910673370903
  0
SEQEND
  5
162
  8
0
  0
POLYLINE
  5
66
  8
0
 66
     1
 10
0.0
 20
0.0
 30
0.0
 70
     1
  0
VERTEX
  5
163
  8
0
 10
18.831359837655
 20
18.89433496025282
 30
0.0
 42
-0.0907910673370903
  0
VERTEX
  5
164
  8
0
 10
33.84511273319787
 20
17.01570020862821
 30
0.0
 42
0.0460855044298907
  0
VERTEX
  5
165
  8
0
 10
35.76638686929446
 20
23.25124907513087
 30
0.0
 42
0.1590021230671486
  0
VERTEX
  5
166
  8
0
 10
21.56258771545126
 20
21.63844797442651
 30
0.0
 42
0.1590021230671486
  0
VERTEX
  5
167
  8
0
 10
23.10851963566106
 20
35.84968058424719
 30
0.0
 42
0.0460855044298907
  0
VERTEX
  5
168
  8
0
 10
16.88208246459164
 20
33.89907961857015
 30
0.0
 42
-0.0907910673370903
  0
SEQEND
  5
169
  8
0
  0
POLYLINE
  5
67
  8
0
 66
     1
 10
0.0
 20
0.0
 30
0.0
 70
     1
  0
VERTEX
  5
16A
  8
0
 10
-18.94187893595165
 20
18.65871076008378
 30
0.0
 42
-0.0907910673370903
  0
VERTEX
  5
16B
  8
0
 10
-17.15924052070465
 20
33.6841639918146
 30
0.0
 42
0.0460855044298907
  0
VERTEX
  5
16C
  8
0
 10
-23.40694153923195
 20
35.56554538740464
 30
0.0
 42
0.1590021230671486
  0
VERTEX
  5
16D
  8
0
 10
-21.70339210197917
 20
21.372344299983
 30
0.0
 42
0.1590021230671486
  0
VERTEX
  5
16E
  8
0
 10
-35.92421502314426
 20
22.82741585740255
 30
0.0
 42
0.0460855044298907
  0
VERTEX
  5
16F
  8
0
 10
-33.93385863518856
 20
16.61357280969847
 30
0.0
 42
-0.0907910673370903
  0
SEQEND
  5
170
  8
0
  0
POLYLINE
  5
68
  8
0
 66
     1
 10
0.0
 20
0.0
 30
0.0
 70
     1
  0
VERTEX
  5
171
  8
0
 10
-0.1526860522844339
 20
26.6346498492813
 30
0.0
 42
0.0907910673370903
  0
VERTEX
  5
172
  8
0
 10
-12.19974747420306
 20
35.78944944484651
 30
0.0
 42
-0.0460855044298907
  0
VERTEX
  5
173
  8
0
 10
-9.21329141684296
 20
41.5906945000078
 30
0.0
 42
-0.1590021230671486
  0
VERTEX
  5
174
  8
0
 10
-0.1865420605553503
 20
30.50616321303367
 30
0.0
 42
-0.1590021230671486
  0
VERTEX
  5
175
  8
0
 10
8.644975315895724
 20
41.74686330785912
 30
0.0
 42
-0.0460855044298907
  0
VERTEX
  5
176
  8
0
 10
11.73242953010083
 20
35.99873400801179
 30
0.0
 42
0.0907910673370903
  0
SEQEND
  5
177
  8
0
  0
POLYLINE
  5
69
  8
0
 66
     1
 10
0.0
 20
0.0
 30
0.0
 70
     1
  0
VERTEX
  5
178
  8
0
 10
-0.0173609614792269
 20
67.62184005854242
 30
0.0
 42
0.4142135623730951
  0
VERTEX
  5
179
  8
0
 10
-67.64830844050141
 20
-0.009107420479765
 30
0.0
 42
0.4142135623730951
  0
VERTEX
  5
17A
  8
0
 10
-0.0173609614792269
 20
-67.64005489950195
 30
0.0
 42
0.4142135623730951
  0
VERTEX
  5
17B
  8
0
 10
67.61358651754296
 20
-0.009107420479765
 30
0.0
 42
0.4142135623730951
  0
SEQEND
  5
17C
  8
0
  0
ENDSEC
  0
EOF
