  0
SECTION
  2
HEADER
  9
$ACADVER
  1
AC1015
  9
$ACADMAINTVER
 70
    20
  9
$DWGCODEPAGE
  3
ANSI_1252
  9
$INSBASE
 10
0.0
 20
0.0
 30
0.0
  9
$EXTMIN
 10
-77.31984501137413
 20
-110.8477594814294
 30
0.0
  9
$EXTMAX
 10
177.0669791285854
 20
484.6195622319236
 30
0.0
  9
$LIMMIN
 10
0.0
 20
0.0
  9
$LIMMAX
 10
420.0
 20
297.0
  9
$ORTHOMODE
 70
     0
  9
$REGENMODE
 70
     1
  9
$FILLMODE
 70
     1
  9
$QTEXTMODE
 70
     0
  9
$MIRRTEXT
 70
     0
  9
$LTSCALE
 40
1.0
  9
$ATTMODE
 70
     1
  9
$TEXTSIZE
 40
2.5
  9
$TRACEWID
 40
1.0
  9
$TEXTSTYLE
  7
Standard
  9
$CLAYER
  8
0
  9
$CELTYPE
  6
ByLayer
  9
$CECOLOR
 62
   256
  9
$CELTSCALE
 40
1.0
  9
$DISPSILH
 70
     0
  9
$DIMSCALE
 40
1.0
  9
$DIMASZ
 40
2.5
  9
$DIMEXO
 40
0.625
  9
$DIMDLI
 40
3.75
  9
$DIMRND
 40
0.0
  9
$DIMDLE
 40
0.0
  9
$DIMEXE
 40
1.25
  9
$DIMTP
 40
0.0
  9
$DIMTM
 40
0.0
  9
$DIMTXT
 40
2.5
  9
$DIMCEN
 40
2.5
  9
$DIMTSZ
 40
0.0
  9
$DIMTOL
 70
     0
  9
$DIMLIM
 70
     0
  9
$DIMTIH
 70
     0
  9
$DIMTOH
 70
     0
  9
$DIMSE1
 70
     0
  9
$DIMSE2
 70
     0
  9
$DIMTAD
 70
     1
  9
$DIMZIN
 70
     8
  9
$DIMBLK
  1

  9
$DIMASO
 70
     1
  9
$DIMSHO
 70
     1
  9
$DIMPOST
  1

  9
$DIMAPOST
  1

  9
$DIMALT
 70
     0
  9
$DIMALTD
 70
     3
  9
$DIMALTF
 40
0.03937007874016
  9
$DIMLFAC
 40
1.0
  9
$DIMTOFL
 70
     1
  9
$DIMTVP
 40
0.0
  9
$DIMTIX
 70
     0
  9
$DIMSOXD
 70
     0
  9
$DIMSAH
 70
     0
  9
$DIMBLK1
  1

  9
$DIMBLK2
  1

  9
$DIMSTYLE
  2
ISO-25
  9
$DIMCLRD
 70
     0
  9
$DIMCLRE
 70
     0
  9
$DIMCLRT
 70
     0
  9
$DIMTFAC
 40
1.0
  9
$DIMGAP
 40
0.625
  9
$DIMJUST
 70
     0
  9
$DIMSD1
 70
     0
  9
$DIMSD2
 70
     0
  9
$DIMTOLJ
 70
     0
  9
$DIMTZIN
 70
     8
  9
$DIMALTZ
 70
     0
  9
$DIMALTTZ
 70
     0
  9
$DIMUPT
 70
     0
  9
$DIMDEC
 70
     2
  9
$DIMTDEC
 70
     2
  9
$DIMALTU
 70
     2
  9
$DIMALTTD
 70
     3
  9
$DIMTXSTY
  7
Standard
  9
$DIMAUNIT
 70
     0
  9
$DIMADEC
 70
     0
  9
$DIMALTRND
 40
0.0
  9
$DIMAZIN
 70
     0
  9
$DIMDSEP
 70
    44
  9
$DIMATFIT
 70
     3
  9
$DIMFRAC
 70
     0
  9
$DIMLDRBLK
  1

  9
$DIMLUNIT
 70
     2
  9
$DIMLWD
 70
    -2
  9
$DIMLWE
 70
    -2
  9
$DIMTMOVE
 70
     0
  9
$LUNITS
 70
     2
  9
$LUPREC
 70
     4
  9
$SKETCHINC
 40
1.0
  9
$FILLETRAD
 40
0.0
  9
$AUNITS
 70
     0
  9
$AUPREC
 70
     0
  9
$MENU
  1
.
  9
$ELEVATION
 40
0.0
  9
$PELEVATION
 40
0.0
  9
$THICKNESS
 40
0.0
  9
$LIMCHECK
 70
     0
  9
$CHAMFERA
 40
0.0
  9
$CHAMFERB
 40
0.0
  9
$CHAMFERC
 40
0.0
  9
$CHAMFERD
 40
0.0
  9
$SKPOLY
 70
     0
  9
$TDCREATE
 40
2453265.979312245
  9
$TDUCREATE
 40
2453265.937645579
  9
$TDUPDATE
 40
2457351.527501979
  9
$TDUUPDATE
 40
2457351.485835312
  9
$TDINDWG
 40
0.0019400116
  9
$TDUSRTIMER
 40
0.0019387384
  9
$USRTIMER
 70
     1
  9
$ANGBASE
 50
0.0
  9
$ANGDIR
 70
     0
  9
$PDMODE
 70
     0
  9
$PDSIZE
 40
0.0
  9
$PLINEWID
 40
0.0
  9
$SPLFRAME
 70
     0
  9
$SPLINETYPE
 70
     6
  9
$SPLINESEGS
 70
     8
  9
$HANDSEED
  5
263
  9
$SURFTAB1
 70
     6
  9
$SURFTAB2
 70
     6
  9
$SURFTYPE
 70
     6
  9
$SURFU
 70
     6
  9
$SURFV
 70
     6
  9
$UCSBASE
  2

  9
$UCSNAME
  2

  9
$UCSORG
 10
0.0
 20
0.0
 30
0.0
  9
$UCSXDIR
 10
1.0
 20
0.0
 30
0.0
  9
$UCSYDIR
 10
0.0
 20
1.0
 30
0.0
  9
$UCSORTHOREF
  2

  9
$UCSORTHOVIEW
 70
     0
  9
$UCSORGTOP
 10
0.0
 20
0.0
 30
0.0
  9
$UCSORGBOTTOM
 10
0.0
 20
0.0
 30
0.0
  9
$UCSORGLEFT
 10
0.0
 20
0.0
 30
0.0
  9
$UCSORGRIGHT
 10
0.0
 20
0.0
 30
0.0
  9
$UCSORGFRONT
 10
0.0
 20
0.0
 30
0.0
  9
$UCSORGBACK
 10
0.0
 20
0.0
 30
0.0
  9
$PUCSBASE
  2

  9
$PUCSNAME
  2

  9
$PUCSORG
 10
0.0
 20
0.0
 30
0.0
  9
$PUCSXDIR
 10
1.0
 20
0.0
 30
0.0
  9
$PUCSYDIR
 10
0.0
 20
1.0
 30
0.0
  9
$PUCSORTHOREF
  2

  9
$PUCSORTHOVIEW
 70
     0
  9
$PUCSORGTOP
 10
0.0
 20
0.0
 30
0.0
  9
$PUCSORGBOTTOM
 10
0.0
 20
0.0
 30
0.0
  9
$PUCSORGLEFT
 10
0.0
 20
0.0
 30
0.0
  9
$PUCSORGRIGHT
 10
0.0
 20
0.0
 30
0.0
  9
$PUCSORGFRONT
 10
0.0
 20
0.0
 30
0.0
  9
$PUCSORGBACK
 10
0.0
 20
0.0
 30
0.0
  9
$USERI1
 70
     0
  9
$USERI2
 70
     0
  9
$USERI3
 70
     0
  9
$USERI4
 70
     0
  9
$USERI5
 70
     0
  9
$USERR1
 40
0.0
  9
$USERR2
 40
0.0
  9
$USERR3
 40
0.0
  9
$USERR4
 40
0.0
  9
$USERR5
 40
0.0
  9
$WORLDVIEW
 70
     1
  9
$SHADEDGE
 70
     3
  9
$SHADEDIF
 70
    70
  9
$TILEMODE
 70
     1
  9
$MAXACTVP
 70
    64
  9
$PINSBASE
 10
0.0
 20
0.0
 30
0.0
  9
$PLIMCHECK
 70
     0
  9
$PEXTMIN
 10
0.0
 20
0.0
 30
0.0
  9
$PEXTMAX
 10
0.0
 20
0.0
 30
0.0
  9
$PLIMMIN
 10
0.0
 20
0.0
  9
$PLIMMAX
 10
12.0
 20
9.0
  9
$UNITMODE
 70
     0
  9
$VISRETAIN
 70
     1
  9
$PLINEGEN
 70
     0
  9
$PSLTSCALE
 70
     1
  9
$TREEDEPTH
 70
  3020
  9
$CMLSTYLE
  2
Standard
  9
$CMLJUST
 70
     0
  9
$CMLSCALE
 40
20.0
  9
$PROXYGRAPHICS
 70
     1
  9
$MEASUREMENT
 70
     1
  9
$CELWEIGHT
370
    -1
  9
$ENDCAPS
280
     0
  9
$JOINSTYLE
280
     0
  9
$LWDISPLAY
290
     0
  9
$INSUNITS
 70
     4
  9
$HYPERLINKBASE
  1

  9
$STYLESHEET
  1

  9
$XEDIT
290
     1
  9
$CEPSNTYPE
380
     0
  9
$PSTYLEMODE
290
     1
  9
$FINGERPRINTGUID
  2
{DE7B6F6C-6920-4245-B167-6429B4BDBF64}
  9
$VERSIONGUID
  2
{B466CAD6-7001-4ED4-ABFF-7F5B47B47033}
  9
$EXTNAMES
290
     1
  9
$PSVPSCALE
 40
0.0
  9
$OLESTARTUP
290
     0
  0
ENDSEC
  0
SECTION
  2
CLASSES
  0
CLASS
  1
ACDBDICTIONARYWDFLT
  2
AcDbDictionaryWithDefault
  3
ObjectDBX Classes
 90
        0
280
     0
281
     0
  0
CLASS
  1
ACDBPLACEHOLDER
  2
AcDbPlaceHolder
  3
ObjectDBX Classes
 90
        0
280
     0
281
     0
  0
CLASS
  1
LAYOUT
  2
AcDbLayout
  3
ObjectDBX Classes
 90
        0
280
     0
281
     0
  0
CLASS
  1
DICTIONARYVAR
  2
AcDbDictionaryVar
  3
ObjectDBX Classes
 90
        0
280
     0
281
     0
  0
CLASS
  1
TABLESTYLE
  2
AcDbTableStyle
  3
ObjectDBX Classes
 90
     4095
280
     0
281
     0
  0
CLASS
  1
MATERIAL
  2
AcDbMaterial
  3
ObjectDBX Classes
 90
     1153
280
     0
281
     0
  0
CLASS
  1
VISUALSTYLE
  2
AcDbVisualStyle
  3
ObjectDBX Classes
 90
     4095
280
     0
281
     0
  0
CLASS
  1
SCALE
  2
AcDbScale
  3
ObjectDBX Classes
 90
     1153
280
     0
281
     0
  0
CLASS
  1
MLEADERSTYLE
  2
AcDbMLeaderStyle
  3
ACDB_MLEADERSTYLE_CLASS
 90
     4095
280
     0
281
     0
  0
CLASS
  1
CELLSTYLEMAP
  2
AcDbCellStyleMap
  3
ObjectDBX Classes
 90
     1152
280
     0
281
     0
  0
ENDSEC
  0
SECTION
  2
TABLES
  0
TABLE
  2
VPORT
  5
8
330
0
100
AcDbSymbolTable
 70
     1
  0
VPORT
  5
EA
330
8
100
AcDbSymbolTableRecord
100
AcDbViewportTableRecord
  2
*Active
 70
     0
 10
0.0
 20
0.0
 11
1.0
 21
1.0
 12
-244.3960613049444
 22
54.04635635770194
 13
0.0
 23
0.0
 14
10.0
 24
10.0
 15
10.0
 25
10.0
 16
0.0
 26
0.0
 36
1.0
 17
0.0
 27
0.0
 37
0.0
 40
842.06632949258
 41
2.520958083832335
 42
50.0
 43
0.0
 44
0.0
 50
0.0
 51
0.0
 71
     0
 72
  1000
 73
     1
 74
     3
 75
     0
 76
     0
 77
     0
 78
     0
281
     0
 65
     1
110
0.0
120
0.0
130
0.0
111
1.0
121
0.0
131
0.0
112
0.0
122
1.0
132
0.0
 79
     0
146
0.0
  0
ENDTAB
  0
TABLE
  2
LTYPE
  5
5
330
0
100
AcDbSymbolTable
 70
     1
  0
LTYPE
  5
14
330
5
100
AcDbSymbolTableRecord
100
AcDbLinetypeTableRecord
  2
ByBlock
 70
     0
  3

 72
    65
 73
     0
 40
0.0
  0
LTYPE
  5
15
330
5
100
AcDbSymbolTableRecord
100
AcDbLinetypeTableRecord
  2
ByLayer
 70
     0
  3

 72
    65
 73
     0
 40
0.0
  0
LTYPE
  5
16
330
5
100
AcDbSymbolTableRecord
100
AcDbLinetypeTableRecord
  2
Continuous
 70
     0
  3
Solid line
 72
    65
 73
     0
 40
0.0
  0
ENDTAB
  0
TABLE
  2
LAYER
  5
2
330
0
100
AcDbSymbolTable
 70
     1
  0
LAYER
  5
10
102
{ACAD_XDICTIONARY
360
252
102
}
330
2
100
AcDbSymbolTableRecord
100
AcDbLayerTableRecord
  2
0
 70
     0
 62
     7
  6
Continuous
370
    -3
390
F
  0
ENDTAB
  0
TABLE
  2
STYLE
  5
3
330
0
100
AcDbSymbolTable
 70
     1
  0
STYLE
  5
11
330
3
100
AcDbSymbolTableRecord
100
AcDbTextStyleTableRecord
  2
Standard
 70
     0
 40
0.0
 41
1.0
 50
0.0
 71
     0
 42
2.5
  3
txt
  4

  0
ENDTAB
  0
TABLE
  2
VIEW
  5
6
330
0
100
AcDbSymbolTable
 70
     0
  0
ENDTAB
  0
TABLE
  2
UCS
  5
7
330
0
100
AcDbSymbolTable
 70
     0
  0
ENDTAB
  0
TABLE
  2
APPID
  5
9
330
0
100
AcDbSymbolTable
 70
     4
  0
APPID
  5
12
330
9
100
AcDbSymbolTableRecord
100
AcDbRegAppTableRecord
  2
ACAD
 70
     0
  0
APPID
  5
9E
330
9
100
AcDbSymbolTableRecord
100
AcDbRegAppTableRecord
  2
ACAD_PSEXT
 70
     0
  0
APPID
  5
21E
330
9
100
AcDbSymbolTableRecord
100
AcDbRegAppTableRecord
  2
ACAD_EXEMPT_FROM_CAD_STANDARDS
 70
     0
  0
APPID
  5
24E
330
9
100
AcDbSymbolTableRecord
100
AcDbRegAppTableRecord
  2
ACAD_MLEADERVER
 70
     0
  0
ENDTAB
  0
TABLE
  2
DIMSTYLE
  5
A
330
0
100
AcDbSymbolTable
 70
     1
100
AcDbDimStyleTable
 71
     1
340
27
  0
DIMSTYLE
105
27
330
A
100
AcDbSymbolTableRecord
100
AcDbDimStyleTableRecord
  2
ISO-25
 70
     0
 41
2.5
 42
0.625
 43
3.75
 44
1.25
 73
     0
 74
     0
 77
     1
 78
     8
140
2.5
141
2.5
143
0.03937007874016
147
0.625
171
     3
172
     1
271
     2
272
     2
274
     3
278
    44
283
     0
284
     8
340
11
  0
ENDTAB
  0
TABLE
  2
BLOCK_RECORD
  5
1
330
0
100
AcDbSymbolTable
 70
     1
  0
BLOCK_RECORD
  5
1F
330
1
100
AcDbSymbolTableRecord
100
AcDbBlockTableRecord
  2
*Model_Space
340
22
  0
BLOCK_RECORD
  5
D2
330
1
100
AcDbSymbolTableRecord
100
AcDbBlockTableRecord
  2
*Paper_Space
340
D3
  0
BLOCK_RECORD
  5
D6
330
1
100
AcDbSymbolTableRecord
100
AcDbBlockTableRecord
  2
*Paper_Space0
340
D7
  0
ENDTAB
  0
ENDSEC
  0
SECTION
  2
BLOCKS
  0
BLOCK
  5
20
330
1F
100
AcDbEntity
  8
0
100
AcDbBlockBegin
  2
*Model_Space
 70
     0
 10
0.0
 20
0.0
 30
0.0
  3
*Model_Space
  1

  0
ENDBLK
  5
21
330
1F
100
AcDbEntity
  8
0
100
AcDbBlockEnd
  0
BLOCK
  5
D4
330
D2
100
AcDbEntity
 67
     1
  8
0
100
AcDbBlockBegin
  2
*Paper_Space
 70
     0
 10
0.0
 20
0.0
 30
0.0
  3
*Paper_Space
  1

  0
ENDBLK
  5
D5
330
D2
100
AcDbEntity
 67
     1
  8
0
100
AcDbBlockEnd
  0
BLOCK
  5
D8
330
D6
100
AcDbEntity
 67
     1
  8
0
100
AcDbBlockBegin
  2
*Paper_Space0
 70
     0
 10
0.0
 20
0.0
 30
0.0
  3
*Paper_Space0
  1

  0
ENDBLK
  5
D9
330
D6
100
AcDbEntity
 67
     1
  8
0
100
AcDbBlockEnd
  0
ENDSEC
  0
SECTION
  2
ENTITIES
  0
LWPOLYLINE
  5
19C
330
1F
100
AcDbEntity
  8
0
100
AcDbPolyline
 90
        5
 70
     1
 43
0.0
 10
53.45765658988281
 20
102.7526325569319
 42
-0.3798591505528233
 10
61.57251111894033
 20
120.0210451220327
 42
0.2063838640383961
 10
75.94015460855274
 20
138.4041235513354
 10
75.94015460854866
 20
167.6279240995385
 42
-0.2704753536268523
 10
32.71891220425364
 20
103.6550467618967
 42
-0.1662584843720394
  0
LWPOLYLINE
  5
19D
330
1F
100
AcDbEntity
  8
0
100
AcDbPolyline
 90
        5
 70
     1
 43
0.0
 10
8.250056377085442
 20
92.86929613238857
 42
-0.6533694035196717
 10
3.891376117465355
 20
88.89157705962674
 42
0.4639630987702094
 10
15.23459772780364
 20
90.45103163598872
 42
-0.1147608636477041
 10
28.12235695124585
 20
101.6117512816849
 42
-0.0797510464484407
 10
4.450903002179998
 20
96.16151991802276
 42
-0.2935501402213925
  0
LWPOLYLINE
  5
19E
330
1F
100
AcDbEntity
  8
0
100
AcDbPolyline
 90
        4
 70
     1
 43
0.0
 10
75.94015460856414
 20
65.15127845698185
 10
75.94015460859734
 20
38.8660756488834
 42
-0.1698146150863812
 10
70.61780033000104
 20
45.06847595098633
 42
0.072923319419299
 10
69.40849119804624
 20
50.4057138238527
 42
0.1600261125290125
  0
LWPOLYLINE
  5
19F
330
1F
100
AcDbEntity
  8
0
100
AcDbPolyline
 90
        6
 70
     1
 43
0.0
 10
61.92607057275015
 20
73.48600531793454
 42
-0.2112051902526702
 10
54.42175308793506
 20
57.03500721390168
 42
-0.2606764070854834
 10
66.57029645047663
 20
53.34186806892972
 42
0.1602918391105464
 10
72.37318868120382
 20
66.49431926067655
 42
-0.6510871429067016
 10
72.83082606443983
 20
77.69017993070889
 42
0.1026439396241659
 10
67.09214627687194
 20
88.05125203849451
 42
0.1515391406688871
  0
ARC
  5
1A0
330
1F
100
AcDbEntity
  8
0
100
AcDbCircle
 10
70.77858177828193
 20
83.7054594637807
 30
0.0
 40
13.69932459267176
100
AcDbArc
 50
110.2537236976522
 51
116.5304144897895
  0
LWPOLYLINE
  5
1A1
330
1F
100
AcDbEntity
  8
0
100
AcDbPolyline
 90
        5
 70
     1
 43
0.0
 10
34.64323003727936
 20
100.9636990692965
 42
-0.2364833296510486
 10
61.77274929674553
 20
94.02856343545176
 42
0.1926955451524709
 10
57.13718436357246
 20
84.96393905016885
 42
0.2281096029680691
 10
45.83714176007925
 20
92.15033894291172
 42
-0.3042667830513773
 10
34.64323003727936
 20
100.9636990692965
  0
LWPOLYLINE
  5
1A2
330
1F
100
AcDbEntity
  8
0
100
AcDbPolyline
 90
        8
 70
     1
 43
0.0
 10
28.65794832441224
 20
78.29428808543702
 42
-0.4081604945718297
 10
17.73361572303064
 20
82.32984012385889
 42
0.1429655504265796
 10
24.25637702321405
 20
61.70030602809084
 42
0.2152049604648121
 10
36.27672633009524
 20
54.19325718922488
 42
0.3456327475088307
 10
33.33363593242484
 20
62.63494480246754
 42
-0.2290030314993337
 10
32.65144112765295
 20
68.9689596767567
 42
-0.1628894613805286
 10
25.76496529961195
 20
67.69941140131459
 42
0.4528899105998863
 10
28.65794832441224
 20
78.29428808543702
  0
LWPOLYLINE
  5
1A3
330
1F
100
AcDbEntity
  8
0
100
AcDbPolyline
 90
        6
 70
     1
 43
0.0
 10
52.52625610827997
 20
85.56841277242074
 42
-0.6886972632618214
 10
37.64630366940804
 20
54.06361960664259
 42
0.3160362398082225
 10
41.91271886829463
 20
67.15587236381868
 42
0.111972360235928
 10
46.64176635845294
 20
65.95085907368456
 42
-0.4528899105999053
 10
45.55148989345886
 20
76.87935668147435
 42
0.9925526602544939
 10
38.82074598938374
 20
82.01125608339458
 42
-0.5136113667349718
  0
LWPOLYLINE
  5
1A4
330
1F
100
AcDbEntity
  8
0
100
AcDbPolyline
 90
        4
 70
     1
 43
0.0
 10
38.76032224921985
 20
88.96417913074486
 42
0.2522281907949313
 10
36.14858114702564
 20
82.23506527914963
 42
0.879300971328149
 10
28.30242454947705
 20
79.25031454142254
 42
-0.5520589857442151
 10
33.30327401225254
 20
100.5815370041108
 42
0.60959153062275
  0
ARC
  5
1A5
330
1F
100
AcDbEntity
  8
0
100
AcDbCircle
 10
40.96840635519945
 20
69.51502991185868
 30
0.0
 40
35.50661348279048
100
AcDbArc
 50
48.14640606369912
 51
48.46692032358324
  0
LWPOLYLINE
  5
1A6
330
1F
100
AcDbEntity
  8
0
100
AcDbPolyline
 90
        3
 70
     1
 43
0.0
 10
75.94015460855962
 20
97.1204731261422
 42
-0.2380666773181448
 10
69.49931745389495
 20
90.65046728359437
 42
-0.1028355526565236
 10
75.94015460856144
 20
81.0909123457327
  0
LWPOLYLINE
  5
1A7
330
1F
100
AcDbEntity
  8
0
100
AcDbPolyline
 90
        5
 70
     1
 43
0.0
 10
68.02862506777683
 20
-51.06841817132499
 42
0.1024831887439783
 10
72.58689543079615
 20
-37.11323666136428
 42
-0.3909757424603064
 10
62.34535232203504
 20
-40.55997582226336
 42
-0.0959223470793783
 10
58.77960122578355
 20
-56.15950341393315
 42
-0.31710688686892
 10
62.59658918200606
 20
-55.13719064821311
 42
-0.9006143572752501
  0
ARC
  5
1A8
330
1F
100
AcDbEntity
  8
0
100
AcDbCircle
 10
70.59828134892083
 20
-57.46094164020547
 30
0.0
 40
3.412055595803392
100
AcDbArc
 50
251.620199126748
 51
83.23931534147355
  0
LWPOLYLINE
  5
1A9
330
1F
100
AcDbEntity
  8
0
100
AcDbPolyline
 90
        3
 70
     1
 43
0.0
 10
75.94015460857594
 20
-10.42739663951533
 42
-0.3006549574458125
 10
66.02015444520197
 20
-12.37162439473332
 42
-0.1746320148004017
 10
75.94015460857915
 20
-32.67722555079945
  0
LWPOLYLINE
  5
1AA
330
1F
100
AcDbEntity
  8
0
100
AcDbPolyline
 90
        4
 70
     1
 43
0.0
 10
75.94015460859782
 20
5.507043026218582
 42
-0.2165070509699818
 10
67.25398866817704
 20
-5.16831587113711
 42
-0.2140680944859479
 10
71.38980092176095
 20
-7.64734537774035
 42
0.3872956105616034
 10
75.94015460857594
 20
-9.756983904434946
  0
LWPOLYLINE
  5
1AB
330
1F
100
AcDbEntity
  8
0
100
AcDbPolyline
 90
        6
 70
     1
 43
0.0
 10
64.65946595500781
 20
95.96220927100018
 42
-0.4882264210024091
 10
64.80691065086825
 20
114.7673977442932
 42
0.2525112784523236
 10
75.94015460855366
 20
131.0471163567689
 10
75.94015460855866
 20
103.4111736386352
 42
0.2865168591725529
 10
67.71330918152947
 20
110.2985597308892
 42
-0.4633993154627142
 10
66.03617657657747
 20
96.55773891912486
 42
-0.0868131895876832
  0
LWPOLYLINE
  5
1AC
330
1F
100
AcDbEntity
  8
0
100
AcDbPolyline
 90
        6
 70
     1
 43
0.0
 10
55.89677005129755
 20
-70.57996185139245
 42
-0.0010977557028438
 10
61.34945715765664
 20
-61.78294266359211
 42
-0.4619115439574764
 10
58.03900284208833
 20
-57.74587156023565
 42
-0.0787170598279427
 10
50.44330288430405
 20
-68.50586241860217
 42
0.3629761212961757
 10
50.45846390732004
 20
-101.4237636251109
 42
0.3899753992398629
 10
54.97544663331746
 20
-88.35329467278688
 42
-0.266703428013048
  0
LWPOLYLINE
  5
1AD
330
1F
100
AcDbEntity
  8
0
100
AcDbPolyline
 90
        4
 70
     1
 43
0.0
 10
-0.689845201436583
 20
95.98889109857868
 42
-0.010810703808064
 10
-4.002380522363608
 20
96.06052114649259
 42
-0.2672272970200521
 10
-0.689845201436583
 20
92.8122425361276
 42
-0.2672272970200645
 10
2.622690119490485
 20
96.06052114649305
 42
-0.0108107038080463
  0
LWPOLYLINE
  5
1AE
330
1F
100
AcDbEntity
  8
0
100
AcDbPolyline
 90
       13
 70
     1
 43
0.0
 10
-12.24193246789764
 20
51.12418717257288
 42
-0.2253271735862257
 10
-15.26512809857331
 20
70.79942103303437
 42
0.0998172308475478
 10
-17.0493552196649
 20
84.04875095282068
 42
0.6343203500976175
 10
-0.6898452014352188
 20
90.30514774472237
 42
0.6343203500975906
 10
15.66966481679265
 20
84.04875095282113
 42
0.0998172308475519
 10
13.88543769570054
 20
70.79942103303574
 42
-0.2253271735862068
 10
10.86224206502623
 20
51.12418717257288
 42
-0.1461691668487785
 10
4.003404295298409
 20
59.5889868179583
 42
0.6885794469361727
 10
8.047709227416788
 20
68.23445864379078
 42
-0.1761971707636142
 10
-0.6898452014361283
 20
80.82863212222902
 42
-0.1761971707636615
 10
-9.427399630290906
 20
68.23445864378943
 42
0.6885794469361342
 10
-5.383094698168861
 20
59.5889868179583
 42
-0.1461691668486831
 10
-12.24193246789764
 20
51.12418717257288
  0
LWPOLYLINE
  5
1AF
330
1F
100
AcDbEntity
  8
0
100
AcDbPolyline
 90
        5
 70
     1
 43
0.0
 10
-54.83734699266141
 20
102.7526325569297
 42
0.3798591505528233
 10
-62.95220152171941
 20
120.0210451220309
 42
-0.2063838640383961
 10
-77.3198450113332
 20
138.4041235513336
 10
-77.31984501132957
 20
167.6279240995367
 42
0.2704753536268523
 10
-34.09860260703272
 20
103.6550467618967
 42
0.1662584843720394
  0
LWPOLYLINE
  5
1B0
330
1F
100
AcDbEntity
  8
0
100
AcDbPolyline
 90
        5
 70
     1
 43
0.0
 10
-9.62974677986449
 20
92.86929613238857
 42
0.6533694035196717
 10
-5.271066520243508
 20
88.89157705962674
 42
-0.4639630987702094
 10
-16.61428813058228
 20
90.45103163598872
 42
0.1147608636477041
 10
-29.5020473540244
 20
101.6117512816835
 42
0.0797510464484407
 10
-5.830593404958563
 20
96.16151991802276
 42
0.2935501402213925
  0
ARC
  5
1B1
330
1F
100
AcDbEntity
  8
0
100
AcDbCircle
 10
-72.15827218106006
 20
83.7054594637807
 30
0.0
 40
13.69932459267176
100
AcDbArc
 50
63.46958551021048
 51
69.74627630234782
  0
LWPOLYLINE
  5
1B2
330
1F
100
AcDbEntity
  8
0
100
AcDbPolyline
 90
        5
 70
     1
 43
0.0
 10
-36.02292044005844
 20
100.9636990692947
 42
0.2364833296510486
 10
-63.15243969952462
 20
94.02856343544943
 42
-0.1926955451524709
 10
-58.51687476635152
 20
84.96393905016702
 42
-0.2281096029680691
 10
-47.21683216285874
 20
92.15033894290888
 42
0.3042667830513773
 10
-36.02292044005844
 20
100.9636990692947
  0
LWPOLYLINE
  5
1B3
330
1F
100
AcDbEntity
  8
0
100
AcDbPolyline
 90
        8
 70
     1
 43
0.0
 10
-30.03763872719037
 20
78.29428808543577
 42
0.4081604945718297
 10
-19.11330612580923
 20
82.32984012385889
 42
-0.1429655504265796
 10
-25.63606742599223
 20
61.70030602809084
 42
-0.2152049604648121
 10
-37.65641673287201
 20
54.19325718922249
 42
-0.3456327475088307
 10
-34.71332633520206
 20
62.63494480246669
 42
0.2290030314993337
 10
-34.03113153043114
 20
68.96895967675573
 42
0.1628894613805286
 10
-27.14465570239009
 20
67.69941140131459
 42
-0.4528899105998863
 10
-30.03763872719037
 20
78.29428808543577
  0
LWPOLYLINE
  5
1B4
330
1F
100
AcDbEntity
  8
0
100
AcDbPolyline
 90
        6
 70
     1
 43
0.0
 10
-53.90594651105858
 20
85.56841277241984
 42
0.6886972632618214
 10
-39.02599407218622
 20
54.06361960664117
 42
-0.3160362398082225
 10
-43.29240927107322
 20
67.15587236381771
 42
-0.111972360235928
 10
-48.0214567612311
 20
65.95085907368456
 42
0.4528899105999053
 10
-46.93118029623748
 20
76.87935668147156
 42
-0.9925526602544939
 10
-40.20043639216146
 20
82.01125608339323
 42
0.5136113667349718
  0
LWPOLYLINE
  5
1B5
330
1F
100
AcDbEntity
  8
0
100
AcDbPolyline
 90
        4
 70
     1
 43
0.0
 10
-40.1400126519984
 20
88.96417913074486
 42
-0.2522281907949313
 10
-37.52827154980424
 20
82.23506527914873
 42
-0.879300971328149
 10
-29.68211495225524
 20
79.25031454142254
 42
0.5520589857442151
 10
-34.68296441503117
 20
100.5815370041091
 42
-0.60959153062275
  0
ARC
  5
1B6
330
1F
100
AcDbEntity
  8
0
100
AcDbCircle
 10
-42.34809675797579
 20
69.51502991185634
 30
0.0
 40
35.50661348279048
100
AcDbArc
 50
131.5330796764167
 51
131.8535939363009
  0
LWPOLYLINE
  5
1B7
330
1F
100
AcDbEntity
  8
0
100
AcDbPolyline
 90
        3
 70
     1
 43
0.0
 10
-77.31984501135139
 20
-10.42739663951943
 42
0.3006549574458125
 10
-67.39984484797787
 20
-12.37162439473513
 42
0.1746320148004017
 10
-77.31984501135457
 20
-32.67722555080263
  0
LWPOLYLINE
  5
1B8
330
1F
100
AcDbEntity
  8
0
100
AcDbPolyline
 90
        4
 70
     1
 43
0.0
 10
-77.31984501137413
 20
5.50704302621574
 42
0.2165070509699818
 10
-68.63367907095335
 20
-5.168315871139327
 42
0.2140680944859479
 10
-72.76949132453592
 20
-7.647345377743477
 42
-0.3872956105616034
 10
-77.31984501135139
 20
-9.75698390443631
  0
LWPOLYLINE
  5
1B9
330
1F
100
AcDbEntity
  8
0
100
AcDbPolyline
 90
        6
 70
     1
 43
0.0
 10
-66.0391563577864
 20
95.96220927099825
 42
0.4882264210024091
 10
-66.18660105364779
 20
114.7673977442913
 42
-0.2525112784523236
 10
-77.3198450113341
 20
131.0471163567667
 10
-77.31984501133775
 20
103.4111736386325
 42
-0.2865168591725529
 10
-69.09299958430892
 20
110.2985597308874
 42
0.4633993154627142
 10
-67.41586697935599
 20
96.55773891912259
 42
0.0868131895876832
  0
LWPOLYLINE
  5
1BA
330
1F
100
AcDbEntity
  8
0
100
AcDbPolyline
 90
        4
 70
     1
 43
0.0
 10
-50.87855616364503
 20
-6.775640763030821
 42
0.1319796469686815
 10
-38.08172599961836
 20
2.657197333522674
 42
0.35389455030269
 10
-34.68524334979929
 20
-9.674279296631084
 42
0.4904277700997576
 10
-64.04206738478842
 20
-37.89452593407123
 42
-0.4542064797763704
  0
LWPOLYLINE
  5
1BB
330
1F
100
AcDbEntity
  8
0
100
AcDbPolyline
 90
        4
 70
     1
 43
0.0
 10
-0.6898452013424646
 20
95.98889109857868
 42
0.010810703808064
 10
2.622690119585058
 20
96.06052114649305
 42
0.2672272970200521
 10
-0.6898452013424646
 20
92.8122425361276
 42
0.2672272970200645
 10
-4.002380522269504
 20
96.06052114649305
 42
0.0108107038080463
  0
LWPOLYLINE
  5
1BC
330
1F
100
AcDbEntity
  8
0
100
AcDbPolyline
 90
       13
 70
     1
 43
0.0
 10
10.86224206512044
 20
51.12418717257288
 42
0.2253271735862257
 10
13.88543769579475
 20
70.79942103303437
 42
-0.0998172308475478
 10
15.66966481688723
 20
84.04875095282113
 42
-0.6343203500976175
 10
-0.6898452013433741
 20
90.30514774472237
 42
-0.6343203500975906
 10
-17.04935521957122
 20
84.04875095282068
 42
-0.0998172308475519
 10
-15.26512809847918
 20
70.79942103303574
 42
0.2253271735862068
 10
-12.24193246780395
 20
51.12418717257288
 42
0.1461691668487785
 10
-5.383094698075169
 20
59.5889868179583
 42
-0.6885794469361727
 10
-9.427399630195409
 20
68.23445864379078
 42
0.1761971707636142
 10
-0.6898452013424646
 20
80.82863212222902
 42
0.1761971707636615
 10
8.047709227512768
 20
68.23445864378943
 42
-0.6885794469361342
 10
4.003404295392115
 20
59.5889868179583
 42
0.1461691668486831
 10
10.86224206512044
 20
51.12418717257288
  0
LWPOLYLINE
  5
1BD
330
1F
100
AcDbEntity
  8
0
100
AcDbPolyline
 90
       23
 70
     1
 43
0.0
 10
75.94015460857147
 20
12.1684575314307
 42
0.2716881918024603
 10
66.63921501459523
 20
21.36050279011715
 42
-0.0824213755149631
 10
66.76157611788534
 20
25.43132704862774
 42
0.6474787048685923
 10
61.05590089723225
 20
28.19085705320367
 42
0.6474787048684913
 10
55.82913485755622
 20
31.77563770705456
 42
-0.2310312516521861
 10
45.28361722113593
 20
28.97509901737476
 42
0.6474787048684653
 10
42.52408721656135
 20
23.26942379672073
 42
0.6474787048685721
 10
38.93930656270544
 20
18.04265775704653
 42
-0.231031251652201
 10
41.73984525238842
 20
7.497140120623441
 42
0.6474787048685116
 10
47.44552047304205
 20
4.737610116048927
 42
0.6474787048685493
 10
52.67228651271896
 20
1.152829462197189
 42
-0.2310312516521665
 10
63.21780414913783
 20
3.953368151878237
 42
0.6474787048685277
 10
65.97733415371422
 20
9.659043372531414
 42
0.6474787048684138
 10
69.56211480756744
 20
14.88580941220465
 42
-0.0716591397420981
 10
67.64641323818884
 20
17.87064825520883
 42
-0.5144025428999363
 10
69.80342812074375
 20
1.063915773114729
 42
-0.2905980852645913
 10
52.47230461575464
 20
-3.809253560944341
 42
-0.1664602718673381
 10
38.53195373898055
 20
6.398740311679375
 42
-0.4432135292329227
 10
42.88039861248662
 20
32.4564220228217
 42
-0.0502853603555294
 10
56.82031257010246
 20
41.16491781628247
 42
0.0363819776080554
 10
63.84289859406314
 20
45.3388973002115
 42
-0.0743140541952727
 10
67.20592591888456
 20
40.74254308296491
 42
0.2910216398845871
 10
75.94015460859734
 20
37.58412517613664
  0
LWPOLYLINE
  5
1BE
330
1F
100
AcDbEntity
  8
0
100
AcDbPolyline
 90
        4
 70
     1
 43
0.0
 10
49.49886576086874
 20
-6.775640763027297
 42
-0.1319796469686815
 10
36.70203559684156
 20
2.657197333523527
 42
-0.35389455030269
 10
33.30555294702295
 20
-9.674279296630118
 42
-0.4904277700997576
 10
62.66237698201305
 20
-37.89452593406935
 42
0.4542064797763704
  0
LWPOLYLINE
  5
1BF
330
1F
100
AcDbEntity
  8
0
100
AcDbPolyline
 90
       15
 70
     1
 43
0.0
 10
44.79627156433434
 20
51.18538634480779
 42
-0.2518247470528305
 10
22.44070854903615
 20
58.44615421499975
 42
-0.37807863173448
 10
11.65217875451114
 20
49.96813269283837
 42
-0.9938784827229351
 10
3.156366914508012
 20
45.78902975009259
 42
0.2323067821344533
 10
19.22537333409623
 20
19.12052043577438
 42
-0.050522649324102
 10
32.58335652131373
 20
9.976773827496742
 42
-0.1682119013210851
 10
32.56019482046844
 20
26.20466073486472
 42
-0.3206190004225324
 10
20.95640533359663
 20
25.93255646441367
 42
0.2393863365258476
 10
27.52836846585744
 20
30.39962078145578
 42
-0.0465762025392197
 10
31.83355654981094
 20
35.61779644454288
 42
-0.2819234752026396
 10
21.72567356616806
 20
38.63030566171665
 42
-0.4898252363736387
 10
24.00341810424243
 20
48.76838348084675
 42
-1.142811231962842
 10
26.70312990609084
 20
40.81753781952642
 42
0.1387250435796384
 10
48.68689186840445
 20
41.62897817461874
 42
0.0960126250308485
 10
60.99616308107804
 20
48.26210330058251
 42
0.1365890212374301
  0
LWPOLYLINE
  5
1C0
330
1F
100
AcDbEntity
  8
0
100
AcDbPolyline
 90
       15
 70
     1
 43
0.0
 10
-46.17596196711156
 20
51.18538634480501
 42
0.2518247470528305
 10
-23.82039895181426
 20
58.44615421499975
 42
0.37807863173448
 10
-13.03186915728885
 20
49.96813269283837
 42
0.9938784827229351
 10
-4.536057317285667
 20
45.78902975009259
 42
-0.2323067821344533
 10
-20.60506373687349
 20
19.12052043577154
 42
0.050522649324102
 10
-33.96304692408967
 20
9.976773827496742
 42
0.1682119013210851
 10
-33.93988522324526
 20
26.20466073486387
 42
0.3206190004225324
 10
-22.33609573637341
 20
25.9325564644127
 42
-0.2393863365258476
 10
-28.90805886863472
 20
30.39962078145487
 42
0.0465762025392197
 10
-33.21324695258863
 20
35.6177964445406
 42
0.2819234752026396
 10
-23.10536396894577
 20
38.63030566171574
 42
0.4898252363736387
 10
-25.3831085070201
 20
48.76838348084675
 42
1.142811231962842
 10
-28.08282030886904
 20
40.81753781952516
 42
-0.1387250435796384
 10
-50.06658227118169
 20
41.62897817461635
 42
-0.0960126250308485
 10
-62.37585348385619
 20
48.26210330058069
 42
-0.1365890212374301
  0
LWPOLYLINE
  5
1C1
330
1F
100
AcDbEntity
  8
0
100
AcDbPolyline
 90
        4
 70
     1
 43
0.0
 10
-77.31984501124909
 20
65.15127845697953
 10
-77.3198450112809
 20
38.86607564888169
 42
0.1698146150863812
 10
-71.99749073268685
 20
45.06847595098355
 42
-0.072923319419299
 10
-70.78818160073115
 20
50.40571382385173
 42
-0.1600261125290125
  0
LWPOLYLINE
  5
1C2
330
1F
100
AcDbEntity
  8
0
100
AcDbPolyline
 90
        6
 70
     1
 43
0.0
 10
-63.30576097543598
 20
73.48600531793278
 42
0.2112051902526702
 10
-55.80144349062084
 20
57.03500721389997
 42
0.2606764070854834
 10
-67.94998685316295
 20
53.34186806892785
 42
-0.1602918391105464
 10
-73.75287908389009
 20
66.49431926067387
 42
0.6510871429067016
 10
-74.21051646712522
 20
77.69017993070741
 42
-0.1026439396241659
 10
-68.47183667955732
 20
88.0512520384927
 42
-0.1515391406688871
  0
LWPOLYLINE
  5
1C3
330
1F
100
AcDbEntity
  8
0
100
AcDbPolyline
 90
        3
 70
     1
 43
0.0
 10
-77.31984501124589
 20
97.12047312613954
 42
0.2380666773181448
 10
-70.8790078565803
 20
90.65046728359254
 42
0.1028355526565236
 10
-77.31984501124725
 20
81.09091234573083
  0
LWPOLYLINE
  5
1C4
330
1F
100
AcDbEntity
  8
0
100
AcDbPolyline
 90
       23
 70
     1
 43
0.0
 10
-77.31984501125499
 20
12.16845753142792
 42
-0.2716881918024603
 10
-68.01890541727971
 20
21.36050279011533
 42
0.0824213755149631
 10
-68.14126652056939
 20
25.43132704862506
 42
-0.6474787048685923
 10
-62.43559129991671
 20
28.19085705320276
 42
-0.6474787048684913
 10
-57.2088252602407
 20
31.77563770705274
 42
0.2310312516521861
 10
-46.66330762381948
 20
28.97509901737243
 42
-0.6474787048684653
 10
-43.90377761924583
 20
23.26942379671937
 42
-0.6474787048685721
 10
-40.31899696539039
 20
18.04265775704516
 42
0.231031251652201
 10
-43.11953565507338
 20
7.497140120622532
 42
-0.6474787048685116
 10
-48.8252108757265
 20
4.737610116048927
 42
-0.6474787048685493
 10
-54.05197691540297
 20
1.152829462196677
 42
0.2310312516521665
 10
-64.59749455182191
 20
3.953368151875565
 42
-0.6474787048685277
 10
-67.3570245563983
 20
9.659043372529197
 42
-0.6474787048684138
 10
-70.94180521025236
 20
14.88580941220243
 42
0.0716591397420981
 10
-69.02610364087331
 20
17.87064825520656
 42
0.5144025428999363
 10
-71.18311852342685
 20
1.063915773111659
 42
0.2905980852645913
 10
-53.85199501843907
 20
-3.809253560946217
 42
0.1664602718673381
 10
-39.91164414166405
 20
6.398740311677045
 42
0.4432135292329227
 10
-44.26008901517071
 20
32.45642202281891
 42
0.0502853603555294
 10
-58.20000297278692
 20
41.1649178162807
 42
-0.0363819776080554
 10
-65.22258899674762
 20
45.33889730020973
 42
0.0743140541952727
 10
-68.58561632156898
 20
40.74254308296389
 42
-0.2910216398845871
 10
-77.3198450112809
 20
37.58412517613482
  0
LWPOLYLINE
  5
1C5
330
1F
100
AcDbEntity
  8
0
100
AcDbPolyline
 90
        3
 70
     1
 43
0.0
 10
31.97649521254513
 20
113.4012661814663
 42
0.2634261445468385
 10
37.68641443832985
 20
126.6621940874256
 42
-0.1454755600757715
 10
46.37136571272455
 20
124.0487426521799
 42
-0.0664790287938893
  0
LWPOLYLINE
  5
1C6
330
1F
100
AcDbEntity
  8
0
100
AcDbPolyline
 90
        5
 70
     1
 43
0.0
 10
34.24128668777485
 20
137.6877590191066
 42
0.118066788736809
 10
40.31854017181785
 20
134.7373561745526
 42
0.058504128172129
 10
42.17267106748295
 20
129.7563746393256
 42
0.058504128172129
 10
37.19168953225514
 20
131.6105055349902
 42
0.118066788736809
 10
34.24128668770074
 20
137.6877590190333
  0
LWPOLYLINE
  5
1C7
330
1F
100
AcDbEntity
  8
0
100
AcDbPolyline
 90
        3
 70
     1
 43
0.0
 10
34.12056518217835
 20
131.9654263184783
 42
0.2311814595591006
 10
28.00878801726594
 20
139.6371694811322
 42
0.3258471600723706
 10
30.55048407675713
 20
133.2457448912727
 42
0.010022045696054
  0
LWPOLYLINE
  5
1C8
330
1F
100
AcDbEntity
  8
0
100
AcDbPolyline
 90
       27
 70
     1
 43
0.0
 10
28.46164223460984
 20
111.5942429814436
 42
-0.0845186337004721
 10
19.70520464022543
 20
109.8740670370065
 42
0.2670064358736582
 10
25.81234424674943
 20
119.5877001779412
 42
-0.9752753136757576
 10
32.10930211807224
 20
118.8937508081198
 42
0.1755499155502139
 10
34.57023420959643
 20
126.8320964611666
 42
-0.3957081069388911
 10
22.86204222447894
 20
137.6033395858807
 42
-0.1246483816376589
 10
23.86030363858985
 20
141.6407816603723
 42
0.0799786579438706
 10
20.90253616455085
 20
142.1014231740386
 42
-0.0549816068635791
 10
10.75812484186005
 20
144.9810463677767
 10
10.75812484129294
 20
144.9810463680745
 42
-0.0945400383350594
 10
5.670481317121826
 20
135.5512434694437
 42
0.1788305397457637
 10
0.9620054844080954
 20
124.7768752869873
 10
5.370026655980836
 20
124.7768752869873
 10
8.077658572795357
 20
122.4611172930226
 10
8.077658572795357
 20
119.3331164868045
 10
2.468792754343652
 20
119.3331164868045
 42
0.9674237429712546
 10
18.02596433049393
 20
122.7746965715054
 42
-0.7270887516056411
 10
11.72197718513092
 20
123.7182517385986
 42
0.3012608707665885
 10
6.413232942923045
 20
131.6225755570999
 42
-0.3553226301604951
 10
12.79672242574904
 20
131.7163004023728
 42
-0.3194845056937404
 10
11.43331110856614
 20
139.8723175904428
 42
-0.2937836849856592
 10
16.71382830719443
 20
133.2025717448645
 42
-0.3614872730839147
 10
20.98328176941955
 20
138.4379226717728
 42
0.3012608707665885
 10
23.64781829206004
 20
129.2967331662224
 42
-0.8432726086767202
 10
20.43444578377505
 20
124.543464022145
 42
-0.6552708648910948
 10
5.774109190901995
 20
111.7970237063668
 42
-0.4271087219350886
 10
0.6992779801362162
 20
105.0031589288209
 42
0.1066788594902497
  0
LWPOLYLINE
  5
1C9
330
1F
100
AcDbEntity
  8
0
100
AcDbPolyline
 90
        5
 70
     1
 43
0.0
 10
9.181154976893125
 20
148.7881884022217
 42
-0.2185807109256375
 10
-0.3447711271833072
 20
164.1777738713125
 42
0.2899440771363186
 10
5.337066348112799
 20
158.0686393059967
 42
0.2886894685749299
 10
5.063073912964696
 20
166.3561551061684
 42
-0.2145966516040014
 10
9.181154977041842
 20
148.7881884030757
  0
LWPOLYLINE
  5
1CA
330
1F
100
AcDbEntity
  8
0
100
AcDbPolyline
 90
       13
 70
     1
 43
0.0
 10
26.99935721051403
 20
144.9296884954287
 10
26.99935721067365
 20
144.9296884955883
 10
26.99935721083504
 20
144.9296884957498
 42
-0.0442416541222641
 10
27.87531118044395
 20
146.142637766305
 42
-0.0545894852218997
 10
27.24952606254465
 20
149.4500883974355
 42
0.0762645645350369
 10
24.04133463531656
 20
160.3154342840302
 42
-0.1706935585172535
 10
10.44716610449085
 20
161.4818796023004
 42
-0.1706935585016572
 10
11.61361142259194
 20
147.8877110714607
 42
0.0762645645350369
 10
22.47895730914565
 20
144.6795196440967
 42
-0.0545894852218997
 10
25.78640794026794
 20
144.0537345261554
 42
-0.0442416541222641
 10
26.99935721083504
 20
144.9296884957498
 10
26.99935721099605
 20
144.9296884959103
 10
26.99935721115705
 20
144.9296884960717
  0
LWPOLYLINE
  5
1CB
330
1F
100
AcDbEntity
  8
0
100
AcDbPolyline
 90
        6
 70
     1
 43
0.0
 10
-0.6898452015038999
 20
130.0803768225777
 42
-0.0945087858469456
 10
3.990409731462932
 20
138.0160786747451
 42
0.0744219419589018
 10
8.20549211958405
 20
146.1224154358478
 42
-0.1707301754970028
 10
-0.6898452015020667
 20
156.708996409764
 42
-0.1707301754970028
 10
-9.585182522588183
 20
146.1224154358478
 42
0.0744219419589018
 10
-5.370100134467051
 20
138.0160786747451
 42
-0.0945087858469456
  0
LWPOLYLINE
  5
1CC
330
1F
100
AcDbEntity
  8
0
100
AcDbPolyline
 90
        7
 70
     1
 43
0.0
 10
-0.6898452011646583
 20
107.2540894260836
 10
-0.6898452013892893
 20
107.2540894260836
 42
-0.2777928082999459
 10
-2.746227752123559
 20
115.1177356931703
 42
0.0183308429585548
 10
-0.6898452015125401
 20
119.3331164868045
 42
0.0183308429585548
 10
1.36653734918444
 20
115.1177356932107
 42
-0.2777928082999459
 10
-0.6898452013892893
 20
107.2540894260836
 10
-0.6898452016139345
 20
107.2540894260836
  0
LWPOLYLINE
  5
1CD
330
1F
100
AcDbEntity
  8
0
100
AcDbPolyline
 90
        3
 70
     1
 43
0.0
 10
58.52777952534046
 20
139.9525504942767
 42
-0.2634261445468385
 10
45.26685161938485
 20
134.2426312684847
 42
0.1454755600757715
 10
47.88030305463593
 20
125.5576799940917
 42
0.0664790287938893
  0
LWPOLYLINE
  5
1CE
330
1F
100
AcDbEntity
  8
0
100
AcDbPolyline
 90
        3
 70
     1
 43
0.0
 10
39.96361938832973
 20
137.8084805246327
 42
-0.2311814595591006
 10
32.29187622567224
 20
143.9202576895399
 42
-0.3258471600723706
 10
38.68330081553265
 20
141.3785616300537
 42
-0.010022045696054
  0
LWPOLYLINE
  5
1CF
330
1F
100
AcDbEntity
  8
0
100
AcDbPolyline
 90
       27
 70
     1
 43
0.0
 10
60.33480272536095
 20
143.4674034722147
 42
0.0845186337004721
 10
62.05497866979206
 20
152.2238410666022
 42
-0.2670064358736582
 10
52.34134552886231
 20
146.1167014600695
 42
0.9752753136757576
 10
53.03529489868655
 20
139.8197435887477
 42
-0.1755499155502139
 10
45.09694924564195
 20
137.3588114972189
 42
0.3957081069388911
 10
34.32570612091963
 20
149.0670034823287
 42
0.1246483816376589
 10
30.28826404642855
 20
148.0687420682147
 42
-0.0799786579438706
 10
29.82762253276084
 20
151.0265095422537
 42
0.0549816068635791
 10
26.94799933901544
 20
161.1709208649426
 10
26.94799933871805
 20
161.1709208655097
 42
0.0945400383350594
 10
36.37780223734444
 20
166.2585643896849
 42
-0.1788305397457637
 10
47.15217041979755
 20
170.9670402224087
 10
47.15217041980074
 20
166.5590190508347
 10
49.46792841376873
 20
163.8513871340224
 10
52.59592921998635
 20
163.8513871340246
 10
52.59592921998273
 20
169.4602529524777
 42
-0.9674237429712546
 10
49.15434913529082
 20
153.9030813763234
 42
0.7270887516056411
 10
48.21079396819275
 20
160.2070685216858
 42
-0.3012608707665885
 10
40.30647014969054
 20
165.5158127638874
 42
0.3553226301604951
 10
40.21274530442044
 20
159.1323232810627
 42
0.3194845056937404
 10
32.05672811635074
 20
160.4957345982388
 42
0.2937836849856592
 10
38.72647396193136
 20
155.2152173996169
 42
0.3614872730839147
 10
33.49112303502714
 20
150.9457639373867
 42
-0.3012608707665885
 10
42.63231254057885
 20
148.2812274147531
 42
0.8432726086767202
 10
47.38558168465394
 20
151.4945999230407
 42
0.6552708648910948
 10
60.13202200042264
 20
166.1549365159226
 42
0.4271087219350886
 10
66.92588677796445
 20
171.2297677266947
 42
-0.1066788594902497
  0
LWPOLYLINE
  5
1D0
330
1F
100
AcDbEntity
  8
0
100
AcDbPolyline
 90
        5
 70
     1
 43
0.0
 10
23.14085730456824
 20
162.7478907299069
 42
0.2185807109256375
 10
7.751271835471484
 20
172.2738168339729
 42
-0.2899440771363186
 10
13.86040640079274
 20
166.5919793586805
 42
-0.2886894685749299
 10
5.572890600619757
 20
166.8659717938244
 42
0.2145966516040014
 10
23.14085730371694
 20
162.7478907297577
  0
LWPOLYLINE
  5
1D1
330
1F
100
AcDbEntity
  8
0
100
AcDbPolyline
 90
        3
 70
     1
 43
0.0
 10
-33.35618561554883
 20
113.4012661814636
 42
-0.2634261445468385
 10
-39.06610484133399
 20
126.6621940874246
 42
0.1454755600757715
 10
-47.75105611572781
 20
124.0487426521785
 42
0.0664790287938893
  0
LWPOLYLINE
  5
1D2
330
1F
100
AcDbEntity
  8
0
100
AcDbPolyline
 90
        5
 70
     1
 43
0.0
 10
-35.62097709077943
 20
137.6877590191046
 42
-0.118066788736809
 10
-41.69823057482154
 20
134.7373561745516
 42
-0.058504128172129
 10
-43.55236147048709
 20
129.7563746393238
 42
-0.058504128172129
 10
-38.57137993525885
 20
131.6105055349902
 42
-0.118066788736809
 10
-35.62097709070486
 20
137.6877590190314
  0
LWPOLYLINE
  5
1D3
330
1F
100
AcDbEntity
  8
0
100
AcDbPolyline
 90
        3
 70
     1
 43
0.0
 10
-35.50025558518201
 20
131.9654263184774
 42
-0.2311814595591006
 10
-29.38847842027008
 20
139.6371694811322
 42
-0.3258471600723706
 10
-31.93017447976081
 20
133.2457448912714
 42
-0.010022045696054
  0
LWPOLYLINE
  5
1D4
330
1F
100
AcDbEntity
  8
0
100
AcDbPolyline
 90
       27
 70
     1
 43
0.0
 10
-29.84133263761305
 20
111.5942429814422
 42
0.0845186337004721
 10
-21.0848950432287
 20
109.8740670370056
 42
-0.2670064358736582
 10
-27.19203464975272
 20
119.5877001779408
 42
0.9752753136757576
 10
-33.48899252107549
 20
118.8937508081184
 42
-0.1755499155502139
 10
-35.94992461260018
 20
126.8320964611647
 42
0.3957081069388911
 10
-24.24173262748264
 20
137.6033395858798
 42
0.1246483816376589
 10
-25.2399940415944
 20
141.6407816603723
 42
-0.0799786579438706
 10
-22.28222656755542
 20
142.1014231740377
 42
0.0549816068635791
 10
-12.13781524486421
 20
144.9810463677767
 10
-12.13781524429716
 20
144.9810463680745
 42
0.0945400383350594
 10
-7.050171720125945
 20
135.5512434694437
 42
-0.1788305397457637
 10
-2.341695887411788
 20
124.7768752869873
 10
-6.74971705898497
 20
124.7768752869873
 10
-9.457348975798595
 20
122.4611172930213
 10
-9.457348975798595
 20
119.3331164868045
 10
-3.848483157346436
 20
119.3331164868045
 42
-0.9674237429712546
 10
-19.40565473349805
 20
122.7746965715054
 42
0.7270887516056411
 10
-13.10166758813467
 20
123.7182517385986
 42
-0.3012608707665885
 10
-7.792923345927206
 20
131.6225755570999
 42
0.3553226301604951
 10
-14.17641282875274
 20
131.7163004023728
 42
0.3194845056937404
 10
-12.8130015115712
 20
139.8723175904428
 42
0.2937836849856592
 10
-18.09351871019771
 20
133.2025717448645
 42
0.3614872730839147
 10
-22.36297217242372
 20
138.4379226717715
 42
-0.3012608707665885
 10
-25.02750869506419
 20
129.2967331662216
 42
0.8432726086767202
 10
-21.81413618677927
 20
124.543464022145
 42
0.6552708648910948
 10
-7.15379959390566
 20
111.7970237063668
 42
0.4271087219350886
 10
-2.078968383139454
 20
105.0031589288209
 42
-0.1066788594902497
  0
LWPOLYLINE
  5
1D5
330
1F
100
AcDbEntity
  8
0
100
AcDbPolyline
 90
        5
 70
     1
 43
0.0
 10
-10.56084537989818
 20
148.7881884022217
 42
0.2185807109256375
 10
-1.034919275821252
 20
164.1777738713125
 42
-0.2899440771363186
 10
-6.716756751116918
 20
158.0686393059944
 42
-0.2886894685749299
 10
-6.442764315969739
 20
166.3561551061684
 42
0.2145966516040014
 10
-10.56084538004599
 20
148.7881884030734
  0
LWPOLYLINE
  5
1D6
330
1F
100
AcDbEntity
  8
0
100
AcDbPolyline
 90
       13
 70
     1
 43
0.0
 10
-28.37904761351821
 20
144.9296884954269
 10
-28.37904761367918
 20
144.9296884955883
 10
-28.37904761383925
 20
144.9296884957498
 42
0.0442416541222641
 10
-29.25500158344858
 20
146.1426377663046
 42
0.0545894852218997
 10
-28.62921646554924
 20
149.4500883974346
 42
-0.0762645645350369
 10
-25.42102503832166
 20
160.3154342840284
 42
0.1706935585172535
 10
-11.82685650749545
 20
161.4818796023004
 42
0.1706935585016572
 10
-12.99330182559606
 20
147.8877110714607
 42
-0.0762645645350369
 10
-23.85864771214984
 20
144.6795196440956
 42
0.0545894852218997
 10
-27.1660983432721
 20
144.0537345261554
 42
0.0442416541222641
 10
-28.37904761383925
 20
144.9296884957498
 10
-28.37904761400023
 20
144.9296884959103
 10
-28.37904761416121
 20
144.9296884960707
  0
LWPOLYLINE
  5
1D7
330
1F
100
AcDbEntity
  8
0
100
AcDbPolyline
 90
        3
 70
     1
 43
0.0
 10
-41.34330979133438
 20
137.8084805246317
 42
0.2311814595591006
 10
-33.67156662867637
 20
143.9202576895385
 42
0.3258471600723706
 10
-40.06299121853725
 20
141.3785616300515
 42
0.010022045696054
  0
LWPOLYLINE
  5
1D8
330
1F
100
AcDbEntity
  8
0
100
AcDbPolyline
 90
       27
 70
     1
 43
0.0
 10
-61.71449312836557
 20
143.4674034722138
 42
-0.0845186337004721
 10
-63.43466907279617
 20
152.2238410665999
 42
0.2670064358736582
 10
-53.72103593186603
 20
146.1167014600686
 42
-0.9752753136757576
 10
-54.41498530169109
 20
139.8197435887454
 42
0.1755499155502139
 10
-46.47663964864613
 20
137.3588114972172
 42
-0.3957081069388911
 10
-35.70539652392518
 20
149.0670034823273
 42
-0.1246483816376589
 10
-31.66795444943273
 20
148.0687420682142
 42
0.0799786579438706
 10
-31.20731293576501
 20
151.0265095422537
 42
-0.0549816068635791
 10
-28.32768974202008
 20
161.1709208649417
 10
-28.32768974172223
 20
161.1709208655083
 42
-0.0945400383350594
 10
-37.7574926403495
 20
166.2585643896849
 42
0.1788305397457637
 10
-48.53186082280263
 20
170.9670402224069
 10
-48.53186082280536
 20
166.5590190508338
 10
-50.84761881677332
 20
163.8513871340209
 10
-53.97561962299096
 20
163.8513871340237
 10
-53.97561962298731
 20
169.4602529524759
 42
0.9674237429712546
 10
-50.53403953829503
 20
153.903081376321
 42
-0.7270887516056411
 10
-49.59048437119826
 20
160.2070685216835
 42
0.3012608707665885
 10
-41.68616055269513
 20
165.5158127638869
 42
-0.3553226301604951
 10
-41.59243570742547
 20
159.1323232810623
 42
-0.3194845056937404
 10
-33.43641851935537
 20
160.4957345982388
 42
-0.2937836849856592
 10
-40.10616436493728
 20
155.2152173996154
 42
-0.3614872730839147
 10
-34.87081343803129
 20
150.9457639373859
 42
0.3012608707665885
 10
-44.01200294358296
 20
148.2812274147522
 42
-0.8432726086767202
 10
-48.76527208765811
 20
151.4945999230399
 42
-0.6552708648910948
 10
-61.51171240342728
 20
166.1549365159207
 42
-0.4271087219350886
 10
-68.30557718096952
 20
171.2297677266928
 42
0.1066788594902497
  0
LWPOLYLINE
  5
1D9
330
1F
100
AcDbEntity
  8
0
100
AcDbPolyline
 90
        5
 70
     1
 43
0.0
 10
-24.52054770757377
 20
162.7478907299069
 42
-0.2185807109256375
 10
-9.130962238476044
 20
172.2738168339729
 42
0.2899440771363186
 10
-15.24009680379731
 20
166.5919793586805
 42
0.2886894685749299
 10
-6.952581003623905
 20
166.8659717938244
 42
-0.2145966516040014
 10
-24.52054770672248
 20
162.7478907297577
  0
LWPOLYLINE
  5
1DA
330
1F
100
AcDbEntity
  8
0
100
AcDbPolyline
 90
        3
 70
     1
 43
0.0
 10
-59.90746992844106
 20
139.9525504941097
 42
0.2634261445468385
 10
-46.64654202242764
 20
134.2426312684473
 42
-0.1454755600757715
 10
-49.25999345759283
 20
125.5576799940286
 42
-0.0664790287938893
  0
LWPOLYLINE
  5
1DB
330
1F
100
AcDbEntity
  8
0
100
AcDbPolyline
 90
       13
 70
     0
 43
0.0
 10
75.94015460859094
 20
-110.8477594814087
 10
75.94015460858006
 20
-39.90803136655637
 42
-0.1139509621073401
 10
70.99995735475153
 20
-54.07261170125361
 42
-1.10690751996562
 10
69.52241074685023
 20
-60.69893883545728
 42
-0.9517835734239131
 10
63.85053612576164
 20
-64.47846153186714
 42
0.1179770541765151
 10
57.58832766165454
 20
-78.03516514220425
 42
0.6359566586424174
 10
66.15618610056023
 20
-83.59729078176224
 42
-1.071491482011681
 10
65.00020070715206
 20
-76.62746719966435
 42
-1.167331662024003
 10
60.67303903305035
 20
-89.34460322320456
 42
-0.6575811245534162
 10
51.80103255991705
 20
-102.9065122543961
 42
0.2532232518186706
 10
58.94043723436334
 20
-106.606744803445
 42
-0.9047711060623615
 10
65.80428195102332
 20
-105.0312388495745
 42
0.2260898459422218
 10
71.42237619005204
 20
-110.8477594814294
  0
LWPOLYLINE
  5
1DC
330
1F
100
AcDbEntity
  8
0
100
AcDbPolyline
 90
        5
 70
     1
 43
0.0
 10
-69.40831547045945
 20
-51.06841817132636
 42
-0.1024831887439783
 10
-73.96658583347925
 20
-37.11323666136514
 42
0.3909757424603064
 10
-63.72504272471861
 20
-40.55997582226564
 42
0.0959223470793783
 10
-60.15929162846624
 20
-56.15950341393546
 42
0.31710688686892
 10
-63.97627958468911
 20
-55.13719064821543
 42
0.9006143572752501
  0
ARC
  5
1DD
330
1F
100
AcDbEntity
  8
0
100
AcDbCircle
 10
-71.97797175160349
 20
-57.46094164020727
 30
0.0
 40
3.412055595803392
100
AcDbArc
 50
96.76068465852644
 51
288.379800873252
  0
LWPOLYLINE
  5
1DE
330
1F
100
AcDbEntity
  8
0
100
AcDbPolyline
 90
        6
 70
     1
 43
0.0
 10
-57.27646045398024
 20
-70.57996185139336
 42
0.0010977557028438
 10
-62.72914756033923
 20
-61.78294266359486
 42
0.4619115439574764
 10
-59.41869324477148
 20
-57.74587156023745
 42
0.0787170598279427
 10
-51.82299328698628
 20
-68.50586241860447
 42
-0.3629761212961757
 10
-51.8381543100013
 20
-101.4237636251113
 42
-0.3899753992398629
 10
-56.35513703599962
 20
-88.35329467278738
 42
0.266703428013048
  0
ARC
  5
1DF
330
1F
100
AcDbEntity
  8
0
100
AcDbCircle
 10
-125.821826481485
 20
-1.721900187383141
 30
0.0
 40
90.0
100
AcDbArc
 50
330.1799825593467
 51
339.8668839677742
  0
ARC
  5
1E0
330
1F
100
AcDbEntity
  8
0
100
AcDbCircle
 10
-125.821826481485
 20
-1.721900187383141
 30
0.0
 40
100.0
100
AcDbArc
 50
326.3065241094937
 51
336.7364236876955
  0
ARC
  5
1E1
330
1F
100
AcDbEntity
  8
0
100
AcDbCircle
 10
-125.821826481485
 20
-1.721900187383141
 30
0.0
 40
110.0
100
AcDbArc
 50
324.2829356548075
 51
338.7058947123273
  0
ARC
  5
1E2
330
1F
100
AcDbEntity
  8
0
100
AcDbCircle
 10
-125.821826481485
 20
-1.721900187383141
 30
0.0
 40
110.0
100
AcDbArc
 50
351.1365150133718
 51
356.931899209001
  0
ARC
  5
1E3
330
1F
100
AcDbEntity
  8
0
100
AcDbCircle
 10
-125.821826481485
 20
-1.721900187383141
 30
0.0
 40
120.0
100
AcDbArc
 50
321.4849653755627
 51
2.229861735820065
  0
ARC
  5
1E4
330
1F
100
AcDbEntity
  8
0
100
AcDbCircle
 10
-125.821826481485
 20
-1.721900187383141
 30
0.0
 40
130.0
100
AcDbArc
 50
317.1761134193971
 51
2.341972664681406
  0
LWPOLYLINE
  5
1E5
330
1F
100
AcDbEntity
  8
0
100
AcDbPolyline
 90
       15
 70
     0
 43
0.0
 10
50.27772703984914
 20
-110.8477594814262
 42
-0.2685477910242303
 10
34.25228695622624
 20
-91.71669777327545
 42
-0.1868791771580341
 10
40.93023575479034
 20
-66.24785449223413
 42
0.043784003717482
 10
49.87178101714835
 20
-52.36340037472564
 42
0.2435513428143206
 10
48.15637341958785
 20
-32.18579908540557
 42
0.7469881321275307
 10
27.80805807025624
 20
-39.70104509883237
 42
-0.6198566288435891
 10
29.34411821198363
 20
-10.76450763003095
 42
-0.2566844137184851
 10
-0.6898452013424646
 20
28.27809981261868
 42
-0.2566844137184851
 10
-30.72380861466809
 20
-10.76450763003146
 42
-0.6198566288435891
 10
-29.1877484729398
 20
-39.70104509883237
 42
0.7469881321275307
 10
-49.5360638222719
 20
-32.18579908540732
 42
0.2435513428143206
 10
-51.25147141983143
 20
-52.36340037472564
 42
0.043784003717482
 10
-42.30992615747346
 20
-66.24785449223503
 42
-0.1868791771580341
 10
-35.63197735890845
 20
-91.71669777327725
 42
-0.2685477910242304
 10
-51.65741744253046
 20
-110.8477594814276
  0
LWPOLYLINE
  5
1E6
330
1F
100
AcDbEntity
  8
0
100
AcDbPolyline
 90
       17
 70
     0
 43
0.0
 10
40.17462280420474
 20
-110.8477594814285
 42
-0.184920329016616
 10
29.30103241805773
 20
-92.42664381800844
 42
-0.1883461131295858
 10
36.92986799213713
 20
-63.24720506824545
 42
0.0433348055165207
 10
45.33500752524014
 20
-50.24703890201227
 42
0.2368552890206114
 10
44.03969780353506
 20
-35.03393056662844
 42
0.7358611813052979
 10
32.79712722533805
 20
-39.37060756190158
 42
-0.5963678292860818
 10
25.34953628598124
 20
-44.05485614620738
 42
-0.4794838537364555
 10
20.00500860721235
 20
-11.46557461860726
 42
-0.1408895942041278
 10
-0.6898452013428909
 20
11.6425480283757
 42
-0.1408895942041229
 10
-21.38469900989639
 20
-11.4655746186063
 42
-0.4794838537364674
 10
-26.72922668866476
 20
-44.05485614620738
 42
-0.5963678292860628
 10
-34.17681762802157
 20
-39.37060756190295
 42
0.7358611813043741
 10
-45.41938820621226
 20
-35.03393056661526
 42
0.2368552890207257
 10
-46.71469792792685
 20
-50.24703890200544
 42
0.0433348055164044
 10
-38.30955839485068
 20
-63.24720506820634
 42
-0.1883461131297867
 10
-30.68072282073536
 20
-92.42664381799153
 42
-0.1849203290167581
 10
-41.55431320688603
 20
-110.8477594814262
  0
ARC
  5
1E7
330
1F
100
AcDbEntity
  8
0
100
AcDbCircle
 10
-125.821826481485
 20
-1.721900187383141
 30
0.0
 40
140.0
100
AcDbArc
 50
308.7878865776834
 51
357.7664412575789
  0
ARC
  5
1E8
330
1F
100
AcDbEntity
  8
0
100
AcDbCircle
 10
-125.821826481485
 20
-1.721900187383141
 30
0.0
 40
150.0
100
AcDbArc
 50
313.3223039779284
 51
345.5660473789759
  0
ARC
  5
1E9
330
1F
100
AcDbEntity
  8
0
100
AcDbCircle
 10
-125.821826481485
 20
-1.721900187381322
 30
0.0
 40
160.0
100
AcDbArc
 50
316.9970025172661
 51
344.4270388861561
  0
ARC
  5
1EA
330
1F
100
AcDbEntity
  8
0
100
AcDbCircle
 10
-125.821826481485
 20
-1.721900187381322
 30
0.0
 40
170.0
100
AcDbArc
 50
320.0650991581265
 51
349.3874902105004
  0
ARC
  5
1EB
330
1F
100
AcDbEntity
  8
0
100
AcDbCircle
 10
-125.821826481485
 20
-1.721900187381322
 30
0.0
 40
180.0
100
AcDbArc
 50
322.6808113905955
 51
329.5700430029289
  0
ARC
  5
1EC
330
1F
100
AcDbEntity
  8
0
100
AcDbCircle
 10
-125.821826481485
 20
-1.721900187383141
 30
0.0
 40
190.0
100
AcDbArc
 50
324.946111023377
 51
327.3185912251884
  0
ARC
  5
1FC
330
1F
100
AcDbEntity
  8
0
100
AcDbCircle
 10
-125.8218264814841
 20
-219.9736187754711
 30
0.0
 40
140.0
100
AcDbArc
 50
51.21211342232111
 51
52.14363547635612
  0
ARC
  5
1FD
330
1F
100
AcDbEntity
  8
0
100
AcDbCircle
 10
-125.8218264814841
 20
-219.9736187754711
 30
0.0
 40
150.0
100
AcDbArc
 50
46.6776960220796
 51
52.15244615841351
  0
ARC
  5
1FE
330
1F
100
AcDbEntity
  8
0
100
AcDbCircle
 10
-125.8218264814841
 20
-219.9736187754734
 30
0.0
 40
160.0
100
AcDbArc
 50
43.00299748274204
 51
53.46630305438488
  0
ARC
  5
1FF
330
1F
100
AcDbEntity
  8
0
100
AcDbCircle
 10
-125.8218264814841
 20
-219.9736187754734
 30
0.0
 40
170.0
100
AcDbArc
 50
39.9349008418822
 51
56.2541326289828
  0
ARC
  5
200
330
1F
100
AcDbEntity
  8
0
100
AcDbCircle
 10
-125.8218264814841
 20
-219.9736187754734
 30
0.0
 40
180.0
100
AcDbArc
 50
37.31918860941266
 51
61.18496738649002
  0
ARC
  5
201
330
1F
100
AcDbEntity
  8
0
100
AcDbCircle
 10
-125.8218264814841
 20
-219.9736187754711
 30
0.0
 40
190.0
100
AcDbArc
 50
35.05388897663117
 51
65.71835218828702
  0
ARC
  5
202
330
1F
100
AcDbEntity
  8
0
100
AcDbCircle
 10
-125.8218264814841
 20
-219.9736187754711
 30
0.0
 40
200.0
100
AcDbArc
 50
38.98208196717512
 51
66.54643475961461
  0
ARC
  5
203
330
1F
100
AcDbEntity
  8
0
100
AcDbCircle
 10
-125.8218264814841
 20
-219.9736187754711
 30
0.0
 40
210.0
100
AcDbArc
 50
42.13618624752824
 51
59.82845587724646
  0
ARC
  5
204
330
1F
100
AcDbEntity
  8
0
100
AcDbCircle
 10
-125.8218264814841
 20
-219.9736187754734
 30
0.0
 40
220.0
100
AcDbArc
 50
43.52323914939705
 51
60.13436685397172
  0
ARC
  5
205
330
1F
100
AcDbEntity
  8
0
100
AcDbCircle
 10
-125.8218264814868
 20
-219.9736187754743
 30
0.0
 40
230.0000000000047
100
AcDbArc
 50
44.08942973501618
 51
61.9997625439583
  0
ARC
  5
206
330
1F
100
AcDbEntity
  8
0
100
AcDbCircle
 10
-125.8218264814841
 20
-219.9736187754711
 30
0.0
 40
240.0
100
AcDbArc
 50
44.68360005203389
 51
48.62793895088788
  0
ARC
  5
207
330
1F
100
AcDbEntity
  8
0
100
AcDbCircle
 10
-125.8218264814841
 20
-219.9736187754711
 30
0.0
 40
240.0
100
AcDbArc
 50
54.19442000422058
 51
62.55705237796501
  0
ARC
  5
208
330
1F
100
AcDbEntity
  8
0
100
AcDbCircle
 10
-125.8218264814841
 20
-219.9736187754711
 30
0.0
 40
250.0
100
AcDbArc
 50
46.76728948909963
 51
48.51915535235795
  0
ARC
  5
209
330
1F
100
AcDbEntity
  8
0
100
AcDbCircle
 10
-125.8218264814841
 20
-219.9736187754711
 30
0.0
 40
250.0
100
AcDbArc
 50
55.0482778232588
 51
61.84422232478894
  0
ARC
  5
20A
330
1F
100
AcDbEntity
  8
0
100
AcDbCircle
 10
-125.8218264814841
 20
-219.9736187754711
 30
0.0
 40
260.0
100
AcDbArc
 50
60.48344987460178
 51
61.60819967724077
  0
LWPOLYLINE
  5
213
330
1F
100
AcDbEntity
  8
0
100
AcDbPolyline
 90
       13
 70
     0
 43
0.0
 10
-72.80206659273289
 20
-110.8477594814276
 42
0.2260898459422219
 10
-67.18397235370503
 20
-105.0312388495763
 42
-0.9047711060623615
 10
-60.32012763704506
 20
-106.6067448034482
 42
0.2532232518186704
 10
-53.18072296259878
 20
-102.9065122543975
 42
-0.6575811245534151
 10
-62.05272943573254
 20
-89.34460322320546
 42
-1.167331662024003
 10
-66.37989110983426
 20
-76.62746719966526
 42
-1.071491482011681
 10
-67.53587650324198
 20
-83.59729078176545
 42
0.6359566586424174
 10
-58.96801806433723
 20
-78.03516514220603
 42
0.1179770541765151
 10
-65.23022652844429
 20
-64.47846153186944
 42
-0.9517835734239131
 10
-70.90210114953333
 20
-60.69893883545953
 42
-1.10690751996562
 10
-72.37964775743421
 20
-54.07261170125645
 42
-0.1139509621073401
 10
-77.31984501126317
 20
-39.90803136655723
 10
-77.31984501127271
 20
-110.8477594814276
  0
LWPOLYLINE
  5
215
330
1F
100
AcDbEntity
  8
0
100
AcDbPolyline
 90
        5
 70
     0
 43
0.0
 10
52.59592921921512
 20
172.6188909081292
 10
64.67495628070034
 20
172.6188909081292
 10
64.67495628070034
 20
172.6188909079055
 42
-0.2777928082999459
 10
56.81131001361425
 20
170.5625083571766
 42
0.0183308429585548
 10
52.59592921998003
 20
172.6188909077904
  0
LWPOLYLINE
  5
216
330
1F
100
AcDbEntity
  8
0
100
AcDbPolyline
 90
        4
 70
     1
 43
0.0
 10
-16.59973970002556
 20
172.6188909078249
 42
0.1707301754970029
 10
-27.18632067393536
 20
163.7235535867317
 42
-0.0744219419589018
 10
-35.29265743504129
 20
167.9386359748477
 42
0.0945087858469456
 10
-43.22835928721178
 20
172.6188909078054
  0
LWPOLYLINE
  5
217
330
1F
100
AcDbEntity
  8
0
100
AcDbPolyline
 90
        5
 70
     0
 43
0.0
 10
-66.05464668370586
 20
172.6188909081288
 10
-66.05464668370586
 20
172.6188909079045
 42
0.2777928082999459
 10
-58.19100041661932
 20
170.5625083571753
 42
-0.0183308429585548
 10
-53.97561962298595
 20
172.6188909077886
 10
-66.05464668370586
 20
172.6188909079045
  0
LWPOLYLINE
  5
218
330
1F
100
AcDbEntity
  8
0
100
AcDbPolyline
 90
        4
 70
     1
 43
0.0
 10
41.84866888420623
 20
172.6188909078077
 10
15.22004929702054
 20
172.6188909078249
 42
-0.1707301754970025
 10
25.80663027093034
 20
163.7235535867329
 42
0.0744219419589018
 10
33.91296703203663
 20
167.9386359748486
 42
-0.0945087858469456
  0
LWPOLYLINE
  5
219
330
1F
100
AcDbEntity
  8
0
100
AcDbPolyline
 90
        4
 70
     1
 43
0.0
 10
72.94015460871873
 20
172.6188909081292
 10
69.94015460853731
 20
172.6188909081292
 42
-1.000000000000403
 10
-71.31984501141232
 20
172.6188909081292
 10
-74.31984501155466
 20
172.6188909081292
 42
1.000000000002595
  0
LINE
  5
251
330
1F
100
AcDbEntity
  8
0
100
AcDbLine
 10
75.94015460859094
 20
-110.8477594814089
 30
0.0
 11
-77.31984501127271
 21
-110.8477594814281
 31
0.0
  0
ENDSEC
  0
SECTION
  2
OBJECTS
  0
DICTIONARY
  5
C
330
0
100
AcDbDictionary
281
     1
  3
ACAD_COLOR
350
6B
  3
ACAD_GROUP
350
D
  3
ACAD_LAYOUT
350
1A
  3
ACAD_MATERIAL
350
6A
  3
ACAD_MLEADERSTYLE
350
24C
  3
ACAD_MLINESTYLE
350
17
  3
ACAD_PLOTSETTINGS
350
19
  3
ACAD_PLOTSTYLENAME
350
E
  3
ACAD_SCALELIST
350
23A
  3
ACAD_TABLESTYLE
350
7E
  3
ACAD_VISUALSTYLE
350
EF
  3
ACDB_RECOMPOSE_DATA
350
25A
  3
AcDbVariableDictionary
350
5E
  3
DWGPROPS
350
25B
  0
DICTIONARY
  5
252
330
10
100
AcDbDictionary
280
     1
281
     1
  3
ADSK_XREC_LAYER_RECONCILED
360
253
  0
DICTIONARY
  5
6B
102
{ACAD_REACTORS
330
C
102
}
330
C
100
AcDbDictionary
281
     1
  0
DICTIONARY
  5
D
102
{ACAD_REACTORS
330
C
102
}
330
C
100
AcDbDictionary
281
     1
  0
DICTIONARY
  5
1A
102
{ACAD_REACTORS
330
C
102
}
330
C
100
AcDbDictionary
281
     1
  3
Model
350
22
  3
Présentation1
350
D3
  3
Présentation2
350
D7
  0
DICTIONARY
  5
6A
102
{ACAD_REACTORS
330
C
102
}
330
C
100
AcDbDictionary
281
     1
  3
ByBlock
350
ED
  3
ByLayer
350
EC
  3
Global
350
EE
  0
DICTIONARY
  5
24C
102
{ACAD_REACTORS
330
C
102
}
330
C
100
AcDbDictionary
281
     1
  3
Standard
350
24D
  0
DICTIONARY
  5
17
102
{ACAD_REACTORS
330
C
102
}
330
C
100
AcDbDictionary
281
     1
  3
Standard
350
18
  0
DICTIONARY
  5
19
102
{ACAD_REACTORS
330
C
102
}
330
C
100
AcDbDictionary
281
     1
  0
ACDBDICTIONARYWDFLT
  5
E
102
{ACAD_REACTORS
330
C
102
}
330
C
100
AcDbDictionary
281
     1
  3
Normal
350
F
100
AcDbDictionaryWithDefault
340
F
  0
DICTIONARY
  5
23A
102
{ACAD_REACTORS
330
C
102
}
330
C
100
AcDbDictionary
281
     1
  3
A0
350
23B
  3
A1
350
23C
  3
A2
350
23D
  3
A3
350
23E
  3
A4
350
23F
  3
A5
350
240
  3
A6
350
241
  3
A7
350
242
  3
A8
350
243
  3
A9
350
244
  3
B0
350
245
  3
B1
350
246
  3
B2
350
247
  3
B3
350
248
  3
B4
350
249
  3
B5
350
24A
  3
B6
350
24B
  0
DICTIONARY
  5
7E
102
{ACAD_REACTORS
330
C
102
}
330
C
100
AcDbDictionary
281
     1
  3
Standard
350
7F
  0
DICTIONARY
  5
EF
102
{ACAD_REACTORS
330
C
102
}
330
C
100
AcDbDictionary
281
     1
  3
2dWireframe
350
F5
  3
3D Hidden
350
F7
  3
3dWireframe
350
F6
  3
Basic
350
F4
  3
Brighten
350
FB
  3
ColorChange
350
FF
  3
Conceptual
350
F8
  3
Dim
350
FA
  3
Facepattern
350
FE
  3
Flat
350
F0
  3
FlatWithEdges
350
F1
  3
Gouraud
350
F2
  3
GouraudWithEdges
350
F3
  3
Linepattern
350
FD
  3
Realistic
350
F9
  3
Thicken
350
FC
  0
XRECORD
  5
25A
102
{ACAD_REACTORS
330
C
102
}
330
C
100
AcDbXrecord
280
     1
 90
        1
330
7F
  0
DICTIONARY
  5
5E
102
{ACAD_REACTORS
330
C
102
}
330
C
100
AcDbDictionary
281
     1
  3
CANNOSCALE
350
255
  3
CMLEADERSTYLE
350
254
  3
CTABLESTYLE
350
84
  3
DIMASSOC
350
5F
  3
HIDETEXT
350
63
  3
INDEXCTL
350
226
  3
PSOLHEIGHT
350
257
  3
PSOLWIDTH
350
256
  3
SORTENTS
350
225
  0
XRECORD
  5
25B
102
{ACAD_REACTORS
330
C
102
}
330
C
100
AcDbXrecord
280
     1
  1
DWGPROPS COOKIE
  2

  3

  4

  6

  7

  8
user
  9

300
=
301
=
302
=
303
=
304
=
305
=
306
=
307
=
308
=
309
=
 40
0.0019400115740741
 41
2453265.979312245
 42
2457351.527501979
  1

 90
        0
  0
XRECORD
  5
253
102
{ACAD_REACTORS
330
252
102
}
330
252
100
AcDbXrecord
280
     1
290
     1
  0
LAYOUT
  5
22
102
{ACAD_XDICTIONARY
360
25C
102
}
102
{ACAD_REACTORS
330
1A
102
}
330
1A
100
AcDbPlotSettings
  1

  2
none_device
  4
ISO_A4_(210.00_x_297.00_MM)
  6

 40
7.5
 41
20.0
 42
7.5
 43
20.0
 44
210.0
 45
297.0
 46
11.54999923706054
 47
-13.65000009536743
 48
0.0
 49
0.0
140
0.0
141
0.0
142
1.0
143
8.704084754739808
 70
 11952
 72
     1
 73
     0
 74
     0
  7

 75
     0
147
0.1148885871608098
148
0.0
149
0.0
100
AcDbLayout
  1
Model
 70
     1
 71
     0
 10
0.0
 20
0.0
 11
12.0
 21
9.0
 12
0.0
 22
0.0
 32
0.0
 14
0.0
 24
0.0
 34
0.0
 15
0.0
 25
0.0
 35
0.0
146
0.0
 13
0.0
 23
0.0
 33
0.0
 16
1.0
 26
0.0
 36
0.0
 17
0.0
 27
1.0
 37
0.0
 76
     0
330
1F
331
EA
1001
ACAD_PSEXT
1000
None
1000
None
1000
Not applicable
1000
The layout will not be plotted unless a new plotter configuration name is selected.
1070
     0
  0
LAYOUT
  5
D3
102
{ACAD_XDICTIONARY
360
25F
102
}
102
{ACAD_REACTORS
330
1A
102
}
330
1A
100
AcDbPlotSettings
  1

  2
C:\Documents and Settings\basas\Application Data\Autodesk\AutoCAD 2005\R16.1\enu\plotters\Default Windows System Printer.pc3
  4

  6

 40
0.0
 41
0.0
 42
0.0
 43
0.0
 44
0.0
 45
0.0
 46
0.0
 47
0.0
 48
0.0
 49
0.0
140
0.0
141
0.0
142
1.0
143
1.0
 70
   688
 72
     0
 73
     0
 74
     5
  7

 75
    16
147
1.0
148
0.0
149
0.0
100
AcDbLayout
  1
Présentation1
 70
     1
 71
     1
 10
0.0
 20
0.0
 11
12.0
 21
9.0
 12
0.0
 22
0.0
 32
0.0
 14
0.0
 24
0.0
 34
0.0
 15
0.0
 25
0.0
 35
0.0
146
0.0
 13
0.0
 23
0.0
 33
0.0
 16
1.0
 26
0.0
 36
0.0
 17
0.0
 27
1.0
 37
0.0
 76
     0
330
D2
  0
LAYOUT
  5
D7
102
{ACAD_XDICTIONARY
360
261
102
}
102
{ACAD_REACTORS
330
1A
102
}
330
1A
100
AcDbPlotSettings
  1

  2
C:\Documents and Settings\basas\Application Data\Autodesk\AutoCAD 2005\R16.1\enu\plotters\Default Windows System Printer.pc3
  4

  6

 40
0.0
 41
0.0
 42
0.0
 43
0.0
 44
0.0
 45
0.0
 46
0.0
 47
0.0
 48
0.0
 49
0.0
140
0.0
141
0.0
142
1.0
143
1.0
 70
   688
 72
     0
 73
     0
 74
     5
  7

 75
    16
147
1.0
148
0.0
149
0.0
100
AcDbLayout
  1
Présentation2
 70
     1
 71
     2
 10
0.0
 20
0.0
 11
12.0
 21
9.0
 12
0.0
 22
0.0
 32
0.0
 14
0.0
 24
0.0
 34
0.0
 15
0.0
 25
0.0
 35
0.0
146
0.0
 13
0.0
 23
0.0
 33
0.0
 16
1.0
 26
0.0
 36
0.0
 17
0.0
 27
1.0
 37
0.0
 76
     0
330
D6
  0
MATERIAL
  5
ED
102
{ACAD_XDICTIONARY
360
234
102
}
102
{ACAD_REACTORS
330
6A
102
}
330
6A
100
AcDbMaterial
  1
ByBlock
  0
MATERIAL
  5
EC
102
{ACAD_XDICTIONARY
360
232
102
}
102
{ACAD_REACTORS
330
6A
102
}
330
6A
100
AcDbMaterial
  1
ByLayer
  0
MATERIAL
  5
EE
102
{ACAD_XDICTIONARY
360
236
102
}
102
{ACAD_REACTORS
330
6A
102
}
330
6A
100
AcDbMaterial
  1
Global
  0
MLEADERSTYLE
  5
24D
102
{ACAD_REACTORS
330
24C
102
}
330
24C
100
AcDbMLeaderStyle
170
     2
171
     1
172
     0
 90
        2
 40
0.0
 41
0.0
173
     1
 91
-1056964608
340
14
 92
       -2
290
     1
 42
2.0
291
     1
 43
0.36
  3
Standard
 44
4.0
300

342
11
174
     1
178
     6
175
     1
176
     0
 93
-1056964608
 45
4.0
292
     0
297
     0
 46
4.0
 94
-1056964608
 47
1.0
 49
1.0
140
1.0
293
     1
141
0.0
294
     1
177
     0
142
1.0
295
     0
296
     0
143
0.125
1001
ACAD_MLEADERVER
1070
     2
  0
MLINESTYLE
  5
18
102
{ACAD_REACTORS
330
17
102
}
330
17
100
AcDbMlineStyle
  2
STANDARD
 70
     0
  3

 62
   256
 51
90.0
 52
90.0
 71
     2
 49
0.5
 62
   256
  6
BYLAYER
 49
-0.5
 62
   256
  6
BYLAYER
  0
ACDBPLACEHOLDER
  5
F
102
{ACAD_REACTORS
330
E
102
}
330
E
  0
SCALE
  5
23B
102
{ACAD_REACTORS
330
23A
102
}
330
23A
100
AcDbScale
 70
     0
300
1:1
140
1.0
141
1.0
290
     1
  0
SCALE
  5
23C
102
{ACAD_REACTORS
330
23A
102
}
330
23A
100
AcDbScale
 70
     0
300
1:2
140
1.0
141
2.0
290
     0
  0
SCALE
  5
23D
102
{ACAD_REACTORS
330
23A
102
}
330
23A
100
AcDbScale
 70
     0
300
1:4
140
1.0
141
4.0
290
     0
  0
SCALE
  5
23E
102
{ACAD_REACTORS
330
23A
102
}
330
23A
100
AcDbScale
 70
     0
300
1:5
140
1.0
141
5.0
290
     0
  0
SCALE
  5
23F
102
{ACAD_REACTORS
330
23A
102
}
330
23A
100
AcDbScale
 70
     0
300
1:8
140
1.0
141
8.0
290
     0
  0
SCALE
  5
240
102
{ACAD_REACTORS
330
23A
102
}
330
23A
100
AcDbScale
 70
     0
300
1:10
140
1.0
141
10.0
290
     0
  0
SCALE
  5
241
102
{ACAD_REACTORS
330
23A
102
}
330
23A
100
AcDbScale
 70
     0
300
1:16
140
1.0
141
16.0
290
     0
  0
SCALE
  5
242
102
{ACAD_REACTORS
330
23A
102
}
330
23A
100
AcDbScale
 70
     0
300
1:20
140
1.0
141
20.0
290
     0
  0
SCALE
  5
243
102
{ACAD_REACTORS
330
23A
102
}
330
23A
100
AcDbScale
 70
     0
300
1:30
140
1.0
141
30.0
290
     0
  0
SCALE
  5
244
102
{ACAD_REACTORS
330
23A
102
}
330
23A
100
AcDbScale
 70
     0
300
1:40
140
1.0
141
40.0
290
     0
  0
SCALE
  5
245
102
{ACAD_REACTORS
330
23A
102
}
330
23A
100
AcDbScale
 70
     0
300
1:50
140
1.0
141
50.0
290
     0
  0
SCALE
  5
246
102
{ACAD_REACTORS
330
23A
102
}
330
23A
100
AcDbScale
 70
     0
300
1:100
140
1.0
141
100.0
290
     0
  0
SCALE
  5
247
102
{ACAD_REACTORS
330
23A
102
}
330
23A
100
AcDbScale
 70
     0
300
2:1
140
2.0
141
1.0
290
     0
  0
SCALE
  5
248
102
{ACAD_REACTORS
330
23A
102
}
330
23A
100
AcDbScale
 70
     0
300
4:1
140
4.0
141
1.0
290
     0
  0
SCALE
  5
249
102
{ACAD_REACTORS
330
23A
102
}
330
23A
100
AcDbScale
 70
     0
300
8:1
140
8.0
141
1.0
290
     0
  0
SCALE
  5
24A
102
{ACAD_REACTORS
330
23A
102
}
330
23A
100
AcDbScale
 70
     0
300
10:1
140
10.0
141
1.0
290
     0
  0
SCALE
  5
24B
102
{ACAD_REACTORS
330
23A
102
}
330
23A
100
AcDbScale
 70
     0
300
100:1
140
100.0
141
1.0
290
     0
  0
TABLESTYLE
  5
7F
102
{ACAD_XDICTIONARY
360
258
102
}
102
{ACAD_REACTORS
330
7E
102
}
330
7E
100
AcDbTableStyle
  3
Standard
 70
     0
 71
     0
 40
1.5
 41
1.5
280
     0
281
     0
  7
Standard
140
4.5
170
     2
 62
     0
 63
     7
283
     0
274
    -2
284
     1
 64
     0
275
    -2
285
     1
 65
     0
276
    -2
286
     1
 66
     0
277
    -2
287
     1
 67
     0
278
    -2
288
     1
 68
     0
279
    -2
289
     1
 69
     0
  7
Standard
140
6.0
170
     5
 62
     0
 63
     7
283
     0
274
    -2
284
     1
 64
     0
275
    -2
285
     1
 65
     0
276
    -2
286
     1
 66
     0
277
    -2
287
     1
 67
     0
278
    -2
288
     1
 68
     0
279
    -2
289
     1
 69
     0
  7
Standard
140
4.5
170
     5
 62
     0
 63
     7
283
     0
274
    -2
284
     1
 64
     0
275
    -2
285
     1
 65
     0
276
    -2
286
     1
 66
     0
277
    -2
287
     1
 67
     0
278
    -2
288
     1
 68
     0
279
    -2
289
     1
 69
     0
  0
VISUALSTYLE
  5
F5
102
{ACAD_REACTORS
330
EF
102
}
330
EF
100
AcDbVisualStyle
  2
2dWireframe
 70
     4
 71
     0
 72
     2
 73
     1
 90
        0
 40
-0.6
 41
-30.0
 62
     5
 63
     7
 74
     1
 91
        4
 64
     7
 65
   257
 75
     1
175
     1
 42
1.0
 92
        0
 66
   257
 43
1.0
 76
     1
 77
     6
 78
     2
 67
     7
 79
     5
170
     0
171
     0
290
     0
174
     0
 93
        1
 44
0.0
173
     0
291
     0
 45
0.0
1001
ACAD
1000
AcDbSavedByObjectVersion
1070
     0
1000
AcDbSavedByObjectVersion
1070
     0
  0
VISUALSTYLE
  5
F7
102
{ACAD_REACTORS
330
EF
102
}
330
EF
100
AcDbVisualStyle
  2
3D Hidden
 70
     6
 71
     1
 72
     2
 73
     2
 90
        0
 40
-0.6
 41
-30.0
 62
     5
 63
     7
 74
     2
 91
        2
 64
     7
 65
   257
 75
     2
175
     1
 42
40.0
 92
        0
 66
   257
 43
1.0
 76
     1
 77
     6
 78
     2
 67
     7
 79
     3
170
     0
171
     0
290
     0
174
     0
 93
        1
 44
0.0
173
     0
291
     0
 45
0.0
1001
ACAD
1000
AcDbSavedByObjectVersion
1070
     0
1000
AcDbSavedByObjectVersion
1070
     0
  0
VISUALSTYLE
  5
F6
102
{ACAD_REACTORS
330
EF
102
}
330
EF
100
AcDbVisualStyle
  2
3dWireframe
 70
     5
 71
     0
 72
     2
 73
     1
 90
        0
 40
-0.6
 41
-30.0
 62
     5
 63
     7
 74
     1
 91
        4
 64
     7
 65
   257
 75
     1
175
     1
 42
1.0
 92
        0
 66
   257
 43
1.0
 76
     1
 77
     6
 78
     2
 67
     7
 79
     5
170
     0
171
     0
290
     0
174
     0
 93
        1
 44
0.0
173
     0
291
     0
 45
0.0
1001
ACAD
1000
AcDbSavedByObjectVersion
1070
     0
1000
AcDbSavedByObjectVersion
1070
     0
  0
VISUALSTYLE
  5
F4
102
{ACAD_REACTORS
330
EF
102
}
330
EF
100
AcDbVisualStyle
  2
Basic
 70
     7
 71
     1
 72
     0
 73
     1
 90
        0
 40
-0.6
 41
-30.0
 62
     5
 63
     7
 74
     0
 91
        4
 64
     7
 65
   257
 75
     1
175
     1
 42
1.0
 92
        8
 66
     7
 43
1.0
 76
     1
 77
     6
 78
     2
 67
     7
 79
     5
170
     0
171
     0
290
     0
174
     0
 93
        1
 44
0.0
173
     0
291
     1
 45
0.0
1001
ACAD
1000
AcDbSavedByObjectVersion
1070
     0
1000
AcDbSavedByObjectVersion
1070
     0
  0
VISUALSTYLE
  5
FB
102
{ACAD_REACTORS
330
EF
102
}
330
EF
100
AcDbVisualStyle
  2
Brighten
 70
    12
 71
     2
 72
     2
 73
     1
 90
        0
 40
-0.6
 41
-30.0
 62
     5
 63
     7
 74
     1
 91
        4
 64
     7
 65
   257
 75
     1
175
     1
 42
1.0
 92
        8
 66
     7
 43
1.0
 76
     1
 77
     6
 78
     2
 67
     7
 79
     5
170
     0
171
     0
290
     0
174
     0
 93
        1
 44
50.0
173
     0
291
     1
 45
0.0
1001
ACAD
1000
AcDbSavedByObjectVersion
1070
     0
1000
AcDbSavedByObjectVersion
1070
     0
  0
VISUALSTYLE
  5
FF
102
{ACAD_REACTORS
330
EF
102
}
330
EF
100
AcDbVisualStyle
  2
ColorChange
 70
    16
 71
     2
 72
     2
 73
     3
 90
        0
 40
-0.6
 41
-30.0
 62
     5
 63
     8
 74
     1
 91
        4
 64
     7
 65
   257
 75
     1
175
     1
 42
1.0
 92
        8
 66
     8
 43
1.0
 76
     1
 77
     6
 78
     2
 67
     7
 79
     5
170
     0
171
     0
290
     0
174
     0
 93
        1
 44
0.0
173
     0
291
     1
 45
0.0
1001
ACAD
1000
AcDbSavedByObjectVersion
1070
     0
1000
AcDbSavedByObjectVersion
1070
     0
  0
VISUALSTYLE
  5
F8
102
{ACAD_REACTORS
330
EF
102
}
330
EF
100
AcDbVisualStyle
  2
Conceptual
 70
     9
 71
     3
 72
     2
 73
     1
 90
        0
 40
-0.6
 41
-30.0
 62
     5
 63
     7
 74
     2
 91
        2
 64
     7
 65
   257
 75
     1
175
     1
 42
40.0
 92
        8
 66
     7
 43
1.0
 76
     1
 77
     6
 78
     2
 67
     7
 79
     3
170
     0
171
     0
290
     0
174
     0
 93
        1
 44
0.0
173
     0
291
     0
 45
0.0
1001
ACAD
1000
AcDbSavedByObjectVersion
1070
     0
1000
AcDbSavedByObjectVersion
1070
     0
  0
VISUALSTYLE
  5
FA
102
{ACAD_REACTORS
330
EF
102
}
330
EF
100
AcDbVisualStyle
  2
Dim
 70
    11
 71
     2
 72
     2
 73
     1
 90
        0
 40
-0.6
 41
-30.0
 62
     5
 63
     7
 74
     1
 91
        4
 64
     7
 65
   257
 75
     1
175
     1
 42
1.0
 92
        8
 66
     7
 43
1.0
 76
     1
 77
     6
 78
     2
 67
     7
 79
     5
170
     0
171
     0
290
     0
174
     0
 93
        1
 44
-50.0
173
     0
291
     1
 45
0.0
1001
ACAD
1000
AcDbSavedByObjectVersion
1070
     0
1000
AcDbSavedByObjectVersion
1070
     0
  0
VISUALSTYLE
  5
FE
102
{ACAD_REACTORS
330
EF
102
}
330
EF
100
AcDbVisualStyle
  2
Facepattern
 70
    15
 71
     2
 72
     2
 73
     1
 90
        0
 40
-0.6
 41
-30.0
 62
     5
 63
     7
 74
     1
 91
        4
 64
     7
 65
   257
 75
     1
175
     1
 42
1.0
 92
        8
 66
     7
 43
1.0
 76
     1
 77
     6
 78
     2
 67
     7
 79
     5
170
     0
171
     0
290
     0
174
     0
 93
        1
 44
0.0
173
     0
291
     1
 45
0.0
1001
ACAD
1000
AcDbSavedByObjectVersion
1070
     0
1000
AcDbSavedByObjectVersion
1070
     0
  0
VISUALSTYLE
  5
F0
102
{ACAD_REACTORS
330
EF
102
}
330
EF
100
AcDbVisualStyle
  2
Flat
 70
     0
 71
     2
 72
     1
 73
     1
 90
        2
 40
-0.6
 41
30.0
 62
     5
 63
     7
 74
     0
 91
        4
 64
     7
 65
   257
 75
     1
175
     1
 42
1.0
 92
        8
 66
     7
 43
1.0
 76
     1
 77
     6
 78
     2
 67
     7
 79
     5
170
     0
171
     0
290
     0
174
     0
 93
        1
 44
0.0
173
     0
291
     1
 45
0.0
1001
ACAD
1000
AcDbSavedByObjectVersion
1070
     0
1000
AcDbSavedByObjectVersion
1070
     0
  0
VISUALSTYLE
  5
F1
102
{ACAD_REACTORS
330
EF
102
}
330
EF
100
AcDbVisualStyle
  2
FlatWithEdges
 70
     1
 71
     2
 72
     1
 73
     1
 90
        2
 40
-0.6
 41
30.0
 62
     5
 63
     7
 74
     1
 91
        4
 64
     7
 65
   257
 75
     1
175
     1
 42
1.0
 92
        0
 66
   257
 43
1.0
 76
     1
 77
     6
 78
     2
 67
     7
 79
     5
170
     0
171
     0
290
     0
174
     0
 93
        1
 44
0.0
173
     0
291
     1
 45
0.0
1001
ACAD
1000
AcDbSavedByObjectVersion
1070
     0
1000
AcDbSavedByObjectVersion
1070
     0
  0
VISUALSTYLE
  5
F2
102
{ACAD_REACTORS
330
EF
102
}
330
EF
100
AcDbVisualStyle
  2
Gouraud
 70
     2
 71
     2
 72
     2
 73
     1
 90
        2
 40
-0.6
 41
30.0
 62
     5
 63
     7
 74
     0
 91
        4
 64
     7
 65
   257
 75
     1
175
     1
 42
1.0
 92
        0
 66
     7
 43
1.0
 76
     1
 77
     6
 78
     2
 67
     7
 79
     5
170
     0
171
     0
290
     0
174
     0
 93
        1
 44
0.0
173
     0
291
     1
 45
0.0
1001
ACAD
1000
AcDbSavedByObjectVersion
1070
     0
1000
AcDbSavedByObjectVersion
1070
     0
  0
VISUALSTYLE
  5
F3
102
{ACAD_REACTORS
330
EF
102
}
330
EF
100
AcDbVisualStyle
  2
GouraudWithEdges
 70
     3
 71
     2
 72
     2
 73
     1
 90
        2
 40
-0.6
 41
30.0
 62
     5
 63
     7
 74
     1
 91
        4
 64
     7
 65
   257
 75
     1
175
     1
 42
1.0
 92
        0
 66
   257
 43
1.0
 76
     1
 77
     6
 78
     2
 67
     7
 79
     5
170
     0
171
     0
290
     0
174
     0
 93
        1
 44
0.0
173
     0
291
     1
 45
0.0
1001
ACAD
1000
AcDbSavedByObjectVersion
1070
     0
1000
AcDbSavedByObjectVersion
1070
     0
  0
VISUALSTYLE
  5
FD
102
{ACAD_REACTORS
330
EF
102
}
330
EF
100
AcDbVisualStyle
  2
Linepattern
 70
    14
 71
     2
 72
     2
 73
     1
 90
        0
 40
-0.6
 41
-30.0
 62
     5
 63
     7
 74
     1
 91
        4
 64
     7
 65
   257
 75
     7
175
     7
 42
1.0
 92
        8
 66
     7
 43
1.0
 76
     1
 77
     6
 78
     2
 67
     7
 79
     5
170
     0
171
     0
290
     0
174
     0
 93
        1
 44
0.0
173
     0
291
     1
 45
0.0
1001
ACAD
1000
AcDbSavedByObjectVersion
1070
     0
1000
AcDbSavedByObjectVersion
1070
     0
  0
VISUALSTYLE
  5
F9
102
{ACAD_REACTORS
330
EF
102
}
330
EF
100
AcDbVisualStyle
  2
Realistic
 70
     8
 71
     2
 72
     2
 73
     1
 90
        0
 40
-0.6
 41
-30.0
 62
     5
 63
     7
 74
     1
 91
        0
 64
     7
 65
   257
 75
     1
175
     1
 42
1.0
 92
        8
 66
     8
 43
1.0
 76
     1
 77
     6
 78
     2
 67
     7
 79
     5
170
     0
171
     0
290
     0
174
     0
 93
       13
 44
0.0
173
     0
291
     0
 45
0.0
1001
ACAD
1000
AcDbSavedByObjectVersion
1070
     0
1000
AcDbSavedByObjectVersion
1070
     0
  0
VISUALSTYLE
  5
FC
102
{ACAD_REACTORS
330
EF
102
}
330
EF
100
AcDbVisualStyle
  2
Thicken
 70
    13
 71
     2
 72
     2
 73
     1
 90
        0
 40
-0.6
 41
-30.0
 62
     5
 63
     7
 74
     1
 91
        4
 64
     7
 65
   257
 75
     1
175
     1
 42
1.0
 92
       12
 66
     7
 43
1.0
 76
     1
 77
     6
 78
     2
 67
     7
 79
     5
170
     0
171
     0
290
     0
174
     0
 93
        1
 44
0.0
173
     0
291
     1
 45
0.0
1001
ACAD
1000
AcDbSavedByObjectVersion
1070
     0
1000
AcDbSavedByObjectVersion
1070
     0
  0
DICTIONARYVAR
  5
255
102
{ACAD_REACTORS
330
5E
102
}
330
5E
100
DictionaryVariables
280
     0
  1
1:1
  0
DICTIONARYVAR
  5
254
102
{ACAD_REACTORS
330
5E
102
}
330
5E
100
DictionaryVariables
280
     0
  1
STANDARD
  0
DICTIONARYVAR
  5
84
102
{ACAD_REACTORS
330
5E
102
}
330
5E
100
DictionaryVariables
280
     0
  1
STANDARD
  0
DICTIONARYVAR
  5
5F
102
{ACAD_REACTORS
330
5E
102
}
330
5E
100
DictionaryVariables
280
     0
  1
2
  0
DICTIONARYVAR
  5
63
102
{ACAD_REACTORS
330
5E
102
}
330
5E
100
DictionaryVariables
280
     0
  1
1
  0
DICTIONARYVAR
  5
226
102
{ACAD_REACTORS
330
5E
102
}
330
5E
100
DictionaryVariables
280
     0
  1
0
  0
DICTIONARYVAR
  5
257
102
{ACAD_REACTORS
330
5E
102
}
330
5E
100
DictionaryVariables
280
     0
  1
80.000000
  0
DICTIONARYVAR
  5
256
102
{ACAD_REACTORS
330
5E
102
}
330
5E
100
DictionaryVariables
280
     0
  1
5.000000
  0
DICTIONARYVAR
  5
225
102
{ACAD_REACTORS
330
5E
102
}
330
5E
100
DictionaryVariables
280
     0
  1
127
  0
DICTIONARY
  5
25C
330
22
100
AcDbDictionary
280
     1
281
     1
  3
ACAD_XREC_ROUNDTRIP
360
25D
  0
DICTIONARY
  5
25F
330
D3
100
AcDbDictionary
280
     1
281
     1
  3
ACAD_XREC_ROUNDTRIP
360
260
  0
DICTIONARY
  5
261
330
D7
100
AcDbDictionary
280
     1
281
     1
  3
ACAD_XREC_ROUNDTRIP
360
262
  0
DICTIONARY
  5
234
330
ED
100
AcDbDictionary
280
     1
281
     1
  3
ACAD_XREC_ROUNDTRIP
360
235
  0
DICTIONARY
  5
232
330
EC
100
AcDbDictionary
280
     1
281
     1
  3
ACAD_XREC_ROUNDTRIP
360
233
  0
DICTIONARY
  5
236
330
EE
100
AcDbDictionary
280
     1
281
     1
  3
ACAD_XREC_ROUNDTRIP
360
237
  0
DICTIONARY
  5
258
330
7F
100
AcDbDictionary
280
     1
281
     1
  3
ACAD_ROUNDTRIP_2008_TABLESTYLE_CELLSTYLEMAP
360
259
  3
ACAD_XREC_ROUNDTRIP
360
25E
  0
XRECORD
  5
25D
102
{ACAD_REACTORS
330
25C
102
}
330
25C
100
AcDbXrecord
280
     1
102
SHADEPLOT
 70
     0
102
SHADEPLOTRESLEVEL
 70
     2
102
SHADEPLOTCUSTOMDPI
 70
   300
  0
XRECORD
  5
260
102
{ACAD_REACTORS
330
25F
102
}
330
25F
100
AcDbXrecord
280
     1
102
SHADEPLOT
 70
     0
102
SHADEPLOTRESLEVEL
 70
     2
102
SHADEPLOTCUSTOMDPI
 70
   300
  0
XRECORD
  5
262
102
{ACAD_REACTORS
330
261
102
}
330
261
100
AcDbXrecord
280
     1
102
SHADEPLOT
 70
     0
102
SHADEPLOTRESLEVEL
 70
     2
102
SHADEPLOTCUSTOMDPI
 70
   300
  0
XRECORD
  5
235
102
{ACAD_REACTORS
330
234
102
}
330
234
100
AcDbXrecord
280
     1
102
MATERIAL
148
0.0
149
0.0
149
0.0
 93
        0
 94
      127
282
     0
 72
     1
 77
     1
171
     1
175
     1
179
     1
273
     0
  0
XRECORD
  5
233
102
{ACAD_REACTORS
330
232
102
}
330
232
100
AcDbXrecord
280
     1
102
MATERIAL
148
0.0
149
0.0
149
0.0
 93
        0
 94
      127
282
     0
 72
     1
 77
     1
171
     1
175
     1
179
     1
273
     0
  0
XRECORD
  5
237
102
{ACAD_REACTORS
330
236
102
}
330
236
100
AcDbXrecord
280
     1
102
MATERIAL
148
0.0
149
0.0
149
0.0
 93
        0
 94
      127
282
     0
 72
     1
 77
     1
171
     1
175
     1
179
     1
273
     0
  0
CELLSTYLEMAP
  5
259
102
{ACAD_REACTORS
330
258
102
}
330
258
100
AcDbCellStyleMap
 90
        3
300
CELLSTYLE
  1
TABLEFORMAT_BEGIN
 90
        5
170
     1
 91
        0
 92
    32768
 62
   257
 93
        1
300
CONTENTFORMAT
  1
CONTENTFORMAT_BEGIN
 90
        0
 91
        0
 92
      512
 93
        0
300

 40
0.0
140
1.0
 94
        5
 62
     0
340
11
144
6.0
309
CONTENTFORMAT_END
171
     1
301
MARGIN
  1
CELLMARGIN_BEGIN
 40
1.5
 40
1.5
 40
1.5
 40
1.5
 40
0.18
 40
0.18
309
CELLMARGIN_END
 94
        6
 95
        1
302
GRIDFORMAT
  1
GRIDFORMAT_BEGIN
 90
        0
 91
        1
 62
     0
 92
       -2
340
0
 93
        0
 40
0.045
309
GRIDFORMAT_END
 95
        2
302
GRIDFORMAT
  1
GRIDFORMAT_BEGIN
 90
        0
 91
        1
 62
     0
 92
       -2
340
0
 93
        0
 40
0.045
309
GRIDFORMAT_END
 95
        4
302
GRIDFORMAT
  1
GRIDFORMAT_BEGIN
 90
        0
 91
        1
 62
     0
 92
       -2
340
0
 93
        0
 40
0.045
309
GRIDFORMAT_END
 95
        8
302
GRIDFORMAT
  1
GRIDFORMAT_BEGIN
 90
        0
 91
        1
 62
     0
 92
       -2
340
0
 93
        0
 40
0.045
309
GRIDFORMAT_END
 95
       16
302
GRIDFORMAT
  1
GRIDFORMAT_BEGIN
 90
        0
 91
        1
 62
     0
 92
       -2
340
0
 93
        0
 40
0.045
309
GRIDFORMAT_END
 95
       32
302
GRIDFORMAT
  1
GRIDFORMAT_BEGIN
 90
        0
 91
        1
 62
     0
 92
       -2
340
0
 93
        0
 40
0.045
309
GRIDFORMAT_END
309
TABLEFORMAT_END
  1
CELLSTYLE_BEGIN
 90
        1
 91
        1
300
_TITLE
309
CELLSTYLE_END
300
CELLSTYLE
  1
TABLEFORMAT_BEGIN
 90
        5
170
     1
 91
        0
 92
        0
 62
   257
 93
        1
300
CONTENTFORMAT
  1
CONTENTFORMAT_BEGIN
 90
        0
 91
        0
 92
      512
 93
        0
300

 40
0.0
140
1.0
 94
        5
 62
     0
340
11
144
4.5
309
CONTENTFORMAT_END
171
     1
301
MARGIN
  1
CELLMARGIN_BEGIN
 40
1.5
 40
1.5
 40
1.5
 40
1.5
 40
0.18
 40
0.18
309
CELLMARGIN_END
 94
        6
 95
        1
302
GRIDFORMAT
  1
GRIDFORMAT_BEGIN
 90
        0
 91
        1
 62
     0
 92
       -2
340
0
 93
        0
 40
0.045
309
GRIDFORMAT_END
 95
        2
302
GRIDFORMAT
  1
GRIDFORMAT_BEGIN
 90
        0
 91
        1
 62
     0
 92
       -2
340
0
 93
        0
 40
0.045
309
GRIDFORMAT_END
 95
        4
302
GRIDFORMAT
  1
GRIDFORMAT_BEGIN
 90
        0
 91
        1
 62
     0
 92
       -2
340
0
 93
        0
 40
0.045
309
GRIDFORMAT_END
 95
        8
302
GRIDFORMAT
  1
GRIDFORMAT_BEGIN
 90
        0
 91
        1
 62
     0
 92
       -2
340
0
 93
        0
 40
0.045
309
GRIDFORMAT_END
 95
       16
302
GRIDFORMAT
  1
GRIDFORMAT_BEGIN
 90
        0
 91
        1
 62
     0
 92
       -2
340
0
 93
        0
 40
0.045
309
GRIDFORMAT_END
 95
       32
302
GRIDFORMAT
  1
GRIDFORMAT_BEGIN
 90
        0
 91
        1
 62
     0
 92
       -2
340
0
 93
        0
 40
0.045
309
GRIDFORMAT_END
309
TABLEFORMAT_END
  1
CELLSTYLE_BEGIN
 90
        2
 91
        1
300
_HEADER
309
CELLSTYLE_END
300
CELLSTYLE
  1
TABLEFORMAT_BEGIN
 90
        5
170
     1
 91
        0
 92
        0
 62
   257
 93
        1
300
CONTENTFORMAT
  1
CONTENTFORMAT_BEGIN
 90
        0
 91
        0
 92
      512
 93
        0
300

 40
0.0
140
1.0
 94
        2
 62
     0
340
11
144
4.5
309
CONTENTFORMAT_END
171
     1
301
MARGIN
  1
CELLMARGIN_BEGIN
 40
1.5
 40
1.5
 40
1.5
 40
1.5
 40
0.18
 40
0.18
309
CELLMARGIN_END
 94
        6
 95
        1
302
GRIDFORMAT
  1
GRIDFORMAT_BEGIN
 90
        0
 91
        1
 62
     0
 92
       -2
340
0
 93
        0
 40
0.045
309
GRIDFORMAT_END
 95
        2
302
GRIDFORMAT
  1
GRIDFORMAT_BEGIN
 90
        0
 91
        1
 62
     0
 92
       -2
340
0
 93
        0
 40
0.045
309
GRIDFORMAT_END
 95
        4
302
GRIDFORMAT
  1
GRIDFORMAT_BEGIN
 90
        0
 91
        1
 62
     0
 92
       -2
340
0
 93
        0
 40
0.045
309
GRIDFORMAT_END
 95
        8
302
GRIDFORMAT
  1
GRIDFORMAT_BEGIN
 90
        0
 91
        1
 62
     0
 92
       -2
340
0
 93
        0
 40
0.045
309
GRIDFORMAT_END
 95
       16
302
GRIDFORMAT
  1
GRIDFORMAT_BEGIN
 90
        0
 91
        1
 62
     0
 92
       -2
340
0
 93
        0
 40
0.045
309
GRIDFORMAT_END
 95
       32
302
GRIDFORMAT
  1
GRIDFORMAT_BEGIN
 90
        0
 91
        1
 62
     0
 92
       -2
340
0
 93
        0
 40
0.045
309
GRIDFORMAT_END
309
TABLEFORMAT_END
  1
CELLSTYLE_BEGIN
 90
        3
 91
        2
300
_DATA
309
CELLSTYLE_END
  0
XRECORD
  5
25E
102
{ACAD_REACTORS
330
258
102
}
330
258
100
AcDbXrecord
280
     1
102
ACAD_ROUNDTRIP_PRE2007_TABLESTYLE
 90
      512
 91
        0
  1

 92
      512
 93
        0
  2

 94
      512
 95
        0
  3

  0
ENDSEC
  0
EOF
