  0
SECTION
  2
HEADER
  9
$ACADVER
  1
AC1009
  9
$DWGCODEPAGE
  3
ansi_1256
  9
$INSBASE
 10
0.0
 20
0.0
 30
0.0
  9
$EXTMIN
 10
-1098.95271550639
 20
868.6724274768881
 30
0.0
  9
$EXTMAX
 10
-588.9527155063898
 20
1378.672427476888
 30
0.0
  9
$LIMMIN
 10
0.0
 20
0.0
  9
$LIMMAX
 10
12.0
 20
9.0
  9
$ORTHOMODE
 70
     0
  9
$REGENMODE
 70
     1
  9
$FILLMODE
 70
     1
  9
$QTEXTMODE
 70
     0
  9
$MIRRTEXT
 70
     1
  9
$DRAGMODE
 70
     2
  9
$LTSCALE
 40
1.0
  9
$OSMODE
 70
    37
  9
$ATTMODE
 70
     1
  9
$TEXTSIZE
 40
0.2
  9
$TRACEWID
 40
0.05
  9
$TEXTSTYLE
  7
STANDARD
  9
$CLAYER
  8
0
  9
$CELTYPE
  6
BYLAYER
  9
$CECOLOR
 62
   256
  9
$DIMSCALE
 40
1.0
  9
$DIMASZ
 40
0.18
  9
$DIMEXO
 40
0.0625
  9
$DIMDLI
 40
0.38
  9
$DIMRND
 40
0.0
  9
$DIMDLE
 40
0.0
  9
$DIMEXE
 40
0.18
  9
$DIMTP
 40
0.0
  9
$DIMTM
 40
0.0
  9
$DIMTXT
 40
0.18
  9
$DIMCEN
 40
0.09
  9
$DIMTSZ
 40
0.0
  9
$DIMTOL
 70
     0
  9
$DIMLIM
 70
     0
  9
$DIMTIH
 70
     1
  9
$DIMTOH
 70
     1
  9
$DIMSE1
 70
     0
  9
$DIMSE2
 70
     0
  9
$DIMTAD
 70
     0
  9
$DIMZIN
 70
     0
  9
$DIMBLK
  1

  9
$DIMASO
 70
     1
  9
$DIMSHO
 70
     1
  9
$DIMPOST
  1

  9
$DIMAPOST
  1

  9
$DIMALT
 70
     0
  9
$DIMALTD
 70
     2
  9
$DIMALTF
 40
25.4
  9
$DIMLFAC
 40
1.0
  9
$DIMTOFL
 70
     0
  9
$DIMTVP
 40
0.0
  9
$DIMTIX
 70
     0
  9
$DIMSOXD
 70
     0
  9
$DIMSAH
 70
     0
  9
$DIMBLK1
  1

  9
$DIMBLK2
  1

  9
$DIMSTYLE
  2
STANDARD
  9
$DIMCLRD
 70
     0
  9
$DIMCLRE
 70
     0
  9
$DIMCLRT
 70
     0
  9
$DIMTFAC
 40
1.0
  9
$DIMGAP
 40
0.09
  9
$LUNITS
 70
     2
  9
$LUPREC
 70
     4
  9
$SKETCHINC
 40
0.1
  9
$FILLETRAD
 40
0.5
  9
$AUNITS
 70
     0
  9
$AUPREC
 70
     0
  9
$MENU
  1
.
  9
$ELEVATION
 40
0.0
  9
$PELEVATION
 40
0.0
  9
$THICKNESS
 40
0.0
  9
$LIMCHECK
 70
     0
  9
$CHAMFERA
 40
0.5
  9
$CHAMFERB
 40
0.5
  9
$SKPOLY
 70
     0
  9
$TDCREATE
 40
2454910.5
  9
$TDUPDATE
 40
2458187.479974861
  9
$TDINDWG
 40
0.0000000116
  9
$TDUSRTIMER
 40
0.0000000116
  9
$USRTIMER
 70
     1
  9
$ANGBASE
 50
0.0
  9
$ANGDIR
 70
     0
  9
$PDMODE
 70
     0
  9
$PDSIZE
 40
0.0
  9
$PLINEWID
 40
0.0
  9
$COORDS
 70
     1
  9
$SPLFRAME
 70
     0
  9
$SPLINETYPE
 70
     6
  9
$SPLINESEGS
 70
     8
  9
$ATTDIA
 70
     0
  9
$ATTREQ
 70
     1
  9
$HANDLING
 70
     1
  9
$HANDSEED
  5
3BC
  9
$SURFTAB1
 70
     6
  9
$SURFTAB2
 70
     6
  9
$SURFTYPE
 70
     6
  9
$SURFU
 70
     6
  9
$SURFV
 70
     6
  9
$UCSNAME
  2

  9
$UCSORG
 10
0.0
 20
0.0
 30
0.0
  9
$UCSXDIR
 10
1.0
 20
0.0
 30
0.0
  9
$UCSYDIR
 10
0.0
 20
1.0
 30
0.0
  9
$PUCSNAME
  2

  9
$PUCSORG
 10
0.0
 20
0.0
 30
0.0
  9
$PUCSXDIR
 10
1.0
 20
0.0
 30
0.0
  9
$PUCSYDIR
 10
0.0
 20
1.0
 30
0.0
  9
$USERI1
 70
     0
  9
$USERI2
 70
     0
  9
$USERI3
 70
     0
  9
$USERI4
 70
     0
  9
$USERI5
 70
     0
  9
$USERR1
 40
0.0
  9
$USERR2
 40
0.0
  9
$USERR3
 40
0.0
  9
$USERR4
 40
0.0
  9
$USERR5
 40
0.0
  9
$WORLDVIEW
 70
     1
  9
$SHADEDGE
 70
     3
  9
$SHADEDIF
 70
    70
  9
$TILEMODE
 70
     1
  9
$MAXACTVP
 70
    64
  9
$PLIMCHECK
 70
     0
  9
$PEXTMIN
 10
1.000000000000000E+20
 20
1.000000000000000E+20
 30
1.000000000000000E+20
  9
$PEXTMAX
 10
-1.000000000000000E+20
 20
-1.000000000000000E+20
 30
-1.000000000000000E+20
  9
$PLIMMIN
 10
0.0
 20
0.0
  9
$PLIMMAX
 10
12.0
 20
9.0
  9
$UNITMODE
 70
     0
  9
$VISRETAIN
 70
     1
  9
$PLINEGEN
 70
     0
  9
$PSLTSCALE
 70
     1
  0
ENDSEC
  0
SECTION
  2
TABLES
  0
TABLE
  2
VPORT
 70
     1
  0
VPORT
  2
*ACTIVE
 70
     0
 10
0.0
 20
0.0
 11
1.0
 21
1.0
 12
10.42990654205607
 22
4.5
 13
0.0
 23
0.0
 14
0.5
 24
0.5
 15
0.5
 25
0.5
 16
0.0
 26
0.0
 36
1.0
 17
0.0
 27
0.0
 37
0.0
 40
9.0
 41
1.972972972850329
 42
50.0
 43
0.0
 44
0.0
 50
0.0
 51
0.0
 71
     0
 72
   100
 73
     1
 74
     3
 75
     0
 76
     0
 77
     0
 78
     0
  0
ENDTAB
  0
TABLE
  2
LTYPE
 70
     2
  0
LTYPE
  2
CONTINUOUS
 70
     0
  3
Solid line
 72
    65
 73
     0
 40
0.0
  0
LTYPE
  2
CONTINUOUS2
 70
     0
  3
Solid Line
 72
    65
 73
     0
 40
0.0
  0
ENDTAB
  0
TABLE
  2
LAYER
 70
     2
  0
LAYER
  2
0
 70
     0
 62
     7
  6
CONTINUOUS
  0
LAYER
  2
LAYER_1
 70
     0
 62
    18
  6
CONTINUOUS
  0
ENDTAB
  0
TABLE
  2
STYLE
 70
     1
  0
STYLE
  2
STANDARD
 70
     0
 40
0.0
 41
1.0
 50
0.0
 71
     0
 42
0.2
  3
txt
  4

  0
ENDTAB
  0
TABLE
  2
VIEW
 70
     0
  0
ENDTAB
  0
TABLE
  2
UCS
 70
     0
  0
ENDTAB
  0
TABLE
  2
APPID
 70
     1
  0
APPID
  2
ACAD
 70
     0
  0
ENDTAB
  0
TABLE
  2
DIMSTYLE
 70
     1
  0
DIMSTYLE
  2
STANDARD
 70
     0
  3

  4

  5

  6

  7

 40
1.0
 41
0.18
 42
0.0625
 43
0.38
 44
0.18
 45
0.0
 46
0.0
 47
0.0
 48
0.0
140
0.18
141
0.09
142
0.0
143
25.4
144
1.0
145
0.0
146
1.0
147
0.09
 71
     0
 72
     0
 73
     1
 74
     1
 75
     0
 76
     0
 77
     0
 78
     0
170
     0
171
     2
172
     0
173
     0
174
     0
175
     0
176
     0
177
     0
178
     0
  0
ENDTAB
  0
ENDSEC
  0
SECTION
  2
BLOCKS
  0
BLOCK
  8
0
  2
$MODEL_SPACE
 70
     0
 10
0.0
 20
0.0
 30
0.0
  3
$MODEL_SPACE
  1

  0
ENDBLK
  5
21
  8
0
  0
BLOCK
 67
     1
  8
0
  2
$PAPER_SPACE
 70
     0
 10
0.0
 20
0.0
 30
0.0
  3
$PAPER_SPACE
  1

  0
ENDBLK
  5
1D
 67
     1
  8
0
  0
ENDSEC
  0
SECTION
  2
ENTITIES
  0
POLYLINE
  5
41
  8
LAYER_1
 66
     1
 10
0.0
 20
0.0
 30
0.0
 70
     1
  0
VERTEX
  5
9C
  8
LAYER_1
 10
-609.9516977103817
 20
1033.148107763856
 30
0.0
  0
VERTEX
  5
9D
  8
LAYER_1
 10
-614.1252781933705
 20
1045.414508376915
 30
0.0
  0
VERTEX
  5
9E
  8
LAYER_1
 10
-610.3344506943737
 20
1064.499654019803
 30
0.0
  0
VERTEX
  5
9F
  8
LAYER_1
 10
-623.0439470395603
 20
1067.055700311261
 30
0.0
  0
VERTEX
  5
A0
  8
LAYER_1
 10
-617.0929246172067
 20
1078.561841001732
 30
0.0
  0
VERTEX
  5
A1
  8
LAYER_1
 10
-618.1887516535706
 20
1091.482327306811
 30
0.0
  0
VERTEX
  5
A2
  8
LAYER_1
 10
-605.4635257336982
 20
1088.956429253663
 30
0.0
  0
VERTEX
  5
A3
  8
LAYER_1
 10
-601.6779414262619
 20
1108.02584538091
 30
0.0
  0
VERTEX
  5
A4
  8
LAYER_1
 10
-593.1210527978191
 20
1117.765037147851
 30
0.0
  0
VERTEX
  5
A5
  8
LAYER_1
 10
-588.9527155063898
 20
1105.501258120732
 30
0.0
  0
VERTEX
  5
A6
  8
LAYER_1
 10
-589.6238440262674
 20
1073.082726387223
 30
0.0
  0
VERTEX
  5
A7
  8
LAYER_1
 10
-601.4157818481848
 20
1042.887299530797
 30
0.0
  0
SEQEND
  5
A8
  8
LAYER_1
  0
POLYLINE
  5
42
  8
LAYER_1
 66
     1
 10
0.0
 20
0.0
 30
0.0
 70
     1
  0
VERTEX
  5
A9
  8
LAYER_1
 10
-657.1351785727311
 20
1076.598273132704
 30
0.0
  0
VERTEX
  5
AA
  8
LAYER_1
 10
-638.0814204380746
 20
1072.810081449466
 30
0.0
  0
VERTEX
  5
AB
  8
LAYER_1
 10
-629.8024209623935
 20
1081.073320332212
 30
0.0
  0
VERTEX
  5
AC
  8
LAYER_1
 10
-634.2905929390766
 20
1091.879497576715
 30
0.0
  0
VERTEX
  5
AD
  8
LAYER_1
 10
-653.3443510737341
 20
1095.683418775593
 30
0.0
  0
VERTEX
  5
AE
  8
LAYER_1
 10
-661.5656754422387
 20
1087.404450377207
 30
0.0
  0
SEQEND
  5
AF
  8
LAYER_1
  0
POLYLINE
  5
43
  8
LAYER_1
 66
     1
 10
0.0
 20
0.0
 30
0.0
 70
     1
  0
VERTEX
  5
B0
  8
LAYER_1
 10
-660.4541188311902
 20
1047.666450699338
 30
0.0
  0
VERTEX
  5
B1
  8
LAYER_1
 10
-644.7297873381157
 20
1062.596382627394
 30
0.0
  0
VERTEX
  5
B2
  8
LAYER_1
 10
-626.8452609216804
 20
1054.941351682719
 30
0.0
  0
VERTEX
  5
B3
  8
LAYER_1
 10
-631.9468863110656
 20
1043.023621999675
 30
0.0
  0
VERTEX
  5
B4
  8
LAYER_1
 10
-624.2026923746627
 20
1032.644763263385
 30
0.0
  0
VERTEX
  5
B5
  8
LAYER_1
 10
-637.0432685088883
 20
1031.09278438693
 30
0.0
  0
VERTEX
  5
B6
  8
LAYER_1
 10
-642.1606234729561
 20
1019.177676289825
 30
0.0
  0
VERTEX
  5
B7
  8
LAYER_1
 10
-660.0399066978289
 20
1026.8327072345
 30
0.0
  0
SEQEND
  5
B8
  8
LAYER_1
  0
POLYLINE
  5
44
  8
LAYER_1
 66
     1
 10
0.0
 20
0.0
 30
0.0
 70
     1
  0
VERTEX
  5
B9
  8
LAYER_1
 10
-689.3703202931162
 20
1008.691332529996
 30
0.0
  0
VERTEX
  5
BA
  8
LAYER_1
 10
-673.2212902835536
 20
997.900884801133
 30
0.0
  0
VERTEX
  5
BB
  8
LAYER_1
 10
-662.415072475208
 20
1002.3733104147
 30
0.0
  0
VERTEX
  5
BC
  8
LAYER_1
 10
-662.415072475208
 20
1014.062962120969
 30
0.0
  0
VERTEX
  5
BD
  8
LAYER_1
 10
-678.5641024847708
 20
1024.866517779532
 30
0.0
  0
VERTEX
  5
BE
  8
LAYER_1
 10
-689.3388611437472
 20
1020.362633134685
 30
0.0
  0
SEQEND
  5
BF
  8
LAYER_1
  0
POLYLINE
  5
45
  8
LAYER_1
 66
     1
 10
0.0
 20
0.0
 30
0.0
 70
     1
  0
VERTEX
  5
C0
  8
LAYER_1
 10
-662.415072475208
 20
950.4921246629489
 30
0.0
  0
VERTEX
  5
C1
  8
LAYER_1
 10
-661.5656754422387
 20
963.4270296906967
 30
0.0
  0
VERTEX
  5
C2
  8
LAYER_1
 10
-650.759457633892
 20
979.5917285964723
 30
0.0
  0
VERTEX
  5
C3
  8
LAYER_1
 10
-661.5420810802118
 20
986.798468345415
 30
0.0
  0
VERTEX
  5
C4
  8
LAYER_1
 10
-651.6403138162317
 20
995.1587059079388
 30
0.0
  0
VERTEX
  5
C5
  8
LAYER_1
 10
-647.7131633366344
 20
1007.503754099196
 30
0.0
  0
VERTEX
  5
C6
  8
LAYER_1
 10
-636.9069455282877
 20
1000.333716553413
 30
0.0
  0
VERTEX
  5
C7
  8
LAYER_1
 10
-626.1007277199423
 20
1016.498415459189
 30
0.0
  0
VERTEX
  5
C8
  8
LAYER_1
 10
-614.4923016026802
 20
1022.218715980175
 30
0.0
  0
VERTEX
  5
C9
  8
LAYER_1
 10
-615.3259690609659
 20
1009.299540468067
 30
0.0
  0
VERTEX
  5
CA
  8
LAYER_1
 10
-628.339570516723
 20
979.6074581121125
 30
0.0
  0
VERTEX
  5
CB
  8
LAYER_1
 10
-650.7856735917009
 20
956.2150467698756
 30
0.0
  0
SEQEND
  5
CC
  8
LAYER_1
  0
POLYLINE
  5
46
  8
LAYER_1
 66
     1
 10
0.0
 20
0.0
 30
0.0
 70
     1
  0
VERTEX
  5
CD
  8
LAYER_1
 10
-746.2589487358875
 20
1083.202048115457
 30
0.0
  0
VERTEX
  5
CE
  8
LAYER_1
 10
-682.548928071544
 20
1069.719231626257
 30
0.0
  0
VERTEX
  5
CF
  8
LAYER_1
 10
-673.9186347612409
 20
1077.785851563505
 30
0.0
  0
VERTEX
  5
D0
  8
LAYER_1
 10
-673.588313692863
 20
1067.818581819789
 30
0.0
  0
VERTEX
  5
D1
  8
LAYER_1
 10
-659.3845077526356
 20
1064.803757988838
 30
0.0
  0
VERTEX
  5
D2
  8
LAYER_1
 10
-673.084967302955
 20
1052.901757821433
 30
0.0
  0
VERTEX
  5
D3
  8
LAYER_1
 10
-672.2145975037374
 20
1034.776112632569
 30
0.0
  0
VERTEX
  5
D4
  8
LAYER_1
 10
-684.1323719231314
 20
1042.567466046122
 30
0.0
  0
VERTEX
  5
D5
  8
LAYER_1
 10
-691.2735988299575
 20
1035.903394586751
 30
0.0
  0
VERTEX
  5
D6
  8
LAYER_1
 10
-691.6511086223879
 20
1047.485561269481
 30
0.0
  0
SEQEND
  5
D7
  8
LAYER_1
  0
POLYLINE
  5
47
  8
LAYER_1
 66
     1
 10
0.0
 20
0.0
 30
0.0
 70
     1
  0
VERTEX
  5
D8
  8
LAYER_1
 10
-711.2868610203764
 20
962.9866032527848
 30
0.0
  0
VERTEX
  5
D9
  8
LAYER_1
 10
-703.5059647430427
 20
983.2278682951934
 30
0.0
  0
VERTEX
  5
DA
  8
LAYER_1
 10
-684.1009127737622
 20
990.8226027632485
 30
0.0
  0
VERTEX
  5
DB
  8
LAYER_1
 10
-670.1749959862965
 20
977.2323012505113
 30
0.0
  0
VERTEX
  5
DC
  8
LAYER_1
 10
-679.2457173877705
 20
967.9466438511836
 30
0.0
  0
VERTEX
  5
DD
  8
LAYER_1
 10
-675.7642381909043
 20
955.4836242926275
 30
0.0
  0
VERTEX
  5
DE
  8
LAYER_1
 10
-688.3059524061213
 20
958.6793375534346
 30
0.0
  0
VERTEX
  5
DF
  8
LAYER_1
 10
-697.3766738075952
 20
949.3963017400466
 30
0.0
  0
SEQEND
  5
E0
  8
LAYER_1
  0
POLYLINE
  5
48
  8
LAYER_1
 66
     1
 10
0.0
 20
0.0
 30
0.0
 70
     1
  0
VERTEX
  5
E1
  8
LAYER_1
 10
-783.0294511570077
 20
1111.557121642032
 30
0.0
  0
VERTEX
  5
E2
  8
LAYER_1
 10
-770.7761124776763
 20
1113.672741495578
 30
0.0
  0
VERTEX
  5
E3
  8
LAYER_1
 10
-682.2448229609757
 20
1102.486434289781
 30
0.0
  0
VERTEX
  5
E4
  8
LAYER_1
 10
-677.2847637437525
 20
1090.524137645757
 30
0.0
  0
VERTEX
  5
E5
  8
LAYER_1
 10
-686.4446194017734
 20
1081.361694785606
 30
0.0
  0
VERTEX
  5
E6
  8
LAYER_1
 10
-772.5273384592324
 20
1104.921887628002
 30
0.0
  0
SEQEND
  5
E7
  8
LAYER_1
  0
POLYLINE
  5
49
  8
LAYER_1
 66
     1
 10
0.0
 20
0.0
 30
0.0
 70
     1
  0
VERTEX
  5
E8
  8
LAYER_1
 10
-769.1769390514054
 20
1048.898596091118
 30
0.0
  0
VERTEX
  5
E9
  8
LAYER_1
 10
-732.333031948423
 20
995.2058944548568
 30
0.0
  0
VERTEX
  5
EA
  8
LAYER_1
 10
-736.4856396651659
 20
984.1428017882381
 30
0.0
  0
VERTEX
  5
EB
  8
LAYER_1
 10
-727.1422723024908
 20
987.6557269477805
 30
0.0
  0
VERTEX
  5
EC
  8
LAYER_1
 10
-718.9419207002325
 20
975.6803223740571
 30
0.0
  0
VERTEX
  5
ED
  8
LAYER_1
 10
-713.1848963656571
 20
992.9093851714542
 30
0.0
  0
VERTEX
  5
EE
  8
LAYER_1
 10
-696.0973350665801
 20
999.0255451693743
 30
0.0
  0
VERTEX
  5
EF
  8
LAYER_1
 10
-707.8630569306889
 20
1007.060706075343
 30
0.0
  0
VERTEX
  5
F0
  8
LAYER_1
 10
-704.4235232663141
 20
1016.207419419853
 30
0.0
  0
VERTEX
  5
F1
  8
LAYER_1
 10
-715.2874161818361
 20
1012.13085328322
 30
0.0
  0
SEQEND
  5
F2
  8
LAYER_1
  0
POLYLINE
  5
4A
  8
LAYER_1
 66
     1
 10
0.0
 20
0.0
 30
0.0
 70
     1
  0
VERTEX
  5
F3
  8
LAYER_1
 10
-792.2994138378203
 20
1089.168777714799
 30
0.0
  0
VERTEX
  5
F4
  8
LAYER_1
 10
-780.1823981390885
 20
1086.429220407544
 30
0.0
  0
VERTEX
  5
F5
  8
LAYER_1
 10
-702.6565677100713
 20
1042.218795116108
 30
0.0
  0
VERTEX
  5
F6
  8
LAYER_1
 10
-702.6565677100713
 20
1029.26553898678
 30
0.0
  0
VERTEX
  5
F7
  8
LAYER_1
 10
-714.6162876619584
 20
1024.305498388381
 30
0.0
  0
VERTEX
  5
F8
  8
LAYER_1
 10
-785.1424573563118
 20
1079.002267439645
 30
0.0
  0
SEQEND
  5
F9
  8
LAYER_1
  0
POLYLINE
  5
4B
  8
LAYER_1
 66
     1
 10
0.0
 20
0.0
 30
0.0
 70
     1
  0
VERTEX
  5
FA
  8
LAYER_1
 10
-745.1473921248402
 20
958.2834780765015
 30
0.0
  0
VERTEX
  5
FB
  8
LAYER_1
 10
-740.6434905734724
 20
969.0581962897247
 30
0.0
  0
VERTEX
  5
FC
  8
LAYER_1
 10
-728.9721461574708
 20
969.0896553210047
 30
0.0
  0
VERTEX
  5
FD
  8
LAYER_1
 10
-718.1816579238099
 20
952.9406859308689
 30
0.0
  0
VERTEX
  5
FE
  8
LAYER_1
 10
-722.6541003258077
 20
942.1345086863658
 30
0.0
  0
VERTEX
  5
FF
  8
LAYER_1
 10
-734.3411743164935
 20
942.1345086863658
 30
0.0
  0
SEQEND
  5
100
  8
LAYER_1
  0
POLYLINE
  5
4C
  8
LAYER_1
 66
     1
 10
0.0
 20
0.0
 30
0.0
 70
     1
  0
VERTEX
  5
101
  8
LAYER_1
 10
-806.7077042489481
 20
1059.901392281118
 30
0.0
  0
VERTEX
  5
102
  8
LAYER_1
 10
-809.4498934356376
 20
1072.0183624956
 30
0.0
  0
VERTEX
  5
103
  8
LAYER_1
 10
-799.2833449978008
 20
1064.864054465456
 30
0.0
  0
VERTEX
  5
104
  8
LAYER_1
 10
-744.5863706277544
 20
994.3381495087318
 30
0.0
  0
VERTEX
  5
105
  8
LAYER_1
 10
-749.5464298449765
 20
982.3758528647077
 30
0.0
  0
VERTEX
  5
106
  8
LAYER_1
 10
-762.4971130019943
 20
982.3758528647077
 30
0.0
  0
SEQEND
  5
107
  8
LAYER_1
  0
POLYLINE
  5
4D
  8
LAYER_1
 66
     1
 10
0.0
 20
0.0
 30
0.0
 70
     1
  0
VERTEX
  5
108
  8
LAYER_1
 10
-742.4995803862588
 20
894.2119177039502
 30
0.0
  0
VERTEX
  5
109
  8
LAYER_1
 10
-729.5803563786113
 20
895.0482036187963
 30
0.0
  0
VERTEX
  5
10A
  8
LAYER_1
 10
-699.8829193740155
 20
908.0591346388036
 30
0.0
  0
VERTEX
  5
10B
  8
LAYER_1
 10
-676.4930418179599
 20
930.5103966285957
 30
0.0
  0
VERTEX
  5
10C
  8
LAYER_1
 10
-670.772719824312
 20
942.1345086863658
 30
0.0
  0
VERTEX
  5
10D
  8
LAYER_1
 10
-683.7076734066462
 20
941.2851148418197
 30
0.0
  0
VERTEX
  5
10E
  8
LAYER_1
 10
-699.8724329908913
 20
930.478937597317
 30
0.0
  0
VERTEX
  5
10F
  8
LAYER_1
 10
-707.073956600675
 20
941.2615205683603
 30
0.0
  0
VERTEX
  5
110
  8
LAYER_1
 10
-715.4394687371213
 20
931.3597904731419
 30
0.0
  0
VERTEX
  5
111
  8
LAYER_1
 10
-727.7819416730005
 20
927.4352763210264
 30
0.0
  0
VERTEX
  5
112
  8
LAYER_1
 10
-720.6144988083668
 20
916.6290990765233
 30
0.0
  0
VERTEX
  5
113
  8
LAYER_1
 10
-736.7792583926131
 20
905.8229218320199
 30
0.0
  0
SEQEND
  5
114
  8
LAYER_1
  0
POLYLINE
  5
4E
  8
LAYER_1
 66
     1
 10
0.0
 20
0.0
 30
0.0
 70
     1
  0
VERTEX
  5
115
  8
LAYER_1
 10
-798.0669245555208
 20
953.6432709627779
 30
0.0
  0
VERTEX
  5
116
  8
LAYER_1
 10
-788.2936154848012
 20
953.3234374781018
 30
0.0
  0
VERTEX
  5
117
  8
LAYER_1
 10
-785.3888873597043
 20
939.3661139337712
 30
0.0
  0
VERTEX
  5
118
  8
LAYER_1
 10
-773.1827374044246
 20
952.8043634619912
 30
0.0
  0
VERTEX
  5
119
  8
LAYER_1
 10
-755.072753750847
 20
951.5407590389323
 30
0.0
  0
VERTEX
  5
11A
  8
LAYER_1
 10
-762.9847298172186
 20
963.702296214393
 30
0.0
  0
VERTEX
  5
11B
  8
LAYER_1
 10
-756.1843103618935
 20
970.9929267134137
 30
0.0
  0
VERTEX
  5
11C
  8
LAYER_1
 10
-767.97624818381
 20
971.3887861903468
 30
0.0
  0
VERTEX
  5
11D
  8
LAYER_1
 10
-803.4831414385984
 20
1025.978070218073
 30
0.0
  0
VERTEX
  5
11E
  8
LAYER_1
 10
-790.1339757229022
 20
962.118858306658
 30
0.0
  0
SEQEND
  5
11F
  8
LAYER_1
  0
POLYLINE
  5
4F
  8
LAYER_1
 66
     1
 10
0.0
 20
0.0
 30
0.0
 70
     1
  0
VERTEX
  5
120
  8
LAYER_1
 10
-775.1436910484437
 20
907.0865262550797
 30
0.0
  0
VERTEX
  5
121
  8
LAYER_1
 10
-782.3897817865001
 20
925.1518749673237
 30
0.0
  0
VERTEX
  5
122
  8
LAYER_1
 10
-767.9447890344419
 20
940.173562403278
 30
0.0
  0
VERTEX
  5
123
  8
LAYER_1
 10
-746.2746783105721
 20
939.6099214261868
 30
0.0
  0
VERTEX
  5
124
  8
LAYER_1
 10
-739.0443171472012
 20
921.560302229582
 30
0.0
  0
VERTEX
  5
125
  8
LAYER_1
 10
-751.0826849725102
 20
916.7365841000614
 30
0.0
  0
VERTEX
  5
126
  8
LAYER_1
 10
-752.9230452106123
 20
903.9222720255511
 30
0.0
  0
VERTEX
  5
127
  8
LAYER_1
 10
-763.1210527978191
 20
911.9102443846008
 30
0.0
  0
SEQEND
  5
128
  8
LAYER_1
  0
POLYLINE
  5
50
  8
LAYER_1
 66
     1
 10
0.0
 20
0.0
 30
0.0
 70
     1
  0
VERTEX
  5
129
  8
LAYER_1
 10
-822.7676000019637
 20
961.9668063221413
 30
0.0
  0
VERTEX
  5
12A
  8
LAYER_1
 10
-833.9513276027409
 20
1050.497763514492
 30
0.0
  0
VERTEX
  5
12B
  8
LAYER_1
 10
-831.8383214034388
 20
1062.748434611912
 30
0.0
  0
VERTEX
  5
12C
  8
LAYER_1
 10
-825.2004408865208
 20
1052.246361336444
 30
0.0
  0
VERTEX
  5
12D
  8
LAYER_1
 10
-801.6427812004954
 20
966.1665869979529
 30
0.0
  0
VERTEX
  5
12E
  8
LAYER_1
 10
-810.8026368585162
 20
957.0041441378028
 30
0.0
  0
SEQEND
  5
12F
  8
LAYER_1
  0
POLYLINE
  5
51
  8
LAYER_1
 66
     1
 10
0.0
 20
0.0
 30
0.0
 70
     1
  0
VERTEX
  5
130
  8
LAYER_1
 10
-812.1606234729561
 20
914.0101347225057
 30
0.0
  0
VERTEX
  5
131
  8
LAYER_1
 10
-815.9619373550782
 20
933.0664429200539
 30
0.0
  0
VERTEX
  5
132
  8
LAYER_1
 10
-807.6829378793959
 20
941.2851148418197
 30
0.0
  0
VERTEX
  5
133
  8
LAYER_1
 10
-796.8767200710505
 20
936.8546346032922
 30
0.0
  0
VERTEX
  5
134
  8
LAYER_1
 10
-793.0858925720537
 20
917.8009479916842
 30
0.0
  0
VERTEX
  5
135
  8
LAYER_1
 10
-801.3544056646098
 20
909.5219795932993
 30
0.0
  0
SEQEND
  5
136
  8
LAYER_1
  0
POLYLINE
  5
52
  8
LAYER_1
 66
     1
 10
0.0
 20
0.0
 30
0.0
 70
     1
  0
VERTEX
  5
137
  8
LAYER_1
 10
-860.2039877514002
 20
930.6309895818339
 30
0.0
  0
VERTEX
  5
138
  8
LAYER_1
 10
-857.5404464381363
 20
944.9055250249007
 30
0.0
  0
VERTEX
  5
139
  8
LAYER_1
 10
-866.6268974142937
 20
949.0161717787535
 30
0.0
  0
VERTEX
  5
13A
  8
LAYER_1
 10
-855.867868330002
 20
953.9001863848924
 30
0.0
  0
VERTEX
  5
13B
  8
LAYER_1
 10
-843.9500939106089
 20
1017.929801382405
 30
0.0
  0
VERTEX
  5
13C
  8
LAYER_1
 10
-832.0480490658997
 20
953.9001863848924
 30
0.0
  0
VERTEX
  5
13D
  8
LAYER_1
 10
-821.2890199816089
 20
949.0161717787535
 30
0.0
  0
VERTEX
  5
13E
  8
LAYER_1
 10
-830.3754709577663
 20
944.9055250249007
 30
0.0
  0
VERTEX
  5
13F
  8
LAYER_1
 10
-827.7119296445015
 20
930.6309895818339
 30
0.0
  0
VERTEX
  5
140
  8
LAYER_1
 10
-843.9500939106089
 20
938.726446964422
 30
0.0
  0
SEQEND
  5
141
  8
LAYER_1
  0
POLYLINE
  5
53
  8
LAYER_1
 66
     1
 10
0.0
 20
0.0
 30
0.0
 70
     1
  0
VERTEX
  5
142
  8
LAYER_1
 10
-886.262649812283
 20
966.1665869979529
 30
0.0
  0
VERTEX
  5
143
  8
LAYER_1
 10
-862.7154765093818
 20
1052.246361336444
 30
0.0
  0
VERTEX
  5
144
  8
LAYER_1
 10
-856.0828391840254
 20
1062.748434611912
 30
0.0
  0
VERTEX
  5
145
  8
LAYER_1
 10
-853.9645897931618
 20
1050.497763514492
 30
0.0
  0
VERTEX
  5
146
  8
LAYER_1
 10
-865.1378310108147
 20
961.9668063221413
 30
0.0
  0
VERTEX
  5
147
  8
LAYER_1
 10
-877.1132805373865
 20
957.0041441378028
 30
0.0
  0
SEQEND
  5
148
  8
LAYER_1
  0
POLYLINE
  5
54
  8
LAYER_1
 66
     1
 10
0.0
 20
0.0
 30
0.0
 70
     1
  0
VERTEX
  5
149
  8
LAYER_1
 10
-838.0462602123081
 20
872.8433707073602
 30
0.0
  0
VERTEX
  5
14A
  8
LAYER_1
 10
-828.3044102909553
 20
881.39760562944
 30
0.0
  0
VERTEX
  5
14B
  8
LAYER_1
 10
-809.2349225816142
 20
885.1857973126782
 30
0.0
  0
VERTEX
  5
14C
  8
LAYER_1
 10
-811.714952190226
 20
897.9083538792897
 30
0.0
  0
VERTEX
  5
14D
  8
LAYER_1
 10
-798.811457757261
 20
896.8125309563873
 30
0.0
  0
VERTEX
  5
14E
  8
LAYER_1
 10
-787.3052738754494
 20
902.7713957979101
 30
0.0
  0
VERTEX
  5
14F
  8
LAYER_1
 10
-784.7806771385638
 20
890.056703989118
 30
0.0
  0
VERTEX
  5
150
  8
LAYER_1
 10
-765.6954598545382
 20
893.8448956723562
 30
0.0
  0
VERTEX
  5
151
  8
LAYER_1
 10
-753.4421211752058
 20
889.6765740278248
 30
0.0
  0
VERTEX
  5
152
  8
LAYER_1
 10
-763.1682415218719
 20
881.1380686213845
 30
0.0
  0
VERTEX
  5
153
  8
LAYER_1
 10
-793.3637817248151
 20
869.3435534775173
 30
0.0
  0
VERTEX
  5
154
  8
LAYER_1
 10
-825.7824351498537
 20
868.6724274768881
 30
0.0
  0
SEQEND
  5
155
  8
LAYER_1
  0
POLYLINE
  5
55
  8
LAYER_1
 66
     1
 10
0.0
 20
0.0
 30
0.0
 70
     1
  0
VERTEX
  5
156
  8
LAYER_1
 10
-863.5386575845436
 20
896.7836935110482
 30
0.0
  0
VERTEX
  5
157
  8
LAYER_1
 10
-850.5722448528414
 20
896.9357454955656
 30
0.0
  0
VERTEX
  5
158
  8
LAYER_1
 10
-843.9500939106089
 20
885.8097347663879
 30
0.0
  0
VERTEX
  5
159
  8
LAYER_1
 10
-837.3489157346228
 20
896.9357454955656
 30
0.0
  0
VERTEX
  5
15A
  8
LAYER_1
 10
-824.3772598113579
 20
896.7836935110482
 30
0.0
  0
VERTEX
  5
15B
  8
LAYER_1
 10
-824.1518025742124
 20
916.2332395995898
 30
0.0
  0
VERTEX
  5
15C
  8
LAYER_1
 10
-843.9500939106089
 20
925.0443899437852
 30
0.0
  0
VERTEX
  5
15D
  8
LAYER_1
 10
-863.7693580132517
 20
916.2332395995898
 30
0.0
  0
SEQEND
  5
15E
  8
LAYER_1
  0
POLYLINE
  5
56
  8
LAYER_1
 66
     1
 10
0.0
 20
0.0
 30
0.0
 70
     1
  0
VERTEX
  5
15F
  8
LAYER_1
 10
-894.8142952491644
 20
917.8009479916842
 30
0.0
  0
VERTEX
  5
160
  8
LAYER_1
 10
-891.039197324851
 20
936.8546346032922
 30
0.0
  0
VERTEX
  5
161
  8
LAYER_1
 10
-880.2329795165067
 20
941.2851148418197
 30
0.0
  0
VERTEX
  5
162
  8
LAYER_1
 10
-871.9539800408245
 20
933.0664429200539
 30
0.0
  0
VERTEX
  5
163
  8
LAYER_1
 10
-875.7448075398232
 20
914.0101347225057
 30
0.0
  0
VERTEX
  5
164
  8
LAYER_1
 10
-886.5510253481688
 20
909.5219795932993
 30
0.0
  0
SEQEND
  5
165
  8
LAYER_1
  0
POLYLINE
  5
57
  8
LAYER_1
 66
     1
 10
0.0
 20
0.0
 30
0.0
 70
     1
  0
VERTEX
  5
166
  8
LAYER_1
 10
-943.3190603850253
 20
994.3381495087318
 30
0.0
  0
VERTEX
  5
167
  8
LAYER_1
 10
-888.6220860149797
 20
1064.864054465456
 30
0.0
  0
VERTEX
  5
168
  8
LAYER_1
 10
-878.4712671518264
 20
1072.0183624956
 30
0.0
  0
VERTEX
  5
169
  8
LAYER_1
 10
-881.2082131469537
 20
1059.901392281118
 30
0.0
  0
VERTEX
  5
16A
  8
LAYER_1
 10
-925.4188043939074
 20
982.3758528647077
 30
0.0
  0
VERTEX
  5
16B
  8
LAYER_1
 10
-938.3747307424866
 20
982.3758528647077
 30
0.0
  0
SEQEND
  5
16C
  8
LAYER_1
  0
POLYLINE
  5
58
  8
LAYER_1
 66
     1
 10
0.0
 20
0.0
 30
0.0
 70
     1
  0
VERTEX
  5
16D
  8
LAYER_1
 10
-932.8484068366171
 20
951.5407590389323
 30
0.0
  0
VERTEX
  5
16E
  8
LAYER_1
 10
-924.92070119556
 20
963.702296214393
 30
0.0
  0
VERTEX
  5
16F
  8
LAYER_1
 10
-931.7368502255706
 20
970.9929267134137
 30
0.0
  0
VERTEX
  5
170
  8
LAYER_1
 10
-919.9291828289696
 20
971.3887861903468
 30
0.0
  0
VERTEX
  5
171
  8
LAYER_1
 10
-884.42228957418
 20
1025.978070218073
 30
0.0
  0
VERTEX
  5
172
  8
LAYER_1
 10
-897.7662120983159
 20
962.118858306658
 30
0.0
  0
VERTEX
  5
173
  8
LAYER_1
 10
-889.8542360319432
 20
953.6432709627779
 30
0.0
  0
VERTEX
  5
174
  8
LAYER_1
 10
-899.6065723364169
 20
953.3234374781018
 30
0.0
  0
VERTEX
  5
175
  8
LAYER_1
 10
-902.5322732277599
 20
939.3661139337712
 30
0.0
  0
VERTEX
  5
176
  8
LAYER_1
 10
-914.7384231830384
 20
952.8043634619912
 30
0.0
  0
SEQEND
  5
177
  8
LAYER_1
  0
POLYLINE
  5
59
  8
LAYER_1
 66
     1
 10
0.0
 20
0.0
 30
0.0
 70
     1
  0
VERTEX
  5
178
  8
LAYER_1
 10
-985.2488633027074
 20
1029.26553898678
 30
0.0
  0
VERTEX
  5
179
  8
LAYER_1
 10
-985.2488633027074
 20
1042.218795116108
 30
0.0
  0
VERTEX
  5
17A
  8
LAYER_1
 10
-907.7335192568139
 20
1086.429220407544
 30
0.0
  0
VERTEX
  5
17B
  8
LAYER_1
 10
-895.6060171749592
 20
1089.168777714799
 30
0.0
  0
VERTEX
  5
17C
  8
LAYER_1
 10
-902.7734600395909
 20
1079.002267439645
 30
0.0
  0
VERTEX
  5
17D
  8
LAYER_1
 10
-973.2839001592596
 20
1024.305498388381
 30
0.0
  0
SEQEND
  5
17E
  8
LAYER_1
  0
POLYLINE
  5
5A
  8
LAYER_1
 66
     1
 10
0.0
 20
0.0
 30
0.0
 70
     1
  0
VERTEX
  5
17F
  8
LAYER_1
 10
-1010.631153652149
 20
1090.524137645757
 30
0.0
  0
VERTEX
  5
180
  8
LAYER_1
 10
-1005.671094434929
 20
1102.486434289781
 30
0.0
  0
VERTEX
  5
181
  8
LAYER_1
 10
-917.1240753435427
 20
1113.672741495578
 30
0.0
  0
VERTEX
  5
182
  8
LAYER_1
 10
-904.8917094304553
 20
1111.557121642032
 30
0.0
  0
VERTEX
  5
183
  8
LAYER_1
 10
-915.3885789366702
 20
1104.921887628002
 30
0.0
  0
VERTEX
  5
184
  8
LAYER_1
 10
-1001.471297994129
 20
1081.361694785606
 30
0.0
  0
SEQEND
  5
185
  8
LAYER_1
  0
POLYLINE
  5
5B
  8
LAYER_1
 66
     1
 10
0.0
 20
0.0
 30
0.0
 70
     1
  0
VERTEX
  5
186
  8
LAYER_1
 10
-948.8716002487023
 20
921.560302229582
 30
0.0
  0
VERTEX
  5
187
  8
LAYER_1
 10
-941.6464822768918
 20
939.6099214261868
 30
0.0
  0
VERTEX
  5
188
  8
LAYER_1
 10
-919.9711283614619
 20
940.173562403278
 30
0.0
  0
VERTEX
  5
189
  8
LAYER_1
 10
-905.531378800964
 20
925.1518749673237
 30
0.0
  0
VERTEX
  5
18A
  8
LAYER_1
 10
-912.7564967727744
 20
907.0865262550797
 30
0.0
  0
VERTEX
  5
18B
  8
LAYER_1
 10
-924.7948645980833
 20
911.9102443846008
 30
0.0
  0
VERTEX
  5
18C
  8
LAYER_1
 10
-934.9771426106058
 20
903.9222720255511
 30
0.0
  0
VERTEX
  5
18D
  8
LAYER_1
 10
-936.8332324233922
 20
916.7365841000614
 30
0.0
  0
SEQEND
  5
18E
  8
LAYER_1
  0
POLYLINE
  5
5C
  8
LAYER_1
 66
     1
 10
0.0
 20
0.0
 30
0.0
 70
     1
  0
VERTEX
  5
18F
  8
LAYER_1
 10
-934.4737962206977
 20
889.6765740278248
 30
0.0
  0
VERTEX
  5
190
  8
LAYER_1
 10
-924.7529190655922
 20
881.1380686213845
 30
0.0
  0
VERTEX
  5
191
  8
LAYER_1
 10
-894.5416492879633
 20
869.3435534775173
 30
0.0
  0
VERTEX
  5
192
  8
LAYER_1
 10
-862.1387254376115
 20
868.6724274768881
 30
0.0
  0
VERTEX
  5
193
  8
LAYER_1
 10
-849.8696571835945
 20
872.8433707073602
 30
0.0
  0
VERTEX
  5
194
  8
LAYER_1
 10
-859.6115071049473
 20
881.39760562944
 30
0.0
  0
VERTEX
  5
195
  8
LAYER_1
 10
-878.6809948142873
 20
885.1857973126782
 30
0.0
  0
VERTEX
  5
196
  8
LAYER_1
 10
-876.1852356309912
 20
897.9083538792897
 30
0.0
  0
VERTEX
  5
197
  8
LAYER_1
 10
-889.0939732555177
 20
896.8125309563873
 30
0.0
  0
VERTEX
  5
198
  8
LAYER_1
 10
-900.613265116234
 20
902.7713957979101
 30
0.0
  0
VERTEX
  5
199
  8
LAYER_1
 10
-903.1404834489003
 20
890.056703989118
 30
0.0
  0
VERTEX
  5
19A
  8
LAYER_1
 10
-922.2099711582415
 20
893.8448956723562
 30
0.0
  0
SEQEND
  5
19B
  8
LAYER_1
  0
POLYLINE
  5
5D
  8
LAYER_1
 66
     1
 10
0.0
 20
0.0
 30
0.0
 70
     1
  0
VERTEX
  5
19C
  8
LAYER_1
 10
-965.2670602616565
 20
942.1345086863658
 30
0.0
  0
VERTEX
  5
19D
  8
LAYER_1
 10
-969.7395026636542
 20
952.9406859308689
 30
0.0
  0
VERTEX
  5
19E
  8
LAYER_1
 10
-958.9490144299933
 20
969.0896553210047
 30
0.0
  0
VERTEX
  5
19F
  8
LAYER_1
 10
-947.2776700139918
 20
969.0581962897247
 30
0.0
  0
VERTEX
  5
1A0
  8
LAYER_1
 10
-942.7685252710625
 20
958.2834780765015
 30
0.0
  0
VERTEX
  5
1A1
  8
LAYER_1
 10
-953.5590135047235
 20
942.1345086863658
 30
0.0
  0
SEQEND
  5
1A2
  8
LAYER_1
  0
POLYLINE
  5
5E
  8
LAYER_1
 66
     1
 10
0.0
 20
0.0
 30
0.0
 70
     1
  0
VERTEX
  5
1A3
  8
LAYER_1
 10
-991.8238255208861
 20
999.0255451693743
 30
0.0
  0
VERTEX
  5
1A4
  8
LAYER_1
 10
-974.7310210302455
 20
992.9093851714542
 30
0.0
  0
VERTEX
  5
1A5
  8
LAYER_1
 10
-968.9792398872306
 20
975.6803223740571
 30
0.0
  0
VERTEX
  5
1A6
  8
LAYER_1
 10
-960.7579155187271
 20
987.6557269477805
 30
0.0
  0
VERTEX
  5
1A7
  8
LAYER_1
 10
-951.4302777307367
 20
984.1428017882381
 30
0.0
  0
VERTEX
  5
1A8
  8
LAYER_1
 10
-955.5828854474797
 20
995.2058944548568
 30
0.0
  0
VERTEX
  5
1A9
  8
LAYER_1
 10
-918.7232487698147
 20
1048.898596091118
 30
0.0
  0
VERTEX
  5
1AA
  8
LAYER_1
 10
-972.6285012140665
 20
1012.13085328322
 30
0.0
  0
VERTEX
  5
1AB
  8
LAYER_1
 10
-983.4819077464667
 20
1016.207419419853
 30
0.0
  0
VERTEX
  5
1AC
  8
LAYER_1
 10
-980.0423740820926
 20
1007.060706075343
 30
0.0
  0
SEQEND
  5
1AD
  8
LAYER_1
  0
POLYLINE
  5
5F
  8
LAYER_1
 66
     1
 10
0.0
 20
0.0
 30
0.0
 70
     1
  0
VERTEX
  5
1AE
  8
LAYER_1
 10
-1028.531409643267
 20
1064.803757988838
 30
0.0
  0
VERTEX
  5
1AF
  8
LAYER_1
 10
-1014.317117319917
 20
1067.818581819789
 30
0.0
  0
VERTEX
  5
1B0
  8
LAYER_1
 10
-1013.997282634662
 20
1077.785851563505
 30
0.0
  0
VERTEX
  5
1B1
  8
LAYER_1
 10
-1005.366989324359
 20
1069.719231626257
 30
0.0
  0
VERTEX
  5
1B2
  8
LAYER_1
 10
-941.6569686600149
 20
1083.202048115457
 30
0.0
  0
VERTEX
  5
1B3
  8
LAYER_1
 10
-996.2490791988301
 20
1047.485561269481
 30
0.0
  0
VERTEX
  5
1B4
  8
LAYER_1
 10
-996.6475617575067
 20
1035.903394586751
 30
0.0
  0
VERTEX
  5
1B5
  8
LAYER_1
 10
-1003.767815898087
 20
1042.567466046122
 30
0.0
  0
VERTEX
  5
1B6
  8
LAYER_1
 10
-1015.701319892164
 20
1034.776112632569
 30
0.0
  0
VERTEX
  5
1B7
  8
LAYER_1
 10
-1014.820463709826
 20
1052.901757821433
 30
0.0
  0
SEQEND
  5
1B8
  8
LAYER_1
  0
POLYLINE
  5
60
  8
LAYER_1
 66
     1
 10
0.0
 20
0.0
 30
0.0
 70
     1
  0
VERTEX
  5
1B9
  8
LAYER_1
 10
-1025.500844920695
 20
1002.3733104147
 30
0.0
  0
VERTEX
  5
1BA
  8
LAYER_1
 10
-1014.694627112349
 20
997.900884801133
 30
0.0
  0
VERTEX
  5
1BB
  8
LAYER_1
 10
-998.5351107196624
 20
1008.691332529996
 30
0.0
  0
VERTEX
  5
1BC
  8
LAYER_1
 10
-998.5770562521554
 20
1020.362633134685
 30
0.0
  0
VERTEX
  5
1BD
  8
LAYER_1
 10
-1009.357058102695
 20
1024.866517779532
 30
0.0
  0
VERTEX
  5
1BE
  8
LAYER_1
 10
-1025.500844920695
 20
1014.062962120969
 30
0.0
  0
SEQEND
  5
1BF
  8
LAYER_1
  0
POLYLINE
  5
61
  8
LAYER_1
 66
     1
 10
0.0
 20
0.0
 30
0.0
 70
     1
  0
VERTEX
  5
1C0
  8
LAYER_1
 10
-1012.15692239656
 20
955.4836242926275
 30
0.0
  0
VERTEX
  5
1C1
  8
LAYER_1
 10
-1008.670200008131
 20
967.9466438511836
 30
0.0
  0
VERTEX
  5
1C2
  8
LAYER_1
 10
-1017.72519183492
 20
977.2323012505113
 30
0.0
  0
VERTEX
  5
1C3
  8
LAYER_1
 10
-1003.81500462214
 20
990.8226027632485
 30
0.0
  0
VERTEX
  5
1C4
  8
LAYER_1
 10
-984.4099526528599
 20
983.2278682951934
 30
0.0
  0
VERTEX
  5
1C5
  8
LAYER_1
 10
-976.6342995670857
 20
962.9866032527848
 30
0.0
  0
VERTEX
  5
1C6
  8
LAYER_1
 10
-990.5444867798678
 20
949.3963017400466
 30
0.0
  0
VERTEX
  5
1C7
  8
LAYER_1
 10
-999.5994786066583
 20
958.6793375534346
 30
0.0
  0
SEQEND
  5
1C8
  8
LAYER_1
  0
POLYLINE
  5
62
  8
LAYER_1
 66
     1
 10
0.0
 20
0.0
 30
0.0
 70
     1
  0
VERTEX
  5
1C9
  8
LAYER_1
 10
-1058.103010050385
 20
1081.073320332212
 30
0.0
  0
VERTEX
  5
1CA
  8
LAYER_1
 10
-1049.83974014939
 20
1072.810081449466
 30
0.0
  0
VERTEX
  5
1CB
  8
LAYER_1
 10
-1030.785982014732
 20
1076.598273132704
 30
0.0
  0
VERTEX
  5
1CC
  8
LAYER_1
 10
-1026.339755570541
 20
1087.404450377207
 30
0.0
  0
VERTEX
  5
1CD
  8
LAYER_1
 10
-1034.571566322167
 20
1095.683418775593
 30
0.0
  0
VERTEX
  5
1CE
  8
LAYER_1
 10
-1053.630567648388
 20
1091.879497576715
 30
0.0
  0
SEQEND
  5
1CF
  8
LAYER_1
  0
POLYLINE
  5
63
  8
LAYER_1
 66
     1
 10
0.0
 20
0.0
 30
0.0
 70
     1
  0
VERTEX
  5
1D0
  8
LAYER_1
 10
-1017.132711188468
 20
942.1345086863658
 30
0.0
  0
VERTEX
  5
1D1
  8
LAYER_1
 10
-1004.208243989256
 20
941.2851148418197
 30
0.0
  0
VERTEX
  5
1D2
  8
LAYER_1
 10
-988.0329980218871
 20
930.478937597317
 30
0.0
  0
VERTEX
  5
1D3
  8
LAYER_1
 10
-980.8340960078854
 20
941.2615205683603
 30
0.0
  0
VERTEX
  5
1D4
  8
LAYER_1
 10
-972.4764486587814
 20
931.3597904731419
 30
0.0
  0
VERTEX
  5
1D5
  8
LAYER_1
 10
-960.1339757229022
 20
927.4352763210264
 30
0.0
  0
VERTEX
  5
1D6
  8
LAYER_1
 10
-967.3066617790973
 20
916.6290990765233
 30
0.0
  0
VERTEX
  5
1D7
  8
LAYER_1
 10
-951.1261726201666
 20
905.8229218320199
 30
0.0
  0
VERTEX
  5
1D8
  8
LAYER_1
 10
-945.4006074349593
 20
894.2119177039502
 30
0.0
  0
VERTEX
  5
1D9
  8
LAYER_1
 10
-958.3408042088529
 20
895.0482036187963
 30
0.0
  0
VERTEX
  5
1DA
  8
LAYER_1
 10
-988.0329980218871
 20
908.0591346388036
 30
0.0
  0
VERTEX
  5
1DB
  8
LAYER_1
 10
-1011.41238919482
 20
930.5103966285957
 30
0.0
  0
SEQEND
  5
1DC
  8
LAYER_1
  0
POLYLINE
  5
64
  8
LAYER_1
 66
     1
 10
0.0
 20
0.0
 30
0.0
 70
     1
  0
VERTEX
  5
1DD
  8
LAYER_1
 10
-1063.718468212802
 20
1032.644763263385
 30
0.0
  0
VERTEX
  5
1DE
  8
LAYER_1
 10
-1050.856919312329
 20
1031.09278438693
 30
0.0
  0
VERTEX
  5
1DF
  8
LAYER_1
 10
-1045.760537114508
 20
1019.177676289825
 30
0.0
  0
VERTEX
  5
1E0
  8
LAYER_1
 10
-1027.876010698074
 20
1026.8327072345
 30
0.0
  0
VERTEX
  5
1E1
  8
LAYER_1
 10
-1027.467041756273
 20
1047.666450699338
 30
0.0
  0
VERTEX
  5
1E2
  8
LAYER_1
 10
-1043.186130057787
 20
1062.596382627394
 30
0.0
  0
VERTEX
  5
1E3
  8
LAYER_1
 10
-1061.070656474221
 20
1054.941351682719
 30
0.0
  0
VERTEX
  5
1E4
  8
LAYER_1
 10
-1055.958544701714
 20
1043.023621999675
 30
0.0
  0
SEQEND
  5
1E5
  8
LAYER_1
  0
POLYLINE
  5
65
  8
LAYER_1
 66
     1
 10
0.0
 20
0.0
 30
0.0
 70
     1
  0
VERTEX
  5
1E6
  8
LAYER_1
 10
-1072.589948334936
 20
1009.299540468067
 30
0.0
  0
VERTEX
  5
1E7
  8
LAYER_1
 10
-1073.428858984784
 20
1022.218715980175
 30
0.0
  0
VERTEX
  5
1E8
  8
LAYER_1
 10
-1061.799460101275
 20
1016.498415459189
 30
0.0
  0
VERTEX
  5
1E9
  8
LAYER_1
 10
-1050.993242292929
 20
1000.333716553413
 30
0.0
  0
VERTEX
  5
1EA
  8
LAYER_1
 10
-1040.202754059268
 20
1007.503754099196
 30
0.0
  0
VERTEX
  5
1EB
  8
LAYER_1
 10
-1036.275603579671
 20
995.1587059079388
 30
0.0
  0
VERTEX
  5
1EC
  8
LAYER_1
 10
-1026.363349932568
 20
986.798468345415
 30
0.0
  0
VERTEX
  5
1ED
  8
LAYER_1
 10
-1037.145973378886
 20
979.5917285964723
 30
0.0
  0
VERTEX
  5
1EE
  8
LAYER_1
 10
-1026.339755570541
 20
963.4270296906967
 30
0.0
  0
VERTEX
  5
1EF
  8
LAYER_1
 10
-1025.500844920695
 20
950.4921246629489
 30
0.0
  0
VERTEX
  5
1F0
  8
LAYER_1
 10
-1037.130243804203
 20
956.2150467698756
 30
0.0
  0
VERTEX
  5
1F1
  8
LAYER_1
 10
-1059.576346879181
 20
979.6074581121125
 30
0.0
  0
SEQEND
  5
1F2
  8
LAYER_1
  0
POLYLINE
  5
66
  8
LAYER_1
 66
     1
 10
0.0
 20
0.0
 30
0.0
 70
     1
  0
VERTEX
  5
1F3
  8
LAYER_1
 10
-1098.297316561197
 20
1073.082726387223
 30
0.0
  0
VERTEX
  5
1F4
  8
LAYER_1
 10
-1098.95271550639
 20
1105.501258120732
 30
0.0
  0
VERTEX
  5
1F5
  8
LAYER_1
 10
-1094.779135023398
 20
1117.765037147851
 30
0.0
  0
VERTEX
  5
1F6
  8
LAYER_1
 10
-1086.243219161202
 20
1108.02584538091
 30
0.0
  0
VERTEX
  5
1F7
  8
LAYER_1
 10
-1082.436662087521
 20
1088.956429253663
 30
0.0
  0
VERTEX
  5
1F8
  8
LAYER_1
 10
-1069.727165742332
 20
1091.482327306811
 30
0.0
  0
VERTEX
  5
1F9
  8
LAYER_1
 10
-1070.828235970256
 20
1078.561841001732
 30
0.0
  0
VERTEX
  5
1FA
  8
LAYER_1
 10
-1064.877213547904
 20
1067.055700311261
 30
0.0
  0
VERTEX
  5
1FB
  8
LAYER_1
 10
-1077.581466701529
 20
1064.499654019803
 30
0.0
  0
VERTEX
  5
1FC
  8
LAYER_1
 10
-1073.780152819408
 20
1045.414508376915
 30
0.0
  0
VERTEX
  5
1FD
  8
LAYER_1
 10
-1077.948490110836
 20
1033.148107763856
 30
0.0
  0
VERTEX
  5
1FE
  8
LAYER_1
 10
-1086.500135547718
 20
1042.887299530797
 30
0.0
  0
SEQEND
  5
1FF
  8
LAYER_1
  0
POLYLINE
  5
67
  8
LAYER_1
 66
     1
 10
0.0
 20
0.0
 30
0.0
  0
VERTEX
  5
200
  8
LAYER_1
 10
-606.0874655295224
 20
1123.671470270574
 30
0.0
  0
VERTEX
  5
201
  8
LAYER_1
 10
-617.2135180231227
 20
1117.067695287822
 30
0.0
  0
VERTEX
  5
202
  8
LAYER_1
 10
-617.0614654678375
 20
1104.101331228795
 30
0.0
  0
VERTEX
  5
203
  8
LAYER_1
 10
-636.5137061611726
 20
1103.870631666078
 30
0.0
  0
VERTEX
  5
204
  8
LAYER_1
 10
-645.3222679845686
 20
1123.671470270574
 30
0.0
  0
SEQEND
  5
205
  8
LAYER_1
  0
POLYLINE
  5
68
  8
LAYER_1
 66
     1
 10
0.0
 20
0.0
 30
0.0
  0
VERTEX
  5
206
  8
LAYER_1
 10
-659.0069979602031
 20
1123.671470270574
 30
0.0
  0
VERTEX
  5
207
  8
LAYER_1
 10
-650.9115101891773
 20
1107.43336695848
 30
0.0
  0
VERTEX
  5
208
  8
LAYER_1
 10
-665.1834776197043
 20
1110.096898273477
 30
0.0
  0
VERTEX
  5
209
  8
LAYER_1
 10
-669.2941398039561
 20
1101.010481405585
 30
0.0
  0
VERTEX
  5
20A
  8
LAYER_1
 10
-674.180794339316
 20
1111.769470103169
 30
0.0
  0
VERTEX
  5
20B
  8
LAYER_1
 10
-738.2106496889155
 20
1123.671470270574
 30
0.0
  0
SEQEND
  5
20C
  8
LAYER_1
  0
POLYLINE
  5
69
  8
LAYER_1
 66
     1
 10
0.0
 20
0.0
 30
0.0
  0
VERTEX
  5
20D
  8
LAYER_1
 10
-805.0508557155003
 20
1123.671470270574
 30
0.0
  0
VERTEX
  5
20E
  8
LAYER_1
 10
-815.3379975592532
 20
1117.980007194927
 30
0.0
  0
VERTEX
  5
20F
  8
LAYER_1
 10
-808.0185021393354
 20
1108.788726889438
 30
0.0
  0
VERTEX
  5
210
  8
LAYER_1
 10
-819.6898465553357
 20
1107.46220440382
 30
0.0
  0
VERTEX
  5
211
  8
LAYER_1
 10
-816.4495541703017
 20
1096.171033760425
 30
0.0
  0
VERTEX
  5
212
  8
LAYER_1
 10
-827.7433887938695
 20
1099.411313982212
 30
0.0
  0
VERTEX
  5
213
  8
LAYER_1
 10
-829.064673067381
 20
1087.737391791583
 30
0.0
  0
VERTEX
  5
214
  8
LAYER_1
 10
-838.2612310663324
 20
1095.059481321882
 30
0.0
  0
VERTEX
  5
215
  8
LAYER_1
 10
-843.9500939106089
 20
1084.769756507551
 30
0.0
  0
VERTEX
  5
216
  8
LAYER_1
 10
-849.6441999464473
 20
1095.059481321882
 30
0.0
  0
VERTEX
  5
217
  8
LAYER_1
 10
-858.8355147538371
 20
1087.737391791583
 30
0.0
  0
VERTEX
  5
218
  8
LAYER_1
 10
-860.1620422189089
 20
1099.411313982212
 30
0.0
  0
VERTEX
  5
219
  8
LAYER_1
 10
-871.466363225601
 20
1096.171033760425
 30
0.0
  0
VERTEX
  5
21A
  8
LAYER_1
 10
-868.2103412658812
 20
1107.46220440382
 30
0.0
  0
VERTEX
  5
21B
  8
LAYER_1
 10
-879.8974152565662
 20
1108.788726889438
 30
0.0
  0
VERTEX
  5
21C
  8
LAYER_1
 10
-872.562190261964
 20
1117.980007194927
 30
0.0
  0
VERTEX
  5
21D
  8
LAYER_1
 10
-882.8493321057177
 20
1123.671470270574
 30
0.0
  0
SEQEND
  5
21E
  8
LAYER_1
  0
POLYLINE
  5
6A
  8
LAYER_1
 66
     1
 10
0.0
 20
0.0
 30
0.0
  0
VERTEX
  5
21F
  8
LAYER_1
 10
-949.7105108985487
 20
1123.671470270574
 30
0.0
  0
VERTEX
  5
220
  8
LAYER_1
 10
-1013.724636673463
 20
1111.769470103169
 30
0.0
  0
VERTEX
  5
221
  8
LAYER_1
 10
-1018.606048017261
 20
1101.010481405585
 30
0.0
  0
VERTEX
  5
222
  8
LAYER_1
 10
-1022.732439776197
 20
1110.096898273477
 30
0.0
  0
VERTEX
  5
223
  8
LAYER_1
 10
-1037.009650398286
 20
1107.43336695848
 30
0.0
  0
VERTEX
  5
224
  8
LAYER_1
 10
-1028.898433052576
 20
1123.671470270574
 30
0.0
  0
SEQEND
  5
225
  8
LAYER_1
  0
POLYLINE
  5
6B
  8
LAYER_1
 66
     1
 10
0.0
 20
0.0
 30
0.0
  0
VERTEX
  5
226
  8
LAYER_1
 10
-1042.577919836649
 20
1123.671470270574
 30
0.0
  0
VERTEX
  5
227
  8
LAYER_1
 10
-1051.391724851607
 20
1103.870631666078
 30
0.0
  0
VERTEX
  5
228
  8
LAYER_1
 10
-1070.83872235338
 20
1104.101331228795
 30
0.0
  0
VERTEX
  5
229
  8
LAYER_1
 10
-1070.686669798095
 20
1117.067695287822
 30
0.0
  0
VERTEX
  5
22A
  8
LAYER_1
 10
-1081.812722291696
 20
1123.671470270574
 30
0.0
  0
SEQEND
  5
22B
  8
LAYER_1
  0
POLYLINE
  5
6C
  8
LAYER_1
 66
     1
 10
0.0
 20
0.0
 30
0.0
 70
     1
  0
VERTEX
  5
22C
  8
LAYER_1
 10
-609.9516977103817
 20
1214.19674718992
 30
0.0
  0
VERTEX
  5
22D
  8
LAYER_1
 10
-614.1252781933705
 20
1201.930346576862
 30
0.0
  0
VERTEX
  5
22E
  8
LAYER_1
 10
-610.3344506943737
 20
1182.845200933973
 30
0.0
  0
VERTEX
  5
22F
  8
LAYER_1
 10
-623.0439470395603
 20
1180.289154642516
 30
0.0
  0
VERTEX
  5
230
  8
LAYER_1
 10
-617.0929246172067
 20
1168.783013952044
 30
0.0
  0
VERTEX
  5
231
  8
LAYER_1
 10
-618.1887516535706
 20
1155.862527646965
 30
0.0
  0
VERTEX
  5
232
  8
LAYER_1
 10
-605.4635257336982
 20
1158.388425700114
 30
0.0
  0
VERTEX
  5
233
  8
LAYER_1
 10
-601.6779414262619
 20
1139.319009572866
 30
0.0
  0
VERTEX
  5
234
  8
LAYER_1
 10
-593.1210527978191
 20
1129.579817805926
 30
0.0
  0
VERTEX
  5
235
  8
LAYER_1
 10
-588.9527155063898
 20
1141.843596833045
 30
0.0
  0
VERTEX
  5
236
  8
LAYER_1
 10
-589.6238440262674
 20
1174.262128566553
 30
0.0
  0
VERTEX
  5
237
  8
LAYER_1
 10
-601.4157818481848
 20
1204.45755542298
 30
0.0
  0
SEQEND
  5
238
  8
LAYER_1
  0
POLYLINE
  5
6D
  8
LAYER_1
 66
     1
 10
0.0
 20
0.0
 30
0.0
 70
     1
  0
VERTEX
  5
239
  8
LAYER_1
 10
-657.1351785727311
 20
1170.746581821072
 30
0.0
  0
VERTEX
  5
23A
  8
LAYER_1
 10
-638.0814204380746
 20
1174.53477350431
 30
0.0
  0
VERTEX
  5
23B
  8
LAYER_1
 10
-629.8024209623935
 20
1166.271534621565
 30
0.0
  0
VERTEX
  5
23C
  8
LAYER_1
 10
-634.2905929390766
 20
1155.465357377061
 30
0.0
  0
VERTEX
  5
23D
  8
LAYER_1
 10
-653.3443510737341
 20
1151.661436178184
 30
0.0
  0
VERTEX
  5
23E
  8
LAYER_1
 10
-661.5656754422387
 20
1159.940404576569
 30
0.0
  0
SEQEND
  5
23F
  8
LAYER_1
  0
POLYLINE
  5
6E
  8
LAYER_1
 66
     1
 10
0.0
 20
0.0
 30
0.0
 70
     1
  0
VERTEX
  5
240
  8
LAYER_1
 10
-660.4541188311902
 20
1199.678404254438
 30
0.0
  0
VERTEX
  5
241
  8
LAYER_1
 10
-644.7297873381157
 20
1184.748472326384
 30
0.0
  0
VERTEX
  5
242
  8
LAYER_1
 10
-626.8452609216804
 20
1192.403503271057
 30
0.0
  0
VERTEX
  5
243
  8
LAYER_1
 10
-631.9468863110656
 20
1204.321232954102
 30
0.0
  0
VERTEX
  5
244
  8
LAYER_1
 10
-624.2026923746627
 20
1214.700091690392
 30
0.0
  0
VERTEX
  5
245
  8
LAYER_1
 10
-637.0432685088883
 20
1216.252070566847
 30
0.0
  0
VERTEX
  5
246
  8
LAYER_1
 10
-642.1606234729561
 20
1228.167178663952
 30
0.0
  0
VERTEX
  5
247
  8
LAYER_1
 10
-660.0399066978289
 20
1220.512147719277
 30
0.0
  0
SEQEND
  5
248
  8
LAYER_1
  0
POLYLINE
  5
6F
  8
LAYER_1
 66
     1
 10
0.0
 20
0.0
 30
0.0
 70
     1
  0
VERTEX
  5
249
  8
LAYER_1
 10
-689.3703202931162
 20
1238.65352242378
 30
0.0
  0
VERTEX
  5
24A
  8
LAYER_1
 10
-673.2212902835536
 20
1249.443970152644
 30
0.0
  0
VERTEX
  5
24B
  8
LAYER_1
 10
-662.415072475208
 20
1244.971544539077
 30
0.0
  0
VERTEX
  5
24C
  8
LAYER_1
 10
-662.415072475208
 20
1233.281892832808
 30
0.0
  0
VERTEX
  5
24D
  8
LAYER_1
 10
-678.5641024847708
 20
1222.478337174244
 30
0.0
  0
VERTEX
  5
24E
  8
LAYER_1
 10
-689.3388611437472
 20
1226.982221819091
 30
0.0
  0
SEQEND
  5
24F
  8
LAYER_1
  0
POLYLINE
  5
70
  8
LAYER_1
 66
     1
 10
0.0
 20
0.0
 30
0.0
 70
     1
  0
VERTEX
  5
250
  8
LAYER_1
 10
-662.415072475208
 20
1296.852730290828
 30
0.0
  0
VERTEX
  5
251
  8
LAYER_1
 10
-661.5656754422387
 20
1283.91782526308
 30
0.0
  0
VERTEX
  5
252
  8
LAYER_1
 10
-650.759457633892
 20
1267.753126357304
 30
0.0
  0
VERTEX
  5
253
  8
LAYER_1
 10
-661.5420810802118
 20
1260.546386608363
 30
0.0
  0
VERTEX
  5
254
  8
LAYER_1
 10
-651.6403138162317
 20
1252.186149045839
 30
0.0
  0
VERTEX
  5
255
  8
LAYER_1
 10
-647.7131633366344
 20
1239.841100854582
 30
0.0
  0
VERTEX
  5
256
  8
LAYER_1
 10
-636.9069455282877
 20
1247.011138400364
 30
0.0
  0
VERTEX
  5
257
  8
LAYER_1
 10
-626.1007277199423
 20
1230.846439494588
 30
0.0
  0
VERTEX
  5
258
  8
LAYER_1
 10
-614.4923016026802
 20
1225.126138973602
 30
0.0
  0
VERTEX
  5
259
  8
LAYER_1
 10
-615.3259690609659
 20
1238.04531448571
 30
0.0
  0
VERTEX
  5
25A
  8
LAYER_1
 10
-628.339570516723
 20
1267.737396841664
 30
0.0
  0
VERTEX
  5
25B
  8
LAYER_1
 10
-650.7856735917009
 20
1291.129808183901
 30
0.0
  0
SEQEND
  5
25C
  8
LAYER_1
  0
POLYLINE
  5
71
  8
LAYER_1
 66
     1
 10
0.0
 20
0.0
 30
0.0
 70
     1
  0
VERTEX
  5
25D
  8
LAYER_1
 10
-746.2589487358875
 20
1164.14280683832
 30
0.0
  0
VERTEX
  5
25E
  8
LAYER_1
 10
-682.548928071544
 20
1177.625623327519
 30
0.0
  0
VERTEX
  5
25F
  8
LAYER_1
 10
-673.9186347612409
 20
1169.559003390271
 30
0.0
  0
VERTEX
  5
260
  8
LAYER_1
 10
-673.588313692863
 20
1179.526273133989
 30
0.0
  0
VERTEX
  5
261
  8
LAYER_1
 10
-659.3845077526356
 20
1182.541096964939
 30
0.0
  0
VERTEX
  5
262
  8
LAYER_1
 10
-673.084967302955
 20
1194.443097132344
 30
0.0
  0
VERTEX
  5
263
  8
LAYER_1
 10
-672.2145975037374
 20
1212.568742321207
 30
0.0
  0
VERTEX
  5
264
  8
LAYER_1
 10
-684.1323719231314
 20
1204.777388907655
 30
0.0
  0
VERTEX
  5
265
  8
LAYER_1
 10
-691.2735988299575
 20
1211.441460367025
 30
0.0
  0
VERTEX
  5
266
  8
LAYER_1
 10
-691.6511086223879
 20
1199.859293684295
 30
0.0
  0
SEQEND
  5
267
  8
LAYER_1
  0
POLYLINE
  5
72
  8
LAYER_1
 66
     1
 10
0.0
 20
0.0
 30
0.0
 70
     1
  0
VERTEX
  5
268
  8
LAYER_1
 10
-711.2868610203764
 20
1284.358251700992
 30
0.0
  0
VERTEX
  5
269
  8
LAYER_1
 10
-703.5059647430427
 20
1264.116986658583
 30
0.0
  0
VERTEX
  5
26A
  8
LAYER_1
 10
-684.1009127737622
 20
1256.522252190528
 30
0.0
  0
VERTEX
  5
26B
  8
LAYER_1
 10
-670.1749959862965
 20
1270.112553703265
 30
0.0
  0
VERTEX
  5
26C
  8
LAYER_1
 10
-679.2457173877705
 20
1279.398211102593
 30
0.0
  0
VERTEX
  5
26D
  8
LAYER_1
 10
-675.7642381909043
 20
1291.861230661149
 30
0.0
  0
VERTEX
  5
26E
  8
LAYER_1
 10
-688.3059524061213
 20
1288.665517400342
 30
0.0
  0
VERTEX
  5
26F
  8
LAYER_1
 10
-697.3766738075952
 20
1297.94855321373
 30
0.0
  0
SEQEND
  5
270
  8
LAYER_1
  0
POLYLINE
  5
73
  8
LAYER_1
 66
     1
 10
0.0
 20
0.0
 30
0.0
 70
     1
  0
VERTEX
  5
271
  8
LAYER_1
 10
-783.0294511570077
 20
1135.787733311744
 30
0.0
  0
VERTEX
  5
272
  8
LAYER_1
 10
-770.7761124776763
 20
1133.672113458199
 30
0.0
  0
VERTEX
  5
273
  8
LAYER_1
 10
-682.2448229609757
 20
1144.858420663996
 30
0.0
  0
VERTEX
  5
274
  8
LAYER_1
 10
-677.2847637437525
 20
1156.82071730802
 30
0.0
  0
VERTEX
  5
275
  8
LAYER_1
 10
-686.4446194017734
 20
1165.98316016817
 30
0.0
  0
VERTEX
  5
276
  8
LAYER_1
 10
-772.5273384592324
 20
1142.422967325776
 30
0.0
  0
SEQEND
  5
277
  8
LAYER_1
  0
POLYLINE
  5
74
  8
LAYER_1
 66
     1
 10
0.0
 20
0.0
 30
0.0
 70
     1
  0
VERTEX
  5
278
  8
LAYER_1
 10
-769.1769390514054
 20
1198.446258862658
 30
0.0
  0
VERTEX
  5
279
  8
LAYER_1
 10
-732.333031948423
 20
1252.13896049892
 30
0.0
  0
VERTEX
  5
27A
  8
LAYER_1
 10
-736.4856396651659
 20
1263.202053165538
 30
0.0
  0
VERTEX
  5
27B
  8
LAYER_1
 10
-727.1422723024908
 20
1259.689128005996
 30
0.0
  0
VERTEX
  5
27C
  8
LAYER_1
 10
-718.9419207002325
 20
1271.664532579719
 30
0.0
  0
VERTEX
  5
27D
  8
LAYER_1
 10
-713.1848963656571
 20
1254.435469782322
 30
0.0
  0
VERTEX
  5
27E
  8
LAYER_1
 10
-696.0973350665801
 20
1248.319309784402
 30
0.0
  0
VERTEX
  5
27F
  8
LAYER_1
 10
-707.8630569306889
 20
1240.284148878433
 30
0.0
  0
VERTEX
  5
280
  8
LAYER_1
 10
-704.4235232663141
 20
1231.137435533923
 30
0.0
  0
VERTEX
  5
281
  8
LAYER_1
 10
-715.2874161818361
 20
1235.214001670557
 30
0.0
  0
SEQEND
  5
282
  8
LAYER_1
  0
POLYLINE
  5
75
  8
LAYER_1
 66
     1
 10
0.0
 20
0.0
 30
0.0
 70
     1
  0
VERTEX
  5
283
  8
LAYER_1
 10
-792.2994138378203
 20
1158.176077238978
 30
0.0
  0
VERTEX
  5
284
  8
LAYER_1
 10
-780.1823981390885
 20
1160.915634546233
 30
0.0
  0
VERTEX
  5
285
  8
LAYER_1
 10
-702.6565677100713
 20
1205.126059837669
 30
0.0
  0
VERTEX
  5
286
  8
LAYER_1
 10
-702.6565677100713
 20
1218.079315966997
 30
0.0
  0
VERTEX
  5
287
  8
LAYER_1
 10
-714.6162876619584
 20
1223.039356565395
 30
0.0
  0
VERTEX
  5
288
  8
LAYER_1
 10
-785.1424573563118
 20
1168.342587514131
 30
0.0
  0
SEQEND
  5
289
  8
LAYER_1
  0
POLYLINE
  5
76
  8
LAYER_1
 66
     1
 10
0.0
 20
0.0
 30
0.0
 70
     1
  0
VERTEX
  5
28A
  8
LAYER_1
 10
-745.1473921248402
 20
1289.061376877275
 30
0.0
  0
VERTEX
  5
28B
  8
LAYER_1
 10
-740.6434905734724
 20
1278.286658664052
 30
0.0
  0
VERTEX
  5
28C
  8
LAYER_1
 10
-728.9721461574708
 20
1278.255199632772
 30
0.0
  0
VERTEX
  5
28D
  8
LAYER_1
 10
-718.1816579238099
 20
1294.404169022908
 30
0.0
  0
VERTEX
  5
28E
  8
LAYER_1
 10
-722.6541003258077
 20
1305.210346267411
 30
0.0
  0
VERTEX
  5
28F
  8
LAYER_1
 10
-734.3411743164935
 20
1305.210346267411
 30
0.0
  0
SEQEND
  5
290
  8
LAYER_1
  0
POLYLINE
  5
77
  8
LAYER_1
 66
     1
 10
0.0
 20
0.0
 30
0.0
 70
     1
  0
VERTEX
  5
291
  8
LAYER_1
 10
-806.7077042489481
 20
1187.443462672659
 30
0.0
  0
VERTEX
  5
292
  8
LAYER_1
 10
-809.4498934356376
 20
1175.326492458177
 30
0.0
  0
VERTEX
  5
293
  8
LAYER_1
 10
-799.2833449978008
 20
1182.48080048832
 30
0.0
  0
VERTEX
  5
294
  8
LAYER_1
 10
-744.5863706277544
 20
1253.006705445045
 30
0.0
  0
VERTEX
  5
295
  8
LAYER_1
 10
-749.5464298449765
 20
1264.96900208907
 30
0.0
  0
VERTEX
  5
296
  8
LAYER_1
 10
-762.4971130019943
 20
1264.96900208907
 30
0.0
  0
SEQEND
  5
297
  8
LAYER_1
  0
POLYLINE
  5
78
  8
LAYER_1
 66
     1
 10
0.0
 20
0.0
 30
0.0
 70
     1
  0
VERTEX
  5
298
  8
LAYER_1
 10
-742.4995803862588
 20
1353.132937249827
 30
0.0
  0
VERTEX
  5
299
  8
LAYER_1
 10
-729.5803563786113
 20
1352.296651334981
 30
0.0
  0
VERTEX
  5
29A
  8
LAYER_1
 10
-699.8829193740155
 20
1339.285720314973
 30
0.0
  0
VERTEX
  5
29B
  8
LAYER_1
 10
-676.4930418179599
 20
1316.834458325181
 30
0.0
  0
VERTEX
  5
29C
  8
LAYER_1
 10
-670.772719824312
 20
1305.210346267411
 30
0.0
  0
VERTEX
  5
29D
  8
LAYER_1
 10
-683.7076734066462
 20
1306.059740111957
 30
0.0
  0
VERTEX
  5
29E
  8
LAYER_1
 10
-699.8724329908913
 20
1316.86591735646
 30
0.0
  0
VERTEX
  5
29F
  8
LAYER_1
 10
-707.073956600675
 20
1306.083334385416
 30
0.0
  0
VERTEX
  5
2A0
  8
LAYER_1
 10
-715.4394687371213
 20
1315.985064480635
 30
0.0
  0
VERTEX
  5
2A1
  8
LAYER_1
 10
-727.7819416730005
 20
1319.90957863275
 30
0.0
  0
VERTEX
  5
2A2
  8
LAYER_1
 10
-720.6144988083668
 20
1330.715755877254
 30
0.0
  0
VERTEX
  5
2A3
  8
LAYER_1
 10
-736.7792583926131
 20
1341.521933121756
 30
0.0
  0
SEQEND
  5
2A4
  8
LAYER_1
  0
POLYLINE
  5
79
  8
LAYER_1
 66
     1
 10
0.0
 20
0.0
 30
0.0
 70
     1
  0
VERTEX
  5
2A5
  8
LAYER_1
 10
-798.0669245555208
 20
1293.701583990998
 30
0.0
  0
VERTEX
  5
2A6
  8
LAYER_1
 10
-788.2936154848012
 20
1294.021417475675
 30
0.0
  0
VERTEX
  5
2A7
  8
LAYER_1
 10
-785.3888873597043
 20
1307.978741020006
 30
0.0
  0
VERTEX
  5
2A8
  8
LAYER_1
 10
-773.1827374044246
 20
1294.540491491785
 30
0.0
  0
VERTEX
  5
2A9
  8
LAYER_1
 10
-755.072753750847
 20
1295.804095914844
 30
0.0
  0
VERTEX
  5
2AA
  8
LAYER_1
 10
-762.9847298172186
 20
1283.642558739384
 30
0.0
  0
VERTEX
  5
2AB
  8
LAYER_1
 10
-756.1843103618935
 20
1276.351928240363
 30
0.0
  0
VERTEX
  5
2AC
  8
LAYER_1
 10
-767.97624818381
 20
1275.95606876343
 30
0.0
  0
VERTEX
  5
2AD
  8
LAYER_1
 10
-803.4831414385984
 20
1221.366784735703
 30
0.0
  0
VERTEX
  5
2AE
  8
LAYER_1
 10
-790.1339757229022
 20
1285.225996647117
 30
0.0
  0
SEQEND
  5
2AF
  8
LAYER_1
  0
POLYLINE
  5
7A
  8
LAYER_1
 66
     1
 10
0.0
 20
0.0
 30
0.0
 70
     1
  0
VERTEX
  5
2B0
  8
LAYER_1
 10
-775.1436910484437
 20
1340.258328698697
 30
0.0
  0
VERTEX
  5
2B1
  8
LAYER_1
 10
-782.3897817865001
 20
1322.192979986453
 30
0.0
  0
VERTEX
  5
2B2
  8
LAYER_1
 10
-767.9447890344419
 20
1307.171292550499
 30
0.0
  0
VERTEX
  5
2B3
  8
LAYER_1
 10
-746.2746783105721
 20
1307.734933527589
 30
0.0
  0
VERTEX
  5
2B4
  8
LAYER_1
 10
-739.0443171472012
 20
1325.784552724195
 30
0.0
  0
VERTEX
  5
2B5
  8
LAYER_1
 10
-751.0826849725102
 20
1330.608270853715
 30
0.0
  0
VERTEX
  5
2B6
  8
LAYER_1
 10
-752.9230452106123
 20
1343.422582928226
 30
0.0
  0
VERTEX
  5
2B7
  8
LAYER_1
 10
-763.1210527978191
 20
1335.434610569175
 30
0.0
  0
SEQEND
  5
2B8
  8
LAYER_1
  0
POLYLINE
  5
7B
  8
LAYER_1
 66
     1
 10
0.0
 20
0.0
 30
0.0
 70
     1
  0
VERTEX
  5
2B9
  8
LAYER_1
 10
-822.7676000019637
 20
1285.378048631635
 30
0.0
  0
VERTEX
  5
2BA
  8
LAYER_1
 10
-833.9513276027409
 20
1196.847091439284
 30
0.0
  0
VERTEX
  5
2BB
  8
LAYER_1
 10
-831.8383214034388
 20
1184.596420341865
 30
0.0
  0
VERTEX
  5
2BC
  8
LAYER_1
 10
-825.2004408865208
 20
1195.098493617333
 30
0.0
  0
VERTEX
  5
2BD
  8
LAYER_1
 10
-801.6427812004954
 20
1281.178267955823
 30
0.0
  0
VERTEX
  5
2BE
  8
LAYER_1
 10
-810.8026368585162
 20
1290.340710815974
 30
0.0
  0
SEQEND
  5
2BF
  8
LAYER_1
  0
POLYLINE
  5
7C
  8
LAYER_1
 66
     1
 10
0.0
 20
0.0
 30
0.0
 70
     1
  0
VERTEX
  5
2C0
  8
LAYER_1
 10
-812.1606234729561
 20
1333.334720231271
 30
0.0
  0
VERTEX
  5
2C1
  8
LAYER_1
 10
-815.9619373550782
 20
1314.278412033722
 30
0.0
  0
VERTEX
  5
2C2
  8
LAYER_1
 10
-807.6829378793959
 20
1306.059740111957
 30
0.0
  0
VERTEX
  5
2C3
  8
LAYER_1
 10
-796.8767200710505
 20
1310.490220350485
 30
0.0
  0
VERTEX
  5
2C4
  8
LAYER_1
 10
-793.0858925720537
 20
1329.543906962092
 30
0.0
  0
VERTEX
  5
2C5
  8
LAYER_1
 10
-801.3544056646098
 20
1337.822875360478
 30
0.0
  0
SEQEND
  5
2C6
  8
LAYER_1
  0
POLYLINE
  5
7D
  8
LAYER_1
 66
     1
 10
0.0
 20
0.0
 30
0.0
 70
     1
  0
VERTEX
  5
2C7
  8
LAYER_1
 10
-860.2039877514002
 20
1316.713865371943
 30
0.0
  0
VERTEX
  5
2C8
  8
LAYER_1
 10
-857.5404464381363
 20
1302.439329928876
 30
0.0
  0
VERTEX
  5
2C9
  8
LAYER_1
 10
-866.6268974142937
 20
1298.328683175023
 30
0.0
  0
VERTEX
  5
2CA
  8
LAYER_1
 10
-855.867868330002
 20
1293.444668568884
 30
0.0
  0
VERTEX
  5
2CB
  8
LAYER_1
 10
-843.9500939106089
 20
1229.415053571372
 30
0.0
  0
VERTEX
  5
2CC
  8
LAYER_1
 10
-832.0480490658997
 20
1293.444668568884
 30
0.0
  0
VERTEX
  5
2CD
  8
LAYER_1
 10
-821.2890199816089
 20
1298.328683175023
 30
0.0
  0
VERTEX
  5
2CE
  8
LAYER_1
 10
-830.3754709577663
 20
1302.439329928876
 30
0.0
  0
VERTEX
  5
2CF
  8
LAYER_1
 10
-827.7119296445015
 20
1316.713865371943
 30
0.0
  0
VERTEX
  5
2D0
  8
LAYER_1
 10
-843.9500939106089
 20
1308.618407989354
 30
0.0
  0
SEQEND
  5
2D1
  8
LAYER_1
  0
POLYLINE
  5
7E
  8
LAYER_1
 66
     1
 10
0.0
 20
0.0
 30
0.0
 70
     1
  0
VERTEX
  5
2D2
  8
LAYER_1
 10
-886.262649812283
 20
1281.178267955823
 30
0.0
  0
VERTEX
  5
2D3
  8
LAYER_1
 10
-862.7154765093818
 20
1195.098493617333
 30
0.0
  0
VERTEX
  5
2D4
  8
LAYER_1
 10
-856.0828391840254
 20
1184.596420341865
 30
0.0
  0
VERTEX
  5
2D5
  8
LAYER_1
 10
-853.9645897931618
 20
1196.847091439284
 30
0.0
  0
VERTEX
  5
2D6
  8
LAYER_1
 10
-865.1378310108147
 20
1285.378048631635
 30
0.0
  0
VERTEX
  5
2D7
  8
LAYER_1
 10
-877.1132805373865
 20
1290.340710815974
 30
0.0
  0
SEQEND
  5
2D8
  8
LAYER_1
  0
POLYLINE
  5
7F
  8
LAYER_1
 66
     1
 10
0.0
 20
0.0
 30
0.0
 70
     1
  0
VERTEX
  5
2D9
  8
LAYER_1
 10
-838.0462602123081
 20
1374.501484246416
 30
0.0
  0
VERTEX
  5
2DA
  8
LAYER_1
 10
-828.3044102909553
 20
1365.947249324337
 30
0.0
  0
VERTEX
  5
2DB
  8
LAYER_1
 10
-809.2349225816142
 20
1362.159057641098
 30
0.0
  0
VERTEX
  5
2DC
  8
LAYER_1
 10
-811.714952190226
 20
1349.436501074487
 30
0.0
  0
VERTEX
  5
2DD
  8
LAYER_1
 10
-798.811457757261
 20
1350.532323997389
 30
0.0
  0
VERTEX
  5
2DE
  8
LAYER_1
 10
-787.3052738754494
 20
1344.573459155866
 30
0.0
  0
VERTEX
  5
2DF
  8
LAYER_1
 10
-784.7806771385638
 20
1357.288150964658
 30
0.0
  0
VERTEX
  5
2E0
  8
LAYER_1
 10
-765.6954598545382
 20
1353.499959281421
 30
0.0
  0
VERTEX
  5
2E1
  8
LAYER_1
 10
-753.4421211752058
 20
1357.668280925951
 30
0.0
  0
VERTEX
  5
2E2
  8
LAYER_1
 10
-763.1682415218719
 20
1366.206786332392
 30
0.0
  0
VERTEX
  5
2E3
  8
LAYER_1
 10
-793.3637817248151
 20
1378.001301476259
 30
0.0
  0
VERTEX
  5
2E4
  8
LAYER_1
 10
-825.7824351498537
 20
1378.672427476888
 30
0.0
  0
SEQEND
  5
2E5
  8
LAYER_1
  0
POLYLINE
  5
80
  8
LAYER_1
 66
     1
 10
0.0
 20
0.0
 30
0.0
 70
     1
  0
VERTEX
  5
2E6
  8
LAYER_1
 10
-863.5386575845436
 20
1350.561161442728
 30
0.0
  0
VERTEX
  5
2E7
  8
LAYER_1
 10
-850.5722448528414
 20
1350.409109458211
 30
0.0
  0
VERTEX
  5
2E8
  8
LAYER_1
 10
-843.9500939106089
 20
1361.535120187389
 30
0.0
  0
VERTEX
  5
2E9
  8
LAYER_1
 10
-837.3489157346228
 20
1350.409109458211
 30
0.0
  0
VERTEX
  5
2EA
  8
LAYER_1
 10
-824.3772598113579
 20
1350.561161442728
 30
0.0
  0
VERTEX
  5
2EB
  8
LAYER_1
 10
-824.1518025742124
 20
1331.111615354186
 30
0.0
  0
VERTEX
  5
2EC
  8
LAYER_1
 10
-843.9500939106089
 20
1322.300465009991
 30
0.0
  0
VERTEX
  5
2ED
  8
LAYER_1
 10
-863.7693580132517
 20
1331.111615354186
 30
0.0
  0
SEQEND
  5
2EE
  8
LAYER_1
  0
POLYLINE
  5
81
  8
LAYER_1
 66
     1
 10
0.0
 20
0.0
 30
0.0
 70
     1
  0
VERTEX
  5
2EF
  8
LAYER_1
 10
-894.8142952491644
 20
1329.543906962092
 30
0.0
  0
VERTEX
  5
2F0
  8
LAYER_1
 10
-891.039197324851
 20
1310.490220350485
 30
0.0
  0
VERTEX
  5
2F1
  8
LAYER_1
 10
-880.2329795165067
 20
1306.059740111957
 30
0.0
  0
VERTEX
  5
2F2
  8
LAYER_1
 10
-871.9539800408245
 20
1314.278412033722
 30
0.0
  0
VERTEX
  5
2F3
  8
LAYER_1
 10
-875.7448075398232
 20
1333.334720231271
 30
0.0
  0
VERTEX
  5
2F4
  8
LAYER_1
 10
-886.5510253481688
 20
1337.822875360478
 30
0.0
  0
SEQEND
  5
2F5
  8
LAYER_1
  0
POLYLINE
  5
82
  8
LAYER_1
 66
     1
 10
0.0
 20
0.0
 30
0.0
 70
     1
  0
VERTEX
  5
2F6
  8
LAYER_1
 10
-943.3190603850253
 20
1253.006705445045
 30
0.0
  0
VERTEX
  5
2F7
  8
LAYER_1
 10
-888.6220860149797
 20
1182.48080048832
 30
0.0
  0
VERTEX
  5
2F8
  8
LAYER_1
 10
-878.4712671518264
 20
1175.326492458177
 30
0.0
  0
VERTEX
  5
2F9
  8
LAYER_1
 10
-881.2082131469537
 20
1187.443462672659
 30
0.0
  0
VERTEX
  5
2FA
  8
LAYER_1
 10
-925.4188043939074
 20
1264.96900208907
 30
0.0
  0
VERTEX
  5
2FB
  8
LAYER_1
 10
-938.3747307424866
 20
1264.96900208907
 30
0.0
  0
SEQEND
  5
2FC
  8
LAYER_1
  0
POLYLINE
  5
83
  8
LAYER_1
 66
     1
 10
0.0
 20
0.0
 30
0.0
 70
     1
  0
VERTEX
  5
2FD
  8
LAYER_1
 10
-932.8484068366171
 20
1295.804095914844
 30
0.0
  0
VERTEX
  5
2FE
  8
LAYER_1
 10
-924.92070119556
 20
1283.642558739384
 30
0.0
  0
VERTEX
  5
2FF
  8
LAYER_1
 10
-931.7368502255706
 20
1276.351928240363
 30
0.0
  0
VERTEX
  5
300
  8
LAYER_1
 10
-919.9291828289696
 20
1275.95606876343
 30
0.0
  0
VERTEX
  5
301
  8
LAYER_1
 10
-884.42228957418
 20
1221.366784735703
 30
0.0
  0
VERTEX
  5
302
  8
LAYER_1
 10
-897.7662120983159
 20
1285.225996647117
 30
0.0
  0
VERTEX
  5
303
  8
LAYER_1
 10
-889.8542360319432
 20
1293.701583990998
 30
0.0
  0
VERTEX
  5
304
  8
LAYER_1
 10
-899.6065723364169
 20
1294.021417475675
 30
0.0
  0
VERTEX
  5
305
  8
LAYER_1
 10
-902.5322732277599
 20
1307.978741020006
 30
0.0
  0
VERTEX
  5
306
  8
LAYER_1
 10
-914.7384231830384
 20
1294.540491491785
 30
0.0
  0
SEQEND
  5
307
  8
LAYER_1
  0
POLYLINE
  5
84
  8
LAYER_1
 66
     1
 10
0.0
 20
0.0
 30
0.0
 70
     1
  0
VERTEX
  5
308
  8
LAYER_1
 10
-985.2488633027074
 20
1218.079315966997
 30
0.0
  0
VERTEX
  5
309
  8
LAYER_1
 10
-985.2488633027074
 20
1205.126059837669
 30
0.0
  0
VERTEX
  5
30A
  8
LAYER_1
 10
-907.7335192568139
 20
1160.915634546233
 30
0.0
  0
VERTEX
  5
30B
  8
LAYER_1
 10
-895.6060171749592
 20
1158.176077238978
 30
0.0
  0
VERTEX
  5
30C
  8
LAYER_1
 10
-902.7734600395909
 20
1168.342587514131
 30
0.0
  0
VERTEX
  5
30D
  8
LAYER_1
 10
-973.2839001592596
 20
1223.039356565395
 30
0.0
  0
SEQEND
  5
30E
  8
LAYER_1
  0
POLYLINE
  5
85
  8
LAYER_1
 66
     1
 10
0.0
 20
0.0
 30
0.0
 70
     1
  0
VERTEX
  5
30F
  8
LAYER_1
 10
-1010.631153652149
 20
1156.82071730802
 30
0.0
  0
VERTEX
  5
310
  8
LAYER_1
 10
-1005.671094434929
 20
1144.858420663996
 30
0.0
  0
VERTEX
  5
311
  8
LAYER_1
 10
-917.1240753435427
 20
1133.672113458199
 30
0.0
  0
VERTEX
  5
312
  8
LAYER_1
 10
-904.8917094304553
 20
1135.787733311744
 30
0.0
  0
VERTEX
  5
313
  8
LAYER_1
 10
-915.3885789366702
 20
1142.422967325776
 30
0.0
  0
VERTEX
  5
314
  8
LAYER_1
 10
-1001.471297994129
 20
1165.98316016817
 30
0.0
  0
SEQEND
  5
315
  8
LAYER_1
  0
POLYLINE
  5
86
  8
LAYER_1
 66
     1
 10
0.0
 20
0.0
 30
0.0
 70
     1
  0
VERTEX
  5
316
  8
LAYER_1
 10
-948.8716002487023
 20
1325.784552724195
 30
0.0
  0
VERTEX
  5
317
  8
LAYER_1
 10
-941.6464822768918
 20
1307.734933527589
 30
0.0
  0
VERTEX
  5
318
  8
LAYER_1
 10
-919.9711283614619
 20
1307.171292550499
 30
0.0
  0
VERTEX
  5
319
  8
LAYER_1
 10
-905.531378800964
 20
1322.192979986453
 30
0.0
  0
VERTEX
  5
31A
  8
LAYER_1
 10
-912.7564967727744
 20
1340.258328698697
 30
0.0
  0
VERTEX
  5
31B
  8
LAYER_1
 10
-924.7948645980833
 20
1335.434610569175
 30
0.0
  0
VERTEX
  5
31C
  8
LAYER_1
 10
-934.9771426106058
 20
1343.422582928226
 30
0.0
  0
VERTEX
  5
31D
  8
LAYER_1
 10
-936.8332324233922
 20
1330.608270853715
 30
0.0
  0
SEQEND
  5
31E
  8
LAYER_1
  0
POLYLINE
  5
87
  8
LAYER_1
 66
     1
 10
0.0
 20
0.0
 30
0.0
 70
     1
  0
VERTEX
  5
31F
  8
LAYER_1
 10
-934.4737962206977
 20
1357.668280925951
 30
0.0
  0
VERTEX
  5
320
  8
LAYER_1
 10
-924.7529190655922
 20
1366.206786332392
 30
0.0
  0
VERTEX
  5
321
  8
LAYER_1
 10
-894.5416492879633
 20
1378.001301476259
 30
0.0
  0
VERTEX
  5
322
  8
LAYER_1
 10
-862.1387254376115
 20
1378.672427476888
 30
0.0
  0
VERTEX
  5
323
  8
LAYER_1
 10
-849.8696571835945
 20
1374.501484246416
 30
0.0
  0
VERTEX
  5
324
  8
LAYER_1
 10
-859.6115071049473
 20
1365.947249324337
 30
0.0
  0
VERTEX
  5
325
  8
LAYER_1
 10
-878.6809948142873
 20
1362.159057641098
 30
0.0
  0
VERTEX
  5
326
  8
LAYER_1
 10
-876.1852356309912
 20
1349.436501074487
 30
0.0
  0
VERTEX
  5
327
  8
LAYER_1
 10
-889.0939732555177
 20
1350.532323997389
 30
0.0
  0
VERTEX
  5
328
  8
LAYER_1
 10
-900.613265116234
 20
1344.573459155866
 30
0.0
  0
VERTEX
  5
329
  8
LAYER_1
 10
-903.1404834489003
 20
1357.288150964658
 30
0.0
  0
VERTEX
  5
32A
  8
LAYER_1
 10
-922.2099711582415
 20
1353.499959281421
 30
0.0
  0
SEQEND
  5
32B
  8
LAYER_1
  0
POLYLINE
  5
88
  8
LAYER_1
 66
     1
 10
0.0
 20
0.0
 30
0.0
 70
     1
  0
VERTEX
  5
32C
  8
LAYER_1
 10
-965.2670602616565
 20
1305.210346267411
 30
0.0
  0
VERTEX
  5
32D
  8
LAYER_1
 10
-969.7395026636542
 20
1294.404169022908
 30
0.0
  0
VERTEX
  5
32E
  8
LAYER_1
 10
-958.9490144299933
 20
1278.255199632772
 30
0.0
  0
VERTEX
  5
32F
  8
LAYER_1
 10
-947.2776700139918
 20
1278.286658664052
 30
0.0
  0
VERTEX
  5
330
  8
LAYER_1
 10
-942.7685252710625
 20
1289.061376877275
 30
0.0
  0
VERTEX
  5
331
  8
LAYER_1
 10
-953.5590135047235
 20
1305.210346267411
 30
0.0
  0
SEQEND
  5
332
  8
LAYER_1
  0
POLYLINE
  5
89
  8
LAYER_1
 66
     1
 10
0.0
 20
0.0
 30
0.0
 70
     1
  0
VERTEX
  5
333
  8
LAYER_1
 10
-991.8238255208861
 20
1248.319309784402
 30
0.0
  0
VERTEX
  5
334
  8
LAYER_1
 10
-974.7310210302455
 20
1254.435469782322
 30
0.0
  0
VERTEX
  5
335
  8
LAYER_1
 10
-968.9792398872306
 20
1271.664532579719
 30
0.0
  0
VERTEX
  5
336
  8
LAYER_1
 10
-960.7579155187271
 20
1259.689128005996
 30
0.0
  0
VERTEX
  5
337
  8
LAYER_1
 10
-951.4302777307367
 20
1263.202053165538
 30
0.0
  0
VERTEX
  5
338
  8
LAYER_1
 10
-955.5828854474797
 20
1252.13896049892
 30
0.0
  0
VERTEX
  5
339
  8
LAYER_1
 10
-918.7232487698147
 20
1198.446258862658
 30
0.0
  0
VERTEX
  5
33A
  8
LAYER_1
 10
-972.6285012140665
 20
1235.214001670557
 30
0.0
  0
VERTEX
  5
33B
  8
LAYER_1
 10
-983.4819077464667
 20
1231.137435533923
 30
0.0
  0
VERTEX
  5
33C
  8
LAYER_1
 10
-980.0423740820926
 20
1240.284148878433
 30
0.0
  0
SEQEND
  5
33D
  8
LAYER_1
  0
POLYLINE
  5
8A
  8
LAYER_1
 66
     1
 10
0.0
 20
0.0
 30
0.0
 70
     1
  0
VERTEX
  5
33E
  8
LAYER_1
 10
-1028.531409643267
 20
1182.541096964939
 30
0.0
  0
VERTEX
  5
33F
  8
LAYER_1
 10
-1014.317117319917
 20
1179.526273133989
 30
0.0
  0
VERTEX
  5
340
  8
LAYER_1
 10
-1013.997282634662
 20
1169.559003390271
 30
0.0
  0
VERTEX
  5
341
  8
LAYER_1
 10
-1005.366989324359
 20
1177.625623327519
 30
0.0
  0
VERTEX
  5
342
  8
LAYER_1
 10
-941.6569686600149
 20
1164.14280683832
 30
0.0
  0
VERTEX
  5
343
  8
LAYER_1
 10
-996.2490791988301
 20
1199.859293684295
 30
0.0
  0
VERTEX
  5
344
  8
LAYER_1
 10
-996.6475617575067
 20
1211.441460367025
 30
0.0
  0
VERTEX
  5
345
  8
LAYER_1
 10
-1003.767815898087
 20
1204.777388907655
 30
0.0
  0
VERTEX
  5
346
  8
LAYER_1
 10
-1015.701319892164
 20
1212.568742321207
 30
0.0
  0
VERTEX
  5
347
  8
LAYER_1
 10
-1014.820463709826
 20
1194.443097132344
 30
0.0
  0
SEQEND
  5
348
  8
LAYER_1
  0
POLYLINE
  5
8B
  8
LAYER_1
 66
     1
 10
0.0
 20
0.0
 30
0.0
 70
     1
  0
VERTEX
  5
349
  8
LAYER_1
 10
-1025.500844920695
 20
1244.971544539077
 30
0.0
  0
VERTEX
  5
34A
  8
LAYER_1
 10
-1014.694627112349
 20
1249.443970152644
 30
0.0
  0
VERTEX
  5
34B
  8
LAYER_1
 10
-998.5351107196624
 20
1238.65352242378
 30
0.0
  0
VERTEX
  5
34C
  8
LAYER_1
 10
-998.5770562521554
 20
1226.982221819091
 30
0.0
  0
VERTEX
  5
34D
  8
LAYER_1
 10
-1009.357058102695
 20
1222.478337174244
 30
0.0
  0
VERTEX
  5
34E
  8
LAYER_1
 10
-1025.500844920695
 20
1233.281892832808
 30
0.0
  0
SEQEND
  5
34F
  8
LAYER_1
  0
POLYLINE
  5
8C
  8
LAYER_1
 66
     1
 10
0.0
 20
0.0
 30
0.0
 70
     1
  0
VERTEX
  5
350
  8
LAYER_1
 10
-1012.15692239656
 20
1291.861230661149
 30
0.0
  0
VERTEX
  5
351
  8
LAYER_1
 10
-1008.670200008131
 20
1279.398211102593
 30
0.0
  0
VERTEX
  5
352
  8
LAYER_1
 10
-1017.72519183492
 20
1270.112553703265
 30
0.0
  0
VERTEX
  5
353
  8
LAYER_1
 10
-1003.81500462214
 20
1256.522252190528
 30
0.0
  0
VERTEX
  5
354
  8
LAYER_1
 10
-984.4099526528599
 20
1264.116986658583
 30
0.0
  0
VERTEX
  5
355
  8
LAYER_1
 10
-976.6342995670857
 20
1284.358251700992
 30
0.0
  0
VERTEX
  5
356
  8
LAYER_1
 10
-990.5444867798678
 20
1297.94855321373
 30
0.0
  0
VERTEX
  5
357
  8
LAYER_1
 10
-999.5994786066583
 20
1288.665517400342
 30
0.0
  0
SEQEND
  5
358
  8
LAYER_1
  0
POLYLINE
  5
8D
  8
LAYER_1
 66
     1
 10
0.0
 20
0.0
 30
0.0
 70
     1
  0
VERTEX
  5
359
  8
LAYER_1
 10
-1058.103010050385
 20
1166.271534621565
 30
0.0
  0
VERTEX
  5
35A
  8
LAYER_1
 10
-1049.83974014939
 20
1174.53477350431
 30
0.0
  0
VERTEX
  5
35B
  8
LAYER_1
 10
-1030.785982014732
 20
1170.746581821072
 30
0.0
  0
VERTEX
  5
35C
  8
LAYER_1
 10
-1026.339755570541
 20
1159.940404576569
 30
0.0
  0
VERTEX
  5
35D
  8
LAYER_1
 10
-1034.571566322167
 20
1151.661436178184
 30
0.0
  0
VERTEX
  5
35E
  8
LAYER_1
 10
-1053.630567648388
 20
1155.465357377061
 30
0.0
  0
SEQEND
  5
35F
  8
LAYER_1
  0
POLYLINE
  5
8E
  8
LAYER_1
 66
     1
 10
0.0
 20
0.0
 30
0.0
 70
     1
  0
VERTEX
  5
360
  8
LAYER_1
 10
-1017.132711188468
 20
1305.210346267411
 30
0.0
  0
VERTEX
  5
361
  8
LAYER_1
 10
-1004.208243989256
 20
1306.059740111957
 30
0.0
  0
VERTEX
  5
362
  8
LAYER_1
 10
-988.0329980218871
 20
1316.86591735646
 30
0.0
  0
VERTEX
  5
363
  8
LAYER_1
 10
-980.8340960078854
 20
1306.083334385416
 30
0.0
  0
VERTEX
  5
364
  8
LAYER_1
 10
-972.4764486587814
 20
1315.985064480635
 30
0.0
  0
VERTEX
  5
365
  8
LAYER_1
 10
-960.1339757229022
 20
1319.90957863275
 30
0.0
  0
VERTEX
  5
366
  8
LAYER_1
 10
-967.3066617790973
 20
1330.715755877254
 30
0.0
  0
VERTEX
  5
367
  8
LAYER_1
 10
-951.1261726201666
 20
1341.521933121756
 30
0.0
  0
VERTEX
  5
368
  8
LAYER_1
 10
-945.4006074349593
 20
1353.132937249827
 30
0.0
  0
VERTEX
  5
369
  8
LAYER_1
 10
-958.3408042088529
 20
1352.296651334981
 30
0.0
  0
VERTEX
  5
36A
  8
LAYER_1
 10
-988.0329980218871
 20
1339.285720314973
 30
0.0
  0
VERTEX
  5
36B
  8
LAYER_1
 10
-1011.41238919482
 20
1316.834458325181
 30
0.0
  0
SEQEND
  5
36C
  8
LAYER_1
  0
POLYLINE
  5
8F
  8
LAYER_1
 66
     1
 10
0.0
 20
0.0
 30
0.0
 70
     1
  0
VERTEX
  5
36D
  8
LAYER_1
 10
-1063.718468212802
 20
1214.700091690392
 30
0.0
  0
VERTEX
  5
36E
  8
LAYER_1
 10
-1050.856919312329
 20
1216.252070566847
 30
0.0
  0
VERTEX
  5
36F
  8
LAYER_1
 10
-1045.760537114508
 20
1228.167178663952
 30
0.0
  0
VERTEX
  5
370
  8
LAYER_1
 10
-1027.876010698074
 20
1220.512147719277
 30
0.0
  0
VERTEX
  5
371
  8
LAYER_1
 10
-1027.467041756273
 20
1199.678404254438
 30
0.0
  0
VERTEX
  5
372
  8
LAYER_1
 10
-1043.186130057787
 20
1184.748472326384
 30
0.0
  0
VERTEX
  5
373
  8
LAYER_1
 10
-1061.070656474221
 20
1192.403503271057
 30
0.0
  0
VERTEX
  5
374
  8
LAYER_1
 10
-1055.958544701714
 20
1204.321232954102
 30
0.0
  0
SEQEND
  5
375
  8
LAYER_1
  0
POLYLINE
  5
90
  8
LAYER_1
 66
     1
 10
0.0
 20
0.0
 30
0.0
 70
     1
  0
VERTEX
  5
376
  8
LAYER_1
 10
-1072.589948334936
 20
1238.04531448571
 30
0.0
  0
VERTEX
  5
377
  8
LAYER_1
 10
-1073.428858984784
 20
1225.126138973602
 30
0.0
  0
VERTEX
  5
378
  8
LAYER_1
 10
-1061.799460101275
 20
1230.846439494588
 30
0.0
  0
VERTEX
  5
379
  8
LAYER_1
 10
-1050.993242292929
 20
1247.011138400364
 30
0.0
  0
VERTEX
  5
37A
  8
LAYER_1
 10
-1040.202754059268
 20
1239.841100854582
 30
0.0
  0
VERTEX
  5
37B
  8
LAYER_1
 10
-1036.275603579671
 20
1252.186149045839
 30
0.0
  0
VERTEX
  5
37C
  8
LAYER_1
 10
-1026.363349932568
 20
1260.546386608363
 30
0.0
  0
VERTEX
  5
37D
  8
LAYER_1
 10
-1037.145973378886
 20
1267.753126357304
 30
0.0
  0
VERTEX
  5
37E
  8
LAYER_1
 10
-1026.339755570541
 20
1283.91782526308
 30
0.0
  0
VERTEX
  5
37F
  8
LAYER_1
 10
-1025.500844920695
 20
1296.852730290828
 30
0.0
  0
VERTEX
  5
380
  8
LAYER_1
 10
-1037.130243804203
 20
1291.129808183901
 30
0.0
  0
VERTEX
  5
381
  8
LAYER_1
 10
-1059.576346879181
 20
1267.737396841664
 30
0.0
  0
SEQEND
  5
382
  8
LAYER_1
  0
POLYLINE
  5
91
  8
LAYER_1
 66
     1
 10
0.0
 20
0.0
 30
0.0
 70
     1
  0
VERTEX
  5
383
  8
LAYER_1
 10
-1098.297316561197
 20
1174.262128566553
 30
0.0
  0
VERTEX
  5
384
  8
LAYER_1
 10
-1098.95271550639
 20
1141.843596833045
 30
0.0
  0
VERTEX
  5
385
  8
LAYER_1
 10
-1094.779135023398
 20
1129.579817805926
 30
0.0
  0
VERTEX
  5
386
  8
LAYER_1
 10
-1086.243219161202
 20
1139.319009572866
 30
0.0
  0
VERTEX
  5
387
  8
LAYER_1
 10
-1082.436662087521
 20
1158.388425700114
 30
0.0
  0
VERTEX
  5
388
  8
LAYER_1
 10
-1069.727165742332
 20
1155.862527646965
 30
0.0
  0
VERTEX
  5
389
  8
LAYER_1
 10
-1070.828235970256
 20
1168.783013952044
 30
0.0
  0
VERTEX
  5
38A
  8
LAYER_1
 10
-1064.877213547904
 20
1180.289154642516
 30
0.0
  0
VERTEX
  5
38B
  8
LAYER_1
 10
-1077.581466701529
 20
1182.845200933973
 30
0.0
  0
VERTEX
  5
38C
  8
LAYER_1
 10
-1073.780152819408
 20
1201.930346576862
 30
0.0
  0
VERTEX
  5
38D
  8
LAYER_1
 10
-1077.948490110836
 20
1214.19674718992
 30
0.0
  0
VERTEX
  5
38E
  8
LAYER_1
 10
-1086.500135547718
 20
1204.45755542298
 30
0.0
  0
SEQEND
  5
38F
  8
LAYER_1
  0
POLYLINE
  5
92
  8
LAYER_1
 66
     1
 10
0.0
 20
0.0
 30
0.0
  0
VERTEX
  5
390
  8
LAYER_1
 10
-606.0874655295224
 20
1123.673384683202
 30
0.0
  0
VERTEX
  5
391
  8
LAYER_1
 10
-617.2135180231227
 20
1130.277159665954
 30
0.0
  0
VERTEX
  5
392
  8
LAYER_1
 10
-617.0614654678375
 20
1143.243523724982
 30
0.0
  0
VERTEX
  5
393
  8
LAYER_1
 10
-636.5137061611726
 20
1143.474223287698
 30
0.0
  0
VERTEX
  5
394
  8
LAYER_1
 10
-645.3222679845686
 20
1123.673384683202
 30
0.0
  0
SEQEND
  5
395
  8
LAYER_1
  0
POLYLINE
  5
93
  8
LAYER_1
 66
     1
 10
0.0
 20
0.0
 30
0.0
  0
VERTEX
  5
396
  8
LAYER_1
 10
-659.0069979602031
 20
1123.673384683202
 30
0.0
  0
VERTEX
  5
397
  8
LAYER_1
 10
-650.9115101891773
 20
1139.911487995297
 30
0.0
  0
VERTEX
  5
398
  8
LAYER_1
 10
-665.1834776197043
 20
1137.247956680301
 30
0.0
  0
VERTEX
  5
399
  8
LAYER_1
 10
-669.2941398039561
 20
1146.334373548191
 30
0.0
  0
VERTEX
  5
39A
  8
LAYER_1
 10
-674.180794339316
 20
1135.575384850608
 30
0.0
  0
VERTEX
  5
39B
  8
LAYER_1
 10
-738.2106496889155
 20
1123.673384683202
 30
0.0
  0
SEQEND
  5
39C
  8
LAYER_1
  0
POLYLINE
  5
94
  8
LAYER_1
 66
     1
 10
0.0
 20
0.0
 30
0.0
  0
VERTEX
  5
39D
  8
LAYER_1
 10
-805.0508557155003
 20
1123.673384683202
 30
0.0
  0
VERTEX
  5
39E
  8
LAYER_1
 10
-815.3379975592532
 20
1129.364847758849
 30
0.0
  0
VERTEX
  5
39F
  8
LAYER_1
 10
-808.0185021393354
 20
1138.556128064338
 30
0.0
  0
VERTEX
  5
3A0
  8
LAYER_1
 10
-819.6898465553357
 20
1139.882650549957
 30
0.0
  0
VERTEX
  5
3A1
  8
LAYER_1
 10
-816.4495541703017
 20
1151.173821193352
 30
0.0
  0
VERTEX
  5
3A2
  8
LAYER_1
 10
-827.7433887938695
 20
1147.933540971565
 30
0.0
  0
VERTEX
  5
3A3
  8
LAYER_1
 10
-829.064673067381
 20
1159.607463162194
 30
0.0
  0
VERTEX
  5
3A4
  8
LAYER_1
 10
-838.2612310663324
 20
1152.285373631894
 30
0.0
  0
VERTEX
  5
3A5
  8
LAYER_1
 10
-843.9500939106089
 20
1162.575098446226
 30
0.0
  0
VERTEX
  5
3A6
  8
LAYER_1
 10
-849.6441999464473
 20
1152.285373631894
 30
0.0
  0
VERTEX
  5
3A7
  8
LAYER_1
 10
-858.8355147538371
 20
1159.607463162194
 30
0.0
  0
VERTEX
  5
3A8
  8
LAYER_1
 10
-860.1620422189089
 20
1147.933540971565
 30
0.0
  0
VERTEX
  5
3A9
  8
LAYER_1
 10
-871.466363225601
 20
1151.173821193352
 30
0.0
  0
VERTEX
  5
3AA
  8
LAYER_1
 10
-868.2103412658812
 20
1139.882650549957
 30
0.0
  0
VERTEX
  5
3AB
  8
LAYER_1
 10
-879.8974152565662
 20
1138.556128064338
 30
0.0
  0
VERTEX
  5
3AC
  8
LAYER_1
 10
-872.562190261964
 20
1129.364847758849
 30
0.0
  0
VERTEX
  5
3AD
  8
LAYER_1
 10
-882.8493321057177
 20
1123.673384683202
 30
0.0
  0
SEQEND
  5
3AE
  8
LAYER_1
  0
POLYLINE
  5
95
  8
LAYER_1
 66
     1
 10
0.0
 20
0.0
 30
0.0
  0
VERTEX
  5
3AF
  8
LAYER_1
 10
-949.7105108985487
 20
1123.673384683202
 30
0.0
  0
VERTEX
  5
3B0
  8
LAYER_1
 10
-1013.724636673463
 20
1135.575384850608
 30
0.0
  0
VERTEX
  5
3B1
  8
LAYER_1
 10
-1018.606048017261
 20
1146.334373548191
 30
0.0
  0
VERTEX
  5
3B2
  8
LAYER_1
 10
-1022.732439776197
 20
1137.247956680301
 30
0.0
  0
VERTEX
  5
3B3
  8
LAYER_1
 10
-1037.009650398286
 20
1139.911487995297
 30
0.0
  0
VERTEX
  5
3B4
  8
LAYER_1
 10
-1028.898433052576
 20
1123.673384683202
 30
0.0
  0
SEQEND
  5
3B5
  8
LAYER_1
  0
POLYLINE
  5
96
  8
LAYER_1
 66
     1
 10
0.0
 20
0.0
 30
0.0
  0
VERTEX
  5
3B6
  8
LAYER_1
 10
-1042.577919836649
 20
1123.673384683202
 30
0.0
  0
VERTEX
  5
3B7
  8
LAYER_1
 10
-1051.391724851607
 20
1143.474223287698
 30
0.0
  0
VERTEX
  5
3B8
  8
LAYER_1
 10
-1070.83872235338
 20
1143.243523724982
 30
0.0
  0
VERTEX
  5
3B9
  8
LAYER_1
 10
-1070.686669798095
 20
1130.277159665954
 30
0.0
  0
VERTEX
  5
3BA
  8
LAYER_1
 10
-1081.812722291696
 20
1123.673384683202
 30
0.0
  0
SEQEND
  5
3BB
  8
LAYER_1
  0
ENDSEC
  0
EOF
