  0
SECTION
  2
HEADER
  9
$ACADVER
  1
AC1009
  9
$DWGCODEPAGE
  3
ansi_1256
  9
$INSBASE
 10
0.0
 20
0.0
 30
0.0
  9
$EXTMIN
 10
-1003.349
 20
-68.58399999999999
 30
0.0
  9
$EXTMAX
 10
-203.349
 20
71.41600000000001
 30
0.0
  9
$LIMMIN
 10
0.0
 20
0.0
  9
$LIMMAX
 10
12.0
 20
9.0
  9
$ORTHOMODE
 70
     0
  9
$REGENMODE
 70
     1
  9
$FILLMODE
 70
     1
  9
$QTEXTMODE
 70
     0
  9
$MIRRTEXT
 70
     1
  9
$DRAGMODE
 70
     2
  9
$LTSCALE
 40
1.0
  9
$OSMODE
 70
    37
  9
$ATTMODE
 70
     1
  9
$TEXTSIZE
 40
0.2
  9
$TRACEWID
 40
0.05
  9
$TEXTSTYLE
  7
STANDARD
  9
$CLAYER
  8
0
  9
$CELTYPE
  6
BYLAYER
  9
$CECOLOR
 62
   256
  9
$DIMSCALE
 40
1.0
  9
$DIMASZ
 40
0.18
  9
$DIMEXO
 40
0.0625
  9
$DIMDLI
 40
0.38
  9
$DIMRND
 40
0.0
  9
$DIMDLE
 40
0.0
  9
$DIMEXE
 40
0.18
  9
$DIMTP
 40
0.0
  9
$DIMTM
 40
0.0
  9
$DIMTXT
 40
0.18
  9
$DIMCEN
 40
0.09
  9
$DIMTSZ
 40
0.0
  9
$DIMTOL
 70
     0
  9
$DIMLIM
 70
     0
  9
$DIMTIH
 70
     1
  9
$DIMTOH
 70
     1
  9
$DIMSE1
 70
     0
  9
$DIMSE2
 70
     0
  9
$DIMTAD
 70
     0
  9
$DIMZIN
 70
     0
  9
$DIMBLK
  1

  9
$DIMASO
 70
     1
  9
$DIMSHO
 70
     1
  9
$DIMPOST
  1

  9
$DIMAPOST
  1

  9
$DIMALT
 70
     0
  9
$DIMALTD
 70
     2
  9
$DIMALTF
 40
25.4
  9
$DIMLFAC
 40
1.0
  9
$DIMTOFL
 70
     0
  9
$DIMTVP
 40
0.0
  9
$DIMTIX
 70
     0
  9
$DIMSOXD
 70
     0
  9
$DIMSAH
 70
     0
  9
$DIMBLK1
  1

  9
$DIMBLK2
  1

  9
$DIMSTYLE
  2
STANDARD
  9
$DIMCLRD
 70
     0
  9
$DIMCLRE
 70
     0
  9
$DIMCLRT
 70
     0
  9
$DIMTFAC
 40
1.0
  9
$DIMGAP
 40
0.09
  9
$LUNITS
 70
     2
  9
$LUPREC
 70
     4
  9
$SKETCHINC
 40
0.1
  9
$FILLETRAD
 40
0.5
  9
$AUNITS
 70
     0
  9
$AUPREC
 70
     0
  9
$MENU
  1
.
  9
$ELEVATION
 40
0.0
  9
$PELEVATION
 40
0.0
  9
$THICKNESS
 40
0.0
  9
$LIMCHECK
 70
     0
  9
$CHAMFERA
 40
0.5
  9
$CHAMFERB
 40
0.5
  9
$SKPOLY
 70
     0
  9
$TDCREATE
 40
2454910.5
  9
$TDUPDATE
 40
2458192.616579283
  9
$TDINDWG
 40
0.0000000116
  9
$TDUSRTIMER
 40
0.0000000116
  9
$USRTIMER
 70
     1
  9
$ANGBASE
 50
0.0
  9
$ANGDIR
 70
     0
  9
$PDMODE
 70
     0
  9
$PDSIZE
 40
0.0
  9
$PLINEWID
 40
0.0
  9
$COORDS
 70
     1
  9
$SPLFRAME
 70
     0
  9
$SPLINETYPE
 70
     6
  9
$SPLINESEGS
 70
     8
  9
$ATTDIA
 70
     0
  9
$ATTREQ
 70
     1
  9
$HANDLING
 70
     1
  9
$HANDSEED
  5
752
  9
$SURFTAB1
 70
     6
  9
$SURFTAB2
 70
     6
  9
$SURFTYPE
 70
     6
  9
$SURFU
 70
     6
  9
$SURFV
 70
     6
  9
$UCSNAME
  2

  9
$UCSORG
 10
0.0
 20
0.0
 30
0.0
  9
$UCSXDIR
 10
1.0
 20
0.0
 30
0.0
  9
$UCSYDIR
 10
0.0
 20
1.0
 30
0.0
  9
$PUCSNAME
  2

  9
$PUCSORG
 10
0.0
 20
0.0
 30
0.0
  9
$PUCSXDIR
 10
1.0
 20
0.0
 30
0.0
  9
$PUCSYDIR
 10
0.0
 20
1.0
 30
0.0
  9
$USERI1
 70
     0
  9
$USERI2
 70
     0
  9
$USERI3
 70
     0
  9
$USERI4
 70
     0
  9
$USERI5
 70
     0
  9
$USERR1
 40
0.0
  9
$USERR2
 40
0.0
  9
$USERR3
 40
0.0
  9
$USERR4
 40
0.0
  9
$USERR5
 40
0.0
  9
$WORLDVIEW
 70
     1
  9
$SHADEDGE
 70
     3
  9
$SHADEDIF
 70
    70
  9
$TILEMODE
 70
     1
  9
$MAXACTVP
 70
    64
  9
$PLIMCHECK
 70
     0
  9
$PEXTMIN
 10
1.000000000000000E+20
 20
1.000000000000000E+20
 30
1.000000000000000E+20
  9
$PEXTMAX
 10
-1.000000000000000E+20
 20
-1.000000000000000E+20
 30
-1.000000000000000E+20
  9
$PLIMMIN
 10
0.0
 20
0.0
  9
$PLIMMAX
 10
12.0
 20
9.0
  9
$UNITMODE
 70
     0
  9
$VISRETAIN
 70
     1
  9
$PLINEGEN
 70
     0
  9
$PSLTSCALE
 70
     1
  0
ENDSEC
  0
SECTION
  2
TABLES
  0
TABLE
  2
VPORT
 70
     1
  0
VPORT
  2
*ACTIVE
 70
     0
 10
0.0
 20
0.0
 11
1.0
 21
1.0
 12
10.42990654205607
 22
4.5
 13
0.0
 23
0.0
 14
0.5
 24
0.5
 15
0.5
 25
0.5
 16
0.0
 26
0.0
 36
1.0
 17
0.0
 27
0.0
 37
0.0
 40
9.0
 41
1.972972972850329
 42
50.0
 43
0.0
 44
0.0
 50
0.0
 51
0.0
 71
     0
 72
   100
 73
     1
 74
     3
 75
     0
 76
     0
 77
     0
 78
     0
  0
ENDTAB
  0
TABLE
  2
LTYPE
 70
     2
  0
LTYPE
  2
CONTINUOUS
 70
     0
  3
Solid line
 72
    65
 73
     0
 40
0.0
  0
LTYPE
  2
CONTINUOUS2
 70
     0
  3
Solid Line
 72
    65
 73
     0
 40
0.0
  0
ENDTAB
  0
TABLE
  2
LAYER
 70
     2
  0
LAYER
  2
0
 70
     0
 62
     7
  6
CONTINUOUS
  0
LAYER
  2
LAYER_1
 70
     0
 62
    18
  6
CONTINUOUS
  0
ENDTAB
  0
TABLE
  2
STYLE
 70
     1
  0
STYLE
  2
STANDARD
 70
     0
 40
0.0
 41
1.0
 50
0.0
 71
     0
 42
0.2
  3
txt
  4

  0
ENDTAB
  0
TABLE
  2
VIEW
 70
     0
  0
ENDTAB
  0
TABLE
  2
UCS
 70
     0
  0
ENDTAB
  0
TABLE
  2
APPID
 70
     1
  0
APPID
  2
ACAD
 70
     0
  0
ENDTAB
  0
TABLE
  2
DIMSTYLE
 70
     1
  0
DIMSTYLE
  2
STANDARD
 70
     0
  3

  4

  5

  6

  7

 40
1.0
 41
0.18
 42
0.0625
 43
0.38
 44
0.18
 45
0.0
 46
0.0
 47
0.0
 48
0.0
140
0.18
141
0.09
142
0.0
143
25.4
144
1.0
145
0.0
146
1.0
147
0.09
 71
     0
 72
     0
 73
     1
 74
     1
 75
     0
 76
     0
 77
     0
 78
     0
170
     0
171
     2
172
     0
173
     0
174
     0
175
     0
176
     0
177
     0
178
     0
  0
ENDTAB
  0
ENDSEC
  0
SECTION
  2
BLOCKS
  0
BLOCK
  8
0
  2
$MODEL_SPACE
 70
     0
 10
0.0
 20
0.0
 30
0.0
  3
$MODEL_SPACE
  1

  0
ENDBLK
  5
21
  8
0
  0
BLOCK
 67
     1
  8
0
  2
$PAPER_SPACE
 70
     0
 10
0.0
 20
0.0
 30
0.0
  3
$PAPER_SPACE
  1

  0
ENDBLK
  5
1D
 67
     1
  8
0
  0
ENDSEC
  0
SECTION
  2
ENTITIES
  0
POLYLINE
  5
41
  8
LAYER_1
 66
     1
 10
0.0
 20
0.0
 30
0.0
 70
     1
  0
VERTEX
  5
C8
  8
LAYER_1
 10
-455.2313500178665
 20
33.62141614287356
 30
0.0
  0
VERTEX
  5
C9
  8
LAYER_1
 10
-454.99543458881
 20
28.98670540018463
 30
0.0
  0
VERTEX
  5
CA
  8
LAYER_1
 10
-460.4231663570845
 20
29.18815230657117
 30
0.0
  0
VERTEX
  5
CB
  8
LAYER_1
 10
-465.2885500474068
 20
33.34267707300245
 30
0.0
  0
VERTEX
  5
CC
  8
LAYER_1
 10
-471.089317532709
 20
28.38943315311752
 30
0.0
  0
VERTEX
  5
CD
  8
LAYER_1
 10
-471.089317532709
 20
35.3943778823608
 30
0.0
  0
VERTEX
  5
CE
  8
LAYER_1
 10
-477.9700091337118
 20
35.3943778823608
 30
0.0
  0
VERTEX
  5
CF
  8
LAYER_1
 10
-481.9748124731925
 20
38.52916880379911
 30
0.0
  0
VERTEX
  5
D0
  8
LAYER_1
 10
-478.286212500422
 20
41.41644908382381
 30
0.0
  0
VERTEX
  5
D1
  8
LAYER_1
 10
-464.3601501258521
 20
41.41644908382381
 30
0.0
  0
SEQEND
  5
D2
  8
LAYER_1
  0
POLYLINE
  5
42
  8
LAYER_1
 66
     1
 10
0.0
 20
0.0
 30
0.0
 70
     1
  0
VERTEX
  5
D3
  8
LAYER_1
 10
-431.5648300362086
 20
39.73118970536768
 30
0.0
  0
VERTEX
  5
D4
  8
LAYER_1
 10
-437.2113841687347
 20
34.84827507217608
 30
0.0
  0
VERTEX
  5
D5
  8
LAYER_1
 10
-437.2113841687347
 20
27.59439212187777
 30
0.0
  0
VERTEX
  5
D6
  8
LAYER_1
 10
-444.4927249335548
 20
32.50043263112019
 30
0.0
  0
VERTEX
  5
D7
  8
LAYER_1
 10
-447.7947498279672
 20
32.48696553360793
 30
0.0
  0
VERTEX
  5
D8
  8
LAYER_1
 10
-447.778978446094
 20
35.30654669644491
 30
0.0
  0
VERTEX
  5
D9
  8
LAYER_1
 10
-453.4250389890653
 20
41.41644908382381
 30
0.0
  0
VERTEX
  5
DA
  8
LAYER_1
 10
-429.615934750241
 20
41.41644908382381
 30
0.0
  0
SEQEND
  5
DB
  8
LAYER_1
  0
POLYLINE
  5
43
  8
LAYER_1
 66
     1
 10
0.0
 20
0.0
 30
0.0
 70
     1
  0
VERTEX
  5
DC
  8
LAYER_1
 10
-461.3071780960913
 20
22.78580106998717
 30
0.0
  0
VERTEX
  5
DD
  8
LAYER_1
 10
-459.1300143546807
 20
22.80784458288983
 30
0.0
  0
VERTEX
  5
DE
  8
LAYER_1
 10
-459.155829617361
 20
20.94877626269616
 30
0.0
  0
VERTEX
  5
DF
  8
LAYER_1
 10
-455.1744576660454
 20
17.54910432952167
 30
0.0
  0
VERTEX
  5
E0
  8
LAYER_1
 10
-461.6703803234545
 20
12.00227117539518
 30
0.0
  0
VERTEX
  5
E1
  8
LAYER_1
 10
-471.7842631589238
 20
12.00245010549693
 30
0.0
  0
VERTEX
  5
E2
  8
LAYER_1
 10
-471.7844727048159
 20
20.63863984903472
 30
0.0
  0
VERTEX
  5
E3
  8
LAYER_1
 10
-465.2885500474068
 20
26.18547300316123
 30
0.0
  0
SEQEND
  5
E4
  8
LAYER_1
  0
POLYLINE
  5
44
  8
LAYER_1
 66
     1
 10
0.0
 20
0.0
 30
0.0
 70
     1
  0
VERTEX
  5
E5
  8
LAYER_1
 10
-446.4661893301703
 20
26.13689293225525
 30
0.0
  0
VERTEX
  5
E6
  8
LAYER_1
 10
-437.0475283342084
 20
18.0943493498913
 30
0.0
  0
VERTEX
  5
E7
  8
LAYER_1
 10
-437.0475283342084
 20
6.720475139735328
 30
0.0
  0
VERTEX
  5
E8
  8
LAYER_1
 10
-440.7186968743447
 20
3.300795271186445
 30
0.0
  0
VERTEX
  5
E9
  8
LAYER_1
 10
-444.3898654144809
 20
6.720475139735328
 30
0.0
  0
VERTEX
  5
EA
  8
LAYER_1
 10
-444.3898654144809
 20
12.59586040963691
 30
0.0
  0
VERTEX
  5
EB
  8
LAYER_1
 10
-452.593389464368
 20
12.59586040963691
 30
0.0
  0
VERTEX
  5
EC
  8
LAYER_1
 10
-446.7926219790659
 20
17.54910432952167
 30
0.0
  0
VERTEX
  5
ED
  8
LAYER_1
 10
-451.6580056693878
 20
21.70362909595272
 30
0.0
  0
VERTEX
  5
EE
  8
LAYER_1
 10
-451.8939210984447
 20
26.33833983864179
 30
0.0
  0
SEQEND
  5
EF
  8
LAYER_1
  0
POLYLINE
  5
45
  8
LAYER_1
 66
     1
 10
0.0
 20
0.0
 30
0.0
 70
     1
  0
VERTEX
  5
F0
  8
LAYER_1
 10
-393.9426824234297
 20
33.62141614287356
 30
0.0
  0
VERTEX
  5
F1
  8
LAYER_1
 10
-394.1785978524862
 20
28.98670540018463
 30
0.0
  0
VERTEX
  5
F2
  8
LAYER_1
 10
-388.7508660842118
 20
29.18815230657117
 30
0.0
  0
VERTEX
  5
F3
  8
LAYER_1
 10
-383.8854823938893
 20
33.34267707300245
 30
0.0
  0
VERTEX
  5
F4
  8
LAYER_1
 10
-378.0847149085873
 20
28.38943315311752
 30
0.0
  0
VERTEX
  5
F5
  8
LAYER_1
 10
-378.0847149085873
 20
35.3943778823608
 30
0.0
  0
VERTEX
  5
F6
  8
LAYER_1
 10
-371.2040233075845
 20
35.3943778823608
 30
0.0
  0
VERTEX
  5
F7
  8
LAYER_1
 10
-367.1992199681038
 20
38.52916880379911
 30
0.0
  0
VERTEX
  5
F8
  8
LAYER_1
 10
-370.8878199408741
 20
41.41644908382381
 30
0.0
  0
VERTEX
  5
F9
  8
LAYER_1
 10
-384.8138823154442
 20
41.41644908382381
 30
0.0
  0
SEQEND
  5
FA
  8
LAYER_1
  0
POLYLINE
  5
46
  8
LAYER_1
 66
     1
 10
0.0
 20
0.0
 30
0.0
 70
     1
  0
VERTEX
  5
FB
  8
LAYER_1
 10
-362.8050490890565
 20
38.52916880379911
 30
0.0
  0
VERTEX
  5
FC
  8
LAYER_1
 10
-358.8002457495758
 20
35.3943778823608
 30
0.0
  0
VERTEX
  5
FD
  8
LAYER_1
 10
-351.9195541485731
 20
35.3943778823608
 30
0.0
  0
VERTEX
  5
FE
  8
LAYER_1
 10
-351.9195541485731
 20
28.38943315311752
 30
0.0
  0
VERTEX
  5
FF
  8
LAYER_1
 10
-346.1187866632708
 20
33.34267707300245
 30
0.0
  0
VERTEX
  5
100
  8
LAYER_1
 10
-341.2534029729485
 20
29.18815230657117
 30
0.0
  0
VERTEX
  5
101
  8
LAYER_1
 10
-335.8256712046741
 20
28.98670540018463
 30
0.0
  0
VERTEX
  5
102
  8
LAYER_1
 10
-336.0615866337305
 20
33.62141614287356
 30
0.0
  0
VERTEX
  5
103
  8
LAYER_1
 10
-345.1903867417161
 20
41.41644908382381
 30
0.0
  0
VERTEX
  5
104
  8
LAYER_1
 10
-359.1164491162861
 20
41.41644908382381
 30
0.0
  0
SEQEND
  5
105
  8
LAYER_1
  0
POLYLINE
  5
47
  8
LAYER_1
 66
     1
 10
0.0
 20
0.0
 30
0.0
 70
     1
  0
VERTEX
  5
106
  8
LAYER_1
 10
-417.6092024050877
 20
39.73118970536768
 30
0.0
  0
VERTEX
  5
107
  8
LAYER_1
 10
-411.9626482725615
 20
34.84827507217608
 30
0.0
  0
VERTEX
  5
108
  8
LAYER_1
 10
-411.9626482725615
 20
27.59439212187777
 30
0.0
  0
VERTEX
  5
109
  8
LAYER_1
 10
-404.6813075077415
 20
32.50043263112019
 30
0.0
  0
VERTEX
  5
10A
  8
LAYER_1
 10
-401.3792826133291
 20
32.48696553360793
 30
0.0
  0
VERTEX
  5
10B
  8
LAYER_1
 10
-401.3950539952023
 20
35.30654669644491
 30
0.0
  0
VERTEX
  5
10C
  8
LAYER_1
 10
-395.7489934522309
 20
41.41644908382381
 30
0.0
  0
VERTEX
  5
10D
  8
LAYER_1
 10
-419.5580976910553
 20
41.41644908382381
 30
0.0
  0
SEQEND
  5
10E
  8
LAYER_1
  0
POLYLINE
  5
48
  8
LAYER_1
 66
     1
 10
0.0
 20
0.0
 30
0.0
 70
     1
  0
VERTEX
  5
10F
  8
LAYER_1
 10
-352.61470932068
 20
20.63863984903472
 30
0.0
  0
VERTEX
  5
110
  8
LAYER_1
 10
-352.6144997747879
 20
12.00245010549693
 30
0.0
  0
VERTEX
  5
111
  8
LAYER_1
 10
-342.5006169393185
 20
12.00227117539518
 30
0.0
  0
VERTEX
  5
112
  8
LAYER_1
 10
-336.0046942819094
 20
17.54910432952167
 30
0.0
  0
VERTEX
  5
113
  8
LAYER_1
 10
-339.986066233225
 20
20.94877626269616
 30
0.0
  0
VERTEX
  5
114
  8
LAYER_1
 10
-339.9602509705447
 20
22.80784458288983
 30
0.0
  0
VERTEX
  5
115
  8
LAYER_1
 10
-342.1374147119553
 20
22.78580106998717
 30
0.0
  0
VERTEX
  5
116
  8
LAYER_1
 10
-346.1187866632708
 20
26.18547300316123
 30
0.0
  0
SEQEND
  5
117
  8
LAYER_1
  0
POLYLINE
  5
49
  8
LAYER_1
 66
     1
 10
0.0
 20
0.0
 30
0.0
 70
     1
  0
VERTEX
  5
118
  8
LAYER_1
 10
-366.5273518451304
 20
30.3334703502403
 30
0.0
  0
VERTEX
  5
119
  8
LAYER_1
 10
-372.1578620555326
 20
30.3334703502403
 30
0.0
  0
VERTEX
  5
11A
  8
LAYER_1
 10
-372.1578620555326
 20
22.48906367545331
 30
0.0
  0
VERTEX
  5
11B
  8
LAYER_1
 10
-365.0021345285801
 20
16.38248186687221
 30
0.0
  0
VERTEX
  5
11C
  8
LAYER_1
 10
-357.8464070016277
 20
22.48906367545331
 30
0.0
  0
VERTEX
  5
11D
  8
LAYER_1
 10
-357.8464070016277
 20
30.3334703502403
 30
0.0
  0
VERTEX
  5
11E
  8
LAYER_1
 10
-363.4769172120298
 20
30.3334703502403
 30
0.0
  0
VERTEX
  5
11F
  8
LAYER_1
 10
-365.0021345285801
 20
31.66361728359311
 30
0.0
  0
SEQEND
  5
120
  8
LAYER_1
  0
POLYLINE
  5
4A
  8
LAYER_1
 66
     1
 10
0.0
 20
0.0
 30
0.0
 70
     1
  0
VERTEX
  5
121
  8
LAYER_1
 10
-387.866854345205
 20
22.78580106998717
 30
0.0
  0
VERTEX
  5
122
  8
LAYER_1
 10
-390.0440180866156
 20
22.80784458288983
 30
0.0
  0
VERTEX
  5
123
  8
LAYER_1
 10
-390.0182028239353
 20
20.94877626269616
 30
0.0
  0
VERTEX
  5
124
  8
LAYER_1
 10
-393.9995747752508
 20
17.54910432952167
 30
0.0
  0
VERTEX
  5
125
  8
LAYER_1
 10
-387.5036521178417
 20
12.00227117539518
 30
0.0
  0
VERTEX
  5
126
  8
LAYER_1
 10
-377.3897692823724
 20
12.00245010549693
 30
0.0
  0
VERTEX
  5
127
  8
LAYER_1
 10
-377.3895597364802
 20
20.63863984903472
 30
0.0
  0
VERTEX
  5
128
  8
LAYER_1
 10
-383.8854823938893
 20
26.18547300316123
 30
0.0
  0
SEQEND
  5
129
  8
LAYER_1
  0
POLYLINE
  5
4B
  8
LAYER_1
 66
     1
 10
0.0
 20
0.0
 30
0.0
 70
     1
  0
VERTEX
  5
12A
  8
LAYER_1
 10
-402.707843111126
 20
26.13689293225525
 30
0.0
  0
VERTEX
  5
12B
  8
LAYER_1
 10
-412.1265041070878
 20
18.0943493498913
 30
0.0
  0
VERTEX
  5
12C
  8
LAYER_1
 10
-412.1265041070878
 20
6.720475139735328
 30
0.0
  0
VERTEX
  5
12D
  8
LAYER_1
 10
-408.4553355669516
 20
3.300795271186445
 30
0.0
  0
VERTEX
  5
12E
  8
LAYER_1
 10
-404.7841670268153
 20
6.720475139735328
 30
0.0
  0
VERTEX
  5
12F
  8
LAYER_1
 10
-404.7841670268153
 20
12.59586040963691
 30
0.0
  0
VERTEX
  5
130
  8
LAYER_1
 10
-396.5806429769282
 20
12.59586040963691
 30
0.0
  0
VERTEX
  5
131
  8
LAYER_1
 10
-402.3814104622303
 20
17.54910432952167
 30
0.0
  0
VERTEX
  5
132
  8
LAYER_1
 10
-397.5160267719084
 20
21.70362909595272
 30
0.0
  0
VERTEX
  5
133
  8
LAYER_1
 10
-397.2801113428515
 20
26.33833983864179
 30
0.0
  0
SEQEND
  5
134
  8
LAYER_1
  0
POLYLINE
  5
4C
  8
LAYER_1
 66
     1
 10
0.0
 20
0.0
 30
0.0
 70
     1
  0
VERTEX
  5
135
  8
LAYER_1
 10
-332.4882422852518
 20
21.70362909595272
 30
0.0
  0
VERTEX
  5
136
  8
LAYER_1
 10
-327.6228585949299
 20
17.54910432952167
 30
0.0
  0
VERTEX
  5
137
  8
LAYER_1
 10
-333.4236260802321
 20
12.59586040963691
 30
0.0
  0
VERTEX
  5
138
  8
LAYER_1
 10
-325.2201020303449
 20
12.59586040963691
 30
0.0
  0
VERTEX
  5
139
  8
LAYER_1
 10
-325.2201020303449
 20
6.720475139735328
 30
0.0
  0
VERTEX
  5
13A
  8
LAYER_1
 10
-321.5489334902087
 20
3.300795271186445
 30
0.0
  0
VERTEX
  5
13B
  8
LAYER_1
 10
-317.8777649500724
 20
6.720475139735328
 30
0.0
  0
VERTEX
  5
13C
  8
LAYER_1
 10
-317.8777649500724
 20
18.0943493498913
 30
0.0
  0
VERTEX
  5
13D
  8
LAYER_1
 10
-327.2964259460343
 20
26.13689293225525
 30
0.0
  0
VERTEX
  5
13E
  8
LAYER_1
 10
-332.7241577143087
 20
26.33833983864179
 30
0.0
  0
SEQEND
  5
13F
  8
LAYER_1
  0
POLYLINE
  5
4D
  8
LAYER_1
 66
     1
 10
0.0
 20
0.0
 30
0.0
 70
     1
  0
VERTEX
  5
140
  8
LAYER_1
 10
-424.5870162206481
 20
14.06032066220385
 30
0.0
  0
VERTEX
  5
141
  8
LAYER_1
 10
-418.054139900139
 20
19.64190903204204
 30
0.0
  0
VERTEX
  5
142
  8
LAYER_1
 10
-418.0541399001395
 20
34.30346880189637
 30
0.0
  0
VERTEX
  5
143
  8
LAYER_1
 10
-423.9655616847238
 20
39.35119982827513
 30
0.0
  0
VERTEX
  5
144
  8
LAYER_1
 10
-424.5870162206481
 20
39.89036162280325
 30
0.0
  0
VERTEX
  5
145
  8
LAYER_1
 10
-425.2084707565724
 20
39.35119982827513
 30
0.0
  0
VERTEX
  5
146
  8
LAYER_1
 10
-431.1198925411568
 20
34.30346880189637
 30
0.0
  0
VERTEX
  5
147
  8
LAYER_1
 10
-431.1198925411572
 20
19.64190903204204
 30
0.0
  0
SEQEND
  5
148
  8
LAYER_1
  0
POLYLINE
  5
4E
  8
LAYER_1
 66
     1
 10
0.0
 20
0.0
 30
0.0
 70
     1
  0
VERTEX
  5
149
  8
LAYER_1
 10
-513.1155292695647
 20
33.62141614287356
 30
0.0
  0
VERTEX
  5
14A
  8
LAYER_1
 10
-513.3514446986212
 20
28.98670540018463
 30
0.0
  0
VERTEX
  5
14B
  8
LAYER_1
 10
-507.9237129303468
 20
29.18815230657117
 30
0.0
  0
VERTEX
  5
14C
  8
LAYER_1
 10
-503.0583292400244
 20
33.34267707300245
 30
0.0
  0
VERTEX
  5
14D
  8
LAYER_1
 10
-497.2575617547222
 20
28.38943315311752
 30
0.0
  0
VERTEX
  5
14E
  8
LAYER_1
 10
-497.2575617547222
 20
35.3943778823608
 30
0.0
  0
VERTEX
  5
14F
  8
LAYER_1
 10
-490.3768701537195
 20
35.3943778823608
 30
0.0
  0
VERTEX
  5
150
  8
LAYER_1
 10
-486.3720668142387
 20
38.52916880379911
 30
0.0
  0
VERTEX
  5
151
  8
LAYER_1
 10
-490.0606667870092
 20
41.41644908382381
 30
0.0
  0
VERTEX
  5
152
  8
LAYER_1
 10
-503.9867291615791
 20
41.41644908382381
 30
0.0
  0
SEQEND
  5
153
  8
LAYER_1
  0
POLYLINE
  5
4F
  8
LAYER_1
 66
     1
 10
0.0
 20
0.0
 30
0.0
 70
     1
  0
VERTEX
  5
154
  8
LAYER_1
 10
-536.7820492512226
 20
39.73118970536768
 30
0.0
  0
VERTEX
  5
155
  8
LAYER_1
 10
-531.1354951186966
 20
34.84827507217608
 30
0.0
  0
VERTEX
  5
156
  8
LAYER_1
 10
-531.1354951186966
 20
27.59439212187777
 30
0.0
  0
VERTEX
  5
157
  8
LAYER_1
 10
-523.8541543538764
 20
32.50043263112019
 30
0.0
  0
VERTEX
  5
158
  8
LAYER_1
 10
-520.5521294594641
 20
32.48696553360793
 30
0.0
  0
VERTEX
  5
159
  8
LAYER_1
 10
-520.5679008413373
 20
35.30654669644491
 30
0.0
  0
VERTEX
  5
15A
  8
LAYER_1
 10
-514.921840298366
 20
41.41644908382381
 30
0.0
  0
VERTEX
  5
15B
  8
LAYER_1
 10
-538.7309445371902
 20
41.41644908382381
 30
0.0
  0
SEQEND
  5
15C
  8
LAYER_1
  0
POLYLINE
  5
50
  8
LAYER_1
 66
     1
 10
0.0
 20
0.0
 30
0.0
 70
     1
  0
VERTEX
  5
15D
  8
LAYER_1
 10
-507.03970119134
 20
22.78580106998717
 30
0.0
  0
VERTEX
  5
15E
  8
LAYER_1
 10
-509.2168649327505
 20
22.80784458288983
 30
0.0
  0
VERTEX
  5
15F
  8
LAYER_1
 10
-509.1910496700702
 20
20.94877626269616
 30
0.0
  0
VERTEX
  5
160
  8
LAYER_1
 10
-513.1724216213859
 20
17.54910432952167
 30
0.0
  0
VERTEX
  5
161
  8
LAYER_1
 10
-506.6764989639767
 20
12.00227117539518
 30
0.0
  0
VERTEX
  5
162
  8
LAYER_1
 10
-496.5626161285074
 20
12.00245010549693
 30
0.0
  0
VERTEX
  5
163
  8
LAYER_1
 10
-496.5624065826153
 20
20.63863984903472
 30
0.0
  0
VERTEX
  5
164
  8
LAYER_1
 10
-503.0583292400244
 20
26.18547300316123
 30
0.0
  0
SEQEND
  5
165
  8
LAYER_1
  0
POLYLINE
  5
51
  8
LAYER_1
 66
     1
 10
0.0
 20
0.0
 30
0.0
 70
     1
  0
VERTEX
  5
166
  8
LAYER_1
 10
-521.880689957261
 20
26.13689293225525
 30
0.0
  0
VERTEX
  5
167
  8
LAYER_1
 10
-531.2993509532229
 20
18.0943493498913
 30
0.0
  0
VERTEX
  5
168
  8
LAYER_1
 10
-531.2993509532229
 20
6.720475139735328
 30
0.0
  0
VERTEX
  5
169
  8
LAYER_1
 10
-527.6281824130866
 20
3.300795271186445
 30
0.0
  0
VERTEX
  5
16A
  8
LAYER_1
 10
-523.9570138729504
 20
6.720475139735328
 30
0.0
  0
VERTEX
  5
16B
  8
LAYER_1
 10
-523.9570138729504
 20
12.59586040963691
 30
0.0
  0
VERTEX
  5
16C
  8
LAYER_1
 10
-515.7534898230632
 20
12.59586040963691
 30
0.0
  0
VERTEX
  5
16D
  8
LAYER_1
 10
-521.5542573083653
 20
17.54910432952167
 30
0.0
  0
VERTEX
  5
16E
  8
LAYER_1
 10
-516.6888736180434
 20
21.70362909595272
 30
0.0
  0
VERTEX
  5
16F
  8
LAYER_1
 10
-516.4529581889866
 20
26.33833983864179
 30
0.0
  0
SEQEND
  5
170
  8
LAYER_1
  0
POLYLINE
  5
52
  8
LAYER_1
 66
     1
 10
0.0
 20
0.0
 30
0.0
 70
     1
  0
VERTEX
  5
171
  8
LAYER_1
 10
-513.1155292695647
 20
-30.78851797522591
 30
0.0
  0
VERTEX
  5
172
  8
LAYER_1
 10
-513.3514446986212
 20
-26.15380723253699
 30
0.0
  0
VERTEX
  5
173
  8
LAYER_1
 10
-507.9237129303468
 20
-26.35525413892353
 30
0.0
  0
VERTEX
  5
174
  8
LAYER_1
 10
-503.0583292400244
 20
-30.50977890535481
 30
0.0
  0
VERTEX
  5
175
  8
LAYER_1
 10
-497.2575617547222
 20
-25.55653498546988
 30
0.0
  0
VERTEX
  5
176
  8
LAYER_1
 10
-497.2575617547222
 20
-32.56147971471316
 30
0.0
  0
VERTEX
  5
177
  8
LAYER_1
 10
-490.3768701537195
 20
-32.56147971471316
 30
0.0
  0
VERTEX
  5
178
  8
LAYER_1
 10
-486.3720668142387
 20
-35.69627063615147
 30
0.0
  0
VERTEX
  5
179
  8
LAYER_1
 10
-490.0606667870092
 20
-38.58355091617622
 30
0.0
  0
VERTEX
  5
17A
  8
LAYER_1
 10
-503.9867291615791
 20
-38.58355091617622
 30
0.0
  0
SEQEND
  5
17B
  8
LAYER_1
  0
POLYLINE
  5
53
  8
LAYER_1
 66
     1
 10
0.0
 20
0.0
 30
0.0
 70
     1
  0
VERTEX
  5
17C
  8
LAYER_1
 10
-536.7820492512226
 20
-36.89829153772004
 30
0.0
  0
VERTEX
  5
17D
  8
LAYER_1
 10
-531.1354951186966
 20
-32.01537690452844
 30
0.0
  0
VERTEX
  5
17E
  8
LAYER_1
 10
-531.1354951186966
 20
-24.76149395423013
 30
0.0
  0
VERTEX
  5
17F
  8
LAYER_1
 10
-523.8541543538764
 20
-29.66753446347255
 30
0.0
  0
VERTEX
  5
180
  8
LAYER_1
 10
-520.5521294594641
 20
-29.65406736596029
 30
0.0
  0
VERTEX
  5
181
  8
LAYER_1
 10
-520.5679008413373
 20
-32.47364852879733
 30
0.0
  0
VERTEX
  5
182
  8
LAYER_1
 10
-514.921840298366
 20
-38.58355091617622
 30
0.0
  0
VERTEX
  5
183
  8
LAYER_1
 10
-538.7309445371902
 20
-38.58355091617622
 30
0.0
  0
SEQEND
  5
184
  8
LAYER_1
  0
POLYLINE
  5
54
  8
LAYER_1
 66
     1
 10
0.0
 20
0.0
 30
0.0
 70
     1
  0
VERTEX
  5
185
  8
LAYER_1
 10
-507.03970119134
 20
-19.95290290233956
 30
0.0
  0
VERTEX
  5
186
  8
LAYER_1
 10
-509.2168649327505
 20
-19.97494641524221
 30
0.0
  0
VERTEX
  5
187
  8
LAYER_1
 10
-509.1910496700702
 20
-18.11587809504854
 30
0.0
  0
VERTEX
  5
188
  8
LAYER_1
 10
-513.1724216213859
 20
-14.71620616187406
 30
0.0
  0
VERTEX
  5
189
  8
LAYER_1
 10
-506.6764989639767
 20
-9.169373007747566
 30
0.0
  0
VERTEX
  5
18A
  8
LAYER_1
 10
-496.5626161285074
 20
-9.16955193784932
 30
0.0
  0
VERTEX
  5
18B
  8
LAYER_1
 10
-496.5624065826153
 20
-17.8057416813871
 30
0.0
  0
VERTEX
  5
18C
  8
LAYER_1
 10
-503.0583292400244
 20
-23.35257483551362
 30
0.0
  0
SEQEND
  5
18D
  8
LAYER_1
  0
POLYLINE
  5
55
  8
LAYER_1
 66
     1
 10
0.0
 20
0.0
 30
0.0
 70
     1
  0
VERTEX
  5
18E
  8
LAYER_1
 10
-521.880689957261
 20
-23.30399476460764
 30
0.0
  0
VERTEX
  5
18F
  8
LAYER_1
 10
-531.2993509532229
 20
-15.26145118224369
 30
0.0
  0
VERTEX
  5
190
  8
LAYER_1
 10
-531.2993509532229
 20
-3.887576972087714
 30
0.0
  0
VERTEX
  5
191
  8
LAYER_1
 10
-527.6281824130866
 20
-0.4678971035388315
 30
0.0
  0
VERTEX
  5
192
  8
LAYER_1
 10
-523.9570138729504
 20
-3.887576972087714
 30
0.0
  0
VERTEX
  5
193
  8
LAYER_1
 10
-523.9570138729504
 20
-9.7629622419893
 30
0.0
  0
VERTEX
  5
194
  8
LAYER_1
 10
-515.7534898230632
 20
-9.7629622419893
 30
0.0
  0
VERTEX
  5
195
  8
LAYER_1
 10
-521.5542573083653
 20
-14.71620616187406
 30
0.0
  0
VERTEX
  5
196
  8
LAYER_1
 10
-516.6888736180434
 20
-18.87073092830511
 30
0.0
  0
VERTEX
  5
197
  8
LAYER_1
 10
-516.4529581889866
 20
-23.50544167099417
 30
0.0
  0
SEQEND
  5
198
  8
LAYER_1
  0
POLYLINE
  5
56
  8
LAYER_1
 66
     1
 10
0.0
 20
0.0
 30
0.0
 70
     1
  0
VERTEX
  5
199
  8
LAYER_1
 10
-455.2313500178665
 20
-30.78851797522591
 30
0.0
  0
VERTEX
  5
19A
  8
LAYER_1
 10
-454.99543458881
 20
-26.15380723253699
 30
0.0
  0
VERTEX
  5
19B
  8
LAYER_1
 10
-460.4231663570845
 20
-26.35525413892353
 30
0.0
  0
VERTEX
  5
19C
  8
LAYER_1
 10
-465.2885500474068
 20
-30.50977890535481
 30
0.0
  0
VERTEX
  5
19D
  8
LAYER_1
 10
-471.089317532709
 20
-25.55653498546988
 30
0.0
  0
VERTEX
  5
19E
  8
LAYER_1
 10
-471.089317532709
 20
-32.56147971471316
 30
0.0
  0
VERTEX
  5
19F
  8
LAYER_1
 10
-477.9700091337118
 20
-32.56147971471316
 30
0.0
  0
VERTEX
  5
1A0
  8
LAYER_1
 10
-481.9748124731925
 20
-35.69627063615147
 30
0.0
  0
VERTEX
  5
1A1
  8
LAYER_1
 10
-478.286212500422
 20
-38.58355091617622
 30
0.0
  0
VERTEX
  5
1A2
  8
LAYER_1
 10
-464.3601501258521
 20
-38.58355091617622
 30
0.0
  0
SEQEND
  5
1A3
  8
LAYER_1
  0
POLYLINE
  5
57
  8
LAYER_1
 66
     1
 10
0.0
 20
0.0
 30
0.0
 70
     1
  0
VERTEX
  5
1A4
  8
LAYER_1
 10
-431.5648300362086
 20
-36.89829153772004
 30
0.0
  0
VERTEX
  5
1A5
  8
LAYER_1
 10
-437.2113841687347
 20
-32.01537690452844
 30
0.0
  0
VERTEX
  5
1A6
  8
LAYER_1
 10
-437.2113841687347
 20
-24.76149395423013
 30
0.0
  0
VERTEX
  5
1A7
  8
LAYER_1
 10
-444.4927249335548
 20
-29.66753446347255
 30
0.0
  0
VERTEX
  5
1A8
  8
LAYER_1
 10
-447.7947498279672
 20
-29.65406736596029
 30
0.0
  0
VERTEX
  5
1A9
  8
LAYER_1
 10
-447.778978446094
 20
-32.47364852879733
 30
0.0
  0
VERTEX
  5
1AA
  8
LAYER_1
 10
-453.4250389890653
 20
-38.58355091617622
 30
0.0
  0
VERTEX
  5
1AB
  8
LAYER_1
 10
-429.615934750241
 20
-38.58355091617622
 30
0.0
  0
SEQEND
  5
1AC
  8
LAYER_1
  0
POLYLINE
  5
58
  8
LAYER_1
 66
     1
 10
0.0
 20
0.0
 30
0.0
 70
     1
  0
VERTEX
  5
1AD
  8
LAYER_1
 10
-461.3071780960913
 20
-19.95290290233956
 30
0.0
  0
VERTEX
  5
1AE
  8
LAYER_1
 10
-459.1300143546807
 20
-19.97494641524221
 30
0.0
  0
VERTEX
  5
1AF
  8
LAYER_1
 10
-459.155829617361
 20
-18.11587809504854
 30
0.0
  0
VERTEX
  5
1B0
  8
LAYER_1
 10
-455.1744576660454
 20
-14.71620616187406
 30
0.0
  0
VERTEX
  5
1B1
  8
LAYER_1
 10
-461.6703803234545
 20
-9.169373007747566
 30
0.0
  0
VERTEX
  5
1B2
  8
LAYER_1
 10
-471.7842631589238
 20
-9.16955193784932
 30
0.0
  0
VERTEX
  5
1B3
  8
LAYER_1
 10
-471.7844727048159
 20
-17.8057416813871
 30
0.0
  0
VERTEX
  5
1B4
  8
LAYER_1
 10
-465.2885500474068
 20
-23.35257483551362
 30
0.0
  0
SEQEND
  5
1B5
  8
LAYER_1
  0
POLYLINE
  5
59
  8
LAYER_1
 66
     1
 10
0.0
 20
0.0
 30
0.0
 70
     1
  0
VERTEX
  5
1B6
  8
LAYER_1
 10
-446.4661893301703
 20
-23.30399476460764
 30
0.0
  0
VERTEX
  5
1B7
  8
LAYER_1
 10
-437.0475283342084
 20
-15.26145118224369
 30
0.0
  0
VERTEX
  5
1B8
  8
LAYER_1
 10
-437.0475283342084
 20
-3.887576972087714
 30
0.0
  0
VERTEX
  5
1B9
  8
LAYER_1
 10
-440.7186968743447
 20
-0.4678971035388315
 30
0.0
  0
VERTEX
  5
1BA
  8
LAYER_1
 10
-444.3898654144809
 20
-3.887576972087714
 30
0.0
  0
VERTEX
  5
1BB
  8
LAYER_1
 10
-444.3898654144809
 20
-9.7629622419893
 30
0.0
  0
VERTEX
  5
1BC
  8
LAYER_1
 10
-452.593389464368
 20
-9.7629622419893
 30
0.0
  0
VERTEX
  5
1BD
  8
LAYER_1
 10
-446.7926219790659
 20
-14.71620616187406
 30
0.0
  0
VERTEX
  5
1BE
  8
LAYER_1
 10
-451.6580056693878
 20
-18.87073092830511
 30
0.0
  0
VERTEX
  5
1BF
  8
LAYER_1
 10
-451.8939210984447
 20
-23.50544167099417
 30
0.0
  0
SEQEND
  5
1C0
  8
LAYER_1
  0
POLYLINE
  5
5A
  8
LAYER_1
 66
     1
 10
0.0
 20
0.0
 30
0.0
 70
     1
  0
VERTEX
  5
1C1
  8
LAYER_1
 10
-393.9426824234297
 20
-30.78851797522591
 30
0.0
  0
VERTEX
  5
1C2
  8
LAYER_1
 10
-394.1785978524862
 20
-26.15380723253699
 30
0.0
  0
VERTEX
  5
1C3
  8
LAYER_1
 10
-388.7508660842118
 20
-26.35525413892353
 30
0.0
  0
VERTEX
  5
1C4
  8
LAYER_1
 10
-383.8854823938893
 20
-30.50977890535481
 30
0.0
  0
VERTEX
  5
1C5
  8
LAYER_1
 10
-378.0847149085873
 20
-25.55653498546988
 30
0.0
  0
VERTEX
  5
1C6
  8
LAYER_1
 10
-378.0847149085873
 20
-32.56147971471316
 30
0.0
  0
VERTEX
  5
1C7
  8
LAYER_1
 10
-371.2040233075845
 20
-32.56147971471316
 30
0.0
  0
VERTEX
  5
1C8
  8
LAYER_1
 10
-367.1992199681038
 20
-35.69627063615147
 30
0.0
  0
VERTEX
  5
1C9
  8
LAYER_1
 10
-370.8878199408741
 20
-38.58355091617622
 30
0.0
  0
VERTEX
  5
1CA
  8
LAYER_1
 10
-384.8138823154442
 20
-38.58355091617622
 30
0.0
  0
SEQEND
  5
1CB
  8
LAYER_1
  0
POLYLINE
  5
5B
  8
LAYER_1
 66
     1
 10
0.0
 20
0.0
 30
0.0
 70
     1
  0
VERTEX
  5
1CC
  8
LAYER_1
 10
-362.8050490890565
 20
-35.69627063615147
 30
0.0
  0
VERTEX
  5
1CD
  8
LAYER_1
 10
-358.8002457495758
 20
-32.56147971471316
 30
0.0
  0
VERTEX
  5
1CE
  8
LAYER_1
 10
-351.9195541485731
 20
-32.56147971471316
 30
0.0
  0
VERTEX
  5
1CF
  8
LAYER_1
 10
-351.9195541485731
 20
-25.55653498546988
 30
0.0
  0
VERTEX
  5
1D0
  8
LAYER_1
 10
-346.1187866632708
 20
-30.50977890535481
 30
0.0
  0
VERTEX
  5
1D1
  8
LAYER_1
 10
-341.2534029729485
 20
-26.35525413892353
 30
0.0
  0
VERTEX
  5
1D2
  8
LAYER_1
 10
-335.8256712046741
 20
-26.15380723253699
 30
0.0
  0
VERTEX
  5
1D3
  8
LAYER_1
 10
-336.0615866337305
 20
-30.78851797522591
 30
0.0
  0
VERTEX
  5
1D4
  8
LAYER_1
 10
-345.1903867417161
 20
-38.58355091617622
 30
0.0
  0
VERTEX
  5
1D5
  8
LAYER_1
 10
-359.1164491162861
 20
-38.58355091617622
 30
0.0
  0
SEQEND
  5
1D6
  8
LAYER_1
  0
POLYLINE
  5
5C
  8
LAYER_1
 66
     1
 10
0.0
 20
0.0
 30
0.0
 70
     1
  0
VERTEX
  5
1D7
  8
LAYER_1
 10
-417.6092024050877
 20
-36.89829153772004
 30
0.0
  0
VERTEX
  5
1D8
  8
LAYER_1
 10
-411.9626482725615
 20
-32.01537690452844
 30
0.0
  0
VERTEX
  5
1D9
  8
LAYER_1
 10
-411.9626482725615
 20
-24.76149395423013
 30
0.0
  0
VERTEX
  5
1DA
  8
LAYER_1
 10
-404.6813075077415
 20
-29.66753446347255
 30
0.0
  0
VERTEX
  5
1DB
  8
LAYER_1
 10
-401.3792826133291
 20
-29.65406736596029
 30
0.0
  0
VERTEX
  5
1DC
  8
LAYER_1
 10
-401.3950539952023
 20
-32.47364852879733
 30
0.0
  0
VERTEX
  5
1DD
  8
LAYER_1
 10
-395.7489934522309
 20
-38.58355091617622
 30
0.0
  0
VERTEX
  5
1DE
  8
LAYER_1
 10
-419.5580976910553
 20
-38.58355091617622
 30
0.0
  0
SEQEND
  5
1DF
  8
LAYER_1
  0
POLYLINE
  5
5D
  8
LAYER_1
 66
     1
 10
0.0
 20
0.0
 30
0.0
 70
     1
  0
VERTEX
  5
1E0
  8
LAYER_1
 10
-352.61470932068
 20
-17.8057416813871
 30
0.0
  0
VERTEX
  5
1E1
  8
LAYER_1
 10
-352.6144997747879
 20
-9.16955193784932
 30
0.0
  0
VERTEX
  5
1E2
  8
LAYER_1
 10
-342.5006169393185
 20
-9.169373007747566
 30
0.0
  0
VERTEX
  5
1E3
  8
LAYER_1
 10
-336.0046942819094
 20
-14.71620616187406
 30
0.0
  0
VERTEX
  5
1E4
  8
LAYER_1
 10
-339.986066233225
 20
-18.11587809504854
 30
0.0
  0
VERTEX
  5
1E5
  8
LAYER_1
 10
-339.9602509705447
 20
-19.97494641524221
 30
0.0
  0
VERTEX
  5
1E6
  8
LAYER_1
 10
-342.1374147119553
 20
-19.95290290233956
 30
0.0
  0
VERTEX
  5
1E7
  8
LAYER_1
 10
-346.1187866632708
 20
-23.35257483551362
 30
0.0
  0
SEQEND
  5
1E8
  8
LAYER_1
  0
POLYLINE
  5
5E
  8
LAYER_1
 66
     1
 10
0.0
 20
0.0
 30
0.0
 70
     1
  0
VERTEX
  5
1E9
  8
LAYER_1
 10
-366.5273518451304
 20
-27.50057218259261
 30
0.0
  0
VERTEX
  5
1EA
  8
LAYER_1
 10
-372.1578620555326
 20
-27.50057218259261
 30
0.0
  0
VERTEX
  5
1EB
  8
LAYER_1
 10
-372.1578620555326
 20
-19.6561655078057
 30
0.0
  0
VERTEX
  5
1EC
  8
LAYER_1
 10
-365.0021345285801
 20
-13.5495836992246
 30
0.0
  0
VERTEX
  5
1ED
  8
LAYER_1
 10
-357.8464070016277
 20
-19.6561655078057
 30
0.0
  0
VERTEX
  5
1EE
  8
LAYER_1
 10
-357.8464070016277
 20
-27.50057218259261
 30
0.0
  0
VERTEX
  5
1EF
  8
LAYER_1
 10
-363.4769172120298
 20
-27.50057218259261
 30
0.0
  0
VERTEX
  5
1F0
  8
LAYER_1
 10
-365.0021345285801
 20
-28.83071911594547
 30
0.0
  0
SEQEND
  5
1F1
  8
LAYER_1
  0
POLYLINE
  5
5F
  8
LAYER_1
 66
     1
 10
0.0
 20
0.0
 30
0.0
 70
     1
  0
VERTEX
  5
1F2
  8
LAYER_1
 10
-387.866854345205
 20
-19.95290290233956
 30
0.0
  0
VERTEX
  5
1F3
  8
LAYER_1
 10
-390.0440180866156
 20
-19.97494641524221
 30
0.0
  0
VERTEX
  5
1F4
  8
LAYER_1
 10
-390.0182028239353
 20
-18.11587809504854
 30
0.0
  0
VERTEX
  5
1F5
  8
LAYER_1
 10
-393.9995747752508
 20
-14.71620616187406
 30
0.0
  0
VERTEX
  5
1F6
  8
LAYER_1
 10
-387.5036521178417
 20
-9.169373007747566
 30
0.0
  0
VERTEX
  5
1F7
  8
LAYER_1
 10
-377.3897692823724
 20
-9.16955193784932
 30
0.0
  0
VERTEX
  5
1F8
  8
LAYER_1
 10
-377.3895597364802
 20
-17.8057416813871
 30
0.0
  0
VERTEX
  5
1F9
  8
LAYER_1
 10
-383.8854823938893
 20
-23.35257483551362
 30
0.0
  0
SEQEND
  5
1FA
  8
LAYER_1
  0
POLYLINE
  5
60
  8
LAYER_1
 66
     1
 10
0.0
 20
0.0
 30
0.0
 70
     1
  0
VERTEX
  5
1FB
  8
LAYER_1
 10
-402.707843111126
 20
-23.30399476460764
 30
0.0
  0
VERTEX
  5
1FC
  8
LAYER_1
 10
-412.1265041070878
 20
-15.26145118224369
 30
0.0
  0
VERTEX
  5
1FD
  8
LAYER_1
 10
-412.1265041070878
 20
-3.887576972087714
 30
0.0
  0
VERTEX
  5
1FE
  8
LAYER_1
 10
-408.4553355669516
 20
-0.4678971035388315
 30
0.0
  0
VERTEX
  5
1FF
  8
LAYER_1
 10
-404.7841670268153
 20
-3.887576972087714
 30
0.0
  0
VERTEX
  5
200
  8
LAYER_1
 10
-404.7841670268153
 20
-9.7629622419893
 30
0.0
  0
VERTEX
  5
201
  8
LAYER_1
 10
-396.5806429769282
 20
-9.7629622419893
 30
0.0
  0
VERTEX
  5
202
  8
LAYER_1
 10
-402.3814104622303
 20
-14.71620616187406
 30
0.0
  0
VERTEX
  5
203
  8
LAYER_1
 10
-397.5160267719084
 20
-18.87073092830511
 30
0.0
  0
VERTEX
  5
204
  8
LAYER_1
 10
-397.2801113428515
 20
-23.50544167099417
 30
0.0
  0
SEQEND
  5
205
  8
LAYER_1
  0
POLYLINE
  5
61
  8
LAYER_1
 66
     1
 10
0.0
 20
0.0
 30
0.0
 70
     1
  0
VERTEX
  5
206
  8
LAYER_1
 10
-332.4882422852518
 20
-18.87073092830511
 30
0.0
  0
VERTEX
  5
207
  8
LAYER_1
 10
-327.6228585949299
 20
-14.71620616187406
 30
0.0
  0
VERTEX
  5
208
  8
LAYER_1
 10
-333.4236260802321
 20
-9.7629622419893
 30
0.0
  0
VERTEX
  5
209
  8
LAYER_1
 10
-325.2201020303449
 20
-9.7629622419893
 30
0.0
  0
VERTEX
  5
20A
  8
LAYER_1
 10
-325.2201020303449
 20
-3.887576972087714
 30
0.0
  0
VERTEX
  5
20B
  8
LAYER_1
 10
-321.5489334902087
 20
-0.4678971035388315
 30
0.0
  0
VERTEX
  5
20C
  8
LAYER_1
 10
-317.8777649500724
 20
-3.887576972087714
 30
0.0
  0
VERTEX
  5
20D
  8
LAYER_1
 10
-317.8777649500724
 20
-15.26145118224369
 30
0.0
  0
VERTEX
  5
20E
  8
LAYER_1
 10
-327.2964259460343
 20
-23.30399476460764
 30
0.0
  0
VERTEX
  5
20F
  8
LAYER_1
 10
-332.7241577143087
 20
-23.50544167099417
 30
0.0
  0
SEQEND
  5
210
  8
LAYER_1
  0
POLYLINE
  5
62
  8
LAYER_1
 66
     1
 10
0.0
 20
0.0
 30
0.0
 70
     1
  0
VERTEX
  5
211
  8
LAYER_1
 10
-424.5870162206481
 20
-11.22742249455624
 30
0.0
  0
VERTEX
  5
212
  8
LAYER_1
 10
-418.054139900139
 20
-16.80901086439442
 30
0.0
  0
VERTEX
  5
213
  8
LAYER_1
 10
-418.0541399001395
 20
-31.47057063424873
 30
0.0
  0
VERTEX
  5
214
  8
LAYER_1
 10
-423.9655616847238
 20
-36.51830166062754
 30
0.0
  0
VERTEX
  5
215
  8
LAYER_1
 10
-424.5870162206481
 20
-37.05746345515567
 30
0.0
  0
VERTEX
  5
216
  8
LAYER_1
 10
-425.2084707565724
 20
-36.51830166062754
 30
0.0
  0
VERTEX
  5
217
  8
LAYER_1
 10
-431.1198925411568
 20
-31.47057063424873
 30
0.0
  0
VERTEX
  5
218
  8
LAYER_1
 10
-431.1198925411572
 20
-16.80901086439442
 30
0.0
  0
SEQEND
  5
219
  8
LAYER_1
  0
POLYLINE
  5
63
  8
LAYER_1
 66
     1
 10
0.0
 20
0.0
 30
0.0
 70
     1
  0
VERTEX
  5
21A
  8
LAYER_1
 10
-271.2175874517134
 20
12.59783383199877
 30
0.0
  0
VERTEX
  5
21B
  8
LAYER_1
 10
-285.6144036426793
 20
12.59586040963691
 30
0.0
  0
VERTEX
  5
21C
  8
LAYER_1
 10
-285.6144036426793
 20
6.720475139735328
 30
0.0
  0
VERTEX
  5
21D
  8
LAYER_1
 10
-289.2855721828155
 20
3.300795271186445
 30
0.0
  0
VERTEX
  5
21E
  8
LAYER_1
 10
-292.9567407229518
 20
6.720475139735328
 30
0.0
  0
VERTEX
  5
21F
  8
LAYER_1
 10
-292.9567407229518
 20
18.0943493498913
 30
0.0
  0
VERTEX
  5
220
  8
LAYER_1
 10
-285.7396766634253
 20
24.25858919214849
 30
0.0
  0
VERTEX
  5
221
  8
LAYER_1
 10
-285.1629400251904
 20
24.1092830052703
 30
0.0
  0
VERTEX
  5
222
  8
LAYER_1
 10
-284.5969045481336
 20
23.94167009025756
 30
0.0
  0
VERTEX
  5
223
  8
LAYER_1
 10
-284.0412931571071
 20
23.75619342690357
 30
0.0
  0
VERTEX
  5
224
  8
LAYER_1
 10
-283.4958287769634
 20
23.55329599500162
 30
0.0
  0
VERTEX
  5
225
  8
LAYER_1
 10
-282.9602343325546
 20
23.33342077434498
 30
0.0
  0
VERTEX
  5
226
  8
LAYER_1
 10
-282.4342327487332
 20
23.09701074472693
 30
0.0
  0
VERTEX
  5
227
  8
LAYER_1
 10
-281.9175469503514
 20
22.84450888594077
 30
0.0
  0
VERTEX
  5
228
  8
LAYER_1
 10
-281.4098998622615
 20
22.57635817777976
 30
0.0
  0
VERTEX
  5
229
  8
LAYER_1
 10
-280.9110144093159
 20
22.2930016000372
 30
0.0
  0
VERTEX
  5
22A
  8
LAYER_1
 10
-280.4206135163669
 20
21.99488213250636
 30
0.0
  0
VERTEX
  5
22B
  8
LAYER_1
 10
-279.9384201082669
 20
21.68244275498053
 30
0.0
  0
VERTEX
  5
22C
  8
LAYER_1
 10
-279.464157109868
 20
21.356126447253
 30
0.0
  0
VERTEX
  5
22D
  8
LAYER_1
 10
-278.9975474460226
 20
21.01637618911704
 30
0.0
  0
VERTEX
  5
22E
  8
LAYER_1
 10
-278.5383140415831
 20
20.66363496036593
 30
0.0
  0
VERTEX
  5
22F
  8
LAYER_1
 10
-278.0861798214018
 20
20.29834574079297
 30
0.0
  0
VERTEX
  5
230
  8
LAYER_1
 10
-277.640867710331
 20
19.92095151019142
 30
0.0
  0
VERTEX
  5
231
  8
LAYER_1
 10
-277.2021006332229
 20
19.53189524835458
 30
0.0
  0
VERTEX
  5
232
  8
LAYER_1
 10
-276.7696015149299
 20
19.13161993507573
 30
0.0
  0
VERTEX
  5
233
  8
LAYER_1
 10
-276.3430932803045
 20
18.72056855014815
 30
0.0
  0
VERTEX
  5
234
  8
LAYER_1
 10
-275.9222988541987
 20
18.29918407336513
 30
0.0
  0
VERTEX
  5
235
  8
LAYER_1
 10
-275.5069411614651
 20
17.86790948451993
 30
0.0
  0
VERTEX
  5
236
  8
LAYER_1
 10
-275.0967431269557
 20
17.42718776340585
 30
0.0
  0
VERTEX
  5
237
  8
LAYER_1
 10
-274.6914276755232
 20
16.97746188981618
 30
0.0
  0
VERTEX
  5
238
  8
LAYER_1
 10
-274.2907177320196
 20
16.51917484354419
 30
0.0
  0
VERTEX
  5
239
  8
LAYER_1
 10
-273.8943362212973
 20
16.05276960438316
 30
0.0
  0
VERTEX
  5
23A
  8
LAYER_1
 10
-273.5020060682087
 20
15.57868915212639
 30
0.0
  0
VERTEX
  5
23B
  8
LAYER_1
 10
-272.7283915343417
 20
14.60927452749871
 30
0.0
  0
VERTEX
  5
23C
  8
LAYER_1
 10
-271.967657529237
 20
13.61447480800742
 30
0.0
  0
SEQEND
  5
23D
  8
LAYER_1
  0
POLYLINE
  5
64
  8
LAYER_1
 66
     1
 10
0.0
 20
0.0
 30
0.0
 70
     1
  0
VERTEX
  5
23E
  8
LAYER_1
 10
-320.546811857946
 20
41.4150386165598
 30
0.0
  0
VERTEX
  5
23F
  8
LAYER_1
 10
-334.2552756049293
 20
41.41644908382381
 30
0.0
  0
VERTEX
  5
240
  8
LAYER_1
 10
-328.609215061958
 20
35.30654669644491
 30
0.0
  0
VERTEX
  5
241
  8
LAYER_1
 10
-328.6249864438312
 20
32.48696553360793
 30
0.0
  0
VERTEX
  5
242
  8
LAYER_1
 10
-325.3229615494188
 20
32.50043263112019
 30
0.0
  0
VERTEX
  5
243
  8
LAYER_1
 10
-318.0416207845986
 20
27.59439212187777
 30
0.0
  0
VERTEX
  5
244
  8
LAYER_1
 10
-318.0416207845986
 20
34.84827507217608
 30
0.0
  0
VERTEX
  5
245
  8
LAYER_1
 10
-312.3950666520726
 20
39.73118970536768
 30
0.0
  0
VERTEX
  5
246
  8
LAYER_1
 10
-312.0961737243015
 20
39.9913623643414
 30
0.0
  0
VERTEX
  5
247
  8
LAYER_1
 10
-312.5407600177498
 20
40.14181250514053
 30
0.0
  0
VERTEX
  5
248
  8
LAYER_1
 10
-312.995797729261
 20
40.28477741863947
 30
0.0
  0
VERTEX
  5
249
  8
LAYER_1
 10
-313.4614352289616
 20
40.42010478568724
 30
0.0
  0
VERTEX
  5
24A
  8
LAYER_1
 10
-313.9378208869783
 20
40.54764228713289
 30
0.0
  0
VERTEX
  5
24B
  8
LAYER_1
 10
-314.425103073438
 20
40.66723760382542
 30
0.0
  0
VERTEX
  5
24C
  8
LAYER_1
 10
-314.923430158467
 20
40.77873841661387
 30
0.0
  0
VERTEX
  5
24D
  8
LAYER_1
 10
-315.4329505121922
 20
40.88199240634726
 30
0.0
  0
VERTEX
  5
24E
  8
LAYER_1
 10
-315.9538125047402
 20
40.97684725387462
 30
0.0
  0
VERTEX
  5
24F
  8
LAYER_1
 10
-316.4861645062377
 20
41.063150640045
 30
0.0
  0
VERTEX
  5
250
  8
LAYER_1
 10
-317.0301548868114
 20
41.14075024570738
 30
0.0
  0
VERTEX
  5
251
  8
LAYER_1
 10
-317.5859320165879
 20
41.20949375171083
 30
0.0
  0
VERTEX
  5
252
  8
LAYER_1
 10
-318.1536442656939
 20
41.26922883890435
 30
0.0
  0
VERTEX
  5
253
  8
LAYER_1
 10
-318.733440004256
 20
41.31980318813699
 30
0.0
  0
VERTEX
  5
254
  8
LAYER_1
 10
-319.3254676024009
 20
41.36106448025775
 30
0.0
  0
VERTEX
  5
255
  8
LAYER_1
 10
-319.9298754302554
 20
41.39286039611568
 30
0.0
  0
SEQEND
  5
256
  8
LAYER_1
  0
POLYLINE
  5
65
  8
LAYER_1
 66
     1
 10
0.0
 20
0.0
 30
0.0
 70
     1
  0
VERTEX
  5
257
  8
LAYER_1
 10
-298.7933524911468
 20
23.46047277039716
 30
0.0
  0
VERTEX
  5
258
  8
LAYER_1
 10
-299.0735259292035
 20
24.3565201334541
 30
0.0
  0
VERTEX
  5
259
  8
LAYER_1
 10
-299.3709297015616
 20
25.27718694532303
 30
0.0
  0
VERTEX
  5
25A
  8
LAYER_1
 10
-299.689928161987
 20
26.21730639822452
 30
0.0
  0
VERTEX
  5
25B
  8
LAYER_1
 10
-300.0348856642454
 20
27.17171168437917
 30
0.0
  0
VERTEX
  5
25C
  8
LAYER_1
 10
-300.4101665621025
 20
28.13523599600757
 30
0.0
  0
VERTEX
  5
25D
  8
LAYER_1
 10
-300.6105421449323
 20
28.61880315894336
 30
0.0
  0
VERTEX
  5
25E
  8
LAYER_1
 10
-300.820135209324
 20
29.1027125253303
 30
0.0
  0
VERTEX
  5
25F
  8
LAYER_1
 10
-301.0394912994982
 20
29.58631824419599
 30
0.0
  0
VERTEX
  5
260
  8
LAYER_1
 10
-301.2691559596756
 20
30.06897446456797
 30
0.0
  0
VERTEX
  5
261
  8
LAYER_1
 10
-301.5096747340771
 20
30.55003533547384
 30
0.0
  0
VERTEX
  5
262
  8
LAYER_1
 10
-301.7615931669232
 20
31.02885500594116
 30
0.0
  0
VERTEX
  5
263
  8
LAYER_1
 10
-302.0254568024347
 20
31.50478762499751
 30
0.0
  0
VERTEX
  5
264
  8
LAYER_1
 10
-302.3018111848324
 20
31.97718734167047
 30
0.0
  0
VERTEX
  5
265
  8
LAYER_1
 10
-302.5912018583368
 20
32.44540830498759
 30
0.0
  0
VERTEX
  5
266
  8
LAYER_1
 10
-302.8941743671689
 20
32.90880466397646
 30
0.0
  0
VERTEX
  5
267
  8
LAYER_1
 10
-303.2112742555493
 20
33.36673056766466
 30
0.0
  0
VERTEX
  5
268
  8
LAYER_1
 10
-303.5430470676987
 20
33.81854016507975
 30
0.0
  0
VERTEX
  5
269
  8
LAYER_1
 10
-303.8900383478377
 20
34.26358760524932
 30
0.0
  0
VERTEX
  5
26A
  8
LAYER_1
 10
-304.2527936401872
 20
34.70122703720092
 30
0.0
  0
VERTEX
  5
26B
  8
LAYER_1
 10
-304.6318584889679
 20
35.13081260996215
 30
0.0
  0
VERTEX
  5
26C
  8
LAYER_1
 10
-305.0277784384004
 20
35.55169847256057
 30
0.0
  0
VERTEX
  5
26D
  8
LAYER_1
 10
-305.4410990327054
 20
35.96323877402375
 30
0.0
  0
VERTEX
  5
26E
  8
LAYER_1
 10
-305.8723658161038
 20
36.36478766337927
 30
0.0
  0
VERTEX
  5
26F
  8
LAYER_1
 10
-306.3221243328162
 20
36.75569928965471
 30
0.0
  0
VERTEX
  5
270
  8
LAYER_1
 10
-306.7909201270634
 20
37.13532780187763
 30
0.0
  0
VERTEX
  5
271
  8
LAYER_1
 10
-307.279298743066
 20
37.50302734907561
 30
0.0
  0
VERTEX
  5
272
  8
LAYER_1
 10
-307.7878057250446
 20
37.85815208027623
 30
0.0
  0
VERTEX
  5
273
  8
LAYER_1
 10
-311.9501291570207
 20
34.30346880189637
 30
0.0
  0
VERTEX
  5
274
  8
LAYER_1
 10
-311.9501291570213
 20
19.64190903204204
 30
0.0
  0
VERTEX
  5
275
  8
LAYER_1
 10
-305.4172528365121
 20
14.06032066220385
 30
0.0
  0
VERTEX
  5
276
  8
LAYER_1
 10
-298.884376516003
 20
19.64190903204204
 30
0.0
  0
SEQEND
  5
277
  8
LAYER_1
  0
POLYLINE
  5
66
  8
LAYER_1
 66
     1
 10
0.0
 20
0.0
 30
0.0
 70
     1
  0
VERTEX
  5
278
  8
LAYER_1
 10
-281.2452921822284
 20
1.416449083823835
 30
0.0
  0
VERTEX
  5
279
  8
LAYER_1
 10
-279.6875507896247
 20
2.727090722002202
 30
0.0
  0
VERTEX
  5
27A
  8
LAYER_1
 10
-279.6875507896247
 20
7.534952877516417
 30
0.0
  0
VERTEX
  5
27B
  8
LAYER_1
 10
-267.6904740341208
 20
7.53472159480728
 30
0.0
  0
VERTEX
  5
27C
  8
LAYER_1
 10
-266.6293563315131
 20
5.983742739555789
 30
0.0
  0
VERTEX
  5
27D
  8
LAYER_1
 10
-265.556601552754
 20
4.440314720623824
 30
0.0
  0
VERTEX
  5
27E
  8
LAYER_1
 10
-265.0137744109772
 20
3.674583672598396
 30
0.0
  0
VERTEX
  5
27F
  8
LAYER_1
 10
-264.4655349815544
 20
2.914522011037726
 30
0.0
  0
VERTEX
  5
280
  8
LAYER_1
 10
-263.9110489249489
 20
2.161390295070108
 30
0.0
  0
VERTEX
  5
281
  8
LAYER_1
 10
-263.3494819016249
 20
1.416449083823835
 30
0.0
  0
VERTEX
  5
282
  8
LAYER_1
 10
-263.9110489249489
 20
0.671507872577543
 30
0.0
  0
VERTEX
  5
283
  8
LAYER_1
 10
-264.4655349815544
 20
-0.0816238433900889
 30
0.0
  0
VERTEX
  5
284
  8
LAYER_1
 10
-265.556601552754
 20
-1.607416552976204
 30
0.0
  0
VERTEX
  5
285
  8
LAYER_1
 10
-266.6293563315131
 20
-3.150844571908175
 30
0.0
  0
VERTEX
  5
286
  8
LAYER_1
 10
-267.6904740341208
 20
-4.701823427159667
 30
0.0
  0
VERTEX
  5
287
  8
LAYER_1
 10
-279.6875507896247
 20
-4.702054709868804
 30
0.0
  0
VERTEX
  5
288
  8
LAYER_1
 10
-279.6875507896247
 20
0.1058074456454108
 30
0.0
  0
SEQEND
  5
289
  8
LAYER_1
  0
POLYLINE
  5
67
  8
LAYER_1
 66
     1
 10
0.0
 20
0.0
 30
0.0
 70
     1
  0
VERTEX
  5
28A
  8
LAYER_1
 10
-313.3612431881554
 20
1.416449083823835
 30
0.0
  0
VERTEX
  5
28B
  8
LAYER_1
 10
-311.9501291570207
 20
2.641896488119897
 30
0.0
  0
VERTEX
  5
28C
  8
LAYER_1
 10
-311.9501291570213
 20
12.21330973011899
 30
0.0
  0
VERTEX
  5
28D
  8
LAYER_1
 10
-305.4172528365121
 20
6.615601081511812
 30
0.0
  0
VERTEX
  5
28E
  8
LAYER_1
 10
-298.884376516003
 20
12.21330973011899
 30
0.0
  0
VERTEX
  5
28F
  8
LAYER_1
 10
-298.8843765160034
 20
2.641896488119897
 30
0.0
  0
VERTEX
  5
290
  8
LAYER_1
 10
-297.4732624848688
 20
1.416449083823835
 30
0.0
  0
VERTEX
  5
291
  8
LAYER_1
 10
-298.8843765160034
 20
0.1910016795277159
 30
0.0
  0
VERTEX
  5
292
  8
LAYER_1
 10
-298.884376516003
 20
-9.38041156247138
 30
0.0
  0
VERTEX
  5
293
  8
LAYER_1
 10
-305.4172528365121
 20
-3.782702913864199
 30
0.0
  0
VERTEX
  5
294
  8
LAYER_1
 10
-311.9501291570213
 20
-9.38041156247138
 30
0.0
  0
VERTEX
  5
295
  8
LAYER_1
 10
-311.9501291570207
 20
0.1910016795277159
 30
0.0
  0
SEQEND
  5
296
  8
LAYER_1
  0
POLYLINE
  5
68
  8
LAYER_1
 66
     1
 10
0.0
 20
0.0
 30
0.0
 70
     1
  0
VERTEX
  5
297
  8
LAYER_1
 10
-285.7396766634253
 20
-21.42569102450088
 30
0.0
  0
VERTEX
  5
298
  8
LAYER_1
 10
-285.1629400251904
 20
-21.27638483762268
 30
0.0
  0
VERTEX
  5
299
  8
LAYER_1
 10
-284.5969045481336
 20
-21.10877192260995
 30
0.0
  0
VERTEX
  5
29A
  8
LAYER_1
 10
-284.0412931571071
 20
-20.92329525925596
 30
0.0
  0
VERTEX
  5
29B
  8
LAYER_1
 10
-283.4958287769634
 20
-20.72039782735401
 30
0.0
  0
VERTEX
  5
29C
  8
LAYER_1
 10
-282.9602343325546
 20
-20.50052260669737
 30
0.0
  0
VERTEX
  5
29D
  8
LAYER_1
 10
-282.4342327487332
 20
-20.26411257707932
 30
0.0
  0
VERTEX
  5
29E
  8
LAYER_1
 10
-281.9175469503514
 20
-20.01161071829315
 30
0.0
  0
VERTEX
  5
29F
  8
LAYER_1
 10
-281.4098998622615
 20
-19.74346001013215
 30
0.0
  0
VERTEX
  5
2A0
  8
LAYER_1
 10
-280.9110144093159
 20
-19.46010343238959
 30
0.0
  0
VERTEX
  5
2A1
  8
LAYER_1
 10
-280.4206135163669
 20
-19.16198396485875
 30
0.0
  0
VERTEX
  5
2A2
  8
LAYER_1
 10
-279.9384201082669
 20
-18.84954458733292
 30
0.0
  0
VERTEX
  5
2A3
  8
LAYER_1
 10
-279.464157109868
 20
-18.52322827960538
 30
0.0
  0
VERTEX
  5
2A4
  8
LAYER_1
 10
-278.9975474460226
 20
-18.18347802146943
 30
0.0
  0
VERTEX
  5
2A5
  8
LAYER_1
 10
-278.5383140415831
 20
-17.83073679271832
 30
0.0
  0
VERTEX
  5
2A6
  8
LAYER_1
 10
-278.0861798214018
 20
-17.46544757314535
 30
0.0
  0
VERTEX
  5
2A7
  8
LAYER_1
 10
-277.640867710331
 20
-17.08805334254381
 30
0.0
  0
VERTEX
  5
2A8
  8
LAYER_1
 10
-277.2021006332229
 20
-16.69899708070697
 30
0.0
  0
VERTEX
  5
2A9
  8
LAYER_1
 10
-276.7696015149299
 20
-16.29872176742812
 30
0.0
  0
VERTEX
  5
2AA
  8
LAYER_1
 10
-276.3430932803045
 20
-15.88767038250054
 30
0.0
  0
VERTEX
  5
2AB
  8
LAYER_1
 10
-275.9222988541987
 20
-15.46628590571751
 30
0.0
  0
VERTEX
  5
2AC
  8
LAYER_1
 10
-275.5069411614651
 20
-15.03501131687232
 30
0.0
  0
VERTEX
  5
2AD
  8
LAYER_1
 10
-275.0967431269557
 20
-14.59428959575824
 30
0.0
  0
VERTEX
  5
2AE
  8
LAYER_1
 10
-274.6914276755232
 20
-14.14456372216857
 30
0.0
  0
VERTEX
  5
2AF
  8
LAYER_1
 10
-274.2907177320196
 20
-13.68627667589658
 30
0.0
  0
VERTEX
  5
2B0
  8
LAYER_1
 10
-273.8943362212973
 20
-13.21987143673555
 30
0.0
  0
VERTEX
  5
2B1
  8
LAYER_1
 10
-273.5020060682087
 20
-12.74579098447877
 30
0.0
  0
VERTEX
  5
2B2
  8
LAYER_1
 10
-272.7283915343417
 20
-11.7763763598511
 30
0.0
  0
VERTEX
  5
2B3
  8
LAYER_1
 10
-271.967657529237
 20
-10.7815766403598
 30
0.0
  0
VERTEX
  5
2B4
  8
LAYER_1
 10
-271.2175874517134
 20
-9.764935664351157
 30
0.0
  0
VERTEX
  5
2B5
  8
LAYER_1
 10
-285.6144036426793
 20
-9.7629622419893
 30
0.0
  0
VERTEX
  5
2B6
  8
LAYER_1
 10
-285.6144036426793
 20
-3.887576972087714
 30
0.0
  0
VERTEX
  5
2B7
  8
LAYER_1
 10
-289.2855721828155
 20
-0.4678971035388315
 30
0.0
  0
VERTEX
  5
2B8
  8
LAYER_1
 10
-292.9567407229518
 20
-3.887576972087714
 30
0.0
  0
VERTEX
  5
2B9
  8
LAYER_1
 10
-292.9567407229518
 20
-15.26145118224369
 30
0.0
  0
SEQEND
  5
2BA
  8
LAYER_1
  0
POLYLINE
  5
69
  8
LAYER_1
 66
     1
 10
0.0
 20
0.0
 30
0.0
 70
     1
  0
VERTEX
  5
2BB
  8
LAYER_1
 10
-347.4850237713994
 20
1.416449083823835
 30
0.0
  0
VERTEX
  5
2BC
  8
LAYER_1
 10
-340.3335768056344
 20
7.534952877516417
 30
0.0
  0
VERTEX
  5
2BD
  8
LAYER_1
 10
-331.1469548833995
 20
7.534952877516417
 30
0.0
  0
VERTEX
  5
2BE
  8
LAYER_1
 10
-331.1469548833995
 20
2.727090722002202
 30
0.0
  0
VERTEX
  5
2BF
  8
LAYER_1
 10
-329.5892134907957
 20
1.416449083823835
 30
0.0
  0
VERTEX
  5
2C0
  8
LAYER_1
 10
-331.1469548833995
 20
0.1058074456454108
 30
0.0
  0
VERTEX
  5
2C1
  8
LAYER_1
 10
-331.1469548833995
 20
-4.702054709868804
 30
0.0
  0
VERTEX
  5
2C2
  8
LAYER_1
 10
-340.3335768056344
 20
-4.702054709868804
 30
0.0
  0
SEQEND
  5
2C3
  8
LAYER_1
  0
POLYLINE
  5
6A
  8
LAYER_1
 66
     1
 10
0.0
 20
0.0
 30
0.0
 70
     1
  0
VERTEX
  5
2C4
  8
LAYER_1
 10
-307.7878057250446
 20
-35.02525391262859
 30
0.0
  0
VERTEX
  5
2C5
  8
LAYER_1
 10
-307.279298743066
 20
-34.67012918142797
 30
0.0
  0
VERTEX
  5
2C6
  8
LAYER_1
 10
-306.7909201270634
 20
-34.30242963422998
 30
0.0
  0
VERTEX
  5
2C7
  8
LAYER_1
 10
-306.3221243328162
 20
-33.92280112200706
 30
0.0
  0
VERTEX
  5
2C8
  8
LAYER_1
 10
-305.8723658161038
 20
-33.53188949573161
 30
0.0
  0
VERTEX
  5
2C9
  8
LAYER_1
 10
-305.4410990327054
 20
-33.13034060637609
 30
0.0
  0
VERTEX
  5
2CA
  8
LAYER_1
 10
-305.0277784384004
 20
-32.7188003049129
 30
0.0
  0
VERTEX
  5
2CB
  8
LAYER_1
 10
-304.6318584889679
 20
-32.29791444231448
 30
0.0
  0
VERTEX
  5
2CC
  8
LAYER_1
 10
-304.2527936401872
 20
-31.86832886955326
 30
0.0
  0
VERTEX
  5
2CD
  8
LAYER_1
 10
-303.8900383478377
 20
-31.43068943760165
 30
0.0
  0
VERTEX
  5
2CE
  8
LAYER_1
 10
-303.5430470676987
 20
-30.98564199743209
 30
0.0
  0
VERTEX
  5
2CF
  8
LAYER_1
 10
-303.2112742555493
 20
-30.533832400017
 30
0.0
  0
VERTEX
  5
2D0
  8
LAYER_1
 10
-302.8941743671689
 20
-30.0759064963288
 30
0.0
  0
VERTEX
  5
2D1
  8
LAYER_1
 10
-302.5912018583368
 20
-29.61251013733992
 30
0.0
  0
VERTEX
  5
2D2
  8
LAYER_1
 10
-302.3018111848324
 20
-29.1442891740228
 30
0.0
  0
VERTEX
  5
2D3
  8
LAYER_1
 10
-302.0254568024347
 20
-28.67188945734985
 30
0.0
  0
VERTEX
  5
2D4
  8
LAYER_1
 10
-301.7615931669232
 20
-28.1959568382935
 30
0.0
  0
VERTEX
  5
2D5
  8
LAYER_1
 10
-301.5096747340771
 20
-27.71713716782618
 30
0.0
  0
VERTEX
  5
2D6
  8
LAYER_1
 10
-301.2691559596756
 20
-27.23607629692032
 30
0.0
  0
VERTEX
  5
2D7
  8
LAYER_1
 10
-301.0394912994982
 20
-26.75342007654833
 30
0.0
  0
VERTEX
  5
2D8
  8
LAYER_1
 10
-300.820135209324
 20
-26.26981435768266
 30
0.0
  0
VERTEX
  5
2D9
  8
LAYER_1
 10
-300.6105421449323
 20
-25.78590499129571
 30
0.0
  0
VERTEX
  5
2DA
  8
LAYER_1
 10
-300.4101665621025
 20
-25.30233782835992
 30
0.0
  0
VERTEX
  5
2DB
  8
LAYER_1
 10
-300.0348856642454
 20
-24.33881351673153
 30
0.0
  0
VERTEX
  5
2DC
  8
LAYER_1
 10
-299.689928161987
 20
-23.38440823057689
 30
0.0
  0
VERTEX
  5
2DD
  8
LAYER_1
 10
-299.3709297015616
 20
-22.4442887776754
 30
0.0
  0
VERTEX
  5
2DE
  8
LAYER_1
 10
-298.7933524911468
 20
-20.62757460274955
 30
0.0
  0
VERTEX
  5
2DF
  8
LAYER_1
 10
-298.884376516003
 20
-16.80901086439442
 30
0.0
  0
VERTEX
  5
2E0
  8
LAYER_1
 10
-305.4172528365121
 20
-11.22742249455624
 30
0.0
  0
VERTEX
  5
2E1
  8
LAYER_1
 10
-311.9501291570213
 20
-16.80901086439442
 30
0.0
  0
VERTEX
  5
2E2
  8
LAYER_1
 10
-311.9501291570207
 20
-31.47057063424873
 30
0.0
  0
SEQEND
  5
2E3
  8
LAYER_1
  0
POLYLINE
  5
6B
  8
LAYER_1
 66
     1
 10
0.0
 20
0.0
 30
0.0
 70
     1
  0
VERTEX
  5
2E4
  8
LAYER_1
 10
-373.6680082887746
 20
1.416449083823835
 30
0.0
  0
VERTEX
  5
2E5
  8
LAYER_1
 10
-373.668008288776
 20
1.419504885490454
 30
0.0
  0
VERTEX
  5
2E6
  8
LAYER_1
 10
-373.6680082887746
 20
1.422950140717518
 30
0.0
  0
VERTEX
  5
2E7
  8
LAYER_1
 10
-373.668008288776
 20
1.426395395944581
 30
0.0
  0
VERTEX
  5
2E8
  8
LAYER_1
 10
-373.6680082887746
 20
1.428118023558824
 30
0.0
  0
VERTEX
  5
2E9
  8
LAYER_1
 10
-379.7428954169117
 20
6.640438065233553
 30
0.0
  0
VERTEX
  5
2EA
  8
LAYER_1
 10
-371.1099951667711
 20
6.640185019857114
 30
0.0
  0
VERTEX
  5
2EB
  8
LAYER_1
 10
-371.1102915094139
 20
14.01177175959882
 30
0.0
  0
VERTEX
  5
2EC
  8
LAYER_1
 10
-365.0021345285801
 20
8.824458562220485
 30
0.0
  0
VERTEX
  5
2ED
  8
LAYER_1
 10
-358.8939775477463
 20
14.01177175959882
 30
0.0
  0
VERTEX
  5
2EE
  8
LAYER_1
 10
-358.8942738903892
 20
6.640185019857114
 30
0.0
  0
VERTEX
  5
2EF
  8
LAYER_1
 10
-350.2613736402486
 20
6.640438065233553
 30
0.0
  0
VERTEX
  5
2F0
  8
LAYER_1
 10
-356.3362607683856
 20
1.428118023558824
 30
0.0
  0
VERTEX
  5
2F1
  8
LAYER_1
 10
-356.3362607683842
 20
1.426395395944581
 30
0.0
  0
VERTEX
  5
2F2
  8
LAYER_1
 10
-356.3362607683856
 20
1.422950140717518
 30
0.0
  0
VERTEX
  5
2F3
  8
LAYER_1
 10
-356.3362607683842
 20
1.419504885490454
 30
0.0
  0
VERTEX
  5
2F4
  8
LAYER_1
 10
-356.3362607683856
 20
1.416449083823835
 30
0.0
  0
VERTEX
  5
2F5
  8
LAYER_1
 10
-356.3362607683842
 20
1.413393282157159
 30
0.0
  0
VERTEX
  5
2F6
  8
LAYER_1
 10
-356.3362607683856
 20
1.409948026930095
 30
0.0
  0
VERTEX
  5
2F7
  8
LAYER_1
 10
-356.3362607683842
 20
1.406502771703089
 30
0.0
  0
VERTEX
  5
2F8
  8
LAYER_1
 10
-356.3362607683856
 20
1.404780144088789
 30
0.0
  0
VERTEX
  5
2F9
  8
LAYER_1
 10
-350.2613736402486
 20
-3.80753989758594
 30
0.0
  0
VERTEX
  5
2FA
  8
LAYER_1
 10
-358.8942738903892
 20
-3.807286852209501
 30
0.0
  0
VERTEX
  5
2FB
  8
LAYER_1
 10
-358.8939775477463
 20
-11.1788735919512
 30
0.0
  0
VERTEX
  5
2FC
  8
LAYER_1
 10
-365.0021345285801
 20
-5.991560394572872
 30
0.0
  0
VERTEX
  5
2FD
  8
LAYER_1
 10
-371.1102915094139
 20
-11.1788735919512
 30
0.0
  0
VERTEX
  5
2FE
  8
LAYER_1
 10
-371.1099951667711
 20
-3.807286852209501
 30
0.0
  0
VERTEX
  5
2FF
  8
LAYER_1
 10
-379.7428954169117
 20
-3.80753989758594
 30
0.0
  0
VERTEX
  5
300
  8
LAYER_1
 10
-373.6680082887746
 20
1.404780144088789
 30
0.0
  0
VERTEX
  5
301
  8
LAYER_1
 10
-373.668008288776
 20
1.406502771703089
 30
0.0
  0
VERTEX
  5
302
  8
LAYER_1
 10
-373.6680082887746
 20
1.409948026930095
 30
0.0
  0
VERTEX
  5
303
  8
LAYER_1
 10
-373.668008288776
 20
1.413393282157159
 30
0.0
  0
SEQEND
  5
304
  8
LAYER_1
  0
POLYLINE
  5
6C
  8
LAYER_1
 66
     1
 10
0.0
 20
0.0
 30
0.0
 70
     1
  0
VERTEX
  5
305
  8
LAYER_1
 10
-320.546811857946
 20
-38.58214044891221
 30
0.0
  0
VERTEX
  5
306
  8
LAYER_1
 10
-334.2552756049293
 20
-38.58355091617622
 30
0.0
  0
VERTEX
  5
307
  8
LAYER_1
 10
-328.609215061958
 20
-32.47364852879733
 30
0.0
  0
VERTEX
  5
308
  8
LAYER_1
 10
-328.6249864438312
 20
-29.65406736596029
 30
0.0
  0
VERTEX
  5
309
  8
LAYER_1
 10
-325.3229615494188
 20
-29.66753446347255
 30
0.0
  0
VERTEX
  5
30A
  8
LAYER_1
 10
-318.0416207845986
 20
-24.76149395423013
 30
0.0
  0
VERTEX
  5
30B
  8
LAYER_1
 10
-318.0416207845986
 20
-32.01537690452844
 30
0.0
  0
VERTEX
  5
30C
  8
LAYER_1
 10
-312.3950666520726
 20
-36.89829153772004
 30
0.0
  0
VERTEX
  5
30D
  8
LAYER_1
 10
-312.0961737243015
 20
-37.15846419669376
 30
0.0
  0
VERTEX
  5
30E
  8
LAYER_1
 10
-312.5407600177498
 20
-37.30891433749289
 30
0.0
  0
VERTEX
  5
30F
  8
LAYER_1
 10
-312.995797729261
 20
-37.45187925099183
 30
0.0
  0
VERTEX
  5
310
  8
LAYER_1
 10
-313.4614352289616
 20
-37.58720661803961
 30
0.0
  0
VERTEX
  5
311
  8
LAYER_1
 10
-313.9378208869783
 20
-37.71474411948525
 30
0.0
  0
VERTEX
  5
312
  8
LAYER_1
 10
-314.425103073438
 20
-37.83433943617779
 30
0.0
  0
VERTEX
  5
313
  8
LAYER_1
 10
-314.923430158467
 20
-37.94584024896623
 30
0.0
  0
VERTEX
  5
314
  8
LAYER_1
 10
-315.4329505121922
 20
-38.04909423869964
 30
0.0
  0
VERTEX
  5
315
  8
LAYER_1
 10
-315.9538125047402
 20
-38.14394908622701
 30
0.0
  0
VERTEX
  5
316
  8
LAYER_1
 10
-316.4861645062377
 20
-38.23025247239738
 30
0.0
  0
VERTEX
  5
317
  8
LAYER_1
 10
-317.0301548868114
 20
-38.30785207805978
 30
0.0
  0
VERTEX
  5
318
  8
LAYER_1
 10
-317.5859320165879
 20
-38.37659558406323
 30
0.0
  0
VERTEX
  5
319
  8
LAYER_1
 10
-318.1536442656939
 20
-38.43633067125675
 30
0.0
  0
VERTEX
  5
31A
  8
LAYER_1
 10
-318.733440004256
 20
-38.48690502048939
 30
0.0
  0
VERTEX
  5
31B
  8
LAYER_1
 10
-319.3254676024009
 20
-38.52816631261017
 30
0.0
  0
VERTEX
  5
31C
  8
LAYER_1
 10
-319.9298754302554
 20
-38.55996222846809
 30
0.0
  0
SEQEND
  5
31D
  8
LAYER_1
  0
POLYLINE
  5
6D
  8
LAYER_1
 66
     1
 10
0.0
 20
0.0
 30
0.0
 70
     1
  0
VERTEX
  5
31E
  8
LAYER_1
 10
-400.4150555663645
 20
1.416449083823835
 30
0.0
  0
VERTEX
  5
31F
  8
LAYER_1
 10
-398.8573141737608
 20
2.727090722002202
 30
0.0
  0
VERTEX
  5
320
  8
LAYER_1
 10
-398.8573141737608
 20
7.534952877516417
 30
0.0
  0
VERTEX
  5
321
  8
LAYER_1
 10
-389.6706922515258
 20
7.534952877516417
 30
0.0
  0
VERTEX
  5
322
  8
LAYER_1
 10
-382.5192452857609
 20
1.416449083823835
 30
0.0
  0
VERTEX
  5
323
  8
LAYER_1
 10
-389.6706922515258
 20
-4.702054709868804
 30
0.0
  0
VERTEX
  5
324
  8
LAYER_1
 10
-398.8573141737608
 20
-4.702054709868804
 30
0.0
  0
VERTEX
  5
325
  8
LAYER_1
 10
-398.8573141737608
 20
0.1058074456454108
 30
0.0
  0
SEQEND
  5
326
  8
LAYER_1
  0
POLYLINE
  5
6E
  8
LAYER_1
 66
     1
 10
0.0
 20
0.0
 30
0.0
 70
     1
  0
VERTEX
  5
327
  8
LAYER_1
 10
-432.5310065722914
 20
1.416449083823835
 30
0.0
  0
VERTEX
  5
328
  8
LAYER_1
 10
-431.1198925411568
 20
2.641896488119897
 30
0.0
  0
VERTEX
  5
329
  8
LAYER_1
 10
-431.1198925411572
 20
12.21330973011899
 30
0.0
  0
VERTEX
  5
32A
  8
LAYER_1
 10
-424.5870162206481
 20
6.615601081511812
 30
0.0
  0
VERTEX
  5
32B
  8
LAYER_1
 10
-418.054139900139
 20
12.21330973011899
 30
0.0
  0
VERTEX
  5
32C
  8
LAYER_1
 10
-418.0541399001395
 20
2.641896488119897
 30
0.0
  0
VERTEX
  5
32D
  8
LAYER_1
 10
-416.6430258690048
 20
1.416449083823835
 30
0.0
  0
VERTEX
  5
32E
  8
LAYER_1
 10
-418.0541399001395
 20
0.1910016795277159
 30
0.0
  0
VERTEX
  5
32F
  8
LAYER_1
 10
-418.054139900139
 20
-9.38041156247138
 30
0.0
  0
VERTEX
  5
330
  8
LAYER_1
 10
-424.5870162206481
 20
-3.782702913864199
 30
0.0
  0
VERTEX
  5
331
  8
LAYER_1
 10
-431.1198925411572
 20
-9.38041156247138
 30
0.0
  0
VERTEX
  5
332
  8
LAYER_1
 10
-431.1198925411568
 20
0.1910016795277159
 30
0.0
  0
SEQEND
  5
333
  8
LAYER_1
  0
POLYLINE
  5
6F
  8
LAYER_1
 66
     1
 10
0.0
 20
0.0
 30
0.0
 70
     1
  0
VERTEX
  5
334
  8
LAYER_1
 10
-466.6547871555354
 20
1.416449083823835
 30
0.0
  0
VERTEX
  5
335
  8
LAYER_1
 10
-459.5033401897704
 20
7.534952877516417
 30
0.0
  0
VERTEX
  5
336
  8
LAYER_1
 10
-450.3167182675355
 20
7.534952877516417
 30
0.0
  0
VERTEX
  5
337
  8
LAYER_1
 10
-450.3167182675355
 20
2.727090722002202
 30
0.0
  0
VERTEX
  5
338
  8
LAYER_1
 10
-448.7589768749317
 20
1.416449083823835
 30
0.0
  0
VERTEX
  5
339
  8
LAYER_1
 10
-450.3167182675355
 20
0.1058074456454108
 30
0.0
  0
VERTEX
  5
33A
  8
LAYER_1
 10
-450.3167182675355
 20
-4.702054709868804
 30
0.0
  0
VERTEX
  5
33B
  8
LAYER_1
 10
-459.5033401897704
 20
-4.702054709868804
 30
0.0
  0
SEQEND
  5
33C
  8
LAYER_1
  0
POLYLINE
  5
70
  8
LAYER_1
 66
     1
 10
0.0
 20
0.0
 30
0.0
 70
     1
  0
VERTEX
  5
33D
  8
LAYER_1
 10
-484.1734396437156
 20
16.38248186687221
 30
0.0
  0
VERTEX
  5
33E
  8
LAYER_1
 10
-477.0161703857635
 20
22.48906367545331
 30
0.0
  0
VERTEX
  5
33F
  8
LAYER_1
 10
-477.0161703857635
 20
30.3334703502403
 30
0.0
  0
VERTEX
  5
340
  8
LAYER_1
 10
-482.6466805961658
 20
30.3334703502403
 30
0.0
  0
VERTEX
  5
341
  8
LAYER_1
 10
-484.1734396437156
 20
31.66361728359311
 30
0.0
  0
VERTEX
  5
342
  8
LAYER_1
 10
-485.7001986912654
 20
30.3334703502403
 30
0.0
  0
VERTEX
  5
343
  8
LAYER_1
 10
-491.3307089016677
 20
30.3334703502403
 30
0.0
  0
VERTEX
  5
344
  8
LAYER_1
 10
-491.3307089016677
 20
22.48906367545331
 30
0.0
  0
SEQEND
  5
345
  8
LAYER_1
  0
POLYLINE
  5
71
  8
LAYER_1
 66
     1
 10
0.0
 20
0.0
 30
0.0
 70
     1
  0
VERTEX
  5
346
  8
LAYER_1
 10
-492.8408551349096
 20
1.416449083823835
 30
0.0
  0
VERTEX
  5
347
  8
LAYER_1
 10
-492.840855134911
 20
1.419504885490454
 30
0.0
  0
VERTEX
  5
348
  8
LAYER_1
 10
-492.8408551349096
 20
1.422950140717518
 30
0.0
  0
VERTEX
  5
349
  8
LAYER_1
 10
-492.840855134911
 20
1.426395395944581
 30
0.0
  0
VERTEX
  5
34A
  8
LAYER_1
 10
-492.8408551349096
 20
1.428118023558824
 30
0.0
  0
VERTEX
  5
34B
  8
LAYER_1
 10
-498.9157422630467
 20
6.640438065233553
 30
0.0
  0
VERTEX
  5
34C
  8
LAYER_1
 10
-490.2828420129061
 20
6.640185019857114
 30
0.0
  0
VERTEX
  5
34D
  8
LAYER_1
 10
-490.2831383555489
 20
14.01177175959882
 30
0.0
  0
VERTEX
  5
34E
  8
LAYER_1
 10
-484.1734396437156
 20
8.824458562220485
 30
0.0
  0
VERTEX
  5
34F
  8
LAYER_1
 10
-478.0637409318823
 20
14.01177175959882
 30
0.0
  0
VERTEX
  5
350
  8
LAYER_1
 10
-478.0640372745251
 20
6.640185019857114
 30
0.0
  0
VERTEX
  5
351
  8
LAYER_1
 10
-469.4311370243846
 20
6.640438065233553
 30
0.0
  0
VERTEX
  5
352
  8
LAYER_1
 10
-475.5060241525216
 20
1.428118023558824
 30
0.0
  0
VERTEX
  5
353
  8
LAYER_1
 10
-475.5060241525202
 20
1.426395395944581
 30
0.0
  0
VERTEX
  5
354
  8
LAYER_1
 10
-475.5060241525216
 20
1.422950140717518
 30
0.0
  0
VERTEX
  5
355
  8
LAYER_1
 10
-475.5060241525202
 20
1.419504885490454
 30
0.0
  0
VERTEX
  5
356
  8
LAYER_1
 10
-475.5060241525216
 20
1.416449083823835
 30
0.0
  0
VERTEX
  5
357
  8
LAYER_1
 10
-475.5060241525202
 20
1.413393282157159
 30
0.0
  0
VERTEX
  5
358
  8
LAYER_1
 10
-475.5060241525216
 20
1.409948026930095
 30
0.0
  0
VERTEX
  5
359
  8
LAYER_1
 10
-475.5060241525202
 20
1.406502771703089
 30
0.0
  0
VERTEX
  5
35A
  8
LAYER_1
 10
-475.5060241525216
 20
1.404780144088789
 30
0.0
  0
VERTEX
  5
35B
  8
LAYER_1
 10
-469.4311370243846
 20
-3.80753989758594
 30
0.0
  0
VERTEX
  5
35C
  8
LAYER_1
 10
-478.0640372745251
 20
-3.807286852209501
 30
0.0
  0
VERTEX
  5
35D
  8
LAYER_1
 10
-478.0637409318823
 20
-11.1788735919512
 30
0.0
  0
VERTEX
  5
35E
  8
LAYER_1
 10
-484.1734396437156
 20
-5.991560394572872
 30
0.0
  0
VERTEX
  5
35F
  8
LAYER_1
 10
-490.2831383555489
 20
-11.1788735919512
 30
0.0
  0
VERTEX
  5
360
  8
LAYER_1
 10
-490.2828420129061
 20
-3.807286852209501
 30
0.0
  0
VERTEX
  5
361
  8
LAYER_1
 10
-498.9157422630467
 20
-3.80753989758594
 30
0.0
  0
VERTEX
  5
362
  8
LAYER_1
 10
-492.8408551349096
 20
1.404780144088789
 30
0.0
  0
VERTEX
  5
363
  8
LAYER_1
 10
-492.840855134911
 20
1.406502771703089
 30
0.0
  0
VERTEX
  5
364
  8
LAYER_1
 10
-492.8408551349096
 20
1.409948026930095
 30
0.0
  0
VERTEX
  5
365
  8
LAYER_1
 10
-492.840855134911
 20
1.413393282157159
 30
0.0
  0
SEQEND
  5
366
  8
LAYER_1
  0
POLYLINE
  5
72
  8
LAYER_1
 66
     1
 10
0.0
 20
0.0
 30
0.0
 70
     1
  0
VERTEX
  5
367
  8
LAYER_1
 10
-484.1734396437156
 20
-28.83071911594547
 30
0.0
  0
VERTEX
  5
368
  8
LAYER_1
 10
-482.6466805961658
 20
-27.50057218259261
 30
0.0
  0
VERTEX
  5
369
  8
LAYER_1
 10
-477.0161703857635
 20
-27.50057218259261
 30
0.0
  0
VERTEX
  5
36A
  8
LAYER_1
 10
-477.0161703857635
 20
-19.6561655078057
 30
0.0
  0
VERTEX
  5
36B
  8
LAYER_1
 10
-484.1734396437156
 20
-13.5495836992246
 30
0.0
  0
VERTEX
  5
36C
  8
LAYER_1
 10
-491.3307089016677
 20
-19.6561655078057
 30
0.0
  0
VERTEX
  5
36D
  8
LAYER_1
 10
-491.3307089016677
 20
-27.50057218259261
 30
0.0
  0
VERTEX
  5
36E
  8
LAYER_1
 10
-485.7001986912654
 20
-27.50057218259261
 30
0.0
  0
SEQEND
  5
36F
  8
LAYER_1
  0
POLYLINE
  5
73
  8
LAYER_1
 66
     1
 10
0.0
 20
0.0
 30
0.0
 70
     1
  0
VERTEX
  5
370
  8
LAYER_1
 10
-519.5879024124995
 20
1.416449083823835
 30
0.0
  0
VERTEX
  5
371
  8
LAYER_1
 10
-518.0301610198958
 20
2.727090722002202
 30
0.0
  0
VERTEX
  5
372
  8
LAYER_1
 10
-518.0301610198958
 20
7.534952877516417
 30
0.0
  0
VERTEX
  5
373
  8
LAYER_1
 10
-508.8435390976609
 20
7.534952877516417
 30
0.0
  0
VERTEX
  5
374
  8
LAYER_1
 10
-501.6920921318959
 20
1.416449083823835
 30
0.0
  0
VERTEX
  5
375
  8
LAYER_1
 10
-508.8435390976609
 20
-4.702054709868804
 30
0.0
  0
VERTEX
  5
376
  8
LAYER_1
 10
-518.0301610198958
 20
-4.702054709868804
 30
0.0
  0
VERTEX
  5
377
  8
LAYER_1
 10
-518.0301610198958
 20
0.1058074456454108
 30
0.0
  0
SEQEND
  5
378
  8
LAYER_1
  0
POLYLINE
  5
74
  8
LAYER_1
 66
     1
 10
0.0
 20
0.0
 30
0.0
 70
     1
  0
VERTEX
  5
379
  8
LAYER_1
 10
-574.4063341193615
 20
33.62141614287356
 30
0.0
  0
VERTEX
  5
37A
  8
LAYER_1
 10
-574.170418690305
 20
28.98670540018463
 30
0.0
  0
VERTEX
  5
37B
  8
LAYER_1
 10
-579.5981504585795
 20
29.18815230657117
 30
0.0
  0
VERTEX
  5
37C
  8
LAYER_1
 10
-584.4635341489019
 20
33.34267707300245
 30
0.0
  0
VERTEX
  5
37D
  8
LAYER_1
 10
-590.264301634204
 20
28.38943315311752
 30
0.0
  0
VERTEX
  5
37E
  8
LAYER_1
 10
-590.264301634204
 20
35.3943778823608
 30
0.0
  0
VERTEX
  5
37F
  8
LAYER_1
 10
-597.1449932352067
 20
35.3943778823608
 30
0.0
  0
VERTEX
  5
380
  8
LAYER_1
 10
-601.1497965746875
 20
38.52916880379911
 30
0.0
  0
VERTEX
  5
381
  8
LAYER_1
 10
-597.4611966019171
 20
41.41644908382381
 30
0.0
  0
VERTEX
  5
382
  8
LAYER_1
 10
-583.535134227347
 20
41.41644908382381
 30
0.0
  0
SEQEND
  5
383
  8
LAYER_1
  0
POLYLINE
  5
75
  8
LAYER_1
 66
     1
 10
0.0
 20
0.0
 30
0.0
 70
     1
  0
VERTEX
  5
384
  8
LAYER_1
 10
-550.7398141377035
 20
39.73118970536768
 30
0.0
  0
VERTEX
  5
385
  8
LAYER_1
 10
-556.3863682702297
 20
34.84827507217608
 30
0.0
  0
VERTEX
  5
386
  8
LAYER_1
 10
-556.3863682702297
 20
27.59439212187777
 30
0.0
  0
VERTEX
  5
387
  8
LAYER_1
 10
-563.6677090350498
 20
32.50043263112019
 30
0.0
  0
VERTEX
  5
388
  8
LAYER_1
 10
-566.9697339294621
 20
32.48696553360793
 30
0.0
  0
VERTEX
  5
389
  8
LAYER_1
 10
-566.953962547589
 20
35.30654669644491
 30
0.0
  0
VERTEX
  5
38A
  8
LAYER_1
 10
-572.6000230905603
 20
41.41644908382381
 30
0.0
  0
VERTEX
  5
38B
  8
LAYER_1
 10
-548.7909188517359
 20
41.41644908382381
 30
0.0
  0
SEQEND
  5
38C
  8
LAYER_1
  0
POLYLINE
  5
76
  8
LAYER_1
 66
     1
 10
0.0
 20
0.0
 30
0.0
 70
     1
  0
VERTEX
  5
38D
  8
LAYER_1
 10
-580.4821621975863
 20
22.78580106998717
 30
0.0
  0
VERTEX
  5
38E
  8
LAYER_1
 10
-578.3049984561757
 20
22.80784458288983
 30
0.0
  0
VERTEX
  5
38F
  8
LAYER_1
 10
-578.330813718856
 20
20.94877626269616
 30
0.0
  0
VERTEX
  5
390
  8
LAYER_1
 10
-574.3494417675404
 20
17.54910432952167
 30
0.0
  0
VERTEX
  5
391
  8
LAYER_1
 10
-580.8453644249495
 20
12.00227117539518
 30
0.0
  0
VERTEX
  5
392
  8
LAYER_1
 10
-590.9592472604188
 20
12.00245010549693
 30
0.0
  0
VERTEX
  5
393
  8
LAYER_1
 10
-590.959456806311
 20
20.63863984903472
 30
0.0
  0
VERTEX
  5
394
  8
LAYER_1
 10
-584.4635341489019
 20
26.18547300316123
 30
0.0
  0
SEQEND
  5
395
  8
LAYER_1
  0
POLYLINE
  5
77
  8
LAYER_1
 66
     1
 10
0.0
 20
0.0
 30
0.0
 70
     1
  0
VERTEX
  5
396
  8
LAYER_1
 10
-565.6411734316653
 20
26.13689293225525
 30
0.0
  0
VERTEX
  5
397
  8
LAYER_1
 10
-556.2225124357034
 20
18.0943493498913
 30
0.0
  0
VERTEX
  5
398
  8
LAYER_1
 10
-556.2225124357034
 20
6.720475139735328
 30
0.0
  0
VERTEX
  5
399
  8
LAYER_1
 10
-559.8936809758396
 20
3.300795271186445
 30
0.0
  0
VERTEX
  5
39A
  8
LAYER_1
 10
-563.5648495159759
 20
6.720475139735328
 30
0.0
  0
VERTEX
  5
39B
  8
LAYER_1
 10
-563.5648495159759
 20
12.59586040963691
 30
0.0
  0
VERTEX
  5
39C
  8
LAYER_1
 10
-571.768373565863
 20
12.59586040963691
 30
0.0
  0
VERTEX
  5
39D
  8
LAYER_1
 10
-565.9676060805609
 20
17.54910432952167
 30
0.0
  0
VERTEX
  5
39E
  8
LAYER_1
 10
-570.8329897708828
 20
21.70362909595272
 30
0.0
  0
VERTEX
  5
39F
  8
LAYER_1
 10
-571.0689051999396
 20
26.33833983864179
 30
0.0
  0
SEQEND
  5
3A0
  8
LAYER_1
  0
POLYLINE
  5
78
  8
LAYER_1
 66
     1
 10
0.0
 20
0.0
 30
0.0
 70
     1
  0
VERTEX
  5
3A1
  8
LAYER_1
 10
-574.4063341193615
 20
-30.78851797522591
 30
0.0
  0
VERTEX
  5
3A2
  8
LAYER_1
 10
-574.170418690305
 20
-26.15380723253699
 30
0.0
  0
VERTEX
  5
3A3
  8
LAYER_1
 10
-579.5981504585795
 20
-26.35525413892353
 30
0.0
  0
VERTEX
  5
3A4
  8
LAYER_1
 10
-584.4635341489019
 20
-30.50977890535481
 30
0.0
  0
VERTEX
  5
3A5
  8
LAYER_1
 10
-590.264301634204
 20
-25.55653498546988
 30
0.0
  0
VERTEX
  5
3A6
  8
LAYER_1
 10
-590.264301634204
 20
-32.56147971471316
 30
0.0
  0
VERTEX
  5
3A7
  8
LAYER_1
 10
-597.1449932352067
 20
-32.56147971471316
 30
0.0
  0
VERTEX
  5
3A8
  8
LAYER_1
 10
-601.1497965746875
 20
-35.69627063615147
 30
0.0
  0
VERTEX
  5
3A9
  8
LAYER_1
 10
-597.4611966019171
 20
-38.58355091617622
 30
0.0
  0
VERTEX
  5
3AA
  8
LAYER_1
 10
-583.535134227347
 20
-38.58355091617622
 30
0.0
  0
SEQEND
  5
3AB
  8
LAYER_1
  0
POLYLINE
  5
79
  8
LAYER_1
 66
     1
 10
0.0
 20
0.0
 30
0.0
 70
     1
  0
VERTEX
  5
3AC
  8
LAYER_1
 10
-550.7398141377035
 20
-36.89829153772004
 30
0.0
  0
VERTEX
  5
3AD
  8
LAYER_1
 10
-556.3863682702297
 20
-32.01537690452844
 30
0.0
  0
VERTEX
  5
3AE
  8
LAYER_1
 10
-556.3863682702297
 20
-24.76149395423013
 30
0.0
  0
VERTEX
  5
3AF
  8
LAYER_1
 10
-563.6677090350498
 20
-29.66753446347255
 30
0.0
  0
VERTEX
  5
3B0
  8
LAYER_1
 10
-566.9697339294621
 20
-29.65406736596029
 30
0.0
  0
VERTEX
  5
3B1
  8
LAYER_1
 10
-566.953962547589
 20
-32.47364852879733
 30
0.0
  0
VERTEX
  5
3B2
  8
LAYER_1
 10
-572.6000230905603
 20
-38.58355091617622
 30
0.0
  0
VERTEX
  5
3B3
  8
LAYER_1
 10
-548.7909188517359
 20
-38.58355091617622
 30
0.0
  0
SEQEND
  5
3B4
  8
LAYER_1
  0
POLYLINE
  5
7A
  8
LAYER_1
 66
     1
 10
0.0
 20
0.0
 30
0.0
 70
     1
  0
VERTEX
  5
3B5
  8
LAYER_1
 10
-580.4821621975863
 20
-19.95290290233956
 30
0.0
  0
VERTEX
  5
3B6
  8
LAYER_1
 10
-578.3049984561757
 20
-19.97494641524221
 30
0.0
  0
VERTEX
  5
3B7
  8
LAYER_1
 10
-578.330813718856
 20
-18.11587809504854
 30
0.0
  0
VERTEX
  5
3B8
  8
LAYER_1
 10
-574.3494417675404
 20
-14.71620616187406
 30
0.0
  0
VERTEX
  5
3B9
  8
LAYER_1
 10
-580.8453644249495
 20
-9.169373007747566
 30
0.0
  0
VERTEX
  5
3BA
  8
LAYER_1
 10
-590.9592472604188
 20
-9.16955193784932
 30
0.0
  0
VERTEX
  5
3BB
  8
LAYER_1
 10
-590.959456806311
 20
-17.8057416813871
 30
0.0
  0
VERTEX
  5
3BC
  8
LAYER_1
 10
-584.4635341489019
 20
-23.35257483551362
 30
0.0
  0
SEQEND
  5
3BD
  8
LAYER_1
  0
POLYLINE
  5
7B
  8
LAYER_1
 66
     1
 10
0.0
 20
0.0
 30
0.0
 70
     1
  0
VERTEX
  5
3BE
  8
LAYER_1
 10
-565.6411734316653
 20
-23.30399476460764
 30
0.0
  0
VERTEX
  5
3BF
  8
LAYER_1
 10
-556.2225124357034
 20
-15.26145118224369
 30
0.0
  0
VERTEX
  5
3C0
  8
LAYER_1
 10
-556.2225124357034
 20
-3.887576972087714
 30
0.0
  0
VERTEX
  5
3C1
  8
LAYER_1
 10
-559.8936809758396
 20
-0.4678971035388315
 30
0.0
  0
VERTEX
  5
3C2
  8
LAYER_1
 10
-563.5648495159759
 20
-3.887576972087714
 30
0.0
  0
VERTEX
  5
3C3
  8
LAYER_1
 10
-563.5648495159759
 20
-9.7629622419893
 30
0.0
  0
VERTEX
  5
3C4
  8
LAYER_1
 10
-571.768373565863
 20
-9.7629622419893
 30
0.0
  0
VERTEX
  5
3C5
  8
LAYER_1
 10
-565.9676060805609
 20
-14.71620616187406
 30
0.0
  0
VERTEX
  5
3C6
  8
LAYER_1
 10
-570.8329897708828
 20
-18.87073092830511
 30
0.0
  0
VERTEX
  5
3C7
  8
LAYER_1
 10
-571.0689051999396
 20
-23.50544167099417
 30
0.0
  0
SEQEND
  5
3C8
  8
LAYER_1
  0
POLYLINE
  5
7C
  8
LAYER_1
 66
     1
 10
0.0
 20
0.0
 30
0.0
 70
     1
  0
VERTEX
  5
3C9
  8
LAYER_1
 10
-567.9339609764268
 20
1.416449083823835
 30
0.0
  0
VERTEX
  5
3CA
  8
LAYER_1
 10
-569.4917023690305
 20
2.727090722002202
 30
0.0
  0
VERTEX
  5
3CB
  8
LAYER_1
 10
-569.4917023690305
 20
7.534952877516417
 30
0.0
  0
VERTEX
  5
3CC
  8
LAYER_1
 10
-578.6783242912654
 20
7.534952877516417
 30
0.0
  0
VERTEX
  5
3CD
  8
LAYER_1
 10
-585.8297712570303
 20
1.416449083823835
 30
0.0
  0
VERTEX
  5
3CE
  8
LAYER_1
 10
-578.6783242912654
 20
-4.702054709868804
 30
0.0
  0
VERTEX
  5
3CF
  8
LAYER_1
 10
-569.4917023690305
 20
-4.702054709868804
 30
0.0
  0
VERTEX
  5
3D0
  8
LAYER_1
 10
-569.4917023690305
 20
0.1058074456454108
 30
0.0
  0
SEQEND
  5
3D1
  8
LAYER_1
  0
POLYLINE
  5
7D
  8
LAYER_1
 66
     1
 10
0.0
 20
0.0
 30
0.0
 70
     1
  0
VERTEX
  5
3D2
  8
LAYER_1
 10
-543.7609316944631
 20
-11.22742249455624
 30
0.0
  0
VERTEX
  5
3D3
  8
LAYER_1
 10
-537.226986746274
 20
-16.80901086439442
 30
0.0
  0
VERTEX
  5
3D4
  8
LAYER_1
 10
-537.2269867462744
 20
-31.47057063424873
 30
0.0
  0
VERTEX
  5
3D5
  8
LAYER_1
 10
-543.1384085308588
 20
-36.51830166062754
 30
0.0
  0
VERTEX
  5
3D6
  8
LAYER_1
 10
-543.7609316944631
 20
-37.05746345515567
 30
0.0
  0
VERTEX
  5
3D7
  8
LAYER_1
 10
-544.3834548580675
 20
-36.51830166062754
 30
0.0
  0
VERTEX
  5
3D8
  8
LAYER_1
 10
-550.2948766426518
 20
-31.47057063424873
 30
0.0
  0
VERTEX
  5
3D9
  8
LAYER_1
 10
-550.2948766426522
 20
-16.80901086439442
 30
0.0
  0
SEQEND
  5
3DA
  8
LAYER_1
  0
POLYLINE
  5
7E
  8
LAYER_1
 66
     1
 10
0.0
 20
0.0
 30
0.0
 70
     1
  0
VERTEX
  5
3DB
  8
LAYER_1
 10
-543.7609316944631
 20
6.615601081511812
 30
0.0
  0
VERTEX
  5
3DC
  8
LAYER_1
 10
-537.226986746274
 20
12.21330973011899
 30
0.0
  0
VERTEX
  5
3DD
  8
LAYER_1
 10
-537.2269867462744
 20
2.641896488119897
 30
0.0
  0
VERTEX
  5
3DE
  8
LAYER_1
 10
-535.8158727151398
 20
1.416449083823835
 30
0.0
  0
VERTEX
  5
3DF
  8
LAYER_1
 10
-537.2269867462744
 20
0.1910016795277159
 30
0.0
  0
VERTEX
  5
3E0
  8
LAYER_1
 10
-537.226986746274
 20
-9.38041156247138
 30
0.0
  0
VERTEX
  5
3E1
  8
LAYER_1
 10
-543.7609316944631
 20
-3.782702913864199
 30
0.0
  0
VERTEX
  5
3E2
  8
LAYER_1
 10
-550.2948766426522
 20
-9.38041156247138
 30
0.0
  0
VERTEX
  5
3E3
  8
LAYER_1
 10
-550.2948766426518
 20
0.1910016795277159
 30
0.0
  0
VERTEX
  5
3E4
  8
LAYER_1
 10
-551.7059906737865
 20
1.416449083823835
 30
0.0
  0
VERTEX
  5
3E5
  8
LAYER_1
 10
-550.2948766426518
 20
2.641896488119897
 30
0.0
  0
VERTEX
  5
3E6
  8
LAYER_1
 10
-550.2948766426522
 20
12.21330973011899
 30
0.0
  0
SEQEND
  5
3E7
  8
LAYER_1
  0
POLYLINE
  5
7F
  8
LAYER_1
 66
     1
 10
0.0
 20
0.0
 30
0.0
 70
     1
  0
VERTEX
  5
3E8
  8
LAYER_1
 10
-543.7609316944631
 20
39.89036162280325
 30
0.0
  0
VERTEX
  5
3E9
  8
LAYER_1
 10
-543.1384085308588
 20
39.35119982827513
 30
0.0
  0
VERTEX
  5
3EA
  8
LAYER_1
 10
-537.2269867462744
 20
34.30346880189637
 30
0.0
  0
VERTEX
  5
3EB
  8
LAYER_1
 10
-537.226986746274
 20
19.64190903204204
 30
0.0
  0
VERTEX
  5
3EC
  8
LAYER_1
 10
-543.7609316944631
 20
14.06032066220385
 30
0.0
  0
VERTEX
  5
3ED
  8
LAYER_1
 10
-550.2948766426522
 20
19.64190903204204
 30
0.0
  0
VERTEX
  5
3EE
  8
LAYER_1
 10
-550.2948766426518
 20
34.30346880189637
 30
0.0
  0
VERTEX
  5
3EF
  8
LAYER_1
 10
-544.3834548580675
 20
39.35119982827513
 30
0.0
  0
SEQEND
  5
3F0
  8
LAYER_1
  0
POLYLINE
  5
80
  8
LAYER_1
 66
     1
 10
0.0
 20
0.0
 30
0.0
 70
     1
  0
VERTEX
  5
3F1
  8
LAYER_1
 10
-751.4676137853834
 20
33.62141614287356
 30
0.0
  0
VERTEX
  5
3F2
  8
LAYER_1
 10
-751.7035292144399
 20
28.98670540018463
 30
0.0
  0
VERTEX
  5
3F3
  8
LAYER_1
 10
-746.2757974461654
 20
29.18815230657117
 30
0.0
  0
VERTEX
  5
3F4
  8
LAYER_1
 10
-741.410413755843
 20
33.34267707300245
 30
0.0
  0
VERTEX
  5
3F5
  8
LAYER_1
 10
-735.6096462705409
 20
28.38943315311752
 30
0.0
  0
VERTEX
  5
3F6
  8
LAYER_1
 10
-735.6096462705409
 20
35.3943778823608
 30
0.0
  0
VERTEX
  5
3F7
  8
LAYER_1
 10
-728.7289546695381
 20
35.3943778823608
 30
0.0
  0
VERTEX
  5
3F8
  8
LAYER_1
 10
-724.7241513300573
 20
38.52916880379911
 30
0.0
  0
VERTEX
  5
3F9
  8
LAYER_1
 10
-728.4127513028278
 20
41.41644908382381
 30
0.0
  0
VERTEX
  5
3FA
  8
LAYER_1
 10
-742.3388136773979
 20
41.41644908382381
 30
0.0
  0
SEQEND
  5
3FB
  8
LAYER_1
  0
POLYLINE
  5
81
  8
LAYER_1
 66
     1
 10
0.0
 20
0.0
 30
0.0
 70
     1
  0
VERTEX
  5
3FC
  8
LAYER_1
 10
-775.1341337670412
 20
39.73118970536768
 30
0.0
  0
VERTEX
  5
3FD
  8
LAYER_1
 10
-769.4875796345152
 20
34.84827507217608
 30
0.0
  0
VERTEX
  5
3FE
  8
LAYER_1
 10
-769.4875796345152
 20
27.59439212187777
 30
0.0
  0
VERTEX
  5
3FF
  8
LAYER_1
 10
-762.2062388696952
 20
32.50043263112019
 30
0.0
  0
VERTEX
  5
400
  8
LAYER_1
 10
-758.9042139752828
 20
32.48696553360793
 30
0.0
  0
VERTEX
  5
401
  8
LAYER_1
 10
-758.9199853571558
 20
35.30654669644491
 30
0.0
  0
VERTEX
  5
402
  8
LAYER_1
 10
-753.2739248141846
 20
41.41644908382381
 30
0.0
  0
VERTEX
  5
403
  8
LAYER_1
 10
-777.0830290530089
 20
41.41644908382381
 30
0.0
  0
SEQEND
  5
404
  8
LAYER_1
  0
POLYLINE
  5
82
  8
LAYER_1
 66
     1
 10
0.0
 20
0.0
 30
0.0
 70
     1
  0
VERTEX
  5
405
  8
LAYER_1
 10
-745.3917857071586
 20
22.78580106998717
 30
0.0
  0
VERTEX
  5
406
  8
LAYER_1
 10
-747.5689494485691
 20
22.80784458288983
 30
0.0
  0
VERTEX
  5
407
  8
LAYER_1
 10
-747.5431341858889
 20
20.94877626269616
 30
0.0
  0
VERTEX
  5
408
  8
LAYER_1
 10
-751.5245061372045
 20
17.54910432952167
 30
0.0
  0
VERTEX
  5
409
  8
LAYER_1
 10
-745.0285834797953
 20
12.00227117539518
 30
0.0
  0
VERTEX
  5
40A
  8
LAYER_1
 10
-734.9147006443261
 20
12.00245010549693
 30
0.0
  0
VERTEX
  5
40B
  8
LAYER_1
 10
-734.9144910984339
 20
20.63863984903472
 30
0.0
  0
VERTEX
  5
40C
  8
LAYER_1
 10
-741.410413755843
 20
26.18547300316123
 30
0.0
  0
SEQEND
  5
40D
  8
LAYER_1
  0
POLYLINE
  5
83
  8
LAYER_1
 66
     1
 10
0.0
 20
0.0
 30
0.0
 70
     1
  0
VERTEX
  5
40E
  8
LAYER_1
 10
-760.2327744730796
 20
26.13689293225525
 30
0.0
  0
VERTEX
  5
40F
  8
LAYER_1
 10
-769.6514354690415
 20
18.0943493498913
 30
0.0
  0
VERTEX
  5
410
  8
LAYER_1
 10
-769.6514354690415
 20
6.720475139735328
 30
0.0
  0
VERTEX
  5
411
  8
LAYER_1
 10
-765.9802669289052
 20
3.300795271186445
 30
0.0
  0
VERTEX
  5
412
  8
LAYER_1
 10
-762.309098388769
 20
6.720475139735328
 30
0.0
  0
VERTEX
  5
413
  8
LAYER_1
 10
-762.309098388769
 20
12.59586040963691
 30
0.0
  0
VERTEX
  5
414
  8
LAYER_1
 10
-754.1055743388819
 20
12.59586040963691
 30
0.0
  0
VERTEX
  5
415
  8
LAYER_1
 10
-759.906341824184
 20
17.54910432952167
 30
0.0
  0
VERTEX
  5
416
  8
LAYER_1
 10
-755.0409581338621
 20
21.70362909595272
 30
0.0
  0
VERTEX
  5
417
  8
LAYER_1
 10
-754.8050427048051
 20
26.33833983864179
 30
0.0
  0
SEQEND
  5
418
  8
LAYER_1
  0
POLYLINE
  5
84
  8
LAYER_1
 66
     1
 10
0.0
 20
0.0
 30
0.0
 70
     1
  0
VERTEX
  5
419
  8
LAYER_1
 10
-812.7562813798202
 20
33.62141614287356
 30
0.0
  0
VERTEX
  5
41A
  8
LAYER_1
 10
-812.5203659507637
 20
28.98670540018463
 30
0.0
  0
VERTEX
  5
41B
  8
LAYER_1
 10
-817.9480977190381
 20
29.18815230657117
 30
0.0
  0
VERTEX
  5
41C
  8
LAYER_1
 10
-822.8134814093605
 20
33.34267707300245
 30
0.0
  0
VERTEX
  5
41D
  8
LAYER_1
 10
-828.6142488946626
 20
28.38943315311752
 30
0.0
  0
VERTEX
  5
41E
  8
LAYER_1
 10
-828.6142488946626
 20
35.3943778823608
 30
0.0
  0
VERTEX
  5
41F
  8
LAYER_1
 10
-835.4949404956654
 20
35.3943778823608
 30
0.0
  0
VERTEX
  5
420
  8
LAYER_1
 10
-839.4997438351461
 20
38.52916880379911
 30
0.0
  0
VERTEX
  5
421
  8
LAYER_1
 10
-835.8111438623757
 20
41.41644908382381
 30
0.0
  0
VERTEX
  5
422
  8
LAYER_1
 10
-821.8850814878058
 20
41.41644908382381
 30
0.0
  0
SEQEND
  5
423
  8
LAYER_1
  0
POLYLINE
  5
85
  8
LAYER_1
 66
     1
 10
0.0
 20
0.0
 30
0.0
 70
     1
  0
VERTEX
  5
424
  8
LAYER_1
 10
-843.8939147141934
 20
38.52916880379911
 30
0.0
  0
VERTEX
  5
425
  8
LAYER_1
 10
-847.8987180536741
 20
35.3943778823608
 30
0.0
  0
VERTEX
  5
426
  8
LAYER_1
 10
-854.7794096546768
 20
35.3943778823608
 30
0.0
  0
VERTEX
  5
427
  8
LAYER_1
 10
-854.7794096546768
 20
28.38943315311752
 30
0.0
  0
VERTEX
  5
428
  8
LAYER_1
 10
-860.580177139979
 20
33.34267707300245
 30
0.0
  0
VERTEX
  5
429
  8
LAYER_1
 10
-865.4455608303014
 20
29.18815230657117
 30
0.0
  0
VERTEX
  5
42A
  8
LAYER_1
 10
-870.8732925985757
 20
28.98670540018463
 30
0.0
  0
VERTEX
  5
42B
  8
LAYER_1
 10
-870.6373771695194
 20
33.62141614287356
 30
0.0
  0
VERTEX
  5
42C
  8
LAYER_1
 10
-861.5085770615337
 20
41.41644908382381
 30
0.0
  0
VERTEX
  5
42D
  8
LAYER_1
 10
-847.5825146869638
 20
41.41644908382381
 30
0.0
  0
SEQEND
  5
42E
  8
LAYER_1
  0
POLYLINE
  5
86
  8
LAYER_1
 66
     1
 10
0.0
 20
0.0
 30
0.0
 70
     1
  0
VERTEX
  5
42F
  8
LAYER_1
 10
-789.0897613981622
 20
39.73118970536768
 30
0.0
  0
VERTEX
  5
430
  8
LAYER_1
 10
-794.7363155306883
 20
34.84827507217608
 30
0.0
  0
VERTEX
  5
431
  8
LAYER_1
 10
-794.7363155306883
 20
27.59439212187777
 30
0.0
  0
VERTEX
  5
432
  8
LAYER_1
 10
-802.0176562955085
 20
32.50043263112019
 30
0.0
  0
VERTEX
  5
433
  8
LAYER_1
 10
-805.3196811899209
 20
32.48696553360793
 30
0.0
  0
VERTEX
  5
434
  8
LAYER_1
 10
-805.3039098080476
 20
35.30654669644491
 30
0.0
  0
VERTEX
  5
435
  8
LAYER_1
 10
-810.9499703510189
 20
41.41644908382381
 30
0.0
  0
VERTEX
  5
436
  8
LAYER_1
 10
-787.1408661121945
 20
41.41644908382381
 30
0.0
  0
SEQEND
  5
437
  8
LAYER_1
  0
POLYLINE
  5
87
  8
LAYER_1
 66
     1
 10
0.0
 20
0.0
 30
0.0
 70
     1
  0
VERTEX
  5
438
  8
LAYER_1
 10
-854.0842544825698
 20
20.63863984903472
 30
0.0
  0
VERTEX
  5
439
  8
LAYER_1
 10
-854.084464028462
 20
12.00245010549693
 30
0.0
  0
VERTEX
  5
43A
  8
LAYER_1
 10
-864.1983468639313
 20
12.00227117539518
 30
0.0
  0
VERTEX
  5
43B
  8
LAYER_1
 10
-870.6942695213404
 20
17.54910432952167
 30
0.0
  0
VERTEX
  5
43C
  8
LAYER_1
 10
-866.7128975700248
 20
20.94877626269616
 30
0.0
  0
VERTEX
  5
43D
  8
LAYER_1
 10
-866.738712832705
 20
22.80784458288983
 30
0.0
  0
VERTEX
  5
43E
  8
LAYER_1
 10
-864.5615490912946
 20
22.78580106998717
 30
0.0
  0
VERTEX
  5
43F
  8
LAYER_1
 10
-860.580177139979
 20
26.18547300316123
 30
0.0
  0
SEQEND
  5
440
  8
LAYER_1
  0
POLYLINE
  5
88
  8
LAYER_1
 66
     1
 10
0.0
 20
0.0
 30
0.0
 70
     1
  0
VERTEX
  5
441
  8
LAYER_1
 10
-840.1716119581195
 20
30.3334703502403
 30
0.0
  0
VERTEX
  5
442
  8
LAYER_1
 10
-834.5411017477172
 20
30.3334703502403
 30
0.0
  0
VERTEX
  5
443
  8
LAYER_1
 10
-834.5411017477172
 20
22.48906367545331
 30
0.0
  0
VERTEX
  5
444
  8
LAYER_1
 10
-841.6968292746698
 20
16.38248186687221
 30
0.0
  0
VERTEX
  5
445
  8
LAYER_1
 10
-848.8525568016223
 20
22.48906367545331
 30
0.0
  0
VERTEX
  5
446
  8
LAYER_1
 10
-848.8525568016223
 20
30.3334703502403
 30
0.0
  0
VERTEX
  5
447
  8
LAYER_1
 10
-843.2220465912201
 20
30.3334703502403
 30
0.0
  0
VERTEX
  5
448
  8
LAYER_1
 10
-841.6968292746698
 20
31.66361728359311
 30
0.0
  0
SEQEND
  5
449
  8
LAYER_1
  0
POLYLINE
  5
89
  8
LAYER_1
 66
     1
 10
0.0
 20
0.0
 30
0.0
 70
     1
  0
VERTEX
  5
44A
  8
LAYER_1
 10
-818.8321094580449
 20
22.78580106998717
 30
0.0
  0
VERTEX
  5
44B
  8
LAYER_1
 10
-816.6549457166344
 20
22.80784458288983
 30
0.0
  0
VERTEX
  5
44C
  8
LAYER_1
 10
-816.6807609793146
 20
20.94877626269616
 30
0.0
  0
VERTEX
  5
44D
  8
LAYER_1
 10
-812.699389027999
 20
17.54910432952167
 30
0.0
  0
VERTEX
  5
44E
  8
LAYER_1
 10
-819.1953116854081
 20
12.00227117539518
 30
0.0
  0
VERTEX
  5
44F
  8
LAYER_1
 10
-829.3091945208774
 20
12.00245010549693
 30
0.0
  0
VERTEX
  5
450
  8
LAYER_1
 10
-829.3094040667696
 20
20.63863984903472
 30
0.0
  0
VERTEX
  5
451
  8
LAYER_1
 10
-822.8134814093605
 20
26.18547300316123
 30
0.0
  0
SEQEND
  5
452
  8
LAYER_1
  0
POLYLINE
  5
8A
  8
LAYER_1
 66
     1
 10
0.0
 20
0.0
 30
0.0
 70
     1
  0
VERTEX
  5
453
  8
LAYER_1
 10
-803.9911206921239
 20
26.13689293225525
 30
0.0
  0
VERTEX
  5
454
  8
LAYER_1
 10
-794.5724596961621
 20
18.0943493498913
 30
0.0
  0
VERTEX
  5
455
  8
LAYER_1
 10
-794.5724596961621
 20
6.720475139735328
 30
0.0
  0
VERTEX
  5
456
  8
LAYER_1
 10
-798.2436282362983
 20
3.300795271186445
 30
0.0
  0
VERTEX
  5
457
  8
LAYER_1
 10
-801.9147967764345
 20
6.720475139735328
 30
0.0
  0
VERTEX
  5
458
  8
LAYER_1
 10
-801.9147967764345
 20
12.59586040963691
 30
0.0
  0
VERTEX
  5
459
  8
LAYER_1
 10
-810.1183208263217
 20
12.59586040963691
 30
0.0
  0
VERTEX
  5
45A
  8
LAYER_1
 10
-804.3175533410196
 20
17.54910432952167
 30
0.0
  0
VERTEX
  5
45B
  8
LAYER_1
 10
-809.1829370313415
 20
21.70362909595272
 30
0.0
  0
VERTEX
  5
45C
  8
LAYER_1
 10
-809.4188524603984
 20
26.33833983864179
 30
0.0
  0
SEQEND
  5
45D
  8
LAYER_1
  0
POLYLINE
  5
8B
  8
LAYER_1
 66
     1
 10
0.0
 20
0.0
 30
0.0
 70
     1
  0
VERTEX
  5
45E
  8
LAYER_1
 10
-874.2107215179981
 20
21.70362909595272
 30
0.0
  0
VERTEX
  5
45F
  8
LAYER_1
 10
-879.0761052083199
 20
17.54910432952167
 30
0.0
  0
VERTEX
  5
460
  8
LAYER_1
 10
-873.2753377230179
 20
12.59586040963691
 30
0.0
  0
VERTEX
  5
461
  8
LAYER_1
 10
-881.4788617729049
 20
12.59586040963691
 30
0.0
  0
VERTEX
  5
462
  8
LAYER_1
 10
-881.4788617729049
 20
6.720475139735328
 30
0.0
  0
VERTEX
  5
463
  8
LAYER_1
 10
-885.1500303130412
 20
3.300795271186445
 30
0.0
  0
VERTEX
  5
464
  8
LAYER_1
 10
-888.8211988531773
 20
6.720475139735328
 30
0.0
  0
VERTEX
  5
465
  8
LAYER_1
 10
-888.8211988531773
 20
18.0943493498913
 30
0.0
  0
VERTEX
  5
466
  8
LAYER_1
 10
-879.4025378572155
 20
26.13689293225525
 30
0.0
  0
VERTEX
  5
467
  8
LAYER_1
 10
-873.9748060889411
 20
26.33833983864179
 30
0.0
  0
SEQEND
  5
468
  8
LAYER_1
  0
POLYLINE
  5
8C
  8
LAYER_1
 66
     1
 10
0.0
 20
0.0
 30
0.0
 70
     1
  0
VERTEX
  5
469
  8
LAYER_1
 10
-782.1119475826017
 20
14.06032066220385
 30
0.0
  0
VERTEX
  5
46A
  8
LAYER_1
 10
-788.6448239031108
 20
19.64190903204204
 30
0.0
  0
VERTEX
  5
46B
  8
LAYER_1
 10
-788.6448239031104
 20
34.30346880189637
 30
0.0
  0
VERTEX
  5
46C
  8
LAYER_1
 10
-782.7334021185261
 20
39.35119982827513
 30
0.0
  0
VERTEX
  5
46D
  8
LAYER_1
 10
-782.1119475826017
 20
39.89036162280325
 30
0.0
  0
VERTEX
  5
46E
  8
LAYER_1
 10
-781.4904930466774
 20
39.35119982827513
 30
0.0
  0
VERTEX
  5
46F
  8
LAYER_1
 10
-775.5790712620931
 20
34.30346880189637
 30
0.0
  0
VERTEX
  5
470
  8
LAYER_1
 10
-775.5790712620926
 20
19.64190903204204
 30
0.0
  0
SEQEND
  5
471
  8
LAYER_1
  0
POLYLINE
  5
8D
  8
LAYER_1
 66
     1
 10
0.0
 20
0.0
 30
0.0
 70
     1
  0
VERTEX
  5
472
  8
LAYER_1
 10
-693.5834345336851
 20
33.62141614287356
 30
0.0
  0
VERTEX
  5
473
  8
LAYER_1
 10
-693.3475191046286
 20
28.98670540018463
 30
0.0
  0
VERTEX
  5
474
  8
LAYER_1
 10
-698.7752508729031
 20
29.18815230657117
 30
0.0
  0
VERTEX
  5
475
  8
LAYER_1
 10
-703.6406345632255
 20
33.34267707300245
 30
0.0
  0
VERTEX
  5
476
  8
LAYER_1
 10
-709.4414020485276
 20
28.38943315311752
 30
0.0
  0
VERTEX
  5
477
  8
LAYER_1
 10
-709.4414020485276
 20
35.3943778823608
 30
0.0
  0
VERTEX
  5
478
  8
LAYER_1
 10
-716.3220936495303
 20
35.3943778823608
 30
0.0
  0
VERTEX
  5
479
  8
LAYER_1
 10
-720.3268969890111
 20
38.52916880379911
 30
0.0
  0
VERTEX
  5
47A
  8
LAYER_1
 10
-716.6382970162407
 20
41.41644908382381
 30
0.0
  0
VERTEX
  5
47B
  8
LAYER_1
 10
-702.7122346416708
 20
41.41644908382381
 30
0.0
  0
SEQEND
  5
47C
  8
LAYER_1
  0
POLYLINE
  5
8E
  8
LAYER_1
 66
     1
 10
0.0
 20
0.0
 30
0.0
 70
     1
  0
VERTEX
  5
47D
  8
LAYER_1
 10
-669.9169145520273
 20
39.73118970536768
 30
0.0
  0
VERTEX
  5
47E
  8
LAYER_1
 10
-675.5634686845533
 20
34.84827507217608
 30
0.0
  0
VERTEX
  5
47F
  8
LAYER_1
 10
-675.5634686845533
 20
27.59439212187777
 30
0.0
  0
VERTEX
  5
480
  8
LAYER_1
 10
-682.8448094493734
 20
32.50043263112019
 30
0.0
  0
VERTEX
  5
481
  8
LAYER_1
 10
-686.1468343437857
 20
32.48696553360793
 30
0.0
  0
VERTEX
  5
482
  8
LAYER_1
 10
-686.1310629619126
 20
35.30654669644491
 30
0.0
  0
VERTEX
  5
483
  8
LAYER_1
 10
-691.7771235048839
 20
41.41644908382381
 30
0.0
  0
VERTEX
  5
484
  8
LAYER_1
 10
-667.9680192660596
 20
41.41644908382381
 30
0.0
  0
SEQEND
  5
485
  8
LAYER_1
  0
POLYLINE
  5
8F
  8
LAYER_1
 66
     1
 10
0.0
 20
0.0
 30
0.0
 70
     1
  0
VERTEX
  5
486
  8
LAYER_1
 10
-699.6592626119099
 20
22.78580106998717
 30
0.0
  0
VERTEX
  5
487
  8
LAYER_1
 10
-697.4820988704994
 20
22.80784458288983
 30
0.0
  0
VERTEX
  5
488
  8
LAYER_1
 10
-697.5079141331796
 20
20.94877626269616
 30
0.0
  0
VERTEX
  5
489
  8
LAYER_1
 10
-693.526542181864
 20
17.54910432952167
 30
0.0
  0
VERTEX
  5
48A
  8
LAYER_1
 10
-700.0224648392732
 20
12.00227117539518
 30
0.0
  0
VERTEX
  5
48B
  8
LAYER_1
 10
-710.1363476747425
 20
12.00245010549693
 30
0.0
  0
VERTEX
  5
48C
  8
LAYER_1
 10
-710.1365572206346
 20
20.63863984903472
 30
0.0
  0
VERTEX
  5
48D
  8
LAYER_1
 10
-703.6406345632255
 20
26.18547300316123
 30
0.0
  0
SEQEND
  5
48E
  8
LAYER_1
  0
POLYLINE
  5
90
  8
LAYER_1
 66
     1
 10
0.0
 20
0.0
 30
0.0
 70
     1
  0
VERTEX
  5
48F
  8
LAYER_1
 10
-684.8182738459889
 20
26.13689293225525
 30
0.0
  0
VERTEX
  5
490
  8
LAYER_1
 10
-675.3996128500271
 20
18.0943493498913
 30
0.0
  0
VERTEX
  5
491
  8
LAYER_1
 10
-675.3996128500271
 20
6.720475139735328
 30
0.0
  0
VERTEX
  5
492
  8
LAYER_1
 10
-679.0707813901633
 20
3.300795271186445
 30
0.0
  0
VERTEX
  5
493
  8
LAYER_1
 10
-682.7419499302996
 20
6.720475139735328
 30
0.0
  0
VERTEX
  5
494
  8
LAYER_1
 10
-682.7419499302996
 20
12.59586040963691
 30
0.0
  0
VERTEX
  5
495
  8
LAYER_1
 10
-690.9454739801866
 20
12.59586040963691
 30
0.0
  0
VERTEX
  5
496
  8
LAYER_1
 10
-685.1447064948845
 20
17.54910432952167
 30
0.0
  0
VERTEX
  5
497
  8
LAYER_1
 10
-690.0100901852064
 20
21.70362909595272
 30
0.0
  0
VERTEX
  5
498
  8
LAYER_1
 10
-690.2460056142634
 20
26.33833983864179
 30
0.0
  0
SEQEND
  5
499
  8
LAYER_1
  0
POLYLINE
  5
91
  8
LAYER_1
 66
     1
 10
0.0
 20
0.0
 30
0.0
 70
     1
  0
VERTEX
  5
49A
  8
LAYER_1
 10
-693.5834345336851
 20
-30.78851797522591
 30
0.0
  0
VERTEX
  5
49B
  8
LAYER_1
 10
-693.3475191046286
 20
-26.15380723253699
 30
0.0
  0
VERTEX
  5
49C
  8
LAYER_1
 10
-698.7752508729031
 20
-26.35525413892353
 30
0.0
  0
VERTEX
  5
49D
  8
LAYER_1
 10
-703.6406345632255
 20
-30.50977890535481
 30
0.0
  0
VERTEX
  5
49E
  8
LAYER_1
 10
-709.4414020485276
 20
-25.55653498546988
 30
0.0
  0
VERTEX
  5
49F
  8
LAYER_1
 10
-709.4414020485276
 20
-32.56147971471316
 30
0.0
  0
VERTEX
  5
4A0
  8
LAYER_1
 10
-716.3220936495303
 20
-32.56147971471316
 30
0.0
  0
VERTEX
  5
4A1
  8
LAYER_1
 10
-720.3268969890111
 20
-35.69627063615147
 30
0.0
  0
VERTEX
  5
4A2
  8
LAYER_1
 10
-716.6382970162407
 20
-38.58355091617622
 30
0.0
  0
VERTEX
  5
4A3
  8
LAYER_1
 10
-702.7122346416708
 20
-38.58355091617622
 30
0.0
  0
SEQEND
  5
4A4
  8
LAYER_1
  0
POLYLINE
  5
92
  8
LAYER_1
 66
     1
 10
0.0
 20
0.0
 30
0.0
 70
     1
  0
VERTEX
  5
4A5
  8
LAYER_1
 10
-669.9169145520273
 20
-36.89829153772004
 30
0.0
  0
VERTEX
  5
4A6
  8
LAYER_1
 10
-675.5634686845533
 20
-32.01537690452844
 30
0.0
  0
VERTEX
  5
4A7
  8
LAYER_1
 10
-675.5634686845533
 20
-24.76149395423013
 30
0.0
  0
VERTEX
  5
4A8
  8
LAYER_1
 10
-682.8448094493734
 20
-29.66753446347255
 30
0.0
  0
VERTEX
  5
4A9
  8
LAYER_1
 10
-686.1468343437857
 20
-29.65406736596029
 30
0.0
  0
VERTEX
  5
4AA
  8
LAYER_1
 10
-686.1310629619126
 20
-32.47364852879733
 30
0.0
  0
VERTEX
  5
4AB
  8
LAYER_1
 10
-691.7771235048839
 20
-38.58355091617622
 30
0.0
  0
VERTEX
  5
4AC
  8
LAYER_1
 10
-667.9680192660596
 20
-38.58355091617622
 30
0.0
  0
SEQEND
  5
4AD
  8
LAYER_1
  0
POLYLINE
  5
93
  8
LAYER_1
 66
     1
 10
0.0
 20
0.0
 30
0.0
 70
     1
  0
VERTEX
  5
4AE
  8
LAYER_1
 10
-699.6592626119099
 20
-19.95290290233956
 30
0.0
  0
VERTEX
  5
4AF
  8
LAYER_1
 10
-697.4820988704994
 20
-19.97494641524221
 30
0.0
  0
VERTEX
  5
4B0
  8
LAYER_1
 10
-697.5079141331796
 20
-18.11587809504854
 30
0.0
  0
VERTEX
  5
4B1
  8
LAYER_1
 10
-693.526542181864
 20
-14.71620616187406
 30
0.0
  0
VERTEX
  5
4B2
  8
LAYER_1
 10
-700.0224648392732
 20
-9.169373007747566
 30
0.0
  0
VERTEX
  5
4B3
  8
LAYER_1
 10
-710.1363476747425
 20
-9.16955193784932
 30
0.0
  0
VERTEX
  5
4B4
  8
LAYER_1
 10
-710.1365572206346
 20
-17.8057416813871
 30
0.0
  0
VERTEX
  5
4B5
  8
LAYER_1
 10
-703.6406345632255
 20
-23.35257483551362
 30
0.0
  0
SEQEND
  5
4B6
  8
LAYER_1
  0
POLYLINE
  5
94
  8
LAYER_1
 66
     1
 10
0.0
 20
0.0
 30
0.0
 70
     1
  0
VERTEX
  5
4B7
  8
LAYER_1
 10
-684.8182738459889
 20
-23.30399476460764
 30
0.0
  0
VERTEX
  5
4B8
  8
LAYER_1
 10
-675.3996128500271
 20
-15.26145118224369
 30
0.0
  0
VERTEX
  5
4B9
  8
LAYER_1
 10
-675.3996128500271
 20
-3.887576972087714
 30
0.0
  0
VERTEX
  5
4BA
  8
LAYER_1
 10
-679.0707813901633
 20
-0.4678971035388315
 30
0.0
  0
VERTEX
  5
4BB
  8
LAYER_1
 10
-682.7419499302996
 20
-3.887576972087714
 30
0.0
  0
VERTEX
  5
4BC
  8
LAYER_1
 10
-682.7419499302996
 20
-9.7629622419893
 30
0.0
  0
VERTEX
  5
4BD
  8
LAYER_1
 10
-690.9454739801866
 20
-9.7629622419893
 30
0.0
  0
VERTEX
  5
4BE
  8
LAYER_1
 10
-685.1447064948845
 20
-14.71620616187406
 30
0.0
  0
VERTEX
  5
4BF
  8
LAYER_1
 10
-690.0100901852064
 20
-18.87073092830511
 30
0.0
  0
VERTEX
  5
4C0
  8
LAYER_1
 10
-690.2460056142634
 20
-23.50544167099417
 30
0.0
  0
SEQEND
  5
4C1
  8
LAYER_1
  0
POLYLINE
  5
95
  8
LAYER_1
 66
     1
 10
0.0
 20
0.0
 30
0.0
 70
     1
  0
VERTEX
  5
4C2
  8
LAYER_1
 10
-751.4676137853834
 20
-30.78851797522591
 30
0.0
  0
VERTEX
  5
4C3
  8
LAYER_1
 10
-751.7035292144399
 20
-26.15380723253699
 30
0.0
  0
VERTEX
  5
4C4
  8
LAYER_1
 10
-746.2757974461654
 20
-26.35525413892353
 30
0.0
  0
VERTEX
  5
4C5
  8
LAYER_1
 10
-741.410413755843
 20
-30.50977890535481
 30
0.0
  0
VERTEX
  5
4C6
  8
LAYER_1
 10
-735.6096462705409
 20
-25.55653498546988
 30
0.0
  0
VERTEX
  5
4C7
  8
LAYER_1
 10
-735.6096462705409
 20
-32.56147971471316
 30
0.0
  0
VERTEX
  5
4C8
  8
LAYER_1
 10
-728.7289546695381
 20
-32.56147971471316
 30
0.0
  0
VERTEX
  5
4C9
  8
LAYER_1
 10
-724.7241513300573
 20
-35.69627063615147
 30
0.0
  0
VERTEX
  5
4CA
  8
LAYER_1
 10
-728.4127513028278
 20
-38.58355091617622
 30
0.0
  0
VERTEX
  5
4CB
  8
LAYER_1
 10
-742.3388136773979
 20
-38.58355091617622
 30
0.0
  0
SEQEND
  5
4CC
  8
LAYER_1
  0
POLYLINE
  5
96
  8
LAYER_1
 66
     1
 10
0.0
 20
0.0
 30
0.0
 70
     1
  0
VERTEX
  5
4CD
  8
LAYER_1
 10
-775.1341337670412
 20
-36.89829153772004
 30
0.0
  0
VERTEX
  5
4CE
  8
LAYER_1
 10
-769.4875796345152
 20
-32.01537690452844
 30
0.0
  0
VERTEX
  5
4CF
  8
LAYER_1
 10
-769.4875796345152
 20
-24.76149395423013
 30
0.0
  0
VERTEX
  5
4D0
  8
LAYER_1
 10
-762.2062388696952
 20
-29.66753446347255
 30
0.0
  0
VERTEX
  5
4D1
  8
LAYER_1
 10
-758.9042139752828
 20
-29.65406736596029
 30
0.0
  0
VERTEX
  5
4D2
  8
LAYER_1
 10
-758.9199853571558
 20
-32.47364852879733
 30
0.0
  0
VERTEX
  5
4D3
  8
LAYER_1
 10
-753.2739248141846
 20
-38.58355091617622
 30
0.0
  0
VERTEX
  5
4D4
  8
LAYER_1
 10
-777.0830290530089
 20
-38.58355091617622
 30
0.0
  0
SEQEND
  5
4D5
  8
LAYER_1
  0
POLYLINE
  5
97
  8
LAYER_1
 66
     1
 10
0.0
 20
0.0
 30
0.0
 70
     1
  0
VERTEX
  5
4D6
  8
LAYER_1
 10
-745.3917857071586
 20
-19.95290290233956
 30
0.0
  0
VERTEX
  5
4D7
  8
LAYER_1
 10
-747.5689494485691
 20
-19.97494641524221
 30
0.0
  0
VERTEX
  5
4D8
  8
LAYER_1
 10
-747.5431341858889
 20
-18.11587809504854
 30
0.0
  0
VERTEX
  5
4D9
  8
LAYER_1
 10
-751.5245061372045
 20
-14.71620616187406
 30
0.0
  0
VERTEX
  5
4DA
  8
LAYER_1
 10
-745.0285834797953
 20
-9.169373007747566
 30
0.0
  0
VERTEX
  5
4DB
  8
LAYER_1
 10
-734.9147006443261
 20
-9.16955193784932
 30
0.0
  0
VERTEX
  5
4DC
  8
LAYER_1
 10
-734.9144910984339
 20
-17.8057416813871
 30
0.0
  0
VERTEX
  5
4DD
  8
LAYER_1
 10
-741.410413755843
 20
-23.35257483551362
 30
0.0
  0
SEQEND
  5
4DE
  8
LAYER_1
  0
POLYLINE
  5
98
  8
LAYER_1
 66
     1
 10
0.0
 20
0.0
 30
0.0
 70
     1
  0
VERTEX
  5
4DF
  8
LAYER_1
 10
-760.2327744730796
 20
-23.30399476460764
 30
0.0
  0
VERTEX
  5
4E0
  8
LAYER_1
 10
-769.6514354690415
 20
-15.26145118224369
 30
0.0
  0
VERTEX
  5
4E1
  8
LAYER_1
 10
-769.6514354690415
 20
-3.887576972087714
 30
0.0
  0
VERTEX
  5
4E2
  8
LAYER_1
 10
-765.9802669289052
 20
-0.4678971035388315
 30
0.0
  0
VERTEX
  5
4E3
  8
LAYER_1
 10
-762.309098388769
 20
-3.887576972087714
 30
0.0
  0
VERTEX
  5
4E4
  8
LAYER_1
 10
-762.309098388769
 20
-9.7629622419893
 30
0.0
  0
VERTEX
  5
4E5
  8
LAYER_1
 10
-754.1055743388819
 20
-9.7629622419893
 30
0.0
  0
VERTEX
  5
4E6
  8
LAYER_1
 10
-759.906341824184
 20
-14.71620616187406
 30
0.0
  0
VERTEX
  5
4E7
  8
LAYER_1
 10
-755.0409581338621
 20
-18.87073092830511
 30
0.0
  0
VERTEX
  5
4E8
  8
LAYER_1
 10
-754.8050427048051
 20
-23.50544167099417
 30
0.0
  0
SEQEND
  5
4E9
  8
LAYER_1
  0
POLYLINE
  5
99
  8
LAYER_1
 66
     1
 10
0.0
 20
0.0
 30
0.0
 70
     1
  0
VERTEX
  5
4EA
  8
LAYER_1
 10
-812.7562813798202
 20
-30.78851797522591
 30
0.0
  0
VERTEX
  5
4EB
  8
LAYER_1
 10
-812.5203659507637
 20
-26.15380723253699
 30
0.0
  0
VERTEX
  5
4EC
  8
LAYER_1
 10
-817.9480977190381
 20
-26.35525413892353
 30
0.0
  0
VERTEX
  5
4ED
  8
LAYER_1
 10
-822.8134814093605
 20
-30.50977890535481
 30
0.0
  0
VERTEX
  5
4EE
  8
LAYER_1
 10
-828.6142488946626
 20
-25.55653498546988
 30
0.0
  0
VERTEX
  5
4EF
  8
LAYER_1
 10
-828.6142488946626
 20
-32.56147971471316
 30
0.0
  0
VERTEX
  5
4F0
  8
LAYER_1
 10
-835.4949404956654
 20
-32.56147971471316
 30
0.0
  0
VERTEX
  5
4F1
  8
LAYER_1
 10
-839.4997438351461
 20
-35.69627063615147
 30
0.0
  0
VERTEX
  5
4F2
  8
LAYER_1
 10
-835.8111438623757
 20
-38.58355091617622
 30
0.0
  0
VERTEX
  5
4F3
  8
LAYER_1
 10
-821.8850814878058
 20
-38.58355091617622
 30
0.0
  0
SEQEND
  5
4F4
  8
LAYER_1
  0
POLYLINE
  5
9A
  8
LAYER_1
 66
     1
 10
0.0
 20
0.0
 30
0.0
 70
     1
  0
VERTEX
  5
4F5
  8
LAYER_1
 10
-843.8939147141934
 20
-35.69627063615147
 30
0.0
  0
VERTEX
  5
4F6
  8
LAYER_1
 10
-847.8987180536741
 20
-32.56147971471316
 30
0.0
  0
VERTEX
  5
4F7
  8
LAYER_1
 10
-854.7794096546768
 20
-32.56147971471316
 30
0.0
  0
VERTEX
  5
4F8
  8
LAYER_1
 10
-854.7794096546768
 20
-25.55653498546988
 30
0.0
  0
VERTEX
  5
4F9
  8
LAYER_1
 10
-860.580177139979
 20
-30.50977890535481
 30
0.0
  0
VERTEX
  5
4FA
  8
LAYER_1
 10
-865.4455608303014
 20
-26.35525413892353
 30
0.0
  0
VERTEX
  5
4FB
  8
LAYER_1
 10
-870.8732925985757
 20
-26.15380723253699
 30
0.0
  0
VERTEX
  5
4FC
  8
LAYER_1
 10
-870.6373771695194
 20
-30.78851797522591
 30
0.0
  0
VERTEX
  5
4FD
  8
LAYER_1
 10
-861.5085770615337
 20
-38.58355091617622
 30
0.0
  0
VERTEX
  5
4FE
  8
LAYER_1
 10
-847.5825146869638
 20
-38.58355091617622
 30
0.0
  0
SEQEND
  5
4FF
  8
LAYER_1
  0
POLYLINE
  5
9B
  8
LAYER_1
 66
     1
 10
0.0
 20
0.0
 30
0.0
 70
     1
  0
VERTEX
  5
500
  8
LAYER_1
 10
-789.0897613981622
 20
-36.89829153772004
 30
0.0
  0
VERTEX
  5
501
  8
LAYER_1
 10
-794.7363155306883
 20
-32.01537690452844
 30
0.0
  0
VERTEX
  5
502
  8
LAYER_1
 10
-794.7363155306883
 20
-24.76149395423013
 30
0.0
  0
VERTEX
  5
503
  8
LAYER_1
 10
-802.0176562955085
 20
-29.66753446347255
 30
0.0
  0
VERTEX
  5
504
  8
LAYER_1
 10
-805.3196811899209
 20
-29.65406736596029
 30
0.0
  0
VERTEX
  5
505
  8
LAYER_1
 10
-805.3039098080476
 20
-32.47364852879733
 30
0.0
  0
VERTEX
  5
506
  8
LAYER_1
 10
-810.9499703510189
 20
-38.58355091617622
 30
0.0
  0
VERTEX
  5
507
  8
LAYER_1
 10
-787.1408661121945
 20
-38.58355091617622
 30
0.0
  0
SEQEND
  5
508
  8
LAYER_1
  0
POLYLINE
  5
9C
  8
LAYER_1
 66
     1
 10
0.0
 20
0.0
 30
0.0
 70
     1
  0
VERTEX
  5
509
  8
LAYER_1
 10
-854.0842544825698
 20
-17.8057416813871
 30
0.0
  0
VERTEX
  5
50A
  8
LAYER_1
 10
-854.084464028462
 20
-9.16955193784932
 30
0.0
  0
VERTEX
  5
50B
  8
LAYER_1
 10
-864.1983468639313
 20
-9.169373007747566
 30
0.0
  0
VERTEX
  5
50C
  8
LAYER_1
 10
-870.6942695213404
 20
-14.71620616187406
 30
0.0
  0
VERTEX
  5
50D
  8
LAYER_1
 10
-866.7128975700248
 20
-18.11587809504854
 30
0.0
  0
VERTEX
  5
50E
  8
LAYER_1
 10
-866.738712832705
 20
-19.97494641524221
 30
0.0
  0
VERTEX
  5
50F
  8
LAYER_1
 10
-864.5615490912946
 20
-19.95290290233956
 30
0.0
  0
VERTEX
  5
510
  8
LAYER_1
 10
-860.580177139979
 20
-23.35257483551362
 30
0.0
  0
SEQEND
  5
511
  8
LAYER_1
  0
POLYLINE
  5
9D
  8
LAYER_1
 66
     1
 10
0.0
 20
0.0
 30
0.0
 70
     1
  0
VERTEX
  5
512
  8
LAYER_1
 10
-840.1716119581195
 20
-27.50057218259261
 30
0.0
  0
VERTEX
  5
513
  8
LAYER_1
 10
-834.5411017477172
 20
-27.50057218259261
 30
0.0
  0
VERTEX
  5
514
  8
LAYER_1
 10
-834.5411017477172
 20
-19.6561655078057
 30
0.0
  0
VERTEX
  5
515
  8
LAYER_1
 10
-841.6968292746698
 20
-13.5495836992246
 30
0.0
  0
VERTEX
  5
516
  8
LAYER_1
 10
-848.8525568016223
 20
-19.6561655078057
 30
0.0
  0
VERTEX
  5
517
  8
LAYER_1
 10
-848.8525568016223
 20
-27.50057218259261
 30
0.0
  0
VERTEX
  5
518
  8
LAYER_1
 10
-843.2220465912201
 20
-27.50057218259261
 30
0.0
  0
VERTEX
  5
519
  8
LAYER_1
 10
-841.6968292746698
 20
-28.83071911594547
 30
0.0
  0
SEQEND
  5
51A
  8
LAYER_1
  0
POLYLINE
  5
9E
  8
LAYER_1
 66
     1
 10
0.0
 20
0.0
 30
0.0
 70
     1
  0
VERTEX
  5
51B
  8
LAYER_1
 10
-818.8321094580449
 20
-19.95290290233956
 30
0.0
  0
VERTEX
  5
51C
  8
LAYER_1
 10
-816.6549457166344
 20
-19.97494641524221
 30
0.0
  0
VERTEX
  5
51D
  8
LAYER_1
 10
-816.6807609793146
 20
-18.11587809504854
 30
0.0
  0
VERTEX
  5
51E
  8
LAYER_1
 10
-812.699389027999
 20
-14.71620616187406
 30
0.0
  0
VERTEX
  5
51F
  8
LAYER_1
 10
-819.1953116854081
 20
-9.169373007747566
 30
0.0
  0
VERTEX
  5
520
  8
LAYER_1
 10
-829.3091945208774
 20
-9.16955193784932
 30
0.0
  0
VERTEX
  5
521
  8
LAYER_1
 10
-829.3094040667696
 20
-17.8057416813871
 30
0.0
  0
VERTEX
  5
522
  8
LAYER_1
 10
-822.8134814093605
 20
-23.35257483551362
 30
0.0
  0
SEQEND
  5
523
  8
LAYER_1
  0
POLYLINE
  5
9F
  8
LAYER_1
 66
     1
 10
0.0
 20
0.0
 30
0.0
 70
     1
  0
VERTEX
  5
524
  8
LAYER_1
 10
-803.9911206921239
 20
-23.30399476460764
 30
0.0
  0
VERTEX
  5
525
  8
LAYER_1
 10
-794.5724596961621
 20
-15.26145118224369
 30
0.0
  0
VERTEX
  5
526
  8
LAYER_1
 10
-794.5724596961621
 20
-3.887576972087714
 30
0.0
  0
VERTEX
  5
527
  8
LAYER_1
 10
-798.2436282362983
 20
-0.4678971035388315
 30
0.0
  0
VERTEX
  5
528
  8
LAYER_1
 10
-801.9147967764345
 20
-3.887576972087714
 30
0.0
  0
VERTEX
  5
529
  8
LAYER_1
 10
-801.9147967764345
 20
-9.7629622419893
 30
0.0
  0
VERTEX
  5
52A
  8
LAYER_1
 10
-810.1183208263217
 20
-9.7629622419893
 30
0.0
  0
VERTEX
  5
52B
  8
LAYER_1
 10
-804.3175533410196
 20
-14.71620616187406
 30
0.0
  0
VERTEX
  5
52C
  8
LAYER_1
 10
-809.1829370313415
 20
-18.87073092830511
 30
0.0
  0
VERTEX
  5
52D
  8
LAYER_1
 10
-809.4188524603984
 20
-23.50544167099417
 30
0.0
  0
SEQEND
  5
52E
  8
LAYER_1
  0
POLYLINE
  5
A0
  8
LAYER_1
 66
     1
 10
0.0
 20
0.0
 30
0.0
 70
     1
  0
VERTEX
  5
52F
  8
LAYER_1
 10
-874.2107215179981
 20
-18.87073092830511
 30
0.0
  0
VERTEX
  5
530
  8
LAYER_1
 10
-879.0761052083199
 20
-14.71620616187406
 30
0.0
  0
VERTEX
  5
531
  8
LAYER_1
 10
-873.2753377230179
 20
-9.7629622419893
 30
0.0
  0
VERTEX
  5
532
  8
LAYER_1
 10
-881.4788617729049
 20
-9.7629622419893
 30
0.0
  0
VERTEX
  5
533
  8
LAYER_1
 10
-881.4788617729049
 20
-3.887576972087714
 30
0.0
  0
VERTEX
  5
534
  8
LAYER_1
 10
-885.1500303130412
 20
-0.4678971035388315
 30
0.0
  0
VERTEX
  5
535
  8
LAYER_1
 10
-888.8211988531773
 20
-3.887576972087714
 30
0.0
  0
VERTEX
  5
536
  8
LAYER_1
 10
-888.8211988531773
 20
-15.26145118224369
 30
0.0
  0
VERTEX
  5
537
  8
LAYER_1
 10
-879.4025378572155
 20
-23.30399476460764
 30
0.0
  0
VERTEX
  5
538
  8
LAYER_1
 10
-873.9748060889411
 20
-23.50544167099417
 30
0.0
  0
SEQEND
  5
539
  8
LAYER_1
  0
POLYLINE
  5
A1
  8
LAYER_1
 66
     1
 10
0.0
 20
0.0
 30
0.0
 70
     1
  0
VERTEX
  5
53A
  8
LAYER_1
 10
-782.1119475826017
 20
-11.22742249455624
 30
0.0
  0
VERTEX
  5
53B
  8
LAYER_1
 10
-788.6448239031108
 20
-16.80901086439442
 30
0.0
  0
VERTEX
  5
53C
  8
LAYER_1
 10
-788.6448239031104
 20
-31.47057063424873
 30
0.0
  0
VERTEX
  5
53D
  8
LAYER_1
 10
-782.7334021185261
 20
-36.51830166062754
 30
0.0
  0
VERTEX
  5
53E
  8
LAYER_1
 10
-782.1119475826017
 20
-37.05746345515567
 30
0.0
  0
VERTEX
  5
53F
  8
LAYER_1
 10
-781.4904930466774
 20
-36.51830166062754
 30
0.0
  0
VERTEX
  5
540
  8
LAYER_1
 10
-775.5790712620931
 20
-31.47057063424873
 30
0.0
  0
VERTEX
  5
541
  8
LAYER_1
 10
-775.5790712620926
 20
-16.80901086439442
 30
0.0
  0
SEQEND
  5
542
  8
LAYER_1
  0
POLYLINE
  5
A2
  8
LAYER_1
 66
     1
 10
0.0
 20
0.0
 30
0.0
 70
     1
  0
VERTEX
  5
543
  8
LAYER_1
 10
-935.4813763515365
 20
12.59783383199877
 30
0.0
  0
VERTEX
  5
544
  8
LAYER_1
 10
-921.0845601605705
 20
12.59586040963691
 30
0.0
  0
VERTEX
  5
545
  8
LAYER_1
 10
-921.0845601605705
 20
6.720475139735328
 30
0.0
  0
VERTEX
  5
546
  8
LAYER_1
 10
-917.4133916204343
 20
3.300795271186445
 30
0.0
  0
VERTEX
  5
547
  8
LAYER_1
 10
-913.7422230802979
 20
6.720475139735328
 30
0.0
  0
VERTEX
  5
548
  8
LAYER_1
 10
-913.7422230802979
 20
18.0943493498913
 30
0.0
  0
VERTEX
  5
549
  8
LAYER_1
 10
-920.9592871398246
 20
24.25858919214849
 30
0.0
  0
VERTEX
  5
54A
  8
LAYER_1
 10
-921.5360237780594
 20
24.1092830052703
 30
0.0
  0
VERTEX
  5
54B
  8
LAYER_1
 10
-922.1020592551162
 20
23.94167009025756
 30
0.0
  0
VERTEX
  5
54C
  8
LAYER_1
 10
-922.6576706461426
 20
23.75619342690357
 30
0.0
  0
VERTEX
  5
54D
  8
LAYER_1
 10
-923.2031350262864
 20
23.55329599500162
 30
0.0
  0
VERTEX
  5
54E
  8
LAYER_1
 10
-923.7387294706953
 20
23.33342077434498
 30
0.0
  0
VERTEX
  5
54F
  8
LAYER_1
 10
-924.2647310545167
 20
23.09701074472693
 30
0.0
  0
VERTEX
  5
550
  8
LAYER_1
 10
-924.7814168528984
 20
22.84450888594077
 30
0.0
  0
VERTEX
  5
551
  8
LAYER_1
 10
-925.2890639409883
 20
22.57635817777976
 30
0.0
  0
VERTEX
  5
552
  8
LAYER_1
 10
-925.7879493939339
 20
22.2930016000372
 30
0.0
  0
VERTEX
  5
553
  8
LAYER_1
 10
-926.2783502868829
 20
21.99488213250636
 30
0.0
  0
VERTEX
  5
554
  8
LAYER_1
 10
-926.760543694983
 20
21.68244275498053
 30
0.0
  0
VERTEX
  5
555
  8
LAYER_1
 10
-927.2348066933819
 20
21.356126447253
 30
0.0
  0
VERTEX
  5
556
  8
LAYER_1
 10
-927.7014163572272
 20
21.01637618911704
 30
0.0
  0
VERTEX
  5
557
  8
LAYER_1
 10
-928.1606497616667
 20
20.66363496036593
 30
0.0
  0
VERTEX
  5
558
  8
LAYER_1
 10
-928.6127839818481
 20
20.29834574079297
 30
0.0
  0
VERTEX
  5
559
  8
LAYER_1
 10
-929.058096092919
 20
19.92095151019142
 30
0.0
  0
VERTEX
  5
55A
  8
LAYER_1
 10
-929.4968631700269
 20
19.53189524835458
 30
0.0
  0
VERTEX
  5
55B
  8
LAYER_1
 10
-929.9293622883199
 20
19.13161993507573
 30
0.0
  0
VERTEX
  5
55C
  8
LAYER_1
 10
-930.3558705229453
 20
18.72056855014815
 30
0.0
  0
VERTEX
  5
55D
  8
LAYER_1
 10
-930.7766649490511
 20
18.29918407336513
 30
0.0
  0
VERTEX
  5
55E
  8
LAYER_1
 10
-931.1920226417848
 20
17.86790948451993
 30
0.0
  0
VERTEX
  5
55F
  8
LAYER_1
 10
-931.6022206762941
 20
17.42718776340585
 30
0.0
  0
VERTEX
  5
560
  8
LAYER_1
 10
-932.0075361277268
 20
16.97746188981618
 30
0.0
  0
VERTEX
  5
561
  8
LAYER_1
 10
-932.4082460712303
 20
16.51917484354419
 30
0.0
  0
VERTEX
  5
562
  8
LAYER_1
 10
-932.8046275819527
 20
16.05276960438316
 30
0.0
  0
VERTEX
  5
563
  8
LAYER_1
 10
-933.1969577350412
 20
15.57868915212639
 30
0.0
  0
VERTEX
  5
564
  8
LAYER_1
 10
-933.9705722689082
 20
14.60927452749871
 30
0.0
  0
VERTEX
  5
565
  8
LAYER_1
 10
-934.7313062740128
 20
13.61447480800742
 30
0.0
  0
SEQEND
  5
566
  8
LAYER_1
  0
POLYLINE
  5
A3
  8
LAYER_1
 66
     1
 10
0.0
 20
0.0
 30
0.0
 70
     1
  0
VERTEX
  5
567
  8
LAYER_1
 10
-886.1521519453038
 20
41.4150386165598
 30
0.0
  0
VERTEX
  5
568
  8
LAYER_1
 10
-872.4436881983206
 20
41.41644908382381
 30
0.0
  0
VERTEX
  5
569
  8
LAYER_1
 10
-878.0897487412918
 20
35.30654669644491
 30
0.0
  0
VERTEX
  5
56A
  8
LAYER_1
 10
-878.0739773594187
 20
32.48696553360793
 30
0.0
  0
VERTEX
  5
56B
  8
LAYER_1
 10
-881.3760022538311
 20
32.50043263112019
 30
0.0
  0
VERTEX
  5
56C
  8
LAYER_1
 10
-888.6573430186511
 20
27.59439212187777
 30
0.0
  0
VERTEX
  5
56D
  8
LAYER_1
 10
-888.6573430186511
 20
34.84827507217608
 30
0.0
  0
VERTEX
  5
56E
  8
LAYER_1
 10
-894.3038971511772
 20
39.73118970536768
 30
0.0
  0
VERTEX
  5
56F
  8
LAYER_1
 10
-894.6027900789484
 20
39.9913623643414
 30
0.0
  0
VERTEX
  5
570
  8
LAYER_1
 10
-894.1582037855001
 20
40.14181250514053
 30
0.0
  0
VERTEX
  5
571
  8
LAYER_1
 10
-893.7031660739889
 20
40.28477741863947
 30
0.0
  0
VERTEX
  5
572
  8
LAYER_1
 10
-893.2375285742883
 20
40.42010478568724
 30
0.0
  0
VERTEX
  5
573
  8
LAYER_1
 10
-892.7611429162715
 20
40.54764228713289
 30
0.0
  0
VERTEX
  5
574
  8
LAYER_1
 10
-892.273860729812
 20
40.66723760382542
 30
0.0
  0
VERTEX
  5
575
  8
LAYER_1
 10
-891.775533644783
 20
40.77873841661387
 30
0.0
  0
VERTEX
  5
576
  8
LAYER_1
 10
-891.2660132910577
 20
40.88199240634726
 30
0.0
  0
VERTEX
  5
577
  8
LAYER_1
 10
-890.7451512985097
 20
40.97684725387462
 30
0.0
  0
VERTEX
  5
578
  8
LAYER_1
 10
-890.2127992970121
 20
41.063150640045
 30
0.0
  0
VERTEX
  5
579
  8
LAYER_1
 10
-889.6688089164385
 20
41.14075024570738
 30
0.0
  0
VERTEX
  5
57A
  8
LAYER_1
 10
-889.1130317866618
 20
41.20949375171083
 30
0.0
  0
VERTEX
  5
57B
  8
LAYER_1
 10
-888.545319537556
 20
41.26922883890435
 30
0.0
  0
VERTEX
  5
57C
  8
LAYER_1
 10
-887.9655237989937
 20
41.31980318813699
 30
0.0
  0
VERTEX
  5
57D
  8
LAYER_1
 10
-887.3734962008489
 20
41.36106448025775
 30
0.0
  0
VERTEX
  5
57E
  8
LAYER_1
 10
-886.7690883729942
 20
41.39286039611568
 30
0.0
  0
SEQEND
  5
57F
  8
LAYER_1
  0
POLYLINE
  5
A4
  8
LAYER_1
 66
     1
 10
0.0
 20
0.0
 30
0.0
 70
     1
  0
VERTEX
  5
580
  8
LAYER_1
 10
-907.905611312103
 20
23.46047277039716
 30
0.0
  0
VERTEX
  5
581
  8
LAYER_1
 10
-907.6254378740464
 20
24.3565201334541
 30
0.0
  0
VERTEX
  5
582
  8
LAYER_1
 10
-907.3280341016882
 20
25.27718694532303
 30
0.0
  0
VERTEX
  5
583
  8
LAYER_1
 10
-907.0090356412629
 20
26.21730639822452
 30
0.0
  0
VERTEX
  5
584
  8
LAYER_1
 10
-906.6640781390045
 20
27.17171168437917
 30
0.0
  0
VERTEX
  5
585
  8
LAYER_1
 10
-906.2887972411474
 20
28.13523599600757
 30
0.0
  0
VERTEX
  5
586
  8
LAYER_1
 10
-906.0884216583175
 20
28.61880315894336
 30
0.0
  0
VERTEX
  5
587
  8
LAYER_1
 10
-905.8788285939258
 20
29.1027125253303
 30
0.0
  0
VERTEX
  5
588
  8
LAYER_1
 10
-905.6594725037517
 20
29.58631824419599
 30
0.0
  0
VERTEX
  5
589
  8
LAYER_1
 10
-905.4298078435742
 20
30.06897446456797
 30
0.0
  0
VERTEX
  5
58A
  8
LAYER_1
 10
-905.1892890691728
 20
30.55003533547384
 30
0.0
  0
VERTEX
  5
58B
  8
LAYER_1
 10
-904.9373706363266
 20
31.02885500594116
 30
0.0
  0
VERTEX
  5
58C
  8
LAYER_1
 10
-904.673507000815
 20
31.50478762499751
 30
0.0
  0
VERTEX
  5
58D
  8
LAYER_1
 10
-904.3971526184173
 20
31.97718734167047
 30
0.0
  0
VERTEX
  5
58E
  8
LAYER_1
 10
-904.1077619449128
 20
32.44540830498759
 30
0.0
  0
VERTEX
  5
58F
  8
LAYER_1
 10
-903.8047894360808
 20
32.90880466397646
 30
0.0
  0
VERTEX
  5
590
  8
LAYER_1
 10
-903.4876895477005
 20
33.36673056766466
 30
0.0
  0
VERTEX
  5
591
  8
LAYER_1
 10
-903.155916735551
 20
33.81854016507975
 30
0.0
  0
VERTEX
  5
592
  8
LAYER_1
 10
-902.808925455412
 20
34.26358760524932
 30
0.0
  0
VERTEX
  5
593
  8
LAYER_1
 10
-902.4461701630626
 20
34.70122703720092
 30
0.0
  0
VERTEX
  5
594
  8
LAYER_1
 10
-902.0671053142819
 20
35.13081260996215
 30
0.0
  0
VERTEX
  5
595
  8
LAYER_1
 10
-901.6711853648495
 20
35.55169847256057
 30
0.0
  0
VERTEX
  5
596
  8
LAYER_1
 10
-901.2578647705445
 20
35.96323877402375
 30
0.0
  0
VERTEX
  5
597
  8
LAYER_1
 10
-900.8265979871461
 20
36.36478766337927
 30
0.0
  0
VERTEX
  5
598
  8
LAYER_1
 10
-900.3768394704337
 20
36.75569928965471
 30
0.0
  0
VERTEX
  5
599
  8
LAYER_1
 10
-899.9080436761866
 20
37.13532780187763
 30
0.0
  0
VERTEX
  5
59A
  8
LAYER_1
 10
-899.419665060184
 20
37.50302734907561
 30
0.0
  0
VERTEX
  5
59B
  8
LAYER_1
 10
-898.9111580782053
 20
37.85815208027623
 30
0.0
  0
VERTEX
  5
59C
  8
LAYER_1
 10
-894.748834646229
 20
34.30346880189637
 30
0.0
  0
VERTEX
  5
59D
  8
LAYER_1
 10
-894.7488346462286
 20
19.64190903204204
 30
0.0
  0
VERTEX
  5
59E
  8
LAYER_1
 10
-901.2817109667377
 20
14.06032066220385
 30
0.0
  0
VERTEX
  5
59F
  8
LAYER_1
 10
-907.8145872872468
 20
19.64190903204204
 30
0.0
  0
SEQEND
  5
5A0
  8
LAYER_1
  0
POLYLINE
  5
A5
  8
LAYER_1
 66
     1
 10
0.0
 20
0.0
 30
0.0
 70
     1
  0
VERTEX
  5
5A1
  8
LAYER_1
 10
-925.4536716210214
 20
1.416449083823835
 30
0.0
  0
VERTEX
  5
5A2
  8
LAYER_1
 10
-927.0114130136251
 20
2.727090722002202
 30
0.0
  0
VERTEX
  5
5A3
  8
LAYER_1
 10
-927.0114130136251
 20
7.534952877516417
 30
0.0
  0
VERTEX
  5
5A4
  8
LAYER_1
 10
-939.008489769129
 20
7.53472159480728
 30
0.0
  0
VERTEX
  5
5A5
  8
LAYER_1
 10
-940.0696074717367
 20
5.983742739555789
 30
0.0
  0
VERTEX
  5
5A6
  8
LAYER_1
 10
-941.1423622504958
 20
4.440314720623824
 30
0.0
  0
VERTEX
  5
5A7
  8
LAYER_1
 10
-941.6851893922724
 20
3.674583672598396
 30
0.0
  0
VERTEX
  5
5A8
  8
LAYER_1
 10
-942.2334288216954
 20
2.914522011037726
 30
0.0
  0
VERTEX
  5
5A9
  8
LAYER_1
 10
-942.7879148783009
 20
2.161390295070108
 30
0.0
  0
VERTEX
  5
5AA
  8
LAYER_1
 10
-943.3494819016249
 20
1.416449083823835
 30
0.0
  0
VERTEX
  5
5AB
  8
LAYER_1
 10
-942.7879148783009
 20
0.671507872577543
 30
0.0
  0
VERTEX
  5
5AC
  8
LAYER_1
 10
-942.2334288216954
 20
-0.0816238433900889
 30
0.0
  0
VERTEX
  5
5AD
  8
LAYER_1
 10
-941.1423622504958
 20
-1.607416552976204
 30
0.0
  0
VERTEX
  5
5AE
  8
LAYER_1
 10
-940.0696074717367
 20
-3.150844571908175
 30
0.0
  0
VERTEX
  5
5AF
  8
LAYER_1
 10
-939.008489769129
 20
-4.701823427159667
 30
0.0
  0
VERTEX
  5
5B0
  8
LAYER_1
 10
-927.0114130136251
 20
-4.702054709868804
 30
0.0
  0
VERTEX
  5
5B1
  8
LAYER_1
 10
-927.0114130136251
 20
0.1058074456454108
 30
0.0
  0
SEQEND
  5
5B2
  8
LAYER_1
  0
POLYLINE
  5
A6
  8
LAYER_1
 66
     1
 10
0.0
 20
0.0
 30
0.0
 70
     1
  0
VERTEX
  5
5B3
  8
LAYER_1
 10
-893.3377206150944
 20
1.416449083823835
 30
0.0
  0
VERTEX
  5
5B4
  8
LAYER_1
 10
-894.748834646229
 20
2.641896488119897
 30
0.0
  0
VERTEX
  5
5B5
  8
LAYER_1
 10
-894.7488346462286
 20
12.21330973011899
 30
0.0
  0
VERTEX
  5
5B6
  8
LAYER_1
 10
-901.2817109667377
 20
6.615601081511812
 30
0.0
  0
VERTEX
  5
5B7
  8
LAYER_1
 10
-907.8145872872468
 20
12.21330973011899
 30
0.0
  0
VERTEX
  5
5B8
  8
LAYER_1
 10
-907.8145872872465
 20
2.641896488119897
 30
0.0
  0
VERTEX
  5
5B9
  8
LAYER_1
 10
-909.225701318381
 20
1.416449083823835
 30
0.0
  0
VERTEX
  5
5BA
  8
LAYER_1
 10
-907.8145872872465
 20
0.1910016795277159
 30
0.0
  0
VERTEX
  5
5BB
  8
LAYER_1
 10
-907.8145872872468
 20
-9.38041156247138
 30
0.0
  0
VERTEX
  5
5BC
  8
LAYER_1
 10
-901.2817109667377
 20
-3.782702913864199
 30
0.0
  0
VERTEX
  5
5BD
  8
LAYER_1
 10
-894.7488346462286
 20
-9.38041156247138
 30
0.0
  0
VERTEX
  5
5BE
  8
LAYER_1
 10
-894.748834646229
 20
0.1910016795277159
 30
0.0
  0
SEQEND
  5
5BF
  8
LAYER_1
  0
POLYLINE
  5
A7
  8
LAYER_1
 66
     1
 10
0.0
 20
0.0
 30
0.0
 70
     1
  0
VERTEX
  5
5C0
  8
LAYER_1
 10
-920.9592871398246
 20
-21.42569102450088
 30
0.0
  0
VERTEX
  5
5C1
  8
LAYER_1
 10
-921.5360237780594
 20
-21.27638483762268
 30
0.0
  0
VERTEX
  5
5C2
  8
LAYER_1
 10
-922.1020592551162
 20
-21.10877192260995
 30
0.0
  0
VERTEX
  5
5C3
  8
LAYER_1
 10
-922.6576706461426
 20
-20.92329525925596
 30
0.0
  0
VERTEX
  5
5C4
  8
LAYER_1
 10
-923.2031350262864
 20
-20.72039782735401
 30
0.0
  0
VERTEX
  5
5C5
  8
LAYER_1
 10
-923.7387294706953
 20
-20.50052260669737
 30
0.0
  0
VERTEX
  5
5C6
  8
LAYER_1
 10
-924.2647310545167
 20
-20.26411257707932
 30
0.0
  0
VERTEX
  5
5C7
  8
LAYER_1
 10
-924.7814168528984
 20
-20.01161071829315
 30
0.0
  0
VERTEX
  5
5C8
  8
LAYER_1
 10
-925.2890639409883
 20
-19.74346001013215
 30
0.0
  0
VERTEX
  5
5C9
  8
LAYER_1
 10
-925.7879493939339
 20
-19.46010343238959
 30
0.0
  0
VERTEX
  5
5CA
  8
LAYER_1
 10
-926.2783502868829
 20
-19.16198396485875
 30
0.0
  0
VERTEX
  5
5CB
  8
LAYER_1
 10
-926.760543694983
 20
-18.84954458733292
 30
0.0
  0
VERTEX
  5
5CC
  8
LAYER_1
 10
-927.2348066933819
 20
-18.52322827960538
 30
0.0
  0
VERTEX
  5
5CD
  8
LAYER_1
 10
-927.7014163572272
 20
-18.18347802146943
 30
0.0
  0
VERTEX
  5
5CE
  8
LAYER_1
 10
-928.1606497616667
 20
-17.83073679271832
 30
0.0
  0
VERTEX
  5
5CF
  8
LAYER_1
 10
-928.6127839818481
 20
-17.46544757314535
 30
0.0
  0
VERTEX
  5
5D0
  8
LAYER_1
 10
-929.058096092919
 20
-17.08805334254381
 30
0.0
  0
VERTEX
  5
5D1
  8
LAYER_1
 10
-929.4968631700269
 20
-16.69899708070697
 30
0.0
  0
VERTEX
  5
5D2
  8
LAYER_1
 10
-929.9293622883199
 20
-16.29872176742812
 30
0.0
  0
VERTEX
  5
5D3
  8
LAYER_1
 10
-930.3558705229453
 20
-15.88767038250054
 30
0.0
  0
VERTEX
  5
5D4
  8
LAYER_1
 10
-930.7766649490511
 20
-15.46628590571751
 30
0.0
  0
VERTEX
  5
5D5
  8
LAYER_1
 10
-931.1920226417848
 20
-15.03501131687232
 30
0.0
  0
VERTEX
  5
5D6
  8
LAYER_1
 10
-931.6022206762941
 20
-14.59428959575824
 30
0.0
  0
VERTEX
  5
5D7
  8
LAYER_1
 10
-932.0075361277268
 20
-14.14456372216857
 30
0.0
  0
VERTEX
  5
5D8
  8
LAYER_1
 10
-932.4082460712303
 20
-13.68627667589658
 30
0.0
  0
VERTEX
  5
5D9
  8
LAYER_1
 10
-932.8046275819527
 20
-13.21987143673555
 30
0.0
  0
VERTEX
  5
5DA
  8
LAYER_1
 10
-933.1969577350412
 20
-12.74579098447877
 30
0.0
  0
VERTEX
  5
5DB
  8
LAYER_1
 10
-933.9705722689082
 20
-11.7763763598511
 30
0.0
  0
VERTEX
  5
5DC
  8
LAYER_1
 10
-934.7313062740128
 20
-10.7815766403598
 30
0.0
  0
VERTEX
  5
5DD
  8
LAYER_1
 10
-935.4813763515365
 20
-9.764935664351157
 30
0.0
  0
VERTEX
  5
5DE
  8
LAYER_1
 10
-921.0845601605705
 20
-9.7629622419893
 30
0.0
  0
VERTEX
  5
5DF
  8
LAYER_1
 10
-921.0845601605705
 20
-3.887576972087714
 30
0.0
  0
VERTEX
  5
5E0
  8
LAYER_1
 10
-917.4133916204343
 20
-0.4678971035388315
 30
0.0
  0
VERTEX
  5
5E1
  8
LAYER_1
 10
-913.7422230802979
 20
-3.887576972087714
 30
0.0
  0
VERTEX
  5
5E2
  8
LAYER_1
 10
-913.7422230802979
 20
-15.26145118224369
 30
0.0
  0
SEQEND
  5
5E3
  8
LAYER_1
  0
POLYLINE
  5
A8
  8
LAYER_1
 66
     1
 10
0.0
 20
0.0
 30
0.0
 70
     1
  0
VERTEX
  5
5E4
  8
LAYER_1
 10
-859.2139400318506
 20
1.416449083823835
 30
0.0
  0
VERTEX
  5
5E5
  8
LAYER_1
 10
-866.3653869976155
 20
7.534952877516417
 30
0.0
  0
VERTEX
  5
5E6
  8
LAYER_1
 10
-875.5520089198503
 20
7.534952877516417
 30
0.0
  0
VERTEX
  5
5E7
  8
LAYER_1
 10
-875.5520089198503
 20
2.727090722002202
 30
0.0
  0
VERTEX
  5
5E8
  8
LAYER_1
 10
-877.109750312454
 20
1.416449083823835
 30
0.0
  0
VERTEX
  5
5E9
  8
LAYER_1
 10
-875.5520089198503
 20
0.1058074456454108
 30
0.0
  0
VERTEX
  5
5EA
  8
LAYER_1
 10
-875.5520089198503
 20
-4.702054709868804
 30
0.0
  0
VERTEX
  5
5EB
  8
LAYER_1
 10
-866.3653869976155
 20
-4.702054709868804
 30
0.0
  0
SEQEND
  5
5EC
  8
LAYER_1
  0
POLYLINE
  5
A9
  8
LAYER_1
 66
     1
 10
0.0
 20
0.0
 30
0.0
 70
     1
  0
VERTEX
  5
5ED
  8
LAYER_1
 10
-898.9111580782053
 20
-35.02525391262859
 30
0.0
  0
VERTEX
  5
5EE
  8
LAYER_1
 10
-899.419665060184
 20
-34.67012918142797
 30
0.0
  0
VERTEX
  5
5EF
  8
LAYER_1
 10
-899.9080436761866
 20
-34.30242963422998
 30
0.0
  0
VERTEX
  5
5F0
  8
LAYER_1
 10
-900.3768394704337
 20
-33.92280112200706
 30
0.0
  0
VERTEX
  5
5F1
  8
LAYER_1
 10
-900.8265979871461
 20
-33.53188949573161
 30
0.0
  0
VERTEX
  5
5F2
  8
LAYER_1
 10
-901.2578647705445
 20
-33.13034060637609
 30
0.0
  0
VERTEX
  5
5F3
  8
LAYER_1
 10
-901.6711853648495
 20
-32.7188003049129
 30
0.0
  0
VERTEX
  5
5F4
  8
LAYER_1
 10
-902.0671053142819
 20
-32.29791444231448
 30
0.0
  0
VERTEX
  5
5F5
  8
LAYER_1
 10
-902.4461701630626
 20
-31.86832886955326
 30
0.0
  0
VERTEX
  5
5F6
  8
LAYER_1
 10
-902.808925455412
 20
-31.43068943760165
 30
0.0
  0
VERTEX
  5
5F7
  8
LAYER_1
 10
-903.155916735551
 20
-30.98564199743209
 30
0.0
  0
VERTEX
  5
5F8
  8
LAYER_1
 10
-903.4876895477005
 20
-30.533832400017
 30
0.0
  0
VERTEX
  5
5F9
  8
LAYER_1
 10
-903.8047894360808
 20
-30.0759064963288
 30
0.0
  0
VERTEX
  5
5FA
  8
LAYER_1
 10
-904.1077619449128
 20
-29.61251013733992
 30
0.0
  0
VERTEX
  5
5FB
  8
LAYER_1
 10
-904.3971526184173
 20
-29.1442891740228
 30
0.0
  0
VERTEX
  5
5FC
  8
LAYER_1
 10
-904.673507000815
 20
-28.67188945734985
 30
0.0
  0
VERTEX
  5
5FD
  8
LAYER_1
 10
-904.9373706363266
 20
-28.1959568382935
 30
0.0
  0
VERTEX
  5
5FE
  8
LAYER_1
 10
-905.1892890691728
 20
-27.71713716782618
 30
0.0
  0
VERTEX
  5
5FF
  8
LAYER_1
 10
-905.4298078435742
 20
-27.23607629692032
 30
0.0
  0
VERTEX
  5
600
  8
LAYER_1
 10
-905.6594725037517
 20
-26.75342007654833
 30
0.0
  0
VERTEX
  5
601
  8
LAYER_1
 10
-905.8788285939258
 20
-26.26981435768266
 30
0.0
  0
VERTEX
  5
602
  8
LAYER_1
 10
-906.0884216583175
 20
-25.78590499129571
 30
0.0
  0
VERTEX
  5
603
  8
LAYER_1
 10
-906.2887972411474
 20
-25.30233782835992
 30
0.0
  0
VERTEX
  5
604
  8
LAYER_1
 10
-906.6640781390045
 20
-24.33881351673153
 30
0.0
  0
VERTEX
  5
605
  8
LAYER_1
 10
-907.0090356412629
 20
-23.38440823057689
 30
0.0
  0
VERTEX
  5
606
  8
LAYER_1
 10
-907.3280341016882
 20
-22.4442887776754
 30
0.0
  0
VERTEX
  5
607
  8
LAYER_1
 10
-907.905611312103
 20
-20.62757460274955
 30
0.0
  0
VERTEX
  5
608
  8
LAYER_1
 10
-907.8145872872468
 20
-16.80901086439442
 30
0.0
  0
VERTEX
  5
609
  8
LAYER_1
 10
-901.2817109667377
 20
-11.22742249455624
 30
0.0
  0
VERTEX
  5
60A
  8
LAYER_1
 10
-894.7488346462286
 20
-16.80901086439442
 30
0.0
  0
VERTEX
  5
60B
  8
LAYER_1
 10
-894.748834646229
 20
-31.47057063424873
 30
0.0
  0
SEQEND
  5
60C
  8
LAYER_1
  0
POLYLINE
  5
AA
  8
LAYER_1
 66
     1
 10
0.0
 20
0.0
 30
0.0
 70
     1
  0
VERTEX
  5
60D
  8
LAYER_1
 10
-833.0309555144753
 20
1.416449083823835
 30
0.0
  0
VERTEX
  5
60E
  8
LAYER_1
 10
-833.0309555144739
 20
1.419504885490454
 30
0.0
  0
VERTEX
  5
60F
  8
LAYER_1
 10
-833.0309555144753
 20
1.422950140717518
 30
0.0
  0
VERTEX
  5
610
  8
LAYER_1
 10
-833.0309555144739
 20
1.426395395944581
 30
0.0
  0
VERTEX
  5
611
  8
LAYER_1
 10
-833.0309555144753
 20
1.428118023558824
 30
0.0
  0
VERTEX
  5
612
  8
LAYER_1
 10
-826.9560683863382
 20
6.640438065233553
 30
0.0
  0
VERTEX
  5
613
  8
LAYER_1
 10
-835.5889686364787
 20
6.640185019857114
 30
0.0
  0
VERTEX
  5
614
  8
LAYER_1
 10
-835.588672293836
 20
14.01177175959882
 30
0.0
  0
VERTEX
  5
615
  8
LAYER_1
 10
-841.6968292746698
 20
8.824458562220485
 30
0.0
  0
VERTEX
  5
616
  8
LAYER_1
 10
-847.8049862555035
 20
14.01177175959882
 30
0.0
  0
VERTEX
  5
617
  8
LAYER_1
 10
-847.8046899128608
 20
6.640185019857114
 30
0.0
  0
VERTEX
  5
618
  8
LAYER_1
 10
-856.4375901630012
 20
6.640438065233553
 30
0.0
  0
VERTEX
  5
619
  8
LAYER_1
 10
-850.3627030348642
 20
1.428118023558824
 30
0.0
  0
VERTEX
  5
61A
  8
LAYER_1
 10
-850.3627030348656
 20
1.426395395944581
 30
0.0
  0
VERTEX
  5
61B
  8
LAYER_1
 10
-850.3627030348642
 20
1.422950140717518
 30
0.0
  0
VERTEX
  5
61C
  8
LAYER_1
 10
-850.3627030348656
 20
1.419504885490454
 30
0.0
  0
VERTEX
  5
61D
  8
LAYER_1
 10
-850.3627030348642
 20
1.416449083823835
 30
0.0
  0
VERTEX
  5
61E
  8
LAYER_1
 10
-850.3627030348656
 20
1.413393282157159
 30
0.0
  0
VERTEX
  5
61F
  8
LAYER_1
 10
-850.3627030348642
 20
1.409948026930095
 30
0.0
  0
VERTEX
  5
620
  8
LAYER_1
 10
-850.3627030348656
 20
1.406502771703089
 30
0.0
  0
VERTEX
  5
621
  8
LAYER_1
 10
-850.3627030348642
 20
1.404780144088789
 30
0.0
  0
VERTEX
  5
622
  8
LAYER_1
 10
-856.4375901630012
 20
-3.80753989758594
 30
0.0
  0
VERTEX
  5
623
  8
LAYER_1
 10
-847.8046899128608
 20
-3.807286852209501
 30
0.0
  0
VERTEX
  5
624
  8
LAYER_1
 10
-847.8049862555035
 20
-11.1788735919512
 30
0.0
  0
VERTEX
  5
625
  8
LAYER_1
 10
-841.6968292746698
 20
-5.991560394572872
 30
0.0
  0
VERTEX
  5
626
  8
LAYER_1
 10
-835.588672293836
 20
-11.1788735919512
 30
0.0
  0
VERTEX
  5
627
  8
LAYER_1
 10
-835.5889686364787
 20
-3.807286852209501
 30
0.0
  0
VERTEX
  5
628
  8
LAYER_1
 10
-826.9560683863382
 20
-3.80753989758594
 30
0.0
  0
VERTEX
  5
629
  8
LAYER_1
 10
-833.0309555144753
 20
1.404780144088789
 30
0.0
  0
VERTEX
  5
62A
  8
LAYER_1
 10
-833.0309555144739
 20
1.406502771703089
 30
0.0
  0
VERTEX
  5
62B
  8
LAYER_1
 10
-833.0309555144753
 20
1.409948026930095
 30
0.0
  0
VERTEX
  5
62C
  8
LAYER_1
 10
-833.0309555144739
 20
1.413393282157159
 30
0.0
  0
SEQEND
  5
62D
  8
LAYER_1
  0
POLYLINE
  5
AB
  8
LAYER_1
 66
     1
 10
0.0
 20
0.0
 30
0.0
 70
     1
  0
VERTEX
  5
62E
  8
LAYER_1
 10
-886.1521519453038
 20
-38.58214044891221
 30
0.0
  0
VERTEX
  5
62F
  8
LAYER_1
 10
-872.4436881983206
 20
-38.58355091617622
 30
0.0
  0
VERTEX
  5
630
  8
LAYER_1
 10
-878.0897487412918
 20
-32.47364852879733
 30
0.0
  0
VERTEX
  5
631
  8
LAYER_1
 10
-878.0739773594187
 20
-29.65406736596029
 30
0.0
  0
VERTEX
  5
632
  8
LAYER_1
 10
-881.3760022538311
 20
-29.66753446347255
 30
0.0
  0
VERTEX
  5
633
  8
LAYER_1
 10
-888.6573430186511
 20
-24.76149395423013
 30
0.0
  0
VERTEX
  5
634
  8
LAYER_1
 10
-888.6573430186511
 20
-32.01537690452844
 30
0.0
  0
VERTEX
  5
635
  8
LAYER_1
 10
-894.3038971511772
 20
-36.89829153772004
 30
0.0
  0
VERTEX
  5
636
  8
LAYER_1
 10
-894.6027900789484
 20
-37.15846419669376
 30
0.0
  0
VERTEX
  5
637
  8
LAYER_1
 10
-894.1582037855001
 20
-37.30891433749289
 30
0.0
  0
VERTEX
  5
638
  8
LAYER_1
 10
-893.7031660739889
 20
-37.45187925099183
 30
0.0
  0
VERTEX
  5
639
  8
LAYER_1
 10
-893.2375285742883
 20
-37.58720661803961
 30
0.0
  0
VERTEX
  5
63A
  8
LAYER_1
 10
-892.7611429162715
 20
-37.71474411948525
 30
0.0
  0
VERTEX
  5
63B
  8
LAYER_1
 10
-892.273860729812
 20
-37.83433943617779
 30
0.0
  0
VERTEX
  5
63C
  8
LAYER_1
 10
-891.775533644783
 20
-37.94584024896623
 30
0.0
  0
VERTEX
  5
63D
  8
LAYER_1
 10
-891.2660132910577
 20
-38.04909423869964
 30
0.0
  0
VERTEX
  5
63E
  8
LAYER_1
 10
-890.7451512985097
 20
-38.14394908622701
 30
0.0
  0
VERTEX
  5
63F
  8
LAYER_1
 10
-890.2127992970121
 20
-38.23025247239738
 30
0.0
  0
VERTEX
  5
640
  8
LAYER_1
 10
-889.6688089164385
 20
-38.30785207805978
 30
0.0
  0
VERTEX
  5
641
  8
LAYER_1
 10
-889.1130317866618
 20
-38.37659558406323
 30
0.0
  0
VERTEX
  5
642
  8
LAYER_1
 10
-888.545319537556
 20
-38.43633067125675
 30
0.0
  0
VERTEX
  5
643
  8
LAYER_1
 10
-887.9655237989937
 20
-38.48690502048939
 30
0.0
  0
VERTEX
  5
644
  8
LAYER_1
 10
-887.3734962008489
 20
-38.52816631261017
 30
0.0
  0
VERTEX
  5
645
  8
LAYER_1
 10
-886.7690883729942
 20
-38.55996222846809
 30
0.0
  0
SEQEND
  5
646
  8
LAYER_1
  0
POLYLINE
  5
AC
  8
LAYER_1
 66
     1
 10
0.0
 20
0.0
 30
0.0
 70
     1
  0
VERTEX
  5
647
  8
LAYER_1
 10
-806.2839082368854
 20
1.416449083823835
 30
0.0
  0
VERTEX
  5
648
  8
LAYER_1
 10
-807.8416496294892
 20
2.727090722002202
 30
0.0
  0
VERTEX
  5
649
  8
LAYER_1
 10
-807.8416496294892
 20
7.534952877516417
 30
0.0
  0
VERTEX
  5
64A
  8
LAYER_1
 10
-817.0282715517241
 20
7.534952877516417
 30
0.0
  0
VERTEX
  5
64B
  8
LAYER_1
 10
-824.179718517489
 20
1.416449083823835
 30
0.0
  0
VERTEX
  5
64C
  8
LAYER_1
 10
-817.0282715517241
 20
-4.702054709868804
 30
0.0
  0
VERTEX
  5
64D
  8
LAYER_1
 10
-807.8416496294892
 20
-4.702054709868804
 30
0.0
  0
VERTEX
  5
64E
  8
LAYER_1
 10
-807.8416496294892
 20
0.1058074456454108
 30
0.0
  0
SEQEND
  5
64F
  8
LAYER_1
  0
POLYLINE
  5
AD
  8
LAYER_1
 66
     1
 10
0.0
 20
0.0
 30
0.0
 70
     1
  0
VERTEX
  5
650
  8
LAYER_1
 10
-774.1679572309585
 20
1.416449083823835
 30
0.0
  0
VERTEX
  5
651
  8
LAYER_1
 10
-775.5790712620931
 20
2.641896488119897
 30
0.0
  0
VERTEX
  5
652
  8
LAYER_1
 10
-775.5790712620926
 20
12.21330973011899
 30
0.0
  0
VERTEX
  5
653
  8
LAYER_1
 10
-782.1119475826017
 20
6.615601081511812
 30
0.0
  0
VERTEX
  5
654
  8
LAYER_1
 10
-788.6448239031108
 20
12.21330973011899
 30
0.0
  0
VERTEX
  5
655
  8
LAYER_1
 10
-788.6448239031104
 20
2.641896488119897
 30
0.0
  0
VERTEX
  5
656
  8
LAYER_1
 10
-790.0559379342451
 20
1.416449083823835
 30
0.0
  0
VERTEX
  5
657
  8
LAYER_1
 10
-788.6448239031104
 20
0.1910016795277159
 30
0.0
  0
VERTEX
  5
658
  8
LAYER_1
 10
-788.6448239031108
 20
-9.38041156247138
 30
0.0
  0
VERTEX
  5
659
  8
LAYER_1
 10
-782.1119475826017
 20
-3.782702913864199
 30
0.0
  0
VERTEX
  5
65A
  8
LAYER_1
 10
-775.5790712620926
 20
-9.38041156247138
 30
0.0
  0
VERTEX
  5
65B
  8
LAYER_1
 10
-775.5790712620931
 20
0.1910016795277159
 30
0.0
  0
SEQEND
  5
65C
  8
LAYER_1
  0
POLYLINE
  5
AE
  8
LAYER_1
 66
     1
 10
0.0
 20
0.0
 30
0.0
 70
     1
  0
VERTEX
  5
65D
  8
LAYER_1
 10
-740.0441766477146
 20
1.416449083823835
 30
0.0
  0
VERTEX
  5
65E
  8
LAYER_1
 10
-747.1956236134795
 20
7.534952877516417
 30
0.0
  0
VERTEX
  5
65F
  8
LAYER_1
 10
-756.3822455357144
 20
7.534952877516417
 30
0.0
  0
VERTEX
  5
660
  8
LAYER_1
 10
-756.3822455357144
 20
2.727090722002202
 30
0.0
  0
VERTEX
  5
661
  8
LAYER_1
 10
-757.9399869283181
 20
1.416449083823835
 30
0.0
  0
VERTEX
  5
662
  8
LAYER_1
 10
-756.3822455357144
 20
0.1058074456454108
 30
0.0
  0
VERTEX
  5
663
  8
LAYER_1
 10
-756.3822455357144
 20
-4.702054709868804
 30
0.0
  0
VERTEX
  5
664
  8
LAYER_1
 10
-747.1956236134795
 20
-4.702054709868804
 30
0.0
  0
SEQEND
  5
665
  8
LAYER_1
  0
POLYLINE
  5
AF
  8
LAYER_1
 66
     1
 10
0.0
 20
0.0
 30
0.0
 70
     1
  0
VERTEX
  5
666
  8
LAYER_1
 10
-722.5255241595343
 20
16.38248186687221
 30
0.0
  0
VERTEX
  5
667
  8
LAYER_1
 10
-729.6827934174863
 20
22.48906367545331
 30
0.0
  0
VERTEX
  5
668
  8
LAYER_1
 10
-729.6827934174863
 20
30.3334703502403
 30
0.0
  0
VERTEX
  5
669
  8
LAYER_1
 10
-724.0522832070841
 20
30.3334703502403
 30
0.0
  0
VERTEX
  5
66A
  8
LAYER_1
 10
-722.5255241595343
 20
31.66361728359311
 30
0.0
  0
VERTEX
  5
66B
  8
LAYER_1
 10
-720.9987651119844
 20
30.3334703502403
 30
0.0
  0
VERTEX
  5
66C
  8
LAYER_1
 10
-715.3682549015822
 20
30.3334703502403
 30
0.0
  0
VERTEX
  5
66D
  8
LAYER_1
 10
-715.3682549015822
 20
22.48906367545331
 30
0.0
  0
SEQEND
  5
66E
  8
LAYER_1
  0
POLYLINE
  5
B0
  8
LAYER_1
 66
     1
 10
0.0
 20
0.0
 30
0.0
 70
     1
  0
VERTEX
  5
66F
  8
LAYER_1
 10
-713.8581086683403
 20
1.416449083823835
 30
0.0
  0
VERTEX
  5
670
  8
LAYER_1
 10
-713.8581086683389
 20
1.419504885490454
 30
0.0
  0
VERTEX
  5
671
  8
LAYER_1
 10
-713.8581086683403
 20
1.422950140717518
 30
0.0
  0
VERTEX
  5
672
  8
LAYER_1
 10
-713.8581086683389
 20
1.426395395944581
 30
0.0
  0
VERTEX
  5
673
  8
LAYER_1
 10
-713.8581086683403
 20
1.428118023558824
 30
0.0
  0
VERTEX
  5
674
  8
LAYER_1
 10
-707.7832215402032
 20
6.640438065233553
 30
0.0
  0
VERTEX
  5
675
  8
LAYER_1
 10
-716.4161217903437
 20
6.640185019857114
 30
0.0
  0
VERTEX
  5
676
  8
LAYER_1
 10
-716.415825447701
 20
14.01177175959882
 30
0.0
  0
VERTEX
  5
677
  8
LAYER_1
 10
-722.5255241595343
 20
8.824458562220485
 30
0.0
  0
VERTEX
  5
678
  8
LAYER_1
 10
-728.6352228713675
 20
14.01177175959882
 30
0.0
  0
VERTEX
  5
679
  8
LAYER_1
 10
-728.6349265287248
 20
6.640185019857114
 30
0.0
  0
VERTEX
  5
67A
  8
LAYER_1
 10
-737.2678267788654
 20
6.640438065233553
 30
0.0
  0
VERTEX
  5
67B
  8
LAYER_1
 10
-731.1929396507282
 20
1.428118023558824
 30
0.0
  0
VERTEX
  5
67C
  8
LAYER_1
 10
-731.1929396507296
 20
1.426395395944581
 30
0.0
  0
VERTEX
  5
67D
  8
LAYER_1
 10
-731.1929396507282
 20
1.422950140717518
 30
0.0
  0
VERTEX
  5
67E
  8
LAYER_1
 10
-731.1929396507296
 20
1.419504885490454
 30
0.0
  0
VERTEX
  5
67F
  8
LAYER_1
 10
-731.1929396507282
 20
1.416449083823835
 30
0.0
  0
VERTEX
  5
680
  8
LAYER_1
 10
-731.1929396507296
 20
1.413393282157159
 30
0.0
  0
VERTEX
  5
681
  8
LAYER_1
 10
-731.1929396507282
 20
1.409948026930095
 30
0.0
  0
VERTEX
  5
682
  8
LAYER_1
 10
-731.1929396507296
 20
1.406502771703089
 30
0.0
  0
VERTEX
  5
683
  8
LAYER_1
 10
-731.1929396507282
 20
1.404780144088789
 30
0.0
  0
VERTEX
  5
684
  8
LAYER_1
 10
-737.2678267788654
 20
-3.80753989758594
 30
0.0
  0
VERTEX
  5
685
  8
LAYER_1
 10
-728.6349265287248
 20
-3.807286852209501
 30
0.0
  0
VERTEX
  5
686
  8
LAYER_1
 10
-728.6352228713675
 20
-11.1788735919512
 30
0.0
  0
VERTEX
  5
687
  8
LAYER_1
 10
-722.5255241595343
 20
-5.991560394572872
 30
0.0
  0
VERTEX
  5
688
  8
LAYER_1
 10
-716.415825447701
 20
-11.1788735919512
 30
0.0
  0
VERTEX
  5
689
  8
LAYER_1
 10
-716.4161217903437
 20
-3.807286852209501
 30
0.0
  0
VERTEX
  5
68A
  8
LAYER_1
 10
-707.7832215402032
 20
-3.80753989758594
 30
0.0
  0
VERTEX
  5
68B
  8
LAYER_1
 10
-713.8581086683403
 20
1.404780144088789
 30
0.0
  0
VERTEX
  5
68C
  8
LAYER_1
 10
-713.8581086683389
 20
1.406502771703089
 30
0.0
  0
VERTEX
  5
68D
  8
LAYER_1
 10
-713.8581086683403
 20
1.409948026930095
 30
0.0
  0
VERTEX
  5
68E
  8
LAYER_1
 10
-713.8581086683389
 20
1.413393282157159
 30
0.0
  0
SEQEND
  5
68F
  8
LAYER_1
  0
POLYLINE
  5
B1
  8
LAYER_1
 66
     1
 10
0.0
 20
0.0
 30
0.0
 70
     1
  0
VERTEX
  5
690
  8
LAYER_1
 10
-722.5255241595343
 20
-28.83071911594547
 30
0.0
  0
VERTEX
  5
691
  8
LAYER_1
 10
-724.0522832070841
 20
-27.50057218259261
 30
0.0
  0
VERTEX
  5
692
  8
LAYER_1
 10
-729.6827934174863
 20
-27.50057218259261
 30
0.0
  0
VERTEX
  5
693
  8
LAYER_1
 10
-729.6827934174863
 20
-19.6561655078057
 30
0.0
  0
VERTEX
  5
694
  8
LAYER_1
 10
-722.5255241595343
 20
-13.5495836992246
 30
0.0
  0
VERTEX
  5
695
  8
LAYER_1
 10
-715.3682549015822
 20
-19.6561655078057
 30
0.0
  0
VERTEX
  5
696
  8
LAYER_1
 10
-715.3682549015822
 20
-27.50057218259261
 30
0.0
  0
VERTEX
  5
697
  8
LAYER_1
 10
-720.9987651119844
 20
-27.50057218259261
 30
0.0
  0
SEQEND
  5
698
  8
LAYER_1
  0
POLYLINE
  5
B2
  8
LAYER_1
 66
     1
 10
0.0
 20
0.0
 30
0.0
 70
     1
  0
VERTEX
  5
699
  8
LAYER_1
 10
-687.1110613907504
 20
1.416449083823835
 30
0.0
  0
VERTEX
  5
69A
  8
LAYER_1
 10
-688.6688027833542
 20
2.727090722002202
 30
0.0
  0
VERTEX
  5
69B
  8
LAYER_1
 10
-688.6688027833542
 20
7.534952877516417
 30
0.0
  0
VERTEX
  5
69C
  8
LAYER_1
 10
-697.855424705589
 20
7.534952877516417
 30
0.0
  0
VERTEX
  5
69D
  8
LAYER_1
 10
-705.006871671354
 20
1.416449083823835
 30
0.0
  0
VERTEX
  5
69E
  8
LAYER_1
 10
-697.855424705589
 20
-4.702054709868804
 30
0.0
  0
VERTEX
  5
69F
  8
LAYER_1
 10
-688.6688027833542
 20
-4.702054709868804
 30
0.0
  0
VERTEX
  5
6A0
  8
LAYER_1
 10
-688.6688027833542
 20
0.1058074456454108
 30
0.0
  0
SEQEND
  5
6A1
  8
LAYER_1
  0
POLYLINE
  5
B3
  8
LAYER_1
 66
     1
 10
0.0
 20
0.0
 30
0.0
 70
     1
  0
VERTEX
  5
6A2
  8
LAYER_1
 10
-632.2926296838883
 20
33.62141614287356
 30
0.0
  0
VERTEX
  5
6A3
  8
LAYER_1
 10
-632.5285451129448
 20
28.98670540018463
 30
0.0
  0
VERTEX
  5
6A4
  8
LAYER_1
 10
-627.1008133446704
 20
29.18815230657117
 30
0.0
  0
VERTEX
  5
6A5
  8
LAYER_1
 10
-622.235429654348
 20
33.34267707300245
 30
0.0
  0
VERTEX
  5
6A6
  8
LAYER_1
 10
-616.4346621690459
 20
28.38943315311752
 30
0.0
  0
VERTEX
  5
6A7
  8
LAYER_1
 10
-616.4346621690459
 20
35.3943778823608
 30
0.0
  0
VERTEX
  5
6A8
  8
LAYER_1
 10
-609.5539705680432
 20
35.3943778823608
 30
0.0
  0
VERTEX
  5
6A9
  8
LAYER_1
 10
-605.5491672285624
 20
38.52916880379911
 30
0.0
  0
VERTEX
  5
6AA
  8
LAYER_1
 10
-609.2377672013328
 20
41.41644908382381
 30
0.0
  0
VERTEX
  5
6AB
  8
LAYER_1
 10
-623.1638295759028
 20
41.41644908382381
 30
0.0
  0
SEQEND
  5
6AC
  8
LAYER_1
  0
POLYLINE
  5
B4
  8
LAYER_1
 66
     1
 10
0.0
 20
0.0
 30
0.0
 70
     1
  0
VERTEX
  5
6AD
  8
LAYER_1
 10
-655.9591496655463
 20
39.73118970536768
 30
0.0
  0
VERTEX
  5
6AE
  8
LAYER_1
 10
-650.3125955330202
 20
34.84827507217608
 30
0.0
  0
VERTEX
  5
6AF
  8
LAYER_1
 10
-650.3125955330202
 20
27.59439212187777
 30
0.0
  0
VERTEX
  5
6B0
  8
LAYER_1
 10
-643.0312547682
 20
32.50043263112019
 30
0.0
  0
VERTEX
  5
6B1
  8
LAYER_1
 10
-639.7292298737877
 20
32.48696553360793
 30
0.0
  0
VERTEX
  5
6B2
  8
LAYER_1
 10
-639.7450012556609
 20
35.30654669644491
 30
0.0
  0
VERTEX
  5
6B3
  8
LAYER_1
 10
-634.0989407126896
 20
41.41644908382381
 30
0.0
  0
VERTEX
  5
6B4
  8
LAYER_1
 10
-657.908044951514
 20
41.41644908382381
 30
0.0
  0
SEQEND
  5
6B5
  8
LAYER_1
  0
POLYLINE
  5
B5
  8
LAYER_1
 66
     1
 10
0.0
 20
0.0
 30
0.0
 70
     1
  0
VERTEX
  5
6B6
  8
LAYER_1
 10
-626.2168016056636
 20
22.78580106998717
 30
0.0
  0
VERTEX
  5
6B7
  8
LAYER_1
 10
-628.3939653470742
 20
22.80784458288983
 30
0.0
  0
VERTEX
  5
6B8
  8
LAYER_1
 10
-628.3681500843938
 20
20.94877626269616
 30
0.0
  0
VERTEX
  5
6B9
  8
LAYER_1
 10
-632.3495220357095
 20
17.54910432952167
 30
0.0
  0
VERTEX
  5
6BA
  8
LAYER_1
 10
-625.8535993783004
 20
12.00227117539518
 30
0.0
  0
VERTEX
  5
6BB
  8
LAYER_1
 10
-615.739716542831
 20
12.00245010549693
 30
0.0
  0
VERTEX
  5
6BC
  8
LAYER_1
 10
-615.7395069969389
 20
20.63863984903472
 30
0.0
  0
VERTEX
  5
6BD
  8
LAYER_1
 10
-622.235429654348
 20
26.18547300316123
 30
0.0
  0
SEQEND
  5
6BE
  8
LAYER_1
  0
POLYLINE
  5
B6
  8
LAYER_1
 66
     1
 10
0.0
 20
0.0
 30
0.0
 70
     1
  0
VERTEX
  5
6BF
  8
LAYER_1
 10
-641.0577903715846
 20
26.13689293225525
 30
0.0
  0
VERTEX
  5
6C0
  8
LAYER_1
 10
-650.4764513675465
 20
18.0943493498913
 30
0.0
  0
VERTEX
  5
6C1
  8
LAYER_1
 10
-650.4764513675465
 20
6.720475139735328
 30
0.0
  0
VERTEX
  5
6C2
  8
LAYER_1
 10
-646.8052828274102
 20
3.300795271186445
 30
0.0
  0
VERTEX
  5
6C3
  8
LAYER_1
 10
-643.134114287274
 20
6.720475139735328
 30
0.0
  0
VERTEX
  5
6C4
  8
LAYER_1
 10
-643.134114287274
 20
12.59586040963691
 30
0.0
  0
VERTEX
  5
6C5
  8
LAYER_1
 10
-634.9305902373868
 20
12.59586040963691
 30
0.0
  0
VERTEX
  5
6C6
  8
LAYER_1
 10
-640.7313577226889
 20
17.54910432952167
 30
0.0
  0
VERTEX
  5
6C7
  8
LAYER_1
 10
-635.8659740323671
 20
21.70362909595272
 30
0.0
  0
VERTEX
  5
6C8
  8
LAYER_1
 10
-635.6300586033102
 20
26.33833983864179
 30
0.0
  0
SEQEND
  5
6C9
  8
LAYER_1
  0
POLYLINE
  5
B7
  8
LAYER_1
 66
     1
 10
0.0
 20
0.0
 30
0.0
 70
     1
  0
VERTEX
  5
6CA
  8
LAYER_1
 10
-632.2926296838883
 20
-30.78851797522591
 30
0.0
  0
VERTEX
  5
6CB
  8
LAYER_1
 10
-632.5285451129448
 20
-26.15380723253699
 30
0.0
  0
VERTEX
  5
6CC
  8
LAYER_1
 10
-627.1008133446704
 20
-26.35525413892353
 30
0.0
  0
VERTEX
  5
6CD
  8
LAYER_1
 10
-622.235429654348
 20
-30.50977890535481
 30
0.0
  0
VERTEX
  5
6CE
  8
LAYER_1
 10
-616.4346621690459
 20
-25.55653498546988
 30
0.0
  0
VERTEX
  5
6CF
  8
LAYER_1
 10
-616.4346621690459
 20
-32.56147971471316
 30
0.0
  0
VERTEX
  5
6D0
  8
LAYER_1
 10
-609.5539705680432
 20
-32.56147971471316
 30
0.0
  0
VERTEX
  5
6D1
  8
LAYER_1
 10
-605.5491672285624
 20
-35.69627063615147
 30
0.0
  0
VERTEX
  5
6D2
  8
LAYER_1
 10
-609.2377672013328
 20
-38.58355091617622
 30
0.0
  0
VERTEX
  5
6D3
  8
LAYER_1
 10
-623.1638295759028
 20
-38.58355091617622
 30
0.0
  0
SEQEND
  5
6D4
  8
LAYER_1
  0
POLYLINE
  5
B8
  8
LAYER_1
 66
     1
 10
0.0
 20
0.0
 30
0.0
 70
     1
  0
VERTEX
  5
6D5
  8
LAYER_1
 10
-655.9591496655463
 20
-36.89829153772004
 30
0.0
  0
VERTEX
  5
6D6
  8
LAYER_1
 10
-650.3125955330202
 20
-32.01537690452844
 30
0.0
  0
VERTEX
  5
6D7
  8
LAYER_1
 10
-650.3125955330202
 20
-24.76149395423013
 30
0.0
  0
VERTEX
  5
6D8
  8
LAYER_1
 10
-643.0312547682
 20
-29.66753446347255
 30
0.0
  0
VERTEX
  5
6D9
  8
LAYER_1
 10
-639.7292298737877
 20
-29.65406736596029
 30
0.0
  0
VERTEX
  5
6DA
  8
LAYER_1
 10
-639.7450012556609
 20
-32.47364852879733
 30
0.0
  0
VERTEX
  5
6DB
  8
LAYER_1
 10
-634.0989407126896
 20
-38.58355091617622
 30
0.0
  0
VERTEX
  5
6DC
  8
LAYER_1
 10
-657.908044951514
 20
-38.58355091617622
 30
0.0
  0
SEQEND
  5
6DD
  8
LAYER_1
  0
POLYLINE
  5
B9
  8
LAYER_1
 66
     1
 10
0.0
 20
0.0
 30
0.0
 70
     1
  0
VERTEX
  5
6DE
  8
LAYER_1
 10
-626.2168016056636
 20
-19.95290290233956
 30
0.0
  0
VERTEX
  5
6DF
  8
LAYER_1
 10
-628.3939653470742
 20
-19.97494641524221
 30
0.0
  0
VERTEX
  5
6E0
  8
LAYER_1
 10
-628.3681500843938
 20
-18.11587809504854
 30
0.0
  0
VERTEX
  5
6E1
  8
LAYER_1
 10
-632.3495220357095
 20
-14.71620616187406
 30
0.0
  0
VERTEX
  5
6E2
  8
LAYER_1
 10
-625.8535993783004
 20
-9.169373007747566
 30
0.0
  0
VERTEX
  5
6E3
  8
LAYER_1
 10
-615.739716542831
 20
-9.16955193784932
 30
0.0
  0
VERTEX
  5
6E4
  8
LAYER_1
 10
-615.7395069969389
 20
-17.8057416813871
 30
0.0
  0
VERTEX
  5
6E5
  8
LAYER_1
 10
-622.235429654348
 20
-23.35257483551362
 30
0.0
  0
SEQEND
  5
6E6
  8
LAYER_1
  0
POLYLINE
  5
BA
  8
LAYER_1
 66
     1
 10
0.0
 20
0.0
 30
0.0
 70
     1
  0
VERTEX
  5
6E7
  8
LAYER_1
 10
-641.0577903715846
 20
-23.30399476460764
 30
0.0
  0
VERTEX
  5
6E8
  8
LAYER_1
 10
-650.4764513675465
 20
-15.26145118224369
 30
0.0
  0
VERTEX
  5
6E9
  8
LAYER_1
 10
-650.4764513675465
 20
-3.887576972087714
 30
0.0
  0
VERTEX
  5
6EA
  8
LAYER_1
 10
-646.8052828274102
 20
-0.4678971035388315
 30
0.0
  0
VERTEX
  5
6EB
  8
LAYER_1
 10
-643.134114287274
 20
-3.887576972087714
 30
0.0
  0
VERTEX
  5
6EC
  8
LAYER_1
 10
-643.134114287274
 20
-9.7629622419893
 30
0.0
  0
VERTEX
  5
6ED
  8
LAYER_1
 10
-634.9305902373868
 20
-9.7629622419893
 30
0.0
  0
VERTEX
  5
6EE
  8
LAYER_1
 10
-640.7313577226889
 20
-14.71620616187406
 30
0.0
  0
VERTEX
  5
6EF
  8
LAYER_1
 10
-635.8659740323671
 20
-18.87073092830511
 30
0.0
  0
VERTEX
  5
6F0
  8
LAYER_1
 10
-635.6300586033102
 20
-23.50544167099417
 30
0.0
  0
SEQEND
  5
6F1
  8
LAYER_1
  0
POLYLINE
  5
BB
  8
LAYER_1
 66
     1
 10
0.0
 20
0.0
 30
0.0
 70
     1
  0
VERTEX
  5
6F2
  8
LAYER_1
 10
-638.7650028268231
 20
1.416449083823835
 30
0.0
  0
VERTEX
  5
6F3
  8
LAYER_1
 10
-637.2072614342194
 20
2.727090722002202
 30
0.0
  0
VERTEX
  5
6F4
  8
LAYER_1
 10
-637.2072614342194
 20
7.534952877516417
 30
0.0
  0
VERTEX
  5
6F5
  8
LAYER_1
 10
-628.0206395119845
 20
7.534952877516417
 30
0.0
  0
VERTEX
  5
6F6
  8
LAYER_1
 10
-620.8691925462196
 20
1.416449083823835
 30
0.0
  0
VERTEX
  5
6F7
  8
LAYER_1
 10
-628.0206395119845
 20
-4.702054709868804
 30
0.0
  0
VERTEX
  5
6F8
  8
LAYER_1
 10
-637.2072614342194
 20
-4.702054709868804
 30
0.0
  0
VERTEX
  5
6F9
  8
LAYER_1
 10
-637.2072614342194
 20
0.1058074456454108
 30
0.0
  0
SEQEND
  5
6FA
  8
LAYER_1
  0
POLYLINE
  5
BC
  8
LAYER_1
 66
     1
 10
0.0
 20
0.0
 30
0.0
 70
     1
  0
VERTEX
  5
6FB
  8
LAYER_1
 10
-662.9380321087867
 20
-11.22742249455624
 30
0.0
  0
VERTEX
  5
6FC
  8
LAYER_1
 10
-669.4719770569759
 20
-16.80901086439442
 30
0.0
  0
VERTEX
  5
6FD
  8
LAYER_1
 10
-669.4719770569754
 20
-31.47057063424873
 30
0.0
  0
VERTEX
  5
6FE
  8
LAYER_1
 10
-663.5605552723911
 20
-36.51830166062754
 30
0.0
  0
VERTEX
  5
6FF
  8
LAYER_1
 10
-662.9380321087867
 20
-37.05746345515567
 30
0.0
  0
VERTEX
  5
700
  8
LAYER_1
 10
-662.3155089451824
 20
-36.51830166062754
 30
0.0
  0
VERTEX
  5
701
  8
LAYER_1
 10
-656.4040871605981
 20
-31.47057063424873
 30
0.0
  0
VERTEX
  5
702
  8
LAYER_1
 10
-656.4040871605977
 20
-16.80901086439442
 30
0.0
  0
SEQEND
  5
703
  8
LAYER_1
  0
POLYLINE
  5
BD
  8
LAYER_1
 66
     1
 10
0.0
 20
0.0
 30
0.0
 70
     1
  0
VERTEX
  5
704
  8
LAYER_1
 10
-662.9380321087867
 20
6.615601081511812
 30
0.0
  0
VERTEX
  5
705
  8
LAYER_1
 10
-669.4719770569759
 20
12.21330973011899
 30
0.0
  0
VERTEX
  5
706
  8
LAYER_1
 10
-669.4719770569754
 20
2.641896488119897
 30
0.0
  0
VERTEX
  5
707
  8
LAYER_1
 10
-670.8830910881101
 20
1.416449083823835
 30
0.0
  0
VERTEX
  5
708
  8
LAYER_1
 10
-669.4719770569754
 20
0.1910016795277159
 30
0.0
  0
VERTEX
  5
709
  8
LAYER_1
 10
-669.4719770569759
 20
-9.38041156247138
 30
0.0
  0
VERTEX
  5
70A
  8
LAYER_1
 10
-662.9380321087867
 20
-3.782702913864199
 30
0.0
  0
VERTEX
  5
70B
  8
LAYER_1
 10
-656.4040871605977
 20
-9.38041156247138
 30
0.0
  0
VERTEX
  5
70C
  8
LAYER_1
 10
-656.4040871605981
 20
0.1910016795277159
 30
0.0
  0
VERTEX
  5
70D
  8
LAYER_1
 10
-654.9929731294635
 20
1.416449083823835
 30
0.0
  0
VERTEX
  5
70E
  8
LAYER_1
 10
-656.4040871605981
 20
2.641896488119897
 30
0.0
  0
VERTEX
  5
70F
  8
LAYER_1
 10
-656.4040871605977
 20
12.21330973011899
 30
0.0
  0
SEQEND
  5
710
  8
LAYER_1
  0
POLYLINE
  5
BE
  8
LAYER_1
 66
     1
 10
0.0
 20
0.0
 30
0.0
 70
     1
  0
VERTEX
  5
711
  8
LAYER_1
 10
-662.9380321087867
 20
39.89036162280325
 30
0.0
  0
VERTEX
  5
712
  8
LAYER_1
 10
-663.5605552723911
 20
39.35119982827513
 30
0.0
  0
VERTEX
  5
713
  8
LAYER_1
 10
-669.4719770569754
 20
34.30346880189637
 30
0.0
  0
VERTEX
  5
714
  8
LAYER_1
 10
-669.4719770569759
 20
19.64190903204204
 30
0.0
  0
VERTEX
  5
715
  8
LAYER_1
 10
-662.9380321087867
 20
14.06032066220385
 30
0.0
  0
VERTEX
  5
716
  8
LAYER_1
 10
-656.4040871605977
 20
19.64190903204204
 30
0.0
  0
VERTEX
  5
717
  8
LAYER_1
 10
-656.4040871605981
 20
34.30346880189637
 30
0.0
  0
VERTEX
  5
718
  8
LAYER_1
 10
-662.3155089451824
 20
39.35119982827513
 30
0.0
  0
SEQEND
  5
719
  8
LAYER_1
  0
POLYLINE
  5
BF
  8
LAYER_1
 66
     1
 10
0.0
 20
0.0
 30
0.0
 70
     1
  0
VERTEX
  5
71A
  8
LAYER_1
 10
-603.3494819016249
 20
16.38248186687221
 30
0.0
  0
VERTEX
  5
71B
  8
LAYER_1
 10
-596.1911544872586
 20
22.48906367545331
 30
0.0
  0
VERTEX
  5
71C
  8
LAYER_1
 10
-596.1911544872586
 20
30.3334703502403
 30
0.0
  0
VERTEX
  5
71D
  8
LAYER_1
 10
-601.8216646976608
 20
30.3334703502403
 30
0.0
  0
VERTEX
  5
71E
  8
LAYER_1
 10
-603.3494819016249
 20
31.66361728359311
 30
0.0
  0
VERTEX
  5
71F
  8
LAYER_1
 10
-604.877299105589
 20
30.3334703502403
 30
0.0
  0
VERTEX
  5
720
  8
LAYER_1
 10
-610.5078093159913
 20
30.3334703502403
 30
0.0
  0
VERTEX
  5
721
  8
LAYER_1
 10
-610.5078093159913
 20
22.48906367545331
 30
0.0
  0
SEQEND
  5
722
  8
LAYER_1
  0
POLYLINE
  5
C0
  8
LAYER_1
 66
     1
 10
0.0
 20
0.0
 30
0.0
 70
     1
  0
VERTEX
  5
723
  8
LAYER_1
 10
-603.3494819016249
 20
-5.991560394572872
 30
0.0
  0
VERTEX
  5
724
  8
LAYER_1
 10
-597.2387250333774
 20
-11.1788735919512
 30
0.0
  0
VERTEX
  5
725
  8
LAYER_1
 10
-597.2390213760201
 20
-3.807286852209501
 30
0.0
  0
VERTEX
  5
726
  8
LAYER_1
 10
-588.6061211258796
 20
-3.80753989758594
 30
0.0
  0
VERTEX
  5
727
  8
LAYER_1
 10
-594.6810082540167
 20
1.404780144088789
 30
0.0
  0
VERTEX
  5
728
  8
LAYER_1
 10
-594.6810082540153
 20
1.406502771703089
 30
0.0
  0
VERTEX
  5
729
  8
LAYER_1
 10
-594.6810082540167
 20
1.409948026930095
 30
0.0
  0
VERTEX
  5
72A
  8
LAYER_1
 10
-594.6810082540153
 20
1.413393282157159
 30
0.0
  0
VERTEX
  5
72B
  8
LAYER_1
 10
-594.6810082540167
 20
1.416449083823835
 30
0.0
  0
VERTEX
  5
72C
  8
LAYER_1
 10
-594.6810082540153
 20
1.419504885490454
 30
0.0
  0
VERTEX
  5
72D
  8
LAYER_1
 10
-594.6810082540167
 20
1.422950140717518
 30
0.0
  0
VERTEX
  5
72E
  8
LAYER_1
 10
-594.6810082540153
 20
1.426395395944581
 30
0.0
  0
VERTEX
  5
72F
  8
LAYER_1
 10
-594.6810082540167
 20
1.428118023558824
 30
0.0
  0
VERTEX
  5
730
  8
LAYER_1
 10
-588.6061211258796
 20
6.640438065233553
 30
0.0
  0
VERTEX
  5
731
  8
LAYER_1
 10
-597.2390213760201
 20
6.640185019857114
 30
0.0
  0
VERTEX
  5
732
  8
LAYER_1
 10
-597.2387250333774
 20
14.01177175959882
 30
0.0
  0
VERTEX
  5
733
  8
LAYER_1
 10
-603.3494819016249
 20
8.824458562220485
 30
0.0
  0
VERTEX
  5
734
  8
LAYER_1
 10
-609.4602387698725
 20
14.01177175959882
 30
0.0
  0
VERTEX
  5
735
  8
LAYER_1
 10
-609.4599424272297
 20
6.640185019857114
 30
0.0
  0
VERTEX
  5
736
  8
LAYER_1
 10
-618.0928426773703
 20
6.640438065233553
 30
0.0
  0
VERTEX
  5
737
  8
LAYER_1
 10
-612.0179555492333
 20
1.428118023558824
 30
0.0
  0
VERTEX
  5
738
  8
LAYER_1
 10
-612.0179555492346
 20
1.426395395944581
 30
0.0
  0
VERTEX
  5
739
  8
LAYER_1
 10
-612.0179555492333
 20
1.422950140717518
 30
0.0
  0
VERTEX
  5
73A
  8
LAYER_1
 10
-612.0179555492346
 20
1.419504885490454
 30
0.0
  0
VERTEX
  5
73B
  8
LAYER_1
 10
-612.0179555492333
 20
1.416449083823835
 30
0.0
  0
VERTEX
  5
73C
  8
LAYER_1
 10
-612.0179555492346
 20
1.413393282157159
 30
0.0
  0
VERTEX
  5
73D
  8
LAYER_1
 10
-612.0179555492333
 20
1.409948026930095
 30
0.0
  0
VERTEX
  5
73E
  8
LAYER_1
 10
-612.0179555492346
 20
1.406502771703089
 30
0.0
  0
VERTEX
  5
73F
  8
LAYER_1
 10
-612.0179555492333
 20
1.404780144088789
 30
0.0
  0
VERTEX
  5
740
  8
LAYER_1
 10
-618.0928426773703
 20
-3.80753989758594
 30
0.0
  0
VERTEX
  5
741
  8
LAYER_1
 10
-609.4599424272297
 20
-3.807286852209501
 30
0.0
  0
VERTEX
  5
742
  8
LAYER_1
 10
-609.4602387698725
 20
-11.1788735919512
 30
0.0
  0
SEQEND
  5
743
  8
LAYER_1
  0
POLYLINE
  5
C1
  8
LAYER_1
 66
     1
 10
0.0
 20
0.0
 30
0.0
 70
     1
  0
VERTEX
  5
744
  8
LAYER_1
 10
-603.3494819016249
 20
-28.83071911594547
 30
0.0
  0
VERTEX
  5
745
  8
LAYER_1
 10
-601.8216646976608
 20
-27.50057218259261
 30
0.0
  0
VERTEX
  5
746
  8
LAYER_1
 10
-596.1911544872586
 20
-27.50057218259261
 30
0.0
  0
VERTEX
  5
747
  8
LAYER_1
 10
-596.1911544872586
 20
-19.6561655078057
 30
0.0
  0
VERTEX
  5
748
  8
LAYER_1
 10
-603.3494819016249
 20
-13.5495836992246
 30
0.0
  0
VERTEX
  5
749
  8
LAYER_1
 10
-610.5078093159913
 20
-19.6561655078057
 30
0.0
  0
VERTEX
  5
74A
  8
LAYER_1
 10
-610.5078093159913
 20
-27.50057218259261
 30
0.0
  0
VERTEX
  5
74B
  8
LAYER_1
 10
-604.877299105589
 20
-27.50057218259261
 30
0.0
  0
SEQEND
  5
74C
  8
LAYER_1
  0
POLYLINE
  5
C2
  8
LAYER_1
 66
     1
 10
0.0
 20
0.0
 30
0.0
 70
     1
  0
VERTEX
  5
74D
  8
LAYER_1
 10
-1003.349
 20
-68.58399999999999
 30
0.0
  0
VERTEX
  5
74E
  8
LAYER_1
 10
-203.349
 20
-68.58399999999999
 30
0.0
  0
VERTEX
  5
74F
  8
LAYER_1
 10
-203.349
 20
71.41600000000001
 30
0.0
  0
VERTEX
  5
750
  8
LAYER_1
 10
-1003.349
 20
71.41600000000001
 30
0.0
  0
SEQEND
  5
751
  8
LAYER_1
  0
ENDSEC
  0
EOF
