  0
SECTION
  2
HEADER
  9
$ACADVER
  1
AC1009
  9
$DWGCODEPAGE
  3
ansi_1256
  9
$INSBASE
 10
0.0
 20
0.0
 30
0.0
  9
$EXTMIN
 10
327.7539081160587
 20
784.1986480535796
 30
0.0
  9
$EXTMAX
 10
427.7539081160587
 20
884.1986480535796
 30
0.0
  9
$LIMMIN
 10
0.0
 20
0.0
  9
$LIMMAX
 10
12.0
 20
9.0
  9
$ORTHOMODE
 70
     0
  9
$REGENMODE
 70
     1
  9
$FILLMODE
 70
     1
  9
$QTEXTMODE
 70
     0
  9
$MIRRTEXT
 70
     1
  9
$DRAGMODE
 70
     2
  9
$LTSCALE
 40
1.0
  9
$OSMODE
 70
    37
  9
$ATTMODE
 70
     1
  9
$TEXTSIZE
 40
0.2
  9
$TRACEWID
 40
0.05
  9
$TEXTSTYLE
  7
STANDARD
  9
$CLAYER
  8
0
  9
$CELTYPE
  6
BYLAYER
  9
$CECOLOR
 62
   256
  9
$DIMSCALE
 40
1.0
  9
$DIMASZ
 40
0.18
  9
$DIMEXO
 40
0.0625
  9
$DIMDLI
 40
0.38
  9
$DIMRND
 40
0.0
  9
$DIMDLE
 40
0.0
  9
$DIMEXE
 40
0.18
  9
$DIMTP
 40
0.0
  9
$DIMTM
 40
0.0
  9
$DIMTXT
 40
0.18
  9
$DIMCEN
 40
0.09
  9
$DIMTSZ
 40
0.0
  9
$DIMTOL
 70
     0
  9
$DIMLIM
 70
     0
  9
$DIMTIH
 70
     1
  9
$DIMTOH
 70
     1
  9
$DIMSE1
 70
     0
  9
$DIMSE2
 70
     0
  9
$DIMTAD
 70
     0
  9
$DIMZIN
 70
     0
  9
$DIMBLK
  1

  9
$DIMASO
 70
     1
  9
$DIMSHO
 70
     1
  9
$DIMPOST
  1

  9
$DIMAPOST
  1

  9
$DIMALT
 70
     0
  9
$DIMALTD
 70
     2
  9
$DIMALTF
 40
25.4
  9
$DIMLFAC
 40
1.0
  9
$DIMTOFL
 70
     0
  9
$DIMTVP
 40
0.0
  9
$DIMTIX
 70
     0
  9
$DIMSOXD
 70
     0
  9
$DIMSAH
 70
     0
  9
$DIMBLK1
  1

  9
$DIMBLK2
  1

  9
$DIMSTYLE
  2
STANDARD
  9
$DIMCLRD
 70
     0
  9
$DIMCLRE
 70
     0
  9
$DIMCLRT
 70
     0
  9
$DIMTFAC
 40
1.0
  9
$DIMGAP
 40
0.09
  9
$LUNITS
 70
     2
  9
$LUPREC
 70
     4
  9
$SKETCHINC
 40
0.1
  9
$FILLETRAD
 40
0.5
  9
$AUNITS
 70
     0
  9
$AUPREC
 70
     0
  9
$MENU
  1
.
  9
$ELEVATION
 40
0.0
  9
$PELEVATION
 40
0.0
  9
$THICKNESS
 40
0.0
  9
$LIMCHECK
 70
     0
  9
$CHAMFERA
 40
0.5
  9
$CHAMFERB
 40
0.5
  9
$SKPOLY
 70
     0
  9
$TDCREATE
 40
2454910.5
  9
$TDUPDATE
 40
2458269.491119792
  9
$TDINDWG
 40
0.0000000116
  9
$TDUSRTIMER
 40
0.0000000116
  9
$USRTIMER
 70
     1
  9
$ANGBASE
 50
0.0
  9
$ANGDIR
 70
     0
  9
$PDMODE
 70
     0
  9
$PDSIZE
 40
0.0
  9
$PLINEWID
 40
0.0
  9
$COORDS
 70
     1
  9
$SPLFRAME
 70
     0
  9
$SPLINETYPE
 70
     6
  9
$SPLINESEGS
 70
     8
  9
$ATTDIA
 70
     0
  9
$ATTREQ
 70
     1
  9
$HANDLING
 70
     1
  9
$HANDSEED
  5
278
  9
$SURFTAB1
 70
     6
  9
$SURFTAB2
 70
     6
  9
$SURFTYPE
 70
     6
  9
$SURFU
 70
     6
  9
$SURFV
 70
     6
  9
$UCSNAME
  2

  9
$UCSORG
 10
0.0
 20
0.0
 30
0.0
  9
$UCSXDIR
 10
1.0
 20
0.0
 30
0.0
  9
$UCSYDIR
 10
0.0
 20
1.0
 30
0.0
  9
$PUCSNAME
  2

  9
$PUCSORG
 10
0.0
 20
0.0
 30
0.0
  9
$PUCSXDIR
 10
1.0
 20
0.0
 30
0.0
  9
$PUCSYDIR
 10
0.0
 20
1.0
 30
0.0
  9
$USERI1
 70
     0
  9
$USERI2
 70
     0
  9
$USERI3
 70
     0
  9
$USERI4
 70
     0
  9
$USERI5
 70
     0
  9
$USERR1
 40
0.0
  9
$USERR2
 40
0.0
  9
$USERR3
 40
0.0
  9
$USERR4
 40
0.0
  9
$USERR5
 40
0.0
  9
$WORLDVIEW
 70
     1
  9
$SHADEDGE
 70
     3
  9
$SHADEDIF
 70
    70
  9
$TILEMODE
 70
     1
  9
$MAXACTVP
 70
    64
  9
$PLIMCHECK
 70
     0
  9
$PEXTMIN
 10
1.000000000000000E+20
 20
1.000000000000000E+20
 30
1.000000000000000E+20
  9
$PEXTMAX
 10
-1.000000000000000E+20
 20
-1.000000000000000E+20
 30
-1.000000000000000E+20
  9
$PLIMMIN
 10
0.0
 20
0.0
  9
$PLIMMAX
 10
12.0
 20
9.0
  9
$UNITMODE
 70
     0
  9
$VISRETAIN
 70
     1
  9
$PLINEGEN
 70
     0
  9
$PSLTSCALE
 70
     1
  0
ENDSEC
  0
SECTION
  2
TABLES
  0
TABLE
  2
VPORT
 70
     1
  0
VPORT
  2
*ACTIVE
 70
     0
 10
0.0
 20
0.0
 11
1.0
 21
1.0
 12
10.42990654205607
 22
4.5
 13
0.0
 23
0.0
 14
0.5
 24
0.5
 15
0.5
 25
0.5
 16
0.0
 26
0.0
 36
1.0
 17
0.0
 27
0.0
 37
0.0
 40
9.0
 41
1.972972972850329
 42
50.0
 43
0.0
 44
0.0
 50
0.0
 51
0.0
 71
     0
 72
   100
 73
     1
 74
     3
 75
     0
 76
     0
 77
     0
 78
     0
  0
ENDTAB
  0
TABLE
  2
LTYPE
 70
     2
  0
LTYPE
  2
CONTINUOUS
 70
     0
  3
Solid line
 72
    65
 73
     0
 40
0.0
  0
LTYPE
  2
CONTINUOUS2
 70
     0
  3
Solid Line
 72
    65
 73
     0
 40
0.0
  0
ENDTAB
  0
TABLE
  2
LAYER
 70
     2
  0
LAYER
  2
0
 70
     0
 62
     7
  6
CONTINUOUS
  0
LAYER
  2
LAYER_1
 70
     0
 62
    18
  6
CONTINUOUS
  0
ENDTAB
  0
TABLE
  2
STYLE
 70
     1
  0
STYLE
  2
STANDARD
 70
     0
 40
0.0
 41
1.0
 50
0.0
 71
     0
 42
0.2
  3
txt
  4

  0
ENDTAB
  0
TABLE
  2
VIEW
 70
     0
  0
ENDTAB
  0
TABLE
  2
UCS
 70
     0
  0
ENDTAB
  0
TABLE
  2
APPID
 70
     1
  0
APPID
  2
ACAD
 70
     0
  0
ENDTAB
  0
TABLE
  2
DIMSTYLE
 70
     1
  0
DIMSTYLE
  2
STANDARD
 70
     0
  3

  4

  5

  6

  7

 40
1.0
 41
0.18
 42
0.0625
 43
0.38
 44
0.18
 45
0.0
 46
0.0
 47
0.0
 48
0.0
140
0.18
141
0.09
142
0.0
143
25.4
144
1.0
145
0.0
146
1.0
147
0.09
 71
     0
 72
     0
 73
     1
 74
     1
 75
     0
 76
     0
 77
     0
 78
     0
170
     0
171
     2
172
     0
173
     0
174
     0
175
     0
176
     0
177
     0
178
     0
  0
ENDTAB
  0
ENDSEC
  0
SECTION
  2
BLOCKS
  0
BLOCK
  8
0
  2
$MODEL_SPACE
 70
     0
 10
0.0
 20
0.0
 30
0.0
  3
$MODEL_SPACE
  1

  0
ENDBLK
  5
21
  8
0
  0
BLOCK
 67
     1
  8
0
  2
$PAPER_SPACE
 70
     0
 10
0.0
 20
0.0
 30
0.0
  3
$PAPER_SPACE
  1

  0
ENDBLK
  5
1D
 67
     1
  8
0
  0
ENDSEC
  0
SECTION
  2
ENTITIES
  0
POLYLINE
  5
41
  8
LAYER_1
 66
     1
 10
0.0
 20
0.0
 30
0.0
 70
     1
  0
VERTEX
  5
87
  8
LAYER_1
 10
327.7553499147911
 20
876.0392073536316
 30
0.0
  0
VERTEX
  5
88
  8
LAYER_1
 10
331.8343493653989
 20
880.1182068042394
 30
0.0
  0
VERTEX
  5
89
  8
LAYER_1
 10
335.9133488160068
 20
884.1972062548473
 30
0.0
  0
VERTEX
  5
8A
  8
LAYER_1
 10
327.7539081160587
 20
884.1986480535796
 30
0.0
  0
SEQEND
  5
8B
  8
LAYER_1
  0
POLYLINE
  5
42
  8
LAYER_1
 66
     1
 10
0.0
 20
0.0
 30
0.0
 70
     1
  0
VERTEX
  5
8C
  8
LAYER_1
 10
336.3225167748678
 20
868.7540346247822
 30
0.0
  0
VERTEX
  5
8D
  8
LAYER_1
 10
339.760519159862
 20
872.1920370097764
 30
0.0
  0
VERTEX
  5
8E
  8
LAYER_1
 10
343.1985215448561
 20
875.6300393947706
 30
0.0
  0
VERTEX
  5
8F
  8
LAYER_1
 10
336.3210749761354
 20
875.631481193503
 30
0.0
  0
SEQEND
  5
90
  8
LAYER_1
  0
POLYLINE
  5
43
  8
LAYER_1
 66
     1
 10
0.0
 20
0.0
 30
0.0
 70
     1
  0
VERTEX
  5
91
  8
LAYER_1
 10
327.7553499147912
 20
860.1868677647057
 30
0.0
  0
VERTEX
  5
92
  8
LAYER_1
 10
327.7553499147912
 20
870.7610685485713
 30
0.0
  0
VERTEX
  5
93
  8
LAYER_1
 10
332.5903090337657
 20
875.5960276675457
 30
0.0
  0
VERTEX
  5
94
  8
LAYER_1
 10
332.5903090337657
 20
865.0218268836802
 30
0.0
  0
SEQEND
  5
95
  8
LAYER_1
  0
POLYLINE
  5
44
  8
LAYER_1
 66
     1
 10
0.0
 20
0.0
 30
0.0
 70
     1
  0
VERTEX
  5
96
  8
LAYER_1
 10
351.7656884049327
 20
884.1972062548473
 30
0.0
  0
VERTEX
  5
97
  8
LAYER_1
 10
346.9307292859583
 20
879.3622471358726
 30
0.0
  0
VERTEX
  5
98
  8
LAYER_1
 10
336.3565285020926
 20
879.3622471358726
 30
0.0
  0
VERTEX
  5
99
  8
LAYER_1
 10
341.1914876210672
 20
884.1972062548473
 30
0.0
  0
SEQEND
  5
9A
  8
LAYER_1
  0
POLYLINE
  5
45
  8
LAYER_1
 66
     1
 10
0.0
 20
0.0
 30
0.0
 70
     1
  0
VERTEX
  5
9B
  8
LAYER_1
 10
363.8814919695665
 20
884.1972062548473
 30
0.0
  0
VERTEX
  5
9C
  8
LAYER_1
 10
359.0465328505919
 20
879.3622471358726
 30
0.0
  0
VERTEX
  5
9D
  8
LAYER_1
 10
352.2088680910185
 20
879.3622471358726
 30
0.0
  0
VERTEX
  5
9E
  8
LAYER_1
 10
357.0438272099931
 20
884.1972062548473
 30
0.0
  0
SEQEND
  5
9F
  8
LAYER_1
  0
POLYLINE
  5
46
  8
LAYER_1
 66
     1
 10
0.0
 20
0.0
 30
0.0
 70
     1
  0
VERTEX
  5
A0
  8
LAYER_1
 10
327.7553499147912
 20
848.071064200072
 30
0.0
  0
VERTEX
  5
A1
  8
LAYER_1
 10
332.5903090337657
 20
852.9060233190464
 30
0.0
  0
VERTEX
  5
A2
  8
LAYER_1
 10
332.5903090337658
 20
859.7436880786199
 30
0.0
  0
VERTEX
  5
A3
  8
LAYER_1
 10
327.7553499147912
 20
854.9087289596453
 30
0.0
  0
SEQEND
  5
A4
  8
LAYER_1
  0
POLYLINE
  5
47
  8
LAYER_1
 66
     1
 10
0.0
 20
0.0
 30
0.0
 70
     1
  0
VERTEX
  5
A5
  8
LAYER_1
 10
340.3850282955419
 20
837.8783778885752
 30
0.0
  0
VERTEX
  5
A6
  8
LAYER_1
 10
338.1639005568818
 20
836.2390390439235
 30
0.0
  0
VERTEX
  5
A7
  8
LAYER_1
 10
336.3225167748678
 20
838.0804228259375
 30
0.0
  0
VERTEX
  5
A8
  8
LAYER_1
 10
336.3225167748678
 20
851.3600922550881
 30
0.0
  0
VERTEX
  5
A9
  8
LAYER_1
 10
345.7126610801359
 20
860.7502365603563
 30
0.0
  0
VERTEX
  5
AA
  8
LAYER_1
 10
348.316770998194
 20
860.7502365603563
 30
0.0
  0
VERTEX
  5
AB
  8
LAYER_1
 10
348.7281578703663
 20
858.0204744607524
 30
0.0
  0
VERTEX
  5
AC
  8
LAYER_1
 10
345.5796292166592
 20
854.8719458070453
 30
0.0
  0
VERTEX
  5
AD
  8
LAYER_1
 10
348.7630215902075
 20
851.6885534334971
 30
0.0
  0
VERTEX
  5
AE
  8
LAYER_1
 10
340.7275682367572
 20
849.5354601966221
 30
0.0
  0
VERTEX
  5
AF
  8
LAYER_1
 10
344.8870249645689
 20
842.331069812168
 30
0.0
  0
VERTEX
  5
B0
  8
LAYER_1
 10
340.3850282955419
 20
842.331069812168
 30
0.0
  0
SEQEND
  5
B1
  8
LAYER_1
  0
POLYLINE
  5
48
  8
LAYER_1
 66
     1
 10
0.0
 20
0.0
 30
0.0
 70
     1
  0
VERTEX
  5
B2
  8
LAYER_1
 10
374.0741782810632
 20
871.5675278740965
 30
0.0
  0
VERTEX
  5
B3
  8
LAYER_1
 10
369.6214863574703
 20
871.5675278740965
 30
0.0
  0
VERTEX
  5
B4
  8
LAYER_1
 10
369.6214863574703
 20
867.0655312050694
 30
0.0
  0
VERTEX
  5
B5
  8
LAYER_1
 10
362.4170959730162
 20
871.2249879328813
 30
0.0
  0
VERTEX
  5
B6
  8
LAYER_1
 10
360.2640027361413
 20
863.1895345794309
 30
0.0
  0
VERTEX
  5
B7
  8
LAYER_1
 10
357.080610362593
 20
866.3729269529791
 30
0.0
  0
VERTEX
  5
B8
  8
LAYER_1
 10
353.932081708886
 20
863.2243982992721
 30
0.0
  0
VERTEX
  5
B9
  8
LAYER_1
 10
351.2023196092821
 20
863.6357851714445
 30
0.0
  0
VERTEX
  5
BA
  8
LAYER_1
 10
351.2023196092821
 20
866.2398950895024
 30
0.0
  0
VERTEX
  5
BB
  8
LAYER_1
 10
360.5924639145502
 20
875.6300393947706
 30
0.0
  0
VERTEX
  5
BC
  8
LAYER_1
 10
373.8721333437009
 20
875.6300393947706
 30
0.0
  0
VERTEX
  5
BD
  8
LAYER_1
 10
375.7135171257149
 20
873.7886556127567
 30
0.0
  0
SEQEND
  5
BE
  8
LAYER_1
  0
POLYLINE
  5
49
  8
LAYER_1
 66
     1
 10
0.0
 20
0.0
 30
0.0
 70
     1
  0
VERTEX
  5
BF
  8
LAYER_1
 10
369.5995028377658
 20
853.8851238695212
 30
0.0
  0
VERTEX
  5
C0
  8
LAYER_1
 10
369.5995028377658
 20
859.64458902452
 30
0.0
  0
VERTEX
  5
C1
  8
LAYER_1
 10
373.2952961340077
 20
860.6348738536403
 30
0.0
  0
VERTEX
  5
C2
  8
LAYER_1
 10
364.7632598405106
 20
865.5608473044265
 30
0.0
  0
VERTEX
  5
C3
  8
LAYER_1
 10
362.213388351045
 20
856.0445973529693
 30
0.0
  0
VERTEX
  5
C4
  8
LAYER_1
 10
365.5269459706585
 20
857.9576807366284
 30
0.0
  0
SEQEND
  5
C5
  8
LAYER_1
  0
POLYLINE
  5
4A
  8
LAYER_1
 66
     1
 10
0.0
 20
0.0
 30
0.0
 70
     1
  0
VERTEX
  5
C6
  8
LAYER_1
 10
358.0674323001173
 20
842.3530533318726
 30
0.0
  0
VERTEX
  5
C7
  8
LAYER_1
 10
353.99487543301
 20
846.4256101989798
 30
0.0
  0
VERTEX
  5
C8
  8
LAYER_1
 10
355.9079588166692
 20
849.7391678185934
 30
0.0
  0
VERTEX
  5
C9
  8
LAYER_1
 10
346.3917088652119
 20
847.1892963291277
 30
0.0
  0
VERTEX
  5
CA
  8
LAYER_1
 10
351.317682315998
 20
838.6572600356307
 30
0.0
  0
VERTEX
  5
CB
  8
LAYER_1
 10
352.3079671451184
 20
842.3530533318726
 30
0.0
  0
SEQEND
  5
CC
  8
LAYER_1
  0
POLYLINE
  5
4B
  8
LAYER_1
 66
     1
 10
0.0
 20
0.0
 30
0.0
 70
     1
  0
VERTEX
  5
CD
  8
LAYER_1
 10
391.1831445764652
 20
879.3622471358726
 30
0.0
  0
VERTEX
  5
CE
  8
LAYER_1
 10
386.3481854574907
 20
884.1972062548473
 30
0.0
  0
VERTEX
  5
CF
  8
LAYER_1
 10
377.7539081160587
 20
884.1972062548473
 30
0.0
  0
VERTEX
  5
D0
  8
LAYER_1
 10
369.1596307746269
 20
884.1972062548473
 30
0.0
  0
VERTEX
  5
D1
  8
LAYER_1
 10
364.3246716556523
 20
879.3622471358726
 30
0.0
  0
VERTEX
  5
D2
  8
LAYER_1
 10
375.4180644076592
 20
879.3622471358726
 30
0.0
  0
VERTEX
  5
D3
  8
LAYER_1
 10
377.7539081160587
 20
877.0592830801047
 30
0.0
  0
VERTEX
  5
D4
  8
LAYER_1
 10
380.0897518244583
 20
879.3622471358726
 30
0.0
  0
SEQEND
  5
D5
  8
LAYER_1
  0
POLYLINE
  5
4C
  8
LAYER_1
 66
     1
 10
0.0
 20
0.0
 30
0.0
 70
     1
  0
VERTEX
  5
D6
  8
LAYER_1
 10
332.5903090337657
 20
820.7694115931732
 30
0.0
  0
VERTEX
  5
D7
  8
LAYER_1
 10
332.5903090337657
 20
831.8628043451802
 30
0.0
  0
VERTEX
  5
D8
  8
LAYER_1
 10
334.8932730895336
 20
834.1986480535796
 30
0.0
  0
VERTEX
  5
D9
  8
LAYER_1
 10
332.5903090337657
 20
836.5344917619791
 30
0.0
  0
VERTEX
  5
DA
  8
LAYER_1
 10
332.5903090337657
 20
847.627884513986
 30
0.0
  0
VERTEX
  5
DB
  8
LAYER_1
 10
327.7553499147912
 20
842.7929253950115
 30
0.0
  0
VERTEX
  5
DC
  8
LAYER_1
 10
327.7553499147912
 20
834.1986480535796
 30
0.0
  0
VERTEX
  5
DD
  8
LAYER_1
 10
327.7553499147912
 20
825.6043707121478
 30
0.0
  0
SEQEND
  5
DE
  8
LAYER_1
  0
POLYLINE
  5
4D
  8
LAYER_1
 66
     1
 10
0.0
 20
0.0
 30
0.0
 70
     1
  0
VERTEX
  5
DF
  8
LAYER_1
 10
332.5903090337657
 20
808.6536080285396
 30
0.0
  0
VERTEX
  5
E0
  8
LAYER_1
 10
332.5903090337657
 20
815.4912727881127
 30
0.0
  0
VERTEX
  5
E1
  8
LAYER_1
 10
327.7553499147912
 20
820.3262319070875
 30
0.0
  0
VERTEX
  5
E2
  8
LAYER_1
 10
327.7553499147912
 20
813.488567147514
 30
0.0
  0
SEQEND
  5
E3
  8
LAYER_1
  0
POLYLINE
  5
4E
  8
LAYER_1
 66
     1
 10
0.0
 20
0.0
 30
0.0
 70
     1
  0
VERTEX
  5
E4
  8
LAYER_1
 10
403.298948141099
 20
879.3622471358726
 30
0.0
  0
VERTEX
  5
E5
  8
LAYER_1
 10
398.4639890221243
 20
884.1972062548473
 30
0.0
  0
VERTEX
  5
E6
  8
LAYER_1
 10
391.626324262551
 20
884.1972062548473
 30
0.0
  0
VERTEX
  5
E7
  8
LAYER_1
 10
396.4612833815255
 20
879.3622471358726
 30
0.0
  0
SEQEND
  5
E8
  8
LAYER_1
  0
POLYLINE
  5
4F
  8
LAYER_1
 66
     1
 10
0.0
 20
0.0
 30
0.0
 70
     1
  0
VERTEX
  5
E9
  8
LAYER_1
 10
355.9079588166692
 20
818.6581282885659
 30
0.0
  0
VERTEX
  5
EA
  8
LAYER_1
 10
346.3917088652119
 20
821.2079997780315
 30
0.0
  0
VERTEX
  5
EB
  8
LAYER_1
 10
351.317682315998
 20
829.7400360715286
 30
0.0
  0
VERTEX
  5
EC
  8
LAYER_1
 10
352.3079671451184
 20
826.0442427752866
 30
0.0
  0
VERTEX
  5
ED
  8
LAYER_1
 10
358.0674323001173
 20
826.0442427752866
 30
0.0
  0
VERTEX
  5
EE
  8
LAYER_1
 10
353.99487543301
 20
821.9716859081794
 30
0.0
  0
SEQEND
  5
EF
  8
LAYER_1
  0
POLYLINE
  5
50
  8
LAYER_1
 66
     1
 10
0.0
 20
0.0
 30
0.0
 70
     1
  0
VERTEX
  5
F0
  8
LAYER_1
 10
393.2944278810726
 20
856.0445973529692
 30
0.0
  0
VERTEX
  5
F1
  8
LAYER_1
 10
389.980870261459
 20
857.9576807366284
 30
0.0
  0
VERTEX
  5
F2
  8
LAYER_1
 10
385.9083133943517
 20
853.8851238695212
 30
0.0
  0
VERTEX
  5
F3
  8
LAYER_1
 10
385.9083133943517
 20
859.64458902452
 30
0.0
  0
VERTEX
  5
F4
  8
LAYER_1
 10
382.2125200981097
 20
860.6348738536403
 30
0.0
  0
VERTEX
  5
F5
  8
LAYER_1
 10
390.7445563916069
 20
865.5608473044265
 30
0.0
  0
SEQEND
  5
F6
  8
LAYER_1
  0
POLYLINE
  5
51
  8
LAYER_1
 66
     1
 10
0.0
 20
0.0
 30
0.0
 70
     1
  0
VERTEX
  5
F7
  8
LAYER_1
 10
348.316770998194
 20
807.647059546803
 30
0.0
  0
VERTEX
  5
F8
  8
LAYER_1
 10
348.7281578703663
 20
810.3768216464068
 30
0.0
  0
VERTEX
  5
F9
  8
LAYER_1
 10
345.5796292166592
 20
813.5253503001139
 30
0.0
  0
VERTEX
  5
FA
  8
LAYER_1
 10
348.7630215902075
 20
816.7087426736622
 30
0.0
  0
VERTEX
  5
FB
  8
LAYER_1
 10
340.7275682367572
 20
818.8618359105371
 30
0.0
  0
VERTEX
  5
FC
  8
LAYER_1
 10
344.8870249645689
 20
826.0662262949912
 30
0.0
  0
VERTEX
  5
FD
  8
LAYER_1
 10
340.3850282955419
 20
826.0662262949912
 30
0.0
  0
VERTEX
  5
FE
  8
LAYER_1
 10
340.3850282955419
 20
830.5189182185841
 30
0.0
  0
VERTEX
  5
FF
  8
LAYER_1
 10
338.1639005568818
 20
832.1582570632357
 30
0.0
  0
VERTEX
  5
100
  8
LAYER_1
 10
336.3225167748678
 20
830.3168732812218
 30
0.0
  0
VERTEX
  5
101
  8
LAYER_1
 10
336.3225167748678
 20
817.0372038520711
 30
0.0
  0
VERTEX
  5
102
  8
LAYER_1
 10
345.7126610801359
 20
807.647059546803
 30
0.0
  0
SEQEND
  5
103
  8
LAYER_1
  0
POLYLINE
  5
52
  8
LAYER_1
 66
     1
 10
0.0
 20
0.0
 30
0.0
 70
     1
  0
VERTEX
  5
104
  8
LAYER_1
 10
404.3054966228354
 20
863.6357851714445
 30
0.0
  0
VERTEX
  5
105
  8
LAYER_1
 10
401.5757345232315
 20
863.224398299272
 30
0.0
  0
VERTEX
  5
106
  8
LAYER_1
 10
398.4272058695245
 20
866.3729269529791
 30
0.0
  0
VERTEX
  5
107
  8
LAYER_1
 10
395.2438134959763
 20
863.1895345794309
 30
0.0
  0
VERTEX
  5
108
  8
LAYER_1
 10
393.0907202591013
 20
871.2249879328813
 30
0.0
  0
VERTEX
  5
109
  8
LAYER_1
 10
385.8863298746471
 20
867.0655312050694
 30
0.0
  0
VERTEX
  5
10A
  8
LAYER_1
 10
385.8863298746471
 20
871.5675278740965
 30
0.0
  0
VERTEX
  5
10B
  8
LAYER_1
 10
381.4336379510544
 20
871.5675278740965
 30
0.0
  0
VERTEX
  5
10C
  8
LAYER_1
 10
379.7942991064026
 20
873.7886556127567
 30
0.0
  0
VERTEX
  5
10D
  8
LAYER_1
 10
381.6356828884166
 20
875.6300393947706
 30
0.0
  0
VERTEX
  5
10E
  8
LAYER_1
 10
394.9153523175672
 20
875.6300393947706
 30
0.0
  0
VERTEX
  5
10F
  8
LAYER_1
 10
404.3054966228354
 20
866.2398950895024
 30
0.0
  0
SEQEND
  5
110
  8
LAYER_1
  0
POLYLINE
  5
53
  8
LAYER_1
 66
     1
 10
0.0
 20
0.0
 30
0.0
 70
     1
  0
VERTEX
  5
111
  8
LAYER_1
 10
395.9419632488692
 20
846.1638608455166
 30
0.0
  0
VERTEX
  5
112
  8
LAYER_1
 10
391.5435142446522
 20
841.7654118412997
 30
0.0
  0
VERTEX
  5
113
  8
LAYER_1
 10
385.3206676011528
 20
841.7654075386736
 30
0.0
  0
VERTEX
  5
114
  8
LAYER_1
 10
385.3206719037788
 20
847.988254182173
 30
0.0
  0
VERTEX
  5
115
  8
LAYER_1
 10
389.7191209079958
 20
852.38670318639
 30
0.0
  0
VERTEX
  5
116
  8
LAYER_1
 10
394.6269244128688
 20
851.0716643503896
 30
0.0
  0
SEQEND
  5
117
  8
LAYER_1
  0
POLYLINE
  5
54
  8
LAYER_1
 66
     1
 10
0.0
 20
0.0
 30
0.0
 70
     1
  0
VERTEX
  5
118
  8
LAYER_1
 10
365.7886953241217
 20
816.0105929207692
 30
0.0
  0
VERTEX
  5
119
  8
LAYER_1
 10
360.8808918192487
 20
817.3256317567697
 30
0.0
  0
VERTEX
  5
11A
  8
LAYER_1
 10
359.5658529832483
 20
822.2334352616426
 30
0.0
  0
VERTEX
  5
11B
  8
LAYER_1
 10
363.9643019874653
 20
826.6318842658595
 30
0.0
  0
VERTEX
  5
11C
  8
LAYER_1
 10
370.1871486309648
 20
826.6318885684857
 30
0.0
  0
VERTEX
  5
11D
  8
LAYER_1
 10
370.1871443283387
 20
820.4090419249862
 30
0.0
  0
SEQEND
  5
11E
  8
LAYER_1
  0
POLYLINE
  5
55
  8
LAYER_1
 66
     1
 10
0.0
 20
0.0
 30
0.0
 70
     1
  0
VERTEX
  5
11F
  8
LAYER_1
 10
419.1512877300249
 20
879.3622471358726
 30
0.0
  0
VERTEX
  5
120
  8
LAYER_1
 10
408.5770869461593
 20
879.3622471358726
 30
0.0
  0
VERTEX
  5
121
  8
LAYER_1
 10
403.7421278271848
 20
884.1972062548473
 30
0.0
  0
VERTEX
  5
122
  8
LAYER_1
 10
414.3163286110504
 20
884.1972062548473
 30
0.0
  0
SEQEND
  5
123
  8
LAYER_1
  0
POLYLINE
  5
56
  8
LAYER_1
 66
     1
 10
0.0
 20
0.0
 30
0.0
 70
     1
  0
VERTEX
  5
124
  8
LAYER_1
 10
332.5903090337657
 20
792.8012684396135
 30
0.0
  0
VERTEX
  5
125
  8
LAYER_1
 10
332.5903090337657
 20
803.3754692234791
 30
0.0
  0
VERTEX
  5
126
  8
LAYER_1
 10
327.7553499147912
 20
808.2104283424536
 30
0.0
  0
VERTEX
  5
127
  8
LAYER_1
 10
327.7553499147912
 20
797.636227558588
 30
0.0
  0
SEQEND
  5
128
  8
LAYER_1
  0
POLYLINE
  5
57
  8
LAYER_1
 66
     1
 10
0.0
 20
0.0
 30
0.0
 70
     1
  0
VERTEX
  5
129
  8
LAYER_1
 10
381.5884641626767
 20
824.9412108401548
 30
0.0
  0
VERTEX
  5
12A
  8
LAYER_1
 10
381.5884598600506
 20
830.3640963095877
 30
0.0
  0
VERTEX
  5
12B
  8
LAYER_1
 10
387.0113453294836
 20
830.3640920069616
 30
0.0
  0
VERTEX
  5
12C
  8
LAYER_1
 10
383.1767831980335
 20
834.1986480535796
 30
0.0
  0
VERTEX
  5
12D
  8
LAYER_1
 10
387.0113453294836
 20
838.0332041001976
 30
0.0
  0
VERTEX
  5
12E
  8
LAYER_1
 10
381.5884598600506
 20
838.0331997975716
 30
0.0
  0
VERTEX
  5
12F
  8
LAYER_1
 10
381.5884641626767
 20
843.4560852670045
 30
0.0
  0
VERTEX
  5
130
  8
LAYER_1
 10
377.7539081160587
 20
839.6215231355544
 30
0.0
  0
VERTEX
  5
131
  8
LAYER_1
 10
373.9193520694408
 20
843.4560852670045
 30
0.0
  0
VERTEX
  5
132
  8
LAYER_1
 10
373.9193563720669
 20
838.0331997975716
 30
0.0
  0
VERTEX
  5
133
  8
LAYER_1
 10
368.4964709026339
 20
838.0332041001976
 30
0.0
  0
VERTEX
  5
134
  8
LAYER_1
 10
372.331033034084
 20
834.1986480535796
 30
0.0
  0
VERTEX
  5
135
  8
LAYER_1
 10
368.4964709026339
 20
830.3640920069616
 30
0.0
  0
VERTEX
  5
136
  8
LAYER_1
 10
373.9193563720669
 20
830.3640963095877
 30
0.0
  0
VERTEX
  5
137
  8
LAYER_1
 10
373.9193520694408
 20
824.9412108401548
 30
0.0
  0
VERTEX
  5
138
  8
LAYER_1
 10
377.7539081160587
 20
828.7757729716049
 30
0.0
  0
SEQEND
  5
139
  8
LAYER_1
  0
POLYLINE
  5
58
  8
LAYER_1
 66
     1
 10
0.0
 20
0.0
 30
0.0
 70
     1
  0
VERTEX
  5
13A
  8
LAYER_1
 10
343.1985215448561
 20
792.7672567123886
 30
0.0
  0
VERTEX
  5
13B
  8
LAYER_1
 10
339.760519159862
 20
796.2052590973829
 30
0.0
  0
VERTEX
  5
13C
  8
LAYER_1
 10
336.3225167748678
 20
799.643261482377
 30
0.0
  0
VERTEX
  5
13D
  8
LAYER_1
 10
336.3210749761354
 20
792.7658149136563
 30
0.0
  0
SEQEND
  5
13E
  8
LAYER_1
  0
POLYLINE
  5
59
  8
LAYER_1
 66
     1
 10
0.0
 20
0.0
 30
0.0
 70
     1
  0
VERTEX
  5
13F
  8
LAYER_1
 10
419.1852994572497
 20
868.7540346247822
 30
0.0
  0
VERTEX
  5
140
  8
LAYER_1
 10
415.7472970722555
 20
872.1920370097764
 30
0.0
  0
VERTEX
  5
141
  8
LAYER_1
 10
412.3092946872613
 20
875.6300393947706
 30
0.0
  0
VERTEX
  5
142
  8
LAYER_1
 10
419.1867412559822
 20
875.631481193503
 30
0.0
  0
SEQEND
  5
143
  8
LAYER_1
  0
POLYLINE
  5
5A
  8
LAYER_1
 66
     1
 10
0.0
 20
0.0
 30
0.0
 70
     1
  0
VERTEX
  5
144
  8
LAYER_1
 10
335.9133488160068
 20
784.200089852312
 30
0.0
  0
VERTEX
  5
145
  8
LAYER_1
 10
331.8343493653989
 20
788.2790893029198
 30
0.0
  0
VERTEX
  5
146
  8
LAYER_1
 10
327.7553499147912
 20
792.3580887535277
 30
0.0
  0
VERTEX
  5
147
  8
LAYER_1
 10
327.7539081160587
 20
784.1986480535796
 30
0.0
  0
SEQEND
  5
148
  8
LAYER_1
  0
POLYLINE
  5
5B
  8
LAYER_1
 66
     1
 10
0.0
 20
0.0
 30
0.0
 70
     1
  0
VERTEX
  5
149
  8
LAYER_1
 10
427.7524663173264
 20
876.0392073536316
 30
0.0
  0
VERTEX
  5
14A
  8
LAYER_1
 10
423.6734668667185
 20
880.1182068042394
 30
0.0
  0
VERTEX
  5
14B
  8
LAYER_1
 10
419.5944674161108
 20
884.1972062548473
 30
0.0
  0
VERTEX
  5
14C
  8
LAYER_1
 10
427.7539081160587
 20
884.1986480535796
 30
0.0
  0
SEQEND
  5
14D
  8
LAYER_1
  0
POLYLINE
  5
5C
  8
LAYER_1
 66
     1
 10
0.0
 20
0.0
 30
0.0
 70
     1
  0
VERTEX
  5
14E
  8
LAYER_1
 10
373.2952961340077
 20
807.7624222535189
 30
0.0
  0
VERTEX
  5
14F
  8
LAYER_1
 10
369.5995028377658
 20
808.7527070826393
 30
0.0
  0
VERTEX
  5
150
  8
LAYER_1
 10
369.5995028377658
 20
814.5121722376381
 30
0.0
  0
VERTEX
  5
151
  8
LAYER_1
 10
365.5269459706585
 20
810.4396153705309
 30
0.0
  0
VERTEX
  5
152
  8
LAYER_1
 10
362.213388351045
 20
812.3526987541901
 30
0.0
  0
VERTEX
  5
153
  8
LAYER_1
 10
364.7632598405106
 20
802.8364488027328
 30
0.0
  0
SEQEND
  5
154
  8
LAYER_1
  0
POLYLINE
  5
5D
  8
LAYER_1
 66
     1
 10
0.0
 20
0.0
 30
0.0
 70
     1
  0
VERTEX
  5
155
  8
LAYER_1
 10
404.1901339161195
 20
838.6572600356307
 30
0.0
  0
VERTEX
  5
156
  8
LAYER_1
 10
403.1998490869991
 20
842.3530533318726
 30
0.0
  0
VERTEX
  5
157
  8
LAYER_1
 10
397.4403839320003
 20
842.3530533318726
 30
0.0
  0
VERTEX
  5
158
  8
LAYER_1
 10
401.5129407991076
 20
846.4256101989798
 30
0.0
  0
VERTEX
  5
159
  8
LAYER_1
 10
399.5998574154484
 20
849.7391678185934
 30
0.0
  0
VERTEX
  5
15A
  8
LAYER_1
 10
409.1161073669057
 20
847.1892963291277
 30
0.0
  0
SEQEND
  5
15B
  8
LAYER_1
  0
POLYLINE
  5
5E
  8
LAYER_1
 66
     1
 10
0.0
 20
0.0
 30
0.0
 70
     1
  0
VERTEX
  5
15C
  8
LAYER_1
 10
419.1852994572497
 20
856.6382310601485
 30
0.0
  0
VERTEX
  5
15D
  8
LAYER_1
 10
419.1852994572497
 20
863.4758958197218
 30
0.0
  0
VERTEX
  5
15E
  8
LAYER_1
 10
413.1082276697254
 20
869.5529676072463
 30
0.0
  0
VERTEX
  5
15F
  8
LAYER_1
 10
407.031155882201
 20
875.6300393947706
 30
0.0
  0
VERTEX
  5
160
  8
LAYER_1
 10
400.1934911226277
 20
875.6300393947706
 30
0.0
  0
VERTEX
  5
161
  8
LAYER_1
 10
408.0377043639375
 20
867.7858261534608
 30
0.0
  0
VERTEX
  5
162
  8
LAYER_1
 10
408.0609537892763
 20
864.5056937267972
 30
0.0
  0
VERTEX
  5
163
  8
LAYER_1
 10
411.34108621594
 20
864.4824443014584
 30
0.0
  0
SEQEND
  5
164
  8
LAYER_1
  0
POLYLINE
  5
5F
  8
LAYER_1
 66
     1
 10
0.0
 20
0.0
 30
0.0
 70
     1
  0
VERTEX
  5
165
  8
LAYER_1
 10
355.3143251094898
 20
792.7672567123886
 30
0.0
  0
VERTEX
  5
166
  8
LAYER_1
 10
347.4701118681801
 20
800.6114699536985
 30
0.0
  0
VERTEX
  5
167
  8
LAYER_1
 10
347.4468624428412
 20
803.8916023803621
 30
0.0
  0
VERTEX
  5
168
  8
LAYER_1
 10
344.1667300161776
 20
803.9148518057009
 30
0.0
  0
VERTEX
  5
169
  8
LAYER_1
 10
336.3225167748678
 20
811.7590650470107
 30
0.0
  0
VERTEX
  5
16A
  8
LAYER_1
 10
336.3225167748678
 20
804.9214002874375
 30
0.0
  0
VERTEX
  5
16B
  8
LAYER_1
 10
342.3995885623922
 20
798.844328499913
 30
0.0
  0
VERTEX
  5
16C
  8
LAYER_1
 10
348.4766603499165
 20
792.7672567123886
 30
0.0
  0
SEQEND
  5
16D
  8
LAYER_1
  0
POLYLINE
  5
60
  8
LAYER_1
 66
     1
 10
0.0
 20
0.0
 30
0.0
 70
     1
  0
VERTEX
  5
16E
  8
LAYER_1
 10
382.1541221335451
 20
812.8770678290559
 30
0.0
  0
VERTEX
  5
16F
  8
LAYER_1
 10
377.7539081160587
 20
810.3365995684887
 30
0.0
  0
VERTEX
  5
170
  8
LAYER_1
 10
373.3536940985724
 20
812.8770678290559
 30
0.0
  0
VERTEX
  5
171
  8
LAYER_1
 10
373.3536940985724
 20
819.097414064226
 30
0.0
  0
VERTEX
  5
172
  8
LAYER_1
 10
377.7539081160587
 20
823.4976341665445
 30
0.0
  0
VERTEX
  5
173
  8
LAYER_1
 10
382.1541221335451
 20
819.097414064226
 30
0.0
  0
SEQEND
  5
174
  8
LAYER_1
  0
POLYLINE
  5
61
  8
LAYER_1
 66
     1
 10
0.0
 20
0.0
 30
0.0
 70
     1
  0
VERTEX
  5
175
  8
LAYER_1
 10
399.0754883405825
 20
829.7984340360933
 30
0.0
  0
VERTEX
  5
176
  8
LAYER_1
 10
392.8551421054124
 20
829.7984340360933
 30
0.0
  0
VERTEX
  5
177
  8
LAYER_1
 10
388.4549220030939
 20
834.1986480535796
 30
0.0
  0
VERTEX
  5
178
  8
LAYER_1
 10
392.8551421054124
 20
838.5988620710659
 30
0.0
  0
VERTEX
  5
179
  8
LAYER_1
 10
399.0754883405825
 20
838.5988620710659
 30
0.0
  0
VERTEX
  5
17A
  8
LAYER_1
 10
401.6159566011497
 20
834.1986480535796
 30
0.0
  0
SEQEND
  5
17B
  8
LAYER_1
  0
POLYLINE
  5
62
  8
LAYER_1
 66
     1
 10
0.0
 20
0.0
 30
0.0
 70
     1
  0
VERTEX
  5
17C
  8
LAYER_1
 10
351.7656884049327
 20
784.200089852312
 30
0.0
  0
VERTEX
  5
17D
  8
LAYER_1
 10
346.9307292859581
 20
789.0350489712866
 30
0.0
  0
VERTEX
  5
17E
  8
LAYER_1
 10
336.3565285020926
 20
789.0350489712866
 30
0.0
  0
VERTEX
  5
17F
  8
LAYER_1
 10
341.1914876210672
 20
784.2000898523121
 30
0.0
  0
SEQEND
  5
180
  8
LAYER_1
  0
POLYLINE
  5
63
  8
LAYER_1
 66
     1
 10
0.0
 20
0.0
 30
0.0
 70
     1
  0
VERTEX
  5
181
  8
LAYER_1
 10
427.7524663173264
 20
860.1868677647057
 30
0.0
  0
VERTEX
  5
182
  8
LAYER_1
 10
427.7524663173264
 20
870.7610685485713
 30
0.0
  0
VERTEX
  5
183
  8
LAYER_1
 10
422.9175071983518
 20
875.5960276675457
 30
0.0
  0
VERTEX
  5
184
  8
LAYER_1
 10
422.9175071983518
 20
865.0218268836802
 30
0.0
  0
SEQEND
  5
185
  8
LAYER_1
  0
POLYLINE
  5
64
  8
LAYER_1
 66
     1
 10
0.0
 20
0.0
 30
0.0
 70
     1
  0
VERTEX
  5
186
  8
LAYER_1
 10
373.8721333437009
 20
792.7672567123886
 30
0.0
  0
VERTEX
  5
187
  8
LAYER_1
 10
375.7135171257149
 20
794.6086404944026
 30
0.0
  0
VERTEX
  5
188
  8
LAYER_1
 10
374.0741782810632
 20
796.8297682330627
 30
0.0
  0
VERTEX
  5
189
  8
LAYER_1
 10
369.6214863574703
 20
796.8297682330627
 30
0.0
  0
VERTEX
  5
18A
  8
LAYER_1
 10
369.6214863574703
 20
801.3317649020898
 30
0.0
  0
VERTEX
  5
18B
  8
LAYER_1
 10
362.4170959730162
 20
797.172308174278
 30
0.0
  0
VERTEX
  5
18C
  8
LAYER_1
 10
360.2640027361413
 20
805.2077615277284
 30
0.0
  0
VERTEX
  5
18D
  8
LAYER_1
 10
357.080610362593
 20
802.0243691541801
 30
0.0
  0
VERTEX
  5
18E
  8
LAYER_1
 10
353.932081708886
 20
805.1728978078871
 30
0.0
  0
VERTEX
  5
18F
  8
LAYER_1
 10
351.2023196092821
 20
804.7615109357148
 30
0.0
  0
VERTEX
  5
190
  8
LAYER_1
 10
351.2023196092821
 20
802.1574010176569
 30
0.0
  0
VERTEX
  5
191
  8
LAYER_1
 10
360.5924639145502
 20
792.7672567123886
 30
0.0
  0
SEQEND
  5
192
  8
LAYER_1
  0
POLYLINE
  5
65
  8
LAYER_1
 66
     1
 10
0.0
 20
0.0
 30
0.0
 70
     1
  0
VERTEX
  5
193
  8
LAYER_1
 10
419.1852994572497
 20
838.0804228259375
 30
0.0
  0
VERTEX
  5
194
  8
LAYER_1
 10
417.3439156752357
 20
836.2390390439234
 30
0.0
  0
VERTEX
  5
195
  8
LAYER_1
 10
415.1227879365756
 20
837.8783778885752
 30
0.0
  0
VERTEX
  5
196
  8
LAYER_1
 10
415.1227879365756
 20
842.331069812168
 30
0.0
  0
VERTEX
  5
197
  8
LAYER_1
 10
410.6207912675486
 20
842.331069812168
 30
0.0
  0
VERTEX
  5
198
  8
LAYER_1
 10
414.7802479953604
 20
849.5354601966221
 30
0.0
  0
VERTEX
  5
199
  8
LAYER_1
 10
406.7447946419101
 20
851.6885534334971
 30
0.0
  0
VERTEX
  5
19A
  8
LAYER_1
 10
409.9281870154583
 20
854.8719458070453
 30
0.0
  0
VERTEX
  5
19B
  8
LAYER_1
 10
406.7796583617512
 20
858.0204744607524
 30
0.0
  0
VERTEX
  5
19C
  8
LAYER_1
 10
407.1910452339235
 20
860.7502365603563
 30
0.0
  0
VERTEX
  5
19D
  8
LAYER_1
 10
409.7951551519816
 20
860.7502365603563
 30
0.0
  0
VERTEX
  5
19E
  8
LAYER_1
 10
419.1852994572497
 20
851.3600922550881
 30
0.0
  0
SEQEND
  5
19F
  8
LAYER_1
  0
POLYLINE
  5
66
  8
LAYER_1
 66
     1
 10
0.0
 20
0.0
 30
0.0
 70
     1
  0
VERTEX
  5
1A0
  8
LAYER_1
 10
363.8814919695665
 20
784.200089852312
 30
0.0
  0
VERTEX
  5
1A1
  8
LAYER_1
 10
359.0465328505919
 20
789.0350489712866
 30
0.0
  0
VERTEX
  5
1A2
  8
LAYER_1
 10
352.2088680910185
 20
789.0350489712866
 30
0.0
  0
VERTEX
  5
1A3
  8
LAYER_1
 10
357.0438272099932
 20
784.200089852312
 30
0.0
  0
SEQEND
  5
1A4
  8
LAYER_1
  0
POLYLINE
  5
67
  8
LAYER_1
 66
     1
 10
0.0
 20
0.0
 30
0.0
 70
     1
  0
VERTEX
  5
1A5
  8
LAYER_1
 10
427.7524663173264
 20
848.071064200072
 30
0.0
  0
VERTEX
  5
1A6
  8
LAYER_1
 10
422.9175071983518
 20
852.9060233190464
 30
0.0
  0
VERTEX
  5
1A7
  8
LAYER_1
 10
422.9175071983517
 20
859.7436880786198
 30
0.0
  0
VERTEX
  5
1A8
  8
LAYER_1
 10
427.7524663173264
 20
854.9087289596453
 30
0.0
  0
SEQEND
  5
1A9
  8
LAYER_1
  0
POLYLINE
  5
68
  8
LAYER_1
 66
     1
 10
0.0
 20
0.0
 30
0.0
 70
     1
  0
VERTEX
  5
1AA
  8
LAYER_1
 10
409.1161073669057
 20
821.2079997780315
 30
0.0
  0
VERTEX
  5
1AB
  8
LAYER_1
 10
404.1901339161195
 20
829.7400360715286
 30
0.0
  0
VERTEX
  5
1AC
  8
LAYER_1
 10
403.1998490869991
 20
826.0442427752866
 30
0.0
  0
VERTEX
  5
1AD
  8
LAYER_1
 10
397.4403839320003
 20
826.0442427752866
 30
0.0
  0
VERTEX
  5
1AE
  8
LAYER_1
 10
401.5129407991076
 20
821.9716859081794
 30
0.0
  0
VERTEX
  5
1AF
  8
LAYER_1
 10
399.5998574154484
 20
818.6581282885659
 30
0.0
  0
SEQEND
  5
1B0
  8
LAYER_1
  0
POLYLINE
  5
69
  8
LAYER_1
 66
     1
 10
0.0
 20
0.0
 30
0.0
 70
     1
  0
VERTEX
  5
1B1
  8
LAYER_1
 10
390.7445563916069
 20
802.8364488027327
 30
0.0
  0
VERTEX
  5
1B2
  8
LAYER_1
 10
393.2944278810726
 20
812.35269875419
 30
0.0
  0
VERTEX
  5
1B3
  8
LAYER_1
 10
389.980870261459
 20
810.4396153705309
 30
0.0
  0
VERTEX
  5
1B4
  8
LAYER_1
 10
385.9083133943517
 20
814.5121722376381
 30
0.0
  0
VERTEX
  5
1B5
  8
LAYER_1
 10
385.9083133943517
 20
808.7527070826393
 30
0.0
  0
VERTEX
  5
1B6
  8
LAYER_1
 10
382.2125200981097
 20
807.7624222535189
 30
0.0
  0
SEQEND
  5
1B7
  8
LAYER_1
  0
POLYLINE
  5
6A
  8
LAYER_1
 66
     1
 10
0.0
 20
0.0
 30
0.0
 70
     1
  0
VERTEX
  5
1B8
  8
LAYER_1
 10
419.1852994572497
 20
817.0372038520711
 30
0.0
  0
VERTEX
  5
1B9
  8
LAYER_1
 10
409.7951551519816
 20
807.647059546803
 30
0.0
  0
VERTEX
  5
1BA
  8
LAYER_1
 10
407.1910452339235
 20
807.647059546803
 30
0.0
  0
VERTEX
  5
1BB
  8
LAYER_1
 10
406.7796583617512
 20
810.3768216464068
 30
0.0
  0
VERTEX
  5
1BC
  8
LAYER_1
 10
409.9281870154583
 20
813.5253503001139
 30
0.0
  0
VERTEX
  5
1BD
  8
LAYER_1
 10
406.7447946419101
 20
816.7087426736622
 30
0.0
  0
VERTEX
  5
1BE
  8
LAYER_1
 10
414.7802479953604
 20
818.8618359105371
 30
0.0
  0
VERTEX
  5
1BF
  8
LAYER_1
 10
410.6207912675486
 20
826.0662262949912
 30
0.0
  0
VERTEX
  5
1C0
  8
LAYER_1
 10
415.1227879365756
 20
826.0662262949912
 30
0.0
  0
VERTEX
  5
1C1
  8
LAYER_1
 10
415.1227879365756
 20
830.5189182185841
 30
0.0
  0
VERTEX
  5
1C2
  8
LAYER_1
 10
417.3439156752357
 20
832.1582570632357
 30
0.0
  0
VERTEX
  5
1C3
  8
LAYER_1
 10
419.1852994572497
 20
830.3168732812218
 30
0.0
  0
SEQEND
  5
1C4
  8
LAYER_1
  0
POLYLINE
  5
6B
  8
LAYER_1
 66
     1
 10
0.0
 20
0.0
 30
0.0
 70
     1
  0
VERTEX
  5
1C5
  8
LAYER_1
 10
394.9153523175672
 20
792.7672567123886
 30
0.0
  0
VERTEX
  5
1C6
  8
LAYER_1
 10
381.6356828884166
 20
792.7672567123886
 30
0.0
  0
VERTEX
  5
1C7
  8
LAYER_1
 10
379.7942991064026
 20
794.6086404944026
 30
0.0
  0
VERTEX
  5
1C8
  8
LAYER_1
 10
381.4336379510544
 20
796.8297682330627
 30
0.0
  0
VERTEX
  5
1C9
  8
LAYER_1
 10
385.8863298746471
 20
796.8297682330627
 30
0.0
  0
VERTEX
  5
1CA
  8
LAYER_1
 10
385.8863298746471
 20
801.3317649020898
 30
0.0
  0
VERTEX
  5
1CB
  8
LAYER_1
 10
393.0907202591012
 20
797.172308174278
 30
0.0
  0
VERTEX
  5
1CC
  8
LAYER_1
 10
395.2438134959763
 20
805.2077615277284
 30
0.0
  0
VERTEX
  5
1CD
  8
LAYER_1
 10
398.4272058695245
 20
802.0243691541801
 30
0.0
  0
VERTEX
  5
1CE
  8
LAYER_1
 10
401.5757345232315
 20
805.1728978078871
 30
0.0
  0
VERTEX
  5
1CF
  8
LAYER_1
 10
404.3054966228353
 20
804.7615109357148
 30
0.0
  0
VERTEX
  5
1D0
  8
LAYER_1
 10
404.3054966228353
 20
802.1574010176568
 30
0.0
  0
SEQEND
  5
1D1
  8
LAYER_1
  0
POLYLINE
  5
6C
  8
LAYER_1
 66
     1
 10
0.0
 20
0.0
 30
0.0
 70
     1
  0
VERTEX
  5
1D2
  8
LAYER_1
 10
386.3481854574907
 20
784.200089852312
 30
0.0
  0
VERTEX
  5
1D3
  8
LAYER_1
 10
391.1831445764651
 20
789.0350489712866
 30
0.0
  0
VERTEX
  5
1D4
  8
LAYER_1
 10
380.0897518244583
 20
789.0350489712866
 30
0.0
  0
VERTEX
  5
1D5
  8
LAYER_1
 10
377.7539081160587
 20
791.3380130270546
 30
0.0
  0
VERTEX
  5
1D6
  8
LAYER_1
 10
375.4180644076592
 20
789.0350489712866
 30
0.0
  0
VERTEX
  5
1D7
  8
LAYER_1
 10
364.3246716556523
 20
789.0350489712866
 30
0.0
  0
VERTEX
  5
1D8
  8
LAYER_1
 10
369.1596307746269
 20
784.200089852312
 30
0.0
  0
VERTEX
  5
1D9
  8
LAYER_1
 10
377.7539081160587
 20
784.200089852312
 30
0.0
  0
SEQEND
  5
1DA
  8
LAYER_1
  0
POLYLINE
  5
6D
  8
LAYER_1
 66
     1
 10
0.0
 20
0.0
 30
0.0
 70
     1
  0
VERTEX
  5
1DB
  8
LAYER_1
 10
427.7524663173264
 20
825.6043707121478
 30
0.0
  0
VERTEX
  5
1DC
  8
LAYER_1
 10
422.9175071983518
 20
820.7694115931732
 30
0.0
  0
VERTEX
  5
1DD
  8
LAYER_1
 10
422.9175071983518
 20
831.8628043451802
 30
0.0
  0
VERTEX
  5
1DE
  8
LAYER_1
 10
420.6145431425839
 20
834.1986480535796
 30
0.0
  0
VERTEX
  5
1DF
  8
LAYER_1
 10
422.9175071983518
 20
836.5344917619791
 30
0.0
  0
VERTEX
  5
1E0
  8
LAYER_1
 10
422.9175071983518
 20
847.627884513986
 30
0.0
  0
VERTEX
  5
1E1
  8
LAYER_1
 10
427.7524663173264
 20
842.7929253950115
 30
0.0
  0
VERTEX
  5
1E2
  8
LAYER_1
 10
427.7524663173264
 20
834.1986480535796
 30
0.0
  0
SEQEND
  5
1E3
  8
LAYER_1
  0
POLYLINE
  5
6E
  8
LAYER_1
 66
     1
 10
0.0
 20
0.0
 30
0.0
 70
     1
  0
VERTEX
  5
1E4
  8
LAYER_1
 10
419.1852994572497
 20
804.9214002874375
 30
0.0
  0
VERTEX
  5
1E5
  8
LAYER_1
 10
413.1082276697254
 20
798.844328499913
 30
0.0
  0
VERTEX
  5
1E6
  8
LAYER_1
 10
407.031155882201
 20
792.7672567123886
 30
0.0
  0
VERTEX
  5
1E7
  8
LAYER_1
 10
400.1934911226277
 20
792.7672567123886
 30
0.0
  0
VERTEX
  5
1E8
  8
LAYER_1
 10
408.0377043639375
 20
800.6114699536984
 30
0.0
  0
VERTEX
  5
1E9
  8
LAYER_1
 10
408.0609537892763
 20
803.8916023803621
 30
0.0
  0
VERTEX
  5
1EA
  8
LAYER_1
 10
411.34108621594
 20
803.9148518057009
 30
0.0
  0
VERTEX
  5
1EB
  8
LAYER_1
 10
419.1852994572497
 20
811.7590650470106
 30
0.0
  0
SEQEND
  5
1EC
  8
LAYER_1
  0
POLYLINE
  5
6F
  8
LAYER_1
 66
     1
 10
0.0
 20
0.0
 30
0.0
 70
     1
  0
VERTEX
  5
1ED
  8
LAYER_1
 10
398.4639890221243
 20
784.200089852312
 30
0.0
  0
VERTEX
  5
1EE
  8
LAYER_1
 10
403.298948141099
 20
789.0350489712866
 30
0.0
  0
VERTEX
  5
1EF
  8
LAYER_1
 10
396.4612833815256
 20
789.0350489712866
 30
0.0
  0
VERTEX
  5
1F0
  8
LAYER_1
 10
391.626324262551
 20
784.200089852312
 30
0.0
  0
SEQEND
  5
1F1
  8
LAYER_1
  0
POLYLINE
  5
70
  8
LAYER_1
 66
     1
 10
0.0
 20
0.0
 30
0.0
 70
     1
  0
VERTEX
  5
1F2
  8
LAYER_1
 10
414.3163286110504
 20
784.2000898523121
 30
0.0
  0
VERTEX
  5
1F3
  8
LAYER_1
 10
419.1512877300249
 20
789.0350489712866
 30
0.0
  0
VERTEX
  5
1F4
  8
LAYER_1
 10
408.5770869461593
 20
789.0350489712866
 30
0.0
  0
VERTEX
  5
1F5
  8
LAYER_1
 10
403.7421278271847
 20
784.200089852312
 30
0.0
  0
SEQEND
  5
1F6
  8
LAYER_1
  0
POLYLINE
  5
71
  8
LAYER_1
 66
     1
 10
0.0
 20
0.0
 30
0.0
 70
     1
  0
VERTEX
  5
1F7
  8
LAYER_1
 10
427.7524663173264
 20
797.636227558588
 30
0.0
  0
VERTEX
  5
1F8
  8
LAYER_1
 10
422.9175071983518
 20
792.8012684396135
 30
0.0
  0
VERTEX
  5
1F9
  8
LAYER_1
 10
422.9175071983518
 20
803.3754692234791
 30
0.0
  0
VERTEX
  5
1FA
  8
LAYER_1
 10
427.7524663173264
 20
808.2104283424536
 30
0.0
  0
SEQEND
  5
1FB
  8
LAYER_1
  0
POLYLINE
  5
72
  8
LAYER_1
 66
     1
 10
0.0
 20
0.0
 30
0.0
 70
     1
  0
VERTEX
  5
1FC
  8
LAYER_1
 10
347.4468624428412
 20
864.5056937267972
 30
0.0
  0
VERTEX
  5
1FD
  8
LAYER_1
 10
347.4701118681801
 20
867.7858261534609
 30
0.0
  0
VERTEX
  5
1FE
  8
LAYER_1
 10
355.3143251094898
 20
875.6300393947706
 30
0.0
  0
VERTEX
  5
1FF
  8
LAYER_1
 10
348.4766603499165
 20
875.6300393947706
 30
0.0
  0
VERTEX
  5
200
  8
LAYER_1
 10
342.3995885623922
 20
869.5529676072463
 30
0.0
  0
VERTEX
  5
201
  8
LAYER_1
 10
336.3225167748678
 20
863.4758958197218
 30
0.0
  0
VERTEX
  5
202
  8
LAYER_1
 10
336.3225167748678
 20
856.6382310601487
 30
0.0
  0
VERTEX
  5
203
  8
LAYER_1
 10
344.1667300161776
 20
864.4824443014584
 30
0.0
  0
SEQEND
  5
204
  8
LAYER_1
  0
POLYLINE
  5
73
  8
LAYER_1
 66
     1
 10
0.0
 20
0.0
 30
0.0
 70
     1
  0
VERTEX
  5
205
  8
LAYER_1
 10
357.8335619275715
 20
854.1189942420668
 30
0.0
  0
VERTEX
  5
206
  8
LAYER_1
 10
352.9257584226987
 20
852.8039554060664
 30
0.0
  0
VERTEX
  5
207
  8
LAYER_1
 10
350.8577680217196
 20
854.8719458070453
 30
0.0
  0
VERTEX
  5
208
  8
LAYER_1
 10
352.6994566183204
 20
856.713634403646
 30
0.0
  0
VERTEX
  5
209
  8
LAYER_1
 10
352.2488323505489
 20
859.7037238190894
 30
0.0
  0
VERTEX
  5
20A
  8
LAYER_1
 10
355.2389217659924
 20
859.253099551318
 30
0.0
  0
VERTEX
  5
20B
  8
LAYER_1
 10
357.080610362593
 20
861.0947881479187
 30
0.0
  0
VERTEX
  5
20C
  8
LAYER_1
 10
359.1486007635719
 20
859.0267977469398
 30
0.0
  0
SEQEND
  5
20D
  8
LAYER_1
  0
POLYLINE
  5
74
  8
LAYER_1
 66
     1
 10
0.0
 20
0.0
 30
0.0
 70
     1
  0
VERTEX
  5
20E
  8
LAYER_1
 10
349.5822843691329
 20
834.1986480535796
 30
0.0
  0
VERTEX
  5
20F
  8
LAYER_1
 10
347.0418161085657
 20
829.7984340360933
 30
0.0
  0
VERTEX
  5
210
  8
LAYER_1
 10
344.1172360366439
 20
829.7984340360933
 30
0.0
  0
VERTEX
  5
211
  8
LAYER_1
 10
344.1172360366439
 20
832.4029750270738
 30
0.0
  0
VERTEX
  5
212
  8
LAYER_1
 10
341.6842840591214
 20
834.1986480535796
 30
0.0
  0
VERTEX
  5
213
  8
LAYER_1
 10
344.1172360366439
 20
835.9943210800855
 30
0.0
  0
VERTEX
  5
214
  8
LAYER_1
 10
344.1172360366439
 20
838.5988620710659
 30
0.0
  0
VERTEX
  5
215
  8
LAYER_1
 10
347.0418161085657
 20
838.5988620710659
 30
0.0
  0
SEQEND
  5
216
  8
LAYER_1
  0
POLYLINE
  5
75
  8
LAYER_1
 66
     1
 10
0.0
 20
0.0
 30
0.0
 70
     1
  0
VERTEX
  5
217
  8
LAYER_1
 10
377.7539081160587
 20
862.3702718005054
 30
0.0
  0
VERTEX
  5
218
  8
LAYER_1
 10
382.1541221335451
 20
864.9107400610726
 30
0.0
  0
VERTEX
  5
219
  8
LAYER_1
 10
382.1541221335451
 20
867.8353201329944
 30
0.0
  0
VERTEX
  5
21A
  8
LAYER_1
 10
379.5495811425645
 20
867.8353201329944
 30
0.0
  0
VERTEX
  5
21B
  8
LAYER_1
 10
377.7539081160587
 20
870.268272110517
 30
0.0
  0
VERTEX
  5
21C
  8
LAYER_1
 10
375.958235089553
 20
867.8353201329944
 30
0.0
  0
VERTEX
  5
21D
  8
LAYER_1
 10
373.3536940985724
 20
867.8353201329944
 30
0.0
  0
VERTEX
  5
21E
  8
LAYER_1
 10
373.3536940985724
 20
864.9107400610726
 30
0.0
  0
SEQEND
  5
21F
  8
LAYER_1
  0
POLYLINE
  5
76
  8
LAYER_1
 66
     1
 10
0.0
 20
0.0
 30
0.0
 70
     1
  0
VERTEX
  5
220
  8
LAYER_1
 10
370.1871486309648
 20
841.7654075386736
 30
0.0
  0
VERTEX
  5
221
  8
LAYER_1
 10
363.9643019874653
 20
841.7654118412997
 30
0.0
  0
VERTEX
  5
222
  8
LAYER_1
 10
359.5658529832483
 20
846.1638608455166
 30
0.0
  0
VERTEX
  5
223
  8
LAYER_1
 10
360.8808918192487
 20
851.0716643503896
 30
0.0
  0
VERTEX
  5
224
  8
LAYER_1
 10
365.7886953241217
 20
852.3867031863902
 30
0.0
  0
VERTEX
  5
225
  8
LAYER_1
 10
370.1871443283387
 20
847.988254182173
 30
0.0
  0
SEQEND
  5
226
  8
LAYER_1
  0
POLYLINE
  5
77
  8
LAYER_1
 66
     1
 10
0.0
 20
0.0
 30
0.0
 70
     1
  0
VERTEX
  5
227
  8
LAYER_1
 10
367.0528942290235
 20
834.1986480535796
 30
0.0
  0
VERTEX
  5
228
  8
LAYER_1
 10
362.6526741267052
 20
829.7984340360933
 30
0.0
  0
VERTEX
  5
229
  8
LAYER_1
 10
356.432327891535
 20
829.7984340360933
 30
0.0
  0
VERTEX
  5
22A
  8
LAYER_1
 10
353.8918596309678
 20
834.1986480535796
 30
0.0
  0
VERTEX
  5
22B
  8
LAYER_1
 10
356.432327891535
 20
838.5988620710659
 30
0.0
  0
VERTEX
  5
22C
  8
LAYER_1
 10
362.6526741267052
 20
838.5988620710659
 30
0.0
  0
SEQEND
  5
22D
  8
LAYER_1
  0
POLYLINE
  5
78
  8
LAYER_1
 66
     1
 10
0.0
 20
0.0
 30
0.0
 70
     1
  0
VERTEX
  5
22E
  8
LAYER_1
 10
377.7539081160587
 20
844.8996619406148
 30
0.0
  0
VERTEX
  5
22F
  8
LAYER_1
 10
382.1541221335451
 20
849.2998820429333
 30
0.0
  0
VERTEX
  5
230
  8
LAYER_1
 10
382.1541221335451
 20
855.5202282781033
 30
0.0
  0
VERTEX
  5
231
  8
LAYER_1
 10
377.7539081160587
 20
858.0606965386705
 30
0.0
  0
VERTEX
  5
232
  8
LAYER_1
 10
373.3536940985724
 20
855.5202282781033
 30
0.0
  0
VERTEX
  5
233
  8
LAYER_1
 10
373.3536940985724
 20
849.2998820429333
 30
0.0
  0
SEQEND
  5
234
  8
LAYER_1
  0
POLYLINE
  5
79
  8
LAYER_1
 66
     1
 10
0.0
 20
0.0
 30
0.0
 70
     1
  0
VERTEX
  5
235
  8
LAYER_1
 10
352.2488323505489
 20
808.6935722880698
 30
0.0
  0
VERTEX
  5
236
  8
LAYER_1
 10
355.2389217659924
 20
809.1441965558413
 30
0.0
  0
VERTEX
  5
237
  8
LAYER_1
 10
357.080610362593
 20
807.3025079592405
 30
0.0
  0
VERTEX
  5
238
  8
LAYER_1
 10
359.1486007635719
 20
809.3704983602195
 30
0.0
  0
VERTEX
  5
239
  8
LAYER_1
 10
357.8335619275715
 20
814.2783018650924
 30
0.0
  0
VERTEX
  5
23A
  8
LAYER_1
 10
352.9257584226987
 20
815.5933407010929
 30
0.0
  0
VERTEX
  5
23B
  8
LAYER_1
 10
350.8577680217196
 20
813.5253503001139
 30
0.0
  0
VERTEX
  5
23C
  8
LAYER_1
 10
352.6994566183204
 20
811.6836617035133
 30
0.0
  0
SEQEND
  5
23D
  8
LAYER_1
  0
POLYLINE
  5
7A
  8
LAYER_1
 66
     1
 10
0.0
 20
0.0
 30
0.0
 70
     1
  0
VERTEX
  5
23E
  8
LAYER_1
 10
403.2589838815686
 20
859.7037238190894
 30
0.0
  0
VERTEX
  5
23F
  8
LAYER_1
 10
402.8083596137972
 20
856.713634403646
 30
0.0
  0
VERTEX
  5
240
  8
LAYER_1
 10
404.6500482103978
 20
854.8719458070453
 30
0.0
  0
VERTEX
  5
241
  8
LAYER_1
 10
402.5820578094189
 20
852.8039554060664
 30
0.0
  0
VERTEX
  5
242
  8
LAYER_1
 10
397.6742543045459
 20
854.1189942420668
 30
0.0
  0
VERTEX
  5
243
  8
LAYER_1
 10
396.3592154685455
 20
859.0267977469398
 30
0.0
  0
VERTEX
  5
244
  8
LAYER_1
 10
398.4272058695245
 20
861.0947881479187
 30
0.0
  0
VERTEX
  5
245
  8
LAYER_1
 10
400.2688944661252
 20
859.253099551318
 30
0.0
  0
SEQEND
  5
246
  8
LAYER_1
  0
POLYLINE
  5
7B
  8
LAYER_1
 66
     1
 10
0.0
 20
0.0
 30
0.0
 70
     1
  0
VERTEX
  5
247
  8
LAYER_1
 10
394.6269244128688
 20
817.3256317567697
 30
0.0
  0
VERTEX
  5
248
  8
LAYER_1
 10
389.7191209079958
 20
816.0105929207691
 30
0.0
  0
VERTEX
  5
249
  8
LAYER_1
 10
385.3206719037788
 20
820.4090419249862
 30
0.0
  0
VERTEX
  5
24A
  8
LAYER_1
 10
385.3206676011528
 20
826.6318885684857
 30
0.0
  0
VERTEX
  5
24B
  8
LAYER_1
 10
391.5435142446522
 20
826.6318842658595
 30
0.0
  0
VERTEX
  5
24C
  8
LAYER_1
 10
395.9419632488692
 20
822.2334352616426
 30
0.0
  0
SEQEND
  5
24D
  8
LAYER_1
  0
POLYLINE
  5
7C
  8
LAYER_1
 66
     1
 10
0.0
 20
0.0
 30
0.0
 70
     1
  0
VERTEX
  5
24E
  8
LAYER_1
 10
377.7539081160587
 20
798.1290239966422
 30
0.0
  0
VERTEX
  5
24F
  8
LAYER_1
 10
379.5495811425645
 20
800.5619759741649
 30
0.0
  0
VERTEX
  5
250
  8
LAYER_1
 10
382.1541221335451
 20
800.5619759741649
 30
0.0
  0
VERTEX
  5
251
  8
LAYER_1
 10
382.1541221335451
 20
803.4865560460867
 30
0.0
  0
VERTEX
  5
252
  8
LAYER_1
 10
377.7539081160587
 20
806.0270243066539
 30
0.0
  0
VERTEX
  5
253
  8
LAYER_1
 10
373.3536940985724
 20
803.4865560460867
 30
0.0
  0
VERTEX
  5
254
  8
LAYER_1
 10
373.3536940985724
 20
800.5619759741649
 30
0.0
  0
VERTEX
  5
255
  8
LAYER_1
 10
375.958235089553
 20
800.5619759741649
 30
0.0
  0
SEQEND
  5
256
  8
LAYER_1
  0
POLYLINE
  5
7D
  8
LAYER_1
 66
     1
 10
0.0
 20
0.0
 30
0.0
 70
     1
  0
VERTEX
  5
257
  8
LAYER_1
 10
413.8235321729961
 20
834.1986480535796
 30
0.0
  0
VERTEX
  5
258
  8
LAYER_1
 10
411.3905801954736
 20
832.4029750270738
 30
0.0
  0
VERTEX
  5
259
  8
LAYER_1
 10
411.3905801954736
 20
829.7984340360933
 30
0.0
  0
VERTEX
  5
25A
  8
LAYER_1
 10
408.4660001235517
 20
829.7984340360933
 30
0.0
  0
VERTEX
  5
25B
  8
LAYER_1
 10
405.9255318629846
 20
834.1986480535796
 30
0.0
  0
VERTEX
  5
25C
  8
LAYER_1
 10
408.4660001235517
 20
838.5988620710659
 30
0.0
  0
VERTEX
  5
25D
  8
LAYER_1
 10
411.3905801954736
 20
838.5988620710659
 30
0.0
  0
VERTEX
  5
25E
  8
LAYER_1
 10
411.3905801954736
 20
835.9943210800855
 30
0.0
  0
SEQEND
  5
25F
  8
LAYER_1
  0
POLYLINE
  5
7E
  8
LAYER_1
 66
     1
 10
0.0
 20
0.0
 30
0.0
 70
     1
  0
VERTEX
  5
260
  8
LAYER_1
 10
403.2589838815686
 20
808.6935722880698
 30
0.0
  0
VERTEX
  5
261
  8
LAYER_1
 10
400.2688944661252
 20
809.1441965558413
 30
0.0
  0
VERTEX
  5
262
  8
LAYER_1
 10
398.4272058695245
 20
807.3025079592405
 30
0.0
  0
VERTEX
  5
263
  8
LAYER_1
 10
396.3592154685455
 20
809.3704983602195
 30
0.0
  0
VERTEX
  5
264
  8
LAYER_1
 10
397.6742543045459
 20
814.2783018650924
 30
0.0
  0
VERTEX
  5
265
  8
LAYER_1
 10
402.5820578094189
 20
815.5933407010929
 30
0.0
  0
VERTEX
  5
266
  8
LAYER_1
 10
404.6500482103978
 20
813.5253503001139
 30
0.0
  0
VERTEX
  5
267
  8
LAYER_1
 10
402.8083596137972
 20
811.6836617035133
 30
0.0
  0
SEQEND
  5
268
  8
LAYER_1
  0
POLYLINE
  5
7F
  8
LAYER_1
 66
     1
 10
0.0
 20
0.0
 30
0.0
 70
     1
  0
VERTEX
  5
269
  8
LAYER_1
 10
419.1867412559822
 20
792.7658149136562
 30
0.0
  0
VERTEX
  5
26A
  8
LAYER_1
 10
419.1852994572497
 20
799.643261482377
 30
0.0
  0
VERTEX
  5
26B
  8
LAYER_1
 10
415.7472970722555
 20
796.2052590973829
 30
0.0
  0
VERTEX
  5
26C
  8
LAYER_1
 10
412.3092946872613
 20
792.7672567123886
 30
0.0
  0
SEQEND
  5
26D
  8
LAYER_1
  0
POLYLINE
  5
80
  8
LAYER_1
 66
     1
 10
0.0
 20
0.0
 30
0.0
 70
     1
  0
VERTEX
  5
26E
  8
LAYER_1
 10
427.7539081160587
 20
784.1986480535796
 30
0.0
  0
VERTEX
  5
26F
  8
LAYER_1
 10
427.7524663173264
 20
792.3580887535277
 30
0.0
  0
VERTEX
  5
270
  8
LAYER_1
 10
423.6734668667185
 20
788.2790893029198
 30
0.0
  0
VERTEX
  5
271
  8
LAYER_1
 10
419.5944674161107
 20
784.200089852312
 30
0.0
  0
SEQEND
  5
272
  8
LAYER_1
  0
POLYLINE
  5
81
  8
LAYER_1
 66
     1
 10
0.0
 20
0.0
 30
0.0
 70
     1
  0
VERTEX
  5
273
  8
LAYER_1
 10
422.9175071983518
 20
808.6536080285396
 30
0.0
  0
VERTEX
  5
274
  8
LAYER_1
 10
422.9175071983518
 20
815.4912727881127
 30
0.0
  0
VERTEX
  5
275
  8
LAYER_1
 10
427.7524663173264
 20
820.3262319070875
 30
0.0
  0
VERTEX
  5
276
  8
LAYER_1
 10
427.7524663173264
 20
813.488567147514
 30
0.0
  0
SEQEND
  5
277
  8
LAYER_1
  0
ENDSEC
  0
EOF
