  0
SECTION
  2
HEADER
  9
$ACADVER
  1
AC1009
  9
$DWGCODEPAGE
  3
ansi_1252
  9
$INSBASE
 10
0.0
 20
0.0
 30
0.0
  9
$EXTMIN
 10
-696.1731588676967
 20
-696.1731588676967
 30
0.0
  9
$EXTMAX
 10
696.1731588676965
 20
696.1731588676965
 30
0.0
  9
$LIMMIN
 10
0.0
 20
0.0
  9
$LIMMAX
 10
12.0
 20
9.0
  9
$ORTHOMODE
 70
     0
  9
$REGENMODE
 70
     1
  9
$FILLMODE
 70
     1
  9
$QTEXTMODE
 70
     0
  9
$MIRRTEXT
 70
     1
  9
$DRAGMODE
 70
     2
  9
$LTSCALE
 40
1.0
  9
$OSMODE
 70
    37
  9
$ATTMODE
 70
     1
  9
$TEXTSIZE
 40
0.2
  9
$TRACEWID
 40
0.05
  9
$TEXTSTYLE
  7
STANDARD
  9
$CLAYER
  8
0
  9
$CELTYPE
  6
BYLAYER
  9
$CECOLOR
 62
   256
  9
$DIMSCALE
 40
1.0
  9
$DIMASZ
 40
0.18
  9
$DIMEXO
 40
0.0625
  9
$DIMDLI
 40
0.38
  9
$DIMRND
 40
0.0
  9
$DIMDLE
 40
0.0
  9
$DIMEXE
 40
0.18
  9
$DIMTP
 40
0.0
  9
$DIMTM
 40
0.0
  9
$DIMTXT
 40
0.18
  9
$DIMCEN
 40
0.09
  9
$DIMTSZ
 40
0.0
  9
$DIMTOL
 70
     0
  9
$DIMLIM
 70
     0
  9
$DIMTIH
 70
     1
  9
$DIMTOH
 70
     1
  9
$DIMSE1
 70
     0
  9
$DIMSE2
 70
     0
  9
$DIMTAD
 70
     0
  9
$DIMZIN
 70
     0
  9
$DIMBLK
  1

  9
$DIMASO
 70
     1
  9
$DIMSHO
 70
     1
  9
$DIMPOST
  1

  9
$DIMAPOST
  1

  9
$DIMALT
 70
     0
  9
$DIMALTD
 70
     2
  9
$DIMALTF
 40
25.4
  9
$DIMLFAC
 40
1.0
  9
$DIMTOFL
 70
     0
  9
$DIMTVP
 40
0.0
  9
$DIMTIX
 70
     0
  9
$DIMSOXD
 70
     0
  9
$DIMSAH
 70
     0
  9
$DIMBLK1
  1

  9
$DIMBLK2
  1

  9
$DIMSTYLE
  2
STANDARD
  9
$DIMCLRD
 70
     0
  9
$DIMCLRE
 70
     0
  9
$DIMCLRT
 70
     0
  9
$DIMTFAC
 40
1.0
  9
$DIMGAP
 40
0.09
  9
$LUNITS
 70
     2
  9
$LUPREC
 70
     4
  9
$SKETCHINC
 40
0.1
  9
$FILLETRAD
 40
0.5
  9
$AUNITS
 70
     0
  9
$AUPREC
 70
     0
  9
$MENU
  1
.
  9
$ELEVATION
 40
0.0
  9
$PELEVATION
 40
0.0
  9
$THICKNESS
 40
0.0
  9
$LIMCHECK
 70
     0
  9
$CHAMFERA
 40
0.5
  9
$CHAMFERB
 40
0.5
  9
$SKPOLY
 70
     0
  9
$TDCREATE
 40
2454910.5
  9
$TDUPDATE
 40
2458794.15174294
  9
$TDINDWG
 40
0.0000000116
  9
$TDUSRTIMER
 40
0.0000000116
  9
$USRTIMER
 70
     1
  9
$ANGBASE
 50
0.0
  9
$ANGDIR
 70
     0
  9
$PDMODE
 70
     0
  9
$PDSIZE
 40
0.0
  9
$PLINEWID
 40
0.0
  9
$COORDS
 70
     1
  9
$SPLFRAME
 70
     0
  9
$SPLINETYPE
 70
     6
  9
$SPLINESEGS
 70
     8
  9
$ATTDIA
 70
     0
  9
$ATTREQ
 70
     1
  9
$HANDLING
 70
     1
  9
$HANDSEED
  5
47C
  9
$SURFTAB1
 70
     6
  9
$SURFTAB2
 70
     6
  9
$SURFTYPE
 70
     6
  9
$SURFU
 70
     6
  9
$SURFV
 70
     6
  9
$UCSNAME
  2

  9
$UCSORG
 10
0.0
 20
0.0
 30
0.0
  9
$UCSXDIR
 10
1.0
 20
0.0
 30
0.0
  9
$UCSYDIR
 10
0.0
 20
1.0
 30
0.0
  9
$PUCSNAME
  2

  9
$PUCSORG
 10
0.0
 20
0.0
 30
0.0
  9
$PUCSXDIR
 10
1.0
 20
0.0
 30
0.0
  9
$PUCSYDIR
 10
0.0
 20
1.0
 30
0.0
  9
$USERI1
 70
     0
  9
$USERI2
 70
     0
  9
$USERI3
 70
     0
  9
$USERI4
 70
     0
  9
$USERI5
 70
     0
  9
$USERR1
 40
0.0
  9
$USERR2
 40
0.0
  9
$USERR3
 40
0.0
  9
$USERR4
 40
0.0
  9
$USERR5
 40
0.0
  9
$WORLDVIEW
 70
     1
  9
$SHADEDGE
 70
     3
  9
$SHADEDIF
 70
    70
  9
$TILEMODE
 70
     1
  9
$MAXACTVP
 70
    64
  9
$PLIMCHECK
 70
     0
  9
$PEXTMIN
 10
1.000000000000000E+20
 20
1.000000000000000E+20
 30
1.000000000000000E+20
  9
$PEXTMAX
 10
-1.000000000000000E+20
 20
-1.000000000000000E+20
 30
-1.000000000000000E+20
  9
$PLIMMIN
 10
0.0
 20
0.0
  9
$PLIMMAX
 10
12.0
 20
9.0
  9
$UNITMODE
 70
     0
  9
$VISRETAIN
 70
     1
  9
$PLINEGEN
 70
     0
  9
$PSLTSCALE
 70
     1
  0
ENDSEC
  0
SECTION
  2
TABLES
  0
TABLE
  2
VPORT
 70
     1
  0
VPORT
  2
*ACTIVE
 70
     0
 10
0.0
 20
0.0
 11
1.0
 21
1.0
 12
10.42990654205607
 22
4.5
 13
0.0
 23
0.0
 14
0.5
 24
0.5
 15
0.5
 25
0.5
 16
0.0
 26
0.0
 36
1.0
 17
0.0
 27
0.0
 37
0.0
 40
9.0
 41
1.972972972850329
 42
50.0
 43
0.0
 44
0.0
 50
0.0
 51
0.0
 71
     0
 72
   100
 73
     1
 74
     3
 75
     0
 76
     0
 77
     0
 78
     0
  0
ENDTAB
  0
TABLE
  2
LTYPE
 70
     2
  0
LTYPE
  2
CONTINUOUS
 70
     0
  3
Solid line
 72
    65
 73
     0
 40
0.0
  0
LTYPE
  2
CONTINUOUS2
 70
     0
  3
Solid Line
 72
    65
 73
     0
 40
0.0
  0
ENDTAB
  0
TABLE
  2
LAYER
 70
     2
  0
LAYER
  2
0
 70
     0
 62
     7
  6
CONTINUOUS
  0
LAYER
  2
LAYER_1
 70
     0
 62
    18
  6
CONTINUOUS
  0
ENDTAB
  0
TABLE
  2
STYLE
 70
     1
  0
STYLE
  2
STANDARD
 70
     0
 40
0.0
 41
1.0
 50
0.0
 71
     0
 42
0.2
  3
txt
  4

  0
ENDTAB
  0
TABLE
  2
VIEW
 70
     0
  0
ENDTAB
  0
TABLE
  2
UCS
 70
     0
  0
ENDTAB
  0
TABLE
  2
APPID
 70
     1
  0
APPID
  2
ACAD
 70
     0
  0
ENDTAB
  0
TABLE
  2
DIMSTYLE
 70
     1
  0
DIMSTYLE
  2
STANDARD
 70
     0
  3

  4

  5

  6

  7

 40
1.0
 41
0.18
 42
0.0625
 43
0.38
 44
0.18
 45
0.0
 46
0.0
 47
0.0
 48
0.0
140
0.18
141
0.09
142
0.0
143
25.4
144
1.0
145
0.0
146
1.0
147
0.09
 71
     0
 72
     0
 73
     1
 74
     1
 75
     0
 76
     0
 77
     0
 78
     0
170
     0
171
     2
172
     0
173
     0
174
     0
175
     0
176
     0
177
     0
178
     0
  0
ENDTAB
  0
ENDSEC
  0
SECTION
  2
BLOCKS
  0
BLOCK
  8
0
  2
$MODEL_SPACE
 70
     0
 10
0.0
 20
0.0
 30
0.0
  3
$MODEL_SPACE
  1

  0
ENDBLK
  5
21
  8
0
  0
BLOCK
 67
     1
  8
0
  2
$PAPER_SPACE
 70
     0
 10
0.0
 20
0.0
 30
0.0
  3
$PAPER_SPACE
  1

  0
ENDBLK
  5
1D
 67
     1
  8
0
  0
ENDSEC
  0
SECTION
  2
ENTITIES
  0
POLYLINE
  5
41
  8
LAYER_1
 66
     1
 10
0.0
 20
0.0
 30
0.0
 70
     1
  0
VERTEX
  5
BB
  8
LAYER_1
 10
580.225106100435
 20
696.1731588676963
 30
0.0
  0
VERTEX
  5
BC
  8
LAYER_1
 10
532.0946683699702
 20
633.1761589480394
 30
0.0
  0
VERTEX
  5
BD
  8
LAYER_1
 10
483.9642306395051
 20
696.1731588676965
 30
0.0
  0
SEQEND
  5
BE
  8
LAYER_1
  0
POLYLINE
  5
42
  8
LAYER_1
 66
     1
 10
0.0
 20
0.0
 30
0.0
 70
     1
  0
VERTEX
  5
BF
  8
LAYER_1
 10
-532.0966882432283
 20
633.1761589480394
 30
0.0
  0
VERTEX
  5
C0
  8
LAYER_1
 10
-580.2271259736931
 20
696.1731588676963
 30
0.0
  0
VERTEX
  5
C1
  8
LAYER_1
 10
-483.9662505127632
 20
696.1731588676965
 30
0.0
  0
SEQEND
  5
C2
  8
LAYER_1
  0
POLYLINE
  5
43
  8
LAYER_1
 66
     1
 10
0.0
 20
0.0
 30
0.0
 70
     1
  0
VERTEX
  5
C3
  8
LAYER_1
 10
655.1808401551809
 20
655.18185009181
 30
0.0
  0
VERTEX
  5
C4
  8
LAYER_1
 10
696.1731588676962
 20
614.1905413159237
 30
0.0
  0
VERTEX
  5
C5
  8
LAYER_1
 10
614.1885214426657
 20
696.1731588676962
 30
0.0
  0
SEQEND
  5
C6
  8
LAYER_1
  0
POLYLINE
  5
44
  8
LAYER_1
 66
     1
 10
0.0
 20
0.0
 30
0.0
 70
     1
  0
VERTEX
  5
C7
  8
LAYER_1
 10
-696.1731588676963
 20
614.1885214426655
 30
0.0
  0
VERTEX
  5
C8
  8
LAYER_1
 10
-655.18185009181
 20
655.1808401551809
 30
0.0
  0
VERTEX
  5
C9
  8
LAYER_1
 10
-614.1905413159237
 20
696.1731588676962
 30
0.0
  0
SEQEND
  5
CA
  8
LAYER_1
  0
POLYLINE
  5
45
  8
LAYER_1
 66
     1
 10
0.0
 20
0.0
 30
0.0
 70
     1
  0
VERTEX
  5
CB
  8
LAYER_1
 10
461.352460471677
 20
603.8737770043494
 30
0.0
  0
VERTEX
  5
CC
  8
LAYER_1
 10
407.1271198000155
 20
611.1280106695175
 30
0.0
  0
VERTEX
  5
CD
  8
LAYER_1
 10
379.9999035911996
 20
657.8877518374087
 30
0.0
  0
VERTEX
  5
CE
  8
LAYER_1
 10
451.5820054415297
 20
676.9078529634395
 30
0.0
  0
SEQEND
  5
CF
  8
LAYER_1
  0
POLYLINE
  5
46
  8
LAYER_1
 66
     1
 10
0.0
 20
0.0
 30
0.0
 70
     1
  0
VERTEX
  5
D0
  8
LAYER_1
 10
-380.0019234644577
 20
657.8877518374087
 30
0.0
  0
VERTEX
  5
D1
  8
LAYER_1
 10
-407.1291396732736
 20
611.1280106695176
 30
0.0
  0
VERTEX
  5
D2
  8
LAYER_1
 10
-461.3544803449351
 20
603.8737770043494
 30
0.0
  0
VERTEX
  5
D3
  8
LAYER_1
 10
-451.5840253147877
 20
676.9078529634395
 30
0.0
  0
SEQEND
  5
D4
  8
LAYER_1
  0
POLYLINE
  5
47
  8
LAYER_1
 66
     1
 10
0.0
 20
0.0
 30
0.0
 70
     1
  0
VERTEX
  5
D5
  8
LAYER_1
 10
638.2102774067038
 20
638.2112873433327
 30
0.0
  0
VERTEX
  5
D6
  8
LAYER_1
 10
665.3583139422244
 20
611.0642607444408
 30
0.0
  0
VERTEX
  5
D7
  8
LAYER_1
 10
603.8737770043493
 20
602.8388961415213
 30
0.0
  0
VERTEX
  5
D8
  8
LAYER_1
 10
603.639090517764
 20
603.640100454393
 30
0.0
  0
VERTEX
  5
D9
  8
LAYER_1
 10
602.8368762682633
 20
603.8737770043493
 30
0.0
  0
VERTEX
  5
DA
  8
LAYER_1
 10
611.0622408711827
 20
665.3583139422244
 30
0.0
  0
SEQEND
  5
DB
  8
LAYER_1
  0
POLYLINE
  5
48
  8
LAYER_1
 66
     1
 10
0.0
 20
0.0
 30
0.0
 70
     1
  0
VERTEX
  5
DC
  8
LAYER_1
 10
-602.8388961415213
 20
603.8737770043493
 30
0.0
  0
VERTEX
  5
DD
  8
LAYER_1
 10
-603.6401004543931
 20
603.6390905177639
 30
0.0
  0
VERTEX
  5
DE
  8
LAYER_1
 10
-603.8737770043494
 20
602.8368762682632
 30
0.0
  0
VERTEX
  5
DF
  8
LAYER_1
 10
-665.3583139422229
 20
611.0622408711838
 30
0.0
  0
VERTEX
  5
E0
  8
LAYER_1
 10
-638.2112873433329
 20
638.2102774067037
 30
0.0
  0
VERTEX
  5
E1
  8
LAYER_1
 10
-611.0642607444408
 20
665.3583139422244
 30
0.0
  0
SEQEND
  5
E2
  8
LAYER_1
  0
POLYLINE
  5
49
  8
LAYER_1
 66
     1
 10
0.0
 20
0.0
 30
0.0
 70
     1
  0
VERTEX
  5
E3
  8
LAYER_1
 10
343.4770265750498
 20
673.0160228343825
 30
0.0
  0
VERTEX
  5
E4
  8
LAYER_1
 10
388.7281030690203
 20
595.0158104963808
 30
0.0
  0
VERTEX
  5
E5
  8
LAYER_1
 10
310.7278907310185
 20
640.2668869903513
 30
0.0
  0
VERTEX
  5
E6
  8
LAYER_1
 10
287.5707546977046
 20
553.115064867282
 30
0.0
  0
VERTEX
  5
E7
  8
LAYER_1
 10
264.4136186643906
 20
640.2668869903514
 30
0.0
  0
VERTEX
  5
E8
  8
LAYER_1
 10
186.413406326389
 20
595.0158104963807
 30
0.0
  0
VERTEX
  5
E9
  8
LAYER_1
 10
231.6644828203595
 20
673.0160228343825
 30
0.0
  0
VERTEX
  5
EA
  8
LAYER_1
 10
144.5126606972901
 20
696.1731588676964
 30
0.0
  0
VERTEX
  5
EB
  8
LAYER_1
 10
430.6288486981191
 20
696.1731588676964
 30
0.0
  0
SEQEND
  5
EC
  8
LAYER_1
  0
POLYLINE
  5
4A
  8
LAYER_1
 66
     1
 10
0.0
 20
0.0
 30
0.0
 70
     1
  0
VERTEX
  5
ED
  8
LAYER_1
 10
-231.6665026936176
 20
673.0160228343825
 30
0.0
  0
VERTEX
  5
EE
  8
LAYER_1
 10
-186.4154261996471
 20
595.0158104963807
 30
0.0
  0
VERTEX
  5
EF
  8
LAYER_1
 10
-264.4156385376487
 20
640.2668869903514
 30
0.0
  0
VERTEX
  5
F0
  8
LAYER_1
 10
-287.5727745709627
 20
553.115064867282
 30
0.0
  0
VERTEX
  5
F1
  8
LAYER_1
 10
-310.7299106042765
 20
640.2668869903513
 30
0.0
  0
VERTEX
  5
F2
  8
LAYER_1
 10
-388.7301229422783
 20
595.0158104963808
 30
0.0
  0
VERTEX
  5
F3
  8
LAYER_1
 10
-343.4790464483078
 20
673.0160228343825
 30
0.0
  0
VERTEX
  5
F4
  8
LAYER_1
 10
-430.6308685713772
 20
696.1731588676964
 30
0.0
  0
VERTEX
  5
F5
  8
LAYER_1
 10
-144.5146805705482
 20
696.1731588676964
 30
0.0
  0
SEQEND
  5
F6
  8
LAYER_1
  0
POLYLINE
  5
4B
  8
LAYER_1
 66
     1
 10
0.0
 20
0.0
 30
0.0
 70
     1
  0
VERTEX
  5
F7
  8
LAYER_1
 10
574.8834763954867
 20
575.9203771315728
 30
0.0
  0
VERTEX
  5
F8
  8
LAYER_1
 10
575.6856906449883
 20
575.6867005816173
 30
0.0
  0
VERTEX
  5
F9
  8
LAYER_1
 10
575.9203771315728
 20
574.8854962687448
 30
0.0
  0
VERTEX
  5
FA
  8
LAYER_1
 10
665.3000141131149
 20
586.8426506829145
 30
0.0
  0
VERTEX
  5
FB
  8
LAYER_1
 10
593.6440817335207
 20
532.0966882432284
 30
0.0
  0
VERTEX
  5
FC
  8
LAYER_1
 10
665.3000141131148
 20
477.350725803542
 30
0.0
  0
VERTEX
  5
FD
  8
LAYER_1
 10
575.9203771315729
 20
489.3078802177117
 30
0.0
  0
VERTEX
  5
FE
  8
LAYER_1
 10
587.8775315457426
 20
399.9282432361697
 30
0.0
  0
VERTEX
  5
FF
  8
LAYER_1
 10
533.1315691060562
 20
471.584175615764
 30
0.0
  0
VERTEX
  5
100
  8
LAYER_1
 10
478.3856066663699
 20
399.9282432361697
 30
0.0
  0
VERTEX
  5
101
  8
LAYER_1
 10
490.3427610805397
 20
489.3078802177117
 30
0.0
  0
VERTEX
  5
102
  8
LAYER_1
 10
489.5405468310382
 20
489.5415567676673
 30
0.0
  0
VERTEX
  5
103
  8
LAYER_1
 10
489.3058603444535
 20
490.3427610805397
 30
0.0
  0
VERTEX
  5
104
  8
LAYER_1
 10
399.9262233629116
 20
478.3856066663699
 30
0.0
  0
VERTEX
  5
105
  8
LAYER_1
 10
471.5821557425058
 20
533.1315691060562
 30
0.0
  0
VERTEX
  5
106
  8
LAYER_1
 10
399.9262233629116
 20
587.8775315457426
 30
0.0
  0
VERTEX
  5
107
  8
LAYER_1
 10
489.3058603444535
 20
575.9203771315729
 30
0.0
  0
VERTEX
  5
108
  8
LAYER_1
 10
477.3487059302839
 20
665.3000141131148
 30
0.0
  0
VERTEX
  5
109
  8
LAYER_1
 10
532.0946683699703
 20
593.6440817335207
 30
0.0
  0
VERTEX
  5
10A
  8
LAYER_1
 10
586.8406308096564
 20
665.3000141131149
 30
0.0
  0
SEQEND
  5
10B
  8
LAYER_1
  0
POLYLINE
  5
4C
  8
LAYER_1
 66
     1
 10
0.0
 20
0.0
 30
0.0
 70
     1
  0
VERTEX
  5
10C
  8
LAYER_1
 10
182.4140365956969
 20
661.2695979578345
 30
0.0
  0
VERTEX
  5
10D
  8
LAYER_1
 10
195.1416058042097
 20
657.8877518374087
 30
0.0
  0
VERTEX
  5
10E
  8
LAYER_1
 10
158.1346680403805
 20
594.098131187334
 30
0.0
  0
VERTEX
  5
10F
  8
LAYER_1
 10
128.0482334554729
 20
583.8014843698628
 30
0.0
  0
VERTEX
  5
110
  8
LAYER_1
 10
90.60787418438147
 20
621.2418436409544
 30
0.0
  0
VERTEX
  5
111
  8
LAYER_1
 10
90.60787418438149
 20
661.2695979578348
 30
0.0
  0
VERTEX
  5
112
  8
LAYER_1
 10
142.9197185071389
 20
661.2695979578348
 30
0.0
  0
SEQEND
  5
113
  8
LAYER_1
  0
POLYLINE
  5
4D
  8
LAYER_1
 66
     1
 10
0.0
 20
0.0
 30
0.0
 70
     1
  0
VERTEX
  5
114
  8
LAYER_1
 10
-90.60989405763956
 20
621.2418436409544
 30
0.0
  0
VERTEX
  5
115
  8
LAYER_1
 10
-128.050253328731
 20
583.8014843698628
 30
0.0
  0
VERTEX
  5
116
  8
LAYER_1
 10
-158.1366879136386
 20
594.098131187334
 30
0.0
  0
VERTEX
  5
117
  8
LAYER_1
 10
-195.1436256774678
 20
657.8877518374087
 30
0.0
  0
VERTEX
  5
118
  8
LAYER_1
 10
-182.416056468955
 20
661.2695979578345
 30
0.0
  0
VERTEX
  5
119
  8
LAYER_1
 10
-142.921738380397
 20
661.2695979578348
 30
0.0
  0
VERTEX
  5
11A
  8
LAYER_1
 10
-90.60989405763958
 20
661.2695979578348
 30
0.0
  0
SEQEND
  5
11B
  8
LAYER_1
  0
POLYLINE
  5
4E
  8
LAYER_1
 66
     1
 10
0.0
 20
0.0
 30
0.0
 70
     1
  0
VERTEX
  5
11C
  8
LAYER_1
 10
-532.0966882432284
 20
593.6440817335207
 30
0.0
  0
VERTEX
  5
11D
  8
LAYER_1
 10
-477.350725803542
 20
665.3000141131148
 30
0.0
  0
VERTEX
  5
11E
  8
LAYER_1
 10
-489.3078802177116
 20
575.9203771315729
 30
0.0
  0
VERTEX
  5
11F
  8
LAYER_1
 10
-399.9282432361697
 20
587.8775315457426
 30
0.0
  0
VERTEX
  5
120
  8
LAYER_1
 10
-471.5841756157639
 20
533.1315691060562
 30
0.0
  0
VERTEX
  5
121
  8
LAYER_1
 10
-399.9282432361696
 20
478.3856066663699
 30
0.0
  0
VERTEX
  5
122
  8
LAYER_1
 10
-489.3078802177116
 20
490.3427610805397
 30
0.0
  0
VERTEX
  5
123
  8
LAYER_1
 10
-489.5415567676674
 20
489.5405468310382
 30
0.0
  0
VERTEX
  5
124
  8
LAYER_1
 10
-490.3427610805398
 20
489.3058603444534
 30
0.0
  0
VERTEX
  5
125
  8
LAYER_1
 10
-478.3856066663699
 20
399.9262233629115
 30
0.0
  0
VERTEX
  5
126
  8
LAYER_1
 10
-533.1315691060563
 20
471.5821557425057
 30
0.0
  0
VERTEX
  5
127
  8
LAYER_1
 10
-587.8775315457427
 20
399.9262233629115
 30
0.0
  0
VERTEX
  5
128
  8
LAYER_1
 10
-575.920377131573
 20
489.3058603444534
 30
0.0
  0
VERTEX
  5
129
  8
LAYER_1
 10
-665.3000141131149
 20
477.3487059302838
 30
0.0
  0
VERTEX
  5
12A
  8
LAYER_1
 10
-593.6440817335208
 20
532.0946683699702
 30
0.0
  0
VERTEX
  5
12B
  8
LAYER_1
 10
-665.300014113115
 20
586.8406308096563
 30
0.0
  0
VERTEX
  5
12C
  8
LAYER_1
 10
-575.9203771315729
 20
574.8834763954866
 30
0.0
  0
VERTEX
  5
12D
  8
LAYER_1
 10
-575.6867005816174
 20
575.6856906449882
 30
0.0
  0
VERTEX
  5
12E
  8
LAYER_1
 10
-574.8854962687448
 20
575.9203771315728
 30
0.0
  0
VERTEX
  5
12F
  8
LAYER_1
 10
-586.8426506829145
 20
665.3000141131149
 30
0.0
  0
SEQEND
  5
130
  8
LAYER_1
  0
POLYLINE
  5
4F
  8
LAYER_1
 66
     1
 10
0.0
 20
0.0
 30
0.0
 70
     1
  0
VERTEX
  5
131
  8
LAYER_1
 10
-69.61461425791907
 20
550.7244616449914
 30
0.0
  0
VERTEX
  5
132
  8
LAYER_1
 10
-24.00200827871055
 20
524.390011304455
 30
0.0
  0
VERTEX
  5
133
  8
LAYER_1
 10
-69.61461425791903
 20
498.0555791318683
 30
0.0
  0
VERTEX
  5
134
  8
LAYER_1
 10
-69.61461425791894
 20
349.9661448993438
 30
0.0
  0
VERTEX
  5
135
  8
LAYER_1
 10
-126.2859872470256
 20
486.7829421679494
 30
0.0
  0
VERTEX
  5
136
  8
LAYER_1
 10
-176.4487698774459
 20
493.3869825421987
 30
0.0
  0
VERTEX
  5
137
  8
LAYER_1
 10
-143.7787175252417
 20
530.8721777638798
 30
0.0
  0
VERTEX
  5
138
  8
LAYER_1
 10
-158.9886607365568
 20
568.8291070162834
 30
0.0
  0
VERTEX
  5
139
  8
LAYER_1
 10
-121.6620067500768
 20
556.2486054515628
 30
0.0
  0
VERTEX
  5
13A
  8
LAYER_1
 10
-72.16453206701853
 20
605.7460801346211
 30
0.0
  0
VERTEX
  5
13B
  8
LAYER_1
 10
-69.61461425791904
 20
608.2959979437204
 30
0.0
  0
SEQEND
  5
13C
  8
LAYER_1
  0
POLYLINE
  5
50
  8
LAYER_1
 66
     1
 10
0.0
 20
0.0
 30
0.0
 70
     1
  0
VERTEX
  5
13D
  8
LAYER_1
 10
45.61259438466094
 20
632.2959979437206
 30
0.0
  0
VERTEX
  5
13E
  8
LAYER_1
 10
45.61259438466095
 20
564.5808681055423
 30
0.0
  0
VERTEX
  5
13F
  8
LAYER_1
 10
-0.001009936629044
 20
538.2464187222057
 30
0.0
  0
VERTEX
  5
140
  8
LAYER_1
 10
-45.61461425791903
 20
564.5808681055423
 30
0.0
  0
VERTEX
  5
141
  8
LAYER_1
 10
-45.61461425791903
 20
632.2959979437206
 30
0.0
  0
VERTEX
  5
142
  8
LAYER_1
 10
-0.001009936629044
 20
677.9085923283817
 30
0.0
  0
SEQEND
  5
143
  8
LAYER_1
  0
POLYLINE
  5
51
  8
LAYER_1
 66
     1
 10
0.0
 20
0.0
 30
0.0
 70
     1
  0
VERTEX
  5
144
  8
LAYER_1
 10
268.8892747280065
 20
529.9646807151657
 30
0.0
  0
VERTEX
  5
145
  8
LAYER_1
 10
258.1962868310185
 20
504.1495243119663
 30
0.0
  0
VERTEX
  5
146
  8
LAYER_1
 10
205.0057509803899
 20
497.1468574192191
 30
0.0
  0
VERTEX
  5
147
  8
LAYER_1
 10
171.5155846375268
 20
535.5730408190784
 30
0.0
  0
VERTEX
  5
148
  8
LAYER_1
 10
183.5515373899619
 20
565.6091692097218
 30
0.0
  0
VERTEX
  5
149
  8
LAYER_1
 10
249.2853476674168
 20
603.7440099742015
 30
0.0
  0
SEQEND
  5
14A
  8
LAYER_1
  0
POLYLINE
  5
52
  8
LAYER_1
 66
     1
 10
0.0
 20
0.0
 30
0.0
 70
     1
  0
VERTEX
  5
14B
  8
LAYER_1
 10
-183.5535572632199
 20
565.6091692097219
 30
0.0
  0
VERTEX
  5
14C
  8
LAYER_1
 10
-171.5176045107849
 20
535.5730408190784
 30
0.0
  0
VERTEX
  5
14D
  8
LAYER_1
 10
-205.007770853648
 20
497.1468574192191
 30
0.0
  0
VERTEX
  5
14E
  8
LAYER_1
 10
-258.1983067042765
 20
504.1495243119663
 30
0.0
  0
VERTEX
  5
14F
  8
LAYER_1
 10
-268.8912946012647
 20
529.9646807151657
 30
0.0
  0
VERTEX
  5
150
  8
LAYER_1
 10
-249.2873675406749
 20
603.7440099742015
 30
0.0
  0
SEQEND
  5
151
  8
LAYER_1
  0
POLYLINE
  5
53
  8
LAYER_1
 66
     1
 10
0.0
 20
0.0
 30
0.0
 70
     1
  0
VERTEX
  5
152
  8
LAYER_1
 10
376.6846876037472
 20
574.2563272674847
 30
0.0
  0
VERTEX
  5
153
  8
LAYER_1
 10
385.3557772698726
 20
568.8065561996874
 30
0.0
  0
VERTEX
  5
154
  8
LAYER_1
 10
432.0500785279871
 20
533.1315691060562
 30
0.0
  0
VERTEX
  5
155
  8
LAYER_1
 10
373.1865977445667
 20
488.1591878806325
 30
0.0
  0
VERTEX
  5
156
  8
LAYER_1
 10
341.7419752668019
 20
490.2886575242575
 30
0.0
  0
VERTEX
  5
157
  8
LAYER_1
 10
320.6515658982971
 20
541.2054098576863
 30
0.0
  0
VERTEX
  5
158
  8
LAYER_1
 10
313.6989717986139
 20
557.9904568268142
 30
0.0
  0
VERTEX
  5
159
  8
LAYER_1
 10
325.8561617279923
 20
603.7440099742016
 30
0.0
  0
SEQEND
  5
15A
  8
LAYER_1
  0
POLYLINE
  5
54
  8
LAYER_1
 66
     1
 10
0.0
 20
0.0
 30
0.0
 70
     1
  0
VERTEX
  5
15B
  8
LAYER_1
 10
-313.7009916718719
 20
557.9904568268142
 30
0.0
  0
VERTEX
  5
15C
  8
LAYER_1
 10
-320.6535857715552
 20
541.2054098576863
 30
0.0
  0
VERTEX
  5
15D
  8
LAYER_1
 10
-341.74399514006
 20
490.2886575242575
 30
0.0
  0
VERTEX
  5
15E
  8
LAYER_1
 10
-373.1886176178248
 20
488.1591878806325
 30
0.0
  0
VERTEX
  5
15F
  8
LAYER_1
 10
-432.0520984012451
 20
533.1315691060562
 30
0.0
  0
VERTEX
  5
160
  8
LAYER_1
 10
-385.3577971431307
 20
568.8065561996874
 30
0.0
  0
VERTEX
  5
161
  8
LAYER_1
 10
-376.6867074770053
 20
574.2563272674847
 30
0.0
  0
VERTEX
  5
162
  8
LAYER_1
 10
-325.8581816012504
 20
603.7440099742016
 30
0.0
  0
SEQEND
  5
163
  8
LAYER_1
  0
POLYLINE
  5
55
  8
LAYER_1
 66
     1
 10
0.0
 20
0.0
 30
0.0
 70
     1
  0
VERTEX
  5
164
  8
LAYER_1
 10
696.1731588676965
 20
483.9662505127632
 30
0.0
  0
VERTEX
  5
165
  8
LAYER_1
 10
633.1761589480394
 20
532.0966882432283
 30
0.0
  0
VERTEX
  5
166
  8
LAYER_1
 10
696.1731588676963
 20
580.2271259736931
 30
0.0
  0
SEQEND
  5
167
  8
LAYER_1
  0
POLYLINE
  5
56
  8
LAYER_1
 66
     1
 10
0.0
 20
0.0
 30
0.0
 70
     1
  0
VERTEX
  5
168
  8
LAYER_1
 10
-633.1761589480395
 20
532.0946683699701
 30
0.0
  0
VERTEX
  5
169
  8
LAYER_1
 10
-696.1731588676967
 20
483.964230639505
 30
0.0
  0
VERTEX
  5
16A
  8
LAYER_1
 10
-696.1731588676964
 20
580.2251061004349
 30
0.0
  0
SEQEND
  5
16B
  8
LAYER_1
  0
POLYLINE
  5
57
  8
LAYER_1
 66
     1
 10
0.0
 20
0.0
 30
0.0
 70
     1
  0
VERTEX
  5
16C
  8
LAYER_1
 10
298.478457118027
 20
532.0210074809223
 30
0.0
  0
VERTEX
  5
16D
  8
LAYER_1
 10
325.2662973836005
 20
467.3494402051311
 30
0.0
  0
VERTEX
  5
16E
  8
LAYER_1
 10
364.5659785384845
 20
464.6880160432536
 30
0.0
  0
VERTEX
  5
16F
  8
LAYER_1
 10
335.988335346543
 20
435.4409792641631
 30
0.0
  0
VERTEX
  5
170
  8
LAYER_1
 10
351.8265648705081
 20
388.3068868569734
 30
0.0
  0
VERTEX
  5
171
  8
LAYER_1
 10
302.9549398665548
 20
401.4020149573195
 30
0.0
  0
VERTEX
  5
172
  8
LAYER_1
 10
198.2398966986575
 20
296.6869717894222
 30
0.0
  0
VERTEX
  5
173
  8
LAYER_1
 10
254.9112696877643
 20
433.5037690580278
 30
0.0
  0
VERTEX
  5
174
  8
LAYER_1
 10
222.8484674922628
 20
475.2888005578274
 30
0.0
  0
VERTEX
  5
175
  8
LAYER_1
 10
275.06677842672
 20
482.1634716121439
 30
0.0
  0
VERTEX
  5
176
  8
LAYER_1
 10
297.0984515440491
 20
535.3526356537701
 30
0.0
  0
SEQEND
  5
177
  8
LAYER_1
  0
POLYLINE
  5
58
  8
LAYER_1
 66
     1
 10
0.0
 20
0.0
 30
0.0
 70
     1
  0
VERTEX
  5
178
  8
LAYER_1
 10
676.9078529634395
 20
451.5840253147878
 30
0.0
  0
VERTEX
  5
179
  8
LAYER_1
 10
657.8877518374087
 20
380.0019234644577
 30
0.0
  0
VERTEX
  5
17A
  8
LAYER_1
 10
611.1280106695176
 20
407.1291396732736
 30
0.0
  0
VERTEX
  5
17B
  8
LAYER_1
 10
603.8737770043494
 20
461.3544803449352
 30
0.0
  0
SEQEND
  5
17C
  8
LAYER_1
  0
POLYLINE
  5
59
  8
LAYER_1
 66
     1
 10
0.0
 20
0.0
 30
0.0
 70
     1
  0
VERTEX
  5
17D
  8
LAYER_1
 10
-611.1280106695176
 20
407.1271198000154
 30
0.0
  0
VERTEX
  5
17E
  8
LAYER_1
 10
-657.8877518374088
 20
379.9999035911995
 30
0.0
  0
VERTEX
  5
17F
  8
LAYER_1
 10
-676.9078529634396
 20
451.5820054415295
 30
0.0
  0
VERTEX
  5
180
  8
LAYER_1
 10
-603.8737770043496
 20
461.3524604716769
 30
0.0
  0
SEQEND
  5
181
  8
LAYER_1
  0
POLYLINE
  5
5A
  8
LAYER_1
 66
     1
 10
0.0
 20
0.0
 30
0.0
 70
     1
  0
VERTEX
  5
182
  8
LAYER_1
 10
460.9207098965373
 20
461.9576106326232
 30
0.0
  0
VERTEX
  5
183
  8
LAYER_1
 10
461.227348981937
 20
461.2283589185661
 30
0.0
  0
VERTEX
  5
184
  8
LAYER_1
 10
461.9576106326232
 20
460.9227297697954
 30
0.0
  0
VERTEX
  5
185
  8
LAYER_1
 10
462.7108738818483
 20
396.1910669124726
 30
0.0
  0
VERTEX
  5
186
  8
LAYER_1
 10
429.1687979443846
 20
363.4166875694297
 30
0.0
  0
VERTEX
  5
187
  8
LAYER_1
 10
380.851501782165
 20
379.6525030378506
 30
0.0
  0
VERTEX
  5
188
  8
LAYER_1
 10
380.4235381239728
 20
380.4245480606018
 30
0.0
  0
VERTEX
  5
189
  8
LAYER_1
 10
379.6504831645926
 20
380.851501782165
 30
0.0
  0
VERTEX
  5
18A
  8
LAYER_1
 10
363.4146676961716
 20
429.1687979443846
 30
0.0
  0
VERTEX
  5
18B
  8
LAYER_1
 10
396.1890470392146
 20
462.7108738818483
 30
0.0
  0
SEQEND
  5
18C
  8
LAYER_1
  0
POLYLINE
  5
5B
  8
LAYER_1
 66
     1
 10
0.0
 20
0.0
 30
0.0
 70
     1
  0
VERTEX
  5
18D
  8
LAYER_1
 10
-363.4166875694297
 20
429.1687979443846
 30
0.0
  0
VERTEX
  5
18E
  8
LAYER_1
 10
-379.6525030378506
 20
380.851501782165
 30
0.0
  0
VERTEX
  5
18F
  8
LAYER_1
 10
-380.4245480606019
 20
380.4235381239728
 30
0.0
  0
VERTEX
  5
190
  8
LAYER_1
 10
-380.851501782165
 20
379.6504831645925
 30
0.0
  0
VERTEX
  5
191
  8
LAYER_1
 10
-429.1687979443847
 20
363.4146676961715
 30
0.0
  0
VERTEX
  5
192
  8
LAYER_1
 10
-462.7108738818484
 20
396.1890470392145
 30
0.0
  0
VERTEX
  5
193
  8
LAYER_1
 10
-461.9576106326232
 20
460.9207098965373
 30
0.0
  0
VERTEX
  5
194
  8
LAYER_1
 10
-461.2283589185661
 20
461.227348981937
 30
0.0
  0
VERTEX
  5
195
  8
LAYER_1
 10
-460.9227297697954
 20
461.9576106326232
 30
0.0
  0
VERTEX
  5
196
  8
LAYER_1
 10
-396.1910669124726
 20
462.7108738818483
 30
0.0
  0
SEQEND
  5
197
  8
LAYER_1
  0
POLYLINE
  5
5C
  8
LAYER_1
 66
     1
 10
0.0
 20
0.0
 30
0.0
 70
     1
  0
VERTEX
  5
198
  8
LAYER_1
 10
72.16251219376043
 20
605.7460801346211
 30
0.0
  0
VERTEX
  5
199
  8
LAYER_1
 10
121.6599868768516
 20
556.248605451574
 30
0.0
  0
VERTEX
  5
19A
  8
LAYER_1
 10
158.9866408632987
 20
568.8291070162834
 30
0.0
  0
VERTEX
  5
19B
  8
LAYER_1
 10
143.7766976519837
 20
530.8721777638798
 30
0.0
  0
VERTEX
  5
19C
  8
LAYER_1
 10
176.4467500041878
 20
493.3869825421987
 30
0.0
  0
VERTEX
  5
19D
  8
LAYER_1
 10
126.2839673737676
 20
486.7829421679494
 30
0.0
  0
VERTEX
  5
19E
  8
LAYER_1
 10
69.61259438466085
 20
349.9661448993438
 30
0.0
  0
VERTEX
  5
19F
  8
LAYER_1
 10
69.61259438466094
 20
498.0555791318683
 30
0.0
  0
VERTEX
  5
1A0
  8
LAYER_1
 10
23.99998840545246
 20
524.390011304455
 30
0.0
  0
VERTEX
  5
1A1
  8
LAYER_1
 10
69.61259438466098
 20
550.7244616449914
 30
0.0
  0
VERTEX
  5
1A2
  8
LAYER_1
 10
69.61259438466095
 20
608.2959979437204
 30
0.0
  0
SEQEND
  5
1A3
  8
LAYER_1
  0
POLYLINE
  5
5D
  8
LAYER_1
 66
     1
 10
0.0
 20
0.0
 30
0.0
 70
     1
  0
VERTEX
  5
1A4
  8
LAYER_1
 10
696.1731588676964
 20
144.5146805705483
 30
0.0
  0
VERTEX
  5
1A5
  8
LAYER_1
 10
673.0160228343825
 20
231.6665026936176
 30
0.0
  0
VERTEX
  5
1A6
  8
LAYER_1
 10
595.0158104963807
 20
186.4154261996471
 30
0.0
  0
VERTEX
  5
1A7
  8
LAYER_1
 10
640.2668869903514
 20
264.4156385376488
 30
0.0
  0
VERTEX
  5
1A8
  8
LAYER_1
 10
553.115064867282
 20
287.5727745709627
 30
0.0
  0
VERTEX
  5
1A9
  8
LAYER_1
 10
640.2668869903513
 20
310.7299106042766
 30
0.0
  0
VERTEX
  5
1AA
  8
LAYER_1
 10
595.0158104963808
 20
388.7301229422784
 30
0.0
  0
VERTEX
  5
1AB
  8
LAYER_1
 10
673.0160228343825
 20
343.4790464483079
 30
0.0
  0
VERTEX
  5
1AC
  8
LAYER_1
 10
696.1731588676964
 20
430.6308685713772
 30
0.0
  0
SEQEND
  5
1AD
  8
LAYER_1
  0
POLYLINE
  5
5E
  8
LAYER_1
 66
     1
 10
0.0
 20
0.0
 30
0.0
 70
     1
  0
VERTEX
  5
1AE
  8
LAYER_1
 10
467.3494402051311
 20
325.2683172568587
 30
0.0
  0
VERTEX
  5
1AF
  8
LAYER_1
 10
532.0210074809223
 20
298.4804769912851
 30
0.0
  0
VERTEX
  5
1B0
  8
LAYER_1
 10
535.3526356537701
 20
297.1004714173072
 30
0.0
  0
VERTEX
  5
1B1
  8
LAYER_1
 10
482.1634716121439
 20
275.0687982999781
 30
0.0
  0
VERTEX
  5
1B2
  8
LAYER_1
 10
475.2888005578274
 20
222.8504873655209
 30
0.0
  0
VERTEX
  5
1B3
  8
LAYER_1
 10
433.5037690580278
 20
254.9132895610225
 30
0.0
  0
VERTEX
  5
1B4
  8
LAYER_1
 10
296.6869717894222
 20
198.2419165719156
 30
0.0
  0
VERTEX
  5
1B5
  8
LAYER_1
 10
401.4020149573195
 20
302.9569597398129
 30
0.0
  0
VERTEX
  5
1B6
  8
LAYER_1
 10
388.3068868569734
 20
351.8285847437662
 30
0.0
  0
VERTEX
  5
1B7
  8
LAYER_1
 10
435.4409792641631
 20
335.990355219801
 30
0.0
  0
VERTEX
  5
1B8
  8
LAYER_1
 10
464.6880160432536
 20
364.5679984117426
 30
0.0
  0
SEQEND
  5
1B9
  8
LAYER_1
  0
POLYLINE
  5
5F
  8
LAYER_1
 66
     1
 10
0.0
 20
0.0
 30
0.0
 70
     1
  0
VERTEX
  5
1BA
  8
LAYER_1
 10
568.8065561996874
 20
385.3577971431308
 30
0.0
  0
VERTEX
  5
1BB
  8
LAYER_1
 10
574.2563272674847
 20
376.6867074770053
 30
0.0
  0
VERTEX
  5
1BC
  8
LAYER_1
 10
603.7440099742016
 20
325.8581816012505
 30
0.0
  0
VERTEX
  5
1BD
  8
LAYER_1
 10
557.9904568268142
 20
313.700991671872
 30
0.0
  0
VERTEX
  5
1BE
  8
LAYER_1
 10
541.2054098576863
 20
320.6535857715552
 30
0.0
  0
VERTEX
  5
1BF
  8
LAYER_1
 10
490.2886575242575
 20
341.74399514006
 30
0.0
  0
VERTEX
  5
1C0
  8
LAYER_1
 10
488.1591878806325
 20
373.1886176178248
 30
0.0
  0
VERTEX
  5
1C1
  8
LAYER_1
 10
533.1315691060562
 20
432.0520984012452
 30
0.0
  0
SEQEND
  5
1C2
  8
LAYER_1
  0
POLYLINE
  5
60
  8
LAYER_1
 66
     1
 10
0.0
 20
0.0
 30
0.0
 70
     1
  0
VERTEX
  5
1C3
  8
LAYER_1
 10
-488.1591878806326
 20
373.1865977445666
 30
0.0
  0
VERTEX
  5
1C4
  8
LAYER_1
 10
-490.2886575242576
 20
341.7419752668018
 30
0.0
  0
VERTEX
  5
1C5
  8
LAYER_1
 10
-541.2054098576864
 20
320.651565898297
 30
0.0
  0
VERTEX
  5
1C6
  8
LAYER_1
 10
-557.9904568268144
 20
313.6989717986137
 30
0.0
  0
VERTEX
  5
1C7
  8
LAYER_1
 10
-603.7440099742017
 20
325.8561617279922
 30
0.0
  0
VERTEX
  5
1C8
  8
LAYER_1
 10
-574.2563272674848
 20
376.6846876037471
 30
0.0
  0
VERTEX
  5
1C9
  8
LAYER_1
 10
-568.8065561996875
 20
385.3557772698725
 30
0.0
  0
VERTEX
  5
1CA
  8
LAYER_1
 10
-533.1315691060563
 20
432.050078527987
 30
0.0
  0
SEQEND
  5
1CB
  8
LAYER_1
  0
POLYLINE
  5
61
  8
LAYER_1
 66
     1
 10
0.0
 20
0.0
 30
0.0
 70
     1
  0
VERTEX
  5
1CC
  8
LAYER_1
 10
-275.068798299978
 20
482.1634716121439
 30
0.0
  0
VERTEX
  5
1CD
  8
LAYER_1
 10
-222.8504873655209
 20
475.2888005578274
 30
0.0
  0
VERTEX
  5
1CE
  8
LAYER_1
 10
-254.9132895610224
 20
433.5037690580278
 30
0.0
  0
VERTEX
  5
1CF
  8
LAYER_1
 10
-198.2419165719156
 20
296.6869717894222
 30
0.0
  0
VERTEX
  5
1D0
  8
LAYER_1
 10
-302.9569597398129
 20
401.4020149573195
 30
0.0
  0
VERTEX
  5
1D1
  8
LAYER_1
 10
-351.8285847437662
 20
388.3068868569734
 30
0.0
  0
VERTEX
  5
1D2
  8
LAYER_1
 10
-335.990355219801
 20
435.4409792641631
 30
0.0
  0
VERTEX
  5
1D3
  8
LAYER_1
 10
-364.5679984117426
 20
464.6880160432536
 30
0.0
  0
VERTEX
  5
1D4
  8
LAYER_1
 10
-325.2683172568586
 20
467.3494402051311
 30
0.0
  0
VERTEX
  5
1D5
  8
LAYER_1
 10
-298.4804769912851
 20
532.0210074809223
 30
0.0
  0
VERTEX
  5
1D6
  8
LAYER_1
 10
-297.1004714173072
 20
535.3526356537701
 30
0.0
  0
SEQEND
  5
1D7
  8
LAYER_1
  0
POLYLINE
  5
62
  8
LAYER_1
 66
     1
 10
0.0
 20
0.0
 30
0.0
 70
     1
  0
VERTEX
  5
1D8
  8
LAYER_1
 10
-435.4409792641632
 20
335.9883353465429
 30
0.0
  0
VERTEX
  5
1D9
  8
LAYER_1
 10
-388.3068868569734
 20
351.826564870508
 30
0.0
  0
VERTEX
  5
1DA
  8
LAYER_1
 10
-401.4020149573195
 20
302.9549398665548
 30
0.0
  0
VERTEX
  5
1DB
  8
LAYER_1
 10
-296.6869717894222
 20
198.2398966986574
 30
0.0
  0
VERTEX
  5
1DC
  8
LAYER_1
 10
-433.5037690580279
 20
254.9112696877642
 30
0.0
  0
VERTEX
  5
1DD
  8
LAYER_1
 10
-475.2888005578274
 20
222.8484674922627
 30
0.0
  0
VERTEX
  5
1DE
  8
LAYER_1
 10
-482.163471612144
 20
275.0667784267198
 30
0.0
  0
VERTEX
  5
1DF
  8
LAYER_1
 10
-535.3526356537701
 20
297.098451544049
 30
0.0
  0
VERTEX
  5
1E0
  8
LAYER_1
 10
-532.0210074809223
 20
298.4784571180269
 30
0.0
  0
VERTEX
  5
1E1
  8
LAYER_1
 10
-467.3494402051312
 20
325.2662973836004
 30
0.0
  0
VERTEX
  5
1E2
  8
LAYER_1
 10
-464.6880160432537
 20
364.5659785384844
 30
0.0
  0
SEQEND
  5
1E3
  8
LAYER_1
  0
POLYLINE
  5
63
  8
LAYER_1
 66
     1
 10
0.0
 20
0.0
 30
0.0
 70
     1
  0
VERTEX
  5
1E4
  8
LAYER_1
 10
45.61259438466094
 20
484.199167891598
 30
0.0
  0
VERTEX
  5
1E5
  8
LAYER_1
 10
45.61259438466094
 20
286.2111387964579
 30
0.0
  0
VERTEX
  5
1E6
  8
LAYER_1
 10
-0.001009936629044
 20
188.1659191900455
 30
0.0
  0
VERTEX
  5
1E7
  8
LAYER_1
 10
-45.61461425791903
 20
286.2111387964579
 30
0.0
  0
VERTEX
  5
1E8
  8
LAYER_1
 10
-45.61461425791903
 20
484.199167891598
 30
0.0
  0
VERTEX
  5
1E9
  8
LAYER_1
 10
-0.001009936629044
 20
510.5335933700742
 30
0.0
  0
SEQEND
  5
1EA
  8
LAYER_1
  0
POLYLINE
  5
64
  8
LAYER_1
 66
     1
 10
0.0
 20
0.0
 30
0.0
 70
     1
  0
VERTEX
  5
1EB
  8
LAYER_1
 10
-673.0160228343826
 20
343.4770265750496
 30
0.0
  0
VERTEX
  5
1EC
  8
LAYER_1
 10
-595.0158104963809
 20
388.7281030690202
 30
0.0
  0
VERTEX
  5
1ED
  8
LAYER_1
 10
-640.2668869903514
 20
310.7278907310184
 30
0.0
  0
VERTEX
  5
1EE
  8
LAYER_1
 10
-553.115064867282
 20
287.5707546977045
 30
0.0
  0
VERTEX
  5
1EF
  8
LAYER_1
 10
-640.2668869903514
 20
264.4136186643905
 30
0.0
  0
VERTEX
  5
1F0
  8
LAYER_1
 10
-595.0158104963807
 20
186.4134063263889
 30
0.0
  0
VERTEX
  5
1F1
  8
LAYER_1
 10
-673.0160228343825
 20
231.6644828203594
 30
0.0
  0
VERTEX
  5
1F2
  8
LAYER_1
 10
-696.1731588676964
 20
144.51266069729
 30
0.0
  0
VERTEX
  5
1F3
  8
LAYER_1
 10
-696.1731588676965
 20
430.628848698119
 30
0.0
  0
SEQEND
  5
1F4
  8
LAYER_1
  0
POLYLINE
  5
65
  8
LAYER_1
 66
     1
 10
0.0
 20
0.0
 30
0.0
 70
     1
  0
VERTEX
  5
1F5
  8
LAYER_1
 10
227.4355418938046
 20
429.8865166958449
 30
0.0
  0
VERTEX
  5
1F6
  8
LAYER_1
 10
151.6688033524771
 20
246.9694289325959
 30
0.0
  0
VERTEX
  5
1F7
  8
LAYER_1
 10
72.00797980977875
 20
173.8426414558558
 30
0.0
  0
VERTEX
  5
1F8
  8
LAYER_1
 10
67.38771859902214
 20
281.8797972889932
 30
0.0
  0
VERTEX
  5
1F9
  8
LAYER_1
 10
143.1544571403496
 20
464.7968850522423
 30
0.0
  0
VERTEX
  5
1FA
  8
LAYER_1
 10
195.372747848543
 20
471.6715375740516
 30
0.0
  0
SEQEND
  5
1FB
  8
LAYER_1
  0
POLYLINE
  5
66
  8
LAYER_1
 66
     1
 10
0.0
 20
0.0
 30
0.0
 70
     1
  0
VERTEX
  5
1FC
  8
LAYER_1
 10
-143.1564770136077
 20
464.7968850522423
 30
0.0
  0
VERTEX
  5
1FD
  8
LAYER_1
 10
-67.38973847228023
 20
281.8797972889932
 30
0.0
  0
VERTEX
  5
1FE
  8
LAYER_1
 10
-72.00999968303684
 20
173.8426414558558
 30
0.0
  0
VERTEX
  5
1FF
  8
LAYER_1
 10
-151.6708232257352
 20
246.9694289325959
 30
0.0
  0
VERTEX
  5
200
  8
LAYER_1
 10
-227.4375617670627
 20
429.8865166958449
 30
0.0
  0
VERTEX
  5
201
  8
LAYER_1
 10
-195.3747677218011
 20
471.6715375740516
 30
0.0
  0
SEQEND
  5
202
  8
LAYER_1
  0
POLYLINE
  5
67
  8
LAYER_1
 66
     1
 10
0.0
 20
0.0
 30
0.0
 70
     1
  0
VERTEX
  5
203
  8
LAYER_1
 10
603.7440099742015
 20
249.2873675406749
 30
0.0
  0
VERTEX
  5
204
  8
LAYER_1
 10
565.6091692097218
 20
183.55355726322
 30
0.0
  0
VERTEX
  5
205
  8
LAYER_1
 10
535.5730408190784
 20
171.517604510785
 30
0.0
  0
VERTEX
  5
206
  8
LAYER_1
 10
497.1468574192191
 20
205.007770853648
 30
0.0
  0
VERTEX
  5
207
  8
LAYER_1
 10
504.1495243119663
 20
258.1983067042766
 30
0.0
  0
VERTEX
  5
208
  8
LAYER_1
 10
529.9646807151657
 20
268.8912946012646
 30
0.0
  0
SEQEND
  5
209
  8
LAYER_1
  0
POLYLINE
  5
68
  8
LAYER_1
 66
     1
 10
0.0
 20
0.0
 30
0.0
 70
     1
  0
VERTEX
  5
20A
  8
LAYER_1
 10
-504.1495243119663
 20
258.1962868310184
 30
0.0
  0
VERTEX
  5
20B
  8
LAYER_1
 10
-497.1468574192191
 20
205.0057509803898
 30
0.0
  0
VERTEX
  5
20C
  8
LAYER_1
 10
-535.5730408190784
 20
171.5155846375268
 30
0.0
  0
VERTEX
  5
20D
  8
LAYER_1
 10
-565.6091692097218
 20
183.5515373899617
 30
0.0
  0
VERTEX
  5
20E
  8
LAYER_1
 10
-603.7440099742015
 20
249.2853476674167
 30
0.0
  0
VERTEX
  5
20F
  8
LAYER_1
 10
-529.9646807151657
 20
268.8892747280064
 30
0.0
  0
SEQEND
  5
210
  8
LAYER_1
  0
POLYLINE
  5
69
  8
LAYER_1
 66
     1
 10
0.0
 20
0.0
 30
0.0
 70
     1
  0
VERTEX
  5
211
  8
LAYER_1
 10
-486.7829421679494
 20
126.2839673737675
 30
0.0
  0
VERTEX
  5
212
  8
LAYER_1
 10
-349.9661448993438
 20
69.61259438466078
 30
0.0
  0
VERTEX
  5
213
  8
LAYER_1
 10
-498.0555791318683
 20
69.61259438466085
 30
0.0
  0
VERTEX
  5
214
  8
LAYER_1
 10
-524.390011304455
 20
23.99998840545237
 30
0.0
  0
VERTEX
  5
215
  8
LAYER_1
 10
-550.7244616449914
 20
69.61259438466088
 30
0.0
  0
VERTEX
  5
216
  8
LAYER_1
 10
-608.2959979437204
 20
69.61259438466084
 30
0.0
  0
VERTEX
  5
217
  8
LAYER_1
 10
-605.7460801346211
 20
72.16251219376032
 30
0.0
  0
VERTEX
  5
218
  8
LAYER_1
 10
-556.248605451574
 20
121.6599868768515
 30
0.0
  0
VERTEX
  5
219
  8
LAYER_1
 10
-568.8291070162834
 20
158.9866408632986
 30
0.0
  0
VERTEX
  5
21A
  8
LAYER_1
 10
-530.8721777638798
 20
143.7766976519836
 30
0.0
  0
VERTEX
  5
21B
  8
LAYER_1
 10
-493.3869825421987
 20
176.4467500041877
 30
0.0
  0
SEQEND
  5
21C
  8
LAYER_1
  0
POLYLINE
  5
6A
  8
LAYER_1
 66
     1
 10
0.0
 20
0.0
 30
0.0
 70
     1
  0
VERTEX
  5
21D
  8
LAYER_1
 10
361.0017658955149
 20
361.0027758321439
 30
0.0
  0
VERTEX
  5
21E
  8
LAYER_1
 10
374.6334898579378
 20
310.1295601373854
 30
0.0
  0
VERTEX
  5
21F
  8
LAYER_1
 10
234.6348118910048
 20
170.1308821704525
 30
0.0
  0
VERTEX
  5
220
  8
LAYER_1
 10
133.0533974474811
 20
133.0544073841102
 30
0.0
  0
VERTEX
  5
221
  8
LAYER_1
 10
170.1288622971944
 20
234.6348118910048
 30
0.0
  0
VERTEX
  5
222
  8
LAYER_1
 10
310.1275402641273
 20
374.6334898579378
 30
0.0
  0
SEQEND
  5
223
  8
LAYER_1
  0
POLYLINE
  5
6B
  8
LAYER_1
 66
     1
 10
0.0
 20
0.0
 30
0.0
 70
     1
  0
VERTEX
  5
224
  8
LAYER_1
 10
-170.1308821704525
 20
234.6348118910048
 30
0.0
  0
VERTEX
  5
225
  8
LAYER_1
 10
-133.0544073841102
 20
133.0533974474811
 30
0.0
  0
VERTEX
  5
226
  8
LAYER_1
 10
-234.6348118910048
 20
170.1288622971943
 30
0.0
  0
VERTEX
  5
227
  8
LAYER_1
 10
-374.6334898579378
 20
310.1275402641273
 30
0.0
  0
VERTEX
  5
228
  8
LAYER_1
 10
-361.002775832144
 20
361.0017658955149
 30
0.0
  0
VERTEX
  5
229
  8
LAYER_1
 10
-310.1295601373854
 20
374.6334898579378
 30
0.0
  0
SEQEND
  5
22A
  8
LAYER_1
  0
POLYLINE
  5
6C
  8
LAYER_1
 66
     1
 10
0.0
 20
0.0
 30
0.0
 70
     1
  0
VERTEX
  5
22B
  8
LAYER_1
 10
48.96477085766632
 20
150.9488634572023
 30
0.0
  0
VERTEX
  5
22C
  8
LAYER_1
 10
26.45952767166983
 20
133.0210284067828
 30
0.0
  0
VERTEX
  5
22D
  8
LAYER_1
 10
12.52787853262896
 20
158.1969352755416
 30
0.0
  0
VERTEX
  5
22E
  8
LAYER_1
 10
45.61259438466095
 20
229.3132196064124
 30
0.0
  0
SEQEND
  5
22F
  8
LAYER_1
  0
POLYLINE
  5
6D
  8
LAYER_1
 66
     1
 10
0.0
 20
0.0
 30
0.0
 70
     1
  0
VERTEX
  5
230
  8
LAYER_1
 10
-12.52989840588705
 20
158.1969352755416
 30
0.0
  0
VERTEX
  5
231
  8
LAYER_1
 10
-26.46154754492792
 20
133.0210284067828
 30
0.0
  0
VERTEX
  5
232
  8
LAYER_1
 10
-48.96679073092441
 20
150.9488634572023
 30
0.0
  0
VERTEX
  5
233
  8
LAYER_1
 10
-45.61461425791904
 20
229.3132196064124
 30
0.0
  0
SEQEND
  5
234
  8
LAYER_1
  0
POLYLINE
  5
6E
  8
LAYER_1
 66
     1
 10
0.0
 20
0.0
 30
0.0
 70
     1
  0
VERTEX
  5
235
  8
LAYER_1
 10
103.0031787889145
 20
120.7205588271682
 30
0.0
  0
VERTEX
  5
236
  8
LAYER_1
 10
75.35035978321352
 20
112.7697826704754
 30
0.0
  0
VERTEX
  5
237
  8
LAYER_1
 10
72.11359674296564
 20
141.3606990499663
 30
0.0
  0
VERTEX
  5
238
  8
LAYER_1
 10
129.894912342399
 20
194.4026059504316
 30
0.0
  0
SEQEND
  5
239
  8
LAYER_1
  0
POLYLINE
  5
6F
  8
LAYER_1
 66
     1
 10
0.0
 20
0.0
 30
0.0
 70
     1
  0
VERTEX
  5
23A
  8
LAYER_1
 10
-72.11561661622373
 20
141.3606990499663
 30
0.0
  0
VERTEX
  5
23B
  8
LAYER_1
 10
-75.35237965647161
 20
112.7697826704754
 30
0.0
  0
VERTEX
  5
23C
  8
LAYER_1
 10
-103.0051986621726
 20
120.7205588271682
 30
0.0
  0
VERTEX
  5
23D
  8
LAYER_1
 10
-129.8969322156571
 20
194.4026059504316
 30
0.0
  0
SEQEND
  5
23E
  8
LAYER_1
  0
POLYLINE
  5
70
  8
LAYER_1
 66
     1
 10
0.0
 20
0.0
 30
0.0
 70
     1
  0
VERTEX
  5
23F
  8
LAYER_1
 10
19.20683729280983
 20
96.55929164097851
 30
0.0
  0
VERTEX
  5
240
  8
LAYER_1
 10
50.23408879970056
 20
121.2758184736917
 30
0.0
  0
VERTEX
  5
241
  8
LAYER_1
 10
54.69644501101283
 20
81.85901480079796
 30
0.0
  0
VERTEX
  5
242
  8
LAYER_1
 10
92.27537805835655
 20
92.27638799498558
 30
0.0
  0
VERTEX
  5
243
  8
LAYER_1
 10
81.85901480079796
 20
54.69846488427093
 30
0.0
  0
VERTEX
  5
244
  8
LAYER_1
 10
121.2758184736917
 20
50.23610867295865
 30
0.0
  0
VERTEX
  5
245
  8
LAYER_1
 10
96.55929164097853
 20
19.20885716606788
 30
0.0
  0
VERTEX
  5
246
  8
LAYER_1
 10
131.2680000000001
 20
0.0010099366290521
 30
0.0
  0
VERTEX
  5
247
  8
LAYER_1
 10
96.55929164097851
 20
-19.20683729280982
 30
0.0
  0
VERTEX
  5
248
  8
LAYER_1
 10
121.2758184736917
 20
-50.23408879970055
 30
0.0
  0
VERTEX
  5
249
  8
LAYER_1
 10
81.85901480079796
 20
-54.69644501101283
 30
0.0
  0
VERTEX
  5
24A
  8
LAYER_1
 10
92.2763879949856
 20
-92.27537805835654
 30
0.0
  0
VERTEX
  5
24B
  8
LAYER_1
 10
54.69846488427093
 20
-81.85901480079796
 30
0.0
  0
VERTEX
  5
24C
  8
LAYER_1
 10
50.23610867295866
 20
-121.2758184736917
 30
0.0
  0
VERTEX
  5
24D
  8
LAYER_1
 10
19.20885716606789
 20
-96.55929164097853
 30
0.0
  0
VERTEX
  5
24E
  8
LAYER_1
 10
0.0010099366290601
 20
-131.2680000000001
 30
0.0
  0
VERTEX
  5
24F
  8
LAYER_1
 10
-19.20683729280982
 20
-96.55929164097851
 30
0.0
  0
VERTEX
  5
250
  8
LAYER_1
 10
-50.23408879970054
 20
-121.2758184736917
 30
0.0
  0
VERTEX
  5
251
  8
LAYER_1
 10
-54.69644501101283
 20
-81.85901480079796
 30
0.0
  0
VERTEX
  5
252
  8
LAYER_1
 10
-92.27537805835652
 20
-92.27638799498561
 30
0.0
  0
VERTEX
  5
253
  8
LAYER_1
 10
-81.85901480079795
 20
-54.69846488427093
 30
0.0
  0
VERTEX
  5
254
  8
LAYER_1
 10
-121.2758184736917
 20
-50.23610867295866
 30
0.0
  0
VERTEX
  5
255
  8
LAYER_1
 10
-96.55929164097853
 20
-19.20885716606789
 30
0.0
  0
VERTEX
  5
256
  8
LAYER_1
 10
-131.2680000000001
 20
-0.0010099366290681
 30
0.0
  0
VERTEX
  5
257
  8
LAYER_1
 10
-96.55929164097851
 20
19.20683729280981
 30
0.0
  0
VERTEX
  5
258
  8
LAYER_1
 10
-121.2758184736917
 20
50.23408879970054
 30
0.0
  0
VERTEX
  5
259
  8
LAYER_1
 10
-81.85901480079798
 20
54.69644501101282
 30
0.0
  0
VERTEX
  5
25A
  8
LAYER_1
 10
-92.2763879949856
 20
92.27537805835654
 30
0.0
  0
VERTEX
  5
25B
  8
LAYER_1
 10
-54.69846488427092
 20
81.85901480079796
 30
0.0
  0
VERTEX
  5
25C
  8
LAYER_1
 10
-50.23610867295864
 20
121.2758184736917
 30
0.0
  0
VERTEX
  5
25D
  8
LAYER_1
 10
-19.20885716606788
 20
96.55929164097853
 30
0.0
  0
VERTEX
  5
25E
  8
LAYER_1
 10
-0.001009936629044
 20
131.2680000000001
 30
0.0
  0
SEQEND
  5
25F
  8
LAYER_1
  0
POLYLINE
  5
71
  8
LAYER_1
 66
     1
 10
0.0
 20
0.0
 30
0.0
 70
     1
  0
VERTEX
  5
260
  8
LAYER_1
 10
661.2695979578345
 20
182.416056468955
 30
0.0
  0
VERTEX
  5
261
  8
LAYER_1
 10
661.2695979578348
 20
142.921738380397
 30
0.0
  0
VERTEX
  5
262
  8
LAYER_1
 10
661.2695979578348
 20
90.60989405763962
 30
0.0
  0
VERTEX
  5
263
  8
LAYER_1
 10
621.2418436409544
 20
90.60989405763961
 30
0.0
  0
VERTEX
  5
264
  8
LAYER_1
 10
583.8014843698628
 20
128.0502533287311
 30
0.0
  0
VERTEX
  5
265
  8
LAYER_1
 10
594.098131187334
 20
158.1366879136386
 30
0.0
  0
VERTEX
  5
266
  8
LAYER_1
 10
657.8877518374087
 20
195.1436256774678
 30
0.0
  0
SEQEND
  5
267
  8
LAYER_1
  0
POLYLINE
  5
72
  8
LAYER_1
 66
     1
 10
0.0
 20
0.0
 30
0.0
 70
     1
  0
VERTEX
  5
268
  8
LAYER_1
 10
-594.098131187334
 20
158.1346680403804
 30
0.0
  0
VERTEX
  5
269
  8
LAYER_1
 10
-583.8014843698628
 20
128.0482334554728
 30
0.0
  0
VERTEX
  5
26A
  8
LAYER_1
 10
-621.2418436409544
 20
90.60787418438136
 30
0.0
  0
VERTEX
  5
26B
  8
LAYER_1
 10
-661.2695979578348
 20
90.60787418438136
 30
0.0
  0
VERTEX
  5
26C
  8
LAYER_1
 10
-661.2695979578348
 20
142.9197185071388
 30
0.0
  0
VERTEX
  5
26D
  8
LAYER_1
 10
-661.2695979578345
 20
182.4140365956968
 30
0.0
  0
VERTEX
  5
26E
  8
LAYER_1
 10
-657.8877518374087
 20
195.1416058042096
 30
0.0
  0
SEQEND
  5
26F
  8
LAYER_1
  0
POLYLINE
  5
73
  8
LAYER_1
 66
     1
 10
0.0
 20
0.0
 30
0.0
 70
     1
  0
VERTEX
  5
270
  8
LAYER_1
 10
141.3606990499663
 20
72.11561661622375
 30
0.0
  0
VERTEX
  5
271
  8
LAYER_1
 10
112.7697826704754
 20
75.35237965647161
 30
0.0
  0
VERTEX
  5
272
  8
LAYER_1
 10
120.7205588271682
 20
103.0051986621726
 30
0.0
  0
VERTEX
  5
273
  8
LAYER_1
 10
194.4026059504316
 20
129.8969322156571
 30
0.0
  0
SEQEND
  5
274
  8
LAYER_1
  0
POLYLINE
  5
74
  8
LAYER_1
 66
     1
 10
0.0
 20
0.0
 30
0.0
 70
     1
  0
VERTEX
  5
275
  8
LAYER_1
 10
-120.7205588271682
 20
103.0031787889145
 30
0.0
  0
VERTEX
  5
276
  8
LAYER_1
 10
-112.7697826704754
 20
75.3503597832135
 30
0.0
  0
VERTEX
  5
277
  8
LAYER_1
 10
-141.3606990499663
 20
72.11359674296561
 30
0.0
  0
VERTEX
  5
278
  8
LAYER_1
 10
-194.4026059504316
 20
129.894912342399
 30
0.0
  0
SEQEND
  5
279
  8
LAYER_1
  0
POLYLINE
  5
75
  8
LAYER_1
 66
     1
 10
0.0
 20
0.0
 30
0.0
 70
     1
  0
VERTEX
  5
27A
  8
LAYER_1
 10
530.8721777638798
 20
143.7787175252418
 30
0.0
  0
VERTEX
  5
27B
  8
LAYER_1
 10
568.8291070162834
 20
158.9886607365568
 30
0.0
  0
VERTEX
  5
27C
  8
LAYER_1
 10
556.248605451574
 20
121.6620067501097
 30
0.0
  0
VERTEX
  5
27D
  8
LAYER_1
 10
605.7460801346211
 20
72.16453206701857
 30
0.0
  0
VERTEX
  5
27E
  8
LAYER_1
 10
608.2959979437204
 20
69.61461425791909
 30
0.0
  0
VERTEX
  5
27F
  8
LAYER_1
 10
550.7244616449914
 20
69.6146142579191
 30
0.0
  0
VERTEX
  5
280
  8
LAYER_1
 10
524.390011304455
 20
24.00200827871058
 30
0.0
  0
VERTEX
  5
281
  8
LAYER_1
 10
498.0555791318683
 20
69.61461425791906
 30
0.0
  0
VERTEX
  5
282
  8
LAYER_1
 10
349.9661448993438
 20
69.61461425791897
 30
0.0
  0
VERTEX
  5
283
  8
LAYER_1
 10
486.7829421679494
 20
126.2859872470257
 30
0.0
  0
VERTEX
  5
284
  8
LAYER_1
 10
493.3869825421987
 20
176.4487698774459
 30
0.0
  0
SEQEND
  5
285
  8
LAYER_1
  0
POLYLINE
  5
76
  8
LAYER_1
 66
     1
 10
0.0
 20
0.0
 30
0.0
 70
     1
  0
VERTEX
  5
286
  8
LAYER_1
 10
471.6715375740516
 20
195.3747677218012
 30
0.0
  0
VERTEX
  5
287
  8
LAYER_1
 10
464.7968850522423
 20
143.1564770136077
 30
0.0
  0
VERTEX
  5
288
  8
LAYER_1
 10
281.8797972889932
 20
67.38973847228024
 30
0.0
  0
VERTEX
  5
289
  8
LAYER_1
 10
173.8426414558558
 20
72.00999968303685
 30
0.0
  0
VERTEX
  5
28A
  8
LAYER_1
 10
246.9694289325959
 20
151.6708232257353
 30
0.0
  0
VERTEX
  5
28B
  8
LAYER_1
 10
429.8865166958449
 20
227.4375617670627
 30
0.0
  0
SEQEND
  5
28C
  8
LAYER_1
  0
POLYLINE
  5
77
  8
LAYER_1
 66
     1
 10
0.0
 20
0.0
 30
0.0
 70
     1
  0
VERTEX
  5
28D
  8
LAYER_1
 10
-246.9694289325959
 20
151.6688033524771
 30
0.0
  0
VERTEX
  5
28E
  8
LAYER_1
 10
-173.8426414558558
 20
72.00797980977872
 30
0.0
  0
VERTEX
  5
28F
  8
LAYER_1
 10
-281.8797972889932
 20
67.38771859902208
 30
0.0
  0
VERTEX
  5
290
  8
LAYER_1
 10
-464.7968850522423
 20
143.1544571403495
 30
0.0
  0
VERTEX
  5
291
  8
LAYER_1
 10
-471.6715375740516
 20
195.372747848543
 30
0.0
  0
VERTEX
  5
292
  8
LAYER_1
 10
-429.8865166958449
 20
227.4355418938045
 30
0.0
  0
SEQEND
  5
293
  8
LAYER_1
  0
POLYLINE
  5
78
  8
LAYER_1
 66
     1
 10
0.0
 20
0.0
 30
0.0
 70
     1
  0
VERTEX
  5
294
  8
LAYER_1
 10
229.3132196064124
 20
45.61461425791905
 30
0.0
  0
VERTEX
  5
295
  8
LAYER_1
 10
158.1969352755416
 20
12.52989840588705
 30
0.0
  0
VERTEX
  5
296
  8
LAYER_1
 10
133.0210284067828
 20
26.46154754492793
 30
0.0
  0
VERTEX
  5
297
  8
LAYER_1
 10
150.9488634572023
 20
48.96679073092442
 30
0.0
  0
SEQEND
  5
298
  8
LAYER_1
  0
POLYLINE
  5
79
  8
LAYER_1
 66
     1
 10
0.0
 20
0.0
 30
0.0
 70
     1
  0
VERTEX
  5
299
  8
LAYER_1
 10
-133.0210284067828
 20
26.45952767166981
 30
0.0
  0
VERTEX
  5
29A
  8
LAYER_1
 10
-158.1969352755416
 20
12.52787853262893
 30
0.0
  0
VERTEX
  5
29B
  8
LAYER_1
 10
-229.3132196064124
 20
45.61259438466091
 30
0.0
  0
VERTEX
  5
29C
  8
LAYER_1
 10
-150.9488634572023
 20
48.9647708576663
 30
0.0
  0
SEQEND
  5
29D
  8
LAYER_1
  0
POLYLINE
  5
7A
  8
LAYER_1
 66
     1
 10
0.0
 20
0.0
 30
0.0
 70
     1
  0
VERTEX
  5
29E
  8
LAYER_1
 10
632.2959979437206
 20
45.61461425791906
 30
0.0
  0
VERTEX
  5
29F
  8
LAYER_1
 10
677.9085923283817
 20
0.0010099366290855
 30
0.0
  0
VERTEX
  5
2A0
  8
LAYER_1
 10
632.2959979437206
 20
-45.61259438466091
 30
0.0
  0
VERTEX
  5
2A1
  8
LAYER_1
 10
564.5808681055423
 20
-45.61259438466091
 30
0.0
  0
VERTEX
  5
2A2
  8
LAYER_1
 10
538.2464187222057
 20
0.001009936629077
 30
0.0
  0
VERTEX
  5
2A3
  8
LAYER_1
 10
564.5808681055423
 20
45.61461425791907
 30
0.0
  0
SEQEND
  5
2A4
  8
LAYER_1
  0
POLYLINE
  5
7B
  8
LAYER_1
 66
     1
 10
0.0
 20
0.0
 30
0.0
 70
     1
  0
VERTEX
  5
2A5
  8
LAYER_1
 10
510.5335933700742
 20
0.0010099366290753
 30
0.0
  0
VERTEX
  5
2A6
  8
LAYER_1
 10
484.199167891598
 20
-45.61259438466092
 30
0.0
  0
VERTEX
  5
2A7
  8
LAYER_1
 10
286.2111387964579
 20
-45.61259438466093
 30
0.0
  0
VERTEX
  5
2A8
  8
LAYER_1
 10
188.1659191900455
 20
0.0010099366290555
 30
0.0
  0
VERTEX
  5
2A9
  8
LAYER_1
 10
286.2111387964579
 20
45.61461425791904
 30
0.0
  0
VERTEX
  5
2AA
  8
LAYER_1
 10
484.199167891598
 20
45.61461425791906
 30
0.0
  0
SEQEND
  5
2AB
  8
LAYER_1
  0
POLYLINE
  5
7C
  8
LAYER_1
 66
     1
 10
0.0
 20
0.0
 30
0.0
 70
     1
  0
VERTEX
  5
2AC
  8
LAYER_1
 10
-188.1659191900455
 20
-0.0010099366290786
 30
0.0
  0
VERTEX
  5
2AD
  8
LAYER_1
 10
-286.2111387964579
 20
-45.61461425791908
 30
0.0
  0
VERTEX
  5
2AE
  8
LAYER_1
 10
-484.199167891598
 20
-45.61461425791912
 30
0.0
  0
VERTEX
  5
2AF
  8
LAYER_1
 10
-510.5335933700742
 20
-0.0010099366291378
 30
0.0
  0
VERTEX
  5
2B0
  8
LAYER_1
 10
-484.199167891598
 20
45.61259438466085
 30
0.0
  0
VERTEX
  5
2B1
  8
LAYER_1
 10
-286.2111387964579
 20
45.61259438466089
 30
0.0
  0
SEQEND
  5
2B2
  8
LAYER_1
  0
POLYLINE
  5
7D
  8
LAYER_1
 66
     1
 10
0.0
 20
0.0
 30
0.0
 70
     1
  0
VERTEX
  5
2B3
  8
LAYER_1
 10
-538.2464187222057
 20
-0.0010099366291429
 30
0.0
  0
VERTEX
  5
2B4
  8
LAYER_1
 10
-564.5808681055423
 20
-45.61461425791914
 30
0.0
  0
VERTEX
  5
2B5
  8
LAYER_1
 10
-632.2959979437206
 20
-45.61461425791914
 30
0.0
  0
VERTEX
  5
2B6
  8
LAYER_1
 10
-677.9085923283817
 20
-0.0010099366291686
 30
0.0
  0
VERTEX
  5
2B7
  8
LAYER_1
 10
-632.2959979437206
 20
45.61259438466082
 30
0.0
  0
VERTEX
  5
2B8
  8
LAYER_1
 10
-564.5808681055423
 20
45.61259438466085
 30
0.0
  0
SEQEND
  5
2B9
  8
LAYER_1
  0
POLYLINE
  5
7E
  8
LAYER_1
 66
     1
 10
0.0
 20
0.0
 30
0.0
 70
     1
  0
VERTEX
  5
2BA
  8
LAYER_1
 10
229.3132196064124
 20
-45.61259438466094
 30
0.0
  0
VERTEX
  5
2BB
  8
LAYER_1
 10
150.9488634572023
 20
-48.96477085766632
 30
0.0
  0
VERTEX
  5
2BC
  8
LAYER_1
 10
133.0210284067828
 20
-26.45952767166983
 30
0.0
  0
VERTEX
  5
2BD
  8
LAYER_1
 10
158.1969352755416
 20
-12.52787853262895
 30
0.0
  0
SEQEND
  5
2BE
  8
LAYER_1
  0
POLYLINE
  5
7F
  8
LAYER_1
 66
     1
 10
0.0
 20
0.0
 30
0.0
 70
     1
  0
VERTEX
  5
2BF
  8
LAYER_1
 10
-133.0210284067828
 20
-26.46154754492795
 30
0.0
  0
VERTEX
  5
2C0
  8
LAYER_1
 10
-150.9488634572023
 20
-48.96679073092444
 30
0.0
  0
VERTEX
  5
2C1
  8
LAYER_1
 10
-229.3132196064124
 20
-45.61461425791908
 30
0.0
  0
VERTEX
  5
2C2
  8
LAYER_1
 10
-158.1969352755416
 20
-12.52989840588707
 30
0.0
  0
SEQEND
  5
2C3
  8
LAYER_1
  0
POLYLINE
  5
80
  8
LAYER_1
 66
     1
 10
0.0
 20
0.0
 30
0.0
 70
     1
  0
VERTEX
  5
2C4
  8
LAYER_1
 10
550.7244616449914
 20
-69.61259438466095
 30
0.0
  0
VERTEX
  5
2C5
  8
LAYER_1
 10
608.2959979437204
 20
-69.61259438466091
 30
0.0
  0
VERTEX
  5
2C6
  8
LAYER_1
 10
605.7460801346211
 20
-72.16251219376039
 30
0.0
  0
VERTEX
  5
2C7
  8
LAYER_1
 10
556.2486054515628
 20
-121.6599868768187
 30
0.0
  0
VERTEX
  5
2C8
  8
LAYER_1
 10
568.8291070162834
 20
-158.9866408632986
 30
0.0
  0
VERTEX
  5
2C9
  8
LAYER_1
 10
530.8721777638798
 20
-143.7766976519836
 30
0.0
  0
VERTEX
  5
2CA
  8
LAYER_1
 10
493.3869825421987
 20
-176.4467500041877
 30
0.0
  0
VERTEX
  5
2CB
  8
LAYER_1
 10
486.7829421679494
 20
-126.2839673737675
 30
0.0
  0
VERTEX
  5
2CC
  8
LAYER_1
 10
349.9661448993438
 20
-69.61259438466082
 30
0.0
  0
VERTEX
  5
2CD
  8
LAYER_1
 10
498.0555791318683
 20
-69.61259438466091
 30
0.0
  0
VERTEX
  5
2CE
  8
LAYER_1
 10
524.390011304455
 20
-23.99998840545243
 30
0.0
  0
SEQEND
  5
2CF
  8
LAYER_1
  0
POLYLINE
  5
81
  8
LAYER_1
 66
     1
 10
0.0
 20
0.0
 30
0.0
 70
     1
  0
VERTEX
  5
2D0
  8
LAYER_1
 10
-498.0555791318683
 20
-69.61461425791911
 30
0.0
  0
VERTEX
  5
2D1
  8
LAYER_1
 10
-349.9661448993438
 20
-69.61461425791902
 30
0.0
  0
VERTEX
  5
2D2
  8
LAYER_1
 10
-486.7829421679494
 20
-126.2859872470257
 30
0.0
  0
VERTEX
  5
2D3
  8
LAYER_1
 10
-493.3869825421986
 20
-176.448769877446
 30
0.0
  0
VERTEX
  5
2D4
  8
LAYER_1
 10
-530.8721777638798
 20
-143.7787175252419
 30
0.0
  0
VERTEX
  5
2D5
  8
LAYER_1
 10
-568.8291070162834
 20
-158.988660736557
 30
0.0
  0
VERTEX
  5
2D6
  8
LAYER_1
 10
-556.2486054515628
 20
-121.6620067500769
 30
0.0
  0
VERTEX
  5
2D7
  8
LAYER_1
 10
-605.7460801346211
 20
-72.16453206701864
 30
0.0
  0
VERTEX
  5
2D8
  8
LAYER_1
 10
-608.2959979437204
 20
-69.61461425791916
 30
0.0
  0
VERTEX
  5
2D9
  8
LAYER_1
 10
-550.7244616449914
 20
-69.61461425791917
 30
0.0
  0
VERTEX
  5
2DA
  8
LAYER_1
 10
-524.390011304455
 20
-24.00200827871065
 30
0.0
  0
SEQEND
  5
2DB
  8
LAYER_1
  0
POLYLINE
  5
82
  8
LAYER_1
 66
     1
 10
0.0
 20
0.0
 30
0.0
 70
     1
  0
VERTEX
  5
2DC
  8
LAYER_1
 10
194.4026059504316
 20
-129.894912342399
 30
0.0
  0
VERTEX
  5
2DD
  8
LAYER_1
 10
120.7205588271682
 20
-103.0031787889145
 30
0.0
  0
VERTEX
  5
2DE
  8
LAYER_1
 10
112.7697826704754
 20
-75.35035978321352
 30
0.0
  0
VERTEX
  5
2DF
  8
LAYER_1
 10
141.3606990499663
 20
-72.11359674296563
 30
0.0
  0
SEQEND
  5
2E0
  8
LAYER_1
  0
POLYLINE
  5
83
  8
LAYER_1
 66
     1
 10
0.0
 20
0.0
 30
0.0
 70
     1
  0
VERTEX
  5
2E1
  8
LAYER_1
 10
-112.7697826704754
 20
-75.35237965647163
 30
0.0
  0
VERTEX
  5
2E2
  8
LAYER_1
 10
-120.7205588271682
 20
-103.0051986621726
 30
0.0
  0
VERTEX
  5
2E3
  8
LAYER_1
 10
-194.4026059504316
 20
-129.8969322156571
 30
0.0
  0
VERTEX
  5
2E4
  8
LAYER_1
 10
-141.3606990499663
 20
-72.11561661622376
 30
0.0
  0
SEQEND
  5
2E5
  8
LAYER_1
  0
POLYLINE
  5
84
  8
LAYER_1
 66
     1
 10
0.0
 20
0.0
 30
0.0
 70
     1
  0
VERTEX
  5
2E6
  8
LAYER_1
 10
103.0051986621726
 20
-120.7205588271682
 30
0.0
  0
VERTEX
  5
2E7
  8
LAYER_1
 10
129.8969322156571
 20
-194.4026059504316
 30
0.0
  0
VERTEX
  5
2E8
  8
LAYER_1
 10
72.11561661622375
 20
-141.3606990499663
 30
0.0
  0
VERTEX
  5
2E9
  8
LAYER_1
 10
75.35237965647163
 20
-112.7697826704754
 30
0.0
  0
SEQEND
  5
2EA
  8
LAYER_1
  0
POLYLINE
  5
85
  8
LAYER_1
 66
     1
 10
0.0
 20
0.0
 30
0.0
 70
     1
  0
VERTEX
  5
2EB
  8
LAYER_1
 10
-72.11359674296563
 20
-141.3606990499663
 30
0.0
  0
VERTEX
  5
2EC
  8
LAYER_1
 10
-129.894912342399
 20
-194.4026059504316
 30
0.0
  0
VERTEX
  5
2ED
  8
LAYER_1
 10
-103.0031787889145
 20
-120.7205588271682
 30
0.0
  0
VERTEX
  5
2EE
  8
LAYER_1
 10
-75.3503597832135
 20
-112.7697826704754
 30
0.0
  0
SEQEND
  5
2EF
  8
LAYER_1
  0
POLYLINE
  5
86
  8
LAYER_1
 66
     1
 10
0.0
 20
0.0
 30
0.0
 70
     1
  0
VERTEX
  5
2F0
  8
LAYER_1
 10
661.2695979578348
 20
-90.60787418438144
 30
0.0
  0
VERTEX
  5
2F1
  8
LAYER_1
 10
661.2695979578348
 20
-142.9197185071389
 30
0.0
  0
VERTEX
  5
2F2
  8
LAYER_1
 10
661.2695979578345
 20
-182.4140365956968
 30
0.0
  0
VERTEX
  5
2F3
  8
LAYER_1
 10
657.8877518374087
 20
-195.1416058042097
 30
0.0
  0
VERTEX
  5
2F4
  8
LAYER_1
 10
594.098131187334
 20
-158.1346680403805
 30
0.0
  0
VERTEX
  5
2F5
  8
LAYER_1
 10
583.8014843698628
 20
-128.0482334554729
 30
0.0
  0
VERTEX
  5
2F6
  8
LAYER_1
 10
621.2418436409544
 20
-90.60787418438143
 30
0.0
  0
SEQEND
  5
2F7
  8
LAYER_1
  0
POLYLINE
  5
87
  8
LAYER_1
 66
     1
 10
0.0
 20
0.0
 30
0.0
 70
     1
  0
VERTEX
  5
2F8
  8
LAYER_1
 10
-583.8014843698628
 20
-128.0502533287311
 30
0.0
  0
VERTEX
  5
2F9
  8
LAYER_1
 10
-594.098131187334
 20
-158.1366879136387
 30
0.0
  0
VERTEX
  5
2FA
  8
LAYER_1
 10
-657.8877518374087
 20
-195.1436256774679
 30
0.0
  0
VERTEX
  5
2FB
  8
LAYER_1
 10
-661.2695979578345
 20
-182.4160564689551
 30
0.0
  0
VERTEX
  5
2FC
  8
LAYER_1
 10
-661.2695979578348
 20
-142.9217383803971
 30
0.0
  0
VERTEX
  5
2FD
  8
LAYER_1
 10
-661.2695979578348
 20
-90.6098940576397
 30
0.0
  0
VERTEX
  5
2FE
  8
LAYER_1
 10
-621.2418436409544
 20
-90.60989405763968
 30
0.0
  0
SEQEND
  5
2FF
  8
LAYER_1
  0
POLYLINE
  5
88
  8
LAYER_1
 66
     1
 10
0.0
 20
0.0
 30
0.0
 70
     1
  0
VERTEX
  5
300
  8
LAYER_1
 10
464.7968850522423
 20
-143.1544571403496
 30
0.0
  0
VERTEX
  5
301
  8
LAYER_1
 10
471.6715375740516
 20
-195.372747848543
 30
0.0
  0
VERTEX
  5
302
  8
LAYER_1
 10
429.8865166958449
 20
-227.4355418938046
 30
0.0
  0
VERTEX
  5
303
  8
LAYER_1
 10
246.9694289325959
 20
-151.6688033524771
 30
0.0
  0
VERTEX
  5
304
  8
LAYER_1
 10
173.8426414558558
 20
-72.00797980977873
 30
0.0
  0
VERTEX
  5
305
  8
LAYER_1
 10
281.8797972889932
 20
-67.38771859902212
 30
0.0
  0
SEQEND
  5
306
  8
LAYER_1
  0
POLYLINE
  5
89
  8
LAYER_1
 66
     1
 10
0.0
 20
0.0
 30
0.0
 70
     1
  0
VERTEX
  5
307
  8
LAYER_1
 10
-173.8426414558558
 20
-72.00999968303687
 30
0.0
  0
VERTEX
  5
308
  8
LAYER_1
 10
-246.9694289325959
 20
-151.6708232257353
 30
0.0
  0
VERTEX
  5
309
  8
LAYER_1
 10
-429.8865166958448
 20
-227.4375617670628
 30
0.0
  0
VERTEX
  5
30A
  8
LAYER_1
 10
-471.6715375740515
 20
-195.3747677218012
 30
0.0
  0
VERTEX
  5
30B
  8
LAYER_1
 10
-464.7968850522423
 20
-143.1564770136078
 30
0.0
  0
VERTEX
  5
30C
  8
LAYER_1
 10
-281.8797972889932
 20
-67.38973847228029
 30
0.0
  0
SEQEND
  5
30D
  8
LAYER_1
  0
POLYLINE
  5
8A
  8
LAYER_1
 66
     1
 10
0.0
 20
0.0
 30
0.0
 70
     1
  0
VERTEX
  5
30E
  8
LAYER_1
 10
48.96679073092443
 20
-150.9488634572023
 30
0.0
  0
VERTEX
  5
30F
  8
LAYER_1
 10
45.61461425791907
 20
-229.3132196064124
 30
0.0
  0
VERTEX
  5
310
  8
LAYER_1
 10
12.52989840588707
 20
-158.1969352755416
 30
0.0
  0
VERTEX
  5
311
  8
LAYER_1
 10
26.46154754492794
 20
-133.0210284067828
 30
0.0
  0
SEQEND
  5
312
  8
LAYER_1
  0
POLYLINE
  5
8B
  8
LAYER_1
 66
     1
 10
0.0
 20
0.0
 30
0.0
 70
     1
  0
VERTEX
  5
313
  8
LAYER_1
 10
-12.52787853262894
 20
-158.1969352755416
 30
0.0
  0
VERTEX
  5
314
  8
LAYER_1
 10
-45.61259438466092
 20
-229.3132196064124
 30
0.0
  0
VERTEX
  5
315
  8
LAYER_1
 10
-48.9647708576663
 20
-150.9488634572023
 30
0.0
  0
VERTEX
  5
316
  8
LAYER_1
 10
-26.45952767166981
 20
-133.0210284067828
 30
0.0
  0
SEQEND
  5
317
  8
LAYER_1
  0
POLYLINE
  5
8C
  8
LAYER_1
 66
     1
 10
0.0
 20
0.0
 30
0.0
 70
     1
  0
VERTEX
  5
318
  8
LAYER_1
 10
696.1731588676964
 20
-430.628848698119
 30
0.0
  0
VERTEX
  5
319
  8
LAYER_1
 10
673.0160228343825
 20
-343.4770265750497
 30
0.0
  0
VERTEX
  5
31A
  8
LAYER_1
 10
595.0158104963808
 20
-388.7281030690202
 30
0.0
  0
VERTEX
  5
31B
  8
LAYER_1
 10
640.2668869903513
 20
-310.7278907310184
 30
0.0
  0
VERTEX
  5
31C
  8
LAYER_1
 10
553.115064867282
 20
-287.5707546977046
 30
0.0
  0
VERTEX
  5
31D
  8
LAYER_1
 10
640.2668869903514
 20
-264.4136186643906
 30
0.0
  0
VERTEX
  5
31E
  8
LAYER_1
 10
595.0158104963807
 20
-186.413406326389
 30
0.0
  0
VERTEX
  5
31F
  8
LAYER_1
 10
673.0160228343825
 20
-231.6644828203594
 30
0.0
  0
VERTEX
  5
320
  8
LAYER_1
 10
696.1731588676964
 20
-144.5126606972901
 30
0.0
  0
SEQEND
  5
321
  8
LAYER_1
  0
POLYLINE
  5
8D
  8
LAYER_1
 66
     1
 10
0.0
 20
0.0
 30
0.0
 70
     1
  0
VERTEX
  5
322
  8
LAYER_1
 10
-401.4020149573194
 20
-302.9569597398129
 30
0.0
  0
VERTEX
  5
323
  8
LAYER_1
 10
-388.3068868569733
 20
-351.8285847437662
 30
0.0
  0
VERTEX
  5
324
  8
LAYER_1
 10
-435.440979264163
 20
-335.9903552198011
 30
0.0
  0
VERTEX
  5
325
  8
LAYER_1
 10
-464.6880160432536
 20
-364.5679984117427
 30
0.0
  0
VERTEX
  5
326
  8
LAYER_1
 10
-467.3494402051311
 20
-325.2683172568587
 30
0.0
  0
VERTEX
  5
327
  8
LAYER_1
 10
-532.0210074809223
 20
-298.4804769912852
 30
0.0
  0
VERTEX
  5
328
  8
LAYER_1
 10
-535.3526356537701
 20
-297.1004714173073
 30
0.0
  0
VERTEX
  5
329
  8
LAYER_1
 10
-482.1634716121438
 20
-275.0687982999781
 30
0.0
  0
VERTEX
  5
32A
  8
LAYER_1
 10
-475.2888005578273
 20
-222.850487365521
 30
0.0
  0
VERTEX
  5
32B
  8
LAYER_1
 10
-433.5037690580278
 20
-254.9132895610225
 30
0.0
  0
VERTEX
  5
32C
  8
LAYER_1
 10
-296.6869717894221
 20
-198.2419165719157
 30
0.0
  0
SEQEND
  5
32D
  8
LAYER_1
  0
POLYLINE
  5
8E
  8
LAYER_1
 66
     1
 10
0.0
 20
0.0
 30
0.0
 70
     1
  0
VERTEX
  5
32E
  8
LAYER_1
 10
565.6091692097219
 20
-183.5515373899618
 30
0.0
  0
VERTEX
  5
32F
  8
LAYER_1
 10
603.7440099742015
 20
-249.2853476674168
 30
0.0
  0
VERTEX
  5
330
  8
LAYER_1
 10
529.9646807151657
 20
-268.8892747280066
 30
0.0
  0
VERTEX
  5
331
  8
LAYER_1
 10
504.1495243119663
 20
-258.1962868310184
 30
0.0
  0
VERTEX
  5
332
  8
LAYER_1
 10
497.1468574192191
 20
-205.0057509803899
 30
0.0
  0
VERTEX
  5
333
  8
LAYER_1
 10
535.5730408190784
 20
-171.5155846375268
 30
0.0
  0
SEQEND
  5
334
  8
LAYER_1
  0
POLYLINE
  5
8F
  8
LAYER_1
 66
     1
 10
0.0
 20
0.0
 30
0.0
 70
     1
  0
VERTEX
  5
335
  8
LAYER_1
 10
-497.146857419219
 20
-205.0077708536481
 30
0.0
  0
VERTEX
  5
336
  8
LAYER_1
 10
-504.1495243119662
 20
-258.1983067042767
 30
0.0
  0
VERTEX
  5
337
  8
LAYER_1
 10
-529.9646807151657
 20
-268.8912946012648
 30
0.0
  0
VERTEX
  5
338
  8
LAYER_1
 10
-603.7440099742015
 20
-249.287367540675
 30
0.0
  0
VERTEX
  5
339
  8
LAYER_1
 10
-565.6091692097219
 20
-183.55355726322
 30
0.0
  0
VERTEX
  5
33A
  8
LAYER_1
 10
-535.5730408190784
 20
-171.517604510785
 30
0.0
  0
SEQEND
  5
33B
  8
LAYER_1
  0
POLYLINE
  5
90
  8
LAYER_1
 66
     1
 10
0.0
 20
0.0
 30
0.0
 70
     1
  0
VERTEX
  5
33C
  8
LAYER_1
 10
433.5037690580278
 20
-254.9112696877643
 30
0.0
  0
VERTEX
  5
33D
  8
LAYER_1
 10
475.2888005578274
 20
-222.8484674922628
 30
0.0
  0
VERTEX
  5
33E
  8
LAYER_1
 10
482.1634716121439
 20
-275.0667784267199
 30
0.0
  0
VERTEX
  5
33F
  8
LAYER_1
 10
535.3526356537701
 20
-297.0984515440491
 30
0.0
  0
VERTEX
  5
340
  8
LAYER_1
 10
532.0210074809223
 20
-298.4784571180269
 30
0.0
  0
VERTEX
  5
341
  8
LAYER_1
 10
467.3494402051311
 20
-325.2662973836005
 30
0.0
  0
VERTEX
  5
342
  8
LAYER_1
 10
464.6880160432536
 20
-364.5659785384844
 30
0.0
  0
VERTEX
  5
343
  8
LAYER_1
 10
435.4409792641631
 20
-335.988335346543
 30
0.0
  0
VERTEX
  5
344
  8
LAYER_1
 10
388.3068868569734
 20
-351.8265648705081
 30
0.0
  0
VERTEX
  5
345
  8
LAYER_1
 10
401.4020149573195
 20
-302.9549398665548
 30
0.0
  0
VERTEX
  5
346
  8
LAYER_1
 10
296.6869717894222
 20
-198.2398966986575
 30
0.0
  0
SEQEND
  5
347
  8
LAYER_1
  0
POLYLINE
  5
91
  8
LAYER_1
 66
     1
 10
0.0
 20
0.0
 30
0.0
 70
     1
  0
VERTEX
  5
348
  8
LAYER_1
 10
234.6348118910048
 20
-170.1288622971943
 30
0.0
  0
VERTEX
  5
349
  8
LAYER_1
 10
374.6334898579378
 20
-310.1275402641273
 30
0.0
  0
VERTEX
  5
34A
  8
LAYER_1
 10
361.002775832144
 20
-361.0017658955149
 30
0.0
  0
VERTEX
  5
34B
  8
LAYER_1
 10
310.1295601373855
 20
-374.6334898579377
 30
0.0
  0
VERTEX
  5
34C
  8
LAYER_1
 10
170.1308821704525
 20
-234.6348118910047
 30
0.0
  0
VERTEX
  5
34D
  8
LAYER_1
 10
133.0544073841102
 20
-133.0533974474811
 30
0.0
  0
SEQEND
  5
34E
  8
LAYER_1
  0
POLYLINE
  5
92
  8
LAYER_1
 66
     1
 10
0.0
 20
0.0
 30
0.0
 70
     1
  0
VERTEX
  5
34F
  8
LAYER_1
 10
-170.1288622971943
 20
-234.6348118910048
 30
0.0
  0
VERTEX
  5
350
  8
LAYER_1
 10
-310.1275402641273
 20
-374.6334898579378
 30
0.0
  0
VERTEX
  5
351
  8
LAYER_1
 10
-361.0017658955148
 20
-361.002775832144
 30
0.0
  0
VERTEX
  5
352
  8
LAYER_1
 10
-374.6334898579377
 20
-310.1295601373855
 30
0.0
  0
VERTEX
  5
353
  8
LAYER_1
 10
-234.6348118910047
 20
-170.1308821704525
 30
0.0
  0
VERTEX
  5
354
  8
LAYER_1
 10
-133.0533974474811
 20
-133.0544073841102
 30
0.0
  0
SEQEND
  5
355
  8
LAYER_1
  0
POLYLINE
  5
93
  8
LAYER_1
 66
     1
 10
0.0
 20
0.0
 30
0.0
 70
     1
  0
VERTEX
  5
356
  8
LAYER_1
 10
-673.0160228343825
 20
-231.6665026936177
 30
0.0
  0
VERTEX
  5
357
  8
LAYER_1
 10
-595.0158104963807
 20
-186.4154261996472
 30
0.0
  0
VERTEX
  5
358
  8
LAYER_1
 10
-640.2668869903514
 20
-264.4156385376488
 30
0.0
  0
VERTEX
  5
359
  8
LAYER_1
 10
-553.115064867282
 20
-287.5727745709628
 30
0.0
  0
VERTEX
  5
35A
  8
LAYER_1
 10
-640.2668869903512
 20
-310.7299106042767
 30
0.0
  0
VERTEX
  5
35B
  8
LAYER_1
 10
-595.0158104963807
 20
-388.7301229422785
 30
0.0
  0
VERTEX
  5
35C
  8
LAYER_1
 10
-673.0160228343824
 20
-343.4790464483079
 30
0.0
  0
VERTEX
  5
35D
  8
LAYER_1
 10
-696.1731588676963
 20
-430.6308685713773
 30
0.0
  0
VERTEX
  5
35E
  8
LAYER_1
 10
-696.1731588676964
 20
-144.5146805705483
 30
0.0
  0
SEQEND
  5
35F
  8
LAYER_1
  0
POLYLINE
  5
94
  8
LAYER_1
 66
     1
 10
0.0
 20
0.0
 30
0.0
 70
     1
  0
VERTEX
  5
360
  8
LAYER_1
 10
-254.9112696877643
 20
-433.5037690580279
 30
0.0
  0
VERTEX
  5
361
  8
LAYER_1
 10
-222.8484674922628
 20
-475.2888005578274
 30
0.0
  0
VERTEX
  5
362
  8
LAYER_1
 10
-275.0667784267199
 20
-482.163471612144
 30
0.0
  0
VERTEX
  5
363
  8
LAYER_1
 10
-297.0984515440491
 20
-535.3526356537701
 30
0.0
  0
VERTEX
  5
364
  8
LAYER_1
 10
-298.4784571180269
 20
-532.0210074809223
 30
0.0
  0
VERTEX
  5
365
  8
LAYER_1
 10
-325.2662973836005
 20
-467.3494402051312
 30
0.0
  0
VERTEX
  5
366
  8
LAYER_1
 10
-364.5659785384844
 20
-464.6880160432537
 30
0.0
  0
VERTEX
  5
367
  8
LAYER_1
 10
-335.9883353465429
 20
-435.4409792641632
 30
0.0
  0
VERTEX
  5
368
  8
LAYER_1
 10
-351.826564870508
 20
-388.3068868569734
 30
0.0
  0
VERTEX
  5
369
  8
LAYER_1
 10
-302.9549398665548
 20
-401.4020149573195
 30
0.0
  0
VERTEX
  5
36A
  8
LAYER_1
 10
-198.2398966986575
 20
-296.6869717894222
 30
0.0
  0
SEQEND
  5
36B
  8
LAYER_1
  0
POLYLINE
  5
95
  8
LAYER_1
 66
     1
 10
0.0
 20
0.0
 30
0.0
 70
     1
  0
VERTEX
  5
36C
  8
LAYER_1
 10
603.7440099742016
 20
-325.8561617279923
 30
0.0
  0
VERTEX
  5
36D
  8
LAYER_1
 10
574.2563272674847
 20
-376.6846876037471
 30
0.0
  0
VERTEX
  5
36E
  8
LAYER_1
 10
568.8065561996874
 20
-385.3557772698726
 30
0.0
  0
VERTEX
  5
36F
  8
LAYER_1
 10
533.1315691060562
 20
-432.050078527987
 30
0.0
  0
VERTEX
  5
370
  8
LAYER_1
 10
488.1591878806325
 20
-373.1865977445667
 30
0.0
  0
VERTEX
  5
371
  8
LAYER_1
 10
490.2886575242575
 20
-341.7419752668018
 30
0.0
  0
VERTEX
  5
372
  8
LAYER_1
 10
541.2054098576863
 20
-320.6515658982971
 30
0.0
  0
VERTEX
  5
373
  8
LAYER_1
 10
557.9904568268142
 20
-313.6989717986138
 30
0.0
  0
SEQEND
  5
374
  8
LAYER_1
  0
POLYLINE
  5
96
  8
LAYER_1
 66
     1
 10
0.0
 20
0.0
 30
0.0
 70
     1
  0
VERTEX
  5
375
  8
LAYER_1
 10
-541.2054098576862
 20
-320.6535857715553
 30
0.0
  0
VERTEX
  5
376
  8
LAYER_1
 10
-490.2886575242575
 20
-341.7439951400601
 30
0.0
  0
VERTEX
  5
377
  8
LAYER_1
 10
-488.1591878806325
 20
-373.1886176178249
 30
0.0
  0
VERTEX
  5
378
  8
LAYER_1
 10
-533.1315691060561
 20
-432.0520984012452
 30
0.0
  0
VERTEX
  5
379
  8
LAYER_1
 10
-568.8065561996873
 20
-385.3577971431308
 30
0.0
  0
VERTEX
  5
37A
  8
LAYER_1
 10
-574.2563272674846
 20
-376.6867074770054
 30
0.0
  0
VERTEX
  5
37B
  8
LAYER_1
 10
-603.7440099742015
 20
-325.8581816012505
 30
0.0
  0
VERTEX
  5
37C
  8
LAYER_1
 10
-557.9904568268141
 20
-313.700991671872
 30
0.0
  0
SEQEND
  5
37D
  8
LAYER_1
  0
POLYLINE
  5
97
  8
LAYER_1
 66
     1
 10
0.0
 20
0.0
 30
0.0
 70
     1
  0
VERTEX
  5
37E
  8
LAYER_1
 10
676.9078529634395
 20
-451.5820054415298
 30
0.0
  0
VERTEX
  5
37F
  8
LAYER_1
 10
603.8737770043494
 20
-461.352460471677
 30
0.0
  0
VERTEX
  5
380
  8
LAYER_1
 10
611.1280106695176
 20
-407.1271198000155
 30
0.0
  0
VERTEX
  5
381
  8
LAYER_1
 10
657.8877518374087
 20
-379.9999035911995
 30
0.0
  0
SEQEND
  5
382
  8
LAYER_1
  0
POLYLINE
  5
98
  8
LAYER_1
 66
     1
 10
0.0
 20
0.0
 30
0.0
 70
     1
  0
VERTEX
  5
383
  8
LAYER_1
 10
-611.1280106695174
 20
-407.1291396732737
 30
0.0
  0
VERTEX
  5
384
  8
LAYER_1
 10
-603.8737770043493
 20
-461.3544803449352
 30
0.0
  0
VERTEX
  5
385
  8
LAYER_1
 10
-676.9078529634394
 20
-451.584025314788
 30
0.0
  0
VERTEX
  5
386
  8
LAYER_1
 10
-657.8877518374086
 20
-380.0019234644578
 30
0.0
  0
SEQEND
  5
387
  8
LAYER_1
  0
POLYLINE
  5
99
  8
LAYER_1
 66
     1
 10
0.0
 20
0.0
 30
0.0
 70
     1
  0
VERTEX
  5
388
  8
LAYER_1
 10
462.7108738818483
 20
-396.1890470392146
 30
0.0
  0
VERTEX
  5
389
  8
LAYER_1
 10
461.9576106326232
 20
-460.9207098965373
 30
0.0
  0
VERTEX
  5
38A
  8
LAYER_1
 10
461.2283589185661
 20
-461.227348981937
 30
0.0
  0
VERTEX
  5
38B
  8
LAYER_1
 10
460.9227297697955
 20
-461.9576106326231
 30
0.0
  0
VERTEX
  5
38C
  8
LAYER_1
 10
396.1910669124726
 20
-462.7108738818483
 30
0.0
  0
VERTEX
  5
38D
  8
LAYER_1
 10
363.4166875694297
 20
-429.1687979443846
 30
0.0
  0
VERTEX
  5
38E
  8
LAYER_1
 10
379.6525030378507
 20
-380.8515017821649
 30
0.0
  0
VERTEX
  5
38F
  8
LAYER_1
 10
380.4245480606019
 20
-380.4235381239728
 30
0.0
  0
VERTEX
  5
390
  8
LAYER_1
 10
380.851501782165
 20
-379.6504831645926
 30
0.0
  0
VERTEX
  5
391
  8
LAYER_1
 10
429.1687979443846
 20
-363.4146676961716
 30
0.0
  0
SEQEND
  5
392
  8
LAYER_1
  0
POLYLINE
  5
9A
  8
LAYER_1
 66
     1
 10
0.0
 20
0.0
 30
0.0
 70
     1
  0
VERTEX
  5
393
  8
LAYER_1
 10
-380.8515017821649
 20
-379.6525030378507
 30
0.0
  0
VERTEX
  5
394
  8
LAYER_1
 10
-380.4235381239727
 20
-380.4245480606019
 30
0.0
  0
VERTEX
  5
395
  8
LAYER_1
 10
-379.6504831645925
 20
-380.851501782165
 30
0.0
  0
VERTEX
  5
396
  8
LAYER_1
 10
-363.4146676961715
 20
-429.1687979443847
 30
0.0
  0
VERTEX
  5
397
  8
LAYER_1
 10
-396.1890470392145
 20
-462.7108738818483
 30
0.0
  0
VERTEX
  5
398
  8
LAYER_1
 10
-460.9207098965373
 20
-461.9576106326232
 30
0.0
  0
VERTEX
  5
399
  8
LAYER_1
 10
-461.227348981937
 20
-461.2283589185661
 30
0.0
  0
VERTEX
  5
39A
  8
LAYER_1
 10
-461.9576106326231
 20
-460.9227297697955
 30
0.0
  0
VERTEX
  5
39B
  8
LAYER_1
 10
-462.7108738818483
 20
-396.1910669124726
 30
0.0
  0
VERTEX
  5
39C
  8
LAYER_1
 10
-429.1687979443846
 20
-363.4166875694297
 30
0.0
  0
SEQEND
  5
39D
  8
LAYER_1
  0
POLYLINE
  5
9B
  8
LAYER_1
 66
     1
 10
0.0
 20
0.0
 30
0.0
 70
     1
  0
VERTEX
  5
39E
  8
LAYER_1
 10
-490.3427610805396
 20
-489.3078802177117
 30
0.0
  0
VERTEX
  5
39F
  8
LAYER_1
 10
-489.5405468310382
 20
-489.5415567676674
 30
0.0
  0
VERTEX
  5
3A0
  8
LAYER_1
 10
-489.3058603444535
 20
-490.3427610805398
 30
0.0
  0
VERTEX
  5
3A1
  8
LAYER_1
 10
-399.9262233629115
 20
-478.3856066663699
 30
0.0
  0
VERTEX
  5
3A2
  8
LAYER_1
 10
-471.5821557425058
 20
-533.1315691060563
 30
0.0
  0
VERTEX
  5
3A3
  8
LAYER_1
 10
-399.9262233629116
 20
-587.8775315457426
 30
0.0
  0
VERTEX
  5
3A4
  8
LAYER_1
 10
-489.3058603444535
 20
-575.920377131573
 30
0.0
  0
VERTEX
  5
3A5
  8
LAYER_1
 10
-477.3487059302839
 20
-665.3000141131149
 30
0.0
  0
VERTEX
  5
3A6
  8
LAYER_1
 10
-532.0946683699702
 20
-593.6440817335208
 30
0.0
  0
VERTEX
  5
3A7
  8
LAYER_1
 10
-586.8406308096563
 20
-665.300014113115
 30
0.0
  0
VERTEX
  5
3A8
  8
LAYER_1
 10
-574.8834763954866
 20
-575.9203771315729
 30
0.0
  0
VERTEX
  5
3A9
  8
LAYER_1
 10
-575.6856906449882
 20
-575.6867005816175
 30
0.0
  0
VERTEX
  5
3AA
  8
LAYER_1
 10
-575.9203771315726
 20
-574.8854962687449
 30
0.0
  0
VERTEX
  5
3AB
  8
LAYER_1
 10
-665.3000141131148
 20
-586.8426506829146
 30
0.0
  0
VERTEX
  5
3AC
  8
LAYER_1
 10
-593.6440817335206
 20
-532.0966882432285
 30
0.0
  0
VERTEX
  5
3AD
  8
LAYER_1
 10
-665.3000141131147
 20
-477.3507258035421
 30
0.0
  0
VERTEX
  5
3AE
  8
LAYER_1
 10
-575.9203771315728
 20
-489.3078802177117
 30
0.0
  0
VERTEX
  5
3AF
  8
LAYER_1
 10
-587.8775315457425
 20
-399.9282432361698
 30
0.0
  0
VERTEX
  5
3B0
  8
LAYER_1
 10
-533.1315691060561
 20
-471.584175615764
 30
0.0
  0
VERTEX
  5
3B1
  8
LAYER_1
 10
-478.3856066663698
 20
-399.9282432361697
 30
0.0
  0
SEQEND
  5
3B2
  8
LAYER_1
  0
POLYLINE
  5
9C
  8
LAYER_1
 66
     1
 10
0.0
 20
0.0
 30
0.0
 70
     1
  0
VERTEX
  5
3B3
  8
LAYER_1
 10
151.6708232257353
 20
-246.9694289325959
 30
0.0
  0
VERTEX
  5
3B4
  8
LAYER_1
 10
227.4375617670627
 20
-429.8865166958449
 30
0.0
  0
VERTEX
  5
3B5
  8
LAYER_1
 10
195.3747677218012
 20
-471.6715375740516
 30
0.0
  0
VERTEX
  5
3B6
  8
LAYER_1
 10
143.1564770136077
 20
-464.7968850522423
 30
0.0
  0
VERTEX
  5
3B7
  8
LAYER_1
 10
67.38973847228026
 20
-281.8797972889932
 30
0.0
  0
VERTEX
  5
3B8
  8
LAYER_1
 10
72.00999968303685
 20
-173.8426414558558
 30
0.0
  0
SEQEND
  5
3B9
  8
LAYER_1
  0
POLYLINE
  5
9D
  8
LAYER_1
 66
     1
 10
0.0
 20
0.0
 30
0.0
 70
     1
  0
VERTEX
  5
3BA
  8
LAYER_1
 10
-67.38771859902211
 20
-281.8797972889932
 30
0.0
  0
VERTEX
  5
3BB
  8
LAYER_1
 10
-143.1544571403495
 20
-464.7968850522423
 30
0.0
  0
VERTEX
  5
3BC
  8
LAYER_1
 10
-195.372747848543
 20
-471.6715375740516
 30
0.0
  0
VERTEX
  5
3BD
  8
LAYER_1
 10
-227.4355418938045
 20
-429.8865166958449
 30
0.0
  0
VERTEX
  5
3BE
  8
LAYER_1
 10
-151.6688033524771
 20
-246.9694289325959
 30
0.0
  0
VERTEX
  5
3BF
  8
LAYER_1
 10
-72.00797980977873
 20
-173.8426414558558
 30
0.0
  0
SEQEND
  5
3C0
  8
LAYER_1
  0
POLYLINE
  5
9E
  8
LAYER_1
 66
     1
 10
0.0
 20
0.0
 30
0.0
 70
     1
  0
VERTEX
  5
3C1
  8
LAYER_1
 10
533.1315691060562
 20
-471.5821557425058
 30
0.0
  0
VERTEX
  5
3C2
  8
LAYER_1
 10
587.8775315457426
 20
-399.9262233629116
 30
0.0
  0
VERTEX
  5
3C3
  8
LAYER_1
 10
575.9203771315729
 20
-489.3058603444535
 30
0.0
  0
VERTEX
  5
3C4
  8
LAYER_1
 10
665.3000141131148
 20
-477.3487059302839
 30
0.0
  0
VERTEX
  5
3C5
  8
LAYER_1
 10
593.6440817335207
 20
-532.0946683699703
 30
0.0
  0
VERTEX
  5
3C6
  8
LAYER_1
 10
665.3000141131149
 20
-586.8406308096564
 30
0.0
  0
VERTEX
  5
3C7
  8
LAYER_1
 10
575.9203771315728
 20
-574.8834763954867
 30
0.0
  0
VERTEX
  5
3C8
  8
LAYER_1
 10
575.6867005816174
 20
-575.6856906449882
 30
0.0
  0
VERTEX
  5
3C9
  8
LAYER_1
 10
574.8854962687449
 20
-575.9203771315726
 30
0.0
  0
VERTEX
  5
3CA
  8
LAYER_1
 10
586.8426506829146
 20
-665.3000141131148
 30
0.0
  0
VERTEX
  5
3CB
  8
LAYER_1
 10
532.0966882432285
 20
-593.6440817335206
 30
0.0
  0
VERTEX
  5
3CC
  8
LAYER_1
 10
477.350725803542
 20
-665.3000141131147
 30
0.0
  0
VERTEX
  5
3CD
  8
LAYER_1
 10
489.3078802177117
 20
-575.9203771315728
 30
0.0
  0
VERTEX
  5
3CE
  8
LAYER_1
 10
399.9282432361697
 20
-587.8775315457426
 30
0.0
  0
VERTEX
  5
3CF
  8
LAYER_1
 10
471.584175615764
 20
-533.1315691060561
 30
0.0
  0
VERTEX
  5
3D0
  8
LAYER_1
 10
399.9282432361697
 20
-478.3856066663698
 30
0.0
  0
VERTEX
  5
3D1
  8
LAYER_1
 10
489.3078802177117
 20
-490.3427610805397
 30
0.0
  0
VERTEX
  5
3D2
  8
LAYER_1
 10
489.5415567676674
 20
-489.5405468310382
 30
0.0
  0
VERTEX
  5
3D3
  8
LAYER_1
 10
490.3427610805398
 20
-489.3058603444535
 30
0.0
  0
VERTEX
  5
3D4
  8
LAYER_1
 10
478.3856066663699
 20
-399.9262233629115
 30
0.0
  0
SEQEND
  5
3D5
  8
LAYER_1
  0
POLYLINE
  5
9F
  8
LAYER_1
 66
     1
 10
0.0
 20
0.0
 30
0.0
 70
     1
  0
VERTEX
  5
3D6
  8
LAYER_1
 10
45.61461425791907
 20
-286.2111387964579
 30
0.0
  0
VERTEX
  5
3D7
  8
LAYER_1
 10
45.61461425791909
 20
-484.199167891598
 30
0.0
  0
VERTEX
  5
3D8
  8
LAYER_1
 10
0.0010099366291065
 20
-510.5335933700742
 30
0.0
  0
VERTEX
  5
3D9
  8
LAYER_1
 10
-45.61259438466089
 20
-484.199167891598
 30
0.0
  0
VERTEX
  5
3DA
  8
LAYER_1
 10
-45.61259438466091
 20
-286.2111387964579
 30
0.0
  0
VERTEX
  5
3DB
  8
LAYER_1
 10
0.0010099366290671
 20
-188.1659191900455
 30
0.0
  0
SEQEND
  5
3DC
  8
LAYER_1
  0
POLYLINE
  5
A0
  8
LAYER_1
 66
     1
 10
0.0
 20
0.0
 30
0.0
 70
     1
  0
VERTEX
  5
3DD
  8
LAYER_1
 10
302.9569597398129
 20
-401.4020149573194
 30
0.0
  0
VERTEX
  5
3DE
  8
LAYER_1
 10
351.8285847437662
 20
-388.3068868569733
 30
0.0
  0
VERTEX
  5
3DF
  8
LAYER_1
 10
335.9903552198011
 20
-435.440979264163
 30
0.0
  0
VERTEX
  5
3E0
  8
LAYER_1
 10
364.5679984117426
 20
-464.6880160432536
 30
0.0
  0
VERTEX
  5
3E1
  8
LAYER_1
 10
325.2683172568587
 20
-467.3494402051311
 30
0.0
  0
VERTEX
  5
3E2
  8
LAYER_1
 10
298.4804769912851
 20
-532.0210074809223
 30
0.0
  0
VERTEX
  5
3E3
  8
LAYER_1
 10
297.1004714173072
 20
-535.3526356537701
 30
0.0
  0
VERTEX
  5
3E4
  8
LAYER_1
 10
275.0687982999781
 20
-482.1634716121438
 30
0.0
  0
VERTEX
  5
3E5
  8
LAYER_1
 10
222.850487365521
 20
-475.2888005578274
 30
0.0
  0
VERTEX
  5
3E6
  8
LAYER_1
 10
254.9132895610225
 20
-433.5037690580278
 30
0.0
  0
VERTEX
  5
3E7
  8
LAYER_1
 10
198.2419165719156
 20
-296.6869717894222
 30
0.0
  0
SEQEND
  5
3E8
  8
LAYER_1
  0
POLYLINE
  5
A1
  8
LAYER_1
 66
     1
 10
0.0
 20
0.0
 30
0.0
 70
     1
  0
VERTEX
  5
3E9
  8
LAYER_1
 10
126.2859872470257
 20
-486.7829421679494
 30
0.0
  0
VERTEX
  5
3EA
  8
LAYER_1
 10
176.4487698774459
 20
-493.3869825421987
 30
0.0
  0
VERTEX
  5
3EB
  8
LAYER_1
 10
143.7787175252419
 20
-530.8721777638798
 30
0.0
  0
VERTEX
  5
3EC
  8
LAYER_1
 10
158.9886607365568
 20
-568.8291070162834
 30
0.0
  0
VERTEX
  5
3ED
  8
LAYER_1
 10
121.6620067500769
 20
-556.2486054515628
 30
0.0
  0
VERTEX
  5
3EE
  8
LAYER_1
 10
72.1645320670186
 20
-605.7460801346211
 30
0.0
  0
VERTEX
  5
3EF
  8
LAYER_1
 10
69.6146142579193
 20
-608.2959979437204
 30
0.0
  0
VERTEX
  5
3F0
  8
LAYER_1
 10
69.61461425791914
 20
-550.7244616449914
 30
0.0
  0
VERTEX
  5
3F1
  8
LAYER_1
 10
24.00200827871062
 20
-524.390011304455
 30
0.0
  0
VERTEX
  5
3F2
  8
LAYER_1
 10
69.61461425791909
 20
-498.0555791318683
 30
0.0
  0
VERTEX
  5
3F3
  8
LAYER_1
 10
69.61461425791899
 20
-349.9661448993438
 30
0.0
  0
SEQEND
  5
3F4
  8
LAYER_1
  0
POLYLINE
  5
A2
  8
LAYER_1
 66
     1
 10
0.0
 20
0.0
 30
0.0
 70
     1
  0
VERTEX
  5
3F5
  8
LAYER_1
 10
696.1731588676963
 20
-580.225106100435
 30
0.0
  0
VERTEX
  5
3F6
  8
LAYER_1
 10
633.1761589480394
 20
-532.0946683699702
 30
0.0
  0
VERTEX
  5
3F7
  8
LAYER_1
 10
696.1731588676965
 20
-483.964230639505
 30
0.0
  0
SEQEND
  5
3F8
  8
LAYER_1
  0
POLYLINE
  5
A3
  8
LAYER_1
 66
     1
 10
0.0
 20
0.0
 30
0.0
 70
     1
  0
VERTEX
  5
3F9
  8
LAYER_1
 10
-633.1761589480393
 20
-532.0966882432284
 30
0.0
  0
VERTEX
  5
3FA
  8
LAYER_1
 10
-696.1731588676962
 20
-580.2271259736932
 30
0.0
  0
VERTEX
  5
3FB
  8
LAYER_1
 10
-696.1731588676964
 20
-483.9662505127633
 30
0.0
  0
SEQEND
  5
3FC
  8
LAYER_1
  0
POLYLINE
  5
A4
  8
LAYER_1
 66
     1
 10
0.0
 20
0.0
 30
0.0
 70
     1
  0
VERTEX
  5
3FD
  8
LAYER_1
 10
258.1983067042766
 20
-504.1495243119662
 30
0.0
  0
VERTEX
  5
3FE
  8
LAYER_1
 10
268.8912946012646
 20
-529.9646807151657
 30
0.0
  0
VERTEX
  5
3FF
  8
LAYER_1
 10
249.287367540675
 20
-603.7440099742015
 30
0.0
  0
VERTEX
  5
400
  8
LAYER_1
 10
183.55355726322
 20
-565.6091692097218
 30
0.0
  0
VERTEX
  5
401
  8
LAYER_1
 10
171.517604510785
 20
-535.5730408190784
 30
0.0
  0
VERTEX
  5
402
  8
LAYER_1
 10
205.0077708536481
 20
-497.1468574192191
 30
0.0
  0
SEQEND
  5
403
  8
LAYER_1
  0
POLYLINE
  5
A5
  8
LAYER_1
 66
     1
 10
0.0
 20
0.0
 30
0.0
 70
     1
  0
VERTEX
  5
404
  8
LAYER_1
 10
-171.5155846375268
 20
-535.5730408190784
 30
0.0
  0
VERTEX
  5
405
  8
LAYER_1
 10
-183.5515373899617
 20
-565.6091692097219
 30
0.0
  0
VERTEX
  5
406
  8
LAYER_1
 10
-249.2853476674167
 20
-603.7440099742015
 30
0.0
  0
VERTEX
  5
407
  8
LAYER_1
 10
-268.8892747280066
 20
-529.9646807151657
 30
0.0
  0
VERTEX
  5
408
  8
LAYER_1
 10
-258.1962868310184
 20
-504.1495243119663
 30
0.0
  0
VERTEX
  5
409
  8
LAYER_1
 10
-205.0057509803898
 20
-497.1468574192191
 30
0.0
  0
SEQEND
  5
40A
  8
LAYER_1
  0
POLYLINE
  5
A6
  8
LAYER_1
 66
     1
 10
0.0
 20
0.0
 30
0.0
 70
     1
  0
VERTEX
  5
40B
  8
LAYER_1
 10
432.0520984012452
 20
-533.1315691060562
 30
0.0
  0
VERTEX
  5
40C
  8
LAYER_1
 10
385.3577971431308
 20
-568.8065561996874
 30
0.0
  0
VERTEX
  5
40D
  8
LAYER_1
 10
376.6867074770053
 20
-574.2563272674847
 30
0.0
  0
VERTEX
  5
40E
  8
LAYER_1
 10
325.8581816012505
 20
-603.7440099742016
 30
0.0
  0
VERTEX
  5
40F
  8
LAYER_1
 10
313.700991671872
 20
-557.9904568268142
 30
0.0
  0
VERTEX
  5
410
  8
LAYER_1
 10
320.6535857715552
 20
-541.2054098576863
 30
0.0
  0
VERTEX
  5
411
  8
LAYER_1
 10
341.74399514006
 20
-490.2886575242575
 30
0.0
  0
VERTEX
  5
412
  8
LAYER_1
 10
373.1886176178248
 20
-488.1591878806325
 30
0.0
  0
SEQEND
  5
413
  8
LAYER_1
  0
POLYLINE
  5
A7
  8
LAYER_1
 66
     1
 10
0.0
 20
0.0
 30
0.0
 70
     1
  0
VERTEX
  5
414
  8
LAYER_1
 10
-341.7419752668018
 20
-490.2886575242576
 30
0.0
  0
VERTEX
  5
415
  8
LAYER_1
 10
-320.6515658982971
 20
-541.2054098576863
 30
0.0
  0
VERTEX
  5
416
  8
LAYER_1
 10
-313.6989717986138
 20
-557.9904568268142
 30
0.0
  0
VERTEX
  5
417
  8
LAYER_1
 10
-325.8561617279923
 20
-603.7440099742016
 30
0.0
  0
VERTEX
  5
418
  8
LAYER_1
 10
-376.6846876037471
 20
-574.2563272674847
 30
0.0
  0
VERTEX
  5
419
  8
LAYER_1
 10
-385.3557772698726
 20
-568.8065561996874
 30
0.0
  0
VERTEX
  5
41A
  8
LAYER_1
 10
-432.050078527987
 20
-533.1315691060562
 30
0.0
  0
VERTEX
  5
41B
  8
LAYER_1
 10
-373.1865977445667
 20
-488.1591878806326
 30
0.0
  0
SEQEND
  5
41C
  8
LAYER_1
  0
POLYLINE
  5
A8
  8
LAYER_1
 66
     1
 10
0.0
 20
0.0
 30
0.0
 70
     1
  0
VERTEX
  5
41D
  8
LAYER_1
 10
-69.61259438466088
 20
-498.0555791318683
 30
0.0
  0
VERTEX
  5
41E
  8
LAYER_1
 10
-23.9999884054524
 20
-524.390011304455
 30
0.0
  0
VERTEX
  5
41F
  8
LAYER_1
 10
-69.61259438466091
 20
-550.7244616449914
 30
0.0
  0
VERTEX
  5
420
  8
LAYER_1
 10
-69.61259438466088
 20
-608.2959979437204
 30
0.0
  0
VERTEX
  5
421
  8
LAYER_1
 10
-72.16251219376036
 20
-605.7460801346211
 30
0.0
  0
VERTEX
  5
422
  8
LAYER_1
 10
-121.6599868768187
 20
-556.2486054515628
 30
0.0
  0
VERTEX
  5
423
  8
LAYER_1
 10
-158.9866408632988
 20
-568.8291070162834
 30
0.0
  0
VERTEX
  5
424
  8
LAYER_1
 10
-143.7766976519836
 20
-530.8721777638798
 30
0.0
  0
VERTEX
  5
425
  8
LAYER_1
 10
-176.4467500041877
 20
-493.3869825421987
 30
0.0
  0
VERTEX
  5
426
  8
LAYER_1
 10
-126.2839673737675
 20
-486.7829421679494
 30
0.0
  0
VERTEX
  5
427
  8
LAYER_1
 10
-69.61259438466081
 20
-349.9661448993438
 30
0.0
  0
SEQEND
  5
428
  8
LAYER_1
  0
POLYLINE
  5
A9
  8
LAYER_1
 66
     1
 10
0.0
 20
0.0
 30
0.0
 70
     1
  0
VERTEX
  5
429
  8
LAYER_1
 10
-264.4136186643906
 20
-640.2668869903514
 30
0.0
  0
VERTEX
  5
42A
  8
LAYER_1
 10
-186.4134063263889
 20
-595.0158104963807
 30
0.0
  0
VERTEX
  5
42B
  8
LAYER_1
 10
-231.6644828203594
 20
-673.0160228343825
 30
0.0
  0
VERTEX
  5
42C
  8
LAYER_1
 10
-144.51266069729
 20
-696.1731588676964
 30
0.0
  0
VERTEX
  5
42D
  8
LAYER_1
 10
-430.628848698119
 20
-696.1731588676964
 30
0.0
  0
VERTEX
  5
42E
  8
LAYER_1
 10
-343.4770265750497
 20
-673.0160228343825
 30
0.0
  0
VERTEX
  5
42F
  8
LAYER_1
 10
-388.7281030690202
 20
-595.0158104963808
 30
0.0
  0
VERTEX
  5
430
  8
LAYER_1
 10
-310.7278907310184
 20
-640.2668869903513
 30
0.0
  0
VERTEX
  5
431
  8
LAYER_1
 10
-287.5707546977046
 20
-553.115064867282
 30
0.0
  0
SEQEND
  5
432
  8
LAYER_1
  0
POLYLINE
  5
AA
  8
LAYER_1
 66
     1
 10
0.0
 20
0.0
 30
0.0
 70
     1
  0
VERTEX
  5
433
  8
LAYER_1
 10
310.7299106042766
 20
-640.2668869903513
 30
0.0
  0
VERTEX
  5
434
  8
LAYER_1
 10
388.7301229422784
 20
-595.0158104963808
 30
0.0
  0
VERTEX
  5
435
  8
LAYER_1
 10
343.4790464483079
 20
-673.0160228343825
 30
0.0
  0
VERTEX
  5
436
  8
LAYER_1
 10
430.6308685713772
 20
-696.1731588676964
 30
0.0
  0
VERTEX
  5
437
  8
LAYER_1
 10
144.5146805705483
 20
-696.1731588676964
 30
0.0
  0
VERTEX
  5
438
  8
LAYER_1
 10
231.6665026936176
 20
-673.0160228343825
 30
0.0
  0
VERTEX
  5
439
  8
LAYER_1
 10
186.4154261996472
 20
-595.0158104963807
 30
0.0
  0
VERTEX
  5
43A
  8
LAYER_1
 10
264.4156385376488
 20
-640.2668869903514
 30
0.0
  0
VERTEX
  5
43B
  8
LAYER_1
 10
287.5727745709627
 20
-553.115064867282
 30
0.0
  0
SEQEND
  5
43C
  8
LAYER_1
  0
POLYLINE
  5
AB
  8
LAYER_1
 66
     1
 10
0.0
 20
0.0
 30
0.0
 70
     1
  0
VERTEX
  5
43D
  8
LAYER_1
 10
158.1366879136387
 20
-594.098131187334
 30
0.0
  0
VERTEX
  5
43E
  8
LAYER_1
 10
195.1436256774679
 20
-657.8877518374087
 30
0.0
  0
VERTEX
  5
43F
  8
LAYER_1
 10
182.416056468955
 20
-661.2695979578345
 30
0.0
  0
VERTEX
  5
440
  8
LAYER_1
 10
142.9217383803971
 20
-661.2695979578348
 30
0.0
  0
VERTEX
  5
441
  8
LAYER_1
 10
90.60989405763966
 20
-661.2695979578348
 30
0.0
  0
VERTEX
  5
442
  8
LAYER_1
 10
90.60989405763964
 20
-621.2418436409544
 30
0.0
  0
VERTEX
  5
443
  8
LAYER_1
 10
128.0502533287311
 20
-583.8014843698628
 30
0.0
  0
SEQEND
  5
444
  8
LAYER_1
  0
POLYLINE
  5
AC
  8
LAYER_1
 66
     1
 10
0.0
 20
0.0
 30
0.0
 70
     1
  0
VERTEX
  5
445
  8
LAYER_1
 10
-90.6078741843814
 20
-621.2418436409544
 30
0.0
  0
VERTEX
  5
446
  8
LAYER_1
 10
-90.6078741843814
 20
-661.2695979578348
 30
0.0
  0
VERTEX
  5
447
  8
LAYER_1
 10
-142.9197185071388
 20
-661.2695979578348
 30
0.0
  0
VERTEX
  5
448
  8
LAYER_1
 10
-182.4140365956968
 20
-661.2695979578345
 30
0.0
  0
VERTEX
  5
449
  8
LAYER_1
 10
-195.1416058042096
 20
-657.8877518374087
 30
0.0
  0
VERTEX
  5
44A
  8
LAYER_1
 10
-158.1346680403804
 20
-594.098131187334
 30
0.0
  0
VERTEX
  5
44B
  8
LAYER_1
 10
-128.0482334554729
 20
-583.8014843698628
 30
0.0
  0
SEQEND
  5
44C
  8
LAYER_1
  0
POLYLINE
  5
AD
  8
LAYER_1
 66
     1
 10
0.0
 20
0.0
 30
0.0
 70
     1
  0
VERTEX
  5
44D
  8
LAYER_1
 10
665.3583139422244
 20
-611.0622408711827
 30
0.0
  0
VERTEX
  5
44E
  8
LAYER_1
 10
638.2112873433329
 20
-638.2102774067037
 30
0.0
  0
VERTEX
  5
44F
  8
LAYER_1
 10
611.0642607444421
 20
-665.3583139422227
 30
0.0
  0
VERTEX
  5
450
  8
LAYER_1
 10
602.8388961415214
 20
-603.8737770043492
 30
0.0
  0
VERTEX
  5
451
  8
LAYER_1
 10
603.6401004543931
 20
-603.6390905177639
 30
0.0
  0
VERTEX
  5
452
  8
LAYER_1
 10
603.8737770043493
 20
-602.8368762682633
 30
0.0
  0
SEQEND
  5
453
  8
LAYER_1
  0
POLYLINE
  5
AE
  8
LAYER_1
 66
     1
 10
0.0
 20
0.0
 30
0.0
 70
     1
  0
VERTEX
  5
454
  8
LAYER_1
 10
-603.6390905177639
 20
-603.6401004543932
 30
0.0
  0
VERTEX
  5
455
  8
LAYER_1
 10
-602.8368762682632
 20
-603.8737770043494
 30
0.0
  0
VERTEX
  5
456
  8
LAYER_1
 10
-611.0622408711827
 20
-665.3583139422245
 30
0.0
  0
VERTEX
  5
457
  8
LAYER_1
 10
-638.2102774067037
 20
-638.211287343333
 30
0.0
  0
VERTEX
  5
458
  8
LAYER_1
 10
-665.3583139422227
 20
-611.0642607444421
 30
0.0
  0
VERTEX
  5
459
  8
LAYER_1
 10
-603.8737770043492
 20
-602.8388961415214
 30
0.0
  0
SEQEND
  5
45A
  8
LAYER_1
  0
POLYLINE
  5
AF
  8
LAYER_1
 66
     1
 10
0.0
 20
0.0
 30
0.0
 70
     1
  0
VERTEX
  5
45B
  8
LAYER_1
 10
451.5840253147879
 20
-676.9078529634395
 30
0.0
  0
VERTEX
  5
45C
  8
LAYER_1
 10
380.0019234644577
 20
-657.8877518374087
 30
0.0
  0
VERTEX
  5
45D
  8
LAYER_1
 10
407.1291396732736
 20
-611.1280106695176
 30
0.0
  0
VERTEX
  5
45E
  8
LAYER_1
 10
461.3544803449352
 20
-603.8737770043494
 30
0.0
  0
SEQEND
  5
45F
  8
LAYER_1
  0
POLYLINE
  5
B0
  8
LAYER_1
 66
     1
 10
0.0
 20
0.0
 30
0.0
 70
     1
  0
VERTEX
  5
460
  8
LAYER_1
 10
-407.1271198000155
 20
-611.1280106695176
 30
0.0
  0
VERTEX
  5
461
  8
LAYER_1
 10
-379.9999035911995
 20
-657.8877518374087
 30
0.0
  0
VERTEX
  5
462
  8
LAYER_1
 10
-451.5820054415298
 20
-676.9078529634395
 30
0.0
  0
VERTEX
  5
463
  8
LAYER_1
 10
-461.352460471677
 20
-603.8737770043494
 30
0.0
  0
SEQEND
  5
464
  8
LAYER_1
  0
POLYLINE
  5
B1
  8
LAYER_1
 66
     1
 10
0.0
 20
0.0
 30
0.0
 70
     1
  0
VERTEX
  5
465
  8
LAYER_1
 10
45.61461425791911
 20
-564.5808681055423
 30
0.0
  0
VERTEX
  5
466
  8
LAYER_1
 10
45.6146142579191
 20
-632.2959979437206
 30
0.0
  0
VERTEX
  5
467
  8
LAYER_1
 10
0.001009936629127
 20
-677.9085923283817
 30
0.0
  0
VERTEX
  5
468
  8
LAYER_1
 10
-45.61259438466087
 20
-632.2959979437206
 30
0.0
  0
VERTEX
  5
469
  8
LAYER_1
 10
-45.61259438466088
 20
-564.5808681055423
 30
0.0
  0
VERTEX
  5
46A
  8
LAYER_1
 10
0.0010099366291099
 20
-538.2464187222057
 30
0.0
  0
SEQEND
  5
46B
  8
LAYER_1
  0
POLYLINE
  5
B2
  8
LAYER_1
 66
     1
 10
0.0
 20
0.0
 30
0.0
 70
     1
  0
VERTEX
  5
46C
  8
LAYER_1
 10
655.18185009181
 20
-655.1808401551809
 30
0.0
  0
VERTEX
  5
46D
  8
LAYER_1
 10
614.1905413159238
 20
-696.1731588676961
 30
0.0
  0
VERTEX
  5
46E
  8
LAYER_1
 10
696.1731588676962
 20
-614.1885214426657
 30
0.0
  0
SEQEND
  5
46F
  8
LAYER_1
  0
POLYLINE
  5
B3
  8
LAYER_1
 66
     1
 10
0.0
 20
0.0
 30
0.0
 70
     1
  0
VERTEX
  5
470
  8
LAYER_1
 10
-655.1808401551808
 20
-655.18185009181
 30
0.0
  0
VERTEX
  5
471
  8
LAYER_1
 10
-614.1885214426655
 20
-696.1731588676963
 30
0.0
  0
VERTEX
  5
472
  8
LAYER_1
 10
-696.1731588676961
 20
-614.1905413159238
 30
0.0
  0
SEQEND
  5
473
  8
LAYER_1
  0
POLYLINE
  5
B4
  8
LAYER_1
 66
     1
 10
0.0
 20
0.0
 30
0.0
 70
     1
  0
VERTEX
  5
474
  8
LAYER_1
 10
580.2271259736932
 20
-696.1731588676962
 30
0.0
  0
VERTEX
  5
475
  8
LAYER_1
 10
483.9662505127632
 20
-696.1731588676964
 30
0.0
  0
VERTEX
  5
476
  8
LAYER_1
 10
532.0966882432284
 20
-633.1761589480393
 30
0.0
  0
SEQEND
  5
477
  8
LAYER_1
  0
POLYLINE
  5
B5
  8
LAYER_1
 66
     1
 10
0.0
 20
0.0
 30
0.0
 70
     1
  0
VERTEX
  5
478
  8
LAYER_1
 10
-483.964230639505
 20
-696.1731588676967
 30
0.0
  0
VERTEX
  5
479
  8
LAYER_1
 10
-580.2251061004349
 20
-696.1731588676964
 30
0.0
  0
VERTEX
  5
47A
  8
LAYER_1
 10
-532.0946683699701
 20
-633.1761589480395
 30
0.0
  0
SEQEND
  5
47B
  8
LAYER_1
  0
ENDSEC
  0
EOF
