  0
SECTION
  2
HEADER
  9
$ACADVER
  1
AC1009
  9
$DWGCODEPAGE
  3
ansi_1252
  9
$INSBASE
 10
0.0
 20
0.0
 30
0.0
  9
$EXTMIN
 10
-175.0
 20
-175.0
 30
0.0
  9
$EXTMAX
 10
175.0
 20
175.0
 30
0.0
  9
$LIMMIN
 10
0.0
 20
0.0
  9
$LIMMAX
 10
12.0
 20
9.0
  9
$ORTHOMODE
 70
     0
  9
$REGENMODE
 70
     1
  9
$FILLMODE
 70
     1
  9
$QTEXTMODE
 70
     0
  9
$MIRRTEXT
 70
     1
  9
$DRAGMODE
 70
     2
  9
$LTSCALE
 40
1.0
  9
$OSMODE
 70
    37
  9
$ATTMODE
 70
     1
  9
$TEXTSIZE
 40
0.2
  9
$TRACEWID
 40
0.05
  9
$TEXTSTYLE
  7
STANDARD
  9
$CLAYER
  8
0
  9
$CELTYPE
  6
BYLAYER
  9
$CECOLOR
 62
   256
  9
$DIMSCALE
 40
1.0
  9
$DIMASZ
 40
0.18
  9
$DIMEXO
 40
0.0625
  9
$DIMDLI
 40
0.38
  9
$DIMRND
 40
0.0
  9
$DIMDLE
 40
0.0
  9
$DIMEXE
 40
0.18
  9
$DIMTP
 40
0.0
  9
$DIMTM
 40
0.0
  9
$DIMTXT
 40
0.18
  9
$DIMCEN
 40
0.09
  9
$DIMTSZ
 40
0.0
  9
$DIMTOL
 70
     0
  9
$DIMLIM
 70
     0
  9
$DIMTIH
 70
     1
  9
$DIMTOH
 70
     1
  9
$DIMSE1
 70
     0
  9
$DIMSE2
 70
     0
  9
$DIMTAD
 70
     0
  9
$DIMZIN
 70
     0
  9
$DIMBLK
  1

  9
$DIMASO
 70
     1
  9
$DIMSHO
 70
     1
  9
$DIMPOST
  1

  9
$DIMAPOST
  1

  9
$DIMALT
 70
     0
  9
$DIMALTD
 70
     2
  9
$DIMALTF
 40
25.4
  9
$DIMLFAC
 40
1.0
  9
$DIMTOFL
 70
     0
  9
$DIMTVP
 40
0.0
  9
$DIMTIX
 70
     0
  9
$DIMSOXD
 70
     0
  9
$DIMSAH
 70
     0
  9
$DIMBLK1
  1

  9
$DIMBLK2
  1

  9
$DIMSTYLE
  2
STANDARD
  9
$DIMCLRD
 70
     0
  9
$DIMCLRE
 70
     0
  9
$DIMCLRT
 70
     0
  9
$DIMTFAC
 40
1.0
  9
$DIMGAP
 40
0.09
  9
$LUNITS
 70
     2
  9
$LUPREC
 70
     4
  9
$SKETCHINC
 40
0.1
  9
$FILLETRAD
 40
0.5
  9
$AUNITS
 70
     0
  9
$AUPREC
 70
     0
  9
$MENU
  1
.
  9
$ELEVATION
 40
0.0
  9
$PELEVATION
 40
0.0
  9
$THICKNESS
 40
0.0
  9
$LIMCHECK
 70
     0
  9
$CHAMFERA
 40
0.5
  9
$CHAMFERB
 40
0.5
  9
$SKPOLY
 70
     0
  9
$TDCREATE
 40
2454910.5
  9
$TDUPDATE
 40
2457347.502826597
  9
$TDINDWG
 40
0.0000000116
  9
$TDUSRTIMER
 40
0.0000000116
  9
$USRTIMER
 70
     1
  9
$ANGBASE
 50
0.0
  9
$ANGDIR
 70
     0
  9
$PDMODE
 70
     0
  9
$PDSIZE
 40
0.0
  9
$PLINEWID
 40
0.0
  9
$COORDS
 70
     1
  9
$SPLFRAME
 70
     0
  9
$SPLINETYPE
 70
     6
  9
$SPLINESEGS
 70
     8
  9
$ATTDIA
 70
     0
  9
$ATTREQ
 70
     1
  9
$HANDLING
 70
     1
  9
$HANDSEED
  5
1B6
  9
$SURFTAB1
 70
     6
  9
$SURFTAB2
 70
     6
  9
$SURFTYPE
 70
     6
  9
$SURFU
 70
     6
  9
$SURFV
 70
     6
  9
$UCSNAME
  2

  9
$UCSORG
 10
0.0
 20
0.0
 30
0.0
  9
$UCSXDIR
 10
1.0
 20
0.0
 30
0.0
  9
$UCSYDIR
 10
0.0
 20
1.0
 30
0.0
  9
$PUCSNAME
  2

  9
$PUCSORG
 10
0.0
 20
0.0
 30
0.0
  9
$PUCSXDIR
 10
1.0
 20
0.0
 30
0.0
  9
$PUCSYDIR
 10
0.0
 20
1.0
 30
0.0
  9
$USERI1
 70
     0
  9
$USERI2
 70
     0
  9
$USERI3
 70
     0
  9
$USERI4
 70
     0
  9
$USERI5
 70
     0
  9
$USERR1
 40
0.0
  9
$USERR2
 40
0.0
  9
$USERR3
 40
0.0
  9
$USERR4
 40
0.0
  9
$USERR5
 40
0.0
  9
$WORLDVIEW
 70
     1
  9
$SHADEDGE
 70
     3
  9
$SHADEDIF
 70
    70
  9
$TILEMODE
 70
     1
  9
$MAXACTVP
 70
    64
  9
$PLIMCHECK
 70
     0
  9
$PEXTMIN
 10
1.000000000000000E+20
 20
1.000000000000000E+20
 30
1.000000000000000E+20
  9
$PEXTMAX
 10
-1.000000000000000E+20
 20
-1.000000000000000E+20
 30
-1.000000000000000E+20
  9
$PLIMMIN
 10
0.0
 20
0.0
  9
$PLIMMAX
 10
12.0
 20
9.0
  9
$UNITMODE
 70
     0
  9
$VISRETAIN
 70
     1
  9
$PLINEGEN
 70
     0
  9
$PSLTSCALE
 70
     1
  0
ENDSEC
  0
SECTION
  2
TABLES
  0
TABLE
  2
VPORT
 70
     1
  0
VPORT
  2
*ACTIVE
 70
     0
 10
0.0
 20
0.0
 11
1.0
 21
1.0
 12
10.42990654205607
 22
4.5
 13
0.0
 23
0.0
 14
0.5
 24
0.5
 15
0.5
 25
0.5
 16
0.0
 26
0.0
 36
1.0
 17
0.0
 27
0.0
 37
0.0
 40
9.0
 41
1.972972972850329
 42
50.0
 43
0.0
 44
0.0
 50
0.0
 51
0.0
 71
     0
 72
   100
 73
     1
 74
     3
 75
     0
 76
     0
 77
     0
 78
     0
  0
ENDTAB
  0
TABLE
  2
LTYPE
 70
     2
  0
LTYPE
  2
CONTINUOUS
 70
     0
  3
Solid line
 72
    65
 73
     0
 40
0.0
  0
LTYPE
  2
CONTINUOUS2
 70
     0
  3
Solid Line
 72
    65
 73
     0
 40
0.0
  0
ENDTAB
  0
TABLE
  2
LAYER
 70
     2
  0
LAYER
  2
0
 70
     0
 62
     7
  6
CONTINUOUS
  0
LAYER
  2
LAYER_1
 70
     0
 62
    18
  6
CONTINUOUS
  0
ENDTAB
  0
TABLE
  2
STYLE
 70
     1
  0
STYLE
  2
STANDARD
 70
     0
 40
0.0
 41
1.0
 50
0.0
 71
     0
 42
0.2
  3
txt
  4

  0
ENDTAB
  0
TABLE
  2
VIEW
 70
     0
  0
ENDTAB
  0
TABLE
  2
UCS
 70
     0
  0
ENDTAB
  0
TABLE
  2
APPID
 70
     1
  0
APPID
  2
ACAD
 70
     0
  0
ENDTAB
  0
TABLE
  2
DIMSTYLE
 70
     1
  0
DIMSTYLE
  2
STANDARD
 70
     0
  3

  4

  5

  6

  7

 40
1.0
 41
0.18
 42
0.0625
 43
0.38
 44
0.18
 45
0.0
 46
0.0
 47
0.0
 48
0.0
140
0.18
141
0.09
142
0.0
143
25.4
144
1.0
145
0.0
146
1.0
147
0.09
 71
     0
 72
     0
 73
     1
 74
     1
 75
     0
 76
     0
 77
     0
 78
     0
170
     0
171
     2
172
     0
173
     0
174
     0
175
     0
176
     0
177
     0
178
     0
  0
ENDTAB
  0
ENDSEC
  0
SECTION
  2
BLOCKS
  0
BLOCK
  8
0
  2
$MODEL_SPACE
 70
     0
 10
0.0
 20
0.0
 30
0.0
  3
$MODEL_SPACE
  1

  0
ENDBLK
  5
21
  8
0
  0
BLOCK
 67
     1
  8
0
  2
$PAPER_SPACE
 70
     0
 10
0.0
 20
0.0
 30
0.0
  3
$PAPER_SPACE
  1

  0
ENDBLK
  5
1D
 67
     1
  8
0
  0
ENDSEC
  0
SECTION
  2
ENTITIES
  0
POLYLINE
  5
41
  8
LAYER_1
 66
     1
 10
0.0
 20
0.0
 30
0.0
 70
     1
  0
VERTEX
  5
6C
  8
LAYER_1
 10
0.0
 20
175.0
 30
0.0
 42
0.4142135623730951
  0
VERTEX
  5
6D
  8
LAYER_1
 10
-175.0
 20
0.0
 30
0.0
 42
0.4142135623730951
  0
VERTEX
  5
6E
  8
LAYER_1
 10
0.0
 20
-175.0
 30
0.0
 42
0.4142135623730951
  0
VERTEX
  5
6F
  8
LAYER_1
 10
175.0
 20
0.0
 30
0.0
 42
0.4142135623730951
  0
SEQEND
  5
70
  8
LAYER_1
  0
POLYLINE
  5
42
  8
LAYER_1
 66
     1
 10
0.0
 20
0.0
 30
0.0
 70
     1
  0
VERTEX
  5
71
  8
LAYER_1
 10
-0.0010271761005924
 20
-69.13806756757907
 30
0.0
  0
VERTEX
  5
72
  8
LAYER_1
 10
-19.11268869260039
 20
-102.2399164777012
 30
0.0
  0
VERTEX
  5
73
  8
LAYER_1
 10
-19.11268868406967
 20
-129.2010565071824
 30
0.0
  0
VERTEX
  5
74
  8
LAYER_1
 10
-6.646098525156276
 20
-129.1842127377555
 30
0.0
  0
VERTEX
  5
75
  8
LAYER_1
 10
-0.0010271535437596
 20
-140.0146746340729
 30
0.0
  0
VERTEX
  5
76
  8
LAYER_1
 10
6.644044211077016
 20
-129.1842127335382
 30
0.0
  0
VERTEX
  5
77
  8
LAYER_1
 10
19.1106343699995
 20
-129.2010564950517
 30
0.0
  0
VERTEX
  5
78
  8
LAYER_1
 10
19.11063436140978
 20
-102.2399164655695
 30
0.0
  0
SEQEND
  5
79
  8
LAYER_1
  0
POLYLINE
  5
43
  8
LAYER_1
 66
     1
 10
0.0
 20
0.0
 30
0.0
 70
     1
  0
VERTEX
  5
7A
  8
LAYER_1
 10
-108.7035820201985
 20
-70.09236905756848
 30
0.0
  0
VERTEX
  5
7B
  8
LAYER_1
 10
-102.3102577136573
 20
-81.13216693201969
 30
0.0
  0
VERTEX
  5
7C
  8
LAYER_1
 10
-78.99170289040546
 20
-67.66940445671287
 30
0.0
  0
VERTEX
  5
7D
  8
LAYER_1
 10
-59.87996626229517
 20
-34.56742545338909
 30
0.0
  0
VERTEX
  5
7E
  8
LAYER_1
 10
-98.1033295676973
 20
-34.56742546484196
 30
0.0
  0
VERTEX
  5
7F
  8
LAYER_1
 10
-121.4529191657319
 20
-48.04810559433616
 30
0.0
  0
VERTEX
  5
80
  8
LAYER_1
 10
-115.0571523896718
 20
-59.08591745111988
 30
0.0
  0
VERTEX
  5
81
  8
LAYER_1
 10
-121.4118298637003
 20
-70.09236906133225
 30
0.0
  0
SEQEND
  5
82
  8
LAYER_1
  0
POLYLINE
  5
44
  8
LAYER_1
 66
     1
 10
0.0
 20
0.0
 30
0.0
 70
     1
  0
VERTEX
  5
83
  8
LAYER_1
 10
142.587461236635
 20
42.40668184108375
 30
0.0
  0
VERTEX
  5
84
  8
LAYER_1
 10
129.0200669811317
 20
34.57366613083229
 30
0.0
  0
VERTEX
  5
85
  8
LAYER_1
 10
144.6695946585015
 20
34.57366613545793
 30
0.0
  0
VERTEX
  5
86
  8
LAYER_1
 10
144.669594664202
 20
15.28453021778466
 30
0.0
  0
VERTEX
  5
87
  8
LAYER_1
 10
154.7978943299534
 20
9.070468370427818
 30
0.0
  0
VERTEX
  5
88
  8
LAYER_1
 10
164.9948345529194
 20
15.32664357994531
 30
0.0
  0
VERTEX
  5
89
  8
LAYER_1
 10
164.9989714375939
 20
44.21360668011317
 30
0.0
  0
VERTEX
  5
8A
  8
LAYER_1
 10
150.0737623797523
 20
70.09861197635604
 30
0.0
  0
VERTEX
  5
8B
  8
LAYER_1
 10
138.3133613845083
 20
70.09861187472382
 30
0.0
  0
VERTEX
  5
8C
  8
LAYER_1
 10
132.4457818366844
 20
59.93582538820806
 30
0.0
  0
SEQEND
  5
8D
  8
LAYER_1
  0
POLYLINE
  5
45
  8
LAYER_1
 66
     1
 10
0.0
 20
0.0
 30
0.0
 70
     1
  0
VERTEX
  5
8E
  8
LAYER_1
 10
9.066496709567787
 20
154.7996109120152
 30
0.0
  0
VERTEX
  5
8F
  8
LAYER_1
 10
15.28069511205729
 20
144.6714068265369
 30
0.0
  0
VERTEX
  5
90
  8
LAYER_1
 10
34.57012476443947
 20
144.6714068326487
 30
0.0
  0
VERTEX
  5
91
  8
LAYER_1
 10
34.57012476939406
 20
129.0223618817287
 30
0.0
  0
VERTEX
  5
92
  8
LAYER_1
 10
42.40315669958193
 20
142.5893580969768
 30
0.0
  0
VERTEX
  5
93
  8
LAYER_1
 10
59.93261893910778
 20
132.4478128849853
 30
0.0
  0
VERTEX
  5
94
  8
LAYER_1
 10
70.09550145907588
 20
138.3152635841054
 30
0.0
  0
VERTEX
  5
95
  8
LAYER_1
 10
70.09550155351099
 20
150.0756265165253
 30
0.0
  0
VERTEX
  5
96
  8
LAYER_1
 10
44.21010678104847
 20
165.0005913150687
 30
0.0
  0
VERTEX
  5
97
  8
LAYER_1
 10
15.32280912956946
 20
164.9964544947422
 30
0.0
  0
SEQEND
  5
98
  8
LAYER_1
  0
POLYLINE
  5
46
  8
LAYER_1
 66
     1
 10
0.0
 20
0.0
 30
0.0
 70
     1
  0
VERTEX
  5
99
  8
LAYER_1
 10
164.9989721333421
 20
-44.20736705875896
 30
0.0
  0
VERTEX
  5
9A
  8
LAYER_1
 10
164.9948352309854
 20
-15.32040395859792
 30
0.0
  0
VERTEX
  5
9B
  8
LAYER_1
 10
154.7978950041901
 20
-9.064228755320585
 30
0.0
  0
VERTEX
  5
9C
  8
LAYER_1
 10
144.6695953422426
 20
-15.27829060888354
 30
0.0
  0
VERTEX
  5
9D
  8
LAYER_1
 10
144.6695953483551
 20
-34.56742652655248
 30
0.0
  0
VERTEX
  5
9E
  8
LAYER_1
 10
129.0200676709807
 20
-34.56742653150729
 30
0.0
  0
VERTEX
  5
9F
  8
LAYER_1
 10
142.5874619312862
 20
-42.40044223344398
 30
0.0
  0
VERTEX
  5
A0
  8
LAYER_1
 10
132.445782542074
 20
-59.92958578679031
 30
0.0
  0
VERTEX
  5
A1
  8
LAYER_1
 10
138.3133620961183
 20
-70.0923722697056
 30
0.0
  0
VERTEX
  5
A2
  8
LAYER_1
 10
150.0737630913615
 20
-70.09237236413901
 30
0.0
  0
SEQEND
  5
A3
  8
LAYER_1
  0
POLYLINE
  5
47
  8
LAYER_1
 66
     1
 10
0.0
 20
0.0
 30
0.0
 70
     1
  0
VERTEX
  5
A4
  8
LAYER_1
 10
-135.7291418057645
 20
94.89653225743382
 30
0.0
  0
VERTEX
  5
A5
  8
LAYER_1
 10
-129.863569680237
 20
84.73722268814777
 30
0.0
  0
VERTEX
  5
A6
  8
LAYER_1
 10
-118.0987169168204
 20
84.73722259367582
 30
0.0
  0
VERTEX
  5
A7
  8
LAYER_1
 10
-107.9644736927847
 20
102.253513284895
 30
0.0
  0
VERTEX
  5
A8
  8
LAYER_1
 10
-94.45110018903699
 20
94.45168599143545
 30
0.0
  0
VERTEX
  5
A9
  8
LAYER_1
 10
-102.2530384371926
 20
107.964827196272
 30
0.0
  0
VERTEX
  5
AA
  8
LAYER_1
 10
-84.73652448790926
 20
118.0988812817189
 30
0.0
  0
VERTEX
  5
AB
  8
LAYER_1
 10
-84.7365245895785
 20
129.8636958811834
 30
0.0
  0
VERTEX
  5
AC
  8
LAYER_1
 10
-94.89593022460451
 20
135.7291392231051
 30
0.0
  0
VERTEX
  5
AD
  8
LAYER_1
 10
-120.7824291136939
 20
120.782711329508
 30
0.0
  0
SEQEND
  5
AE
  8
LAYER_1
  0
POLYLINE
  5
48
  8
LAYER_1
 66
     1
 10
0.0
 20
0.0
 30
0.0
 70
     1
  0
VERTEX
  5
AF
  8
LAYER_1
 10
-19.11268943491791
 20
102.2461582680736
 30
0.0
  0
VERTEX
  5
B0
  8
LAYER_1
 10
-0.0010278974010589
 20
69.14430937008177
 30
0.0
  0
VERTEX
  5
B1
  8
LAYER_1
 10
19.11063361909873
 20
102.2461582802052
 30
0.0
  0
VERTEX
  5
B2
  8
LAYER_1
 10
19.11063361056802
 20
129.207298309687
 30
0.0
  0
VERTEX
  5
B3
  8
LAYER_1
 10
6.644043451655534
 20
129.1904545402621
 30
0.0
  0
VERTEX
  5
B4
  8
LAYER_1
 10
-0.0010279199633487
 20
140.0209164365809
 30
0.0
  0
VERTEX
  5
B5
  8
LAYER_1
 10
-6.646099284585148
 20
129.1904545360431
 30
0.0
  0
VERTEX
  5
B6
  8
LAYER_1
 10
-19.11268944350036
 20
129.207298297559
 30
0.0
  0
SEQEND
  5
B7
  8
LAYER_1
  0
POLYLINE
  5
49
  8
LAYER_1
 66
     1
 10
0.0
 20
0.0
 30
0.0
 70
     1
  0
VERTEX
  5
B8
  8
LAYER_1
 10
-108.7035827318022
 20
70.09861078438979
 30
0.0
  0
VERTEX
  5
B9
  8
LAYER_1
 10
-121.4118305753103
 20
70.09861078036465
 30
0.0
  0
VERTEX
  5
BA
  8
LAYER_1
 10
-115.0571530945379
 20
59.09215917404788
 30
0.0
  0
VERTEX
  5
BB
  8
LAYER_1
 10
-121.4529198638359
 20
48.05434731335021
 30
0.0
  0
VERTEX
  5
BC
  8
LAYER_1
 10
-98.10333025755085
 20
34.57366719815167
 30
0.0
  0
VERTEX
  5
BD
  8
LAYER_1
 10
-59.87996695214963
 20
34.57366721009748
 30
0.0
  0
VERTEX
  5
BE
  8
LAYER_1
 10
-78.99170360053552
 20
67.6756462017184
 30
0.0
  0
VERTEX
  5
BF
  8
LAYER_1
 10
-102.3102584320186
 20
81.13840866274631
 30
0.0
  0
SEQEND
  5
C0
  8
LAYER_1
  0
POLYLINE
  5
4A
  8
LAYER_1
 66
     1
 10
0.0
 20
0.0
 30
0.0
 70
     1
  0
VERTEX
  5
C1
  8
LAYER_1
 10
120.7803726361741
 20
120.7827102685026
 30
0.0
  0
VERTEX
  5
C2
  8
LAYER_1
 10
94.89387373946965
 20
135.7291381446689
 30
0.0
  0
VERTEX
  5
C3
  8
LAYER_1
 10
84.73446810807513
 20
129.8636947965462
 30
0.0
  0
VERTEX
  5
C4
  8
LAYER_1
 10
84.73446801360092
 20
118.0988801970733
 30
0.0
  0
VERTEX
  5
C5
  8
LAYER_1
 10
102.2509819690882
 20
107.9648261223493
 30
0.0
  0
VERTEX
  5
C6
  8
LAYER_1
 10
94.44904372920212
 20
94.4516849127474
 30
0.0
  0
VERTEX
  5
C7
  8
LAYER_1
 10
107.9624172281804
 20
102.2535122144754
 30
0.0
  0
VERTEX
  5
C8
  8
LAYER_1
 10
118.0966604629401
 20
84.7372215294651
 30
0.0
  0
VERTEX
  5
C9
  8
LAYER_1
 10
129.8615132263568
 20
84.73722163113246
 30
0.0
  0
VERTEX
  5
CA
  8
LAYER_1
 10
135.7270853456765
 20
94.89653120404961
 30
0.0
  0
SEQEND
  5
CB
  8
LAYER_1
  0
POLYLINE
  5
4B
  8
LAYER_1
 66
     1
 10
0.0
 20
0.0
 30
0.0
 70
     1
  0
VERTEX
  5
CC
  8
LAYER_1
 10
70.0955000521069
 20
-108.6978005778036
 30
0.0
  0
VERTEX
  5
CD
  8
LAYER_1
 10
81.13552313090156
 20
-102.3045466706466
 30
0.0
  0
VERTEX
  5
CE
  8
LAYER_1
 10
67.67247415826898
 20
-78.98622806465335
 30
0.0
  0
VERTEX
  5
CF
  8
LAYER_1
 10
34.57012549647584
 20
-59.87487831841133
 30
0.0
  0
VERTEX
  5
D0
  8
LAYER_1
 10
34.57012550792933
 20
-98.09768779784861
 30
0.0
  0
VERTEX
  5
D1
  8
LAYER_1
 10
48.05099712047502
 20
-121.4468756368568
 30
0.0
  0
VERTEX
  5
D2
  8
LAYER_1
 10
59.08893893298705
 20
-115.0512344528842
 30
0.0
  0
VERTEX
  5
D3
  8
LAYER_1
 10
70.09550005586993
 20
-121.4057755522384
 30
0.0
  0
SEQEND
  5
D4
  8
LAYER_1
  0
POLYLINE
  5
4C
  8
LAYER_1
 66
     1
 10
0.0
 20
0.0
 30
0.0
 70
     1
  0
VERTEX
  5
D5
  8
LAYER_1
 10
-142.589517664601
 20
42.40668289029696
 30
0.0
  0
VERTEX
  5
D6
  8
LAYER_1
 10
-132.4478382753906
 20
59.93582644364346
 30
0.0
  0
VERTEX
  5
D7
  8
LAYER_1
 10
-138.315417829435
 20
70.09861292655881
 30
0.0
  0
VERTEX
  5
D8
  8
LAYER_1
 10
-150.0758188246781
 20
70.09861302099011
 30
0.0
  0
VERTEX
  5
D9
  8
LAYER_1
 10
-165.0010278666579
 20
44.21360771561126
 30
0.0
  0
VERTEX
  5
DA
  8
LAYER_1
 10
-164.9968909642993
 20
15.32664461544908
 30
0.0
  0
VERTEX
  5
DB
  8
LAYER_1
 10
-154.7999507375049
 20
9.070469412172656
 30
0.0
  0
VERTEX
  5
DC
  8
LAYER_1
 10
-144.6716510755574
 20
15.28453126573675
 30
0.0
  0
VERTEX
  5
DD
  8
LAYER_1
 10
-144.6716510816699
 20
34.57366718340432
 30
0.0
  0
VERTEX
  5
DE
  8
LAYER_1
 10
-129.0221234042955
 20
34.57366718836028
 30
0.0
  0
SEQEND
  5
DF
  8
LAYER_1
  0
POLYLINE
  5
4D
  8
LAYER_1
 66
     1
 10
0.0
 20
0.0
 30
0.0
 70
     1
  0
VERTEX
  5
E0
  8
LAYER_1
 10
15.32280989926858
 20
-164.9902149650233
 30
0.0
  0
VERTEX
  5
E1
  8
LAYER_1
 10
44.21010755075201
 20
-164.9943517676677
 30
0.0
  0
VERTEX
  5
E2
  8
LAYER_1
 10
70.09550231407775
 20
-150.0693869532699
 30
0.0
  0
VERTEX
  5
E3
  8
LAYER_1
 10
70.09550221244399
 20
-138.3090240208503
 30
0.0
  0
VERTEX
  5
E4
  8
LAYER_1
 10
59.9326196888743
 20
-132.441573327951
 30
0.0
  0
VERTEX
  5
E5
  8
LAYER_1
 10
42.40315745557075
 20
-142.5831185506791
 30
0.0
  0
VERTEX
  5
E6
  8
LAYER_1
 10
34.57012551706805
 20
-129.0161223402289
 30
0.0
  0
VERTEX
  5
E7
  8
LAYER_1
 10
34.5701255216951
 20
-144.6651672911427
 30
0.0
  0
VERTEX
  5
E8
  8
LAYER_1
 10
15.2806958693119
 20
-144.6651672968423
 30
0.0
  0
VERTEX
  5
E9
  8
LAYER_1
 10
9.066497473031063
 20
-154.7933713861256
 30
0.0
  0
SEQEND
  5
EA
  8
LAYER_1
  0
POLYLINE
  5
4E
  8
LAYER_1
 66
     1
 10
0.0
 20
0.0
 30
0.0
 70
     1
  0
VERTEX
  5
EB
  8
LAYER_1
 10
-70.09755578542354
 20
108.7040412346554
 30
0.0
  0
VERTEX
  5
EC
  8
LAYER_1
 10
-81.1375788642182
 20
102.3107873274996
 30
0.0
  0
VERTEX
  5
ED
  8
LAYER_1
 10
-67.67452989158573
 20
78.9924687215065
 30
0.0
  0
VERTEX
  5
EE
  8
LAYER_1
 10
-34.57218122979339
 20
59.8811189752634
 30
0.0
  0
VERTEX
  5
EF
  8
LAYER_1
 10
-34.57218124124597
 20
98.10392845470273
 30
0.0
  0
VERTEX
  5
F0
  8
LAYER_1
 10
-48.05305285379075
 20
121.4531162937089
 30
0.0
  0
VERTEX
  5
F1
  8
LAYER_1
 10
-59.0909946663046
 20
115.0574751097359
 30
0.0
  0
VERTEX
  5
F2
  8
LAYER_1
 10
-70.09755578918566
 20
121.4120162090912
 30
0.0
  0
SEQEND
  5
F3
  8
LAYER_1
  0
POLYLINE
  5
4F
  8
LAYER_1
 66
     1
 10
0.0
 20
0.0
 30
0.0
 70
     1
  0
VERTEX
  5
F4
  8
LAYER_1
 10
69.14118357442567
 20
0.003120359633499
 30
0.0
  0
VERTEX
  5
F5
  8
LAYER_1
 10
102.2436623322023
 20
-19.10830449528936
 30
0.0
  0
VERTEX
  5
F6
  8
LAYER_1
 10
129.2051159134807
 20
-19.10830448675858
 30
0.0
  0
VERTEX
  5
F7
  8
LAYER_1
 10
129.188271891876
 20
-6.641919266095044
 30
0.0
  0
VERTEX
  5
F8
  8
LAYER_1
 10
140.0190222785661
 20
0.0031203821953909
 30
0.0
  0
VERTEX
  5
F9
  8
LAYER_1
 10
129.1882718876591
 20
6.648160023488629
 30
0.0
  0
VERTEX
  5
FA
  8
LAYER_1
 10
129.2051159013492
 20
19.11454524415603
 30
0.0
  0
VERTEX
  5
FB
  8
LAYER_1
 10
102.24366232007
 20
19.11454523557313
 30
0.0
  0
SEQEND
  5
FC
  8
LAYER_1
  0
POLYLINE
  5
50
  8
LAYER_1
 66
     1
 10
0.0
 20
0.0
 30
0.0
 70
     1
  0
VERTEX
  5
FD
  8
LAYER_1
 10
-15.3248648628861
 20
-164.990213837891
 30
0.0
  0
VERTEX
  5
FE
  8
LAYER_1
 10
-9.068552442884425
 20
-154.7933702551631
 30
0.0
  0
VERTEX
  5
FF
  8
LAYER_1
 10
-15.28275084537302
 20
-144.6651661696848
 30
0.0
  0
VERTEX
  5
100
  8
LAYER_1
 10
-34.57218049775622
 20
-144.6651661757977
 30
0.0
  0
VERTEX
  5
101
  8
LAYER_1
 10
-34.57218050271069
 20
-129.0161212248782
 30
0.0
  0
VERTEX
  5
102
  8
LAYER_1
 10
-42.40521243289777
 20
-142.5831174401255
 30
0.0
  0
VERTEX
  5
103
  8
LAYER_1
 10
-59.93467467242533
 20
-132.4415722281344
 30
0.0
  0
VERTEX
  5
104
  8
LAYER_1
 10
-70.09755719239251
 20
-138.3090229272538
 30
0.0
  0
VERTEX
  5
105
  8
LAYER_1
 10
-70.09755728682671
 20
-150.0693858596733
 30
0.0
  0
VERTEX
  5
106
  8
LAYER_1
 10
-44.2121625143651
 20
-164.9943506582169
 30
0.0
  0
SEQEND
  5
107
  8
LAYER_1
  0
POLYLINE
  5
51
  8
LAYER_1
 66
     1
 10
0.0
 20
0.0
 30
0.0
 70
     1
  0
VERTEX
  5
108
  8
LAYER_1
 10
94.89387449128787
 20
-135.722898566253
 30
0.0
  0
VERTEX
  5
109
  8
LAYER_1
 10
120.7803733803772
 20
-120.7764706726548
 30
0.0
  0
VERTEX
  5
10A
  8
LAYER_1
 10
135.7270860724478
 20
-94.89029160058084
 30
0.0
  0
VERTEX
  5
10B
  8
LAYER_1
 10
129.8615139469205
 20
-84.73098203129547
 30
0.0
  0
VERTEX
  5
10C
  8
LAYER_1
 10
118.0966611835029
 20
-84.73098193682404
 30
0.0
  0
VERTEX
  5
10D
  8
LAYER_1
 10
107.9624179594671
 20
-102.2472726280429
 30
0.0
  0
VERTEX
  5
10E
  8
LAYER_1
 10
94.44904445572126
 20
-94.44544533458361
 30
0.0
  0
VERTEX
  5
10F
  8
LAYER_1
 10
102.2509827038768
 20
-107.9585865394193
 30
0.0
  0
VERTEX
  5
110
  8
LAYER_1
 10
84.73446875459263
 20
-118.0926406248655
 30
0.0
  0
VERTEX
  5
111
  8
LAYER_1
 10
84.73446885626186
 20
-129.8574552243313
 30
0.0
  0
SEQEND
  5
112
  8
LAYER_1
  0
POLYLINE
  5
52
  8
LAYER_1
 66
     1
 10
0.0
 20
0.0
 30
0.0
 70
     1
  0
VERTEX
  5
113
  8
LAYER_1
 10
34.57012477917976
 20
98.10392733935043
 30
0.0
  0
VERTEX
  5
114
  8
LAYER_1
 10
34.57012479113064
 20
59.88111785991748
 30
0.0
  0
VERTEX
  5
115
  8
LAYER_1
 10
67.67247344121529
 20
78.99246762642804
 30
0.0
  0
VERTEX
  5
116
  8
LAYER_1
 10
81.13552239956857
 20
102.3107862406587
 30
0.0
  0
VERTEX
  5
117
  8
LAYER_1
 10
70.0954993168674
 20
108.7040401410515
 30
0.0
  0
VERTEX
  5
118
  8
LAYER_1
 10
70.09549931284198
 20
121.412015115492
 30
0.0
  0
VERTEX
  5
119
  8
LAYER_1
 10
59.08893819386287
 20
115.0574740093939
 30
0.0
  0
VERTEX
  5
11A
  8
LAYER_1
 10
48.05099637742978
 20
121.453115186612
 30
0.0
  0
SEQEND
  5
11B
  8
LAYER_1
  0
POLYLINE
  5
53
  8
LAYER_1
 66
     1
 10
0.0
 20
0.0
 30
0.0
 70
     1
  0
VERTEX
  5
11C
  8
LAYER_1
 10
-107.9644729614979
 20
-102.2472715576245
 30
0.0
  0
VERTEX
  5
11D
  8
LAYER_1
 10
-118.0987161962568
 20
-84.73098087261417
 30
0.0
  0
VERTEX
  5
11E
  8
LAYER_1
 10
-129.8635689596725
 20
-84.73098097428158
 30
0.0
  0
VERTEX
  5
11F
  8
LAYER_1
 10
-135.7291410789932
 20
-94.89029054719754
 30
0.0
  0
VERTEX
  5
120
  8
LAYER_1
 10
-120.7824283694907
 20
-120.7764696116511
 30
0.0
  0
VERTEX
  5
121
  8
LAYER_1
 10
-94.89592947278629
 20
-135.7228974878179
 30
0.0
  0
VERTEX
  5
122
  8
LAYER_1
 10
-84.73652384139177
 20
-129.857454139695
 30
0.0
  0
VERTEX
  5
123
  8
LAYER_1
 10
-84.73652374691756
 20
-118.0926395402212
 30
0.0
  0
VERTEX
  5
124
  8
LAYER_1
 10
-102.2530377024041
 20
-107.9585854654984
 30
0.0
  0
VERTEX
  5
125
  8
LAYER_1
 10
-94.45109946251785
 20
-94.445444255896
 30
0.0
  0
SEQEND
  5
126
  8
LAYER_1
  0
POLYLINE
  5
54
  8
LAYER_1
 66
     1
 10
0.0
 20
0.0
 30
0.0
 70
     1
  0
VERTEX
  5
127
  8
LAYER_1
 10
98.10127452423592
 20
-34.56742654129937
 30
0.0
  0
VERTEX
  5
128
  8
LAYER_1
 10
59.87791121883481
 20
-34.56742655324518
 30
0.0
  0
VERTEX
  5
129
  8
LAYER_1
 10
78.98964786721888
 20
-67.66940554486541
 30
0.0
  0
VERTEX
  5
12A
  8
LAYER_1
 10
102.3082026987028
 20
-81.13216800589316
 30
0.0
  0
VERTEX
  5
12B
  8
LAYER_1
 10
108.7015269984864
 20
-70.09237012753772
 30
0.0
  0
VERTEX
  5
12C
  8
LAYER_1
 10
121.4097748419937
 20
-70.09237012351286
 30
0.0
  0
VERTEX
  5
12D
  8
LAYER_1
 10
115.0550973612203
 20
-59.08591851719336
 30
0.0
  0
VERTEX
  5
12E
  8
LAYER_1
 10
121.4508641305201
 20
-48.04810665649791
 30
0.0
  0
SEQEND
  5
12F
  8
LAYER_1
  0
POLYLINE
  5
55
  8
LAYER_1
 66
     1
 10
0.0
 20
0.0
 30
0.0
 70
     1
  0
VERTEX
  5
130
  8
LAYER_1
 10
-44.21216328406865
 20
165.0005924245198
 30
0.0
  0
VERTEX
  5
131
  8
LAYER_1
 10
-70.09755804739348
 20
150.0756276101229
 30
0.0
  0
VERTEX
  5
132
  8
LAYER_1
 10
-70.09755794575972
 20
138.3152646777025
 30
0.0
  0
VERTEX
  5
133
  8
LAYER_1
 10
-59.93467542219094
 20
132.447813984804
 30
0.0
  0
VERTEX
  5
134
  8
LAYER_1
 10
-42.40521318888648
 20
142.5893592075323
 30
0.0
  0
VERTEX
  5
135
  8
LAYER_1
 10
-34.57218125038469
 20
129.0223629970824
 30
0.0
  0
VERTEX
  5
136
  8
LAYER_1
 10
-34.57218125501174
 20
144.6714079479948
 30
0.0
  0
VERTEX
  5
137
  8
LAYER_1
 10
-15.28275160262854
 20
144.6714079536955
 30
0.0
  0
VERTEX
  5
138
  8
LAYER_1
 10
-9.068553206347701
 20
154.7996120429798
 30
0.0
  0
VERTEX
  5
139
  8
LAYER_1
 10
-15.32486563258431
 20
164.9964556218767
 30
0.0
  0
SEQEND
  5
13A
  8
LAYER_1
  0
POLYLINE
  5
56
  8
LAYER_1
 66
     1
 10
0.0
 20
0.0
 30
0.0
 70
     1
  0
VERTEX
  5
13B
  8
LAYER_1
 10
-69.1432393077406
 20
0.0031202972196525
 30
0.0
  0
VERTEX
  5
13C
  8
LAYER_1
 10
-102.2457180655172
 20
19.11454515214234
 30
0.0
  0
VERTEX
  5
13D
  8
LAYER_1
 10
-129.2071716467955
 20
19.11454514361156
 30
0.0
  0
VERTEX
  5
13E
  8
LAYER_1
 10
-129.1903276251916
 20
6.648159922948253
 30
0.0
  0
VERTEX
  5
13F
  8
LAYER_1
 10
-140.0210780118809
 20
0.0031202746566805
 30
0.0
  0
VERTEX
  5
140
  8
LAYER_1
 10
-129.1903276209739
 20
-6.641919366636557
 30
0.0
  0
VERTEX
  5
141
  8
LAYER_1
 10
-129.2071716346641
 20
-19.10830458730283
 30
0.0
  0
VERTEX
  5
142
  8
LAYER_1
 10
-102.2457180533858
 20
-19.10830457871992
 30
0.0
  0
SEQEND
  5
143
  8
LAYER_1
  0
POLYLINE
  5
57
  8
LAYER_1
 66
     1
 10
0.0
 20
0.0
 30
0.0
 70
     1
  0
VERTEX
  5
144
  8
LAYER_1
 10
-165.0010271709097
 20
-44.20736602326224
 30
0.0
  0
VERTEX
  5
145
  8
LAYER_1
 10
-150.0758181130681
 20
-70.09237131950488
 30
0.0
  0
VERTEX
  5
146
  8
LAYER_1
 10
-138.3154171178239
 20
-70.09237121787288
 30
0.0
  0
VERTEX
  5
147
  8
LAYER_1
 10
-132.447837570001
 20
-59.92958473135599
 30
0.0
  0
VERTEX
  5
148
  8
LAYER_1
 10
-142.5895169699498
 20
-42.40044118423282
 30
0.0
  0
VERTEX
  5
149
  8
LAYER_1
 10
-129.0221227144474
 20
-34.56742547398181
 30
0.0
  0
VERTEX
  5
14A
  8
LAYER_1
 10
-144.6716503918173
 20
-34.56742547860927
 30
0.0
  0
VERTEX
  5
14B
  8
LAYER_1
 10
-144.6716503975168
 20
-15.27828956093373
 30
0.0
  0
VERTEX
  5
14C
  8
LAYER_1
 10
-154.7999500632682
 20
-9.064227713577793
 30
0.0
  0
VERTEX
  5
14D
  8
LAYER_1
 10
-164.996890286235
 20
-15.32040292309529
 30
0.0
  0
SEQEND
  5
14E
  8
LAYER_1
  0
POLYLINE
  5
58
  8
LAYER_1
 66
     1
 10
0.0
 20
0.0
 30
0.0
 70
     1
  0
VERTEX
  5
14F
  8
LAYER_1
 10
-81.1375781328843
 20
-102.3045455838076
 30
0.0
  0
VERTEX
  5
150
  8
LAYER_1
 10
-70.09755505018495
 20
-108.6977994842006
 30
0.0
  0
VERTEX
  5
151
  8
LAYER_1
 10
-70.09755504615953
 20
-121.4057744586411
 30
0.0
  0
VERTEX
  5
152
  8
LAYER_1
 10
-59.0909939271786
 20
-115.0512333525432
 30
0.0
  0
VERTEX
  5
153
  8
LAYER_1
 10
-48.05305211074642
 20
-121.446874529761
 30
0.0
  0
VERTEX
  5
154
  8
LAYER_1
 10
-34.5721805124964
 20
-98.09768668249933
 30
0.0
  0
VERTEX
  5
155
  8
LAYER_1
 10
-34.5721805244491
 20
-59.87487720306632
 30
0.0
  0
VERTEX
  5
156
  8
LAYER_1
 10
-67.67452917453102
 20
-78.98622696957659
 30
0.0
  0
SEQEND
  5
157
  8
LAYER_1
  0
POLYLINE
  5
59
  8
LAYER_1
 66
     1
 10
0.0
 20
0.0
 30
0.0
 70
     1
  0
VERTEX
  5
158
  8
LAYER_1
 10
121.4508634324171
 20
48.0543462511871
 30
0.0
  0
VERTEX
  5
159
  8
LAYER_1
 10
115.0550966563552
 20
59.09215810797082
 30
0.0
  0
VERTEX
  5
15A
  8
LAYER_1
 10
121.4097741303846
 20
70.09860971818364
 30
0.0
  0
VERTEX
  5
15B
  8
LAYER_1
 10
108.7015262868809
 20
70.09860971442055
 30
0.0
  0
VERTEX
  5
15C
  8
LAYER_1
 10
102.3082019803406
 20
81.13840758887079
 30
0.0
  0
VERTEX
  5
15D
  8
LAYER_1
 10
78.98964715708883
 20
67.67564511356403
 30
0.0
  0
VERTEX
  5
15E
  8
LAYER_1
 10
59.87791052898035
 20
34.57366611024139
 30
0.0
  0
VERTEX
  5
15F
  8
LAYER_1
 10
98.10127383438237
 20
34.57366612169312
 30
0.0
  0
SEQEND
  5
160
  8
LAYER_1
  0
POLYLINE
  5
5A
  8
LAYER_1
 66
     1
 10
0.0
 20
0.0
 30
0.0
 70
     1
  0
VERTEX
  5
161
  8
LAYER_1
 10
6.994315698586888
 20
26.10977463572522
 30
0.0
  0
VERTEX
  5
162
  8
LAYER_1
 10
-0.0010278650213422
 20
38.22587481822609
 30
0.0
  0
VERTEX
  5
163
  8
LAYER_1
 10
-6.99637143021846
 20
26.10977463645708
 30
0.0
  0
VERTEX
  5
164
  8
LAYER_1
 10
-19.11268939286765
 20
33.10502421143218
 30
0.0
  0
VERTEX
  5
165
  8
LAYER_1
 10
-19.11268939307092
 20
19.11454518934914
 30
0.0
  0
VERTEX
  5
166
  8
LAYER_1
 10
-33.10345162876092
 20
19.11454519502126
 30
0.0
  0
VERTEX
  5
167
  8
LAYER_1
 10
-26.10808057149484
 20
6.998397394209746
 30
0.0
  0
VERTEX
  5
168
  8
LAYER_1
 10
-38.22444615280722
 20
0.0031203284796675
 30
0.0
  0
VERTEX
  5
169
  8
LAYER_1
 10
-26.10808057185966
 20
-6.992156737893538
 30
0.0
  0
VERTEX
  5
16A
  8
LAYER_1
 10
-33.10345162977092
 20
-19.10830453833796
 30
0.0
  0
VERTEX
  5
16B
  8
LAYER_1
 10
-19.11268939408183
 20
-19.10830453340725
 30
0.0
  0
VERTEX
  5
16C
  8
LAYER_1
 10
-19.11268939462173
 20
-33.09878355549046
 30
0.0
  0
VERTEX
  5
16D
  8
LAYER_1
 10
-6.996371431606804
 20
-26.10353398115808
 30
0.0
  0
VERTEX
  5
16E
  8
LAYER_1
 10
-0.0010278670475827
 20
-38.21963416329618
 30
0.0
  0
VERTEX
  5
16F
  8
LAYER_1
 10
6.99431569720582
 20
-26.10353398116985
 30
0.0
  0
VERTEX
  5
170
  8
LAYER_1
 10
19.11063366020528
 20
-33.09878355549091
 30
0.0
  0
VERTEX
  5
171
  8
LAYER_1
 10
19.11063365966538
 20
-19.10830453340725
 30
0.0
  0
VERTEX
  5
172
  8
LAYER_1
 10
33.10139589534811
 20
-19.10830453833796
 30
0.0
  0
VERTEX
  5
173
  8
LAYER_1
 10
26.10602483743685
 20
-6.992156737895129
 30
0.0
  0
VERTEX
  5
174
  8
LAYER_1
 10
38.22239041488172
 20
0.0031203264504711
 30
0.0
  0
VERTEX
  5
175
  8
LAYER_1
 10
26.10602483781622
 20
6.998397391441188
 30
0.0
  0
VERTEX
  5
176
  8
LAYER_1
 10
33.10139589636537
 20
19.11454519151067
 30
0.0
  0
VERTEX
  5
177
  8
LAYER_1
 10
19.11063366068163
 20
19.11454518732131
 30
0.0
  0
VERTEX
  5
178
  8
LAYER_1
 10
19.11063366196481
 20
33.10502420940384
 30
0.0
  0
SEQEND
  5
179
  8
LAYER_1
  0
POLYLINE
  5
5B
  8
LAYER_1
 66
     1
 10
0.0
 20
0.0
 30
0.0
 70
     1
  0
VERTEX
  5
17A
  8
LAYER_1
 10
30.57921153776215
 20
44.33459760528507
 30
0.0
  0
VERTEX
  5
17B
  8
LAYER_1
 10
30.57921154151711
 20
30.58275284725232
 30
0.0
  0
VERTEX
  5
17C
  8
LAYER_1
 10
44.33100041910541
 20
30.58275285108851
 30
0.0
  0
VERTEX
  5
17D
  8
LAYER_1
 10
63.11652880094732
 20
63.11973146991716
 30
0.0
  0
SEQEND
  5
17E
  8
LAYER_1
  0
POLYLINE
  5
5C
  8
LAYER_1
 66
     1
 10
0.0
 20
0.0
 30
0.0
 70
     1
  0
VERTEX
  5
17F
  8
LAYER_1
 10
11.19213618149331
 20
41.77575021872917
 30
0.0
  0
VERTEX
  5
180
  8
LAYER_1
 10
23.10154624020277
 20
48.6515433399577
 30
0.0
  0
VERTEX
  5
181
  8
LAYER_1
 10
23.10154622829634
 20
86.22181105121939
 30
0.0
  0
VERTEX
  5
182
  8
LAYER_1
 10
4.316167108544391
 20
53.68509095473041
 30
0.0
  0
SEQEND
  5
183
  8
LAYER_1
  0
POLYLINE
  5
5D
  8
LAYER_1
 66
     1
 10
0.0
 20
0.0
 30
0.0
 70
     1
  0
VERTEX
  5
184
  8
LAYER_1
 10
86.21936277960629
 20
23.10545848500453
 30
0.0
  0
VERTEX
  5
185
  8
LAYER_1
 10
48.64830599788559
 20
23.10545847390097
 30
0.0
  0
VERTEX
  5
186
  8
LAYER_1
 10
41.77228229900345
 20
11.19602310779965
 30
0.0
  0
VERTEX
  5
187
  8
LAYER_1
 10
53.68178698952954
 20
4.320175361550412
 30
0.0
  0
SEQEND
  5
188
  8
LAYER_1
  0
POLYLINE
  5
5E
  8
LAYER_1
 66
     1
 10
0.0
 20
0.0
 30
0.0
 70
     1
  0
VERTEX
  5
189
  8
LAYER_1
 10
41.77228231624463
 20
-11.18978241431762
 30
0.0
  0
VERTEX
  5
18A
  8
LAYER_1
 10
48.64830602240602
 20
-23.09921777620508
 30
0.0
  0
VERTEX
  5
18B
  8
LAYER_1
 10
86.21936280412774
 20
-23.09921776430258
 30
0.0
  0
VERTEX
  5
18C
  8
LAYER_1
 10
53.68178700254475
 20
-4.313934660768609
 30
0.0
  0
SEQEND
  5
18D
  8
LAYER_1
  0
POLYLINE
  5
5F
  8
LAYER_1
 66
     1
 10
0.0
 20
0.0
 30
0.0
 70
     1
  0
VERTEX
  5
18E
  8
LAYER_1
 10
30.57921223348671
 20
-30.57651330362711
 30
0.0
  0
VERTEX
  5
18F
  8
LAYER_1
 10
30.57921223732512
 20
-44.32835806145226
 30
0.0
  0
VERTEX
  5
190
  8
LAYER_1
 10
63.11652951115536
 20
-63.11349190806618
 30
0.0
  0
VERTEX
  5
191
  8
LAYER_1
 10
44.33100111129113
 20
-30.57651329988192
 30
0.0
  0
SEQEND
  5
192
  8
LAYER_1
  0
POLYLINE
  5
60
  8
LAYER_1
 66
     1
 10
0.0
 20
0.0
 30
0.0
 70
     1
  0
VERTEX
  5
193
  8
LAYER_1
 10
11.19213753681595
 20
-41.76950954463643
 30
0.0
  0
VERTEX
  5
194
  8
LAYER_1
 10
4.316168471170954
 20
-53.67885028486467
 30
0.0
  0
VERTEX
  5
195
  8
LAYER_1
 10
23.10154761084459
 20
-86.2155703698511
 30
0.0
  0
VERTEX
  5
196
  8
LAYER_1
 10
23.10154759973591
 20
-48.64530265858622
 30
0.0
  0
SEQEND
  5
197
  8
LAYER_1
  0
POLYLINE
  5
61
  8
LAYER_1
 66
     1
 10
0.0
 20
0.0
 30
0.0
 70
     1
  0
VERTEX
  5
198
  8
LAYER_1
 10
-11.19419191480904
 20
-41.76950956187915
 30
0.0
  0
VERTEX
  5
199
  8
LAYER_1
 10
-23.10360197351758
 20
-48.64530268310676
 30
0.0
  0
VERTEX
  5
19A
  8
LAYER_1
 10
-23.10360196161389
 20
-86.21557039436777
 30
0.0
  0
VERTEX
  5
19B
  8
LAYER_1
 10
-4.31822284186012
 20
-53.67885029787948
 30
0.0
  0
SEQEND
  5
19C
  8
LAYER_1
  0
POLYLINE
  5
62
  8
LAYER_1
 66
     1
 10
0.0
 20
0.0
 30
0.0
 70
     1
  0
VERTEX
  5
19D
  8
LAYER_1
 10
-11.19419260906
 20
41.77575134838685
 30
0.0
  0
VERTEX
  5
19E
  8
LAYER_1
 10
-4.318223543424892
 20
53.68509208861576
 30
0.0
  0
VERTEX
  5
19F
  8
LAYER_1
 10
-23.10360268309773
 20
86.22181217360287
 30
0.0
  0
VERTEX
  5
1A0
  8
LAYER_1
 10
-23.10360267198803
 20
48.65154446233618
 30
0.0
  0
SEQEND
  5
1A1
  8
LAYER_1
  0
POLYLINE
  5
63
  8
LAYER_1
 66
     1
 10
0.0
 20
0.0
 30
0.0
 70
     1
  0
VERTEX
  5
1A2
  8
LAYER_1
 10
-30.58126797063994
 20
44.33459871830433
 30
0.0
  0
VERTEX
  5
1A3
  8
LAYER_1
 10
-63.11858524447211
 20
63.11973256491939
 30
0.0
  0
VERTEX
  5
1A4
  8
LAYER_1
 10
-44.33305684460686
 20
30.5827539567349
 30
0.0
  0
VERTEX
  5
1A5
  8
LAYER_1
 10
-30.58126796680153
 20
30.58275396048032
 30
0.0
  0
SEQEND
  5
1A6
  8
LAYER_1
  0
POLYLINE
  5
64
  8
LAYER_1
 66
     1
 10
0.0
 20
0.0
 30
0.0
 70
     1
  0
VERTEX
  5
1A7
  8
LAYER_1
 10
-48.65036175572095
 20
23.10545843305829
 30
0.0
  0
VERTEX
  5
1A8
  8
LAYER_1
 10
-86.22141853744438
 20
23.10545842115579
 30
0.0
  0
VERTEX
  5
1A9
  8
LAYER_1
 10
-53.68384273585866
 20
4.320175317621818
 30
0.0
  0
VERTEX
  5
1AA
  8
LAYER_1
 10
-41.77433804955945
 20
11.19602307117083
 30
0.0
  0
SEQEND
  5
1AB
  8
LAYER_1
  0
POLYLINE
  5
65
  8
LAYER_1
 66
     1
 10
0.0
 20
0.0
 30
0.0
 70
     1
  0
VERTEX
  5
1AC
  8
LAYER_1
 10
-53.68384206453663
 20
-4.313933557127825
 30
0.0
  0
VERTEX
  5
1AD
  8
LAYER_1
 10
-86.22141785462702
 20
-23.09921668057967
 30
0.0
  0
VERTEX
  5
1AE
  8
LAYER_1
 10
-48.65036107289995
 20
-23.09921666947162
 30
0.0
  0
VERTEX
  5
1AF
  8
LAYER_1
 10
-41.77433737401793
 20
-11.18978130337251
 30
0.0
  0
SEQEND
  5
1B0
  8
LAYER_1
  0
POLYLINE
  5
66
  8
LAYER_1
 66
     1
 10
0.0
 20
0.0
 30
0.0
 70
     1
  0
VERTEX
  5
1B1
  8
LAYER_1
 10
-44.33305615242023
 20
-30.57651219423889
 30
0.0
  0
VERTEX
  5
1B2
  8
LAYER_1
 10
-63.11858453426487
 20
-63.11349081306713
 30
0.0
  0
VERTEX
  5
1B3
  8
LAYER_1
 10
-30.58126727107788
 20
-44.32835694843277
 30
0.0
  0
VERTEX
  5
1B4
  8
LAYER_1
 10
-30.58126727483193
 20
-30.5765121903998
 30
0.0
  0
SEQEND
  5
1B5
  8
LAYER_1
  0
ENDSEC
  0
EOF
