  0
SECTION
  2
HEADER
  9
$ACADVER
  1
AC1009
  9
$DWGCODEPAGE
  3
ansi_1252
  9
$INSBASE
 10
0.0
 20
0.0
 30
0.0
  9
$EXTMIN
 10
-265.0
 20
-265.0
 30
0.0
  9
$EXTMAX
 10
265.0
 20
265.0
 30
0.0
  9
$LIMMIN
 10
0.0
 20
0.0
  9
$LIMMAX
 10
12.0
 20
9.0
  9
$ORTHOMODE
 70
     0
  9
$REGENMODE
 70
     1
  9
$FILLMODE
 70
     1
  9
$QTEXTMODE
 70
     0
  9
$MIRRTEXT
 70
     1
  9
$DRAGMODE
 70
     2
  9
$LTSCALE
 40
1.0
  9
$OSMODE
 70
    37
  9
$ATTMODE
 70
     1
  9
$TEXTSIZE
 40
0.2
  9
$TRACEWID
 40
0.05
  9
$TEXTSTYLE
  7
STANDARD
  9
$CLAYER
  8
0
  9
$CELTYPE
  6
BYLAYER
  9
$CECOLOR
 62
   256
  9
$DIMSCALE
 40
1.0
  9
$DIMASZ
 40
0.18
  9
$DIMEXO
 40
0.0625
  9
$DIMDLI
 40
0.38
  9
$DIMRND
 40
0.0
  9
$DIMDLE
 40
0.0
  9
$DIMEXE
 40
0.18
  9
$DIMTP
 40
0.0
  9
$DIMTM
 40
0.0
  9
$DIMTXT
 40
0.18
  9
$DIMCEN
 40
0.09
  9
$DIMTSZ
 40
0.0
  9
$DIMTOL
 70
     0
  9
$DIMLIM
 70
     0
  9
$DIMTIH
 70
     1
  9
$DIMTOH
 70
     1
  9
$DIMSE1
 70
     0
  9
$DIMSE2
 70
     0
  9
$DIMTAD
 70
     0
  9
$DIMZIN
 70
     0
  9
$DIMBLK
  1

  9
$DIMASO
 70
     1
  9
$DIMSHO
 70
     1
  9
$DIMPOST
  1

  9
$DIMAPOST
  1

  9
$DIMALT
 70
     0
  9
$DIMALTD
 70
     2
  9
$DIMALTF
 40
25.4
  9
$DIMLFAC
 40
1.0
  9
$DIMTOFL
 70
     0
  9
$DIMTVP
 40
0.0
  9
$DIMTIX
 70
     0
  9
$DIMSOXD
 70
     0
  9
$DIMSAH
 70
     0
  9
$DIMBLK1
  1

  9
$DIMBLK2
  1

  9
$DIMSTYLE
  2
STANDARD
  9
$DIMCLRD
 70
     0
  9
$DIMCLRE
 70
     0
  9
$DIMCLRT
 70
     0
  9
$DIMTFAC
 40
1.0
  9
$DIMGAP
 40
0.09
  9
$LUNITS
 70
     2
  9
$LUPREC
 70
     4
  9
$SKETCHINC
 40
0.1
  9
$FILLETRAD
 40
0.5
  9
$AUNITS
 70
     0
  9
$AUPREC
 70
     0
  9
$MENU
  1
.
  9
$ELEVATION
 40
0.0
  9
$PELEVATION
 40
0.0
  9
$THICKNESS
 40
0.0
  9
$LIMCHECK
 70
     0
  9
$CHAMFERA
 40
0.5
  9
$CHAMFERB
 40
0.5
  9
$SKPOLY
 70
     0
  9
$TDCREATE
 40
2454910.5
  9
$TDUPDATE
 40
2457348.645369085
  9
$TDINDWG
 40
0.0000000116
  9
$TDUSRTIMER
 40
0.0000000116
  9
$USRTIMER
 70
     1
  9
$ANGBASE
 50
0.0
  9
$ANGDIR
 70
     0
  9
$PDMODE
 70
     0
  9
$PDSIZE
 40
0.0
  9
$PLINEWID
 40
0.0
  9
$COORDS
 70
     1
  9
$SPLFRAME
 70
     0
  9
$SPLINETYPE
 70
     6
  9
$SPLINESEGS
 70
     8
  9
$ATTDIA
 70
     0
  9
$ATTREQ
 70
     1
  9
$HANDLING
 70
     1
  9
$HANDSEED
  5
31A
  9
$SURFTAB1
 70
     6
  9
$SURFTAB2
 70
     6
  9
$SURFTYPE
 70
     6
  9
$SURFU
 70
     6
  9
$SURFV
 70
     6
  9
$UCSNAME
  2

  9
$UCSORG
 10
0.0
 20
0.0
 30
0.0
  9
$UCSXDIR
 10
1.0
 20
0.0
 30
0.0
  9
$UCSYDIR
 10
0.0
 20
1.0
 30
0.0
  9
$PUCSNAME
  2

  9
$PUCSORG
 10
0.0
 20
0.0
 30
0.0
  9
$PUCSXDIR
 10
1.0
 20
0.0
 30
0.0
  9
$PUCSYDIR
 10
0.0
 20
1.0
 30
0.0
  9
$USERI1
 70
     0
  9
$USERI2
 70
     0
  9
$USERI3
 70
     0
  9
$USERI4
 70
     0
  9
$USERI5
 70
     0
  9
$USERR1
 40
0.0
  9
$USERR2
 40
0.0
  9
$USERR3
 40
0.0
  9
$USERR4
 40
0.0
  9
$USERR5
 40
0.0
  9
$WORLDVIEW
 70
     1
  9
$SHADEDGE
 70
     3
  9
$SHADEDIF
 70
    70
  9
$TILEMODE
 70
     1
  9
$MAXACTVP
 70
    64
  9
$PLIMCHECK
 70
     0
  9
$PEXTMIN
 10
1.000000000000000E+20
 20
1.000000000000000E+20
 30
1.000000000000000E+20
  9
$PEXTMAX
 10
-1.000000000000000E+20
 20
-1.000000000000000E+20
 30
-1.000000000000000E+20
  9
$PLIMMIN
 10
0.0
 20
0.0
  9
$PLIMMAX
 10
12.0
 20
9.0
  9
$UNITMODE
 70
     0
  9
$VISRETAIN
 70
     1
  9
$PLINEGEN
 70
     0
  9
$PSLTSCALE
 70
     1
  0
ENDSEC
  0
SECTION
  2
TABLES
  0
TABLE
  2
VPORT
 70
     1
  0
VPORT
  2
*ACTIVE
 70
     0
 10
0.0
 20
0.0
 11
1.0
 21
1.0
 12
10.42990654205607
 22
4.5
 13
0.0
 23
0.0
 14
0.5
 24
0.5
 15
0.5
 25
0.5
 16
0.0
 26
0.0
 36
1.0
 17
0.0
 27
0.0
 37
0.0
 40
9.0
 41
1.972972972850329
 42
50.0
 43
0.0
 44
0.0
 50
0.0
 51
0.0
 71
     0
 72
   100
 73
     1
 74
     3
 75
     0
 76
     0
 77
     0
 78
     0
  0
ENDTAB
  0
TABLE
  2
LTYPE
 70
     2
  0
LTYPE
  2
CONTINUOUS
 70
     0
  3
Solid line
 72
    65
 73
     0
 40
0.0
  0
LTYPE
  2
CONTINUOUS2
 70
     0
  3
Solid Line
 72
    65
 73
     0
 40
0.0
  0
ENDTAB
  0
TABLE
  2
LAYER
 70
     2
  0
LAYER
  2
0
 70
     0
 62
     7
  6
CONTINUOUS
  0
LAYER
  2
LAYER_1
 70
     0
 62
    18
  6
CONTINUOUS
  0
ENDTAB
  0
TABLE
  2
STYLE
 70
     1
  0
STYLE
  2
STANDARD
 70
     0
 40
0.0
 41
1.0
 50
0.0
 71
     0
 42
0.2
  3
txt
  4

  0
ENDTAB
  0
TABLE
  2
VIEW
 70
     0
  0
ENDTAB
  0
TABLE
  2
UCS
 70
     0
  0
ENDTAB
  0
TABLE
  2
APPID
 70
     1
  0
APPID
  2
ACAD
 70
     0
  0
ENDTAB
  0
TABLE
  2
DIMSTYLE
 70
     1
  0
DIMSTYLE
  2
STANDARD
 70
     0
  3

  4

  5

  6

  7

 40
1.0
 41
0.18
 42
0.0625
 43
0.38
 44
0.18
 45
0.0
 46
0.0
 47
0.0
 48
0.0
140
0.18
141
0.09
142
0.0
143
25.4
144
1.0
145
0.0
146
1.0
147
0.09
 71
     0
 72
     0
 73
     1
 74
     1
 75
     0
 76
     0
 77
     0
 78
     0
170
     0
171
     2
172
     0
173
     0
174
     0
175
     0
176
     0
177
     0
178
     0
  0
ENDTAB
  0
ENDSEC
  0
SECTION
  2
BLOCKS
  0
BLOCK
  8
0
  2
$MODEL_SPACE
 70
     0
 10
0.0
 20
0.0
 30
0.0
  3
$MODEL_SPACE
  1

  0
ENDBLK
  5
21
  8
0
  0
BLOCK
 67
     1
  8
0
  2
$PAPER_SPACE
 70
     0
 10
0.0
 20
0.0
 30
0.0
  3
$PAPER_SPACE
  1

  0
ENDBLK
  5
1D
 67
     1
  8
0
  0
ENDSEC
  0
SECTION
  2
ENTITIES
  0
POLYLINE
  5
41
  8
LAYER_1
 66
     1
 10
0.0
 20
0.0
 30
0.0
 70
     1
  0
VERTEX
  5
94
  8
LAYER_1
 10
-265.0
 20
-265.0
 30
0.0
  0
VERTEX
  5
95
  8
LAYER_1
 10
265.0
 20
-265.0
 30
0.0
  0
VERTEX
  5
96
  8
LAYER_1
 10
265.0
 20
265.0
 30
0.0
  0
VERTEX
  5
97
  8
LAYER_1
 10
-265.0
 20
265.0
 30
0.0
  0
SEQEND
  5
98
  8
LAYER_1
  0
POLYLINE
  5
42
  8
LAYER_1
 66
     1
 10
0.0
 20
0.0
 30
0.0
 70
     1
  0
VERTEX
  5
99
  8
LAYER_1
 10
145.3729383906134
 20
-56.47516228993701
 30
0.0
  0
VERTEX
  5
9A
  8
LAYER_1
 10
145.3729383906134
 20
-26.06833673402676
 30
0.0
  0
VERTEX
  5
9B
  8
LAYER_1
 10
135.347426224616
 20
-16.04282889802954
 30
0.0
  0
VERTEX
  5
9C
  8
LAYER_1
 10
125.3219140586185
 20
-26.06833673402676
 30
0.0
  0
VERTEX
  5
9D
  8
LAYER_1
 10
125.3219140586185
 20
-86.88198784584726
 30
0.0
  0
VERTEX
  5
9E
  8
LAYER_1
 10
135.347426224616
 20
-96.90749568184447
 30
0.0
  0
VERTEX
  5
9F
  8
LAYER_1
 10
145.3729383906134
 20
-86.88198784584723
 30
0.0
  0
SEQEND
  5
A0
  8
LAYER_1
  0
POLYLINE
  5
43
  8
LAYER_1
 66
     1
 10
0.0
 20
0.0
 30
0.0
 70
     1
  0
VERTEX
  5
A1
  8
LAYER_1
 10
56.4761648411536
 20
-125.3209115074019
 30
0.0
  0
VERTEX
  5
A2
  8
LAYER_1
 10
26.06933928524335
 20
-125.3209115074019
 30
0.0
  0
VERTEX
  5
A3
  8
LAYER_1
 10
16.04383144924615
 20
-135.3464236733994
 30
0.0
  0
VERTEX
  5
A4
  8
LAYER_1
 10
26.06933928524337
 20
-145.3719358393968
 30
0.0
  0
VERTEX
  5
A5
  8
LAYER_1
 10
86.88299039706386
 20
-145.3719358393968
 30
0.0
  0
VERTEX
  5
A6
  8
LAYER_1
 10
96.90849823306102
 20
-135.3464236733993
 30
0.0
  0
VERTEX
  5
A7
  8
LAYER_1
 10
86.88299039706386
 20
-125.3209115074019
 30
0.0
  0
SEQEND
  5
A8
  8
LAYER_1
  0
POLYLINE
  5
44
  8
LAYER_1
 66
     1
 10
0.0
 20
0.0
 30
0.0
 70
     1
  0
VERTEX
  5
A9
  8
LAYER_1
 10
125.3219140586185
 20
-214.2176850568617
 30
0.0
  0
VERTEX
  5
AA
  8
LAYER_1
 10
125.3219140586185
 20
-244.6245106127719
 30
0.0
  0
VERTEX
  5
AB
  8
LAYER_1
 10
135.347426224616
 20
-254.6500184487691
 30
0.0
  0
VERTEX
  5
AC
  8
LAYER_1
 10
145.3729383906134
 20
-244.6245106127719
 30
0.0
  0
VERTEX
  5
AD
  8
LAYER_1
 10
145.3729383906134
 20
-183.8108595009514
 30
0.0
  0
VERTEX
  5
AE
  8
LAYER_1
 10
135.347426224616
 20
-173.7853516649543
 30
0.0
  0
VERTEX
  5
AF
  8
LAYER_1
 10
125.3219140586185
 20
-183.8108595009514
 30
0.0
  0
SEQEND
  5
B0
  8
LAYER_1
  0
POLYLINE
  5
45
  8
LAYER_1
 66
     1
 10
0.0
 20
0.0
 30
0.0
 70
     1
  0
VERTEX
  5
B1
  8
LAYER_1
 10
62.93269899995745
 20
-26.06833673402665
 30
0.0
  0
VERTEX
  5
B2
  8
LAYER_1
 10
81.95237130256142
 20
-45.08800903663059
 30
0.0
  0
VERTEX
  5
B3
  8
LAYER_1
 10
109.2810945930225
 20
-72.41673232709172
 30
0.0
  0
VERTEX
  5
B4
  8
LAYER_1
 10
109.2810945930225
 20
-26.06833673402675
 30
0.0
  0
SEQEND
  5
B5
  8
LAYER_1
  0
POLYLINE
  5
46
  8
LAYER_1
 66
     1
 10
0.0
 20
0.0
 30
0.0
 70
     1
  0
VERTEX
  5
B6
  8
LAYER_1
 10
207.7621534492744
 20
-26.06833673402665
 30
0.0
  0
VERTEX
  5
B7
  8
LAYER_1
 10
188.7424811466705
 20
-45.08800903663059
 30
0.0
  0
VERTEX
  5
B8
  8
LAYER_1
 10
161.4137578562093
 20
-72.41673232709172
 30
0.0
  0
VERTEX
  5
B9
  8
LAYER_1
 10
161.4137578562093
 20
-26.06833673402676
 30
0.0
  0
SEQEND
  5
BA
  8
LAYER_1
  0
POLYLINE
  5
47
  8
LAYER_1
 66
     1
 10
0.0
 20
0.0
 30
0.0
 70
     1
  0
VERTEX
  5
BB
  8
LAYER_1
 10
244.6255131639886
 20
-62.93169644874084
 30
0.0
  0
VERTEX
  5
BC
  8
LAYER_1
 10
225.6058408613847
 20
-81.95136875134479
 30
0.0
  0
VERTEX
  5
BD
  8
LAYER_1
 10
198.2771175709235
 20
-109.280092041806
 30
0.0
  0
VERTEX
  5
BE
  8
LAYER_1
 10
244.6255131639885
 20
-109.2800920418059
 30
0.0
  0
SEQEND
  5
BF
  8
LAYER_1
  0
POLYLINE
  5
48
  8
LAYER_1
 66
     1
 10
0.0
 20
0.0
 30
0.0
 70
     1
  0
VERTEX
  5
C0
  8
LAYER_1
 10
244.6255131639886
 20
-207.7611508980578
 30
0.0
  0
VERTEX
  5
C1
  8
LAYER_1
 10
225.6058408613847
 20
-188.7414785954538
 30
0.0
  0
VERTEX
  5
C2
  8
LAYER_1
 10
198.2771175709235
 20
-161.4127553049927
 30
0.0
  0
VERTEX
  5
C3
  8
LAYER_1
 10
244.6255131639885
 20
-161.4127553049927
 30
0.0
  0
SEQEND
  5
C4
  8
LAYER_1
  0
POLYLINE
  5
49
  8
LAYER_1
 66
     1
 10
0.0
 20
0.0
 30
0.0
 70
     1
  0
VERTEX
  5
C5
  8
LAYER_1
 10
207.7621534492745
 20
-244.624510612772
 30
0.0
  0
VERTEX
  5
C6
  8
LAYER_1
 10
188.7424811466705
 20
-225.604838310168
 30
0.0
  0
VERTEX
  5
C7
  8
LAYER_1
 10
161.4137578562093
 20
-198.2761150197069
 30
0.0
  0
VERTEX
  5
C8
  8
LAYER_1
 10
161.4137578562094
 20
-244.6245106127719
 30
0.0
  0
SEQEND
  5
C9
  8
LAYER_1
  0
POLYLINE
  5
4A
  8
LAYER_1
 66
     1
 10
0.0
 20
0.0
 30
0.0
 70
     1
  0
VERTEX
  5
CA
  8
LAYER_1
 10
62.93269899995745
 20
-244.624510612772
 30
0.0
  0
VERTEX
  5
CB
  8
LAYER_1
 10
81.95237130256142
 20
-225.604838310168
 30
0.0
  0
VERTEX
  5
CC
  8
LAYER_1
 10
109.2810945930225
 20
-198.2761150197069
 30
0.0
  0
VERTEX
  5
CD
  8
LAYER_1
 10
109.2810945930225
 20
-244.6245106127719
 30
0.0
  0
SEQEND
  5
CE
  8
LAYER_1
  0
POLYLINE
  5
4B
  8
LAYER_1
 66
     1
 10
0.0
 20
0.0
 30
0.0
 70
     1
  0
VERTEX
  5
CF
  8
LAYER_1
 10
26.06933928524325
 20
-207.7611508980578
 30
0.0
  0
VERTEX
  5
D0
  8
LAYER_1
 10
45.0890115878472
 20
-188.7414785954539
 30
0.0
  0
VERTEX
  5
D1
  8
LAYER_1
 10
72.41773487830834
 20
-161.4127553049927
 30
0.0
  0
VERTEX
  5
D2
  8
LAYER_1
 10
26.06933928524334
 20
-161.4127553049928
 30
0.0
  0
SEQEND
  5
D3
  8
LAYER_1
  0
POLYLINE
  5
4C
  8
LAYER_1
 66
     1
 10
0.0
 20
0.0
 30
0.0
 70
     1
  0
VERTEX
  5
D4
  8
LAYER_1
 10
26.06933928524322
 20
-62.93169644874085
 30
0.0
  0
VERTEX
  5
D5
  8
LAYER_1
 10
45.08901158784717
 20
-81.95136875134482
 30
0.0
  0
VERTEX
  5
D6
  8
LAYER_1
 10
72.41773487830834
 20
-109.280092041806
 30
0.0
  0
VERTEX
  5
D7
  8
LAYER_1
 10
26.06933928524337
 20
-109.280092041806
 30
0.0
  0
SEQEND
  5
D8
  8
LAYER_1
  0
POLYLINE
  5
4D
  8
LAYER_1
 66
     1
 10
0.0
 20
0.0
 30
0.0
 70
     1
  0
VERTEX
  5
D9
  8
LAYER_1
 10
108.1938923079628
 20
-94.01464048188082
 30
0.0
  0
VERTEX
  5
DA
  8
LAYER_1
 10
108.1938892461902
 20
-108.1928526949983
 30
0.0
  0
VERTEX
  5
DB
  8
LAYER_1
 10
94.01567703307272
 20
-108.1928557567708
 30
0.0
  0
VERTEX
  5
DC
  8
LAYER_1
 10
86.79382833027525
 20
-100.9710410539486
 30
0.0
  0
VERTEX
  5
DD
  8
LAYER_1
 10
56.43158380775928
 20
-70.60879653143276
 30
0.0
  0
VERTEX
  5
DE
  8
LAYER_1
 10
26.06933928524335
 20
-40.24655200891679
 30
0.0
  0
VERTEX
  5
DF
  8
LAYER_1
 10
26.06934234701588
 20
-26.06833979579922
 30
0.0
  0
VERTEX
  5
E0
  8
LAYER_1
 10
40.24755456013339
 20
-26.06833673402675
 30
0.0
  0
VERTEX
  5
E1
  8
LAYER_1
 10
70.60979908264933
 20
-56.43058125654266
 30
0.0
  0
VERTEX
  5
E2
  8
LAYER_1
 10
100.9720436051653
 20
-86.7928257790586
 30
0.0
  0
SEQEND
  5
E3
  8
LAYER_1
  0
POLYLINE
  5
4E
  8
LAYER_1
 66
     1
 10
0.0
 20
0.0
 30
0.0
 70
     1
  0
VERTEX
  5
E4
  8
LAYER_1
 10
176.6792094161344
 20
-108.1928897567461
 30
0.0
  0
VERTEX
  5
E5
  8
LAYER_1
 10
162.5009972030169
 20
-108.1928866949736
 30
0.0
  0
VERTEX
  5
E6
  8
LAYER_1
 10
162.5009941412445
 20
-94.01467448185613
 30
0.0
  0
VERTEX
  5
E7
  8
LAYER_1
 10
169.7228088440666
 20
-86.79282577905863
 30
0.0
  0
VERTEX
  5
E8
  8
LAYER_1
 10
200.0850533665825
 20
-56.43058125654268
 30
0.0
  0
VERTEX
  5
E9
  8
LAYER_1
 10
230.4472978890985
 20
-26.06833673402673
 30
0.0
  0
VERTEX
  5
EA
  8
LAYER_1
 10
244.6255101022161
 20
-26.06833979579925
 30
0.0
  0
VERTEX
  5
EB
  8
LAYER_1
 10
244.6255131639885
 20
-40.24655200891678
 30
0.0
  0
VERTEX
  5
EC
  8
LAYER_1
 10
214.2632686414726
 20
-70.60879653143274
 30
0.0
  0
VERTEX
  5
ED
  8
LAYER_1
 10
183.9010241189567
 20
-100.9710410539487
 30
0.0
  0
SEQEND
  5
EE
  8
LAYER_1
  0
POLYLINE
  5
4F
  8
LAYER_1
 66
     1
 10
0.0
 20
0.0
 30
0.0
 70
     1
  0
VERTEX
  5
EF
  8
LAYER_1
 10
162.5009601412691
 20
-176.6782068649179
 30
0.0
  0
VERTEX
  5
F0
  8
LAYER_1
 10
162.5009632030416
 20
-162.4999946518003
 30
0.0
  0
VERTEX
  5
F1
  8
LAYER_1
 10
176.6791754161592
 20
-162.4999915900279
 30
0.0
  0
VERTEX
  5
F2
  8
LAYER_1
 10
183.9010241189567
 20
-169.72180629285
 30
0.0
  0
VERTEX
  5
F3
  8
LAYER_1
 10
214.2632686414726
 20
-200.0840508153659
 30
0.0
  0
VERTEX
  5
F4
  8
LAYER_1
 10
244.6255131639885
 20
-230.4462953378818
 30
0.0
  0
VERTEX
  5
F5
  8
LAYER_1
 10
244.6255101022159
 20
-244.6245075509994
 30
0.0
  0
VERTEX
  5
F6
  8
LAYER_1
 10
230.4472978890984
 20
-244.6245106127719
 30
0.0
  0
VERTEX
  5
F7
  8
LAYER_1
 10
200.0850533665825
 20
-214.262266090256
 30
0.0
  0
VERTEX
  5
F8
  8
LAYER_1
 10
169.7228088440666
 20
-183.90002156774
 30
0.0
  0
SEQEND
  5
F9
  8
LAYER_1
  0
POLYLINE
  5
50
  8
LAYER_1
 66
     1
 10
0.0
 20
0.0
 30
0.0
 70
     1
  0
VERTEX
  5
FA
  8
LAYER_1
 10
94.01564303309743
 20
-162.4999575900525
 30
0.0
  0
VERTEX
  5
FB
  8
LAYER_1
 10
108.193855246215
 20
-162.499960651825
 30
0.0
  0
VERTEX
  5
FC
  8
LAYER_1
 10
108.1938583079874
 20
-176.6781728649426
 30
0.0
  0
VERTEX
  5
FD
  8
LAYER_1
 10
100.9720436051653
 20
-183.90002156774
 30
0.0
  0
VERTEX
  5
FE
  8
LAYER_1
 10
70.60979908264936
 20
-214.262266090256
 30
0.0
  0
VERTEX
  5
FF
  8
LAYER_1
 10
40.24755456013342
 20
-244.6245106127719
 30
0.0
  0
VERTEX
  5
100
  8
LAYER_1
 10
26.06934234701585
 20
-244.6245075509994
 30
0.0
  0
VERTEX
  5
101
  8
LAYER_1
 10
26.06933928524338
 20
-230.4462953378818
 30
0.0
  0
VERTEX
  5
102
  8
LAYER_1
 10
56.43158380775927
 20
-200.0840508153659
 30
0.0
  0
VERTEX
  5
103
  8
LAYER_1
 10
86.79382833027523
 20
-169.72180629285
 30
0.0
  0
SEQEND
  5
104
  8
LAYER_1
  0
POLYLINE
  5
51
  8
LAYER_1
 66
     1
 10
0.0
 20
0.0
 30
0.0
 70
     1
  0
VERTEX
  5
105
  8
LAYER_1
 10
214.2186876080782
 20
-145.3719358393967
 30
0.0
  0
VERTEX
  5
106
  8
LAYER_1
 10
244.6255131639885
 20
-145.3719358393968
 30
0.0
  0
VERTEX
  5
107
  8
LAYER_1
 10
254.6510209999857
 20
-135.3464236733993
 30
0.0
  0
VERTEX
  5
108
  8
LAYER_1
 10
244.6255131639885
 20
-125.3209115074019
 30
0.0
  0
VERTEX
  5
109
  8
LAYER_1
 10
183.811862052168
 20
-125.3209115074019
 30
0.0
  0
VERTEX
  5
10A
  8
LAYER_1
 10
173.7863542161708
 20
-135.3464236733993
 30
0.0
  0
VERTEX
  5
10B
  8
LAYER_1
 10
183.811862052168
 20
-145.3719358393967
 30
0.0
  0
SEQEND
  5
10C
  8
LAYER_1
  0
POLYLINE
  5
52
  8
LAYER_1
 66
     1
 10
0.0
 20
0.0
 30
0.0
 70
     1
  0
VERTEX
  5
10D
  8
LAYER_1
 10
135.347426224616
 20
-154.3386144425587
 30
0.0
  0
VERTEX
  5
10E
  8
LAYER_1
 10
148.4019322022685
 20
-167.3880612845178
 30
0.0
  0
VERTEX
  5
10F
  8
LAYER_1
 10
148.4019322022685
 20
-148.6307218150972
 30
0.0
  0
VERTEX
  5
110
  8
LAYER_1
 10
166.8566369076339
 20
-148.6307218150972
 30
0.0
  0
VERTEX
  5
111
  8
LAYER_1
 10
153.5931949717885
 20
-135.3464236733993
 30
0.0
  0
VERTEX
  5
112
  8
LAYER_1
 10
166.8566369076339
 20
-122.0621255317015
 30
0.0
  0
VERTEX
  5
113
  8
LAYER_1
 10
148.4019322022685
 20
-122.0621255317015
 30
0.0
  0
VERTEX
  5
114
  8
LAYER_1
 10
148.4019322022685
 20
-103.3047860622808
 30
0.0
  0
VERTEX
  5
115
  8
LAYER_1
 10
135.347426224616
 20
-116.35423290424
 30
0.0
  0
VERTEX
  5
116
  8
LAYER_1
 10
122.2929202469634
 20
-103.3047860622808
 30
0.0
  0
VERTEX
  5
117
  8
LAYER_1
 10
122.2929202469634
 20
-122.0621255317015
 30
0.0
  0
VERTEX
  5
118
  8
LAYER_1
 10
103.838215541598
 20
-122.0621255317015
 30
0.0
  0
VERTEX
  5
119
  8
LAYER_1
 10
117.1016574774434
 20
-135.3464236733993
 30
0.0
  0
VERTEX
  5
11A
  8
LAYER_1
 10
103.838215541598
 20
-148.6307218150972
 30
0.0
  0
VERTEX
  5
11B
  8
LAYER_1
 10
122.2929202469634
 20
-148.6307218150972
 30
0.0
  0
VERTEX
  5
11C
  8
LAYER_1
 10
122.2929202469634
 20
-167.3880612845178
 30
0.0
  0
SEQEND
  5
11D
  8
LAYER_1
  0
POLYLINE
  5
53
  8
LAYER_1
 66
     1
 10
0.0
 20
0.0
 30
0.0
 70
     1
  0
VERTEX
  5
11E
  8
LAYER_1
 10
-145.3729383906133
 20
-56.47516228993701
 30
0.0
  0
VERTEX
  5
11F
  8
LAYER_1
 10
-145.3729383906134
 20
-26.06833673402676
 30
0.0
  0
VERTEX
  5
120
  8
LAYER_1
 10
-135.3474262246159
 20
-16.04282889802954
 30
0.0
  0
VERTEX
  5
121
  8
LAYER_1
 10
-125.3219140586184
 20
-26.06833673402676
 30
0.0
  0
VERTEX
  5
122
  8
LAYER_1
 10
-125.3219140586184
 20
-86.88198784584726
 30
0.0
  0
VERTEX
  5
123
  8
LAYER_1
 10
-135.3474262246159
 20
-96.90749568184447
 30
0.0
  0
VERTEX
  5
124
  8
LAYER_1
 10
-145.3729383906133
 20
-86.88198784584723
 30
0.0
  0
SEQEND
  5
125
  8
LAYER_1
  0
POLYLINE
  5
54
  8
LAYER_1
 66
     1
 10
0.0
 20
0.0
 30
0.0
 70
     1
  0
VERTEX
  5
126
  8
LAYER_1
 10
-56.47616484115359
 20
-125.3209115074019
 30
0.0
  0
VERTEX
  5
127
  8
LAYER_1
 10
-26.0693392852433
 20
-125.3209115074019
 30
0.0
  0
VERTEX
  5
128
  8
LAYER_1
 10
-16.0438314492461
 20
-135.3464236733994
 30
0.0
  0
VERTEX
  5
129
  8
LAYER_1
 10
-26.06933928524332
 20
-145.3719358393968
 30
0.0
  0
VERTEX
  5
12A
  8
LAYER_1
 10
-86.88299039706385
 20
-145.3719358393968
 30
0.0
  0
VERTEX
  5
12B
  8
LAYER_1
 10
-96.90849823306097
 20
-135.3464236733993
 30
0.0
  0
VERTEX
  5
12C
  8
LAYER_1
 10
-86.88299039706385
 20
-125.3209115074019
 30
0.0
  0
SEQEND
  5
12D
  8
LAYER_1
  0
POLYLINE
  5
55
  8
LAYER_1
 66
     1
 10
0.0
 20
0.0
 30
0.0
 70
     1
  0
VERTEX
  5
12E
  8
LAYER_1
 10
-125.3219140586185
 20
-214.2176850568617
 30
0.0
  0
VERTEX
  5
12F
  8
LAYER_1
 10
-125.3219140586184
 20
-244.6245106127719
 30
0.0
  0
VERTEX
  5
130
  8
LAYER_1
 10
-135.3474262246159
 20
-254.6500184487691
 30
0.0
  0
VERTEX
  5
131
  8
LAYER_1
 10
-145.3729383906134
 20
-244.6245106127719
 30
0.0
  0
VERTEX
  5
132
  8
LAYER_1
 10
-145.3729383906134
 20
-183.8108595009514
 30
0.0
  0
VERTEX
  5
133
  8
LAYER_1
 10
-135.3474262246159
 20
-173.7853516649543
 30
0.0
  0
VERTEX
  5
134
  8
LAYER_1
 10
-125.3219140586184
 20
-183.8108595009514
 30
0.0
  0
SEQEND
  5
135
  8
LAYER_1
  0
POLYLINE
  5
56
  8
LAYER_1
 66
     1
 10
0.0
 20
0.0
 30
0.0
 70
     1
  0
VERTEX
  5
136
  8
LAYER_1
 10
-62.93269899995741
 20
-26.06833673402665
 30
0.0
  0
VERTEX
  5
137
  8
LAYER_1
 10
-81.95237130256139
 20
-45.08800903663059
 30
0.0
  0
VERTEX
  5
138
  8
LAYER_1
 10
-109.2810945930225
 20
-72.41673232709172
 30
0.0
  0
VERTEX
  5
139
  8
LAYER_1
 10
-109.2810945930225
 20
-26.06833673402675
 30
0.0
  0
SEQEND
  5
13A
  8
LAYER_1
  0
POLYLINE
  5
57
  8
LAYER_1
 66
     1
 10
0.0
 20
0.0
 30
0.0
 70
     1
  0
VERTEX
  5
13B
  8
LAYER_1
 10
-207.7621534492744
 20
-26.06833673402665
 30
0.0
  0
VERTEX
  5
13C
  8
LAYER_1
 10
-188.7424811466704
 20
-45.08800903663059
 30
0.0
  0
VERTEX
  5
13D
  8
LAYER_1
 10
-161.4137578562093
 20
-72.41673232709172
 30
0.0
  0
VERTEX
  5
13E
  8
LAYER_1
 10
-161.4137578562093
 20
-26.06833673402676
 30
0.0
  0
SEQEND
  5
13F
  8
LAYER_1
  0
POLYLINE
  5
58
  8
LAYER_1
 66
     1
 10
0.0
 20
0.0
 30
0.0
 70
     1
  0
VERTEX
  5
140
  8
LAYER_1
 10
-244.6255131639886
 20
-62.93169644874084
 30
0.0
  0
VERTEX
  5
141
  8
LAYER_1
 10
-225.6058408613846
 20
-81.95136875134479
 30
0.0
  0
VERTEX
  5
142
  8
LAYER_1
 10
-198.2771175709235
 20
-109.280092041806
 30
0.0
  0
VERTEX
  5
143
  8
LAYER_1
 10
-244.6255131639885
 20
-109.2800920418059
 30
0.0
  0
SEQEND
  5
144
  8
LAYER_1
  0
POLYLINE
  5
59
  8
LAYER_1
 66
     1
 10
0.0
 20
0.0
 30
0.0
 70
     1
  0
VERTEX
  5
145
  8
LAYER_1
 10
-244.6255131639886
 20
-207.7611508980578
 30
0.0
  0
VERTEX
  5
146
  8
LAYER_1
 10
-225.6058408613846
 20
-188.7414785954538
 30
0.0
  0
VERTEX
  5
147
  8
LAYER_1
 10
-198.2771175709235
 20
-161.4127553049927
 30
0.0
  0
VERTEX
  5
148
  8
LAYER_1
 10
-244.6255131639885
 20
-161.4127553049927
 30
0.0
  0
SEQEND
  5
149
  8
LAYER_1
  0
POLYLINE
  5
5A
  8
LAYER_1
 66
     1
 10
0.0
 20
0.0
 30
0.0
 70
     1
  0
VERTEX
  5
14A
  8
LAYER_1
 10
-207.7621534492744
 20
-244.624510612772
 30
0.0
  0
VERTEX
  5
14B
  8
LAYER_1
 10
-188.7424811466704
 20
-225.604838310168
 30
0.0
  0
VERTEX
  5
14C
  8
LAYER_1
 10
-161.4137578562093
 20
-198.2761150197069
 30
0.0
  0
VERTEX
  5
14D
  8
LAYER_1
 10
-161.4137578562094
 20
-244.6245106127719
 30
0.0
  0
SEQEND
  5
14E
  8
LAYER_1
  0
POLYLINE
  5
5B
  8
LAYER_1
 66
     1
 10
0.0
 20
0.0
 30
0.0
 70
     1
  0
VERTEX
  5
14F
  8
LAYER_1
 10
-62.93269899995741
 20
-244.624510612772
 30
0.0
  0
VERTEX
  5
150
  8
LAYER_1
 10
-81.95237130256139
 20
-225.604838310168
 30
0.0
  0
VERTEX
  5
151
  8
LAYER_1
 10
-109.2810945930225
 20
-198.2761150197069
 30
0.0
  0
VERTEX
  5
152
  8
LAYER_1
 10
-109.2810945930225
 20
-244.6245106127719
 30
0.0
  0
SEQEND
  5
153
  8
LAYER_1
  0
POLYLINE
  5
5C
  8
LAYER_1
 66
     1
 10
0.0
 20
0.0
 30
0.0
 70
     1
  0
VERTEX
  5
154
  8
LAYER_1
 10
-26.06933928524324
 20
-207.7611508980578
 30
0.0
  0
VERTEX
  5
155
  8
LAYER_1
 10
-45.08901158784715
 20
-188.7414785954539
 30
0.0
  0
VERTEX
  5
156
  8
LAYER_1
 10
-72.41773487830831
 20
-161.4127553049927
 30
0.0
  0
VERTEX
  5
157
  8
LAYER_1
 10
-26.0693392852433
 20
-161.4127553049928
 30
0.0
  0
SEQEND
  5
158
  8
LAYER_1
  0
POLYLINE
  5
5D
  8
LAYER_1
 66
     1
 10
0.0
 20
0.0
 30
0.0
 70
     1
  0
VERTEX
  5
159
  8
LAYER_1
 10
-26.06933928524321
 20
-62.93169644874085
 30
0.0
  0
VERTEX
  5
15A
  8
LAYER_1
 10
-45.08901158784715
 20
-81.95136875134482
 30
0.0
  0
VERTEX
  5
15B
  8
LAYER_1
 10
-72.41773487830831
 20
-109.280092041806
 30
0.0
  0
VERTEX
  5
15C
  8
LAYER_1
 10
-26.06933928524332
 20
-109.280092041806
 30
0.0
  0
SEQEND
  5
15D
  8
LAYER_1
  0
POLYLINE
  5
5E
  8
LAYER_1
 66
     1
 10
0.0
 20
0.0
 30
0.0
 70
     1
  0
VERTEX
  5
15E
  8
LAYER_1
 10
-108.1938923079627
 20
-94.01464048188082
 30
0.0
  0
VERTEX
  5
15F
  8
LAYER_1
 10
-108.1938892461902
 20
-108.1928526949983
 30
0.0
  0
VERTEX
  5
160
  8
LAYER_1
 10
-94.01567703307268
 20
-108.1928557567708
 30
0.0
  0
VERTEX
  5
161
  8
LAYER_1
 10
-86.79382833027523
 20
-100.9710410539486
 30
0.0
  0
VERTEX
  5
162
  8
LAYER_1
 10
-56.43158380775924
 20
-70.60879653143276
 30
0.0
  0
VERTEX
  5
163
  8
LAYER_1
 10
-26.0693392852433
 20
-40.24655200891679
 30
0.0
  0
VERTEX
  5
164
  8
LAYER_1
 10
-26.06934234701584
 20
-26.06833979579922
 30
0.0
  0
VERTEX
  5
165
  8
LAYER_1
 10
-40.24755456013337
 20
-26.06833673402675
 30
0.0
  0
VERTEX
  5
166
  8
LAYER_1
 10
-70.6097990826493
 20
-56.43058125654266
 30
0.0
  0
VERTEX
  5
167
  8
LAYER_1
 10
-100.9720436051653
 20
-86.7928257790586
 30
0.0
  0
SEQEND
  5
168
  8
LAYER_1
  0
POLYLINE
  5
5F
  8
LAYER_1
 66
     1
 10
0.0
 20
0.0
 30
0.0
 70
     1
  0
VERTEX
  5
169
  8
LAYER_1
 10
-176.6792094161344
 20
-108.1928897567461
 30
0.0
  0
VERTEX
  5
16A
  8
LAYER_1
 10
-162.5009972030169
 20
-108.1928866949736
 30
0.0
  0
VERTEX
  5
16B
  8
LAYER_1
 10
-162.5009941412445
 20
-94.01467448185613
 30
0.0
  0
VERTEX
  5
16C
  8
LAYER_1
 10
-169.7228088440665
 20
-86.79282577905863
 30
0.0
  0
VERTEX
  5
16D
  8
LAYER_1
 10
-200.0850533665825
 20
-56.43058125654268
 30
0.0
  0
VERTEX
  5
16E
  8
LAYER_1
 10
-230.4472978890985
 20
-26.06833673402673
 30
0.0
  0
VERTEX
  5
16F
  8
LAYER_1
 10
-244.6255101022161
 20
-26.06833979579925
 30
0.0
  0
VERTEX
  5
170
  8
LAYER_1
 10
-244.6255131639885
 20
-40.24655200891678
 30
0.0
  0
VERTEX
  5
171
  8
LAYER_1
 10
-214.2632686414726
 20
-70.60879653143274
 30
0.0
  0
VERTEX
  5
172
  8
LAYER_1
 10
-183.9010241189566
 20
-100.9710410539487
 30
0.0
  0
SEQEND
  5
173
  8
LAYER_1
  0
POLYLINE
  5
60
  8
LAYER_1
 66
     1
 10
0.0
 20
0.0
 30
0.0
 70
     1
  0
VERTEX
  5
174
  8
LAYER_1
 10
-162.5009601412691
 20
-176.6782068649179
 30
0.0
  0
VERTEX
  5
175
  8
LAYER_1
 10
-162.5009632030416
 20
-162.4999946518003
 30
0.0
  0
VERTEX
  5
176
  8
LAYER_1
 10
-176.6791754161591
 20
-162.4999915900279
 30
0.0
  0
VERTEX
  5
177
  8
LAYER_1
 10
-183.9010241189566
 20
-169.72180629285
 30
0.0
  0
VERTEX
  5
178
  8
LAYER_1
 10
-214.2632686414726
 20
-200.0840508153659
 30
0.0
  0
VERTEX
  5
179
  8
LAYER_1
 10
-244.6255131639885
 20
-230.4462953378818
 30
0.0
  0
VERTEX
  5
17A
  8
LAYER_1
 10
-244.6255101022159
 20
-244.6245075509994
 30
0.0
  0
VERTEX
  5
17B
  8
LAYER_1
 10
-230.4472978890984
 20
-244.6245106127719
 30
0.0
  0
VERTEX
  5
17C
  8
LAYER_1
 10
-200.0850533665825
 20
-214.262266090256
 30
0.0
  0
VERTEX
  5
17D
  8
LAYER_1
 10
-169.7228088440665
 20
-183.90002156774
 30
0.0
  0
SEQEND
  5
17E
  8
LAYER_1
  0
POLYLINE
  5
61
  8
LAYER_1
 66
     1
 10
0.0
 20
0.0
 30
0.0
 70
     1
  0
VERTEX
  5
17F
  8
LAYER_1
 10
-94.0156430330974
 20
-162.4999575900525
 30
0.0
  0
VERTEX
  5
180
  8
LAYER_1
 10
-108.1938552462149
 20
-162.499960651825
 30
0.0
  0
VERTEX
  5
181
  8
LAYER_1
 10
-108.1938583079873
 20
-176.6781728649426
 30
0.0
  0
VERTEX
  5
182
  8
LAYER_1
 10
-100.9720436051652
 20
-183.90002156774
 30
0.0
  0
VERTEX
  5
183
  8
LAYER_1
 10
-70.60979908264933
 20
-214.262266090256
 30
0.0
  0
VERTEX
  5
184
  8
LAYER_1
 10
-40.24755456013337
 20
-244.6245106127719
 30
0.0
  0
VERTEX
  5
185
  8
LAYER_1
 10
-26.06934234701581
 20
-244.6245075509994
 30
0.0
  0
VERTEX
  5
186
  8
LAYER_1
 10
-26.06933928524335
 20
-230.4462953378818
 30
0.0
  0
VERTEX
  5
187
  8
LAYER_1
 10
-56.43158380775924
 20
-200.0840508153659
 30
0.0
  0
VERTEX
  5
188
  8
LAYER_1
 10
-86.7938283302752
 20
-169.72180629285
 30
0.0
  0
SEQEND
  5
189
  8
LAYER_1
  0
POLYLINE
  5
62
  8
LAYER_1
 66
     1
 10
0.0
 20
0.0
 30
0.0
 70
     1
  0
VERTEX
  5
18A
  8
LAYER_1
 10
-214.2186876080782
 20
-145.3719358393967
 30
0.0
  0
VERTEX
  5
18B
  8
LAYER_1
 10
-244.6255131639884
 20
-145.3719358393968
 30
0.0
  0
VERTEX
  5
18C
  8
LAYER_1
 10
-254.6510209999857
 20
-135.3464236733993
 30
0.0
  0
VERTEX
  5
18D
  8
LAYER_1
 10
-244.6255131639884
 20
-125.3209115074019
 30
0.0
  0
VERTEX
  5
18E
  8
LAYER_1
 10
-183.811862052168
 20
-125.3209115074019
 30
0.0
  0
VERTEX
  5
18F
  8
LAYER_1
 10
-173.7863542161708
 20
-135.3464236733993
 30
0.0
  0
VERTEX
  5
190
  8
LAYER_1
 10
-183.811862052168
 20
-145.3719358393967
 30
0.0
  0
SEQEND
  5
191
  8
LAYER_1
  0
POLYLINE
  5
63
  8
LAYER_1
 66
     1
 10
0.0
 20
0.0
 30
0.0
 70
     1
  0
VERTEX
  5
192
  8
LAYER_1
 10
-135.3474262246159
 20
-154.3386144425587
 30
0.0
  0
VERTEX
  5
193
  8
LAYER_1
 10
-148.4019322022685
 20
-167.3880612845178
 30
0.0
  0
VERTEX
  5
194
  8
LAYER_1
 10
-148.4019322022685
 20
-148.6307218150972
 30
0.0
  0
VERTEX
  5
195
  8
LAYER_1
 10
-166.8566369076339
 20
-148.6307218150972
 30
0.0
  0
VERTEX
  5
196
  8
LAYER_1
 10
-153.5931949717884
 20
-135.3464236733993
 30
0.0
  0
VERTEX
  5
197
  8
LAYER_1
 10
-166.8566369076339
 20
-122.0621255317015
 30
0.0
  0
VERTEX
  5
198
  8
LAYER_1
 10
-148.4019322022685
 20
-122.0621255317015
 30
0.0
  0
VERTEX
  5
199
  8
LAYER_1
 10
-148.4019322022685
 20
-103.3047860622808
 30
0.0
  0
VERTEX
  5
19A
  8
LAYER_1
 10
-135.3474262246159
 20
-116.35423290424
 30
0.0
  0
VERTEX
  5
19B
  8
LAYER_1
 10
-122.2929202469633
 20
-103.3047860622808
 30
0.0
  0
VERTEX
  5
19C
  8
LAYER_1
 10
-122.2929202469633
 20
-122.0621255317015
 30
0.0
  0
VERTEX
  5
19D
  8
LAYER_1
 10
-103.8382155415979
 20
-122.0621255317015
 30
0.0
  0
VERTEX
  5
19E
  8
LAYER_1
 10
-117.1016574774434
 20
-135.3464236733993
 30
0.0
  0
VERTEX
  5
19F
  8
LAYER_1
 10
-103.8382155415979
 20
-148.6307218150972
 30
0.0
  0
VERTEX
  5
1A0
  8
LAYER_1
 10
-122.2929202469633
 20
-148.6307218150972
 30
0.0
  0
VERTEX
  5
1A1
  8
LAYER_1
 10
-122.2929202469633
 20
-167.3880612845178
 30
0.0
  0
SEQEND
  5
1A2
  8
LAYER_1
  0
POLYLINE
  5
64
  8
LAYER_1
 66
     1
 10
0.0
 20
0.0
 30
0.0
 70
     1
  0
VERTEX
  5
1A3
  8
LAYER_1
 10
-145.3729383906133
 20
56.47516228993698
 30
0.0
  0
VERTEX
  5
1A4
  8
LAYER_1
 10
-145.3729383906134
 20
26.06833673402675
 30
0.0
  0
VERTEX
  5
1A5
  8
LAYER_1
 10
-135.3474262246159
 20
16.04282889802949
 30
0.0
  0
VERTEX
  5
1A6
  8
LAYER_1
 10
-125.3219140586184
 20
26.06833673402675
 30
0.0
  0
VERTEX
  5
1A7
  8
LAYER_1
 10
-125.3219140586184
 20
86.88198784584719
 30
0.0
  0
VERTEX
  5
1A8
  8
LAYER_1
 10
-135.3474262246159
 20
96.90749568184444
 30
0.0
  0
VERTEX
  5
1A9
  8
LAYER_1
 10
-145.3729383906133
 20
86.88198784584714
 30
0.0
  0
SEQEND
  5
1AA
  8
LAYER_1
  0
POLYLINE
  5
65
  8
LAYER_1
 66
     1
 10
0.0
 20
0.0
 30
0.0
 70
     1
  0
VERTEX
  5
1AB
  8
LAYER_1
 10
-56.47616484115359
 20
125.3209115074018
 30
0.0
  0
VERTEX
  5
1AC
  8
LAYER_1
 10
-26.0693392852433
 20
125.3209115074018
 30
0.0
  0
VERTEX
  5
1AD
  8
LAYER_1
 10
-16.0438314492461
 20
135.3464236733993
 30
0.0
  0
VERTEX
  5
1AE
  8
LAYER_1
 10
-26.06933928524332
 20
145.3719358393967
 30
0.0
  0
VERTEX
  5
1AF
  8
LAYER_1
 10
-86.88299039706385
 20
145.3719358393967
 30
0.0
  0
VERTEX
  5
1B0
  8
LAYER_1
 10
-96.90849823306097
 20
135.3464236733993
 30
0.0
  0
VERTEX
  5
1B1
  8
LAYER_1
 10
-86.88299039706385
 20
125.3209115074018
 30
0.0
  0
SEQEND
  5
1B2
  8
LAYER_1
  0
POLYLINE
  5
66
  8
LAYER_1
 66
     1
 10
0.0
 20
0.0
 30
0.0
 70
     1
  0
VERTEX
  5
1B3
  8
LAYER_1
 10
-125.3219140586185
 20
214.2176850568616
 30
0.0
  0
VERTEX
  5
1B4
  8
LAYER_1
 10
-125.3219140586184
 20
244.6245106127719
 30
0.0
  0
VERTEX
  5
1B5
  8
LAYER_1
 10
-135.3474262246159
 20
254.6500184487691
 30
0.0
  0
VERTEX
  5
1B6
  8
LAYER_1
 10
-145.3729383906134
 20
244.6245106127719
 30
0.0
  0
VERTEX
  5
1B7
  8
LAYER_1
 10
-145.3729383906134
 20
183.8108595009514
 30
0.0
  0
VERTEX
  5
1B8
  8
LAYER_1
 10
-135.3474262246159
 20
173.7853516649542
 30
0.0
  0
VERTEX
  5
1B9
  8
LAYER_1
 10
-125.3219140586184
 20
183.8108595009514
 30
0.0
  0
SEQEND
  5
1BA
  8
LAYER_1
  0
POLYLINE
  5
67
  8
LAYER_1
 66
     1
 10
0.0
 20
0.0
 30
0.0
 70
     1
  0
VERTEX
  5
1BB
  8
LAYER_1
 10
-62.93269899995741
 20
26.06833673402663
 30
0.0
  0
VERTEX
  5
1BC
  8
LAYER_1
 10
-81.95237130256139
 20
45.08800903663055
 30
0.0
  0
VERTEX
  5
1BD
  8
LAYER_1
 10
-109.2810945930225
 20
72.41673232709168
 30
0.0
  0
VERTEX
  5
1BE
  8
LAYER_1
 10
-109.2810945930225
 20
26.06833673402669
 30
0.0
  0
SEQEND
  5
1BF
  8
LAYER_1
  0
POLYLINE
  5
68
  8
LAYER_1
 66
     1
 10
0.0
 20
0.0
 30
0.0
 70
     1
  0
VERTEX
  5
1C0
  8
LAYER_1
 10
-207.7621534492744
 20
26.06833673402663
 30
0.0
  0
VERTEX
  5
1C1
  8
LAYER_1
 10
-188.7424811466704
 20
45.08800903663055
 30
0.0
  0
VERTEX
  5
1C2
  8
LAYER_1
 10
-161.4137578562093
 20
72.41673232709168
 30
0.0
  0
VERTEX
  5
1C3
  8
LAYER_1
 10
-161.4137578562093
 20
26.06833673402675
 30
0.0
  0
SEQEND
  5
1C4
  8
LAYER_1
  0
POLYLINE
  5
69
  8
LAYER_1
 66
     1
 10
0.0
 20
0.0
 30
0.0
 70
     1
  0
VERTEX
  5
1C5
  8
LAYER_1
 10
-244.6255131639886
 20
62.93169644874078
 30
0.0
  0
VERTEX
  5
1C6
  8
LAYER_1
 10
-225.6058408613846
 20
81.95136875134475
 30
0.0
  0
VERTEX
  5
1C7
  8
LAYER_1
 10
-198.2771175709235
 20
109.2800920418059
 30
0.0
  0
VERTEX
  5
1C8
  8
LAYER_1
 10
-244.6255131639885
 20
109.2800920418059
 30
0.0
  0
SEQEND
  5
1C9
  8
LAYER_1
  0
POLYLINE
  5
6A
  8
LAYER_1
 66
     1
 10
0.0
 20
0.0
 30
0.0
 70
     1
  0
VERTEX
  5
1CA
  8
LAYER_1
 10
-244.6255131639886
 20
207.7611508980578
 30
0.0
  0
VERTEX
  5
1CB
  8
LAYER_1
 10
-225.6058408613846
 20
188.7414785954538
 30
0.0
  0
VERTEX
  5
1CC
  8
LAYER_1
 10
-198.2771175709235
 20
161.4127553049927
 30
0.0
  0
VERTEX
  5
1CD
  8
LAYER_1
 10
-244.6255131639885
 20
161.4127553049927
 30
0.0
  0
SEQEND
  5
1CE
  8
LAYER_1
  0
POLYLINE
  5
6B
  8
LAYER_1
 66
     1
 10
0.0
 20
0.0
 30
0.0
 70
     1
  0
VERTEX
  5
1CF
  8
LAYER_1
 10
-207.7621534492744
 20
244.624510612772
 30
0.0
  0
VERTEX
  5
1D0
  8
LAYER_1
 10
-188.7424811466704
 20
225.604838310168
 30
0.0
  0
VERTEX
  5
1D1
  8
LAYER_1
 10
-161.4137578562093
 20
198.2761150197069
 30
0.0
  0
VERTEX
  5
1D2
  8
LAYER_1
 10
-161.4137578562094
 20
244.6245106127719
 30
0.0
  0
SEQEND
  5
1D3
  8
LAYER_1
  0
POLYLINE
  5
6C
  8
LAYER_1
 66
     1
 10
0.0
 20
0.0
 30
0.0
 70
     1
  0
VERTEX
  5
1D4
  8
LAYER_1
 10
-62.93269899995741
 20
244.624510612772
 30
0.0
  0
VERTEX
  5
1D5
  8
LAYER_1
 10
-81.95237130256139
 20
225.604838310168
 30
0.0
  0
VERTEX
  5
1D6
  8
LAYER_1
 10
-109.2810945930225
 20
198.2761150197069
 30
0.0
  0
VERTEX
  5
1D7
  8
LAYER_1
 10
-109.2810945930225
 20
244.6245106127719
 30
0.0
  0
SEQEND
  5
1D8
  8
LAYER_1
  0
POLYLINE
  5
6D
  8
LAYER_1
 66
     1
 10
0.0
 20
0.0
 30
0.0
 70
     1
  0
VERTEX
  5
1D9
  8
LAYER_1
 10
-26.06933928524324
 20
207.7611508980578
 30
0.0
  0
VERTEX
  5
1DA
  8
LAYER_1
 10
-45.08901158784715
 20
188.7414785954538
 30
0.0
  0
VERTEX
  5
1DB
  8
LAYER_1
 10
-72.41773487830831
 20
161.4127553049927
 30
0.0
  0
VERTEX
  5
1DC
  8
LAYER_1
 10
-26.0693392852433
 20
161.4127553049927
 30
0.0
  0
SEQEND
  5
1DD
  8
LAYER_1
  0
POLYLINE
  5
6E
  8
LAYER_1
 66
     1
 10
0.0
 20
0.0
 30
0.0
 70
     1
  0
VERTEX
  5
1DE
  8
LAYER_1
 10
-26.06933928524321
 20
62.93169644874078
 30
0.0
  0
VERTEX
  5
1DF
  8
LAYER_1
 10
-45.08901158784715
 20
81.95136875134475
 30
0.0
  0
VERTEX
  5
1E0
  8
LAYER_1
 10
-72.41773487830831
 20
109.2800920418059
 30
0.0
  0
VERTEX
  5
1E1
  8
LAYER_1
 10
-26.06933928524332
 20
109.2800920418059
 30
0.0
  0
SEQEND
  5
1E2
  8
LAYER_1
  0
POLYLINE
  5
6F
  8
LAYER_1
 66
     1
 10
0.0
 20
0.0
 30
0.0
 70
     1
  0
VERTEX
  5
1E3
  8
LAYER_1
 10
-108.1938923079627
 20
94.01464048188073
 30
0.0
  0
VERTEX
  5
1E4
  8
LAYER_1
 10
-108.1938892461902
 20
108.1928526949983
 30
0.0
  0
VERTEX
  5
1E5
  8
LAYER_1
 10
-94.01567703307268
 20
108.1928557567707
 30
0.0
  0
VERTEX
  5
1E6
  8
LAYER_1
 10
-86.79382833027523
 20
100.9710410539486
 30
0.0
  0
VERTEX
  5
1E7
  8
LAYER_1
 10
-56.43158380775924
 20
70.60879653143269
 30
0.0
  0
VERTEX
  5
1E8
  8
LAYER_1
 10
-26.0693392852433
 20
40.24655200891677
 30
0.0
  0
VERTEX
  5
1E9
  8
LAYER_1
 10
-26.06934234701584
 20
26.06833979579918
 30
0.0
  0
VERTEX
  5
1EA
  8
LAYER_1
 10
-40.24755456013337
 20
26.06833673402669
 30
0.0
  0
VERTEX
  5
1EB
  8
LAYER_1
 10
-70.6097990826493
 20
56.43058125654262
 30
0.0
  0
VERTEX
  5
1EC
  8
LAYER_1
 10
-100.9720436051653
 20
86.79282577905853
 30
0.0
  0
SEQEND
  5
1ED
  8
LAYER_1
  0
POLYLINE
  5
70
  8
LAYER_1
 66
     1
 10
0.0
 20
0.0
 30
0.0
 70
     1
  0
VERTEX
  5
1EE
  8
LAYER_1
 10
-176.6792094161344
 20
108.1928897567461
 30
0.0
  0
VERTEX
  5
1EF
  8
LAYER_1
 10
-162.5009972030169
 20
108.1928866949736
 30
0.0
  0
VERTEX
  5
1F0
  8
LAYER_1
 10
-162.5009941412445
 20
94.01467448185609
 30
0.0
  0
VERTEX
  5
1F1
  8
LAYER_1
 10
-169.7228088440665
 20
86.79282577905862
 30
0.0
  0
VERTEX
  5
1F2
  8
LAYER_1
 10
-200.0850533665825
 20
56.43058125654262
 30
0.0
  0
VERTEX
  5
1F3
  8
LAYER_1
 10
-230.4472978890985
 20
26.06833673402669
 30
0.0
  0
VERTEX
  5
1F4
  8
LAYER_1
 10
-244.6255101022161
 20
26.06833979579918
 30
0.0
  0
VERTEX
  5
1F5
  8
LAYER_1
 10
-244.6255131639885
 20
40.24655200891677
 30
0.0
  0
VERTEX
  5
1F6
  8
LAYER_1
 10
-214.2632686414726
 20
70.60879653143269
 30
0.0
  0
VERTEX
  5
1F7
  8
LAYER_1
 10
-183.9010241189566
 20
100.9710410539487
 30
0.0
  0
SEQEND
  5
1F8
  8
LAYER_1
  0
POLYLINE
  5
71
  8
LAYER_1
 66
     1
 10
0.0
 20
0.0
 30
0.0
 70
     1
  0
VERTEX
  5
1F9
  8
LAYER_1
 10
-162.5009601412691
 20
176.6782068649178
 30
0.0
  0
VERTEX
  5
1FA
  8
LAYER_1
 10
-162.5009632030416
 20
162.4999946518002
 30
0.0
  0
VERTEX
  5
1FB
  8
LAYER_1
 10
-176.6791754161591
 20
162.4999915900278
 30
0.0
  0
VERTEX
  5
1FC
  8
LAYER_1
 10
-183.9010241189566
 20
169.72180629285
 30
0.0
  0
VERTEX
  5
1FD
  8
LAYER_1
 10
-214.2632686414726
 20
200.0840508153658
 30
0.0
  0
VERTEX
  5
1FE
  8
LAYER_1
 10
-244.6255131639885
 20
230.4462953378818
 30
0.0
  0
VERTEX
  5
1FF
  8
LAYER_1
 10
-244.6255101022159
 20
244.6245075509994
 30
0.0
  0
VERTEX
  5
200
  8
LAYER_1
 10
-230.4472978890984
 20
244.6245106127718
 30
0.0
  0
VERTEX
  5
201
  8
LAYER_1
 10
-200.0850533665825
 20
214.2622660902559
 30
0.0
  0
VERTEX
  5
202
  8
LAYER_1
 10
-169.7228088440665
 20
183.90002156774
 30
0.0
  0
SEQEND
  5
203
  8
LAYER_1
  0
POLYLINE
  5
72
  8
LAYER_1
 66
     1
 10
0.0
 20
0.0
 30
0.0
 70
     1
  0
VERTEX
  5
204
  8
LAYER_1
 10
-94.0156430330974
 20
162.4999575900525
 30
0.0
  0
VERTEX
  5
205
  8
LAYER_1
 10
-108.1938552462149
 20
162.4999606518249
 30
0.0
  0
VERTEX
  5
206
  8
LAYER_1
 10
-108.1938583079873
 20
176.6781728649425
 30
0.0
  0
VERTEX
  5
207
  8
LAYER_1
 10
-100.9720436051652
 20
183.90002156774
 30
0.0
  0
VERTEX
  5
208
  8
LAYER_1
 10
-70.60979908264933
 20
214.2622660902559
 30
0.0
  0
VERTEX
  5
209
  8
LAYER_1
 10
-40.24755456013337
 20
244.6245106127719
 30
0.0
  0
VERTEX
  5
20A
  8
LAYER_1
 10
-26.06934234701581
 20
244.6245075509994
 30
0.0
  0
VERTEX
  5
20B
  8
LAYER_1
 10
-26.06933928524335
 20
230.4462953378818
 30
0.0
  0
VERTEX
  5
20C
  8
LAYER_1
 10
-56.43158380775924
 20
200.0840508153659
 30
0.0
  0
VERTEX
  5
20D
  8
LAYER_1
 10
-86.7938283302752
 20
169.7218062928499
 30
0.0
  0
SEQEND
  5
20E
  8
LAYER_1
  0
POLYLINE
  5
73
  8
LAYER_1
 66
     1
 10
0.0
 20
0.0
 30
0.0
 70
     1
  0
VERTEX
  5
20F
  8
LAYER_1
 10
-214.2186876080782
 20
145.3719358393967
 30
0.0
  0
VERTEX
  5
210
  8
LAYER_1
 10
-244.6255131639884
 20
145.3719358393968
 30
0.0
  0
VERTEX
  5
211
  8
LAYER_1
 10
-254.6510209999857
 20
135.3464236733993
 30
0.0
  0
VERTEX
  5
212
  8
LAYER_1
 10
-244.6255131639884
 20
125.3209115074019
 30
0.0
  0
VERTEX
  5
213
  8
LAYER_1
 10
-183.811862052168
 20
125.3209115074018
 30
0.0
  0
VERTEX
  5
214
  8
LAYER_1
 10
-173.7863542161708
 20
135.3464236733993
 30
0.0
  0
VERTEX
  5
215
  8
LAYER_1
 10
-183.811862052168
 20
145.3719358393967
 30
0.0
  0
SEQEND
  5
216
  8
LAYER_1
  0
POLYLINE
  5
74
  8
LAYER_1
 66
     1
 10
0.0
 20
0.0
 30
0.0
 70
     1
  0
VERTEX
  5
217
  8
LAYER_1
 10
-135.3474262246159
 20
154.3386144425586
 30
0.0
  0
VERTEX
  5
218
  8
LAYER_1
 10
-148.4019322022685
 20
167.3880612845178
 30
0.0
  0
VERTEX
  5
219
  8
LAYER_1
 10
-148.4019322022685
 20
148.6307218150971
 30
0.0
  0
VERTEX
  5
21A
  8
LAYER_1
 10
-166.8566369076339
 20
148.6307218150971
 30
0.0
  0
VERTEX
  5
21B
  8
LAYER_1
 10
-153.5931949717884
 20
135.3464236733993
 30
0.0
  0
VERTEX
  5
21C
  8
LAYER_1
 10
-166.8566369076339
 20
122.0621255317015
 30
0.0
  0
VERTEX
  5
21D
  8
LAYER_1
 10
-148.4019322022685
 20
122.0621255317015
 30
0.0
  0
VERTEX
  5
21E
  8
LAYER_1
 10
-148.4019322022685
 20
103.3047860622808
 30
0.0
  0
VERTEX
  5
21F
  8
LAYER_1
 10
-135.3474262246159
 20
116.3542329042399
 30
0.0
  0
VERTEX
  5
220
  8
LAYER_1
 10
-122.2929202469633
 20
103.3047860622808
 30
0.0
  0
VERTEX
  5
221
  8
LAYER_1
 10
-122.2929202469633
 20
122.0621255317015
 30
0.0
  0
VERTEX
  5
222
  8
LAYER_1
 10
-103.8382155415979
 20
122.0621255317015
 30
0.0
  0
VERTEX
  5
223
  8
LAYER_1
 10
-117.1016574774434
 20
135.3464236733993
 30
0.0
  0
VERTEX
  5
224
  8
LAYER_1
 10
-103.8382155415979
 20
148.6307218150971
 30
0.0
  0
VERTEX
  5
225
  8
LAYER_1
 10
-122.2929202469633
 20
148.6307218150971
 30
0.0
  0
VERTEX
  5
226
  8
LAYER_1
 10
-122.2929202469633
 20
167.3880612845178
 30
0.0
  0
SEQEND
  5
227
  8
LAYER_1
  0
POLYLINE
  5
75
  8
LAYER_1
 66
     1
 10
0.0
 20
0.0
 30
0.0
 70
     1
  0
VERTEX
  5
228
  8
LAYER_1
 10
145.3729383906133
 20
56.47516228993698
 30
0.0
  0
VERTEX
  5
229
  8
LAYER_1
 10
145.3729383906134
 20
26.06833673402675
 30
0.0
  0
VERTEX
  5
22A
  8
LAYER_1
 10
135.347426224616
 20
16.04282889802949
 30
0.0
  0
VERTEX
  5
22B
  8
LAYER_1
 10
125.3219140586185
 20
26.06833673402675
 30
0.0
  0
VERTEX
  5
22C
  8
LAYER_1
 10
125.3219140586185
 20
86.88198784584719
 30
0.0
  0
VERTEX
  5
22D
  8
LAYER_1
 10
135.347426224616
 20
96.90749568184444
 30
0.0
  0
VERTEX
  5
22E
  8
LAYER_1
 10
145.3729383906133
 20
86.88198784584714
 30
0.0
  0
SEQEND
  5
22F
  8
LAYER_1
  0
POLYLINE
  5
76
  8
LAYER_1
 66
     1
 10
0.0
 20
0.0
 30
0.0
 70
     1
  0
VERTEX
  5
230
  8
LAYER_1
 10
56.4761648411536
 20
125.3209115074018
 30
0.0
  0
VERTEX
  5
231
  8
LAYER_1
 10
26.06933928524334
 20
125.3209115074018
 30
0.0
  0
VERTEX
  5
232
  8
LAYER_1
 10
16.04383144924615
 20
135.3464236733993
 30
0.0
  0
VERTEX
  5
233
  8
LAYER_1
 10
26.06933928524337
 20
145.3719358393967
 30
0.0
  0
VERTEX
  5
234
  8
LAYER_1
 10
86.88299039706388
 20
145.3719358393967
 30
0.0
  0
VERTEX
  5
235
  8
LAYER_1
 10
96.90849823306102
 20
135.3464236733993
 30
0.0
  0
VERTEX
  5
236
  8
LAYER_1
 10
86.88299039706388
 20
125.3209115074018
 30
0.0
  0
SEQEND
  5
237
  8
LAYER_1
  0
POLYLINE
  5
77
  8
LAYER_1
 66
     1
 10
0.0
 20
0.0
 30
0.0
 70
     1
  0
VERTEX
  5
238
  8
LAYER_1
 10
125.3219140586185
 20
214.2176850568616
 30
0.0
  0
VERTEX
  5
239
  8
LAYER_1
 10
125.3219140586185
 20
244.6245106127719
 30
0.0
  0
VERTEX
  5
23A
  8
LAYER_1
 10
135.347426224616
 20
254.6500184487691
 30
0.0
  0
VERTEX
  5
23B
  8
LAYER_1
 10
145.3729383906134
 20
244.6245106127719
 30
0.0
  0
VERTEX
  5
23C
  8
LAYER_1
 10
145.3729383906134
 20
183.8108595009514
 30
0.0
  0
VERTEX
  5
23D
  8
LAYER_1
 10
135.347426224616
 20
173.7853516649542
 30
0.0
  0
VERTEX
  5
23E
  8
LAYER_1
 10
125.3219140586185
 20
183.8108595009514
 30
0.0
  0
SEQEND
  5
23F
  8
LAYER_1
  0
POLYLINE
  5
78
  8
LAYER_1
 66
     1
 10
0.0
 20
0.0
 30
0.0
 70
     1
  0
VERTEX
  5
240
  8
LAYER_1
 10
62.93269899995744
 20
26.06833673402663
 30
0.0
  0
VERTEX
  5
241
  8
LAYER_1
 10
81.95237130256142
 20
45.08800903663055
 30
0.0
  0
VERTEX
  5
242
  8
LAYER_1
 10
109.2810945930225
 20
72.41673232709168
 30
0.0
  0
VERTEX
  5
243
  8
LAYER_1
 10
109.2810945930225
 20
26.06833673402669
 30
0.0
  0
SEQEND
  5
244
  8
LAYER_1
  0
POLYLINE
  5
79
  8
LAYER_1
 66
     1
 10
0.0
 20
0.0
 30
0.0
 70
     1
  0
VERTEX
  5
245
  8
LAYER_1
 10
207.7621534492744
 20
26.06833673402663
 30
0.0
  0
VERTEX
  5
246
  8
LAYER_1
 10
188.7424811466705
 20
45.08800903663055
 30
0.0
  0
VERTEX
  5
247
  8
LAYER_1
 10
161.4137578562093
 20
72.41673232709168
 30
0.0
  0
VERTEX
  5
248
  8
LAYER_1
 10
161.4137578562093
 20
26.06833673402675
 30
0.0
  0
SEQEND
  5
249
  8
LAYER_1
  0
POLYLINE
  5
7A
  8
LAYER_1
 66
     1
 10
0.0
 20
0.0
 30
0.0
 70
     1
  0
VERTEX
  5
24A
  8
LAYER_1
 10
244.6255131639886
 20
62.93169644874078
 30
0.0
  0
VERTEX
  5
24B
  8
LAYER_1
 10
225.6058408613847
 20
81.95136875134475
 30
0.0
  0
VERTEX
  5
24C
  8
LAYER_1
 10
198.2771175709235
 20
109.2800920418059
 30
0.0
  0
VERTEX
  5
24D
  8
LAYER_1
 10
244.6255131639885
 20
109.2800920418059
 30
0.0
  0
SEQEND
  5
24E
  8
LAYER_1
  0
POLYLINE
  5
7B
  8
LAYER_1
 66
     1
 10
0.0
 20
0.0
 30
0.0
 70
     1
  0
VERTEX
  5
24F
  8
LAYER_1
 10
244.6255131639886
 20
207.7611508980578
 30
0.0
  0
VERTEX
  5
250
  8
LAYER_1
 10
225.6058408613847
 20
188.7414785954538
 30
0.0
  0
VERTEX
  5
251
  8
LAYER_1
 10
198.2771175709235
 20
161.4127553049927
 30
0.0
  0
VERTEX
  5
252
  8
LAYER_1
 10
244.6255131639885
 20
161.4127553049927
 30
0.0
  0
SEQEND
  5
253
  8
LAYER_1
  0
POLYLINE
  5
7C
  8
LAYER_1
 66
     1
 10
0.0
 20
0.0
 30
0.0
 70
     1
  0
VERTEX
  5
254
  8
LAYER_1
 10
207.7621534492744
 20
244.624510612772
 30
0.0
  0
VERTEX
  5
255
  8
LAYER_1
 10
188.7424811466705
 20
225.604838310168
 30
0.0
  0
VERTEX
  5
256
  8
LAYER_1
 10
161.4137578562093
 20
198.2761150197069
 30
0.0
  0
VERTEX
  5
257
  8
LAYER_1
 10
161.4137578562094
 20
244.6245106127719
 30
0.0
  0
SEQEND
  5
258
  8
LAYER_1
  0
POLYLINE
  5
7D
  8
LAYER_1
 66
     1
 10
0.0
 20
0.0
 30
0.0
 70
     1
  0
VERTEX
  5
259
  8
LAYER_1
 10
62.93269899995744
 20
244.624510612772
 30
0.0
  0
VERTEX
  5
25A
  8
LAYER_1
 10
81.95237130256142
 20
225.604838310168
 30
0.0
  0
VERTEX
  5
25B
  8
LAYER_1
 10
109.2810945930225
 20
198.2761150197069
 30
0.0
  0
VERTEX
  5
25C
  8
LAYER_1
 10
109.2810945930225
 20
244.6245106127719
 30
0.0
  0
SEQEND
  5
25D
  8
LAYER_1
  0
POLYLINE
  5
7E
  8
LAYER_1
 66
     1
 10
0.0
 20
0.0
 30
0.0
 70
     1
  0
VERTEX
  5
25E
  8
LAYER_1
 10
26.06933928524325
 20
207.7611508980578
 30
0.0
  0
VERTEX
  5
25F
  8
LAYER_1
 10
45.08901158784719
 20
188.7414785954538
 30
0.0
  0
VERTEX
  5
260
  8
LAYER_1
 10
72.41773487830834
 20
161.4127553049927
 30
0.0
  0
VERTEX
  5
261
  8
LAYER_1
 10
26.06933928524334
 20
161.4127553049927
 30
0.0
  0
SEQEND
  5
262
  8
LAYER_1
  0
POLYLINE
  5
7F
  8
LAYER_1
 66
     1
 10
0.0
 20
0.0
 30
0.0
 70
     1
  0
VERTEX
  5
263
  8
LAYER_1
 10
26.06933928524322
 20
62.93169644874078
 30
0.0
  0
VERTEX
  5
264
  8
LAYER_1
 10
45.08901158784719
 20
81.95136875134475
 30
0.0
  0
VERTEX
  5
265
  8
LAYER_1
 10
72.41773487830834
 20
109.2800920418059
 30
0.0
  0
VERTEX
  5
266
  8
LAYER_1
 10
26.06933928524337
 20
109.2800920418059
 30
0.0
  0
SEQEND
  5
267
  8
LAYER_1
  0
POLYLINE
  5
80
  8
LAYER_1
 66
     1
 10
0.0
 20
0.0
 30
0.0
 70
     1
  0
VERTEX
  5
268
  8
LAYER_1
 10
108.1938923079628
 20
94.01464048188073
 30
0.0
  0
VERTEX
  5
269
  8
LAYER_1
 10
108.1938892461902
 20
108.1928526949983
 30
0.0
  0
VERTEX
  5
26A
  8
LAYER_1
 10
94.0156770330727
 20
108.1928557567707
 30
0.0
  0
VERTEX
  5
26B
  8
LAYER_1
 10
86.79382833027526
 20
100.9710410539486
 30
0.0
  0
VERTEX
  5
26C
  8
LAYER_1
 10
56.43158380775928
 20
70.60879653143269
 30
0.0
  0
VERTEX
  5
26D
  8
LAYER_1
 10
26.06933928524334
 20
40.24655200891677
 30
0.0
  0
VERTEX
  5
26E
  8
LAYER_1
 10
26.06934234701588
 20
26.06833979579918
 30
0.0
  0
VERTEX
  5
26F
  8
LAYER_1
 10
40.24755456013341
 20
26.06833673402669
 30
0.0
  0
VERTEX
  5
270
  8
LAYER_1
 10
70.60979908264933
 20
56.43058125654262
 30
0.0
  0
VERTEX
  5
271
  8
LAYER_1
 10
100.9720436051653
 20
86.79282577905853
 30
0.0
  0
SEQEND
  5
272
  8
LAYER_1
  0
POLYLINE
  5
81
  8
LAYER_1
 66
     1
 10
0.0
 20
0.0
 30
0.0
 70
     1
  0
VERTEX
  5
273
  8
LAYER_1
 10
176.6792094161344
 20
108.1928897567461
 30
0.0
  0
VERTEX
  5
274
  8
LAYER_1
 10
162.5009972030169
 20
108.1928866949736
 30
0.0
  0
VERTEX
  5
275
  8
LAYER_1
 10
162.5009941412445
 20
94.01467448185609
 30
0.0
  0
VERTEX
  5
276
  8
LAYER_1
 10
169.7228088440666
 20
86.79282577905862
 30
0.0
  0
VERTEX
  5
277
  8
LAYER_1
 10
200.0850533665825
 20
56.43058125654262
 30
0.0
  0
VERTEX
  5
278
  8
LAYER_1
 10
230.4472978890985
 20
26.06833673402669
 30
0.0
  0
VERTEX
  5
279
  8
LAYER_1
 10
244.6255101022161
 20
26.06833979579918
 30
0.0
  0
VERTEX
  5
27A
  8
LAYER_1
 10
244.6255131639885
 20
40.24655200891677
 30
0.0
  0
VERTEX
  5
27B
  8
LAYER_1
 10
214.2632686414726
 20
70.60879653143269
 30
0.0
  0
VERTEX
  5
27C
  8
LAYER_1
 10
183.9010241189567
 20
100.9710410539487
 30
0.0
  0
SEQEND
  5
27D
  8
LAYER_1
  0
POLYLINE
  5
82
  8
LAYER_1
 66
     1
 10
0.0
 20
0.0
 30
0.0
 70
     1
  0
VERTEX
  5
27E
  8
LAYER_1
 10
162.5009601412691
 20
176.6782068649178
 30
0.0
  0
VERTEX
  5
27F
  8
LAYER_1
 10
162.5009632030416
 20
162.4999946518002
 30
0.0
  0
VERTEX
  5
280
  8
LAYER_1
 10
176.6791754161592
 20
162.4999915900278
 30
0.0
  0
VERTEX
  5
281
  8
LAYER_1
 10
183.9010241189566
 20
169.72180629285
 30
0.0
  0
VERTEX
  5
282
  8
LAYER_1
 10
214.2632686414726
 20
200.0840508153658
 30
0.0
  0
VERTEX
  5
283
  8
LAYER_1
 10
244.6255131639885
 20
230.4462953378818
 30
0.0
  0
VERTEX
  5
284
  8
LAYER_1
 10
244.6255101022159
 20
244.6245075509994
 30
0.0
  0
VERTEX
  5
285
  8
LAYER_1
 10
230.4472978890984
 20
244.6245106127718
 30
0.0
  0
VERTEX
  5
286
  8
LAYER_1
 10
200.0850533665825
 20
214.2622660902559
 30
0.0
  0
VERTEX
  5
287
  8
LAYER_1
 10
169.7228088440665
 20
183.90002156774
 30
0.0
  0
SEQEND
  5
288
  8
LAYER_1
  0
POLYLINE
  5
83
  8
LAYER_1
 66
     1
 10
0.0
 20
0.0
 30
0.0
 70
     1
  0
VERTEX
  5
289
  8
LAYER_1
 10
94.01564303309743
 20
162.4999575900525
 30
0.0
  0
VERTEX
  5
28A
  8
LAYER_1
 10
108.193855246215
 20
162.4999606518249
 30
0.0
  0
VERTEX
  5
28B
  8
LAYER_1
 10
108.1938583079874
 20
176.6781728649425
 30
0.0
  0
VERTEX
  5
28C
  8
LAYER_1
 10
100.9720436051653
 20
183.90002156774
 30
0.0
  0
VERTEX
  5
28D
  8
LAYER_1
 10
70.60979908264936
 20
214.2622660902559
 30
0.0
  0
VERTEX
  5
28E
  8
LAYER_1
 10
40.24755456013341
 20
244.6245106127719
 30
0.0
  0
VERTEX
  5
28F
  8
LAYER_1
 10
26.06934234701585
 20
244.6245075509994
 30
0.0
  0
VERTEX
  5
290
  8
LAYER_1
 10
26.0693392852434
 20
230.4462953378818
 30
0.0
  0
VERTEX
  5
291
  8
LAYER_1
 10
56.43158380775928
 20
200.0840508153659
 30
0.0
  0
VERTEX
  5
292
  8
LAYER_1
 10
86.79382833027523
 20
169.7218062928499
 30
0.0
  0
SEQEND
  5
293
  8
LAYER_1
  0
POLYLINE
  5
84
  8
LAYER_1
 66
     1
 10
0.0
 20
0.0
 30
0.0
 70
     1
  0
VERTEX
  5
294
  8
LAYER_1
 10
214.2186876080782
 20
145.3719358393967
 30
0.0
  0
VERTEX
  5
295
  8
LAYER_1
 10
244.6255131639884
 20
145.3719358393968
 30
0.0
  0
VERTEX
  5
296
  8
LAYER_1
 10
254.6510209999857
 20
135.3464236733993
 30
0.0
  0
VERTEX
  5
297
  8
LAYER_1
 10
244.6255131639884
 20
125.3209115074019
 30
0.0
  0
VERTEX
  5
298
  8
LAYER_1
 10
183.811862052168
 20
125.3209115074018
 30
0.0
  0
VERTEX
  5
299
  8
LAYER_1
 10
173.7863542161708
 20
135.3464236733993
 30
0.0
  0
VERTEX
  5
29A
  8
LAYER_1
 10
183.811862052168
 20
145.3719358393967
 30
0.0
  0
SEQEND
  5
29B
  8
LAYER_1
  0
POLYLINE
  5
85
  8
LAYER_1
 66
     1
 10
0.0
 20
0.0
 30
0.0
 70
     1
  0
VERTEX
  5
29C
  8
LAYER_1
 10
135.347426224616
 20
154.3386144425586
 30
0.0
  0
VERTEX
  5
29D
  8
LAYER_1
 10
148.4019322022685
 20
167.3880612845178
 30
0.0
  0
VERTEX
  5
29E
  8
LAYER_1
 10
148.4019322022685
 20
148.6307218150971
 30
0.0
  0
VERTEX
  5
29F
  8
LAYER_1
 10
166.8566369076339
 20
148.6307218150971
 30
0.0
  0
VERTEX
  5
2A0
  8
LAYER_1
 10
153.5931949717884
 20
135.3464236733993
 30
0.0
  0
VERTEX
  5
2A1
  8
LAYER_1
 10
166.8566369076339
 20
122.0621255317015
 30
0.0
  0
VERTEX
  5
2A2
  8
LAYER_1
 10
148.4019322022685
 20
122.0621255317015
 30
0.0
  0
VERTEX
  5
2A3
  8
LAYER_1
 10
148.4019322022685
 20
103.3047860622808
 30
0.0
  0
VERTEX
  5
2A4
  8
LAYER_1
 10
135.347426224616
 20
116.3542329042399
 30
0.0
  0
VERTEX
  5
2A5
  8
LAYER_1
 10
122.2929202469634
 20
103.3047860622808
 30
0.0
  0
VERTEX
  5
2A6
  8
LAYER_1
 10
122.2929202469634
 20
122.0621255317015
 30
0.0
  0
VERTEX
  5
2A7
  8
LAYER_1
 10
103.8382155415979
 20
122.0621255317015
 30
0.0
  0
VERTEX
  5
2A8
  8
LAYER_1
 10
117.1016574774434
 20
135.3464236733993
 30
0.0
  0
VERTEX
  5
2A9
  8
LAYER_1
 10
103.8382155415979
 20
148.6307218150971
 30
0.0
  0
VERTEX
  5
2AA
  8
LAYER_1
 10
122.2929202469634
 20
148.6307218150971
 30
0.0
  0
VERTEX
  5
2AB
  8
LAYER_1
 10
122.2929202469634
 20
167.3880612845178
 30
0.0
  0
SEQEND
  5
2AC
  8
LAYER_1
  0
POLYLINE
  5
86
  8
LAYER_1
 66
     1
 10
0.0
 20
0.0
 30
0.0
 70
     1
  0
VERTEX
  5
2AD
  8
LAYER_1
 10
151.3899011480496
 20
-0.0000000000000285
 30
0.0
  0
VERTEX
  5
2AE
  8
LAYER_1
 10
161.4154089840468
 20
10.02751726843064
 30
0.0
  0
VERTEX
  5
2AF
  8
LAYER_1
 10
191.8222345399569
 20
10.02751726843064
 30
0.0
  0
VERTEX
  5
2B0
  8
LAYER_1
 10
222.2290600958672
 20
10.02751726843064
 30
0.0
  0
VERTEX
  5
2B1
  8
LAYER_1
 10
232.2545679318644
 20
-0.0000000000000285
 30
0.0
  0
VERTEX
  5
2B2
  8
LAYER_1
 10
222.2290600958672
 20
-10.02751726843071
 30
0.0
  0
VERTEX
  5
2B3
  8
LAYER_1
 10
191.822234539957
 20
-10.02751726843066
 30
0.0
  0
VERTEX
  5
2B4
  8
LAYER_1
 10
161.4154089840468
 20
-10.02751726843068
 30
0.0
  0
SEQEND
  5
2B5
  8
LAYER_1
  0
POLYLINE
  5
87
  8
LAYER_1
 66
     1
 10
0.0
 20
0.0
 30
0.0
 70
     1
  0
VERTEX
  5
2B6
  8
LAYER_1
 10
0.0000000000000285
 20
151.3899010473716
 30
0.0
  0
VERTEX
  5
2B7
  8
LAYER_1
 10
0.0020051024332376
 20
151.388898596833
 30
0.0
  0
VERTEX
  5
2B8
  8
LAYER_1
 10
10.02851981964727
 20
161.4144064328302
 30
0.0
  0
VERTEX
  5
2B9
  8
LAYER_1
 10
10.02851981964733
 20
191.8212319887403
 30
0.0
  0
VERTEX
  5
2BA
  8
LAYER_1
 10
10.02851981964736
 20
222.2280575446506
 30
0.0
  0
VERTEX
  5
2BB
  8
LAYER_1
 10
0.0020051024332376
 20
232.2535653806478
 30
0.0
  0
VERTEX
  5
2BC
  8
LAYER_1
 10
0.0000000000000285
 20
232.2525629301093
 30
0.0
  0
VERTEX
  5
2BD
  8
LAYER_1
 10
-0.0020051024332376
 20
232.2535653806478
 30
0.0
  0
VERTEX
  5
2BE
  8
LAYER_1
 10
-10.0285198196473
 20
222.2280575446506
 30
0.0
  0
VERTEX
  5
2BF
  8
LAYER_1
 10
-10.02851981964727
 20
191.8212319887403
 30
0.0
  0
VERTEX
  5
2C0
  8
LAYER_1
 10
-10.02851981964725
 20
161.4144064328302
 30
0.0
  0
VERTEX
  5
2C1
  8
LAYER_1
 10
-0.0020051024332376
 20
151.388898596833
 30
0.0
  0
SEQEND
  5
2C2
  8
LAYER_1
  0
POLYLINE
  5
88
  8
LAYER_1
 66
     1
 10
0.0
 20
0.0
 30
0.0
 70
     1
  0
VERTEX
  5
2C3
  8
LAYER_1
 10
38.44028451736742
 20
-0.0000000000000285
 30
0.0
  0
VERTEX
  5
2C4
  8
LAYER_1
 10
48.46579235336468
 20
10.0275172684307
 30
0.0
  0
VERTEX
  5
2C5
  8
LAYER_1
 10
78.87261790927488
 20
10.02751726843064
 30
0.0
  0
VERTEX
  5
2C6
  8
LAYER_1
 10
109.2794434651851
 20
10.02751726843064
 30
0.0
  0
VERTEX
  5
2C7
  8
LAYER_1
 10
119.3049513011823
 20
-0.0000000000000285
 30
0.0
  0
VERTEX
  5
2C8
  8
LAYER_1
 10
109.2794434651851
 20
-10.02751726843066
 30
0.0
  0
VERTEX
  5
2C9
  8
LAYER_1
 10
78.87261790927488
 20
-10.02751726843066
 30
0.0
  0
VERTEX
  5
2CA
  8
LAYER_1
 10
48.46579235336468
 20
-10.02751726843074
 30
0.0
  0
SEQEND
  5
2CB
  8
LAYER_1
  0
POLYLINE
  5
89
  8
LAYER_1
 66
     1
 10
0.0
 20
0.0
 30
0.0
 70
     1
  0
VERTEX
  5
2CC
  8
LAYER_1
 10
0.0000000000000285
 20
38.44028441668929
 30
0.0
  0
VERTEX
  5
2CD
  8
LAYER_1
 10
0.0020051024331806
 20
38.43928196615084
 30
0.0
  0
VERTEX
  5
2CE
  8
LAYER_1
 10
10.02851981964727
 20
48.46478980214803
 30
0.0
  0
VERTEX
  5
2CF
  8
LAYER_1
 10
10.02851981964722
 20
78.87161535805824
 30
0.0
  0
VERTEX
  5
2D0
  8
LAYER_1
 10
10.02851981964727
 20
109.2784409139685
 30
0.0
  0
VERTEX
  5
2D1
  8
LAYER_1
 10
0.0020051024332376
 20
119.3039487499657
 30
0.0
  0
VERTEX
  5
2D2
  8
LAYER_1
 10
0.0000000000000285
 20
119.3029462994271
 30
0.0
  0
VERTEX
  5
2D3
  8
LAYER_1
 10
-0.0020051024332376
 20
119.3039487499657
 30
0.0
  0
VERTEX
  5
2D4
  8
LAYER_1
 10
-10.02851981964725
 20
109.2784409139685
 30
0.0
  0
VERTEX
  5
2D5
  8
LAYER_1
 10
-10.02851981964719
 20
78.87161535805824
 30
0.0
  0
VERTEX
  5
2D6
  8
LAYER_1
 10
-10.02851981964725
 20
48.46478980214803
 30
0.0
  0
VERTEX
  5
2D7
  8
LAYER_1
 10
-0.0020051024331806
 20
38.43928196615084
 30
0.0
  0
SEQEND
  5
2D8
  8
LAYER_1
  0
POLYLINE
  5
8A
  8
LAYER_1
 66
     1
 10
0.0
 20
0.0
 30
0.0
 70
     1
  0
VERTEX
  5
2D9
  8
LAYER_1
 10
0.0000000000000285
 20
18.99319332037595
 30
0.0
  0
VERTEX
  5
2DA
  8
LAYER_1
 10
-0.0020051024332091
 20
18.99319332037589
 30
0.0
  0
VERTEX
  5
2DB
  8
LAYER_1
 10
-13.05651108008574
 20
32.04264016233513
 30
0.0
  0
VERTEX
  5
2DC
  8
LAYER_1
 10
-13.05651108008574
 20
13.28530069291439
 30
0.0
  0
VERTEX
  5
2DD
  8
LAYER_1
 10
-31.51121578545117
 20
13.28530069291439
 30
0.0
  0
VERTEX
  5
2DE
  8
LAYER_1
 10
-18.24777384960573
 20
-0.0000000000000285
 30
0.0
  0
VERTEX
  5
2DF
  8
LAYER_1
 10
-31.51121578545117
 20
-13.28530069291443
 30
0.0
  0
VERTEX
  5
2E0
  8
LAYER_1
 10
-13.05651108008574
 20
-13.28530069291443
 30
0.0
  0
VERTEX
  5
2E1
  8
LAYER_1
 10
-13.05651108008574
 20
-32.04264016233513
 30
0.0
  0
VERTEX
  5
2E2
  8
LAYER_1
 10
-0.0020051024332091
 20
-18.99319332037596
 30
0.0
  0
VERTEX
  5
2E3
  8
LAYER_1
 10
0.0000000000000285
 20
-18.993193320376
 30
0.0
  0
VERTEX
  5
2E4
  8
LAYER_1
 10
0.0020051024332376
 20
-18.99319332037596
 30
0.0
  0
VERTEX
  5
2E5
  8
LAYER_1
 10
13.05651108008577
 20
-32.04264016233513
 30
0.0
  0
VERTEX
  5
2E6
  8
LAYER_1
 10
13.05651108008577
 20
-13.28530069291443
 30
0.0
  0
VERTEX
  5
2E7
  8
LAYER_1
 10
31.51121578545122
 20
-13.28530069291443
 30
0.0
  0
VERTEX
  5
2E8
  8
LAYER_1
 10
18.24777384960575
 20
-0.0000000000000285
 30
0.0
  0
VERTEX
  5
2E9
  8
LAYER_1
 10
31.5112157854512
 20
13.28530069291439
 30
0.0
  0
VERTEX
  5
2EA
  8
LAYER_1
 10
13.05651108008577
 20
13.28530069291439
 30
0.0
  0
VERTEX
  5
2EB
  8
LAYER_1
 10
13.05651108008577
 20
32.04264016233513
 30
0.0
  0
VERTEX
  5
2EC
  8
LAYER_1
 10
0.0020051024332376
 20
18.99319332037589
 30
0.0
  0
SEQEND
  5
2ED
  8
LAYER_1
  0
POLYLINE
  5
8B
  8
LAYER_1
 66
     1
 10
0.0
 20
0.0
 30
0.0
 70
     1
  0
VERTEX
  5
2EE
  8
LAYER_1
 10
0.0000000000000285
 20
-119.3029462994271
 30
0.0
  0
VERTEX
  5
2EF
  8
LAYER_1
 10
0.0020051024332376
 20
-119.3039487499657
 30
0.0
  0
VERTEX
  5
2F0
  8
LAYER_1
 10
10.02851981964727
 20
-109.2784409139685
 30
0.0
  0
VERTEX
  5
2F1
  8
LAYER_1
 10
10.02851981964725
 20
-78.8716153580583
 30
0.0
  0
VERTEX
  5
2F2
  8
LAYER_1
 10
10.02851981964727
 20
-48.46478980214807
 30
0.0
  0
VERTEX
  5
2F3
  8
LAYER_1
 10
0.0020051024331806
 20
-38.43928196615085
 30
0.0
  0
VERTEX
  5
2F4
  8
LAYER_1
 10
0.0000000000000285
 20
-38.44028441668931
 30
0.0
  0
VERTEX
  5
2F5
  8
LAYER_1
 10
-0.0020051024331806
 20
-38.43928196615085
 30
0.0
  0
VERTEX
  5
2F6
  8
LAYER_1
 10
-10.02851981964725
 20
-48.46478980214807
 30
0.0
  0
VERTEX
  5
2F7
  8
LAYER_1
 10
-10.02851981964719
 20
-78.8716153580583
 30
0.0
  0
VERTEX
  5
2F8
  8
LAYER_1
 10
-10.02851981964725
 20
-109.2784409139685
 30
0.0
  0
VERTEX
  5
2F9
  8
LAYER_1
 10
-0.0020051024332376
 20
-119.3039487499657
 30
0.0
  0
SEQEND
  5
2FA
  8
LAYER_1
  0
POLYLINE
  5
8C
  8
LAYER_1
 66
     1
 10
0.0
 20
0.0
 30
0.0
 70
     1
  0
VERTEX
  5
2FB
  8
LAYER_1
 10
-119.3049513011822
 20
-0.0000000000000285
 30
0.0
  0
VERTEX
  5
2FC
  8
LAYER_1
 10
-109.2794434651851
 20
10.02751726843064
 30
0.0
  0
VERTEX
  5
2FD
  8
LAYER_1
 10
-78.87261790927484
 20
10.02751726843064
 30
0.0
  0
VERTEX
  5
2FE
  8
LAYER_1
 10
-48.46579235336466
 20
10.0275172684307
 30
0.0
  0
VERTEX
  5
2FF
  8
LAYER_1
 10
-38.44028451736741
 20
-0.0000000000000285
 30
0.0
  0
VERTEX
  5
300
  8
LAYER_1
 10
-48.46579235336466
 20
-10.02751726843074
 30
0.0
  0
VERTEX
  5
301
  8
LAYER_1
 10
-78.87261790927484
 20
-10.02751726843066
 30
0.0
  0
VERTEX
  5
302
  8
LAYER_1
 10
-109.2794434651851
 20
-10.02751726843066
 30
0.0
  0
SEQEND
  5
303
  8
LAYER_1
  0
POLYLINE
  5
8D
  8
LAYER_1
 66
     1
 10
0.0
 20
0.0
 30
0.0
 70
     1
  0
VERTEX
  5
304
  8
LAYER_1
 10
0.0000000000000285
 20
-232.2525629301093
 30
0.0
  0
VERTEX
  5
305
  8
LAYER_1
 10
0.0020051024332376
 20
-232.2535653806478
 30
0.0
  0
VERTEX
  5
306
  8
LAYER_1
 10
10.02851981964736
 20
-222.2280575446506
 30
0.0
  0
VERTEX
  5
307
  8
LAYER_1
 10
10.02851981964733
 20
-191.8212319887404
 30
0.0
  0
VERTEX
  5
308
  8
LAYER_1
 10
10.02851981964727
 20
-161.4144064328302
 30
0.0
  0
VERTEX
  5
309
  8
LAYER_1
 10
0.0020051024332376
 20
-151.388898596833
 30
0.0
  0
VERTEX
  5
30A
  8
LAYER_1
 10
0.0000000000000285
 20
-151.3899010473716
 30
0.0
  0
VERTEX
  5
30B
  8
LAYER_1
 10
-0.0020051024332376
 20
-151.388898596833
 30
0.0
  0
VERTEX
  5
30C
  8
LAYER_1
 10
-10.02851981964725
 20
-161.4144064328302
 30
0.0
  0
VERTEX
  5
30D
  8
LAYER_1
 10
-10.02851981964727
 20
-191.8212319887404
 30
0.0
  0
VERTEX
  5
30E
  8
LAYER_1
 10
-10.0285198196473
 20
-222.2280575446506
 30
0.0
  0
VERTEX
  5
30F
  8
LAYER_1
 10
-0.0020051024332376
 20
-232.2535653806478
 30
0.0
  0
SEQEND
  5
310
  8
LAYER_1
  0
POLYLINE
  5
8E
  8
LAYER_1
 66
     1
 10
0.0
 20
0.0
 30
0.0
 70
     1
  0
VERTEX
  5
311
  8
LAYER_1
 10
-232.2545679318644
 20
-0.0000000000000285
 30
0.0
  0
VERTEX
  5
312
  8
LAYER_1
 10
-222.2290600958672
 20
10.02751726843064
 30
0.0
  0
VERTEX
  5
313
  8
LAYER_1
 10
-191.8222345399569
 20
10.02751726843064
 30
0.0
  0
VERTEX
  5
314
  8
LAYER_1
 10
-161.4154089840467
 20
10.02751726843064
 30
0.0
  0
VERTEX
  5
315
  8
LAYER_1
 10
-151.3899011480495
 20
-0.0000000000000285
 30
0.0
  0
VERTEX
  5
316
  8
LAYER_1
 10
-161.4154089840467
 20
-10.02751726843068
 30
0.0
  0
VERTEX
  5
317
  8
LAYER_1
 10
-191.8222345399569
 20
-10.02751726843066
 30
0.0
  0
VERTEX
  5
318
  8
LAYER_1
 10
-222.2290600958672
 20
-10.02751726843071
 30
0.0
  0
SEQEND
  5
319
  8
LAYER_1
  0
ENDSEC
  0
EOF
