  0
SECTION
  2
HEADER
  9
$ACADVER
  1
AC1015
  9
$ACADMAINTVER
 70
    20
  9
$DWGCODEPAGE
  3
ANSI_1252
  9
$INSBASE
 10
0.0
 20
0.0
 30
0.0
  9
$EXTMIN
 10
1053.965627415126
 20
-15.00244121998929
 30
-0.0015258207003583
  9
$EXTMAX
 10
1644.129177137303
 20
65.00244159251642
 30
0.0000000349246037
  9
$LIMMIN
 10
0.0
 20
0.0
  9
$LIMMAX
 10
12.0
 20
9.0
  9
$ORTHOMODE
 70
     0
  9
$REGENMODE
 70
     1
  9
$FILLMODE
 70
     1
  9
$QTEXTMODE
 70
     0
  9
$MIRRTEXT
 70
     1
  9
$LTSCALE
 40
1.0
  9
$ATTMODE
 70
     1
  9
$TEXTSIZE
 40
0.2
  9
$TRACEWID
 40
0.05
  9
$TEXTSTYLE
  7
STANDARD
  9
$CLAYER
  8
0
  9
$CELTYPE
  6
ByLayer
  9
$CECOLOR
 62
   256
  9
$CELTSCALE
 40
1.0
  9
$DISPSILH
 70
     0
  9
$DIMSCALE
 40
1.0
  9
$DIMASZ
 40
0.18
  9
$DIMEXO
 40
0.0625
  9
$DIMDLI
 40
0.38
  9
$DIMRND
 40
0.0
  9
$DIMDLE
 40
0.0
  9
$DIMEXE
 40
0.18
  9
$DIMTP
 40
0.0
  9
$DIMTM
 40
0.0
  9
$DIMTXT
 40
0.18
  9
$DIMCEN
 40
0.09
  9
$DIMTSZ
 40
0.0
  9
$DIMTOL
 70
     0
  9
$DIMLIM
 70
     0
  9
$DIMTIH
 70
     1
  9
$DIMTOH
 70
     1
  9
$DIMSE1
 70
     0
  9
$DIMSE2
 70
     0
  9
$DIMTAD
 70
     0
  9
$DIMZIN
 70
     0
  9
$DIMBLK
  1

  9
$DIMASO
 70
     1
  9
$DIMSHO
 70
     1
  9
$DIMPOST
  1

  9
$DIMAPOST
  1

  9
$DIMALT
 70
     0
  9
$DIMALTD
 70
     2
  9
$DIMALTF
 40
25.4
  9
$DIMLFAC
 40
1.0
  9
$DIMTOFL
 70
     0
  9
$DIMTVP
 40
0.0
  9
$DIMTIX
 70
     0
  9
$DIMSOXD
 70
     0
  9
$DIMSAH
 70
     0
  9
$DIMBLK1
  1

  9
$DIMBLK2
  1

  9
$DIMSTYLE
  2
STANDARD
  9
$DIMCLRD
 70
     0
  9
$DIMCLRE
 70
     0
  9
$DIMCLRT
 70
     0
  9
$DIMTFAC
 40
1.0
  9
$DIMGAP
 40
0.09
  9
$DIMJUST
 70
     0
  9
$DIMSD1
 70
     0
  9
$DIMSD2
 70
     0
  9
$DIMTOLJ
 70
     1
  9
$DIMTZIN
 70
     0
  9
$DIMALTZ
 70
     0
  9
$DIMALTTZ
 70
     0
  9
$DIMUPT
 70
     0
  9
$DIMDEC
 70
     4
  9
$DIMTDEC
 70
     4
  9
$DIMALTU
 70
     2
  9
$DIMALTTD
 70
     2
  9
$DIMTXSTY
  7
STANDARD
  9
$DIMAUNIT
 70
     0
  9
$DIMADEC
 70
     0
  9
$DIMALTRND
 40
0.0
  9
$DIMAZIN
 70
     0
  9
$DIMDSEP
 70
    46
  9
$DIMATFIT
 70
     3
  9
$DIMFRAC
 70
     0
  9
$DIMLDRBLK
  1

  9
$DIMLUNIT
 70
     2
  9
$DIMLWD
 70
    -2
  9
$DIMLWE
 70
    -2
  9
$DIMTMOVE
 70
     0
  9
$LUNITS
 70
     2
  9
$LUPREC
 70
     4
  9
$SKETCHINC
 40
0.1
  9
$FILLETRAD
 40
0.5
  9
$AUNITS
 70
     0
  9
$AUPREC
 70
     0
  9
$MENU
  1
.
  9
$ELEVATION
 40
0.0
  9
$PELEVATION
 40
0.0
  9
$THICKNESS
 40
0.0
  9
$LIMCHECK
 70
     0
  9
$CHAMFERA
 40
0.5
  9
$CHAMFERB
 40
0.5
  9
$CHAMFERC
 40
0.0
  9
$CHAMFERD
 40
0.0
  9
$SKPOLY
 70
     0
  9
$TDCREATE
 40
2454910.500000000
  9
$TDUCREATE
 40
2454910.458333334
  9
$TDUPDATE
 40
2457351.517038669
  9
$TDUUPDATE
 40
2457351.475372003
  9
$TDINDWG
 40
0.0003209259
  9
$TDUSRTIMER
 40
0.0003208102
  9
$USRTIMER
 70
     1
  9
$ANGBASE
 50
0.0
  9
$ANGDIR
 70
     0
  9
$PDMODE
 70
     0
  9
$PDSIZE
 40
0.0
  9
$PLINEWID
 40
0.0
  9
$SPLFRAME
 70
     0
  9
$SPLINETYPE
 70
     6
  9
$SPLINESEGS
 70
     8
  9
$HANDSEED
  5
1C0
  9
$SURFTAB1
 70
     6
  9
$SURFTAB2
 70
     6
  9
$SURFTYPE
 70
     6
  9
$SURFU
 70
     6
  9
$SURFV
 70
     6
  9
$UCSBASE
  2

  9
$UCSNAME
  2

  9
$UCSORG
 10
0.0
 20
0.0
 30
0.0
  9
$UCSXDIR
 10
1.0
 20
0.0
 30
0.0
  9
$UCSYDIR
 10
0.0
 20
1.0
 30
0.0
  9
$UCSORTHOREF
  2

  9
$UCSORTHOVIEW
 70
     0
  9
$UCSORGTOP
 10
0.0
 20
0.0
 30
0.0
  9
$UCSORGBOTTOM
 10
0.0
 20
0.0
 30
0.0
  9
$UCSORGLEFT
 10
0.0
 20
0.0
 30
0.0
  9
$UCSORGRIGHT
 10
0.0
 20
0.0
 30
0.0
  9
$UCSORGFRONT
 10
0.0
 20
0.0
 30
0.0
  9
$UCSORGBACK
 10
0.0
 20
0.0
 30
0.0
  9
$PUCSBASE
  2

  9
$PUCSNAME
  2

  9
$PUCSORG
 10
0.0
 20
0.0
 30
0.0
  9
$PUCSXDIR
 10
1.0
 20
0.0
 30
0.0
  9
$PUCSYDIR
 10
0.0
 20
1.0
 30
0.0
  9
$PUCSORTHOREF
  2

  9
$PUCSORTHOVIEW
 70
     0
  9
$PUCSORGTOP
 10
0.0
 20
0.0
 30
0.0
  9
$PUCSORGBOTTOM
 10
0.0
 20
0.0
 30
0.0
  9
$PUCSORGLEFT
 10
0.0
 20
0.0
 30
0.0
  9
$PUCSORGRIGHT
 10
0.0
 20
0.0
 30
0.0
  9
$PUCSORGFRONT
 10
0.0
 20
0.0
 30
0.0
  9
$PUCSORGBACK
 10
0.0
 20
0.0
 30
0.0
  9
$USERI1
 70
     0
  9
$USERI2
 70
     0
  9
$USERI3
 70
     0
  9
$USERI4
 70
     0
  9
$USERI5
 70
     0
  9
$USERR1
 40
0.0
  9
$USERR2
 40
0.0
  9
$USERR3
 40
0.0
  9
$USERR4
 40
0.0
  9
$USERR5
 40
0.0
  9
$WORLDVIEW
 70
     1
  9
$SHADEDGE
 70
     3
  9
$SHADEDIF
 70
    70
  9
$TILEMODE
 70
     1
  9
$MAXACTVP
 70
    64
  9
$PINSBASE
 10
0.0
 20
0.0
 30
0.0
  9
$PLIMCHECK
 70
     0
  9
$PEXTMIN
 10
1.000000000000000E+20
 20
1.000000000000000E+20
 30
1.000000000000000E+20
  9
$PEXTMAX
 10
-1.000000000000000E+20
 20
-1.000000000000000E+20
 30
-1.000000000000000E+20
  9
$PLIMMIN
 10
0.0
 20
0.0
  9
$PLIMMAX
 10
12.0
 20
9.0
  9
$UNITMODE
 70
     0
  9
$VISRETAIN
 70
     1
  9
$PLINEGEN
 70
     0
  9
$PSLTSCALE
 70
     1
  9
$TREEDEPTH
 70
  3020
  9
$CMLSTYLE
  2
Standard
  9
$CMLJUST
 70
     0
  9
$CMLSCALE
 40
1.0
  9
$PROXYGRAPHICS
 70
     1
  9
$MEASUREMENT
 70
     0
  9
$CELWEIGHT
370
    -1
  9
$ENDCAPS
280
     0
  9
$JOINSTYLE
280
     0
  9
$LWDISPLAY
290
     0
  9
$INSUNITS
 70
     0
  9
$HYPERLINKBASE
  1

  9
$STYLESHEET
  1

  9
$XEDIT
290
     1
  9
$CEPSNTYPE
380
     0
  9
$PSTYLEMODE
290
     1
  9
$FINGERPRINTGUID
  2
{4B097BDE-7132-45B8-9013-8B787387879C}
  9
$VERSIONGUID
  2
{C5B60249-2729-421C-9359-542E17A8FE89}
  9
$EXTNAMES
290
     1
  9
$PSVPSCALE
 40
0.0
  9
$OLESTARTUP
290
     0
  0
ENDSEC
  0
SECTION
  2
CLASSES
  0
CLASS
  1
ACDBDICTIONARYWDFLT
  2
AcDbDictionaryWithDefault
  3
ObjectDBX Classes
 90
        0
280
     0
281
     0
  0
CLASS
  1
MATERIAL
  2
AcDbMaterial
  3
ObjectDBX Classes
 90
     1153
280
     0
281
     0
  0
CLASS
  1
VISUALSTYLE
  2
AcDbVisualStyle
  3
ObjectDBX Classes
 90
     4095
280
     0
281
     0
  0
CLASS
  1
SCALE
  2
AcDbScale
  3
ObjectDBX Classes
 90
     1153
280
     0
281
     0
  0
CLASS
  1
TABLESTYLE
  2
AcDbTableStyle
  3
ObjectDBX Classes
 90
     4095
280
     0
281
     0
  0
CLASS
  1
MLEADERSTYLE
  2
AcDbMLeaderStyle
  3
ACDB_MLEADERSTYLE_CLASS
 90
     4095
280
     0
281
     0
  0
CLASS
  1
DICTIONARYVAR
  2
AcDbDictionaryVar
  3
ObjectDBX Classes
 90
        0
280
     0
281
     0
  0
CLASS
  1
CELLSTYLEMAP
  2
AcDbCellStyleMap
  3
ObjectDBX Classes
 90
     1152
280
     0
281
     0
  0
CLASS
  1
ACDBPLACEHOLDER
  2
AcDbPlaceHolder
  3
ObjectDBX Classes
 90
        0
280
     0
281
     0
  0
CLASS
  1
LAYOUT
  2
AcDbLayout
  3
ObjectDBX Classes
 90
        0
280
     0
281
     0
  0
ENDSEC
  0
SECTION
  2
TABLES
  0
TABLE
  2
VPORT
  5
130
330
0
100
AcDbSymbolTable
 70
     1
  0
VPORT
  5
1A0
330
130
100
AcDbSymbolTableRecord
100
AcDbViewportTableRecord
  2
*ACTIVE
 70
     0
 10
0.0
 20
0.0
 11
1.0
 21
1.0
 12
1310.616969529811
 22
17.48821458539157
 13
0.0
 23
0.0
 14
0.5
 24
0.5
 15
0.5
 25
0.5
 16
0.0
 26
0.0
 36
1.0
 17
0.0
 27
0.0
 37
0.0
 40
376.058774525997
 41
2.520958083832335
 42
50.0
 43
0.0
 44
0.0
 50
0.0
 51
0.0
 71
     0
 72
   100
 73
     1
 74
     3
 75
     0
 76
     0
 77
     0
 78
     0
281
     0
 65
     1
110
0.0
120
0.0
130
0.0
111
1.0
121
0.0
131
0.0
112
0.0
122
1.0
132
0.0
 79
     0
146
0.0
  0
ENDTAB
  0
TABLE
  2
LTYPE
  5
12D
330
0
100
AcDbSymbolTable
 70
     2
  0
LTYPE
  5
18A
330
12D
100
AcDbSymbolTableRecord
100
AcDbLinetypeTableRecord
  2
ByBlock
 70
     0
  3

 72
    65
 73
     0
 40
0.0
  0
LTYPE
  5
18B
330
12D
100
AcDbSymbolTableRecord
100
AcDbLinetypeTableRecord
  2
ByLayer
 70
     0
  3

 72
    65
 73
     0
 40
0.0
  0
LTYPE
  5
18C
330
12D
100
AcDbSymbolTableRecord
100
AcDbLinetypeTableRecord
  2
CONTINUOUS
 70
     0
  3
Solid line
 72
    65
 73
     0
 40
0.0
  0
LTYPE
  5
1A1
330
12D
100
AcDbSymbolTableRecord
100
AcDbLinetypeTableRecord
  2
CONTINUOUS2
 70
     0
  3
Solid Line
 72
    65
 73
     0
 40
0.0
  0
ENDTAB
  0
TABLE
  2
LAYER
  5
12A
330
0
100
AcDbSymbolTable
 70
     2
  0
LAYER
  5
184
102
{ACAD_XDICTIONARY
360
1A9
102
}
330
12A
100
AcDbSymbolTableRecord
100
AcDbLayerTableRecord
  2
0
 70
     0
 62
     7
  6
CONTINUOUS
370
    -3
390
137
  0
LAYER
  5
1A2
102
{ACAD_XDICTIONARY
360
1AB
102
}
330
12A
100
AcDbSymbolTableRecord
100
AcDbLayerTableRecord
  2
LAYER_1
 70
     0
 62
    18
  6
CONTINUOUS
370
    -3
390
137
  0
ENDTAB
  0
TABLE
  2
STYLE
  5
12B
330
0
100
AcDbSymbolTable
 70
     2
  0
STYLE
  5
185
330
12B
100
AcDbSymbolTableRecord
100
AcDbTextStyleTableRecord
  2
STANDARD
 70
     0
 40
0.0
 41
1.0
 50
0.0
 71
     0
 42
0.2
  3
txt
  4

  0
STYLE
  5
189
330
12B
100
AcDbSymbolTableRecord
100
AcDbTextStyleTableRecord
  2
Annotative
 70
     0
 40
0.0
 41
1.0
 50
0.0
 71
     0
 42
0.2
  3
txt
  4

1001
AcadAnnotative
1000
AnnotativeData
1002
{
1070
     1
1070
     1
1002
}
  0
ENDTAB
  0
TABLE
  2
VIEW
  5
12E
330
0
100
AcDbSymbolTable
 70
     0
  0
ENDTAB
  0
TABLE
  2
UCS
  5
12F
330
0
100
AcDbSymbolTable
 70
     0
  0
ENDTAB
  0
TABLE
  2
APPID
  5
131
330
0
100
AcDbSymbolTable
 70
     3
  0
APPID
  5
186
330
131
100
AcDbSymbolTableRecord
100
AcDbRegAppTableRecord
  2
ACAD
 70
     0
  0
APPID
  5
18D
330
131
100
AcDbSymbolTableRecord
100
AcDbRegAppTableRecord
  2
AcadAnnotative
 70
     0
  0
APPID
  5
197
330
131
100
AcDbSymbolTableRecord
100
AcDbRegAppTableRecord
  2
ACAD_MLEADERVER
 70
     0
  0
ENDTAB
  0
TABLE
  2
DIMSTYLE
  5
132
330
0
100
AcDbSymbolTable
 70
     2
100
AcDbDimStyleTable
 71
     0
  0
DIMSTYLE
105
187
330
132
100
AcDbSymbolTableRecord
100
AcDbDimStyleTableRecord
  2
STANDARD
 70
     0
279
     2
340
185
  0
DIMSTYLE
105
188
330
132
100
AcDbSymbolTableRecord
100
AcDbDimStyleTableRecord
  2
Annotative
 70
     0
340
185
1001
AcadAnnotative
1000
AnnotativeData
1002
{
1070
     1
1070
     1
1002
}
  0
ENDTAB
  0
TABLE
  2
BLOCK_RECORD
  5
129
330
0
100
AcDbSymbolTable
 70
     2
  0
BLOCK_RECORD
  5
19C
330
129
100
AcDbSymbolTableRecord
100
AcDbBlockTableRecord
  2
*Model_Space
340
19F
  0
BLOCK_RECORD
  5
198
330
129
100
AcDbSymbolTableRecord
100
AcDbBlockTableRecord
  2
*Paper_Space
340
19B
  0
BLOCK_RECORD
  5
1A4
330
129
100
AcDbSymbolTableRecord
100
AcDbBlockTableRecord
  2
$MODEL_SPACE
340
0
  0
BLOCK_RECORD
  5
1A6
330
129
100
AcDbSymbolTableRecord
100
AcDbBlockTableRecord
  2
$PAPER_SPACE
340
0
  0
ENDTAB
  0
ENDSEC
  0
SECTION
  2
BLOCKS
  0
BLOCK
  5
19D
330
19C
100
AcDbEntity
  8
0
100
AcDbBlockBegin
  2
*Model_Space
 70
     0
 10
0.0
 20
0.0
 30
0.0
  3
*Model_Space
  1

  0
ENDBLK
  5
19E
330
19C
100
AcDbEntity
  8
0
100
AcDbBlockEnd
  0
BLOCK
  5
199
330
198
100
AcDbEntity
 67
     1
  8
0
100
AcDbBlockBegin
  2
*Paper_Space
 70
     0
 10
0.0
 20
0.0
 30
0.0
  3
*Paper_Space
  1

  0
ENDBLK
  5
19A
330
198
100
AcDbEntity
 67
     1
  8
0
100
AcDbBlockEnd
  0
BLOCK
  5
1A5
330
1A4
100
AcDbEntity
  8
0
100
AcDbBlockBegin
  2
$MODEL_SPACE
 70
     0
 10
0.0
 20
0.0
 30
0.0
  3
$MODEL_SPACE
  1

  0
ENDBLK
  5
21
330
1A4
100
AcDbEntity
  8
0
100
AcDbBlockEnd
  0
BLOCK
  5
1A7
330
1A6
100
AcDbEntity
  8
0
100
AcDbBlockBegin
  2
$PAPER_SPACE
 70
     0
 10
0.0
 20
0.0
 30
0.0
  3
$PAPER_SPACE
  1

  0
ENDBLK
  5
1D
330
1A6
100
AcDbEntity
  8
0
100
AcDbBlockEnd
  0
ENDSEC
  0
SECTION
  2
ENTITIES
  0
LWPOLYLINE
  5
41
330
19C
100
AcDbEntity
  8
LAYER_1
100
AcDbPolyline
 90
        4
 70
     1
 43
0.0
 10
1644.078999999999
 20
-15.00000000000095
 10
1054.079
 20
-15.00000000000095
 10
1054.079
 20
64.99999999999906
 10
1644.078999999999
 20
64.99999999999906
  0
LWPOLYLINE
  5
42
330
19C
100
AcDbEntity
  8
LAYER_1
100
AcDbPolyline
 90
        4
 70
     1
 43
0.0
 10
1624.078999999999
 20
47.68789538786173
 10
1599.637253648651
 20
47.68789538786173
 10
1599.637253648651
 20
54.99999999999906
 10
1624.078999999999
 20
54.99999999999906
  0
LWPOLYLINE
  5
43
330
19C
100
AcDbEntity
  8
LAYER_1
100
AcDbPolyline
 90
        4
 70
     1
 43
0.0
 10
1580.177543503066
 20
47.68789538786173
 10
1540.410429860085
 20
47.68789538786173
 10
1540.410429860085
 20
54.99999999999906
 10
1580.177543503066
 20
54.99999999999906
  0
LWPOLYLINE
  5
44
330
19C
100
AcDbEntity
  8
LAYER_1
100
AcDbPolyline
 90
        4
 70
     1
 43
0.0
 10
1520.950719714498
 20
47.68789538786173
 10
1481.183606071517
 20
47.68789538786173
 10
1481.183606071517
 20
54.99999999999906
 10
1520.950719714498
 20
54.99999999999906
  0
LWPOLYLINE
  5
45
330
19C
100
AcDbEntity
  8
LAYER_1
100
AcDbPolyline
 90
        4
 70
     1
 43
0.0
 10
1461.723895925931
 20
47.68789538786173
 10
1421.95678228295
 20
47.68789538786173
 10
1421.95678228295
 20
54.99999999999906
 10
1461.723895925931
 20
54.99999999999906
  0
LWPOLYLINE
  5
46
330
19C
100
AcDbEntity
  8
LAYER_1
100
AcDbPolyline
 90
        4
 70
     1
 43
0.0
 10
1402.497072137364
 20
47.68789538786173
 10
1362.729958494383
 20
47.6878953878614
 10
1362.729958494383
 20
54.99999999999906
 10
1402.497072137364
 20
54.99999999999906
  0
LWPOLYLINE
  5
47
330
19C
100
AcDbEntity
  8
LAYER_1
100
AcDbPolyline
 90
        4
 70
     1
 43
0.0
 10
1343.270248348797
 20
47.6878953878614
 10
1303.503134705816
 20
47.6878953878614
 10
1303.503134705816
 20
54.99999999999906
 10
1343.270248348797
 20
54.99999999999906
  0
LWPOLYLINE
  5
48
330
19C
100
AcDbEntity
  8
LAYER_1
100
AcDbPolyline
 90
        4
 70
     1
 43
0.0
 10
1284.04342456023
 20
47.6878953878614
 10
1244.276310917249
 20
47.6878953878614
 10
1244.276310917249
 20
54.99999999999906
 10
1284.04342456023
 20
54.99999999999906
  0
LWPOLYLINE
  5
49
330
19C
100
AcDbEntity
  8
LAYER_1
100
AcDbPolyline
 90
        4
 70
     1
 43
0.0
 10
1224.816600771662
 20
47.6878953878614
 10
1185.049487128681
 20
47.6878953878614
 10
1185.049487128681
 20
54.99999999999906
 10
1224.816600771662
 20
54.99999999999906
  0
LWPOLYLINE
  5
4A
330
19C
100
AcDbEntity
  8
LAYER_1
100
AcDbPolyline
 90
        4
 70
     1
 43
0.0
 10
1165.589776983095
 20
47.6878953878614
 10
1125.822663340114
 20
47.68789538786129
 10
1125.822663340114
 20
54.99999999999906
 10
1165.589776983095
 20
54.99999999999906
  0
LWPOLYLINE
  5
4B
330
19C
100
AcDbEntity
  8
LAYER_1
100
AcDbPolyline
 90
        4
 70
     1
 43
0.0
 10
1106.362953194529
 20
47.68789538786129
 10
1074.078999999999
 20
47.68789538786129
 10
1074.078999999999
 20
54.99999999999906
 10
1106.362953194529
 20
54.99999999999906
  0
LWPOLYLINE
  5
4C
330
19C
100
AcDbEntity
  8
LAYER_1
100
AcDbPolyline
 90
        5
 70
     1
 43
0.0
 10
1182.288438877681
 20
4.999999999999631
 10
1149.022107763483
 20
4.999999999999631
 10
1165.6517619275
 20
33.74231315264817
 10
1165.655273320582
 20
33.73927864698268
 10
1165.658784713664
 20
33.74231315264817
  0
LWPOLYLINE
  5
4D
330
19C
100
AcDbEntity
  8
LAYER_1
100
AcDbPolyline
 90
        6
 70
     1
 43
0.0
 10
1624.078999999999
 20
33.65066286282942
 10
1624.078999999999
 20
4.999999999999288
 10
1607.389296259121
 20
4.999999999999288
 10
1624.018950423136
 20
33.7423131526476
 10
1624.02246181622
 20
33.73927864698246
 10
1624.025973209302
 20
33.7423131526476
  0
LWPOLYLINE
  5
4E
330
19C
100
AcDbEntity
  8
LAYER_1
100
AcDbPolyline
 90
        5
 70
     1
 43
0.0
 10
1548.911174613229
 20
4.999999999999288
 10
1515.644843499031
 20
4.999999999999288
 10
1532.274497663047
 20
33.7423131526476
 10
1532.27800905613
 20
33.73927864698246
 10
1532.281520449213
 20
33.7423131526476
  0
LWPOLYLINE
  5
4F
330
19C
100
AcDbEntity
  8
LAYER_1
100
AcDbPolyline
 90
        5
 70
     1
 43
0.0
 10
1457.167319577036
 20
4.999999999999061
 10
1423.900988462838
 20
4.999999999999061
 10
1440.530642626855
 20
33.7423131526476
 10
1440.534154019937
 20
33.73927864698223
 10
1440.53766541302
 20
33.7423131526476
  0
LWPOLYLINE
  5
50
330
19C
100
AcDbEntity
  8
LAYER_1
100
AcDbPolyline
 90
        5
 70
     1
 43
0.0
 10
1365.422866816947
 20
4.999999999999061
 10
1332.156535702748
 20
4.999999999999061
 10
1348.786189866765
 20
33.7423131526476
 10
1348.789701259848
 20
33.73927864698223
 10
1348.79321265293
 20
33.7423131526476
  0
LWPOLYLINE
  5
51
330
19C
100
AcDbEntity
  8
LAYER_1
100
AcDbPolyline
 90
        5
 70
     1
 43
0.0
 10
1246.217894369717
 20
33.74231315264839
 10
1229.461186883405
 20
5.000000000000425
 10
1227.747046464656
 20
4.999999999999631
 10
1221.038439058188
 20
5.002389939892481
 10
1237.767958262558
 20
33.74231315264943
  0
LWPOLYLINE
  5
52
330
19C
100
AcDbEntity
  8
LAYER_1
100
AcDbPolyline
 90
        3
 70
     1
 43
0.0
 10
1211.527499700626
 20
4.999999999999631
 10
1194.89608984007
 20
33.74231315264817
 10
1228.158909561183
 20
33.74231315264817
  0
LWPOLYLINE
  5
53
330
19C
100
AcDbEntity
  8
LAYER_1
100
AcDbPolyline
 90
        5
 70
     1
 43
0.0
 10
1202.016560343064
 20
5.002389939892481
 10
1195.307952936597
 20
4.999999999999631
 10
1193.593812517848
 20
5.000000000000425
 10
1176.837105031535
 20
33.74231315264817
 10
1185.287041138694
 20
33.74231315264839
  0
LWPOLYLINE
  5
54
330
19C
100
AcDbEntity
  8
LAYER_1
100
AcDbPolyline
 90
        5
 70
     1
 43
0.0
 10
1154.473441609628
 20
33.74231315264839
 10
1137.716734123316
 20
5.000000000000425
 10
1136.002593704566
 20
4.999999999999631
 10
1129.293986298099
 20
5.002389939892481
 10
1146.023505502469
 20
33.74231315264943
  0
LWPOLYLINE
  5
55
330
19C
100
AcDbEntity
  8
LAYER_1
100
AcDbPolyline
 90
        3
 70
     1
 43
0.0
 10
1119.783046940537
 20
4.999999999999631
 10
1103.15163707998
 20
33.74231315264817
 10
1136.414456801094
 20
33.74231315264817
  0
LWPOLYLINE
  5
56
330
19C
100
AcDbEntity
  8
LAYER_1
100
AcDbPolyline
 90
        5
 70
     1
 43
0.0
 10
1093.542588378605
 20
33.74231315264839
 10
1110.272107582975
 20
5.002389939892481
 10
1103.563500176508
 20
4.999999999999631
 10
1101.849359757758
 20
5.000000000000425
 10
1085.092652271446
 20
33.74231315264943
  0
LWPOLYLINE
  5
57
330
19C
100
AcDbEntity
  8
LAYER_1
100
AcDbPolyline
 90
        3
 70
     1
 43
0.0
 10
1090.543986117591
 20
4.999999999999631
 10
1074.078999999999
 20
4.999999999999631
 10
1074.078999999999
 20
33.457704674932
  0
LWPOLYLINE
  5
58
330
19C
100
AcDbEntity
  8
LAYER_1
100
AcDbPolyline
 90
        5
 70
     1
 43
0.0
 10
1612.840630105265
 20
33.74231315264612
 10
1596.083922618954
 20
4.999999999999857
 10
1594.369782200204
 20
4.999999999999288
 10
1587.661174793736
 20
5.002389939892253
 10
1604.390693998108
 20
33.74231315264885
  0
LWPOLYLINE
  5
59
330
19C
100
AcDbEntity
  8
LAYER_1
100
AcDbPolyline
 90
        3
 70
     1
 43
0.0
 10
1578.150235436175
 20
4.999999999999288
 10
1561.518825575618
 20
33.7423131526476
 10
1594.781645296731
 20
33.7423131526476
  0
LWPOLYLINE
  5
5A
330
19C
100
AcDbEntity
  8
LAYER_1
100
AcDbPolyline
 90
        5
 70
     1
 43
0.0
 10
1568.639296078612
 20
5.002389939892253
 10
1561.930688672144
 20
4.999999999999288
 10
1560.216548253396
 20
4.999999999999857
 10
1543.459840767084
 20
33.74231315264885
 10
1551.909776874242
 20
33.74231315264885
  0
LWPOLYLINE
  5
5B
330
19C
100
AcDbEntity
  8
LAYER_1
100
AcDbPolyline
 90
        5
 70
     1
 43
0.0
 10
1521.096177345176
 20
33.7423131526476
 10
1504.339469858864
 20
4.999999999999857
 10
1502.625329440114
 20
4.999999999999288
 10
1495.916722033647
 20
5.002389939892253
 10
1512.646241238016
 20
33.74231315264828
  0
LWPOLYLINE
  5
5C
330
19C
100
AcDbEntity
  8
LAYER_1
100
AcDbPolyline
 90
        3
 70
     1
 43
0.0
 10
1486.406081538033
 20
4.999999999999061
 10
1469.774970539425
 20
33.7423131526476
 10
1503.037192536642
 20
33.7423131526476
  0
LWPOLYLINE
  5
5D
330
19C
100
AcDbEntity
  8
LAYER_1
100
AcDbPolyline
 90
        5
 70
     1
 43
0.0
 10
1476.895441042421
 20
5.002389939892253
 10
1470.186833635952
 20
4.999999999999061
 10
1468.472693217203
 20
4.999999999999857
 10
1451.715985730887
 20
33.74231315264817
 10
1460.165921838051
 20
33.74231315264873
  0
LWPOLYLINE
  5
5E
330
19C
100
AcDbEntity
  8
LAYER_1
100
AcDbPolyline
 90
        5
 70
     1
 43
0.0
 10
1412.595614822672
 20
4.999999999999857
 10
1410.881474403922
 20
4.999999999999061
 10
1404.172866997454
 20
5.002389939892253
 10
1420.902386201824
 20
33.74231315264817
 10
1429.352322308982
 20
33.74231315264873
  0
LWPOLYLINE
  5
5F
330
19C
100
AcDbEntity
  8
LAYER_1
100
AcDbPolyline
 90
        3
 70
     1
 43
0.0
 10
1394.661927639892
 20
4.999999999999061
 10
1378.030517779335
 20
33.7423131526476
 10
1411.29333750045
 20
33.7423131526476
  0
LWPOLYLINE
  5
60
330
19C
100
AcDbEntity
  8
LAYER_1
100
AcDbPolyline
 90
        5
 70
     1
 43
0.0
 10
1385.15098828233
 20
5.002389939892253
 10
1378.442380875862
 20
4.999999999999061
 10
1376.728240457113
 20
4.999999999999857
 10
1359.971532970802
 20
33.74231315264817
 10
1368.421469077961
 20
33.74231315264873
  0
LWPOLYLINE
  5
61
330
19C
100
AcDbEntity
  8
LAYER_1
100
AcDbPolyline
 90
        5
 70
     1
 43
0.0
 10
1337.607869548893
 20
33.7423131526476
 10
1320.851162062582
 20
4.999999999999857
 10
1319.137021643833
 20
4.999999999999061
 10
1312.428414237364
 20
5.002389939892253
 10
1329.157933441735
 20
33.74231315264817
  0
LWPOLYLINE
  5
62
330
19C
100
AcDbEntity
  8
LAYER_1
100
AcDbPolyline
 90
        3
 70
     1
 43
0.0
 10
1302.917474879802
 20
4.999999999999061
 10
1286.286065019246
 20
33.7423131526476
 10
1319.54888474036
 20
33.7423131526476
  0
LWPOLYLINE
  5
63
330
19C
100
AcDbEntity
  8
LAYER_1
100
AcDbPolyline
 90
        5
 70
     1
 43
0.0
 10
1293.406535522241
 20
5.002389939892253
 10
1286.697928115773
 20
4.999999999999061
 10
1284.983787697024
 20
4.999999999999857
 10
1268.227080210713
 20
33.74231315264817
 10
1276.677016317872
 20
33.74231315264873
  0
LWPOLYLINE
  5
64
330
19C
100
AcDbEntity
  8
LAYER_1
100
AcDbPolyline
 90
        4
 70
     1
 43
0.0
 10
1273.678414056857
 20
4.999999999999061
 10
1257.222487290215
 20
4.999999999999061
 10
1240.766560523572
 20
4.999999999999631
 10
1257.222487290215
 20
33.43948754323819
  0
ENDSEC
  0
SECTION
  2
OBJECTS
  0
DICTIONARY
  5
134
330
0
100
AcDbDictionary
281
     1
  3
ACAD_COLOR
350
192
  3
ACAD_GROUP
350
135
  3
ACAD_LAYOUT
350
191
  3
ACAD_MATERIAL
350
138
  3
ACAD_MLEADERSTYLE
350
195
  3
ACAD_MLINESTYLE
350
18E
  3
ACAD_PLOTSETTINGS
350
190
  3
ACAD_PLOTSTYLENAME
350
136
  3
ACAD_SCALELIST
350
162
  3
ACAD_TABLESTYLE
350
193
  3
ACAD_VISUALSTYLE
350
151
  3
ACDB_RECOMPOSE_DATA
350
1B6
  3
AcDbVariableDictionary
350
1AD
  3
DWGPROPS
350
1B7
  0
DICTIONARY
  5
1A9
330
184
100
AcDbDictionary
280
     1
281
     1
  3
ADSK_XREC_LAYER_RECONCILED
360
1AA
  0
DICTIONARY
  5
1AB
330
1A2
100
AcDbDictionary
280
     1
281
     1
  3
ADSK_XREC_LAYER_RECONCILED
360
1AC
  0
DICTIONARY
  5
192
102
{ACAD_REACTORS
330
134
102
}
330
134
100
AcDbDictionary
281
     1
  0
DICTIONARY
  5
135
102
{ACAD_REACTORS
330
134
102
}
330
134
100
AcDbDictionary
281
     1
  0
DICTIONARY
  5
191
102
{ACAD_REACTORS
330
134
102
}
330
134
100
AcDbDictionary
281
     1
  3
Model
350
19F
  3
Présentation1
350
19B
  0
DICTIONARY
  5
138
102
{ACAD_REACTORS
330
134
102
}
330
134
100
AcDbDictionary
281
     1
  3
ByBlock
350
141
  3
ByLayer
350
139
  3
Global
350
149
  0
DICTIONARY
  5
195
102
{ACAD_REACTORS
330
134
102
}
330
134
100
AcDbDictionary
281
     1
  3
Standard
350
196
  0
DICTIONARY
  5
18E
102
{ACAD_REACTORS
330
134
102
}
330
134
100
AcDbDictionary
281
     1
  3
Standard
350
18F
  0
DICTIONARY
  5
190
102
{ACAD_REACTORS
330
134
102
}
330
134
100
AcDbDictionary
281
     1
  0
ACDBDICTIONARYWDFLT
  5
136
102
{ACAD_REACTORS
330
134
102
}
330
134
100
AcDbDictionary
281
     1
  3
Normal
350
137
100
AcDbDictionaryWithDefault
340
137
  0
DICTIONARY
  5
162
102
{ACAD_REACTORS
330
134
102
}
330
134
100
AcDbDictionary
281
     1
  3
A0
350
163
  3
A1
350
164
  3
A2
350
165
  3
A3
350
166
  3
A4
350
167
  3
A5
350
168
  3
A6
350
169
  3
A7
350
16A
  3
A8
350
16B
  3
A9
350
16C
  3
B0
350
16D
  3
B1
350
16E
  3
B2
350
16F
  3
B3
350
170
  3
B4
350
171
  3
B5
350
172
  3
B6
350
173
  3
B7
350
174
  3
B8
350
175
  3
B9
350
176
  3
C0
350
177
  3
C1
350
178
  3
C2
350
179
  3
C3
350
17A
  3
C4
350
17B
  3
C5
350
17C
  3
C6
350
17D
  3
C7
350
17E
  3
C8
350
17F
  3
C9
350
180
  3
D0
350
181
  3
D1
350
182
  3
D2
350
183
  0
DICTIONARY
  5
193
102
{ACAD_REACTORS
330
134
102
}
330
134
100
AcDbDictionary
281
     1
  3
Standard
350
194
  0
DICTIONARY
  5
151
102
{ACAD_REACTORS
330
134
102
}
330
134
100
AcDbDictionary
281
     1
  3
2dWireframe
350
157
  3
3D Hidden
350
159
  3
3dWireframe
350
158
  3
Basic
350
156
  3
Brighten
350
15D
  3
ColorChange
350
161
  3
Conceptual
350
15A
  3
Dim
350
15C
  3
Facepattern
350
160
  3
Flat
350
152
  3
FlatWithEdges
350
153
  3
Gouraud
350
154
  3
GouraudWithEdges
350
155
  3
Linepattern
350
15F
  3
Realistic
350
15B
  3
Thicken
350
15E
  0
XRECORD
  5
1B6
102
{ACAD_REACTORS
330
134
102
}
330
134
100
AcDbXrecord
280
     1
 90
        1
330
194
  0
DICTIONARY
  5
1AD
102
{ACAD_REACTORS
330
134
102
}
330
134
100
AcDbDictionary
281
     1
  3
CANNOSCALE
350
1B0
  3
CMLEADERSTYLE
350
1AF
  3
CTABLESTYLE
350
1AE
  3
DIMASSOC
350
1B3
  3
INDEXCTL
350
1B2
  3
SORTENTS
350
1B1
  0
XRECORD
  5
1B7
102
{ACAD_REACTORS
330
134
102
}
330
134
100
AcDbXrecord
280
     1
  1
DWGPROPS COOKIE
  2

  3

  4

  6

  7

  8
user
  9

300
=
301
=
302
=
303
=
304
=
305
=
306
=
307
=
308
=
309
=
 40
0.0003209259259259
 41
2454910.5
 42
2457351.517038669
  1

 90
        0
  0
XRECORD
  5
1AA
102
{ACAD_REACTORS
330
1A9
102
}
330
1A9
100
AcDbXrecord
280
     1
290
     1
  0
XRECORD
  5
1AC
102
{ACAD_REACTORS
330
1AB
102
}
330
1AB
100
AcDbXrecord
280
     1
290
     1
  0
LAYOUT
  5
19F
102
{ACAD_XDICTIONARY
360
1BE
102
}
102
{ACAD_REACTORS
330
191
102
}
330
191
100
AcDbPlotSettings
  1

  2
CutePDF Writer
  4

  6

 40
0.0
 41
0.0
 42
0.0
 43
0.0
 44
0.0
 45
0.0
 46
0.0
 47
0.0
 48
0.0
 49
0.0
140
0.0
141
0.0
142
1.0
143
1.0
 70
  1712
 72
     0
 73
     0
 74
     0
  7

 75
     0
147
1.0
148
0.0
149
0.0
100
AcDbLayout
  1
Model
 70
     1
 71
     0
 10
0.0
 20
0.0
 11
12.0
 21
9.0
 12
0.0
 22
0.0
 32
0.0
 14
0.0
 24
0.0
 34
0.0
 15
0.0
 25
0.0
 35
0.0
146
0.0
 13
0.0
 23
0.0
 33
0.0
 16
1.0
 26
0.0
 36
0.0
 17
0.0
 27
1.0
 37
0.0
 76
     0
330
19C
331
1A0
  0
LAYOUT
  5
19B
102
{ACAD_XDICTIONARY
360
1BC
102
}
102
{ACAD_REACTORS
330
191
102
}
330
191
100
AcDbPlotSettings
  1

  2
CutePDF Writer
  4

  6

 40
0.0
 41
0.0
 42
0.0
 43
0.0
 44
0.0
 45
0.0
 46
0.0
 47
0.0
 48
0.0
 49
0.0
140
0.0
141
0.0
142
1.0
143
1.0
 70
   688
 72
     0
 73
     0
 74
     5
  7

 75
    16
147
1.0
148
0.0
149
0.0
100
AcDbLayout
  1
Présentation1
 70
     1
 71
     1
 10
0.0
 20
0.0
 11
12.0
 21
9.0
 12
0.0
 22
0.0
 32
0.0
 14
1.000000000000000E+20
 24
1.000000000000000E+20
 34
1.000000000000000E+20
 15
-1.000000000000000E+20
 25
-1.000000000000000E+20
 35
-1.000000000000000E+20
146
0.0
 13
0.0
 23
0.0
 33
0.0
 16
1.0
 26
0.0
 36
0.0
 17
0.0
 27
1.0
 37
0.0
 76
     0
330
198
  0
MATERIAL
  5
141
102
{ACAD_XDICTIONARY
360
142
102
}
102
{ACAD_REACTORS
330
138
102
}
330
138
100
AcDbMaterial
  1
ByBlock
 72
     0
 43
0.0208333333333333
 43
0.0
 43
0.0
 43
0.0
 43
0.0
 43
0.0208333333333333
 43
0.0
 43
0.0
 43
0.0
 43
0.0
 43
1.0
 43
0.0
 43
0.0
 43
0.0
 43
0.0
 43
1.0
 77
     0
 47
0.0208333333333333
 47
0.0
 47
0.0
 47
0.0
 47
0.0
 47
0.0208333333333333
 47
0.0
 47
0.0
 47
0.0
 47
0.0
 47
1.0
 47
0.0
 47
0.0
 47
0.0
 47
0.0
 47
1.0
171
     0
 49
0.0208333333333333
 49
0.0
 49
0.0
 49
0.0
 49
0.0
 49
0.0208333333333333
 49
0.0
 49
0.0
 49
0.0
 49
0.0
 49
1.0
 49
0.0
 49
0.0
 49
0.0
 49
0.0
 49
1.0
175
     0
142
0.0208333333333333
142
0.0
142
0.0
142
0.0
142
0.0
142
0.0208333333333333
142
0.0
142
0.0
142
0.0
142
0.0
142
1.0
142
0.0
142
0.0
142
0.0
142
0.0
142
1.0
179
     0
144
0.0208333333333333
144
0.0
144
0.0
144
0.0
144
0.0
144
0.0208333333333333
144
0.0
144
0.0
144
0.0
144
0.0
144
1.0
144
0.0
144
0.0
144
0.0
144
0.0
144
1.0
147
0.0208333333333333
147
0.0
147
0.0
147
0.0
147
0.0
147
0.0208333333333333
147
0.0
147
0.0
147
0.0
147
0.0
147
1.0
147
0.0
147
0.0
147
0.0
147
0.0
147
1.0
  0
MATERIAL
  5
139
102
{ACAD_XDICTIONARY
360
13A
102
}
102
{ACAD_REACTORS
330
138
102
}
330
138
100
AcDbMaterial
  1
ByLayer
 72
     0
 43
0.0208333333333333
 43
0.0
 43
0.0
 43
0.0
 43
0.0
 43
0.0208333333333333
 43
0.0
 43
0.0
 43
0.0
 43
0.0
 43
1.0
 43
0.0
 43
0.0
 43
0.0
 43
0.0
 43
1.0
 77
     0
 47
0.0208333333333333
 47
0.0
 47
0.0
 47
0.0
 47
0.0
 47
0.0208333333333333
 47
0.0
 47
0.0
 47
0.0
 47
0.0
 47
1.0
 47
0.0
 47
0.0
 47
0.0
 47
0.0
 47
1.0
171
     0
 49
0.0208333333333333
 49
0.0
 49
0.0
 49
0.0
 49
0.0
 49
0.0208333333333333
 49
0.0
 49
0.0
 49
0.0
 49
0.0
 49
1.0
 49
0.0
 49
0.0
 49
0.0
 49
0.0
 49
1.0
175
     0
142
0.0208333333333333
142
0.0
142
0.0
142
0.0
142
0.0
142
0.0208333333333333
142
0.0
142
0.0
142
0.0
142
0.0
142
1.0
142
0.0
142
0.0
142
0.0
142
0.0
142
1.0
179
     0
144
0.0208333333333333
144
0.0
144
0.0
144
0.0
144
0.0
144
0.0208333333333333
144
0.0
144
0.0
144
0.0
144
0.0
144
1.0
144
0.0
144
0.0
144
0.0
144
0.0
144
1.0
147
0.0208333333333333
147
0.0
147
0.0
147
0.0
147
0.0
147
0.0208333333333333
147
0.0
147
0.0
147
0.0
147
0.0
147
1.0
147
0.0
147
0.0
147
0.0
147
0.0
147
1.0
  0
MATERIAL
  5
149
102
{ACAD_XDICTIONARY
360
14A
102
}
102
{ACAD_REACTORS
330
138
102
}
330
138
100
AcDbMaterial
  1
Global
 72
     0
 43
0.0208333333333333
 43
0.0
 43
0.0
 43
0.0
 43
0.0
 43
0.0208333333333333
 43
0.0
 43
0.0
 43
0.0
 43
0.0
 43
1.0
 43
0.0
 43
0.0
 43
0.0
 43
0.0
 43
1.0
 77
     0
 47
0.0208333333333333
 47
0.0
 47
0.0
 47
0.0
 47
0.0
 47
0.0208333333333333
 47
0.0
 47
0.0
 47
0.0
 47
0.0
 47
1.0
 47
0.0
 47
0.0
 47
0.0
 47
0.0
 47
1.0
171
     0
 49
0.0208333333333333
 49
0.0
 49
0.0
 49
0.0
 49
0.0
 49
0.0208333333333333
 49
0.0
 49
0.0
 49
0.0
 49
0.0
 49
1.0
 49
0.0
 49
0.0
 49
0.0
 49
0.0
 49
1.0
175
     0
142
0.0208333333333333
142
0.0
142
0.0
142
0.0
142
0.0
142
0.0208333333333333
142
0.0
142
0.0
142
0.0
142
0.0
142
1.0
142
0.0
142
0.0
142
0.0
142
0.0
142
1.0
179
     0
144
0.0208333333333333
144
0.0
144
0.0
144
0.0
144
0.0
144
0.0208333333333333
144
0.0
144
0.0
144
0.0
144
0.0
144
1.0
144
0.0
144
0.0
144
0.0
144
0.0
144
1.0
147
0.0208333333333333
147
0.0
147
0.0
147
0.0
147
0.0
147
0.0208333333333333
147
0.0
147
0.0
147
0.0
147
0.0
147
1.0
147
0.0
147
0.0
147
0.0
147
0.0
147
1.0
  0
MLEADERSTYLE
  5
196
102
{ACAD_REACTORS
330
195
102
}
330
195
100
AcDbMLeaderStyle
170
     2
171
     1
172
     0
 90
        2
 40
0.0
 41
0.0
173
     1
 91
-1056964608
340
18A
 92
       -2
290
     1
 42
0.09
291
     1
 43
0.36
  3
Standard
 44
0.18
300

342
185
174
     1
178
     6
175
     1
176
     0
 93
-1056964608
 45
0.18
292
     0
297
     0
 46
0.18
 94
-1056964608
 47
1.0
 49
1.0
140
1.0
293
     1
141
0.0
294
     1
177
     0
142
1.0
295
     0
296
     0
143
0.125
1001
ACAD_MLEADERVER
1070
     2
  0
MLINESTYLE
  5
18F
102
{ACAD_REACTORS
330
18E
102
}
330
18E
100
AcDbMlineStyle
  2
STANDARD
 70
     0
  3

 62
   256
 51
90.0
 52
90.0
 71
     2
 49
0.5
 62
   256
  6
BYLAYER
 49
-0.5
 62
   256
  6
BYLAYER
  0
ACDBPLACEHOLDER
  5
137
102
{ACAD_REACTORS
330
136
102
}
330
136
  0
SCALE
  5
163
102
{ACAD_REACTORS
330
162
102
}
330
162
100
AcDbScale
 70
     0
300
1:1
140
1.0
141
1.0
290
     1
  0
SCALE
  5
164
102
{ACAD_REACTORS
330
162
102
}
330
162
100
AcDbScale
 70
     0
300
1:2
140
1.0
141
2.0
290
     0
  0
SCALE
  5
165
102
{ACAD_REACTORS
330
162
102
}
330
162
100
AcDbScale
 70
     0
300
1:4
140
1.0
141
4.0
290
     0
  0
SCALE
  5
166
102
{ACAD_REACTORS
330
162
102
}
330
162
100
AcDbScale
 70
     0
300
1:5
140
1.0
141
5.0
290
     0
  0
SCALE
  5
167
102
{ACAD_REACTORS
330
162
102
}
330
162
100
AcDbScale
 70
     0
300
1:8
140
1.0
141
8.0
290
     0
  0
SCALE
  5
168
102
{ACAD_REACTORS
330
162
102
}
330
162
100
AcDbScale
 70
     0
300
1:10
140
1.0
141
10.0
290
     0
  0
SCALE
  5
169
102
{ACAD_REACTORS
330
162
102
}
330
162
100
AcDbScale
 70
     0
300
1:16
140
1.0
141
16.0
290
     0
  0
SCALE
  5
16A
102
{ACAD_REACTORS
330
162
102
}
330
162
100
AcDbScale
 70
     0
300
1:20
140
1.0
141
20.0
290
     0
  0
SCALE
  5
16B
102
{ACAD_REACTORS
330
162
102
}
330
162
100
AcDbScale
 70
     0
300
1:30
140
1.0
141
30.0
290
     0
  0
SCALE
  5
16C
102
{ACAD_REACTORS
330
162
102
}
330
162
100
AcDbScale
 70
     0
300
1:40
140
1.0
141
40.0
290
     0
  0
SCALE
  5
16D
102
{ACAD_REACTORS
330
162
102
}
330
162
100
AcDbScale
 70
     0
300
1:50
140
1.0
141
50.0
290
     0
  0
SCALE
  5
16E
102
{ACAD_REACTORS
330
162
102
}
330
162
100
AcDbScale
 70
     0
300
1:100
140
1.0
141
100.0
290
     0
  0
SCALE
  5
16F
102
{ACAD_REACTORS
330
162
102
}
330
162
100
AcDbScale
 70
     0
300
2:1
140
2.0
141
1.0
290
     0
  0
SCALE
  5
170
102
{ACAD_REACTORS
330
162
102
}
330
162
100
AcDbScale
 70
     0
300
4:1
140
4.0
141
1.0
290
     0
  0
SCALE
  5
171
102
{ACAD_REACTORS
330
162
102
}
330
162
100
AcDbScale
 70
     0
300
8:1
140
8.0
141
1.0
290
     0
  0
SCALE
  5
172
102
{ACAD_REACTORS
330
162
102
}
330
162
100
AcDbScale
 70
     0
300
10:1
140
10.0
141
1.0
290
     0
  0
SCALE
  5
173
102
{ACAD_REACTORS
330
162
102
}
330
162
100
AcDbScale
 70
     0
300
100:1
140
100.0
141
1.0
290
     0
  0
SCALE
  5
174
102
{ACAD_REACTORS
330
162
102
}
330
162
100
AcDbScale
 70
     0
300
1/128" = 1'-0"
140
0.0078125
141
12.0
290
     0
  0
SCALE
  5
175
102
{ACAD_REACTORS
330
162
102
}
330
162
100
AcDbScale
 70
     0
300
1/64" = 1'-0"
140
0.015625
141
12.0
290
     0
  0
SCALE
  5
176
102
{ACAD_REACTORS
330
162
102
}
330
162
100
AcDbScale
 70
     0
300
1/32" = 1'-0"
140
0.03125
141
12.0
290
     0
  0
SCALE
  5
177
102
{ACAD_REACTORS
330
162
102
}
330
162
100
AcDbScale
 70
     0
300
1/16" = 1'-0"
140
0.0625
141
12.0
290
     0
  0
SCALE
  5
178
102
{ACAD_REACTORS
330
162
102
}
330
162
100
AcDbScale
 70
     0
300
3/32" = 1'-0"
140
0.09375
141
12.0
290
     0
  0
SCALE
  5
179
102
{ACAD_REACTORS
330
162
102
}
330
162
100
AcDbScale
 70
     0
300
1/8" = 1'-0"
140
0.125
141
12.0
290
     0
  0
SCALE
  5
17A
102
{ACAD_REACTORS
330
162
102
}
330
162
100
AcDbScale
 70
     0
300
3/16" = 1'-0"
140
0.1875
141
12.0
290
     0
  0
SCALE
  5
17B
102
{ACAD_REACTORS
330
162
102
}
330
162
100
AcDbScale
 70
     0
300
1/4" = 1'-0"
140
0.25
141
12.0
290
     0
  0
SCALE
  5
17C
102
{ACAD_REACTORS
330
162
102
}
330
162
100
AcDbScale
 70
     0
300
3/8" = 1'-0"
140
0.375
141
12.0
290
     0
  0
SCALE
  5
17D
102
{ACAD_REACTORS
330
162
102
}
330
162
100
AcDbScale
 70
     0
300
1/2" = 1'-0"
140
0.5
141
12.0
290
     0
  0
SCALE
  5
17E
102
{ACAD_REACTORS
330
162
102
}
330
162
100
AcDbScale
 70
     0
300
3/4" = 1'-0"
140
0.75
141
12.0
290
     0
  0
SCALE
  5
17F
102
{ACAD_REACTORS
330
162
102
}
330
162
100
AcDbScale
 70
     0
300
1" = 1'-0"
140
1.0
141
12.0
290
     0
  0
SCALE
  5
180
102
{ACAD_REACTORS
330
162
102
}
330
162
100
AcDbScale
 70
     0
300
1-1/2" = 1'-0"
140
1.5
141
12.0
290
     0
  0
SCALE
  5
181
102
{ACAD_REACTORS
330
162
102
}
330
162
100
AcDbScale
 70
     0
300
3" = 1'-0"
140
3.0
141
12.0
290
     0
  0
SCALE
  5
182
102
{ACAD_REACTORS
330
162
102
}
330
162
100
AcDbScale
 70
     0
300
6" = 1'-0"
140
6.0
141
12.0
290
     0
  0
SCALE
  5
183
102
{ACAD_REACTORS
330
162
102
}
330
162
100
AcDbScale
 70
     0
300
1'-0" = 1'-0"
140
12.0
141
12.0
290
     0
  0
TABLESTYLE
  5
194
102
{ACAD_XDICTIONARY
360
1B4
102
}
102
{ACAD_REACTORS
330
193
102
}
330
193
100
AcDbTableStyle
  3
Standard
 70
     0
 71
     0
 40
0.06
 41
0.06
280
     0
281
     0
  7
STANDARD
140
0.18
170
     2
 62
     0
 63
     7
283
     0
274
    -2
284
     1
 64
     0
275
    -2
285
     1
 65
     0
276
    -2
286
     1
 66
     0
277
    -2
287
     1
 67
     0
278
    -2
288
     1
 68
     0
279
    -2
289
     1
 69
     0
  7
STANDARD
140
0.25
170
     5
 62
     0
 63
     7
283
     0
274
    -2
284
     1
 64
     0
275
    -2
285
     1
 65
     0
276
    -2
286
     1
 66
     0
277
    -2
287
     1
 67
     0
278
    -2
288
     1
 68
     0
279
    -2
289
     1
 69
     0
  7
STANDARD
140
0.18
170
     5
 62
     0
 63
     7
283
     0
274
    -2
284
     1
 64
     0
275
    -2
285
     1
 65
     0
276
    -2
286
     1
 66
     0
277
    -2
287
     1
 67
     0
278
    -2
288
     1
 68
     0
279
    -2
289
     1
 69
     0
  0
VISUALSTYLE
  5
157
102
{ACAD_REACTORS
330
151
102
}
330
151
100
AcDbVisualStyle
  2
2dWireframe
 70
     4
 71
     0
 72
     2
 73
     0
 90
        0
 40
-0.6
 41
-30.0
 62
     5
 63
     7
 74
     1
 91
        4
 64
     7
 65
   257
 75
     1
175
     1
 42
1.0
 92
        0
 66
   257
 43
1.0
 76
     1
 77
     6
 78
     2
 67
     7
 79
     5
170
     0
171
     0
290
     0
174
     0
 93
        1
 44
0.0
173
     0
291
     0
 45
0.0
1001
ACAD
1000
AcDbSavedByObjectVersion
1070
     0
  0
VISUALSTYLE
  5
159
102
{ACAD_REACTORS
330
151
102
}
330
151
100
AcDbVisualStyle
  2
3D Hidden
 70
     6
 71
     1
 72
     2
 73
     2
 90
        0
 40
-0.6
 41
-30.0
 62
     5
 63
     7
 74
     2
 91
        2
 64
     7
 65
   257
 75
     2
175
     1
 42
40.0
 92
        0
 66
   257
 43
1.0
 76
     1
 77
     6
 78
     2
 67
     7
 79
     3
170
     0
171
     0
290
     0
174
     0
 93
        1
 44
0.0
173
     0
291
     0
 45
0.0
1001
ACAD
1000
AcDbSavedByObjectVersion
1070
     0
  0
VISUALSTYLE
  5
158
102
{ACAD_REACTORS
330
151
102
}
330
151
100
AcDbVisualStyle
  2
3dWireframe
 70
     5
 71
     0
 72
     2
 73
     0
 90
        0
 40
-0.6
 41
-30.0
 62
     5
 63
     7
 74
     1
 91
        4
 64
     7
 65
   257
 75
     1
175
     1
 42
1.0
 92
        0
 66
   257
 43
1.0
 76
     1
 77
     6
 78
     2
 67
     7
 79
     5
170
     0
171
     0
290
     0
174
     0
 93
        1
 44
0.0
173
     0
291
     0
 45
0.0
1001
ACAD
1000
AcDbSavedByObjectVersion
1070
     0
  0
VISUALSTYLE
  5
156
102
{ACAD_REACTORS
330
151
102
}
330
151
100
AcDbVisualStyle
  2
Basic
 70
     7
 71
     1
 72
     0
 73
     1
 90
        0
 40
-0.6
 41
-30.0
 62
     5
 63
     7
 74
     0
 91
        4
 64
     7
 65
   257
 75
     1
175
     1
 42
1.0
 92
        8
 66
     7
 43
1.0
 76
     1
 77
     6
 78
     2
 67
     7
 79
     5
170
     0
171
     0
290
     0
174
     0
 93
        1
 44
0.0
173
     0
291
     1
 45
0.0
1001
ACAD
1000
AcDbSavedByObjectVersion
1070
     0
  0
VISUALSTYLE
  5
15D
102
{ACAD_REACTORS
330
151
102
}
330
151
100
AcDbVisualStyle
  2
Brighten
 70
    12
 71
     2
 72
     2
 73
     0
 90
        0
 40
-0.6
 41
-30.0
 62
     5
 63
     7
 74
     1
 91
        4
 64
     7
 65
   257
 75
     1
175
     1
 42
1.0
 92
        8
 66
     7
 43
1.0
 76
     1
 77
     6
 78
     2
 67
     7
 79
     5
170
     0
171
     0
290
     0
174
     0
 93
        1
 44
50.0
173
     0
291
     1
 45
0.0
1001
ACAD
1000
AcDbSavedByObjectVersion
1070
     0
  0
VISUALSTYLE
  5
161
102
{ACAD_REACTORS
330
151
102
}
330
151
100
AcDbVisualStyle
  2
ColorChange
 70
    16
 71
     2
 72
     2
 73
     3
 90
        0
 40
-0.6
 41
-30.0
 62
     5
 63
     8
 74
     1
 91
        4
 64
     7
 65
   257
 75
     1
175
     1
 42
1.0
 92
        8
 66
     8
 43
1.0
 76
     1
 77
     6
 78
     2
 67
     7
 79
     5
170
     0
171
     0
290
     0
174
     0
 93
        1
 44
0.0
173
     0
291
     1
 45
0.0
1001
ACAD
1000
AcDbSavedByObjectVersion
1070
     0
  0
VISUALSTYLE
  5
15A
102
{ACAD_REACTORS
330
151
102
}
330
151
100
AcDbVisualStyle
  2
Conceptual
 70
     9
 71
     3
 72
     2
 73
     0
 90
        0
 40
-0.6
 41
-30.0
 62
     5
 63
     7
 74
     2
 91
        2
 64
     7
 65
   257
 75
     1
175
     1
 42
40.0
 92
        8
 66
     7
 43
1.0
 76
     1
 77
     6
 78
     2
 67
     7
 79
     3
170
     0
171
     0
290
     0
174
     0
 93
        1
 44
0.0
173
     0
291
     0
 45
0.0
1001
ACAD
1000
AcDbSavedByObjectVersion
1070
     0
  0
VISUALSTYLE
  5
15C
102
{ACAD_REACTORS
330
151
102
}
330
151
100
AcDbVisualStyle
  2
Dim
 70
    11
 71
     2
 72
     2
 73
     0
 90
        0
 40
-0.6
 41
-30.0
 62
     5
 63
     7
 74
     1
 91
        4
 64
     7
 65
   257
 75
     1
175
     1
 42
1.0
 92
        8
 66
     7
 43
1.0
 76
     1
 77
     6
 78
     2
 67
     7
 79
     5
170
     0
171
     0
290
     0
174
     0
 93
        1
 44
-50.0
173
     0
291
     1
 45
0.0
1001
ACAD
1000
AcDbSavedByObjectVersion
1070
     0
  0
VISUALSTYLE
  5
160
102
{ACAD_REACTORS
330
151
102
}
330
151
100
AcDbVisualStyle
  2
Facepattern
 70
    15
 71
     2
 72
     2
 73
     0
 90
        0
 40
-0.6
 41
-30.0
 62
     5
 63
     7
 74
     1
 91
        4
 64
     7
 65
   257
 75
     1
175
     1
 42
1.0
 92
        8
 66
     7
 43
1.0
 76
     1
 77
     6
 78
     2
 67
     7
 79
     5
170
     0
171
     0
290
     0
174
     0
 93
        1
 44
0.0
173
     0
291
     1
 45
0.0
1001
ACAD
1000
AcDbSavedByObjectVersion
1070
     0
  0
VISUALSTYLE
  5
152
102
{ACAD_REACTORS
330
151
102
}
330
151
100
AcDbVisualStyle
  2
Flat
 70
     0
 71
     2
 72
     1
 73
     1
 90
        2
 40
-0.6
 41
30.0
 62
     5
 63
     7
 74
     0
 91
        4
 64
     7
 65
   257
 75
     1
175
     1
 42
1.0
 92
        8
 66
     7
 43
1.0
 76
     1
 77
     6
 78
     2
 67
     7
 79
     5
170
     0
171
     0
290
     0
174
     0
 93
       13
 44
0.0
173
     0
291
     1
 45
0.0
1001
ACAD
1000
AcDbSavedByObjectVersion
1070
     0
  0
VISUALSTYLE
  5
153
102
{ACAD_REACTORS
330
151
102
}
330
151
100
AcDbVisualStyle
  2
FlatWithEdges
 70
     1
 71
     2
 72
     1
 73
     1
 90
        2
 40
-0.6
 41
30.0
 62
     5
 63
     7
 74
     1
 91
        4
 64
     7
 65
   257
 75
     1
175
     1
 42
1.0
 92
        0
 66
   257
 43
1.0
 76
     1
 77
     6
 78
     2
 67
     7
 79
     5
170
     0
171
     0
290
     0
174
     0
 93
       13
 44
0.0
173
     0
291
     1
 45
0.0
1001
ACAD
1000
AcDbSavedByObjectVersion
1070
     0
  0
VISUALSTYLE
  5
154
102
{ACAD_REACTORS
330
151
102
}
330
151
100
AcDbVisualStyle
  2
Gouraud
 70
     2
 71
     2
 72
     2
 73
     1
 90
        2
 40
-0.6
 41
30.0
 62
     5
 63
     7
 74
     0
 91
        4
 64
     7
 65
   257
 75
     1
175
     1
 42
1.0
 92
        0
 66
     7
 43
1.0
 76
     1
 77
     6
 78
     2
 67
     7
 79
     5
170
     0
171
     0
290
     0
174
     0
 93
       13
 44
0.0
173
     0
291
     1
 45
0.0
1001
ACAD
1000
AcDbSavedByObjectVersion
1070
     0
  0
VISUALSTYLE
  5
155
102
{ACAD_REACTORS
330
151
102
}
330
151
100
AcDbVisualStyle
  2
GouraudWithEdges
 70
     3
 71
     2
 72
     2
 73
     1
 90
        2
 40
-0.6
 41
30.0
 62
     5
 63
     7
 74
     1
 91
        4
 64
     7
 65
   257
 75
     1
175
     1
 42
1.0
 92
        0
 66
   257
 43
1.0
 76
     1
 77
     6
 78
     2
 67
     7
 79
     5
170
     0
171
     0
290
     0
174
     0
 93
       13
 44
0.0
173
     0
291
     1
 45
0.0
1001
ACAD
1000
AcDbSavedByObjectVersion
1070
     0
  0
VISUALSTYLE
  5
15F
102
{ACAD_REACTORS
330
151
102
}
330
151
100
AcDbVisualStyle
  2
Linepattern
 70
    14
 71
     2
 72
     2
 73
     0
 90
        0
 40
-0.6
 41
-30.0
 62
     5
 63
     7
 74
     1
 91
        4
 64
     7
 65
   257
 75
     7
175
     7
 42
1.0
 92
        8
 66
     7
 43
1.0
 76
     1
 77
     6
 78
     2
 67
     7
 79
     5
170
     0
171
     0
290
     0
174
     0
 93
        1
 44
0.0
173
     0
291
     1
 45
0.0
1001
ACAD
1000
AcDbSavedByObjectVersion
1070
     0
  0
VISUALSTYLE
  5
15B
102
{ACAD_REACTORS
330
151
102
}
330
151
100
AcDbVisualStyle
  2
Realistic
 70
     8
 71
     2
 72
     2
 73
     0
 90
        0
 40
-0.6
 41
-30.0
 62
     5
 63
     7
 74
     1
 91
        0
 64
     7
 65
   257
 75
     1
175
     1
 42
1.0
 92
        8
 66
     8
 43
1.0
 76
     1
 77
     6
 78
     2
 67
     7
 79
     5
170
     0
171
     0
290
     0
174
     0
 93
       13
 44
0.0
173
     0
291
     0
 45
0.0
1001
ACAD
1000
AcDbSavedByObjectVersion
1070
     0
  0
VISUALSTYLE
  5
15E
102
{ACAD_REACTORS
330
151
102
}
330
151
100
AcDbVisualStyle
  2
Thicken
 70
    13
 71
     2
 72
     2
 73
     0
 90
        0
 40
-0.6
 41
-30.0
 62
     5
 63
     7
 74
     1
 91
        4
 64
     7
 65
   257
 75
     1
175
     1
 42
1.0
 92
       12
 66
     7
 43
1.0
 76
     1
 77
     6
 78
     2
 67
     7
 79
     5
170
     0
171
     0
290
     0
174
     0
 93
        1
 44
0.0
173
     0
291
     1
 45
0.0
1001
ACAD
1000
AcDbSavedByObjectVersion
1070
     0
  0
DICTIONARYVAR
  5
1B0
102
{ACAD_REACTORS
330
1AD
102
}
330
1AD
100
DictionaryVariables
280
     0
  1
1:1
  0
DICTIONARYVAR
  5
1AF
102
{ACAD_REACTORS
330
1AD
102
}
330
1AD
100
DictionaryVariables
280
     0
  1
STANDARD
  0
DICTIONARYVAR
  5
1AE
102
{ACAD_REACTORS
330
1AD
102
}
330
1AD
100
DictionaryVariables
280
     0
  1
STANDARD
  0
DICTIONARYVAR
  5
1B3
102
{ACAD_REACTORS
330
1AD
102
}
330
1AD
100
DictionaryVariables
280
     0
  1
1
  0
DICTIONARYVAR
  5
1B2
102
{ACAD_REACTORS
330
1AD
102
}
330
1AD
100
DictionaryVariables
280
     0
  1
0
  0
DICTIONARYVAR
  5
1B1
102
{ACAD_REACTORS
330
1AD
102
}
330
1AD
100
DictionaryVariables
280
     0
  1
127
  0
DICTIONARY
  5
1BE
330
19F
100
AcDbDictionary
280
     1
281
     1
  3
ACAD_XREC_ROUNDTRIP
360
1BF
  0
DICTIONARY
  5
1BC
330
19B
100
AcDbDictionary
280
     1
281
     1
  3
ACAD_XREC_ROUNDTRIP
360
1BD
  0
DICTIONARY
  5
142
330
141
100
AcDbDictionary
280
     1
281
     1
  3
ACAD_XREC_ROUNDTRIP
360
1B9
  3
BUMPTILE
360
144
  3
DIFFUSETILE
360
143
  3
OPACITYTILE
360
147
  3
REFLECTIONTILE
360
146
  3
REFRACTIONTILE
360
148
  3
SPECULARTILE
360
145
  0
DICTIONARY
  5
13A
330
139
100
AcDbDictionary
280
     1
281
     1
  3
ACAD_XREC_ROUNDTRIP
360
1B8
  3
BUMPTILE
360
13C
  3
DIFFUSETILE
360
13B
  3
OPACITYTILE
360
13F
  3
REFLECTIONTILE
360
13E
  3
REFRACTIONTILE
360
140
  3
SPECULARTILE
360
13D
  0
DICTIONARY
  5
14A
330
149
100
AcDbDictionary
280
     1
281
     1
  3
ACAD_XREC_ROUNDTRIP
360
1BA
  3
BUMPTILE
360
14C
  3
DIFFUSETILE
360
14B
  3
OPACITYTILE
360
14F
  3
REFLECTIONTILE
360
14E
  3
REFRACTIONTILE
360
150
  3
SPECULARTILE
360
14D
  0
DICTIONARY
  5
1B4
330
194
100
AcDbDictionary
280
     1
281
     1
  3
ACAD_ROUNDTRIP_2008_TABLESTYLE_CELLSTYLEMAP
360
1B5
  3
ACAD_XREC_ROUNDTRIP
360
1BB
  0
XRECORD
  5
1BF
102
{ACAD_REACTORS
330
1BE
102
}
330
1BE
100
AcDbXrecord
280
     1
102
SHADEPLOT
 70
     0
102
SHADEPLOTRESLEVEL
 70
     2
102
SHADEPLOTCUSTOMDPI
 70
   300
  0
XRECORD
  5
1BD
102
{ACAD_REACTORS
330
1BC
102
}
330
1BC
100
AcDbXrecord
280
     1
102
SHADEPLOT
 70
     0
102
SHADEPLOTRESLEVEL
 70
     2
102
SHADEPLOTCUSTOMDPI
 70
   300
  0
XRECORD
  5
1B9
102
{ACAD_REACTORS
330
142
102
}
330
142
100
AcDbXrecord
280
     1
102
MATERIAL
148
0.0
149
0.0
149
0.0
 93
        0
 94
      127
282
     0
 72
     0
 77
     0
171
     0
175
     0
179
     0
273
     0
  0
XRECORD
  5
144
102
{ACAD_REACTORS
330
142
102
}
330
142
100
AcDbXrecord
280
     1
270
     1
271
     1
  0
XRECORD
  5
143
102
{ACAD_REACTORS
330
142
102
}
330
142
100
AcDbXrecord
280
     1
270
     1
271
     1
  0
XRECORD
  5
147
102
{ACAD_REACTORS
330
142
102
}
330
142
100
AcDbXrecord
280
     1
270
     1
271
     1
  0
XRECORD
  5
146
102
{ACAD_REACTORS
330
142
102
}
330
142
100
AcDbXrecord
280
     1
270
     1
271
     1
  0
XRECORD
  5
148
102
{ACAD_REACTORS
330
142
102
}
330
142
100
AcDbXrecord
280
     1
270
     1
271
     1
  0
XRECORD
  5
145
102
{ACAD_REACTORS
330
142
102
}
330
142
100
AcDbXrecord
280
     1
270
     1
271
     1
  0
XRECORD
  5
1B8
102
{ACAD_REACTORS
330
13A
102
}
330
13A
100
AcDbXrecord
280
     1
102
MATERIAL
148
0.0
149
0.0
149
0.0
 93
        0
 94
      127
282
     0
 72
     0
 77
     0
171
     0
175
     0
179
     0
273
     0
  0
XRECORD
  5
13C
102
{ACAD_REACTORS
330
13A
102
}
330
13A
100
AcDbXrecord
280
     1
270
     1
271
     1
  0
XRECORD
  5
13B
102
{ACAD_REACTORS
330
13A
102
}
330
13A
100
AcDbXrecord
280
     1
270
     1
271
     1
  0
XRECORD
  5
13F
102
{ACAD_REACTORS
330
13A
102
}
330
13A
100
AcDbXrecord
280
     1
270
     1
271
     1
  0
XRECORD
  5
13E
102
{ACAD_REACTORS
330
13A
102
}
330
13A
100
AcDbXrecord
280
     1
270
     1
271
     1
  0
XRECORD
  5
140
102
{ACAD_REACTORS
330
13A
102
}
330
13A
100
AcDbXrecord
280
     1
270
     1
271
     1
  0
XRECORD
  5
13D
102
{ACAD_REACTORS
330
13A
102
}
330
13A
100
AcDbXrecord
280
     1
270
     1
271
     1
  0
XRECORD
  5
1BA
102
{ACAD_REACTORS
330
14A
102
}
330
14A
100
AcDbXrecord
280
     1
102
MATERIAL
148
0.0
149
0.0
149
0.0
 93
        0
 94
      127
282
     0
 72
     0
 77
     0
171
     0
175
     0
179
     0
273
     0
  0
XRECORD
  5
14C
102
{ACAD_REACTORS
330
14A
102
}
330
14A
100
AcDbXrecord
280
     1
270
     1
271
     1
  0
XRECORD
  5
14B
102
{ACAD_REACTORS
330
14A
102
}
330
14A
100
AcDbXrecord
280
     1
270
     1
271
     1
  0
XRECORD
  5
14F
102
{ACAD_REACTORS
330
14A
102
}
330
14A
100
AcDbXrecord
280
     1
270
     1
271
     1
  0
XRECORD
  5
14E
102
{ACAD_REACTORS
330
14A
102
}
330
14A
100
AcDbXrecord
280
     1
270
     1
271
     1
  0
XRECORD
  5
150
102
{ACAD_REACTORS
330
14A
102
}
330
14A
100
AcDbXrecord
280
     1
270
     1
271
     1
  0
XRECORD
  5
14D
102
{ACAD_REACTORS
330
14A
102
}
330
14A
100
AcDbXrecord
280
     1
270
     1
271
     1
  0
CELLSTYLEMAP
  5
1B5
102
{ACAD_REACTORS
330
1B4
102
}
330
1B4
100
AcDbCellStyleMap
 90
        3
300
CELLSTYLE
  1
TABLEFORMAT_BEGIN
 90
        5
170
     1
 91
        0
 92
    32768
 62
   257
 93
        1
300
CONTENTFORMAT
  1
CONTENTFORMAT_BEGIN
 90
        0
 91
        0
 92
      512
 93
        0
300

 40
0.0
140
1.0
 94
        5
 62
     0
340
185
144
0.25
309
CONTENTFORMAT_END
171
     0
 94
        0
309
TABLEFORMAT_END
  1
CELLSTYLE_BEGIN
 90
        1
 91
        1
300
_TITLE
309
CELLSTYLE_END
300
CELLSTYLE
  1
TABLEFORMAT_BEGIN
 90
        5
170
     1
 91
        0
 92
        0
 62
   257
 93
        1
300
CONTENTFORMAT
  1
CONTENTFORMAT_BEGIN
 90
        0
 91
        0
 92
      512
 93
        0
300

 40
0.0
140
1.0
 94
        5
 62
     0
340
185
144
0.18
309
CONTENTFORMAT_END
171
     0
 94
        0
309
TABLEFORMAT_END
  1
CELLSTYLE_BEGIN
 90
        2
 91
        1
300
_HEADER
309
CELLSTYLE_END
300
CELLSTYLE
  1
TABLEFORMAT_BEGIN
 90
        5
170
     1
 91
        0
 92
        0
 62
   257
 93
        1
300
CONTENTFORMAT
  1
CONTENTFORMAT_BEGIN
 90
        0
 91
        0
 92
      512
 93
        0
300

 40
0.0
140
1.0
 94
        2
 62
     0
340
185
144
0.18
309
CONTENTFORMAT_END
171
     0
 94
        0
309
TABLEFORMAT_END
  1
CELLSTYLE_BEGIN
 90
        3
 91
        2
300
_DATA
309
CELLSTYLE_END
  0
XRECORD
  5
1BB
102
{ACAD_REACTORS
330
1B4
102
}
330
1B4
100
AcDbXrecord
280
     1
102
ACAD_ROUNDTRIP_PRE2007_TABLESTYLE
 90
      512
 91
        0
  1

 92
      512
 93
        0
  2

 94
      512
 95
        0
  3

  0
ENDSEC
  0
EOF
