  0
SECTION
  2
HEADER
  9
$ACADVER
  1
AC1015
  9
$ACADMAINTVER
 70
    20
  9
$DWGCODEPAGE
  3
ANSI_1252
  9
$INSBASE
 10
0.0
 20
0.0
 30
0.0
  9
$EXTMIN
 10
-320.0696007036806
 20
-368.3816504546417
 30
-0.0015258207003583
  9
$EXTMAX
 10
-5.749540945001626
 20
-270.8095165819979
 30
0.0000000349246037
  9
$LIMMIN
 10
0.0
 20
0.0
  9
$LIMMAX
 10
12.0
 20
9.0
  9
$ORTHOMODE
 70
     1
  9
$REGENMODE
 70
     1
  9
$FILLMODE
 70
     1
  9
$QTEXTMODE
 70
     0
  9
$MIRRTEXT
 70
     1
  9
$LTSCALE
 40
1.0
  9
$ATTMODE
 70
     1
  9
$TEXTSIZE
 40
0.2
  9
$TRACEWID
 40
0.05
  9
$TEXTSTYLE
  7
STANDARD
  9
$CLAYER
  8
0
  9
$CELTYPE
  6
ByLayer
  9
$CECOLOR
 62
   256
  9
$CELTSCALE
 40
1.0
  9
$DISPSILH
 70
     0
  9
$DIMSCALE
 40
1.0
  9
$DIMASZ
 40
0.18
  9
$DIMEXO
 40
0.0625
  9
$DIMDLI
 40
0.38
  9
$DIMRND
 40
0.0
  9
$DIMDLE
 40
0.0
  9
$DIMEXE
 40
0.18
  9
$DIMTP
 40
0.0
  9
$DIMTM
 40
0.0
  9
$DIMTXT
 40
0.18
  9
$DIMCEN
 40
0.09
  9
$DIMTSZ
 40
0.0
  9
$DIMTOL
 70
     0
  9
$DIMLIM
 70
     0
  9
$DIMTIH
 70
     1
  9
$DIMTOH
 70
     1
  9
$DIMSE1
 70
     0
  9
$DIMSE2
 70
     0
  9
$DIMTAD
 70
     0
  9
$DIMZIN
 70
     0
  9
$DIMBLK
  1

  9
$DIMASO
 70
     1
  9
$DIMSHO
 70
     1
  9
$DIMPOST
  1

  9
$DIMAPOST
  1

  9
$DIMALT
 70
     0
  9
$DIMALTD
 70
     2
  9
$DIMALTF
 40
25.4
  9
$DIMLFAC
 40
1.0
  9
$DIMTOFL
 70
     0
  9
$DIMTVP
 40
0.0
  9
$DIMTIX
 70
     0
  9
$DIMSOXD
 70
     0
  9
$DIMSAH
 70
     0
  9
$DIMBLK1
  1

  9
$DIMBLK2
  1

  9
$DIMSTYLE
  2
STANDARD
  9
$DIMCLRD
 70
     0
  9
$DIMCLRE
 70
     0
  9
$DIMCLRT
 70
     0
  9
$DIMTFAC
 40
1.0
  9
$DIMGAP
 40
0.09
  9
$DIMJUST
 70
     0
  9
$DIMSD1
 70
     0
  9
$DIMSD2
 70
     0
  9
$DIMTOLJ
 70
     1
  9
$DIMTZIN
 70
     0
  9
$DIMALTZ
 70
     0
  9
$DIMALTTZ
 70
     0
  9
$DIMUPT
 70
     0
  9
$DIMDEC
 70
     4
  9
$DIMTDEC
 70
     4
  9
$DIMALTU
 70
     2
  9
$DIMALTTD
 70
     2
  9
$DIMTXSTY
  7
STANDARD
  9
$DIMAUNIT
 70
     0
  9
$DIMADEC
 70
     0
  9
$DIMALTRND
 40
0.0
  9
$DIMAZIN
 70
     0
  9
$DIMDSEP
 70
    46
  9
$DIMATFIT
 70
     3
  9
$DIMFRAC
 70
     0
  9
$DIMLDRBLK
  1

  9
$DIMLUNIT
 70
     2
  9
$DIMLWD
 70
    -2
  9
$DIMLWE
 70
    -2
  9
$DIMTMOVE
 70
     0
  9
$LUNITS
 70
     2
  9
$LUPREC
 70
     4
  9
$SKETCHINC
 40
0.1
  9
$FILLETRAD
 40
0.5
  9
$AUNITS
 70
     0
  9
$AUPREC
 70
     0
  9
$MENU
  1
.
  9
$ELEVATION
 40
0.0
  9
$PELEVATION
 40
0.0
  9
$THICKNESS
 40
0.0
  9
$LIMCHECK
 70
     0
  9
$CHAMFERA
 40
0.5
  9
$CHAMFERB
 40
0.5
  9
$CHAMFERC
 40
0.0
  9
$CHAMFERD
 40
0.0
  9
$SKPOLY
 70
     0
  9
$TDCREATE
 40
2454910.500000000
  9
$TDUCREATE
 40
2454910.458333334
  9
$TDUPDATE
 40
2457367.728234861
  9
$TDUUPDATE
 40
2457367.686568195
  9
$TDINDWG
 40
0.0017113079
  9
$TDUSRTIMER
 40
0.0017110764
  9
$USRTIMER
 70
     1
  9
$ANGBASE
 50
0.0
  9
$ANGDIR
 70
     0
  9
$PDMODE
 70
     0
  9
$PDSIZE
 40
0.0
  9
$PLINEWID
 40
0.0
  9
$SPLFRAME
 70
     0
  9
$SPLINETYPE
 70
     6
  9
$SPLINESEGS
 70
     8
  9
$HANDSEED
  5
62E
  9
$SURFTAB1
 70
     6
  9
$SURFTAB2
 70
     6
  9
$SURFTYPE
 70
     6
  9
$SURFU
 70
     6
  9
$SURFV
 70
     6
  9
$UCSBASE
  2

  9
$UCSNAME
  2

  9
$UCSORG
 10
0.0
 20
0.0
 30
0.0
  9
$UCSXDIR
 10
1.0
 20
0.0
 30
0.0
  9
$UCSYDIR
 10
0.0
 20
1.0
 30
0.0
  9
$UCSORTHOREF
  2

  9
$UCSORTHOVIEW
 70
     0
  9
$UCSORGTOP
 10
0.0
 20
0.0
 30
0.0
  9
$UCSORGBOTTOM
 10
0.0
 20
0.0
 30
0.0
  9
$UCSORGLEFT
 10
0.0
 20
0.0
 30
0.0
  9
$UCSORGRIGHT
 10
0.0
 20
0.0
 30
0.0
  9
$UCSORGFRONT
 10
0.0
 20
0.0
 30
0.0
  9
$UCSORGBACK
 10
0.0
 20
0.0
 30
0.0
  9
$PUCSBASE
  2

  9
$PUCSNAME
  2

  9
$PUCSORG
 10
0.0
 20
0.0
 30
0.0
  9
$PUCSXDIR
 10
1.0
 20
0.0
 30
0.0
  9
$PUCSYDIR
 10
0.0
 20
1.0
 30
0.0
  9
$PUCSORTHOREF
  2

  9
$PUCSORTHOVIEW
 70
     0
  9
$PUCSORGTOP
 10
0.0
 20
0.0
 30
0.0
  9
$PUCSORGBOTTOM
 10
0.0
 20
0.0
 30
0.0
  9
$PUCSORGLEFT
 10
0.0
 20
0.0
 30
0.0
  9
$PUCSORGRIGHT
 10
0.0
 20
0.0
 30
0.0
  9
$PUCSORGFRONT
 10
0.0
 20
0.0
 30
0.0
  9
$PUCSORGBACK
 10
0.0
 20
0.0
 30
0.0
  9
$USERI1
 70
     0
  9
$USERI2
 70
     0
  9
$USERI3
 70
     0
  9
$USERI4
 70
     0
  9
$USERI5
 70
     0
  9
$USERR1
 40
0.0
  9
$USERR2
 40
0.0
  9
$USERR3
 40
0.0
  9
$USERR4
 40
0.0
  9
$USERR5
 40
0.0
  9
$WORLDVIEW
 70
     1
  9
$SHADEDGE
 70
     3
  9
$SHADEDIF
 70
    70
  9
$TILEMODE
 70
     1
  9
$MAXACTVP
 70
    64
  9
$PINSBASE
 10
0.0
 20
0.0
 30
0.0
  9
$PLIMCHECK
 70
     0
  9
$PEXTMIN
 10
1.000000000000000E+20
 20
1.000000000000000E+20
 30
1.000000000000000E+20
  9
$PEXTMAX
 10
-1.000000000000000E+20
 20
-1.000000000000000E+20
 30
-1.000000000000000E+20
  9
$PLIMMIN
 10
0.0
 20
0.0
  9
$PLIMMAX
 10
12.0
 20
9.0
  9
$UNITMODE
 70
     0
  9
$VISRETAIN
 70
     1
  9
$PLINEGEN
 70
     0
  9
$PSLTSCALE
 70
     1
  9
$TREEDEPTH
 70
  3020
  9
$CMLSTYLE
  2
Standard
  9
$CMLJUST
 70
     0
  9
$CMLSCALE
 40
1.0
  9
$PROXYGRAPHICS
 70
     1
  9
$MEASUREMENT
 70
     0
  9
$CELWEIGHT
370
    -1
  9
$ENDCAPS
280
     0
  9
$JOINSTYLE
280
     0
  9
$LWDISPLAY
290
     0
  9
$INSUNITS
 70
     0
  9
$HYPERLINKBASE
  1

  9
$STYLESHEET
  1

  9
$XEDIT
290
     1
  9
$CEPSNTYPE
380
     0
  9
$PSTYLEMODE
290
     1
  9
$FINGERPRINTGUID
  2
{DF2EEB8E-44EF-4B60-BF79-26A257588B7F}
  9
$VERSIONGUID
  2
{3D737DE1-11EB-46AF-BFFA-B61CEDA015E6}
  9
$EXTNAMES
290
     1
  9
$PSVPSCALE
 40
0.0
  9
$OLESTARTUP
290
     0
  0
ENDSEC
  0
SECTION
  2
CLASSES
  0
CLASS
  1
ACDBDICTIONARYWDFLT
  2
AcDbDictionaryWithDefault
  3
ObjectDBX Classes
 90
        0
280
     0
281
     0
  0
CLASS
  1
MATERIAL
  2
AcDbMaterial
  3
ObjectDBX Classes
 90
     1153
280
     0
281
     0
  0
CLASS
  1
VISUALSTYLE
  2
AcDbVisualStyle
  3
ObjectDBX Classes
 90
     4095
280
     0
281
     0
  0
CLASS
  1
SCALE
  2
AcDbScale
  3
ObjectDBX Classes
 90
     1153
280
     0
281
     0
  0
CLASS
  1
TABLESTYLE
  2
AcDbTableStyle
  3
ObjectDBX Classes
 90
     4095
280
     0
281
     0
  0
CLASS
  1
MLEADERSTYLE
  2
AcDbMLeaderStyle
  3
ACDB_MLEADERSTYLE_CLASS
 90
     4095
280
     0
281
     0
  0
CLASS
  1
SORTENTSTABLE
  2
AcDbSortentsTable
  3
ObjectDBX Classes
 90
        0
280
     0
281
     0
  0
CLASS
  1
DICTIONARYVAR
  2
AcDbDictionaryVar
  3
ObjectDBX Classes
 90
        0
280
     0
281
     0
  0
CLASS
  1
CELLSTYLEMAP
  2
AcDbCellStyleMap
  3
ObjectDBX Classes
 90
     1152
280
     0
281
     0
  0
CLASS
  1
ACDBPLACEHOLDER
  2
AcDbPlaceHolder
  3
ObjectDBX Classes
 90
        0
280
     0
281
     0
  0
CLASS
  1
LAYOUT
  2
AcDbLayout
  3
ObjectDBX Classes
 90
        0
280
     0
281
     0
  0
ENDSEC
  0
SECTION
  2
TABLES
  0
TABLE
  2
VPORT
  5
58B
330
0
100
AcDbSymbolTable
 70
     1
  0
VPORT
  5
5FB
330
58B
100
AcDbSymbolTableRecord
100
AcDbViewportTableRecord
  2
*ACTIVE
 70
     0
 10
0.0
 20
0.0
 11
1.0
 21
1.0
 12
-163.7641990949914
 22
-350.5096519491587
 13
0.0
 23
0.0
 14
0.5
 24
0.5
 15
0.5
 25
0.5
 16
0.0
 26
0.0
 36
1.0
 17
0.0
 27
0.0
 37
0.0
 40
174.167109776946
 41
2.518962075848303
 42
50.0
 43
0.0
 44
0.0
 50
0.0
 51
0.0
 71
     0
 72
   100
 73
     1
 74
     3
 75
     0
 76
     0
 77
     0
 78
     0
281
     0
 65
     1
110
0.0
120
0.0
130
0.0
111
1.0
121
0.0
131
0.0
112
0.0
122
1.0
132
0.0
 79
     0
146
0.0
  0
ENDTAB
  0
TABLE
  2
LTYPE
  5
588
330
0
100
AcDbSymbolTable
 70
     3
  0
LTYPE
  5
5E5
330
588
100
AcDbSymbolTableRecord
100
AcDbLinetypeTableRecord
  2
ByBlock
 70
     0
  3

 72
    65
 73
     0
 40
0.0
  0
LTYPE
  5
5E6
330
588
100
AcDbSymbolTableRecord
100
AcDbLinetypeTableRecord
  2
ByLayer
 70
     0
  3

 72
    65
 73
     0
 40
0.0
  0
LTYPE
  5
5E7
330
588
100
AcDbSymbolTableRecord
100
AcDbLinetypeTableRecord
  2
CONTINUOUS
 70
     0
  3
Solid line
 72
    65
 73
     0
 40
0.0
  0
LTYPE
  5
5FC
330
588
100
AcDbSymbolTableRecord
100
AcDbLinetypeTableRecord
  2
CONTINUOUS2
 70
     0
  3
Solid Line
 72
    65
 73
     0
 40
0.0
  0
ENDTAB
  0
TABLE
  2
LAYER
  5
585
330
0
100
AcDbSymbolTable
 70
     2
  0
LAYER
  5
5DF
102
{ACAD_XDICTIONARY
360
617
102
}
330
585
100
AcDbSymbolTableRecord
100
AcDbLayerTableRecord
  2
0
 70
     0
 62
     7
  6
CONTINUOUS
370
    -3
390
592
  0
LAYER
  5
5FD
102
{ACAD_XDICTIONARY
360
619
102
}
330
585
100
AcDbSymbolTableRecord
100
AcDbLayerTableRecord
  2
LAYER_1
 70
     0
 62
    18
  6
CONTINUOUS
370
    -3
390
592
  0
ENDTAB
  0
TABLE
  2
STYLE
  5
586
330
0
100
AcDbSymbolTable
 70
     2
  0
STYLE
  5
5E0
330
586
100
AcDbSymbolTableRecord
100
AcDbTextStyleTableRecord
  2
STANDARD
 70
     0
 40
0.0
 41
1.0
 50
0.0
 71
     0
 42
0.2
  3
txt
  4

  0
STYLE
  5
5E4
330
586
100
AcDbSymbolTableRecord
100
AcDbTextStyleTableRecord
  2
Annotative
 70
     0
 40
0.0
 41
1.0
 50
0.0
 71
     0
 42
0.2
  3
txt
  4

1001
AcadAnnotative
1000
AnnotativeData
1002
{
1070
     1
1070
     1
1002
}
  0
ENDTAB
  0
TABLE
  2
VIEW
  5
589
330
0
100
AcDbSymbolTable
 70
     0
  0
ENDTAB
  0
TABLE
  2
UCS
  5
58A
330
0
100
AcDbSymbolTable
 70
     0
  0
ENDTAB
  0
TABLE
  2
APPID
  5
58C
330
0
100
AcDbSymbolTable
 70
     4
  0
APPID
  5
5E1
330
58C
100
AcDbSymbolTableRecord
100
AcDbRegAppTableRecord
  2
ACAD
 70
     0
  0
APPID
  5
5E8
330
58C
100
AcDbSymbolTableRecord
100
AcDbRegAppTableRecord
  2
AcadAnnotative
 70
     0
  0
APPID
  5
5F2
330
58C
100
AcDbSymbolTableRecord
100
AcDbRegAppTableRecord
  2
ACAD_MLEADERVER
 70
     0
  0
APPID
  5
606
330
58C
100
AcDbSymbolTableRecord
100
AcDbRegAppTableRecord
  2
ACAD_EXEMPT_FROM_CAD_STANDARDS
 70
     0
  0
ENDTAB
  0
TABLE
  2
DIMSTYLE
  5
58D
330
0
100
AcDbSymbolTable
 70
     3
100
AcDbDimStyleTable
 71
     1
340
5E2
  0
DIMSTYLE
105
5E2
330
58D
100
AcDbSymbolTableRecord
100
AcDbDimStyleTableRecord
  2
STANDARD
 70
     0
279
     2
340
5E0
  0
DIMSTYLE
105
5E3
330
58D
100
AcDbSymbolTableRecord
100
AcDbDimStyleTableRecord
  2
Annotative
 70
     0
340
5E0
1001
AcadAnnotative
1000
AnnotativeData
1002
{
1070
     1
1070
     1
1002
}
  0
ENDTAB
  0
TABLE
  2
BLOCK_RECORD
  5
584
330
0
100
AcDbSymbolTable
 70
     3
  0
BLOCK_RECORD
  5
5F7
102
{ACAD_XDICTIONARY
360
610
102
}
330
584
100
AcDbSymbolTableRecord
100
AcDbBlockTableRecord
  2
*Model_Space
340
5FA
  0
BLOCK_RECORD
  5
5F3
330
584
100
AcDbSymbolTableRecord
100
AcDbBlockTableRecord
  2
*Paper_Space
340
5F6
  0
BLOCK_RECORD
  5
5FF
330
584
100
AcDbSymbolTableRecord
100
AcDbBlockTableRecord
  2
$MODEL_SPACE
340
0
  0
BLOCK_RECORD
  5
601
330
584
100
AcDbSymbolTableRecord
100
AcDbBlockTableRecord
  2
$PAPER_SPACE
340
0
  0
ENDTAB
  0
ENDSEC
  0
SECTION
  2
BLOCKS
  0
BLOCK
  5
5F8
330
5F7
100
AcDbEntity
  8
0
100
AcDbBlockBegin
  2
*Model_Space
 70
     0
 10
0.0
 20
0.0
 30
0.0
  3
*Model_Space
  1

  0
ENDBLK
  5
5F9
330
5F7
100
AcDbEntity
  8
0
100
AcDbBlockEnd
  0
BLOCK
  5
5F4
330
5F3
100
AcDbEntity
 67
     1
  8
0
100
AcDbBlockBegin
  2
*Paper_Space
 70
     0
 10
0.0
 20
0.0
 30
0.0
  3
*Paper_Space
  1

  0
ENDBLK
  5
5F5
330
5F3
100
AcDbEntity
 67
     1
  8
0
100
AcDbBlockEnd
  0
BLOCK
  5
600
330
5FF
100
AcDbEntity
  8
0
100
AcDbBlockBegin
  2
$MODEL_SPACE
 70
     0
 10
0.0
 20
0.0
 30
0.0
  3
$MODEL_SPACE
  1

  0
ENDBLK
  5
21
330
5FF
100
AcDbEntity
  8
0
100
AcDbBlockEnd
  0
BLOCK
  5
602
330
601
100
AcDbEntity
  8
0
100
AcDbBlockBegin
  2
$PAPER_SPACE
 70
     0
 10
0.0
 20
0.0
 30
0.0
  3
$PAPER_SPACE
  1

  0
ENDBLK
  5
1D
330
601
100
AcDbEntity
  8
0
100
AcDbBlockEnd
  0
ENDSEC
  0
SECTION
  2
ENTITIES
  0
LWPOLYLINE
  5
41
330
5F7
100
AcDbEntity
  8
0
100
AcDbPolyline
 90
        9
 70
     1
 43
0.0
 10
-222.2394679333526
 20
-278.0400779976228
 10
-217.2192940780459
 20
-278.3093965327545
 10
-222.2492074655896
 20
-283.8797991701991
 10
-222.2492074655896
 20
-290.4410782160299
 10
-230.0731286016786
 20
-286.2125588506535
 10
-234.3961342225714
 20
-278.2843238097096
 10
-227.9502747061055
 20
-278.3752409916445
 10
-224.5302192228285
 20
-275.3338544625911
 10
-222.2904912517697
 20
-275.3338544625911
  0
LWPOLYLINE
  5
42
330
5F7
100
AcDbEntity
  8
0
100
AcDbPolyline
 90
        6
 70
     1
 43
0.0
 10
-239.0655943431251
 20
-277.3744876350473
 10
-236.6349123042438
 20
-281.53155869553
 10
-238.896259115964
 20
-280.2667836256279
 10
-241.6851317859567
 20
-281.8582905369902
 10
-241.6851310517172
 20
-278.6752018356699
 10
-243.9302020255137
 20
-277.3625225556129
  0
LWPOLYLINE
  5
43
330
5F7
100
AcDbEntity
  8
0
100
AcDbPolyline
 90
        6
 70
     1
 43
0.0
 10
-81.87757238622717
 20
-279.135222322533
 10
-82.25249350786123
 20
-281.8167730911536
 10
-84.45492638739199
 20
-280.3875860887162
 10
-85.20210834615204
 20
-280.699306254147
 10
-83.87530696714961
 20
-278.5001190023009
 10
-81.0568714082836
 20
-278.4847800896119
  0
LWPOLYLINE
  5
44
330
5F7
100
AcDbEntity
  8
0
100
AcDbPolyline
 90
        6
 70
     1
 43
0.0
 10
-185.0855071049643
 20
-278.6752018356699
 10
-185.0855063707248
 20
-281.8582905369902
 10
-187.8743790407174
 20
-280.2667836256279
 10
-190.1357258524377
 20
-281.53155869553
 10
-187.7050438135564
 20
-277.3744876350473
 10
-182.8404361311678
 20
-277.3625225556129
  0
LWPOLYLINE
  5
45
330
5F7
100
AcDbEntity
  8
0
100
AcDbPolyline
 90
       10
 70
     1
 43
0.0
 10
-64.2856595854476
 20
-277.9171276125161
 10
-63.03635462795575
 20
-279.929753671714
 10
-64.2745186865747
 20
-281.9244317776942
 10
-69.6504154169057
 20
-281.9244317760101
 10
-69.65041541764762
 20
-284.2404375177562
 10
-70.82447039007911
 20
-282.2304676911409
 10
-75.6875081655854
 20
-285.0114003968976
 10
-77.71458827632094
 20
-283.8546204403091
 10
-77.71458829516769
 20
-281.5347299891453
 10
-71.36515018918501
 20
-277.9161255171571
  0
LWPOLYLINE
  5
46
330
5F7
100
AcDbEntity
  8
0
100
AcDbPolyline
 90
       10
 70
     1
 43
0.0
 10
-167.0450236175
 20
-277.9171276125161
 10
-165.795718660008
 20
-279.929753671714
 10
-167.0338827186271
 20
-281.9244317776942
 10
-172.4097794489581
 20
-281.9244317760101
 10
-172.4097794497
 20
-284.2404375177562
 10
-173.5838344221315
 20
-282.230467691141
 10
-178.4468721976378
 20
-285.0114003968976
 10
-180.4739523083733
 20
-283.8546204403091
 10
-180.47395232722
 20
-281.5347299891453
 10
-174.1245142212373
 20
-277.9161255171571
  0
LWPOLYLINE
  5
47
330
5F7
100
AcDbEntity
  8
0
100
AcDbPolyline
 90
       10
 70
     1
 43
0.0
 10
-268.5427238517267
 20
-277.9171276125161
 10
-267.2934188942349
 20
-279.929753671714
 10
-268.5315829528537
 20
-281.9244317776942
 10
-273.9074796831848
 20
-281.9244317760101
 10
-273.9074796839267
 20
-284.2404375177562
 10
-275.0815346563582
 20
-282.2304676911409
 10
-279.9445724318645
 20
-285.0114003968976
 10
-281.9716525426
 20
-283.8546204403091
 10
-281.9716525614467
 20
-281.5347299891453
 10
-275.6222144554641
 20
-277.9161255171571
  0
LWPOLYLINE
  5
48
330
5F7
100
AcDbEntity
  8
0
100
AcDbPolyline
 90
       10
 70
     1
 43
0.0
 10
-42.0396215631824
 20
-281.5347299891453
 10
-42.0396215820291
 20
-283.8546204403091
 10
-44.0667016927646
 20
-285.0114003968976
 10
-48.92973946827101
 20
-282.230467691141
 10
-50.10379444070249
 20
-284.2404375177562
 10
-50.10379444144431
 20
-281.9244317760101
 10
-55.4796911717753
 20
-281.9244317776942
 10
-56.7178552303944
 20
-279.929753671714
 10
-55.46855027290241
 20
-277.9171276125161
 10
-48.3890596691651
 20
-277.9161255171571
  0
LWPOLYLINE
  5
49
330
5F7
100
AcDbEntity
  8
0
100
AcDbPolyline
 90
       10
 70
     1
 43
0.0
 10
-246.2966858294615
 20
-281.5347299891453
 10
-246.2966858483081
 20
-283.8546204403091
 10
-248.3237659590437
 20
-285.0114003968976
 10
-253.18680373455
 20
-282.230467691141
 10
-254.3608587069815
 20
-284.2404375177562
 10
-254.3608587077234
 20
-281.9244317760101
 10
-259.7367554380544
 20
-281.9244317776942
 10
-260.9749194966735
 20
-279.929753671714
 10
-259.7256145391815
 20
-277.9171276125161
 10
-252.6461239354442
 20
-277.9161255171571
  0
LWPOLYLINE
  5
4A
330
5F7
100
AcDbEntity
  8
0
100
AcDbPolyline
 90
        9
 70
     1
 43
0.0
 10
-198.8203634505759
 20
-278.3752409916445
 10
-192.3745039341101
 20
-278.2843238097096
 10
-196.6975095550029
 20
-286.2125588506535
 10
-204.5214306910919
 20
-290.4410782160299
 10
-204.5214306910919
 20
-283.8797991701991
 10
-209.5513440786355
 20
-278.3093965327545
 10
-204.5311702233289
 20
-278.0400779976228
 10
-204.4801469049117
 20
-275.3338544625911
 10
-202.2404189338529
 20
-275.3338544625911
  0
LWPOLYLINE
  5
4B
330
5F7
100
AcDbEntity
  8
0
100
AcDbPolyline
 90
        9
 70
     1
 43
0.0
 10
-96.25541238096424
 20
-278.6677619385421
 10
-89.80955286449828
 20
-278.5768447566072
 10
-94.13255848539108
 20
-286.5050797975509
 10
-101.9564796214801
 20
-290.7335991629275
 10
-101.9564796214801
 20
-284.1727750904577
 10
-106.9864450844042
 20
-278.6019202733532
 10
-101.9662191537171
 20
-278.3325989445202
 10
-101.9096806259228
 20
-275.3338544625911
 10
-100.0044092397794
 20
-275.3338544625911
  0
LWPOLYLINE
  5
4C
330
5F7
100
AcDbEntity
  8
0
100
AcDbPolyline
 90
       10
 70
     1
 43
0.0
 10
-82.88269838653548
 20
-286.8042912847969
 10
-82.88269836767353
 20
-289.1259766516679
 10
-87.74217779343658
 20
-291.9048745117929
 10
-86.57711008769723
 20
-293.899458231877
 10
-88.59498890103559
 20
-292.7479290946652
 10
-91.40633412500005
 20
-297.5509258978228
 10
-93.75579259515395
 20
-297.5509258777547
 10
-94.92564576895416
 20
-295.5481494479153
 10
-91.25932227319529
 20
-289.2718978533935
 10
-84.90918927353632
 20
-285.6478475764926
  0
LWPOLYLINE
  5
4D
330
5F7
100
AcDbEntity
  8
0
100
AcDbPolyline
 90
       10
 70
     1
 43
0.0
 10
-185.6420624185876
 20
-286.8042912847969
 10
-185.6420623997258
 20
-289.1259766516679
 10
-190.501541825489
 20
-291.9048745117929
 10
-189.3364741197496
 20
-293.899458231877
 10
-191.354352933088
 20
-292.7479290946652
 10
-194.1656981570524
 20
-297.5509258978228
 10
-196.5151566272064
 20
-297.5509258777547
 10
-197.6850098010065
 20
-295.5481494479153
 10
-194.0186863052476
 20
-289.2718978533935
 10
-187.6685533055886
 20
-285.6478475764926
  0
LWPOLYLINE
  5
4E
330
5F7
100
AcDbEntity
  8
0
100
AcDbPolyline
 90
       10
 70
     1
 43
0.0
 10
-287.1397626528145
 20
-286.8042912847969
 10
-287.1397626339526
 20
-289.1259766516679
 10
-291.9992420597157
 20
-291.9048745117929
 10
-290.8341743539763
 20
-293.899458231877
 10
-292.8520531673147
 20
-292.7479290946652
 10
-295.6633983912791
 20
-297.5509258978228
 10
-298.0128568614329
 20
-297.5509258777547
 10
-299.1827100352332
 20
-295.5481494479153
 10
-295.5163865394743
 20
-289.2718978533935
 10
-289.1662535398154
 20
-285.6478475764926
  0
LWPOLYLINE
  5
4F
330
5F7
100
AcDbEntity
  8
0
100
AcDbPolyline
 90
       10
 70
     1
 43
0.0
 10
-28.49488758515488
 20
-289.2718978533935
 10
-24.828564089396
 20
-295.5481494479153
 10
-25.99841726319599
 20
-297.5509258777547
 10
-28.34787573334998
 20
-297.5509258978228
 10
-31.1592209573144
 20
-292.7479290946652
 10
-33.1770997706528
 20
-293.899458231877
 10
-32.0120320649134
 20
-291.9048745117929
 10
-36.8715114906766
 20
-289.1259766516679
 10
-36.87151147181471
 20
-286.8042912847969
 10
-34.84502058481381
 20
-285.6478475764926
  0
LWPOLYLINE
  5
50
330
5F7
100
AcDbEntity
  8
0
100
AcDbPolyline
 90
       10
 70
     1
 43
0.0
 10
-232.7519518514339
 20
-289.2718978533935
 10
-229.085628355675
 20
-295.5481494479153
 10
-230.2554815294751
 20
-297.5509258777547
 10
-232.6049399996291
 20
-297.5509258978228
 10
-235.4162852235935
 20
-292.7479290946652
 10
-237.4341640369319
 20
-293.899458231877
 10
-236.2690963311925
 20
-291.9048745117929
 10
-241.1285757569556
 20
-289.1259766516679
 10
-241.1285757380937
 20
-286.8042912847969
 10
-239.1020848510929
 20
-285.6478475764926
  0
LWPOLYLINE
  5
51
330
5F7
100
AcDbEntity
  8
0
100
AcDbPolyline
 90
        6
 70
     1
 43
0.0
 10
-100.3695503575208
 20
-295.3447092031492
 10
-98.75946738884643
 20
-298.1011544494073
 10
-101.9797113568914
 20
-298.101153721754
 10
-103.3080436184695
 20
-300.3206740180644
 10
-103.2959378621388
 20
-295.5122250386747
 10
-99.08997840180672
 20
-293.1095958921233
  0
LWPOLYLINE
  5
52
330
5F7
100
AcDbEntity
  8
0
100
AcDbPolyline
 90
        6
 70
     1
 43
0.0
 10
-203.1289143895732
 20
-295.3447092031492
 10
-201.5188314208988
 20
-298.1011544494073
 10
-204.7390753889437
 20
-298.101153721754
 10
-206.0674076505219
 20
-300.3206740180644
 10
-206.0553018941912
 20
-295.5122250386747
 10
-201.8493424338591
 20
-293.1095958921233
  0
LWPOLYLINE
  5
53
330
5F7
100
AcDbEntity
  8
0
100
AcDbPolyline
 90
        6
 70
     1
 43
0.0
 10
-220.7153362624903
 20
-295.5122250386747
 10
-220.7032305061596
 20
-300.3206740180644
 10
-222.0315627677378
 20
-298.101153721754
 10
-225.2518067357826
 20
-298.1011544494073
 10
-223.6417237671083
 20
-295.3447092031492
 10
-224.9212957228224
 20
-293.1095958921233
  0
LWPOLYLINE
  5
54
330
5F7
100
AcDbEntity
  8
0
100
AcDbPolyline
 90
        6
 70
     1
 43
0.0
 10
-56.54337045916008
 20
-286.5148810615488
 10
-56.54337045915639
 20
-301.2505405293552
 10
-59.87554027899921
 20
-304.7261225870273
 10
-63.21083939918913
 20
-301.2202708053258
 10
-63.21083939918913
 20
-286.5148810615488
 10
-59.87710492917461
 20
-283.5814227215603
  0
LWPOLYLINE
  5
55
330
5F7
100
AcDbEntity
  8
0
100
AcDbPolyline
 90
        6
 70
     1
 43
0.0
 10
-159.3027344912133
 20
-286.5148810615488
 10
-159.3027344912133
 20
-301.2202708053258
 10
-162.6380336114032
 20
-304.7261225870273
 10
-165.970203431246
 20
-301.2505405293552
 10
-165.9702034312423
 20
-286.5148810615488
 10
-162.6364689612278
 20
-283.5814227215603
  0
LWPOLYLINE
  5
56
330
5F7
100
AcDbEntity
  8
0
100
AcDbPolyline
 90
        6
 70
     1
 43
0.0
 10
-260.8004347254391
 20
-286.5148810615488
 10
-260.8004347254355
 20
-301.2505405293552
 10
-264.1326045452782
 20
-304.7261225870273
 10
-267.4679036654682
 20
-301.2202708053258
 10
-267.4679036654682
 20
-286.5148810615488
 10
-264.1341691954537
 20
-283.5814227215603
  0
LWPOLYLINE
  5
57
330
5F7
100
AcDbEntity
  8
0
100
AcDbPolyline
 90
        6
 70
     1
 43
0.0
 10
-74.07060952259005
 20
-289.3916654885982
 10
-66.61805182998938
 20
-302.1531209292332
 10
-67.74602040938785
 20
-306.8102065126359
 10
-72.40755821964995
 20
-305.4227398980022
 10
-79.84480700359895
 20
-292.6874988073402
 10
-78.44130440382767
 20
-288.4991327045958
  0
LWPOLYLINE
  5
58
330
5F7
100
AcDbEntity
  8
0
100
AcDbPolyline
 90
        6
 70
     1
 43
0.0
 10
-278.3276737888691
 20
-289.3916654885982
 10
-270.8751160962684
 20
-302.1531209292332
 10
-272.0030846756669
 20
-306.8102065126359
 10
-276.664622485929
 20
-305.4227398980022
 10
-284.101871269878
 20
-292.6874988073402
 10
-282.6983686701067
 20
-288.4991327045958
  0
LWPOLYLINE
  5
59
330
5F7
100
AcDbEntity
  8
0
100
AcDbPolyline
 90
        6
 70
     1
 43
0.0
 10
-39.9094028547504
 20
-292.6874988073406
 10
-47.36196054734469
 20
-305.4489542479794
 10
-52.0054793953616
 20
-306.8117533743396
 10
-53.12084911970821
 20
-302.1269065792605
 10
-45.6836003357592
 20
-289.3916654885984
 10
-41.31290545452168
 20
-288.4991327045962
  0
LWPOLYLINE
  5
5A
330
5F7
100
AcDbEntity
  8
0
100
AcDbPolyline
 90
        6
 70
     1
 43
0.0
 10
-176.8299735546432
 20
-289.3916654885984
 10
-169.3927247706942
 20
-302.1269065792605
 10
-170.5080944950408
 20
-306.8117533743396
 10
-175.1516133430577
 20
-305.4489542479794
 10
-182.6041710356521
 20
-292.6874988073406
 10
-181.2006684358807
 20
-288.4991327045962
  0
LWPOLYLINE
  5
5B
330
5F7
100
AcDbEntity
  8
0
100
AcDbPolyline
 90
        6
 70
     1
 43
0.0
 10
-244.1664671210294
 20
-292.6874988073406
 10
-251.6190248136238
 20
-305.4489542479794
 10
-256.2625436616406
 20
-306.8117533743396
 10
-257.3779133859873
 20
-302.1269065792605
 10
-249.9406646020383
 20
-289.3916654885984
 10
-245.5699697208008
 20
-288.4991327045962
  0
LWPOLYLINE
  5
5C
330
5F7
100
AcDbEntity
  8
0
100
AcDbPolyline
 90
       10
 70
     1
 43
0.0
 10
-96.73946057252384
 20
-302.6596626739533
 10
-95.56926738823593
 20
-304.6630211981979
 10
-98.38288449209528
 20
-309.4698993574303
 10
-96.3500774362502
 20
-310.6299474929594
 10
-98.69230540590022
 20
-310.629947492275
 10
-98.69230540748924
 20
-315.9435433100544
 10
-100.7106030639374
 20
-317.1675154815291
 10
-102.7470590283722
 20
-315.9325314224393
 10
-102.7480727960354
 20
-308.9354938585412
 10
-99.08710321472106
 20
-302.6596626539
  0
LWPOLYLINE
  5
5D
330
5F7
100
AcDbEntity
  8
0
100
AcDbPolyline
 90
       10
 70
     1
 43
0.0
 10
-199.4988246045762
 20
-302.6596626739533
 10
-198.3286314202882
 20
-304.6630211981979
 10
-201.1422485241476
 20
-309.4698993574303
 10
-199.1094414683026
 20
-310.6299474929594
 10
-201.4516694379525
 20
-310.629947492275
 10
-201.4516694395414
 20
-315.9435433100544
 10
-203.4699670959897
 20
-317.1675154815291
 10
-205.5064230604246
 20
-315.9325314224393
 10
-205.5074368280879
 20
-308.9354938585412
 10
-201.8464672467734
 20
-302.6596626539
  0
LWPOLYLINE
  5
5E
330
5F7
100
AcDbEntity
  8
0
100
AcDbPolyline
 90
       10
 70
     1
 43
0.0
 10
-300.9965248388029
 20
-302.6596626739533
 10
-299.826331654515
 20
-304.6630211981979
 10
-302.6399487583744
 20
-309.4698993574303
 10
-300.6071417025292
 20
-310.6299474929594
 10
-302.9493696721792
 20
-310.629947492275
 10
-302.9493696737682
 20
-315.9435433100544
 10
-304.9676673302164
 20
-317.1675154815291
 10
-307.0041232946513
 20
-315.9325314224393
 10
-307.0051370623145
 20
-308.9354938585412
 10
-303.344167481
 20
-302.6596626539
  0
LWPOLYLINE
  5
5F
330
5F7
100
AcDbEntity
  8
0
100
AcDbPolyline
 90
        4
 70
     1
 43
0.0
 10
-56.46973085200941
 20
-311.0980069037922
 10
-57.55232773376869
 20
-311.7158050812798
 10
-58.1773187403995
 20
-310.6458270198617
 10
-56.46973085309139
 20
-307.7224544262677
  0
LWPOLYLINE
  5
60
330
5F7
100
AcDbEntity
  8
0
100
AcDbPolyline
 90
        4
 70
     1
 43
0.0
 10
-61.57689111795059
 20
-310.6458270198617
 10
-62.2018821245814
 20
-311.7158050812798
 10
-63.28447900634068
 20
-311.0980069037922
 10
-63.28447900525867
 20
-307.7224544262677
  0
LWPOLYLINE
  5
61
330
5F7
100
AcDbEntity
  8
0
100
AcDbPolyline
 90
        4
 70
     1
 43
0.0
 10
-260.7267951182885
 20
-311.0980069037922
 10
-261.8093920000478
 20
-311.7158050812798
 10
-262.4343830066786
 20
-310.6458270198617
 10
-260.7267951193704
 20
-307.7224544262677
  0
LWPOLYLINE
  5
62
330
5F7
100
AcDbEntity
  8
0
100
AcDbPolyline
 90
        4
 70
     1
 43
0.0
 10
-265.8339553842296
 20
-310.6458270198617
 10
-266.4589463908605
 20
-311.7158050812798
 10
-267.5415432726197
 20
-311.0980069037922
 10
-267.5415432715377
 20
-307.7224544262677
  0
LWPOLYLINE
  5
63
330
5F7
100
AcDbEntity
  8
0
100
AcDbPolyline
 90
        6
 70
     1
 43
0.0
 10
-74.88650192252804
 20
-307.9148497583619
 10
-73.50803099154473
 20
-312.5055765463399
 10
-78.24675220013205
 20
-313.6082656576901
 10
-91.12844496246164
 20
-306.2555707858016
 10
-92.03124162111723
 20
-301.9345662351377
 10
-87.7947104924471
 20
-300.5470200244618
  0
LWPOLYLINE
  5
64
330
5F7
100
AcDbEntity
  8
0
100
AcDbPolyline
 90
        6
 70
     1
 43
0.0
 10
-279.1435661888072
 20
-307.9148497583619
 10
-277.7650952578238
 20
-312.5055765463399
 10
-282.5038164664111
 20
-313.6082656576901
 10
-295.3855092287406
 20
-306.2555707858016
 10
-296.2883058873963
 20
-301.9345662351377
 10
-292.0517747587261
 20
-300.5470200244618
  0
LWPOLYLINE
  5
65
330
5F7
100
AcDbEntity
  8
0
100
AcDbPolyline
 90
        6
 70
     1
 43
0.0
 10
-27.72296823723249
 20
-301.9345662351382
 10
-28.6257648958881
 20
-306.2555707858024
 10
-41.5339734658034
 20
-313.6234005197088
 10
-46.24461421662949
 20
-312.5082557894029
 10
-44.84119212823211
 20
-307.8997148963511
 10
-31.9594993659025
 20
-300.5470200244626
  0
LWPOLYLINE
  5
66
330
5F7
100
AcDbEntity
  8
0
100
AcDbPolyline
 90
        6
 70
     1
 43
0.0
 10
-177.6723817621703
 20
-307.8997148963511
 10
-176.2689596737729
 20
-312.5082557894029
 10
-180.979600424599
 20
-313.6234005197088
 10
-193.8878089945143
 20
-306.2555707858024
 10
-194.79060565317
 20
-301.9345662351382
 10
-190.5540745244999
 20
-300.5470200244626
  0
LWPOLYLINE
  5
67
330
5F7
100
AcDbEntity
  8
0
100
AcDbPolyline
 90
        6
 70
     1
 43
0.0
 10
-231.9800325035116
 20
-301.9345662351382
 10
-232.8828291621671
 20
-306.2555707858024
 10
-245.7910377320825
 20
-313.6234005197088
 10
-250.5016784829086
 20
-312.5082557894029
 10
-249.0982563945112
 20
-307.8997148963511
 10
-236.2165636321815
 20
-300.5470200244626
  0
LWPOLYLINE
  5
68
330
5F7
100
AcDbEntity
  8
0
100
AcDbPolyline
 90
        4
 70
     1
 43
0.0
 10
-52.27658405369939
 20
-314.0130735327899
 10
-53.52666839437628
 20
-314.0130735331347
 10
-53.5266683947167
 20
-312.7776523634924
 10
-50.5690984943844
 20
-311.0898761239302
  0
LWPOLYLINE
  5
69
330
5F7
100
AcDbEntity
  8
0
100
AcDbPolyline
 90
        4
 70
     1
 43
0.0
 10
-66.22754146363334
 20
-312.7776523634924
 10
-66.22754146397385
 20
-314.0130735331347
 10
-67.47762580465071
 20
-314.0130735327899
 10
-69.18511136396571
 20
-311.0898761239302
  0
LWPOLYLINE
  5
6A
330
5F7
100
AcDbEntity
  8
0
100
AcDbPolyline
 90
        4
 70
     1
 43
0.0
 10
-256.5336483199785
 20
-314.0130735327899
 10
-257.7837326606553
 20
-314.0130735331347
 10
-257.7837326609957
 20
-312.7776523634924
 10
-254.8261627606635
 20
-311.0898761239302
  0
LWPOLYLINE
  5
6B
330
5F7
100
AcDbEntity
  8
0
100
AcDbPolyline
 90
        4
 70
     1
 43
0.0
 10
-270.4846057299124
 20
-312.7776523634924
 10
-270.4846057302529
 20
-314.0130735331347
 10
-271.7346900709298
 20
-314.0130735327899
 10
-273.4421756302447
 20
-311.0898761239302
  0
LWPOLYLINE
  5
6C
330
5F7
100
AcDbEntity
  8
0
100
AcDbPolyline
 90
       24
 70
     1
 43
0.0
 10
-58.688263461021
 20
-315.9061997410523
 10
-56.63012810207161
 20
-314.731697676446
 10
-56.63012810303499
 20
-317.0807276275608
 10
-54.25365439656579
 20
-317.0807276275949
 10
-55.44190431520171
 20
-319.1149990518117
 10
-53.383830777269
 20
-320.2894658376464
 10
-55.4419043153267
 20
-321.4639326232146
 10
-54.2536543969105
 20
-323.4982040475546
 10
-56.63012810337969
 20
-323.4982040473392
 10
-56.63012810266789
 20
-325.847233998453
 10
-58.68826346149139
 20
-324.6727319336311
 10
-59.87710492917509
 20
-326.7070644587359
 10
-61.06594639685869
 20
-324.6727319336311
 10
-63.12408175568217
 20
-325.847233998453
 10
-63.12408175497035
 20
-323.4982040473392
 10
-65.50055546143958
 20
-323.4982040475546
 10
-64.3123055430234
 20
-321.4639326232146
 10
-66.37037908108104
 20
-320.2894658376464
 10
-64.31230554314836
 20
-319.1149990518117
 10
-65.50055546178436
 20
-317.0807276275949
 10
-63.12408175531505
 20
-317.0807276275608
 10
-63.12408175627851
 20
-314.731697676446
 10
-61.0659463973291
 20
-315.9061997410523
 10
-59.87710492917509
 20
-313.8718672152347
  0
LWPOLYLINE
  5
6D
330
5F7
100
AcDbEntity
  8
0
100
AcDbPolyline
 90
       24
 70
     1
 43
0.0
 10
-262.9453277273001
 20
-315.9061997410523
 10
-260.8871923683506
 20
-314.731697676446
 10
-260.8871923693141
 20
-317.0807276275608
 10
-258.5107186628449
 20
-317.0807276275949
 10
-259.6989685814808
 20
-319.1149990518117
 10
-257.6408950435481
 20
-320.2894658376464
 10
-259.6989685816058
 20
-321.4639326232146
 10
-258.5107186631896
 20
-323.4982040475546
 10
-260.8871923696588
 20
-323.4982040473392
 10
-260.887192368947
 20
-325.847233998453
 10
-262.9453277277704
 20
-324.6727319336311
 10
-264.1341691954541
 20
-326.7070644587359
 10
-265.3230106631379
 20
-324.6727319336311
 10
-267.3811460219612
 20
-325.847233998453
 10
-267.3811460212494
 20
-323.4982040473392
 10
-269.7576197277186
 20
-323.4982040475546
 10
-268.5693698093025
 20
-321.4639326232146
 10
-270.6274433473601
 20
-320.2894658376464
 10
-268.5693698094275
 20
-319.1149990518117
 10
-269.7576197280634
 20
-317.0807276275949
 10
-267.3811460215941
 20
-317.0807276275608
 10
-267.3811460225576
 20
-314.731697676446
 10
-265.3230106636081
 20
-315.9061997410523
 10
-264.1341691954541
 20
-313.8718672152347
  0
LWPOLYLINE
  5
6E
330
5F7
100
AcDbEntity
  8
0
100
AcDbPolyline
 90
       10
 70
     1
 43
0.0
 10
-17.00613706231448
 20
-308.9354938585412
 10
-17.0071508299778
 20
-315.9325314224393
 10
-19.0436067944128
 20
-317.1675154815291
 10
-21.06190445086099
 20
-315.9435433100544
 10
-21.06190445244988
 20
-310.629947492275
 10
-23.40413242209979
 20
-310.6299474929594
 10
-21.37132536625478
 20
-309.4698993574303
 10
-24.18494247011418
 20
-304.6630211981979
 10
-23.0147492858263
 20
-302.6596626739533
 10
-20.66710664362898
 20
-302.6596626539
  0
LWPOLYLINE
  5
6F
330
5F7
100
AcDbEntity
  8
0
100
AcDbPolyline
 90
       10
 70
     1
 43
0.0
 10
-221.2632013285936
 20
-308.9354938585412
 10
-221.2642150962569
 20
-315.9325314224393
 10
-223.3006710606918
 20
-317.1675154815291
 10
-225.31896871714
 20
-315.9435433100544
 10
-225.3189687187289
 20
-310.629947492275
 10
-227.6611966883789
 20
-310.6299474929594
 10
-225.6283896325339
 20
-309.4698993574303
 10
-228.4420067363933
 20
-304.6630211981979
 10
-227.2718135521053
 20
-302.6596626739533
 10
-224.9241709099081
 20
-302.6596626539
  0
LWPOLYLINE
  5
70
330
5F7
100
AcDbEntity
  8
0
100
AcDbPolyline
 90
        4
 70
     1
 43
0.0
 10
-50.1198776310747
 20
-318.6098944050323
 10
-51.20240963853828
 20
-317.9921332497991
 10
-50.57745608599918
 20
-316.9222193078957
 10
-47.16248496572879
 20
-316.9222193068977
  0
LWPOLYLINE
  5
71
330
5F7
100
AcDbEntity
  8
0
100
AcDbPolyline
 90
        4
 70
     1
 43
0.0
 10
-69.17675377235093
 20
-316.9222193078957
 10
-68.55180021981171
 20
-317.9921332497991
 10
-69.63433222727548
 20
-318.6098944050323
 10
-72.59172489262133
 20
-316.9222193068977
  0
LWPOLYLINE
  5
72
330
5F7
100
AcDbEntity
  8
0
100
AcDbPolyline
 90
        4
 70
     1
 43
0.0
 10
-254.3769418973537
 20
-318.6098944050323
 10
-255.4594739048174
 20
-317.9921332497991
 10
-254.8345203522782
 20
-316.9222193078957
 10
-251.4195492320079
 20
-316.9222193068977
  0
LWPOLYLINE
  5
73
330
5F7
100
AcDbEntity
  8
0
100
AcDbPolyline
 90
        4
 70
     1
 43
0.0
 10
-273.43381803863
 20
-316.9222193078957
 10
-272.8088644860908
 20
-317.9921332497991
 10
-273.8913964935545
 20
-318.6098944050323
 10
-276.8487891589004
 20
-316.9222193068977
  0
LWPOLYLINE
  5
74
330
5F7
100
AcDbEntity
  8
0
100
AcDbPolyline
 90
        6
 70
     1
 43
0.0
 10
-75.61764594320134
 20
-320.2861628870118
 10
-79.16381402911667
 20
-323.5835430674571
 10
-94.03831159701478
 20
-323.5835430674571
 10
-97.00550387848101
 20
-320.287709748715
 10
-94.0383115970147
 20
-316.9918764299728
 10
-79.13319621181975
 20
-316.9918764299692
  0
LWPOLYLINE
  5
75
330
5F7
100
AcDbEntity
  8
0
100
AcDbPolyline
 90
        6
 70
     1
 43
0.0
 10
-279.8747102094804
 20
-320.2861628870118
 10
-283.4208782953957
 20
-323.5835430674571
 10
-298.2953758632938
 20
-323.5835430674571
 10
-301.26256814476
 20
-320.287709748715
 10
-298.2953758632937
 20
-316.9918764299728
 10
-283.3902604780988
 20
-316.9918764299692
  0
LWPOLYLINE
  5
76
330
5F7
100
AcDbEntity
  8
0
100
AcDbPolyline
 90
        6
 70
     1
 43
0.0
 10
-22.74870597986911
 20
-320.2877097487158
 10
-25.71589826133538
 20
-323.583543067458
 10
-40.6210136465304
 20
-323.5835430674617
 10
-44.13656391514879
 20
-320.289256610419
 10
-40.59039582923339
 20
-316.9918764299737
 10
-25.7158982613353
 20
-316.9918764299737
  0
LWPOLYLINE
  5
77
330
5F7
100
AcDbEntity
  8
0
100
AcDbPolyline
 90
        6
 70
     1
 43
0.0
 10
-227.0057702461481
 20
-320.2877097487158
 10
-229.9729625276145
 20
-323.583543067458
 10
-244.8780779128094
 20
-323.5835430674617
 10
-248.3936281814278
 20
-320.289256610419
 10
-244.8474600955124
 20
-316.9918764299737
 10
-229.9729625276144
 20
-316.9918764299737
  0
LWPOLYLINE
  5
78
330
5F7
100
AcDbEntity
  8
0
100
AcDbPolyline
 90
        4
 70
     1
 43
0.0
 10
-47.16248517020421
 20
-323.656712220787
 10
-50.577456290475
 20
-323.6567122218564
 10
-51.20240984367589
 20
-322.5867982803318
 10
-50.11987783659609
 20
-321.9690371244416
  0
LWPOLYLINE
  5
79
330
5F7
100
AcDbEntity
  8
0
100
AcDbPolyline
 90
        4
 70
     1
 43
0.0
 10
-68.55180001467423
 20
-322.5867982803318
 10
-69.17675356787515
 20
-323.6567122218564
 10
-72.59172468814597
 20
-323.656712220787
 10
-69.63433202175392
 20
-321.9690371244416
  0
LWPOLYLINE
  5
7A
330
5F7
100
AcDbEntity
  8
0
100
AcDbPolyline
 90
        4
 70
     1
 43
0.0
 10
-251.4195494364832
 20
-323.656712220787
 10
-254.834520556754
 20
-323.6567122218564
 10
-255.4594741099549
 20
-322.5867982803318
 10
-254.3769421028751
 20
-321.9690371244416
  0
LWPOLYLINE
  5
7B
330
5F7
100
AcDbEntity
  8
0
100
AcDbPolyline
 90
        4
 70
     1
 43
0.0
 10
-272.8088642809534
 20
-322.5867982803318
 10
-273.4338178341542
 20
-323.6567122218564
 10
-276.848788954425
 20
-323.656712220787
 10
-273.891396288033
 20
-321.9690371244416
  0
LWPOLYLINE
  5
7C
330
5F7
100
AcDbEntity
  8
0
100
AcDbPolyline
 90
        6
 70
     1
 43
0.0
 10
-107.5632044963266
 20
-318.6980671976299
 10
-104.7745215754173
 20
-320.2894658875588
 10
-107.5632712925858
 20
-321.8809018235083
 10
-107.590876095056
 20
-324.4595132737938
 10
-110.0128404037196
 20
-320.2892041382368
 10
-107.5857172857862
 20
-316.1297633596407
  0
LWPOLYLINE
  5
7D
330
5F7
100
AcDbEntity
  8
0
100
AcDbPolyline
 90
        4
 70
     1
 43
0.0
 10
-50.56909869460529
 20
-329.4890554051819
 10
-53.52666859591881
 20
-327.8012791672308
 10
-53.52666859626761
 20
-326.5658579976297
 10
-52.27658425554989
 20
-326.5658579972925
  0
LWPOLYLINE
  5
7E
330
5F7
100
AcDbEntity
  8
0
100
AcDbPolyline
 90
        4
 70
     1
 43
0.0
 10
-66.22754126208246
 20
-326.5658579976297
 10
-66.22754126243123
 20
-327.8012791672308
 10
-69.18511116374486
 20
-329.4890554051819
 10
-67.4776256028002
 20
-326.5658579972925
  0
LWPOLYLINE
  5
7F
330
5F7
100
AcDbEntity
  8
0
100
AcDbPolyline
 90
        4
 70
     1
 43
0.0
 10
-254.8261629608843
 20
-329.4890554051819
 10
-257.7837328621978
 20
-327.8012791672308
 10
-257.7837328625467
 20
-326.5658579976297
 10
-256.533648521829
 20
-326.5658579972925
  0
LWPOLYLINE
  5
80
330
5F7
100
AcDbEntity
  8
0
100
AcDbPolyline
 90
        4
 70
     1
 43
0.0
 10
-270.4846055283615
 20
-326.5658579976297
 10
-270.4846055287104
 20
-327.8012791672308
 10
-273.4421754300239
 20
-329.4890554051819
 10
-271.7346898690793
 20
-326.5658579972925
  0
LWPOLYLINE
  5
81
330
5F7
100
AcDbEntity
  8
0
100
AcDbPolyline
 90
        4
 70
     1
 43
0.0
 10
-56.46973105287738
 20
-329.4809246295271
 10
-56.46973105186759
 20
-332.8564771070505
 10
-58.177318940986
 20
-329.9331045144903
 10
-57.55232793501921
 20
-328.8631264526935
  0
LWPOLYLINE
  5
82
330
5F7
100
AcDbEntity
  8
0
100
AcDbPolyline
 90
        4
 70
     1
 43
0.0
 10
-61.5768909173641
 20
-329.9331045144903
 10
-63.28447880648244
 20
-332.8564771070505
 10
-63.28447880547271
 20
-329.4809246295271
 10
-62.201881923331
 20
-328.8631264526935
  0
LWPOLYLINE
  5
83
330
5F7
100
AcDbEntity
  8
0
100
AcDbPolyline
 90
        4
 70
     1
 43
0.0
 10
-260.7267953191565
 20
-329.4809246295271
 10
-260.7267953181467
 20
-332.8564771070505
 10
-262.4343832072651
 20
-329.9331045144903
 10
-261.8093922012982
 20
-328.8631264526935
  0
LWPOLYLINE
  5
84
330
5F7
100
AcDbEntity
  8
0
100
AcDbPolyline
 90
        4
 70
     1
 43
0.0
 10
-265.8339551836432
 20
-329.9331045144903
 10
-267.5415430727615
 20
-332.8564771070505
 10
-267.5415430717517
 20
-329.4809246295271
 10
-266.45894618961
 20
-328.8631264526935
  0
LWPOLYLINE
  5
85
330
5F7
100
AcDbEntity
  8
0
100
AcDbPolyline
 90
       10
 70
     1
 43
0.0
 10
-17.00715112707249
 20
-324.6464000803365
 10
-17.00613735507579
 20
-331.6434376442336
 10
-20.66710693250138
 20
-337.9192688510898
 10
-23.01474957469878
 20
-337.919268832457
 10
-24.18494276022719
 20
-335.9159103089224
 10
-21.3713256593467
 20
-331.1090321479837
 10
-23.40413271590779
 20
-329.9489840136875
 10
-21.06190474625839
 20
-329.9489840129544
 10
-21.0619047479621
 20
-324.6353881951746
 10
-19.04360709227228
 20
-323.4114160224775
  0
LWPOLYLINE
  5
86
330
5F7
100
AcDbEntity
  8
0
100
AcDbPolyline
 90
       10
 70
     1
 43
0.0
 10
-98.69230511038784
 20
-324.6353881951746
 10
-98.69230511209156
 20
-329.9489840129544
 10
-96.3500771424424
 20
-329.9489840136875
 10
-98.38288419900358
 20
-331.1090321479837
 10
-95.56926709812296
 20
-335.9159103089224
 10
-96.73946028365136
 20
-337.919268832457
 10
-99.08710292584871
 20
-337.9192688510898
 10
-102.7480725032744
 20
-331.6434376442336
 10
-102.7470587312776
 20
-324.6464000803365
 10
-100.7106027660778
 20
-323.4114160224775
  0
LWPOLYLINE
  5
87
330
5F7
100
AcDbEntity
  8
0
100
AcDbPolyline
 90
       10
 70
     1
 43
0.0
 10
-201.4516691424403
 20
-324.6353881951746
 10
-201.451669144144
 20
-329.9489840129544
 10
-199.1094411744947
 20
-329.9489840136875
 10
-201.1422482310558
 20
-331.1090321479837
 10
-198.3286311301753
 20
-335.9159103089224
 10
-199.4988243157037
 20
-337.919268832457
 10
-201.846466957901
 20
-337.9192688510898
 10
-205.5074365353267
 20
-331.6434376442336
 10
-205.5064227633299
 20
-324.6464000803365
 10
-203.4699667981301
 20
-323.4114160224775
  0
LWPOLYLINE
  5
88
330
5F7
100
AcDbEntity
  8
0
100
AcDbPolyline
 90
       10
 70
     1
 43
0.0
 10
-221.2642153933515
 20
-324.6464000803365
 10
-221.2632016213548
 20
-331.6434376442336
 10
-224.9241711987805
 20
-337.9192688510898
 10
-227.2718138409778
 20
-337.919268832457
 10
-228.4420070265062
 20
-335.9159103089224
 10
-225.6283899256257
 20
-331.1090321479837
 10
-227.6611969821868
 20
-329.9489840136875
 10
-225.3189690125374
 20
-329.9489840129544
 10
-225.3189690142412
 20
-324.6353881951746
 10
-223.3006713585514
 20
-323.4114160224775
  0
LWPOLYLINE
  5
89
330
5F7
100
AcDbEntity
  8
0
100
AcDbPolyline
 90
       10
 70
     1
 43
0.0
 10
-302.9493693766669
 20
-324.6353881951746
 10
-302.9493693783706
 20
-329.9489840129544
 10
-300.6071414087214
 20
-329.9489840136875
 10
-302.6399484652827
 20
-331.1090321479837
 10
-299.826331364402
 20
-335.9159103089224
 10
-300.9965245499304
 20
-337.919268832457
 10
-303.3441671921277
 20
-337.9192688510898
 10
-307.0051367695534
 20
-331.6434376442336
 10
-307.0041229975566
 20
-324.6464000803365
 10
-304.9676670323568
 20
-323.4114160224775
  0
LWPOLYLINE
  5
8A
330
5F7
100
AcDbEntity
  8
0
100
AcDbPolyline
 90
        6
 70
     1
 43
0.0
 10
-73.50959564172061
 20
-328.067163708028
 10
-74.91301773011795
 20
-332.6757046010798
 10
-87.79471049244754
 20
-340.0283994729683
 10
-92.03124162111759
 20
-338.6408532622926
 10
-91.12844496246204
 20
-334.3198487116284
 10
-78.2202363925467
 20
-326.9520189777221
  0
LWPOLYLINE
  5
8B
330
5F7
100
AcDbEntity
  8
0
100
AcDbPolyline
 90
        6
 70
     1
 43
0.0
 10
-277.7666599079996
 20
-328.067163708028
 10
-279.170081996397
 20
-332.6757046010798
 10
-292.0517747587266
 20
-340.0283994729683
 10
-296.2883058873967
 20
-338.6408532622926
 10
-295.385509228741
 20
-334.3198487116284
 10
-282.4773006588258
 20
-326.9520189777221
  0
LWPOLYLINE
  5
8C
330
5F7
100
AcDbEntity
  8
0
100
AcDbPolyline
 90
        6
 70
     1
 43
0.0
 10
-28.62576489588838
 20
-334.3198487116292
 10
-27.72296823723278
 20
-338.6408532622933
 10
-31.9594993659031
 20
-340.028399472969
 10
-44.86770793582197
 20
-332.6605697390689
 10
-46.24617886680531
 20
-328.069842951091
 10
-41.50745765821799
 20
-326.9671538397407
  0
LWPOLYLINE
  5
8D
330
5F7
100
AcDbEntity
  8
0
100
AcDbPolyline
 90
        6
 70
     1
 43
0.0
 10
-232.8828291621675
 20
-334.3198487116292
 10
-231.9800325035119
 20
-338.6408532622933
 10
-236.2165636321821
 20
-340.028399472969
 10
-249.1247722021011
 20
-332.6605697390689
 10
-250.5032431330844
 20
-328.069842951091
 10
-245.7645219244971
 20
-326.9671538397407
  0
LWPOLYLINE
  5
8E
330
5F7
100
AcDbEntity
  8
0
100
AcDbPolyline
 90
        6
 70
     1
 43
0.0
 10
-209.1914455147804
 20
-332.6143496887168
 10
-209.1914455147804
 20
-341.6087849988517
 10
-213.3853190783407
 20
-339.6792595399513
 10
-217.5791926419011
 20
-341.6087849988517
 10
-217.5791926419011
 20
-332.6143496887168
 10
-213.3853190783407
 20
-325.6227015720033
  0
LWPOLYLINE
  5
8F
330
5F7
100
AcDbEntity
  8
0
100
AcDbPolyline
 90
        6
 70
     1
 43
0.0
 10
-220.7153365469372
 20
-345.0667064637674
 10
-224.9212960057789
 20
-347.4693356128601
 10
-223.6417240514504
 20
-345.2342223010643
 10
-225.2518070218314
 20
-342.4777770557807
 10
-222.0315630537885
 20
-342.4777777814821
 10
-220.7032307935858
 20
-340.2582574843628
  0
LWPOLYLINE
  5
90
330
5F7
100
AcDbEntity
  8
0
100
AcDbPolyline
 90
        6
 70
     1
 43
0.0
 10
-101.6562372035874
 20
-342.1237303380927
 10
-99.024128504425
 20
-342.0617822448842
 10
-100.1138549872365
 20
-344.5494914077812
 10
-99.75996719818757
 20
-345.5223084112275
 10
-102.1445764106047
 20
-344.0356236810986
 10
-102.1216627291557
 20
-341.4765615642243
  0
LWPOLYLINE
  5
91
330
5F7
100
AcDbEntity
  8
0
100
AcDbPolyline
 90
        6
 70
     1
 43
0.0
 10
-204.739075102893
 20
-342.4777777814821
 10
-201.5188311348501
 20
-342.4777770557807
 10
-203.1289141052312
 20
-345.2342223010643
 10
-201.8493421509026
 20
-347.4693356128601
 10
-206.0553016097442
 20
-345.0667064637674
 10
-206.0674073630957
 20
-340.2582574843628
  0
LWPOLYLINE
  5
92
330
5F7
100
AcDbEntity
  8
0
100
AcDbPolyline
 90
       10
 70
     1
 43
0.0
 10
-25.99841754890519
 20
-343.0280056304628
 10
-24.82856437386488
 20
-345.0307820595917
 10
-28.49488786533209
 20
-351.3070336559335
 10
-34.84502086314839
 20
-354.9310839370762
 10
-36.8715117508679
 20
-353.7746402299985
 10
-36.8715117711664
 20
-351.4529548631282
 10
-32.01203234712608
 20
-348.6740570000625
 10
-33.17710005409978
 20
-346.6794732806826
 10
-31.1592212400507
 20
-347.8310024166733
 10
-28.34787601906098
 20
-343.0280056118148
  0
LWPOLYLINE
  5
93
330
5F7
100
AcDbEntity
  8
0
100
AcDbPolyline
 90
       10
 70
     1
 43
0.0
 10
-230.2554818151842
 20
-343.0280056304628
 10
-229.085628640144
 20
-345.0307820595917
 10
-232.7519521316111
 20
-351.3070336559335
 10
-239.1020851294275
 20
-354.9310839370762
 10
-241.128576017147
 20
-353.7746402299985
 10
-241.1285760374454
 20
-351.4529548631282
 10
-236.2690966134051
 20
-348.6740570000625
 10
-237.434164320379
 20
-346.6794732806826
 10
-235.4162855063298
 20
-347.8310024166733
 10
-232.60494028534
 20
-343.0280056118148
  0
LWPOLYLINE
  5
94
330
5F7
100
AcDbEntity
  8
0
100
AcDbPolyline
 90
        6
 70
     1
 43
0.0
 10
-66.63336073864181
 20
-338.4485129181704
 10
-74.07060952259081
 20
-351.1837540088325
 10
-78.44130440382837
 20
-352.0762867928347
 10
-79.84480700359974
 20
-347.8879206900903
 10
-72.39224931100537
 20
-335.1264652494514
 10
-67.74873046298847
 20
-333.7636661230913
  0
LWPOLYLINE
  5
95
330
5F7
100
AcDbEntity
  8
0
100
AcDbPolyline
 90
        6
 70
     1
 43
0.0
 10
-270.8904250049209
 20
-338.4485129181704
 10
-278.3276737888699
 20
-351.1837540088325
 10
-282.6983686701074
 20
-352.0762867928347
 10
-284.1018712698788
 20
-347.8879206900903
 10
-276.6493135772844
 20
-335.1264652494514
 10
-272.0057947292675
 20
-333.7636661230913
  0
LWPOLYLINE
  5
96
330
5F7
100
AcDbEntity
  8
0
100
AcDbPolyline
 90
        6
 70
     1
 43
0.0
 10
-47.34665163870018
 20
-335.1526795994287
 10
-39.90940285475111
 20
-347.8879206900907
 10
-41.31290545452239
 20
-352.0762867928352
 10
-45.68360033575999
 20
-351.1837540088328
 10
-53.13615802836068
 20
-338.4222985681976
 10
-52.0081894489623
 20
-333.7652129847949
  0
LWPOLYLINE
  5
97
330
5F7
100
AcDbEntity
  8
0
100
AcDbPolyline
 90
        6
 70
     1
 43
0.0
 10
-251.6037159049793
 20
-335.1526795994287
 10
-244.1664671210302
 20
-347.8879206900907
 10
-245.5699697208015
 20
-352.0762867928352
 10
-249.9406646020391
 20
-351.1837540088328
 10
-257.3932222946398
 20
-338.4222985681976
 10
-256.2652537152413
 20
-333.7652129847949
  0
LWPOLYLINE
  5
98
330
5F7
100
AcDbEntity
  8
0
100
AcDbPolyline
 90
       10
 70
     1
 43
0.0
 10
-88.59498861829953
 20
-347.8310024166733
 10
-86.5771098042502
 20
-346.6794732806826
 10
-87.74217751122412
 20
-348.6740570000625
 10
-82.88269808718366
 20
-351.4529548631282
 10
-82.88269810748216
 20
-353.7746402299985
 10
-84.90918899520167
 20
-354.9310839370762
 10
-91.25932199301791
 20
-351.3070336559335
 10
-94.92564548448513
 20
-345.0307820595917
 10
-93.75579230944484
 20
-343.0280056304628
 10
-91.40633383928907
 20
-343.0280056118148
  0
LWPOLYLINE
  5
99
330
5F7
100
AcDbEntity
  8
0
100
AcDbPolyline
 90
       10
 70
     1
 43
0.0
 10
-292.8520528845785
 20
-347.8310024166733
 10
-290.8341740705294
 20
-346.6794732806826
 10
-291.9992417775031
 20
-348.6740570000625
 10
-287.1397623534627
 20
-351.4529548631282
 10
-287.1397623737612
 20
-353.7746402299985
 10
-289.1662532614807
 20
-354.9310839370762
 10
-295.516386259297
 20
-351.3070336559335
 10
-299.182709750764
 20
-345.0307820595917
 10
-298.0128565757239
 20
-343.0280056304628
 10
-295.6633981055682
 20
-343.0280056118148
  0
LWPOLYLINE
  5
9A
330
5F7
100
AcDbEntity
  8
0
100
AcDbPolyline
 90
        6
 70
     1
 43
0.0
 10
-56.543370459161
 20
-339.355148692105
 10
-56.543370459161
 20
-354.0605384358821
 10
-59.87710492917539
 20
-356.9939967758705
 10
-63.21083939919006
 20
-354.060538435882
 10
-63.21083939919372
 20
-339.3248789680757
 10
-59.87866957935088
 20
-335.8492969104036
  0
LWPOLYLINE
  5
9B
330
5F7
100
AcDbEntity
  8
0
100
AcDbPolyline
 90
        6
 70
     1
 43
0.0
 10
-260.80043472544
 20
-339.355148692105
 10
-260.80043472544
 20
-354.0605384358821
 10
-264.1341691954545
 20
-356.9939967758705
 10
-267.4679036654691
 20
-354.060538435882
 10
-267.4679036654728
 20
-339.3248789680757
 10
-264.13573384563
 20
-335.8492969104036
  0
LWPOLYLINE
  5
9C
330
5F7
100
AcDbEntity
  8
0
100
AcDbPolyline
 90
       10
 70
     1
 43
0.0
 10
-42.03962185925379
 20
-356.7243110776121
 10
-42.03962183897039
 20
-359.0442015287761
 10
-48.3890599427117
 20
-362.6628060046095
 10
-55.4685505464507
 20
-362.6618039135341
 10
-56.71785550518931
 20
-360.6491778550912
 10
-55.47969144780707
 20
-358.6544997483624
 10
-50.10379471747439
 20
-358.6544997467918
 10
-50.10379471816719
 20
-356.3384940050444
 10
-48.9297397444881
 20
-358.3484638309505
 10
-44.0667019707084
 20
-355.5675311222498
  0
LWPOLYLINE
  5
9D
330
5F7
100
AcDbEntity
  8
0
100
AcDbPolyline
 90
       10
 70
     1
 43
0.0
 10
-246.2966861255328
 20
-356.7243110776121
 10
-246.2966861052495
 20
-359.0442015287761
 10
-252.6461242089907
 20
-362.6628060046095
 10
-259.7256148127297
 20
-362.6618039135341
 10
-260.9749197714683
 20
-360.6491778550912
 10
-259.7367557140861
 20
-358.6544997483624
 10
-254.3608589837535
 20
-358.6544997467918
 10
-254.3608589844463
 20
-356.3384940050444
 10
-253.1868040107671
 20
-358.3484638309505
 10
-248.3237662369874
 20
-355.5675311222498
  0
LWPOLYLINE
  5
9E
330
5F7
100
AcDbEntity
  8
0
100
AcDbPolyline
 90
        8
 70
     1
 43
0.0
 10
-209.0904226128194
 20
-347.054049837907
 10
-209.0904226128194
 20
-354.8840906687649
 10
-213.2837275098126
 20
-359.0787061837215
 10
-213.3853190783407
 20
-358.9776334075552
 10
-213.4869106468689
 20
-359.0787061837215
 10
-217.680215543862
 20
-354.8840906687649
 10
-217.680215543862
 20
-347.054049837907
 10
-213.3853190783407
 20
-344.8621940448192
  0
LWPOLYLINE
  5
9F
330
5F7
100
AcDbEntity
  8
0
100
AcDbPolyline
 90
        6
 70
     1
 43
0.0
 10
-82.32614279889682
 20
-361.9037296794621
 10
-80.08107182591869
 20
-363.2164089608798
 10
-84.94567950829216
 20
-363.2044438784998
 10
-87.37636154460306
 20
-359.0473728165434
 10
-85.11501473366118
 20
-360.3121478878155
 10
-82.32614206268351
 20
-358.7206409781413
  0
LWPOLYLINE
  5
A0
330
5F7
100
AcDbEntity
  8
0
100
AcDbPolyline
 90
        9
 70
     1
 43
0.0
 10
-94.0116699200621
 20
-354.3638458806096
 10
-89.90919994805116
 20
-362.4082563223125
 10
-96.34932953101142
 20
-362.1395126713752
 10
-100.147994965626
 20
-365.3338544625912
 10
-102.0941775960129
 20
-365.3338544625912
 10
-102.0678852425467
 20
-362.3166163568819
 10
-107.0787066471386
 20
-361.9090781355713
 10
-101.8969225774514
 20
-356.4788727541277
 10
-101.716033879996
 20
-349.9208927511349
  0
LWPOLYLINE
  5
A1
330
5F7
100
AcDbEntity
  8
0
100
AcDbPolyline
 90
       10
 70
     1
 43
0.0
 10
-70.82447011386195
 20
-358.3484638309504
 10
-69.6504151401829
 20
-356.3384940050444
 10
-69.65041514087556
 20
-358.6544997467918
 10
-64.27451841054301
 20
-358.6544997483624
 10
-63.03635435316085
 20
-360.6491778550912
 10
-64.28565931189936
 20
-362.6618039135341
 10
-71.36514991563846
 20
-362.6628060046095
 10
-77.71458801937964
 20
-359.0442015287761
 10
-77.7145879990963
 20
-356.7243110776121
 10
-75.68750788764178
 20
-355.5675311222498
  0
LWPOLYLINE
  5
A2
330
5F7
100
AcDbEntity
  8
0
100
AcDbPolyline
 90
       10
 70
     1
 43
0.0
 10
-275.081534380141
 20
-358.3484638309504
 10
-273.9074794064619
 20
-356.3384940050444
 10
-273.9074794071546
 20
-358.6544997467918
 10
-268.5315826768221
 20
-358.6544997483624
 10
-267.2934186194399
 20
-360.6491778550912
 10
-268.5427235781784
 20
-362.6618039135341
 10
-275.6222141819174
 20
-362.6628060046095
 10
-281.9716522856587
 20
-359.0442015287761
 10
-281.9716522653754
 20
-356.7243110776121
 10
-279.9445721539208
 20
-355.5675311222498
  0
LWPOLYLINE
  5
A3
330
5F7
100
AcDbEntity
  8
0
100
AcDbPolyline
 90
        6
 70
     1
 43
0.0
 10
-238.896259390968
 20
-360.3121478878155
 10
-236.634912580026
 20
-359.0473728165434
 10
-239.065594616337
 20
-363.2044438784998
 10
-243.9302022987105
 20
-363.2164089608798
 10
-241.6851313257324
 20
-361.9037296794621
 10
-241.6851320619456
 20
-358.7206409781413
  0
LWPOLYLINE
  5
A4
330
5F7
100
AcDbEntity
  8
0
100
AcDbPolyline
 90
        9
 70
     1
 43
0.0
 10
-222.3087645096183
 20
-356.1863518072302
 10
-217.1269804399311
 20
-361.6165571886738
 10
-222.1378018445231
 20
-362.0240954099842
 10
-222.1089604498932
 20
-365.3338544625912
 10
-223.7098304076671
 20
-365.3338544625912
 10
-227.8563575560583
 20
-361.8469917244777
 10
-234.2964871390186
 20
-362.1157353754149
 10
-230.1940171670076
 20
-354.071324933712
 10
-222.4896532070737
 20
-349.6283718042372
  0
LWPOLYLINE
  5
A5
330
5F7
100
AcDbEntity
  8
0
100
AcDbPolyline
 90
        6
 70
     1
 43
0.0
 10
-119.2176360282636
 20
-295.5122250386747
 10
-119.2055302719329
 20
-300.3206740180644
 10
-120.533862533511
 20
-298.101153721754
 10
-123.754106501556
 20
-298.1011544494073
 10
-122.1440235328816
 20
-295.3447092031492
 10
-123.4235954885957
 20
-293.1095958921233
  0
LWPOLYLINE
  5
A6
330
5F7
100
AcDbEntity
  8
0
100
AcDbPolyline
 90
        6
 70
     1
 43
0.0
 10
-130.4823322692852
 20
-301.9345662351377
 10
-131.3851289279408
 20
-306.2555707858016
 10
-144.2668216902704
 20
-313.6082656576901
 10
-149.0055428988577
 20
-312.5055765463399
 10
-147.6270719678744
 20
-307.9148497583619
 10
-134.7188633979553
 20
-300.5470200244618
  0
LWPOLYLINE
  5
A7
330
5F7
100
AcDbEntity
  8
0
100
AcDbPolyline
 90
       10
 70
     1
 43
0.0
 10
-119.765501094367
 20
-308.9354938585412
 10
-119.7665148620302
 20
-315.9325314224393
 10
-121.8029708264651
 20
-317.1675154815291
 10
-123.8212684829132
 20
-315.9435433100544
 10
-123.8212684845022
 20
-310.629947492275
 10
-126.1634964541522
 20
-310.6299474929594
 10
-124.1306893983072
 20
-309.4698993574303
 10
-126.9443065021665
 20
-304.6630211981979
 10
-125.7741133178786
 20
-302.6596626739533
 10
-123.4264706756814
 20
-302.6596626539
  0
LWPOLYLINE
  5
A8
330
5F7
100
AcDbEntity
  8
0
100
AcDbPolyline
 90
        6
 70
     1
 43
0.0
 10
-128.4752622933878
 20
-316.9918764299728
 10
-125.5080700119214
 20
-320.287709748715
 10
-128.4752622933875
 20
-323.5835430674571
 10
-143.3497598612858
 20
-323.5835430674571
 10
-146.8959279472011
 20
-320.2861628870118
 10
-143.3803776785826
 20
-316.9918764299692
  0
LWPOLYLINE
  5
A9
330
5F7
100
AcDbEntity
  8
0
100
AcDbPolyline
 90
        6
 70
     1
 43
0.0
 10
-112.5007334866829
 20
-320.2892041382368
 10
-114.9226977953464
 20
-324.4595132737938
 10
-114.9503025978166
 20
-321.8809018235083
 10
-117.7390523149851
 20
-320.2894658875588
 10
-114.9503693940758
 20
-318.6980671976299
 10
-114.9278566046162
 20
-316.1297633596407
  0
LWPOLYLINE
  5
AA
330
5F7
100
AcDbEntity
  8
0
100
AcDbPolyline
 90
       10
 70
     1
 43
0.0
 10
-119.7665151591249
 20
-324.6464000803365
 10
-119.7655013871281
 20
-331.6434376442336
 10
-123.4264709645537
 20
-337.9192688510898
 10
-125.7741136067511
 20
-337.919268832457
 10
-126.9443067922795
 20
-335.9159103089224
 10
-124.1306896913989
 20
-331.1090321479837
 10
-126.1634967479601
 20
-329.9489840136875
 10
-123.8212687783109
 20
-329.9489840129544
 10
-123.8212687800145
 20
-324.6353881951746
 10
-121.8029711243246
 20
-323.4114160224775
  0
LWPOLYLINE
  5
AB
330
5F7
100
AcDbEntity
  8
0
100
AcDbPolyline
 90
        6
 70
     1
 43
0.0
 10
-131.3851289279404
 20
-334.3198487116284
 10
-130.4823322692848
 20
-338.6408532622926
 10
-134.7188633979549
 20
-340.0283994729683
 10
-147.6005561602845
 20
-332.6757046010798
 10
-149.0039782486818
 20
-328.067163708028
 10
-144.2933374978556
 20
-326.9520189777221
  0
LWPOLYLINE
  5
AC
330
5F7
100
AcDbEntity
  8
0
100
AcDbPolyline
 90
        6
 70
     1
 43
0.0
 10
-120.3689974797977
 20
-344.0356236810986
 10
-122.7536066922149
 20
-345.5223084112275
 10
-122.3997189031659
 20
-344.5494914077812
 10
-123.4894453859774
 20
-342.0617822448842
 10
-120.8573366868151
 20
-342.1237303380927
 10
-120.3919111612468
 20
-341.4765615642243
  0
LWPOLYLINE
  5
AD
330
5F7
100
AcDbEntity
  8
0
100
AcDbPolyline
 90
       10
 70
     1
 43
0.0
 10
-128.7577815809576
 20
-343.0280056304628
 10
-127.5879284059173
 20
-345.0307820595917
 10
-131.2542518973845
 20
-351.3070336559335
 10
-137.6043848952008
 20
-354.9310839370762
 10
-139.6308757829203
 20
-353.7746402299985
 10
-139.6308758032188
 20
-351.4529548631282
 10
-134.7713963791783
 20
-348.6740570000625
 10
-135.9364640861522
 20
-346.6794732806826
 10
-133.9185852721029
 20
-347.8310024166733
 10
-131.1072400511134
 20
-343.0280056118148
  0
LWPOLYLINE
  5
AE
330
5F7
100
AcDbEntity
  8
0
100
AcDbPolyline
 90
        6
 70
     1
 43
0.0
 10
-150.1213245793971
 20
-335.1264652494514
 10
-142.6687668868027
 20
-347.8879206900903
 10
-144.072269486574
 20
-352.0762867928347
 10
-148.4429643678116
 20
-351.1837540088325
 10
-155.8802131517606
 20
-338.4485129181704
 10
-154.764843427414
 20
-333.7636661230913
  0
LWPOLYLINE
  5
AF
330
5F7
100
AcDbEntity
  8
0
100
AcDbPolyline
 90
       10
 70
     1
 43
0.0
 10
-144.7989858913062
 20
-356.7243110776121
 10
-144.7989858710228
 20
-359.0442015287761
 10
-151.148423974764
 20
-362.6628060046095
 10
-158.2279145785031
 20
-362.6618039135341
 10
-159.4772195372416
 20
-360.6491778550912
 10
-158.2390554798594
 20
-358.6544997483624
 10
-152.8631587495269
 20
-358.6544997467918
 10
-152.8631587502195
 20
-356.3384940050444
 10
-151.6891037765405
 20
-358.3484638309504
 10
-146.8260660027607
 20
-355.5675311222498
  0
LWPOLYLINE
  5
B0
330
5F7
100
AcDbEntity
  8
0
100
AcDbPolyline
 90
        6
 70
     1
 43
0.0
 10
-137.3985591567412
 20
-360.3121478878155
 10
-135.1372123457994
 20
-359.0473728165434
 10
-137.5678943821103
 20
-363.2044438784998
 10
-142.4325020644838
 20
-363.2164089608798
 10
-140.1874310915055
 20
-361.9037296794621
 10
-140.1874318277189
 20
-358.7206409781413
  0
LWPOLYLINE
  5
B1
330
5F7
100
AcDbEntity
  8
0
100
AcDbPolyline
 90
        9
 70
     1
 43
0.0
 10
-120.616651312951
 20
-356.4788727541277
 10
-115.4348672432639
 20
-361.9090781355713
 10
-120.4456886478558
 20
-362.3166163568819
 10
-120.4193962943896
 20
-365.3338544625912
 10
-122.3655789247763
 20
-365.3338544625912
 10
-126.1642443593911
 20
-362.1395126713752
 10
-132.6043739423513
 20
-362.4082563223125
 10
-128.5019039703404
 20
-354.3638458806096
 10
-120.7975400104065
 20
-349.9208927511349
  0
LWPOLYLINE
  5
B2
330
5F7
100
AcDbEntity
  8
0
100
AcDbPolyline
 90
        6
 70
     1
 43
0.0
 10
-169.3774158620417
 20
-338.4222985681976
 10
-176.8299735546424
 20
-351.1837540088328
 10
-181.20066843588
 20
-352.0762867928352
 10
-182.6041710356513
 20
-347.8879206900907
 10
-175.1669222517022
 20
-335.1526795994287
 10
-170.5053844414402
 20
-333.7652129847949
  0
LWPOLYLINE
  5
B3
330
5F7
100
AcDbEntity
  8
0
100
AcDbPolyline
 90
        6
 70
     1
 43
0.0
 10
-159.3027344912087
 20
-339.3248789680757
 10
-159.3027344912124
 20
-354.060538435882
 10
-162.636468961227
 20
-356.9939967758705
 10
-165.9702034312415
 20
-354.0605384358821
 10
-165.9702034312415
 20
-339.355148692105
 10
-162.6349043110515
 20
-335.8492969104036
  0
LWPOLYLINE
  5
B4
330
5F7
100
AcDbEntity
  8
0
100
AcDbPolyline
 90
        6
 70
     1
 43
0.0
 10
-185.0855068309491
 20
-361.9037296794621
 10
-182.840435857971
 20
-363.2164089608798
 10
-187.7050435403445
 20
-363.2044438784998
 10
-190.1357255766553
 20
-359.0473728165434
 10
-187.8743787657135
 20
-360.3121478878155
 10
-185.0855060947359
 20
-358.7206409781413
  0
LWPOLYLINE
  5
B5
330
5F7
100
AcDbEntity
  8
0
100
AcDbPolyline
 90
       10
 70
     1
 43
0.0
 10
-173.5838341459144
 20
-358.3484638309505
 10
-172.4097791722352
 20
-356.3384940050444
 10
-172.409779172928
 20
-358.6544997467918
 10
-167.0338824425953
 20
-358.6544997483624
 10
-165.7957183852132
 20
-360.6491778550912
 10
-167.0450233439518
 20
-362.6618039135341
 10
-174.1245139476907
 20
-362.6628060046095
 10
-180.473952051432
 20
-359.0442015287761
 10
-180.4739520311487
 20
-356.7243110776121
 10
-178.446871919694
 20
-355.5675311222498
  0
LWPOLYLINE
  5
B6
330
5F7
100
AcDbEntity
  8
0
100
AcDbPolyline
 90
        4
 70
     1
 43
0.0
 10
-159.2290950849298
 20
-329.4809246295271
 10
-159.22909508392
 20
-332.8564771070505
 10
-160.9366829730383
 20
-329.9331045144903
 10
-160.3116919670715
 20
-328.8631264526935
  0
LWPOLYLINE
  5
B7
330
5F7
100
AcDbEntity
  8
0
100
AcDbPolyline
 90
        4
 70
     1
 43
0.0
 10
-164.3362549494164
 20
-329.9331045144903
 10
-166.0438428385348
 20
-332.8564771070505
 10
-166.043842837525
 20
-329.4809246295271
 10
-164.9612459553832
 20
-328.8631264526935
  0
LWPOLYLINE
  5
B8
330
5F7
100
AcDbEntity
  8
0
100
AcDbPolyline
 90
        4
 70
     1
 43
0.0
 10
-152.8792416631269
 20
-318.6098944050323
 10
-153.9617736705906
 20
-317.9921332497991
 10
-153.3368201180515
 20
-316.9222193078957
 10
-149.9218489977811
 20
-316.9222193068977
  0
LWPOLYLINE
  5
B9
330
5F7
100
AcDbEntity
  8
0
100
AcDbPolyline
 90
        4
 70
     1
 43
0.0
 10
-149.9218492022565
 20
-323.656712220787
 10
-153.3368203225273
 20
-323.6567122218564
 10
-153.9617738757282
 20
-322.5867982803318
 10
-152.8792418686484
 20
-321.9690371244416
  0
LWPOLYLINE
  5
BA
330
5F7
100
AcDbEntity
  8
0
100
AcDbPolyline
 90
        4
 70
     1
 43
0.0
 10
-153.3284627266576
 20
-329.4890554051819
 10
-156.2860326279712
 20
-327.8012791672308
 10
-156.28603262832
 20
-326.5658579976297
 10
-155.0359482876022
 20
-326.5658579972925
  0
LWPOLYLINE
  5
BB
330
5F7
100
AcDbEntity
  8
0
100
AcDbPolyline
 90
        8
 70
     1
 43
0.0
 10
-106.9618904796791
 20
-285.6331310282245
 10
-106.9618904796791
 20
-293.1721633682522
 10
-111.1658692363862
 20
-295.4987462749485
 10
-111.2567869452012
 20
-295.4526254224216
 10
-111.3477046540163
 20
-295.4987462749485
 10
-115.5516834107233
 20
-293.1721633682522
 10
-115.5516834107233
 20
-285.6331310282245
 10
-111.2567869452012
 20
-281.3371860596856
  0
LWPOLYLINE
  5
BC
330
5F7
100
AcDbEntity
  8
0
100
AcDbPolyline
 90
       10
 70
     1
 43
0.0
 10
-106.9618904796791
 20
-307.5019078056665
 10
-111.163255504986
 20
-314.7450885550257
 10
-111.2567869452012
 20
-314.5900771400355
 10
-111.3503183854164
 20
-314.7450885550257
 10
-115.5516834107233
 20
-307.5019078056665
 10
-115.5516834107233
 20
-298.7281538134734
 10
-111.5677333388979
 20
-300.6762898325529
 10
-111.2567869452012
 20
-300.5334661218472
 10
-110.9458405515045
 20
-300.6762898325529
 10
-106.9618904796791
 20
-298.7281538134734
  0
LWPOLYLINE
  5
BD
330
5F7
100
AcDbEntity
  8
0
100
AcDbPolyline
 90
       10
 70
     1
 43
0.0
 10
-106.9618904796791
 20
-332.7108178561318
 10
-106.9618904796791
 20
-341.4845718483251
 10
-110.9458405515045
 20
-339.5364358292455
 10
-111.2567869452012
 20
-339.6792595399514
 10
-111.5677333388979
 20
-339.5364358292455
 10
-115.5516834107233
 20
-341.4845718483251
 10
-115.5516834107233
 20
-332.7108178561318
 10
-111.350331519608
 20
-325.4676597502048
 10
-111.2567869452012
 20
-325.6227015720032
 10
-111.1632423707944
 20
-325.4676597502048
  0
LWPOLYLINE
  5
BE
330
5F7
100
AcDbEntity
  8
0
100
AcDbPolyline
 90
        8
 70
     1
 43
0.0
 10
-106.9618904796791
 20
-347.1426560989885
 10
-106.9618904796791
 20
-354.6816884390162
 10
-111.2567869452012
 20
-358.9776334075556
 10
-115.5516834107233
 20
-354.6816884390162
 10
-115.5516834107233
 20
-347.1426560989885
 10
-111.3477046540163
 20
-344.8160731922921
 10
-111.2567869452012
 20
-344.8621940448191
 10
-111.1658692363862
 20
-344.8160731922921
  0
LWPOLYLINE
  5
BF
330
5F7
100
AcDbEntity
  8
0
100
AcDbPolyline
 90
        6
 70
     1
 43
0.0
 10
-138.6382669232528
 20
-278.5001190023009
 10
-137.3114655442504
 20
-280.699306254147
 10
-138.0586475030105
 20
-280.3875860887162
 10
-140.2610803825412
 20
-281.8167730911536
 10
-140.6360015041753
 20
-279.135222322533
 10
-141.4567024821189
 20
-278.4847800896119
  0
LWPOLYLINE
  5
C0
330
5F7
100
AcDbEntity
  8
0
100
AcDbPolyline
 90
       10
 70
     1
 43
0.0
 10
-144.7989855952346
 20
-281.5347299891453
 10
-144.7989856140815
 20
-283.8546204403091
 10
-146.826065724817
 20
-285.0114003968976
 10
-151.6891035003233
 20
-282.2304676911409
 10
-152.8631584727548
 20
-284.2404375177562
 10
-152.8631584734968
 20
-281.9244317760101
 10
-158.2390552038277
 20
-281.9244317776942
 10
-159.4772192624467
 20
-279.929753671714
 10
-158.2279143049548
 20
-277.9171276125161
 10
-151.1484237012174
 20
-277.9161255171571
  0
LWPOLYLINE
  5
C1
330
5F7
100
AcDbEntity
  8
0
100
AcDbPolyline
 90
        6
 70
     1
 43
0.0
 10
-142.6687668868035
 20
-292.6874988073402
 10
-150.1060156707525
 20
-305.4227398980022
 10
-154.7675534810146
 20
-306.8102065126359
 10
-155.8955220604131
 20
-302.1531209292332
 10
-148.4429643678124
 20
-289.3916654885982
 10
-144.0722694865748
 20
-288.4991327045958
  0
LWPOLYLINE
  5
C2
330
5F7
100
AcDbEntity
  8
0
100
AcDbPolyline
 90
        4
 70
     1
 43
0.0
 10
-159.2290948840618
 20
-311.0980069037922
 10
-160.311691765821
 20
-311.7158050812798
 10
-160.9366827724519
 20
-310.6458270198617
 10
-159.2290948851438
 20
-307.7224544262677
  0
LWPOLYLINE
  5
C3
330
5F7
100
AcDbEntity
  8
0
100
AcDbPolyline
 90
        4
 70
     1
 43
0.0
 10
-164.3362551500029
 20
-310.6458270198617
 10
-164.9612461566337
 20
-311.7158050812798
 10
-166.043843038393
 20
-311.0980069037922
 10
-166.043843037311
 20
-307.7224544262677
  0
LWPOLYLINE
  5
C4
330
5F7
100
AcDbEntity
  8
0
100
AcDbPolyline
 90
        4
 70
     1
 43
0.0
 10
-168.9869054956858
 20
-312.7776523634924
 10
-168.9869054960261
 20
-314.0130735331347
 10
-170.236989836703
 20
-314.0130735327899
 10
-171.944475396018
 20
-311.0898761239302
  0
LWPOLYLINE
  5
C5
330
5F7
100
AcDbEntity
  8
0
100
AcDbPolyline
 90
        4
 70
     1
 43
0.0
 10
-171.9361178044032
 20
-316.9222193078957
 10
-171.3111642518641
 20
-317.9921332497991
 10
-172.3936962593278
 20
-318.6098944050323
 10
-175.3510889246735
 20
-316.9222193068977
  0
LWPOLYLINE
  5
C6
330
5F7
100
AcDbEntity
  8
0
100
AcDbPolyline
 90
        4
 70
     1
 43
0.0
 10
-171.3111640467266
 20
-322.5867982803318
 10
-171.9361175999275
 20
-323.6567122218564
 10
-175.3510887201981
 20
-323.656712220787
 10
-172.3936960538063
 20
-321.9690371244416
  0
LWPOLYLINE
  5
C7
330
5F7
100
AcDbEntity
  8
0
100
AcDbPolyline
 90
        6
 70
     1
 43
0.0
 10
-176.2673950235971
 20
-328.069842951091
 10
-177.6458659545804
 20
-332.6605697390689
 10
-190.5540745244994
 20
-340.028399472969
 10
-194.7906056531696
 20
-338.6408532622933
 10
-193.887808994514
 20
-334.3198487116292
 10
-181.0061162321844
 20
-326.9671538397407
  0
LWPOLYLINE
  5
C8
330
5F7
100
AcDbEntity
  8
0
100
AcDbPolyline
 90
        9
 70
     1
 43
0.0
 10
-120.5473547366854
 20
-278.3325989445202
 10
-115.5271288059983
 20
-278.6019202733532
 10
-120.5570942689223
 20
-284.1727750904577
 10
-120.5570942689223
 20
-290.7335991629275
 10
-128.3810154050114
 20
-286.5050797975509
 10
-132.7040210259042
 20
-278.5768447566072
 10
-126.2581615094382
 20
-278.6677619385421
 10
-122.509164650623
 20
-275.3338544625911
 10
-120.6038932644797
 20
-275.3338544625911
  0
LWPOLYLINE
  5
C9
330
5F7
100
AcDbEntity
  8
0
100
AcDbPolyline
 90
       10
 70
     1
 43
0.0
 10
-131.2542516172072
 20
-289.2718978533935
 10
-127.5879281214483
 20
-295.5481494479153
 10
-128.7577812952485
 20
-297.5509258777547
 10
-131.1072397654024
 20
-297.5509258978228
 10
-133.9185849893668
 20
-292.7479290946652
 10
-135.9364638027052
 20
-293.899458231877
 10
-134.7713960969658
 20
-291.9048745117929
 10
-139.6308755227289
 20
-289.1259766516679
 10
-139.630875503867
 20
-286.8042912847969
 10
-137.6043846168661
 20
-285.6478475764926
  0
LWPOLYLINE
  5
CA
330
5F7
100
AcDbEntity
  8
0
100
AcDbPolyline
 90
        4
 70
     1
 43
0.0
 10
-155.0359480857517
 20
-314.0130735327899
 10
-156.2860324264286
 20
-314.0130735331347
 10
-156.2860324267691
 20
-312.7776523634924
 10
-153.3284625264367
 20
-311.0898761239302
  0
LWPOLYLINE
  5
CB
330
5F7
100
AcDbEntity
  8
0
100
AcDbPolyline
 90
       24
 70
     1
 43
0.0
 10
-161.4476274930734
 20
-315.9061997410523
 10
-159.3894921341239
 20
-314.731697676446
 10
-159.3894921350874
 20
-317.0807276275608
 10
-157.0130184286181
 20
-317.0807276275949
 10
-158.2012683472541
 20
-319.1149990518117
 10
-156.1431948093214
 20
-320.2894658376464
 10
-158.201268347379
 20
-321.4639326232146
 10
-157.0130184289629
 20
-323.4982040475546
 10
-159.389492135432
 20
-323.4982040473392
 10
-159.3894921347203
 20
-325.847233998453
 10
-161.4476274935437
 20
-324.6727319336311
 10
-162.6364689612274
 20
-326.7070644587359
 10
-163.8253104289111
 20
-324.6727319336311
 10
-165.8834457877345
 20
-325.847233998453
 10
-165.8834457870226
 20
-323.4982040473392
 10
-168.2599194934919
 20
-323.4982040475546
 10
-167.0716695750758
 20
-321.4639326232146
 10
-169.1297431131334
 20
-320.2894658376464
 10
-167.0716695752007
 20
-319.1149990518117
 10
-168.2599194938366
 20
-317.0807276275949
 10
-165.8834457873674
 20
-317.0807276275608
 10
-165.8834457883308
 20
-314.731697676446
 10
-163.8253104293814
 20
-315.9061997410523
 10
-162.6364689612274
 20
-313.8718672152347
  0
LWPOLYLINE
  5
CC
330
5F7
100
AcDbEntity
  8
0
100
AcDbPolyline
 90
       10
 70
     1
 43
0.0
 10
-191.3543526503517
 20
-347.8310024166733
 10
-189.3364738363026
 20
-346.6794732806826
 10
-190.5015415432763
 20
-348.6740570000625
 10
-185.6420621192361
 20
-351.4529548631282
 10
-185.6420621395345
 20
-353.7746402299985
 10
-187.6685530272539
 20
-354.9310839370762
 10
-194.0186860250703
 20
-351.3070336559335
 10
-197.6850095165375
 20
-345.0307820595917
 10
-196.5151563414973
 20
-343.0280056304628
 10
-194.1656978713415
 20
-343.0280056118148
  0
LWPOLYLINE
  5
CD
330
5F7
100
AcDbEntity
  8
0
100
AcDbPolyline
 90
        4
 70
     1
 43
0.0
 10
-168.9869052941348
 20
-326.5658579976297
 10
-168.9869052944836
 20
-327.8012791672308
 10
-171.9444751957972
 20
-329.4890554051819
 10
-170.2369896348525
 20
-326.5658579972925
  0
LWPOLYLINE
  5
CE
330
5F7
100
AcDbEntity
  8
0
100
AcDbPolyline
 90
        9
 70
     1
 43
0.0
 10
-196.5766209896739
 20
-354.071324933712
 10
-192.4741510176628
 20
-362.1157353754149
 10
-198.9142806006231
 20
-361.8469917244777
 10
-203.0608077490144
 20
-365.3338544625912
 10
-204.6616777067884
 20
-365.3338544625912
 10
-204.6328363121584
 20
-362.0240954099842
 10
-209.6436577167504
 20
-361.6165571886738
 10
-204.4618736470632
 20
-356.1863518072302
 10
-204.2809849496078
 20
-349.6283718042372
  0
LWPOLYLINE
  5
CF
330
5F7
100
AcDbEntity
  8
0
100
AcDbPolyline
 90
        6
 70
     1
 43
0.0
 10
-178.3770099752537
 20
-320.289256610419
 10
-181.892560243872
 20
-323.5835430674617
 10
-196.797675629067
 20
-323.583543067458
 10
-199.7648679105334
 20
-320.2877097487158
 10
-196.797675629067
 20
-316.9918764299737
 10
-181.9231780611691
 20
-316.9918764299737
  0
LWPOLYLINE
  5
D0
330
5F7
100
AcDbEntity
  8
0
100
AcDbPolyline
 90
        6
 70
     1
 43
0.0
 10
-210.3225685283789
 20
-318.6980671976299
 10
-207.5338856074697
 20
-320.2894658875588
 10
-210.3226353246382
 20
-321.8809018235083
 10
-210.3502401271085
 20
-324.4595132737938
 10
-212.7722044357719
 20
-320.2892041382368
 10
-210.3450813178386
 20
-316.1297633596407
  0
LWPOLYLINE
  5
D1
330
5F7
100
AcDbEntity
  8
0
100
AcDbPolyline
 90
        8
 70
     1
 43
0.0
 10
-209.0904226128194
 20
-285.4307287984758
 10
-209.0904226128194
 20
-293.2607696293336
 10
-213.3853190783407
 20
-295.4526254224215
 10
-217.680215543862
 20
-293.2607696293336
 10
-217.680215543862
 20
-285.4307287984758
 10
-213.4869106468688
 20
-281.2361132835193
 10
-213.3853190783408
 20
-281.3371860596855
 10
-213.2837275098126
 20
-281.2361132835193
  0
LWPOLYLINE
  5
D2
330
5F7
100
AcDbEntity
  8
0
100
AcDbPolyline
 90
        6
 70
     1
 43
0.0
 10
-209.1914455147803
 20
-307.5988127370655
 10
-213.3853190783408
 20
-314.5900771400353
 10
-217.5791926419011
 20
-307.5988127370655
 10
-217.5791926419011
 20
-298.6039406629467
 10
-213.3853190783408
 20
-300.5334661218471
 10
-209.1914455147803
 20
-298.6039406629467
  0
LWPOLYLINE
  5
D3
330
5F7
100
AcDbEntity
  8
0
100
AcDbPolyline
 90
        6
 70
     1
 43
0.0
 10
-213.9984337209096
 20
-320.2892041382368
 10
-216.4203980295731
 20
-324.4595132737938
 10
-216.4480028320433
 20
-321.8809018235083
 10
-219.2367525492118
 20
-320.2894658875588
 10
-216.4480696283026
 20
-318.6980671976299
 10
-216.4255568388429
 20
-316.1297633596407
  0
ARC
  5
60C
330
5F7
100
AcDbEntity
  8
0
100
AcDbCircle
 10
-59.87710492917502
 20
-320.2894658376464
 30
0.0
 40
48.09218461699527
100
AcDbArc
 50
277.180782180644
 51
90.65265406297653
  0
ARC
  5
60D
330
5F7
100
AcDbEntity
  8
0
100
AcDbCircle
 10
-265.5287449091755
 20
-319.4069824191022
 30
0.0
 40
48.59746583710438
100
AcDbArc
 50
103.7409788192746
 51
270.0
  0
LWPOLYLINE
  5
60F
330
5F7
100
AcDbEntity
  8
0
100
AcDbPolyline
 90
        2
 70
     0
 43
0.0
 10
-59.32930051527536
 20
-272.2004012640943
 10
-277.0722444411274
 20
-272.2004012640943
  0
LWPOLYLINE
  5
614
330
5F7
100
AcDbEntity
  8
0
100
AcDbPolyline
 90
        2
 70
     0
 43
0.0
 10
-265.5287449091755
 20
-368.0044482562066
 10
-53.8655598672425
 20
-368.0044482562066
  0
ENDSEC
  0
SECTION
  2
OBJECTS
  0
DICTIONARY
  5
58F
330
0
100
AcDbDictionary
281
     1
  3
ACAD_COLOR
350
5ED
  3
ACAD_GROUP
350
590
  3
ACAD_LAYOUT
350
5EC
  3
ACAD_MATERIAL
350
593
  3
ACAD_MLEADERSTYLE
350
5F0
  3
ACAD_MLINESTYLE
350
5E9
  3
ACAD_PLOTSETTINGS
350
5EB
  3
ACAD_PLOTSTYLENAME
350
591
  3
ACAD_SCALELIST
350
5BD
  3
ACAD_TABLESTYLE
350
5EE
  3
ACAD_VISUALSTYLE
350
5AC
  3
ACDB_RECOMPOSE_DATA
350
624
  3
AcDbVariableDictionary
350
61B
  3
DWGPROPS
350
625
  0
DICTIONARY
  5
617
330
5DF
100
AcDbDictionary
280
     1
281
     1
  3
ADSK_XREC_LAYER_RECONCILED
360
618
  0
DICTIONARY
  5
619
330
5FD
100
AcDbDictionary
280
     1
281
     1
  3
ADSK_XREC_LAYER_RECONCILED
360
61A
  0
DICTIONARY
  5
610
330
5F7
100
AcDbDictionary
280
     1
281
     1
  3
ACAD_SORTENTS
360
611
  0
DICTIONARY
  5
5ED
102
{ACAD_REACTORS
330
58F
102
}
330
58F
100
AcDbDictionary
281
     1
  0
DICTIONARY
  5
590
102
{ACAD_REACTORS
330
58F
102
}
330
58F
100
AcDbDictionary
281
     1
  0
DICTIONARY
  5
5EC
102
{ACAD_REACTORS
330
58F
102
}
330
58F
100
AcDbDictionary
281
     1
  3
Model
350
5FA
  3
Présentation1
350
5F6
  0
DICTIONARY
  5
593
102
{ACAD_REACTORS
330
58F
102
}
330
58F
100
AcDbDictionary
281
     1
  3
ByBlock
350
59C
  3
ByLayer
350
594
  3
Global
350
5A4
  0
DICTIONARY
  5
5F0
102
{ACAD_REACTORS
330
58F
102
}
330
58F
100
AcDbDictionary
281
     1
  3
Standard
350
5F1
  0
DICTIONARY
  5
5E9
102
{ACAD_REACTORS
330
58F
102
}
330
58F
100
AcDbDictionary
281
     1
  3
Standard
350
5EA
  0
DICTIONARY
  5
5EB
102
{ACAD_REACTORS
330
58F
102
}
330
58F
100
AcDbDictionary
281
     1
  0
ACDBDICTIONARYWDFLT
  5
591
102
{ACAD_REACTORS
330
58F
102
}
330
58F
100
AcDbDictionary
281
     1
  3
Normal
350
592
100
AcDbDictionaryWithDefault
340
592
  0
DICTIONARY
  5
5BD
102
{ACAD_REACTORS
330
58F
102
}
330
58F
100
AcDbDictionary
281
     1
  3
A0
350
5BE
  3
A1
350
5BF
  3
A2
350
5C0
  3
A3
350
5C1
  3
A4
350
5C2
  3
A5
350
5C3
  3
A6
350
5C4
  3
A7
350
5C5
  3
A8
350
5C6
  3
A9
350
5C7
  3
B0
350
5C8
  3
B1
350
5C9
  3
B2
350
5CA
  3
B3
350
5CB
  3
B4
350
5CC
  3
B5
350
5CD
  3
B6
350
5CE
  3
B7
350
5CF
  3
B8
350
5D0
  3
B9
350
5D1
  3
C0
350
5D2
  3
C1
350
5D3
  3
C2
350
5D4
  3
C3
350
5D5
  3
C4
350
5D6
  3
C5
350
5D7
  3
C6
350
5D8
  3
C7
350
5D9
  3
C8
350
5DA
  3
C9
350
5DB
  3
D0
350
5DC
  3
D1
350
5DD
  3
D2
350
5DE
  0
DICTIONARY
  5
5EE
102
{ACAD_REACTORS
330
58F
102
}
330
58F
100
AcDbDictionary
281
     1
  3
Standard
350
5EF
  0
DICTIONARY
  5
5AC
102
{ACAD_REACTORS
330
58F
102
}
330
58F
100
AcDbDictionary
281
     1
  3
2dWireframe
350
5B2
  3
3D Hidden
350
5B4
  3
3dWireframe
350
5B3
  3
Basic
350
5B1
  3
Brighten
350
5B8
  3
ColorChange
350
5BC
  3
Conceptual
350
5B5
  3
Dim
350
5B7
  3
Facepattern
350
5BB
  3
Flat
350
5AD
  3
FlatWithEdges
350
5AE
  3
Gouraud
350
5AF
  3
GouraudWithEdges
350
5B0
  3
Linepattern
350
5BA
  3
Realistic
350
5B6
  3
Thicken
350
5B9
  0
XRECORD
  5
624
102
{ACAD_REACTORS
330
58F
102
}
330
58F
100
AcDbXrecord
280
     1
 90
        1
330
5EF
  0
DICTIONARY
  5
61B
102
{ACAD_REACTORS
330
58F
102
}
330
58F
100
AcDbDictionary
281
     1
  3
CANNOSCALE
350
61E
  3
CMLEADERSTYLE
350
61D
  3
CTABLESTYLE
350
61C
  3
DIMASSOC
350
621
  3
INDEXCTL
350
620
  3
SORTENTS
350
61F
  0
XRECORD
  5
625
102
{ACAD_REACTORS
330
58F
102
}
330
58F
100
AcDbXrecord
280
     1
  1
DWGPROPS COOKIE
  2

  3

  4

  6

  7

  8
user
  9

300
=
301
=
302
=
303
=
304
=
305
=
306
=
307
=
308
=
309
=
 40
0.0017113078703704
 41
2454910.5
 42
2457367.728234861
  1

 90
        0
  0
XRECORD
  5
618
102
{ACAD_REACTORS
330
617
102
}
330
617
100
AcDbXrecord
280
     1
290
     1
  0
XRECORD
  5
61A
102
{ACAD_REACTORS
330
619
102
}
330
619
100
AcDbXrecord
280
     1
290
     1
  0
SORTENTSTABLE
  5
611
102
{ACAD_REACTORS
330
610
102
}
330
610
100
AcDbSortentsTable
330
5F7
331
91
  5
91
331
B3
  5
B3
331
82
  5
82
331
8E
  5
8E
331
6E
  5
6E
331
57
  5
57
331
74
  5
74
331
4F
  5
4F
331
42
  5
42
331
C8
  5
C8
331
92
  5
92
331
B4
  5
B4
331
83
  5
83
331
78
  5
78
331
B8
  5
B8
331
8F
  5
8F
331
6F
  5
6F
331
75
  5
75
331
43
  5
43
331
A8
  5
A8
331
C9
  5
C9
331
93
  5
93
331
B9
  5
B9
331
B5
  5
B5
331
84
  5
84
331
79
  5
79
331
76
  5
76
331
44
  5
44
331
D0
  5
D0
331
A9
  5
A9
331
CA
  5
CA
331
94
  5
94
331
B6
  5
B6
331
BA
  5
BA
331
98
  5
98
331
85
  5
85
331
7A
  5
7A
331
58
  5
58
331
77
  5
77
331
45
  5
45
331
D1
  5
D1
331
AA
  5
AA
331
CB
  5
CB
331
95
  5
95
331
B7
  5
B7
331
BB
  5
BB
331
99
  5
99
331
86
  5
86
331
7B
  5
7B
331
59
  5
59
331
46
  5
46
331
D2
  5
D2
331
C0
  5
C0
331
60C
  5
60F
331
AB
  5
AB
331
CC
  5
CC
331
96
  5
96
331
BC
  5
BC
331
9A
  5
9A
331
87
  5
87
331
7C
  5
7C
331
5A
  5
5A
331
47
  5
47
331
D3
  5
D3
331
C1
  5
C1
331
60D
  5
614
331
AC
  5
AC
331
CD
  5
CD
331
BD
  5
BD
331
9B
  5
9B
331
97
  5
97
331
7D
  5
7D
331
5B
  5
5B
331
C2
  5
C2
331
A0
  5
A0
331
AD
  5
AD
331
CE
  5
CE
331
7E
  5
7E
331
BE
  5
BE
331
9C
  5
9C
331
60
  5
60
331
5C
  5
5C
331
C3
  5
C3
331
A1
  5
A1
331
60F
  5
60C
331
AE
  5
AE
331
CF
  5
CF
331
7F
  5
7F
331
BF
  5
BF
331
9D
  5
9D
331
61
  5
61
331
5D
  5
5D
331
C4
  5
C4
331
A2
  5
A2
331
AF
  5
AF
331
9E
  5
9E
331
62
  5
62
331
5E
  5
5E
331
C5
  5
C5
331
A3
  5
A3
331
5F
  5
5F
331
50
  5
50
331
9F
  5
9F
331
63
  5
63
331
48
  5
48
331
88
  5
88
331
68
  5
68
331
C6
  5
C6
331
A4
  5
A4
331
51
  5
51
331
64
  5
64
331
49
  5
49
331
89
  5
89
331
69
  5
69
331
C7
  5
C7
331
A5
  5
A5
331
52
  5
52
331
65
  5
65
331
4A
  5
4A
331
8A
  5
8A
331
6A
  5
6A
331
A6
  5
A6
331
70
  5
70
331
53
  5
53
331
614
  5
60E
331
66
  5
66
331
4B
  5
4B
331
B0
  5
B0
331
8B
  5
8B
331
6B
  5
6B
331
A7
  5
A7
331
71
  5
71
331
54
  5
54
331
67
  5
67
331
4C
  5
4C
331
B1
  5
B1
331
80
  5
80
331
8C
  5
8C
331
6C
  5
6C
331
72
  5
72
331
55
  5
55
331
4D
  5
4D
331
90
  5
90
331
B2
  5
B2
331
81
  5
81
331
8D
  5
8D
331
6D
  5
6D
331
56
  5
56
331
73
  5
73
331
4E
  5
4E
331
41
  5
41
  0
LAYOUT
  5
5FA
102
{ACAD_XDICTIONARY
360
62C
102
}
102
{ACAD_REACTORS
330
5EC
102
}
330
5EC
100
AcDbPlotSettings
  1

  2
CutePDF Writer
  4

  6

 40
0.0
 41
0.0
 42
0.0
 43
0.0
 44
0.0
 45
0.0
 46
0.0
 47
0.0
 48
0.0
 49
0.0
140
0.0
141
0.0
142
1.0
143
1.0
 70
  1712
 72
     0
 73
     0
 74
     0
  7

 75
     0
147
1.0
148
0.0
149
0.0
100
AcDbLayout
  1
Model
 70
     1
 71
     0
 10
0.0
 20
0.0
 11
12.0
 21
9.0
 12
0.0
 22
0.0
 32
0.0
 14
0.0
 24
0.0
 34
0.0
 15
0.0
 25
0.0
 35
0.0
146
0.0
 13
0.0
 23
0.0
 33
0.0
 16
1.0
 26
0.0
 36
0.0
 17
0.0
 27
1.0
 37
0.0
 76
     0
330
5F7
331
5FB
  0
LAYOUT
  5
5F6
102
{ACAD_XDICTIONARY
360
62A
102
}
102
{ACAD_REACTORS
330
5EC
102
}
330
5EC
100
AcDbPlotSettings
  1

  2
CutePDF Writer
  4

  6

 40
0.0
 41
0.0
 42
0.0
 43
0.0
 44
0.0
 45
0.0
 46
0.0
 47
0.0
 48
0.0
 49
0.0
140
0.0
141
0.0
142
1.0
143
1.0
 70
   688
 72
     0
 73
     0
 74
     5
  7

 75
    16
147
1.0
148
0.0
149
0.0
100
AcDbLayout
  1
Présentation1
 70
     1
 71
     1
 10
0.0
 20
0.0
 11
12.0
 21
9.0
 12
0.0
 22
0.0
 32
0.0
 14
1.000000000000000E+20
 24
1.000000000000000E+20
 34
1.000000000000000E+20
 15
-1.000000000000000E+20
 25
-1.000000000000000E+20
 35
-1.000000000000000E+20
146
0.0
 13
0.0
 23
0.0
 33
0.0
 16
1.0
 26
0.0
 36
0.0
 17
0.0
 27
1.0
 37
0.0
 76
     0
330
5F3
  0
MATERIAL
  5
59C
102
{ACAD_XDICTIONARY
360
59D
102
}
102
{ACAD_REACTORS
330
593
102
}
330
593
100
AcDbMaterial
  1
ByBlock
 72
     0
 43
0.0208333333333333
 43
0.0
 43
0.0
 43
0.0
 43
0.0
 43
0.0208333333333333
 43
0.0
 43
0.0
 43
0.0
 43
0.0
 43
1.0
 43
0.0
 43
0.0
 43
0.0
 43
0.0
 43
1.0
 77
     0
 47
0.0208333333333333
 47
0.0
 47
0.0
 47
0.0
 47
0.0
 47
0.0208333333333333
 47
0.0
 47
0.0
 47
0.0
 47
0.0
 47
1.0
 47
0.0
 47
0.0
 47
0.0
 47
0.0
 47
1.0
171
     0
 49
0.0208333333333333
 49
0.0
 49
0.0
 49
0.0
 49
0.0
 49
0.0208333333333333
 49
0.0
 49
0.0
 49
0.0
 49
0.0
 49
1.0
 49
0.0
 49
0.0
 49
0.0
 49
0.0
 49
1.0
175
     0
142
0.0208333333333333
142
0.0
142
0.0
142
0.0
142
0.0
142
0.0208333333333333
142
0.0
142
0.0
142
0.0
142
0.0
142
1.0
142
0.0
142
0.0
142
0.0
142
0.0
142
1.0
179
     0
144
0.0208333333333333
144
0.0
144
0.0
144
0.0
144
0.0
144
0.0208333333333333
144
0.0
144
0.0
144
0.0
144
0.0
144
1.0
144
0.0
144
0.0
144
0.0
144
0.0
144
1.0
147
0.0208333333333333
147
0.0
147
0.0
147
0.0
147
0.0
147
0.0208333333333333
147
0.0
147
0.0
147
0.0
147
0.0
147
1.0
147
0.0
147
0.0
147
0.0
147
0.0
147
1.0
  0
MATERIAL
  5
594
102
{ACAD_XDICTIONARY
360
595
102
}
102
{ACAD_REACTORS
330
593
102
}
330
593
100
AcDbMaterial
  1
ByLayer
 72
     0
 43
0.0208333333333333
 43
0.0
 43
0.0
 43
0.0
 43
0.0
 43
0.0208333333333333
 43
0.0
 43
0.0
 43
0.0
 43
0.0
 43
1.0
 43
0.0
 43
0.0
 43
0.0
 43
0.0
 43
1.0
 77
     0
 47
0.0208333333333333
 47
0.0
 47
0.0
 47
0.0
 47
0.0
 47
0.0208333333333333
 47
0.0
 47
0.0
 47
0.0
 47
0.0
 47
1.0
 47
0.0
 47
0.0
 47
0.0
 47
0.0
 47
1.0
171
     0
 49
0.0208333333333333
 49
0.0
 49
0.0
 49
0.0
 49
0.0
 49
0.0208333333333333
 49
0.0
 49
0.0
 49
0.0
 49
0.0
 49
1.0
 49
0.0
 49
0.0
 49
0.0
 49
0.0
 49
1.0
175
     0
142
0.0208333333333333
142
0.0
142
0.0
142
0.0
142
0.0
142
0.0208333333333333
142
0.0
142
0.0
142
0.0
142
0.0
142
1.0
142
0.0
142
0.0
142
0.0
142
0.0
142
1.0
179
     0
144
0.0208333333333333
144
0.0
144
0.0
144
0.0
144
0.0
144
0.0208333333333333
144
0.0
144
0.0
144
0.0
144
0.0
144
1.0
144
0.0
144
0.0
144
0.0
144
0.0
144
1.0
147
0.0208333333333333
147
0.0
147
0.0
147
0.0
147
0.0
147
0.0208333333333333
147
0.0
147
0.0
147
0.0
147
0.0
147
1.0
147
0.0
147
0.0
147
0.0
147
0.0
147
1.0
  0
MATERIAL
  5
5A4
102
{ACAD_XDICTIONARY
360
5A5
102
}
102
{ACAD_REACTORS
330
593
102
}
330
593
100
AcDbMaterial
  1
Global
 72
     0
 43
0.0208333333333333
 43
0.0
 43
0.0
 43
0.0
 43
0.0
 43
0.0208333333333333
 43
0.0
 43
0.0
 43
0.0
 43
0.0
 43
1.0
 43
0.0
 43
0.0
 43
0.0
 43
0.0
 43
1.0
 77
     0
 47
0.0208333333333333
 47
0.0
 47
0.0
 47
0.0
 47
0.0
 47
0.0208333333333333
 47
0.0
 47
0.0
 47
0.0
 47
0.0
 47
1.0
 47
0.0
 47
0.0
 47
0.0
 47
0.0
 47
1.0
171
     0
 49
0.0208333333333333
 49
0.0
 49
0.0
 49
0.0
 49
0.0
 49
0.0208333333333333
 49
0.0
 49
0.0
 49
0.0
 49
0.0
 49
1.0
 49
0.0
 49
0.0
 49
0.0
 49
0.0
 49
1.0
175
     0
142
0.0208333333333333
142
0.0
142
0.0
142
0.0
142
0.0
142
0.0208333333333333
142
0.0
142
0.0
142
0.0
142
0.0
142
1.0
142
0.0
142
0.0
142
0.0
142
0.0
142
1.0
179
     0
144
0.0208333333333333
144
0.0
144
0.0
144
0.0
144
0.0
144
0.0208333333333333
144
0.0
144
0.0
144
0.0
144
0.0
144
1.0
144
0.0
144
0.0
144
0.0
144
0.0
144
1.0
147
0.0208333333333333
147
0.0
147
0.0
147
0.0
147
0.0
147
0.0208333333333333
147
0.0
147
0.0
147
0.0
147
0.0
147
1.0
147
0.0
147
0.0
147
0.0
147
0.0
147
1.0
  0
MLEADERSTYLE
  5
5F1
102
{ACAD_REACTORS
330
5F0
102
}
330
5F0
100
AcDbMLeaderStyle
170
     2
171
     1
172
     0
 90
        2
 40
0.0
 41
0.0
173
     1
 91
-1056964608
340
5E5
 92
       -2
290
     1
 42
0.09
291
     1
 43
0.36
  3
Standard
 44
0.18
300

342
5E0
174
     1
178
     6
175
     1
176
     0
 93
-1056964608
 45
0.18
292
     0
297
     0
 46
0.18
 94
-1056964608
 47
1.0
 49
1.0
140
1.0
293
     1
141
0.0
294
     1
177
     0
142
1.0
295
     0
296
     0
143
0.125
1001
ACAD_MLEADERVER
1070
     2
  0
MLINESTYLE
  5
5EA
102
{ACAD_REACTORS
330
5E9
102
}
330
5E9
100
AcDbMlineStyle
  2
STANDARD
 70
     0
  3

 62
   256
 51
90.0
 52
90.0
 71
     2
 49
0.5
 62
   256
  6
BYLAYER
 49
-0.5
 62
   256
  6
BYLAYER
  0
ACDBPLACEHOLDER
  5
592
102
{ACAD_REACTORS
330
591
102
}
330
591
  0
SCALE
  5
5BE
102
{ACAD_REACTORS
330
5BD
102
}
330
5BD
100
AcDbScale
 70
     0
300
1:1
140
1.0
141
1.0
290
     1
  0
SCALE
  5
5BF
102
{ACAD_REACTORS
330
5BD
102
}
330
5BD
100
AcDbScale
 70
     0
300
1:2
140
1.0
141
2.0
290
     0
  0
SCALE
  5
5C0
102
{ACAD_REACTORS
330
5BD
102
}
330
5BD
100
AcDbScale
 70
     0
300
1:4
140
1.0
141
4.0
290
     0
  0
SCALE
  5
5C1
102
{ACAD_REACTORS
330
5BD
102
}
330
5BD
100
AcDbScale
 70
     0
300
1:5
140
1.0
141
5.0
290
     0
  0
SCALE
  5
5C2
102
{ACAD_REACTORS
330
5BD
102
}
330
5BD
100
AcDbScale
 70
     0
300
1:8
140
1.0
141
8.0
290
     0
  0
SCALE
  5
5C3
102
{ACAD_REACTORS
330
5BD
102
}
330
5BD
100
AcDbScale
 70
     0
300
1:10
140
1.0
141
10.0
290
     0
  0
SCALE
  5
5C4
102
{ACAD_REACTORS
330
5BD
102
}
330
5BD
100
AcDbScale
 70
     0
300
1:16
140
1.0
141
16.0
290
     0
  0
SCALE
  5
5C5
102
{ACAD_REACTORS
330
5BD
102
}
330
5BD
100
AcDbScale
 70
     0
300
1:20
140
1.0
141
20.0
290
     0
  0
SCALE
  5
5C6
102
{ACAD_REACTORS
330
5BD
102
}
330
5BD
100
AcDbScale
 70
     0
300
1:30
140
1.0
141
30.0
290
     0
  0
SCALE
  5
5C7
102
{ACAD_REACTORS
330
5BD
102
}
330
5BD
100
AcDbScale
 70
     0
300
1:40
140
1.0
141
40.0
290
     0
  0
SCALE
  5
5C8
102
{ACAD_REACTORS
330
5BD
102
}
330
5BD
100
AcDbScale
 70
     0
300
1:50
140
1.0
141
50.0
290
     0
  0
SCALE
  5
5C9
102
{ACAD_REACTORS
330
5BD
102
}
330
5BD
100
AcDbScale
 70
     0
300
1:100
140
1.0
141
100.0
290
     0
  0
SCALE
  5
5CA
102
{ACAD_REACTORS
330
5BD
102
}
330
5BD
100
AcDbScale
 70
     0
300
2:1
140
2.0
141
1.0
290
     0
  0
SCALE
  5
5CB
102
{ACAD_REACTORS
330
5BD
102
}
330
5BD
100
AcDbScale
 70
     0
300
4:1
140
4.0
141
1.0
290
     0
  0
SCALE
  5
5CC
102
{ACAD_REACTORS
330
5BD
102
}
330
5BD
100
AcDbScale
 70
     0
300
8:1
140
8.0
141
1.0
290
     0
  0
SCALE
  5
5CD
102
{ACAD_REACTORS
330
5BD
102
}
330
5BD
100
AcDbScale
 70
     0
300
10:1
140
10.0
141
1.0
290
     0
  0
SCALE
  5
5CE
102
{ACAD_REACTORS
330
5BD
102
}
330
5BD
100
AcDbScale
 70
     0
300
100:1
140
100.0
141
1.0
290
     0
  0
SCALE
  5
5CF
102
{ACAD_REACTORS
330
5BD
102
}
330
5BD
100
AcDbScale
 70
     0
300
1/128" = 1'-0"
140
0.0078125
141
12.0
290
     0
  0
SCALE
  5
5D0
102
{ACAD_REACTORS
330
5BD
102
}
330
5BD
100
AcDbScale
 70
     0
300
1/64" = 1'-0"
140
0.015625
141
12.0
290
     0
  0
SCALE
  5
5D1
102
{ACAD_REACTORS
330
5BD
102
}
330
5BD
100
AcDbScale
 70
     0
300
1/32" = 1'-0"
140
0.03125
141
12.0
290
     0
  0
SCALE
  5
5D2
102
{ACAD_REACTORS
330
5BD
102
}
330
5BD
100
AcDbScale
 70
     0
300
1/16" = 1'-0"
140
0.0625
141
12.0
290
     0
  0
SCALE
  5
5D3
102
{ACAD_REACTORS
330
5BD
102
}
330
5BD
100
AcDbScale
 70
     0
300
3/32" = 1'-0"
140
0.09375
141
12.0
290
     0
  0
SCALE
  5
5D4
102
{ACAD_REACTORS
330
5BD
102
}
330
5BD
100
AcDbScale
 70
     0
300
1/8" = 1'-0"
140
0.125
141
12.0
290
     0
  0
SCALE
  5
5D5
102
{ACAD_REACTORS
330
5BD
102
}
330
5BD
100
AcDbScale
 70
     0
300
3/16" = 1'-0"
140
0.1875
141
12.0
290
     0
  0
SCALE
  5
5D6
102
{ACAD_REACTORS
330
5BD
102
}
330
5BD
100
AcDbScale
 70
     0
300
1/4" = 1'-0"
140
0.25
141
12.0
290
     0
  0
SCALE
  5
5D7
102
{ACAD_REACTORS
330
5BD
102
}
330
5BD
100
AcDbScale
 70
     0
300
3/8" = 1'-0"
140
0.375
141
12.0
290
     0
  0
SCALE
  5
5D8
102
{ACAD_REACTORS
330
5BD
102
}
330
5BD
100
AcDbScale
 70
     0
300
1/2" = 1'-0"
140
0.5
141
12.0
290
     0
  0
SCALE
  5
5D9
102
{ACAD_REACTORS
330
5BD
102
}
330
5BD
100
AcDbScale
 70
     0
300
3/4" = 1'-0"
140
0.75
141
12.0
290
     0
  0
SCALE
  5
5DA
102
{ACAD_REACTORS
330
5BD
102
}
330
5BD
100
AcDbScale
 70
     0
300
1" = 1'-0"
140
1.0
141
12.0
290
     0
  0
SCALE
  5
5DB
102
{ACAD_REACTORS
330
5BD
102
}
330
5BD
100
AcDbScale
 70
     0
300
1-1/2" = 1'-0"
140
1.5
141
12.0
290
     0
  0
SCALE
  5
5DC
102
{ACAD_REACTORS
330
5BD
102
}
330
5BD
100
AcDbScale
 70
     0
300
3" = 1'-0"
140
3.0
141
12.0
290
     0
  0
SCALE
  5
5DD
102
{ACAD_REACTORS
330
5BD
102
}
330
5BD
100
AcDbScale
 70
     0
300
6" = 1'-0"
140
6.0
141
12.0
290
     0
  0
SCALE
  5
5DE
102
{ACAD_REACTORS
330
5BD
102
}
330
5BD
100
AcDbScale
 70
     0
300
1'-0" = 1'-0"
140
12.0
141
12.0
290
     0
  0
TABLESTYLE
  5
5EF
102
{ACAD_XDICTIONARY
360
622
102
}
102
{ACAD_REACTORS
330
5EE
102
}
330
5EE
100
AcDbTableStyle
  3
Standard
 70
     0
 71
     0
 40
0.06
 41
0.06
280
     0
281
     0
  7
STANDARD
140
0.18
170
     2
 62
     0
 63
     7
283
     0
274
    -2
284
     1
 64
     0
275
    -2
285
     1
 65
     0
276
    -2
286
     1
 66
     0
277
    -2
287
     1
 67
     0
278
    -2
288
     1
 68
     0
279
    -2
289
     1
 69
     0
  7
STANDARD
140
0.25
170
     5
 62
     0
 63
     7
283
     0
274
    -2
284
     1
 64
     0
275
    -2
285
     1
 65
     0
276
    -2
286
     1
 66
     0
277
    -2
287
     1
 67
     0
278
    -2
288
     1
 68
     0
279
    -2
289
     1
 69
     0
  7
STANDARD
140
0.18
170
     5
 62
     0
 63
     7
283
     0
274
    -2
284
     1
 64
     0
275
    -2
285
     1
 65
     0
276
    -2
286
     1
 66
     0
277
    -2
287
     1
 67
     0
278
    -2
288
     1
 68
     0
279
    -2
289
     1
 69
     0
  0
VISUALSTYLE
  5
5B2
102
{ACAD_REACTORS
330
5AC
102
}
330
5AC
100
AcDbVisualStyle
  2
2dWireframe
 70
     4
 71
     0
 72
     2
 73
     0
 90
        0
 40
-0.6
 41
-30.0
 62
     5
 63
     7
 74
     1
 91
        4
 64
     7
 65
   257
 75
     1
175
     1
 42
1.0
 92
        0
 66
   257
 43
1.0
 76
     1
 77
     6
 78
     2
 67
     7
 79
     5
170
     0
171
     0
290
     0
174
     0
 93
        1
 44
0.0
173
     0
291
     0
 45
0.0
1001
ACAD
1000
AcDbSavedByObjectVersion
1070
     0
  0
VISUALSTYLE
  5
5B4
102
{ACAD_REACTORS
330
5AC
102
}
330
5AC
100
AcDbVisualStyle
  2
3D Hidden
 70
     6
 71
     1
 72
     2
 73
     2
 90
        0
 40
-0.6
 41
-30.0
 62
     5
 63
     7
 74
     2
 91
        2
 64
     7
 65
   257
 75
     2
175
     1
 42
40.0
 92
        0
 66
   257
 43
1.0
 76
     1
 77
     6
 78
     2
 67
     7
 79
     3
170
     0
171
     0
290
     0
174
     0
 93
        1
 44
0.0
173
     0
291
     0
 45
0.0
1001
ACAD
1000
AcDbSavedByObjectVersion
1070
     0
  0
VISUALSTYLE
  5
5B3
102
{ACAD_REACTORS
330
5AC
102
}
330
5AC
100
AcDbVisualStyle
  2
3dWireframe
 70
     5
 71
     0
 72
     2
 73
     0
 90
        0
 40
-0.6
 41
-30.0
 62
     5
 63
     7
 74
     1
 91
        4
 64
     7
 65
   257
 75
     1
175
     1
 42
1.0
 92
        0
 66
   257
 43
1.0
 76
     1
 77
     6
 78
     2
 67
     7
 79
     5
170
     0
171
     0
290
     0
174
     0
 93
        1
 44
0.0
173
     0
291
     0
 45
0.0
1001
ACAD
1000
AcDbSavedByObjectVersion
1070
     0
  0
VISUALSTYLE
  5
5B1
102
{ACAD_REACTORS
330
5AC
102
}
330
5AC
100
AcDbVisualStyle
  2
Basic
 70
     7
 71
     1
 72
     0
 73
     1
 90
        0
 40
-0.6
 41
-30.0
 62
     5
 63
     7
 74
     0
 91
        4
 64
     7
 65
   257
 75
     1
175
     1
 42
1.0
 92
        8
 66
     7
 43
1.0
 76
     1
 77
     6
 78
     2
 67
     7
 79
     5
170
     0
171
     0
290
     0
174
     0
 93
        1
 44
0.0
173
     0
291
     1
 45
0.0
1001
ACAD
1000
AcDbSavedByObjectVersion
1070
     0
  0
VISUALSTYLE
  5
5B8
102
{ACAD_REACTORS
330
5AC
102
}
330
5AC
100
AcDbVisualStyle
  2
Brighten
 70
    12
 71
     2
 72
     2
 73
     0
 90
        0
 40
-0.6
 41
-30.0
 62
     5
 63
     7
 74
     1
 91
        4
 64
     7
 65
   257
 75
     1
175
     1
 42
1.0
 92
        8
 66
     7
 43
1.0
 76
     1
 77
     6
 78
     2
 67
     7
 79
     5
170
     0
171
     0
290
     0
174
     0
 93
        1
 44
50.0
173
     0
291
     1
 45
0.0
1001
ACAD
1000
AcDbSavedByObjectVersion
1070
     0
  0
VISUALSTYLE
  5
5BC
102
{ACAD_REACTORS
330
5AC
102
}
330
5AC
100
AcDbVisualStyle
  2
ColorChange
 70
    16
 71
     2
 72
     2
 73
     3
 90
        0
 40
-0.6
 41
-30.0
 62
     5
 63
     8
 74
     1
 91
        4
 64
     7
 65
   257
 75
     1
175
     1
 42
1.0
 92
        8
 66
     8
 43
1.0
 76
     1
 77
     6
 78
     2
 67
     7
 79
     5
170
     0
171
     0
290
     0
174
     0
 93
        1
 44
0.0
173
     0
291
     1
 45
0.0
1001
ACAD
1000
AcDbSavedByObjectVersion
1070
     0
  0
VISUALSTYLE
  5
5B5
102
{ACAD_REACTORS
330
5AC
102
}
330
5AC
100
AcDbVisualStyle
  2
Conceptual
 70
     9
 71
     3
 72
     2
 73
     0
 90
        0
 40
-0.6
 41
-30.0
 62
     5
 63
     7
 74
     2
 91
        2
 64
     7
 65
   257
 75
     1
175
     1
 42
40.0
 92
        8
 66
     7
 43
1.0
 76
     1
 77
     6
 78
     2
 67
     7
 79
     3
170
     0
171
     0
290
     0
174
     0
 93
        1
 44
0.0
173
     0
291
     0
 45
0.0
1001
ACAD
1000
AcDbSavedByObjectVersion
1070
     0
  0
VISUALSTYLE
  5
5B7
102
{ACAD_REACTORS
330
5AC
102
}
330
5AC
100
AcDbVisualStyle
  2
Dim
 70
    11
 71
     2
 72
     2
 73
     0
 90
        0
 40
-0.6
 41
-30.0
 62
     5
 63
     7
 74
     1
 91
        4
 64
     7
 65
   257
 75
     1
175
     1
 42
1.0
 92
        8
 66
     7
 43
1.0
 76
     1
 77
     6
 78
     2
 67
     7
 79
     5
170
     0
171
     0
290
     0
174
     0
 93
        1
 44
-50.0
173
     0
291
     1
 45
0.0
1001
ACAD
1000
AcDbSavedByObjectVersion
1070
     0
  0
VISUALSTYLE
  5
5BB
102
{ACAD_REACTORS
330
5AC
102
}
330
5AC
100
AcDbVisualStyle
  2
Facepattern
 70
    15
 71
     2
 72
     2
 73
     0
 90
        0
 40
-0.6
 41
-30.0
 62
     5
 63
     7
 74
     1
 91
        4
 64
     7
 65
   257
 75
     1
175
     1
 42
1.0
 92
        8
 66
     7
 43
1.0
 76
     1
 77
     6
 78
     2
 67
     7
 79
     5
170
     0
171
     0
290
     0
174
     0
 93
        1
 44
0.0
173
     0
291
     1
 45
0.0
1001
ACAD
1000
AcDbSavedByObjectVersion
1070
     0
  0
VISUALSTYLE
  5
5AD
102
{ACAD_REACTORS
330
5AC
102
}
330
5AC
100
AcDbVisualStyle
  2
Flat
 70
     0
 71
     2
 72
     1
 73
     1
 90
        2
 40
-0.6
 41
30.0
 62
     5
 63
     7
 74
     0
 91
        4
 64
     7
 65
   257
 75
     1
175
     1
 42
1.0
 92
        8
 66
     7
 43
1.0
 76
     1
 77
     6
 78
     2
 67
     7
 79
     5
170
     0
171
     0
290
     0
174
     0
 93
       13
 44
0.0
173
     0
291
     1
 45
0.0
1001
ACAD
1000
AcDbSavedByObjectVersion
1070
     0
  0
VISUALSTYLE
  5
5AE
102
{ACAD_REACTORS
330
5AC
102
}
330
5AC
100
AcDbVisualStyle
  2
FlatWithEdges
 70
     1
 71
     2
 72
     1
 73
     1
 90
        2
 40
-0.6
 41
30.0
 62
     5
 63
     7
 74
     1
 91
        4
 64
     7
 65
   257
 75
     1
175
     1
 42
1.0
 92
        0
 66
   257
 43
1.0
 76
     1
 77
     6
 78
     2
 67
     7
 79
     5
170
     0
171
     0
290
     0
174
     0
 93
       13
 44
0.0
173
     0
291
     1
 45
0.0
1001
ACAD
1000
AcDbSavedByObjectVersion
1070
     0
  0
VISUALSTYLE
  5
5AF
102
{ACAD_REACTORS
330
5AC
102
}
330
5AC
100
AcDbVisualStyle
  2
Gouraud
 70
     2
 71
     2
 72
     2
 73
     1
 90
        2
 40
-0.6
 41
30.0
 62
     5
 63
     7
 74
     0
 91
        4
 64
     7
 65
   257
 75
     1
175
     1
 42
1.0
 92
        0
 66
     7
 43
1.0
 76
     1
 77
     6
 78
     2
 67
     7
 79
     5
170
     0
171
     0
290
     0
174
     0
 93
       13
 44
0.0
173
     0
291
     1
 45
0.0
1001
ACAD
1000
AcDbSavedByObjectVersion
1070
     0
  0
VISUALSTYLE
  5
5B0
102
{ACAD_REACTORS
330
5AC
102
}
330
5AC
100
AcDbVisualStyle
  2
GouraudWithEdges
 70
     3
 71
     2
 72
     2
 73
     1
 90
        2
 40
-0.6
 41
30.0
 62
     5
 63
     7
 74
     1
 91
        4
 64
     7
 65
   257
 75
     1
175
     1
 42
1.0
 92
        0
 66
   257
 43
1.0
 76
     1
 77
     6
 78
     2
 67
     7
 79
     5
170
     0
171
     0
290
     0
174
     0
 93
       13
 44
0.0
173
     0
291
     1
 45
0.0
1001
ACAD
1000
AcDbSavedByObjectVersion
1070
     0
  0
VISUALSTYLE
  5
5BA
102
{ACAD_REACTORS
330
5AC
102
}
330
5AC
100
AcDbVisualStyle
  2
Linepattern
 70
    14
 71
     2
 72
     2
 73
     0
 90
        0
 40
-0.6
 41
-30.0
 62
     5
 63
     7
 74
     1
 91
        4
 64
     7
 65
   257
 75
     7
175
     7
 42
1.0
 92
        8
 66
     7
 43
1.0
 76
     1
 77
     6
 78
     2
 67
     7
 79
     5
170
     0
171
     0
290
     0
174
     0
 93
        1
 44
0.0
173
     0
291
     1
 45
0.0
1001
ACAD
1000
AcDbSavedByObjectVersion
1070
     0
  0
VISUALSTYLE
  5
5B6
102
{ACAD_REACTORS
330
5AC
102
}
330
5AC
100
AcDbVisualStyle
  2
Realistic
 70
     8
 71
     2
 72
     2
 73
     0
 90
        0
 40
-0.6
 41
-30.0
 62
     5
 63
     7
 74
     1
 91
        0
 64
     7
 65
   257
 75
     1
175
     1
 42
1.0
 92
        8
 66
     8
 43
1.0
 76
     1
 77
     6
 78
     2
 67
     7
 79
     5
170
     0
171
     0
290
     0
174
     0
 93
       13
 44
0.0
173
     0
291
     0
 45
0.0
1001
ACAD
1000
AcDbSavedByObjectVersion
1070
     0
  0
VISUALSTYLE
  5
5B9
102
{ACAD_REACTORS
330
5AC
102
}
330
5AC
100
AcDbVisualStyle
  2
Thicken
 70
    13
 71
     2
 72
     2
 73
     0
 90
        0
 40
-0.6
 41
-30.0
 62
     5
 63
     7
 74
     1
 91
        4
 64
     7
 65
   257
 75
     1
175
     1
 42
1.0
 92
       12
 66
     7
 43
1.0
 76
     1
 77
     6
 78
     2
 67
     7
 79
     5
170
     0
171
     0
290
     0
174
     0
 93
        1
 44
0.0
173
     0
291
     1
 45
0.0
1001
ACAD
1000
AcDbSavedByObjectVersion
1070
     0
  0
DICTIONARYVAR
  5
61E
102
{ACAD_REACTORS
330
61B
102
}
330
61B
100
DictionaryVariables
280
     0
  1
1:1
  0
DICTIONARYVAR
  5
61D
102
{ACAD_REACTORS
330
61B
102
}
330
61B
100
DictionaryVariables
280
     0
  1
STANDARD
  0
DICTIONARYVAR
  5
61C
102
{ACAD_REACTORS
330
61B
102
}
330
61B
100
DictionaryVariables
280
     0
  1
STANDARD
  0
DICTIONARYVAR
  5
621
102
{ACAD_REACTORS
330
61B
102
}
330
61B
100
DictionaryVariables
280
     0
  1
1
  0
DICTIONARYVAR
  5
620
102
{ACAD_REACTORS
330
61B
102
}
330
61B
100
DictionaryVariables
280
     0
  1
0
  0
DICTIONARYVAR
  5
61F
102
{ACAD_REACTORS
330
61B
102
}
330
61B
100
DictionaryVariables
280
     0
  1
127
  0
DICTIONARY
  5
62C
330
5FA
100
AcDbDictionary
280
     1
281
     1
  3
ACAD_XREC_ROUNDTRIP
360
62D
  0
DICTIONARY
  5
62A
330
5F6
100
AcDbDictionary
280
     1
281
     1
  3
ACAD_XREC_ROUNDTRIP
360
62B
  0
DICTIONARY
  5
59D
330
59C
100
AcDbDictionary
280
     1
281
     1
  3
ACAD_XREC_ROUNDTRIP
360
627
  3
BUMPTILE
360
59F
  3
DIFFUSETILE
360
59E
  3
OPACITYTILE
360
5A2
  3
REFLECTIONTILE
360
5A1
  3
REFRACTIONTILE
360
5A3
  3
SPECULARTILE
360
5A0
  0
DICTIONARY
  5
595
330
594
100
AcDbDictionary
280
     1
281
     1
  3
ACAD_XREC_ROUNDTRIP
360
626
  3
BUMPTILE
360
597
  3
DIFFUSETILE
360
596
  3
OPACITYTILE
360
59A
  3
REFLECTIONTILE
360
599
  3
REFRACTIONTILE
360
59B
  3
SPECULARTILE
360
598
  0
DICTIONARY
  5
5A5
330
5A4
100
AcDbDictionary
280
     1
281
     1
  3
ACAD_XREC_ROUNDTRIP
360
628
  3
BUMPTILE
360
5A7
  3
DIFFUSETILE
360
5A6
  3
OPACITYTILE
360
5AA
  3
REFLECTIONTILE
360
5A9
  3
REFRACTIONTILE
360
5AB
  3
SPECULARTILE
360
5A8
  0
DICTIONARY
  5
622
330
5EF
100
AcDbDictionary
280
     1
281
     1
  3
ACAD_ROUNDTRIP_2008_TABLESTYLE_CELLSTYLEMAP
360
623
  3
ACAD_XREC_ROUNDTRIP
360
629
  0
XRECORD
  5
62D
102
{ACAD_REACTORS
330
62C
102
}
330
62C
100
AcDbXrecord
280
     1
102
SHADEPLOT
 70
     0
102
SHADEPLOTRESLEVEL
 70
     2
102
SHADEPLOTCUSTOMDPI
 70
   300
  0
XRECORD
  5
62B
102
{ACAD_REACTORS
330
62A
102
}
330
62A
100
AcDbXrecord
280
     1
102
SHADEPLOT
 70
     0
102
SHADEPLOTRESLEVEL
 70
     2
102
SHADEPLOTCUSTOMDPI
 70
   300
  0
XRECORD
  5
627
102
{ACAD_REACTORS
330
59D
102
}
330
59D
100
AcDbXrecord
280
     1
102
MATERIAL
148
0.0
149
0.0
149
0.0
 93
        0
 94
      127
282
     0
 72
     0
 77
     0
171
     0
175
     0
179
     0
273
     0
  0
XRECORD
  5
59F
102
{ACAD_REACTORS
330
59D
102
}
330
59D
100
AcDbXrecord
280
     1
270
     1
271
     1
  0
XRECORD
  5
59E
102
{ACAD_REACTORS
330
59D
102
}
330
59D
100
AcDbXrecord
280
     1
270
     1
271
     1
  0
XRECORD
  5
5A2
102
{ACAD_REACTORS
330
59D
102
}
330
59D
100
AcDbXrecord
280
     1
270
     1
271
     1
  0
XRECORD
  5
5A1
102
{ACAD_REACTORS
330
59D
102
}
330
59D
100
AcDbXrecord
280
     1
270
     1
271
     1
  0
XRECORD
  5
5A3
102
{ACAD_REACTORS
330
59D
102
}
330
59D
100
AcDbXrecord
280
     1
270
     1
271
     1
  0
XRECORD
  5
5A0
102
{ACAD_REACTORS
330
59D
102
}
330
59D
100
AcDbXrecord
280
     1
270
     1
271
     1
  0
XRECORD
  5
626
102
{ACAD_REACTORS
330
595
102
}
330
595
100
AcDbXrecord
280
     1
102
MATERIAL
148
0.0
149
0.0
149
0.0
 93
        0
 94
      127
282
     0
 72
     0
 77
     0
171
     0
175
     0
179
     0
273
     0
  0
XRECORD
  5
597
102
{ACAD_REACTORS
330
595
102
}
330
595
100
AcDbXrecord
280
     1
270
     1
271
     1
  0
XRECORD
  5
596
102
{ACAD_REACTORS
330
595
102
}
330
595
100
AcDbXrecord
280
     1
270
     1
271
     1
  0
XRECORD
  5
59A
102
{ACAD_REACTORS
330
595
102
}
330
595
100
AcDbXrecord
280
     1
270
     1
271
     1
  0
XRECORD
  5
599
102
{ACAD_REACTORS
330
595
102
}
330
595
100
AcDbXrecord
280
     1
270
     1
271
     1
  0
XRECORD
  5
59B
102
{ACAD_REACTORS
330
595
102
}
330
595
100
AcDbXrecord
280
     1
270
     1
271
     1
  0
XRECORD
  5
598
102
{ACAD_REACTORS
330
595
102
}
330
595
100
AcDbXrecord
280
     1
270
     1
271
     1
  0
XRECORD
  5
628
102
{ACAD_REACTORS
330
5A5
102
}
330
5A5
100
AcDbXrecord
280
     1
102
MATERIAL
148
0.0
149
0.0
149
0.0
 93
        0
 94
      127
282
     0
 72
     0
 77
     0
171
     0
175
     0
179
     0
273
     0
  0
XRECORD
  5
5A7
102
{ACAD_REACTORS
330
5A5
102
}
330
5A5
100
AcDbXrecord
280
     1
270
     1
271
     1
  0
XRECORD
  5
5A6
102
{ACAD_REACTORS
330
5A5
102
}
330
5A5
100
AcDbXrecord
280
     1
270
     1
271
     1
  0
XRECORD
  5
5AA
102
{ACAD_REACTORS
330
5A5
102
}
330
5A5
100
AcDbXrecord
280
     1
270
     1
271
     1
  0
XRECORD
  5
5A9
102
{ACAD_REACTORS
330
5A5
102
}
330
5A5
100
AcDbXrecord
280
     1
270
     1
271
     1
  0
XRECORD
  5
5AB
102
{ACAD_REACTORS
330
5A5
102
}
330
5A5
100
AcDbXrecord
280
     1
270
     1
271
     1
  0
XRECORD
  5
5A8
102
{ACAD_REACTORS
330
5A5
102
}
330
5A5
100
AcDbXrecord
280
     1
270
     1
271
     1
  0
CELLSTYLEMAP
  5
623
102
{ACAD_REACTORS
330
622
102
}
330
622
100
AcDbCellStyleMap
 90
        3
300
CELLSTYLE
  1
TABLEFORMAT_BEGIN
 90
        5
170
     1
 91
        0
 92
    32768
 62
   257
 93
        1
300
CONTENTFORMAT
  1
CONTENTFORMAT_BEGIN
 90
        0
 91
        0
 92
      512
 93
        0
300

 40
0.0
140
1.0
 94
        5
 62
     0
340
5E0
144
0.25
309
CONTENTFORMAT_END
171
     0
 94
        0
309
TABLEFORMAT_END
  1
CELLSTYLE_BEGIN
 90
        1
 91
        1
300
_TITLE
309
CELLSTYLE_END
300
CELLSTYLE
  1
TABLEFORMAT_BEGIN
 90
        5
170
     1
 91
        0
 92
        0
 62
   257
 93
        1
300
CONTENTFORMAT
  1
CONTENTFORMAT_BEGIN
 90
        0
 91
        0
 92
      512
 93
        0
300

 40
0.0
140
1.0
 94
        5
 62
     0
340
5E0
144
0.18
309
CONTENTFORMAT_END
171
     0
 94
        0
309
TABLEFORMAT_END
  1
CELLSTYLE_BEGIN
 90
        2
 91
        1
300
_HEADER
309
CELLSTYLE_END
300
CELLSTYLE
  1
TABLEFORMAT_BEGIN
 90
        5
170
     1
 91
        0
 92
        0
 62
   257
 93
        1
300
CONTENTFORMAT
  1
CONTENTFORMAT_BEGIN
 90
        0
 91
        0
 92
      512
 93
        0
300

 40
0.0
140
1.0
 94
        2
 62
     0
340
5E0
144
0.18
309
CONTENTFORMAT_END
171
     0
 94
        0
309
TABLEFORMAT_END
  1
CELLSTYLE_BEGIN
 90
        3
 91
        2
300
_DATA
309
CELLSTYLE_END
  0
XRECORD
  5
629
102
{ACAD_REACTORS
330
622
102
}
330
622
100
AcDbXrecord
280
     1
102
ACAD_ROUNDTRIP_PRE2007_TABLESTYLE
 90
      512
 91
        0
  1

 92
      512
 93
        0
  2

 94
      512
 95
        0
  3

  0
ENDSEC
  0
EOF
