  0
SECTION
  2
HEADER
  9
$ACADVER
  1
AC1009
  9
$DWGCODEPAGE
  3
ansi_1252
  9
$INSBASE
 10
0.0
 20
0.0
 30
0.0
  9
$EXTMIN
 10
-127.5
 20
-425.0000000000001
 30
0.0
  9
$EXTMAX
 10
127.5
 20
425.0000000000001
 30
0.0
  9
$LIMMIN
 10
0.0
 20
0.0
  9
$LIMMAX
 10
12.0
 20
9.0
  9
$ORTHOMODE
 70
     0
  9
$REGENMODE
 70
     1
  9
$FILLMODE
 70
     1
  9
$QTEXTMODE
 70
     0
  9
$MIRRTEXT
 70
     1
  9
$DRAGMODE
 70
     2
  9
$LTSCALE
 40
1.0
  9
$OSMODE
 70
    37
  9
$ATTMODE
 70
     1
  9
$TEXTSIZE
 40
0.2
  9
$TRACEWID
 40
0.05
  9
$TEXTSTYLE
  7
STANDARD
  9
$CLAYER
  8
0
  9
$CELTYPE
  6
BYLAYER
  9
$CECOLOR
 62
   256
  9
$DIMSCALE
 40
1.0
  9
$DIMASZ
 40
0.18
  9
$DIMEXO
 40
0.0625
  9
$DIMDLI
 40
0.38
  9
$DIMRND
 40
0.0
  9
$DIMDLE
 40
0.0
  9
$DIMEXE
 40
0.18
  9
$DIMTP
 40
0.0
  9
$DIMTM
 40
0.0
  9
$DIMTXT
 40
0.18
  9
$DIMCEN
 40
0.09
  9
$DIMTSZ
 40
0.0
  9
$DIMTOL
 70
     0
  9
$DIMLIM
 70
     0
  9
$DIMTIH
 70
     1
  9
$DIMTOH
 70
     1
  9
$DIMSE1
 70
     0
  9
$DIMSE2
 70
     0
  9
$DIMTAD
 70
     0
  9
$DIMZIN
 70
     0
  9
$DIMBLK
  1

  9
$DIMASO
 70
     1
  9
$DIMSHO
 70
     1
  9
$DIMPOST
  1

  9
$DIMAPOST
  1

  9
$DIMALT
 70
     0
  9
$DIMALTD
 70
     2
  9
$DIMALTF
 40
25.4
  9
$DIMLFAC
 40
1.0
  9
$DIMTOFL
 70
     0
  9
$DIMTVP
 40
0.0
  9
$DIMTIX
 70
     0
  9
$DIMSOXD
 70
     0
  9
$DIMSAH
 70
     0
  9
$DIMBLK1
  1

  9
$DIMBLK2
  1

  9
$DIMSTYLE
  2
STANDARD
  9
$DIMCLRD
 70
     0
  9
$DIMCLRE
 70
     0
  9
$DIMCLRT
 70
     0
  9
$DIMTFAC
 40
1.0
  9
$DIMGAP
 40
0.09
  9
$LUNITS
 70
     2
  9
$LUPREC
 70
     4
  9
$SKETCHINC
 40
0.1
  9
$FILLETRAD
 40
0.5
  9
$AUNITS
 70
     0
  9
$AUPREC
 70
     0
  9
$MENU
  1
.
  9
$ELEVATION
 40
0.0
  9
$PELEVATION
 40
0.0
  9
$THICKNESS
 40
0.0
  9
$LIMCHECK
 70
     0
  9
$CHAMFERA
 40
0.5
  9
$CHAMFERB
 40
0.5
  9
$SKPOLY
 70
     0
  9
$TDCREATE
 40
2454910.5
  9
$TDUPDATE
 40
2457347.900706644
  9
$TDINDWG
 40
0.0000000116
  9
$TDUSRTIMER
 40
0.0000000116
  9
$USRTIMER
 70
     1
  9
$ANGBASE
 50
0.0
  9
$ANGDIR
 70
     0
  9
$PDMODE
 70
     0
  9
$PDSIZE
 40
0.0
  9
$PLINEWID
 40
0.0
  9
$COORDS
 70
     1
  9
$SPLFRAME
 70
     0
  9
$SPLINETYPE
 70
     6
  9
$SPLINESEGS
 70
     8
  9
$ATTDIA
 70
     0
  9
$ATTREQ
 70
     1
  9
$HANDLING
 70
     1
  9
$HANDSEED
  5
341
  9
$SURFTAB1
 70
     6
  9
$SURFTAB2
 70
     6
  9
$SURFTYPE
 70
     6
  9
$SURFU
 70
     6
  9
$SURFV
 70
     6
  9
$UCSNAME
  2

  9
$UCSORG
 10
0.0
 20
0.0
 30
0.0
  9
$UCSXDIR
 10
1.0
 20
0.0
 30
0.0
  9
$UCSYDIR
 10
0.0
 20
1.0
 30
0.0
  9
$PUCSNAME
  2

  9
$PUCSORG
 10
0.0
 20
0.0
 30
0.0
  9
$PUCSXDIR
 10
1.0
 20
0.0
 30
0.0
  9
$PUCSYDIR
 10
0.0
 20
1.0
 30
0.0
  9
$USERI1
 70
     0
  9
$USERI2
 70
     0
  9
$USERI3
 70
     0
  9
$USERI4
 70
     0
  9
$USERI5
 70
     0
  9
$USERR1
 40
0.0
  9
$USERR2
 40
0.0
  9
$USERR3
 40
0.0
  9
$USERR4
 40
0.0
  9
$USERR5
 40
0.0
  9
$WORLDVIEW
 70
     1
  9
$SHADEDGE
 70
     3
  9
$SHADEDIF
 70
    70
  9
$TILEMODE
 70
     1
  9
$MAXACTVP
 70
    64
  9
$PLIMCHECK
 70
     0
  9
$PEXTMIN
 10
1.000000000000000E+20
 20
1.000000000000000E+20
 30
1.000000000000000E+20
  9
$PEXTMAX
 10
-1.000000000000000E+20
 20
-1.000000000000000E+20
 30
-1.000000000000000E+20
  9
$PLIMMIN
 10
0.0
 20
0.0
  9
$PLIMMAX
 10
12.0
 20
9.0
  9
$UNITMODE
 70
     0
  9
$VISRETAIN
 70
     1
  9
$PLINEGEN
 70
     0
  9
$PSLTSCALE
 70
     1
  0
ENDSEC
  0
SECTION
  2
TABLES
  0
TABLE
  2
VPORT
 70
     1
  0
VPORT
  2
*ACTIVE
 70
     0
 10
0.0
 20
0.0
 11
1.0
 21
1.0
 12
10.42990654205607
 22
4.5
 13
0.0
 23
0.0
 14
0.5
 24
0.5
 15
0.5
 25
0.5
 16
0.0
 26
0.0
 36
1.0
 17
0.0
 27
0.0
 37
0.0
 40
9.0
 41
1.972972972850329
 42
50.0
 43
0.0
 44
0.0
 50
0.0
 51
0.0
 71
     0
 72
   100
 73
     1
 74
     3
 75
     0
 76
     0
 77
     0
 78
     0
  0
ENDTAB
  0
TABLE
  2
LTYPE
 70
     2
  0
LTYPE
  2
CONTINUOUS
 70
     0
  3
Solid line
 72
    65
 73
     0
 40
0.0
  0
LTYPE
  2
CONTINUOUS2
 70
     0
  3
Solid Line
 72
    65
 73
     0
 40
0.0
  0
ENDTAB
  0
TABLE
  2
LAYER
 70
     2
  0
LAYER
  2
0
 70
     0
 62
     7
  6
CONTINUOUS
  0
LAYER
  2
LAYER_1
 70
     0
 62
    18
  6
CONTINUOUS
  0
ENDTAB
  0
TABLE
  2
STYLE
 70
     1
  0
STYLE
  2
STANDARD
 70
     0
 40
0.0
 41
1.0
 50
0.0
 71
     0
 42
0.2
  3
txt
  4

  0
ENDTAB
  0
TABLE
  2
VIEW
 70
     0
  0
ENDTAB
  0
TABLE
  2
UCS
 70
     0
  0
ENDTAB
  0
TABLE
  2
APPID
 70
     1
  0
APPID
  2
ACAD
 70
     0
  0
ENDTAB
  0
TABLE
  2
DIMSTYLE
 70
     1
  0
DIMSTYLE
  2
STANDARD
 70
     0
  3

  4

  5

  6

  7

 40
1.0
 41
0.18
 42
0.0625
 43
0.38
 44
0.18
 45
0.0
 46
0.0
 47
0.0
 48
0.0
140
0.18
141
0.09
142
0.0
143
25.4
144
1.0
145
0.0
146
1.0
147
0.09
 71
     0
 72
     0
 73
     1
 74
     1
 75
     0
 76
     0
 77
     0
 78
     0
170
     0
171
     2
172
     0
173
     0
174
     0
175
     0
176
     0
177
     0
178
     0
  0
ENDTAB
  0
ENDSEC
  0
SECTION
  2
BLOCKS
  0
BLOCK
  8
0
  2
$MODEL_SPACE
 70
     0
 10
0.0
 20
0.0
 30
0.0
  3
$MODEL_SPACE
  1

  0
ENDBLK
  5
21
  8
0
  0
BLOCK
 67
     1
  8
0
  2
$PAPER_SPACE
 70
     0
 10
0.0
 20
0.0
 30
0.0
  3
$PAPER_SPACE
  1

  0
ENDBLK
  5
1D
 67
     1
  8
0
  0
ENDSEC
  0
SECTION
  2
ENTITIES
  0
POLYLINE
  5
41
  8
LAYER_1
 66
     1
 10
0.0
 20
0.0
 30
0.0
 70
     1
  0
VERTEX
  5
AD
  8
LAYER_1
 10
-127.5
 20
-425.0000000000001
 30
0.0
  0
VERTEX
  5
AE
  8
LAYER_1
 10
127.5
 20
-425.0000000000001
 30
0.0
  0
VERTEX
  5
AF
  8
LAYER_1
 10
127.5
 20
425.0000000000001
 30
0.0
  0
VERTEX
  5
B0
  8
LAYER_1
 10
-127.5
 20
425.0000000000001
 30
0.0
  0
SEQEND
  5
B1
  8
LAYER_1
  0
POLYLINE
  5
42
  8
LAYER_1
 66
     1
 10
0.0
 20
0.0
 30
0.0
 70
     1
  0
VERTEX
  5
B2
  8
LAYER_1
 10
-109.4576843710645
 20
413.876629226343
 30
0.0
  0
VERTEX
  5
B3
  8
LAYER_1
 10
-110.890950530558
 20
415.0000000000001
 30
0.0
  0
VERTEX
  5
B4
  8
LAYER_1
 10
-108.4505243670961
 20
415.0000000000001
 30
0.0
  0
SEQEND
  5
B5
  8
LAYER_1
  0
POLYLINE
  5
43
  8
LAYER_1
 66
     1
 10
0.0
 20
0.0
 30
0.0
 70
     1
  0
VERTEX
  5
B6
  8
LAYER_1
 10
37.21645156034671
 20
412.5308970415716
 30
0.0
  0
VERTEX
  5
B7
  8
LAYER_1
 10
35.59386132925501
 20
415.0000000000001
 30
0.0
  0
VERTEX
  5
B8
  8
LAYER_1
 10
38.6419888180523
 20
415.0000000000001
 30
0.0
  0
SEQEND
  5
B9
  8
LAYER_1
  0
POLYLINE
  5
44
  8
LAYER_1
 66
     1
 10
0.0
 20
0.0
 30
0.0
 70
     1
  0
VERTEX
  5
BA
  8
LAYER_1
 10
92.35142908945254
 20
410.9308738022788
 30
0.0
  0
VERTEX
  5
BB
  8
LAYER_1
 10
92.35142908945254
 20
415.0000000000001
 30
0.0
  0
VERTEX
  5
BC
  8
LAYER_1
 10
107.5376148017579
 20
415.0000000000001
 30
0.0
  0
SEQEND
  5
BD
  8
LAYER_1
  0
POLYLINE
  5
45
  8
LAYER_1
 66
     1
 10
0.0
 20
0.0
 30
0.0
 70
     1
  0
VERTEX
  5
BE
  8
LAYER_1
 10
5.145205989384392
 20
391.546217508387
 30
0.0
  0
VERTEX
  5
BF
  8
LAYER_1
 10
-21.74450793488861
 20
391.546217508387
 30
0.0
  0
VERTEX
  5
C0
  8
LAYER_1
 10
-21.74450793488861
 20
415.0000000000001
 30
0.0
  0
VERTEX
  5
C1
  8
LAYER_1
 10
5.145205989384392
 20
415.0000000000001
 30
0.0
  0
SEQEND
  5
C2
  8
LAYER_1
  0
POLYLINE
  5
46
  8
LAYER_1
 66
     1
 10
0.0
 20
0.0
 30
0.0
 70
     1
  0
VERTEX
  5
C3
  8
LAYER_1
 10
-43.45972499356037
 20
409.3717872215541
 30
0.0
  0
VERTEX
  5
C4
  8
LAYER_1
 10
-54.21561056326954
 20
390.7420469344208
 30
0.0
  0
VERTEX
  5
C5
  8
LAYER_1
 10
-51.43178253088524
 20
380.3526592780288
 30
0.0
  0
VERTEX
  5
C6
  8
LAYER_1
 10
-72.94355367030374
 20
380.3526592780288
 30
0.0
  0
VERTEX
  5
C7
  8
LAYER_1
 10
-89.07738202486759
 20
408.2972697087288
 30
0.0
  0
VERTEX
  5
C8
  8
LAYER_1
 10
-86.5893665531139
 20
415.0000000000001
 30
0.0
  0
VERTEX
  5
C9
  8
LAYER_1
 10
-46.70917515625261
 20
415.0000000000001
 30
0.0
  0
SEQEND
  5
CA
  8
LAYER_1
  0
POLYLINE
  5
47
  8
LAYER_1
 66
     1
 10
0.0
 20
0.0
 30
0.0
 70
     1
  0
VERTEX
  5
CB
  8
LAYER_1
 10
117.4999999999996
 20
375.796863052359
 30
0.0
  0
VERTEX
  5
CC
  8
LAYER_1
 10
98.48610093997983
 20
394.8107621123788
 30
0.0
  0
VERTEX
  5
CD
  8
LAYER_1
 10
117.4999999999996
 20
408.0645197614867
 30
0.0
  0
SEQEND
  5
CE
  8
LAYER_1
  0
POLYLINE
  5
48
  8
LAYER_1
 66
     1
 10
0.0
 20
0.0
 30
0.0
 70
     1
  0
VERTEX
  5
CF
  8
LAYER_1
 10
41.82468605378639
 20
380.0022730294787
 30
0.0
  0
VERTEX
  5
D0
  8
LAYER_1
 10
30.41634661777455
 20
368.593933593467
 30
0.0
  0
VERTEX
  5
D1
  8
LAYER_1
 10
16.97148965563806
 20
391.8811089523833
 30
0.0
  0
VERTEX
  5
D2
  8
LAYER_1
 10
16.97148965563806
 20
408.0149373069473
 30
0.0
  0
VERTEX
  5
D3
  8
LAYER_1
 10
11.74282564474787
 20
415.0000000000001
 30
0.0
  0
VERTEX
  5
D4
  8
LAYER_1
 10
19.06067780304916
 20
415.0000000000001
 30
0.0
  0
SEQEND
  5
D5
  8
LAYER_1
  0
POLYLINE
  5
49
  8
LAYER_1
 66
     1
 10
0.0
 20
0.0
 30
0.0
 70
     1
  0
VERTEX
  5
D6
  8
LAYER_1
 10
94.45586845446755
 20
369.0982594532528
 30
0.0
  0
VERTEX
  5
D7
  8
LAYER_1
 10
94.49966757369822
 20
368.3999344046808
 30
0.0
  0
VERTEX
  5
D8
  8
LAYER_1
 10
94.49966757369822
 20
353.4628963173794
 30
0.0
  0
VERTEX
  5
D9
  8
LAYER_1
 10
84.42688755534203
 20
368.3999344046807
 30
0.0
  0
VERTEX
  5
DA
  8
LAYER_1
 10
84.43772310074473
 20
369.0982594532528
 30
0.0
  0
VERTEX
  5
DB
  8
LAYER_1
 10
86.42459479766862
 20
387.303656089109
 30
0.0
  0
SEQEND
  5
DC
  8
LAYER_1
  0
POLYLINE
  5
4A
  8
LAYER_1
 66
     1
 10
0.0
 20
0.0
 30
0.0
 70
     1
  0
VERTEX
  5
DD
  8
LAYER_1
 10
-56.51783320566076
 20
325.269020850298
 30
0.0
  0
VERTEX
  5
DE
  8
LAYER_1
 10
-85.59909104975839
 20
337.5804204089511
 30
0.0
  0
VERTEX
  5
DF
  8
LAYER_1
 10
-85.59909104975839
 20
367.6233598803671
 30
0.0
  0
SEQEND
  5
E0
  8
LAYER_1
  0
POLYLINE
  5
4B
  8
LAYER_1
 66
     1
 10
0.0
 20
0.0
 30
0.0
 70
     1
  0
VERTEX
  5
E1
  8
LAYER_1
 10
15.2253468185396
 20
369.0982594532529
 30
0.0
  0
VERTEX
  5
E2
  8
LAYER_1
 10
15.31736497693966
 20
368.3999344046807
 30
0.0
  0
VERTEX
  5
E3
  8
LAYER_1
 10
-34.18477041451973
 20
324.0673219508062
 30
0.0
  0
VERTEX
  5
E4
  8
LAYER_1
 10
-55.51427014988647
 20
356.0642248727268
 30
0.0
  0
VERTEX
  5
E5
  8
LAYER_1
 10
-44.59305427459171
 20
368.3999344046807
 30
0.0
  0
VERTEX
  5
E6
  8
LAYER_1
 10
-44.59305427459171
 20
369.0982594532528
 30
0.0
  0
VERTEX
  5
E7
  8
LAYER_1
 10
-44.59305427459171
 20
376.0008520732956
 30
0.0
  0
VERTEX
  5
E8
  8
LAYER_1
 10
9.186373573954477
 20
376.0008520732956
 30
0.0
  0
SEQEND
  5
E9
  8
LAYER_1
  0
POLYLINE
  5
4C
  8
LAYER_1
 66
     1
 10
0.0
 20
0.0
 30
0.0
 70
     1
  0
VERTEX
  5
EA
  8
LAYER_1
 10
117.4999999999996
 20
338.3588932148038
 30
0.0
  0
VERTEX
  5
EB
  8
LAYER_1
 10
117.4999999999996
 20
321.1189611985553
 30
0.0
  0
VERTEX
  5
EC
  8
LAYER_1
 10
102.004780892261
 20
321.1189611985553
 30
0.0
  0
VERTEX
  5
ED
  8
LAYER_1
 10
102.004780892261
 20
337.2527895531192
 30
0.0
  0
VERTEX
  5
EE
  8
LAYER_1
 10
110.6560844905794
 20
350.2129025998283
 30
0.0
  0
SEQEND
  5
EF
  8
LAYER_1
  0
POLYLINE
  5
4D
  8
LAYER_1
 66
     1
 10
0.0
 20
0.0
 30
0.0
 70
     1
  0
VERTEX
  5
F0
  8
LAYER_1
 10
83.76786293978265
 20
409.9860390859517
 30
0.0
  0
VERTEX
  5
F1
  8
LAYER_1
 10
67.25078763935055
 20
369.0982594532528
 30
0.0
  0
VERTEX
  5
F2
  8
LAYER_1
 10
67.21142771250507
 20
368.3999344046808
 30
0.0
  0
VERTEX
  5
F3
  8
LAYER_1
 10
89.91975254448967
 20
335.5454313109538
 30
0.0
  0
VERTEX
  5
F4
  8
LAYER_1
 10
76.19134856723721
 20
317.8105336015497
 30
0.0
  0
VERTEX
  5
F5
  8
LAYER_1
 10
58.91466654163412
 20
317.8105336015497
 30
0.0
  0
VERTEX
  5
F6
  8
LAYER_1
 10
37.4028954022158
 20
355.0700141758162
 30
0.0
  0
VERTEX
  5
F7
  8
LAYER_1
 10
48.81123483822763
 20
368.3998709275118
 30
0.0
  0
VERTEX
  5
F8
  8
LAYER_1
 10
48.81123483822763
 20
369.0982277146683
 30
0.0
  0
VERTEX
  5
F9
  8
LAYER_1
 10
48.81123483822763
 20
405.3286040141683
 30
0.0
  0
VERTEX
  5
FA
  8
LAYER_1
 10
54.39501791408709
 20
415.0000000000001
 30
0.0
  0
VERTEX
  5
FB
  8
LAYER_1
 10
80.87305125635055
 20
415.0000000000001
 30
0.0
  0
SEQEND
  5
FC
  8
LAYER_1
  0
POLYLINE
  5
4E
  8
LAYER_1
 66
     1
 10
0.0
 20
0.0
 30
0.0
 70
     1
  0
VERTEX
  5
FD
  8
LAYER_1
 10
36.89214793535291
 20
314.6530221285146
 30
0.0
  0
VERTEX
  5
FE
  8
LAYER_1
 10
-11.17046914222123
 20
321.4694280237423
 30
0.0
  0
VERTEX
  5
FF
  8
LAYER_1
 10
20.75535030583454
 20
346.6483967387666
 30
0.0
  0
SEQEND
  5
100
  8
LAYER_1
  0
POLYLINE
  5
4F
  8
LAYER_1
 66
     1
 10
0.0
 20
0.0
 30
0.0
 70
     1
  0
VERTEX
  5
101
  8
LAYER_1
 10
-100.8979997447682
 20
369.1541197961605
 30
0.0
  0
VERTEX
  5
102
  8
LAYER_1
 10
-100.8979997447682
 20
368.5116550904959
 30
0.0
  0
VERTEX
  5
103
  8
LAYER_1
 10
-100.8979997447682
 20
325.4881128116592
 30
0.0
  0
VERTEX
  5
104
  8
LAYER_1
 10
-86.92569452941814
 20
317.4211986343774
 30
0.0
  0
VERTEX
  5
105
  8
LAYER_1
 10
-86.92569452941814
 20
306.6653130646682
 30
0.0
  0
VERTEX
  5
106
  8
LAYER_1
 10
-117.4716907368313
 20
321.9647846797896
 30
0.0
  0
VERTEX
  5
107
  8
LAYER_1
 10
-117.4716907368313
 20
369.1541197961604
 30
0.0
  0
VERTEX
  5
108
  8
LAYER_1
 10
-117.4716907368313
 20
385.8501343534176
 30
0.0
  0
VERTEX
  5
109
  8
LAYER_1
 10
-100.8979997447682
 20
396.8862912317446
 30
0.0
  0
SEQEND
  5
10A
  8
LAYER_1
  0
POLYLINE
  5
50
  8
LAYER_1
 66
     1
 10
0.0
 20
0.0
 30
0.0
 70
     1
  0
VERTEX
  5
10B
  8
LAYER_1
 10
55.05206659947834
 20
291.2001990766132
 30
0.0
  0
VERTEX
  5
10C
  8
LAYER_1
 10
52.26823856709423
 20
301.5895867330052
 30
0.0
  0
VERTEX
  5
10D
  8
LAYER_1
 10
64.28986157866095
 20
302.0681931697694
 30
0.0
  0
SEQEND
  5
10E
  8
LAYER_1
  0
POLYLINE
  5
51
  8
LAYER_1
 66
     1
 10
0.0
 20
0.0
 30
0.0
 70
     1
  0
VERTEX
  5
10F
  8
LAYER_1
 10
-54.00840437479977
 20
309.4879656216694
 30
0.0
  0
VERTEX
  5
110
  8
LAYER_1
 10
-71.82168852243515
 20
288.5993162353757
 30
0.0
  0
VERTEX
  5
111
  8
LAYER_1
 10
-79.29014261452602
 20
294.0579899977098
 30
0.0
  0
VERTEX
  5
112
  8
LAYER_1
 10
-76.48783417385877
 20
316.453774640023
 30
0.0
  0
SEQEND
  5
113
  8
LAYER_1
  0
POLYLINE
  5
52
  8
LAYER_1
 66
     1
 10
0.0
 20
0.0
 30
0.0
 70
     1
  0
VERTEX
  5
114
  8
LAYER_1
 10
46.49062409959801
 20
280.7248141984963
 30
0.0
  0
VERTEX
  5
115
  8
LAYER_1
 10
-8.02688274687986
 20
306.1875912912644
 30
0.0
  0
VERTEX
  5
116
  8
LAYER_1
 10
39.50705421911614
 20
306.1875912912644
 30
0.0
  0
SEQEND
  5
117
  8
LAYER_1
  0
POLYLINE
  5
53
  8
LAYER_1
 66
     1
 10
0.0
 20
0.0
 30
0.0
 70
     1
  0
VERTEX
  5
118
  8
LAYER_1
 10
12.09719172552092
 20
280.3653473643654
 30
0.0
  0
VERTEX
  5
119
  8
LAYER_1
 10
-4.203831025720628
 20
270.9539474908698
 30
0.0
  0
VERTEX
  5
11A
  8
LAYER_1
 10
-17.11597639688313
 20
293.1634972084661
 30
0.0
  0
SEQEND
  5
11B
  8
LAYER_1
  0
POLYLINE
  5
54
  8
LAYER_1
 66
     1
 10
0.0
 20
0.0
 30
0.0
 70
     1
  0
VERTEX
  5
11C
  8
LAYER_1
 10
-19.73765806464072
 20
270.5226679194803
 30
0.0
  0
VERTEX
  5
11D
  8
LAYER_1
 10
-37.06063310392429
 20
263.1925508158752
 30
0.0
  0
VERTEX
  5
11E
  8
LAYER_1
 10
-58.88362846101521
 20
279.1429216292194
 30
0.0
  0
VERTEX
  5
11F
  8
LAYER_1
 10
-61.11154555493117
 20
281.1170253833222
 30
0.0
  0
VERTEX
  5
120
  8
LAYER_1
 10
-38.5604578116319
 20
303.1247134219636
 30
0.0
  0
SEQEND
  5
121
  8
LAYER_1
  0
POLYLINE
  5
55
  8
LAYER_1
 66
     1
 10
0.0
 20
0.0
 30
0.0
 70
     1
  0
VERTEX
  5
122
  8
LAYER_1
 10
-54.09186691525034
 20
256.3012809327707
 30
0.0
  0
VERTEX
  5
123
  8
LAYER_1
 10
-63.46035253878544
 20
249.6720792511795
 30
0.0
  0
VERTEX
  5
124
  8
LAYER_1
 10
-70.97231005597504
 20
258.7142503366857
 30
0.0
  0
VERTEX
  5
125
  8
LAYER_1
 10
-69.58120681205098
 20
271.2341795320015
 30
0.0
  0
SEQEND
  5
126
  8
LAYER_1
  0
POLYLINE
  5
56
  8
LAYER_1
 66
     1
 10
0.0
 20
0.0
 30
0.0
 70
     1
  0
VERTEX
  5
127
  8
LAYER_1
 10
104.0858301709895
 20
303.5772902680856
 30
0.0
  0
VERTEX
  5
128
  8
LAYER_1
 10
79.61683938174461
 20
244.2744074846792
 30
0.0
  0
VERTEX
  5
129
  8
LAYER_1
 10
59.37898096832402
 20
279.3274064931091
 30
0.0
  0
VERTEX
  5
12A
  8
LAYER_1
 10
74.21639667672956
 20
296.876771654885
 30
0.0
  0
VERTEX
  5
12B
  8
LAYER_1
 10
93.03919642372074
 20
296.876771654885
 30
0.0
  0
VERTEX
  5
12C
  8
LAYER_1
 10
95.99123256584699
 20
317.5975445870178
 30
0.0
  0
SEQEND
  5
12D
  8
LAYER_1
  0
POLYLINE
  5
57
  8
LAYER_1
 66
     1
 10
0.0
 20
0.0
 30
0.0
 70
     1
  0
VERTEX
  5
12E
  8
LAYER_1
 10
-86.19999997960075
 20
284.3763013891508
 30
0.0
  0
VERTEX
  5
12F
  8
LAYER_1
 10
-112.8194586636286
 20
257.756842705123
 30
0.0
  0
VERTEX
  5
130
  8
LAYER_1
 10
-109.9737370583801
 20
250.7534446634488
 30
0.0
  0
VERTEX
  5
131
  8
LAYER_1
 10
-88.23774887206768
 20
267.3950606185943
 30
0.0
  0
VERTEX
  5
132
  8
LAYER_1
 10
-78.40827570665626
 20
267.3950606185943
 30
0.0
  0
VERTEX
  5
133
  8
LAYER_1
 10
-78.40827570665626
 20
251.2612322640304
 30
0.0
  0
VERTEX
  5
134
  8
LAYER_1
 10
-101.7539836352833
 20
242.4920584408553
 30
0.0
  0
VERTEX
  5
135
  8
LAYER_1
 10
-117.4716907368313
 20
242.4920584408553
 30
0.0
  0
VERTEX
  5
136
  8
LAYER_1
 10
-117.4716907368316
 20
312.2772623823532
 30
0.0
  0
SEQEND
  5
137
  8
LAYER_1
  0
POLYLINE
  5
58
  8
LAYER_1
 66
     1
 10
0.0
 20
0.0
 30
0.0
 70
     1
  0
VERTEX
  5
138
  8
LAYER_1
 10
38.74239539031002
 20
265.1179637245187
 30
0.0
  0
VERTEX
  5
139
  8
LAYER_1
 10
15.92571651828635
 20
242.3012848524949
 30
0.0
  0
VERTEX
  5
13A
  8
LAYER_1
 10
0.2758050241412247
 20
264.0372730388073
 30
0.0
  0
VERTEX
  5
13B
  8
LAYER_1
 10
18.79324541434337
 20
265.3853190030241
 30
0.0
  0
VERTEX
  5
13C
  8
LAYER_1
 10
21.57707344672747
 20
275.7747066594164
 30
0.0
  0
SEQEND
  5
13D
  8
LAYER_1
  0
POLYLINE
  5
59
  8
LAYER_1
 66
     1
 10
0.0
 20
0.0
 30
0.0
 70
     1
  0
VERTEX
  5
13E
  8
LAYER_1
 10
117.5
 20
284.3763013891508
 30
0.0
  0
VERTEX
  5
13F
  8
LAYER_1
 10
117.4999999999996
 20
244.1686429752659
 30
0.0
  0
VERTEX
  5
140
  8
LAYER_1
 10
95.63222547718053
 20
238.9838080672335
 30
0.0
  0
VERTEX
  5
141
  8
LAYER_1
 10
117.5
 20
285.4990620226953
 30
0.0
  0
SEQEND
  5
142
  8
LAYER_1
  0
POLYLINE
  5
5A
  8
LAYER_1
 66
     1
 10
0.0
 20
0.0
 30
0.0
 70
     1
  0
VERTEX
  5
143
  8
LAYER_1
 10
9.082244153390613
 20
231.8323337502661
 30
0.0
  0
VERTEX
  5
144
  8
LAYER_1
 10
9.082244153390613
 20
229.4668412784968
 30
0.0
  0
VERTEX
  5
145
  8
LAYER_1
 10
-22.25373515133327
 20
252.3702274329195
 30
0.0
  0
VERTEX
  5
146
  8
LAYER_1
 10
-20.14923137468433
 20
256.0153348987964
 30
0.0
  0
VERTEX
  5
147
  8
LAYER_1
 10
-8.194437872212477
 20
256.0153348987964
 30
0.0
  0
SEQEND
  5
148
  8
LAYER_1
  0
POLYLINE
  5
5B
  8
LAYER_1
 66
     1
 10
0.0
 20
0.0
 30
0.0
 70
     1
  0
VERTEX
  5
149
  8
LAYER_1
 10
-60.83777165887507
 20
217.6994469158428
 30
0.0
  0
VERTEX
  5
14A
  8
LAYER_1
 10
-67.48093189526068
 20
242.4920584408553
 30
0.0
  0
VERTEX
  5
14B
  8
LAYER_1
 10
-42.49803162667379
 20
242.4920584408553
 30
0.0
  0
SEQEND
  5
14C
  8
LAYER_1
  0
POLYLINE
  5
5C
  8
LAYER_1
 66
     1
 10
0.0
 20
0.0
 30
0.0
 70
     1
  0
VERTEX
  5
14D
  8
LAYER_1
 10
69.3613861919624
 20
229.3722694160205
 30
0.0
  0
VERTEX
  5
14E
  8
LAYER_1
 10
30.23660745659977
 20
213.3419781286152
 30
0.0
  0
VERTEX
  5
14F
  8
LAYER_1
 10
24.66895139183156
 20
234.1207534413994
 30
0.0
  0
VERTEX
  5
150
  8
LAYER_1
 10
52.38014542140574
 20
268.7178042814003
 30
0.0
  0
SEQEND
  5
151
  8
LAYER_1
  0
POLYLINE
  5
5D
  8
LAYER_1
 66
     1
 10
0.0
 20
0.0
 30
0.0
 70
     1
  0
VERTEX
  5
152
  8
LAYER_1
 10
-65.7316553627569
 20
202.8332750864009
 30
0.0
  0
VERTEX
  5
153
  8
LAYER_1
 10
-76.48754093246605
 20
202.8332750864009
 30
0.0
  0
VERTEX
  5
154
  8
LAYER_1
 10
-83.25300947600985
 20
220.0768206237206
 30
0.0
  0
VERTEX
  5
155
  8
LAYER_1
 10
-87.32850726094334
 20
197.3219579911749
 30
0.0
  0
VERTEX
  5
156
  8
LAYER_1
 10
-82.9133846605987
 20
192.2275857600078
 30
0.0
  0
VERTEX
  5
157
  8
LAYER_1
 10
-82.9133846605987
 20
176.0937574054439
 30
0.0
  0
VERTEX
  5
158
  8
LAYER_1
 10
-93.66927023030786
 20
176.0937574054439
 30
0.0
  0
VERTEX
  5
159
  8
LAYER_1
 10
-112.492069977299
 20
208.6958029079272
 30
0.0
  0
VERTEX
  5
15A
  8
LAYER_1
 10
-112.492069977299
 20
224.829631262491
 30
0.0
  0
VERTEX
  5
15B
  8
LAYER_1
 10
-88.00775689176565
 20
234.0014380555771
 30
0.0
  0
VERTEX
  5
15C
  8
LAYER_1
 10
-74.0831394599092
 20
234.0014380555771
 30
0.0
  0
SEQEND
  5
15D
  8
LAYER_1
  0
POLYLINE
  5
5E
  8
LAYER_1
 66
     1
 10
0.0
 20
0.0
 30
0.0
 70
     1
  0
VERTEX
  5
15E
  8
LAYER_1
 10
117.4999999999996
 20
172.8856934016888
 30
0.0
  0
VERTEX
  5
15F
  8
LAYER_1
 10
60.68637181115117
 20
172.8856934016888
 30
0.0
  0
VERTEX
  5
160
  8
LAYER_1
 10
71.51583760512531
 20
198.3913553672581
 30
0.0
  0
VERTEX
  5
161
  8
LAYER_1
 10
79.77883721350844
 20
205.996914991266
 30
0.0
  0
VERTEX
  5
162
  8
LAYER_1
 10
90.70293658069633
 20
191.2592342436243
 30
0.0
  0
VERTEX
  5
163
  8
LAYER_1
 10
90.70293658069633
 20
218.1489481678973
 30
0.0
  0
VERTEX
  5
164
  8
LAYER_1
 10
110.943069366052
 20
228.9048337376066
 30
0.0
  0
VERTEX
  5
165
  8
LAYER_1
 10
117.4999999999996
 20
228.9048337376066
 30
0.0
  0
SEQEND
  5
166
  8
LAYER_1
  0
POLYLINE
  5
5F
  8
LAYER_1
 66
     1
 10
0.0
 20
0.0
 30
0.0
 70
     1
  0
VERTEX
  5
167
  8
LAYER_1
 10
53.86342590270647
 20
179.1777614085508
 30
0.0
  0
VERTEX
  5
168
  8
LAYER_1
 10
21.5957691935788
 20
179.1777614085508
 30
0.0
  0
VERTEX
  5
169
  8
LAYER_1
 10
39.97983253402413
 20
206.8838739156297
 30
0.0
  0
VERTEX
  5
16A
  8
LAYER_1
 10
62.2149099998586
 20
210.3459243777269
 30
0.0
  0
SEQEND
  5
16B
  8
LAYER_1
  0
POLYLINE
  5
60
  8
LAYER_1
 66
     1
 10
0.0
 20
0.0
 30
0.0
 70
     1
  0
VERTEX
  5
16C
  8
LAYER_1
 10
14.15811627356629
 20
172.937002778695
 30
0.0
  0
VERTEX
  5
16D
  8
LAYER_1
 10
14.15811627356629
 20
167.5590599938403
 30
0.0
  0
VERTEX
  5
16E
  8
LAYER_1
 10
7.205437756884582
 20
172.1646494789164
 30
0.0
  0
VERTEX
  5
16F
  8
LAYER_1
 10
-7.9228100207889
 20
172.8602011008783
 30
0.0
  0
VERTEX
  5
170
  8
LAYER_1
 10
-11.22668022510848
 20
180.3373810369699
 30
0.0
  0
VERTEX
  5
171
  8
LAYER_1
 10
4.238653702961386
 20
193.4080559258032
 30
0.0
  0
VERTEX
  5
172
  8
LAYER_1
 10
19.63508951101564
 20
193.4080559258032
 30
0.0
  0
SEQEND
  5
173
  8
LAYER_1
  0
POLYLINE
  5
61
  8
LAYER_1
 66
     1
 10
0.0
 20
0.0
 30
0.0
 70
     1
  0
VERTEX
  5
174
  8
LAYER_1
 10
-3.30937946557989
 20
213.1262666983179
 30
0.0
  0
VERTEX
  5
175
  8
LAYER_1
 10
-23.07110822395273
 20
193.4080559258032
 30
0.0
  0
VERTEX
  5
176
  8
LAYER_1
 10
-37.0133375105744
 20
193.4080559258032
 30
0.0
  0
VERTEX
  5
177
  8
LAYER_1
 10
-41.04679459921551
 20
186.4219033181285
 30
0.0
  0
VERTEX
  5
178
  8
LAYER_1
 10
-32.52385491337686
 20
174.1839199242365
 30
0.0
  0
VERTEX
  5
179
  8
LAYER_1
 10
-36.69959696195301
 20
158.5998384396485
 30
0.0
  0
VERTEX
  5
17A
  8
LAYER_1
 10
-46.13281271575327
 20
162.992676277168
 30
0.0
  0
VERTEX
  5
17B
  8
LAYER_1
 10
-57.26812484528969
 20
204.5502269027361
 30
0.0
  0
VERTEX
  5
17C
  8
LAYER_1
 10
-32.80002483140241
 20
238.5298594970274
 30
0.0
  0
SEQEND
  5
17D
  8
LAYER_1
  0
POLYLINE
  5
62
  8
LAYER_1
 66
     1
 10
0.0
 20
0.0
 30
0.0
 70
     1
  0
VERTEX
  5
17E
  8
LAYER_1
 10
-96.48327991241672
 20
163.9658894463282
 30
0.0
  0
VERTEX
  5
17F
  8
LAYER_1
 10
-117.4716907368313
 20
142.9774786219136
 30
0.0
  0
VERTEX
  5
180
  8
LAYER_1
 10
-117.4716907368313
 20
200.3188833643429
 30
0.0
  0
SEQEND
  5
181
  8
LAYER_1
  0
POLYLINE
  5
63
  8
LAYER_1
 66
     1
 10
0.0
 20
0.0
 30
0.0
 70
     1
  0
VERTEX
  5
182
  8
LAYER_1
 10
109.405435203239
 20
160.0368479418933
 30
0.0
  0
VERTEX
  5
183
  8
LAYER_1
 10
109.405435203239
 20
143.9030195873294
 30
0.0
  0
VERTEX
  5
184
  8
LAYER_1
 10
57.45849692127892
 20
129.9838794254088
 30
0.0
  0
VERTEX
  5
185
  8
LAYER_1
 10
61.82087596608974
 20
164.2480374847849
 30
0.0
  0
VERTEX
  5
186
  8
LAYER_1
 10
102.1114409546479
 20
164.2480374847849
 30
0.0
  0
SEQEND
  5
187
  8
LAYER_1
  0
POLYLINE
  5
64
  8
LAYER_1
 66
     1
 10
0.0
 20
0.0
 30
0.0
 70
     1
  0
VERTEX
  5
188
  8
LAYER_1
 10
-59.34070547254268
 20
161.8041778744807
 30
0.0
  0
VERTEX
  5
189
  8
LAYER_1
 10
-59.34070547254268
 20
151.0482923047715
 30
0.0
  0
VERTEX
  5
18A
  8
LAYER_1
 10
-54.99350783528018
 20
148.2191852580353
 30
0.0
  0
VERTEX
  5
18B
  8
LAYER_1
 10
-54.99350783528018
 20
132.0853569034714
 30
0.0
  0
VERTEX
  5
18C
  8
LAYER_1
 10
-67.9802424057704
 20
128.6055718629914
 30
0.0
  0
VERTEX
  5
18D
  8
LAYER_1
 10
-82.36455095889434
 20
141.3438204948523
 30
0.0
  0
VERTEX
  5
18E
  8
LAYER_1
 10
-82.36455095889434
 20
149.4107346721342
 30
0.0
  0
VERTEX
  5
18F
  8
LAYER_1
 10
-90.02996455267935
 20
158.261374820023
 30
0.0
  0
VERTEX
  5
190
  8
LAYER_1
 10
-73.19739794131696
 20
178.106169014215
 30
0.0
  0
SEQEND
  5
191
  8
LAYER_1
  0
POLYLINE
  5
65
  8
LAYER_1
 66
     1
 10
0.0
 20
0.0
 30
0.0
 70
     1
  0
VERTEX
  5
192
  8
LAYER_1
 10
47.60937727435616
 20
126.9272560867087
 30
0.0
  0
VERTEX
  5
193
  8
LAYER_1
 10
23.4689324237918
 20
136.3324293188653
 30
0.0
  0
VERTEX
  5
194
  8
LAYER_1
 10
18.04362977248819
 20
122.5605072040176
 30
0.0
  0
VERTEX
  5
195
  8
LAYER_1
 10
25.64918939649614
 20
114.9549475800098
 30
0.0
  0
VERTEX
  5
196
  8
LAYER_1
 10
-3.719341605408565
 20
105.4126210271593
 30
0.0
  0
VERTEX
  5
197
  8
LAYER_1
 10
13.12604923898359
 20
159.2091917882827
 30
0.0
  0
VERTEX
  5
198
  8
LAYER_1
 10
30.81939316107208
 20
164.2480374847849
 30
0.0
  0
VERTEX
  5
199
  8
LAYER_1
 10
36.53460764922156
 20
164.2480374847849
 30
0.0
  0
SEQEND
  5
19A
  8
LAYER_1
  0
POLYLINE
  5
66
  8
LAYER_1
 66
     1
 10
0.0
 20
0.0
 30
0.0
 70
     1
  0
VERTEX
  5
19B
  8
LAYER_1
 10
117.4999999999996
 20
94.80011561263206
 30
0.0
  0
VERTEX
  5
19C
  8
LAYER_1
 10
71.76249293244008
 20
113.1588660699412
 30
0.0
  0
VERTEX
  5
19D
  8
LAYER_1
 10
85.98775069383429
 20
119.8842525146386
 30
0.0
  0
VERTEX
  5
19E
  8
LAYER_1
 10
91.8535598186712
 20
115.1545014852971
 30
0.0
  0
VERTEX
  5
19F
  8
LAYER_1
 10
101.493918755736
 20
125.5483793361392
 30
0.0
  0
VERTEX
  5
1A0
  8
LAYER_1
 10
110.4357009582311
 20
118.1581433527932
 30
0.0
  0
VERTEX
  5
1A1
  8
LAYER_1
 10
117.4999999999996
 20
126.2391496056558
 30
0.0
  0
SEQEND
  5
1A2
  8
LAYER_1
  0
POLYLINE
  5
67
  8
LAYER_1
 66
     1
 10
0.0
 20
0.0
 30
0.0
 70
     1
  0
VERTEX
  5
1A3
  8
LAYER_1
 10
-26.10446702565568
 20
116.6977849357301
 30
0.0
  0
VERTEX
  5
1A4
  8
LAYER_1
 10
-47.29705550731015
 20
134.9016750417667
 30
0.0
  0
VERTEX
  5
1A5
  8
LAYER_1
 10
-44.58005698402108
 20
143.5960703162917
 30
0.0
  0
SEQEND
  5
1A6
  8
LAYER_1
  0
POLYLINE
  5
68
  8
LAYER_1
 66
     1
 10
0.0
 20
0.0
 30
0.0
 70
     1
  0
VERTEX
  5
1A7
  8
LAYER_1
 10
-15.37020201135867
 20
111.6930340768977
 30
0.0
  0
VERTEX
  5
1A8
  8
LAYER_1
 10
-34.19300175834965
 20
143.9401037223132
 30
0.0
  0
VERTEX
  5
1A9
  8
LAYER_1
 10
-24.85661857961366
 20
164.2480374847849
 30
0.0
  0
VERTEX
  5
1AA
  8
LAYER_1
 10
7.41103812951401
 20
164.2480374847849
 30
0.0
  0
SEQEND
  5
1AB
  8
LAYER_1
  0
POLYLINE
  5
69
  8
LAYER_1
 66
     1
 10
0.0
 20
0.0
 30
0.0
 70
     1
  0
VERTEX
  5
1AC
  8
LAYER_1
 10
-80.92688973377257
 20
124.7696394604816
 30
0.0
  0
VERTEX
  5
1AD
  8
LAYER_1
 10
-79.10603193754216
 20
114.6123588236206
 30
0.0
  0
VERTEX
  5
1AE
  8
LAYER_1
 10
-92.55088889967865
 20
114.6123588236206
 30
0.0
  0
VERTEX
  5
1AF
  8
LAYER_1
 10
-105.8606182416924
 20
101.3026294816066
 30
0.0
  0
VERTEX
  5
1B0
  8
LAYER_1
 10
-117.4716907368313
 20
101.2301281126589
 30
0.0
  0
VERTEX
  5
1B1
  8
LAYER_1
 10
-117.4716907368313
 20
118.8145438742861
 30
0.0
  0
VERTEX
  5
1B2
  8
LAYER_1
 10
-101.8853475567975
 20
136.8700107264046
 30
0.0
  0
SEQEND
  5
1B3
  8
LAYER_1
  0
POLYLINE
  5
6A
  8
LAYER_1
 66
     1
 10
0.0
 20
0.0
 30
0.0
 70
     1
  0
VERTEX
  5
1B4
  8
LAYER_1
 10
-48.8224429765032
 20
103.7911382144333
 30
0.0
  0
VERTEX
  5
1B5
  8
LAYER_1
 10
-41.21688335249524
 20
111.3966978384413
 30
0.0
  0
VERTEX
  5
1B6
  8
LAYER_1
 10
-22.58714306536199
 20
100.640812268732
 30
0.0
  0
VERTEX
  5
1B7
  8
LAYER_1
 10
-50.53175349606187
 20
84.5069839141683
 30
0.0
  0
VERTEX
  5
1B8
  8
LAYER_1
 10
-66.03353316755211
 20
107.7378431224761
 30
0.0
  0
VERTEX
  5
1B9
  8
LAYER_1
 10
-51.60627100888711
 20
114.1805258708253
 30
0.0
  0
SEQEND
  5
1BA
  8
LAYER_1
  0
POLYLINE
  5
6B
  8
LAYER_1
 66
     1
 10
0.0
 20
0.0
 30
0.0
 70
     1
  0
VERTEX
  5
1BB
  8
LAYER_1
 10
57.71582495368547
 20
103.9814154844432
 30
0.0
  0
VERTEX
  5
1BC
  8
LAYER_1
 10
66.00566499320443
 20
73.04331127033953
 30
0.0
  0
VERTEX
  5
1BD
  8
LAYER_1
 10
24.08874934715452
 20
97.24405380218519
 30
0.0
  0
VERTEX
  5
1BE
  8
LAYER_1
 10
42.71848963428778
 20
107.9999393718944
 30
0.0
  0
SEQEND
  5
1BF
  8
LAYER_1
  0
POLYLINE
  5
6C
  8
LAYER_1
 66
     1
 10
0.0
 20
0.0
 30
0.0
 70
     1
  0
VERTEX
  5
1C0
  8
LAYER_1
 10
-65.72790316804347
 20
85.78996838877612
 30
0.0
  0
VERTEX
  5
1C1
  8
LAYER_1
 10
-117.4716907368313
 20
64.41573731681143
 30
0.0
  0
VERTEX
  5
1C2
  8
LAYER_1
 10
-117.4716907368313
 20
85.36150088491462
 30
0.0
  0
VERTEX
  5
1C3
  8
LAYER_1
 10
-76.48378873775262
 20
104.4197086759094
 30
0.0
  0
SEQEND
  5
1C4
  8
LAYER_1
  0
POLYLINE
  5
6D
  8
LAYER_1
 66
     1
 10
0.0
 20
0.0
 30
0.0
 70
     1
  0
VERTEX
  5
1C5
  8
LAYER_1
 10
-38.52717635602335
 20
62.91488181189112
 30
0.0
  0
VERTEX
  5
1C6
  8
LAYER_1
 10
-49.14822803095629
 20
73.53593348682381
 30
0.0
  0
VERTEX
  5
1C7
  8
LAYER_1
 10
-24.93912937777604
 20
82.74591667009867
 30
0.0
  0
SEQEND
  5
1C8
  8
LAYER_1
  0
POLYLINE
  5
6E
  8
LAYER_1
 66
     1
 10
0.0
 20
0.0
 30
0.0
 70
     1
  0
VERTEX
  5
1C9
  8
LAYER_1
 10
92.36812989979566
 20
83.91205827412665
 30
0.0
  0
VERTEX
  5
1CA
  8
LAYER_1
 10
78.92327293765916
 20
60.62488291520998
 30
0.0
  0
VERTEX
  5
1CB
  8
LAYER_1
 10
71.44724127047002
 20
99.67064970920302
 30
0.0
  0
SEQEND
  5
1CC
  8
LAYER_1
  0
POLYLINE
  5
6F
  8
LAYER_1
 66
     1
 10
0.0
 20
0.0
 30
0.0
 70
     1
  0
VERTEX
  5
1CD
  8
LAYER_1
 10
-103.8063274426231
 20
51.59151014969126
 30
0.0
  0
VERTEX
  5
1CE
  8
LAYER_1
 10
-109.4576843710645
 20
45.28807357566069
 30
0.0
  0
VERTEX
  5
1CF
  8
LAYER_1
 10
-117.5
 20
51.59151014969127
 30
0.0
  0
VERTEX
  5
1D0
  8
LAYER_1
 10
-97.39421092766116
 20
60.7206251879424
 30
0.0
  0
SEQEND
  5
1D1
  8
LAYER_1
  0
POLYLINE
  5
70
  8
LAYER_1
 66
     1
 10
0.0
 20
0.0
 30
0.0
 70
     1
  0
VERTEX
  5
1D2
  8
LAYER_1
 10
53.35027991491054
 20
71.88695182158932
 30
0.0
  0
VERTEX
  5
1D3
  8
LAYER_1
 10
37.21645156034671
 20
43.94234139088945
 30
0.0
  0
VERTEX
  5
1D4
  8
LAYER_1
 10
6.889605166667939
 20
90.09084192762583
 30
0.0
  0
SEQEND
  5
1D5
  8
LAYER_1
  0
POLYLINE
  5
71
  8
LAYER_1
 66
     1
 10
0.0
 20
0.0
 30
0.0
 70
     1
  0
VERTEX
  5
1D6
  8
LAYER_1
 10
117.4999999999996
 20
76.66785737222432
 30
0.0
  0
VERTEX
  5
1D7
  8
LAYER_1
 10
117.4999999999996
 20
49.0808574178746
 30
0.0
  0
VERTEX
  5
1D8
  8
LAYER_1
 10
92.35142908945254
 20
42.34231815159643
 30
0.0
  0
VERTEX
  5
1D9
  8
LAYER_1
 10
92.35142908945254
 20
63.85408929101499
 30
0.0
  0
VERTEX
  5
1DA
  8
LAYER_1
 10
104.3525930150825
 20
84.25851633411168
 30
0.0
  0
SEQEND
  5
1DB
  8
LAYER_1
  0
POLYLINE
  5
72
  8
LAYER_1
 66
     1
 10
0.0
 20
0.0
 30
0.0
 70
     1
  0
VERTEX
  5
1DC
  8
LAYER_1
 10
-43.45972499356037
 20
40.78323157087192
 30
0.0
  0
VERTEX
  5
1DD
  8
LAYER_1
 10
-54.21561056326954
 20
22.1534912837389
 30
0.0
  0
VERTEX
  5
1DE
  8
LAYER_1
 10
-51.43178253088524
 20
11.76410362734686
 30
0.0
  0
VERTEX
  5
1DF
  8
LAYER_1
 10
-72.94355367030374
 20
11.76410362734686
 30
0.0
  0
VERTEX
  5
1E0
  8
LAYER_1
 10
-89.07738202486759
 20
39.70871405804672
 30
0.0
  0
VERTEX
  5
1E1
  8
LAYER_1
 10
-80.37232866090814
 20
63.16018593680366
 30
0.0
  0
VERTEX
  5
1E2
  8
LAYER_1
 10
-59.59355334812402
 20
68.72784200157179
 30
0.0
  0
SEQEND
  5
1E3
  8
LAYER_1
  0
POLYLINE
  5
73
  8
LAYER_1
 66
     1
 10
0.0
 20
0.0
 30
0.0
 70
     1
  0
VERTEX
  5
1E4
  8
LAYER_1
 10
117.4999999999996
 20
7.208307401677018
 30
0.0
  0
VERTEX
  5
1E5
  8
LAYER_1
 10
98.48610093997983
 20
26.22220646169689
 30
0.0
  0
VERTEX
  5
1E6
  8
LAYER_1
 10
117.4999999999996
 20
39.47596411080457
 30
0.0
  0
SEQEND
  5
1E7
  8
LAYER_1
  0
POLYLINE
  5
74
  8
LAYER_1
 66
     1
 10
0.0
 20
0.0
 30
0.0
 70
     1
  0
VERTEX
  5
1E8
  8
LAYER_1
 10
41.82468605378639
 20
11.41371737879655
 30
0.0
  0
VERTEX
  5
1E9
  8
LAYER_1
 10
30.41634661777455
 20
0.0053779427847189
 30
0.0
  0
VERTEX
  5
1EA
  8
LAYER_1
 10
16.97148965563806
 20
23.29255330170139
 30
0.0
  0
VERTEX
  5
1EB
  8
LAYER_1
 10
16.97148965563806
 20
39.42638165626494
 30
0.0
  0
VERTEX
  5
1EC
  8
LAYER_1
 10
5.145205989384392
 20
55.22531856683264
 30
0.0
  0
VERTEX
  5
1ED
  8
LAYER_1
 10
5.145205989384392
 20
22.95766185770486
 30
0.0
  0
VERTEX
  5
1EE
  8
LAYER_1
 10
-21.74450793488861
 20
22.95766185770486
 30
0.0
  0
VERTEX
  5
1EF
  8
LAYER_1
 10
-21.74450793488861
 20
60.60326135168708
 30
0.0
  0
VERTEX
  5
1F0
  8
LAYER_1
 10
-6.897224126743724
 20
86.3195112617887
 30
0.0
  0
SEQEND
  5
1F1
  8
LAYER_1
  0
POLYLINE
  5
75
  8
LAYER_1
 66
     1
 10
0.0
 20
0.0
 30
0.0
 70
     1
  0
VERTEX
  5
1F2
  8
LAYER_1
 10
94.45586845446755
 20
0.505325859785728
 30
0.0
  0
VERTEX
  5
1F3
  8
LAYER_1
 10
94.49966757369822
 20
-0.1973771315711588
 30
0.0
  0
VERTEX
  5
1F4
  8
LAYER_1
 10
94.49966757369822
 20
-15.13441521887245
 30
0.0
  0
VERTEX
  5
1F5
  8
LAYER_1
 10
84.42688755534203
 20
-0.1973771315711588
 30
0.0
  0
VERTEX
  5
1F6
  8
LAYER_1
 10
84.43772310074473
 20
0.505325859785728
 30
0.0
  0
VERTEX
  5
1F7
  8
LAYER_1
 10
86.42459479766862
 20
18.71510043842676
 30
0.0
  0
SEQEND
  5
1F8
  8
LAYER_1
  0
POLYLINE
  5
76
  8
LAYER_1
 66
     1
 10
0.0
 20
0.0
 30
0.0
 70
     1
  0
VERTEX
  5
1F9
  8
LAYER_1
 10
-56.51783320566076
 20
-43.32829068595396
 30
0.0
  0
VERTEX
  5
1FA
  8
LAYER_1
 10
-85.59909104975839
 20
-31.01689112730065
 30
0.0
  0
VERTEX
  5
1FB
  8
LAYER_1
 10
-85.59909104975839
 20
-0.9739516558848322
 30
0.0
  0
SEQEND
  5
1FC
  8
LAYER_1
  0
POLYLINE
  5
77
  8
LAYER_1
 66
     1
 10
0.0
 20
0.0
 30
0.0
 70
     1
  0
VERTEX
  5
1FD
  8
LAYER_1
 10
15.22534681853951
 20
0.505325859785728
 30
0.0
  0
VERTEX
  5
1FE
  8
LAYER_1
 10
15.31736497693966
 20
-0.1973771315711588
 30
0.0
  0
VERTEX
  5
1FF
  8
LAYER_1
 10
-34.18477041451973
 20
-44.52998958544578
 30
0.0
  0
VERTEX
  5
200
  8
LAYER_1
 10
-55.51427014988647
 20
-12.53308666352513
 30
0.0
  0
VERTEX
  5
201
  8
LAYER_1
 10
-44.59305427459171
 20
-0.1973771315711588
 30
0.0
  0
VERTEX
  5
202
  8
LAYER_1
 10
-44.59305427459171
 20
0.505325859785728
 30
0.0
  0
VERTEX
  5
203
  8
LAYER_1
 10
-44.59305427459171
 20
7.412296422613451
 30
0.0
  0
VERTEX
  5
204
  8
LAYER_1
 10
9.186373573954477
 20
7.412296422613451
 30
0.0
  0
SEQEND
  5
205
  8
LAYER_1
  0
POLYLINE
  5
78
  8
LAYER_1
 66
     1
 10
0.0
 20
0.0
 30
0.0
 70
     1
  0
VERTEX
  5
206
  8
LAYER_1
 10
117.4999999999996
 20
-30.23841832144825
 30
0.0
  0
VERTEX
  5
207
  8
LAYER_1
 10
117.4999999999996
 20
-47.47835033769655
 30
0.0
  0
VERTEX
  5
208
  8
LAYER_1
 10
102.004780892261
 20
-47.47835033769655
 30
0.0
  0
VERTEX
  5
209
  8
LAYER_1
 10
102.004780892261
 20
-31.34452198313267
 30
0.0
  0
VERTEX
  5
20A
  8
LAYER_1
 10
110.6560844905794
 20
-18.38440893642377
 30
0.0
  0
SEQEND
  5
20B
  8
LAYER_1
  0
POLYLINE
  5
79
  8
LAYER_1
 66
     1
 10
0.0
 20
0.0
 30
0.0
 70
     1
  0
VERTEX
  5
20C
  8
LAYER_1
 10
83.76786293978265
 20
41.39748343526929
 30
0.0
  0
VERTEX
  5
20D
  8
LAYER_1
 10
67.25078763935045
 20
0.505325859785728
 30
0.0
  0
VERTEX
  5
20E
  8
LAYER_1
 10
67.21142771250507
 20
-0.1973771315711588
 30
0.0
  0
VERTEX
  5
20F
  8
LAYER_1
 10
89.91975254448967
 20
-33.05188022529813
 30
0.0
  0
VERTEX
  5
210
  8
LAYER_1
 10
76.19134856723721
 20
-50.78677793470223
 30
0.0
  0
VERTEX
  5
211
  8
LAYER_1
 10
58.91466654163412
 20
-50.78677793470223
 30
0.0
  0
VERTEX
  5
212
  8
LAYER_1
 10
37.4028954022158
 20
-13.52729736043574
 30
0.0
  0
VERTEX
  5
213
  8
LAYER_1
 10
48.81123483822763
 20
-0.1974406087401235
 30
0.0
  0
VERTEX
  5
214
  8
LAYER_1
 10
48.81123483822763
 20
0.5052941212013025
 30
0.0
  0
VERTEX
  5
215
  8
LAYER_1
 10
48.81123483822763
 20
36.7400483634861
 30
0.0
  0
VERTEX
  5
216
  8
LAYER_1
 10
67.63403458521881
 20
69.34209386596916
 30
0.0
  0
SEQEND
  5
217
  8
LAYER_1
  0
POLYLINE
  5
7A
  8
LAYER_1
 66
     1
 10
0.0
 20
0.0
 30
0.0
 70
     1
  0
VERTEX
  5
218
  8
LAYER_1
 10
36.89214793535291
 20
-53.94428940773713
 30
0.0
  0
VERTEX
  5
219
  8
LAYER_1
 10
-11.17046914222123
 20
-47.12788351250964
 30
0.0
  0
VERTEX
  5
21A
  8
LAYER_1
 10
20.75535030583454
 20
-21.94891479748532
 30
0.0
  0
SEQEND
  5
21B
  8
LAYER_1
  0
POLYLINE
  5
7B
  8
LAYER_1
 66
     1
 10
0.0
 20
0.0
 30
0.0
 70
     1
  0
VERTEX
  5
21C
  8
LAYER_1
 10
-100.8979997447682
 20
0.5611862026933636
 30
0.0
  0
VERTEX
  5
21D
  8
LAYER_1
 10
-100.8979997447682
 20
-0.0856564457560012
 30
0.0
  0
VERTEX
  5
21E
  8
LAYER_1
 10
-100.8979997447682
 20
-43.10919872459277
 30
0.0
  0
VERTEX
  5
21F
  8
LAYER_1
 10
-86.92569452941814
 20
-51.17611290187466
 30
0.0
  0
VERTEX
  5
220
  8
LAYER_1
 10
-86.92569452941814
 20
-61.93199847158377
 30
0.0
  0
VERTEX
  5
221
  8
LAYER_1
 10
-117.4716907368313
 20
-46.63252685646211
 30
0.0
  0
VERTEX
  5
222
  8
LAYER_1
 10
-117.4716907368313
 20
0.5611862026933636
 30
0.0
  0
VERTEX
  5
223
  8
LAYER_1
 10
-117.4716907368313
 20
9.194664525453675
 30
0.0
  0
VERTEX
  5
224
  8
LAYER_1
 10
-117.4716907368313
 20
17.26157870273545
 30
0.0
  0
VERTEX
  5
225
  8
LAYER_1
 10
-100.8979997447682
 20
28.29773558106245
 30
0.0
  0
SEQEND
  5
226
  8
LAYER_1
  0
POLYLINE
  5
7C
  8
LAYER_1
 66
     1
 10
0.0
 20
0.0
 30
0.0
 70
     1
  0
VERTEX
  5
227
  8
LAYER_1
 10
55.05206659947834
 20
-77.39711245963878
 30
0.0
  0
VERTEX
  5
228
  8
LAYER_1
 10
52.26823856709423
 20
-67.00772480324673
 30
0.0
  0
VERTEX
  5
229
  8
LAYER_1
 10
64.28986157866095
 20
-66.52911836648258
 30
0.0
  0
SEQEND
  5
22A
  8
LAYER_1
  0
POLYLINE
  5
7D
  8
LAYER_1
 66
     1
 10
0.0
 20
0.0
 30
0.0
 70
     1
  0
VERTEX
  5
22B
  8
LAYER_1
 10
-54.00840437479977
 20
-59.10934591458278
 30
0.0
  0
VERTEX
  5
22C
  8
LAYER_1
 10
-71.82168852243515
 20
-79.9979953008762
 30
0.0
  0
VERTEX
  5
22D
  8
LAYER_1
 10
-79.29014261452603
 20
-74.53932153854224
 30
0.0
  0
VERTEX
  5
22E
  8
LAYER_1
 10
-76.48783417385877
 20
-52.1435368962288
 30
0.0
  0
SEQEND
  5
22F
  8
LAYER_1
  0
POLYLINE
  5
7E
  8
LAYER_1
 66
     1
 10
0.0
 20
0.0
 30
0.0
 70
     1
  0
VERTEX
  5
230
  8
LAYER_1
 10
46.49062409959801
 20
-87.87249733775576
 30
0.0
  0
VERTEX
  5
231
  8
LAYER_1
 10
-8.02688274687986
 20
-62.40972024498757
 30
0.0
  0
VERTEX
  5
232
  8
LAYER_1
 10
39.50705421911614
 20
-62.40972024498757
 30
0.0
  0
SEQEND
  5
233
  8
LAYER_1
  0
POLYLINE
  5
7F
  8
LAYER_1
 66
     1
 10
0.0
 20
0.0
 30
0.0
 70
     1
  0
VERTEX
  5
234
  8
LAYER_1
 10
12.09719172552092
 20
-88.23196417188655
 30
0.0
  0
VERTEX
  5
235
  8
LAYER_1
 10
-4.203831025720628
 20
-97.64336404538216
 30
0.0
  0
VERTEX
  5
236
  8
LAYER_1
 10
-17.11597639688313
 20
-75.4338143277858
 30
0.0
  0
SEQEND
  5
237
  8
LAYER_1
  0
POLYLINE
  5
80
  8
LAYER_1
 66
     1
 10
0.0
 20
0.0
 30
0.0
 70
     1
  0
VERTEX
  5
238
  8
LAYER_1
 10
-19.73765806464072
 20
-98.07464361677143
 30
0.0
  0
VERTEX
  5
239
  8
LAYER_1
 10
-37.06063310392429
 20
-105.4047607203767
 30
0.0
  0
VERTEX
  5
23A
  8
LAYER_1
 10
-58.88362846101521
 20
-89.45438990703241
 30
0.0
  0
VERTEX
  5
23B
  8
LAYER_1
 10
-61.11154555493117
 20
-87.48028615292986
 30
0.0
  0
VERTEX
  5
23C
  8
LAYER_1
 10
-38.5604578116319
 20
-65.47259811428836
 30
0.0
  0
SEQEND
  5
23D
  8
LAYER_1
  0
POLYLINE
  5
81
  8
LAYER_1
 66
     1
 10
0.0
 20
0.0
 30
0.0
 70
     1
  0
VERTEX
  5
23E
  8
LAYER_1
 10
-54.09186691525034
 20
-112.2960306034815
 30
0.0
  0
VERTEX
  5
23F
  8
LAYER_1
 10
-63.46035253878544
 20
-118.9252322850725
 30
0.0
  0
VERTEX
  5
240
  8
LAYER_1
 10
-70.97231005597504
 20
-109.8830611995663
 30
0.0
  0
VERTEX
  5
241
  8
LAYER_1
 10
-69.58120681205098
 20
-97.36313200425053
 30
0.0
  0
SEQEND
  5
242
  8
LAYER_1
  0
POLYLINE
  5
82
  8
LAYER_1
 66
     1
 10
0.0
 20
0.0
 30
0.0
 70
     1
  0
VERTEX
  5
243
  8
LAYER_1
 10
104.0858301709895
 20
-65.02002126816632
 30
0.0
  0
VERTEX
  5
244
  8
LAYER_1
 10
79.61683938174461
 20
-124.3229040515727
 30
0.0
  0
VERTEX
  5
245
  8
LAYER_1
 10
59.37898096832402
 20
-89.26990504314307
 30
0.0
  0
VERTEX
  5
246
  8
LAYER_1
 10
74.21639667672956
 20
-71.72053988136707
 30
0.0
  0
VERTEX
  5
247
  8
LAYER_1
 10
93.03919642372074
 20
-71.72053988136707
 30
0.0
  0
VERTEX
  5
248
  8
LAYER_1
 10
95.99123256584699
 20
-50.99976694923413
 30
0.0
  0
SEQEND
  5
249
  8
LAYER_1
  0
POLYLINE
  5
83
  8
LAYER_1
 66
     1
 10
0.0
 20
0.0
 30
0.0
 70
     1
  0
VERTEX
  5
24A
  8
LAYER_1
 10
-86.19999997960075
 20
-84.22101014710125
 30
0.0
  0
VERTEX
  5
24B
  8
LAYER_1
 10
-112.8194586636286
 20
-110.8404688311289
 30
0.0
  0
VERTEX
  5
24C
  8
LAYER_1
 10
-109.9737370583801
 20
-117.8438668728034
 30
0.0
  0
VERTEX
  5
24D
  8
LAYER_1
 10
-88.23774887206768
 20
-101.2022509176579
 30
0.0
  0
VERTEX
  5
24E
  8
LAYER_1
 10
-78.40827570665626
 20
-101.2022509176579
 30
0.0
  0
VERTEX
  5
24F
  8
LAYER_1
 10
-78.40827570665626
 20
-117.3360792722215
 30
0.0
  0
VERTEX
  5
250
  8
LAYER_1
 10
-101.7539836352833
 20
-126.1052530953966
 30
0.0
  0
VERTEX
  5
251
  8
LAYER_1
 10
-117.4716907368313
 20
-126.1052530953966
 30
0.0
  0
VERTEX
  5
252
  8
LAYER_1
 10
-117.4716907368316
 20
-56.32004915389876
 30
0.0
  0
SEQEND
  5
253
  8
LAYER_1
  0
POLYLINE
  5
84
  8
LAYER_1
 66
     1
 10
0.0
 20
0.0
 30
0.0
 70
     1
  0
VERTEX
  5
254
  8
LAYER_1
 10
38.74239539031002
 20
-103.4793478117335
 30
0.0
  0
VERTEX
  5
255
  8
LAYER_1
 10
15.92571651828635
 20
-126.2960266837569
 30
0.0
  0
VERTEX
  5
256
  8
LAYER_1
 10
0.2758050241412247
 20
-104.5600384974444
 30
0.0
  0
VERTEX
  5
257
  8
LAYER_1
 10
18.79324541434337
 20
-103.2119925332278
 30
0.0
  0
VERTEX
  5
258
  8
LAYER_1
 10
21.57707344672747
 20
-92.82260487683578
 30
0.0
  0
SEQEND
  5
259
  8
LAYER_1
  0
POLYLINE
  5
85
  8
LAYER_1
 66
     1
 10
0.0
 20
0.0
 30
0.0
 70
     1
  0
VERTEX
  5
25A
  8
LAYER_1
 10
117.5
 20
-84.22101014710125
 30
0.0
  0
VERTEX
  5
25B
  8
LAYER_1
 10
117.4999999999996
 20
-124.4286685609862
 30
0.0
  0
VERTEX
  5
25C
  8
LAYER_1
 10
95.63222547718053
 20
-129.6135034690187
 30
0.0
  0
VERTEX
  5
25D
  8
LAYER_1
 10
117.5
 20
-83.09824951355662
 30
0.0
  0
SEQEND
  5
25E
  8
LAYER_1
  0
POLYLINE
  5
86
  8
LAYER_1
 66
     1
 10
0.0
 20
0.0
 30
0.0
 70
     1
  0
VERTEX
  5
25F
  8
LAYER_1
 10
9.082244153390613
 20
-136.7649777859858
 30
0.0
  0
VERTEX
  5
260
  8
LAYER_1
 10
9.082244153390613
 20
-139.1304702577551
 30
0.0
  0
VERTEX
  5
261
  8
LAYER_1
 10
-22.25373515133327
 20
-116.2270841033322
 30
0.0
  0
VERTEX
  5
262
  8
LAYER_1
 10
-20.14923137468433
 20
-112.5819766374556
 30
0.0
  0
VERTEX
  5
263
  8
LAYER_1
 10
-8.194437872212477
 20
-112.5819766374556
 30
0.0
  0
SEQEND
  5
264
  8
LAYER_1
  0
POLYLINE
  5
87
  8
LAYER_1
 66
     1
 10
0.0
 20
0.0
 30
0.0
 70
     1
  0
VERTEX
  5
265
  8
LAYER_1
 10
-60.83777165887507
 20
-150.8978646204093
 30
0.0
  0
VERTEX
  5
266
  8
LAYER_1
 10
-67.48093189526068
 20
-126.1052530953966
 30
0.0
  0
VERTEX
  5
267
  8
LAYER_1
 10
-42.49803162667379
 20
-126.1052530953966
 30
0.0
  0
SEQEND
  5
268
  8
LAYER_1
  0
POLYLINE
  5
88
  8
LAYER_1
 66
     1
 10
0.0
 20
0.0
 30
0.0
 70
     1
  0
VERTEX
  5
269
  8
LAYER_1
 10
69.3613861919624
 20
-139.2250421202312
 30
0.0
  0
VERTEX
  5
26A
  8
LAYER_1
 10
30.23660745659977
 20
-155.2553334076368
 30
0.0
  0
VERTEX
  5
26B
  8
LAYER_1
 10
24.66895139183156
 20
-134.4765580948528
 30
0.0
  0
VERTEX
  5
26C
  8
LAYER_1
 10
52.38014542140574
 20
-99.87950725485149
 30
0.0
  0
SEQEND
  5
26D
  8
LAYER_1
  0
POLYLINE
  5
89
  8
LAYER_1
 66
     1
 10
0.0
 20
0.0
 30
0.0
 70
     1
  0
VERTEX
  5
26E
  8
LAYER_1
 10
-65.7316553627569
 20
-165.7640364498508
 30
0.0
  0
VERTEX
  5
26F
  8
LAYER_1
 10
-76.48754093246605
 20
-165.7640364498508
 30
0.0
  0
VERTEX
  5
270
  8
LAYER_1
 10
-83.25300947600985
 20
-148.5204909125313
 30
0.0
  0
VERTEX
  5
271
  8
LAYER_1
 10
-87.32850726094334
 20
-171.2753535450771
 30
0.0
  0
VERTEX
  5
272
  8
LAYER_1
 10
-82.9133846605987
 20
-176.3697257762443
 30
0.0
  0
VERTEX
  5
273
  8
LAYER_1
 10
-82.9133846605987
 20
-192.503554130808
 30
0.0
  0
VERTEX
  5
274
  8
LAYER_1
 10
-93.66927023030786
 20
-192.503554130808
 30
0.0
  0
VERTEX
  5
275
  8
LAYER_1
 10
-112.492069977299
 20
-159.9015086283247
 30
0.0
  0
VERTEX
  5
276
  8
LAYER_1
 10
-112.492069977299
 20
-143.767680273761
 30
0.0
  0
VERTEX
  5
277
  8
LAYER_1
 10
-88.00775689176565
 20
-134.5958734806749
 30
0.0
  0
VERTEX
  5
278
  8
LAYER_1
 10
-74.0831394599092
 20
-134.5958734806749
 30
0.0
  0
SEQEND
  5
279
  8
LAYER_1
  0
POLYLINE
  5
8A
  8
LAYER_1
 66
     1
 10
0.0
 20
0.0
 30
0.0
 70
     1
  0
VERTEX
  5
27A
  8
LAYER_1
 10
117.4999999999996
 20
-195.7116181345631
 30
0.0
  0
VERTEX
  5
27B
  8
LAYER_1
 10
60.68637181115117
 20
-195.7116181345631
 30
0.0
  0
VERTEX
  5
27C
  8
LAYER_1
 10
71.51583760512531
 20
-170.2059561689937
 30
0.0
  0
VERTEX
  5
27D
  8
LAYER_1
 10
79.77883721350844
 20
-162.6003965449859
 30
0.0
  0
VERTEX
  5
27E
  8
LAYER_1
 10
90.70293658069633
 20
-177.3380772926276
 30
0.0
  0
VERTEX
  5
27F
  8
LAYER_1
 10
90.70293658069633
 20
-150.4483633683546
 30
0.0
  0
VERTEX
  5
280
  8
LAYER_1
 10
110.943069366052
 20
-139.6924777986454
 30
0.0
  0
VERTEX
  5
281
  8
LAYER_1
 10
117.4999999999996
 20
-139.6924777986454
 30
0.0
  0
SEQEND
  5
282
  8
LAYER_1
  0
POLYLINE
  5
8B
  8
LAYER_1
 66
     1
 10
0.0
 20
0.0
 30
0.0
 70
     1
  0
VERTEX
  5
283
  8
LAYER_1
 10
53.86342590270647
 20
-189.419550127701
 30
0.0
  0
VERTEX
  5
284
  8
LAYER_1
 10
21.5957691935788
 20
-189.419550127701
 30
0.0
  0
VERTEX
  5
285
  8
LAYER_1
 10
39.97983253402413
 20
-161.7134376206221
 30
0.0
  0
VERTEX
  5
286
  8
LAYER_1
 10
62.2149099998586
 20
-158.2513871585249
 30
0.0
  0
SEQEND
  5
287
  8
LAYER_1
  0
POLYLINE
  5
8C
  8
LAYER_1
 66
     1
 10
0.0
 20
0.0
 30
0.0
 70
     1
  0
VERTEX
  5
288
  8
LAYER_1
 10
14.15811627356629
 20
-195.6603087575569
 30
0.0
  0
VERTEX
  5
289
  8
LAYER_1
 10
14.15811627356629
 20
-201.0382515424117
 30
0.0
  0
VERTEX
  5
28A
  8
LAYER_1
 10
7.205437756884582
 20
-196.4326620573356
 30
0.0
  0
VERTEX
  5
28B
  8
LAYER_1
 10
-7.9228100207889
 20
-195.7371104353734
 30
0.0
  0
VERTEX
  5
28C
  8
LAYER_1
 10
-11.22668022510848
 20
-188.259930499282
 30
0.0
  0
VERTEX
  5
28D
  8
LAYER_1
 10
4.238653702961386
 20
-175.1892556104487
 30
0.0
  0
VERTEX
  5
28E
  8
LAYER_1
 10
19.63508951101564
 20
-175.1892556104487
 30
0.0
  0
SEQEND
  5
28F
  8
LAYER_1
  0
POLYLINE
  5
8D
  8
LAYER_1
 66
     1
 10
0.0
 20
0.0
 30
0.0
 70
     1
  0
VERTEX
  5
290
  8
LAYER_1
 10
-3.30937946557989
 20
-155.4710448379342
 30
0.0
  0
VERTEX
  5
291
  8
LAYER_1
 10
-23.07110822395273
 20
-175.1892556104487
 30
0.0
  0
VERTEX
  5
292
  8
LAYER_1
 10
-37.0133375105744
 20
-175.1892556104487
 30
0.0
  0
VERTEX
  5
293
  8
LAYER_1
 10
-41.04679459921551
 20
-182.1754082181237
 30
0.0
  0
VERTEX
  5
294
  8
LAYER_1
 10
-32.52385491337686
 20
-194.4133916120155
 30
0.0
  0
VERTEX
  5
295
  8
LAYER_1
 10
-36.69959696195301
 20
-209.9974730966034
 30
0.0
  0
VERTEX
  5
296
  8
LAYER_1
 10
-46.13281271575327
 20
-205.604635259084
 30
0.0
  0
VERTEX
  5
297
  8
LAYER_1
 10
-57.26812484528969
 20
-164.0470846335158
 30
0.0
  0
VERTEX
  5
298
  8
LAYER_1
 10
-32.80002483140241
 20
-130.0674520392245
 30
0.0
  0
SEQEND
  5
299
  8
LAYER_1
  0
POLYLINE
  5
8E
  8
LAYER_1
 66
     1
 10
0.0
 20
0.0
 30
0.0
 70
     1
  0
VERTEX
  5
29A
  8
LAYER_1
 10
-96.48327991241672
 20
-204.6314220899238
 30
0.0
  0
VERTEX
  5
29B
  8
LAYER_1
 10
-117.4716907368313
 20
-225.6198329143386
 30
0.0
  0
VERTEX
  5
29C
  8
LAYER_1
 10
-117.4716907368313
 20
-168.2784281719091
 30
0.0
  0
SEQEND
  5
29D
  8
LAYER_1
  0
POLYLINE
  5
8F
  8
LAYER_1
 66
     1
 10
0.0
 20
0.0
 30
0.0
 70
     1
  0
VERTEX
  5
29E
  8
LAYER_1
 10
109.405435203239
 20
-208.5604635943587
 30
0.0
  0
VERTEX
  5
29F
  8
LAYER_1
 10
109.405435203239
 20
-224.6942919489225
 30
0.0
  0
VERTEX
  5
2A0
  8
LAYER_1
 10
57.45849692127892
 20
-238.6134321108432
 30
0.0
  0
VERTEX
  5
2A1
  8
LAYER_1
 10
61.82087596608974
 20
-204.349274051467
 30
0.0
  0
VERTEX
  5
2A2
  8
LAYER_1
 10
102.1114409546479
 20
-204.349274051467
 30
0.0
  0
SEQEND
  5
2A3
  8
LAYER_1
  0
POLYLINE
  5
90
  8
LAYER_1
 66
     1
 10
0.0
 20
0.0
 30
0.0
 70
     1
  0
VERTEX
  5
2A4
  8
LAYER_1
 10
-59.34070547254268
 20
-206.7931336617712
 30
0.0
  0
VERTEX
  5
2A5
  8
LAYER_1
 10
-59.34070547254268
 20
-217.5490192314805
 30
0.0
  0
VERTEX
  5
2A6
  8
LAYER_1
 10
-54.99350783528018
 20
-220.3781262782166
 30
0.0
  0
VERTEX
  5
2A7
  8
LAYER_1
 10
-54.99350783528018
 20
-236.5119546327805
 30
0.0
  0
VERTEX
  5
2A8
  8
LAYER_1
 10
-67.9802424057704
 20
-239.9917396732606
 30
0.0
  0
VERTEX
  5
2A9
  8
LAYER_1
 10
-82.36455095889434
 20
-227.2534910413996
 30
0.0
  0
VERTEX
  5
2AA
  8
LAYER_1
 10
-82.36455095889434
 20
-219.1865768641177
 30
0.0
  0
VERTEX
  5
2AB
  8
LAYER_1
 10
-90.02996455267935
 20
-210.3359367162289
 30
0.0
  0
VERTEX
  5
2AC
  8
LAYER_1
 10
-73.19739794131696
 20
-190.4911425220371
 30
0.0
  0
SEQEND
  5
2AD
  8
LAYER_1
  0
POLYLINE
  5
91
  8
LAYER_1
 66
     1
 10
0.0
 20
0.0
 30
0.0
 70
     1
  0
VERTEX
  5
2AE
  8
LAYER_1
 10
47.60937727435616
 20
-241.6700554495434
 30
0.0
  0
VERTEX
  5
2AF
  8
LAYER_1
 10
23.4689324237918
 20
-232.2648822173866
 30
0.0
  0
VERTEX
  5
2B0
  8
LAYER_1
 10
18.04362977248819
 20
-246.0368043322342
 30
0.0
  0
VERTEX
  5
2B1
  8
LAYER_1
 10
25.64918939649614
 20
-253.6423639562423
 30
0.0
  0
VERTEX
  5
2B2
  8
LAYER_1
 10
-3.719341605408565
 20
-263.1846905090928
 30
0.0
  0
VERTEX
  5
2B3
  8
LAYER_1
 10
13.12604923898359
 20
-209.3881197479694
 30
0.0
  0
VERTEX
  5
2B4
  8
LAYER_1
 10
30.81939316107208
 20
-204.349274051467
 30
0.0
  0
VERTEX
  5
2B5
  8
LAYER_1
 10
36.53460764922156
 20
-204.349274051467
 30
0.0
  0
SEQEND
  5
2B6
  8
LAYER_1
  0
POLYLINE
  5
92
  8
LAYER_1
 66
     1
 10
0.0
 20
0.0
 30
0.0
 70
     1
  0
VERTEX
  5
2B7
  8
LAYER_1
 10
117.4999999999996
 20
-273.7971959236199
 30
0.0
  0
VERTEX
  5
2B8
  8
LAYER_1
 10
71.76249293244008
 20
-255.4384454663106
 30
0.0
  0
VERTEX
  5
2B9
  8
LAYER_1
 10
85.98775069383429
 20
-248.7130590216133
 30
0.0
  0
VERTEX
  5
2BA
  8
LAYER_1
 10
91.8535598186712
 20
-253.4428100509548
 30
0.0
  0
VERTEX
  5
2BB
  8
LAYER_1
 10
101.493918755736
 20
-243.0489322001125
 30
0.0
  0
VERTEX
  5
2BC
  8
LAYER_1
 10
110.4357009582311
 20
-250.4391681834587
 30
0.0
  0
VERTEX
  5
2BD
  8
LAYER_1
 10
117.4999999999996
 20
-242.3581619305963
 30
0.0
  0
SEQEND
  5
2BE
  8
LAYER_1
  0
POLYLINE
  5
93
  8
LAYER_1
 66
     1
 10
0.0
 20
0.0
 30
0.0
 70
     1
  0
VERTEX
  5
2BF
  8
LAYER_1
 10
-26.10446702565568
 20
-251.8995266005218
 30
0.0
  0
VERTEX
  5
2C0
  8
LAYER_1
 10
-47.29705550731015
 20
-233.6956364944852
 30
0.0
  0
VERTEX
  5
2C1
  8
LAYER_1
 10
-44.58005698402108
 20
-225.0012412199603
 30
0.0
  0
SEQEND
  5
2C2
  8
LAYER_1
  0
POLYLINE
  5
94
  8
LAYER_1
 66
     1
 10
0.0
 20
0.0
 30
0.0
 70
     1
  0
VERTEX
  5
2C3
  8
LAYER_1
 10
-15.37020201135867
 20
-256.9042774593544
 30
0.0
  0
VERTEX
  5
2C4
  8
LAYER_1
 10
-34.19300175834965
 20
-224.6572078139389
 30
0.0
  0
VERTEX
  5
2C5
  8
LAYER_1
 10
-24.85661857961366
 20
-204.349274051467
 30
0.0
  0
VERTEX
  5
2C6
  8
LAYER_1
 10
7.41103812951401
 20
-204.349274051467
 30
0.0
  0
SEQEND
  5
2C7
  8
LAYER_1
  0
POLYLINE
  5
95
  8
LAYER_1
 66
     1
 10
0.0
 20
0.0
 30
0.0
 70
     1
  0
VERTEX
  5
2C8
  8
LAYER_1
 10
-80.92688973377257
 20
-243.8276720757702
 30
0.0
  0
VERTEX
  5
2C9
  8
LAYER_1
 10
-79.10603193754216
 20
-253.9849527126314
 30
0.0
  0
VERTEX
  5
2CA
  8
LAYER_1
 10
-92.55088889967865
 20
-253.9849527126314
 30
0.0
  0
VERTEX
  5
2CB
  8
LAYER_1
 10
-105.8606182416924
 20
-267.2946820546451
 30
0.0
  0
VERTEX
  5
2CC
  8
LAYER_1
 10
-117.4716907368313
 20
-267.3671834235927
 30
0.0
  0
VERTEX
  5
2CD
  8
LAYER_1
 10
-117.4716907368313
 20
-249.7827676619659
 30
0.0
  0
VERTEX
  5
2CE
  8
LAYER_1
 10
-101.8853475567975
 20
-231.7273008098473
 30
0.0
  0
SEQEND
  5
2CF
  8
LAYER_1
  0
POLYLINE
  5
96
  8
LAYER_1
 66
     1
 10
0.0
 20
0.0
 30
0.0
 70
     1
  0
VERTEX
  5
2D0
  8
LAYER_1
 10
-48.8224429765032
 20
-264.8061733218187
 30
0.0
  0
VERTEX
  5
2D1
  8
LAYER_1
 10
-41.21688335249524
 20
-257.2006136978105
 30
0.0
  0
VERTEX
  5
2D2
  8
LAYER_1
 10
-22.58714306536199
 20
-267.9564992675199
 30
0.0
  0
VERTEX
  5
2D3
  8
LAYER_1
 10
-50.53175349606187
 20
-284.0903276220835
 30
0.0
  0
VERTEX
  5
2D4
  8
LAYER_1
 10
-66.03353316755211
 20
-260.8594684137758
 30
0.0
  0
VERTEX
  5
2D5
  8
LAYER_1
 10
-51.60627100888711
 20
-254.4167856654265
 30
0.0
  0
SEQEND
  5
2D6
  8
LAYER_1
  0
POLYLINE
  5
97
  8
LAYER_1
 66
     1
 10
0.0
 20
0.0
 30
0.0
 70
     1
  0
VERTEX
  5
2D7
  8
LAYER_1
 10
57.71582495368547
 20
-264.6158960518088
 30
0.0
  0
VERTEX
  5
2D8
  8
LAYER_1
 10
66.00566499320443
 20
-295.5540002659124
 30
0.0
  0
VERTEX
  5
2D9
  8
LAYER_1
 10
24.08874934715452
 20
-271.3532577340665
 30
0.0
  0
VERTEX
  5
2DA
  8
LAYER_1
 10
42.71848963428778
 20
-260.5973721643574
 30
0.0
  0
SEQEND
  5
2DB
  8
LAYER_1
  0
POLYLINE
  5
98
  8
LAYER_1
 66
     1
 10
0.0
 20
0.0
 30
0.0
 70
     1
  0
VERTEX
  5
2DC
  8
LAYER_1
 10
-65.72790316804347
 20
-282.8073431474758
 30
0.0
  0
VERTEX
  5
2DD
  8
LAYER_1
 10
-117.4716907368313
 20
-304.1815742194403
 30
0.0
  0
VERTEX
  5
2DE
  8
LAYER_1
 10
-117.4716907368313
 20
-283.2358106513371
 30
0.0
  0
VERTEX
  5
2DF
  8
LAYER_1
 10
-76.48378873775262
 20
-264.1776028603426
 30
0.0
  0
SEQEND
  5
2E0
  8
LAYER_1
  0
POLYLINE
  5
99
  8
LAYER_1
 66
     1
 10
0.0
 20
0.0
 30
0.0
 70
     1
  0
VERTEX
  5
2E1
  8
LAYER_1
 10
-38.52717635602335
 20
-305.6824297243612
 30
0.0
  0
VERTEX
  5
2E2
  8
LAYER_1
 10
-49.14822803095629
 20
-295.0613780494281
 30
0.0
  0
VERTEX
  5
2E3
  8
LAYER_1
 10
-24.93912937777604
 20
-285.851394866153
 30
0.0
  0
SEQEND
  5
2E4
  8
LAYER_1
  0
POLYLINE
  5
9A
  8
LAYER_1
 66
     1
 10
0.0
 20
0.0
 30
0.0
 70
     1
  0
VERTEX
  5
2E5
  8
LAYER_1
 10
92.36812989979566
 20
-284.6852532621253
 30
0.0
  0
VERTEX
  5
2E6
  8
LAYER_1
 10
78.92327293765916
 20
-307.9724286210417
 30
0.0
  0
VERTEX
  5
2E7
  8
LAYER_1
 10
71.44724127047002
 20
-268.9266618270488
 30
0.0
  0
SEQEND
  5
2E8
  8
LAYER_1
  0
POLYLINE
  5
9B
  8
LAYER_1
 66
     1
 10
0.0
 20
0.0
 30
0.0
 70
     1
  0
VERTEX
  5
2E9
  8
LAYER_1
 10
-103.8063274426231
 20
-317.0058013865606
 30
0.0
  0
VERTEX
  5
2EA
  8
LAYER_1
 10
-109.4576843710645
 20
-323.3092379605911
 30
0.0
  0
VERTEX
  5
2EB
  8
LAYER_1
 10
-117.5
 20
-317.0058013865606
 30
0.0
  0
VERTEX
  5
2EC
  8
LAYER_1
 10
-97.39421092766116
 20
-307.8766863483093
 30
0.0
  0
SEQEND
  5
2ED
  8
LAYER_1
  0
POLYLINE
  5
9C
  8
LAYER_1
 66
     1
 10
0.0
 20
0.0
 30
0.0
 70
     1
  0
VERTEX
  5
2EE
  8
LAYER_1
 10
53.35027991491054
 20
-296.7103597146627
 30
0.0
  0
VERTEX
  5
2EF
  8
LAYER_1
 10
37.21645156034671
 20
-324.6549701453626
 30
0.0
  0
VERTEX
  5
2F0
  8
LAYER_1
 10
6.889605166667939
 20
-278.5064696086259
 30
0.0
  0
SEQEND
  5
2F1
  8
LAYER_1
  0
POLYLINE
  5
9D
  8
LAYER_1
 66
     1
 10
0.0
 20
0.0
 30
0.0
 70
     1
  0
VERTEX
  5
2F2
  8
LAYER_1
 10
117.4999999999996
 20
-291.9294541640274
 30
0.0
  0
VERTEX
  5
2F3
  8
LAYER_1
 10
117.4999999999996
 20
-319.5164541183775
 30
0.0
  0
VERTEX
  5
2F4
  8
LAYER_1
 10
92.35142908945254
 20
-326.2549933846554
 30
0.0
  0
VERTEX
  5
2F5
  8
LAYER_1
 10
92.35142908945254
 20
-304.743222245237
 30
0.0
  0
VERTEX
  5
2F6
  8
LAYER_1
 10
104.3525930150825
 20
-284.3387952021403
 30
0.0
  0
SEQEND
  5
2F7
  8
LAYER_1
  0
POLYLINE
  5
9E
  8
LAYER_1
 66
     1
 10
0.0
 20
0.0
 30
0.0
 70
     1
  0
VERTEX
  5
2F8
  8
LAYER_1
 10
-43.45972499356037
 20
-327.81407996538
 30
0.0
  0
VERTEX
  5
2F9
  8
LAYER_1
 10
-54.21561056326954
 20
-346.4438202525133
 30
0.0
  0
VERTEX
  5
2FA
  8
LAYER_1
 10
-51.43178253088524
 20
-356.8332079089053
 30
0.0
  0
VERTEX
  5
2FB
  8
LAYER_1
 10
-72.94355367030374
 20
-356.8332079089053
 30
0.0
  0
VERTEX
  5
2FC
  8
LAYER_1
 10
-89.07738202486759
 20
-328.8885974782053
 30
0.0
  0
VERTEX
  5
2FD
  8
LAYER_1
 10
-80.37232866090814
 20
-305.4371255994484
 30
0.0
  0
VERTEX
  5
2FE
  8
LAYER_1
 10
-59.59355334812402
 20
-299.8694695346801
 30
0.0
  0
SEQEND
  5
2FF
  8
LAYER_1
  0
POLYLINE
  5
9F
  8
LAYER_1
 66
     1
 10
0.0
 20
0.0
 30
0.0
 70
     1
  0
VERTEX
  5
300
  8
LAYER_1
 10
117.4999999999996
 20
-361.3890041345751
 30
0.0
  0
VERTEX
  5
301
  8
LAYER_1
 10
98.48610093997983
 20
-342.3751050745553
 30
0.0
  0
VERTEX
  5
302
  8
LAYER_1
 10
117.4999999999996
 20
-329.1213474254475
 30
0.0
  0
SEQEND
  5
303
  8
LAYER_1
  0
POLYLINE
  5
A0
  8
LAYER_1
 66
     1
 10
0.0
 20
0.0
 30
0.0
 70
     1
  0
VERTEX
  5
304
  8
LAYER_1
 10
41.82468605378639
 20
-357.1835941574555
 30
0.0
  0
VERTEX
  5
305
  8
LAYER_1
 10
30.41634661777455
 20
-368.5919335934671
 30
0.0
  0
VERTEX
  5
306
  8
LAYER_1
 10
16.97148965563806
 20
-345.3047582345509
 30
0.0
  0
VERTEX
  5
307
  8
LAYER_1
 10
16.97148965563806
 20
-329.1709298799868
 30
0.0
  0
VERTEX
  5
308
  8
LAYER_1
 10
5.145205989384392
 20
-313.3719929694196
 30
0.0
  0
VERTEX
  5
309
  8
LAYER_1
 10
5.145205989384392
 20
-345.6396496785471
 30
0.0
  0
VERTEX
  5
30A
  8
LAYER_1
 10
-21.74450793488861
 20
-345.6396496785471
 30
0.0
  0
VERTEX
  5
30B
  8
LAYER_1
 10
-21.74450793488861
 20
-307.994050184565
 30
0.0
  0
VERTEX
  5
30C
  8
LAYER_1
 10
-6.897224126743724
 20
-282.2778002744631
 30
0.0
  0
SEQEND
  5
30D
  8
LAYER_1
  0
POLYLINE
  5
A1
  8
LAYER_1
 66
     1
 10
0.0
 20
0.0
 30
0.0
 70
     1
  0
VERTEX
  5
30E
  8
LAYER_1
 10
94.45586845446755
 20
-368.0876077336813
 30
0.0
  0
VERTEX
  5
30F
  8
LAYER_1
 10
94.49966757369822
 20
-368.7859327822533
 30
0.0
  0
VERTEX
  5
310
  8
LAYER_1
 10
94.49966757369822
 20
-383.7229708695546
 30
0.0
  0
VERTEX
  5
311
  8
LAYER_1
 10
84.42688755534203
 20
-368.7859327822535
 30
0.0
  0
VERTEX
  5
312
  8
LAYER_1
 10
84.43772310074473
 20
-368.0876077336813
 30
0.0
  0
VERTEX
  5
313
  8
LAYER_1
 10
86.42459479766862
 20
-349.8822110978251
 30
0.0
  0
SEQEND
  5
314
  8
LAYER_1
  0
POLYLINE
  5
A2
  8
LAYER_1
 66
     1
 10
0.0
 20
0.0
 30
0.0
 70
     1
  0
VERTEX
  5
315
  8
LAYER_1
 10
-56.51783320566076
 20
-411.916846336636
 30
0.0
  0
VERTEX
  5
316
  8
LAYER_1
 10
-85.59909104975839
 20
-399.605446777983
 30
0.0
  0
VERTEX
  5
317
  8
LAYER_1
 10
-85.59909104975839
 20
-369.5625073065669
 30
0.0
  0
SEQEND
  5
318
  8
LAYER_1
  0
POLYLINE
  5
A3
  8
LAYER_1
 66
     1
 10
0.0
 20
0.0
 30
0.0
 70
     1
  0
VERTEX
  5
319
  8
LAYER_1
 10
15.2253468185396
 20
-368.0876077336812
 30
0.0
  0
VERTEX
  5
31A
  8
LAYER_1
 10
15.31736497693966
 20
-368.7859327822535
 30
0.0
  0
VERTEX
  5
31B
  8
LAYER_1
 10
-34.18477041451973
 20
-413.1185452361279
 30
0.0
  0
VERTEX
  5
31C
  8
LAYER_1
 10
-55.51427014988647
 20
-381.1216423142073
 30
0.0
  0
VERTEX
  5
31D
  8
LAYER_1
 10
-44.59305427459171
 20
-368.7859327822535
 30
0.0
  0
VERTEX
  5
31E
  8
LAYER_1
 10
-44.59305427459171
 20
-368.0876077336813
 30
0.0
  0
VERTEX
  5
31F
  8
LAYER_1
 10
-44.59305427459171
 20
-361.1850151136385
 30
0.0
  0
VERTEX
  5
320
  8
LAYER_1
 10
9.186373573954477
 20
-361.1850151136385
 30
0.0
  0
SEQEND
  5
321
  8
LAYER_1
  0
POLYLINE
  5
A4
  8
LAYER_1
 66
     1
 10
0.0
 20
0.0
 30
0.0
 70
     1
  0
VERTEX
  5
322
  8
LAYER_1
 10
117.4999999999996
 20
-398.8269739721302
 30
0.0
  0
VERTEX
  5
323
  8
LAYER_1
 10
117.4999999999996
 20
-415.0000000000001
 30
0.0
  0
VERTEX
  5
324
  8
LAYER_1
 10
102.004780892261
 20
-415.0000000000001
 30
0.0
  0
VERTEX
  5
325
  8
LAYER_1
 10
102.004780892261
 20
-399.9330776338148
 30
0.0
  0
VERTEX
  5
326
  8
LAYER_1
 10
110.6560844905794
 20
-386.9729645871058
 30
0.0
  0
SEQEND
  5
327
  8
LAYER_1
  0
POLYLINE
  5
A5
  8
LAYER_1
 66
     1
 10
0.0
 20
0.0
 30
0.0
 70
     1
  0
VERTEX
  5
328
  8
LAYER_1
 10
83.76786293978265
 20
-327.1998281009824
 30
0.0
  0
VERTEX
  5
329
  8
LAYER_1
 10
67.25078763935055
 20
-368.0876077336813
 30
0.0
  0
VERTEX
  5
32A
  8
LAYER_1
 10
67.21142771250507
 20
-368.7859327822533
 30
0.0
  0
VERTEX
  5
32B
  8
LAYER_1
 10
89.91975254448967
 20
-401.6404358759801
 30
0.0
  0
VERTEX
  5
32C
  8
LAYER_1
 10
79.57824980453873
 20
-415.0000000000001
 30
0.0
  0
VERTEX
  5
32D
  8
LAYER_1
 10
56.38856651831804
 20
-415.0000000000001
 30
0.0
  0
VERTEX
  5
32E
  8
LAYER_1
 10
37.4028954022158
 20
-382.115853011118
 30
0.0
  0
VERTEX
  5
32F
  8
LAYER_1
 10
48.81123483822763
 20
-368.7859962594221
 30
0.0
  0
VERTEX
  5
330
  8
LAYER_1
 10
48.81123483822763
 20
-368.0876394722659
 30
0.0
  0
VERTEX
  5
331
  8
LAYER_1
 10
48.81123483822763
 20
-331.857263172766
 30
0.0
  0
VERTEX
  5
332
  8
LAYER_1
 10
67.63403458521881
 20
-299.2552176702825
 30
0.0
  0
SEQEND
  5
333
  8
LAYER_1
  0
POLYLINE
  5
A6
  8
LAYER_1
 66
     1
 10
0.0
 20
0.0
 30
0.0
 70
     1
  0
VERTEX
  5
334
  8
LAYER_1
 10
33.09297390588926
 20
-415.0000000000001
 30
0.0
  0
VERTEX
  5
335
  8
LAYER_1
 10
-10.26205594911339
 20
-415.0000000000001
 30
0.0
  0
VERTEX
  5
336
  8
LAYER_1
 10
20.75535030583454
 20
-390.5374704481674
 30
0.0
  0
SEQEND
  5
337
  8
LAYER_1
  0
POLYLINE
  5
A7
  8
LAYER_1
 66
     1
 10
0.0
 20
0.0
 30
0.0
 70
     1
  0
VERTEX
  5
338
  8
LAYER_1
 10
-100.8979997447682
 20
-368.0317473907736
 30
0.0
  0
VERTEX
  5
339
  8
LAYER_1
 10
-100.8979997447682
 20
-368.6742120964382
 30
0.0
  0
VERTEX
  5
33A
  8
LAYER_1
 10
-100.8979997447682
 20
-411.6977543752749
 30
0.0
  0
VERTEX
  5
33B
  8
LAYER_1
 10
-95.17834254367193
 20
-415.0000000000001
 30
0.0
  0
VERTEX
  5
33C
  8
LAYER_1
 10
-117.4716907368313
 20
-415.0000000000001
 30
0.0
  0
VERTEX
  5
33D
  8
LAYER_1
 10
-117.4716907368313
 20
-368.0317473907737
 30
0.0
  0
VERTEX
  5
33E
  8
LAYER_1
 10
-117.4716907368313
 20
-351.3357328335165
 30
0.0
  0
VERTEX
  5
33F
  8
LAYER_1
 10
-100.8979997447682
 20
-340.2995759551896
 30
0.0
  0
SEQEND
  5
340
  8
LAYER_1
  0
ENDSEC
  0
EOF
