  0
SECTION
  2
HEADER
  9
$ACADVER
  1
AC1015
  9
$ACADMAINTVER
 70
    20
  9
$DWGCODEPAGE
  3
ANSI_1252
  9
$INSBASE
 10
0.0
 20
0.0
 30
0.0
  9
$EXTMIN
 10
-375.0
 20
-17.5
 30
0.0
  9
$EXTMAX
 10
375.0
 20
17.5
 30
0.0
  9
$LIMMIN
 10
0.0
 20
0.0
  9
$LIMMAX
 10
12.0
 20
9.0
  9
$ORTHOMODE
 70
     0
  9
$REGENMODE
 70
     1
  9
$FILLMODE
 70
     1
  9
$QTEXTMODE
 70
     0
  9
$MIRRTEXT
 70
     1
  9
$LTSCALE
 40
1.0
  9
$ATTMODE
 70
     1
  9
$TEXTSIZE
 40
0.2
  9
$TRACEWID
 40
0.05
  9
$TEXTSTYLE
  7
STANDARD
  9
$CLAYER
  8
0
  9
$CELTYPE
  6
ByLayer
  9
$CECOLOR
 62
   256
  9
$CELTSCALE
 40
1.0
  9
$DISPSILH
 70
     0
  9
$DIMSCALE
 40
1.0
  9
$DIMASZ
 40
0.18
  9
$DIMEXO
 40
0.0625
  9
$DIMDLI
 40
0.38
  9
$DIMRND
 40
0.0
  9
$DIMDLE
 40
0.0
  9
$DIMEXE
 40
0.18
  9
$DIMTP
 40
0.0
  9
$DIMTM
 40
0.0
  9
$DIMTXT
 40
0.18
  9
$DIMCEN
 40
0.09
  9
$DIMTSZ
 40
0.0
  9
$DIMTOL
 70
     0
  9
$DIMLIM
 70
     0
  9
$DIMTIH
 70
     1
  9
$DIMTOH
 70
     1
  9
$DIMSE1
 70
     0
  9
$DIMSE2
 70
     0
  9
$DIMTAD
 70
     0
  9
$DIMZIN
 70
     0
  9
$DIMBLK
  1

  9
$DIMASO
 70
     1
  9
$DIMSHO
 70
     1
  9
$DIMPOST
  1

  9
$DIMAPOST
  1

  9
$DIMALT
 70
     0
  9
$DIMALTD
 70
     2
  9
$DIMALTF
 40
25.4
  9
$DIMLFAC
 40
1.0
  9
$DIMTOFL
 70
     0
  9
$DIMTVP
 40
0.0
  9
$DIMTIX
 70
     0
  9
$DIMSOXD
 70
     0
  9
$DIMSAH
 70
     0
  9
$DIMBLK1
  1

  9
$DIMBLK2
  1

  9
$DIMSTYLE
  2
STANDARD
  9
$DIMCLRD
 70
     0
  9
$DIMCLRE
 70
     0
  9
$DIMCLRT
 70
     0
  9
$DIMTFAC
 40
1.0
  9
$DIMGAP
 40
0.09
  9
$DIMJUST
 70
     0
  9
$DIMSD1
 70
     0
  9
$DIMSD2
 70
     0
  9
$DIMTOLJ
 70
     1
  9
$DIMTZIN
 70
     0
  9
$DIMALTZ
 70
     0
  9
$DIMALTTZ
 70
     0
  9
$DIMUPT
 70
     0
  9
$DIMDEC
 70
     4
  9
$DIMTDEC
 70
     4
  9
$DIMALTU
 70
     2
  9
$DIMALTTD
 70
     2
  9
$DIMTXSTY
  7
STANDARD
  9
$DIMAUNIT
 70
     0
  9
$DIMADEC
 70
     0
  9
$DIMALTRND
 40
0.0
  9
$DIMAZIN
 70
     0
  9
$DIMDSEP
 70
    46
  9
$DIMATFIT
 70
     3
  9
$DIMFRAC
 70
     0
  9
$DIMLDRBLK
  1

  9
$DIMLUNIT
 70
     2
  9
$DIMLWD
 70
    -2
  9
$DIMLWE
 70
    -2
  9
$DIMTMOVE
 70
     0
  9
$LUNITS
 70
     2
  9
$LUPREC
 70
     4
  9
$SKETCHINC
 40
0.1
  9
$FILLETRAD
 40
0.5
  9
$AUNITS
 70
     0
  9
$AUPREC
 70
     0
  9
$MENU
  1
.
  9
$ELEVATION
 40
0.0
  9
$PELEVATION
 40
0.0
  9
$THICKNESS
 40
0.0
  9
$LIMCHECK
 70
     0
  9
$CHAMFERA
 40
0.5
  9
$CHAMFERB
 40
0.5
  9
$CHAMFERC
 40
0.0
  9
$CHAMFERD
 40
0.0
  9
$SKPOLY
 70
     0
  9
$TDCREATE
 40
2454910.500000000
  9
$TDUCREATE
 40
2454910.458333334
  9
$TDUPDATE
 40
2457348.024657026
  9
$TDUUPDATE
 40
2457347.982990359
  9
$TDINDWG
 40
0.0005282292
  9
$TDUSRTIMER
 40
0.0005278819
  9
$USRTIMER
 70
     1
  9
$ANGBASE
 50
0.0
  9
$ANGDIR
 70
     0
  9
$PDMODE
 70
     0
  9
$PDSIZE
 40
0.0
  9
$PLINEWID
 40
0.0
  9
$SPLFRAME
 70
     0
  9
$SPLINETYPE
 70
     6
  9
$SPLINESEGS
 70
     8
  9
$HANDSEED
  5
1E5
  9
$SURFTAB1
 70
     6
  9
$SURFTAB2
 70
     6
  9
$SURFTYPE
 70
     6
  9
$SURFU
 70
     6
  9
$SURFV
 70
     6
  9
$UCSBASE
  2

  9
$UCSNAME
  2

  9
$UCSORG
 10
0.0
 20
0.0
 30
0.0
  9
$UCSXDIR
 10
1.0
 20
0.0
 30
0.0
  9
$UCSYDIR
 10
0.0
 20
1.0
 30
0.0
  9
$UCSORTHOREF
  2

  9
$UCSORTHOVIEW
 70
     0
  9
$UCSORGTOP
 10
0.0
 20
0.0
 30
0.0
  9
$UCSORGBOTTOM
 10
0.0
 20
0.0
 30
0.0
  9
$UCSORGLEFT
 10
0.0
 20
0.0
 30
0.0
  9
$UCSORGRIGHT
 10
0.0
 20
0.0
 30
0.0
  9
$UCSORGFRONT
 10
0.0
 20
0.0
 30
0.0
  9
$UCSORGBACK
 10
0.0
 20
0.0
 30
0.0
  9
$PUCSBASE
  2

  9
$PUCSNAME
  2

  9
$PUCSORG
 10
0.0
 20
0.0
 30
0.0
  9
$PUCSXDIR
 10
1.0
 20
0.0
 30
0.0
  9
$PUCSYDIR
 10
0.0
 20
1.0
 30
0.0
  9
$PUCSORTHOREF
  2

  9
$PUCSORTHOVIEW
 70
     0
  9
$PUCSORGTOP
 10
0.0
 20
0.0
 30
0.0
  9
$PUCSORGBOTTOM
 10
0.0
 20
0.0
 30
0.0
  9
$PUCSORGLEFT
 10
0.0
 20
0.0
 30
0.0
  9
$PUCSORGRIGHT
 10
0.0
 20
0.0
 30
0.0
  9
$PUCSORGFRONT
 10
0.0
 20
0.0
 30
0.0
  9
$PUCSORGBACK
 10
0.0
 20
0.0
 30
0.0
  9
$USERI1
 70
     0
  9
$USERI2
 70
     0
  9
$USERI3
 70
     0
  9
$USERI4
 70
     0
  9
$USERI5
 70
     0
  9
$USERR1
 40
0.0
  9
$USERR2
 40
0.0
  9
$USERR3
 40
0.0
  9
$USERR4
 40
0.0
  9
$USERR5
 40
0.0
  9
$WORLDVIEW
 70
     1
  9
$SHADEDGE
 70
     3
  9
$SHADEDIF
 70
    70
  9
$TILEMODE
 70
     1
  9
$MAXACTVP
 70
    64
  9
$PINSBASE
 10
0.0
 20
0.0
 30
0.0
  9
$PLIMCHECK
 70
     0
  9
$PEXTMIN
 10
1.000000000000000E+20
 20
1.000000000000000E+20
 30
1.000000000000000E+20
  9
$PEXTMAX
 10
-1.000000000000000E+20
 20
-1.000000000000000E+20
 30
-1.000000000000000E+20
  9
$PLIMMIN
 10
0.0
 20
0.0
  9
$PLIMMAX
 10
12.0
 20
9.0
  9
$UNITMODE
 70
     0
  9
$VISRETAIN
 70
     1
  9
$PLINEGEN
 70
     0
  9
$PSLTSCALE
 70
     1
  9
$TREEDEPTH
 70
  3020
  9
$CMLSTYLE
  2
Standard
  9
$CMLJUST
 70
     0
  9
$CMLSCALE
 40
1.0
  9
$PROXYGRAPHICS
 70
     1
  9
$MEASUREMENT
 70
     0
  9
$CELWEIGHT
370
    -1
  9
$ENDCAPS
280
     0
  9
$JOINSTYLE
280
     0
  9
$LWDISPLAY
290
     0
  9
$INSUNITS
 70
     0
  9
$HYPERLINKBASE
  1

  9
$STYLESHEET
  1

  9
$XEDIT
290
     1
  9
$CEPSNTYPE
380
     0
  9
$PSTYLEMODE
290
     1
  9
$FINGERPRINTGUID
  2
{B0DC4C6F-980B-4AB7-9EBA-ECC2033CC2C0}
  9
$VERSIONGUID
  2
{C48C6CB7-F7B1-4263-A020-F6F7D33A8339}
  9
$EXTNAMES
290
     1
  9
$PSVPSCALE
 40
0.0
  9
$OLESTARTUP
290
     0
  0
ENDSEC
  0
SECTION
  2
CLASSES
  0
CLASS
  1
ACDBDICTIONARYWDFLT
  2
AcDbDictionaryWithDefault
  3
ObjectDBX Classes
 90
        0
280
     0
281
     0
  0
CLASS
  1
MATERIAL
  2
AcDbMaterial
  3
ObjectDBX Classes
 90
     1153
280
     0
281
     0
  0
CLASS
  1
VISUALSTYLE
  2
AcDbVisualStyle
  3
ObjectDBX Classes
 90
     4095
280
     0
281
     0
  0
CLASS
  1
SCALE
  2
AcDbScale
  3
ObjectDBX Classes
 90
     1153
280
     0
281
     0
  0
CLASS
  1
TABLESTYLE
  2
AcDbTableStyle
  3
ObjectDBX Classes
 90
     4095
280
     0
281
     0
  0
CLASS
  1
MLEADERSTYLE
  2
AcDbMLeaderStyle
  3
ACDB_MLEADERSTYLE_CLASS
 90
     4095
280
     0
281
     0
  0
CLASS
  1
DICTIONARYVAR
  2
AcDbDictionaryVar
  3
ObjectDBX Classes
 90
        0
280
     0
281
     0
  0
CLASS
  1
CELLSTYLEMAP
  2
AcDbCellStyleMap
  3
ObjectDBX Classes
 90
     1152
280
     0
281
     0
  0
CLASS
  1
ACDBPLACEHOLDER
  2
AcDbPlaceHolder
  3
ObjectDBX Classes
 90
        0
280
     0
281
     0
  0
CLASS
  1
LAYOUT
  2
AcDbLayout
  3
ObjectDBX Classes
 90
        0
280
     0
281
     0
  0
ENDSEC
  0
SECTION
  2
TABLES
  0
TABLE
  2
VPORT
  5
155
330
0
100
AcDbSymbolTable
 70
     1
  0
VPORT
  5
1C5
330
155
100
AcDbSymbolTableRecord
100
AcDbViewportTableRecord
  2
*ACTIVE
 70
     0
 10
0.0
 20
0.0
 11
1.0
 21
1.0
 12
-0.1264255077495591
 22
-14.02102545036564
 13
0.0
 23
0.0
 14
0.5
 24
0.5
 15
0.5
 25
0.5
 16
0.0
 26
0.0
 36
1.0
 17
0.0
 27
0.0
 37
0.0
 40
429.2347044793668
 41
2.520958083832335
 42
50.0
 43
0.0
 44
0.0
 50
0.0
 51
0.0
 71
     0
 72
   100
 73
     1
 74
     3
 75
     0
 76
     0
 77
     0
 78
     0
281
     0
 65
     1
110
0.0
120
0.0
130
0.0
111
1.0
121
0.0
131
0.0
112
0.0
122
1.0
132
0.0
 79
     0
146
0.0
  0
ENDTAB
  0
TABLE
  2
LTYPE
  5
152
330
0
100
AcDbSymbolTable
 70
     2
  0
LTYPE
  5
1AF
330
152
100
AcDbSymbolTableRecord
100
AcDbLinetypeTableRecord
  2
ByBlock
 70
     0
  3

 72
    65
 73
     0
 40
0.0
  0
LTYPE
  5
1B0
330
152
100
AcDbSymbolTableRecord
100
AcDbLinetypeTableRecord
  2
ByLayer
 70
     0
  3

 72
    65
 73
     0
 40
0.0
  0
LTYPE
  5
1B1
330
152
100
AcDbSymbolTableRecord
100
AcDbLinetypeTableRecord
  2
CONTINUOUS
 70
     0
  3
Solid line
 72
    65
 73
     0
 40
0.0
  0
LTYPE
  5
1C6
330
152
100
AcDbSymbolTableRecord
100
AcDbLinetypeTableRecord
  2
CONTINUOUS2
 70
     0
  3
Solid Line
 72
    65
 73
     0
 40
0.0
  0
ENDTAB
  0
TABLE
  2
LAYER
  5
14F
330
0
100
AcDbSymbolTable
 70
     2
  0
LAYER
  5
1A9
102
{ACAD_XDICTIONARY
360
1CE
102
}
330
14F
100
AcDbSymbolTableRecord
100
AcDbLayerTableRecord
  2
0
 70
     0
 62
     7
  6
CONTINUOUS
370
    -3
390
15C
  0
LAYER
  5
1C7
102
{ACAD_XDICTIONARY
360
1D0
102
}
330
14F
100
AcDbSymbolTableRecord
100
AcDbLayerTableRecord
  2
LAYER_1
 70
     0
 62
    18
  6
CONTINUOUS
370
    -3
390
15C
  0
ENDTAB
  0
TABLE
  2
STYLE
  5
150
330
0
100
AcDbSymbolTable
 70
     2
  0
STYLE
  5
1AA
330
150
100
AcDbSymbolTableRecord
100
AcDbTextStyleTableRecord
  2
STANDARD
 70
     0
 40
0.0
 41
1.0
 50
0.0
 71
     0
 42
0.2
  3
txt
  4

  0
STYLE
  5
1AE
330
150
100
AcDbSymbolTableRecord
100
AcDbTextStyleTableRecord
  2
Annotative
 70
     0
 40
0.0
 41
1.0
 50
0.0
 71
     0
 42
0.2
  3
txt
  4

1001
AcadAnnotative
1000
AnnotativeData
1002
{
1070
     1
1070
     1
1002
}
  0
ENDTAB
  0
TABLE
  2
VIEW
  5
153
330
0
100
AcDbSymbolTable
 70
     0
  0
ENDTAB
  0
TABLE
  2
UCS
  5
154
330
0
100
AcDbSymbolTable
 70
     0
  0
ENDTAB
  0
TABLE
  2
APPID
  5
156
330
0
100
AcDbSymbolTable
 70
     3
  0
APPID
  5
1AB
330
156
100
AcDbSymbolTableRecord
100
AcDbRegAppTableRecord
  2
ACAD
 70
     0
  0
APPID
  5
1B2
330
156
100
AcDbSymbolTableRecord
100
AcDbRegAppTableRecord
  2
AcadAnnotative
 70
     0
  0
APPID
  5
1BC
330
156
100
AcDbSymbolTableRecord
100
AcDbRegAppTableRecord
  2
ACAD_MLEADERVER
 70
     0
  0
ENDTAB
  0
TABLE
  2
DIMSTYLE
  5
157
330
0
100
AcDbSymbolTable
 70
     2
100
AcDbDimStyleTable
 71
     0
  0
DIMSTYLE
105
1AC
330
157
100
AcDbSymbolTableRecord
100
AcDbDimStyleTableRecord
  2
STANDARD
 70
     0
279
     2
340
1AA
  0
DIMSTYLE
105
1AD
330
157
100
AcDbSymbolTableRecord
100
AcDbDimStyleTableRecord
  2
Annotative
 70
     0
340
1AA
1001
AcadAnnotative
1000
AnnotativeData
1002
{
1070
     1
1070
     1
1002
}
  0
ENDTAB
  0
TABLE
  2
BLOCK_RECORD
  5
14E
330
0
100
AcDbSymbolTable
 70
     2
  0
BLOCK_RECORD
  5
1C1
330
14E
100
AcDbSymbolTableRecord
100
AcDbBlockTableRecord
  2
*Model_Space
340
1C4
  0
BLOCK_RECORD
  5
1BD
330
14E
100
AcDbSymbolTableRecord
100
AcDbBlockTableRecord
  2
*Paper_Space
340
1C0
  0
BLOCK_RECORD
  5
1C9
330
14E
100
AcDbSymbolTableRecord
100
AcDbBlockTableRecord
  2
$MODEL_SPACE
340
0
  0
BLOCK_RECORD
  5
1CB
330
14E
100
AcDbSymbolTableRecord
100
AcDbBlockTableRecord
  2
$PAPER_SPACE
340
0
  0
ENDTAB
  0
ENDSEC
  0
SECTION
  2
BLOCKS
  0
BLOCK
  5
1C2
330
1C1
100
AcDbEntity
  8
0
100
AcDbBlockBegin
  2
*Model_Space
 70
     0
 10
0.0
 20
0.0
 30
0.0
  3
*Model_Space
  1

  0
ENDBLK
  5
1C3
330
1C1
100
AcDbEntity
  8
0
100
AcDbBlockEnd
  0
BLOCK
  5
1BE
330
1BD
100
AcDbEntity
 67
     1
  8
0
100
AcDbBlockBegin
  2
*Paper_Space
 70
     0
 10
0.0
 20
0.0
 30
0.0
  3
*Paper_Space
  1

  0
ENDBLK
  5
1BF
330
1BD
100
AcDbEntity
 67
     1
  8
0
100
AcDbBlockEnd
  0
BLOCK
  5
1CA
330
1C9
100
AcDbEntity
  8
0
100
AcDbBlockBegin
  2
$MODEL_SPACE
 70
     0
 10
0.0
 20
0.0
 30
0.0
  3
$MODEL_SPACE
  1

  0
ENDBLK
  5
21
330
1C9
100
AcDbEntity
  8
0
100
AcDbBlockEnd
  0
BLOCK
  5
1CC
330
1CB
100
AcDbEntity
  8
0
100
AcDbBlockBegin
  2
$PAPER_SPACE
 70
     0
 10
0.0
 20
0.0
 30
0.0
  3
$PAPER_SPACE
  1

  0
ENDBLK
  5
1D
330
1CB
100
AcDbEntity
  8
0
100
AcDbBlockEnd
  0
ENDSEC
  0
SECTION
  2
ENTITIES
  0
LWPOLYLINE
  5
41
330
1C1
100
AcDbEntity
  8
LAYER_1
100
AcDbPolyline
 90
        8
 70
     1
 43
0.0
 10
328.1258649898099
 20
-9.499999999999998
 10
346.2964605955665
 20
-9.499999999999996
 10
357.700203802986
 20
-0.0000000000000036
 10
346.2964605955665
 20
9.5
 10
328.1258649898099
 20
9.499999999999996
 10
309.9552693840532
 20
9.5
 10
298.5515261766337
 20
-0.0000000000000036
 10
309.9552693840532
 20
-9.499999999999996
  0
LWPOLYLINE
  5
42
330
1C1
100
AcDbEntity
  8
LAYER_1
100
AcDbPolyline
 90
        4
 70
     1
 43
0.0
 10
281.250741419837
 20
-6.186291501015276
 10
287.3672489614988
 20
-0.0000000000000071
 10
281.250741419837
 20
6.18629150101527
 10
275.1342338781753
 20
-0.0000000000000071
  0
LWPOLYLINE
  5
43
330
1C1
100
AcDbEntity
  8
LAYER_1
100
AcDbPolyline
 90
        8
 70
     1
 43
0.0
 10
234.3756178498643
 20
-9.499999999999998
 10
252.5462134556209
 20
-9.499999999999996
 10
263.9499566630404
 20
-0.0000000000000036
 10
252.5462134556209
 20
9.5
 10
234.3756178498643
 20
9.499999999999996
 10
216.2050222441076
 20
9.5
 10
204.8012790366881
 20
-0.0000000000000036
 10
216.2050222441076
 20
-9.499999999999996
  0
LWPOLYLINE
  5
44
330
1C1
100
AcDbEntity
  8
LAYER_1
100
AcDbPolyline
 90
        4
 70
     1
 43
0.0
 10
187.5004942798914
 20
-6.186291501015276
 10
193.6170018215532
 20
-0.0000000000000071
 10
187.5004942798914
 20
6.18629150101527
 10
181.3839867382296
 20
-0.0000000000000071
  0
LWPOLYLINE
  5
45
330
1C1
100
AcDbEntity
  8
LAYER_1
100
AcDbPolyline
 90
        8
 70
     1
 43
0.0
 10
140.6253707099186
 20
-9.499999999999998
 10
158.7959663156752
 20
-9.499999999999996
 10
170.1997095230947
 20
-0.0000000000000036
 10
158.7959663156752
 20
9.5
 10
140.6253707099186
 20
9.499999999999996
 10
122.4547751041619
 20
9.5
 10
111.0510318967424
 20
-0.0000000000000036
 10
122.4547751041619
 20
-9.499999999999996
  0
LWPOLYLINE
  5
46
330
1C1
100
AcDbEntity
  8
LAYER_1
100
AcDbPolyline
 90
        4
 70
     1
 43
0.0
 10
93.75024713994569
 20
-6.186291501015276
 10
99.86675468160749
 20
-0.0000000000000071
 10
93.75024713994569
 20
6.18629150101527
 10
87.63373959828392
 20
-0.0000000000000071
  0
LWPOLYLINE
  5
47
330
1C1
100
AcDbEntity
  8
LAYER_1
100
AcDbPolyline
 90
        8
 70
     1
 43
0.0
 10
46.87512356997284
 20
-9.499999999999998
 10
65.04571917572953
 20
-9.499999999999996
 10
76.44946238314898
 20
-0.0000000000000036
 10
65.0457191757295
 20
9.5
 10
46.87512356997284
 20
9.499999999999996
 10
28.70452796421622
 20
9.5
 10
17.30078475679672
 20
-0.0000000000000036
 10
28.70452796421618
 20
-9.499999999999996
  0
LWPOLYLINE
  5
48
330
1C1
100
AcDbEntity
  8
LAYER_1
100
AcDbPolyline
 90
        4
 70
     1
 43
0.0
 10
0.000000000000014
 20
-6.186291501015276
 10
6.116507541661795
 20
-0.0000000000000071
 10
0.000000000000014
 20
6.18629150101527
 10
-6.116507541661768
 20
-0.0000000000000071
  0
LWPOLYLINE
  5
49
330
1C1
100
AcDbEntity
  8
LAYER_1
100
AcDbPolyline
 90
        8
 70
     1
 43
0.0
 10
-46.87512356997283
 20
-9.499999999999998
 10
-28.70452796421615
 20
-9.499999999999996
 10
-17.30078475679668
 20
-0.0000000000000036
 10
-28.70452796421618
 20
9.5
 10
-46.87512356997283
 20
9.499999999999996
 10
-65.04571917572945
 20
9.5
 10
-76.44946238314895
 20
-0.0000000000000036
 10
-65.0457191757295
 20
-9.499999999999996
  0
LWPOLYLINE
  5
4A
330
1C1
100
AcDbEntity
  8
LAYER_1
100
AcDbPolyline
 90
        4
 70
     1
 43
0.0
 10
-93.75024713994566
 20
-6.186291501015276
 10
-87.6337395982839
 20
-0.0000000000000071
 10
-93.75024713994566
 20
6.18629150101527
 10
-99.86675468160743
 20
-0.0000000000000071
  0
LWPOLYLINE
  5
4B
330
1C1
100
AcDbEntity
  8
LAYER_1
100
AcDbPolyline
 90
        8
 70
     1
 43
0.0
 10
-140.6253707099185
 20
-9.499999999999998
 10
-122.4547751041618
 20
-9.499999999999996
 10
-111.0510318967424
 20
-0.0000000000000036
 10
-122.4547751041619
 20
9.5
 10
-140.6253707099185
 20
9.499999999999996
 10
-158.7959663156751
 20
9.5
 10
-170.1997095230946
 20
-0.0000000000000036
 10
-158.7959663156752
 20
-9.499999999999996
  0
LWPOLYLINE
  5
4C
330
1C1
100
AcDbEntity
  8
LAYER_1
100
AcDbPolyline
 90
        4
 70
     1
 43
0.0
 10
-187.5004942798914
 20
-6.186291501015276
 10
-181.3839867382296
 20
-0.0000000000000071
 10
-187.5004942798914
 20
6.18629150101527
 10
-193.6170018215531
 20
-0.0000000000000071
  0
LWPOLYLINE
  5
4D
330
1C1
100
AcDbEntity
  8
LAYER_1
100
AcDbPolyline
 90
        8
 70
     1
 43
0.0
 10
-234.3756178498642
 20
-9.499999999999998
 10
-216.2050222441075
 20
-9.499999999999996
 10
-204.8012790366881
 20
-0.0000000000000036
 10
-216.2050222441076
 20
9.5
 10
-234.3756178498642
 20
9.499999999999996
 10
-252.5462134556209
 20
9.5
 10
-263.9499566630403
 20
-0.0000000000000036
 10
-252.5462134556209
 20
-9.499999999999996
  0
LWPOLYLINE
  5
4E
330
1C1
100
AcDbEntity
  8
LAYER_1
100
AcDbPolyline
 90
        4
 70
     1
 43
0.0
 10
-281.250741419837
 20
-6.186291501015276
 10
-275.1342338781752
 20
-0.0000000000000071
 10
-281.250741419837
 20
6.18629150101527
 10
-287.3672489614988
 20
-0.0000000000000071
  0
LWPOLYLINE
  5
4F
330
1C1
100
AcDbEntity
  8
LAYER_1
100
AcDbPolyline
 90
        8
 70
     1
 43
0.0
 10
-328.1258649898099
 20
-9.499999999999998
 10
-309.9552693840532
 20
-9.499999999999996
 10
-298.5515261766338
 20
-0.0000000000000036
 10
-309.9552693840533
 20
9.5
 10
-328.1258649898099
 20
9.499999999999996
 10
-346.2964605955664
 20
9.5
 10
-357.7002038029859
 20
-0.0000000000000036
 10
-346.2964605955665
 20
-9.499999999999996
  0
LWPOLYLINE
  5
50
330
1C1
100
AcDbEntity
  8
LAYER_1
100
AcDbPolyline
 90
      130
 70
     1
 43
0.0
 10
-375.0
 20
-17.5
 10
-375.0
 20
-17.5
 10
-363.3184672594688
 20
-5.683281431108455
 10
-349.1337489316811
 20
-17.5
 10
-328.1258649898099
 20
-17.5
 10
-307.1179810479387
 20
-17.5
 10
-292.9332627201508
 20
-5.683281431108455
 10
-281.2517299796196
 20
-17.5
 10
-281.250741419837
 20
-17.5
 10
-281.2497528600544
 20
-17.5
 10
-269.5682201195233
 20
-5.683281431108455
 10
-255.3835017917354
 20
-17.5
 10
-234.3756178498643
 20
-17.5
 10
-213.3677339079931
 20
-17.5
 10
-199.1830155802053
 20
-5.683281431108455
 10
-187.5014828396741
 20
-17.5
 10
-187.5004942798914
 20
-17.5
 10
-187.4995057201087
 20
-17.5
 10
-175.8179729795776
 20
-5.683281431108455
 10
-161.6332546517897
 20
-17.5
 10
-140.6253707099186
 20
-17.5
 10
-119.6174867680474
 20
-17.5
 10
-105.4327684402595
 20
-5.683281431108455
 10
-93.75123569972842
 20
-17.5
 10
-93.75024713994569
 20
-17.5
 10
-93.74925858016295
 20
-17.5
 10
-82.06772583963186
 20
-5.683281431108455
 10
-67.883007511844
 20
-17.5
 10
-46.87512356997284
 20
-17.5
 10
-25.86723962810169
 20
-17.5
 10
-11.68252130031384
 20
-5.683281431108455
 10
-0.0009885597827123
 20
-17.5
 10
0.0
 20
-17.5
 10
0.0009885597827123
 20
-17.5
 10
11.68252130031384
 20
-5.683281431108455
 10
25.86723962810169
 20
-17.5
 10
46.87512356997284
 20
-17.5
 10
67.883007511844
 20
-17.5
 10
82.06772583963186
 20
-5.683281431108455
 10
93.74925858016295
 20
-17.5
 10
93.75024713994569
 20
-17.5
 10
93.75123569972842
 20
-17.5
 10
105.4327684402595
 20
-5.683281431108455
 10
119.6174867680474
 20
-17.5
 10
140.6253707099186
 20
-17.5
 10
161.6332546517897
 20
-17.5
 10
175.8179729795776
 20
-5.683281431108455
 10
187.4995057201087
 20
-17.5
 10
187.5004942798914
 20
-17.5
 10
187.5014828396741
 20
-17.5
 10
199.1830155802053
 20
-5.683281431108455
 10
213.3677339079931
 20
-17.5
 10
234.3756178498643
 20
-17.5
 10
255.3835017917354
 20
-17.5
 10
269.5682201195233
 20
-5.683281431108455
 10
281.2497528600544
 20
-17.5
 10
281.250741419837
 20
-17.5
 10
281.2517299796196
 20
-17.5
 10
292.9332627201508
 20
-5.683281431108455
 10
307.1179810479387
 20
-17.5
 10
328.1258649898099
 20
-17.5
 10
349.1337489316811
 20
-17.5
 10
363.3184672594688
 20
-5.683281431108455
 10
375.0
 20
-17.5
 10
375.0
 20
-17.5
 10
375.0
 20
17.5
 10
375.0
 20
17.5
 10
363.3184672594688
 20
5.683281431108455
 10
349.1337489316811
 20
17.5
 10
328.1258649898099
 20
17.5
 10
307.1179810479387
 20
17.5
 10
292.9332627201508
 20
5.683281431108455
 10
281.2517299796196
 20
17.5
 10
281.250741419837
 20
17.5
 10
281.2497528600544
 20
17.5
 10
269.5682201195233
 20
5.683281431108455
 10
255.3835017917354
 20
17.5
 10
234.3756178498643
 20
17.5
 10
213.3677339079931
 20
17.5
 10
199.1830155802053
 20
5.683281431108455
 10
187.5014828396741
 20
17.5
 10
187.5004942798914
 20
17.5
 10
187.4995057201087
 20
17.5
 10
175.8179729795776
 20
5.683281431108455
 10
161.6332546517897
 20
17.5
 10
140.6253707099186
 20
17.5
 10
119.6174867680474
 20
17.5
 10
105.4327684402595
 20
5.683281431108455
 10
93.75123569972842
 20
17.5
 10
93.75024713994569
 20
17.5
 10
93.74925858016295
 20
17.5
 10
82.06772583963186
 20
5.683281431108455
 10
67.883007511844
 20
17.5
 10
46.87512356997284
 20
17.5
 10
25.86723962810169
 20
17.5
 10
11.68252130031384
 20
5.683281431108455
 10
0.0009885597827123
 20
17.5
 10
0.0
 20
17.5
 10
-0.0009885597827123
 20
17.5
 10
-11.68252130031384
 20
5.683281431108455
 10
-25.86723962810169
 20
17.5
 10
-46.87512356997284
 20
17.5
 10
-67.883007511844
 20
17.5
 10
-82.06772583963186
 20
5.683281431108455
 10
-93.74925858016295
 20
17.5
 10
-93.75024713994569
 20
17.5
 10
-93.75123569972842
 20
17.5
 10
-105.4327684402595
 20
5.683281431108455
 10
-119.6174867680474
 20
17.5
 10
-140.6253707099186
 20
17.5
 10
-161.6332546517897
 20
17.5
 10
-175.8179729795776
 20
5.683281431108455
 10
-187.4995057201087
 20
17.5
 10
-187.5004942798914
 20
17.5
 10
-187.5014828396741
 20
17.5
 10
-199.1830155802053
 20
5.683281431108455
 10
-213.3677339079931
 20
17.5
 10
-234.3756178498643
 20
17.5
 10
-255.3835017917354
 20
17.5
 10
-269.5682201195233
 20
5.683281431108455
 10
-281.2497528600544
 20
17.5
 10
-281.250741419837
 20
17.5
 10
-281.2517299796196
 20
17.5
 10
-292.9332627201508
 20
5.683281431108455
 10
-307.1179810479387
 20
17.5
 10
-328.1258649898099
 20
17.5
 10
-349.1337489316811
 20
17.5
 10
-363.3184672594688
 20
5.683281431108455
 10
-375.0
 20
17.5
 10
-375.0
 20
17.5
  0
LWPOLYLINE
  5
51
330
1C1
100
AcDbEntity
  8
LAYER_1
100
AcDbPolyline
 90
        3
 70
     1
 43
0.0
 10
-375.0
 20
-6.186291501015276
 10
-368.8844810181209
 20
-0.0000000000000071
 10
-375.0
 20
6.18629150101527
  0
LWPOLYLINE
  5
52
330
1C1
100
AcDbEntity
  8
LAYER_1
100
AcDbPolyline
 90
        3
 70
     1
 43
0.0
 10
375.0
 20
-6.186291501015276
 10
368.8844810181209
 20
-0.0000000000000071
 10
375.0
 20
6.18629150101527
  0
ENDSEC
  0
SECTION
  2
OBJECTS
  0
DICTIONARY
  5
159
330
0
100
AcDbDictionary
281
     1
  3
ACAD_COLOR
350
1B7
  3
ACAD_GROUP
350
15A
  3
ACAD_LAYOUT
350
1B6
  3
ACAD_MATERIAL
350
15D
  3
ACAD_MLEADERSTYLE
350
1BA
  3
ACAD_MLINESTYLE
350
1B3
  3
ACAD_PLOTSETTINGS
350
1B5
  3
ACAD_PLOTSTYLENAME
350
15B
  3
ACAD_SCALELIST
350
187
  3
ACAD_TABLESTYLE
350
1B8
  3
ACAD_VISUALSTYLE
350
176
  3
ACDB_RECOMPOSE_DATA
350
1DB
  3
AcDbVariableDictionary
350
1D2
  3
DWGPROPS
350
1DC
  0
DICTIONARY
  5
1CE
330
1A9
100
AcDbDictionary
280
     1
281
     1
  3
ADSK_XREC_LAYER_RECONCILED
360
1CF
  0
DICTIONARY
  5
1D0
330
1C7
100
AcDbDictionary
280
     1
281
     1
  3
ADSK_XREC_LAYER_RECONCILED
360
1D1
  0
DICTIONARY
  5
1B7
102
{ACAD_REACTORS
330
159
102
}
330
159
100
AcDbDictionary
281
     1
  0
DICTIONARY
  5
15A
102
{ACAD_REACTORS
330
159
102
}
330
159
100
AcDbDictionary
281
     1
  0
DICTIONARY
  5
1B6
102
{ACAD_REACTORS
330
159
102
}
330
159
100
AcDbDictionary
281
     1
  3
Model
350
1C4
  3
Présentation1
350
1C0
  0
DICTIONARY
  5
15D
102
{ACAD_REACTORS
330
159
102
}
330
159
100
AcDbDictionary
281
     1
  3
ByBlock
350
166
  3
ByLayer
350
15E
  3
Global
350
16E
  0
DICTIONARY
  5
1BA
102
{ACAD_REACTORS
330
159
102
}
330
159
100
AcDbDictionary
281
     1
  3
Standard
350
1BB
  0
DICTIONARY
  5
1B3
102
{ACAD_REACTORS
330
159
102
}
330
159
100
AcDbDictionary
281
     1
  3
Standard
350
1B4
  0
DICTIONARY
  5
1B5
102
{ACAD_REACTORS
330
159
102
}
330
159
100
AcDbDictionary
281
     1
  0
ACDBDICTIONARYWDFLT
  5
15B
102
{ACAD_REACTORS
330
159
102
}
330
159
100
AcDbDictionary
281
     1
  3
Normal
350
15C
100
AcDbDictionaryWithDefault
340
15C
  0
DICTIONARY
  5
187
102
{ACAD_REACTORS
330
159
102
}
330
159
100
AcDbDictionary
281
     1
  3
A0
350
188
  3
A1
350
189
  3
A2
350
18A
  3
A3
350
18B
  3
A4
350
18C
  3
A5
350
18D
  3
A6
350
18E
  3
A7
350
18F
  3
A8
350
190
  3
A9
350
191
  3
B0
350
192
  3
B1
350
193
  3
B2
350
194
  3
B3
350
195
  3
B4
350
196
  3
B5
350
197
  3
B6
350
198
  3
B7
350
199
  3
B8
350
19A
  3
B9
350
19B
  3
C0
350
19C
  3
C1
350
19D
  3
C2
350
19E
  3
C3
350
19F
  3
C4
350
1A0
  3
C5
350
1A1
  3
C6
350
1A2
  3
C7
350
1A3
  3
C8
350
1A4
  3
C9
350
1A5
  3
D0
350
1A6
  3
D1
350
1A7
  3
D2
350
1A8
  0
DICTIONARY
  5
1B8
102
{ACAD_REACTORS
330
159
102
}
330
159
100
AcDbDictionary
281
     1
  3
Standard
350
1B9
  0
DICTIONARY
  5
176
102
{ACAD_REACTORS
330
159
102
}
330
159
100
AcDbDictionary
281
     1
  3
2dWireframe
350
17C
  3
3D Hidden
350
17E
  3
3dWireframe
350
17D
  3
Basic
350
17B
  3
Brighten
350
182
  3
ColorChange
350
186
  3
Conceptual
350
17F
  3
Dim
350
181
  3
Facepattern
350
185
  3
Flat
350
177
  3
FlatWithEdges
350
178
  3
Gouraud
350
179
  3
GouraudWithEdges
350
17A
  3
Linepattern
350
184
  3
Realistic
350
180
  3
Thicken
350
183
  0
XRECORD
  5
1DB
102
{ACAD_REACTORS
330
159
102
}
330
159
100
AcDbXrecord
280
     1
 90
        1
330
1B9
  0
DICTIONARY
  5
1D2
102
{ACAD_REACTORS
330
159
102
}
330
159
100
AcDbDictionary
281
     1
  3
CANNOSCALE
350
1D5
  3
CMLEADERSTYLE
350
1D4
  3
CTABLESTYLE
350
1D3
  3
DIMASSOC
350
1D8
  3
INDEXCTL
350
1D7
  3
SORTENTS
350
1D6
  0
XRECORD
  5
1DC
102
{ACAD_REACTORS
330
159
102
}
330
159
100
AcDbXrecord
280
     1
  1
DWGPROPS COOKIE
  2

  3

  4

  6

  7

  8
user
  9

300
=
301
=
302
=
303
=
304
=
305
=
306
=
307
=
308
=
309
=
 40
0.0005282060185185
 41
2454910.5
 42
2457348.024657026
  1

 90
        0
  0
XRECORD
  5
1CF
102
{ACAD_REACTORS
330
1CE
102
}
330
1CE
100
AcDbXrecord
280
     1
290
     1
  0
XRECORD
  5
1D1
102
{ACAD_REACTORS
330
1D0
102
}
330
1D0
100
AcDbXrecord
280
     1
290
     1
  0
LAYOUT
  5
1C4
102
{ACAD_XDICTIONARY
360
1E3
102
}
102
{ACAD_REACTORS
330
1B6
102
}
330
1B6
100
AcDbPlotSettings
  1

  2
CutePDF Writer
  4

  6

 40
0.0
 41
0.0
 42
0.0
 43
0.0
 44
0.0
 45
0.0
 46
0.0
 47
0.0
 48
0.0
 49
0.0
140
0.0
141
0.0
142
1.0
143
1.0
 70
  1712
 72
     0
 73
     0
 74
     0
  7

 75
     0
147
1.0
148
0.0
149
0.0
100
AcDbLayout
  1
Model
 70
     1
 71
     0
 10
0.0
 20
0.0
 11
12.0
 21
9.0
 12
0.0
 22
0.0
 32
0.0
 14
0.0
 24
0.0
 34
0.0
 15
0.0
 25
0.0
 35
0.0
146
0.0
 13
0.0
 23
0.0
 33
0.0
 16
1.0
 26
0.0
 36
0.0
 17
0.0
 27
1.0
 37
0.0
 76
     0
330
1C1
331
1C5
  0
LAYOUT
  5
1C0
102
{ACAD_XDICTIONARY
360
1E1
102
}
102
{ACAD_REACTORS
330
1B6
102
}
330
1B6
100
AcDbPlotSettings
  1

  2
CutePDF Writer
  4

  6

 40
0.0
 41
0.0
 42
0.0
 43
0.0
 44
0.0
 45
0.0
 46
0.0
 47
0.0
 48
0.0
 49
0.0
140
0.0
141
0.0
142
1.0
143
1.0
 70
   688
 72
     0
 73
     0
 74
     5
  7

 75
    16
147
1.0
148
0.0
149
0.0
100
AcDbLayout
  1
Présentation1
 70
     1
 71
     1
 10
0.0
 20
0.0
 11
12.0
 21
9.0
 12
0.0
 22
0.0
 32
0.0
 14
1.000000000000000E+20
 24
1.000000000000000E+20
 34
1.000000000000000E+20
 15
-1.000000000000000E+20
 25
-1.000000000000000E+20
 35
-1.000000000000000E+20
146
0.0
 13
0.0
 23
0.0
 33
0.0
 16
1.0
 26
0.0
 36
0.0
 17
0.0
 27
1.0
 37
0.0
 76
     0
330
1BD
  0
MATERIAL
  5
166
102
{ACAD_XDICTIONARY
360
167
102
}
102
{ACAD_REACTORS
330
15D
102
}
330
15D
100
AcDbMaterial
  1
ByBlock
 72
     0
 43
0.0208333333333333
 43
0.0
 43
0.0
 43
0.0
 43
0.0
 43
0.0208333333333333
 43
0.0
 43
0.0
 43
0.0
 43
0.0
 43
1.0
 43
0.0
 43
0.0
 43
0.0
 43
0.0
 43
1.0
 77
     0
 47
0.0208333333333333
 47
0.0
 47
0.0
 47
0.0
 47
0.0
 47
0.0208333333333333
 47
0.0
 47
0.0
 47
0.0
 47
0.0
 47
1.0
 47
0.0
 47
0.0
 47
0.0
 47
0.0
 47
1.0
171
     0
 49
0.0208333333333333
 49
0.0
 49
0.0
 49
0.0
 49
0.0
 49
0.0208333333333333
 49
0.0
 49
0.0
 49
0.0
 49
0.0
 49
1.0
 49
0.0
 49
0.0
 49
0.0
 49
0.0
 49
1.0
175
     0
142
0.0208333333333333
142
0.0
142
0.0
142
0.0
142
0.0
142
0.0208333333333333
142
0.0
142
0.0
142
0.0
142
0.0
142
1.0
142
0.0
142
0.0
142
0.0
142
0.0
142
1.0
179
     0
144
0.0208333333333333
144
0.0
144
0.0
144
0.0
144
0.0
144
0.0208333333333333
144
0.0
144
0.0
144
0.0
144
0.0
144
1.0
144
0.0
144
0.0
144
0.0
144
0.0
144
1.0
147
0.0208333333333333
147
0.0
147
0.0
147
0.0
147
0.0
147
0.0208333333333333
147
0.0
147
0.0
147
0.0
147
0.0
147
1.0
147
0.0
147
0.0
147
0.0
147
0.0
147
1.0
  0
MATERIAL
  5
15E
102
{ACAD_XDICTIONARY
360
15F
102
}
102
{ACAD_REACTORS
330
15D
102
}
330
15D
100
AcDbMaterial
  1
ByLayer
 72
     0
 43
0.0208333333333333
 43
0.0
 43
0.0
 43
0.0
 43
0.0
 43
0.0208333333333333
 43
0.0
 43
0.0
 43
0.0
 43
0.0
 43
1.0
 43
0.0
 43
0.0
 43
0.0
 43
0.0
 43
1.0
 77
     0
 47
0.0208333333333333
 47
0.0
 47
0.0
 47
0.0
 47
0.0
 47
0.0208333333333333
 47
0.0
 47
0.0
 47
0.0
 47
0.0
 47
1.0
 47
0.0
 47
0.0
 47
0.0
 47
0.0
 47
1.0
171
     0
 49
0.0208333333333333
 49
0.0
 49
0.0
 49
0.0
 49
0.0
 49
0.0208333333333333
 49
0.0
 49
0.0
 49
0.0
 49
0.0
 49
1.0
 49
0.0
 49
0.0
 49
0.0
 49
0.0
 49
1.0
175
     0
142
0.0208333333333333
142
0.0
142
0.0
142
0.0
142
0.0
142
0.0208333333333333
142
0.0
142
0.0
142
0.0
142
0.0
142
1.0
142
0.0
142
0.0
142
0.0
142
0.0
142
1.0
179
     0
144
0.0208333333333333
144
0.0
144
0.0
144
0.0
144
0.0
144
0.0208333333333333
144
0.0
144
0.0
144
0.0
144
0.0
144
1.0
144
0.0
144
0.0
144
0.0
144
0.0
144
1.0
147
0.0208333333333333
147
0.0
147
0.0
147
0.0
147
0.0
147
0.0208333333333333
147
0.0
147
0.0
147
0.0
147
0.0
147
1.0
147
0.0
147
0.0
147
0.0
147
0.0
147
1.0
  0
MATERIAL
  5
16E
102
{ACAD_XDICTIONARY
360
16F
102
}
102
{ACAD_REACTORS
330
15D
102
}
330
15D
100
AcDbMaterial
  1
Global
 72
     0
 43
0.0208333333333333
 43
0.0
 43
0.0
 43
0.0
 43
0.0
 43
0.0208333333333333
 43
0.0
 43
0.0
 43
0.0
 43
0.0
 43
1.0
 43
0.0
 43
0.0
 43
0.0
 43
0.0
 43
1.0
 77
     0
 47
0.0208333333333333
 47
0.0
 47
0.0
 47
0.0
 47
0.0
 47
0.0208333333333333
 47
0.0
 47
0.0
 47
0.0
 47
0.0
 47
1.0
 47
0.0
 47
0.0
 47
0.0
 47
0.0
 47
1.0
171
     0
 49
0.0208333333333333
 49
0.0
 49
0.0
 49
0.0
 49
0.0
 49
0.0208333333333333
 49
0.0
 49
0.0
 49
0.0
 49
0.0
 49
1.0
 49
0.0
 49
0.0
 49
0.0
 49
0.0
 49
1.0
175
     0
142
0.0208333333333333
142
0.0
142
0.0
142
0.0
142
0.0
142
0.0208333333333333
142
0.0
142
0.0
142
0.0
142
0.0
142
1.0
142
0.0
142
0.0
142
0.0
142
0.0
142
1.0
179
     0
144
0.0208333333333333
144
0.0
144
0.0
144
0.0
144
0.0
144
0.0208333333333333
144
0.0
144
0.0
144
0.0
144
0.0
144
1.0
144
0.0
144
0.0
144
0.0
144
0.0
144
1.0
147
0.0208333333333333
147
0.0
147
0.0
147
0.0
147
0.0
147
0.0208333333333333
147
0.0
147
0.0
147
0.0
147
0.0
147
1.0
147
0.0
147
0.0
147
0.0
147
0.0
147
1.0
  0
MLEADERSTYLE
  5
1BB
102
{ACAD_REACTORS
330
1BA
102
}
330
1BA
100
AcDbMLeaderStyle
170
     2
171
     1
172
     0
 90
        2
 40
0.0
 41
0.0
173
     1
 91
-1056964608
340
1AF
 92
       -2
290
     1
 42
0.09
291
     1
 43
0.36
  3
Standard
 44
0.18
300

342
1AA
174
     1
178
     6
175
     1
176
     0
 93
-1056964608
 45
0.18
292
     0
297
     0
 46
0.18
 94
-1056964608
 47
1.0
 49
1.0
140
1.0
293
     1
141
0.0
294
     1
177
     0
142
1.0
295
     0
296
     0
143
0.125
1001
ACAD_MLEADERVER
1070
     2
  0
MLINESTYLE
  5
1B4
102
{ACAD_REACTORS
330
1B3
102
}
330
1B3
100
AcDbMlineStyle
  2
STANDARD
 70
     0
  3

 62
   256
 51
90.0
 52
90.0
 71
     2
 49
0.5
 62
   256
  6
BYLAYER
 49
-0.5
 62
   256
  6
BYLAYER
  0
ACDBPLACEHOLDER
  5
15C
102
{ACAD_REACTORS
330
15B
102
}
330
15B
  0
SCALE
  5
188
102
{ACAD_REACTORS
330
187
102
}
330
187
100
AcDbScale
 70
     0
300
1:1
140
1.0
141
1.0
290
     1
  0
SCALE
  5
189
102
{ACAD_REACTORS
330
187
102
}
330
187
100
AcDbScale
 70
     0
300
1:2
140
1.0
141
2.0
290
     0
  0
SCALE
  5
18A
102
{ACAD_REACTORS
330
187
102
}
330
187
100
AcDbScale
 70
     0
300
1:4
140
1.0
141
4.0
290
     0
  0
SCALE
  5
18B
102
{ACAD_REACTORS
330
187
102
}
330
187
100
AcDbScale
 70
     0
300
1:5
140
1.0
141
5.0
290
     0
  0
SCALE
  5
18C
102
{ACAD_REACTORS
330
187
102
}
330
187
100
AcDbScale
 70
     0
300
1:8
140
1.0
141
8.0
290
     0
  0
SCALE
  5
18D
102
{ACAD_REACTORS
330
187
102
}
330
187
100
AcDbScale
 70
     0
300
1:10
140
1.0
141
10.0
290
     0
  0
SCALE
  5
18E
102
{ACAD_REACTORS
330
187
102
}
330
187
100
AcDbScale
 70
     0
300
1:16
140
1.0
141
16.0
290
     0
  0
SCALE
  5
18F
102
{ACAD_REACTORS
330
187
102
}
330
187
100
AcDbScale
 70
     0
300
1:20
140
1.0
141
20.0
290
     0
  0
SCALE
  5
190
102
{ACAD_REACTORS
330
187
102
}
330
187
100
AcDbScale
 70
     0
300
1:30
140
1.0
141
30.0
290
     0
  0
SCALE
  5
191
102
{ACAD_REACTORS
330
187
102
}
330
187
100
AcDbScale
 70
     0
300
1:40
140
1.0
141
40.0
290
     0
  0
SCALE
  5
192
102
{ACAD_REACTORS
330
187
102
}
330
187
100
AcDbScale
 70
     0
300
1:50
140
1.0
141
50.0
290
     0
  0
SCALE
  5
193
102
{ACAD_REACTORS
330
187
102
}
330
187
100
AcDbScale
 70
     0
300
1:100
140
1.0
141
100.0
290
     0
  0
SCALE
  5
194
102
{ACAD_REACTORS
330
187
102
}
330
187
100
AcDbScale
 70
     0
300
2:1
140
2.0
141
1.0
290
     0
  0
SCALE
  5
195
102
{ACAD_REACTORS
330
187
102
}
330
187
100
AcDbScale
 70
     0
300
4:1
140
4.0
141
1.0
290
     0
  0
SCALE
  5
196
102
{ACAD_REACTORS
330
187
102
}
330
187
100
AcDbScale
 70
     0
300
8:1
140
8.0
141
1.0
290
     0
  0
SCALE
  5
197
102
{ACAD_REACTORS
330
187
102
}
330
187
100
AcDbScale
 70
     0
300
10:1
140
10.0
141
1.0
290
     0
  0
SCALE
  5
198
102
{ACAD_REACTORS
330
187
102
}
330
187
100
AcDbScale
 70
     0
300
100:1
140
100.0
141
1.0
290
     0
  0
SCALE
  5
199
102
{ACAD_REACTORS
330
187
102
}
330
187
100
AcDbScale
 70
     0
300
1/128" = 1'-0"
140
0.0078125
141
12.0
290
     0
  0
SCALE
  5
19A
102
{ACAD_REACTORS
330
187
102
}
330
187
100
AcDbScale
 70
     0
300
1/64" = 1'-0"
140
0.015625
141
12.0
290
     0
  0
SCALE
  5
19B
102
{ACAD_REACTORS
330
187
102
}
330
187
100
AcDbScale
 70
     0
300
1/32" = 1'-0"
140
0.03125
141
12.0
290
     0
  0
SCALE
  5
19C
102
{ACAD_REACTORS
330
187
102
}
330
187
100
AcDbScale
 70
     0
300
1/16" = 1'-0"
140
0.0625
141
12.0
290
     0
  0
SCALE
  5
19D
102
{ACAD_REACTORS
330
187
102
}
330
187
100
AcDbScale
 70
     0
300
3/32" = 1'-0"
140
0.09375
141
12.0
290
     0
  0
SCALE
  5
19E
102
{ACAD_REACTORS
330
187
102
}
330
187
100
AcDbScale
 70
     0
300
1/8" = 1'-0"
140
0.125
141
12.0
290
     0
  0
SCALE
  5
19F
102
{ACAD_REACTORS
330
187
102
}
330
187
100
AcDbScale
 70
     0
300
3/16" = 1'-0"
140
0.1875
141
12.0
290
     0
  0
SCALE
  5
1A0
102
{ACAD_REACTORS
330
187
102
}
330
187
100
AcDbScale
 70
     0
300
1/4" = 1'-0"
140
0.25
141
12.0
290
     0
  0
SCALE
  5
1A1
102
{ACAD_REACTORS
330
187
102
}
330
187
100
AcDbScale
 70
     0
300
3/8" = 1'-0"
140
0.375
141
12.0
290
     0
  0
SCALE
  5
1A2
102
{ACAD_REACTORS
330
187
102
}
330
187
100
AcDbScale
 70
     0
300
1/2" = 1'-0"
140
0.5
141
12.0
290
     0
  0
SCALE
  5
1A3
102
{ACAD_REACTORS
330
187
102
}
330
187
100
AcDbScale
 70
     0
300
3/4" = 1'-0"
140
0.75
141
12.0
290
     0
  0
SCALE
  5
1A4
102
{ACAD_REACTORS
330
187
102
}
330
187
100
AcDbScale
 70
     0
300
1" = 1'-0"
140
1.0
141
12.0
290
     0
  0
SCALE
  5
1A5
102
{ACAD_REACTORS
330
187
102
}
330
187
100
AcDbScale
 70
     0
300
1-1/2" = 1'-0"
140
1.5
141
12.0
290
     0
  0
SCALE
  5
1A6
102
{ACAD_REACTORS
330
187
102
}
330
187
100
AcDbScale
 70
     0
300
3" = 1'-0"
140
3.0
141
12.0
290
     0
  0
SCALE
  5
1A7
102
{ACAD_REACTORS
330
187
102
}
330
187
100
AcDbScale
 70
     0
300
6" = 1'-0"
140
6.0
141
12.0
290
     0
  0
SCALE
  5
1A8
102
{ACAD_REACTORS
330
187
102
}
330
187
100
AcDbScale
 70
     0
300
1'-0" = 1'-0"
140
12.0
141
12.0
290
     0
  0
TABLESTYLE
  5
1B9
102
{ACAD_XDICTIONARY
360
1D9
102
}
102
{ACAD_REACTORS
330
1B8
102
}
330
1B8
100
AcDbTableStyle
  3
Standard
 70
     0
 71
     0
 40
0.06
 41
0.06
280
     0
281
     0
  7
STANDARD
140
0.18
170
     2
 62
     0
 63
     7
283
     0
274
    -2
284
     1
 64
     0
275
    -2
285
     1
 65
     0
276
    -2
286
     1
 66
     0
277
    -2
287
     1
 67
     0
278
    -2
288
     1
 68
     0
279
    -2
289
     1
 69
     0
  7
STANDARD
140
0.25
170
     5
 62
     0
 63
     7
283
     0
274
    -2
284
     1
 64
     0
275
    -2
285
     1
 65
     0
276
    -2
286
     1
 66
     0
277
    -2
287
     1
 67
     0
278
    -2
288
     1
 68
     0
279
    -2
289
     1
 69
     0
  7
STANDARD
140
0.18
170
     5
 62
     0
 63
     7
283
     0
274
    -2
284
     1
 64
     0
275
    -2
285
     1
 65
     0
276
    -2
286
     1
 66
     0
277
    -2
287
     1
 67
     0
278
    -2
288
     1
 68
     0
279
    -2
289
     1
 69
     0
  0
VISUALSTYLE
  5
17C
102
{ACAD_REACTORS
330
176
102
}
330
176
100
AcDbVisualStyle
  2
2dWireframe
 70
     4
 71
     0
 72
     2
 73
     0
 90
        0
 40
-0.6
 41
-30.0
 62
     5
 63
     7
 74
     1
 91
        4
 64
     7
 65
   257
 75
     1
175
     1
 42
1.0
 92
        0
 66
   257
 43
1.0
 76
     1
 77
     6
 78
     2
 67
     7
 79
     5
170
     0
171
     0
290
     0
174
     0
 93
        1
 44
0.0
173
     0
291
     0
 45
0.0
1001
ACAD
1000
AcDbSavedByObjectVersion
1070
     0
  0
VISUALSTYLE
  5
17E
102
{ACAD_REACTORS
330
176
102
}
330
176
100
AcDbVisualStyle
  2
3D Hidden
 70
     6
 71
     1
 72
     2
 73
     2
 90
        0
 40
-0.6
 41
-30.0
 62
     5
 63
     7
 74
     2
 91
        2
 64
     7
 65
   257
 75
     2
175
     1
 42
40.0
 92
        0
 66
   257
 43
1.0
 76
     1
 77
     6
 78
     2
 67
     7
 79
     3
170
     0
171
     0
290
     0
174
     0
 93
        1
 44
0.0
173
     0
291
     0
 45
0.0
1001
ACAD
1000
AcDbSavedByObjectVersion
1070
     0
  0
VISUALSTYLE
  5
17D
102
{ACAD_REACTORS
330
176
102
}
330
176
100
AcDbVisualStyle
  2
3dWireframe
 70
     5
 71
     0
 72
     2
 73
     0
 90
        0
 40
-0.6
 41
-30.0
 62
     5
 63
     7
 74
     1
 91
        4
 64
     7
 65
   257
 75
     1
175
     1
 42
1.0
 92
        0
 66
   257
 43
1.0
 76
     1
 77
     6
 78
     2
 67
     7
 79
     5
170
     0
171
     0
290
     0
174
     0
 93
        1
 44
0.0
173
     0
291
     0
 45
0.0
1001
ACAD
1000
AcDbSavedByObjectVersion
1070
     0
  0
VISUALSTYLE
  5
17B
102
{ACAD_REACTORS
330
176
102
}
330
176
100
AcDbVisualStyle
  2
Basic
 70
     7
 71
     1
 72
     0
 73
     1
 90
        0
 40
-0.6
 41
-30.0
 62
     5
 63
     7
 74
     0
 91
        4
 64
     7
 65
   257
 75
     1
175
     1
 42
1.0
 92
        8
 66
     7
 43
1.0
 76
     1
 77
     6
 78
     2
 67
     7
 79
     5
170
     0
171
     0
290
     0
174
     0
 93
        1
 44
0.0
173
     0
291
     1
 45
0.0
1001
ACAD
1000
AcDbSavedByObjectVersion
1070
     0
  0
VISUALSTYLE
  5
182
102
{ACAD_REACTORS
330
176
102
}
330
176
100
AcDbVisualStyle
  2
Brighten
 70
    12
 71
     2
 72
     2
 73
     0
 90
        0
 40
-0.6
 41
-30.0
 62
     5
 63
     7
 74
     1
 91
        4
 64
     7
 65
   257
 75
     1
175
     1
 42
1.0
 92
        8
 66
     7
 43
1.0
 76
     1
 77
     6
 78
     2
 67
     7
 79
     5
170
     0
171
     0
290
     0
174
     0
 93
        1
 44
50.0
173
     0
291
     1
 45
0.0
1001
ACAD
1000
AcDbSavedByObjectVersion
1070
     0
  0
VISUALSTYLE
  5
186
102
{ACAD_REACTORS
330
176
102
}
330
176
100
AcDbVisualStyle
  2
ColorChange
 70
    16
 71
     2
 72
     2
 73
     3
 90
        0
 40
-0.6
 41
-30.0
 62
     5
 63
     8
 74
     1
 91
        4
 64
     7
 65
   257
 75
     1
175
     1
 42
1.0
 92
        8
 66
     8
 43
1.0
 76
     1
 77
     6
 78
     2
 67
     7
 79
     5
170
     0
171
     0
290
     0
174
     0
 93
        1
 44
0.0
173
     0
291
     1
 45
0.0
1001
ACAD
1000
AcDbSavedByObjectVersion
1070
     0
  0
VISUALSTYLE
  5
17F
102
{ACAD_REACTORS
330
176
102
}
330
176
100
AcDbVisualStyle
  2
Conceptual
 70
     9
 71
     3
 72
     2
 73
     0
 90
        0
 40
-0.6
 41
-30.0
 62
     5
 63
     7
 74
     2
 91
        2
 64
     7
 65
   257
 75
     1
175
     1
 42
40.0
 92
        8
 66
     7
 43
1.0
 76
     1
 77
     6
 78
     2
 67
     7
 79
     3
170
     0
171
     0
290
     0
174
     0
 93
        1
 44
0.0
173
     0
291
     0
 45
0.0
1001
ACAD
1000
AcDbSavedByObjectVersion
1070
     0
  0
VISUALSTYLE
  5
181
102
{ACAD_REACTORS
330
176
102
}
330
176
100
AcDbVisualStyle
  2
Dim
 70
    11
 71
     2
 72
     2
 73
     0
 90
        0
 40
-0.6
 41
-30.0
 62
     5
 63
     7
 74
     1
 91
        4
 64
     7
 65
   257
 75
     1
175
     1
 42
1.0
 92
        8
 66
     7
 43
1.0
 76
     1
 77
     6
 78
     2
 67
     7
 79
     5
170
     0
171
     0
290
     0
174
     0
 93
        1
 44
-50.0
173
     0
291
     1
 45
0.0
1001
ACAD
1000
AcDbSavedByObjectVersion
1070
     0
  0
VISUALSTYLE
  5
185
102
{ACAD_REACTORS
330
176
102
}
330
176
100
AcDbVisualStyle
  2
Facepattern
 70
    15
 71
     2
 72
     2
 73
     0
 90
        0
 40
-0.6
 41
-30.0
 62
     5
 63
     7
 74
     1
 91
        4
 64
     7
 65
   257
 75
     1
175
     1
 42
1.0
 92
        8
 66
     7
 43
1.0
 76
     1
 77
     6
 78
     2
 67
     7
 79
     5
170
     0
171
     0
290
     0
174
     0
 93
        1
 44
0.0
173
     0
291
     1
 45
0.0
1001
ACAD
1000
AcDbSavedByObjectVersion
1070
     0
  0
VISUALSTYLE
  5
177
102
{ACAD_REACTORS
330
176
102
}
330
176
100
AcDbVisualStyle
  2
Flat
 70
     0
 71
     2
 72
     1
 73
     1
 90
        2
 40
-0.6
 41
30.0
 62
     5
 63
     7
 74
     0
 91
        4
 64
     7
 65
   257
 75
     1
175
     1
 42
1.0
 92
        8
 66
     7
 43
1.0
 76
     1
 77
     6
 78
     2
 67
     7
 79
     5
170
     0
171
     0
290
     0
174
     0
 93
       13
 44
0.0
173
     0
291
     1
 45
0.0
1001
ACAD
1000
AcDbSavedByObjectVersion
1070
     0
  0
VISUALSTYLE
  5
178
102
{ACAD_REACTORS
330
176
102
}
330
176
100
AcDbVisualStyle
  2
FlatWithEdges
 70
     1
 71
     2
 72
     1
 73
     1
 90
        2
 40
-0.6
 41
30.0
 62
     5
 63
     7
 74
     1
 91
        4
 64
     7
 65
   257
 75
     1
175
     1
 42
1.0
 92
        0
 66
   257
 43
1.0
 76
     1
 77
     6
 78
     2
 67
     7
 79
     5
170
     0
171
     0
290
     0
174
     0
 93
       13
 44
0.0
173
     0
291
     1
 45
0.0
1001
ACAD
1000
AcDbSavedByObjectVersion
1070
     0
  0
VISUALSTYLE
  5
179
102
{ACAD_REACTORS
330
176
102
}
330
176
100
AcDbVisualStyle
  2
Gouraud
 70
     2
 71
     2
 72
     2
 73
     1
 90
        2
 40
-0.6
 41
30.0
 62
     5
 63
     7
 74
     0
 91
        4
 64
     7
 65
   257
 75
     1
175
     1
 42
1.0
 92
        0
 66
     7
 43
1.0
 76
     1
 77
     6
 78
     2
 67
     7
 79
     5
170
     0
171
     0
290
     0
174
     0
 93
       13
 44
0.0
173
     0
291
     1
 45
0.0
1001
ACAD
1000
AcDbSavedByObjectVersion
1070
     0
  0
VISUALSTYLE
  5
17A
102
{ACAD_REACTORS
330
176
102
}
330
176
100
AcDbVisualStyle
  2
GouraudWithEdges
 70
     3
 71
     2
 72
     2
 73
     1
 90
        2
 40
-0.6
 41
30.0
 62
     5
 63
     7
 74
     1
 91
        4
 64
     7
 65
   257
 75
     1
175
     1
 42
1.0
 92
        0
 66
   257
 43
1.0
 76
     1
 77
     6
 78
     2
 67
     7
 79
     5
170
     0
171
     0
290
     0
174
     0
 93
       13
 44
0.0
173
     0
291
     1
 45
0.0
1001
ACAD
1000
AcDbSavedByObjectVersion
1070
     0
  0
VISUALSTYLE
  5
184
102
{ACAD_REACTORS
330
176
102
}
330
176
100
AcDbVisualStyle
  2
Linepattern
 70
    14
 71
     2
 72
     2
 73
     0
 90
        0
 40
-0.6
 41
-30.0
 62
     5
 63
     7
 74
     1
 91
        4
 64
     7
 65
   257
 75
     7
175
     7
 42
1.0
 92
        8
 66
     7
 43
1.0
 76
     1
 77
     6
 78
     2
 67
     7
 79
     5
170
     0
171
     0
290
     0
174
     0
 93
        1
 44
0.0
173
     0
291
     1
 45
0.0
1001
ACAD
1000
AcDbSavedByObjectVersion
1070
     0
  0
VISUALSTYLE
  5
180
102
{ACAD_REACTORS
330
176
102
}
330
176
100
AcDbVisualStyle
  2
Realistic
 70
     8
 71
     2
 72
     2
 73
     0
 90
        0
 40
-0.6
 41
-30.0
 62
     5
 63
     7
 74
     1
 91
        0
 64
     7
 65
   257
 75
     1
175
     1
 42
1.0
 92
        8
 66
     8
 43
1.0
 76
     1
 77
     6
 78
     2
 67
     7
 79
     5
170
     0
171
     0
290
     0
174
     0
 93
       13
 44
0.0
173
     0
291
     0
 45
0.0
1001
ACAD
1000
AcDbSavedByObjectVersion
1070
     0
  0
VISUALSTYLE
  5
183
102
{ACAD_REACTORS
330
176
102
}
330
176
100
AcDbVisualStyle
  2
Thicken
 70
    13
 71
     2
 72
     2
 73
     0
 90
        0
 40
-0.6
 41
-30.0
 62
     5
 63
     7
 74
     1
 91
        4
 64
     7
 65
   257
 75
     1
175
     1
 42
1.0
 92
       12
 66
     7
 43
1.0
 76
     1
 77
     6
 78
     2
 67
     7
 79
     5
170
     0
171
     0
290
     0
174
     0
 93
        1
 44
0.0
173
     0
291
     1
 45
0.0
1001
ACAD
1000
AcDbSavedByObjectVersion
1070
     0
  0
DICTIONARYVAR
  5
1D5
102
{ACAD_REACTORS
330
1D2
102
}
330
1D2
100
DictionaryVariables
280
     0
  1
1:1
  0
DICTIONARYVAR
  5
1D4
102
{ACAD_REACTORS
330
1D2
102
}
330
1D2
100
DictionaryVariables
280
     0
  1
STANDARD
  0
DICTIONARYVAR
  5
1D3
102
{ACAD_REACTORS
330
1D2
102
}
330
1D2
100
DictionaryVariables
280
     0
  1
STANDARD
  0
DICTIONARYVAR
  5
1D8
102
{ACAD_REACTORS
330
1D2
102
}
330
1D2
100
DictionaryVariables
280
     0
  1
1
  0
DICTIONARYVAR
  5
1D7
102
{ACAD_REACTORS
330
1D2
102
}
330
1D2
100
DictionaryVariables
280
     0
  1
0
  0
DICTIONARYVAR
  5
1D6
102
{ACAD_REACTORS
330
1D2
102
}
330
1D2
100
DictionaryVariables
280
     0
  1
127
  0
DICTIONARY
  5
1E3
330
1C4
100
AcDbDictionary
280
     1
281
     1
  3
ACAD_XREC_ROUNDTRIP
360
1E4
  0
DICTIONARY
  5
1E1
330
1C0
100
AcDbDictionary
280
     1
281
     1
  3
ACAD_XREC_ROUNDTRIP
360
1E2
  0
DICTIONARY
  5
167
330
166
100
AcDbDictionary
280
     1
281
     1
  3
ACAD_XREC_ROUNDTRIP
360
1DE
  3
BUMPTILE
360
169
  3
DIFFUSETILE
360
168
  3
OPACITYTILE
360
16C
  3
REFLECTIONTILE
360
16B
  3
REFRACTIONTILE
360
16D
  3
SPECULARTILE
360
16A
  0
DICTIONARY
  5
15F
330
15E
100
AcDbDictionary
280
     1
281
     1
  3
ACAD_XREC_ROUNDTRIP
360
1DD
  3
BUMPTILE
360
161
  3
DIFFUSETILE
360
160
  3
OPACITYTILE
360
164
  3
REFLECTIONTILE
360
163
  3
REFRACTIONTILE
360
165
  3
SPECULARTILE
360
162
  0
DICTIONARY
  5
16F
330
16E
100
AcDbDictionary
280
     1
281
     1
  3
ACAD_XREC_ROUNDTRIP
360
1DF
  3
BUMPTILE
360
171
  3
DIFFUSETILE
360
170
  3
OPACITYTILE
360
174
  3
REFLECTIONTILE
360
173
  3
REFRACTIONTILE
360
175
  3
SPECULARTILE
360
172
  0
DICTIONARY
  5
1D9
330
1B9
100
AcDbDictionary
280
     1
281
     1
  3
ACAD_ROUNDTRIP_2008_TABLESTYLE_CELLSTYLEMAP
360
1DA
  3
ACAD_XREC_ROUNDTRIP
360
1E0
  0
XRECORD
  5
1E4
102
{ACAD_REACTORS
330
1E3
102
}
330
1E3
100
AcDbXrecord
280
     1
102
SHADEPLOT
 70
     0
102
SHADEPLOTRESLEVEL
 70
     2
102
SHADEPLOTCUSTOMDPI
 70
   300
  0
XRECORD
  5
1E2
102
{ACAD_REACTORS
330
1E1
102
}
330
1E1
100
AcDbXrecord
280
     1
102
SHADEPLOT
 70
     0
102
SHADEPLOTRESLEVEL
 70
     2
102
SHADEPLOTCUSTOMDPI
 70
   300
  0
XRECORD
  5
1DE
102
{ACAD_REACTORS
330
167
102
}
330
167
100
AcDbXrecord
280
     1
102
MATERIAL
148
0.0
149
0.0
149
0.0
 93
        0
 94
      127
282
     0
 72
     0
 77
     0
171
     0
175
     0
179
     0
273
     0
  0
XRECORD
  5
169
102
{ACAD_REACTORS
330
167
102
}
330
167
100
AcDbXrecord
280
     1
270
     1
271
     1
  0
XRECORD
  5
168
102
{ACAD_REACTORS
330
167
102
}
330
167
100
AcDbXrecord
280
     1
270
     1
271
     1
  0
XRECORD
  5
16C
102
{ACAD_REACTORS
330
167
102
}
330
167
100
AcDbXrecord
280
     1
270
     1
271
     1
  0
XRECORD
  5
16B
102
{ACAD_REACTORS
330
167
102
}
330
167
100
AcDbXrecord
280
     1
270
     1
271
     1
  0
XRECORD
  5
16D
102
{ACAD_REACTORS
330
167
102
}
330
167
100
AcDbXrecord
280
     1
270
     1
271
     1
  0
XRECORD
  5
16A
102
{ACAD_REACTORS
330
167
102
}
330
167
100
AcDbXrecord
280
     1
270
     1
271
     1
  0
XRECORD
  5
1DD
102
{ACAD_REACTORS
330
15F
102
}
330
15F
100
AcDbXrecord
280
     1
102
MATERIAL
148
0.0
149
0.0
149
0.0
 93
        0
 94
      127
282
     0
 72
     0
 77
     0
171
     0
175
     0
179
     0
273
     0
  0
XRECORD
  5
161
102
{ACAD_REACTORS
330
15F
102
}
330
15F
100
AcDbXrecord
280
     1
270
     1
271
     1
  0
XRECORD
  5
160
102
{ACAD_REACTORS
330
15F
102
}
330
15F
100
AcDbXrecord
280
     1
270
     1
271
     1
  0
XRECORD
  5
164
102
{ACAD_REACTORS
330
15F
102
}
330
15F
100
AcDbXrecord
280
     1
270
     1
271
     1
  0
XRECORD
  5
163
102
{ACAD_REACTORS
330
15F
102
}
330
15F
100
AcDbXrecord
280
     1
270
     1
271
     1
  0
XRECORD
  5
165
102
{ACAD_REACTORS
330
15F
102
}
330
15F
100
AcDbXrecord
280
     1
270
     1
271
     1
  0
XRECORD
  5
162
102
{ACAD_REACTORS
330
15F
102
}
330
15F
100
AcDbXrecord
280
     1
270
     1
271
     1
  0
XRECORD
  5
1DF
102
{ACAD_REACTORS
330
16F
102
}
330
16F
100
AcDbXrecord
280
     1
102
MATERIAL
148
0.0
149
0.0
149
0.0
 93
        0
 94
      127
282
     0
 72
     0
 77
     0
171
     0
175
     0
179
     0
273
     0
  0
XRECORD
  5
171
102
{ACAD_REACTORS
330
16F
102
}
330
16F
100
AcDbXrecord
280
     1
270
     1
271
     1
  0
XRECORD
  5
170
102
{ACAD_REACTORS
330
16F
102
}
330
16F
100
AcDbXrecord
280
     1
270
     1
271
     1
  0
XRECORD
  5
174
102
{ACAD_REACTORS
330
16F
102
}
330
16F
100
AcDbXrecord
280
     1
270
     1
271
     1
  0
XRECORD
  5
173
102
{ACAD_REACTORS
330
16F
102
}
330
16F
100
AcDbXrecord
280
     1
270
     1
271
     1
  0
XRECORD
  5
175
102
{ACAD_REACTORS
330
16F
102
}
330
16F
100
AcDbXrecord
280
     1
270
     1
271
     1
  0
XRECORD
  5
172
102
{ACAD_REACTORS
330
16F
102
}
330
16F
100
AcDbXrecord
280
     1
270
     1
271
     1
  0
CELLSTYLEMAP
  5
1DA
102
{ACAD_REACTORS
330
1D9
102
}
330
1D9
100
AcDbCellStyleMap
 90
        3
300
CELLSTYLE
  1
TABLEFORMAT_BEGIN
 90
        5
170
     1
 91
        0
 92
    32768
 62
   257
 93
        1
300
CONTENTFORMAT
  1
CONTENTFORMAT_BEGIN
 90
        0
 91
        0
 92
      512
 93
        0
300

 40
0.0
140
1.0
 94
        5
 62
     0
340
1AA
144
0.25
309
CONTENTFORMAT_END
171
     0
 94
        0
309
TABLEFORMAT_END
  1
CELLSTYLE_BEGIN
 90
        1
 91
        1
300
_TITLE
309
CELLSTYLE_END
300
CELLSTYLE
  1
TABLEFORMAT_BEGIN
 90
        5
170
     1
 91
        0
 92
        0
 62
   257
 93
        1
300
CONTENTFORMAT
  1
CONTENTFORMAT_BEGIN
 90
        0
 91
        0
 92
      512
 93
        0
300

 40
0.0
140
1.0
 94
        5
 62
     0
340
1AA
144
0.18
309
CONTENTFORMAT_END
171
     0
 94
        0
309
TABLEFORMAT_END
  1
CELLSTYLE_BEGIN
 90
        2
 91
        1
300
_HEADER
309
CELLSTYLE_END
300
CELLSTYLE
  1
TABLEFORMAT_BEGIN
 90
        5
170
     1
 91
        0
 92
        0
 62
   257
 93
        1
300
CONTENTFORMAT
  1
CONTENTFORMAT_BEGIN
 90
        0
 91
        0
 92
      512
 93
        0
300

 40
0.0
140
1.0
 94
        2
 62
     0
340
1AA
144
0.18
309
CONTENTFORMAT_END
171
     0
 94
        0
309
TABLEFORMAT_END
  1
CELLSTYLE_BEGIN
 90
        3
 91
        2
300
_DATA
309
CELLSTYLE_END
  0
XRECORD
  5
1E0
102
{ACAD_REACTORS
330
1D9
102
}
330
1D9
100
AcDbXrecord
280
     1
102
ACAD_ROUNDTRIP_PRE2007_TABLESTYLE
 90
      512
 91
        0
  1

 92
      512
 93
        0
  2

 94
      512
 95
        0
  3

  0
ENDSEC
  0
EOF
