  0
SECTION
  2
HEADER
  9
$ACADVER
  1
AC1015
  9
$ACADMAINTVER
 70
    20
  9
$DWGCODEPAGE
  3
ANSI_1252
  9
$INSBASE
 10
0.0
 20
0.0
 30
0.0
  9
$EXTMIN
 10
-183.5610568664356
 20
-179.9033992464451
 30
-0.0015258207003583
  9
$EXTMAX
 10
183.561058575877
 20
179.9034009218239
 30
0.0000000349246037
  9
$LIMMIN
 10
0.0
 20
0.0
  9
$LIMMAX
 10
12.0
 20
9.0
  9
$ORTHOMODE
 70
     0
  9
$REGENMODE
 70
     1
  9
$FILLMODE
 70
     1
  9
$QTEXTMODE
 70
     0
  9
$MIRRTEXT
 70
     1
  9
$LTSCALE
 40
1.0
  9
$ATTMODE
 70
     1
  9
$TEXTSIZE
 40
0.2
  9
$TRACEWID
 40
0.05
  9
$TEXTSTYLE
  7
STANDARD
  9
$CLAYER
  8
0
  9
$CELTYPE
  6
ByLayer
  9
$CECOLOR
 62
   256
  9
$CELTSCALE
 40
1.0
  9
$DISPSILH
 70
     0
  9
$DIMSCALE
 40
1.0
  9
$DIMASZ
 40
0.18
  9
$DIMEXO
 40
0.0625
  9
$DIMDLI
 40
0.38
  9
$DIMRND
 40
0.0
  9
$DIMDLE
 40
0.0
  9
$DIMEXE
 40
0.18
  9
$DIMTP
 40
0.0
  9
$DIMTM
 40
0.0
  9
$DIMTXT
 40
0.18
  9
$DIMCEN
 40
0.09
  9
$DIMTSZ
 40
0.0
  9
$DIMTOL
 70
     0
  9
$DIMLIM
 70
     0
  9
$DIMTIH
 70
     1
  9
$DIMTOH
 70
     1
  9
$DIMSE1
 70
     0
  9
$DIMSE2
 70
     0
  9
$DIMTAD
 70
     0
  9
$DIMZIN
 70
     0
  9
$DIMBLK
  1

  9
$DIMASO
 70
     1
  9
$DIMSHO
 70
     1
  9
$DIMPOST
  1

  9
$DIMAPOST
  1

  9
$DIMALT
 70
     0
  9
$DIMALTD
 70
     2
  9
$DIMALTF
 40
25.4
  9
$DIMLFAC
 40
1.0
  9
$DIMTOFL
 70
     0
  9
$DIMTVP
 40
0.0
  9
$DIMTIX
 70
     0
  9
$DIMSOXD
 70
     0
  9
$DIMSAH
 70
     0
  9
$DIMBLK1
  1

  9
$DIMBLK2
  1

  9
$DIMSTYLE
  2
STANDARD
  9
$DIMCLRD
 70
     0
  9
$DIMCLRE
 70
     0
  9
$DIMCLRT
 70
     0
  9
$DIMTFAC
 40
1.0
  9
$DIMGAP
 40
0.09
  9
$DIMJUST
 70
     0
  9
$DIMSD1
 70
     0
  9
$DIMSD2
 70
     0
  9
$DIMTOLJ
 70
     1
  9
$DIMTZIN
 70
     0
  9
$DIMALTZ
 70
     0
  9
$DIMALTTZ
 70
     0
  9
$DIMUPT
 70
     0
  9
$DIMDEC
 70
     4
  9
$DIMTDEC
 70
     4
  9
$DIMALTU
 70
     2
  9
$DIMALTTD
 70
     2
  9
$DIMTXSTY
  7
STANDARD
  9
$DIMAUNIT
 70
     0
  9
$DIMADEC
 70
     0
  9
$DIMALTRND
 40
0.0
  9
$DIMAZIN
 70
     0
  9
$DIMDSEP
 70
    46
  9
$DIMATFIT
 70
     3
  9
$DIMFRAC
 70
     0
  9
$DIMLDRBLK
  1

  9
$DIMLUNIT
 70
     2
  9
$DIMLWD
 70
    -2
  9
$DIMLWE
 70
    -2
  9
$DIMTMOVE
 70
     0
  9
$LUNITS
 70
     2
  9
$LUPREC
 70
     4
  9
$SKETCHINC
 40
0.1
  9
$FILLETRAD
 40
0.5
  9
$AUNITS
 70
     0
  9
$AUPREC
 70
     0
  9
$MENU
  1
.
  9
$ELEVATION
 40
0.0
  9
$PELEVATION
 40
0.0
  9
$THICKNESS
 40
0.0
  9
$LIMCHECK
 70
     0
  9
$CHAMFERA
 40
0.5
  9
$CHAMFERB
 40
0.5
  9
$CHAMFERC
 40
0.0
  9
$CHAMFERD
 40
0.0
  9
$SKPOLY
 70
     0
  9
$TDCREATE
 40
2454910.500000000
  9
$TDUCREATE
 40
2454910.458333334
  9
$TDUPDATE
 40
2457347.705207963
  9
$TDUUPDATE
 40
2457347.663541297
  9
$TDINDWG
 40
0.0001853125
  9
$TDUSRTIMER
 40
0.0001851968
  9
$USRTIMER
 70
     1
  9
$ANGBASE
 50
0.0
  9
$ANGDIR
 70
     0
  9
$PDMODE
 70
     0
  9
$PDSIZE
 40
0.0
  9
$PLINEWID
 40
0.0
  9
$SPLFRAME
 70
     0
  9
$SPLINETYPE
 70
     6
  9
$SPLINESEGS
 70
     8
  9
$HANDSEED
  5
221
  9
$SURFTAB1
 70
     6
  9
$SURFTAB2
 70
     6
  9
$SURFTYPE
 70
     6
  9
$SURFU
 70
     6
  9
$SURFV
 70
     6
  9
$UCSBASE
  2

  9
$UCSNAME
  2

  9
$UCSORG
 10
0.0
 20
0.0
 30
0.0
  9
$UCSXDIR
 10
1.0
 20
0.0
 30
0.0
  9
$UCSYDIR
 10
0.0
 20
1.0
 30
0.0
  9
$UCSORTHOREF
  2

  9
$UCSORTHOVIEW
 70
     0
  9
$UCSORGTOP
 10
0.0
 20
0.0
 30
0.0
  9
$UCSORGBOTTOM
 10
0.0
 20
0.0
 30
0.0
  9
$UCSORGLEFT
 10
0.0
 20
0.0
 30
0.0
  9
$UCSORGRIGHT
 10
0.0
 20
0.0
 30
0.0
  9
$UCSORGFRONT
 10
0.0
 20
0.0
 30
0.0
  9
$UCSORGBACK
 10
0.0
 20
0.0
 30
0.0
  9
$PUCSBASE
  2

  9
$PUCSNAME
  2

  9
$PUCSORG
 10
0.0
 20
0.0
 30
0.0
  9
$PUCSXDIR
 10
1.0
 20
0.0
 30
0.0
  9
$PUCSYDIR
 10
0.0
 20
1.0
 30
0.0
  9
$PUCSORTHOREF
  2

  9
$PUCSORTHOVIEW
 70
     0
  9
$PUCSORGTOP
 10
0.0
 20
0.0
 30
0.0
  9
$PUCSORGBOTTOM
 10
0.0
 20
0.0
 30
0.0
  9
$PUCSORGLEFT
 10
0.0
 20
0.0
 30
0.0
  9
$PUCSORGRIGHT
 10
0.0
 20
0.0
 30
0.0
  9
$PUCSORGFRONT
 10
0.0
 20
0.0
 30
0.0
  9
$PUCSORGBACK
 10
0.0
 20
0.0
 30
0.0
  9
$USERI1
 70
     0
  9
$USERI2
 70
     0
  9
$USERI3
 70
     0
  9
$USERI4
 70
     0
  9
$USERI5
 70
     0
  9
$USERR1
 40
0.0
  9
$USERR2
 40
0.0
  9
$USERR3
 40
0.0
  9
$USERR4
 40
0.0
  9
$USERR5
 40
0.0
  9
$WORLDVIEW
 70
     1
  9
$SHADEDGE
 70
     3
  9
$SHADEDIF
 70
    70
  9
$TILEMODE
 70
     1
  9
$MAXACTVP
 70
    64
  9
$PINSBASE
 10
0.0
 20
0.0
 30
0.0
  9
$PLIMCHECK
 70
     0
  9
$PEXTMIN
 10
1.000000000000000E+20
 20
1.000000000000000E+20
 30
1.000000000000000E+20
  9
$PEXTMAX
 10
-1.000000000000000E+20
 20
-1.000000000000000E+20
 30
-1.000000000000000E+20
  9
$PLIMMIN
 10
0.0
 20
0.0
  9
$PLIMMAX
 10
12.0
 20
9.0
  9
$UNITMODE
 70
     0
  9
$VISRETAIN
 70
     1
  9
$PLINEGEN
 70
     0
  9
$PSLTSCALE
 70
     1
  9
$TREEDEPTH
 70
  3020
  9
$CMLSTYLE
  2
Standard
  9
$CMLJUST
 70
     0
  9
$CMLSCALE
 40
1.0
  9
$PROXYGRAPHICS
 70
     1
  9
$MEASUREMENT
 70
     0
  9
$CELWEIGHT
370
    -1
  9
$ENDCAPS
280
     0
  9
$JOINSTYLE
280
     0
  9
$LWDISPLAY
290
     0
  9
$INSUNITS
 70
     0
  9
$HYPERLINKBASE
  1

  9
$STYLESHEET
  1

  9
$XEDIT
290
     1
  9
$CEPSNTYPE
380
     0
  9
$PSTYLEMODE
290
     1
  9
$FINGERPRINTGUID
  2
{3E07EE24-C69B-4DDF-97AA-37D8C4C9D03B}
  9
$VERSIONGUID
  2
{249092C3-0D8C-498E-9C9D-5EB4A612E598}
  9
$EXTNAMES
290
     1
  9
$PSVPSCALE
 40
0.0
  9
$OLESTARTUP
290
     0
  0
ENDSEC
  0
SECTION
  2
CLASSES
  0
CLASS
  1
ACDBDICTIONARYWDFLT
  2
AcDbDictionaryWithDefault
  3
ObjectDBX Classes
 90
        0
280
     0
281
     0
  0
CLASS
  1
MATERIAL
  2
AcDbMaterial
  3
ObjectDBX Classes
 90
     1153
280
     0
281
     0
  0
CLASS
  1
VISUALSTYLE
  2
AcDbVisualStyle
  3
ObjectDBX Classes
 90
     4095
280
     0
281
     0
  0
CLASS
  1
SCALE
  2
AcDbScale
  3
ObjectDBX Classes
 90
     1153
280
     0
281
     0
  0
CLASS
  1
TABLESTYLE
  2
AcDbTableStyle
  3
ObjectDBX Classes
 90
     4095
280
     0
281
     0
  0
CLASS
  1
MLEADERSTYLE
  2
AcDbMLeaderStyle
  3
ACDB_MLEADERSTYLE_CLASS
 90
     4095
280
     0
281
     0
  0
CLASS
  1
DICTIONARYVAR
  2
AcDbDictionaryVar
  3
ObjectDBX Classes
 90
        0
280
     0
281
     0
  0
CLASS
  1
CELLSTYLEMAP
  2
AcDbCellStyleMap
  3
ObjectDBX Classes
 90
     1152
280
     0
281
     0
  0
CLASS
  1
ACDBPLACEHOLDER
  2
AcDbPlaceHolder
  3
ObjectDBX Classes
 90
        0
280
     0
281
     0
  0
CLASS
  1
LAYOUT
  2
AcDbLayout
  3
ObjectDBX Classes
 90
        0
280
     0
281
     0
  0
ENDSEC
  0
SECTION
  2
TABLES
  0
TABLE
  2
VPORT
  5
191
330
0
100
AcDbSymbolTable
 70
     1
  0
VPORT
  5
201
330
191
100
AcDbSymbolTableRecord
100
AcDbViewportTableRecord
  2
*ACTIVE
 70
     0
 10
0.0
 20
0.0
 11
1.0
 21
1.0
 12
0.0000008547207244
 22
0.0000008376894129
 13
0.0
 23
0.0
 14
0.5
 24
0.5
 15
0.5
 25
0.5
 16
0.0
 26
0.0
 36
1.0
 17
0.0
 27
0.0
 37
0.0
 40
364.098730190157
 41
2.513944223107569
 42
50.0
 43
0.0
 44
0.0
 50
0.0
 51
0.0
 71
     0
 72
   100
 73
     1
 74
     3
 75
     0
 76
     0
 77
     0
 78
     0
281
     0
 65
     1
110
0.0
120
0.0
130
0.0
111
1.0
121
0.0
131
0.0
112
0.0
122
1.0
132
0.0
 79
     0
146
0.0
  0
ENDTAB
  0
TABLE
  2
LTYPE
  5
18E
330
0
100
AcDbSymbolTable
 70
     2
  0
LTYPE
  5
1EB
330
18E
100
AcDbSymbolTableRecord
100
AcDbLinetypeTableRecord
  2
ByBlock
 70
     0
  3

 72
    65
 73
     0
 40
0.0
  0
LTYPE
  5
1EC
330
18E
100
AcDbSymbolTableRecord
100
AcDbLinetypeTableRecord
  2
ByLayer
 70
     0
  3

 72
    65
 73
     0
 40
0.0
  0
LTYPE
  5
1ED
330
18E
100
AcDbSymbolTableRecord
100
AcDbLinetypeTableRecord
  2
CONTINUOUS
 70
     0
  3
Solid line
 72
    65
 73
     0
 40
0.0
  0
LTYPE
  5
202
330
18E
100
AcDbSymbolTableRecord
100
AcDbLinetypeTableRecord
  2
CONTINUOUS2
 70
     0
  3
Solid Line
 72
    65
 73
     0
 40
0.0
  0
ENDTAB
  0
TABLE
  2
LAYER
  5
18B
330
0
100
AcDbSymbolTable
 70
     2
  0
LAYER
  5
1E5
102
{ACAD_XDICTIONARY
360
20A
102
}
330
18B
100
AcDbSymbolTableRecord
100
AcDbLayerTableRecord
  2
0
 70
     0
 62
     7
  6
CONTINUOUS
370
    -3
390
198
  0
LAYER
  5
203
102
{ACAD_XDICTIONARY
360
20C
102
}
330
18B
100
AcDbSymbolTableRecord
100
AcDbLayerTableRecord
  2
LAYER_1
 70
     0
 62
    18
  6
CONTINUOUS
370
    -3
390
198
  0
ENDTAB
  0
TABLE
  2
STYLE
  5
18C
330
0
100
AcDbSymbolTable
 70
     2
  0
STYLE
  5
1E6
330
18C
100
AcDbSymbolTableRecord
100
AcDbTextStyleTableRecord
  2
STANDARD
 70
     0
 40
0.0
 41
1.0
 50
0.0
 71
     0
 42
0.2
  3
txt
  4

  0
STYLE
  5
1EA
330
18C
100
AcDbSymbolTableRecord
100
AcDbTextStyleTableRecord
  2
Annotative
 70
     0
 40
0.0
 41
1.0
 50
0.0
 71
     0
 42
0.2
  3
txt
  4

1001
AcadAnnotative
1000
AnnotativeData
1002
{
1070
     1
1070
     1
1002
}
  0
ENDTAB
  0
TABLE
  2
VIEW
  5
18F
330
0
100
AcDbSymbolTable
 70
     0
  0
ENDTAB
  0
TABLE
  2
UCS
  5
190
330
0
100
AcDbSymbolTable
 70
     0
  0
ENDTAB
  0
TABLE
  2
APPID
  5
192
330
0
100
AcDbSymbolTable
 70
     3
  0
APPID
  5
1E7
330
192
100
AcDbSymbolTableRecord
100
AcDbRegAppTableRecord
  2
ACAD
 70
     0
  0
APPID
  5
1EE
330
192
100
AcDbSymbolTableRecord
100
AcDbRegAppTableRecord
  2
AcadAnnotative
 70
     0
  0
APPID
  5
1F8
330
192
100
AcDbSymbolTableRecord
100
AcDbRegAppTableRecord
  2
ACAD_MLEADERVER
 70
     0
  0
ENDTAB
  0
TABLE
  2
DIMSTYLE
  5
193
330
0
100
AcDbSymbolTable
 70
     2
100
AcDbDimStyleTable
 71
     0
  0
DIMSTYLE
105
1E8
330
193
100
AcDbSymbolTableRecord
100
AcDbDimStyleTableRecord
  2
STANDARD
 70
     0
279
     2
340
1E6
  0
DIMSTYLE
105
1E9
330
193
100
AcDbSymbolTableRecord
100
AcDbDimStyleTableRecord
  2
Annotative
 70
     0
340
1E6
1001
AcadAnnotative
1000
AnnotativeData
1002
{
1070
     1
1070
     1
1002
}
  0
ENDTAB
  0
TABLE
  2
BLOCK_RECORD
  5
18A
330
0
100
AcDbSymbolTable
 70
     2
  0
BLOCK_RECORD
  5
1FD
330
18A
100
AcDbSymbolTableRecord
100
AcDbBlockTableRecord
  2
*Model_Space
340
200
  0
BLOCK_RECORD
  5
1F9
330
18A
100
AcDbSymbolTableRecord
100
AcDbBlockTableRecord
  2
*Paper_Space
340
1FC
  0
BLOCK_RECORD
  5
205
330
18A
100
AcDbSymbolTableRecord
100
AcDbBlockTableRecord
  2
$MODEL_SPACE
340
0
  0
BLOCK_RECORD
  5
207
330
18A
100
AcDbSymbolTableRecord
100
AcDbBlockTableRecord
  2
$PAPER_SPACE
340
0
  0
ENDTAB
  0
ENDSEC
  0
SECTION
  2
BLOCKS
  0
BLOCK
  5
1FE
330
1FD
100
AcDbEntity
  8
0
100
AcDbBlockBegin
  2
*Model_Space
 70
     0
 10
0.0
 20
0.0
 30
0.0
  3
*Model_Space
  1

  0
ENDBLK
  5
1FF
330
1FD
100
AcDbEntity
  8
0
100
AcDbBlockEnd
  0
BLOCK
  5
1FA
330
1F9
100
AcDbEntity
 67
     1
  8
0
100
AcDbBlockBegin
  2
*Paper_Space
 70
     0
 10
0.0
 20
0.0
 30
0.0
  3
*Paper_Space
  1

  0
ENDBLK
  5
1FB
330
1F9
100
AcDbEntity
 67
     1
  8
0
100
AcDbBlockEnd
  0
BLOCK
  5
206
330
205
100
AcDbEntity
  8
0
100
AcDbBlockBegin
  2
$MODEL_SPACE
 70
     0
 10
0.0
 20
0.0
 30
0.0
  3
$MODEL_SPACE
  1

  0
ENDBLK
  5
21
330
205
100
AcDbEntity
  8
0
100
AcDbBlockEnd
  0
BLOCK
  5
208
330
207
100
AcDbEntity
  8
0
100
AcDbBlockBegin
  2
$PAPER_SPACE
 70
     0
 10
0.0
 20
0.0
 30
0.0
  3
$PAPER_SPACE
  1

  0
ENDBLK
  5
1D
330
207
100
AcDbEntity
  8
0
100
AcDbBlockEnd
  0
ENDSEC
  0
SECTION
  2
ENTITIES
  0
LWPOLYLINE
  5
41
330
1FD
100
AcDbEntity
  8
LAYER_1
100
AcDbPolyline
 90
        3
 70
     1
 43
0.0
 10
105.9233983111223
 20
-65.88298266660075
 10
105.9233983111223
 20
-27.13932464150254
 10
67.35344510281379
 20
-27.13932464150254
  0
LWPOLYLINE
  5
42
330
1FD
100
AcDbEntity
  8
LAYER_1
100
AcDbPolyline
 90
        3
 70
     1
 43
0.0
 10
-65.87710448087102
 20
-105.929276496852
 10
-27.1334464557728
 20
-105.929276496852
 10
-27.1334464557728
 20
-67.35932328854357
  0
LWPOLYLINE
  5
43
330
1FD
100
AcDbEntity
  8
LAYER_1
100
AcDbPolyline
 90
        3
 70
     1
 43
0.0
 10
65.87710448087102
 20
-105.929276496852
 10
27.13344645577274
 20
-105.929276496852
 10
27.13344645577271
 20
-67.35932328854357
  0
LWPOLYLINE
  5
44
330
1FD
100
AcDbEntity
  8
LAYER_1
100
AcDbPolyline
 90
        3
 70
     1
 43
0.0
 10
-105.9233983111223
 20
-65.88298266660075
 10
-105.9233983111223
 20
-27.13932464150254
 10
-67.35344510281385
 20
-27.13932464150254
  0
LWPOLYLINE
  5
45
330
1FD
100
AcDbEntity
  8
LAYER_1
100
AcDbPolyline
 90
        3
 70
     1
 43
0.0
 10
-65.87710448087102
 20
105.9175201253925
 10
-27.1334464557728
 20
105.9175201253925
 10
-27.1334464557728
 20
67.34756691708408
  0
LWPOLYLINE
  5
46
330
1FD
100
AcDbEntity
  8
LAYER_1
100
AcDbPolyline
 90
        3
 70
     1
 43
0.0
 10
-105.9233983111223
 20
65.8712262951413
 10
-105.9233983111223
 20
27.12756827004301
 10
-67.35344510281385
 20
27.12756827004301
  0
LWPOLYLINE
  5
47
330
1FD
100
AcDbEntity
  8
LAYER_1
100
AcDbPolyline
 90
        3
 70
     1
 43
0.0
 10
65.64184704497359
 20
109.1259576316244
 10
26.89818901987531
 20
109.1259576316245
 10
26.89818901987528
 20
70.55600442331598
  0
LWPOLYLINE
  5
48
330
1FD
100
AcDbEntity
  8
LAYER_1
100
AcDbPolyline
 90
        3
 70
     1
 43
0.0
 10
105.6881408752248
 20
69.07966380137321
 10
105.6881408752248
 20
30.33600577627493
 10
67.11818766691635
 20
30.33600577627493
  0
LWPOLYLINE
  5
49
330
1FD
100
AcDbEntity
  8
LAYER_1
100
AcDbPolyline
 90
        8
 70
     1
 43
0.0
 10
119.001
 20
118.9951218142702
 10
114.844152564069
 20
103.5245658793545
 10
63.9419997637234
 20
52.62241307900894
 10
48.29385078009238
 20
48.28091479686833
 10
48.29551591571395
 20
48.28963772998424
 10
48.28679298259807
 20
48.28797259436266
 10
52.62829126473866
 20
63.93612157799367
 10
103.5304440650842
 20
114.8382743783392
  0
LWPOLYLINE
  5
4A
330
1FD
100
AcDbEntity
  8
LAYER_1
100
AcDbPolyline
 90
        8
 70
     1
 43
0.0
 10
-0.0000000000000302
 20
119.0068781857297
 10
7.999999999999969
 20
110.479935157452
 10
7.999999999999969
 20
54.60798953709531
 10
0.0049906164684597
 20
44.0068781857297
 10
-0.0000000000000302
 20
44.01238729111542
 10
-0.0049906164685201
 20
44.0068781857297
 10
-8.000000000000001
 20
54.60798953709531
 10
-8.000000000000001
 20
110.479935157452
  0
LWPOLYLINE
  5
4B
330
1FD
100
AcDbEntity
  8
LAYER_1
100
AcDbPolyline
 90
        6
 70
     1
 43
0.0
 10
118.8855264861879
 20
-118.8914046719177
 10
114.5506905123758
 20
-103.2428601991208
 10
63.66449570180118
 20
-52.35666538854616
 10
48.17484836753314
 20
-48.18072655326293
 10
52.35078720281638
 20
-63.67037388753089
 10
103.2369820133911
 20
-114.5565686981056
  0
LWPOLYLINE
  5
4C
330
1FD
100
AcDbEntity
  8
LAYER_1
100
AcDbPolyline
 90
       24
 70
     1
 43
0.0
 10
-17.13343703605962
 20
-17.13931522178935
 10
-17.10759985737867
 20
-17.14250848265456
 10
-13.86380788414932
 20
-34.90936950828399
 10
-0.0000000000000284
 20
-24.61220152971584
 10
13.86380788414927
 20
-34.90936950828399
 10
17.10759985737861
 20
-17.14250848265456
 10
17.13343703605956
 20
-17.13931522178935
 10
17.13663029692477
 20
-17.1134780431084
 10
34.9034913225542
 20
-13.86968606987905
 10
24.60632334398602
 20
-0.0058781857297561
 10
34.9034913225542
 20
13.85792969841954
 10
17.13663029692477
 20
17.10172167164888
 10
17.13343703605956
 20
17.12755885032983
 10
17.10759985737861
 20
17.13075211119504
 10
13.86380788414927
 20
34.89761313682449
 10
-0.0000000000000284
 20
24.60044515825632
 10
-13.86380788414932
 20
34.89761313682449
 10
-17.10759985737867
 20
17.13075211119504
 10
-17.13343703605962
 20
17.12755885032983
 10
-17.13663029692483
 20
17.10172167164888
 10
-34.90349132255427
 20
13.85792969841954
 10
-24.60632334398611
 20
-0.0058781857297561
 10
-34.90349132255427
 20
-13.86968606987905
 10
-17.13663029692483
 20
-17.1134780431084
  0
LWPOLYLINE
  5
4D
330
1FD
100
AcDbEntity
  8
LAYER_1
100
AcDbPolyline
 90
        6
 70
     1
 43
0.0
 10
-118.8855264861879
 20
118.8796483004582
 10
-114.5506905123759
 20
103.2311038276613
 10
-63.66449570180122
 20
52.34490901708665
 10
-48.17484836753316
 20
48.16897018180345
 10
-52.35078720281642
 20
63.65861751607138
 10
-103.2369820133911
 20
114.5448123266461
  0
LWPOLYLINE
  5
4E
330
1FD
100
AcDbEntity
  8
LAYER_1
100
AcDbPolyline
 90
        6
 70
     1
 43
0.0
 10
-118.8855264861879
 20
-118.8914046719177
 10
-103.2369820133911
 20
-114.5565686981056
 10
-52.35078720281642
 20
-63.67037388753089
 10
-48.17484836753316
 20
-48.18072655326293
 10
-63.66449570180122
 20
-52.35666538854616
 10
-114.5506905123759
 20
-103.2428601991208
  0
LWPOLYLINE
  5
4F
330
1FD
100
AcDbEntity
  8
LAYER_1
100
AcDbPolyline
 90
        8
 70
     1
 43
0.0
 10
44.03002012118225
 20
-0.0058781857297561
 10
44.02451274291882
 20
-0.0009863912119954
 10
54.6223006115397
 20
7.835709399460085
 10
108.5952607405453
 20
7.835709399460085
 10
119.0009999999999
 20
-0.0058781857297561
 10
108.5952607405453
 20
-7.847465770919597
 10
54.6223006115397
 20
-7.847465770919597
 10
44.02451274291882
 20
-0.0107699802475167
  0
LWPOLYLINE
  5
50
330
1FD
100
AcDbEntity
  8
LAYER_1
100
AcDbPolyline
 90
        8
 70
     1
 43
0.0
 10
-0.0000000000000302
 20
-119.0068781857297
 10
7.841587585189811
 20
-108.6011389262751
 10
7.841587585189811
 20
-54.62817879726953
 10
0.0048917945177021
 20
-44.03039092864861
 10
-0.0000000000000302
 20
-44.03589830691203
 10
-0.0048917945177624
 20
-44.03039092864861
 10
-7.841587585189872
 20
-54.62817879726953
 10
-7.841587585189872
 20
-108.6011389262751
  0
LWPOLYLINE
  5
51
330
1FD
100
AcDbEntity
  8
LAYER_1
100
AcDbPolyline
 90
        8
 70
     1
 43
0.0
 10
-119.001
 20
-0.0058781857297561
 10
-108.5952607405454
 20
7.835709399460085
 10
-54.62230061153974
 20
7.835709399460085
 10
-44.02451274291889
 20
-0.0009863912119954
 10
-44.03002012118229
 20
-0.0058781857297561
 10
-44.02451274291889
 20
-0.0107699802475167
 10
-54.62230061153974
 20
-7.847465770919597
 10
-108.5952607405454
 20
-7.847465770919597
  0
LWPOLYLINE
  5
52
330
1FD
100
AcDbEntity
  8
LAYER_1
100
AcDbPolyline
 90
       24
 70
     1
 43
0.0
 10
165.7798004405857
 20
127.8554919635254
 10
165.7539632619046
 20
127.8522987026602
 10
162.5101712886754
 20
110.0854376770307
 10
148.6463634045261
 20
120.3826056555989
 10
134.7825555203768
 20
110.0854376770307
 10
131.5387635471475
 20
127.8522987026602
 10
131.5129263684664
 20
127.8554919635254
 10
131.5097331076013
 20
127.8813291422064
 10
113.7428720819719
 20
131.1251211154357
 10
124.04004006054
 20
144.988928999585
 10
113.7428720819719
 20
158.8527368837343
 10
131.5097331076013
 20
162.0965288569636
 10
131.5129263684664
 20
162.1223660356445
 10
131.5387635471475
 20
162.1255592965098
 10
134.7825555203768
 20
179.8924203221392
 10
148.6463634045261
 20
169.595252343571
 10
162.5101712886754
 20
179.8924203221392
 10
165.7539632619046
 20
162.1255592965098
 10
165.7798004405857
 20
162.1223660356445
 10
165.7829937014509
 20
162.0965288569636
 10
183.5498547270803
 20
158.8527368837343
 10
173.2526867485122
 20
144.988928999585
 10
183.5498547270803
 20
131.1251211154357
 10
165.7829937014509
 20
127.8813291422064
  0
LWPOLYLINE
  5
53
330
1FD
100
AcDbEntity
  8
LAYER_1
100
AcDbPolyline
 90
        8
 70
     1
 43
0.0
 10
13.37729710192897
 20
135.9283666167663
 10
21.90424013020672
 20
127.9283666167663
 10
77.77618575056337
 20
127.9283666167663
 10
88.37729710192897
 20
135.9233760002978
 10
88.37178799654326
 20
135.9283666167663
 10
88.37729710192897
 20
135.9333572332347
 10
77.77618575056337
 20
143.9283666167662
 10
21.90424013020672
 20
143.9283666167662
  0
LWPOLYLINE
  5
54
330
1FD
100
AcDbEntity
  8
LAYER_1
100
AcDbPolyline
 90
        8
 70
     1
 43
0.0
 10
140.3795162055711
 20
9.806891866891064
 10
148.3795162055711
 20
18.3338348951688
 10
148.3795162055711
 20
74.20578051552546
 10
140.3845068220396
 20
84.80689186689104
 10
140.3795162055711
 20
84.80138276150531
 10
140.3745255891025
 20
84.80689186689104
 10
132.3795162055711
 20
74.20578051552546
 10
132.3795162055711
 20
18.3338348951688
  0
LWPOLYLINE
  5
55
330
1FD
100
AcDbEntity
  8
LAYER_1
100
AcDbPolyline
 90
        8
 70
     1
 43
0.0
 10
-140.3795162055711
 20
9.806891866891064
 10
-148.3795162055711
 20
18.3338348951688
 10
-148.3795162055711
 20
74.20578051552546
 10
-140.3845068220396
 20
84.80689186689104
 10
-140.3795162055711
 20
84.80138276150531
 10
-140.3745255891025
 20
84.80689186689104
 10
-132.3795162055711
 20
74.20578051552546
 10
-132.3795162055711
 20
18.3338348951688
  0
LWPOLYLINE
  5
56
330
1FD
100
AcDbEntity
  8
LAYER_1
100
AcDbPolyline
 90
       24
 70
     1
 43
0.0
 10
-165.7798004405857
 20
127.8554919635254
 10
-165.7539632619046
 20
127.8522987026602
 10
-162.5101712886754
 20
110.0854376770307
 10
-148.6463634045261
 20
120.3826056555989
 10
-134.7825555203768
 20
110.0854376770307
 10
-131.5387635471475
 20
127.8522987026602
 10
-131.5129263684664
 20
127.8554919635254
 10
-131.5097331076013
 20
127.8813291422064
 10
-113.7428720819719
 20
131.1251211154357
 10
-124.04004006054
 20
144.988928999585
 10
-113.7428720819719
 20
158.8527368837343
 10
-131.5097331076013
 20
162.0965288569636
 10
-131.5129263684664
 20
162.1223660356445
 10
-131.5387635471475
 20
162.1255592965098
 10
-134.7825555203768
 20
179.8924203221392
 10
-148.6463634045261
 20
169.595252343571
 10
-162.5101712886754
 20
179.8924203221392
 10
-165.7539632619046
 20
162.1255592965098
 10
-165.7798004405857
 20
162.1223660356445
 10
-165.7829937014509
 20
162.0965288569636
 10
-183.5498547270803
 20
158.8527368837343
 10
-173.2526867485122
 20
144.988928999585
 10
-183.5498547270803
 20
131.1251211154357
 10
-165.7829937014509
 20
127.8813291422064
  0
LWPOLYLINE
  5
57
330
1FD
100
AcDbEntity
  8
LAYER_1
100
AcDbPolyline
 90
        8
 70
     1
 43
0.0
 10
-13.37729710192897
 20
135.9283666167663
 10
-21.90424013020672
 20
127.9283666167663
 10
-77.77618575056337
 20
127.9283666167663
 10
-88.37729710192897
 20
135.9233760002978
 10
-88.37178799654326
 20
135.9283666167663
 10
-88.37729710192897
 20
135.9333572332347
 10
-77.77618575056337
 20
143.9283666167662
 10
-21.90424013020672
 20
143.9283666167662
  0
LWPOLYLINE
  5
58
330
1FD
100
AcDbEntity
  8
LAYER_1
100
AcDbPolyline
 90
        8
 70
     1
 43
0.0
 10
-140.3795162055711
 20
-9.806891866891064
 10
-148.3795162055711
 20
-18.3338348951688
 10
-148.3795162055711
 20
-74.20578051552546
 10
-140.3845068220396
 20
-84.80689186689104
 10
-140.3795162055711
 20
-84.80138276150531
 10
-140.3745255891025
 20
-84.80689186689104
 10
-132.3795162055711
 20
-74.20578051552546
 10
-132.3795162055711
 20
-18.3338348951688
  0
LWPOLYLINE
  5
59
330
1FD
100
AcDbEntity
  8
LAYER_1
100
AcDbPolyline
 90
       24
 70
     1
 43
0.0
 10
-165.7798004405857
 20
-127.8554919635254
 10
-165.7539632619046
 20
-127.8522987026602
 10
-162.5101712886754
 20
-110.0854376770307
 10
-148.6463634045261
 20
-120.3826056555989
 10
-134.7825555203768
 20
-110.0854376770307
 10
-131.5387635471475
 20
-127.8522987026602
 10
-131.5129263684664
 20
-127.8554919635254
 10
-131.5097331076013
 20
-127.8813291422064
 10
-113.7428720819719
 20
-131.1251211154357
 10
-124.04004006054
 20
-144.988928999585
 10
-113.7428720819719
 20
-158.8527368837343
 10
-131.5097331076013
 20
-162.0965288569636
 10
-131.5129263684664
 20
-162.1223660356445
 10
-131.5387635471475
 20
-162.1255592965098
 10
-134.7825555203768
 20
-179.8924203221392
 10
-148.6463634045261
 20
-169.595252343571
 10
-162.5101712886754
 20
-179.8924203221392
 10
-165.7539632619046
 20
-162.1255592965098
 10
-165.7798004405857
 20
-162.1223660356445
 10
-165.7829937014509
 20
-162.0965288569636
 10
-183.5498547270803
 20
-158.8527368837343
 10
-173.2526867485122
 20
-144.988928999585
 10
-183.5498547270803
 20
-131.1251211154357
 10
-165.7829937014509
 20
-127.8813291422064
  0
LWPOLYLINE
  5
5A
330
1FD
100
AcDbEntity
  8
LAYER_1
100
AcDbPolyline
 90
        8
 70
     1
 43
0.0
 10
-13.37729710192897
 20
-135.9283666167663
 10
-21.90424013020672
 20
-127.9283666167663
 10
-77.77618575056337
 20
-127.9283666167663
 10
-88.37729710192897
 20
-135.9233760002978
 10
-88.37178799654326
 20
-135.9283666167663
 10
-88.37729710192897
 20
-135.9333572332347
 10
-77.77618575056337
 20
-143.9283666167662
 10
-21.90424013020672
 20
-143.9283666167662
  0
LWPOLYLINE
  5
5B
330
1FD
100
AcDbEntity
  8
LAYER_1
100
AcDbPolyline
 90
        8
 70
     1
 43
0.0
 10
140.3795162055711
 20
-9.806891866891064
 10
148.3795162055711
 20
-18.3338348951688
 10
148.3795162055711
 20
-74.20578051552546
 10
140.3845068220396
 20
-84.80689186689104
 10
140.3795162055711
 20
-84.80138276150531
 10
140.3745255891025
 20
-84.80689186689104
 10
132.3795162055711
 20
-74.20578051552546
 10
132.3795162055711
 20
-18.3338348951688
  0
LWPOLYLINE
  5
5C
330
1FD
100
AcDbEntity
  8
LAYER_1
100
AcDbPolyline
 90
       24
 70
     1
 43
0.0
 10
165.7798004405857
 20
-127.8554919635254
 10
165.7539632619046
 20
-127.8522987026602
 10
162.5101712886754
 20
-110.0854376770307
 10
148.6463634045261
 20
-120.3826056555989
 10
134.7825555203768
 20
-110.0854376770307
 10
131.5387635471475
 20
-127.8522987026602
 10
131.5129263684664
 20
-127.8554919635254
 10
131.5097331076013
 20
-127.8813291422064
 10
113.7428720819719
 20
-131.1251211154357
 10
124.04004006054
 20
-144.988928999585
 10
113.7428720819719
 20
-158.8527368837343
 10
131.5097331076013
 20
-162.0965288569636
 10
131.5129263684664
 20
-162.1223660356445
 10
131.5387635471475
 20
-162.1255592965098
 10
134.7825555203768
 20
-179.8924203221392
 10
148.6463634045261
 20
-169.595252343571
 10
162.5101712886754
 20
-179.8924203221392
 10
165.7539632619046
 20
-162.1255592965098
 10
165.7798004405857
 20
-162.1223660356445
 10
165.7829937014509
 20
-162.0965288569636
 10
183.5498547270803
 20
-158.8527368837343
 10
173.2526867485122
 20
-144.988928999585
 10
183.5498547270803
 20
-131.1251211154357
 10
165.7829937014509
 20
-127.8813291422064
  0
LWPOLYLINE
  5
5D
330
1FD
100
AcDbEntity
  8
LAYER_1
100
AcDbPolyline
 90
        8
 70
     1
 43
0.0
 10
13.37729710192897
 20
-135.9283666167663
 10
21.90424013020672
 20
-127.9283666167663
 10
77.77618575056337
 20
-127.9283666167663
 10
88.37729710192897
 20
-135.9233760002978
 10
88.37178799654326
 20
-135.9283666167663
 10
88.37729710192897
 20
-135.9333572332347
 10
77.77618575056337
 20
-143.9283666167662
 10
21.90424013020672
 20
-143.9283666167662
  0
ENDSEC
  0
SECTION
  2
OBJECTS
  0
DICTIONARY
  5
195
330
0
100
AcDbDictionary
281
     1
  3
ACAD_COLOR
350
1F3
  3
ACAD_GROUP
350
196
  3
ACAD_LAYOUT
350
1F2
  3
ACAD_MATERIAL
350
199
  3
ACAD_MLEADERSTYLE
350
1F6
  3
ACAD_MLINESTYLE
350
1EF
  3
ACAD_PLOTSETTINGS
350
1F1
  3
ACAD_PLOTSTYLENAME
350
197
  3
ACAD_SCALELIST
350
1C3
  3
ACAD_TABLESTYLE
350
1F4
  3
ACAD_VISUALSTYLE
350
1B2
  3
ACDB_RECOMPOSE_DATA
350
217
  3
AcDbVariableDictionary
350
20E
  3
DWGPROPS
350
218
  0
DICTIONARY
  5
20A
330
1E5
100
AcDbDictionary
280
     1
281
     1
  3
ADSK_XREC_LAYER_RECONCILED
360
20B
  0
DICTIONARY
  5
20C
330
203
100
AcDbDictionary
280
     1
281
     1
  3
ADSK_XREC_LAYER_RECONCILED
360
20D
  0
DICTIONARY
  5
1F3
102
{ACAD_REACTORS
330
195
102
}
330
195
100
AcDbDictionary
281
     1
  0
DICTIONARY
  5
196
102
{ACAD_REACTORS
330
195
102
}
330
195
100
AcDbDictionary
281
     1
  0
DICTIONARY
  5
1F2
102
{ACAD_REACTORS
330
195
102
}
330
195
100
AcDbDictionary
281
     1
  3
Model
350
200
  3
Présentation1
350
1FC
  0
DICTIONARY
  5
199
102
{ACAD_REACTORS
330
195
102
}
330
195
100
AcDbDictionary
281
     1
  3
ByBlock
350
1A2
  3
ByLayer
350
19A
  3
Global
350
1AA
  0
DICTIONARY
  5
1F6
102
{ACAD_REACTORS
330
195
102
}
330
195
100
AcDbDictionary
281
     1
  3
Standard
350
1F7
  0
DICTIONARY
  5
1EF
102
{ACAD_REACTORS
330
195
102
}
330
195
100
AcDbDictionary
281
     1
  3
Standard
350
1F0
  0
DICTIONARY
  5
1F1
102
{ACAD_REACTORS
330
195
102
}
330
195
100
AcDbDictionary
281
     1
  0
ACDBDICTIONARYWDFLT
  5
197
102
{ACAD_REACTORS
330
195
102
}
330
195
100
AcDbDictionary
281
     1
  3
Normal
350
198
100
AcDbDictionaryWithDefault
340
198
  0
DICTIONARY
  5
1C3
102
{ACAD_REACTORS
330
195
102
}
330
195
100
AcDbDictionary
281
     1
  3
A0
350
1C4
  3
A1
350
1C5
  3
A2
350
1C6
  3
A3
350
1C7
  3
A4
350
1C8
  3
A5
350
1C9
  3
A6
350
1CA
  3
A7
350
1CB
  3
A8
350
1CC
  3
A9
350
1CD
  3
B0
350
1CE
  3
B1
350
1CF
  3
B2
350
1D0
  3
B3
350
1D1
  3
B4
350
1D2
  3
B5
350
1D3
  3
B6
350
1D4
  3
B7
350
1D5
  3
B8
350
1D6
  3
B9
350
1D7
  3
C0
350
1D8
  3
C1
350
1D9
  3
C2
350
1DA
  3
C3
350
1DB
  3
C4
350
1DC
  3
C5
350
1DD
  3
C6
350
1DE
  3
C7
350
1DF
  3
C8
350
1E0
  3
C9
350
1E1
  3
D0
350
1E2
  3
D1
350
1E3
  3
D2
350
1E4
  0
DICTIONARY
  5
1F4
102
{ACAD_REACTORS
330
195
102
}
330
195
100
AcDbDictionary
281
     1
  3
Standard
350
1F5
  0
DICTIONARY
  5
1B2
102
{ACAD_REACTORS
330
195
102
}
330
195
100
AcDbDictionary
281
     1
  3
2dWireframe
350
1B8
  3
3D Hidden
350
1BA
  3
3dWireframe
350
1B9
  3
Basic
350
1B7
  3
Brighten
350
1BE
  3
ColorChange
350
1C2
  3
Conceptual
350
1BB
  3
Dim
350
1BD
  3
Facepattern
350
1C1
  3
Flat
350
1B3
  3
FlatWithEdges
350
1B4
  3
Gouraud
350
1B5
  3
GouraudWithEdges
350
1B6
  3
Linepattern
350
1C0
  3
Realistic
350
1BC
  3
Thicken
350
1BF
  0
XRECORD
  5
217
102
{ACAD_REACTORS
330
195
102
}
330
195
100
AcDbXrecord
280
     1
 90
        1
330
1F5
  0
DICTIONARY
  5
20E
102
{ACAD_REACTORS
330
195
102
}
330
195
100
AcDbDictionary
281
     1
  3
CANNOSCALE
350
211
  3
CMLEADERSTYLE
350
210
  3
CTABLESTYLE
350
20F
  3
DIMASSOC
350
214
  3
INDEXCTL
350
213
  3
SORTENTS
350
212
  0
XRECORD
  5
218
102
{ACAD_REACTORS
330
195
102
}
330
195
100
AcDbXrecord
280
     1
  1
DWGPROPS COOKIE
  2

  3

  4

  6

  7

  8
user
  9

300
=
301
=
302
=
303
=
304
=
305
=
306
=
307
=
308
=
309
=
 40
0.0001853125
 41
2454910.5
 42
2457347.705207963
  1

 90
        0
  0
XRECORD
  5
20B
102
{ACAD_REACTORS
330
20A
102
}
330
20A
100
AcDbXrecord
280
     1
290
     1
  0
XRECORD
  5
20D
102
{ACAD_REACTORS
330
20C
102
}
330
20C
100
AcDbXrecord
280
     1
290
     1
  0
LAYOUT
  5
200
102
{ACAD_XDICTIONARY
360
21F
102
}
102
{ACAD_REACTORS
330
1F2
102
}
330
1F2
100
AcDbPlotSettings
  1

  2
CutePDF Writer
  4

  6

 40
0.0
 41
0.0
 42
0.0
 43
0.0
 44
0.0
 45
0.0
 46
0.0
 47
0.0
 48
0.0
 49
0.0
140
0.0
141
0.0
142
1.0
143
1.0
 70
  1712
 72
     0
 73
     0
 74
     0
  7

 75
     0
147
1.0
148
0.0
149
0.0
100
AcDbLayout
  1
Model
 70
     1
 71
     0
 10
0.0
 20
0.0
 11
12.0
 21
9.0
 12
0.0
 22
0.0
 32
0.0
 14
0.0
 24
0.0
 34
0.0
 15
0.0
 25
0.0
 35
0.0
146
0.0
 13
0.0
 23
0.0
 33
0.0
 16
1.0
 26
0.0
 36
0.0
 17
0.0
 27
1.0
 37
0.0
 76
     0
330
1FD
331
201
  0
LAYOUT
  5
1FC
102
{ACAD_XDICTIONARY
360
21D
102
}
102
{ACAD_REACTORS
330
1F2
102
}
330
1F2
100
AcDbPlotSettings
  1

  2
CutePDF Writer
  4

  6

 40
0.0
 41
0.0
 42
0.0
 43
0.0
 44
0.0
 45
0.0
 46
0.0
 47
0.0
 48
0.0
 49
0.0
140
0.0
141
0.0
142
1.0
143
1.0
 70
   688
 72
     0
 73
     0
 74
     5
  7

 75
    16
147
1.0
148
0.0
149
0.0
100
AcDbLayout
  1
Présentation1
 70
     1
 71
     1
 10
0.0
 20
0.0
 11
12.0
 21
9.0
 12
0.0
 22
0.0
 32
0.0
 14
1.000000000000000E+20
 24
1.000000000000000E+20
 34
1.000000000000000E+20
 15
-1.000000000000000E+20
 25
-1.000000000000000E+20
 35
-1.000000000000000E+20
146
0.0
 13
0.0
 23
0.0
 33
0.0
 16
1.0
 26
0.0
 36
0.0
 17
0.0
 27
1.0
 37
0.0
 76
     0
330
1F9
  0
MATERIAL
  5
1A2
102
{ACAD_XDICTIONARY
360
1A3
102
}
102
{ACAD_REACTORS
330
199
102
}
330
199
100
AcDbMaterial
  1
ByBlock
 72
     0
 43
0.0208333333333333
 43
0.0
 43
0.0
 43
0.0
 43
0.0
 43
0.0208333333333333
 43
0.0
 43
0.0
 43
0.0
 43
0.0
 43
1.0
 43
0.0
 43
0.0
 43
0.0
 43
0.0
 43
1.0
 77
     0
 47
0.0208333333333333
 47
0.0
 47
0.0
 47
0.0
 47
0.0
 47
0.0208333333333333
 47
0.0
 47
0.0
 47
0.0
 47
0.0
 47
1.0
 47
0.0
 47
0.0
 47
0.0
 47
0.0
 47
1.0
171
     0
 49
0.0208333333333333
 49
0.0
 49
0.0
 49
0.0
 49
0.0
 49
0.0208333333333333
 49
0.0
 49
0.0
 49
0.0
 49
0.0
 49
1.0
 49
0.0
 49
0.0
 49
0.0
 49
0.0
 49
1.0
175
     0
142
0.0208333333333333
142
0.0
142
0.0
142
0.0
142
0.0
142
0.0208333333333333
142
0.0
142
0.0
142
0.0
142
0.0
142
1.0
142
0.0
142
0.0
142
0.0
142
0.0
142
1.0
179
     0
144
0.0208333333333333
144
0.0
144
0.0
144
0.0
144
0.0
144
0.0208333333333333
144
0.0
144
0.0
144
0.0
144
0.0
144
1.0
144
0.0
144
0.0
144
0.0
144
0.0
144
1.0
147
0.0208333333333333
147
0.0
147
0.0
147
0.0
147
0.0
147
0.0208333333333333
147
0.0
147
0.0
147
0.0
147
0.0
147
1.0
147
0.0
147
0.0
147
0.0
147
0.0
147
1.0
  0
MATERIAL
  5
19A
102
{ACAD_XDICTIONARY
360
19B
102
}
102
{ACAD_REACTORS
330
199
102
}
330
199
100
AcDbMaterial
  1
ByLayer
 72
     0
 43
0.0208333333333333
 43
0.0
 43
0.0
 43
0.0
 43
0.0
 43
0.0208333333333333
 43
0.0
 43
0.0
 43
0.0
 43
0.0
 43
1.0
 43
0.0
 43
0.0
 43
0.0
 43
0.0
 43
1.0
 77
     0
 47
0.0208333333333333
 47
0.0
 47
0.0
 47
0.0
 47
0.0
 47
0.0208333333333333
 47
0.0
 47
0.0
 47
0.0
 47
0.0
 47
1.0
 47
0.0
 47
0.0
 47
0.0
 47
0.0
 47
1.0
171
     0
 49
0.0208333333333333
 49
0.0
 49
0.0
 49
0.0
 49
0.0
 49
0.0208333333333333
 49
0.0
 49
0.0
 49
0.0
 49
0.0
 49
1.0
 49
0.0
 49
0.0
 49
0.0
 49
0.0
 49
1.0
175
     0
142
0.0208333333333333
142
0.0
142
0.0
142
0.0
142
0.0
142
0.0208333333333333
142
0.0
142
0.0
142
0.0
142
0.0
142
1.0
142
0.0
142
0.0
142
0.0
142
0.0
142
1.0
179
     0
144
0.0208333333333333
144
0.0
144
0.0
144
0.0
144
0.0
144
0.0208333333333333
144
0.0
144
0.0
144
0.0
144
0.0
144
1.0
144
0.0
144
0.0
144
0.0
144
0.0
144
1.0
147
0.0208333333333333
147
0.0
147
0.0
147
0.0
147
0.0
147
0.0208333333333333
147
0.0
147
0.0
147
0.0
147
0.0
147
1.0
147
0.0
147
0.0
147
0.0
147
0.0
147
1.0
  0
MATERIAL
  5
1AA
102
{ACAD_XDICTIONARY
360
1AB
102
}
102
{ACAD_REACTORS
330
199
102
}
330
199
100
AcDbMaterial
  1
Global
 72
     0
 43
0.0208333333333333
 43
0.0
 43
0.0
 43
0.0
 43
0.0
 43
0.0208333333333333
 43
0.0
 43
0.0
 43
0.0
 43
0.0
 43
1.0
 43
0.0
 43
0.0
 43
0.0
 43
0.0
 43
1.0
 77
     0
 47
0.0208333333333333
 47
0.0
 47
0.0
 47
0.0
 47
0.0
 47
0.0208333333333333
 47
0.0
 47
0.0
 47
0.0
 47
0.0
 47
1.0
 47
0.0
 47
0.0
 47
0.0
 47
0.0
 47
1.0
171
     0
 49
0.0208333333333333
 49
0.0
 49
0.0
 49
0.0
 49
0.0
 49
0.0208333333333333
 49
0.0
 49
0.0
 49
0.0
 49
0.0
 49
1.0
 49
0.0
 49
0.0
 49
0.0
 49
0.0
 49
1.0
175
     0
142
0.0208333333333333
142
0.0
142
0.0
142
0.0
142
0.0
142
0.0208333333333333
142
0.0
142
0.0
142
0.0
142
0.0
142
1.0
142
0.0
142
0.0
142
0.0
142
0.0
142
1.0
179
     0
144
0.0208333333333333
144
0.0
144
0.0
144
0.0
144
0.0
144
0.0208333333333333
144
0.0
144
0.0
144
0.0
144
0.0
144
1.0
144
0.0
144
0.0
144
0.0
144
0.0
144
1.0
147
0.0208333333333333
147
0.0
147
0.0
147
0.0
147
0.0
147
0.0208333333333333
147
0.0
147
0.0
147
0.0
147
0.0
147
1.0
147
0.0
147
0.0
147
0.0
147
0.0
147
1.0
  0
MLEADERSTYLE
  5
1F7
102
{ACAD_REACTORS
330
1F6
102
}
330
1F6
100
AcDbMLeaderStyle
170
     2
171
     1
172
     0
 90
        2
 40
0.0
 41
0.0
173
     1
 91
-1056964608
340
1EB
 92
       -2
290
     1
 42
0.09
291
     1
 43
0.36
  3
Standard
 44
0.18
300

342
1E6
174
     1
178
     6
175
     1
176
     0
 93
-1056964608
 45
0.18
292
     0
297
     0
 46
0.18
 94
-1056964608
 47
1.0
 49
1.0
140
1.0
293
     1
141
0.0
294
     1
177
     0
142
1.0
295
     0
296
     0
143
0.125
1001
ACAD_MLEADERVER
1070
     2
  0
MLINESTYLE
  5
1F0
102
{ACAD_REACTORS
330
1EF
102
}
330
1EF
100
AcDbMlineStyle
  2
STANDARD
 70
     0
  3

 62
   256
 51
90.0
 52
90.0
 71
     2
 49
0.5
 62
   256
  6
BYLAYER
 49
-0.5
 62
   256
  6
BYLAYER
  0
ACDBPLACEHOLDER
  5
198
102
{ACAD_REACTORS
330
197
102
}
330
197
  0
SCALE
  5
1C4
102
{ACAD_REACTORS
330
1C3
102
}
330
1C3
100
AcDbScale
 70
     0
300
1:1
140
1.0
141
1.0
290
     1
  0
SCALE
  5
1C5
102
{ACAD_REACTORS
330
1C3
102
}
330
1C3
100
AcDbScale
 70
     0
300
1:2
140
1.0
141
2.0
290
     0
  0
SCALE
  5
1C6
102
{ACAD_REACTORS
330
1C3
102
}
330
1C3
100
AcDbScale
 70
     0
300
1:4
140
1.0
141
4.0
290
     0
  0
SCALE
  5
1C7
102
{ACAD_REACTORS
330
1C3
102
}
330
1C3
100
AcDbScale
 70
     0
300
1:5
140
1.0
141
5.0
290
     0
  0
SCALE
  5
1C8
102
{ACAD_REACTORS
330
1C3
102
}
330
1C3
100
AcDbScale
 70
     0
300
1:8
140
1.0
141
8.0
290
     0
  0
SCALE
  5
1C9
102
{ACAD_REACTORS
330
1C3
102
}
330
1C3
100
AcDbScale
 70
     0
300
1:10
140
1.0
141
10.0
290
     0
  0
SCALE
  5
1CA
102
{ACAD_REACTORS
330
1C3
102
}
330
1C3
100
AcDbScale
 70
     0
300
1:16
140
1.0
141
16.0
290
     0
  0
SCALE
  5
1CB
102
{ACAD_REACTORS
330
1C3
102
}
330
1C3
100
AcDbScale
 70
     0
300
1:20
140
1.0
141
20.0
290
     0
  0
SCALE
  5
1CC
102
{ACAD_REACTORS
330
1C3
102
}
330
1C3
100
AcDbScale
 70
     0
300
1:30
140
1.0
141
30.0
290
     0
  0
SCALE
  5
1CD
102
{ACAD_REACTORS
330
1C3
102
}
330
1C3
100
AcDbScale
 70
     0
300
1:40
140
1.0
141
40.0
290
     0
  0
SCALE
  5
1CE
102
{ACAD_REACTORS
330
1C3
102
}
330
1C3
100
AcDbScale
 70
     0
300
1:50
140
1.0
141
50.0
290
     0
  0
SCALE
  5
1CF
102
{ACAD_REACTORS
330
1C3
102
}
330
1C3
100
AcDbScale
 70
     0
300
1:100
140
1.0
141
100.0
290
     0
  0
SCALE
  5
1D0
102
{ACAD_REACTORS
330
1C3
102
}
330
1C3
100
AcDbScale
 70
     0
300
2:1
140
2.0
141
1.0
290
     0
  0
SCALE
  5
1D1
102
{ACAD_REACTORS
330
1C3
102
}
330
1C3
100
AcDbScale
 70
     0
300
4:1
140
4.0
141
1.0
290
     0
  0
SCALE
  5
1D2
102
{ACAD_REACTORS
330
1C3
102
}
330
1C3
100
AcDbScale
 70
     0
300
8:1
140
8.0
141
1.0
290
     0
  0
SCALE
  5
1D3
102
{ACAD_REACTORS
330
1C3
102
}
330
1C3
100
AcDbScale
 70
     0
300
10:1
140
10.0
141
1.0
290
     0
  0
SCALE
  5
1D4
102
{ACAD_REACTORS
330
1C3
102
}
330
1C3
100
AcDbScale
 70
     0
300
100:1
140
100.0
141
1.0
290
     0
  0
SCALE
  5
1D5
102
{ACAD_REACTORS
330
1C3
102
}
330
1C3
100
AcDbScale
 70
     0
300
1/128" = 1'-0"
140
0.0078125
141
12.0
290
     0
  0
SCALE
  5
1D6
102
{ACAD_REACTORS
330
1C3
102
}
330
1C3
100
AcDbScale
 70
     0
300
1/64" = 1'-0"
140
0.015625
141
12.0
290
     0
  0
SCALE
  5
1D7
102
{ACAD_REACTORS
330
1C3
102
}
330
1C3
100
AcDbScale
 70
     0
300
1/32" = 1'-0"
140
0.03125
141
12.0
290
     0
  0
SCALE
  5
1D8
102
{ACAD_REACTORS
330
1C3
102
}
330
1C3
100
AcDbScale
 70
     0
300
1/16" = 1'-0"
140
0.0625
141
12.0
290
     0
  0
SCALE
  5
1D9
102
{ACAD_REACTORS
330
1C3
102
}
330
1C3
100
AcDbScale
 70
     0
300
3/32" = 1'-0"
140
0.09375
141
12.0
290
     0
  0
SCALE
  5
1DA
102
{ACAD_REACTORS
330
1C3
102
}
330
1C3
100
AcDbScale
 70
     0
300
1/8" = 1'-0"
140
0.125
141
12.0
290
     0
  0
SCALE
  5
1DB
102
{ACAD_REACTORS
330
1C3
102
}
330
1C3
100
AcDbScale
 70
     0
300
3/16" = 1'-0"
140
0.1875
141
12.0
290
     0
  0
SCALE
  5
1DC
102
{ACAD_REACTORS
330
1C3
102
}
330
1C3
100
AcDbScale
 70
     0
300
1/4" = 1'-0"
140
0.25
141
12.0
290
     0
  0
SCALE
  5
1DD
102
{ACAD_REACTORS
330
1C3
102
}
330
1C3
100
AcDbScale
 70
     0
300
3/8" = 1'-0"
140
0.375
141
12.0
290
     0
  0
SCALE
  5
1DE
102
{ACAD_REACTORS
330
1C3
102
}
330
1C3
100
AcDbScale
 70
     0
300
1/2" = 1'-0"
140
0.5
141
12.0
290
     0
  0
SCALE
  5
1DF
102
{ACAD_REACTORS
330
1C3
102
}
330
1C3
100
AcDbScale
 70
     0
300
3/4" = 1'-0"
140
0.75
141
12.0
290
     0
  0
SCALE
  5
1E0
102
{ACAD_REACTORS
330
1C3
102
}
330
1C3
100
AcDbScale
 70
     0
300
1" = 1'-0"
140
1.0
141
12.0
290
     0
  0
SCALE
  5
1E1
102
{ACAD_REACTORS
330
1C3
102
}
330
1C3
100
AcDbScale
 70
     0
300
1-1/2" = 1'-0"
140
1.5
141
12.0
290
     0
  0
SCALE
  5
1E2
102
{ACAD_REACTORS
330
1C3
102
}
330
1C3
100
AcDbScale
 70
     0
300
3" = 1'-0"
140
3.0
141
12.0
290
     0
  0
SCALE
  5
1E3
102
{ACAD_REACTORS
330
1C3
102
}
330
1C3
100
AcDbScale
 70
     0
300
6" = 1'-0"
140
6.0
141
12.0
290
     0
  0
SCALE
  5
1E4
102
{ACAD_REACTORS
330
1C3
102
}
330
1C3
100
AcDbScale
 70
     0
300
1'-0" = 1'-0"
140
12.0
141
12.0
290
     0
  0
TABLESTYLE
  5
1F5
102
{ACAD_XDICTIONARY
360
215
102
}
102
{ACAD_REACTORS
330
1F4
102
}
330
1F4
100
AcDbTableStyle
  3
Standard
 70
     0
 71
     0
 40
0.06
 41
0.06
280
     0
281
     0
  7
STANDARD
140
0.18
170
     2
 62
     0
 63
     7
283
     0
274
    -2
284
     1
 64
     0
275
    -2
285
     1
 65
     0
276
    -2
286
     1
 66
     0
277
    -2
287
     1
 67
     0
278
    -2
288
     1
 68
     0
279
    -2
289
     1
 69
     0
  7
STANDARD
140
0.25
170
     5
 62
     0
 63
     7
283
     0
274
    -2
284
     1
 64
     0
275
    -2
285
     1
 65
     0
276
    -2
286
     1
 66
     0
277
    -2
287
     1
 67
     0
278
    -2
288
     1
 68
     0
279
    -2
289
     1
 69
     0
  7
STANDARD
140
0.18
170
     5
 62
     0
 63
     7
283
     0
274
    -2
284
     1
 64
     0
275
    -2
285
     1
 65
     0
276
    -2
286
     1
 66
     0
277
    -2
287
     1
 67
     0
278
    -2
288
     1
 68
     0
279
    -2
289
     1
 69
     0
  0
VISUALSTYLE
  5
1B8
102
{ACAD_REACTORS
330
1B2
102
}
330
1B2
100
AcDbVisualStyle
  2
2dWireframe
 70
     4
 71
     0
 72
     2
 73
     0
 90
        0
 40
-0.6
 41
-30.0
 62
     5
 63
     7
 74
     1
 91
        4
 64
     7
 65
   257
 75
     1
175
     1
 42
1.0
 92
        0
 66
   257
 43
1.0
 76
     1
 77
     6
 78
     2
 67
     7
 79
     5
170
     0
171
     0
290
     0
174
     0
 93
        1
 44
0.0
173
     0
291
     0
 45
0.0
1001
ACAD
1000
AcDbSavedByObjectVersion
1070
     0
  0
VISUALSTYLE
  5
1BA
102
{ACAD_REACTORS
330
1B2
102
}
330
1B2
100
AcDbVisualStyle
  2
3D Hidden
 70
     6
 71
     1
 72
     2
 73
     2
 90
        0
 40
-0.6
 41
-30.0
 62
     5
 63
     7
 74
     2
 91
        2
 64
     7
 65
   257
 75
     2
175
     1
 42
40.0
 92
        0
 66
   257
 43
1.0
 76
     1
 77
     6
 78
     2
 67
     7
 79
     3
170
     0
171
     0
290
     0
174
     0
 93
        1
 44
0.0
173
     0
291
     0
 45
0.0
1001
ACAD
1000
AcDbSavedByObjectVersion
1070
     0
  0
VISUALSTYLE
  5
1B9
102
{ACAD_REACTORS
330
1B2
102
}
330
1B2
100
AcDbVisualStyle
  2
3dWireframe
 70
     5
 71
     0
 72
     2
 73
     0
 90
        0
 40
-0.6
 41
-30.0
 62
     5
 63
     7
 74
     1
 91
        4
 64
     7
 65
   257
 75
     1
175
     1
 42
1.0
 92
        0
 66
   257
 43
1.0
 76
     1
 77
     6
 78
     2
 67
     7
 79
     5
170
     0
171
     0
290
     0
174
     0
 93
        1
 44
0.0
173
     0
291
     0
 45
0.0
1001
ACAD
1000
AcDbSavedByObjectVersion
1070
     0
  0
VISUALSTYLE
  5
1B7
102
{ACAD_REACTORS
330
1B2
102
}
330
1B2
100
AcDbVisualStyle
  2
Basic
 70
     7
 71
     1
 72
     0
 73
     1
 90
        0
 40
-0.6
 41
-30.0
 62
     5
 63
     7
 74
     0
 91
        4
 64
     7
 65
   257
 75
     1
175
     1
 42
1.0
 92
        8
 66
     7
 43
1.0
 76
     1
 77
     6
 78
     2
 67
     7
 79
     5
170
     0
171
     0
290
     0
174
     0
 93
        1
 44
0.0
173
     0
291
     1
 45
0.0
1001
ACAD
1000
AcDbSavedByObjectVersion
1070
     0
  0
VISUALSTYLE
  5
1BE
102
{ACAD_REACTORS
330
1B2
102
}
330
1B2
100
AcDbVisualStyle
  2
Brighten
 70
    12
 71
     2
 72
     2
 73
     0
 90
        0
 40
-0.6
 41
-30.0
 62
     5
 63
     7
 74
     1
 91
        4
 64
     7
 65
   257
 75
     1
175
     1
 42
1.0
 92
        8
 66
     7
 43
1.0
 76
     1
 77
     6
 78
     2
 67
     7
 79
     5
170
     0
171
     0
290
     0
174
     0
 93
        1
 44
50.0
173
     0
291
     1
 45
0.0
1001
ACAD
1000
AcDbSavedByObjectVersion
1070
     0
  0
VISUALSTYLE
  5
1C2
102
{ACAD_REACTORS
330
1B2
102
}
330
1B2
100
AcDbVisualStyle
  2
ColorChange
 70
    16
 71
     2
 72
     2
 73
     3
 90
        0
 40
-0.6
 41
-30.0
 62
     5
 63
     8
 74
     1
 91
        4
 64
     7
 65
   257
 75
     1
175
     1
 42
1.0
 92
        8
 66
     8
 43
1.0
 76
     1
 77
     6
 78
     2
 67
     7
 79
     5
170
     0
171
     0
290
     0
174
     0
 93
        1
 44
0.0
173
     0
291
     1
 45
0.0
1001
ACAD
1000
AcDbSavedByObjectVersion
1070
     0
  0
VISUALSTYLE
  5
1BB
102
{ACAD_REACTORS
330
1B2
102
}
330
1B2
100
AcDbVisualStyle
  2
Conceptual
 70
     9
 71
     3
 72
     2
 73
     0
 90
        0
 40
-0.6
 41
-30.0
 62
     5
 63
     7
 74
     2
 91
        2
 64
     7
 65
   257
 75
     1
175
     1
 42
40.0
 92
        8
 66
     7
 43
1.0
 76
     1
 77
     6
 78
     2
 67
     7
 79
     3
170
     0
171
     0
290
     0
174
     0
 93
        1
 44
0.0
173
     0
291
     0
 45
0.0
1001
ACAD
1000
AcDbSavedByObjectVersion
1070
     0
  0
VISUALSTYLE
  5
1BD
102
{ACAD_REACTORS
330
1B2
102
}
330
1B2
100
AcDbVisualStyle
  2
Dim
 70
    11
 71
     2
 72
     2
 73
     0
 90
        0
 40
-0.6
 41
-30.0
 62
     5
 63
     7
 74
     1
 91
        4
 64
     7
 65
   257
 75
     1
175
     1
 42
1.0
 92
        8
 66
     7
 43
1.0
 76
     1
 77
     6
 78
     2
 67
     7
 79
     5
170
     0
171
     0
290
     0
174
     0
 93
        1
 44
-50.0
173
     0
291
     1
 45
0.0
1001
ACAD
1000
AcDbSavedByObjectVersion
1070
     0
  0
VISUALSTYLE
  5
1C1
102
{ACAD_REACTORS
330
1B2
102
}
330
1B2
100
AcDbVisualStyle
  2
Facepattern
 70
    15
 71
     2
 72
     2
 73
     0
 90
        0
 40
-0.6
 41
-30.0
 62
     5
 63
     7
 74
     1
 91
        4
 64
     7
 65
   257
 75
     1
175
     1
 42
1.0
 92
        8
 66
     7
 43
1.0
 76
     1
 77
     6
 78
     2
 67
     7
 79
     5
170
     0
171
     0
290
     0
174
     0
 93
        1
 44
0.0
173
     0
291
     1
 45
0.0
1001
ACAD
1000
AcDbSavedByObjectVersion
1070
     0
  0
VISUALSTYLE
  5
1B3
102
{ACAD_REACTORS
330
1B2
102
}
330
1B2
100
AcDbVisualStyle
  2
Flat
 70
     0
 71
     2
 72
     1
 73
     1
 90
        2
 40
-0.6
 41
30.0
 62
     5
 63
     7
 74
     0
 91
        4
 64
     7
 65
   257
 75
     1
175
     1
 42
1.0
 92
        8
 66
     7
 43
1.0
 76
     1
 77
     6
 78
     2
 67
     7
 79
     5
170
     0
171
     0
290
     0
174
     0
 93
       13
 44
0.0
173
     0
291
     1
 45
0.0
1001
ACAD
1000
AcDbSavedByObjectVersion
1070
     0
  0
VISUALSTYLE
  5
1B4
102
{ACAD_REACTORS
330
1B2
102
}
330
1B2
100
AcDbVisualStyle
  2
FlatWithEdges
 70
     1
 71
     2
 72
     1
 73
     1
 90
        2
 40
-0.6
 41
30.0
 62
     5
 63
     7
 74
     1
 91
        4
 64
     7
 65
   257
 75
     1
175
     1
 42
1.0
 92
        0
 66
   257
 43
1.0
 76
     1
 77
     6
 78
     2
 67
     7
 79
     5
170
     0
171
     0
290
     0
174
     0
 93
       13
 44
0.0
173
     0
291
     1
 45
0.0
1001
ACAD
1000
AcDbSavedByObjectVersion
1070
     0
  0
VISUALSTYLE
  5
1B5
102
{ACAD_REACTORS
330
1B2
102
}
330
1B2
100
AcDbVisualStyle
  2
Gouraud
 70
     2
 71
     2
 72
     2
 73
     1
 90
        2
 40
-0.6
 41
30.0
 62
     5
 63
     7
 74
     0
 91
        4
 64
     7
 65
   257
 75
     1
175
     1
 42
1.0
 92
        0
 66
     7
 43
1.0
 76
     1
 77
     6
 78
     2
 67
     7
 79
     5
170
     0
171
     0
290
     0
174
     0
 93
       13
 44
0.0
173
     0
291
     1
 45
0.0
1001
ACAD
1000
AcDbSavedByObjectVersion
1070
     0
  0
VISUALSTYLE
  5
1B6
102
{ACAD_REACTORS
330
1B2
102
}
330
1B2
100
AcDbVisualStyle
  2
GouraudWithEdges
 70
     3
 71
     2
 72
     2
 73
     1
 90
        2
 40
-0.6
 41
30.0
 62
     5
 63
     7
 74
     1
 91
        4
 64
     7
 65
   257
 75
     1
175
     1
 42
1.0
 92
        0
 66
   257
 43
1.0
 76
     1
 77
     6
 78
     2
 67
     7
 79
     5
170
     0
171
     0
290
     0
174
     0
 93
       13
 44
0.0
173
     0
291
     1
 45
0.0
1001
ACAD
1000
AcDbSavedByObjectVersion
1070
     0
  0
VISUALSTYLE
  5
1C0
102
{ACAD_REACTORS
330
1B2
102
}
330
1B2
100
AcDbVisualStyle
  2
Linepattern
 70
    14
 71
     2
 72
     2
 73
     0
 90
        0
 40
-0.6
 41
-30.0
 62
     5
 63
     7
 74
     1
 91
        4
 64
     7
 65
   257
 75
     7
175
     7
 42
1.0
 92
        8
 66
     7
 43
1.0
 76
     1
 77
     6
 78
     2
 67
     7
 79
     5
170
     0
171
     0
290
     0
174
     0
 93
        1
 44
0.0
173
     0
291
     1
 45
0.0
1001
ACAD
1000
AcDbSavedByObjectVersion
1070
     0
  0
VISUALSTYLE
  5
1BC
102
{ACAD_REACTORS
330
1B2
102
}
330
1B2
100
AcDbVisualStyle
  2
Realistic
 70
     8
 71
     2
 72
     2
 73
     0
 90
        0
 40
-0.6
 41
-30.0
 62
     5
 63
     7
 74
     1
 91
        0
 64
     7
 65
   257
 75
     1
175
     1
 42
1.0
 92
        8
 66
     8
 43
1.0
 76
     1
 77
     6
 78
     2
 67
     7
 79
     5
170
     0
171
     0
290
     0
174
     0
 93
       13
 44
0.0
173
     0
291
     0
 45
0.0
1001
ACAD
1000
AcDbSavedByObjectVersion
1070
     0
  0
VISUALSTYLE
  5
1BF
102
{ACAD_REACTORS
330
1B2
102
}
330
1B2
100
AcDbVisualStyle
  2
Thicken
 70
    13
 71
     2
 72
     2
 73
     0
 90
        0
 40
-0.6
 41
-30.0
 62
     5
 63
     7
 74
     1
 91
        4
 64
     7
 65
   257
 75
     1
175
     1
 42
1.0
 92
       12
 66
     7
 43
1.0
 76
     1
 77
     6
 78
     2
 67
     7
 79
     5
170
     0
171
     0
290
     0
174
     0
 93
        1
 44
0.0
173
     0
291
     1
 45
0.0
1001
ACAD
1000
AcDbSavedByObjectVersion
1070
     0
  0
DICTIONARYVAR
  5
211
102
{ACAD_REACTORS
330
20E
102
}
330
20E
100
DictionaryVariables
280
     0
  1
1:1
  0
DICTIONARYVAR
  5
210
102
{ACAD_REACTORS
330
20E
102
}
330
20E
100
DictionaryVariables
280
     0
  1
STANDARD
  0
DICTIONARYVAR
  5
20F
102
{ACAD_REACTORS
330
20E
102
}
330
20E
100
DictionaryVariables
280
     0
  1
STANDARD
  0
DICTIONARYVAR
  5
214
102
{ACAD_REACTORS
330
20E
102
}
330
20E
100
DictionaryVariables
280
     0
  1
1
  0
DICTIONARYVAR
  5
213
102
{ACAD_REACTORS
330
20E
102
}
330
20E
100
DictionaryVariables
280
     0
  1
0
  0
DICTIONARYVAR
  5
212
102
{ACAD_REACTORS
330
20E
102
}
330
20E
100
DictionaryVariables
280
     0
  1
127
  0
DICTIONARY
  5
21F
330
200
100
AcDbDictionary
280
     1
281
     1
  3
ACAD_XREC_ROUNDTRIP
360
220
  0
DICTIONARY
  5
21D
330
1FC
100
AcDbDictionary
280
     1
281
     1
  3
ACAD_XREC_ROUNDTRIP
360
21E
  0
DICTIONARY
  5
1A3
330
1A2
100
AcDbDictionary
280
     1
281
     1
  3
ACAD_XREC_ROUNDTRIP
360
21A
  3
BUMPTILE
360
1A5
  3
DIFFUSETILE
360
1A4
  3
OPACITYTILE
360
1A8
  3
REFLECTIONTILE
360
1A7
  3
REFRACTIONTILE
360
1A9
  3
SPECULARTILE
360
1A6
  0
DICTIONARY
  5
19B
330
19A
100
AcDbDictionary
280
     1
281
     1
  3
ACAD_XREC_ROUNDTRIP
360
219
  3
BUMPTILE
360
19D
  3
DIFFUSETILE
360
19C
  3
OPACITYTILE
360
1A0
  3
REFLECTIONTILE
360
19F
  3
REFRACTIONTILE
360
1A1
  3
SPECULARTILE
360
19E
  0
DICTIONARY
  5
1AB
330
1AA
100
AcDbDictionary
280
     1
281
     1
  3
ACAD_XREC_ROUNDTRIP
360
21B
  3
BUMPTILE
360
1AD
  3
DIFFUSETILE
360
1AC
  3
OPACITYTILE
360
1B0
  3
REFLECTIONTILE
360
1AF
  3
REFRACTIONTILE
360
1B1
  3
SPECULARTILE
360
1AE
  0
DICTIONARY
  5
215
330
1F5
100
AcDbDictionary
280
     1
281
     1
  3
ACAD_ROUNDTRIP_2008_TABLESTYLE_CELLSTYLEMAP
360
216
  3
ACAD_XREC_ROUNDTRIP
360
21C
  0
XRECORD
  5
220
102
{ACAD_REACTORS
330
21F
102
}
330
21F
100
AcDbXrecord
280
     1
102
SHADEPLOT
 70
     0
102
SHADEPLOTRESLEVEL
 70
     2
102
SHADEPLOTCUSTOMDPI
 70
   300
  0
XRECORD
  5
21E
102
{ACAD_REACTORS
330
21D
102
}
330
21D
100
AcDbXrecord
280
     1
102
SHADEPLOT
 70
     0
102
SHADEPLOTRESLEVEL
 70
     2
102
SHADEPLOTCUSTOMDPI
 70
   300
  0
XRECORD
  5
21A
102
{ACAD_REACTORS
330
1A3
102
}
330
1A3
100
AcDbXrecord
280
     1
102
MATERIAL
148
0.0
149
0.0
149
0.0
 93
        0
 94
      127
282
     0
 72
     0
 77
     0
171
     0
175
     0
179
     0
273
     0
  0
XRECORD
  5
1A5
102
{ACAD_REACTORS
330
1A3
102
}
330
1A3
100
AcDbXrecord
280
     1
270
     1
271
     1
  0
XRECORD
  5
1A4
102
{ACAD_REACTORS
330
1A3
102
}
330
1A3
100
AcDbXrecord
280
     1
270
     1
271
     1
  0
XRECORD
  5
1A8
102
{ACAD_REACTORS
330
1A3
102
}
330
1A3
100
AcDbXrecord
280
     1
270
     1
271
     1
  0
XRECORD
  5
1A7
102
{ACAD_REACTORS
330
1A3
102
}
330
1A3
100
AcDbXrecord
280
     1
270
     1
271
     1
  0
XRECORD
  5
1A9
102
{ACAD_REACTORS
330
1A3
102
}
330
1A3
100
AcDbXrecord
280
     1
270
     1
271
     1
  0
XRECORD
  5
1A6
102
{ACAD_REACTORS
330
1A3
102
}
330
1A3
100
AcDbXrecord
280
     1
270
     1
271
     1
  0
XRECORD
  5
219
102
{ACAD_REACTORS
330
19B
102
}
330
19B
100
AcDbXrecord
280
     1
102
MATERIAL
148
0.0
149
0.0
149
0.0
 93
        0
 94
      127
282
     0
 72
     0
 77
     0
171
     0
175
     0
179
     0
273
     0
  0
XRECORD
  5
19D
102
{ACAD_REACTORS
330
19B
102
}
330
19B
100
AcDbXrecord
280
     1
270
     1
271
     1
  0
XRECORD
  5
19C
102
{ACAD_REACTORS
330
19B
102
}
330
19B
100
AcDbXrecord
280
     1
270
     1
271
     1
  0
XRECORD
  5
1A0
102
{ACAD_REACTORS
330
19B
102
}
330
19B
100
AcDbXrecord
280
     1
270
     1
271
     1
  0
XRECORD
  5
19F
102
{ACAD_REACTORS
330
19B
102
}
330
19B
100
AcDbXrecord
280
     1
270
     1
271
     1
  0
XRECORD
  5
1A1
102
{ACAD_REACTORS
330
19B
102
}
330
19B
100
AcDbXrecord
280
     1
270
     1
271
     1
  0
XRECORD
  5
19E
102
{ACAD_REACTORS
330
19B
102
}
330
19B
100
AcDbXrecord
280
     1
270
     1
271
     1
  0
XRECORD
  5
21B
102
{ACAD_REACTORS
330
1AB
102
}
330
1AB
100
AcDbXrecord
280
     1
102
MATERIAL
148
0.0
149
0.0
149
0.0
 93
        0
 94
      127
282
     0
 72
     0
 77
     0
171
     0
175
     0
179
     0
273
     0
  0
XRECORD
  5
1AD
102
{ACAD_REACTORS
330
1AB
102
}
330
1AB
100
AcDbXrecord
280
     1
270
     1
271
     1
  0
XRECORD
  5
1AC
102
{ACAD_REACTORS
330
1AB
102
}
330
1AB
100
AcDbXrecord
280
     1
270
     1
271
     1
  0
XRECORD
  5
1B0
102
{ACAD_REACTORS
330
1AB
102
}
330
1AB
100
AcDbXrecord
280
     1
270
     1
271
     1
  0
XRECORD
  5
1AF
102
{ACAD_REACTORS
330
1AB
102
}
330
1AB
100
AcDbXrecord
280
     1
270
     1
271
     1
  0
XRECORD
  5
1B1
102
{ACAD_REACTORS
330
1AB
102
}
330
1AB
100
AcDbXrecord
280
     1
270
     1
271
     1
  0
XRECORD
  5
1AE
102
{ACAD_REACTORS
330
1AB
102
}
330
1AB
100
AcDbXrecord
280
     1
270
     1
271
     1
  0
CELLSTYLEMAP
  5
216
102
{ACAD_REACTORS
330
215
102
}
330
215
100
AcDbCellStyleMap
 90
        3
300
CELLSTYLE
  1
TABLEFORMAT_BEGIN
 90
        5
170
     1
 91
        0
 92
    32768
 62
   257
 93
        1
300
CONTENTFORMAT
  1
CONTENTFORMAT_BEGIN
 90
        0
 91
        0
 92
      512
 93
        0
300

 40
0.0
140
1.0
 94
        5
 62
     0
340
1E6
144
0.25
309
CONTENTFORMAT_END
171
     0
 94
        0
309
TABLEFORMAT_END
  1
CELLSTYLE_BEGIN
 90
        1
 91
        1
300
_TITLE
309
CELLSTYLE_END
300
CELLSTYLE
  1
TABLEFORMAT_BEGIN
 90
        5
170
     1
 91
        0
 92
        0
 62
   257
 93
        1
300
CONTENTFORMAT
  1
CONTENTFORMAT_BEGIN
 90
        0
 91
        0
 92
      512
 93
        0
300

 40
0.0
140
1.0
 94
        5
 62
     0
340
1E6
144
0.18
309
CONTENTFORMAT_END
171
     0
 94
        0
309
TABLEFORMAT_END
  1
CELLSTYLE_BEGIN
 90
        2
 91
        1
300
_HEADER
309
CELLSTYLE_END
300
CELLSTYLE
  1
TABLEFORMAT_BEGIN
 90
        5
170
     1
 91
        0
 92
        0
 62
   257
 93
        1
300
CONTENTFORMAT
  1
CONTENTFORMAT_BEGIN
 90
        0
 91
        0
 92
      512
 93
        0
300

 40
0.0
140
1.0
 94
        2
 62
     0
340
1E6
144
0.18
309
CONTENTFORMAT_END
171
     0
 94
        0
309
TABLEFORMAT_END
  1
CELLSTYLE_BEGIN
 90
        3
 91
        2
300
_DATA
309
CELLSTYLE_END
  0
XRECORD
  5
21C
102
{ACAD_REACTORS
330
215
102
}
330
215
100
AcDbXrecord
280
     1
102
ACAD_ROUNDTRIP_PRE2007_TABLESTYLE
 90
      512
 91
        0
  1

 92
      512
 93
        0
  2

 94
      512
 95
        0
  3

  0
ENDSEC
  0
EOF
