  0
SECTION
  2
HEADER
  9
$ACADVER
  1
AC1015
  9
$ACADMAINTVER
 70
    20
  9
$DWGCODEPAGE
  3
ANSI_1252
  9
$INSBASE
 10
0.0
 20
0.0
 30
0.0
  9
$EXTMIN
 10
-200.0122060999416
 20
-200.0122060999418
 30
-0.0015258207003583
  9
$EXTMAX
 10
200.0122079625867
 20
200.0122079625869
 30
0.0000000349246037
  9
$LIMMIN
 10
0.0
 20
0.0
  9
$LIMMAX
 10
12.0
 20
9.0
  9
$ORTHOMODE
 70
     0
  9
$REGENMODE
 70
     1
  9
$FILLMODE
 70
     1
  9
$QTEXTMODE
 70
     0
  9
$MIRRTEXT
 70
     1
  9
$LTSCALE
 40
1.0
  9
$ATTMODE
 70
     1
  9
$TEXTSIZE
 40
0.2
  9
$TRACEWID
 40
0.05
  9
$TEXTSTYLE
  7
STANDARD
  9
$CLAYER
  8
0
  9
$CELTYPE
  6
ByLayer
  9
$CECOLOR
 62
   256
  9
$CELTSCALE
 40
1.0
  9
$DISPSILH
 70
     0
  9
$DIMSCALE
 40
1.0
  9
$DIMASZ
 40
0.18
  9
$DIMEXO
 40
0.0625
  9
$DIMDLI
 40
0.38
  9
$DIMRND
 40
0.0
  9
$DIMDLE
 40
0.0
  9
$DIMEXE
 40
0.18
  9
$DIMTP
 40
0.0
  9
$DIMTM
 40
0.0
  9
$DIMTXT
 40
0.18
  9
$DIMCEN
 40
0.09
  9
$DIMTSZ
 40
0.0
  9
$DIMTOL
 70
     0
  9
$DIMLIM
 70
     0
  9
$DIMTIH
 70
     1
  9
$DIMTOH
 70
     1
  9
$DIMSE1
 70
     0
  9
$DIMSE2
 70
     0
  9
$DIMTAD
 70
     0
  9
$DIMZIN
 70
     0
  9
$DIMBLK
  1

  9
$DIMASO
 70
     1
  9
$DIMSHO
 70
     1
  9
$DIMPOST
  1

  9
$DIMAPOST
  1

  9
$DIMALT
 70
     0
  9
$DIMALTD
 70
     2
  9
$DIMALTF
 40
25.4
  9
$DIMLFAC
 40
1.0
  9
$DIMTOFL
 70
     0
  9
$DIMTVP
 40
0.0
  9
$DIMTIX
 70
     0
  9
$DIMSOXD
 70
     0
  9
$DIMSAH
 70
     0
  9
$DIMBLK1
  1

  9
$DIMBLK2
  1

  9
$DIMSTYLE
  2
STANDARD
  9
$DIMCLRD
 70
     0
  9
$DIMCLRE
 70
     0
  9
$DIMCLRT
 70
     0
  9
$DIMTFAC
 40
1.0
  9
$DIMGAP
 40
0.09
  9
$DIMJUST
 70
     0
  9
$DIMSD1
 70
     0
  9
$DIMSD2
 70
     0
  9
$DIMTOLJ
 70
     1
  9
$DIMTZIN
 70
     0
  9
$DIMALTZ
 70
     0
  9
$DIMALTTZ
 70
     0
  9
$DIMUPT
 70
     0
  9
$DIMDEC
 70
     4
  9
$DIMTDEC
 70
     4
  9
$DIMALTU
 70
     2
  9
$DIMALTTD
 70
     2
  9
$DIMTXSTY
  7
STANDARD
  9
$DIMAUNIT
 70
     0
  9
$DIMADEC
 70
     0
  9
$DIMALTRND
 40
0.0
  9
$DIMAZIN
 70
     0
  9
$DIMDSEP
 70
    46
  9
$DIMATFIT
 70
     3
  9
$DIMFRAC
 70
     0
  9
$DIMLDRBLK
  1

  9
$DIMLUNIT
 70
     2
  9
$DIMLWD
 70
    -2
  9
$DIMLWE
 70
    -2
  9
$DIMTMOVE
 70
     0
  9
$LUNITS
 70
     2
  9
$LUPREC
 70
     4
  9
$SKETCHINC
 40
0.1
  9
$FILLETRAD
 40
0.5
  9
$AUNITS
 70
     0
  9
$AUPREC
 70
     0
  9
$MENU
  1
.
  9
$ELEVATION
 40
0.0
  9
$PELEVATION
 40
0.0
  9
$THICKNESS
 40
0.0
  9
$LIMCHECK
 70
     0
  9
$CHAMFERA
 40
0.5
  9
$CHAMFERB
 40
0.5
  9
$CHAMFERC
 40
0.0
  9
$CHAMFERD
 40
0.0
  9
$SKPOLY
 70
     0
  9
$TDCREATE
 40
2454910.500000000
  9
$TDUCREATE
 40
2454910.458333334
  9
$TDUPDATE
 40
2457348.698357789
  9
$TDUUPDATE
 40
2457348.656691123
  9
$TDINDWG
 40
0.0003427778
  9
$TDUSRTIMER
 40
0.0003426620
  9
$USRTIMER
 70
     1
  9
$ANGBASE
 50
0.0
  9
$ANGDIR
 70
     0
  9
$PDMODE
 70
     0
  9
$PDSIZE
 40
0.0
  9
$PLINEWID
 40
0.0
  9
$SPLFRAME
 70
     0
  9
$SPLINETYPE
 70
     6
  9
$SPLINESEGS
 70
     8
  9
$HANDSEED
  5
30D
  9
$SURFTAB1
 70
     6
  9
$SURFTAB2
 70
     6
  9
$SURFTYPE
 70
     6
  9
$SURFU
 70
     6
  9
$SURFV
 70
     6
  9
$UCSBASE
  2

  9
$UCSNAME
  2

  9
$UCSORG
 10
0.0
 20
0.0
 30
0.0
  9
$UCSXDIR
 10
1.0
 20
0.0
 30
0.0
  9
$UCSYDIR
 10
0.0
 20
1.0
 30
0.0
  9
$UCSORTHOREF
  2

  9
$UCSORTHOVIEW
 70
     0
  9
$UCSORGTOP
 10
0.0
 20
0.0
 30
0.0
  9
$UCSORGBOTTOM
 10
0.0
 20
0.0
 30
0.0
  9
$UCSORGLEFT
 10
0.0
 20
0.0
 30
0.0
  9
$UCSORGRIGHT
 10
0.0
 20
0.0
 30
0.0
  9
$UCSORGFRONT
 10
0.0
 20
0.0
 30
0.0
  9
$UCSORGBACK
 10
0.0
 20
0.0
 30
0.0
  9
$PUCSBASE
  2

  9
$PUCSNAME
  2

  9
$PUCSORG
 10
0.0
 20
0.0
 30
0.0
  9
$PUCSXDIR
 10
1.0
 20
0.0
 30
0.0
  9
$PUCSYDIR
 10
0.0
 20
1.0
 30
0.0
  9
$PUCSORTHOREF
  2

  9
$PUCSORTHOVIEW
 70
     0
  9
$PUCSORGTOP
 10
0.0
 20
0.0
 30
0.0
  9
$PUCSORGBOTTOM
 10
0.0
 20
0.0
 30
0.0
  9
$PUCSORGLEFT
 10
0.0
 20
0.0
 30
0.0
  9
$PUCSORGRIGHT
 10
0.0
 20
0.0
 30
0.0
  9
$PUCSORGFRONT
 10
0.0
 20
0.0
 30
0.0
  9
$PUCSORGBACK
 10
0.0
 20
0.0
 30
0.0
  9
$USERI1
 70
     0
  9
$USERI2
 70
     0
  9
$USERI3
 70
     0
  9
$USERI4
 70
     0
  9
$USERI5
 70
     0
  9
$USERR1
 40
0.0
  9
$USERR2
 40
0.0
  9
$USERR3
 40
0.0
  9
$USERR4
 40
0.0
  9
$USERR5
 40
0.0
  9
$WORLDVIEW
 70
     1
  9
$SHADEDGE
 70
     3
  9
$SHADEDIF
 70
    70
  9
$TILEMODE
 70
     1
  9
$MAXACTVP
 70
    64
  9
$PINSBASE
 10
0.0
 20
0.0
 30
0.0
  9
$PLIMCHECK
 70
     0
  9
$PEXTMIN
 10
1.000000000000000E+20
 20
1.000000000000000E+20
 30
1.000000000000000E+20
  9
$PEXTMAX
 10
-1.000000000000000E+20
 20
-1.000000000000000E+20
 30
-1.000000000000000E+20
  9
$PLIMMIN
 10
0.0
 20
0.0
  9
$PLIMMAX
 10
12.0
 20
9.0
  9
$UNITMODE
 70
     0
  9
$VISRETAIN
 70
     1
  9
$PLINEGEN
 70
     0
  9
$PSLTSCALE
 70
     1
  9
$TREEDEPTH
 70
  3020
  9
$CMLSTYLE
  2
Standard
  9
$CMLJUST
 70
     0
  9
$CMLSCALE
 40
1.0
  9
$PROXYGRAPHICS
 70
     1
  9
$MEASUREMENT
 70
     0
  9
$CELWEIGHT
370
    -1
  9
$ENDCAPS
280
     0
  9
$JOINSTYLE
280
     0
  9
$LWDISPLAY
290
     0
  9
$INSUNITS
 70
     0
  9
$HYPERLINKBASE
  1

  9
$STYLESHEET
  1

  9
$XEDIT
290
     1
  9
$CEPSNTYPE
380
     0
  9
$PSTYLEMODE
290
     1
  9
$FINGERPRINTGUID
  2
{2416DFB5-C759-4B59-A7CC-39862690DA1F}
  9
$VERSIONGUID
  2
{6F6D61C7-5949-43FD-A81F-F1EAD66B57B6}
  9
$EXTNAMES
290
     1
  9
$PSVPSCALE
 40
0.0
  9
$OLESTARTUP
290
     0
  0
ENDSEC
  0
SECTION
  2
CLASSES
  0
CLASS
  1
ACDBDICTIONARYWDFLT
  2
AcDbDictionaryWithDefault
  3
ObjectDBX Classes
 90
        0
280
     0
281
     0
  0
CLASS
  1
MATERIAL
  2
AcDbMaterial
  3
ObjectDBX Classes
 90
     1153
280
     0
281
     0
  0
CLASS
  1
VISUALSTYLE
  2
AcDbVisualStyle
  3
ObjectDBX Classes
 90
     4095
280
     0
281
     0
  0
CLASS
  1
SCALE
  2
AcDbScale
  3
ObjectDBX Classes
 90
     1153
280
     0
281
     0
  0
CLASS
  1
TABLESTYLE
  2
AcDbTableStyle
  3
ObjectDBX Classes
 90
     4095
280
     0
281
     0
  0
CLASS
  1
MLEADERSTYLE
  2
AcDbMLeaderStyle
  3
ACDB_MLEADERSTYLE_CLASS
 90
     4095
280
     0
281
     0
  0
CLASS
  1
DICTIONARYVAR
  2
AcDbDictionaryVar
  3
ObjectDBX Classes
 90
        0
280
     0
281
     0
  0
CLASS
  1
CELLSTYLEMAP
  2
AcDbCellStyleMap
  3
ObjectDBX Classes
 90
     1152
280
     0
281
     0
  0
CLASS
  1
ACDBPLACEHOLDER
  2
AcDbPlaceHolder
  3
ObjectDBX Classes
 90
        0
280
     0
281
     0
  0
CLASS
  1
LAYOUT
  2
AcDbLayout
  3
ObjectDBX Classes
 90
        0
280
     0
281
     0
  0
ENDSEC
  0
SECTION
  2
TABLES
  0
TABLE
  2
VPORT
  5
277
330
0
100
AcDbSymbolTable
 70
     1
  0
VPORT
  5
2E7
330
277
100
AcDbSymbolTableRecord
100
AcDbViewportTableRecord
  2
*ACTIVE
 70
     0
 10
0.0
 20
0.0
 11
1.0
 21
1.0
 12
3.769323359020518
 22
-55.4422507277834
 13
0.0
 23
0.0
 14
0.5
 24
0.5
 15
0.5
 25
0.5
 16
0.0
 26
0.0
 36
1.0
 17
0.0
 27
0.0
 37
0.0
 40
812.2892445669913
 41
2.520958083832335
 42
50.0
 43
0.0
 44
0.0
 50
0.0
 51
0.0
 71
     0
 72
   100
 73
     1
 74
     3
 75
     0
 76
     0
 77
     0
 78
     0
281
     0
 65
     1
110
0.0
120
0.0
130
0.0
111
1.0
121
0.0
131
0.0
112
0.0
122
1.0
132
0.0
 79
     0
146
0.0
  0
ENDTAB
  0
TABLE
  2
LTYPE
  5
274
330
0
100
AcDbSymbolTable
 70
     2
  0
LTYPE
  5
2D1
330
274
100
AcDbSymbolTableRecord
100
AcDbLinetypeTableRecord
  2
ByBlock
 70
     0
  3

 72
    65
 73
     0
 40
0.0
  0
LTYPE
  5
2D2
330
274
100
AcDbSymbolTableRecord
100
AcDbLinetypeTableRecord
  2
ByLayer
 70
     0
  3

 72
    65
 73
     0
 40
0.0
  0
LTYPE
  5
2D3
330
274
100
AcDbSymbolTableRecord
100
AcDbLinetypeTableRecord
  2
CONTINUOUS
 70
     0
  3
Solid line
 72
    65
 73
     0
 40
0.0
  0
LTYPE
  5
2E8
330
274
100
AcDbSymbolTableRecord
100
AcDbLinetypeTableRecord
  2
CONTINUOUS2
 70
     0
  3
Solid Line
 72
    65
 73
     0
 40
0.0
  0
ENDTAB
  0
TABLE
  2
LAYER
  5
271
330
0
100
AcDbSymbolTable
 70
     4
  0
LAYER
  5
2CB
102
{ACAD_XDICTIONARY
360
2F2
102
}
330
271
100
AcDbSymbolTableRecord
100
AcDbLayerTableRecord
  2
0
 70
     0
 62
     7
  6
CONTINUOUS
370
    -3
390
27E
  0
LAYER
  5
2E9
102
{ACAD_XDICTIONARY
360
2F4
102
}
330
271
100
AcDbSymbolTableRecord
100
AcDbLayerTableRecord
  2
COUCHE_1
 70
     0
 62
    18
  6
CONTINUOUS
370
    -3
390
27E
  0
LAYER
  5
2EA
102
{ACAD_XDICTIONARY
360
2F6
102
}
330
271
100
AcDbSymbolTableRecord
100
AcDbLayerTableRecord
  2
LAYER_1
 70
     0
 62
   174
  6
CONTINUOUS
370
    -3
390
27E
  0
LAYER
  5
2EB
102
{ACAD_XDICTIONARY
360
2F8
102
}
330
271
100
AcDbSymbolTableRecord
100
AcDbLayerTableRecord
  2
LAYER_2
 70
     0
 62
     3
  6
CONTINUOUS
370
    -3
390
27E
  0
ENDTAB
  0
TABLE
  2
STYLE
  5
272
330
0
100
AcDbSymbolTable
 70
     2
  0
STYLE
  5
2CC
330
272
100
AcDbSymbolTableRecord
100
AcDbTextStyleTableRecord
  2
STANDARD
 70
     0
 40
0.0
 41
1.0
 50
0.0
 71
     0
 42
0.2
  3
txt
  4

  0
STYLE
  5
2D0
330
272
100
AcDbSymbolTableRecord
100
AcDbTextStyleTableRecord
  2
Annotative
 70
     0
 40
0.0
 41
1.0
 50
0.0
 71
     0
 42
0.2
  3
txt
  4

1001
AcadAnnotative
1000
AnnotativeData
1002
{
1070
     1
1070
     1
1002
}
  0
ENDTAB
  0
TABLE
  2
VIEW
  5
275
330
0
100
AcDbSymbolTable
 70
     0
  0
ENDTAB
  0
TABLE
  2
UCS
  5
276
330
0
100
AcDbSymbolTable
 70
     0
  0
ENDTAB
  0
TABLE
  2
APPID
  5
278
330
0
100
AcDbSymbolTable
 70
     3
  0
APPID
  5
2CD
330
278
100
AcDbSymbolTableRecord
100
AcDbRegAppTableRecord
  2
ACAD
 70
     0
  0
APPID
  5
2D4
330
278
100
AcDbSymbolTableRecord
100
AcDbRegAppTableRecord
  2
AcadAnnotative
 70
     0
  0
APPID
  5
2DE
330
278
100
AcDbSymbolTableRecord
100
AcDbRegAppTableRecord
  2
ACAD_MLEADERVER
 70
     0
  0
ENDTAB
  0
TABLE
  2
DIMSTYLE
  5
279
330
0
100
AcDbSymbolTable
 70
     2
100
AcDbDimStyleTable
 71
     0
  0
DIMSTYLE
105
2CE
330
279
100
AcDbSymbolTableRecord
100
AcDbDimStyleTableRecord
  2
STANDARD
 70
     0
279
     2
340
2CC
  0
DIMSTYLE
105
2CF
330
279
100
AcDbSymbolTableRecord
100
AcDbDimStyleTableRecord
  2
Annotative
 70
     0
340
2CC
1001
AcadAnnotative
1000
AnnotativeData
1002
{
1070
     1
1070
     1
1002
}
  0
ENDTAB
  0
TABLE
  2
BLOCK_RECORD
  5
270
330
0
100
AcDbSymbolTable
 70
     2
  0
BLOCK_RECORD
  5
2E3
330
270
100
AcDbSymbolTableRecord
100
AcDbBlockTableRecord
  2
*Model_Space
340
2E6
  0
BLOCK_RECORD
  5
2DF
330
270
100
AcDbSymbolTableRecord
100
AcDbBlockTableRecord
  2
*Paper_Space
340
2E2
  0
BLOCK_RECORD
  5
2ED
330
270
100
AcDbSymbolTableRecord
100
AcDbBlockTableRecord
  2
$MODEL_SPACE
340
0
  0
BLOCK_RECORD
  5
2EF
330
270
100
AcDbSymbolTableRecord
100
AcDbBlockTableRecord
  2
$PAPER_SPACE
340
0
  0
ENDTAB
  0
ENDSEC
  0
SECTION
  2
BLOCKS
  0
BLOCK
  5
2E4
330
2E3
100
AcDbEntity
  8
0
100
AcDbBlockBegin
  2
*Model_Space
 70
     0
 10
0.0
 20
0.0
 30
0.0
  3
*Model_Space
  1

  0
ENDBLK
  5
2E5
330
2E3
100
AcDbEntity
  8
0
100
AcDbBlockEnd
  0
BLOCK
  5
2E0
330
2DF
100
AcDbEntity
 67
     1
  8
0
100
AcDbBlockBegin
  2
*Paper_Space
 70
     0
 10
0.0
 20
0.0
 30
0.0
  3
*Paper_Space
  1

  0
ENDBLK
  5
2E1
330
2DF
100
AcDbEntity
 67
     1
  8
0
100
AcDbBlockEnd
  0
BLOCK
  5
2EE
330
2ED
100
AcDbEntity
  8
0
100
AcDbBlockBegin
  2
$MODEL_SPACE
 70
     0
 10
0.0
 20
0.0
 30
0.0
  3
$MODEL_SPACE
  1

  0
ENDBLK
  5
21
330
2ED
100
AcDbEntity
  8
0
100
AcDbBlockEnd
  0
BLOCK
  5
2F0
330
2EF
100
AcDbEntity
  8
0
100
AcDbBlockBegin
  2
$PAPER_SPACE
 70
     0
 10
0.0
 20
0.0
 30
0.0
  3
$PAPER_SPACE
  1

  0
ENDBLK
  5
1D
330
2EF
100
AcDbEntity
  8
0
100
AcDbBlockEnd
  0
ENDSEC
  0
SECTION
  2
ENTITIES
  0
LWPOLYLINE
  5
41
330
2E3
100
AcDbEntity
  8
COUCHE_1
100
AcDbPolyline
 90
        7
 70
     1
 43
0.0
 10
144.0649015650388
 20
-37.63400437108219
 10
90.75223245471812
 20
-37.63400437108219
 10
127.6769749845778
 20
-74.55874690094226
 10
120.4016476712538
 20
-97.29845220446177
 10
147.0365544137586
 20
-88.40000103690995
 10
166.5780585259786
 20
-41.22263678001935
 10
154.3668035283008
 20
-16.92250988215868
  0
LWPOLYLINE
  5
42
330
2E3
100
AcDbEntity
  8
COUCHE_1
100
AcDbPolyline
 90
        6
 70
     1
 43
0.0
 10
-79.4579570762708
 20
-110.9752409033823
 10
-37.62396514118291
 20
-69.14124896829476
 10
-37.54273028576341
 20
-37.54273028576348
 10
-69.14124896829429
 20
-37.62396514118325
 10
-110.9752409033817
 20
-79.45795707627038
 10
-103.0589768163254
 20
-103.0589768163262
  0
LWPOLYLINE
  5
43
330
2E3
100
AcDbEntity
  8
COUCHE_1
100
AcDbPolyline
 90
        6
 70
     1
 43
0.0
 10
-22.28608511873151
 20
-134.6566056544524
 10
0.0
 20
-145.7474027379427
 10
22.28608511873199
 20
-134.656605654453
 10
22.28608511873199
 20
-75.49440689164557
 10
0.0
 20
-53.09343833864186
 10
-22.28608511873151
 20
-75.49440689164557
  0
LWPOLYLINE
  5
44
330
2E3
100
AcDbEntity
  8
COUCHE_1
100
AcDbPolyline
 90
        7
 70
     1
 43
0.0
 10
74.55874690094242
 20
127.6769749845777
 10
97.29845220446168
 20
120.4016476712539
 10
88.40000103691052
 20
147.0365544137586
 10
41.2226367800195
 20
166.5780585259785
 10
16.92250988215889
 20
154.3668035283005
 10
37.63400437108251
 20
144.0649015650378
 10
37.63400437108251
 20
90.75223245471766
  0
LWPOLYLINE
  5
45
330
2E3
100
AcDbEntity
  8
COUCHE_1
100
AcDbPolyline
 90
        6
 70
     1
 43
0.0
 10
75.49440689164612
 20
-22.28608511873166
 10
134.6566056544532
 20
-22.28608511873166
 10
145.7474027379431
 20
0.0000000000001279
 10
134.6566056544539
 20
22.28608511873172
 10
75.49440689164612
 20
22.28608511873172
 10
53.0934383386425
 20
0.0000000000000426
  0
LWPOLYLINE
  5
46
330
2E3
100
AcDbEntity
  8
COUCHE_1
100
AcDbPolyline
 90
        4
 70
     1
 43
0.0
 10
-0.0675726276340072
 20
-183.6530337570424
 10
22.8486948305667
 20
-174.1608049768863
 10
-0.0625402630780911
 20
-162.7535400057196
 10
-22.87281616527531
 20
-174.20679259053
  0
LWPOLYLINE
  5
47
330
2E3
100
AcDbEntity
  8
COUCHE_1
100
AcDbPolyline
 90
        7
 70
     1
 43
0.0
 10
-127.6769749845785
 20
74.55874690094195
 10
-120.4016476712536
 20
97.29845220446184
 10
-147.0365544137585
 20
88.40000103691004
 10
-166.5780585259781
 20
41.22263678001943
 10
-154.3668035283004
 20
16.92250988215874
 10
-144.0649015650383
 20
37.63400437108224
 10
-90.75223245471759
 20
37.63400437108224
  0
LWPOLYLINE
  5
48
330
2E3
100
AcDbEntity
  8
COUCHE_1
100
AcDbPolyline
 90
        7
 70
     1
 43
0.0
 10
-97.1877920725819
 20
121.1198350573235
 10
-75.2580091336145
 20
128.4805285216074
 10
-37.5602592825521
 20
90.78277867054515
 10
-37.56025928255261
 20
143.0022503434078
 10
-16.3364261816464
 20
153.9372168871072
 10
-41.4623045181766
 20
166.4787848983705
 10
-88.6396687750671
 20
146.9372807861507
  0
LWPOLYLINE
  5
49
330
2E3
100
AcDbEntity
  8
COUCHE_1
100
AcDbPolyline
 90
        7
 70
     1
 43
0.0
 10
16.33642618164731
 20
-153.9372168871071
 10
41.4623045181766
 20
-166.4787848983705
 10
88.63966877506747
 20
-146.9372807861506
 10
97.1877920725824
 20
-121.1198350573235
 10
75.2580091336145
 20
-128.4805285216074
 10
37.56025928255261
 20
-90.78277867054508
 10
37.56025928255261
 20
-143.0022503434075
  0
LWPOLYLINE
  5
4A
330
2E3
100
AcDbEntity
  8
COUCHE_1
100
AcDbPolyline
 90
        6
 70
     1
 43
0.0
 10
0.0
 20
145.7474027379428
 10
-22.28608511873151
 20
134.6566056544532
 10
-22.28608511873151
 20
75.49440689164566
 10
0.0
 20
53.09343833864192
 10
22.28608511873199
 20
75.49440689164569
 10
22.28608511873199
 20
134.6566056544526
  0
LWPOLYLINE
  5
4B
330
2E3
100
AcDbEntity
  8
COUCHE_1
100
AcDbPolyline
 90
        4
 70
     1
 43
0.0
 10
174.2067925905303
 20
-22.87281616527567
 10
183.6530337570425
 20
-0.0675726276343624
 10
174.1608049768866
 20
22.84869483056663
 10
162.7535400057202
 20
-0.0625402630783611
  0
LWPOLYLINE
  5
4C
330
2E3
100
AcDbEntity
  8
COUCHE_1
100
AcDbPolyline
 90
        7
 70
     1
 43
0.0
 10
-37.634004371082
 20
-144.0649015650383
 10
-37.634004371082
 20
-90.75223245471756
 10
-74.5587469009424
 20
-127.6769749845775
 10
-97.29845220446122
 20
-120.4016476712538
 10
-88.4000010369095
 20
-147.0365544137586
 10
-41.222636780019
 20
-166.5780585259783
 10
-16.92250988215849
 20
-154.3668035283005
  0
LWPOLYLINE
  5
4D
330
2E3
100
AcDbEntity
  8
COUCHE_1
100
AcDbPolyline
 90
        7
 70
     1
 43
0.0
 10
143.0022503434079
 20
37.56025928255235
 10
153.9372168871075
 20
16.33642618164704
 10
166.4787848983708
 20
41.46230451817661
 10
146.937280786151
 20
88.63966877506724
 10
121.1198350573238
 20
97.18779207258215
 10
128.4805285216078
 20
75.25800913361459
 10
90.78277867054572
 20
37.56025928255235
  0
LWPOLYLINE
  5
4E
330
2E3
100
AcDbEntity
  8
COUCHE_1
100
AcDbPolyline
 90
        7
 70
     1
 43
0.0
 10
-143.002250343407
 20
-37.56025928255237
 10
-153.9372168871073
 20
-16.33642618164687
 10
-166.4787848983701
 20
-41.46230451817657
 10
-146.9372807861505
 20
-88.63966877506717
 10
-121.1198350573231
 20
-97.18779207258195
 10
-128.4805285216071
 20
-75.25800913361456
 10
-90.78277867054479
 20
-37.56025928255228
  0
LWPOLYLINE
  5
4F
330
2E3
100
AcDbEntity
  8
COUCHE_1
100
AcDbPolyline
 90
        6
 70
     1
 43
0.0
 10
-103.0589768163254
 20
103.058976816326
 10
-110.9752409033827
 20
79.4579570762708
 10
-69.14124896829429
 20
37.62396514118332
 10
-37.54273028576341
 20
37.54273028576354
 10
-37.62396514118339
 20
69.1412489682949
 10
-79.45795707627029
 20
110.9752409033819
  0
LWPOLYLINE
  5
50
330
2E3
100
AcDbEntity
  8
COUCHE_1
100
AcDbPolyline
 90
        4
 70
     1
 43
0.0
 10
22.28608511873199
 20
37.62680330098142
 10
22.28608511873199
 20
53.80336894584321
 10
10.78321088431309
 20
42.30049471142411
 10
15.45690229475531
 20
37.62680330098142
  0
LWPOLYLINE
  5
51
330
2E3
100
AcDbEntity
  8
COUCHE_1
100
AcDbPolyline
 90
        6
 70
     1
 43
0.0
 10
37.62396514118379
 20
-69.14124896829476
 10
79.45795707627081
 20
-110.9752409033818
 10
103.0589768163263
 20
-103.0589768163261
 10
110.9752409033827
 20
-79.45795707627076
 10
69.14124896829479
 20
-37.62396514118325
 10
37.54273028576381
 20
-37.54273028576348
  0
LWPOLYLINE
  5
52
330
2E3
100
AcDbEntity
  8
COUCHE_1
100
AcDbPolyline
 90
        4
 70
     1
 43
0.0
 10
-22.28608511873151
 20
37.53584819725573
 10
-15.6764873397365
 20
37.53584819725573
 10
-10.84752585494019
 20
42.36480968205204
 10
-22.28608511873151
 20
53.80336894584313
  0
LWPOLYLINE
  5
53
330
2E3
100
AcDbEntity
  8
COUCHE_1
100
AcDbPolyline
 90
       16
 70
     1
 43
0.0
 10
-31.51728382711099
 20
0.0000000000000426
 10
-22.28608511873151
 20
-9.231198708379976
 10
-22.28608511873151
 20
-22.28608511873166
 10
-9.231198708379906
 20
-22.28608511873146
 10
-0.1568517315708959
 20
-31.36043209554047
 10
8.917495245237688
 20
-22.28608511873166
 10
22.28608511873199
 20
-22.28608511873166
 10
22.28608511873151
 20
-8.917495245237759
 10
31.36043209554049
 20
0.1568517315711375
 10
22.28608511873199
 20
9.231198708379919
 10
22.28608511873199
 20
22.28608511873172
 10
9.231198708380389
 20
22.28608511873152
 10
0.0
 20
31.51728382711154
 10
-9.231198708379906
 20
22.28608511873152
 10
-22.28608511873151
 20
22.28608511873172
 10
-22.28608511873111
 20
9.231198708380038
  0
LWPOLYLINE
  5
54
330
2E3
100
AcDbEntity
  8
COUCHE_1
100
AcDbPolyline
 90
        4
 70
     1
 43
0.0
 10
-37.55896976961091
 20
-15.56420362623557
 10
-42.33531684175799
 20
-10.81803301464656
 10
-53.8033689458425
 20
-22.28608511873166
 10
-37.55115555331889
 20
-22.28608511873166
  0
LWPOLYLINE
  5
55
330
2E3
100
AcDbEntity
  8
COUCHE_1
100
AcDbPolyline
 90
        4
 70
     1
 43
0.0
 10
-115.1283544442799
 20
-115.0399091560405
 10
-139.3563277848216
 20
-107.0092809542223
 10
-129.9100866183089
 20
-129.8145244918637
 10
-106.9938191601082
 20
-139.3067532720198
  0
LWPOLYLINE
  5
56
330
2E3
100
AcDbEntity
  8
COUCHE_1
100
AcDbPolyline
 90
        4
 70
     1
 43
0.0
 10
-107.0092809542225
 20
139.3563277848222
 10
-129.8145244918633
 20
129.9100866183097
 10
-139.3067532720193
 20
106.9938191601084
 10
-115.0399091560403
 20
115.1283544442804
  0
LWPOLYLINE
  5
57
330
2E3
100
AcDbEntity
  8
COUCHE_1
100
AcDbPolyline
 90
        4
 70
     1
 43
0.0
 10
42.30049471142459
 20
-10.78321088431257
 10
37.62680330098149
 20
-15.45690229475538
 10
37.62680330098149
 20
-22.28608511873166
 10
53.8033689458434
 20
-22.28608511873166
  0
LWPOLYLINE
  5
58
330
2E3
100
AcDbEntity
  8
COUCHE_1
100
AcDbPolyline
 90
        4
 70
     1
 43
0.0
 10
115.0399091560407
 20
-115.1283544442803
 10
107.0092809542225
 20
-139.3563277848219
 10
129.8145244918642
 20
-129.9100866183095
 10
139.30675327202
 20
-106.9938191601084
  0
LWPOLYLINE
  5
59
330
2E3
100
AcDbEntity
  8
COUCHE_1
100
AcDbPolyline
 90
        4
 70
     1
 43
0.0
 10
10.84752585494061
 20
-42.36480968205198
 10
22.28608511873199
 20
-53.80336894584315
 10
22.28608511873199
 20
-37.53584819725567
 10
15.67648733973689
 20
-37.53584819725567
  0
LWPOLYLINE
  5
5A
330
2E3
100
AcDbEntity
  8
COUCHE_1
100
AcDbPolyline
 90
        6
 70
     1
 43
0.0
 10
-75.49440689164569
 20
-22.28608511873166
 10
-53.0934383386416
 20
0.0000000000000426
 10
-75.49440689164569
 20
22.28608511873172
 10
-134.6566056544521
 20
22.28608511873172
 10
-145.7474027379426
 20
0.0000000000000426
 10
-134.656605654453
 20
-22.28608511873166
  0
LWPOLYLINE
  5
5B
330
2E3
100
AcDbEntity
  8
COUCHE_1
100
AcDbPolyline
 90
        6
 70
     1
 43
0.0
 10
69.14124896829479
 20
37.62396514118332
 10
110.9752409033822
 20
79.4579570762704
 10
103.0589768163263
 20
103.0589768163261
 10
79.45795707627119
 20
110.9752409033824
 10
37.62396514118379
 20
69.1412489682949
 10
37.54273028576381
 20
37.54273028576354
  0
LWPOLYLINE
  5
5C
330
2E3
100
AcDbEntity
  8
COUCHE_1
100
AcDbPolyline
 90
        4
 70
     1
 43
0.0
 10
37.53584819725569
 20
22.28608511873172
 10
37.53584819725569
 20
15.67648733973694
 10
42.36480968205211
 20
10.84752585494054
 10
53.8033689458434
 20
22.28608511873172
  0
LWPOLYLINE
  5
5D
330
2E3
100
AcDbEntity
  8
COUCHE_1
100
AcDbPolyline
 90
        4
 70
     1
 43
0.0
 10
115.1283544442804
 20
115.0399091560407
 10
139.3563277848223
 20
107.0092809542224
 10
129.9100866183098
 20
129.8145244918637
 10
106.9938191601086
 20
139.3067532720198
  0
LWPOLYLINE
  5
5E
330
2E3
100
AcDbEntity
  8
COUCHE_1
100
AcDbPolyline
 90
        4
 70
     1
 43
0.0
 10
-42.30049471142371
 20
10.78321088431262
 10
-37.62680330098101
 20
15.45690229475544
 10
-37.62680330098101
 20
22.28608511873163
 10
-53.80336894584299
 20
22.28608511873163
  0
LWPOLYLINE
  5
5F
330
2E3
100
AcDbEntity
  8
COUCHE_1
100
AcDbPolyline
 90
        4
 70
     1
 43
0.0
 10
-162.7535400057195
 20
0.062540263078418
 10
-174.2067925905299
 20
22.87281616527584
 10
-183.6530337570425
 20
0.0675726276344193
 10
-174.1608049768861
 20
-22.84869483056666
  0
LWPOLYLINE
  5
60
330
2E3
100
AcDbEntity
  8
COUCHE_1
100
AcDbPolyline
 90
        4
 70
     1
 43
0.0
 10
0.0625402630790006
 20
162.7535400057199
 10
22.8728161652762
 20
174.20679259053
 10
0.0675726276348882
 20
183.6530337570425
 10
-22.8486948305663
 20
174.1608049768864
  0
LWPOLYLINE
  5
62
330
2E3
100
AcDbEntity
  8
LAYER_1
100
AcDbPolyline
 90
        8
 70
     1
 43
0.0
 10
145.87217298616
 20
104.5448747810705
 10
133.767687590008
 20
133.7676875900077
 10
36.07689949699449
 20
174.2325369370499
 10
8.728368335157581
 20
158.4428551088207
 10
6.545968005175653
 20
159.5284570920579
 10
35.73457346854541
 20
176.5255820340784
 10
135.2984213194684
 20
135.298421319468
 10
148.439099197589
 20
103.5740185673328
  0
LWPOLYLINE
  5
63
330
2E3
100
AcDbEntity
  8
LAYER_1
100
AcDbPolyline
 90
        6
 70
     1
 43
0.0
 10
78.46380167555238
 20
37.56025928255232
 10
118.6158748076334
 20
77.71233241463334
 10
96.41878292514093
 20
143.7029954327946
 10
98.87192819323452
 20
142.6831766431022
 10
120.9067884196376
 20
77.1748189018912
 10
81.2922288002986
 20
37.56025928255233
  0
LWPOLYLINE
  5
64
330
2E3
100
AcDbEntity
  8
LAYER_1
100
AcDbPolyline
 90
        7
 70
     1
 43
0.0
 10
4.652561922693201
 20
48.43667709261843
 10
76.26179097648344
 20
120.0459061464089
 42
-0.2812363902270326
 10
77.27511914884328
 20
120.2907596898094
 10
99.73329357221295
 20
113.0712992620308
 10
100.5163890505781
 20
110.7137071945832
 10
77.24411650988566
 20
118.1998045550649
 10
6.066137550396002
 20
47.02182559557501
  0
LWPOLYLINE
  5
65
330
2E3
100
AcDbEntity
  8
LAYER_1
100
AcDbPolyline
 90
        6
 70
     1
 43
0.0
 10
28.96004474490726
 20
60.47732857201844
 10
30.96004474490727
 20
62.47732857201844
 10
30.96004474490729
 20
12.82407042501804
 10
37.65069949851846
 20
6.133415671406892
 10
36.23648593614535
 20
4.719202109033771
 10
28.96004474490726
 20
11.99564330027182
  0
LWPOLYLINE
  5
66
330
2E3
100
AcDbEntity
  8
LAYER_1
100
AcDbPolyline
 90
        7
 70
     1
 43
0.0
 10
149.1528079278484
 20
6.792846515224232
 10
136.3652142494398
 20
28.94160847277452
 10
37.54273028576381
 20
28.94160847277452
 10
37.54273028576381
 20
30.94160847277452
 10
136.9425645186294
 20
30.94160847277452
 42
-0.2679491924311365
 10
137.8085899224138
 20
30.44160847277452
 10
150.2261217834566
 20
8.933812384843113
  0
LWPOLYLINE
  5
67
330
2E3
100
AcDbEntity
  8
LAYER_1
100
AcDbPolyline
 90
        7
 70
     1
 43
0.0
 10
-22.28608511873151
 20
63.24177316391067
 10
11.72118635359115
 20
29.23450169158797
 42
0.1989123673796474
 10
12.4282931347777
 20
28.94160847277452
 10
22.28608511873199
 20
28.94160847277452
 10
22.28608511873199
 20
30.94160847277452
 10
12.84250669715081
 20
30.94160847277452
 10
-22.28608511873151
 20
66.07020028865685
  0
LWPOLYLINE
  5
68
330
2E3
100
AcDbEntity
  8
LAYER_1
100
AcDbPolyline
 90
        7
 70
     1
 43
0.0
 10
-30.92317220064172
 20
37.53974428300046
 10
-30.9231722006418
 20
137.282078314262
 42
-0.2679491924311365
 10
-30.4231722006418
 20
138.1481037180465
 10
-9.238696025632679
 20
150.3789667403292
 10
-7.097730156013827
 20
149.3056528847209
 10
-28.9231722006418
 20
136.7047280450724
 10
-28.92317220064172
 20
37.53884210713773
  0
LWPOLYLINE
  5
69
330
2E3
100
AcDbEntity
  8
LAYER_1
100
AcDbPolyline
 90
        7
 70
     1
 43
0.0
 10
-30.92317220064171
 20
22.28608511873167
 10
-30.92317220064169
 20
12.8609429692833
 10
-66.07020028865679
 20
-22.28608511873166
 10
-63.24177316391055
 20
-22.28608511873166
 10
-29.21606541945513
 20
11.73962262572364
 42
0.1989123673796474
 10
-28.92317220064169
 20
12.44672940691019
 10
-28.9231722006417
 20
22.28608511873168
  0
LWPOLYLINE
  5
6A
330
2E3
100
AcDbEntity
  8
LAYER_1
100
AcDbPolyline
 90
        7
 70
     1
 43
0.0
 10
-6.133415671406834
 20
37.65069949851837
 10
-4.719202109033724
 20
36.23648593614527
 10
-11.72118635359101
 20
29.23450169158797
 42
-0.1989123673796407
 10
-12.42829313477756
 20
28.94160847277452
 10
-60.45889229988572
 20
28.94160847277452
 10
-62.45889229988565
 20
30.94160847277452
 10
-12.84250669715067
 20
30.94160847277452
  0
LWPOLYLINE
  5
6B
330
2E3
100
AcDbEntity
  8
LAYER_1
100
AcDbPolyline
 90
        7
 70
     1
 43
0.0
 10
-84.09912153222176
 20
30.94160847277452
 10
-138.2683152197776
 20
30.94160847277452
 42
0.2759118356506654
 10
-139.1487863196998
 20
30.41570829580955
 10
-171.4137260133656
 20
-29.50489399242709
 10
-170.4281254416362
 20
-31.89301380499629
 10
-137.6710211382212
 20
28.94160847277452
 10
-82.11086171508268
 20
28.94160847277452
  0
LWPOLYLINE
  5
6C
330
2E3
100
AcDbEntity
  8
LAYER_1
100
AcDbPolyline
 90
        7
 70
     1
 43
0.0
 10
-48.41059250539164
 20
4.678622987645086
 10
-120.0332147251671
 20
76.30124520742021
 42
-0.2810785720766223
 10
-120.2782472532879
 20
77.3140164053642
 10
-113.0821658190065
 20
99.72968414726153
 10
-110.7309123313287
 20
100.5106742091614
 10
-118.1873970831101
 20
77.28385469010945
 10
-46.99574100834817
 20
6.092198615347835
  0
LWPOLYLINE
  5
6D
330
2E3
100
AcDbEntity
  8
LAYER_1
100
AcDbPolyline
 90
        8
 70
     1
 43
0.0
 10
-159.215451985077
 20
7.175206399456255
 10
-175.4932647375195
 20
38.25948520214494
 10
-135.2984213194673
 20
135.2984213194681
 10
-103.7530015550409
 20
148.3649620166459
 10
-104.673274515973
 20
145.8189880745579
 10
-133.7676875900071
 20
133.7676875900078
 10
-173.2584616293061
 20
38.42852531572269
 10
-158.1084461831442
 20
9.400635115260712
  0
LWPOLYLINE
  5
6E
330
2E3
100
AcDbEntity
  8
LAYER_1
100
AcDbPolyline
 90
        7
 70
     1
 43
0.0
 10
-37.5602592825521
 20
81.34437445247746
 10
-37.5602592825521
 20
78.51594732773131
 10
-76.43980275636787
 20
117.395490801547
 10
-142.3212136425092
 20
99.74261995838249
 10
-141.3525443888985
 20
102.0727264634407
 10
-76.39976331074771
 20
119.4767716994865
 42
-0.2679491924310956
 10
-75.43383748445865
 20
119.217952654384
  0
LWPOLYLINE
  5
6F
330
2E3
100
AcDbEntity
  8
LAYER_1
100
AcDbPolyline
 90
        6
 70
     1
 43
0.0
 10
28.96004474490727
 20
82.12918976461216
 10
28.96004474490729
 20
137.7154574408818
 10
-32.501063036558
 20
170.1771775339507
 10
-30.26464378649661
 20
171.1001697891492
 10
30.96004474490721
 20
138.9236291063978
 10
30.96004474490726
 20
84.11744958175123
  0
LWPOLYLINE
  5
70
330
2E3
100
AcDbEntity
  8
LAYER_1
100
AcDbPolyline
 90
       10
 70
     1
 43
0.0
 10
-96.57635154398649
 20
151.3376277836296
 10
0.0
 20
191.3408623976609
 10
31.55108099839661
 20
178.2719767405931
 10
29.09847435913344
 20
177.1230952731572
 10
0.0
 20
189.1760779970761
 10
-36.15962801424863
 20
174.1982696632082
 10
-38.37609954097138
 20
173.2801770962258
 10
-94.88388539101299
 20
149.873885817464
 10
-104.9512275194733
 20
118.5142912580528
 10
-107.3054066585936
 20
117.724187843106
  0
LWPOLYLINE
  5
71
330
2E3
100
AcDbEntity
  8
LAYER_1
100
AcDbPolyline
 90
        6
 70
     1
 43
0.0
 10
110.2566516746433
 20
-100.6682041656561
 10
117.8133465664067
 20
-76.85765852122727
 10
47.02182559557519
 20
-6.066137550396027
 10
48.43667709261867
 20
-4.652561922693258
 10
120.0875464599039
 20
-76.30343128997825
 10
112.6022193579287
 20
-99.88910269498958
  0
LWPOLYLINE
  5
72
330
2E3
100
AcDbEntity
  8
LAYER_1
100
AcDbPolyline
 90
        6
 70
     1
 43
0.0
 10
84.10429770538391
 20
-30.94681520995944
 10
82.11589439241562
 20
-28.94667086682281
 10
138.7556363192897
 20
-28.95078233631271
 10
170.2745678835524
 20
32.26508526817276
 10
171.275445576852
 20
29.83994884081359
 10
139.9753633998167
 20
-30.95087088136883
  0
LWPOLYLINE
  5
73
330
2E3
100
AcDbEntity
  8
LAYER_1
100
AcDbPolyline
 90
        6
 70
     1
 43
0.0
 10
63.18962751173175
 20
22.28608511873172
 10
66.01805463647796
 20
22.28608511873172
 10
30.96004474490721
 20
-12.77192477283897
 10
30.96004474490721
 20
-22.28608511873166
 10
28.96004474490721
 20
-22.28608511873166
 10
28.96004474490721
 20
-11.94349764809279
  0
LWPOLYLINE
  5
74
330
2E3
100
AcDbEntity
  8
LAYER_1
100
AcDbPolyline
 90
        8
 70
     1
 43
0.0
 10
28.96004474490721
 20
-30.94281229776605
 10
12.7903309768256
 20
-30.94163854092049
 10
6.107342845317377
 20
-37.62462667242875
 10
4.693129282944275
 20
-36.21041311005565
 10
11.96196398837122
 20
-28.94157840462866
 10
60.46238286911773
 20
-28.94509904200606
 10
62.46252806459559
 20
-30.94524423748395
 10
30.9600447449072
 20
-30.94295747743496
  0
LWPOLYLINE
  5
75
330
2E3
100
AcDbEntity
  8
LAYER_1
100
AcDbPolyline
 90
        6
 70
     1
 43
0.0
 10
37.58811448028453
 20
-81.32008399803087
 10
77.04119050709945
 20
-120.7731600248458
 10
141.9742570036299
 20
-100.5772143446642
 10
142.9742858812517
 20
-98.17167315059087
 10
77.60099741580616
 20
-118.5045398088064
 10
37.59641604319786
 20
-78.49995843619803
  0
LWPOLYLINE
  5
76
330
2E3
100
AcDbEntity
  8
LAYER_1
100
AcDbPolyline
 90
        6
 70
     1
 43
0.0
 10
28.96004474490721
 20
-37.5388587398974
 10
28.96004474490721
 20
-137.7401444677117
 10
6.834647940597423
 20
-149.1737639130291
 10
9.0459156307323
 20
-150.2823216364191
 10
30.96004474490718
 20
-138.9578778317223
 10
30.9600447449072
 20
-37.5397609157601
  0
LWPOLYLINE
  5
77
330
2E3
100
AcDbEntity
  8
LAYER_1
100
AcDbPolyline
 90
        4
 70
     1
 43
0.0
 10
-15.45690229475531
 20
-37.62680330098128
 10
-22.28608511873151
 20
-37.62680330098128
 10
-22.28608511873151
 20
-53.80336894584328
 10
-10.78321088431221
 20
-42.30049471142417
  0
LWPOLYLINE
  5
78
330
2E3
100
AcDbEntity
  8
LAYER_1
100
AcDbPolyline
 90
        6
 70
     1
 43
0.0
 10
22.28608511873199
 20
-66.0180546364783
 10
22.28608511873199
 20
-63.18962751173212
 10
-11.96193392022562
 20
-28.94160847277446
 10
-22.28608511873151
 20
-28.94160847277446
 10
-22.28608511873151
 20
-30.94160847277446
 10
-12.7903610449718
 20
-30.94160847277446
  0
LWPOLYLINE
  5
79
330
2E3
100
AcDbEntity
  8
LAYER_1
100
AcDbPolyline
 90
        8
 70
     1
 43
0.0
 10
-99.62031087815631
 20
-113.4114456562114
 10
-76.72704816687769
 20
-120.4590176846243
 10
-30.92317220064179
 20
-74.65514171838811
 10
-28.9231722006418
 20
-72.65514171838811
 10
-4.680734410447838
 20
-48.41270392819403
 10
-6.094947972820941
 20
-46.9984903658209
 10
-77.28965581033552
 20
-118.1931982033359
 10
-100.394564824395
 20
-111.0804719598072
  0
LWPOLYLINE
  5
7A
330
2E3
100
AcDbEntity
  8
LAYER_1
100
AcDbPolyline
 90
        7
 70
     1
 43
0.0
 10
-30.92317220064181
 20
-62.44045602775362
 10
-28.9231722006418
 20
-60.44045602775359
 10
-28.9231722006418
 20
-12.39458375473158
 42
0.1989123673796683
 10
-29.21606541945525
 20
-11.68747697354503
 10
-36.21041311005566
 20
-4.693129282944631
 10
-37.62462667242878
 20
-6.10734284531774
 10
-30.9231722006418
 20
-12.80879731710469
  0
LWPOLYLINE
  5
7B
330
2E3
100
AcDbEntity
  8
LAYER_1
100
AcDbPolyline
 90
        6
 70
     1
 43
0.0
 10
-37.55115555331889
 20
-30.94160847277446
 10
-139.3093371301783
 20
-30.94160847277446
 10
-150.5050716808305
 20
-9.490240690031859
 10
-149.3997662442794
 20
-7.285460417425718
 10
-138.0971543328674
 20
-28.94160847277446
 10
-37.55115555331889
 20
-28.94160847277446
  0
LWPOLYLINE
  5
7C
330
2E3
100
AcDbEntity
  8
LAYER_1
100
AcDbPolyline
 90
        7
 70
     1
 43
0.0
 10
-98.9688466736796
 20
-142.6428858014987
 10
-120.3801157154414
 20
-77.37252338159065
 42
-0.2829600130751072
 10
-120.1372371851327
 20
-76.35312201520742
 10
-81.37207660033627
 20
-37.58796143041112
 10
-78.55195103850334
 20
-37.59626299332443
 10
-118.2880293203284
 20
-77.33234127514932
 10
-96.33072152098705
 20
-143.7396042206108
  0
LWPOLYLINE
  5
7D
330
2E3
100
AcDbEntity
  8
LAYER_1
100
AcDbPolyline
 90
        8
 70
     1
 43
0.0
 10
-150.8805681367075
 20
-97.67979114239857
 10
-191.3408623976608
 20
0.0000000000000426
 10
-178.0924187808193
 20
31.98457226011369
 10
-176.9942830618415
 20
29.40945454669066
 10
-189.1760779970759
 20
0.0000000000000426
 10
-149.4159248970004
 20
-95.98950085623256
 10
-118.3079908611929
 20
-105.5659167886134
 10
-117.5247467494334
 20
-107.8996580607824
  0
LWPOLYLINE
  5
7E
330
2E3
100
AcDbEntity
  8
LAYER_1
100
AcDbPolyline
 90
        8
 70
     1
 43
0.0
 10
-148.4324732021234
 20
-103.5900151354484
 10
-135.2984213194674
 20
-135.298421319468
 10
-39.14385724899378
 20
-175.126945841531
 10
-7.728682483244082
 20
-158.9401336917375
 10
-9.960001249693423
 20
-157.830197973339
 10
-39.29720908745456
 20
-172.898641029641
 10
-133.7676875900071
 20
-133.7676875900077
 10
-145.8674195955043
 20
-104.5563504812567
  0
LWPOLYLINE
  5
7F
330
2E3
100
AcDbEntity
  8
LAYER_1
100
AcDbPolyline
 90
        7
 70
     1
 43
0.0
 10
-30.9231722006418
 20
-84.04140028427738
 10
-30.9231722006418
 20
-138.8048153668645
 42
0.2788870256275896
 10
-30.38751370047386
 20
-139.6904716046531
 10
29.84876831214797
 20
-171.2718056941524
 10
32.25881177207277
 20
-170.277157017192
 10
-28.9231722006418
 20
-138.2000000024909
 10
-28.9231722006418
 20
-82.04140028427739
  0
LWPOLYLINE
  5
80
330
2E3
100
AcDbEntity
  8
LAYER_1
100
AcDbPolyline
 90
       10
 70
     1
 43
0.0
 10
-32.35627122441289
 20
-177.9384560286865
 10
0.0000000000005116
 20
-191.3408623976609
 10
96.21052485291929
 20
-151.4891581605482
 10
106.8955956874447
 20
-117.8617275240959
 10
104.5501635108136
 20
-118.6488953064825
 10
94.60350623750297
 20
-149.990022665455
 10
38.1584999471746
 20
-173.3703097991435
 10
35.75231796071236
 20
-174.366983011474
 10
0.0000000000005116
 20
-189.1760779970761
 10
-29.67610585858709
 20
-176.8838324720294
  0
LWPOLYLINE
  5
81
330
2E3
100
AcDbEntity
  8
LAYER_1
100
AcDbPolyline
 90
        8
 70
     1
 43
0.0
 10
103.738959646721
 20
-148.3707783655139
 10
135.2984213194688
 20
-135.298421319468
 10
176.316751335103
 20
-36.27141268982687
 10
159.3587759870144
 20
-6.887080222504539
 10
158.2906468191101
 20
-9.03435471581999
 10
174.0951557136271
 20
-36.40856710979767
 10
133.7676875900084
 20
-133.7676875900077
 10
104.6632010596691
 20
-145.8231606367792
  0
LWPOLYLINE
  5
82
330
2E3
100
AcDbEntity
  8
LAYER_1
100
AcDbPolyline
 90
        8
 70
     1
 43
0.0
 10
178.3160713767812
 20
-31.44462712968303
 10
191.3408623976607
 20
0.0000000000000426
 10
151.3825014880337
 20
96.46801683822143
 10
117.7307732735292
 20
107.285784818426
 10
118.5244447586537
 20
104.9209743160938
 10
149.8964554477236
 20
94.82939748354327
 10
189.1760779970762
 20
0.0000000000000426
 10
177.1547281097174
 20
-29.02210593609409
  0
LWPOLYLINE
  5
84
330
2E3
100
AcDbEntity
  8
LAYER_2
100
AcDbPolyline
 90
        8
 70
     1
 43
0.0
 10
141.4213562373098
 20
141.4213562373095
 10
0.0
 20
200.0000000000001
 10
-141.4213562373088
 20
141.4213562373096
 10
-200.0
 20
0.0000000000000426
 10
-141.4213562373088
 20
-141.4213562373095
 10
0.0000000000005116
 20
-200.0000000000001
 10
141.4213562373102
 20
-141.4213562373095
 10
200.0
 20
0.0000000000000426
  0
ENDSEC
  0
SECTION
  2
OBJECTS
  0
DICTIONARY
  5
27B
330
0
100
AcDbDictionary
281
     1
  3
ACAD_COLOR
350
2D9
  3
ACAD_GROUP
350
27C
  3
ACAD_LAYOUT
350
2D8
  3
ACAD_MATERIAL
350
27F
  3
ACAD_MLEADERSTYLE
350
2DC
  3
ACAD_MLINESTYLE
350
2D5
  3
ACAD_PLOTSETTINGS
350
2D7
  3
ACAD_PLOTSTYLENAME
350
27D
  3
ACAD_SCALELIST
350
2A9
  3
ACAD_TABLESTYLE
350
2DA
  3
ACAD_VISUALSTYLE
350
298
  3
ACDB_RECOMPOSE_DATA
350
303
  3
AcDbVariableDictionary
350
2FA
  3
DWGPROPS
350
304
  0
DICTIONARY
  5
2F2
330
2CB
100
AcDbDictionary
280
     1
281
     1
  3
ADSK_XREC_LAYER_RECONCILED
360
2F3
  0
DICTIONARY
  5
2F4
330
2E9
100
AcDbDictionary
280
     1
281
     1
  3
ADSK_XREC_LAYER_RECONCILED
360
2F5
  0
DICTIONARY
  5
2F6
330
2EA
100
AcDbDictionary
280
     1
281
     1
  3
ADSK_XREC_LAYER_RECONCILED
360
2F7
  0
DICTIONARY
  5
2F8
330
2EB
100
AcDbDictionary
280
     1
281
     1
  3
ADSK_XREC_LAYER_RECONCILED
360
2F9
  0
DICTIONARY
  5
2D9
102
{ACAD_REACTORS
330
27B
102
}
330
27B
100
AcDbDictionary
281
     1
  0
DICTIONARY
  5
27C
102
{ACAD_REACTORS
330
27B
102
}
330
27B
100
AcDbDictionary
281
     1
  0
DICTIONARY
  5
2D8
102
{ACAD_REACTORS
330
27B
102
}
330
27B
100
AcDbDictionary
281
     1
  3
Model
350
2E6
  3
Présentation1
350
2E2
  0
DICTIONARY
  5
27F
102
{ACAD_REACTORS
330
27B
102
}
330
27B
100
AcDbDictionary
281
     1
  3
ByBlock
350
288
  3
ByLayer
350
280
  3
Global
350
290
  0
DICTIONARY
  5
2DC
102
{ACAD_REACTORS
330
27B
102
}
330
27B
100
AcDbDictionary
281
     1
  3
Standard
350
2DD
  0
DICTIONARY
  5
2D5
102
{ACAD_REACTORS
330
27B
102
}
330
27B
100
AcDbDictionary
281
     1
  3
Standard
350
2D6
  0
DICTIONARY
  5
2D7
102
{ACAD_REACTORS
330
27B
102
}
330
27B
100
AcDbDictionary
281
     1
  0
ACDBDICTIONARYWDFLT
  5
27D
102
{ACAD_REACTORS
330
27B
102
}
330
27B
100
AcDbDictionary
281
     1
  3
Normal
350
27E
100
AcDbDictionaryWithDefault
340
27E
  0
DICTIONARY
  5
2A9
102
{ACAD_REACTORS
330
27B
102
}
330
27B
100
AcDbDictionary
281
     1
  3
A0
350
2AA
  3
A1
350
2AB
  3
A2
350
2AC
  3
A3
350
2AD
  3
A4
350
2AE
  3
A5
350
2AF
  3
A6
350
2B0
  3
A7
350
2B1
  3
A8
350
2B2
  3
A9
350
2B3
  3
B0
350
2B4
  3
B1
350
2B5
  3
B2
350
2B6
  3
B3
350
2B7
  3
B4
350
2B8
  3
B5
350
2B9
  3
B6
350
2BA
  3
B7
350
2BB
  3
B8
350
2BC
  3
B9
350
2BD
  3
C0
350
2BE
  3
C1
350
2BF
  3
C2
350
2C0
  3
C3
350
2C1
  3
C4
350
2C2
  3
C5
350
2C3
  3
C6
350
2C4
  3
C7
350
2C5
  3
C8
350
2C6
  3
C9
350
2C7
  3
D0
350
2C8
  3
D1
350
2C9
  3
D2
350
2CA
  0
DICTIONARY
  5
2DA
102
{ACAD_REACTORS
330
27B
102
}
330
27B
100
AcDbDictionary
281
     1
  3
Standard
350
2DB
  0
DICTIONARY
  5
298
102
{ACAD_REACTORS
330
27B
102
}
330
27B
100
AcDbDictionary
281
     1
  3
2dWireframe
350
29E
  3
3D Hidden
350
2A0
  3
3dWireframe
350
29F
  3
Basic
350
29D
  3
Brighten
350
2A4
  3
ColorChange
350
2A8
  3
Conceptual
350
2A1
  3
Dim
350
2A3
  3
Facepattern
350
2A7
  3
Flat
350
299
  3
FlatWithEdges
350
29A
  3
Gouraud
350
29B
  3
GouraudWithEdges
350
29C
  3
Linepattern
350
2A6
  3
Realistic
350
2A2
  3
Thicken
350
2A5
  0
XRECORD
  5
303
102
{ACAD_REACTORS
330
27B
102
}
330
27B
100
AcDbXrecord
280
     1
 90
        1
330
2DB
  0
DICTIONARY
  5
2FA
102
{ACAD_REACTORS
330
27B
102
}
330
27B
100
AcDbDictionary
281
     1
  3
CANNOSCALE
350
2FD
  3
CMLEADERSTYLE
350
2FC
  3
CTABLESTYLE
350
2FB
  3
DIMASSOC
350
300
  3
INDEXCTL
350
2FF
  3
SORTENTS
350
2FE
  0
XRECORD
  5
304
102
{ACAD_REACTORS
330
27B
102
}
330
27B
100
AcDbXrecord
280
     1
  1
DWGPROPS COOKIE
  2

  3

  4

  6

  7

  8
user
  9

300
=
301
=
302
=
303
=
304
=
305
=
306
=
307
=
308
=
309
=
 40
0.000342662037037
 41
2454910.5
 42
2457348.698357789
  1

 90
        0
  0
XRECORD
  5
2F3
102
{ACAD_REACTORS
330
2F2
102
}
330
2F2
100
AcDbXrecord
280
     1
290
     1
  0
XRECORD
  5
2F5
102
{ACAD_REACTORS
330
2F4
102
}
330
2F4
100
AcDbXrecord
280
     1
290
     1
  0
XRECORD
  5
2F7
102
{ACAD_REACTORS
330
2F6
102
}
330
2F6
100
AcDbXrecord
280
     1
290
     1
  0
XRECORD
  5
2F9
102
{ACAD_REACTORS
330
2F8
102
}
330
2F8
100
AcDbXrecord
280
     1
290
     1
  0
LAYOUT
  5
2E6
102
{ACAD_XDICTIONARY
360
30B
102
}
102
{ACAD_REACTORS
330
2D8
102
}
330
2D8
100
AcDbPlotSettings
  1

  2
CutePDF Writer
  4

  6

 40
0.0
 41
0.0
 42
0.0
 43
0.0
 44
0.0
 45
0.0
 46
0.0
 47
0.0
 48
0.0
 49
0.0
140
0.0
141
0.0
142
1.0
143
1.0
 70
  1712
 72
     0
 73
     0
 74
     0
  7

 75
     0
147
1.0
148
0.0
149
0.0
100
AcDbLayout
  1
Model
 70
     1
 71
     0
 10
0.0
 20
0.0
 11
12.0
 21
9.0
 12
0.0
 22
0.0
 32
0.0
 14
0.0
 24
0.0
 34
0.0
 15
0.0
 25
0.0
 35
0.0
146
0.0
 13
0.0
 23
0.0
 33
0.0
 16
1.0
 26
0.0
 36
0.0
 17
0.0
 27
1.0
 37
0.0
 76
     0
330
2E3
331
2E7
  0
LAYOUT
  5
2E2
102
{ACAD_XDICTIONARY
360
309
102
}
102
{ACAD_REACTORS
330
2D8
102
}
330
2D8
100
AcDbPlotSettings
  1

  2
CutePDF Writer
  4

  6

 40
0.0
 41
0.0
 42
0.0
 43
0.0
 44
0.0
 45
0.0
 46
0.0
 47
0.0
 48
0.0
 49
0.0
140
0.0
141
0.0
142
1.0
143
1.0
 70
   688
 72
     0
 73
     0
 74
     5
  7

 75
    16
147
1.0
148
0.0
149
0.0
100
AcDbLayout
  1
Présentation1
 70
     1
 71
     1
 10
0.0
 20
0.0
 11
12.0
 21
9.0
 12
0.0
 22
0.0
 32
0.0
 14
1.000000000000000E+20
 24
1.000000000000000E+20
 34
1.000000000000000E+20
 15
-1.000000000000000E+20
 25
-1.000000000000000E+20
 35
-1.000000000000000E+20
146
0.0
 13
0.0
 23
0.0
 33
0.0
 16
1.0
 26
0.0
 36
0.0
 17
0.0
 27
1.0
 37
0.0
 76
     0
330
2DF
  0
MATERIAL
  5
288
102
{ACAD_XDICTIONARY
360
289
102
}
102
{ACAD_REACTORS
330
27F
102
}
330
27F
100
AcDbMaterial
  1
ByBlock
 72
     0
 43
0.0208333333333333
 43
0.0
 43
0.0
 43
0.0
 43
0.0
 43
0.0208333333333333
 43
0.0
 43
0.0
 43
0.0
 43
0.0
 43
1.0
 43
0.0
 43
0.0
 43
0.0
 43
0.0
 43
1.0
 77
     0
 47
0.0208333333333333
 47
0.0
 47
0.0
 47
0.0
 47
0.0
 47
0.0208333333333333
 47
0.0
 47
0.0
 47
0.0
 47
0.0
 47
1.0
 47
0.0
 47
0.0
 47
0.0
 47
0.0
 47
1.0
171
     0
 49
0.0208333333333333
 49
0.0
 49
0.0
 49
0.0
 49
0.0
 49
0.0208333333333333
 49
0.0
 49
0.0
 49
0.0
 49
0.0
 49
1.0
 49
0.0
 49
0.0
 49
0.0
 49
0.0
 49
1.0
175
     0
142
0.0208333333333333
142
0.0
142
0.0
142
0.0
142
0.0
142
0.0208333333333333
142
0.0
142
0.0
142
0.0
142
0.0
142
1.0
142
0.0
142
0.0
142
0.0
142
0.0
142
1.0
179
     0
144
0.0208333333333333
144
0.0
144
0.0
144
0.0
144
0.0
144
0.0208333333333333
144
0.0
144
0.0
144
0.0
144
0.0
144
1.0
144
0.0
144
0.0
144
0.0
144
0.0
144
1.0
147
0.0208333333333333
147
0.0
147
0.0
147
0.0
147
0.0
147
0.0208333333333333
147
0.0
147
0.0
147
0.0
147
0.0
147
1.0
147
0.0
147
0.0
147
0.0
147
0.0
147
1.0
  0
MATERIAL
  5
280
102
{ACAD_XDICTIONARY
360
281
102
}
102
{ACAD_REACTORS
330
27F
102
}
330
27F
100
AcDbMaterial
  1
ByLayer
 72
     0
 43
0.0208333333333333
 43
0.0
 43
0.0
 43
0.0
 43
0.0
 43
0.0208333333333333
 43
0.0
 43
0.0
 43
0.0
 43
0.0
 43
1.0
 43
0.0
 43
0.0
 43
0.0
 43
0.0
 43
1.0
 77
     0
 47
0.0208333333333333
 47
0.0
 47
0.0
 47
0.0
 47
0.0
 47
0.0208333333333333
 47
0.0
 47
0.0
 47
0.0
 47
0.0
 47
1.0
 47
0.0
 47
0.0
 47
0.0
 47
0.0
 47
1.0
171
     0
 49
0.0208333333333333
 49
0.0
 49
0.0
 49
0.0
 49
0.0
 49
0.0208333333333333
 49
0.0
 49
0.0
 49
0.0
 49
0.0
 49
1.0
 49
0.0
 49
0.0
 49
0.0
 49
0.0
 49
1.0
175
     0
142
0.0208333333333333
142
0.0
142
0.0
142
0.0
142
0.0
142
0.0208333333333333
142
0.0
142
0.0
142
0.0
142
0.0
142
1.0
142
0.0
142
0.0
142
0.0
142
0.0
142
1.0
179
     0
144
0.0208333333333333
144
0.0
144
0.0
144
0.0
144
0.0
144
0.0208333333333333
144
0.0
144
0.0
144
0.0
144
0.0
144
1.0
144
0.0
144
0.0
144
0.0
144
0.0
144
1.0
147
0.0208333333333333
147
0.0
147
0.0
147
0.0
147
0.0
147
0.0208333333333333
147
0.0
147
0.0
147
0.0
147
0.0
147
1.0
147
0.0
147
0.0
147
0.0
147
0.0
147
1.0
  0
MATERIAL
  5
290
102
{ACAD_XDICTIONARY
360
291
102
}
102
{ACAD_REACTORS
330
27F
102
}
330
27F
100
AcDbMaterial
  1
Global
 72
     0
 43
0.0208333333333333
 43
0.0
 43
0.0
 43
0.0
 43
0.0
 43
0.0208333333333333
 43
0.0
 43
0.0
 43
0.0
 43
0.0
 43
1.0
 43
0.0
 43
0.0
 43
0.0
 43
0.0
 43
1.0
 77
     0
 47
0.0208333333333333
 47
0.0
 47
0.0
 47
0.0
 47
0.0
 47
0.0208333333333333
 47
0.0
 47
0.0
 47
0.0
 47
0.0
 47
1.0
 47
0.0
 47
0.0
 47
0.0
 47
0.0
 47
1.0
171
     0
 49
0.0208333333333333
 49
0.0
 49
0.0
 49
0.0
 49
0.0
 49
0.0208333333333333
 49
0.0
 49
0.0
 49
0.0
 49
0.0
 49
1.0
 49
0.0
 49
0.0
 49
0.0
 49
0.0
 49
1.0
175
     0
142
0.0208333333333333
142
0.0
142
0.0
142
0.0
142
0.0
142
0.0208333333333333
142
0.0
142
0.0
142
0.0
142
0.0
142
1.0
142
0.0
142
0.0
142
0.0
142
0.0
142
1.0
179
     0
144
0.0208333333333333
144
0.0
144
0.0
144
0.0
144
0.0
144
0.0208333333333333
144
0.0
144
0.0
144
0.0
144
0.0
144
1.0
144
0.0
144
0.0
144
0.0
144
0.0
144
1.0
147
0.0208333333333333
147
0.0
147
0.0
147
0.0
147
0.0
147
0.0208333333333333
147
0.0
147
0.0
147
0.0
147
0.0
147
1.0
147
0.0
147
0.0
147
0.0
147
0.0
147
1.0
  0
MLEADERSTYLE
  5
2DD
102
{ACAD_REACTORS
330
2DC
102
}
330
2DC
100
AcDbMLeaderStyle
170
     2
171
     1
172
     0
 90
        2
 40
0.0
 41
0.0
173
     1
 91
-1056964608
340
2D1
 92
       -2
290
     1
 42
0.09
291
     1
 43
0.36
  3
Standard
 44
0.18
300

342
2CC
174
     1
178
     6
175
     1
176
     0
 93
-1056964608
 45
0.18
292
     0
297
     0
 46
0.18
 94
-1056964608
 47
1.0
 49
1.0
140
1.0
293
     1
141
0.0
294
     1
177
     0
142
1.0
295
     0
296
     0
143
0.125
1001
ACAD_MLEADERVER
1070
     2
  0
MLINESTYLE
  5
2D6
102
{ACAD_REACTORS
330
2D5
102
}
330
2D5
100
AcDbMlineStyle
  2
STANDARD
 70
     0
  3

 62
   256
 51
90.0
 52
90.0
 71
     2
 49
0.5
 62
   256
  6
BYLAYER
 49
-0.5
 62
   256
  6
BYLAYER
  0
ACDBPLACEHOLDER
  5
27E
102
{ACAD_REACTORS
330
27D
102
}
330
27D
  0
SCALE
  5
2AA
102
{ACAD_REACTORS
330
2A9
102
}
330
2A9
100
AcDbScale
 70
     0
300
1:1
140
1.0
141
1.0
290
     1
  0
SCALE
  5
2AB
102
{ACAD_REACTORS
330
2A9
102
}
330
2A9
100
AcDbScale
 70
     0
300
1:2
140
1.0
141
2.0
290
     0
  0
SCALE
  5
2AC
102
{ACAD_REACTORS
330
2A9
102
}
330
2A9
100
AcDbScale
 70
     0
300
1:4
140
1.0
141
4.0
290
     0
  0
SCALE
  5
2AD
102
{ACAD_REACTORS
330
2A9
102
}
330
2A9
100
AcDbScale
 70
     0
300
1:5
140
1.0
141
5.0
290
     0
  0
SCALE
  5
2AE
102
{ACAD_REACTORS
330
2A9
102
}
330
2A9
100
AcDbScale
 70
     0
300
1:8
140
1.0
141
8.0
290
     0
  0
SCALE
  5
2AF
102
{ACAD_REACTORS
330
2A9
102
}
330
2A9
100
AcDbScale
 70
     0
300
1:10
140
1.0
141
10.0
290
     0
  0
SCALE
  5
2B0
102
{ACAD_REACTORS
330
2A9
102
}
330
2A9
100
AcDbScale
 70
     0
300
1:16
140
1.0
141
16.0
290
     0
  0
SCALE
  5
2B1
102
{ACAD_REACTORS
330
2A9
102
}
330
2A9
100
AcDbScale
 70
     0
300
1:20
140
1.0
141
20.0
290
     0
  0
SCALE
  5
2B2
102
{ACAD_REACTORS
330
2A9
102
}
330
2A9
100
AcDbScale
 70
     0
300
1:30
140
1.0
141
30.0
290
     0
  0
SCALE
  5
2B3
102
{ACAD_REACTORS
330
2A9
102
}
330
2A9
100
AcDbScale
 70
     0
300
1:40
140
1.0
141
40.0
290
     0
  0
SCALE
  5
2B4
102
{ACAD_REACTORS
330
2A9
102
}
330
2A9
100
AcDbScale
 70
     0
300
1:50
140
1.0
141
50.0
290
     0
  0
SCALE
  5
2B5
102
{ACAD_REACTORS
330
2A9
102
}
330
2A9
100
AcDbScale
 70
     0
300
1:100
140
1.0
141
100.0
290
     0
  0
SCALE
  5
2B6
102
{ACAD_REACTORS
330
2A9
102
}
330
2A9
100
AcDbScale
 70
     0
300
2:1
140
2.0
141
1.0
290
     0
  0
SCALE
  5
2B7
102
{ACAD_REACTORS
330
2A9
102
}
330
2A9
100
AcDbScale
 70
     0
300
4:1
140
4.0
141
1.0
290
     0
  0
SCALE
  5
2B8
102
{ACAD_REACTORS
330
2A9
102
}
330
2A9
100
AcDbScale
 70
     0
300
8:1
140
8.0
141
1.0
290
     0
  0
SCALE
  5
2B9
102
{ACAD_REACTORS
330
2A9
102
}
330
2A9
100
AcDbScale
 70
     0
300
10:1
140
10.0
141
1.0
290
     0
  0
SCALE
  5
2BA
102
{ACAD_REACTORS
330
2A9
102
}
330
2A9
100
AcDbScale
 70
     0
300
100:1
140
100.0
141
1.0
290
     0
  0
SCALE
  5
2BB
102
{ACAD_REACTORS
330
2A9
102
}
330
2A9
100
AcDbScale
 70
     0
300
1/128" = 1'-0"
140
0.0078125
141
12.0
290
     0
  0
SCALE
  5
2BC
102
{ACAD_REACTORS
330
2A9
102
}
330
2A9
100
AcDbScale
 70
     0
300
1/64" = 1'-0"
140
0.015625
141
12.0
290
     0
  0
SCALE
  5
2BD
102
{ACAD_REACTORS
330
2A9
102
}
330
2A9
100
AcDbScale
 70
     0
300
1/32" = 1'-0"
140
0.03125
141
12.0
290
     0
  0
SCALE
  5
2BE
102
{ACAD_REACTORS
330
2A9
102
}
330
2A9
100
AcDbScale
 70
     0
300
1/16" = 1'-0"
140
0.0625
141
12.0
290
     0
  0
SCALE
  5
2BF
102
{ACAD_REACTORS
330
2A9
102
}
330
2A9
100
AcDbScale
 70
     0
300
3/32" = 1'-0"
140
0.09375
141
12.0
290
     0
  0
SCALE
  5
2C0
102
{ACAD_REACTORS
330
2A9
102
}
330
2A9
100
AcDbScale
 70
     0
300
1/8" = 1'-0"
140
0.125
141
12.0
290
     0
  0
SCALE
  5
2C1
102
{ACAD_REACTORS
330
2A9
102
}
330
2A9
100
AcDbScale
 70
     0
300
3/16" = 1'-0"
140
0.1875
141
12.0
290
     0
  0
SCALE
  5
2C2
102
{ACAD_REACTORS
330
2A9
102
}
330
2A9
100
AcDbScale
 70
     0
300
1/4" = 1'-0"
140
0.25
141
12.0
290
     0
  0
SCALE
  5
2C3
102
{ACAD_REACTORS
330
2A9
102
}
330
2A9
100
AcDbScale
 70
     0
300
3/8" = 1'-0"
140
0.375
141
12.0
290
     0
  0
SCALE
  5
2C4
102
{ACAD_REACTORS
330
2A9
102
}
330
2A9
100
AcDbScale
 70
     0
300
1/2" = 1'-0"
140
0.5
141
12.0
290
     0
  0
SCALE
  5
2C5
102
{ACAD_REACTORS
330
2A9
102
}
330
2A9
100
AcDbScale
 70
     0
300
3/4" = 1'-0"
140
0.75
141
12.0
290
     0
  0
SCALE
  5
2C6
102
{ACAD_REACTORS
330
2A9
102
}
330
2A9
100
AcDbScale
 70
     0
300
1" = 1'-0"
140
1.0
141
12.0
290
     0
  0
SCALE
  5
2C7
102
{ACAD_REACTORS
330
2A9
102
}
330
2A9
100
AcDbScale
 70
     0
300
1-1/2" = 1'-0"
140
1.5
141
12.0
290
     0
  0
SCALE
  5
2C8
102
{ACAD_REACTORS
330
2A9
102
}
330
2A9
100
AcDbScale
 70
     0
300
3" = 1'-0"
140
3.0
141
12.0
290
     0
  0
SCALE
  5
2C9
102
{ACAD_REACTORS
330
2A9
102
}
330
2A9
100
AcDbScale
 70
     0
300
6" = 1'-0"
140
6.0
141
12.0
290
     0
  0
SCALE
  5
2CA
102
{ACAD_REACTORS
330
2A9
102
}
330
2A9
100
AcDbScale
 70
     0
300
1'-0" = 1'-0"
140
12.0
141
12.0
290
     0
  0
TABLESTYLE
  5
2DB
102
{ACAD_XDICTIONARY
360
301
102
}
102
{ACAD_REACTORS
330
2DA
102
}
330
2DA
100
AcDbTableStyle
  3
Standard
 70
     0
 71
     0
 40
0.06
 41
0.06
280
     0
281
     0
  7
STANDARD
140
0.18
170
     2
 62
     0
 63
     7
283
     0
274
    -2
284
     1
 64
     0
275
    -2
285
     1
 65
     0
276
    -2
286
     1
 66
     0
277
    -2
287
     1
 67
     0
278
    -2
288
     1
 68
     0
279
    -2
289
     1
 69
     0
  7
STANDARD
140
0.25
170
     5
 62
     0
 63
     7
283
     0
274
    -2
284
     1
 64
     0
275
    -2
285
     1
 65
     0
276
    -2
286
     1
 66
     0
277
    -2
287
     1
 67
     0
278
    -2
288
     1
 68
     0
279
    -2
289
     1
 69
     0
  7
STANDARD
140
0.18
170
     5
 62
     0
 63
     7
283
     0
274
    -2
284
     1
 64
     0
275
    -2
285
     1
 65
     0
276
    -2
286
     1
 66
     0
277
    -2
287
     1
 67
     0
278
    -2
288
     1
 68
     0
279
    -2
289
     1
 69
     0
  0
VISUALSTYLE
  5
29E
102
{ACAD_REACTORS
330
298
102
}
330
298
100
AcDbVisualStyle
  2
2dWireframe
 70
     4
 71
     0
 72
     2
 73
     0
 90
        0
 40
-0.6
 41
-30.0
 62
     5
 63
     7
 74
     1
 91
        4
 64
     7
 65
   257
 75
     1
175
     1
 42
1.0
 92
        0
 66
   257
 43
1.0
 76
     1
 77
     6
 78
     2
 67
     7
 79
     5
170
     0
171
     0
290
     0
174
     0
 93
        1
 44
0.0
173
     0
291
     0
 45
0.0
1001
ACAD
1000
AcDbSavedByObjectVersion
1070
     0
  0
VISUALSTYLE
  5
2A0
102
{ACAD_REACTORS
330
298
102
}
330
298
100
AcDbVisualStyle
  2
3D Hidden
 70
     6
 71
     1
 72
     2
 73
     2
 90
        0
 40
-0.6
 41
-30.0
 62
     5
 63
     7
 74
     2
 91
        2
 64
     7
 65
   257
 75
     2
175
     1
 42
40.0
 92
        0
 66
   257
 43
1.0
 76
     1
 77
     6
 78
     2
 67
     7
 79
     3
170
     0
171
     0
290
     0
174
     0
 93
        1
 44
0.0
173
     0
291
     0
 45
0.0
1001
ACAD
1000
AcDbSavedByObjectVersion
1070
     0
  0
VISUALSTYLE
  5
29F
102
{ACAD_REACTORS
330
298
102
}
330
298
100
AcDbVisualStyle
  2
3dWireframe
 70
     5
 71
     0
 72
     2
 73
     0
 90
        0
 40
-0.6
 41
-30.0
 62
     5
 63
     7
 74
     1
 91
        4
 64
     7
 65
   257
 75
     1
175
     1
 42
1.0
 92
        0
 66
   257
 43
1.0
 76
     1
 77
     6
 78
     2
 67
     7
 79
     5
170
     0
171
     0
290
     0
174
     0
 93
        1
 44
0.0
173
     0
291
     0
 45
0.0
1001
ACAD
1000
AcDbSavedByObjectVersion
1070
     0
  0
VISUALSTYLE
  5
29D
102
{ACAD_REACTORS
330
298
102
}
330
298
100
AcDbVisualStyle
  2
Basic
 70
     7
 71
     1
 72
     0
 73
     1
 90
        0
 40
-0.6
 41
-30.0
 62
     5
 63
     7
 74
     0
 91
        4
 64
     7
 65
   257
 75
     1
175
     1
 42
1.0
 92
        8
 66
     7
 43
1.0
 76
     1
 77
     6
 78
     2
 67
     7
 79
     5
170
     0
171
     0
290
     0
174
     0
 93
        1
 44
0.0
173
     0
291
     1
 45
0.0
1001
ACAD
1000
AcDbSavedByObjectVersion
1070
     0
  0
VISUALSTYLE
  5
2A4
102
{ACAD_REACTORS
330
298
102
}
330
298
100
AcDbVisualStyle
  2
Brighten
 70
    12
 71
     2
 72
     2
 73
     0
 90
        0
 40
-0.6
 41
-30.0
 62
     5
 63
     7
 74
     1
 91
        4
 64
     7
 65
   257
 75
     1
175
     1
 42
1.0
 92
        8
 66
     7
 43
1.0
 76
     1
 77
     6
 78
     2
 67
     7
 79
     5
170
     0
171
     0
290
     0
174
     0
 93
        1
 44
50.0
173
     0
291
     1
 45
0.0
1001
ACAD
1000
AcDbSavedByObjectVersion
1070
     0
  0
VISUALSTYLE
  5
2A8
102
{ACAD_REACTORS
330
298
102
}
330
298
100
AcDbVisualStyle
  2
ColorChange
 70
    16
 71
     2
 72
     2
 73
     3
 90
        0
 40
-0.6
 41
-30.0
 62
     5
 63
     8
 74
     1
 91
        4
 64
     7
 65
   257
 75
     1
175
     1
 42
1.0
 92
        8
 66
     8
 43
1.0
 76
     1
 77
     6
 78
     2
 67
     7
 79
     5
170
     0
171
     0
290
     0
174
     0
 93
        1
 44
0.0
173
     0
291
     1
 45
0.0
1001
ACAD
1000
AcDbSavedByObjectVersion
1070
     0
  0
VISUALSTYLE
  5
2A1
102
{ACAD_REACTORS
330
298
102
}
330
298
100
AcDbVisualStyle
  2
Conceptual
 70
     9
 71
     3
 72
     2
 73
     0
 90
        0
 40
-0.6
 41
-30.0
 62
     5
 63
     7
 74
     2
 91
        2
 64
     7
 65
   257
 75
     1
175
     1
 42
40.0
 92
        8
 66
     7
 43
1.0
 76
     1
 77
     6
 78
     2
 67
     7
 79
     3
170
     0
171
     0
290
     0
174
     0
 93
        1
 44
0.0
173
     0
291
     0
 45
0.0
1001
ACAD
1000
AcDbSavedByObjectVersion
1070
     0
  0
VISUALSTYLE
  5
2A3
102
{ACAD_REACTORS
330
298
102
}
330
298
100
AcDbVisualStyle
  2
Dim
 70
    11
 71
     2
 72
     2
 73
     0
 90
        0
 40
-0.6
 41
-30.0
 62
     5
 63
     7
 74
     1
 91
        4
 64
     7
 65
   257
 75
     1
175
     1
 42
1.0
 92
        8
 66
     7
 43
1.0
 76
     1
 77
     6
 78
     2
 67
     7
 79
     5
170
     0
171
     0
290
     0
174
     0
 93
        1
 44
-50.0
173
     0
291
     1
 45
0.0
1001
ACAD
1000
AcDbSavedByObjectVersion
1070
     0
  0
VISUALSTYLE
  5
2A7
102
{ACAD_REACTORS
330
298
102
}
330
298
100
AcDbVisualStyle
  2
Facepattern
 70
    15
 71
     2
 72
     2
 73
     0
 90
        0
 40
-0.6
 41
-30.0
 62
     5
 63
     7
 74
     1
 91
        4
 64
     7
 65
   257
 75
     1
175
     1
 42
1.0
 92
        8
 66
     7
 43
1.0
 76
     1
 77
     6
 78
     2
 67
     7
 79
     5
170
     0
171
     0
290
     0
174
     0
 93
        1
 44
0.0
173
     0
291
     1
 45
0.0
1001
ACAD
1000
AcDbSavedByObjectVersion
1070
     0
  0
VISUALSTYLE
  5
299
102
{ACAD_REACTORS
330
298
102
}
330
298
100
AcDbVisualStyle
  2
Flat
 70
     0
 71
     2
 72
     1
 73
     1
 90
        2
 40
-0.6
 41
30.0
 62
     5
 63
     7
 74
     0
 91
        4
 64
     7
 65
   257
 75
     1
175
     1
 42
1.0
 92
        8
 66
     7
 43
1.0
 76
     1
 77
     6
 78
     2
 67
     7
 79
     5
170
     0
171
     0
290
     0
174
     0
 93
       13
 44
0.0
173
     0
291
     1
 45
0.0
1001
ACAD
1000
AcDbSavedByObjectVersion
1070
     0
  0
VISUALSTYLE
  5
29A
102
{ACAD_REACTORS
330
298
102
}
330
298
100
AcDbVisualStyle
  2
FlatWithEdges
 70
     1
 71
     2
 72
     1
 73
     1
 90
        2
 40
-0.6
 41
30.0
 62
     5
 63
     7
 74
     1
 91
        4
 64
     7
 65
   257
 75
     1
175
     1
 42
1.0
 92
        0
 66
   257
 43
1.0
 76
     1
 77
     6
 78
     2
 67
     7
 79
     5
170
     0
171
     0
290
     0
174
     0
 93
       13
 44
0.0
173
     0
291
     1
 45
0.0
1001
ACAD
1000
AcDbSavedByObjectVersion
1070
     0
  0
VISUALSTYLE
  5
29B
102
{ACAD_REACTORS
330
298
102
}
330
298
100
AcDbVisualStyle
  2
Gouraud
 70
     2
 71
     2
 72
     2
 73
     1
 90
        2
 40
-0.6
 41
30.0
 62
     5
 63
     7
 74
     0
 91
        4
 64
     7
 65
   257
 75
     1
175
     1
 42
1.0
 92
        0
 66
     7
 43
1.0
 76
     1
 77
     6
 78
     2
 67
     7
 79
     5
170
     0
171
     0
290
     0
174
     0
 93
       13
 44
0.0
173
     0
291
     1
 45
0.0
1001
ACAD
1000
AcDbSavedByObjectVersion
1070
     0
  0
VISUALSTYLE
  5
29C
102
{ACAD_REACTORS
330
298
102
}
330
298
100
AcDbVisualStyle
  2
GouraudWithEdges
 70
     3
 71
     2
 72
     2
 73
     1
 90
        2
 40
-0.6
 41
30.0
 62
     5
 63
     7
 74
     1
 91
        4
 64
     7
 65
   257
 75
     1
175
     1
 42
1.0
 92
        0
 66
   257
 43
1.0
 76
     1
 77
     6
 78
     2
 67
     7
 79
     5
170
     0
171
     0
290
     0
174
     0
 93
       13
 44
0.0
173
     0
291
     1
 45
0.0
1001
ACAD
1000
AcDbSavedByObjectVersion
1070
     0
  0
VISUALSTYLE
  5
2A6
102
{ACAD_REACTORS
330
298
102
}
330
298
100
AcDbVisualStyle
  2
Linepattern
 70
    14
 71
     2
 72
     2
 73
     0
 90
        0
 40
-0.6
 41
-30.0
 62
     5
 63
     7
 74
     1
 91
        4
 64
     7
 65
   257
 75
     7
175
     7
 42
1.0
 92
        8
 66
     7
 43
1.0
 76
     1
 77
     6
 78
     2
 67
     7
 79
     5
170
     0
171
     0
290
     0
174
     0
 93
        1
 44
0.0
173
     0
291
     1
 45
0.0
1001
ACAD
1000
AcDbSavedByObjectVersion
1070
     0
  0
VISUALSTYLE
  5
2A2
102
{ACAD_REACTORS
330
298
102
}
330
298
100
AcDbVisualStyle
  2
Realistic
 70
     8
 71
     2
 72
     2
 73
     0
 90
        0
 40
-0.6
 41
-30.0
 62
     5
 63
     7
 74
     1
 91
        0
 64
     7
 65
   257
 75
     1
175
     1
 42
1.0
 92
        8
 66
     8
 43
1.0
 76
     1
 77
     6
 78
     2
 67
     7
 79
     5
170
     0
171
     0
290
     0
174
     0
 93
       13
 44
0.0
173
     0
291
     0
 45
0.0
1001
ACAD
1000
AcDbSavedByObjectVersion
1070
     0
  0
VISUALSTYLE
  5
2A5
102
{ACAD_REACTORS
330
298
102
}
330
298
100
AcDbVisualStyle
  2
Thicken
 70
    13
 71
     2
 72
     2
 73
     0
 90
        0
 40
-0.6
 41
-30.0
 62
     5
 63
     7
 74
     1
 91
        4
 64
     7
 65
   257
 75
     1
175
     1
 42
1.0
 92
       12
 66
     7
 43
1.0
 76
     1
 77
     6
 78
     2
 67
     7
 79
     5
170
     0
171
     0
290
     0
174
     0
 93
        1
 44
0.0
173
     0
291
     1
 45
0.0
1001
ACAD
1000
AcDbSavedByObjectVersion
1070
     0
  0
DICTIONARYVAR
  5
2FD
102
{ACAD_REACTORS
330
2FA
102
}
330
2FA
100
DictionaryVariables
280
     0
  1
1:1
  0
DICTIONARYVAR
  5
2FC
102
{ACAD_REACTORS
330
2FA
102
}
330
2FA
100
DictionaryVariables
280
     0
  1
STANDARD
  0
DICTIONARYVAR
  5
2FB
102
{ACAD_REACTORS
330
2FA
102
}
330
2FA
100
DictionaryVariables
280
     0
  1
STANDARD
  0
DICTIONARYVAR
  5
300
102
{ACAD_REACTORS
330
2FA
102
}
330
2FA
100
DictionaryVariables
280
     0
  1
1
  0
DICTIONARYVAR
  5
2FF
102
{ACAD_REACTORS
330
2FA
102
}
330
2FA
100
DictionaryVariables
280
     0
  1
0
  0
DICTIONARYVAR
  5
2FE
102
{ACAD_REACTORS
330
2FA
102
}
330
2FA
100
DictionaryVariables
280
     0
  1
127
  0
DICTIONARY
  5
30B
330
2E6
100
AcDbDictionary
280
     1
281
     1
  3
ACAD_XREC_ROUNDTRIP
360
30C
  0
DICTIONARY
  5
309
330
2E2
100
AcDbDictionary
280
     1
281
     1
  3
ACAD_XREC_ROUNDTRIP
360
30A
  0
DICTIONARY
  5
289
330
288
100
AcDbDictionary
280
     1
281
     1
  3
ACAD_XREC_ROUNDTRIP
360
306
  3
BUMPTILE
360
28B
  3
DIFFUSETILE
360
28A
  3
OPACITYTILE
360
28E
  3
REFLECTIONTILE
360
28D
  3
REFRACTIONTILE
360
28F
  3
SPECULARTILE
360
28C
  0
DICTIONARY
  5
281
330
280
100
AcDbDictionary
280
     1
281
     1
  3
ACAD_XREC_ROUNDTRIP
360
305
  3
BUMPTILE
360
283
  3
DIFFUSETILE
360
282
  3
OPACITYTILE
360
286
  3
REFLECTIONTILE
360
285
  3
REFRACTIONTILE
360
287
  3
SPECULARTILE
360
284
  0
DICTIONARY
  5
291
330
290
100
AcDbDictionary
280
     1
281
     1
  3
ACAD_XREC_ROUNDTRIP
360
307
  3
BUMPTILE
360
293
  3
DIFFUSETILE
360
292
  3
OPACITYTILE
360
296
  3
REFLECTIONTILE
360
295
  3
REFRACTIONTILE
360
297
  3
SPECULARTILE
360
294
  0
DICTIONARY
  5
301
330
2DB
100
AcDbDictionary
280
     1
281
     1
  3
ACAD_ROUNDTRIP_2008_TABLESTYLE_CELLSTYLEMAP
360
302
  3
ACAD_XREC_ROUNDTRIP
360
308
  0
XRECORD
  5
30C
102
{ACAD_REACTORS
330
30B
102
}
330
30B
100
AcDbXrecord
280
     1
102
SHADEPLOT
 70
     0
102
SHADEPLOTRESLEVEL
 70
     2
102
SHADEPLOTCUSTOMDPI
 70
   300
  0
XRECORD
  5
30A
102
{ACAD_REACTORS
330
309
102
}
330
309
100
AcDbXrecord
280
     1
102
SHADEPLOT
 70
     0
102
SHADEPLOTRESLEVEL
 70
     2
102
SHADEPLOTCUSTOMDPI
 70
   300
  0
XRECORD
  5
306
102
{ACAD_REACTORS
330
289
102
}
330
289
100
AcDbXrecord
280
     1
102
MATERIAL
148
0.0
149
0.0
149
0.0
 93
        0
 94
      127
282
     0
 72
     0
 77
     0
171
     0
175
     0
179
     0
273
     0
  0
XRECORD
  5
28B
102
{ACAD_REACTORS
330
289
102
}
330
289
100
AcDbXrecord
280
     1
270
     1
271
     1
  0
XRECORD
  5
28A
102
{ACAD_REACTORS
330
289
102
}
330
289
100
AcDbXrecord
280
     1
270
     1
271
     1
  0
XRECORD
  5
28E
102
{ACAD_REACTORS
330
289
102
}
330
289
100
AcDbXrecord
280
     1
270
     1
271
     1
  0
XRECORD
  5
28D
102
{ACAD_REACTORS
330
289
102
}
330
289
100
AcDbXrecord
280
     1
270
     1
271
     1
  0
XRECORD
  5
28F
102
{ACAD_REACTORS
330
289
102
}
330
289
100
AcDbXrecord
280
     1
270
     1
271
     1
  0
XRECORD
  5
28C
102
{ACAD_REACTORS
330
289
102
}
330
289
100
AcDbXrecord
280
     1
270
     1
271
     1
  0
XRECORD
  5
305
102
{ACAD_REACTORS
330
281
102
}
330
281
100
AcDbXrecord
280
     1
102
MATERIAL
148
0.0
149
0.0
149
0.0
 93
        0
 94
      127
282
     0
 72
     0
 77
     0
171
     0
175
     0
179
     0
273
     0
  0
XRECORD
  5
283
102
{ACAD_REACTORS
330
281
102
}
330
281
100
AcDbXrecord
280
     1
270
     1
271
     1
  0
XRECORD
  5
282
102
{ACAD_REACTORS
330
281
102
}
330
281
100
AcDbXrecord
280
     1
270
     1
271
     1
  0
XRECORD
  5
286
102
{ACAD_REACTORS
330
281
102
}
330
281
100
AcDbXrecord
280
     1
270
     1
271
     1
  0
XRECORD
  5
285
102
{ACAD_REACTORS
330
281
102
}
330
281
100
AcDbXrecord
280
     1
270
     1
271
     1
  0
XRECORD
  5
287
102
{ACAD_REACTORS
330
281
102
}
330
281
100
AcDbXrecord
280
     1
270
     1
271
     1
  0
XRECORD
  5
284
102
{ACAD_REACTORS
330
281
102
}
330
281
100
AcDbXrecord
280
     1
270
     1
271
     1
  0
XRECORD
  5
307
102
{ACAD_REACTORS
330
291
102
}
330
291
100
AcDbXrecord
280
     1
102
MATERIAL
148
0.0
149
0.0
149
0.0
 93
        0
 94
      127
282
     0
 72
     0
 77
     0
171
     0
175
     0
179
     0
273
     0
  0
XRECORD
  5
293
102
{ACAD_REACTORS
330
291
102
}
330
291
100
AcDbXrecord
280
     1
270
     1
271
     1
  0
XRECORD
  5
292
102
{ACAD_REACTORS
330
291
102
}
330
291
100
AcDbXrecord
280
     1
270
     1
271
     1
  0
XRECORD
  5
296
102
{ACAD_REACTORS
330
291
102
}
330
291
100
AcDbXrecord
280
     1
270
     1
271
     1
  0
XRECORD
  5
295
102
{ACAD_REACTORS
330
291
102
}
330
291
100
AcDbXrecord
280
     1
270
     1
271
     1
  0
XRECORD
  5
297
102
{ACAD_REACTORS
330
291
102
}
330
291
100
AcDbXrecord
280
     1
270
     1
271
     1
  0
XRECORD
  5
294
102
{ACAD_REACTORS
330
291
102
}
330
291
100
AcDbXrecord
280
     1
270
     1
271
     1
  0
CELLSTYLEMAP
  5
302
102
{ACAD_REACTORS
330
301
102
}
330
301
100
AcDbCellStyleMap
 90
        3
300
CELLSTYLE
  1
TABLEFORMAT_BEGIN
 90
        5
170
     1
 91
        0
 92
    32768
 62
   257
 93
        1
300
CONTENTFORMAT
  1
CONTENTFORMAT_BEGIN
 90
        0
 91
        0
 92
      512
 93
        0
300

 40
0.0
140
1.0
 94
        5
 62
     0
340
2CC
144
0.25
309
CONTENTFORMAT_END
171
     0
 94
        0
309
TABLEFORMAT_END
  1
CELLSTYLE_BEGIN
 90
        1
 91
        1
300
_TITLE
309
CELLSTYLE_END
300
CELLSTYLE
  1
TABLEFORMAT_BEGIN
 90
        5
170
     1
 91
        0
 92
        0
 62
   257
 93
        1
300
CONTENTFORMAT
  1
CONTENTFORMAT_BEGIN
 90
        0
 91
        0
 92
      512
 93
        0
300

 40
0.0
140
1.0
 94
        5
 62
     0
340
2CC
144
0.18
309
CONTENTFORMAT_END
171
     0
 94
        0
309
TABLEFORMAT_END
  1
CELLSTYLE_BEGIN
 90
        2
 91
        1
300
_HEADER
309
CELLSTYLE_END
300
CELLSTYLE
  1
TABLEFORMAT_BEGIN
 90
        5
170
     1
 91
        0
 92
        0
 62
   257
 93
        1
300
CONTENTFORMAT
  1
CONTENTFORMAT_BEGIN
 90
        0
 91
        0
 92
      512
 93
        0
300

 40
0.0
140
1.0
 94
        2
 62
     0
340
2CC
144
0.18
309
CONTENTFORMAT_END
171
     0
 94
        0
309
TABLEFORMAT_END
  1
CELLSTYLE_BEGIN
 90
        3
 91
        2
300
_DATA
309
CELLSTYLE_END
  0
XRECORD
  5
308
102
{ACAD_REACTORS
330
301
102
}
330
301
100
AcDbXrecord
280
     1
102
ACAD_ROUNDTRIP_PRE2007_TABLESTYLE
 90
      512
 91
        0
  1

 92
      512
 93
        0
  2

 94
      512
 95
        0
  3

  0
ENDSEC
  0
EOF
