  0
SECTION
  2
HEADER
  9
$ACADVER
  1
AC1015
  9
$ACADMAINTVER
 70
    20
  9
$DWGCODEPAGE
  3
ANSI_1252
  9
$INSBASE
 10
0.0
 20
0.0
 30
0.0
  9
$EXTMIN
 10
-134.3642201194939
 20
-148.2067605411976
 30
-0.0015258207003583
  9
$EXTMAX
 10
165.2658297868165
 20
151.2372829872338
 30
0.0000000349246037
  9
$LIMMIN
 10
0.0
 20
0.0
  9
$LIMMAX
 10
12.0
 20
9.0
  9
$ORTHOMODE
 70
     0
  9
$REGENMODE
 70
     1
  9
$FILLMODE
 70
     1
  9
$QTEXTMODE
 70
     0
  9
$MIRRTEXT
 70
     1
  9
$LTSCALE
 40
1.0
  9
$ATTMODE
 70
     1
  9
$TEXTSIZE
 40
0.2
  9
$TRACEWID
 40
0.05
  9
$TEXTSTYLE
  7
STANDARD
  9
$CLAYER
  8
0
  9
$CELTYPE
  6
ByLayer
  9
$CECOLOR
 62
   256
  9
$CELTSCALE
 40
1.0
  9
$DISPSILH
 70
     0
  9
$DIMSCALE
 40
1.0
  9
$DIMASZ
 40
0.18
  9
$DIMEXO
 40
0.0625
  9
$DIMDLI
 40
0.38
  9
$DIMRND
 40
0.0
  9
$DIMDLE
 40
0.0
  9
$DIMEXE
 40
0.18
  9
$DIMTP
 40
0.0
  9
$DIMTM
 40
0.0
  9
$DIMTXT
 40
0.18
  9
$DIMCEN
 40
0.09
  9
$DIMTSZ
 40
0.0
  9
$DIMTOL
 70
     0
  9
$DIMLIM
 70
     0
  9
$DIMTIH
 70
     1
  9
$DIMTOH
 70
     1
  9
$DIMSE1
 70
     0
  9
$DIMSE2
 70
     0
  9
$DIMTAD
 70
     0
  9
$DIMZIN
 70
     0
  9
$DIMBLK
  1

  9
$DIMASO
 70
     1
  9
$DIMSHO
 70
     1
  9
$DIMPOST
  1

  9
$DIMAPOST
  1

  9
$DIMALT
 70
     0
  9
$DIMALTD
 70
     2
  9
$DIMALTF
 40
25.4
  9
$DIMLFAC
 40
1.0
  9
$DIMTOFL
 70
     0
  9
$DIMTVP
 40
0.0
  9
$DIMTIX
 70
     0
  9
$DIMSOXD
 70
     0
  9
$DIMSAH
 70
     0
  9
$DIMBLK1
  1

  9
$DIMBLK2
  1

  9
$DIMSTYLE
  2
STANDARD
  9
$DIMCLRD
 70
     0
  9
$DIMCLRE
 70
     0
  9
$DIMCLRT
 70
     0
  9
$DIMTFAC
 40
1.0
  9
$DIMGAP
 40
0.09
  9
$DIMJUST
 70
     0
  9
$DIMSD1
 70
     0
  9
$DIMSD2
 70
     0
  9
$DIMTOLJ
 70
     1
  9
$DIMTZIN
 70
     0
  9
$DIMALTZ
 70
     0
  9
$DIMALTTZ
 70
     0
  9
$DIMUPT
 70
     0
  9
$DIMDEC
 70
     4
  9
$DIMTDEC
 70
     4
  9
$DIMALTU
 70
     2
  9
$DIMALTTD
 70
     2
  9
$DIMTXSTY
  7
STANDARD
  9
$DIMAUNIT
 70
     0
  9
$DIMADEC
 70
     0
  9
$DIMALTRND
 40
0.0
  9
$DIMAZIN
 70
     0
  9
$DIMDSEP
 70
    46
  9
$DIMATFIT
 70
     3
  9
$DIMFRAC
 70
     0
  9
$DIMLDRBLK
  1

  9
$DIMLUNIT
 70
     2
  9
$DIMLWD
 70
    -2
  9
$DIMLWE
 70
    -2
  9
$DIMTMOVE
 70
     0
  9
$LUNITS
 70
     2
  9
$LUPREC
 70
     4
  9
$SKETCHINC
 40
0.1
  9
$FILLETRAD
 40
0.5
  9
$AUNITS
 70
     0
  9
$AUPREC
 70
     0
  9
$MENU
  1
.
  9
$ELEVATION
 40
0.0
  9
$PELEVATION
 40
0.0
  9
$THICKNESS
 40
0.0
  9
$LIMCHECK
 70
     0
  9
$CHAMFERA
 40
0.5
  9
$CHAMFERB
 40
0.5
  9
$CHAMFERC
 40
0.0
  9
$CHAMFERD
 40
0.0
  9
$SKPOLY
 70
     0
  9
$TDCREATE
 40
2454910.500000000
  9
$TDUCREATE
 40
2454910.458333334
  9
$TDUPDATE
 40
2457345.533805232
  9
$TDUUPDATE
 40
2457345.492138565
  9
$TDINDWG
 40
0.0016422454
  9
$TDUSRTIMER
 40
0.0016422454
  9
$USRTIMER
 70
     1
  9
$ANGBASE
 50
0.0
  9
$ANGDIR
 70
     0
  9
$PDMODE
 70
     0
  9
$PDSIZE
 40
0.0
  9
$PLINEWID
 40
0.0
  9
$SPLFRAME
 70
     0
  9
$SPLINETYPE
 70
     6
  9
$SPLINESEGS
 70
     8
  9
$HANDSEED
  5
2E94
  9
$SURFTAB1
 70
     6
  9
$SURFTAB2
 70
     6
  9
$SURFTYPE
 70
     6
  9
$SURFU
 70
     6
  9
$SURFV
 70
     6
  9
$UCSBASE
  2

  9
$UCSNAME
  2

  9
$UCSORG
 10
0.0
 20
0.0
 30
0.0
  9
$UCSXDIR
 10
1.0
 20
0.0
 30
0.0
  9
$UCSYDIR
 10
0.0
 20
1.0
 30
0.0
  9
$UCSORTHOREF
  2

  9
$UCSORTHOVIEW
 70
     0
  9
$UCSORGTOP
 10
0.0
 20
0.0
 30
0.0
  9
$UCSORGBOTTOM
 10
0.0
 20
0.0
 30
0.0
  9
$UCSORGLEFT
 10
0.0
 20
0.0
 30
0.0
  9
$UCSORGRIGHT
 10
0.0
 20
0.0
 30
0.0
  9
$UCSORGFRONT
 10
0.0
 20
0.0
 30
0.0
  9
$UCSORGBACK
 10
0.0
 20
0.0
 30
0.0
  9
$PUCSBASE
  2

  9
$PUCSNAME
  2

  9
$PUCSORG
 10
0.0
 20
0.0
 30
0.0
  9
$PUCSXDIR
 10
1.0
 20
0.0
 30
0.0
  9
$PUCSYDIR
 10
0.0
 20
1.0
 30
0.0
  9
$PUCSORTHOREF
  2

  9
$PUCSORTHOVIEW
 70
     0
  9
$PUCSORGTOP
 10
0.0
 20
0.0
 30
0.0
  9
$PUCSORGBOTTOM
 10
0.0
 20
0.0
 30
0.0
  9
$PUCSORGLEFT
 10
0.0
 20
0.0
 30
0.0
  9
$PUCSORGRIGHT
 10
0.0
 20
0.0
 30
0.0
  9
$PUCSORGFRONT
 10
0.0
 20
0.0
 30
0.0
  9
$PUCSORGBACK
 10
0.0
 20
0.0
 30
0.0
  9
$USERI1
 70
     0
  9
$USERI2
 70
     0
  9
$USERI3
 70
     0
  9
$USERI4
 70
     0
  9
$USERI5
 70
     0
  9
$USERR1
 40
0.0
  9
$USERR2
 40
0.0
  9
$USERR3
 40
0.0
  9
$USERR4
 40
0.0
  9
$USERR5
 40
0.0
  9
$WORLDVIEW
 70
     1
  9
$SHADEDGE
 70
     3
  9
$SHADEDIF
 70
    70
  9
$TILEMODE
 70
     1
  9
$MAXACTVP
 70
    64
  9
$PINSBASE
 10
0.0
 20
0.0
 30
0.0
  9
$PLIMCHECK
 70
     0
  9
$PEXTMIN
 10
1.000000000000000E+20
 20
1.000000000000000E+20
 30
1.000000000000000E+20
  9
$PEXTMAX
 10
-1.000000000000000E+20
 20
-1.000000000000000E+20
 30
-1.000000000000000E+20
  9
$PLIMMIN
 10
0.0
 20
0.0
  9
$PLIMMAX
 10
12.0
 20
9.0
  9
$UNITMODE
 70
     0
  9
$VISRETAIN
 70
     1
  9
$PLINEGEN
 70
     0
  9
$PSLTSCALE
 70
     1
  9
$TREEDEPTH
 70
  3020
  9
$CMLSTYLE
  2
Standard
  9
$CMLJUST
 70
     0
  9
$CMLSCALE
 40
1.0
  9
$PROXYGRAPHICS
 70
     1
  9
$MEASUREMENT
 70
     0
  9
$CELWEIGHT
370
    -1
  9
$ENDCAPS
280
     0
  9
$JOINSTYLE
280
     0
  9
$LWDISPLAY
290
     0
  9
$INSUNITS
 70
     0
  9
$HYPERLINKBASE
  1

  9
$STYLESHEET
  1

  9
$XEDIT
290
     1
  9
$CEPSNTYPE
380
     0
  9
$PSTYLEMODE
290
     1
  9
$FINGERPRINTGUID
  2
{849274AB-2B70-491B-A251-509AC0201F5A}
  9
$VERSIONGUID
  2
{EBCDE5FB-B36E-46D0-87D8-A5F84C33C755}
  9
$EXTNAMES
290
     1
  9
$PSVPSCALE
 40
0.0
  9
$OLESTARTUP
290
     0
  0
ENDSEC
  0
SECTION
  2
CLASSES
  0
CLASS
  1
ACDBDICTIONARYWDFLT
  2
AcDbDictionaryWithDefault
  3
ObjectDBX Classes
 90
        0
280
     0
281
     0
  0
CLASS
  1
MATERIAL
  2
AcDbMaterial
  3
ObjectDBX Classes
 90
     1153
280
     0
281
     0
  0
CLASS
  1
VISUALSTYLE
  2
AcDbVisualStyle
  3
ObjectDBX Classes
 90
     4095
280
     0
281
     0
  0
CLASS
  1
SCALE
  2
AcDbScale
  3
ObjectDBX Classes
 90
     1153
280
     0
281
     0
  0
CLASS
  1
TABLESTYLE
  2
AcDbTableStyle
  3
ObjectDBX Classes
 90
     4095
280
     0
281
     0
  0
CLASS
  1
MLEADERSTYLE
  2
AcDbMLeaderStyle
  3
ACDB_MLEADERSTYLE_CLASS
 90
     4095
280
     0
281
     0
  0
CLASS
  1
SORTENTSTABLE
  2
AcDbSortentsTable
  3
ObjectDBX Classes
 90
        0
280
     0
281
     0
  0
CLASS
  1
DICTIONARYVAR
  2
AcDbDictionaryVar
  3
ObjectDBX Classes
 90
        0
280
     0
281
     0
  0
CLASS
  1
CELLSTYLEMAP
  2
AcDbCellStyleMap
  3
ObjectDBX Classes
 90
     1152
280
     0
281
     0
  0
CLASS
  1
ACDBPLACEHOLDER
  2
AcDbPlaceHolder
  3
ObjectDBX Classes
 90
        0
280
     0
281
     0
  0
CLASS
  1
LAYOUT
  2
AcDbLayout
  3
ObjectDBX Classes
 90
        0
280
     0
281
     0
  0
ENDSEC
  0
SECTION
  2
TABLES
  0
TABLE
  2
VPORT
  5
2DEA
330
0
100
AcDbSymbolTable
 70
     1
  0
VPORT
  5
2E5A
330
2DEA
100
AcDbSymbolTableRecord
100
AcDbViewportTableRecord
  2
*ACTIVE
 70
     0
 10
0.0
 20
0.0
 11
1.0
 21
1.0
 12
75.30817705353275
 22
127.0463285227868
 13
0.0
 23
0.0
 14
0.5
 24
0.5
 15
0.5
 25
0.5
 16
0.0
 26
0.0
 36
1.0
 17
0.0
 27
0.0
 37
0.0
 40
110.7901855189898
 41
2.492156862745098
 42
50.0
 43
0.0
 44
0.0
 50
0.0
 51
0.0
 71
     0
 72
   100
 73
     1
 74
     3
 75
     0
 76
     0
 77
     0
 78
     0
281
     0
 65
     1
110
0.0
120
0.0
130
0.0
111
1.0
121
0.0
131
0.0
112
0.0
122
1.0
132
0.0
 79
     0
146
0.0
  0
ENDTAB
  0
TABLE
  2
LTYPE
  5
2DE7
330
0
100
AcDbSymbolTable
 70
     2
  0
LTYPE
  5
2E44
330
2DE7
100
AcDbSymbolTableRecord
100
AcDbLinetypeTableRecord
  2
ByBlock
 70
     0
  3

 72
    65
 73
     0
 40
0.0
  0
LTYPE
  5
2E45
330
2DE7
100
AcDbSymbolTableRecord
100
AcDbLinetypeTableRecord
  2
ByLayer
 70
     0
  3

 72
    65
 73
     0
 40
0.0
  0
LTYPE
  5
2E46
330
2DE7
100
AcDbSymbolTableRecord
100
AcDbLinetypeTableRecord
  2
CONTINUOUS
 70
     0
  3
Solid line
 72
    65
 73
     0
 40
0.0
  0
LTYPE
  5
2E5B
330
2DE7
100
AcDbSymbolTableRecord
100
AcDbLinetypeTableRecord
  2
CONTINUOUS2
 70
     0
  3
Solid Line
 72
    65
 73
     0
 40
0.0
  0
ENDTAB
  0
TABLE
  2
LAYER
  5
2DE4
330
0
100
AcDbSymbolTable
 70
     1
  0
LAYER
  5
2E3E
102
{ACAD_XDICTIONARY
360
2E62
102
}
330
2DE4
100
AcDbSymbolTableRecord
100
AcDbLayerTableRecord
  2
0
 70
     0
 62
     7
  6
CONTINUOUS
370
    -3
390
2DF1
  0
ENDTAB
  0
TABLE
  2
STYLE
  5
2DE5
330
0
100
AcDbSymbolTable
 70
     5
  0
STYLE
  5
2E3F
330
2DE5
100
AcDbSymbolTableRecord
100
AcDbTextStyleTableRecord
  2
STANDARD
 70
     0
 40
0.0
 41
1.0
 50
0.0
 71
     0
 42
0.2
  3
txt
  4

  0
STYLE
  5
2E43
330
2DE5
100
AcDbSymbolTableRecord
100
AcDbTextStyleTableRecord
  2
Annotative
 70
     0
 40
0.0
 41
1.0
 50
0.0
 71
     0
 42
0.2
  3
txt
  4

1001
AcadAnnotative
1000
AnnotativeData
1002
{
1070
     1
1070
     1
1002
}
  0
ENDTAB
  0
TABLE
  2
VIEW
  5
2DE8
330
0
100
AcDbSymbolTable
 70
     0
  0
ENDTAB
  0
TABLE
  2
UCS
  5
2DE9
330
0
100
AcDbSymbolTable
 70
     0
  0
ENDTAB
  0
TABLE
  2
APPID
  5
2DEB
330
0
100
AcDbSymbolTable
 70
     4
  0
APPID
  5
2E40
330
2DEB
100
AcDbSymbolTableRecord
100
AcDbRegAppTableRecord
  2
ACAD
 70
     0
  0
APPID
  5
2E47
330
2DEB
100
AcDbSymbolTableRecord
100
AcDbRegAppTableRecord
  2
AcadAnnotative
 70
     0
  0
APPID
  5
2E51
330
2DEB
100
AcDbSymbolTableRecord
100
AcDbRegAppTableRecord
  2
ACAD_MLEADERVER
 70
     0
  0
APPID
  5
2E64
330
2DEB
100
AcDbSymbolTableRecord
100
AcDbRegAppTableRecord
  2
ACAD_PSEXT
 70
     0
  0
ENDTAB
  0
TABLE
  2
DIMSTYLE
  5
2DEC
330
0
100
AcDbSymbolTable
 70
     5
100
AcDbDimStyleTable
 71
     1
340
2E41
  0
DIMSTYLE
105
2E41
330
2DEC
100
AcDbSymbolTableRecord
100
AcDbDimStyleTableRecord
  2
STANDARD
 70
     0
279
     2
340
2E3F
  0
DIMSTYLE
105
2E42
330
2DEC
100
AcDbSymbolTableRecord
100
AcDbDimStyleTableRecord
  2
Annotative
 70
     0
340
2E3F
1001
AcadAnnotative
1000
AnnotativeData
1002
{
1070
     1
1070
     1
1002
}
  0
ENDTAB
  0
TABLE
  2
BLOCK_RECORD
  5
2DE3
330
0
100
AcDbSymbolTable
 70
     5
  0
BLOCK_RECORD
  5
2E56
102
{ACAD_XDICTIONARY
360
2E6F
102
}
330
2DE3
100
AcDbSymbolTableRecord
100
AcDbBlockTableRecord
  2
*Model_Space
340
2E59
  0
BLOCK_RECORD
  5
2E52
330
2DE3
100
AcDbSymbolTableRecord
100
AcDbBlockTableRecord
  2
*Paper_Space
340
2E55
  0
BLOCK_RECORD
  5
2E5D
330
2DE3
100
AcDbSymbolTableRecord
100
AcDbBlockTableRecord
  2
$MODEL_SPACE
340
0
  0
BLOCK_RECORD
  5
2E5F
330
2DE3
100
AcDbSymbolTableRecord
100
AcDbBlockTableRecord
  2
$PAPER_SPACE
340
0
  0
ENDTAB
  0
ENDSEC
  0
SECTION
  2
BLOCKS
  0
BLOCK
  5
2E57
330
2E56
100
AcDbEntity
  8
0
100
AcDbBlockBegin
  2
*Model_Space
 70
     0
 10
0.0
 20
0.0
 30
0.0
  3
*Model_Space
  1

  0
ENDBLK
  5
2E58
330
2E56
100
AcDbEntity
  8
0
100
AcDbBlockEnd
  0
BLOCK
  5
2E53
330
2E52
100
AcDbEntity
 67
     1
  8
0
100
AcDbBlockBegin
  2
*Paper_Space
 70
     0
 10
0.0
 20
0.0
 30
0.0
  3
*Paper_Space
  1

  0
ENDBLK
  5
2E54
330
2E52
100
AcDbEntity
 67
     1
  8
0
100
AcDbBlockEnd
  0
BLOCK
  5
2E5E
330
2E5D
100
AcDbEntity
  8
0
100
AcDbBlockBegin
  2
$MODEL_SPACE
 70
     0
 10
0.0
 20
0.0
 30
0.0
  3
$MODEL_SPACE
  1

  0
ENDBLK
  5
21
330
2E5D
100
AcDbEntity
  8
0
100
AcDbBlockEnd
  0
BLOCK
  5
2E60
330
2E5F
100
AcDbEntity
  8
0
100
AcDbBlockBegin
  2
$PAPER_SPACE
 70
     0
 10
0.0
 20
0.0
 30
0.0
  3
$PAPER_SPACE
  1

  0
ENDBLK
  5
1D
330
2E5F
100
AcDbEntity
  8
0
100
AcDbBlockEnd
  0
ENDSEC
  0
SECTION
  2
ENTITIES
  0
LWPOLYLINE
  5
428
330
2E56
100
AcDbEntity
  8
0
100
AcDbPolyline
 90
        9
 70
     0
 43
0.0
 10
-120.7946179075121
 20
1.506091586196873
 10
-115.6220436157105
 20
6.665389423933504
 10
-115.620227730387
 20
8.078529927682495
 10
-117.0333682341333
 20
8.080345813007056
 10
-122.1210703160689
 20
3.005702343505731
 10
-127.1957137855711
 20
8.093404425443907
 10
-128.6090220836929
 20
8.095367252001324
 10
-128.610670174642
 20
6.68207980701942
 10
-123.4479671704177
 20
1.506091586196873
  0
LWPOLYLINE
  5
429
330
2E56
100
AcDbEntity
  8
0
100
AcDbPolyline
 90
        9
 70
     0
 43
0.0
 10
-94.12653484048382
 20
1.506091586196873
 10
-96.83758913629255
 20
4.224122255331565
 10
-96.83737788787448
 20
8.0705572326857
 10
-100.6743616517922
 20
8.070767962037734
 10
-103.3497345206099
 20
10.7530253849398
 10
-106.0385988485598
 20
8.071062569025343
 10
-109.8476643534816
 20
8.071271765089704
 10
-109.8525529735243
 20
4.266897725735077
 10
-112.6204635131287
 20
1.506091586196873
  0
LWPOLYLINE
  5
42A
330
2E56
100
AcDbEntity
  8
0
100
AcDbPolyline
 90
        4
 70
     0
 43
0.0
 10
-62.20835396133179
 20
1.506091586196873
 10
-59.50597078731721
 20
8.006582893195229
 10
-32.2652489328367
 20
7.971578569896735
 10
-16.71273871251287
 20
1.506091586196873
  0
LWPOLYLINE
  5
42B
330
2E56
100
AcDbEntity
  8
0
100
AcDbPolyline
 90
        4
 70
     1
 43
0.0
 10
-91.08797115990887
 20
6.633863144685562
 10
-90.09001395176779
 20
5.633337886891069
 10
-87.6745323048965
 20
8.042619713457497
 10
-91.08615527458448
 20
8.047003648435747
  0
LWPOLYLINE
  5
42C
330
2E56
100
AcDbEntity
  8
0
100
AcDbPolyline
 90
        4
 70
     0
 43
0.0
 10
-86.05372652733127
 20
1.506091586196873
 10
-79.51073519571673
 20
8.032289012313697
 10
-71.13417283985097
 20
8.021525131003386
 10
-68.44519547875006
 20
1.506091586196873
  0
LWPOLYLINE
  5
42D
330
2E56
100
AcDbEntity
  8
0
100
AcDbPolyline
 90
        8
 70
     1
 43
0.0
 10
-122.116807909238
 20
11.08033030930687
 10
-119.4249910223767
 20
13.76871440985019
 10
-115.6206144200414
 20
13.7662870633664
 10
-115.6147542872393
 20
22.95086465310311
 10
-122.105087643632
 20
29.44948548878353
 10
-128.6037084793129
 20
22.9591521323897
 10
-128.6095686121149
 20
13.77457454265186
 10
-124.8051920097825
 20
13.77214719616859
  0
LWPOLYLINE
  5
42E
330
2E56
100
AcDbEntity
  8
0
100
AcDbPolyline
 90
       13
 70
     1
 43
0.0
 10
-122.0634501083144
 20
94.70793383938881
 10
-119.3750660077767
 20
92.0161169525249
 10
-115.5706894054374
 20
92.01368960604218
 10
-115.5731167519216
 20
88.20931300370139
 10
-112.8847326513868
 20
85.5174961168459
 10
-115.5765495382407
 20
82.8291120163033
 10
-115.5789768847255
 20
79.02473541396791
 10
-119.3833534870664
 20
79.02716276045092
 10
-122.0751703739192
 20
76.33877865991042
 10
-124.7635544744637
 20
79.03059554676921
 10
-128.567931076799
 20
79.03302289325231
 10
-128.5596435975109
 20
92.02197708532523
 10
-124.7552669951819
 20
92.01954973884253
  0
LWPOLYLINE
  5
42F
330
2E56
100
AcDbEntity
  8
0
100
AcDbPolyline
 90
        5
 70
     1
 43
0.0
 10
-127.1583130488787
 20
73.2595543870803
 10
-126.1597087511274
 20
72.25967497571639
 10
-127.1595881624852
 20
71.2610706779696
 10
-128.5727295453071
 20
71.26197231945329
 10
-128.5714544316924
 20
73.26045602856322
  0
LWPOLYLINE
  5
430
330
2E56
100
AcDbEntity
  8
0
100
AcDbPolyline
 90
        8
 70
     1
 43
0.0
 10
-122.0803789643876
 20
68.17536241270201
 10
-119.3919948638544
 20
65.48354552585113
 10
-115.5876182615129
 20
65.48111817936689
 10
-115.5937963700712
 20
55.79817765006101
 10
-122.092417205752
 20
49.3078442936677
 10
-128.5827505621447
 20
55.8064651293461
 10
-128.5765724535877
 20
65.4894056586524
 10
-124.7721958512443
 20
65.48697831216964
  0
LWPOLYLINE
  5
431
330
2E56
100
AcDbEntity
  8
0
100
AcDbPolyline
 90
        7
 70
     1
 43
0.0
 10
-115.6095456967675
 20
31.11428090031564
 10
-115.6012581752554
 20
44.10330127406029
 10
-115.5990049605441
 20
47.63476140284922
 10
-122.0976257962243
 20
41.1444280464552
 10
-128.5879591526183
 20
47.6430488821334
 10
-128.598499888841
 20
31.12256837960206
 10
-122.0998790531603
 20
37.61290173599463
  0
LWPOLYLINE
  5
432
330
2E56
100
AcDbEntity
  8
0
100
AcDbPolyline
 90
        4
 70
     1
 43
0.0
 10
-108.4349061725393
 20
13.76186206698838
 10
-107.4350267611706
 20
14.7604663647395
 10
-109.8458708002538
 20
17.1743888004051
 10
-109.8480475553513
 20
13.76276370847205
  0
LWPOLYLINE
  5
433
330
2E56
100
AcDbEntity
  8
0
100
AcDbPolyline
 90
        4
 70
     1
 43
0.0
 10
-98.27255429947525
 20
13.75537807455936
 10
-96.85941291666313
 20
13.75447643307473
 10
-96.85723616156373
 20
17.16610152500755
 10
-99.27115859722801
 20
14.75525748592673
  0
LWPOLYLINE
  5
434
330
2E56
100
AcDbEntity
  8
0
100
AcDbPolyline
 90
        8
 70
     1
 43
0.0
 10
-80.78051529956178
 20
73.2301232489348
 10
-80.78637543236277
 20
64.04554565920012
 10
-96.83739353909357
 20
48.01499689257409
 10
-96.85186754828329
 20
25.32990340533263
 10
-103.3504883839651
 20
18.8395700489396
 10
-109.8408217403579
 20
25.33819088461888
 10
-109.822914944848
 20
53.40348535925773
 10
-89.9650928892977
 20
73.23598338173761
  0
LWPOLYLINE
  5
435
330
2E56
100
AcDbEntity
  8
0
100
AcDbPolyline
 90
        8
 70
     1
 43
0.0
 10
-102.035359650125
 20
79.01609403717839
 10
-102.0329323036408
 20
82.82047063952632
 10
-104.7213164041733
 20
85.51228752637403
 10
-102.0294995173217
 20
88.20067162689964
 10
-102.0270721708379
 20
92.00504822925259
 10
-92.34413164152863
 20
91.9988701206941
 10
-85.85379828513476
 20
85.50024928501352
 10
-92.35241912081438
 20
79.00991592861927
  0
LWPOLYLINE
  5
436
330
2E56
100
AcDbEntity
  8
0
100
AcDbPolyline
 90
       16
 70
     1
 43
0.0
 10
-62.01550362797139
 20
78.9395658174426
 10
-52.8819243944514
 20
78.95029922097151
 10
-59.38403036442696
 20
85.43714111809313
 10
-52.89718846730955
 20
91.93924708807079
 10
-62.08176158461231
 20
91.92845375864521
 10
-62.0925549140394
 20
101.113026875947
 10
-68.57939681115863
 20
94.6109209059691
 10
-75.0815027811343
 20
101.0977628030903
 10
-75.07079718827617
 20
91.98784903312953
 10
-84.18071539431513
 20
91.99366153021779
 10
-77.6903820379224
 20
85.49504069454178
 10
-84.18900287360088
 20
79.00470733814813
 10
-75.00442528386497
 20
78.99884720534422
 10
-75.01028541666767
 20
69.81426961560879
 10
-68.5116645809868
 20
76.30460297199931
 10
-62.02133122459293
 20
69.80598213632132
  0
LWPOLYLINE
  5
437
330
2E56
100
AcDbEntity
  8
0
100
AcDbPolyline
 90
        4
 70
     1
 43
0.0
 10
-127.1241373609705
 20
126.823060180011
 10
-126.1255330632182
 20
125.8231807686439
 10
-128.5394554988842
 20
123.4123367295627
 10
-128.5372787437843
 20
126.8239618214947
  0
LWPOLYLINE
  5
438
330
2E56
100
AcDbEntity
  8
0
100
AcDbPolyline
 90
        4
 70
     1
 43
0.0
 10
-115.5486441050955
 20
126.8156745460973
 10
-116.9617854879066
 20
126.8165761875829
 10
-117.9616648992762
 20
125.8179718898278
 10
-115.5508208601942
 20
123.4040494541612
  0
LWPOLYLINE
  5
439
330
2E56
100
AcDbEntity
  8
0
100
AcDbPolyline
 90
       14
 70
     1
 43
0.0
 10
-99.6259693923131
 20
107.9380758375587
 10
-106.2426970820252
 20
105.9149564780536
 10
-109.7869864331021
 20
109.4637715172525
 10
-109.7931643974883
 20
99.78105694630929
 10
-116.9790323197552
 20
99.7856418213248
 10
-117.9789117311099
 20
98.78703752358504
 10
-116.9803074333561
 20
97.78715811221523
 10
-109.7944395111058
 20
97.78257323719953
 10
-109.7990243861207
 20
90.59670531494731
 10
-108.8004200883679
 20
89.59682590358037
 10
-107.8005406770119
 20
90.59543020131892
 10
-107.7959558019963
 20
97.78129812358313
 10
-98.11324123104999
 20
97.77512015919723
 10
-101.6575305821269
 20
101.3239351983925
  0
LWPOLYLINE
  5
43A
330
2E56
100
AcDbEntity
  8
0
100
AcDbPolyline
 90
        6
 70
     1
 43
0.0
 10
-80.84999696042984
 20
97.76394552906362
 10
-80.86069024264725
 20
106.863383572914
 10
-86.08441353001069
 20
112.074843865302
 10
-93.01513588717648
 20
109.9225521005013
 10
-95.1637047291606
 20
102.9906747094753
 10
-89.94943943525697
 20
97.76975134221169
  0
LWPOLYLINE
  5
43B
330
2E56
100
AcDbEntity
  8
0
100
AcDbPolyline
 90
        6
 70
     1
 43
0.0
 10
-97.66806641417293
 20
114.5729841278394
 10
-95.54891502607052
 20
121.5171268922915
 10
-100.7291619352584
 20
126.6852128698361
 10
-109.7761652193917
 20
126.6745812067725
 10
-109.781937577021
 20
117.627573517195
 10
-104.6110699436251
 20
112.4501032247317
  0
LWPOLYLINE
  5
43C
330
2E56
100
AcDbEntity
  8
0
100
AcDbPolyline
 90
        8
 70
     1
 43
0.0
 10
-122.0572057746474
 20
121.7278797385931
 10
-128.5448241121625
 20
115.248534849236
 10
-128.5510022207212
 20
105.5655943199369
 10
-124.7466256183723
 20
105.5631669734436
 10
-122.0582413860898
 20
102.8713499546723
 10
-119.3695614977534
 20
105.5628716619948
 10
-115.5651846517333
 20
105.5648811313806
 10
-115.5702991749513
 20
115.2478222808773
  0
LWPOLYLINE
  5
43D
330
2E56
100
AcDbEntity
  8
0
100
AcDbPolyline
 90
        8
 70
     1
 43
0.0
 10
-91.07577753258761
 20
31.09862736174188
 10
-86.31992137903081
 20
35.84841852699572
 10
-81.91048404901721
 20
34.01867280829112
 10
-85.80456127124568
 20
43.43679879235182
 10
-76.07208432136792
 20
47.46084952925431
 10
-80.79570650457787
 20
49.42096979396089
 10
-80.79158402283622
 20
55.8821294119879
 10
-91.06651211386793
 20
45.62030460176939
  0
LWPOLYLINE
  5
43E
330
2E56
100
AcDbEntity
  8
0
100
AcDbPolyline
 90
        6
 70
     1
 43
0.0
 10
-62.02653981506592
 20
61.6425658891107
 10
-68.51687317145866
 20
68.14118672479082
 10
-75.01549400713838
 20
61.6508533683972
 10
-75.02083859679146
 20
53.27428580177372
 10
-68.528077893915
 20
50.58004156843202
 10
-62.03188440471899
 20
53.26599832248831
  0
LWPOLYLINE
  5
43F
330
2E56
100
AcDbEntity
  8
0
100
AcDbPolyline
 90
        6
 70
     1
 43
0.0
 10
-91.08684625586329
 20
13.75063352479185
 10
-91.08098612306219
 20
22.93521111452827
 10
-85.15407919804147
 20
28.85455964837542
 10
-78.66131849516853
 20
26.16031541503583
 10
-75.97536174111098
 20
19.66412192583419
 10
-81.90226866612499
 20
13.74477339199353
  0
LWPOLYLINE
  5
440
330
2E56
100
AcDbEntity
  8
0
100
AcDbPolyline
 90
        6
 70
     1
 43
0.0
 10
-67.56351582094476
 20
28.0652404931343
 10
-62.04444661057369
 20
33.57727141447202
 10
-62.03930367359624
 20
41.63778903647153
 10
-68.53206437647713
 20
44.33203326981529
 10
-78.2645413263565
 20
40.3079825329178
 10
-74.24048937471798
 20
30.57550264509672
  0
LWPOLYLINE
  5
441
330
2E56
100
AcDbEntity
  8
0
100
AcDbPolyline
 90
       10
 70
     1
 43
0.0
 10
-46.20156698563767
 20
13.72199489718417
 10
-62.05291824460312
 20
20.29969176212938
 10
-62.0496552010477
 20
25.41385516725978
 10
-66.39767636705983
 20
21.07137889088602
 10
-71.12129855028115
 20
23.03149915559868
 10
-69.16720760388125
 20
18.30537954696069
 10
-73.73885241890935
 20
13.73956480152168
 10
-67.27769280088409
 20
13.73544231978008
 10
-65.32360185448647
 20
9.009322711147376
 10
-63.36348158977592
 20
13.73294489436375
  0
LWPOLYLINE
  5
442
330
2E56
100
AcDbEntity
  8
0
100
AcDbPolyline
 90
        6
 70
     1
 43
0.0
 10
-14.14665411346186
 20
13.70154256341573
 10
-26.13922640775684
 20
25.70942812268953
 10
-51.29973613127162
 20
36.15006521570854
 10
-56.27356518535146
 20
31.18257912366812
 10
-56.27805033681955
 20
24.15300776994332
 10
-31.11754061329907
 20
13.71237067692317
  0
LWPOLYLINE
  5
443
330
2E56
100
AcDbEntity
  8
0
100
AcDbPolyline
 90
        6
 70
     1
 43
0.0
 10
-39.4248212898774
 20
56.36101407355187
 10
-42.11611931047719
 20
49.87535334107659
 10
-22.86629818820177
 20
30.60095220340873
 10
-7.108552100577298
 20
24.06209785933465
 10
-13.65586926281992
 20
39.81632954075855
 10
-32.94060703624143
 20
59.05579526789839
  0
LWPOLYLINE
  5
444
330
2E56
100
AcDbEntity
  8
0
100
AcDbPolyline
 90
        4
 70
     1
 43
0.0
 10
-6.192405259829001
 20
5.737136962977501
 10
-8.377930157052105
 20
7.925452547720738
 10
-17.18540040967309
 20
7.931072070755419
 10
-9.050509408435345
 20
4.555407361710592
  0
LWPOLYLINE
  5
445
330
2E56
100
AcDbEntity
  8
0
100
AcDbPolyline
 90
        4
 70
     1
 43
0.0
 10
-4.072195202894249
 20
16.5524648074803
 10
-2.890465601626033
 20
13.69436065887237
 10
-5.983237866248373
 20
13.69633397294387
 10
-12.20708620413154
 20
19.92812951652041
  0
LWPOLYLINE
  5
446
330
2E56
100
AcDbEntity
  8
0
100
AcDbPolyline
 90
        6
 70
     1
 43
0.0
 10
-43.84984237316302
 20
60.78365903847632
 10
-41.17265127344967
 20
67.26851430130551
 10
-47.10273672928565
 20
73.18467853579178
 10
-56.24677299954839
 20
73.17393284358868
 10
-56.25260726818623
 20
64.02989212063033
 10
-50.33325873434228
 20
58.10298519561411
  0
LWPOLYLINE
  5
447
330
2E56
100
AcDbEntity
  8
0
100
AcDbPolyline
 90
        5
 70
     1
 43
0.0
 10
-127.1569665363679
 20
97.77700586264202
 10
-126.1582524167385
 20
98.77677558013164
 10
-127.1580221342219
 20
99.77548969975671
 10
-128.5711636075564
 20
99.77474327934979
 10
-128.5701080096945
 20
97.77625944223618
  0
LWPOLYLINE
  5
448
330
2E56
100
AcDbEntity
  8
0
100
AcDbPolyline
 90
       10
 70
     1
 43
0.0
 10
-36.7984383918174
 20
36.3822508096132
 10
-52.64978965079206
 20
42.95994767454272
 10
-56.26835659487688
 20
39.34599537090202
 10
-56.2644357658188
 20
45.49110504429831
 10
-60.98805794904297
 20
47.45122530900411
 10
-56.261938340406
 20
49.40531625540953
 10
-56.2578158586739
 20
55.8664758734339
 10
-51.6920011132272
 20
51.29483105841041
 10
-46.96588150459638
 20
53.24892200481179
 10
-48.92600176930068
 20
48.5252998215939
  0
LWPOLYLINE
  5
449
330
2E56
100
AcDbEntity
  8
0
100
AcDbPolyline
 90
       16
 70
     1
 43
0.0
 10
15.47322491689942
 20
111.0905968749479
 10
12.75388178780565
 20
113.8035561875017
 10
8.907446810451574
 20
113.8037674359178
 10
8.907657539802585
 20
117.6407511998357
 10
6.225693999108329
 20
120.3164186747488
 10
8.907952146788034
 20
123.0049883966028
 10
8.908161342852054
 20
126.8140539015248
 10
12.71253589622802
 20
126.8185246447269
 10
15.47424073503794
 20
129.5867280023171
 10
18.23564149455581
 20
126.8182213125971
 10
22.04001553391083
 20
126.8133326925553
 10
22.03980633784579
 20
123.0042671876332
 10
24.72176915376258
 20
120.3154028596851
 10
22.03951173086034
 20
117.640029990866
 10
22.03930100151024
 20
113.8030462269483
 10
18.1928660241565
 20
113.8032574753656
  0
LWPOLYLINE
  5
44A
330
2E56
100
AcDbEntity
  8
0
100
AcDbPolyline
 90
        6
 70
     1
 43
0.0
 10
15.47147211709375
 20
79.17542046512441
 10
8.967320624945955
 20
76.47235353354862
 10
8.999332795875034
 20
49.2316279984849
 10
15.46897262047855
 20
33.66430444191264
 10
21.94032233873941
 20
49.23091727191203
 10
21.97532666203029
 20
76.47163912639121
  0
LWPOLYLINE
  5
44B
330
2E56
100
AcDbEntity
  8
0
100
AcDbPolyline
 90
        4
 70
     1
 43
0.0
 10
10.34350936834937
 20
108.054202934508
 10
11.3439250033432
 20
107.0561358335437
 10
8.934377872033564
 20
104.6409188395255
 10
8.930368673665157
 20
108.0525422701705
  0
LWPOLYLINE
  5
44C
330
2E56
100
AcDbEntity
  8
0
100
AcDbPolyline
 90
        6
 70
     1
 43
0.0
 10
15.47181450275047
 20
85.40961708522514
 10
21.99026889983532
 20
88.09984117892364
 10
22.00103278114318
 20
96.47640353479113
 10
15.47278175492863
 20
103.021453751041
 10
8.943811852269277
 20
96.47712064485904
 10
8.953655642289731
 20
88.10055715720769
  0
LWPOLYLINE
  5
44D
330
2E56
100
AcDbEntity
  8
0
100
AcDbPolyline
 90
        4
 70
     1
 43
0.0
 10
3.217415896301986
 20
125.4019207900767
 10
2.21870177667256
 20
124.4021510725822
 10
-0.194955834554662
 20
126.8132602451326
 10
3.216669475895741
 20
126.8150622634013
  0
LWPOLYLINE
  5
44E
330
2E56
100
AcDbEntity
  8
0
100
AcDbPolyline
 90
        4
 70
     1
 43
0.0
 10
3.222783644295986
 20
115.2395682661082
 10
3.223530064703481
 20
113.8264267927828
 10
-0.1880952457460125
 20
113.8246247745131
 10
2.223013926803105
 20
116.2382823857392
  0
LWPOLYLINE
  5
44F
330
2E56
100
AcDbEntity
  8
0
100
AcDbPolyline
 90
        8
 70
     1
 43
0.0
 10
-56.25388251693926
 20
97.75406214599962
 10
-47.06930433892694
 20
97.75891343421903
 10
-31.03699260675171
 20
113.8081706302416
 10
-8.351897666517629
 20
113.8201528826363
 10
-1.860850533304073
 20
120.3180607734475
 10
-8.35875842411383
 20
126.8091079066608
 10
-36.42405469635037
 20
126.7942838354206
 10
-56.25873380516009
 20
106.9386403240129
  0
LWPOLYLINE
  5
450
330
2E56
100
AcDbEntity
  8
0
100
AcDbPolyline
 90
        8
 70
     1
 43
0.0
 10
-62.03751841012422
 20
119.009542109882
 10
-65.84189537550424
 20
119.0075326404428
 10
-68.53341703536262
 20
121.6962124813702
 10
-71.22209687628288
 20
119.0046908215091
 10
-75.02647384166834
 20
119.0026813520689
 10
-75.02135931829752
 20
109.3197399144019
 10
-68.52345122361907
 20
102.8286925775364
 10
-62.03240388675226
 20
109.3266006722148
  0
LWPOLYLINE
  5
451
330
2E56
100
AcDbEntity
  8
0
100
AcDbPolyline
 90
        4
 70
     1
 43
0.0
 10
-109.8356145196642
 20
132.52807664026
 10
-109.8363609400738
 20
133.9412181135843
 10
-108.8376468204399
 20
134.9409878310801
 10
-106.4239892092115
 20
132.5298786585295
  0
LWPOLYLINE
  5
452
330
2E56
100
AcDbEntity
  8
0
100
AcDbPolyline
 90
       14
 70
     1
 43
0.0
 10
-90.95976488987401
 20
116.6033284864193
 10
-88.93591875360915
 20
123.2198339144622
 10
-92.4843444625892
 20
126.764513050076
 10
-82.80162927146193
 20
126.7696274539426
 10
-82.80542484246803
 20
133.9554958364684
 10
-81.80671072285099
 20
134.955265553949
 10
-80.8069410053547
 20
133.9565514343167
 10
-80.80314543434917
 20
126.7706830518072
 10
-73.61727705183728
 20
126.7744786228124
 10
-72.61750733434587
 20
125.7757645031815
 10
-73.61622145396222
 20
124.7759947856999
 10
-80.80208983648493
 20
124.7721992146934
 10
-80.79697543261932
 20
115.0894840235644
 10
-84.34540114159597
 20
118.6341631591772
  0
LWPOLYLINE
  5
453
330
2E56
100
AcDbEntity
  8
0
100
AcDbPolyline
 90
        8
 70
     1
 43
0.0
 10
-14.12125604048333
 20
108.044696545046
 10
-18.87156956578417
 20
103.2893621426925
 10
-17.04230819577526
 20
98.87972385791002
 10
-26.46000639310808
 20
102.7748355544162
 10
-30.48512613217543
 20
93.04280066960172
 10
-32.44472753697437
 20
97.76663812617583
 10
-38.90588756884381
 20
97.76322534564853
 10
-28.64293421063314
 20
108.0370262040807
  0
LWPOLYLINE
  5
454
330
2E56
100
AcDbEntity
  8
0
100
AcDbPolyline
 90
        6
 70
     1
 43
0.0
 10
-44.66838518521263
 20
78.99881398403462
 10
-51.16629307602352
 20
85.48986111724762
 10
-44.67524594281053
 20
91.98776900805688
 10
-36.29867783966313
 20
91.9921935058814
 10
-33.60514679486334
 20
85.4991369032928
 10
-36.29181708206647
 20
79.00323848185903
  0
LWPOLYLINE
  5
455
330
2E56
100
AcDbEntity
  8
0
100
AcDbPolyline
 90
        6
 70
     1
 43
0.0
 10
3.226738907614958
 20
108.0538597446972
 10
-5.957839270399063
 20
108.0490084564775
 10
-11.87783878679738
 20
102.1227517552493
 10
-9.184307742000328
 20
95.62969515266553
 10
-2.688409320559458
 20
92.94302486546005
 10
3.231590195832495
 20
98.86928156668155
  0
LWPOLYLINE
  5
456
330
2E56
100
AcDbEntity
  8
0
100
AcDbPolyline
 90
        6
 70
     1
 43
0.0
 10
-11.09045180399198
 20
84.53210178454602
 10
-16.60308891297575
 20
79.01363805527282
 10
-24.66360705125601
 20
79.00938049483412
 10
-27.35713809605875
 20
85.50243709742762
 10
-23.33201835699583
 20
95.2344719822433
 10
-13.59998053437152
 20
91.20935102811662
  0
LWPOLYLINE
  5
457
330
2E56
100
AcDbEntity
  8
0
100
AcDbPolyline
 90
       10
 70
     1
 43
0.0
 10
3.250447284449592
 20
63.1685775995443
 10
-3.325508410197244
 20
79.02065126466021
 10
-8.439672142892504
 20
79.01794996670253
 10
-4.096718301078453
 20
83.36549412390761
 10
-6.056319705884106
 20
88.08933158049232
 10
-1.33041476534936
 20
86.13472152347823
 10
3.235902107260471
 20
90.70586479659459
 10
3.239314887787486
 20
84.24470476472842
 10
7.965219828317799
 20
82.29009470771542
 10
3.24138237173679
 20
80.33049330291239
  0
LWPOLYLINE
  5
458
330
2E56
100
AcDbEntity
  8
0
100
AcDbPolyline
 90
        6
 70
     1
 43
0.0
 10
3.267378669667436
 20
31.11366267423324
 10
-8.739189539261246
 20
43.1075538561163
 10
-19.17706291002525
 20
68.26921023941432
 10
-14.20903051685877
 20
73.24249362911311
 10
-7.179458712887253
 20
73.24620664436782
 10
3.258414657879711
 20
48.08455026106563
  0
LWPOLYLINE
  5
459
330
2E56
100
AcDbEntity
  8
0
100
AcDbPolyline
 90
        4
 70
     1
 43
0.0
 10
11.23091051823507
 20
23.15853904913177
 10
9.042835007256144
 20
25.34430430026509
 10
9.0381829068981
 20
34.15177511700978
 10
12.41295404981429
 20
26.01651337795801
  0
LWPOLYLINE
  5
45A
330
2E56
100
AcDbEntity
  8
0
100
AcDbPolyline
 90
        4
 70
     1
 43
0.0
 10
0.4153498526695785
 20
21.03951697301153
 10
3.273324181499447
 20
19.85747344143158
 10
3.271690581096549
 20
22.95024590414772
 10
-2.95942129024047
 20
29.17477871206268
  0
LWPOLYLINE
  5
45B
330
2E56
100
AcDbEntity
  8
0
100
AcDbPolyline
 90
       10
 70
     1
 43
0.0
 10
-19.41084134171933
 20
53.76793809097051
 10
-25.98679703635025
 20
69.62001175609521
 10
-22.37244728696351
 20
73.23818171768201
 10
-28.51755735395796
 20
73.23493587454819
 10
-30.47715875875679
 20
77.95877333113691
 10
-32.4317688157762
 20
73.23286839060313
 10
-38.89292884764211
 20
73.22945561008442
 10
-34.32178557452971
 20
68.66313873746739
 10
-36.27639563154549
 20
63.93723379694083
 10
-31.552558174963
 20
65.89683520173719
  0
LWPOLYLINE
  5
45C
330
2E56
100
AcDbEntity
  8
0
100
AcDbPolyline
 90
       12
 70
     1
 43
0.0
 10
-106.2449366750641
 20
65.13619412775611
 10
-109.7896158106772
 20
61.5877684187769
 10
-109.7947302145439
 20
71.27048360990338
 10
-116.9805985970705
 20
71.26668803889689
 10
-117.9803683145505
 20
72.26540215851503
 10
-116.9816541949188
 20
73.26517187601081
 10
-109.7957858124088
 20
73.26896744701688
 10
-109.7995813834147
 20
80.45483582952829
 10
-108.8008672637825
 20
81.45460554702069
 10
-107.8010975463019
 20
80.45589142740388
 10
-107.7973019752946
 20
73.27002304488113
 10
-98.11458678416682
 20
73.27513744874631
  0
LWPOLYLINE
  5
45D
330
2E56
100
AcDbEntity
  8
0
100
AcDbPolyline
 90
       12
 70
     1
 43
0.0
 10
-48.15715640333348
 20
123.217594321399
 10
-44.60834136413405
 20
126.7618836724763
 10
-54.29105593507756
 20
126.7680616368638
 10
-54.2864710600619
 20
133.9539295591306
 10
-55.28507535780182
 20
134.9538089704855
 10
-56.28495476917146
 20
133.9552046727315
 10
-56.2895396441869
 20
126.7693367504806
 10
-63.475407566439
 20
126.7739216254953
 10
-64.47528697780637
 20
125.7753173277423
 10
-63.47668268006771
 20
124.7754379163866
 10
-56.29081475780367
 20
124.7708530413709
 10
-56.29699272218999
 20
115.0881384704253
  0
LWPOLYLINE
  5
45E
330
2E56
100
AcDbEntity
  8
0
100
AcDbPolyline
 90
       17
 70
     0
 43
0.0
 10
-1.291841947353532
 20
1.506091586196873
 10
3.998145317377293
 20
3.689316370476717
 10
-0.2103571947889122
 20
7.908648649024087
 10
5.447065121869968
 20
7.901378862239596
 10
2.92168148788096
 20
14.03174431325135
 10
9.050133973586866
 20
11.50172194334573
 10
9.047145724747451
 20
17.15914814164477
 10
13.26329180129232
 20
12.94745364501233
 10
15.46812761558158
 20
18.27836066170471
 10
17.67237786362693
 20
12.94721149547433
 10
21.88898653209481
 20
17.15844286037469
 10
21.88537686508528
 20
11.50101702443692
 10
28.01410721438254
 20
14.03036622282406
 10
25.48805022924978
 20
7.900278199831234
 10
31.1454733103019
 20
7.906926568810092
 10
26.93650736722271
 20
3.688056582463332
 10
32.22179581408295
 20
1.506091586196873
  0
LWPOLYLINE
  5
45F
330
2E56
100
AcDbEntity
  8
0
100
AcDbPolyline
 90
        9
 70
     0
 43
0.0
 10
151.7140276572821
 20
1.506091586196873
 10
146.5570224740384
 20
6.65099039909785
 10
146.5553618097007
 20
8.064131093781043
 10
147.9685025043815
 20
8.065791758119416
 10
153.0556471509611
 20
2.990589480194046
 10
158.1308494288889
 20
8.077734126776419
 10
159.5441579340827
 20
8.079541713916057
 10
159.5456507879057
 20
6.6662540964316
 10
154.3976020600198
 20
1.506091586196873
  0
LWPOLYLINE
  5
460
330
2E56
100
AcDbEntity
  8
0
100
AcDbPolyline
 90
        9
 70
     0
 43
0.0
 10
125.0729567679629
 20
1.506091586197044
 10
127.7722999563508
 20
4.211786551266357
 10
127.7725112047665
 20
8.058221528620322
 10
131.6094949686844
 20
8.058010799269823
 10
134.2851624435973
 20
10.73997433996408
 10
136.9737321654524
 20
8.057716192284431
 10
140.7827976703738
 20
8.057506996219899
 10
140.7872684135757
 20
4.253132442843536
 10
143.5407732834462
 20
1.506091586196873
  0
LWPOLYLINE
  5
461
330
2E56
100
AcDbEntity
  8
0
100
AcDbPolyline
 90
        4
 70
     0
 43
0.0
 10
93.13922062746291
 20
1.506091586196873
 10
90.44109730239847
 20
7.998347714125884
 10
63.20037176733421
 20
7.966335543197828
 10
47.6556566580723
 20
1.506091586196873
  0
LWPOLYLINE
  5
462
330
2E56
100
AcDbEntity
  8
0
100
AcDbPolyline
 90
        4
 70
     1
 43
0.0
 10
122.022946703358
 20
6.622158970722239
 10
121.0248796023925
 20
5.621743335729036
 10
118.6096626083751
 20
8.031290467038047
 10
122.0212860390203
 20
8.035299665406341
  0
LWPOLYLINE
  5
463
330
2E56
100
AcDbEntity
  8
0
100
AcDbPolyline
 90
        4
 70
     0
 43
0.0
 10
116.9769614453801
 20
1.506091586196873
 10
110.4458644137084
 20
8.021856486802562
 10
102.0693009260578
 20
8.012012696782221
 10
99.38341305550602
 20
1.506091586196873
  0
LWPOLYLINE
  5
464
330
2E56
100
AcDbEntity
  8
0
100
AcDbPolyline
 90
        8
 70
     1
 43
0.0
 10
153.052271670562
 20
11.06521786547222
 10
150.360750095135
 20
13.75389762205458
 10
146.5563732491257
 20
13.7518881526787
 10
146.5515219609053
 20
22.93646633069272
 10
153.042569094119
 20
29.43437422150379
 10
159.5404769849287
 20
22.9433270882904
 10
159.5453282731503
 20
13.7587489102753
 10
155.7409514271454
 20
13.75673944089993
  0
LWPOLYLINE
  5
465
330
2E56
100
AcDbEntity
  8
0
100
AcDbPolyline
 90
       13
 70
     1
 43
0.0
 10
153.0080996219311
 20
94.69282675194964
 10
150.3194198653544
 20
92.00130517651979
 10
146.5150430193416
 20
91.99929570714491
 10
146.5170524887193
 20
88.19491886113182
 10
143.8283727321436
 20
85.5033972857104
 10
146.5198943075643
 20
82.8147175291289
 10
146.5219037769418
 20
79.01034068312071
 10
150.3262806229541
 20
79.01235015249591
 10
153.0178021983729
 20
76.32367039591631
 10
155.7064819549564
 20
79.01519197134124
 10
159.510858800963
 20
79.01720144071655
 10
159.5039980433651
 20
92.00615646473911
 10
155.6996211973649
 20
92.00414699536413
  0
LWPOLYLINE
  5
466
330
2E56
100
AcDbEntity
  8
0
100
AcDbPolyline
 90
        5
 70
     1
 43
0.0
 10
158.1006066171403
 20
73.24388780343531
 10
157.1018924975113
 20
72.24411808594578
 10
158.1016622149935
 20
71.24540396632062
 10
159.5148036883281
 20
71.24615038672721
 10
159.5137480904657
 20
73.2446342238411
  0
LWPOLYLINE
  5
467
330
2E56
100
AcDbEntity
  8
0
100
AcDbPolyline
 90
        8
 70
     1
 43
0.0
 10
153.0221141097993
 20
68.16025362583662
 10
150.3334343532254
 20
65.4687320504199
 10
146.5290575072126
 20
65.46672258104354
 10
146.5341720304301
 20
55.78378143153969
 10
153.0320799212415
 20
49.29273429832713
 10
159.5231270544541
 20
55.79064218913592
 10
159.518012531236
 20
65.47358333864005
 10
155.7136356852216
 20
65.47157386926511
  0
LWPOLYLINE
  5
468
330
2E56
100
AcDbEntity
  8
0
100
AcDbPolyline
 90
        7
 70
     1
 43
0.0
 10
146.5472100494773
 20
31.09988310077659
 10
146.5403492569239
 20
44.08890430647562
 10
146.5384839418598
 20
47.62036466145682
 10
153.0363918326695
 20
41.12931752824332
 10
159.5274389658832
 20
47.62722541905179
 10
159.5361650735001
 20
31.10674385837439
 10
153.0382571826909
 20
37.59779099158635
  0
LWPOLYLINE
  5
469
330
2E56
100
AcDbEntity
  8
0
100
AcDbPolyline
 90
        4
 70
     1
 43
0.0
 10
139.3706645589267
 20
13.74825244277008
 10
138.3708948414312
 20
14.74696656239956
 10
140.7820040139827
 20
17.16062417362639
 10
140.7838060322509
 20
13.74899886317661
  0
LWPOLYLINE
  5
46A
330
2E56
100
AcDbEntity
  8
0
100
AcDbPolyline
 90
        4
 70
     1
 43
0.0
 10
129.2083120349576
 20
13.74288469477562
 10
127.7951705616323
 20
13.74213827436802
 10
127.7933685433615
 20
17.15376358481762
 10
130.2070261545889
 20
14.74265441226868
  0
LWPOLYLINE
  5
46B
330
2E56
100
AcDbEntity
  8
0
100
AcDbPolyline
 90
        8
 70
     1
 43
0.0
 10
111.7228059148487
 20
73.21955085601081
 10
111.7276572030684
 20
64.03497267799901
 10
127.7769143990923
 20
48.00266094582338
 10
127.7888966514854
 20
25.31756600558873
 10
134.286804542297
 20
18.82651887237637
 10
140.777851675511
 20
25.32442676318618
 10
140.7630276042705
 20
53.38972303542291
 10
120.9073840928617
 20
73.22440214423252
  0
LWPOLYLINE
  5
46C
330
2E56
100
AcDbEntity
  8
0
100
AcDbPolyline
 90
        8
 70
     1
 43
0.0
 10
132.9782856748642
 20
79.00318695284773
 10
132.9762762054879
 20
82.80756379886801
 10
135.6649559620593
 20
85.49908537428152
 10
132.9734343866438
 20
88.18776513084632
 10
132.9714249172664
 20
91.99214197687169
 10
123.2884837677583
 20
91.9870274536537
 10
116.7974366345458
 20
85.48911956284237
 10
123.2953445253572
 20
78.99807242962919
  0
LWPOLYLINE
  5
46D
330
2E56
100
AcDbEntity
  8
0
100
AcDbPolyline
 90
       16
 70
     1
 43
0.0
 10
92.9584214881852
 20
78.93105456049929
 10
83.82484348873232
 20
78.94279120679141
 10
90.327661941644
 20
85.4289188659969
 10
83.84153428244337
 20
91.93173731891087
 10
93.0261061587878
 20
91.9199351454962
 10
93.03790833220331
 20
101.1045070218398
 10
99.52403599140735
 20
94.60168856892563
 10
106.0268544443199
 20
101.0878162281312
 10
106.0151482081398
 20
91.97790368904088
 10
115.1250669976745
 20
91.98271554222063
 10
108.6340198644615
 20
85.48480765141411
 10
115.13192775527
 20
78.9937605182009
 10
105.9473495772572
 20
78.98890922997819
 10
105.9522008654787
 20
69.80433105196539
 10
99.45429297466853
 20
76.29537818517511
 10
92.96324584145475
 20
69.79747029436683
  0
LWPOLYLINE
  5
46E
330
2E56
100
AcDbEntity
  8
0
100
AcDbPolyline
 90
        4
 70
     1
 43
0.0
 10
158.0723144064018
 20
126.8073970271389
 10
157.0736002867706
 20
125.8076273096458
 10
159.4872578979989
 20
123.396518137097
 10
159.4854558797283
 20
126.8081434475454
  0
LWPOLYLINE
  5
46F
330
2E56
100
AcDbEntity
  8
0
100
AcDbPolyline
 90
        4
 70
     1
 43
0.0
 10
146.4968204091085
 20
126.8012828587368
 10
147.9099618824327
 20
126.8020292791455
 10
148.9097315999293
 20
125.8033151595119
 10
146.4986224273777
 20
123.3896575482841
  0
LWPOLYLINE
  5
470
330
2E56
100
AcDbEntity
  8
0
100
AcDbPolyline
 90
       14
 70
     1
 43
0.0
 10
130.5720722552687
 20
107.9254332289465
 10
137.1885776833121
 20
105.9015870926812
 10
140.7332568189249
 20
109.4500128016609
 10
140.7383712227917
 20
99.76729761053432
 10
147.9242396053184
 20
99.77109318154042
 10
148.9240093227972
 20
98.77237906192263
 10
147.9252952031668
 20
97.77260934442692
 10
140.7394268206565
 20
97.76881377342062
 10
140.7432223916626
 20
90.58294539090928
 10
139.7445082720303
 20
89.5831756734168
 10
138.7447385545491
 20
90.58188979303361
 10
138.7409429835425
 20
97.76775817555662
 10
129.058227792414
 20
97.76264377169139
 10
132.6029069280266
 20
101.3110694806677
  0
LWPOLYLINE
  5
471
330
2E56
100
AcDbEntity
  8
0
100
AcDbPolyline
 90
        6
 70
     1
 43
0.0
 10
111.7949823984993
 20
97.75336535619324
 10
111.8066751733735
 20
106.8528021705882
 10
117.0309708620048
 20
112.0636886517757
 10
123.9614567671638
 20
109.9106356214589
 10
126.109264190816
 20
102.9785222709816
 10
120.8944254561509
 20
97.75817167609886
  0
LWPOLYLINE
  5
472
330
2E56
100
AcDbEntity
  8
0
100
AcDbPolyline
 90
        6
 70
     1
 43
0.0
 10
128.6148980748817
 20
114.5605565375129
 10
126.4965094521776
 20
121.5049320300951
 10
131.6773239986114
 20
126.672448972196
 10
140.7243260603746
 20
126.6608235759703
 10
140.729104684259
 20
117.6138153069271
 10
135.5576683827763
 20
112.4369130197338
  0
LWPOLYLINE
  5
473
330
2E56
100
AcDbEntity
  8
0
100
AcDbPolyline
 90
        8
 70
     1
 43
0.0
 10
153.0048231901767
 20
121.7127731740397
 10
159.4917297898739
 20
115.2327157163239
 10
159.4968443130942
 20
105.5497745668272
 10
155.6924674670706
 20
105.5477650974415
 10
153.0037875787354
 20
102.8562433901191
 10
150.3154033464511
 20
105.5480604088902
 10
146.5110267441041
 20
105.5504877553837
 10
146.5172048526617
 20
115.2334282846826
  0
LWPOLYLINE
  5
474
330
2E56
100
AcDbEntity
  8
0
100
AcDbPolyline
 90
        8
 70
     1
 43
0.0
 10
122.013440313895
 20
31.08692437955574
 10
117.2581059115419
 20
35.83723790485584
 10
112.8484676267599
 20
34.00797653484711
 10
116.743579323265
 20
43.42567473218039
 10
107.0115444384503
 20
47.45079447124811
 10
111.7353818950248
 20
49.41039587604723
 10
111.7319691144978
 20
55.87155590791522
 10
122.0057699729293
 20
45.60860254970492
  0
LWPOLYLINE
  5
475
330
2E56
100
AcDbEntity
  8
0
100
AcDbPolyline
 90
        6
 70
     1
 43
0.0
 10
92.96755775288398
 20
61.63405352428473
 10
99.45860488609753
 20
68.13196141509539
 10
105.9565127769067
 20
61.64091428188232
 10
105.960937274732
 20
53.26434617873511
 10
99.46788067214242
 20
50.57081513393541
 10
92.97198225070747
 20
53.25748542113882
  0
LWPOLYLINE
  5
476
330
2E56
100
AcDbEntity
  8
0
100
AcDbPolyline
 90
        6
 70
     1
 43
0.0
 10
122.0226035135473
 20
13.73892943145699
 10
122.017752225327
 20
22.92350760947079
 10
116.0914955240992
 20
28.84350712586968
 10
109.5984389215155
 20
26.14997608107206
 10
106.9117686343101
 20
19.65407765963215
 10
112.8380253355304
 20
13.73407814323974
  0
LWPOLYLINE
  5
477
330
2E56
100
AcDbEntity
  8
0
100
AcDbPolyline
 90
        6
 70
     1
 43
0.0
 10
98.50084555339584
 20
28.05612014306428
 10
92.98238182412342
 20
33.56875725204833
 10
92.97812426368409
 20
41.6292753903283
 10
99.47118086627529
 20
44.32280643513021
 10
109.2032157510928
 20
40.29768669606741
 10
105.1780947969657
 20
30.56564887344371
  0
LWPOLYLINE
  5
478
330
2E56
100
AcDbEntity
  8
0
100
AcDbPolyline
 90
       10
 70
     1
 43
0.0
 10
77.13732136839372
 20
13.71522105462281
 10
92.9893950335105
 20
20.29117674926903
 10
92.98669373555254
 20
25.40534048196452
 10
97.33423789275731
 20
21.06238664015069
 10
102.058075349341
 20
23.02198804495589
 10
100.1034652923267
 20
18.29608310442103
 10
104.6746085654445
 20
13.72976623181102
 10
98.21344853357732
 20
13.72635345128401
 10
96.25883847656314
 20
9.000448510754438
 10
94.29923707176135
 20
13.72428596733522
  0
LWPOLYLINE
  5
479
330
2E56
100
AcDbEntity
  8
0
100
AcDbPolyline
 90
        6
 70
     1
 43
0.0
 10
45.08240644308284
 20
13.69828966940457
 10
57.07629762496527
 20
25.70485787833275
 10
82.23795400826338
 20
36.14273124909738
 10
87.21123739796144
 20
31.17469885593079
 10
87.21495041321691
 20
24.14512705195779
 10
62.05329402991378
 20
13.70725368119207
  0
LWPOLYLINE
  5
47A
330
2E56
100
AcDbEntity
  8
0
100
AcDbPolyline
 90
        6
 70
     1
 43
0.0
 10
70.36525923232716
 20
56.35498433929541
 10
73.05584484427242
 20
49.86902803068122
 10
53.80390671577448
 20
30.59674143173641
 10
38.04544248794127
 20
24.05961797602748
 10
44.59449007358148
 20
39.81313039758033
 10
63.88134101566686
 20
59.0504777509226
  0
LWPOLYLINE
  5
47B
330
2E56
100
AcDbEntity
  8
0
100
AcDbPolyline
 90
        4
 70
     1
 43
0.0
 10
37.12728281798059
 20
5.734757820836875
 10
39.31304806911476
 20
7.922833331815411
 10
48.12051888586029
 20
7.927485432173227
 10
39.98525714680829
 20
4.552714289258346
  0
LWPOLYLINE
  5
47C
330
2E56
100
AcDbEntity
  8
0
100
AcDbPolyline
 90
        4
 70
     1
 43
0.0
 10
35.00826074186148
 20
16.55031848640232
 10
33.82621721028045
 20
13.69234415757205
 10
36.91898967299664
 20
13.69397775797569
 10
43.14352248091108
 20
19.92508962931282
  0
LWPOLYLINE
  5
47D
330
2E56
100
AcDbEntity
  8
0
100
AcDbPolyline
 90
        6
 70
     1
 43
0.0
 10
74.79076607731747
 20
60.77714322814481
 10
72.1142872977033
 20
67.2622925175973
 10
78.04502255603416
 20
73.17780534900029
 10
87.18905759081781
 20
73.16605526542139
 10
87.19388746748904
 20
64.02201395678179
 10
81.27388795109595
 20
58.0957572555578
  0
LWPOLYLINE
  5
47E
330
2E56
100
AcDbEntity
  8
0
100
AcDbPolyline
 90
        5
 70
     1
 43
0.0
 10
158.1019531296509
 20
97.76133927899714
 10
157.103348831901
 20
98.76121869036081
 10
158.1032282432575
 20
99.75982298810762
 10
159.5163696260798
 20
99.75892134662382
 10
159.5150945124653
 20
97.76043763751415
  0
LWPOLYLINE
  5
47F
330
2E56
100
AcDbEntity
  8
0
100
AcDbPolyline
 90
       10
 70
     1
 43
0.0
 10
67.73668185982024
 20
36.3765096807918
 10
83.58875552494442
 20
42.95246537542237
 10
87.20692548653188
 20
39.3381156260362
 10
87.20367964339812
 20
45.4832256930301
 10
91.92751709998743
 20
47.44282709782853
 10
87.2016121594528
 20
49.3974371548488
 10
87.19819937893408
 20
55.85859718671412
 10
82.63188250631742
 20
51.28745391360189
 10
77.90597756578995
 20
53.24206397061854
 10
79.86557897058673
 20
48.518226514036
  0
LWPOLYLINE
  5
480
330
2E56
100
AcDbEntity
  8
0
100
AcDbPolyline
 90
        4
 70
     1
 43
0.0
 10
20.6026069135354
 20
108.0536394989808
 10
19.60208165574045
 20
107.0556822908388
 10
22.01136348230625
 20
104.6402006439679
 10
22.0157474172845
 20
108.0518236136571
  0
LWPOLYLINE
  5
481
330
2E56
100
AcDbEntity
  8
0
100
AcDbPolyline
 90
        4
 70
     1
 43
0.0
 10
27.7306058358372
 20
125.4005745116115
 10
28.72921013358848
 20
124.4006951002426
 10
31.14313256925504
 20
126.8115391393253
 10
27.73150747732268
 20
126.8137158944234
  0
LWPOLYLINE
  5
482
330
2E56
100
AcDbEntity
  8
0
100
AcDbPolyline
 90
        4
 70
     1
 43
0.0
 10
27.72412184340863
 20
115.2382226385473
 10
27.72322020192428
 20
113.8250812557343
 10
31.13484529385733
 20
113.822904500635
 10
28.72400125477657
 20
116.2368269363001
  0
LWPOLYLINE
  5
483
330
2E56
100
AcDbEntity
  8
0
100
AcDbPolyline
 90
        8
 70
     1
 43
0.0
 10
87.19886701778433
 20
97.74618363863391
 10
78.01428942804887
 20
97.75204377143461
 10
61.98374066142401
 20
113.8030618781641
 10
39.2986471741815
 20
113.8175358873558
 10
32.80831381778876
 20
120.3161567230364
 10
39.30693465346826
 20
126.8064900794302
 10
67.37222912810648
 20
126.7885832839197
 10
87.20472715058646
 20
106.9307612283698
  0
LWPOLYLINE
  5
484
330
2E56
100
AcDbEntity
  8
0
100
AcDbPolyline
 90
        8
 70
     1
 43
0.0
 10
92.98483760239788
 20
119.0010281930862
 10
96.78921432410483
 20
118.998600846526
 10
99.48103129540754
 20
121.6869850314052
 10
102.1694154802794
 20
118.9951680601005
 10
105.9737922019922
 20
118.9927407135394
 10
105.9676140932492
 20
109.3097998960702
 10
99.46899305367868
 20
102.8194663360466
 10
92.97865949365485
 20
109.3180873756167
  0
LWPOLYLINE
  5
485
330
2E56
100
AcDbEntity
  8
0
100
AcDbPolyline
 90
        4
 70
     1
 43
0.0
 10
140.7844183149455
 20
132.514312444167
 10
140.7853199564315
 20
133.9274538269788
 10
139.7867156586768
 20
134.9273332383489
 10
137.3727932230098
 20
132.5164891992663
  0
LWPOLYLINE
  5
486
330
2E56
100
AcDbEntity
  8
0
100
AcDbPolyline
 90
       14
 70
     1
 43
0.0
 10
121.9068196064072
 20
116.5916377313848
 10
119.8837002469028
 20
123.208365421096
 10
123.4325152861021
 20
126.7526547721733
 10
113.7498007151581
 20
126.7588327365606
 10
113.7543855901735
 20
133.9447006588278
 10
112.7557812924344
 20
134.9445800701824
 10
111.7559018810643
 20
133.9459757724284
 10
111.7513170060492
 20
126.7601078501777
 10
104.5654490837967
 20
126.7646927251922
 10
103.5655696724299
 20
125.7660884274394
 10
104.5641739701691
 20
124.7662090160836
 10
111.750041892433
 20
124.7616241410682
 10
111.7438639280462
 20
115.0789095701224
 10
115.2926789672417
 20
118.6231989211986
  0
LWPOLYLINE
  5
487
330
2E56
100
AcDbEntity
  8
0
100
AcDbPolyline
 90
        8
 70
     1
 43
0.0
 10
45.06737113059148
 20
108.0414458716595
 10
49.81716229584549
 20
103.285589718102
 10
47.98741657714072
 20
98.87615238808971
 10
57.40554256120083
 20
102.7702296103175
 10
61.42959329810366
 20
93.03775266043931
 10
63.38971356281025
 20
97.7613748436488
 10
69.8508731808372
 20
97.75725236190709
 10
59.58904837061777
 20
108.0321804529404
  0
LWPOLYLINE
  5
488
330
2E56
100
AcDbEntity
  8
0
100
AcDbPolyline
 90
        6
 70
     1
 43
0.0
 10
75.61130965796042
 20
78.99220815413713
 10
82.10993049364004
 20
85.48254151053072
 10
75.61959713724729
 20
91.98116234620963
 10
67.24302957062298
 20
91.98650693586371
 10
64.54878533728129
 20
85.4937462329866
 10
67.23474209133724
 20
78.99755274379112
  0
LWPOLYLINE
  5
489
330
2E56
100
AcDbEntity
  8
0
100
AcDbPolyline
 90
        6
 70
     1
 43
0.0
 10
27.71937729364152
 20
108.0525145949349
 10
36.90395488337754
 20
108.0466544621341
 10
42.82330341722558
 20
102.1197475371136
 10
40.129059183884
 20
95.6269868342415
 10
33.63286569468335
 20
92.941030080183
 10
27.71351716084223
 20
98.86793700519653
  0
LWPOLYLINE
  5
48A
330
2E56
100
AcDbEntity
  8
0
100
AcDbPolyline
 90
        6
 70
     1
 43
0.0
 10
42.0339842619835
 20
84.52918416001679
 10
47.54601518332106
 20
79.0101149496457
 10
55.60653280532051
 20
79.00497201266739
 10
58.30077703866482
 20
85.49773271554924
 10
54.27672630176778
 20
95.23020966542871
 10
44.54424641394689
 20
91.20615771379021
  0
LWPOLYLINE
  5
48B
330
2E56
100
AcDbEntity
  8
0
100
AcDbPolyline
 90
       10
 70
     1
 43
0.0
 10
27.69073866603264
 20
63.16723532470979
 10
34.2684355309791
 20
79.01858658367522
 10
39.38259893610928
 20
79.0153235401184
 10
35.04012265973575
 20
83.36334470613229
 10
37.000242924448
 20
88.0869668893524
 10
32.2741233158099
 20
86.1328759429532
 10
27.70830857037004
 20
90.70452075798121
 10
27.70418608862929
 20
84.24336113995606
 10
22.97806647999698
 20
82.28927019355779
 10
27.70168866321319
 20
80.32914992884753
  0
LWPOLYLINE
  5
48C
330
2E56
100
AcDbEntity
  8
0
100
AcDbPolyline
 90
        6
 70
     1
 43
0.0
 10
27.67028633226483
 20
31.11232245253382
 10
39.67817189153857
 20
43.10489474682827
 10
50.11880898455785
 20
68.26540447034472
 10
45.15132289251778
 20
73.23923352442313
 10
38.1217515387923
 20
73.2437186758917
 10
27.68111444577255
 20
48.0832089523713
  0
LWPOLYLINE
  5
48D
330
2E56
100
AcDbEntity
  8
0
100
AcDbPolyline
 90
        4
 70
     1
 43
0.0
 10
30.5212085763294
 20
21.03786354196552
 10
27.6631044277226
 20
19.85613394069753
 10
27.66507774179297
 20
22.94890620531981
 10
33.89687328537002
 20
29.17275454320401
  0
LWPOLYLINE
  5
48E
330
2E56
100
AcDbEntity
  8
0
100
AcDbPolyline
 90
       10
 70
     1
 43
0.0
 10
50.35099457846218
 20
53.76410673088912
 10
56.92869144339226
 20
69.61545798986321
 10
53.31473913975163
 20
73.23402493394872
 10
59.45984881314735
 20
73.2301041048907
 10
61.41996907785335
 20
77.95372628811481
 10
63.3740600242595
 20
73.2276066794777
 10
69.83521964228476
 20
73.22348419774488
 10
65.2635748272595
 20
68.65766945229859
 10
67.217665773661
 20
63.9315498436691
 10
62.49404359044319
 20
65.89167010837283
  0
LWPOLYLINE
  5
48F
330
2E56
100
AcDbEntity
  8
0
100
AcDbPolyline
 90
       12
 70
     1
 43
0.0
 10
137.1863380902698
 20
65.12282474238381
 10
140.7306274413465
 20
61.57400970318511
 10
140.736805405734
 20
71.2567242741284
 10
147.9226733280007
 20
71.25213939911273
 10
148.9225527393557
 20
72.25074369685239
 10
147.9239484416027
 20
73.25062310822253
 10
140.7380805193518
 20
73.25520798323791
 10
140.7426653943651
 20
80.44107590549021
 10
139.7440610966134
 20
81.44095531685701
 10
138.744181685258
 20
80.44235101911851
 10
138.7395968102414
 20
73.25648309685431
 10
129.0568822392956
 20
73.26266106124063
  0
LWPOLYLINE
  5
490
330
2E56
100
AcDbEntity
  8
0
100
AcDbPolyline
 90
       12
 70
     1
 43
0.0
 10
79.10493789662769
 20
123.2106050141146
 10
75.55651218764751
 20
126.7552841497284
 10
85.23922737877432
 20
126.760398553595
 10
85.23543180776824
 20
133.9462669361209
 10
86.23414592738573
 20
134.9460366536015
 10
87.23391564488043
 20
133.9473225339692
 10
87.23771121588788
 20
126.7614541514597
 10
94.42357959839842
 20
126.7652497224649
 10
95.42334931589152
 20
125.7665356028337
 10
94.42463519627574
 20
124.7667658853524
 10
87.23876681375248
 20
124.7629703143457
 10
87.24388121761695
 20
115.0802551232166
  0
LWPOLYLINE
  5
491
330
2E56
100
AcDbEntity
  8
0
100
AcDbPolyline
 90
        4
 70
     1
 43
0.0
 10
19.70588073182648
 20
23.15807359890186
 10
21.89419631656983
 20
25.34359849612343
 10
21.89981583960344
 20
34.15106874874493
 10
18.52415113056054
 20
26.01617774750582
  0
LWPOLYLINE
  5
492
330
2E56
100
AcDbEntity
  8
0
100
AcDbPolyline
 90
       10
 70
     1
 43
0.0
 10
-115.6930970729699
 20
132.5883358256615
 10
-115.6973935453263
 20
136.2444147715108
 10
-113.0104556545686
 20
138.9376752482623
 10
-115.7037161313212
 20
141.6246131390221
 10
-115.7081868747507
 20
145.428987889448
 10
-128.5255265507067
 20
145.4138746308475
 10
-128.5337553895217
 20
132.5965286861672
 10
-124.7293787865554
 20
132.594101339684
 10
-122.0409946860098
 20
129.902284452826
 10
-119.3491777991514
 20
132.5906685533654
  0
LWPOLYLINE
  5
493
330
2E56
100
AcDbEntity
  8
0
100
AcDbPolyline
 90
       16
 70
     1
 43
0.0
 10
15.47468963957214
 20
137.7604323369776
 10
10.31467793997399
 20
132.5882787051713
 10
8.901537245289773
 20
132.5866180408338
 10
8.899876580952195
 20
133.9997587355143
 10
13.97507885887717
 20
139.0869033820939
 10
8.887934212295022
 20
144.1621056600209
 10
8.886126625155839
 20
145.5754141652151
 10
10.29941424264052
 20
145.576907019039
 10
15.47483535501305
 20
140.4136355094716
 10
20.65082348958299
 20
145.5747680413088
 10
22.06391138103095
 20
145.5746904337105
 10
22.06214819425816
 20
144.1613821246276
 10
16.97444611232254
 20
139.0867386551231
 10
22.04908958182591
 20
133.999036573189
 10
22.04727369650141
 20
132.5858960694426
 10
20.63413319275105
 20
132.5877119547652
  0
LWPOLYLINE
  5
494
330
2E56
100
AcDbEntity
  8
0
100
AcDbPolyline
 90
        8
 70
     1
 43
0.0
 10
5.900450473600017
 20
139.0835279016945
 10
3.211770717017088
 20
136.3920063262672
 10
3.213780186393478
 20
132.5876294802586
 10
-5.970797991621111
 20
132.5827781920378
 10
-12.468705882432
 20
139.0738253252513
 10
-5.977658749219472
 20
145.5717332160612
 10
3.206919428796709
 20
145.576584504282
 10
3.208928898171961
 20
141.7722076582783
  0
LWPOLYLINE
  5
495
330
2E56
100
AcDbEntity
  8
0
100
AcDbPolyline
 90
       13
 70
     1
 43
0.0
 10
-77.72715841287674
 20
139.0393558530642
 10
-75.03563683744812
 20
136.3506760964869
 10
-75.03362736807287
 20
132.5462992504753
 10
-71.2292505220596
 20
132.5483087198517
 10
-68.53772894663837
 20
129.8596289632768
 10
-65.84904919005658
 20
132.551150538696
 10
-62.0446723440483
 20
132.5531600080735
 10
-62.04668181342412
 20
136.3575368540873
 10
-59.35800205684415
 20
139.0490584295061
 10
-62.0495236322688
 20
141.7377381860885
 10
-62.05153310164575
 20
145.5421150320962
 10
-75.04048812566793
 20
145.5352542744984
 10
-75.03847865629211
 20
141.7308774284968
  0
LWPOLYLINE
  5
496
330
2E56
100
AcDbEntity
  8
0
100
AcDbPolyline
 90
        5
 70
     1
 43
0.0
 10
-56.27821946436347
 20
144.1318628482723
 10
-55.27844974687434
 20
143.1331487286434
 10
-54.27973562724947
 20
144.1329184461261
 10
-54.28048204765469
 20
145.5460599194615
 10
-56.27896588476869
 20
145.5450043215988
  0
LWPOLYLINE
  5
497
330
2E56
100
AcDbEntity
  8
0
100
AcDbPolyline
 90
        8
 70
     1
 43
0.0
 10
-51.19458528676489
 20
139.0533703409313
 10
-48.50306371134718
 20
136.3646905843587
 10
-48.50105424197181
 20
132.5603137383453
 10
-38.81811309246769
 20
132.5654282615625
 10
-32.32706595925538
 20
139.0633361523732
 10
-38.82497385006286
 20
145.5543832855865
 10
-48.50791499956802
 20
145.5492687623692
 10
-48.5059055301922
 20
141.744891916354
  0
LWPOLYLINE
  5
498
330
2E56
100
AcDbEntity
  8
0
100
AcDbPolyline
 90
        7
 70
     1
 43
0.0
 10
-14.13421476170436
 20
132.5784662806092
 10
-27.12323596740328
 20
132.5716054880556
 10
-30.65469632238285
 20
132.5697401729936
 10
-24.163649189171
 20
139.0676480638028
 10
-30.66155707998075
 20
145.5586951970165
 10
-14.14107551930271
 20
145.5674213046325
 10
-20.63212265251525
 20
139.0695134138225
  0
LWPOLYLINE
  5
499
330
2E56
100
AcDbEntity
  8
0
100
AcDbPolyline
 90
        4
 70
     1
 43
0.0
 10
-109.8417286880668
 20
144.1035706375347
 10
-108.8419589705737
 20
143.1048565179036
 10
-106.4308497980246
 20
145.5185141291309
 10
-109.8424751084737
 20
145.5167121108602
  0
LWPOLYLINE
  5
49A
330
2E56
100
AcDbEntity
  8
0
100
AcDbPolyline
 90
        8
 70
     1
 43
0.0
 10
-104.7471048349678
 20
139.0360794213091
 10
-98.26704737725197
 20
145.5229860210067
 10
-88.58410622775636
 20
145.5281005442252
 10
-88.58209675836974
 20
141.723723698204
 10
-85.89057505104619
 20
139.035043809867
 10
-88.5823920698183
 20
136.3466595775845
 10
-88.58481941631181
 20
132.5422829752364
 10
-98.26775994561149
 20
132.5484610837947
  0
LWPOLYLINE
  5
49B
330
2E56
100
AcDbEntity
  8
0
100
AcDbPolyline
 90
        5
 70
     1
 43
0.0
 10
-80.79567093992499
 20
144.1332093607836
 10
-81.79555035128828
 20
143.1346050630331
 10
-82.79415464903536
 20
144.1344844743897
 10
-82.79325300755123
 20
145.5476258572126
 10
-80.79476929844293
 20
145.5463507435978
  0
LWPOLYLINE
  5
49C
330
2E56
100
AcDbEntity
  8
0
100
AcDbPolyline
 90
       10
 70
     1
 43
0.0
 10
146.6419074518558
 20
132.5739282365973
 10
146.6466055120927
 20
136.2300066884619
 10
143.9599634683665
 20
138.9235622853085
 10
146.6535190652148
 20
141.6102043290368
 10
146.6584076855075
 20
145.4145785654412
 10
159.4757456240833
 20
145.3980574356282
 10
159.4825665908571
 20
132.5807106644039
 10
155.6781897442192
 20
132.5787011950286
 10
152.9895099876345
 20
129.8871796196049
 10
150.2979884122104
 20
132.5758593761832
  0
LWPOLYLINE
  5
49D
330
2E56
100
AcDbEntity
  8
0
100
AcDbPolyline
 90
        8
 70
     1
 43
0.0
 10
25.04907407815585
 20
139.0824762482922
 10
27.73745817870054
 20
136.3906593614306
 10
27.73503083221612
 20
132.5862827590946
 10
36.91960842195283
 20
132.5804226262926
 10
43.4182292576329
 20
139.0707559826868
 10
36.92789590123857
 20
145.5693768183664
 10
27.7433183115013
 20
145.5752369511683
 10
27.74089096501825
 20
141.770860348837
  0
LWPOLYLINE
  5
49E
330
2E56
100
AcDbEntity
  8
0
100
AcDbPolyline
 90
       13
 70
     1
 43
0.0
 10
108.6766776082382
 20
139.0291184473691
 10
105.9848607213746
 20
136.3407343468309
 10
105.9824333748922
 20
132.5363577444919
 10
102.1780567725507
 20
132.538785090976
 10
99.48623988569501
 20
129.8504009904402
 10
96.79785578515293
 20
132.5422178772936
 10
92.99347918281638
 20
132.544645223779
 10
92.99590652930112
 20
136.3490218261203
 10
90.30752242875905
 20
139.0408387129731
 10
92.9993393156185
 20
141.7292228135167
 10
93.00176666210109
 20
145.5335994158518
 10
105.9907208541746
 20
145.5253119365648
 10
105.9882935076914
 20
141.7209353342358
  0
LWPOLYLINE
  5
49F
330
2E56
100
AcDbEntity
  8
0
100
AcDbPolyline
 90
        5
 70
     1
 43
0.0
 10
87.22829815593001
 20
144.1239813879325
 10
86.22841874456549
 20
143.1253770901817
 10
85.22981444681944
 20
144.1252565015389
 10
85.23071608830377
 20
145.5383978843615
 10
87.22919979741323
 20
145.5371227707465
  0
LWPOLYLINE
  5
4A0
330
2E56
100
AcDbEntity
  8
0
100
AcDbPolyline
 90
        8
 70
     1
 43
0.0
 10
82.14410618155113
 20
139.0460473034415
 10
79.45228929470068
 20
136.357663202908
 10
79.44986194821581
 20
132.5532866005671
 10
69.76692141891089
 20
132.5594647091248
 10
63.27658806251702
 20
139.058085544805
 10
69.77520889819562
 20
145.5484189011988
 10
79.45814942750144
 20
145.5422407926414
 10
79.4557220810185
 20
141.7378641902983
  0
LWPOLYLINE
  5
4A1
330
2E56
100
AcDbEntity
  8
0
100
AcDbPolyline
 90
        7
 70
     1
 43
0.0
 10
45.08302466916506
 20
132.5752140358211
 10
58.07204504290905
 20
132.566926514309
 10
61.60350517169695
 20
132.564673299599
 10
55.11317181530535
 20
139.063294135278
 10
61.61179265098155
 20
145.5536274916718
 10
45.09131214845081
 20
145.5641682278947
 10
51.58164550484412
 20
139.065547392215
  0
LWPOLYLINE
  5
4A2
330
2E56
100
AcDbEntity
  8
0
100
AcDbPolyline
 90
        4
 70
     1
 43
0.0
 10
140.7918039488602
 20
144.0898057000249
 10
139.7919245374938
 20
143.0912014022721
 10
137.3810804984114
 20
145.5051238379384
 10
140.7927055903433
 20
145.502947082838
  0
LWPOLYLINE
  5
4A3
330
2E56
100
AcDbEntity
  8
0
100
AcDbPolyline
 90
        8
 70
     1
 43
0.0
 10
135.696623507443
 20
139.0228741137014
 10
129.2172786180856
 20
145.5104924512162
 10
119.5343380887853
 20
145.5166705597755
 10
119.5319107422925
 20
141.7122939574265
 10
116.8400937235215
 20
139.0239097251434
 10
119.5316154308444
 20
136.335229836807
 10
119.53362490023
 20
132.5308529907866
 10
129.2165660497273
 20
132.5359675140046
  0
LWPOLYLINE
  5
4A4
330
2E56
100
AcDbEntity
  8
0
100
AcDbPolyline
 90
        5
 70
     1
 43
0.0
 10
111.7457496314915
 20
144.1226348754211
 10
112.7455193489806
 20
143.1239207557924
 10
113.7442334686061
 20
144.123690473275
 10
113.7434870481991
 20
145.5368319466102
 10
111.7450032110863
 20
145.5357763487479
  0
LWPOLYLINE
  5
4A5
330
2E56
100
AcDbEntity
  8
0
100
AcDbPolyline
 90
        9
 70
     0
 43
0.0
 10
-120.7946179075121
 20
1.506091586197044
 10
-115.6220436157105
 20
-3.653206251539643
 10
-115.620227730387
 20
-5.066346755288691
 10
-117.0333682341333
 20
-5.068162640613309
 10
-122.1210703160689
 20
0.0064808288880727
 10
-127.1957137855711
 20
-5.081221253050102
 10
-128.6090220836929
 20
-5.083184079607462
 10
-128.610670174642
 20
-3.669896634625615
 10
-123.4479671704177
 20
1.506091586197044
  0
LWPOLYLINE
  5
4A6
330
2E56
100
AcDbEntity
  8
0
100
AcDbPolyline
 90
        9
 70
     0
 43
0.0
 10
-94.12653484048382
 20
1.506091586197044
 10
-96.83758913629255
 20
-1.211939082937817
 10
-96.83737788787448
 20
-5.058374060291896
 10
-100.6743616517922
 20
-5.05858478964393
 10
-103.3497345206099
 20
-7.740842212545999
 10
-106.0385988485598
 20
-5.058879396631425
 10
-109.8476643534816
 20
-5.059088592695957
 10
-109.8525529735243
 20
-1.254714553341273
 10
-112.6204635131287
 20
1.506091586197044
  0
LWPOLYLINE
  5
4A7
330
2E56
100
AcDbEntity
  8
0
100
AcDbPolyline
 90
        4
 70
     0
 43
0.0
 10
-62.20835396133179
 20
1.506091586197044
 10
-59.50597078731721
 20
-4.994399720801425
 10
-32.2652489328367
 20
-4.95939539750293
 10
-16.71273871251287
 20
1.506091586197044
  0
LWPOLYLINE
  5
4A8
330
2E56
100
AcDbEntity
  8
0
100
AcDbPolyline
 90
        4
 70
     1
 43
0.0
 10
-91.08797115990887
 20
-3.621679972291758
 10
-90.09001395176779
 20
-2.621154714497265
 10
-87.6745323048965
 20
-5.030436541063693
 10
-91.08615527458448
 20
-5.034820476041943
  0
LWPOLYLINE
  5
4A9
330
2E56
100
AcDbEntity
  8
0
100
AcDbPolyline
 90
        4
 70
     0
 43
0.0
 10
-86.05372652733127
 20
1.506091586197044
 10
-79.51073519571673
 20
-5.020105839920006
 10
-71.13417283985097
 20
-5.009341958609468
 10
-68.44519547875006
 20
1.506091586196873
  0
LWPOLYLINE
  5
4AA
330
2E56
100
AcDbEntity
  8
0
100
AcDbPolyline
 90
        8
 70
     1
 43
0.0
 10
-122.116807909238
 20
-8.068147136913069
 10
-119.4249910223767
 20
-10.75653123745633
 10
-115.6206144200414
 20
-10.7541038909726
 10
-115.6147542872393
 20
-19.9386814807093
 10
-122.105087643632
 20
-26.43730231638961
 10
-128.6037084793129
 20
-19.9469689599959
 10
-128.6095686121149
 20
-10.76239137025805
 10
-124.8051920097825
 20
-10.75996402377495
  0
LWPOLYLINE
  5
4AB
330
2E56
100
AcDbEntity
  8
0
100
AcDbPolyline
 90
       13
 70
     1
 43
0.0
 10
-122.0634501083144
 20
-91.69575066699497
 10
-119.3750660077767
 20
-89.00393378013092
 10
-115.5706894054374
 20
-89.00150643364838
 10
-115.5731167519216
 20
-85.19712983130762
 10
-112.8847326513868
 20
-82.5053129444521
 10
-115.5765495382407
 20
-79.81692884390963
 10
-115.5789768847255
 20
-76.0125522415741
 10
-119.3833534870664
 20
-76.01497958805714
 10
-122.0751703739192
 20
-73.32659548751656
 10
-124.7635544744637
 20
-76.01841237437537
 10
-128.567931076799
 20
-76.02083972085847
 10
-128.5596435975109
 20
-89.00979391293146
 10
-124.7552669951819
 20
-89.0073665664487
  0
LWPOLYLINE
  5
4AC
330
2E56
100
AcDbEntity
  8
0
100
AcDbPolyline
 90
        5
 70
     1
 43
0.0
 10
-127.1583130488787
 20
-70.2473712146866
 10
-126.1597087511274
 20
-69.24749180332264
 10
-127.1595881624852
 20
-68.2488875055759
 10
-128.5727295453071
 20
-68.24978914705951
 10
-128.5714544316924
 20
-70.24827285616936
  0
LWPOLYLINE
  5
4AD
330
2E56
100
AcDbEntity
  8
0
100
AcDbPolyline
 90
        8
 70
     1
 43
0.0
 10
-122.0803789643876
 20
-65.16317924030829
 10
-119.3919948638544
 20
-62.47136235345727
 10
-115.5876182615129
 20
-62.46893500697314
 10
-115.5937963700712
 20
-52.7859944776672
 10
-122.092417205752
 20
-46.29566112127389
 10
-128.5827505621447
 20
-52.79428195695231
 10
-128.5765724535877
 20
-62.47722248625854
 10
-124.7721958512443
 20
-62.47479513977578
  0
LWPOLYLINE
  5
4AE
330
2E56
100
AcDbEntity
  8
0
100
AcDbPolyline
 90
        7
 70
     1
 43
0.0
 10
-115.6095456967675
 20
-28.10209772792166
 10
-115.6012581752554
 20
-41.09111810166649
 10
-115.5990049605441
 20
-44.62257823045542
 10
-122.0976257962243
 20
-38.13224487406143
 10
-128.5879591526183
 20
-44.63086570973956
 10
-128.598499888841
 20
-28.11038520720814
 10
-122.0998790531603
 20
-34.60071856360077
  0
LWPOLYLINE
  5
4AF
330
2E56
100
AcDbEntity
  8
0
100
AcDbPolyline
 90
        4
 70
     1
 43
0.0
 10
-108.4349061725393
 20
-10.74967889459446
 10
-107.4350267611706
 20
-11.74828319234569
 10
-109.8458708002538
 20
-14.16220562801141
 10
-109.8480475553513
 20
-10.75058053607819
  0
LWPOLYLINE
  5
4B0
330
2E56
100
AcDbEntity
  8
0
100
AcDbPolyline
 90
        4
 70
     1
 43
0.0
 10
-98.27255429947525
 20
-10.74319490216555
 10
-96.85941291666313
 20
-10.74229326068081
 10
-96.85723616156373
 20
-14.15391835261363
 10
-99.27115859722801
 20
-11.74307431353293
  0
LWPOLYLINE
  5
4B1
330
2E56
100
AcDbEntity
  8
0
100
AcDbPolyline
 90
        8
 70
     1
 43
0.0
 10
-80.78051529956178
 20
-70.21794007654102
 10
-80.78637543236277
 20
-61.03336248680625
 10
-96.83739353909357
 20
-45.00281372018031
 10
-96.85186754828329
 20
-22.31772023293877
 10
-103.3504883839651
 20
-15.82738687654574
 10
-109.8408217403579
 20
-22.32600771222508
 10
-109.822914944848
 20
-50.39130218686387
 10
-89.9650928892977
 20
-70.22380020934384
  0
LWPOLYLINE
  5
4B2
330
2E56
100
AcDbEntity
  8
0
100
AcDbPolyline
 90
        8
 70
     1
 43
0.0
 10
-102.035359650125
 20
-76.00391086478459
 10
-102.0329323036408
 20
-79.80828746713251
 10
-104.7213164041733
 20
-82.50010435398019
 10
-102.0294995173217
 20
-85.18848845450577
 10
-102.0270721708379
 20
-88.99286505685877
 10
-92.34413164152863
 20
-88.98668694830025
 10
-85.85379828513476
 20
-82.48806611261967
 10
-92.35241912081438
 20
-75.99773275622545
  0
LWPOLYLINE
  5
4B3
330
2E56
100
AcDbEntity
  8
0
100
AcDbPolyline
 90
       16
 70
     1
 43
0.0
 10
-62.01550362797139
 20
-75.92738264504879
 10
-52.8819243944514
 20
-75.93811604857768
 10
-59.38403036442696
 20
-82.42495794569931
 10
-52.89718846730955
 20
-88.92706391567697
 10
-62.08176158461231
 20
-88.91627058625147
 10
-62.0925549140394
 20
-98.10084370355315
 10
-68.57939681115863
 20
-91.59873773357531
 10
-75.0815027811343
 20
-98.08557963069667
 10
-75.07079718827617
 20
-88.97566586073565
 10
-84.18071539431513
 20
-88.98147835782413
 10
-77.6903820379224
 20
-82.48285752214798
 10
-84.18900287360088
 20
-75.99252416575416
 10
-75.00442528386497
 20
-75.98666403295038
 10
-75.01028541666767
 20
-66.80208644321499
 10
-68.5116645809868
 20
-73.29241979960551
 10
-62.02133122459293
 20
-66.79379896392766
  0
LWPOLYLINE
  5
4B4
330
2E56
100
AcDbEntity
  8
0
100
AcDbPolyline
 90
        4
 70
     1
 43
0.0
 10
-127.1241373609705
 20
-123.8108770076173
 10
-126.1255330632182
 20
-122.8109975962501
 10
-128.5394554988842
 20
-120.400153557169
 10
-128.5372787437843
 20
-123.8117786491009
  0
LWPOLYLINE
  5
4B5
330
2E56
100
AcDbEntity
  8
0
100
AcDbPolyline
 90
        4
 70
     1
 43
0.0
 10
-115.5486441050955
 20
-123.8034913737034
 10
-116.9617854879066
 20
-123.8043930151891
 10
-117.9616648992762
 20
-122.8057887174339
 10
-115.5508208601942
 20
-120.3918662817674
  0
LWPOLYLINE
  5
4B6
330
2E56
100
AcDbEntity
  8
0
100
AcDbPolyline
 90
       14
 70
     1
 43
0.0
 10
-99.6259693923131
 20
-104.9258926651649
 10
-106.2426970820252
 20
-102.9027733056598
 10
-109.7869864331021
 20
-106.4515883448586
 10
-109.7931643974883
 20
-96.76887377391551
 10
-116.9790323197552
 20
-96.77345864893091
 10
-117.9789117311099
 20
-95.7748543511912
 10
-116.9803074333561
 20
-94.77497493982127
 10
-109.7944395111058
 20
-94.77039006480579
 10
-109.7990243861207
 20
-87.58452214255351
 10
-108.8004200883679
 20
-86.58464273118671
 10
-107.8005406770119
 20
-87.58324702892521
 10
-107.7959558019963
 20
-94.7691149511893
 10
-98.11324123104999
 20
-94.76293698680331
 10
-101.6575305821269
 20
-98.31175202599878
  0
LWPOLYLINE
  5
4B7
330
2E56
100
AcDbEntity
  8
0
100
AcDbPolyline
 90
        6
 70
     1
 43
0.0
 10
-80.84999696042984
 20
-94.75176235666982
 10
-80.86069024264725
 20
-103.8512004005202
 10
-86.08441353001069
 20
-109.0626606929082
 10
-93.01513588717648
 20
-106.9103689281074
 10
-95.1637047291606
 20
-99.97849153708138
 10
-89.94943943525697
 20
-94.75756816981776
  0
LWPOLYLINE
  5
4B8
330
2E56
100
AcDbEntity
  8
0
100
AcDbPolyline
 90
        6
 70
     1
 43
0.0
 10
-97.66806641417293
 20
-111.5608009554456
 10
-95.54891502607052
 20
-118.5049437198976
 10
-100.7291619352584
 20
-123.6730296974422
 10
-109.7761652193917
 20
-123.6623980343786
 10
-109.781937577021
 20
-114.6153903448012
 10
-104.6110699436251
 20
-109.4379200523379
  0
LWPOLYLINE
  5
4B9
330
2E56
100
AcDbEntity
  8
0
100
AcDbPolyline
 90
        8
 70
     1
 43
0.0
 10
-122.0572057746474
 20
-118.7156965661992
 10
-128.5448241121625
 20
-112.2363516768421
 10
-128.5510022207212
 20
-102.5534111475431
 10
-124.7466256183723
 20
-102.5509838010498
 10
-122.0582413860898
 20
-99.85916678227846
 10
-119.3695614977534
 20
-102.5506884896011
 10
-115.5651846517333
 20
-102.5526979589867
 10
-115.5702991749513
 20
-112.2356391084834
  0
LWPOLYLINE
  5
4BA
330
2E56
100
AcDbEntity
  8
0
100
AcDbPolyline
 90
        8
 70
     1
 43
0.0
 10
-91.07577753258761
 20
-28.08644418934807
 10
-86.31992137903081
 20
-32.83623535460191
 10
-81.91048404901721
 20
-31.00648963589725
 10
-85.80456127124568
 20
-40.42461561995799
 10
-76.07208432136792
 20
-44.44866635686048
 10
-80.79570650457787
 20
-46.408786621567
 10
-80.79158402283622
 20
-52.86994623959412
 10
-91.06651211386793
 20
-42.60812142937561
  0
LWPOLYLINE
  5
4BB
330
2E56
100
AcDbEntity
  8
0
100
AcDbPolyline
 90
        6
 70
     1
 43
0.0
 10
-62.02653981506592
 20
-58.63038271671695
 10
-68.51687317145866
 20
-65.12900355239697
 10
-75.01549400713838
 20
-58.63867019600343
 10
-75.02083859679146
 20
-50.26210262937991
 10
-68.528077893915
 20
-47.56785839603816
 10
-62.03188440471899
 20
-50.25381515009446
  0
LWPOLYLINE
  5
4BC
330
2E56
100
AcDbEntity
  8
0
100
AcDbPolyline
 90
        6
 70
     1
 43
0.0
 10
-91.08684625586329
 20
-10.73845035239787
 10
-91.08098612306219
 20
-19.92302794213447
 10
-85.15407919804147
 20
-25.84237647598161
 10
-78.66131849516853
 20
-23.14813224264191
 10
-75.97536174111098
 20
-16.65193875344028
 10
-81.90226866612499
 20
-10.73259021959967
  0
LWPOLYLINE
  5
4BD
330
2E56
100
AcDbEntity
  8
0
100
AcDbPolyline
 90
        6
 70
     1
 43
0.0
 10
-67.56351582094476
 20
-25.05305732074049
 10
-62.04444661057369
 20
-30.5650882420781
 10
-62.03930367359624
 20
-38.62560586407767
 10
-68.53206437647713
 20
-41.31985009742146
 10
-78.2645413263565
 20
-37.29579936052398
 10
-74.24048937471798
 20
-27.56331947270274
  0
LWPOLYLINE
  5
4BE
330
2E56
100
AcDbEntity
  8
0
100
AcDbPolyline
 90
       10
 70
     1
 43
0.0
 10
-46.20156698563767
 20
-10.70981172479043
 10
-62.05291824460312
 20
-17.28750858973547
 10
-62.0496552010477
 20
-22.40167199486592
 10
-66.39767636705983
 20
-18.0591957184921
 10
-71.12129855028115
 20
-20.01931598320488
 10
-69.16720760388125
 20
-15.29319637456677
 10
-73.73885241890935
 20
-10.72738162912787
 10
-67.27769280088409
 20
-10.72325914738633
 10
-65.32360185448647
 20
-5.997139538753629
 10
-63.36348158977592
 20
-10.72076172196995
  0
LWPOLYLINE
  5
4BF
330
2E56
100
AcDbEntity
  8
0
100
AcDbPolyline
 90
        6
 70
     1
 43
0.0
 10
-14.14665411346186
 20
-10.68935939102192
 10
-26.13922640775684
 20
-22.69724495029567
 10
-51.29973613127162
 20
-33.13788204331462
 10
-56.27356518535146
 20
-28.17039595127426
 10
-56.27805033681955
 20
-21.14082459754945
 10
-31.11754061329907
 20
-10.70018750452942
  0
LWPOLYLINE
  5
4C0
330
2E56
100
AcDbEntity
  8
0
100
AcDbPolyline
 90
        6
 70
     1
 43
0.0
 10
-39.4248212898774
 20
-53.34883090115806
 10
-42.11611931047719
 20
-46.86317016868281
 10
-22.86629818820177
 20
-27.58876903101492
 10
-7.108552100577298
 20
-21.04991468694078
 10
-13.65586926281992
 20
-36.8041463683648
 10
-32.94060703624143
 20
-56.04361209550461
  0
LWPOLYLINE
  5
4C1
330
2E56
100
AcDbEntity
  8
0
100
AcDbPolyline
 90
        4
 70
     1
 43
0.0
 10
-6.192405259829001
 20
-2.72495379058364
 10
-8.377930157052105
 20
-4.913269375326763
 10
-17.18540040967309
 20
-4.918888898361501
 10
-9.050509408435345
 20
-1.543224189316788
  0
LWPOLYLINE
  5
4C2
330
2E56
100
AcDbEntity
  8
0
100
AcDbPolyline
 90
        4
 70
     1
 43
0.0
 10
-4.072195202894249
 20
-13.54028163508644
 10
-2.890465601626033
 20
-10.68217748647851
 10
-5.983237866248373
 20
-10.68415080055007
 10
-12.20708620413154
 20
-16.91594634412661
  0
LWPOLYLINE
  5
4C3
330
2E56
100
AcDbEntity
  8
0
100
AcDbPolyline
 90
        6
 70
     1
 43
0.0
 10
-43.84984237316302
 20
-57.77147586608248
 10
-41.17265127344967
 20
-64.25633112891171
 10
-47.10273672928565
 20
-70.17249536339801
 10
-56.24677299954839
 20
-70.16174967119491
 10
-56.25260726818623
 20
-61.01770894823648
 10
-50.33325873434228
 20
-55.09080202322031
  0
LWPOLYLINE
  5
4C4
330
2E56
100
AcDbEntity
  8
0
100
AcDbPolyline
 90
        5
 70
     1
 43
0.0
 10
-127.1569665363679
 20
-94.76482269024813
 10
-126.1582524167385
 20
-95.76459240773766
 10
-127.1580221342219
 20
-96.763306527363
 10
-128.5711636075564
 20
-96.76256010695595
 10
-128.5701080096945
 20
-94.76407626984245
  0
LWPOLYLINE
  5
4C5
330
2E56
100
AcDbEntity
  8
0
100
AcDbPolyline
 90
       10
 70
     1
 43
0.0
 10
-36.7984383918174
 20
-33.3700676372194
 10
-52.64978965079206
 20
-39.94776450214891
 10
-56.26835659487688
 20
-36.33381219850816
 10
-56.2644357658188
 20
-42.47892187190444
 10
-60.98805794904297
 20
-44.43904213661028
 10
-56.261938340406
 20
-46.39313308301564
 10
-56.2578158586739
 20
-52.85429270103998
 10
-51.6920011132272
 20
-48.28264788601666
 10
-46.96588150459638
 20
-50.23673883241798
 10
-48.92600176930068
 20
-45.51311664920013
  0
LWPOLYLINE
  5
4C6
330
2E56
100
AcDbEntity
  8
0
100
AcDbPolyline
 90
       16
 70
     1
 43
0.0
 10
15.47322491689942
 20
-108.0784137025539
 10
12.75388178780565
 20
-110.7913730151079
 10
8.907446810451574
 20
-110.791584263524
 10
8.907657539802585
 20
-114.6285680274419
 10
6.225693999108329
 20
-117.3042355023549
 10
8.907952146788034
 20
-119.992805224209
 10
8.908161342852054
 20
-123.8018707291309
 10
12.71253589622802
 20
-123.8063414723331
 10
15.47424073503794
 20
-126.5745448299232
 10
18.23564149455581
 20
-123.8060381402034
 10
22.04001553391083
 20
-123.8011495201614
 10
22.03980633784579
 20
-119.9920840152395
 10
24.72176915376258
 20
-117.3032196872914
 10
22.03951173086034
 20
-114.6278468184721
 10
22.03930100151024
 20
-110.7908630545544
 10
18.1928660241565
 20
-110.7910743029718
  0
LWPOLYLINE
  5
4C7
330
2E56
100
AcDbEntity
  8
0
100
AcDbPolyline
 90
        6
 70
     1
 43
0.0
 10
15.47147211709375
 20
-76.16323729273052
 10
8.967320624945955
 20
-73.46017036115478
 10
8.999332795875034
 20
-46.21944482609097
 10
15.46897262047855
 20
-30.65212126951866
 10
21.94032233873941
 20
-46.21873409951814
 10
21.97532666203029
 20
-73.45945595399746
  0
LWPOLYLINE
  5
4C8
330
2E56
100
AcDbEntity
  8
0
100
AcDbPolyline
 90
        4
 70
     1
 43
0.0
 10
10.34350936834937
 20
-105.0420197621142
 10
11.3439250033432
 20
-104.0439526611498
 10
8.934377872033564
 20
-101.6287356671318
 10
8.930368673665157
 20
-105.0403590977766
  0
LWPOLYLINE
  5
4C9
330
2E56
100
AcDbEntity
  8
0
100
AcDbPolyline
 90
        6
 70
     1
 43
0.0
 10
15.47181450275047
 20
-82.39743391283127
 10
21.99026889983532
 20
-85.0876580065298
 10
22.00103278114318
 20
-93.46422036239728
 10
15.47278175492863
 20
-100.0092705786471
 10
8.943811852269277
 20
-93.46493747246512
 10
8.953655642289731
 20
-85.08837398481393
  0
LWPOLYLINE
  5
4CA
330
2E56
100
AcDbEntity
  8
0
100
AcDbPolyline
 90
        4
 70
     1
 43
0.0
 10
3.217415896301986
 20
-122.3897376176829
 10
2.21870177667256
 20
-121.3899679001883
 10
-0.194955834554662
 20
-123.8010770727389
 10
3.216669475895741
 20
-123.8028790910074
  0
LWPOLYLINE
  5
4CB
330
2E56
100
AcDbEntity
  8
0
100
AcDbPolyline
 90
        4
 70
     1
 43
0.0
 10
3.222783644295986
 20
-112.2273850937145
 10
3.223530064703481
 20
-110.814243620389
 10
-0.1880952457460125
 20
-110.8124416021192
 10
2.223013926803105
 20
-113.2260992133452
  0
LWPOLYLINE
  5
4CC
330
2E56
100
AcDbEntity
  8
0
100
AcDbPolyline
 90
        8
 70
     1
 43
0.0
 10
-56.25388251693926
 20
-94.74187897360582
 10
-47.06930433892694
 20
-94.74673026182513
 10
-31.03699260675171
 20
-110.7959874578478
 10
-8.351897666517629
 20
-110.8079697102425
 10
-1.860850533304073
 20
-117.3058776010536
 10
-8.35875842411383
 20
-123.796924734267
 10
-36.42405469635037
 20
-123.7821006630266
 10
-56.25873380516009
 20
-103.9264571516191
  0
LWPOLYLINE
  5
4CD
330
2E56
100
AcDbEntity
  8
0
100
AcDbPolyline
 90
        8
 70
     1
 43
0.0
 10
-62.03751841012422
 20
-115.9973589374881
 10
-65.84189537550424
 20
-115.9953494680489
 10
-68.53341703536262
 20
-118.6840293089764
 10
-71.22209687628288
 20
-115.9925076491153
 10
-75.02647384166834
 20
-115.990498179675
 10
-75.02135931829752
 20
-106.3075567420081
 10
-68.52345122361907
 20
-99.8165094051426
 10
-62.03240388675226
 20
-106.3144174998211
  0
LWPOLYLINE
  5
4CE
330
2E56
100
AcDbEntity
  8
0
100
AcDbPolyline
 90
        4
 70
     1
 43
0.0
 10
-109.8356145196642
 20
-129.515893467866
 10
-109.8363609400738
 20
-130.9290349411904
 10
-108.8376468204399
 20
-131.9288046586861
 10
-106.4239892092115
 20
-129.5176954861356
  0
LWPOLYLINE
  5
4CF
330
2E56
100
AcDbEntity
  8
0
100
AcDbPolyline
 90
       14
 70
     1
 43
0.0
 10
-90.95976488987401
 20
-113.5911453140256
 10
-88.93591875360915
 20
-120.2076507420684
 10
-92.4843444625892
 20
-123.7523298776821
 10
-82.80162927146193
 20
-123.7574442815486
 10
-82.80542484246803
 20
-130.9433126640746
 10
-81.80671072285099
 20
-131.9430823815552
 10
-80.8069410053547
 20
-130.9443682619229
 10
-80.80314543434917
 20
-123.7584998794134
 10
-73.61727705183728
 20
-123.7622954504185
 10
-72.61750733434587
 20
-122.7635813307877
 10
-73.61622145396222
 20
-121.763811613306
 10
-80.80208983648493
 20
-121.7600160422997
 10
-80.79697543261932
 20
-112.0773008511706
 10
-84.34540114159597
 20
-115.6219799867834
  0
LWPOLYLINE
  5
4D0
330
2E56
100
AcDbEntity
  8
0
100
AcDbPolyline
 90
        8
 70
     1
 43
0.0
 10
-14.12125604048333
 20
-105.0325133726521
 10
-18.87156956578417
 20
-100.2771789702986
 10
-17.04230819577526
 20
-95.86754068551631
 10
-26.46000639310808
 20
-99.76265238202239
 10
-30.48512613217543
 20
-90.0306174972079
 10
-32.44472753697437
 20
-94.75445495378199
 10
-38.90588756884381
 20
-94.75104217325464
 10
-28.64293421063314
 20
-105.0248430316869
  0
LWPOLYLINE
  5
4D1
330
2E56
100
AcDbEntity
  8
0
100
AcDbPolyline
 90
        6
 70
     1
 43
0.0
 10
-44.66838518521263
 20
-75.98663081164062
 10
-51.16629307602352
 20
-82.47767794485378
 10
-44.67524594281053
 20
-88.97558583566308
 10
-36.29867783966313
 20
-88.98001033348753
 10
-33.60514679486334
 20
-82.48695373089901
 10
-36.29181708206647
 20
-75.9910553094652
  0
LWPOLYLINE
  5
4D2
330
2E56
100
AcDbEntity
  8
0
100
AcDbPolyline
 90
        6
 70
     1
 43
0.0
 10
3.226738907614958
 20
-105.0416765723034
 10
-5.957839270399063
 20
-105.0368252840838
 10
-11.87783878679738
 20
-99.11056858285547
 10
-9.184307742000328
 20
-92.61751198027161
 10
-2.688409320559458
 20
-89.93084169306627
 10
3.231590195832495
 20
-95.85709839428767
  0
LWPOLYLINE
  5
4D3
330
2E56
100
AcDbEntity
  8
0
100
AcDbPolyline
 90
        6
 70
     1
 43
0.0
 10
-11.09045180399198
 20
-81.51991861215226
 10
-16.60308891297575
 20
-76.0014548828791
 10
-24.66360705125601
 20
-75.99719732244046
 10
-27.35713809605875
 20
-82.49025392503382
 10
-23.33201835699583
 20
-92.22228880984943
 10
-13.59998053437152
 20
-88.19716785572291
  0
LWPOLYLINE
  5
4D4
330
2E56
100
AcDbEntity
  8
0
100
AcDbPolyline
 90
       10
 70
     1
 43
0.0
 10
3.250447284449592
 20
-60.15639442715041
 10
-3.325508410197244
 20
-76.00846809226647
 10
-8.439672142892504
 20
-76.00576679430867
 10
-4.096718301078453
 20
-80.35331095151377
 10
-6.056319705884106
 20
-85.07714840809848
 10
-1.33041476534936
 20
-83.12253835108435
 10
3.235902107260471
 20
-87.69368162420073
 10
3.239314887787486
 20
-81.23252159233459
 10
7.965219828317799
 20
-79.27791153532161
 10
3.24138237173679
 20
-77.31831013051868
  0
LWPOLYLINE
  5
4D5
330
2E56
100
AcDbEntity
  8
0
100
AcDbPolyline
 90
        6
 70
     1
 43
0.0
 10
3.267378669667436
 20
-28.10147950183944
 10
-8.739189539261246
 20
-40.09537068372248
 10
-19.17706291002525
 20
-65.25702706702048
 10
-14.20903051685877
 20
-70.23031045671928
 10
-7.179458712887253
 20
-70.23402347197396
 10
3.258414657879711
 20
-45.07236708867179
  0
LWPOLYLINE
  5
4D6
330
2E56
100
AcDbEntity
  8
0
100
AcDbPolyline
 90
        4
 70
     1
 43
0.0
 10
11.23091051823507
 20
-20.14635587673797
 10
9.042835007256144
 20
-22.33212112787118
 10
9.0381829068981
 20
-31.13959194461597
 10
12.41295404981429
 20
-23.0043302055642
  0
LWPOLYLINE
  5
4D7
330
2E56
100
AcDbEntity
  8
0
100
AcDbPolyline
 90
        4
 70
     1
 43
0.0
 10
0.4153498526695785
 20
-18.02733380061761
 10
3.273324181499447
 20
-16.84529026903777
 10
3.271690581096549
 20
-19.93806273175392
 10
-2.95942129024047
 20
-26.16259553966893
  0
LWPOLYLINE
  5
4D8
330
2E56
100
AcDbEntity
  8
0
100
AcDbPolyline
 90
       10
 70
     1
 43
0.0
 10
-19.41084134171933
 20
-50.75575491857666
 10
-25.98679703635025
 20
-66.6078285837014
 10
-22.37244728696351
 20
-70.22599854528812
 10
-28.51755735395796
 20
-70.22275270215442
 10
-30.47715875875679
 20
-74.94659015874304
 10
-32.4317688157762
 20
-70.22068521820933
 10
-38.89292884764211
 20
-70.21727243769061
 10
-34.32178557452971
 20
-65.65095556507356
 10
-36.27639563154549
 20
-60.925050624547
 10
-31.552558174963
 20
-62.88465202934344
  0
LWPOLYLINE
  5
4D9
330
2E56
100
AcDbEntity
  8
0
100
AcDbPolyline
 90
       12
 70
     1
 43
0.0
 10
-106.2449366750641
 20
-62.12401095536228
 10
-109.7896158106772
 20
-58.57558524638301
 10
-109.7947302145439
 20
-68.2583004375096
 10
-116.9805985970705
 20
-68.25450486650311
 10
-117.9803683145505
 20
-69.25321898612117
 10
-116.9816541949188
 20
-70.25298870361694
 10
-109.7957858124088
 20
-70.2567842746231
 10
-109.7995813834147
 20
-77.44265265713448
 10
-108.8008672637825
 20
-78.44242237462691
 10
-107.8010975463019
 20
-77.44370825501011
 10
-107.7973019752946
 20
-70.25783987248729
 10
-98.11458678416682
 20
-70.2629542763525
  0
LWPOLYLINE
  5
4DA
330
2E56
100
AcDbEntity
  8
0
100
AcDbPolyline
 90
       12
 70
     1
 43
0.0
 10
-48.15715640333348
 20
-120.2054111490051
 10
-44.60834136413405
 20
-123.7497005000825
 10
-54.29105593507756
 20
-123.75587846447
 10
-54.2864710600619
 20
-130.9417463867369
 10
-55.28507535780182
 20
-131.9416257980916
 10
-56.28495476917146
 20
-130.9430215003377
 10
-56.2895396441869
 20
-123.7571535780869
 10
-63.475407566439
 20
-123.7617384531016
 10
-64.47528697780637
 20
-122.7631341553486
 10
-63.47668268006771
 20
-121.7632547439928
 10
-56.29081475780367
 20
-121.758669868977
 10
-56.29699272218999
 20
-112.0759552980315
  0
LWPOLYLINE
  5
4DB
330
2E56
100
AcDbEntity
  8
0
100
AcDbPolyline
 90
       17
 70
     0
 43
0.0
 10
-1.291841947353532
 20
1.506091586197044
 10
3.998145317377293
 20
-0.6771331980829132
 10
-0.2103571947889122
 20
-4.896465476630282
 10
5.447065121869968
 20
-4.889195689845792
 10
2.92168148788096
 20
-11.0195611408576
 10
9.050133973586866
 20
-8.489538770951924
 10
9.047145724747451
 20
-14.14696496925097
 10
13.26329180129232
 20
-9.935270472618469
 10
15.46812761558158
 20
-15.2661774893109
 10
17.67237786362693
 20
-9.935028323080473
 10
21.88898653209481
 20
-14.14625968798089
 10
21.88537686508528
 20
-8.488833852043114
 10
28.01410721438254
 20
-11.01818305043014
 10
25.48805022924978
 20
-4.888095027437429
 10
31.1454733103019
 20
-4.894743396416401
 10
26.93650736722271
 20
-0.675873410069471
 10
32.22179581408295
 20
1.506091586197044
  0
LWPOLYLINE
  5
4DC
330
2E56
100
AcDbEntity
  8
0
100
AcDbPolyline
 90
        9
 70
     0
 43
0.0
 10
151.7140276572821
 20
1.506091586196873
 10
146.5570224740384
 20
-3.638807226704102
 10
146.5553618097007
 20
-5.051947921387125
 10
147.9685025043815
 20
-5.053608585725612
 10
153.0556471509611
 20
0.0215936921999287
 10
158.1308494288889
 20
-5.065550954382615
 10
159.5441579340827
 20
-5.067358541522139
 10
159.5456507879057
 20
-3.65407092403791
 10
154.3976020600198
 20
1.506091586197044
  0
LWPOLYLINE
  5
4DD
330
2E56
100
AcDbEntity
  8
0
100
AcDbPolyline
 90
        9
 70
     0
 43
0.0
 10
125.0729567679629
 20
1.506091586196873
 10
127.7722999563508
 20
-1.199603378872609
 10
127.7725112047665
 20
-5.046038356226461
 10
131.6094949686844
 20
-5.045827626875961
 10
134.2851624435973
 20
-7.727791167570273
 10
136.9737321654524
 20
-5.045533019890456
 10
140.7827976703738
 20
-5.045323823826095
 10
140.7872684135757
 20
-1.240949270449675
 10
143.5407732834462
 20
1.506091586196873
  0
LWPOLYLINE
  5
4DE
330
2E56
100
AcDbEntity
  8
0
100
AcDbPolyline
 90
        4
 70
     0
 43
0.0
 10
93.13922062746291
 20
1.506091586196873
 10
90.44109730239847
 20
-4.986164541732136
 10
63.20037176733421
 20
-4.954152370803967
 10
47.6556566580723
 20
1.506091586197044
  0
LWPOLYLINE
  5
4DF
330
2E56
100
AcDbEntity
  8
0
100
AcDbPolyline
 90
        4
 70
     1
 43
0.0
 10
122.022946703358
 20
-3.609975798328434
 10
121.0248796023925
 20
-2.609560163335174
 10
118.6096626083751
 20
-5.019107294644129
 10
122.0212860390203
 20
-5.02311649301248
  0
LWPOLYLINE
  5
4E0
330
2E56
100
AcDbEntity
  8
0
100
AcDbPolyline
 90
        4
 70
     0
 43
0.0
 10
116.9769614453801
 20
1.506091586197044
 10
110.4458644137084
 20
-5.009673314408757
 10
102.0693009260578
 20
-4.999829524388303
 10
99.38341305550602
 20
1.506091586196873
  0
LWPOLYLINE
  5
4E1
330
2E56
100
AcDbEntity
  8
0
100
AcDbPolyline
 90
        8
 70
     1
 43
0.0
 10
153.052271670562
 20
-8.053034693078416
 10
150.360750095135
 20
-10.74171444966077
 10
146.5563732491257
 20
-10.7397049802849
 10
146.5515219609053
 20
-19.92428315829892
 10
153.042569094119
 20
-26.42219104910987
 10
159.5404769849287
 20
-19.93114391589665
 10
159.5453282731503
 20
-10.74656573788149
 10
155.7409514271454
 20
-10.74455626850613
  0
LWPOLYLINE
  5
4E2
330
2E56
100
AcDbEntity
  8
0
100
AcDbPolyline
 90
       13
 70
     1
 43
0.0
 10
153.0080996219311
 20
-91.68064357955575
 10
150.3194198653544
 20
-88.98912200412604
 10
146.5150430193416
 20
-88.98711253475108
 10
146.5170524887193
 20
-85.18273568873786
 10
143.8283727321436
 20
-82.49121411331657
 10
146.5198943075643
 20
-79.80253435673512
 10
146.5219037769418
 20
-75.99815751072696
 10
150.3262806229541
 20
-76.00016698010216
 10
153.0178021983729
 20
-73.31148722352253
 10
155.7064819549564
 20
-76.0030087989474
 10
159.510858800963
 20
-76.00501826832271
 10
159.5039980433651
 20
-88.99397329234529
 10
155.6996211973649
 20
-88.99196382297033
  0
LWPOLYLINE
  5
4E3
330
2E56
100
AcDbEntity
  8
0
100
AcDbPolyline
 90
        5
 70
     1
 43
0.0
 10
158.1006066171403
 20
-70.2317046310415
 10
157.1018924975113
 20
-69.23193491355198
 10
158.1016622149935
 20
-68.23322079392681
 10
159.5148036883281
 20
-68.23396721433346
 10
159.5137480904657
 20
-70.2324510514473
  0
LWPOLYLINE
  5
4E4
330
2E56
100
AcDbEntity
  8
0
100
AcDbPolyline
 90
        8
 70
     1
 43
0.0
 10
153.0221141097993
 20
-65.14807045344293
 10
150.3334343532254
 20
-62.45654887802607
 10
146.5290575072126
 20
-62.45453940864968
 10
146.5341720304301
 20
-52.77159825914589
 10
153.0320799212415
 20
-46.2805511259333
 10
159.5231270544541
 20
-52.77845901674197
 10
159.518012531236
 20
-62.46140016624611
 10
155.7136356852216
 20
-62.45939069687125
  0
LWPOLYLINE
  5
4E5
330
2E56
100
AcDbEntity
  8
0
100
AcDbPolyline
 90
        7
 70
     1
 43
0.0
 10
146.5472100494773
 20
-28.08769992838279
 10
146.5403492569239
 20
-41.07672113408177
 10
146.5384839418598
 20
-44.60818148906287
 10
153.0363918326695
 20
-38.11713435584949
 10
159.5274389658832
 20
-44.61504224665794
 10
159.5361650735001
 20
-28.09456068598047
 10
153.0382571826909
 20
-34.58560781919243
  0
LWPOLYLINE
  5
4E6
330
2E56
100
AcDbEntity
  8
0
100
AcDbPolyline
 90
        4
 70
     1
 43
0.0
 10
139.3706645589267
 20
-10.73606927037616
 10
138.3708948414312
 20
-11.73478339000564
 10
140.7820040139827
 20
-14.14844100123247
 10
140.7838060322509
 20
-10.7368156907828
  0
LWPOLYLINE
  5
4E7
330
2E56
100
AcDbEntity
  8
0
100
AcDbPolyline
 90
        4
 70
     1
 43
0.0
 10
129.2083120349576
 20
-10.73070152238182
 10
127.7951705616323
 20
-10.72995510197415
 10
127.7933685433615
 20
-14.14158041242365
 10
130.2070261545889
 20
-11.73047123987487
  0
LWPOLYLINE
  5
4E8
330
2E56
100
AcDbEntity
  8
0
100
AcDbPolyline
 90
        8
 70
     1
 43
0.0
 10
111.7228059148487
 20
-70.20736768361695
 10
111.7276572030684
 20
-61.02278950560521
 10
127.7769143990923
 20
-44.99047777342946
 10
127.7888966514854
 20
-22.30538283319493
 10
134.286804542297
 20
-15.81433569998256
 10
140.777851675511
 20
-22.31224359079243
 10
140.7630276042705
 20
-50.3775398630292
 10
120.9073840928617
 20
-70.21221897183863
  0
LWPOLYLINE
  5
4E9
330
2E56
100
AcDbEntity
  8
0
100
AcDbPolyline
 90
        8
 70
     1
 43
0.0
 10
132.9782856748642
 20
-75.99100378045386
 10
132.9762762054879
 20
-79.79538062647418
 10
135.6649559620593
 20
-82.48690220188775
 10
132.9734343866438
 20
-85.17558195845237
 10
132.9714249172664
 20
-88.97995880447792
 10
123.2884837677583
 20
-88.97484428125995
 10
116.7974366345458
 20
-82.47693639044859
 10
123.2953445253572
 20
-75.98588925723544
  0
LWPOLYLINE
  5
4EA
330
2E56
100
AcDbEntity
  8
0
100
AcDbPolyline
 90
       16
 70
     1
 43
0.0
 10
92.9584214881852
 20
-75.91887138810552
 10
83.82484348873232
 20
-75.93060803439744
 10
90.327661941644
 20
-82.41673569360306
 10
83.84153428244337
 20
-88.91955414651709
 10
93.0261061587878
 20
-88.90775197310246
 10
93.03790833220331
 20
-98.09232384944591
 10
99.52403599140735
 20
-91.58950539653176
 10
106.0268544443199
 20
-98.0756330557374
 10
106.0151482081398
 20
-88.96572051664714
 10
115.1250669976745
 20
-88.97053236982674
 10
108.6340198644615
 20
-82.47262447902022
 10
115.13192775527
 20
-75.98157734580713
 10
105.9473495772572
 20
-75.9767260575843
 10
105.9522008654787
 20
-66.79214787957164
 10
99.45429297466853
 20
-73.28319501278134
 10
92.96324584145475
 20
-66.785287121973
  0
LWPOLYLINE
  5
4EB
330
2E56
100
AcDbEntity
  8
0
100
AcDbPolyline
 90
        4
 70
     1
 43
0.0
 10
158.0723144064018
 20
-123.7952138547451
 10
157.0736002867706
 20
-122.795444137252
 10
159.4872578979989
 20
-120.3843349647031
 10
159.4854558797283
 20
-123.7959602751516
  0
LWPOLYLINE
  5
4EC
330
2E56
100
AcDbEntity
  8
0
100
AcDbPolyline
 90
        4
 70
     1
 43
0.0
 10
146.4968204091085
 20
-123.7890996863429
 10
147.9099618824327
 20
-123.7898461067516
 10
148.9097315999293
 20
-122.7911319871181
 10
146.4986224273777
 20
-120.3774743758903
  0
LWPOLYLINE
  5
4ED
330
2E56
100
AcDbEntity
  8
0
100
AcDbPolyline
 90
       14
 70
     1
 43
0.0
 10
130.5720722552687
 20
-104.9132500565526
 10
137.1885776833121
 20
-102.8894039202874
 10
140.7332568189249
 20
-106.4378296292671
 10
140.7383712227917
 20
-96.75511443814048
 10
147.9242396053184
 20
-96.75891000914646
 10
148.9240093227972
 20
-95.76019588952892
 10
147.9252952031668
 20
-94.76042617203308
 10
140.7394268206565
 20
-94.75663060102675
 10
140.7432223916626
 20
-87.57076221851548
 10
139.7445082720303
 20
-86.57099250102294
 10
138.7447385545491
 20
-87.56970662063981
 10
138.7409429835425
 20
-94.75557500316297
 10
129.058227792414
 20
-94.75046059929757
 10
132.6029069280266
 20
-98.29888630827378
  0
LWPOLYLINE
  5
4EE
330
2E56
100
AcDbEntity
  8
0
100
AcDbPolyline
 90
        6
 70
     1
 43
0.0
 10
111.7949823984993
 20
-94.74118218379937
 10
111.8066751733735
 20
-103.8406189981944
 10
117.0309708620048
 20
-109.0515054793818
 10
123.9614567671638
 20
-106.8984524490651
 10
126.109264190816
 20
-99.96633909858781
 10
120.8944254561509
 20
-94.74598850370506
  0
LWPOLYLINE
  5
4EF
330
2E56
100
AcDbEntity
  8
0
100
AcDbPolyline
 90
        6
 70
     1
 43
0.0
 10
128.6148980748817
 20
-111.5483733651191
 10
126.4965094521776
 20
-118.4927488577012
 10
131.6773239986114
 20
-123.6602657998021
 10
140.7243260603746
 20
-123.6486404035766
 10
140.729104684259
 20
-114.6016321345332
 10
135.5576683827763
 20
-109.4247298473399
  0
LWPOLYLINE
  5
4F0
330
2E56
100
AcDbEntity
  8
0
100
AcDbPolyline
 90
        8
 70
     1
 43
0.0
 10
153.0048231901767
 20
-118.700590001646
 10
159.4917297898739
 20
-112.2205325439302
 10
159.4968443130942
 20
-102.5375913944334
 10
155.6924674670706
 20
-102.5355819250476
 10
153.0037875787354
 20
-99.84406021772532
 10
150.3154033464511
 20
-102.5358772364964
 10
146.5110267441041
 20
-102.5383045829899
 10
146.5172048526617
 20
-112.2212451122889
  0
LWPOLYLINE
  5
4F1
330
2E56
100
AcDbEntity
  8
0
100
AcDbPolyline
 90
        8
 70
     1
 43
0.0
 10
122.013440313895
 20
-28.07474120716193
 10
117.2581059115419
 20
-32.82505473246198
 10
112.8484676267599
 20
-30.9957933624533
 10
116.743579323265
 20
-40.41349155978656
 10
107.0115444384503
 20
-44.43861129885426
 10
111.7353818950248
 20
-46.39821270365326
 10
111.7319691144978
 20
-52.85937273552139
 10
122.0057699729293
 20
-42.59641937731112
  0
LWPOLYLINE
  5
4F2
330
2E56
100
AcDbEntity
  8
0
100
AcDbPolyline
 90
        6
 70
     1
 43
0.0
 10
92.96755775288398
 20
-58.62187035189094
 10
99.45860488609753
 20
-65.11977824270161
 10
105.9565127769067
 20
-58.62873110948846
 10
105.960937274732
 20
-50.25216300634127
 10
99.46788067214242
 20
-47.55863196154161
 10
92.97198225070747
 20
-50.24530224874496
  0
LWPOLYLINE
  5
4F3
330
2E56
100
AcDbEntity
  8
0
100
AcDbPolyline
 90
        6
 70
     1
 43
0.0
 10
122.0226035135473
 20
-10.72674625906308
 10
122.017752225327
 20
-19.91132443707698
 10
116.0914955240992
 20
-25.83132395347576
 10
109.5984389215155
 20
-23.13779290867831
 10
106.9117686343101
 20
-16.64189448723829
 10
112.8380253355304
 20
-10.72189497084593
  0
LWPOLYLINE
  5
4F4
330
2E56
100
AcDbEntity
  8
0
100
AcDbPolyline
 90
        6
 70
     1
 43
0.0
 10
98.50084555339584
 20
-25.04393697067047
 10
92.98238182412342
 20
-30.55657407965447
 10
92.97812426368409
 20
-38.6170922179345
 10
99.47118086627529
 20
-41.31062326273649
 10
109.2032157510928
 20
-37.28550352367347
 10
105.1780947969657
 20
-27.5534657010499
  0
LWPOLYLINE
  5
4F5
330
2E56
100
AcDbEntity
  8
0
100
AcDbPolyline
 90
       10
 70
     1
 43
0.0
 10
77.13732136839372
 20
-10.70303788222901
 10
92.9893950335105
 20
-17.27899357687516
 10
92.98669373555254
 20
-22.39315730957065
 10
97.33423789275731
 20
-18.050203467757
 10
102.058075349341
 20
-20.00980487256214
 10
100.1034652923267
 20
-15.28389993202711
 10
104.6746085654445
 20
-10.71758305941716
 10
98.21344853357732
 20
-10.71417027889015
 10
96.25883847656314
 20
-5.988265338360633
 10
94.29923707176135
 20
-10.71210279494124
  0
LWPOLYLINE
  5
4F6
330
2E56
100
AcDbEntity
  8
0
100
AcDbPolyline
 90
        6
 70
     1
 43
0.0
 10
45.08240644308284
 20
-10.68610649701077
 10
57.07629762496527
 20
-22.69267470593877
 10
82.23795400826338
 20
-33.13054807670346
 10
87.21123739796144
 20
-28.16251568353698
 10
87.21495041321691
 20
-21.13294387956398
 10
62.05329402991378
 20
-10.69507050879827
  0
LWPOLYLINE
  5
4F7
330
2E56
100
AcDbEntity
  8
0
100
AcDbPolyline
 90
        6
 70
     1
 43
0.0
 10
70.36525923232716
 20
-53.34280116690155
 10
73.05584484427242
 20
-46.85684485828727
 10
53.80390671577448
 20
-27.5845582593426
 10
38.04544248794127
 20
-21.04743480363368
 10
44.59449007358148
 20
-36.80094722518646
 10
63.88134101566686
 20
-56.03829457852867
  0
LWPOLYLINE
  5
4F8
330
2E56
100
AcDbEntity
  8
0
100
AcDbPolyline
 90
        4
 70
     1
 43
0.0
 10
37.12728281798059
 20
-2.722574648443071
 10
39.31304806911476
 20
-4.910650159421606
 10
48.12051888586029
 20
-4.915302259779423
 10
39.98525714680829
 20
-1.540531116864485
  0
LWPOLYLINE
  5
4F9
330
2E56
100
AcDbEntity
  8
0
100
AcDbPolyline
 90
        4
 70
     1
 43
0.0
 10
35.00826074186148
 20
-13.53813531400845
 10
33.82621721028045
 20
-10.68016098517807
 10
36.91898967299664
 20
-10.681794585582
 10
43.14352248091108
 20
-16.91290645691896
  0
LWPOLYLINE
  5
4FA
330
2E56
100
AcDbEntity
  8
0
100
AcDbPolyline
 90
        6
 70
     1
 43
0.0
 10
74.79076607731747
 20
-57.76496005575097
 10
72.1142872977033
 20
-64.2501093452035
 10
78.04502255603416
 20
-70.16562217660641
 10
87.18905759081781
 20
-70.15387209302741
 10
87.19388746748904
 20
-61.00983078438793
 10
81.27388795109595
 20
-55.08357408316403
  0
LWPOLYLINE
  5
4FB
330
2E56
100
AcDbEntity
  8
0
100
AcDbPolyline
 90
        5
 70
     1
 43
0.0
 10
158.1019531296509
 20
-94.74915610660326
 10
157.103348831901
 20
-95.74903551796699
 10
158.1032282432575
 20
-96.74763981571391
 10
159.5163696260798
 20
-96.74673817422991
 10
159.5150945124653
 20
-94.7482544651204
  0
LWPOLYLINE
  5
4FC
330
2E56
100
AcDbEntity
  8
0
100
AcDbPolyline
 90
       10
 70
     1
 43
0.0
 10
67.73668185982024
 20
-33.36432650839794
 10
83.58875552494442
 20
-39.94028220302857
 10
87.20692548653188
 20
-36.32593245364228
 10
87.20367964339812
 20
-42.47104252063627
 10
91.92751709998743
 20
-44.43064392543464
 10
87.2016121594528
 20
-46.38525398245497
 10
87.19819937893408
 20
-52.84641401432015
 10
82.63188250631742
 20
-48.27527074120815
 10
77.90597756578995
 20
-50.22988079822465
 10
79.86557897058673
 20
-45.50604334164217
  0
LWPOLYLINE
  5
4FD
330
2E56
100
AcDbEntity
  8
0
100
AcDbPolyline
 90
        4
 70
     1
 43
0.0
 10
20.6026069135354
 20
-105.0414563265871
 10
19.60208165574045
 20
-104.0434991184449
 10
22.01136348230625
 20
-101.6280174715742
 10
22.0157474172845
 20
-105.0396404412633
  0
LWPOLYLINE
  5
4FE
330
2E56
100
AcDbEntity
  8
0
100
AcDbPolyline
 90
        4
 70
     1
 43
0.0
 10
27.7306058358372
 20
-122.3883913392177
 10
28.72921013358848
 20
-121.3885119278487
 10
31.14313256925504
 20
-123.7993559669315
 10
27.73150747732268
 20
-123.8015327220296
  0
LWPOLYLINE
  5
4FF
330
2E56
100
AcDbEntity
  8
0
100
AcDbPolyline
 90
        4
 70
     1
 43
0.0
 10
27.72412184340863
 20
-112.2260394661535
 10
27.72322020192428
 20
-110.8128980833405
 10
31.13484529385733
 20
-110.8107213282411
 10
28.72400125477657
 20
-113.2246437639063
  0
LWPOLYLINE
  5
500
330
2E56
100
AcDbEntity
  8
0
100
AcDbPolyline
 90
        8
 70
     1
 43
0.0
 10
87.19886701778433
 20
-94.73400046624011
 10
78.01428942804887
 20
-94.73986059904076
 10
61.98374066142401
 20
-110.7908787057703
 10
39.2986471741815
 20
-110.8053527149621
 10
32.80831381778876
 20
-117.3039735506426
 10
39.30693465346826
 20
-123.7943069070364
 10
67.37222912810648
 20
-123.7764001115259
 10
87.20472715058646
 20
-103.9185780559761
  0
LWPOLYLINE
  5
501
330
2E56
100
AcDbEntity
  8
0
100
AcDbPolyline
 90
        8
 70
     1
 43
0.0
 10
92.98483760239788
 20
-115.9888450206924
 10
96.78921432410483
 20
-115.9864176741321
 10
99.48103129540754
 20
-118.6748018590114
 10
102.1694154802794
 20
-115.9829848877067
 10
105.9737922019922
 20
-115.9805575411456
 10
105.9676140932492
 20
-106.2976167236764
 10
99.46899305367868
 20
-99.80728316365281
 10
92.97865949365485
 20
-106.3059042032229
  0
LWPOLYLINE
  5
502
330
2E56
100
AcDbEntity
  8
0
100
AcDbPolyline
 90
        4
 70
     1
 43
0.0
 10
140.7844183149455
 20
-129.5021292717732
 10
140.7853199564315
 20
-130.9152706545849
 10
139.7867156586768
 20
-131.915150065955
 10
137.3727932230098
 20
-129.5043060268725
  0
LWPOLYLINE
  5
503
330
2E56
100
AcDbEntity
  8
0
100
AcDbPolyline
 90
       14
 70
     1
 43
0.0
 10
121.9068196064072
 20
-113.5794545589909
 10
119.8837002469028
 20
-120.1961822487022
 10
123.4325152861021
 20
-123.7404715997796
 10
113.7498007151581
 20
-123.7466495641668
 10
113.7543855901735
 20
-130.9325174864339
 10
112.7557812924344
 20
-131.9323968977886
 10
111.7559018810643
 20
-130.9337926000345
 10
111.7513170060492
 20
-123.747924677784
 10
104.5654490837967
 20
-123.7525095527984
 10
103.5655696724299
 20
-122.7539052550455
 10
104.5641739701691
 20
-121.7540258436898
 10
111.750041892433
 20
-121.7494409686744
 10
111.7438639280462
 20
-112.0667263977286
 10
115.2926789672417
 20
-115.6110157488049
  0
LWPOLYLINE
  5
504
330
2E56
100
AcDbEntity
  8
0
100
AcDbPolyline
 90
        8
 70
     1
 43
0.0
 10
45.06737113059148
 20
-105.0292626992657
 10
49.81716229584549
 20
-100.2734065457081
 10
47.98741657714072
 20
-95.86396921569587
 10
57.40554256120083
 20
-99.75804643792367
 10
61.42959329810366
 20
-90.02556948804544
 10
63.38971356281025
 20
-94.749191671255
 10
69.8508731808372
 20
-94.74506918951329
 10
59.58904837061777
 20
-105.0199972805465
  0
LWPOLYLINE
  5
505
330
2E56
100
AcDbEntity
  8
0
100
AcDbPolyline
 90
        6
 70
     1
 43
0.0
 10
75.61130965796042
 20
-75.98002498174327
 10
82.10993049364004
 20
-82.47035833813692
 10
75.61959713724729
 20
-88.96897917381592
 10
67.24302957062298
 20
-88.97432376346978
 10
64.54878533728129
 20
-82.4815630605927
 10
67.23474209133724
 20
-75.98536957139725
  0
LWPOLYLINE
  5
506
330
2E56
100
AcDbEntity
  8
0
100
AcDbPolyline
 90
        6
 70
     1
 43
0.0
 10
27.71937729364152
 20
-105.040331422541
 10
36.90395488337754
 20
-105.0344712897401
 10
42.82330341722558
 20
-99.10756436471963
 10
40.129059183884
 20
-92.61480366184764
 10
33.63286569468335
 20
-89.9288469077892
 10
27.71351716084223
 20
-95.8557538328027
  0
LWPOLYLINE
  5
507
330
2E56
100
AcDbEntity
  8
0
100
AcDbPolyline
 90
        6
 70
     1
 43
0.0
 10
42.0339842619835
 20
-81.51700098762303
 10
47.54601518332106
 20
-75.99793177725178
 10
55.60653280532051
 20
-75.99278884027359
 10
58.30077703866482
 20
-82.48554954315546
 10
54.27672630176778
 20
-92.21802649303493
 10
44.54424641394689
 20
-88.19397454139641
  0
LWPOLYLINE
  5
508
330
2E56
100
AcDbEntity
  8
0
100
AcDbPolyline
 90
       10
 70
     1
 43
0.0
 10
27.69073866603264
 20
-60.15505215231593
 10
34.2684355309791
 20
-76.00640341128144
 10
39.38259893610928
 20
-76.00314036772465
 10
35.04012265973575
 20
-80.35116153373849
 10
37.000242924448
 20
-85.07478371695862
 10
32.2741233158099
 20
-83.12069277055945
 10
27.70830857037004
 20
-87.69233758558739
 10
27.70418608862929
 20
-81.23117796756218
 10
22.97806647999698
 20
-79.27708702116394
 10
27.70168866321319
 20
-77.31696675645378
  0
LWPOLYLINE
  5
509
330
2E56
100
AcDbEntity
  8
0
100
AcDbPolyline
 90
        6
 70
     1
 43
0.0
 10
27.67028633226483
 20
-28.10013928013996
 10
39.67817189153857
 20
-40.09271157443447
 10
50.11880898455785
 20
-65.25322129795092
 10
45.15132289251778
 20
-70.22705035202926
 10
38.1217515387923
 20
-70.23153550349793
 10
27.68111444577255
 20
-45.07102577997744
  0
LWPOLYLINE
  5
50A
330
2E56
100
AcDbEntity
  8
0
100
AcDbPolyline
 90
        4
 70
     1
 43
0.0
 10
30.5212085763294
 20
-18.02568036957166
 10
27.6631044277226
 20
-16.84395076830367
 10
27.66507774179297
 20
-19.93672303292595
 10
33.89687328537002
 20
-26.16057137081015
  0
LWPOLYLINE
  5
50B
330
2E56
100
AcDbEntity
  8
0
100
AcDbPolyline
 90
       10
 70
     1
 43
0.0
 10
50.35099457846218
 20
-50.7519235584952
 10
56.92869144339226
 20
-66.60327481746941
 10
53.31473913975163
 20
-70.22184176155497
 10
59.45984881314735
 20
-70.2179209324969
 10
61.41996907785335
 20
-74.94154311572106
 10
63.3740600242595
 20
-70.21542350708393
 10
69.83521964228476
 20
-70.21130102535114
 10
65.2635748272595
 20
-65.6454862799049
 10
67.217665773661
 20
-60.91936667127527
 10
62.49404359044319
 20
-62.87948693597894
  0
LWPOLYLINE
  5
50C
330
2E56
100
AcDbEntity
  8
0
100
AcDbPolyline
 90
       12
 70
     1
 43
0.0
 10
137.1863380902698
 20
-62.11064156998992
 10
140.7306274413465
 20
-58.56182653079128
 10
140.736805405734
 20
-68.24454110173462
 10
147.9226733280007
 20
-68.2399562267189
 10
148.9225527393557
 20
-69.23856052445865
 10
147.9239484416027
 20
-70.23843993582881
 10
140.7380805193518
 20
-70.24302481084413
 10
140.7426653943651
 20
-77.4288927330964
 10
139.7440610966134
 20
-78.42877214446315
 10
138.744181685258
 20
-77.43016784672466
 10
138.7395968102414
 20
-70.24429992446062
 10
129.0568822392956
 20
-70.25047788884677
  0
LWPOLYLINE
  5
50D
330
2E56
100
AcDbEntity
  8
0
100
AcDbPolyline
 90
       12
 70
     1
 43
0.0
 10
79.10493789662769
 20
-120.1984218417207
 10
75.55651218764751
 20
-123.7431009773346
 10
85.23922737877432
 20
-123.7482153812011
 10
85.23543180776824
 20
-130.9340837637271
 10
86.23414592738573
 20
-131.9338534812076
 10
87.23391564488043
 20
-130.9351393615754
 10
87.23771121588788
 20
-123.7492709790659
 10
94.42357959839842
 20
-123.7530665500711
 10
95.42334931589152
 20
-122.75435243044
 10
94.42463519627574
 20
-121.7545827129587
 10
87.23876681375248
 20
-121.7507871419519
 10
87.24388121761695
 20
-112.0680719508229
  0
LWPOLYLINE
  5
50E
330
2E56
100
AcDbEntity
  8
0
100
AcDbPolyline
 90
        4
 70
     1
 43
0.0
 10
19.70588073182648
 20
-20.14589042650806
 10
21.89419631656983
 20
-22.33141532372946
 10
21.89981583960344
 20
-31.13888557635113
 10
18.52415113056054
 20
-23.0039945751119
  0
LWPOLYLINE
  5
50F
330
2E56
100
AcDbEntity
  8
0
100
AcDbPolyline
 90
       10
 70
     1
 43
0.0
 10
-115.6930970729699
 20
-129.5761526532677
 10
-115.6973935453263
 20
-133.2322315991169
 10
-113.0104556545686
 20
-135.9254920758684
 10
-115.7037161313212
 20
-138.6124299666283
 10
-115.7081868747507
 20
-142.4168047170541
 10
-128.5255265507067
 20
-142.4016914584538
 10
-128.5337553895217
 20
-129.5843455137734
 10
-124.7293787865554
 20
-129.5819181672901
 10
-122.0409946860098
 20
-126.8901012804321
 10
-119.3491777991514
 20
-129.5784853809716
  0
LWPOLYLINE
  5
510
330
2E56
100
AcDbEntity
  8
0
100
AcDbPolyline
 90
       16
 70
     1
 43
0.0
 10
15.47468963957214
 20
-134.7482491645839
 10
10.31467793997399
 20
-129.5760955327775
 10
8.901537245289773
 20
-129.5744348684399
 10
8.899876580952195
 20
-130.9875755631205
 10
13.97507885887717
 20
-136.0747202096999
 10
8.887934212295022
 20
-141.1499224876271
 10
8.886126625155839
 20
-142.5632309928211
 10
10.29941424264052
 20
-142.564723846645
 10
15.47483535501305
 20
-137.4014523370777
 10
20.65082348958299
 20
-142.5625848689149
 10
22.06391138103095
 20
-142.5625072613166
 10
22.06214819425816
 20
-141.1491989522337
 10
16.97444611232254
 20
-136.0745554827291
 10
22.04908958182591
 20
-130.9868534007953
 10
22.04727369650141
 20
-129.5737128970488
 10
20.63413319275105
 20
-129.5755287823714
  0
LWPOLYLINE
  5
511
330
2E56
100
AcDbEntity
  8
0
100
AcDbPolyline
 90
        8
 70
     1
 43
0.0
 10
5.900450473600017
 20
-136.0713447293006
 10
3.211770717017088
 20
-133.3798231538733
 10
3.213780186393478
 20
-129.5754463078647
 10
-5.970797991621111
 20
-129.570595019644
 10
-12.468705882432
 20
-136.0616421528574
 10
-5.977658749219472
 20
-142.5595500436674
 10
3.206919428796709
 20
-142.5644013318881
 10
3.208928898171961
 20
-138.7600244858845
  0
LWPOLYLINE
  5
512
330
2E56
100
AcDbEntity
  8
0
100
AcDbPolyline
 90
       13
 70
     1
 43
0.0
 10
-77.72715841287674
 20
-136.0271726806705
 10
-75.03563683744812
 20
-133.3384929240931
 10
-75.03362736807287
 20
-129.5341160780814
 10
-71.2292505220596
 20
-129.5361255474579
 10
-68.53772894663837
 20
-126.8474457908831
 10
-65.84904919005658
 20
-129.5389673663021
 10
-62.0446723440483
 20
-129.5409768356795
 10
-62.04668181342412
 20
-133.3453536816934
 10
-59.35800205684415
 20
-136.0368752571122
 10
-62.0495236322688
 20
-138.7255550136946
 10
-62.05153310164575
 20
-142.5299318597024
 10
-75.04048812566793
 20
-142.5230711021046
 10
-75.03847865629211
 20
-138.7186942561029
  0
LWPOLYLINE
  5
513
330
2E56
100
AcDbEntity
  8
0
100
AcDbPolyline
 90
        5
 70
     1
 43
0.0
 10
-56.27821946436347
 20
-141.1196796758783
 10
-55.27844974687434
 20
-140.1209655562496
 10
-54.27973562724947
 20
-141.1207352737322
 10
-54.28048204765469
 20
-142.5338767470676
 10
-56.27896588476869
 20
-142.5328211492049
  0
LWPOLYLINE
  5
514
330
2E56
100
AcDbEntity
  8
0
100
AcDbPolyline
 90
        8
 70
     1
 43
0.0
 10
-51.19458528676489
 20
-136.0411871685373
 10
-48.50306371134718
 20
-133.3525074119649
 10
-48.50105424197181
 20
-129.5481305659514
 10
-38.81811309246769
 20
-129.5532450891688
 10
-32.32706595925538
 20
-136.0511529799794
 10
-38.82497385006286
 20
-142.5422001131926
 10
-48.50791499956802
 20
-142.5370855899754
 10
-48.5059055301922
 20
-138.7327087439603
  0
LWPOLYLINE
  5
515
330
2E56
100
AcDbEntity
  8
0
100
AcDbPolyline
 90
        7
 70
     1
 43
0.0
 10
-14.13421476170436
 20
-129.5662831082154
 10
-27.12323596740328
 20
-129.5594223156617
 10
-30.65469632238285
 20
-129.5575570005999
 10
-24.163649189171
 20
-136.0554648914089
 10
-30.66155707998075
 20
-142.5465120246224
 10
-14.14107551930271
 20
-142.5552381322388
 10
-20.63212265251525
 20
-136.0573302414287
  0
LWPOLYLINE
  5
516
330
2E56
100
AcDbEntity
  8
0
100
AcDbPolyline
 90
        4
 70
     1
 43
0.0
 10
-109.8417286880668
 20
-141.091387465141
 10
-108.8419589705737
 20
-140.0926733455096
 10
-106.4308497980246
 20
-142.5063309567371
 10
-109.8424751084737
 20
-142.5045289384663
  0
LWPOLYLINE
  5
517
330
2E56
100
AcDbEntity
  8
0
100
AcDbPolyline
 90
        8
 70
     1
 43
0.0
 10
-104.7471048349678
 20
-136.0238962489152
 10
-98.26704737725197
 20
-142.5108028486129
 10
-88.58410622775636
 20
-142.5159173718313
 10
-88.58209675836974
 20
-138.7115405258102
 10
-85.89057505104619
 20
-136.0228606374731
 10
-88.5823920698183
 20
-133.3344764051906
 10
-88.58481941631181
 20
-129.5300998028426
 10
-98.26775994561149
 20
-129.5362779114009
  0
LWPOLYLINE
  5
518
330
2E56
100
AcDbEntity
  8
0
100
AcDbPolyline
 90
        5
 70
     1
 43
0.0
 10
-80.79567093992499
 20
-141.1210261883899
 10
-81.79555035128828
 20
-140.1224218906391
 10
-82.79415464903536
 20
-141.1223013019958
 10
-82.79325300755123
 20
-142.5354426848188
 10
-80.79476929844293
 20
-142.5341675712039
  0
LWPOLYLINE
  5
519
330
2E56
100
AcDbEntity
  8
0
100
AcDbPolyline
 90
       10
 70
     1
 43
0.0
 10
146.6419074518558
 20
-129.5617450642035
 10
146.6466055120927
 20
-133.217823516068
 10
143.9599634683665
 20
-135.9113791129147
 10
146.6535190652148
 20
-138.598021156643
 10
146.6584076855075
 20
-142.4023953930474
 10
159.4757456240833
 20
-142.3858742632344
 10
159.4825665908571
 20
-129.5685274920101
 10
155.6781897442192
 20
-129.5665180226347
 10
152.9895099876345
 20
-126.8749964472111
 10
150.2979884122104
 20
-129.5636762037894
  0
LWPOLYLINE
  5
51A
330
2E56
100
AcDbEntity
  8
0
100
AcDbPolyline
 90
        8
 70
     1
 43
0.0
 10
25.04907407815585
 20
-136.0702930758984
 10
27.73745817870054
 20
-133.3784761890368
 10
27.73503083221612
 20
-129.5740995867007
 10
36.91960842195283
 20
-129.5682394538988
 10
43.4182292576329
 20
-136.0585728102929
 10
36.92789590123857
 20
-142.5571936459724
 10
27.7433183115013
 20
-142.5630537787745
 10
27.74089096501825
 20
-138.7586771764431
  0
LWPOLYLINE
  5
51B
330
2E56
100
AcDbEntity
  8
0
100
AcDbPolyline
 90
       13
 70
     1
 43
0.0
 10
108.6766776082382
 20
-136.0169352749753
 10
105.9848607213746
 20
-133.328551174437
 10
105.9824333748922
 20
-129.5241745720981
 10
102.1780567725507
 20
-129.5266019185822
 10
99.48623988569501
 20
-126.8382178180465
 10
96.79785578515293
 20
-129.5300347048998
 10
92.99347918281638
 20
-129.5324620513852
 10
92.99590652930112
 20
-133.3368386537266
 10
90.30752242875905
 20
-136.0286555405792
 10
92.9993393156185
 20
-138.7170396411229
 10
93.00176666210109
 20
-142.5214162434579
 10
105.9907208541746
 20
-142.513128764171
 10
105.9882935076914
 20
-138.7087521618421
  0
LWPOLYLINE
  5
51C
330
2E56
100
AcDbEntity
  8
0
100
AcDbPolyline
 90
        5
 70
     1
 43
0.0
 10
87.22829815593001
 20
-141.1117982155388
 10
86.22841874456549
 20
-140.1131939177879
 10
85.22981444681944
 20
-141.1130733291449
 10
85.23071608830377
 20
-142.5262147119676
 10
87.22919979741323
 20
-142.5249395983526
  0
LWPOLYLINE
  5
51D
330
2E56
100
AcDbEntity
  8
0
100
AcDbPolyline
 90
        8
 70
     1
 43
0.0
 10
82.14410618155113
 20
-136.0338641310476
 10
79.45228929470068
 20
-133.3454800305143
 10
79.44986194821581
 20
-129.5411034281733
 10
69.76692141891089
 20
-129.5472815367309
 10
63.27658806251702
 20
-136.0459023724111
 10
69.77520889819562
 20
-142.5362357288051
 10
79.45814942750144
 20
-142.5300576202474
 10
79.4557220810185
 20
-138.7256810179046
  0
LWPOLYLINE
  5
51E
330
2E56
100
AcDbEntity
  8
0
100
AcDbPolyline
 90
        7
 70
     1
 43
0.0
 10
45.08302466916506
 20
-129.5630308634273
 10
58.07204504290905
 20
-129.5547433419151
 10
61.60350517169695
 20
-129.5524901272051
 10
55.11317181530535
 20
-136.0511109628841
 10
61.61179265098155
 20
-142.5414443192779
 10
45.09131214845081
 20
-142.5519850555006
 10
51.58164550484412
 20
-136.0533642198211
  0
LWPOLYLINE
  5
51F
330
2E56
100
AcDbEntity
  8
0
100
AcDbPolyline
 90
        4
 70
     1
 43
0.0
 10
140.7918039488602
 20
-141.0776225276311
 10
139.7919245374938
 20
-140.0790182298781
 10
137.3810804984114
 20
-142.4929406655444
 10
140.7927055903433
 20
-142.4907639104441
  0
LWPOLYLINE
  5
520
330
2E56
100
AcDbEntity
  8
0
100
AcDbPolyline
 90
        8
 70
     1
 43
0.0
 10
135.696623507443
 20
-136.0106909413074
 10
129.2172786180856
 20
-142.4983092788225
 10
119.5343380887853
 20
-142.5044873873814
 10
119.5319107422925
 20
-138.7001107850327
 10
116.8400937235215
 20
-136.0117265527495
 10
119.5316154308444
 20
-133.3230466644133
 10
119.53362490023
 20
-129.5186698183928
 10
129.2165660497273
 20
-129.5237843416106
  0
LWPOLYLINE
  5
521
330
2E56
100
AcDbEntity
  8
0
100
AcDbPolyline
 90
        5
 70
     1
 43
0.0
 10
111.7457496314915
 20
-141.1104517030273
 10
112.7455193489806
 20
-140.1117375833986
 10
113.7442334686061
 20
-141.1115073008811
 10
113.7434870481991
 20
-142.5246487742164
 10
111.7450032110863
 20
-142.523593176354
  0
LWPOLYLINE
  5
2E6E
330
2E56
100
AcDbEntity
  8
0
 62
     1
100
AcDbPolyline
 90
        4
 70
     1
 43
0.0
 10
-134.2979347117035
 20
-148.1740996194506
 10
165.2481537850801
 20
-148.1740996194506
 10
165.2481537850801
 20
151.170465596625
 10
-134.2979347117035
 20
151.170465596625
  0
ENDSEC
  0
SECTION
  2
OBJECTS
  0
DICTIONARY
  5
2DEE
330
0
100
AcDbDictionary
281
     1
  3
ACAD_COLOR
350
2E4C
  3
ACAD_GROUP
350
2DEF
  3
ACAD_LAYOUT
350
2E4B
  3
ACAD_MATERIAL
350
2DF2
  3
ACAD_MLEADERSTYLE
350
2E4F
  3
ACAD_MLINESTYLE
350
2E48
  3
ACAD_PLOTSETTINGS
350
2E4A
  3
ACAD_PLOTSTYLENAME
350
2DF0
  3
ACAD_SCALELIST
350
2E1C
  3
ACAD_TABLESTYLE
350
2E4D
  3
ACAD_VISUALSTYLE
350
2E0B
  3
ACDB_RECOMPOSE_DATA
350
2E8A
  3
AcDbVariableDictionary
350
2E81
  3
DWGPROPS
350
2E8B
  0
DICTIONARY
  5
2E62
330
2E3E
100
AcDbDictionary
280
     1
281
     1
  3
ADSK_XREC_LAYER_RECONCILED
360
2E63
  0
DICTIONARY
  5
2E6F
330
2E56
100
AcDbDictionary
280
     1
281
     1
  3
ACAD_SORTENTS
360
2E70
  0
DICTIONARY
  5
2E4C
102
{ACAD_REACTORS
330
2DEE
102
}
330
2DEE
100
AcDbDictionary
281
     1
  0
DICTIONARY
  5
2DEF
102
{ACAD_REACTORS
330
2DEE
102
}
330
2DEE
100
AcDbDictionary
281
     1
  0
DICTIONARY
  5
2E4B
102
{ACAD_REACTORS
330
2DEE
102
}
330
2DEE
100
AcDbDictionary
281
     1
  3
Model
350
2E59
  3
Présentation1
350
2E55
  0
DICTIONARY
  5
2DF2
102
{ACAD_REACTORS
330
2DEE
102
}
330
2DEE
100
AcDbDictionary
281
     1
  3
ByBlock
350
2DFB
  3
ByLayer
350
2DF3
  3
Global
350
2E03
  0
DICTIONARY
  5
2E4F
102
{ACAD_REACTORS
330
2DEE
102
}
330
2DEE
100
AcDbDictionary
281
     1
  3
Standard
350
2E50
  0
DICTIONARY
  5
2E48
102
{ACAD_REACTORS
330
2DEE
102
}
330
2DEE
100
AcDbDictionary
281
     1
  3
Standard
350
2E49
  0
DICTIONARY
  5
2E4A
102
{ACAD_REACTORS
330
2DEE
102
}
330
2DEE
100
AcDbDictionary
281
     1
  0
ACDBDICTIONARYWDFLT
  5
2DF0
102
{ACAD_REACTORS
330
2DEE
102
}
330
2DEE
100
AcDbDictionary
281
     1
  3
Normal
350
2DF1
100
AcDbDictionaryWithDefault
340
2DF1
  0
DICTIONARY
  5
2E1C
102
{ACAD_REACTORS
330
2DEE
102
}
330
2DEE
100
AcDbDictionary
281
     1
  3
A0
350
2E1D
  3
A1
350
2E1E
  3
A2
350
2E1F
  3
A3
350
2E20
  3
A4
350
2E21
  3
A5
350
2E22
  3
A6
350
2E23
  3
A7
350
2E24
  3
A8
350
2E25
  3
A9
350
2E26
  3
B0
350
2E27
  3
B1
350
2E28
  3
B2
350
2E29
  3
B3
350
2E2A
  3
B4
350
2E2B
  3
B5
350
2E2C
  3
B6
350
2E2D
  3
B7
350
2E2E
  3
B8
350
2E2F
  3
B9
350
2E30
  3
C0
350
2E31
  3
C1
350
2E32
  3
C2
350
2E33
  3
C3
350
2E34
  3
C4
350
2E35
  3
C5
350
2E36
  3
C6
350
2E37
  3
C7
350
2E38
  3
C8
350
2E39
  3
C9
350
2E3A
  3
D0
350
2E3B
  3
D1
350
2E3C
  3
D2
350
2E3D
  0
DICTIONARY
  5
2E4D
102
{ACAD_REACTORS
330
2DEE
102
}
330
2DEE
100
AcDbDictionary
281
     1
  3
Standard
350
2E4E
  0
DICTIONARY
  5
2E0B
102
{ACAD_REACTORS
330
2DEE
102
}
330
2DEE
100
AcDbDictionary
281
     1
  3
2dWireframe
350
2E11
  3
3D Hidden
350
2E13
  3
3dWireframe
350
2E12
  3
Basic
350
2E10
  3
Brighten
350
2E17
  3
ColorChange
350
2E1B
  3
Conceptual
350
2E14
  3
Dim
350
2E16
  3
Facepattern
350
2E1A
  3
Flat
350
2E0C
  3
FlatWithEdges
350
2E0D
  3
Gouraud
350
2E0E
  3
GouraudWithEdges
350
2E0F
  3
Linepattern
350
2E19
  3
Realistic
350
2E15
  3
Thicken
350
2E18
  0
XRECORD
  5
2E8A
102
{ACAD_REACTORS
330
2DEE
102
}
330
2DEE
100
AcDbXrecord
280
     1
 90
        1
330
2E4E
  0
DICTIONARY
  5
2E81
102
{ACAD_REACTORS
330
2DEE
102
}
330
2DEE
100
AcDbDictionary
281
     1
  3
CANNOSCALE
350
2E84
  3
CMLEADERSTYLE
350
2E83
  3
CTABLESTYLE
350
2E82
  3
DIMASSOC
350
2E87
  3
INDEXCTL
350
2E86
  3
SORTENTS
350
2E85
  0
XRECORD
  5
2E8B
102
{ACAD_REACTORS
330
2DEE
102
}
330
2DEE
100
AcDbXrecord
280
     1
  1
DWGPROPS COOKIE
  2

  3

  4

  6

  7

  8
user
  9

300
=
301
=
302
=
303
=
304
=
305
=
306
=
307
=
308
=
309
=
 40
0.0016422222222222
 41
2454910.5
 42
2457345.533805232
  1

 90
        0
  0
XRECORD
  5
2E63
102
{ACAD_REACTORS
330
2E62
102
}
330
2E62
100
AcDbXrecord
280
     1
290
     1
  0
SORTENTSTABLE
  5
2E70
102
{ACAD_REACTORS
330
2E6F
102
}
330
2E6F
100
AcDbSortentsTable
330
2E56
331
4E9
  5
4E9
331
4FA
  5
4FA
331
48A
  5
48A
331
4D3
  5
4D3
331
51C
  5
51C
331
4AC
  5
4AC
331
44D
  5
44D
331
4F6
  5
4F6
331
4BE
  5
4BE
331
46F
  5
46F
331
520
  5
520
331
451
  5
451
331
4C2
  5
4C2
331
473
  5
473
331
436
  5
436
331
486
  5
486
331
4C8
  5
4C8
331
4EA
  5
4EA
331
4FB
  5
4FB
331
48B
  5
48B
331
4D4
  5
4D4
331
51D
  5
51D
331
4AD
  5
4AD
331
44E
  5
44E
331
4F7
  5
4F7
331
4BF
  5
4BF
331
521
  5
521
331
452
  5
452
331
4C3
  5
4C3
331
474
  5
474
331
437
  5
437
331
487
  5
487
331
4C9
  5
4C9
331
4EB
  5
4EB
331
4FC
  5
4FC
331
48C
  5
48C
331
4D5
  5
4D5
331
51E
  5
51E
331
4AE
  5
4AE
331
44F
  5
44F
331
490
  5
490
331
453
  5
453
331
4C4
  5
4C4
331
475
  5
475
331
4E0
  5
4E0
331
458
  5
458
331
4CA
  5
4CA
331
4EC
  5
4EC
331
4FD
  5
4FD
331
48D
  5
48D
331
4D6
  5
4D6
331
51F
  5
51F
331
4AF
  5
4AF
331
500
  5
500
331
491
  5
491
331
454
  5
454
331
4C5
  5
4C5
331
476
  5
476
331
438
  5
438
331
4E1
  5
4E1
331
459
  5
459
331
4CB
  5
4CB
331
4ED
  5
4ED
331
4FE
  5
4FE
331
48E
  5
48E
331
4D7
  5
4D7
331
501
  5
501
331
492
  5
492
331
455
  5
455
331
4C6
  5
4C6
331
477
  5
477
331
498
  5
498
331
439
  5
439
331
4E2
  5
4E2
331
45A
  5
45A
331
4CC
  5
4CC
331
4EE
  5
4EE
331
4FF
  5
4FF
331
48F
  5
48F
331
502
  5
502
331
493
  5
493
331
456
  5
456
331
4C7
  5
4C7
331
508
  5
508
331
499
  5
499
331
43A
  5
43A
331
4E3
  5
4E3
331
45B
  5
45B
331
4CD
  5
4CD
331
4EF
  5
4EF
331
460
  5
460
331
503
  5
503
331
494
  5
494
331
457
  5
457
331
428
  5
428
331
478
  5
478
331
509
  5
509
331
49A
  5
49A
331
43B
  5
43B
331
4E4
  5
4E4
331
45C
  5
45C
331
4CE
  5
4CE
331
461
  5
461
331
504
  5
504
331
495
  5
495
331
429
  5
429
331
479
  5
479
331
50A
  5
50A
331
49B
  5
49B
331
43C
  5
43C
331
4E5
  5
4E5
331
45D
  5
45D
331
4CF
  5
4CF
331
440
  5
440
331
462
  5
462
331
505
  5
505
331
496
  5
496
331
4D8
  5
4D8
331
4B0
  5
4B0
331
42A
  5
42A
331
47A
  5
47A
331
50B
  5
50B
331
49C
  5
49C
331
43D
  5
43D
331
4E6
  5
4E6
331
45E
  5
45E
331
510
  5
510
331
4A0
  5
4A0
331
441
  5
441
331
463
  5
463
331
506
  5
506
331
497
  5
497
331
468
  5
468
331
4D9
  5
4D9
331
4B1
  5
4B1
331
42B
  5
42B
331
47B
  5
47B
331
50C
  5
50C
331
49D
  5
49D
331
43E
  5
43E
331
4E7
  5
4E7
331
45F
  5
45F
331
511
  5
511
331
4A1
  5
4A1
331
442
  5
442
331
464
  5
464
331
507
  5
507
331
4F0
  5
4F0
331
4B8
  5
4B8
331
469
  5
469
331
4DA
  5
4DA
331
4B2
  5
4B2
331
42C
  5
42C
331
47C
  5
47C
331
50D
  5
50D
331
49E
  5
49E
331
43F
  5
43F
331
430
  5
430
331
480
  5
480
331
512
  5
512
331
4A2
  5
4A2
331
443
  5
443
331
465
  5
465
331
448
  5
448
331
4F1
  5
4F1
331
4B9
  5
4B9
331
46A
  5
46A
331
4DB
  5
4DB
331
4B3
  5
4B3
331
42D
  5
42D
331
47D
  5
47D
331
50E
  5
50E
331
49F
  5
49F
331
431
  5
431
331
481
  5
481
331
513
  5
513
331
4A3
  5
4A3
331
444
  5
444
331
466
  5
466
331
518
  5
518
331
4A8
  5
4A8
331
449
  5
449
331
4F2
  5
4F2
331
4BA
  5
4BA
331
46B
  5
46B
331
4DC
  5
4DC
331
4B4
  5
4B4
331
2E6E
  5
2E6E
331
42E
  5
42E
331
47E
  5
47E
331
50F
  5
50F
331
432
  5
432
331
482
  5
482
331
514
  5
514
331
4A4
  5
4A4
331
445
  5
445
331
467
  5
467
331
4D0
  5
4D0
331
519
  5
519
331
4A9
  5
4A9
331
44A
  5
44A
331
4F3
  5
4F3
331
4BB
  5
4BB
331
46C
  5
46C
331
4DD
  5
4DD
331
4B5
  5
4B5
331
42F
  5
42F
331
47F
  5
47F
331
470
  5
470
331
433
  5
433
331
483
  5
483
331
515
  5
515
331
4A5
  5
4A5
331
446
  5
446
331
4F8
  5
4F8
331
488
  5
488
331
4D1
  5
4D1
331
51A
  5
51A
331
4AA
  5
4AA
331
44B
  5
44B
331
4F4
  5
4F4
331
4BC
  5
4BC
331
46D
  5
46D
331
4DE
  5
4DE
331
4B6
  5
4B6
331
4C0
  5
4C0
331
471
  5
471
331
434
  5
434
331
484
  5
484
331
516
  5
516
331
4A6
  5
4A6
331
447
  5
447
331
4E8
  5
4E8
331
4F9
  5
4F9
331
489
  5
489
331
4D2
  5
4D2
331
51B
  5
51B
331
4AB
  5
4AB
331
44C
  5
44C
331
4F5
  5
4F5
331
4BD
  5
4BD
331
46E
  5
46E
331
4DF
  5
4DF
331
4B7
  5
4B7
331
450
  5
450
331
4C1
  5
4C1
331
472
  5
472
331
435
  5
435
331
485
  5
485
331
517
  5
517
331
4A7
  5
4A7
  0
LAYOUT
  5
2E59
102
{ACAD_XDICTIONARY
360
2E92
102
}
102
{ACAD_REACTORS
330
2E4B
102
}
330
2E4B
100
AcDbPlotSettings
  1

  2
CutePDF Writer
  4
A4
  6

 40
3.174999952316284
 41
3.174999952316284
 42
3.175003051757812
 43
3.17498779296875
 44
209.8886566162109
 45
297.0530090332031
 46
0.0
 47
0.0
 48
0.0
 49
0.0
140
0.0
141
0.0
142
1.0
143
90.91539338160442
 70
 11952
 72
     0
 73
     1
 74
     0
  7

 75
     0
147
0.0109992374536911
148
7297.865034960989
149
11847.30614683264
100
AcDbLayout
  1
Model
 70
     1
 71
     0
 10
0.0
 20
0.0
 11
12.0
 21
9.0
 12
0.0
 22
0.0
 32
0.0
 14
0.0
 24
0.0
 34
0.0
 15
0.0
 25
0.0
 35
0.0
146
0.0
 13
0.0
 23
0.0
 33
0.0
 16
1.0
 26
0.0
 36
0.0
 17
0.0
 27
1.0
 37
0.0
 76
     0
330
2E56
331
2E5A
1001
ACAD_PSEXT
1000
CutePDF Writer
1000
CutePDF Writer
1000
CPW2:
1000

1070
     0
  0
LAYOUT
  5
2E55
102
{ACAD_XDICTIONARY
360
2E90
102
}
102
{ACAD_REACTORS
330
2E4B
102
}
330
2E4B
100
AcDbPlotSettings
  1

  2
CutePDF Writer
  4

  6

 40
0.0
 41
0.0
 42
0.0
 43
0.0
 44
0.0
 45
0.0
 46
0.0
 47
0.0
 48
0.0
 49
0.0
140
0.0
141
0.0
142
1.0
143
1.0
 70
   688
 72
     0
 73
     0
 74
     5
  7

 75
    16
147
1.0
148
0.0
149
0.0
100
AcDbLayout
  1
Présentation1
 70
     1
 71
     1
 10
0.0
 20
0.0
 11
12.0
 21
9.0
 12
0.0
 22
0.0
 32
0.0
 14
1.000000000000000E+20
 24
1.000000000000000E+20
 34
1.000000000000000E+20
 15
-1.000000000000000E+20
 25
-1.000000000000000E+20
 35
-1.000000000000000E+20
146
0.0
 13
0.0
 23
0.0
 33
0.0
 16
1.0
 26
0.0
 36
0.0
 17
0.0
 27
1.0
 37
0.0
 76
     0
330
2E52
  0
MATERIAL
  5
2DFB
102
{ACAD_XDICTIONARY
360
2DFC
102
}
102
{ACAD_REACTORS
330
2DF2
102
}
330
2DF2
100
AcDbMaterial
  1
ByBlock
 72
     0
 43
0.0208333333333333
 43
0.0
 43
0.0
 43
0.0
 43
0.0
 43
0.0208333333333333
 43
0.0
 43
0.0
 43
0.0
 43
0.0
 43
1.0
 43
0.0
 43
0.0
 43
0.0
 43
0.0
 43
1.0
 77
     0
 47
0.0208333333333333
 47
0.0
 47
0.0
 47
0.0
 47
0.0
 47
0.0208333333333333
 47
0.0
 47
0.0
 47
0.0
 47
0.0
 47
1.0
 47
0.0
 47
0.0
 47
0.0
 47
0.0
 47
1.0
171
     0
 49
0.0208333333333333
 49
0.0
 49
0.0
 49
0.0
 49
0.0
 49
0.0208333333333333
 49
0.0
 49
0.0
 49
0.0
 49
0.0
 49
1.0
 49
0.0
 49
0.0
 49
0.0
 49
0.0
 49
1.0
175
     0
142
0.0208333333333333
142
0.0
142
0.0
142
0.0
142
0.0
142
0.0208333333333333
142
0.0
142
0.0
142
0.0
142
0.0
142
1.0
142
0.0
142
0.0
142
0.0
142
0.0
142
1.0
179
     0
144
0.0208333333333333
144
0.0
144
0.0
144
0.0
144
0.0
144
0.0208333333333333
144
0.0
144
0.0
144
0.0
144
0.0
144
1.0
144
0.0
144
0.0
144
0.0
144
0.0
144
1.0
147
0.0208333333333333
147
0.0
147
0.0
147
0.0
147
0.0
147
0.0208333333333333
147
0.0
147
0.0
147
0.0
147
0.0
147
1.0
147
0.0
147
0.0
147
0.0
147
0.0
147
1.0
  0
MATERIAL
  5
2DF3
102
{ACAD_XDICTIONARY
360
2DF4
102
}
102
{ACAD_REACTORS
330
2DF2
102
}
330
2DF2
100
AcDbMaterial
  1
ByLayer
 72
     0
 43
0.0208333333333333
 43
0.0
 43
0.0
 43
0.0
 43
0.0
 43
0.0208333333333333
 43
0.0
 43
0.0
 43
0.0
 43
0.0
 43
1.0
 43
0.0
 43
0.0
 43
0.0
 43
0.0
 43
1.0
 77
     0
 47
0.0208333333333333
 47
0.0
 47
0.0
 47
0.0
 47
0.0
 47
0.0208333333333333
 47
0.0
 47
0.0
 47
0.0
 47
0.0
 47
1.0
 47
0.0
 47
0.0
 47
0.0
 47
0.0
 47
1.0
171
     0
 49
0.0208333333333333
 49
0.0
 49
0.0
 49
0.0
 49
0.0
 49
0.0208333333333333
 49
0.0
 49
0.0
 49
0.0
 49
0.0
 49
1.0
 49
0.0
 49
0.0
 49
0.0
 49
0.0
 49
1.0
175
     0
142
0.0208333333333333
142
0.0
142
0.0
142
0.0
142
0.0
142
0.0208333333333333
142
0.0
142
0.0
142
0.0
142
0.0
142
1.0
142
0.0
142
0.0
142
0.0
142
0.0
142
1.0
179
     0
144
0.0208333333333333
144
0.0
144
0.0
144
0.0
144
0.0
144
0.0208333333333333
144
0.0
144
0.0
144
0.0
144
0.0
144
1.0
144
0.0
144
0.0
144
0.0
144
0.0
144
1.0
147
0.0208333333333333
147
0.0
147
0.0
147
0.0
147
0.0
147
0.0208333333333333
147
0.0
147
0.0
147
0.0
147
0.0
147
1.0
147
0.0
147
0.0
147
0.0
147
0.0
147
1.0
  0
MATERIAL
  5
2E03
102
{ACAD_XDICTIONARY
360
2E04
102
}
102
{ACAD_REACTORS
330
2DF2
102
}
330
2DF2
100
AcDbMaterial
  1
Global
 72
     0
 43
0.0208333333333333
 43
0.0
 43
0.0
 43
0.0
 43
0.0
 43
0.0208333333333333
 43
0.0
 43
0.0
 43
0.0
 43
0.0
 43
1.0
 43
0.0
 43
0.0
 43
0.0
 43
0.0
 43
1.0
 77
     0
 47
0.0208333333333333
 47
0.0
 47
0.0
 47
0.0
 47
0.0
 47
0.0208333333333333
 47
0.0
 47
0.0
 47
0.0
 47
0.0
 47
1.0
 47
0.0
 47
0.0
 47
0.0
 47
0.0
 47
1.0
171
     0
 49
0.0208333333333333
 49
0.0
 49
0.0
 49
0.0
 49
0.0
 49
0.0208333333333333
 49
0.0
 49
0.0
 49
0.0
 49
0.0
 49
1.0
 49
0.0
 49
0.0
 49
0.0
 49
0.0
 49
1.0
175
     0
142
0.0208333333333333
142
0.0
142
0.0
142
0.0
142
0.0
142
0.0208333333333333
142
0.0
142
0.0
142
0.0
142
0.0
142
1.0
142
0.0
142
0.0
142
0.0
142
0.0
142
1.0
179
     0
144
0.0208333333333333
144
0.0
144
0.0
144
0.0
144
0.0
144
0.0208333333333333
144
0.0
144
0.0
144
0.0
144
0.0
144
1.0
144
0.0
144
0.0
144
0.0
144
0.0
144
1.0
147
0.0208333333333333
147
0.0
147
0.0
147
0.0
147
0.0
147
0.0208333333333333
147
0.0
147
0.0
147
0.0
147
0.0
147
1.0
147
0.0
147
0.0
147
0.0
147
0.0
147
1.0
  0
MLEADERSTYLE
  5
2E50
102
{ACAD_REACTORS
330
2E4F
102
}
330
2E4F
100
AcDbMLeaderStyle
170
     2
171
     1
172
     0
 90
        2
 40
0.0
 41
0.0
173
     1
 91
-1056964608
340
2E44
 92
       -2
290
     1
 42
0.09
291
     1
 43
0.36
  3
Standard
 44
0.18
300

342
2E3F
174
     1
178
     6
175
     1
176
     0
 93
-1056964608
 45
0.18
292
     0
297
     0
 46
0.18
 94
-1056964608
 47
1.0
 49
1.0
140
1.0
293
     1
141
0.0
294
     1
177
     0
142
1.0
295
     0
296
     0
143
0.125
1001
ACAD_MLEADERVER
1070
     2
  0
MLINESTYLE
  5
2E49
102
{ACAD_REACTORS
330
2E48
102
}
330
2E48
100
AcDbMlineStyle
  2
STANDARD
 70
     0
  3

 62
   256
 51
90.0
 52
90.0
 71
     2
 49
0.5
 62
   256
  6
BYLAYER
 49
-0.5
 62
   256
  6
BYLAYER
  0
ACDBPLACEHOLDER
  5
2DF1
102
{ACAD_REACTORS
330
2DF0
102
}
330
2DF0
  0
SCALE
  5
2E1D
102
{ACAD_REACTORS
330
2E1C
102
}
330
2E1C
100
AcDbScale
 70
     0
300
1:1
140
1.0
141
1.0
290
     1
  0
SCALE
  5
2E1E
102
{ACAD_REACTORS
330
2E1C
102
}
330
2E1C
100
AcDbScale
 70
     0
300
1:2
140
1.0
141
2.0
290
     0
  0
SCALE
  5
2E1F
102
{ACAD_REACTORS
330
2E1C
102
}
330
2E1C
100
AcDbScale
 70
     0
300
1:4
140
1.0
141
4.0
290
     0
  0
SCALE
  5
2E20
102
{ACAD_REACTORS
330
2E1C
102
}
330
2E1C
100
AcDbScale
 70
     0
300
1:5
140
1.0
141
5.0
290
     0
  0
SCALE
  5
2E21
102
{ACAD_REACTORS
330
2E1C
102
}
330
2E1C
100
AcDbScale
 70
     0
300
1:8
140
1.0
141
8.0
290
     0
  0
SCALE
  5
2E22
102
{ACAD_REACTORS
330
2E1C
102
}
330
2E1C
100
AcDbScale
 70
     0
300
1:10
140
1.0
141
10.0
290
     0
  0
SCALE
  5
2E23
102
{ACAD_REACTORS
330
2E1C
102
}
330
2E1C
100
AcDbScale
 70
     0
300
1:16
140
1.0
141
16.0
290
     0
  0
SCALE
  5
2E24
102
{ACAD_REACTORS
330
2E1C
102
}
330
2E1C
100
AcDbScale
 70
     0
300
1:20
140
1.0
141
20.0
290
     0
  0
SCALE
  5
2E25
102
{ACAD_REACTORS
330
2E1C
102
}
330
2E1C
100
AcDbScale
 70
     0
300
1:30
140
1.0
141
30.0
290
     0
  0
SCALE
  5
2E26
102
{ACAD_REACTORS
330
2E1C
102
}
330
2E1C
100
AcDbScale
 70
     0
300
1:40
140
1.0
141
40.0
290
     0
  0
SCALE
  5
2E27
102
{ACAD_REACTORS
330
2E1C
102
}
330
2E1C
100
AcDbScale
 70
     0
300
1:50
140
1.0
141
50.0
290
     0
  0
SCALE
  5
2E28
102
{ACAD_REACTORS
330
2E1C
102
}
330
2E1C
100
AcDbScale
 70
     0
300
1:100
140
1.0
141
100.0
290
     0
  0
SCALE
  5
2E29
102
{ACAD_REACTORS
330
2E1C
102
}
330
2E1C
100
AcDbScale
 70
     0
300
2:1
140
2.0
141
1.0
290
     0
  0
SCALE
  5
2E2A
102
{ACAD_REACTORS
330
2E1C
102
}
330
2E1C
100
AcDbScale
 70
     0
300
4:1
140
4.0
141
1.0
290
     0
  0
SCALE
  5
2E2B
102
{ACAD_REACTORS
330
2E1C
102
}
330
2E1C
100
AcDbScale
 70
     0
300
8:1
140
8.0
141
1.0
290
     0
  0
SCALE
  5
2E2C
102
{ACAD_REACTORS
330
2E1C
102
}
330
2E1C
100
AcDbScale
 70
     0
300
10:1
140
10.0
141
1.0
290
     0
  0
SCALE
  5
2E2D
102
{ACAD_REACTORS
330
2E1C
102
}
330
2E1C
100
AcDbScale
 70
     0
300
100:1
140
100.0
141
1.0
290
     0
  0
SCALE
  5
2E2E
102
{ACAD_REACTORS
330
2E1C
102
}
330
2E1C
100
AcDbScale
 70
     0
300
1/128" = 1'-0"
140
0.0078125
141
12.0
290
     0
  0
SCALE
  5
2E2F
102
{ACAD_REACTORS
330
2E1C
102
}
330
2E1C
100
AcDbScale
 70
     0
300
1/64" = 1'-0"
140
0.015625
141
12.0
290
     0
  0
SCALE
  5
2E30
102
{ACAD_REACTORS
330
2E1C
102
}
330
2E1C
100
AcDbScale
 70
     0
300
1/32" = 1'-0"
140
0.03125
141
12.0
290
     0
  0
SCALE
  5
2E31
102
{ACAD_REACTORS
330
2E1C
102
}
330
2E1C
100
AcDbScale
 70
     0
300
1/16" = 1'-0"
140
0.0625
141
12.0
290
     0
  0
SCALE
  5
2E32
102
{ACAD_REACTORS
330
2E1C
102
}
330
2E1C
100
AcDbScale
 70
     0
300
3/32" = 1'-0"
140
0.09375
141
12.0
290
     0
  0
SCALE
  5
2E33
102
{ACAD_REACTORS
330
2E1C
102
}
330
2E1C
100
AcDbScale
 70
     0
300
1/8" = 1'-0"
140
0.125
141
12.0
290
     0
  0
SCALE
  5
2E34
102
{ACAD_REACTORS
330
2E1C
102
}
330
2E1C
100
AcDbScale
 70
     0
300
3/16" = 1'-0"
140
0.1875
141
12.0
290
     0
  0
SCALE
  5
2E35
102
{ACAD_REACTORS
330
2E1C
102
}
330
2E1C
100
AcDbScale
 70
     0
300
1/4" = 1'-0"
140
0.25
141
12.0
290
     0
  0
SCALE
  5
2E36
102
{ACAD_REACTORS
330
2E1C
102
}
330
2E1C
100
AcDbScale
 70
     0
300
3/8" = 1'-0"
140
0.375
141
12.0
290
     0
  0
SCALE
  5
2E37
102
{ACAD_REACTORS
330
2E1C
102
}
330
2E1C
100
AcDbScale
 70
     0
300
1/2" = 1'-0"
140
0.5
141
12.0
290
     0
  0
SCALE
  5
2E38
102
{ACAD_REACTORS
330
2E1C
102
}
330
2E1C
100
AcDbScale
 70
     0
300
3/4" = 1'-0"
140
0.75
141
12.0
290
     0
  0
SCALE
  5
2E39
102
{ACAD_REACTORS
330
2E1C
102
}
330
2E1C
100
AcDbScale
 70
     0
300
1" = 1'-0"
140
1.0
141
12.0
290
     0
  0
SCALE
  5
2E3A
102
{ACAD_REACTORS
330
2E1C
102
}
330
2E1C
100
AcDbScale
 70
     0
300
1-1/2" = 1'-0"
140
1.5
141
12.0
290
     0
  0
SCALE
  5
2E3B
102
{ACAD_REACTORS
330
2E1C
102
}
330
2E1C
100
AcDbScale
 70
     0
300
3" = 1'-0"
140
3.0
141
12.0
290
     0
  0
SCALE
  5
2E3C
102
{ACAD_REACTORS
330
2E1C
102
}
330
2E1C
100
AcDbScale
 70
     0
300
6" = 1'-0"
140
6.0
141
12.0
290
     0
  0
SCALE
  5
2E3D
102
{ACAD_REACTORS
330
2E1C
102
}
330
2E1C
100
AcDbScale
 70
     0
300
1'-0" = 1'-0"
140
12.0
141
12.0
290
     0
  0
TABLESTYLE
  5
2E4E
102
{ACAD_XDICTIONARY
360
2E88
102
}
102
{ACAD_REACTORS
330
2E4D
102
}
330
2E4D
100
AcDbTableStyle
  3
Standard
 70
     0
 71
     0
 40
0.06
 41
0.06
280
     0
281
     0
  7
STANDARD
140
0.18
170
     2
 62
     0
 63
     7
283
     0
274
    -2
284
     1
 64
     0
275
    -2
285
     1
 65
     0
276
    -2
286
     1
 66
     0
277
    -2
287
     1
 67
     0
278
    -2
288
     1
 68
     0
279
    -2
289
     1
 69
     0
  7
STANDARD
140
0.25
170
     5
 62
     0
 63
     7
283
     0
274
    -2
284
     1
 64
     0
275
    -2
285
     1
 65
     0
276
    -2
286
     1
 66
     0
277
    -2
287
     1
 67
     0
278
    -2
288
     1
 68
     0
279
    -2
289
     1
 69
     0
  7
STANDARD
140
0.18
170
     5
 62
     0
 63
     7
283
     0
274
    -2
284
     1
 64
     0
275
    -2
285
     1
 65
     0
276
    -2
286
     1
 66
     0
277
    -2
287
     1
 67
     0
278
    -2
288
     1
 68
     0
279
    -2
289
     1
 69
     0
  0
VISUALSTYLE
  5
2E11
102
{ACAD_REACTORS
330
2E0B
102
}
330
2E0B
100
AcDbVisualStyle
  2
2dWireframe
 70
     4
 71
     0
 72
     2
 73
     0
 90
        0
 40
-0.6
 41
-30.0
 62
     5
 63
     7
 74
     1
 91
        4
 64
     7
 65
   257
 75
     1
175
     1
 42
1.0
 92
        0
 66
   257
 43
1.0
 76
     1
 77
     6
 78
     2
 67
     7
 79
     5
170
     0
171
     0
290
     0
174
     0
 93
        1
 44
0.0
173
     0
291
     0
 45
0.0
1001
ACAD
1000
AcDbSavedByObjectVersion
1070
     0
  0
VISUALSTYLE
  5
2E13
102
{ACAD_REACTORS
330
2E0B
102
}
330
2E0B
100
AcDbVisualStyle
  2
3D Hidden
 70
     6
 71
     1
 72
     2
 73
     2
 90
        0
 40
-0.6
 41
-30.0
 62
     5
 63
     7
 74
     2
 91
        2
 64
     7
 65
   257
 75
     2
175
     1
 42
40.0
 92
        0
 66
   257
 43
1.0
 76
     1
 77
     6
 78
     2
 67
     7
 79
     3
170
     0
171
     0
290
     0
174
     0
 93
        1
 44
0.0
173
     0
291
     0
 45
0.0
1001
ACAD
1000
AcDbSavedByObjectVersion
1070
     0
  0
VISUALSTYLE
  5
2E12
102
{ACAD_REACTORS
330
2E0B
102
}
330
2E0B
100
AcDbVisualStyle
  2
3dWireframe
 70
     5
 71
     0
 72
     2
 73
     0
 90
        0
 40
-0.6
 41
-30.0
 62
     5
 63
     7
 74
     1
 91
        4
 64
     7
 65
   257
 75
     1
175
     1
 42
1.0
 92
        0
 66
   257
 43
1.0
 76
     1
 77
     6
 78
     2
 67
     7
 79
     5
170
     0
171
     0
290
     0
174
     0
 93
        1
 44
0.0
173
     0
291
     0
 45
0.0
1001
ACAD
1000
AcDbSavedByObjectVersion
1070
     0
  0
VISUALSTYLE
  5
2E10
102
{ACAD_REACTORS
330
2E0B
102
}
330
2E0B
100
AcDbVisualStyle
  2
Basic
 70
     7
 71
     1
 72
     0
 73
     1
 90
        0
 40
-0.6
 41
-30.0
 62
     5
 63
     7
 74
     0
 91
        4
 64
     7
 65
   257
 75
     1
175
     1
 42
1.0
 92
        8
 66
     7
 43
1.0
 76
     1
 77
     6
 78
     2
 67
     7
 79
     5
170
     0
171
     0
290
     0
174
     0
 93
        1
 44
0.0
173
     0
291
     1
 45
0.0
1001
ACAD
1000
AcDbSavedByObjectVersion
1070
     0
  0
VISUALSTYLE
  5
2E17
102
{ACAD_REACTORS
330
2E0B
102
}
330
2E0B
100
AcDbVisualStyle
  2
Brighten
 70
    12
 71
     2
 72
     2
 73
     0
 90
        0
 40
-0.6
 41
-30.0
 62
     5
 63
     7
 74
     1
 91
        4
 64
     7
 65
   257
 75
     1
175
     1
 42
1.0
 92
        8
 66
     7
 43
1.0
 76
     1
 77
     6
 78
     2
 67
     7
 79
     5
170
     0
171
     0
290
     0
174
     0
 93
        1
 44
50.0
173
     0
291
     1
 45
0.0
1001
ACAD
1000
AcDbSavedByObjectVersion
1070
     0
  0
VISUALSTYLE
  5
2E1B
102
{ACAD_REACTORS
330
2E0B
102
}
330
2E0B
100
AcDbVisualStyle
  2
ColorChange
 70
    16
 71
     2
 72
     2
 73
     3
 90
        0
 40
-0.6
 41
-30.0
 62
     5
 63
     8
 74
     1
 91
        4
 64
     7
 65
   257
 75
     1
175
     1
 42
1.0
 92
        8
 66
     8
 43
1.0
 76
     1
 77
     6
 78
     2
 67
     7
 79
     5
170
     0
171
     0
290
     0
174
     0
 93
        1
 44
0.0
173
     0
291
     1
 45
0.0
1001
ACAD
1000
AcDbSavedByObjectVersion
1070
     0
  0
VISUALSTYLE
  5
2E14
102
{ACAD_REACTORS
330
2E0B
102
}
330
2E0B
100
AcDbVisualStyle
  2
Conceptual
 70
     9
 71
     3
 72
     2
 73
     0
 90
        0
 40
-0.6
 41
-30.0
 62
     5
 63
     7
 74
     2
 91
        2
 64
     7
 65
   257
 75
     1
175
     1
 42
40.0
 92
        8
 66
     7
 43
1.0
 76
     1
 77
     6
 78
     2
 67
     7
 79
     3
170
     0
171
     0
290
     0
174
     0
 93
        1
 44
0.0
173
     0
291
     0
 45
0.0
1001
ACAD
1000
AcDbSavedByObjectVersion
1070
     0
  0
VISUALSTYLE
  5
2E16
102
{ACAD_REACTORS
330
2E0B
102
}
330
2E0B
100
AcDbVisualStyle
  2
Dim
 70
    11
 71
     2
 72
     2
 73
     0
 90
        0
 40
-0.6
 41
-30.0
 62
     5
 63
     7
 74
     1
 91
        4
 64
     7
 65
   257
 75
     1
175
     1
 42
1.0
 92
        8
 66
     7
 43
1.0
 76
     1
 77
     6
 78
     2
 67
     7
 79
     5
170
     0
171
     0
290
     0
174
     0
 93
        1
 44
-50.0
173
     0
291
     1
 45
0.0
1001
ACAD
1000
AcDbSavedByObjectVersion
1070
     0
  0
VISUALSTYLE
  5
2E1A
102
{ACAD_REACTORS
330
2E0B
102
}
330
2E0B
100
AcDbVisualStyle
  2
Facepattern
 70
    15
 71
     2
 72
     2
 73
     0
 90
        0
 40
-0.6
 41
-30.0
 62
     5
 63
     7
 74
     1
 91
        4
 64
     7
 65
   257
 75
     1
175
     1
 42
1.0
 92
        8
 66
     7
 43
1.0
 76
     1
 77
     6
 78
     2
 67
     7
 79
     5
170
     0
171
     0
290
     0
174
     0
 93
        1
 44
0.0
173
     0
291
     1
 45
0.0
1001
ACAD
1000
AcDbSavedByObjectVersion
1070
     0
  0
VISUALSTYLE
  5
2E0C
102
{ACAD_REACTORS
330
2E0B
102
}
330
2E0B
100
AcDbVisualStyle
  2
Flat
 70
     0
 71
     2
 72
     1
 73
     1
 90
        2
 40
-0.6
 41
30.0
 62
     5
 63
     7
 74
     0
 91
        4
 64
     7
 65
   257
 75
     1
175
     1
 42
1.0
 92
        8
 66
     7
 43
1.0
 76
     1
 77
     6
 78
     2
 67
     7
 79
     5
170
     0
171
     0
290
     0
174
     0
 93
       13
 44
0.0
173
     0
291
     1
 45
0.0
1001
ACAD
1000
AcDbSavedByObjectVersion
1070
     0
  0
VISUALSTYLE
  5
2E0D
102
{ACAD_REACTORS
330
2E0B
102
}
330
2E0B
100
AcDbVisualStyle
  2
FlatWithEdges
 70
     1
 71
     2
 72
     1
 73
     1
 90
        2
 40
-0.6
 41
30.0
 62
     5
 63
     7
 74
     1
 91
        4
 64
     7
 65
   257
 75
     1
175
     1
 42
1.0
 92
        0
 66
   257
 43
1.0
 76
     1
 77
     6
 78
     2
 67
     7
 79
     5
170
     0
171
     0
290
     0
174
     0
 93
       13
 44
0.0
173
     0
291
     1
 45
0.0
1001
ACAD
1000
AcDbSavedByObjectVersion
1070
     0
  0
VISUALSTYLE
  5
2E0E
102
{ACAD_REACTORS
330
2E0B
102
}
330
2E0B
100
AcDbVisualStyle
  2
Gouraud
 70
     2
 71
     2
 72
     2
 73
     1
 90
        2
 40
-0.6
 41
30.0
 62
     5
 63
     7
 74
     0
 91
        4
 64
     7
 65
   257
 75
     1
175
     1
 42
1.0
 92
        0
 66
     7
 43
1.0
 76
     1
 77
     6
 78
     2
 67
     7
 79
     5
170
     0
171
     0
290
     0
174
     0
 93
       13
 44
0.0
173
     0
291
     1
 45
0.0
1001
ACAD
1000
AcDbSavedByObjectVersion
1070
     0
  0
VISUALSTYLE
  5
2E0F
102
{ACAD_REACTORS
330
2E0B
102
}
330
2E0B
100
AcDbVisualStyle
  2
GouraudWithEdges
 70
     3
 71
     2
 72
     2
 73
     1
 90
        2
 40
-0.6
 41
30.0
 62
     5
 63
     7
 74
     1
 91
        4
 64
     7
 65
   257
 75
     1
175
     1
 42
1.0
 92
        0
 66
   257
 43
1.0
 76
     1
 77
     6
 78
     2
 67
     7
 79
     5
170
     0
171
     0
290
     0
174
     0
 93
       13
 44
0.0
173
     0
291
     1
 45
0.0
1001
ACAD
1000
AcDbSavedByObjectVersion
1070
     0
  0
VISUALSTYLE
  5
2E19
102
{ACAD_REACTORS
330
2E0B
102
}
330
2E0B
100
AcDbVisualStyle
  2
Linepattern
 70
    14
 71
     2
 72
     2
 73
     0
 90
        0
 40
-0.6
 41
-30.0
 62
     5
 63
     7
 74
     1
 91
        4
 64
     7
 65
   257
 75
     7
175
     7
 42
1.0
 92
        8
 66
     7
 43
1.0
 76
     1
 77
     6
 78
     2
 67
     7
 79
     5
170
     0
171
     0
290
     0
174
     0
 93
        1
 44
0.0
173
     0
291
     1
 45
0.0
1001
ACAD
1000
AcDbSavedByObjectVersion
1070
     0
  0
VISUALSTYLE
  5
2E15
102
{ACAD_REACTORS
330
2E0B
102
}
330
2E0B
100
AcDbVisualStyle
  2
Realistic
 70
     8
 71
     2
 72
     2
 73
     0
 90
        0
 40
-0.6
 41
-30.0
 62
     5
 63
     7
 74
     1
 91
        0
 64
     7
 65
   257
 75
     1
175
     1
 42
1.0
 92
        8
 66
     8
 43
1.0
 76
     1
 77
     6
 78
     2
 67
     7
 79
     5
170
     0
171
     0
290
     0
174
     0
 93
       13
 44
0.0
173
     0
291
     0
 45
0.0
1001
ACAD
1000
AcDbSavedByObjectVersion
1070
     0
  0
VISUALSTYLE
  5
2E18
102
{ACAD_REACTORS
330
2E0B
102
}
330
2E0B
100
AcDbVisualStyle
  2
Thicken
 70
    13
 71
     2
 72
     2
 73
     0
 90
        0
 40
-0.6
 41
-30.0
 62
     5
 63
     7
 74
     1
 91
        4
 64
     7
 65
   257
 75
     1
175
     1
 42
1.0
 92
       12
 66
     7
 43
1.0
 76
     1
 77
     6
 78
     2
 67
     7
 79
     5
170
     0
171
     0
290
     0
174
     0
 93
        1
 44
0.0
173
     0
291
     1
 45
0.0
1001
ACAD
1000
AcDbSavedByObjectVersion
1070
     0
  0
DICTIONARYVAR
  5
2E84
102
{ACAD_REACTORS
330
2E81
102
}
330
2E81
100
DictionaryVariables
280
     0
  1
1:1
  0
DICTIONARYVAR
  5
2E83
102
{ACAD_REACTORS
330
2E81
102
}
330
2E81
100
DictionaryVariables
280
     0
  1
STANDARD
  0
DICTIONARYVAR
  5
2E82
102
{ACAD_REACTORS
330
2E81
102
}
330
2E81
100
DictionaryVariables
280
     0
  1
STANDARD
  0
DICTIONARYVAR
  5
2E87
102
{ACAD_REACTORS
330
2E81
102
}
330
2E81
100
DictionaryVariables
280
     0
  1
1
  0
DICTIONARYVAR
  5
2E86
102
{ACAD_REACTORS
330
2E81
102
}
330
2E81
100
DictionaryVariables
280
     0
  1
0
  0
DICTIONARYVAR
  5
2E85
102
{ACAD_REACTORS
330
2E81
102
}
330
2E81
100
DictionaryVariables
280
     0
  1
127
  0
DICTIONARY
  5
2E92
330
2E59
100
AcDbDictionary
280
     1
281
     1
  3
ACAD_XREC_ROUNDTRIP
360
2E93
  0
DICTIONARY
  5
2E90
330
2E55
100
AcDbDictionary
280
     1
281
     1
  3
ACAD_XREC_ROUNDTRIP
360
2E91
  0
DICTIONARY
  5
2DFC
330
2DFB
100
AcDbDictionary
280
     1
281
     1
  3
ACAD_XREC_ROUNDTRIP
360
2E8D
  3
BUMPTILE
360
2DFE
  3
DIFFUSETILE
360
2DFD
  3
OPACITYTILE
360
2E01
  3
REFLECTIONTILE
360
2E00
  3
REFRACTIONTILE
360
2E02
  3
SPECULARTILE
360
2DFF
  0
DICTIONARY
  5
2DF4
330
2DF3
100
AcDbDictionary
280
     1
281
     1
  3
ACAD_XREC_ROUNDTRIP
360
2E8C
  3
BUMPTILE
360
2DF6
  3
DIFFUSETILE
360
2DF5
  3
OPACITYTILE
360
2DF9
  3
REFLECTIONTILE
360
2DF8
  3
REFRACTIONTILE
360
2DFA
  3
SPECULARTILE
360
2DF7
  0
DICTIONARY
  5
2E04
330
2E03
100
AcDbDictionary
280
     1
281
     1
  3
ACAD_XREC_ROUNDTRIP
360
2E8E
  3
BUMPTILE
360
2E06
  3
DIFFUSETILE
360
2E05
  3
OPACITYTILE
360
2E09
  3
REFLECTIONTILE
360
2E08
  3
REFRACTIONTILE
360
2E0A
  3
SPECULARTILE
360
2E07
  0
DICTIONARY
  5
2E88
330
2E4E
100
AcDbDictionary
280
     1
281
     1
  3
ACAD_ROUNDTRIP_2008_TABLESTYLE_CELLSTYLEMAP
360
2E89
  3
ACAD_XREC_ROUNDTRIP
360
2E8F
  0
XRECORD
  5
2E93
102
{ACAD_REACTORS
330
2E92
102
}
330
2E92
100
AcDbXrecord
280
     1
102
SHADEPLOT
 70
     0
102
SHADEPLOTRESLEVEL
 70
     2
102
SHADEPLOTCUSTOMDPI
 70
   300
  0
XRECORD
  5
2E91
102
{ACAD_REACTORS
330
2E90
102
}
330
2E90
100
AcDbXrecord
280
     1
102
SHADEPLOT
 70
     0
102
SHADEPLOTRESLEVEL
 70
     2
102
SHADEPLOTCUSTOMDPI
 70
   300
  0
XRECORD
  5
2E8D
102
{ACAD_REACTORS
330
2DFC
102
}
330
2DFC
100
AcDbXrecord
280
     1
102
MATERIAL
148
0.0
149
0.0
149
0.0
 93
        0
 94
      127
282
     0
 72
     0
 77
     0
171
     0
175
     0
179
     0
273
     0
  0
XRECORD
  5
2DFE
102
{ACAD_REACTORS
330
2DFC
102
}
330
2DFC
100
AcDbXrecord
280
     1
270
     1
271
     1
  0
XRECORD
  5
2DFD
102
{ACAD_REACTORS
330
2DFC
102
}
330
2DFC
100
AcDbXrecord
280
     1
270
     1
271
     1
  0
XRECORD
  5
2E01
102
{ACAD_REACTORS
330
2DFC
102
}
330
2DFC
100
AcDbXrecord
280
     1
270
     1
271
     1
  0
XRECORD
  5
2E00
102
{ACAD_REACTORS
330
2DFC
102
}
330
2DFC
100
AcDbXrecord
280
     1
270
     1
271
     1
  0
XRECORD
  5
2E02
102
{ACAD_REACTORS
330
2DFC
102
}
330
2DFC
100
AcDbXrecord
280
     1
270
     1
271
     1
  0
XRECORD
  5
2DFF
102
{ACAD_REACTORS
330
2DFC
102
}
330
2DFC
100
AcDbXrecord
280
     1
270
     1
271
     1
  0
XRECORD
  5
2E8C
102
{ACAD_REACTORS
330
2DF4
102
}
330
2DF4
100
AcDbXrecord
280
     1
102
MATERIAL
148
0.0
149
0.0
149
0.0
 93
        0
 94
      127
282
     0
 72
     0
 77
     0
171
     0
175
     0
179
     0
273
     0
  0
XRECORD
  5
2DF6
102
{ACAD_REACTORS
330
2DF4
102
}
330
2DF4
100
AcDbXrecord
280
     1
270
     1
271
     1
  0
XRECORD
  5
2DF5
102
{ACAD_REACTORS
330
2DF4
102
}
330
2DF4
100
AcDbXrecord
280
     1
270
     1
271
     1
  0
XRECORD
  5
2DF9
102
{ACAD_REACTORS
330
2DF4
102
}
330
2DF4
100
AcDbXrecord
280
     1
270
     1
271
     1
  0
XRECORD
  5
2DF8
102
{ACAD_REACTORS
330
2DF4
102
}
330
2DF4
100
AcDbXrecord
280
     1
270
     1
271
     1
  0
XRECORD
  5
2DFA
102
{ACAD_REACTORS
330
2DF4
102
}
330
2DF4
100
AcDbXrecord
280
     1
270
     1
271
     1
  0
XRECORD
  5
2DF7
102
{ACAD_REACTORS
330
2DF4
102
}
330
2DF4
100
AcDbXrecord
280
     1
270
     1
271
     1
  0
XRECORD
  5
2E8E
102
{ACAD_REACTORS
330
2E04
102
}
330
2E04
100
AcDbXrecord
280
     1
102
MATERIAL
148
0.0
149
0.0
149
0.0
 93
        0
 94
      127
282
     0
 72
     0
 77
     0
171
     0
175
     0
179
     0
273
     0
  0
XRECORD
  5
2E06
102
{ACAD_REACTORS
330
2E04
102
}
330
2E04
100
AcDbXrecord
280
     1
270
     1
271
     1
  0
XRECORD
  5
2E05
102
{ACAD_REACTORS
330
2E04
102
}
330
2E04
100
AcDbXrecord
280
     1
270
     1
271
     1
  0
XRECORD
  5
2E09
102
{ACAD_REACTORS
330
2E04
102
}
330
2E04
100
AcDbXrecord
280
     1
270
     1
271
     1
  0
XRECORD
  5
2E08
102
{ACAD_REACTORS
330
2E04
102
}
330
2E04
100
AcDbXrecord
280
     1
270
     1
271
     1
  0
XRECORD
  5
2E0A
102
{ACAD_REACTORS
330
2E04
102
}
330
2E04
100
AcDbXrecord
280
     1
270
     1
271
     1
  0
XRECORD
  5
2E07
102
{ACAD_REACTORS
330
2E04
102
}
330
2E04
100
AcDbXrecord
280
     1
270
     1
271
     1
  0
CELLSTYLEMAP
  5
2E89
102
{ACAD_REACTORS
330
2E88
102
}
330
2E88
100
AcDbCellStyleMap
 90
        3
300
CELLSTYLE
  1
TABLEFORMAT_BEGIN
 90
        5
170
     1
 91
        0
 92
    32768
 62
   257
 93
        1
300
CONTENTFORMAT
  1
CONTENTFORMAT_BEGIN
 90
        0
 91
        0
 92
      512
 93
        0
300

 40
0.0
140
1.0
 94
        5
 62
     0
340
2E3F
144
0.25
309
CONTENTFORMAT_END
171
     0
 94
        0
309
TABLEFORMAT_END
  1
CELLSTYLE_BEGIN
 90
        1
 91
        1
300
_TITLE
309
CELLSTYLE_END
300
CELLSTYLE
  1
TABLEFORMAT_BEGIN
 90
        5
170
     1
 91
        0
 92
        0
 62
   257
 93
        1
300
CONTENTFORMAT
  1
CONTENTFORMAT_BEGIN
 90
        0
 91
        0
 92
      512
 93
        0
300

 40
0.0
140
1.0
 94
        5
 62
     0
340
2E3F
144
0.18
309
CONTENTFORMAT_END
171
     0
 94
        0
309
TABLEFORMAT_END
  1
CELLSTYLE_BEGIN
 90
        2
 91
        1
300
_HEADER
309
CELLSTYLE_END
300
CELLSTYLE
  1
TABLEFORMAT_BEGIN
 90
        5
170
     1
 91
        0
 92
        0
 62
   257
 93
        1
300
CONTENTFORMAT
  1
CONTENTFORMAT_BEGIN
 90
        0
 91
        0
 92
      512
 93
        0
300

 40
0.0
140
1.0
 94
        2
 62
     0
340
2E3F
144
0.18
309
CONTENTFORMAT_END
171
     0
 94
        0
309
TABLEFORMAT_END
  1
CELLSTYLE_BEGIN
 90
        3
 91
        2
300
_DATA
309
CELLSTYLE_END
  0
XRECORD
  5
2E8F
102
{ACAD_REACTORS
330
2E88
102
}
330
2E88
100
AcDbXrecord
280
     1
102
ACAD_ROUNDTRIP_PRE2007_TABLESTYLE
 90
      512
 91
        0
  1

 92
      512
 93
        0
  2

 94
      512
 95
        0
  3

  0
ENDSEC
  0
EOF
