  0
SECTION
  2
HEADER
  9
$ACADVER
  1
AC1015
  9
$ACADMAINTVER
 70
    20
  9
$DWGCODEPAGE
  3
ANSI_1252
  9
$INSBASE
 10
0.0
 20
0.0
 30
0.0
  9
$EXTMIN
 10
-65.59396867149962
 20
-42.59937451975893
 30
-0.0015258207003583
  9
$EXTMAX
 10
67.74656929237704
 20
-2.595648062308924
 30
0.0000000349246037
  9
$LIMMIN
 10
0.0
 20
0.0
  9
$LIMMAX
 10
12.0
 20
9.0
  9
$ORTHOMODE
 70
     1
  9
$REGENMODE
 70
     1
  9
$FILLMODE
 70
     1
  9
$QTEXTMODE
 70
     0
  9
$MIRRTEXT
 70
     1
  9
$LTSCALE
 40
1.0
  9
$ATTMODE
 70
     1
  9
$TEXTSIZE
 40
0.2
  9
$TRACEWID
 40
0.05
  9
$TEXTSTYLE
  7
STANDARD
  9
$CLAYER
  8
0
  9
$CELTYPE
  6
ByLayer
  9
$CECOLOR
 62
   256
  9
$CELTSCALE
 40
1.0
  9
$DISPSILH
 70
     0
  9
$DIMSCALE
 40
1.0
  9
$DIMASZ
 40
0.18
  9
$DIMEXO
 40
0.0625
  9
$DIMDLI
 40
0.38
  9
$DIMRND
 40
0.0
  9
$DIMDLE
 40
0.0
  9
$DIMEXE
 40
0.18
  9
$DIMTP
 40
0.0
  9
$DIMTM
 40
0.0
  9
$DIMTXT
 40
0.18
  9
$DIMCEN
 40
0.09
  9
$DIMTSZ
 40
0.0
  9
$DIMTOL
 70
     0
  9
$DIMLIM
 70
     0
  9
$DIMTIH
 70
     1
  9
$DIMTOH
 70
     1
  9
$DIMSE1
 70
     0
  9
$DIMSE2
 70
     0
  9
$DIMTAD
 70
     0
  9
$DIMZIN
 70
     0
  9
$DIMBLK
  1

  9
$DIMASO
 70
     1
  9
$DIMSHO
 70
     1
  9
$DIMPOST
  1

  9
$DIMAPOST
  1

  9
$DIMALT
 70
     0
  9
$DIMALTD
 70
     2
  9
$DIMALTF
 40
25.4
  9
$DIMLFAC
 40
1.0
  9
$DIMTOFL
 70
     0
  9
$DIMTVP
 40
0.0
  9
$DIMTIX
 70
     0
  9
$DIMSOXD
 70
     0
  9
$DIMSAH
 70
     0
  9
$DIMBLK1
  1

  9
$DIMBLK2
  1

  9
$DIMSTYLE
  2
STANDARD
  9
$DIMCLRD
 70
     0
  9
$DIMCLRE
 70
     0
  9
$DIMCLRT
 70
     0
  9
$DIMTFAC
 40
1.0
  9
$DIMGAP
 40
0.09
  9
$DIMJUST
 70
     0
  9
$DIMSD1
 70
     0
  9
$DIMSD2
 70
     0
  9
$DIMTOLJ
 70
     1
  9
$DIMTZIN
 70
     0
  9
$DIMALTZ
 70
     0
  9
$DIMALTTZ
 70
     0
  9
$DIMUPT
 70
     0
  9
$DIMDEC
 70
     4
  9
$DIMTDEC
 70
     4
  9
$DIMALTU
 70
     2
  9
$DIMALTTD
 70
     2
  9
$DIMTXSTY
  7
STANDARD
  9
$DIMAUNIT
 70
     0
  9
$DIMADEC
 70
     0
  9
$DIMALTRND
 40
0.0
  9
$DIMAZIN
 70
     0
  9
$DIMDSEP
 70
    46
  9
$DIMATFIT
 70
     3
  9
$DIMFRAC
 70
     0
  9
$DIMLDRBLK
  1

  9
$DIMLUNIT
 70
     2
  9
$DIMLWD
 70
    -2
  9
$DIMLWE
 70
    -2
  9
$DIMTMOVE
 70
     0
  9
$LUNITS
 70
     2
  9
$LUPREC
 70
     4
  9
$SKETCHINC
 40
0.1
  9
$FILLETRAD
 40
0.5
  9
$AUNITS
 70
     0
  9
$AUPREC
 70
     0
  9
$MENU
  1
.
  9
$ELEVATION
 40
0.0
  9
$PELEVATION
 40
0.0
  9
$THICKNESS
 40
0.0
  9
$LIMCHECK
 70
     0
  9
$CHAMFERA
 40
0.5
  9
$CHAMFERB
 40
0.5
  9
$CHAMFERC
 40
0.0
  9
$CHAMFERD
 40
0.0
  9
$SKPOLY
 70
     0
  9
$TDCREATE
 40
2454910.500000000
  9
$TDUCREATE
 40
2454910.458333334
  9
$TDUPDATE
 40
2457348.924316030
  9
$TDUUPDATE
 40
2457348.882649363
  9
$TDINDWG
 40
0.0026262384
  9
$TDUSRTIMER
 40
0.0026261227
  9
$USRTIMER
 70
     1
  9
$ANGBASE
 50
0.0
  9
$ANGDIR
 70
     0
  9
$PDMODE
 70
     0
  9
$PDSIZE
 40
0.0
  9
$PLINEWID
 40
0.0
  9
$SPLFRAME
 70
     0
  9
$SPLINETYPE
 70
     6
  9
$SPLINESEGS
 70
     8
  9
$HANDSEED
  5
BB2
  9
$SURFTAB1
 70
     6
  9
$SURFTAB2
 70
     6
  9
$SURFTYPE
 70
     6
  9
$SURFU
 70
     6
  9
$SURFV
 70
     6
  9
$UCSBASE
  2

  9
$UCSNAME
  2

  9
$UCSORG
 10
0.0
 20
0.0
 30
0.0
  9
$UCSXDIR
 10
1.0
 20
0.0
 30
0.0
  9
$UCSYDIR
 10
0.0
 20
1.0
 30
0.0
  9
$UCSORTHOREF
  2

  9
$UCSORTHOVIEW
 70
     0
  9
$UCSORGTOP
 10
0.0
 20
0.0
 30
0.0
  9
$UCSORGBOTTOM
 10
0.0
 20
0.0
 30
0.0
  9
$UCSORGLEFT
 10
0.0
 20
0.0
 30
0.0
  9
$UCSORGRIGHT
 10
0.0
 20
0.0
 30
0.0
  9
$UCSORGFRONT
 10
0.0
 20
0.0
 30
0.0
  9
$UCSORGBACK
 10
0.0
 20
0.0
 30
0.0
  9
$PUCSBASE
  2

  9
$PUCSNAME
  2

  9
$PUCSORG
 10
0.0
 20
0.0
 30
0.0
  9
$PUCSXDIR
 10
1.0
 20
0.0
 30
0.0
  9
$PUCSYDIR
 10
0.0
 20
1.0
 30
0.0
  9
$PUCSORTHOREF
  2

  9
$PUCSORTHOVIEW
 70
     0
  9
$PUCSORGTOP
 10
0.0
 20
0.0
 30
0.0
  9
$PUCSORGBOTTOM
 10
0.0
 20
0.0
 30
0.0
  9
$PUCSORGLEFT
 10
0.0
 20
0.0
 30
0.0
  9
$PUCSORGRIGHT
 10
0.0
 20
0.0
 30
0.0
  9
$PUCSORGFRONT
 10
0.0
 20
0.0
 30
0.0
  9
$PUCSORGBACK
 10
0.0
 20
0.0
 30
0.0
  9
$USERI1
 70
     0
  9
$USERI2
 70
     0
  9
$USERI3
 70
     0
  9
$USERI4
 70
     0
  9
$USERI5
 70
     0
  9
$USERR1
 40
0.0
  9
$USERR2
 40
0.0
  9
$USERR3
 40
0.0
  9
$USERR4
 40
0.0
  9
$USERR5
 40
0.0
  9
$WORLDVIEW
 70
     1
  9
$SHADEDGE
 70
     3
  9
$SHADEDIF
 70
    70
  9
$TILEMODE
 70
     1
  9
$MAXACTVP
 70
    64
  9
$PINSBASE
 10
0.0
 20
0.0
 30
0.0
  9
$PLIMCHECK
 70
     0
  9
$PEXTMIN
 10
1.000000000000000E+20
 20
1.000000000000000E+20
 30
1.000000000000000E+20
  9
$PEXTMAX
 10
-1.000000000000000E+20
 20
-1.000000000000000E+20
 30
-1.000000000000000E+20
  9
$PLIMMIN
 10
0.0
 20
0.0
  9
$PLIMMAX
 10
12.0
 20
9.0
  9
$UNITMODE
 70
     0
  9
$VISRETAIN
 70
     1
  9
$PLINEGEN
 70
     0
  9
$PSLTSCALE
 70
     1
  9
$TREEDEPTH
 70
  3020
  9
$CMLSTYLE
  2
Standard
  9
$CMLJUST
 70
     0
  9
$CMLSCALE
 40
1.0
  9
$PROXYGRAPHICS
 70
     1
  9
$MEASUREMENT
 70
     0
  9
$CELWEIGHT
370
    -1
  9
$ENDCAPS
280
     0
  9
$JOINSTYLE
280
     0
  9
$LWDISPLAY
290
     0
  9
$INSUNITS
 70
     0
  9
$HYPERLINKBASE
  1

  9
$STYLESHEET
  1

  9
$XEDIT
290
     1
  9
$CEPSNTYPE
380
     0
  9
$PSTYLEMODE
290
     1
  9
$FINGERPRINTGUID
  2
{07FCC722-56C9-4888-BDED-6F425D953432}
  9
$VERSIONGUID
  2
{48BB0820-9FE8-4357-84C4-F5A97E0D6833}
  9
$EXTNAMES
290
     1
  9
$PSVPSCALE
 40
0.0
  9
$OLESTARTUP
290
     0
  0
ENDSEC
  0
SECTION
  2
CLASSES
  0
CLASS
  1
ACDBDICTIONARYWDFLT
  2
AcDbDictionaryWithDefault
  3
ObjectDBX Classes
 90
        0
280
     0
281
     0
  0
CLASS
  1
MATERIAL
  2
AcDbMaterial
  3
ObjectDBX Classes
 90
     1153
280
     0
281
     0
  0
CLASS
  1
VISUALSTYLE
  2
AcDbVisualStyle
  3
ObjectDBX Classes
 90
     4095
280
     0
281
     0
  0
CLASS
  1
SCALE
  2
AcDbScale
  3
ObjectDBX Classes
 90
     1153
280
     0
281
     0
  0
CLASS
  1
TABLESTYLE
  2
AcDbTableStyle
  3
ObjectDBX Classes
 90
     4095
280
     0
281
     0
  0
CLASS
  1
MLEADERSTYLE
  2
AcDbMLeaderStyle
  3
ACDB_MLEADERSTYLE_CLASS
 90
     4095
280
     0
281
     0
  0
CLASS
  1
SORTENTSTABLE
  2
AcDbSortentsTable
  3
ObjectDBX Classes
 90
        0
280
     0
281
     0
  0
CLASS
  1
DICTIONARYVAR
  2
AcDbDictionaryVar
  3
ObjectDBX Classes
 90
        0
280
     0
281
     0
  0
CLASS
  1
CELLSTYLEMAP
  2
AcDbCellStyleMap
  3
ObjectDBX Classes
 90
     1152
280
     0
281
     0
  0
CLASS
  1
ACDBPLACEHOLDER
  2
AcDbPlaceHolder
  3
ObjectDBX Classes
 90
        0
280
     0
281
     0
  0
CLASS
  1
LAYOUT
  2
AcDbLayout
  3
ObjectDBX Classes
 90
        0
280
     0
281
     0
  0
ENDSEC
  0
SECTION
  2
TABLES
  0
TABLE
  2
VPORT
  5
B1D
330
0
100
AcDbSymbolTable
 70
     1
  0
VPORT
  5
B8D
330
B1D
100
AcDbSymbolTableRecord
100
AcDbViewportTableRecord
  2
*ACTIVE
 70
     0
 10
0.0
 20
0.0
 11
1.0
 21
1.0
 12
8.15664789069531
 22
-22.60894451118338
 13
0.0
 23
0.0
 14
0.5
 24
0.5
 15
0.5
 25
0.5
 16
0.0
 26
0.0
 36
1.0
 17
0.0
 27
0.0
 37
0.0
 40
84.96607352857415
 41
2.520958083832335
 42
50.0
 43
0.0
 44
0.0
 50
0.0
 51
0.0
 71
     0
 72
   100
 73
     1
 74
     3
 75
     0
 76
     0
 77
     0
 78
     0
281
     0
 65
     1
110
0.0
120
0.0
130
0.0
111
1.0
121
0.0
131
0.0
112
0.0
122
1.0
132
0.0
 79
     0
146
0.0
  0
ENDTAB
  0
TABLE
  2
LTYPE
  5
B1A
330
0
100
AcDbSymbolTable
 70
     2
  0
LTYPE
  5
B77
330
B1A
100
AcDbSymbolTableRecord
100
AcDbLinetypeTableRecord
  2
ByBlock
 70
     0
  3

 72
    65
 73
     0
 40
0.0
  0
LTYPE
  5
B78
330
B1A
100
AcDbSymbolTableRecord
100
AcDbLinetypeTableRecord
  2
ByLayer
 70
     0
  3

 72
    65
 73
     0
 40
0.0
  0
LTYPE
  5
B79
330
B1A
100
AcDbSymbolTableRecord
100
AcDbLinetypeTableRecord
  2
CONTINUOUS
 70
     0
  3
Solid line
 72
    65
 73
     0
 40
0.0
  0
LTYPE
  5
B8E
330
B1A
100
AcDbSymbolTableRecord
100
AcDbLinetypeTableRecord
  2
CONTINUOUS2
 70
     0
  3
Solid Line
 72
    65
 73
     0
 40
0.0
  0
ENDTAB
  0
TABLE
  2
LAYER
  5
B17
330
0
100
AcDbSymbolTable
 70
     2
  0
LAYER
  5
B71
102
{ACAD_XDICTIONARY
360
B9B
102
}
330
B17
100
AcDbSymbolTableRecord
100
AcDbLayerTableRecord
  2
0
 70
     0
 62
     7
  6
CONTINUOUS
370
    -3
390
B24
  0
LAYER
  5
B8F
102
{ACAD_XDICTIONARY
360
B9D
102
}
330
B17
100
AcDbSymbolTableRecord
100
AcDbLayerTableRecord
  2
LAYER_1
 70
     0
 62
    18
  6
CONTINUOUS
370
    -3
390
B24
  0
ENDTAB
  0
TABLE
  2
STYLE
  5
B18
330
0
100
AcDbSymbolTable
 70
     2
  0
STYLE
  5
B72
330
B18
100
AcDbSymbolTableRecord
100
AcDbTextStyleTableRecord
  2
STANDARD
 70
     0
 40
0.0
 41
1.0
 50
0.0
 71
     0
 42
0.2
  3
txt
  4

  0
STYLE
  5
B76
330
B18
100
AcDbSymbolTableRecord
100
AcDbTextStyleTableRecord
  2
Annotative
 70
     0
 40
0.0
 41
1.0
 50
0.0
 71
     0
 42
0.2
  3
txt
  4

1001
AcadAnnotative
1000
AnnotativeData
1002
{
1070
     1
1070
     1
1002
}
  0
ENDTAB
  0
TABLE
  2
VIEW
  5
B1B
330
0
100
AcDbSymbolTable
 70
     0
  0
ENDTAB
  0
TABLE
  2
UCS
  5
B1C
330
0
100
AcDbSymbolTable
 70
     0
  0
ENDTAB
  0
TABLE
  2
APPID
  5
B1E
330
0
100
AcDbSymbolTable
 70
     3
  0
APPID
  5
B73
330
B1E
100
AcDbSymbolTableRecord
100
AcDbRegAppTableRecord
  2
ACAD
 70
     0
  0
APPID
  5
B7A
330
B1E
100
AcDbSymbolTableRecord
100
AcDbRegAppTableRecord
  2
AcadAnnotative
 70
     0
  0
APPID
  5
B84
330
B1E
100
AcDbSymbolTableRecord
100
AcDbRegAppTableRecord
  2
ACAD_MLEADERVER
 70
     0
  0
ENDTAB
  0
TABLE
  2
DIMSTYLE
  5
B1F
330
0
100
AcDbSymbolTable
 70
     2
100
AcDbDimStyleTable
 71
     0
  0
DIMSTYLE
105
B74
330
B1F
100
AcDbSymbolTableRecord
100
AcDbDimStyleTableRecord
  2
STANDARD
 70
     0
279
     2
340
B72
  0
DIMSTYLE
105
B75
330
B1F
100
AcDbSymbolTableRecord
100
AcDbDimStyleTableRecord
  2
Annotative
 70
     0
340
B72
1001
AcadAnnotative
1000
AnnotativeData
1002
{
1070
     1
1070
     1
1002
}
  0
ENDTAB
  0
TABLE
  2
BLOCK_RECORD
  5
B16
330
0
100
AcDbSymbolTable
 70
     2
  0
BLOCK_RECORD
  5
B89
102
{ACAD_XDICTIONARY
360
B99
102
}
330
B16
100
AcDbSymbolTableRecord
100
AcDbBlockTableRecord
  2
*Model_Space
340
B8C
  0
BLOCK_RECORD
  5
B85
330
B16
100
AcDbSymbolTableRecord
100
AcDbBlockTableRecord
  2
*Paper_Space
340
B88
  0
BLOCK_RECORD
  5
B91
330
B16
100
AcDbSymbolTableRecord
100
AcDbBlockTableRecord
  2
$MODEL_SPACE
340
0
  0
BLOCK_RECORD
  5
B93
330
B16
100
AcDbSymbolTableRecord
100
AcDbBlockTableRecord
  2
$PAPER_SPACE
340
0
  0
ENDTAB
  0
ENDSEC
  0
SECTION
  2
BLOCKS
  0
BLOCK
  5
B8A
330
B89
100
AcDbEntity
  8
0
100
AcDbBlockBegin
  2
*Model_Space
 70
     0
 10
0.0
 20
0.0
 30
0.0
  3
*Model_Space
  1

  0
ENDBLK
  5
B8B
330
B89
100
AcDbEntity
  8
0
100
AcDbBlockEnd
  0
BLOCK
  5
B86
330
B85
100
AcDbEntity
 67
     1
  8
0
100
AcDbBlockBegin
  2
*Paper_Space
 70
     0
 10
0.0
 20
0.0
 30
0.0
  3
*Paper_Space
  1

  0
ENDBLK
  5
B87
330
B85
100
AcDbEntity
 67
     1
  8
0
100
AcDbBlockEnd
  0
BLOCK
  5
B92
330
B91
100
AcDbEntity
  8
0
100
AcDbBlockBegin
  2
$MODEL_SPACE
 70
     0
 10
0.0
 20
0.0
 30
0.0
  3
$MODEL_SPACE
  1

  0
ENDBLK
  5
21
330
B91
100
AcDbEntity
  8
0
100
AcDbBlockEnd
  0
BLOCK
  5
B94
330
B93
100
AcDbEntity
  8
0
100
AcDbBlockBegin
  2
$PAPER_SPACE
 70
     0
 10
0.0
 20
0.0
 30
0.0
  3
$PAPER_SPACE
  1

  0
ENDBLK
  5
1D
330
B93
100
AcDbEntity
  8
0
100
AcDbBlockEnd
  0
ENDSEC
  0
SECTION
  2
ENTITIES
  0
LWPOLYLINE
  5
41
330
B89
100
AcDbEntity
  8
LAYER_1
100
AcDbPolyline
 90
        3
 70
     0
 43
0.0
 10
-51.8681
 20
-42.5978
 10
-30.0839
 20
-42.5978
 10
64.5841
 20
-42.5978
  0
LWPOLYLINE
  5
43
330
B89
100
AcDbEntity
  8
LAYER_1
100
AcDbPolyline
 90
       78
 70
     1
 43
0.0
 10
64.5841
 20
-5.775
 10
64.5841
 20
-30.2196
 10
64.31439721679689
 20
-28.90547683105469
 10
64.17280115356445
 20
-28.23918518371582
 10
64.02420273437501
 20
-27.5669052734375
 10
63.94669031906129
 20
-27.22855841789246
 10
63.86672252807617
 20
-26.88876093444824
 10
63.78406443252563
 20
-26.54752830238342
 10
63.69848110351563
 20
-26.20487600097656
 10
63.6097376121521
 20
-25.86081950950623
 10
63.51759902954102
 20
-25.51537430725098
 10
63.42183042678833
 20
-25.16855587348938
 10
63.322196875
 20
-24.8203796875
 10
63.21846344528196
 20
-24.4708612285614
 10
63.11039520874024
 20
-24.12001597595215
 10
62.99775723648071
 20
-23.76785940895081
 10
62.88031459960938
 20
-23.41440700683595
 10
62.75783236923217
 20
-23.05967424888611
 10
62.63007561645509
 20
-22.70367661437988
 10
62.49680941238403
 20
-22.34642958259582
 10
62.357798828125
 20
-21.9879486328125
 10
62.21280893478393
 20
-21.62824924430847
 10
62.0616048034668
 20
-21.26734689636231
 10
61.90395150527955
 20
-20.90525706825256
 10
61.73961411132814
 20
-20.54199523925781
 10
61.56835769271849
 20
-20.17757688865662
 10
61.38994732055664
 20
-19.81201749572753
 10
61.20414806594849
 20
-19.44533253974914
 10
61.01072499999999
 20
-19.0775375
 10
60.80944319381714
 20
-18.70864785575867
 10
60.60006771850584
 20
-18.33867908630371
 10
60.38236364517212
 20
-17.96764667091369
 10
60.15609604492187
 20
-17.59556608886718
 10
59.92102998886107
 20
-17.22245281944275
 10
59.6769305480957
 20
-16.84832234191894
 10
59.42356279373168
 20
-16.47319013557433
 10
59.160691796875
 20
-16.0970716796875
 10
58.88808262863159
 20
-15.71998245353698
 10
58.6055003601074
 20
-15.34193793640136
 10
58.31271006240846
 20
-14.9629536075592
 10
58.00947680664061
 20
-14.58304494628906
 10
57.69556566390992
 20
-14.20222743186951
 10
57.37074170532228
 20
-13.8205165435791
 10
57.03477000198365
 20
-13.43792776069641
 10
56.687415625
 20
-13.0544765625
 10
56.5093965186119
 20
-12.8624323949337
 10
56.32844364547729
 20
-12.67017842826843
 10
56.14452763948439
 20
-12.47771659741401
 10
55.95761913452147
 20
-12.28504883728027
 10
55.76768876447677
 20
-12.09217708277701
 10
55.57470716323853
 20
-11.89910326881408
 10
55.37864496469497
 20
-11.70582933030128
 10
55.17947280273436
 20
-11.51235720214843
 10
54.97716131124496
 20
-11.31868881926536
 10
54.77168112411499
 20
-11.12482611656189
 10
54.5630028752327
 20
-10.93077102894783
 10
54.35109719848632
 20
-10.73652549133301
 10
54.13593472776413
 20
-10.54209143862724
 10
53.91748609695436
 20
-10.34747080574036
 10
53.69572193994523
 20
-10.15266552758218
 10
53.47061289062501
 20
-9.957677539062503
 10
53.24212958288192
 20
-9.76250877509117
 10
53.01024265060425
 20
-9.567161170578007
 10
52.77492272768021
 20
-9.371636660432823
 10
52.53614044799807
 20
-9.175937179565435
 10
52.29386644544602
 20
-8.980064662885668
 10
52.04807135391236
 20
-8.784021045303344
 10
51.79872580728531
 20
-8.587808261728284
 10
51.54580043945312
 20
-8.391428247070315
 10
51.28926588430404
 20
-8.194882936239249
 10
51.02909277572632
 20
-7.998174264144901
 10
50.76525174760817
 20
-7.801304165697098
 10
50.49771343383788
 20
-7.604274575805662
 10
50.22644846830368
 20
-7.407087429380411
 10
49.9514274848938
 20
-7.209744661331175
 10
49.6726211174965
 20
-7.012248206567767
 10
49.39
 20
-6.8146
 10
49.39
 20
-5.775
  0
LWPOLYLINE
  5
44
330
B89
100
AcDbEntity
  8
LAYER_1
100
AcDbPolyline
 90
      456
 70
     1
 43
0.0
 10
61.37569999964713
 20
-39.84589997488587
 10
57.20349999999999
 20
-39.8459
 10
58.3391
 20
-36.8918
 10
53.1727
 20
-36.8918
 10
55.9064
 20
-31.7011
 10
55.95911708984375
 20
-31.5976483795166
 10
56.00334453125
 20
-31.49509172363281
 10
56.03916845703124
 20
-31.39358671569824
 10
56.066675
 20
-31.2932900390625
 10
56.08595029296875
 20
-31.1943583770752
 10
56.09708046875
 20
-31.09694841308594
 10
56.10015166015624
 20
-31.00121683044433
 10
56.09869205322265
 20
-30.95402939567566
 10
56.09525
 20
-30.9073203125
 10
56.08983626708984
 20
-30.86110916633606
 10
56.08246162109375
 20
-30.81541554260254
 10
56.07313682861327
 20
-30.77025902671814
 10
56.06187265625
 20
-30.72565920410156
 10
56.04867987060547
 20
-30.68163566017152
 10
56.03356923828125
 20
-30.63820798034668
 10
55.99763750000001
 20
-30.5532185546875
 10
55.95416357421875
 20
-30.47084761047363
 10
55.90323359375
 20
-30.39125183105469
 10
55.84493369140624
 20
-30.31458789978027
 10
55.77935
 20
-30.2410125
 10
55.70656865234375
 20
-30.17068231506348
 10
55.62667578125
 20
-30.10375402832031
 10
55.53975751953124
 20
-30.04038432312012
 10
55.44589999999999
 20
-29.9807298828125
 10
55.34518935546874
 20
-29.92494739074707
 10
55.23771171875
 20
-29.87319353027345
 10
55.12355322265625
 20
-29.82562498474121
 10
55.0028
 20
-29.7823984375
 10
54.87553818359375
 20
-29.74367057189941
 10
54.74185390625
 20
-29.70959807128906
 10
54.60183330078125
 20
-29.68033761901856
 10
54.4555625
 20
-29.6560458984375
 10
54.30312763671876
 20
-29.63687959289551
 10
54.14461484374999
 20
-29.6229953857422
 10
53.98011025390625
 20
-29.61454996032715
 10
53.8097
 20
-29.6117
 10
49.27929999999999
 20
-29.6117
 10
51.9303
 20
-23.6983
 10
51.94060240325928
 20
-23.63759543533325
 10
51.94793240966797
 20
-23.57927520141602
 10
51.95236171417236
 20
-23.52329198837281
 10
51.95396201171875
 20
-23.46959848632812
 10
51.95280499725342
 20
-23.41814738540649
 10
51.94896236572265
 20
-23.36889137573242
 10
51.94250581207275
 20
-23.32178314743042
 10
51.93350703125
 20
-23.276775390625
 10
51.92203771820068
 20
-23.23382079544067
 10
51.9081695678711
 20
-23.19287205200196
 10
51.89197427520752
 20
-23.15388185043335
 10
51.87352353515625
 20
-23.11680288085937
 10
51.85288904266357
 20
-23.08158783340454
 10
51.83014249267579
 20
-23.04818939819336
 10
51.80535558013915
 20
-23.01656026535034
 10
51.77859999999999
 20
-22.986653125
 10
51.74994744720459
 20
-22.95842066726685
 10
51.71946961669922
 20
-22.93181558227539
 10
51.68723820343018
 20
-22.90679056015015
 10
51.65332490234375
 20
-22.88329829101563
 10
51.61780140838622
 20
-22.86129146499633
 10
51.58073941650389
 20
-22.84072277221679
 10
51.50228671875
 20
-22.803710546875
 10
51.41854036865234
 20
-22.77188313598633
 10
51.33007392578125
 20
-22.74486206054687
 10
51.23746094970702
 20
-22.72226884155273
 10
51.14127499999999
 20
-22.703725
 10
51.04208963623046
 20
-22.68885205688477
 10
50.94047841796875
 20
-22.67727153320313
 10
50.83701490478516
 20
-22.66860494995117
 10
50.73227265625
 20
-22.662473828125
 10
50.52124619140625
 20
-22.65630405273437
 10
50.31198749999999
 20
-22.655734375
 10
49.91712734375
 20
-22.659283984375
 10
49.74070283203126
 20
-22.65734760742188
 10
49.65974942626953
 20
-22.65412694702148
 10
49.5844
 20
-22.6489
 10
49.59605567474365
 20
-22.56892675971984
 10
49.60543475341797
 20
-22.48806466369629
 10
49.61256000518798
 20
-22.40637202415466
 10
49.61745419921876
 20
-22.32390715332031
 10
49.62014010467529
 20
-22.24072836341858
 10
49.62064049072266
 20
-22.15689396667481
 10
49.61897812652588
 20
-22.07246227531434
 10
49.61517578125
 20
-21.98749160156251
 10
49.60925622406006
 20
-21.90204025764466
 10
49.60124222412109
 20
-21.81616655578614
 10
49.57902197265624
 20
-21.64338532714844
 10
49.5486971801758
 20
-21.46961441345215
 10
49.51045
 20
-21.29532031250001
 10
49.46446258544922
 20
-21.12096952209474
 10
49.41091708984375
 20
-20.94702854003907
 10
49.3499956665039
 20
-20.77396386413574
 10
49.28188046875
 20
-20.6022419921875
 10
49.20675364990235
 20
-20.43232942199708
 10
49.12479736328125
 20
-20.26469265136719
 10
49.03619376220703
 20
-20.09979817810058
 10
48.94112500000001
 20
-19.9381125
 10
48.83977322998046
 20
-19.78010211486817
 10
48.73232060546875
 20
-19.62623352050781
 10
48.61894927978515
 20
-19.47697321472168
 10
48.49984140625
 20
-19.3327876953125
 10
48.3751791381836
 20
-19.19414346008301
 10
48.31082202911377
 20
-19.12704510459901
 10
48.24514462890626
 20
-19.06150700683594
 10
48.17816970672607
 20
-18.99758747901916
 10
48.10992003173828
 20
-18.93534483337402
 10
48.04041837310791
 20
-18.87483738212585
 10
47.9696875
 20
-18.8161234375
 10
47.8977501815796
 20
-18.7592613117218
 10
47.82462918701171
 20
-18.70430931701661
 10
47.75034728546144
 20
-18.65132576560974
 10
47.67492724609375
 20
-18.60036896972655
 10
47.59839183807373
 20
-18.5514972415924
 10
47.52076383056638
 20
-18.50476889343261
 10
47.44206599273681
 20
-18.46024223747253
 10
47.36232109374999
 20
-18.4179755859375
 10
47.28155190277099
 20
-18.37802725105286
 10
47.19978118896485
 20
-18.34045554504394
 10
47.11703172149659
 20
-18.30531878013611
 10
47.03332626953123
 20
-18.27267526855469
 10
46.94868760223388
 20
-18.24258332252502
 10
46.86313848876952
 20
-18.21510125427246
 10
46.77670169830322
 20
-18.19028737602234
 10
46.6894
 20
-18.1682
 10
46.6016825603485
 20
-18.19028737602234
 10
46.51487854919434
 20
-18.21510125427246
 10
46.42900886573793
 20
-18.24258332252502
 10
46.34409440917969
 20
-18.27267526855468
 10
46.2601560787201
 20
-18.3053187801361
 10
46.17721477355957
 20
-18.34045554504394
 10
46.09529139289856
 20
-18.37802725105286
 10
46.01440683593749
 20
-18.4179755859375
 10
45.93458200187683
 20
-18.46024223747253
 10
45.85583778991697
 20
-18.50476889343262
 10
45.77819509925842
 20
-18.55149724159241
 10
45.70167482910156
 20
-18.60036896972657
 10
45.62629787864685
 20
-18.65132576560974
 10
45.55208514709471
 20
-18.7043093170166
 10
45.47905753364562
 20
-18.7592613117218
 10
45.4072359375
 20
-18.8161234375
 10
45.33664125785828
 20
-18.87483738212585
 10
45.26729439392091
 20
-18.93534483337402
 10
45.19921624488831
 20
-18.99758747901916
 10
45.13242770996093
 20
-19.06150700683593
 10
45.06694968833924
 20
-19.12704510459899
 10
45.00280307922364
 20
-19.194143460083
 10
44.87858769531249
 20
-19.3327876953125
 10
44.75994875183104
 20
-19.47697321472169
 10
44.64705344238281
 20
-19.62623352050782
 10
44.54006896057129
 20
-19.78010211486816
 10
44.4391625
 20
-19.9381125
 10
44.34450125427247
 20
-20.09979817810058
 10
44.25625241699219
 20
-20.26469265136718
 10
44.1745831817627
 20
-20.43232942199706
 10
44.0996607421875
 20
-20.6022419921875
 10
44.03165229187012
 20
-20.77396386413576
 10
43.97072502441406
 20
-20.94702854003907
 10
43.91704613342285
 20
-21.12096952209473
 10
43.8707828125
 20
-21.2953203125
 10
43.83210225524903
 20
-21.46961441345215
 10
43.80117165527344
 20
-21.64338532714843
 10
43.77815820617676
 20
-21.81616655578612
 10
43.76322910156249
 20
-21.9874916015625
 10
43.75884842643738
 20
-22.07246227531433
 10
43.75655153503418
 20
-22.15689396667482
 10
43.75635932655334
 20
-22.24072836341859
 10
43.75829270019531
 20
-22.32390715332032
 10
43.76237255516052
 20
-22.40637202415467
 10
43.76861979064942
 20
-22.48806466369629
 10
43.77705530586243
 20
-22.56892675971986
 10
43.7877
 20
-22.6489
 10
43.71452730102538
 20
-22.65412694702148
 10
43.63560747070314
 20
-22.65734760742188
 10
43.462841015625
 20
-22.659283984375
 10
43.073803125
 20
-22.655734375
 10
42.86679008789061
 20
-22.65630405273437
 10
42.657619921875
 20
-22.662473828125
 10
42.55367254028318
 20
-22.66860494995117
 10
42.45092182617186
 20
-22.67727153320313
 10
42.34994642944335
 20
-22.68885205688477
 10
42.25132499999999
 20
-22.703725
 10
42.15563618774414
 20
-22.72226884155274
 10
42.06345864257813
 20
-22.74486206054688
 10
41.97537101440429
 20
-22.77188313598633
 10
41.89195195312499
 20
-22.803710546875
 10
41.81378010864256
 20
-22.8407227722168
 10
41.77684272079465
 20
-22.86129146499634
 10
41.74143413085936
 20
-22.88329829101563
 10
41.70762667007445
 20
-22.90679056015015
 10
41.67549266967772
 20
-22.93181558227539
 10
41.64510446090697
 20
-22.95842066726685
 10
41.61653437499999
 20
-22.986653125
 10
41.58985474319457
 20
-23.01656026535035
 10
41.56513789672852
 20
-23.04818939819336
 10
41.5424561668396
 20
-23.08158783340454
 10
41.52188188476563
 20
-23.11680288085938
 10
41.50348738174439
 20
-23.15388185043335
 10
41.48734498901365
 20
-23.19287205200196
 10
41.47352703781128
 20
-23.23382079544067
 10
41.462105859375
 20
-23.276775390625
 10
41.45315378494262
 20
-23.32178314743042
 10
41.44674314575195
 20
-23.36889137573242
 10
41.44294627304077
 20
-23.41814738540649
 10
41.44183549804686
 20
-23.46959848632812
 10
41.44348315200806
 20
-23.5232919883728
 10
41.4479615661621
 20
-23.57927520141601
 10
41.45534307174682
 20
-23.63759543533325
 10
41.46569999999999
 20
-23.6983
 10
44.0876
 20
-29.6117
 10
39.581
 20
-29.6117
 10
39.41097046203613
 20
-29.61454996032715
 10
39.24681760253905
 20
-29.6229953857422
 10
39.08862317810058
 20
-29.63687959289551
 10
38.93646894531251
 20
-29.6560458984375
 10
38.79043666076661
 20
-29.68033761901856
 10
38.65060808105468
 20
-29.70959807128906
 10
38.51706496276857
 20
-29.74367057189941
 10
38.38988906250001
 20
-29.7823984375
 10
38.26916213684082
 20
-29.82562498474121
 10
38.15496594238283
 20
-29.87319353027343
 10
38.04738223571778
 20
-29.92494739074706
 10
37.94649277343751
 20
-29.9807298828125
 10
37.85237931213378
 20
-30.04038432312012
 10
37.76512360839844
 20
-30.10375402832031
 10
37.68480741882326
 20
-30.17068231506347
 10
37.61151250000001
 20
-30.2410125
 10
37.54532060852051
 20
-30.31458789978027
 10
37.48631350097657
 20
-30.39125183105468
 10
37.43457293395997
 20
-30.47084761047362
 10
37.39018066406251
 20
-30.5532185546875
 10
37.35321844787597
 20
-30.63820798034668
 10
37.32376804199219
 20
-30.72565920410156
 10
37.30191120300293
 20
-30.81541554260254
 10
37.2877296875
 20
-30.9073203125
 10
37.28130525207518
 20
-31.00121683044433
 10
37.28271965332031
 20
-31.09694841308593
 10
37.29205464782714
 20
-31.19435837707519
 10
37.3093919921875
 20
-31.2932900390625
 10
37.33481344299317
 20
-31.39358671569825
 10
37.36840075683594
 20
-31.49509172363281
 10
37.41023569030762
 20
-31.5976483795166
 10
37.4604
 20
-31.7011
 10
40.2235
 20
-36.8918
 10
35.0573
 20
-36.8918
 10
36.2094
 20
-39.8459
 10
32.02450000000001
 20
-39.8459
 10
32.03770816307068
 20
-39.21854244461061
 10
32.05804870300293
 20
-38.59228184204093
 10
32.08550819587709
 20
-37.96727691268915
 10
32.12007321777345
 20
-37.34368637695308
 10
32.16173034477234
 20
-36.72166895523068
 10
32.2104661529541
 20
-36.10138336791989
 10
32.26626721839905
 20
-35.48298833541869
 10
32.32912011718751
 20
-34.866642578125
 10
32.39901142539978
 20
-34.25250481643678
 10
32.47592771911622
 20
-33.64073377075197
 10
32.55985557441711
 20
-33.03148816146854
 10
32.65078156738281
 20
-32.42492670898443
 10
32.74869227409361
 20
-31.82120813369758
 10
32.85357427062987
 20
-31.22049115600595
 10
32.96541413307191
 20
-30.62293449630736
 10
33.08419843750001
 20
-30.028696875
 10
33.20991375999451
 20
-29.4379370124817
 10
33.34254667663576
 20
-28.85081362915031
 10
33.48208376350404
 20
-28.26748544540398
 10
33.62851159667969
 20
-27.68811118164058
 10
33.78181675224305
 20
-27.11284955825802
 10
33.94198580627442
 20
-26.54185929565427
 10
34.10900533485413
 20
-25.97529911422728
 10
34.2828619140625
 20
-25.413327734375
 10
34.46354211997986
 20
-24.85610387649539
 10
34.55643688797952
 20
-24.57932186841962
 10
34.65103252868651
 20
-24.30378626098635
 10
34.74732736411092
 20
-24.02951689424523
 10
34.8453197162628
 20
-23.75653360824589
 10
34.94500790715218
 20
-23.48485624303817
 10
35.04639025878905
 20
-23.21450463867192
 10
35.14946509318348
 20
-22.94549863519679
 10
35.25423073234555
 20
-22.67785807266241
 10
35.3606854982853
 20
-22.41160279111864
 10
35.46882771301267
 20
-22.1467526306153
 10
35.57865569853782
 20
-21.88332743120196
 10
35.69016777687073
 20
-21.62134703292845
 10
35.80336227002142
 20
-21.36083127584461
 10
35.9182375
 20
-21.1018
 10
36.03479178881647
 20
-20.84427304544445
 10
36.15302345848083
 20
-20.58827025222779
 10
36.2729308310032
 20
-20.3338114603996
 10
36.3945122283936
 20
-20.0809165100097
 10
36.51776597266198
 20
-19.82960524110792
 10
36.64269038581851
 20
-19.57989749374384
 10
36.76928378987317
 20
-19.33181310796729
 10
36.89754450683596
 20
-19.08537192382808
 10
37.02747085871696
 20
-18.84059378137589
 10
37.15906116752626
 20
-18.59749852066037
 10
37.29231375527386
 20
-18.35610598173135
 10
37.42722694396974
 20
-18.11643600463865
 10
37.563799055624
 20
-17.87850842943194
 10
37.70202841224671
 20
-17.64234309616088
 10
37.84191333584788
 20
-17.40795984487529
 10
37.9834521484375
 20
-17.175378515625
 10
38.12664317202564
 20
-16.94461894845967
 10
38.27148472862243
 20
-16.71570098342896
 10
38.41797514023782
 20
-16.48864446058271
 10
38.56611272888182
 20
-16.26346921997072
 10
38.71589581656452
 20
-16.04019510164267
 10
38.867322725296
 20
-15.81884194564822
 10
39.02039177708626
 20
-15.5994295920372
 10
39.17510129394528
 20
-15.38197788085941
 10
39.33144959788316
 20
-15.16650665216453
 10
39.48943501091
 20
-14.95303574600224
 10
39.64905585503577
 20
-14.74158500242235
 10
39.81031045227046
 20
-14.53217426147466
 10
39.97319712462424
 20
-14.32482336320879
 10
40.13771419410706
 20
-14.11955214767455
 10
40.30385998272893
 20
-13.91638045492175
 10
40.47163281249999
 20
-13.715328125
 10
40.64103100543024
 20
-13.51641499795911
 10
40.81205288352966
 20
-13.31966091384888
 10
40.98469676880838
 20
-13.12508571271894
 10
41.15896098327642
 20
-12.93270923461909
 10
41.33484384894372
 20
-12.74255131959914
 10
41.51234368782048
 20
-12.5546318077087
 10
41.69145882191664
 20
-12.36897053899758
 10
41.87218757324221
 20
-12.18558735351559
 10
42.05452826380728
 20
-12.00450209131241
 10
42.23847921562196
 20
-11.82573459243772
 10
42.42403875069622
 20
-11.64930469694132
 10
42.61120519104006
 20
-11.47523224487303
 10
42.79997685866354
 20
-11.30353707628252
 10
42.99035207557679
 20
-11.13423903121947
 10
43.18232916378978
 20
-10.9673579497337
 10
43.37590644531249
 20
-10.802913671875
 10
43.57108224215504
 20
-10.64092603769305
 10
43.7678548763275
 20
-10.48141488723756
 10
43.96622266983988
 20
-10.3244000605583
 10
44.16618394470212
 20
-10.16990139770509
 10
44.36773702292436
 20
-10.01793873872761
 10
44.57088022651668
 20
-9.868531923675556
 10
44.7756118774891
 20
-9.721700792598721
 10
44.98193029785152
 20
-9.5774651855469
 10
45.18983380961411
 20
-9.435844942569783
 10
45.39932073478694
 20
-9.296859903717072
 10
45.61038939538
 20
-9.160529909038553
 10
45.82303811340326
 20
-9.026874798584017
 10
46.03726521086691
 20
-8.895914412403119
 10
46.25306900978089
 20
-8.767668590545646
 10
46.47044783215519
 20
-8.64215717306139
 10
46.6894
 20
-8.519399999999999
 10
46.90910216833411
 20
-8.642157172906218
 10
47.12722162077934
 20
-8.76766859022846
 10
47.34375668392342
 20
-8.89591441191709
 10
47.55870568435403
 20
-9.026874797922431
 10
47.77206694865886
 20
-9.160529908194815
 10
47.9838388034256
 20
-9.296859902684573
 10
48.19401957524191
 20
-9.435844941342036
 10
48.4026075906955
 20
-9.577465184117539
 10
48.60960117637404
 20
-9.721700790961408
 10
48.81499865886518
 20
-9.868531921823967
 10
49.01879836475668
 20
-10.01793873665556
 10
49.22099862063618
 20
-10.16990139540654
 10
49.42159775309139
 20
-10.32440005802721
 10
49.62059408870993
 20
-10.48141488446788
 10
49.8179859540795
 20
-10.64092603467889
 10
50.01377167578782
 20
-10.80291366861059
 10
50.20794958042256
 20
-10.9673579462133
 10
50.40051799457138
 20
-11.13423902743735
 10
50.59147524482201
 20
-11.30353707223308
 10
50.78081965776211
 20
-11.47523224055084
 10
50.96854955997939
 20
-11.64930469234094
 10
51.15466327806146
 20
-11.82573458755368
 10
51.33915913859602
 20
-12.00450208613941
 10
51.52203546817081
 20
-12.18558734804847
 10
51.70329059337347
 20
-12.36897053323119
 10
51.88292284079168
 20
-12.5546318016379
 10
52.06093053701317
 20
-12.74255131321893
 10
52.23731200862562
 20
-12.93270922792464
 10
52.41206558221667
 20
-13.12508570570534
 10
52.58518958437399
 20
-13.31966090651132
 10
52.75668234168528
 20
-13.51641499029294
 10
52.92654218073828
 20
-13.71532811700053
 10
53.09476742812058
 20
-13.91638044658443
 10
53.26135641041994
 20
-14.11955213899496
 10
53.426307454224
 20
-14.32482335418246
 10
53.5896188861205
 20
-14.5321742520973
 10
53.75128903269707
 20
-14.74158499268976
 10
53.91131622054139
 20
-14.95303573591014
 10
54.06969877624114
 20
-15.16650664170882
 10
54.22643502638404
 20
-15.38197787003611
 10
54.38152329755774
 20
-15.59942958084235
 10
54.53496191634997
 20
-15.81884193407788
 10
54.68674920934834
 20
-16.04019508969301
 10
54.83688350314063
 20
-16.26346920763814
 10
54.98536312431445
 20
-16.48864444786353
 10
55.13218639945748
 20
-16.71570097031949
 10
55.27735165515743
 20
-16.94461893495638
 10
55.42085721800196
 20
-17.17537850172455
 10
55.56270141457879
 20
-17.40795983057431
 10
55.70288257147559
 20
-17.64234308145599
 10
55.84139901528002
 20
-17.87850841431993
 10
55.97824907257982
 20
-18.11643598911651
 10
56.11343106996264
 20
-18.356105965796
 10
56.24694333401611
 20
-18.59749850430871
 10
56.37878419132797
 20
-18.84059376460499
 10
56.5089519684859
 20
-19.08537190663519
 10
56.63744499207758
 20
-19.33181309034963
 10
56.76426158869068
 20
-19.57989747569864
 10
56.8894000849129
 20
-19.82960522263257
 10
57.01285880733193
 20
-20.08091649110176
 10
57.13463608253546
 20
-20.33381144105653
 10
57.25473023711112
 20
-20.58827023244714
 10
57.37313959764663
 20
-20.84427302522398
 10
57.48986249072966
 20
-21.10179997933738
 10
57.6048972429479
 20
-21.36083125473767
 10
57.71824218088906
 20
-21.62134701137518
 10
57.82989563114078
 20
-21.88332740920024
 10
57.9398559202908
 20
-22.14675260816323
 10
58.04812137492675
 20
-22.41160276821443
 10
58.15469032163632
 20
-22.67785804930412
 10
58.25956108700721
 20
-22.94549861138269
 10
58.36273199762709
 20
-23.21450461440047
 10
58.46420138008364
 20
-23.48485621830777
 10
58.56396756096458
 20
-23.75653358305494
 10
58.66202886685754
 20
-24.02951686859231
 10
58.75838362435025
 20
-24.30378623487027
 10
58.85303016003039
 20
-24.57932184183906
 10
58.94596680048559
 20
-24.856103849449
 10
59.03719187230358
 20
-25.13411241765046
 10
59.12670370207202
 20
-25.41332770639378
 10
59.30058094181105
 20
-25.97529908530727
 10
59.46758513240414
 20
-26.5418592657922
 10
59.62770288655274
 20
-27.11284952745112
 10
59.78092081695831
 20
-27.68811114988666
 10
59.92722553632234
 20
-28.26748541270151
 10
60.06660365734628
 20
-28.85081359549837
 10
60.19904179273161
 20
-29.43793697787983
 10
60.32452655517978
 20
-30.02869683944847
 10
60.44304455739226
 20
-30.62293445980701
 10
60.55458241207055
 20
-31.22049111855814
 10
60.65912673191604
 20
-31.82120809530446
 10
60.75666412963027
 20
-32.42492666964853
 10
60.84718121791467
 20
-33.03148812119311
 10
60.93066460947071
 20
-33.64073372954084
 10
61.0071009169999
 20
-34.25250477429434
 10
61.07647675320362
 20
-34.86664253505622
 10
61.13877873078338
 20
-35.48298829142915
 10
61.19399346244069
 20
-36.10138332301582
 10
61.24210756087696
 20
-36.72166890941886
 10
61.28310763879366
 20
-37.34368633024083
 10
61.31698030889229
 20
-37.96727686508447
 10
61.34371218387427
 20
-38.59228179355243
 10
61.36328987644111
 20
-39.21854239524732
  0
LWPOLYLINE
  5
45
330
B89
100
AcDbEntity
  8
LAYER_1
100
AcDbPolyline
 90
      453
 70
     1
 43
0.0
 10
21.90609999966972
 20
-39.84589997890413
 10
17.7154
 20
-39.8459
 10
18.8676
 20
-36.8918
 10
13.7093
 20
-36.8918
 10
16.4446
 20
-31.7011
 10
16.49483161010742
 20
-31.5976483795166
 10
16.53687983398438
 20
-31.49509172363281
 10
16.57081538696289
 20
-31.39358671569824
 10
16.596708984375
 20
-31.2932900390625
 10
16.61463134155274
 20
-31.1943583770752
 10
16.62465317382813
 20
-31.09694841308594
 10
16.6268451965332
 20
-31.00121683044433
 10
16.621278125
 20
-30.9073203125
 10
16.60802267456055
 20
-30.81541554260254
 10
16.58714956054688
 20
-30.72565920410156
 10
16.55872949829102
 20
-30.63820798034668
 10
16.522833203125
 20
-30.5532185546875
 10
16.47953139038086
 20
-30.47084761047363
 10
16.42889477539063
 20
-30.39125183105469
 10
16.37099407348633
 20
-30.31458789978027
 10
16.3059
 20
-30.2410125
 10
16.23368327026367
 20
-30.17068231506348
 10
16.15441459960937
 20
-30.10375402832031
 10
16.06816470336914
 20
-30.04038432312012
 10
15.975004296875
 20
-29.9807298828125
 10
15.87500409545898
 20
-29.92494739074707
 10
15.76823481445312
 20
-29.87319353027345
 10
15.65476716918945
 20
-29.82562498474121
 10
15.534671875
 20
-29.7823984375
 10
15.4080196472168
 20
-29.74367057189941
 10
15.27488120117187
 20
-29.70959807128906
 10
15.13532725219727
 20
-29.68033761901856
 10
14.989428515625
 20
-29.6560458984375
 10
14.83725570678711
 20
-29.63687959289551
 10
14.67887954101563
 20
-29.6229953857422
 10
14.51437073364258
 20
-29.61454996032715
 10
14.3438
 20
-29.6117
 10
9.82
 20
-29.6117
 10
12.467
 20
-23.6983
 10
12.47712071266174
 20
-23.63759543533325
 10
12.4842804473877
 20
-23.57927520141601
 10
12.48855059928894
 20
-23.5232919883728
 10
12.49000256347656
 20
-23.46959848632812
 10
12.48870773506165
 20
-23.41814738540649
 10
12.48473750915527
 20
-23.36889137573242
 10
12.47816328086853
 20
-23.32178314743042
 10
12.4690564453125
 20
-23.27677539062499
 10
12.45748839759827
 20
-23.23382079544067
 10
12.44353053283691
 20
-23.19287205200195
 10
12.42725424613952
 20
-23.15388185043335
 10
12.40873093261719
 20
-23.11680288085937
 10
12.38803198738098
 20
-23.08158783340454
 10
12.36522880554199
 20
-23.04818939819336
 10
12.3403927822113
 20
-23.01656026535034
 10
12.3135953125
 20
-22.986653125
 10
12.28490779151917
 20
-22.95842066726685
 10
12.25440161437988
 20
-22.93181558227539
 10
12.22214817619324
 20
-22.90679056015015
 10
12.18821887207031
 20
-22.88329829101563
 10
12.15268509712219
 20
-22.86129146499634
 10
12.11561824645996
 20
-22.84072277221679
 10
12.0371708984375
 20
-22.803710546875
 10
11.9534479888916
 20
-22.77188313598633
 10
11.86502067871094
 20
-22.74486206054688
 10
11.77246012878418
 20
-22.72226884155273
 10
11.6763375
 20
-22.703725
 10
11.57722395324707
 20
-22.68885205688477
 10
11.47569064941406
 20
-22.67727153320313
 10
11.37230874938965
 20
-22.66860494995117
 10
11.2676494140625
 20
-22.662473828125
 10
11.05678308105469
 20
-22.65630405273437
 10
10.8476609375
 20
-22.655734375
 10
10.4529263671875
 20
-22.659283984375
 10
10.27645251464844
 20
-22.65734760742188
 10
10.19543800964356
 20
-22.65412694702148
 10
10.12
 20
-22.6489
 10
10.13044339637756
 20
-22.56892675971986
 10
10.13867832336426
 20
-22.48806466369628
 10
10.14472595024109
 20
-22.40637202415466
 10
10.14860744628906
 20
-22.32390715332031
 10
10.15034398078918
 20
-22.24072836341858
 10
10.14995672302246
 20
-22.1568939666748
 10
10.1474668422699
 20
-22.07246227531433
 10
10.1428955078125
 20
-21.9874916015625
 10
10.12759315490723
 20
-21.81616655578613
 10
10.10421901855469
 20
-21.64338532714843
 10
10.07294245300293
 20
-21.46961441345215
 10
10.0339328125
 20
-21.2953203125
 10
9.987359451293942
 20
-21.12096952209473
 10
9.933391723632812
 20
-20.94702854003906
 10
9.872198983764647
 20
-20.77396386413574
 10
9.803950585937499
 20
-20.6022419921875
 10
9.728815884399411
 20
-20.43232942199707
 10
9.646964233398435
 20
-20.26469265136719
 10
9.558564987182617
 20
-20.09979817810059
 10
9.4637875
 20
-19.9381125
 10
9.362801126098636
 20
-19.78010211486816
 10
9.255775219726565
 20
-19.62623352050781
 10
9.142879135131838
 20
-19.47697321472168
 10
9.024282226562503
 20
-19.3327876953125
 10
8.900153848266606
 20
-19.19414346008301
 10
8.836068281173711
 20
-19.12704510459901
 10
8.770663354492191
 20
-19.06150700683594
 10
8.703960237503057
 20
-18.99758747901917
 10
8.635980099487309
 20
-18.93534483337403
 10
8.566744109725952
 20
-18.87483738212585
 10
8.496273437500001
 20
-18.8161234375
 10
8.424589252090454
 20
-18.7592613117218
 10
8.351712722778316
 20
-18.7043093170166
 10
8.277665018844601
 20
-18.65132576560974
 10
8.202467309570309
 20
-18.60036896972655
 10
8.126140764236446
 20
-18.5514972415924
 10
8.04870655212402
 20
-18.50476889343261
 10
7.970185842514035
 20
-18.46024223747253
 10
7.890599804687497
 20
-18.4179755859375
 10
7.809969607925412
 20
-18.37802725105285
 10
7.728316421508786
 20
-18.34045554504394
 10
7.645661414718625
 20
-18.3053187801361
 10
7.562025756835936
 20
-18.27267526855469
 10
7.477430617141722
 20
-18.24258332252502
 10
7.391897164916991
 20
-18.21510125427246
 10
7.305446569442747
 20
-18.19028737602234
 10
7.218099999999999
 20
-18.1682
 10
7.131547377014159
 20
-18.19028737602234
 10
7.045838879394532
 20
-18.21510125427246
 10
6.960997001647951
 20
-18.24258332252502
 10
6.877044238281252
 20
-18.27267526855469
 10
6.794003083801271
 20
-18.3053187801361
 10
6.711896032714846
 20
-18.34045554504394
 10
6.630745579528812
 20
-18.37802725105285
 10
6.550574218750004
 20
-18.4179755859375
 10
6.471404444885257
 20
-18.46024223747253
 10
6.393258752441409
 20
-18.50476889343261
 10
6.316159635925298
 20
-18.5514972415924
 10
6.240129589843754
 20
-18.60036896972655
 10
6.16519110870362
 20
-18.65132576560974
 10
6.091366687011724
 20
-18.7043093170166
 10
6.018678819274902
 20
-18.7592613117218
 10
5.947150000000001
 20
-18.8161234375
 10
5.876802723693847
 20
-18.87483738212585
 10
5.807659484863277
 20
-18.93534483337402
 10
5.739742778015134
 20
-18.99758747901917
 10
5.673075097656247
 20
-19.06150700683594
 10
5.607678938293454
 20
-19.127045104599
 10
5.543576794433591
 20
-19.19414346008301
 10
5.419344531249998
 20
-19.3327876953125
 10
5.300558264160156
 20
-19.47697321472168
 10
5.187397949218751
 20
-19.62623352050781
 10
5.08004354248047
 20
-19.78010211486816
 10
4.978675
 20
-19.9381125
 10
4.883472277832033
 20
-20.09979817810058
 10
4.794615332031252
 20
-20.26469265136718
 10
4.712284118652346
 20
-20.43232942199706
 10
4.63665859375
 20
-20.6022419921875
 10
4.567918713378903
 20
-20.77396386413575
 10
4.506244433593749
 20
-20.94702854003906
 10
4.451815710449217
 20
-21.12096952209473
 10
4.404812499999998
 20
-21.2953203125
 10
4.365414758300781
 20
-21.46961441345215
 10
4.333802441406249
 20
-21.64338532714844
 10
4.310155505371093
 20
-21.81616655578613
 10
4.30137529144287
 20
-21.90204025764465
 10
4.294653906249999
 20
-21.9874916015625
 10
4.290013844299316
 20
-22.07246227531433
 10
4.287477600097655
 20
-22.1568939666748
 10
4.287067668151856
 20
-22.24072836341858
 10
4.288806542968749
 20
-22.32390715332031
 10
4.292716719055176
 20
-22.40637202415466
 10
4.298820690917969
 20
-22.48806466369628
 10
4.307140953063965
 20
-22.56892675971986
 10
4.3177
 20
-22.6489
 10
4.242662854003904
 20
-22.65412694702148
 10
4.162149316406248
 20
-22.65734760742188
 10
3.986930468749998
 20
-22.659283984375
 10
3.595387499999998
 20
-22.655734375
 10
3.388012988281249
 20
-22.65630405273437
 10
3.178869531250001
 20
-22.662473828125
 10
3.075032824707031
 20
-22.66860494995117
 10
2.972431933593751
 20
-22.67727153320313
 10
2.871626208496095
 20
-22.68885205688477
 10
2.773175000000001
 20
-22.703725
 10
2.677637658691408
 20
-22.72226884155273
 10
2.585573535156252
 20
-22.74486206054687
 10
2.497541979980471
 20
-22.77188313598633
 10
2.414102343750001
 20
-22.803710546875
 10
2.335813977050784
 20
-22.84072277221679
 10
2.263236230468752
 20
-22.88329829101562
 10
2.229263636779785
 20
-22.90679056015015
 10
2.196928454589845
 20
-22.93181558227539
 10
2.166300602722173
 20
-22.95842066726684
 10
2.137450000000003
 20
-22.986653125
 10
2.110446565246582
 20
-23.01656026535034
 10
2.085360217285158
 20
-23.04818939819336
 10
2.062260874938969
 20
-23.08158783340454
 10
2.041218457031252
 20
-23.11680288085937
 10
2.022302882385254
 20
-23.15388185043335
 10
2.005584069824219
 20
-23.19287205200195
 10
1.991131938171388
 20
-23.23382079544067
 10
1.97901640625
 20
-23.27677539062499
 10
1.969307392883301
 20
-23.32178314743042
 10
1.962074816894531
 20
-23.36889137573241
 10
1.957388597106934
 20
-23.41814738540648
 10
1.955318652343749
 20
-23.46959848632812
 10
1.955934901428223
 20
-23.5232919883728
 10
1.959307263183593
 20
-23.57927520141602
 10
1.965505656433106
 20
-23.63759543533326
 10
1.974599999999999
 20
-23.6983
 10
4.6191
 20
-29.6117
 10
0.0938000000000001
 20
-29.6117
 10
-0.07683511352539
 20
-29.61454996032715
 10
-0.2415285644531244
 20
-29.6229953857422
 10
-0.4001968933105459
 20
-29.63687959289551
 10
-0.5527566406249982
 20
-29.6560458984375
 10
-0.6991243469238265
 20
-29.68033761901855
 10
-0.8392165527343731
 20
-29.70959807128906
 10
-0.972949798583982
 20
-29.74367057189941
 10
-1.100240624999998
 20
-29.7823984375
 10
-1.221005572509763
 20
-29.82562498474121
 10
-1.335161181640621
 20
-29.87319353027345
 10
-1.442623992919918
 20
-29.92494739074707
 10
-1.543310546874996
 20
-29.9807298828125
 10
-1.637137384033199
 20
-30.04038432312012
 10
-1.724021044921871
 20
-30.10375402832031
 10
-1.803878070068357
 20
-30.17068231506347
 10
-1.876624999999996
 20
-30.2410125
 10
-1.942178375244138
 20
-30.31458789978027
 10
-2.000454736328122
 20
-30.39125183105468
 10
-2.051370623779294
 20
-30.47084761047363
 10
-2.094842578124997
 20
-30.5532185546875
 10
-2.130787139892575
 20
-30.63820798034667
 10
-2.145910567474363
 20
-30.6816356601715
 10
-2.159120849609374
 20
-30.72565920410156
 10
-2.170407553863524
 20
-30.77025902671814
 10
-2.179760247802733
 20
-30.81541554260253
 10
-2.187168498992919
 20
-30.86110916633605
 10
-2.192621874999999
 20
-30.90732031249999
 10
-2.197622271728516
 20
-31.00121683044433
 10
-2.194677978515624
 20
-31.09694841308593
 10
-2.183705535888673
 20
-31.19435837707519
 10
-2.164621484375
 20
-31.29329003906249
 10
-2.137342364501956
 20
-31.39358671569823
 10
-2.101784716796878
 20
-31.49509172363281
 10
-2.05786508178711
 20
-31.5976483795166
 10
-2.0055
 20
-31.7011
 10
0.7548
 20
-36.8918
 10
-4.4301
 20
-36.8918
 10
-3.2778
 20
-39.8459
 10
-7.4446
 20
-39.8459
 10
-7.432166680145265
 20
-39.2185421730042
 10
-7.41257572631836
 20
-38.59228054809572
 10
-7.385840647125241
 20
-37.96727353439327
 10
-7.351974951171871
 20
-37.34367954101555
 10
-7.3109921470642
 20
-36.72165697708117
 10
-7.262905743408197
 20
-36.10136425170892
 10
-7.207729248809812
 20
-35.4829597740173
 10
-7.145476171874991
 20
-34.86660195312493
 10
-7.076160021209703
 20
-34.25244919815052
 10
-6.999794305419913
 20
-33.64065991821283
 10
-6.91639253311157
 20
-33.03139252243041
 10
-6.825968212890616
 20
-32.42480541992183
 10
-6.728534853363021
 20
-31.82105701980581
 10
-6.624105963134756
 20
-31.22030573120112
 10
-6.512695050811767
 20
-30.62270996322631
 10
-6.394315624999991
 20
-30.02842812499996
 10
-6.268981194305401
 20
-29.43761862564079
 10
-6.136705267333974
 20
-28.85043987426754
 10
-5.997501352691652
 20
-28.26705027999879
 10
-5.851382958984366
 20
-27.68760825195309
 10
-5.698363594818094
 20
-27.11227219924919
 10
-5.53845676879882
 20
-26.54120053100583
 10
-5.371675989532477
 20
-25.97455165634157
 10
-5.198034765624994
 20
-25.41248398437498
 10
-5.017546605682353
 20
-24.8551559242248
 10
-4.924739146137238
 20
-24.57831875143052
 10
-4.830225018310541
 20
-24.30272588500975
 10
-4.734005910778033
 20
-24.02839712610241
 10
-4.636083512115487
 20
-23.75535227584841
 10
-4.536459510898593
 20
-23.48361113538743
 10
-4.43513559570312
 20
-23.21319350585936
 10
-4.332113455104816
 20
-22.94411918840405
 10
-4.227394777679425
 20
-22.67640798416133
 10
-4.120981252002721
 20
-22.4100796942711
 10
-4.012874566650388
 20
-22.14515411987304
 10
-3.903076410198203
 20
-21.88165106210706
 10
-3.79158847122194
 20
-21.61959032211308
 10
-3.67841243829728
 20
-21.35899170103075
 10
-3.56355
 20
-21.099875
 10
-3.447002844905844
 20
-20.84226002016065
 10
-3.328772661590559
 20
-20.58616656265255
 10
-3.208861138629924
 20
-20.33161442861559
 10
-3.087269964599611
 20
-20.07862341918946
 10
-2.964000828075403
 20
-19.82721333551406
 10
-2.839055417633078
 20
-19.57740397872929
 10
-2.71243542184831
 20
-19.32921514997485
 10
-2.584142529296879
 20
-19.08266665039064
 10
-2.454178428554529
 20
-18.83777828111647
 10
-2.322544808197008
 20
-18.59456984329221
 10
-2.189243356800095
 20
-18.35306113805773
 10
-2.054275762939461
 20
-18.11327196655275
 10
-1.917643715190885
 20
-17.87522212991714
 10
-1.779348902130156
 20
-17.63893142929082
 10
-1.639393012332936
 20
-17.40441966581348
 10
-1.49777773437501
 20
-17.17170664062501
 10
-1.354504756832124
 20
-16.94081215486527
 10
-1.20957576828002
 20
-16.71175600967406
 10
-1.062992457294487
 20
-16.48455800619129
 10
-0.9147565124511856
 20
-16.25923794555666
 10
-0.764869622325901
 20
-16.03581562891007
 10
-0.6133334754944224
 20
-15.81431085739141
 10
-0.4601497605324081
 20
-15.59474343214039
 10
-0.305320166015643
 20
-15.3771331542969
 10
-0.1488463805198732
 20
-15.16149982500077
 10
0.0092699073791551
 20
-14.94786324539184
 10
0.1690270091056501
 20
-14.73624321661
 10
0.3304232360839632
 20
-14.52665953979495
 10
0.493456899738301
 20
-14.31913201608659
 10
0.6581263114928713
 20
-14.11368044662482
 10
0.8244297827720277
 20
-13.91032463254933
 10
0.9923656249999746
 20
-13.70908437500003
 10
1.161932149600968
 20
-13.50997947511674
 10
1.333127667999264
 20
-13.31302973403931
 10
1.505950491619068
 20
-13.11825495290761
 10
1.680398931884736
 20
-12.92567493286136
 10
1.856471300220471
 20
-12.73530947504045
 10
2.034165908050478
 20
-12.54717838058478
 10
2.213481066799118
 20
-12.36130145063405
 10
2.39441508789059
 20
-12.17769848632816
 10
2.576966282749154
 20
-11.99638928880693
 10
2.761132962799063
 20
-11.81739365921021
 10
2.946913439464518
 20
-11.64073139867787
 10
3.134306024169883
 20
-11.46642230834964
 10
3.323309028339359
 20
-11.29448618936541
 10
3.513920763397146
 20
-11.12494284286505
 10
3.706139540767613
 20
-10.9578120699883
 10
3.899963671874955
 20
-10.79311367187504
 10
4.095391468143433
 20
-10.63086744966509
 10
4.292421240997298
 20
-10.4710932044983
 10
4.491051301860747
 20
-10.31381073751454
 10
4.691279962158152
 20
-10.15903984985355
 10
4.893105533313716
 20
-10.00680034265521
 10
5.096526326751626
 20
-9.857112017059387
 10
5.301540653896263
 20
-9.709994674205827
 10
5.508146826171821
 20
-9.565468115234411
 10
5.716343155002553
 20
-9.423552141284966
 10
5.926127951812719
 20
-9.284266553497332
 10
6.13749952802657
 20
-9.147631153011328
 10
6.350456195068362
 20
-9.013665740966793
 10
6.564996264362353
 20
-8.882390118503556
 10
6.781118047332798
 20
-8.753824086761451
 10
6.998819855403884
 20
-8.627987446880348
 10
7.218099999999999
 20
-8.504899999999999
 10
7.437413257607857
 20
-8.627987446749656
 10
7.655148811266204
 20
-8.753824086494338
 10
7.871305019034048
 20
-8.88239011809431
 10
8.085880238970286
 20
-9.013665740409782
 10
8.298872829133818
 20
-9.147631152300974
 10
8.510281147583647
 20
-9.284266552628144
 10
8.720103552378677
 20
-9.42355214025151
 10
8.928338401577805
 20
-9.565468114031283
 10
9.134984053240037
 20
-9.709994672827736
 10
9.340038865424268
 20
-9.857112015501073
 10
9.543501196189408
 20
-10.00680034091151
 10
9.745369403594443
 20
-10.15903984791931
 10
9.945641845698293
 20
-10.3138107353847
 10
10.14431688055985
 20
-10.47109320216787
 10
10.34139286623811
 20
-10.63086744712911
 10
10.53686816079199
 20
-10.79311366912863
 10
10.73074112228038
 20
-10.95781206702662
 10
10.92301010876226
 20
-11.12494283968336
 10
11.11367347829659
 20
-11.29448618595908
 10
11.30272958894222
 20
-11.46642230471397
 10
11.49017679875816
 20
-11.6407313948083
 10
11.67601346580333
 20
-11.8173936551023
 10
11.86023794813661
 20
-11.99638928445616
 10
12.04284860381701
 20
-12.17769848173016
 10
12.22384379090343
 20
-12.36130144578451
 10
12.40322186745478
 20
-12.54717837547942
 10
12.58098119153005
 20
-12.73530946967517
 10
12.75712012118815
 20
-12.92567492723196
 10
12.93163701448798
 20
-13.11825494700999
 10
13.10453022948852
 20
-13.31302972786956
 10
13.27579812424871
 20
-13.50997946867086
 10
13.44543905682742
 20
-13.7090843682741
 10
13.61345138528364
 20
-13.91032462553953
 10
13.77983346767631
 20
-14.11368043932742
 10
13.94458366206436
 20
-14.31913200849798
 10
14.10770032650668
 20
-14.52665953191138
 10
14.26918181906226
 20
-14.73624320842794
 10
14.42902649779002
 20
-14.94786323690786
 10
14.58723272074885
 20
-15.16149981621132
 10
14.74379884599775
 20
-15.37713314519862
 10
14.89872323159563
 20
-15.59474342272997
 10
15.05200423560139
 20
-15.81431084766556
 10
15.20364021607402
 20
-16.03581561886569
 10
15.35362953107244
 20
-16.25923793519055
 10
15.50197053865554
 20
-16.48455799550035
 10
15.64866159688231
 20
-16.71175599865538
 10
15.79370106381167
 20
-16.94081214351584
 10
15.93708729750252
 20
-17.17170662894192
 10
16.07881865601383
 20
-17.40441965379389
 10
16.21889349740454
 20
-17.63893141693202
 10
16.35731017973358
 20
-17.8752221172165
 10
16.49406706105985
 20
-18.11327195350752
 10
16.62916249944233
 20
-18.35306112466539
 10
16.76259485293994
 20
-18.59456982955032
 10
16.89436247961159
 20
-18.83777826702248
 10
17.02446373751625
 20
-19.08266663594218
 10
17.15289698471285
 20
-19.32921513516961
 10
17.27966057926028
 20
-19.57740396356498
 10
17.40475287921754
 20
-19.82721331998858
 10
17.52817224264352
 20
-20.07862340330061
 10
17.64991702759717
 20
-20.33161441236127
 10
17.76998559213742
 20
-20.58616654603085
 10
17.88837629432322
 20
-20.84226000316956
 10
18.00508749221347
 20
-21.09987498263757
 10
18.12011754386712
 20
-21.35899168329517
 10
18.23346480734314
 20
-21.61959030400263
 10
18.34512764070043
 20
-21.88165104362013
 10
18.45510440199791
 20
-22.14515410100786
 10
18.56339344929456
 20
-22.41007967502615
 10
18.66999314064928
 20
-22.67640796453517
 10
18.774901834121
 20
-22.94411916839512
 10
18.87811788776869
 20
-23.2131934854663
 10
18.97963965965126
 20
-23.48361111460892
 10
19.07946550782763
 20
-23.75535225468316
 10
19.17759379035677
 20
-24.02839710454932
 10
19.2740228652976
 20
-24.30272586306761
 10
19.36875109070904
 20
-24.57831872909822
 10
19.46177682465004
 20
-24.85515590150145
 10
19.64271425035645
 20
-25.41248396086654
 10
19.81682200688831
 20
-25.97455163204478
 10
19.98408695871707
 20
-26.54120050591794
 10
20.14449597031423
 20
-27.11227217336788
 10
20.29803590615127
 20
-27.68760822527653
 10
20.44469363069965
 20
-28.26705025252562
 10
20.58445600843085
 20
-28.85043984599704
 10
20.71730990381637
 20
-29.4376185965727
 10
20.84324218132766
 20
-30.02842809513436
 10
20.9622397054362
 20
-30.62270993256388
 10
21.07428934061348
 20
-31.22030569974318
 10
21.17937795133097
 20
-31.82105698755401
 10
21.27749240206014
 20
-32.42480538687825
 10
21.36861955727249
 20
-33.03139248859781
 10
21.45274628143947
 20
-33.64065988359443
 10
21.52985943903256
 20
-34.25244916275002
 10
21.59994589452326
 20
-34.86660191694645
 10
21.66299251238302
 20
-35.4829597370655
 10
21.71898615708334
 20
-36.10136421398904
 10
21.76791369309568
 20
-36.72165693859897
 10
21.80976198489152
 20
-37.34367950177705
 10
21.84451789694234
 20
-37.96727349440516
 10
21.87216829371961
 20
-38.59228050736521
 10
21.89270003969482
 20
-39.21854213153896
  0
LWPOLYLINE
  5
46
330
B89
100
AcDbEntity
  8
LAYER_1
100
AcDbPolyline
 90
      452
 70
     1
 43
0.0
 10
-17.56060000032666
 20
-39.84589997890413
 10
-21.7521
 20
-39.8459
 10
-20.6182
 20
-36.8918
 10
-25.7567
 20
-36.8918
 10
-23.0227
 20
-31.7011
 10
-22.9724296295166
 20
-31.5976483795166
 10
-22.93049797363281
 20
-31.49509172363281
 10
-22.89681796569824
 20
-31.39358671569824
 10
-22.8713025390625
 20
-31.2932900390625
 10
-22.85386462707519
 20
-31.1943583770752
 10
-22.84441716308594
 20
-31.09694841308594
 10
-22.84287308044433
 20
-31.00121683044433
 10
-22.8491453125
 20
-30.9073203125
 10
-22.86314679260254
 20
-30.81541554260254
 10
-22.88479045410156
 20
-30.72565920410156
 10
-22.91398923034668
 20
-30.63820798034668
 10
-22.9506560546875
 20
-30.5532185546875
 10
-22.99470386047363
 20
-30.47084761047363
 10
-23.04604558105469
 20
-30.39125183105469
 10
-23.10459414978028
 20
-30.31458789978027
 10
-23.1702625
 20
-30.2410125
 10
-23.24296356506348
 20
-30.17068231506348
 10
-23.32261027832031
 20
-30.10375402832031
 10
-23.40911557312012
 20
-30.04038432312012
 10
-23.5023923828125
 20
-29.9807298828125
 10
-23.60235364074707
 20
-29.92494739074707
 10
-23.70891228027344
 20
-29.87319353027345
 10
-23.82198123474122
 20
-29.82562498474121
 10
-23.9414734375
 20
-29.7823984375
 10
-24.06730182189943
 20
-29.74367057189941
 10
-24.19937932128907
 20
-29.70959807128906
 10
-24.33761886901856
 20
-29.68033761901856
 10
-24.4819333984375
 20
-29.6560458984375
 10
-24.63223584289551
 20
-29.63687959289551
 10
-24.78843913574219
 20
-29.6229953857422
 10
-24.95045621032715
 20
-29.61454996032715
 10
-25.1182
 20
-29.6117
 10
-29.6499
 20
-29.6117
 10
-27.0242
 20
-23.6983
 10
-27.01299377403259
 20
-23.63759543533325
 10
-27.00481698913574
 20
-23.57927520141601
 10
-26.9995965473175
 20
-23.5232919883728
 10
-26.99725935058594
 20
-23.46959848632812
 10
-26.99773230094911
 20
-23.41814738540649
 10
-27.00094230041504
 20
-23.36889137573242
 10
-27.00681625099182
 20
-23.32178314743042
 10
-27.0152810546875
 20
-23.27677539062499
 10
-27.02626361351013
 20
-23.23382079544067
 10
-27.03969082946777
 20
-23.19287205200195
 10
-27.05548960456849
 20
-23.15388185043335
 10
-27.07358684082032
 20
-23.11680288085937
 10
-27.09390944023133
 20
-23.08158783340454
 10
-27.11638430480957
 20
-23.04818939819336
 10
-27.14093833656311
 20
-23.01656026535034
 10
-27.1674984375
 20
-22.986653125
 10
-27.1959915096283
 20
-22.95842066726685
 10
-27.22634445495606
 20
-22.93181558227539
 10
-27.25848417549134
 20
-22.90679056015015
 10
-27.2923375732422
 20
-22.88329829101563
 10
-27.32783155021668
 20
-22.86129146499634
 10
-27.36489300842285
 20
-22.84072277221679
 10
-27.4434259765625
 20
-22.803710546875
 10
-27.52735169372559
 20
-22.77188313598633
 10
-27.61608537597656
 20
-22.74486206054688
 10
-27.70904223937988
 20
-22.72226884155273
 10
-27.8056375
 20
-22.703725
 10
-27.90528637390137
 20
-22.68885205688477
 10
-28.00740407714844
 20
-22.67727153320313
 10
-28.11140582580567
 20
-22.66860494995117
 10
-28.2167068359375
 20
-22.662473828125
 10
-28.42886750488281
 20
-22.65630405273437
 10
-28.6392078125
 20
-22.655734375
 10
-29.0357142578125
 20
-22.659283984375
 10
-29.21252385253906
 20
-22.65734760742188
 10
-29.29352099914551
 20
-22.65412694702148
 10
-29.3688
 20
-22.6489
 10
-29.35712156906128
 20
-22.56892675971986
 10
-29.34768456420899
 20
-22.48806466369628
 10
-29.34046766738891
 20
-22.40637202415466
 10
-29.33544956054687
 20
-22.32390715332031
 10
-29.33260892562866
 20
-22.24072836341858
 10
-29.33192444458008
 20
-22.1568939666748
 10
-29.33337479934693
 20
-22.07246227531433
 10
-29.336938671875
 20
-21.9874916015625
 10
-29.34259474411011
 20
-21.90204025764465
 10
-29.35032169799805
 20
-21.81616655578613
 10
-29.37190297851563
 20
-21.64338532714843
 10
-29.40151196899414
 20
-21.46961441345215
 10
-29.438978125
 20
-21.2953203125
 10
-29.48413090209961
 20
-21.12096952209473
 10
-29.53679975585938
 20
-20.94702854003906
 10
-29.59681414184571
 20
-20.77396386413574
 10
-29.664003515625
 20
-20.6022419921875
 10
-29.73819733276367
 20
-20.43232942199707
 10
-29.81922504882812
 20
-20.26469265136719
 10
-29.90691611938477
 20
-20.09979817810059
 10
-30.0011
 20
-19.9381125
 10
-30.10160614624023
 20
-19.78010211486816
 10
-30.20826401367187
 20
-19.62623352050781
 10
-30.32090305786133
 20
-19.47697321472168
 10
-30.439352734375
 20
-19.3327876953125
 10
-30.56344249877929
 20
-19.19414346008301
 10
-30.62754911880493
 20
-19.12704510459901
 10
-30.69300180664062
 20
-19.06150700683594
 10
-30.75977924423217
 20
-18.99758747901917
 10
-30.82786011352539
 20
-18.93534483337403
 10
-30.89722309646606
 20
-18.87483738212585
 10
-30.967846875
 20
-18.8161234375
 10
-31.039710131073
 20
-18.7592613117218
 10
-31.11279154663086
 20
-18.7043093170166
 10
-31.18706980361939
 20
-18.65132576560974
 10
-31.26252358398438
 20
-18.60036896972655
 10
-31.33913156967163
 20
-18.5514972415924
 10
-31.41687244262696
 20
-18.50476889343261
 10
-31.49572488479615
 20
-18.46024223747253
 10
-31.575667578125
 20
-18.4179755859375
 10
-31.65667920455933
 20
-18.37802725105285
 10
-31.73873844604493
 20
-18.34045554504394
 10
-31.82182398452759
 20
-18.3053187801361
 10
-31.90591450195312
 20
-18.27267526855469
 10
-31.99098868026734
 20
-18.24258332252502
 10
-32.07702520141602
 20
-18.21510125427246
 10
-32.16400274734497
 20
-18.19028737602234
 10
-32.2519
 20
-18.1682
 10
-32.33918281364441
 20
-18.19028737602234
 10
-32.42557325134278
 20
-18.21510125427246
 10
-32.51104993324279
 20
-18.24258332252502
 10
-32.59559147949219
 20
-18.27267526855469
 10
-32.67917651023865
 20
-18.3053187801361
 10
-32.76178364562988
 20
-18.34045554504394
 10
-32.84339150581359
 20
-18.37802725105285
 10
-32.9239787109375
 20
-18.4179755859375
 10
-33.00352388114929
 20
-18.46024223747253
 10
-33.08200563659668
 20
-18.50476889343261
 10
-33.15940259742737
 20
-18.5514972415924
 10
-33.23569338378906
 20
-18.60036896972655
 10
-33.31085661582946
 20
-18.65132576560974
 10
-33.38487091369628
 20
-18.7043093170166
 10
-33.45771489753723
 20
-18.7592613117218
 10
-33.5293671875
 20
-18.8161234375
 10
-33.59980640373229
 20
-18.87483738212585
 10
-33.66901116638184
 20
-18.93534483337402
 10
-33.73696009559632
 20
-18.99758747901917
 10
-33.80363181152345
 20
-19.06150700683594
 10
-33.86900493431092
 20
-19.127045104599
 10
-33.93305808410645
 20
-19.19414346008301
 10
-34.05711894531251
 20
-19.3327876953125
 10
-34.17564335632324
 20
-19.47697321472168
 10
-34.28846027832031
 20
-19.62623352050781
 10
-34.39539867248535
 20
-19.78010211486816
 10
-34.4962875
 20
-19.9381125
 10
-34.5909557220459
 20
-20.09979817810058
 10
-34.6792322998047
 20
-20.26469265136718
 10
-34.76094619445802
 20
-20.43232942199706
 10
-34.8359263671875
 20
-20.6022419921875
 10
-34.90400177917481
 20
-20.77396386413575
 10
-34.96500139160156
 20
-20.94702854003906
 10
-35.01875416564943
 20
-21.12096952209473
 10
-35.0650890625
 20
-21.2953203125
 10
-35.10383504333497
 20
-21.46961441345215
 10
-35.13482106933594
 20
-21.64338532714844
 10
-35.15787610168456
 20
-21.81616655578613
 10
-35.16637604560852
 20
-21.90204025764465
 10
-35.1728291015625
 20
-21.9874916015625
 10
-35.17721388969422
 20
-22.07246227531433
 10
-35.17950903015137
 20
-22.1568939666748
 10
-35.17969314308167
 20
-22.24072836341858
 10
-35.17774484863282
 20
-22.32390715332031
 10
-35.17364276695252
 20
-22.40637202415466
 10
-35.16736551818848
 20
-22.48806466369628
 10
-35.15889172248841
 20
-22.56892675971986
 10
-35.1482
 20
-22.6489
 10
-35.223293548584
 20
-22.65412694702148
 10
-35.30396870117189
 20
-22.65734760742188
 10
-35.479780859375
 20
-22.659283984375
 10
-35.87327187500001
 20
-22.655734375
 10
-36.08181889648439
 20
-22.65630405273437
 10
-36.292145703125
 20
-22.662473828125
 10
-36.39654967651367
 20
-22.66860494995117
 10
-36.49968637695314
 20
-22.67727153320313
 10
-36.60098506469726
 20
-22.68885205688477
 10
-36.699875
 20
-22.703725
 10
-36.79578544311524
 20
-22.72226884155273
 10
-36.88814565429686
 20
-22.74486206054687
 10
-36.97638489379883
 20
-22.77188313598633
 10
-37.059932421875
 20
-22.803710546875
 10
-37.13821749877929
 20
-22.84072277221679
 10
-37.17520826187133
 20
-22.86129146499634
 10
-37.21066938476562
 20
-22.88329829101562
 10
-37.24452952499389
 20
-22.90679056015015
 10
-37.27671734008789
 20
-22.93181558227539
 10
-37.30716148757935
 20
-22.95842066726684
 10
-37.33579062499999
 20
-22.986653125
 10
-37.36253340988159
 20
-23.01656026535034
 10
-37.38731849975586
 20
-23.04818939819336
 10
-37.41007455215453
 20
-23.08158783340454
 10
-37.43073022460939
 20
-23.11680288085937
 10
-37.4492141746521
 20
-23.15388185043335
 10
-37.46545505981445
 20
-23.19287205200195
 10
-37.47938153762817
 20
-23.23382079544067
 10
-37.490922265625
 20
-23.27677539062499
 10
-37.50000590133667
 20
-23.32178314743042
 10
-37.50656110229492
 20
-23.36889137573241
 10
-37.5105165260315
 20
-23.41814738540648
 10
-37.51180083007812
 20
-23.46959848632812
 10
-37.51034267196655
 20
-23.5232919883728
 10
-37.50607070922852
 20
-23.57927520141602
 10
-37.49891359939575
 20
-23.63759543533326
 10
-37.4888
 20
-23.6983
 10
-34.8697
 20
-29.6117
 10
-39.3735
 20
-29.6117
 10
-39.54370761413576
 20
-29.61454996032715
 10
-39.70787653808593
 20
-29.6229953857422
 10
-39.86593526916504
 20
-29.63687959289551
 10
-40.0178123046875
 20
-29.6560458984375
 10
-40.16343614196776
 20
-29.68033761901855
 10
-40.30273527832031
 20
-29.70959807128906
 10
-40.43563821105956
 20
-29.74367057189941
 10
-40.56207343749999
 20
-29.7823984375
 10
-40.68196945495604
 20
-29.82562498474121
 10
-40.79525476074217
 20
-29.87319353027345
 10
-40.90185785217285
 20
-29.92494739074707
 10
-41.00170722656248
 20
-29.9807298828125
 10
-41.09473138122558
 20
-30.04038432312012
 10
-41.18085881347655
 20
-30.10375402832031
 10
-41.26001802062988
 20
-30.17068231506347
 10
-41.33213749999998
 20
-30.2410125
 10
-41.39714574890136
 20
-30.31458789978027
 10
-41.45497126464843
 20
-30.39125183105468
 10
-41.50554254455565
 20
-30.47084761047363
 10
-41.5487880859375
 20
-30.5532185546875
 10
-41.58463638610839
 20
-30.63820798034667
 10
-41.6130159423828
 20
-30.72565920410156
 10
-41.63385525207519
 20
-30.81541554260253
 10
-41.6470828125
 20
-30.90732031249999
 10
-41.65262712097168
 20
-31.00121683044433
 10
-41.65041667480468
 20
-31.09694841308593
 10
-41.64037997131347
 20
-31.19435837707519
 10
-41.6224455078125
 20
-31.29329003906249
 10
-41.59654178161621
 20
-31.39358671569823
 10
-41.56259729003907
 20
-31.49509172363281
 10
-41.52054053039551
 20
-31.5976483795166
 10
-41.47029999999999
 20
-31.7011
 10
-38.7311
 20
-36.8918
 10
-43.876
 20
-36.8918
 10
-42.7239
 20
-39.8459
 10
-46.9328
 20
-39.8459
 10
-46.91956589279175
 20
-39.2185421730042
 10
-46.89919432983397
 20
-38.59228054809572
 10
-46.87169863662719
 20
-37.96727353439327
 10
-46.83709213867186
 20
-37.34367954101555
 10
-46.79538816146849
 20
-36.72165697708117
 10
-46.74660003051757
 20
-36.10136425170892
 10
-46.69074107131957
 20
-35.4829597740173
 10
-46.62782460937499
 20
-34.86660195312493
 10
-46.55786397018431
 20
-34.25244919815052
 10
-46.48087247924802
 20
-33.64065991821283
 10
-46.39686346206665
 20
-33.03139252243041
 10
-46.3058502441406
 20
-32.42480541992183
 10
-46.20784615097043
 20
-31.82105701980581
 10
-46.10286450805663
 20
-31.22030573120112
 10
-45.99091864089966
 20
-30.62270996322631
 10
-45.87202187499999
 20
-30.02842812499996
 10
-45.74618753585815
 20
-29.43761862564079
 10
-45.61342894897459
 20
-28.85043987426754
 10
-45.47375943984986
 20
-28.26705027999879
 10
-45.32719233398436
 20
-27.68760825195309
 10
-45.17374095687865
 20
-27.11227219924919
 10
-45.01341863403318
 20
-26.54120053100583
 10
-44.84623869094849
 20
-25.97455165634157
 10
-44.67221445312499
 20
-25.41248398437498
 10
-44.49135924606321
 20
-24.8551559242248
 10
-44.39837419328689
 20
-24.57831875143052
 10
-44.30368639526367
 20
-24.30272588500975
 10
-44.20729751768111
 20
-24.02839712610241
 10
-44.10920922622682
 20
-23.75535227584841
 10
-44.00942318658828
 20
-23.48361113538743
 10
-43.90794106445313
 20
-23.21319350585936
 10
-43.80476452550887
 20
-22.94411918840405
 10
-43.69989523544311
 20
-22.67640798416133
 10
-43.5933348599434
 20
-22.4100796942711
 10
-43.48508506469727
 20
-22.14515411987304
 10
-43.37514751539228
 20
-21.88165106210706
 10
-43.26352387771607
 20
-21.61959032211308
 10
-43.15021581735612
 20
-21.35899170103075
 10
-43.03522499999999
 20
-21.099875
 10
-42.91855309133529
 20
-20.84226002016065
 10
-42.80020175704954
 20
-20.58616656265255
 10
-42.68017266283036
 20
-20.33161442861559
 10
-42.55846747436524
 20
-20.07862341918946
 10
-42.43508785734175
 20
-19.82721333551406
 10
-42.31003547744753
 20
-19.57740397872929
 10
-42.18331200037003
 20
-19.32921514997485
 10
-42.05491909179688
 20
-19.08266665039064
 10
-41.9248584174156
 20
-18.83777828111647
 10
-41.79313164291381
 20
-18.59456984329221
 10
-41.65974043397905
 20
-18.35306113805773
 10
-41.52468645629884
 20
-18.11327196655275
 10
-41.38797137556075
 20
-17.87522212991714
 10
-41.24959685745242
 20
-17.63893142929082
 10
-41.10956456766131
 20
-17.40441966581348
 10
-40.96787617187501
 20
-17.17170664062501
 10
-40.82453333578111
 20
-16.94081215486527
 10
-40.67953772506713
 20
-16.71175600967406
 10
-40.53289100542071
 20
-16.48455800619129
 10
-40.38459484252931
 20
-16.25923794555666
 10
-40.23465090208054
 20
-16.03581562891007
 10
-40.083060849762
 20
-15.81431085739141
 10
-39.92982635126117
 20
-15.59474343214039
 10
-39.77494907226565
 20
-15.3771331542969
 10
-39.61843067846299
 20
-15.16149982500077
 10
-39.46027283554076
 20
-14.94786324539184
 10
-39.30047720918658
 20
-14.73624321661
 10
-39.13904546508791
 20
-14.52665953979495
 10
-38.97597926893237
 20
-14.31913201608659
 10
-38.81128028640752
 20
-14.11368044662482
 10
-38.64495018320088
 20
-13.91032463254933
 10
-38.47699062500004
 20
-13.70908437500003
 10
-38.30740327749254
 20
-13.50997947511674
 10
-38.13618980636597
 20
-13.31302973403931
 10
-37.96335187730793
 20
-13.11825495290761
 10
-37.7888911560059
 20
-12.92567493286136
 10
-37.61280930814745
 20
-12.73530947504045
 10
-37.43510799942022
 20
-12.54717838058478
 10
-37.25578889551167
 20
-12.36130145063405
 10
-37.0748536621094
 20
-12.17769848632816
 10
-36.892303964901
 20
-11.99638928880693
 10
-36.70814146957397
 20
-11.81739365921021
 10
-36.522367841816
 20
-11.64073139867787
 10
-36.3349847473145
 20
-11.46642230834964
 10
-36.14599385175708
 20
-11.29448618936541
 10
-35.95539682083137
 20
-11.12494284286505
 10
-35.76319532022482
 20
-10.9578120699883
 10
-35.56939101562504
 20
-10.79311367187504
 10
-35.37398557271961
 20
-10.63086744966509
 10
-35.17698065719606
 20
-10.4710932044983
 10
-34.97837793474203
 20
-10.31381073751454
 10
-34.77817907104497
 20
-10.15903984985355
 10
-34.57638573179248
 20
-10.00680034265521
 10
-34.3729995826722
 20
-9.857112017059387
 10
-34.16802228937156
 20
-9.709994674205827
 10
-33.96145551757817
 20
-9.565468115234411
 10
-33.75330093297963
 20
-9.423552141284966
 10
-33.54356020126346
 20
-9.284266553497332
 10
-33.33223498811724
 20
-9.147631153011328
 10
-33.11932695922851
 20
-9.013665740966793
 10
-32.90483778028486
 20
-8.882390118503556
 10
-32.68876911697384
 20
-8.753824086761451
 10
-32.47112263498308
 20
-8.627987446880348
 10
-32.2519
 20
-8.504899999999999
 10
-32.0329410433199
 20
-8.627987446749656
 10
-31.81554663131427
 20
-8.753824086494338
 10
-31.59971857672719
 20
-8.88239011809431
 10
-31.38545869230283
 20
-9.013665740409782
 10
-31.17276879078536
 20
-9.147631152300974
 10
-30.96165068491884
 20
-9.284266552628144
 10
-30.75210618744744
 20
-9.42355214025151
 10
-30.54413711111533
 20
-9.565468114031283
 10
-30.33774526866658
 20
-9.709994672827736
 10
-30.13293247284535
 20
-9.857112015501073
 10
-29.92970053639581
 20
-10.00680034091151
 10
-29.72805127206205
 20
-10.15903984791931
 10
-29.52798649258821
 20
-10.3138107353847
 10
-29.32950801071847
 20
-10.47109320216787
 10
-29.1326176391969
 20
-10.63086744712911
 10
-28.93731719076766
 20
-10.79311366912863
 10
-28.74360847817493
 20
-10.95781206702662
 10
-28.55149331416277
 20
-11.12494283968336
 10
-28.36097351147536
 20
-11.29448618595908
 10
-28.17205088285684
 20
-11.46642230471397
 10
-27.98472724105131
 20
-11.6407313948083
 10
-27.79900439880293
 20
-11.8173936551023
 10
-27.61488416885584
 20
-11.99638928445616
 10
-27.43236836395415
 20
-12.17769848173016
 10
-27.25145879684202
 20
-12.36130144578451
 10
-27.07215728026359
 20
-12.54717837547942
 10
-26.89446562696295
 20
-12.73530946967517
 10
-26.71838564968427
 20
-12.92567492723196
 10
-26.5439191611717
 20
-13.11825494700999
 10
-26.37106797416934
 20
-13.31302972786956
 10
-26.19983390142133
 20
-13.50997946867086
 10
-26.03021875567184
 20
-13.7090843682741
 10
-25.86222434966498
 20
-13.91032462553953
 10
-25.69585249614487
 20
-14.11368043932742
 10
-25.53110500785565
 20
-14.31913200849798
 10
-25.36798369754148
 20
-14.52665953191138
 10
-25.20649037794647
 20
-14.73624320842794
 10
-25.04662686181476
 20
-14.94786323690786
 10
-24.8883949618905
 20
-15.16149981621132
 10
-24.73179649091781
 20
-15.37713314519862
 10
-24.57683326164081
 20
-15.59474342272997
 10
-24.42350708680369
 20
-15.81431084766556
 10
-24.27181977915053
 20
-16.03581561886569
 10
-24.12177315142546
 20
-16.25923793519055
 10
-23.97336901637268
 20
-16.48455799550035
 10
-23.82660918673626
 20
-16.71175599865538
 10
-23.68149547526035
 20
-16.94081214351584
 10
-23.53802969468912
 20
-17.17170662894192
 10
-23.39621365776668
 20
-17.40441965379389
 10
-23.25604917723713
 20
-17.63893141693202
 10
-23.11753806584465
 20
-17.8752221172165
 10
-22.98068213633338
 20
-18.11327195350752
 10
-22.84548320144741
 20
-18.35306112466539
 10
-22.71194307393091
 20
-18.59456982955032
 10
-22.58006356652803
 20
-18.83777826702248
 10
-22.44984649198286
 20
-19.08266663594218
 10
-22.32129366303955
 20
-19.32921513516961
 10
-22.19440689244227
 20
-19.57740396356498
 10
-22.06918799293511
 20
-19.82721331998858
 10
-21.94563877726221
 20
-20.07862340330061
 10
-21.82376105816775
 20
-20.33161441236127
 10
-21.70355664839581
 20
-20.58616654603085
 10
-21.58502736069054
 20
-20.84226000316956
 10
-21.4681750077961
 20
-21.09987498263757
 10
-21.35300140245661
 20
-21.35899168329517
 10
-21.23950835741618
 20
-21.61959030400263
 10
-21.12769768541897
 20
-21.88165104362013
 10
-21.01757119920913
 20
-22.14515410100786
 10
-20.90913071153076
 20
-22.41007967502615
 10
-20.802378035128
 20
-22.67640796453517
 10
-20.69731498274503
 20
-22.94411916839512
 10
-20.59394336712592
 20
-23.2131934854663
 10
-20.49226500101484
 20
-23.48361111460892
 10
-20.39228169715594
 20
-23.75535225468316
 10
-20.29399526829332
 20
-24.02839710454932
 10
-20.19740752717113
 20
-24.30272586306761
 10
-20.10252028653352
 20
-24.57831872909822
 10
-20.0093353591246
 20
-24.85515590150145
 10
-19.8280796949694
 20
-25.41248396086654
 10
-19.65365503665862
 20
-25.97455163204478
 10
-19.48607588614534
 20
-26.54120050591794
 10
-19.32535674538265
 20
-27.11227217336788
 10
-19.1715121163236
 20
-27.68760822527653
 10
-19.0245565009213
 20
-28.26705025252562
 10
-18.88450440112882
 20
-28.85043984599704
 10
-18.75137031889923
 20
-29.4376185965727
 10
-18.62516875618562
 20
-30.02842809513436
 10
-18.50591421494107
 20
-30.62270993256388
 10
-18.39362119711864
 20
-31.22030569974318
 10
-18.28830420467143
 20
-31.82105698755401
 10
-18.18997773955252
 20
-32.42480538687825
 10
-18.09865630371498
 20
-33.03139248859781
 10
-18.01435439911189
 20
-33.64065988359443
 10
-17.93708652769634
 20
-34.25244916275002
 10
-17.86686719142138
 20
-34.86660191694645
 10
-17.80371089224013
 20
-35.4829597370655
 10
-17.74763213210564
 20
-36.10136421398904
 10
-17.698645412971
 20
-36.72165693859897
 10
-17.65676523678928
 20
-37.34367950177705
 10
-17.62200610551358
 20
-37.96727349440516
 10
-17.59438252109697
 20
-38.59228050736521
 10
-17.57390898549252
 20
-39.21854213153896
  0
LWPOLYLINE
  5
47
330
B89
100
AcDbEntity
  8
LAYER_1
100
AcDbPolyline
 90
       89
 70
     1
 43
0.0
 10
-51.8681
 20
-32.1981
 10
-51.8681
 20
-5.775
 10
-34.9536
 20
-5.775
 10
-34.9536
 20
-6.8146
 10
-35.263874208498
 20
-7.031310995197284
 10
-35.56954618263244
 20
-7.247839157867424
 10
-35.870654789114
 20
-7.464181941127777
 10
-36.16723889465331
 20
-7.680336798095692
 10
-36.45933736596107
 20
-7.896301181888575
 10
-36.74698906974793
 20
-8.112072545623778
 10
-37.03023287272451
 20
-8.327648342418658
 10
-37.30910764160157
 20
-8.543026025390618
 10
-37.58365224308967
 20
-8.758203047657012
 10
-37.85390554389952
 20
-8.973176862335193
 10
-38.11990641074181
 20
-9.187944922542568
 10
-38.38169371032714
 20
-9.402504681396484
 10
-38.63930630936621
 20
-9.616853592014301
 10
-38.8927830745697
 20
-9.830989107513424
 10
-39.14216287264824
 20
-10.0449086810112
 10
-39.38748457031249
 20
-10.25860976562499
 10
-39.62878703427314
 20
-10.4720898144722
 10
-39.86610913124085
 20
-10.68534628067017
 10
-40.09948972792623
 20
-10.89837661733626
 10
-40.32896769104002
 20
-11.11117827758789
 10
-40.55458188729285
 20
-11.32374871454239
 10
-40.77637118339538
 20
-11.53608538131713
 10
-40.99437444605827
 20
-11.74818573102951
 10
-41.20863054199218
 20
-11.96004721679688
 10
-41.41917833790778
 20
-12.17166729173659
 10
-41.62605670051574
 20
-12.38304340896606
 10
-41.82930449652672
 20
-12.59417302160263
 10
-42.02896059265135
 20
-12.80505358276366
 10
-42.22506385560035
 20
-13.01568254556655
 10
-42.41765315208435
 20
-13.22605736312866
 10
-42.606767348814
 20
-13.43617548856734
 10
-42.79244531249999
 20
-13.646034375
 10
-42.97472590985299
 20
-13.85563147554398
 10
-43.1536480075836
 20
-14.06496424331664
 10
-43.32925047240257
 20
-14.27403013143539
 10
-43.5015721710205
 20
-14.48282659301758
 10
-43.67065197014808
 20
-14.69135108118056
 10
-43.83652873649597
 20
-14.89960104904175
 10
-43.99924133677482
 20
-15.10757394971848
 10
-44.15882863769531
 20
-15.31526723632812
 10
-44.31532950596809
 20
-15.52267836198807
 10
-44.46878280830384
 20
-15.72980477981568
 10
-44.61922741141318
 20
-15.93664394292831
 10
-44.76670218200684
 20
-16.14319330444336
 10
-44.91124598679543
 20
-16.34945031747819
 10
-45.05289769248961
 20
-16.55541243515014
 10
-45.1916961658001
 20
-16.76107711057663
 10
-45.3276802734375
 20
-16.966441796875
 10
-45.4608888821125
 20
-17.17150394716262
 10
-45.59136085853578
 20
-17.37626101455688
 10
-45.71913506941796
 20
-17.58071045217514
 10
-45.84425038146972
 20
-17.78484971313476
 10
-45.96674566140174
 20
-17.98867625055313
 10
-46.08665977592468
 20
-18.19218751754761
 10
-46.20403159174919
 20
-18.39538096723556
 10
-46.31889997558594
 20
-18.59825405273437
 10
-46.54128191413878
 20
-19.00302894363402
 10
-46.75411652526856
 20
-19.40649181518555
 10
-46.95771474266051
 20
-19.80862229232788
 10
-47.1523875
 20
-20.20939999999999
 10
-47.33844573097228
 20
-20.60880456314087
 10
-47.51620036926268
 20
-21.00681560668945
 10
-47.68596234855652
 20
-21.40341275558471
 10
-47.84804260253907
 20
-21.79857563476563
 10
-48.00275206489563
 20
-22.19228386917114
 10
-48.15040166931152
 20
-22.58451708374023
 10
-48.29130234947204
 20
-22.97525490341187
 10
-48.4257650390625
 20
-23.364476953125
 10
-48.55410067176819
 20
-23.7521628578186
 10
-48.67662018127442
 20
-24.13829224243164
 10
-48.79363450126648
 20
-24.52284473190307
 10
-48.90545456542969
 20
-24.90579995117187
 10
-49.01239130744934
 20
-25.28713752517701
 10
-49.11475566101074
 20
-25.66683707885742
 10
-49.21285855979919
 20
-26.04487823715209
 10
-49.3070109375
 20
-26.421240625
 10
-49.39752372779846
 20
-26.79590386734009
 10
-49.48470786437988
 20
-27.16884758911132
 10
-49.56887428092958
 20
-27.54005141525269
 10
-49.65033391113281
 20
-27.90949497070312
 10
-49.80637654724121
 20
-28.64301976928711
 10
-49.9553232421875
 20
-29.36925898437499
 10
-50.24187868652344
 20
-30.79922866210938
 10
-50.38446237487793
 20
-31.50263312377929
 10
-50.5299
 20
-32.1981
  0
LWPOLYLINE
  5
48
330
B89
100
AcDbEntity
  8
LAYER_1
100
AcDbPolyline
 90
      175
 70
     1
 43
0.0
 10
44.0049
 20
-5.775
 10
9.923999999999999
 20
-5.775
 10
9.923999999999999
 20
-6.8146
 10
10.23374836850166
 20
-7.031310995197297
 10
10.53891143531799
 20
-7.247839157867429
 10
10.839527861166
 20
-7.464181941127777
 10
11.1356363067627
 20
-7.680336798095704
 10
11.42727543282509
 20
-7.896301181888579
 10
11.71448390007019
 20
-8.112072545623778
 10
11.99730036921501
 20
-8.327648342418672
 10
12.27576350097656
 20
-8.543026025390625
 10
12.54991195607185
 20
-8.758203047657012
 10
12.8197843952179
 20
-8.973176862335208
 10
13.0854194791317
 20
-9.187944922542572
 10
13.34685586853027
 20
-9.402504681396484
 10
13.60413222413063
 20
-9.616853592014313
 10
13.85728720664978
 20
-9.830989107513428
 10
14.10635947680473
 20
-10.0449086810112
 10
14.3513876953125
 20
-10.258609765625
 10
14.59241052289009
 20
-10.4720898144722
 10
14.82946662025452
 20
-10.68534628067017
 10
15.06259464812279
 20
-10.89837661733628
 10
15.29183326721191
 20
-11.11117827758789
 10
15.51722113823891
 20
-11.32374871454239
 10
15.73879692192078
 20
-11.53608538131714
 10
15.95659927897453
 20
-11.74818573102951
 10
16.17066687011719
 20
-11.96004721679688
 10
16.38103835606575
 20
-12.1716672917366
 10
16.58775239753723
 20
-12.38304340896607
 10
16.79084765524864
 20
-12.59417302160263
 10
16.99036278991699
 20
-12.80505358276367
 10
17.18633646225929
 20
-13.01568254556656
 10
17.37880733299255
 20
-13.22605736312866
 10
17.56781406283379
 20
-13.43617548856735
 10
17.7533953125
 20
-13.646034375
 10
17.9355897427082
 20
-13.85563147554398
 10
18.11443601417541
 20
-14.06496424331665
 10
18.28997278761864
 20
-14.2740301314354
 10
18.46223872375488
 20
-14.48282659301758
 10
18.63127248330116
 20
-14.69135108118057
 10
18.79711272697448
 20
-14.89960104904175
 10
18.95979811549186
 20
-15.10757394971847
 10
19.1193673095703
 20
-15.31526723632813
 10
19.27585896992682
 20
-15.52267836198807
 10
19.42931175727844
 20
-15.72980477981567
 10
19.57976433234215
 20
-15.93664394292831
 10
19.72725535583496
 20
-16.14319330444336
 10
19.87182348847389
 20
-16.34945031747818
 10
20.01350739097595
 20
-16.55541243515015
 10
20.15234572405815
 20
-16.76107711057663
 10
20.2883771484375
 20
-16.966441796875
 10
20.42164032483101
 20
-17.17150394716263
 10
20.55217391395569
 20
-17.37626101455689
 10
20.68001657652855
 20
-17.58071045217514
 10
20.8052069732666
 20
-17.78484971313477
 10
20.92778376488686
 20
-17.98867625055313
 10
21.04778561210632
 20
-18.19218751754761
 10
21.16525117564201
 20
-18.39538096723556
 10
21.28021911621094
 20
-18.59825405273438
 10
21.50281677131653
 20
-19.00302894363404
 10
21.71588786315918
 20
-19.40649181518555
 10
21.91974167747498
 20
-19.80862229232788
 10
22.1146875
 20
-20.2094
 10
22.30103461647034
 20
-20.60880456314087
 10
22.47909231262207
 20
-21.00681560668945
 10
22.64916987419128
 20
-21.40341275558472
 10
22.81157658691406
 20
-21.79857563476563
 10
22.96662173652649
 20
-22.19228386917114
 10
23.11461460876465
 20
-22.58451708374023
 10
23.25586448936462
 20
-22.97525490341187
 10
23.3906806640625
 20
-23.364476953125
 10
23.51937241859436
 20
-23.7521628578186
 10
23.64224903869629
 20
-24.13829224243164
 10
23.75961981010437
 20
-24.52284473190308
 10
23.87179401855469
 20
-24.90579995117188
 10
23.97908094978332
 20
-25.287137525177
 10
24.08178988952637
 20
-25.66683707885742
 10
24.1802301235199
 20
-26.0448782371521
 10
24.2747109375
 20
-26.421240625
 10
24.36554161720276
 20
-26.79590386734009
 10
24.45303144836426
 20
-27.16884758911133
 10
24.53748971672057
 20
-27.54005141525268
 10
24.61922570800781
 20
-27.90949497070312
 10
24.77576800231934
 20
-28.64301976928711
 10
24.9251326171875
 20
-29.369258984375
 10
25.21222595214844
 20
-30.79922866210937
 10
25.35490324401855
 20
-31.50263312377929
 10
25.5003
 20
-32.1981
 10
26.9385
 20
-32.1981
 10
28.4005
 20
-32.1981
 10
28.54838154907227
 20
-31.50263312377929
 10
28.69325668945313
 20
-30.79922866210937
 10
28.983958203125
 20
-29.369258984375
 10
29.1347698059082
 20
-28.64301976928711
 10
29.29254545898437
 20
-27.90949497070312
 10
29.37482374649048
 20
-27.54005141525268
 10
29.45977777709961
 20
-27.16884758911133
 10
29.54771912765503
 20
-26.79590386734009
 10
29.638959375
 20
-26.421240625
 10
29.73381009597778
 20
-26.0448782371521
 10
29.83258286743164
 20
-25.66683707885742
 10
29.93558926620484
 20
-25.287137525177
 10
30.04314086914063
 20
-24.90579995117188
 10
30.15554925308228
 20
-24.52284473190308
 10
30.27312599487305
 20
-24.13829224243164
 10
30.3961826713562
 20
-23.7521628578186
 10
30.525030859375
 20
-23.364476953125
 10
30.65998213577271
 20
-22.97525490341187
 10
30.80134807739258
 20
-22.58451708374023
 10
30.94944026107788
 20
-22.19228386917114
 10
31.10457026367187
 20
-21.79857563476563
 10
31.26704966201782
 20
-21.40341275558472
 10
31.43719003295898
 20
-21.00681560668945
 10
31.61530295333863
 20
-20.60880456314087
 10
31.8017
 20
-20.2094
 10
31.99669274978637
 20
-19.80862229232788
 10
32.20059277954102
 20
-19.40649181518555
 10
32.41371166610718
 20
-19.00302894363404
 10
32.63636098632813
 20
-18.59825405273438
 10
32.75135692682266
 20
-18.39538096723556
 10
32.86885231704712
 20
-18.19218751754761
 10
32.9888861041069
 20
-17.98867625055313
 10
33.11149723510742
 20
-17.78484971313477
 10
33.23672465715408
 20
-17.58071045217514
 10
33.3646073173523
 20
-17.37626101455688
 10
33.49518416280746
 20
-17.17150394716263
 10
33.628494140625
 20
-16.966441796875
 10
33.76457619791031
 20
-16.76107711057663
 10
33.9034692817688
 20
-16.55541243515015
 10
34.04521233930588
 20
-16.34945031747818
 10
34.18984431762695
 20
-16.14319330444336
 10
34.33740416383743
 20
-15.93664394292832
 10
34.48793082504272
 20
-15.72980477981567
 10
34.64146324834824
 20
-15.52267836198807
 10
34.79804038085938
 20
-15.31526723632813
 10
34.95770116968155
 20
-15.10757394971847
 10
35.12048456192016
 20
-14.89960104904175
 10
35.28642950468063
 20
-14.69135108118057
 10
35.45557494506836
 20
-14.48282659301758
 10
35.62795983018875
 20
-14.2740301314354
 10
35.80362310714722
 20
-14.06496424331665
 10
35.98260372304916
 20
-13.85563147554397
 10
36.164940625
 20
-13.646034375
 10
36.35067276010513
 20
-13.43617548856735
 10
36.53983907546997
 20
-13.22605736312866
 10
36.73247851819992
 20
-13.01568254556656
 10
36.92863003540039
 20
-12.80505358276367
 10
37.12833257417679
 20
-12.59417302160263
 10
37.33162508163452
 20
-12.38304340896607
 10
37.538546504879
 20
-12.1716672917366
 10
37.74913579101563
 20
-11.96004721679687
 10
37.96343188714981
 20
-11.74818573102951
 10
38.18147374038696
 20
-11.53608538131714
 10
38.40330029783249
 20
-11.32374871454239
 10
38.6289505065918
 20
-11.11117827758789
 10
38.85846331377029
 20
-10.89837661733627
 10
39.09187766647339
 20
-10.68534628067017
 10
39.32923251180648
 20
-10.4720898144722
 10
39.570566796875
 20
-10.258609765625
 10
39.81591946878433
 20
-10.0449086810112
 10
40.06532947463989
 20
-9.830989107513428
 10
40.31883576154707
 20
-9.616853592014312
 10
40.57647727661133
 20
-9.402504681396486
 10
40.83829296693802
 20
-9.187944922542572
 10
41.10432177963256
 20
-8.973176862335208
 10
41.37460266180037
 20
-8.758203047657012
 10
41.64917456054687
 20
-8.543026025390625
 10
41.92807642297745
 20
-8.327648342418671
 10
42.2113471961975
 20
-8.11207254562378
 10
42.49902582731247
 20
-7.896301181888581
 10
42.79115126342774
 20
-7.680336798095704
 10
43.08776245164871
 20
-7.464181941127777
 10
43.38889833908081
 20
-7.247839157867432
 10
43.69459787282942
 20
-7.031310995197296
 10
44.0049
 20
-6.8146
  0
LWPOLYLINE
  5
49
330
B89
100
AcDbEntity
  8
LAYER_1
100
AcDbPolyline
 90
      175
 70
     1
 43
0.0
 10
4.517599999999999
 20
-5.775
 10
-29.566
 20
-5.775
 10
-29.566
 20
-6.8146
 10
-29.2556955607891
 20
-7.031310995197297
 10
-28.94999383201599
 20
-7.247839157867429
 10
-28.64885594696998
 20
-7.464181941127777
 10
-28.35224303894043
 20
-7.680336798095704
 10
-28.06011624121666
 20
-7.896301181888579
 10
-27.77243668708802
 20
-8.112072545623778
 10
-27.48916550984383
 20
-8.327648342418672
 10
-27.21026384277344
 20
-8.543026025390625
 10
-26.93569281916618
 20
-8.758203047657012
 10
-26.6654135723114
 20
-8.973176862335208
 10
-26.39938723549843
 20
-9.187944922542572
 10
-26.13757494201661
 20
-9.402504681396484
 10
-25.87993782515527
 20
-9.616853592014313
 10
-25.62643701820373
 20
-9.830989107513428
 10
-25.37703365445137
 20
-10.0449086810112
 10
-25.1316888671875
 20
-10.258609765625
 10
-24.89036378970146
 20
-10.4720898144722
 10
-24.65301955528259
 20
-10.68534628067017
 10
-24.41961729722023
 20
-10.89837661733628
 10
-24.19011814880371
 20
-11.11117827758789
 10
-23.96448324332237
 20
-11.32374871454239
 10
-23.74267371406555
 20
-11.53608538131714
 10
-23.52465069432258
 20
-11.74818573102951
 10
-23.31037531738281
 20
-11.96004721679688
 10
-23.09980871653557
 20
-12.1716672917366
 10
-22.89291202507019
 20
-12.38304340896607
 10
-22.68964637627602
 20
-12.59417302160263
 10
-22.48997290344238
 20
-12.80505358276367
 10
-22.29385273985863
 20
-13.01568254556656
 10
-22.10124701881409
 20
-13.22605736312866
 10
-21.91211687359809
 20
-13.43617548856735
 10
-21.7264234375
 20
-13.646034375
 10
-21.54412784380913
 20
-13.85563147554398
 10
-21.36519122581482
 20
-14.06496424331665
 10
-21.18957471680641
 20
-14.2740301314354
 10
-21.01723945007324
 20
-14.48282659301758
 10
-20.84814655890465
 20
-14.69135108118057
 10
-20.68225717658996
 20
-14.89960104904175
 10
-20.51953243641853
 20
-15.10757394971847
 10
-20.35993347167969
 20
-15.31526723632813
 10
-20.20342141566276
 20
-15.52267836198807
 10
-20.04995740165711
 20
-15.72980477981567
 10
-19.89950256295204
 20
-15.93664394292831
 10
-19.75201803283692
 20
-16.14319330444336
 10
-19.60746494460106
 20
-16.34945031747818
 10
-19.46580443153382
 20
-16.55541243515015
 10
-19.32699762692452
 20
-16.76107711057663
 10
-19.1910056640625
 20
-16.966441796875
 10
-19.05778967623711
 20
-17.17150394716263
 10
-18.92731079673767
 20
-17.37626101455689
 10
-18.79953015885353
 20
-17.58071045217514
 10
-18.67440889587402
 20
-17.78484971313477
 10
-18.55190814108849
 20
-17.98867625055313
 10
-18.43198902778625
 20
-18.19218751754761
 10
-18.31461268925667
 20
-18.39538096723556
 10
-18.19974025878905
 20
-18.59825405273438
 10
-17.97735165519714
 20
-19.00302894363404
 10
-17.76451228332519
 20
-19.40649181518555
 10
-17.56091120948792
 20
-19.80862229232788
 10
-17.3662375
 20
-20.2094
 10
-17.18018022117615
 20
-20.60880456314087
 10
-17.00242843933106
 20
-21.00681560668945
 10
-16.83267122077942
 20
-21.40341275558472
 10
-16.67059763183594
 20
-21.79857563476563
 10
-16.51589673881531
 20
-22.19228386917114
 10
-16.36825760803222
 20
-22.58451708374023
 10
-16.22736930580139
 20
-22.97525490341187
 10
-16.0929208984375
 20
-23.364476953125
 10
-15.96460145225525
 20
-23.7521628578186
 10
-15.84210003356934
 20
-24.13829224243164
 10
-15.72510570869446
 20
-24.52284473190308
 10
-15.61330754394531
 20
-24.90579995117188
 10
-15.5063946056366
 20
-25.287137525177
 10
-15.40405596008301
 20
-25.66683707885742
 10
-15.30598067359924
 20
-26.0448782371521
 10
-15.2118578125
 20
-26.421240625
 10
-15.12137644309998
 20
-26.79590386734009
 10
-15.03422563171387
 20
-27.16884758911133
 10
-14.95009444465637
 20
-27.54005141525268
 10
-14.86867194824219
 20
-27.90949497070312
 10
-14.71270929260254
 20
-28.64301976928711
 10
-14.5638501953125
 20
-29.369258984375
 10
-14.27749279785156
 20
-30.79922866210937
 10
-14.13501955871582
 20
-31.50263312377929
 10
-13.9897
 20
-32.1981
 10
-12.5248
 20
-32.1981
 10
-11.0627
 20
-32.1981
 10
-10.91731192016601
 20
-31.50263312377929
 10
-10.77464145507813
 20
-30.79922866210937
 10
-10.487553515625
 20
-29.369258984375
 10
-10.33818611450195
 20
-28.64301976928711
 10
-10.18163647460938
 20
-27.90949497070312
 10
-10.0998948890686
 20
-27.54005141525268
 10
-10.01542963256836
 20
-27.16884758911133
 10
-9.927931334686276
 20
-26.79590386734009
 10
-9.837090624999998
 20
-26.421240625
 10
-9.742598133087158
 20
-26.0448782371521
 10
-9.644144488525389
 20
-25.66683707885742
 10
-9.541420320892331
 20
-25.287137525177
 10
-9.434116259765621
 20
-24.90579995117188
 10
-9.3219229347229
 20
-24.52284473190308
 10
-9.2045309753418
 20
-24.13829224243164
 10
-9.081631011199952
 20
-23.7521628578186
 10
-8.952913671874997
 20
-23.364476953125
 10
-8.818069586944583
 20
-22.97525490341187
 10
-8.676789385986328
 20
-22.58451708374023
 10
-8.528763698577879
 20
-22.19228386917114
 10
-8.373683154296875
 20
-21.79857563476563
 10
-8.211238382720948
 20
-21.40341275558472
 10
-8.041120013427734
 20
-21.00681560668945
 10
-7.863018675994871
 20
-20.60880456314087
 10
-7.676624999999999
 20
-20.2094
 10
-7.481629615020753
 20
-19.80862229232788
 10
-7.277723150634764
 20
-19.40649181518555
 10
-7.064596236419677
 20
-19.00302894363404
 10
-6.841939501953126
 20
-18.59825405273438
 10
-6.726940773868562
 20
-18.39538096723556
 10
-6.609443576812743
 20
-18.19218751754761
 10
-6.489409239482879
 20
-17.98867625055313
 10
-6.366799090576172
 20
-17.78484971313477
 10
-6.241574458789826
 20
-17.58071045217514
 10
-6.113696672821046
 20
-17.37626101455688
 10
-5.983127061367034
 20
-17.17150394716263
 10
-5.849826953125001
 20
-16.966441796875
 10
-5.713757676792145
 20
-16.76107711057663
 10
-5.574880561065674
 20
-16.55541243515015
 10
-5.433156934642792
 20
-16.34945031747818
 10
-5.288548126220704
 20
-16.14319330444336
 10
-5.141015464496613
 20
-15.93664394292832
 10
-4.990520278167723
 20
-15.72980477981567
 10
-4.837023895931244
 20
-15.52267836198807
 10
-4.680487646484374
 20
-15.31526723632813
 10
-4.520872858524323
 20
-15.10757394971847
 10
-4.358140860748291
 20
-14.89960104904175
 10
-4.192252981853485
 20
-14.69135108118057
 10
-4.023170550537109
 20
-14.48282659301758
 10
-3.850854895496368
 20
-14.2740301314354
 10
-3.675267345428467
 20
-14.06496424331665
 10
-3.496369229030609
 20
-13.85563147554397
 10
-3.314121875
 20
-13.646034375
 10
-3.128486612033845
 20
-13.43617548856735
 10
-2.939424768829347
 20
-13.22605736312866
 10
-2.746897674083709
 20
-13.01568254556656
 10
-2.550866656494141
 20
-12.80505358276367
 10
-2.351293044757844
 20
-12.59417302160263
 10
-2.148138167572021
 20
-12.38304340896607
 10
-1.941363353633881
 20
-12.1716672917366
 10
-1.730929931640625
 20
-11.96004721679687
 10
-1.516799230289459
 20
-11.74818573102951
 10
-1.298932578277589
 20
-11.53608538131714
 10
-1.077291304302215
 20
-11.32374871454239
 10
-0.8518367370605471
 20
-11.11117827758789
 10
-0.6225302052497865
 20
-10.89837661733627
 10
-0.3893330375671393
 20
-10.68534628067017
 10
-0.1522065627098086
 20
-10.4720898144722
 10
0.0888878906249997
 20
-10.258609765625
 10
0.3339889937400815
 20
-10.0449086810112
 10
0.5831354179382321
 20
-9.830989107513428
 10
0.8363658345222466
 20
-9.616853592014312
 10
1.09371891479492
 20
-9.402504681396486
 10
1.35523333005905
 20
-9.187944922542572
 10
1.620947751617431
 20
-8.973176862335208
 10
1.890900850772858
 20
-8.758203047657012
 10
2.165131298828125
 20
-8.543026025390625
 10
2.443677767086029
 20
-8.327648342418671
 10
2.726578926849365
 20
-8.11207254562378
 10
3.013873449420929
 20
-7.896301181888581
 10
3.305600006103516
 20
-7.680336798095704
 10
3.601797268199921
 20
-7.464181941127777
 10
3.902503907012938
 20
-7.247839157867432
 10
4.207758593845367
 20
-7.031310995197296
 10
4.517599999999999
 20
-6.8146
  0
LINE
  5
B96
330
B89
100
AcDbEntity
  8
0
100
AcDbLine
 10
-51.8681
 20
-42.5978
 30
0.0
 11
-51.8681
 21
-2.598100000000002
 31
0.0
  0
LINE
  5
B97
330
B89
100
AcDbEntity
  8
0
100
AcDbLine
 10
64.5841
 20
-42.5978
 30
0.0
 11
64.5841
 21
-2.598100000000002
 31
0.0
  0
LWPOLYLINE
  5
B98
330
B89
100
AcDbEntity
  8
LAYER_1
100
AcDbPolyline
 90
        3
 70
     0
 43
0.0
 10
64.5841
 20
-2.5981
 10
-30.0839
 20
-2.5981
 10
-51.8681
 20
-2.5981
  0
ENDSEC
  0
SECTION
  2
OBJECTS
  0
DICTIONARY
  5
B21
330
0
100
AcDbDictionary
281
     1
  3
ACAD_COLOR
350
B7F
  3
ACAD_GROUP
350
B22
  3
ACAD_LAYOUT
350
B7E
  3
ACAD_MATERIAL
350
B25
  3
ACAD_MLEADERSTYLE
350
B82
  3
ACAD_MLINESTYLE
350
B7B
  3
ACAD_PLOTSETTINGS
350
B7D
  3
ACAD_PLOTSTYLENAME
350
B23
  3
ACAD_SCALELIST
350
B4F
  3
ACAD_TABLESTYLE
350
B80
  3
ACAD_VISUALSTYLE
350
B3E
  3
ACDB_RECOMPOSE_DATA
350
BA8
  3
AcDbVariableDictionary
350
B9F
  3
DWGPROPS
350
BA9
  0
DICTIONARY
  5
B9B
330
B71
100
AcDbDictionary
280
     1
281
     1
  3
ADSK_XREC_LAYER_RECONCILED
360
B9C
  0
DICTIONARY
  5
B9D
330
B8F
100
AcDbDictionary
280
     1
281
     1
  3
ADSK_XREC_LAYER_RECONCILED
360
B9E
  0
DICTIONARY
  5
B99
330
B89
100
AcDbDictionary
280
     1
281
     1
  3
ACAD_SORTENTS
360
B9A
  0
DICTIONARY
  5
B7F
102
{ACAD_REACTORS
330
B21
102
}
330
B21
100
AcDbDictionary
281
     1
  0
DICTIONARY
  5
B22
102
{ACAD_REACTORS
330
B21
102
}
330
B21
100
AcDbDictionary
281
     1
  0
DICTIONARY
  5
B7E
102
{ACAD_REACTORS
330
B21
102
}
330
B21
100
AcDbDictionary
281
     1
  3
Model
350
B8C
  3
Présentation1
350
B88
  0
DICTIONARY
  5
B25
102
{ACAD_REACTORS
330
B21
102
}
330
B21
100
AcDbDictionary
281
     1
  3
ByBlock
350
B2E
  3
ByLayer
350
B26
  3
Global
350
B36
  0
DICTIONARY
  5
B82
102
{ACAD_REACTORS
330
B21
102
}
330
B21
100
AcDbDictionary
281
     1
  3
Standard
350
B83
  0
DICTIONARY
  5
B7B
102
{ACAD_REACTORS
330
B21
102
}
330
B21
100
AcDbDictionary
281
     1
  3
Standard
350
B7C
  0
DICTIONARY
  5
B7D
102
{ACAD_REACTORS
330
B21
102
}
330
B21
100
AcDbDictionary
281
     1
  0
ACDBDICTIONARYWDFLT
  5
B23
102
{ACAD_REACTORS
330
B21
102
}
330
B21
100
AcDbDictionary
281
     1
  3
Normal
350
B24
100
AcDbDictionaryWithDefault
340
B24
  0
DICTIONARY
  5
B4F
102
{ACAD_REACTORS
330
B21
102
}
330
B21
100
AcDbDictionary
281
     1
  3
A0
350
B50
  3
A1
350
B51
  3
A2
350
B52
  3
A3
350
B53
  3
A4
350
B54
  3
A5
350
B55
  3
A6
350
B56
  3
A7
350
B57
  3
A8
350
B58
  3
A9
350
B59
  3
B0
350
B5A
  3
B1
350
B5B
  3
B2
350
B5C
  3
B3
350
B5D
  3
B4
350
B5E
  3
B5
350
B5F
  3
B6
350
B60
  3
B7
350
B61
  3
B8
350
B62
  3
B9
350
B63
  3
C0
350
B64
  3
C1
350
B65
  3
C2
350
B66
  3
C3
350
B67
  3
C4
350
B68
  3
C5
350
B69
  3
C6
350
B6A
  3
C7
350
B6B
  3
C8
350
B6C
  3
C9
350
B6D
  3
D0
350
B6E
  3
D1
350
B6F
  3
D2
350
B70
  0
DICTIONARY
  5
B80
102
{ACAD_REACTORS
330
B21
102
}
330
B21
100
AcDbDictionary
281
     1
  3
Standard
350
B81
  0
DICTIONARY
  5
B3E
102
{ACAD_REACTORS
330
B21
102
}
330
B21
100
AcDbDictionary
281
     1
  3
2dWireframe
350
B44
  3
3D Hidden
350
B46
  3
3dWireframe
350
B45
  3
Basic
350
B43
  3
Brighten
350
B4A
  3
ColorChange
350
B4E
  3
Conceptual
350
B47
  3
Dim
350
B49
  3
Facepattern
350
B4D
  3
Flat
350
B3F
  3
FlatWithEdges
350
B40
  3
Gouraud
350
B41
  3
GouraudWithEdges
350
B42
  3
Linepattern
350
B4C
  3
Realistic
350
B48
  3
Thicken
350
B4B
  0
XRECORD
  5
BA8
102
{ACAD_REACTORS
330
B21
102
}
330
B21
100
AcDbXrecord
280
     1
 90
        1
330
B81
  0
DICTIONARY
  5
B9F
102
{ACAD_REACTORS
330
B21
102
}
330
B21
100
AcDbDictionary
281
     1
  3
CANNOSCALE
350
BA2
  3
CMLEADERSTYLE
350
BA1
  3
CTABLESTYLE
350
BA0
  3
DIMASSOC
350
BA5
  3
INDEXCTL
350
BA4
  3
SORTENTS
350
BA3
  0
XRECORD
  5
BA9
102
{ACAD_REACTORS
330
B21
102
}
330
B21
100
AcDbXrecord
280
     1
  1
DWGPROPS COOKIE
  2

  3

  4

  6

  7

  8
user
  9

300
=
301
=
302
=
303
=
304
=
305
=
306
=
307
=
308
=
309
=
 40
0.0026262384259259
 41
2454910.5
 42
2457348.92431603
  1

 90
        0
  0
XRECORD
  5
B9C
102
{ACAD_REACTORS
330
B9B
102
}
330
B9B
100
AcDbXrecord
280
     1
290
     1
  0
XRECORD
  5
B9E
102
{ACAD_REACTORS
330
B9D
102
}
330
B9D
100
AcDbXrecord
280
     1
290
     1
  0
SORTENTSTABLE
  5
B9A
102
{ACAD_REACTORS
330
B99
102
}
330
B99
100
AcDbSortentsTable
330
B89
331
48
  5
49
331
43
  5
44
331
49
  5
4A
331
44
  5
45
331
B96
  5
B97
331
45
  5
46
331
B97
  5
B98
331
46
  5
47
331
47
  5
48
331
B98
  5
42
331
41
  5
41
  0
LAYOUT
  5
B8C
102
{ACAD_XDICTIONARY
360
BB0
102
}
102
{ACAD_REACTORS
330
B7E
102
}
330
B7E
100
AcDbPlotSettings
  1

  2
CutePDF Writer
  4

  6

 40
0.0
 41
0.0
 42
0.0
 43
0.0
 44
0.0
 45
0.0
 46
0.0
 47
0.0
 48
0.0
 49
0.0
140
0.0
141
0.0
142
1.0
143
1.0
 70
  1712
 72
     0
 73
     0
 74
     0
  7

 75
     0
147
1.0
148
0.0
149
0.0
100
AcDbLayout
  1
Model
 70
     1
 71
     0
 10
0.0
 20
0.0
 11
12.0
 21
9.0
 12
0.0
 22
0.0
 32
0.0
 14
0.0
 24
0.0
 34
0.0
 15
0.0
 25
0.0
 35
0.0
146
0.0
 13
0.0
 23
0.0
 33
0.0
 16
1.0
 26
0.0
 36
0.0
 17
0.0
 27
1.0
 37
0.0
 76
     0
330
B89
331
B8D
  0
LAYOUT
  5
B88
102
{ACAD_XDICTIONARY
360
BAE
102
}
102
{ACAD_REACTORS
330
B7E
102
}
330
B7E
100
AcDbPlotSettings
  1

  2
CutePDF Writer
  4

  6

 40
0.0
 41
0.0
 42
0.0
 43
0.0
 44
0.0
 45
0.0
 46
0.0
 47
0.0
 48
0.0
 49
0.0
140
0.0
141
0.0
142
1.0
143
1.0
 70
   688
 72
     0
 73
     0
 74
     5
  7

 75
    16
147
1.0
148
0.0
149
0.0
100
AcDbLayout
  1
Présentation1
 70
     1
 71
     1
 10
0.0
 20
0.0
 11
12.0
 21
9.0
 12
0.0
 22
0.0
 32
0.0
 14
1.000000000000000E+20
 24
1.000000000000000E+20
 34
1.000000000000000E+20
 15
-1.000000000000000E+20
 25
-1.000000000000000E+20
 35
-1.000000000000000E+20
146
0.0
 13
0.0
 23
0.0
 33
0.0
 16
1.0
 26
0.0
 36
0.0
 17
0.0
 27
1.0
 37
0.0
 76
     0
330
B85
  0
MATERIAL
  5
B2E
102
{ACAD_XDICTIONARY
360
B2F
102
}
102
{ACAD_REACTORS
330
B25
102
}
330
B25
100
AcDbMaterial
  1
ByBlock
 72
     0
 43
0.0208333333333333
 43
0.0
 43
0.0
 43
0.0
 43
0.0
 43
0.0208333333333333
 43
0.0
 43
0.0
 43
0.0
 43
0.0
 43
1.0
 43
0.0
 43
0.0
 43
0.0
 43
0.0
 43
1.0
 77
     0
 47
0.0208333333333333
 47
0.0
 47
0.0
 47
0.0
 47
0.0
 47
0.0208333333333333
 47
0.0
 47
0.0
 47
0.0
 47
0.0
 47
1.0
 47
0.0
 47
0.0
 47
0.0
 47
0.0
 47
1.0
171
     0
 49
0.0208333333333333
 49
0.0
 49
0.0
 49
0.0
 49
0.0
 49
0.0208333333333333
 49
0.0
 49
0.0
 49
0.0
 49
0.0
 49
1.0
 49
0.0
 49
0.0
 49
0.0
 49
0.0
 49
1.0
175
     0
142
0.0208333333333333
142
0.0
142
0.0
142
0.0
142
0.0
142
0.0208333333333333
142
0.0
142
0.0
142
0.0
142
0.0
142
1.0
142
0.0
142
0.0
142
0.0
142
0.0
142
1.0
179
     0
144
0.0208333333333333
144
0.0
144
0.0
144
0.0
144
0.0
144
0.0208333333333333
144
0.0
144
0.0
144
0.0
144
0.0
144
1.0
144
0.0
144
0.0
144
0.0
144
0.0
144
1.0
147
0.0208333333333333
147
0.0
147
0.0
147
0.0
147
0.0
147
0.0208333333333333
147
0.0
147
0.0
147
0.0
147
0.0
147
1.0
147
0.0
147
0.0
147
0.0
147
0.0
147
1.0
  0
MATERIAL
  5
B26
102
{ACAD_XDICTIONARY
360
B27
102
}
102
{ACAD_REACTORS
330
B25
102
}
330
B25
100
AcDbMaterial
  1
ByLayer
 72
     0
 43
0.0208333333333333
 43
0.0
 43
0.0
 43
0.0
 43
0.0
 43
0.0208333333333333
 43
0.0
 43
0.0
 43
0.0
 43
0.0
 43
1.0
 43
0.0
 43
0.0
 43
0.0
 43
0.0
 43
1.0
 77
     0
 47
0.0208333333333333
 47
0.0
 47
0.0
 47
0.0
 47
0.0
 47
0.0208333333333333
 47
0.0
 47
0.0
 47
0.0
 47
0.0
 47
1.0
 47
0.0
 47
0.0
 47
0.0
 47
0.0
 47
1.0
171
     0
 49
0.0208333333333333
 49
0.0
 49
0.0
 49
0.0
 49
0.0
 49
0.0208333333333333
 49
0.0
 49
0.0
 49
0.0
 49
0.0
 49
1.0
 49
0.0
 49
0.0
 49
0.0
 49
0.0
 49
1.0
175
     0
142
0.0208333333333333
142
0.0
142
0.0
142
0.0
142
0.0
142
0.0208333333333333
142
0.0
142
0.0
142
0.0
142
0.0
142
1.0
142
0.0
142
0.0
142
0.0
142
0.0
142
1.0
179
     0
144
0.0208333333333333
144
0.0
144
0.0
144
0.0
144
0.0
144
0.0208333333333333
144
0.0
144
0.0
144
0.0
144
0.0
144
1.0
144
0.0
144
0.0
144
0.0
144
0.0
144
1.0
147
0.0208333333333333
147
0.0
147
0.0
147
0.0
147
0.0
147
0.0208333333333333
147
0.0
147
0.0
147
0.0
147
0.0
147
1.0
147
0.0
147
0.0
147
0.0
147
0.0
147
1.0
  0
MATERIAL
  5
B36
102
{ACAD_XDICTIONARY
360
B37
102
}
102
{ACAD_REACTORS
330
B25
102
}
330
B25
100
AcDbMaterial
  1
Global
 72
     0
 43
0.0208333333333333
 43
0.0
 43
0.0
 43
0.0
 43
0.0
 43
0.0208333333333333
 43
0.0
 43
0.0
 43
0.0
 43
0.0
 43
1.0
 43
0.0
 43
0.0
 43
0.0
 43
0.0
 43
1.0
 77
     0
 47
0.0208333333333333
 47
0.0
 47
0.0
 47
0.0
 47
0.0
 47
0.0208333333333333
 47
0.0
 47
0.0
 47
0.0
 47
0.0
 47
1.0
 47
0.0
 47
0.0
 47
0.0
 47
0.0
 47
1.0
171
     0
 49
0.0208333333333333
 49
0.0
 49
0.0
 49
0.0
 49
0.0
 49
0.0208333333333333
 49
0.0
 49
0.0
 49
0.0
 49
0.0
 49
1.0
 49
0.0
 49
0.0
 49
0.0
 49
0.0
 49
1.0
175
     0
142
0.0208333333333333
142
0.0
142
0.0
142
0.0
142
0.0
142
0.0208333333333333
142
0.0
142
0.0
142
0.0
142
0.0
142
1.0
142
0.0
142
0.0
142
0.0
142
0.0
142
1.0
179
     0
144
0.0208333333333333
144
0.0
144
0.0
144
0.0
144
0.0
144
0.0208333333333333
144
0.0
144
0.0
144
0.0
144
0.0
144
1.0
144
0.0
144
0.0
144
0.0
144
0.0
144
1.0
147
0.0208333333333333
147
0.0
147
0.0
147
0.0
147
0.0
147
0.0208333333333333
147
0.0
147
0.0
147
0.0
147
0.0
147
1.0
147
0.0
147
0.0
147
0.0
147
0.0
147
1.0
  0
MLEADERSTYLE
  5
B83
102
{ACAD_REACTORS
330
B82
102
}
330
B82
100
AcDbMLeaderStyle
170
     2
171
     1
172
     0
 90
        2
 40
0.0
 41
0.0
173
     1
 91
-1056964608
340
B77
 92
       -2
290
     1
 42
0.09
291
     1
 43
0.36
  3
Standard
 44
0.18
300

342
B72
174
     1
178
     6
175
     1
176
     0
 93
-1056964608
 45
0.18
292
     0
297
     0
 46
0.18
 94
-1056964608
 47
1.0
 49
1.0
140
1.0
293
     1
141
0.0
294
     1
177
     0
142
1.0
295
     0
296
     0
143
0.125
1001
ACAD_MLEADERVER
1070
     2
  0
MLINESTYLE
  5
B7C
102
{ACAD_REACTORS
330
B7B
102
}
330
B7B
100
AcDbMlineStyle
  2
STANDARD
 70
     0
  3

 62
   256
 51
90.0
 52
90.0
 71
     2
 49
0.5
 62
   256
  6
BYLAYER
 49
-0.5
 62
   256
  6
BYLAYER
  0
ACDBPLACEHOLDER
  5
B24
102
{ACAD_REACTORS
330
B23
102
}
330
B23
  0
SCALE
  5
B50
102
{ACAD_REACTORS
330
B4F
102
}
330
B4F
100
AcDbScale
 70
     0
300
1:1
140
1.0
141
1.0
290
     1
  0
SCALE
  5
B51
102
{ACAD_REACTORS
330
B4F
102
}
330
B4F
100
AcDbScale
 70
     0
300
1:2
140
1.0
141
2.0
290
     0
  0
SCALE
  5
B52
102
{ACAD_REACTORS
330
B4F
102
}
330
B4F
100
AcDbScale
 70
     0
300
1:4
140
1.0
141
4.0
290
     0
  0
SCALE
  5
B53
102
{ACAD_REACTORS
330
B4F
102
}
330
B4F
100
AcDbScale
 70
     0
300
1:5
140
1.0
141
5.0
290
     0
  0
SCALE
  5
B54
102
{ACAD_REACTORS
330
B4F
102
}
330
B4F
100
AcDbScale
 70
     0
300
1:8
140
1.0
141
8.0
290
     0
  0
SCALE
  5
B55
102
{ACAD_REACTORS
330
B4F
102
}
330
B4F
100
AcDbScale
 70
     0
300
1:10
140
1.0
141
10.0
290
     0
  0
SCALE
  5
B56
102
{ACAD_REACTORS
330
B4F
102
}
330
B4F
100
AcDbScale
 70
     0
300
1:16
140
1.0
141
16.0
290
     0
  0
SCALE
  5
B57
102
{ACAD_REACTORS
330
B4F
102
}
330
B4F
100
AcDbScale
 70
     0
300
1:20
140
1.0
141
20.0
290
     0
  0
SCALE
  5
B58
102
{ACAD_REACTORS
330
B4F
102
}
330
B4F
100
AcDbScale
 70
     0
300
1:30
140
1.0
141
30.0
290
     0
  0
SCALE
  5
B59
102
{ACAD_REACTORS
330
B4F
102
}
330
B4F
100
AcDbScale
 70
     0
300
1:40
140
1.0
141
40.0
290
     0
  0
SCALE
  5
B5A
102
{ACAD_REACTORS
330
B4F
102
}
330
B4F
100
AcDbScale
 70
     0
300
1:50
140
1.0
141
50.0
290
     0
  0
SCALE
  5
B5B
102
{ACAD_REACTORS
330
B4F
102
}
330
B4F
100
AcDbScale
 70
     0
300
1:100
140
1.0
141
100.0
290
     0
  0
SCALE
  5
B5C
102
{ACAD_REACTORS
330
B4F
102
}
330
B4F
100
AcDbScale
 70
     0
300
2:1
140
2.0
141
1.0
290
     0
  0
SCALE
  5
B5D
102
{ACAD_REACTORS
330
B4F
102
}
330
B4F
100
AcDbScale
 70
     0
300
4:1
140
4.0
141
1.0
290
     0
  0
SCALE
  5
B5E
102
{ACAD_REACTORS
330
B4F
102
}
330
B4F
100
AcDbScale
 70
     0
300
8:1
140
8.0
141
1.0
290
     0
  0
SCALE
  5
B5F
102
{ACAD_REACTORS
330
B4F
102
}
330
B4F
100
AcDbScale
 70
     0
300
10:1
140
10.0
141
1.0
290
     0
  0
SCALE
  5
B60
102
{ACAD_REACTORS
330
B4F
102
}
330
B4F
100
AcDbScale
 70
     0
300
100:1
140
100.0
141
1.0
290
     0
  0
SCALE
  5
B61
102
{ACAD_REACTORS
330
B4F
102
}
330
B4F
100
AcDbScale
 70
     0
300
1/128" = 1'-0"
140
0.0078125
141
12.0
290
     0
  0
SCALE
  5
B62
102
{ACAD_REACTORS
330
B4F
102
}
330
B4F
100
AcDbScale
 70
     0
300
1/64" = 1'-0"
140
0.015625
141
12.0
290
     0
  0
SCALE
  5
B63
102
{ACAD_REACTORS
330
B4F
102
}
330
B4F
100
AcDbScale
 70
     0
300
1/32" = 1'-0"
140
0.03125
141
12.0
290
     0
  0
SCALE
  5
B64
102
{ACAD_REACTORS
330
B4F
102
}
330
B4F
100
AcDbScale
 70
     0
300
1/16" = 1'-0"
140
0.0625
141
12.0
290
     0
  0
SCALE
  5
B65
102
{ACAD_REACTORS
330
B4F
102
}
330
B4F
100
AcDbScale
 70
     0
300
3/32" = 1'-0"
140
0.09375
141
12.0
290
     0
  0
SCALE
  5
B66
102
{ACAD_REACTORS
330
B4F
102
}
330
B4F
100
AcDbScale
 70
     0
300
1/8" = 1'-0"
140
0.125
141
12.0
290
     0
  0
SCALE
  5
B67
102
{ACAD_REACTORS
330
B4F
102
}
330
B4F
100
AcDbScale
 70
     0
300
3/16" = 1'-0"
140
0.1875
141
12.0
290
     0
  0
SCALE
  5
B68
102
{ACAD_REACTORS
330
B4F
102
}
330
B4F
100
AcDbScale
 70
     0
300
1/4" = 1'-0"
140
0.25
141
12.0
290
     0
  0
SCALE
  5
B69
102
{ACAD_REACTORS
330
B4F
102
}
330
B4F
100
AcDbScale
 70
     0
300
3/8" = 1'-0"
140
0.375
141
12.0
290
     0
  0
SCALE
  5
B6A
102
{ACAD_REACTORS
330
B4F
102
}
330
B4F
100
AcDbScale
 70
     0
300
1/2" = 1'-0"
140
0.5
141
12.0
290
     0
  0
SCALE
  5
B6B
102
{ACAD_REACTORS
330
B4F
102
}
330
B4F
100
AcDbScale
 70
     0
300
3/4" = 1'-0"
140
0.75
141
12.0
290
     0
  0
SCALE
  5
B6C
102
{ACAD_REACTORS
330
B4F
102
}
330
B4F
100
AcDbScale
 70
     0
300
1" = 1'-0"
140
1.0
141
12.0
290
     0
  0
SCALE
  5
B6D
102
{ACAD_REACTORS
330
B4F
102
}
330
B4F
100
AcDbScale
 70
     0
300
1-1/2" = 1'-0"
140
1.5
141
12.0
290
     0
  0
SCALE
  5
B6E
102
{ACAD_REACTORS
330
B4F
102
}
330
B4F
100
AcDbScale
 70
     0
300
3" = 1'-0"
140
3.0
141
12.0
290
     0
  0
SCALE
  5
B6F
102
{ACAD_REACTORS
330
B4F
102
}
330
B4F
100
AcDbScale
 70
     0
300
6" = 1'-0"
140
6.0
141
12.0
290
     0
  0
SCALE
  5
B70
102
{ACAD_REACTORS
330
B4F
102
}
330
B4F
100
AcDbScale
 70
     0
300
1'-0" = 1'-0"
140
12.0
141
12.0
290
     0
  0
TABLESTYLE
  5
B81
102
{ACAD_XDICTIONARY
360
BA6
102
}
102
{ACAD_REACTORS
330
B80
102
}
330
B80
100
AcDbTableStyle
  3
Standard
 70
     0
 71
     0
 40
0.06
 41
0.06
280
     0
281
     0
  7
STANDARD
140
0.18
170
     2
 62
     0
 63
     7
283
     0
274
    -2
284
     1
 64
     0
275
    -2
285
     1
 65
     0
276
    -2
286
     1
 66
     0
277
    -2
287
     1
 67
     0
278
    -2
288
     1
 68
     0
279
    -2
289
     1
 69
     0
  7
STANDARD
140
0.25
170
     5
 62
     0
 63
     7
283
     0
274
    -2
284
     1
 64
     0
275
    -2
285
     1
 65
     0
276
    -2
286
     1
 66
     0
277
    -2
287
     1
 67
     0
278
    -2
288
     1
 68
     0
279
    -2
289
     1
 69
     0
  7
STANDARD
140
0.18
170
     5
 62
     0
 63
     7
283
     0
274
    -2
284
     1
 64
     0
275
    -2
285
     1
 65
     0
276
    -2
286
     1
 66
     0
277
    -2
287
     1
 67
     0
278
    -2
288
     1
 68
     0
279
    -2
289
     1
 69
     0
  0
VISUALSTYLE
  5
B44
102
{ACAD_REACTORS
330
B3E
102
}
330
B3E
100
AcDbVisualStyle
  2
2dWireframe
 70
     4
 71
     0
 72
     2
 73
     0
 90
        0
 40
-0.6
 41
-30.0
 62
     5
 63
     7
 74
     1
 91
        4
 64
     7
 65
   257
 75
     1
175
     1
 42
1.0
 92
        0
 66
   257
 43
1.0
 76
     1
 77
     6
 78
     2
 67
     7
 79
     5
170
     0
171
     0
290
     0
174
     0
 93
        1
 44
0.0
173
     0
291
     0
 45
0.0
1001
ACAD
1000
AcDbSavedByObjectVersion
1070
     0
  0
VISUALSTYLE
  5
B46
102
{ACAD_REACTORS
330
B3E
102
}
330
B3E
100
AcDbVisualStyle
  2
3D Hidden
 70
     6
 71
     1
 72
     2
 73
     2
 90
        0
 40
-0.6
 41
-30.0
 62
     5
 63
     7
 74
     2
 91
        2
 64
     7
 65
   257
 75
     2
175
     1
 42
40.0
 92
        0
 66
   257
 43
1.0
 76
     1
 77
     6
 78
     2
 67
     7
 79
     3
170
     0
171
     0
290
     0
174
     0
 93
        1
 44
0.0
173
     0
291
     0
 45
0.0
1001
ACAD
1000
AcDbSavedByObjectVersion
1070
     0
  0
VISUALSTYLE
  5
B45
102
{ACAD_REACTORS
330
B3E
102
}
330
B3E
100
AcDbVisualStyle
  2
3dWireframe
 70
     5
 71
     0
 72
     2
 73
     0
 90
        0
 40
-0.6
 41
-30.0
 62
     5
 63
     7
 74
     1
 91
        4
 64
     7
 65
   257
 75
     1
175
     1
 42
1.0
 92
        0
 66
   257
 43
1.0
 76
     1
 77
     6
 78
     2
 67
     7
 79
     5
170
     0
171
     0
290
     0
174
     0
 93
        1
 44
0.0
173
     0
291
     0
 45
0.0
1001
ACAD
1000
AcDbSavedByObjectVersion
1070
     0
  0
VISUALSTYLE
  5
B43
102
{ACAD_REACTORS
330
B3E
102
}
330
B3E
100
AcDbVisualStyle
  2
Basic
 70
     7
 71
     1
 72
     0
 73
     1
 90
        0
 40
-0.6
 41
-30.0
 62
     5
 63
     7
 74
     0
 91
        4
 64
     7
 65
   257
 75
     1
175
     1
 42
1.0
 92
        8
 66
     7
 43
1.0
 76
     1
 77
     6
 78
     2
 67
     7
 79
     5
170
     0
171
     0
290
     0
174
     0
 93
        1
 44
0.0
173
     0
291
     1
 45
0.0
1001
ACAD
1000
AcDbSavedByObjectVersion
1070
     0
  0
VISUALSTYLE
  5
B4A
102
{ACAD_REACTORS
330
B3E
102
}
330
B3E
100
AcDbVisualStyle
  2
Brighten
 70
    12
 71
     2
 72
     2
 73
     0
 90
        0
 40
-0.6
 41
-30.0
 62
     5
 63
     7
 74
     1
 91
        4
 64
     7
 65
   257
 75
     1
175
     1
 42
1.0
 92
        8
 66
     7
 43
1.0
 76
     1
 77
     6
 78
     2
 67
     7
 79
     5
170
     0
171
     0
290
     0
174
     0
 93
        1
 44
50.0
173
     0
291
     1
 45
0.0
1001
ACAD
1000
AcDbSavedByObjectVersion
1070
     0
  0
VISUALSTYLE
  5
B4E
102
{ACAD_REACTORS
330
B3E
102
}
330
B3E
100
AcDbVisualStyle
  2
ColorChange
 70
    16
 71
     2
 72
     2
 73
     3
 90
        0
 40
-0.6
 41
-30.0
 62
     5
 63
     8
 74
     1
 91
        4
 64
     7
 65
   257
 75
     1
175
     1
 42
1.0
 92
        8
 66
     8
 43
1.0
 76
     1
 77
     6
 78
     2
 67
     7
 79
     5
170
     0
171
     0
290
     0
174
     0
 93
        1
 44
0.0
173
     0
291
     1
 45
0.0
1001
ACAD
1000
AcDbSavedByObjectVersion
1070
     0
  0
VISUALSTYLE
  5
B47
102
{ACAD_REACTORS
330
B3E
102
}
330
B3E
100
AcDbVisualStyle
  2
Conceptual
 70
     9
 71
     3
 72
     2
 73
     0
 90
        0
 40
-0.6
 41
-30.0
 62
     5
 63
     7
 74
     2
 91
        2
 64
     7
 65
   257
 75
     1
175
     1
 42
40.0
 92
        8
 66
     7
 43
1.0
 76
     1
 77
     6
 78
     2
 67
     7
 79
     3
170
     0
171
     0
290
     0
174
     0
 93
        1
 44
0.0
173
     0
291
     0
 45
0.0
1001
ACAD
1000
AcDbSavedByObjectVersion
1070
     0
  0
VISUALSTYLE
  5
B49
102
{ACAD_REACTORS
330
B3E
102
}
330
B3E
100
AcDbVisualStyle
  2
Dim
 70
    11
 71
     2
 72
     2
 73
     0
 90
        0
 40
-0.6
 41
-30.0
 62
     5
 63
     7
 74
     1
 91
        4
 64
     7
 65
   257
 75
     1
175
     1
 42
1.0
 92
        8
 66
     7
 43
1.0
 76
     1
 77
     6
 78
     2
 67
     7
 79
     5
170
     0
171
     0
290
     0
174
     0
 93
        1
 44
-50.0
173
     0
291
     1
 45
0.0
1001
ACAD
1000
AcDbSavedByObjectVersion
1070
     0
  0
VISUALSTYLE
  5
B4D
102
{ACAD_REACTORS
330
B3E
102
}
330
B3E
100
AcDbVisualStyle
  2
Facepattern
 70
    15
 71
     2
 72
     2
 73
     0
 90
        0
 40
-0.6
 41
-30.0
 62
     5
 63
     7
 74
     1
 91
        4
 64
     7
 65
   257
 75
     1
175
     1
 42
1.0
 92
        8
 66
     7
 43
1.0
 76
     1
 77
     6
 78
     2
 67
     7
 79
     5
170
     0
171
     0
290
     0
174
     0
 93
        1
 44
0.0
173
     0
291
     1
 45
0.0
1001
ACAD
1000
AcDbSavedByObjectVersion
1070
     0
  0
VISUALSTYLE
  5
B3F
102
{ACAD_REACTORS
330
B3E
102
}
330
B3E
100
AcDbVisualStyle
  2
Flat
 70
     0
 71
     2
 72
     1
 73
     1
 90
        2
 40
-0.6
 41
30.0
 62
     5
 63
     7
 74
     0
 91
        4
 64
     7
 65
   257
 75
     1
175
     1
 42
1.0
 92
        8
 66
     7
 43
1.0
 76
     1
 77
     6
 78
     2
 67
     7
 79
     5
170
     0
171
     0
290
     0
174
     0
 93
       13
 44
0.0
173
     0
291
     1
 45
0.0
1001
ACAD
1000
AcDbSavedByObjectVersion
1070
     0
  0
VISUALSTYLE
  5
B40
102
{ACAD_REACTORS
330
B3E
102
}
330
B3E
100
AcDbVisualStyle
  2
FlatWithEdges
 70
     1
 71
     2
 72
     1
 73
     1
 90
        2
 40
-0.6
 41
30.0
 62
     5
 63
     7
 74
     1
 91
        4
 64
     7
 65
   257
 75
     1
175
     1
 42
1.0
 92
        0
 66
   257
 43
1.0
 76
     1
 77
     6
 78
     2
 67
     7
 79
     5
170
     0
171
     0
290
     0
174
     0
 93
       13
 44
0.0
173
     0
291
     1
 45
0.0
1001
ACAD
1000
AcDbSavedByObjectVersion
1070
     0
  0
VISUALSTYLE
  5
B41
102
{ACAD_REACTORS
330
B3E
102
}
330
B3E
100
AcDbVisualStyle
  2
Gouraud
 70
     2
 71
     2
 72
     2
 73
     1
 90
        2
 40
-0.6
 41
30.0
 62
     5
 63
     7
 74
     0
 91
        4
 64
     7
 65
   257
 75
     1
175
     1
 42
1.0
 92
        0
 66
     7
 43
1.0
 76
     1
 77
     6
 78
     2
 67
     7
 79
     5
170
     0
171
     0
290
     0
174
     0
 93
       13
 44
0.0
173
     0
291
     1
 45
0.0
1001
ACAD
1000
AcDbSavedByObjectVersion
1070
     0
  0
VISUALSTYLE
  5
B42
102
{ACAD_REACTORS
330
B3E
102
}
330
B3E
100
AcDbVisualStyle
  2
GouraudWithEdges
 70
     3
 71
     2
 72
     2
 73
     1
 90
        2
 40
-0.6
 41
30.0
 62
     5
 63
     7
 74
     1
 91
        4
 64
     7
 65
   257
 75
     1
175
     1
 42
1.0
 92
        0
 66
   257
 43
1.0
 76
     1
 77
     6
 78
     2
 67
     7
 79
     5
170
     0
171
     0
290
     0
174
     0
 93
       13
 44
0.0
173
     0
291
     1
 45
0.0
1001
ACAD
1000
AcDbSavedByObjectVersion
1070
     0
  0
VISUALSTYLE
  5
B4C
102
{ACAD_REACTORS
330
B3E
102
}
330
B3E
100
AcDbVisualStyle
  2
Linepattern
 70
    14
 71
     2
 72
     2
 73
     0
 90
        0
 40
-0.6
 41
-30.0
 62
     5
 63
     7
 74
     1
 91
        4
 64
     7
 65
   257
 75
     7
175
     7
 42
1.0
 92
        8
 66
     7
 43
1.0
 76
     1
 77
     6
 78
     2
 67
     7
 79
     5
170
     0
171
     0
290
     0
174
     0
 93
        1
 44
0.0
173
     0
291
     1
 45
0.0
1001
ACAD
1000
AcDbSavedByObjectVersion
1070
     0
  0
VISUALSTYLE
  5
B48
102
{ACAD_REACTORS
330
B3E
102
}
330
B3E
100
AcDbVisualStyle
  2
Realistic
 70
     8
 71
     2
 72
     2
 73
     0
 90
        0
 40
-0.6
 41
-30.0
 62
     5
 63
     7
 74
     1
 91
        0
 64
     7
 65
   257
 75
     1
175
     1
 42
1.0
 92
        8
 66
     8
 43
1.0
 76
     1
 77
     6
 78
     2
 67
     7
 79
     5
170
     0
171
     0
290
     0
174
     0
 93
       13
 44
0.0
173
     0
291
     0
 45
0.0
1001
ACAD
1000
AcDbSavedByObjectVersion
1070
     0
  0
VISUALSTYLE
  5
B4B
102
{ACAD_REACTORS
330
B3E
102
}
330
B3E
100
AcDbVisualStyle
  2
Thicken
 70
    13
 71
     2
 72
     2
 73
     0
 90
        0
 40
-0.6
 41
-30.0
 62
     5
 63
     7
 74
     1
 91
        4
 64
     7
 65
   257
 75
     1
175
     1
 42
1.0
 92
       12
 66
     7
 43
1.0
 76
     1
 77
     6
 78
     2
 67
     7
 79
     5
170
     0
171
     0
290
     0
174
     0
 93
        1
 44
0.0
173
     0
291
     1
 45
0.0
1001
ACAD
1000
AcDbSavedByObjectVersion
1070
     0
  0
DICTIONARYVAR
  5
BA2
102
{ACAD_REACTORS
330
B9F
102
}
330
B9F
100
DictionaryVariables
280
     0
  1
1:1
  0
DICTIONARYVAR
  5
BA1
102
{ACAD_REACTORS
330
B9F
102
}
330
B9F
100
DictionaryVariables
280
     0
  1
STANDARD
  0
DICTIONARYVAR
  5
BA0
102
{ACAD_REACTORS
330
B9F
102
}
330
B9F
100
DictionaryVariables
280
     0
  1
STANDARD
  0
DICTIONARYVAR
  5
BA5
102
{ACAD_REACTORS
330
B9F
102
}
330
B9F
100
DictionaryVariables
280
     0
  1
1
  0
DICTIONARYVAR
  5
BA4
102
{ACAD_REACTORS
330
B9F
102
}
330
B9F
100
DictionaryVariables
280
     0
  1
0
  0
DICTIONARYVAR
  5
BA3
102
{ACAD_REACTORS
330
B9F
102
}
330
B9F
100
DictionaryVariables
280
     0
  1
127
  0
DICTIONARY
  5
BB0
330
B8C
100
AcDbDictionary
280
     1
281
     1
  3
ACAD_XREC_ROUNDTRIP
360
BB1
  0
DICTIONARY
  5
BAE
330
B88
100
AcDbDictionary
280
     1
281
     1
  3
ACAD_XREC_ROUNDTRIP
360
BAF
  0
DICTIONARY
  5
B2F
330
B2E
100
AcDbDictionary
280
     1
281
     1
  3
ACAD_XREC_ROUNDTRIP
360
BAB
  3
BUMPTILE
360
B31
  3
DIFFUSETILE
360
B30
  3
OPACITYTILE
360
B34
  3
REFLECTIONTILE
360
B33
  3
REFRACTIONTILE
360
B35
  3
SPECULARTILE
360
B32
  0
DICTIONARY
  5
B27
330
B26
100
AcDbDictionary
280
     1
281
     1
  3
ACAD_XREC_ROUNDTRIP
360
BAA
  3
BUMPTILE
360
B29
  3
DIFFUSETILE
360
B28
  3
OPACITYTILE
360
B2C
  3
REFLECTIONTILE
360
B2B
  3
REFRACTIONTILE
360
B2D
  3
SPECULARTILE
360
B2A
  0
DICTIONARY
  5
B37
330
B36
100
AcDbDictionary
280
     1
281
     1
  3
ACAD_XREC_ROUNDTRIP
360
BAC
  3
BUMPTILE
360
B39
  3
DIFFUSETILE
360
B38
  3
OPACITYTILE
360
B3C
  3
REFLECTIONTILE
360
B3B
  3
REFRACTIONTILE
360
B3D
  3
SPECULARTILE
360
B3A
  0
DICTIONARY
  5
BA6
330
B81
100
AcDbDictionary
280
     1
281
     1
  3
ACAD_ROUNDTRIP_2008_TABLESTYLE_CELLSTYLEMAP
360
BA7
  3
ACAD_XREC_ROUNDTRIP
360
BAD
  0
XRECORD
  5
BB1
102
{ACAD_REACTORS
330
BB0
102
}
330
BB0
100
AcDbXrecord
280
     1
102
SHADEPLOT
 70
     0
102
SHADEPLOTRESLEVEL
 70
     2
102
SHADEPLOTCUSTOMDPI
 70
   300
  0
XRECORD
  5
BAF
102
{ACAD_REACTORS
330
BAE
102
}
330
BAE
100
AcDbXrecord
280
     1
102
SHADEPLOT
 70
     0
102
SHADEPLOTRESLEVEL
 70
     2
102
SHADEPLOTCUSTOMDPI
 70
   300
  0
XRECORD
  5
BAB
102
{ACAD_REACTORS
330
B2F
102
}
330
B2F
100
AcDbXrecord
280
     1
102
MATERIAL
148
0.0
149
0.0
149
0.0
 93
        0
 94
      127
282
     0
 72
     0
 77
     0
171
     0
175
     0
179
     0
273
     0
  0
XRECORD
  5
B31
102
{ACAD_REACTORS
330
B2F
102
}
330
B2F
100
AcDbXrecord
280
     1
270
     1
271
     1
  0
XRECORD
  5
B30
102
{ACAD_REACTORS
330
B2F
102
}
330
B2F
100
AcDbXrecord
280
     1
270
     1
271
     1
  0
XRECORD
  5
B34
102
{ACAD_REACTORS
330
B2F
102
}
330
B2F
100
AcDbXrecord
280
     1
270
     1
271
     1
  0
XRECORD
  5
B33
102
{ACAD_REACTORS
330
B2F
102
}
330
B2F
100
AcDbXrecord
280
     1
270
     1
271
     1
  0
XRECORD
  5
B35
102
{ACAD_REACTORS
330
B2F
102
}
330
B2F
100
AcDbXrecord
280
     1
270
     1
271
     1
  0
XRECORD
  5
B32
102
{ACAD_REACTORS
330
B2F
102
}
330
B2F
100
AcDbXrecord
280
     1
270
     1
271
     1
  0
XRECORD
  5
BAA
102
{ACAD_REACTORS
330
B27
102
}
330
B27
100
AcDbXrecord
280
     1
102
MATERIAL
148
0.0
149
0.0
149
0.0
 93
        0
 94
      127
282
     0
 72
     0
 77
     0
171
     0
175
     0
179
     0
273
     0
  0
XRECORD
  5
B29
102
{ACAD_REACTORS
330
B27
102
}
330
B27
100
AcDbXrecord
280
     1
270
     1
271
     1
  0
XRECORD
  5
B28
102
{ACAD_REACTORS
330
B27
102
}
330
B27
100
AcDbXrecord
280
     1
270
     1
271
     1
  0
XRECORD
  5
B2C
102
{ACAD_REACTORS
330
B27
102
}
330
B27
100
AcDbXrecord
280
     1
270
     1
271
     1
  0
XRECORD
  5
B2B
102
{ACAD_REACTORS
330
B27
102
}
330
B27
100
AcDbXrecord
280
     1
270
     1
271
     1
  0
XRECORD
  5
B2D
102
{ACAD_REACTORS
330
B27
102
}
330
B27
100
AcDbXrecord
280
     1
270
     1
271
     1
  0
XRECORD
  5
B2A
102
{ACAD_REACTORS
330
B27
102
}
330
B27
100
AcDbXrecord
280
     1
270
     1
271
     1
  0
XRECORD
  5
BAC
102
{ACAD_REACTORS
330
B37
102
}
330
B37
100
AcDbXrecord
280
     1
102
MATERIAL
148
0.0
149
0.0
149
0.0
 93
        0
 94
      127
282
     0
 72
     0
 77
     0
171
     0
175
     0
179
     0
273
     0
  0
XRECORD
  5
B39
102
{ACAD_REACTORS
330
B37
102
}
330
B37
100
AcDbXrecord
280
     1
270
     1
271
     1
  0
XRECORD
  5
B38
102
{ACAD_REACTORS
330
B37
102
}
330
B37
100
AcDbXrecord
280
     1
270
     1
271
     1
  0
XRECORD
  5
B3C
102
{ACAD_REACTORS
330
B37
102
}
330
B37
100
AcDbXrecord
280
     1
270
     1
271
     1
  0
XRECORD
  5
B3B
102
{ACAD_REACTORS
330
B37
102
}
330
B37
100
AcDbXrecord
280
     1
270
     1
271
     1
  0
XRECORD
  5
B3D
102
{ACAD_REACTORS
330
B37
102
}
330
B37
100
AcDbXrecord
280
     1
270
     1
271
     1
  0
XRECORD
  5
B3A
102
{ACAD_REACTORS
330
B37
102
}
330
B37
100
AcDbXrecord
280
     1
270
     1
271
     1
  0
CELLSTYLEMAP
  5
BA7
102
{ACAD_REACTORS
330
BA6
102
}
330
BA6
100
AcDbCellStyleMap
 90
        3
300
CELLSTYLE
  1
TABLEFORMAT_BEGIN
 90
        5
170
     1
 91
        0
 92
    32768
 62
   257
 93
        1
300
CONTENTFORMAT
  1
CONTENTFORMAT_BEGIN
 90
        0
 91
        0
 92
      512
 93
        0
300

 40
0.0
140
1.0
 94
        5
 62
     0
340
B72
144
0.25
309
CONTENTFORMAT_END
171
     0
 94
        0
309
TABLEFORMAT_END
  1
CELLSTYLE_BEGIN
 90
        1
 91
        1
300
_TITLE
309
CELLSTYLE_END
300
CELLSTYLE
  1
TABLEFORMAT_BEGIN
 90
        5
170
     1
 91
        0
 92
        0
 62
   257
 93
        1
300
CONTENTFORMAT
  1
CONTENTFORMAT_BEGIN
 90
        0
 91
        0
 92
      512
 93
        0
300

 40
0.0
140
1.0
 94
        5
 62
     0
340
B72
144
0.18
309
CONTENTFORMAT_END
171
     0
 94
        0
309
TABLEFORMAT_END
  1
CELLSTYLE_BEGIN
 90
        2
 91
        1
300
_HEADER
309
CELLSTYLE_END
300
CELLSTYLE
  1
TABLEFORMAT_BEGIN
 90
        5
170
     1
 91
        0
 92
        0
 62
   257
 93
        1
300
CONTENTFORMAT
  1
CONTENTFORMAT_BEGIN
 90
        0
 91
        0
 92
      512
 93
        0
300

 40
0.0
140
1.0
 94
        2
 62
     0
340
B72
144
0.18
309
CONTENTFORMAT_END
171
     0
 94
        0
309
TABLEFORMAT_END
  1
CELLSTYLE_BEGIN
 90
        3
 91
        2
300
_DATA
309
CELLSTYLE_END
  0
XRECORD
  5
BAD
102
{ACAD_REACTORS
330
BA6
102
}
330
BA6
100
AcDbXrecord
280
     1
102
ACAD_ROUNDTRIP_PRE2007_TABLESTYLE
 90
      512
 91
        0
  1

 92
      512
 93
        0
  2

 94
      512
 95
        0
  3

  0
ENDSEC
  0
EOF
