  0
SECTION
  2
HEADER
  9
$ACADVER
  1
AC1015
  9
$ACADMAINTVER
 70
    20
  9
$DWGCODEPAGE
  3
ANSI_1252
  9
$INSBASE
 10
0.0
 20
0.0
 30
0.0
  9
$EXTMIN
 10
-500.0000624779685
 20
-25.0
 30
0.0
  9
$EXTMAX
 10
500.0
 20
25.0
 30
0.0
  9
$LIMMIN
 10
0.0
 20
0.0
  9
$LIMMAX
 10
12.0
 20
9.0
  9
$ORTHOMODE
 70
     0
  9
$REGENMODE
 70
     1
  9
$FILLMODE
 70
     1
  9
$QTEXTMODE
 70
     0
  9
$MIRRTEXT
 70
     1
  9
$LTSCALE
 40
1.0
  9
$ATTMODE
 70
     1
  9
$TEXTSIZE
 40
0.2
  9
$TRACEWID
 40
0.05
  9
$TEXTSTYLE
  7
STANDARD
  9
$CLAYER
  8
0
  9
$CELTYPE
  6
ByLayer
  9
$CECOLOR
 62
   256
  9
$CELTSCALE
 40
1.0
  9
$DISPSILH
 70
     0
  9
$DIMSCALE
 40
1.0
  9
$DIMASZ
 40
0.18
  9
$DIMEXO
 40
0.0625
  9
$DIMDLI
 40
0.38
  9
$DIMRND
 40
0.0
  9
$DIMDLE
 40
0.0
  9
$DIMEXE
 40
0.18
  9
$DIMTP
 40
0.0
  9
$DIMTM
 40
0.0
  9
$DIMTXT
 40
0.18
  9
$DIMCEN
 40
0.09
  9
$DIMTSZ
 40
0.0
  9
$DIMTOL
 70
     0
  9
$DIMLIM
 70
     0
  9
$DIMTIH
 70
     1
  9
$DIMTOH
 70
     1
  9
$DIMSE1
 70
     0
  9
$DIMSE2
 70
     0
  9
$DIMTAD
 70
     0
  9
$DIMZIN
 70
     0
  9
$DIMBLK
  1

  9
$DIMASO
 70
     1
  9
$DIMSHO
 70
     1
  9
$DIMPOST
  1

  9
$DIMAPOST
  1

  9
$DIMALT
 70
     0
  9
$DIMALTD
 70
     2
  9
$DIMALTF
 40
25.4
  9
$DIMLFAC
 40
1.0
  9
$DIMTOFL
 70
     0
  9
$DIMTVP
 40
0.0
  9
$DIMTIX
 70
     0
  9
$DIMSOXD
 70
     0
  9
$DIMSAH
 70
     0
  9
$DIMBLK1
  1

  9
$DIMBLK2
  1

  9
$DIMSTYLE
  2
STANDARD
  9
$DIMCLRD
 70
     0
  9
$DIMCLRE
 70
     0
  9
$DIMCLRT
 70
     0
  9
$DIMTFAC
 40
1.0
  9
$DIMGAP
 40
0.09
  9
$DIMJUST
 70
     0
  9
$DIMSD1
 70
     0
  9
$DIMSD2
 70
     0
  9
$DIMTOLJ
 70
     1
  9
$DIMTZIN
 70
     0
  9
$DIMALTZ
 70
     0
  9
$DIMALTTZ
 70
     0
  9
$DIMUPT
 70
     0
  9
$DIMDEC
 70
     4
  9
$DIMTDEC
 70
     4
  9
$DIMALTU
 70
     2
  9
$DIMALTTD
 70
     2
  9
$DIMTXSTY
  7
STANDARD
  9
$DIMAUNIT
 70
     0
  9
$DIMADEC
 70
     0
  9
$DIMALTRND
 40
0.0
  9
$DIMAZIN
 70
     0
  9
$DIMDSEP
 70
    46
  9
$DIMATFIT
 70
     3
  9
$DIMFRAC
 70
     0
  9
$DIMLDRBLK
  1

  9
$DIMLUNIT
 70
     2
  9
$DIMLWD
 70
    -2
  9
$DIMLWE
 70
    -2
  9
$DIMTMOVE
 70
     0
  9
$LUNITS
 70
     2
  9
$LUPREC
 70
     4
  9
$SKETCHINC
 40
0.1
  9
$FILLETRAD
 40
0.5
  9
$AUNITS
 70
     0
  9
$AUPREC
 70
     0
  9
$MENU
  1
.
  9
$ELEVATION
 40
0.0
  9
$PELEVATION
 40
0.0
  9
$THICKNESS
 40
0.0
  9
$LIMCHECK
 70
     0
  9
$CHAMFERA
 40
0.5
  9
$CHAMFERB
 40
0.5
  9
$CHAMFERC
 40
0.0
  9
$CHAMFERD
 40
0.0
  9
$SKPOLY
 70
     0
  9
$TDCREATE
 40
2454910.500000000
  9
$TDUCREATE
 40
2454910.458333334
  9
$TDUPDATE
 40
2457346.853942986
  9
$TDUUPDATE
 40
2457346.812276320
  9
$TDINDWG
 40
0.0002007407
  9
$TDUSRTIMER
 40
0.0002006250
  9
$USRTIMER
 70
     1
  9
$ANGBASE
 50
0.0
  9
$ANGDIR
 70
     0
  9
$PDMODE
 70
     0
  9
$PDSIZE
 40
0.0
  9
$PLINEWID
 40
0.0
  9
$SPLFRAME
 70
     0
  9
$SPLINETYPE
 70
     6
  9
$SPLINESEGS
 70
     8
  9
$HANDSEED
  5
22C
  9
$SURFTAB1
 70
     6
  9
$SURFTAB2
 70
     6
  9
$SURFTYPE
 70
     6
  9
$SURFU
 70
     6
  9
$SURFV
 70
     6
  9
$UCSBASE
  2

  9
$UCSNAME
  2

  9
$UCSORG
 10
0.0
 20
0.0
 30
0.0
  9
$UCSXDIR
 10
1.0
 20
0.0
 30
0.0
  9
$UCSYDIR
 10
0.0
 20
1.0
 30
0.0
  9
$UCSORTHOREF
  2

  9
$UCSORTHOVIEW
 70
     0
  9
$UCSORGTOP
 10
0.0
 20
0.0
 30
0.0
  9
$UCSORGBOTTOM
 10
0.0
 20
0.0
 30
0.0
  9
$UCSORGLEFT
 10
0.0
 20
0.0
 30
0.0
  9
$UCSORGRIGHT
 10
0.0
 20
0.0
 30
0.0
  9
$UCSORGFRONT
 10
0.0
 20
0.0
 30
0.0
  9
$UCSORGBACK
 10
0.0
 20
0.0
 30
0.0
  9
$PUCSBASE
  2

  9
$PUCSNAME
  2

  9
$PUCSORG
 10
0.0
 20
0.0
 30
0.0
  9
$PUCSXDIR
 10
1.0
 20
0.0
 30
0.0
  9
$PUCSYDIR
 10
0.0
 20
1.0
 30
0.0
  9
$PUCSORTHOREF
  2

  9
$PUCSORTHOVIEW
 70
     0
  9
$PUCSORGTOP
 10
0.0
 20
0.0
 30
0.0
  9
$PUCSORGBOTTOM
 10
0.0
 20
0.0
 30
0.0
  9
$PUCSORGLEFT
 10
0.0
 20
0.0
 30
0.0
  9
$PUCSORGRIGHT
 10
0.0
 20
0.0
 30
0.0
  9
$PUCSORGFRONT
 10
0.0
 20
0.0
 30
0.0
  9
$PUCSORGBACK
 10
0.0
 20
0.0
 30
0.0
  9
$USERI1
 70
     0
  9
$USERI2
 70
     0
  9
$USERI3
 70
     0
  9
$USERI4
 70
     0
  9
$USERI5
 70
     0
  9
$USERR1
 40
0.0
  9
$USERR2
 40
0.0
  9
$USERR3
 40
0.0
  9
$USERR4
 40
0.0
  9
$USERR5
 40
0.0
  9
$WORLDVIEW
 70
     1
  9
$SHADEDGE
 70
     3
  9
$SHADEDIF
 70
    70
  9
$TILEMODE
 70
     1
  9
$MAXACTVP
 70
    64
  9
$PINSBASE
 10
0.0
 20
0.0
 30
0.0
  9
$PLIMCHECK
 70
     0
  9
$PEXTMIN
 10
1.000000000000000E+20
 20
1.000000000000000E+20
 30
1.000000000000000E+20
  9
$PEXTMAX
 10
-1.000000000000000E+20
 20
-1.000000000000000E+20
 30
-1.000000000000000E+20
  9
$PLIMMIN
 10
0.0
 20
0.0
  9
$PLIMMAX
 10
12.0
 20
9.0
  9
$UNITMODE
 70
     0
  9
$VISRETAIN
 70
     1
  9
$PLINEGEN
 70
     0
  9
$PSLTSCALE
 70
     1
  9
$TREEDEPTH
 70
  3020
  9
$CMLSTYLE
  2
Standard
  9
$CMLJUST
 70
     0
  9
$CMLSCALE
 40
1.0
  9
$PROXYGRAPHICS
 70
     1
  9
$MEASUREMENT
 70
     0
  9
$CELWEIGHT
370
    -1
  9
$ENDCAPS
280
     0
  9
$JOINSTYLE
280
     0
  9
$LWDISPLAY
290
     0
  9
$INSUNITS
 70
     0
  9
$HYPERLINKBASE
  1

  9
$STYLESHEET
  1

  9
$XEDIT
290
     1
  9
$CEPSNTYPE
380
     0
  9
$PSTYLEMODE
290
     1
  9
$FINGERPRINTGUID
  2
{FFD64A31-132C-4077-85F8-925FD72E1B5A}
  9
$VERSIONGUID
  2
{0508E2B7-885A-443B-AC82-33716D69E368}
  9
$EXTNAMES
290
     1
  9
$PSVPSCALE
 40
0.0
  9
$OLESTARTUP
290
     0
  0
ENDSEC
  0
SECTION
  2
CLASSES
  0
CLASS
  1
ACDBDICTIONARYWDFLT
  2
AcDbDictionaryWithDefault
  3
ObjectDBX Classes
 90
        0
280
     0
281
     0
  0
CLASS
  1
MATERIAL
  2
AcDbMaterial
  3
ObjectDBX Classes
 90
     1153
280
     0
281
     0
  0
CLASS
  1
VISUALSTYLE
  2
AcDbVisualStyle
  3
ObjectDBX Classes
 90
     4095
280
     0
281
     0
  0
CLASS
  1
SCALE
  2
AcDbScale
  3
ObjectDBX Classes
 90
     1153
280
     0
281
     0
  0
CLASS
  1
TABLESTYLE
  2
AcDbTableStyle
  3
ObjectDBX Classes
 90
     4095
280
     0
281
     0
  0
CLASS
  1
MLEADERSTYLE
  2
AcDbMLeaderStyle
  3
ACDB_MLEADERSTYLE_CLASS
 90
     4095
280
     0
281
     0
  0
CLASS
  1
DICTIONARYVAR
  2
AcDbDictionaryVar
  3
ObjectDBX Classes
 90
        0
280
     0
281
     0
  0
CLASS
  1
CELLSTYLEMAP
  2
AcDbCellStyleMap
  3
ObjectDBX Classes
 90
     1152
280
     0
281
     0
  0
CLASS
  1
ACDBPLACEHOLDER
  2
AcDbPlaceHolder
  3
ObjectDBX Classes
 90
        0
280
     0
281
     0
  0
CLASS
  1
LAYOUT
  2
AcDbLayout
  3
ObjectDBX Classes
 90
        0
280
     0
281
     0
  0
ENDSEC
  0
SECTION
  2
TABLES
  0
TABLE
  2
VPORT
  5
19F
330
0
100
AcDbSymbolTable
 70
     1
  0
VPORT
  5
20F
330
19F
100
AcDbSymbolTableRecord
100
AcDbViewportTableRecord
  2
*ACTIVE
 70
     0
 10
0.0
 20
0.0
 11
1.0
 21
1.0
 12
-5.316781042333673
 22
18.35207978637271
 13
0.0
 23
0.0
 14
0.5
 24
0.5
 15
0.5
 25
0.5
 16
0.0
 26
0.0
 36
1.0
 17
0.0
 27
0.0
 37
0.0
 40
434.8447717531723
 41
2.492156862745098
 42
50.0
 43
0.0
 44
0.0
 50
0.0
 51
0.0
 71
     0
 72
   100
 73
     1
 74
     3
 75
     0
 76
     0
 77
     0
 78
     0
281
     0
 65
     1
110
0.0
120
0.0
130
0.0
111
1.0
121
0.0
131
0.0
112
0.0
122
1.0
132
0.0
 79
     0
146
0.0
  0
ENDTAB
  0
TABLE
  2
LTYPE
  5
19C
330
0
100
AcDbSymbolTable
 70
     2
  0
LTYPE
  5
1F9
330
19C
100
AcDbSymbolTableRecord
100
AcDbLinetypeTableRecord
  2
ByBlock
 70
     0
  3

 72
    65
 73
     0
 40
0.0
  0
LTYPE
  5
1FA
330
19C
100
AcDbSymbolTableRecord
100
AcDbLinetypeTableRecord
  2
ByLayer
 70
     0
  3

 72
    65
 73
     0
 40
0.0
  0
LTYPE
  5
1FB
330
19C
100
AcDbSymbolTableRecord
100
AcDbLinetypeTableRecord
  2
CONTINUOUS
 70
     0
  3
Solid line
 72
    65
 73
     0
 40
0.0
  0
LTYPE
  5
210
330
19C
100
AcDbSymbolTableRecord
100
AcDbLinetypeTableRecord
  2
CONTINUOUS2
 70
     0
  3
Solid Line
 72
    65
 73
     0
 40
0.0
  0
ENDTAB
  0
TABLE
  2
LAYER
  5
199
330
0
100
AcDbSymbolTable
 70
     1
  0
LAYER
  5
1F3
102
{ACAD_XDICTIONARY
360
217
102
}
330
199
100
AcDbSymbolTableRecord
100
AcDbLayerTableRecord
  2
0
 70
     0
 62
     7
  6
CONTINUOUS
370
    -3
390
1A6
  0
ENDTAB
  0
TABLE
  2
STYLE
  5
19A
330
0
100
AcDbSymbolTable
 70
     2
  0
STYLE
  5
1F4
330
19A
100
AcDbSymbolTableRecord
100
AcDbTextStyleTableRecord
  2
STANDARD
 70
     0
 40
0.0
 41
1.0
 50
0.0
 71
     0
 42
0.2
  3
txt
  4

  0
STYLE
  5
1F8
330
19A
100
AcDbSymbolTableRecord
100
AcDbTextStyleTableRecord
  2
Annotative
 70
     0
 40
0.0
 41
1.0
 50
0.0
 71
     0
 42
0.2
  3
txt
  4

1001
AcadAnnotative
1000
AnnotativeData
1002
{
1070
     1
1070
     1
1002
}
  0
ENDTAB
  0
TABLE
  2
VIEW
  5
19D
330
0
100
AcDbSymbolTable
 70
     0
  0
ENDTAB
  0
TABLE
  2
UCS
  5
19E
330
0
100
AcDbSymbolTable
 70
     0
  0
ENDTAB
  0
TABLE
  2
APPID
  5
1A0
330
0
100
AcDbSymbolTable
 70
     3
  0
APPID
  5
1F5
330
1A0
100
AcDbSymbolTableRecord
100
AcDbRegAppTableRecord
  2
ACAD
 70
     0
  0
APPID
  5
1FC
330
1A0
100
AcDbSymbolTableRecord
100
AcDbRegAppTableRecord
  2
AcadAnnotative
 70
     0
  0
APPID
  5
206
330
1A0
100
AcDbSymbolTableRecord
100
AcDbRegAppTableRecord
  2
ACAD_MLEADERVER
 70
     0
  0
ENDTAB
  0
TABLE
  2
DIMSTYLE
  5
1A1
330
0
100
AcDbSymbolTable
 70
     2
100
AcDbDimStyleTable
 71
     0
  0
DIMSTYLE
105
1F6
330
1A1
100
AcDbSymbolTableRecord
100
AcDbDimStyleTableRecord
  2
STANDARD
 70
     0
279
     2
340
1F4
  0
DIMSTYLE
105
1F7
330
1A1
100
AcDbSymbolTableRecord
100
AcDbDimStyleTableRecord
  2
Annotative
 70
     0
340
1F4
1001
AcadAnnotative
1000
AnnotativeData
1002
{
1070
     1
1070
     1
1002
}
  0
ENDTAB
  0
TABLE
  2
BLOCK_RECORD
  5
198
330
0
100
AcDbSymbolTable
 70
     2
  0
BLOCK_RECORD
  5
20B
330
198
100
AcDbSymbolTableRecord
100
AcDbBlockTableRecord
  2
*Model_Space
340
20E
  0
BLOCK_RECORD
  5
207
330
198
100
AcDbSymbolTableRecord
100
AcDbBlockTableRecord
  2
*Paper_Space
340
20A
  0
BLOCK_RECORD
  5
212
330
198
100
AcDbSymbolTableRecord
100
AcDbBlockTableRecord
  2
$MODEL_SPACE
340
0
  0
BLOCK_RECORD
  5
214
330
198
100
AcDbSymbolTableRecord
100
AcDbBlockTableRecord
  2
$PAPER_SPACE
340
0
  0
ENDTAB
  0
ENDSEC
  0
SECTION
  2
BLOCKS
  0
BLOCK
  5
20C
330
20B
100
AcDbEntity
  8
0
100
AcDbBlockBegin
  2
*Model_Space
 70
     0
 10
0.0
 20
0.0
 30
0.0
  3
*Model_Space
  1

  0
ENDBLK
  5
20D
330
20B
100
AcDbEntity
  8
0
100
AcDbBlockEnd
  0
BLOCK
  5
208
330
207
100
AcDbEntity
 67
     1
  8
0
100
AcDbBlockBegin
  2
*Paper_Space
 70
     0
 10
0.0
 20
0.0
 30
0.0
  3
*Paper_Space
  1

  0
ENDBLK
  5
209
330
207
100
AcDbEntity
 67
     1
  8
0
100
AcDbBlockEnd
  0
BLOCK
  5
213
330
212
100
AcDbEntity
  8
0
100
AcDbBlockBegin
  2
$MODEL_SPACE
 70
     0
 10
0.0
 20
0.0
 30
0.0
  3
$MODEL_SPACE
  1

  0
ENDBLK
  5
21
330
212
100
AcDbEntity
  8
0
100
AcDbBlockEnd
  0
BLOCK
  5
215
330
214
100
AcDbEntity
  8
0
100
AcDbBlockBegin
  2
$PAPER_SPACE
 70
     0
 10
0.0
 20
0.0
 30
0.0
  3
$PAPER_SPACE
  1

  0
ENDBLK
  5
1D
330
214
100
AcDbEntity
  8
0
100
AcDbBlockEnd
  0
ENDSEC
  0
SECTION
  2
ENTITIES
  0
LWPOLYLINE
  5
40
330
20B
100
AcDbEntity
  8
0
100
AcDbPolyline
 90
      337
 70
     1
 43
0.0
 10
-500.0000624779685
 20
-18.74982812371093
 10
-468.7504531058983
 20
-18.74982812371093
 10
-468.7504531058983
 20
6.250046875351586
 10
-475.0003124798436
 20
6.250046875351586
 10
-475.0004999812498
 20
-12.49984374882811
 10
-493.7502031040232
 20
-12.49984374882811
 10
-493.7502031040232
 20
25.0
 10
-450.0004374807812
 20
25.0
 10
-450.0004374807812
 20
-18.74982812371093
 10
-418.7507031077733
 20
-18.74982812371093
 10
-418.7507031077733
 20
6.250046875351586
 10
-425.0004999812498
 20
6.250046875351586
 10
-425.000687482656
 20
-12.49984374882811
 10
-443.7504531058983
 20
-12.49984374882811
 10
-443.7504531058983
 20
25.0
 10
-400.000687482656
 20
24.9998749990625
 10
-400.0006562324217
 20
-18.74985937394531
 10
-368.7509531096483
 20
-18.74989062417968
 10
-368.7509531096483
 20
6.249984374882826
 10
-375.0008749840624
 20
6.249984374882826
 10
-375.0010624854686
 20
-12.49996874976561
 10
-393.750765608242
 20
-12.49996874976561
 10
-393.750765608242
 20
24.9998749990625
 10
-350.0009999849999
 20
24.9998749990625
 10
-350.0009999849999
 20
-18.74989062417968
 10
-318.7512656119921
 20
-18.74989062417968
 10
-318.7512656119921
 20
6.249984374882826
 10
-325.0010624854687
 20
6.249984374882826
 10
-325.0012499868749
 20
-12.49996874976561
 10
-343.7510156101171
 20
-12.49996874976561
 10
-343.7510156101171
 20
24.9998749990625
 10
-300.0012499868748
 20
24.99981249859374
 10
-300.0001913928075
 20
-18.74982812496583
 10
-268.7495781143359
 20
-18.74982812371093
 10
-268.7495781143359
 20
6.250046875351586
 10
-274.9994374882811
 20
6.250046875351586
 10
-274.9996249896873
 20
-12.49984374882811
 10
-293.7493281124609
 20
-12.49984374882811
 10
-293.7493281124609
 20
25.0
 10
-249.9995624892187
 20
25.0
 10
-249.9995624892187
 20
-18.74982812371093
 10
-218.7498281162108
 20
-18.74982812371093
 10
-218.7498281162108
 20
6.250046875351586
 10
-224.9996249896873
 20
6.250046875351586
 10
-224.9998124910937
 20
-12.49984374882811
 10
-243.7496406148046
 20
-12.49984374882811
 10
-243.7496406148046
 20
25.0
 10
-199.9998749915624
 20
24.9998749990625
 10
-199.9998749915624
 20
-18.74982812371093
 10
-168.750265619492
 20
-18.74982812371093
 10
-168.750265619492
 20
6.250046875351586
 10
-175.0001249934373
 20
6.250046875351586
 10
-175.0003124948437
 20
-12.49984374882811
 10
-193.7500156176171
 20
-12.49984374882811
 10
-193.7500156176171
 20
25.0
 10
-150.0002499943749
 20
25.0
 10
-150.0002499943749
 20
-18.74982812371093
 10
-118.7505156213672
 20
-18.74982812371093
 10
-118.7505156213672
 20
6.250046875351586
 10
-125.0003124948437
 20
6.250046875351586
 10
-125.00049999625
 20
-12.49984374882811
 10
-143.750265619492
 20
-12.49984374882811
 10
-143.750265619492
 20
25.0
 10
-100.00049999625
 20
24.9998749990625
 10
-100.0004687460155
 20
-18.74985937394531
 10
-68.75076562324204
 20
-18.74989062417968
 10
-68.75076562324204
 20
6.249984374882826
 10
-75.00068749765614
 20
6.249984374882826
 10
-75.00087499906247
 20
-12.49996874976561
 10
-93.75057812183589
 20
-12.49996874976561
 10
-93.75057812183589
 20
24.9998749990625
 10
-50.00081249859368
 20
24.9998749990625
 10
-50.00081249859368
 20
-18.74989062417968
 10
-18.75107812558588
 20
-18.74989062417968
 10
-18.75107812558588
 20
6.249984374882826
 10
-25.00087499906249
 20
6.249984374882826
 10
-25.00106250046866
 20
-12.49996874976561
 10
-43.75082812371085
 20
-12.49996874976561
 10
-43.75082812371085
 20
24.9998749990625
 10
-0.0010625004686631
 20
24.99981249859374
 10
-0.000003906401389
 20
-18.74982812496583
 10
31.25060937207036
 20
-18.74982812371093
 10
31.25060937207036
 20
6.250046875351586
 10
25.00074999812495
 20
6.250046875351586
 10
25.00056249671871
 20
-12.49984374882811
 10
6.250859373945161
 20
-12.49984374882811
 10
6.250859373945161
 20
25.0
 10
50.00062499718747
 20
25.0
 10
50.00062499718747
 20
-18.74982812371093
 10
81.25035937019521
 20
-18.74982812371093
 10
81.25035937019521
 20
6.250046875351586
 10
75.0005624967187
 20
6.250046875351586
 10
75.00037499531249
 20
-12.49984374882811
 10
56.25054687160156
 20
-12.49984374882811
 10
56.25054687160156
 20
25.0
 10
100.0003124948437
 20
24.9998749990625
 10
100.0003124948437
 20
-18.74982812371093
 10
131.249921866914
 20
-18.74982812371093
 10
131.249921866914
 20
6.250046875351586
 10
125.0000624929687
 20
6.250046875351586
 10
124.9998749915624
 20
-12.49984374882811
 10
106.250171868789
 20
-12.49984374882811
 10
106.250171868789
 20
25.0
 10
149.9999374920312
 20
25.0
 10
149.9999374920312
 20
-18.74982812371093
 10
181.249671865039
 20
-18.74982812371093
 10
181.249671865039
 20
6.250046875351586
 10
174.9998749915624
 20
6.250046875351586
 10
174.9996874901562
 20
-12.49984374882811
 10
156.249921866914
 20
-12.49984374882811
 10
156.249921866914
 20
25.0
 10
199.9996874901562
 20
24.9998749990625
 10
199.9997187403906
 20
-18.74985937394531
 10
231.2494218631641
 20
-18.74989062417968
 10
231.2494218631641
 20
6.249984374882826
 10
224.99949998875
 20
6.249984374882826
 10
224.9993124873437
 20
-12.49996874976561
 10
206.2496093645703
 20
-12.49996874976561
 10
206.2496093645703
 20
24.9998749990625
 10
249.9993749878125
 20
24.9998749990625
 10
249.9993749878125
 20
-18.74989062417968
 10
281.2491093608202
 20
-18.74989062417968
 10
281.2491093608202
 20
6.249984374882826
 10
274.9993124873437
 20
6.249984374882826
 10
274.9991249859375
 20
-12.49996874976561
 10
256.2493593626953
 20
-12.49996874976561
 10
256.2493593626953
 20
24.9998749990625
 10
299.9991249859375
 20
24.99981249859374
 10
300.0001835800048
 20
-18.74982812496583
 10
331.2507968584764
 20
-18.74982812371093
 10
331.2507968584764
 20
6.250046875351586
 10
325.0009374845312
 20
6.250046875351586
 10
325.000749983125
 20
-12.49984374882811
 10
306.2510468603514
 20
-12.49984374882811
 10
306.2510468603514
 20
25.0
 10
350.0008124835936
 20
25.0
 10
350.0008124835936
 20
-18.74982812371093
 10
381.2505468566015
 20
-18.74982812371093
 10
381.2505468566015
 20
6.250046875351586
 10
375.000749983125
 20
6.250046875351586
 10
375.0005624817186
 20
-12.49984374882811
 10
356.2507343580076
 20
-12.49984374882811
 10
356.2507343580076
 20
25.0
 10
400.0004999812498
 20
24.9998749990625
 10
400.0004999812498
 20
-18.74982812371093
 10
431.2501093533201
 20
-18.74982812371093
 10
431.2501093533201
 20
6.250046875351586
 10
425.0002499793748
 20
6.250046875351586
 10
425.0000624779686
 20
-12.49984374882811
 10
406.2503593551952
 20
-12.49984374882811
 10
406.2503593551952
 20
25.0
 10
450.0001249784373
 20
25.0
 10
450.0001249784373
 20
-18.74982812371093
 10
481.2498593514451
 20
-18.74982812371093
 10
481.2498593514451
 20
6.250046875351586
 10
475.0000624779686
 20
6.250046875351586
 10
474.9998749765623
 20
-12.49984374882811
 10
456.2501093533201
 20
-12.49984374882811
 10
456.2501093533201
 20
25.0
 10
499.9998749765623
 20
24.9998749990625
 10
499.9999062267967
 20
-18.74985937394531
 10
500.0
 20
-18.74985937403909
 10
500.0
 20
-24.9998749990625
 10
499.9999374770311
 20
-24.9998749990625
 10
493.7498906016796
 20
-24.9998749990625
 10
493.7497656007421
 20
18.75014062605473
 10
462.5334064780487
 20
18.75001562511721
 10
462.5000312277343
 20
-6.249859373945299
 10
468.7500156026171
 20
-6.249859373945299
 10
468.7500156026171
 20
12.50003125023439
 10
487.4999062267967
 20
12.50003125023439
 10
487.4999062267967
 20
-24.99981249859374
 10
443.7501406035545
 20
-24.99981249859374
 10
443.7501406035545
 20
18.75001562511721
 10
412.500343730078
 20
18.75001562511721
 10
412.500343730078
 20
-6.249859373945299
 10
418.7502031040232
 20
-6.249859373945299
 10
418.7502031040232
 20
12.50003125023439
 10
437.5002187291404
 20
12.50003125023439
 10
437.5002187291404
 20
-24.99981249859374
 10
400.0005624817186
 20
-24.99984374882813
 10
393.7505156063672
 20
-24.9998749990625
 10
393.7504531058983
 20
18.75014062605473
 10
362.534093983205
 20
18.75001562511721
 10
362.5007187328906
 20
-6.249859373945299
 10
368.7507031077733
 20
-6.249859373945299
 10
368.7507031077733
 20
12.50003125023439
 10
387.5005937319532
 20
12.50003125023439
 10
387.5005937319532
 20
-24.99981249859374
 10
343.7508281087108
 20
-24.99981249859374
 10
343.7508281087108
 20
18.75001562511721
 10
312.5010312352343
 20
18.75001562511721
 10
312.5010312352343
 20
-6.249859373945299
 10
318.7508906091796
 20
-6.249859373945299
 10
318.7508906091796
 20
12.50003125023439
 10
337.500843733828
 20
12.50003125023439
 10
337.500843733828
 20
-24.99981249859374
 10
300.000187486289
 20
-24.99981249984376
 10
299.9991874864061
 20
-25.0
 10
293.7491406110547
 20
-25.0
 10
293.7490156101172
 20
18.75001562511721
 10
262.5326564874237
 20
18.7498906241797
 10
262.499343737578
 20
-6.249984374882799
 10
268.7492656119921
 20
-6.249984374882799
 10
268.7492656119921
 20
12.49996874976564
 10
287.4991562361718
 20
12.49996874976564
 10
287.4991562361718
 20
-24.9998749990625
 10
243.7493906129296
 20
-24.9998749990625
 10
243.7493906129296
 20
18.7498906241797
 10
212.499593739453
 20
18.7498906241797
 10
212.499593739453
 20
-6.249984374882799
 10
218.7494531133984
 20
-6.249984374882799
 10
218.7494531133984
 20
12.49996874976564
 10
237.4994687385155
 20
12.49996874976564
 10
237.4994687385155
 20
-24.9998749990625
 10
199.9997499906249
 20
-24.9998749990625
 10
193.7497031152733
 20
-24.9998749990625
 10
193.7495781143359
 20
18.75014062605473
 10
162.5332189916424
 20
18.75001562511721
 10
162.4998437413281
 20
-6.249859373945299
 10
168.7498281162109
 20
-6.249859373945299
 10
168.7498281162109
 20
12.50003125023439
 10
187.4997187403906
 20
12.50003125023439
 10
187.4997187403906
 20
-24.99981249859374
 10
143.7499531171484
 20
-24.99981249859374
 10
143.7499531171484
 20
18.75001562511721
 10
112.5001562436718
 20
18.75001562511721
 10
112.5001562436718
 20
-6.249859373945299
 10
118.7500156176172
 20
-6.249859373945299
 10
118.7500156176172
 20
12.50003125023439
 10
137.5000312427343
 20
12.50003125023439
 10
137.5000312427343
 20
-24.99981249859374
 10
100.0003749953125
 20
-24.99984374882813
 10
93.7503281199609
 20
-24.9998749990625
 10
93.75026561949216
 20
18.75014062605473
 10
62.53390649679875
 20
18.75001562511721
 10
62.50053124648446
 20
-6.249859373945299
 10
68.75051562136713
 20
-6.249859373945299
 10
68.75051562136713
 20
12.50003125023439
 10
87.5004062455468
 20
12.50003125023439
 10
87.5004062455468
 20
-24.99981249859374
 10
43.75064062230462
 20
-24.99981249859374
 10
43.75064062230462
 20
18.75001562511721
 10
12.50084374882806
 20
18.75001562511721
 10
12.50084374882806
 20
-6.249859373945299
 10
18.75070312277336
 20
-6.249859373945299
 10
18.75070312277336
 20
12.50003125023439
 10
37.50065624742183
 20
12.50003125023439
 10
37.50065624742183
 20
-24.99981249859374
 10
-0.0000000001171543
 20
-24.99981249984376
 10
-0.0009999999999764
 20
-25.0
 10
-6.251046875351449
 20
-25.0
 10
-6.251171876288935
 20
18.75001562511721
 10
-37.46753099898234
 20
18.7498906241797
 10
-37.50084374882796
 20
-6.249984374882799
 10
-31.25092187441396
 20
-6.249984374882799
 10
-31.25092187441396
 20
12.49996874976564
 10
-12.50103125023429
 20
12.49996874976564
 10
-12.50103125023429
 20
-24.9998749990625
 10
-56.25079687347646
 20
-24.9998749990625
 10
-56.25079687347646
 20
18.7498906241797
 10
-87.50059374695309
 20
18.7498906241797
 10
-87.50059374695309
 20
-6.249984374882799
 10
-81.25073437300779
 20
-6.249984374882799
 10
-81.25073437300779
 20
12.49996874976564
 10
-62.50071874789057
 20
12.49996874976564
 10
-62.50071874789057
 20
-24.9998749990625
 10
-100.0004374957812
 20
-24.9998749990625
 10
-106.2504843711326
 20
-24.9998749990625
 10
-106.2506093720702
 20
18.75014062605473
 10
-137.4669684947636
 20
18.75001562511721
 10
-137.5003437450781
 20
-6.249859373945299
 10
-131.2503593701952
 20
-6.249859373945299
 10
-131.2503593701952
 20
12.50003125023439
 10
-112.5004687460155
 20
12.50003125023439
 10
-112.5004687460155
 20
-24.99981249859374
 10
-156.2502343692578
 20
-24.99981249859374
 10
-156.2502343692578
 20
18.75001562511721
 10
-187.5000312427343
 20
18.75001562511721
 10
-187.5000312427343
 20
-6.249859373945299
 10
-181.2501718687889
 20
-6.249859373945299
 10
-181.2501718687889
 20
12.50003125023439
 10
-162.5001562436718
 20
12.50003125023439
 10
-162.5001562436718
 20
-24.99981249859374
 10
-199.9998124910937
 20
-24.99984374882813
 10
-206.2498593664452
 20
-24.9998749990625
 10
-206.249921866914
 20
18.75014062605473
 10
-237.4662809896074
 20
18.75001562511721
 10
-237.4996562399218
 20
-6.249859373945299
 10
-231.249671865039
 20
-6.249859373945299
 10
-231.249671865039
 20
12.50003125023439
 10
-212.4997812408592
 20
12.50003125023439
 10
-212.4997812408592
 20
-24.99981249859374
 10
-256.2495468641014
 20
-24.99981249859374
 10
-256.2495468641014
 20
18.75001562511721
 10
-287.499343737578
 20
18.75001562511721
 10
-287.499343737578
 20
-6.249859373945299
 10
-281.2494843636327
 20
-6.249859373945299
 10
-281.2494843636327
 20
12.50003125023439
 10
-262.4995312389843
 20
12.50003125023439
 10
-262.4995312389843
 20
-24.99981249859374
 10
-300.0001874865234
 20
-24.99981249984376
 10
-300.0011874864062
 20
-25.0
 10
-306.2512343617577
 20
-25.0
 10
-306.2513593626952
 20
18.75001562511721
 10
-337.4677184853887
 20
18.7498906241797
 10
-337.5010312352343
 20
-6.249984374882799
 10
-331.2511093608202
 20
-6.249984374882799
 10
-331.2511093608202
 20
12.49996874976564
 10
-312.5012187366405
 20
12.49996874976564
 10
-312.5012187366405
 20
-24.9998749990625
 10
-356.2509843598826
 20
-24.9998749990625
 10
-356.2509843598826
 20
18.7498906241797
 10
-387.5007812333593
 20
18.7498906241797
 10
-387.5007812333593
 20
-6.249984374882799
 10
-381.2509218594139
 20
-6.249984374882799
 10
-381.2509218594139
 20
12.49996874976564
 10
-362.5009062342968
 20
12.49996874976564
 10
-362.5009062342968
 20
-24.9998749990625
 10
-400.0006249821873
 20
-24.9998749990625
 10
-406.250671857539
 20
-24.9998749990625
 10
-406.2507968584764
 20
18.75014062605473
 10
-437.4671559811698
 20
18.75001562511721
 10
-437.5005312314842
 20
-6.249859373945299
 10
-431.2505468566014
 20
-6.249859373945299
 10
-431.2505468566014
 20
12.50003125023439
 10
-412.5006562324217
 20
12.50003125023439
 10
-412.5006562324217
 20
-24.99981249859374
 10
-456.2504218556639
 20
-24.99981249859374
 10
-456.2504218556639
 20
18.75001562511721
 10
-487.5002187291404
 20
18.75001562511721
 10
-487.5002187291404
 20
-6.249859373945299
 10
-481.2503593551951
 20
-6.249859373945299
 10
-481.2503593551951
 20
12.50003125023439
 10
-462.500343730078
 20
12.50003125023439
 10
-462.500343730078
 20
-24.99981249859374
 10
-499.9999999774998
 20
-24.99984374882813
  0
ENDSEC
  0
SECTION
  2
OBJECTS
  0
DICTIONARY
  5
1A3
330
0
100
AcDbDictionary
281
     1
  3
ACAD_COLOR
350
201
  3
ACAD_GROUP
350
1A4
  3
ACAD_LAYOUT
350
200
  3
ACAD_MATERIAL
350
1A7
  3
ACAD_MLEADERSTYLE
350
204
  3
ACAD_MLINESTYLE
350
1FD
  3
ACAD_PLOTSETTINGS
350
1FF
  3
ACAD_PLOTSTYLENAME
350
1A5
  3
ACAD_SCALELIST
350
1D1
  3
ACAD_TABLESTYLE
350
202
  3
ACAD_VISUALSTYLE
350
1C0
  3
ACDB_RECOMPOSE_DATA
350
222
  3
AcDbVariableDictionary
350
219
  3
DWGPROPS
350
223
  0
DICTIONARY
  5
217
330
1F3
100
AcDbDictionary
280
     1
281
     1
  3
ADSK_XREC_LAYER_RECONCILED
360
218
  0
DICTIONARY
  5
201
102
{ACAD_REACTORS
330
1A3
102
}
330
1A3
100
AcDbDictionary
281
     1
  0
DICTIONARY
  5
1A4
102
{ACAD_REACTORS
330
1A3
102
}
330
1A3
100
AcDbDictionary
281
     1
  0
DICTIONARY
  5
200
102
{ACAD_REACTORS
330
1A3
102
}
330
1A3
100
AcDbDictionary
281
     1
  3
Model
350
20E
  3
Présentation1
350
20A
  0
DICTIONARY
  5
1A7
102
{ACAD_REACTORS
330
1A3
102
}
330
1A3
100
AcDbDictionary
281
     1
  3
ByBlock
350
1B0
  3
ByLayer
350
1A8
  3
Global
350
1B8
  0
DICTIONARY
  5
204
102
{ACAD_REACTORS
330
1A3
102
}
330
1A3
100
AcDbDictionary
281
     1
  3
Standard
350
205
  0
DICTIONARY
  5
1FD
102
{ACAD_REACTORS
330
1A3
102
}
330
1A3
100
AcDbDictionary
281
     1
  3
Standard
350
1FE
  0
DICTIONARY
  5
1FF
102
{ACAD_REACTORS
330
1A3
102
}
330
1A3
100
AcDbDictionary
281
     1
  0
ACDBDICTIONARYWDFLT
  5
1A5
102
{ACAD_REACTORS
330
1A3
102
}
330
1A3
100
AcDbDictionary
281
     1
  3
Normal
350
1A6
100
AcDbDictionaryWithDefault
340
1A6
  0
DICTIONARY
  5
1D1
102
{ACAD_REACTORS
330
1A3
102
}
330
1A3
100
AcDbDictionary
281
     1
  3
A0
350
1D2
  3
A1
350
1D3
  3
A2
350
1D4
  3
A3
350
1D5
  3
A4
350
1D6
  3
A5
350
1D7
  3
A6
350
1D8
  3
A7
350
1D9
  3
A8
350
1DA
  3
A9
350
1DB
  3
B0
350
1DC
  3
B1
350
1DD
  3
B2
350
1DE
  3
B3
350
1DF
  3
B4
350
1E0
  3
B5
350
1E1
  3
B6
350
1E2
  3
B7
350
1E3
  3
B8
350
1E4
  3
B9
350
1E5
  3
C0
350
1E6
  3
C1
350
1E7
  3
C2
350
1E8
  3
C3
350
1E9
  3
C4
350
1EA
  3
C5
350
1EB
  3
C6
350
1EC
  3
C7
350
1ED
  3
C8
350
1EE
  3
C9
350
1EF
  3
D0
350
1F0
  3
D1
350
1F1
  3
D2
350
1F2
  0
DICTIONARY
  5
202
102
{ACAD_REACTORS
330
1A3
102
}
330
1A3
100
AcDbDictionary
281
     1
  3
Standard
350
203
  0
DICTIONARY
  5
1C0
102
{ACAD_REACTORS
330
1A3
102
}
330
1A3
100
AcDbDictionary
281
     1
  3
2dWireframe
350
1C6
  3
3D Hidden
350
1C8
  3
3dWireframe
350
1C7
  3
Basic
350
1C5
  3
Brighten
350
1CC
  3
ColorChange
350
1D0
  3
Conceptual
350
1C9
  3
Dim
350
1CB
  3
Facepattern
350
1CF
  3
Flat
350
1C1
  3
FlatWithEdges
350
1C2
  3
Gouraud
350
1C3
  3
GouraudWithEdges
350
1C4
  3
Linepattern
350
1CE
  3
Realistic
350
1CA
  3
Thicken
350
1CD
  0
XRECORD
  5
222
102
{ACAD_REACTORS
330
1A3
102
}
330
1A3
100
AcDbXrecord
280
     1
 90
        1
330
203
  0
DICTIONARY
  5
219
102
{ACAD_REACTORS
330
1A3
102
}
330
1A3
100
AcDbDictionary
281
     1
  3
CANNOSCALE
350
21C
  3
CMLEADERSTYLE
350
21B
  3
CTABLESTYLE
350
21A
  3
DIMASSOC
350
21F
  3
INDEXCTL
350
21E
  3
SORTENTS
350
21D
  0
XRECORD
  5
223
102
{ACAD_REACTORS
330
1A3
102
}
330
1A3
100
AcDbXrecord
280
     1
  1
DWGPROPS COOKIE
  2

  3

  4

  6

  7

  8
user
  9

300
=
301
=
302
=
303
=
304
=
305
=
306
=
307
=
308
=
309
=
 40
0.0002007175925926
 41
2454910.5
 42
2457346.853942986
  1

 90
        0
  0
XRECORD
  5
218
102
{ACAD_REACTORS
330
217
102
}
330
217
100
AcDbXrecord
280
     1
290
     1
  0
LAYOUT
  5
20E
102
{ACAD_XDICTIONARY
360
22A
102
}
102
{ACAD_REACTORS
330
200
102
}
330
200
100
AcDbPlotSettings
  1

  2
CutePDF Writer
  4

  6

 40
0.0
 41
0.0
 42
0.0
 43
0.0
 44
0.0
 45
0.0
 46
0.0
 47
0.0
 48
0.0
 49
0.0
140
0.0
141
0.0
142
1.0
143
1.0
 70
  1712
 72
     0
 73
     0
 74
     0
  7

 75
     0
147
1.0
148
0.0
149
0.0
100
AcDbLayout
  1
Model
 70
     1
 71
     0
 10
0.0
 20
0.0
 11
12.0
 21
9.0
 12
0.0
 22
0.0
 32
0.0
 14
0.0
 24
0.0
 34
0.0
 15
0.0
 25
0.0
 35
0.0
146
0.0
 13
0.0
 23
0.0
 33
0.0
 16
1.0
 26
0.0
 36
0.0
 17
0.0
 27
1.0
 37
0.0
 76
     0
330
20B
331
20F
  0
LAYOUT
  5
20A
102
{ACAD_XDICTIONARY
360
228
102
}
102
{ACAD_REACTORS
330
200
102
}
330
200
100
AcDbPlotSettings
  1

  2
CutePDF Writer
  4

  6

 40
0.0
 41
0.0
 42
0.0
 43
0.0
 44
0.0
 45
0.0
 46
0.0
 47
0.0
 48
0.0
 49
0.0
140
0.0
141
0.0
142
1.0
143
1.0
 70
   688
 72
     0
 73
     0
 74
     5
  7

 75
    16
147
1.0
148
0.0
149
0.0
100
AcDbLayout
  1
Présentation1
 70
     1
 71
     1
 10
0.0
 20
0.0
 11
12.0
 21
9.0
 12
0.0
 22
0.0
 32
0.0
 14
1.000000000000000E+20
 24
1.000000000000000E+20
 34
1.000000000000000E+20
 15
-1.000000000000000E+20
 25
-1.000000000000000E+20
 35
-1.000000000000000E+20
146
0.0
 13
0.0
 23
0.0
 33
0.0
 16
1.0
 26
0.0
 36
0.0
 17
0.0
 27
1.0
 37
0.0
 76
     0
330
207
  0
MATERIAL
  5
1B0
102
{ACAD_XDICTIONARY
360
1B1
102
}
102
{ACAD_REACTORS
330
1A7
102
}
330
1A7
100
AcDbMaterial
  1
ByBlock
 72
     0
 43
0.0208333333333333
 43
0.0
 43
0.0
 43
0.0
 43
0.0
 43
0.0208333333333333
 43
0.0
 43
0.0
 43
0.0
 43
0.0
 43
1.0
 43
0.0
 43
0.0
 43
0.0
 43
0.0
 43
1.0
 77
     0
 47
0.0208333333333333
 47
0.0
 47
0.0
 47
0.0
 47
0.0
 47
0.0208333333333333
 47
0.0
 47
0.0
 47
0.0
 47
0.0
 47
1.0
 47
0.0
 47
0.0
 47
0.0
 47
0.0
 47
1.0
171
     0
 49
0.0208333333333333
 49
0.0
 49
0.0
 49
0.0
 49
0.0
 49
0.0208333333333333
 49
0.0
 49
0.0
 49
0.0
 49
0.0
 49
1.0
 49
0.0
 49
0.0
 49
0.0
 49
0.0
 49
1.0
175
     0
142
0.0208333333333333
142
0.0
142
0.0
142
0.0
142
0.0
142
0.0208333333333333
142
0.0
142
0.0
142
0.0
142
0.0
142
1.0
142
0.0
142
0.0
142
0.0
142
0.0
142
1.0
179
     0
144
0.0208333333333333
144
0.0
144
0.0
144
0.0
144
0.0
144
0.0208333333333333
144
0.0
144
0.0
144
0.0
144
0.0
144
1.0
144
0.0
144
0.0
144
0.0
144
0.0
144
1.0
147
0.0208333333333333
147
0.0
147
0.0
147
0.0
147
0.0
147
0.0208333333333333
147
0.0
147
0.0
147
0.0
147
0.0
147
1.0
147
0.0
147
0.0
147
0.0
147
0.0
147
1.0
  0
MATERIAL
  5
1A8
102
{ACAD_XDICTIONARY
360
1A9
102
}
102
{ACAD_REACTORS
330
1A7
102
}
330
1A7
100
AcDbMaterial
  1
ByLayer
 72
     0
 43
0.0208333333333333
 43
0.0
 43
0.0
 43
0.0
 43
0.0
 43
0.0208333333333333
 43
0.0
 43
0.0
 43
0.0
 43
0.0
 43
1.0
 43
0.0
 43
0.0
 43
0.0
 43
0.0
 43
1.0
 77
     0
 47
0.0208333333333333
 47
0.0
 47
0.0
 47
0.0
 47
0.0
 47
0.0208333333333333
 47
0.0
 47
0.0
 47
0.0
 47
0.0
 47
1.0
 47
0.0
 47
0.0
 47
0.0
 47
0.0
 47
1.0
171
     0
 49
0.0208333333333333
 49
0.0
 49
0.0
 49
0.0
 49
0.0
 49
0.0208333333333333
 49
0.0
 49
0.0
 49
0.0
 49
0.0
 49
1.0
 49
0.0
 49
0.0
 49
0.0
 49
0.0
 49
1.0
175
     0
142
0.0208333333333333
142
0.0
142
0.0
142
0.0
142
0.0
142
0.0208333333333333
142
0.0
142
0.0
142
0.0
142
0.0
142
1.0
142
0.0
142
0.0
142
0.0
142
0.0
142
1.0
179
     0
144
0.0208333333333333
144
0.0
144
0.0
144
0.0
144
0.0
144
0.0208333333333333
144
0.0
144
0.0
144
0.0
144
0.0
144
1.0
144
0.0
144
0.0
144
0.0
144
0.0
144
1.0
147
0.0208333333333333
147
0.0
147
0.0
147
0.0
147
0.0
147
0.0208333333333333
147
0.0
147
0.0
147
0.0
147
0.0
147
1.0
147
0.0
147
0.0
147
0.0
147
0.0
147
1.0
  0
MATERIAL
  5
1B8
102
{ACAD_XDICTIONARY
360
1B9
102
}
102
{ACAD_REACTORS
330
1A7
102
}
330
1A7
100
AcDbMaterial
  1
Global
 72
     0
 43
0.0208333333333333
 43
0.0
 43
0.0
 43
0.0
 43
0.0
 43
0.0208333333333333
 43
0.0
 43
0.0
 43
0.0
 43
0.0
 43
1.0
 43
0.0
 43
0.0
 43
0.0
 43
0.0
 43
1.0
 77
     0
 47
0.0208333333333333
 47
0.0
 47
0.0
 47
0.0
 47
0.0
 47
0.0208333333333333
 47
0.0
 47
0.0
 47
0.0
 47
0.0
 47
1.0
 47
0.0
 47
0.0
 47
0.0
 47
0.0
 47
1.0
171
     0
 49
0.0208333333333333
 49
0.0
 49
0.0
 49
0.0
 49
0.0
 49
0.0208333333333333
 49
0.0
 49
0.0
 49
0.0
 49
0.0
 49
1.0
 49
0.0
 49
0.0
 49
0.0
 49
0.0
 49
1.0
175
     0
142
0.0208333333333333
142
0.0
142
0.0
142
0.0
142
0.0
142
0.0208333333333333
142
0.0
142
0.0
142
0.0
142
0.0
142
1.0
142
0.0
142
0.0
142
0.0
142
0.0
142
1.0
179
     0
144
0.0208333333333333
144
0.0
144
0.0
144
0.0
144
0.0
144
0.0208333333333333
144
0.0
144
0.0
144
0.0
144
0.0
144
1.0
144
0.0
144
0.0
144
0.0
144
0.0
144
1.0
147
0.0208333333333333
147
0.0
147
0.0
147
0.0
147
0.0
147
0.0208333333333333
147
0.0
147
0.0
147
0.0
147
0.0
147
1.0
147
0.0
147
0.0
147
0.0
147
0.0
147
1.0
  0
MLEADERSTYLE
  5
205
102
{ACAD_REACTORS
330
204
102
}
330
204
100
AcDbMLeaderStyle
170
     2
171
     1
172
     0
 90
        2
 40
0.0
 41
0.0
173
     1
 91
-1056964608
340
1F9
 92
       -2
290
     1
 42
0.09
291
     1
 43
0.36
  3
Standard
 44
0.18
300

342
1F4
174
     1
178
     6
175
     1
176
     0
 93
-1056964608
 45
0.18
292
     0
297
     0
 46
0.18
 94
-1056964608
 47
1.0
 49
1.0
140
1.0
293
     1
141
0.0
294
     1
177
     0
142
1.0
295
     0
296
     0
143
0.125
1001
ACAD_MLEADERVER
1070
     2
  0
MLINESTYLE
  5
1FE
102
{ACAD_REACTORS
330
1FD
102
}
330
1FD
100
AcDbMlineStyle
  2
STANDARD
 70
     0
  3

 62
   256
 51
90.0
 52
90.0
 71
     2
 49
0.5
 62
   256
  6
BYLAYER
 49
-0.5
 62
   256
  6
BYLAYER
  0
ACDBPLACEHOLDER
  5
1A6
102
{ACAD_REACTORS
330
1A5
102
}
330
1A5
  0
SCALE
  5
1D2
102
{ACAD_REACTORS
330
1D1
102
}
330
1D1
100
AcDbScale
 70
     0
300
1:1
140
1.0
141
1.0
290
     1
  0
SCALE
  5
1D3
102
{ACAD_REACTORS
330
1D1
102
}
330
1D1
100
AcDbScale
 70
     0
300
1:2
140
1.0
141
2.0
290
     0
  0
SCALE
  5
1D4
102
{ACAD_REACTORS
330
1D1
102
}
330
1D1
100
AcDbScale
 70
     0
300
1:4
140
1.0
141
4.0
290
     0
  0
SCALE
  5
1D5
102
{ACAD_REACTORS
330
1D1
102
}
330
1D1
100
AcDbScale
 70
     0
300
1:5
140
1.0
141
5.0
290
     0
  0
SCALE
  5
1D6
102
{ACAD_REACTORS
330
1D1
102
}
330
1D1
100
AcDbScale
 70
     0
300
1:8
140
1.0
141
8.0
290
     0
  0
SCALE
  5
1D7
102
{ACAD_REACTORS
330
1D1
102
}
330
1D1
100
AcDbScale
 70
     0
300
1:10
140
1.0
141
10.0
290
     0
  0
SCALE
  5
1D8
102
{ACAD_REACTORS
330
1D1
102
}
330
1D1
100
AcDbScale
 70
     0
300
1:16
140
1.0
141
16.0
290
     0
  0
SCALE
  5
1D9
102
{ACAD_REACTORS
330
1D1
102
}
330
1D1
100
AcDbScale
 70
     0
300
1:20
140
1.0
141
20.0
290
     0
  0
SCALE
  5
1DA
102
{ACAD_REACTORS
330
1D1
102
}
330
1D1
100
AcDbScale
 70
     0
300
1:30
140
1.0
141
30.0
290
     0
  0
SCALE
  5
1DB
102
{ACAD_REACTORS
330
1D1
102
}
330
1D1
100
AcDbScale
 70
     0
300
1:40
140
1.0
141
40.0
290
     0
  0
SCALE
  5
1DC
102
{ACAD_REACTORS
330
1D1
102
}
330
1D1
100
AcDbScale
 70
     0
300
1:50
140
1.0
141
50.0
290
     0
  0
SCALE
  5
1DD
102
{ACAD_REACTORS
330
1D1
102
}
330
1D1
100
AcDbScale
 70
     0
300
1:100
140
1.0
141
100.0
290
     0
  0
SCALE
  5
1DE
102
{ACAD_REACTORS
330
1D1
102
}
330
1D1
100
AcDbScale
 70
     0
300
2:1
140
2.0
141
1.0
290
     0
  0
SCALE
  5
1DF
102
{ACAD_REACTORS
330
1D1
102
}
330
1D1
100
AcDbScale
 70
     0
300
4:1
140
4.0
141
1.0
290
     0
  0
SCALE
  5
1E0
102
{ACAD_REACTORS
330
1D1
102
}
330
1D1
100
AcDbScale
 70
     0
300
8:1
140
8.0
141
1.0
290
     0
  0
SCALE
  5
1E1
102
{ACAD_REACTORS
330
1D1
102
}
330
1D1
100
AcDbScale
 70
     0
300
10:1
140
10.0
141
1.0
290
     0
  0
SCALE
  5
1E2
102
{ACAD_REACTORS
330
1D1
102
}
330
1D1
100
AcDbScale
 70
     0
300
100:1
140
100.0
141
1.0
290
     0
  0
SCALE
  5
1E3
102
{ACAD_REACTORS
330
1D1
102
}
330
1D1
100
AcDbScale
 70
     0
300
1/128" = 1'-0"
140
0.0078125
141
12.0
290
     0
  0
SCALE
  5
1E4
102
{ACAD_REACTORS
330
1D1
102
}
330
1D1
100
AcDbScale
 70
     0
300
1/64" = 1'-0"
140
0.015625
141
12.0
290
     0
  0
SCALE
  5
1E5
102
{ACAD_REACTORS
330
1D1
102
}
330
1D1
100
AcDbScale
 70
     0
300
1/32" = 1'-0"
140
0.03125
141
12.0
290
     0
  0
SCALE
  5
1E6
102
{ACAD_REACTORS
330
1D1
102
}
330
1D1
100
AcDbScale
 70
     0
300
1/16" = 1'-0"
140
0.0625
141
12.0
290
     0
  0
SCALE
  5
1E7
102
{ACAD_REACTORS
330
1D1
102
}
330
1D1
100
AcDbScale
 70
     0
300
3/32" = 1'-0"
140
0.09375
141
12.0
290
     0
  0
SCALE
  5
1E8
102
{ACAD_REACTORS
330
1D1
102
}
330
1D1
100
AcDbScale
 70
     0
300
1/8" = 1'-0"
140
0.125
141
12.0
290
     0
  0
SCALE
  5
1E9
102
{ACAD_REACTORS
330
1D1
102
}
330
1D1
100
AcDbScale
 70
     0
300
3/16" = 1'-0"
140
0.1875
141
12.0
290
     0
  0
SCALE
  5
1EA
102
{ACAD_REACTORS
330
1D1
102
}
330
1D1
100
AcDbScale
 70
     0
300
1/4" = 1'-0"
140
0.25
141
12.0
290
     0
  0
SCALE
  5
1EB
102
{ACAD_REACTORS
330
1D1
102
}
330
1D1
100
AcDbScale
 70
     0
300
3/8" = 1'-0"
140
0.375
141
12.0
290
     0
  0
SCALE
  5
1EC
102
{ACAD_REACTORS
330
1D1
102
}
330
1D1
100
AcDbScale
 70
     0
300
1/2" = 1'-0"
140
0.5
141
12.0
290
     0
  0
SCALE
  5
1ED
102
{ACAD_REACTORS
330
1D1
102
}
330
1D1
100
AcDbScale
 70
     0
300
3/4" = 1'-0"
140
0.75
141
12.0
290
     0
  0
SCALE
  5
1EE
102
{ACAD_REACTORS
330
1D1
102
}
330
1D1
100
AcDbScale
 70
     0
300
1" = 1'-0"
140
1.0
141
12.0
290
     0
  0
SCALE
  5
1EF
102
{ACAD_REACTORS
330
1D1
102
}
330
1D1
100
AcDbScale
 70
     0
300
1-1/2" = 1'-0"
140
1.5
141
12.0
290
     0
  0
SCALE
  5
1F0
102
{ACAD_REACTORS
330
1D1
102
}
330
1D1
100
AcDbScale
 70
     0
300
3" = 1'-0"
140
3.0
141
12.0
290
     0
  0
SCALE
  5
1F1
102
{ACAD_REACTORS
330
1D1
102
}
330
1D1
100
AcDbScale
 70
     0
300
6" = 1'-0"
140
6.0
141
12.0
290
     0
  0
SCALE
  5
1F2
102
{ACAD_REACTORS
330
1D1
102
}
330
1D1
100
AcDbScale
 70
     0
300
1'-0" = 1'-0"
140
12.0
141
12.0
290
     0
  0
TABLESTYLE
  5
203
102
{ACAD_XDICTIONARY
360
220
102
}
102
{ACAD_REACTORS
330
202
102
}
330
202
100
AcDbTableStyle
  3
Standard
 70
     0
 71
     0
 40
0.06
 41
0.06
280
     0
281
     0
  7
STANDARD
140
0.18
170
     2
 62
     0
 63
     7
283
     0
274
    -2
284
     1
 64
     0
275
    -2
285
     1
 65
     0
276
    -2
286
     1
 66
     0
277
    -2
287
     1
 67
     0
278
    -2
288
     1
 68
     0
279
    -2
289
     1
 69
     0
  7
STANDARD
140
0.25
170
     5
 62
     0
 63
     7
283
     0
274
    -2
284
     1
 64
     0
275
    -2
285
     1
 65
     0
276
    -2
286
     1
 66
     0
277
    -2
287
     1
 67
     0
278
    -2
288
     1
 68
     0
279
    -2
289
     1
 69
     0
  7
STANDARD
140
0.18
170
     5
 62
     0
 63
     7
283
     0
274
    -2
284
     1
 64
     0
275
    -2
285
     1
 65
     0
276
    -2
286
     1
 66
     0
277
    -2
287
     1
 67
     0
278
    -2
288
     1
 68
     0
279
    -2
289
     1
 69
     0
  0
VISUALSTYLE
  5
1C6
102
{ACAD_REACTORS
330
1C0
102
}
330
1C0
100
AcDbVisualStyle
  2
2dWireframe
 70
     4
 71
     0
 72
     2
 73
     0
 90
        0
 40
-0.6
 41
-30.0
 62
     5
 63
     7
 74
     1
 91
        4
 64
     7
 65
   257
 75
     1
175
     1
 42
1.0
 92
        0
 66
   257
 43
1.0
 76
     1
 77
     6
 78
     2
 67
     7
 79
     5
170
     0
171
     0
290
     0
174
     0
 93
        1
 44
0.0
173
     0
291
     0
 45
0.0
1001
ACAD
1000
AcDbSavedByObjectVersion
1070
     0
  0
VISUALSTYLE
  5
1C8
102
{ACAD_REACTORS
330
1C0
102
}
330
1C0
100
AcDbVisualStyle
  2
3D Hidden
 70
     6
 71
     1
 72
     2
 73
     2
 90
        0
 40
-0.6
 41
-30.0
 62
     5
 63
     7
 74
     2
 91
        2
 64
     7
 65
   257
 75
     2
175
     1
 42
40.0
 92
        0
 66
   257
 43
1.0
 76
     1
 77
     6
 78
     2
 67
     7
 79
     3
170
     0
171
     0
290
     0
174
     0
 93
        1
 44
0.0
173
     0
291
     0
 45
0.0
1001
ACAD
1000
AcDbSavedByObjectVersion
1070
     0
  0
VISUALSTYLE
  5
1C7
102
{ACAD_REACTORS
330
1C0
102
}
330
1C0
100
AcDbVisualStyle
  2
3dWireframe
 70
     5
 71
     0
 72
     2
 73
     0
 90
        0
 40
-0.6
 41
-30.0
 62
     5
 63
     7
 74
     1
 91
        4
 64
     7
 65
   257
 75
     1
175
     1
 42
1.0
 92
        0
 66
   257
 43
1.0
 76
     1
 77
     6
 78
     2
 67
     7
 79
     5
170
     0
171
     0
290
     0
174
     0
 93
        1
 44
0.0
173
     0
291
     0
 45
0.0
1001
ACAD
1000
AcDbSavedByObjectVersion
1070
     0
  0
VISUALSTYLE
  5
1C5
102
{ACAD_REACTORS
330
1C0
102
}
330
1C0
100
AcDbVisualStyle
  2
Basic
 70
     7
 71
     1
 72
     0
 73
     1
 90
        0
 40
-0.6
 41
-30.0
 62
     5
 63
     7
 74
     0
 91
        4
 64
     7
 65
   257
 75
     1
175
     1
 42
1.0
 92
        8
 66
     7
 43
1.0
 76
     1
 77
     6
 78
     2
 67
     7
 79
     5
170
     0
171
     0
290
     0
174
     0
 93
        1
 44
0.0
173
     0
291
     1
 45
0.0
1001
ACAD
1000
AcDbSavedByObjectVersion
1070
     0
  0
VISUALSTYLE
  5
1CC
102
{ACAD_REACTORS
330
1C0
102
}
330
1C0
100
AcDbVisualStyle
  2
Brighten
 70
    12
 71
     2
 72
     2
 73
     0
 90
        0
 40
-0.6
 41
-30.0
 62
     5
 63
     7
 74
     1
 91
        4
 64
     7
 65
   257
 75
     1
175
     1
 42
1.0
 92
        8
 66
     7
 43
1.0
 76
     1
 77
     6
 78
     2
 67
     7
 79
     5
170
     0
171
     0
290
     0
174
     0
 93
        1
 44
50.0
173
     0
291
     1
 45
0.0
1001
ACAD
1000
AcDbSavedByObjectVersion
1070
     0
  0
VISUALSTYLE
  5
1D0
102
{ACAD_REACTORS
330
1C0
102
}
330
1C0
100
AcDbVisualStyle
  2
ColorChange
 70
    16
 71
     2
 72
     2
 73
     3
 90
        0
 40
-0.6
 41
-30.0
 62
     5
 63
     8
 74
     1
 91
        4
 64
     7
 65
   257
 75
     1
175
     1
 42
1.0
 92
        8
 66
     8
 43
1.0
 76
     1
 77
     6
 78
     2
 67
     7
 79
     5
170
     0
171
     0
290
     0
174
     0
 93
        1
 44
0.0
173
     0
291
     1
 45
0.0
1001
ACAD
1000
AcDbSavedByObjectVersion
1070
     0
  0
VISUALSTYLE
  5
1C9
102
{ACAD_REACTORS
330
1C0
102
}
330
1C0
100
AcDbVisualStyle
  2
Conceptual
 70
     9
 71
     3
 72
     2
 73
     0
 90
        0
 40
-0.6
 41
-30.0
 62
     5
 63
     7
 74
     2
 91
        2
 64
     7
 65
   257
 75
     1
175
     1
 42
40.0
 92
        8
 66
     7
 43
1.0
 76
     1
 77
     6
 78
     2
 67
     7
 79
     3
170
     0
171
     0
290
     0
174
     0
 93
        1
 44
0.0
173
     0
291
     0
 45
0.0
1001
ACAD
1000
AcDbSavedByObjectVersion
1070
     0
  0
VISUALSTYLE
  5
1CB
102
{ACAD_REACTORS
330
1C0
102
}
330
1C0
100
AcDbVisualStyle
  2
Dim
 70
    11
 71
     2
 72
     2
 73
     0
 90
        0
 40
-0.6
 41
-30.0
 62
     5
 63
     7
 74
     1
 91
        4
 64
     7
 65
   257
 75
     1
175
     1
 42
1.0
 92
        8
 66
     7
 43
1.0
 76
     1
 77
     6
 78
     2
 67
     7
 79
     5
170
     0
171
     0
290
     0
174
     0
 93
        1
 44
-50.0
173
     0
291
     1
 45
0.0
1001
ACAD
1000
AcDbSavedByObjectVersion
1070
     0
  0
VISUALSTYLE
  5
1CF
102
{ACAD_REACTORS
330
1C0
102
}
330
1C0
100
AcDbVisualStyle
  2
Facepattern
 70
    15
 71
     2
 72
     2
 73
     0
 90
        0
 40
-0.6
 41
-30.0
 62
     5
 63
     7
 74
     1
 91
        4
 64
     7
 65
   257
 75
     1
175
     1
 42
1.0
 92
        8
 66
     7
 43
1.0
 76
     1
 77
     6
 78
     2
 67
     7
 79
     5
170
     0
171
     0
290
     0
174
     0
 93
        1
 44
0.0
173
     0
291
     1
 45
0.0
1001
ACAD
1000
AcDbSavedByObjectVersion
1070
     0
  0
VISUALSTYLE
  5
1C1
102
{ACAD_REACTORS
330
1C0
102
}
330
1C0
100
AcDbVisualStyle
  2
Flat
 70
     0
 71
     2
 72
     1
 73
     1
 90
        2
 40
-0.6
 41
30.0
 62
     5
 63
     7
 74
     0
 91
        4
 64
     7
 65
   257
 75
     1
175
     1
 42
1.0
 92
        8
 66
     7
 43
1.0
 76
     1
 77
     6
 78
     2
 67
     7
 79
     5
170
     0
171
     0
290
     0
174
     0
 93
       13
 44
0.0
173
     0
291
     1
 45
0.0
1001
ACAD
1000
AcDbSavedByObjectVersion
1070
     0
  0
VISUALSTYLE
  5
1C2
102
{ACAD_REACTORS
330
1C0
102
}
330
1C0
100
AcDbVisualStyle
  2
FlatWithEdges
 70
     1
 71
     2
 72
     1
 73
     1
 90
        2
 40
-0.6
 41
30.0
 62
     5
 63
     7
 74
     1
 91
        4
 64
     7
 65
   257
 75
     1
175
     1
 42
1.0
 92
        0
 66
   257
 43
1.0
 76
     1
 77
     6
 78
     2
 67
     7
 79
     5
170
     0
171
     0
290
     0
174
     0
 93
       13
 44
0.0
173
     0
291
     1
 45
0.0
1001
ACAD
1000
AcDbSavedByObjectVersion
1070
     0
  0
VISUALSTYLE
  5
1C3
102
{ACAD_REACTORS
330
1C0
102
}
330
1C0
100
AcDbVisualStyle
  2
Gouraud
 70
     2
 71
     2
 72
     2
 73
     1
 90
        2
 40
-0.6
 41
30.0
 62
     5
 63
     7
 74
     0
 91
        4
 64
     7
 65
   257
 75
     1
175
     1
 42
1.0
 92
        0
 66
     7
 43
1.0
 76
     1
 77
     6
 78
     2
 67
     7
 79
     5
170
     0
171
     0
290
     0
174
     0
 93
       13
 44
0.0
173
     0
291
     1
 45
0.0
1001
ACAD
1000
AcDbSavedByObjectVersion
1070
     0
  0
VISUALSTYLE
  5
1C4
102
{ACAD_REACTORS
330
1C0
102
}
330
1C0
100
AcDbVisualStyle
  2
GouraudWithEdges
 70
     3
 71
     2
 72
     2
 73
     1
 90
        2
 40
-0.6
 41
30.0
 62
     5
 63
     7
 74
     1
 91
        4
 64
     7
 65
   257
 75
     1
175
     1
 42
1.0
 92
        0
 66
   257
 43
1.0
 76
     1
 77
     6
 78
     2
 67
     7
 79
     5
170
     0
171
     0
290
     0
174
     0
 93
       13
 44
0.0
173
     0
291
     1
 45
0.0
1001
ACAD
1000
AcDbSavedByObjectVersion
1070
     0
  0
VISUALSTYLE
  5
1CE
102
{ACAD_REACTORS
330
1C0
102
}
330
1C0
100
AcDbVisualStyle
  2
Linepattern
 70
    14
 71
     2
 72
     2
 73
     0
 90
        0
 40
-0.6
 41
-30.0
 62
     5
 63
     7
 74
     1
 91
        4
 64
     7
 65
   257
 75
     7
175
     7
 42
1.0
 92
        8
 66
     7
 43
1.0
 76
     1
 77
     6
 78
     2
 67
     7
 79
     5
170
     0
171
     0
290
     0
174
     0
 93
        1
 44
0.0
173
     0
291
     1
 45
0.0
1001
ACAD
1000
AcDbSavedByObjectVersion
1070
     0
  0
VISUALSTYLE
  5
1CA
102
{ACAD_REACTORS
330
1C0
102
}
330
1C0
100
AcDbVisualStyle
  2
Realistic
 70
     8
 71
     2
 72
     2
 73
     0
 90
        0
 40
-0.6
 41
-30.0
 62
     5
 63
     7
 74
     1
 91
        0
 64
     7
 65
   257
 75
     1
175
     1
 42
1.0
 92
        8
 66
     8
 43
1.0
 76
     1
 77
     6
 78
     2
 67
     7
 79
     5
170
     0
171
     0
290
     0
174
     0
 93
       13
 44
0.0
173
     0
291
     0
 45
0.0
1001
ACAD
1000
AcDbSavedByObjectVersion
1070
     0
  0
VISUALSTYLE
  5
1CD
102
{ACAD_REACTORS
330
1C0
102
}
330
1C0
100
AcDbVisualStyle
  2
Thicken
 70
    13
 71
     2
 72
     2
 73
     0
 90
        0
 40
-0.6
 41
-30.0
 62
     5
 63
     7
 74
     1
 91
        4
 64
     7
 65
   257
 75
     1
175
     1
 42
1.0
 92
       12
 66
     7
 43
1.0
 76
     1
 77
     6
 78
     2
 67
     7
 79
     5
170
     0
171
     0
290
     0
174
     0
 93
        1
 44
0.0
173
     0
291
     1
 45
0.0
1001
ACAD
1000
AcDbSavedByObjectVersion
1070
     0
  0
DICTIONARYVAR
  5
21C
102
{ACAD_REACTORS
330
219
102
}
330
219
100
DictionaryVariables
280
     0
  1
1:1
  0
DICTIONARYVAR
  5
21B
102
{ACAD_REACTORS
330
219
102
}
330
219
100
DictionaryVariables
280
     0
  1
STANDARD
  0
DICTIONARYVAR
  5
21A
102
{ACAD_REACTORS
330
219
102
}
330
219
100
DictionaryVariables
280
     0
  1
STANDARD
  0
DICTIONARYVAR
  5
21F
102
{ACAD_REACTORS
330
219
102
}
330
219
100
DictionaryVariables
280
     0
  1
1
  0
DICTIONARYVAR
  5
21E
102
{ACAD_REACTORS
330
219
102
}
330
219
100
DictionaryVariables
280
     0
  1
0
  0
DICTIONARYVAR
  5
21D
102
{ACAD_REACTORS
330
219
102
}
330
219
100
DictionaryVariables
280
     0
  1
127
  0
DICTIONARY
  5
22A
330
20E
100
AcDbDictionary
280
     1
281
     1
  3
ACAD_XREC_ROUNDTRIP
360
22B
  0
DICTIONARY
  5
228
330
20A
100
AcDbDictionary
280
     1
281
     1
  3
ACAD_XREC_ROUNDTRIP
360
229
  0
DICTIONARY
  5
1B1
330
1B0
100
AcDbDictionary
280
     1
281
     1
  3
ACAD_XREC_ROUNDTRIP
360
225
  3
BUMPTILE
360
1B3
  3
DIFFUSETILE
360
1B2
  3
OPACITYTILE
360
1B6
  3
REFLECTIONTILE
360
1B5
  3
REFRACTIONTILE
360
1B7
  3
SPECULARTILE
360
1B4
  0
DICTIONARY
  5
1A9
330
1A8
100
AcDbDictionary
280
     1
281
     1
  3
ACAD_XREC_ROUNDTRIP
360
224
  3
BUMPTILE
360
1AB
  3
DIFFUSETILE
360
1AA
  3
OPACITYTILE
360
1AE
  3
REFLECTIONTILE
360
1AD
  3
REFRACTIONTILE
360
1AF
  3
SPECULARTILE
360
1AC
  0
DICTIONARY
  5
1B9
330
1B8
100
AcDbDictionary
280
     1
281
     1
  3
ACAD_XREC_ROUNDTRIP
360
226
  3
BUMPTILE
360
1BB
  3
DIFFUSETILE
360
1BA
  3
OPACITYTILE
360
1BE
  3
REFLECTIONTILE
360
1BD
  3
REFRACTIONTILE
360
1BF
  3
SPECULARTILE
360
1BC
  0
DICTIONARY
  5
220
330
203
100
AcDbDictionary
280
     1
281
     1
  3
ACAD_ROUNDTRIP_2008_TABLESTYLE_CELLSTYLEMAP
360
221
  3
ACAD_XREC_ROUNDTRIP
360
227
  0
XRECORD
  5
22B
102
{ACAD_REACTORS
330
22A
102
}
330
22A
100
AcDbXrecord
280
     1
102
SHADEPLOT
 70
     0
102
SHADEPLOTRESLEVEL
 70
     2
102
SHADEPLOTCUSTOMDPI
 70
   300
  0
XRECORD
  5
229
102
{ACAD_REACTORS
330
228
102
}
330
228
100
AcDbXrecord
280
     1
102
SHADEPLOT
 70
     0
102
SHADEPLOTRESLEVEL
 70
     2
102
SHADEPLOTCUSTOMDPI
 70
   300
  0
XRECORD
  5
225
102
{ACAD_REACTORS
330
1B1
102
}
330
1B1
100
AcDbXrecord
280
     1
102
MATERIAL
148
0.0
149
0.0
149
0.0
 93
        0
 94
      127
282
     0
 72
     0
 77
     0
171
     0
175
     0
179
     0
273
     0
  0
XRECORD
  5
1B3
102
{ACAD_REACTORS
330
1B1
102
}
330
1B1
100
AcDbXrecord
280
     1
270
     1
271
     1
  0
XRECORD
  5
1B2
102
{ACAD_REACTORS
330
1B1
102
}
330
1B1
100
AcDbXrecord
280
     1
270
     1
271
     1
  0
XRECORD
  5
1B6
102
{ACAD_REACTORS
330
1B1
102
}
330
1B1
100
AcDbXrecord
280
     1
270
     1
271
     1
  0
XRECORD
  5
1B5
102
{ACAD_REACTORS
330
1B1
102
}
330
1B1
100
AcDbXrecord
280
     1
270
     1
271
     1
  0
XRECORD
  5
1B7
102
{ACAD_REACTORS
330
1B1
102
}
330
1B1
100
AcDbXrecord
280
     1
270
     1
271
     1
  0
XRECORD
  5
1B4
102
{ACAD_REACTORS
330
1B1
102
}
330
1B1
100
AcDbXrecord
280
     1
270
     1
271
     1
  0
XRECORD
  5
224
102
{ACAD_REACTORS
330
1A9
102
}
330
1A9
100
AcDbXrecord
280
     1
102
MATERIAL
148
0.0
149
0.0
149
0.0
 93
        0
 94
      127
282
     0
 72
     0
 77
     0
171
     0
175
     0
179
     0
273
     0
  0
XRECORD
  5
1AB
102
{ACAD_REACTORS
330
1A9
102
}
330
1A9
100
AcDbXrecord
280
     1
270
     1
271
     1
  0
XRECORD
  5
1AA
102
{ACAD_REACTORS
330
1A9
102
}
330
1A9
100
AcDbXrecord
280
     1
270
     1
271
     1
  0
XRECORD
  5
1AE
102
{ACAD_REACTORS
330
1A9
102
}
330
1A9
100
AcDbXrecord
280
     1
270
     1
271
     1
  0
XRECORD
  5
1AD
102
{ACAD_REACTORS
330
1A9
102
}
330
1A9
100
AcDbXrecord
280
     1
270
     1
271
     1
  0
XRECORD
  5
1AF
102
{ACAD_REACTORS
330
1A9
102
}
330
1A9
100
AcDbXrecord
280
     1
270
     1
271
     1
  0
XRECORD
  5
1AC
102
{ACAD_REACTORS
330
1A9
102
}
330
1A9
100
AcDbXrecord
280
     1
270
     1
271
     1
  0
XRECORD
  5
226
102
{ACAD_REACTORS
330
1B9
102
}
330
1B9
100
AcDbXrecord
280
     1
102
MATERIAL
148
0.0
149
0.0
149
0.0
 93
        0
 94
      127
282
     0
 72
     0
 77
     0
171
     0
175
     0
179
     0
273
     0
  0
XRECORD
  5
1BB
102
{ACAD_REACTORS
330
1B9
102
}
330
1B9
100
AcDbXrecord
280
     1
270
     1
271
     1
  0
XRECORD
  5
1BA
102
{ACAD_REACTORS
330
1B9
102
}
330
1B9
100
AcDbXrecord
280
     1
270
     1
271
     1
  0
XRECORD
  5
1BE
102
{ACAD_REACTORS
330
1B9
102
}
330
1B9
100
AcDbXrecord
280
     1
270
     1
271
     1
  0
XRECORD
  5
1BD
102
{ACAD_REACTORS
330
1B9
102
}
330
1B9
100
AcDbXrecord
280
     1
270
     1
271
     1
  0
XRECORD
  5
1BF
102
{ACAD_REACTORS
330
1B9
102
}
330
1B9
100
AcDbXrecord
280
     1
270
     1
271
     1
  0
XRECORD
  5
1BC
102
{ACAD_REACTORS
330
1B9
102
}
330
1B9
100
AcDbXrecord
280
     1
270
     1
271
     1
  0
CELLSTYLEMAP
  5
221
102
{ACAD_REACTORS
330
220
102
}
330
220
100
AcDbCellStyleMap
 90
        3
300
CELLSTYLE
  1
TABLEFORMAT_BEGIN
 90
        5
170
     1
 91
        0
 92
    32768
 62
   257
 93
        1
300
CONTENTFORMAT
  1
CONTENTFORMAT_BEGIN
 90
        0
 91
        0
 92
      512
 93
        0
300

 40
0.0
140
1.0
 94
        5
 62
     0
340
1F4
144
0.25
309
CONTENTFORMAT_END
171
     0
 94
        0
309
TABLEFORMAT_END
  1
CELLSTYLE_BEGIN
 90
        1
 91
        1
300
_TITLE
309
CELLSTYLE_END
300
CELLSTYLE
  1
TABLEFORMAT_BEGIN
 90
        5
170
     1
 91
        0
 92
        0
 62
   257
 93
        1
300
CONTENTFORMAT
  1
CONTENTFORMAT_BEGIN
 90
        0
 91
        0
 92
      512
 93
        0
300

 40
0.0
140
1.0
 94
        5
 62
     0
340
1F4
144
0.18
309
CONTENTFORMAT_END
171
     0
 94
        0
309
TABLEFORMAT_END
  1
CELLSTYLE_BEGIN
 90
        2
 91
        1
300
_HEADER
309
CELLSTYLE_END
300
CELLSTYLE
  1
TABLEFORMAT_BEGIN
 90
        5
170
     1
 91
        0
 92
        0
 62
   257
 93
        1
300
CONTENTFORMAT
  1
CONTENTFORMAT_BEGIN
 90
        0
 91
        0
 92
      512
 93
        0
300

 40
0.0
140
1.0
 94
        2
 62
     0
340
1F4
144
0.18
309
CONTENTFORMAT_END
171
     0
 94
        0
309
TABLEFORMAT_END
  1
CELLSTYLE_BEGIN
 90
        3
 91
        2
300
_DATA
309
CELLSTYLE_END
  0
XRECORD
  5
227
102
{ACAD_REACTORS
330
220
102
}
330
220
100
AcDbXrecord
280
     1
102
ACAD_ROUNDTRIP_PRE2007_TABLESTYLE
 90
      512
 91
        0
  1

 92
      512
 93
        0
  2

 94
      512
 95
        0
  3

  0
ENDSEC
  0
EOF
