  0
SECTION
  2
HEADER
  9
$ACADVER
  1
AC1015
  9
$ACADMAINTVER
 70
    20
  9
$DWGCODEPAGE
  3
ANSI_1252
  9
$INSBASE
 10
0.0
 20
0.0
 30
0.0
  9
$EXTMIN
 10
-78.80978416871549
 20
-78.44468386852395
 30
0.0
  9
$EXTMAX
 10
1067.472898823819
 20
1248.297168510379
 30
0.0
  9
$LIMMIN
 10
0.0
 20
0.0
  9
$LIMMAX
 10
420.0
 20
297.0
  9
$ORTHOMODE
 70
     0
  9
$REGENMODE
 70
     1
  9
$FILLMODE
 70
     1
  9
$QTEXTMODE
 70
     0
  9
$MIRRTEXT
 70
     0
  9
$LTSCALE
 40
1.0
  9
$ATTMODE
 70
     1
  9
$TEXTSIZE
 40
2.5
  9
$TRACEWID
 40
1.0
  9
$TEXTSTYLE
  7
STANDARD
  9
$CLAYER
  8
0
  9
$CELTYPE
  6
ByLayer
  9
$CECOLOR
 62
   256
  9
$CELTSCALE
 40
1.0
  9
$DISPSILH
 70
     0
  9
$DIMSCALE
 40
1.0
  9
$DIMASZ
 40
2.5
  9
$DIMEXO
 40
0.625
  9
$DIMDLI
 40
3.75
  9
$DIMRND
 40
0.0
  9
$DIMDLE
 40
0.0
  9
$DIMEXE
 40
1.25
  9
$DIMTP
 40
0.0
  9
$DIMTM
 40
0.0
  9
$DIMTXT
 40
2.5
  9
$DIMCEN
 40
2.5
  9
$DIMTSZ
 40
0.0
  9
$DIMTOL
 70
     0
  9
$DIMLIM
 70
     0
  9
$DIMTIH
 70
     0
  9
$DIMTOH
 70
     0
  9
$DIMSE1
 70
     0
  9
$DIMSE2
 70
     0
  9
$DIMTAD
 70
     1
  9
$DIMZIN
 70
     8
  9
$DIMBLK
  1

  9
$DIMASO
 70
     1
  9
$DIMSHO
 70
     1
  9
$DIMPOST
  1

  9
$DIMAPOST
  1

  9
$DIMALT
 70
     0
  9
$DIMALTD
 70
     3
  9
$DIMALTF
 40
0.03937007874016
  9
$DIMLFAC
 40
1.0
  9
$DIMTOFL
 70
     1
  9
$DIMTVP
 40
0.0
  9
$DIMTIX
 70
     0
  9
$DIMSOXD
 70
     0
  9
$DIMSAH
 70
     0
  9
$DIMBLK1
  1

  9
$DIMBLK2
  1

  9
$DIMSTYLE
  2
ISO-25
  9
$DIMCLRD
 70
     0
  9
$DIMCLRE
 70
     0
  9
$DIMCLRT
 70
     0
  9
$DIMTFAC
 40
1.0
  9
$DIMGAP
 40
0.625
  9
$DIMJUST
 70
     0
  9
$DIMSD1
 70
     0
  9
$DIMSD2
 70
     0
  9
$DIMTOLJ
 70
     1
  9
$DIMTZIN
 70
     0
  9
$DIMALTZ
 70
     0
  9
$DIMALTTZ
 70
     0
  9
$DIMUPT
 70
     0
  9
$DIMDEC
 70
     4
  9
$DIMTDEC
 70
     4
  9
$DIMALTU
 70
     2
  9
$DIMALTTD
 70
     2
  9
$DIMTXSTY
  7
STANDARD
  9
$DIMAUNIT
 70
     0
  9
$DIMADEC
 70
     0
  9
$DIMALTRND
 40
0.0
  9
$DIMAZIN
 70
     0
  9
$DIMDSEP
 70
    46
  9
$DIMATFIT
 70
     3
  9
$DIMFRAC
 70
     0
  9
$DIMLDRBLK
  1

  9
$DIMLUNIT
 70
     2
  9
$DIMLWD
 70
    -2
  9
$DIMLWE
 70
    -2
  9
$DIMTMOVE
 70
     0
  9
$LUNITS
 70
     2
  9
$LUPREC
 70
     4
  9
$SKETCHINC
 40
1.0
  9
$FILLETRAD
 40
0.0
  9
$AUNITS
 70
     0
  9
$AUPREC
 70
     0
  9
$MENU
  1
.
  9
$ELEVATION
 40
0.0
  9
$PELEVATION
 40
0.0
  9
$THICKNESS
 40
0.0
  9
$LIMCHECK
 70
     0
  9
$CHAMFERA
 40
0.0
  9
$CHAMFERB
 40
0.0
  9
$CHAMFERC
 40
0.0
  9
$CHAMFERD
 40
0.0
  9
$SKPOLY
 70
     0
  9
$TDCREATE
 40
2453267.545450660
  9
$TDUCREATE
 40
2453267.503783993
  9
$TDUPDATE
 40
2457351.526013773
  9
$TDUUPDATE
 40
2457351.484347106
  9
$TDINDWG
 40
0.1375753009
  9
$TDUSRTIMER
 40
0.1375745833
  9
$USRTIMER
 70
     1
  9
$ANGBASE
 50
0.0
  9
$ANGDIR
 70
     0
  9
$PDMODE
 70
     0
  9
$PDSIZE
 40
0.0
  9
$PLINEWID
 40
0.0
  9
$SPLFRAME
 70
     0
  9
$SPLINETYPE
 70
     6
  9
$SPLINESEGS
 70
     8
  9
$HANDSEED
  5
EE60
  9
$SURFTAB1
 70
     6
  9
$SURFTAB2
 70
     6
  9
$SURFTYPE
 70
     6
  9
$SURFU
 70
     6
  9
$SURFV
 70
     6
  9
$UCSBASE
  2

  9
$UCSNAME
  2

  9
$UCSORG
 10
0.0
 20
0.0
 30
0.0
  9
$UCSXDIR
 10
1.0
 20
0.0
 30
0.0
  9
$UCSYDIR
 10
0.0
 20
1.0
 30
0.0
  9
$UCSORTHOREF
  2

  9
$UCSORTHOVIEW
 70
     0
  9
$UCSORGTOP
 10
0.0
 20
0.0
 30
0.0
  9
$UCSORGBOTTOM
 10
0.0
 20
0.0
 30
0.0
  9
$UCSORGLEFT
 10
0.0
 20
0.0
 30
0.0
  9
$UCSORGRIGHT
 10
0.0
 20
0.0
 30
0.0
  9
$UCSORGFRONT
 10
0.0
 20
0.0
 30
0.0
  9
$UCSORGBACK
 10
0.0
 20
0.0
 30
0.0
  9
$PUCSBASE
  2

  9
$PUCSNAME
  2

  9
$PUCSORG
 10
0.0
 20
0.0
 30
0.0
  9
$PUCSXDIR
 10
1.0
 20
0.0
 30
0.0
  9
$PUCSYDIR
 10
0.0
 20
1.0
 30
0.0
  9
$PUCSORTHOREF
  2

  9
$PUCSORTHOVIEW
 70
     0
  9
$PUCSORGTOP
 10
0.0
 20
0.0
 30
0.0
  9
$PUCSORGBOTTOM
 10
0.0
 20
0.0
 30
0.0
  9
$PUCSORGLEFT
 10
0.0
 20
0.0
 30
0.0
  9
$PUCSORGRIGHT
 10
0.0
 20
0.0
 30
0.0
  9
$PUCSORGFRONT
 10
0.0
 20
0.0
 30
0.0
  9
$PUCSORGBACK
 10
0.0
 20
0.0
 30
0.0
  9
$USERI1
 70
     0
  9
$USERI2
 70
     0
  9
$USERI3
 70
     0
  9
$USERI4
 70
     0
  9
$USERI5
 70
     0
  9
$USERR1
 40
0.0
  9
$USERR2
 40
0.0
  9
$USERR3
 40
0.0
  9
$USERR4
 40
0.0
  9
$USERR5
 40
0.0
  9
$WORLDVIEW
 70
     1
  9
$SHADEDGE
 70
     3
  9
$SHADEDIF
 70
    70
  9
$TILEMODE
 70
     1
  9
$MAXACTVP
 70
    64
  9
$PINSBASE
 10
0.0
 20
0.0
 30
0.0
  9
$PLIMCHECK
 70
     0
  9
$PEXTMIN
 10
0.0
 20
0.0
 30
0.0
  9
$PEXTMAX
 10
0.0
 20
0.0
 30
0.0
  9
$PLIMMIN
 10
0.0
 20
0.0
  9
$PLIMMAX
 10
12.0
 20
9.0
  9
$UNITMODE
 70
     0
  9
$VISRETAIN
 70
     1
  9
$PLINEGEN
 70
     0
  9
$PSLTSCALE
 70
     1
  9
$TREEDEPTH
 70
  3020
  9
$CMLSTYLE
  2
Standard
  9
$CMLJUST
 70
     0
  9
$CMLSCALE
 40
1.0
  9
$PROXYGRAPHICS
 70
     1
  9
$MEASUREMENT
 70
     0
  9
$CELWEIGHT
370
    -1
  9
$ENDCAPS
280
     0
  9
$JOINSTYLE
280
     0
  9
$LWDISPLAY
290
     0
  9
$INSUNITS
 70
     0
  9
$HYPERLINKBASE
  1

  9
$STYLESHEET
  1

  9
$XEDIT
290
     1
  9
$CEPSNTYPE
380
     0
  9
$PSTYLEMODE
290
     1
  9
$FINGERPRINTGUID
  2
{6D86F937-24C5-44BD-948E-73D4C5D74735}
  9
$VERSIONGUID
  2
{CC52F49B-EB08-4C7E-ABEE-3E1E954F6E03}
  9
$EXTNAMES
290
     1
  9
$PSVPSCALE
 40
0.0
  9
$OLESTARTUP
290
     0
  0
ENDSEC
  0
SECTION
  2
CLASSES
  0
CLASS
  1
ACDBDICTIONARYWDFLT
  2
AcDbDictionaryWithDefault
  3
ObjectDBX Classes
 90
        0
280
     0
281
     0
  0
CLASS
  1
MATERIAL
  2
AcDbMaterial
  3
ObjectDBX Classes
 90
     1153
280
     0
281
     0
  0
CLASS
  1
VISUALSTYLE
  2
AcDbVisualStyle
  3
ObjectDBX Classes
 90
     4095
280
     0
281
     0
  0
CLASS
  1
SCALE
  2
AcDbScale
  3
ObjectDBX Classes
 90
     1153
280
     0
281
     0
  0
CLASS
  1
TABLESTYLE
  2
AcDbTableStyle
  3
ObjectDBX Classes
 90
     4095
280
     0
281
     0
  0
CLASS
  1
MLEADERSTYLE
  2
AcDbMLeaderStyle
  3
ACDB_MLEADERSTYLE_CLASS
 90
     4095
280
     0
281
     0
  0
CLASS
  1
DICTIONARYVAR
  2
AcDbDictionaryVar
  3
ObjectDBX Classes
 90
        0
280
     0
281
     0
  0
CLASS
  1
CELLSTYLEMAP
  2
AcDbCellStyleMap
  3
ObjectDBX Classes
 90
     1152
280
     0
281
     0
  0
CLASS
  1
ACDBPLACEHOLDER
  2
AcDbPlaceHolder
  3
ObjectDBX Classes
 90
        0
280
     0
281
     0
  0
CLASS
  1
LAYOUT
  2
AcDbLayout
  3
ObjectDBX Classes
 90
        0
280
     0
281
     0
  0
ENDSEC
  0
SECTION
  2
TABLES
  0
TABLE
  2
VPORT
  5
EDC4
330
0
100
AcDbSymbolTable
 70
     1
  0
VPORT
  5
EE34
330
EDC4
100
AcDbSymbolTableRecord
100
AcDbViewportTableRecord
  2
*ACTIVE
 70
     0
 10
0.0
 20
0.0
 11
1.0
 21
1.0
 12
-110.2281904249777
 22
84.87162930126828
 13
0.0
 23
0.0
 14
10.0
 24
10.0
 15
10.0
 25
10.0
 16
0.0
 26
0.0
 36
1.0
 17
0.0
 27
0.0
 37
0.0
 40
655.8943380635132
 41
2.520958083832335
 42
50.0
 43
0.0
 44
0.0
 50
0.0
 51
0.0
 71
     0
 72
  1000
 73
     1
 74
     3
 75
     0
 76
     0
 77
     0
 78
     0
281
     0
 65
     1
110
0.0
120
0.0
130
0.0
111
1.0
121
0.0
131
0.0
112
0.0
122
1.0
132
0.0
 79
     0
146
0.0
  0
ENDTAB
  0
TABLE
  2
LTYPE
  5
EDC1
330
0
100
AcDbSymbolTable
 70
     1
  0
LTYPE
  5
EE1E
330
EDC1
100
AcDbSymbolTableRecord
100
AcDbLinetypeTableRecord
  2
ByBlock
 70
     0
  3

 72
    65
 73
     0
 40
0.0
  0
LTYPE
  5
EE1F
330
EDC1
100
AcDbSymbolTableRecord
100
AcDbLinetypeTableRecord
  2
ByLayer
 70
     0
  3

 72
    65
 73
     0
 40
0.0
  0
LTYPE
  5
EE20
330
EDC1
100
AcDbSymbolTableRecord
100
AcDbLinetypeTableRecord
  2
CONTINUOUS
 70
     0
  3
Solid line
 72
    65
 73
     0
 40
0.0
  0
ENDTAB
  0
TABLE
  2
LAYER
  5
EDBE
330
0
100
AcDbSymbolTable
 70
     2
  0
LAYER
  5
EE18
102
{ACAD_XDICTIONARY
360
EE4B
102
}
330
EDBE
100
AcDbSymbolTableRecord
100
AcDbLayerTableRecord
  2
0
 70
     0
 62
     7
  6
CONTINUOUS
370
    -3
390
EDCB
  0
LAYER
  5
EE35
330
EDBE
100
AcDbSymbolTableRecord
100
AcDbLayerTableRecord
  2
DEFPOINTS
 70
     0
 62
     7
  6
CONTINUOUS
290
     0
370
    -3
390
EDCB
  0
ENDTAB
  0
TABLE
  2
STYLE
  5
EDBF
330
0
100
AcDbSymbolTable
 70
     2
  0
STYLE
  5
EE19
330
EDBF
100
AcDbSymbolTableRecord
100
AcDbTextStyleTableRecord
  2
STANDARD
 70
     0
 40
0.0
 41
1.0
 50
0.0
 71
     0
 42
2.5
  3
txt
  4

  0
STYLE
  5
EE1D
330
EDBF
100
AcDbSymbolTableRecord
100
AcDbTextStyleTableRecord
  2
Annotative
 70
     0
 40
0.0
 41
1.0
 50
0.0
 71
     0
 42
0.2
  3
txt
  4

1001
AcadAnnotative
1000
AnnotativeData
1002
{
1070
     1
1070
     1
1002
}
  0
ENDTAB
  0
TABLE
  2
VIEW
  5
EDC2
330
0
100
AcDbSymbolTable
 70
     0
  0
ENDTAB
  0
TABLE
  2
UCS
  5
EDC3
330
0
100
AcDbSymbolTable
 70
     0
  0
ENDTAB
  0
TABLE
  2
APPID
  5
EDC5
330
0
100
AcDbSymbolTable
 70
     5
  0
APPID
  5
EE1A
330
EDC5
100
AcDbSymbolTableRecord
100
AcDbRegAppTableRecord
  2
ACAD
 70
     0
  0
APPID
  5
EE21
330
EDC5
100
AcDbSymbolTableRecord
100
AcDbRegAppTableRecord
  2
AcadAnnotative
 70
     0
  0
APPID
  5
EE2B
330
EDC5
100
AcDbSymbolTableRecord
100
AcDbRegAppTableRecord
  2
ACAD_MLEADERVER
 70
     0
  0
APPID
  5
EE36
330
EDC5
100
AcDbSymbolTableRecord
100
AcDbRegAppTableRecord
  2
ACAD_PSEXT
 70
     0
  0
APPID
  5
EE37
330
EDC5
100
AcDbSymbolTableRecord
100
AcDbRegAppTableRecord
  2
ACAD_EXEMPT_FROM_CAD_STANDARDS
 70
     0
  0
ENDTAB
  0
TABLE
  2
DIMSTYLE
  5
EDC6
330
0
100
AcDbSymbolTable
 70
     3
100
AcDbDimStyleTable
 71
     0
  0
DIMSTYLE
105
EE1B
330
EDC6
100
AcDbSymbolTableRecord
100
AcDbDimStyleTableRecord
  2
Standard
 70
     0
340
EE19
  0
DIMSTYLE
105
EE1C
330
EDC6
100
AcDbSymbolTableRecord
100
AcDbDimStyleTableRecord
  2
Annotative
 70
     0
340
EE19
1001
AcadAnnotative
1000
AnnotativeData
1002
{
1070
     1
1070
     1
1002
}
  0
DIMSTYLE
105
EE38
330
EDC6
100
AcDbSymbolTableRecord
100
AcDbDimStyleTableRecord
  2
ISO-25
 70
     0
 41
2.5
 42
0.625
 43
3.75
 44
1.25
 73
     0
 74
     0
 77
     1
 78
     8
140
2.5
141
2.5
143
0.03937007874016
147
0.625
171
     3
172
     1
274
     3
279
     2
284
     8
285
     8
286
     8
340
EE19
  0
ENDTAB
  0
TABLE
  2
BLOCK_RECORD
  5
EDBD
330
0
100
AcDbSymbolTable
 70
     8
  0
BLOCK_RECORD
  5
EE30
330
EDBD
100
AcDbSymbolTableRecord
100
AcDbBlockTableRecord
  2
*Model_Space
340
EE33
  0
BLOCK_RECORD
  5
EE2C
330
EDBD
100
AcDbSymbolTableRecord
100
AcDbBlockTableRecord
  2
*Paper_Space
340
EE2F
  0
BLOCK_RECORD
  5
EE3A
330
EDBD
100
AcDbSymbolTableRecord
100
AcDbBlockTableRecord
  2
$MODEL_SPACE
340
0
  0
BLOCK_RECORD
  5
EE3C
330
EDBD
100
AcDbSymbolTableRecord
100
AcDbBlockTableRecord
  2
$PAPER_SPACE
340
0
  0
BLOCK_RECORD
  5
EE3E
330
EDBD
100
AcDbSymbolTableRecord
100
AcDbBlockTableRecord
  2
*D2
340
0
  0
BLOCK_RECORD
  5
EE40
330
EDBD
100
AcDbSymbolTableRecord
100
AcDbBlockTableRecord
  2
*U3
340
0
102
{BLKREFS
331
55D1
102
}
  0
BLOCK_RECORD
  5
EE41
330
EDBD
100
AcDbSymbolTableRecord
100
AcDbBlockTableRecord
  2
*D4
340
0
  0
BLOCK_RECORD
  5
EE43
330
EDBD
100
AcDbSymbolTableRecord
100
AcDbBlockTableRecord
  2
*U5
340
0
102
{BLKREFS
331
5C5E
102
}
  0
BLOCK_RECORD
  5
EE44
330
EDBD
100
AcDbSymbolTableRecord
100
AcDbBlockTableRecord
  2
*D6
340
0
  0
BLOCK_RECORD
  5
EE46
330
EDBD
100
AcDbSymbolTableRecord
100
AcDbBlockTableRecord
  2
*U7
340
0
102
{BLKREFS
331
5CDF
102
}
  0
ENDTAB
  0
ENDSEC
  0
SECTION
  2
BLOCKS
  0
BLOCK
  5
EE31
330
EE30
100
AcDbEntity
  8
0
100
AcDbBlockBegin
  2
*Model_Space
 70
     0
 10
0.0
 20
0.0
 30
0.0
  3
*Model_Space
  1

  0
ENDBLK
  5
EE32
330
EE30
100
AcDbEntity
  8
0
100
AcDbBlockEnd
  0
BLOCK
  5
EE2D
330
EE2C
100
AcDbEntity
 67
     1
  8
0
100
AcDbBlockBegin
  2
*Paper_Space
 70
     0
 10
0.0
 20
0.0
 30
0.0
  3
*Paper_Space
  1

  0
ENDBLK
  5
EE2E
330
EE2C
100
AcDbEntity
 67
     1
  8
0
100
AcDbBlockEnd
  0
BLOCK
  5
EE3B
330
EE3A
100
AcDbEntity
  8
0
100
AcDbBlockBegin
  2
$MODEL_SPACE
 70
     0
 10
0.0
 20
0.0
 30
0.0
  3
$MODEL_SPACE
  1

  0
ENDBLK
  5
21
330
EE3A
100
AcDbEntity
  8
0
100
AcDbBlockEnd
  0
BLOCK
  5
EE3D
330
EE3C
100
AcDbEntity
  8
0
100
AcDbBlockBegin
  2
$PAPER_SPACE
 70
     0
 10
0.0
 20
0.0
 30
0.0
  3
$PAPER_SPACE
  1

  0
ENDBLK
  5
D5
330
EE3C
100
AcDbEntity
  8
0
100
AcDbBlockEnd
  0
BLOCK
  5
EE3F
330
EE3E
100
AcDbEntity
  8
0
100
AcDbBlockBegin
  2
*D2
 70
     1
 10
0.0
 20
0.0
 30
0.0
  3
*D2
  1

  0
LINE
  5
55CC
330
EE3E
100
AcDbEntity
  8
0
 62
     0
100
AcDbLine
 10
169.1685807659669
 20
224.5890707964631
 30
0.0
 11
184.8374652850698
 21
224.5890707964631
 31
0.0
  0
LINE
  5
55CD
330
EE3E
100
AcDbEntity
  8
0
 62
     0
100
AcDbLine
 10
169.1685807659669
 20
198.1973401353896
 30
0.0
 11
184.8374652850698
 21
198.1973401353896
 31
0.0
  0
LINE
  5
55CE
330
EE3E
100
AcDbEntity
  8
0
 62
     0
100
AcDbLine
 10
183.5874652850698
 20
222.0890707964632
 30
0.0
 11
183.5874652850698
 21
200.6973401353896
 31
0.0
  0
SOLID
  5
55CF
330
EE3E
100
AcDbEntity
  8
0
 62
     0
100
AcDbTrace
 10
183.1707986184031
 20
222.0890707964632
 30
0.0
 11
184.0041319517365
 21
222.0890707964632
 31
0.0
 12
183.5874652850698
 22
224.5890707964631
 32
0.0
 13
183.5874652850698
 23
224.5890707964631
 33
0.0
  0
SOLID
  5
55D0
330
EE3E
100
AcDbEntity
  8
0
 62
     0
100
AcDbTrace
 10
183.1707986184031
 20
200.6973401353896
 30
0.0
 11
184.0041319517365
 21
200.6973401353896
 31
0.0
 12
183.5874652850698
 22
198.1973401353896
 32
0.0
 13
183.5874652850698
 23
198.1973401353896
 33
0.0
  0
INSERT
  5
55D1
330
EE3E
100
AcDbEntity
  8
0
100
AcDbBlockReference
  2
*U3
 10
0.0
 20
0.0
 30
0.0
  0
POINT
  5
55D2
330
EE3E
100
AcDbEntity
  8
DEFPOINTS
 62
     0
100
AcDbPoint
 10
168.5435807659669
 20
224.5890707964631
 30
0.0
  0
POINT
  5
55D3
330
EE3E
100
AcDbEntity
  8
DEFPOINTS
 62
     0
100
AcDbPoint
 10
168.5435807659669
 20
198.1973401353896
 30
0.0
  0
POINT
  5
55D4
330
EE3E
100
AcDbEntity
  8
DEFPOINTS
 62
     0
100
AcDbPoint
 10
183.5874652850698
 20
198.1973401353896
 30
0.0
  0
ENDBLK
  5
55CA
330
EE3E
100
AcDbEntity
  8
0
100
AcDbBlockEnd
  0
BLOCK
  5
EE47
330
EE40
100
AcDbEntity
  8
0
100
AcDbBlockBegin
  2
*U3
 70
     1
 10
0.0
 20
0.0
 30
0.0
  3
*U3
  1

  0
TEXT
  5
8F32
330
EE40
100
AcDbEntity
  8
0
 62
     0
100
AcDbText
 10
182.545798618403
 20
206.1848721325931
 30
0.0
 40
2.5
  1
26,39
 50
90.0
100
AcDbText
  0
ENDBLK
  5
8F34
330
EE40
100
AcDbEntity
  8
0
100
AcDbBlockEnd
  0
BLOCK
  5
EE42
330
EE41
100
AcDbEntity
  8
0
100
AcDbBlockBegin
  2
*D4
 70
     1
 10
0.0
 20
0.0
 30
0.0
  3
*D4
  1

  0
LINE
  5
5C59
330
EE41
100
AcDbEntity
  8
0
 62
     0
100
AcDbLine
 10
1116.389469267792
 20
784.1630206349632
 30
0.0
 11
1290.396840605447
 21
784.1630206349631
 31
0.0
  0
LINE
  5
5C5A
330
EE41
100
AcDbEntity
  8
0
 62
     0
100
AcDbLine
 10
1116.389469267792
 20
792.8667932881587
 30
0.0
 11
1290.396840605447
 21
792.8667932881587
 31
0.0
  0
LINE
  5
5C5B
330
EE41
100
AcDbEntity
  8
0
 62
     0
100
AcDbLine
 10
1289.146840605447
 20
786.6630206349631
 30
0.0
 11
1289.146840605447
 21
790.3667932881587
 31
0.0
  0
SOLID
  5
5C5C
330
EE41
100
AcDbEntity
  8
0
 62
     0
100
AcDbTrace
 10
1288.730173938781
 20
786.6630206349631
 30
0.0
 11
1289.563507272114
 21
786.6630206349631
 31
0.0
 12
1289.146840605447
 22
784.1630206349631
 32
0.0
 13
1289.146840605447
 23
784.1630206349631
 33
0.0
  0
SOLID
  5
5C5D
330
EE41
100
AcDbEntity
  8
0
 62
     0
100
AcDbTrace
 10
1288.730173938781
 20
790.3667932881587
 30
0.0
 11
1289.563507272114
 21
790.3667932881587
 31
0.0
 12
1289.146840605447
 22
792.8667932881587
 32
0.0
 13
1289.146840605447
 23
792.8667932881587
 33
0.0
  0
INSERT
  5
5C5E
330
EE41
100
AcDbEntity
  8
0
100
AcDbBlockReference
  2
*U5
 10
0.0
 20
0.0
 30
0.0
  0
POINT
  5
5C5F
330
EE41
100
AcDbEntity
  8
DEFPOINTS
 62
     0
100
AcDbPoint
 10
1115.764469267792
 20
784.1630206349632
 30
0.0
  0
POINT
  5
5C60
330
EE41
100
AcDbEntity
  8
DEFPOINTS
 62
     0
100
AcDbPoint
 10
1115.764469267792
 20
792.8667932881587
 30
0.0
  0
POINT
  5
5C61
330
EE41
100
AcDbEntity
  8
DEFPOINTS
 62
     0
100
AcDbPoint
 10
1289.146840605447
 20
792.8667932881587
 30
0.0
  0
ENDBLK
  5
5C57
330
EE41
100
AcDbEntity
  8
0
100
AcDbBlockEnd
  0
BLOCK
  5
EE48
330
EE43
100
AcDbEntity
  8
0
100
AcDbBlockBegin
  2
*U5
 70
     1
 10
0.0
 20
0.0
 30
0.0
  3
*U5
  1

  0
TEXT
  5
8F36
330
EE43
100
AcDbEntity
  8
0
 62
     0
100
AcDbText
 10
1288.10517393878
 20
785.8065736282278
 30
0.0
 40
2.5
  1
8,7
 50
90.0
100
AcDbText
  0
ENDBLK
  5
8F38
330
EE43
100
AcDbEntity
  8
0
100
AcDbBlockEnd
  0
BLOCK
  5
EE45
330
EE44
100
AcDbEntity
  8
0
100
AcDbBlockBegin
  2
*D6
 70
     1
 10
0.0
 20
0.0
 30
0.0
  3
*D6
  1

  0
LINE
  5
5CDA
330
EE44
100
AcDbEntity
  8
0
 62
     0
100
AcDbLine
 10
387.1330485338123
 20
1084.163020634963
 30
0.0
 11
369.2387514305801
 21
1084.163020634963
 31
0.0
  0
LINE
  5
5CDB
330
EE44
100
AcDbEntity
  8
0
 62
     0
100
AcDbLine
 10
387.1330485338123
 20
1099.377170959624
 30
0.0
 11
369.2387514305801
 21
1099.377170959624
 31
0.0
  0
LINE
  5
5CDC
330
EE44
100
AcDbEntity
  8
0
 62
     0
100
AcDbLine
 10
370.4887514305801
 20
1086.663020634963
 30
0.0
 11
370.4887514305801
 21
1096.877170959624
 31
0.0
  0
SOLID
  5
5CDD
330
EE44
100
AcDbEntity
  8
0
 62
     0
100
AcDbTrace
 10
370.0720847639133
 20
1086.663020634963
 30
0.0
 11
370.9054180972468
 21
1086.663020634963
 31
0.0
 12
370.4887514305801
 22
1084.163020634963
 32
0.0
 13
370.4887514305801
 23
1084.163020634963
 33
0.0
  0
SOLID
  5
5CDE
330
EE44
100
AcDbEntity
  8
0
 62
     0
100
AcDbTrace
 10
370.0720847639133
 20
1096.877170959624
 30
0.0
 11
370.9054180972468
 21
1096.877170959624
 31
0.0
 12
370.4887514305801
 22
1099.377170959624
 32
0.0
 13
370.4887514305801
 23
1099.377170959624
 33
0.0
  0
INSERT
  5
5CDF
330
EE44
100
AcDbEntity
  8
0
100
AcDbBlockReference
  2
*U7
 10
0.0
 20
0.0
 30
0.0
  0
POINT
  5
5CE0
330
EE44
100
AcDbEntity
  8
DEFPOINTS
 62
     0
100
AcDbPoint
 10
387.7580485338123
 20
1084.163020634963
 30
0.0
  0
POINT
  5
5CE1
330
EE44
100
AcDbEntity
  8
DEFPOINTS
 62
     0
100
AcDbPoint
 10
387.7580485338123
 20
1099.377170959624
 30
0.0
  0
POINT
  5
5CE2
330
EE44
100
AcDbEntity
  8
DEFPOINTS
 62
     0
100
AcDbPoint
 10
370.4887514305801
 20
1099.377170959624
 30
0.0
  0
ENDBLK
  5
5CD8
330
EE44
100
AcDbEntity
  8
0
100
AcDbBlockEnd
  0
BLOCK
  5
EE49
330
EE46
100
AcDbEntity
  8
0
100
AcDbBlockBegin
  2
*U7
 70
     1
 10
0.0
 20
0.0
 30
0.0
  3
*U7
  1

  0
TEXT
  5
8F3A
330
EE46
100
AcDbEntity
  8
0
 62
     0
100
AcDbText
 10
369.4470847639133
 20
1087.395095797292
 30
0.0
 40
2.5
  1
15,21
 50
90.0
100
AcDbText
  0
ENDBLK
  5
8F3C
330
EE46
100
AcDbEntity
  8
0
100
AcDbBlockEnd
  0
ENDSEC
  0
SECTION
  2
ENTITIES
  0
LWPOLYLINE
  5
65EF
330
EE30
100
AcDbEntity
  8
0
100
AcDbPolyline
 90
        5
 70
     1
 43
0.0
 10
-34.29708843377716
 20
77.41698739500922
 42
0.0507903001890206
 10
-43.17253283327022
 20
78.77976130874206
 42
0.1367586262515834
 10
-57.15608776959721
 20
76.31359152400588
 42
0.0652239567798874
 10
-48.17675966442198
 20
74.90114076572786
 42
-0.1185606866523525
 10
-34.70605059751485
 20
72.09043209896205
 42
-0.1183949647063769
  0
LWPOLYLINE
  5
65F0
330
EE30
100
AcDbEntity
  8
0
100
AcDbPolyline
 90
        5
 70
     1
 43
0.0
 10
-71.06723840941936
 20
-15.15663583819902
 42
-0.227558667956303
 10
-58.79786864526227
 20
-24.53021168153668
 42
-0.0827854111091155
 10
-50.96129538848322
 20
-23.99432784210398
 42
-0.0992002823754489
 10
-54.72401995051109
 20
-16.40097548081303
 42
-0.3576850076297482
 10
-62.85004768266276
 20
-16.51291969786304
 42
0.3427670983037569
  0
LWPOLYLINE
  5
65F1
330
EE30
100
AcDbEntity
  8
0
100
AcDbPolyline
 90
        5
 70
     1
 43
0.0
 10
-41.9040663875619
 20
-69.87275537830192
 42
-0.0639354927318008
 10
-49.11309211413277
 20
-71.32277787999669
 42
-0.1447486785922391
 10
-60.94139291915758
 20
-68.66283764563196
 42
-0.0968106865709017
 10
-49.095485242942
 20
-67.03360742534869
 42
0.0624282798836172
 10
-44.17037419718941
 20
-66.33101489721389
 42
0.0523220233842658
  0
LWPOLYLINE
  5
65F2
330
EE30
100
AcDbEntity
  8
0
100
AcDbPolyline
 90
        5
 70
     1
 43
0.0
 10
-39.66883702636346
 20
30.03790962363135
 42
-0.7319408957318512
 10
-61.13323002081482
 20
65.83228700933407
 42
-0.1241085848801277
 10
-67.48717807112711
 20
67.50488067411018
 42
0.2639611392353395
 10
-69.80690890424352
 20
41.50762843020465
 42
0.4490715797557407
 10
-35.49727040468475
 20
30.69775029685616
 42
0.0377202036620881
  0
LWPOLYLINE
  5
65F3
330
EE30
100
AcDbEntity
  8
0
100
AcDbPolyline
 90
        4
 70
     1
 43
0.0
 10
-32.08589983082924
 20
49.96634181099896
 42
-0.1604168794808552
 10
-32.96947288691332
 20
41.54481212635005
 42
-0.0788150155730634
 10
-26.59418981316572
 20
42.24346718903186
 42
0.1460925727354443
 10
-27.67434185799334
 20
53.46732751906097
 42
0.0551735818972242
  0
LWPOLYLINE
  5
65F4
330
EE30
100
AcDbEntity
  8
0
100
AcDbPolyline
 90
        8
 70
     1
 43
0.0
 10
-54.86128892468946
 20
43.88331223901196
 42
-0.5167861952111549
 10
-50.06171070851246
 20
59.77342610248493
 42
-0.3019855240145458
 10
-35.46594252566297
 20
56.38333024788605
 42
-0.072617884786226
 10
-32.85562261045356
 20
61.06804650772864
 42
0.2705297550413479
 10
-47.76127649462137
 20
66.41234957099505
 42
0.4350859975740474
 10
-58.65377153124768
 20
46.23184614916922
 42
0.4626170688969472
 10
-43.92246912551015
 20
39.28874806243405
 42
0.734683566272768
 10
-45.1293307723297
 20
49.47132523861793
 42
-0.8738251109461915
  0
LWPOLYLINE
  5
65F5
330
EE30
100
AcDbEntity
  8
0
100
AcDbPolyline
 90
        5
 70
     1
 43
0.0
 10
-54.73177865945558
 20
-58.30547529325508
 42
0.432351389612938
 10
-36.5413451283082
 20
-51.68616316877
 42
-0.2112135697790271
 10
-44.47129727170772
 20
-51.11931767823012
 42
-0.8223760979350517
 10
-58.06354340197663
 20
-51.66145822362796
 42
2.656366399868915
 10
-58.45751838551564
 20
-48.36683260465589
 42
0.4931642171245284
  0
LWPOLYLINE
  5
65F6
330
EE30
100
AcDbEntity
  8
0
100
AcDbPolyline
 90
        4
 70
     1
 43
0.0
 10
-35.62138435516659
 20
-44.89319942628003
 42
0.431383982911998
 10
-57.16757417761778
 20
-30.31161457563006
 42
-0.0786407458225529
 10
-58.19574286920008
 20
-38.04088399205602
 42
-0.2814292973409327
 10
-45.38373224384282
 20
-39.81356386258996
 42
0.2470459380028624
  0
LWPOLYLINE
  5
65F7
330
EE30
100
AcDbEntity
  8
0
100
AcDbPolyline
 90
        4
 70
     1
 43
0.0
 10
-68.44576986992137
 20
-38.32900372811901
 42
0.2827883912478839
 10
-69.02483533868485
 20
-60.7126428805193
 42
-0.090483081636636
 10
-64.48088809911109
 20
-59.43720759681469
 42
-0.2700537458318484
 10
-69.06326967972359
 20
-40.95352513963392
 42
0.0336617317573415
  0
LWPOLYLINE
  5
65F8
330
EE30
100
AcDbEntity
  8
0
100
AcDbPolyline
 90
        8
 70
     1
 43
0.0
 10
-1.542363306883771
 20
-35.63048046575386
 42
-0.0915597453767532
 10
-16.2882852260625
 20
-43.03822596055897
 42
0.0481843937198105
 10
-16.37099448485311
 20
-40.06975939867698
 10
-9.361473648542187
 20
-35.77673223920671
 10
-9.361473648542187
 20
-20.72745873554094
 10
-8.246702929638331
 20
-19.612688016638
 10
-7.13193221073358
 20
-20.72745873554094
 10
-7.13193221073358
 20
-31.38050509534604
  0
LWPOLYLINE
  5
65F9
330
EE30
100
AcDbEntity
  8
0
100
AcDbPolyline
 90
        3
 70
     1
 43
0.0
 10
-16.30175920208307
 20
-43.621369901359
 42
-0.2117768854177548
 10
-7.703284935668065
 20
-49.0731986636713
 42
-0.0888708690759286
 10
-16.76244818811915
 20
-48.277979207307
 42
0.0718319162266089
  0
LWPOLYLINE
  5
65FA
330
EE30
100
AcDbEntity
  8
0
100
AcDbPolyline
 90
        3
 70
     1
 43
0.0
 10
-13.16064840828382
 20
-14.74929822495095
 10
-12.50509675070658
 20
-15.38580046346602
 10
-14.10536722480151
 20
-16.98607093756301
 42
0.0663096896924838
  0
LWPOLYLINE
  5
65FB
330
EE30
100
AcDbEntity
  8
0
100
AcDbPolyline
 90
        6
 70
     1
 43
0.0
 10
-15.35418779714359
 20
-19.28626257528708
 10
-15.36103544853608
 20
-32.41531603049792
 10
-22.82103417688518
 20
-36.98424133913068
 42
-0.0781576005777407
 10
-22.48835460531678
 20
-45.94915010522299
 42
-0.1310302886669709
 10
-32.17402010419368
 20
-36.57325050797793
 42
0.0641038540888272
 10
-35.69665329217673
 20
-31.59447494903498
 42
0.2679491924311227
  0
LWPOLYLINE
  5
65FC
330
EE30
100
AcDbEntity
  8
0
100
AcDbPolyline
 90
        6
 70
     1
 43
0.0
 10
-4.807974796407307
 20
-64.4448557856149
 42
0.155142830247874
 10
-4.773942428255196
 20
-54.94017238868401
 42
-0.2505203014736106
 10
-20.38329836401475
 20
-58.92726657718004
 42
-0.045523386950035
 10
-23.85972362437656
 20
-64.22510542985197
 42
-0.1836024032177813
 10
-18.94084545774035
 20
-65.70399661519991
 42
-0.7601107777955864
 10
-7.866422787146589
 20
-67.98990734782069
 42
0.1636729615487703
  0
LWPOLYLINE
  5
65FD
330
EE30
100
AcDbEntity
  8
0
100
AcDbPolyline
 90
        5
 70
     1
 43
0.0
 10
-36.20212000540664
 20
23.63382347550095
 42
-0.2562830457734461
 10
-13.83407016923752
 20
2.306742658357052
 42
0.081718807522051
 10
-6.205377195351275
 20
11.06752470828697
 42
-0.031589017977812
 10
-8.209666645408788
 20
15.42619867828195
 42
0.2199733283570565
 10
-26.6667451206356
 20
30.01491300875384
 42
-0.0962923552260858
  0
LWPOLYLINE
  5
65FE
330
EE30
100
AcDbEntity
  8
0
100
AcDbPolyline
 90
        4
 70
     1
 43
0.0
 10
-27.85932997949725
 20
-0.599937018839043
 42
-0.0817095242107375
 10
-25.99777417846213
 20
-9.2151220591427
 42
-0.8044695429920047
 10
-48.22783417216192
 20
-13.86530994144004
 42
0.3786935822949309
 10
-42.68332180236645
 20
-9.012544420362033
 42
-0.4915264212740789
  0
LWPOLYLINE
  5
65FF
330
EE30
100
AcDbEntity
  8
0
100
AcDbPolyline
 90
        5
 70
     1
 43
0.0
 10
-21.11531736225675
 20
56.39497203162796
 42
-0.1438111806766619
 10
-20.45143701231586
 20
40.98602643370876
 42
-0.1583272228461167
 10
-10.53654462572353
 20
33.13538615155335
 42
-0.1239968698976872
 10
-4.113353786857018
 20
50.55353549453721
 42
0.0362383276701306
 10
-6.860577034707375
 20
56.35034933199193
 42
0.1420327643342291
  0
LWPOLYLINE
  5
6600
330
EE30
100
AcDbEntity
  8
0
100
AcDbPolyline
 90
        4
 70
     1
 43
0.0
 10
3.256278182207324
 20
17.48662011207325
 42
0.0406857923548918
 10
5.788150418100727
 20
11.18898829978724
 42
-0.0323580345910511
 10
3.256278182210053
 20
7.915732121419253
 42
-0.0323580345910647
 10
0.7244059463157555
 20
11.18898829978594
 42
0.0406857923548905
  0
LWPOLYLINE
  5
6601
330
EE30
100
AcDbEntity
  8
0
100
AcDbPolyline
 90
        3
 70
     1
 43
0.0
 10
-2.831925556962914
 20
18.17424034284406
 42
-0.1972252911694557
 10
-1.828498251459464
 20
42.45720222488464
 42
-0.0475433259713436
 10
-1.11488282688947
 20
34.07945240132696
 42
-0.1132231880863069
  0
LWPOLYLINE
  5
6602
330
EE30
100
AcDbEntity
  8
0
100
AcDbPolyline
 90
        4
 70
     1
 43
0.0
 10
3.256278182202777
 20
50.27080044108195
 42
-0.0078368872419968
 10
3.908230589077192
 20
49.50828959431595
 42
0.0117703336157492
 10
3.256278182202777
 20
47.23132542150733
 42
0.0117703336156702
 10
2.604325775326486
 20
49.50828959429876
 42
-0.0078368872421064
  0
LWPOLYLINE
  5
6603
330
EE30
100
AcDbEntity
  8
0
100
AcDbPolyline
 90
        2
 70
     1
 43
0.0
 10
3.256278182205491
 20
76.51419133356106
 42
-0.4193354367515301
 10
3.256278182205491
 20
58.72282225438306
 42
-0.419335436751486
  0
LWPOLYLINE
  5
6604
330
EE30
100
AcDbEntity
  8
0
100
AcDbPolyline
 90
        6
 70
     1
 43
0.0
 10
-46.74774264992971
 20
15.82593605341796
 42
-0.1627708373211022
 10
-32.15268954803718
 20
6.689064075434927
 42
0.2586661649579792
 10
-48.82580112442134
 20
3.579995447081913
 42
0.2990085850237242
 10
-58.21603617854066
 20
13.20045645590196
 42
-0.3250316563051084
 10
-67.45639940887826
 20
28.56137154204205
 42
0.020114034127883
 10
-65.56163317757068
 20
27.05935354835691
 42
0.1126402798836088
  0
LWPOLYLINE
  5
6605
330
EE30
100
AcDbEntity
  8
0
100
AcDbPolyline
 90
       44
 70
     1
 43
0.0
 10
3.246446155088264
 20
83.70005401589784
 42
-0.4628658018562259
 10
19.54248459640638
 20
73.03641444732216
 42
-0.0393966344613552
 10
25.98403675893248
 20
77.63798946738598
 42
0.1750144572430645
 10
20.97421658715227
 20
75.72726512028921
 42
-0.5432774877134717
 10
36.89048735819888
 20
82.540343815053
 42
-0.0625167553843475
 10
49.22404600966297
 20
84.76487635027206
 42
-0.175449895161625
 10
70.60086974381582
 20
79.20445923891495
 42
0.0781515616435573
 10
79.20326646088068
 20
85.85154347829305
 42
-0.2888953993055639
 10
78.47621148749587
 20
71.53636204946818
 42
-0.2700760586240747
 10
81.76779253083649
 20
39.03754525311595
 42
-0.053003492067878
 10
78.56606531085086
 20
33.54659372454666
 42
-0.4369724094152762
 10
73.60260545534609
 20
-2.623797594470048
 42
-0.3578134557172014
 10
85.30069152438608
 20
-17.36282929237271
 42
0.2057313482296137
 10
75.39781968801637
 20
-29.70914056579069
 42
-0.0045272296669104
 10
75.72221584699059
 20
-29.99517217166591
 42
-0.3593187106222186
 10
80.20513402449637
 20
-64.55576493464604
 42
-0.2871073363590612
 10
81.49002692114777
 20
-78.44468386852395
 42
0.0830822059586603
 10
73.7596423390971
 20
-71.65776567725266
 42
-0.183146858074872
 10
55.19482335047377
 20
-77.30868571724204
 42
-0.0879118633854779
 10
43.39234602097727
 20
-74.34793853534802
 42
-0.2765111710929295
 10
22.69814037222499
 20
-74.81692649283695
 42
-0.3983108813709333
 10
7.656881812103407
 20
-74.292084872244
 42
-0.0913690808054916
 10
3.246446155134663
 20
-68.76819917471403
 42
-0.0913690808091467
 10
-1.163989502040536
 20
-74.29208487245296
 42
-0.3983108813628211
 10
-16.20524806191746
 20
-74.81692649281104
 42
-0.2765111710937916
 10
-36.89945371073167
 20
-74.34793853535097
 42
-0.0879118633817176
 10
-48.70193103970972
 20
-77.30868571720998
 42
-0.1831468580797167
 10
-67.26675002884054
 20
-71.65776567724606
 42
0.0830822059586263
 10
-74.99713461088481
 20
-78.44468386851895
 42
-0.2871073363591967
 10
-73.71224171424614
 20
-64.55576493463127
 42
-0.3593187106292615
 10
-69.22932353622468
 20
-29.99517217118728
 42
-0.0045272296593661
 10
-68.90492737778345
 20
-29.70914056579727
 42
0.2057313482298206
 10
-78.80779921414774
 20
-17.36282929237403
 42
-0.3578134557172193
 10
-67.1097131450922
 20
-2.62379759446216
 42
-0.4369724094151436
 10
-72.07317300058526
 20
33.54659372453506
 42
-0.0530034920854462
 10
-75.27490022143751
 20
39.03754525502404
 42
-0.2700760586066424
 10
-71.98331917725113
 20
71.53636204945695
 42
-0.2888953993054832
 10
-72.71037415062142
 20
85.85154347828524
 42
0.0781515616435105
 10
-64.10797743356011
 20
79.20445923890927
 42
-0.1754498951590735
 10
-42.73115369973107
 20
84.76487635028723
 42
-0.0625167553857361
 10
-30.3975950479869
 20
82.54034381506903
 42
-0.5432774877162017
 10
-14.48132427687848
 20
75.72726512023194
 42
0.1750144572475646
 10
-19.49114444875952
 20
77.63798946743875
 42
-0.0393966344620051
 10
-13.04959228612893
 20
73.03641444730004
 42
-0.4628658018548147
  0
LWPOLYLINE
  5
6606
330
EE30
100
AcDbEntity
  8
0
100
AcDbPolyline
 90
        4
 70
     1
 43
0.0
 10
-25.8840747087686
 20
-56.48455983146868
 42
-0.1133009453705998
 10
-34.50227316665564
 20
-66.10819955753004
 42
-0.1081740926076725
 10
-38.93563847850124
 20
-64.0586595664181
 42
0.1895636299267289
 10
-30.15302816872714
 20
-52.34644629069908
 42
0.0876606274516655
  0
LWPOLYLINE
  5
6607
330
EE30
100
AcDbEntity
  8
0
100
AcDbPolyline
 90
       12
 70
     1
 43
0.0
 10
3.256278182205491
 20
-1.00046958159514
 10
7.644488575146397
 20
-4.409193163666031
 10
7.644488575146397
 20
-12.4979172977339
 10
10.51661860693117
 20
-15.370047329518
 10
7.652452335616786
 20
-18.23421360083196
 10
7.645031230158807
 20
-28.40474616377402
 10
3.256278182205491
 20
-31.74169265847694
 10
-1.132474865747767
 20
-28.40474616377402
 10
-1.139895971204865
 20
-18.23421360083196
 10
-4.00406224251833
 20
-15.370047329518
 10
-1.13193221073358
 20
-12.4979172977339
 10
-1.13193221073358
 20
-4.409193163666031
  0
LWPOLYLINE
  5
6608
330
EE30
100
AcDbEntity
  8
0
100
AcDbPolyline
 90
        7
 70
     1
 43
0.0
 10
-0.7963443278975007
 20
3.449025621182641
 10
-7.13193221073358
 20
-1.472403820132953
 10
-7.13193221073358
 20
-10.01263592349526
 10
-8.246702929638331
 20
-11.127406642398
 10
-9.361473648542187
 20
-10.01263592349526
 10
-9.361473648542187
 20
-1.768913424371959
 42
0.0599934568085662
 10
-2.630461505384801
 20
5.611982246827835
 42
0.0186611591226705
  0
LWPOLYLINE
  5
6609
330
EE30
100
AcDbEntity
  8
0
100
AcDbPolyline
 90
        3
 70
     1
 43
0.0
 10
-16.73452971809252
 20
68.29494522814593
 42
0.1398009232891407
 10
-26.70494208709328
 20
66.24061308232004
 42
-0.2782671394147996
 10
-26.03107183770203
 20
74.36752281678574
 42
-0.062894285623448
  0
LWPOLYLINE
  5
660A
330
EE30
100
AcDbEntity
  8
0
100
AcDbPolyline
 90
        4
 70
     1
 43
0.0
 10
3.256278182199139
 20
-49.97070524026207
 42
0.1354198113996367
 10
-2.777078719989503
 20
-43.69348560542266
 42
-0.0140808474973384
 10
3.256278182207324
 20
-39.64267758569804
 42
-0.0140808474973087
 10
9.289635084393239
 20
-43.69348560541403
 42
0.1354198113996744
  0
LWPOLYLINE
  5
660B
330
EE30
100
AcDbEntity
  8
0
100
AcDbPolyline
 90
        5
 70
     1
 43
0.0
 10
40.80964479817729
 20
77.41698739500922
 42
-0.0507903001890206
 10
49.68508919767026
 20
78.77976130874206
 42
-0.1367586262515834
 10
63.66864413399728
 20
76.31359152400588
 42
-0.0652239567798874
 10
54.68931602882207
 20
74.90114076572786
 42
0.1185606866523525
 10
41.21860696191578
 20
72.09043209896205
 42
0.1183949647063769
  0
LWPOLYLINE
  5
660C
330
EE30
100
AcDbEntity
  8
0
100
AcDbPolyline
 90
        5
 70
     1
 43
0.0
 10
77.57979477381937
 20
-15.15663583819902
 42
0.227558667956303
 10
65.3104250096624
 20
-24.53021168153668
 42
0.0827854111091155
 10
57.47385175288414
 20
-23.99432784210398
 42
0.0992002823754489
 10
61.23657631491122
 20
-16.40097548081303
 42
0.3576850076297482
 10
69.36260404706186
 20
-16.51291969786304
 42
-0.3427670983037569
  0
LWPOLYLINE
  5
660D
330
EE30
100
AcDbEntity
  8
0
100
AcDbPolyline
 90
        5
 70
     1
 43
0.0
 10
48.41662275196199
 20
-69.87275537830192
 42
0.0639354927318008
 10
55.62564847853199
 20
-71.32277787999669
 42
0.1447486785922391
 10
67.45394928355858
 20
-68.66283764563196
 42
0.0968106865709017
 10
55.60804160734298
 20
-67.03360742534869
 42
-0.0624282798836172
 10
50.68293056158947
 20
-66.33101489721389
 42
-0.0523220233842658
  0
LWPOLYLINE
  5
660E
330
EE30
100
AcDbEntity
  8
0
100
AcDbPolyline
 90
        5
 70
     1
 43
0.0
 10
46.18139339076361
 20
30.03790962363135
 42
0.7319408957318512
 10
67.64578638521488
 20
65.83228700933407
 42
0.1241085848801277
 10
73.99973443552898
 20
67.50488067411018
 42
-0.2639611392353395
 10
76.31946526864357
 20
41.50762843020465
 42
-0.4490715797557407
 10
42.00982676908568
 20
30.69775029685616
 42
-0.0377202036620881
  0
LWPOLYLINE
  5
660F
330
EE30
100
AcDbEntity
  8
0
100
AcDbPolyline
 90
        4
 70
     1
 43
0.0
 10
38.59845619523019
 20
49.96634181099896
 42
0.1604168794808552
 10
39.48202925131247
 20
41.54481212635005
 42
0.0788150155730634
 10
33.10674617756669
 20
42.24346718903186
 42
-0.1460925727354443
 10
34.18689822239249
 20
53.46732751906097
 42
-0.0551735818972242
  0
LWPOLYLINE
  5
6610
330
EE30
100
AcDbEntity
  8
0
100
AcDbPolyline
 90
        8
 70
     1
 43
0.0
 10
61.37384528908959
 20
43.88331223901196
 42
0.5167861952111549
 10
56.57426707291259
 20
59.77342610248493
 42
0.3019855240145458
 10
41.97849889006394
 20
56.38333024788605
 42
0.072617884786226
 10
39.36817897485548
 20
61.06804650772864
 42
-0.2705297550413479
 10
54.27383285902147
 20
66.41234957099505
 42
-0.4350859975740474
 10
65.16632789564866
 20
46.23184614916922
 42
-0.4626170688969472
 10
50.43502548991108
 20
39.28874806243405
 42
-0.734683566272768
 10
51.64188713672979
 20
49.47132523861793
 42
0.8738251109461915
  0
LWPOLYLINE
  5
6611
330
EE30
100
AcDbEntity
  8
0
100
AcDbPolyline
 90
        5
 70
     1
 43
0.0
 10
61.24433502385568
 20
-58.30547529325508
 42
-0.432351389612938
 10
43.05390149270917
 20
-51.68616316877
 42
0.2112135697790271
 10
50.98385363610782
 20
-51.11931767823012
 42
0.8223760979350517
 10
64.57609976637849
 20
-51.66145822362796
 42
-2.656366399868915
 10
64.97007474991477
 20
-48.36683260465589
 42
-0.4931642171245284
  0
LWPOLYLINE
  5
6612
330
EE30
100
AcDbEntity
  8
0
100
AcDbPolyline
 90
        4
 70
     1
 43
0.0
 10
42.13394071956668
 20
-44.89319942628003
 42
-0.431383982911998
 10
63.68013054201878
 20
-30.31161457563006
 42
0.0786407458225529
 10
64.70829923360014
 20
-38.04088399205602
 42
0.2814292973409327
 10
51.89628860824289
 20
-39.81356386258996
 42
-0.2470459380028624
  0
LWPOLYLINE
  5
6613
330
EE30
100
AcDbEntity
  8
0
100
AcDbPolyline
 90
        4
 70
     1
 43
0.0
 10
74.9583262343215
 20
-38.32900372811901
 42
-0.2827883912478839
 10
75.53739170308308
 20
-60.7126428805193
 42
0.090483081636636
 10
70.99344446351299
 20
-59.43720759681469
 42
0.2700537458318484
 10
75.57582604412369
 20
-40.95352513963392
 42
-0.0336617317573415
  0
LWPOLYLINE
  5
6614
330
EE30
100
AcDbEntity
  8
0
100
AcDbPolyline
 90
        8
 70
     1
 43
0.0
 10
8.054919671283883
 20
-35.63048046575386
 42
0.0915597453767532
 10
22.80084159046439
 20
-43.03822596055897
 42
-0.0481843937198105
 10
22.88355084925409
 20
-40.06975939867698
 10
15.87403001294318
 20
-35.77673223920671
 10
15.87403001294318
 20
-20.72745873554094
 10
14.75925929403837
 20
-19.612688016638
 10
13.64448857513459
 20
-20.72745873554094
 10
13.64448857513459
 20
-31.38050509534604
  0
LWPOLYLINE
  5
6615
330
EE30
100
AcDbEntity
  8
0
100
AcDbPolyline
 90
        3
 70
     1
 43
0.0
 10
22.8143155664832
 20
-43.621369901359
 42
0.2117768854177548
 10
14.21584130006908
 20
-49.0731986636713
 42
0.0888708690759286
 10
23.27500455251918
 20
-48.277979207307
 42
-0.0718319162266089
  0
LWPOLYLINE
  5
6616
330
EE30
100
AcDbEntity
  8
0
100
AcDbPolyline
 90
        3
 70
     1
 43
0.0
 10
19.67320477268389
 20
-14.74929822495095
 10
19.01765311510577
 20
-15.38580046346602
 10
20.61792358920339
 20
-16.98607093756301
 42
-0.0663096896924838
  0
LWPOLYLINE
  5
6617
330
EE30
100
AcDbEntity
  8
0
100
AcDbPolyline
 90
        6
 70
     1
 43
0.0
 10
21.86674416154547
 20
-19.28626257528708
 10
21.87359181293709
 20
-32.41531603049792
 10
29.33359054128619
 20
-36.98424133913068
 42
0.0781576005777407
 10
29.00091096971689
 20
-45.94915010522299
 42
0.1310302886669709
 10
38.6865764685947
 20
-36.57325050797793
 42
-0.0641038540888272
 10
42.20920965657675
 20
-31.59447494903498
 42
-0.2679491924311227
  0
LWPOLYLINE
  5
6618
330
EE30
100
AcDbEntity
  8
0
100
AcDbPolyline
 90
        6
 70
     1
 43
0.0
 10
11.32053116080736
 20
-64.4448557856149
 42
-0.155142830247874
 10
11.28649879265526
 20
-54.94017238868401
 42
0.2505203014736106
 10
26.89585472841578
 20
-58.92726657718004
 42
0.045523386950035
 10
30.37227998877849
 20
-64.22510542985197
 42
0.1836024032177813
 10
25.45340182214039
 20
-65.70399661519991
 42
0.7601107777955864
 10
14.37897915154667
 20
-67.98990734782069
 42
-0.1636729615487703
  0
LWPOLYLINE
  5
6619
330
EE30
100
AcDbEntity
  8
0
100
AcDbPolyline
 90
        5
 70
     1
 43
0.0
 10
42.71467636980668
 20
23.63382347550095
 42
0.2562830457734461
 10
20.34662653363756
 20
2.306742658357052
 42
-0.081718807522051
 10
12.71793355975225
 20
11.06752470828697
 42
0.031589017977812
 10
14.72222300980888
 20
15.42619867828195
 42
-0.2199733283570565
 10
33.1793014850366
 20
30.01491300875384
 42
0.0962923552260858
  0
LWPOLYLINE
  5
661A
330
EE30
100
AcDbEntity
  8
0
100
AcDbPolyline
 90
        4
 70
     1
 43
0.0
 10
34.37188634389727
 20
-0.599937018839043
 42
0.0817095242107375
 10
32.51033054286309
 20
-9.2151220591427
 42
0.8044695429920047
 10
54.74039053656287
 20
-13.86530994144004
 42
-0.3786935822949309
 10
49.19587816676648
 20
-9.012544420362033
 42
0.4915264212740789
  0
LWPOLYLINE
  5
661B
330
EE30
100
AcDbEntity
  8
0
100
AcDbPolyline
 90
        5
 70
     1
 43
0.0
 10
27.62787372665768
 20
56.39497203162796
 42
0.1438111806766619
 10
26.96399337671598
 20
40.98602643370876
 42
0.1583272228461167
 10
17.04910099012356
 20
33.13538615155335
 42
0.1239968698976872
 10
10.62591015125895
 20
50.55353549453721
 42
-0.0362383276701306
 10
13.37313339910747
 20
56.35034933199193
 42
-0.1420327643342291
  0
LWPOLYLINE
  5
661C
330
EE30
100
AcDbEntity
  8
0
100
AcDbPolyline
 90
        3
 70
     1
 43
0.0
 10
9.344481921362103
 20
18.17424034284406
 42
0.1972252911694557
 10
8.341054615860443
 20
42.45720222488464
 42
0.0475433259713436
 10
7.627439191289568
 20
34.07945240132696
 42
0.1132231880863069
  0
LWPOLYLINE
  5
661D
330
EE30
100
AcDbEntity
  8
0
100
AcDbPolyline
 90
        6
 70
     1
 43
0.0
 10
53.26029901432978
 20
15.82593605341796
 42
0.1627708373211022
 10
38.66524591243818
 20
6.689064075434927
 42
-0.2586661649579792
 10
55.33835748882137
 20
3.579995447081913
 42
-0.2990085850237242
 10
64.7285925429417
 20
13.20045645590196
 42
0.3250316563051084
 10
73.96895577327839
 20
28.56137154204205
 42
-0.020114034127883
 10
72.07418954197078
 20
27.05935354835691
 42
-0.1126402798836088
  0
LWPOLYLINE
  5
661E
330
EE30
100
AcDbEntity
  8
0
100
AcDbPolyline
 90
        4
 70
     1
 43
0.0
 10
32.39663107316777
 20
-56.48455983146868
 42
0.1133009453705998
 10
41.01482953105568
 20
-66.10819955753004
 42
0.1081740926076725
 10
45.44819484290218
 20
-64.0586595664181
 42
-0.1895636299267289
 10
36.6655845331272
 20
-52.34644629069908
 42
-0.0876606274516655
  0
LWPOLYLINE
  5
661F
330
EE30
100
AcDbEntity
  8
0
100
AcDbPolyline
 90
        7
 70
     1
 43
0.0
 10
7.308900692297555
 20
3.449025621182641
 10
13.64448857513459
 20
-1.472403820132953
 10
13.64448857513459
 20
-10.01263592349526
 10
14.75925929403837
 20
-11.127406642398
 10
15.87403001294318
 20
-10.01263592349526
 10
15.87403001294318
 20
-1.768913424371959
 42
-0.0599934568085662
 10
9.143017869784898
 20
5.611982246827835
 42
-0.0186611591226705
  0
LWPOLYLINE
  5
6620
330
EE30
100
AcDbEntity
  8
0
100
AcDbPolyline
 90
        3
 70
     1
 43
0.0
 10
23.24708608249259
 20
68.29494522814593
 42
-0.1398009232891407
 10
33.21749845149249
 20
66.24061308232004
 42
0.2782671394147996
 10
32.5436282021021
 20
74.36752281678574
 42
0.062894285623448
  0
ENDSEC
  0
SECTION
  2
OBJECTS
  0
DICTIONARY
  5
EDC8
330
0
100
AcDbDictionary
281
     1
  3
ACAD_COLOR
350
EE26
  3
ACAD_GROUP
350
EDC9
  3
ACAD_LAYOUT
350
EE25
  3
ACAD_MATERIAL
350
EDCC
  3
ACAD_MLEADERSTYLE
350
EE29
  3
ACAD_MLINESTYLE
350
EE22
  3
ACAD_PLOTSETTINGS
350
EE24
  3
ACAD_PLOTSTYLENAME
350
EDCA
  3
ACAD_SCALELIST
350
EDF6
  3
ACAD_TABLESTYLE
350
EE27
  3
ACAD_VISUALSTYLE
350
EDE5
  3
ACDB_RECOMPOSE_DATA
350
EE56
  3
AcDbVariableDictionary
350
EE4D
  3
DWGPROPS
350
EE57
  0
DICTIONARY
  5
EE4B
330
EE18
100
AcDbDictionary
280
     1
281
     1
  3
ADSK_XREC_LAYER_RECONCILED
360
EE4C
  0
DICTIONARY
  5
EE26
102
{ACAD_REACTORS
330
EDC8
102
}
330
EDC8
100
AcDbDictionary
281
     1
  0
DICTIONARY
  5
EDC9
102
{ACAD_REACTORS
330
EDC8
102
}
330
EDC8
100
AcDbDictionary
281
     1
  0
DICTIONARY
  5
EE25
102
{ACAD_REACTORS
330
EDC8
102
}
330
EDC8
100
AcDbDictionary
281
     1
  3
Model
350
EE33
  3
Présentation1
350
EE2F
  0
DICTIONARY
  5
EDCC
102
{ACAD_REACTORS
330
EDC8
102
}
330
EDC8
100
AcDbDictionary
281
     1
  3
ByBlock
350
EDD5
  3
ByLayer
350
EDCD
  3
Global
350
EDDD
  0
DICTIONARY
  5
EE29
102
{ACAD_REACTORS
330
EDC8
102
}
330
EDC8
100
AcDbDictionary
281
     1
  3
Standard
350
EE2A
  0
DICTIONARY
  5
EE22
102
{ACAD_REACTORS
330
EDC8
102
}
330
EDC8
100
AcDbDictionary
281
     1
  3
Standard
350
EE23
  0
DICTIONARY
  5
EE24
102
{ACAD_REACTORS
330
EDC8
102
}
330
EDC8
100
AcDbDictionary
281
     1
  0
ACDBDICTIONARYWDFLT
  5
EDCA
102
{ACAD_REACTORS
330
EDC8
102
}
330
EDC8
100
AcDbDictionary
281
     1
  3
Normal
350
EDCB
100
AcDbDictionaryWithDefault
340
EDCB
  0
DICTIONARY
  5
EDF6
102
{ACAD_REACTORS
330
EDC8
102
}
330
EDC8
100
AcDbDictionary
281
     1
  3
A0
350
EDF7
  3
A1
350
EDF8
  3
A2
350
EDF9
  3
A3
350
EDFA
  3
A4
350
EDFB
  3
A5
350
EDFC
  3
A6
350
EDFD
  3
A7
350
EDFE
  3
A8
350
EDFF
  3
A9
350
EE00
  3
B0
350
EE01
  3
B1
350
EE02
  3
B2
350
EE03
  3
B3
350
EE04
  3
B4
350
EE05
  3
B5
350
EE06
  3
B6
350
EE07
  3
B7
350
EE08
  3
B8
350
EE09
  3
B9
350
EE0A
  3
C0
350
EE0B
  3
C1
350
EE0C
  3
C2
350
EE0D
  3
C3
350
EE0E
  3
C4
350
EE0F
  3
C5
350
EE10
  3
C6
350
EE11
  3
C7
350
EE12
  3
C8
350
EE13
  3
C9
350
EE14
  3
D0
350
EE15
  3
D1
350
EE16
  3
D2
350
EE17
  0
DICTIONARY
  5
EE27
102
{ACAD_REACTORS
330
EDC8
102
}
330
EDC8
100
AcDbDictionary
281
     1
  3
Standard
350
EE28
  0
DICTIONARY
  5
EDE5
102
{ACAD_REACTORS
330
EDC8
102
}
330
EDC8
100
AcDbDictionary
281
     1
  3
2dWireframe
350
EDEB
  3
3D Hidden
350
EDED
  3
3dWireframe
350
EDEC
  3
Basic
350
EDEA
  3
Brighten
350
EDF1
  3
ColorChange
350
EDF5
  3
Conceptual
350
EDEE
  3
Dim
350
EDF0
  3
Facepattern
350
EDF4
  3
Flat
350
EDE6
  3
FlatWithEdges
350
EDE7
  3
Gouraud
350
EDE8
  3
GouraudWithEdges
350
EDE9
  3
Linepattern
350
EDF3
  3
Realistic
350
EDEF
  3
Thicken
350
EDF2
  0
XRECORD
  5
EE56
102
{ACAD_REACTORS
330
EDC8
102
}
330
EDC8
100
AcDbXrecord
280
     1
 90
        1
330
EE28
  0
DICTIONARY
  5
EE4D
102
{ACAD_REACTORS
330
EDC8
102
}
330
EDC8
100
AcDbDictionary
281
     1
  3
CANNOSCALE
350
EE50
  3
CMLEADERSTYLE
350
EE4F
  3
CTABLESTYLE
350
EE4E
  3
DIMASSOC
350
EE53
  3
INDEXCTL
350
EE52
  3
SORTENTS
350
EE51
  0
XRECORD
  5
EE57
102
{ACAD_REACTORS
330
EDC8
102
}
330
EDC8
100
AcDbXrecord
280
     1
  1
DWGPROPS COOKIE
  2

  3

  4

  6

  7

  8
user
  9

300
=
301
=
302
=
303
=
304
=
305
=
306
=
307
=
308
=
309
=
 40
0.1375753009259259
 41
2453267.54545066
 42
2457351.526013773
  1

 90
        0
  0
XRECORD
  5
EE4C
102
{ACAD_REACTORS
330
EE4B
102
}
330
EE4B
100
AcDbXrecord
280
     1
290
     1
  0
LAYOUT
  5
EE33
102
{ACAD_XDICTIONARY
360
EE5E
102
}
102
{ACAD_REACTORS
330
EE25
102
}
330
EE25
100
AcDbPlotSettings
  1

  2
CutePDF Writer
  4

  6

 40
0.0
 41
0.0
 42
0.0
 43
0.0
 44
0.0
 45
0.0
 46
0.0
 47
0.0
 48
0.0
 49
0.0
140
0.0
141
0.0
142
1.0
143
1.0
 70
  1712
 72
     0
 73
     0
 74
     0
  7

 75
     0
147
1.0
148
0.0
149
0.0
100
AcDbLayout
  1
Model
 70
     1
 71
     0
 10
0.0
 20
0.0
 11
12.0
 21
9.0
 12
0.0
 22
0.0
 32
0.0
 14
0.0
 24
0.0
 34
0.0
 15
0.0
 25
0.0
 35
0.0
146
0.0
 13
0.0
 23
0.0
 33
0.0
 16
1.0
 26
0.0
 36
0.0
 17
0.0
 27
1.0
 37
0.0
 76
     0
330
EE30
331
EE34
  0
LAYOUT
  5
EE2F
102
{ACAD_XDICTIONARY
360
EE5C
102
}
102
{ACAD_REACTORS
330
EE25
102
}
330
EE25
100
AcDbPlotSettings
  1

  2
CutePDF Writer
  4

  6

 40
0.0
 41
0.0
 42
0.0
 43
0.0
 44
0.0
 45
0.0
 46
0.0
 47
0.0
 48
0.0
 49
0.0
140
0.0
141
0.0
142
1.0
143
1.0
 70
   688
 72
     0
 73
     0
 74
     5
  7

 75
    16
147
1.0
148
0.0
149
0.0
100
AcDbLayout
  1
Présentation1
 70
     1
 71
     1
 10
0.0
 20
0.0
 11
12.0
 21
9.0
 12
0.0
 22
0.0
 32
0.0
 14
0.0
 24
0.0
 34
0.0
 15
0.0
 25
0.0
 35
0.0
146
0.0
 13
0.0
 23
0.0
 33
0.0
 16
1.0
 26
0.0
 36
0.0
 17
0.0
 27
1.0
 37
0.0
 76
     0
330
EE2C
  0
MATERIAL
  5
EDD5
102
{ACAD_XDICTIONARY
360
EDD6
102
}
102
{ACAD_REACTORS
330
EDCC
102
}
330
EDCC
100
AcDbMaterial
  1
ByBlock
 72
     0
 43
0.0208333333333333
 43
0.0
 43
0.0
 43
0.0
 43
0.0
 43
0.0208333333333333
 43
0.0
 43
0.0
 43
0.0
 43
0.0
 43
1.0
 43
0.0
 43
0.0
 43
0.0
 43
0.0
 43
1.0
 77
     0
 47
0.0208333333333333
 47
0.0
 47
0.0
 47
0.0
 47
0.0
 47
0.0208333333333333
 47
0.0
 47
0.0
 47
0.0
 47
0.0
 47
1.0
 47
0.0
 47
0.0
 47
0.0
 47
0.0
 47
1.0
171
     0
 49
0.0208333333333333
 49
0.0
 49
0.0
 49
0.0
 49
0.0
 49
0.0208333333333333
 49
0.0
 49
0.0
 49
0.0
 49
0.0
 49
1.0
 49
0.0
 49
0.0
 49
0.0
 49
0.0
 49
1.0
175
     0
142
0.0208333333333333
142
0.0
142
0.0
142
0.0
142
0.0
142
0.0208333333333333
142
0.0
142
0.0
142
0.0
142
0.0
142
1.0
142
0.0
142
0.0
142
0.0
142
0.0
142
1.0
179
     0
144
0.0208333333333333
144
0.0
144
0.0
144
0.0
144
0.0
144
0.0208333333333333
144
0.0
144
0.0
144
0.0
144
0.0
144
1.0
144
0.0
144
0.0
144
0.0
144
0.0
144
1.0
147
0.0208333333333333
147
0.0
147
0.0
147
0.0
147
0.0
147
0.0208333333333333
147
0.0
147
0.0
147
0.0
147
0.0
147
1.0
147
0.0
147
0.0
147
0.0
147
0.0
147
1.0
  0
MATERIAL
  5
EDCD
102
{ACAD_XDICTIONARY
360
EDCE
102
}
102
{ACAD_REACTORS
330
EDCC
102
}
330
EDCC
100
AcDbMaterial
  1
ByLayer
 72
     0
 43
0.0208333333333333
 43
0.0
 43
0.0
 43
0.0
 43
0.0
 43
0.0208333333333333
 43
0.0
 43
0.0
 43
0.0
 43
0.0
 43
1.0
 43
0.0
 43
0.0
 43
0.0
 43
0.0
 43
1.0
 77
     0
 47
0.0208333333333333
 47
0.0
 47
0.0
 47
0.0
 47
0.0
 47
0.0208333333333333
 47
0.0
 47
0.0
 47
0.0
 47
0.0
 47
1.0
 47
0.0
 47
0.0
 47
0.0
 47
0.0
 47
1.0
171
     0
 49
0.0208333333333333
 49
0.0
 49
0.0
 49
0.0
 49
0.0
 49
0.0208333333333333
 49
0.0
 49
0.0
 49
0.0
 49
0.0
 49
1.0
 49
0.0
 49
0.0
 49
0.0
 49
0.0
 49
1.0
175
     0
142
0.0208333333333333
142
0.0
142
0.0
142
0.0
142
0.0
142
0.0208333333333333
142
0.0
142
0.0
142
0.0
142
0.0
142
1.0
142
0.0
142
0.0
142
0.0
142
0.0
142
1.0
179
     0
144
0.0208333333333333
144
0.0
144
0.0
144
0.0
144
0.0
144
0.0208333333333333
144
0.0
144
0.0
144
0.0
144
0.0
144
1.0
144
0.0
144
0.0
144
0.0
144
0.0
144
1.0
147
0.0208333333333333
147
0.0
147
0.0
147
0.0
147
0.0
147
0.0208333333333333
147
0.0
147
0.0
147
0.0
147
0.0
147
1.0
147
0.0
147
0.0
147
0.0
147
0.0
147
1.0
  0
MATERIAL
  5
EDDD
102
{ACAD_XDICTIONARY
360
EDDE
102
}
102
{ACAD_REACTORS
330
EDCC
102
}
330
EDCC
100
AcDbMaterial
  1
Global
 72
     0
 43
0.0208333333333333
 43
0.0
 43
0.0
 43
0.0
 43
0.0
 43
0.0208333333333333
 43
0.0
 43
0.0
 43
0.0
 43
0.0
 43
1.0
 43
0.0
 43
0.0
 43
0.0
 43
0.0
 43
1.0
 77
     0
 47
0.0208333333333333
 47
0.0
 47
0.0
 47
0.0
 47
0.0
 47
0.0208333333333333
 47
0.0
 47
0.0
 47
0.0
 47
0.0
 47
1.0
 47
0.0
 47
0.0
 47
0.0
 47
0.0
 47
1.0
171
     0
 49
0.0208333333333333
 49
0.0
 49
0.0
 49
0.0
 49
0.0
 49
0.0208333333333333
 49
0.0
 49
0.0
 49
0.0
 49
0.0
 49
1.0
 49
0.0
 49
0.0
 49
0.0
 49
0.0
 49
1.0
175
     0
142
0.0208333333333333
142
0.0
142
0.0
142
0.0
142
0.0
142
0.0208333333333333
142
0.0
142
0.0
142
0.0
142
0.0
142
1.0
142
0.0
142
0.0
142
0.0
142
0.0
142
1.0
179
     0
144
0.0208333333333333
144
0.0
144
0.0
144
0.0
144
0.0
144
0.0208333333333333
144
0.0
144
0.0
144
0.0
144
0.0
144
1.0
144
0.0
144
0.0
144
0.0
144
0.0
144
1.0
147
0.0208333333333333
147
0.0
147
0.0
147
0.0
147
0.0
147
0.0208333333333333
147
0.0
147
0.0
147
0.0
147
0.0
147
1.0
147
0.0
147
0.0
147
0.0
147
0.0
147
1.0
  0
MLEADERSTYLE
  5
EE2A
102
{ACAD_REACTORS
330
EE29
102
}
330
EE29
100
AcDbMLeaderStyle
170
     2
171
     1
172
     0
 90
        2
 40
0.0
 41
0.0
173
     1
 91
-1056964608
340
EE1E
 92
       -2
290
     1
 42
0.09
291
     1
 43
0.36
  3
Standard
 44
0.18
300

342
EE19
174
     1
178
     6
175
     1
176
     0
 93
-1056964608
 45
0.18
292
     0
297
     0
 46
0.18
 94
-1056964608
 47
1.0
 49
1.0
140
1.0
293
     1
141
0.0
294
     1
177
     0
142
1.0
295
     0
296
     0
143
0.125
1001
ACAD_MLEADERVER
1070
     2
  0
MLINESTYLE
  5
EE23
102
{ACAD_REACTORS
330
EE22
102
}
330
EE22
100
AcDbMlineStyle
  2
STANDARD
 70
     0
  3

 62
   256
 51
90.0
 52
90.0
 71
     2
 49
0.5
 62
   256
  6
BYLAYER
 49
-0.5
 62
   256
  6
BYLAYER
  0
ACDBPLACEHOLDER
  5
EDCB
102
{ACAD_REACTORS
330
EDCA
102
}
330
EDCA
  0
SCALE
  5
EDF7
102
{ACAD_REACTORS
330
EDF6
102
}
330
EDF6
100
AcDbScale
 70
     0
300
1:1
140
1.0
141
1.0
290
     1
  0
SCALE
  5
EDF8
102
{ACAD_REACTORS
330
EDF6
102
}
330
EDF6
100
AcDbScale
 70
     0
300
1:2
140
1.0
141
2.0
290
     0
  0
SCALE
  5
EDF9
102
{ACAD_REACTORS
330
EDF6
102
}
330
EDF6
100
AcDbScale
 70
     0
300
1:4
140
1.0
141
4.0
290
     0
  0
SCALE
  5
EDFA
102
{ACAD_REACTORS
330
EDF6
102
}
330
EDF6
100
AcDbScale
 70
     0
300
1:5
140
1.0
141
5.0
290
     0
  0
SCALE
  5
EDFB
102
{ACAD_REACTORS
330
EDF6
102
}
330
EDF6
100
AcDbScale
 70
     0
300
1:8
140
1.0
141
8.0
290
     0
  0
SCALE
  5
EDFC
102
{ACAD_REACTORS
330
EDF6
102
}
330
EDF6
100
AcDbScale
 70
     0
300
1:10
140
1.0
141
10.0
290
     0
  0
SCALE
  5
EDFD
102
{ACAD_REACTORS
330
EDF6
102
}
330
EDF6
100
AcDbScale
 70
     0
300
1:16
140
1.0
141
16.0
290
     0
  0
SCALE
  5
EDFE
102
{ACAD_REACTORS
330
EDF6
102
}
330
EDF6
100
AcDbScale
 70
     0
300
1:20
140
1.0
141
20.0
290
     0
  0
SCALE
  5
EDFF
102
{ACAD_REACTORS
330
EDF6
102
}
330
EDF6
100
AcDbScale
 70
     0
300
1:30
140
1.0
141
30.0
290
     0
  0
SCALE
  5
EE00
102
{ACAD_REACTORS
330
EDF6
102
}
330
EDF6
100
AcDbScale
 70
     0
300
1:40
140
1.0
141
40.0
290
     0
  0
SCALE
  5
EE01
102
{ACAD_REACTORS
330
EDF6
102
}
330
EDF6
100
AcDbScale
 70
     0
300
1:50
140
1.0
141
50.0
290
     0
  0
SCALE
  5
EE02
102
{ACAD_REACTORS
330
EDF6
102
}
330
EDF6
100
AcDbScale
 70
     0
300
1:100
140
1.0
141
100.0
290
     0
  0
SCALE
  5
EE03
102
{ACAD_REACTORS
330
EDF6
102
}
330
EDF6
100
AcDbScale
 70
     0
300
2:1
140
2.0
141
1.0
290
     0
  0
SCALE
  5
EE04
102
{ACAD_REACTORS
330
EDF6
102
}
330
EDF6
100
AcDbScale
 70
     0
300
4:1
140
4.0
141
1.0
290
     0
  0
SCALE
  5
EE05
102
{ACAD_REACTORS
330
EDF6
102
}
330
EDF6
100
AcDbScale
 70
     0
300
8:1
140
8.0
141
1.0
290
     0
  0
SCALE
  5
EE06
102
{ACAD_REACTORS
330
EDF6
102
}
330
EDF6
100
AcDbScale
 70
     0
300
10:1
140
10.0
141
1.0
290
     0
  0
SCALE
  5
EE07
102
{ACAD_REACTORS
330
EDF6
102
}
330
EDF6
100
AcDbScale
 70
     0
300
100:1
140
100.0
141
1.0
290
     0
  0
SCALE
  5
EE08
102
{ACAD_REACTORS
330
EDF6
102
}
330
EDF6
100
AcDbScale
 70
     0
300
1/128" = 1'-0"
140
0.0078125
141
12.0
290
     0
  0
SCALE
  5
EE09
102
{ACAD_REACTORS
330
EDF6
102
}
330
EDF6
100
AcDbScale
 70
     0
300
1/64" = 1'-0"
140
0.015625
141
12.0
290
     0
  0
SCALE
  5
EE0A
102
{ACAD_REACTORS
330
EDF6
102
}
330
EDF6
100
AcDbScale
 70
     0
300
1/32" = 1'-0"
140
0.03125
141
12.0
290
     0
  0
SCALE
  5
EE0B
102
{ACAD_REACTORS
330
EDF6
102
}
330
EDF6
100
AcDbScale
 70
     0
300
1/16" = 1'-0"
140
0.0625
141
12.0
290
     0
  0
SCALE
  5
EE0C
102
{ACAD_REACTORS
330
EDF6
102
}
330
EDF6
100
AcDbScale
 70
     0
300
3/32" = 1'-0"
140
0.09375
141
12.0
290
     0
  0
SCALE
  5
EE0D
102
{ACAD_REACTORS
330
EDF6
102
}
330
EDF6
100
AcDbScale
 70
     0
300
1/8" = 1'-0"
140
0.125
141
12.0
290
     0
  0
SCALE
  5
EE0E
102
{ACAD_REACTORS
330
EDF6
102
}
330
EDF6
100
AcDbScale
 70
     0
300
3/16" = 1'-0"
140
0.1875
141
12.0
290
     0
  0
SCALE
  5
EE0F
102
{ACAD_REACTORS
330
EDF6
102
}
330
EDF6
100
AcDbScale
 70
     0
300
1/4" = 1'-0"
140
0.25
141
12.0
290
     0
  0
SCALE
  5
EE10
102
{ACAD_REACTORS
330
EDF6
102
}
330
EDF6
100
AcDbScale
 70
     0
300
3/8" = 1'-0"
140
0.375
141
12.0
290
     0
  0
SCALE
  5
EE11
102
{ACAD_REACTORS
330
EDF6
102
}
330
EDF6
100
AcDbScale
 70
     0
300
1/2" = 1'-0"
140
0.5
141
12.0
290
     0
  0
SCALE
  5
EE12
102
{ACAD_REACTORS
330
EDF6
102
}
330
EDF6
100
AcDbScale
 70
     0
300
3/4" = 1'-0"
140
0.75
141
12.0
290
     0
  0
SCALE
  5
EE13
102
{ACAD_REACTORS
330
EDF6
102
}
330
EDF6
100
AcDbScale
 70
     0
300
1" = 1'-0"
140
1.0
141
12.0
290
     0
  0
SCALE
  5
EE14
102
{ACAD_REACTORS
330
EDF6
102
}
330
EDF6
100
AcDbScale
 70
     0
300
1-1/2" = 1'-0"
140
1.5
141
12.0
290
     0
  0
SCALE
  5
EE15
102
{ACAD_REACTORS
330
EDF6
102
}
330
EDF6
100
AcDbScale
 70
     0
300
3" = 1'-0"
140
3.0
141
12.0
290
     0
  0
SCALE
  5
EE16
102
{ACAD_REACTORS
330
EDF6
102
}
330
EDF6
100
AcDbScale
 70
     0
300
6" = 1'-0"
140
6.0
141
12.0
290
     0
  0
SCALE
  5
EE17
102
{ACAD_REACTORS
330
EDF6
102
}
330
EDF6
100
AcDbScale
 70
     0
300
1'-0" = 1'-0"
140
12.0
141
12.0
290
     0
  0
TABLESTYLE
  5
EE28
102
{ACAD_XDICTIONARY
360
EE54
102
}
102
{ACAD_REACTORS
330
EE27
102
}
330
EE27
100
AcDbTableStyle
  3
Standard
 70
     0
 71
     0
 40
0.06
 41
0.06
280
     0
281
     0
  7
STANDARD
140
0.18
170
     2
 62
     0
 63
     7
283
     0
274
    -2
284
     1
 64
     0
275
    -2
285
     1
 65
     0
276
    -2
286
     1
 66
     0
277
    -2
287
     1
 67
     0
278
    -2
288
     1
 68
     0
279
    -2
289
     1
 69
     0
  7
STANDARD
140
0.25
170
     5
 62
     0
 63
     7
283
     0
274
    -2
284
     1
 64
     0
275
    -2
285
     1
 65
     0
276
    -2
286
     1
 66
     0
277
    -2
287
     1
 67
     0
278
    -2
288
     1
 68
     0
279
    -2
289
     1
 69
     0
  7
STANDARD
140
0.18
170
     5
 62
     0
 63
     7
283
     0
274
    -2
284
     1
 64
     0
275
    -2
285
     1
 65
     0
276
    -2
286
     1
 66
     0
277
    -2
287
     1
 67
     0
278
    -2
288
     1
 68
     0
279
    -2
289
     1
 69
     0
  0
VISUALSTYLE
  5
EDEB
102
{ACAD_REACTORS
330
EDE5
102
}
330
EDE5
100
AcDbVisualStyle
  2
2dWireframe
 70
     4
 71
     0
 72
     2
 73
     0
 90
        0
 40
-0.6
 41
-30.0
 62
     5
 63
     7
 74
     1
 91
        4
 64
     7
 65
   257
 75
     1
175
     1
 42
1.0
 92
        0
 66
   257
 43
1.0
 76
     1
 77
     6
 78
     2
 67
     7
 79
     5
170
     0
171
     0
290
     0
174
     0
 93
        1
 44
0.0
173
     0
291
     0
 45
0.0
1001
ACAD
1000
AcDbSavedByObjectVersion
1070
     0
  0
VISUALSTYLE
  5
EDED
102
{ACAD_REACTORS
330
EDE5
102
}
330
EDE5
100
AcDbVisualStyle
  2
3D Hidden
 70
     6
 71
     1
 72
     2
 73
     2
 90
        0
 40
-0.6
 41
-30.0
 62
     5
 63
     7
 74
     2
 91
        2
 64
     7
 65
   257
 75
     2
175
     1
 42
40.0
 92
        0
 66
   257
 43
1.0
 76
     1
 77
     6
 78
     2
 67
     7
 79
     3
170
     0
171
     0
290
     0
174
     0
 93
        1
 44
0.0
173
     0
291
     0
 45
0.0
1001
ACAD
1000
AcDbSavedByObjectVersion
1070
     0
  0
VISUALSTYLE
  5
EDEC
102
{ACAD_REACTORS
330
EDE5
102
}
330
EDE5
100
AcDbVisualStyle
  2
3dWireframe
 70
     5
 71
     0
 72
     2
 73
     0
 90
        0
 40
-0.6
 41
-30.0
 62
     5
 63
     7
 74
     1
 91
        4
 64
     7
 65
   257
 75
     1
175
     1
 42
1.0
 92
        0
 66
   257
 43
1.0
 76
     1
 77
     6
 78
     2
 67
     7
 79
     5
170
     0
171
     0
290
     0
174
     0
 93
        1
 44
0.0
173
     0
291
     0
 45
0.0
1001
ACAD
1000
AcDbSavedByObjectVersion
1070
     0
  0
VISUALSTYLE
  5
EDEA
102
{ACAD_REACTORS
330
EDE5
102
}
330
EDE5
100
AcDbVisualStyle
  2
Basic
 70
     7
 71
     1
 72
     0
 73
     1
 90
        0
 40
-0.6
 41
-30.0
 62
     5
 63
     7
 74
     0
 91
        4
 64
     7
 65
   257
 75
     1
175
     1
 42
1.0
 92
        8
 66
     7
 43
1.0
 76
     1
 77
     6
 78
     2
 67
     7
 79
     5
170
     0
171
     0
290
     0
174
     0
 93
        1
 44
0.0
173
     0
291
     1
 45
0.0
1001
ACAD
1000
AcDbSavedByObjectVersion
1070
     0
  0
VISUALSTYLE
  5
EDF1
102
{ACAD_REACTORS
330
EDE5
102
}
330
EDE5
100
AcDbVisualStyle
  2
Brighten
 70
    12
 71
     2
 72
     2
 73
     0
 90
        0
 40
-0.6
 41
-30.0
 62
     5
 63
     7
 74
     1
 91
        4
 64
     7
 65
   257
 75
     1
175
     1
 42
1.0
 92
        8
 66
     7
 43
1.0
 76
     1
 77
     6
 78
     2
 67
     7
 79
     5
170
     0
171
     0
290
     0
174
     0
 93
        1
 44
50.0
173
     0
291
     1
 45
0.0
1001
ACAD
1000
AcDbSavedByObjectVersion
1070
     0
  0
VISUALSTYLE
  5
EDF5
102
{ACAD_REACTORS
330
EDE5
102
}
330
EDE5
100
AcDbVisualStyle
  2
ColorChange
 70
    16
 71
     2
 72
     2
 73
     3
 90
        0
 40
-0.6
 41
-30.0
 62
     5
 63
     8
 74
     1
 91
        4
 64
     7
 65
   257
 75
     1
175
     1
 42
1.0
 92
        8
 66
     8
 43
1.0
 76
     1
 77
     6
 78
     2
 67
     7
 79
     5
170
     0
171
     0
290
     0
174
     0
 93
        1
 44
0.0
173
     0
291
     1
 45
0.0
1001
ACAD
1000
AcDbSavedByObjectVersion
1070
     0
  0
VISUALSTYLE
  5
EDEE
102
{ACAD_REACTORS
330
EDE5
102
}
330
EDE5
100
AcDbVisualStyle
  2
Conceptual
 70
     9
 71
     3
 72
     2
 73
     0
 90
        0
 40
-0.6
 41
-30.0
 62
     5
 63
     7
 74
     2
 91
        2
 64
     7
 65
   257
 75
     1
175
     1
 42
40.0
 92
        8
 66
     7
 43
1.0
 76
     1
 77
     6
 78
     2
 67
     7
 79
     3
170
     0
171
     0
290
     0
174
     0
 93
        1
 44
0.0
173
     0
291
     0
 45
0.0
1001
ACAD
1000
AcDbSavedByObjectVersion
1070
     0
  0
VISUALSTYLE
  5
EDF0
102
{ACAD_REACTORS
330
EDE5
102
}
330
EDE5
100
AcDbVisualStyle
  2
Dim
 70
    11
 71
     2
 72
     2
 73
     0
 90
        0
 40
-0.6
 41
-30.0
 62
     5
 63
     7
 74
     1
 91
        4
 64
     7
 65
   257
 75
     1
175
     1
 42
1.0
 92
        8
 66
     7
 43
1.0
 76
     1
 77
     6
 78
     2
 67
     7
 79
     5
170
     0
171
     0
290
     0
174
     0
 93
        1
 44
-50.0
173
     0
291
     1
 45
0.0
1001
ACAD
1000
AcDbSavedByObjectVersion
1070
     0
  0
VISUALSTYLE
  5
EDF4
102
{ACAD_REACTORS
330
EDE5
102
}
330
EDE5
100
AcDbVisualStyle
  2
Facepattern
 70
    15
 71
     2
 72
     2
 73
     0
 90
        0
 40
-0.6
 41
-30.0
 62
     5
 63
     7
 74
     1
 91
        4
 64
     7
 65
   257
 75
     1
175
     1
 42
1.0
 92
        8
 66
     7
 43
1.0
 76
     1
 77
     6
 78
     2
 67
     7
 79
     5
170
     0
171
     0
290
     0
174
     0
 93
        1
 44
0.0
173
     0
291
     1
 45
0.0
1001
ACAD
1000
AcDbSavedByObjectVersion
1070
     0
  0
VISUALSTYLE
  5
EDE6
102
{ACAD_REACTORS
330
EDE5
102
}
330
EDE5
100
AcDbVisualStyle
  2
Flat
 70
     0
 71
     2
 72
     1
 73
     1
 90
        2
 40
-0.6
 41
30.0
 62
     5
 63
     7
 74
     0
 91
        4
 64
     7
 65
   257
 75
     1
175
     1
 42
1.0
 92
        8
 66
     7
 43
1.0
 76
     1
 77
     6
 78
     2
 67
     7
 79
     5
170
     0
171
     0
290
     0
174
     0
 93
       13
 44
0.0
173
     0
291
     1
 45
0.0
1001
ACAD
1000
AcDbSavedByObjectVersion
1070
     0
  0
VISUALSTYLE
  5
EDE7
102
{ACAD_REACTORS
330
EDE5
102
}
330
EDE5
100
AcDbVisualStyle
  2
FlatWithEdges
 70
     1
 71
     2
 72
     1
 73
     1
 90
        2
 40
-0.6
 41
30.0
 62
     5
 63
     7
 74
     1
 91
        4
 64
     7
 65
   257
 75
     1
175
     1
 42
1.0
 92
        0
 66
   257
 43
1.0
 76
     1
 77
     6
 78
     2
 67
     7
 79
     5
170
     0
171
     0
290
     0
174
     0
 93
       13
 44
0.0
173
     0
291
     1
 45
0.0
1001
ACAD
1000
AcDbSavedByObjectVersion
1070
     0
  0
VISUALSTYLE
  5
EDE8
102
{ACAD_REACTORS
330
EDE5
102
}
330
EDE5
100
AcDbVisualStyle
  2
Gouraud
 70
     2
 71
     2
 72
     2
 73
     1
 90
        2
 40
-0.6
 41
30.0
 62
     5
 63
     7
 74
     0
 91
        4
 64
     7
 65
   257
 75
     1
175
     1
 42
1.0
 92
        0
 66
     7
 43
1.0
 76
     1
 77
     6
 78
     2
 67
     7
 79
     5
170
     0
171
     0
290
     0
174
     0
 93
       13
 44
0.0
173
     0
291
     1
 45
0.0
1001
ACAD
1000
AcDbSavedByObjectVersion
1070
     0
  0
VISUALSTYLE
  5
EDE9
102
{ACAD_REACTORS
330
EDE5
102
}
330
EDE5
100
AcDbVisualStyle
  2
GouraudWithEdges
 70
     3
 71
     2
 72
     2
 73
     1
 90
        2
 40
-0.6
 41
30.0
 62
     5
 63
     7
 74
     1
 91
        4
 64
     7
 65
   257
 75
     1
175
     1
 42
1.0
 92
        0
 66
   257
 43
1.0
 76
     1
 77
     6
 78
     2
 67
     7
 79
     5
170
     0
171
     0
290
     0
174
     0
 93
       13
 44
0.0
173
     0
291
     1
 45
0.0
1001
ACAD
1000
AcDbSavedByObjectVersion
1070
     0
  0
VISUALSTYLE
  5
EDF3
102
{ACAD_REACTORS
330
EDE5
102
}
330
EDE5
100
AcDbVisualStyle
  2
Linepattern
 70
    14
 71
     2
 72
     2
 73
     0
 90
        0
 40
-0.6
 41
-30.0
 62
     5
 63
     7
 74
     1
 91
        4
 64
     7
 65
   257
 75
     7
175
     7
 42
1.0
 92
        8
 66
     7
 43
1.0
 76
     1
 77
     6
 78
     2
 67
     7
 79
     5
170
     0
171
     0
290
     0
174
     0
 93
        1
 44
0.0
173
     0
291
     1
 45
0.0
1001
ACAD
1000
AcDbSavedByObjectVersion
1070
     0
  0
VISUALSTYLE
  5
EDEF
102
{ACAD_REACTORS
330
EDE5
102
}
330
EDE5
100
AcDbVisualStyle
  2
Realistic
 70
     8
 71
     2
 72
     2
 73
     0
 90
        0
 40
-0.6
 41
-30.0
 62
     5
 63
     7
 74
     1
 91
        0
 64
     7
 65
   257
 75
     1
175
     1
 42
1.0
 92
        8
 66
     8
 43
1.0
 76
     1
 77
     6
 78
     2
 67
     7
 79
     5
170
     0
171
     0
290
     0
174
     0
 93
       13
 44
0.0
173
     0
291
     0
 45
0.0
1001
ACAD
1000
AcDbSavedByObjectVersion
1070
     0
  0
VISUALSTYLE
  5
EDF2
102
{ACAD_REACTORS
330
EDE5
102
}
330
EDE5
100
AcDbVisualStyle
  2
Thicken
 70
    13
 71
     2
 72
     2
 73
     0
 90
        0
 40
-0.6
 41
-30.0
 62
     5
 63
     7
 74
     1
 91
        4
 64
     7
 65
   257
 75
     1
175
     1
 42
1.0
 92
       12
 66
     7
 43
1.0
 76
     1
 77
     6
 78
     2
 67
     7
 79
     5
170
     0
171
     0
290
     0
174
     0
 93
        1
 44
0.0
173
     0
291
     1
 45
0.0
1001
ACAD
1000
AcDbSavedByObjectVersion
1070
     0
  0
DICTIONARYVAR
  5
EE50
102
{ACAD_REACTORS
330
EE4D
102
}
330
EE4D
100
DictionaryVariables
280
     0
  1
1:1
  0
DICTIONARYVAR
  5
EE4F
102
{ACAD_REACTORS
330
EE4D
102
}
330
EE4D
100
DictionaryVariables
280
     0
  1
STANDARD
  0
DICTIONARYVAR
  5
EE4E
102
{ACAD_REACTORS
330
EE4D
102
}
330
EE4D
100
DictionaryVariables
280
     0
  1
STANDARD
  0
DICTIONARYVAR
  5
EE53
102
{ACAD_REACTORS
330
EE4D
102
}
330
EE4D
100
DictionaryVariables
280
     0
  1
1
  0
DICTIONARYVAR
  5
EE52
102
{ACAD_REACTORS
330
EE4D
102
}
330
EE4D
100
DictionaryVariables
280
     0
  1
0
  0
DICTIONARYVAR
  5
EE51
102
{ACAD_REACTORS
330
EE4D
102
}
330
EE4D
100
DictionaryVariables
280
     0
  1
127
  0
DICTIONARY
  5
EE5E
330
EE33
100
AcDbDictionary
280
     1
281
     1
  3
ACAD_XREC_ROUNDTRIP
360
EE5F
  0
DICTIONARY
  5
EE5C
330
EE2F
100
AcDbDictionary
280
     1
281
     1
  3
ACAD_XREC_ROUNDTRIP
360
EE5D
  0
DICTIONARY
  5
EDD6
330
EDD5
100
AcDbDictionary
280
     1
281
     1
  3
ACAD_XREC_ROUNDTRIP
360
EE59
  3
BUMPTILE
360
EDD8
  3
DIFFUSETILE
360
EDD7
  3
OPACITYTILE
360
EDDB
  3
REFLECTIONTILE
360
EDDA
  3
REFRACTIONTILE
360
EDDC
  3
SPECULARTILE
360
EDD9
  0
DICTIONARY
  5
EDCE
330
EDCD
100
AcDbDictionary
280
     1
281
     1
  3
ACAD_XREC_ROUNDTRIP
360
EE58
  3
BUMPTILE
360
EDD0
  3
DIFFUSETILE
360
EDCF
  3
OPACITYTILE
360
EDD3
  3
REFLECTIONTILE
360
EDD2
  3
REFRACTIONTILE
360
EDD4
  3
SPECULARTILE
360
EDD1
  0
DICTIONARY
  5
EDDE
330
EDDD
100
AcDbDictionary
280
     1
281
     1
  3
ACAD_XREC_ROUNDTRIP
360
EE5A
  3
BUMPTILE
360
EDE0
  3
DIFFUSETILE
360
EDDF
  3
OPACITYTILE
360
EDE3
  3
REFLECTIONTILE
360
EDE2
  3
REFRACTIONTILE
360
EDE4
  3
SPECULARTILE
360
EDE1
  0
DICTIONARY
  5
EE54
330
EE28
100
AcDbDictionary
280
     1
281
     1
  3
ACAD_ROUNDTRIP_2008_TABLESTYLE_CELLSTYLEMAP
360
EE55
  3
ACAD_XREC_ROUNDTRIP
360
EE5B
  0
XRECORD
  5
EE5F
102
{ACAD_REACTORS
330
EE5E
102
}
330
EE5E
100
AcDbXrecord
280
     1
102
SHADEPLOT
 70
     0
102
SHADEPLOTRESLEVEL
 70
     2
102
SHADEPLOTCUSTOMDPI
 70
   300
  0
XRECORD
  5
EE5D
102
{ACAD_REACTORS
330
EE5C
102
}
330
EE5C
100
AcDbXrecord
280
     1
102
SHADEPLOT
 70
     0
102
SHADEPLOTRESLEVEL
 70
     2
102
SHADEPLOTCUSTOMDPI
 70
   300
  0
XRECORD
  5
EE59
102
{ACAD_REACTORS
330
EDD6
102
}
330
EDD6
100
AcDbXrecord
280
     1
102
MATERIAL
148
0.0
149
0.0
149
0.0
 93
        0
 94
      127
282
     0
 72
     0
 77
     0
171
     0
175
     0
179
     0
273
     0
  0
XRECORD
  5
EDD8
102
{ACAD_REACTORS
330
EDD6
102
}
330
EDD6
100
AcDbXrecord
280
     1
270
     1
271
     1
  0
XRECORD
  5
EDD7
102
{ACAD_REACTORS
330
EDD6
102
}
330
EDD6
100
AcDbXrecord
280
     1
270
     1
271
     1
  0
XRECORD
  5
EDDB
102
{ACAD_REACTORS
330
EDD6
102
}
330
EDD6
100
AcDbXrecord
280
     1
270
     1
271
     1
  0
XRECORD
  5
EDDA
102
{ACAD_REACTORS
330
EDD6
102
}
330
EDD6
100
AcDbXrecord
280
     1
270
     1
271
     1
  0
XRECORD
  5
EDDC
102
{ACAD_REACTORS
330
EDD6
102
}
330
EDD6
100
AcDbXrecord
280
     1
270
     1
271
     1
  0
XRECORD
  5
EDD9
102
{ACAD_REACTORS
330
EDD6
102
}
330
EDD6
100
AcDbXrecord
280
     1
270
     1
271
     1
  0
XRECORD
  5
EE58
102
{ACAD_REACTORS
330
EDCE
102
}
330
EDCE
100
AcDbXrecord
280
     1
102
MATERIAL
148
0.0
149
0.0
149
0.0
 93
        0
 94
      127
282
     0
 72
     0
 77
     0
171
     0
175
     0
179
     0
273
     0
  0
XRECORD
  5
EDD0
102
{ACAD_REACTORS
330
EDCE
102
}
330
EDCE
100
AcDbXrecord
280
     1
270
     1
271
     1
  0
XRECORD
  5
EDCF
102
{ACAD_REACTORS
330
EDCE
102
}
330
EDCE
100
AcDbXrecord
280
     1
270
     1
271
     1
  0
XRECORD
  5
EDD3
102
{ACAD_REACTORS
330
EDCE
102
}
330
EDCE
100
AcDbXrecord
280
     1
270
     1
271
     1
  0
XRECORD
  5
EDD2
102
{ACAD_REACTORS
330
EDCE
102
}
330
EDCE
100
AcDbXrecord
280
     1
270
     1
271
     1
  0
XRECORD
  5
EDD4
102
{ACAD_REACTORS
330
EDCE
102
}
330
EDCE
100
AcDbXrecord
280
     1
270
     1
271
     1
  0
XRECORD
  5
EDD1
102
{ACAD_REACTORS
330
EDCE
102
}
330
EDCE
100
AcDbXrecord
280
     1
270
     1
271
     1
  0
XRECORD
  5
EE5A
102
{ACAD_REACTORS
330
EDDE
102
}
330
EDDE
100
AcDbXrecord
280
     1
102
MATERIAL
148
0.0
149
0.0
149
0.0
 93
        0
 94
      127
282
     0
 72
     0
 77
     0
171
     0
175
     0
179
     0
273
     0
  0
XRECORD
  5
EDE0
102
{ACAD_REACTORS
330
EDDE
102
}
330
EDDE
100
AcDbXrecord
280
     1
270
     1
271
     1
  0
XRECORD
  5
EDDF
102
{ACAD_REACTORS
330
EDDE
102
}
330
EDDE
100
AcDbXrecord
280
     1
270
     1
271
     1
  0
XRECORD
  5
EDE3
102
{ACAD_REACTORS
330
EDDE
102
}
330
EDDE
100
AcDbXrecord
280
     1
270
     1
271
     1
  0
XRECORD
  5
EDE2
102
{ACAD_REACTORS
330
EDDE
102
}
330
EDDE
100
AcDbXrecord
280
     1
270
     1
271
     1
  0
XRECORD
  5
EDE4
102
{ACAD_REACTORS
330
EDDE
102
}
330
EDDE
100
AcDbXrecord
280
     1
270
     1
271
     1
  0
XRECORD
  5
EDE1
102
{ACAD_REACTORS
330
EDDE
102
}
330
EDDE
100
AcDbXrecord
280
     1
270
     1
271
     1
  0
CELLSTYLEMAP
  5
EE55
102
{ACAD_REACTORS
330
EE54
102
}
330
EE54
100
AcDbCellStyleMap
 90
        3
300
CELLSTYLE
  1
TABLEFORMAT_BEGIN
 90
        5
170
     1
 91
        0
 92
    32768
 62
   257
 93
        1
300
CONTENTFORMAT
  1
CONTENTFORMAT_BEGIN
 90
        0
 91
        0
 92
      512
 93
        0
300

 40
0.0
140
1.0
 94
        5
 62
     0
340
EE19
144
0.25
309
CONTENTFORMAT_END
171
     0
 94
        0
309
TABLEFORMAT_END
  1
CELLSTYLE_BEGIN
 90
        1
 91
        1
300
_TITLE
309
CELLSTYLE_END
300
CELLSTYLE
  1
TABLEFORMAT_BEGIN
 90
        5
170
     1
 91
        0
 92
        0
 62
   257
 93
        1
300
CONTENTFORMAT
  1
CONTENTFORMAT_BEGIN
 90
        0
 91
        0
 92
      512
 93
        0
300

 40
0.0
140
1.0
 94
        5
 62
     0
340
EE19
144
0.18
309
CONTENTFORMAT_END
171
     0
 94
        0
309
TABLEFORMAT_END
  1
CELLSTYLE_BEGIN
 90
        2
 91
        1
300
_HEADER
309
CELLSTYLE_END
300
CELLSTYLE
  1
TABLEFORMAT_BEGIN
 90
        5
170
     1
 91
        0
 92
        0
 62
   257
 93
        1
300
CONTENTFORMAT
  1
CONTENTFORMAT_BEGIN
 90
        0
 91
        0
 92
      512
 93
        0
300

 40
0.0
140
1.0
 94
        2
 62
     0
340
EE19
144
0.18
309
CONTENTFORMAT_END
171
     0
 94
        0
309
TABLEFORMAT_END
  1
CELLSTYLE_BEGIN
 90
        3
 91
        2
300
_DATA
309
CELLSTYLE_END
  0
XRECORD
  5
EE5B
102
{ACAD_REACTORS
330
EE54
102
}
330
EE54
100
AcDbXrecord
280
     1
102
ACAD_ROUNDTRIP_PRE2007_TABLESTYLE
 90
      512
 91
        0
  1

 92
      512
 93
        0
  2

 94
      512
 95
        0
  3

  0
ENDSEC
  0
EOF
