  0
SECTION
  2
HEADER
  9
$ACADVER
  1
AC1021
  9
$ACADMAINTVER
 70
    25
  9
$DWGCODEPAGE
  3
ANSI_1252
  9
$INSBASE
 10
0.0
 20
0.0
 30
0.0
  9
$EXTMIN
 10
677.3468
 20
1074.0057
 30
0.0
  9
$EXTMAX
 10
1623.8753
 20
1225.4874
 30
0.0
  9
$LIMMIN
 10
0.0
 20
0.0
  9
$LIMMAX
 10
12.0
 20
9.0
  9
$ORTHOMODE
 70
     0
  9
$REGENMODE
 70
     1
  9
$FILLMODE
 70
     1
  9
$QTEXTMODE
 70
     0
  9
$MIRRTEXT
 70
     1
  9
$LTSCALE
 40
1.0
  9
$ATTMODE
 70
     1
  9
$TEXTSIZE
 40
0.2
  9
$TRACEWID
 40
0.05
  9
$TEXTSTYLE
  7
Standard
  9
$CLAYER
  8
0
  9
$CELTYPE
  6
ByLayer
  9
$CECOLOR
 62
   256
  9
$CELTSCALE
 40
1.0
  9
$DISPSILH
 70
     0
  9
$DIMSCALE
 40
1.0
  9
$DIMASZ
 40
0.18
  9
$DIMEXO
 40
0.0625
  9
$DIMDLI
 40
0.38
  9
$DIMRND
 40
0.0
  9
$DIMDLE
 40
0.0
  9
$DIMEXE
 40
0.18
  9
$DIMTP
 40
0.0
  9
$DIMTM
 40
0.0
  9
$DIMTXT
 40
0.18
  9
$DIMCEN
 40
0.09
  9
$DIMTSZ
 40
0.0
  9
$DIMTOL
 70
     0
  9
$DIMLIM
 70
     0
  9
$DIMTIH
 70
     1
  9
$DIMTOH
 70
     1
  9
$DIMSE1
 70
     0
  9
$DIMSE2
 70
     0
  9
$DIMTAD
 70
     0
  9
$DIMZIN
 70
     0
  9
$DIMBLK
  1

  9
$DIMASO
 70
     1
  9
$DIMSHO
 70
     1
  9
$DIMPOST
  1

  9
$DIMAPOST
  1

  9
$DIMALT
 70
     0
  9
$DIMALTD
 70
     2
  9
$DIMALTF
 40
25.4
  9
$DIMLFAC
 40
1.0
  9
$DIMTOFL
 70
     0
  9
$DIMTVP
 40
0.0
  9
$DIMTIX
 70
     0
  9
$DIMSOXD
 70
     0
  9
$DIMSAH
 70
     0
  9
$DIMBLK1
  1

  9
$DIMBLK2
  1

  9
$DIMSTYLE
  2
Standard
  9
$DIMCLRD
 70
     0
  9
$DIMCLRE
 70
     0
  9
$DIMCLRT
 70
     0
  9
$DIMTFAC
 40
1.0
  9
$DIMGAP
 40
0.09
  9
$DIMJUST
 70
     0
  9
$DIMSD1
 70
     0
  9
$DIMSD2
 70
     0
  9
$DIMTOLJ
 70
     1
  9
$DIMTZIN
 70
     0
  9
$DIMALTZ
 70
     0
  9
$DIMALTTZ
 70
     0
  9
$DIMUPT
 70
     0
  9
$DIMDEC
 70
     4
  9
$DIMTDEC
 70
     4
  9
$DIMALTU
 70
     2
  9
$DIMALTTD
 70
     2
  9
$DIMTXSTY
  7
Standard
  9
$DIMAUNIT
 70
     0
  9
$DIMADEC
 70
     0
  9
$DIMALTRND
 40
0.0
  9
$DIMAZIN
 70
     0
  9
$DIMDSEP
 70
    46
  9
$DIMATFIT
 70
     3
  9
$DIMFRAC
 70
     0
  9
$DIMLDRBLK
  1

  9
$DIMLUNIT
 70
     2
  9
$DIMLWD
 70
    -2
  9
$DIMLWE
 70
    -2
  9
$DIMTMOVE
 70
     0
  9
$DIMFXL
 40
1.0
  9
$DIMFXLON
 70
     0
  9
$DIMJOGANG
 40
0.7853981633974483
  9
$DIMTFILL
 70
     0
  9
$DIMTFILLCLR
 70
     0
  9
$DIMARCSYM
 70
     0
  9
$DIMLTYPE
  6

  9
$DIMLTEX1
  6

  9
$DIMLTEX2
  6

  9
$LUNITS
 70
     2
  9
$LUPREC
 70
     4
  9
$SKETCHINC
 40
0.1
  9
$FILLETRAD
 40
0.5
  9
$AUNITS
 70
     0
  9
$AUPREC
 70
     0
  9
$MENU
  1
.
  9
$ELEVATION
 40
0.0
  9
$PELEVATION
 40
0.0
  9
$THICKNESS
 40
0.0
  9
$LIMCHECK
 70
     0
  9
$CHAMFERA
 40
0.5
  9
$CHAMFERB
 40
0.5
  9
$CHAMFERC
 40
1.0
  9
$CHAMFERD
 40
0.0
  9
$SKPOLY
 70
     0
  9
$TDCREATE
 40
2458840.757010174
  9
$TDUCREATE
 40
2458840.757010174
  9
$TDUPDATE
 40
2458840.757010185
  9
$TDUUPDATE
 40
2458840.757010185
  9
$TDINDWG
 40
0.0000000116
  9
$TDUSRTIMER
 40
0.0000000116
  9
$USRTIMER
 70
     1
  9
$ANGBASE
 50
0.0
  9
$ANGDIR
 70
     0
  9
$PDMODE
 70
     0
  9
$PDSIZE
 40
0.0
  9
$PLINEWID
 40
0.0
  9
$SPLFRAME
 70
     0
  9
$SPLINETYPE
 70
     6
  9
$SPLINESEGS
 70
     8
  9
$HANDSEED
  5
92
  9
$SURFTAB1
 70
     6
  9
$SURFTAB2
 70
     6
  9
$SURFTYPE
 70
     6
  9
$SURFU
 70
     6
  9
$SURFV
 70
     6
  9
$UCSBASE
  2

  9
$UCSNAME
  2

  9
$UCSORG
 10
0.0
 20
0.0
 30
0.0
  9
$UCSXDIR
 10
1.0
 20
0.0
 30
0.0
  9
$UCSYDIR
 10
0.0
 20
1.0
 30
0.0
  9
$UCSORTHOREF
  2

  9
$UCSORTHOVIEW
 70
     0
  9
$UCSORGTOP
 10
0.0
 20
0.0
 30
0.0
  9
$UCSORGBOTTOM
 10
0.0
 20
0.0
 30
0.0
  9
$UCSORGLEFT
 10
0.0
 20
0.0
 30
0.0
  9
$UCSORGRIGHT
 10
0.0
 20
0.0
 30
0.0
  9
$UCSORGFRONT
 10
0.0
 20
0.0
 30
0.0
  9
$UCSORGBACK
 10
0.0
 20
0.0
 30
0.0
  9
$PUCSBASE
  2

  9
$PUCSNAME
  2

  9
$PUCSORG
 10
0.0
 20
0.0
 30
0.0
  9
$PUCSXDIR
 10
1.0
 20
0.0
 30
0.0
  9
$PUCSYDIR
 10
0.0
 20
1.0
 30
0.0
  9
$PUCSORTHOREF
  2

  9
$PUCSORTHOVIEW
 70
     0
  9
$PUCSORGTOP
 10
0.0
 20
0.0
 30
0.0
  9
$PUCSORGBOTTOM
 10
0.0
 20
0.0
 30
0.0
  9
$PUCSORGLEFT
 10
0.0
 20
0.0
 30
0.0
  9
$PUCSORGRIGHT
 10
0.0
 20
0.0
 30
0.0
  9
$PUCSORGFRONT
 10
0.0
 20
0.0
 30
0.0
  9
$PUCSORGBACK
 10
0.0
 20
0.0
 30
0.0
  9
$USERI1
 70
     0
  9
$USERI2
 70
     0
  9
$USERI3
 70
     0
  9
$USERI4
 70
     0
  9
$USERI5
 70
     0
  9
$USERR1
 40
0.0
  9
$USERR2
 40
0.0
  9
$USERR3
 40
0.0
  9
$USERR4
 40
0.0
  9
$USERR5
 40
0.0
  9
$WORLDVIEW
 70
     1
  9
$SHADEDGE
 70
     3
  9
$SHADEDIF
 70
    70
  9
$TILEMODE
 70
     1
  9
$MAXACTVP
 70
    64
  9
$PINSBASE
 10
0.0
 20
0.0
 30
0.0
  9
$PLIMCHECK
 70
     0
  9
$PEXTMIN
 10
1.000000000000000E+20
 20
1.000000000000000E+20
 30
1.000000000000000E+20
  9
$PEXTMAX
 10
-1.000000000000000E+20
 20
-1.000000000000000E+20
 30
-1.000000000000000E+20
  9
$PLIMMIN
 10
0.0
 20
0.0
  9
$PLIMMAX
 10
12.0
 20
9.0
  9
$UNITMODE
 70
     0
  9
$VISRETAIN
 70
     1
  9
$PLINEGEN
 70
     0
  9
$PSLTSCALE
 70
     1
  9
$TREEDEPTH
 70
  3020
  9
$CMLSTYLE
  2
Standard
  9
$CMLJUST
 70
     0
  9
$CMLSCALE
 40
1.0
  9
$PROXYGRAPHICS
 70
     1
  9
$MEASUREMENT
 70
     0
  9
$CELWEIGHT
370
    -1
  9
$ENDCAPS
280
     0
  9
$JOINSTYLE
280
     0
  9
$LWDISPLAY
290
     0
  9
$INSUNITS
 70
     4
  9
$HYPERLINKBASE
  1

  9
$STYLESHEET
  1

  9
$XEDIT
290
     1
  9
$CEPSNTYPE
380
     0
  9
$PSTYLEMODE
290
     1
  9
$FINGERPRINTGUID
  2
{92043320-C19A-480E-9713-FF3201ADC87A}
  9
$VERSIONGUID
  2
{FAEB1C32-E019-11D5-929B-00C0DF256EC4}
  9
$EXTNAMES
290
     1
  9
$PSVPSCALE
 40
0.0
  9
$OLESTARTUP
290
     0
  9
$SORTENTS
280
   127
  9
$INDEXCTL
280
     0
  9
$HIDETEXT
280
     1
  9
$XCLIPFRAME
290
     0
  9
$HALOGAP
280
     0
  9
$OBSCOLOR
 70
   257
  9
$OBSLTYPE
280
     0
  9
$INTERSECTIONDISPLAY
280
     0
  9
$INTERSECTIONCOLOR
 70
   257
  9
$DIMASSOC
280
     2
  9
$PROJECTNAME
  1

  9
$CAMERADISPLAY
290
     0
  9
$LENSLENGTH
 40
50.0
  9
$CAMERAHEIGHT
 40
0.0
  9
$STEPSPERSEC
 40
2.0
  9
$STEPSIZE
 40
6.0
  9
$3DDWFPREC
 40
2.0
  9
$PSOLWIDTH
 40
0.25
  9
$PSOLHEIGHT
 40
4.0
  9
$LOFTANG1
 40
1.570796326794897
  9
$LOFTANG2
 40
1.570796326794897
  9
$LOFTMAG1
 40
0.0
  9
$LOFTMAG2
 40
0.0
  9
$LOFTPARAM
 70
     7
  9
$LOFTNORMALS
280
     1
  9
$LATITUDE
 40
37.795
  9
$LONGITUDE
 40
-122.394
  9
$NORTHDIRECTION
 40
0.0
  9
$TIMEZONE
 70
 -8000
  9
$LIGHTGLYPHDISPLAY
280
     1
  9
$TILEMODELIGHTSYNCH
280
     1
  9
$SOLIDHIST
280
     1
  9
$SHOWHIST
280
     1
  9
$DWFFRAME
280
     2
  9
$DGNFRAME
280
     2
  9
$REALWORLDSCALE
290
     1
  9
$INTERFERECOLOR
 62
   256
  9
$CSHADOW
280
     0
  9
$SHADOWPLANELOCATION
 40
0.0
  0
ENDSEC
  0
SECTION
  2
CLASSES
  0
CLASS
  1
ACDBDICTIONARYWDFLT
  2
AcDbDictionaryWithDefault
  3
ObjectDBX Classes
 90
        0
 91
        3
280
     0
281
     0
  0
CLASS
  1
VISUALSTYLE
  2
AcDbVisualStyle
  3
ObjectDBX Classes
 90
     4095
 91
        3
280
     0
281
     0
  0
CLASS
  1
SCALE
  2
AcDbScale
  3
ObjectDBX Classes
 90
     1153
 91
        3
280
     0
281
     0
  0
ENDSEC
  0
SECTION
  2
TABLES
  0
TABLE
  2
VPORT
  5
8
330
0
100
AcDbSymbolTable
 70
     1
  0
VPORT
  5
29
330
8
100
AcDbSymbolTableRecord
100
AcDbViewportTableRecord
  2
*Active
 70
     0
 10
0.0
 20
0.0
 11
1.0
 21
1.0
 12
10.42990654205607
 22
4.5
 13
0.0
 23
0.0
 14
0.5
 24
0.5
 15
0.5
 25
0.5
 16
0.0
 26
0.0
 36
1.0
 17
0.0
 27
0.0
 37
0.0
 40
9.0
 41
1.972972972850329
 42
50.0
 43
0.0
 44
0.0
 50
0.0
 51
0.0
 71
     0
 72
   100
 73
     1
 74
     3
 75
     0
 76
     0
 77
     0
 78
     0
281
     0
 65
     1
110
0.0
120
0.0
130
0.0
111
1.0
121
0.0
131
0.0
112
0.0
122
1.0
132
0.0
 79
     0
146
0.0
 60
     3
 61
     5
292
     1
282
     1
141
0.0
142
0.0
 63
   256
  0
ENDTAB
  0
TABLE
  2
LTYPE
  5
5
330
0
100
AcDbSymbolTable
 70
     1
  0
LTYPE
  5
14
330
5
100
AcDbSymbolTableRecord
100
AcDbLinetypeTableRecord
  2
ByBlock
 70
     0
  3

 72
    65
 73
     0
 40
0.0
  0
LTYPE
  5
15
330
5
100
AcDbSymbolTableRecord
100
AcDbLinetypeTableRecord
  2
ByLayer
 70
     0
  3

 72
    65
 73
     0
 40
0.0
  0
LTYPE
  5
16
330
5
100
AcDbSymbolTableRecord
100
AcDbLinetypeTableRecord
  2
Continuous
 70
     0
  3
Solid line
 72
    65
 73
     0
 40
0.0
  0
ENDTAB
  0
TABLE
  2
LAYER
  5
2
330
0
100
AcDbSymbolTable
 70
     2
  0
LAYER
  5
10
330
2
100
AcDbSymbolTableRecord
100
AcDbLayerTableRecord
  2
0
 70
     0
 62
     7
  6
Continuous
370
    -3
390
F
347
0
  0
LAYER
  5
5E
330
2
100
AcDbSymbolTableRecord
100
AcDbLayerTableRecord
  2
#Layer 1
 70
     0
 62
     7
  6
Continuous
370
    -3
390
F
347
0
  0
ENDTAB
  0
TABLE
  2
STYLE
  5
3
330
0
100
AcDbSymbolTable
 70
     1
  0
STYLE
  5
11
330
3
100
AcDbSymbolTableRecord
100
AcDbTextStyleTableRecord
  2
Standard
 70
     0
 40
0.0
 41
1.0
 50
0.0
 71
     0
 42
0.2
  3
txt
  4

  0
ENDTAB
  0
TABLE
  2
VIEW
  5
6
330
0
100
AcDbSymbolTable
 70
     0
  0
ENDTAB
  0
TABLE
  2
UCS
  5
7
330
0
100
AcDbSymbolTable
 70
     0
  0
ENDTAB
  0
TABLE
  2
APPID
  5
9
330
0
100
AcDbSymbolTable
 70
     2
  0
APPID
  5
12
330
9
100
AcDbSymbolTableRecord
100
AcDbRegAppTableRecord
  2
ACAD
 70
     0
  0
APPID
  5
5D
330
9
100
AcDbSymbolTableRecord
100
AcDbRegAppTableRecord
  2
ODA
 70
     0
  0
ENDTAB
  0
TABLE
  2
DIMSTYLE
  5
A
330
0
100
AcDbSymbolTable
 70
     1
100
AcDbDimStyleTable
  0
DIMSTYLE
105
27
330
A
100
AcDbSymbolTableRecord
100
AcDbDimStyleTableRecord
  2
Standard
 70
     0
340
11
  0
ENDTAB
  0
TABLE
  2
BLOCK_RECORD
  5
1
330
0
100
AcDbSymbolTable
 70
     1
  0
BLOCK_RECORD
  5
1F
330
1
100
AcDbSymbolTableRecord
100
AcDbBlockTableRecord
  2
*Model_Space
340
22
 70
     0
280
     1
281
     0
  0
BLOCK_RECORD
  5
1B
330
1
100
AcDbSymbolTableRecord
100
AcDbBlockTableRecord
  2
*Paper_Space
340
1E
 70
     0
280
     1
281
     0
  0
BLOCK_RECORD
  5
23
330
1
100
AcDbSymbolTableRecord
100
AcDbBlockTableRecord
  2
*Paper_Space0
340
26
 70
     0
280
     1
281
     0
  0
ENDTAB
  0
ENDSEC
  0
SECTION
  2
BLOCKS
  0
BLOCK
  5
20
330
1F
100
AcDbEntity
  8
0
100
AcDbBlockBegin
  2
*Model_Space
 70
     0
 10
0.0
 20
0.0
 30
0.0
  3
*Model_Space
  1

  0
ENDBLK
  5
21
330
1F
100
AcDbEntity
  8
0
100
AcDbBlockEnd
  0
BLOCK
  5
1C
330
1B
100
AcDbEntity
 67
     1
  8
0
100
AcDbBlockBegin
  2
*Paper_Space
 70
     0
 10
0.0
 20
0.0
 30
0.0
  3
*Paper_Space
  1

  0
ENDBLK
  5
1D
330
1B
100
AcDbEntity
 67
     1
  8
0
100
AcDbBlockEnd
  0
BLOCK
  5
24
330
23
100
AcDbEntity
  8
0
100
AcDbBlockBegin
  2
*Paper_Space0
 70
     0
 10
0.0
 20
0.0
 30
0.0
  3
*Paper_Space0
  1

  0
ENDBLK
  5
25
330
23
100
AcDbEntity
  8
0
100
AcDbBlockEnd
  0
ENDSEC
  0
SECTION
  2
ENTITIES
  0
SPLINE
  5
5F
330
1F
100
AcDbEntity
  8
#Layer 1
 62
   250
370
    18
100
AcDbSpline
210
0.0
220
0.0
230
1.0
 70
    11
 71
     3
 72
   244
 73
   240
 74
     0
 42
0.0000000001
 43
0.0000000001
 40
0.0
 40
0.0
 40
0.0
 40
0.0
 40
0.0166666666666667
 40
0.0166666666666667
 40
0.0166666666666667
 40
0.0166666666666667
 40
0.0333333333333333
 40
0.0333333333333333
 40
0.0333333333333333
 40
0.0333333333333333
 40
0.05
 40
0.05
 40
0.05
 40
0.05
 40
0.0666666666666667
 40
0.0666666666666667
 40
0.0666666666666667
 40
0.0666666666666667
 40
0.0833333333333333
 40
0.0833333333333333
 40
0.0833333333333333
 40
0.0833333333333333
 40
0.1
 40
0.1
 40
0.1
 40
0.1
 40
0.1166666666666667
 40
0.1166666666666667
 40
0.1166666666666667
 40
0.1166666666666667
 40
0.1333333333333333
 40
0.1333333333333333
 40
0.1333333333333333
 40
0.1333333333333333
 40
0.15
 40
0.15
 40
0.15
 40
0.15
 40
0.1666666666666667
 40
0.1666666666666667
 40
0.1666666666666667
 40
0.1666666666666667
 40
0.1833333333333333
 40
0.1833333333333333
 40
0.1833333333333333
 40
0.1833333333333333
 40
0.2
 40
0.2
 40
0.2
 40
0.2
 40
0.2166666666666666
 40
0.2166666666666666
 40
0.2166666666666666
 40
0.2166666666666666
 40
0.2333333333333333
 40
0.2333333333333333
 40
0.2333333333333333
 40
0.2333333333333333
 40
0.25
 40
0.25
 40
0.25
 40
0.25
 40
0.2666666666666667
 40
0.2666666666666667
 40
0.2666666666666667
 40
0.2666666666666667
 40
0.2833333333333333
 40
0.2833333333333333
 40
0.2833333333333333
 40
0.2833333333333333
 40
0.3
 40
0.3
 40
0.3
 40
0.3
 40
0.3166666666666667
 40
0.3166666666666667
 40
0.3166666666666667
 40
0.3166666666666667
 40
0.3333333333333333
 40
0.3333333333333333
 40
0.3333333333333333
 40
0.3333333333333333
 40
0.35
 40
0.35
 40
0.35
 40
0.35
 40
0.3666666666666666
 40
0.3666666666666666
 40
0.3666666666666666
 40
0.3666666666666666
 40
0.3833333333333333
 40
0.3833333333333333
 40
0.3833333333333333
 40
0.3833333333333333
 40
0.4
 40
0.4
 40
0.4
 40
0.4
 40
0.4166666666666666
 40
0.4166666666666666
 40
0.4166666666666666
 40
0.4166666666666666
 40
0.4333333333333333
 40
0.4333333333333333
 40
0.4333333333333333
 40
0.4333333333333333
 40
0.45
 40
0.45
 40
0.45
 40
0.45
 40
0.4666666666666666
 40
0.4666666666666666
 40
0.4666666666666666
 40
0.4666666666666666
 40
0.4833333333333333
 40
0.4833333333333333
 40
0.4833333333333333
 40
0.4833333333333333
 40
0.4999999999999999
 40
0.4999999999999999
 40
0.4999999999999999
 40
0.4999999999999999
 40
0.5166666666666666
 40
0.5166666666666666
 40
0.5166666666666666
 40
0.5166666666666666
 40
0.5333333333333333
 40
0.5333333333333333
 40
0.5333333333333333
 40
0.5333333333333333
 40
0.55
 40
0.55
 40
0.55
 40
0.55
 40
0.5666666666666668
 40
0.5666666666666668
 40
0.5666666666666668
 40
0.5666666666666668
 40
0.5833333333333335
 40
0.5833333333333335
 40
0.5833333333333335
 40
0.5833333333333335
 40
0.6000000000000002
 40
0.6000000000000002
 40
0.6000000000000002
 40
0.6000000000000002
 40
0.6166666666666669
 40
0.6166666666666669
 40
0.6166666666666669
 40
0.6166666666666669
 40
0.6333333333333336
 40
0.6333333333333336
 40
0.6333333333333336
 40
0.6333333333333336
 40
0.6500000000000004
 40
0.6500000000000004
 40
0.6500000000000004
 40
0.6500000000000004
 40
0.6666666666666671
 40
0.6666666666666671
 40
0.6666666666666671
 40
0.6666666666666671
 40
0.6833333333333338
 40
0.6833333333333338
 40
0.6833333333333338
 40
0.6833333333333338
 40
0.7000000000000005
 40
0.7000000000000005
 40
0.7000000000000005
 40
0.7000000000000005
 40
0.7166666666666672
 40
0.7166666666666672
 40
0.7166666666666672
 40
0.7166666666666672
 40
0.733333333333334
 40
0.733333333333334
 40
0.733333333333334
 40
0.733333333333334
 40
0.7500000000000007
 40
0.7500000000000007
 40
0.7500000000000007
 40
0.7500000000000007
 40
0.7666666666666674
 40
0.7666666666666674
 40
0.7666666666666674
 40
0.7666666666666674
 40
0.7833333333333341
 40
0.7833333333333341
 40
0.7833333333333341
 40
0.7833333333333341
 40
0.8000000000000008
 40
0.8000000000000008
 40
0.8000000000000008
 40
0.8000000000000008
 40
0.8166666666666675
 40
0.8166666666666675
 40
0.8166666666666675
 40
0.8166666666666675
 40
0.8333333333333343
 40
0.8333333333333343
 40
0.8333333333333343
 40
0.8333333333333343
 40
0.850000000000001
 40
0.850000000000001
 40
0.850000000000001
 40
0.850000000000001
 40
0.8666666666666677
 40
0.8666666666666677
 40
0.8666666666666677
 40
0.8666666666666677
 40
0.8833333333333344
 40
0.8833333333333344
 40
0.8833333333333344
 40
0.8833333333333344
 40
0.9000000000000011
 40
0.9000000000000011
 40
0.9000000000000011
 40
0.9000000000000011
 40
0.9166666666666679
 40
0.9166666666666679
 40
0.9166666666666679
 40
0.9166666666666679
 40
0.9333333333333346
 40
0.9333333333333346
 40
0.9333333333333346
 40
0.9333333333333346
 40
0.9500000000000013
 40
0.9500000000000013
 40
0.9500000000000013
 40
0.9500000000000013
 40
0.966666666666668
 40
0.966666666666668
 40
0.966666666666668
 40
0.966666666666668
 40
0.9833333333333347
 40
0.9833333333333347
 40
0.9833333333333347
 40
0.9833333333333347
 40
1.0
 40
1.0
 40
1.0
 40
1.0
 10
1178.5322
 20
1090.8682
 30
0.0
 10
1176.899
 20
1093.8464
 30
0.0
 10
1174.6808
 20
1096.4545
 30
0.0
 10
1172.6729
 20
1099.1791
 30
0.0
 10
1172.6729
 20
1099.1791
 30
0.0
 10
1172.9612
 20
1099.1319
 30
0.0
 10
1173.2572
 20
1099.1074
 30
0.0
 10
1173.5589
 20
1099.1074
 30
0.0
 10
1173.5589
 20
1099.1074
 30
0.0
 10
1175.7845
 20
1099.1074
 30
0.0
 10
1177.6984
 20
1100.4421
 30
0.0
 10
1178.5438
 20
1102.3548
 30
0.0
 10
1178.5438
 20
1102.3548
 30
0.0
 10
1178.6857
 20
1102.487
 30
0.0
 10
1178.8267
 20
1102.6204
 30
0.0
 10
1178.967
 20
1102.7542
 30
0.0
 10
1178.967
 20
1102.7542
 30
0.0
 10
1181.5037
 20
1100.8698
 30
0.0
 10
1183.4605
 20
1098.3332
 30
0.0
 10
1185.6468
 20
1096.0744
 30
0.0
 10
1185.6468
 20
1096.0744
 30
0.0
 10
1188.1593
 20
1097.3789
 30
0.0
 10
1190.5752
 20
1098.8767
 30
0.0
 10
1192.9306
 20
1100.4712
 30
0.0
 10
1192.9306
 20
1100.4712
 30
0.0
 10
1199.091
 20
1098.7076
 30
0.0
 10
1205.8433
 20
1098.454
 30
0.0
 10
1211.6172
 20
1101.6308
 30
0.0
 10
1211.6172
 20
1101.6308
 30
0.0
 10
1209.1047
 20
1095.5308
 30
0.0
 10
1209.4067
 20
1087.945
 30
0.0
 10
1213.9968
 20
1082.8959
 30
0.0
 10
1213.9968
 20
1082.8959
 30
0.0
 10
1220.4712
 20
1075.7813
 30
0.0
 10
1230.7506
 20
1074.1627
 30
0.0
 10
1239.9067
 20
1074.2714
 30
0.0
 10
1239.9067
 20
1074.2714
 30
0.0
 10
1255.2231
 20
1073.9936
 30
0.0
 10
1270.4671
 20
1079.9849
 30
0.0
 10
1281.4713
 20
1090.6387
 30
0.0
 10
1281.4713
 20
1090.6387
 30
0.0
 10
1281.0521
 20
1089.3449
 30
0.0
 10
1280.7149
 20
1087.9649
 30
0.0
 10
1280.5482
 20
1086.5711
 30
0.0
 10
1280.5482
 20
1086.5711
 30
0.0
 10
1279.5621
 20
1078.3254
 30
0.0
 10
1286.5614
 20
1072.2705
 30
0.0
 10
1294.7901
 20
1074.5919
 30
0.0
 10
1294.7901
 20
1074.5919
 30
0.0
 10
1297.3828
 20
1075.3233
 30
0.0
 10
1299.5108
 20
1077.1261
 30
0.0
 10
1300.1087
 20
1080.4109
 30
0.0
 10
1300.1087
 20
1080.4109
 30
0.0
 10
1300.4649
 20
1082.3684
 30
0.0
 10
1299.9122
 20
1084.4542
 30
0.0
 10
1298.4492
 20
1086.0155
 30
0.0
 10
1298.4492
 20
1086.0155
 30
0.0
 10
1295.9949
 20
1088.6349
 30
0.0
 10
1291.8817
 20
1088.7687
 30
0.0
 10
1289.2624
 20
1086.3144
 30
0.0
 10
1289.2624
 20
1086.3144
 30
0.0
 10
1291.0501
 20
1088.7302
 30
0.0
 10
1293.9008
 20
1089.8656
 30
0.0
 10
1296.8843
 20
1089.7207
 30
0.0
 10
1296.8843
 20
1089.7207
 30
0.0
 10
1353.6446
 20
1089.769
 30
0.0
 10
1410.4048
 20
1089.7086
 30
0.0
 10
1467.1651
 20
1089.7448
 30
0.0
 10
1467.1651
 20
1089.7448
 30
0.0
 10
1479.1356
 20
1089.926
 30
0.0
 10
1491.9516
 20
1093.5498
 30
0.0
 10
1500.1293
 20
1102.7663
 30
0.0
 10
1500.1293
 20
1102.7663
 30
0.0
 10
1505.734
 20
1108.9508
 30
0.0
 10
1507.413
 20
1118.0706
 30
0.0
 10
1504.7435
 20
1125.9342
 30
0.0
 10
1504.7435
 20
1125.9342
 30
0.0
 10
1518.6225
 20
1117.1768
 30
0.0
 10
1538.0701
 20
1117.3821
 30
0.0
 10
1551.321
 20
1127.2871
 30
0.0
 10
1551.321
 20
1127.2871
 30
0.0
 10
1559.8247
 20
1133.7132
 30
0.0
 10
1563.7988
 20
1144.4275
 30
0.0
 10
1564.7893
 20
1154.731
 30
0.0
 10
1564.7893
 20
1154.731
 30
0.0
 10
1567.6883
 20
1150.0201
 30
0.0
 10
1571.9402
 20
1146.0461
 30
0.0
 10
1577.255
 20
1144.2704
 30
0.0
 10
1577.255
 20
1144.2704
 30
0.0
 10
1579.8332
 20
1143.3252
 30
0.0
 10
1582.5103
 20
1142.7553
 30
0.0
 10
1585.2138
 20
1142.5313
 30
0.0
 10
1585.2138
 20
1142.5313
 30
0.0
 10
1606.4732
 20
1140.7701
 30
0.0
 10
1621.9761
 20
1157.7627
 30
0.0
 10
1623.6355
 20
1177.7871
 30
0.0
 10
1623.6355
 20
1177.7871
 30
0.0
 10
1624.552
 20
1188.8462
 30
0.0
 10
1621.3718
 20
1200.3095
 30
0.0
 10
1614.2067
 20
1208.7809
 30
0.0
 10
1614.2067
 20
1208.7809
 30
0.0
 10
1604.6743
 20
1220.0512
 30
0.0
 10
1589.3337
 20
1224.5332
 30
0.0
 10
1573.1026
 20
1225.0532
 30
0.0
 10
1573.1026
 20
1225.0532
 30
0.0
 10
1559.0461
 20
1225.5036
 30
0.0
 10
1494.1281
 20
1225.3854
 30
0.0
 10
1485.3547
 20
1225.3858
 30
0.0
 10
1485.3547
 20
1225.3858
 30
0.0
 10
1373.7739
 20
1225.3905
 30
0.0
 10
1262.193
 20
1225.3945
 30
0.0
 10
1150.611
 20
1225.3945
 30
0.0
 10
1150.611
 20
1225.3945
 30
0.0
 10
1039.0291
 20
1225.3945
 30
0.0
 10
927.4482
 20
1225.3905
 30
0.0
 10
815.8674
 20
1225.3858
 30
0.0
 10
815.8674
 20
1225.3858
 30
0.0
 10
807.094
 20
1225.3854
 30
0.0
 10
742.176
 20
1225.5036
 30
0.0
 10
728.1195
 20
1225.0532
 30
0.0
 10
728.1195
 20
1225.0532
 30
0.0
 10
711.8884
 20
1224.5332
 30
0.0
 10
696.5478
 20
1220.0512
 30
0.0
 10
687.0154
 20
1208.7809
 30
0.0
 10
687.0154
 20
1208.7809
 30
0.0
 10
679.8503
 20
1200.3095
 30
0.0
 10
676.6701
 20
1188.8462
 30
0.0
 10
677.5866
 20
1177.7871
 30
0.0
 10
677.5866
 20
1177.7871
 30
0.0
 10
679.246
 20
1157.7627
 30
0.0
 10
694.7489
 20
1140.7701
 30
0.0
 10
716.0083
 20
1142.5313
 30
0.0
 10
716.0083
 20
1142.5313
 30
0.0
 10
718.7118
 20
1142.7553
 30
0.0
 10
721.3889
 20
1143.3252
 30
0.0
 10
723.9671
 20
1144.2704
 30
0.0
 10
723.9671
 20
1144.2704
 30
0.0
 10
729.2819
 20
1146.0461
 30
0.0
 10
733.5338
 20
1150.0201
 30
0.0
 10
736.4328
 20
1154.731
 30
0.0
 10
736.4328
 20
1154.731
 30
0.0
 10
737.4233
 20
1144.4275
 30
0.0
 10
741.3974
 20
1133.7132
 30
0.0
 10
749.9011
 20
1127.2871
 30
0.0
 10
749.9011
 20
1127.2871
 30
0.0
 10
763.152
 20
1117.3821
 30
0.0
 10
782.5996
 20
1117.1768
 30
0.0
 10
796.4786
 20
1125.9342
 30
0.0
 10
796.4786
 20
1125.9342
 30
0.0
 10
793.8091
 20
1118.0706
 30
0.0
 10
795.4881
 20
1108.9508
 30
0.0
 10
801.0929
 20
1102.7663
 30
0.0
 10
801.0929
 20
1102.7663
 30
0.0
 10
809.2705
 20
1093.5498
 30
0.0
 10
822.0865
 20
1089.926
 30
0.0
 10
834.057
 20
1089.7448
 30
0.0
 10
834.057
 20
1089.7448
 30
0.0
 10
890.8173
 20
1089.7086
 30
0.0
 10
947.5775
 20
1089.769
 30
0.0
 10
1004.3377
 20
1089.7207
 30
0.0
 10
1004.3377
 20
1089.7207
 30
0.0
 10
1007.3213
 20
1089.8656
 30
0.0
 10
1010.172
 20
1088.7302
 30
0.0
 10
1011.9597
 20
1086.3144
 30
0.0
 10
1011.9597
 20
1086.3144
 30
0.0
 10
1009.3404
 20
1088.7687
 30
0.0
 10
1005.2272
 20
1088.6349
 30
0.0
 10
1002.7728
 20
1086.0155
 30
0.0
 10
1002.7728
 20
1086.0155
 30
0.0
 10
1001.3099
 20
1084.4542
 30
0.0
 10
1000.7572
 20
1082.3684
 30
0.0
 10
1001.1134
 20
1080.4109
 30
0.0
 10
1001.1134
 20
1080.4109
 30
0.0
 10
1001.7113
 20
1077.1261
 30
0.0
 10
1003.8393
 20
1075.3233
 30
0.0
 10
1006.432
 20
1074.5919
 30
0.0
 10
1006.432
 20
1074.5919
 30
0.0
 10
1014.6607
 20
1072.2705
 30
0.0
 10
1021.66
 20
1078.3254
 30
0.0
 10
1020.6738
 20
1086.5711
 30
0.0
 10
1020.6738
 20
1086.5711
 30
0.0
 10
1020.5072
 20
1087.9649
 30
0.0
 10
1020.17
 20
1089.3449
 30
0.0
 10
1019.7508
 20
1090.6387
 30
0.0
 10
1019.7508
 20
1090.6387
 30
0.0
 10
1030.755
 20
1079.9849
 30
0.0
 10
1045.999
 20
1073.9936
 30
0.0
 10
1061.3154
 20
1074.2714
 30
0.0
 10
1061.3154
 20
1074.2714
 30
0.0
 10
1070.4715
 20
1074.1627
 30
0.0
 10
1080.7509
 20
1075.7813
 30
0.0
 10
1087.2253
 20
1082.8959
 30
0.0
 10
1087.2253
 20
1082.8959
 30
0.0
 10
1091.8154
 20
1087.945
 30
0.0
 10
1092.1174
 20
1095.5308
 30
0.0
 10
1089.6049
 20
1101.6308
 30
0.0
 10
1089.6049
 20
1101.6308
 30
0.0
 10
1095.3788
 20
1098.454
 30
0.0
 10
1102.1311
 20
1098.7076
 30
0.0
 10
1108.2915
 20
1100.4712
 30
0.0
 10
1108.2915
 20
1100.4712
 30
0.0
 10
1110.6469
 20
1098.8767
 30
0.0
 10
1113.0628
 20
1097.3789
 30
0.0
 10
1115.5753
 20
1096.0744
 30
0.0
 10
1115.5753
 20
1096.0744
 30
0.0
 10
1117.7616
 20
1098.3332
 30
0.0
 10
1119.7184
 20
1100.8698
 30
0.0
 10
1122.255
 20
1102.7542
 30
0.0
 10
1122.255
 20
1102.7542
 30
0.0
 10
1122.3954
 20
1102.6204
 30
0.0
 10
1122.5364
 20
1102.487
 30
0.0
 10
1122.6783
 20
1102.3548
 30
0.0
 10
1122.6783
 20
1102.3548
 30
0.0
 10
1123.5237
 20
1100.4421
 30
0.0
 10
1125.4376
 20
1099.1074
 30
0.0
 10
1127.6632
 20
1099.1074
 30
0.0
 10
1127.6632
 20
1099.1074
 30
0.0
 10
1127.9649
 20
1099.1074
 30
0.0
 10
1128.2609
 20
1099.1319
 30
0.0
 10
1128.5492
 20
1099.1791
 30
0.0
 10
1128.5492
 20
1099.1791
 30
0.0
 10
1126.5413
 20
1096.4545
 30
0.0
 10
1124.3231
 20
1093.8464
 30
0.0
 10
1122.6899
 20
1090.8682
 30
0.0
 10
1122.6899
 20
1090.8682
 30
0.0
 10
1125.4609
 20
1088.5253
 30
0.0
 10
1129.4292
 20
1088.6298
 30
0.0
 10
1132.9495
 20
1088.2628
 30
0.0
 10
1132.9495
 20
1088.2628
 30
0.0
 10
1139.663
 20
1078.5636
 30
0.0
 10
1152.9685
 20
1076.1431
 30
0.0
 10
1162.6677
 20
1082.8566
 30
0.0
 10
1162.6677
 20
1082.8566
 30
0.0
 10
1164.8819
 20
1084.3891
 30
0.0
 10
1166.5225
 20
1086.0276
 30
0.0
 10
1168.0579
 20
1088.2397
 30
0.0
 10
1168.0579
 20
1088.2397
 30
0.0
 10
1171.6306
 20
1088.6351
 30
0.0
 10
1175.7048
 20
1088.4776
 30
0.0
 10
1178.5322
 20
1090.8682
 30
0.0
  0
SPLINE
  5
60
330
1F
100
AcDbEntity
  8
#Layer 1
 62
   250
370
    18
100
AcDbSpline
210
0.0
220
0.0
230
1.0
 70
    11
 71
     3
 72
    40
 73
    36
 74
     0
 42
0.0000000001
 43
0.0000000001
 40
0.0
 40
0.0
 40
0.0
 40
0.0
 40
0.1111111111111111
 40
0.1111111111111111
 40
0.1111111111111111
 40
0.1111111111111111
 40
0.2222222222222222
 40
0.2222222222222222
 40
0.2222222222222222
 40
0.2222222222222222
 40
0.3333333333333333
 40
0.3333333333333333
 40
0.3333333333333333
 40
0.3333333333333333
 40
0.4444444444444444
 40
0.4444444444444444
 40
0.4444444444444444
 40
0.4444444444444444
 40
0.5555555555555556
 40
0.5555555555555556
 40
0.5555555555555556
 40
0.5555555555555556
 40
0.6666666666666667
 40
0.6666666666666667
 40
0.6666666666666667
 40
0.6666666666666667
 40
0.7777777777777779
 40
0.7777777777777779
 40
0.7777777777777779
 40
0.7777777777777779
 40
0.8888888888888891
 40
0.8888888888888891
 40
0.8888888888888891
 40
0.8888888888888891
 40
1.0
 40
1.0
 40
1.0
 40
1.0
 10
1141.3168
 20
1173.3495
 30
0.0
 10
1141.3168
 20
1173.3495
 30
0.0
 10
1141.3168
 20
1173.3495
 30
0.0
 10
1141.3168
 20
1173.3495
 30
0.0
 10
1141.3168
 20
1173.3495
 30
0.0
 10
1141.3168
 20
1173.3495
 30
0.0
 10
1159.9691
 20
1173.3495
 30
0.0
 10
1159.9691
 20
1173.3495
 30
0.0
 10
1159.9691
 20
1173.3495
 30
0.0
 10
1161.4192
 20
1168.519
 30
0.0
 10
1164.474
 20
1164.8999
 30
0.0
 10
1169.0152
 20
1162.6351
 30
0.0
 10
1169.0152
 20
1162.6351
 30
0.0
 10
1168.8752
 20
1162.4413
 30
0.0
 10
1168.7708
 20
1162.2902
 30
0.0
 10
1168.7843
 20
1162.2805
 30
0.0
 10
1168.7843
 20
1162.2805
 30
0.0
 10
1168.5837
 20
1162.1176
 30
0.0
 10
1168.3809
 20
1161.9579
 30
0.0
 10
1168.1762
 20
1161.8013
 30
0.0
 10
1168.1762
 20
1161.8013
 30
0.0
 10
1157.6078
 20
1153.9896
 30
0.0
 10
1143.8726
 20
1153.932
 30
0.0
 10
1133.2391
 20
1161.6549
 30
0.0
 10
1133.2391
 20
1161.6549
 30
0.0
 10
1132.9685
 20
1161.8579
 30
0.0
 10
1132.7014
 20
1162.0665
 30
0.0
 10
1132.4378
 20
1162.2805
 30
0.0
 10
1132.4378
 20
1162.2805
 30
0.0
 10
1132.4513
 20
1162.2902
 30
0.0
 10
1132.3469
 20
1162.4413
 30
0.0
 10
1132.2069
 20
1162.6351
 30
0.0
 10
1132.2069
 20
1162.6351
 30
0.0
 10
1136.7461
 20
1164.9249
 30
0.0
 10
1139.8084
 20
1168.5271
 30
0.0
 10
1141.3168
 20
1173.3495
 30
0.0
  0
SPLINE
  5
61
330
1F
100
AcDbEntity
  8
#Layer 1
 62
   250
370
    18
100
AcDbSpline
210
0.0
220
0.0
230
1.0
 70
    11
 71
     3
 72
    32
 73
    28
 74
     0
 42
0.0000000001
 43
0.0000000001
 40
0.0
 40
0.0
 40
0.0
 40
0.0
 40
0.1428571428571428
 40
0.1428571428571428
 40
0.1428571428571428
 40
0.1428571428571428
 40
0.2857142857142857
 40
0.2857142857142857
 40
0.2857142857142857
 40
0.2857142857142857
 40
0.4285714285714285
 40
0.4285714285714285
 40
0.4285714285714285
 40
0.4285714285714285
 40
0.5714285714285714
 40
0.5714285714285714
 40
0.5714285714285714
 40
0.5714285714285714
 40
0.7142857142857142
 40
0.7142857142857142
 40
0.7142857142857142
 40
0.7142857142857142
 40
0.857142857142857
 40
0.857142857142857
 40
0.857142857142857
 40
0.857142857142857
 40
1.0
 40
1.0
 40
1.0
 40
1.0
 10
1150.611
 20
1134.2516
 30
0.0
 10
1150.611
 20
1134.2516
 30
0.0
 10
1150.611
 20
1134.2516
 30
0.0
 10
1150.611
 20
1134.2516
 30
0.0
 10
1150.611
 20
1134.2516
 30
0.0
 10
1152.0358
 20
1123.5321
 30
0.0
 10
1155.8684
 20
1113.337
 30
0.0
 10
1157.9734
 20
1102.7542
 30
0.0
 10
1157.9734
 20
1102.7542
 30
0.0
 10
1158.4686
 20
1099.1787
 30
0.0
 10
1159.2538
 20
1094.9027
 30
0.0
 10
1156.693
 20
1091.9071
 30
0.0
 10
1156.693
 20
1091.9071
 30
0.0
 10
1155.0865
 20
1090.3005
 30
0.0
 10
1152.8392
 20
1089.8044
 30
0.0
 10
1150.611
 20
1089.9299
 30
0.0
 10
1150.611
 20
1089.9299
 30
0.0
 10
1148.3829
 20
1089.8044
 30
0.0
 10
1146.1356
 20
1090.3005
 30
0.0
 10
1144.5291
 20
1091.9071
 30
0.0
 10
1144.5291
 20
1091.9071
 30
0.0
 10
1141.9683
 20
1094.9027
 30
0.0
 10
1142.7535
 20
1099.1787
 30
0.0
 10
1143.2487
 20
1102.7542
 30
0.0
 10
1143.2487
 20
1102.7542
 30
0.0
 10
1145.3537
 20
1113.337
 30
0.0
 10
1149.1863
 20
1123.5321
 30
0.0
 10
1150.611
 20
1134.2516
 30
0.0
  0
SPLINE
  5
62
330
1F
100
AcDbEntity
  8
#Layer 1
 62
   250
370
    18
100
AcDbSpline
210
0.0
220
0.0
230
1.0
 70
    11
 71
     3
 72
    16
 73
    12
 74
     0
 42
0.0000000001
 43
0.0000000001
 40
0.0
 40
0.0
 40
0.0
 40
0.0
 40
0.3333333333333333
 40
0.3333333333333333
 40
0.3333333333333333
 40
0.3333333333333333
 40
0.6666666666666666
 40
0.6666666666666666
 40
0.6666666666666666
 40
0.6666666666666666
 40
1.0
 40
1.0
 40
1.0
 40
1.0
 10
1176.4871
 20
1164.7146
 30
0.0
 10
1176.4871
 20
1164.7146
 30
0.0
 10
1176.4871
 20
1164.7146
 30
0.0
 10
1176.4871
 20
1164.7146
 30
0.0
 10
1176.4871
 20
1164.7146
 30
0.0
 10
1176.5135
 20
1164.7245
 30
0.0
 10
1176.5382
 20
1164.7289
 30
0.0
 10
1176.5609
 20
1164.7274
 30
0.0
 10
1176.5609
 20
1164.7274
 30
0.0
 10
1176.5609
 20
1164.7274
 30
0.0
 10
1176.4871
 20
1164.7146
 30
0.0
 10
1176.4871
 20
1164.7146
 30
0.0
  0
SPLINE
  5
63
330
1F
100
AcDbEntity
  8
#Layer 1
 62
   250
370
    18
100
AcDbSpline
210
0.0
220
0.0
230
1.0
 70
    11
 71
     3
 72
   148
 73
   144
 74
     0
 42
0.0000000001
 43
0.0000000001
 40
0.0
 40
0.0
 40
0.0
 40
0.0
 40
0.0277777777777778
 40
0.0277777777777778
 40
0.0277777777777778
 40
0.0277777777777778
 40
0.0555555555555556
 40
0.0555555555555556
 40
0.0555555555555556
 40
0.0555555555555556
 40
0.0833333333333333
 40
0.0833333333333333
 40
0.0833333333333333
 40
0.0833333333333333
 40
0.1111111111111111
 40
0.1111111111111111
 40
0.1111111111111111
 40
0.1111111111111111
 40
0.1388888888888889
 40
0.1388888888888889
 40
0.1388888888888889
 40
0.1388888888888889
 40
0.1666666666666667
 40
0.1666666666666667
 40
0.1666666666666667
 40
0.1666666666666667
 40
0.1944444444444445
 40
0.1944444444444445
 40
0.1944444444444445
 40
0.1944444444444445
 40
0.2222222222222223
 40
0.2222222222222223
 40
0.2222222222222223
 40
0.2222222222222223
 40
0.2500000000000001
 40
0.2500000000000001
 40
0.2500000000000001
 40
0.2500000000000001
 40
0.2777777777777778
 40
0.2777777777777778
 40
0.2777777777777778
 40
0.2777777777777778
 40
0.3055555555555556
 40
0.3055555555555556
 40
0.3055555555555556
 40
0.3055555555555556
 40
0.3333333333333334
 40
0.3333333333333334
 40
0.3333333333333334
 40
0.3333333333333334
 40
0.3611111111111112
 40
0.3611111111111112
 40
0.3611111111111112
 40
0.3611111111111112
 40
0.388888888888889
 40
0.388888888888889
 40
0.388888888888889
 40
0.388888888888889
 40
0.4166666666666668
 40
0.4166666666666668
 40
0.4166666666666668
 40
0.4166666666666668
 40
0.4444444444444446
 40
0.4444444444444446
 40
0.4444444444444446
 40
0.4444444444444446
 40
0.4722222222222224
 40
0.4722222222222224
 40
0.4722222222222224
 40
0.4722222222222224
 40
0.5000000000000001
 40
0.5000000000000001
 40
0.5000000000000001
 40
0.5000000000000001
 40
0.5277777777777779
 40
0.5277777777777779
 40
0.5277777777777779
 40
0.5277777777777779
 40
0.5555555555555557
 40
0.5555555555555557
 40
0.5555555555555557
 40
0.5555555555555557
 40
0.5833333333333335
 40
0.5833333333333335
 40
0.5833333333333335
 40
0.5833333333333335
 40
0.6111111111111113
 40
0.6111111111111113
 40
0.6111111111111113
 40
0.6111111111111113
 40
0.6388888888888891
 40
0.6388888888888891
 40
0.6388888888888891
 40
0.6388888888888891
 40
0.6666666666666669
 40
0.6666666666666669
 40
0.6666666666666669
 40
0.6666666666666669
 40
0.6944444444444446
 40
0.6944444444444446
 40
0.6944444444444446
 40
0.6944444444444446
 40
0.7222222222222224
 40
0.7222222222222224
 40
0.7222222222222224
 40
0.7222222222222224
 40
0.7500000000000002
 40
0.7500000000000002
 40
0.7500000000000002
 40
0.7500000000000002
 40
0.777777777777778
 40
0.777777777777778
 40
0.777777777777778
 40
0.777777777777778
 40
0.8055555555555558
 40
0.8055555555555558
 40
0.8055555555555558
 40
0.8055555555555558
 40
0.8333333333333336
 40
0.8333333333333336
 40
0.8333333333333336
 40
0.8333333333333336
 40
0.8611111111111114
 40
0.8611111111111114
 40
0.8611111111111114
 40
0.8611111111111114
 40
0.8888888888888892
 40
0.8888888888888892
 40
0.8888888888888892
 40
0.8888888888888892
 40
0.916666666666667
 40
0.916666666666667
 40
0.916666666666667
 40
0.916666666666667
 40
0.9444444444444448
 40
0.9444444444444448
 40
0.9444444444444448
 40
0.9444444444444448
 40
0.9722222222222225
 40
0.9722222222222225
 40
0.9722222222222225
 40
0.9722222222222225
 40
1.0
 40
1.0
 40
1.0
 40
1.0
 10
1173.8433
 20
1160.8252
 30
0.0
 10
1173.8433
 20
1160.8252
 30
0.0
 10
1173.8433
 20
1160.8252
 30
0.0
 10
1173.8433
 20
1160.8252
 30
0.0
 10
1173.8433
 20
1160.8252
 30
0.0
 10
1176.6744
 20
1160.1119
 30
0.0
 10
1179.7346
 20
1159.8807
 30
0.0
 10
1182.8482
 20
1160.1479
 30
0.0
 10
1182.8482
 20
1160.1479
 30
0.0
 10
1188.6947
 20
1160.6496
 30
0.0
 10
1195.0018
 20
1162.3444
 30
0.0
 10
1198.4162
 20
1166.8201
 30
0.0
 10
1198.4162
 20
1166.8201
 30
0.0
 10
1199.8105
 20
1168.6479
 30
0.0
 10
1200.5948
 20
1170.5927
 30
0.0
 10
1200.8433
 20
1172.5148
 30
0.0
 10
1200.8433
 20
1172.5148
 30
0.0
 10
1201.8374
 20
1180.2027
 30
0.0
 10
1195.7896
 20
1183.8915
 30
0.0
 10
1189.6143
 20
1185.9409
 30
0.0
 10
1189.6143
 20
1185.9409
 30
0.0
 10
1189.0791
 20
1186.1185
 30
0.0
 10
1188.5477
 20
1186.2908
 30
0.0
 10
1188.0265
 20
1186.4631
 30
0.0
 10
1188.0265
 20
1186.4631
 30
0.0
 10
1188.7217
 20
1186.5856
 30
0.0
 10
1189.4191
 20
1186.6941
 30
0.0
 10
1190.1181
 20
1186.7886
 30
0.0
 10
1190.1181
 20
1186.7886
 30
0.0
 10
1200.8034
 20
1188.2328
 30
0.0
 10
1211.6345
 20
1186.097
 30
0.0
 10
1221.2858
 20
1181.4
 30
0.0
 10
1221.2858
 20
1181.4
 30
0.0
 10
1238.2852
 20
1173.1269
 30
0.0
 10
1256.5229
 20
1152.9711
 30
0.0
 10
1252.6312
 20
1132.1936
 30
0.0
 10
1252.6312
 20
1132.1936
 30
0.0
 10
1251.9923
 20
1128.7826
 30
0.0
 10
1250.6627
 20
1125.5672
 30
0.0
 10
1248.4345
 20
1122.8477
 30
0.0
 10
1248.4345
 20
1122.8477
 30
0.0
 10
1245.8006
 20
1119.633
 30
0.0
 10
1241.9927
 20
1117.43
 30
0.0
 10
1236.8659
 20
1116.9724
 30
0.0
 10
1236.8659
 20
1116.9724
 30
0.0
 10
1236.4867
 20
1116.9385
 30
0.0
 10
1236.1039
 20
1116.9166
 30
0.0
 10
1235.7178
 20
1116.9071
 30
0.0
 10
1235.7178
 20
1116.9071
 30
0.0
 10
1235.6847
 20
1116.9004
 30
0.0
 10
1235.6516
 20
1116.8936
 30
0.0
 10
1235.6186
 20
1116.8869
 30
0.0
 10
1235.6186
 20
1116.8869
 30
0.0
 10
1236.44
 20
1118.1619
 30
0.0
 10
1236.7087
 20
1119.5284
 30
0.0
 10
1236.4313
 20
1121.0195
 30
0.0
 10
1236.4313
 20
1121.0195
 30
0.0
 10
1236.1479
 20
1122.5424
 30
0.0
 10
1235.2838
 20
1123.8106
 30
0.0
 10
1234.1104
 20
1124.6378
 30
0.0
 10
1234.1104
 20
1124.6378
 30
0.0
 10
1230.3718
 20
1127.0711
 30
0.0
 10
1225.4481
 20
1126.2213
 30
0.0
 10
1222.7414
 20
1122.6757
 30
0.0
 10
1222.7414
 20
1122.6757
 30
0.0
 10
1219.8989
 20
1118.9523
 30
0.0
 10
1220.6131
 20
1113.6293
 30
0.0
 10
1224.3366
 20
1110.7868
 30
0.0
 10
1224.3366
 20
1110.7868
 30
0.0
 10
1221.5463
 20
1110.0983
 30
0.0
 10
1218.8406
 20
1109.132
 30
0.0
 10
1216.3281
 20
1107.7308
 30
0.0
 10
1216.3281
 20
1107.7308
 30
0.0
 10
1216.8233
 20
1111.7411
 30
0.0
 10
1214.8906
 20
1115.2803
 30
0.0
 10
1212.1607
 20
1118.0465
 30
0.0
 10
1212.1607
 20
1118.0465
 30
0.0
 10
1213.0183
 20
1120.0395
 30
0.0
 10
1213.9122
 20
1122.0205
 30
0.0
 10
1214.8181
 20
1124.0015
 30
0.0
 10
1214.8181
 20
1124.0015
 30
0.0
 10
1210.6902
 20
1124.6071
 30
0.0
 10
1206.531
 20
1125.3753
 30
0.0
 10
1202.4587
 20
1126.4409
 30
0.0
 10
1202.4587
 20
1126.4409
 30
0.0
 10
1188.7051
 20
1130.0398
 30
0.0
 10
1176.4811
 20
1138.0573
 30
0.0
 10
1167.5696
 20
1149.2031
 30
0.0
 10
1167.5696
 20
1149.2031
 30
0.0
 10
1167.3599
 20
1149.4653
 30
0.0
 10
1167.1528
 20
1149.7296
 30
0.0
 10
1166.9482
 20
1149.996
 30
0.0
 10
1166.9482
 20
1149.996
 30
0.0
 10
1166.9482
 20
1149.996
 30
0.0
 10
1167.371
 20
1151.5663
 30
0.0
 10
1167.371
 20
1151.5663
 30
0.0
 10
1167.371
 20
1151.5663
 30
0.0
 10
1170.5599
 20
1149.5249
 30
0.0
 10
1172.9516
 20
1146.4689
 30
0.0
 10
1176.1405
 20
1144.4033
 30
0.0
 10
1176.1405
 20
1144.4033
 30
0.0
 10
1187.2655
 20
1136.5881
 30
0.0
 10
1201.0962
 20
1133.834
 30
0.0
 10
1214.4799
 20
1133.5441
 30
0.0
 10
1214.4799
 20
1133.5441
 30
0.0
 10
1214.335
 20
1134.4379
 30
0.0
 10
1214.0572
 20
1136.2257
 30
0.0
 10
1213.9122
 20
1137.1195
 30
0.0
 10
1213.9122
 20
1137.1195
 30
0.0
 10
1216.0314
 20
1137.7472
 30
0.0
 10
1218.3447
 20
1138.3929
 30
0.0
 10
1220.2754
 20
1139.5616
 30
0.0
 10
1220.2754
 20
1139.5616
 30
0.0
 10
1224.3156
 20
1142.0071
 30
0.0
 10
1225.6683
 20
1147.3343
 30
0.0
 10
1222.8894
 20
1151.3754
 30
0.0
 10
1222.8894
 20
1151.3754
 30
0.0
 10
1220.7865
 20
1154.4334
 30
0.0
 10
1216.6538
 20
1155.4359
 30
0.0
 10
1212.7444
 20
1155.8091
 30
0.0
 10
1212.7444
 20
1155.8091
 30
0.0
 10
1212.0874
 20
1155.8718
 30
0.0
 10
1211.4349
 20
1155.9264
 30
0.0
 10
1210.7958
 20
1155.9873
 30
0.0
 10
1210.7958
 20
1155.9873
 30
0.0
 10
1210.6146
 20
1157.461
 30
0.0
 10
1210.4213
 20
1158.9225
 30
0.0
 10
1210.2522
 20
1160.3962
 30
0.0
 10
1210.2522
 20
1160.3962
 30
0.0
 10
1208.7945
 20
1159.7916
 30
0.0
 10
1207.3023
 20
1159.2132
 30
0.0
 10
1205.7844
 20
1158.6803
 30
0.0
 10
1205.7844
 20
1158.6803
 30
0.0
 10
1193.6159
 20
1154.4082
 30
0.0
 10
1185.4024
 20
1154.2075
 30
0.0
 10
1173.72
 20
1159.8073
 30
0.0
 10
1173.72
 20
1159.8073
 30
0.0
 10
1173.3833
 20
1159.9687
 30
0.0
 10
1173.3336
 20
1159.9925
 30
0.0
 10
1173.3336
 20
1159.9925
 30
0.0
 10
1173.3336
 20
1159.9925
 30
0.0
 10
1173.3336
 20
1159.9925
 30
0.0
 10
1173.4241
 20
1160.1405
 30
0.0
 10
1173.8433
 20
1160.8252
 30
0.0
  0
SPLINE
  5
64
330
1F
100
AcDbEntity
  8
#Layer 1
 62
   250
370
    18
100
AcDbSpline
210
0.0
220
0.0
230
1.0
 70
    11
 71
     3
 72
    24
 73
    20
 74
     0
 42
0.0000000001
 43
0.0000000001
 40
0.0
 40
0.0
 40
0.0
 40
0.0
 40
0.2
 40
0.2
 40
0.2
 40
0.2
 40
0.4
 40
0.4
 40
0.4
 40
0.4
 40
0.6000000000000001
 40
0.6000000000000001
 40
0.6000000000000001
 40
0.6000000000000001
 40
0.8
 40
0.8
 40
0.8
 40
0.8
 40
1.0
 40
1.0
 40
1.0
 40
1.0
 10
1161.4884
 20
1187.6589
 30
0.0
 10
1161.4884
 20
1187.6589
 30
0.0
 10
1161.4884
 20
1187.6589
 30
0.0
 10
1161.4884
 20
1187.6589
 30
0.0
 10
1161.4884
 20
1187.6589
 30
0.0
 10
1158.3262
 20
1191.2481
 30
0.0
 10
1155.25
 20
1195.095
 30
0.0
 10
1154.3254
 20
1199.9073
 30
0.0
 10
1154.3254
 20
1199.9073
 30
0.0
 10
1164.7136
 20
1199.9073
 30
0.0
 10
1175.1017
 20
1200.0039
 30
0.0
 10
1185.4898
 20
1199.8952
 30
0.0
 10
1185.4898
 20
1199.8952
 30
0.0
 10
1183.9894
 20
1199.5755
 30
0.0
 10
1182.4649
 20
1199.2373
 30
0.0
 10
1180.9418
 20
1198.8568
 30
0.0
 10
1180.9418
 20
1198.8568
 30
0.0
 10
1173.2509
 20
1196.9357
 30
0.0
 10
1165.2373
 20
1193.6952
 30
0.0
 10
1161.4884
 20
1187.6589
 30
0.0
  0
SPLINE
  5
65
330
1F
100
AcDbEntity
  8
#Layer 1
 62
   250
370
    18
100
AcDbSpline
210
0.0
220
0.0
230
1.0
 70
    11
 71
     3
 72
    32
 73
    28
 74
     0
 42
0.0000000001
 43
0.0000000001
 40
0.0
 40
0.0
 40
0.0
 40
0.0
 40
0.1428571428571428
 40
0.1428571428571428
 40
0.1428571428571428
 40
0.1428571428571428
 40
0.2857142857142857
 40
0.2857142857142857
 40
0.2857142857142857
 40
0.2857142857142857
 40
0.4285714285714285
 40
0.4285714285714285
 40
0.4285714285714285
 40
0.4285714285714285
 40
0.5714285714285714
 40
0.5714285714285714
 40
0.5714285714285714
 40
0.5714285714285714
 40
0.7142857142857142
 40
0.7142857142857142
 40
0.7142857142857142
 40
0.7142857142857142
 40
0.857142857142857
 40
0.857142857142857
 40
0.857142857142857
 40
0.857142857142857
 40
1.0
 40
1.0
 40
1.0
 40
1.0
 10
1168.4876
 20
1106.548
 30
0.0
 10
1168.4876
 20
1106.548
 30
0.0
 10
1168.4876
 20
1106.548
 30
0.0
 10
1168.4876
 20
1106.548
 30
0.0
 10
1168.4876
 20
1106.548
 30
0.0
 10
1168.4658
 20
1106.5355
 30
0.0
 10
1168.4438
 20
1106.5231
 30
0.0
 10
1168.4219
 20
1106.5108
 30
0.0
 10
1168.4219
 20
1106.5108
 30
0.0
 10
1161.6454
 20
1119.3027
 30
0.0
 10
1157.1761
 20
1133.3629
 30
0.0
 10
1156.1856
 20
1147.8459
 30
0.0
 10
1156.1856
 20
1147.8459
 30
0.0
 10
1156.8259
 20
1148.015
 30
0.0
 10
1158.0821
 20
1148.3653
 30
0.0
 10
1158.7102
 20
1148.5465
 30
0.0
 10
1158.7102
 20
1148.5465
 30
0.0
 10
1161.494
 20
1134.9393
 30
0.0
 10
1166.0301
 20
1121.4155
 30
0.0
 10
1174.0945
 20
1109.9764
 30
0.0
 10
1174.0945
 20
1109.9764
 30
0.0
 10
1173.9183
 20
1109.9936
 30
0.0
 10
1173.7396
 20
1110.0024
 30
0.0
 10
1173.5589
 20
1110.0024
 30
0.0
 10
1173.5589
 20
1110.0024
 30
0.0
 10
1171.2538
 20
1110.0024
 30
0.0
 10
1169.2831
 20
1108.5707
 30
0.0
 10
1168.4876
 20
1106.548
 30
0.0
  0
SPLINE
  5
66
330
1F
100
AcDbEntity
  8
#Layer 1
 62
   250
370
    18
100
AcDbSpline
210
0.0
220
0.0
230
1.0
 70
    11
 71
     3
 72
    44
 73
    40
 74
     0
 42
0.0000000001
 43
0.0000000001
 40
0.0
 40
0.0
 40
0.0
 40
0.0
 40
0.1
 40
0.1
 40
0.1
 40
0.1
 40
0.2
 40
0.2
 40
0.2
 40
0.2
 40
0.3
 40
0.3
 40
0.3
 40
0.3
 40
0.4
 40
0.4
 40
0.4
 40
0.4
 40
0.5
 40
0.5
 40
0.5
 40
0.5
 40
0.6
 40
0.6
 40
0.6
 40
0.6
 40
0.7
 40
0.7
 40
0.7
 40
0.7
 40
0.7999999999999999
 40
0.7999999999999999
 40
0.7999999999999999
 40
0.7999999999999999
 40
0.8999999999999999
 40
0.8999999999999999
 40
0.8999999999999999
 40
0.8999999999999999
 40
1.0
 40
1.0
 40
1.0
 40
1.0
 10
1273.2361
 20
1140.4434
 30
0.0
 10
1273.2361
 20
1140.4434
 30
0.0
 10
1273.2361
 20
1140.4434
 30
0.0
 10
1273.2361
 20
1140.4434
 30
0.0
 10
1273.2361
 20
1140.4434
 30
0.0
 10
1272.2438
 20
1151.0042
 30
0.0
 10
1268.2037
 20
1161.3434
 30
0.0
 10
1261.2109
 20
1169.368
 30
0.0
 10
1261.2109
 20
1169.368
 30
0.0
 10
1261.6205
 20
1169.3016
 30
0.0
 10
1262.0408
 20
1169.2671
 30
0.0
 10
1262.4692
 20
1169.2671
 30
0.0
 10
1262.4692
 20
1169.2671
 30
0.0
 10
1266.1471
 20
1169.2671
 30
0.0
 10
1269.2306
 20
1171.8121
 30
0.0
 10
1270.0546
 20
1175.2371
 30
0.0
 10
1270.0546
 20
1175.2371
 30
0.0
 10
1273.5602
 20
1171.0081
 30
0.0
 10
1278.0193
 20
1167.2773
 30
0.0
 10
1283.5248
 20
1166.0976
 30
0.0
 10
1283.5248
 20
1166.0976
 30
0.0
 10
1290.3495
 20
1164.4427
 30
0.0
 10
1297.4038
 20
1165.8318
 30
0.0
 10
1304.0957
 20
1167.4263
 30
0.0
 10
1304.0957
 20
1167.4263
 30
0.0
 10
1296.7153
 20
1159.2366
 30
0.0
 10
1291.4125
 20
1149.3316
 30
0.0
 10
1288.1873
 20
1138.8106
 30
0.0
 10
1288.1873
 20
1138.8106
 30
0.0
 10
1288.0671
 20
1138.9289
 30
0.0
 10
1287.9462
 20
1139.0486
 30
0.0
 10
1287.8244
 20
1139.1693
 30
0.0
 10
1287.8244
 20
1139.1693
 30
0.0
 10
1286.3919
 20
1141.9617
 30
0.0
 10
1283.4839
 20
1143.8725
 30
0.0
 10
1280.1298
 20
1143.8725
 30
0.0
 10
1280.1298
 20
1143.8725
 30
0.0
 10
1277.3148
 20
1143.8725
 30
0.0
 10
1274.8141
 20
1142.5267
 30
0.0
 10
1273.2361
 20
1140.4434
 30
0.0
  0
SPLINE
  5
67
330
1F
100
AcDbEntity
  8
#Layer 1
 62
   250
370
    18
100
AcDbSpline
210
0.0
220
0.0
230
1.0
 70
    11
 71
     3
 72
    48
 73
    44
 74
     0
 42
0.0000000001
 43
0.0000000001
 40
0.0
 40
0.0
 40
0.0
 40
0.0
 40
0.0909090909090909
 40
0.0909090909090909
 40
0.0909090909090909
 40
0.0909090909090909
 40
0.1818181818181818
 40
0.1818181818181818
 40
0.1818181818181818
 40
0.1818181818181818
 40
0.2727272727272727
 40
0.2727272727272727
 40
0.2727272727272727
 40
0.2727272727272727
 40
0.3636363636363636
 40
0.3636363636363636
 40
0.3636363636363636
 40
0.3636363636363636
 40
0.4545454545454546
 40
0.4545454545454546
 40
0.4545454545454546
 40
0.4545454545454546
 40
0.5454545454545455
 40
0.5454545454545455
 40
0.5454545454545455
 40
0.5454545454545455
 40
0.6363636363636365
 40
0.6363636363636365
 40
0.6363636363636365
 40
0.6363636363636365
 40
0.7272727272727274
 40
0.7272727272727274
 40
0.7272727272727274
 40
0.7272727272727274
 40
0.8181818181818183
 40
0.8181818181818183
 40
0.8181818181818183
 40
0.8181818181818183
 40
0.9090909090909093
 40
0.9090909090909093
 40
0.9090909090909093
 40
0.9090909090909093
 40
1.0
 40
1.0
 40
1.0
 40
1.0
 10
1284.6443
 20
1127.8587
 30
0.0
 10
1284.6443
 20
1127.8587
 30
0.0
 10
1284.6443
 20
1127.8587
 30
0.0
 10
1284.6443
 20
1127.8587
 30
0.0
 10
1284.6443
 20
1127.8587
 30
0.0
 10
1284.7344
 20
1127.8887
 30
0.0
 10
1284.8242
 20
1127.9196
 30
0.0
 10
1284.9139
 20
1127.9514
 30
0.0
 10
1284.9139
 20
1127.9514
 30
0.0
 10
1279.6352
 20
1114.0482
 30
0.0
 10
1272.9675
 20
1099.7464
 30
0.0
 10
1260.8762
 20
1090.4455
 30
0.0
 10
1260.8762
 20
1090.4455
 30
0.0
 10
1252.143
 20
1083.6328
 30
0.0
 10
1239.3148
 20
1080.5646
 30
0.0
 10
1229.1079
 20
1085.807
 30
0.0
 10
1229.1079
 20
1085.807
 30
0.0
 10
1221.051
 20
1089.926
 30
0.0
 10
1222.3435
 20
1103.2615
 30
0.0
 10
1230.7265
 20
1106.2451
 30
0.0
 10
1230.7265
 20
1106.2451
 30
0.0
 10
1230.2433
 20
1103.177
 30
0.0
 10
1229.0837
 20
1099.831
 30
0.0
 10
1230.6782
 20
1096.8837
 30
0.0
 10
1230.6782
 20
1096.8837
 30
0.0
 10
1232.9008
 20
1092.7647
 30
0.0
 10
1237.8291
 20
1090.4213
 30
0.0
 10
1242.4433
 20
1091.1944
 30
0.0
 10
1242.4433
 20
1091.1944
 30
0.0
 10
1250.778
 20
1092.1728
 30
0.0
 10
1258.3154
 20
1097.089
 30
0.0
 10
1263.6303
 20
1103.4427
 30
0.0
 10
1263.6303
 20
1103.4427
 30
0.0
 10
1269.8324
 20
1110.7638
 30
0.0
 10
1272.7966
 20
1120.3376
 30
0.0
 10
1273.4014
 20
1129.8051
 30
0.0
 10
1273.4014
 20
1129.8051
 30
0.0
 10
1274.9857
 20
1127.8426
 30
0.0
 10
1277.4112
 20
1126.5873
 30
0.0
 10
1280.1298
 20
1126.5873
 30
0.0
 10
1280.1298
 20
1126.5873
 30
0.0
 10
1281.7844
 20
1126.5873
 30
0.0
 10
1283.3304
 20
1127.0523
 30
0.0
 10
1284.6443
 20
1127.8587
 30
0.0
  0
SPLINE
  5
68
330
1F
100
AcDbEntity
  8
#Layer 1
 62
   250
370
    18
100
AcDbSpline
210
0.0
220
0.0
230
1.0
 70
    11
 71
     3
 72
    36
 73
    32
 74
     0
 42
0.0000000001
 43
0.0000000001
 40
0.0
 40
0.0
 40
0.0
 40
0.0
 40
0.125
 40
0.125
 40
0.125
 40
0.125
 40
0.25
 40
0.25
 40
0.25
 40
0.25
 40
0.375
 40
0.375
 40
0.375
 40
0.375
 40
0.5
 40
0.5
 40
0.5
 40
0.5
 40
0.625
 40
0.625
 40
0.625
 40
0.625
 40
0.75
 40
0.75
 40
0.75
 40
0.75
 40
0.875
 40
0.875
 40
0.875
 40
0.875
 40
1.0
 40
1.0
 40
1.0
 40
1.0
 10
1418.2839
 20
1147.5466
 30
0.0
 10
1418.2839
 20
1147.5466
 30
0.0
 10
1418.2839
 20
1147.5466
 30
0.0
 10
1418.2839
 20
1147.5466
 30
0.0
 10
1418.2839
 20
1147.5466
 30
0.0
 10
1420.7113
 20
1156.3215
 30
0.0
 10
1420.0451
 20
1165.8481
 30
0.0
 10
1416.5635
 20
1174.246
 30
0.0
 10
1416.5635
 20
1174.246
 30
0.0
 10
1416.9084
 20
1174.1775
 30
0.0
 10
1417.2651
 20
1174.1417
 30
0.0
 10
1417.6301
 20
1174.1417
 30
0.0
 10
1417.6301
 20
1174.1417
 30
0.0
 10
1419.8801
 20
1174.1417
 30
0.0
 10
1421.8117
 20
1175.5051
 30
0.0
 10
1422.6436
 20
1177.4509
 30
0.0
 10
1422.6436
 20
1177.4509
 30
0.0
 10
1428.0851
 20
1169.8491
 30
0.0
 10
1438.0322
 20
1168.2731
 30
0.0
 10
1446.7512
 20
1169.057
 30
0.0
 10
1446.7512
 20
1169.057
 30
0.0
 10
1438.5487
 20
1162.8159
 30
0.0
 10
1434.979
 20
1152.7609
 30
0.0
 10
1431.3793
 20
1143.4859
 30
0.0
 10
1431.3793
 20
1143.4859
 30
0.0
 10
1430.6689
 20
1147.063
 30
0.0
 10
1427.5129
 20
1149.7594
 30
0.0
 10
1423.7273
 20
1149.7594
 30
0.0
 10
1423.7273
 20
1149.7594
 30
0.0
 10
1421.6099
 20
1149.7594
 30
0.0
 10
1419.6895
 20
1148.9159
 30
0.0
 10
1418.2839
 20
1147.5466
 30
0.0
  0
SPLINE
  5
69
330
1F
100
AcDbEntity
  8
#Layer 1
 62
   250
370
    18
100
AcDbSpline
210
0.0
220
0.0
230
1.0
 70
    11
 71
     3
 72
    60
 73
    56
 74
     0
 42
0.0000000001
 43
0.0000000001
 40
0.0
 40
0.0
 40
0.0
 40
0.0
 40
0.0714285714285714
 40
0.0714285714285714
 40
0.0714285714285714
 40
0.0714285714285714
 40
0.1428571428571428
 40
0.1428571428571428
 40
0.1428571428571428
 40
0.1428571428571428
 40
0.2142857142857143
 40
0.2142857142857143
 40
0.2142857142857143
 40
0.2142857142857143
 40
0.2857142857142857
 40
0.2857142857142857
 40
0.2857142857142857
 40
0.2857142857142857
 40
0.3571428571428571
 40
0.3571428571428571
 40
0.3571428571428571
 40
0.3571428571428571
 40
0.4285714285714285
 40
0.4285714285714285
 40
0.4285714285714285
 40
0.4285714285714285
 40
0.4999999999999999
 40
0.4999999999999999
 40
0.4999999999999999
 40
0.4999999999999999
 40
0.5714285714285713
 40
0.5714285714285713
 40
0.5714285714285713
 40
0.5714285714285713
 40
0.6428571428571427
 40
0.6428571428571427
 40
0.6428571428571427
 40
0.6428571428571427
 40
0.7142857142857141
 40
0.7142857142857141
 40
0.7142857142857141
 40
0.7142857142857141
 40
0.7857142857142855
 40
0.7857142857142855
 40
0.7857142857142855
 40
0.7857142857142855
 40
0.8571428571428569
 40
0.8571428571428569
 40
0.8571428571428569
 40
0.8571428571428569
 40
0.9285714285714283
 40
0.9285714285714283
 40
0.9285714285714283
 40
0.9285714285714283
 40
1.0
 40
1.0
 40
1.0
 40
1.0
 10
1428.4702
 20
1135.763
 30
0.0
 10
1428.4702
 20
1135.763
 30
0.0
 10
1428.4702
 20
1135.763
 30
0.0
 10
1428.4702
 20
1135.763
 30
0.0
 10
1428.4702
 20
1135.763
 30
0.0
 10
1424.772
 20
1126.0964
 30
0.0
 10
1420.1904
 20
1116.257
 30
0.0
 10
1411.8181
 20
1109.7359
 30
0.0
 10
1411.8181
 20
1109.7359
 30
0.0
 10
1407.3729
 20
1106.0639
 30
0.0
 10
1402.046
 20
1103.6843
 30
0.0
 10
1396.4896
 20
1102.2589
 30
0.0
 10
1396.4896
 20
1102.2589
 30
0.0
 10
1397.6106
 20
1104.7009
 30
0.0
 10
1397.0136
 20
1107.4631
 30
0.0
 10
1394.9843
 20
1109.2243
 30
0.0
 10
1394.9843
 20
1109.2243
 30
0.0
 10
1392.5063
 20
1111.3749
 30
0.0
 10
1388.754
 20
1111.1095
 30
0.0
 10
1386.6034
 20
1108.6315
 30
0.0
 10
1386.6034
 20
1108.6315
 30
0.0
 10
1384.4529
 20
1106.1535
 30
0.0
 10
1384.7183
 20
1102.4012
 30
0.0
 10
1387.1963
 20
1100.2506
 30
0.0
 10
1387.1963
 20
1100.2506
 30
0.0
 10
1387.2019
 20
1100.2114
 30
0.0
 10
1387.2074
 20
1100.1721
 30
0.0
 10
1387.2127
 20
1100.133
 30
0.0
 10
1387.2127
 20
1100.133
 30
0.0
 10
1373.9981
 20
1100.2538
 30
0.0
 10
1360.7834
 20
1100.1571
 30
0.0
 10
1347.5808
 20
1100.0605
 30
0.0
 10
1347.5808
 20
1100.0605
 30
0.0
 10
1352.642
 20
1102.5488
 30
0.0
 10
1357.5341
 20
1105.9673
 30
0.0
 10
1360.0949
 20
1111.1613
 30
0.0
 10
1360.0949
 20
1111.1613
 30
0.0
 10
1362.4504
 20
1115.1958
 30
0.0
 10
1362.1484
 20
1120.0879
 30
0.0
 10
1361.0492
 20
1124.4605
 30
0.0
 10
1361.0492
 20
1124.4605
 30
0.0
 10
1371.9325
 20
1118.8316
 30
0.0
 10
1385.1834
 20
1118.3122
 30
0.0
 10
1396.6708
 20
1122.3829
 30
0.0
 10
1396.6708
 20
1122.3829
 30
0.0
 10
1405.2814
 20
1125.4019
 30
0.0
 10
1412.3841
 20
1132.1338
 30
0.0
 10
1416.0678
 20
1140.4676
 30
0.0
 10
1416.0678
 20
1140.4676
 30
0.0
 10
1416.7633
 20
1136.8717
 30
0.0
 10
1419.9282
 20
1134.1561
 30
0.0
 10
1423.7273
 20
1134.1561
 30
0.0
 10
1423.7273
 20
1134.1561
 30
0.0
 10
1425.5115
 20
1134.1561
 30
0.0
 10
1427.1559
 20
1134.7551
 30
0.0
 10
1428.4702
 20
1135.763
 30
0.0
  0
SPLINE
  5
6A
330
1F
100
AcDbEntity
  8
#Layer 1
 62
   250
370
    18
100
AcDbSpline
210
0.0
220
0.0
230
1.0
 70
    11
 71
     3
 72
    36
 73
    32
 74
     0
 42
0.0000000001
 43
0.0000000001
 40
0.0
 40
0.0
 40
0.0
 40
0.0
 40
0.125
 40
0.125
 40
0.125
 40
0.125
 40
0.25
 40
0.25
 40
0.25
 40
0.25
 40
0.375
 40
0.375
 40
0.375
 40
0.375
 40
0.5
 40
0.5
 40
0.5
 40
0.5
 40
0.625
 40
0.625
 40
0.625
 40
0.625
 40
0.75
 40
0.75
 40
0.75
 40
0.75
 40
0.875
 40
0.875
 40
0.875
 40
0.875
 40
1.0
 40
1.0
 40
1.0
 40
1.0
 10
1254.6776
 20
1176.6689
 30
0.0
 10
1254.6776
 20
1176.6689
 30
0.0
 10
1254.6776
 20
1176.6689
 30
0.0
 10
1254.6776
 20
1176.6689
 30
0.0
 10
1254.6776
 20
1176.6689
 30
0.0
 10
1254.6736
 20
1176.6081
 30
0.0
 10
1254.6703
 20
1176.547
 30
0.0
 10
1254.6675
 20
1176.4857
 30
0.0
 10
1254.6675
 20
1176.4857
 30
0.0
 10
1241.5736
 20
1187.9731
 30
0.0
 10
1225.0976
 20
1194.7132
 30
0.0
 10
1208.3075
 20
1198.6511
 30
0.0
 10
1208.3075
 20
1198.6511
 30
0.0
 10
1228.9267
 20
1198.8443
 30
0.0
 10
1249.5701
 20
1198.5786
 30
0.0
 10
1270.2014
 20
1198.7719
 30
0.0
 10
1270.2014
 20
1198.7719
 30
0.0
 10
1267.0494
 20
1194.5453
 30
0.0
 10
1265.0303
 20
1189.4572
 30
0.0
 10
1265.8238
 20
1184.1142
 30
0.0
 10
1265.8238
 20
1184.1142
 30
0.0
 10
1264.8076
 20
1184.599
 30
0.0
 10
1263.6701
 20
1184.8703
 30
0.0
 10
1262.4692
 20
1184.8703
 30
0.0
 10
1262.4692
 20
1184.8703
 30
0.0
 10
1258.1605
 20
1184.8703
 30
0.0
 10
1254.6676
 20
1181.3774
 30
0.0
 10
1254.6676
 20
1177.0687
 30
0.0
 10
1254.6676
 20
1177.0687
 30
0.0
 10
1254.6676
 20
1176.9346
 30
0.0
 10
1254.671
 20
1176.8013
 30
0.0
 10
1254.6776
 20
1176.6689
 30
0.0
  0
SPLINE
  5
6B
330
1F
100
AcDbEntity
  8
#Layer 1
 62
   250
370
    18
100
AcDbSpline
210
0.0
220
0.0
230
1.0
 70
    11
 71
     3
 72
    36
 73
    32
 74
     0
 42
0.0000000001
 43
0.0000000001
 40
0.0
 40
0.0
 40
0.0
 40
0.0
 40
0.125
 40
0.125
 40
0.125
 40
0.125
 40
0.25
 40
0.25
 40
0.25
 40
0.25
 40
0.375
 40
0.375
 40
0.375
 40
0.375
 40
0.5
 40
0.5
 40
0.5
 40
0.5
 40
0.625
 40
0.625
 40
0.625
 40
0.625
 40
0.75
 40
0.75
 40
0.75
 40
0.75
 40
0.875
 40
0.875
 40
0.875
 40
0.875
 40
1.0
 40
1.0
 40
1.0
 40
1.0
 10
1388.1792
 20
1198.8753
 30
0.0
 10
1388.1792
 20
1198.8753
 30
0.0
 10
1388.1792
 20
1198.8753
 30
0.0
 10
1388.1792
 20
1198.8753
 30
0.0
 10
1388.1792
 20
1198.8753
 30
0.0
 10
1388.1792
 20
1198.8753
 30
0.0
 10
1392.8972
 20
1198.7856
 30
0.0
 10
1392.8972
 20
1198.7856
 30
0.0
 10
1392.8972
 20
1198.7856
 30
0.0
 10
1403.0391
 20
1198.5928
 30
0.0
 10
1413.1904
 20
1198.7376
 30
0.0
 10
1423.3417
 20
1198.7598
 30
0.0
 10
1423.3417
 20
1198.7598
 30
0.0
 10
1420.2992
 20
1194.7112
 30
0.0
 10
1418.8722
 20
1189.6768
 30
0.0
 10
1419.673
 20
1184.6458
 30
0.0
 10
1419.673
 20
1184.6458
 30
0.0
 10
1419.0421
 20
1184.9011
 30
0.0
 10
1418.3525
 20
1185.0416
 30
0.0
 10
1417.6301
 20
1185.0416
 30
0.0
 10
1417.6301
 20
1185.0416
 30
0.0
 10
1415.2983
 20
1185.0416
 30
0.0
 10
1413.3085
 20
1183.5772
 30
0.0
 10
1412.5303
 20
1181.5178
 30
0.0
 10
1412.5303
 20
1181.5178
 30
0.0
 10
1407.2442
 20
1188.2421
 30
0.0
 10
1400.4578
 20
1193.8214
 30
0.0
 10
1392.5318
 20
1197.0838
 30
0.0
 10
1392.5318
 20
1197.0838
 30
0.0
 10
1392.5318
 20
1197.0838
 30
0.0
 10
1388.1792
 20
1198.8753
 30
0.0
 10
1388.1792
 20
1198.8753
 30
0.0
  0
SPLINE
  5
6C
330
1F
100
AcDbEntity
  8
#Layer 1
 62
   250
370
    18
100
AcDbSpline
210
0.0
220
0.0
230
1.0
 70
    11
 71
     3
 72
    56
 73
    52
 74
     0
 42
0.0000000001
 43
0.0000000001
 40
0.0
 40
0.0
 40
0.0
 40
0.0
 40
0.0769230769230769
 40
0.0769230769230769
 40
0.0769230769230769
 40
0.0769230769230769
 40
0.1538461538461539
 40
0.1538461538461539
 40
0.1538461538461539
 40
0.1538461538461539
 40
0.2307692307692308
 40
0.2307692307692308
 40
0.2307692307692308
 40
0.2307692307692308
 40
0.3076923076923077
 40
0.3076923076923077
 40
0.3076923076923077
 40
0.3076923076923077
 40
0.3846153846153846
 40
0.3846153846153846
 40
0.3846153846153846
 40
0.3846153846153846
 40
0.4615384615384616
 40
0.4615384615384616
 40
0.4615384615384616
 40
0.4615384615384616
 40
0.5384615384615385
 40
0.5384615384615385
 40
0.5384615384615385
 40
0.5384615384615385
 40
0.6153846153846154
 40
0.6153846153846154
 40
0.6153846153846154
 40
0.6153846153846154
 40
0.6923076923076923
 40
0.6923076923076923
 40
0.6923076923076923
 40
0.6923076923076923
 40
0.7692307692307692
 40
0.7692307692307692
 40
0.7692307692307692
 40
0.7692307692307692
 40
0.846153846153846
 40
0.846153846153846
 40
0.846153846153846
 40
0.846153846153846
 40
0.9230769230769229
 40
0.9230769230769229
 40
0.9230769230769229
 40
0.9230769230769229
 40
1.0
 40
1.0
 40
1.0
 40
1.0
 10
1293.0915
 20
1198.7719
 30
0.0
 10
1293.0915
 20
1198.7719
 30
0.0
 10
1293.0915
 20
1198.7719
 30
0.0
 10
1293.0915
 20
1198.7719
 30
0.0
 10
1293.0915
 20
1198.7719
 30
0.0
 10
1310.8721
 20
1198.5665
 30
0.0
 10
1328.6648
 20
1198.8685
 30
0.0
 10
1346.4454
 20
1198.6269
 30
0.0
 10
1346.4454
 20
1198.6269
 30
0.0
 10
1332.2161
 20
1194.7012
 30
0.0
 10
1318.6874
 20
1188.7461
 30
0.0
 10
1305.3277
 20
1182.5374
 30
0.0
 10
1305.3277
 20
1182.5374
 30
0.0
 10
1301.4226
 20
1180.8194
 30
0.0
 10
1297.3677
 20
1179.0344
 30
0.0
 10
1293.1833
 20
1177.9771
 30
0.0
 10
1293.1833
 20
1177.9771
 30
0.0
 10
1288.9818
 20
1176.9154
 30
0.0
 10
1282.0912
 20
1176.0279
 30
0.0
 10
1278.3297
 20
1179.2194
 30
0.0
 10
1278.3297
 20
1179.2194
 30
0.0
 10
1275.1687
 20
1181.8578
 30
0.0
 10
1274.745
 20
1186.5593
 30
0.0
 10
1277.3833
 20
1189.7203
 30
0.0
 10
1277.3833
 20
1189.7203
 30
0.0
 10
1278.1623
 20
1190.6536
 30
0.0
 10
1279.0108
 20
1191.2899
 30
0.0
 10
1280.1251
 20
1191.7761
 30
0.0
 10
1280.1251
 20
1191.7761
 30
0.0
 10
1280.1309
 20
1191.7808
 30
0.0
 10
1280.1368
 20
1191.7854
 30
0.0
 10
1280.1426
 20
1191.7901
 30
0.0
 10
1280.1426
 20
1191.7901
 30
0.0
 10
1279.3458
 20
1190.4254
 30
0.0
 10
1279.0668
 20
1189.0289
 30
0.0
 10
1279.2779
 20
1187.4628
 30
0.0
 10
1279.2779
 20
1187.4628
 30
0.0
 10
1279.3141
 20
1187.1943
 30
0.0
 10
1279.3655
 20
1186.9315
 30
0.0
 10
1279.4313
 20
1186.6753
 30
0.0
 10
1279.4313
 20
1186.6753
 30
0.0
 10
1280.9328
 20
1180.8216
 30
0.0
 10
1289.1295
 20
1179.8746
 30
0.0
 10
1292.8275
 20
1184.1155
 30
0.0
 10
1292.8275
 20
1184.1155
 30
0.0
 10
1295.9236
 20
1187.6661
 30
0.0
 10
1295.2185
 20
1194.0451
 30
0.0
 10
1293.2491
 20
1198.4005
 30
0.0
 10
1293.2491
 20
1198.4005
 30
0.0
 10
1293.1972
 20
1198.5249
 30
0.0
 10
1293.1446
 20
1198.6486
 30
0.0
 10
1293.0915
 20
1198.7719
 30
0.0
  0
SPLINE
  5
6D
330
1F
100
AcDbEntity
  8
#Layer 1
 62
   250
370
    18
100
AcDbSpline
210
0.0
220
0.0
230
1.0
 70
    11
 71
     3
 72
    56
 73
    52
 74
     0
 42
0.0000000001
 43
0.0000000001
 40
0.0
 40
0.0
 40
0.0
 40
0.0
 40
0.0769230769230769
 40
0.0769230769230769
 40
0.0769230769230769
 40
0.0769230769230769
 40
0.1538461538461539
 40
0.1538461538461539
 40
0.1538461538461539
 40
0.1538461538461539
 40
0.2307692307692308
 40
0.2307692307692308
 40
0.2307692307692308
 40
0.2307692307692308
 40
0.3076923076923077
 40
0.3076923076923077
 40
0.3076923076923077
 40
0.3076923076923077
 40
0.3846153846153846
 40
0.3846153846153846
 40
0.3846153846153846
 40
0.3846153846153846
 40
0.4615384615384616
 40
0.4615384615384616
 40
0.4615384615384616
 40
0.4615384615384616
 40
0.5384615384615385
 40
0.5384615384615385
 40
0.5384615384615385
 40
0.5384615384615385
 40
0.6153846153846154
 40
0.6153846153846154
 40
0.6153846153846154
 40
0.6153846153846154
 40
0.6923076923076923
 40
0.6923076923076923
 40
0.6923076923076923
 40
0.6923076923076923
 40
0.7692307692307692
 40
0.7692307692307692
 40
0.7692307692307692
 40
0.7692307692307692
 40
0.846153846153846
 40
0.846153846153846
 40
0.846153846153846
 40
0.846153846153846
 40
0.9230769230769229
 40
0.9230769230769229
 40
0.9230769230769229
 40
0.9230769230769229
 40
1.0
 40
1.0
 40
1.0
 40
1.0
 10
1492.4292
 20
1198.7832
 30
0.0
 10
1492.4292
 20
1198.7832
 30
0.0
 10
1492.4292
 20
1198.7832
 30
0.0
 10
1492.4292
 20
1198.7832
 30
0.0
 10
1492.4292
 20
1198.7832
 30
0.0
 10
1492.4292
 20
1198.7832
 30
0.0
 10
1487.386
 20
1197.2112
 30
0.0
 10
1487.386
 20
1197.2112
 30
0.0
 10
1487.386
 20
1197.2112
 30
0.0
 10
1477.1786
 20
1194.0295
 30
0.0
 10
1467.7119
 20
1188.8347
 30
0.0
 10
1458.009
 20
1184.3976
 30
0.0
 10
1458.009
 20
1184.3976
 30
0.0
 10
1457.7146
 20
1184.2642
 30
0.0
 10
1457.4198
 20
1184.1299
 30
0.0
 10
1457.1246
 20
1183.9952
 30
0.0
 10
1457.1246
 20
1183.9952
 30
0.0
 10
1449.6369
 20
1180.5772
 30
0.0
 10
1436.9514
 20
1174.1781
 30
0.0
 10
1428.6287
 20
1179.4176
 30
0.0
 10
1428.6287
 20
1179.4176
 30
0.0
 10
1425.714
 20
1181.2526
 30
0.0
 10
1423.8622
 20
1184.4334
 30
0.0
 10
1424.3135
 20
1189.2673
 30
0.0
 10
1424.3135
 20
1189.2673
 30
0.0
 10
1424.4802
 20
1191.0527
 30
0.0
 10
1425.105
 20
1192.7285
 30
0.0
 10
1426.1924
 20
1194.3146
 30
0.0
 10
1426.1924
 20
1194.3146
 30
0.0
 10
1426.2441
 20
1194.0763
 30
0.0
 10
1426.2993
 20
1193.8775
 30
0.0
 10
1426.3777
 20
1193.6465
 30
0.0
 10
1426.3777
 20
1193.6465
 30
0.0
 10
1427.4631
 20
1190.4495
 30
0.0
 10
1430.9349
 20
1188.7376
 30
0.0
 10
1434.132
 20
1189.823
 30
0.0
 10
1434.132
 20
1189.823
 30
0.0
 10
1437.3291
 20
1190.9085
 30
0.0
 10
1439.0409
 20
1194.3803
 30
0.0
 10
1437.9555
 20
1197.5774
 30
0.0
 10
1437.9555
 20
1197.5774
 30
0.0
 10
1437.9198
 20
1197.9794
 30
0.0
 10
1437.8669
 20
1198.3756
 30
0.0
 10
1437.8005
 20
1198.7598
 30
0.0
 10
1437.8005
 20
1198.7598
 30
0.0
 10
1451.9983
 20
1198.7015
 30
0.0
 10
1466.1961
 20
1198.6588
 30
0.0
 10
1480.3939
 20
1198.7261
 30
0.0
 10
1480.3939
 20
1198.7261
 30
0.0
 10
1480.3939
 20
1198.7261
 30
0.0
 10
1492.4292
 20
1198.7832
 30
0.0
 10
1492.4292
 20
1198.7832
 30
0.0
  0
SPLINE
  5
6E
330
1F
100
AcDbEntity
  8
#Layer 1
 62
   250
370
    18
100
AcDbSpline
210
0.0
220
0.0
230
1.0
 70
    11
 71
     3
 72
    64
 73
    60
 74
     0
 42
0.0000000001
 43
0.0000000001
 40
0.0
 40
0.0
 40
0.0
 40
0.0
 40
0.0666666666666667
 40
0.0666666666666667
 40
0.0666666666666667
 40
0.0666666666666667
 40
0.1333333333333333
 40
0.1333333333333333
 40
0.1333333333333333
 40
0.1333333333333333
 40
0.2
 40
0.2
 40
0.2
 40
0.2
 40
0.2666666666666667
 40
0.2666666666666667
 40
0.2666666666666667
 40
0.2666666666666667
 40
0.3333333333333333
 40
0.3333333333333333
 40
0.3333333333333333
 40
0.3333333333333333
 40
0.4
 40
0.4
 40
0.4
 40
0.4
 40
0.4666666666666666
 40
0.4666666666666666
 40
0.4666666666666666
 40
0.4666666666666666
 40
0.5333333333333333
 40
0.5333333333333333
 40
0.5333333333333333
 40
0.5333333333333333
 40
0.6
 40
0.6
 40
0.6
 40
0.6
 40
0.6666666666666666
 40
0.6666666666666666
 40
0.6666666666666666
 40
0.6666666666666666
 40
0.7333333333333333
 40
0.7333333333333333
 40
0.7333333333333333
 40
0.7333333333333333
 40
0.7999999999999999
 40
0.7999999999999999
 40
0.7999999999999999
 40
0.7999999999999999
 40
0.8666666666666666
 40
0.8666666666666666
 40
0.8666666666666666
 40
0.8666666666666666
 40
0.9333333333333332
 40
0.9333333333333332
 40
0.9333333333333332
 40
0.9333333333333332
 40
1.0
 40
1.0
 40
1.0
 40
1.0
 10
1535.473
 20
1198.6269
 30
0.0
 10
1535.473
 20
1198.6269
 30
0.0
 10
1535.473
 20
1198.6269
 30
0.0
 10
1535.473
 20
1198.6269
 30
0.0
 10
1535.473
 20
1198.6269
 30
0.0
 10
1543.523
 20
1198.6936
 30
0.0
 10
1551.5766
 20
1198.7271
 30
0.0
 10
1559.6319
 20
1198.7235
 30
0.0
 10
1559.6319
 20
1198.7235
 30
0.0
 10
1574.3121
 20
1198.717
 30
0.0
 10
1601.2423
 20
1202.1069
 30
0.0
 10
1606.3722
 20
1182.1149
 30
0.0
 10
1606.3722
 20
1182.1149
 30
0.0
 10
1607.8986
 20
1176.1663
 30
0.0
 10
1607.0287
 20
1169.4745
 30
0.0
 10
1604.1468
 20
1164.0351
 30
0.0
 10
1604.1468
 20
1164.0351
 30
0.0
 10
1600.0477
 20
1156.2982
 30
0.0
 10
1591.9993
 20
1151.3102
 30
0.0
 10
1582.0607
 20
1152.9252
 30
0.0
 10
1582.0607
 20
1152.9252
 30
0.0
 10
1580.1814
 20
1153.2305
 30
0.0
 10
1578.3467
 20
1153.7868
 30
0.0
 10
1576.7479
 20
1154.6446
 30
0.0
 10
1576.7479
 20
1154.6446
 30
0.0
 10
1572.7128
 20
1156.7053
 30
0.0
 10
1570.6312
 20
1161.0068
 30
0.0
 10
1571.5191
 20
1165.4499
 30
0.0
 10
1571.5191
 20
1165.4499
 30
0.0
 10
1572.2227
 20
1164.6462
 30
0.0
 10
1572.9726
 20
1164.098
 30
0.0
 10
1573.9518
 20
1163.6715
 30
0.0
 10
1573.9518
 20
1163.6715
 30
0.0
 10
1577.4402
 20
1162.1521
 30
0.0
 10
1581.4998
 20
1163.7484
 30
0.0
 10
1583.0192
 20
1167.2367
 30
0.0
 10
1583.0192
 20
1167.2367
 30
0.0
 10
1584.5385
 20
1170.725
 30
0.0
 10
1582.9423
 20
1174.7847
 30
0.0
 10
1579.4539
 20
1176.3041
 30
0.0
 10
1579.4539
 20
1176.3041
 30
0.0
 10
1578.8165
 20
1176.6378
 30
0.0
 10
1578.1419
 20
1176.9038
 30
0.0
 10
1577.4544
 20
1177.0941
 30
0.0
 10
1577.4544
 20
1177.0941
 30
0.0
 10
1571.2004
 20
1178.8253
 30
0.0
 10
1566.1393
 20
1174.2084
 30
0.0
 10
1564.0076
 20
1168.8621
 30
0.0
 10
1564.0076
 20
1168.8621
 30
0.0
 10
1563.9565
 20
1168.7339
 30
0.0
 10
1563.907
 20
1168.6056
 30
0.0
 10
1563.8592
 20
1168.4772
 30
0.0
 10
1563.8592
 20
1168.4772
 30
0.0
 10
1559.7179
 20
1182.9883
 30
0.0
 10
1549.7891
 20
1193.5501
 30
0.0
 10
1535.5613
 20
1198.5793
 30
0.0
 10
1535.5613
 20
1198.5793
 30
0.0
 10
1535.5319
 20
1198.5952
 30
0.0
 10
1535.5025
 20
1198.611
 30
0.0
 10
1535.473
 20
1198.6269
 30
0.0
  0
SPLINE
  5
6F
330
1F
100
AcDbEntity
  8
#Layer 1
 62
   250
370
    18
100
AcDbSpline
210
0.0
220
0.0
230
1.0
 70
    11
 71
     3
 72
    20
 73
    16
 74
     0
 42
0.0000000001
 43
0.0000000001
 40
0.0
 40
0.0
 40
0.0
 40
0.0
 40
0.25
 40
0.25
 40
0.25
 40
0.25
 40
0.5
 40
0.5
 40
0.5
 40
0.5
 40
0.75
 40
0.75
 40
0.75
 40
0.75
 40
1.0
 40
1.0
 40
1.0
 40
1.0
 10
1334.8008
 20
1164.3471
 30
0.0
 10
1334.8008
 20
1164.3471
 30
0.0
 10
1334.8008
 20
1164.3471
 30
0.0
 10
1334.8008
 20
1164.3471
 30
0.0
 10
1334.8008
 20
1164.3471
 30
0.0
 10
1334.8008
 20
1164.3475
 30
0.0
 10
1334.8007
 20
1164.3479
 30
0.0
 10
1334.8007
 20
1164.3483
 30
0.0
 10
1334.8007
 20
1164.3483
 30
0.0
 10
1334.8008
 20
1164.3476
 30
0.0
 10
1334.8009
 20
1164.3468
 30
0.0
 10
1334.801
 20
1164.3461
 30
0.0
 10
1334.801
 20
1164.3461
 30
0.0
 10
1334.8009
 20
1164.3464
 30
0.0
 10
1334.8009
 20
1164.3468
 30
0.0
 10
1334.8008
 20
1164.3471
 30
0.0
  0
SPLINE
  5
70
330
1F
100
AcDbEntity
  8
#Layer 1
 62
   250
370
    18
100
AcDbSpline
210
0.0
220
0.0
230
1.0
 70
    11
 71
     3
 72
    92
 73
    88
 74
     0
 42
0.0000000001
 43
0.0000000001
 40
0.0
 40
0.0
 40
0.0
 40
0.0
 40
0.0454545454545455
 40
0.0454545454545455
 40
0.0454545454545455
 40
0.0454545454545455
 40
0.0909090909090909
 40
0.0909090909090909
 40
0.0909090909090909
 40
0.0909090909090909
 40
0.1363636363636364
 40
0.1363636363636364
 40
0.1363636363636364
 40
0.1363636363636364
 40
0.1818181818181818
 40
0.1818181818181818
 40
0.1818181818181818
 40
0.1818181818181818
 40
0.2272727272727273
 40
0.2272727272727273
 40
0.2272727272727273
 40
0.2272727272727273
 40
0.2727272727272728
 40
0.2727272727272728
 40
0.2727272727272728
 40
0.2727272727272728
 40
0.3181818181818182
 40
0.3181818181818182
 40
0.3181818181818182
 40
0.3181818181818182
 40
0.3636363636363637
 40
0.3636363636363637
 40
0.3636363636363637
 40
0.3636363636363637
 40
0.4090909090909092
 40
0.4090909090909092
 40
0.4090909090909092
 40
0.4090909090909092
 40
0.4545454545454546
 40
0.4545454545454546
 40
0.4545454545454546
 40
0.4545454545454546
 40
0.5000000000000001
 40
0.5000000000000001
 40
0.5000000000000001
 40
0.5000000000000001
 40
0.5454545454545455
 40
0.5454545454545455
 40
0.5454545454545455
 40
0.5454545454545455
 40
0.5909090909090909
 40
0.5909090909090909
 40
0.5909090909090909
 40
0.5909090909090909
 40
0.6363636363636364
 40
0.6363636363636364
 40
0.6363636363636364
 40
0.6363636363636364
 40
0.6818181818181818
 40
0.6818181818181818
 40
0.6818181818181818
 40
0.6818181818181818
 40
0.7272727272727272
 40
0.7272727272727272
 40
0.7272727272727272
 40
0.7272727272727272
 40
0.7727272727272726
 40
0.7727272727272726
 40
0.7727272727272726
 40
0.7727272727272726
 40
0.818181818181818
 40
0.818181818181818
 40
0.818181818181818
 40
0.818181818181818
 40
0.8636363636363634
 40
0.8636363636363634
 40
0.8636363636363634
 40
0.8636363636363634
 40
0.9090909090909088
 40
0.9090909090909088
 40
0.9090909090909088
 40
0.9090909090909088
 40
0.9545454545454543
 40
0.9545454545454543
 40
0.9545454545454543
 40
0.9545454545454543
 40
1.0
 40
1.0
 40
1.0
 40
1.0
 10
1334.8008
 20
1164.3471
 30
0.0
 10
1333.376
 20
1171.9809
 30
0.0
 10
1336.7219
 20
1180.2184
 30
0.0
 10
1343.0028
 20
1184.7841
 30
0.0
 10
1343.0028
 20
1184.7841
 30
0.0
 10
1349.4531
 20
1189.6521
 30
0.0
 10
1358.1381
 20
1191.0895
 30
0.0
 10
1365.905
 20
1188.9756
 30
0.0
 10
1365.905
 20
1188.9756
 30
0.0
 10
1360.3365
 20
1187.3691
 30
0.0
 10
1353.7412
 20
1185.9437
 30
0.0
 10
1350.7335
 20
1180.3994
 30
0.0
 10
1350.7335
 20
1180.3994
 30
0.0
 10
1348.6317
 20
1176.5219
 30
0.0
 10
1349.4169
 20
1169.6126
 30
0.0
 10
1354.6472
 20
1168.8879
 30
0.0
 10
1354.6472
 20
1168.8879
 30
0.0
 10
1362.39
 20
1170.12
 30
0.0
 10
1367.4149
 20
1177.2104
 30
0.0
 10
1374.6745
 20
1179.7471
 30
0.0
 10
1374.6745
 20
1179.7471
 30
0.0
 10
1383.2024
 20
1183.4313
 30
0.0
 10
1393.2523
 20
1181.4744
 30
0.0
 10
1400.4636
 20
1175.8334
 30
0.0
 10
1400.4636
 20
1175.8334
 30
0.0
 10
1397.9165
 20
1176.7319
 30
0.0
 10
1395.1519
 20
1177.6662
 30
0.0
 10
1392.3516
 20
1178.2281
 30
0.0
 10
1392.3516
 20
1178.2281
 30
0.0
 10
1387.8005
 20
1179.1413
 30
0.0
 10
1377.7187
 20
1179.2678
 30
0.0
 10
1377.3079
 20
1172.1574
 30
0.0
 10
1377.3079
 20
1172.1574
 30
0.0
 10
1377.157
 20
1169.544
 30
0.0
 10
1378.5168
 20
1166.7449
 30
0.0
 10
1380.847
 20
1165.397
 30
0.0
 10
1380.847
 20
1165.397
 30
0.0
 10
1386.6812
 20
1163.1261
 30
0.0
 10
1394.0496
 20
1164.95
 30
0.0
 10
1398.845
 20
1160.1788
 30
0.0
 10
1398.845
 20
1160.1788
 30
0.0
 10
1404.6068
 20
1153.8613
 30
0.0
 10
1405.1745
 20
1143.2799
 30
0.0
 10
1399.7147
 20
1136.576
 30
0.0
 10
1399.7147
 20
1136.576
 30
0.0
 10
1393.4094
 20
1128.4587
 30
0.0
 10
1380.8591
 20
1125.8134
 30
0.0
 10
1371.9205
 20
1130.8987
 30
0.0
 10
1371.9205
 20
1130.8987
 30
0.0
 10
1366.062
 20
1134.1118
 30
0.0
 10
1363.4167
 20
1143.1833
 30
0.0
 10
1368.9127
 20
1147.9425
 30
0.0
 10
1368.9127
 20
1147.9425
 30
0.0
 10
1369.586
 20
1145.9489
 30
0.0
 10
1370.887
 20
1144.1477
 30
0.0
 10
1372.5463
 20
1142.901
 30
0.0
 10
1372.5463
 20
1142.901
 30
0.0
 10
1374.1953
 20
1141.6621
 30
0.0
 10
1375.9175
 20
1141.0992
 30
0.0
 10
1377.5863
 20
1141.0584
 30
0.0
 10
1377.5863
 20
1141.0584
 30
0.0
 10
1387.1715
 20
1140.8241
 30
0.0
 10
1389.9956
 20
1152.4104
 30
0.0
 10
1385.5325
 20
1158.654
 30
0.0
 10
1385.5325
 20
1158.654
 30
0.0
 10
1384.7004
 20
1159.818
 30
0.0
 10
1383.6608
 20
1160.8735
 30
0.0
 10
1382.446
 20
1161.7652
 30
0.0
 10
1382.446
 20
1161.7652
 30
0.0
 10
1374.3882
 20
1167.6804
 30
0.0
 10
1360.58
 20
1164.8928
 30
0.0
 10
1354.3691
 20
1156.8319
 30
0.0
 10
1354.3691
 20
1156.8319
 30
0.0
 10
1354.3165
 20
1156.7721
 30
0.0
 10
1354.2643
 20
1156.712
 30
0.0
 10
1354.2123
 20
1156.6517
 30
0.0
 10
1354.2123
 20
1156.6517
 30
0.0
 10
1354.1797
 20
1158.8075
 30
0.0
 10
1353.4296
 20
1160.6491
 30
0.0
 10
1351.9561
 20
1162.1902
 30
0.0
 10
1351.9561
 20
1162.1902
 30
0.0
 10
1350.0248
 20
1157.6209
 30
0.0
 10
1344.7549
 20
1155.4823
 30
0.0
 10
1340.1856
 20
1157.4136
 30
0.0
 10
1340.1856
 20
1157.4136
 30
0.0
 10
1337.2151
 20
1158.6692
 30
0.0
 10
1335.2819
 20
1161.1584
 30
0.0
 10
1334.8008
 20
1164.3471
 30
0.0
  0
SPLINE
  5
71
330
1F
100
AcDbEntity
  8
#Layer 1
 62
   250
370
    18
100
AcDbSpline
210
0.0
220
0.0
230
1.0
 70
    11
 71
     3
 72
   100
 73
    96
 74
     0
 42
0.0000000001
 43
0.0000000001
 40
0.0
 40
0.0
 40
0.0
 40
0.0
 40
0.0416666666666667
 40
0.0416666666666667
 40
0.0416666666666667
 40
0.0416666666666667
 40
0.0833333333333333
 40
0.0833333333333333
 40
0.0833333333333333
 40
0.0833333333333333
 40
0.125
 40
0.125
 40
0.125
 40
0.125
 40
0.1666666666666667
 40
0.1666666666666667
 40
0.1666666666666667
 40
0.1666666666666667
 40
0.2083333333333333
 40
0.2083333333333333
 40
0.2083333333333333
 40
0.2083333333333333
 40
0.25
 40
0.25
 40
0.25
 40
0.25
 40
0.2916666666666666
 40
0.2916666666666666
 40
0.2916666666666666
 40
0.2916666666666666
 40
0.3333333333333333
 40
0.3333333333333333
 40
0.3333333333333333
 40
0.3333333333333333
 40
0.375
 40
0.375
 40
0.375
 40
0.375
 40
0.4166666666666667
 40
0.4166666666666667
 40
0.4166666666666667
 40
0.4166666666666667
 40
0.4583333333333334
 40
0.4583333333333334
 40
0.4583333333333334
 40
0.4583333333333334
 40
0.5
 40
0.5
 40
0.5
 40
0.5
 40
0.5416666666666666
 40
0.5416666666666666
 40
0.5416666666666666
 40
0.5416666666666666
 40
0.5833333333333333
 40
0.5833333333333333
 40
0.5833333333333333
 40
0.5833333333333333
 40
0.6249999999999999
 40
0.6249999999999999
 40
0.6249999999999999
 40
0.6249999999999999
 40
0.6666666666666665
 40
0.6666666666666665
 40
0.6666666666666665
 40
0.6666666666666665
 40
0.7083333333333331
 40
0.7083333333333331
 40
0.7083333333333331
 40
0.7083333333333331
 40
0.7499999999999998
 40
0.7499999999999998
 40
0.7499999999999998
 40
0.7499999999999998
 40
0.7916666666666664
 40
0.7916666666666664
 40
0.7916666666666664
 40
0.7916666666666664
 40
0.833333333333333
 40
0.833333333333333
 40
0.833333333333333
 40
0.833333333333333
 40
0.8749999999999997
 40
0.8749999999999997
 40
0.8749999999999997
 40
0.8749999999999997
 40
0.9166666666666663
 40
0.9166666666666663
 40
0.9166666666666663
 40
0.9166666666666663
 40
0.9583333333333329
 40
0.9583333333333329
 40
0.9583333333333329
 40
0.9583333333333329
 40
1.0
 40
1.0
 40
1.0
 40
1.0
 10
1480.7517
 20
1165.8226
 30
0.0
 10
1480.7517
 20
1165.8226
 30
0.0
 10
1480.7517
 20
1165.8226
 30
0.0
 10
1480.7517
 20
1165.8226
 30
0.0
 10
1480.7517
 20
1165.8226
 30
0.0
 10
1479.6176
 20
1177.7707
 30
0.0
 10
1488.6448
 20
1188.9258
 30
0.0
 10
1503.1848
 20
1189.8805
 30
0.0
 10
1503.1848
 20
1189.8805
 30
0.0
 10
1506.168
 20
1190.0764
 30
0.0
 10
1509.188
 20
1189.7792
 30
0.0
 10
1512.0877
 20
1188.9756
 30
0.0
 10
1512.0877
 20
1188.9756
 30
0.0
 10
1507.558
 20
1187.5503
 30
0.0
 10
1502.6176
 20
1186.6081
 30
0.0
 10
1499.0542
 20
1183.238
 30
0.0
 10
1499.0542
 20
1183.238
 30
0.0
 10
1495.5029
 20
1180.0008
 30
0.0
 10
1494.5849
 20
1173.7437
 30
0.0
 10
1497.9791
 20
1170.0837
 30
0.0
 10
1497.9791
 20
1170.0837
 30
0.0
 10
1500.6486
 20
1167.7162
 30
0.0
 10
1504.1637
 20
1169.5522
 30
0.0
 10
1506.797
 20
1171.0138
 30
0.0
 10
1506.797
 20
1171.0138
 30
0.0
 10
1512.1601
 20
1174.3356
 30
0.0
 10
1516.9677
 20
1178.7808
 30
0.0
 10
1523.1522
 20
1180.5806
 30
0.0
 10
1523.1522
 20
1180.5806
 30
0.0
 10
1530.4481
 20
1182.7548
 30
0.0
 10
1538.6982
 20
1181.4865
 30
0.0
 10
1544.8827
 20
1177.0051
 30
0.0
 10
1544.8827
 20
1177.0051
 30
0.0
 10
1545.0398
 20
1176.7635
 30
0.0
 10
1545.3538
 20
1176.2924
 30
0.0
 10
1545.5109
 20
1176.0509
 30
0.0
 10
1545.5109
 20
1176.0509
 30
0.0
 10
1540.7396
 20
1178.2493
 30
0.0
 10
1535.3281
 20
1179.1915
 30
0.0
 10
1530.122
 20
1178.4184
 30
0.0
 10
1530.122
 20
1178.4184
 30
0.0
 10
1527.1625
 20
1178.0198
 30
0.0
 10
1524.4085
 20
1175.9301
 30
0.0
 10
1523.5146
 20
1173.0431
 30
0.0
 10
1523.5146
 20
1173.0431
 30
0.0
 10
1522.9711
 20
1169.5885
 30
0.0
 10
1525.1574
 20
1165.5661
 30
0.0
 10
1528.757
 20
1164.8534
 30
0.0
 10
1528.757
 20
1164.8534
 30
0.0
 10
1534.1926
 20
1163.5006
 30
0.0
 10
1540.655
 20
1164.4306
 30
0.0
 10
1545.0398
 20
1160.2271
 30
0.0
 10
1545.0398
 20
1160.2271
 30
0.0
 10
1550.874
 20
1153.8734
 30
0.0
 10
1551.3693
 20
1143.2195
 30
0.0
 10
1545.8732
 20
1136.4914
 30
0.0
 10
1545.8732
 20
1136.4914
 30
0.0
 10
1539.5196
 20
1128.4467
 30
0.0
 10
1527.09
 20
1125.8496
 30
0.0
 10
1518.1514
 20
1130.8867
 30
0.0
 10
1518.1514
 20
1130.8867
 30
0.0
 10
1512.3413
 20
1134.0756
 30
0.0
 10
1509.8047
 20
1142.7364
 30
0.0
 10
1514.7089
 20
1147.8217
 30
0.0
 10
1514.7089
 20
1147.8217
 30
0.0
 10
1516.2412
 20
1143.0523
 30
0.0
 10
1521.1176
 20
1140.2944
 30
0.0
 10
1525.9946
 20
1141.439
 30
0.0
 10
1525.9946
 20
1141.439
 30
0.0
 10
1531.1346
 20
1142.6452
 30
0.0
 10
1534.3237
 20
1147.7901
 30
0.0
 10
1533.1174
 20
1152.9301
 30
0.0
 10
1533.1174
 20
1152.9301
 30
0.0
 10
1532.5065
 20
1156.9791
 30
0.0
 10
1530.0025
 20
1160.7417
 30
0.0
 10
1526.317
 20
1162.6671
 30
0.0
 10
1526.317
 20
1162.6671
 30
0.0
 10
1517.5113
 20
1167.3417
 30
0.0
 10
1505.6736
 20
1164.793
 30
0.0
 10
1499.7065
 20
1156.7603
 30
0.0
 10
1499.7065
 20
1156.7603
 30
0.0
 10
1499.1833
 20
1158.4551
 30
0.0
 10
1498.6601
 20
1160.139
 30
0.0
 10
1498.0159
 20
1161.7821
 30
0.0
 10
1498.0159
 20
1161.7821
 30
0.0
 10
1495.8572
 20
1157.2724
 30
0.0
 10
1490.4513
 20
1155.3666
 30
0.0
 10
1485.9416
 20
1157.5253
 30
0.0
 10
1485.9416
 20
1157.5253
 30
0.0
 10
1485.3701
 20
1157.7988
 30
0.0
 10
1484.8396
 20
1158.1196
 30
0.0
 10
1484.3535
 20
1158.482
 30
0.0
 10
1484.3535
 20
1158.482
 30
0.0
 10
1482.0923
 20
1160.1682
 30
0.0
 10
1481.0315
 20
1162.8747
 30
0.0
 10
1480.7517
 20
1165.8226
 30
0.0
  0
SPLINE
  5
72
330
1F
100
AcDbEntity
  8
#Layer 1
 62
   250
370
    18
100
AcDbSpline
210
0.0
220
0.0
230
1.0
 70
    11
 71
     3
 72
    52
 73
    48
 74
     0
 42
0.0000000001
 43
0.0000000001
 40
0.0
 40
0.0
 40
0.0
 40
0.0
 40
0.0833333333333333
 40
0.0833333333333333
 40
0.0833333333333333
 40
0.0833333333333333
 40
0.1666666666666667
 40
0.1666666666666667
 40
0.1666666666666667
 40
0.1666666666666667
 40
0.25
 40
0.25
 40
0.25
 40
0.25
 40
0.3333333333333333
 40
0.3333333333333333
 40
0.3333333333333333
 40
0.3333333333333333
 40
0.4166666666666666
 40
0.4166666666666666
 40
0.4166666666666666
 40
0.4166666666666666
 40
0.4999999999999999
 40
0.4999999999999999
 40
0.4999999999999999
 40
0.4999999999999999
 40
0.5833333333333333
 40
0.5833333333333333
 40
0.5833333333333333
 40
0.5833333333333333
 40
0.6666666666666666
 40
0.6666666666666666
 40
0.6666666666666666
 40
0.6666666666666666
 40
0.75
 40
0.75
 40
0.75
 40
0.75
 40
0.8333333333333334
 40
0.8333333333333334
 40
0.8333333333333334
 40
0.8333333333333334
 40
0.9166666666666667
 40
0.9166666666666667
 40
0.9166666666666667
 40
0.9166666666666667
 40
1.0
 40
1.0
 40
1.0
 40
1.0
 10
1447.7055
 20
1137.953
 30
0.0
 10
1447.7055
 20
1137.953
 30
0.0
 10
1447.7055
 20
1137.953
 30
0.0
 10
1447.7055
 20
1137.953
 30
0.0
 10
1447.7055
 20
1137.953
 30
0.0
 10
1446.9686
 20
1148.1479
 30
0.0
 10
1449.771
 20
1159.1641
 30
0.0
 10
1457.5138
 20
1166.2546
 30
0.0
 10
1457.5138
 20
1166.2546
 30
0.0
 10
1457.6799
 20
1165.3951
 30
0.0
 10
1457.8863
 20
1164.5447
 30
0.0
 10
1458.1309
 20
1163.7062
 30
0.0
 10
1458.1309
 20
1163.7062
 30
0.0
 10
1461.2983
 20
1150.8326
 30
0.0
 10
1475.8312
 20
1138.5187
 30
0.0
 10
1489.4165
 20
1143.0675
 30
0.0
 10
1489.4165
 20
1143.0675
 30
0.0
 10
1492.1292
 20
1143.9758
 30
0.0
 10
1494.6063
 20
1145.6283
 30
0.0
 10
1496.735
 20
1147.556
 30
0.0
 10
1496.735
 20
1147.556
 30
0.0
 10
1496.3968
 20
1142.7243
 30
0.0
 10
1497.0732
 20
1137.8443
 30
0.0
 10
1499.0784
 20
1133.4112
 30
0.0
 10
1499.0784
 20
1133.4112
 30
0.0
 10
1498.8539
 20
1133.5469
 30
0.0
 10
1498.6261
 20
1133.6758
 30
0.0
 10
1498.3954
 20
1133.7979
 30
0.0
 10
1498.3954
 20
1133.7979
 30
0.0
 10
1493.9339
 20
1138.1608
 30
0.0
 10
1486.9499
 20
1138.3502
 30
0.0
 10
1482.2586
 20
1134.2354
 30
0.0
 10
1482.2586
 20
1134.2354
 30
0.0
 10
1477.327
 20
1129.9099
 30
0.0
 10
1476.8357
 20
1122.4053
 30
0.0
 10
1481.1612
 20
1117.4737
 30
0.0
 10
1481.1612
 20
1117.4737
 30
0.0
 10
1482.4839
 20
1116.0227
 30
0.0
 10
1484.2335
 20
1114.9778
 30
0.0
 10
1486.3106
 20
1114.6522
 30
0.0
 10
1486.3106
 20
1114.6522
 30
0.0
 10
1477.4324
 20
1111.6082
 30
0.0
 10
1467.4066
 20
1113.4322
 30
0.0
 10
1459.5431
 20
1118.3122
 30
0.0
 10
1459.5431
 20
1118.3122
 30
0.0
 10
1452.8149
 20
1122.5641
 30
0.0
 10
1448.2973
 20
1130.0049
 30
0.0
 10
1447.7055
 20
1137.953
 30
0.0
  0
SPLINE
  5
73
330
1F
100
AcDbEntity
  8
#Layer 1
 62
   250
370
    18
100
AcDbSpline
210
0.0
220
0.0
230
1.0
 70
    11
 71
     3
 72
    44
 73
    40
 74
     0
 42
0.0000000001
 43
0.0000000001
 40
0.0
 40
0.0
 40
0.0
 40
0.0
 40
0.1
 40
0.1
 40
0.1
 40
0.1
 40
0.2
 40
0.2
 40
0.2
 40
0.2
 40
0.3
 40
0.3
 40
0.3
 40
0.3
 40
0.4
 40
0.4
 40
0.4
 40
0.4
 40
0.5
 40
0.5
 40
0.5
 40
0.5
 40
0.6
 40
0.6
 40
0.6
 40
0.6
 40
0.7
 40
0.7
 40
0.7
 40
0.7
 40
0.7999999999999999
 40
0.7999999999999999
 40
0.7999999999999999
 40
0.7999999999999999
 40
0.8999999999999999
 40
0.8999999999999999
 40
0.8999999999999999
 40
0.8999999999999999
 40
1.0
 40
1.0
 40
1.0
 40
1.0
 10
1340.8804
 20
1115.0465
 30
0.0
 10
1340.8804
 20
1115.0465
 30
0.0
 10
1340.8804
 20
1115.0465
 30
0.0
 10
1340.8804
 20
1115.0465
 30
0.0
 10
1340.8804
 20
1115.0465
 30
0.0
 10
1330.4357
 20
1115.2576
 30
0.0
 10
1320.8952
 20
1117.9608
 30
0.0
 10
1314.8346
 20
1127.399
 30
0.0
 10
1314.8346
 20
1127.399
 30
0.0
 10
1308.0772
 20
1137.9224
 30
0.0
 10
1306.7616
 20
1152.9871
 30
0.0
 10
1312.4157
 20
1164.2425
 30
0.0
 10
1312.4157
 20
1164.2425
 30
0.0
 10
1312.5265
 20
1164.4632
 30
0.0
 10
1312.6401
 20
1164.683
 30
0.0
 10
1312.7565
 20
1164.9017
 30
0.0
 10
1312.7565
 20
1164.9017
 30
0.0
 10
1315.0153
 20
1157.7388
 30
0.0
 10
1319.098
 20
1150.8536
 30
0.0
 10
1325.7537
 20
1147.0124
 30
0.0
 10
1325.7537
 20
1147.0124
 30
0.0
 10
1333.2066
 20
1142.1928
 30
0.0
 10
1343.7396
 20
1141.6009
 30
0.0
 10
1350.7335
 20
1147.5922
 30
0.0
 10
1350.7335
 20
1147.5922
 30
0.0
 10
1350.1537
 20
1142.2532
 30
0.0
 10
1351.1079
 20
1136.8659
 30
0.0
 10
1353.4755
 20
1132.0463
 30
0.0
 10
1353.4755
 20
1132.0463
 30
0.0
 10
1348.921
 20
1134.8625
 30
0.0
 10
1343.0625
 20
1133.7772
 30
0.0
 10
1339.8191
 20
1129.5163
 30
0.0
 10
1339.8191
 20
1129.5163
 30
0.0
 10
1336.3626
 20
1124.9755
 30
0.0
 10
1337.2417
 20
1118.4921
 30
0.0
 10
1341.7825
 20
1115.0356
 30
0.0
 10
1341.7825
 20
1115.0356
 30
0.0
 10
1341.4827
 20
1115.0368
 30
0.0
 10
1341.1819
 20
1115.0403
 30
0.0
 10
1340.8804
 20
1115.0465
 30
0.0
  0
SPLINE
  5
74
330
1F
100
AcDbEntity
  8
#Layer 1
 62
   250
370
    18
100
AcDbSpline
210
0.0
220
0.0
230
1.0
 70
    11
 71
     3
 72
    24
 73
    20
 74
     0
 42
0.0000000001
 43
0.0000000001
 40
0.0
 40
0.0
 40
0.0
 40
0.0
 40
0.2
 40
0.2
 40
0.2
 40
0.2
 40
0.4
 40
0.4
 40
0.4
 40
0.4
 40
0.6000000000000001
 40
0.6000000000000001
 40
0.6000000000000001
 40
0.6000000000000001
 40
0.8
 40
0.8
 40
0.8
 40
0.8
 40
1.0
 40
1.0
 40
1.0
 40
1.0
 10
1174.8601
 20
1153.4989
 30
0.0
 10
1174.8601
 20
1153.4989
 30
0.0
 10
1174.8601
 20
1153.4989
 30
0.0
 10
1174.8601
 20
1153.4989
 30
0.0
 10
1174.8601
 20
1153.4989
 30
0.0
 10
1182.6754
 20
1151.2401
 30
0.0
 10
1190.7322
 20
1150.1168
 30
0.0
 10
1198.8615
 20
1149.8873
 30
0.0
 10
1198.8615
 20
1149.8873
 30
0.0
 10
1202.2157
 20
1149.5499
 30
0.0
 10
1206.8173
 20
1150.0685
 30
0.0
 10
1209.1833
 20
1147.4914
 30
0.0
 10
1209.1833
 20
1147.4914
 30
0.0
 10
1211.7746
 20
1144.669
 30
0.0
 10
1208.2161
 20
1142.1968
 30
0.0
 10
1205.7992
 20
1141.7588
 30
0.0
 10
1205.7992
 20
1141.7588
 30
0.0
 10
1194.5054
 20
1139.7121
 30
0.0
 10
1182.5235
 20
1145.2211
 30
0.0
 10
1174.8601
 20
1153.4989
 30
0.0
  0
SPLINE
  5
75
330
1F
100
AcDbEntity
  8
#Layer 1
 62
   250
370
    18
100
AcDbSpline
210
0.0
220
0.0
230
1.0
 70
    11
 71
     3
 72
    32
 73
    28
 74
     0
 42
0.0000000001
 43
0.0000000001
 40
0.0
 40
0.0
 40
0.0
 40
0.0
 40
0.1428571428571428
 40
0.1428571428571428
 40
0.1428571428571428
 40
0.1428571428571428
 40
0.2857142857142857
 40
0.2857142857142857
 40
0.2857142857142857
 40
0.2857142857142857
 40
0.4285714285714285
 40
0.4285714285714285
 40
0.4285714285714285
 40
0.4285714285714285
 40
0.5714285714285714
 40
0.5714285714285714
 40
0.5714285714285714
 40
0.5714285714285714
 40
0.7142857142857142
 40
0.7142857142857142
 40
0.7142857142857142
 40
0.7142857142857142
 40
0.857142857142857
 40
0.857142857142857
 40
0.857142857142857
 40
0.857142857142857
 40
1.0
 40
1.0
 40
1.0
 40
1.0
 10
1164.0492
 20
1147.6768
 30
0.0
 10
1164.0492
 20
1147.6768
 30
0.0
 10
1164.0492
 20
1147.6768
 30
0.0
 10
1164.0492
 20
1147.6768
 30
0.0
 10
1164.0492
 20
1147.6768
 30
0.0
 10
1164.4189
 20
1147.1975
 30
0.0
 10
1164.788
 20
1146.7155
 30
0.0
 10
1165.1573
 20
1146.2319
 30
0.0
 10
1165.1573
 20
1146.2319
 30
0.0
 10
1173.6056
 20
1135.17
 30
0.0
 10
1177.8239
 20
1129.4493
 30
0.0
 10
1190.6671
 20
1123.5045
 30
0.0
 10
1190.6671
 20
1123.5045
 30
0.0
 10
1194.9352
 20
1121.5289
 30
0.0
 10
1202.0218
 20
1118.0534
 30
0.0
 10
1202.0403
 20
1114.3801
 30
0.0
 10
1202.0403
 20
1114.3801
 30
0.0
 10
1202.0495
 20
1112.5488
 30
0.0
 10
1200.7022
 20
1110.7589
 30
0.0
 10
1199.0742
 20
1109.8465
 30
0.0
 10
1199.0742
 20
1109.8465
 30
0.0
 10
1194.9723
 20
1107.5478
 30
0.0
 10
1188.6647
 20
1111.3962
 30
0.0
 10
1185.5732
 20
1113.6474
 30
0.0
 10
1185.5732
 20
1113.6474
 30
0.0
 10
1174.448
 20
1121.7488
 30
0.0
 10
1167.0795
 20
1134.3322
 30
0.0
 10
1164.0492
 20
1147.6768
 30
0.0
  0
SPLINE
  5
76
330
1F
100
AcDbEntity
  8
#Layer 1
 62
   250
370
    18
100
AcDbSpline
210
0.0
220
0.0
230
1.0
 70
    11
 71
     3
 72
    40
 73
    36
 74
     0
 42
0.0000000001
 43
0.0000000001
 40
0.0
 40
0.0
 40
0.0
 40
0.0
 40
0.1111111111111111
 40
0.1111111111111111
 40
0.1111111111111111
 40
0.1111111111111111
 40
0.2222222222222222
 40
0.2222222222222222
 40
0.2222222222222222
 40
0.2222222222222222
 40
0.3333333333333333
 40
0.3333333333333333
 40
0.3333333333333333
 40
0.3333333333333333
 40
0.4444444444444444
 40
0.4444444444444444
 40
0.4444444444444444
 40
0.4444444444444444
 40
0.5555555555555556
 40
0.5555555555555556
 40
0.5555555555555556
 40
0.5555555555555556
 40
0.6666666666666667
 40
0.6666666666666667
 40
0.6666666666666667
 40
0.6666666666666667
 40
0.7777777777777779
 40
0.7777777777777779
 40
0.7777777777777779
 40
0.7777777777777779
 40
0.8888888888888891
 40
0.8888888888888891
 40
0.8888888888888891
 40
0.8888888888888891
 40
1.0
 40
1.0
 40
1.0
 40
1.0
 10
1302.3321
 20
1140.8399
 30
0.0
 10
1302.3321
 20
1140.8399
 30
0.0
 10
1302.3321
 20
1140.8399
 30
0.0
 10
1302.3321
 20
1140.8399
 30
0.0
 10
1302.3321
 20
1140.8399
 30
0.0
 10
1302.5012
 20
1140.852
 30
0.0
 10
1302.8394
 20
1140.9003
 30
0.0
 10
1303.0085
 20
1140.9245
 30
0.0
 10
1303.0085
 20
1140.9245
 30
0.0
 10
1303.0951
 20
1140.6112
 30
0.0
 10
1303.1831
 20
1140.2973
 30
0.0
 10
1303.2726
 20
1139.9831
 30
0.0
 10
1303.2726
 20
1139.9831
 30
0.0
 10
1305.298
 20
1132.871
 30
0.0
 10
1307.6969
 20
1126.921
 30
0.0
 10
1311.0973
 20
1122.254
 30
0.0
 10
1311.0973
 20
1122.254
 30
0.0
 10
1317.7303
 20
1113.1506
 30
0.0
 10
1328.8807
 20
1109.597
 30
0.0
 10
1339.8411
 20
1110.3101
 30
0.0
 10
1339.8411
 20
1110.3101
 30
0.0
 10
1343.1001
 20
1110.5221
 30
0.0
 10
1342.7618
 20
1109.3252
 30
0.0
 10
1338.7992
 20
1107.6583
 30
0.0
 10
1338.7992
 20
1107.6583
 30
0.0
 10
1336.8848
 20
1106.956
 30
0.0
 10
1334.883
 20
1106.5204
 30
0.0
 10
1332.8597
 20
1106.3448
 30
0.0
 10
1332.8597
 20
1106.3448
 30
0.0
 10
1314.169
 20
1104.7224
 30
0.0
 10
1303.7894
 20
1124.5483
 30
0.0
 10
1302.3867
 20
1140.1816
 30
0.0
 10
1302.3867
 20
1140.1816
 30
0.0
 10
1302.367
 20
1140.401
 30
0.0
 10
1302.3488
 20
1140.6204
 30
0.0
 10
1302.3321
 20
1140.8399
 30
0.0
  0
SPLINE
  5
77
330
1F
100
AcDbEntity
  8
#Layer 1
 62
   250
370
    18
100
AcDbSpline
210
0.0
220
0.0
230
1.0
 70
    11
 71
     3
 72
    28
 73
    24
 74
     0
 42
0.0000000001
 43
0.0000000001
 40
0.0
 40
0.0
 40
0.0
 40
0.0
 40
0.1666666666666667
 40
0.1666666666666667
 40
0.1666666666666667
 40
0.1666666666666667
 40
0.3333333333333333
 40
0.3333333333333333
 40
0.3333333333333333
 40
0.3333333333333333
 40
0.5
 40
0.5
 40
0.5
 40
0.5
 40
0.6666666666666666
 40
0.6666666666666666
 40
0.6666666666666666
 40
0.6666666666666666
 40
0.8333333333333333
 40
0.8333333333333333
 40
0.8333333333333333
 40
0.8333333333333333
 40
1.0
 40
1.0
 40
1.0
 40
1.0
 10
1427.9801
 20
1110.7023
 30
0.0
 10
1427.9801
 20
1110.7023
 30
0.0
 10
1427.9801
 20
1110.7023
 30
0.0
 10
1427.9801
 20
1110.7023
 30
0.0
 10
1427.9801
 20
1110.7023
 30
0.0
 10
1433.6211
 20
1116.295
 30
0.0
 10
1436.7979
 20
1123.7116
 30
0.0
 10
1439.5037
 20
1131.0437
 30
0.0
 10
1439.5037
 20
1131.0437
 30
0.0
 10
1441.1344
 20
1122.1292
 30
0.0
 10
1445.3621
 20
1113.2752
 30
0.0
 10
1453.0445
 20
1108.0569
 30
0.0
 10
1453.0445
 20
1108.0569
 30
0.0
 10
1458.8666
 20
1103.6239
 30
0.0
 10
1466.0054
 20
1101.6187
 30
0.0
 10
1473.0476
 20
1100.0847
 30
0.0
 10
1473.0476
 20
1100.0847
 30
0.0
 10
1453.0203
 20
1100.0605
 30
0.0
 10
1432.993
 20
1100.2054
 30
0.0
 10
1412.9536
 20
1100.0243
 30
0.0
 10
1412.9536
 20
1100.0243
 30
0.0
 10
1418.4013
 20
1102.9112
 30
0.0
 10
1423.8369
 20
1106.0518
 30
0.0
 10
1427.9801
 20
1110.7023
 30
0.0
  0
SPLINE
  5
78
330
1F
100
AcDbEntity
  8
#Layer 1
 62
   250
370
    18
100
AcDbSpline
210
0.0
220
0.0
230
1.0
 70
    11
 71
     3
 72
    20
 73
    16
 74
     0
 42
0.0000000001
 43
0.0000000001
 40
0.0
 40
0.0
 40
0.0
 40
0.0
 40
0.25
 40
0.25
 40
0.25
 40
0.25
 40
0.5
 40
0.5
 40
0.5
 40
0.5
 40
0.75
 40
0.75
 40
0.75
 40
0.75
 40
1.0
 40
1.0
 40
1.0
 40
1.0
 10
1296.0509
 20
1115.6548
 30
0.0
 10
1296.0509
 20
1115.6548
 30
0.0
 10
1296.0509
 20
1115.6548
 30
0.0
 10
1296.0509
 20
1115.6548
 30
0.0
 10
1296.0509
 20
1115.6548
 30
0.0
 10
1301.1846
 20
1106.994
 30
0.0
 10
1310.9446
 20
1103.1286
 30
0.0
 10
1320.0281
 20
1100.0605
 30
0.0
 10
1320.0281
 20
1100.0605
 30
0.0
 10
1309.0602
 20
1099.1304
 30
0.0
 10
1297.3796
 20
1102.0173
 30
0.0
 10
1287.076
 20
1097.0769
 30
0.0
 10
1287.076
 20
1097.0769
 30
0.0
 10
1290.9534
 20
1102.7783
 30
0.0
 10
1294.3115
 20
1108.9266
 30
0.0
 10
1296.0509
 20
1115.6548
 30
0.0
  0
SPLINE
  5
79
330
1F
100
AcDbEntity
  8
#Layer 1
 62
   250
370
    18
100
AcDbSpline
210
0.0
220
0.0
230
1.0
 70
    11
 71
     3
 72
    16
 73
    12
 74
     0
 42
0.0000000001
 43
0.0000000001
 40
0.0
 40
0.0
 40
0.0
 40
0.0
 40
0.3333333333333333
 40
0.3333333333333333
 40
0.3333333333333333
 40
0.3333333333333333
 40
0.6666666666666666
 40
0.6666666666666666
 40
0.6666666666666666
 40
0.6666666666666666
 40
1.0
 40
1.0
 40
1.0
 40
1.0
 10
1124.735
 20
1164.7146
 30
0.0
 10
1124.735
 20
1164.7146
 30
0.0
 10
1124.735
 20
1164.7146
 30
0.0
 10
1124.735
 20
1164.7146
 30
0.0
 10
1124.735
 20
1164.7146
 30
0.0
 10
1124.735
 20
1164.7146
 30
0.0
 10
1124.6612
 20
1164.7274
 30
0.0
 10
1124.6612
 20
1164.7274
 30
0.0
 10
1124.6612
 20
1164.7274
 30
0.0
 10
1124.684
 20
1164.7289
 30
0.0
 10
1124.7086
 20
1164.7245
 30
0.0
 10
1124.735
 20
1164.7146
 30
0.0
  0
SPLINE
  5
7A
330
1F
100
AcDbEntity
  8
#Layer 1
 62
   250
370
    18
100
AcDbSpline
210
0.0
220
0.0
230
1.0
 70
    11
 71
     3
 72
   148
 73
   144
 74
     0
 42
0.0000000001
 43
0.0000000001
 40
0.0
 40
0.0
 40
0.0
 40
0.0
 40
0.0277777777777778
 40
0.0277777777777778
 40
0.0277777777777778
 40
0.0277777777777778
 40
0.0555555555555556
 40
0.0555555555555556
 40
0.0555555555555556
 40
0.0555555555555556
 40
0.0833333333333333
 40
0.0833333333333333
 40
0.0833333333333333
 40
0.0833333333333333
 40
0.1111111111111111
 40
0.1111111111111111
 40
0.1111111111111111
 40
0.1111111111111111
 40
0.1388888888888889
 40
0.1388888888888889
 40
0.1388888888888889
 40
0.1388888888888889
 40
0.1666666666666667
 40
0.1666666666666667
 40
0.1666666666666667
 40
0.1666666666666667
 40
0.1944444444444445
 40
0.1944444444444445
 40
0.1944444444444445
 40
0.1944444444444445
 40
0.2222222222222223
 40
0.2222222222222223
 40
0.2222222222222223
 40
0.2222222222222223
 40
0.2500000000000001
 40
0.2500000000000001
 40
0.2500000000000001
 40
0.2500000000000001
 40
0.2777777777777778
 40
0.2777777777777778
 40
0.2777777777777778
 40
0.2777777777777778
 40
0.3055555555555556
 40
0.3055555555555556
 40
0.3055555555555556
 40
0.3055555555555556
 40
0.3333333333333334
 40
0.3333333333333334
 40
0.3333333333333334
 40
0.3333333333333334
 40
0.3611111111111112
 40
0.3611111111111112
 40
0.3611111111111112
 40
0.3611111111111112
 40
0.388888888888889
 40
0.388888888888889
 40
0.388888888888889
 40
0.388888888888889
 40
0.4166666666666668
 40
0.4166666666666668
 40
0.4166666666666668
 40
0.4166666666666668
 40
0.4444444444444446
 40
0.4444444444444446
 40
0.4444444444444446
 40
0.4444444444444446
 40
0.4722222222222224
 40
0.4722222222222224
 40
0.4722222222222224
 40
0.4722222222222224
 40
0.5000000000000001
 40
0.5000000000000001
 40
0.5000000000000001
 40
0.5000000000000001
 40
0.5277777777777779
 40
0.5277777777777779
 40
0.5277777777777779
 40
0.5277777777777779
 40
0.5555555555555557
 40
0.5555555555555557
 40
0.5555555555555557
 40
0.5555555555555557
 40
0.5833333333333335
 40
0.5833333333333335
 40
0.5833333333333335
 40
0.5833333333333335
 40
0.6111111111111113
 40
0.6111111111111113
 40
0.6111111111111113
 40
0.6111111111111113
 40
0.6388888888888891
 40
0.6388888888888891
 40
0.6388888888888891
 40
0.6388888888888891
 40
0.6666666666666669
 40
0.6666666666666669
 40
0.6666666666666669
 40
0.6666666666666669
 40
0.6944444444444446
 40
0.6944444444444446
 40
0.6944444444444446
 40
0.6944444444444446
 40
0.7222222222222224
 40
0.7222222222222224
 40
0.7222222222222224
 40
0.7222222222222224
 40
0.7500000000000002
 40
0.7500000000000002
 40
0.7500000000000002
 40
0.7500000000000002
 40
0.777777777777778
 40
0.777777777777778
 40
0.777777777777778
 40
0.777777777777778
 40
0.8055555555555558
 40
0.8055555555555558
 40
0.8055555555555558
 40
0.8055555555555558
 40
0.8333333333333336
 40
0.8333333333333336
 40
0.8333333333333336
 40
0.8333333333333336
 40
0.8611111111111114
 40
0.8611111111111114
 40
0.8611111111111114
 40
0.8611111111111114
 40
0.8888888888888892
 40
0.8888888888888892
 40
0.8888888888888892
 40
0.8888888888888892
 40
0.916666666666667
 40
0.916666666666667
 40
0.916666666666667
 40
0.916666666666667
 40
0.9444444444444448
 40
0.9444444444444448
 40
0.9444444444444448
 40
0.9444444444444448
 40
0.9722222222222225
 40
0.9722222222222225
 40
0.9722222222222225
 40
0.9722222222222225
 40
1.0
 40
1.0
 40
1.0
 40
1.0
 10
1127.3788
 20
1160.8252
 30
0.0
 10
1127.3788
 20
1160.8252
 30
0.0
 10
1127.3788
 20
1160.8252
 30
0.0
 10
1127.3788
 20
1160.8252
 30
0.0
 10
1127.3788
 20
1160.8252
 30
0.0
 10
1127.798
 20
1160.1405
 30
0.0
 10
1127.8886
 20
1159.9925
 30
0.0
 10
1127.8886
 20
1159.9925
 30
0.0
 10
1127.8886
 20
1159.9925
 30
0.0
 10
1127.8886
 20
1159.9925
 30
0.0
 10
1127.8388
 20
1159.9687
 30
0.0
 10
1127.5022
 20
1159.8073
 30
0.0
 10
1127.5022
 20
1159.8073
 30
0.0
 10
1115.8197
 20
1154.2075
 30
0.0
 10
1107.6062
 20
1154.4082
 30
0.0
 10
1095.4377
 20
1158.6803
 30
0.0
 10
1095.4377
 20
1158.6803
 30
0.0
 10
1093.9198
 20
1159.2132
 30
0.0
 10
1092.4276
 20
1159.7916
 30
0.0
 10
1090.9699
 20
1160.3962
 30
0.0
 10
1090.9699
 20
1160.3962
 30
0.0
 10
1090.8008
 20
1158.9225
 30
0.0
 10
1090.6075
 20
1157.461
 30
0.0
 10
1090.4263
 20
1155.9873
 30
0.0
 10
1090.4263
 20
1155.9873
 30
0.0
 10
1089.7872
 20
1155.9264
 30
0.0
 10
1089.1347
 20
1155.8718
 30
0.0
 10
1088.4777
 20
1155.8091
 30
0.0
 10
1088.4777
 20
1155.8091
 30
0.0
 10
1084.5683
 20
1155.4359
 30
0.0
 10
1080.4356
 20
1154.4334
 30
0.0
 10
1078.3327
 20
1151.3754
 30
0.0
 10
1078.3327
 20
1151.3754
 30
0.0
 10
1075.5538
 20
1147.3343
 30
0.0
 10
1076.9066
 20
1142.0071
 30
0.0
 10
1080.9467
 20
1139.5616
 30
0.0
 10
1080.9467
 20
1139.5616
 30
0.0
 10
1082.8774
 20
1138.3929
 30
0.0
 10
1085.1907
 20
1137.7472
 30
0.0
 10
1087.3099
 20
1137.1195
 30
0.0
 10
1087.3099
 20
1137.1195
 30
0.0
 10
1087.1649
 20
1136.2257
 30
0.0
 10
1086.8871
 20
1134.4379
 30
0.0
 10
1086.7422
 20
1133.5441
 30
0.0
 10
1086.7422
 20
1133.5441
 30
0.0
 10
1100.1259
 20
1133.834
 30
0.0
 10
1113.9567
 20
1136.5881
 30
0.0
 10
1125.0816
 20
1144.4033
 30
0.0
 10
1125.0816
 20
1144.4033
 30
0.0
 10
1128.2705
 20
1146.4689
 30
0.0
 10
1130.6622
 20
1149.5249
 30
0.0
 10
1133.8511
 20
1151.5663
 30
0.0
 10
1133.8511
 20
1151.5663
 30
0.0
 10
1133.8511
 20
1151.5663
 30
0.0
 10
1134.2739
 20
1149.996
 30
0.0
 10
1134.2739
 20
1149.996
 30
0.0
 10
1134.2739
 20
1149.996
 30
0.0
 10
1134.0693
 20
1149.7296
 30
0.0
 10
1133.8621
 20
1149.4653
 30
0.0
 10
1133.6525
 20
1149.2031
 30
0.0
 10
1133.6525
 20
1149.2031
 30
0.0
 10
1124.7409
 20
1138.0573
 30
0.0
 10
1112.517
 20
1130.0398
 30
0.0
 10
1098.7634
 20
1126.4409
 30
0.0
 10
1098.7634
 20
1126.4409
 30
0.0
 10
1094.6911
 20
1125.3753
 30
0.0
 10
1090.5319
 20
1124.6071
 30
0.0
 10
1086.4039
 20
1124.0015
 30
0.0
 10
1086.4039
 20
1124.0015
 30
0.0
 10
1087.3099
 20
1122.0205
 30
0.0
 10
1088.2037
 20
1120.0395
 30
0.0
 10
1089.0614
 20
1118.0465
 30
0.0
 10
1089.0614
 20
1118.0465
 30
0.0
 10
1086.3315
 20
1115.2803
 30
0.0
 10
1084.3988
 20
1111.7411
 30
0.0
 10
1084.894
 20
1107.7308
 30
0.0
 10
1084.894
 20
1107.7308
 30
0.0
 10
1082.3816
 20
1109.132
 30
0.0
 10
1079.6758
 20
1110.0983
 30
0.0
 10
1076.8855
 20
1110.7868
 30
0.0
 10
1076.8855
 20
1110.7868
 30
0.0
 10
1080.609
 20
1113.6293
 30
0.0
 10
1081.3232
 20
1118.9523
 30
0.0
 10
1078.4807
 20
1122.6757
 30
0.0
 10
1078.4807
 20
1122.6757
 30
0.0
 10
1075.774
 20
1126.2213
 30
0.0
 10
1070.8503
 20
1127.0711
 30
0.0
 10
1067.1117
 20
1124.6378
 30
0.0
 10
1067.1117
 20
1124.6378
 30
0.0
 10
1065.9383
 20
1123.8106
 30
0.0
 10
1065.0742
 20
1122.5424
 30
0.0
 10
1064.7908
 20
1121.0195
 30
0.0
 10
1064.7908
 20
1121.0195
 30
0.0
 10
1064.5134
 20
1119.5284
 30
0.0
 10
1064.7821
 20
1118.1619
 30
0.0
 10
1065.6035
 20
1116.8869
 30
0.0
 10
1065.6035
 20
1116.8869
 30
0.0
 10
1065.5705
 20
1116.8936
 30
0.0
 10
1065.5374
 20
1116.9004
 30
0.0
 10
1065.5043
 20
1116.9071
 30
0.0
 10
1065.5043
 20
1116.9071
 30
0.0
 10
1065.1182
 20
1116.9166
 30
0.0
 10
1064.7354
 20
1116.9385
 30
0.0
 10
1064.3562
 20
1116.9724
 30
0.0
 10
1064.3562
 20
1116.9724
 30
0.0
 10
1059.2294
 20
1117.43
 30
0.0
 10
1055.4215
 20
1119.633
 30
0.0
 10
1052.7876
 20
1122.8477
 30
0.0
 10
1052.7876
 20
1122.8477
 30
0.0
 10
1050.5595
 20
1125.5672
 30
0.0
 10
1049.2298
 20
1128.7826
 30
0.0
 10
1048.5909
 20
1132.1936
 30
0.0
 10
1048.5909
 20
1132.1936
 30
0.0
 10
1044.6992
 20
1152.9711
 30
0.0
 10
1062.9369
 20
1173.1269
 30
0.0
 10
1079.9362
 20
1181.4
 30
0.0
 10
1079.9362
 20
1181.4
 30
0.0
 10
1089.5876
 20
1186.097
 30
0.0
 10
1100.4187
 20
1188.2328
 30
0.0
 10
1111.1039
 20
1186.7886
 30
0.0
 10
1111.1039
 20
1186.7886
 30
0.0
 10
1111.803
 20
1186.6941
 30
0.0
 10
1112.5004
 20
1186.5856
 30
0.0
 10
1113.1956
 20
1186.4631
 30
0.0
 10
1113.1956
 20
1186.4631
 30
0.0
 10
1112.6743
 20
1186.2908
 30
0.0
 10
1112.143
 20
1186.1185
 30
0.0
 10
1111.6078
 20
1185.9409
 30
0.0
 10
1111.6078
 20
1185.9409
 30
0.0
 10
1105.4325
 20
1183.8915
 30
0.0
 10
1099.3847
 20
1180.2027
 30
0.0
 10
1100.3787
 20
1172.5148
 30
0.0
 10
1100.3787
 20
1172.5148
 30
0.0
 10
1100.6273
 20
1170.5927
 30
0.0
 10
1101.4116
 20
1168.6479
 30
0.0
 10
1102.8059
 20
1166.8201
 30
0.0
 10
1102.8059
 20
1166.8201
 30
0.0
 10
1106.2203
 20
1162.3444
 30
0.0
 10
1112.5274
 20
1160.6496
 30
0.0
 10
1118.3739
 20
1160.1479
 30
0.0
 10
1118.3739
 20
1160.1479
 30
0.0
 10
1121.4875
 20
1159.8807
 30
0.0
 10
1124.5476
 20
1160.1119
 30
0.0
 10
1127.3788
 20
1160.8252
 30
0.0
  0
SPLINE
  5
7B
330
1F
100
AcDbEntity
  8
#Layer 1
 62
   250
370
    18
100
AcDbSpline
210
0.0
220
0.0
230
1.0
 70
    11
 71
     3
 72
    24
 73
    20
 74
     0
 42
0.0000000001
 43
0.0000000001
 40
0.0
 40
0.0
 40
0.0
 40
0.0
 40
0.2
 40
0.2
 40
0.2
 40
0.2
 40
0.4
 40
0.4
 40
0.4
 40
0.4
 40
0.6000000000000001
 40
0.6000000000000001
 40
0.6000000000000001
 40
0.6000000000000001
 40
0.8
 40
0.8
 40
0.8
 40
0.8
 40
1.0
 40
1.0
 40
1.0
 40
1.0
 10
1139.7337
 20
1187.6589
 30
0.0
 10
1139.7337
 20
1187.6589
 30
0.0
 10
1139.7337
 20
1187.6589
 30
0.0
 10
1139.7337
 20
1187.6589
 30
0.0
 10
1139.7337
 20
1187.6589
 30
0.0
 10
1135.9848
 20
1193.6952
 30
0.0
 10
1127.9712
 20
1196.9357
 30
0.0
 10
1120.2803
 20
1198.8568
 30
0.0
 10
1120.2803
 20
1198.8568
 30
0.0
 10
1118.7573
 20
1199.2373
 30
0.0
 10
1117.2328
 20
1199.5755
 30
0.0
 10
1115.7323
 20
1199.8952
 30
0.0
 10
1115.7323
 20
1199.8952
 30
0.0
 10
1126.1204
 20
1200.0039
 30
0.0
 10
1136.5085
 20
1199.9073
 30
0.0
 10
1146.8966
 20
1199.9073
 30
0.0
 10
1146.8966
 20
1199.9073
 30
0.0
 10
1145.9721
 20
1195.095
 30
0.0
 10
1142.8959
 20
1191.2481
 30
0.0
 10
1139.7337
 20
1187.6589
 30
0.0
  0
SPLINE
  5
7C
330
1F
100
AcDbEntity
  8
#Layer 1
 62
   250
370
    18
100
AcDbSpline
210
0.0
220
0.0
230
1.0
 70
    11
 71
     3
 72
    32
 73
    28
 74
     0
 42
0.0000000001
 43
0.0000000001
 40
0.0
 40
0.0
 40
0.0
 40
0.0
 40
0.1428571428571428
 40
0.1428571428571428
 40
0.1428571428571428
 40
0.1428571428571428
 40
0.2857142857142857
 40
0.2857142857142857
 40
0.2857142857142857
 40
0.2857142857142857
 40
0.4285714285714285
 40
0.4285714285714285
 40
0.4285714285714285
 40
0.4285714285714285
 40
0.5714285714285714
 40
0.5714285714285714
 40
0.5714285714285714
 40
0.5714285714285714
 40
0.7142857142857142
 40
0.7142857142857142
 40
0.7142857142857142
 40
0.7142857142857142
 40
0.857142857142857
 40
0.857142857142857
 40
0.857142857142857
 40
0.857142857142857
 40
1.0
 40
1.0
 40
1.0
 40
1.0
 10
1132.7346
 20
1106.548
 30
0.0
 10
1132.7346
 20
1106.548
 30
0.0
 10
1132.7346
 20
1106.548
 30
0.0
 10
1132.7346
 20
1106.548
 30
0.0
 10
1132.7346
 20
1106.548
 30
0.0
 10
1131.939
 20
1108.5707
 30
0.0
 10
1129.9683
 20
1110.0024
 30
0.0
 10
1127.6632
 20
1110.0024
 30
0.0
 10
1127.6632
 20
1110.0024
 30
0.0
 10
1127.4825
 20
1110.0024
 30
0.0
 10
1127.3038
 20
1109.9936
 30
0.0
 10
1127.1276
 20
1109.9764
 30
0.0
 10
1127.1276
 20
1109.9764
 30
0.0
 10
1135.192
 20
1121.4155
 30
0.0
 10
1139.7281
 20
1134.9393
 30
0.0
 10
1142.5119
 20
1148.5465
 30
0.0
 10
1142.5119
 20
1148.5465
 30
0.0
 10
1143.14
 20
1148.3653
 30
0.0
 10
1144.3963
 20
1148.015
 30
0.0
 10
1145.0364
 20
1147.8459
 30
0.0
 10
1145.0364
 20
1147.8459
 30
0.0
 10
1144.0459
 20
1133.3629
 30
0.0
 10
1139.5766
 20
1119.3027
 30
0.0
 10
1132.8002
 20
1106.5108
 30
0.0
 10
1132.8002
 20
1106.5108
 30
0.0
 10
1132.7782
 20
1106.5231
 30
0.0
 10
1132.7564
 20
1106.5355
 30
0.0
 10
1132.7346
 20
1106.548
 30
0.0
  0
SPLINE
  5
7D
330
1F
100
AcDbEntity
  8
#Layer 1
 62
   250
370
    18
100
AcDbSpline
210
0.0
220
0.0
230
1.0
 70
    11
 71
     3
 72
    44
 73
    40
 74
     0
 42
0.0000000001
 43
0.0000000001
 40
0.0
 40
0.0
 40
0.0
 40
0.0
 40
0.1
 40
0.1
 40
0.1
 40
0.1
 40
0.2
 40
0.2
 40
0.2
 40
0.2
 40
0.3
 40
0.3
 40
0.3
 40
0.3
 40
0.4
 40
0.4
 40
0.4
 40
0.4
 40
0.5
 40
0.5
 40
0.5
 40
0.5
 40
0.6
 40
0.6
 40
0.6
 40
0.6
 40
0.7
 40
0.7
 40
0.7
 40
0.7
 40
0.7999999999999999
 40
0.7999999999999999
 40
0.7999999999999999
 40
0.7999999999999999
 40
0.8999999999999999
 40
0.8999999999999999
 40
0.8999999999999999
 40
0.8999999999999999
 40
1.0
 40
1.0
 40
1.0
 40
1.0
 10
1027.9859
 20
1140.4434
 30
0.0
 10
1027.9859
 20
1140.4434
 30
0.0
 10
1027.9859
 20
1140.4434
 30
0.0
 10
1027.9859
 20
1140.4434
 30
0.0
 10
1027.9859
 20
1140.4434
 30
0.0
 10
1026.408
 20
1142.5267
 30
0.0
 10
1023.9073
 20
1143.8725
 30
0.0
 10
1021.0923
 20
1143.8725
 30
0.0
 10
1021.0923
 20
1143.8725
 30
0.0
 10
1017.7381
 20
1143.8725
 30
0.0
 10
1014.8303
 20
1141.9617
 30
0.0
 10
1013.3977
 20
1139.1693
 30
0.0
 10
1013.3977
 20
1139.1693
 30
0.0
 10
1013.2759
 20
1139.0486
 30
0.0
 10
1013.155
 20
1138.9289
 30
0.0
 10
1013.0348
 20
1138.8106
 30
0.0
 10
1013.0348
 20
1138.8106
 30
0.0
 10
1009.8096
 20
1149.3316
 30
0.0
 10
1004.5069
 20
1159.2366
 30
0.0
 10
997.1265
 20
1167.4263
 30
0.0
 10
997.1265
 20
1167.4263
 30
0.0
 10
1003.8183
 20
1165.8318
 30
0.0
 10
1010.8726
 20
1164.4427
 30
0.0
 10
1017.6974
 20
1166.0976
 30
0.0
 10
1017.6974
 20
1166.0976
 30
0.0
 10
1023.2028
 20
1167.2773
 30
0.0
 10
1027.6619
 20
1171.0081
 30
0.0
 10
1031.1675
 20
1175.2371
 30
0.0
 10
1031.1675
 20
1175.2371
 30
0.0
 10
1031.9916
 20
1171.8121
 30
0.0
 10
1035.075
 20
1169.2671
 30
0.0
 10
1038.7529
 20
1169.2671
 30
0.0
 10
1038.7529
 20
1169.2671
 30
0.0
 10
1039.1813
 20
1169.2671
 30
0.0
 10
1039.6016
 20
1169.3016
 30
0.0
 10
1040.0112
 20
1169.368
 30
0.0
 10
1040.0112
 20
1169.368
 30
0.0
 10
1033.0184
 20
1161.3434
 30
0.0
 10
1028.9783
 20
1151.0042
 30
0.0
 10
1027.9859
 20
1140.4434
 30
0.0
  0
SPLINE
  5
7E
330
1F
100
AcDbEntity
  8
#Layer 1
 62
   250
370
    18
100
AcDbSpline
210
0.0
220
0.0
230
1.0
 70
    11
 71
     3
 72
    48
 73
    44
 74
     0
 42
0.0000000001
 43
0.0000000001
 40
0.0
 40
0.0
 40
0.0
 40
0.0
 40
0.0909090909090909
 40
0.0909090909090909
 40
0.0909090909090909
 40
0.0909090909090909
 40
0.1818181818181818
 40
0.1818181818181818
 40
0.1818181818181818
 40
0.1818181818181818
 40
0.2727272727272727
 40
0.2727272727272727
 40
0.2727272727272727
 40
0.2727272727272727
 40
0.3636363636363636
 40
0.3636363636363636
 40
0.3636363636363636
 40
0.3636363636363636
 40
0.4545454545454546
 40
0.4545454545454546
 40
0.4545454545454546
 40
0.4545454545454546
 40
0.5454545454545455
 40
0.5454545454545455
 40
0.5454545454545455
 40
0.5454545454545455
 40
0.6363636363636365
 40
0.6363636363636365
 40
0.6363636363636365
 40
0.6363636363636365
 40
0.7272727272727274
 40
0.7272727272727274
 40
0.7272727272727274
 40
0.7272727272727274
 40
0.8181818181818183
 40
0.8181818181818183
 40
0.8181818181818183
 40
0.8181818181818183
 40
0.9090909090909093
 40
0.9090909090909093
 40
0.9090909090909093
 40
0.9090909090909093
 40
1.0
 40
1.0
 40
1.0
 40
1.0
 10
1016.5778
 20
1127.8587
 30
0.0
 10
1016.5778
 20
1127.8587
 30
0.0
 10
1016.5778
 20
1127.8587
 30
0.0
 10
1016.5778
 20
1127.8587
 30
0.0
 10
1016.5778
 20
1127.8587
 30
0.0
 10
1017.8917
 20
1127.0523
 30
0.0
 10
1019.4377
 20
1126.5873
 30
0.0
 10
1021.0923
 20
1126.5873
 30
0.0
 10
1021.0923
 20
1126.5873
 30
0.0
 10
1023.811
 20
1126.5873
 30
0.0
 10
1026.2364
 20
1127.8426
 30
0.0
 10
1027.8207
 20
1129.8051
 30
0.0
 10
1027.8207
 20
1129.8051
 30
0.0
 10
1028.4255
 20
1120.3376
 30
0.0
 10
1031.3897
 20
1110.7638
 30
0.0
 10
1037.5918
 20
1103.4427
 30
0.0
 10
1037.5918
 20
1103.4427
 30
0.0
 10
1042.9067
 20
1097.089
 30
0.0
 10
1050.4441
 20
1092.1728
 30
0.0
 10
1058.7788
 20
1091.1944
 30
0.0
 10
1058.7788
 20
1091.1944
 30
0.0
 10
1063.393
 20
1090.4213
 30
0.0
 10
1068.3214
 20
1092.7647
 30
0.0
 10
1070.5439
 20
1096.8837
 30
0.0
 10
1070.5439
 20
1096.8837
 30
0.0
 10
1072.1384
 20
1099.831
 30
0.0
 10
1070.9788
 20
1103.177
 30
0.0
 10
1070.4956
 20
1106.2451
 30
0.0
 10
1070.4956
 20
1106.2451
 30
0.0
 10
1078.8786
 20
1103.2615
 30
0.0
 10
1080.1711
 20
1089.926
 30
0.0
 10
1072.1142
 20
1085.807
 30
0.0
 10
1072.1142
 20
1085.807
 30
0.0
 10
1061.9073
 20
1080.5646
 30
0.0
 10
1049.0792
 20
1083.6328
 30
0.0
 10
1040.3459
 20
1090.4455
 30
0.0
 10
1040.3459
 20
1090.4455
 30
0.0
 10
1028.2546
 20
1099.7464
 30
0.0
 10
1021.5869
 20
1114.0482
 30
0.0
 10
1016.3083
 20
1127.9514
 30
0.0
 10
1016.3083
 20
1127.9514
 30
0.0
 10
1016.3979
 20
1127.9196
 30
0.0
 10
1016.4877
 20
1127.8887
 30
0.0
 10
1016.5778
 20
1127.8587
 30
0.0
  0
SPLINE
  5
7F
330
1F
100
AcDbEntity
  8
#Layer 1
 62
   250
370
    18
100
AcDbSpline
210
0.0
220
0.0
230
1.0
 70
    11
 71
     3
 72
    36
 73
    32
 74
     0
 42
0.0000000001
 43
0.0000000001
 40
0.0
 40
0.0
 40
0.0
 40
0.0
 40
0.125
 40
0.125
 40
0.125
 40
0.125
 40
0.25
 40
0.25
 40
0.25
 40
0.25
 40
0.375
 40
0.375
 40
0.375
 40
0.375
 40
0.5
 40
0.5
 40
0.5
 40
0.5
 40
0.625
 40
0.625
 40
0.625
 40
0.625
 40
0.75
 40
0.75
 40
0.75
 40
0.75
 40
0.875
 40
0.875
 40
0.875
 40
0.875
 40
1.0
 40
1.0
 40
1.0
 40
1.0
 10
882.9383
 20
1147.5466
 30
0.0
 10
882.9383
 20
1147.5466
 30
0.0
 10
882.9383
 20
1147.5466
 30
0.0
 10
882.9383
 20
1147.5466
 30
0.0
 10
882.9383
 20
1147.5466
 30
0.0
 10
881.5326
 20
1148.9159
 30
0.0
 10
879.6122
 20
1149.7594
 30
0.0
 10
877.4949
 20
1149.7594
 30
0.0
 10
877.4949
 20
1149.7594
 30
0.0
 10
873.7092
 20
1149.7594
 30
0.0
 10
870.5532
 20
1147.063
 30
0.0
 10
869.8429
 20
1143.4859
 30
0.0
 10
869.8429
 20
1143.4859
 30
0.0
 10
866.243
 20
1152.7609
 30
0.0
 10
862.6734
 20
1162.8159
 30
0.0
 10
854.4709
 20
1169.057
 30
0.0
 10
854.4709
 20
1169.057
 30
0.0
 10
863.1899
 20
1168.2731
 30
0.0
 10
873.137
 20
1169.8491
 30
0.0
 10
878.5785
 20
1177.4509
 30
0.0
 10
878.5785
 20
1177.4509
 30
0.0
 10
879.4104
 20
1175.5051
 30
0.0
 10
881.342
 20
1174.1417
 30
0.0
 10
883.592
 20
1174.1417
 30
0.0
 10
883.592
 20
1174.1417
 30
0.0
 10
883.957
 20
1174.1417
 30
0.0
 10
884.3137
 20
1174.1775
 30
0.0
 10
884.6586
 20
1174.246
 30
0.0
 10
884.6586
 20
1174.246
 30
0.0
 10
881.177
 20
1165.8481
 30
0.0
 10
880.5108
 20
1156.3215
 30
0.0
 10
882.9383
 20
1147.5466
 30
0.0
  0
SPLINE
  5
80
330
1F
100
AcDbEntity
  8
#Layer 1
 62
   250
370
    18
100
AcDbSpline
210
0.0
220
0.0
230
1.0
 70
    11
 71
     3
 72
    60
 73
    56
 74
     0
 42
0.0000000001
 43
0.0000000001
 40
0.0
 40
0.0
 40
0.0
 40
0.0
 40
0.0714285714285714
 40
0.0714285714285714
 40
0.0714285714285714
 40
0.0714285714285714
 40
0.1428571428571428
 40
0.1428571428571428
 40
0.1428571428571428
 40
0.1428571428571428
 40
0.2142857142857143
 40
0.2142857142857143
 40
0.2142857142857143
 40
0.2142857142857143
 40
0.2857142857142857
 40
0.2857142857142857
 40
0.2857142857142857
 40
0.2857142857142857
 40
0.3571428571428571
 40
0.3571428571428571
 40
0.3571428571428571
 40
0.3571428571428571
 40
0.4285714285714285
 40
0.4285714285714285
 40
0.4285714285714285
 40
0.4285714285714285
 40
0.4999999999999999
 40
0.4999999999999999
 40
0.4999999999999999
 40
0.4999999999999999
 40
0.5714285714285713
 40
0.5714285714285713
 40
0.5714285714285713
 40
0.5714285714285713
 40
0.6428571428571427
 40
0.6428571428571427
 40
0.6428571428571427
 40
0.6428571428571427
 40
0.7142857142857141
 40
0.7142857142857141
 40
0.7142857142857141
 40
0.7142857142857141
 40
0.7857142857142855
 40
0.7857142857142855
 40
0.7857142857142855
 40
0.7857142857142855
 40
0.8571428571428569
 40
0.8571428571428569
 40
0.8571428571428569
 40
0.8571428571428569
 40
0.9285714285714283
 40
0.9285714285714283
 40
0.9285714285714283
 40
0.9285714285714283
 40
1.0
 40
1.0
 40
1.0
 40
1.0
 10
872.7519
 20
1135.763
 30
0.0
 10
872.7519
 20
1135.763
 30
0.0
 10
872.7519
 20
1135.763
 30
0.0
 10
872.7519
 20
1135.763
 30
0.0
 10
872.7519
 20
1135.763
 30
0.0
 10
874.0662
 20
1134.7551
 30
0.0
 10
875.7106
 20
1134.1561
 30
0.0
 10
877.4949
 20
1134.1561
 30
0.0
 10
877.4949
 20
1134.1561
 30
0.0
 10
881.294
 20
1134.1561
 30
0.0
 10
884.4588
 20
1136.8717
 30
0.0
 10
885.1543
 20
1140.4676
 30
0.0
 10
885.1543
 20
1140.4676
 30
0.0
 10
888.838
 20
1132.1338
 30
0.0
 10
895.9407
 20
1125.4019
 30
0.0
 10
904.5513
 20
1122.3829
 30
0.0
 10
904.5513
 20
1122.3829
 30
0.0
 10
916.0387
 20
1118.3122
 30
0.0
 10
929.2896
 20
1118.8316
 30
0.0
 10
940.173
 20
1124.4605
 30
0.0
 10
940.173
 20
1124.4605
 30
0.0
 10
939.0737
 20
1120.0879
 30
0.0
 10
938.7718
 20
1115.1958
 30
0.0
 10
941.1272
 20
1111.1613
 30
0.0
 10
941.1272
 20
1111.1613
 30
0.0
 10
943.688
 20
1105.9673
 30
0.0
 10
948.5801
 20
1102.5488
 30
0.0
 10
953.6413
 20
1100.0605
 30
0.0
 10
953.6413
 20
1100.0605
 30
0.0
 10
940.4387
 20
1100.1571
 30
0.0
 10
927.224
 20
1100.2538
 30
0.0
 10
914.0094
 20
1100.133
 30
0.0
 10
914.0094
 20
1100.133
 30
0.0
 10
914.0147
 20
1100.1721
 30
0.0
 10
914.0202
 20
1100.2114
 30
0.0
 10
914.0258
 20
1100.2506
 30
0.0
 10
914.0258
 20
1100.2506
 30
0.0
 10
916.5038
 20
1102.4012
 30
0.0
 10
916.7693
 20
1106.1535
 30
0.0
 10
914.6187
 20
1108.6315
 30
0.0
 10
914.6187
 20
1108.6315
 30
0.0
 10
912.4681
 20
1111.1095
 30
0.0
 10
908.7158
 20
1111.3749
 30
0.0
 10
906.2378
 20
1109.2243
 30
0.0
 10
906.2378
 20
1109.2243
 30
0.0
 10
904.2085
 20
1107.4631
 30
0.0
 10
903.6116
 20
1104.7009
 30
0.0
 10
904.7325
 20
1102.2589
 30
0.0
 10
904.7325
 20
1102.2589
 30
0.0
 10
899.1761
 20
1103.6843
 30
0.0
 10
893.8491
 20
1106.0639
 30
0.0
 10
889.404
 20
1109.7359
 30
0.0
 10
889.404
 20
1109.7359
 30
0.0
 10
881.0317
 20
1116.257
 30
0.0
 10
876.4501
 20
1126.0964
 30
0.0
 10
872.7519
 20
1135.763
 30
0.0
  0
SPLINE
  5
81
330
1F
100
AcDbEntity
  8
#Layer 1
 62
   250
370
    18
100
AcDbSpline
210
0.0
220
0.0
230
1.0
 70
    11
 71
     3
 72
    36
 73
    32
 74
     0
 42
0.0000000001
 43
0.0000000001
 40
0.0
 40
0.0
 40
0.0
 40
0.0
 40
0.125
 40
0.125
 40
0.125
 40
0.125
 40
0.25
 40
0.25
 40
0.25
 40
0.25
 40
0.375
 40
0.375
 40
0.375
 40
0.375
 40
0.5
 40
0.5
 40
0.5
 40
0.5
 40
0.625
 40
0.625
 40
0.625
 40
0.625
 40
0.75
 40
0.75
 40
0.75
 40
0.75
 40
0.875
 40
0.875
 40
0.875
 40
0.875
 40
1.0
 40
1.0
 40
1.0
 40
1.0
 10
1046.5445
 20
1176.6689
 30
0.0
 10
1046.5445
 20
1176.6689
 30
0.0
 10
1046.5445
 20
1176.6689
 30
0.0
 10
1046.5445
 20
1176.6689
 30
0.0
 10
1046.5445
 20
1176.6689
 30
0.0
 10
1046.5512
 20
1176.8013
 30
0.0
 10
1046.5545
 20
1176.9346
 30
0.0
 10
1046.5545
 20
1177.0687
 30
0.0
 10
1046.5545
 20
1177.0687
 30
0.0
 10
1046.5545
 20
1181.3774
 30
0.0
 10
1043.0617
 20
1184.8703
 30
0.0
 10
1038.7529
 20
1184.8703
 30
0.0
 10
1038.7529
 20
1184.8703
 30
0.0
 10
1037.552
 20
1184.8703
 30
0.0
 10
1036.4145
 20
1184.599
 30
0.0
 10
1035.3983
 20
1184.1142
 30
0.0
 10
1035.3983
 20
1184.1142
 30
0.0
 10
1036.1918
 20
1189.4572
 30
0.0
 10
1034.1727
 20
1194.5453
 30
0.0
 10
1031.0207
 20
1198.7719
 30
0.0
 10
1031.0207
 20
1198.7719
 30
0.0
 10
1051.652
 20
1198.5786
 30
0.0
 10
1072.2954
 20
1198.8443
 30
0.0
 10
1092.9147
 20
1198.6511
 30
0.0
 10
1092.9147
 20
1198.6511
 30
0.0
 10
1076.1245
 20
1194.7132
 30
0.0
 10
1059.6485
 20
1187.9731
 30
0.0
 10
1046.5546
 20
1176.4857
 30
0.0
 10
1046.5546
 20
1176.4857
 30
0.0
 10
1046.5519
 20
1176.547
 30
0.0
 10
1046.5485
 20
1176.6081
 30
0.0
 10
1046.5445
 20
1176.6689
 30
0.0
  0
SPLINE
  5
82
330
1F
100
AcDbEntity
  8
#Layer 1
 62
   250
370
    18
100
AcDbSpline
210
0.0
220
0.0
230
1.0
 70
    11
 71
     3
 72
    36
 73
    32
 74
     0
 42
0.0000000001
 43
0.0000000001
 40
0.0
 40
0.0
 40
0.0
 40
0.0
 40
0.125
 40
0.125
 40
0.125
 40
0.125
 40
0.25
 40
0.25
 40
0.25
 40
0.25
 40
0.375
 40
0.375
 40
0.375
 40
0.375
 40
0.5
 40
0.5
 40
0.5
 40
0.5
 40
0.625
 40
0.625
 40
0.625
 40
0.625
 40
0.75
 40
0.75
 40
0.75
 40
0.75
 40
0.875
 40
0.875
 40
0.875
 40
0.875
 40
1.0
 40
1.0
 40
1.0
 40
1.0
 10
913.0429
 20
1198.8753
 30
0.0
 10
913.0429
 20
1198.8753
 30
0.0
 10
913.0429
 20
1198.8753
 30
0.0
 10
913.0429
 20
1198.8753
 30
0.0
 10
913.0429
 20
1198.8753
 30
0.0
 10
913.0429
 20
1198.8753
 30
0.0
 10
908.6903
 20
1197.0838
 30
0.0
 10
908.6903
 20
1197.0838
 30
0.0
 10
908.6903
 20
1197.0838
 30
0.0
 10
900.7643
 20
1193.8214
 30
0.0
 10
893.9779
 20
1188.2421
 30
0.0
 10
888.6918
 20
1181.5178
 30
0.0
 10
888.6918
 20
1181.5178
 30
0.0
 10
887.9136
 20
1183.5772
 30
0.0
 10
885.9238
 20
1185.0416
 30
0.0
 10
883.592
 20
1185.0416
 30
0.0
 10
883.592
 20
1185.0416
 30
0.0
 10
882.8696
 20
1185.0416
 30
0.0
 10
882.18
 20
1184.9011
 30
0.0
 10
881.5491
 20
1184.6458
 30
0.0
 10
881.5491
 20
1184.6458
 30
0.0
 10
882.3499
 20
1189.6768
 30
0.0
 10
880.9229
 20
1194.7112
 30
0.0
 10
877.8804
 20
1198.7598
 30
0.0
 10
877.8804
 20
1198.7598
 30
0.0
 10
888.0317
 20
1198.7376
 30
0.0
 10
898.183
 20
1198.5928
 30
0.0
 10
908.3249
 20
1198.7856
 30
0.0
 10
908.3249
 20
1198.7856
 30
0.0
 10
908.3249
 20
1198.7856
 30
0.0
 10
913.0429
 20
1198.8753
 30
0.0
 10
913.0429
 20
1198.8753
 30
0.0
  0
SPLINE
  5
83
330
1F
100
AcDbEntity
  8
#Layer 1
 62
   250
370
    18
100
AcDbSpline
210
0.0
220
0.0
230
1.0
 70
    11
 71
     3
 72
    56
 73
    52
 74
     0
 42
0.0000000001
 43
0.0000000001
 40
0.0
 40
0.0
 40
0.0
 40
0.0
 40
0.0769230769230769
 40
0.0769230769230769
 40
0.0769230769230769
 40
0.0769230769230769
 40
0.1538461538461539
 40
0.1538461538461539
 40
0.1538461538461539
 40
0.1538461538461539
 40
0.2307692307692308
 40
0.2307692307692308
 40
0.2307692307692308
 40
0.2307692307692308
 40
0.3076923076923077
 40
0.3076923076923077
 40
0.3076923076923077
 40
0.3076923076923077
 40
0.3846153846153846
 40
0.3846153846153846
 40
0.3846153846153846
 40
0.3846153846153846
 40
0.4615384615384616
 40
0.4615384615384616
 40
0.4615384615384616
 40
0.4615384615384616
 40
0.5384615384615385
 40
0.5384615384615385
 40
0.5384615384615385
 40
0.5384615384615385
 40
0.6153846153846154
 40
0.6153846153846154
 40
0.6153846153846154
 40
0.6153846153846154
 40
0.6923076923076923
 40
0.6923076923076923
 40
0.6923076923076923
 40
0.6923076923076923
 40
0.7692307692307692
 40
0.7692307692307692
 40
0.7692307692307692
 40
0.7692307692307692
 40
0.846153846153846
 40
0.846153846153846
 40
0.846153846153846
 40
0.846153846153846
 40
0.9230769230769229
 40
0.9230769230769229
 40
0.9230769230769229
 40
0.9230769230769229
 40
1.0
 40
1.0
 40
1.0
 40
1.0
 10
1008.1306
 20
1198.7719
 30
0.0
 10
1008.1306
 20
1198.7719
 30
0.0
 10
1008.1306
 20
1198.7719
 30
0.0
 10
1008.1306
 20
1198.7719
 30
0.0
 10
1008.1306
 20
1198.7719
 30
0.0
 10
1008.0775
 20
1198.6486
 30
0.0
 10
1008.0249
 20
1198.5249
 30
0.0
 10
1007.973
 20
1198.4005
 30
0.0
 10
1007.973
 20
1198.4005
 30
0.0
 10
1006.0036
 20
1194.0451
 30
0.0
 10
1005.2985
 20
1187.6661
 30
0.0
 10
1008.3946
 20
1184.1155
 30
0.0
 10
1008.3946
 20
1184.1155
 30
0.0
 10
1012.0926
 20
1179.8746
 30
0.0
 10
1020.2893
 20
1180.8216
 30
0.0
 10
1021.7908
 20
1186.6753
 30
0.0
 10
1021.7908
 20
1186.6753
 30
0.0
 10
1021.8565
 20
1186.9315
 30
0.0
 10
1021.908
 20
1187.1943
 30
0.0
 10
1021.9442
 20
1187.4628
 30
0.0
 10
1021.9442
 20
1187.4628
 30
0.0
 10
1022.1553
 20
1189.0289
 30
0.0
 10
1021.8763
 20
1190.4254
 30
0.0
 10
1021.0795
 20
1191.7901
 30
0.0
 10
1021.0795
 20
1191.7901
 30
0.0
 10
1021.0854
 20
1191.7854
 30
0.0
 10
1021.0912
 20
1191.7808
 30
0.0
 10
1021.097
 20
1191.7761
 30
0.0
 10
1021.097
 20
1191.7761
 30
0.0
 10
1022.2113
 20
1191.2899
 30
0.0
 10
1023.0598
 20
1190.6536
 30
0.0
 10
1023.8388
 20
1189.7203
 30
0.0
 10
1023.8388
 20
1189.7203
 30
0.0
 10
1026.4771
 20
1186.5593
 30
0.0
 10
1026.0534
 20
1181.8578
 30
0.0
 10
1022.8924
 20
1179.2194
 30
0.0
 10
1022.8924
 20
1179.2194
 30
0.0
 10
1019.1309
 20
1176.0279
 30
0.0
 10
1012.2402
 20
1176.9154
 30
0.0
 10
1008.0388
 20
1177.9771
 30
0.0
 10
1008.0388
 20
1177.9771
 30
0.0
 10
1003.8544
 20
1179.0344
 30
0.0
 10
999.7995
 20
1180.8194
 30
0.0
 10
995.8944
 20
1182.5374
 30
0.0
 10
995.8944
 20
1182.5374
 30
0.0
 10
982.5348
 20
1188.7461
 30
0.0
 10
969.006
 20
1194.7012
 30
0.0
 10
954.7767
 20
1198.6269
 30
0.0
 10
954.7767
 20
1198.6269
 30
0.0
 10
972.5573
 20
1198.8685
 30
0.0
 10
990.35
 20
1198.5665
 30
0.0
 10
1008.1306
 20
1198.7719
 30
0.0
  0
SPLINE
  5
84
330
1F
100
AcDbEntity
  8
#Layer 1
 62
   250
370
    18
100
AcDbSpline
210
0.0
220
0.0
230
1.0
 70
    11
 71
     3
 72
    56
 73
    52
 74
     0
 42
0.0000000001
 43
0.0000000001
 40
0.0
 40
0.0
 40
0.0
 40
0.0
 40
0.0769230769230769
 40
0.0769230769230769
 40
0.0769230769230769
 40
0.0769230769230769
 40
0.1538461538461539
 40
0.1538461538461539
 40
0.1538461538461539
 40
0.1538461538461539
 40
0.2307692307692308
 40
0.2307692307692308
 40
0.2307692307692308
 40
0.2307692307692308
 40
0.3076923076923077
 40
0.3076923076923077
 40
0.3076923076923077
 40
0.3076923076923077
 40
0.3846153846153846
 40
0.3846153846153846
 40
0.3846153846153846
 40
0.3846153846153846
 40
0.4615384615384616
 40
0.4615384615384616
 40
0.4615384615384616
 40
0.4615384615384616
 40
0.5384615384615385
 40
0.5384615384615385
 40
0.5384615384615385
 40
0.5384615384615385
 40
0.6153846153846154
 40
0.6153846153846154
 40
0.6153846153846154
 40
0.6153846153846154
 40
0.6923076923076923
 40
0.6923076923076923
 40
0.6923076923076923
 40
0.6923076923076923
 40
0.7692307692307692
 40
0.7692307692307692
 40
0.7692307692307692
 40
0.7692307692307692
 40
0.846153846153846
 40
0.846153846153846
 40
0.846153846153846
 40
0.846153846153846
 40
0.9230769230769229
 40
0.9230769230769229
 40
0.9230769230769229
 40
0.9230769230769229
 40
1.0
 40
1.0
 40
1.0
 40
1.0
 10
808.7929
 20
1198.7832
 30
0.0
 10
808.7929
 20
1198.7832
 30
0.0
 10
808.7929
 20
1198.7832
 30
0.0
 10
808.7929
 20
1198.7832
 30
0.0
 10
808.7929
 20
1198.7832
 30
0.0
 10
808.7929
 20
1198.7832
 30
0.0
 10
820.8282
 20
1198.7261
 30
0.0
 10
820.8282
 20
1198.7261
 30
0.0
 10
820.8282
 20
1198.7261
 30
0.0
 10
835.026
 20
1198.6588
 30
0.0
 10
849.2238
 20
1198.7015
 30
0.0
 10
863.4216
 20
1198.7598
 30
0.0
 10
863.4216
 20
1198.7598
 30
0.0
 10
863.3552
 20
1198.3756
 30
0.0
 10
863.3024
 20
1197.9794
 30
0.0
 10
863.2666
 20
1197.5774
 30
0.0
 10
863.2666
 20
1197.5774
 30
0.0
 10
862.1812
 20
1194.3803
 30
0.0
 10
863.893
 20
1190.9085
 30
0.0
 10
867.0901
 20
1189.823
 30
0.0
 10
867.0901
 20
1189.823
 30
0.0
 10
870.2872
 20
1188.7376
 30
0.0
 10
873.759
 20
1190.4495
 30
0.0
 10
874.8444
 20
1193.6465
 30
0.0
 10
874.8444
 20
1193.6465
 30
0.0
 10
874.9228
 20
1193.8775
 30
0.0
 10
874.978
 20
1194.0763
 30
0.0
 10
875.0297
 20
1194.3146
 30
0.0
 10
875.0297
 20
1194.3146
 30
0.0
 10
876.1172
 20
1192.7285
 30
0.0
 10
876.7419
 20
1191.0527
 30
0.0
 10
876.9086
 20
1189.2673
 30
0.0
 10
876.9086
 20
1189.2673
 30
0.0
 10
877.3598
 20
1184.4334
 30
0.0
 10
875.5081
 20
1181.2526
 30
0.0
 10
872.5934
 20
1179.4176
 30
0.0
 10
872.5934
 20
1179.4176
 30
0.0
 10
864.2707
 20
1174.1781
 30
0.0
 10
851.5852
 20
1180.5772
 30
0.0
 10
844.0975
 20
1183.9952
 30
0.0
 10
844.0975
 20
1183.9952
 30
0.0
 10
843.8024
 20
1184.1299
 30
0.0
 10
843.5075
 20
1184.2642
 30
0.0
 10
843.2131
 20
1184.3976
 30
0.0
 10
843.2131
 20
1184.3976
 30
0.0
 10
833.5102
 20
1188.8347
 30
0.0
 10
824.0436
 20
1194.0295
 30
0.0
 10
813.8361
 20
1197.2112
 30
0.0
 10
813.8361
 20
1197.2112
 30
0.0
 10
813.8361
 20
1197.2112
 30
0.0
 10
808.7929
 20
1198.7832
 30
0.0
 10
808.7929
 20
1198.7832
 30
0.0
  0
SPLINE
  5
85
330
1F
100
AcDbEntity
  8
#Layer 1
 62
   250
370
    18
100
AcDbSpline
210
0.0
220
0.0
230
1.0
 70
    11
 71
     3
 72
    64
 73
    60
 74
     0
 42
0.0000000001
 43
0.0000000001
 40
0.0
 40
0.0
 40
0.0
 40
0.0
 40
0.0666666666666667
 40
0.0666666666666667
 40
0.0666666666666667
 40
0.0666666666666667
 40
0.1333333333333333
 40
0.1333333333333333
 40
0.1333333333333333
 40
0.1333333333333333
 40
0.2
 40
0.2
 40
0.2
 40
0.2
 40
0.2666666666666667
 40
0.2666666666666667
 40
0.2666666666666667
 40
0.2666666666666667
 40
0.3333333333333333
 40
0.3333333333333333
 40
0.3333333333333333
 40
0.3333333333333333
 40
0.4
 40
0.4
 40
0.4
 40
0.4
 40
0.4666666666666666
 40
0.4666666666666666
 40
0.4666666666666666
 40
0.4666666666666666
 40
0.5333333333333333
 40
0.5333333333333333
 40
0.5333333333333333
 40
0.5333333333333333
 40
0.6
 40
0.6
 40
0.6
 40
0.6
 40
0.6666666666666666
 40
0.6666666666666666
 40
0.6666666666666666
 40
0.6666666666666666
 40
0.7333333333333333
 40
0.7333333333333333
 40
0.7333333333333333
 40
0.7333333333333333
 40
0.7999999999999999
 40
0.7999999999999999
 40
0.7999999999999999
 40
0.7999999999999999
 40
0.8666666666666666
 40
0.8666666666666666
 40
0.8666666666666666
 40
0.8666666666666666
 40
0.9333333333333332
 40
0.9333333333333332
 40
0.9333333333333332
 40
0.9333333333333332
 40
1.0
 40
1.0
 40
1.0
 40
1.0
 10
765.7491
 20
1198.6269
 30
0.0
 10
765.7491
 20
1198.6269
 30
0.0
 10
765.7491
 20
1198.6269
 30
0.0
 10
765.7491
 20
1198.6269
 30
0.0
 10
765.7491
 20
1198.6269
 30
0.0
 10
765.7197
 20
1198.611
 30
0.0
 10
765.6902
 20
1198.5952
 30
0.0
 10
765.6608
 20
1198.5793
 30
0.0
 10
765.6608
 20
1198.5793
 30
0.0
 10
751.433
 20
1193.5501
 30
0.0
 10
741.5042
 20
1182.9883
 30
0.0
 10
737.3629
 20
1168.4772
 30
0.0
 10
737.3629
 20
1168.4772
 30
0.0
 10
737.3151
 20
1168.6056
 30
0.0
 10
737.2656
 20
1168.7339
 30
0.0
 10
737.2145
 20
1168.8621
 30
0.0
 10
737.2145
 20
1168.8621
 30
0.0
 10
735.0828
 20
1174.2084
 30
0.0
 10
730.0217
 20
1178.8253
 30
0.0
 10
723.7677
 20
1177.0941
 30
0.0
 10
723.7677
 20
1177.0941
 30
0.0
 10
723.0802
 20
1176.9038
 30
0.0
 10
722.4056
 20
1176.6378
 30
0.0
 10
721.7682
 20
1176.3041
 30
0.0
 10
721.7682
 20
1176.3041
 30
0.0
 10
718.2798
 20
1174.7847
 30
0.0
 10
716.6836
 20
1170.725
 30
0.0
 10
718.2029
 20
1167.2367
 30
0.0
 10
718.2029
 20
1167.2367
 30
0.0
 10
719.7223
 20
1163.7484
 30
0.0
 10
723.782
 20
1162.1521
 30
0.0
 10
727.2703
 20
1163.6715
 30
0.0
 10
727.2703
 20
1163.6715
 30
0.0
 10
728.2495
 20
1164.098
 30
0.0
 10
728.9994
 20
1164.6462
 30
0.0
 10
729.7029
 20
1165.4499
 30
0.0
 10
729.7029
 20
1165.4499
 30
0.0
 10
730.5909
 20
1161.0068
 30
0.0
 10
728.5094
 20
1156.7053
 30
0.0
 10
724.4742
 20
1154.6446
 30
0.0
 10
724.4742
 20
1154.6446
 30
0.0
 10
722.8754
 20
1153.7868
 30
0.0
 10
721.0407
 20
1153.2305
 30
0.0
 10
719.1614
 20
1152.9252
 30
0.0
 10
719.1614
 20
1152.9252
 30
0.0
 10
709.2229
 20
1151.3102
 30
0.0
 10
701.1744
 20
1156.2982
 30
0.0
 10
697.0753
 20
1164.0351
 30
0.0
 10
697.0753
 20
1164.0351
 30
0.0
 10
694.1934
 20
1169.4745
 30
0.0
 10
693.3235
 20
1176.1663
 30
0.0
 10
694.8499
 20
1182.1149
 30
0.0
 10
694.8499
 20
1182.1149
 30
0.0
 10
699.9798
 20
1202.1069
 30
0.0
 10
726.91
 20
1198.717
 30
0.0
 10
741.5903
 20
1198.7235
 30
0.0
 10
741.5903
 20
1198.7235
 30
0.0
 10
749.6455
 20
1198.7271
 30
0.0
 10
757.6991
 20
1198.6936
 30
0.0
 10
765.7491
 20
1198.6269
 30
0.0
  0
SPLINE
  5
86
330
1F
100
AcDbEntity
  8
#Layer 1
 62
   250
370
    18
100
AcDbSpline
210
0.0
220
0.0
230
1.0
 70
    11
 71
     3
 72
    20
 73
    16
 74
     0
 42
0.0000000001
 43
0.0000000001
 40
0.0
 40
0.0
 40
0.0
 40
0.0
 40
0.25
 40
0.25
 40
0.25
 40
0.25
 40
0.5
 40
0.5
 40
0.5
 40
0.5
 40
0.75
 40
0.75
 40
0.75
 40
0.75
 40
1.0
 40
1.0
 40
1.0
 40
1.0
 10
966.4213
 20
1164.3471
 30
0.0
 10
966.4213
 20
1164.3471
 30
0.0
 10
966.4213
 20
1164.3471
 30
0.0
 10
966.4213
 20
1164.3471
 30
0.0
 10
966.4213
 20
1164.3471
 30
0.0
 10
966.4212
 20
1164.3468
 30
0.0
 10
966.4211
 20
1164.3464
 30
0.0
 10
966.4211
 20
1164.3461
 30
0.0
 10
966.4211
 20
1164.3461
 30
0.0
 10
966.4212
 20
1164.3468
 30
0.0
 10
966.4213
 20
1164.3476
 30
0.0
 10
966.4215
 20
1164.3483
 30
0.0
 10
966.4215
 20
1164.3483
 30
0.0
 10
966.4214
 20
1164.3479
 30
0.0
 10
966.4214
 20
1164.3475
 30
0.0
 10
966.4213
 20
1164.3471
 30
0.0
  0
SPLINE
  5
87
330
1F
100
AcDbEntity
  8
#Layer 1
 62
   250
370
    18
100
AcDbSpline
210
0.0
220
0.0
230
1.0
 70
    11
 71
     3
 72
    92
 73
    88
 74
     0
 42
0.0000000001
 43
0.0000000001
 40
0.0
 40
0.0
 40
0.0
 40
0.0
 40
0.0454545454545455
 40
0.0454545454545455
 40
0.0454545454545455
 40
0.0454545454545455
 40
0.0909090909090909
 40
0.0909090909090909
 40
0.0909090909090909
 40
0.0909090909090909
 40
0.1363636363636364
 40
0.1363636363636364
 40
0.1363636363636364
 40
0.1363636363636364
 40
0.1818181818181818
 40
0.1818181818181818
 40
0.1818181818181818
 40
0.1818181818181818
 40
0.2272727272727273
 40
0.2272727272727273
 40
0.2272727272727273
 40
0.2272727272727273
 40
0.2727272727272728
 40
0.2727272727272728
 40
0.2727272727272728
 40
0.2727272727272728
 40
0.3181818181818182
 40
0.3181818181818182
 40
0.3181818181818182
 40
0.3181818181818182
 40
0.3636363636363637
 40
0.3636363636363637
 40
0.3636363636363637
 40
0.3636363636363637
 40
0.4090909090909092
 40
0.4090909090909092
 40
0.4090909090909092
 40
0.4090909090909092
 40
0.4545454545454546
 40
0.4545454545454546
 40
0.4545454545454546
 40
0.4545454545454546
 40
0.5000000000000001
 40
0.5000000000000001
 40
0.5000000000000001
 40
0.5000000000000001
 40
0.5454545454545455
 40
0.5454545454545455
 40
0.5454545454545455
 40
0.5454545454545455
 40
0.5909090909090909
 40
0.5909090909090909
 40
0.5909090909090909
 40
0.5909090909090909
 40
0.6363636363636364
 40
0.6363636363636364
 40
0.6363636363636364
 40
0.6363636363636364
 40
0.6818181818181818
 40
0.6818181818181818
 40
0.6818181818181818
 40
0.6818181818181818
 40
0.7272727272727272
 40
0.7272727272727272
 40
0.7272727272727272
 40
0.7272727272727272
 40
0.7727272727272726
 40
0.7727272727272726
 40
0.7727272727272726
 40
0.7727272727272726
 40
0.818181818181818
 40
0.818181818181818
 40
0.818181818181818
 40
0.818181818181818
 40
0.8636363636363634
 40
0.8636363636363634
 40
0.8636363636363634
 40
0.8636363636363634
 40
0.9090909090909088
 40
0.9090909090909088
 40
0.9090909090909088
 40
0.9090909090909088
 40
0.9545454545454543
 40
0.9545454545454543
 40
0.9545454545454543
 40
0.9545454545454543
 40
1.0
 40
1.0
 40
1.0
 40
1.0
 10
966.4213
 20
1164.3471
 30
0.0
 10
965.9402
 20
1161.1584
 30
0.0
 10
964.007
 20
1158.6692
 30
0.0
 10
961.0365
 20
1157.4136
 30
0.0
 10
961.0365
 20
1157.4136
 30
0.0
 10
956.4672
 20
1155.4823
 30
0.0
 10
951.1973
 20
1157.6209
 30
0.0
 10
949.266
 20
1162.1902
 30
0.0
 10
949.266
 20
1162.1902
 30
0.0
 10
947.7925
 20
1160.6491
 30
0.0
 10
947.0423
 20
1158.8075
 30
0.0
 10
947.0098
 20
1156.6517
 30
0.0
 10
947.0098
 20
1156.6517
 30
0.0
 10
946.9579
 20
1156.712
 30
0.0
 10
946.9056
 20
1156.7721
 30
0.0
 10
946.853
 20
1156.8319
 30
0.0
 10
946.853
 20
1156.8319
 30
0.0
 10
940.6421
 20
1164.8928
 30
0.0
 10
926.8339
 20
1167.6804
 30
0.0
 10
918.7761
 20
1161.7652
 30
0.0
 10
918.7761
 20
1161.7652
 30
0.0
 10
917.5613
 20
1160.8735
 30
0.0
 10
916.5217
 20
1159.818
 30
0.0
 10
915.6896
 20
1158.654
 30
0.0
 10
915.6896
 20
1158.654
 30
0.0
 10
911.2265
 20
1152.4104
 30
0.0
 10
914.0506
 20
1140.8241
 30
0.0
 10
923.6358
 20
1141.0584
 30
0.0
 10
923.6358
 20
1141.0584
 30
0.0
 10
925.3046
 20
1141.0992
 30
0.0
 10
927.0268
 20
1141.6621
 30
0.0
 10
928.6759
 20
1142.901
 30
0.0
 10
928.6759
 20
1142.901
 30
0.0
 10
930.3351
 20
1144.1477
 30
0.0
 10
931.6361
 20
1145.9489
 30
0.0
 10
932.3094
 20
1147.9425
 30
0.0
 10
932.3094
 20
1147.9425
 30
0.0
 10
937.8054
 20
1143.1833
 30
0.0
 10
935.1601
 20
1134.1118
 30
0.0
 10
929.3016
 20
1130.8987
 30
0.0
 10
929.3016
 20
1130.8987
 30
0.0
 10
920.363
 20
1125.8134
 30
0.0
 10
907.8127
 20
1128.4587
 30
0.0
 10
901.5074
 20
1136.576
 30
0.0
 10
901.5074
 20
1136.576
 30
0.0
 10
896.0476
 20
1143.2799
 30
0.0
 10
896.6153
 20
1153.8613
 30
0.0
 10
902.3771
 20
1160.1788
 30
0.0
 10
902.3771
 20
1160.1788
 30
0.0
 10
907.1725
 20
1164.95
 30
0.0
 10
914.5409
 20
1163.1261
 30
0.0
 10
920.3751
 20
1165.397
 30
0.0
 10
920.3751
 20
1165.397
 30
0.0
 10
922.7053
 20
1166.7449
 30
0.0
 10
924.0651
 20
1169.544
 30
0.0
 10
923.9142
 20
1172.1574
 30
0.0
 10
923.9142
 20
1172.1574
 30
0.0
 10
923.5034
 20
1179.2678
 30
0.0
 10
913.4216
 20
1179.1413
 30
0.0
 10
908.8705
 20
1178.2281
 30
0.0
 10
908.8705
 20
1178.2281
 30
0.0
 10
906.0702
 20
1177.6662
 30
0.0
 10
903.3056
 20
1176.7319
 30
0.0
 10
900.7585
 20
1175.8334
 30
0.0
 10
900.7585
 20
1175.8334
 30
0.0
 10
907.9697
 20
1181.4744
 30
0.0
 10
918.0197
 20
1183.4313
 30
0.0
 10
926.5476
 20
1179.7471
 30
0.0
 10
926.5476
 20
1179.7471
 30
0.0
 10
933.8072
 20
1177.2104
 30
0.0
 10
938.8322
 20
1170.12
 30
0.0
 10
946.5749
 20
1168.8879
 30
0.0
 10
946.5749
 20
1168.8879
 30
0.0
 10
951.8052
 20
1169.6126
 30
0.0
 10
952.5904
 20
1176.5219
 30
0.0
 10
950.4886
 20
1180.3994
 30
0.0
 10
950.4886
 20
1180.3994
 30
0.0
 10
947.4809
 20
1185.9437
 30
0.0
 10
940.8856
 20
1187.3691
 30
0.0
 10
935.3171
 20
1188.9756
 30
0.0
 10
935.3171
 20
1188.9756
 30
0.0
 10
943.084
 20
1191.0895
 30
0.0
 10
951.769
 20
1189.6521
 30
0.0
 10
958.2193
 20
1184.7841
 30
0.0
 10
958.2193
 20
1184.7841
 30
0.0
 10
964.5002
 20
1180.2184
 30
0.0
 10
967.8461
 20
1171.9809
 30
0.0
 10
966.4213
 20
1164.3471
 30
0.0
  0
SPLINE
  5
88
330
1F
100
AcDbEntity
  8
#Layer 1
 62
   250
370
    18
100
AcDbSpline
210
0.0
220
0.0
230
1.0
 70
    11
 71
     3
 72
   100
 73
    96
 74
     0
 42
0.0000000001
 43
0.0000000001
 40
0.0
 40
0.0
 40
0.0
 40
0.0
 40
0.0416666666666667
 40
0.0416666666666667
 40
0.0416666666666667
 40
0.0416666666666667
 40
0.0833333333333333
 40
0.0833333333333333
 40
0.0833333333333333
 40
0.0833333333333333
 40
0.125
 40
0.125
 40
0.125
 40
0.125
 40
0.1666666666666667
 40
0.1666666666666667
 40
0.1666666666666667
 40
0.1666666666666667
 40
0.2083333333333333
 40
0.2083333333333333
 40
0.2083333333333333
 40
0.2083333333333333
 40
0.25
 40
0.25
 40
0.25
 40
0.25
 40
0.2916666666666666
 40
0.2916666666666666
 40
0.2916666666666666
 40
0.2916666666666666
 40
0.3333333333333333
 40
0.3333333333333333
 40
0.3333333333333333
 40
0.3333333333333333
 40
0.375
 40
0.375
 40
0.375
 40
0.375
 40
0.4166666666666667
 40
0.4166666666666667
 40
0.4166666666666667
 40
0.4166666666666667
 40
0.4583333333333334
 40
0.4583333333333334
 40
0.4583333333333334
 40
0.4583333333333334
 40
0.5
 40
0.5
 40
0.5
 40
0.5
 40
0.5416666666666666
 40
0.5416666666666666
 40
0.5416666666666666
 40
0.5416666666666666
 40
0.5833333333333333
 40
0.5833333333333333
 40
0.5833333333333333
 40
0.5833333333333333
 40
0.6249999999999999
 40
0.6249999999999999
 40
0.6249999999999999
 40
0.6249999999999999
 40
0.6666666666666665
 40
0.6666666666666665
 40
0.6666666666666665
 40
0.6666666666666665
 40
0.7083333333333331
 40
0.7083333333333331
 40
0.7083333333333331
 40
0.7083333333333331
 40
0.7499999999999998
 40
0.7499999999999998
 40
0.7499999999999998
 40
0.7499999999999998
 40
0.7916666666666664
 40
0.7916666666666664
 40
0.7916666666666664
 40
0.7916666666666664
 40
0.833333333333333
 40
0.833333333333333
 40
0.833333333333333
 40
0.833333333333333
 40
0.8749999999999997
 40
0.8749999999999997
 40
0.8749999999999997
 40
0.8749999999999997
 40
0.9166666666666663
 40
0.9166666666666663
 40
0.9166666666666663
 40
0.9166666666666663
 40
0.9583333333333329
 40
0.9583333333333329
 40
0.9583333333333329
 40
0.9583333333333329
 40
1.0
 40
1.0
 40
1.0
 40
1.0
 10
820.4704
 20
1165.8226
 30
0.0
 10
820.4704
 20
1165.8226
 30
0.0
 10
820.4704
 20
1165.8226
 30
0.0
 10
820.4704
 20
1165.8226
 30
0.0
 10
820.4704
 20
1165.8226
 30
0.0
 10
820.1906
 20
1162.8747
 30
0.0
 10
819.1298
 20
1160.1682
 30
0.0
 10
816.8685
 20
1158.482
 30
0.0
 10
816.8685
 20
1158.482
 30
0.0
 10
816.3825
 20
1158.1196
 30
0.0
 10
815.852
 20
1157.7988
 30
0.0
 10
815.2805
 20
1157.5253
 30
0.0
 10
815.2805
 20
1157.5253
 30
0.0
 10
810.7709
 20
1155.3666
 30
0.0
 10
805.3649
 20
1157.2724
 30
0.0
 10
803.2062
 20
1161.7821
 30
0.0
 10
803.2062
 20
1161.7821
 30
0.0
 10
802.562
 20
1160.139
 30
0.0
 10
802.0388
 20
1158.4551
 30
0.0
 10
801.5156
 20
1156.7603
 30
0.0
 10
801.5156
 20
1156.7603
 30
0.0
 10
795.5485
 20
1164.793
 30
0.0
 10
783.7109
 20
1167.3417
 30
0.0
 10
774.9051
 20
1162.6671
 30
0.0
 10
774.9051
 20
1162.6671
 30
0.0
 10
771.2196
 20
1160.7417
 30
0.0
 10
768.7157
 20
1156.9791
 30
0.0
 10
768.1047
 20
1152.9301
 30
0.0
 10
768.1047
 20
1152.9301
 30
0.0
 10
766.8984
 20
1147.7901
 30
0.0
 10
770.0875
 20
1142.6452
 30
0.0
 10
775.2275
 20
1141.439
 30
0.0
 10
775.2275
 20
1141.439
 30
0.0
 10
780.1046
 20
1140.2944
 30
0.0
 10
784.9809
 20
1143.0523
 30
0.0
 10
786.5132
 20
1147.8217
 30
0.0
 10
786.5132
 20
1147.8217
 30
0.0
 10
791.4174
 20
1142.7364
 30
0.0
 10
788.8807
 20
1134.0756
 30
0.0
 10
783.0707
 20
1130.8867
 30
0.0
 10
783.0707
 20
1130.8867
 30
0.0
 10
774.132
 20
1125.8496
 30
0.0
 10
761.7025
 20
1128.4467
 30
0.0
 10
755.3489
 20
1136.4914
 30
0.0
 10
755.3489
 20
1136.4914
 30
0.0
 10
749.8528
 20
1143.2195
 30
0.0
 10
750.3481
 20
1153.8734
 30
0.0
 10
756.1823
 20
1160.2271
 30
0.0
 10
756.1823
 20
1160.2271
 30
0.0
 10
760.5671
 20
1164.4306
 30
0.0
 10
767.0294
 20
1163.5006
 30
0.0
 10
772.4651
 20
1164.8534
 30
0.0
 10
772.4651
 20
1164.8534
 30
0.0
 10
776.0647
 20
1165.5661
 30
0.0
 10
778.2511
 20
1169.5885
 30
0.0
 10
777.7075
 20
1173.0431
 30
0.0
 10
777.7075
 20
1173.0431
 30
0.0
 10
776.8136
 20
1175.9301
 30
0.0
 10
774.0596
 20
1178.0198
 30
0.0
 10
771.1001
 20
1178.4184
 30
0.0
 10
771.1001
 20
1178.4184
 30
0.0
 10
765.894
 20
1179.1915
 30
0.0
 10
760.4825
 20
1178.2493
 30
0.0
 10
755.7112
 20
1176.0509
 30
0.0
 10
755.7112
 20
1176.0509
 30
0.0
 10
755.8683
 20
1176.2924
 30
0.0
 10
756.1823
 20
1176.7635
 30
0.0
 10
756.3394
 20
1177.0051
 30
0.0
 10
756.3394
 20
1177.0051
 30
0.0
 10
762.5239
 20
1181.4865
 30
0.0
 10
770.774
 20
1182.7548
 30
0.0
 10
778.0699
 20
1180.5806
 30
0.0
 10
778.0699
 20
1180.5806
 30
0.0
 10
784.2544
 20
1178.7808
 30
0.0
 10
789.0619
 20
1174.3356
 30
0.0
 10
794.4251
 20
1171.0138
 30
0.0
 10
794.4251
 20
1171.0138
 30
0.0
 10
797.0584
 20
1169.5522
 30
0.0
 10
800.5734
 20
1167.7162
 30
0.0
 10
803.2429
 20
1170.0837
 30
0.0
 10
803.2429
 20
1170.0837
 30
0.0
 10
806.6372
 20
1173.7437
 30
0.0
 10
805.7192
 20
1180.0008
 30
0.0
 10
802.1679
 20
1183.238
 30
0.0
 10
802.1679
 20
1183.238
 30
0.0
 10
798.6045
 20
1186.6081
 30
0.0
 10
793.6641
 20
1187.5503
 30
0.0
 10
789.1344
 20
1188.9756
 30
0.0
 10
789.1344
 20
1188.9756
 30
0.0
 10
792.0341
 20
1189.7792
 30
0.0
 10
795.0541
 20
1190.0764
 30
0.0
 10
798.0373
 20
1189.8805
 30
0.0
 10
798.0373
 20
1189.8805
 30
0.0
 10
812.5773
 20
1188.9258
 30
0.0
 10
821.6045
 20
1177.7707
 30
0.0
 10
820.4704
 20
1165.8226
 30
0.0
  0
SPLINE
  5
89
330
1F
100
AcDbEntity
  8
#Layer 1
 62
   250
370
    18
100
AcDbSpline
210
0.0
220
0.0
230
1.0
 70
    11
 71
     3
 72
    52
 73
    48
 74
     0
 42
0.0000000001
 43
0.0000000001
 40
0.0
 40
0.0
 40
0.0
 40
0.0
 40
0.0833333333333333
 40
0.0833333333333333
 40
0.0833333333333333
 40
0.0833333333333333
 40
0.1666666666666667
 40
0.1666666666666667
 40
0.1666666666666667
 40
0.1666666666666667
 40
0.25
 40
0.25
 40
0.25
 40
0.25
 40
0.3333333333333333
 40
0.3333333333333333
 40
0.3333333333333333
 40
0.3333333333333333
 40
0.4166666666666666
 40
0.4166666666666666
 40
0.4166666666666666
 40
0.4166666666666666
 40
0.4999999999999999
 40
0.4999999999999999
 40
0.4999999999999999
 40
0.4999999999999999
 40
0.5833333333333333
 40
0.5833333333333333
 40
0.5833333333333333
 40
0.5833333333333333
 40
0.6666666666666666
 40
0.6666666666666666
 40
0.6666666666666666
 40
0.6666666666666666
 40
0.75
 40
0.75
 40
0.75
 40
0.75
 40
0.8333333333333334
 40
0.8333333333333334
 40
0.8333333333333334
 40
0.8333333333333334
 40
0.9166666666666667
 40
0.9166666666666667
 40
0.9166666666666667
 40
0.9166666666666667
 40
1.0
 40
1.0
 40
1.0
 40
1.0
 10
853.5167
 20
1137.953
 30
0.0
 10
853.5167
 20
1137.953
 30
0.0
 10
853.5167
 20
1137.953
 30
0.0
 10
853.5167
 20
1137.953
 30
0.0
 10
853.5167
 20
1137.953
 30
0.0
 10
852.9248
 20
1130.0049
 30
0.0
 10
848.4071
 20
1122.5641
 30
0.0
 10
841.679
 20
1118.3122
 30
0.0
 10
841.679
 20
1118.3122
 30
0.0
 10
833.8154
 20
1113.4322
 30
0.0
 10
823.7897
 20
1111.6082
 30
0.0
 10
814.9115
 20
1114.6522
 30
0.0
 10
814.9115
 20
1114.6522
 30
0.0
 10
816.9886
 20
1114.9778
 30
0.0
 10
818.7382
 20
1116.0227
 30
0.0
 10
820.0609
 20
1117.4737
 30
0.0
 10
820.0609
 20
1117.4737
 30
0.0
 10
824.3865
 20
1122.4053
 30
0.0
 10
823.8951
 20
1129.9099
 30
0.0
 10
818.9636
 20
1134.2354
 30
0.0
 10
818.9636
 20
1134.2354
 30
0.0
 10
814.2722
 20
1138.3502
 30
0.0
 10
807.2882
 20
1138.1608
 30
0.0
 10
802.8268
 20
1133.7979
 30
0.0
 10
802.8268
 20
1133.7979
 30
0.0
 10
802.596
 20
1133.6758
 30
0.0
 10
802.3682
 20
1133.5469
 30
0.0
 10
802.1437
 20
1133.4112
 30
0.0
 10
802.1437
 20
1133.4112
 30
0.0
 10
804.1489
 20
1137.8443
 30
0.0
 10
804.8253
 20
1142.7243
 30
0.0
 10
804.4871
 20
1147.556
 30
0.0
 10
804.4871
 20
1147.556
 30
0.0
 10
806.6157
 20
1145.6283
 30
0.0
 10
809.0929
 20
1143.9758
 30
0.0
 10
811.8056
 20
1143.0675
 30
0.0
 10
811.8056
 20
1143.0675
 30
0.0
 10
825.3908
 20
1138.5187
 30
0.0
 10
839.9238
 20
1150.8326
 30
0.0
 10
843.0912
 20
1163.7062
 30
0.0
 10
843.0912
 20
1163.7062
 30
0.0
 10
843.3357
 20
1164.5447
 30
0.0
 10
843.5422
 20
1165.3951
 30
0.0
 10
843.7083
 20
1166.2546
 30
0.0
 10
843.7083
 20
1166.2546
 30
0.0
 10
851.4511
 20
1159.1641
 30
0.0
 10
854.2535
 20
1148.1479
 30
0.0
 10
853.5167
 20
1137.953
 30
0.0
  0
SPLINE
  5
8A
330
1F
100
AcDbEntity
  8
#Layer 1
 62
   250
370
    18
100
AcDbSpline
210
0.0
220
0.0
230
1.0
 70
    11
 71
     3
 72
    44
 73
    40
 74
     0
 42
0.0000000001
 43
0.0000000001
 40
0.0
 40
0.0
 40
0.0
 40
0.0
 40
0.1
 40
0.1
 40
0.1
 40
0.1
 40
0.2
 40
0.2
 40
0.2
 40
0.2
 40
0.3
 40
0.3
 40
0.3
 40
0.3
 40
0.4
 40
0.4
 40
0.4
 40
0.4
 40
0.5
 40
0.5
 40
0.5
 40
0.5
 40
0.6
 40
0.6
 40
0.6
 40
0.6
 40
0.7
 40
0.7
 40
0.7
 40
0.7
 40
0.7999999999999999
 40
0.7999999999999999
 40
0.7999999999999999
 40
0.7999999999999999
 40
0.8999999999999999
 40
0.8999999999999999
 40
0.8999999999999999
 40
0.8999999999999999
 40
1.0
 40
1.0
 40
1.0
 40
1.0
 10
960.3417
 20
1115.0465
 30
0.0
 10
960.3417
 20
1115.0465
 30
0.0
 10
960.3417
 20
1115.0465
 30
0.0
 10
960.3417
 20
1115.0465
 30
0.0
 10
960.3417
 20
1115.0465
 30
0.0
 10
960.0402
 20
1115.0403
 30
0.0
 10
959.7394
 20
1115.0368
 30
0.0
 10
959.4396
 20
1115.0356
 30
0.0
 10
959.4396
 20
1115.0356
 30
0.0
 10
963.9804
 20
1118.4921
 30
0.0
 10
964.8595
 20
1124.9755
 30
0.0
 10
961.403
 20
1129.5163
 30
0.0
 10
961.403
 20
1129.5163
 30
0.0
 10
958.1596
 20
1133.7772
 30
0.0
 10
952.3011
 20
1134.8625
 30
0.0
 10
947.7466
 20
1132.0463
 30
0.0
 10
947.7466
 20
1132.0463
 30
0.0
 10
950.1141
 20
1136.8659
 30
0.0
 10
951.0684
 20
1142.2532
 30
0.0
 10
950.4886
 20
1147.5922
 30
0.0
 10
950.4886
 20
1147.5922
 30
0.0
 10
957.4825
 20
1141.6009
 30
0.0
 10
968.0156
 20
1142.1928
 30
0.0
 10
975.4684
 20
1147.0124
 30
0.0
 10
975.4684
 20
1147.0124
 30
0.0
 10
982.1241
 20
1150.8536
 30
0.0
 10
986.2069
 20
1157.7388
 30
0.0
 10
988.4657
 20
1164.9017
 30
0.0
 10
988.4657
 20
1164.9017
 30
0.0
 10
988.582
 20
1164.683
 30
0.0
 10
988.6956
 20
1164.4632
 30
0.0
 10
988.8064
 20
1164.2425
 30
0.0
 10
988.8064
 20
1164.2425
 30
0.0
 10
994.4604
 20
1152.9871
 30
0.0
 10
993.1449
 20
1137.9224
 30
0.0
 10
986.3874
 20
1127.399
 30
0.0
 10
986.3874
 20
1127.399
 30
0.0
 10
980.3269
 20
1117.9608
 30
0.0
 10
970.7864
 20
1115.2576
 30
0.0
 10
960.3417
 20
1115.0465
 30
0.0
  0
SPLINE
  5
8B
330
1F
100
AcDbEntity
  8
#Layer 1
 62
   250
370
    18
100
AcDbSpline
210
0.0
220
0.0
230
1.0
 70
    11
 71
     3
 72
    24
 73
    20
 74
     0
 42
0.0000000001
 43
0.0000000001
 40
0.0
 40
0.0
 40
0.0
 40
0.0
 40
0.2
 40
0.2
 40
0.2
 40
0.2
 40
0.4
 40
0.4
 40
0.4
 40
0.4
 40
0.6000000000000001
 40
0.6000000000000001
 40
0.6000000000000001
 40
0.6000000000000001
 40
0.8
 40
0.8
 40
0.8
 40
0.8
 40
1.0
 40
1.0
 40
1.0
 40
1.0
 10
1126.362
 20
1153.4989
 30
0.0
 10
1126.362
 20
1153.4989
 30
0.0
 10
1126.362
 20
1153.4989
 30
0.0
 10
1126.362
 20
1153.4989
 30
0.0
 10
1126.362
 20
1153.4989
 30
0.0
 10
1118.6986
 20
1145.2211
 30
0.0
 10
1106.7167
 20
1139.7121
 30
0.0
 10
1095.4229
 20
1141.7588
 30
0.0
 10
1095.4229
 20
1141.7588
 30
0.0
 10
1093.006
 20
1142.1968
 30
0.0
 10
1089.4475
 20
1144.669
 30
0.0
 10
1092.0387
 20
1147.4914
 30
0.0
 10
1092.0387
 20
1147.4914
 30
0.0
 10
1094.4048
 20
1150.0685
 30
0.0
 10
1099.0064
 20
1149.5499
 30
0.0
 10
1102.3606
 20
1149.8873
 30
0.0
 10
1102.3606
 20
1149.8873
 30
0.0
 10
1110.4899
 20
1150.1168
 30
0.0
 10
1118.5467
 20
1151.2401
 30
0.0
 10
1126.362
 20
1153.4989
 30
0.0
  0
SPLINE
  5
8C
330
1F
100
AcDbEntity
  8
#Layer 1
 62
   250
370
    18
100
AcDbSpline
210
0.0
220
0.0
230
1.0
 70
    11
 71
     3
 72
    32
 73
    28
 74
     0
 42
0.0000000001
 43
0.0000000001
 40
0.0
 40
0.0
 40
0.0
 40
0.0
 40
0.1428571428571428
 40
0.1428571428571428
 40
0.1428571428571428
 40
0.1428571428571428
 40
0.2857142857142857
 40
0.2857142857142857
 40
0.2857142857142857
 40
0.2857142857142857
 40
0.4285714285714285
 40
0.4285714285714285
 40
0.4285714285714285
 40
0.4285714285714285
 40
0.5714285714285714
 40
0.5714285714285714
 40
0.5714285714285714
 40
0.5714285714285714
 40
0.7142857142857142
 40
0.7142857142857142
 40
0.7142857142857142
 40
0.7142857142857142
 40
0.857142857142857
 40
0.857142857142857
 40
0.857142857142857
 40
0.857142857142857
 40
1.0
 40
1.0
 40
1.0
 40
1.0
 10
1137.1729
 20
1147.6768
 30
0.0
 10
1137.1729
 20
1147.6768
 30
0.0
 10
1137.1729
 20
1147.6768
 30
0.0
 10
1137.1729
 20
1147.6768
 30
0.0
 10
1137.1729
 20
1147.6768
 30
0.0
 10
1134.1426
 20
1134.3322
 30
0.0
 10
1126.7741
 20
1121.7488
 30
0.0
 10
1115.6489
 20
1113.6474
 30
0.0
 10
1115.6489
 20
1113.6474
 30
0.0
 10
1112.5574
 20
1111.3962
 30
0.0
 10
1106.2498
 20
1107.5478
 30
0.0
 10
1102.1479
 20
1109.8465
 30
0.0
 10
1102.1479
 20
1109.8465
 30
0.0
 10
1100.5199
 20
1110.7589
 30
0.0
 10
1099.1725
 20
1112.5488
 30
0.0
 10
1099.1818
 20
1114.3801
 30
0.0
 10
1099.1818
 20
1114.3801
 30
0.0
 10
1099.2003
 20
1118.0534
 30
0.0
 10
1106.2869
 20
1121.5289
 30
0.0
 10
1110.555
 20
1123.5045
 30
0.0
 10
1110.555
 20
1123.5045
 30
0.0
 10
1123.3983
 20
1129.4493
 30
0.0
 10
1127.6165
 20
1135.17
 30
0.0
 10
1136.0647
 20
1146.2319
 30
0.0
 10
1136.0647
 20
1146.2319
 30
0.0
 10
1136.4341
 20
1146.7155
 30
0.0
 10
1136.8032
 20
1147.1975
 30
0.0
 10
1137.1729
 20
1147.6768
 30
0.0
  0
SPLINE
  5
8D
330
1F
100
AcDbEntity
  8
#Layer 1
 62
   250
370
    18
100
AcDbSpline
210
0.0
220
0.0
230
1.0
 70
    11
 71
     3
 72
    40
 73
    36
 74
     0
 42
0.0000000001
 43
0.0000000001
 40
0.0
 40
0.0
 40
0.0
 40
0.0
 40
0.1111111111111111
 40
0.1111111111111111
 40
0.1111111111111111
 40
0.1111111111111111
 40
0.2222222222222222
 40
0.2222222222222222
 40
0.2222222222222222
 40
0.2222222222222222
 40
0.3333333333333333
 40
0.3333333333333333
 40
0.3333333333333333
 40
0.3333333333333333
 40
0.4444444444444444
 40
0.4444444444444444
 40
0.4444444444444444
 40
0.4444444444444444
 40
0.5555555555555556
 40
0.5555555555555556
 40
0.5555555555555556
 40
0.5555555555555556
 40
0.6666666666666667
 40
0.6666666666666667
 40
0.6666666666666667
 40
0.6666666666666667
 40
0.7777777777777779
 40
0.7777777777777779
 40
0.7777777777777779
 40
0.7777777777777779
 40
0.8888888888888891
 40
0.8888888888888891
 40
0.8888888888888891
 40
0.8888888888888891
 40
1.0
 40
1.0
 40
1.0
 40
1.0
 10
998.89
 20
1140.8399
 30
0.0
 10
998.89
 20
1140.8399
 30
0.0
 10
998.89
 20
1140.8399
 30
0.0
 10
998.89
 20
1140.8399
 30
0.0
 10
998.89
 20
1140.8399
 30
0.0
 10
998.8733
 20
1140.6204
 30
0.0
 10
998.8551
 20
1140.401
 30
0.0
 10
998.8355
 20
1140.1816
 30
0.0
 10
998.8355
 20
1140.1816
 30
0.0
 10
997.4327
 20
1124.5483
 30
0.0
 10
987.0531
 20
1104.7224
 30
0.0
 10
968.3624
 20
1106.3448
 30
0.0
 10
968.3624
 20
1106.3448
 30
0.0
 10
966.3391
 20
1106.5204
 30
0.0
 10
964.3374
 20
1106.956
 30
0.0
 10
962.4229
 20
1107.6583
 30
0.0
 10
962.4229
 20
1107.6583
 30
0.0
 10
958.4604
 20
1109.3252
 30
0.0
 10
958.122
 20
1110.5221
 30
0.0
 10
961.381
 20
1110.3101
 30
0.0
 10
961.381
 20
1110.3101
 30
0.0
 10
972.3413
 20
1109.597
 30
0.0
 10
983.4918
 20
1113.1506
 30
0.0
 10
990.1248
 20
1122.254
 30
0.0
 10
990.1248
 20
1122.254
 30
0.0
 10
993.5252
 20
1126.921
 30
0.0
 10
995.9242
 20
1132.871
 30
0.0
 10
997.9495
 20
1139.9831
 30
0.0
 10
997.9495
 20
1139.9831
 30
0.0
 10
998.039
 20
1140.2973
 30
0.0
 10
998.127
 20
1140.6112
 30
0.0
 10
998.2136
 20
1140.9245
 30
0.0
 10
998.2136
 20
1140.9245
 30
0.0
 10
998.3827
 20
1140.9003
 30
0.0
 10
998.7209
 20
1140.852
 30
0.0
 10
998.89
 20
1140.8399
 30
0.0
  0
SPLINE
  5
8E
330
1F
100
AcDbEntity
  8
#Layer 1
 62
   250
370
    18
100
AcDbSpline
210
0.0
220
0.0
230
1.0
 70
    11
 71
     3
 72
    28
 73
    24
 74
     0
 42
0.0000000001
 43
0.0000000001
 40
0.0
 40
0.0
 40
0.0
 40
0.0
 40
0.1666666666666667
 40
0.1666666666666667
 40
0.1666666666666667
 40
0.1666666666666667
 40
0.3333333333333333
 40
0.3333333333333333
 40
0.3333333333333333
 40
0.3333333333333333
 40
0.5
 40
0.5
 40
0.5
 40
0.5
 40
0.6666666666666666
 40
0.6666666666666666
 40
0.6666666666666666
 40
0.6666666666666666
 40
0.8333333333333333
 40
0.8333333333333333
 40
0.8333333333333333
 40
0.8333333333333333
 40
1.0
 40
1.0
 40
1.0
 40
1.0
 10
873.242
 20
1110.7023
 30
0.0
 10
873.242
 20
1110.7023
 30
0.0
 10
873.242
 20
1110.7023
 30
0.0
 10
873.242
 20
1110.7023
 30
0.0
 10
873.242
 20
1110.7023
 30
0.0
 10
877.3852
 20
1106.0518
 30
0.0
 10
882.8208
 20
1102.9112
 30
0.0
 10
888.2685
 20
1100.0243
 30
0.0
 10
888.2685
 20
1100.0243
 30
0.0
 10
868.2291
 20
1100.2054
 30
0.0
 10
848.2018
 20
1100.0605
 30
0.0
 10
828.1744
 20
1100.0847
 30
0.0
 10
828.1744
 20
1100.0847
 30
0.0
 10
835.2166
 20
1101.6187
 30
0.0
 10
842.3554
 20
1103.6239
 30
0.0
 10
848.1776
 20
1108.0569
 30
0.0
 10
848.1776
 20
1108.0569
 30
0.0
 10
855.86
 20
1113.2752
 30
0.0
 10
860.0877
 20
1122.1292
 30
0.0
 10
861.7184
 20
1131.0437
 30
0.0
 10
861.7184
 20
1131.0437
 30
0.0
 10
864.4242
 20
1123.7116
 30
0.0
 10
867.601
 20
1116.295
 30
0.0
 10
873.242
 20
1110.7023
 30
0.0
  0
SPLINE
  5
8F
330
1F
100
AcDbEntity
  8
#Layer 1
 62
   250
370
    18
100
AcDbSpline
210
0.0
220
0.0
230
1.0
 70
    11
 71
     3
 72
    20
 73
    16
 74
     0
 42
0.0000000001
 43
0.0000000001
 40
0.0
 40
0.0
 40
0.0
 40
0.0
 40
0.25
 40
0.25
 40
0.25
 40
0.25
 40
0.5
 40
0.5
 40
0.5
 40
0.5
 40
0.75
 40
0.75
 40
0.75
 40
0.75
 40
1.0
 40
1.0
 40
1.0
 40
1.0
 10
1005.1712
 20
1115.6548
 30
0.0
 10
1005.1712
 20
1115.6548
 30
0.0
 10
1005.1712
 20
1115.6548
 30
0.0
 10
1005.1712
 20
1115.6548
 30
0.0
 10
1005.1712
 20
1115.6548
 30
0.0
 10
1006.9106
 20
1108.9266
 30
0.0
 10
1010.2686
 20
1102.7783
 30
0.0
 10
1014.1461
 20
1097.0769
 30
0.0
 10
1014.1461
 20
1097.0769
 30
0.0
 10
1003.8425
 20
1102.0173
 30
0.0
 10
992.1619
 20
1099.1304
 30
0.0
 10
981.194
 20
1100.0605
 30
0.0
 10
981.194
 20
1100.0605
 30
0.0
 10
990.2775
 20
1103.1286
 30
0.0
 10
1000.0375
 20
1106.994
 30
0.0
 10
1005.1712
 20
1115.6548
 30
0.0
  0
ENDSEC
  0
SECTION
  2
OBJECTS
  0
DICTIONARY
  5
C
330
0
100
AcDbDictionary
281
     1
  3
ACAD_GROUP
350
D
  3
ACAD_LAYOUT
350
1A
  3
ACAD_MLEADERSTYLE
350
91
  3
ACAD_MLINESTYLE
350
17
  3
ACAD_PLOTSETTINGS
350
19
  3
ACAD_PLOTSTYLENAME
350
E
  3
ACAD_SCALELIST
350
3B
  3
ACAD_TABLESTYLE
350
90
  3
ACAD_VISUALSTYLE
350
2A
  0
DICTIONARY
  5
D
102
{ACAD_REACTORS
330
C
102
}
330
C
100
AcDbDictionary
281
     1
  0
DICTIONARY
  5
1A
102
{ACAD_REACTORS
330
C
102
}
330
C
100
AcDbDictionary
281
     1
  3
Layout1
350
1E
  3
Layout2
350
26
  3
Model
350
22
  0
DICTIONARY
  5
91
102
{ACAD_REACTORS
330
C
102
}
330
C
100
AcDbDictionary
281
     1
  0
DICTIONARY
  5
17
102
{ACAD_REACTORS
330
C
102
}
330
C
100
AcDbDictionary
281
     1
  3
Standard
350
18
  0
DICTIONARY
  5
19
102
{ACAD_REACTORS
330
C
102
}
330
C
100
AcDbDictionary
281
     1
  0
ACDBDICTIONARYWDFLT
  5
E
102
{ACAD_REACTORS
330
C
102
}
330
C
100
AcDbDictionary
281
     1
  3
Normal
350
F
100
AcDbDictionaryWithDefault
340
F
  0
DICTIONARY
  5
3B
102
{ACAD_REACTORS
330
C
102
}
330
C
100
AcDbDictionary
281
     1
  3
A0
350
3C
  3
A1
350
3D
  3
A2
350
3E
  3
A3
350
3F
  3
A4
350
40
  3
A5
350
41
  3
A6
350
42
  3
A7
350
43
  3
A8
350
44
  3
A9
350
45
  3
B0
350
46
  3
B1
350
47
  3
B2
350
48
  3
B3
350
49
  3
B4
350
4A
  3
B5
350
4B
  3
B6
350
4C
  3
B7
350
4D
  3
B8
350
4E
  3
B9
350
4F
  3
C0
350
50
  3
C1
350
51
  3
C2
350
52
  3
C3
350
53
  3
C4
350
54
  3
C5
350
55
  3
C6
350
56
  3
C7
350
57
  3
C8
350
58
  3
C9
350
59
  3
D0
350
5A
  3
D1
350
5B
  3
D2
350
5C
  0
DICTIONARY
  5
90
102
{ACAD_REACTORS
330
C
102
}
330
C
100
AcDbDictionary
281
     1
  0
DICTIONARY
  5
2A
102
{ACAD_REACTORS
330
C
102
}
330
C
100
AcDbDictionary
281
     1
  3
2dWireframe
350
2F
  3
3D Hidden
350
31
  3
3dWireframe
350
30
  3
Basic
350
32
  3
Brighten
350
36
  3
ColorChange
350
3A
  3
Conceptual
350
34
  3
Dim
350
35
  3
Facepattern
350
39
  3
Flat
350
2B
  3
FlatWithEdges
350
2C
  3
Gouraud
350
2D
  3
GouraudWithEdges
350
2E
  3
Linepattern
350
38
  3
Realistic
350
33
  3
Thicken
350
37
  0
LAYOUT
  5
1E
102
{ACAD_REACTORS
330
1A
102
}
330
1A
100
AcDbPlotSettings
  1

  2
none_device
  4

  6

 40
0.0
 41
0.0
 42
0.0
 43
0.0
 44
0.0
 45
0.0
 46
0.0
 47
0.0
 48
0.0
 49
0.0
140
0.0
141
0.0
142
1.0
143
1.0
 70
   688
 72
     0
 73
     0
 74
     5
  7

 75
    16
 76
     0
 77
     2
 78
   300
147
1.0
148
0.0
149
0.0
100
AcDbLayout
  1
Layout1
 70
     1
 71
     1
 10
0.0
 20
0.0
 11
12.0
 21
9.0
 12
0.0
 22
0.0
 32
0.0
 14
1.000000000000000E+20
 24
1.000000000000000E+20
 34
1.000000000000000E+20
 15
-1.000000000000000E+20
 25
-1.000000000000000E+20
 35
-1.000000000000000E+20
146
0.0
 13
0.0
 23
0.0
 33
0.0
 16
1.0
 26
0.0
 36
0.0
 17
0.0
 27
1.0
 37
0.0
 76
     0
330
1B
  0
LAYOUT
  5
26
102
{ACAD_REACTORS
330
1A
102
}
330
1A
100
AcDbPlotSettings
  1

  2
none_device
  4

  6

 40
0.0
 41
0.0
 42
0.0
 43
0.0
 44
0.0
 45
0.0
 46
0.0
 47
0.0
 48
0.0
 49
0.0
140
0.0
141
0.0
142
1.0
143
1.0
 70
   688
 72
     0
 73
     0
 74
     5
  7

 75
    16
 76
     0
 77
     2
 78
   300
147
1.0
148
0.0
149
0.0
100
AcDbLayout
  1
Layout2
 70
     1
 71
     2
 10
0.0
 20
0.0
 11
0.0
 21
0.0
 12
0.0
 22
0.0
 32
0.0
 14
0.0
 24
0.0
 34
0.0
 15
0.0
 25
0.0
 35
0.0
146
0.0
 13
0.0
 23
0.0
 33
0.0
 16
1.0
 26
0.0
 36
0.0
 17
0.0
 27
1.0
 37
0.0
 76
     0
330
23
  0
LAYOUT
  5
22
102
{ACAD_REACTORS
330
1A
102
}
330
1A
100
AcDbPlotSettings
  1

  2
none_device
  4

  6

 40
0.0
 41
0.0
 42
0.0
 43
0.0
 44
0.0
 45
0.0
 46
0.0
 47
0.0
 48
0.0
 49
0.0
140
0.0
141
0.0
142
1.0
143
1.0
 70
  1712
 72
     0
 73
     0
 74
     0
  7

 75
     0
 76
     0
 77
     2
 78
   300
147
1.0
148
0.0
149
0.0
100
AcDbLayout
  1
Model
 70
     1
 71
     0
 10
0.0
 20
0.0
 11
12.0
 21
9.0
 12
0.0
 22
0.0
 32
0.0
 14
677.3468
 24
1074.0057
 34
0.0
 15
1623.8753
 25
1225.4874
 35
0.0
146
0.0
 13
0.0
 23
0.0
 33
0.0
 16
1.0
 26
0.0
 36
0.0
 17
0.0
 27
1.0
 37
0.0
 76
     0
330
1F
331
29
  0
MLINESTYLE
  5
18
102
{ACAD_REACTORS
330
17
102
}
330
17
100
AcDbMlineStyle
  2
Standard
 70
     0
  3

 62
   256
 51
90.0
 52
90.0
 71
     2
 49
0.5
 62
   256
  6
BYLAYER
 49
-0.5
 62
   256
  6
BYLAYER
  0
ACDBPLACEHOLDER
  5
F
102
{ACAD_REACTORS
330
E
102
}
330
E
  0
SCALE
  5
3C
102
{ACAD_REACTORS
330
3B
102
}
330
3B
100
AcDbScale
 70
     0
300
1:1
140
1.0
141
1.0
290
     1
  0
SCALE
  5
3D
102
{ACAD_REACTORS
330
3B
102
}
330
3B
100
AcDbScale
 70
     0
300
1:2
140
1.0
141
2.0
290
     0
  0
SCALE
  5
3E
102
{ACAD_REACTORS
330
3B
102
}
330
3B
100
AcDbScale
 70
     0
300
1:4
140
1.0
141
4.0
290
     0
  0
SCALE
  5
3F
102
{ACAD_REACTORS
330
3B
102
}
330
3B
100
AcDbScale
 70
     0
300
1:5
140
1.0
141
5.0
290
     0
  0
SCALE
  5
40
102
{ACAD_REACTORS
330
3B
102
}
330
3B
100
AcDbScale
 70
     0
300
1:8
140
1.0
141
8.0
290
     0
  0
SCALE
  5
41
102
{ACAD_REACTORS
330
3B
102
}
330
3B
100
AcDbScale
 70
     0
300
1:10
140
1.0
141
10.0
290
     0
  0
SCALE
  5
42
102
{ACAD_REACTORS
330
3B
102
}
330
3B
100
AcDbScale
 70
     0
300
1:16
140
1.0
141
16.0
290
     0
  0
SCALE
  5
43
102
{ACAD_REACTORS
330
3B
102
}
330
3B
100
AcDbScale
 70
     0
300
1:20
140
1.0
141
20.0
290
     0
  0
SCALE
  5
44
102
{ACAD_REACTORS
330
3B
102
}
330
3B
100
AcDbScale
 70
     0
300
1:30
140
1.0
141
30.0
290
     0
  0
SCALE
  5
45
102
{ACAD_REACTORS
330
3B
102
}
330
3B
100
AcDbScale
 70
     0
300
1:40
140
1.0
141
40.0
290
     0
  0
SCALE
  5
46
102
{ACAD_REACTORS
330
3B
102
}
330
3B
100
AcDbScale
 70
     0
300
1:50
140
1.0
141
50.0
290
     0
  0
SCALE
  5
47
102
{ACAD_REACTORS
330
3B
102
}
330
3B
100
AcDbScale
 70
     0
300
1:100
140
1.0
141
100.0
290
     0
  0
SCALE
  5
48
102
{ACAD_REACTORS
330
3B
102
}
330
3B
100
AcDbScale
 70
     0
300
2:1
140
2.0
141
1.0
290
     0
  0
SCALE
  5
49
102
{ACAD_REACTORS
330
3B
102
}
330
3B
100
AcDbScale
 70
     0
300
4:1
140
4.0
141
1.0
290
     0
  0
SCALE
  5
4A
102
{ACAD_REACTORS
330
3B
102
}
330
3B
100
AcDbScale
 70
     0
300
8:1
140
8.0
141
1.0
290
     0
  0
SCALE
  5
4B
102
{ACAD_REACTORS
330
3B
102
}
330
3B
100
AcDbScale
 70
     0
300
10:1
140
10.0
141
1.0
290
     0
  0
SCALE
  5
4C
102
{ACAD_REACTORS
330
3B
102
}
330
3B
100
AcDbScale
 70
     0
300
100:1
140
100.0
141
1.0
290
     0
  0
SCALE
  5
4D
102
{ACAD_REACTORS
330
3B
102
}
330
3B
100
AcDbScale
 70
     0
300
1/128" = 1'-0"
140
0.0078125
141
12.0
290
     0
  0
SCALE
  5
4E
102
{ACAD_REACTORS
330
3B
102
}
330
3B
100
AcDbScale
 70
     0
300
1/64" = 1'-0"
140
0.015625
141
12.0
290
     0
  0
SCALE
  5
4F
102
{ACAD_REACTORS
330
3B
102
}
330
3B
100
AcDbScale
 70
     0
300
1/32" = 1'-0"
140
0.03125
141
12.0
290
     0
  0
SCALE
  5
50
102
{ACAD_REACTORS
330
3B
102
}
330
3B
100
AcDbScale
 70
     0
300
1/16" = 1'-0"
140
0.0625
141
12.0
290
     0
  0
SCALE
  5
51
102
{ACAD_REACTORS
330
3B
102
}
330
3B
100
AcDbScale
 70
     0
300
3/32" = 1'-0"
140
0.09375
141
12.0
290
     0
  0
SCALE
  5
52
102
{ACAD_REACTORS
330
3B
102
}
330
3B
100
AcDbScale
 70
     0
300
1/8" = 1'-0"
140
0.125
141
12.0
290
     0
  0
SCALE
  5
53
102
{ACAD_REACTORS
330
3B
102
}
330
3B
100
AcDbScale
 70
     0
300
3/16" = 1'-0"
140
0.1875
141
12.0
290
     0
  0
SCALE
  5
54
102
{ACAD_REACTORS
330
3B
102
}
330
3B
100
AcDbScale
 70
     0
300
1/4" = 1'-0"
140
0.25
141
12.0
290
     0
  0
SCALE
  5
55
102
{ACAD_REACTORS
330
3B
102
}
330
3B
100
AcDbScale
 70
     0
300
3/8" = 1'-0"
140
0.375
141
12.0
290
     0
  0
SCALE
  5
56
102
{ACAD_REACTORS
330
3B
102
}
330
3B
100
AcDbScale
 70
     0
300
1/2" = 1'-0"
140
0.5
141
12.0
290
     0
  0
SCALE
  5
57
102
{ACAD_REACTORS
330
3B
102
}
330
3B
100
AcDbScale
 70
     0
300
3/4" = 1'-0"
140
0.75
141
12.0
290
     0
  0
SCALE
  5
58
102
{ACAD_REACTORS
330
3B
102
}
330
3B
100
AcDbScale
 70
     0
300
1" = 1'-0"
140
1.0
141
12.0
290
     0
  0
SCALE
  5
59
102
{ACAD_REACTORS
330
3B
102
}
330
3B
100
AcDbScale
 70
     0
300
1-1/2" = 1'-0"
140
1.5
141
12.0
290
     0
  0
SCALE
  5
5A
102
{ACAD_REACTORS
330
3B
102
}
330
3B
100
AcDbScale
 70
     0
300
3" = 1'-0"
140
3.0
141
12.0
290
     0
  0
SCALE
  5
5B
102
{ACAD_REACTORS
330
3B
102
}
330
3B
100
AcDbScale
 70
     0
300
6" = 1'-0"
140
6.0
141
12.0
290
     0
  0
SCALE
  5
5C
102
{ACAD_REACTORS
330
3B
102
}
330
3B
100
AcDbScale
 70
     0
300
1'-0" = 1'-0"
140
12.0
141
12.0
290
     0
  0
VISUALSTYLE
  5
2F
102
{ACAD_REACTORS
330
2A
102
}
330
2A
100
AcDbVisualStyle
  2
2dWireframe
 70
     4
 71
     0
 72
     2
 73
     0
 90
        0
 40
-0.6
 41
-30.0
 62
     5
 63
     7
421
 16777215
 74
     1
 91
        4
 64
     7
 65
   257
 75
     1
175
     1
 42
1.0
 92
        0
 66
   257
 43
1.0
 76
     1
 77
     6
 78
     2
 67
     7
 79
     5
170
     0
171
     0
290
     0
174
     0
 93
        1
 44
0.0
173
     0
291
     0
 45
0.0
  0
VISUALSTYLE
  5
31
102
{ACAD_REACTORS
330
2A
102
}
330
2A
100
AcDbVisualStyle
  2
3D Hidden
 70
     6
 71
     1
 72
     2
 73
     2
 90
        0
 40
-0.6
 41
-30.0
 62
     5
 63
     7
421
 16777215
 74
     2
 91
        2
 64
     7
 65
   257
 75
     2
175
     1
 42
40.0
 92
        0
 66
   257
 43
1.0
 76
     1
 77
     6
 78
     2
 67
     7
 79
     3
170
     0
171
     0
290
     0
174
     0
 93
        1
 44
0.0
173
     0
291
     0
 45
0.0
  0
VISUALSTYLE
  5
30
102
{ACAD_REACTORS
330
2A
102
}
330
2A
100
AcDbVisualStyle
  2
3dWireframe
 70
     5
 71
     0
 72
     2
 73
     0
 90
        0
 40
-0.6
 41
-30.0
 62
     5
 63
     7
421
 16777215
 74
     1
 91
        4
 64
     7
 65
   257
 75
     1
175
     1
 42
1.0
 92
        0
 66
   257
 43
1.0
 76
     1
 77
     6
 78
     2
 67
     7
 79
     5
170
     0
171
     0
290
     0
174
     0
 93
        1
 44
0.0
173
     0
291
     0
 45
0.0
  0
VISUALSTYLE
  5
32
102
{ACAD_REACTORS
330
2A
102
}
330
2A
100
AcDbVisualStyle
  2
Basic
 70
     7
 71
     1
 72
     0
 73
     1
 90
        0
 40
-0.6
 41
-30.0
 62
     5
 63
     7
421
 16777215
 74
     0
 91
        4
 64
     7
 65
   257
 75
     1
175
     1
 42
1.0
 92
        8
 66
     7
 43
1.0
 76
     1
 77
     6
 78
     2
 67
     7
 79
     5
170
     0
171
     0
290
     0
174
     0
 93
        1
 44
0.0
173
     0
291
     1
 45
0.0
  0
VISUALSTYLE
  5
36
102
{ACAD_REACTORS
330
2A
102
}
330
2A
100
AcDbVisualStyle
  2
Brighten
 70
    12
 71
     2
 72
     2
 73
     0
 90
        0
 40
-0.6
 41
-30.0
 62
     5
 63
     7
421
 16777215
 74
     1
 91
        4
 64
     7
 65
   257
 75
     1
175
     1
 42
1.0
 92
        8
 66
     7
 43
1.0
 76
     1
 77
     6
 78
     2
 67
     7
 79
     5
170
     0
171
     0
290
     0
174
     0
 93
        1
 44
50.0
173
     0
291
     1
 45
0.0
  0
VISUALSTYLE
  5
3A
102
{ACAD_REACTORS
330
2A
102
}
330
2A
100
AcDbVisualStyle
  2
ColorChange
 70
    16
 71
     2
 72
     2
 73
     3
 90
        0
 40
-0.6
 41
-30.0
 62
     5
 63
     8
421
  8421504
 74
     1
 91
        4
 64
     7
 65
   257
 75
     1
175
     1
 42
1.0
 92
        8
 66
     8
424
  8421504
 43
1.0
 76
     1
 77
     6
 78
     2
 67
     7
 79
     5
170
     0
171
     0
290
     0
174
     0
 93
        1
 44
0.0
173
     0
291
     1
 45
0.0
  0
VISUALSTYLE
  5
34
102
{ACAD_REACTORS
330
2A
102
}
330
2A
100
AcDbVisualStyle
  2
Conceptual
 70
     9
 71
     3
 72
     2
 73
     0
 90
        0
 40
-0.6
 41
-30.0
 62
     5
 63
     7
421
 16777215
 74
     2
 91
        2
 64
     7
 65
   257
 75
     1
175
     1
 42
40.0
 92
        8
 66
     7
 43
1.0
 76
     1
 77
     6
 78
     2
 67
     7
 79
     3
170
     0
171
     0
290
     0
174
     0
 93
        1
 44
0.0
173
     0
291
     0
 45
0.0
  0
VISUALSTYLE
  5
35
102
{ACAD_REACTORS
330
2A
102
}
330
2A
100
AcDbVisualStyle
  2
Dim
 70
    11
 71
     2
 72
     2
 73
     0
 90
        0
 40
-0.6
 41
-30.0
 62
     5
 63
     7
421
 16777215
 74
     1
 91
        4
 64
     7
 65
   257
 75
     1
175
     1
 42
1.0
 92
        8
 66
     7
 43
1.0
 76
     1
 77
     6
 78
     2
 67
     7
 79
     5
170
     0
171
     0
290
     0
174
     0
 93
        1
 44
-50.0
173
     0
291
     1
 45
0.0
  0
VISUALSTYLE
  5
39
102
{ACAD_REACTORS
330
2A
102
}
330
2A
100
AcDbVisualStyle
  2
Facepattern
 70
    15
 71
     2
 72
     2
 73
     0
 90
        0
 40
-0.6
 41
-30.0
 62
     5
 63
     7
421
 16777215
 74
     1
 91
        4
 64
     7
 65
   257
 75
     1
175
     1
 42
1.0
 92
        8
 66
     7
 43
1.0
 76
     1
 77
     6
 78
     2
 67
     7
 79
     5
170
     0
171
     0
290
     0
174
     0
 93
        1
 44
0.0
173
     0
291
     1
 45
0.0
  0
VISUALSTYLE
  5
2B
102
{ACAD_REACTORS
330
2A
102
}
330
2A
100
AcDbVisualStyle
  2
Flat
 70
     0
 71
     2
 72
     1
 73
     1
 90
        2
 40
-0.6
 41
30.0
 62
     5
 63
     7
421
 16777215
 74
     0
 91
        4
 64
     7
 65
   257
 75
     1
175
     1
 42
1.0
 92
        8
 66
     7
 43
1.0
 76
     1
 77
     6
 78
     2
 67
     7
 79
     5
170
     0
171
     0
290
     0
174
     0
 93
       13
 44
0.0
173
     0
291
     1
 45
0.0
  0
VISUALSTYLE
  5
2C
102
{ACAD_REACTORS
330
2A
102
}
330
2A
100
AcDbVisualStyle
  2
FlatWithEdges
 70
     1
 71
     2
 72
     1
 73
     1
 90
        2
 40
-0.6
 41
30.0
 62
     5
 63
     7
421
 16777215
 74
     1
 91
        4
 64
     7
 65
   257
 75
     1
175
     1
 42
1.0
 92
        0
 66
   257
 43
1.0
 76
     1
 77
     6
 78
     2
 67
     7
 79
     5
170
     0
171
     0
290
     0
174
     0
 93
       13
 44
0.0
173
     0
291
     1
 45
0.0
  0
VISUALSTYLE
  5
2D
102
{ACAD_REACTORS
330
2A
102
}
330
2A
100
AcDbVisualStyle
  2
Gouraud
 70
     2
 71
     2
 72
     2
 73
     1
 90
        2
 40
-0.6
 41
30.0
 62
     5
 63
     7
421
 16777215
 74
     0
 91
        4
 64
     7
 65
   257
 75
     1
175
     1
 42
1.0
 92
        0
 66
     7
 43
1.0
 76
     1
 77
     6
 78
     2
 67
     7
 79
     5
170
     0
171
     0
290
     0
174
     0
 93
       13
 44
0.0
173
     0
291
     1
 45
0.0
  0
VISUALSTYLE
  5
2E
102
{ACAD_REACTORS
330
2A
102
}
330
2A
100
AcDbVisualStyle
  2
GouraudWithEdges
 70
     3
 71
     2
 72
     2
 73
     1
 90
        2
 40
-0.6
 41
30.0
 62
     5
 63
     7
421
 16777215
 74
     1
 91
        4
 64
     7
 65
   257
 75
     1
175
     1
 42
1.0
 92
        0
 66
   257
 43
1.0
 76
     1
 77
     6
 78
     2
 67
     7
 79
     5
170
     0
171
     0
290
     0
174
     0
 93
       13
 44
0.0
173
     0
291
     1
 45
0.0
  0
VISUALSTYLE
  5
38
102
{ACAD_REACTORS
330
2A
102
}
330
2A
100
AcDbVisualStyle
  2
Linepattern
 70
    14
 71
     2
 72
     2
 73
     0
 90
        0
 40
-0.6
 41
-30.0
 62
     5
 63
     7
421
 16777215
 74
     1
 91
        4
 64
     7
 65
   257
 75
     7
175
     7
 42
1.0
 92
        8
 66
     7
 43
1.0
 76
     1
 77
     6
 78
     2
 67
     7
 79
     5
170
     0
171
     0
290
     0
174
     0
 93
        1
 44
0.0
173
     0
291
     1
 45
0.0
  0
VISUALSTYLE
  5
33
102
{ACAD_REACTORS
330
2A
102
}
330
2A
100
AcDbVisualStyle
  2
Realistic
 70
     8
 71
     2
 72
     2
 73
     0
 90
        0
 40
-0.6
 41
-30.0
 62
     5
 63
     7
421
 16777215
 74
     1
 91
        0
 64
     7
 65
   257
 75
     1
175
     1
 42
1.0
 92
        8
 66
     8
424
  7895160
 43
1.0
 76
     1
 77
     6
 78
     2
 67
     7
 79
     5
170
     0
171
     0
290
     0
174
     0
 93
       13
 44
0.0
173
     0
291
     0
 45
0.0
  0
VISUALSTYLE
  5
37
102
{ACAD_REACTORS
330
2A
102
}
330
2A
100
AcDbVisualStyle
  2
Thicken
 70
    13
 71
     2
 72
     2
 73
     0
 90
        0
 40
-0.6
 41
-30.0
 62
     5
 63
     7
421
 16777215
 74
     1
 91
        4
 64
     7
 65
   257
 75
     1
175
     1
 42
1.0
 92
       12
 66
     7
 43
1.0
 76
     1
 77
     6
 78
     2
 67
     7
 79
     5
170
     0
171
     0
290
     0
174
     0
 93
        1
 44
0.0
173
     0
291
     1
 45
0.0
  0
ENDSEC
  0
EOF
